<?xml version="1.0" encoding="UTF-8"?>
<!DOCTYPE svg PUBLIC "-//W3C//DTD SVG 1.1//EN" "http://www.w3.org/Graphics/SVG/1.1/DTD/svg11.dtd">
<!-- Creator: CorelDRAW 2017 -->
<svg xmlns="http://www.w3.org/2000/svg" xml:space="preserve" width="18mm" height="17mm" version="1.1" style="shape-rendering:geometricPrecision; text-rendering:geometricPrecision; image-rendering:optimizeQuality; fill-rule:evenodd; clip-rule:evenodd"
viewBox="0 0 1800 1700"
 xmlns:xlink="http://www.w3.org/1999/xlink">
 <defs>
  <style type="text/css">
   <![CDATA[
    .fil0 {fill:#333262}
   ]]>
  </style>
 </defs>
 <g id="Capa_x0020_1">
  <metadata id="CorelCorpID_0Corel-Layer"/>
  <path class="fil0" d="M1489.82 1192.5l3.84 -30.71 -1187.32 1.62c14.3,26.08 12.42,61.71 68.74,94.19 44,25.38 101.43,20.88 158.3,20.87l696.33 0.01c52.45,0.03 119.12,5.89 166.4,-7.25 62.76,-17.46 65.28,-45.67 93.71,-78.73zm-476.67 5.43c12.15,0 22,9.85 22,22 0,12.15 -9.85,22 -22,22 -12.15,0 -22,-9.85 -22,-22 0,-12.15 9.85,-22 22,-22zm-110 -16.26c21.13,0 38.26,17.13 38.26,38.26 0,21.13 -17.13,38.26 -38.26,38.26 -21.13,0 -38.26,-17.13 -38.26,-38.26 0,-21.13 17.13,-38.26 38.26,-38.26zm-100 16.26c12.15,0 22,9.85 22,22 0,12.15 -9.85,22 -22,22 -12.15,0 -22,-9.85 -22,-22 0,-12.15 9.85,-22 22,-22zm-49.79 -464.66l64.24 1.41c2.66,20.21 0.78,32.31 7.23,48.45 45.79,16.18 44.39,-8.38 45.35,-48.92l63.85 0.16c0.56,26.92 -3.31,55.55 27.97,53.7 27.5,-1.63 23.54,-27.9 24.14,-54.23l66.19 2.82 0.4 287.78c0.04,15.85 1.32,28.32 -5.39,34.43 -21.1,11.36 -254.74,7.79 -295.56,2.48l1.58 -328.08zm117.36 -61.31c-2.32,-34.42 -4.82,-38.41 14.97,-62.85l35.18 2.87c16.98,23.48 15.16,24.43 12.64,60.77l-36.84 0.33 -25.95 -1.12zm-55.99 -2.36c-12.85,8.68 -35.2,4.85 -59.32,4.69 -12.17,-0.07 -50.79,-2.86 -59.41,2.4 -14.35,8.73 -8.18,27.46 -7.97,59.82l0.02 307.8c-0.11,92.16 -39.04,77.27 178.36,77.21 33.18,-0.01 240.87,11.02 246.13,-8.04 6.8,-24.61 3.54,-78.06 3.54,-104.5 -0.01,-73.55 4.74,-289.67 -2.11,-334.14l-127.79 -2.38c-2.36,-19.38 5.96,-116.89 -84.44,-116.47 -88.63,0.41 -77.48,98.11 -87.01,113.61zm-175.49 449.76l1.5 -59.05 -141.34 -0.94 -1.37 -549.11 806.8 -1.25 1.25 549.74 -140.42 1.15 -1.36 58.81c35.18,3.73 80.6,1.26 115.87,1.27 141.9,0.01 111.06,18.44 111.11,-186.68l0.02 -439c0.22,-43.6 6.19,-45.65 -15.26,-73.07l-938.53 -1.05c-34.64,10.58 -24.66,50.6 -24.64,89.26l1.88 593.65c9.37,27.85 73.25,16.89 103.49,16.88 39.62,-0.01 81.7,1.39 121,-0.61zm252.4 -140.12l15.13 -32.07c25.59,14.15 38.12,46.58 65.6,55.33l27.15 -27.32c-15.76,-27.08 -48.08,-39.13 -57.83,-67.6l32.4 -14.65 -34.4 -17.58c-26.02,-10.13 -93.57,-40.73 -111.47,-41.34 2.63,14.99 20.63,54.67 28.55,74.25 6.84,16.94 19.49,62.09 34.87,70.98z"/>
 </g>
</svg>
