<?xml version="1.0" encoding="UTF-8"?>
<!DOCTYPE svg PUBLIC "-//W3C//DTD SVG 1.1//EN" "http://www.w3.org/Graphics/SVG/1.1/DTD/svg11.dtd">
<!-- Creator: CorelDRAW 2017 -->
<svg xmlns="http://www.w3.org/2000/svg" xml:space="preserve" width="41.8252mm" height="29.4638mm" version="1.1" style="shape-rendering:geometricPrecision; text-rendering:geometricPrecision; image-rendering:optimizeQuality; fill-rule:evenodd; clip-rule:evenodd"
viewBox="0 0 4182.52 2946.38"
 xmlns:xlink="http://www.w3.org/1999/xlink">
 <defs>
  <style type="text/css">
   <![CDATA[
    .str0 {stroke:#FEFEFE;stroke-width:20;stroke-miterlimit:22.9256}
    .str2 {stroke:#382954;stroke-width:7.62;stroke-miterlimit:22.9256}
    .str6 {stroke:#423068;stroke-width:7.62;stroke-miterlimit:22.9256}
    .str5 {stroke:#3B2B5D;stroke-width:7.62;stroke-miterlimit:22.9256}
    .str3 {stroke:#44316D;stroke-width:7.62;stroke-miterlimit:22.9256}
    .str1 {stroke:#4D004D;stroke-width:7.62;stroke-miterlimit:22.9256}
    .str4 {stroke:#660066;stroke-width:7.62;stroke-miterlimit:22.9256}
    .fil0 {fill:#FEFEFE}
    .fil2 {fill:#382954}
    .fil6 {fill:#423068}
    .fil5 {fill:#453873}
    .fil3 {fill:#352D61}
    .fil1 {fill:#4D004D}
    .fil4 {fill:#660066}
    .fil9 {fill:#00F251;fill-rule:nonzero}
    .fil7 {fill:#10FF60;fill-rule:nonzero}
    .fil10 {fill:#46FA97;fill-rule:nonzero}
    .fil8 {fill:#5AFFA4;fill-rule:nonzero}
   ]]>
  </style>
 </defs>
 <g id="Capa_x0020_1">
  <metadata id="CorelCorpID_0Corel-Layer"/>
  <polygon class="fil0 str0" points="1424.52,646.9 2758.01,646.9 2758.01,1980.39 1424.52,1980.39 "/>
  <path class="fil1 str1" d="M3303.31 1198.57c103.8,-13.45 -13.86,-42.9 68.43,-76.63l177.29 0.42c-75.31,131.78 -281.96,353.38 -278.94,427.63l386.99 4.54 5.89 -138.05c-54.73,-0.51 -42.13,-18.94 -80.34,65.78 -1.38,3.06 -2.81,8.41 -5.58,11.73l-200 0c48.7,-111.23 274.29,-338.84 278.39,-429.23l-371.41 -3.64 2.54 109.44c13.44,40.39 -10.01,2.06 16.74,28.01z"/>
  <path class="fil2 str2" d="M761.31 1144.34c255.68,-110.4 393.14,292.01 160.1,398.27 -175.5,80.01 -348.45,-100.34 -268.22,-295.34 26.7,-64.9 46.19,-76.19 108.12,-102.93zm395.08 563.25c-24.48,-119.71 -52.35,-13.84 -152.84,-53.84l-58.23 -47.06c154.03,-54.29 237.95,-244.02 133.17,-425.37 -79.16,-137 -316.75,-183.81 -451.01,-41.79 -135.11,142.91 -86.85,367.81 54.77,452.03 81.66,48.56 137.74,32.98 231.37,96.92 69.12,47.2 165.64,88.94 242.77,19.11z"/>
  <path class="fil2 str2" d="M1156.39 1707.59c-77.13,69.83 -173.65,28.09 -242.77,-19.11 -93.63,-63.94 -149.71,-48.36 -231.37,-96.92 -141.62,-84.22 -189.88,-309.12 -54.77,-452.03 134.26,-142.02 371.85,-95.21 451.01,41.79 104.78,181.35 20.86,371.08 -133.17,425.37l58.23 47.06c100.49,40 128.36,-65.87 152.84,53.84zm541.28 -37.62c-38.06,-89.5 -6.43,-542.2 -12.87,-687.28 -4.94,-111.04 -46.8,-190.93 -106.29,-246.6 -94.16,-88.09 -179.59,-44.04 -256.45,-86.85 -448.66,103.38 -1276.95,-200.58 -1310.88,319.52 -12.12,185.86 -16.97,623.8 1.3,803 35.12,344.44 358.45,282.45 509.59,294.51 -0.27,84.43 -10.3,144.6 -39.38,215.29 -28.55,69.42 -70.45,97.55 -58.53,168.63 153.39,18.47 442.43,-289.92 496.52,-384.95 152.12,-6.88 441.07,19.36 567.04,-23.96 228.78,-78.68 170.49,-304.69 209.95,-371.31z"/>
  <path class="fil2 str2" d="M761.31 1144.34c-61.93,26.74 -81.42,38.03 -108.12,102.93 -80.23,195 92.72,375.35 268.22,295.34 233.04,-106.26 95.58,-508.67 -160.1,-398.27z"/>
  <path class="fil3 str3" d="M3303.31 1198.57c-26.75,-25.95 -3.3,12.38 -16.74,-28.01l-2.54 -109.44 371.41 3.64c-4.1,90.39 -229.69,318 -278.39,429.23l200 0c2.77,-3.32 4.2,-8.67 5.58,-11.73 38.21,-84.72 25.61,-66.29 80.34,-65.78l-5.89 138.05 -386.99 -4.54c-3.02,-74.25 203.63,-295.85 278.94,-427.63l-177.29 -0.42c-82.29,33.73 35.37,63.18 -68.43,76.63zm-466 -603.37c60.97,145.91 131.09,188.62 129.15,414.46 -0.69,80.15 -14.15,155.48 -40.98,224.51 -29.16,75.05 -68.06,115.66 -93.08,179.95 119.97,25.73 279,144.54 334.29,210.93 92.67,111.29 144.9,222 144.9,415.63 212.58,0 395.06,4.59 607.04,-18.22 115.63,29.52 253.68,-121.2 260.6,-328.02 6.42,-192.12 0.16,-395.66 0.21,-589.07 0.15,-560.35 -170.27,-494.8 -670.12,-510.33 -89.15,-276.58 21.78,-439.31 -3.51,-540.16 -77.95,-11.25 -94.8,42.84 -135.21,91.39 -196.87,236.56 -170.94,349.61 -217.84,449.58l-315.45 -0.65z"/>
  <path class="fil4 str4" d="M2533.97 1995.01l0 218.99c-63.13,47.38 -54.24,-28.85 -59.77,68.44 3.61,2.47 9.28,0.72 11.71,5.92l92.14 15.71c70.85,-0.09 73.3,-1.4 100.9,-21.63 -3.5,-69.65 12.07,-50.65 -62.59,-52.21l-0.46 -326.25 -140.49 -0.8c-6.93,115.53 2.04,41.15 58.56,91.83z"/>
  <path class="fil5 str5" d="M2474.2 2282.44c5.53,-97.29 -3.36,-21.06 59.77,-68.44l0 -218.99c-56.52,-50.68 -65.49,23.7 -58.56,-91.83l140.49 0.8 0.46 326.25c74.66,1.56 59.09,-17.44 62.59,52.21 -27.6,20.23 -30.05,21.54 -100.9,21.63l-92.14 -15.71c-2.43,-5.2 -8.1,-3.45 -11.71,-5.92zm-634.75 -579.76c4.35,5.15 21.71,30.41 23.29,32.29 -84.87,151.33 -92.67,356.54 -12.66,522.73 104.92,217.96 329.76,354.52 571.77,388.16 194.28,27.01 102.58,-18.9 223.04,89.93 21.73,19.64 437.81,336.32 405.6,155.97l-64.67 -127.47c-25.2,-58.57 -45.91,-123.92 -50.7,-197.07 217.81,-92.34 338.26,-276.65 379.62,-513.47 106.61,0 539.92,24.48 603.89,-31.29 -211.98,22.81 -394.46,18.22 -607.04,18.22 0,-193.63 -52.23,-304.34 -144.9,-415.63 -55.29,-66.39 -214.32,-185.2 -334.29,-210.93 -273.06,-121.76 -688.13,-27.14 -898.8,224.18 -47.33,56.47 -30.63,72.98 -94.15,64.38z"/>
  <path class="fil6 str6" d="M1912.14 829.44c-30.19,-32.58 -23.79,56.61 -37.95,-52.55l22.42 -11.17c94.84,-32.42 -69.25,11.52 24.37,-7.27l153.44 18.44c-9.85,85.16 17.71,30.43 -63.19,54.75 -9.24,132.13 -49.94,389.51 114.87,388.16 155.91,-1.3 131.92,-229.45 117.11,-388.16 -78.42,-22.11 -54.32,25.08 -62.39,-54.75l19.51 -10.97c3.21,-1.2 6.95,-3.13 10.68,-4.23 42.05,-12.4 134.72,-8.7 170.06,15.2 -17.1,119.14 -8.14,11.25 -48.74,58.36 -66.08,76.72 97.14,455.76 -205.98,455.35 -236.26,-0.32 -191.42,-237.79 -193.3,-392.25 -0.8,-65.86 4.77,-41.21 -20.91,-68.91zm-590.08 -180.19c76.86,42.81 162.3,-1.26 256.45,86.84 59.49,55.66 101.34,135.56 106.3,246.61 6.42,145.06 -25.2,597.76 12.87,687.27 55.92,12.08 78.33,32.77 141.77,32.71 63.52,8.6 46.82,-7.91 94.16,-64.37 210.65,-251.32 625.74,-345.94 898.79,-224.19 25.02,-64.28 63.92,-104.9 93.08,-179.94 26.83,-69.03 40.29,-144.37 40.98,-224.52 1.94,-225.85 -68.19,-268.56 -129.15,-414.46 -89.77,-83.38 -143.22,-153.37 -267.69,-220.42 -109.55,-59.01 -236.12,-102.46 -378.5,-112.78 -158.18,-11.45 -86.19,1.35 -175.26,-72.66 -122.41,-101.73 -395.41,-223 -520.78,-181.77 -1.15,114.52 150.11,127.46 166.32,346.82 -115.15,40.6 -304.18,202.74 -339.34,294.86zm552.13 127.64c14.16,109.17 7.76,19.98 37.95,52.55 25.69,27.71 20.11,3.05 20.91,68.92 1.88,154.44 -42.95,391.92 193.31,392.24 303.11,0.41 139.89,-378.63 205.97,-455.34 40.59,-47.12 31.64,60.77 48.73,-58.37 -35.32,-23.92 -128,-27.6 -170.03,-15.19 -3.74,1.1 -7.5,3.03 -10.71,4.23l-19.51 10.96c8.08,79.83 -16.02,32.64 62.38,54.75 14.82,158.72 38.82,386.87 -117.09,388.16 -164.8,1.36 -124.12,-256.03 -114.87,-388.16 80.89,-24.32 53.34,30.4 63.18,-54.75l-153.42 -18.43c-93.62,18.78 70.46,-25.17 -24.38,7.26l-22.42 11.17z"/>
  <path class="fil7" d="M1078.54 955.17l0 804.06 -171.36 0 0 -275.71c-42.47,47.6 -101.42,71.4 -176.84,71.4 -55.66,0 -106,-12.45 -151.04,-37.35 -45.03,-24.9 -80.37,-60.41 -106,-106.55 -25.63,-46.13 -38.44,-99.59 -38.44,-160.37 0,-60.78 12.81,-114.23 38.44,-160.37 25.63,-46.13 60.97,-81.65 106,-106.55 45.04,-24.89 95.38,-37.34 151.04,-37.34 80.55,0 142.06,25.63 184.53,76.89l0 -68.11 163.67 0zm-318.54 459.15c43.2,0 79.08,-14.83 107.64,-44.49 28.56,-29.66 42.84,-69.38 42.84,-119.18 0,-49.79 -14.28,-89.52 -42.84,-119.18 -28.56,-29.65 -64.44,-44.48 -107.64,-44.48 -43.94,0 -80.19,14.83 -108.75,44.48 -28.56,29.66 -42.84,69.39 -42.84,119.18 0,49.8 14.28,89.52 42.84,119.18 28.56,29.66 64.81,44.49 108.75,44.49z"/>
  <path class="fil8" d="M2448.29 1836.29l171.35 0 0 590.96 -171.35 0 0 -590.96zm85.67 -82.38c-31.48,0 -57.11,-9.15 -76.89,-27.46 -19.77,-18.31 -29.65,-41.01 -29.65,-68.1 0,-27.1 9.88,-49.8 29.65,-68.1 19.78,-18.31 45.41,-27.46 76.89,-27.46 31.49,0 57.12,8.78 76.89,26.36 19.78,17.57 29.66,39.54 29.66,65.9 0,28.56 -9.88,52.18 -29.66,70.85 -19.77,18.68 -45.4,28.01 -76.89,28.01z"/>
  <polygon class="fil9" points="3721.34,1395.69 3721.34,1527.5 3194.1,1527.5 3194.1,1424.25 3311.63,1285.85 3231.44,1285.85 3231.44,1171.61 3408.29,1171.61 3495.07,1068.36 3201.79,1068.36 3201.79,936.54 3711.46,936.54 3711.46,1039.8 3599.42,1172.71 3682.9,1172.71 3682.9,1286.94 3502.76,1286.94 3410.49,1395.69 "/>
  <path class="fil10" d="M2415.17 688.65l0 590.96 -162.57 0 0 -70.3c-22.7,25.63 -49.8,45.22 -81.29,58.77 -31.48,13.54 -65.54,20.32 -102.15,20.32 -77.62,0 -139.13,-22.34 -184.54,-67.01 -45.4,-44.67 -68.1,-110.94 -68.1,-198.81l0 -333.93 171.36 0 0 308.66c0,95.2 39.91,142.8 119.73,142.8 41,0 73.96,-13.36 98.85,-40.09 24.9,-26.73 37.35,-66.46 37.35,-119.18l0 -292.19 171.36 0z"/>
 </g>
</svg>
