<?xml version="1.0" encoding="UTF-8"?>
<svg width="700pt" height="700pt" version="1.1" viewBox="0 0 700 700" xmlns="http://www.w3.org/2000/svg" xmlns:xlink="http://www.w3.org/1999/xlink">
 <defs>
  <symbol id="u" overflow="visible">
   <path d="m25.453-1.5156c-1.3125 0.67969-2.6836 1.1875-4.1094 1.5312-1.418 0.34375-2.9023 0.51562-4.4531 0.51562-4.6055 0-8.2578-1.2852-10.953-3.8594-2.6992-2.582-4.0469-6.0781-4.0469-10.484 0-4.4258 1.3477-7.9258 4.0469-10.5 2.6953-2.582 6.3477-3.875 10.953-3.875 1.5508 0 3.0352 0.17188 4.4531 0.51562 1.4258 0.34375 2.7969 0.85938 4.1094 1.5469v5.7188c-1.3242-0.89453-2.6328-1.5508-3.9219-1.9688-1.2812-0.42578-2.6367-0.64062-4.0625-0.64062-2.543 0-4.543 0.82031-6 2.4531-1.4609 1.625-2.1875 3.875-2.1875 6.75 0 2.8555 0.72656 5.1016 2.1875 6.7344 1.457 1.625 3.457 2.4375 6 2.4375 1.4258 0 2.7812-0.20703 4.0625-0.625 1.2891-0.41406 2.5977-1.0781 3.9219-1.9844z"/>
  </symbol>
  <symbol id="b" overflow="visible">
   <path d="m18.625-15.109c-0.58594-0.28125-1.1641-0.48438-1.7344-0.60938-0.57422-0.125-1.1523-0.1875-1.7344-0.1875-1.7109 0-3.0273 0.54688-3.9531 1.6406-0.91797 1.0938-1.375 2.6641-1.375 4.7031v9.5625h-6.6406v-20.766h6.6406v3.4062c0.85156-1.3633 1.832-2.3594 2.9375-2.9844 1.1016-0.625 2.4297-0.9375 3.9844-0.9375 0.21875 0 0.45703 0.011719 0.71875 0.03125 0.25781 0.023438 0.64062 0.0625 1.1406 0.125z"/>
  </symbol>
  <symbol id="a" overflow="visible">
   <path d="m23.922-10.438v1.8906h-15.516c0.15625 1.5547 0.71094 2.7188 1.6719 3.5 0.96875 0.78125 2.3203 1.1719 4.0625 1.1719 1.3945 0 2.8203-0.20703 4.2812-0.625 1.4688-0.41406 2.9727-1.0391 4.5156-1.875v5.1094c-1.5625 0.59375-3.1328 1.043-4.7031 1.3438-1.5742 0.30078-3.1484 0.45312-4.7188 0.45312-3.7617 0-6.6836-0.95312-8.7656-2.8594-2.0859-1.9062-3.125-4.5859-3.125-8.0469 0-3.3828 1.0195-6.0469 3.0625-7.9844 2.0508-1.9453 4.875-2.9219 8.4688-2.9219 3.2578 0 5.8672 0.98438 7.8281 2.9531 1.957 1.9688 2.9375 4.6016 2.9375 7.8906zm-6.8281-2.2188c0-1.2578-0.37109-2.2734-1.1094-3.0469-0.73047-0.76953-1.6875-1.1562-2.875-1.1562-1.2812 0-2.3281 0.36719-3.1406 1.0938-0.80469 0.71875-1.3047 1.7578-1.5 3.1094z"/>
  </symbol>
  <symbol id="d" overflow="visible">
   <path d="m12.5-9.3438c-1.3867 0-2.4297 0.23438-3.125 0.70312-0.69922 0.46875-1.0469 1.1641-1.0469 2.0781 0 0.84375 0.28125 1.5078 0.84375 1.9844 0.5625 0.46875 1.3438 0.70312 2.3438 0.70312 1.25 0 2.3008-0.44531 3.1562-1.3438 0.85156-0.89453 1.2812-2.0195 1.2812-3.375v-0.75zm10.141-2.5156v11.859h-6.6875v-3.0781c-0.89844 1.2617-1.9023 2.1797-3.0156 2.75-1.1055 0.57031-2.4531 0.85938-4.0469 0.85938-2.1562 0-3.9062-0.625-5.25-1.875-1.3438-1.2578-2.0156-2.8906-2.0156-4.8906 0-2.4375 0.83594-4.2227 2.5156-5.3594 1.6758-1.1328 4.3047-1.7031 7.8906-1.7031h3.9219v-0.51562c0-1.0508-0.41797-1.8203-1.25-2.3125-0.82422-0.48828-2.1172-0.73438-3.875-0.73438-1.418 0-2.7422 0.14844-3.9688 0.4375-1.2188 0.28125-2.3555 0.70312-3.4062 1.2656v-5.0625c1.4141-0.34375 2.8438-0.60156 4.2812-0.78125 1.4375-0.1875 2.8672-0.28125 4.2969-0.28125 3.75 0 6.4531 0.74219 8.1094 2.2188 1.6641 1.4805 2.5 3.8828 2.5 7.2031z"/>
  </symbol>
  <symbol id="c" overflow="visible">
   <path d="m10.438-26.672v5.9062h6.8438v4.7344h-6.8438v8.8125c0 0.96875 0.19141 1.625 0.57812 1.9688 0.38281 0.33594 1.1445 0.5 2.2812 0.5h3.4062v4.75h-5.6875c-2.625 0-4.4844-0.54688-5.5781-1.6406s-1.6406-2.9531-1.6406-5.5781v-8.8125h-3.2969v-4.7344h3.2969v-5.9062z"/>
  </symbol>
  <symbol id="j" overflow="visible">
   <path d="m17.328-17.734v-11.125h6.6719v28.859h-6.6719v-3c-0.91797 1.2188-1.9297 2.1172-3.0312 2.6875-1.0938 0.5625-2.3672 0.84375-3.8125 0.84375-2.5625 0-4.668-1.0156-6.3125-3.0469-1.6484-2.0312-2.4688-4.6484-2.4688-7.8594 0-3.1953 0.82031-5.8125 2.4688-7.8438 1.6445-2.0391 3.75-3.0625 6.3125-3.0625 1.4258 0 2.6914 0.29297 3.7969 0.875 1.1133 0.57422 2.1289 1.4648 3.0469 2.6719zm-4.375 13.453c1.4141 0 2.5-0.51953 3.25-1.5625 0.75-1.0391 1.125-2.5508 1.125-4.5312 0-1.9688-0.375-3.4727-1.125-4.5156-0.75-1.0391-1.8359-1.5625-3.25-1.5625-1.418 0-2.5 0.52344-3.25 1.5625-0.74219 1.043-1.1094 2.5469-1.1094 4.5156 0 1.9805 0.36719 3.4922 1.1094 4.5312 0.75 1.043 1.832 1.5625 3.25 1.5625z"/>
  </symbol>
  <symbol id="i" overflow="visible">
   <path d="m14.25-4.2812c1.4141 0 2.5-0.51953 3.25-1.5625 0.75-1.0391 1.125-2.5508 1.125-4.5312 0-1.9688-0.375-3.4727-1.125-4.5156-0.75-1.0391-1.8359-1.5625-3.25-1.5625-1.4297 0-2.5234 0.52734-3.2812 1.5781-0.76172 1.043-1.1406 2.543-1.1406 4.5 0 1.9688 0.37891 3.4805 1.1406 4.5312 0.75781 1.043 1.8516 1.5625 3.2812 1.5625zm-4.4219-13.453c0.91406-1.207 1.9297-2.0977 3.0469-2.6719 1.1133-0.58203 2.3906-0.875 3.8281-0.875 2.5625 0 4.6641 1.0234 6.3125 3.0625 1.6445 2.0312 2.4688 4.6484 2.4688 7.8438 0 3.2109-0.82422 5.8281-2.4688 7.8594-1.6484 2.0312-3.75 3.0469-6.3125 3.0469-1.4375 0-2.7148-0.28906-3.8281-0.85938-1.1172-0.57031-2.1328-1.4609-3.0469-2.6719v3h-6.6406v-28.859h6.6406z"/>
  </symbol>
  <symbol id="h" overflow="visible">
   <path d="m0.46875-20.766h6.6406l5.5781 14.094 4.75-14.094h6.6406l-8.7344 22.734c-0.88672 2.3125-1.9141 3.9258-3.0781 4.8438-1.168 0.92578-2.7109 1.3906-4.625 1.3906h-3.8438v-4.3594h2.0781c1.125 0 1.9414-0.18359 2.4531-0.54688 0.51953-0.35547 0.92188-0.99609 1.2031-1.9219l0.1875-0.57812z"/>
  </symbol>
  <symbol id="g" overflow="visible">
   <path d="m3.4844-27.688h7.1406v25c0 3.4453-0.9375 6.0234-2.8125 7.7344-1.875 1.707-4.7109 2.5625-8.5 2.5625h-1.4531v-5.4062h1.125c1.4766 0 2.5977-0.41797 3.3594-1.25 0.75781-0.82422 1.1406-2.0352 1.1406-3.6406z"/>
  </symbol>
  <symbol id="f" overflow="visible">
   <path d="m24.078-12.656v12.656h-6.6875v-9.6875c0-1.7891-0.042969-3.0234-0.125-3.7031-0.074219-0.67578-0.21094-1.1758-0.40625-1.5-0.26172-0.4375-0.61719-0.77344-1.0625-1.0156-0.4375-0.23828-0.94531-0.35938-1.5156-0.35938-1.3867 0-2.4766 0.53906-3.2656 1.6094-0.79297 1.0625-1.1875 2.543-1.1875 4.4375v10.219h-6.6406v-20.766h6.6406v3.0312c1-1.207 2.0625-2.0977 3.1875-2.6719 1.125-0.58203 2.3672-0.875 3.7344-0.875 2.3945 0 4.2109 0.74219 5.4531 2.2188 1.25 1.4688 1.875 3.6055 1.875 6.4062z"/>
  </symbol>
  <symbol id="t" overflow="visible">
   <path d="m1.125-27.688h6.8438l4.7969 20.125 4.75-20.125h6.875l4.75 20.125 4.7812-20.125h6.7812l-6.5156 27.688h-8.2344l-5.0312-21.047-4.9688 21.047h-8.2344z"/>
  </symbol>
  <symbol id="s" overflow="visible">
   <path d="m17.328-3.5312c-0.91797 1.2188-1.9297 2.1172-3.0312 2.6875-1.0938 0.5625-2.3672 0.84375-3.8125 0.84375-2.543 0-4.6406-0.99219-6.2969-2.9844-1.6562-2-2.4844-4.5469-2.4844-7.6406 0-3.1016 0.82812-5.6445 2.4844-7.625 1.6562-1.9883 3.7539-2.9844 6.2969-2.9844 1.4453 0 2.7188 0.28906 3.8125 0.85938 1.1016 0.5625 2.1133 1.4609 3.0312 2.6875v-3.0781h6.6719v18.672c0 3.332-1.0586 5.8789-3.1719 7.6406-2.1055 1.7695-5.1562 2.6562-9.1562 2.6562-1.3047 0-2.5625-0.10156-3.7812-0.29688-1.2109-0.19922-2.4219-0.5-3.6406-0.90625v-5.1875c1.1562 0.66406 2.2891 1.1602 3.4062 1.4844 1.1133 0.33203 2.2344 0.5 3.3594 0.5 2.1758 0 3.7695-0.47656 4.7812-1.4219 1.0195-0.94922 1.5312-2.4375 1.5312-4.4688zm-4.375-12.922c-1.375 0-2.4492 0.51172-3.2188 1.5312-0.76172 1.0117-1.1406 2.4453-1.1406 4.2969 0 1.9062 0.36719 3.3516 1.1094 4.3281 0.73828 0.98047 1.8203 1.4688 3.25 1.4688 1.375 0 2.4453-0.50391 3.2188-1.5156 0.76953-1.0078 1.1562-2.4375 1.1562-4.2812 0-1.8516-0.38672-3.2852-1.1562-4.2969-0.77344-1.0195-1.8438-1.5312-3.2188-1.5312z"/>
  </symbol>
  <symbol id="r" overflow="visible">
   <path d="m16.859-28.859v4.3594h-3.6719c-0.9375 0-1.5938 0.17188-1.9688 0.51562-0.36719 0.33594-0.54688 0.92188-0.54688 1.7656v1.4531h5.6719v4.7344h-5.6719v16.031h-6.6406v-16.031h-3.3125v-4.7344h3.3125v-1.4531c0-2.2578 0.62891-3.9297 1.8906-5.0156 1.2578-1.082 3.2109-1.625 5.8594-1.625z"/>
  </symbol>
  <symbol id="e" overflow="visible">
   <path d="m13.078-16.531c-1.4688 0-2.5938 0.53125-3.375 1.5938-0.77344 1.0547-1.1562 2.5742-1.1562 4.5625 0 2 0.38281 3.5312 1.1562 4.5938 0.78125 1.0547 1.9062 1.5781 3.375 1.5781 1.4453 0 2.5508-0.52344 3.3125-1.5781 0.76953-1.0625 1.1562-2.5938 1.1562-4.5938 0-1.9883-0.38672-3.5078-1.1562-4.5625-0.76172-1.0625-1.8672-1.5938-3.3125-1.5938zm0-4.75c3.5703 0 6.3633 0.96875 8.375 2.9062 2.0078 1.9297 3.0156 4.5938 3.0156 8 0 3.418-1.0078 6.0898-3.0156 8.0156-2.0117 1.9297-4.8047 2.8906-8.375 2.8906-3.5859 0-6.3906-0.96094-8.4219-2.8906-2.0234-1.9258-3.0312-4.5977-3.0312-8.0156 0-3.4062 1.0078-6.0703 3.0312-8 2.0312-1.9375 4.8359-2.9062 8.4219-2.9062z"/>
  </symbol>
  <symbol id="q" overflow="visible">
   <path d="m22.438-17.328c0.84375-1.2812 1.8438-2.2578 3-2.9375 1.1562-0.67578 2.4258-1.0156 3.8125-1.0156 2.3828 0 4.2031 0.74219 5.4531 2.2188 1.25 1.4688 1.875 3.6055 1.875 6.4062v12.656h-6.6875v-10.828c0.019531-0.16406 0.03125-0.33203 0.03125-0.5 0.007813-0.17578 0.015625-0.42578 0.015625-0.75 0-1.4688-0.21875-2.5312-0.65625-3.1875-0.42969-0.66406-1.125-1-2.0938-1-1.2617 0-2.2344 0.52344-2.9219 1.5625-0.6875 1.0312-1.043 2.5312-1.0625 4.5v10.203h-6.6719v-10.828c0-2.3008-0.19922-3.7812-0.59375-4.4375-0.39844-0.66406-1.1055-1-2.125-1-1.2734 0-2.2578 0.52734-2.9531 1.5781-0.6875 1.043-1.0312 2.5312-1.0312 4.4688v10.219h-6.6719v-20.766h6.6719v3.0312c0.8125-1.1758 1.7422-2.0625 2.7969-2.6562 1.0625-0.59375 2.2344-0.89062 3.5156-0.89062 1.4258 0 2.6914 0.35156 3.7969 1.0469 1.1016 0.6875 1.9375 1.6562 2.5 2.9062z"/>
  </symbol>
  <symbol id="p" overflow="visible">
   <path d="m24.078-12.656v12.656h-6.6875v-9.6406c0-1.8203-0.042969-3.0703-0.125-3.75-0.074219-0.67578-0.21094-1.1758-0.40625-1.5-0.26172-0.4375-0.61719-0.77344-1.0625-1.0156-0.4375-0.23828-0.94531-0.35938-1.5156-0.35938-1.3867 0-2.4766 0.53906-3.2656 1.6094-0.79297 1.0625-1.1875 2.543-1.1875 4.4375v10.219h-6.6406v-28.859h6.6406v11.125c1-1.207 2.0625-2.0977 3.1875-2.6719 1.125-0.58203 2.3672-0.875 3.7344-0.875 2.3945 0 4.2109 0.74219 5.4531 2.2188 1.25 1.4688 1.875 3.6055 1.875 6.4062z"/>
  </symbol>
  <symbol id="o" overflow="visible">
   <path d="m3.4844-27.688h7.9844l10.062 18.984v-18.984h6.7656v27.688h-7.9688l-10.078-19v19h-6.7656z"/>
  </symbol>
  <symbol id="n" overflow="visible">
   <path d="m2.9688-8.0938v-12.672h6.6719v2.0625c0 1.1367-0.007813 2.5547-0.015625 4.25-0.011719 1.6992-0.015625 2.8359-0.015625 3.4062 0 1.668 0.039063 2.8711 0.125 3.6094 0.082031 0.73047 0.23438 1.2617 0.45312 1.5938 0.26953 0.4375 0.625 0.77734 1.0625 1.0156 0.4375 0.23047 0.94141 0.34375 1.5156 0.34375 1.3828 0 2.4727-0.53125 3.2656-1.5938 0.78906-1.0625 1.1875-2.5391 1.1875-4.4375v-10.25h6.625v20.766h-6.625v-3c-1.0117 1.2109-2.0742 2.1016-3.1875 2.6719-1.1172 0.57031-2.3516 0.85938-3.7031 0.85938-2.3984 0-4.2266-0.73438-5.4844-2.2031-1.25-1.4688-1.875-3.6094-1.875-6.4219z"/>
  </symbol>
  <symbol id="m" overflow="visible">
   <path d="m3.4844-27.688h11.859c3.5195 0 6.2227 0.78125 8.1094 2.3438 1.8828 1.5625 2.8281 3.793 2.8281 6.6875 0 2.9062-0.94531 5.1406-2.8281 6.7031-1.8867 1.5625-4.5898 2.3438-8.1094 2.3438h-4.7188v9.6094h-7.1406zm7.1406 5.1719v7.7344h3.9531c1.3828 0 2.4531-0.33203 3.2031-1 0.75781-0.67578 1.1406-1.6328 1.1406-2.875 0-1.2383-0.38281-2.1914-1.1406-2.8594-0.75-0.66406-1.8203-1-3.2031-1z"/>
  </symbol>
  <symbol id="l" overflow="visible">
   <path d="m3.1875-20.766h6.6406v20.391c0 2.7812-0.66797 4.9062-2 6.375-1.3359 1.4688-3.2734 2.2031-5.8125 2.2031h-3.2812v-4.3594h1.1562c1.2578 0 2.125-0.28906 2.5938-0.85938 0.46875-0.5625 0.70312-1.6836 0.70312-3.3594zm0-8.0938h6.6406v5.4219h-6.6406z"/>
  </symbol>
  <symbol id="k" overflow="visible">
   <path d="m19.969-20.125v5.4219c-0.89844-0.625-1.8047-1.082-2.7188-1.375-0.90625-0.30078-1.8516-0.45312-2.8281-0.45312-1.8555 0-3.2969 0.54297-4.3281 1.625-1.0312 1.0859-1.5469 2.5938-1.5469 4.5312 0 1.9492 0.51562 3.4648 1.5469 4.5469 1.0312 1.0859 2.4727 1.625 4.3281 1.625 1.0391 0 2.0234-0.15625 2.9531-0.46875 0.9375-0.3125 1.8008-0.76953 2.5938-1.375v5.4375c-1.0312 0.38672-2.0859 0.67188-3.1562 0.85938-1.0742 0.1875-2.1484 0.28125-3.2188 0.28125-3.75 0-6.6836-0.95703-8.7969-2.875-2.1172-1.9258-3.1719-4.6016-3.1719-8.0312 0-3.4141 1.0547-6.0859 3.1719-8.0156 2.1133-1.9258 5.0469-2.8906 8.7969-2.8906 1.0938 0 2.1641 0.10156 3.2188 0.29688 1.0625 0.1875 2.1133 0.47656 3.1562 0.85938z"/>
  </symbol>
 </defs>
 <g>
  <path d="m237.68 0.046875c-9.7461 0.90234-10.75 17.73-11.098 24.637-11.973-3.9766-6.1445 15.594-4.7461 20.113-2.0586-4.5977-4.3984-15.969-11.602-13.242-8.8125 3.3281-5.9766 15.594-4.5508 22.34-6.0781-9.4258-12.336-12.723-20.777-4.8711-3.0195 2.8281-1.7578 12.887-2.0312 16.641-2.0977-0.57031-4.1406-0.47266-6.1406 0.26563-1.5703 3.2812-3.7812 3.5-6.6367 0.66797-5.082 0.22656-6.668 6.3945-6.668 10.5 0 2.5078-4.8828 2.1484-4.8828 6.3672 0 4.6797 2.293 10.027 3.3789 14.508-4.1211-2.1602-14.625-0.59375-14.625 6.1953 0 6.0156 2.8398 12.672 3.957 18.633 2.8711 19.941 8.6523 40.117 16.301 58.781 3.6367 8.8789 4.4727 18.746 7.2695 27.938 1.543 5.0664 3.8359 14.055 10.211 14.941 12.465 1.7383 2.9688-18.625 6.0156-21.762 2.6953 7.6172 13.18 14.91 15.793 2.7578 1.9141-8.9023-2.6367-18.938-5.4102-27.379 2.2109 2.1719 4.8477 2.9609 7.9141 2.3633 3.6523-1.1328 3.6094 0.66016 7.6484 0.16016 7.4766-0.91016 8.1445-13.445 8.1445-18.816 6.0156 9.1016 21.07 14.652 25.75 1.4062 4.1406-11.75 1.2539-26.586 0.37109-38.648 2.2188 4.6328 3.9492 9.0156 6.6094 13.445 2.0742 3.457 4.4297 6.8438 7.3594 9.6484 1.3906 4.8086 3.1445 9.9648 7.0352 13.398 7.8398 6.9062 11-8.5898 14.441-10.18 6.3047-2.9102 6.8359-10.648 6.9297-16.652 7.5039 1.9883 9.0078 12.512 18.984 9.6484 2.4023 7.6875 5.2812 26.367 16.5 24.848 12.996-1.7617 10.082-21.969 5.7109-29.785 6.8281-3.8125-4.5352-24.316-4.293-22.41-3.3125-9.5273-1.2148-6.8047-1.2148-16.871 0-1.6094-2.5898-6.4492-2.0898-9.7461 0.73047-4.7695-1.457-7.293-1.9062-12.004-1.0391-10.559-3.4141-8.4531-4.3867-9.4258-6.4648-6.4727-3.957-18.375-6.1445-27.262 0-14.926-21.172-37.262-23.402-11.547-1.168-4.3594-2.5586-8.7734-4.9688-12.648-2.0898-3.3594-9.375-6.1016-9.7383 0.24219-1.2773 2.2422-0.92578 9.1602-0.53906 11.82 2.8789 19.766-10.363-11.988-6.6836 7.2148-12.238-20.578-2.1133 13.895-3.8828 4.9297-1.8516-9.4336-7.3164-14.344-11.348-21.93-2.5781-7.1016-6.7969-20.121-16.559-19.23m64.949 141.21s1.8164 1.2852 3.418 2.4219c-0.76562-0.25-2.832-2.0117-3.418-2.4219z"/>
  <path d="m304.34 116.28c2.1484 29.695 5.9922 57.535 17.852 84.844 10.363 23.859 28.07 33.074 49.27 44.895 11.957 6.668 22.613 15.383 34.555 22.195 11.723 6.6914 20.441 18.191 31.062 26.832 17.426 14.199 33.285 29.703 40.672 51.488 4.8008 14.152 9.2656 28.168 14.988 41.984 5.8281 14.074 10.719 28.168 17.312 41.93 8.5547 17.875 31.07 35.598 33.645 57.496-3.8516 1.9688-10.543-0.097656-14.074 3.5312-4.1875 4.2773-9.2734 7.7422-13.938 11.492-7.7539 6.2578-13.43 10.887-23.086 14.363-7.0859 2.5508-11.82 3.7812-19.18 2.7578-10.59-1.4492-14.973 2.3164-20.547 9.9648-11.051-14.32-19.926-28.082-24.977-45.77-1.9766-6.9141 1.0938-17.531-2.3867-23.699-3.5703-6.3281-6.2461-13.613-11.742-18.406-16.293-14.219-31.668-30.816-40.305-51.031-5.4922-12.844-15.93-16.172-28.211-19.758-4.4297-1.293-9.0234-2.0742-13.516-3.0781-3.1055-0.71484-4.8398 7.3398-6 10.035 9.1523 2.2188 18.18 4.375 27.188 7.1719 7.2305 2.2422 9.4023 8.2734 12.039 14.699 3.6992 9.0391 10.398 15.141 15.754 23.008 5.7109 8.418 11.016 15.117 18.891 21.504 6.0781 4.9219 13.012 11.684 15.441 19.41 2.6289 8.3242 0.52344 18.27 3.0156 26.898 3.1602 10.93 7.8867 17.988 14.645 26.922 4.9531 6.5547 9.8438 13.508 15.133 19.742 9.7305 16.402 16.27 3.7695 18.125-7.3164 14.746 2.4609 26.68 0.30469 40.449-6.1016 9.0156-4.1992 16.668-12.754 24.461-18.906 3.2891-2.6055 4.7539-5.9102 8.2891-4.7344 2.0586 0.68359 8.8516 2.5156 9.5625 1.7461 7.8086-8.3164 2.4453-27.363-1.5195-36.605-8.9922-20.922-25.5-35.777-34.602-56.586-5.9336-13.582-12.199-28.547-16.492-42.758-8.0664-26.68-17.137-46.734-36.949-67.5-11.305-10.785-24.23-19.18-34.617-30.926-10.082-11.41-28.227-18.883-40.973-27.656-6.4648-4.4531-13.461-8.0312-20.297-11.887-14.836-8.3867-22.371-15.77-30.332-31.09-6.5195-12.527-10.141-25.281-12.527-39.203-2.1289-12.465-3.4336-25.051-4.4219-37.664-0.62109-7.7578-4.7812-4.7305-11.656-4.2344"/>
  <path d="m534.68 493.66c-3.2891 3.0625-0.13672 14.219-0.48047 18.055-0.59375 6.7852-4.293 11.441-8.0156 16.734-3.3281 4.7344-7.3516 13.043-12.586 17.836-1.0625 0.96484-4.2773-4.6641-5.4375-4.0508-1.1758 0.62109-0.30469 7.4883-1.6016 7.6484-9.9219 1.1406-20.777-3.6914-29.715-7.6055-4.9453-2.1641-8.8945-2.9688-9.7539-9.3438-1.1992-8.8203-0.94922-7.1875-9.9648-7.2539-0.11328 17.281 7.0352 21.605 21.605 26.898 12.328 4.4805 25.734 12.047 38.785 3.6328 7.4531-4.793 13.406-17.715 18.316-24.766 4.8906-7.0117 7.9766-13.035 8.1953-21.816 0.097656-3.5703-0.64062-24.059-9.3477-15.969"/>
  <path d="m206.92 387.79c-0.32812 9.4883-0.78906 18.977-0.92578 28.449-0.37891 26.562 8.1953 49.23 18.938 73.113 10.504 23.922 19.438 54.359 50.719 55.43 18.344 0.62891 37.199-6.793 49.207-20.844 15.031-17.57 14.484-40.023 12.875-61.812-0.66016-13.109-1.4961-26.016 1.375-38.953 2.7109-12.207 7.582-23.793 12.914-35.059 3.4102-7.1875-1.543-6.5547-7.8984-9.6484-9.2461 19.043-19.18 40.648-18.43 62.328 0.53125 15.254 2.3867 31.031 1.5195 46.23-1.125 19.621-11.828 36.324-30.688 43.148-16.121 5.8281-34.23 4.8828-44.68-10.043-7.2148-10.293-11.418-23.441-16.402-34.957-10.688-24.68-18.875-46.438-18.043-73.762 0.44141-18.863 1.2773-37.746 1.8984-56.621 0.40234-20.289-11.234-2.4922-11.555 7.4375-0.26953 8.5234-0.55078 17.047-0.82422 25.562"/>
  <path d="m367.6 399.92c-5.1133 30.5 8.418 131.57-44.84 117.96-1.0469 4.7539-8.25 10.453-2.8242 11.82 10.93 2.7656 21.75 2.082 31.328-3.5156 10.656-6.2227 18.293-19.469 19.871-31.82 3.6836-28.797 2.9766-53.676 7.2539-82.27-3.7617 0.18359-4.9297-11.684-8.707-11.492"/>
  <path d="m187.66 429.11c-10.051 28.273-24.598 56.812-26.031 87.137 0 18.336 10.758 13.801 11.289 0.52344 0.43359-9.0703 1.625-18.012 4.5352-26.641 3.4336-10.18 7.0508-20.305 10.438-30.523 2.2266-6.7383 10.766-14.676 14.723-20.93 5.6367-8.9102-3.3633-8.7344-12.125-15.566-0.85547 1.8203-2.4883 4.0547-2.8281 6"/>
  <path d="m204.57 420.19c-5.4531 4.9297-14.645 10.195-19.652 15.574 6.8906 5.9258 11.363 9.7227 17.699 2.9258 4.7344-5.0977 9.5859-10.102 14.031-15.441-3.7461-1.8828-8.957-6.8438-12.078-3.0586"/>
  <path d="m169.73 437.33c-20.648 19.316-6.7305 16.871 6.8438 7.8984 1.1914-0.78906 15.133-11.645 17.207-13.316 2.3008-1.8516 19.219-13.945 18.512-14.973-1.9961-2.8633-3.9883-5.7266-5.9766-8.5898-12.777 8.9258-24.816 18.793-36.586 28.98"/>
  <path d="m228.53 310.04c-2.9102 15.406 0.21875 12.973 13.855-6.2578 1.1992-1.7109 3.3633-5.4531 5.4531-13.414 2.4922-9.4492-0.30469-19.195-9.0547-5.25-4.5117 7.8008-7.9766 16.203-10.254 24.922"/>
  <path d="m250.92 295.94c-1.2773 19.074 7.4141 16.301 12.305-8.4336 1.8008-9.1016 2.0586-18.445 3.0859-27.656 0.73047-18.238-11.059-2.7734-12.312 8.4336-1.0273 9.2188-2.0625 18.434-3.0781 27.656"/>
  <path d="m248.49 381.64c0 4.3594 4.1914 37.914 11.203 1.5586 1.0195-5.1055 2.043-10.195 3.0625-15.293 1.1484-5.7734 3.7305-11.441 3.4648-17.32-0.93359-20.602-6.5039-15.039-10.758-3.8594-2.3164 11.641-4.6406 23.277-6.9727 34.914"/>
  <path d="m287.81 322.64c2.8633 10.766 5.7266 21.551 8.5977 32.324 2.6445 11.926 12.141 5.1055 10.734-3.5703-0.77344-4.8242-2.5156-9.4414-3.7695-14.176-1.375-5.1797-2.7578-10.34-4.1328-15.52-0.94531-3.5391-13.207-11.637-11.43 0.94141"/>
  <use x="147.296875" y="673.945312" xlink:href="#u"/>
  <use x="175.171875" y="673.945312" xlink:href="#b"/>
  <use x="193.902344" y="673.945312" xlink:href="#a"/>
  <use x="219.660156" y="673.945312" xlink:href="#d"/>
  <use x="245.292969" y="673.945312" xlink:href="#c"/>
  <use x="263.449219" y="673.945312" xlink:href="#a"/>
  <use x="289.207031" y="673.945312" xlink:href="#j"/>
  <use x="329.617188" y="673.945312" xlink:href="#i"/>
  <use x="356.808594" y="673.945312" xlink:href="#h"/>
  <use x="394.789062" y="673.945312" xlink:href="#g"/>
  <use x="408.921875" y="673.945312" xlink:href="#d"/>
  <use x="434.550781" y="673.945312" xlink:href="#f"/>
  <use x="474.8125" y="673.945312" xlink:href="#t"/>
  <use x="516.707031" y="673.945312" xlink:href="#d"/>
  <use x="542.335938" y="673.945312" xlink:href="#s"/>
  <use x="569.527344" y="673.945312" xlink:href="#f"/>
  <use x="596.566406" y="673.945312" xlink:href="#a"/>
  <use x="622.324219" y="673.945312" xlink:href="#b"/>
  <use x="147.296875" y="711.925781" xlink:href="#r"/>
  <use x="163.820312" y="711.925781" xlink:href="#b"/>
  <use x="182.550781" y="711.925781" xlink:href="#e"/>
  <use x="208.644531" y="711.925781" xlink:href="#q"/>
  <use x="261.445312" y="711.925781" xlink:href="#c"/>
  <use x="279.601562" y="711.925781" xlink:href="#p"/>
  <use x="306.640625" y="711.925781" xlink:href="#a"/>
  <use x="345.625" y="711.925781" xlink:href="#o"/>
  <use x="377.410156" y="711.925781" xlink:href="#e"/>
  <use x="403.503906" y="711.925781" xlink:href="#n"/>
  <use x="430.542969" y="711.925781" xlink:href="#f"/>
  <use x="470.808594" y="711.925781" xlink:href="#m"/>
  <use x="498.644531" y="711.925781" xlink:href="#b"/>
  <use x="517.375" y="711.925781" xlink:href="#e"/>
  <use x="543.46875" y="711.925781" xlink:href="#l"/>
  <use x="556.488281" y="711.925781" xlink:href="#a"/>
  <use x="582.25" y="711.925781" xlink:href="#k"/>
  <use x="604.761719" y="711.925781" xlink:href="#c"/>
 </g>
</svg>
