<?xml version="1.0" encoding="UTF-8"?>
<svg width="700pt" height="700pt" version="1.1" viewBox="0 0 700 700" xmlns="http://www.w3.org/2000/svg" xmlns:xlink="http://www.w3.org/1999/xlink">
 <defs>
  <symbol id="u" overflow="visible">
   <path d="m23.641-1.4062c-1.2188 0.625-2.4922 1.1016-3.8125 1.4219-1.3125 0.32031-2.6875 0.48438-4.125 0.48438-4.293 0-7.6875-1.1953-10.188-3.5938-2.5-2.3945-3.75-5.6445-3.75-9.75 0-4.1133 1.25-7.3672 3.75-9.7656 2.5-2.3945 5.8945-3.5938 10.188-3.5938 1.4375 0 2.8125 0.16406 4.125 0.48438 1.3203 0.32422 2.5938 0.80469 3.8125 1.4375v5.3281c-1.2305-0.84375-2.4453-1.457-3.6406-1.8438-1.1875-0.39453-2.4453-0.59375-3.7656-0.59375-2.3672 0-4.2266 0.76172-5.5781 2.2812-1.3555 1.5117-2.0312 3.6016-2.0312 6.2656 0 2.6562 0.67578 4.7461 2.0312 6.2656 1.3516 1.5117 3.2109 2.2656 5.5781 2.2656 1.3203 0 2.5781-0.19141 3.7656-0.57812 1.1953-0.39453 2.4102-1.0078 3.6406-1.8438z"/>
  </symbol>
  <symbol id="b" overflow="visible">
   <path d="m17.297-14.047c-0.53125-0.25-1.0703-0.42969-1.6094-0.54688-0.53125-0.125-1.0703-0.1875-1.6094-0.1875-1.5859 0-2.8047 0.51172-3.6562 1.5312-0.85547 1.0117-1.2812 2.4648-1.2812 4.3594v8.8906h-6.1719v-19.297h6.1719v3.1719c0.78906-1.2695 1.6953-2.1914 2.7188-2.7656 1.0312-0.58203 2.2656-0.875 3.7031-0.875 0.20703 0 0.42969 0.011719 0.67188 0.03125 0.23828 0.011719 0.58594 0.046875 1.0469 0.10938z"/>
  </symbol>
  <symbol id="a" overflow="visible">
   <path d="m22.234-9.7031v1.7656h-14.422c0.14453 1.4375 0.66406 2.5234 1.5625 3.25 0.89453 0.71875 2.1484 1.0781 3.7656 1.0781 1.2891 0 2.6172-0.1875 3.9844-0.5625 1.3633-0.38281 2.7578-0.96875 4.1875-1.75v4.75c-1.4609 0.55469-2.918 0.96875-4.375 1.25-1.4609 0.28125-2.918 0.42188-4.375 0.42188-3.4922 0-6.2031-0.88281-8.1406-2.6562-1.9375-1.7812-2.9062-4.2734-2.9062-7.4844 0-3.1445 0.94531-5.6172 2.8438-7.4219 1.9062-1.8008 4.5234-2.7031 7.8594-2.7031 3.0312 0 5.457 0.91797 7.2812 2.75 1.8203 1.8242 2.7344 4.2617 2.7344 7.3125zm-6.3438-2.0469c0-1.1758-0.34375-2.125-1.0312-2.8438-0.67969-0.71875-1.5703-1.0781-2.6719-1.0781-1.1992 0-2.1719 0.33984-2.9219 1.0156-0.74219 0.66797-1.2031 1.6367-1.3906 2.9062z"/>
  </symbol>
  <symbol id="d" overflow="visible">
   <path d="m11.609-8.6875c-1.2812 0-2.25 0.21875-2.9062 0.65625-0.64844 0.4375-0.96875 1.0859-0.96875 1.9375 0 0.78125 0.25781 1.3906 0.78125 1.8281 0.53125 0.4375 1.2578 0.65625 2.1875 0.65625 1.1562 0 2.1289-0.41016 2.9219-1.2344 0.80078-0.83203 1.2031-1.8789 1.2031-3.1406v-0.70312zm9.4375-2.3281v11.016h-6.2188v-2.8594c-0.83594 1.168-1.7656 2.0234-2.7969 2.5625-1.0312 0.53125-2.293 0.79688-3.7812 0.79688-2 0-3.625-0.58203-4.875-1.75-1.2422-1.1641-1.8594-2.6797-1.8594-4.5469 0-2.2578 0.77344-3.9141 2.3281-4.9688 1.5625-1.0625 4.0078-1.5938 7.3438-1.5938h3.6406v-0.48438c0-0.97656-0.38672-1.6914-1.1562-2.1406-0.77344-0.45703-1.9766-0.6875-3.6094-0.6875-1.3242 0-2.5547 0.13672-3.6875 0.40625-1.1367 0.26172-2.1953 0.65625-3.1719 1.1875v-4.7031c1.3203-0.32031 2.6484-0.56641 3.9844-0.73438 1.332-0.16406 2.6641-0.25 4-0.25 3.4766 0 5.9883 0.6875 7.5312 2.0625 1.5508 1.3672 2.3281 3.5938 2.3281 6.6875z"/>
  </symbol>
  <symbol id="c" overflow="visible">
   <path d="m9.7031-24.781v5.4844h6.3594v4.4062h-6.3594v8.1875c0 0.89844 0.17578 1.5078 0.53125 1.8281 0.35156 0.3125 1.0625 0.46875 2.125 0.46875h3.1719v4.4062h-5.2969c-2.4375 0-4.168-0.50391-5.1875-1.5156-1.0117-1.0195-1.5156-2.75-1.5156-5.1875v-8.1875h-3.0625v-4.4062h3.0625v-5.4844z"/>
  </symbol>
  <symbol id="j" overflow="visible">
   <path d="m16.094-16.469v-10.344h6.2031v26.812h-6.2031v-2.7969c-0.84375 1.1484-1.7812 1.9844-2.8125 2.5156-1.0234 0.51953-2.2031 0.78125-3.5469 0.78125-2.375 0-4.3281-0.94141-5.8594-2.8281-1.5312-1.8945-2.2969-4.332-2.2969-7.3125 0-2.9688 0.76562-5.3945 2.2969-7.2812 1.5312-1.8945 3.4844-2.8438 5.8594-2.8438 1.332 0 2.5156 0.26562 3.5469 0.79688s1.9688 1.3672 2.8125 2.5zm-4.0625 12.484c1.3203 0 2.3281-0.47656 3.0156-1.4375 0.69531-0.96875 1.0469-2.375 1.0469-4.2188 0-1.832-0.35156-3.2266-1.0469-4.1875-0.6875-0.96875-1.6953-1.4531-3.0156-1.4531-1.3125 0-2.3203 0.48438-3.0156 1.4531-0.6875 0.96094-1.0312 2.3555-1.0312 4.1875 0 1.8438 0.34375 3.25 1.0312 4.2188 0.69531 0.96094 1.7031 1.4375 3.0156 1.4375z"/>
  </symbol>
  <symbol id="i" overflow="visible">
   <path d="m13.234-3.9844c1.3203 0 2.3281-0.47656 3.0156-1.4375 0.69531-0.96875 1.0469-2.375 1.0469-4.2188 0-1.832-0.35156-3.2266-1.0469-4.1875-0.6875-0.96875-1.6953-1.4531-3.0156-1.4531-1.3242 0-2.3398 0.48438-3.0469 1.4531-0.69922 0.96875-1.0469 2.3672-1.0469 4.1875 0 1.8359 0.34766 3.2344 1.0469 4.2031 0.70703 0.96875 1.7227 1.4531 3.0469 1.4531zm-4.0938-12.484c0.84375-1.1328 1.7812-1.9688 2.8125-2.5 1.0391-0.53125 2.2344-0.79688 3.5781-0.79688 2.375 0 4.3281 0.94922 5.8594 2.8438 1.5312 1.8867 2.2969 4.3125 2.2969 7.2812 0 2.9805-0.76562 5.418-2.2969 7.3125-1.5312 1.8867-3.4844 2.8281-5.8594 2.8281-1.3438 0-2.5391-0.26562-3.5781-0.79688-1.0312-0.53906-1.9688-1.375-2.8125-2.5v2.7969h-6.1719v-26.812h6.1719z"/>
  </symbol>
  <symbol id="h" overflow="visible">
   <path d="m0.4375-19.297h6.1562l5.1875 13.094 4.4219-13.094h6.1719l-8.125 21.125c-0.8125 2.1445-1.7656 3.6445-2.8594 4.5-1.0859 0.86328-2.5156 1.2969-4.2969 1.2969h-3.5625v-4.0625h1.9375c1.0391 0 1.8008-0.16797 2.2812-0.5 0.47656-0.33594 0.84766-0.92969 1.1094-1.7812l0.17188-0.54688z"/>
  </symbol>
  <symbol id="g" overflow="visible">
   <path d="m3.2344-25.734h6.6406v23.234c0 3.207-0.87109 5.6016-2.6094 7.1875-1.7422 1.582-4.375 2.375-7.9062 2.375h-1.3438v-5.0156h1.0312c1.3828 0 2.4258-0.38672 3.125-1.1562 0.70703-0.77344 1.0625-1.8984 1.0625-3.3906z"/>
  </symbol>
  <symbol id="f" overflow="visible">
   <path d="m22.375-11.75v11.75h-6.2031v-9c0-1.6641-0.042969-2.8125-0.125-3.4375-0.074219-0.63281-0.19922-1.1016-0.375-1.4062-0.25-0.39453-0.58594-0.70312-1-0.92188-0.40625-0.22656-0.875-0.34375-1.4062-0.34375-1.2812 0-2.293 0.49609-3.0312 1.4844-0.73047 0.99219-1.0938 2.3672-1.0938 4.125v9.5h-6.1719v-19.297h6.1719v2.8281c0.92578-1.1328 1.9102-1.9688 2.9531-2.5 1.0508-0.53125 2.207-0.79688 3.4688-0.79688 2.2266 0 3.9219 0.68359 5.0781 2.0469 1.1562 1.3672 1.7344 3.3555 1.7344 5.9688z"/>
  </symbol>
  <symbol id="t" overflow="visible">
   <path d="m1.0469-25.734h6.3594l4.4531 18.703 4.4062-18.703h6.3906l4.4219 18.703 4.4375-18.703h6.3125l-6.0625 25.734h-7.6562l-4.6719-19.562-4.6094 19.562h-7.6562z"/>
  </symbol>
  <symbol id="s" overflow="visible">
   <path d="m16.094-3.2812c-0.84375 1.1367-1.7812 1.9688-2.8125 2.5-1.0234 0.52344-2.2031 0.78125-3.5469 0.78125-2.3555 0-4.3047-0.92578-5.8438-2.7812-1.543-1.8516-2.3125-4.2188-2.3125-7.0938 0-2.8828 0.76953-5.25 2.3125-7.0938 1.5391-1.8438 3.4883-2.7656 5.8438-2.7656 1.3438 0 2.5234 0.26562 3.5469 0.79688 1.0312 0.53125 1.9688 1.3672 2.8125 2.5v-2.8594h6.2031v17.344c0 3.1016-0.98047 5.4727-2.9375 7.1094-1.9609 1.6445-4.7969 2.4688-8.5156 2.4688-1.2109 0-2.375-0.09375-3.5-0.28125s-2.2578-0.46875-3.3906-0.84375v-4.8125c1.0703 0.625 2.125 1.0859 3.1562 1.3906 1.0391 0.30078 2.082 0.45312 3.125 0.45312 2.0195 0 3.5-0.44531 4.4375-1.3281 0.94531-0.88672 1.4219-2.2695 1.4219-4.1562zm-4.0625-12c-1.2812 0-2.2773 0.47656-2.9844 1.4219-0.71094 0.9375-1.0625 2.2656-1.0625 3.9844 0 1.7734 0.34375 3.1172 1.0312 4.0312 0.6875 0.90625 1.6914 1.3594 3.0156 1.3594 1.2812 0 2.2734-0.46875 2.9844-1.4062 0.71875-0.94531 1.0781-2.2734 1.0781-3.9844 0-1.7188-0.35938-3.0469-1.0781-3.9844-0.71094-0.94531-1.7031-1.4219-2.9844-1.4219z"/>
  </symbol>
  <symbol id="r" overflow="visible">
   <path d="m15.672-26.812v4.0469h-3.4219c-0.875 0-1.4844 0.16406-1.8281 0.48438-0.34375 0.3125-0.51562 0.85938-0.51562 1.6406v1.3438h5.2812v4.4062h-5.2812v14.891h-6.1719v-14.891h-3.0625v-4.4062h3.0625v-1.3438c0-2.1016 0.58203-3.6562 1.75-4.6562 1.1758-1.0078 2.9922-1.5156 5.4531-1.5156z"/>
  </symbol>
  <symbol id="e" overflow="visible">
   <path d="m12.156-15.359c-1.375 0-2.4219 0.49609-3.1406 1.4844-0.71875 0.98047-1.0781 2.3906-1.0781 4.2344 0 1.8555 0.35938 3.2773 1.0781 4.2656 0.71875 0.98047 1.7656 1.4688 3.1406 1.4688 1.3438 0 2.3672-0.48828 3.0781-1.4688 0.70703-0.98828 1.0625-2.4102 1.0625-4.2656 0-1.8438-0.35547-3.2539-1.0625-4.2344-0.71094-0.98828-1.7344-1.4844-3.0781-1.4844zm0-4.4062c3.3125 0 5.8984 0.89844 7.7656 2.6875 1.875 1.793 2.8125 4.2734 2.8125 7.4375 0 3.1797-0.9375 5.6641-2.8125 7.4531-1.8672 1.793-4.4531 2.6875-7.7656 2.6875-3.3359 0-5.9453-0.89453-7.8281-2.6875-1.875-1.7891-2.8125-4.2734-2.8125-7.4531 0-3.1641 0.9375-5.6445 2.8125-7.4375 1.8828-1.7891 4.4922-2.6875 7.8281-2.6875z"/>
  </symbol>
  <symbol id="q" overflow="visible">
   <path d="m20.859-16.094c0.78125-1.1953 1.707-2.1094 2.7812-2.7344 1.0703-0.625 2.25-0.9375 3.5312-0.9375 2.2188 0 3.9062 0.68359 5.0625 2.0469 1.1641 1.3672 1.75 3.3555 1.75 5.9688v11.75h-6.2031v-10.062c0.007812-0.15625 0.015625-0.3125 0.015625-0.46875 0.007813-0.15625 0.015625-0.38281 0.015625-0.6875 0-1.3633-0.20312-2.3516-0.60938-2.9688-0.39844-0.61328-1.043-0.92188-1.9375-0.92188-1.168 0-2.0742 0.48438-2.7188 1.4531-0.63672 0.96094-0.96484 2.3516-0.98438 4.1719v9.4844h-6.2031v-10.062c0-2.1328-0.1875-3.5078-0.5625-4.125-0.36719-0.61328-1.0156-0.92188-1.9531-0.92188-1.1875 0-2.1055 0.48438-2.75 1.4531-0.63672 0.96875-0.95312 2.3555-0.95312 4.1562v9.5h-6.2031v-19.297h6.2031v2.8281c0.75-1.0938 1.6133-1.9141 2.5938-2.4688 0.98828-0.55078 2.0781-0.82812 3.2656-0.82812 1.332 0 2.5078 0.32422 3.5312 0.96875 1.0195 0.63672 1.7969 1.5391 2.3281 2.7031z"/>
  </symbol>
  <symbol id="p" overflow="visible">
   <path d="m22.375-11.75v11.75h-6.2031v-8.9688c0-1.6875-0.042969-2.8438-0.125-3.4688-0.074219-0.63281-0.19922-1.1016-0.375-1.4062-0.25-0.39453-0.58594-0.70312-1-0.92188-0.40625-0.22656-0.875-0.34375-1.4062-0.34375-1.2812 0-2.293 0.49609-3.0312 1.4844-0.73047 0.99219-1.0938 2.3672-1.0938 4.125v9.5h-6.1719v-26.812h6.1719v10.344c0.92578-1.1328 1.9102-1.9688 2.9531-2.5 1.0508-0.53125 2.207-0.79688 3.4688-0.79688 2.2266 0 3.9219 0.68359 5.0781 2.0469 1.1562 1.3672 1.7344 3.3555 1.7344 5.9688z"/>
  </symbol>
  <symbol id="o" overflow="visible">
   <path d="m3.2344-25.734h7.4219l9.3594 17.656v-17.656h6.2812v25.734h-7.4062l-9.3594-17.656v17.656h-6.2969z"/>
  </symbol>
  <symbol id="n" overflow="visible">
   <path d="m2.75-7.5156v-11.781h6.2188v1.9219c0 1.0547-0.011719 2.3711-0.03125 3.9531-0.011719 1.5742-0.015625 2.625-0.015625 3.1562 0 1.5547 0.039063 2.6719 0.125 3.3594 0.082031 0.67969 0.22266 1.1719 0.42188 1.4844 0.25 0.39844 0.57812 0.70312 0.98438 0.92188s0.875 0.32812 1.4062 0.32812c1.2812 0 2.2891-0.49219 3.0312-1.4844 0.73828-0.98828 1.1094-2.3594 1.1094-4.1094v-9.5312h6.1562v19.297h-6.1562v-2.7969c-0.9375 1.125-1.9297 1.9609-2.9688 2.5-1.0312 0.53125-2.1797 0.79688-3.4375 0.79688-2.2305 0-3.9297-0.67969-5.0938-2.0469-1.168-1.375-1.75-3.3633-1.75-5.9688z"/>
  </symbol>
  <symbol id="m" overflow="visible">
   <path d="m3.2344-25.734h11.016c3.2812 0 5.7969 0.73047 7.5469 2.1875 1.75 1.4492 2.625 3.5156 2.625 6.2031 0 2.7109-0.875 4.793-2.625 6.25-1.75 1.4492-4.2656 2.1719-7.5469 2.1719h-4.375v8.9219h-6.6406zm6.6406 4.8125v7.1875h3.6719c1.2891 0 2.2852-0.3125 2.9844-0.9375 0.69531-0.625 1.0469-1.5156 1.0469-2.6719 0-1.1445-0.35156-2.0234-1.0469-2.6406-0.69922-0.625-1.6953-0.9375-2.9844-0.9375z"/>
  </symbol>
  <symbol id="l" overflow="visible">
   <path d="m2.9688-19.297h6.1719v18.953c0 2.582-0.625 4.5547-1.875 5.9219-1.2422 1.3633-3.0391 2.0469-5.3906 2.0469h-3.0469v-4.0625h1.0625c1.1758 0 1.9844-0.26562 2.4219-0.79688 0.4375-0.52344 0.65625-1.5586 0.65625-3.1094zm0-7.5156h6.1719v5.0312h-6.1719z"/>
  </symbol>
  <symbol id="k" overflow="visible">
   <path d="m18.562-18.703v5.0312c-0.84375-0.57031-1.6875-0.99219-2.5312-1.2656-0.84375-0.28125-1.7188-0.42188-2.625-0.42188-1.7188 0-3.0625 0.50781-4.0312 1.5156-0.96094 1-1.4375 2.4023-1.4375 4.2031 0 1.8125 0.47656 3.2266 1.4375 4.2344 0.96875 1 2.3125 1.5 4.0312 1.5 0.96875 0 1.8828-0.14453 2.75-0.4375 0.86328-0.28906 1.6641-0.71875 2.4062-1.2812v5.0625c-0.96875 0.35547-1.9531 0.61719-2.9531 0.79688-0.99219 0.17578-1.9805 0.26562-2.9688 0.26562-3.4922 0-6.2188-0.89062-8.1875-2.6719-1.9609-1.7891-2.9375-4.2812-2.9375-7.4688 0-3.1758 0.97656-5.6562 2.9375-7.4375 1.9688-1.7891 4.6953-2.6875 8.1875-2.6875 1.0078 0 2.0039 0.089844 2.9844 0.26562 0.97656 0.17969 1.957 0.44531 2.9375 0.79688z"/>
  </symbol>
 </defs>
 <g>
  <path d="m348.37 96.547c-3.5312 12.277-0.097656 26.926 1.4766 39.941 2.3984 19.816 9.8711 36.328 20.027 53.121 14.895 24.68 42.922 36.695 63.141 56.891 23.125 23.09 46.465 50.645 50.812 84.418 2.1055 11.883 4.9922 23.234 8.5078 34.754 1.4766 4.8867 4.5586 11.43 8.0195 15.121 5.6758 6.0625 4.8203 4.2578 12.691-0.57031-16.898-24.199-13.922-51.766-25.746-77.703-13.031-28.543-32.91-50.059-54.949-71.879-7.7578-7.668-17.648-13.789-26.34-20.379-6.793-5.1406-15.18-7.9414-19.93-15.531-3.8984-5.0273-7.0508-10.859-10.344-16.277-13.215-21.73-22.363-59.082-15.801-83.223-4.4492-1.0156-11.086-5.0234-11.566 1.3164"/>
  <path d="m423.88 403.62c-2.7109-0.070312-3.75-0.42969-6.4023-0.65625-1.0508-0.085938-9.0586 11.633-9.8203 11.797-12.215 2.5117 10.703 34.43 17.781 44.793 5.7031 8.332 9.0078 20.883 17.699 26.742 5.668-8.4297 6.1289-7.0938 1.1172-15.855-2.8008-4.1289-5.0742-8.4219-7.5742-12.734-3.9258-6.7266-18.516-21.918-20.043-30.031-0.0625-0.30469-1.8711-4.8984-0.68359-11 1.1836-6.1016 7.9258-13.055 7.9258-13.055z"/>
  <path d="m501.24 377.07c-9.7578 4.1172-15.121 12.289-23.988 16.887-5.9141 3.0625-11.633 6.0273-18.305 9.0156-8.125 3.6445-25.512 7.6367-31.117 8.3008-5.6055 0.67578-0.67578 5.9805 1.8477 5.4375 2.5195-0.55078 15.156-1.6172 19.492-2.5078 6.4883-1.3359 12.805-4.1172 19.172-5.9883 13.223-3.2617 18.332-10.781 29.176-17.352 8.5547-5.1758 14.57-3.8984 19.145-13.957 4.7422-7.2695-0.67578-10.492-3.8633-8.3359-0.92578 0.61328-9.2695 7.5391-11.559 8.5"/>
  <path d="m494.91 366.39c6.9805 4.4961 11.297-0.95312 18.883-0.89062 16.461 0.11328 8.0391 12.672 11.746 20.938 6.6836 14.953 8.3008 18.934 7.625 34.367-0.55078 12.32 6.0273 35.277 7.2656 47.488 1.3281 11.832-2.1445 34.371-12.664 40.961-0.64844 0.42188-3.3516-1.1094-2.4844-4.1094 0.91016-3.1641-4.3711 2.3086-7.1719 3.0195-0.62109 0.16406-1.8633 3.2773-7.5195 6.8828-5.8516 3.7188-12.113 6.5938-18.918 1.5469-4.6797-3.4883-11.953-9.8633-16.719-13.258-6.5234-4.6602-11.203-7.3359-18.277-13.898-1.9141-1.7734-9.4102-13.047-9.3242-13.102-2.7734 1.8633-4.2695 4.668-7.0508 6.5312 8.8242 13.18 19.555 20.148 31.816 28.195 14.816 9.7148 18.793 19.684 42.824 11.629 30.844-10.344 32.473-37.266 29.438-63.535-2.125-18.285-6.7422-26.961-5.957-45.055 0.60156-13.844-2.0039-36.531-11.004-47.145-5.9805-7.0312-8.4297-7.9648-17.305-8.6562-9.832-0.007813-9.543-0.71875-15.203 8.0898"/>
  <path d="m372.68 362.64c10.496 10.828 20.211 23.566 28.684 35.98 1.5898 2.3164 3.8477 4.2422 4.0469 7.207 0.28125 3.9961-0.75 8.0273-1.1016 11.52-0.60547 6.4102 4.3047 14.465 6.7969 20.125 1.2148 2.7383-0.70703-13.004 1.8086-14.02-1.5117-3.4297 1.9141-8.4648 1.3477-12.184-0.80469-5.457-2.3633-2.3633-1.3477-8.9727 1.0586-6.8672-6.6211-15.438-10.93-20.691-4.6719-5.7109-8.5859-11.91-13.223-17.598-8.4883-8.4883-6.8125-10.098-16.082-1.3672"/>
  <path d="m230.76 384.64c4.0742 11.301 8.3867 22.512 12.367 33.852 3.3242 9.4727 6.1914 19.102 7.8906 28.984 1.3008 7.5391 12.945 14.895 11.492 3.5938-2.8008-21.234-11.047-40.93-18.262-60.922-1.9141-5.3008-4.0664-10.617-5.668-16.031-2.5703-8.6836-11.676-27.836-12.035-7.4336-0.28125 6.1445 2.1055 12.309 4.2148 17.957"/>
  <path d="m203.34 418.69c-10.93 8.2305-14.656 17.805-14.465 31.352 1.1445 12.164 11.297 7.0859 10.828-0.14844-0.10547-7.4414 0.52344-15.426 7.0742-20.156 3.1133-3.1484 9.4805-8.9297 13.895-8.8164 1.3008-2.0312 0.19922-8.3438 0.25391-10.836-6.8047-0.14844-12.59 4.5938-17.586 8.6055"/>
  <path d="m309.33 306.89c12.77 15.855 31.957 22.133 47.609 34.703 7.418 5.9648 12.051 14.465 16.746 22.547 5.4766 9.4375 4.9258 8.7969 15.25 5.1758-9.4297-16.914-18.836-30.949-34.055-43.211-6.0234-4.8516-12.664-7.6719-19.652-11.043-5.8164-2.8086-10.109-6.3594-14.402-11.254-21.988-25.066-24.02-10.168-11.496 3.082"/>
  <path d="m337.21 330.57c-27.73 22.055-13.031 56.129-7.5117 85.59 3.4453 18.375 5.8594 36.969 7.7734 55.559 1.8867 18.184 4.3125 39.934-4.5586 56.801-18.285 34.727-68.172 19.703-88.125-4.5391-21.547-26.164-12.969-56.922-8.0547-87.254-1.6719-0.19922-10.637-2.0117-10.852-0.69922-0.875 5.3594-1.7422 10.715-2.6133 16.066-3.6367 22.395-7.1953 43.848 3.8984 64.863 18.461 34.965 69.078 58.594 103.65 30.855 33.16-26.594 17.262-88.016 11.309-123.61-3.1914-19.074-9.9688-38.691-10.766-58.043-0.72656-17.613 9.2344-24.215 21.25-34.562-7.8672-7.9492-6.9375-8.3008-15.402-1.0234"/>
  <path d="m370.05 373c4.2148 20.824 4.418 41.934 11.367 62.207 5.5977 16.301 11.543 33.969 9.3555 51.555-1.9141 15.402-33.758 15.918-40.133 3.8047 0.050781 1.2773 0.097656 2.5547 0.15625 3.832-5.4727-2.9102-12.07-7.8984-9.7344 1.2227 5.6328 10.695 19.484 13.934 30.609 13.801 34.07-0.38672 33.328-34.246 26.164-59.195-6.1758-21.574-11.773-40.578-14.184-62.816-0.60547-5.6055-1.9258-11.117-3.0273-16.645-0.33203-1.6719-2.8242-16.504-2.5117-16.434-3.2695-0.71875-6.5352-1.4414-9.8047-2.168-1.5586 7.1055-0.12109 13.973 1.7422 20.836"/>
  <path d="m177.55 363.33c-4.2148 3.0508-8.3516 6.7148-12.906 9.1992-4.7773 2.6133-19.309 14.703-1.3906 11.883 12.418-1.957 18.219-14.629 31.512-14.789 16.914-0.19141 27.949 10.766 39.605 21.41 1.3477-1.5195 7.207-6.1992 7.2305-8.0703 0.035156-2.4922-11.746-10.609-13.457-11.988-13.508-10.898-34.602-17.383-50.594-7.6445"/>
  <path d="m181.61 401.67c15.523 1.8203 29.48 6.9414 37.91 21.145 1.5586 2.625 1.8125 5.832 3.1328 8.5547 0.69922 1.4336 4.3203 12.395 4.0859 12.383 3.3398 0.19922 6.6484-7.2422 9.9805-7.0312 0.84766-13.477-7.4609-19.66-16.293-29.113-7.0508-7.5391-14.047-13.527-24.664-15.023-17.598-2.4805-32.66 9.0859-14.152 9.0859"/>
  <path d="m456.55 392.56c-9.8555 3.8828-16.301 7.1367-26.719 7.3633-3.707 0.078125-3.5586-0.55078-7.2695 0.22656-7.1172 1.4688-12.664 8.3008-14.238 14.297 5.1172-7.25 21.992-9.3828 30.816-11.641 6.9102-1.7773 15.18-4.0664 21.844-6.6094 5.0391-1.9141 16.746-15.066 2.5352-6.2891-2.3203 0.88672-4.6445 1.7773-6.9688 2.6523"/>
  <path d="m311.4 312.54c-7.6602 1.7227-16.695 5.2734-23.324 9.3594-5.6406 3.4609-9.0508 9.0352-12.637 14.414-1.7227 2.5898 2.0742 16.57 8.1484 7.3281 6.5586-9.8828 12.105-13.598 22.797-17.965 6.6289-2.7109 23.691-3.8633 21.766-13.922-3.543 0.68359-7.0859 1.3477-10.637 2.0312-0.22656-1.3555 0.12891-2.5 1.0586-3.4297-2.3945 0.72656-4.7773 1.4531-7.1719 2.1836"/>
  <path d="m307.14 286.38c-12.531 3.375-20.578 9.1367-30.645 16.598-8.8398 6.5352-17.375 13.527-26.07 20.254-16.57 13.066 7.3047 8.0273 17.238 0.36719 6.043-4.6602 11.938-9.4961 18.066-14.047 6.2969-4.668 11.789-7.8906 19.207-10.602 3.6133-1.3281 7.1094-2.875 10.738-4.1523 2.9023-1.0391 19.223-14.176 2.3945-11.262-3.6484 0.94531-7.293 1.8906-10.93 2.8438"/>
  <path d="m260.36 247.09c-23.637 10.504-21.094 16.598-2.8594 12.102 15.883-4.5898 26.289-3.5234 41.805 0.12891 14.43 2.6758-0.28125-8.8398-6.0859-12.34-9.8516-5.9492-22.672-2.9062-32.859 0.10938"/>
  <path d="m523.35 476.96c-6.8203 2.4219-0.9375 20.98-2.7461 25.965-4.0508 11.281-19.23 17.457-9.2422 18.277 17.328 1.4141 29.172-50.332 11.988-44.242z"/>
  <path d="m190.98 57.027c-0.20312-3.8047-1.1133-0.21094-0.95703-4.0195 0.085937-2.0273 0.30469-4.0469 0.38672-6.0703 0.16406-3.9688 0.41797-7.9297 0.83203-11.875 0.32422-3.1133 0.75-6.7617 2.8438-9.2539 1.3516-1.6172 1.8516-2.8672 2.0352-4.9844 0.054687-0.70703-0.054688-2.2461 0.50781-2.7891 0.50781-0.48438 1.4062-0.027344 1.9492 0.21875 1.0859 0.48828 1.9062 1.3008 2.6758 2.2031 0.8125 0.93359 1.75 1.8867 2.3789 2.9609 0.73438 1.2617 1.0156 2.7734 1.3477 4.1836 0.40234 1.7578 0.8125 3.5078 1.3125 5.2383 0.98828 3.4375 2.1094 6.7852 2.9727 10.258 0.23438 0.93359 0.48828 1.8203 1.4258 2.2383 0.69922 0.30469 1.7734 0.4375 2.4922 0.15625 1.582-0.62109 2.7539-3.418 3.2969-4.8516 1.3477-3.5234 2.0117-7.3984 2.3984-11.141 0.22656-2.1289 0.33203-4.2695 0.53125-6.4023 0.14844-1.5469 0.20312-3.3672 0.89062-4.793 0.55078-1.1484 2.4258-2.668 3.7188-1.918 0.63672 0.35938 1.1992 0.98828 1.8125 1.4102 0.85938 0.60156 1.4609 1.2266 1.793 2.2539 0.69141 2.1406 0.72656 4.6367 0.93359 6.8633 0.24609 2.6836 0.51562 5.5 1.2617 8.0898 0.34766 1.1875 2.6328 5.1172 4.1367 3.1992 0.84766-1.0742 1.1172-2.9102 1.3398-4.207 0.32422-1.8906 0.34766-3.8047 0.61328-5.6953 0.28906-2.0195 0.82422-3.9805 1.2422-5.957 0.38281-1.8555 0.65625-3.7344 1.1641-5.5547 0.73438-2.6133 2.1797-4.4141 4.7656-5.2891 3.2383 0.30469 5.6406 1.4766 7.4375 4.2656 1.8477 2.875 2.5625 6.2617 3.7188 9.4375 0.64062 1.7734 1.4062 3.5508 2.4766 5.1172 0.64844 0.93359 1.7578 2.3789 3.0781 2.1094 2.6484-0.53516 2.5469-5.1523 4.3281-6.7148 2.0117-1.7656 5.4844 1.6719 6.7852 3.0078 3.2344 3.3164 3.875 8.125 5.0117 12.426 0.28906 1.1094 3.5938 12.828 5.9648 9.4961 1.25-1.7656 1.0156-4.8516 0.98047-6.875-0.050781-2.7734-0.41797-5.543-0.46484-8.3086-0.027344-1.6172 0.035156-3.3594 1.1367-4.6523 0.97266-1.1523 2.4219-1.8438 3.5938-2.7617 3.6484-2.875 4.7773-7.1953 5.4844-11.59 0.76953-4.793 1.3203-10.059 4.5117-13.965 1.0391-1.2695 2.6133-2.6758 4.3906-2.4766 2.1406 0.23828 3.2891 2.6562 3.9883 4.4062 1.5117 3.7852 2.1523 7.9414 2.7617 11.938 0.76172 5.0625 1.3125 10.152 1.8438 15.242 0.78906 7.6602 1.2617 15.445 2.7266 23.027 0.21875 1.1016 1.7852 9.1719 4.0742 5.9453 1.2266-1.7422 1.6289-4.2305 2.0703-6.2617 0.70703-3.2422 1.2148-6.5156 1.7031-9.7969 1.0039-6.6836 1.8086-13.398 2.6484-20.113 0.53516-4.2656 0.9375-8.832 3.0586-12.664 1.1797-2.1406 3.9531-5.957 6.8477-4.4141 1.6602 0.88281 2.5195 2.9805 3.1133 4.6445 0.85547 2.4219 1.3047 4.9922 1.5742 7.5391 0.23438 2.2383 0.27344 4.4961 0.29688 6.7578 0.39453-1.1562 1.0156-2.1758 1.4766-3.2969 0.53125-1.293 0.84766-2.6484 1.4414-3.9102 1.1016-2.3984 1.5469-5.0898 3.0156-7.3203 1.9766-3.0078 3.7891 1.1289 4.3828 2.8594 0.5 1.4531 1.0039 2.9102 1.4609 4.375 0.35156 1.1445 0.69922 2.168 1.7578 2.8242 1.0938-1.9844 1.5039-3.9453 1.7773-6.1758 0.29688-2.3164 0.80469-4.7656 3.0781-5.9219 7.2773-3.7266 4.582 10.758 5.625 13.703 0.85938 2.4336 2.8086-0.32422 3.7891-1.1719 1.9141-1.6719 2.2305 2.5273 2.3984 3.6719 0.55078 3.875 0.41797 7.7305-0.52344 11.527-0.86719 3.5078-2.3711 7.0117-2.2305 10.688 0.14062 3.5586 1.9258 6.8555 3.1836 10.117 1.7578 4.5547 3.1406 9.2773 3.9609 14.098 0.75 4.5039 0.84766 9.1133-0.58594 13.504-0.60156 1.8477-1.4531 3.5938-2.3594 5.3164-0.5 0.95312-1.4102 2.2227-1.2852 3.3594 0.12891 1.0586 1.2422 1.668 2.0312 2.2031 1.3711 0.91016 2.7734 1.8281 3.8047 3.1328 2.4297 3.0352 1.3906 6.3555 0.14062 9.6211-0.50781 1.3359-0.92578 2.6836-0.78516 4.1211 0.14844 1.4844 0.73438 2.875 1.0664 4.3125 0.80469 3.4805-0.35156 6.1406-1.8633 9.207-0.55078 1.1367-0.91797 2.2461-0.73438 3.5234 0.20312 1.3906 0.83984 2.6953 1.1523 4.0664 0.60547 2.6328-0.042969 6.2617-3.3125 6.5586-1.2422 0.12109-2.3711-0.39453-3.3945-1.0234-0.76172-0.45703-1.5586-1.1562-2.5-1.1562-2.168-0.007813-3.9961 3.1055-4.9141 4.707-0.56641 0.96875-1.0078 1.9922-1.4258 3.0352-1.207-2.7031-2.3164-5.5195-3.8555-8.0625-1.3008-2.1602-3.2969-4.1523-5.1602-1.3633-1.0391 1.5586-1.6367 3.4102-2.293 5.1523-0.55859 1.4961-1.0508 3.4023-2.1523 4.6094-2.2656 2.4844-4.8711-4.082-5.5547-5.4062-1.0391-2.0391-2.0391-4.1211-3.3242-6.0156-0.62891-0.92578-1.6719-2.5195-2.9727-2.5117-1.1719 0-1.8125 1.3984-2.2031 2.3164-0.75 1.7734-1.1523 3.7148-1.5586 5.5898-0.45312 2.0625-0.85547 4.1445-1.4062 6.1758-0.35938 1.3359-0.74219 3.0508-1.7227 4.0938-2.1406 2.2656-4.4062-3.5938-4.9609-4.8281-1.0234-2.2148-1.9258-4.4961-3.0078-6.6914-0.76172-1.5547-1.625-3.4531-3.0586-4.5234-2.4219-1.8203-4.25 1.7852-5.2227 3.5156-0.76172 1.3477-1.9922 4.4531-4.0469 3.7422-2.0391-0.70703-3.8398-3.3516-5.1836-4.9219-2.5195-2.9727-4.6328-6.2188-6.5156-9.6289-1.0391-1.8633-2.0117-3.7617-3.0781-5.5977-0.67188-1.1719-1.4258-2.6914-2.5547-3.4883-2.2578-1.5938-2.7031 3.4453-2.8594 4.625-0.60547 4.7422-0.67188 9.5508-1.5742 14.262-0.56641 2.9805-1.6953 8.6992-5.457 9.2461-3.6719 0.53516-6.832-4.1797-8.7188-6.6367-0.69922-0.91016-3.8984-6.332-5.5469-4.957-0.74219 0.62891-0.82422 2.1758-0.9375 3.043-0.20312 1.582-0.28125 3.1641-0.4375 4.7422-0.27344 2.8789-0.70703 6.1641-2.6172 8.4766-2.0469 2.4766-4.6523 1.625-6.4102-0.70703-2.8164-3.7266-3.8398-8.6328-5.2461-12.996-0.24609-0.77734-0.64844-2.9102-1.5938-3.2422-0.73438-0.26953-1.3281 0.72656-1.7031 1.207-1.0664 1.3828-2.4492 3.6055-4.5117 2.832-1.3281-0.5-2.4062-2.293-3.9688-1.5742-1.8008 0.82422-2.7617 3.1055-4.9492 3.2266-2.3438 0.12109-3.1836-2.3438-4.5469-3.707-0.53516-0.53516-0.78516-0.41797-1.1094 0.25391-0.58594 1.2148-0.78906 2.6758-1.1875 3.9609-0.41016 1.3047-1.7734 6.2344-3.9727 5.5625-1.1641-0.35156-0.88281-2.1797 0.19141-0.14844 2.0195 3.7969 2.5469 9.0625 1.9258 13.25-0.27344 1.8789-0.88281 4.0469-2.5 5.2188-1.4102 1.0312-3.2031 0.85547-4.7656 0.27344-4.0859-1.5234-7.5117-5.1953-10.016-8.6328-2.7969-3.8477-4.5586-8.2461-5.8867-12.785-1.6289-5.5547-2.8086-11.238-4.0156-16.895-3.0781-14.387-5.9375-29.129-5.4922-43.918 0.12891-4.375 0.80469-8.6133 1.4609-12.934 0.38281-2.5195 0.41016-4.9844 0.12891-7.5117-0.21875-1.9844-0.52344-3.9609-0.77734-5.9375z"/>
  <use x="154.546875" y="665.890625" xlink:href="#u"/>
  <use x="180.453125" y="665.890625" xlink:href="#b"/>
  <use x="197.859375" y="665.890625" xlink:href="#a"/>
  <use x="221.800781" y="665.890625" xlink:href="#d"/>
  <use x="245.617188" y="665.890625" xlink:href="#c"/>
  <use x="262.492188" y="665.890625" xlink:href="#a"/>
  <use x="286.429688" y="665.890625" xlink:href="#j"/>
  <use x="323.984375" y="665.890625" xlink:href="#i"/>
  <use x="349.253906" y="665.890625" xlink:href="#h"/>
  <use x="384.550781" y="665.890625" xlink:href="#g"/>
  <use x="397.683594" y="665.890625" xlink:href="#d"/>
  <use x="421.5" y="665.890625" xlink:href="#f"/>
  <use x="458.917969" y="665.890625" xlink:href="#t"/>
  <use x="497.851562" y="665.890625" xlink:href="#d"/>
  <use x="521.671875" y="665.890625" xlink:href="#s"/>
  <use x="546.9375" y="665.890625" xlink:href="#f"/>
  <use x="572.066406" y="665.890625" xlink:href="#a"/>
  <use x="596.007812" y="665.890625" xlink:href="#b"/>
  <use x="154.546875" y="701.191406" xlink:href="#r"/>
  <use x="169.902344" y="701.191406" xlink:href="#b"/>
  <use x="187.3125" y="701.191406" xlink:href="#e"/>
  <use x="211.5625" y="701.191406" xlink:href="#q"/>
  <use x="260.628906" y="701.191406" xlink:href="#c"/>
  <use x="277.503906" y="701.191406" xlink:href="#p"/>
  <use x="302.632813" y="701.191406" xlink:href="#a"/>
  <use x="338.859375" y="701.191406" xlink:href="#o"/>
  <use x="368.398438" y="701.191406" xlink:href="#e"/>
  <use x="392.648438" y="701.191406" xlink:href="#n"/>
  <use x="417.777344" y="701.191406" xlink:href="#f"/>
  <use x="455.195312" y="701.191406" xlink:href="#m"/>
  <use x="481.066406" y="701.191406" xlink:href="#b"/>
  <use x="498.472656" y="701.191406" xlink:href="#e"/>
  <use x="522.722656" y="701.191406" xlink:href="#l"/>
  <use x="534.820312" y="701.191406" xlink:href="#a"/>
  <use x="558.761719" y="701.191406" xlink:href="#k"/>
  <use x="579.683594" y="701.191406" xlink:href="#c"/>
 </g>
</svg>
