<?xml version="1.0" encoding="UTF-8"?>
<!DOCTYPE svg PUBLIC "-//W3C//DTD SVG 1.1//EN" "http://www.w3.org/Graphics/SVG/1.1/DTD/svg11.dtd">
<!-- Creator: CorelDRAW (Evaluation Version) -->
<svg xmlns="http://www.w3.org/2000/svg" xml:space="preserve" width="21.1666mm" height="21.1666mm" version="1.1" style="shape-rendering:geometricPrecision; text-rendering:geometricPrecision; image-rendering:optimizeQuality; fill-rule:evenodd; clip-rule:evenodd"
viewBox="0 0 2116.66 2116.66"
 xmlns:xlink="http://www.w3.org/1999/xlink"
 xmlns:xodm="http://www.corel.com/coreldraw/odm/2003">
 <defs>
  <style type="text/css">
   <![CDATA[
    .fil0 {fill:#4EB8E8}
   ]]>
  </style>
 </defs>
 <g id="Layer_x0020_1">
  <metadata id="CorelCorpID_0Corel-Layer"/>
  <path class="fil0" d="M2116.67 1058.33c0,-584.5 -473.84,-1058.34 -1058.34,-1058.34 -584.5,0 -1058.34,473.84 -1058.34,1058.34 0,584.5 473.84,1058.34 1058.34,1058.34 584.5,0 1058.34,-473.84 1058.34,-1058.34zm-2015.13 320.56c27.75,-78.28 46.14,-131.2 87.79,-197.2 40.48,-64.21 72,-117.22 114.94,-170.76 109.39,-136.32 162.86,-196.7 194.53,-376.64 28.89,-163.96 69.46,-309.48 154,-416.75 86.22,-109.42 257.36,-167.09 396.21,-171.49 -180.47,-5.04 -343.35,50.24 -475,120.49 -257.79,137.52 -449.78,396.83 -508.36,688.46 -27.04,134.51 -27.13,274.66 1.03,408.75 4.22,20.15 19.95,98.51 34.86,115.14zm1422.03 -1220.42c8.57,11.66 28.51,22.97 39.41,31.16 14.18,10.67 24.09,19.84 36.21,31.18 186.25,174.27 146.24,293.81 180.79,481.89 43.85,238.75 139.31,387.35 45.53,662.21 -23.65,69.38 -54.57,122.09 -81.32,184.62 -8.94,20.88 0.56,27.26 10.18,47.37l60.28 132.57c42.33,-41.54 88.97,-109.65 124.68,-171.4 207.59,-358.98 167.27,-808.12 -88.68,-1132.91 -46,-58.37 -90.47,-101.21 -147.15,-150.15 -27.63,-23.86 -138.35,-105.39 -179.93,-116.54zm-507.84 1453.94c16.27,10.36 -1.82,10.13 42.47,27.51 15.22,5.95 33.42,12.21 34.02,29.29 -39.59,4.88 -80.95,-20.02 -76.49,-56.8zm591.83 -683.1c12.61,-24.24 57.95,-47.65 36.82,-95.18 -28.38,4.33 -17.65,28.97 -32.34,54.6 -30.41,6.23 -73.14,-5.69 -98.7,4.96 4.64,8.37 4.77,9.03 14.58,13.1l15.41 5.35c0.53,-0.91 2.11,0.76 3.03,1.38 -36.93,72.49 57.11,237.34 51.25,344.46l26.96 3.94c8.78,-17.12 20.57,-60.4 28.75,-81.59 9.76,-25.4 21,-51.63 30.52,-80.57 24.4,-74.16 26.95,-105.56 17.62,-188.22 -40.65,9.42 -40.67,22.73 -93.9,17.77zm-18.2 -183.1c12.76,26.03 78.21,40.51 109.68,28.43 11.31,-65.25 -80.43,-45.83 -109.68,-28.43zm-515.86 103.05c71.95,-41.16 225.47,-82.87 238.29,41.03l-55.05 -0.94c-2.03,-25.05 17.57,-18.84 3.24,-42.65 -6.94,-11.5 -17.75,-19.62 -35.06,-20.48 -6.77,23.07 -10.54,57.47 -30.04,65.67 -32.76,13.75 -46.66,-12.61 -80.77,-2.19 6.94,29.1 25.75,8.43 36.27,35.73 -41.06,18.81 -71.87,-37.8 -93.22,-63.48l16.34 -12.69zm-23.69 -113.62c21.6,-39.33 97.75,-50 157.21,-42.15 56.26,7.44 108.75,26.91 151.54,50.14 18.3,9.92 18.88,8.48 21.31,29.71 4.67,41.05 6.49,102.52 -55.9,80.49 -20.17,-7.15 -47.5,-35.37 -57.5,-45.7 -27.01,-27.96 -36.3,-18.64 -64.65,-33.49 51.91,-30.7 114.42,27.07 143.44,11.93 -14.3,-11.44 -109.6,-41.58 -135.26,-48.55 -68.48,-18.64 -93.38,-17.88 -160.19,-2.38zm-111.84 -292.62c29.46,16.79 79.34,30.41 96.04,57.82 -32.47,21.69 -44.66,27.17 -64.39,65.98 -8.92,17.49 -33.29,71.75 -44.21,79.33 -1.42,-44.88 -0.26,-70.87 -8.07,-115.43 -6.73,-38.26 -14.77,-68.69 -13.85,-109.96 13.53,6.55 19.36,13.65 34.48,22.26zm687.29 -10.23c7.8,-20.2 19.2,-34.84 26.27,-55.7 32.2,0.97 37.32,10.91 47.53,32.81 4.19,-5.92 4.19,6.06 3.19,-11.17 -0.18,-3.31 -2,-7.07 -4.27,-10.65 -9.82,-15.4 -35.48,-32.7 -53.58,-37.45 -29.56,56.64 -58.05,85.5 -116.24,113.09 -147.71,70.06 -405.58,30.04 -554.93,-28.29 -36.74,-14.36 -65.68,-32.76 -97.46,-45.78 -20.42,209.51 -51.57,452.62 -18.1,664.82 5.52,34.87 11.32,66.22 20.21,99.16 6.46,23.83 27.16,70.55 23.08,86.42 -26.64,-9.32 -0.11,-30.46 -33.68,-37.61 -9.9,136.3 47.39,158.36 43.89,190.72 -22.29,0.63 -11.06,-7.67 -33.5,-9.99 2.69,29.54 13.63,53.19 13.58,89.78 -0.05,76.48 -13.35,121.84 -46.34,187.09 -20.81,41.12 -77.24,124.82 -79.32,130.3 56.48,36.57 77.18,20.68 164.28,116.91l39.06 48.47c0.32,-0.71 1.48,1.3 2.27,1.88 17.12,-20.96 32.52,-46.25 49.3,-70.27 17.62,-25.21 31.47,-44.34 51.6,-67.31 73.64,-84.2 113.31,-80.21 131.67,-105.06 -5.25,-23.31 -15.59,-9.13 -24.43,-36.99 24.88,6.71 69.96,17.81 91.27,-2.68 -22.68,-17.78 -45.87,3.23 -72.59,-13.03 21.61,-52.46 252.96,16.55 284.82,-38.55 -7.67,-31.01 -36.16,-23.96 -66.47,-17.46 -72.98,15.66 -130.04,14.2 -198.33,-12.03 1.71,-18.74 18.68,-6.66 2.11,-17.05 -13.13,-8.22 -34.63,-12.97 -77.84,-41.65 -95.85,-63.66 -174.3,-174.99 -172.37,-305.02 14.37,2.08 15.82,5.35 31.96,4.64 6.18,33.73 19.13,81.62 48.73,99.03 13.18,7.78 21.1,5.51 34.26,15.92l-9.6 30.44c34.42,-6.16 26.53,4.56 55.2,12.06l-12.15 13.52c-6.94,11.01 -3.77,0.78 -4.97,16.28 15.17,7.6 20.47,7.96 35.62,0.05 -4.31,28.85 3.87,38.45 11.1,63.48 5.38,18.64 7.76,17.15 49.3,33.83 78.89,31.64 205.72,41.29 271.77,-3.92 17.49,-11.95 23.79,-32.05 29.86,-53.63 6.46,-23 19.54,-46.91 23.1,-60.66 -37.51,-21.38 -88.86,-16.94 -135.23,-16.94 6.67,-40.25 59.82,-34.56 86.8,-58.47 -42.57,-28.48 -125.24,-4.36 -185.85,-15.87l-32.21 -11.9c28.65,-16.58 155.47,-39.88 202.64,-40.04 23.97,-0.08 51.09,8.25 69.55,7.18 -1.61,-21.96 -11.71,-34.09 -30.65,-41.79 -33.92,-13.73 -35.58,-1.33 -59.06,7.05 -9.07,-24.77 -5.2,-54.53 -19.97,-71.26 -19.41,-7.46 -51.64,2.06 -75.91,-6.68 -21.77,-7.83 -28.04,-25.47 -24.61,-51.26 12.53,3.78 18.12,24.56 38.98,29.26 27.86,6.26 29.65,-13.03 38.17,-31.09 64.86,1.28 9.68,70.11 138.41,8.19 -1.93,-14.33 -17.44,-45.7 -23.43,-63.34 -33.1,-97.28 -64.94,-258.85 28.38,-332.58 43.08,-34.04 74.02,-27.62 134,-32.58 22.97,-46.53 30.18,-60.97 27.46,-127.08 -1.74,-41.79 -9.21,-98.38 -30.49,-124.53 -20.31,-6.87 -37.72,-1.1 -55.84,4.98zm-616.84 1636.62c155.42,6.64 283.35,-18.19 413.02,-66.19 55.18,-20.41 113.37,-49.93 159.72,-77.78 23.23,-13.94 125.31,-79.29 136.05,-105 -15.04,-7.31 -26.25,-18.48 -42.47,-28.72 -118.14,-74.59 -274.83,-83.78 -401.31,-31.71 -124.05,51.05 -227.32,190.96 -265.01,309.4zm544.88 -697.11c5.46,-5.74 25.69,-40.03 25.45,-50.21 -0.58,-24.3 -26.82,-26.11 -47.5,-22.35 -1.53,36.81 -8.12,29.47 -17.44,50.22 12.66,15.4 16.33,17.46 39.49,22.34zm98.28 -567.05c-7.07,-31.05 -75.75,-18.84 -90.66,-7.07 31.47,9 59.33,2.51 90.66,7.07z"/>
 </g>
</svg>
