<?xml version="1.0" standalone="no"?>
<!DOCTYPE svg PUBLIC "-//W3C//DTD SVG 1.1//EN" "http://www.w3.org/Graphics/SVG/1.1/DTD/svg11.dtd" >
<svg xmlns="http://www.w3.org/2000/svg" xmlns:xlink="http://www.w3.org/1999/xlink" version="1.1">
<metadata>
Created by FontForge 20170812 at Thu Oct 14 17:53:05 2021
 By www-data
</metadata>
<defs>
<font id="AmellindaRegular" horiz-adv-x="0" >
  <font-face 
    font-family="Amellinda"
    font-weight="400"
    font-stretch="normal"
    units-per-em="1000"
    panose-1="0 0 0 0 0 0 0 0 0 0"
    ascent="800"
    descent="-200"
    x-height="333.923"
    cap-height="571.78"
    bbox="-290.253 -615.875 1395.99 981.912"
    underline-thickness="50"
    underline-position="-100"
    unicode-range="U+000A-F000"
  />
<missing-glyph horiz-adv-x="527" 
d="M50 700h427v-700h-427v700zM78 680l185 -309l186 309h-371zM251 350l-180 300v-601zM264 329l-185 -308h370zM276 350l181 -303v605z" />
    <glyph glyph-name="tt.liga" unicode="tt" horiz-adv-x="636" 
d="M845.371 764.312c66.7285 11.8926 134.409 19.0967 202.233 19.0518c59.4941 -0.0380859 119.72 -4.28809 176.807 -22.1328c53.4053 -16.6953 102.846 -47.0078 135.412 -93.2842c29.1279 -41.3877 44.3096 -93.9277 31.6885 -143.866
c-3.7168 -14.7031 -27.1426 -11.9541 -23.7363 3.20508c14.2178 63.2744 -15.3379 126.577 -64.21 166.87c-52.5723 43.3447 -122.558 58.7529 -188.903 64.3594c-173.692 14.6738 -342.836 -23.9746 -508.243 -75.8252
c-1.72363 -15.6865 -4.16016 -31.2959 -7.24414 -46.7588c-13.5752 -68.0479 -35.7646 -137.804 -64.3047 -201.071c-25.7432 -57.0674 -62.0645 -111.795 -106.549 -156.043c0.395508 -63.6895 4.18262 -127.047 13.1475 -190.148
c4.43457 -31.1904 8.36133 -62.5781 13.9453 -93.5898c2.27344 -12.6211 5.12793 -25.8008 8.48633 -37.7578c3.87598 -13.7988 6.82324 -27.9141 10.584 -41.5723c1.36621 -4.95801 5.9834 -14.5078 10.1436 -17.6943c7.35254 -5.62891 15.5547 1.20996 21.2246 6.5293
c9.3291 8.74805 16.6406 20.5195 22.6113 31.6973c14.0479 26.2959 23.7285 54.9414 34.3096 82.7314c24.3701 64.002 48.7402 128.007 73.1143 192.012c5.85254 15.3672 29.2393 5.49219 23.4951 -9.77539c-30.7305 -81.7129 -61.3906 -163.454 -91.9736 -245.221
c-11.7178 -31.3242 -27.5889 -67.3574 -56.3076 -86.8779c-14.1309 -9.60742 -30.4268 -10.46 -46.2148 -4.4668c-8.77344 3.32715 -17.3555 9.25 -24.8965 14.7188c-7.44824 5.40234 -16.3213 9.07422 -23.5625 14.6328
c-26.6504 20.4531 -42.7422 58.4053 -55.8516 88.2158c-16.3818 37.2471 -26.1387 76.5879 -32.9365 116.609c-3.0332 17.8672 -5.30957 35.9346 -7.00488 54.1113c-24.6582 -65.6367 -49.3066 -131.276 -73.8682 -196.945
c-11.7178 -31.3242 -27.5889 -67.3574 -56.3076 -86.8779c-14.1309 -9.60742 -30.4268 -10.46 -46.2148 -4.4668c-8.77051 3.32715 -17.3525 9.25 -24.8936 14.7188c-7.44824 5.40234 -16.3213 9.07422 -23.5625 14.6328
c-26.6504 20.4531 -42.7422 58.4053 -55.8516 88.2158c-16.3818 37.2471 -26.1387 76.5879 -32.9365 116.609c-12.8223 75.4893 -12.458 154.456 -9.35449 230.712c2.36621 58.2012 7.32812 116.227 16.9922 173.588c-17.5312 -2.54102 -35.123 -4.10254 -52.6992 -4.14453
c-46.4131 -0.108398 -95.8877 13.6426 -121.248 55.7939c-26.1455 43.457 -19.0254 98.9727 3.37793 142.359c5.57129 10.7949 23.0771 3.56348 17.5059 -7.28223c-28.0264 -54.5488 -27.627 -131.59 36.1387 -159.993c37.0205 -16.4902 79.5771 -13.9268 120.53 -6.48438
c1.8418 9.75391 3.82129 19.4854 5.96387 29.1943c16.2637 73.6572 38.0898 148.723 80.0234 212.243c32.6328 49.4268 94.9492 108.803 151.863 57.3066c23.6611 -21.4072 31.5215 -49.2773 32.3359 -80.5859c0.919922 -35.4434 -2.96582 -70.9082 -9.89453 -105.636
c-3.02637 -15.1787 -6.50977 -30.4463 -10.3701 -45.7041c31.4199 10.1182 62.7246 20.6475 93.9756 31.3428c14.5527 50.4102 33.8818 99.5723 62.7314 143.271c32.6328 49.4307 94.9492 108.807 151.863 57.3135c23.6611 -21.4072 31.5215 -49.2773 32.3359 -80.5859
c0.319336 -12.3691 0.0224609 -24.7344 -0.75 -37.0742c77.7949 24.2393 156.445 45.4551 237.05 59.8193zM469.094 662.368c-0.354492 -1.41797 -0.665039 -2.84375 -1.00977 -4.26758c38.3965 13.2021 76.8467 26.2129 115.479 38.5781
c1.36328 17.5693 1.66016 35.2188 0.15332 52.6221c-1.99902 23.0449 -13.6426 65.8213 -45.165 51.2207c-22.167 -10.2646 -33.7217 -36.6338 -42.9004 -57.7695c-11.165 -25.7109 -19.8076 -53.2773 -26.5576 -80.3838zM148.45 662.369
c-9.36719 -37.6201 -16.6904 -75.6777 -22.4951 -113.975c39.2227 10.2109 78.0977 21.6191 116.766 33.748c6.09863 23.8271 11.1787 47.7793 14.9785 71.543c5.0127 31.3496 8.11914 63.8965 5.37305 95.6162c-1.99902 23.0449 -13.6426 65.8213 -45.165 51.2207
c-22.167 -10.2646 -33.7217 -36.6338 -42.9004 -57.7695c-11.165 -25.7109 -19.8076 -53.2773 -26.5566 -80.3838zM131.114 529.416c-2.72363 -0.706055 -5.45801 -1.41797 -8.19141 -2.12988c-2.61523 -19.1406 -4.91406 -38.3262 -6.85254 -57.5469
c-3.36523 -33.332 -5.97656 -66.6738 -7.30469 -100.159c-0.967773 -24.3955 -1.2041 -42.9326 -1.20117 -63.3086c37.1924 41.4453 67.7598 90.2725 89.3779 141.14c15.2422 35.8672 28.7383 73.6787 39.6641 112.081
c-34.9512 -10.7568 -70.084 -20.9131 -105.492 -30.0762zM318.282 329.578c3.05273 74.9824 10.3662 149.675 26.5596 223.032c3.35547 15.1973 6.96973 30.4521 10.9258 45.6562c-10.5264 -3.56934 -21.0371 -7.11328 -31.5352 -10.6094
c-20.6602 -6.88379 -41.3721 -13.6299 -62.1377 -20.2041c-12.707 -45.459 -28.8721 -90.4609 -47.875 -132.586c-25.7432 -57.0674 -62.0645 -111.795 -106.549 -156.043c0.395508 -63.6895 4.18262 -127.047 13.1475 -190.148
c4.43457 -31.1904 8.36133 -62.5781 13.9453 -93.5898c2.27344 -12.6211 5.12793 -25.8008 8.48633 -37.7578c3.87598 -13.7988 6.82324 -27.9141 10.584 -41.5723c1.36621 -4.95801 5.9834 -14.5078 10.1436 -17.6943c7.35645 -5.62891 15.5527 1.20996 21.2266 6.5293
c9.3291 8.74805 16.6406 20.5195 22.6113 31.6973c14.0479 26.2959 23.7285 54.9414 34.3096 82.7314c24.374 64.002 48.7441 128.008 73.1182 192.013c0.46582 1.22266 1.0752 2.23438 1.73926 3.14746c-1.11426 38.626 -0.249023 77.3506 1.2998 115.398zM578.338 653.689
c1.11426 6.95996 2.11035 13.9814 2.99512 21.0342c-39.7656 -12.79 -79.3174 -26.2256 -118.665 -39.7529c-12.1328 -54.4658 -20.3574 -109.729 -25.958 -165.232c-3.36523 -33.332 -5.97656 -66.6738 -7.30469 -100.159
c-0.967773 -24.3955 -1.2041 -42.9326 -1.20117 -63.3086c37.1924 41.4453 67.7598 90.2725 89.3779 141.14c27.6465 65.0498 49.5938 136.488 60.7559 206.279z" />
    <glyph glyph-name=".notdef" horiz-adv-x="527" 
d="M50 700h427v-700h-427v700zM78 680l185 -309l186 309h-371zM251 350l-180 300v-601zM264 329l-185 -308h370zM276 350l181 -303v605z" />
    <glyph glyph-name=".null" 
 />
    <glyph glyph-name=".null" 
 />
    <glyph glyph-name="controlLF" unicode="&#xa;" 
 />
    <glyph glyph-name="controlCR" unicode="&#xd;" 
 />
    <glyph glyph-name="space" unicode=" " horiz-adv-x="341" 
 />
    <glyph glyph-name="exclam" unicode="!" horiz-adv-x="205" 
d="M101.892 10.4893c-20.1172 -0.188477 -44.1748 16.9922 -44.2959 39.0605c-0.520508 95.54 4.03906 191.575 8.87305 286.981c4.74805 93.6885 9.38379 187.37 15.1309 281.004c2.09766 34.1943 58.9287 33.6582 59.8701 -0.360352
c2.59863 -93.7012 4.08691 -187.412 5.68359 -281.133c1.62793 -95.4473 3.23047 -191.636 -0.492188 -287.032c-0.884766 -22.6914 -24.1953 -38.3262 -44.7695 -38.5205zM153.053 -58.2988c1.61914 -4.12793 2.14453 -8.39062 1.56934 -12.7842
c0.517578 -6.63184 -0.638672 -13.0332 -3.4707 -19.2109c-2.2959 -3.9209 -4.58789 -7.83887 -6.88379 -11.7598c-4.09961 -5.67383 -9.26562 -9.91406 -15.498 -12.7266c-5.49121 -3.7002 -11.6055 -5.83887 -18.3389 -6.41406
c-10.3027 -1.11719 -13.6582 -0.232422 -22.2822 2.09863c-6.74023 1.22266 -12.79 4.0957 -18.1475 8.61621l-0.603516 0.363281c-5.66406 4.08984 -9.89746 9.24609 -12.7041 15.4658c-1.42383 1.92871 -2.54785 3.99121 -3.375 6.19727
c-2.66309 6.07617 -3.70703 12.3496 -3.13281 18.8242c-0.520508 4.37695 0.0576172 8.60449 1.73047 12.6816c1.20703 6.6377 4.03223 12.5957 8.48633 17.873c3.20508 3.13184 6.41016 6.26367 9.6123 9.39551c1.98633 1.22559 4.02344 2.36523 6.11133 3.42188
c3.5918 2.64355 7.60156 4.24316 12.0234 4.80176c4.12207 1.61523 8.375 2.13574 12.7646 1.56738c2.28613 0.0449219 4.57227 0.0253906 6.85547 -0.0478516c1.08594 -0.15625 2.17773 -0.344727 3.27246 -0.500977c9.07422 -1.25781 17.2314 -4.69629 24.4727 -10.3184
c3.17676 -3.24707 6.35059 -6.49707 9.52441 -9.74414c4.24023 -5.30957 6.91211 -11.2422 8.01367 -17.7998z" />
    <glyph glyph-name="quotedbl" unicode="&#x22;" horiz-adv-x="229" 
d="M99.0889 541.59c5.60645 -15.1016 5.68359 -31.7266 7.26074 -47.6426c1.41406 -14.2812 4.16602 -28.4375 -0.814453 -42.2715c-4.17285 -11.5898 -17.4736 -12.3145 -26.4229 -6.93164c-13.3262 8.0166 -17.9941 25.5605 -22.0996 39.6182
c-4.67383 16.0088 -9.2334 34.7539 -5.82715 51.3467c4.76953 23.2207 38.7148 30.6436 47.9033 5.88086zM179.068 498.066c0.46582 -12.6621 -1.70312 -23.6787 -2.83691 -35.7822c-0.533203 -5.69238 -5.44336 -9.39941 -10.625 -10.4941
c-39.9062 -8.42871 -50.5156 69.6885 -41.8408 93.96c8.12598 22.7422 40.1748 19.54 48.9902 -0.382812c6.35059 -14.3574 5.74121 -31.7998 6.3125 -47.3008z" />
    <glyph glyph-name="quotedbl" unicode="&#x201d;" horiz-adv-x="229" 
d="M99.0889 541.59c5.60645 -15.1016 5.68359 -31.7266 7.26074 -47.6426c1.41406 -14.2812 4.16602 -28.4375 -0.814453 -42.2715c-4.17285 -11.5898 -17.4736 -12.3145 -26.4229 -6.93164c-13.3262 8.0166 -17.9941 25.5605 -22.0996 39.6182
c-4.67383 16.0088 -9.2334 34.7539 -5.82715 51.3467c4.76953 23.2207 38.7148 30.6436 47.9033 5.88086zM179.068 498.066c0.46582 -12.6621 -1.70312 -23.6787 -2.83691 -35.7822c-0.533203 -5.69238 -5.44336 -9.39941 -10.625 -10.4941
c-39.9062 -8.42871 -50.5156 69.6885 -41.8408 93.96c8.12598 22.7422 40.1748 19.54 48.9902 -0.382812c6.35059 -14.3574 5.74121 -31.7998 6.3125 -47.3008z" />
    <glyph glyph-name="quotedbl" unicode="&#x201c;" horiz-adv-x="229" 
d="M99.0889 541.59c5.60645 -15.1016 5.68359 -31.7266 7.26074 -47.6426c1.41406 -14.2812 4.16602 -28.4375 -0.814453 -42.2715c-4.17285 -11.5898 -17.4736 -12.3145 -26.4229 -6.93164c-13.3262 8.0166 -17.9941 25.5605 -22.0996 39.6182
c-4.67383 16.0088 -9.2334 34.7539 -5.82715 51.3467c4.76953 23.2207 38.7148 30.6436 47.9033 5.88086zM179.068 498.066c0.46582 -12.6621 -1.70312 -23.6787 -2.83691 -35.7822c-0.533203 -5.69238 -5.44336 -9.39941 -10.625 -10.4941
c-39.9062 -8.42871 -50.5156 69.6885 -41.8408 93.96c8.12598 22.7422 40.1748 19.54 48.9902 -0.382812c6.35059 -14.3574 5.74121 -31.7998 6.3125 -47.3008z" />
    <glyph glyph-name="numbersign" unicode="#" horiz-adv-x="425" 
d="M363.452 221.007c17.3369 -1.24512 13.6201 -28.041 -3.60449 -26.7002c-15.9512 1.24219 -31.9023 2.15234 -47.8506 2.81641c-4.41602 -34.4854 -8.72266 -68.9863 -13.4316 -103.433c-6.68848 -48.9102 -11.3311 -98.4238 -19.916 -147.027
c-7.79395 -44.127 -72.7344 -35.1299 -68.7305 9.28516c4.52051 50.1611 13.6777 100.243 21.165 150.044c4.63574 30.8359 9.84277 61.6016 15.1719 92.3379c-13.748 -0.0634766 -27.4932 -0.332031 -41.2344 -0.762695
c-11.8232 -81.1182 -20.2461 -162.757 -33.6426 -243.572c-8.3584 -50.4297 -84.7744 -40.1143 -78.6191 10.6191c9.27832 76.4922 23.1289 153.052 38.0645 228.953c-22.8857 -1.72754 -45.7617 -3.87012 -68.6191 -6.41113
c-14.4346 -1.60547 -16.96 19.9424 -2.73633 22.2822c25.373 4.17285 50.874 7.43262 76.4482 9.86914c2.26367 11.3311 4.54297 22.6465 6.8291 33.9424c0.329102 1.6123 0.696289 3.21484 1.02832 4.82715c-21.3213 -0.775391 -42.6494 -0.820312 -63.9736 0.791992
c-11.8066 0.893555 -11.7236 20.6953 0.12793 20.7812c23.0361 0.166016 46.0977 1.625 69.165 3.46094c8.17676 37.291 17.3877 74.3428 27.3076 111.213c12.3623 45.9404 24.6221 97.0566 55.665 134.233c6.65332 7.96875 20.5391 4.78516 21.7617 -6.03516
c5.34766 -47.2979 -8.64648 -96.2139 -17.752 -142.442c-5.96777 -30.2832 -11.2803 -60.6914 -16.4043 -91.1348c14.4219 1.04395 28.8438 1.86426 43.2559 2.25391c6.79102 34.6738 14.3008 69.21 21.7051 103.756c10.29 48.0156 21.2637 94.9912 37.8018 141.268
c3.83496 10.7275 22.9785 8.97461 22.9404 -3.1416c-0.166016 -49.8809 -5.18457 -98.5166 -10.8896 -148.046c-3.66211 -31.7969 -7.0498 -63.6221 -10.7598 -95.4092c9.79883 -0.87207 19.5879 -2.06641 29.3701 -3.7041
c17.4551 -2.9209 13.7031 -30.2666 -3.67188 -27.1953c-9.65527 1.70801 -19.3164 2.94727 -28.9805 3.84766c-0.907227 -7.25684 -1.78223 -14.5137 -2.75293 -21.7617c-0.762695 -5.70898 -1.49414 -11.4209 -2.24121 -17.1299
c16.0186 -0.651367 32.0234 -1.5293 48.0029 -2.67578zM255.125 249.264c0.87207 4.99707 1.77832 9.98535 2.69434 14.9727c-14.1982 -0.379883 -28.4033 -1.14258 -42.6113 -2.02344c-1.17773 -7.12598 -2.35938 -14.252 -3.53125 -21.3779
c-0.919922 -5.58691 -1.74707 -11.1875 -2.62207 -16.7812c13.9297 0.498047 27.8721 0.775391 41.8145 0.835938c1.41797 8.12598 2.8418 16.252 4.25586 24.374z" />
    <glyph glyph-name="dollar" unicode="$" horiz-adv-x="369" 
d="M318.543 440.276c3.60156 -16.7939 -22.3604 -19.4951 -26.249 -3.22461c-7.94336 33.2627 -41.918 62.9521 -77.3262 59.8652c-4.3418 -0.376953 -8.70605 -1.34766 -13.0254 -2.73047c-4.83691 -83.3252 -8.70312 -166.698 -11.5801 -250.106
c1.36035 -2.66309 2.71094 -5.33496 4.10254 -7.96875c10.9102 -20.6641 14.6582 -27.3271 25.4336 -45.9541c9.44141 -16.3213 19.2852 -32.4229 28.458 -48.8916c19.7471 -35.4521 38.5684 -73.2959 43.5938 -114.042
c4.74805 -38.502 -7.94336 -82.4473 -45.0654 -100.844c-18.9395 -9.38379 -41.9111 -9.76074 -62.6543 -3.82227c-0.0957031 -27.0781 -0.105469 -54.1592 0.015625 -81.2402c0.0800781 -17.8125 -24.3447 -17.3467 -24.2461 0.146484
c0.172852 30.3438 0.476562 60.6914 0.888672 91.0352c-1.8457 1.08887 -3.65234 2.22266 -5.39258 3.41992c-55.7744 38.4375 -86.042 111.149 -85.8535 177.227c0.0380859 13.1865 20.3633 16.2168 20.7979 2.55469c1.3125 -41.1006 13.9238 -81.1504 37.585 -114.942
c4.93555 -7.05273 18.2559 -22.624 33.3701 -35.5449c0.664062 40.2988 1.52246 80.5918 2.6084 120.881c-12.6338 18.3457 -25.29 36.6787 -37.2725 55.5127c-43.1885 67.8906 -84.126 147.761 -75.5947 230.782c7.40723 72.0576 57.9482 144.488 131.669 158.134
c0.661133 0.121094 1.31836 0.204102 1.97949 0.31543c1.70215 25.5322 3.46484 51.0615 5.3457 76.585c0.900391 12.2285 19.6162 9.55664 18.7891 -2.53711c-1.65039 -24.1592 -3.19531 -48.3223 -4.68359 -72.4912c53.6191 -0.338867 102.784 -38.4033 114.307 -92.1182z
M171.15 285.577c2.95312 66.2598 6.49805 132.495 10.6328 198.681c-17.5508 -11.877 -31.7266 -30.4775 -35.877 -49.3369c-3.89551 -17.7041 -2.79102 -34.6641 -0.549805 -52.4639c1.13379 -8.97852 2.96973 -17.7109 4.66211 -26.5928
c0.673828 -3.54395 1.16211 -7.12012 1.85449 -10.6611c-0.0898438 0.453125 2.65625 -11.1045 2.39746 -10.5938c4.55273 -16.5869 10.2744 -32.9854 16.8799 -49.0322zM211.882 6.75098c-6.22559 16.2031 -13.5918 28.4922 -23.3652 43.2715
c-0.980469 1.47461 -1.98926 2.93066 -2.97266 4.40234c-0.571289 -35.0146 -0.970703 -70.0361 -1.18457 -105.061c14.834 -7.34375 28.2949 -7.00488 34.3291 11.3184c4.92676 14.9609 -1.42676 32.0713 -6.80664 46.0684z" />
    <glyph glyph-name="percent" unicode="%" horiz-adv-x="506" 
d="M358.213 382.593c-17.7002 -53.6035 -37.2979 -106.703 -55.7773 -160.051c-18.8213 -54.3438 -36.5088 -109.08 -53.0381 -164.162c-16.1875 -53.9453 -29.3955 -109.272 -47.5752 -162.55c-16.9883 -49.7939 -100.042 -26.9365 -88.832 24.0361
c12.8955 58.6387 33.4473 116.491 53.1631 173.141c18.5215 53.2236 38.1377 106.063 58.8359 158.479c20.6475 52.2812 42.7539 104.729 68.1494 154.902c13.2305 26.1426 26.7324 52.2559 40.915 77.8936c6.90625 12.4834 14.626 24.6348 22.4072 36.5947
c6.9502 10.6826 14.5938 24.0732 27.2725 28.042c6.83887 2.13867 13.9395 -0.450195 16.8477 -7.25684c5.24219 -12.2598 0.462891 -25.7656 -2.92773 -38.1406c-3.72559 -13.6045 -7.5957 -27.3076 -12.0273 -40.6914
c-8.87891 -26.8252 -18.5498 -53.3984 -27.4131 -80.2373zM146.21 243.64c-28.4189 -2.3623 -54.5283 11.7119 -71.2012 34.3516c-33.6807 45.749 -32.8311 120.699 -0.533203 166.483c13.4092 19.0068 40.9814 16.7148 56.2363 2.81055
c6.75293 3.31445 14.0576 5.47559 21.6982 6.12988c20.9033 1.78125 36.4902 -12.8389 48.5977 -28.2217c29.3379 -37.2754 28.5625 -93.251 7.38477 -134.183c-12.8477 -24.8369 -32.9209 -44.9385 -62.1826 -47.3711zM132.754 334.714
c3.74219 -14.6064 12.6934 -28.9053 24.7305 -13.9629c15.7656 19.5684 18.333 48.5391 15.6094 72.4531c-1.43945 12.6689 -0.788086 31.9883 -16.4131 34.7725c-5.06738 0.90332 -10.3037 0.105469 -15.3008 -1.74609
c0.220703 -3.05566 -0.00585938 -6.27051 -0.775391 -9.61328c-6.29004 -27.3936 -15.1113 -53.5488 -7.85059 -81.9033zM433.55 134.117c29.3379 -37.2754 28.5654 -93.252 7.38184 -134.187c-12.8477 -24.833 -32.9209 -44.9346 -62.1826 -47.3672
c-28.4189 -2.3623 -54.5322 11.7109 -71.1982 34.3506c-33.6807 45.7461 -32.8311 120.696 -0.533203 166.48c13.4092 19.0098 40.9814 16.7178 56.2363 2.81348c6.75293 3.31055 14.0576 5.47559 21.6982 6.12695c20.9033 1.78516 36.4902 -12.835 48.5977 -28.2178z
M390.026 29.6748c15.7656 19.5684 18.332 48.543 15.6084 72.4531c-1.43945 12.666 -0.788086 31.9883 -16.4131 34.7695c-5.06738 0.90332 -10.3037 0.108398 -15.3008 -1.74707c0.223633 -3.05566 -0.00585938 -6.26758 -0.775391 -9.61328
c-6.29004 -27.3906 -15.1113 -53.5459 -7.85059 -81.9004c3.73828 -14.6035 12.6943 -28.9004 24.7314 -13.9619z" />
    <glyph glyph-name="ampersand" unicode="&#x26;" horiz-adv-x="473" 
d="M413.886 -6.94629c17.4551 -5.8623 6.30273 -31.8594 -10.9189 -26.2529c-42.9141 13.9424 -82.6768 35.0342 -118.046 61.71c-2.02734 -2.91504 -4.06152 -5.82324 -6.13965 -8.69629c-19.2871 -26.666 -40.9277 -52.3164 -66.7568 -72.9131
c-25.1396 -20.0439 -57.585 -48.0508 -91.4951 -47.2715c-32.5918 0.75 -57.457 25.1904 -66.0967 55.4551c-9.40234 32.9336 -3.06836 67.9004 11.7393 98.2441c23.8018 48.7666 56.6553 93.3408 89.7197 136.785c-9.86523 21.9121 -17.9043 44.7471 -23.8174 68.3193
c-16.3633 65.209 -21.207 132.33 2.28516 196.521c20.8457 56.959 65.0049 105.537 123.752 124.036c31.0596 9.78223 67.2686 11.1006 95.6426 -7.06348c29.6572 -18.9873 42.0996 -55.9307 42.9775 -89.665c1.9248 -73.9639 -34.8779 -141.708 -73.3604 -202.467
c-31.002 -48.9453 -66.6592 -94.5537 -102.591 -139.91c17.1895 -25.8008 37.5947 -49.252 60.6533 -69.8994c9.3457 14.668 17.9922 29.7793 25.8691 45.3057c15.6094 30.7812 32.5186 64.7207 33.9717 99.707c0.482422 11.6152 20.0762 11.376 20.2871 -0.124023
c0.676758 -36.8896 -13.416 -71.292 -28.9707 -104.123c-9.32324 -19.6738 -19.792 -38.8525 -31.2988 -57.377c33.3936 -25.9697 71.4004 -46.4863 112.594 -60.3203zM179.796 439.068c-23.4639 -58.2236 -23.5215 -130.263 -7.83496 -190.434
c2.36621 -9.07422 5.1123 -17.9785 8.13867 -26.7422c38.2783 50.5098 76.9111 102.082 104.691 159.3c14.1914 29.2363 23.7725 58.3896 28.0859 90.5635c1.9541 14.5908 8.6748 48.335 -9.85645 55.3018c-24.3066 9.1377 -56.2344 -8.16113 -74.708 -22.4326
c-21.8955 -16.918 -38.2139 -39.9922 -48.5166 -65.5566zM252.952 29.4453c3.93945 5.09863 7.76172 10.2842 11.5166 15.5176c-23.8945 20.5234 -45.4141 43.7383 -64.1113 69.1113c-20.5996 -26.0977 -40.6689 -52.6035 -61.0225 -78.877
c-14.5049 -18.7188 -39.1279 -48.6191 -26.7461 -74.0977c12.7168 -26.1738 57.0547 -10.0693 74.6436 2.29004c25.6191 18.001 46.6689 41.3975 65.7197 66.0557z" />
    <glyph glyph-name="quotesingle" unicode="'" horiz-adv-x="150" 
d="M99.8701 490.828c-0.208008 -5.58691 0.210938 -11.2256 -0.910156 -16.7266c-0.163086 -0.791992 -0.396484 -1.59375 -0.610352 -2.3916c1.82324 -5.15625 0.0166016 -11.6475 -5.98535 -14.1094c-33.5596 -13.751 -46.6816 47.876 -41.1328 69.2578
c3.12598 12.04 11.1494 20.6377 24.1279 20.7588c12.2314 0.115234 21.9951 -9.20801 23.8691 -21.0498c1.87402 -11.8447 1.08496 -23.7598 0.641602 -35.7393z" />
    <glyph glyph-name="quotesingle" unicode="&#x2019;" horiz-adv-x="150" 
d="M99.8701 490.828c-0.208008 -5.58691 0.210938 -11.2256 -0.910156 -16.7266c-0.163086 -0.791992 -0.396484 -1.59375 -0.610352 -2.3916c1.82324 -5.15625 0.0166016 -11.6475 -5.98535 -14.1094c-33.5596 -13.751 -46.6816 47.876 -41.1328 69.2578
c3.12598 12.04 11.1494 20.6377 24.1279 20.7588c12.2314 0.115234 21.9951 -9.20801 23.8691 -21.0498c1.87402 -11.8447 1.08496 -23.7598 0.641602 -35.7393z" />
    <glyph glyph-name="quotesingle" unicode="&#x2018;" horiz-adv-x="150" 
d="M99.8701 490.828c-0.208008 -5.58691 0.210938 -11.2256 -0.910156 -16.7266c-0.163086 -0.791992 -0.396484 -1.59375 -0.610352 -2.3916c1.82324 -5.15625 0.0166016 -11.6475 -5.98535 -14.1094c-33.5596 -13.751 -46.6816 47.876 -41.1328 69.2578
c3.12598 12.04 11.1494 20.6377 24.1279 20.7588c12.2314 0.115234 21.9951 -9.20801 23.8691 -21.0498c1.87402 -11.8447 1.08496 -23.7598 0.641602 -35.7393z" />
    <glyph glyph-name="parenleft" unicode="(" horiz-adv-x="376" 
d="M306.382 -144.223c34.1787 -13.167 19.3096 -70.9795 -16.9287 -62.5605c-68.7305 15.9639 -126.133 62.7695 -165.455 120.523c-77.9062 114.422 -85.3584 267.882 -63.0312 400.644c11.7617 69.9277 33.4307 136.902 69.9053 197.868
c33.8145 56.5186 82.4502 96.1348 136.807 131.836c11.8447 7.78125 23.8691 -8.48633 13.0869 -17.627c-26.0273 -22.0625 -43.9932 -49.0576 -62.5938 -77.3262c-17.6211 -26.7812 -32.7549 -55.8193 -45.6152 -85.1709
c-49.0508 -111.954 -65.2539 -243.604 -46.6338 -364.425c8.63281 -56.0332 27.582 -110.693 61.876 -156.296c30.6953 -40.8164 71.1191 -69.1777 118.583 -87.4658z" />
    <glyph glyph-name="parenright" unicode=")" horiz-adv-x="356" 
d="M219.372 549.435c66.793 -102.462 88.2393 -230.873 86.3457 -351.199c-1.89941 -120.875 -30.4336 -246.823 -86.5723 -354.292c-11.207 -21.4463 -34.5176 -34.0322 -58.3896 -24.0801c-21.7646 9.07715 -34.0244 36.417 -24.0791 58.3896
c26.1006 57.668 49.9697 115.754 66.5078 177.004c28.3867 105.132 34.6123 215.327 16.5283 322.754c-17.3398 103.012 -61.2627 218.67 -162.617 264.78c-14.0801 6.4043 -5.20703 27.5215 9.19922 22.1133c61.2305 -22.9912 117.015 -60.1484 153.077 -115.47z" />
    <glyph glyph-name="asterisk" unicode="*" horiz-adv-x="347" 
d="M285.885 403.665c16.6787 -3.76758 13.8008 -29.2031 -3.60645 -26.6973c-28.3135 4.07031 -55.4326 3.27832 -82.8936 -0.584961c19.9512 -21.8955 39.1875 -44.3887 57.0508 -67.9639c11.0566 -14.5908 -11.9092 -31.666 -22.8379 -16.9541
c-17.5283 23.6006 -36.3438 46.2979 -55.7881 68.5127c-0.606445 -31.1865 -0.871094 -62.373 -0.733398 -93.5508c0.0673828 -14.9355 -23.2051 -17.9365 -23.2725 -2.85742c-0.125 28.1445 0.121094 56.2637 0.730469 84.3662
c-15.5898 -20.5264 -31.1836 -41.0459 -46.7734 -61.5693c-11.4873 -15.1211 -35.2314 3.50586 -23.1943 18.1191c16.1299 19.584 32.2568 39.165 48.3867 58.749c-23.7256 -4.9873 -47.4482 -9.25586 -72.0449 -10.0703
c-12.6689 -0.415039 -15.3506 17.9531 -2.43262 19.8086c29.3926 4.21777 59.3984 12.6279 89.6367 20.1592c-25.0635 27.458 -50.6279 54.4756 -75.4355 81.8438c-10.0352 11.0693 8.40332 24.0576 18.4316 13.6807c21.7686 -22.5215 43.9873 -44.7979 65.8965 -67.3838
c1.12988 25.0059 2.53516 50.0088 4.28809 75.0117c0.973633 13.8887 21.9658 10.7627 21.2598 -2.87012c-1.26465 -24.4697 -2.2959 -48.9551 -3.13281 -73.4531c21.7041 27.2051 43.0762 55.3105 67.3955 79.8691c8.62402 8.70996 23.8955 -2.62402 15.332 -11.9756
c-23.8213 -26.0176 -44.4209 -55.6182 -65.4775 -84.1963c29.8359 5.05762 59.6943 6.67285 89.2148 0.00683594z" />
    <glyph glyph-name="plus" unicode="+" horiz-adv-x="333" 
d="M268.634 213.747c19.0859 -5.72461 19.0908 -38.7627 -0.349609 -43.9131c-18.0547 -4.77637 -36.541 -2.23145 -55.1104 -1.70801c-1.11426 0.0322266 -2.23145 0.0478516 -3.3457 0.0761719c4.66797 -36.959 8.08398 -74.209 5.46582 -111.2
c-4.15332 -58.7471 -95.9326 -56.1738 -101.434 0.612305c-3.56641 36.8193 -4.06445 74.3506 -4.01953 111.651c-1.28711 0.0546875 -2.57715 0.0615234 -3.86426 0.128906c-15.0986 0.794922 -31.5283 0.865234 -46.2402 3.61133
c-7.40723 1.37891 -13.3174 11.2285 -7.18066 17.6328c13.4414 14.0322 35.4551 18.9238 57.4248 20.958c0.00292969 0.175781 0.00292969 0.351562 0.00292969 0.524414c0.0732422 27.918 0.599609 55.4561 3.36816 83.249c2.27344 22.8027 5.9834 54.8193 22.292 72.1914
c10.4756 11.1621 28.3486 13.0781 38.2881 -0.46582c14.6582 -19.9775 16.293 -51.3145 19.4443 -75.3018c3.2666 -24.8555 6.62207 -49.6924 9.91016 -74.5449c0.0576172 -0.417969 0.115234 -0.839844 0.169922 -1.25781
c2.31445 0.0800781 4.62891 0.188477 6.94727 0.258789c19.377 0.600586 39.5557 3.10059 58.2305 -2.50293z" />
    <glyph glyph-name="comma" unicode="," horiz-adv-x="235" 
d="M166.513 122.836c18.2852 -10.3223 21.5967 -29.5479 16.4854 -48.248c-7.65332 -27.9844 -24.0254 -54.0791 -38.2744 -79.2158c-14.7891 -26.0879 -31.791 -56.793 -60.1875 -69.5098c-14.9199 -6.68262 -31.7998 4.81445 -33.917 20.1016
c-3.95605 28.5273 11.9121 59.8447 23.8115 85.2021c13.0967 27.9043 24.252 56.9551 41.9658 82.3281c11.2637 16.1328 34.1396 18.3643 50.1162 9.3418z" />
    <glyph glyph-name="hyphen" unicode="-" horiz-adv-x="422" 
d="M350.549 195.679c27.3809 -13.1318 29.2236 -53.6084 -0.513672 -65.6328c-23.7031 -9.57812 -49.7402 -7.41309 -74.8389 -7.11621c-21.5225 0.255859 -43.0518 -0.0917969 -64.5615 -0.871094c-45.5352 -1.64746 -93.8994 -8.09668 -138.856 0.900391
c-26.5928 5.32227 -29.0732 37.9141 -6.11719 49.8203c41.4297 21.4844 92.4756 25.332 138.375 28.5986c23.8438 1.69531 47.7539 2.94043 71.6553 3.3584c24.9453 0.4375 51.8506 1.97656 74.8574 -9.05762z" />
    <glyph glyph-name="period" unicode="." horiz-adv-x="213" 
d="M162.963 14.3623c1.14648 -9.58496 -0.115234 -18.8428 -3.78418 -27.7725c-2.48047 -4.2334 -4.95801 -8.4668 -7.43848 -12.7031c-4.42871 -6.12988 -10.0098 -10.7119 -16.7432 -13.751c-5.93555 -4.00098 -12.5381 -6.30957 -19.8174 -6.93262
c-0.344727 -0.0761719 -0.657227 -0.0917969 -1.00195 -0.136719c-1.38574 -0.175781 -13.1064 -0.0957031 -14.4922 0.0771484c-0.208008 0 -0.416016 0.0253906 -0.617188 0.0800781c-0.59668 0.15918 -1.19043 0.322266 -1.78418 0.481445
c-2.6377 0.251953 -5.22656 0.848633 -7.75488 1.88965c-4.81152 0.664062 -9.1377 2.49023 -12.9785 5.47266c-4.55273 1.92871 -8.31738 4.86621 -11.29 8.81934c-5.4502 4.66797 -9.40234 10.46 -11.8516 17.3721c-1.13672 4.45117 -2.27051 8.90234 -3.40723 13.3535
c0.0224609 4.59473 0.0478516 9.18945 0.0732422 13.7803c1.2168 4.49902 2.42969 8.99414 3.64648 13.4893c2.79688 8.88184 10.9795 17.6904 18.0195 23.3223c3.94922 3.15723 8.50488 5.78516 13.2588 7.5127s9.72168 3.18652 14.7275 3.79004
c6.43945 0.775391 10.7881 0.548828 15.1523 -0.313477c0.316406 -0.0605469 0.616211 -0.118164 0.955078 -0.125c9.80176 -1.35645 18.6172 -5.07324 26.4424 -11.1494c7.78711 -6.12402 13.5273 -13.7734 17.2148 -22.9561
c0.0898438 -0.242188 3.42969 -13.3486 3.4707 -13.6006z" />
    <glyph glyph-name="slash" unicode="/" horiz-adv-x="464" 
d="M412.387 558.013c6.57715 -27.292 -8.50879 -63.9902 -17.7803 -89.3535c-10.041 -27.458 -20.999 -54.7529 -31.8896 -81.8916c-21.8291 -54.3857 -44.3857 -108.445 -68.0791 -162.042c-23.7061 -53.6221 -47.2783 -107.286 -71.374 -160.733
c-24.8145 -55.043 -46.4678 -113.026 -76.1699 -165.589c-14.083 -24.916 -38.0986 -37.834 -66.543 -27.4443c-27.0488 9.88184 -35.9473 41.3877 -27.4453 66.5439c19.3066 57.1221 48.5459 111.846 73.8037 166.573c25.0381 54.251 51.002 108.018 77.2461 161.691
c26.2891 53.7666 54.0273 106.888 83.2734 159.121c14.9385 26.6816 29.7402 53.6025 45.5889 79.751c13.9336 22.9912 32.6016 54.4336 57.9619 66.0615c10.0859 4.62305 19.1855 -3.4707 21.4072 -12.6885z" />
    <glyph glyph-name="zero" unicode="0" horiz-adv-x="373" 
d="M322.43 175.089c-1.71484 -51.7197 -8.58105 -103.789 -24.3408 -153.226c-14.5273 -45.5576 -40.5225 -99.8604 -96.4824 -98.0439c-53.2588 1.73047 -88.1338 60.583 -101.937 105.767c-15.7148 51.4414 -23.9717 105.022 -28.0361 158.559
c-4.16992 54.8936 -4.62695 110.91 0.864258 165.729c5.48535 54.7715 19.9424 103.516 60.3975 142.489c23.3906 22.5283 69.0859 -5.49121 61.3721 -36.2275c-10.5137 -41.8984 -21.043 -84.4482 -24.9512 -127.554
c-4.20508 -46.4102 -3.87305 -92.2549 -0.291016 -138.71c3.28809 -42.6582 8.39648 -86.0156 17.4932 -127.856c3.84375 -17.6787 8.12207 -33.2979 15.3125 -51.8799c2.06543 -5.33789 5.90918 -15.085 7.65234 -17.9297
c1.57422 -2.57031 3.25977 -6.02832 5.73438 -6.07031c13.1797 -0.210938 23.1699 20.3887 27.748 29.708c9.29395 18.9238 16.6377 38.8145 22.5186 59.0439c11.5576 39.7559 18.7188 81.6611 25.1748 122.516c12.9023 81.6387 3.1416 173.529 -43.1182 244.051
c-21.5859 32.9082 -54.8643 66.6689 -97.7236 62.7998c-39.9795 -3.61133 -67.3447 -41.5156 -78.0918 -76.9551c-4.30664 -14.2012 -25.3184 -5.15332 -21.1934 8.81543c12.9277 43.7539 48.4443 86.6836 96.377 91.834c51.4551 5.52637 93.9512 -31.6152 120.589 -71.6846
c55.918 -84.1133 58.166 -187.636 54.9316 -285.175z" />
    <glyph glyph-name="one" unicode="1" horiz-adv-x="309" 
d="M220.259 4.72949c20.6797 4.35156 38.7656 -16.6914 38.6543 -35.4971c-0.133789 -22.2627 -18.8047 -36.25 -39.874 -34.8926c-11.5352 0.744141 -23.0996 -0.105469 -34.667 -1.59961c-5.13379 -1.59277 -10.5264 -2.37207 -15.9316 -2.375
c-19.2588 -3.15137 -38.5078 -6.91602 -57.6357 -6.99219c-11.0215 -0.0449219 -21.7012 4.35449 -25.957 15.3789c-3.71289 9.61621 -1.00586 23.1855 8.22461 28.9609c7.9248 4.95801 16.1875 8.96484 24.6641 12.3555
c-5.53613 48.9482 -2.70703 98.3271 -1.63086 147.502c1.05078 48.1787 2.43652 96.2549 4.86328 144.386c2.4873 49.3223 6.2959 98.165 12.7646 147.139c3.0459 23.0488 8.13867 45.8613 13.0234 68.584c0.399414 1.85156 0.869141 3.66797 1.28418 5.50977
c-11.0342 -12.4072 -22.6748 -24.2812 -34.8486 -35.5361c-12.002 -11.0918 -29.1123 -30.2998 -45.332 -34.9551c-9.63574 -2.76465 -20.2295 3.55078 -17.3945 14.4609c1.19434 4.59766 3.6748 7.07227 8.33008 8.22852
c0.571289 0.140625 1.14258 0.28418 1.71387 0.424805c2.04004 0.507812 3.8252 0.27832 5.31641 -0.44043c2.87305 2.60254 5.6543 5.88477 7.5127 7.52246c5.38965 4.75098 10.8584 9.39648 16.1426 14.2686c10.4375 9.62598 20.3447 19.7979 29.7891 30.3916
c18.5791 20.8389 34.7246 43.3223 49.7559 66.8115c4.48926 7.01465 16.6475 6.50391 21.0342 -0.258789c4.99707 -7.70117 11.584 -16.9121 13.9814 -25.833c2.88965 -10.7441 2.50684 -24.2939 3.08789 -35.3955c1.24805 -23.8691 2.50293 -47.8086 3.49316 -71.6875
c2.0752 -50.1104 3.05176 -100.281 4.95117 -150.404c1.90625 -50.251 3.63379 -100.422 4.56934 -150.705c0.779297 -41.7451 2.80371 -83.6855 0.115234 -125.352z" />
    <glyph glyph-name="two" unicode="2" horiz-adv-x="446" 
d="M275.278 56.7178c38.8877 5.67676 83.001 6.4209 112.796 -21.4902c21.7168 -20.3535 -5.84277 -56.9238 -28.8721 -36.9531c-15.0635 13.0615 -34.7217 14.0449 -53.8525 12.583c-20.0215 -1.53223 -40.1172 -4.86914 -59.6318 -9.85938
c-6.58008 -10.999 -13.5049 -21.7969 -20.7871 -32.3613c-29.9033 -43.3701 -75.1445 -91.4502 -133.432 -82.6348c-34.2676 5.18164 -54.6123 44.9668 -31.8857 73.373c4.58496 5.73145 10.3477 8.62109 15.625 13.0498c4.38379 3.67773 8.29785 7.71973 12.9277 11.1426
c9.43164 6.96973 19.8086 12.8799 29.9521 18.748c5.81738 3.36816 11.708 6.58984 17.6533 9.68066c0.827148 1.02441 1.68945 2.04004 2.50391 3.06836c20.4785 25.8838 32.748 47.0615 46.7676 74.5957c52.1348 102.386 78.4082 212.587 80.5566 327.39
c0.495117 26.3564 -3.08691 52.5439 -11.7422 77.4219c-5.10547 14.6768 -13.2402 23.0674 -29.8135 20.791c-13.959 -1.91895 -26.168 -10.5205 -35.6475 -20.5459c-19.54 -20.6631 -33.5791 -47.1152 -43.2949 -73.6504
c-8.7959 -24.0195 -10.9766 -47.5918 -13.7734 -72.1406c4.65527 -3.45117 7.08203 -10.5361 2.55469 -15.1182c-4.82715 -4.88477 -7.62402 -6.45215 -14.3574 -8.05859c-6.24219 -1.49414 -12.3623 4.46387 -13.1162 10.2461
c-6.54883 50.251 15.2773 107.944 41.8379 149.549c13.3711 20.9443 30.5166 41.624 53.9834 51.499c22.4355 9.44141 45.417 5.57227 66.7227 -4.79492c43.374 -21.1074 58.4922 -76.0361 66.5762 -119.678c9.19531 -49.6416 5.18164 -104.222 -1.5332 -153.965
c-9.38965 -69.5576 -28.8652 -138.195 -58.7178 -201.888zM89.7939 -32.7715c-0.919922 -0.118164 -0.845703 -0.261719 0 0z" />
    <glyph glyph-name="three" unicode="3" horiz-adv-x="408" 
d="M246.976 323.428c28.7441 -13.2822 54.1338 -34.0635 71.7295 -59.5674c64.0469 -92.8428 48.9932 -226.307 -33.0674 -302.786c-21.085 -19.6514 -48.335 -34.3604 -77.1465 -38.249c-36.7998 -4.96484 -68.6504 10.7529 -93.0176 37.2432
c-38.1729 41.5 -55.4072 108.967 -41.1162 163.365c6.11719 23.2881 23.8047 41.5859 49.9502 38.0615c25.5996 -3.45117 38.6709 -26.0146 38.0645 -49.9512c-0.498047 -19.7217 3.60156 -43.249 11.6729 -61.502c5.84277 -13.2148 6.50391 -11.8896 14.1445 -24.0283
c2.08203 -2.38477 3.06836 -3.60156 3.02637 -3.7168c0.526367 -0.44043 1.08203 -0.845703 1.62793 -1.26367c2.33691 0.779297 9.28711 1.56152 7.52441 0.492188c2.70703 1.19727 7.62402 3.46094 7.49023 3.16113c4.9873 3.09082 9.52441 6.90625 14.0361 10.6162
c0.862305 0.706055 1.49805 1.21094 2.04395 1.63281c0.44043 0.558594 0.983398 1.22266 1.77832 2.15527c4.01367 4.70312 7.97949 9.37109 11.5742 14.4121c1.0791 1.51367 4.39648 6.77832 4.75684 7.12305c5.01855 9.24902 9.11133 19.0479 12.3867 29.0254
c0.405273 1.20703 0.756836 2.43262 1.13086 3.64941c0.0830078 0.482422 0.405273 1.89355 1.00195 4.3584c0.996094 6.18457 2.28613 12.2734 2.98242 18.5117c0.520508 4.67773 0.830078 9.34863 1.0791 14.0449c0.185547 5.75684 0.188477 6.26172 0.0126953 1.52344
c-0.0927734 3.12891 -0.258789 6.25488 -0.500977 9.37695c-0.364258 4.67383 -0.894531 9.3418 -1.59668 13.9775c-0.216797 1.43066 -2.9502 14.0137 -2.44922 12.8516c-2.9375 10.415 -6.91602 20.8047 -11.8809 30.4053
c-0.424805 0.696289 -0.967773 1.58984 -1.66699 2.73926c-1.80664 2.8291 -3.70996 5.58789 -5.70898 8.28223c-2.57324 3.45801 -5.27148 6.94434 -8.24121 10.0986c1.50391 -1.90918 -9.70312 7.41992 -10.9072 8.39355
c-1.39551 1.13379 -2.19043 1.84277 -2.64355 2.2959c-0.520508 0.146484 -1.43359 0.491211 -2.99805 1.19043c-5.46289 2.43945 -10.8486 4.87891 -16.5127 6.78809c1.36328 -0.641602 -9.70898 2.01758 -11.3242 2.24414
c-1.50977 0.210938 -12.959 0.945312 -11.5195 1.08887c-6.02148 -0.0283203 -11.9883 -0.541992 -17.9648 -1.29883c-47.6172 -6.03125 -73.29 57.9648 -34.5615 86.4287c31.2061 22.9365 57.5527 44.7363 80.6172 73.8164
c13.5117 17.0332 53.1758 63.6064 22.6846 82.2646c-32.2373 19.7246 -70.8408 4.37402 -97.041 -17.3525c-29.8398 -24.7441 -51.9717 -61.0488 -53.1846 -100.346c-0.469727 -15.2266 -23.4062 -11.6543 -23.2402 3.1377c0.548828 48.9072 30.542 95.1641 68.5869 124.263
c34.9541 26.7334 85.8184 47.9297 129.651 32.707c61.5244 -21.3691 56.8535 -93.8125 34.667 -142.454c-9.62598 -21.1074 -21.9404 -40.749 -35.9307 -59.21zM194.054 20.1377c4.32617 -1.7207 4.5332 -1.74609 0.519531 -0.0351562
c-0.191406 0.0126953 -0.350586 0.0253906 -0.519531 0.0351562z" />
    <glyph glyph-name="four" unicode="4" horiz-adv-x="403" 
d="M92.5117 142.619c-31.8545 10.3223 -42.5859 39.6504 -42.5156 70.4697c0.130859 55.7197 10.0732 110.495 22.4453 164.645c12.5186 54.8037 20.2295 117.561 51.2949 165.292c12.7646 19.6133 42.6807 7.6377 45.7461 -12.6875
c6.88086 -45.5957 -6.34668 -93.4199 -13.6387 -138.39c-7.28906 -44.9541 -16.2002 -90.0293 -20.5645 -135.379c-1.86816 -19.3896 -3.27344 -38.8496 -0.878906 -58.2393c0.0322266 -0.264648 0.274414 -3.51465 0.536133 -5.93457
c2.29883 0.341797 6.70508 -2.03027 9.38672 -1.9668c4.58496 0.111328 10.3955 2.06543 14.7471 3.25977c27.8281 7.63086 54.9375 20.4053 80.8281 34.6445c0.133789 6.35352 0.261719 12.707 0.402344 19.0605c1.10156 49.4365 2.19629 98.8447 4.84668 148.221
c2.55469 47.5977 0.537109 101.469 23.4229 144.702c12.6748 23.9492 50.79 22.5732 54.4844 -7.45801c5.85547 -47.585 6.64746 -96.208 9.80176 -144.067c3.18945 -48.3516 5.14355 -96.7666 7.63672 -145.159c2.55469 -49.501 5.27539 -98.9795 7.37988 -148.503
c2.14551 -50.4902 8.03613 -103.088 1.97949 -153.387c-3.20508 -26.6338 -27.2178 -45.9375 -53.2256 -45.7969c-27.5186 0.146484 -47.8213 20.082 -52.6611 46.4385c-9.06152 49.3311 -5.4248 102.034 -5.58789 152.021
c-0.111328 34.1943 0.300781 68.3701 0.914062 102.546c-26.5352 -15.3125 -53.6094 -29.7402 -80.6807 -43.9062c-20.708 -10.833 -42.8271 -17.9658 -66.0996 -10.4248zM135.511 190.181c0.118164 0.976562 -0.143555 1.55176 -0.536133 1.88379
c0.201172 -1.78125 0.405273 -2.97852 0.536133 -1.88379zM134.502 192.337c-1.21973 0.450195 -2.72656 -0.462891 0 0z" />
    <glyph glyph-name="five" unicode="5" horiz-adv-x="426" 
d="M66.5703 463.788c-11.1045 -7.67188 -23.0322 8.38867 -12.4863 16.8398c19.6357 15.7305 44.4248 23.8018 68.1182 31.4482c4.59082 13.6299 10.1592 26.7168 17.6973 38.3096c13.1826 20.2773 41.7422 6.93164 45.7461 -12.6875
c0.552734 -2.7207 0.970703 -5.48926 1.28027 -8.28906c4.75391 1.01172 9.50781 2.03027 14.2812 2.93066c54.0986 10.2266 109.289 12.8506 164.16 8.78027c15.415 -1.14258 12.0977 -24.9258 -3.20508 -23.7354c-50.9121 3.95605 -102 1.625 -152.312 -7.20605
c-7.53809 -1.32227 -15.0352 -2.83887 -22.5098 -4.44824c-0.686523 -12.915 -2.45215 -25.9414 -3.51562 -38.125c-2.01465 -23.0898 -4.51172 -46.1484 -6.76562 -69.2197c-0.0634766 -0.635742 -0.111328 -1.29297 -0.168945 -1.9375
c17.7871 1.67285 35.8066 2.58301 53.4277 -0.0673828c168.648 -25.3438 171.822 -248.233 104.976 -365.973c-19.5107 -34.3672 -43.5391 -66.8379 -79.3145 -85.4775c-33 -17.1963 -81.1758 -23.0615 -115.182 -5.89062
c-37.499 18.9365 -51.9365 59.6123 -57.8203 98.6602c-6.29004 41.7324 -1.45898 83.0439 13.9395 122.289c15.9609 40.6826 79.2705 22.6533 73.0703 -19.7725c-4.76074 -32.5918 -5.71191 -72.8369 2.43555 -101.693c1.02148 -3.62695 2.5791 -7.05957 3.68066 -10.6455
c0.367188 -1.2041 0.658203 -2.10742 0.884766 -2.78418c0.963867 -1.56445 1.99805 -3.07812 3.14062 -4.51758c0.0126953 -0.0195312 0.0224609 -0.0292969 0.0351562 -0.0449219c6.15527 -0.644531 22.4004 1.32812 30.168 4.2627
c10.1055 3.81836 15.6572 9.03223 22.7422 17.4609c4.41602 5.25195 8.55078 10.7559 12.459 16.3945c1.98633 2.86719 3.88965 5.78223 5.7832 8.70996c0.741211 1.14648 1.33789 2.06641 1.83301 2.82324c0.0859375 0.251953 0.420898 0.931641 1.1748 2.32715
c13.6104 25.1621 22.0332 49.6543 26.2832 74.7783c5.03516 29.7793 5.48242 53.0391 0.831055 82.9717c-2.27637 14.6357 -5.41504 28.0449 -13.2949 41.6016c-5.00293 8.60449 -10.0537 13.2695 -16.4775 18.3652c-3.38477 2.68848 -7.01465 5.38672 -10.7471 7.63477
c-0.696289 0.274414 -1.58398 0.619141 -2.75879 1.06641c-2.90527 1.10449 -5.90039 2.43555 -8.74219 3.64844c-0.520508 0.223633 -4.125 1.37988 -4.48926 1.58398c-11.7305 2.76855 -23.3135 2.46191 -35.2959 1.39258
c-36.9434 -3.29785 -85.3711 -11.6377 -102.801 32.2148c-7.87012 19.7979 -1.70801 40.0596 3.30469 59.6025c4.54004 17.7041 9.87207 35.2256 14.8779 52.7988c3.22754 11.3281 6.13574 23.2852 9.31934 35.2705c-16.8037 -5.49512 -33.7383 -11.9609 -47.7637 -21.6514z
M177.258 24.2861c0.44043 -1.25488 0.399414 -0.928711 0 0zM178.974 21.3145c0.319336 -0.897461 0.972656 -1.43555 1.63672 -1.73926c-0.251953 0.261719 -0.577148 0.603516 -0.944336 0.996094c-0.0830078 0.015625 -0.143555 0.03125 -0.229492 0.0439453
c0.0634766 -0.0126953 0.146484 -0.015625 0.213867 -0.0253906c-0.213867 0.229492 -0.424805 0.453125 -0.676758 0.724609zM181.042 19.4131c1.57422 -0.475586 2.77734 0.344727 -0.830078 1.05957c0.364258 -0.453125 0.628906 -0.794922 0.830078 -1.05957z
M241.72 297.541c1.17773 -0.545898 1.79395 -0.724609 0 0z" />
    <glyph glyph-name="six" unicode="6" horiz-adv-x="318" 
d="M136.887 -101.88c-43.9648 7.05957 -72.4551 49.7441 -81.8135 90.2764c-9.10254 39.4561 -3.94922 82.2744 -0.0351562 122.181c8.0332 81.8789 25.1436 162.554 52.25 240.253c13.1064 37.5693 29.1914 73.8994 47.1064 109.419
c17.4678 34.6318 37.2178 82.1406 71.9297 102.702c10.2139 6.0498 28.4033 2.72949 28.5342 -12.2354c0.316406 -35.9346 -18.9453 -70.7705 -31.71 -103.697c-13.0557 -33.6738 -23.7773 -67.9932 -34.3291 -102.51c-16.8896 -55.2568 -29.667 -112.359 -38.5107 -169.561
c21.1621 5.16602 43.6934 4.0293 64.1143 -5.30664c40.4492 -18.4922 54.3662 -61.001 53.6797 -102.686c-1.09473 -66.3584 -46.8086 -182.39 -131.216 -168.836zM200.933 127.833c-16.4395 14.5078 -36.7559 16.4785 -55.7236 10.5371
c-3.10352 -25.3311 -5.36426 -50.7646 -6.69238 -76.2461c-1.30566 -25.1172 -2.64941 -53.1396 4.18359 -78.2822c1.8418 -6.76855 5.7373 -18.6299 12.3623 -20.1045c7.72656 -1.7207 18.1094 7.56348 23.3486 12.4805c20.4688 19.2207 33.083 49.1436 38.1631 76.2627
c4.875 26.0303 5.86816 56.3711 -15.6416 75.3525z" />
    <glyph glyph-name="seven" unicode="7" horiz-adv-x="400" 
d="M217.126 490.41c-15.2578 25.9922 -56.2178 18.1865 -79.8955 10.5049c-26.458 -8.58203 -50.1641 -23.7002 -69.4072 -43.7383c-8.54688 -8.90137 -23.8311 2.65039 -15.332 11.9766c33.2686 36.5059 83.9062 64.9092 134.723 61.4482
c44.1465 -3.00781 78.1846 -36.2256 93.6025 -75.6055c20.6123 -52.6426 20.0469 -110.678 17.9463 -166.248c-0.536133 -14.2139 -1.27637 -28.3965 -2.19238 -42.5625c14.2617 1.03125 28.6035 1.49414 43.0098 1.31836
c16.3662 -0.201172 12.7744 -25.4561 -3.40625 -25.2168c-13.8662 0.204102 -27.6846 -0.268555 -41.4326 -1.33203c-2.67578 -33.9961 -6.24512 -67.9062 -10.3477 -101.836c-6.77539 -56.0615 -11.7148 -113.206 -22.9697 -168.568
c-5.20117 -25.5674 -26.9629 -44.9346 -54.1621 -41.2695c-27.001 3.63672 -43 28.25 -41.2695 54.1592c4.17285 62.4795 19.543 124.735 30.6377 186.26c3.34277 18.54 6.74316 37.0928 10.0732 55.6621c-17.5156 -4.89453 -34.7852 -10.792 -51.7168 -17.7139
c-14.875 -6.08203 -24.083 17.0596 -9.2207 23.1797c21.4902 8.85352 43.4346 16.0469 65.7168 21.6816c5.72754 33.1699 10.9697 66.4229 14.833 99.8164c3.50586 30.3281 6.41406 60.3691 5.13672 90.9209c-0.925781 22.1162 -2.83496 47.585 -14.3262 67.1631z" />
    <glyph glyph-name="eight" unicode="8" horiz-adv-x="398" 
d="M132.1 -46.374c-30.7529 37.6582 -32.7285 95.5371 -24.7598 141.197c3.78027 21.6504 14.0996 62.4541 33.6484 85.4648c-9.48926 10.75 -18.7227 21.7236 -27.4297 33.1572c-33.3135 43.7412 -62.2979 97.543 -63.4883 153.758
c-0.625977 29.6221 2.71973 59.3145 15.6699 86.3506c12.1201 25.3027 28.6016 45.708 48.6172 65.0566c35.1426 33.9678 89.3076 54.2324 137.231 37.2119c44.5518 -15.8232 70.2539 -65.3398 83.8105 -107.644c31.375 -97.916 0.344727 -203.421 -35.3438 -296.474
c19.5488 -26.1328 35.4707 -54.5996 40.9619 -86.6709c17.1963 -100.425 -137.4 -198.995 -208.918 -111.408zM161.206 462.543c-24.7666 -43.5938 -16.0176 -90.1357 1.01855 -130.575c5.27734 -12.5283 10.5137 -23.0361 14.8555 -30.1396
c6.24219 -10.2109 13.0234 -20.0762 20.21 -29.6387c16.4199 -21.8447 34.7432 -42.1729 53.0762 -62.4053c9.02246 -9.95801 18.3584 -20.1621 27.4805 -30.7109c18.0586 50.707 33.7607 103.547 34.2236 157.278c0.264648 30.5869 -3.84766 62.0801 -12.8896 91.3418
c-7.76172 25.1143 -18.4893 49.7754 -41.1709 64.7529c-33.2715 21.9756 -78.2988 2.66602 -96.8037 -29.9033zM219.13 95.3838c-15.7402 18.0811 -32.3379 35.4141 -48.7773 52.8818c-0.587891 -1.54883 -1.15332 -3.01074 -1.69336 -4.32617
c-5.17188 -12.5957 -9.40527 -25.7979 -12.6201 -39.0322c-6.65039 -27.3652 -8.37793 -56.6875 -2.87402 -84.4102c3.91797 -19.7344 13.5859 -43.4785 34.0645 -50.8311c23.0293 -8.26562 49.2959 2.66309 65.1924 19.7441
c34.0059 36.5439 -8.63379 77.6572 -33.292 105.974z" />
    <glyph glyph-name="nine" unicode="9" horiz-adv-x="400" 
d="M116.504 232.776c-25.6572 2.09082 -47.9014 17.1357 -58.7441 40.5479c-12.707 27.4326 -7.92773 58.5557 0.960938 86.3262c16.5703 51.7803 52.8086 98.5127 99.4033 126.686c30.251 18.2881 73.0342 29.5811 104.288 14.7695
c0.478516 3.25684 0.986328 6.50684 1.40137 9.76953c2.7334 21.4297 23.5723 37.0332 44.8389 34.166c23.0674 -3.10938 34.5801 -23.3516 34.165 -44.8389c-3.49609 -180.998 11.708 -362.05 5.92285 -542.978c-0.900391 -28.1729 -30.5195 -48.501 -56.2119 -48.3633
c-26.6211 0.146484 -53.6826 21.0244 -55.6143 49.0439c-7.50293 108.794 -2.83496 218.102 5.83301 327.105c-13.7197 -12.9688 -29.1572 -24.2139 -45.8457 -32.3174c-23.502 -11.4141 -53.9678 -22.0752 -80.3975 -19.917zM76.4023 322.797
c-2.67578 -23.7734 3.70215 -51.5498 28.5352 -60.8408c23.7227 -8.87305 46.4902 0.130859 61.9463 18.7158c46.8955 56.3838 77.0547 124.457 91.3164 196.014c-15.207 10.2451 -36.6494 10.6025 -54.3887 4.81445c-23.7832 -7.76172 -45.4561 -23.0488 -63.6904 -39.9482
c-32.624 -30.2354 -58.6865 -74.0176 -63.7188 -118.755z" />
    <glyph glyph-name="colon" unicode=":" horiz-adv-x="215" 
d="M61.4189 311.344c-1.06934 4.18262 -2.13574 8.36426 -3.20215 12.5498c-1.06641 6.65332 -0.472656 13.084 1.78418 19.2871c1.2168 6.70801 4.07715 12.7266 8.57617 18.0586c4.08398 5.6543 9.23438 9.88477 15.4473 12.6885
c5.47559 3.6875 11.5703 5.82031 18.2852 6.39551c8.84082 1.05371 17.3818 -0.108398 25.6221 -3.49609c3.9082 -2.28613 7.8125 -4.5752 11.7207 -6.86133c7.18652 -5.64844 12.4805 -12.7109 15.8838 -21.1816c1.06641 -4.18262 2.13281 -8.36523 3.19922 -12.5508
c1.06934 -6.65332 0.475586 -13.084 -1.78125 -19.2871c-1.21973 -6.70801 -4.07715 -12.7266 -8.57617 -18.0586c-4.08398 -5.6543 -9.23438 -9.88477 -15.4473 -12.6885c-5.47559 -3.6875 -11.5674 -5.82031 -18.2852 -6.39453
c-8.84082 -1.05371 -17.3818 0.108398 -25.6221 3.49609c-3.9082 2.28613 -7.8125 4.57227 -11.7207 6.86133c-7.18652 5.64844 -12.4805 12.708 -15.8838 21.1816zM163.968 48.7695c1.2041 -7.50977 0.532227 -14.7598 -2.00586 -21.7549
c-1.37305 -7.56348 -4.59766 -14.3545 -9.67383 -20.3701c-4.60742 -6.37891 -10.418 -11.1523 -17.4258 -14.3135c-6.1748 -4.16309 -13.0488 -6.56738 -20.625 -7.21582c-9.97461 -1.19043 -19.6104 0.125 -28.9072 3.94336
c-4.40625 2.58008 -8.81543 5.16016 -13.2217 7.74023c-8.10645 6.37305 -14.0771 14.3359 -17.918 23.8955l-3.6123 14.1562c-1.2041 7.50586 -0.533203 14.7568 2.01172 21.7549c1.37012 7.56348 4.59473 14.3545 9.6709 20.3701
c4.60742 6.37891 10.418 11.1523 17.4258 14.3135c6.1748 4.16309 13.0488 6.56738 20.6221 7.21582c9.97754 1.19043 19.6104 -0.125 28.9072 -3.94336c4.40918 -2.58008 8.81543 -5.16016 13.2246 -7.74023c8.10352 -6.37305 14.0771 -14.3359 17.915 -23.8955z" />
    <glyph glyph-name="semicolon" unicode=";" horiz-adv-x="223" 
d="M171.933 344.887c1.29004 -8.0332 0.572266 -15.791 -2.15137 -23.2783c-1.46875 -8.09375 -4.91699 -15.3574 -10.3477 -21.7939c-4.92969 -6.82617 -11.1426 -11.9277 -18.6426 -15.3125c-6.60547 -4.4541 -13.958 -7.02441 -22.0645 -7.7168
c-10.6699 -1.27441 -20.9795 0.130859 -30.9248 4.21777c-4.71582 2.76172 -9.43164 5.52051 -14.1475 8.28223c-8.67188 6.81641 -15.0605 15.3379 -19.1699 25.5645c-1.28711 5.04785 -2.57715 10.0957 -3.86426 15.1436
c-1.28711 8.0332 -0.572266 15.792 2.15137 23.2793c1.46875 8.09375 4.91699 15.3604 10.3477 21.7939c4.92969 6.82617 11.1426 11.9277 18.6426 15.3125c6.60547 4.45117 13.958 7.02441 22.0645 7.7168c10.6699 1.27344 20.9795 -0.134766 30.9248 -4.21875
c4.71582 -2.76172 9.43164 -5.52051 14.1475 -8.28223c8.67188 -6.81641 15.0605 -15.3379 19.1699 -25.5645c1.28711 -5.04785 2.57715 -10.0957 3.86426 -15.1436zM103.267 45.2598c17.3496 18.5049 50.7969 12.9795 54.1846 -15.0273
c2.52539 -20.8711 -5.9834 -42.8887 -11.9092 -62.7061c-5.75684 -19.2588 -10.3291 -39.0605 -19.4736 -56.9883c-8.18652 -16.0469 -23.8438 -24.6738 -41.5928 -20.1592c-16.3916 4.16992 -28.5557 21.2637 -25.749 38.3799
c3.44531 21.0049 11.2266 40.417 18.3877 60.3818c6.61523 18.457 12.5156 41.5791 26.1523 56.1191z" />
    <glyph glyph-name="less" unicode="&#x3c;" horiz-adv-x="327" 
d="M236.806 199.896c25.1426 -1.36328 42.915 -28.8701 39.7734 -52.1904c-3.63379 -26.9629 -27.1836 -40.1074 -52.1953 -39.7754c-40.4814 0.540039 -88.3223 2.08203 -126.083 18.2471c-48.2715 20.6641 -65.4482 77.7383 -27.9043 117.778
c27.5469 29.377 69.0908 51.7578 105.591 67.8594c18.4062 8.11914 37.5566 15.4531 57.7861 17.0078c12.0684 0.928711 28.0068 4.875 34.75 -7.67285c2.66602 -4.96191 -1.02441 -11.7461 -5.86133 -13.6045
c-0.188477 -0.0732422 -0.379883 -0.146484 -0.568359 -0.216797c-0.0634766 -0.0253906 -0.124023 -0.0351562 -0.1875 -0.0576172c-0.213867 -0.744141 -1.27344 -1.86133 -3.24316 -3.37793c-2.21289 -2.46777 -4.40332 -4.95215 -6.56445 -7.46191
c-4.95801 -5.45996 -10.1621 -10.457 -15.5645 -15.4824c-10.1084 -9.40625 -21.1299 -17.5703 -31.7266 -26.4082c-18.0615 -15.0605 -36.6719 -29.8047 -53.1309 -46.6719c28.1631 -4.08691 56.7324 -6.43359 85.1289 -7.97266zM132.039 211.944
c0.0351562 -0.0126953 0.0703125 -0.0273438 0.108398 -0.046875c-0.459961 0.357422 -0.925781 0.711914 -1.43359 1.04688c0.507812 -0.379883 0.945312 -0.708984 1.3252 -1z" />
    <glyph glyph-name="equal" unicode="=" horiz-adv-x="457" 
d="M59.085 237.498c-13.9814 9.39941 -10.2188 28.5244 0.463867 38.1025c19.7344 17.6875 53.2012 22.3682 78.5518 26.3145c27.0303 4.20801 54.2451 6.19727 81.5469 7.44922c29.0449 1.32812 58.2012 2.1582 87.2773 1.57031
c29.8203 -0.603516 60.9238 -2.21289 86.0889 -19.9043c24.667 -17.3369 14.8906 -52.8086 -9.20215 -64.2549c-26.7236 -12.6973 -60.5098 -7.97168 -89.2227 -7.17676c-24.5234 0.676758 -48.9668 1.10156 -73.5 0.683594
c-27.8252 -0.475586 -55.6533 -0.858398 -83.4814 -0.0859375c-26.2793 0.727539 -56.1729 2.27637 -78.5225 17.3018zM393.019 178.221c24.667 -17.3398 14.8916 -52.8076 -9.2041 -64.2539c-26.7236 -12.6973 -60.5098 -7.97559 -89.2227 -7.18066
c-24.5234 0.676758 -48.9668 1.10156 -73.5 0.683594c-27.8252 -0.475586 -55.6533 -0.858398 -83.4814 -0.0859375c-26.2793 0.727539 -56.1729 2.27637 -78.5225 17.3018c-13.9814 9.39941 -10.2207 28.5244 0.46582 38.1025
c19.7344 17.6875 53.2012 22.3682 78.5518 26.3145c27.0303 4.21094 54.2451 6.19727 81.5469 7.44922c29.0449 1.33105 58.2012 2.16113 87.2773 1.57324c29.8203 -0.600586 60.9238 -2.21289 86.0889 -19.9043z" />
    <glyph glyph-name="greater" unicode="&#x3e;" horiz-adv-x="324" 
d="M262.252 278.946c15.0059 -19.0293 16.1982 -45.7881 1.71582 -65.5254c-11.248 -15.3223 -29.4023 -22.8057 -45.9502 -30.832c-31.6279 -15.3379 -64.5039 -29.0791 -98.4434 -38.3955c-22.1543 -6.0791 -45.835 0.459961 -55.084 23.7324
c-8.4707 21.3115 2.47754 46.5566 23.7314 55.0811c20.8867 8.37793 42.0928 15.9092 62.9736 24.3252c3.05566 1.23242 6.12695 2.42969 9.19238 3.63672c-6.82324 2.62109 -13.6045 4.86914 -19.585 6.80762c-25.2578 8.18945 -61.2979 11.9824 -81.3516 30.1777
c-10.8779 9.86914 -14.3965 30.6416 0.485352 39.668c30.8291 18.6973 75.1992 9.63965 108.241 0.97168c33.0352 -8.66504 72.0312 -21.6943 94.0742 -49.6475z" />
    <glyph glyph-name="question" unicode="?" horiz-adv-x="329" 
d="M204.31 568.632c62.6611 -29.875 75.3428 -112.78 74.7842 -174.375c-1.24805 -136.871 -57.9102 -266.099 -72.8359 -401.344c-3.18359 -28.8623 -30.9414 -46.9688 -58.3701 -44.4785c-28.7607 2.61133 -46.918 31.3682 -44.4785 58.3691
c5.84961 64.7432 23.0615 127.268 40.417 189.705c14.7441 53.041 29.9609 100.108 41.251 154.303c5.53906 26.6025 10.3574 53.6904 11.6475 80.8701c1.04688 22.0684 0.446289 47.6455 -6.94824 68.6348c-6.76855 19.2109 -16.9697 28.5977 -38.0449 25.5586
c-21.0527 -3.03906 -41.8506 -13.3105 -56.8789 -28.4023c-29.8047 -29.9258 -24.2334 -86.8145 15.248 -105.761c12.6914 -6.08887 4.6709 -25.7119 -8.43555 -20.2715c-53.1914 22.0713 -64.1172 87.2168 -38.2686 133.959
c24.9199 45.0654 88.7559 88.1006 140.913 63.2324zM144.937 -100.635c26.4932 0 50.9404 -13.709 54.4814 -42.5654c2.94043 -23.9521 -16.1396 -54.4814 -42.5664 -54.4814c-26.4971 0 -50.9404 13.7061 -54.4844 42.5654
c-2.9375 23.9521 16.1426 54.4814 42.5693 54.4814z" />
    <glyph glyph-name="at" unicode="@" horiz-adv-x="649" 
d="M549.498 455.468c38.4346 -66.7354 51.8271 -146.08 48.8994 -222.349c-2.86719 -74.6816 -22.9082 -159.431 -76.3135 -214.752c-29.1885 -30.2354 -72.4824 -48.249 -113.637 -31.8701c-38.8906 15.4785 -59.5986 53.6064 -68.7871 92.3027
c-0.545898 2.29199 -1.05078 4.61328 -1.5293 6.94043c-3.43262 -4.40918 -6.97656 -8.73828 -10.7246 -12.9268c-7.78125 -8.6875 -16.5967 -16.2227 -23.873 -25.3096c-6.49414 -8.11328 -14 -15.5049 -23.6289 -19.8086
c-24.8496 -11.1074 -51.2246 -0.495117 -68.124 19.0381c-35.0596 40.5225 -29.4082 108.03 -14.0859 155.242c17.0078 52.4189 61.4541 114.509 124.729 101.978c33.3135 -6.59961 49.3154 -30.5615 56.0684 -58.8203c4.08984 1.33105 8.61035 1.81641 13.6133 1.19727
c23.2939 -2.87988 32.4033 -24.2686 26.4844 -44.7402c-0.935547 -3.23438 -2.32129 -5.96094 -4.0166 -8.25684c-0.699219 -13.5918 0 -27.4707 -0.194336 -40.8164c-0.242188 -16.4014 1.71484 -32.9307 5.08008 -48.9746
c2.23535 -10.6699 1.33789 -7.58594 4.83105 -17.0586c1.2959 -3.51562 2.72266 -7.00195 4.40234 -10.3516c0.146484 -0.296875 0.257812 -0.526367 0.369141 -0.755859c0.226562 -0.291016 0.513672 -0.677734 0.928711 -1.26172
c0.545898 -0.772461 4.21484 -5.56445 3.53125 -5.20996c1.17773 -1.05371 2.46484 -2.05957 3.7041 -2.95996c-1.69824 1.2959 1.93555 -0.773438 2.88086 -1.39941c1.60938 -0.258789 6.7334 -1.3252 7.0332 -1.37305c26.4043 -4.17969 45.7842 17.1699 58.9893 38.8037
c17.0625 27.9492 24.4121 62.8018 29.249 94.7773c9.26562 61.2471 5.1084 126 -15.1943 184.74c-16.165 46.7646 -44.4434 93.3506 -92.4502 112.252c-106.795 42.0518 -216.658 -50.4971 -269.198 -135.191c-61.0615 -98.4326 -80.2695 -228.928 -44.1621 -339.694
c16.8447 -51.665 47.6201 -99.9395 98.8701 -122.604c50.2383 -22.2188 103.487 -16.5547 154.945 -2.25781c26.0723 7.24121 40.6152 -27.3203 15.6768 -39.4082c-68.3955 -33.1572 -158.565 -24.6768 -221.277 17.1865
c-66.1729 44.1748 -97.0566 125.197 -107.947 200.958c-20.6572 143.726 28.3008 297.553 134.556 397.675c49.7783 46.9014 117.11 81.2939 186.425 83.4551c73.9541 2.30469 137.081 -34.502 173.878 -98.3955zM282.668 71.8682c1.17773 -3.44141 0.951172 -1.74023 0 0z
M344.962 201.407c1.08594 2.88672 2.28125 5.92188 3.59375 8.99023c-2.05957 10.373 -5.82715 21.3213 -14.626 22.0967c-2.12012 0.185547 -7.29199 -2.0752 -9.47559 -3.18945c2.56055 1.30566 -4.22754 -4.15723 -3.12012 -2.86133
c-6.65332 -6.56738 -11.9912 -14.7217 -17.3613 -22.2949c-18.9775 -26.7646 -28.7441 -67.0635 -27.8184 -102.206c0.191406 -7.34375 0.90625 -15.0986 3.01074 -22.2246c0.115234 0.287109 1.92578 -3.74512 2.72363 -5.67676
c8.73242 0.552734 10.8457 0.501953 18.623 7.88672c8.49902 8.06836 16.1709 17.0557 23.2715 26.3623c3.41016 4.46973 6.66992 9.03516 9.80566 13.6777c-1.30859 27.1162 2.06641 54.7207 11.373 79.4395z" />
    <glyph glyph-name="A" unicode="A" horiz-adv-x="710" 
d="M48.6533 461.225c-7.69727 -9.46973 -22.5986 2.16699 -14.9297 11.6689c16.085 19.9453 33.5049 41.1484 57.9482 50.9854c19.7666 7.95605 44.5771 8.11523 62.1855 -5.16309c20.7725 -15.667 25.5137 -44.5645 29.5146 -68.5713
c10.8174 -64.9375 4.94922 -131.816 -2.89844 -196.738c-16.2861 -134.734 -48.2266 -267.713 -52.7031 -403.76c-1.12109 -34.0186 -0.476562 -68.5264 6.48047 -101.971c2.05566 -9.8877 8.05176 -44.7363 24.7598 -34.2002
c10.0889 6.36328 12.6143 28.5723 15.1689 38.7002c16.3818 64.9346 29.0703 130.747 39.8457 196.828c21.5986 132.468 35.4395 266.044 55.873 398.681c9.75684 63.3408 19.8145 127.212 36.8896 189.065c8.3877 30.3916 18.7832 60.2725 32.7549 88.5762
c10.6865 21.6465 24.2139 44.0693 46.0527 55.9844c21.542 11.7559 40.6543 6.10742 62.582 -0.533203c12.0332 -3.64648 26.5859 -9.92676 34.041 -19.4512c7.57617 -9.68359 13.4287 -22.1611 18.2686 -33.4287c13.7354 -31.9727 18.7285 -68.9805 22.582 -103.351
c4.01367 -35.8066 6.03125 -70.2627 5.57812 -103.914c-1.82617 -135.836 -19.6543 -270.935 -37.1953 -405.465c-8.6875 -66.6172 -16.3281 -133.419 -23.292 -200.234c-3.46387 -33.208 -6.45508 -66.4512 -9.86816 -99.6621
c-1.75 -17.0303 -2.72656 -34.1367 -4.53711 -51.1543c-1.50977 -14.1885 -4.31641 -28.5498 -4.38965 -42.8535c-0.0605469 -11.4297 1.1084 -25.9375 5.54297 -36.5283c0.443359 -1.05957 1.13574 -2.76172 1.91797 -4.26562
c1.06934 -0.0478516 4.14355 -1.58984 4.37305 -1.59961c6.20703 -0.229492 9.96191 -2.65918 16.3662 0.379883c13.7578 6.52637 23.0938 24.5146 30.4688 36.9473c7.5127 12.6621 14.2051 25.8262 20.4561 39.1494c27.7871 59.2422 47.7705 122.411 67.1406 184.798
c39.3545 126.73 71.0303 255.865 118.124 380.103c5.60059 14.7695 28.1348 5.27441 22.5762 -9.38965c-51.0332 -134.629 -84.251 -274.887 -127.175 -412.118c-18.4287 -58.9229 -37.4795 -118.857 -65.6592 -173.975
c-11.7842 -23.0449 -25.0312 -51.4766 -44.9697 -68.5674c-19.0996 -16.376 -40.2871 -14.5117 -62.6426 -7.54785c-30.2168 9.41211 -48.8945 28.6357 -58.6387 59.0693c-9.96484 31.123 -14.6299 63.7051 -17.8135 96.1084
c-6.60547 67.2559 -4.36426 135.274 0.482422 202.597c8.09961 112.517 28.5908 223.89 43.8428 335.662c-43.0898 -2.12598 -86.0098 -8.30762 -127.845 -18.834c-16.0947 -119.675 -30.3887 -239.659 -53.3193 -358.268
c-6.54883 -33.8652 -13.7998 -67.5967 -21.9863 -101.104c-5.60352 -22.9307 -9.18555 -56.624 -31.0117 -70.877c-19.4629 -12.707 -39.8867 1.26758 -48.5107 19.5977c-12.876 27.3779 -14.6318 62.2051 -15.5732 91.9551
c-4.41895 139.505 29.9863 277.643 49.6885 414.877c9.93555 69.1904 19.083 140.501 11.0596 210.346c-3.29199 28.6426 -6.37012 77.5908 -43.8945 80.209c-32.4834 2.2666 -55.3467 -26.1709 -73.7119 -48.7627zM423.659 660.424
c-89.3652 36.4873 -133.111 -332.134 -140.196 -382.282c-1.6123 -11.4268 -3.18945 -22.8604 -4.75098 -34.2969c41.9814 11.3408 84.6016 18.3359 128.026 20.6152c1.05664 8.15723 2.08105 16.3184 3.06152 24.4824c7.76465 64.6504 13.1377 129.399 19.7432 194.104
c3.08691 30.2383 6.1875 60.8955 4.99023 91.3223c-0.578125 14.6709 -1.35059 29.7246 -3.38086 44.2744c-0.638672 4.5752 -1.76562 8.24707 -2.95312 12.5664c-1.61914 5.88477 -1.90625 10.5908 -1.34082 15.457c-0.485352 4.92969 -1.39258 9.30078 -3.19922 13.7578z
" />
    <glyph glyph-name="A" unicode="&#xc5;" horiz-adv-x="710" 
d="M48.6533 461.225c-7.69727 -9.46973 -22.5986 2.16699 -14.9297 11.6689c16.085 19.9453 33.5049 41.1484 57.9482 50.9854c19.7666 7.95605 44.5771 8.11523 62.1855 -5.16309c20.7725 -15.667 25.5137 -44.5645 29.5146 -68.5713
c10.8174 -64.9375 4.94922 -131.816 -2.89844 -196.738c-16.2861 -134.734 -48.2266 -267.713 -52.7031 -403.76c-1.12109 -34.0186 -0.476562 -68.5264 6.48047 -101.971c2.05566 -9.8877 8.05176 -44.7363 24.7598 -34.2002
c10.0889 6.36328 12.6143 28.5723 15.1689 38.7002c16.3818 64.9346 29.0703 130.747 39.8457 196.828c21.5986 132.468 35.4395 266.044 55.873 398.681c9.75684 63.3408 19.8145 127.212 36.8896 189.065c8.3877 30.3916 18.7832 60.2725 32.7549 88.5762
c10.6865 21.6465 24.2139 44.0693 46.0527 55.9844c21.542 11.7559 40.6543 6.10742 62.582 -0.533203c12.0332 -3.64648 26.5859 -9.92676 34.041 -19.4512c7.57617 -9.68359 13.4287 -22.1611 18.2686 -33.4287c13.7354 -31.9727 18.7285 -68.9805 22.582 -103.351
c4.01367 -35.8066 6.03125 -70.2627 5.57812 -103.914c-1.82617 -135.836 -19.6543 -270.935 -37.1953 -405.465c-8.6875 -66.6172 -16.3281 -133.419 -23.292 -200.234c-3.46387 -33.208 -6.45508 -66.4512 -9.86816 -99.6621
c-1.75 -17.0303 -2.72656 -34.1367 -4.53711 -51.1543c-1.50977 -14.1885 -4.31641 -28.5498 -4.38965 -42.8535c-0.0605469 -11.4297 1.1084 -25.9375 5.54297 -36.5283c0.443359 -1.05957 1.13574 -2.76172 1.91797 -4.26562
c1.06934 -0.0478516 4.14355 -1.58984 4.37305 -1.59961c6.20703 -0.229492 9.96191 -2.65918 16.3662 0.379883c13.7578 6.52637 23.0938 24.5146 30.4688 36.9473c7.5127 12.6621 14.2051 25.8262 20.4561 39.1494c27.7871 59.2422 47.7705 122.411 67.1406 184.798
c39.3545 126.73 71.0303 255.865 118.124 380.103c5.60059 14.7695 28.1348 5.27441 22.5762 -9.38965c-51.0332 -134.629 -84.251 -274.887 -127.175 -412.118c-18.4287 -58.9229 -37.4795 -118.857 -65.6592 -173.975
c-11.7842 -23.0449 -25.0312 -51.4766 -44.9697 -68.5674c-19.0996 -16.376 -40.2871 -14.5117 -62.6426 -7.54785c-30.2168 9.41211 -48.8945 28.6357 -58.6387 59.0693c-9.96484 31.123 -14.6299 63.7051 -17.8135 96.1084
c-6.60547 67.2559 -4.36426 135.274 0.482422 202.597c8.09961 112.517 28.5908 223.89 43.8428 335.662c-43.0898 -2.12598 -86.0098 -8.30762 -127.845 -18.834c-16.0947 -119.675 -30.3887 -239.659 -53.3193 -358.268
c-6.54883 -33.8652 -13.7998 -67.5967 -21.9863 -101.104c-5.60352 -22.9307 -9.18555 -56.624 -31.0117 -70.877c-19.4629 -12.707 -39.8867 1.26758 -48.5107 19.5977c-12.876 27.3779 -14.6318 62.2051 -15.5732 91.9551
c-4.41895 139.505 29.9863 277.643 49.6885 414.877c9.93555 69.1904 19.083 140.501 11.0596 210.346c-3.29199 28.6426 -6.37012 77.5908 -43.8945 80.209c-32.4834 2.2666 -55.3467 -26.1709 -73.7119 -48.7627zM423.659 660.424
c-89.3652 36.4873 -133.111 -332.134 -140.196 -382.282c-1.6123 -11.4268 -3.18945 -22.8604 -4.75098 -34.2969c41.9814 11.3408 84.6016 18.3359 128.026 20.6152c1.05664 8.15723 2.08105 16.3184 3.06152 24.4824c7.76465 64.6504 13.1377 129.399 19.7432 194.104
c3.08691 30.2383 6.1875 60.8955 4.99023 91.3223c-0.578125 14.6709 -1.35059 29.7246 -3.38086 44.2744c-0.638672 4.5752 -1.76562 8.24707 -2.95312 12.5664c-1.61914 5.88477 -1.90625 10.5908 -1.34082 15.457c-0.485352 4.92969 -1.39258 9.30078 -3.19922 13.7578z
" />
    <glyph glyph-name="A" unicode="&#xc4;" horiz-adv-x="710" 
d="M48.6533 461.225c-7.69727 -9.46973 -22.5986 2.16699 -14.9297 11.6689c16.085 19.9453 33.5049 41.1484 57.9482 50.9854c19.7666 7.95605 44.5771 8.11523 62.1855 -5.16309c20.7725 -15.667 25.5137 -44.5645 29.5146 -68.5713
c10.8174 -64.9375 4.94922 -131.816 -2.89844 -196.738c-16.2861 -134.734 -48.2266 -267.713 -52.7031 -403.76c-1.12109 -34.0186 -0.476562 -68.5264 6.48047 -101.971c2.05566 -9.8877 8.05176 -44.7363 24.7598 -34.2002
c10.0889 6.36328 12.6143 28.5723 15.1689 38.7002c16.3818 64.9346 29.0703 130.747 39.8457 196.828c21.5986 132.468 35.4395 266.044 55.873 398.681c9.75684 63.3408 19.8145 127.212 36.8896 189.065c8.3877 30.3916 18.7832 60.2725 32.7549 88.5762
c10.6865 21.6465 24.2139 44.0693 46.0527 55.9844c21.542 11.7559 40.6543 6.10742 62.582 -0.533203c12.0332 -3.64648 26.5859 -9.92676 34.041 -19.4512c7.57617 -9.68359 13.4287 -22.1611 18.2686 -33.4287c13.7354 -31.9727 18.7285 -68.9805 22.582 -103.351
c4.01367 -35.8066 6.03125 -70.2627 5.57812 -103.914c-1.82617 -135.836 -19.6543 -270.935 -37.1953 -405.465c-8.6875 -66.6172 -16.3281 -133.419 -23.292 -200.234c-3.46387 -33.208 -6.45508 -66.4512 -9.86816 -99.6621
c-1.75 -17.0303 -2.72656 -34.1367 -4.53711 -51.1543c-1.50977 -14.1885 -4.31641 -28.5498 -4.38965 -42.8535c-0.0605469 -11.4297 1.1084 -25.9375 5.54297 -36.5283c0.443359 -1.05957 1.13574 -2.76172 1.91797 -4.26562
c1.06934 -0.0478516 4.14355 -1.58984 4.37305 -1.59961c6.20703 -0.229492 9.96191 -2.65918 16.3662 0.379883c13.7578 6.52637 23.0938 24.5146 30.4688 36.9473c7.5127 12.6621 14.2051 25.8262 20.4561 39.1494c27.7871 59.2422 47.7705 122.411 67.1406 184.798
c39.3545 126.73 71.0303 255.865 118.124 380.103c5.60059 14.7695 28.1348 5.27441 22.5762 -9.38965c-51.0332 -134.629 -84.251 -274.887 -127.175 -412.118c-18.4287 -58.9229 -37.4795 -118.857 -65.6592 -173.975
c-11.7842 -23.0449 -25.0312 -51.4766 -44.9697 -68.5674c-19.0996 -16.376 -40.2871 -14.5117 -62.6426 -7.54785c-30.2168 9.41211 -48.8945 28.6357 -58.6387 59.0693c-9.96484 31.123 -14.6299 63.7051 -17.8135 96.1084
c-6.60547 67.2559 -4.36426 135.274 0.482422 202.597c8.09961 112.517 28.5908 223.89 43.8428 335.662c-43.0898 -2.12598 -86.0098 -8.30762 -127.845 -18.834c-16.0947 -119.675 -30.3887 -239.659 -53.3193 -358.268
c-6.54883 -33.8652 -13.7998 -67.5967 -21.9863 -101.104c-5.60352 -22.9307 -9.18555 -56.624 -31.0117 -70.877c-19.4629 -12.707 -39.8867 1.26758 -48.5107 19.5977c-12.876 27.3779 -14.6318 62.2051 -15.5732 91.9551
c-4.41895 139.505 29.9863 277.643 49.6885 414.877c9.93555 69.1904 19.083 140.501 11.0596 210.346c-3.29199 28.6426 -6.37012 77.5908 -43.8945 80.209c-32.4834 2.2666 -55.3467 -26.1709 -73.7119 -48.7627zM423.659 660.424
c-89.3652 36.4873 -133.111 -332.134 -140.196 -382.282c-1.6123 -11.4268 -3.18945 -22.8604 -4.75098 -34.2969c41.9814 11.3408 84.6016 18.3359 128.026 20.6152c1.05664 8.15723 2.08105 16.3184 3.06152 24.4824c7.76465 64.6504 13.1377 129.399 19.7432 194.104
c3.08691 30.2383 6.1875 60.8955 4.99023 91.3223c-0.578125 14.6709 -1.35059 29.7246 -3.38086 44.2744c-0.638672 4.5752 -1.76562 8.24707 -2.95312 12.5664c-1.61914 5.88477 -1.90625 10.5908 -1.34082 15.457c-0.485352 4.92969 -1.39258 9.30078 -3.19922 13.7578z
" />
    <glyph glyph-name="A" unicode="&#xc3;" horiz-adv-x="710" 
d="M48.6533 461.225c-7.69727 -9.46973 -22.5986 2.16699 -14.9297 11.6689c16.085 19.9453 33.5049 41.1484 57.9482 50.9854c19.7666 7.95605 44.5771 8.11523 62.1855 -5.16309c20.7725 -15.667 25.5137 -44.5645 29.5146 -68.5713
c10.8174 -64.9375 4.94922 -131.816 -2.89844 -196.738c-16.2861 -134.734 -48.2266 -267.713 -52.7031 -403.76c-1.12109 -34.0186 -0.476562 -68.5264 6.48047 -101.971c2.05566 -9.8877 8.05176 -44.7363 24.7598 -34.2002
c10.0889 6.36328 12.6143 28.5723 15.1689 38.7002c16.3818 64.9346 29.0703 130.747 39.8457 196.828c21.5986 132.468 35.4395 266.044 55.873 398.681c9.75684 63.3408 19.8145 127.212 36.8896 189.065c8.3877 30.3916 18.7832 60.2725 32.7549 88.5762
c10.6865 21.6465 24.2139 44.0693 46.0527 55.9844c21.542 11.7559 40.6543 6.10742 62.582 -0.533203c12.0332 -3.64648 26.5859 -9.92676 34.041 -19.4512c7.57617 -9.68359 13.4287 -22.1611 18.2686 -33.4287c13.7354 -31.9727 18.7285 -68.9805 22.582 -103.351
c4.01367 -35.8066 6.03125 -70.2627 5.57812 -103.914c-1.82617 -135.836 -19.6543 -270.935 -37.1953 -405.465c-8.6875 -66.6172 -16.3281 -133.419 -23.292 -200.234c-3.46387 -33.208 -6.45508 -66.4512 -9.86816 -99.6621
c-1.75 -17.0303 -2.72656 -34.1367 -4.53711 -51.1543c-1.50977 -14.1885 -4.31641 -28.5498 -4.38965 -42.8535c-0.0605469 -11.4297 1.1084 -25.9375 5.54297 -36.5283c0.443359 -1.05957 1.13574 -2.76172 1.91797 -4.26562
c1.06934 -0.0478516 4.14355 -1.58984 4.37305 -1.59961c6.20703 -0.229492 9.96191 -2.65918 16.3662 0.379883c13.7578 6.52637 23.0938 24.5146 30.4688 36.9473c7.5127 12.6621 14.2051 25.8262 20.4561 39.1494c27.7871 59.2422 47.7705 122.411 67.1406 184.798
c39.3545 126.73 71.0303 255.865 118.124 380.103c5.60059 14.7695 28.1348 5.27441 22.5762 -9.38965c-51.0332 -134.629 -84.251 -274.887 -127.175 -412.118c-18.4287 -58.9229 -37.4795 -118.857 -65.6592 -173.975
c-11.7842 -23.0449 -25.0312 -51.4766 -44.9697 -68.5674c-19.0996 -16.376 -40.2871 -14.5117 -62.6426 -7.54785c-30.2168 9.41211 -48.8945 28.6357 -58.6387 59.0693c-9.96484 31.123 -14.6299 63.7051 -17.8135 96.1084
c-6.60547 67.2559 -4.36426 135.274 0.482422 202.597c8.09961 112.517 28.5908 223.89 43.8428 335.662c-43.0898 -2.12598 -86.0098 -8.30762 -127.845 -18.834c-16.0947 -119.675 -30.3887 -239.659 -53.3193 -358.268
c-6.54883 -33.8652 -13.7998 -67.5967 -21.9863 -101.104c-5.60352 -22.9307 -9.18555 -56.624 -31.0117 -70.877c-19.4629 -12.707 -39.8867 1.26758 -48.5107 19.5977c-12.876 27.3779 -14.6318 62.2051 -15.5732 91.9551
c-4.41895 139.505 29.9863 277.643 49.6885 414.877c9.93555 69.1904 19.083 140.501 11.0596 210.346c-3.29199 28.6426 -6.37012 77.5908 -43.8945 80.209c-32.4834 2.2666 -55.3467 -26.1709 -73.7119 -48.7627zM423.659 660.424
c-89.3652 36.4873 -133.111 -332.134 -140.196 -382.282c-1.6123 -11.4268 -3.18945 -22.8604 -4.75098 -34.2969c41.9814 11.3408 84.6016 18.3359 128.026 20.6152c1.05664 8.15723 2.08105 16.3184 3.06152 24.4824c7.76465 64.6504 13.1377 129.399 19.7432 194.104
c3.08691 30.2383 6.1875 60.8955 4.99023 91.3223c-0.578125 14.6709 -1.35059 29.7246 -3.38086 44.2744c-0.638672 4.5752 -1.76562 8.24707 -2.95312 12.5664c-1.61914 5.88477 -1.90625 10.5908 -1.34082 15.457c-0.485352 4.92969 -1.39258 9.30078 -3.19922 13.7578z
" />
    <glyph glyph-name="A" unicode="&#xc2;" horiz-adv-x="710" 
d="M48.6533 461.225c-7.69727 -9.46973 -22.5986 2.16699 -14.9297 11.6689c16.085 19.9453 33.5049 41.1484 57.9482 50.9854c19.7666 7.95605 44.5771 8.11523 62.1855 -5.16309c20.7725 -15.667 25.5137 -44.5645 29.5146 -68.5713
c10.8174 -64.9375 4.94922 -131.816 -2.89844 -196.738c-16.2861 -134.734 -48.2266 -267.713 -52.7031 -403.76c-1.12109 -34.0186 -0.476562 -68.5264 6.48047 -101.971c2.05566 -9.8877 8.05176 -44.7363 24.7598 -34.2002
c10.0889 6.36328 12.6143 28.5723 15.1689 38.7002c16.3818 64.9346 29.0703 130.747 39.8457 196.828c21.5986 132.468 35.4395 266.044 55.873 398.681c9.75684 63.3408 19.8145 127.212 36.8896 189.065c8.3877 30.3916 18.7832 60.2725 32.7549 88.5762
c10.6865 21.6465 24.2139 44.0693 46.0527 55.9844c21.542 11.7559 40.6543 6.10742 62.582 -0.533203c12.0332 -3.64648 26.5859 -9.92676 34.041 -19.4512c7.57617 -9.68359 13.4287 -22.1611 18.2686 -33.4287c13.7354 -31.9727 18.7285 -68.9805 22.582 -103.351
c4.01367 -35.8066 6.03125 -70.2627 5.57812 -103.914c-1.82617 -135.836 -19.6543 -270.935 -37.1953 -405.465c-8.6875 -66.6172 -16.3281 -133.419 -23.292 -200.234c-3.46387 -33.208 -6.45508 -66.4512 -9.86816 -99.6621
c-1.75 -17.0303 -2.72656 -34.1367 -4.53711 -51.1543c-1.50977 -14.1885 -4.31641 -28.5498 -4.38965 -42.8535c-0.0605469 -11.4297 1.1084 -25.9375 5.54297 -36.5283c0.443359 -1.05957 1.13574 -2.76172 1.91797 -4.26562
c1.06934 -0.0478516 4.14355 -1.58984 4.37305 -1.59961c6.20703 -0.229492 9.96191 -2.65918 16.3662 0.379883c13.7578 6.52637 23.0938 24.5146 30.4688 36.9473c7.5127 12.6621 14.2051 25.8262 20.4561 39.1494c27.7871 59.2422 47.7705 122.411 67.1406 184.798
c39.3545 126.73 71.0303 255.865 118.124 380.103c5.60059 14.7695 28.1348 5.27441 22.5762 -9.38965c-51.0332 -134.629 -84.251 -274.887 -127.175 -412.118c-18.4287 -58.9229 -37.4795 -118.857 -65.6592 -173.975
c-11.7842 -23.0449 -25.0312 -51.4766 -44.9697 -68.5674c-19.0996 -16.376 -40.2871 -14.5117 -62.6426 -7.54785c-30.2168 9.41211 -48.8945 28.6357 -58.6387 59.0693c-9.96484 31.123 -14.6299 63.7051 -17.8135 96.1084
c-6.60547 67.2559 -4.36426 135.274 0.482422 202.597c8.09961 112.517 28.5908 223.89 43.8428 335.662c-43.0898 -2.12598 -86.0098 -8.30762 -127.845 -18.834c-16.0947 -119.675 -30.3887 -239.659 -53.3193 -358.268
c-6.54883 -33.8652 -13.7998 -67.5967 -21.9863 -101.104c-5.60352 -22.9307 -9.18555 -56.624 -31.0117 -70.877c-19.4629 -12.707 -39.8867 1.26758 -48.5107 19.5977c-12.876 27.3779 -14.6318 62.2051 -15.5732 91.9551
c-4.41895 139.505 29.9863 277.643 49.6885 414.877c9.93555 69.1904 19.083 140.501 11.0596 210.346c-3.29199 28.6426 -6.37012 77.5908 -43.8945 80.209c-32.4834 2.2666 -55.3467 -26.1709 -73.7119 -48.7627zM423.659 660.424
c-89.3652 36.4873 -133.111 -332.134 -140.196 -382.282c-1.6123 -11.4268 -3.18945 -22.8604 -4.75098 -34.2969c41.9814 11.3408 84.6016 18.3359 128.026 20.6152c1.05664 8.15723 2.08105 16.3184 3.06152 24.4824c7.76465 64.6504 13.1377 129.399 19.7432 194.104
c3.08691 30.2383 6.1875 60.8955 4.99023 91.3223c-0.578125 14.6709 -1.35059 29.7246 -3.38086 44.2744c-0.638672 4.5752 -1.76562 8.24707 -2.95312 12.5664c-1.61914 5.88477 -1.90625 10.5908 -1.34082 15.457c-0.485352 4.92969 -1.39258 9.30078 -3.19922 13.7578z
" />
    <glyph glyph-name="A" unicode="&#xc1;" horiz-adv-x="710" 
d="M48.6533 461.225c-7.69727 -9.46973 -22.5986 2.16699 -14.9297 11.6689c16.085 19.9453 33.5049 41.1484 57.9482 50.9854c19.7666 7.95605 44.5771 8.11523 62.1855 -5.16309c20.7725 -15.667 25.5137 -44.5645 29.5146 -68.5713
c10.8174 -64.9375 4.94922 -131.816 -2.89844 -196.738c-16.2861 -134.734 -48.2266 -267.713 -52.7031 -403.76c-1.12109 -34.0186 -0.476562 -68.5264 6.48047 -101.971c2.05566 -9.8877 8.05176 -44.7363 24.7598 -34.2002
c10.0889 6.36328 12.6143 28.5723 15.1689 38.7002c16.3818 64.9346 29.0703 130.747 39.8457 196.828c21.5986 132.468 35.4395 266.044 55.873 398.681c9.75684 63.3408 19.8145 127.212 36.8896 189.065c8.3877 30.3916 18.7832 60.2725 32.7549 88.5762
c10.6865 21.6465 24.2139 44.0693 46.0527 55.9844c21.542 11.7559 40.6543 6.10742 62.582 -0.533203c12.0332 -3.64648 26.5859 -9.92676 34.041 -19.4512c7.57617 -9.68359 13.4287 -22.1611 18.2686 -33.4287c13.7354 -31.9727 18.7285 -68.9805 22.582 -103.351
c4.01367 -35.8066 6.03125 -70.2627 5.57812 -103.914c-1.82617 -135.836 -19.6543 -270.935 -37.1953 -405.465c-8.6875 -66.6172 -16.3281 -133.419 -23.292 -200.234c-3.46387 -33.208 -6.45508 -66.4512 -9.86816 -99.6621
c-1.75 -17.0303 -2.72656 -34.1367 -4.53711 -51.1543c-1.50977 -14.1885 -4.31641 -28.5498 -4.38965 -42.8535c-0.0605469 -11.4297 1.1084 -25.9375 5.54297 -36.5283c0.443359 -1.05957 1.13574 -2.76172 1.91797 -4.26562
c1.06934 -0.0478516 4.14355 -1.58984 4.37305 -1.59961c6.20703 -0.229492 9.96191 -2.65918 16.3662 0.379883c13.7578 6.52637 23.0938 24.5146 30.4688 36.9473c7.5127 12.6621 14.2051 25.8262 20.4561 39.1494c27.7871 59.2422 47.7705 122.411 67.1406 184.798
c39.3545 126.73 71.0303 255.865 118.124 380.103c5.60059 14.7695 28.1348 5.27441 22.5762 -9.38965c-51.0332 -134.629 -84.251 -274.887 -127.175 -412.118c-18.4287 -58.9229 -37.4795 -118.857 -65.6592 -173.975
c-11.7842 -23.0449 -25.0312 -51.4766 -44.9697 -68.5674c-19.0996 -16.376 -40.2871 -14.5117 -62.6426 -7.54785c-30.2168 9.41211 -48.8945 28.6357 -58.6387 59.0693c-9.96484 31.123 -14.6299 63.7051 -17.8135 96.1084
c-6.60547 67.2559 -4.36426 135.274 0.482422 202.597c8.09961 112.517 28.5908 223.89 43.8428 335.662c-43.0898 -2.12598 -86.0098 -8.30762 -127.845 -18.834c-16.0947 -119.675 -30.3887 -239.659 -53.3193 -358.268
c-6.54883 -33.8652 -13.7998 -67.5967 -21.9863 -101.104c-5.60352 -22.9307 -9.18555 -56.624 -31.0117 -70.877c-19.4629 -12.707 -39.8867 1.26758 -48.5107 19.5977c-12.876 27.3779 -14.6318 62.2051 -15.5732 91.9551
c-4.41895 139.505 29.9863 277.643 49.6885 414.877c9.93555 69.1904 19.083 140.501 11.0596 210.346c-3.29199 28.6426 -6.37012 77.5908 -43.8945 80.209c-32.4834 2.2666 -55.3467 -26.1709 -73.7119 -48.7627zM423.659 660.424
c-89.3652 36.4873 -133.111 -332.134 -140.196 -382.282c-1.6123 -11.4268 -3.18945 -22.8604 -4.75098 -34.2969c41.9814 11.3408 84.6016 18.3359 128.026 20.6152c1.05664 8.15723 2.08105 16.3184 3.06152 24.4824c7.76465 64.6504 13.1377 129.399 19.7432 194.104
c3.08691 30.2383 6.1875 60.8955 4.99023 91.3223c-0.578125 14.6709 -1.35059 29.7246 -3.38086 44.2744c-0.638672 4.5752 -1.76562 8.24707 -2.95312 12.5664c-1.61914 5.88477 -1.90625 10.5908 -1.34082 15.457c-0.485352 4.92969 -1.39258 9.30078 -3.19922 13.7578z
" />
    <glyph glyph-name="B" unicode="B" horiz-adv-x="650" 
d="M125.77 556.129c21.7842 7.12012 46.0322 7.89355 66.2646 -4.06348c21.2061 -12.5381 36.71 -35.8643 47.1787 -57.5723c28.3291 -58.7471 28.2842 -129.294 29.4971 -193.06c0.178711 -9.36426 0.277344 -18.7412 0.415039 -28.1152
c16.2412 78.9248 35.5029 159.715 69.8408 232.442c26.2031 55.5029 85.7324 152.301 156.896 100.204c34.498 -25.2549 39.3066 -73.9062 33.5752 -112.887c-5.99316 -40.7656 -16.8232 -80.1328 -30.7246 -118.899c-18.1445 -50.5957 -41.6182 -99.4131 -69.4561 -145.552
c2.91504 -1.32227 5.79492 -2.70117 8.59863 -4.19531c37.4355 -19.9297 64.127 -50.8291 83.4141 -87.7119c41.1582 26.9053 83.3154 52.3262 125.875 76.7734c13.7607 7.90234 28.7822 -12.043 14.8711 -20.0342c-44.0029 -25.2773 -87.5713 -51.6436 -130.01 -79.6797
c14.0928 -33.9873 22.1963 -71.1699 28.4639 -107.079c7.61523 -43.6289 9.82812 -87.8428 8.2793 -132.075c-4.84375 -138.464 -73.8232 -274.124 -184.273 -358.285c-28.4219 -21.6562 -60.1895 -38.8906 -95.4629 -46.0684
c-32.2881 -6.57031 -68.5703 -10.1396 -98.0908 7.51953c-52.792 31.5859 -80.0645 89.7646 -77.75 150.383c2.55762 66.9648 34.0322 133.138 68.8936 189.056c4.93555 7.91211 10.0635 15.6934 15.3408 23.3691c-21.7334 3.96582 -41.7012 21.8457 -43.2402 44.9453
c-4.62988 69.4199 3.58789 140.152 8.30078 209.419c7.85742 115.495 25.6953 230.367 31.2412 345.958c1.11426 23.2051 6.88086 50.8896 0.632812 73.7432c-7.57324 27.7129 -43.3486 27.2373 -65.0117 19.4561c-46.6045 -16.7393 -79.0205 -64.4648 -89.4316 -111.271
c-2.69824 -12.1289 -21.8164 -9.71191 -19.2842 2.60547c11.3984 55.4326 49.21 112.392 105.157 130.674zM444.63 34.2305c-1.35352 4.875 -2.7959 9.72559 -4.2998 14.5566c-38.0576 -29.0479 -74.6885 -59.9248 -109.234 -93.2129
c-26.5576 -25.5898 -51.9658 -52.626 -75.3623 -81.2559c-3.93066 -10.543 -10.916 -19.3682 -19.8555 -25.4668c-7.29883 -9.74707 -14.415 -19.6289 -21.1836 -29.7432c-33.8818 -50.624 -64.6602 -110.15 -71.6299 -171.426
c-3.22461 -28.3486 -0.951172 -59.7686 13.0908 -85.2725c6.77832 -12.3086 16.6572 -23.2344 27.9658 -31.5039c10.2012 -7.46191 20.7051 -8.375 32.9521 -9.94629c28.502 -3.65527 52.6074 -0.0634766 76.876 15.9863c22.5791 14.9326 42.9873 33.3711 60.8223 53.6836
c37.6074 42.8311 61.8535 86.4414 80.1895 140.757c8.4668 25.082 13.5596 44.2734 18.7734 75.1348c5.08301 30.0889 8.53125 66.0713 8.39355 93.4395c-0.140625 27.5791 -3.52539 63.2744 -8.83496 93.5801c-1.53906 8.78027 -3.28516 17.5225 -5.21387 26.2256
c-0.855469 3.86621 -1.74316 7.72656 -2.68164 11.5742c-0.111328 0.459961 -0.197266 0.814453 -0.280273 1.16211c-0.124023 0.421875 -0.270508 0.948242 -0.487305 1.72754zM364.364 135.624c2.38477 -0.15625 8.58203 0.980469 0 0zM334.145 425.689
c-25.7812 -78.2422 -42.7998 -159.093 -57.6777 -240.017c-2.29199 -12.4678 -4.60352 -24.9424 -6.89551 -37.4297c-0.168945 -19.3799 -0.433594 -38.75 -0.851562 -58.1016c-1.19434 -55.1514 -0.0224609 -111.791 -5.3252 -167.118
c15.542 17.04 31.6973 33.5303 48.252 49.5322c37.7197 36.4609 77.8975 70.0332 119.751 101.418c-2.7207 6.69238 -5.66797 13.3496 -9.07422 19.7227c0.922852 -2.12305 -7.1709 10.5967 -8.13867 11.9053c-1.54883 2.09766 -3.16406 4.14453 -4.81836 6.16211
c-0.478516 0.587891 -2.49316 2.79102 -3.86328 4.33008c-1.38574 1.24219 -3.13184 2.83887 -3.64551 3.2666c-2.50977 2.08789 -5.0957 4.05176 -7.75488 5.94531c-2.35938 1.68262 -5.21387 3.20898 -5.50488 3.37793
c-1.77246 0.865234 -3.55371 1.71484 -5.37988 2.48145c-1.68945 0.711914 -3.3877 1.33496 -5.08984 1.94434c0.648438 -0.208008 -0.456055 0.232422 -1.84766 0.666992c-0.72168 0.258789 -1.44043 0.510742 -2.16211 0.782227
c0.737305 -0.274414 1.3252 -0.491211 1.84863 -0.682617c-0.849609 0.258789 -1.75293 0.492188 -2.38867 0.55957c-3.08105 0.322266 -6.20312 0.800781 -9.27441 1.18066c-0.236328 -0.0283203 -0.43457 -0.0507812 -0.69043 -0.0791016
c-2.41992 -0.28418 -4.78613 -0.600586 -7.1709 -0.980469c-0.71875 -0.233398 -1.6123 -0.524414 -2.75879 -0.894531c-23.3457 -7.53809 -46.7041 -1.49414 -62.3486 17.71c-13.668 16.7783 -14.4502 48.3164 0.804688 64.4238
c55.4004 58.501 100.731 123.167 134.505 194.226c15.3926 32.3877 29.249 65.9561 41.5986 99.6113c6.4082 17.4678 15.7568 36.2285 13.9688 55.3086c-1.57715 16.8359 -11.5195 32.3076 -30.1494 31.3662c-34.1406 -1.72363 -60.9854 -46.8086 -76.1094 -72.8652
c-17.8252 -30.708 -30.7236 -64.1104 -41.8086 -97.7529z" />
    <glyph glyph-name="C" unicode="C" horiz-adv-x="592" 
d="M156.236 -154.491c-18.208 106.268 -18.8184 217.393 -8.32715 324.475c4.99023 50.9219 12.876 102.322 25.1006 152.57c-1.17773 0.303711 -2.35547 0.572266 -3.53027 0.901367c-85.5537 23.9844 -137.883 113.724 -116.715 200.053
c9.24609 37.707 33.1699 77.4824 72.1377 89.9502c33.6201 10.7568 73.9385 -4.00293 86.2529 -38.5742c5.58398 -15.6826 -18.1865 -25.2832 -24.1094 -9.59082c-6.85156 18.1543 -26.5762 26.9922 -45.3047 24.5781
c-19.0254 -2.45215 -34.4785 -16.3887 -45.0244 -31.6055c-25.7725 -37.1797 -28.0938 -88.8613 -10.6934 -129.879c15.7754 -37.1826 48.667 -65.873 87.0088 -78.0215c2.22168 -0.702148 4.46289 -1.30273 6.70703 -1.88379
c12.1328 43.8496 27.832 86.5879 48.1826 127.078c23.2373 46.2285 52.5244 92.041 92.7598 125.393c35.1777 29.1592 87.1562 50.9082 128.292 19.1885c33.6387 -25.9385 29.7344 -73.7656 19.3574 -110.074c-11.4111 -39.9219 -33.7891 -76.6543 -62.7441 -106.296
c-30.3154 -31.0332 -69.8994 -57.7822 -112.743 -73.1045c-0.226562 -0.970703 -0.46875 -1.93848 -0.692383 -2.90918c-4.46387 -19.3418 -8.32031 -38.8242 -12.3428 -58.2588c-17.8701 -86.3193 -23.623 -173.089 -25.708 -260.998
c-0.0478516 -5.64844 -0.0761719 -7.35059 -0.0830078 -5.2207c-0.00683594 -3.43848 -0.00683594 -6.87988 0.0126953 -10.3184c0.0283203 -5.99902 0.0986328 -11.998 0.201172 -17.9971c0.172852 -9.99609 0.444336 -19.9863 0.814453 -29.9766
c0.737305 -19.9678 2.01074 -39.8906 3.3584 -59.8232c3.00391 -44.415 5.39844 -88.6064 12.3203 -132.654c3.36523 -21.4268 6.37305 -44.3057 12.123 -65.2441c2.82227 -10.2773 5.08301 -24.2168 16.6758 -28.5527c36.9248 -13.8057 70.6982 37.4795 88.1367 61.7793
c50.165 69.9053 87.1689 151.327 120.54 230.31c34.2676 81.1123 62.4883 164.772 84.6553 249.984c3.03027 11.6533 21.7363 9.33203 18.7891 -2.53906c-5.91309 -23.8242 -12.2188 -47.5498 -19.0195 -71.1348c-29.2773 -101.559 -67.3643 -200.64 -113.573 -295.698
c-21.5479 -44.3252 -44.2002 -88.7363 -72.667 -129.096c-13.0684 -18.5273 -27.2344 -36.8154 -44.29 -51.8721c-16.6475 -14.6895 -32.9404 -29.3857 -55.2578 -34.2803c-48.9482 -10.7344 -83.0918 31.6084 -104.433 69.1104
c-27.4004 48.1504 -36.915 106.239 -46.168 160.232zM307.653 386.936c-1.5293 -5.5459 -5.45898 -19.7559 -6.0498 -21.7637c-0.204102 -0.686523 -0.379883 -1.28711 -0.545898 -1.85254c1.64453 0.711914 3.29492 1.41406 4.91406 2.15137
c63.0088 28.7129 115.159 84.0625 134.204 151.306c4.68652 16.5479 10.6191 40.1748 2.73926 56.5186c-6.16797 12.7998 -20.0312 14.751 -32.0938 8.52148c-16.4014 -8.4707 -27.7832 -27.7422 -37.3359 -42.582c-9.7666 -15.1719 -16.3535 -25.1846 -24.1025 -40.8613
c-17.6211 -35.6572 -31.0977 -73.1533 -41.7295 -111.438z" />
    <glyph glyph-name="D" unicode="D" horiz-adv-x="693" 
d="M39.8945 422.851c-2.69824 -12.1289 -21.8174 -9.71289 -19.2822 2.60156c11.3984 55.4326 49.21 112.392 105.157 130.674c21.7842 7.12012 46.0303 7.89258 66.2598 -4.06738c21.2061 -12.5381 36.71 -35.8643 47.1787 -57.5723
c28.3291 -58.7471 28.2842 -129.294 29.4971 -193.06c0.0283203 -1.48145 0.0380859 -2.96973 0.0664062 -4.45117c0.887695 4.90723 1.77246 9.82129 2.69531 14.7188c19.5205 103.532 42.4062 215.289 100.042 305.2c21.9473 34.2363 58.5938 77.1084 104.353 58.8965
c43.374 -17.2598 64.0469 -66.7764 80.9209 -106.715c43.6582 -103.292 55.2891 -215.872 52.0039 -327.172c-0.664062 -22.4707 -1.77832 -44.9697 -3.33594 -67.46c28.834 7.33105 58.1182 12.9951 87.7188 16.8838c12.123 1.59277 14.415 -17.2061 2.31152 -18.8154
c-22.0137 -2.9248 -43.8877 -6.71094 -65.5635 -11.5635c-8.6875 -1.94727 -17.3369 -4.10547 -25.9609 -6.37207c-6.61523 -81.0166 -19.4346 -161.707 -40.4209 -240.045c-14.7949 -55.2217 -32.3643 -109.744 -55.7383 -161.99
c-20.9258 -46.7803 -49.0762 -94.5986 -89.5508 -127.168c-38.1152 -30.6699 -83.6377 -46.2666 -132.48 -44.4336c-41.4258 1.55469 -87.29 19.4912 -110.402 55.5439c-42.6357 66.5049 -33.2842 146.395 -3.00098 215.719
c-10.1182 8.20215 -17.3018 19.875 -18.1992 33.3418c-4.62988 69.4199 3.58789 140.152 8.30078 209.419c7.85742 115.495 25.6953 230.367 31.2412 345.958c1.11426 23.2051 6.88086 50.8896 0.632812 73.7432c-7.57324 27.7129 -43.3486 27.2373 -65.0117 19.4561
c-46.6045 -16.7393 -79.0205 -64.4648 -89.4316 -111.271zM492.704 27.4795c6.43945 31.4746 11.9111 63.2031 16.458 95.0801c-46.4102 -19.3135 -90.8535 -43.3965 -131.941 -71.9561c-39.4404 -27.4131 -78.4971 -59.3252 -111.479 -96.0898
c-0.875 -15.3477 -2.10449 -30.6348 -3.89258 -45.8066c0.0703125 -7.29883 0.168945 -14.6006 0.302734 -21.8994c0.0830078 -4.44727 -2.27637 -7.64355 -5.37695 -9.38965c-6.81641 -22.2441 -26.8955 -37.793 -50.6914 -37.665
c-3.70703 0.0195312 -7.41699 0.520508 -11.0693 1.36328c-23.4121 -65.4102 -34.252 -175.554 51.2754 -191.173c15.9961 -2.9209 32.6045 -2.17383 48.3477 2.02441c15.4912 4.13184 27.0137 10.3672 39.5771 19.5527c15.874 11.6055 24.833 21.7773 38.8076 39.2773
c14.8848 18.6396 20.7207 28.876 29.8906 46.7588c44.0479 85.8818 70.7266 176.735 89.791 269.923zM278.211 199.367c-3.70996 -28.374 -6.71777 -56.8408 -9.11914 -85.3682c-0.12793 -7.9502 -0.201172 -15.9102 -0.374023 -23.8574
c-0.734375 -33.9805 -0.571289 -68.5293 -1.58008 -102.985c43.7891 43.5625 95.2344 80.0811 148.039 110.313c31.2188 17.873 63.6191 33.4473 96.916 46.6846c7.54102 58.4023 11.9756 117.245 13.333 175.96c1.09473 47.4092 -1.25488 95.4863 -6.05664 142.656
c-4.76074 46.752 -10.9961 94.1455 -23.7158 139.492c-4.70312 16.7617 -12.1514 42.1221 -29.7471 49.5928c-22.4004 9.51172 -43.9639 -10.418 -56.9326 -26.4043c-29.5586 -36.4355 -49.0918 -80.7959 -64.3535 -124.809
c-33.5654 -96.8018 -53.1436 -199.88 -66.4092 -301.275z" />
    <glyph glyph-name="E" unicode="E" horiz-adv-x="602" 
d="M165.423 -204.113c-16.7461 87.6865 -0.450195 172.537 45.417 248.554c9.71875 16.1074 21.3057 32.0713 34.332 46.6973c-6.58984 11.877 -12.6436 24.0186 -18.2881 35.998c-27.9463 59.3057 -41.7842 123.455 -40.8711 188.875
c0.015625 1.25488 0.0957031 2.5 0.12793 3.75195c-54.6025 9.64551 -102.736 47.5146 -124.523 98.6689c-23.2402 54.5645 -16.0977 126.846 26.1807 170.545c17.5762 18.167 41.4004 30.1211 67.1182 27.8604c25.1777 -2.21289 48.2842 -17.8672 56.8662 -41.9473
c5.58691 -15.6826 -18.1895 -25.2832 -24.1084 -9.59082c-9.4248 24.9766 -40.7041 30.4102 -62.6191 18.9062c-25.2422 -13.25 -40.3564 -42.5977 -46.1611 -69.4355c-12.5225 -57.8975 11.7197 -117.123 61.6445 -149.048
c15.0088 -9.59766 30.9531 -15.7568 47.332 -19.1094c2.69824 25.8291 8.24707 51.1602 16.376 76.1211c4.92676 15.127 10.8877 29.9219 17.7295 44.2832c9.41895 19.7666 17.7842 34.0859 27.2285 48.6895c19.2871 29.833 42.6162 56.9619 69.7295 79.9238
c24.6543 20.8838 53.6602 38.1787 87.1328 36.5342c29.2939 -1.43945 54.5645 -17.9521 65.2031 -45.4639c10.0254 -25.9316 4.09277 -55.375 -3.70703 -81.0508c-16.5576 -54.501 -53.8301 -101.646 -99.4385 -135.055
c-20.6025 -15.0918 -43.8652 -28.0479 -68.459 -37.4346c-0.185547 -3.11914 -0.361328 -6.24805 -0.537109 -9.37988c0.0576172 -2.81934 0.0996094 -5.63574 0.208008 -8.45508c0.223633 -5.71777 0.59082 -11.4326 1.08594 -17.1348
c1.08203 -12.5029 2.72266 -25.0186 4.70215 -37.4092c0.830078 -5.20117 1.7627 -10.3828 2.80664 -15.542c0.191406 -0.948242 0.883789 -4.25 1.49316 -7.15234c-0.111328 0.868164 1.8584 -7.44531 1.97656 -7.86035
c0.568359 -1.99512 1.15234 -3.9873 1.74902 -5.97363c1.36035 -4.52441 2.79102 -9.0293 4.30469 -13.502c3.03906 -8.99414 6.39453 -17.8799 10.041 -26.6475c4.6709 -11.2285 11.9219 -22.3652 16.9668 -33.6963c0.150391 -0.996094 1.21973 -4.2627 2.79688 -7.04395
c0.133789 -0.392578 0.302734 -0.785156 0.430664 -1.18066c-0.118164 0.364258 -0.213867 0.651367 -0.325195 0.990234c0.0478516 -0.0830078 0.0927734 -0.172852 0.143555 -0.255859c1.34766 -2.24805 2.71387 -4.4834 4.10938 -6.69922
c2.25684 -3.58594 4.56836 -7.13965 6.96582 -10.6328c2.21875 -3.23438 4.46973 -6.46875 6.90234 -9.5498c18.7832 -23.7666 12.9121 -62.6641 -11.832 -80.0068c-2.20605 -1.54492 -4.31055 -3.24023 -6.40137 -4.93848
c-2.34668 -1.90625 -4.64258 -3.87598 -6.90332 -5.88379c-0.661133 -0.587891 -1.45312 -1.36719 -2.27051 -2.2002c-15.5039 -17.6016 -30.165 -34.791 -43.0674 -54.6152c-1.57129 -2.95605 -3.19336 -5.88086 -4.71289 -8.86914
c-3.43555 -6.75586 -6.60645 -13.6455 -9.50586 -20.6504c-2.54102 -6.14648 -4.875 -12.3818 -6.98535 -18.6875c-1.31543 -3.93066 -2.4873 -7.89258 -3.6875 -11.8584c3.96582 13.0938 -0.0859375 -0.820312 -0.59082 -3.06445
c-8.87891 -39.4688 -10.7686 -71.3418 -6.55371 -109.284c2.60254 -23.4219 7.01855 -46.3428 10.7734 -69.5283c2.8418 -17.5566 4.91113 -36.3271 10.8877 -53.1787c6.18457 -17.4355 23.0615 -20.8164 39.6797 -15.4785c20.3311 6.5293 35.918 26.6338 48.8232 42.6357
c55.4521 68.7725 93.6982 153.482 128.704 234.017c37.4609 86.1885 67.9902 175.397 91.6357 266.34c3.03027 11.6533 21.7363 9.3291 18.7891 -2.53809c-27.835 -112.104 -65.7168 -221.523 -113.691 -326.616c-20.833 -45.6377 -43.0449 -90.9463 -68.8232 -134.02
c-24.0225 -40.1367 -51.1484 -76.3555 -89.2705 -103.842c-17.123 -12.3467 -37.4385 -20.2998 -58.8359 -16.4014c-21.5801 3.93066 -39.1465 18.7607 -53.4727 34.5488c-35.1299 38.7188 -53.1406 93.6602 -62.751 143.972zM337.918 22.8408
c-4.40625 -4.52051 -9.4375 -10.6318 0 0zM317.837 432.903c-7.78711 -22.1318 -11.6836 -41.0869 -15.4961 -69.7871l-0.00878906 -0.0966797c42.1924 19.1406 79.9883 50.3467 104.694 84.4932c13.8057 19.0859 24.5625 40.1484 31.8135 62.5713
c6.10156 18.8594 14.5527 48.8652 3.85742 67.6104c-14.0732 24.6611 -41.209 2.78125 -52.4795 -11.4453c-15.2617 -19.2686 -29.5684 -42.6426 -39.8398 -60.7617c-13.0361 -23.001 -23.7705 -47.6582 -32.541 -72.584z" />
    <glyph glyph-name="E" unicode="&#xcb;" horiz-adv-x="602" 
d="M165.423 -204.113c-16.7461 87.6865 -0.450195 172.537 45.417 248.554c9.71875 16.1074 21.3057 32.0713 34.332 46.6973c-6.58984 11.877 -12.6436 24.0186 -18.2881 35.998c-27.9463 59.3057 -41.7842 123.455 -40.8711 188.875
c0.015625 1.25488 0.0957031 2.5 0.12793 3.75195c-54.6025 9.64551 -102.736 47.5146 -124.523 98.6689c-23.2402 54.5645 -16.0977 126.846 26.1807 170.545c17.5762 18.167 41.4004 30.1211 67.1182 27.8604c25.1777 -2.21289 48.2842 -17.8672 56.8662 -41.9473
c5.58691 -15.6826 -18.1895 -25.2832 -24.1084 -9.59082c-9.4248 24.9766 -40.7041 30.4102 -62.6191 18.9062c-25.2422 -13.25 -40.3564 -42.5977 -46.1611 -69.4355c-12.5225 -57.8975 11.7197 -117.123 61.6445 -149.048
c15.0088 -9.59766 30.9531 -15.7568 47.332 -19.1094c2.69824 25.8291 8.24707 51.1602 16.376 76.1211c4.92676 15.127 10.8877 29.9219 17.7295 44.2832c9.41895 19.7666 17.7842 34.0859 27.2285 48.6895c19.2871 29.833 42.6162 56.9619 69.7295 79.9238
c24.6543 20.8838 53.6602 38.1787 87.1328 36.5342c29.2939 -1.43945 54.5645 -17.9521 65.2031 -45.4639c10.0254 -25.9316 4.09277 -55.375 -3.70703 -81.0508c-16.5576 -54.501 -53.8301 -101.646 -99.4385 -135.055
c-20.6025 -15.0918 -43.8652 -28.0479 -68.459 -37.4346c-0.185547 -3.11914 -0.361328 -6.24805 -0.537109 -9.37988c0.0576172 -2.81934 0.0996094 -5.63574 0.208008 -8.45508c0.223633 -5.71777 0.59082 -11.4326 1.08594 -17.1348
c1.08203 -12.5029 2.72266 -25.0186 4.70215 -37.4092c0.830078 -5.20117 1.7627 -10.3828 2.80664 -15.542c0.191406 -0.948242 0.883789 -4.25 1.49316 -7.15234c-0.111328 0.868164 1.8584 -7.44531 1.97656 -7.86035
c0.568359 -1.99512 1.15234 -3.9873 1.74902 -5.97363c1.36035 -4.52441 2.79102 -9.0293 4.30469 -13.502c3.03906 -8.99414 6.39453 -17.8799 10.041 -26.6475c4.6709 -11.2285 11.9219 -22.3652 16.9668 -33.6963c0.150391 -0.996094 1.21973 -4.2627 2.79688 -7.04395
c0.133789 -0.392578 0.302734 -0.785156 0.430664 -1.18066c-0.118164 0.364258 -0.213867 0.651367 -0.325195 0.990234c0.0478516 -0.0830078 0.0927734 -0.172852 0.143555 -0.255859c1.34766 -2.24805 2.71387 -4.4834 4.10938 -6.69922
c2.25684 -3.58594 4.56836 -7.13965 6.96582 -10.6328c2.21875 -3.23438 4.46973 -6.46875 6.90234 -9.5498c18.7832 -23.7666 12.9121 -62.6641 -11.832 -80.0068c-2.20605 -1.54492 -4.31055 -3.24023 -6.40137 -4.93848
c-2.34668 -1.90625 -4.64258 -3.87598 -6.90332 -5.88379c-0.661133 -0.587891 -1.45312 -1.36719 -2.27051 -2.2002c-15.5039 -17.6016 -30.165 -34.791 -43.0674 -54.6152c-1.57129 -2.95605 -3.19336 -5.88086 -4.71289 -8.86914
c-3.43555 -6.75586 -6.60645 -13.6455 -9.50586 -20.6504c-2.54102 -6.14648 -4.875 -12.3818 -6.98535 -18.6875c-1.31543 -3.93066 -2.4873 -7.89258 -3.6875 -11.8584c3.96582 13.0938 -0.0859375 -0.820312 -0.59082 -3.06445
c-8.87891 -39.4688 -10.7686 -71.3418 -6.55371 -109.284c2.60254 -23.4219 7.01855 -46.3428 10.7734 -69.5283c2.8418 -17.5566 4.91113 -36.3271 10.8877 -53.1787c6.18457 -17.4355 23.0615 -20.8164 39.6797 -15.4785c20.3311 6.5293 35.918 26.6338 48.8232 42.6357
c55.4521 68.7725 93.6982 153.482 128.704 234.017c37.4609 86.1885 67.9902 175.397 91.6357 266.34c3.03027 11.6533 21.7363 9.3291 18.7891 -2.53809c-27.835 -112.104 -65.7168 -221.523 -113.691 -326.616c-20.833 -45.6377 -43.0449 -90.9463 -68.8232 -134.02
c-24.0225 -40.1367 -51.1484 -76.3555 -89.2705 -103.842c-17.123 -12.3467 -37.4385 -20.2998 -58.8359 -16.4014c-21.5801 3.93066 -39.1465 18.7607 -53.4727 34.5488c-35.1299 38.7188 -53.1406 93.6602 -62.751 143.972zM337.918 22.8408
c-4.40625 -4.52051 -9.4375 -10.6318 0 0zM317.837 432.903c-7.78711 -22.1318 -11.6836 -41.0869 -15.4961 -69.7871l-0.00878906 -0.0966797c42.1924 19.1406 79.9883 50.3467 104.694 84.4932c13.8057 19.0859 24.5625 40.1484 31.8135 62.5713
c6.10156 18.8594 14.5527 48.8652 3.85742 67.6104c-14.0732 24.6611 -41.209 2.78125 -52.4795 -11.4453c-15.2617 -19.2686 -29.5684 -42.6426 -39.8398 -60.7617c-13.0361 -23.001 -23.7705 -47.6582 -32.541 -72.584z" />
    <glyph glyph-name="E" unicode="&#xca;" horiz-adv-x="602" 
d="M165.423 -204.113c-16.7461 87.6865 -0.450195 172.537 45.417 248.554c9.71875 16.1074 21.3057 32.0713 34.332 46.6973c-6.58984 11.877 -12.6436 24.0186 -18.2881 35.998c-27.9463 59.3057 -41.7842 123.455 -40.8711 188.875
c0.015625 1.25488 0.0957031 2.5 0.12793 3.75195c-54.6025 9.64551 -102.736 47.5146 -124.523 98.6689c-23.2402 54.5645 -16.0977 126.846 26.1807 170.545c17.5762 18.167 41.4004 30.1211 67.1182 27.8604c25.1777 -2.21289 48.2842 -17.8672 56.8662 -41.9473
c5.58691 -15.6826 -18.1895 -25.2832 -24.1084 -9.59082c-9.4248 24.9766 -40.7041 30.4102 -62.6191 18.9062c-25.2422 -13.25 -40.3564 -42.5977 -46.1611 -69.4355c-12.5225 -57.8975 11.7197 -117.123 61.6445 -149.048
c15.0088 -9.59766 30.9531 -15.7568 47.332 -19.1094c2.69824 25.8291 8.24707 51.1602 16.376 76.1211c4.92676 15.127 10.8877 29.9219 17.7295 44.2832c9.41895 19.7666 17.7842 34.0859 27.2285 48.6895c19.2871 29.833 42.6162 56.9619 69.7295 79.9238
c24.6543 20.8838 53.6602 38.1787 87.1328 36.5342c29.2939 -1.43945 54.5645 -17.9521 65.2031 -45.4639c10.0254 -25.9316 4.09277 -55.375 -3.70703 -81.0508c-16.5576 -54.501 -53.8301 -101.646 -99.4385 -135.055
c-20.6025 -15.0918 -43.8652 -28.0479 -68.459 -37.4346c-0.185547 -3.11914 -0.361328 -6.24805 -0.537109 -9.37988c0.0576172 -2.81934 0.0996094 -5.63574 0.208008 -8.45508c0.223633 -5.71777 0.59082 -11.4326 1.08594 -17.1348
c1.08203 -12.5029 2.72266 -25.0186 4.70215 -37.4092c0.830078 -5.20117 1.7627 -10.3828 2.80664 -15.542c0.191406 -0.948242 0.883789 -4.25 1.49316 -7.15234c-0.111328 0.868164 1.8584 -7.44531 1.97656 -7.86035
c0.568359 -1.99512 1.15234 -3.9873 1.74902 -5.97363c1.36035 -4.52441 2.79102 -9.0293 4.30469 -13.502c3.03906 -8.99414 6.39453 -17.8799 10.041 -26.6475c4.6709 -11.2285 11.9219 -22.3652 16.9668 -33.6963c0.150391 -0.996094 1.21973 -4.2627 2.79688 -7.04395
c0.133789 -0.392578 0.302734 -0.785156 0.430664 -1.18066c-0.118164 0.364258 -0.213867 0.651367 -0.325195 0.990234c0.0478516 -0.0830078 0.0927734 -0.172852 0.143555 -0.255859c1.34766 -2.24805 2.71387 -4.4834 4.10938 -6.69922
c2.25684 -3.58594 4.56836 -7.13965 6.96582 -10.6328c2.21875 -3.23438 4.46973 -6.46875 6.90234 -9.5498c18.7832 -23.7666 12.9121 -62.6641 -11.832 -80.0068c-2.20605 -1.54492 -4.31055 -3.24023 -6.40137 -4.93848
c-2.34668 -1.90625 -4.64258 -3.87598 -6.90332 -5.88379c-0.661133 -0.587891 -1.45312 -1.36719 -2.27051 -2.2002c-15.5039 -17.6016 -30.165 -34.791 -43.0674 -54.6152c-1.57129 -2.95605 -3.19336 -5.88086 -4.71289 -8.86914
c-3.43555 -6.75586 -6.60645 -13.6455 -9.50586 -20.6504c-2.54102 -6.14648 -4.875 -12.3818 -6.98535 -18.6875c-1.31543 -3.93066 -2.4873 -7.89258 -3.6875 -11.8584c3.96582 13.0938 -0.0859375 -0.820312 -0.59082 -3.06445
c-8.87891 -39.4688 -10.7686 -71.3418 -6.55371 -109.284c2.60254 -23.4219 7.01855 -46.3428 10.7734 -69.5283c2.8418 -17.5566 4.91113 -36.3271 10.8877 -53.1787c6.18457 -17.4355 23.0615 -20.8164 39.6797 -15.4785c20.3311 6.5293 35.918 26.6338 48.8232 42.6357
c55.4521 68.7725 93.6982 153.482 128.704 234.017c37.4609 86.1885 67.9902 175.397 91.6357 266.34c3.03027 11.6533 21.7363 9.3291 18.7891 -2.53809c-27.835 -112.104 -65.7168 -221.523 -113.691 -326.616c-20.833 -45.6377 -43.0449 -90.9463 -68.8232 -134.02
c-24.0225 -40.1367 -51.1484 -76.3555 -89.2705 -103.842c-17.123 -12.3467 -37.4385 -20.2998 -58.8359 -16.4014c-21.5801 3.93066 -39.1465 18.7607 -53.4727 34.5488c-35.1299 38.7188 -53.1406 93.6602 -62.751 143.972zM337.918 22.8408
c-4.40625 -4.52051 -9.4375 -10.6318 0 0zM317.837 432.903c-7.78711 -22.1318 -11.6836 -41.0869 -15.4961 -69.7871l-0.00878906 -0.0966797c42.1924 19.1406 79.9883 50.3467 104.694 84.4932c13.8057 19.0859 24.5625 40.1484 31.8135 62.5713
c6.10156 18.8594 14.5527 48.8652 3.85742 67.6104c-14.0732 24.6611 -41.209 2.78125 -52.4795 -11.4453c-15.2617 -19.2686 -29.5684 -42.6426 -39.8398 -60.7617c-13.0361 -23.001 -23.7705 -47.6582 -32.541 -72.584z" />
    <glyph glyph-name="E" unicode="&#xc9;" horiz-adv-x="602" 
d="M165.423 -204.113c-16.7461 87.6865 -0.450195 172.537 45.417 248.554c9.71875 16.1074 21.3057 32.0713 34.332 46.6973c-6.58984 11.877 -12.6436 24.0186 -18.2881 35.998c-27.9463 59.3057 -41.7842 123.455 -40.8711 188.875
c0.015625 1.25488 0.0957031 2.5 0.12793 3.75195c-54.6025 9.64551 -102.736 47.5146 -124.523 98.6689c-23.2402 54.5645 -16.0977 126.846 26.1807 170.545c17.5762 18.167 41.4004 30.1211 67.1182 27.8604c25.1777 -2.21289 48.2842 -17.8672 56.8662 -41.9473
c5.58691 -15.6826 -18.1895 -25.2832 -24.1084 -9.59082c-9.4248 24.9766 -40.7041 30.4102 -62.6191 18.9062c-25.2422 -13.25 -40.3564 -42.5977 -46.1611 -69.4355c-12.5225 -57.8975 11.7197 -117.123 61.6445 -149.048
c15.0088 -9.59766 30.9531 -15.7568 47.332 -19.1094c2.69824 25.8291 8.24707 51.1602 16.376 76.1211c4.92676 15.127 10.8877 29.9219 17.7295 44.2832c9.41895 19.7666 17.7842 34.0859 27.2285 48.6895c19.2871 29.833 42.6162 56.9619 69.7295 79.9238
c24.6543 20.8838 53.6602 38.1787 87.1328 36.5342c29.2939 -1.43945 54.5645 -17.9521 65.2031 -45.4639c10.0254 -25.9316 4.09277 -55.375 -3.70703 -81.0508c-16.5576 -54.501 -53.8301 -101.646 -99.4385 -135.055
c-20.6025 -15.0918 -43.8652 -28.0479 -68.459 -37.4346c-0.185547 -3.11914 -0.361328 -6.24805 -0.537109 -9.37988c0.0576172 -2.81934 0.0996094 -5.63574 0.208008 -8.45508c0.223633 -5.71777 0.59082 -11.4326 1.08594 -17.1348
c1.08203 -12.5029 2.72266 -25.0186 4.70215 -37.4092c0.830078 -5.20117 1.7627 -10.3828 2.80664 -15.542c0.191406 -0.948242 0.883789 -4.25 1.49316 -7.15234c-0.111328 0.868164 1.8584 -7.44531 1.97656 -7.86035
c0.568359 -1.99512 1.15234 -3.9873 1.74902 -5.97363c1.36035 -4.52441 2.79102 -9.0293 4.30469 -13.502c3.03906 -8.99414 6.39453 -17.8799 10.041 -26.6475c4.6709 -11.2285 11.9219 -22.3652 16.9668 -33.6963c0.150391 -0.996094 1.21973 -4.2627 2.79688 -7.04395
c0.133789 -0.392578 0.302734 -0.785156 0.430664 -1.18066c-0.118164 0.364258 -0.213867 0.651367 -0.325195 0.990234c0.0478516 -0.0830078 0.0927734 -0.172852 0.143555 -0.255859c1.34766 -2.24805 2.71387 -4.4834 4.10938 -6.69922
c2.25684 -3.58594 4.56836 -7.13965 6.96582 -10.6328c2.21875 -3.23438 4.46973 -6.46875 6.90234 -9.5498c18.7832 -23.7666 12.9121 -62.6641 -11.832 -80.0068c-2.20605 -1.54492 -4.31055 -3.24023 -6.40137 -4.93848
c-2.34668 -1.90625 -4.64258 -3.87598 -6.90332 -5.88379c-0.661133 -0.587891 -1.45312 -1.36719 -2.27051 -2.2002c-15.5039 -17.6016 -30.165 -34.791 -43.0674 -54.6152c-1.57129 -2.95605 -3.19336 -5.88086 -4.71289 -8.86914
c-3.43555 -6.75586 -6.60645 -13.6455 -9.50586 -20.6504c-2.54102 -6.14648 -4.875 -12.3818 -6.98535 -18.6875c-1.31543 -3.93066 -2.4873 -7.89258 -3.6875 -11.8584c3.96582 13.0938 -0.0859375 -0.820312 -0.59082 -3.06445
c-8.87891 -39.4688 -10.7686 -71.3418 -6.55371 -109.284c2.60254 -23.4219 7.01855 -46.3428 10.7734 -69.5283c2.8418 -17.5566 4.91113 -36.3271 10.8877 -53.1787c6.18457 -17.4355 23.0615 -20.8164 39.6797 -15.4785c20.3311 6.5293 35.918 26.6338 48.8232 42.6357
c55.4521 68.7725 93.6982 153.482 128.704 234.017c37.4609 86.1885 67.9902 175.397 91.6357 266.34c3.03027 11.6533 21.7363 9.3291 18.7891 -2.53809c-27.835 -112.104 -65.7168 -221.523 -113.691 -326.616c-20.833 -45.6377 -43.0449 -90.9463 -68.8232 -134.02
c-24.0225 -40.1367 -51.1484 -76.3555 -89.2705 -103.842c-17.123 -12.3467 -37.4385 -20.2998 -58.8359 -16.4014c-21.5801 3.93066 -39.1465 18.7607 -53.4727 34.5488c-35.1299 38.7188 -53.1406 93.6602 -62.751 143.972zM337.918 22.8408
c-4.40625 -4.52051 -9.4375 -10.6318 0 0zM317.837 432.903c-7.78711 -22.1318 -11.6836 -41.0869 -15.4961 -69.7871l-0.00878906 -0.0966797c42.1924 19.1406 79.9883 50.3467 104.694 84.4932c13.8057 19.0859 24.5625 40.1484 31.8135 62.5713
c6.10156 18.8594 14.5527 48.8652 3.85742 67.6104c-14.0732 24.6611 -41.209 2.78125 -52.4795 -11.4453c-15.2617 -19.2686 -29.5684 -42.6426 -39.8398 -60.7617c-13.0361 -23.001 -23.7705 -47.6582 -32.541 -72.584z" />
    <glyph glyph-name="F" unicode="F" horiz-adv-x="554" 
d="M-15.1133 278.378c-14.3867 15.0762 -5.31934 38.0371 1.56738 54.3877c17.3018 41.0303 45.3857 76.7793 78.8584 105.865c34.3477 29.8496 77.9414 58.4697 125.325 55.7178c17.5088 -1.01562 32.1504 -6.51074 44.2607 -15.1602
c5.55859 4.37109 11.1592 8.69727 16.791 12.9854c3.99121 38.9326 9.6582 77.6221 18.0205 115.801c5.8584 26.752 25.7334 46.5918 53.9736 46.4385c25.0791 -0.137695 52.1729 -20.1885 53.3984 -47.0908c0.485352 -10.6543 0.762695 -21.3057 0.941406 -31.957
c10.9707 6.11719 22.0527 12.0303 33.2725 17.6816c41.9561 21.1328 87.2295 42.125 134.061 49.0566c39.376 5.82715 87.2256 -0.28418 108.305 -38.5781c23.3906 -42.4961 3.50586 -89.6533 -3.70996 -133.513c-2.71387 -16.4971 -28.4316 -13.001 -25.7109 3.47363
c4.98047 30.1816 17.4678 60.8486 14.3164 91.8311c-3.13867 30.8389 -23.5947 48.709 -53.7979 52.2334c-58.2998 6.80078 -121.047 -26.2383 -171.349 -52.1924c-11.8926 -6.13672 -23.6133 -12.5674 -35.1904 -19.2402
c-0.498047 -89.5479 -9.49512 -178.936 -13.3105 -268.479c-1.07324 -25.1748 -1.92285 -50.3594 -2.51074 -75.5498c-0.246094 -10.4912 -0.444336 -20.9824 -0.597656 -31.4766c-0.0927734 -6.2959 -0.15625 -12.5889 -0.223633 -18.8848
c-0.0224609 -2.11328 -0.0380859 -3.65234 -0.0537109 -4.7793c0.00292969 -1.13379 0.00585938 -2.67871 0.00878906 -4.80469c0.0253906 -25.6123 -0.166016 -48.4434 -0.133789 -71.9648c55.2256 44.7852 112.603 86.8369 172.71 124.949
c11.5293 7.31152 24.2334 -9.25586 12.791 -17.2285c-63.5391 -44.2744 -125.635 -90.5791 -185.282 -139.927c0.0478516 -3.82129 0.108398 -7.70996 0.178711 -11.6533c6.78809 0.72168 13.6201 0.993164 20.5322 0.444336
c22.2119 -1.75879 43.2646 -12.4736 59.6436 -27.2627c35.1396 -31.7324 53.8203 -79.2314 59.5166 -125.463c5.50098 -44.6504 -0.942383 -93.1006 -21.4111 -133.47c-18.7988 -37.0771 -55.627 -73.9375 -100.488 -64.9023
c-50.3086 10.1338 -77.501 62.5078 -94.0459 105.996c-19.0859 50.168 -27.1504 104.531 -33.0762 157.682c-12.5479 112.583 -13.8252 226.057 -11.2705 339.183c1.11719 49.4307 2.24121 99.2188 5.26465 148.834c-3.17969 7.23828 -7.0498 13.9014 -11.7305 19.7217
c-25.2393 -20.0088 -49.9062 -40.7236 -74.165 -61.7324c-40.2227 -34.8359 -78.3311 -73.9189 -123.25 -102.811c-15.4307 -9.92676 -37.1514 -20.166 -52.4287 -4.16113zM422.646 -17.6338c-16.4971 13.8379 -35.4463 20.6758 -57.1094 18.8848
c-1.05371 -0.0859375 -2.09766 -0.232422 -3.14453 -0.34375c1.2832 -45.6787 2.41016 -91.6416 7.64355 -137.062c2.58301 -22.4199 5.31641 -45.0244 9.33594 -67.2334c3.12598 -17.2764 5.9707 -34.3096 10.6094 -47.6934
c4.84961 -13.9941 10.3252 -25.0859 26.749 -25.9961c22.4072 -1.24219 33.374 16.3945 41.9238 34.7783c17.4258 37.4668 22.1289 80.4697 15.8203 121.117c-5.87109 37.8467 -21.7715 78.3408 -51.8281 103.548zM26.1494 355.293
c-5.22656 -8.4834 -31.0244 -50.333 -21.9893 -58.4805c9.15039 -8.25 54.0596 32.6973 62.1055 39.4688c50.0625 42.1318 98.2607 85.9717 148.854 127.091c-5.26465 2.7168 -11.1006 4.73438 -17.6104 5.86426c-28.0742 4.87891 -55.6729 -6.66016 -78.9355 -21.4775
c-37.001 -23.5693 -69.3594 -55.0469 -92.4238 -92.4658z" />
    <glyph glyph-name="G" unicode="G" horiz-adv-x="701" 
d="M252.841 -26.2119c-31.5059 15.1309 -43.8975 52.6348 -54.5098 83.6621c-12.043 35.2354 -19.5107 72.1816 -20.8936 109.435c-1.43359 38.5811 0.130859 76.8301 4.46387 114.782c-34.1592 -3.72559 -68.6221 0.970703 -99.5088 18.959
c-53.8232 31.3467 -69.666 91.3574 -55.5312 149.568c3.9082 16.0947 29.5938 12.7617 25.7109 -3.47363c-12.9814 -54.2705 2.39844 -107.28 56.7236 -130.166c24.4756 -10.3125 50.4619 -11.9531 76.1123 -8.20117c3.87305 25.9863 9.02637 51.832 15.4434 77.5498
c17.8125 71.3584 41.4453 140.651 88.0273 198.858c21.9795 27.4639 55.3945 59.4268 92.0693 63.9824c35.9189 4.46387 68.6826 -16.8125 78.6055 -50.6973c9.04199 -30.8809 1.32812 -60.9404 -7.65625 -90.8213c-8.86914 -29.4951 -24.6416 -58.3066 -42.5273 -83.293
c-28.1729 -39.3604 -66.0264 -72.9678 -107.899 -98.334c-0.462891 -2.24414 -0.973633 -4.48242 -1.4209 -6.73047c-5.78223 -29.0381 -10.415 -58.4688 -13.4258 -87.9219c-3.13867 -30.6924 -2.78125 -54.7432 -3.41016 -82.2998
c-0.213867 -9.37402 0.658203 -25.7207 1.11133 -39.5615c0.450195 -13.7324 0.517578 -27.4199 1.57422 -41.1357c1.04102 -13.5371 1.99219 -27.209 3.86914 -40.6631c0.676758 -4.85938 1.03711 -9.6709 1.58008 -14.5176
c0.338867 -0.625977 0.738281 -1.38281 1.19141 -2.25488c7.56641 -0.0576172 31.9561 26.3398 34.1777 28.9453c9.30664 10.9062 17.6748 22.5664 25.5127 34.5615c17.2217 26.3535 32.4443 54.0791 46.9395 82.0029c21.0693 40.5869 39.9678 82.2305 57.4893 124.448
c-0.56543 6.04102 -1.00586 12.0947 -1.15234 18.1104c-0.287109 11.7812 2.55469 23.1475 2.90918 34.9639c0.823242 27.5439 40.0176 33.8086 54.6025 14.0674c10.1816 -13.7832 20.4014 -24.7949 27.1543 -40.9629c5.53906 -13.2627 9.77539 -26.6084 13.5049 -40.4844
c8.13867 -30.2676 13.1035 -60.6309 16.0088 -91.8271c0.118164 -1.2832 0.188477 -2.57324 0.299805 -3.86035c40.2764 24.208 83.5928 42.8125 130.511 52.1797c14.8369 2.96289 17.5703 -20.3057 2.8584 -23.2715c-47.3486 -9.5459 -91.0732 -29.4531 -131.548 -55.1865
c2.63086 -49.9951 0.347656 -100.281 -6.93164 -149.795c-7.83789 -53.3125 -20.8545 -105.938 -41.5791 -155.732c-10.498 -25.2227 -23.2402 -49.1523 -37.0264 -72.7178c-13.0039 -22.2275 -26.2256 -44.2959 -44.2617 -62.8779
c-21.1045 -21.7432 -44.667 -35.4277 -75.8096 -34.5654c-22.5732 0.625977 -43.1602 8.42578 -58.7598 25.1045c-32.9365 35.2158 -30.7715 94.7803 -20.0371 138.228c23.8975 96.7344 88.2383 175.596 159.357 242.58c7.87305 7.41406 15.8838 14.7354 24.0225 21.9346
c0.405273 12.7998 0.450195 24.5615 0.194336 36.0176c-0.482422 21.5986 -1.90039 43.1787 -4.26953 64.6533c-1.60645 14.5811 -3.50293 29.127 -5.36426 43.6797c-19.833 -46.707 -41.6201 -92.5684 -66.3516 -136.919
c-17.3145 -31.0498 -35.5225 -61.6748 -59.5029 -88.1074c-18.9902 -20.9316 -51.3135 -56.9424 -82.6475 -41.8945zM448.93 -63.3105c10.2676 41.334 16.9346 83.5518 20.0352 126.031c-7.00488 -6.56152 -13.8984 -13.1934 -20.6699 -19.8564
c-62.0039 -60.998 -120.942 -135.211 -137.465 -222.798c-4.73145 -25.0859 -6.6123 -52.9209 2.10352 -77.3965c5.38281 -15.1211 18.7256 -39.2324 38.4668 -30.4971c9.23633 4.08691 15.1045 14.6738 20.9404 22.2471c5.4502 7.07227 10.4473 13.873 14.4834 21.7783
c9.62598 18.8633 17.5566 38.9238 24.9893 58.7383c8.21777 21.9053 15.5996 44.2549 22.3076 66.668c5.35449 17.8857 10.6865 38.4922 14.8086 55.085zM312.807 373.977c1.19434 4.55273 0.924805 3.52344 -0.805664 -3.0791
c-0.689453 -2.65918 -1.35352 -5.3252 -2.02051 -7.98828c32.6719 23.7764 61.0303 53.6123 81.7705 88.2891c13.5947 22.7295 24.3604 49.3672 25.0664 76.2021c0.274414 10.4404 -0.616211 34.8877 -7.4873 46.9854
c-4.80176 -3.12891 -8.96191 -7.12305 -10.3154 -8.37109c-8.9043 -8.22461 -15.9316 -19.3008 -22.4893 -29.3838c-1.45605 -2.2002 -2.83887 -4.44434 -4.22168 -6.68555c-0.130859 -0.306641 -1.00879 -1.89941 -2.67188 -4.84668
c-2.47461 -4.94531 -5.08984 -9.81152 -7.47461 -14.8047c-6.36914 -13.3428 -12.2344 -27.043 -17.8027 -40.7363c-9.82715 -24.1592 -17.7197 -49.1777 -25.3086 -74.1162c-2.16797 -7.12598 -4.25293 -14.2842 -6.23926 -21.4648z" />
    <glyph glyph-name="H" unicode="H" horiz-adv-x="720" 
d="M402.396 -22.7666c-5.13672 61.5977 -6.33594 123.399 -5.19629 185.176c-9.2207 -3.65527 -18.3809 -7.43848 -27.4453 -11.3242c-36.5859 -15.6826 -72.1816 -33.4316 -107.596 -51.5566c-0.0605469 -3.12207 -0.0800781 -6.24805 -0.147461 -9.37012
c-1.46582 -67.8975 0.647461 -138.049 -10.1475 -205.234c-4.20801 -26.1807 -26.0908 -45.2988 -52.4824 -45.1553c-24.8105 0.133789 -50.1807 19.6289 -51.9238 45.7871c-2.35645 35.3408 -1.37988 71.0195 0.765625 106.673
c-0.220703 1.11426 -0.431641 2.23145 -0.661133 3.34277c-2.7207 13.1699 -6.33496 27.1953 -11.5518 40.5635c-24.9229 -11.9248 -50.3789 -23.3008 -76.4863 -31.3877c-27.3145 -8.46094 -63.1631 -3.77734 -69.791 29.4814
c-5.94141 29.8047 8.57617 65.9473 36.0176 79.916c23.8975 12.1641 53.9258 10.2227 77.124 -2.58398c19.208 -10.6035 33.5879 -27.6113 43.9199 -46.7998c2.33105 1.12109 4.66797 2.22852 6.99219 3.3584c0.689453 8.97461 1.35645 17.9268 1.96289 26.8564
c7.85742 115.495 25.6953 230.367 31.2412 345.958c1.11426 23.2051 6.88086 50.8896 0.632812 73.7432c-7.57324 27.7129 -43.3486 27.2373 -65.0117 19.4561c-46.6045 -16.7393 -79.0205 -64.4648 -89.4316 -111.271
c-2.69824 -12.1289 -21.8164 -9.71191 -19.2842 2.60547c11.3984 55.4326 49.21 112.392 105.157 130.674c21.7842 7.12012 46.0303 7.89258 66.2598 -4.06738c21.2061 -12.5381 36.71 -35.8643 47.1787 -57.5723c28.3291 -58.7471 28.2842 -129.294 29.4971 -193.06
c1.12988 -59.2861 1.36914 -118.765 0.529297 -178.115c4.67773 2.38477 9.35156 4.78223 14.0381 7.14453c39.5713 19.9551 79.749 39.0322 121.159 54.792c0.756836 27.7549 1.93164 55.5 3.41309 83.2129c2.53516 47.4697 6.8584 94.627 12.2764 141.854
c3.00098 26.1738 6.25781 52.9707 13.4736 78.334c3.24414 11.4043 6.86426 22.7031 10.083 34.1172c4.29785 15.252 10.8975 22.4229 21.4111 30.1875c11.6309 8.5918 25.127 4.58496 34.207 -5.05762c10.2422 -10.8809 13.0518 -19.626 14.6514 -34.75
c1.27344 -12.043 3.20215 -24.0381 4.3291 -36.0908c2.43945 -26.0625 0.507812 -53.7568 -0.526367 -79.9277c-1.88086 -47.585 -3.85742 -95.1572 -5.74414 -142.739c-0.517578 -13.1035 -0.925781 -26.0791 -1.27344 -39.0127
c50.9531 7.02734 105.865 -0.90625 130.66 -52.4346c5.98926 -12.4521 -13.9785 -20.3379 -19.9365 -7.93066c-20.1523 41.9658 -70.2051 45.8193 -111.235 39.1846c-1.24219 -63.5039 -0.291016 -125.903 3.50195 -191.731
c2.41699 -42.0068 5.30371 -84.167 9.25293 -126.056c3.59863 -38.1729 5.50195 -75.4902 17.251 -110.939c1.61914 -4.88184 4.22754 -15.9258 8.81543 -19.6328c7.44922 -6.01855 19.167 1.98535 23.9307 7.24707c12.5439 13.8594 20.6699 32.4473 28.0264 49.417
c16.5771 38.2432 29.166 78.2197 41.9727 117.839c26.8643 83.1113 51.1807 167.023 73.0068 251.597c3.01758 11.6914 21.791 9.27441 18.79 -2.53906c-25.916 -101.989 -55.1846 -203.168 -88.4336 -303.019c-13.457 -40.4111 -26.9492 -85.6299 -50.4766 -121.523
c-23.6748 -36.1201 -65.1748 -53.374 -103.82 -27.5859c-40.1396 26.7871 -49.5518 76.2559 -60.4072 119.955c-11.4238 45.9922 -18.582 92.8047 -22.5186 139.994zM86.3779 37.4707c13.6582 5.67383 27.1475 11.7119 40.5605 17.9121
c-8.375 14.7725 -19.5498 27.5303 -34.7891 35.6338c-24.5234 13.0391 -60.5215 9.04199 -73.5 -18.1025c-8.62695 -18.042 -12.4229 -47.626 13.71 -50.79c18.1064 -2.19043 37.748 8.58789 54.0186 15.3467z" />
    <glyph glyph-name="I" unicode="I" horiz-adv-x="439" 
d="M418.5 172.151c1.61914 14.4121 23.8252 11.3232 22.251 -3.00879c-14.3066 -130.481 -41.416 -264.556 -91.542 -386.347c-10.0156 -24.335 -21.3438 -47.9902 -35.2002 -70.3906c-12.6533 -20.4561 -28.499 -45.8926 -49.543 -58.6377
c-22.9365 -13.8916 -43.792 -7.02441 -64.6221 6.3916c-24.2393 15.6123 -35.9824 38.3516 -43.8877 65.4424c-9.02246 30.9219 -16.8447 62.5908 -19.6133 94.7451c-2.77148 32.167 -0.964844 65.2666 0.174805 97.5068c2.17773 61.5664 9.91016 123.324 17.9238 184.376
c8.04883 61.3203 14.8682 122.691 22.2051 184.082c6.78125 56.7354 9.57812 112.752 4.64844 169.698c-1.97266 22.7871 -5.12109 47.9463 -15.0312 68.8555c-10.6699 22.5059 -36.8506 26.4902 -57.8115 15.3887c-50.7773 -26.8955 -59.9785 -101.766 -45.9688 -151.388
c3.25 -11.5127 -13.707 -18.7637 -17.6182 -7.00781c-17.6816 53.1592 -12.2607 118.611 27.627 160.899c16.3691 17.3594 38.4658 29.9033 62.8936 29.0225c23.2725 -0.839844 47.5498 -14.6074 65.2412 -29.0742c43.6543 -35.6953 60.4131 -96.4697 69.1514 -149.926
c10.083 -61.6719 8.91406 -126.086 5.34473 -188.221c-7.14551 -124.342 -24.7217 -248.067 -27.3174 -372.668c-0.631836 -30.3154 -5.03125 -60.3691 -7.32031 -90.5723c-1.02148 -13.5117 -1.0918 -22.541 -0.928711 -36.3018
c0.0859375 -7.16797 -2.01172 -21.3242 7.0459 -23.4951c12.5381 -3.00781 26.8701 18.6074 33.2842 26.9375c7.63672 9.91699 14.6895 20.2871 21.1582 31.002c14.3291 23.7354 25.7559 49.1016 35.5029 75.0205c43.0068 114.339 68.3574 236.491 81.9521 357.669z" />
    <glyph glyph-name="I" unicode="&#xcf;" horiz-adv-x="439" 
d="M418.5 172.151c1.61914 14.4121 23.8252 11.3232 22.251 -3.00879c-14.3066 -130.481 -41.416 -264.556 -91.542 -386.347c-10.0156 -24.335 -21.3438 -47.9902 -35.2002 -70.3906c-12.6533 -20.4561 -28.499 -45.8926 -49.543 -58.6377
c-22.9365 -13.8916 -43.792 -7.02441 -64.6221 6.3916c-24.2393 15.6123 -35.9824 38.3516 -43.8877 65.4424c-9.02246 30.9219 -16.8447 62.5908 -19.6133 94.7451c-2.77148 32.167 -0.964844 65.2666 0.174805 97.5068c2.17773 61.5664 9.91016 123.324 17.9238 184.376
c8.04883 61.3203 14.8682 122.691 22.2051 184.082c6.78125 56.7354 9.57812 112.752 4.64844 169.698c-1.97266 22.7871 -5.12109 47.9463 -15.0312 68.8555c-10.6699 22.5059 -36.8506 26.4902 -57.8115 15.3887c-50.7773 -26.8955 -59.9785 -101.766 -45.9688 -151.388
c3.25 -11.5127 -13.707 -18.7637 -17.6182 -7.00781c-17.6816 53.1592 -12.2607 118.611 27.627 160.899c16.3691 17.3594 38.4658 29.9033 62.8936 29.0225c23.2725 -0.839844 47.5498 -14.6074 65.2412 -29.0742c43.6543 -35.6953 60.4131 -96.4697 69.1514 -149.926
c10.083 -61.6719 8.91406 -126.086 5.34473 -188.221c-7.14551 -124.342 -24.7217 -248.067 -27.3174 -372.668c-0.631836 -30.3154 -5.03125 -60.3691 -7.32031 -90.5723c-1.02148 -13.5117 -1.0918 -22.541 -0.928711 -36.3018
c0.0859375 -7.16797 -2.01172 -21.3242 7.0459 -23.4951c12.5381 -3.00781 26.8701 18.6074 33.2842 26.9375c7.63672 9.91699 14.6895 20.2871 21.1582 31.002c14.3291 23.7354 25.7559 49.1016 35.5029 75.0205c43.0068 114.339 68.3574 236.491 81.9521 357.669z" />
    <glyph glyph-name="I" unicode="&#xce;" horiz-adv-x="439" 
d="M418.5 172.151c1.61914 14.4121 23.8252 11.3232 22.251 -3.00879c-14.3066 -130.481 -41.416 -264.556 -91.542 -386.347c-10.0156 -24.335 -21.3438 -47.9902 -35.2002 -70.3906c-12.6533 -20.4561 -28.499 -45.8926 -49.543 -58.6377
c-22.9365 -13.8916 -43.792 -7.02441 -64.6221 6.3916c-24.2393 15.6123 -35.9824 38.3516 -43.8877 65.4424c-9.02246 30.9219 -16.8447 62.5908 -19.6133 94.7451c-2.77148 32.167 -0.964844 65.2666 0.174805 97.5068c2.17773 61.5664 9.91016 123.324 17.9238 184.376
c8.04883 61.3203 14.8682 122.691 22.2051 184.082c6.78125 56.7354 9.57812 112.752 4.64844 169.698c-1.97266 22.7871 -5.12109 47.9463 -15.0312 68.8555c-10.6699 22.5059 -36.8506 26.4902 -57.8115 15.3887c-50.7773 -26.8955 -59.9785 -101.766 -45.9688 -151.388
c3.25 -11.5127 -13.707 -18.7637 -17.6182 -7.00781c-17.6816 53.1592 -12.2607 118.611 27.627 160.899c16.3691 17.3594 38.4658 29.9033 62.8936 29.0225c23.2725 -0.839844 47.5498 -14.6074 65.2412 -29.0742c43.6543 -35.6953 60.4131 -96.4697 69.1514 -149.926
c10.083 -61.6719 8.91406 -126.086 5.34473 -188.221c-7.14551 -124.342 -24.7217 -248.067 -27.3174 -372.668c-0.631836 -30.3154 -5.03125 -60.3691 -7.32031 -90.5723c-1.02148 -13.5117 -1.0918 -22.541 -0.928711 -36.3018
c0.0859375 -7.16797 -2.01172 -21.3242 7.0459 -23.4951c12.5381 -3.00781 26.8701 18.6074 33.2842 26.9375c7.63672 9.91699 14.6895 20.2871 21.1582 31.002c14.3291 23.7354 25.7559 49.1016 35.5029 75.0205c43.0068 114.339 68.3574 236.491 81.9521 357.669z" />
    <glyph glyph-name="I" unicode="&#xcd;" horiz-adv-x="439" 
d="M418.5 172.151c1.61914 14.4121 23.8252 11.3232 22.251 -3.00879c-14.3066 -130.481 -41.416 -264.556 -91.542 -386.347c-10.0156 -24.335 -21.3438 -47.9902 -35.2002 -70.3906c-12.6533 -20.4561 -28.499 -45.8926 -49.543 -58.6377
c-22.9365 -13.8916 -43.792 -7.02441 -64.6221 6.3916c-24.2393 15.6123 -35.9824 38.3516 -43.8877 65.4424c-9.02246 30.9219 -16.8447 62.5908 -19.6133 94.7451c-2.77148 32.167 -0.964844 65.2666 0.174805 97.5068c2.17773 61.5664 9.91016 123.324 17.9238 184.376
c8.04883 61.3203 14.8682 122.691 22.2051 184.082c6.78125 56.7354 9.57812 112.752 4.64844 169.698c-1.97266 22.7871 -5.12109 47.9463 -15.0312 68.8555c-10.6699 22.5059 -36.8506 26.4902 -57.8115 15.3887c-50.7773 -26.8955 -59.9785 -101.766 -45.9688 -151.388
c3.25 -11.5127 -13.707 -18.7637 -17.6182 -7.00781c-17.6816 53.1592 -12.2607 118.611 27.627 160.899c16.3691 17.3594 38.4658 29.9033 62.8936 29.0225c23.2725 -0.839844 47.5498 -14.6074 65.2412 -29.0742c43.6543 -35.6953 60.4131 -96.4697 69.1514 -149.926
c10.083 -61.6719 8.91406 -126.086 5.34473 -188.221c-7.14551 -124.342 -24.7217 -248.067 -27.3174 -372.668c-0.631836 -30.3154 -5.03125 -60.3691 -7.32031 -90.5723c-1.02148 -13.5117 -1.0918 -22.541 -0.928711 -36.3018
c0.0859375 -7.16797 -2.01172 -21.3242 7.0459 -23.4951c12.5381 -3.00781 26.8701 18.6074 33.2842 26.9375c7.63672 9.91699 14.6895 20.2871 21.1582 31.002c14.3291 23.7354 25.7559 49.1016 35.5029 75.0205c43.0068 114.339 68.3574 236.491 81.9521 357.669z" />
    <glyph glyph-name="J" unicode="J" horiz-adv-x="515" 
d="M652.562 504.4c-1.16895 -16.832 -26.4316 -12.9746 -25.7168 3.47461c5.91309 135.284 -190.132 42.3555 -250.188 10.7793c-8.70703 -4.57812 -17.3623 -9.29395 -25.9824 -14.0801c0.495117 -1.63477 0.925781 -3.28223 1.29297 -4.94531
c17.0234 -77.3799 22.748 -156.535 26.2158 -235.604c0.424805 -9.68359 0.769531 -19.3701 1.05664 -29.0566c46.3369 13.3047 98.5957 7.00195 135.766 -25.459c9.62598 -8.40625 -2.37598 -23.9805 -12.2861 -15.7236c-35.1045 29.249 -81.4697 31.2256 -122.95 17.5283
c1.16895 -64.0273 -0.529297 -128.115 -4.7373 -192.009c-4.62598 -70.292 -12.123 -141.273 -25.8232 -210.441c-11.7783 -59.4717 -28.1475 -121.769 -74.0693 -164.169c-19.6768 -18.167 -46.3809 -32.4961 -73.1143 -36.3623
c-24.75 -3.58203 -46.6455 9.17969 -61.0029 28.7031c-34.5996 47.0518 -33.5781 116.778 -29.9287 172.409c7.58008 115.511 52.4541 228.863 125.958 318.283c10.5742 12.8633 21.8604 25.6123 33.8936 37.6973c-1.02441 45.002 -3.05176 90.0039 -6.33105 134.868
c-3.51172 48.0635 -8.90723 95.9229 -13.415 143.875c-41.0527 -26.96 -81.0615 -55.5547 -120.039 -84.749c-34.3984 -25.7656 -71.2363 -57.8311 -112.4 -72.25c-14.2812 -5 -33.1279 -3.39355 -37.6426 13.7773c-4.45117 16.9316 7.10938 37.1104 15.3535 51.0791
c21.3086 36.1133 50.123 68.1396 82.0859 95.1572c31.9561 27.0137 71.5146 55.2285 114.285 59.9414c19.7344 2.17383 38.4404 -1.97949 54.6885 -10.9355c1.96973 25.0508 19.7949 44.9385 45.7842 49.2646c19.249 3.20215 35.5674 -5.64453 46.3428 -19.5078
c52.3457 30.0947 107.034 56.0674 165.73 71.0605c35.0664 8.95605 74.1172 15.6221 107.437 -2.7207c33.5244 -18.457 42.2217 -54.0918 39.7373 -89.8857zM56.3174 334.328c37.8662 24.1885 73.2041 52.3828 109.748 78.4902
c26.3691 18.8369 53.1025 37.1631 80.1709 54.9814c-0.0605469 0.0507812 -0.118164 0.105469 -0.178711 0.15625c-40.2578 32.9717 -91.751 4.22363 -127.398 -21.3662c-32.2344 -23.1416 -60.6152 -51.1865 -84.1553 -83.127
c-6.4043 -8.69043 -12.7998 -17.5596 -18.3135 -26.8535c-2.42285 -4.08008 -14.4814 -25.4111 -11.3271 -28.3486c3.03613 -2.8252 21.6465 8.72949 24.3252 10.1377c9.29102 4.87891 18.2881 10.2812 27.1289 15.9297zM251.992 -236.108
c10.2197 116.632 20.5088 239.551 19.6914 352.559c-0.0419922 5.74414 -0.112305 11.4912 -0.185547 17.2354c-19.3447 -21.3887 -36.5889 -44.7725 -51.8887 -68.377c-56.8408 -87.708 -87.9766 -193.117 -86.5527 -297.719
c0.408203 -29.9414 2.71973 -60.7871 12.8789 -89.1768c8.46387 -23.6553 27.416 -54.1143 57.3193 -44.3701c22.0527 7.18652 32.5186 38.2109 37.7256 58.4941c5.94141 23.1377 8.92969 47.6104 11.0117 71.3545z" />
    <glyph glyph-name="K" unicode="K" horiz-adv-x="573" 
d="M426.844 -314.832c-7.87695 -14.1377 -14.9219 -29.2383 -28.1367 -39.2666c-5.82031 -4.41895 -12.583 -7.73633 -19.9482 -8.50879c-2.66309 -0.277344 -6.59668 -0.139648 -9.10254 0.211914c-15.4336 2.16504 4.78613 -0.015625 -5.39258 1.15625
c-41.8701 4.82129 -61.7607 42.6113 -68.9443 80.6631c-7.94727 42.0938 -4.18262 85.4609 -0.0576172 127.765c3.85645 39.5869 8.38086 79.1074 12.3555 118.676c3.67773 36.6436 5.1084 73.2617 4.54004 110.059c-0.246094 15.9639 -1.50684 31.4043 -7.33398 46.334
c-3.19629 8.18652 -5.29102 14.9902 -13.627 18.8213c-6.81055 3.12891 -14.3867 3.26953 -21.6504 2.17773c-0.175781 -17.71 -0.447266 -35.4141 -0.830078 -53.1016c-1.46582 -67.8975 0.647461 -138.049 -10.1475 -205.234
c-4.20801 -26.1807 -26.0908 -45.2988 -52.4824 -45.1553c-24.8076 0.133789 -50.1777 19.6289 -51.9209 45.7871c-4.62988 69.4199 3.58789 140.152 8.30078 209.419c7.85742 115.495 25.6953 230.367 31.2412 345.958c1.11426 23.2051 6.88086 50.8896 0.632812 73.7432
c-7.57324 27.7129 -43.3486 27.2373 -65.0117 19.4561c-46.6045 -16.7393 -79.0205 -64.4648 -89.4316 -111.271c-2.69824 -12.1289 -21.8164 -9.71191 -19.2842 2.60547c11.3984 55.4326 49.21 112.392 105.157 130.674c21.7842 7.12012 46.0303 7.89258 66.2598 -4.06738
c21.2061 -12.5381 36.7129 -35.8643 47.1787 -57.5723c28.333 -58.7471 28.2881 -129.294 29.501 -193.06c0.711914 -37.3457 1.06641 -74.7646 1.04688 -112.184c55.4619 103.541 103.819 210.744 144.696 320.91c4.37695 11.7969 22.2305 4.2334 17.9678 -7.47461
c-41.7998 -114.786 -91.6992 -226.418 -149.29 -334.106c8.85059 -1.05078 17.3145 -3.95312 26.7393 -7.23242c7.18359 -2.5 15.3057 -2.91504 22.2559 -6.10742c9.40234 -4.31934 17.7832 -13.2305 24.6768 -20.6445c28.3545 -30.5068 38.0986 -72.0732 43.9287 -112.11
c11.3789 -78.1621 -2.85742 -156.832 -6.12402 -235.022c-1.41406 -33.9004 -6.1875 -70.7383 -6.9502 -102.206c-0.0283203 -1.19727 0.0615234 -3.08398 0.106445 -5.13965c3.46387 3.35547 7.96289 7.0498 9.66504 9.45117
c9.8623 13.9014 17.2061 29.999 23.9688 45.5957c28.7568 66.3232 42.1602 138.671 61.0391 208.158c20.3096 74.7461 41.96 149.515 68.2588 222.399c5.19824 14.4062 26.0566 5.14355 21.6543 -9.00684c-27.3018 -87.7598 -54.6094 -175.271 -77.0293 -264.447
c-17.7646 -70.6689 -32.6748 -142.835 -68.4756 -207.103z" />
    <glyph glyph-name="L" unicode="L" horiz-adv-x="437" 
d="M144.044 -124.115c11.041 55.2031 17.0566 111.04 20.5176 167.188c6.99902 113.521 4.4834 222.392 -4.83008 338.988c-3.80273 47.6006 -7.67578 99.6045 -31.0215 142.049c-6.78125 12.3271 -12.665 19 -27.9268 12.8477
c-10.0986 -4.07031 -17.4805 -13.2236 -23.502 -21.9561c-15.6318 -22.6621 -24.5332 -49.2998 -28.1572 -76.4189c-1.625 -12.1553 -20.0469 -9.55957 -18.7891 2.53809c3.28516 31.6113 13.4131 62.5752 31.2734 89.0332c7.42969 11.0059 16.8896 20.8652 28.6484 27.2412
c12.6436 6.85449 26.3789 6.89258 40.4014 7.54688c74.5195 3.47363 104.177 -94.126 117.057 -151.832c29.6484 -132.825 31.165 -274.061 22.6787 -409.297c-0.692383 -11.0566 -1.5127 -22.0811 -2.46094 -33.0801c19.9326 18.8467 39.5166 38.0576 58.1309 58.2969
c20.9512 22.7832 40.9639 46.4287 59.9512 70.8721c18.6582 24.0254 36.8535 49.251 43.8232 79.3809c3.16406 13.6807 24.9004 10.8359 21.7559 -2.9375c-12.3467 -54.0693 -53.0996 -98.6943 -88.5166 -139.491c-30.8643 -35.5547 -64.3213 -68.3447 -98.6055 -100.444
c-5.08301 -43.6865 -12.8604 -86.8779 -25.1592 -129.476c-9.34863 -32.3838 -21.5605 -62.1211 -39.9414 -90.5371c-16.5479 -25.584 -42.5244 -56.2539 -73.5674 -62.9336c-37.4961 -8.06445 -60.4902 22.4453 -57.1953 57.1221
c2.4873 26.168 13.6074 49.4111 26.4199 71.9971c12.1289 21.3789 26.4424 41.1484 42.1123 59.8262c2.49707 11.1201 4.66797 22.3008 6.90332 33.4756zM103.557 -268.656c5.99902 11.3535 10.0293 23.8047 13.6406 36.0713
c0.558594 1.90332 1.09863 3.80957 1.63477 5.71582c-4.57227 -8.24707 -8.54395 -16.7432 -11.4434 -25.459c-1.72754 -5.19141 -3.34668 -10.8203 -3.83203 -16.3281zM118.94 -226.686c-0.344727 -1.39844 -0.557617 -2.35352 0.0263672 0.0410156
c-0.00976562 -0.0126953 -0.0195312 -0.0283203 -0.0263672 -0.0410156z" />
    <glyph glyph-name="M" unicode="M" horiz-adv-x="750" 
d="M625.438 -116.446c-15.6641 -27.2627 -43.7285 -77.1523 -81.9111 -70.8018c-18.9365 3.15137 -28.8467 18.9395 -38.0996 33.9199c-12.7998 20.7178 -21.2832 44.5742 -20.5586 69.2031c1.48828 50.6309 14.8916 98.5703 28.3428 147.068
c13.1123 47.291 25.4111 89.873 36.4873 137.289c10.1436 43.4219 23.9268 87.0889 28.7061 131.555c1.33105 12.3877 6.79688 55.7773 -18.2061 41.5664c-18.0166 -10.2422 -31.5186 -36.4199 -41.1797 -53.8848c-22.7354 -41.0908 -39.9541 -85.6553 -52.4414 -131.586
c-5.9707 -51.1133 -12.6279 -102.14 -18.2061 -153.326c-3.38477 -31.085 -33.3555 -50.5771 -62.8594 -47.8984c-31.4424 2.85449 -49.8613 33.751 -47.8975 62.8594c5.83301 86.5908 22.6816 171.184 36.7207 256.677c6.98242 42.5146 14.3223 84.9277 20.6436 127.555
c3.02344 20.3828 5.2168 40.7207 8.99023 60.9629c1.64062 8.80566 3.13477 17.8887 3.20215 26.8701c0.0253906 3.47363 -0.708984 6.90234 -0.728516 10.3125c-0.00292969 0.533203 0.137695 1.51953 0.332031 2.66602
c-11.2705 -3.30469 -25.248 -27.0977 -28.5938 -32.9307c-6.05664 -10.5557 -10.8838 -21.8193 -15.5098 -33.0547c-10.373 -25.1875 -19.6543 -50.8604 -28.1475 -76.7412c-17.3945 -53.0059 -31.0918 -107.133 -41.96 -161.838
c-10.6221 -53.4727 -18.2373 -107.303 -24.2051 -161.334c-0.801758 -61.1348 -0.12793 -123.633 -9.78906 -183.759c-4.20801 -26.1807 -26.0908 -45.2988 -52.4824 -45.1553c-24.8076 0.133789 -50.1777 19.6289 -51.9238 45.7871
c-4.62988 69.4199 3.58789 140.152 8.30078 209.419c7.86035 115.495 25.6982 230.367 31.2441 345.958c1.11426 23.2051 6.88086 50.8896 0.632812 73.7432c-7.57324 27.7129 -43.3486 27.2373 -65.0117 19.4561c-46.6045 -16.7393 -79.0205 -64.4648 -89.4316 -111.271
c-2.69824 -12.1289 -21.8164 -9.71191 -19.2842 2.60547c11.3984 55.4326 49.21 112.392 105.157 130.674c21.7842 7.12012 46.0303 7.89258 66.2598 -4.06738c21.2061 -12.5381 36.7129 -35.8643 47.1787 -57.5723c28.333 -58.7471 28.2881 -129.294 29.501 -193.06
c0.357422 -18.7803 0.619141 -37.5791 0.800781 -56.3877c12.3594 60.6533 28.2148 120.616 48.5117 179.095c12.7168 36.6406 25.3252 76.665 48.8691 108.047c9.70898 12.9404 23.0742 27.1191 40.1807 28.9072c7.30176 0.762695 12.2988 -2.13965 18.9209 -4.2627
c5.25879 -1.68555 10.3672 -1.32129 15.3516 -5.1748c13.9902 -10.8135 21.1992 -35.7266 26.5244 -51.7637c6.90234 -20.791 8.62305 -41.873 10.3408 -63.5967c3.60742 -45.5986 3.05859 -92.2578 -0.500977 -137.828
c-0.291016 -3.7002 -0.645508 -7.39062 -0.955078 -11.0879c8.79883 20.207 18.6904 39.7979 29.9102 58.4248c16.4014 27.2314 51.3174 77.6289 86.8145 45.3496c14.9805 -13.6201 29.0225 -24.249 37.7607 -43.3223c8.86621 -19.3447 12.6914 -40.0371 14.3994 -61.1025
c8.06836 -99.4805 -22.8184 -194.832 -45.7744 -290.397c-7.09766 -29.5459 -13.7773 -53.0283 -22.9658 -80.9775c-6.67969 -20.3154 -15.5137 -38.7314 -24.2773 -58.2197c-0.884766 -1.89648 -1.67676 -3.83105 -2.42383 -5.78516
c0.0761719 -0.683594 0.139648 -1.68262 0.194336 -3.00488c3.42578 -3.66211 -0.261719 -5.71484 6.4209 -7.69141c11.1045 -3.28516 24.0352 15.0859 29.6006 21.9277c14.3613 17.6523 26.3213 36.9238 36.7324 57.1279c45.7266 88.7363 84.4932 181.604 126.232 272.272
c5.23926 11.3818 23.2021 3.89453 17.9688 -7.47461c-24.5654 -53.3643 -49.1338 -106.731 -73.6992 -160.096c-21.7939 -47.3359 -42.2178 -95.6104 -68.21 -140.846z" />
    <glyph glyph-name="N" unicode="N" horiz-adv-x="617" 
d="M125.77 556.129c21.7842 7.12012 46.0234 7.89258 66.2461 -4.07031c21.2061 -12.5381 36.71 -35.8643 47.1787 -57.5723c28.333 -58.7471 28.2852 -129.294 29.502 -193.06c0.753906 -39.5459 1.09277 -79.1777 1.01953 -118.803
c8.15137 51.2627 18.2021 102.185 30.9668 152.486c7.31152 28.8145 15.0703 57.7188 24.9746 85.7676c8.88574 25.1592 20.1592 52.5088 39.6543 71.4004c16.2705 15.7656 37.5088 21.3271 59.5996 15.9473c24.374 -5.93848 37.7617 -25.9697 45.6416 -48.3545
c11.5254 -32.7422 13.6074 -66.4102 13.3516 -100.796c-0.236328 -31.8252 -0.976562 -63.8135 -4.23926 -95.4824c-6.66309 -64.6631 -17.3496 -128.576 -26.7393 -192.869c-9.2207 -63.1143 -17.4385 -126.321 -28.0068 -189.222
c-2.45801 -14.6387 -4.11816 -29.2773 -6.20898 -43.9512c-1.00586 -7.06543 -2.38477 -13.9111 -2.75488 -21.0664c-0.204102 -3.93945 1.23242 -10.8389 -0.255859 -15.1074c0.242188 0.137695 0.488281 0.275391 0.730469 0.413086
c3.80859 5.18164 10.9639 9.21094 15.3857 14.2109c8.14453 9.21387 14.5615 19.9062 20.8516 30.4326c33.3643 55.8291 57.5938 117.37 83.6211 176.819c26.541 60.627 52.6709 121.434 78.7969 182.24c6.22559 14.4922 28.7314 5.07324 22.5762 -9.38965
c-29.2041 -68.6289 -58.4082 -137.258 -88.2061 -205.628c-27.0967 -62.1758 -52.6865 -126.312 -90.9297 -182.7c-12.7744 -18.834 -30.1113 -43.2334 -54.9219 -44.7178c-28.3193 -1.69531 -49.0498 21.7139 -61.2783 44.3916
c-15.5205 28.7861 -18.1865 60.7812 -19.4473 92.9258c-1.35352 34.5811 1.01855 68.8008 5.17871 103.098c7.69434 63.4434 21.4229 126.037 33.626 188.728c12.1709 62.5303 28.7031 124.311 39.3506 187.128c4.34863 25.6572 12.2734 55.6855 8.12891 81.6748
c-0.823242 5.17871 0.0166016 19.6387 -6.70703 21.6689c-10.4248 3.15137 -24.291 -15.9824 -28.7764 -22.627c-16.5 -24.4375 -25.4521 -53.9863 -33.9287 -81.9395c-9.67773 -31.9082 -17.9824 -64.209 -25.2393 -96.75
c-24.5332 -110.01 -36.2695 -222.054 -49.1807 -333.858c-1.35645 -21.04 -3.44727 -41.9531 -6.76172 -62.585c-4.20801 -26.1807 -26.0908 -45.2988 -52.4824 -45.1553c-24.8076 0.133789 -50.1777 19.6289 -51.9209 45.7871
c-4.62988 69.4199 3.58789 140.152 8.30078 209.419c7.85742 115.495 25.6953 230.367 31.2412 345.958c1.11133 23.2051 6.88086 50.8896 0.632812 73.7432c-7.57324 27.7129 -43.3486 27.2373 -65.0117 19.4561c-46.6045 -16.7393 -79.0205 -64.4648 -89.4316 -111.271
c-2.69824 -12.1289 -21.8164 -9.71191 -19.2842 2.60547c11.3984 55.4326 49.21 112.392 105.157 130.674z" />
    <glyph glyph-name="O" unicode="O" horiz-adv-x="516" 
d="M252.727 -180.806c-21.5029 -28.7188 -51.1338 -49.2646 -87.9053 -38.8848c-37.0107 10.4404 -70.5508 35.2295 -82.335 72.3711c-27.2148 85.7637 -10.7656 182.687 4.63965 269.315c10.6699 59.9922 23.7217 119.809 34.6924 179.877
c-28.6582 32.0137 -44.4336 72.1982 -29.4248 118.506c7.26953 22.4326 20.9277 41.7676 38.2227 56.3555c-4.28125 0.762695 -9.08008 0.44043 -13.0713 -0.0195312c-38.5977 -4.45996 -70.7461 -40.8604 -84.9189 -74.582
c-5.49121 -13.0713 -25.5127 -4.6582 -20.2705 8.43262c18.4258 46.0049 72.0771 102.839 127.347 89.7266c5.87793 -1.39551 12.3525 -3.42285 18.5977 -5.78516c31.7842 14.9297 69.3281 16.0342 102.197 -3.41016c65.6621 -38.8467 91.4688 -122.631 99.502 -193.954
c3.07129 -27.292 4.33594 -54.9287 4.06445 -82.6289c45.6377 -12.002 91.8848 -21.9062 137.563 -31.9502c15.9287 -3.49902 12.5859 -28.7188 -3.40625 -25.2158c-44.8867 9.83691 -90.1318 19.6387 -134.856 31.2637
c-2.16113 -48.8721 -8.95508 -97.6738 -19.2324 -144.866c-17.0684 -78.3691 -42.7734 -159.597 -91.4053 -224.551zM316.098 41.5449c11.3027 49.6699 19.2363 101.838 21.3975 154.014c-42.001 11.7178 -83.3789 25.4053 -123.378 42.6816
c-1.89648 0.817383 -3.80273 1.67578 -5.71191 2.54395c-2.72949 -23.3682 -6.10059 -46.7266 -9.86816 -70.2188c-9.95508 -62.0576 -20.4336 -124.374 -25.5264 -187.064c-2.49707 -30.7432 -5.33496 -62.0801 -5.24902 -92.9346
c0.0283203 -10.833 2.4834 -29.3096 2.40039 -43.1953c-0.0410156 -7.40039 1.63867 -13.0195 3.19043 -22.2598c3.20898 -5.48828 6.60645 -10.4375 13.5859 -11.9609c12.3594 -2.69824 22.9756 4.15625 31.6914 12.1094c18.9521 17.2988 33.2461 40.8809 44.8008 63.5078
c24.4658 47.9043 40.7646 100.464 52.667 152.777zM276.07 444.92c-24.7568 27.3936 -57.6006 41.208 -90.4346 32.7188c5.33496 -6.12695 9.34863 -13.4414 12.7998 -21.1777c12.9023 -28.9326 16.7109 -61.7188 17.0625 -92.9531
c0.364258 -32.3076 -1.26367 -64.1367 -4.24609 -95.8408c0.893555 -0.421875 1.78125 -0.859375 2.6748 -1.27148c39.9893 -18.4385 81.7119 -32.7451 124.179 -44.8135c0.102539 35.5293 -2.68164 70.8701 -9.18848 105.228
c-7.99512 42.2021 -23.6299 85.7832 -52.8467 118.11zM119.248 353.146c2.36621 -6.12988 5.25879 -11.8867 8.50879 -17.3721c2.71387 16.2734 5.21387 32.5693 7.41016 48.9004c2.82227 20.9736 13.1924 42.3428 9.63867 63.8555
c-0.258789 1.56445 -0.485352 3.34277 -0.72168 5.21387c-27.2979 -25.7627 -39.0693 -63.7246 -24.8359 -100.598z" />
    <glyph glyph-name="O" unicode="&#xd6;" horiz-adv-x="516" 
d="M252.727 -180.806c-21.5029 -28.7188 -51.1338 -49.2646 -87.9053 -38.8848c-37.0107 10.4404 -70.5508 35.2295 -82.335 72.3711c-27.2148 85.7637 -10.7656 182.687 4.63965 269.315c10.6699 59.9922 23.7217 119.809 34.6924 179.877
c-28.6582 32.0137 -44.4336 72.1982 -29.4248 118.506c7.26953 22.4326 20.9277 41.7676 38.2227 56.3555c-4.28125 0.762695 -9.08008 0.44043 -13.0713 -0.0195312c-38.5977 -4.45996 -70.7461 -40.8604 -84.9189 -74.582
c-5.49121 -13.0713 -25.5127 -4.6582 -20.2705 8.43262c18.4258 46.0049 72.0771 102.839 127.347 89.7266c5.87793 -1.39551 12.3525 -3.42285 18.5977 -5.78516c31.7842 14.9297 69.3281 16.0342 102.197 -3.41016c65.6621 -38.8467 91.4688 -122.631 99.502 -193.954
c3.07129 -27.292 4.33594 -54.9287 4.06445 -82.6289c45.6377 -12.002 91.8848 -21.9062 137.563 -31.9502c15.9287 -3.49902 12.5859 -28.7188 -3.40625 -25.2158c-44.8867 9.83691 -90.1318 19.6387 -134.856 31.2637
c-2.16113 -48.8721 -8.95508 -97.6738 -19.2324 -144.866c-17.0684 -78.3691 -42.7734 -159.597 -91.4053 -224.551zM316.098 41.5449c11.3027 49.6699 19.2363 101.838 21.3975 154.014c-42.001 11.7178 -83.3789 25.4053 -123.378 42.6816
c-1.89648 0.817383 -3.80273 1.67578 -5.71191 2.54395c-2.72949 -23.3682 -6.10059 -46.7266 -9.86816 -70.2188c-9.95508 -62.0576 -20.4336 -124.374 -25.5264 -187.064c-2.49707 -30.7432 -5.33496 -62.0801 -5.24902 -92.9346
c0.0283203 -10.833 2.4834 -29.3096 2.40039 -43.1953c-0.0410156 -7.40039 1.63867 -13.0195 3.19043 -22.2598c3.20898 -5.48828 6.60645 -10.4375 13.5859 -11.9609c12.3594 -2.69824 22.9756 4.15625 31.6914 12.1094c18.9521 17.2988 33.2461 40.8809 44.8008 63.5078
c24.4658 47.9043 40.7646 100.464 52.667 152.777zM276.07 444.92c-24.7568 27.3936 -57.6006 41.208 -90.4346 32.7188c5.33496 -6.12695 9.34863 -13.4414 12.7998 -21.1777c12.9023 -28.9326 16.7109 -61.7188 17.0625 -92.9531
c0.364258 -32.3076 -1.26367 -64.1367 -4.24609 -95.8408c0.893555 -0.421875 1.78125 -0.859375 2.6748 -1.27148c39.9893 -18.4385 81.7119 -32.7451 124.179 -44.8135c0.102539 35.5293 -2.68164 70.8701 -9.18848 105.228
c-7.99512 42.2021 -23.6299 85.7832 -52.8467 118.11zM119.248 353.146c2.36621 -6.12988 5.25879 -11.8867 8.50879 -17.3721c2.71387 16.2734 5.21387 32.5693 7.41016 48.9004c2.82227 20.9736 13.1924 42.3428 9.63867 63.8555
c-0.258789 1.56445 -0.485352 3.34277 -0.72168 5.21387c-27.2979 -25.7627 -39.0693 -63.7246 -24.8359 -100.598z" />
    <glyph glyph-name="O" unicode="&#xd5;" horiz-adv-x="516" 
d="M252.727 -180.806c-21.5029 -28.7188 -51.1338 -49.2646 -87.9053 -38.8848c-37.0107 10.4404 -70.5508 35.2295 -82.335 72.3711c-27.2148 85.7637 -10.7656 182.687 4.63965 269.315c10.6699 59.9922 23.7217 119.809 34.6924 179.877
c-28.6582 32.0137 -44.4336 72.1982 -29.4248 118.506c7.26953 22.4326 20.9277 41.7676 38.2227 56.3555c-4.28125 0.762695 -9.08008 0.44043 -13.0713 -0.0195312c-38.5977 -4.45996 -70.7461 -40.8604 -84.9189 -74.582
c-5.49121 -13.0713 -25.5127 -4.6582 -20.2705 8.43262c18.4258 46.0049 72.0771 102.839 127.347 89.7266c5.87793 -1.39551 12.3525 -3.42285 18.5977 -5.78516c31.7842 14.9297 69.3281 16.0342 102.197 -3.41016c65.6621 -38.8467 91.4688 -122.631 99.502 -193.954
c3.07129 -27.292 4.33594 -54.9287 4.06445 -82.6289c45.6377 -12.002 91.8848 -21.9062 137.563 -31.9502c15.9287 -3.49902 12.5859 -28.7188 -3.40625 -25.2158c-44.8867 9.83691 -90.1318 19.6387 -134.856 31.2637
c-2.16113 -48.8721 -8.95508 -97.6738 -19.2324 -144.866c-17.0684 -78.3691 -42.7734 -159.597 -91.4053 -224.551zM316.098 41.5449c11.3027 49.6699 19.2363 101.838 21.3975 154.014c-42.001 11.7178 -83.3789 25.4053 -123.378 42.6816
c-1.89648 0.817383 -3.80273 1.67578 -5.71191 2.54395c-2.72949 -23.3682 -6.10059 -46.7266 -9.86816 -70.2188c-9.95508 -62.0576 -20.4336 -124.374 -25.5264 -187.064c-2.49707 -30.7432 -5.33496 -62.0801 -5.24902 -92.9346
c0.0283203 -10.833 2.4834 -29.3096 2.40039 -43.1953c-0.0410156 -7.40039 1.63867 -13.0195 3.19043 -22.2598c3.20898 -5.48828 6.60645 -10.4375 13.5859 -11.9609c12.3594 -2.69824 22.9756 4.15625 31.6914 12.1094c18.9521 17.2988 33.2461 40.8809 44.8008 63.5078
c24.4658 47.9043 40.7646 100.464 52.667 152.777zM276.07 444.92c-24.7568 27.3936 -57.6006 41.208 -90.4346 32.7188c5.33496 -6.12695 9.34863 -13.4414 12.7998 -21.1777c12.9023 -28.9326 16.7109 -61.7188 17.0625 -92.9531
c0.364258 -32.3076 -1.26367 -64.1367 -4.24609 -95.8408c0.893555 -0.421875 1.78125 -0.859375 2.6748 -1.27148c39.9893 -18.4385 81.7119 -32.7451 124.179 -44.8135c0.102539 35.5293 -2.68164 70.8701 -9.18848 105.228
c-7.99512 42.2021 -23.6299 85.7832 -52.8467 118.11zM119.248 353.146c2.36621 -6.12988 5.25879 -11.8867 8.50879 -17.3721c2.71387 16.2734 5.21387 32.5693 7.41016 48.9004c2.82227 20.9736 13.1924 42.3428 9.63867 63.8555
c-0.258789 1.56445 -0.485352 3.34277 -0.72168 5.21387c-27.2979 -25.7627 -39.0693 -63.7246 -24.8359 -100.598z" />
    <glyph glyph-name="O" unicode="&#xd4;" horiz-adv-x="516" 
d="M252.727 -180.806c-21.5029 -28.7188 -51.1338 -49.2646 -87.9053 -38.8848c-37.0107 10.4404 -70.5508 35.2295 -82.335 72.3711c-27.2148 85.7637 -10.7656 182.687 4.63965 269.315c10.6699 59.9922 23.7217 119.809 34.6924 179.877
c-28.6582 32.0137 -44.4336 72.1982 -29.4248 118.506c7.26953 22.4326 20.9277 41.7676 38.2227 56.3555c-4.28125 0.762695 -9.08008 0.44043 -13.0713 -0.0195312c-38.5977 -4.45996 -70.7461 -40.8604 -84.9189 -74.582
c-5.49121 -13.0713 -25.5127 -4.6582 -20.2705 8.43262c18.4258 46.0049 72.0771 102.839 127.347 89.7266c5.87793 -1.39551 12.3525 -3.42285 18.5977 -5.78516c31.7842 14.9297 69.3281 16.0342 102.197 -3.41016c65.6621 -38.8467 91.4688 -122.631 99.502 -193.954
c3.07129 -27.292 4.33594 -54.9287 4.06445 -82.6289c45.6377 -12.002 91.8848 -21.9062 137.563 -31.9502c15.9287 -3.49902 12.5859 -28.7188 -3.40625 -25.2158c-44.8867 9.83691 -90.1318 19.6387 -134.856 31.2637
c-2.16113 -48.8721 -8.95508 -97.6738 -19.2324 -144.866c-17.0684 -78.3691 -42.7734 -159.597 -91.4053 -224.551zM316.098 41.5449c11.3027 49.6699 19.2363 101.838 21.3975 154.014c-42.001 11.7178 -83.3789 25.4053 -123.378 42.6816
c-1.89648 0.817383 -3.80273 1.67578 -5.71191 2.54395c-2.72949 -23.3682 -6.10059 -46.7266 -9.86816 -70.2188c-9.95508 -62.0576 -20.4336 -124.374 -25.5264 -187.064c-2.49707 -30.7432 -5.33496 -62.0801 -5.24902 -92.9346
c0.0283203 -10.833 2.4834 -29.3096 2.40039 -43.1953c-0.0410156 -7.40039 1.63867 -13.0195 3.19043 -22.2598c3.20898 -5.48828 6.60645 -10.4375 13.5859 -11.9609c12.3594 -2.69824 22.9756 4.15625 31.6914 12.1094c18.9521 17.2988 33.2461 40.8809 44.8008 63.5078
c24.4658 47.9043 40.7646 100.464 52.667 152.777zM276.07 444.92c-24.7568 27.3936 -57.6006 41.208 -90.4346 32.7188c5.33496 -6.12695 9.34863 -13.4414 12.7998 -21.1777c12.9023 -28.9326 16.7109 -61.7188 17.0625 -92.9531
c0.364258 -32.3076 -1.26367 -64.1367 -4.24609 -95.8408c0.893555 -0.421875 1.78125 -0.859375 2.6748 -1.27148c39.9893 -18.4385 81.7119 -32.7451 124.179 -44.8135c0.102539 35.5293 -2.68164 70.8701 -9.18848 105.228
c-7.99512 42.2021 -23.6299 85.7832 -52.8467 118.11zM119.248 353.146c2.36621 -6.12988 5.25879 -11.8867 8.50879 -17.3721c2.71387 16.2734 5.21387 32.5693 7.41016 48.9004c2.82227 20.9736 13.1924 42.3428 9.63867 63.8555
c-0.258789 1.56445 -0.485352 3.34277 -0.72168 5.21387c-27.2979 -25.7627 -39.0693 -63.7246 -24.8359 -100.598z" />
    <glyph glyph-name="O" unicode="&#xd3;" horiz-adv-x="516" 
d="M252.727 -180.806c-21.5029 -28.7188 -51.1338 -49.2646 -87.9053 -38.8848c-37.0107 10.4404 -70.5508 35.2295 -82.335 72.3711c-27.2148 85.7637 -10.7656 182.687 4.63965 269.315c10.6699 59.9922 23.7217 119.809 34.6924 179.877
c-28.6582 32.0137 -44.4336 72.1982 -29.4248 118.506c7.26953 22.4326 20.9277 41.7676 38.2227 56.3555c-4.28125 0.762695 -9.08008 0.44043 -13.0713 -0.0195312c-38.5977 -4.45996 -70.7461 -40.8604 -84.9189 -74.582
c-5.49121 -13.0713 -25.5127 -4.6582 -20.2705 8.43262c18.4258 46.0049 72.0771 102.839 127.347 89.7266c5.87793 -1.39551 12.3525 -3.42285 18.5977 -5.78516c31.7842 14.9297 69.3281 16.0342 102.197 -3.41016c65.6621 -38.8467 91.4688 -122.631 99.502 -193.954
c3.07129 -27.292 4.33594 -54.9287 4.06445 -82.6289c45.6377 -12.002 91.8848 -21.9062 137.563 -31.9502c15.9287 -3.49902 12.5859 -28.7188 -3.40625 -25.2158c-44.8867 9.83691 -90.1318 19.6387 -134.856 31.2637
c-2.16113 -48.8721 -8.95508 -97.6738 -19.2324 -144.866c-17.0684 -78.3691 -42.7734 -159.597 -91.4053 -224.551zM316.098 41.5449c11.3027 49.6699 19.2363 101.838 21.3975 154.014c-42.001 11.7178 -83.3789 25.4053 -123.378 42.6816
c-1.89648 0.817383 -3.80273 1.67578 -5.71191 2.54395c-2.72949 -23.3682 -6.10059 -46.7266 -9.86816 -70.2188c-9.95508 -62.0576 -20.4336 -124.374 -25.5264 -187.064c-2.49707 -30.7432 -5.33496 -62.0801 -5.24902 -92.9346
c0.0283203 -10.833 2.4834 -29.3096 2.40039 -43.1953c-0.0410156 -7.40039 1.63867 -13.0195 3.19043 -22.2598c3.20898 -5.48828 6.60645 -10.4375 13.5859 -11.9609c12.3594 -2.69824 22.9756 4.15625 31.6914 12.1094c18.9521 17.2988 33.2461 40.8809 44.8008 63.5078
c24.4658 47.9043 40.7646 100.464 52.667 152.777zM276.07 444.92c-24.7568 27.3936 -57.6006 41.208 -90.4346 32.7188c5.33496 -6.12695 9.34863 -13.4414 12.7998 -21.1777c12.9023 -28.9326 16.7109 -61.7188 17.0625 -92.9531
c0.364258 -32.3076 -1.26367 -64.1367 -4.24609 -95.8408c0.893555 -0.421875 1.78125 -0.859375 2.6748 -1.27148c39.9893 -18.4385 81.7119 -32.7451 124.179 -44.8135c0.102539 35.5293 -2.68164 70.8701 -9.18848 105.228
c-7.99512 42.2021 -23.6299 85.7832 -52.8467 118.11zM119.248 353.146c2.36621 -6.12988 5.25879 -11.8867 8.50879 -17.3721c2.71387 16.2734 5.21387 32.5693 7.41016 48.9004c2.82227 20.9736 13.1924 42.3428 9.63867 63.8555
c-0.258789 1.56445 -0.485352 3.34277 -0.72168 5.21387c-27.2979 -25.7627 -39.0693 -63.7246 -24.8359 -100.598z" />
    <glyph glyph-name="P" unicode="P" horiz-adv-x="569" 
d="M258.562 -115.089c-4.20801 -26.1836 -26.0938 -45.2998 -52.4785 -45.1533c-24.8076 0.133789 -50.1777 19.6289 -51.9209 45.7871c-4.62988 69.4199 3.58789 140.152 8.30078 209.419c7.85742 115.495 25.6953 230.367 31.2412 345.958
c1.11426 23.2051 6.88086 50.8896 0.632812 73.7432c-7.57324 27.7129 -43.3486 27.2373 -65.0117 19.4561c-46.6045 -16.7393 -79.0205 -64.4648 -89.4316 -111.271c-2.69824 -12.1289 -21.8164 -9.71191 -19.2842 2.60547c11.3984 55.4326 49.21 112.392 105.157 130.674
c21.7842 7.12012 46.0303 7.89258 66.2598 -4.06738c21.2061 -12.5381 36.71 -35.8643 47.1787 -57.5723c28.3291 -58.7471 28.2842 -129.294 29.4971 -193.06c0.587891 -30.8936 0.910156 -61.8438 1.00586 -92.8008c4.16992 24.2461 8.84375 48.4023 14.252 72.377
c9.24316 40.9795 20.8008 81.623 37.0293 120.422c14.9297 35.6924 33.1895 73.8652 61.2764 101.167c25.082 24.3799 57.0928 33.5752 89.4863 18.333c41.6562 -19.6006 41.1426 -71.2598 37.5381 -110.646c-6.2002 -67.7568 -37.5146 -131.178 -74.793 -188.476
c46.1104 12.1836 94.3721 11.1904 136.874 -16.2832c13.2529 -8.56641 -1.92578 -27.6367 -15.0508 -19.2617c-45.1709 28.8213 -98.1807 20.2842 -145.434 0.964844c-2.65332 -3.72949 -5.3125 -7.43359 -7.97852 -11.0986
c-25.3125 -34.8174 -51.9053 -67.8398 -84.0723 -96.6543c-14.5938 -13.0713 -31.3174 -23.6201 -48.459 -33.0898c-0.194336 -1.91211 -0.423828 -3.82129 -0.615234 -5.7334c-0.59082 -5.85547 -1.27734 -11.7334 -1.92188 -17.624
c-0.600586 -46.3242 -2.01172 -92.8906 -9.27832 -138.116zM362.638 432.236c-35.0342 -64.9883 -53.2539 -137.221 -66.7754 -209.336c-2.81641 -15.0156 -5.40918 -30.0723 -7.89648 -45.1455c17.3652 20.4141 34.1562 41.3613 50.2031 62.7529
c42.0039 55.9951 76.0967 112.235 101.405 177.655c6.69238 17.292 13.748 35.0625 16.1074 53.5674c0.855469 6.71484 2.4873 16.1143 0.268555 22.7461c-3.2627 9.74707 -13.1797 10.2607 -22.3525 8.96777c-34.2939 -4.83398 -56.1738 -43.7822 -70.96 -71.208z" />
    <glyph glyph-name="Q" unicode="Q" horiz-adv-x="516" 
d="M226.303 -207.603c-17.4102 -12.6914 -37.9795 -18.7217 -61.4814 -12.0898c-37.0078 10.4404 -70.5479 35.2295 -82.3359 72.3711c-27.2148 85.7637 -10.7686 182.687 4.63965 269.315c10.6699 59.9922 23.7217 119.809 34.6924 179.877
c-28.6582 32.0137 -44.4336 72.1982 -29.4248 118.506c7.26953 22.4326 20.9277 41.7676 38.2227 56.3555c-4.28125 0.762695 -9.08008 0.44043 -13.0713 -0.0195312c-38.5977 -4.45996 -70.7461 -40.8604 -84.9189 -74.582
c-5.49121 -13.0713 -25.5127 -4.6582 -20.2705 8.43262c18.4258 46.0049 72.0771 102.839 127.347 89.7266c5.87793 -1.39551 12.3525 -3.42285 18.5977 -5.78516c31.7842 14.9297 69.3281 16.0342 102.197 -3.41016c65.6621 -38.8467 91.4688 -122.631 99.502 -193.954
c3.07129 -27.292 4.33594 -54.9287 4.06445 -82.6289c45.6377 -12.002 91.8848 -21.9062 137.563 -31.9502c15.9287 -3.49902 12.5859 -28.7188 -3.40625 -25.2158c-44.8867 9.83691 -90.1318 19.6387 -134.856 31.2637
c-2.16113 -48.8721 -8.95508 -97.6738 -19.2324 -144.866c-17.0684 -78.3691 -42.7734 -159.597 -91.4053 -224.55c-3.05273 -4.07422 -6.28418 -7.95996 -9.66211 -11.6416c1.59277 -4.79199 3.02344 -9.22656 4.28809 -13.0615
c15.4756 -46.9883 41.6914 -139.403 107.315 -131.405c13.8154 1.68262 16.1299 -18.8789 2.61523 -21.293c-56.502 -10.0928 -93.9336 48.0732 -111.736 93.1777c-7.41992 18.7959 -13.1445 38.1758 -19.2432 57.4277zM316.098 41.5459
c11.3027 49.6699 19.2422 101.837 21.4004 154.007c-42.001 11.7178 -83.3789 25.4053 -123.378 42.6816c-1.89648 0.817383 -3.80273 1.67578 -5.70898 2.54395c-2.7334 -23.3682 -6.10156 -46.7266 -9.86914 -70.2188
c-9.95801 -62.0576 -20.4336 -124.374 -25.5264 -187.064c-2.34668 -28.8818 -4.96191 -58.2812 -5.20117 -87.3164c30.2354 4.94531 50.3496 -26.127 63.6855 -57.4443c12.7803 15.1182 23.1504 32.8447 31.9307 50.0342c24.4658 47.9043 40.7646 100.464 52.667 152.777z
M276.075 444.92c-24.7598 27.3936 -57.6006 41.207 -90.4346 32.7178c5.33496 -6.12695 9.34863 -13.4414 12.7998 -21.1777c12.9023 -28.9326 16.7109 -61.7188 17.0625 -92.9531c0.364258 -32.3076 -1.26367 -64.1328 -4.24609 -95.8398
c0.890625 -0.421875 1.78125 -0.859375 2.6748 -1.27148c39.9893 -18.4385 81.7119 -32.7451 124.179 -44.8135c0.102539 35.5293 -2.68164 70.8701 -9.18848 105.228c-7.99512 42.2021 -23.6299 85.7832 -52.8467 118.11zM119.253 353.146
c2.36621 -6.12988 5.25488 -11.8867 8.50879 -17.3721c2.71387 16.2734 5.21387 32.5693 7.41016 48.9004c2.82227 20.9736 13.1924 42.3428 9.63867 63.8555c-0.258789 1.56445 -0.485352 3.34277 -0.72168 5.21387c-27.2979 -25.7627 -39.0693 -63.7246 -24.8359 -100.598
zM173.354 -174.894c3.21191 -5.48828 6.60938 -10.4365 13.5859 -11.96c11.1396 -2.42969 20.8613 2.9082 29.0576 9.81055c-8.05859 22.4102 -22.5986 57.6738 -47.4834 53.4307c0.724609 -9.42871 1.70508 -20.1533 1.65039 -29.0225
c-0.0419922 -7.40039 1.6377 -13.0225 3.18945 -22.2588z" />
    <glyph glyph-name="R" unicode="R" horiz-adv-x="595" 
d="M258.566 -115.089c-4.20508 -26.1836 -26.0898 -45.2979 -52.4814 -45.1543c-24.8076 0.133789 -50.1777 19.6289 -51.9209 45.7871c-4.62988 69.4199 3.58789 140.152 8.30078 209.419c7.85742 115.495 25.6953 230.367 31.2412 345.958
c1.11133 23.2051 6.88086 50.8896 0.632812 73.7432c-7.57324 27.7129 -43.3486 27.2373 -65.0117 19.4561c-46.6045 -16.7393 -79.0205 -64.4648 -89.4316 -111.271c-2.69824 -12.1289 -21.8164 -9.71191 -19.2842 2.60547c11.3984 55.4326 49.21 112.392 105.157 130.674
c21.7842 7.12012 46.0303 7.89258 66.2598 -4.06738c21.2061 -12.5381 36.71 -35.8643 47.1787 -57.5723c28.333 -58.7471 28.2852 -129.294 29.502 -193.06c0.459961 -24.0576 0.724609 -48.1504 0.890625 -72.249c4.77637 28.7637 10.1338 57.4287 16.3154 85.9404
c13.9268 64.2539 32.2275 145.04 84.9717 189.563c22.4639 18.9619 56.9365 26.5127 81.6074 7.05566c21.7012 -17.1162 36.79 -43.8975 40.708 -70.9688c10.7217 -74.126 -27.5439 -150.663 -66.1895 -211.476c-17.7393 -27.9141 -37.7871 -54.3662 -59.8877 -78.9697
c-19.6865 -21.915 -40.1553 -42.8496 -64.0693 -59.417c14.5498 -7.99121 26.8232 -21.7588 38.0391 -35.8613c25.1465 -31.6113 36.2832 -71.626 40.0918 -111.315c7.14551 -74.417 -5.22363 -147.206 2.31152 -220.049
c1.95703 -18.9199 3.05859 -37.4414 2.98242 -56.4834c-0.00976562 -2.07812 -0.706055 -11.915 -0.683594 -18.4414c0.676758 0.0898438 1.35645 0.179688 2.0332 0.269531c28.9678 13.585 43.5234 50.2598 55.4385 78.7197c29.3828 70.1797 48.1719 145.181 69.915 217.97
c22.8857 76.623 45.3018 153.39 67.9453 230.083c4.64844 15.7471 28.042 5.74414 23.4951 -9.77246c-26.043 -88.8867 -52.3164 -177.709 -77.9385 -266.717c-21.3916 -74.3115 -40.9277 -149.025 -73.085 -219.592c-12.7744 -28.0293 -28.3262 -64.7744 -58.0059 -78.3975
c-37.668 -17.2891 -72.3379 5.2168 -89.0293 39.4717c-17.5381 35.9951 -20.7217 76.2402 -21.0859 115.661c-0.382812 41.4551 4.44824 83.1172 11.6133 123.927c6.19043 35.2676 13.3936 71.126 13.5918 107.089c0.0957031 17.793 1.50098 37.0674 -1.99805 54.6211
c-3.51855 17.6523 -21.6152 32.8213 -40.3213 27.1416c-0.817383 -61.3174 -0.108398 -124.014 -9.79883 -184.322zM386.543 -357.167c-0.0576172 0.0224609 -0.262695 0.555664 -0.499023 1.23926c0.115234 -0.706055 0.27832 -1.16309 0.499023 -1.23926zM349.739 436.19
c-29.6836 -58.7344 -41.8721 -125.613 -53.3242 -189.846c-2.4043 -13.4795 -4.7002 -26.9854 -6.94824 -40.4971c1.56445 1.45605 3.1543 2.88672 4.70605 4.35547c0.246094 0.236328 2.10742 2.07812 3.10352 3.05859c21.7939 21.8828 41.876 45.5098 60.0107 70.5029
c16.4141 22.624 32.2021 46.04 44.8105 69.5547c14.3994 26.8574 29.3701 54.1045 37.1191 83.8164c6.09473 23.3584 14.6895 61.3145 -21.1592 61.6689c-32.9043 0.325195 -55.3594 -36.9697 -68.3184 -62.6143z" />
    <glyph glyph-name="S" unicode="S" horiz-adv-x="390" 
d="M383.282 216.266c12.6367 5.62207 20.5088 -14.2861 7.93848 -19.9375c-43.4922 -19.5332 -85.4424 -47.3135 -122.418 -81.0928c19.0127 -54.3027 34.1494 -110.447 38.9609 -167.495c3.32324 -39.3828 2.00488 -79.165 -5.74707 -117.986
c-6.77148 -33.9131 -15.5293 -67.4941 -40.5732 -92.7012c-11.3633 -11.4365 -26.4395 -11.7939 -40.4111 -17.8281c-11.8418 -5.11523 -25.2773 -7.11035 -38.0039 -4.7666c-26.6816 4.91699 -46.9082 25.6064 -57.7695 49.5488
c-27.4863 60.5957 -12.4297 138.34 10.9736 197.588c12.1006 30.6377 27.6523 59.7109 46.0557 86.8271c-32.7549 90.25 -80.7969 180.762 -87.9131 274.945c-34.6094 8.39746 -66.3105 28.2471 -89.5537 56.1738c-9.69043 11.6406 9.08984 25.3857 18.8311 13.9775
c18.7412 -21.9531 43.2842 -37.2051 69.8252 -45.002c0.140625 22.6016 2.87695 45.4297 8.99707 68.5293c14.6035 55.1387 43.2236 126.864 110.482 130.341c63.7119 3.29492 90.167 -62.6104 73.0635 -116.083c-14.9102 -46.6172 -53.0537 -84.2021 -98.4385 -101.73
c19.0293 -55.5156 41.3721 -110.176 62.7441 -164.711c3.55664 -9.07715 7.05273 -18.2178 10.4658 -27.416c36.5186 32.2471 77.9385 58.999 122.49 78.8193zM157.332 456.932c-2.20898 -32.5498 10.0059 -64.625 19.6387 -95.2627
c1.21973 -3.87598 2.52246 -7.72949 3.78027 -11.5928c11.3379 3.87891 22.3115 9.23926 32.6016 16.2217c29.8359 20.2451 53.3223 51.9365 58.0859 88.3408c4.93945 37.7383 -20.9795 81.4092 -63.8779 69.7236c-31.6309 -8.61719 -48.1025 -36.1133 -50.2285 -67.4307z
M222.796 -220.476c4.43457 34.4658 3.48926 69.1367 -1.16602 103.574c-4.81836 35.666 -12.5225 74.4102 -20.3516 104.972c-2.99121 11.6758 -6.45508 23.3389 -10.2549 35.0049c-32.873 -51.9492 -53.8203 -110.431 -56.25 -171.374
c-1.32812 -33.3457 1.50098 -77.9131 28.2432 -101.814c10.1055 -9.0293 38.9775 -22.3369 50.2861 -7.10449c3.03027 4.08398 2.52539 11.127 4.08984 16.3379c2.08203 6.9375 4.4707 13.1602 5.40332 20.4043z" />
    <glyph glyph-name="T" unicode="T" horiz-adv-x="537" 
d="M682.051 704.183c-2.10059 -16.293 -27.3125 -12.8135 -25.2305 3.40918c3.24414 25.1523 -16.2031 46.3584 -38.7979 54.458c-29.6611 10.6318 -63.7402 1.39551 -92.5713 -7.44238c-51.918 -15.9131 -101.978 -37.707 -149.674 -63.6035
c-6.85156 -3.71973 -13.6328 -7.55469 -20.3818 -11.4404c6.06641 -45.5352 0.648438 -93.1836 -2.42285 -138.706c-2.96582 -43.9775 -5.39258 -87.9932 -7.27344 -132.031c-1.70215 -39.8174 -3.33398 -79.6436 -4.49609 -119.479
c-0.606445 -20.7852 -1.10156 -41.5732 -1.45312 -62.3643c-0.334961 -20.0029 -0.443359 -29.3574 -0.363281 -46.8027c0.351562 -78.0156 2.21973 -156.714 9.93652 -234.391c1.6543 -16.6406 1.08887 -35.666 5.95508 -51.7637
c5.29688 -17.5156 19.0293 -17.0273 32.832 -7.66016c28.1855 19.1279 46.7676 59.1016 61.5439 88.7178c31.9434 64.0273 51.8818 133.106 71.5908 201.626c3.65527 12.7168 22.3389 4.60352 18.8877 -7.85742c-23.4893 -84.7939 -47.7188 -170.494 -93.5381 -246.405
c-17.7773 -29.4531 -37.9521 -61.5977 -73.877 -69.2666c-17.3906 -3.70996 -32.6172 -4.81445 -49.2549 2.98242c-17.0781 8.00391 -31.2695 21.4004 -42.3965 36.4258c-14.2207 19.2041 -21.0693 45.1006 -27.0811 67.999
c-5.68945 21.6816 -11.1875 43.6924 -14.7891 65.8311c-6.85449 42.1602 -10.0693 85.1445 -11.251 127.803c-2.49023 89.9434 -1.28613 180.282 2.55176 270.171c1.92188 45.0879 4.42188 90.1475 7.4873 135.172c0.417969 6.12695 0.845703 12.2734 1.30566 18.4287
c-2.7207 6.06641 -6.24902 11.5967 -10.8594 15.7598c-34.332 -26.5254 -67.4502 -54.6504 -99.5889 -83.6377c-38.8301 -35.0215 -75.5059 -72.1816 -113.483 -108.088c-12.0498 -11.3887 -34.2559 -35.7715 -52.9814 -31.6689
c-18.3555 4.01953 -15.0186 24.3545 -8.6875 36.832c20.9893 41.3691 50.749 77.8691 83.7334 110.222c32.668 32.0391 68.7617 63.1553 108.809 85.6064c23.2559 13.0361 52.5078 24.9707 77.0508 18.7607c7.46484 5.65137 14.9775 11.2354 22.5664 16.7266
c3.2666 20.6475 7.89648 41.0205 14.9043 60.7266c7.19922 20.2422 31.0654 32.4541 51.6973 29.6729c15.4336 -2.08203 28.1152 -11.5361 35.5322 -24.3906c48.4346 27.5508 99.1611 51.043 152.018 68.6035c40.2061 13.3584 86.0156 27.5312 127.806 12.4268
c33.457 -12.0879 58.9189 -45.085 54.2451 -81.3613zM42.0752 463.39c49.0537 47.5566 99.5625 93.8438 152.993 136.461c-19.6064 -4.55566 -40.1738 -18.3447 -54.6494 -28.0381c-21.04 -14.0898 -40.7715 -30.2998 -59.7617 -47.0205
c-32.7578 -28.8438 -62.834 -61.0811 -86.7705 -97.6953c-1.08594 -1.65723 -6.04102 -11.2549 -10.7148 -19.875c2.99805 2.41406 5.94531 4.88867 8.81836 7.44922c17.3623 15.4629 33.3936 32.5342 50.085 48.7188z" />
    <glyph glyph-name="U" unicode="U" horiz-adv-x="567" 
d="M552.669 166.289c5.01562 15.3193 27.9512 5.55176 23.0371 -9.58496c-28.8945 -88.957 -55.0498 -178.903 -87.6133 -266.628c-11.8291 -31.8672 -23.3359 -65.8984 -46.333 -91.7471c-24.7822 -27.8564 -62.5273 -27.8662 -91.5273 -5.11816
c-62.7949 49.2646 -76.2236 143.713 -80.1826 217.887c-0.686523 12.8096 -1.17188 25.6572 -1.50684 38.5273c-10.1143 -42.2686 -21.0654 -84.4512 -34.1465 -125.887c-13.7861 -43.6738 -30.2451 -88.2129 -55.915 -126.469
c-21.791 -32.4736 -69.9824 -71.7734 -102.396 -28.5947c-16.8164 22.4033 -23.3105 52.042 -29.252 78.7363c-5.2998 23.8115 -7.74219 48.5908 -8.7002 72.9648c-4.05176 103.27 12.1738 207.951 28.0869 309.691c8.06836 51.5889 16.2861 103.12 23.6582 154.811
c3.5918 25.1816 10.4629 50.8418 11.5898 76.2471c1.40527 31.6914 -32.5342 20.8428 -49.3438 8.49023c-10.6475 -7.8252 -22.4131 8.17969 -12.1934 16.4268c17.9434 14.4795 42.1895 25.1211 65.0469 15.5781c23.1768 -9.67773 41.2539 -29.4727 49.3184 -52.9072
c9.37109 -27.2373 11.6475 -57.3799 12.9121 -85.9678c1.36621 -30.8545 1.35352 -61.5908 -0.163086 -92.4395c-2.88281 -58.6387 -10.1914 -116.74 -15.709 -175.158c-5.08887 -53.8779 -9.32227 -111.204 -9.33203 -162.014
c-0.00292969 -28.4473 -0.0830078 -56.8633 0.600586 -86.3164c0.351562 -15.0889 0.0478516 -30.0146 -0.59082 -45.0684c1.29297 0.833008 2.32129 1.50977 2.72656 1.87402c3.93359 3.53125 7.08496 7.80957 10.166 12.0723
c7.80273 10.8047 14.5264 22.4775 20.6943 34.2744c11.4209 21.8418 20.7441 44.5518 28.7041 67.8623c17.6621 51.7256 31.04 105.032 43.4951 158.214c8.46094 36.126 16.1426 72.415 23.3809 108.793c1.86816 29.1943 4.53711 58.293 8.00488 87.1523
c4.94531 41.1357 10.4658 82.1406 16.542 123.123c3.35254 22.6211 5.78516 45.1074 11.7236 67.1982c2.6377 9.82129 4.81836 21.0371 9.1123 30.251c3.72949 8.00098 9.82129 14.8818 14.8184 22.0654c4.04199 5.81055 13.9521 5.64453 17.8604 -0.217773
c6.15918 -9.24023 11.999 -17.2031 15.5107 -27.7773c3.29785 -9.92285 5.23242 -20.5225 7.24414 -30.752c3.93945 -20.041 3.53711 -40.8516 4.18164 -61.2529c1.42676 -45.2705 0.74707 -90.4893 0.216797 -135.77c-0.875 -75.2441 -5.12793 -144.454 -1.80762 -219.385
c1.64062 -37.0361 4.94824 -74.002 7.22168 -111c1.81641 -29.5332 5.4082 -60.1963 14.3545 -88.4844c1.59668 -5.05371 4.84961 -20.9629 8.87598 -24.4434c5.22949 -4.52051 5.72754 -3.07129 11.8262 1.32227c11.8896 8.56348 19.3799 22.0527 25.6572 34.9551
c15.6514 32.167 27.8252 66.3457 40.0312 99.9336c25.6895 70.7002 46.707 143.058 70.1133 214.531z" />
    <glyph glyph-name="U" unicode="&#xdc;" horiz-adv-x="567" 
d="M552.669 166.289c5.01562 15.3193 27.9512 5.55176 23.0371 -9.58496c-28.8945 -88.957 -55.0498 -178.903 -87.6133 -266.628c-11.8291 -31.8672 -23.3359 -65.8984 -46.333 -91.7471c-24.7822 -27.8564 -62.5273 -27.8662 -91.5273 -5.11816
c-62.7949 49.2646 -76.2236 143.713 -80.1826 217.887c-0.686523 12.8096 -1.17188 25.6572 -1.50684 38.5273c-10.1143 -42.2686 -21.0654 -84.4512 -34.1465 -125.887c-13.7861 -43.6738 -30.2451 -88.2129 -55.915 -126.469
c-21.791 -32.4736 -69.9824 -71.7734 -102.396 -28.5947c-16.8164 22.4033 -23.3105 52.042 -29.252 78.7363c-5.2998 23.8115 -7.74219 48.5908 -8.7002 72.9648c-4.05176 103.27 12.1738 207.951 28.0869 309.691c8.06836 51.5889 16.2861 103.12 23.6582 154.811
c3.5918 25.1816 10.4629 50.8418 11.5898 76.2471c1.40527 31.6914 -32.5342 20.8428 -49.3438 8.49023c-10.6475 -7.8252 -22.4131 8.17969 -12.1934 16.4268c17.9434 14.4795 42.1895 25.1211 65.0469 15.5781c23.1768 -9.67773 41.2539 -29.4727 49.3184 -52.9072
c9.37109 -27.2373 11.6475 -57.3799 12.9121 -85.9678c1.36621 -30.8545 1.35352 -61.5908 -0.163086 -92.4395c-2.88281 -58.6387 -10.1914 -116.74 -15.709 -175.158c-5.08887 -53.8779 -9.32227 -111.204 -9.33203 -162.014
c-0.00292969 -28.4473 -0.0830078 -56.8633 0.600586 -86.3164c0.351562 -15.0889 0.0478516 -30.0146 -0.59082 -45.0684c1.29297 0.833008 2.32129 1.50977 2.72656 1.87402c3.93359 3.53125 7.08496 7.80957 10.166 12.0723
c7.80273 10.8047 14.5264 22.4775 20.6943 34.2744c11.4209 21.8418 20.7441 44.5518 28.7041 67.8623c17.6621 51.7256 31.04 105.032 43.4951 158.214c8.46094 36.126 16.1426 72.415 23.3809 108.793c1.86816 29.1943 4.53711 58.293 8.00488 87.1523
c4.94531 41.1357 10.4658 82.1406 16.542 123.123c3.35254 22.6211 5.78516 45.1074 11.7236 67.1982c2.6377 9.82129 4.81836 21.0371 9.1123 30.251c3.72949 8.00098 9.82129 14.8818 14.8184 22.0654c4.04199 5.81055 13.9521 5.64453 17.8604 -0.217773
c6.15918 -9.24023 11.999 -17.2031 15.5107 -27.7773c3.29785 -9.92285 5.23242 -20.5225 7.24414 -30.752c3.93945 -20.041 3.53711 -40.8516 4.18164 -61.2529c1.42676 -45.2705 0.74707 -90.4893 0.216797 -135.77c-0.875 -75.2441 -5.12793 -144.454 -1.80762 -219.385
c1.64062 -37.0361 4.94824 -74.002 7.22168 -111c1.81641 -29.5332 5.4082 -60.1963 14.3545 -88.4844c1.59668 -5.05371 4.84961 -20.9629 8.87598 -24.4434c5.22949 -4.52051 5.72754 -3.07129 11.8262 1.32227c11.8896 8.56348 19.3799 22.0527 25.6572 34.9551
c15.6514 32.167 27.8252 66.3457 40.0312 99.9336c25.6895 70.7002 46.707 143.058 70.1133 214.531z" />
    <glyph glyph-name="U" unicode="&#xdb;" horiz-adv-x="567" 
d="M552.669 166.289c5.01562 15.3193 27.9512 5.55176 23.0371 -9.58496c-28.8945 -88.957 -55.0498 -178.903 -87.6133 -266.628c-11.8291 -31.8672 -23.3359 -65.8984 -46.333 -91.7471c-24.7822 -27.8564 -62.5273 -27.8662 -91.5273 -5.11816
c-62.7949 49.2646 -76.2236 143.713 -80.1826 217.887c-0.686523 12.8096 -1.17188 25.6572 -1.50684 38.5273c-10.1143 -42.2686 -21.0654 -84.4512 -34.1465 -125.887c-13.7861 -43.6738 -30.2451 -88.2129 -55.915 -126.469
c-21.791 -32.4736 -69.9824 -71.7734 -102.396 -28.5947c-16.8164 22.4033 -23.3105 52.042 -29.252 78.7363c-5.2998 23.8115 -7.74219 48.5908 -8.7002 72.9648c-4.05176 103.27 12.1738 207.951 28.0869 309.691c8.06836 51.5889 16.2861 103.12 23.6582 154.811
c3.5918 25.1816 10.4629 50.8418 11.5898 76.2471c1.40527 31.6914 -32.5342 20.8428 -49.3438 8.49023c-10.6475 -7.8252 -22.4131 8.17969 -12.1934 16.4268c17.9434 14.4795 42.1895 25.1211 65.0469 15.5781c23.1768 -9.67773 41.2539 -29.4727 49.3184 -52.9072
c9.37109 -27.2373 11.6475 -57.3799 12.9121 -85.9678c1.36621 -30.8545 1.35352 -61.5908 -0.163086 -92.4395c-2.88281 -58.6387 -10.1914 -116.74 -15.709 -175.158c-5.08887 -53.8779 -9.32227 -111.204 -9.33203 -162.014
c-0.00292969 -28.4473 -0.0830078 -56.8633 0.600586 -86.3164c0.351562 -15.0889 0.0478516 -30.0146 -0.59082 -45.0684c1.29297 0.833008 2.32129 1.50977 2.72656 1.87402c3.93359 3.53125 7.08496 7.80957 10.166 12.0723
c7.80273 10.8047 14.5264 22.4775 20.6943 34.2744c11.4209 21.8418 20.7441 44.5518 28.7041 67.8623c17.6621 51.7256 31.04 105.032 43.4951 158.214c8.46094 36.126 16.1426 72.415 23.3809 108.793c1.86816 29.1943 4.53711 58.293 8.00488 87.1523
c4.94531 41.1357 10.4658 82.1406 16.542 123.123c3.35254 22.6211 5.78516 45.1074 11.7236 67.1982c2.6377 9.82129 4.81836 21.0371 9.1123 30.251c3.72949 8.00098 9.82129 14.8818 14.8184 22.0654c4.04199 5.81055 13.9521 5.64453 17.8604 -0.217773
c6.15918 -9.24023 11.999 -17.2031 15.5107 -27.7773c3.29785 -9.92285 5.23242 -20.5225 7.24414 -30.752c3.93945 -20.041 3.53711 -40.8516 4.18164 -61.2529c1.42676 -45.2705 0.74707 -90.4893 0.216797 -135.77c-0.875 -75.2441 -5.12793 -144.454 -1.80762 -219.385
c1.64062 -37.0361 4.94824 -74.002 7.22168 -111c1.81641 -29.5332 5.4082 -60.1963 14.3545 -88.4844c1.59668 -5.05371 4.84961 -20.9629 8.87598 -24.4434c5.22949 -4.52051 5.72754 -3.07129 11.8262 1.32227c11.8896 8.56348 19.3799 22.0527 25.6572 34.9551
c15.6514 32.167 27.8252 66.3457 40.0312 99.9336c25.6895 70.7002 46.707 143.058 70.1133 214.531z" />
    <glyph glyph-name="U" unicode="&#xda;" horiz-adv-x="567" 
d="M552.669 166.289c5.01562 15.3193 27.9512 5.55176 23.0371 -9.58496c-28.8945 -88.957 -55.0498 -178.903 -87.6133 -266.628c-11.8291 -31.8672 -23.3359 -65.8984 -46.333 -91.7471c-24.7822 -27.8564 -62.5273 -27.8662 -91.5273 -5.11816
c-62.7949 49.2646 -76.2236 143.713 -80.1826 217.887c-0.686523 12.8096 -1.17188 25.6572 -1.50684 38.5273c-10.1143 -42.2686 -21.0654 -84.4512 -34.1465 -125.887c-13.7861 -43.6738 -30.2451 -88.2129 -55.915 -126.469
c-21.791 -32.4736 -69.9824 -71.7734 -102.396 -28.5947c-16.8164 22.4033 -23.3105 52.042 -29.252 78.7363c-5.2998 23.8115 -7.74219 48.5908 -8.7002 72.9648c-4.05176 103.27 12.1738 207.951 28.0869 309.691c8.06836 51.5889 16.2861 103.12 23.6582 154.811
c3.5918 25.1816 10.4629 50.8418 11.5898 76.2471c1.40527 31.6914 -32.5342 20.8428 -49.3438 8.49023c-10.6475 -7.8252 -22.4131 8.17969 -12.1934 16.4268c17.9434 14.4795 42.1895 25.1211 65.0469 15.5781c23.1768 -9.67773 41.2539 -29.4727 49.3184 -52.9072
c9.37109 -27.2373 11.6475 -57.3799 12.9121 -85.9678c1.36621 -30.8545 1.35352 -61.5908 -0.163086 -92.4395c-2.88281 -58.6387 -10.1914 -116.74 -15.709 -175.158c-5.08887 -53.8779 -9.32227 -111.204 -9.33203 -162.014
c-0.00292969 -28.4473 -0.0830078 -56.8633 0.600586 -86.3164c0.351562 -15.0889 0.0478516 -30.0146 -0.59082 -45.0684c1.29297 0.833008 2.32129 1.50977 2.72656 1.87402c3.93359 3.53125 7.08496 7.80957 10.166 12.0723
c7.80273 10.8047 14.5264 22.4775 20.6943 34.2744c11.4209 21.8418 20.7441 44.5518 28.7041 67.8623c17.6621 51.7256 31.04 105.032 43.4951 158.214c8.46094 36.126 16.1426 72.415 23.3809 108.793c1.86816 29.1943 4.53711 58.293 8.00488 87.1523
c4.94531 41.1357 10.4658 82.1406 16.542 123.123c3.35254 22.6211 5.78516 45.1074 11.7236 67.1982c2.6377 9.82129 4.81836 21.0371 9.1123 30.251c3.72949 8.00098 9.82129 14.8818 14.8184 22.0654c4.04199 5.81055 13.9521 5.64453 17.8604 -0.217773
c6.15918 -9.24023 11.999 -17.2031 15.5107 -27.7773c3.29785 -9.92285 5.23242 -20.5225 7.24414 -30.752c3.93945 -20.041 3.53711 -40.8516 4.18164 -61.2529c1.42676 -45.2705 0.74707 -90.4893 0.216797 -135.77c-0.875 -75.2441 -5.12793 -144.454 -1.80762 -219.385
c1.64062 -37.0361 4.94824 -74.002 7.22168 -111c1.81641 -29.5332 5.4082 -60.1963 14.3545 -88.4844c1.59668 -5.05371 4.84961 -20.9629 8.87598 -24.4434c5.22949 -4.52051 5.72754 -3.07129 11.8262 1.32227c11.8896 8.56348 19.3799 22.0527 25.6572 34.9551
c15.6514 32.167 27.8252 66.3457 40.0312 99.9336c25.6895 70.7002 46.707 143.058 70.1133 214.531z" />
    <glyph glyph-name="V" unicode="V" horiz-adv-x="419" 
d="M410 184.236c14.7949 -7.59863 4.87891 -31.5625 -9.96094 -23.9639c-37.1318 19.0254 -73.8994 39.2607 -109.885 60.8057c-1.6377 -29.0762 -4.1377 -58.1016 -7.17383 -86.9893c-8.97168 -85.3525 -22.1162 -170.28 -38.3672 -254.544
c-7.85742 -40.7305 -16.6055 -81.2852 -26.248 -121.629c-9.27148 -38.8047 -16.8066 -80.0264 -38.1953 -114.399c-10.3447 -16.625 -31.2959 -27.8574 -50.4268 -31.127c-27.5312 -4.70312 -51.8955 12.7773 -67.8623 33.7441
c-24.8174 32.5889 -35.8418 77.7725 -41.5859 117.5c-12.5576 86.8301 -14.0361 174.695 -9.29492 262.161c2.0625 38.0479 8.05176 76.2461 7.1709 114.435c-0.258789 11.1934 -3.04883 22.3936 -3.35547 33.4082c-0.303711 10.9834 4.30957 17.5381 -1.74023 28.2598
c-9.02246 15.9922 -28.9932 31.2061 -47.3135 19.5107c-12.0586 -7.69727 -25.4014 9.79297 -13.3838 18.0303c19.46 13.3428 43.9355 11.2197 62.5879 -2.85352c10.2324 -7.71973 15.8262 -17.8633 23.0322 -28.0479c7.69141 -10.875 18.0615 -15.9512 24.1885 -28.5176
c26.8164 -55.0117 32.8154 -116.46 41.8896 -176.165c9.61328 -63.2578 18.8115 -126.583 28.5527 -189.825c4.56543 -29.6484 8.82812 -59.3662 14.7412 -88.7715c0.239258 -1.05078 0.424805 -1.88379 0.59082 -2.61523
c0.868164 -2.98242 1.78125 -5.95215 2.7998 -8.88965c1.0791 -3.09082 2.21289 -6.19727 3.375 -9.29395c0.111328 0.271484 0.226562 0.540039 0.334961 0.811523c5.41797 13.3301 9.68652 27.1416 13.502 41.0049c7.68164 27.9043 14.0156 56.2559 20.3311 84.4932
c12.9111 57.7314 24.0088 115.827 32.9199 174.309c12.2158 80.167 22.7998 161.659 25.3281 243.056c-26.5322 17.0879 -52.5312 34.9482 -77.709 53.7793c-30.21 22.5986 -58.9961 48.7891 -76.0996 82.9961c-18.3906 36.7803 -18.3779 79.6113 -8.49902 118.803
c7.63086 30.2734 19.1504 65.3428 43.0293 86.9102c24.4219 22.0527 59.6641 19.5205 85.6504 1.43359c32.1797 -22.3975 45.248 -61.71 54.8135 -97.7021c10.0576 -37.8467 16.8418 -76.377 20.5195 -115.364c4.01367 -42.5342 4.70312 -85.2979 3.24707 -128.014
c38.5938 -23.8213 78.1455 -46.0176 118.496 -66.7383zM141.519 -319.188c-0.389648 -0.523438 -0.178711 -0.897461 0 0zM160.851 341.87c26.6943 -23.2334 56.3291 -43.5459 86.2705 -62.8555c0.0546875 11.8867 -0.0566406 23.7705 -0.401367 35.6445
c-1.45312 49.9121 -6.77832 99.8115 -18.0264 148.508c-5.38281 23.3135 -13.3867 45.7617 -19.9639 68.708c-5.78516 20.1816 -20.5898 47.2852 -45.4971 45.4971c-20.7852 -1.49414 -33.2051 -24.3096 -40.3857 -41.1582
c-9.72852 -22.835 -16.5674 -47.0586 -18.5146 -71.8564c-3.92676 -50.0498 19.7285 -90.4609 56.5186 -122.487z" />
    <glyph glyph-name="W" unicode="W" horiz-adv-x="521" 
d="M517.107 189.405c13.8594 -9.36426 -2.21094 -29.7383 -15.9717 -20.4443c-26.8672 18.1543 -53.2422 37.0078 -79.1387 56.4932c-4.31348 -37.4443 -10.4375 -74.6973 -17.7334 -111.631c-14.4121 -72.9678 -31.8291 -145.91 -54.0635 -216.911
c-10.1406 -32.375 -22.1484 -65.4805 -38.3135 -95.3613c-7.79395 -14.4092 -18.0176 -28.6875 -34.0039 -34.6865c-17.6875 -6.6377 -36.6113 -1.92188 -52.0225 7.8291c-32.9941 20.8779 -45.376 61.0146 -52.0234 97.3838
c-3.19238 17.4707 -5.36328 34.8965 -6.81641 52.3643c-13.0234 -53.7051 -26.5986 -110.121 -56.1162 -156.234c-17.9336 -28.0195 -52.6641 -28.6201 -76.5938 -6.45312c-28.2178 26.1387 -30.5576 68.2383 -30.8965 104.336
c-0.644531 69.0215 8.42285 138.32 6.80762 207.019c-0.785156 33.3613 -2.12598 66.6074 -5.89355 99.7871c-2.47461 21.7842 -4.78027 74.6914 -40.3672 55.9434c-12.0371 -6.34082 -22.918 13.6016 -11.5645 20.7441c35.3916 22.2627 78.9473 -4.70312 100.687 -34.0889
c30.0117 -40.5703 43.5176 -93.7012 49.1523 -142.997c5.90332 -51.6338 3.93945 -105.872 3.81836 -156.11c-0.0703125 -29.5869 -0.0634766 -56.1377 -1.26074 -85.3447c-0.185547 -4.50781 -0.210938 -9.21094 -0.354492 -13.9238
c2.12305 4.75684 3.95215 9.34473 5.41113 12.834c6.33398 15.1367 10.8232 31.1738 15.4688 46.8818c9.97754 33.7217 19.1885 67.6611 27.8057 101.75c4.4668 17.6689 8.77344 35.376 12.9531 53.1113c1.39551 22.627 3.87012 45.1172 7.6377 67.6641
c3.29785 19.7471 7.50879 39.5801 12.2979 59.0205c4.7793 19.4023 12.6172 34.2324 24.1367 50.1934c9.96484 13.8057 30.9609 9.16309 37.2695 -5.33887c7.3877 -16.9854 11.8125 -32.4316 12.7129 -51.2021c0.849609 -17.7266 1.74023 -35.4814 2.37207 -53.2139
c1.27344 -35.7178 2.1543 -71.5596 4.68652 -107.213c2.45508 -34.5742 6.18457 -69.4424 12.4648 -103.541c3.09082 -16.7783 5.60645 -33.0361 6.71777 -50.0537c0.0800781 -1.2002 0.175781 -2.39453 0.258789 -3.5918c1.11426 1.10156 2.19629 2.23828 3.24023 3.43848
c4.29395 4.94531 7.29199 10.2773 10.1787 16.1426c6.88379 13.9941 12.9053 28.4482 18.5498 42.9814c11.4746 29.5557 20.4561 59.8711 28.7705 90.4453c17.0811 62.8047 32.6172 126.178 43.7188 190.34c3.68457 21.293 6.8291 42.6875 9.31641 64.1553
c-31.1807 24.1729 -61.6143 49.3096 -91.2012 75.4395c-29.498 26.0498 -58.2715 52.9902 -85.9746 80.9492c-22.6465 22.8535 -45.2861 48.0605 -50.8574 80.9238c-9.82422 57.9482 34.1973 128.394 90.2559 145.226c63.7344 19.1406 109.32 -30.4717 133.029 -84.04
c27.9238 -63.0918 33.4092 -136.088 33.1885 -204.222c-0.0859375 -26.9658 -1.44629 -53.8936 -3.80566 -80.7412c30.082 -22.9268 60.8281 -44.9443 92.0664 -66.0518zM101.798 -205.081c0.299805 1.12109 0.498047 1.88965 0 0zM102.14 -207.413
c1.03418 -1.26465 2.96582 -1.44629 0 0zM237.446 420.524c51.793 -53.0195 107.558 -102.432 166.011 -148.334c2.8418 33.5781 3.88867 67.2939 2.54492 101.022c-2.3623 59.2383 -8.9873 123.147 -39.2832 175.406c-13.1572 22.6973 -31.9053 47.5176 -58.6738 54.1006
c-29.0576 7.14551 -58.6738 -7.1582 -77.6064 -28.8623c-18.1377 -20.7979 -32.8467 -49.7686 -33.3867 -77.8135c-0.587891 -30.5488 20.251 -54.9004 40.3945 -75.5195z" />
    <glyph glyph-name="X" unicode="X" horiz-adv-x="626" 
d="M612.749 174.421c6.71484 14.9609 30.1953 5.15527 23.5 -9.77051c-49.252 -109.703 -97.4463 -220.54 -157.78 -324.752c-22.8604 -39.4854 -49.1084 -83.1494 -88.9824 -107.497c-18.3389 -11.2002 -43.6611 -18.7959 -64.8516 -13.1826
c-24.8369 6.58008 -45.9668 22.8564 -61.4072 43.0439c-32.873 42.9814 -48.668 99.3818 -60.7559 151.354c-11.8545 50.9756 -18.9453 103.216 -24.8262 155.172c-3.02637 26.7266 -5.47168 53.501 -7.61035 80.3047
c-39.8613 -61.4004 -73.5742 -126.581 -99.6143 -195.069c-4.69629 -12.3525 -23.5527 -4.40918 -18.8877 7.85742c29.5908 77.8359 69.168 151.503 116.006 220.294c-4.7666 66.3965 -8.26562 132.901 -14.4209 199.18c-4.26562 45.9219 -3.28223 94.0625 -17.1514 138.474
c-3.08789 9.88184 -6.86133 23.0293 -13.1543 31.2412c-8.14453 10.6289 -19.5742 0.296875 -27.5498 -6.66992c-16.6211 -14.5234 -26.9492 -34.6797 -30.4775 -56.3105c-2.32715 -14.2812 -24.0439 -11.3467 -22.25 3.00488c5 39.9863 37.2402 94.168 82.7656 96.001
c24.7695 0.996094 46.2471 -18.8594 61.2656 -36.2275c17.1289 -19.8076 28.9873 -45.8955 36.6113 -70.7412c18.0391 -58.7822 28.001 -119.308 35.376 -180.235c22.7705 23.4541 47.9268 44.0859 76.4736 59.2734c11.6094 6.1748 19.0801 -12.8799 7.56055 -19.0098
c-31.5479 -16.7842 -57.5049 -41.375 -80.8311 -68.0986c3.94336 -35.8613 7.2959 -71.7891 11.127 -107.522c5.60645 -52.2715 10.8135 -104.585 19.0508 -156.528c8.18945 -51.6494 19.8652 -102.587 31.2793 -153.585
c4.76953 -21.3145 9.58105 -40.3145 18.6768 -63.2354c3.32324 -8.37793 5.63477 -17.5703 11.6436 -24.5527c7.16504 -8.32715 14.4092 -7.10742 24.042 -2.55176c21.3438 10.0957 39.7305 33.6875 53.0059 52.4385c15.1084 21.3369 28.0488 44.1016 40.7373 66.9297
c52.4219 94.3145 97.2646 192.598 141.43 290.973z" />
    <glyph glyph-name="Y" unicode="Y" horiz-adv-x="507" 
d="M292.668 -324.717c-16.0566 -14.8369 -39.6582 -31.9355 -62.7197 -29.6367c-53.9287 5.35449 -55.5605 81.1348 -54.9639 120.601c1.53906 101.948 34.3223 202.526 90.1699 287.56c14.9131 22.7041 31.6494 44.207 49.8867 64.3506
c1.06348 28.4287 1.70508 56.5254 1.91309 83.999c0.395508 51.8916 -1.71191 111.985 -5.08984 166.91c-1.21289 19.7373 -3.0166 39.4746 -4.83984 59.2188c-10.1562 -47.2812 -21.0625 -94.3936 -33.834 -141.056c-16.9531 -61.9365 -33.418 -127.966 -73.6436 -179.621
c-15.9131 -20.4365 -42.3906 -36.1992 -68.7344 -26.3242c-37.3359 13.9941 -42.7158 56.2764 -41.4229 91.125c1.37598 37.208 7.98145 74.333 12.8379 111.203c4.74414 36.0049 9.51074 71.8887 15.6982 107.677c6.01562 34.7881 12.2031 70.0332 13.2373 105.396
c0.386719 13.1543 0.313477 29.6768 -6.25098 41.5186c-8.4541 15.252 -32.1982 23.5947 -47.4951 14.623c-11.6885 -6.85449 -24.6035 9.77344 -12.79 17.2285c27.416 17.3018 54.5957 5.45996 77.124 -13.4824c26.2891 -22.1104 44.1943 -48.7002 51.0879 -83.0068
c7.10742 -35.373 3.23145 -72.5625 0.839844 -108.197c-2.42969 -36.2061 -6.96973 -72.2588 -10.8838 -108.331c-3.84082 -35.417 -6.8584 -70.8535 -14.6396 -105.661c-1.66699 -7.45508 -3.02734 -15.0439 -3.81934 -22.6455
c-0.389648 -3.73535 -2.4873 -16.0527 -0.623047 -17.7832c-1.15918 1.07324 6.32812 3.8252 9.9043 6.19141c5.91602 3.91406 10.8809 9.78906 15.3252 15.2578c19.4023 23.8662 31.1963 54.3184 41.2695 83.0537c11.9502 34.083 21.9912 68.8525 31.0039 103.813
c15.3223 59.4238 27.9561 119.486 40.2158 179.609c-0.666992 12.6689 -1.0791 25.3438 -1.05078 38.0283c0.0605469 26.4102 11.7656 49.5195 38.9297 56.4482c22.7744 5.80762 54.3857 -5.83008 61.2627 -30.8232c19.9199 -72.3955 23.7803 -148.335 26.9414 -223.059
c1.83594 -43.3799 2.07812 -86.9102 1.09473 -130.402c24.9736 11.4043 51.9297 16.7139 80.0195 9.72168c11.583 -2.88281 9.70605 -20.9375 -2.53809 -18.7891c-27.5635 4.83398 -53.9326 -2.73633 -78.1885 -16.002
c-0.791992 -23.5088 -1.89648 -46.9951 -3.35547 -70.4268c-3.98438 -63.9385 -11.5605 -128.368 -24.3027 -191.18c-12.4707 -61.4668 -25.4463 -127.101 -57.6709 -181.69c-14.0127 -23.7354 -29.5518 -46.6113 -49.9053 -65.417zM200.062 -259.279
c0.970703 -21.0791 3.0791 -56.7344 25.3232 -67.3564c26.8379 -12.8223 39.9248 25.1973 44.583 44.1143c12.3174 50.0146 18.7568 101.74 25.1875 152.764c8.65527 68.6699 14.7314 140.127 18.25 210.288c-18.7412 -23.4951 -35.4844 -48.6191 -49.7725 -74.8857
c-43.7314 -80.4004 -67.7861 -173.16 -63.5713 -264.924z" />
    <glyph glyph-name="Y" unicode="&#x178;" horiz-adv-x="507" 
d="M292.668 -324.717c-16.0566 -14.8369 -39.6582 -31.9355 -62.7197 -29.6367c-53.9287 5.35449 -55.5605 81.1348 -54.9639 120.601c1.53906 101.948 34.3223 202.526 90.1699 287.56c14.9131 22.7041 31.6494 44.207 49.8867 64.3506
c1.06348 28.4287 1.70508 56.5254 1.91309 83.999c0.395508 51.8916 -1.71191 111.985 -5.08984 166.91c-1.21289 19.7373 -3.0166 39.4746 -4.83984 59.2188c-10.1562 -47.2812 -21.0625 -94.3936 -33.834 -141.056c-16.9531 -61.9365 -33.418 -127.966 -73.6436 -179.621
c-15.9131 -20.4365 -42.3906 -36.1992 -68.7344 -26.3242c-37.3359 13.9941 -42.7158 56.2764 -41.4229 91.125c1.37598 37.208 7.98145 74.333 12.8379 111.203c4.74414 36.0049 9.51074 71.8887 15.6982 107.677c6.01562 34.7881 12.2031 70.0332 13.2373 105.396
c0.386719 13.1543 0.313477 29.6768 -6.25098 41.5186c-8.4541 15.252 -32.1982 23.5947 -47.4951 14.623c-11.6885 -6.85449 -24.6035 9.77344 -12.79 17.2285c27.416 17.3018 54.5957 5.45996 77.124 -13.4824c26.2891 -22.1104 44.1943 -48.7002 51.0879 -83.0068
c7.10742 -35.373 3.23145 -72.5625 0.839844 -108.197c-2.42969 -36.2061 -6.96973 -72.2588 -10.8838 -108.331c-3.84082 -35.417 -6.8584 -70.8535 -14.6396 -105.661c-1.66699 -7.45508 -3.02734 -15.0439 -3.81934 -22.6455
c-0.389648 -3.73535 -2.4873 -16.0527 -0.623047 -17.7832c-1.15918 1.07324 6.32812 3.8252 9.9043 6.19141c5.91602 3.91406 10.8809 9.78906 15.3252 15.2578c19.4023 23.8662 31.1963 54.3184 41.2695 83.0537c11.9502 34.083 21.9912 68.8525 31.0039 103.813
c15.3223 59.4238 27.9561 119.486 40.2158 179.609c-0.666992 12.6689 -1.0791 25.3438 -1.05078 38.0283c0.0605469 26.4102 11.7656 49.5195 38.9297 56.4482c22.7744 5.80762 54.3857 -5.83008 61.2627 -30.8232c19.9199 -72.3955 23.7803 -148.335 26.9414 -223.059
c1.83594 -43.3799 2.07812 -86.9102 1.09473 -130.402c24.9736 11.4043 51.9297 16.7139 80.0195 9.72168c11.583 -2.88281 9.70605 -20.9375 -2.53809 -18.7891c-27.5635 4.83398 -53.9326 -2.73633 -78.1885 -16.002
c-0.791992 -23.5088 -1.89648 -46.9951 -3.35547 -70.4268c-3.98438 -63.9385 -11.5605 -128.368 -24.3027 -191.18c-12.4707 -61.4668 -25.4463 -127.101 -57.6709 -181.69c-14.0127 -23.7354 -29.5518 -46.6113 -49.9053 -65.417zM200.062 -259.279
c0.970703 -21.0791 3.0791 -56.7344 25.3232 -67.3564c26.8379 -12.8223 39.9248 25.1973 44.583 44.1143c12.3174 50.0146 18.7568 101.74 25.1875 152.764c8.65527 68.6699 14.7314 140.127 18.25 210.288c-18.7412 -23.4951 -35.4844 -48.6191 -49.7725 -74.8857
c-43.7314 -80.4004 -67.7861 -173.16 -63.5713 -264.924z" />
    <glyph glyph-name="Y" unicode="&#xdd;" horiz-adv-x="507" 
d="M292.668 -324.717c-16.0566 -14.8369 -39.6582 -31.9355 -62.7197 -29.6367c-53.9287 5.35449 -55.5605 81.1348 -54.9639 120.601c1.53906 101.948 34.3223 202.526 90.1699 287.56c14.9131 22.7041 31.6494 44.207 49.8867 64.3506
c1.06348 28.4287 1.70508 56.5254 1.91309 83.999c0.395508 51.8916 -1.71191 111.985 -5.08984 166.91c-1.21289 19.7373 -3.0166 39.4746 -4.83984 59.2188c-10.1562 -47.2812 -21.0625 -94.3936 -33.834 -141.056c-16.9531 -61.9365 -33.418 -127.966 -73.6436 -179.621
c-15.9131 -20.4365 -42.3906 -36.1992 -68.7344 -26.3242c-37.3359 13.9941 -42.7158 56.2764 -41.4229 91.125c1.37598 37.208 7.98145 74.333 12.8379 111.203c4.74414 36.0049 9.51074 71.8887 15.6982 107.677c6.01562 34.7881 12.2031 70.0332 13.2373 105.396
c0.386719 13.1543 0.313477 29.6768 -6.25098 41.5186c-8.4541 15.252 -32.1982 23.5947 -47.4951 14.623c-11.6885 -6.85449 -24.6035 9.77344 -12.79 17.2285c27.416 17.3018 54.5957 5.45996 77.124 -13.4824c26.2891 -22.1104 44.1943 -48.7002 51.0879 -83.0068
c7.10742 -35.373 3.23145 -72.5625 0.839844 -108.197c-2.42969 -36.2061 -6.96973 -72.2588 -10.8838 -108.331c-3.84082 -35.417 -6.8584 -70.8535 -14.6396 -105.661c-1.66699 -7.45508 -3.02734 -15.0439 -3.81934 -22.6455
c-0.389648 -3.73535 -2.4873 -16.0527 -0.623047 -17.7832c-1.15918 1.07324 6.32812 3.8252 9.9043 6.19141c5.91602 3.91406 10.8809 9.78906 15.3252 15.2578c19.4023 23.8662 31.1963 54.3184 41.2695 83.0537c11.9502 34.083 21.9912 68.8525 31.0039 103.813
c15.3223 59.4238 27.9561 119.486 40.2158 179.609c-0.666992 12.6689 -1.0791 25.3438 -1.05078 38.0283c0.0605469 26.4102 11.7656 49.5195 38.9297 56.4482c22.7744 5.80762 54.3857 -5.83008 61.2627 -30.8232c19.9199 -72.3955 23.7803 -148.335 26.9414 -223.059
c1.83594 -43.3799 2.07812 -86.9102 1.09473 -130.402c24.9736 11.4043 51.9297 16.7139 80.0195 9.72168c11.583 -2.88281 9.70605 -20.9375 -2.53809 -18.7891c-27.5635 4.83398 -53.9326 -2.73633 -78.1885 -16.002
c-0.791992 -23.5088 -1.89648 -46.9951 -3.35547 -70.4268c-3.98438 -63.9385 -11.5605 -128.368 -24.3027 -191.18c-12.4707 -61.4668 -25.4463 -127.101 -57.6709 -181.69c-14.0127 -23.7354 -29.5518 -46.6113 -49.9053 -65.417zM200.062 -259.279
c0.970703 -21.0791 3.0791 -56.7344 25.3232 -67.3564c26.8379 -12.8223 39.9248 25.1973 44.583 44.1143c12.3174 50.0146 18.7568 101.74 25.1875 152.764c8.65527 68.6699 14.7314 140.127 18.25 210.288c-18.7412 -23.4951 -35.4844 -48.6191 -49.7725 -74.8857
c-43.7314 -80.4004 -67.7861 -173.16 -63.5713 -264.924z" />
    <glyph glyph-name="Z" unicode="Z" horiz-adv-x="518" 
d="M517.99 181.835c-48.2939 -35.7529 -100.439 -65.5469 -152.523 -95.3135c-1.94727 -1.11133 -3.89844 -2.23242 -5.8457 -3.34668c0.571289 -3.8916 1.10156 -7.77051 1.57422 -11.6211c7.00488 -57.0547 3.98145 -116.737 -10.5107 -172.429
c-15.2871 -58.7529 -39.7598 -113.735 -75.1641 -163.262c-16.8037 -23.5049 -36.6504 -47.6865 -61.458 -62.9414c-24.5459 -15.0957 -55.7773 -27.9688 -84.4609 -18.0898c-26.8799 1.98242 -52.2529 15.9385 -69.9219 36.4844
c-16.2158 18.8564 -20.5967 45.4551 -19.332 69.583c2.57324 49.2324 28.0928 97.7148 55.8057 137.344c29.6387 42.3867 67.7188 78.6689 108.631 110.061c18.8535 14.4668 38.3965 27.8633 58.335 40.6475c-0.402344 3.42285 -0.836914 6.87402 -1.32812 10.3984
c-1.67969 12.0146 -3.94336 23.9141 -6.59375 35.75c-0.30957 1.38574 -0.500977 2.2959 -0.625977 2.91504c-0.168945 0.46582 -0.44043 1.26367 -0.880859 2.67188c-1.59277 5.06738 -3.1377 10.1377 -4.93164 15.1406
c-1.80371 5.01855 -3.74805 9.98633 -5.87402 14.8779c-1.21289 2.79004 -2.54785 5.5166 -3.8125 8.28809c-0.0761719 0.168945 -0.436523 0.910156 -0.832031 1.71777c-1.00293 1.55176 -4.20801 7.01172 -5.04785 8.2666
c-2.89551 4.32324 -6.10449 8.32031 -9.24023 12.4521c-0.664062 0.87207 -1.12109 1.46875 -1.47559 1.92578c-0.830078 0.775391 -1.64062 1.56738 -2.49316 2.32129c-3.80273 3.3623 -8.07422 6.01562 -11.9404 9.24023
c2.02734 -1.69238 2.9502 -2.41699 3.13184 -2.55762c-0.364258 0.28125 -3.44238 2.59961 -6.35742 3.87695c-2.2959 1.00586 -4.72559 1.97949 -7.14258 2.78711c-0.325195 0.0576172 -0.689453 0.121094 -1.12988 0.201172
c-3.53711 0.628906 -7.05859 1.10449 -10.6406 1.41699c-0.951172 0.0830078 -1.60254 0.143555 -2.0625 0.191406c-5.64844 -0.198242 -11.3154 -1.03809 -16.8672 -1.94531c-2.68848 -0.4375 -5.38965 -0.90332 -8.06152 -1.43652
c1.11719 0.223633 5.57715 1.57715 -0.293945 0.015625c-6.16211 -1.64062 -12.1426 -3.92676 -18.084 -6.20996c-48.4531 -18.623 -91.4434 39.2295 -60.2529 80.4102c43.7539 57.7666 86.5176 115.521 121.999 178.9c16.0947 28.751 29.4346 58.5078 43.8438 88.0693
c10.9893 22.5469 23.3516 48.1973 21.126 73.9951c-3.01367 34.9541 -41.1289 26.9854 -63.9893 15.5361c-27.752 -13.8984 -50.8672 -36.0879 -71.2305 -59.1172c-81 -91.6035 -128.64 -209.438 -135.986 -331.315c-0.740234 -12.251 -19.4053 -9.53027 -18.7891 2.53809
c3.95215 77.5488 23.7988 154.041 58.2969 223.637c29.5742 59.6631 69.8096 119.163 121.829 161.531c42.5312 34.6387 123.838 64.2041 155.016 -1.26074c14.4316 -30.2959 9.11523 -69.7549 3.65918 -101.536c-6.54199 -38.0645 -23.0898 -74.4814 -38.9033 -109.48
c-17.3779 -38.46 -36.3398 -76.8662 -57.2432 -114.106c31.2891 -7.9375 60.168 -25.3506 83.6152 -53.1025c28.4922 -33.7217 44.041 -77.874 52.5117 -121.646c51.2314 29.2842 102.577 58.4023 150.057 93.5547c10.3223 7.64355 22.2314 -8.375 11.8965 -16.0283z
M257.354 -72.6045c7.1709 36.3369 9.77051 66.2422 7.80371 98.8789c-49.4111 -32.3584 -95.8369 -68.8457 -133.771 -114.732c-29.8838 -36.1553 -54.4902 -78.4336 -65.0039 -124.537c-4.48535 -19.6641 -7.10645 -43.0957 1.63867 -61.9805
c5.25195 -11.3408 14.9033 -22.1289 28.0098 -22.5986c8.97168 -0.322266 17.1611 2.22852 25.5322 4.72168c7.16113 6.52637 14.8848 12.4102 22.4902 18.4512c10.7441 8.53711 13.9658 12.6299 22.2578 21.2725c18.1602 18.9336 34.1367 39.6582 47.3135 62.3936
c-0.28125 -0.354492 4.63867 8.73242 5.54199 10.4658c2.79395 5.36426 5.48242 10.7852 8.04004 16.2637c4.75684 10.1914 9.11523 20.5645 13.0674 31.0938c4.25879 11.3467 8.13477 22.8818 11.3564 34.5674c1.48828 5.38281 0.371094 1.54199 0.0898438 0.424805
c0.628906 2.51562 1.23535 5.03516 1.82324 7.56055c1.37305 5.89355 2.6377 11.8164 3.80957 17.7549z" />
    <glyph glyph-name="bracketleft" unicode="[" horiz-adv-x="312" 
d="M252.301 -121.771c14.9521 -15.3252 12.8838 -39.9121 -4.0127 -52.9639c-31.9629 -24.6924 -71.9619 -29.1172 -108.724 -12.627c-45.7939 20.5459 -67.1182 64.2451 -74.9121 111.805c-12.1484 74.1523 -13.3486 151.379 -14.4121 226.374
c-1.11719 78.7627 1.5166 157.604 10.833 235.865c9.03223 75.8535 20.584 152.247 44.5488 225.023c4.72852 14.3672 10.8555 28.0039 20.2998 39.958c9.41895 11.9248 19.1602 15.9189 32.6719 21.3623c30.0439 12.1035 55.1963 7.93652 85.4443 -2.13379
c10.7246 -3.56934 5.74707 -21.6943 -5.16895 -19.1016c-15.4658 3.6748 -32.4453 7.98145 -48.4375 5.62793c-9.08984 -1.33496 -15.1973 -3.61426 -18.5625 -11.9727c-1.95703 -4.8623 -2.99805 -10.9033 -3.74219 -16.1045
c-4.39648 -30.7979 -2.27051 -62.9648 -3.37207 -93.9854c-4.49902 -126.673 -8.36816 -249.157 -5.46875 -374.288c1.47852 -63.8428 6.56738 -127.248 11.293 -190.893c1.08594 -14.6357 2.10156 -29.2773 4.39355 -43.7822
c2.29199 -14.5273 2.31445 -16.9443 7.66211 -31.1143c0.623047 -1.65039 2.39551 -6.1748 2.33496 -6.39551c1.87402 -3.50879 5.07617 -8.96875 6.49707 -11.3574c-0.351562 0.980469 -0.501953 2.12695 -1.47559 2.78125
c-0.0351562 0.0224609 4.48926 -2.64648 3.75781 -2.63086c0.817383 -0.296875 1.79395 -0.651367 2.65918 -0.976562c2.2793 0.827148 4.35156 1.57715 6.22266 2.25391c14.1826 12.9785 35.5771 13.7129 49.6699 -0.724609zM200.161 -123.533
c1.43945 0.351562 2.32617 0.918945 2.70605 1.35938c-0.976562 -0.402344 -1.78125 -0.744141 -2.36523 -1.00293c0.0478516 0.0478516 0.0927734 0.0957031 0.140625 0.146484c-0.0507812 -0.0507812 -0.105469 -0.105469 -0.160156 -0.15625
c-0.75 -0.332031 -1.12402 -0.520508 -0.887695 -0.475586c0.185547 0.0351562 0.348633 0.0761719 0.521484 0.118164c-0.268555 -0.277344 -0.552734 -0.586914 -0.852539 -0.93457c0.287109 0.332031 0.603516 0.623047 0.897461 0.945312z" />
    <glyph glyph-name="backslash" unicode="\" horiz-adv-x="366" 
d="M292.389 -50.2178c9.85645 -33.0166 23.0273 -67.8047 23.1104 -102.517c0.0380859 -16.0527 -6.30566 -31.1738 -22.2148 -37.4951c-13.5273 -5.37305 -33.9736 -1.51953 -41.834 11.8838c-17.0273 29.0352 -24.5107 60.4775 -32.6455 92.9512
c-7.18652 28.6865 -14.3955 57.3643 -21.6299 86.0381c-25.957 102.877 -52.2363 205.671 -78.8223 308.386c-13.3555 51.5918 -25.8457 103.356 -38.3066 155.169c-6.15234 25.5713 -11.4336 51.2471 -16.625 77.0254c-5.19434 25.7783 -7.11621 51.7773 -13.1221 77.4346
c-3.06543 13.0938 18.2627 18.1221 22.5312 5.7627c11.0312 -31.9277 26.1846 -62.1094 38.1162 -93.7559c11.9219 -31.6152 22.3242 -63.7188 32.9463 -95.79c21.2705 -64.2129 40.8545 -128.931 60.5762 -193.635c19.7217 -64.7139 39.3223 -129.467 58.7979 -194.254
c9.73828 -32.3906 19.4443 -64.7939 29.1221 -97.2041z" />
    <glyph glyph-name="bracketright" unicode="]" horiz-adv-x="351" 
d="M298.462 235.685c2.95996 -69.2314 3.13867 -138.58 2.83887 -207.863c-0.299805 -69.3916 -11.3184 -147.177 -76.9141 -185.88c-18.8115 -11.1016 -39.6416 -11.1914 -55.6885 4.73438c-14.0645 13.959 -17.3467 40.1777 -3.35254 55.7812
c16.2383 18.1025 23.2178 39.3281 26.1553 61.9551c4.30664 33.1826 3.28223 59.4209 3.1543 90.9463c-0.485352 121.165 -3.56934 241.797 -13.6777 362.557c-4.53711 54.1846 -10.9961 108.385 -22.0459 161.662c-3.78613 18.2529 -7.71289 44.1172 -20.7041 58.4746
c-19.9736 22.0752 -51.1738 2.11426 -72.1211 -8.76367c-11.7812 -6.12012 -22.665 13.6113 -11.3213 20.3096c26.5928 15.708 58.083 31.4551 89.7676 32.0078c32.9141 0.578125 59.4424 -25.5547 76.5967 -51.1641c37.8057 -56.4385 50.0947 -121.526 60.0781 -187.512
c10.3545 -68.4463 14.2812 -138.138 17.2344 -207.245z" />
    <glyph glyph-name="asciicircum" unicode="^" horiz-adv-x="293" 
d="M242.423 382.663c5.84961 -48.543 -70.3047 -57.833 -75.2627 -9.23242c-2.42676 23.7891 -5.20117 47.5947 -9.15723 71.1865c-1.51953 9.04492 -3.01367 18.626 -6.87695 27.0615c-0.408203 -0.125 -0.775391 -0.28125 -0.93457 -0.520508
c-1.11719 -1.67969 -6.79395 -4.73828 -8.45117 -6.22656c-3.49316 -3.13574 -6.45312 -6.91309 -9.54395 -10.4443c-6.5293 -7.46484 -12.8125 -15.0703 -18.7861 -22.9883c-6.53906 -8.67188 -12.7139 -17.6055 -19.3105 -26.2256
c-4.61328 -6.03418 -15.4082 -16.6377 -16.5156 -24.0068c-2.04688 -13.5889 -24.5303 -14.333 -24.7412 0.149414c-0.12793 8.82812 -3.54785 16.417 -2.70801 25.3955c0.664062 7.08789 2.76172 14.5176 4.88477 21.2891c4.53027 14.4502 11.915 28.5107 18.9229 41.9238
c14.3574 27.4766 34.5264 56.0547 66.2686 64.0303c81.498 20.4785 95.7119 -97.4307 102.212 -151.392zM150.641 472.776c-0.772461 1.57422 -1.74902 -0.261719 0.316406 -0.708984c-0.111328 0.233398 -0.201172 0.475586 -0.316406 0.708984z" />
    <glyph glyph-name="underscore" unicode="_" horiz-adv-x="431" 
d="M381.121 -63.749c2.11035 -17.1963 -11.5293 -38.7959 -30.4082 -38.917c-46.0938 -0.296875 -92.1943 -0.699219 -138.285 -1.2959c-23.0645 -0.296875 -46.1289 -1.16211 -69.1934 -1.38574c-22.9404 -0.220703 -47.71 -1.43066 -70.292 2.65918
c-24.3164 4.40625 -33.6045 43.1602 -6.3125 51.4072c43.5908 13.1768 92.3477 12.4551 137.531 14.6611c46.0273 2.24805 91.9619 3.30762 138.043 3.27539c18.9268 -0.0126953 36.3848 -9.78223 38.917 -30.4043z" />
    <glyph glyph-name="grave" unicode="`" horiz-adv-x="198" 
d="M143.352 500.447c4.10938 -17.7266 7.46387 -37.2178 0.625 -54.6602c-5.16895 -13.1865 -19.0801 -16.4336 -31.3145 -12.915c-40.4775 11.6377 -55.209 71.5977 -62.0635 107.124c-4.27832 22.1836 15.0889 43.8242 36.2695 46.4229
c23.0488 2.83203 42.665 -14.0928 46.4229 -36.2666c2.82227 -16.6602 6.24805 -33.25 10.0605 -49.7051z" />
    <glyph glyph-name="a" unicode="a" horiz-adv-x="398" 
d="M405.701 187.654c4.07715 11.6123 21.2617 4.18066 17.5068 -7.28418c-16.7334 -51.0615 -39.46 -100.85 -69.3701 -145.612c-12.627 -18.8984 -27.6777 -39.5273 -45.1992 -54.2363c-20.5137 -17.2158 -49.3701 -15.6611 -70.2695 0.104492
c-22.2188 16.7656 -35.0283 47.4512 -43.1797 73.3154c-7.74902 24.584 -13.6904 49.6758 -16.6025 75.2529c-9.08301 -21.832 -19.8398 -43.0732 -32.167 -63.6953c-7.50293 -12.5508 -15.9219 -24.3701 -25.8545 -35.1133
c-8.62012 -9.32324 -15.1201 -20.2871 -25.3945 -28.1025c-28.1445 -21.4072 -61.8154 -8.05859 -82.377 16.5479c-38.8818 46.5312 -39.6572 128.074 -21.8672 183.223c15.8076 49.0088 65.0684 119.518 125.287 96.6475
c27.1357 -10.3066 46.666 -29.0293 61.7041 -51.5098c2.06934 22.458 5.4248 44.8174 10.1816 67.0264c5.37988 25.1172 26.334 44.2646 53.3193 40.6279c27.6367 -3.72559 40.8291 -27.7676 40.6279 -53.3193c-0.679688 -85.71 -14.3955 -171.857 6.57812 -258.956
c2.57324 -10.6953 5.45996 -31.5791 18.6523 -25.0303c17.5381 8.70703 30.8809 33.0264 40.9258 49.1055c23.7285 37.9873 42.668 78.7812 57.498 121.009zM135.767 90.7578c17.168 30.9893 30.2637 64.2412 39.6572 98.4902
c-0.00683594 1.13379 -0.0195312 2.26367 -0.0195312 3.39355c-17.7422 36.873 -48.6514 85.1094 -79.5059 45.4805c-26.7939 -34.415 -30.7881 -89.6279 -27.7451 -130.467c0.913086 -12.2598 2.2959 -24.1396 5.77246 -35.9307
c2.43945 -8.28516 6.29297 -22.0137 12.3467 -26.8984c5.29688 -4.27832 -0.290039 -3.24023 6.98633 -2.74902c8.21484 0.555664 14.3643 9.63574 19.2393 15.3252c8.8252 10.2969 16.6982 21.4971 23.2686 33.3555z" />
    <glyph glyph-name="a" unicode="&#xe5;" horiz-adv-x="398" 
d="M405.701 187.654c4.07715 11.6123 21.2617 4.18066 17.5068 -7.28418c-16.7334 -51.0615 -39.46 -100.85 -69.3701 -145.612c-12.627 -18.8984 -27.6777 -39.5273 -45.1992 -54.2363c-20.5137 -17.2158 -49.3701 -15.6611 -70.2695 0.104492
c-22.2188 16.7656 -35.0283 47.4512 -43.1797 73.3154c-7.74902 24.584 -13.6904 49.6758 -16.6025 75.2529c-9.08301 -21.832 -19.8398 -43.0732 -32.167 -63.6953c-7.50293 -12.5508 -15.9219 -24.3701 -25.8545 -35.1133
c-8.62012 -9.32324 -15.1201 -20.2871 -25.3945 -28.1025c-28.1445 -21.4072 -61.8154 -8.05859 -82.377 16.5479c-38.8818 46.5312 -39.6572 128.074 -21.8672 183.223c15.8076 49.0088 65.0684 119.518 125.287 96.6475
c27.1357 -10.3066 46.666 -29.0293 61.7041 -51.5098c2.06934 22.458 5.4248 44.8174 10.1816 67.0264c5.37988 25.1172 26.334 44.2646 53.3193 40.6279c27.6367 -3.72559 40.8291 -27.7676 40.6279 -53.3193c-0.679688 -85.71 -14.3955 -171.857 6.57812 -258.956
c2.57324 -10.6953 5.45996 -31.5791 18.6523 -25.0303c17.5381 8.70703 30.8809 33.0264 40.9258 49.1055c23.7285 37.9873 42.668 78.7812 57.498 121.009zM135.767 90.7578c17.168 30.9893 30.2637 64.2412 39.6572 98.4902
c-0.00683594 1.13379 -0.0195312 2.26367 -0.0195312 3.39355c-17.7422 36.873 -48.6514 85.1094 -79.5059 45.4805c-26.7939 -34.415 -30.7881 -89.6279 -27.7451 -130.467c0.913086 -12.2598 2.2959 -24.1396 5.77246 -35.9307
c2.43945 -8.28516 6.29297 -22.0137 12.3467 -26.8984c5.29688 -4.27832 -0.290039 -3.24023 6.98633 -2.74902c8.21484 0.555664 14.3643 9.63574 19.2393 15.3252c8.8252 10.2969 16.6982 21.4971 23.2686 33.3555z" />
    <glyph glyph-name="a" unicode="&#xe4;" horiz-adv-x="398" 
d="M405.701 187.654c4.07715 11.6123 21.2617 4.18066 17.5068 -7.28418c-16.7334 -51.0615 -39.46 -100.85 -69.3701 -145.612c-12.627 -18.8984 -27.6777 -39.5273 -45.1992 -54.2363c-20.5137 -17.2158 -49.3701 -15.6611 -70.2695 0.104492
c-22.2188 16.7656 -35.0283 47.4512 -43.1797 73.3154c-7.74902 24.584 -13.6904 49.6758 -16.6025 75.2529c-9.08301 -21.832 -19.8398 -43.0732 -32.167 -63.6953c-7.50293 -12.5508 -15.9219 -24.3701 -25.8545 -35.1133
c-8.62012 -9.32324 -15.1201 -20.2871 -25.3945 -28.1025c-28.1445 -21.4072 -61.8154 -8.05859 -82.377 16.5479c-38.8818 46.5312 -39.6572 128.074 -21.8672 183.223c15.8076 49.0088 65.0684 119.518 125.287 96.6475
c27.1357 -10.3066 46.666 -29.0293 61.7041 -51.5098c2.06934 22.458 5.4248 44.8174 10.1816 67.0264c5.37988 25.1172 26.334 44.2646 53.3193 40.6279c27.6367 -3.72559 40.8291 -27.7676 40.6279 -53.3193c-0.679688 -85.71 -14.3955 -171.857 6.57812 -258.956
c2.57324 -10.6953 5.45996 -31.5791 18.6523 -25.0303c17.5381 8.70703 30.8809 33.0264 40.9258 49.1055c23.7285 37.9873 42.668 78.7812 57.498 121.009zM135.767 90.7578c17.168 30.9893 30.2637 64.2412 39.6572 98.4902
c-0.00683594 1.13379 -0.0195312 2.26367 -0.0195312 3.39355c-17.7422 36.873 -48.6514 85.1094 -79.5059 45.4805c-26.7939 -34.415 -30.7881 -89.6279 -27.7451 -130.467c0.913086 -12.2598 2.2959 -24.1396 5.77246 -35.9307
c2.43945 -8.28516 6.29297 -22.0137 12.3467 -26.8984c5.29688 -4.27832 -0.290039 -3.24023 6.98633 -2.74902c8.21484 0.555664 14.3643 9.63574 19.2393 15.3252c8.8252 10.2969 16.6982 21.4971 23.2686 33.3555z" />
    <glyph glyph-name="a" unicode="&#xe3;" horiz-adv-x="398" 
d="M405.701 187.654c4.07715 11.6123 21.2617 4.18066 17.5068 -7.28418c-16.7334 -51.0615 -39.46 -100.85 -69.3701 -145.612c-12.627 -18.8984 -27.6777 -39.5273 -45.1992 -54.2363c-20.5137 -17.2158 -49.3701 -15.6611 -70.2695 0.104492
c-22.2188 16.7656 -35.0283 47.4512 -43.1797 73.3154c-7.74902 24.584 -13.6904 49.6758 -16.6025 75.2529c-9.08301 -21.832 -19.8398 -43.0732 -32.167 -63.6953c-7.50293 -12.5508 -15.9219 -24.3701 -25.8545 -35.1133
c-8.62012 -9.32324 -15.1201 -20.2871 -25.3945 -28.1025c-28.1445 -21.4072 -61.8154 -8.05859 -82.377 16.5479c-38.8818 46.5312 -39.6572 128.074 -21.8672 183.223c15.8076 49.0088 65.0684 119.518 125.287 96.6475
c27.1357 -10.3066 46.666 -29.0293 61.7041 -51.5098c2.06934 22.458 5.4248 44.8174 10.1816 67.0264c5.37988 25.1172 26.334 44.2646 53.3193 40.6279c27.6367 -3.72559 40.8291 -27.7676 40.6279 -53.3193c-0.679688 -85.71 -14.3955 -171.857 6.57812 -258.956
c2.57324 -10.6953 5.45996 -31.5791 18.6523 -25.0303c17.5381 8.70703 30.8809 33.0264 40.9258 49.1055c23.7285 37.9873 42.668 78.7812 57.498 121.009zM135.767 90.7578c17.168 30.9893 30.2637 64.2412 39.6572 98.4902
c-0.00683594 1.13379 -0.0195312 2.26367 -0.0195312 3.39355c-17.7422 36.873 -48.6514 85.1094 -79.5059 45.4805c-26.7939 -34.415 -30.7881 -89.6279 -27.7451 -130.467c0.913086 -12.2598 2.2959 -24.1396 5.77246 -35.9307
c2.43945 -8.28516 6.29297 -22.0137 12.3467 -26.8984c5.29688 -4.27832 -0.290039 -3.24023 6.98633 -2.74902c8.21484 0.555664 14.3643 9.63574 19.2393 15.3252c8.8252 10.2969 16.6982 21.4971 23.2686 33.3555z" />
    <glyph glyph-name="a" unicode="&#xe2;" horiz-adv-x="398" 
d="M405.701 187.654c4.07715 11.6123 21.2617 4.18066 17.5068 -7.28418c-16.7334 -51.0615 -39.46 -100.85 -69.3701 -145.612c-12.627 -18.8984 -27.6777 -39.5273 -45.1992 -54.2363c-20.5137 -17.2158 -49.3701 -15.6611 -70.2695 0.104492
c-22.2188 16.7656 -35.0283 47.4512 -43.1797 73.3154c-7.74902 24.584 -13.6904 49.6758 -16.6025 75.2529c-9.08301 -21.832 -19.8398 -43.0732 -32.167 -63.6953c-7.50293 -12.5508 -15.9219 -24.3701 -25.8545 -35.1133
c-8.62012 -9.32324 -15.1201 -20.2871 -25.3945 -28.1025c-28.1445 -21.4072 -61.8154 -8.05859 -82.377 16.5479c-38.8818 46.5312 -39.6572 128.074 -21.8672 183.223c15.8076 49.0088 65.0684 119.518 125.287 96.6475
c27.1357 -10.3066 46.666 -29.0293 61.7041 -51.5098c2.06934 22.458 5.4248 44.8174 10.1816 67.0264c5.37988 25.1172 26.334 44.2646 53.3193 40.6279c27.6367 -3.72559 40.8291 -27.7676 40.6279 -53.3193c-0.679688 -85.71 -14.3955 -171.857 6.57812 -258.956
c2.57324 -10.6953 5.45996 -31.5791 18.6523 -25.0303c17.5381 8.70703 30.8809 33.0264 40.9258 49.1055c23.7285 37.9873 42.668 78.7812 57.498 121.009zM135.767 90.7578c17.168 30.9893 30.2637 64.2412 39.6572 98.4902
c-0.00683594 1.13379 -0.0195312 2.26367 -0.0195312 3.39355c-17.7422 36.873 -48.6514 85.1094 -79.5059 45.4805c-26.7939 -34.415 -30.7881 -89.6279 -27.7451 -130.467c0.913086 -12.2598 2.2959 -24.1396 5.77246 -35.9307
c2.43945 -8.28516 6.29297 -22.0137 12.3467 -26.8984c5.29688 -4.27832 -0.290039 -3.24023 6.98633 -2.74902c8.21484 0.555664 14.3643 9.63574 19.2393 15.3252c8.8252 10.2969 16.6982 21.4971 23.2686 33.3555z" />
    <glyph glyph-name="a" unicode="&#xe1;" horiz-adv-x="398" 
d="M405.701 187.654c4.07715 11.6123 21.2617 4.18066 17.5068 -7.28418c-16.7334 -51.0615 -39.46 -100.85 -69.3701 -145.612c-12.627 -18.8984 -27.6777 -39.5273 -45.1992 -54.2363c-20.5137 -17.2158 -49.3701 -15.6611 -70.2695 0.104492
c-22.2188 16.7656 -35.0283 47.4512 -43.1797 73.3154c-7.74902 24.584 -13.6904 49.6758 -16.6025 75.2529c-9.08301 -21.832 -19.8398 -43.0732 -32.167 -63.6953c-7.50293 -12.5508 -15.9219 -24.3701 -25.8545 -35.1133
c-8.62012 -9.32324 -15.1201 -20.2871 -25.3945 -28.1025c-28.1445 -21.4072 -61.8154 -8.05859 -82.377 16.5479c-38.8818 46.5312 -39.6572 128.074 -21.8672 183.223c15.8076 49.0088 65.0684 119.518 125.287 96.6475
c27.1357 -10.3066 46.666 -29.0293 61.7041 -51.5098c2.06934 22.458 5.4248 44.8174 10.1816 67.0264c5.37988 25.1172 26.334 44.2646 53.3193 40.6279c27.6367 -3.72559 40.8291 -27.7676 40.6279 -53.3193c-0.679688 -85.71 -14.3955 -171.857 6.57812 -258.956
c2.57324 -10.6953 5.45996 -31.5791 18.6523 -25.0303c17.5381 8.70703 30.8809 33.0264 40.9258 49.1055c23.7285 37.9873 42.668 78.7812 57.498 121.009zM135.767 90.7578c17.168 30.9893 30.2637 64.2412 39.6572 98.4902
c-0.00683594 1.13379 -0.0195312 2.26367 -0.0195312 3.39355c-17.7422 36.873 -48.6514 85.1094 -79.5059 45.4805c-26.7939 -34.415 -30.7881 -89.6279 -27.7451 -130.467c0.913086 -12.2598 2.2959 -24.1396 5.77246 -35.9307
c2.43945 -8.28516 6.29297 -22.0137 12.3467 -26.8984c5.29688 -4.27832 -0.290039 -3.24023 6.98633 -2.74902c8.21484 0.555664 14.3643 9.63574 19.2393 15.3252c8.8252 10.2969 16.6982 21.4971 23.2686 33.3555z" />
    <glyph glyph-name="b" unicode="b" horiz-adv-x="456" 
d="M482.791 191.313c14.8047 -4.31055 5.42676 -26.4238 -9.20215 -22.1172c-30.7012 9.03906 -69.1709 -4.32227 -98.4355 -13.9678c-9.62891 -3.17383 -19.1436 -6.67969 -28.5557 -10.4531c0.756836 -54.2168 -11.6475 -112.686 -42.4736 -155.408
c-21.1553 -29.3193 -55.998 -41.8066 -91.3291 -34.6328c-29.916 6.07227 -52.4121 19.3252 -70.8184 42.8721c-2.04688 -31.6113 -45.1494 -46.3398 -65.583 -19.2393c-10.2451 13.5889 -20.6855 26.7656 -28.9863 41.666
c-8.14453 14.623 -13.0771 31.1299 -17.9209 47.1133c-9.8916 32.6465 -16.0762 66.6562 -21.3027 100.327c-9.73145 62.6865 -13.7061 126.622 -16.9307 189.941c-6.08203 119.343 -3.10352 237.932 33.1699 352.699c16.6182 52.582 43.6445 107.571 87.5068 142.752
c22.3906 17.959 50.9307 21.998 76.1152 7.62109c20.082 -11.4648 31.0586 -31.9307 37.6484 -53.5938c32.9844 -108.423 14.9648 -230.706 -10.791 -338.781c-24.3418 -102.143 -59.2803 -201.236 -95.1387 -299.812c0.657227 -5.59375 1.33105 -11.1846 2.05566 -16.7656
c2.5127 -19.3867 5.70508 -38.7129 9.0957 -57.9785c7.16113 36.7266 17.1221 72.8555 31.3232 107.532c11.3379 27.6816 25.3096 54.7852 42.5605 79.2773c12.9629 18.4033 33.4346 43.9609 58.8613 41.3018c24.1816 -2.53223 43.4404 -30.1914 54.6025 -49.2871
c15.8652 -27.1484 21.7783 -59.957 25.7441 -90.7637c0.513672 -3.97168 0.951172 -8.00098 1.31543 -12.0713c14.3838 5.56152 29.0166 10.4688 43.8887 14.5654c30.5391 8.40625 62.3867 16.2832 93.5801 7.20312zM108.064 305.516
c1.80078 -26.7139 3.66797 -53.4932 5.96387 -80.2295c31.2412 86.6992 60.6436 174.158 80.959 264.095c11.5479 51.1162 20.0469 103.065 22.6104 155.459c1.35352 27.6748 0.606445 55.2695 -2.34375 82.8232c-2.62793 24.5264 -5.58789 51.0938 -18.4707 72.623
c-3.10938 5.19824 -11.6758 19.7764 -19.46 18.5537c-5.16602 -0.810547 -12.4746 -12.6016 -15.6865 -16.9307c-12.79 -17.2373 -17.8506 -41.0264 -23.8115 -61.3447c-2.12598 -7.25098 -4.51758 -18.1387 -6.69141 -28.7998
c-2.35938 -11.5703 -4.93262 -23.0967 -7.20898 -34.6836c-4.94238 -25.1689 -8.33008 -50.6279 -11.6504 -76.0488c-13.4922 -103.318 -11.1738 -192.09 -4.20996 -295.517zM254.602 68.8027c4.37109 11.4521 7.84082 23.1885 10.6377 35.1074
c-36.4678 -22.123 -70.6299 -48.0264 -102.995 -75.8096c16.3408 -6.77148 40.9287 -15.9922 57.1768 -7.50586c20.3662 10.6416 27.0166 26.8066 35.1807 48.208zM277.222 210.37c0.938477 22.4863 5.9541 48.4746 0.44043 70.6357
c-8.87891 35.6758 -40.2412 5.21973 -52.0352 -10.3545c-49.8486 -65.8281 -71.8721 -149.149 -83.2607 -230.692c39.8359 35.1943 82.3955 67.3232 128.499 93.7686c3.77344 25.4053 5.29297 51.251 6.35645 76.6426z" />
    <glyph glyph-name="c" unicode="c" horiz-adv-x="289" 
d="M300.826 195.803c5.53027 11.1367 22.957 4.10938 17.9766 -7.4707c-29.4053 -68.3154 -62.3262 -137.561 -111.019 -194.507c-17.9561 -20.999 -39.3926 -48.1602 -67.415 -55.2549c-14.6963 -3.72266 -29.2812 -10.0859 -44.8105 -7.18066
c-18.0713 3.38086 -34.3125 17.1162 -45.8389 30.7207c-25.8135 30.4746 -37.5537 70.4102 -46.043 108.637c-8.43848 37.9941 -9.40918 77.3164 -6.8418 116.07c2.4873 37.6016 12.4932 75.2314 30.3564 108.513c17.5215 32.6494 38.8584 63.418 73.8477 78.9189
c83.2227 36.8672 65.251 -97.1299 68.0508 -140.673c1.02441 -15.9316 -23.333 -19.1279 -24.7568 -3.04004c-2.75195 31.0908 1.76562 63.8203 -5.74023 94.3301c-1.16504 4.72852 -6.64746 13.9014 -4.27832 17.5215c-2.72949 -3.58887 -4.89746 -14.4121 -5.625 -17.0205
c-3.52832 -12.6465 -6.99609 -25.4844 -9.38477 -38.4082c-5.08887 -27.5439 -8.58496 -55.5635 -11.6562 -83.3916c-1.56738 -14.2139 -3.74512 -28.3135 -4.72852 -42.5977c-0.459961 -6.64062 -0.789062 -13.3037 -0.878906 -19.9639
c-0.00292969 -0.354492 -0.00976562 -0.606445 -0.0126953 -0.893555c0.0224609 -0.482422 0.0507812 -1.28027 0.0859375 -2.59863c0.0761719 -2.86426 0.133789 -5.72461 0.251953 -8.58496c1.17188 -28.7158 4.6709 -56.7295 9.34863 -85.0498
c3.92676 -23.7764 5.63477 -49.3857 16.251 -71.0039c1.36035 -2.77441 2.74316 -8.98438 5.50781 -11.1553c-1.74609 2.16504 10.2334 5.28711 12.3086 6.41406c10.7949 5.85254 20.083 14.8623 28.7959 23.3936c19.166 18.7666 35.5771 40.5889 50.4043 62.874
c29.6865 44.6221 52.0771 93.5098 75.8438 141.401z" />
    <glyph glyph-name="d" unicode="d" horiz-adv-x="492" 
d="M498.696 211.022c5.85254 15.3701 29.2393 5.49512 23.4951 -9.77246c-30.7305 -81.7129 -61.3906 -163.454 -91.9736 -245.221c-11.7178 -31.3242 -27.5889 -67.3574 -56.3076 -86.8779c-14.1309 -9.60742 -30.4268 -10.46 -46.2148 -4.4668
c-8.77344 3.32715 -17.3555 9.25 -24.8965 14.7188c-7.44824 5.40234 -16.3213 9.07422 -23.5625 14.6328c-26.6504 20.4531 -42.7422 58.4053 -55.8516 88.2158c-16.3818 37.2471 -26.1387 76.5879 -32.9365 116.609c-2.51953 14.8242 -4.51172 29.7852 -6.0918 44.8291
c-10.1562 -26.9561 -22.8926 -53.0283 -37.9336 -78.1875c-7.50293 -12.5508 -15.9219 -24.3701 -25.8545 -35.1143c-8.62012 -9.32324 -15.1201 -20.2871 -25.3945 -28.1025c-28.1445 -21.4072 -61.8154 -8.05859 -82.377 16.5479
c-38.8818 46.5312 -39.6572 128.074 -21.8672 183.223c15.8105 49.0088 65.0684 119.518 125.287 96.6475c27.9746 -10.626 47.8691 -30.1885 63.0889 -53.5977c-0.108398 28.3164 0.648438 56.5723 1.78516 84.4639c3.04883 74.9785 10.3633 149.673 26.5605 223.026
c16.2637 73.6543 38.0898 148.72 80.0234 212.24c32.6328 49.4307 94.9492 108.807 151.863 57.3135c23.6611 -21.4072 31.5215 -49.2773 32.3359 -80.5859c0.922852 -35.4434 -2.96582 -70.9082 -9.89453 -105.636c-13.5752 -68.0479 -35.7646 -137.804 -64.3047 -201.071
c-25.7432 -57.0674 -62.0645 -111.795 -106.549 -156.043c0.395508 -63.6895 4.18164 -127.047 13.1465 -190.148c4.43457 -31.1904 8.36133 -62.5781 13.9453 -93.5898c2.27344 -12.6211 5.12793 -25.8008 8.48633 -37.7578
c3.87598 -13.7988 6.82324 -27.9141 10.584 -41.5723c1.36621 -4.95801 5.9834 -14.5078 10.1436 -17.6943c7.35254 -5.62891 15.5518 1.20996 21.2256 6.5293c9.3291 8.74805 16.6406 20.5195 22.6113 31.6973c14.0479 26.2959 23.7285 54.9414 34.3096 82.7314
c24.374 64.002 48.7441 128.008 73.1182 192.013zM135.774 90.7617c17.5215 31.6309 30.8096 65.6201 40.2383 100.622c-17.6396 37.0166 -48.9033 86.8242 -80.1094 46.7422c-26.7939 -34.415 -30.7881 -89.6279 -27.7451 -130.467
c0.913086 -12.2598 2.29883 -24.1396 5.77246 -35.9307c2.44238 -8.28516 6.2959 -22.0137 12.3496 -26.8984c5.29688 -4.27832 -0.290039 -3.24023 6.98633 -2.74902c8.21484 0.555664 14.3643 9.63574 19.2393 15.3252c8.8252 10.2969 16.6982 21.4971 23.2686 33.3555z
M292.22 369.575c-0.967773 -24.3926 -1.20898 -42.9346 -1.20605 -63.3145c37.1924 41.4424 67.7598 90.2725 89.3779 141.14c27.6465 65.0498 49.5938 136.488 60.7559 206.279c5.01562 31.3496 8.11914 63.8965 5.37305 95.6162
c-1.99512 23.0449 -13.6387 65.8213 -45.1611 51.2207c-22.1641 -10.2646 -33.7217 -36.6338 -42.8975 -57.7695c-11.165 -25.7109 -19.8076 -53.2773 -26.5566 -80.3838c-15.7598 -63.2871 -25.8389 -127.8 -32.3809 -192.629
c-3.36523 -33.332 -5.97656 -66.6738 -7.30469 -100.159z" />
    </font>
</defs>
</svg>
