<?xml version="1.0" encoding="UTF-8"?>
<!DOCTYPE svg PUBLIC "-//W3C//DTD SVG 1.1//EN" "http://www.w3.org/Graphics/SVG/1.1/DTD/svg11.dtd">
<!-- Creator: CorelDRAW 2017 -->
<svg xmlns="http://www.w3.org/2000/svg" xml:space="preserve" width="67.7332mm" height="56.5572mm" version="1.1" style="shape-rendering:geometricPrecision; text-rendering:geometricPrecision; image-rendering:optimizeQuality; fill-rule:evenodd; clip-rule:evenodd"
viewBox="0 0 6773.32 5655.72"
 xmlns:xlink="http://www.w3.org/1999/xlink">
 <defs>
  <style type="text/css">
   <![CDATA[
    .fil0 {fill:none}
    .fil3 {fill:#373435}
    .fil2 {fill:#FFF212}
    .fil1 {fill:#ED3237}
    .fil13 {fill:#00AFEF}
    .fil11 {fill:#3E4095}
    .fil8 {fill:#282828}
    .fil14 {fill:#484848}
    .fil10 {fill:#616161}
    .fil5 {fill:#737373}
    .fil9 {fill:#8D8D8D}
    .fil6 {fill:#A3A3A3}
    .fil12 {fill:#B6B6B6}
    .fil7 {fill:#CBCBCB}
    .fil4 {fill:#E7E7E7}
   ]]>
  </style>
 </defs>
 <g id="Capa_x0020_1">
  <metadata id="CorelCorpID_0Corel-Layer"/>
  <rect class="fil0" x="-0.01" y="-0.01" width="6773.33" height="5655.73"/>
  <path class="fil1" d="M2150.53 1044.07c-10.37,59.08 -17.03,121.23 -25.89,183.1 -24.73,172.76 -20.42,312.23 5.14,486.9 5.2,35.51 12.28,64.35 12.28,97.79 -169.04,0 -130.57,5.3 -113.26,155.68 4.16,36.17 -12.56,114.14 -14.07,157.36 -2.1,60.09 26.1,251.56 37.77,309.91 17.49,87.42 43.22,201.15 100.19,246.95 59.73,48.03 116.06,7.3 145.62,201.51 15.83,103.96 16.13,211.81 43.79,303.35 29.28,96.89 76.11,181.81 91.45,255.68 20.23,97.4 -3.4,362.02 -18.12,480.2 -3.48,28 1.67,55.73 -8.36,76.32 -9.94,20.42 -29.58,24.15 -43.89,48.24 22.45,52.55 -82.71,99.03 -112.02,125.91 -44.79,41.09 -69.56,103.74 -68.84,187.47 0.83,94.97 31.6,127.01 70.51,185.32 34.28,51.35 61.96,108.82 101.64,152.56 87.97,96.98 181.14,147.09 302.37,205.58 125,60.3 268.68,71.39 405.23,116.79l-12.74 -16.88c-82.75,-25.62 -114.74,-97.83 -110.31,-167.47l-2.4 -27.53c-15.91,-30.28 -19.22,-3.61 -27.17,-50.29 -22.6,-132.69 -25.59,-129.94 7.5,-212.26 57.88,0.55 77.57,-6.46 117.55,22.28 29.98,21.55 48.71,43.88 91.71,47.47 66.32,-109.36 55.19,1.69 65.38,-103.62l47.9 -0.33c59.49,-157.24 45.57,-55.38 68.11,-117.86 -17.61,-18.76 -60.92,-40.89 -83.49,-49.46l51.14 -18.95 -2.9 -120.21c116.57,-36.41 134.65,-33.45 181.03,-105.7l85.68 -2.51c19.99,-31.38 -16.79,-36.33 100.59,-35.06l5.73 -49.85c-78.18,2.61 -88.06,47.18 -140.96,67.91 -39.57,15.51 -37.08,-10.63 -67.97,1.59 -32.23,12.74 -32.76,45.13 -32.86,45.29 -53.85,1.4 -53.26,18.49 -102.18,28.64 -37.77,7.85 -76.57,1.82 -109.48,13.56 -12.48,-12.34 -35.86,-56.62 -52.91,-77.95 -91.81,13.45 -46.5,25.57 -91.36,-44.02 -14.21,-22.04 -23.87,-21.04 -55.26,-29.98 -57.98,-16.5 -20.68,1.31 -49.83,-41.89l-80.48 -89.95c-38.67,-29.56 -69.41,-42.25 -25.76,-100.01 24.99,-1.02 16.26,-4.72 36.46,4.82l22.8 20.31c112.24,-42.72 132.92,31.6 194.74,-23.03 36.32,50.19 -23.25,40.16 62.1,41.63 27.68,0.48 -6.6,6.17 44.28,-15.7 10.84,21.66 17.53,47.94 27.24,65.54 20.16,36.56 19.11,5.65 31.19,62.29 43.52,5.05 42.95,-6.97 55.32,29.61 63.42,-45.86 3.28,-1.86 79.37,-4.08 43.33,-1.27 88.49,1.75 107.15,-22.07l-19.51 -4.01c5.53,-60.94 -10.92,-73.82 -11.8,-132.55 -62.79,-9.42 -60.04,-17.75 -62.57,-82.11 -36.81,13.23 -5.84,10.09 -35.63,10.69 -55,1.11 1.8,-73.57 6.21,-84.32 14.42,-35.14 10.58,-77.23 11.27,-115.56 22.33,-9.27 37.12,-20.52 61.72,-30.86 34.35,-14.44 39.95,-7.7 70.94,-31.1l3.25 -71.55c-45.63,-47.54 -61.19,-40.22 -143.03,-43.56 -27.26,-53.3 0.39,-30.07 -51.85,-64.89 -47.55,-31.69 -6.28,-44.1 -41.16,-82.38l76.33 -46.42c45.1,-20.17 239.31,-32.18 296.88,-17.85l25.21 9.54c13.99,3.14 15.16,-3.12 8.26,7.87l177.84 31.88c18.35,-25.11 37.23,-30.56 30.12,-60.25 -6.54,-27.36 -27.92,-43.42 -55.6,-46.76 -181.83,-21.95 -131.72,-113.17 -287.74,-122.78 -124.42,-7.67 -81.79,63.69 -127.13,78.65 -28.24,-25.01 -12.55,-17.92 -20.4,-62.64l-29.89 -9.93c-38.2,-7.61 -63.39,-21.89 -92.46,-36.35 8.91,-22.58 19.27,-31.19 28.96,-53.74 59.64,10.83 66.99,46.93 129.35,18.61 60.49,-27.47 33.34,-41.26 108.31,-35.54 -12.5,-16.19 -9.66,-20.89 -24.39,-36.68 -19.34,-20.73 -13.25,-3.9 -29.59,-27.92 26.53,-21.35 29.4,-13.8 63.82,-11.99 -77.57,-13.03 -51.43,-50.23 -138.15,-56.03l4.64 -50.12c-26.83,15.93 -12.64,14.52 -43.9,25.2 -21.64,-39.97 -45.23,-22.9 -40.43,-57.66 5.27,-38.29 30.32,-10.13 41.55,-54.22 1.14,-4.46 -15.1,-162 -17.46,-167.49 -12.24,-28.51 -28.37,-23.23 -36.74,-63.94l15.44 -254.81c16.9,-104.71 -8.46,-74.94 -24.5,-160.34 -51.49,-274.09 107.28,-373.91 -143.22,-381.8 -36.36,-83.31 -72.27,-60.53 -150.03,-101.17 -139.97,-22.22 -79.74,-17.3 -158.74,-55.15 -98.25,-47.07 -129.25,-36.52 -160.49,-50.15 9.43,-63.19 44.24,-46.34 89.43,-77.89 9.6,-103.1 30.43,-80.55 -6.88,-170.61l67.83 -31.58c-21.27,-122.6 32.04,-71.72 34.54,-159.85 -17.83,-10.08 -67.59,-4.14 -32.01,-59.38l15.86 -17.67c30.47,-44.09 -14.96,-55.34 4.05,-171.77 33.4,-204.71 56,-92.79 139.58,-148.47 47.24,-31.47 38.71,-29.47 113.85,-21.11 95.12,10.58 54.3,-9.96 115.88,-20.24 35.99,-6.01 32.1,0.6 65.27,-11.36 112.27,-40.48 109.7,-9.16 167.49,-18.37 -23.87,-15.89 -17.03,-7.87 -30.49,-30.49 85.88,-9.72 84.56,-21.68 174.21,-7.49 155.15,2.89 213.11,-18.97 345.36,-51.93l21.62 42.54c68.69,0.91 88.94,-18.29 115.24,32.89 70.99,-13.89 97.72,5.21 137.8,39.83 26.77,11.78 23.97,15.24 52.65,27.34 89.06,37.6 24.28,54.62 131.38,64.44l-2.53 -29.76c2.05,-31.2 5.2,-4.73 -24.05,-46.22 -52.31,-74.22 -64.96,-62.63 -141.43,-129.7 -76.42,-67.03 -303.53,-198.79 -379.13,-205.08 -22.08,10.17 -7.88,-7.03 -17.85,16.93 14.13,27.91 20.88,20.17 89.81,46.8 58.97,22.79 194.75,103.86 238.68,136.83 -23.6,15.38 -177.34,-12.29 -224.65,-32.5 -31.56,-13.48 -60.23,-31.03 -92.85,-43.03 -47.08,-17.31 -69.01,-8.55 -85.22,-50.68l-8.09 10.19c-21.09,19.35 -19.24,11.42 -34.63,17.24 -30.75,11.64 -14.32,-2.01 -39.57,30.73l-3.43 -38.98c-76.48,6.51 -65.95,0.68 -138.81,21.28 -109.34,30.9 -51.13,63.39 -334.94,147.73 -115.01,34.18 -174.81,13.99 -288.59,32.5 -70.25,11.43 -124.24,82.32 -240.41,66.92 -18.46,43.44 -34.4,36.29 -71.61,62.19 -52.76,36.73 -28.95,16.82 -102.5,24.71 -13.51,21.16 -9.94,24 -25.57,42.07 -52.16,60.33 -13.33,-0.1 -70.5,107.49 -7.45,14.01 -54.58,157.27 -58.48,177.98 -21.05,111.72 0.7,108.26 0.67,214.14 -0.08,291.82 -92.11,262.77 -113.91,367.74 -14.7,70.8 -10.24,147.76 -15.19,220.81 -10.41,153.7 -26.19,297.99 -32.92,452.38 -27.87,-10.05 -13.97,-14.39 -41.28,-31.76 14.01,-34.41 19.83,-26.07 25.74,-79.33 11.04,-99.67 -3.35,-96.59 -40.36,-143.3 -20.83,-26.29 -15.61,-34.52 -32.76,-58.35l10.81 -5.85c1.55,-0.69 4.17,-1.91 5.86,-2.6l26.45 -8.48c13.95,-176.88 -57.09,-529.96 -10.58,-728.09 7.96,-33.91 22,-49.21 22.62,-83.02l-31.6 -7.48z"/>
  <path class="fil2" d="M3939.7 1423.7c141.93,6.16 186.3,-22.79 339.85,71.44 40.44,24.82 9.2,3.09 21.71,21.57 38.04,56.18 17.21,17.92 48.43,49.62 -21.4,34.34 -65.75,53.52 -107.65,73.47 18.5,79.5 34.73,62.27 81.71,107.09 32.15,30.69 53.89,76.14 40.71,136.83 -27.44,45.12 -147.82,-4.86 -171.32,-6.3l-43.88 19.71c1.69,40.94 -1.33,0.17 10.17,36.45l-44.94 6.18c-1.43,47.51 -0.37,35.71 -19.19,66.83l27.81 33.87c-13.13,28.71 -43.1,67.32 -31.27,106.37 11.83,39.04 48.27,41.75 82.22,54.95 4.7,8.49 31.08,72.62 34.98,82.87 13.02,34.2 1.39,65.91 -2.02,104.45 -43.35,8.04 -35.78,2.25 -46.47,54.39 -9.68,47.23 -1.48,43.57 14.11,72.01 -62.85,14.75 -54.93,-26.6 -113.98,-11.48 -6.42,20.58 -10,21.95 -1.73,48.19 7.02,22.27 12.37,22.59 21.98,31.47 25.4,-16.2 2.36,-38.4 67.73,-32.96 9.24,28.34 -2.1,22.08 16.93,49.89l16.98 -18.19c8.02,-7.23 2.09,-3.85 14.24,-10.99 8.74,-5.15 24.8,-9.15 34.75,-12.28l26.57 64.01c-57.17,-1.92 -75.16,4.55 -96.58,32.88l-12.89 30.74c-25.96,5.76 -28.58,0.27 -50.5,14.08 2.77,46.84 10.87,17.57 15.92,61.66l-43.12 19.4c7.13,67.97 26.19,22.02 21.13,74.49 -3.09,32.07 -10.62,53.24 -35.96,66.99 -58.94,12.53 -75.92,-66.56 -106.46,-107.89 -38.05,-51.5 -77.02,-41.59 -103.53,-122.27 -20.28,-16.45 -93.32,-96.77 -105.44,-117.85 -21.86,-38.07 -27.68,-137.22 -32.13,-187.8 -11.03,-28.67 -17.41,-19.89 -24.37,-58.06 76.09,-0.98 83.16,-11.52 117.48,-52 -0.11,-46.78 -10.02,-36 8.83,-76.67 17.01,-36.7 16.5,-20.03 5.24,-60.66 -14.36,-16.24 -4.67,-4.42 -12.97,-23.5 -29.67,-26.58 -49.08,-35.81 -77.31,-67.91 -23.3,-26.51 -46.96,-42.36 -62.95,-83.19l2.58 -5.81c-67.57,-27.14 -97.1,-96.59 -103.35,-186.05 -8.66,-124 -5.68,-150.99 -141.22,-149.2 -1.22,1.83 -2.57,4.45 -3.19,5.78 -0.64,1.34 -2.31,4.2 -3.04,5.88l-23.88 95.45c-10.86,53.37 8.05,69.35 5.89,122.71 -1.83,45.06 -10.62,77.14 -8.38,126.87 1.95,43.44 7.07,80.84 7.06,126.93 0,59.5 -17.8,212.92 -0.23,254.33 30.27,71.35 109.86,30.89 58.36,165.39 5.1,42.28 16.77,45.96 17.69,97.3 49.82,-0.11 47.54,-8.31 87.6,13.95 20.17,11.21 44.33,22.35 59.94,33.28 37.28,26.1 39.82,70.69 84.03,102.34 62.07,44.44 3.25,-23.26 125.46,69.11 51.08,38.61 42.31,24.01 84.04,100.13 44.16,29.13 45.61,75.69 91.94,98.55l-42.18 13.92c5.27,16.19 13.13,40 20.33,56.29 22.01,49.78 -2.28,11.6 37.73,36.84 -11.63,62.92 11.69,49.16 19.61,109.43 5.98,45.53 6.68,94 12.09,139.1 5.43,45.24 19.13,83.59 22.51,124.13 4.9,58.78 -22.8,79.46 -36.22,119.31 122.69,-28.58 178.85,-141.87 192.82,-155.94 34.7,-34.95 31.7,21.07 86.88,-125.86l-36.67 -37.45 91.7 -7.02c29.15,-9.43 12.78,-3.79 25.69,-13.3 -2.53,-21.21 -7.55,-28.91 -17.54,-42.33 50.62,-41.49 26.2,12.14 44.6,-63.25 10.8,-44.24 22.04,-39.32 37.55,-44.13 1.04,-0.33 4.14,-1.11 5.01,-1.35 18.7,-5.37 2.29,-42.96 37.63,-74.53 9.88,-36.87 21.29,-80.06 41.23,-107.51 0,-222.73 12.48,-208.87 101.33,-259.84 107.25,-61.54 101.97,-97.11 137.48,-226.59 88.53,-322.82 31.88,-202.83 40.32,-484.61 1.27,-42.34 8.62,-42.93 9.36,-84.45 0.78,-44.16 -8.25,-46.91 -9.09,-84.61 -18.3,-1.56 -24.18,-2.71 -33.86,-5.24 -31.01,5.08 -98.95,92.57 -104.33,121.42 -50.76,-5.45 -25.18,-6.44 -37.64,2.34l-3.45 172.2c143.08,12.62 73.33,-0.43 126.63,-9.46 126.38,252.92 -65,290.56 -105.56,331.17 -41.78,41.84 14.61,62.4 -81.08,89.81 0.24,21.16 2.3,45.84 -0.46,66.45 -0.81,6.03 -4.08,19.77 -7.06,25.94 -11.45,23.75 -6.41,11.65 -15.78,20.16 -5.57,-72.72 7.84,-108.87 22.53,-174.49 40.13,-179.24 -3.97,-89.89 70.48,-122.96 18.76,-59.14 10.22,-74.14 -41.83,-92.89 1.59,-184.12 -14.97,-346.22 -24.24,-525.71 -2.33,-45.14 0,-92.15 -2.18,-136.51 -2.77,-56.37 -7.72,-29.42 -16.2,-49.6 -9.83,-23.42 1.59,-24.88 -0.23,-50.67 -2.6,-36.9 -9.64,-12.69 -18.02,-46.48 -17.05,-68.73 45.91,-45.12 -63.66,-125.96 31.08,-116.87 -13.05,-83.84 -2.97,-160.86 9.7,10.42 17.29,17.69 32.01,24.16 -0.31,-28.42 -10.43,-37.6 -11.22,-64.45 -0.91,-31.39 9.09,-30.44 -3.74,-66.41 -75.04,-210.5 5.21,-148.81 -52.94,-269.54 -20.76,-43.1 -37.55,-61.22 -52.37,-113.04l-1.52 -6.56c-62.56,-5.43 -25.64,-8.8 -60.45,-45.34l-182.44 -121.39c-32.3,0.34 -22.34,8.35 -57.04,13.71 -24.51,3.78 -40.93,-1.07 -62.4,4.94 -44.13,12.34 37.31,21.85 -101.29,7.18 1.34,47.17 -9.12,87.63 -30.55,123.35 -61.73,-1.46 -15.25,-12.95 -67.13,-17.84 -1.48,58.85 12.18,43.78 -0.14,120.48 -6.61,41.14 3.38,75.83 9.85,114.44 24.94,148.81 -43.46,113.72 -55.18,198.09 -9.95,71.63 34.1,49.5 41.36,92.63 5.93,35.25 -12.01,60.03 4.19,108.25 47.29,140.78 32.26,107.43 89.35,149.88 13.92,10.36 4.25,-0.22 14.27,13.71z"/>
  <path class="fil3" d="M2150.53 1044.07l31.6 7.48c-0.62,33.81 -14.66,49.11 -22.62,83.02 -46.51,198.13 24.53,551.21 10.58,728.09l-26.45 8.48c-1.69,0.69 -4.31,1.91 -5.86,2.6l-10.81 5.85c17.15,23.83 11.93,32.06 32.76,58.35 37.01,46.71 51.4,43.63 40.36,143.3 -5.91,53.26 -11.73,44.92 -25.74,79.33 27.31,17.37 13.41,21.71 41.28,31.76 6.73,-154.39 22.51,-298.68 32.92,-452.38 4.95,-73.05 0.49,-150.01 15.19,-220.81 21.8,-104.97 113.83,-75.92 113.91,-367.74 0.03,-105.88 -21.72,-102.42 -0.67,-214.14 3.9,-20.71 51.03,-163.97 58.48,-177.98 57.17,-107.59 18.34,-47.16 70.5,-107.49 15.63,-18.07 12.06,-20.91 25.57,-42.07 73.55,-7.89 49.74,12.02 102.5,-24.71 37.21,-25.9 53.15,-18.75 71.61,-62.19 116.17,15.4 170.16,-55.49 240.41,-66.92 113.78,-18.51 173.58,1.68 288.59,-32.5 283.81,-84.34 225.6,-116.83 334.94,-147.73 72.86,-20.6 62.33,-14.77 138.81,-21.28l3.43 38.98c25.25,-32.74 8.82,-19.09 39.57,-30.73 15.39,-5.82 13.54,2.11 34.63,-17.24l8.09 -10.19c16.21,42.13 38.14,33.37 85.22,50.68 32.62,12 61.29,29.55 92.85,43.03 47.31,20.21 201.05,47.88 224.65,32.5 -43.93,-32.97 -179.71,-114.04 -238.68,-136.83 -68.93,-26.63 -75.68,-18.89 -89.81,-46.8 9.97,-23.96 -4.23,-6.76 17.85,-16.93 -10.44,-9.08 -11.23,-9.9 -25.34,-16.99l-92.05 -34.95c-301.8,-91.95 -607.7,-44.49 -881.7,94.24 -58.23,29.48 -185.06,88.33 -227.4,119.74 -189.23,140.43 -296.7,259.72 -415.77,464.76 -27.31,47.03 -86.02,193.22 -93.4,256.41z"/>
  <path class="fil4" d="M4177.21 3668.1l-3.32 54.64c-95.87,49.27 -74.74,70.97 -96.17,109.51 -22.24,40 -126.78,46.25 -135.79,88.66 -4.04,19.04 1.76,3.71 -3.36,15.36 -6.84,15.55 3.38,0.88 -17.07,18.38l-53.43 40.31c-51.47,25.68 -20.13,12.22 -49.4,43.66 -3.62,3.88 -129.97,47.61 -119.24,151.35 4.09,39.52 20.13,42.11 32.11,62.84 15.86,27.43 -2.73,30.19 -14.98,56.72 1.8,1.19 4.8,0.57 5.66,3.17 3.26,9.98 3.65,2.15 11.02,5.87 41.82,21.11 -11.12,-8.61 15.08,7.29 -21.79,26.99 -18.52,16.35 -6.19,41.67 7.79,15.99 21.64,30.29 37.78,40.07 32.01,19.4 90.56,14.39 135.64,17.11l-0.42 62.72c13.99,13.37 1.75,1.63 18.47,12.64l21.83 15.37c-41.79,27.59 -12.74,78.28 -26.07,109.94 -7.85,18.67 0.66,-15.46 -6.56,15.37 -2.8,11.92 -2.29,19.36 -2.44,31.64 -31.08,2.13 -18.62,-1.13 -41.73,10.27 -0.3,69.99 40.19,92.03 7.37,151.83 -60.85,110.86 -18.93,28.72 -59.98,135.44 10.81,6.57 0.48,8.02 22.9,3.64 108.2,1.65 428.74,-210.35 507.12,-346.48 43.15,-74.94 114.68,-199.72 129.01,-302.92 24.46,-176.14 -121.91,-154.87 -142.1,-285.58 -71.73,-54.46 -36.62,-333.5 -57.98,-448.73l-9.31 -23.01c-27.74,7.37 -29.54,26.29 -52.22,46.9 -27.12,24.65 -30.02,21.11 -46.23,54.35z"/>
  <path class="fil5" d="M3029.9 1468.09c77.76,40.64 113.67,17.86 150.03,101.17 250.5,7.89 91.73,107.71 143.22,381.8 16.04,85.4 41.4,55.63 24.5,160.34l-15.44 254.81c8.37,40.71 24.5,35.43 36.74,63.94 2.36,5.49 18.6,163.03 17.46,167.49 -11.23,44.09 -36.28,15.93 -41.55,54.22 -4.8,34.76 18.79,17.69 40.43,57.66 31.26,-10.68 17.07,-9.27 43.9,-25.2l-4.64 50.12c86.72,5.8 60.58,43 138.15,56.03 -34.42,-1.81 -37.29,-9.36 -63.82,11.99 16.34,24.02 10.25,7.19 29.59,27.92 14.73,15.79 11.89,20.49 24.39,36.68 -74.97,-5.72 -47.82,8.07 -108.31,35.54 -62.36,28.32 -69.71,-7.78 -129.35,-18.61 -9.69,22.55 -20.05,31.16 -28.96,53.74 29.07,14.46 54.26,28.74 92.46,36.35 -12.06,-25.25 -16.23,-17.7 -23.52,-40.85 103.69,-9.35 278.14,-66.3 353.21,-3.39 5.39,-9.51 -4.85,-24.27 21.29,-38.48 1.17,-0.63 4.47,-1.71 5.48,-2.19 1.05,-0.49 4.05,-0.95 5.78,-2.04l4.4 -34.93c-17.62,-16.73 -35.03,-16.05 -57.28,-37.85 -25.95,-25.43 12.36,-3.08 -27.12,-24.3 -11.14,-5.99 -21.07,-5.99 -33.06,-11.86 -7.85,-5.94 1.5,-21.74 -36.45,-44.51 -123.34,-73.99 33.98,-19.69 -109.34,-77.31 -31.19,-12.54 -36.72,-25.57 -62.44,-38.92 0.73,-39.82 -4.27,-76.98 33.47,-89.57 51.5,-134.5 -28.09,-94.04 -58.36,-165.39 -17.57,-41.41 0.23,-194.83 0.23,-254.33 0.01,-46.09 -5.11,-83.49 -7.06,-126.93 -2.24,-49.73 6.55,-81.81 8.38,-126.87 2.16,-53.36 -16.75,-69.34 -5.89,-122.71l23.88 -95.45c0.73,-1.68 2.4,-4.54 3.04,-5.88 0.62,-1.33 1.97,-3.95 3.19,-5.78 135.54,-1.79 132.56,25.2 141.22,149.2 6.25,89.46 35.78,158.91 103.35,186.05 -4.19,-53.36 -18.02,-40.71 -15.52,-116.82l-63.46 -64.98c9.49,-59.33 21.87,-81.33 56.85,-107.68l104.91 -64.93c-78.68,-17.76 -137.62,4.07 -197.78,-55.99 1.55,-45.12 27.29,-56.97 65.16,-70.77 25.75,14.92 25.34,25.81 57.21,21.35 24.98,-3.49 40.54,-23.02 50.01,-36.31l-200.35 -0.23c-27.75,-28.7 -15.46,-30.6 -50.8,-49.99 -22.61,37.57 7.3,30.53 -33.87,53.72 -19.19,-19.9 -20.55,-41.35 -33.87,-64.13 -38.99,19.09 -23.62,19.78 -76.2,15.8 -5.55,11.35 -5.8,-2.1 -4.82,18.55 0.18,3.68 8.16,20.57 9.04,22.44 -67.36,-0.48 -40.53,-18.16 -88.24,38.45 -19.92,-9.73 -22.51,-14.24 -48.85,-26.91 -34.29,-16.5 -19,1.62 -35.67,-33.52 -34.11,-71.94 -14.66,-29.06 -69.66,-74.72 -3.43,-31.16 0.09,-65.46 -8.45,-92.52 -8.84,-28.04 -28.22,-41.84 -32.15,-70.42 -9.77,-71.01 34.09,-1.16 39.14,-164.3 53.43,7.62 49.8,9.6 65.82,-32.58 38.28,-100.75 54.38,-77.09 48.58,-157.2 -6.03,-83.37 -73.15,-45.16 26.09,-134.91 4.84,-142.72 -11.25,-64.43 72.91,-128.06 66.13,-49.99 40.1,-38.22 142.43,-53.7l16.67 -35.68c-156.89,24.7 -95.77,-17.44 -200.35,30.96 -149.39,69.13 -103.98,25.48 -186.95,59.01 0.77,2.16 2.53,4.8 3.11,6.13l8.63 31.02c-41.46,17.71 -31.2,2.68 -63.32,1.98 -54.34,-1.18 -21.81,133.8 -28.84,209.21 25.35,11.26 24.79,8.52 37.61,31.53 -17.01,58.71 -37.16,46.73 -55.52,84.67l36.06 10.49c17.42,6.77 12.54,9.46 15.95,40.31 -68.28,25.95 -20.47,-2.11 -54.82,39.52 -31.63,-0.89 -23.75,3.75 -39.05,-18.84 -8.65,39.85 5.57,65.5 0.6,95.89 -4.75,29.06 -31.37,39.6 -26.68,77.27 4.83,38.79 15.83,0.51 6.94,37.43l-35.88 127.14c39.45,25.59 18.23,40.42 70.86,63.27 56.39,24.48 44.32,2.13 81.32,47.35z"/>
  <path class="fil6" d="M3860.03 1448.11c87.31,-0.37 182.52,-9.49 260.76,19.23 56.14,20.6 137.51,78.34 154.11,117.19 -42.18,11.39 -102.29,16.81 -134.39,41.06 0.26,79.71 43.84,55.6 76.39,127.2 106.8,44.44 100.03,123.42 28.9,107.97l-109.5 -47.19c19.87,29.81 18.93,32.99 12.57,66.23l44.27 -2.38c23.5,1.44 143.88,51.42 171.32,6.3 13.18,-60.69 -8.56,-106.14 -40.71,-136.83 -46.98,-44.82 -63.21,-27.59 -81.71,-107.09 41.9,-19.95 86.25,-39.13 107.65,-73.47 -31.22,-31.7 -10.39,6.56 -48.43,-49.62 -12.51,-18.48 18.73,3.25 -21.71,-21.57 -153.55,-94.23 -197.92,-65.28 -339.85,-71.44 -93.17,-0.54 -62.53,-16.79 -129.07,-35.77 -63.11,-18.01 -64.64,-13.54 -78.85,-73.66 -11.91,-50.43 -51.05,-59.3 -34.68,-113.89 18.72,-62.41 25.68,-45.07 7.2,-121.15 -49.69,-204.54 -46.83,-77.64 -63.91,-334.41 -3.81,-57.25 -1.01,-12.23 -19.13,-56.52 -27.23,-66.53 -15.61,-58.97 -90.66,-40.53l-3.17 -88.98c19,-18.36 30.22,-23.81 52.96,-34.82 30.78,-14.92 35.75,-7.45 46.71,-41.02 -130.71,-0.84 -152.6,133.14 -265.84,143.57 -2.08,49.15 -24.69,68.18 -66.43,59.16l-24.41 169.44c6.11,8.96 5.56,7.91 14.59,17.2l18.32 16.67c-20.67,30.35 -9.09,16.24 -15.56,32.72 -17.23,43.93 -13.15,-4.44 -34.94,54.08 -46.21,124.08 -79.01,42.7 -57.46,149.89 -93.76,15.38 -75.05,185.48 9.23,139.67l48.58 70.6 31.88 -22.86c48.89,53.2 17.19,19.16 73.14,49.27 20.43,-10.96 3.65,-1.65 15.79,-11.43 83.61,-67.35 1.97,-33.78 88.87,-89.41 -16.03,-48.67 -11.26,-100.95 8.47,-150.67 55.96,2.68 40.07,5.99 97.37,-1.34l-9.07 50.41c20.77,15.44 29.18,8.75 34.64,36.39 4.74,23.94 -7.48,34.39 -14.52,46.69 -18.59,32.51 -7.71,-4.17 -0.57,44.21 15.08,102.15 -35.15,65.95 66.22,104.59l35.63 15.79c48.74,27.13 21.65,4.54 80.85,21.08 58.55,16.36 24.96,-10.67 70.15,-3.06 39.72,6.69 23.2,2.13 28,22.5z"/>
  <path class="fil7" d="M3691.5 3165.91c6.9,-10.99 5.73,-4.73 -8.26,-7.87 -104.21,-3.82 -149.44,16.13 -220.38,55.21l-0.87 56.1 41.99 23.01 -22.2 34.14c40.85,36.57 119.85,60.21 155.62,88.14 -17.9,36.01 -19.78,35.73 -27.82,82.09 -2.04,1.3 -5.49,0.04 -6.64,2.93 -6.7,16.89 -25.92,-10.17 -61.3,41.44l-86.46 -14.78c-13.3,54.33 -21.41,68.05 4.97,116.75 34.25,63.24 9.76,139.63 136.82,117.75l19.59 56.52 92.02 -5.28c16.99,15.66 18.18,19.84 42.15,39.25 34.61,-5.58 41.92,-24.72 101.6,-34.21 21.76,-32.9 1.82,-34.91 36.85,-45.44 42.87,-12.88 25.61,9.52 65.55,-20.1 70.74,-52.44 9.32,16.84 106.57,-71.31 38.03,-34.46 26.42,4.59 189.04,-157.98 25.09,-25.08 59.35,-62.26 77.22,-92.03 50.09,-83.41 7.87,-39.5 76.75,-101.42 51.3,-46.12 86.09,-181 101.05,-252.42 -35.34,31.57 -18.93,69.16 -37.63,74.53 -0.87,0.24 -3.97,1.02 -5.01,1.35 -15.51,4.81 -26.75,-0.11 -37.55,44.13 -18.4,75.39 6.02,21.76 -44.6,63.25 9.99,13.42 15.01,21.12 17.54,42.33 -12.91,9.51 3.46,3.87 -25.69,13.3l-91.7 7.02 36.67 37.45c-55.18,146.93 -52.18,90.91 -86.88,125.86 -13.97,14.07 -70.13,127.36 -192.82,155.94 13.42,-39.85 41.12,-60.53 36.22,-119.31 -3.38,-40.54 -17.08,-78.89 -22.51,-124.13 -5.41,-45.1 -6.11,-93.57 -12.09,-139.1 -7.92,-60.27 -31.24,-46.51 -19.61,-109.43 -40.01,-25.24 -15.72,12.94 -37.73,-36.84 -7.2,-16.29 -15.06,-40.1 -20.33,-56.29l42.18 -13.92c-46.33,-22.86 -47.78,-69.42 -91.94,-98.55 -15.73,31.2 -8.46,5.86 -26.49,38.68 42.75,33.77 45.86,82.39 50.16,150.21 4.52,71.33 21.88,113.49 -32.42,150.58 -52.74,-24.02 -45.21,-39.4 -78.84,-63.55 -40.82,-29.32 -65.86,-6.03 -114.03,-4.83l-18.76 -49.17z"/>
  <path class="fil8" d="M2748.91 1786.02c58.71,-25.29 33.45,-41.36 68.71,-80.24 52.98,13.35 61.71,-10.46 106.36,26.89 96.32,80.57 33.19,197.99 -106.17,189.06 17.21,10.21 43.92,12.31 70.37,19.24l-91.78 54.84c29.33,3.72 59.46,-12.14 101.83,-17.51l-16.47 49.1c20.32,-0.08 27.86,-2.39 47.28,-5.41 39.66,-6.18 22.84,-10.16 46.85,5.78 4.19,2.79 7.88,7.42 19.06,14.52l64.93 41.29c22.59,-37.88 51.5,-48.78 85.24,-30.66 16.58,-57.1 62.22,-81.01 89.25,-139.12 13.31,-28.63 46.66,-151 37.65,-182.27 -12.35,-42.89 -96.41,-69.38 -123.63,-104.96 -24.31,-31.76 -4.94,-47.65 -110.11,-118.09 -32.67,-21.89 -301.07,-91.19 -357.9,-97.12 -141.74,-14.77 -266.78,100.63 -238.04,194.14 84.46,18.4 126.48,-17.09 199.11,-15.37 35.01,0.83 68.57,6.18 102.32,8.94 70.3,5.77 53.67,-6.53 86.46,36.3 -85.64,27.24 -172.33,44.21 -239.33,91.99 -59.37,42.33 -116.74,121.19 -143.25,184.26l42.07 -19.31 13.09 48.52c25.14,-0.85 50.16,-2.08 69.76,-12.01 37.43,-18.97 12.4,-16.36 43.62,-38.26 35.55,22.09 28.19,30.23 83.88,48.04 3.25,-79.8 -8.29,-31.34 -42.2,-84.41 -6.29,-62.01 43.19,-93.3 97.21,-105.02l-6.17 36.85z"/>
  <path class="fil2" d="M3049.33 5003.81l12.74 16.88c58.81,0.7 120.28,19.64 180.52,25.8 55.91,5.72 154.69,-4.69 199.33,9.83 26.5,-13.71 65.38,-7.39 96.43,-11.11 30.41,-3.65 57.92,-16.42 87.99,-21.24 60.42,-9.69 138.79,1.8 183.82,-29.45l-67.9 1.35c-14.17,-29.07 -12.49,-74.09 -24.09,-103.55 -46.66,-118.51 -62.12,-68.99 -135.56,-160.97 -39.52,-49.5 -42.71,-76.44 -43.27,-167.92 -0.31,-51.73 -13.34,-62.41 -16.38,-109.88 -5.08,-79.34 -4.45,-173.18 1.07,-252.32 41,-25.36 43.87,-43.08 76.02,-59.67 46.54,-24.02 67.01,-6.78 67.39,-73.89 -60.44,6.61 -16.35,16.05 -68.04,39.88 -92.92,42.83 -181.77,50.21 -198.68,81.15 -37.1,67.87 10.96,127.03 11.01,127.14 7.44,18.95 -3.73,38.42 -0.78,69.83 3.82,40.59 18.95,30.9 9.29,59.64 -56.31,167.59 -79.09,86.19 -95.78,242.9l-54.04 -4.23c4.5,42.29 19.84,15.6 14.64,73.13 -25.78,6.63 -52.15,8.02 -78.79,15.7 -184.56,53.23 -79.18,-14.98 -181.19,70.12 14.05,69.66 -4.8,87.81 24.25,160.88z"/>
  <path class="fil7" d="M3725.9 4038.66l-49.16 18.72c-26.3,31.48 26.41,-15.74 -9.3,10.29 -0.38,67.11 -20.85,49.87 -67.39,73.89 -32.15,16.59 -35.02,34.31 -76.02,59.67 -5.52,79.14 -6.15,172.98 -1.07,252.32 3.04,47.47 16.07,58.15 16.38,109.88 0.56,91.48 3.75,118.42 43.27,167.92 73.44,91.98 88.9,42.46 135.56,160.97 11.6,29.46 9.92,74.48 24.09,103.55l67.9 -1.35c29.59,-2.79 24.97,-0.97 38.76,-20.95 -22.42,4.38 -12.09,2.93 -22.9,-3.64 41.05,-106.72 -0.87,-24.58 59.98,-135.44 32.82,-59.8 -7.67,-81.84 -7.37,-151.83 23.11,-11.4 10.65,-8.14 41.73,-10.27 0.15,-12.28 -0.36,-19.72 2.44,-31.64 7.22,-30.83 -1.29,3.3 6.56,-15.37 13.33,-31.66 -15.72,-82.35 26.07,-109.94l-21.83 -15.37c-16.72,-11.01 -4.48,0.73 -18.47,-12.64l0.42 -62.72c-45.08,-2.72 -103.63,2.29 -135.64,-17.11 -16.14,-9.78 -29.99,-24.08 -37.78,-40.07 -12.33,-25.32 -15.6,-14.68 6.19,-41.67 -26.2,-15.9 26.74,13.82 -15.08,-7.29 -7.37,-3.72 -7.76,4.11 -11.02,-5.87 -0.86,-2.6 -3.86,-1.98 -5.66,-3.17 12.25,-26.53 30.84,-29.29 14.98,-56.72 -11.98,-20.73 -28.02,-23.32 -32.11,-62.84 -10.73,-103.74 115.62,-147.47 119.24,-151.35 29.27,-31.44 -2.07,-17.98 49.4,-43.66l53.43 -40.31c20.45,-17.5 10.23,-2.83 17.07,-18.38 5.12,-11.65 -0.68,3.68 3.36,-15.36 9.01,-42.41 113.55,-48.66 135.79,-88.66 21.43,-38.54 0.3,-60.24 96.17,-109.51l3.32 -54.64c-87,55.25 -112.47,157.64 -215.98,200.02 -86.01,35.22 -138.57,146.73 -235.33,170.54z"/>
  <path class="fil1" d="M4792.13 1823.55c-12.32,-21.12 -1.16,-10.94 -24.9,-20.78 -5.54,-2.3 -32.59,-6.99 -42.84,-7.84 0,-158.95 1,-183.2 18.23,-345.85 18.66,-176.12 -18.23,-204.49 -18.23,-328.68l-25.4 32.27c-80.94,-25.9 -73.08,-74.55 -90.56,-105.23 -38.13,-66.93 -29.63,-33.53 -59.83,-135.03 -36.19,-121.59 -39.3,-67.13 -65.99,-128.9 -24.31,-56.28 -27.18,-89.77 -83.79,-115.34 14.82,51.82 31.61,69.94 52.37,113.04 58.15,120.73 -22.1,59.04 52.94,269.54 12.83,35.97 2.83,35.02 3.74,66.41 0.79,26.85 10.91,36.03 11.22,64.45 -14.72,-6.47 -22.31,-13.74 -32.01,-24.16 -10.08,77.02 34.05,43.99 2.97,160.86 109.57,80.84 46.61,57.23 63.66,125.96 8.38,33.79 15.42,9.58 18.02,46.48 1.82,25.79 -9.6,27.25 0.23,50.67 8.48,20.18 13.43,-6.77 16.2,49.6 2.18,44.36 -0.15,91.37 2.18,136.51 9.27,179.49 25.83,341.59 24.24,525.71 52.05,18.75 60.59,33.75 41.83,92.89 -74.45,33.07 -30.35,-56.28 -70.48,122.96 -14.69,65.62 -28.1,101.77 -22.53,174.49 9.37,-8.51 4.33,3.59 15.78,-20.16 2.98,-6.17 6.25,-19.91 7.06,-25.94 2.76,-20.61 0.7,-45.29 0.46,-66.45 95.69,-27.41 39.3,-47.97 81.08,-89.81 40.56,-40.61 231.94,-78.25 105.56,-331.17 -53.3,9.03 16.45,22.08 -126.63,9.46l3.45 -172.2c12.46,-8.78 -13.12,-7.79 37.64,-2.34 5.38,-28.85 73.32,-116.34 104.33,-121.42z"/>
  <path class="fil7" d="M4015.7 1904.93l3.01 29.49 51.95 21.37c-12.68,77.67 -42.09,7.11 -27.41,101.6 -29.28,19.04 -50.33,37.15 -19.57,107.31 15.72,35.85 35.25,70.13 38.71,112.42 -74.4,-12.44 -217.96,-125.98 -246.64,-136.92 11.26,40.63 11.77,23.96 -5.24,60.66 -18.85,40.67 -8.94,29.89 -8.83,76.67 -34.32,40.48 -41.39,51.02 -117.48,52 6.96,38.17 13.34,29.39 24.37,58.06 30.03,0.47 39.82,-6.66 64.59,-3.33 20.38,2.75 32.49,10.68 62.22,13.4l0.41 49.2c9.3,8.37 2.48,3.7 16.07,11.36 1.53,0.86 14.7,5.31 15.39,5.57 0.9,86.35 13.75,58.39 55.57,107.43 15.83,18.56 42.08,82.37 52.3,104.24 -24.35,35.8 -25.7,-3.43 -44.59,52.4 -29.81,-12.51 -52.32,-20.35 -84.39,-34.62 26.51,80.68 65.48,70.77 103.53,122.27 30.54,41.33 47.52,120.42 106.46,107.89 25.34,-13.75 32.87,-34.92 35.96,-66.99 5.06,-52.47 -14,-6.52 -21.13,-74.49l43.12 -19.4c-5.05,-44.09 -13.15,-14.82 -15.92,-61.66 21.92,-13.81 24.54,-8.32 50.5,-14.08l12.89 -30.74c21.42,-28.33 39.41,-34.8 96.58,-32.88l-26.57 -64.01c-9.95,3.13 -26.01,7.13 -34.75,12.28 -12.15,7.14 -6.22,3.76 -14.24,10.99l-16.98 18.19c-19.03,-27.81 -7.69,-21.55 -16.93,-49.89 -65.37,-5.44 -42.33,16.76 -67.73,32.96 -9.61,-8.88 -14.96,-9.2 -21.98,-31.47 -8.27,-26.24 -4.69,-27.61 1.73,-48.19 59.05,-15.12 51.13,26.23 113.98,11.48 -15.59,-28.44 -23.79,-24.78 -14.11,-72.01 10.69,-52.14 3.12,-46.35 46.47,-54.39 3.41,-38.54 15.04,-70.25 2.02,-104.45 -3.9,-10.25 -30.28,-74.38 -34.98,-82.87 -33.95,-13.2 -70.39,-15.91 -82.22,-54.95 -11.83,-39.05 18.14,-77.66 31.27,-106.37l-27.81 -33.87c18.82,-31.12 17.76,-19.32 19.19,-66.83l44.94 -6.18c-11.5,-36.28 -8.48,4.49 -10.17,-36.45l43.88 -19.71 -44.27 2.38c6.36,-33.24 7.3,-36.42 -12.57,-66.23 -8.17,-42.77 -52.56,-95.06 -125.87,-35.58 20.16,28.15 13.16,9.16 42.82,26.69 1.8,63.58 -16.44,60.8 -37.55,100.25z"/>
  <path class="fil9" d="M3629.28 416.51l-21.84 15.31c-43.16,25.18 -98.22,59.63 -147.21,61.93l-16.67 35.68c-102.33,15.48 -76.3,3.71 -142.43,53.7 -84.16,63.63 -68.07,-14.66 -72.91,128.06 -99.24,89.75 -32.12,51.54 -26.09,134.91 5.8,80.11 -10.3,56.45 -48.58,157.2 -16.02,42.18 -12.39,40.2 -65.82,32.58 -5.05,163.14 -48.91,93.29 -39.14,164.3 3.93,28.58 23.31,42.38 32.15,70.42 8.54,27.06 5.02,61.36 8.45,92.52 55,45.66 35.55,2.78 69.66,74.72 16.67,35.14 1.38,17.02 35.67,33.52 26.34,12.67 28.93,17.18 48.85,26.91 47.71,-56.61 20.88,-38.93 88.24,-38.45 -0.88,-1.87 -8.86,-18.76 -9.04,-22.44 -0.98,-20.65 -0.73,-7.2 4.82,-18.55 52.58,3.98 37.21,3.29 76.2,-15.8 13.32,22.78 14.68,44.23 33.87,64.13 41.17,-23.19 11.26,-16.15 33.87,-53.72 35.34,19.39 23.05,21.29 50.8,49.99l200.35 0.23c33.43,-19.86 95.07,-14.92 137.55,-15.55 -4.8,-20.37 11.72,-15.81 -28,-22.5 -45.19,-7.61 -11.6,19.42 -70.15,3.06 -59.2,-16.54 -32.11,6.05 -80.85,-21.08l-35.63 -15.79c-101.37,-38.64 -51.14,-2.44 -66.22,-104.59 -7.14,-48.38 -18.02,-11.7 0.57,-44.21 7.04,-12.3 19.26,-22.75 14.52,-46.69 -5.46,-27.64 -13.87,-20.95 -34.64,-36.39l9.07 -50.41c-57.3,7.33 -41.41,4.02 -97.37,1.34 -19.73,49.72 -24.5,102 -8.47,150.67 -86.9,55.63 -5.26,22.06 -88.87,89.41 -12.14,9.78 4.64,0.47 -15.79,11.43 -55.95,-30.11 -24.25,3.93 -73.14,-49.27l-31.88 22.86 -48.58 -70.6c-84.28,45.81 -102.99,-124.29 -9.23,-139.67 -21.55,-107.19 11.25,-25.81 57.46,-149.89 21.79,-58.52 17.71,-10.15 34.94,-54.08 6.47,-16.48 -5.11,-2.37 15.56,-32.72l-18.32 -16.67c-9.03,-9.29 -8.48,-8.24 -14.59,-17.2l24.41 -169.44c41.74,9.02 64.35,-10.01 66.43,-59.16 113.24,-10.43 135.13,-144.41 265.84,-143.57l359.38 -30.73c24.7,2.84 24.66,19.73 60.75,18.66 38.86,-1.15 70.22,-26.34 107.18,24l182.44 121.39c34.81,36.54 -2.11,39.91 60.45,45.34 -31.54,-98.94 -113.72,-90.39 -148,-181.77 -40.08,-34.62 -66.81,-53.72 -137.8,-39.83 -26.3,-51.18 -46.55,-31.98 -115.24,-32.89l-21.62 -42.54c-132.25,32.96 -190.21,54.82 -345.36,51.93z"/>
  <path class="fil7" d="M3627.1 482.95c-10.96,33.57 -15.93,26.1 -46.71,41.02 -22.74,11.01 -33.96,16.46 -52.96,34.82l3.17 88.98c75.05,-18.44 63.43,-26 90.66,40.53 18.12,44.29 15.32,-0.73 19.13,56.52 17.08,256.77 14.22,129.87 63.91,334.41 18.48,76.08 11.52,58.74 -7.2,121.15 -16.37,54.59 22.77,63.46 34.68,113.89 14.21,60.12 15.74,55.65 78.85,73.66 66.54,18.98 35.9,35.23 129.07,35.77 -10.02,-13.93 -0.35,-3.35 -14.27,-13.71 -57.09,-42.45 -42.06,-9.1 -89.35,-149.88 -16.2,-48.22 1.74,-73 -4.19,-108.25 -7.26,-43.13 -51.31,-21 -41.36,-92.63 11.72,-84.37 80.12,-49.28 55.18,-198.09 -6.47,-38.61 -16.46,-73.3 -9.85,-114.44 12.32,-76.7 -1.34,-61.63 0.14,-120.48 51.88,4.89 5.4,16.38 67.13,17.84 21.43,-35.72 31.89,-76.18 30.55,-123.35 138.6,14.67 57.16,5.16 101.29,-7.18 21.47,-6.01 37.89,-1.16 62.4,-4.94 34.7,-5.36 24.74,-13.37 57.04,-13.71 -36.96,-50.34 -68.32,-25.15 -107.18,-24 -36.09,1.07 -36.05,-15.82 -60.75,-18.66l-359.38 30.73z"/>
  <path class="fil9" d="M4505.36 3076.4c-14.96,71.42 -49.75,206.3 -101.05,252.42 -68.88,61.92 -26.66,18.01 -76.75,101.42 -17.87,29.77 -52.13,66.95 -77.22,92.03 -162.62,162.57 -151.01,123.52 -189.04,157.98 -97.25,88.15 -35.83,18.87 -106.57,71.31 -39.94,29.62 -22.68,7.22 -65.55,20.1 -35.03,10.53 -15.09,12.54 -36.85,45.44 -59.68,9.49 -66.99,28.63 -101.6,34.21 -23.97,-19.41 -25.16,-23.59 -42.15,-39.25l-92.02 5.28 -19.59 -56.52c-127.06,21.88 -102.57,-54.51 -136.82,-117.75 -26.38,-48.7 -18.27,-62.42 -4.97,-116.75l86.46 14.78c35.38,-51.61 54.6,-24.55 61.3,-41.44 1.15,-2.89 4.6,-1.63 6.64,-2.93 8.04,-46.36 9.92,-46.08 27.82,-82.09 -35.77,-27.93 -114.77,-51.57 -155.62,-88.14l22.2 -34.14 -41.99 -23.01 0.87 -56.1c70.94,-39.08 116.17,-59.03 220.38,-55.21l-25.21 -9.54c-57.57,-14.33 -251.78,-2.32 -296.88,17.85l-76.33 46.42c34.88,38.28 -6.39,50.69 41.16,82.38 52.24,34.82 24.59,11.59 51.85,64.89 81.84,3.34 97.4,-3.98 143.03,43.56l-3.25 71.55c-30.99,23.4 -36.59,16.66 -70.94,31.1 -24.6,10.34 -39.39,21.59 -61.72,30.86 -0.69,38.33 3.15,80.42 -11.27,115.56 -4.41,10.75 -61.21,85.43 -6.21,84.32 29.79,-0.6 -1.18,2.54 35.63,-10.69 2.53,64.36 -0.22,72.69 62.57,82.11 0.88,58.73 17.33,71.61 11.8,132.55l19.51 4.01 -1.21 -14.86 7.56 -26.1c74.8,7.93 116.11,-15.26 179.66,-35.54l32.68 36.64c27.97,-10.97 16.52,-12 55.52,-23.77 26.5,-8 40.27,-11.21 63.97,-20.75 37.8,-15.22 74.64,-35.91 118.89,-46.04 -14.8,55.85 -63.03,57.2 -111.54,95.36l-72.11 69.99c-6.35,8.45 8.43,0.61 -9.43,10.05 -14.06,7.43 -11.93,4.16 -27.18,5.87l-7.89 42.84c96.76,-23.81 149.32,-135.32 235.33,-170.54 103.51,-42.38 128.98,-144.77 215.98,-200.02 16.21,-33.24 19.11,-29.7 46.23,-54.35 22.68,-20.61 24.48,-39.53 52.22,-46.9l9.31 23.01c36.49,-45.78 -11.59,-28.53 75.35,-143.94 108.42,-143.93 182.55,-287.24 186.27,-477.03 -19.94,27.45 -31.35,70.64 -41.23,107.51z"/>
  <path class="fil10" d="M3644.91 4014.47l0.47 -2.01 -5.73 49.85c-117.38,-1.27 -80.6,3.68 -100.59,35.06l-85.68 2.51c-46.38,72.25 -64.46,69.29 -181.03,105.7l2.9 120.21 -51.14 18.95c22.57,8.57 65.88,30.7 83.49,49.46 -22.54,62.48 -8.62,-39.38 -68.11,117.86l-47.9 0.33c-10.19,105.31 0.94,-5.74 -65.38,103.62 -43,-3.59 -61.73,-25.92 -91.71,-47.47 -39.98,-28.74 -59.67,-21.73 -117.55,-22.28 -33.09,82.32 -30.1,79.57 -7.5,212.26 7.95,46.68 11.26,20.01 27.17,50.29l2.4 27.53c-4.43,69.64 27.56,141.85 110.31,167.47 -29.05,-73.07 -10.2,-91.22 -24.25,-160.88 102.01,-85.1 -3.37,-16.89 181.19,-70.12 26.64,-7.68 53.01,-9.07 78.79,-15.7 5.2,-57.53 -10.14,-30.84 -14.64,-73.13l54.04 4.23c16.69,-156.71 39.47,-75.31 95.78,-242.9 9.66,-28.74 -5.47,-19.05 -9.29,-59.64 -2.95,-31.41 8.22,-50.88 0.78,-69.83 -0.05,-0.11 -48.11,-59.27 -11.01,-127.14 16.91,-30.94 105.76,-38.32 198.68,-81.15 51.69,-23.83 7.6,-33.27 68.04,-39.88 35.71,-26.03 -17,21.19 9.3,-10.29l49.16 -18.72 7.89 -42.84c-24.36,11.83 -49.68,19.33 -88.88,18.65z"/>
  <path class="fil10" d="M3722.48 1463.66c-9.47,13.29 -25.03,32.82 -50.01,36.31 -31.87,4.46 -31.46,-6.43 -57.21,-21.35 -37.87,13.8 -63.61,25.65 -65.16,70.77 60.16,60.06 119.1,38.23 197.78,55.99l-104.91 64.93c-34.98,26.35 -47.36,48.35 -56.85,107.68l63.46 64.98c-2.5,76.11 11.33,63.46 15.52,116.82l-2.58 5.81c45.64,16.84 81.32,27.57 137.95,41.89 94.47,23.89 74.63,2.82 136.52,-31.13 -11.06,-18.37 0.09,-4.83 -16.67,-20.72 -5.86,-5.56 -12.79,-9.61 -18.53,-13.53l26.55 -20.92 -41.63 1.65c-51.82,-89.82 -79.68,-70.04 -40.63,-187.48 -60.39,20.53 -91.64,45.77 -94.02,120.9l58 27.8c-62.33,13.46 -147.99,19.29 -137.31,-63.73 -16.43,-12.17 -97.77,-19.15 27.18,-118.78 197.29,-157.31 402.7,3.83 516.97,51.24 -32.55,-71.6 -76.13,-47.49 -76.39,-127.2 32.1,-24.25 92.21,-29.67 134.39,-41.06 -16.6,-38.85 -97.97,-96.59 -154.11,-117.19 -78.24,-28.72 -173.45,-19.6 -260.76,-19.23 -42.48,0.63 -104.12,-4.31 -137.55,15.55z"/>
  <path class="fil11" d="M3645.38 4012.46l-0.47 2.01c1.57,-2.35 6.55,-10.74 7.06,-11.98l-58.92 -19.58 -10.34 -57.28c-54.1,24.54 -30.25,15.64 -86.94,4.48l1.21 14.86c-18.66,23.82 -63.82,20.8 -107.15,22.07 -76.09,2.22 -15.95,-41.78 -79.37,4.08 -12.37,-36.58 -11.8,-24.56 -55.32,-29.61 -12.08,-56.64 -11.03,-25.73 -31.19,-62.29 -9.71,-17.6 -16.4,-43.88 -27.24,-65.54 -50.88,21.87 -16.6,16.18 -44.28,15.7 -85.35,-1.47 -25.78,8.56 -62.1,-41.63 -61.82,54.63 -82.5,-19.69 -194.74,23.03l-22.8 -20.31c-20.2,-9.54 -11.47,-5.84 -36.46,-4.82 -43.65,57.76 -12.91,70.45 25.76,100.01l80.48 89.95c29.15,43.2 -8.15,25.39 49.83,41.89 31.39,8.94 41.05,7.94 55.26,29.98 44.86,69.59 -0.45,57.47 91.36,44.02 17.05,21.33 40.43,65.61 52.91,77.95 32.91,-11.74 71.71,-5.71 109.48,-13.56 48.92,-10.15 48.33,-27.24 102.18,-28.64 0.1,-0.16 0.63,-32.55 32.86,-45.29 30.89,-12.22 28.4,13.92 67.97,-1.59 52.9,-20.73 62.78,-65.3 140.96,-67.91z"/>
  <path class="fil10" d="M3029.9 1468.09c-37,-45.22 -24.93,-22.87 -81.32,-47.35 -52.63,-22.85 -31.41,-37.68 -70.86,-63.27l35.88 -127.14c8.89,-36.92 -2.11,1.36 -6.94,-37.43 -4.69,-37.67 21.93,-48.21 26.68,-77.27 4.97,-30.39 -9.25,-56.04 -0.6,-95.89 15.3,22.59 7.42,17.95 39.05,18.84 34.35,-41.63 -13.46,-13.57 54.82,-39.52 -3.41,-30.85 1.47,-33.54 -15.95,-40.31l-36.06 -10.49c18.36,-37.94 38.51,-25.96 55.52,-84.67 -12.82,-23.01 -12.26,-20.27 -37.61,-31.53 7.03,-75.41 -25.5,-210.39 28.84,-209.21 32.12,0.7 21.86,15.73 63.32,-1.98l-8.63 -31.02c-0.58,-1.33 -2.34,-3.97 -3.11,-6.13 82.97,-33.53 37.56,10.12 186.95,-59.01 104.58,-48.4 43.46,-6.26 200.35,-30.96 48.99,-2.3 104.05,-36.75 147.21,-61.93l21.84 -15.31c-89.65,-14.19 -88.33,-2.23 -174.21,7.49 13.46,22.62 6.62,14.6 30.49,30.49 -57.79,9.21 -55.22,-22.11 -167.49,18.37 -33.17,11.96 -29.28,5.35 -65.27,11.36 -61.58,10.28 -20.76,30.82 -115.88,20.24 -75.14,-8.36 -66.61,-10.36 -113.85,21.11 -83.58,55.68 -106.18,-56.24 -139.58,148.47 -19.01,116.43 26.42,127.68 -4.05,171.77l-15.86 17.67c-35.58,55.24 14.18,49.3 32.01,59.38 -2.5,88.13 -55.81,37.25 -34.54,159.85l-67.83 31.58c37.31,90.06 16.48,67.51 6.88,170.61 -45.19,31.55 -80,14.7 -89.43,77.89 31.24,13.63 62.24,3.08 160.49,50.15 79,37.85 18.77,32.93 158.74,55.15z"/>
  <path class="fil11" d="M2819.39 3075.5c62.66,0.48 41.94,3.22 87.39,-17.11 52.84,-23.65 8.43,21.27 68.85,-5.71 0.36,-0.16 11.97,-5.99 17.38,-8.48l33.2 -18.25c10.52,-7.73 -5.17,0.97 19.37,-14.52 35.14,-22.18 40.68,-20.99 57.47,-53.11 97.77,14.69 71.21,-8.48 136.89,-48.77 51.96,-31.88 55.11,-57.45 92.23,-93.32 -58.4,-196.04 42.34,-308.43 -235.5,-66.65 -196.89,171.33 -171.46,46.9 -247.84,200.57 -21.1,42.46 -25.74,70.25 -29.44,125.35z"/>
  <path class="fil12" d="M3378.7 2974.08l29.89 9.93c7.85,44.72 -7.84,37.63 20.4,62.64 45.34,-14.96 2.71,-86.32 127.13,-78.65 156.02,9.61 105.91,100.83 287.74,122.78 27.68,3.34 49.06,19.4 55.6,46.76 7.11,29.69 -11.77,35.14 -30.12,60.25l-177.84 -31.88 18.76 49.17c48.17,-1.2 73.21,-24.49 114.03,4.83 33.63,24.15 26.1,39.53 78.84,63.55 54.3,-37.09 36.94,-79.25 32.42,-150.58 -4.3,-67.82 -7.41,-116.44 -50.16,-150.21 18.03,-32.82 10.76,-7.48 26.49,-38.68 -41.73,-76.12 -32.96,-61.52 -84.04,-100.13 -122.21,-92.37 -63.39,-24.67 -125.46,-69.11 -44.21,-31.65 -46.75,-76.24 -84.03,-102.34 -15.61,-10.93 -39.77,-22.07 -59.94,-33.28 -40.06,-22.26 -37.78,-14.06 -87.6,-13.95 -0.92,-51.34 -12.59,-55.02 -17.69,-97.3 -37.74,12.59 -32.74,49.75 -33.47,89.57 25.72,13.35 31.25,26.38 62.44,38.92 143.32,57.62 -14,3.32 109.34,77.31 37.95,22.77 28.6,38.57 36.45,44.51 11.99,5.87 21.92,5.87 33.06,11.86 39.48,21.22 1.17,-1.13 27.12,24.3 22.25,21.8 39.66,21.12 57.28,37.85l-4.4 34.93c-1.73,1.09 -4.73,1.55 -5.78,2.04 -1.01,0.48 -4.31,1.56 -5.48,2.19 -26.14,14.21 -15.9,28.97 -21.29,38.48 -75.07,-62.91 -249.52,-5.96 -353.21,3.39 7.29,23.15 11.46,15.6 23.52,40.85z"/>
  <path class="fil11" d="M3928.34 1921.19l58.98 -1.02c17.55,-14.82 5.41,-7.56 28.38,-15.24 21.11,-39.45 39.35,-36.67 37.55,-100.25 -29.66,-17.53 -22.66,1.46 -42.82,-26.69 73.31,-59.48 117.7,-7.19 125.87,35.58l109.5 47.19c71.13,15.45 77.9,-63.53 -28.9,-107.97 -114.27,-47.41 -319.68,-208.55 -516.97,-51.24 -124.95,99.63 -43.61,106.61 -27.18,118.78 -10.68,83.02 74.98,77.19 137.31,63.73l-58 -27.8c2.38,-75.13 33.63,-100.37 94.02,-120.9 -39.05,117.44 -11.19,97.66 40.63,187.48l41.63 -1.65z"/>
  <path class="fil13" d="M6629.51 5655.73c53.1,-10.26 73.38,-54.88 -8.52,-220.2 -7.68,-15.5 -13.84,-28.46 -23.72,-44.01 -88.36,-138.92 -50.44,-215.88 -113.98,-250.09 -34.04,-18.33 -68.33,-25.02 -99.26,-44.67 -27.53,-17.49 -24.58,-24.74 -83.52,-59.1 -111.24,-144.4 -757.34,-407.61 -978.66,-495.85l-250.35 -113.71c-156.8,-79.17 -345.94,-158.05 -491.04,-254.04 -41.08,-27.17 -197.5,-126.37 -237.51,-135.47 20.19,130.71 166.56,109.44 142.1,285.58 -14.33,103.2 -85.86,227.98 -129.01,302.92 -78.38,136.13 -398.92,348.13 -507.12,346.48 -13.79,19.98 -9.17,18.16 -38.76,20.95 -45.03,31.25 -123.4,19.76 -183.82,29.45 -30.07,4.82 -57.58,17.59 -87.99,21.24 -31.05,3.72 -69.93,-2.6 -96.43,11.11 48.52,9.73 96.77,26.41 139.47,31.48 38.14,-46.87 12.29,-35.1 90.37,-22.21 42.44,7 76.77,6.25 116.87,18.84 -66.87,97.03 -43.84,91.66 -12.28,190.3 41.98,12.39 -11.71,-4.33 18.53,-7.85 19.28,-2.25 14.57,4.19 35.15,8.74l10.05 -43.14c27.6,27.19 23.38,49.53 58.57,71.2 16.15,-54.95 17.2,-54.1 4.92,-113.62 27.67,-8.68 8.74,17.69 48.58,-14.71 12.74,27.86 1.91,25.73 32.54,28.54 3.86,-47.91 -40.45,-39.16 -48.58,-100.71 46.58,28.16 48.58,68.81 80.19,109.18 44.35,-21.21 47.04,-18.05 98.49,-6.69 11.25,-19.14 -19.47,-24.63 44.88,-63.74 30.22,-18.37 52.97,-30.72 97.73,-31.17l-14.57 38.69c-1,1.18 -3.74,3.07 -4.61,3.95 -0.88,0.9 -3.42,2.27 -4.89,3.68 17.57,11.49 21.77,18.58 38.78,29.44l3.21 -63.29 52.47 -0.1 -16.55 61.53 65.55 -2.56c20.83,47.4 20.97,33.15 25.95,34.78 21.74,7.13 24.1,-11.11 38.04,18.47l9.98 32.84c0.52,1.44 1.26,4.4 2.7,6.1l48.35 -26.48c39.4,30.71 7.19,16.05 59.02,-1.58l-3.97 43.18 38.62 -6.8c-6.84,16.11 0.15,1.18 -8.61,15.6l-15.32 21.96c33.7,-1.76 31.04,3.87 47.7,-16.05 2.13,34.01 -8.06,34.56 -10.33,57.1 -3.58,35.53 11.42,23.72 2.3,69.94 -64.3,-14.96 -73.68,11.08 -102.75,-41.91 -5.38,-9.81 -4.22,-10.16 -8.88,-16.71 -10.67,-15 6.5,-0.77 -13.15,-13.59 -13.22,49.62 30.07,44.76 37.95,79.36 6,26.35 -8.81,18.5 -0.14,52.65 4.61,18.17 17.11,20.24 20.57,52.04 -41.44,-0.48 -31.91,-6.27 -57.05,-20.96 -17.26,39.3 -14.21,41.56 6.69,70.88l-68.09 9.54 1.25 53.27 2086.4 0 115.49 0zm-2201.89 0l-1.25 -53.27 68.09 -9.54c-20.9,-29.32 -23.95,-31.58 -6.69,-70.88 25.14,14.69 15.61,20.48 57.05,20.96 -3.46,-31.8 -15.96,-33.87 -20.57,-52.04 -8.67,-34.15 6.14,-26.3 0.14,-52.65 -7.88,-34.6 -51.17,-29.74 -37.95,-79.36 19.65,12.82 2.48,-1.41 13.15,13.59 4.66,6.55 3.5,6.9 8.88,16.71 29.07,52.99 38.45,26.95 102.75,41.91 9.12,-46.22 -5.88,-34.41 -2.3,-69.94 2.27,-22.54 12.46,-23.09 10.33,-57.1 -16.66,19.92 -14,14.29 -47.7,16.05l15.32 -21.96c8.76,-14.42 1.77,0.51 8.61,-15.6l-38.62 6.8 3.97 -43.18c-51.83,17.63 -19.62,32.29 -59.02,1.58l-48.35 26.48c-1.44,-1.7 -2.18,-4.66 -2.7,-6.1l-9.98 -32.84c-13.94,-29.58 -16.3,-11.34 -38.04,-18.47 -4.98,-1.63 -5.12,12.62 -25.95,-34.78l-65.55 2.56 16.55 -61.53 -52.47 0.1 -3.21 63.29c-17.01,-10.86 -21.21,-17.95 -38.78,-29.44 1.47,-1.41 4.01,-2.78 4.89,-3.68 0.87,-0.88 3.61,-2.77 4.61,-3.95l14.57 -38.69c-44.76,0.45 -67.51,12.8 -97.73,31.17 -64.35,39.11 -33.63,44.6 -44.88,63.74 -51.45,-11.36 -54.14,-14.52 -98.49,6.69 -31.61,-40.37 -33.61,-81.02 -80.19,-109.18 8.13,61.55 52.44,52.8 48.58,100.71 -30.63,-2.81 -19.8,-0.68 -32.54,-28.54 -39.84,32.4 -20.91,6.03 -48.58,14.71 12.28,59.52 11.23,58.67 -4.92,113.62 -35.19,-21.67 -30.97,-44.01 -58.57,-71.2l-10.05 43.14c-20.58,-4.55 -15.87,-10.99 -35.15,-8.74 -30.24,3.52 23.45,20.24 -18.53,7.85 -31.56,-98.64 -54.59,-93.27 12.28,-190.3 -40.1,-12.59 -74.43,-11.84 -116.87,-18.84 -78.08,-12.89 -52.23,-24.66 -90.37,22.21 -42.7,-5.07 -90.95,-21.75 -139.47,-31.48 -44.64,-14.52 -143.42,-4.11 -199.33,-9.83 -60.24,-6.16 -121.71,-25.1 -180.52,-25.8 -136.55,-45.4 -280.23,-56.49 -405.23,-116.79 -121.23,-58.49 -214.4,-108.6 -302.37,-205.58 -39.68,-43.74 -67.36,-101.21 -101.64,-152.56 -38.91,-58.31 -69.68,-90.35 -70.51,-185.32 -0.72,-83.73 24.05,-146.38 68.84,-187.47 29.31,-26.88 134.47,-73.36 112.02,-125.91 -30.13,13.55 -51.46,20.71 -82.95,36.57l-219.44 136.17c-94.93,63.61 -213.38,114.29 -316.66,165.93l-479.67 240c-59.41,28.52 -113.98,44.34 -174.73,70.8 -77.61,33.81 -247.09,115.23 -321.03,161.57 -169.19,106.02 -201.39,172.14 -313.81,287.33 -27.33,27.99 -29.1,40.53 -48.51,70.02 -16.05,24.38 -5.78,12.07 -31.11,28.16 -40.62,25.82 -46.38,47.87 -89.59,96.68l-58.24 60.29c-17.42,15.52 -36.25,48.59 -49.75,68.78 -22.86,34.17 -75.85,125.5 -50.7,177.9 3.88,3.88 73.99,6.6 186.66,8.47l1955.41 0c719.52,0 1439.04,0 2158.56,0z"/>
  <path class="fil3" d="M4397.3 661.61l1.52 6.56c56.61,25.57 59.48,59.06 83.79,115.34 26.69,61.77 29.8,7.31 65.99,128.9 30.2,101.5 21.7,68.1 59.83,135.03 17.48,30.68 9.62,79.33 90.56,105.23l25.4 -32.27c-1.72,-87.83 -70.22,-266.51 -104.32,-330.28l-85.34 -126.34c-27.59,-41.45 -59.89,-101.42 -103.93,-121.92l2.53 29.76c-107.1,-9.82 -42.32,-26.84 -131.38,-64.44 -28.68,-12.1 -25.88,-15.56 -52.65,-27.34 34.28,91.38 116.46,82.83 148,181.77z"/>
  <path class="fil12" d="M3708.57 2387.59c4.45,50.58 10.27,149.73 32.13,187.8 12.12,21.08 85.16,101.4 105.44,117.85 32.07,14.27 54.58,22.11 84.39,34.62 18.89,-55.83 20.24,-16.6 44.59,-52.4 -10.22,-21.87 -36.47,-85.68 -52.3,-104.24 -41.82,-49.04 -54.67,-21.08 -55.57,-107.43 -0.69,-0.26 -13.86,-4.71 -15.39,-5.57 -13.59,-7.66 -6.77,-2.99 -16.07,-11.36l-0.41 -49.2c-29.73,-2.72 -41.84,-10.65 -62.22,-13.4 -24.77,-3.33 -34.56,3.8 -64.59,3.33z"/>
  <path class="fil8" d="M3720.56 1554.16c136.96,22.32 47,13.97 105.71,29.44 35.33,9.31 84.48,3.62 120.6,1.66 85.55,-4.65 185.32,15.3 246.05,-28.88 -133.47,-29 -107.93,-96.85 -399.64,-80.17 -74.79,4.28 -42.71,19.63 -72.72,77.95z"/>
  <path class="fil11" d="M2748.91 1786.02c-1.67,69.01 21.15,118.73 68.9,135.71 139.36,8.93 202.49,-108.49 106.17,-189.06 -44.65,-37.35 -53.38,-13.54 -106.36,-26.89 -35.26,38.88 -10,54.95 -68.71,80.24z"/>
  <path class="fil9" d="M3662.52 1965.6c15.99,40.83 39.65,56.68 62.95,83.19 28.23,32.1 47.64,41.33 77.31,67.91 35.57,21.07 68.79,45.11 113.71,41.22l-21.42 -58.4c41.11,-33.62 19.28,-44.12 96.83,-48.54 -4.45,-30.11 -8.31,-26.21 -9.9,-50.18 30.25,-9.92 26.36,-9.93 41.41,-28.07 -24.96,-17.57 -36.57,-13.64 -68.57,-27.63l32.48 -24.93 -58.98 1.02 -26.55 20.92c5.74,3.92 12.67,7.97 18.53,13.53 16.76,15.89 5.61,2.35 16.67,20.72 -61.89,33.95 -42.05,55.02 -136.52,31.13 -56.63,-14.32 -92.31,-25.05 -137.95,-41.89z"/>
  <path class="fil14" d="M3495.77 3930.11c56.69,11.16 32.84,20.06 86.94,-4.48l10.34 57.28 58.92 19.58c-0.51,1.24 -5.49,9.63 -7.06,11.98 39.2,0.68 64.52,-6.82 88.88,-18.65 15.25,-1.71 13.12,1.56 27.18,-5.87 17.86,-9.44 3.08,-1.6 9.43,-10.05l72.11 -69.99c48.51,-38.16 96.74,-39.51 111.54,-95.36 -44.25,10.13 -81.09,30.82 -118.89,46.04 -23.7,9.54 -37.47,12.75 -63.97,20.75 -39,11.77 -27.55,12.8 -55.52,23.77l-32.68 -36.64c-63.55,20.28 -104.86,43.47 -179.66,35.54l-7.56 26.1z"/>
  <path class="fil12" d="M3987.32 1920.17l-32.48 24.93c32,13.99 43.61,10.06 68.57,27.63 -15.05,18.14 -11.16,18.15 -41.41,28.07 1.59,23.97 5.45,20.07 9.9,50.18 -77.55,4.42 -55.72,14.92 -96.83,48.54l21.42 58.4c-44.92,3.89 -78.14,-20.15 -113.71,-41.22 8.3,19.08 -1.39,7.26 12.97,23.5 28.68,10.94 172.24,124.48 246.64,136.92 -3.46,-42.29 -22.99,-76.57 -38.71,-112.42 -30.76,-70.16 -9.71,-88.27 19.57,-107.31 -14.68,-94.49 14.73,-23.93 27.41,-101.6l-51.95 -21.37 -3.01 -29.49c-22.97,7.68 -10.83,0.42 -28.38,15.24z"/>
  <path class="fil3" d="M3574.2 2444.37c-34.94,8.35 -81.22,41.27 -77.5,77.25 2.81,27.21 57.45,75.2 84.72,76.39 88.45,3.86 87.84,-176.35 -7.22,-153.64z"/>
 </g>
</svg>
