<svg xmlns="http://www.w3.org/2000/svg" viewBox="0 0 500 500"><g id="freepik--background-complete--inject-3"><path d="M444.71,349.14H264a5.87,5.87,0,0,1-5.86-5.86V80A5.87,5.87,0,0,1,264,74.15H444.71A5.87,5.87,0,0,1,450.57,80V343.28A5.87,5.87,0,0,1,444.71,349.14ZM264,74.4A5.61,5.61,0,0,0,258.35,80V343.28a5.61,5.61,0,0,0,5.61,5.61H444.71a5.61,5.61,0,0,0,5.61-5.61V80a5.61,5.61,0,0,0-5.61-5.61Z" style="fill:#f0f0f0"></path><path d="M236.28,349.14H55.53a5.87,5.87,0,0,1-5.86-5.86V80a5.87,5.87,0,0,1,5.86-5.86H236.28A5.87,5.87,0,0,1,242.14,80V343.28A5.87,5.87,0,0,1,236.28,349.14ZM55.53,74.4A5.61,5.61,0,0,0,49.92,80V343.28a5.61,5.61,0,0,0,5.61,5.61H236.28a5.61,5.61,0,0,0,5.61-5.61V80a5.61,5.61,0,0,0-5.61-5.61Z" style="fill:#f0f0f0"></path><rect x="0.79" y="410.21" width="500" height="0.25" style="fill:#e0e0e0"></rect><polygon points="225.26 315.2 231.82 321.7 232.72 322.6 187.27 368.55 172.57 353.69 116.67 410.21 127.07 410.21 172.57 364.2 187.27 379.06 237.96 327.8 238.35 328.19 244.91 334.69 249.68 309.9 225.26 315.2" style="fill:#f0f0f0"></polygon><polygon points="135.45 147.67 142.01 154.17 142.91 155.06 97.46 201.02 82.76 186.15 49.92 219.37 49.92 229.88 82.76 196.67 97.46 211.53 148.15 160.27 148.55 160.66 155.1 167.16 159.87 142.37 135.45 147.67" style="fill:#f0f0f0"></polygon><path d="M83.51,134.33a1.38,1.38,0,0,1-1.38,1.39h-4v4a1.38,1.38,0,1,1-2.76,0v-4h-4a1.39,1.39,0,1,1,0-2.77h4v-4a1.38,1.38,0,1,1,2.76,0v4h4A1.38,1.38,0,0,1,83.51,134.33Z" style="fill:#f0f0f0"></path><path d="M423.19,229.88a1.38,1.38,0,0,1-1.38,1.38h-4v4a1.38,1.38,0,1,1-2.76,0v-4h-4a1.38,1.38,0,0,1,0-2.76h4v-4a1.38,1.38,0,1,1,2.76,0v4h4A1.38,1.38,0,0,1,423.19,229.88Z" style="fill:#f0f0f0"></path><path d="M289.55,100.34a1.38,1.38,0,0,1-1.38,1.39h-4v4a1.38,1.38,0,1,1-2.76,0v-4h-4a1.39,1.39,0,1,1,0-2.77h4V95a1.38,1.38,0,1,1,2.76,0v4h4A1.38,1.38,0,0,1,289.55,100.34Z" style="fill:#f0f0f0"></path><rect x="57.48" y="305.75" width="25" height="11.5" style="fill:#f5f5f5"></rect><rect x="84.6" y="305.75" width="25" height="11.5" style="fill:#f5f5f5"></rect><rect x="71.04" y="319.25" width="25" height="11.5" style="fill:#f5f5f5"></rect><rect x="382.59" y="90.6" width="25" height="11.5" style="fill:#f5f5f5"></rect><rect x="409.72" y="90.6" width="25" height="11.5" style="fill:#f5f5f5"></rect><rect x="396.16" y="104.1" width="25" height="11.5" style="fill:#f5f5f5"></rect><rect x="95.77" y="255.68" width="14.76" height="22.45" style="fill:#f5f5f5"></rect><rect x="118.08" y="242.63" width="14.76" height="35.5" style="fill:#f5f5f5"></rect><rect x="140.39" y="222.52" width="14.76" height="55.61" style="fill:#f5f5f5"></rect><rect x="162.7" y="201.24" width="14.76" height="76.89" style="fill:#f5f5f5"></rect><rect x="356.66" y="318.25" width="14.76" height="22.45" style="fill:#f5f5f5"></rect><rect x="378.97" y="305.19" width="14.76" height="35.5" style="fill:#f5f5f5"></rect><rect x="401.28" y="285.08" width="14.76" height="55.61" style="fill:#f5f5f5"></rect><rect x="423.59" y="263.81" width="14.76" height="76.89" style="fill:#f5f5f5"></rect></g><g id="freepik--Shadow--inject-3"><path d="M448.67,451.61c0,2.13-87.36,3.86-195.12,3.86s-195.11-1.73-195.11-3.86,87.35-3.85,195.11-3.85S448.67,449.48,448.67,451.61Z" style="fill:#f5f5f5"></path></g><g id="freepik--Arrow--inject-3"><polygon points="381.23 342.46 387.79 348.97 388.69 349.86 343.24 395.81 328.54 380.95 258.35 451.94 268.74 451.94 328.54 391.46 343.24 406.33 393.94 355.06 394.33 355.45 400.89 361.95 405.65 337.17 381.23 342.46" style="fill:#86CF9B"></polygon></g><g id="freepik--Plant--inject-3"><path d="M132.49,447.71,139.08,412H94.27l6.59,35.69a4.76,4.76,0,0,0,4.68,3.9h22.27A4.76,4.76,0,0,0,132.49,447.71Z" style="fill:#263238"></path><path d="M134.33,379.72c-5.9-1.56-14.91,10.69-17.65,22.63V385a35.9,35.9,0,0,1,8.77-10c7.4-6,14.22-13.77,8.31-15.33-5.54-1.46-13.82,9.24-17.08,20.44V357.73a23.72,23.72,0,0,1,5-5.46c4.67-3.8,9-8.68,5.24-9.67-3.23-.85-8,4.88-10.26,11.33v-7.24a34,34,0,0,1,2.41-8.71c3.43-7.58,5.28-15.39.76-14.8s-7.47,14.07-5,24.43v3.73c-1.67-7.58-7.41-15.43-11.16-14.45s.57,5.86,5.24,9.67a21.36,21.36,0,0,1,5.92,7.06v17.59c-2.68-12-11.76-24.38-17.69-22.82s.91,9.3,8.32,15.34a34.11,34.11,0,0,1,9.37,11.15V396c-2.86-11.78-11.71-23.66-17.53-22.13s-.84,7.21,7.48,14.06a39.22,39.22,0,0,1,10,12.23V412h1.83v-5.9A34.5,34.5,0,0,1,126,395.05C133.42,389,140.24,381.28,134.33,379.72Z" style="fill:#86CF9B"></path><rect x="91.51" y="410.34" width="50.33" height="4.9" style="fill:#263238"></rect><rect x="91.51" y="410.34" width="50.33" height="4.9" style="fill:#fff;opacity:0.2"></rect></g><g id="freepik--Target--inject-3"><path d="M402.59,183.83a47.42,47.42,0,0,1-46.18,34.6h-5.86V218a46.84,46.84,0,0,1-6.39-1.33,47.4,47.4,0,0,1,6.39-92.6v-.44h5.86a47.43,47.43,0,0,1,46.18,60.19Z" style="fill:#86CF9B"></path><path d="M402.59,183.83a47.42,47.42,0,0,1-46.18,34.6h-5.86V218a46.84,46.84,0,0,1-6.39-1.33,47.4,47.4,0,0,1,6.39-92.6v-.44h5.86a47.43,47.43,0,0,1,46.18,60.19Z" style="opacity:0.30000000000000004"></path><circle cx="350.93" cy="171.04" r="47.39" transform="translate(-38.62 145.43) rotate(-22.22)" style="fill:#86CF9B"></circle><circle cx="350.93" cy="171.04" r="37.46" transform="translate(-39.28 159) rotate(-24.22)" style="fill:#fff"></circle><circle cx="350.93" cy="171.04" r="27.52" transform="translate(130.54 493.27) rotate(-81.61)" style="fill:#86CF9B"></circle><circle cx="350.93" cy="171.04" r="17.59" transform="translate(129.29 492.41) rotate(-81.39)" style="fill:#fff"></circle><path d="M348.86,178.41a7.65,7.65,0,1,0-5.3-9.44A7.67,7.67,0,0,0,348.86,178.41Z" style="fill:#86CF9B"></path><path d="M297.89,141.85l11.44-1.75-1.74-11.44a1.21,1.21,0,1,1,2.39-.36l1.89,12.36,4.39,3.23-1.52-10a1.21,1.21,0,0,1,2.4-.37L319,145.93l5.55,4.08-1.51-10a1.2,1.2,0,0,1,1-1.38,1.22,1.22,0,0,1,1.38,1L327.34,152l24.11,17.75c1.51,1.25.52,2.83-.72,2.48l-25.08-18.46-11.93,1.82a1.21,1.21,0,0,1-.37-2.4l9.53-1.45-5.55-4.08-11.92,1.81a1.21,1.21,0,0,1-.37-2.4l9.53-1.45-4.39-3.23-11.93,1.81a1.21,1.21,0,1,1-.36-2.39Z" style="fill:#263238"></path></g><g id="freepik--Character--inject-3"><polygon points="192.89 451.94 191.89 451.94 191.89 421.65 226.8 421.65 226.8 391.81 261.72 391.81 261.72 362.01 296.63 362.01 296.63 332.17 331.55 332.17 331.55 302.38 366.46 302.38 366.46 272.54 401.87 272.54 401.87 273.54 367.46 273.54 367.46 303.34 366.96 303.38 332.55 303.38 332.55 333.17 297.63 333.17 297.63 362.97 297.13 363.01 262.72 363.01 262.72 392.81 227.8 392.81 227.8 422.6 227.3 422.65 192.89 422.65 192.89 451.94" style="fill:#263238"></polygon><polygon points="408.83 273.04 401.87 280.24 401.87 265.84 408.83 273.04" style="fill:#263238"></polygon><path d="M241,150.6c2.4,5.44,4.69,11,7,16.49l3.41,8.21c1.16,2.68,2.3,5.46,3.47,7.79a8.24,8.24,0,0,0,1.46,2.35,36.42,36.42,0,0,0,2.78,2.79c2,1.94,4.29,3.83,6.54,5.75l13.78,11.43-3.71,5.86c-5.54-2.68-10.91-5.54-16.18-8.75-2.65-1.6-5.25-3.29-7.88-5.15a47.7,47.7,0,0,1-4-3.18,20.52,20.52,0,0,1-2.23-2.29l-.55-.74-.43-.64c-.29-.43-.49-.77-.74-1.17-.9-1.48-1.66-2.86-2.41-4.25s-1.47-2.76-2.15-4.14c-1.37-2.76-2.71-5.51-4-8.28-2.55-5.54-4.94-11.08-7.13-16.78Z" style="fill:#9e6141"></path><path d="M240.73,149.72l9.33,17.5a34.9,34.9,0,0,1-11.68,14.62l-6.66-7.7Z" style="fill:#86CF9B"></path><g style="opacity:0.5"><path d="M240.73,149.72l9.33,17.5a34.9,34.9,0,0,1-11.68,14.62l-6.66-7.7Z" style="fill:#fff"></path></g><path d="M227,100.78a12.25,12.25,0,0,0-12.72,8.86c-2.82,8.38-6.13,13.2-10,14.85-6.31,2.72-12.35,8.24-8.5,16.08,6.09,12.4,32,11.15,37.07,5.85s-.3-4,4.9-8.84,10.71-18.56,7.05-28.23C242.76,104,235,99,227,100.78Z" style="fill:#263238"></path><path d="M238.3,128.92a2.61,2.61,0,1,1-1.92-3.14A2.61,2.61,0,0,1,238.3,128.92Z" style="fill:#fff"></path><polygon points="202.58 402.39 203.11 413.9 209.26 413.9 210.66 402.39 202.58 402.39" style="fill:#9e6141"></polygon><path d="M226.31,422c0-3.75-1.52-4.87-3.58-5s-9.54-2.66-9.54-2.66-1.37-2.38-2.73-2.87-2.87.94-2.87.94l-3.82-.47s-1-1.71-1.93-.21c-1.46,2.33-1.94,8.76-2,10.27Z" style="fill:#86CF9B"></path><path d="M225.91,421.06l-4.8,0-21-.11c-.27,0-.18-.4.09-.39h1.42s0,0,0-.06a3.62,3.62,0,0,0-.9-5.45c-.21-.12.09-.47.29-.34,1.9,1.18,2.54,3.53,1,5.84l3,0,21,.11C226.27,420.67,226.17,421.07,225.91,421.06Z"></path><path d="M211.87,416c1.21-1.26,2.84-1.62,3.91-.67.17.16.46-.19.29-.34-1.23-1.09-3.13-.62-4.51.81-.2.21.11.41.31.2Z" style="fill:#fff"></path><path d="M214,416.67c1.21-1.26,2.84-1.62,3.91-.66.17.15.46-.2.29-.35-1.23-1.09-3.13-.62-4.5.81-.2.21.1.41.3.2Z" style="fill:#fff"></path><path d="M216.15,417.35c1.21-1.27,2.84-1.62,3.91-.67.17.15.46-.2.28-.35-1.22-1.09-3.12-.62-4.5.81-.2.21.11.41.31.21Z" style="fill:#fff"></path><path d="M232.66,212.09s-.51,19.34-2.39,46.51c-.37,5.26-.79,10.83-1.26,16.61-1,12-2.24,24.9-3.79,38C221.47,344.76,211,405.1,211,405.1l-9.53.21s-9.39-54,.89-91.37c-.65-6.46-1.18-12.52-1.59-18.22a386.59,386.59,0,0,1-1-46.58c0-.94.09-1.86.14-2.76.09-1.5.2-2.95.31-4.34.17-2.27.39-4.39.61-6.36,2.15-18.39,6-23.69,6-23.69Z" style="fill:#263238"></path><g style="opacity:0.2"><path d="M230.27,258.6c-.37,5.26-.79,10.83-1.26,16.61-9.61-7.77-22.61-21.7-29.1-28.83.09-1.5.2-2.95.31-4.34Z"></path></g><path d="M256.07,343.87l11.48-.33c6.13-29.52,23.13-85.74,14.27-94.3C250.74,219.19,192,205,192,205c-7.09,1.41-12.21,3.61-13.77,10.42-1.61,7-.62,16.47,7.91,22.47,5.21,3.67,11.73,6.1,24.81,12.11a283.29,283.29,0,0,0,39.52,15.24c5.33,1.63,7.11,2.16,10,3C254.45,290,256,335.41,256.07,343.87Z" style="fill:#263238"></path><polygon points="257.71 343.14 257.57 354.05 263.71 354.05 265.8 343.14 257.71 343.14" style="fill:#9e6141"></polygon><polygon points="269.13 346.6 269.91 342.53 255.05 342.53 254.98 346.6 269.13 346.6" style="fill:#263238"></polygon><path d="M280.77,362.2c0-3.76-1.53-4.88-3.58-5s-9.55-2.67-9.55-2.67-1.36-2.38-2.73-2.86-2.86.93-2.86.93l-3.82-.46s-1-1.72-1.93-.22c-1.46,2.33-1.94,8.77-2,10.28Z" style="fill:#86CF9B"></path><path d="M280.37,361.21l-4.8,0-21-.1c-.27,0-.18-.41.09-.4h1.42a.09.09,0,0,1,0-.06,3.62,3.62,0,0,0-.9-5.45c-.21-.12.09-.47.29-.34,1.89,1.18,2.54,3.53,1,5.85h3l21,.11C280.73,360.82,280.63,361.22,280.37,361.21Z"></path><path d="M266.33,356.16c1.21-1.27,2.84-1.63,3.91-.67.17.15.46-.2.28-.35-1.22-1.09-3.12-.62-4.5.81-.2.21.11.41.31.21Z" style="fill:#fff"></path><path d="M268.43,356.83c1.21-1.27,2.84-1.62,3.91-.67.17.15.46-.19.29-.35-1.23-1.09-3.13-.61-4.5.82-.21.21.1.4.3.2Z" style="fill:#fff"></path><path d="M270.6,357.5c1.22-1.26,2.85-1.62,3.92-.67.17.15.45-.19.28-.34-1.22-1.1-3.12-.62-4.5.81-.2.21.1.41.3.2Z" style="fill:#fff"></path><polygon points="211.73 407.33 212.66 403.27 200 403.27 200.09 407.33 211.73 407.33" style="fill:#263238"></polygon><path d="M178.22,211.16c19.44,9.15,54.16,11.12,54.86,6.5,2-13-.45-28.21,2.09-36.54,10.69-5.5,4.06-12.45,6.41-22.24a14.32,14.32,0,0,0-10-17.09c-1.7-.5-3.47-1-5.21-1.46l-1.06-.26a109.66,109.66,0,0,0-14.21-2.4c-1.74-.21-3.56-.4-5.45-.61s-3.75-.34-5.51-.42a11.38,11.38,0,0,0-12,11.49,202.79,202.79,0,0,1-1,26.63c-.19,1.83-.4,3.59-.64,5.31a139.08,139.08,0,0,1-3.59,18,2.62,2.62,0,0,1-.09.33q-1,3.52-2.08,6.47c-.22.62-.45,1.21-.69,1.78C179.58,207.83,178.75,210,178.22,211.16Z" style="fill:#86CF9B"></path><g style="opacity:0.30000000000000004"><path d="M178.22,211.16c19.44,9.15,54.16,11.12,54.86,6.5,2-13-.45-28.21,2.09-36.54,10.69-5.5,4.06-12.45,6.41-22.24a14.32,14.32,0,0,0-10-17.09c-1.7-.5-3.47-1-5.21-1.46l-1.06-.26a109.66,109.66,0,0,0-14.21-2.4c-1.74-.21-3.56-.4-5.45-.61s-3.75-.34-5.51-.42a11.38,11.38,0,0,0-12,11.49,202.79,202.79,0,0,1-1,26.63c-.19,1.83-.4,3.59-.64,5.31a139.08,139.08,0,0,1-3.59,18,2.62,2.62,0,0,1-.09.33q-1,3.52-2.08,6.47c-.22.62-.45,1.21-.69,1.78C179.58,207.83,178.75,210,178.22,211.16Z" style="fill:#fff"></path></g><path d="M177.32,152.05s8.37-15.72,19.64-15.12c7.2.38,6.2,15.82-1.81,27.42C187.69,161.37,182.12,157.79,177.32,152.05Z" style="fill:#86CF9B"></path><g style="opacity:0.5"><path d="M177.32,152.05s8.37-15.72,19.64-15.12c7.2.38,6.2,15.82-1.81,27.42C187.69,161.37,182.12,157.79,177.32,152.05Z" style="fill:#fff"></path></g><path d="M211.15,137.67c3.81,9.1,14.59,15.58,14.59,15.58,2-3.63,2.26-9.81.69-12.91l-1.06-.26A109,109,0,0,0,211.15,137.67Z" style="fill:#9e6141"></path><path d="M226.26,142.89a1.39,1.39,0,0,0,.13.41c1.33,2.8-.75,5-3.56,4.41a5.54,5.54,0,0,1-.8-.21,5.07,5.07,0,0,1-2.49-1.81h0a62.76,62.76,0,0,0-6.27-7.34c4.54-1.77,7.08-9.69,8.09-14.71l5.59,9.22,1,2a14.87,14.87,0,0,0-1.83,3.08A5.28,5.28,0,0,0,226.26,142.89Z" style="fill:#9e6141"></path><g style="opacity:0.2"><path d="M226.14,137.92a14.87,14.87,0,0,1,1.83-3.08l-1-2-4.17-.41A9.89,9.89,0,0,0,226.14,137.92Z"></path></g><path d="M221.24,114.45c-1.67,8.25-2.55,11.7.36,16.94,4.38,7.88,14.68,8.06,18.74.47,3.65-6.84,5.77-19.18-1.16-24.48s-16.27-1.18-17.94,7.07" style="fill:#9e6141"></path><path d="M234.71,105.15s2.42,8.6,7.3,9.46,1.62-6-2.93-9.34C237.11,103.81,234.71,105.15,234.71,105.15Z" style="fill:#263238"></path><path d="M232.38,117a.41.41,0,0,0,.34,0,3.45,3.45,0,0,1,3.1-.3.43.43,0,1,0,.36-.78,4.31,4.31,0,0,0-3.92.35.41.41,0,0,0-.14.59.49.49,0,0,0,.26.19" style="fill:#263238"></path><path d="M243.36,119.37a.35.35,0,0,0,.28-.05.38.38,0,0,0,.13-.53,3.84,3.84,0,0,0-3-1.88.38.38,0,0,0-.39.38.38.38,0,0,0,.38.39,3.09,3.09,0,0,1,2.35,1.52.39.39,0,0,0,.25.17" style="fill:#263238"></path><path d="M218.76,113.07s-3.1,5.24.8,6.67,6.18-1.24,6.15-3.58-.73-4.81,5-3.66c5.09,1,8.24-9.57,1.47-9.4C228,103.2,220.31,105.77,218.76,113.07Z" style="fill:#263238"></path><path d="M237.11,129.4s-3.83-2.33-4.51-4.2c0,0-1,3.08,1,4.51A2.58,2.58,0,0,0,237.11,129.4Z" style="fill:#fff"></path><path d="M234.12,120.53c-.18.66,0,1.29.46,1.41s.93-.33,1.11-1,0-1.29-.47-1.41-.92.33-1.1,1" style="fill:#263238"></path><path d="M240.74,122.49c-.18.66,0,1.29.46,1.4s.92-.33,1.1-1,0-1.29-.46-1.4-.93.33-1.1,1" style="fill:#263238"></path><path d="M241.64,121.48l1.71,0s-1.15,1-1.71,0" style="fill:#263238"></path><path d="M238.21,121.26s.67,2.06,1.5,3.91a1,1,0,0,1-.72,1.43,10,10,0,0,1-2.24.15Z" style="fill:#7a4224"></path><path d="M216.86,119.3a5.41,5.41,0,0,0,2.43,3.72c1.67,1,3.09-.76,3.12-2.9,0-1.93-.81-4.76-2.72-4.85s-3.19,2-2.83,4" style="fill:#9e6141"></path><path d="M220.25,122.83a1,1,0,1,1-.95-1A1,1,0,0,1,220.25,122.83Z" style="fill:#fff"></path><path d="M235,119.53l1.71,0s-1.14,1-1.71,0" style="fill:#263238"></path><polygon points="336.52 266.73 367.78 272.52 349.07 246.81 336.52 266.73" style="fill:#86CF9B"></polygon><g style="opacity:0.6000000000000001"><polygon points="349.07 246.81 362.35 265.06 367.78 272.52 358.81 270.87 336.51 266.73 349.07 246.81" style="fill:#fff"></polygon></g><path d="M362.35,265.06l5.43,7.46-9-1.65A45.57,45.57,0,0,1,362.35,265.06Z" style="fill:#263238"></path><polygon points="150.86 121.88 349.07 246.81 354.08 253.7 344.88 253.45 349.46 261.18 340.7 260.09 344.34 268.18 336.51 266.73 138.31 141.79 150.86 121.88" style="fill:#86CF9B"></polygon><rect x="137.66" y="129.16" width="23.55" height="11.47" transform="translate(-44.36 189.38) rotate(-57.78)" style="fill:#263238"></rect><path d="M136.51,121.65h4.91a9.32,9.32,0,0,1,9.32,9.32v4a0,0,0,0,1,0,0H127.19a0,0,0,0,1,0,0v-4A9.32,9.32,0,0,1,136.51,121.65Z" transform="translate(-43.67 177.44) rotate(-57.78)" style="fill:#86CF9B"></path><g style="opacity:0.6000000000000001"><path d="M136.51,121.65h4.91a9.32,9.32,0,0,1,9.32,9.32v4a0,0,0,0,1,0,0H127.19a0,0,0,0,1,0,0v-4A9.32,9.32,0,0,1,136.51,121.65Z" transform="translate(-43.67 177.44) rotate(-57.78)" style="fill:#fff"></path></g><path d="M340.57,260a.31.31,0,0,1-.41.1L152,141.53a.3.3,0,0,1,.33-.51L340.48,259.6A.29.29,0,0,1,340.57,260Z" style="fill:#263238"></path><path d="M344.76,253.37a.32.32,0,0,1-.42.1L156.22,134.89a.31.31,0,0,1-.09-.42.29.29,0,0,1,.41-.09L344.66,253A.29.29,0,0,1,344.76,253.37Z" style="fill:#263238"></path><path d="M218.66,189.29c-1,.47-1.95.9-2.91,1.31-.56.25-1.11.48-1.67.71-1.53.64-3.07,1.26-4.63,1.83-3.1,1.16-6.26,2.19-9.49,3.12a97.26,97.26,0,0,1-10,2.3c-1.73.31-3.49.52-5.34.67a31.48,31.48,0,0,1-5.25.05l-.65-.05a7.54,7.54,0,0,1-2.39-.67,7.82,7.82,0,0,1-2.52-1.9,8.41,8.41,0,0,1-1.68-3.07,11.84,11.84,0,0,1-.51-3,23.36,23.36,0,0,1,.12-3.5,54.32,54.32,0,0,1,.82-5.5c.67-3.47,1.45-6.77,2.31-10,.51-1.92,1-3.82,1.6-5.72l12.79,8.06c-.15.48-.28,1-.41,1.45-.84,3.07-1.68,6.13-2.33,9.1-.1.46-.2.92-.29,1.37.76,0,1.54,0,2.32-.05,3-.11,6-.41,9.14-.74,2.55-.28,5.12-.61,7.7-1l1.67-.23,9.44-1.35Z" style="fill:#9e6141"></path><path d="M215.75,182.62s8.21-2.59,10-2.29c1.95.34,1.38,10.61-1.09,12.1s-8.4-3-8.4-3Z" style="fill:#9e6141"></path><path d="M215.76,182.71a10.57,10.57,0,0,1,3.54-2.87c1.83-.71,3.49-1.87,4.35-1.57s-2.17,3.09-2.17,3.09Z" style="fill:#9e6141"></path><path d="M225.71,180.33s5.09,1.27,6.76,3.3-2.89.92-2.89.92,5.33,1.74,3.29,5.83c-1,2-7.06,2.6-9.86,2.32C223,192.7,222.81,184.15,225.71,180.33Z" style="fill:#9e6141"></path><path d="M273.43,196.72s-.14-.69-2.06-1.14a9.89,9.89,0,0,0-4-.26l4.65,3s-.51,4.09,1.69,5.92c4.42,3.68,7.83,1.49,8.78.7s-.63-4.34-3.41-6.4A9.19,9.19,0,0,0,273.43,196.72Z" style="fill:#9e6141"></path></g></svg>
