<?xml version="1.0" encoding="UTF-8"?>
<!DOCTYPE svg PUBLIC "-//W3C//DTD SVG 1.1//EN" "http://www.w3.org/Graphics/SVG/1.1/DTD/svg11.dtd">
<!-- Creator: CorelDRAW 2017 -->
<svg xmlns="http://www.w3.org/2000/svg" xml:space="preserve" width="3.4712mm" height="3.4712mm" version="1.1" style="shape-rendering:geometricPrecision; text-rendering:geometricPrecision; image-rendering:optimizeQuality; fill-rule:evenodd; clip-rule:evenodd"
viewBox="0 0 347.12 347.12"
 xmlns:xlink="http://www.w3.org/1999/xlink">
 <defs>
  <style type="text/css">
   <![CDATA[
    .fil3 {fill:none}
    .fil5 {fill:#FEFEFE}
    .fil1 {fill:#0D507A}
    .fil0 {fill:#2873A6}
    .fil2 {fill:#4EF298}
    .fil4 {fill:#EE4552}
   ]]>
  </style>
   <clipPath id="id0">
    <path d="M129.75 216.37c-12.95,-23.5 -22.67,-34.36 -29.13,-71.47 -15.39,-88.34 30.49,-130.11 59.43,-33.85 10.4,34.6 7.92,51.85 4.85,89.09l13.09 0.29c5.67,-29.42 20.41,-62.85 36.35,-77.77 13.11,-12.27 59.94,-30.93 86.58,-14.76 16.93,10.27 9.78,25.3 -5.19,32.46 -38.08,18.19 -33.77,22.02 -57.37,51.53 -10.3,12.89 -17.97,15.91 -28.6,26.71 4.2,10.87 19.6,26.68 9.04,54.1 -26.39,-12.35 -47.86,-21.27 -81.6,-12.32 -5.6,1.48 -8.18,3.01 -12.76,4.35 -24.53,7.23 -3.49,-40.09 5.31,-48.36z"/>
   </clipPath>
   <clipPath id="id1">
    <path d="M156.63 274.15c-26.89,9.45 -13.97,50.1 13.66,41.75 2.88,-0.87 5.65,-2.53 7.09,-3.77 19.72,-16.91 1.2,-45.7 -20.75,-37.98z"/>
   </clipPath>
   <clipPath id="id2">
    <path d="M120.24 201.04c-12.95,-23.5 -22.67,-34.36 -29.13,-71.47 -15.39,-88.34 30.49,-130.11 59.43,-33.85 10.4,34.6 7.92,51.85 4.85,89.09l13.09 0.29c5.67,-29.42 20.41,-62.85 36.35,-77.77 13.11,-12.27 59.94,-30.93 86.58,-14.76 16.94,10.27 9.78,25.3 -5.19,32.46 -38.08,18.19 -33.77,22.02 -57.37,51.53 -10.3,12.89 -17.97,15.91 -28.59,26.71 4.19,10.87 19.59,26.68 9.03,54.1 -26.39,-12.35 -47.86,-21.27 -81.6,-12.32 -5.6,1.48 -8.18,3.01 -12.76,4.35 -24.53,7.23 -3.49,-40.09 5.31,-48.36z"/>
   </clipPath>
   <clipPath id="id3">
    <path d="M147.03 269.67c-26.89,9.45 -13.97,50.1 13.66,41.75 2.88,-0.87 5.65,-2.53 7.09,-3.77 19.72,-16.91 1.2,-45.7 -20.75,-37.98z"/>
   </clipPath>
 </defs>
 <g id="Capa_x0020_1">
  <metadata id="CorelCorpID_0Corel-Layer"/>
  <rect class="fil0" x="0.78" y="0.78" width="345.56" height="345.56" rx="140.48" ry="172.78"/>
  <path class="fil1" d="M129.75 216.37c-12.95,-23.5 -22.67,-34.36 -29.13,-71.47 -15.39,-88.34 30.49,-130.11 59.43,-33.85 10.4,34.6 7.92,51.85 4.85,89.09l13.09 0.29c5.67,-29.42 20.41,-62.85 36.35,-77.77 13.11,-12.27 59.94,-30.93 86.58,-14.76 16.93,10.27 9.78,25.3 -5.19,32.46 -38.08,18.19 -33.77,22.02 -57.37,51.53 -10.3,12.89 -17.97,15.91 -28.6,26.71 4.2,10.87 19.6,26.68 9.04,54.1 -26.39,-12.35 -47.86,-21.27 -81.6,-12.32 -5.6,1.48 -8.18,3.01 -12.76,4.35 -24.53,7.23 -3.49,-40.09 5.31,-48.36z"/>
  <g style="clip-path:url(#id0)">
   <g id="_2700265630000">
    <circle class="fil2" cx="25.96" cy="236.45" r="72.7"/>
   </g>
  </g>
  <path class="fil3" d="M129.75 216.37c-12.95,-23.5 -22.67,-34.36 -29.13,-71.47 -15.39,-88.34 30.49,-130.11 59.43,-33.85 10.4,34.6 7.92,51.85 4.85,89.09l13.09 0.29c5.67,-29.42 20.41,-62.85 36.35,-77.77 13.11,-12.27 59.94,-30.93 86.58,-14.76 16.93,10.27 9.78,25.3 -5.19,32.46 -38.08,18.19 -33.77,22.02 -57.37,51.53 -10.3,12.89 -17.97,15.91 -28.6,26.71 4.2,10.87 19.6,26.68 9.04,54.1 -26.39,-12.35 -47.86,-21.27 -81.6,-12.32 -5.6,1.48 -8.18,3.01 -12.76,4.35 -24.53,7.23 -3.49,-40.09 5.31,-48.36z"/>
  <path class="fil1" d="M156.63 274.15c-26.89,9.45 -13.97,50.1 13.66,41.75 2.88,-0.87 5.65,-2.53 7.09,-3.77 19.72,-16.91 1.2,-45.7 -20.75,-37.98z"/>
  <g style="clip-path:url(#id1)">
   <g id="_2700265626032">
    <ellipse class="fil4" cx="167.5" cy="379.82" rx="61.38" ry="53.17"/>
   </g>
  </g>
  <path class="fil3" d="M156.63 274.15c-26.89,9.45 -13.97,50.1 13.66,41.75 2.88,-0.87 5.65,-2.53 7.09,-3.77 19.72,-16.91 1.2,-45.7 -20.75,-37.98z"/>
  <path class="fil5" d="M120.24 201.04c-12.95,-23.5 -22.67,-34.36 -29.13,-71.47 -15.39,-88.34 30.49,-130.11 59.43,-33.85 10.4,34.6 7.92,51.85 4.85,89.09l13.09 0.29c5.67,-29.42 20.41,-62.85 36.35,-77.77 13.11,-12.27 59.94,-30.93 86.58,-14.76 16.94,10.27 9.78,25.3 -5.19,32.46 -38.08,18.19 -33.77,22.02 -57.37,51.53 -10.3,12.89 -17.97,15.91 -28.59,26.71 4.19,10.87 19.59,26.68 9.03,54.1 -26.39,-12.35 -47.86,-21.27 -81.6,-12.32 -5.6,1.48 -8.18,3.01 -12.76,4.35 -24.53,7.23 -3.49,-40.09 5.31,-48.36z"/>
  <g style="clip-path:url(#id2)">
   <g id="_2700265627056">
    <circle class="fil2" cx="16.45" cy="221.12" r="72.7"/>
   </g>
  </g>
  <path class="fil3" d="M120.24 201.04c-12.95,-23.5 -22.67,-34.36 -29.13,-71.47 -15.39,-88.34 30.49,-130.11 59.43,-33.85 10.4,34.6 7.92,51.85 4.85,89.09l13.09 0.29c5.67,-29.42 20.41,-62.85 36.35,-77.77 13.11,-12.27 59.94,-30.93 86.58,-14.76 16.94,10.27 9.78,25.3 -5.19,32.46 -38.08,18.19 -33.77,22.02 -57.37,51.53 -10.3,12.89 -17.97,15.91 -28.59,26.71 4.19,10.87 19.59,26.68 9.03,54.1 -26.39,-12.35 -47.86,-21.27 -81.6,-12.32 -5.6,1.48 -8.18,3.01 -12.76,4.35 -24.53,7.23 -3.49,-40.09 5.31,-48.36z"/>
  <path class="fil5" d="M147.03 269.67c-26.89,9.45 -13.97,50.1 13.66,41.75 2.88,-0.87 5.65,-2.53 7.09,-3.77 19.72,-16.91 1.2,-45.7 -20.75,-37.98z"/>
  <g style="clip-path:url(#id3)">
   <g id="_2700265624240">
    <ellipse class="fil4" cx="157.9" cy="375.34" rx="61.38" ry="53.17"/>
   </g>
  </g>
  <path class="fil3" d="M147.03 269.67c-26.89,9.45 -13.97,50.1 13.66,41.75 2.88,-0.87 5.65,-2.53 7.09,-3.77 19.72,-16.91 1.2,-45.7 -20.75,-37.98z"/>
 </g>
</svg>
