<?xml version="1.0" encoding="UTF-8"?>
<!DOCTYPE svg PUBLIC "-//W3C//DTD SVG 1.1//EN" "http://www.w3.org/Graphics/SVG/1.1/DTD/svg11.dtd">
<!-- Creator: CorelDRAW 2017 -->
<svg xmlns="http://www.w3.org/2000/svg" xml:space="preserve" width="20.0658mm" height="14.1392mm" version="1.1" style="shape-rendering:geometricPrecision; text-rendering:geometricPrecision; image-rendering:optimizeQuality; fill-rule:evenodd; clip-rule:evenodd"
viewBox="0 0 2006.58 1413.92"
 xmlns:xlink="http://www.w3.org/1999/xlink">
 <defs>
  <style type="text/css">
   <![CDATA[
    .str0 {stroke:#FEFEFE;stroke-width:20;stroke-miterlimit:22.9256}
    .str3 {stroke:#140B2C;stroke-width:7.62;stroke-miterlimit:22.9256}
    .str2 {stroke:#4D004D;stroke-width:7.62;stroke-miterlimit:22.9256}
    .str4 {stroke:#660066;stroke-width:7.62;stroke-miterlimit:22.9256}
    .str1 {stroke:purple;stroke-width:7.62;stroke-miterlimit:22.9256}
    .fil0 {fill:#FEFEFE}
    .fil3 {fill:#4D004D}
    .fil2 {fill:#4D004D}
    .fil4 {fill:#660066}
    .fil1 {fill:purple}
    .fil7 {fill:#10FF60;fill-rule:nonzero}
    .fil6 {fill:#46FA97;fill-rule:nonzero}
    .fil5 {fill:#5AFFA4;fill-rule:nonzero}
   ]]>
  </style>
 </defs>
 <g id="Capa_x0020_1">
  <metadata id="CorelCorpID_0Corel-Layer"/>
  <g id="_2700254071440">
   <polygon class="fil0 str0" points="683.86,311.1 1322.71,311.1 1322.71,949.95 683.86,949.95 "/>
   <path class="fil1 str1" d="M899.29 373.37c6.79,52.3 3.72,9.57 18.18,25.18 12.31,13.27 9.64,1.46 10.02,33.01 0.9,74 -20.58,187.77 92.61,187.92 145.22,0.2 67.02,-181.39 98.68,-218.15 19.45,-22.57 15.16,29.12 23.35,-27.96 -16.92,-11.45 -61.33,-13.22 -81.46,-7.28 -1.8,0.53 -3.59,1.46 -5.13,2.03l-9.35 5.25c3.87,38.25 -7.68,15.64 29.89,26.23 7.1,76.04 18.59,185.34 -56.1,185.96 -78.96,0.65 -59.46,-122.66 -55.03,-185.96 38.75,-11.65 25.55,14.57 30.27,-26.23l-73.51 -8.83c-44.85,9 33.76,-12.05 -11.68,3.48l-10.74 5.35z"/>
   <path class="fil2 str2" d="M1583.96 575.39c49.73,-6.44 -6.64,-20.55 32.78,-36.71l84.94 0.2c-36.08,63.13 -135.08,169.3 -133.64,204.87l185.4 2.17 2.83 -66.13c-26.23,-0.24 -20.19,-9.07 -38.5,31.51 -0.66,1.47 -1.34,4.03 -2.67,5.62l-95.82 0c23.34,-53.29 131.41,-162.33 133.38,-205.64l-177.94 -1.74 1.22 52.43c6.44,19.35 -4.8,0.99 8.02,13.42z"/>
   <g>
    <path class="fil3 str3" d="M366.13 549.41c122.5,-52.89 188.35,139.9 76.7,190.8 -84.07,38.34 -166.93,-48.06 -128.5,-141.48 12.8,-31.1 22.13,-36.51 51.8,-49.32zm189.28 269.84c-11.73,-57.35 -25.08,-6.63 -73.23,-25.79l-27.89 -22.55c73.79,-26.01 114,-116.9 63.8,-203.78 -37.92,-65.64 -151.75,-88.06 -216.07,-20.02 -64.73,68.46 -41.61,176.21 26.24,216.56 39.12,23.26 65.99,15.79 110.84,46.43 33.11,22.61 79.36,42.61 116.31,9.15z"/>
    <path class="fil2 str2" d="M555.41 819.25c-36.95,33.46 -83.2,13.46 -116.31,-9.15 -44.85,-30.64 -71.72,-23.17 -110.84,-46.43 -67.85,-40.35 -90.97,-148.1 -26.24,-216.56 64.32,-68.04 178.15,-45.62 216.07,20.02 50.2,86.88 9.99,177.77 -63.8,203.78l27.89 22.55c48.15,19.16 61.5,-31.56 73.23,25.79zm259.32 -18.02c-18.24,-42.88 -3.08,-259.76 -6.17,-329.26 -2.37,-53.2 -22.42,-91.48 -50.92,-118.14 -45.11,-42.21 -86.04,-21.1 -122.86,-41.61 -214.95,49.53 -611.77,-96.09 -628.02,153.07 -5.81,89.05 -8.13,298.86 0.62,384.7 16.83,165.02 171.73,135.32 244.14,141.1 -0.13,40.45 -4.94,69.28 -18.87,103.14 -13.68,33.26 -33.75,46.74 -28.04,80.79 73.49,8.85 211.96,-138.9 237.87,-184.42 72.88,-3.3 211.31,9.27 271.66,-11.48 109.61,-37.69 81.68,-145.97 100.59,-177.89z"/>
    <path class="fil2 str2" d="M366.13 549.41c-29.67,12.81 -39,18.22 -51.8,49.32 -38.43,93.42 44.43,179.82 128.5,141.48 111.65,-50.9 45.8,-243.69 -76.7,-190.8z"/>
   </g>
   <path class="fil2 str2" d="M1583.96 575.39c-12.82,-12.43 -1.58,5.93 -8.02,-13.42l-1.22 -52.43 177.94 1.74c-1.97,43.31 -110.04,152.35 -133.38,205.64l95.82 0c1.33,-1.59 2.01,-4.15 2.67,-5.62 18.31,-40.58 12.27,-31.75 38.5,-31.51l-2.83 66.13 -185.4 -2.17c-1.44,-35.57 97.56,-141.74 133.64,-204.87l-84.94 -0.2c-39.42,16.16 16.95,30.27 -32.78,36.71zm-223.25 -289.06c29.2,69.9 62.8,90.36 61.87,198.56 -0.33,38.4 -6.78,74.49 -19.63,107.56 -13.97,35.95 -32.61,55.41 -44.6,86.21 57.48,12.32 133.67,69.24 160.15,101.05 44.4,53.32 69.43,106.36 69.43,199.12 101.84,0 189.26,2.2 290.82,-8.73 55.39,14.14 121.53,-58.06 124.84,-157.15 3.08,-92.04 0.08,-189.55 0.11,-282.21 0.07,-268.45 -81.58,-237.05 -321.05,-244.49 -42.7,-132.5 10.44,-210.46 -1.68,-258.78 -37.34,-5.39 -45.41,20.52 -64.77,43.78 -94.32,113.34 -81.9,167.5 -104.37,215.39l-151.12 -0.31z"/>
   <path class="fil4 str4" d="M1215.38 956.95l0 104.92c-30.24,22.69 -25.98,-13.83 -28.63,32.78 1.73,1.19 4.44,0.35 5.61,2.84l44.14 7.53c33.94,-0.05 35.12,-0.67 48.34,-10.37 -1.68,-33.36 5.78,-24.26 -29.99,-25.01l-0.22 -156.3 -67.31 -0.38c-3.31,55.34 0.98,19.71 28.06,43.99z"/>
   <path class="fil4 str4" d="M1186.75 1094.65c2.65,-46.61 -1.61,-10.09 28.63,-32.78l0 -104.92c-27.08,-24.28 -31.37,11.35 -28.06,-43.99l67.31 0.38 0.22 156.3c35.77,0.75 28.31,-8.35 29.99,25.01 -13.22,9.7 -14.4,10.32 -48.34,10.37l-44.14 -7.53c-1.17,-2.49 -3.88,-1.65 -5.61,-2.84zm-304.1 -277.75c2.09,2.47 10.4,14.57 11.16,15.47 -40.66,72.5 -44.4,170.81 -6.07,250.43 50.27,104.42 157.98,169.85 273.93,185.96 93.07,12.94 49.14,-9.06 106.85,43.09 10.41,9.4 209.75,161.12 194.31,74.72l-30.97 -61.07c-12.08,-28.06 -22,-59.37 -24.3,-94.41 104.35,-44.24 162.06,-132.54 181.88,-246 51.07,0 258.66,11.73 289.31,-14.99 -101.56,10.93 -188.98,8.73 -290.82,8.73 0,-92.76 -25.03,-145.8 -69.43,-199.12 -26.48,-31.81 -102.67,-88.73 -160.15,-101.05 -130.81,-58.33 -329.67,-13 -430.6,107.4 -22.67,27.05 -14.67,34.96 -45.1,30.84z"/>
   <path class="fil1 str1" d="M917.47 398.55c-14.46,-15.61 -11.39,27.12 -18.18,-25.18l10.74 -5.35c45.44,-15.53 -33.17,5.52 11.68,-3.48l73.51 8.83c-4.72,40.8 8.48,14.58 -30.27,26.23 -4.43,63.3 -23.93,186.61 55.03,185.96 74.69,-0.62 63.2,-109.92 56.1,-185.96 -37.57,-10.59 -26.02,12.02 -29.89,-26.23l9.35 -5.25c1.54,-0.57 3.33,-1.5 5.13,-2.03 20.13,-5.94 64.54,-4.17 81.46,7.28 -8.19,57.08 -3.9,5.39 -23.35,27.96 -31.66,36.76 46.54,218.35 -98.68,218.15 -113.19,-0.15 -91.71,-113.92 -92.61,-187.92 -0.38,-31.55 2.29,-19.74 -10.02,-33.01zm-282.69 -86.33c36.82,20.51 77.75,-0.6 122.86,41.61 28.5,26.66 48.55,64.94 50.92,118.14 3.09,69.5 -12.07,286.38 6.17,329.26 26.79,5.79 37.53,15.7 67.92,15.67 30.43,4.12 22.43,-3.79 45.1,-30.84 100.93,-120.4 299.79,-165.73 430.6,-107.4 11.99,-30.8 30.63,-50.26 44.6,-86.21 12.85,-33.07 19.3,-69.16 19.63,-107.56 0.93,-108.2 -32.67,-128.66 -61.87,-198.56 -43.01,-39.95 -68.62,-73.48 -128.25,-105.6 -52.48,-28.27 -113.12,-49.09 -181.33,-54.03 -75.78,-5.49 -41.29,0.65 -83.97,-34.81 -58.64,-48.74 -189.43,-106.84 -249.49,-87.08 -0.55,54.86 71.91,61.06 79.68,166.15 -55.17,19.45 -145.73,97.13 -162.57,141.26z"/>
   <path class="fil5" d="M518.12 458.78l0 385.21 -82.1 0 0 -132.09c-20.35,22.81 -48.59,34.21 -84.72,34.21 -26.66,0 -50.78,-5.96 -72.36,-17.89 -21.58,-11.93 -38.5,-28.95 -50.78,-51.05 -12.28,-22.1 -18.42,-47.71 -18.42,-76.83 0,-29.12 6.14,-54.73 18.42,-76.83 12.28,-22.1 29.2,-39.12 50.78,-51.04 21.58,-11.93 45.7,-17.9 72.36,-17.9 38.59,0 68.06,12.28 88.41,36.84l0 -32.63 78.41 0zm-152.61 219.97c20.7,0 37.89,-7.1 51.57,-21.31 13.68,-14.21 20.52,-33.24 20.52,-57.1 0,-23.85 -6.84,-42.89 -20.52,-57.1 -13.68,-14.2 -30.87,-21.31 -51.57,-21.31 -21.05,0 -38.42,7.11 -52.1,21.31 -13.68,14.21 -20.52,33.25 -20.52,57.1 0,23.86 6.84,42.89 20.52,57.1 13.68,14.21 31.05,21.31 52.1,21.31z"/>
   <path class="fil5" d="M1174.33 880.91l82.09 0 0 283.12 -82.09 0 0 -283.12zm41.05 -39.47c-15.09,0 -27.37,-4.38 -36.84,-13.15 -9.47,-8.77 -14.21,-19.65 -14.21,-32.63 0,-12.98 4.74,-23.85 14.21,-32.62 9.47,-8.78 21.75,-13.16 36.84,-13.16 15.08,0 27.36,4.21 36.83,12.63 9.48,8.42 14.21,18.94 14.21,31.57 0,13.69 -4.73,25 -14.21,33.95 -9.47,8.94 -21.75,13.41 -36.83,13.41z"/>
   <path class="fil6" d="M1158.46 331.1l0 283.12 -77.88 0 0 -33.68c-10.88,12.28 -23.86,21.66 -38.94,28.15 -15.09,6.49 -31.4,9.74 -48.94,9.74 -37.19,0 -66.66,-10.7 -88.41,-32.1 -21.75,-21.4 -32.63,-53.15 -32.63,-95.25l0 -159.98 82.09 0 0 147.88c0,45.6 19.12,68.41 57.36,68.41 19.65,0 35.44,-6.41 47.37,-19.21 11.92,-12.81 17.89,-31.84 17.89,-57.1l0 -139.98 82.09 0z"/>
   <polygon class="fil7" points="1784.23,669.83 1784.23,732.98 1531.64,732.98 1531.64,683.51 1587.95,617.21 1549.53,617.21 1549.53,562.48 1634.26,562.48 1675.83,513.01 1535.32,513.01 1535.32,449.86 1779.5,449.86 1779.5,499.33 1725.82,563 1765.82,563 1765.82,617.73 1679.51,617.73 1635.31,669.83 "/>
  </g>
 </g>
</svg>
