<?xml version="1.0" encoding="UTF-8"?>
<!DOCTYPE svg PUBLIC "-//W3C//DTD SVG 1.1//EN" "http://www.w3.org/Graphics/SVG/1.1/DTD/svg11.dtd">
<!-- Creator: CorelDRAW 2017 -->
<svg xmlns="http://www.w3.org/2000/svg" xml:space="preserve" width="31.6652mm" height="33.6126mm" version="1.1" style="shape-rendering:geometricPrecision; text-rendering:geometricPrecision; image-rendering:optimizeQuality; fill-rule:evenodd; clip-rule:evenodd"
viewBox="0 0 3166.52 3361.26"
 xmlns:xlink="http://www.w3.org/1999/xlink">
 <defs>
  <style type="text/css">
   <![CDATA[
    .fil2 {fill:none}
    .fil1 {fill:#ED5173}
    .fil0 {fill:#F05577}
    .fil3 {fill:#FEFEFE;fill-rule:nonzero}
   ]]>
  </style>
    <clipPath id="id0">
     <path d="M3165.15 1904.05c-70.96,-166.84 -11.99,-1010.68 -24.01,-1281.11 -9.2,-206.98 -87.23,-355.91 -198.12,-459.67 -175.51,-164.21 -334.75,-82.09 -478.02,-161.88 -836.32,192.7 -2380.27,-373.89 -2443.51,595.59 -22.6,346.44 -31.63,1162.77 2.43,1496.79 65.46,642.06 668.15,526.5 949.88,548.98 -0.5,157.38 -19.21,269.55 -73.41,401.31 -53.21,129.4 -131.33,181.84 -109.1,314.33 285.92,34.43 824.71,-540.42 925.53,-717.55 283.55,-12.83 822.17,36.08 1056.97,-44.67 426.45,-146.65 317.79,-567.95 391.36,-692.12z"/>
    </clipPath>
 </defs>
 <g id="Capa_x0020_1">
  <metadata id="CorelCorpID_0Corel-Layer"/>
  <g id="_2224719916608">
   <path class="fil0" d="M3165.15 1904.05c-70.96,-166.84 -11.99,-1010.68 -24.01,-1281.11 -9.2,-206.98 -87.23,-355.91 -198.12,-459.67 -175.51,-164.21 -334.75,-82.09 -478.02,-161.88 -836.32,192.7 -2380.27,-373.89 -2443.51,595.59 -22.6,346.44 -31.63,1162.77 2.43,1496.79 65.46,642.06 668.15,526.5 949.88,548.98 -0.5,157.38 -19.21,269.55 -73.41,401.31 -53.21,129.4 -131.33,181.84 -109.1,314.33 285.92,34.43 824.71,-540.42 925.53,-717.55 283.55,-12.83 822.17,36.08 1056.97,-44.67 426.45,-146.65 317.79,-567.95 391.36,-692.12z"/>
   <g style="clip-path:url(#id0)">
    <g>
     <ellipse class="fil1" cx="1630.75" cy="1367.25" rx="1997.34" ry="631.08"/>
    </g>
   </g>
   <path class="fil2" d="M3165.15 1904.05c-70.96,-166.84 -11.99,-1010.68 -24.01,-1281.11 -9.2,-206.98 -87.23,-355.91 -198.12,-459.67 -175.51,-164.21 -334.75,-82.09 -478.02,-161.88 -836.32,192.7 -2380.27,-373.89 -2443.51,595.59 -22.6,346.44 -31.63,1162.77 2.43,1496.79 65.46,642.06 668.15,526.5 949.88,548.98 -0.5,157.38 -19.21,269.55 -73.41,401.31 -53.21,129.4 -131.33,181.84 -109.1,314.33 285.92,34.43 824.71,-540.42 925.53,-717.55 283.55,-12.83 822.17,36.08 1056.97,-44.67 426.45,-146.65 317.79,-567.95 391.36,-692.12z"/>
   <path class="fil3" d="M1035.89 966.38l0 804.06 -171.36 0 0 -275.71c-42.47,47.6 -101.42,71.4 -176.84,71.4 -55.66,0 -106,-12.45 -151.04,-37.35 -45.03,-24.9 -80.37,-60.41 -106,-106.55 -25.63,-46.13 -38.44,-99.59 -38.44,-160.37 0,-60.78 12.81,-114.23 38.44,-160.37 25.63,-46.13 60.97,-81.65 106,-106.55 45.04,-24.89 95.38,-37.34 151.04,-37.34 80.55,0 142.06,25.63 184.53,76.89l0 -68.11 163.67 0zm-318.54 459.15c43.2,0 79.08,-14.83 107.64,-44.49 28.56,-29.66 42.84,-69.38 42.84,-119.18 0,-49.79 -14.28,-89.52 -42.84,-119.18 -28.56,-29.65 -64.44,-44.48 -107.64,-44.48 -43.94,0 -80.19,14.83 -108.75,44.48 -28.56,29.66 -42.84,69.39 -42.84,119.18 0,49.8 14.28,89.52 42.84,119.18 28.56,29.66 64.81,44.49 108.75,44.49z"/>
   <path class="fil3" d="M1918.75 984.33l171.35 0 0 590.96 -171.35 0 0 -590.96zm85.67 -82.38c-31.48,0 -57.11,-9.15 -76.89,-27.46 -19.77,-18.31 -29.65,-41.01 -29.65,-68.1 0,-27.1 9.88,-49.8 29.65,-68.1 19.78,-18.31 45.41,-27.46 76.89,-27.46 31.49,0 57.12,8.78 76.89,26.36 19.78,17.57 29.66,39.54 29.66,65.9 0,28.56 -9.88,52.18 -29.66,70.85 -19.77,18.68 -45.4,28.01 -76.89,28.01z"/>
   <polygon class="fil3" points="2715.46,1755.66 2715.46,1887.47 2188.22,1887.47 2188.22,1784.22 2305.75,1645.82 2225.56,1645.82 2225.56,1531.58 2402.41,1531.58 2489.19,1428.33 2195.91,1428.33 2195.91,1296.51 2705.58,1296.51 2705.58,1399.77 2593.54,1532.68 2677.02,1532.68 2677.02,1646.91 2496.88,1646.91 2404.61,1755.66 "/>
   <path class="fil3" d="M1807.87 1214.69l0 590.96 -162.57 0 0 -70.3c-22.7,25.63 -49.8,45.22 -81.29,58.77 -31.48,13.54 -65.54,20.32 -102.15,20.32 -77.62,0 -139.13,-22.34 -184.54,-67.01 -45.4,-44.67 -68.1,-110.94 -68.1,-198.81l0 -333.93 171.36 0 0 308.66c0,95.2 39.91,142.8 119.73,142.8 41,0 73.96,-13.36 98.85,-40.09 24.9,-26.73 37.35,-66.46 37.35,-119.18l0 -292.19 171.36 0z"/>
  </g>
 </g>
</svg>
