<?xml version="1.0" encoding="UTF-8"?>
<!DOCTYPE svg PUBLIC "-//W3C//DTD SVG 1.1//EN" "http://www.w3.org/Graphics/SVG/1.1/DTD/svg11.dtd">
<!-- Creator: CorelDRAW 2017 -->
<svg xmlns="http://www.w3.org/2000/svg" xml:space="preserve" width="200mm" height="200mm" version="1.1" style="shape-rendering:geometricPrecision; text-rendering:geometricPrecision; image-rendering:optimizeQuality; fill-rule:evenodd; clip-rule:evenodd"
viewBox="0 0 20000 20000"
 xmlns:xlink="http://www.w3.org/1999/xlink">
 <defs>
  <style type="text/css">
   <![CDATA[
    .fil2 {fill:#ED2F59}
    .fil0 {fill:#FDFDFD}
    .fil1 {fill:#ED2F59;fill-rule:nonzero}
   ]]>
  </style>
 </defs>
 <g id="Capa_x0020_1">
  <metadata id="CorelCorpID_0Corel-Layer"/>
  <g id="_1530894229520">
   <path class="fil0" d="M9370.08 9755.49c-122.85,-304.76 -307.63,-452.46 -491.28,-722.6 -164.08,-241.34 -300,-452.35 -468.92,-729.65 -267.89,-439.68 -553.23,-1094.31 -631.38,-1693.27 -421.63,-3230.93 4714.68,-3285.33 4300.79,28.74 -115.49,924.62 -1033.1,2531.72 -1561.88,3008.47 194.55,364.8 935.41,980.77 1461.76,1261.96 702.16,375.12 1500.39,435.03 2185.15,27.9 504.51,-299.95 984.66,-901.78 883.1,-1829.34 -95.7,-874.19 -2922.96,-6251.71 -3574.14,-7464.57 -914.17,-1702.63 -2144.95,-1684.65 -3007.67,-0.29 -950.04,1854.85 -1873.61,3485.75 -2773.27,5432.42 -222.43,481.25 -745.17,1401.84 -843.12,1927.95 -252.4,1355.73 1325.21,3836.55 4520.86,752.28z"/>
   <path class="fil0" d="M9924.31 8983.74c1085.51,-876.07 2320.53,-3951.98 94.61,-4061.84 -2380.78,-117.5 -1232.22,3149.98 -94.61,4061.84z"/>
   <g>
    <path class="fil1" d="M10025.36 4791.42l-12.88 260.96 0 0 -201.31 -1.21 -179.54 16.27 -158.64 32.21 -138.8 46.53 -120.34 59.45 -103.51 71.27 -88.39 82.53 -74.68 93.56 -61.93 104.55 -49.68 115.34 -37.7 125.64 -25.87 135.17 -14.25 143.72 -2.93 151.13 8.06 157.35 18.57 162.39 28.57 166.19 37.99 168.83 46.85 170.27 55.08 170.56 62.67 169.7 69.6 167.71 75.89 164.58 81.49 160.34 86.4 154.97 90.62 148.49 94.11 140.87 96.85 132.14 98.82 122.3 99.93 111.31 100.17 99.21 99.44 86.06 -163.42 203.86 -113.7 -98.36 -111.83 -110.73 -109.57 -122.01 -106.94 -132.34 -103.85 -141.68 -100.23 -150.03 -96.08 -157.43 -91.34 -163.83 -86.01 -169.24 -80.09 -173.68 -73.52 -177.15 -66.33 -179.62 -58.48 -181.16 -49.99 -181.71 -40.81 -181.33 -30.93 -180.03 -20.31 -177.81 -8.92 -174.71 3.33 -170.69 16.49 -165.78 30.67 -159.87 45.94 -152.86 62.36 -144.52 79.81 -134.57 98.04 -122.7 116.61 -108.79 135.07 -92.97 153.12 -75.65 170.84 -57.31 188.46 -38.29 206.32 -18.73 224.63 1.33 0 0zm0 0c72.06,3.55 127.59,64.86 124.04,136.92 -3.55,72.06 -64.86,127.59 -136.92,124.04l12.88 -260.96zm-182.76 4294.25l163.42 -203.86 -163.76 0.27 95.5 -82.73 96.91 -95.08 97.37 -106.44 96.92 -116.8 95.66 -126.14 93.62 -134.45 90.81 -141.74 87.28 -148.05 83.06 -153.32 78.11 -157.59 72.49 -160.85 66.21 -163.11 59.24 -164.3 51.62 -164.51 43.39 -163.63 34.51 -161.71 25.06 -158.72 15.05 -154.63 4.55 -149.44 -6.38 -143.2 -17.67 -135.88 -29.23 -127.66 -40.99 -118.64 -53.02 -109.1 -65.48 -99.31 -78.68 -89.44 -93.05 -79.5 -108.93 -69.22 -126.39 -58.2 -145.32 -46.06 -165.43 -32.58 -186.57 -17.67 12.88 -260.96 210.73 19.99 192.63 37.96 174.84 55.44 157.17 72.38 139.37 88.56 121.29 103.58 103.04 117.04 84.94 128.69 67.42 138.52 50.77 146.72 35.23 153.54 20.75 159.26 7.36 164.02 -5.09 167.92 -16.63 171.01 -27.34 173.3 -37.29 174.81 -46.51 175.47 -55.02 175.31 -62.84 174.32 -69.99 172.45 -76.49 169.73 -82.35 166.13 -87.56 161.64 -92.14 156.29 -96.13 150.04 -99.5 142.91 -102.32 134.9 -104.58 126.02 -106.37 116.28 -107.71 105.64 -108.68 94.11 -163.76 0.27zm163.76 -0.27c-56.14,45.31 -138.4,36.53 -183.71,-19.61 -45.31,-56.14 -36.53,-138.4 19.61,-183.71l164.1 203.32zm-5285.57 -106.1l256.86 47.82 0 0 -16.72 118.97 -7.02 125.05 2.81 129.83 12.74 133.24 22.68 135.29 32.63 136.02 42.5 135.43 52.32 133.53 62.05 130.36 71.63 125.94 81.11 120.33 90.43 113.53 99.61 105.59 108.72 96.59 117.76 86.54 126.8 75.5 135.94 63.47 145.27 50.41 154.86 36.3 164.77 21.01 174.98 4.46 185.46 -13.45 196.12 -32.75 206.92 -53.52 217.7 -75.73 228.49 -99.36 239.16 -124.39 249.74 -150.78 260.2 -178.47 270.52 -207.48 280.7 -237.76 290.83 -269.33 181.44 188 -298.87 276.77 -289.94 245.58 -281.02 215.54 -272.14 186.67 -263.32 158.96 -254.56 132.39 -245.81 106.9 -237.08 82.45 -228.3 59.06 -219.42 36.65 -210.34 15.25 -201.02 -5.12 -191.33 -24.37 -181.26 -42.46 -170.81 -59.25 -160.02 -74.67 -148.94 -88.66 -137.72 -101.16 -126.4 -112.25 -115.05 -121.91 -103.73 -130.19 -92.47 -137.15 -81.27 -142.84 -70.11 -147.3 -59 -150.55 -47.92 -152.61 -36.83 -153.54 -25.7 -153.33 -14.52 -152 -3.23 -149.57 8.22 -146.07 19.9 -141.41 0 0zm0 0c13.2,-70.92 81.42,-117.72 152.34,-104.52 70.92,13.2 117.72,81.42 104.52,152.34l-256.86 -47.82zm852.96 -1958.85l237.18 109.62 0 0 -22.22 47.46 -23.75 49.66 -25.16 51.75 -26.44 53.69 -27.61 55.54 -28.66 57.22 -29.56 58.78 -30.34 60.2 -31 61.45 -31.52 62.58 -31.92 63.55 -32.17 64.36 -32.31 65.02 -32.3 65.55 -32.17 65.9 -31.89 66.1 -31.5 66.15 -30.96 66.03 -30.29 65.74 -29.48 65.32 -28.54 64.71 -27.46 63.94 -26.25 63 -24.91 61.88 -23.43 60.58 -21.8 59.1 -20.06 57.42 -18.17 55.56 -16.17 53.44 -14.02 51.12 -11.78 48.55 -9.44 45.7 -256.86 -47.82 11.38 -55.2 13.74 -56.67 15.94 -58.12 17.99 -59.5 19.89 -60.8 21.66 -62.02 23.3 -63.12 24.79 -64.14 26.17 -65.02 27.41 -65.76 28.52 -66.4 29.5 -66.89 30.36 -67.26 31.07 -67.46 31.66 -67.53 32.12 -67.47 32.45 -67.24 32.65 -66.88 32.7 -66.35 32.63 -65.7 32.43 -64.88 32.1 -63.89 31.62 -62.78 31.02 -61.49 30.28 -60.06 29.4 -58.46 28.38 -56.7 27.23 -54.76 25.94 -52.67 24.5 -50.39 22.93 -47.94 21.2 -45.3 0 0zm0 0c30.27,-65.49 107.91,-94.05 173.4,-63.78 65.49,30.27 94.05,107.91 63.78,173.4l-237.18 -109.62zm2775.58 -5437.17l232.56 119.12 0 0 -89.13 173.5 -88.95 172.28 -88.79 171.14 -88.63 170.1 -88.45 169.15 -88.29 168.31 -88.13 167.57 -87.96 166.91 -87.79 166.36 -87.63 165.92 -87.46 165.56 -87.3 165.31 -87.14 165.15 -86.96 165.1 -86.81 165.15 -86.64 165.28 -86.48 165.53 -86.32 165.86 -86.16 166.31 -86 166.84 -85.85 167.48 -85.68 168.22 -85.52 169.05 -85.37 170 -85.22 171.03 -85.06 172.15 -84.92 173.41 -84.76 174.73 -84.61 176.16 -84.46 177.7 -84.32 179.34 -84.17 181.07 -237.18 -109.62 84.65 -182.11 84.8 -180.34 84.92 -178.68 85.07 -177.1 85.2 -175.63 85.32 -174.25 85.46 -172.97 85.6 -171.79 85.73 -170.7 85.86 -169.71 86 -168.84 86.13 -168.04 86.26 -167.36 86.4 -166.75 86.52 -166.26 86.66 -165.87 86.8 -165.58 86.93 -165.37 87.06 -165.28 87.2 -165.27 87.32 -165.37 87.46 -165.58 87.61 -165.86 87.73 -166.26 87.88 -166.75 88.01 -167.35 88.15 -168.03 88.29 -168.83 88.43 -169.72 88.57 -170.72 88.71 -171.8 88.85 -173 0 0zm0 0c32.89,-64.21 111.63,-89.61 175.84,-56.72 64.21,32.89 89.61,111.63 56.72,175.84l-232.56 -119.12zm3239.05 -1.95l-230.2 123.6 0 0 -84.27 -150.42 -85.66 -140.12 -86.85 -129.83 -87.87 -119.57 -88.68 -109.3 -89.28 -99.1 -89.68 -88.91 -89.83 -78.82 -89.79 -68.8 -89.54 -58.96 -89.1 -49.26 -88.55 -39.76 -87.92 -30.5 -87.3 -21.48 -86.77 -12.64 -86.39 -3.96 -86.24 4.68 -86.29 13.33 -86.5 22.11 -86.81 31.07 -87.15 40.25 -87.39 49.61 -87.55 59.2 -87.52 68.92 -87.26 78.75 -86.81 88.7 -86.13 98.67 -85.24 108.68 -84.13 118.71 -82.82 128.72 -81.32 138.74 -79.65 148.76 -232.56 -119.12 84.23 -157.3 86.62 -147.76 88.92 -138.2 91.19 -128.65 93.38 -119.06 95.55 -109.43 97.67 -99.78 99.78 -90.05 101.84 -80.18 103.87 -70.22 105.81 -60.05 107.63 -49.69 109.27 -39.09 110.62 -28.27 111.65 -17.25 112.24 -6.08 112.39 5.14 112.07 16.32 111.34 27.38 110.26 38.24 108.95 48.92 107.42 59.36 105.8 69.64 104.09 79.76 102.33 89.76 100.54 99.69 98.74 109.56 96.86 119.4 94.99 129.23 93.03 139.07 91.02 148.9 88.95 158.74 0 0zm0 0c34.13,63.56 10.26,142.77 -53.3,176.9 -63.56,34.13 -142.77,10.26 -176.9,-53.3l230.2 -123.6zm3588.9 7512.15l-259.72 28.44 0 0 -14.35 -80.15 -29.77 -111.4 -44.48 -137.7 -58.16 -160.97 -70.85 -181.96 -82.58 -201.06 -93.33 -218.36 -103.16 -233.91 -112.06 -247.83 -120.04 -260.1 -127.11 -270.74 -133.29 -279.77 -138.53 -287.19 -142.89 -293 -146.35 -297.24 -148.87 -299.85 -150.53 -300.88 -151.28 -300.32 -151.11 -298.17 -150.06 -294.42 -148.1 -289.07 -145.24 -282.16 -141.49 -273.64 -136.83 -263.53 -131.27 -251.84 -124.81 -238.54 -117.46 -223.68 -109.2 -207.21 -100.04 -189.15 -89.98 -169.51 -79.02 -148.25 -67.14 -125.39 230.2 -123.6 67.4 125.89 79.24 148.67 90.18 169.87 100.22 189.49 109.38 207.55 117.64 224.02 124.99 238.9 131.47 252.2 137.03 263.91 141.69 274.06 145.46 282.58 148.34 289.55 150.32 294.92 151.39 298.73 151.58 300.92 150.87 301.56 149.25 300.59 146.75 298.06 143.35 293.96 139.05 288.25 133.87 281.01 127.79 272.18 120.82 261.78 112.98 249.85 104.24 236.39 94.63 221.4 84.18 204.96 72.87 187.14 60.72 168.09 47.8 148.08 34.11 127.98 19.29 109.61 0 0zm0 0c7.85,71.71 -43.93,136.23 -115.64,144.08 -71.71,7.85 -136.23,-43.93 -144.08,-115.64l259.72 -28.44zm-946.2 1955.85l-133.52 -224.58 0 0 43.95 -27.01 43.76 -28.67 43.44 -30.34 43.02 -32 42.49 -33.64 41.86 -35.3 41.15 -36.96 40.33 -38.61 39.39 -40.25 38.38 -41.9 37.29 -43.56 36.08 -45.21 34.78 -46.86 33.41 -48.53 31.92 -50.18 30.38 -51.88 28.71 -53.55 26.98 -55.26 25.15 -56.96 23.23 -58.69 21.22 -60.45 19.12 -62.22 16.93 -64.02 14.63 -65.82 12.25 -67.67 9.75 -69.52 7.17 -71.43 4.47 -73.34 1.66 -75.27 -1.24 -77.25 -4.27 -79.22 -7.39 -81.26 259.72 -28.44 8.27 90.76 4.79 88.98 1.4 87.15 -1.88 85.33 -5.09 83.5 -8.19 81.63 -11.19 79.76 -14.09 77.87 -16.89 75.96 -19.57 74.04 -22.16 72.1 -24.62 70.15 -26.99 68.19 -29.23 66.22 -31.36 64.22 -33.37 62.25 -35.28 60.26 -37.06 58.26 -38.73 56.27 -40.28 54.28 -41.74 52.29 -43.05 50.32 -44.28 48.34 -45.39 46.37 -46.39 44.41 -47.27 42.46 -48.06 40.54 -48.75 38.6 -49.32 36.68 -49.8 34.78 -50.16 32.87 -50.47 31.01 0 0zm0 0c-62.01,36.87 -142.18,16.48 -179.05,-45.53 -36.87,-62.01 -16.48,-142.18 45.53,-179.05l133.52 224.58zm-2313.47 -24.96l123.12 -230.46 0 0 63.13 32.71 63.59 30.88 63.98 29.05 64.34 27.17 64.67 25.28 64.97 23.37 65.2 21.43 65.4 19.48 65.56 17.48 65.71 15.48 65.79 13.47 65.84 11.4 65.86 9.34 65.84 7.25 65.79 5.14 65.71 3.01 65.58 0.85 65.43 -1.32 65.26 -3.52 65.03 -5.74 64.8 -7.98 64.53 -10.25 64.24 -12.54 63.91 -14.86 63.56 -17.2 63.2 -19.57 62.8 -21.97 62.37 -24.4 61.9 -26.86 61.45 -29.37 60.96 -31.9 60.43 -34.47 133.52 224.58 -68.61 39.13 -69.34 36.3 -70.03 33.47 -70.66 30.66 -71.23 27.86 -71.74 25.11 -72.22 22.37 -72.64 19.66 -73.01 16.96 -73.32 14.32 -73.59 11.69 -73.82 9.1 -73.97 6.52 -74.1 4 -74.17 1.5 -74.2 -0.97 -74.17 -3.39 -74.13 -5.78 -74.02 -8.15 -73.86 -10.48 -73.68 -12.76 -73.45 -15.03 -73.19 -17.24 -72.88 -19.44 -72.54 -21.6 -72.14 -23.71 -71.73 -25.81 -71.27 -27.86 -70.78 -29.89 -70.24 -31.89 -69.67 -33.84 -69.07 -35.77 0 0zm0 0c-63.63,-33.99 -87.66,-113.16 -53.67,-176.79 33.99,-63.63 113.16,-87.66 176.79,-53.67l-123.12 230.46zm-1487.68 -1474.22l174.96 194.06 27.79 -158.51 16.59 29.22 19.9 31.55 23.08 33.57 26.11 35.34 28.98 36.86 31.66 38.17 34.17 39.29 36.56 40.27 38.77 41.08 40.8 41.75 42.7 42.29 44.45 42.68 46.03 42.97 47.48 43.13 48.76 43.16 49.91 43.07 50.9 42.88 51.73 42.55 52.45 42.12 52.99 41.58 53.39 40.91 53.65 40.13 53.75 39.24 53.7 38.24 53.52 37.12 53.17 35.9 52.66 34.56 52.01 33.09 51.18 31.52 50.21 29.84 49.05 28.02 47.74 26.11 -123.12 230.46 -52.16 -28.53 -53.09 -30.34 -53.89 -32.02 -54.58 -33.6 -55.17 -35.11 -55.62 -36.5 -55.97 -37.78 -56.18 -38.98 -56.28 -40.06 -56.23 -41.06 -56.07 -41.95 -55.77 -42.73 -55.35 -43.42 -54.77 -44 -54.11 -44.49 -53.26 -44.88 -52.33 -45.15 -51.24 -45.36 -50.04 -45.45 -48.69 -45.45 -47.21 -45.36 -45.64 -45.19 -43.9 -44.91 -42.05 -44.58 -40.1 -44.17 -38.01 -43.69 -35.8 -43.17 -33.48 -42.6 -31.07 -42.04 -28.52 -41.51 -25.84 -41.01 -23.05 -40.62 27.79 -158.51zm-27.79 158.51c-33.95,-63.66 -9.87,-142.8 53.79,-176.75 63.66,-33.95 142.8,-9.87 176.75,53.79l-230.54 122.96zm1547.52 -3086.14l259.26 32.38 0 0 -13.98 94.34 -18.57 97.27 -22.88 99.98 -26.93 102.45 -30.76 104.72 -34.35 106.69 -37.72 108.41 -40.87 109.83 -43.8 110.97 -46.51 111.82 -49.02 112.35 -51.3 112.59 -53.38 112.5 -55.23 112.11 -56.88 111.41 -58.32 110.38 -59.54 109.03 -60.54 107.37 -61.36 105.41 -61.95 103.1 -62.34 100.51 -62.52 97.56 -62.5 94.34 -62.29 90.78 -61.88 86.93 -61.28 82.78 -60.54 78.33 -59.61 73.59 -58.54 68.57 -57.41 63.33 -56.2 57.8 -55.03 52.06 -174.96 -194.06 46.33 -43.84 49.26 -50.68 51.75 -57.09 53.86 -63.09 55.61 -68.65 57.06 -73.85 58.24 -78.66 59.16 -83.11 59.81 -87.18 60.24 -90.92 60.42 -94.28 60.34 -97.29 60.07 -99.98 59.54 -102.29 58.8 -104.27 57.82 -105.89 56.64 -107.18 55.2 -108.11 53.55 -108.71 51.68 -108.94 49.6 -108.83 47.28 -108.37 44.73 -107.54 41.98 -106.37 39.01 -104.81 35.8 -102.89 32.39 -100.59 28.76 -97.9 24.93 -94.81 20.9 -91.28 16.67 -87.31 12.3 -82.92 0 0zm0 0c8.94,-71.59 74.23,-122.38 145.82,-113.44 71.59,8.94 122.38,74.23 113.44,145.82l-259.26 -32.38zm-4041.62 -29.45l-259.08 33.8 0 0 -24.62 -306.67 7.29 -289.15 37.51 -271.13 65.83 -252.63 92.17 -233.59 116.33 -214 138.17 -193.93 157.63 -173.58 174.67 -153.05 189.37 -132.48 201.79 -111.97 212 -91.56 220.09 -71.23 226.14 -51.02 230.14 -30.85 232.17 -10.71 232.22 9.47 230.28 29.67 226.35 50.01 220.4 70.47 212.36 91.11 202.2 111.9 189.81 132.88 175.13 153.95 158.06 175.03 138.59 196 116.75 216.67 92.6 236.96 66.33 256.75 38.06 276.08 7.98 295.04 -23.84 313.59 -259.26 -32.38 21.92 -288.07 -7.24 -267.22 -34.04 -246.84 -58.63 -226.91 -81.12 -207.52 -101.69 -188.67 -120.47 -170.3 -137.56 -152.27 -152.99 -134.45 -166.75 -116.68 -178.72 -98.88 -188.84 -80.99 -197.04 -62.97 -203.25 -44.89 -207.4 -26.73 -209.5 -8.53 -209.49 9.67 -207.4 27.79 -203.24 45.84 -197.03 63.75 -188.8 81.5 -178.63 99.09 -166.59 116.52 -152.77 133.79 -137.23 151.06 -120.03 168.41 -101.15 186 -80.51 203.99 -57.99 222.45 -33.39 241.37 -6.59 260.73 22.54 280.51 0 0zm0 0c9.33,71.54 -41.1,137.11 -112.64,146.44 -71.54,9.33 -137.11,-41.1 -146.44,-112.64l259.08 -33.8zm613.41 1642.21l-223.14 135.92 0.01 0.01 -25.94 -43.14 -25.97 -44.32 -25.96 -45.47 -25.92 -46.58 -25.81 -47.61 -25.71 -48.62 -25.54 -49.58 -25.35 -50.51 -25.1 -51.39 -24.82 -52.19 -24.5 -52.99 -24.15 -53.7 -23.76 -54.41 -23.3 -55.04 -22.84 -55.63 -22.31 -56.2 -21.74 -56.67 -21.16 -57.16 -20.51 -57.56 -19.82 -57.92 -19.1 -58.25 -18.33 -58.54 -17.52 -58.76 -16.68 -58.94 -15.77 -59.09 -14.84 -59.2 -13.87 -59.25 -12.83 -59.27 -11.77 -59.24 -10.65 -59.17 -9.5 -59.04 -8.29 -58.9 259.08 -33.8 7.57 53.72 8.7 54.12 9.81 54.45 10.87 54.74 11.91 54.97 12.89 55.13 13.86 55.26 14.77 55.31 15.64 55.32 16.48 55.28 17.27 55.14 18.04 54.99 18.76 54.8 19.41 54.52 20.06 54.18 20.66 53.83 21.19 53.38 21.72 52.91 22.18 52.38 22.6 51.77 22.99 51.14 23.34 50.45 23.62 49.69 23.9 48.89 24.09 48.03 24.28 47.12 24.41 46.18 24.49 45.15 24.52 44.08 24.52 42.95 24.47 41.78 24.38 40.54 0.01 0.01zm-0.01 -0.01c37.53,61.61 18.02,142 -43.59,179.53 -61.61,37.53 -142,18.02 -179.53,-43.59l223.12 -135.94zm465.4 724.17l-216.08 146.9 0 0 -15.4 -22.69 -15.24 -22.52 -15.12 -22.41 -14.99 -22.28 -14.85 -22.16 -14.76 -22.07 -14.67 -22.04 -14.58 -21.97 -14.51 -21.93 -14.43 -21.91 -14.39 -21.91 -14.36 -21.96 -14.3 -21.96 -14.32 -22.04 -14.27 -22.1 -14.3 -22.18 -14.31 -22.31 -14.32 -22.39 -14.37 -22.56 -14.41 -22.71 -14.47 -22.87 -14.55 -23.1 -14.6 -23.27 -14.71 -23.5 -14.8 -23.76 -14.92 -24 -15.05 -24.3 -15.17 -24.59 -15.32 -24.89 -15.48 -25.23 -15.66 -25.58 -15.82 -25.95 223.14 -135.92 15.66 25.67 15.46 25.28 15.3 24.93 15.14 24.61 14.99 24.27 14.83 23.96 14.72 23.68 14.6 23.42 14.49 23.16 14.4 22.95 14.29 22.68 14.25 22.53 14.17 22.35 14.13 22.16 14.1 22.07 14.05 21.89 14.06 21.82 14.05 21.72 14.04 21.64 14.08 21.6 14.1 21.56 14.15 21.55 14.21 21.57 14.25 21.57 14.34 21.61 14.43 21.66 14.54 21.75 14.65 21.86 14.75 21.94 14.9 22.07 15.06 22.24 15.2 22.39 0 0zm0 0c40.56,59.66 25.07,140.93 -34.59,181.49 -59.66,40.56 -140.93,25.07 -181.49,-34.59l216.08 -146.9zm473.96 890.05l-181.44 -188 -30.45 142.84 -10.6 -25.48 -10.87 -24.62 -11.17 -23.82 -11.48 -23.16 -11.75 -22.49 -12.05 -21.94 -12.35 -21.44 -12.61 -20.96 -12.94 -20.6 -13.23 -20.29 -13.53 -20.01 -13.84 -19.82 -14.17 -19.7 -14.44 -19.58 -14.76 -19.53 -15.08 -19.57 -15.35 -19.63 -15.65 -19.73 -15.96 -19.94 -16.21 -20.13 -16.47 -20.38 -16.72 -20.71 -16.95 -21.06 -17.18 -21.48 -17.38 -21.94 -17.54 -22.42 -17.7 -22.96 -17.86 -23.57 -17.96 -24.2 -18.06 -24.89 -18.12 -25.59 -18.17 -26.35 216.08 -146.9 16.27 23.61 16.3 23.01 16.34 22.51 16.38 22.06 16.4 21.67 16.46 21.34 16.48 21.08 16.5 20.82 16.54 20.68 16.57 20.58 16.58 20.53 16.59 20.54 16.57 20.59 16.56 20.68 16.55 20.87 16.51 21.09 16.42 21.33 16.38 21.69 16.28 22.06 16.13 22.44 16.02 22.92 15.85 23.45 15.65 23.99 15.44 24.6 15.21 25.26 14.91 25.92 14.63 26.62 14.31 27.41 13.96 28.18 13.61 29.04 13.21 29.88 12.8 30.76 -30.45 142.84zm30.45 -142.84c26.97,66.92 -5.41,143.04 -72.33,170.01 -66.92,26.97 -143.04,-5.41 -170.01,-72.33l242.34 -97.68zm433.06 598.25l0 0 0 0 0 0 0 0 0 0 0 0 0 0 0 0 0 0 0 0 0 0 0 0 0 0 0 0 0 0 0 0 0 0 0 0 0 0 0 0 0 0z"/>
   </g>
   <path class="fil2" d="M10950.48 16836.73c-664.59,545.5 -1548.42,272.75 -1541.34,-553.26 6.77,-786.5 873.31,-1099.04 1565.49,-552.97l-24.15 1106.23zm34.6 784.34l-20.17 997.19c-691.69,387.87 -1088.39,368.93 -1685.83,-215.16l-544.9 356.36c383.46,1021.37 2213.64,1214.48 2835.69,182.71 380.63,-631.33 186.92,-3201.87 195.28,-4138.06 -563.6,-8.91 -615.26,-78.86 -826.95,146.39 -1015.77,-582.57 -2263.3,82.33 -2311.48,1238.86 -28.77,690.9 269.87,1107.48 655.21,1383.42 609.82,436.68 1072.47,275.23 1703.15,48.29z"/>
   <path class="fil2" d="M16115.74 15822.81c621.93,-585.24 1529.61,-235.93 1530.24,552.68 0.65,812.04 -878.27,1104.17 -1554.25,609.62l24.01 -1162.3zm-815.5 2015.09c464.16,74.18 485.58,63.6 891.85,-97.27 1124.81,669.45 2306.39,-277.56 2241.57,-1459.95 -64.8,-1181.85 -1244.03,-1791.39 -2336.13,-1212.78l-34.8 -1575.57 -726.51 -9.28 -35.98 4354.85z"/>
   <path class="fil2" d="M12089.79 17876.28l785.3 -9.79 -0.6 -2043.71c341.44,-301.36 423.95,-370.86 995.95,-244.37 352.18,482.69 255.76,1492.69 229.48,2256.46l791.36 44.18c-35.66,-1731.47 460.9,-3651.22 -2066.9,-2816.38l-1.18 -1583.64 -735.81 -8.07 2.4 4405.32z"/>
   <path class="fil2" d="M3930.82 16560.19c0,529.69 -219,743.76 -827.16,664.2 -1382.97,-180.93 -649.17,-2475.02 821.2,-1412.92l5.96 748.72zm-73.26 1132.75c249.81,281.51 399.55,176.52 860.94,186.66l-9.88 -2985.98c-435.78,-0.15 -576.48,-58.08 -867.23,177.83 -399.19,-361.06 -1086.53,-294.44 -1530.97,-43.24 -415.67,234.97 -739.39,690.87 -746.55,1345.59 -13.36,1223.1 1324.63,2024.44 2293.69,1319.14z"/>
   <path class="fil2" d="M7349.35 15083.13c-241.19,-189.95 -502.05,-217.41 -890.86,-149.9l2.17 2899.34 799.31 58.27 -3.69 -2068.03c366.71,-318.29 439.19,-339.35 1047.05,-266.01l-22.44 -716.9c-471.61,-26.33 -677.26,-30.04 -931.54,243.23z"/>
   <polygon class="fil2" points="5189.61,17873.62 5985.6,17875.76 5982.7,14892.71 5198.44,14898.46 "/>
   <path class="fil2" d="M5278.24 13510.33c-401.51,637.99 -92.02,1204.55 575.86,929.55 304.42,-125.33 594.93,-1068.47 -575.86,-929.55z"/>
  </g>
 </g>
</svg>
