<?xml version="1.0" encoding="UTF-8"?>
<!DOCTYPE svg PUBLIC "-//W3C//DTD SVG 1.1//EN" "http://www.w3.org/Graphics/SVG/1.1/DTD/svg11.dtd">
<!-- Creator: CorelDRAW 2017 -->
<svg xmlns="http://www.w3.org/2000/svg" xml:space="preserve" width="200mm" height="200mm" version="1.1" style="shape-rendering:geometricPrecision; text-rendering:geometricPrecision; image-rendering:optimizeQuality; fill-rule:evenodd; clip-rule:evenodd"
viewBox="0 0 20000 20000"
 xmlns:xlink="http://www.w3.org/1999/xlink">
 <defs>
  <style type="text/css">
   <![CDATA[
    .fil0 {fill:black}
   ]]>
  </style>
 </defs>
 <g id="Capa_x0020_1">
  <metadata id="CorelCorpID_0Corel-Layer"/>
  <path class="fil0" d="M1552.79 11617.99c312.4,0 735.44,69.56 759.59,-446.15 17.41,-371.92 -136.15,-935.47 27.6,-1156.42 110.64,-149.28 344.25,-245.81 534.29,-271.06 426.15,-56.63 509.93,18.98 799.06,86.39 -84.98,177.26 -66.9,599.05 -66.57,871.98 0.18,151.29 -32.97,304.78 -18.08,395.68 11.39,69.52 98.41,298.17 143.94,348.53 73.16,80.89 111.19,42.82 336.18,132.68 108.68,43.4 307.84,40.57 384.33,24.71 447.56,-92.8 269.3,-246.78 269.3,-544.85 0,-75.76 87.4,-309.88 107.56,-383.84l244 -1230.26c57.23,-286.41 115.13,-524.88 171.01,-811.83 77.46,-397.75 218.73,-492.46 187.59,-806.82 -82.64,-834.18 25.63,-1012.33 112.48,-1797.11l47.9 -2007.38c0,-1071.28 -872.06,-1127.23 -1609.94,-1359.97 -462.9,-146.01 -515.54,-64.66 -893.3,217.36 -81.39,60.77 -144.57,115.05 -223.26,178.68 -225.07,182.02 -493.75,365.02 -632.56,617.97 -58.55,106.69 -64.98,164.07 -138.78,263.23 -135.63,182.23 -138.91,213.71 -226.27,399.07 -21.95,46.57 -39.71,86.02 -60.97,140.04 -144.82,368.06 -287.64,482.67 -408.65,842.07 -103.99,308.87 -175.34,821.34 -340.52,1312.38 -141.37,420.29 -169.63,886.61 -233.12,1352.85l-127.63 1470.1c-14.52,362.86 -96.96,1631.44 270.23,1920.46 53.56,42.16 189.46,123.89 249.71,152.21 89.45,42.05 204.91,89.3 334.88,89.3zm15327.26 -2674.07c0,591.55 -59.61,332.19 -121.94,675.55l-170.24 1584.35c0,576.33 284.3,723.72 754.19,840.31 236.31,58.64 412.62,94.81 679.42,117.55 242.58,20.67 779.62,45.24 566.89,353.27 -49.53,71.72 -74.64,39.79 -150.17,88.97 -110.11,71.7 -80.55,194.5 -119.94,331.92 -126.71,442.04 -308.54,820.45 -106.17,1348.13 110.26,287.51 9.06,146.2 162.62,342.38 107.14,136.87 -10.56,175.99 114.61,230.91 171.76,75.35 241.33,-78.6 471.07,193.16 35.78,42.33 55.16,55.2 90.27,95.76 225.85,260.91 66.26,720.71 -41.8,1006.69 -46.83,123.95 -69.71,231.61 -126.23,352.22 -102.08,217.83 -130.09,92.8 -302.62,175.66 -11.37,-136.85 -80.38,-225.82 -80.6,-504.24 -0.16,-211.7 14.88,-411.74 -25.64,-585.83l-212.5 0c-57.21,108.22 -134.23,410.27 -160.38,558.03 -38.8,219.24 12.93,393.51 56.35,609.58 113.12,562.98 -17.38,392.79 279.51,438.08 271.13,41.36 860.09,878.9 1234.02,-939.29 20.38,-99.11 53.92,-210.13 70.98,-301.18 22.7,-121.18 47.81,-258.44 60.11,-396.42l0 -301.6c-18.52,-160.44 -73.43,-304.79 -193.06,-404.5 -491.67,-409.78 -922.54,-241.02 -922.54,-911.1 0,-340.44 -14.8,-724.78 292.18,-930.55 140.63,94.26 100.6,164.41 292.18,265.88 -90.49,388.78 -159.37,102.37 -159.37,558.32 0,140.84 74.31,227.78 212.5,239.29 76.16,-144.08 77.75,-290.04 78.77,-506.07 1.98,-419.62 171.9,-312.3 11.87,-781.08 -38.76,-113.53 -45.09,-124.14 -122.33,-196.6 -116.26,-109.05 -348.22,-152.05 -499.55,-164.65 99.08,-425.7 791.82,-699.71 84.43,-1227.76 -62.16,-46.4 -97.09,-58.31 -184.41,-81.28 -743.83,-195.69 -696.88,37.52 -696.88,-817.92 0,-153.24 18.59,-332.17 55.45,-449.65 169.1,-538.92 122.91,-848.66 191.22,-1377.25 46.93,-363.21 27.75,-488.17 46.92,-724.05 43.95,-540.99 54.48,-1074.28 218.27,-1589.45 72.44,-227.86 112.56,-649.38 144.96,-891.79l33.92 -497.79c8.81,-163.25 -5.92,-341.35 -1,-506.15l53.99 -1514.6c0,-296.09 -68.2,-473.33 -232.23,-618.33 -162.71,-143.84 -343.29,-205.87 -644.31,-205.87 -24.81,106.6 -62.55,133.9 -109.03,369.43 -25.2,127.66 -53.8,310.32 -69.38,435.72 -99.81,803.58 -23.45,891.96 -246.61,1773.77 -67.76,267.75 -96.2,567.66 -140.48,869.7l-356.95 2673.62c-27.67,144.51 -63.15,293.98 -80.89,425.44 -18.98,140.73 20.55,295.14 20.55,471.31zm-13059.58 3558.58c-97.51,462.81 -93.17,2375.96 -59.48,3001.89 16.42,305.1 65.99,705.36 35.06,1003.04 -27.78,267.33 -147.14,632.85 -77.05,893.35 27.66,102.8 166.79,206.42 277.71,239.73 227.18,68.22 263.46,-54.35 275,-235.2 16.35,-256.31 51.14,-749.02 6.2,-988.43 -34.13,-181.81 -134.89,-154.6 -83.61,-414.16 35.39,-179.11 189.2,-189.86 371.88,-158.15 31.75,44.6 200.5,433.29 220.04,491.53 92.71,276.27 225.93,1099.17 627.41,1202.7 388.76,100.24 293.53,-189.16 256.69,-715.24 -28.34,-404.61 -25.87,-296.54 -256.42,-491.78 -222.45,-188.38 -362.49,-666.97 -490.87,-982.38 -363.2,-892.32 268.12,-620.95 607.39,-1359.47 224.41,-488.51 168.51,-1280.64 -465.35,-1508.12 -365.99,-131.35 -908.47,-172.03 -1244.6,20.69zm-1831.3 642.87c-683.38,152.49 -1148.55,1808.53 -269.68,1476.5 329.66,-124.54 574.18,-371.52 698.55,-686.14 146.58,-370.79 57.87,-898.98 -428.87,-790.36zm2448.9 571.03c288.23,37.02 319.6,-66.01 438.51,-224.13 203.95,-271.2 281.81,-580 -220.57,-534.34 -150.91,13.71 -185.35,0.59 -209.01,123.76 -43.53,226.61 -35.87,408.47 -8.93,634.71zm-3095.16 1743.62c698.35,-8.75 1070.31,-3.72 1637.33,-603.4 155.29,-164.24 392.38,-347.55 492.33,-624.56 293.19,-812.56 -939.98,-1503.65 -1693.49,-1609.79 -728.79,-102.66 -1099.83,396.22 -1298.4,916.59 -153.36,401.89 -229.99,1017.64 -185.79,1466.05 21.02,213.29 52.44,261.24 118.79,434.25 123.86,322.96 -49.45,603.64 -129.74,896.49 -116.02,423.19 -91.95,572.21 -56.85,1004.19 23.87,293.87 -107.93,881.77 354.34,701.53 696.95,-271.73 693.88,-903.8 653.95,-1589.13 -25.89,-444.19 -39.12,-618.61 107.53,-992.22zm4808.09 2155.9c0,12.31 -0.99,42.91 1.89,51.73 18.88,57.85 -4.13,12.64 26.43,49.28 -8.68,-139.2 -4.55,-34.82 16.33,-65.87l208.98 214.48c82.13,78.27 185.21,129.34 307.77,56.39 183.74,-109.35 180.67,-405.99 187.38,-673.62 14.26,-569.19 -14.41,-1140.67 52.47,-1701.05 87.6,-733.89 141.5,-712.52 150.3,-1583.52 2.85,-281.98 4.65,-573.53 -16.28,-848.56 -25.57,-335.79 -178.66,-415.16 -506.93,-375.94 -21.66,114.09 -55.29,347.53 -3.46,462.8 34.13,75.9 222.43,170.03 115.43,386.44 -22.77,46.06 -110.99,136.5 -155.31,201.89 -180.06,265.73 -213.99,814.99 -223.1,1178.67 -11.01,439.09 -119.14,831.6 -132.34,1272.9 -7.21,240.88 43.42,1235.39 -29.56,1373.98zm9051.46 235.05c-25.28,-723.36 -1012.17,376.2 -842.14,-1318.46 7.42,-73.96 8.04,-218.1 53.48,-265.77 207.06,-167.9 542.3,-16.03 601.54,-359.39 -234.13,-277.89 -448.18,115.72 -530.73,-520.19 -48.07,-370.28 -160.21,-1682.66 -49.54,-1979.8 85.38,-229.22 604.21,-293.22 746.41,-325.13l67.15 -288.01c-314.61,-62.68 -596.67,-121.37 -917.94,-26.48 -589.13,174 -319.14,741.63 -424.46,1116.61 -40.28,143.41 -121.76,253.31 -151.24,382.88 -53.81,236.51 -62.28,1736.86 -57.85,2064.59 2.29,169.63 11.37,342.02 30.25,507.03 20.04,175.07 81.39,286.68 102.25,430.09 69.32,476.46 -127.06,555.21 410.17,640.84 201.5,32.12 683.33,72.82 881.05,5.53 128.84,-43.84 45.12,5.62 81.6,-64.34zm-3578.66 -12130.86c-37.57,50.15 -26.37,142.42 -26.37,201.07l-89.29 0c19.07,51.16 -4.81,31.63 44.65,49.9 102.74,-52.58 29.39,0.1 56.98,17.12 -14.43,530.62 -258.52,1047.08 -317.94,1588.14 -32.29,294.05 -40.66,589.92 -86.97,882.51 -47.23,298.46 -93.93,539.08 -104.04,858.06 -86.05,2716.69 317.66,1778.4 721.18,2143.59 107.77,97.53 133.02,105.96 354.86,114.33 146.69,5.54 332.65,1.86 477.72,-15.81 95.31,-543.82 -190.64,-1416.77 177.04,-1542.68 232.5,-79.61 247.61,-112.8 443.33,-159.52 208.79,-49.84 516.62,-118.8 733.19,-68.01 202.64,720.88 -592.18,1674.22 625.29,1665.19 321.66,-2.39 353.44,-135.47 432.89,-408.41 60.99,-209.54 125.94,-425.17 173.38,-650.89 52.73,-250.93 51.63,-486.82 114.79,-736.22 145.7,-575.37 137.16,-761.73 323.14,-1351.63 71.75,-227.59 82.53,-480.84 98.37,-733.36 16.12,-257.25 76.47,-487.92 103.86,-739.64 58.49,-537.68 43.46,-1079.35 42.76,-1627.57 -0.9,-705.61 220.46,-1298.72 -121.31,-1817.1 -92.18,-139.81 -297.42,-320.57 -425.66,-422.71 -69.8,-55.59 -178.39,-128.89 -219.6,-195.3l-30.78 0c-45.21,49.83 18.99,26.99 -90.55,29.25l-277.49 -63.83c-131.22,-36.38 -225.88,-55.99 -369,-59.09 -683.68,-14.84 -736.51,-22.57 -1004.37,318.57 -166.24,211.74 -287.75,195.23 -626.44,646 -450.81,600 -659.83,971.07 -898.62,1691.74 -73.69,222.38 -122.25,570.66 -243.1,603.71 -22.62,-101.52 -12.44,-117.87 8.1,-217.41zm1287.95 2591.49c-0.23,116.38 10.46,221.13 65.2,297.13 314.81,107.72 679.62,-233.19 779.08,-223.83 196.26,18.45 578.36,353.87 578.36,-341.38 0,-896.11 115.32,-2033.43 183.37,-2971.17 16.29,-224.47 309.01,-1083.27 -13.65,-936.13 -261.15,119.09 -1011.15,1757.88 -1129.99,2066.56 -121.58,315.79 -161.55,687.29 -236.59,1035.4 -72.06,334.36 -225.09,720.51 -225.78,1073.42zm3184.27 6702.14l-11.99 32.5c126.98,-75.14 128.58,137.14 149.62,242.22 186.32,76.56 345.23,-40.54 548.05,233.44 156.76,211.78 248.98,217.45 154.1,567.91 -78.11,288.55 -8.4,347.47 -158.42,645.85 -126.86,252.3 -77.7,390.33 -407.75,404.83 -198.72,-659.54 -3.75,-662.38 -111.61,-1070.93l-215.82 -1.47c-175.31,644.79 -215.69,606.84 -78.79,1143.47 36.19,141.84 27.16,286.25 60.18,406.13 382.11,55.36 272.75,9.53 443.05,140.93 531.94,410.41 763.84,-259.92 891.01,-666.11 91.93,-293.6 166.56,-657.07 205.38,-982.48 67.22,-563.48 39.93,-660.28 -280.16,-866.33 -119.17,-76.72 -223.2,-159.58 -359.47,-221.48 -170.17,-77.29 -289.91,-102.57 -372.74,-229.91 -125.47,-192.9 -100.2,-803.23 -21.13,-1030.6 155.41,-446.86 616.8,-399.55 541.5,-16.23 -37.73,192.05 -183.76,267 -173.38,408.76 13.49,184.07 30.22,401.74 225.44,357.95 73.29,-155.38 38.6,-465.82 76.65,-660.27 39.36,-201.05 120.17,-270.58 -0.46,-601.96 -63.67,-174.9 -199.78,-306.3 -423.14,-312.31 -189.61,-5.1 -472.76,72.57 -594.71,158.87 -57.17,491.22 -378.51,828.14 -226.21,1465.4 39.31,164.47 113.29,280.96 140.8,451.82zm-4964.52 2814.89c245.05,21.56 335.91,279.36 787.33,165.35l584.9 -196.55c67.82,-22.56 163.61,-27.08 209.77,-63.81 -51.61,-8.77 -14.95,17.27 -42.35,-18.63l284.31 -381.31c89.56,-135.9 154.76,-290.63 207.51,-463.44 323.04,-1058.35 -259.96,-1449.39 -486.18,-1021.4 -173.45,328.15 -17.86,1110.18 -387.4,1610.7 -173.16,-28.75 -291.86,-144.64 -403.56,-232l-345.32 -274.07c-7.39,-960.75 -293.66,-3000.58 278.72,-3612.62 613.34,47.8 317.68,704.7 528.44,944.33 118.63,134.87 401.2,89.91 472.56,-102.48 153.62,-414.18 -15.82,-1370.02 -627.96,-1482.06 -285.78,-52.3 -944.91,208.42 -1095.4,337.79 -550.41,473.19 -495.18,1655.74 -518.12,2436.55 -25.86,880.46 -113.25,1480.33 423.7,2122.48 55.73,66.65 109.04,128.53 129.05,231.17zm-2949.25 245.75c87.18,0 165.84,-17.13 223.22,-44.68 124.6,-124.72 40.19,-1145.36 43.51,-1363.29 3.5,-229.45 48.96,-463.57 52.57,-717.7 3.38,-236.65 -91.19,-525.99 216.42,-532.85 2.15,96.86 317.45,1099.85 342.58,1176.28 82.09,249.63 131.5,169.95 195.88,563.53 65.91,402.97 269.34,382.54 555.29,382.54 198.59,0 182.92,-270.75 204.92,-465.12 28.7,-253.61 52.55,-1040.46 25.86,-1252.25 -87.87,-697.48 203.33,-1713.07 54.19,-2343.39 -39.72,-167.91 -111.7,-289.5 -128.72,-362.65 -430.2,0 -493.19,43.52 -490.96,737.41 0.52,160.3 -20.46,648.56 -53.75,817.42 -24.07,122.14 -58.1,137.06 -80.29,232.4l-338.33 -622.03c-64.27,-159.68 -203.49,-523.36 -219.71,-718.39 -289.64,-6.46 -134.85,-289.6 -420.48,-673.85 -944.56,-1270.67 -810.5,3044.26 -758.33,3616.21 6.57,72.09 37.02,336.97 41.15,474.99 13.37,447.48 -77.12,1095.42 534.98,1095.42zm631.7 -7997.88c-7.97,185.68 89.07,398.61 162.54,590.2 39.68,103.48 59.3,203.5 105.56,296.47 45.24,90.89 117.03,171.08 171.63,252.69 80.21,0 124.32,-10.56 154.11,-14.35l703.45 -45.67c201,-23.05 45.89,-152.71 146.9,-474.27 -33.8,-16.14 -24.92,28.67 -24.61,-46.56 0,-490.69 54.5,-960.48 46.65,-1452.31 -2.46,-153.88 -66.35,-564.96 -18.94,-666.49 102.17,-218.8 100.49,-1178.89 35.24,-1405.1 -210.71,-730.53 339.46,-1071.49 87.63,-2679.39 -131.63,-840.45 -796.12,-961.18 -840.45,-498.92 -10.93,113.92 -24.94,227.1 -37.9,343.32 -24.55,220.15 -50.54,442.55 -74.78,661.67 -28,253.06 -89.07,379.95 -89.11,670.61 -0.06,385.43 43.15,1078.42 -101.87,1392.35l-181.23 7.74c-48.65,-78.9 -81.16,-231.46 -132.81,-334.66 -56.63,-113.13 -123.54,-199.39 -173.19,-317.8 -114.07,-272.05 -129.84,-490.63 -195.68,-786.81 -50.08,-225.26 -211.5,-452.61 -301.01,-660.11 -46.61,-108.03 -94.96,-243.67 -149.22,-342.08 -73.87,-134 -174.3,-111.9 -166.27,-321.39 -9.81,-117.62 9.71,-34.78 -44.17,-67.02l-302.28 -572.86c-52.7,-137.18 -9.8,-260.99 -140.95,-328.61 -105.79,-54.55 -189.84,-112.01 -207.2,-237.89l-23.56 -8.29c-197.99,43.48 -421.44,-78.73 -602.68,31.33 -46.28,94.41 -28.66,413.63 -75.89,571.46 -49.69,166.06 -111.2,319.81 -154.38,492.56 -123.66,494.75 -138.87,3225.93 -126.22,3760.81 19.71,832.97 87.91,1649.16 108.94,2479.79 7.42,292.88 -37.84,1041.53 31.29,1265.09 104.03,336.43 660.78,316.39 1019.83,302.54 243.15,-105.76 182.77,-834.61 187.82,-1143.16l50.95 -2633c4.05,-215.76 -9.09,-434.62 -6.13,-651.18 4.2,-306.95 83,-327.43 160.86,-525.87 267.88,52.41 376.13,309.5 412.76,614.72 37.51,312.45 184.85,909.86 327.29,1190.34 71.45,140.72 78.88,247.77 90.37,418.65 22.81,339.01 156.59,582.02 166.71,871.45zm-6278.66 -1410.63c298.78,17.11 410.07,-63.53 680.56,-93.89 223.29,-25.06 490.79,-43.9 650.88,-155.52 179.89,-125.42 133.97,-412.81 117.08,-663.63 -17.36,-257.83 -28.59,-517.41 -16.74,-780.57 11.21,-248.87 80.98,-442.32 103.37,-672.74 25.17,-259.13 -6.65,-520.24 26.34,-782.29 38.62,-306.71 191.36,-1179.12 0.65,-1395.22 -95.88,95.07 -509.9,726.85 -645.05,907.66 -139.83,187.06 -20.49,164.73 -227.51,554.01 -90.02,169.25 -120.59,394.88 -187.8,594.32 -135.55,402.29 -244.89,780.62 -357.74,1206.4 -139.98,528.1 -314.08,647.98 -144.04,1281.47z"/>
 </g>
</svg>
