<?xml version="1.0" encoding="UTF-8"?>
<!DOCTYPE svg PUBLIC "-//W3C//DTD SVG 1.1//EN" "http://www.w3.org/Graphics/SVG/1.1/DTD/svg11.dtd">
<!-- Creator: CorelDRAW 2017 -->
<svg xmlns="http://www.w3.org/2000/svg" xml:space="preserve" width="200mm" height="200mm" version="1.1" style="shape-rendering:geometricPrecision; text-rendering:geometricPrecision; image-rendering:optimizeQuality; fill-rule:evenodd; clip-rule:evenodd"
viewBox="0 0 20000 20000"
 xmlns:xlink="http://www.w3.org/1999/xlink">
 <defs>
  <style type="text/css">
   <![CDATA[
    .fil0 {fill:#030303}
   ]]>
  </style>
 </defs>
 <g id="Capa_x0020_1">
  <metadata id="CorelCorpID_0Corel-Layer"/>
  <path class="fil0" d="M12521.7 11407.41c39.49,-105.8 375.79,-693.22 540.53,-757.23 194.07,-75.42 1107.62,-55.23 1356.47,-44.57 78.3,195.1 63.09,358.7 117.13,562.6 86.97,328.12 136,104.57 85.29,561.42 -783.15,293.91 -1707.29,127.06 -2099.42,-322.22zm1692.7 -2665.62l122.67 1391.11 -1027.17 16.37c141.68,-285.88 286.61,-480.59 437.39,-731.2 199.29,-331.22 229.87,-429.96 467.11,-676.28zm572.12 -70.52c240.46,85.91 232.97,115.88 387.43,241.72 240.21,195.7 162.6,62.64 338.05,321.08 246.68,363.39 381.03,309.19 381.9,893.09 -1032.35,150.11 -883.18,-92.37 -940.42,-334.52 -86.76,-367.02 -123.96,-753.82 -166.96,-1121.37zm-2761.73 1445.22c54.33,-1016 654.89,-1554.13 1617.68,-1575.86 -82.92,165.26 -191.23,251 -310.18,462.47 -96.23,171.07 -171.68,307.31 -287.82,490.69 -386.73,610.66 -472.38,641.52 -1019.68,622.7zm2116.62 -2706.65c-95.1,759.96 42.62,539.18 -683.77,637.79 -1870.8,253.96 -1782.69,1664.4 -2093.63,2053.78l-932.55 62.63c36.05,179.61 -66.25,-26.28 59.71,95.81l89.46 72.89c72.74,55.57 165.71,119.17 245.05,176.23 -92.46,115.25 -227.46,111.38 -349.01,236.46 345.09,140.53 635.79,52.85 1032.71,55.79 73.58,264.9 141.24,355.19 251.47,546.29 -127.51,140.75 -250.21,373.9 -381.71,553.91 -180.07,246.47 -331.64,316.22 -331.25,707.28 667.44,-208.95 416.16,-106.73 636.11,6.28 100.6,-288.36 96.3,-134.32 250.43,-337.33 90.31,-118.96 115.17,-251.61 208.22,-392.52 318.74,78.7 764.84,375.94 1159.57,449.69 632.31,118.15 950.02,-61.39 1475.86,-102.14l419.26 646.43 94.76 -294.1c5.21,-11.15 13.55,-32.54 25.04,-45.48 268.21,210.24 186.85,388.14 359.36,576.51 136.36,-305.32 0.79,-747.7 -52.53,-1064.38 -80.1,-475.72 133.81,-405.31 358.76,-758.88 165.35,-259.89 200.27,-664.48 519.63,-737.69 402.81,-92.35 833.95,46.65 1212.77,-105.52 -186.24,-120.38 -391.3,-64.91 -657.98,-124.01 -1095.95,-242.88 -464.19,119.4 -807.29,-866.07 -189.76,-545.07 -412.62,-675.85 -696.01,-862.77l-131.27 -108.54c-544.87,-475.12 -618.06,145.79 -764.06,-1199.33 -197.88,159.8 -3.89,130.9 -200.29,119.07l-316.82 1.92z"/>
  <path class="fil0" d="M2084.39 11407.41c311.32,-916.08 932.96,-893.38 1912.46,-794.33 74.29,223.79 218.58,893.66 179.44,1138.76 -846.45,216.61 -1429.73,197.34 -2091.9,-344.43zm1232.97 -1998.24c160.39,-291.74 242.65,-526.31 505.83,-658.64 17.85,323.72 93.27,1121.87 57.54,1388.15l-1004.54 2.24 441.17 -731.75zm1772.42 -175.63c192.14,322.83 365.81,359.81 363.48,920.35l-815.18 -38.61c-8.54,-14.45 -17.04,-34.59 -21.71,-45.45 -4.6,-10.71 -15.3,-31.92 -20.7,-45.16 -5.29,-12.99 -13.26,-30.58 -18.74,-45.03 -5.42,-14.3 -11.17,-30.51 -16.35,-45.42 -121.24,-348.65 -177.15,-901.27 -206.05,-1264.15 174.01,75.42 611.56,355.66 735.25,563.47zm-3502.27 886.56c51.66,-942.55 622.34,-1587.45 1619.35,-1574.89 -110.64,197.61 -180,218.71 -324.83,491.73 -445.29,839.42 -590.26,1090.99 -1294.52,1083.16zm2169.76 -2729.57c-103.2,162.65 -82.23,360.08 -134.03,591.73 -797.39,118.85 -1283.02,74.98 -1836.6,554.65 -603.15,522.62 -690.01,1281.91 -784.14,1430.78 -190.56,301.35 -581.34,138.4 -1002.5,206.52 29.76,130.97 125.13,186.69 409.86,307.26l-371.44 281.09c424.95,90.27 595.97,32.87 1038.5,40.6 78.18,296.42 107.89,290.39 250.19,544.35 -371.57,601.87 -733.4,827.58 -700.59,1250.81 226.25,-63.51 226.03,-5.96 446.29,-127.27 18.5,7.46 47.15,87.68 176.3,138.14 93.13,-236.88 128.75,-171.77 252.43,-344.73 89.56,-125.23 117.26,-255.22 219.26,-380.53 334.88,106.18 748.03,387.92 1155.46,455.12 122.11,20.15 632.24,31.65 760.92,24.74 256.81,-13.79 422.93,-118.97 719.03,-125.68 142.7,263.86 297.46,348.72 344.9,646.37 109.68,-142.96 79,-191.82 134.26,-345.56 298.31,137.2 230.7,373.81 414.7,594.61 67.05,-314.17 42.66,-503.58 -13.57,-815.45 -187.18,-1038.29 39.07,-262.35 664.7,-1744.86 440.08,-47.54 1083.46,65.62 1378.56,-166.9l-1307.03 -176.08c-72.12,-197.87 -88.64,-563.12 -154.89,-760.44 -320.31,-954.15 -1305.58,-1159.42 -1420.07,-1296.75 -101.59,-252.52 -148.13,-570.95 -170.27,-885.9 -228.84,167.51 -12.7,131.89 -195.93,122.96 -111.79,-5.45 96.64,-102.74 -274.3,-19.58z"/>
  <path class="fil0" d="M7361.37 13137.15l1233.24 10.08c-252.38,-806.21 -378.19,664.62 -378.06,-2159.08 0.02,-443.76 -75.19,-2329.1 32.89,-2549.11 184.11,570.12 661.93,2959.1 859.34,3846.8 151.57,681.58 -15.67,913.94 752.06,852.28 83.33,-779.89 18.18,-3801.96 17.35,-4965.09 -0.99,-1365.96 67.91,-711.6 351.67,-1316.25l-1233.15 -2.56c121.55,395.8 343.67,237.88 372.86,659.74 20.8,300.5 -2.45,705.83 -2.38,1018.47 0.15,669.16 20.09,1363.44 -6.52,2027.27l-843.34 -3706.21 -1156.28 7.74c229.48,560.58 353.9,-130.07 352.96,1371.72l-14.41 4364.56c-65.52,364.22 -248.07,268.38 -338.23,539.64z"/>
  <path class="fil0" d="M17739.51 13122.19l2238.86 28.03 21.63 -2226.79c-183.2,150.9 -359.96,867.46 -430.79,1082.84 -200.16,608.83 -67.39,754.37 -770.15,722.96l-6.2 -4676.03c-3.7,-1229.56 193.3,-601.82 394.27,-1203.41l-1446.11 4.94c115.87,352.57 282.53,207.29 369.56,498.53l2.79 5295.46c-70.73,267.81 -248.56,227.56 -373.86,473.47z"/>
 </g>
</svg>
