<?xml version="1.0" encoding="UTF-8"?>
<!DOCTYPE svg PUBLIC "-//W3C//DTD SVG 1.1//EN" "http://www.w3.org/Graphics/SVG/1.1/DTD/svg11.dtd">
<!-- Creator: CorelDRAW 2017 -->
<svg xmlns="http://www.w3.org/2000/svg" xml:space="preserve" width="200mm" height="200mm" version="1.1" style="shape-rendering:geometricPrecision; text-rendering:geometricPrecision; image-rendering:optimizeQuality; fill-rule:evenodd; clip-rule:evenodd"
viewBox="0 0 20000 20000"
 xmlns:xlink="http://www.w3.org/1999/xlink">
 <defs>
  <style type="text/css">
   <![CDATA[
    .fil0 {fill:#030303}
   ]]>
  </style>
 </defs>
 <g id="Capa_x0020_1">
  <metadata id="CorelCorpID_0Corel-Layer"/>
  <path class="fil0" d="M11005.61 16012.33c-197.39,-62.55 -355.26,-138.71 -667.72,-73.3l-107.28 39.9c226.21,187.37 630.65,-30.11 815.77,335.63 324.37,267.76 81.41,257.55 79.79,661.55 -35.75,18.43 -42.89,16.62 -86.72,44.32 -407.44,257.64 -750.08,624.95 -1106.72,262.14 -104.76,-106.57 -109.02,-297.04 -88.67,-486.07 220.51,14.77 102.7,41.58 254.55,89.11 21.49,224.71 -21.41,321.73 191.85,401.49 27.25,-128.12 39.95,-162.15 141.58,-242.02 130.9,65.48 90.51,96.7 238.69,116.62 -22.9,-347.5 -204.98,-164.93 78.25,-496.28 296.2,-346.55 0.46,-271.04 -235.68,-279.4 -77.49,-43.07 -27,-17.1 -147.15,-35.75 -47.61,156.52 12.4,100.59 -109.4,225.78l-93.52 140.2c-109.05,-13.81 -227.16,-16.2 -255.04,-111.43 -49.82,-170.2 -3.36,-88.91 40.44,-128.81l129.73 -53.13c60.39,-240.81 80.09,-57 118.3,-343.05 -409.48,0 -310.93,12.02 -463.3,208.87 -315.58,407.72 -49.07,441.5 -40.74,841.43 39.14,301.74 357.08,426.67 604.16,529.82 4.86,309.34 109.51,306.32 -35.06,597.94l-91.65 178.5c-279.49,431.89 -714.59,821.46 -1214.42,970.21 -551.85,164.22 -1468.55,300.33 -1867.26,-254.68 -56.47,-78.65 -96.99,-148.32 -171.98,-230.01 -73.54,-80.11 -150.51,-97.08 -121.1,-226.1 530.67,-32.05 404.5,33.22 656.07,-153.2 -1.7,-424.98 -492.66,-659.17 -827.89,-806.1 -311.21,-136.4 -570.88,-178.72 -888.79,-322.2l-289.8 -125.71c22.83,-107.61 5.92,-97.35 136.49,-180.32 5.7,-3.64 13.74,-9.17 19.76,-12.4l340.65 -128.29c208.49,-56.12 272.4,49.94 592.52,-216.68 256.79,-213.86 685,-578.69 476.51,-1083.11 -146.69,-354.91 -353.39,-310.94 -761.29,-345.65l562.9 -1345.04c40.06,-110 45.76,-225.88 83.21,-329.52 65.9,-182.36 232.77,-379.23 141.75,-587.01 -134.53,13.76 -121.15,60.55 -180.1,185.31l-390.51 789.46c-58.73,320.28 -306.51,669.32 -378.38,976.84 -26.46,113.19 -32.81,228.54 -58.1,362.42 -67.86,44.1 -86.5,71.43 -180.97,54.93 -42.17,-110.18 46.25,-270.21 42.53,-357.94 -12.7,-300.8 24.15,-61.5 -63.35,-167.13l-47.96 49.29c-50.42,76.83 0.93,-35.34 -45.15,81.61 -133.53,338.78 -198.09,509.84 -429.89,842.81l52.4 169.65c120.15,196.14 424.38,-131.14 579.76,-227.21 824.03,-509.49 965.16,104.57 554.71,418.85 -346.28,265.15 -731.2,382.12 -1122.47,556.38 -554.22,246.81 -561.33,286.3 -293.49,573.52 143.95,154.39 699.03,317.86 911.78,365.4 191.74,42.88 659.74,299.68 876.12,397.81 108.72,49.29 184.53,101.72 214.54,230.61 -172.07,150.27 -524.67,81.23 -800.89,109.29 -350.75,35.64 -512.1,-12.24 -809.9,102.26 43.29,298.46 385.19,388.88 612.43,543.15 160.86,109.2 359.98,207.34 488.59,353.33 183.79,208.56 -68.3,260.94 -251.38,175.5l-775.03 -431.43c-176,-119.98 -247.02,-248.3 -390.6,-412.9 -158.13,-181.3 -178.95,-389.62 -432.93,-371.46 -29.38,267.05 172.67,396.67 313.98,589.77 124.87,170.6 278.64,339.82 479.94,439.9 195.16,97.06 358.24,237.09 555.87,344.51 214.11,116.35 493.18,217.56 787.4,190.44 58.11,-131.78 236,-359.54 -100.85,-678.44 -56.53,-53.48 -12.19,-14.48 -76.64,-63.45l-491.58 -317.91c-9.77,-5.4 -105.16,5.79 -99.35,-144 777.19,-51.29 217.38,-159.26 990.02,639.13 451.41,466.45 710.78,481.25 1362.26,408.08 260.55,-29.26 489.71,-74.36 721.38,-160.37 348.03,-129.18 596.82,-221.87 851.66,-490.44l332.84 -309.01c88.42,-82.1 37.81,-0.92 71.24,-145.39 30.78,-133.06 51.13,-279.45 115.53,-369.53 96.76,37.78 169.92,178.82 234.36,266.59 91.02,123.97 79.68,211.15 183.76,321.34 79.33,83.97 175.84,160.66 279.72,224.3 135.3,82.89 129.71,129.24 294.91,203.36 282.6,126.79 433.38,292.78 622.49,383.97 336.91,162.49 1115.3,245.32 1505.63,162.54 235.46,-49.94 478.63,-224.34 718.46,-278.02 143.73,-32.16 90.3,-28.52 202.41,-67.58 1072.09,-373.24 881.73,-803.76 1099.45,-912.34 241.05,-120.26 836.38,317.48 1684.79,-1504.9 41.42,-88.93 131.93,-186.6 96.13,-290.87 -76.61,26.51 -271.02,294.19 -340.49,376.37l-174.21 197.16c-227.62,249.85 -646.73,828.84 -1003.86,847.22 -524.61,-800.56 693.17,-1435.74 299.35,-1736.77 -163.33,-129.43 -1087.3,178.28 -1387.59,-17.67 -28.69,-25.67 -92.77,-10.42 29.15,-178.33 144.43,-198.96 315.36,-337.95 542.62,-437.71 36.72,-16.12 62.4,-24.02 97.62,-38.94 7.66,-3.26 16.15,-7.16 23.78,-10.48l327.89 -147.5c205.99,-69.26 227.6,-129.08 107.24,-295.2 -147.7,-91.4 -1467.38,-23.31 -1467.22,-459.28 64.83,-30.62 94.12,-24.45 157.65,-63.92 128.15,-79.6 307.33,-185.17 476.46,-226.23 273.24,-66.33 551.42,-70.64 777.12,-199.28 -35.32,-298.13 -133.91,-219.16 -333.09,-335.23l-418.11 -252.32c-325.95,-220.4 -580.08,-333.68 -545.51,-784.47 247.35,-186.96 333.8,-171.72 748.05,-161.26 744.42,18.78 774.32,168.29 1365.77,460.07 166.29,82.04 461.67,310.23 634.72,205.01 1.25,-124.95 -102.49,-170.27 -194.02,-243.28l-357.33 -252.43c-291.31,-259.01 -1239.65,-446.09 -1684.39,-461.48 -515.04,-17.83 -499.23,-15.06 -801.5,266.35 -16.59,576.26 241.67,728.21 632.18,1142.39 49.5,52.51 89.59,112.54 140.02,163.05 77.62,77.7 116.69,61.99 136.54,138.55 -92.93,44.89 -116,62.23 -212.64,87.41l-462.51 210.85c-280.22,104.46 -374.26,273.19 -176.98,509.14 91.46,109.42 119.66,127.53 260.65,189.02l618.4 246.11c-35.55,123.11 -203.77,185.36 -300.82,268.49 -117.94,101.01 -32.54,38.41 -90,116.62l-100.55 96.97c-391.76,330.18 -153.93,616.99 256.5,725.93 215.33,57.15 536.53,23.06 791.96,14.33 -23.42,324.51 -598.91,783.87 -542.17,1330.27 29.86,287.49 206.4,164.93 -10.56,473.69 -109.83,156.33 -137.61,205.04 -288,320.63 -148.94,114.53 -177.98,179.42 -380.3,248.57 -304.7,104.17 -605.65,271.77 -982.18,276.01 -405.01,4.53 -717.31,-89.72 -1094.78,-129.89 -351.28,-37.4 -595.55,-152.14 -879.77,-361.96 -159,-117.41 -180.77,-136.65 -370.88,-228.46 -336.67,-162.57 -785.37,-675.56 -816.25,-1073.05 240.64,-60.4 326.05,-93.62 496.3,-241.46 96.15,-83.5 120.01,-67.73 202.08,-168.85 46.14,-56.87 45.65,-61.97 75.69,-129.74 124.63,-281.13 298.81,-313.02 140.86,-725.62l-168.49 -248.33c-76.53,-79.87 -122.34,-153.53 -203.76,-161.35zm-1212 -7161.91c-127.06,-169.21 26.38,-86.41 -142.32,-450.21l-272.18 -1006.5c-31.35,-106.2 -20.11,-169.98 -42.69,-271.67 -28.58,-128.59 -56.15,-69.02 -94.04,-222.08 -47.74,-192.77 -76.39,-324.13 -122.08,-521.22 -40.05,-172.9 -134.88,-319.97 -155.72,-476.71l-731.76 -3371.73c-31.32,-71.95 -34.23,-162.68 -163.65,-475.65l-314.63 -661.96c-97.19,-151.35 -180.97,-258.97 -413.91,-215.95 -123.62,193.5 -136.29,760.24 -79.9,1006.06 73.96,322.26 20.3,738.56 56.32,1097.17 17.34,172.58 19,356.02 34.33,542.8 19.89,242.46 48.42,-28.82 51.62,503.27 7.11,1180.33 92.7,2248.84 78.1,3358.41 -9.44,718.49 -148.31,1432.08 -51.7,2196.95 218.51,76.04 199.99,56.61 195.06,-213.32 -3.93,-213.18 -14.17,-362.66 35.66,-544.82 85.62,-313.25 48.06,-704.14 74.25,-1070.9 50.38,-705.3 37.13,-1464.7 -3.85,-2178.47 -8.77,-152.88 -35.99,-316.9 -42.37,-473.66 -3.31,-81.56 4.48,-192.37 -5.02,-269.58 -22.71,-184.28 -54.85,-83.65 -48.39,-218.99 18.59,-388.21 -14.73,-732.63 -12.7,-1087.89 1.87,-330.37 -192.78,-1917 -79.79,-2156.05 51.67,34.36 9.8,-2.61 54.61,50.78 87.03,103.67 179.98,421.21 248.4,593.62l220.21 710.41c38.98,190.68 72.12,658.81 131.5,820.84 64.16,174.97 83.69,40.35 92.63,347.65l597.66 2723.84c81.5,537.79 68.5,336.42 169.33,759.66 95.88,402.56 338.04,1289.1 474.45,1648.02 60.33,158.82 29.28,16.23 78.73,154.54 44.05,123.21 37.18,257 248.79,235.73 472.66,-47.5 455.89,-2017.01 457.9,-2397.89l-14.85 -2760.83c35.01,-363.44 -7.66,-1222.52 25.08,-1386.01 58.92,-294.28 56.55,-945.9 80.36,-1328.27 18.21,-292.72 69.12,-570.55 79.68,-874.7 4.88,-140.18 231.23,-637.46 -37.45,-724.93 -268.58,-87.45 -268.23,371.19 -315.5,598.08 -29.56,141.8 -38.18,271.64 -42.06,432.84 -5.4,223.18 -45.31,234.81 -61.12,401.89 -78.17,825.47 -156.03,2795.23 -82.92,3569.37 63.43,671.43 -7.19,2392.89 -34.13,3248.79 -10.46,332.41 15.16,335.28 -119.94,359.27zm-5997.38 -6007.88c-55.88,183.76 -77.32,354.36 -128.1,510.52l-432.38 1405.32c-115.53,284.72 -120.85,694.39 -239.02,1008.45 -144.25,383.31 -43.32,398.65 -182.27,710.59l-37.89 93.85c-87.5,225.47 -31.21,234.19 -75.23,427.01 -27.14,118.85 -52.57,132.23 -67.65,226.11 -15.23,94.71 -4.16,188.59 -24.35,288.89 -18.05,89.84 -55.91,145.34 -74.04,256.91l-655.36 3056.18c226.61,7.25 368.66,-557.55 392.13,-758.66 36.34,-311.47 115.19,-220.89 169.14,-418.22 24.88,-90.94 13.97,-173.23 43.42,-270.55l161.27 -713.64c16.77,-99.49 55.3,-140.88 75.28,-220.4 30.02,-119.44 6.16,-178.63 17.32,-289.44l177.87 -723.32c33.02,-75.51 58.11,-132.72 75.12,-231.5 255.46,-26.41 281.16,-91.27 585.21,-92.57 530.17,-2.28 500.67,-207.89 1983.01,-98.3 74.38,103.5 116.15,327.08 137.7,445.93l126.56 471.73c41.51,188.19 101.82,252.81 140.22,458.12l534.27 1883.62c62.75,184.36 0.58,321.96 203.72,391 229.59,-83.1 213.72,-723.98 132.08,-1001.04 -43.7,-148.29 -112.77,-264.81 -154.67,-427.01l-488.26 -1670.82c-23.62,-92.2 -20.36,-171.94 -41.53,-268.44 -37.34,-170.19 -96.08,-333.03 -230.36,-407.07 85.68,-160.85 15.66,-318.02 -40.27,-486.34l-288.75 -1571.87c-39.29,-246.86 -66.4,-957.34 -129.32,-1111.58 -51.72,-126.85 -160.74,-938.54 -151.4,-1078.66l-441.59 -1314.72c-426.12,-751.58 -525.86,19.56 -689.89,445.27 -73.9,191.8 -281.98,697.49 -218.71,881.47 31.67,92.05 3.06,36.15 54.47,98.3 56.23,-29.88 70.28,-16.94 125.44,-119.23 33.86,-62.8 26.29,-91.32 63.39,-167.28l257.06 -686.53c51.54,-135.26 89.62,-193.01 149.71,-293.81 200.29,355.86 85.22,126.58 152.99,383.16 23.2,87.93 25.18,52.1 58.43,141.34 94.93,254.62 285.56,1673.23 295.68,2017.75 5.21,177.7 2.2,183.52 38.81,332.21 5.86,23.74 51.72,809.39 175.73,1336.24 71.81,305.08 -24.13,296.83 116.35,651.92 249.65,631.19 -539.81,283.94 -1242.62,391.38 -212.3,32.47 -327.46,71.6 -562.47,82.31 -220.07,10.03 -332.12,94.94 -575.6,99.69 -10.66,-290.56 206.42,-1259.17 296.48,-1603.35l547.62 -1978.69c67.82,-237.14 90.1,-265.16 102.37,-586.3 -154.04,13.08 -142.48,-21.68 -217.12,94.07zm7786.2 2994.79l73.53 -3559.48c20.3,-561.08 64.75,-482.63 80.92,-839.84 14.66,-323.74 -28.19,-241.73 -84.61,-290.34 -145.91,473.91 -214.95,1339.26 -236.61,1869.16 -8.41,206.24 -52.87,388.21 -71.43,619.13 -68.88,856.28 -89.29,1787.47 -88.56,2705.08 0.41,537.89 -9.79,1434.85 142.49,1941.62 55.74,185.61 36.96,399.34 103.32,607.03 99.49,311.48 105.6,604.16 462.43,923.73 220.67,197.66 691.57,233.15 1032.31,-135.97 160.36,-173.75 310.93,-327.17 421.77,-581.55l189.62 -522.13c50.67,-103.76 70.87,-145.58 110.49,-254.63 66.2,-182.24 120.91,-313.46 187.1,-519.53l161.29 -511.39c47.44,-187.73 63.54,-393.86 121.26,-590.07 145.36,-494.16 100.55,-669.67 173.88,-865.4 54.23,-144.76 236.17,-1929.03 244.96,-2211.77 7.12,-228.05 0,-474.88 -0.89,-705.24 -1.84,-478.1 16.64,-924.19 -21.74,-1377.28 -13.4,-158.15 -20.68,-506.45 -55.25,-664.9 -99.26,-454.53 -41.72,-3.96 -101.53,-613.05 -694.86,-527.57 -245.8,993.33 -243.07,1310.54 5.84,682.45 12.95,1367.35 6,2049.91 -3.88,382.85 -21.44,594.08 -64.94,947.66 -37.75,306.83 -110.19,657.23 -112.6,933.03 -2.45,280.42 -29.31,222.7 -78.08,415.58 -39.09,154.64 4.45,299.71 -55.72,452.53 -173.1,439.68 -206.97,1053.77 -476.52,1562.34l-356.59 921.8c-74.28,221.32 -346.08,664.97 -570.68,709.15 -478.48,94.1 -534.31,-549.14 -635.64,-906.54 -262.09,-924.1 -254.54,-1838.62 -256.91,-2819.18zm3822.8 1479.03c-237.22,353.38 -43.36,1238.24 204.04,1605.95 39.67,58.95 14.14,9.58 57.86,79.28 156.89,250.12 45.18,176.76 366.98,375.99 293.6,181.78 459.06,243.39 900.9,132.23 352.76,-88.75 700.06,-504.53 896.15,-810.18 138.3,-215.62 262.44,-565.75 280.18,-850.49 8.01,-128.86 15.31,-442.68 -1.22,-563.28l-57.4 -200.43c-143.13,-484.09 -28.33,-403.27 -219.74,-649.86 -61.83,-79.65 -50.41,-86.19 -99.52,-175.51 -42.89,-78 -55.72,-79.76 -104.85,-193.56 -72.05,-166.8 -116.26,-232.94 -193.91,-381.48 -46.95,-89.82 -48.82,-84.1 -102.72,-163.97 -51,-75.53 -79.41,-120.15 -124.03,-174.92 -150.98,-185.27 -658.11,-1057.11 -658.41,-1057.48 -64.24,-78.36 -62.96,-43.59 -125.11,-139.04 -159.55,-244.99 -284.39,-485.45 -385.63,-758.01 -37.18,-100.09 -57.78,-104.08 -92.3,-206.34 -160.39,-475 -28.3,-1620.72 196.52,-1953.42 204.33,-302.42 385.79,-690.32 751.58,-959.69 158.05,-116.37 260.37,-79.81 410.13,-143.68 -3.99,-99.36 40.03,-80.74 -94.88,-115.23 -406.31,-103.91 -913.6,428.46 -1113.08,736.35 -159.44,246.11 -253.75,371.16 -368.53,707.67l-201.99 857.63c-76.75,984.54 85.05,1125.7 469.49,1930.01 58.35,122.06 12.51,64.31 90.91,172.93 93.34,129.26 120.01,171.41 195.33,342.83 106.39,242.08 495.83,765.98 730.27,1146.72 3.9,6.35 9.34,14.63 13.24,20.87 3.88,6.17 9.44,14.36 13.3,20.44 3.77,5.97 9.49,14 13.19,19.92l57.81 103.75c66.92,137.22 115.69,226.35 177.32,363.75 163.39,364.19 360.83,600.9 313.17,1277.57 -19.79,280.6 -49.74,597.16 -238.4,813.65 -231.06,265.15 -181.83,376.8 -569.11,511.42 -391.16,135.93 -527.81,8.57 -735.73,-226.92 -162.81,-184.38 -285.45,-410.35 -402.26,-666.93 -84.43,-185.44 -49.56,-230.76 -98.65,-452.28 -65.52,-295.6 -50.08,-334.6 -150.9,-376.26z"/>
 </g>
</svg>
