<?xml version="1.0" encoding="UTF-8"?>
<!DOCTYPE svg PUBLIC "-//W3C//DTD SVG 1.1//EN" "http://www.w3.org/Graphics/SVG/1.1/DTD/svg11.dtd">
<!-- Creator: CorelDRAW 2017 -->
<svg xmlns="http://www.w3.org/2000/svg" xml:space="preserve" width="181mm" height="181mm" version="1.1" style="shape-rendering:geometricPrecision; text-rendering:geometricPrecision; image-rendering:optimizeQuality; fill-rule:evenodd; clip-rule:evenodd"
viewBox="0 0 18100 18100"
 xmlns:xlink="http://www.w3.org/1999/xlink">
 <defs>
  <style type="text/css">
   <![CDATA[
    .fil0 {fill:none}
    .fil1 {fill:#010101}
    .fil2 {fill:#A2A0A1}
   ]]>
  </style>
 </defs>
 <g id="Capa_x0020_1">
  <metadata id="CorelCorpID_0Corel-Layer"/>
  <g id="_1500361259760">
   <rect class="fil0" x="17.91" y="-5.62" width="18100" height="18100"/>
   <g>
    <rect class="fil0" x="17.91" y="-5.62" width="18100" height="18100"/>
    <path class="fil1" d="M84.65 12949.66c-156.43,9.23 -53.13,5.32 -90.56,34.1 39.08,666.26 -67.06,4859 30.81,5051.03 42.03,41.1 -38.35,14.39 78.16,50.79 49.87,15.58 60.4,11.06 113.03,12.74l17274.69 -1.91c734.08,0.11 576.35,201.82 576.35,-1288.73 0,-1224.99 35.71,-2737.51 -3.25,-3897.67l-6230.51 1823.7c19.63,210.85 98.06,331.15 89.91,616.46 -41.69,1462.18 -1779.53,2013.46 -2680.03,1149.97 -21.36,-20.44 -63.92,-65.83 -80.19,-80.53l-76.55 -59.09c-3.18,-10.8 -13.93,-9.57 -21.36,-13.59 -272.97,243.58 -419.07,414.33 -873.36,524.52 -769.71,186.67 -1505.63,-223.49 -1821.9,-901.07 -242.28,-519.05 -101.92,-692.44 -63.11,-1213.17l-6222.13 -1807.55z"/>
    <path class="fil1" d="M10358.85 7885.01c913.94,-1573.15 -88.95,-3094.93 -1293.58,-3099.06 -1639.56,-5.59 -2025.49,2316.3 -1296.38,3071.81 238.87,-43.1 548.75,-319.37 671.5,-489.54 81.37,-112.83 64.15,-139.97 171.05,-198l15 69.86c-0.26,6.16 -0.92,16.3 -1.99,22.58 -18.29,108.51 -268.42,344.21 -337.09,406.48 -253.61,230.23 -371.23,221.61 -517.9,324.04l0.96 5708.47c292.96,16.5 790.92,68.78 907.58,286.68 -60.47,33.88 19.52,41.38 -107.9,11.14 -7.69,-1.83 -67.17,-30.77 -86.35,-40.34 -1105,-551.7 -2435.52,476.22 -2109.19,1720.35 239.53,913.25 1225.38,1381.05 2076.81,997.49 428.38,-192.98 421.83,-342.06 613.78,-478.7 134.43,53.96 574.78,789.96 1588.92,578.03 1263.01,-263.99 1583.9,-1968.46 537.27,-2679.34 -950.1,-645.32 -1566.3,-6.51 -1721.77,-108.63 75.17,-177.25 601.15,-278.06 842.09,-275.92 33.87,-146.44 43.75,-5331.35 10.34,-5725.2 -330.43,-101.62 -855.76,-500.76 -903.95,-819.63 130.6,39.58 155.47,130.06 222,218.4 150.95,200.49 458.3,446.83 718.8,499.03z"/>
   </g>
   <path class="fil2" d="M19.41 3553.47c1405.8,-59.97 1284.33,-342.74 1813.32,1094.56 130.04,353.34 225.58,831.42 454.62,1082.97 557.78,612.48 1403.12,912.04 2253.63,684.75 389.33,-104.02 581.7,-475.24 850.38,-680.03 231.5,-176.43 317.8,10.23 462.62,135.38 191.31,165.32 381.39,17.79 483.49,295.06 99.64,270.7 62.91,343.55 239.37,516.9 90.64,89.07 335.79,268.62 533.67,202.5 336.2,-165.11 -180.78,-540.07 33.11,-1686.72 50.18,-268.96 153.17,-605.2 32.05,-880.2 -91.84,-208.55 -352.14,-436.15 -313.39,-687.32 192.44,-174.41 526.28,-182.28 850,-209.78 847.26,-71.97 1177.24,269.84 1382.37,-36.7 246.41,-368.26 -39.89,-457.05 28.42,-901.89 18.33,-119.48 61.3,-323.68 155.05,-392.81 226.78,-167.16 1429.37,293.07 1701.67,-383.07 179.13,-444.83 -319.03,-982.37 -423.59,-1696.02l-10538.3 4.75 1.51 3537.67z"/>
  </g>
 </g>
</svg>
