<?xml version="1.0" encoding="UTF-8"?>
<!DOCTYPE svg PUBLIC "-//W3C//DTD SVG 1.1//EN" "http://www.w3.org/Graphics/SVG/1.1/DTD/svg11.dtd">
<!-- Creator: CorelDRAW 2017 -->
<svg xmlns="http://www.w3.org/2000/svg" xml:space="preserve" width="181mm" height="181mm" version="1.1" style="shape-rendering:geometricPrecision; text-rendering:geometricPrecision; image-rendering:optimizeQuality; fill-rule:evenodd; clip-rule:evenodd"
viewBox="0 0 18100 18100"
 xmlns:xlink="http://www.w3.org/1999/xlink">
 <defs>
  <style type="text/css">
   <![CDATA[
    .fil0 {fill:none}
    .fil2 {fill:#010101}
    .fil1 {fill:#A19FA0}
   ]]>
  </style>
 </defs>
 <g id="Capa_x0020_1">
  <metadata id="CorelCorpID_0Corel-Layer"/>
  <g id="_1500111979296">
   <rect class="fil0" x="5826.14" y="5827.98" width="6448.46" height="6448.46"/>
   <path class="fil1" d="M9993.3 8648.99l82.91 -24.39c60.04,429.45 138.73,702.4 120.47,1173.98 -13.33,343.57 -314.96,876.07 -11.57,1053.75 278.89,72.3 603.31,-217.16 711.18,-377.53 241.9,-359.61 -66.63,-520.52 500.22,-668.14 352.3,-91.71 344.94,-536.29 723.89,-226.08 231.98,189.93 348.28,386.65 595.04,572.75 431.41,325.41 1421.17,314.5 1950.41,72.56 323.77,-148 804.77,-489.95 988.39,-762.33 35.38,-52.5 73.56,-113.27 104.96,-187.72 82.06,-194.45 59.66,-149.03 148.38,-150.75 -72.1,-154.21 -12.98,-245.08 47.71,-430.84 90.8,-277.93 346.86,-993.05 456.5,-1195.09 376.8,-694.52 627.16,-418.85 1680.14,-381.7l1.46 -7114.58 -10625.59 0 -1147.79 3150.1c-93.21,858.65 -918.62,1659.05 -267.56,2152.03 284.1,215.09 851.68,209.39 1241.35,145.29 589.59,-96.96 661.62,205.51 621.45,781.94 -0.3,4.4 -314.57,939.29 472.81,828.32 689.16,-97.15 391.7,-159.5 1301.31,-76.44 1306.94,119.32 600.2,505.7 394.8,1029.66 -100.86,257.33 36.61,421.42 -90.87,635.21z"/>
   <path class="fil2" d="M8985.54 12328.56c-64.4,-107.48 -41.66,-839.88 0,-902.79 47.33,72.72 59.63,804.69 0,902.79zm589.72 -1363.5c77.5,-40.09 505.73,153.25 587.41,226.97 -47.94,20.06 74.21,42.85 -86.77,12.63l-500.64 -239.6zm-1880.46 194.53c84.94,-70.26 519.94,-270.31 596.38,-226.92 -73.76,68.16 -343.87,172.16 -454.77,216.39 -113.5,45.23 -99.1,34.5 -141.61,10.53zm1189.77 -790.79c438.99,-143.75 652.97,538.67 210.42,673.88 -444.01,135.64 -673.23,-522.27 -210.42,-673.88zm527.67 -120.2c37.49,-118.48 307.23,-414.56 408.05,-444.81 -23.24,100.52 -310.28,420.88 -408.05,444.81zm-853.93 -0.5c-111.89,-29.94 -384.81,-333.72 -406.25,-444.81 120.39,41.05 378.72,343.07 406.25,444.81zm-8517.94 3097.83c-30.52,446.15 -67.32,4541.59 5.52,4674.32 83.93,116.06 633.82,63.6 769.46,63.03l5057.74 -3.18c402.11,0.96 652.09,68.66 769.5,-87.5 116.67,-157.58 251.31,-528.98 342.76,-724.43 85.58,-182.89 306.03,-586.34 326.44,-771.33 -486.81,-277.02 -830.61,-1152.78 -373.54,-1811.11 297.23,-428.19 736.95,-672.69 1298.74,-606.26 81.8,9.69 318.45,61.23 373.78,111.32 67.17,60.85 30.48,-1.87 66.06,104.2 -310.02,-49.48 -434.9,-173.97 -813.54,-109.41 -714.43,121.89 -1218.87,860.79 -975.82,1600.04 288.92,878.67 1365.53,1109.08 1986.07,546.67 79.07,-71.65 129.54,-143.98 254.88,-182.35 174.15,308.07 670.74,583.43 1211.43,483.56 975.06,-180.17 1391,-1390.19 589.45,-2133.61 -602.77,-559.04 -1223.54,-156.19 -1351.94,-260.24 111.9,-203.6 752.54,-154.55 974.33,-75.2 639.34,228.68 1011.7,870.7 872.12,1541.63 -86.04,413.65 -274.67,550.16 -473.49,774.6l711.18 1562.77c162.74,84.09 1301.04,38.53 1571.24,39.18 540.2,1.3 1080.89,1.22 1621.06,-0.69 339.35,-1.19 3101.08,52.69 3189.96,-35.77 80.87,-80.45 36.41,-2144.56 36.41,-2412.42 0,-759.96 45.23,-1739.08 -15.01,-2443.67 24.63,-537.02 -594.8,-1926.64 -805.57,-2328.9 -556.85,-1062.9 -1272.47,-1602.15 -1352.01,-1736.09 -88.72,1.72 -66.32,-43.7 -148.38,150.75 -31.4,74.45 -69.58,135.22 -104.96,187.72 -183.62,272.38 -664.62,614.33 -988.39,762.33 -529.24,241.94 -1519,252.85 -1950.41,-72.56 -246.76,-186.1 -363.06,-382.82 -595.04,-572.75 -378.95,-310.21 -371.59,134.37 -723.89,226.08 -566.85,147.62 -258.32,308.53 -500.22,668.14 -107.87,160.37 -432.29,449.83 -711.18,377.53 -303.39,-177.68 -1.76,-710.18 11.57,-1053.75 18.26,-471.58 -60.43,-744.53 -120.47,-1173.98l-82.91 24.39c-135.44,52.15 -394.8,283.1 -531.62,392.04 -174.58,138.93 -313.51,326.07 -476.14,446.73 -136.24,-62.38 -175.8,-130.27 -291.41,-241.02 -78.69,-75.36 -152.78,-126.56 -268.47,-217.58 -558.81,-439.53 -1279.1,-794.92 -2008.01,-947.37 -2197.94,-459.71 -4090.07,678.75 -5273.56,2435.25 -400.35,594.19 -1129.26,2173.47 -1103.72,2828.89z"/>
   <path class="fil2" d="M7945.51 18049.62c143.67,69.31 866.11,24.54 1104.86,23.85 247.84,-0.72 950.25,48.22 1105.18,-27.64l-5.67 -1284.12c-581.75,-15.59 -779.49,-217.54 -1067.07,-471.12 -132.27,91.63 -239.18,232.02 -469.47,331.81 -193.38,83.75 -424.29,131.23 -664.73,110.47l-3.1 1316.75z"/>
  </g>
 </g>
</svg>
