<?xml version="1.0" encoding="UTF-8"?>
<!DOCTYPE svg PUBLIC "-//W3C//DTD SVG 1.1//EN" "http://www.w3.org/Graphics/SVG/1.1/DTD/svg11.dtd">
<!-- Creator: CorelDRAW 2017 -->
<svg xmlns="http://www.w3.org/2000/svg" xml:space="preserve" width="181mm" height="181mm" version="1.1" style="shape-rendering:geometricPrecision; text-rendering:geometricPrecision; image-rendering:optimizeQuality; fill-rule:evenodd; clip-rule:evenodd"
viewBox="0 0 18100 18100"
 xmlns:xlink="http://www.w3.org/1999/xlink">
 <defs>
  <style type="text/css">
   <![CDATA[
    .fil0 {fill:none}
    .fil2 {fill:#010101}
    .fil1 {fill:#290203}
   ]]>
  </style>
 </defs>
 <g id="Capa_x0020_1">
  <metadata id="CorelCorpID_0Corel-Layer"/>
  <g id="_1500362705008">
   <rect class="fil0" x="5.05" y="-29.63" width="18100" height="18100"/>
   <g>
    <path class="fil1" d="M39.36 13349.63c-57.35,330.33 -60.19,4559.5 -2.38,4706.53 33.37,30.38 -9.64,22.11 84.36,50.77l5756.29 8.91c283,0.65 684.18,58.85 748.11,-68.82 -473.57,-42.93 -1122.4,-9.8 -1622.72,-9.8 -768.89,0 -4686.36,71.28 -4880.41,0.77 -66.61,-189.43 -25.75,-3178.58 -23.76,-3810.16 2.22,-698.19 -63.89,-319.54 24.79,-1191.46 -63.59,72.53 -76.86,197.49 -84.28,313.26z"/>
    <path class="fil2" d="M8987.33 11447.73c63.74,94.81 32.98,485.66 34.81,675.16 1.69,173.28 13.82,151.77 -34.81,229.82 -16.3,-26.51 -21.27,-11.48 -31.22,-69.74 -9.87,-57.74 -21.58,-757.77 31.22,-835.24zm586.32 -459.03c103.84,-55.14 328.8,86.23 443.27,135.05l149.48 91.71c-15.99,6.96 -12.17,23.6 -67.8,18.59 -49.01,-4.4 -466.22,-182.91 -524.95,-245.35zm-1878.26 194.35c86.51,-74.22 519.79,-273.82 599.72,-226.72 -66.5,64.89 -490.1,240.11 -522.51,244.9 -155.68,23.03 -35.16,6.58 -77.21,-18.18zm949.98 -356.3c-124.84,-494.96 590.22,-613.34 685.64,-182.12 108.31,489.57 -584.18,584.37 -685.64,182.12zm764.99 -552.2c39.52,-129.2 309.94,-419.55 412.93,-448.24 -24.33,115.65 -311.96,426.66 -412.93,448.24zm-1257.77 -448.82c85.93,26.9 375.82,318.09 410.02,448.97 -86.12,-20.73 -49.69,4.67 -117.95,-71.81 -52.91,-59.3 -38.87,-57.16 -107.16,-119.21 -52.95,-48.13 -68.83,-59.38 -114.24,-113.1 -81.96,-97.02 -37.12,-50.88 -70.67,-144.85zm-7843.81 2426.48c-50.74,262.91 -202.16,518.6 -185.14,784.16 -88.68,871.92 -22.57,493.27 -24.79,1191.46 -1.99,631.58 -42.85,3620.73 23.76,3810.16 194.05,70.51 4111.52,-0.77 4880.41,-0.77 500.32,0 1149.15,-33.13 1622.72,9.8l20.78 -32.26c96.3,-143.51 651.86,-1350.09 669.04,-1499.68 -507.09,-274.17 -793.65,-1149.92 -387.57,-1790.22 488.49,-770.31 1634.28,-753.86 1751.12,-409.18 -351.33,-55.9 -819.05,-328.57 -1410.38,170.48 -782.55,660.47 -467.22,1946.32 572.2,2151.12 252.47,49.74 522.89,6.43 741.39,-94.5 113.89,-52.65 181.27,-92.09 275.96,-176.3 85.36,-75.87 139.34,-156.94 271.79,-197.49 438.99,754.7 1838.36,656.68 2156.33,-324.25 230.7,-711.77 -198.87,-1438.89 -890.98,-1599.46 -255.88,-59.38 -407.92,-32.52 -630.74,21.65l-154.11 2.83c-6.27,-1.37 -17.94,-4.85 -25.94,-9.37 185.48,-258.13 1175.78,-268.73 1655.24,466.69 178.98,274.54 260.55,624.73 183.38,998.1 -84.55,408.95 -257.9,529.2 -464.12,770.31l701.29 1566.6c143.05,78.55 569.56,41.47 760.51,41.47l4858.92 -0.61c989.3,0 798.27,267.85 798.27,-1218.75 0,-834.08 47.48,-3151.4 -17.1,-3673.49l-65.8 -407.84c-84.29,-221.48 -136.97,-497.68 -216.7,-722.41 -253.97,-715.79 -536.67,-1303.18 -989.16,-1929.1 -1204.16,-1665.69 -3201.25,-2745.4 -5368.67,-2140.8 -791.81,220.91 -1292.21,525.8 -1904.81,1013.91 -226.92,180.85 -349.31,354.89 -528.55,488.07 -240.35,-110.03 -809.68,-908.23 -2275.96,-1331.88 -1964.07,-567.42 -3952.17,321.99 -5114.98,1765.7 -266.59,330.95 -507.43,680.29 -739.97,1076.27 -97.07,165.28 -209.62,408.19 -296.05,609.28 -47.67,110.95 -207.21,562.45 -251.59,620.3z"/>
    <path class="fil2" d="M7947.94 18111.83l2190.72 -1.57 -3.48 -1340.95c-521.86,31.99 -811.59,-246.16 -1050.67,-460.06 -270.15,186.13 -495.88,497.17 -1133.32,442.16l-3.25 1360.42z"/>
   </g>
  </g>
 </g>
</svg>
