<?xml version="1.0" encoding="UTF-8"?>
<!DOCTYPE svg PUBLIC "-//W3C//DTD SVG 1.1//EN" "http://www.w3.org/Graphics/SVG/1.1/DTD/svg11.dtd">
<!-- Creator: CorelDRAW 2017 -->
<svg xmlns="http://www.w3.org/2000/svg" xml:space="preserve" width="200mm" height="200mm" version="1.1" style="shape-rendering:geometricPrecision; text-rendering:geometricPrecision; image-rendering:optimizeQuality; fill-rule:evenodd; clip-rule:evenodd"
viewBox="0 0 20000 20000"
 xmlns:xlink="http://www.w3.org/1999/xlink">
 <defs>
  <style type="text/css">
   <![CDATA[
    .fil0 {fill:#2D2D2E}
   ]]>
  </style>
 </defs>
 <g id="Capa_x0020_1">
  <metadata id="CorelCorpID_0Corel-Layer"/>
  <path class="fil0" d="M16234.47 9963.12l-42.67 85.77c-128.06,-16.31 -111.08,-141.89 -122.55,-272.81 -19.73,-225.47 13.14,-488.33 98.52,-692.56 34.34,-82.11 83.79,-213.08 168.14,-228.32 95.95,78.26 117,495.41 36.37,592.38 30.69,170.31 -90.57,362.5 -137.81,515.54zm-13620.9 -2080.52c-52.19,296.65 -426.02,788.13 -38.62,698.04 74.2,-142.83 264.05,-618.84 202.34,-754.22l-118.04 -9.13 -45.68 65.31zm9128.12 1439.06c249.34,-101.3 580.65,526.6 519.31,749.1 -80.09,290.58 -353.65,596.26 -556.62,813.14 -607.66,649.26 -547.3,-1324.72 37.31,-1562.24zm-6503.91 2647.41c-307.58,-86.73 -151.54,-370.06 -368.63,-328.29 -81.48,116.15 11.24,229.53 99.52,307.94 119.34,105.97 183.44,58.78 279.24,162.36 419.47,69.87 505.07,165.96 976.71,75.42 651.67,-125.09 715.44,-171.41 1254,-459.81 125.56,-67.23 881.22,-655.77 938.26,-794.66l1108.43 -1156.04 18.96 17.51c105.71,246.44 -113.47,809.22 172.54,1215.03 254.39,360.98 593.48,323.84 873.81,28.45l9.84 -63.33c106.87,-75.22 104.39,-229.75 225.2,-290.71 61.68,52.06 74.46,136.81 84.08,219.35 92.3,560.02 1013.21,465.43 1333.92,-318.37l36.39 -66.11c114.88,13.47 86.03,121.52 109.74,237.67 77.01,377.4 321.53,422.7 650.85,375.04l1709.83 -1839.09c131.63,-200.03 775.72,-579.84 1002.81,-688 301.78,-143.73 1135.67,-353.6 1429.33,-195.18 94.23,-30.06 291.5,62.92 380.22,124.49 232.04,161.08 95.82,371.93 304.19,286.76 50.32,-245.9 -150.63,-278.33 -260.81,-395.41 -2191.58,-1019.86 -4382.05,2429.35 -4710.05,2413.44l-33.46 6.81 -78.28 -527.23c-141.76,-140.07 -0.17,-760.41 -106.14,-967.37l-201.53 -1.77c-64.49,71.88 -119.78,170.48 -206.72,196.61l-18.85 -63.66c-1388.97,-1242.33 -1410.82,1508.59 -2036.96,1574.06l-116.17 -1.53 40.13 -3050.97 -63.62 -0.83c-613.67,-335.5 -308.91,1314.33 -627.67,1636.5 -135.71,137.14 -1071.99,1230.46 -1076.24,1244.05l-622.2 507.77c-111.1,87.96 -241.65,156.44 -339.09,229.19 -272.46,203.48 -914.92,442.81 -1192,462.98 -722.41,52.62 -600.14,-35.1 -979.58,-113.07zm11929.83 -3396.99c-95.23,-11.47 -178.07,-34.54 -200.85,67.23 -55.98,250.26 185.77,234.64 244.79,112.64 36.33,-75.08 -7.83,-117.59 -43.94,-179.87zm-14870.26 1051.12c16.58,-71.18 55.41,-121.82 31.89,-191.99 -127.72,-19.58 -119.6,198.26 -235.52,259.82l-599.53 967.61c-48.36,97.08 -103.78,154.81 -191.61,221.51 -97.81,74.26 -110.46,114.47 -243.97,158.32 -651.34,213.82 -590.39,-556.85 -518.18,-945.93 31.81,-171.46 86.98,-472.51 228.54,-568.95l411.5 6.33c136.66,87.36 23.3,250.29 90.28,376.74 153.35,-4.29 138.74,-194.05 130.17,-321.46 -10.85,-161.18 -65.09,-208.17 -138.76,-324.1 -658.63,58.02 -859.97,52.04 -1147.7,706.41 -194.94,443.37 -170.75,1067.1 308.12,1283.6 555.9,251.34 923.64,-67.64 1220.38,-471.69 107.89,-146.91 645.32,-1024.56 654.39,-1156.22zm3122.36 1498.01c-80.22,-381.11 403.65,-768.75 440.35,-169.5 37.16,606.89 -342.48,634.58 -440.35,169.5zm228.45 -1515.86c-112.26,-50.79 -282.03,-472.91 -53.73,-560.01 224.46,-85.64 206.83,448.17 53.73,560.01zm-1932.58 377.49c-24.04,-366 160.91,-649.79 374.36,-880.82 101.4,-109.78 111.62,-139.49 275.14,-123.8 99.55,166.82 96.8,183.2 25.96,358.57 -111.74,276.7 -529.42,636.1 -675.46,646.05zm2977.77 -228.52c-56.05,176.51 -409.51,444.97 -603.43,471.99l-280.8 -328.37c-71,-97.52 147.34,-462.56 112.67,-732.07 -40.88,-317.7 -369.37,-214.87 -581.05,-202.53 -286.68,30.08 -268.44,346.79 -258.18,572.3 9.4,206.94 -186.59,392.26 -301.67,529.54 -147.86,176.4 -733.61,766.81 -974.9,708.82l-53.82 9.48 -56.23 -519.57c188.76,-267.84 655.29,-341.56 871.33,-898.82 102.14,-263.49 3.86,-503.06 -292.25,-530.89 -331.1,-31.12 -402.91,182.2 -598.5,250.01 -30.46,77.44 -156.13,191.15 -268.86,367.68 -73.5,115.1 -143.75,309.77 -163.81,446.05 -35.51,241.15 -61.61,611.86 57.7,829.69l136.81 167.18c2.44,2.54 7.7,7.68 10.96,12.01 878.86,493.33 1367.94,-819.57 1736.25,-1094.91l421.47 617.38c-62.9,148.39 -439.19,262.1 -435.73,649.13 2.27,254 234.08,558.57 497.67,563.55 1020.6,19.34 536.33,-1244.9 538.79,-1248.3 64.31,-77.52 199.54,-135.45 286.07,-198.57 58.44,-42.62 179.36,-211.79 243.63,-183.78 62.81,64.51 -70.2,599.25 161.38,993.19 54.71,93.07 144.02,133.69 200.16,213.08 632.41,-4.19 569,37.64 906.41,-602.31 92.03,-174.55 475.73,-1080.78 406.28,-1198.45l-54.58 -25.35 -499.29 1114.15c-12.36,87.09 -321.86,612.17 -483.5,566.65 -222.44,-62.64 -134.83,-957.51 -123.18,-1003.24 20.02,-78.66 -18.52,-17.74 38.38,-66.21l28.43 -1340.71 471.5 -17.03 1.05 -66.39 -445.84 -23.4 -53.69 -553.11 -44.72 4.33c-425.89,-131.68 -347.59,287.21 -425.4,545.96l-345.21 31.18 1.12 53.04 340.92 19.82 -124.34 1097.8zm12167.56 -147.21c-39.3,108.27 -145.29,171.58 -238.82,240.3 -90.9,66.75 -145.57,147.13 -269.42,146.74 -7.3,-84.92 -21.65,-227.16 54.36,-275.15 -17.05,-157.07 100.95,-341.17 195.9,-459.7 110.86,-138.4 184.03,-298.3 389.25,-282.3 220.04,149.92 12.41,526.21 -131.27,630.11zm-3143.58 883.29l-249.54 -881.44c-101.38,-87.76 -130.79,-341.52 -224.44,-421.63 -52.89,-45.25 -172.65,-53.38 -219.29,7.19 -146.09,189.71 313.01,1981.74 671.05,2056.12 192.93,40.08 305.19,-80.53 363.57,-239.3 32.37,-88.03 136.92,-381.76 146.55,-458.63l16.63 -101.62c136.63,-83.12 195.94,-55.1 311.67,-105.59 108.56,-47.35 137.37,-158.1 243.76,-163.12 38.67,84.23 16.33,365.69 18.01,476.16 6.65,435.56 25.79,237.77 59.33,447.34 99.61,236.09 514.39,162.5 663.21,-6 178.16,-201.7 252.82,-559.47 355.36,-574.73 31.87,87.41 29.79,160.08 95.57,250.57 61.93,85.2 131.03,97.65 186.48,186.48 588.84,-73.32 543.3,200.94 1083.1,-394.14 268.83,-296.36 401.53,-570.49 630.03,-877.03 18.41,-131.69 127.93,-210.91 66.57,-268.84 -84.96,-80.22 -175.89,154.71 -202.82,208.78 -33.27,66.81 -31.24,56.76 -75.94,85.57l-116.55 206.03c-48.62,156.36 -279.97,363.3 -408.15,475.83 -125,109.74 -352.7,312.27 -506.78,355.5 -268.49,75.86 -312.09,-34.35 -307.07,-328.03 4.59,-268.04 174.67,-257.59 344.51,-398.36 46.32,-98.85 101.04,-113.57 183.52,-188.46 66.56,-60.47 116.16,-142.32 193.48,-187.8 64.27,-156.45 492.26,-673.36 -42.69,-804.8 -336.32,-82.63 -649.1,195.12 -825.58,425.63 -225.72,294.86 -639.99,1695.18 -881.32,1698.67l-24.43 -1677.09 -80.47 -44.29 -315.5 168.45c-17.1,322.17 -211.05,847.88 -531.51,819.65 1.67,-131.12 445.11,-1382.04 102.54,-1513.12 -495.79,-189.72 -572.24,864.11 -531.87,1261.06 27.76,272.88 157.27,360.13 165.21,426.76 5.34,44.94 -132.23,358.84 -173.87,383.03 -106.22,-5.96 -171.64,-217.37 -182.33,-304.8z"/>
 </g>
</svg>
