<?xml version="1.0" encoding="UTF-8"?>
<!DOCTYPE svg PUBLIC "-//W3C//DTD SVG 1.1//EN" "http://www.w3.org/Graphics/SVG/1.1/DTD/svg11.dtd">
<!-- Creator: CorelDRAW 2017 -->
<svg xmlns="http://www.w3.org/2000/svg" xml:space="preserve" width="200mm" height="200mm" version="1.1" style="shape-rendering:geometricPrecision; text-rendering:geometricPrecision; image-rendering:optimizeQuality; fill-rule:evenodd; clip-rule:evenodd"
viewBox="0 0 20000 20000"
 xmlns:xlink="http://www.w3.org/1999/xlink">
 <defs>
  <style type="text/css">
   <![CDATA[
    .str0 {stroke:#1B191C;stroke-width:7.62;stroke-miterlimit:22.9256}
    .fil0 {fill:none}
    .fil3 {fill:#373435}
    .fil4 {fill:#FDD1A1}
    .fil5 {fill:#F7ADAF}
    .fil1 {fill:#1C191C}
    .fil2 {fill:#1D191C}
   ]]>
  </style>
 </defs>
 <g id="Capa_x0020_1">
  <metadata id="CorelCorpID_0Corel-Layer"/>
  <rect class="fil0" width="20000" height="20000"/>
  <path class="fil1" d="M2310.59 16128.75c-43.35,33.12 -44.87,14.72 -108.65,82.52 87.25,8.72 238.98,-20.72 321.87,-59.79 61.37,-28.91 9.37,-3.95 44.84,-26.53 28.72,-18.29 -5.93,-2.76 31.5,-20.88 116.43,-23.6 290.19,-200.3 354.35,-269.58 80.78,-87.24 184.96,-237.05 364.99,-246.76l-162.13 540.79 -10.78 64.71c65.85,-3.75 47.56,-18.75 83.42,-62.69 50.55,-195.68 196.6,-492.74 199,-698.56 -75.22,23.52 -260.46,97.84 -329.63,137.43 -69.28,39.66 -148.08,165.9 -210.26,235.22 -167.51,186.76 -353.21,242.31 -578.52,324.12z"/>
  <path class="fil1" d="M10109.05 9497.15c33.88,-77.14 15.63,-133.66 66.39,-232.72 50.55,-98.62 55.99,-141.19 -15.07,-213.26 -35.8,57.02 -48.26,159.38 -74.53,230.9 -39.4,107.24 -69.1,151.61 23.21,215.08z"/>
  <path class="fil2" d="M10220.84 8671.75c194.4,-68.99 404.88,-176.07 491.37,96.83 38.74,122.23 -34.57,78.32 64.56,189.14 106.08,-577.45 -501.64,-517.7 -555.93,-285.97z"/>
  <path class="fil3 str0" d="M8219.47 4190.42c89.98,81.23 180.75,88.42 208.58,200.25 -136.6,139.03 -448.46,147.52 -674.04,207.33 -197.4,52.33 -412.82,234.14 -575.34,334.8 -186.27,115.37 -401.92,208.09 -646.61,260.52 -343.52,73.6 -413.16,63.72 -681.52,224.52 7.07,126.08 57.43,176.47 52,286.82 -234.92,152.13 -436.13,-83 -508.99,291.5 -69.47,357.12 147.17,413.43 152.02,649.26l-281.37 69.17c36.8,192.07 324.83,318.54 504.19,405.57 480.29,233.06 542.3,-304.51 1416.18,-313.85 488.43,-5.23 255.62,-7.55 589.76,-102.28 116.69,-33.08 48.96,-38.4 185.03,-17l6.09 -151.82c140.19,64.13 224.15,588.39 252.22,720.71 126.92,598.32 -116.86,682.76 414.67,1027.01 299.91,194.24 101.37,196.89 474.16,488.63 110.72,86.65 137.33,166.93 269.83,222.69 134.16,-96.82 73.12,-235.68 569.1,-636.55 195.59,-158.08 611.51,-364.63 917.72,-185.05 430.85,252.67 148.68,965.98 652.67,1165.02 134.48,53.12 339.1,122.27 497.73,123.75 37.3,-189.91 37.63,-373.64 49.88,-569.4 28.13,-449.62 118.63,-360.98 128.7,-1138.67 2.77,-213.25 27.75,-399.65 37.34,-604.76 16.81,-359.32 -83.25,-770.64 -153.7,-1114.74 -62.59,-305.75 -255.65,-556.24 -429.7,-834.81 -82.76,-132.47 -148.03,-259.9 -235.14,-388.13 -82,-120.71 -99.64,-20.83 -335.06,-306.91 -291.21,-353.87 -368.71,-331.38 -902.67,-362.72 -194.79,-11.43 -389.56,-19.25 -583.05,-36.8 -286.26,-25.97 -284.56,-36.75 -491.04,-153.47 -250.2,-141.43 -259.46,-103.5 -379.93,99.13 -73.98,124.42 -67.9,96.22 -233.75,80.85 -68.48,-6.34 -176.08,-4.71 -238.28,35.09 -23,14.72 -15.9,10.37 -27.68,24.34z"/>
  <path class="fil4" d="M10109.05 9497.15c-92.31,-63.47 -62.61,-107.84 -23.21,-215.08 26.27,-71.52 38.73,-173.88 74.53,-230.9 71.06,72.07 65.62,114.64 15.07,213.26 -50.76,99.06 -32.51,155.58 -66.39,232.72zm111.79 -825.4c54.29,-231.73 662.01,-291.48 555.93,285.97 -99.13,-110.82 -25.82,-66.91 -64.56,-189.14 -86.49,-272.9 -296.97,-165.82 -491.37,-96.83zm1971 7459.09l7758.2 2.36 -1.08 -2525.6c-135.02,-15.46 -558.98,-307.97 -682.56,-385.53 -227,-142.46 -478.69,-202.07 -722.05,-328.9 -596.69,-310.98 -1070.02,-682.88 -1651.83,-985.54 -806,-419.3 -362.02,-215.06 -955.57,-630.03 -114.37,-79.97 -195.12,-154.07 -308.45,-226.4l-659 -391.8c-218.24,-140.82 -395.56,-292.59 -569.5,-482.06 -452.8,-493.21 -1121.54,-391.6 -1670.49,-453.36 -135.97,-15.29 -258.99,-80.75 -380.78,-132.22 -502.88,-212.53 -77.23,78.11 -809.29,-170.75 -346.83,-117.9 -360.85,-255.11 -432.48,-636.84 -194.33,-1035.51 -1090.34,-556.01 -1459.49,-29.32 -64.73,92.34 -128.63,232.93 -199.86,313.32 -182.21,22.29 -213.53,-83.68 -303.34,-174.29 -85.99,-86.76 -175.99,-129.96 -253.03,-210.36 -76.99,-80.34 -127.09,-196.85 -208,-273.06 -83.54,-78.68 -178.94,-125.86 -267.05,-196.07 -214.87,-171.19 -206.68,-374.23 -245.24,-703.19 -23.98,-204.59 -50.25,-408.16 -102.59,-606.52l-61.17 -169.13 -92.03 192.13c-61.17,-9.05 -55.49,-2.33 -73.44,-58.57 -9.52,-29.82 -4.86,-33.03 -12.77,-58.2 -15.47,-49.14 9.62,-8.11 -20.71,-44.98 -142.74,11.86 -192.98,102.23 -533.87,106.53 -202.15,2.55 -403.45,-0.44 -579.45,70.8 -159.26,64.46 -270.43,145.78 -422.32,219.01 -218.92,105.55 -193.45,116.44 -257.3,365.88 -99.59,389.07 -84.65,754.47 132.45,1030.06 340.93,432.79 617.5,-2.45 962.38,151.57 -10.87,71.36 42.84,27.34 -51.04,59.38 -161.56,55.13 -407.81,-34.4 -544.54,70.88 69.63,60.8 184.23,62.62 257.89,109.14 101.75,64.25 99.94,118.7 160.64,195.57 80.91,102.48 303.29,104.2 436.94,57.02 29.05,-10.26 176.31,-100 127.97,21.91 -1.19,3.01 -3.98,7.91 -5.84,10.6 -45.04,64.99 -369.59,76.4 -432.71,70.76 -340.42,-30.45 1.24,-479.19 -1264.76,-454.5 -572.82,11.18 -898.79,85.15 -1376.33,341.45 -108.54,58.25 -253.59,185.6 -373.62,167.92 58.24,-149.89 298.26,-208.04 434.31,-267.87 834.66,-367.03 768.52,-321.76 1764.29,-290.8 -41.3,-96.95 -146.4,-165.33 -208.81,-272.43 -57.74,-99.07 -89.33,-239.17 -163.46,-299.79 -137.26,-112.24 -571.81,-165.87 -789.15,-158.87 -356.1,11.46 -507.93,14.38 -764.62,183.41 -189.68,124.9 -355.75,274.63 -504.39,426.15 -7.59,279.62 166.25,831.46 270.14,1052.16 125.55,266.73 292.76,461.65 499.19,640.49 33.52,29.04 56.01,40.05 90.73,70.38 804.46,702.79 588.66,685.88 1089.42,1511.86 223.14,33.06 1255.96,-100.61 1653.84,-106.84 759.71,-11.9 938.41,72.8 1601.26,144.87 -52.55,-282.47 -179.26,-584.55 -274.45,-844.85 -102.74,-280.96 -242.7,-505.87 -396.67,-707.86 -247.44,-324.59 -648.7,-724.08 -981.92,-960.09 -64.12,-45.42 -91.77,-49.18 -119.3,-134.31 281.89,39.23 1024.28,864.99 1179.9,1069.04 267.73,351.08 405.92,709.89 555.21,1155.33 43.23,128.98 76.31,315.21 120.74,430.54 103.69,21.57 276.1,73.38 368.31,82.17 117.05,11.15 182.6,-132.53 235.78,-188.63 117.9,-124.37 307.24,-321.59 382.55,-472.49 165.04,-330.72 -93.46,-818.36 -17.06,-1335.97 13.29,-90.03 -2.35,-128.18 1.48,-212.22 93.23,-54.78 240.05,-38.3 365.28,-79.7 776.93,-256.83 729.06,-1538.77 -107.88,-1388.12 -203.56,36.64 -84.98,165.52 -266.41,142.36 -8.64,-93.96 6.97,-113.26 82.74,-149.8 769.24,-371 1243.88,550.71 652.94,1258.26 -54.03,64.69 -172.66,160.56 -282.81,198.68l-368.4 97.02c21.82,117.86 -17.69,189.39 -27.81,312.5 -27.43,333.53 155.1,639.61 90.5,976.26 -79.96,416.7 -424.32,534.04 -580.98,859.37 163.44,166.65 726.33,15.39 916.4,-60.22 266.9,-106.16 578.63,-197.29 896.9,-206.45 310.91,-8.94 742.02,150.49 953.22,-10.09 102.15,-77.66 196.81,-161.64 309.45,-243.4 96.37,-69.94 221.44,-180.54 377.18,-138.8 -59.86,63.34 -251.15,124.32 -346.05,205.81 -578.83,497.07 -579.81,266.19 -1239.36,256.98 -427.89,-5.97 -544.55,83 -899.99,205.25 -311.95,107.29 -569.36,167.31 -924.6,105.92 -667.14,-115.28 -1174.38,-282.15 -1899.76,-294.29 -697.91,-11.68 -1422.71,154.19 -2087.83,111.54 -35.41,-107.44 -168.95,-338.38 -228.6,-448.98 -135.45,-251.11 -199.27,-397.17 -379.52,-617.95l-158.55 -162.35c-34.52,-34.38 -46.43,-60.27 -83.16,-94.66 -141.63,-132.62 -300.08,-246.14 -430.52,-389.48 -547.19,-601.33 -499.15,-780.82 -693.74,-1611.74 -226.03,47.31 -344.38,142.79 -541.39,-146.25 -55.93,-82.07 -101.97,-168.55 -156.68,-252.91 -49.94,-77.01 -89.37,-168.18 -224.4,-123.8 -91.42,30.04 -187.6,99.01 -244.92,166.29 -285.85,335.53 554.06,873.07 727.84,1123.98 125.4,181.07 100.34,455.36 -117.33,520.4 -122.89,36.72 -225.05,-7.73 -307.49,-60.01 -166,-105.27 -294.13,-227.26 -426.67,-356.85 -774.87,-757.6 -459.18,576.21 -434.31,936.26 17.71,256.47 7.74,510.96 -138.91,667.39 -96.65,103.09 -73.8,133.96 -60.81,294.54 29,358.46 383.49,1075.54 508.05,1487.32 91.39,302.16 218.18,564.1 349.57,844.09 91.22,194.37 35.33,170.86 157.82,192.04 14.98,251.57 31.24,522.7 147.58,714.27 94.47,155.56 269.38,327.61 408.02,429.19 384.3,281.6 731.12,334.61 1295.49,400 503.35,58.33 1008.51,107.15 1508.3,182.26 905.01,136.02 2097.87,483.63 2995.68,286.8 252.47,-55.35 390.86,-154.06 612.01,-224.97 1061.16,-340.25 1796.69,-411.61 2922.53,-436.05 125.58,-2.72 696.57,-38.39 764.36,53.29 -32.73,39.14 3.17,15.96 -52.63,30.88 -88.39,23.63 -279.83,-0.31 -373.14,-1.13 -147.83,-1.29 -297.9,-5.25 -445.48,-2.64 -280.85,4.96 -562.75,29.88 -843.42,48.33 -80.33,228.88 390.55,512.09 451.48,650.91z"/>
  <path class="fil4" d="M840.96 9879.46c69.97,105.75 70.7,179.55 159.64,279.29 58.84,65.98 175.5,161.44 274.36,203.16 -18.7,-654.53 -184.01,-749.14 -166.72,-941.18 226.37,78.87 178.02,669.72 292.29,1087.15 65.6,239.69 -76.02,390.71 100.41,593.86 164.72,189.66 329.93,38 374.76,-176.82 86.96,-416.74 -21.37,-894.1 -57.63,-1265.09 -39.58,-405.04 294.06,-482.87 528.35,-240.63 61.78,63.87 121.83,101 187.67,168.63 575.87,591.59 805.71,264.87 737.72,46.76 -41.84,-134.19 -245.5,-291.48 -320.43,-374.83 -181.46,-201.87 -646.75,-521.96 -528.14,-832.88 50.3,-131.85 204.52,-311.66 365.4,-328.07 353.2,-36.03 432.12,690.65 776.19,599.98 166.32,-43.82 31.56,-403.81 14.49,-546.59 -37.11,-310.35 18.72,-345.92 -202.75,-493.44 -135.06,-89.97 -308.13,-167.5 -433.71,-260.89 -175.79,-130.73 -180.61,-227.24 -501.21,-164.11 -501.32,98.72 -787.34,20.03 -1286.63,103.85 -394.49,66.22 -732.27,225.39 -840.07,549.43 -73.74,221.68 -25.3,371.22 21.95,585.71 137.83,625.61 -85.22,1496.79 219.55,1863.39 64.5,77.58 90.93,100.08 150.44,187.62 46.64,68.61 103.53,124.8 181.89,174.45 145.57,92.26 409.92,210.22 459.73,-32.81 36.39,-177.54 -149.7,-239.46 -303.23,-373.05 -61.94,-53.9 -333.11,-270.2 -204.32,-412.89z"/>
  <path class="fil4" d="M1305.54 10873.13c-21.79,153.53 14.49,315.3 74.26,438.99 46.75,96.75 153,247.75 275.87,230.53 23.19,-59.62 20.34,-152.93 22,-232.19 -430.74,-203.39 -201.98,-256.56 -372.13,-437.33z"/>
  <g id="_1775466481056">
   <path class="fil5" d="M2310.59 16128.75c225.31,-81.81 411.01,-137.36 578.52,-324.12 62.18,-69.32 140.98,-195.56 210.26,-235.22 69.17,-39.59 254.41,-113.91 329.63,-137.43 -2.4,205.82 -148.45,502.88 -199,698.56 389.32,21.46 832.98,2.65 1228.24,2.65 205.99,0 3586.5,14.25 3652.39,-7.32 44.5,-14.56 18.15,-1.18 47.35,-25.03 -376,53.52 -1911.78,-273.33 -2379.72,-350.74 -779.66,-128.99 -1660.69,-85.2 -2290.64,-434.96 -249.84,-138.72 -566.51,-419.18 -670.45,-701.56 -63.42,-172.28 -66.13,-360.33 -137.75,-539.16 -65.55,-163.67 -135.38,-310.42 -206.22,-470.64 -138.88,-314.05 -250.68,-654.14 -368.12,-985.96 -58.07,-164.06 -115.94,-335.63 -180.21,-496.83 -62.23,-156.09 -146.63,-329.1 -172.31,-510.07 -349.87,37.56 -416.95,-122.13 -479.31,-423.88 -128.24,-620.56 -232.05,-87.38 -677.99,-676.09 -155.85,-205.75 -246.68,-309.04 -267.63,-620.24 -11.99,-178.21 -69.78,-177.71 -233.28,-214.88 -42.32,11.6 -48.74,-22.83 -44.94,161.52 19.51,946.8 0.55,2093.3 0.55,3046.62 0,1083.07 0,2166.14 0,3249.22l2260.63 -4.44z"/>
   <path class="fil5" d="M8732.14 16102.85c27.84,21.6 -3.32,7.65 41.15,19.42 77.38,20.49 905.01,11.19 991.02,11.19l-9.72 -198.29c-10.09,-93.83 -2.12,-30.6 -21.88,-52.96 -219.71,105.14 -712.31,287.1 -1000.57,220.64z"/>
  </g>
  <path class="fil5" d="M7059.44 9305.04c-340.42,-30.45 1.24,-479.19 -1264.76,-454.5 -572.82,11.18 -898.79,85.15 -1376.33,341.45 -108.54,58.25 -253.59,185.6 -373.62,167.92 58.24,-149.89 298.26,-208.04 434.31,-267.87 834.66,-367.03 768.52,-321.76 1764.29,-290.8 -41.3,-96.95 -146.4,-165.33 -208.81,-272.43 -57.74,-99.07 -89.33,-239.17 -163.46,-299.79 -137.26,-112.24 -571.81,-165.87 -789.15,-158.87 -356.1,11.46 -507.93,14.38 -764.62,183.41 -189.68,124.9 -355.75,274.63 -504.39,426.15 -7.59,279.62 166.25,831.46 270.14,1052.16 125.55,266.73 292.76,461.65 499.19,640.49 33.52,29.04 56.01,40.05 90.73,70.38 1807.92,1807.83 -145.92,1716.35 2743.26,1405.02 759.71,-11.9 938.41,72.8 1601.26,144.87 -52.55,-282.47 -179.26,-584.55 -274.45,-844.85 -230.37,-630 -843.16,-1288.72 -1378.59,-1667.95 -95.52,-67.66 990.69,-59.01 -305,-174.79z"/>
  <path class="fil2" d="M1305.54 10873.13c170.15,180.77 -58.61,233.94 372.13,437.33 -1.66,79.26 1.19,172.57 -22,232.19 -122.87,17.22 -229.12,-133.78 -275.87,-230.53 -59.77,-123.69 -96.05,-285.46 -74.26,-438.99zm-464.58 -993.67c-128.79,142.69 142.38,358.99 204.32,412.89 153.53,133.59 339.62,195.51 303.23,373.05 -49.81,243.03 -314.16,125.07 -459.73,32.81 -78.36,-49.65 -135.25,-105.84 -181.89,-174.45 -59.51,-87.54 -85.94,-110.04 -150.44,-187.62 -304.77,-366.6 -81.72,-1237.78 -219.55,-1863.39 -47.25,-214.49 -95.69,-364.03 -21.95,-585.71 107.8,-324.04 445.58,-483.21 840.07,-549.43 499.29,-83.82 785.31,-5.13 1286.63,-103.85 320.6,-63.13 325.42,33.38 501.21,164.11 125.58,93.39 298.65,170.92 433.71,260.89 221.47,147.52 165.64,183.09 202.75,493.44 17.07,142.78 151.83,502.77 -14.49,546.59 -344.07,90.67 -422.99,-636.01 -776.19,-599.98 -160.88,16.41 -315.1,196.22 -365.4,328.07 -118.61,310.92 346.68,631.01 528.14,832.88 74.93,83.35 278.59,240.64 320.43,374.83 67.99,218.11 -161.85,544.83 -737.72,-46.76 -65.84,-67.63 -125.89,-104.76 -187.67,-168.63 -234.29,-242.24 -567.93,-164.41 -528.35,240.63 36.26,370.99 144.59,848.35 57.63,1265.09 -44.83,214.82 -210.04,366.48 -374.76,176.82 -176.43,-203.15 -34.81,-354.17 -100.41,-593.86 -114.27,-417.43 -65.92,-1008.28 -292.29,-1087.15 -17.29,192.04 148.02,286.65 166.72,941.18 -98.86,-41.72 -215.52,-137.18 -274.36,-203.16 -88.94,-99.74 -89.67,-173.54 -159.64,-279.29zm9104.47 -1521.76c-495.98,400.87 -434.94,539.73 -569.1,636.55 -132.5,-55.76 -159.11,-136.04 -269.83,-222.69 -372.79,-291.74 -174.25,-294.39 -474.16,-488.63 -531.53,-344.25 -287.75,-428.69 -414.67,-1027.01 -28.07,-132.32 -112.03,-656.58 -252.22,-720.71l-6.09 151.82c-136.07,-21.4 -68.34,-16.08 -185.03,17 -334.14,94.73 -101.33,97.05 -589.76,102.28 -873.88,9.34 -935.89,546.91 -1416.18,313.85 -179.36,-87.03 -467.39,-213.5 -504.19,-405.57l281.37 -69.17c-4.85,-235.83 -221.49,-292.14 -152.02,-649.26 72.86,-374.5 274.07,-139.37 508.99,-291.5 5.43,-110.35 -44.93,-160.74 -52,-286.82 268.36,-160.8 338,-150.92 681.52,-224.52 244.69,-52.43 460.34,-145.15 646.61,-260.52 162.52,-100.66 377.94,-282.47 575.34,-334.8 225.58,-59.81 537.44,-68.3 674.04,-207.33 -27.83,-111.83 -118.6,-119.02 -208.58,-200.25 11.78,-13.97 4.68,-9.62 27.68,-24.34 62.2,-39.8 169.8,-41.43 238.28,-35.09 165.85,15.37 159.77,43.57 233.75,-80.85 120.47,-202.63 129.73,-240.56 379.93,-99.13 206.48,116.72 204.78,127.5 491.04,153.47 193.49,17.55 388.26,25.37 583.05,36.8 533.96,31.34 611.46,8.85 902.67,362.72 235.42,286.08 253.06,186.2 335.06,306.91 87.11,128.23 152.38,255.66 235.14,388.13 174.05,278.57 367.11,529.06 429.7,834.81 70.45,344.1 170.51,755.42 153.7,1114.74 -9.59,205.11 -34.57,391.51 -37.34,604.76 -10.07,777.69 -100.57,689.05 -128.7,1138.67 -12.25,195.76 -12.58,379.49 -49.88,569.4 -158.63,-1.48 -363.25,-70.63 -497.73,-123.75 -503.99,-199.04 -221.82,-912.35 -652.67,-1165.02 -306.21,-179.58 -722.13,26.97 -917.72,185.05zm-9894.78 1240.41c-94.93,-40.6 -22.6,-12.3 -51.05,7.96 21.85,111.76 2.06,5.65 94.75,69.76 163.5,37.17 221.29,36.67 233.28,214.88 20.95,311.2 111.78,414.49 267.63,620.24 445.94,588.71 549.75,55.53 677.99,676.09 62.36,301.75 129.44,461.44 479.31,423.88 25.68,180.97 110.08,353.98 172.31,510.07 64.27,161.2 122.14,332.77 180.21,496.83 117.44,331.82 229.24,671.91 368.12,985.96 70.84,160.22 140.67,306.97 206.22,470.64 71.62,178.83 74.33,366.88 137.75,539.16 103.94,282.38 420.61,562.84 670.45,701.56 629.95,349.76 1510.98,305.97 2290.64,434.96 467.94,77.41 2003.72,404.26 2379.72,350.74l574.16 2.01c288.26,66.46 780.86,-115.5 1000.57,-220.64 19.76,22.36 11.79,-40.87 21.88,52.96 20.54,50.06 29.44,89.86 26.13,157.01 -4.42,89.76 -52.67,68.48 26,115.62 48.62,-83.26 -25.12,-46.99 30.56,-138.62l-3.77 -192.3c98.92,-90.55 644.69,-233.95 827.51,-265.47 313.38,-54.02 653.92,-95.76 978.59,-106.03 37.41,170.54 80.18,249.71 170.49,343.29 34.99,36.25 230.54,235.23 262.51,252.5 62.7,63.86 53.88,94.67 172.84,102.23l-53.61 -72.56c-60.93,-138.82 -531.81,-422.03 -451.48,-650.91 280.67,-18.45 562.57,-43.37 843.42,-48.33 147.58,-2.61 297.65,1.35 445.48,2.64 93.31,0.82 284.75,24.76 373.14,1.13 55.8,-14.92 19.9,8.26 52.63,-30.88 -67.79,-91.68 -638.78,-56.01 -764.36,-53.29 -1125.84,24.44 -1861.37,95.8 -2922.53,436.05 -221.15,70.91 -359.54,169.62 -612.01,224.97 -897.81,196.83 -2090.67,-150.78 -2995.68,-286.8 -499.79,-75.11 -1004.95,-123.93 -1508.3,-182.26 -564.37,-65.39 -911.19,-118.4 -1295.49,-400 -138.64,-101.58 -313.55,-273.63 -408.02,-429.19 -116.34,-191.57 -132.6,-462.7 -147.58,-714.27 -122.49,-21.18 -66.6,2.33 -157.82,-192.04 -131.39,-279.99 -258.18,-541.93 -349.57,-844.09 -124.56,-411.78 -479.05,-1128.86 -508.05,-1487.32 -12.99,-160.58 -35.84,-191.45 60.81,-294.54 146.65,-156.43 156.62,-410.92 138.91,-667.39 -24.87,-360.05 -340.56,-1693.86 434.31,-936.26 132.54,129.59 260.67,251.58 426.67,356.85 82.44,52.28 184.6,96.73 307.49,60.01 217.67,-65.04 242.73,-339.33 117.33,-520.4 -173.78,-250.91 -1013.69,-788.45 -727.84,-1123.98 57.32,-67.28 153.5,-136.25 244.92,-166.29 135.03,-44.38 174.46,46.79 224.4,123.8 54.71,84.36 100.75,170.84 156.68,252.91 197.01,289.04 315.36,193.56 541.39,146.25 194.59,830.92 146.55,1010.41 693.74,1611.74 130.44,143.34 288.89,256.86 430.52,389.48 36.73,34.39 48.64,60.28 83.16,94.66l158.55 162.35c180.25,220.78 244.07,366.84 379.52,617.95 59.65,110.6 193.19,341.54 228.6,448.98 665.12,42.65 1389.92,-123.22 2087.83,-111.54 725.38,12.14 1232.62,179.01 1899.76,294.29 355.24,61.39 612.65,1.37 924.6,-105.92 355.44,-122.25 472.1,-211.22 899.99,-205.25 659.55,9.21 660.53,240.09 1239.36,-256.98 94.9,-81.49 286.19,-142.47 346.05,-205.81 -155.74,-41.74 -280.81,68.86 -377.18,138.8 -112.64,81.76 -207.3,165.74 -309.45,243.4 -211.2,160.58 -642.31,1.15 -953.22,10.09 -318.27,9.16 -630,100.29 -896.9,206.45 -190.07,75.61 -752.96,226.87 -916.4,60.22 156.66,-325.33 501.02,-442.67 580.98,-859.37 64.6,-336.65 -117.93,-642.73 -90.5,-976.26 10.12,-123.11 49.63,-194.64 27.81,-312.5l368.4 -97.02c110.15,-38.12 228.78,-133.99 282.81,-198.68 590.94,-707.55 116.3,-1629.26 -652.94,-1258.26 -75.77,36.54 -91.38,55.84 -82.74,149.8 181.43,23.16 62.85,-105.72 266.41,-142.36 836.94,-150.65 884.81,1131.29 107.88,1388.12 -125.23,41.4 -272.05,24.92 -365.28,79.7 -3.83,84.04 11.81,122.19 -1.48,212.22 -76.4,517.61 182.1,1005.25 17.06,1335.97 -75.31,150.9 -264.65,348.12 -382.55,472.49 -53.18,56.1 -118.73,199.78 -235.78,188.63 -92.21,-8.79 -264.62,-60.6 -368.31,-82.17 -44.43,-115.33 -77.51,-301.56 -120.74,-430.54 -149.29,-445.44 -287.48,-804.25 -555.21,-1155.33 -155.62,-204.05 -898.01,-1029.81 -1179.9,-1069.04 27.53,85.13 55.18,88.89 119.3,134.31 333.22,236.01 734.48,635.5 981.92,960.09 153.97,201.99 293.93,426.9 396.67,707.86 95.19,260.3 221.9,562.38 274.45,844.85 -662.85,-72.07 -841.55,-156.77 -1601.26,-144.87 -397.88,6.23 -1430.7,139.9 -1653.84,106.84 -500.76,-825.98 -284.96,-809.07 -1089.42,-1511.86 -34.72,-30.33 -57.21,-41.34 -90.73,-70.38 -206.43,-178.84 -373.64,-373.76 -499.19,-640.49 -103.89,-220.7 -277.73,-772.54 -270.14,-1052.16 148.64,-151.52 314.71,-301.25 504.39,-426.15 256.69,-169.03 408.52,-171.95 764.62,-183.41 217.34,-7 651.89,46.63 789.15,158.87 74.13,60.62 105.72,200.72 163.46,299.79 62.41,107.1 167.51,175.48 208.81,272.43 -995.77,-30.96 -929.63,-76.23 -1764.29,290.8 -136.05,59.83 -376.07,117.98 -434.31,267.87 120.03,17.68 265.08,-109.67 373.62,-167.92 477.54,-256.3 803.51,-330.27 1376.33,-341.45 1266,-24.69 924.34,424.05 1264.76,454.5 63.12,5.64 387.67,-5.77 432.71,-70.76 1.86,-2.69 4.65,-7.59 5.84,-10.6 48.34,-121.91 -98.92,-32.17 -127.97,-21.91 -133.65,47.18 -356.03,45.46 -436.94,-57.02 -60.7,-76.87 -58.89,-131.32 -160.64,-195.57 -73.66,-46.52 -188.26,-48.34 -257.89,-109.14 136.73,-105.28 382.98,-15.75 544.54,-70.88 93.88,-32.04 40.17,11.98 51.04,-59.38 -344.88,-154.02 -621.45,281.22 -962.38,-151.57 -217.1,-275.59 -232.04,-640.99 -132.45,-1030.06 63.85,-249.44 38.38,-260.33 257.3,-365.88 151.89,-73.23 263.06,-154.55 422.32,-219.01 176,-71.24 377.3,-68.25 579.45,-70.8 340.89,-4.3 391.13,-94.67 533.87,-106.53 30.33,36.87 5.24,-4.16 20.71,44.98 7.91,25.17 3.25,28.38 12.77,58.2 17.95,56.24 12.27,49.52 73.44,58.57l92.03 -192.13 61.17 169.13c52.34,198.36 78.61,401.93 102.59,606.52 38.56,328.96 30.37,532 245.24,703.19 88.11,70.21 183.51,117.39 267.05,196.07 80.91,76.21 131.01,192.72 208,273.06 77.04,80.4 167.04,123.6 253.03,210.36 89.81,90.61 121.13,196.58 303.34,174.29 71.23,-80.39 135.13,-220.98 199.86,-313.32 369.15,-526.69 1265.16,-1006.19 1459.49,29.32 71.63,381.73 85.65,518.94 432.48,636.84 732.06,248.86 306.41,-41.78 809.29,170.75 121.79,51.47 244.81,116.93 380.78,132.22 548.95,61.76 1217.69,-39.85 1670.49,453.36 173.94,189.47 351.26,341.24 569.5,482.06l659 391.8c113.33,72.33 194.08,146.43 308.45,226.4 593.55,414.97 149.57,210.73 955.57,630.03 581.81,302.66 1055.14,674.56 1651.83,985.54 243.36,126.83 495.05,186.44 722.05,328.9 123.58,77.56 547.54,370.07 682.56,385.53 53.55,0.32 26.91,27.7 21.58,-20.68 -56.94,-18.44 -40.85,-20.58 -63,-39.48 -54.58,-100.04 -732.91,-472.08 -916.66,-548.8 -376.25,-157.1 -655.69,-325.44 -993.72,-503.25 -168.39,-88.57 -307.08,-197.64 -460.7,-287.38 -535.09,-312.61 -904.63,-477.89 -1381.5,-863.3 -277.92,-224.62 -548.4,-416.49 -891.45,-605.07 -942.39,-518.06 -700.51,-937.4 -1931.29,-1063.5 -711.84,-72.93 -504.1,70.61 -1209.78,-277.94 -41.34,-791.63 3.07,-451.87 101.99,-1026.04 60.82,-353.07 40.34,-736.04 77.76,-1098.59 43.72,-423.54 -45.41,-636.08 -102.6,-1025.67 -77.9,-530.67 -285.3,-789.5 -551.57,-1193.36 -115.2,-174.72 -103.85,-279.34 -232.4,-355.3 -308.37,-182.2 -383.18,-463.59 -621.57,-555.01 -153.93,-59.04 -863.41,-95.56 -1071.48,-105.14 -279.08,-12.85 -266.9,15.38 -476.05,-110.62 -128.07,-77.15 -262.45,-140.67 -446.14,-146.75 -51.57,89.38 -119.66,187.32 -177.17,277.91 -164.99,4.04 -388.14,-27.25 -533.03,41.72 3.69,153.75 105.89,182.01 193.29,253.43 -154.07,132.08 -459.28,118.08 -652.05,210.94 -228.27,109.95 -353,228.48 -546.56,344.43 -184.02,110.23 -417.94,166.39 -657.58,216.33 -274.67,57.23 -423.22,137.35 -663.1,227.11 -10.23,111.81 50.43,232.89 21.43,322.31 -286.14,17.89 -400.08,5.74 -457.63,290.8 -72.09,357.06 84.64,368.44 108.09,610.88l-267.87 100.21c28.44,288.53 507.16,526.36 837.57,596.45 -27.38,299.58 -102.77,522.67 -109.91,848.5 -255.26,-3.32 -1044.61,-394.79 -1744.55,143.23 -113.9,87.56 -283.18,299.66 -394.44,342.74 -31.92,-121.86 -63.39,-237.81 -83.71,-372.41 -18.07,-119.65 -11.1,-337.59 -49.09,-432.21 -61.44,-153 -379.58,-312.09 -546.2,-416.63 -215.21,-135.02 -312.1,-320.59 -676.8,-229.77 -630.94,157.12 -1930.34,-92.14 -2161.77,706.3 -97.33,335.82 30.17,511.31 57.67,823.51 27.27,309.68 17.88,643.95 9.25,955.15l-255.57 -44.54z"/>
 </g>
</svg>
