<?xml version="1.0" encoding="UTF-8"?>
<!DOCTYPE svg PUBLIC "-//W3C//DTD SVG 1.1//EN" "http://www.w3.org/Graphics/SVG/1.1/DTD/svg11.dtd">
<!-- Creator: CorelDRAW 2017 -->
<svg xmlns="http://www.w3.org/2000/svg" xml:space="preserve" width="40mm" height="40mm" version="1.1" style="shape-rendering:geometricPrecision; text-rendering:geometricPrecision; image-rendering:optimizeQuality; fill-rule:evenodd; clip-rule:evenodd"
viewBox="0 0 4000 4000"
 xmlns:xlink="http://www.w3.org/1999/xlink">
 <defs>
  <style type="text/css">
   <![CDATA[
    .fil0 {fill:#B8BFDB}
    .fil2 {fill:#DADDEB}
    .fil1 {fill:#FDFDFD}
   ]]>
  </style>
 </defs>
 <g id="Capa_x0020_1">
  <metadata id="CorelCorpID_0Corel-Layer"/>
  <g id="_2712389218864">
   <path class="fil0" d="M-0 4000l246.27 0c3.19,-77.69 16.97,-126.24 43.08,-192.61 20.54,-52.2 32.5,-51.92 33.34,-57.39 -5.1,-26.32 -14.17,-103.31 -10.84,-121.46 26.42,2.84 136.81,124.12 257.92,184.84l157.64 66.34c57.83,19.31 116.41,55.22 181.17,46.02 2.56,-24.87 5.63,-55.81 7.56,-79.93 4.71,-58.75 -46.17,-101.8 -65.87,-187.43 -11.43,-49.63 -27.42,-76.36 -42.62,-123.46 -9.04,-27.98 -27.4,-127.14 -32.65,-138.95 -43.11,43.76 -16.32,179.11 -15.59,214.34 0.01,0.24 6.18,14.6 -9.41,36.43 -26.31,-15.64 -73.82,-84.83 -93.36,-111.75 -41.9,-57.72 -47.01,-58.72 -66.75,-134.27 -30.46,-116.59 -58.5,-197.82 -59.29,-342.39 -0.77,-142.07 -15.21,-97.46 122.55,-180.5 18.54,-11.17 50.43,-24.88 72.63,-28.74 61.95,-10.75 122.8,14.88 149.17,51.37 35.34,48.92 4.03,20.34 39.03,51.64 27.71,24.78 39.46,44.2 72.31,50.52 -1.72,-95.56 7.28,-223.52 53.58,-306.44 16.87,-30.21 39.45,-18.7 64.79,-4.52 -80.15,83.2 -46.09,90.98 -27.47,258.81 2.58,23.34 7.7,43.62 11.27,60.54 9.35,44.11 9.16,156.94 57.58,184.83 -3.06,-53.55 -39.98,-107.09 -20.08,-185.64 17.62,-69.53 18.82,-159.84 43.51,-265.79 4.4,-18.88 13.99,-51.81 21.9,-71.22 22.8,-55.99 21.35,-44.6 45.25,-50.75 -12.81,195.58 9.3,230.95 42.78,406.88 39.81,209.26 74.46,180.72 164.18,285.12l49.7 58.38c16.93,19.15 41.17,40.99 58.68,58.95l179.94 153.06c47.79,31.4 172.34,130.32 225.9,125.16 37.95,-3.65 115.24,-67.79 141.67,-84.81l144.08 -81.04c51.58,-33.55 85.91,-56.16 138.14,-88.95l250.06 -198.8c20.94,-18.64 63.35,-119.81 75.35,-149.22 18.75,-45.94 121.93,-308.36 117.94,-331.75 31.88,-77.38 1.42,-44.76 -16.66,-117.04 31.51,-2.89 51.25,-19.82 79.78,-6.52l51.39 48.57c56.04,65.47 56.4,24.73 75.45,134.88 12.69,73.41 19.35,116.44 22.9,195.42 20.6,-17.63 3.71,2.43 16.27,-18.3 22.25,-36.71 16.39,-174.19 12.14,-214.27 -23.7,-15.15 -20.66,-3.78 -31.68,-31.5l46.53 -37.44c89.92,83.82 67.48,136.09 102.18,165.03l22.41 -49.73 107.91 49.56c40.9,22.26 292.92,125.13 310.44,180.92 -2.74,49.08 -24.24,78.27 -43.65,123.91 -17.72,41.68 -36.1,82.82 -50.55,123.77l-143.29 289.23c-12.94,18.43 -6.24,6.16 -19.17,22.98l-57.88 65.69c-1.76,1.67 -6.89,6.66 -8.71,8.34l-13.67 11.89c-14.19,12.86 -9.29,7.9 -23.98,25.73 -21.63,26.24 -22.57,21.67 -42.41,41.05 -14.75,14.4 -29.77,35.57 -42.35,49.14 -25.79,27.83 -87.96,49.34 -61.78,91.32 31.32,-63.37 21.8,-5.26 149.9,-70.14 170.49,-86.35 202.86,-104.77 348.84,-208.75l14.7 -10.61c15.25,-12.19 2.23,-1.66 17.5,-16.1 23.71,-22.44 8.59,-16.1 36.52,-24.2 0.11,53.91 0.53,59.75 -12.61,107.69 -11.88,43.33 -0.79,60.26 17.01,96.86 27.6,56.75 53.91,116.75 54.44,197.2l257.04 0 0 -4000 -4000 0 0 4000z"/>
   <path class="fil1" d="M1744.88 937.85c-25.94,-12.63 -24.06,-6.53 -42.66,-33.28 -66.62,-95.87 -211.43,-147.48 -329.81,-166.36 -77.4,-12.35 -190.48,-17.22 -272.12,-11.27 -43.65,3.18 -216.82,19.27 -227.82,48.06 0.11,10.95 45.9,26.64 63.06,40.2 63.23,49.95 133.54,95.44 192.5,148.7 60.94,55.04 106.08,127.59 145.5,197.38 22.41,39.67 36.72,40.38 43.03,87.64 -115.76,-10.4 -78.85,-21.06 -195.76,12.94 -112.26,32.65 -229.17,73.66 -323.55,136.17 -33.94,22.48 -113.65,63.21 -133.33,101.97l38.63 17.13c76.25,18.72 262.35,70.76 308.38,97.89l97.35 67.89c11.41,7.85 23.4,14.02 36.66,22.23l103.27 71.19c28.51,19.44 18.85,5.95 30.41,35.49 -77.98,-15.15 -499.02,-63.3 -544.55,13.18 23.03,10.64 183.02,-23.49 232.51,-23.19 72.61,0.44 206.55,-1.63 258.25,23.44 -18.8,24.61 -159.82,43.71 -239.25,76.48l-66.32 27.33c-2.2,1.19 -4.88,3.16 -6.68,4.2 -1.84,1.06 -4.81,2.59 -6.71,4.5 57.25,29.65 154.45,38.81 229.71,76.14 77.33,38.35 119.86,33.48 218.47,99.18 24.4,16.27 30.41,23.13 58.41,40.57 27.85,17.34 52.41,19.09 63.04,46.35l-115.35 60.1c-63.95,36.02 -86.98,31.46 -87.04,58.33 42.53,9.05 114.15,4.44 160.23,4.67 63.01,0.32 114.03,11.17 167.17,10.89l-24.78 8.79c-35.78,10.92 -159.34,21.88 -169.43,57.22 20.28,7.58 190.45,-38.44 239.7,-37.89 -19.92,153.42 -57.97,110.46 -208.16,208.52 -75.1,49.04 -42.59,16.13 -124.15,1.96 2.25,65.24 -0.58,123.37 27.69,177.84l8.83 15.26c0.68,1.3 1.99,3.47 2.6,4.73l34.51 109.56c0.79,1.99 1.6,4.15 2.35,6.14 18.6,49.69 25.09,46.53 78.83,71.3 159.62,73.58 247.45,113.39 439.84,113.41 233.77,0.02 249.27,44.66 459.62,-78.54 61.42,-35.97 99.98,-65.86 168.83,-105.86 26.09,-15.15 51.69,-35.88 76.96,-55.69 28.6,-22.43 56.52,-37.83 82.08,-55.74 8.4,-56.37 16.4,-127.98 -28.41,-152.02 -50.28,-26.97 -86.88,-69.95 -133.6,-97.77 -87.98,-52.4 -102.27,-33.75 -104.63,-163.6 83.57,-32.21 198.36,-12.96 292.68,5.77 45.48,9.03 64.84,31.68 74.86,-0.72 -53.84,-16.99 -103.43,-18.7 -154.9,-31.38 -2.75,-0.68 -4.8,-1.21 -7.42,-1.96l-21.13 -8.32c19.88,-14.83 51.88,-19.96 77.79,-24.9 87.29,-16.63 212.89,-14.16 287.86,-29.28 -0.26,-33.09 -56.11,-54.16 -82.91,-65.79 -18.83,-8.16 -46.12,-18.61 -59.19,-23.65 -16.4,-6.32 -14.92,-2.97 -29.84,-11.36l-27.3 -22.98c44.19,-1.2 111.42,-6.33 152.53,0.85 26.59,4.65 103.14,22.31 128.67,10.45 -17.77,-41.5 -144.23,-32.07 -185.98,-30.34l-57.19 -2.07c-15.52,-4.28 -11.22,-3.1 -20.12,-9.27 9.9,-15.66 87.63,-43.8 114.87,-55.41 44.27,-18.87 83.52,-33.66 124.33,-51.06 41.52,-17.7 78.19,-34.64 122.02,-44.82 29.22,-6.78 38.64,-13.34 63.34,-19.66 34.2,-8.75 55.44,4.69 66.61,-20.71 -9.3,-23.07 2.34,-9.11 -35.68,-20.51 -80.46,-24.12 -171.71,-47.96 -254.82,-59.36l-96.96 -12.81c-2.6,-0.59 -4.92,-1.41 -7.21,-2.04l-13.54 -5.28c12.25,-36.53 69.93,-47.03 101.62,-61.89l219.98 -102.03c33.59,-17.04 96.97,-20.31 113.74,-52.74 -58.07,-32.87 -169.71,-74.31 -241.18,-78.32 -56.03,-3.14 -87.62,-9.96 -149.72,-9.56l-117.08 9.29c-63.56,-1.09 -18.74,2.73 -36.86,-13.09 1.98,-1.4 5.12,-5.6 6.27,-3.71l283.19 -54.61c-14.26,-34.46 -52.43,-14.24 -78.36,-8.94 -36.4,7.44 -70.06,9.38 -108.03,18.41 -56.77,13.49 -154.41,51.55 -198.89,57.21 0.82,-118.63 -17.37,-226.19 -96.82,-311.56 -37.56,-40.35 -65.62,-63.85 -111.68,-95.93 -23.61,-16.45 -37.12,-24.3 -62.25,-38.69 -37.67,-21.58 -41.57,-14.02 -77.76,-28.84 -33.06,-74.99 -0.8,-193.92 -14.17,-281.25 -8.68,-56.65 -32.59,-204.84 -62.56,-232.26 -9.19,15.93 28.13,135.36 33.9,205.03 6.94,83.82 14.01,162.24 10.92,254.71 -26.22,-10.98 -11.62,-1.92 -26.87,-24.43 -18.22,-26.91 -22.88,-65.39 -35.06,-97.64l-4.78 -11.77c-0.97,-2.44 -3.93,-9.49 -4.91,-11.94l-38.66 -94.37c-94.94,-197.07 -84.24,-183.34 -299.05,-291.06 -59.96,-30.07 -112.37,-71.67 -177.05,-88.9 -44.45,-11.84 -108.48,-22.45 -153.9,-28.93 9.4,44.86 35.8,95.68 55.97,143.04 48.64,114.22 134.79,331.86 134.37,447.62z"/>
   <path class="fil1" d="M246.27 4000l3496.69 0c-0.53,-80.45 -26.84,-140.45 -54.44,-197.2 -17.8,-36.6 -28.89,-53.53 -17.01,-96.86 13.14,-47.94 12.72,-53.78 12.61,-107.69 -27.93,8.1 -12.81,1.76 -36.52,24.2 -15.27,14.44 -2.25,3.91 -17.5,16.1l-14.7 10.61c-145.98,103.98 -178.35,122.4 -348.84,208.75 -128.1,64.88 -118.58,6.77 -149.9,70.14 -26.18,-41.98 35.99,-63.49 61.78,-91.32 12.58,-13.57 27.6,-34.74 42.35,-49.14 19.84,-19.38 20.78,-14.81 42.41,-41.05 14.69,-17.83 9.79,-12.87 23.98,-25.73l13.67 -11.89c1.82,-1.68 6.95,-6.67 8.71,-8.34l57.88 -65.69c12.93,-16.82 6.23,-4.55 19.17,-22.98l143.29 -289.23c14.45,-40.95 32.83,-82.09 50.55,-123.77 19.41,-45.64 40.91,-74.83 43.65,-123.91 -17.52,-55.79 -269.54,-158.66 -310.44,-180.92l-107.91 -49.56 -22.41 49.73c-34.7,-28.94 -12.26,-81.21 -102.18,-165.03l-46.53 37.44c11.02,27.72 7.98,16.35 31.68,31.5 4.25,40.08 10.11,177.56 -12.14,214.27 -12.56,20.73 4.33,0.67 -16.27,18.3 -3.55,-78.98 -10.21,-122.01 -22.9,-195.42 -19.05,-110.15 -19.41,-69.41 -75.45,-134.88 -55.25,-19.49 -19.47,-18.74 -68.07,-35.99 -1.29,42.96 -20.3,64.08 -23.8,100.54 -4.97,5.07 -16.95,7.11 -22.64,10.44 3.99,23.39 -99.19,285.81 -117.94,331.75 -12,29.41 -54.41,130.58 -75.35,149.22l-250.06 198.8c-52.23,32.79 -86.56,55.4 -138.14,88.95l-144.08 81.04c-26.43,17.02 -103.72,81.16 -141.67,84.81 -53.56,5.16 -178.11,-93.76 -225.9,-125.16l-179.94 -153.06c-17.51,-17.96 -41.75,-39.8 -58.68,-58.95l-49.7 -58.38c-89.72,-104.4 -124.37,-75.86 -164.18,-285.12 -33.48,-175.93 -55.59,-211.3 -42.78,-406.88 -23.9,6.15 -22.45,-5.24 -45.25,50.75 -7.91,19.41 -17.5,52.34 -21.9,71.22 -24.69,105.95 -25.89,196.26 -43.51,265.79 -19.9,78.55 17.02,132.09 20.08,185.64 -48.42,-27.89 -48.23,-140.72 -57.58,-184.83 -3.57,-16.92 -8.69,-37.2 -11.27,-60.54 -18.62,-167.83 -52.68,-175.61 27.47,-258.81 -25.34,-14.18 -47.92,-25.69 -64.79,4.52 -46.3,82.92 -55.3,210.88 -53.58,306.44 -32.85,-6.32 -44.6,-25.74 -72.31,-50.52 -35,-31.3 -3.69,-2.72 -39.03,-51.64 -26.37,-36.49 -87.22,-62.12 -149.17,-51.37 -22.2,3.86 -54.09,17.57 -72.63,28.74 -137.76,83.04 -123.32,38.43 -122.55,180.5 0.79,144.57 28.83,225.8 59.29,342.39 19.74,75.55 24.85,76.55 66.75,134.27 19.54,26.92 67.05,96.11 93.36,111.75 15.59,-21.83 9.42,-36.19 9.41,-36.43 -0.73,-35.23 -27.52,-170.58 15.59,-214.34 5.25,11.81 23.61,110.97 32.65,138.95 15.2,47.1 31.19,73.83 42.62,123.46 19.7,85.63 70.58,128.68 65.87,187.43 -1.93,24.12 -5,55.06 -7.56,79.93 -64.76,9.2 -123.34,-26.71 -181.17,-46.02l-157.64 -66.34c-121.11,-60.72 -231.5,-182 -257.92,-184.84 -3.33,18.15 5.74,95.14 10.84,121.46 -0.84,5.47 -12.8,5.19 -33.34,57.39 -26.11,66.37 -39.89,114.92 -43.08,192.61z"/>
   <path class="fil2" d="M2825.04 2775.42c5.69,-3.33 17.67,-5.37 22.64,-10.44 3.5,-36.46 22.51,-57.58 23.8,-100.54 48.6,17.25 12.82,16.5 68.07,35.99l-51.39 -48.57c-28.53,-13.3 -48.27,3.63 -79.78,6.52 18.08,72.28 48.54,39.66 16.66,117.04z"/>
  </g>
 </g>
</svg>
