<?xml version="1.0" encoding="UTF-8"?>
<!DOCTYPE svg PUBLIC "-//W3C//DTD SVG 1.1//EN" "http://www.w3.org/Graphics/SVG/1.1/DTD/svg11.dtd">
<!-- Creator: CorelDRAW 2017 -->
<svg xmlns="http://www.w3.org/2000/svg" xml:space="preserve" width="200mm" height="200mm" version="1.1" style="shape-rendering:geometricPrecision; text-rendering:geometricPrecision; image-rendering:optimizeQuality; fill-rule:evenodd; clip-rule:evenodd"
viewBox="0 0 20000 20000"
 xmlns:xlink="http://www.w3.org/1999/xlink">
 <defs>
  <style type="text/css">
   <![CDATA[
    .fil2 {fill:black}
    .fil5 {fill:#020201}
    .fil11 {fill:#030403}
    .fil4 {fill:#060708}
    .fil3 {fill:#171717}
    .fil12 {fill:#70140B}
    .fil1 {fill:#716D6B}
    .fil6 {fill:#B0B0B0}
    .fil19 {fill:#C87878}
    .fil10 {fill:#CE7A79}
    .fil9 {fill:#D11A01}
    .fil14 {fill:#D83A26}
    .fil18 {fill:#E36757}
    .fil15 {fill:#EBB1AF}
    .fil17 {fill:#ECA09E}
    .fil16 {fill:#F2C9C8}
    .fil13 {fill:#F2D9C5}
    .fil0 {fill:#F5D9C4}
    .fil7 {fill:#F6F6F5}
    .fil8 {fill:#FAFAFA}
   ]]>
  </style>
 </defs>
 <g id="Capa_x0020_1">
  <metadata id="CorelCorpID_0Corel-Layer"/>
  <rect class="fil0" width="20000" height="20000"/>
  <path class="fil1" d="M15524.47 11077.94c105.09,41.64 73.66,5.1 196.79,88.5l144.28 132.78c18.69,-238.85 204.51,-317.72 335.6,-442.05 183.12,-173.64 264.07,-261.06 526.05,-203.93l28.23 1947.3c-291.77,-21.12 -494.78,-166.86 -675.65,-258 -78.54,107.21 -152.94,220.23 -209.39,296.46 316.76,165.11 595.16,303.77 1009.5,295.84 159.54,-823.07 -107.06,-1910.11 9.88,-2743.29 884.9,-343.78 1508.75,-265.45 2440.86,-829.59 270.07,-163.45 416.75,-358.7 652.67,-473.24l-24.87 -68.49c-336.08,215.72 -693.57,496.05 -1120.18,663.65 -414.52,162.87 -831.83,248.9 -1252.69,385.26 -1565.78,507.34 -502.76,231.62 -1125.18,491.27 -422.37,176.2 -803.18,319.67 -935.9,717.53z"/>
  <path class="fil2" d="M16879.88 12934.84c732.95,-61.47 2074.64,-660.08 2757.21,-1022.41 135.96,-72.17 36.85,-34.05 167.45,-105.8 112.02,-61.53 77.04,-47.44 195.46,-76.02l-16.71 -2841.89c-235.92,114.54 -382.6,309.79 -652.67,473.24 -932.11,564.14 -1555.96,485.81 -2440.86,829.59 -116.94,833.18 149.66,1920.22 -9.88,2743.29z"/>
  <path class="fil0" d="M9500.86 5774.95l916.91 -36.14c-239.24,146.13 -610.85,335.16 -916.91,36.14zm1217.05 -354.71c90.54,-267.73 210.45,-477.82 421.98,-580.46 219.5,-106.51 595.22,-172.34 734.17,31.86 475.94,699.47 -835.8,526.91 -1156.15,548.6zm-2619.88 -42.66c-323.05,-244.29 -166.6,-676.57 351.36,-626.93 385.37,36.93 626.51,326.65 712.19,682.67 -413.74,-70.73 -800.92,54.27 -1063.55,-55.74zm-383.67 692.94c-825.9,-618.75 -626.01,-1715.38 -183.27,-2025.69 -360.76,1158.25 -216,1178.29 183.27,2025.69zm4460.07 -2215.87c735.39,372.96 698.84,2019.52 -79.7,2238.17 186.38,-136.96 420.83,-595.77 438.6,-1003.07 19.62,-449.5 -113.79,-990.19 -358.9,-1235.1zm-12174.43 4456.8c149.35,91.74 173.76,54.54 221.06,260.84 222.97,133.97 317.84,249.33 548.08,388.7 1213.49,734.55 1611.36,731.51 2926.52,1164.5 350.5,115.4 159.63,57.73 276.01,189.95 199.39,226.56 800.65,320.3 1025.93,803.46 891.04,-4.18 340.91,-138.95 880.66,-1398.99 494.64,-1154.74 1270.5,-1786.11 2414.3,-2210.71 882.95,-327.76 1220.32,-24.95 1797.18,288.01 486.25,-276.52 806.9,-607.76 1589.61,-352.8 336.46,109.6 1185.76,640.63 1404.59,843.77 871.7,809.25 1255.27,1437.63 1612.49,2781.58l828.04 8.18c132.72,-397.86 513.53,-541.33 935.9,-717.53 622.42,-259.65 -440.6,16.07 1125.18,-491.27 420.86,-136.36 838.17,-222.39 1252.69,-385.26 426.61,-167.6 784.1,-447.93 1120.18,-663.65l-3.33 -5698.74c-1444.8,-140.05 -3518.88,-18.15 -5032.93,-20.1 -1674.56,-2.18 -14410.58,-85.4 -14908.46,49.19 100.56,598.44 72.37,4502.68 -13.7,5160.87z"/>
  <path class="fil0" d="M17372.74 16870.85c70.12,-67.7 143.2,-51.53 203.84,-76.92 644.8,110.53 1359.11,162 2047.92,101.17l338.26 -10.34 37.24 -5154.15c-118.42,28.58 -83.44,14.49 -195.46,76.02 -130.6,71.75 -31.49,33.63 -167.45,105.8 -682.57,362.33 -2024.26,960.94 -2757.21,1022.41 -414.34,7.93 -692.74,-130.73 -1009.5,-295.84 -514.32,164.32 -989.74,372.76 -1585.07,519.62 -432.79,106.77 -440.29,-27.22 -645.01,378.63 -565.82,1121.73 -1258.89,2135.76 -2607.85,2498.84 -1680.98,452.43 -3335.76,-376.6 -4207.18,-1625.45 -1078.86,-1546.18 -274.06,-1160.07 -1485.52,-1510.91 -776.48,-224.89 -163.59,-225.5 -656.2,-301.1 -123.25,116.42 -937.96,370.05 -1112.97,398.64 -741.42,-78.85 -2520.51,-861.63 -3239.45,-1352.3 -130.75,-89.23 -43.18,-43.47 -204.47,-109.08 -177.98,82.84 -83.25,2298.65 -83.25,2603.27 0,871.05 -48.54,1892.11 10.65,2744.25l13098.48 -0.48c720.01,3.92 1460.33,14.22 2178.79,-2.2 258.31,-5.9 276.68,-11.07 500.25,38.16 17.66,3.9 34.63,13.12 52.02,16.21 16.63,2.93 34.3,9.28 50.93,10.84l345.93 -49.7c319.63,-37.22 831.9,-1.16 1153.48,17.83 -60.98,-73.61 17.46,-70.56 -61.2,-43.22z"/>
  <path class="fil3" d="M9500.86 5774.95c306.06,299.02 677.67,109.99 916.91,-36.14l-916.91 36.14z"/>
  <path class="fil4" d="M12174.43 3854.65c245.11,244.91 378.52,785.6 358.9,1235.1 -17.77,407.3 -252.22,866.11 -438.6,1003.07 778.54,-218.65 815.09,-1865.21 79.7,-2238.17z"/>
  <path class="fil4" d="M7714.36 6070.52c-399.27,-847.4 -544.03,-867.44 -183.27,-2025.69 -442.74,310.31 -642.63,1406.94 183.27,2025.69z"/>
  <path class="fil5" d="M10717.91 5420.24c320.35,-21.69 1632.09,150.87 1156.15,-548.6 -138.95,-204.2 -514.67,-138.37 -734.17,-31.86 -211.53,102.64 -331.44,312.73 -421.98,580.46z"/>
  <path class="fil5" d="M8098.03 5377.58c262.63,110.01 649.81,-14.99 1063.55,55.74 -85.68,-356.02 -326.82,-645.74 -712.19,-682.67 -517.96,-49.64 -674.41,382.64 -351.36,626.93z"/>
  <path class="fil1" d="M3570.58 12997.27c175.01,-28.59 989.72,-282.22 1112.97,-398.64 -93.09,-334.27 -137.1,-344.59 -111.83,-801.03 -126.13,245.51 -63.55,142.58 -52.92,456.48 -249.98,99.7 -381.73,271.43 -751.93,289.84l145.86 -1769.83c272.92,-2.74 603.2,378.88 785.21,583.95 154.77,-99.15 153.07,-81.44 299.66,-239.14 -225.28,-483.16 -826.54,-576.9 -1025.93,-803.46 -116.38,-132.22 74.49,-74.55 -276.01,-189.95 -1315.16,-432.99 -1713.03,-429.95 -2926.52,-1164.5 -230.24,-139.37 -325.11,-254.73 -548.08,-388.7 610.98,529.81 630.83,683.21 1568.46,1076.85 537.22,225.56 1474.78,453.34 2042.68,603.44l-261.62 2744.69z"/>
  <path class="fil6" d="M13371.89 11654.44c178.34,504.89 143.52,939.41 89.33,1490.98 509.55,-110.06 1015.4,-239.02 1513.97,-385.4 455.77,-133.8 958.47,-252.33 953.17,-798.54 -11.68,-1205.73 -1758.35,-466.98 -2556.47,-307.04z"/>
  <path class="fil6" d="M6611.17 13036.3c-115.93,-531.01 -21.82,-1075.98 134.75,-1551.19 -220.12,-52.37 -1089.65,-248.04 -1223.12,-255.97 -833.25,-49.54 -1103.22,1355.49 -93.38,1569.33 335.17,70.98 893.9,221.95 1181.75,237.83z"/>
  <path class="fil7" d="M10054.94 9544.46c3.32,445.65 732.99,358.58 936.3,-16.42l51.38 -95.23c76.57,69.9 22.32,-10.73 134.53,151.04 13.31,19.18 98.12,161.08 101.89,166.52l646.38 13.53c-461.59,-703.91 -1164.35,-310.74 -1870.48,-219.44z"/>
  <path class="fil7" d="M8309.73 9565.29c198.6,143.78 221.93,129.81 486.83,162.63 58.53,-50.86 49.14,-35.91 110.68,-108.14 14.8,-17.38 74.05,-98.05 93.5,-123.05l136.13 285.29c363.89,128.59 720.6,248.07 754.73,-248.83 -519.82,-6.75 -842.75,-55.31 -1278.46,-205.86l-303.41 237.96z"/>
  <path class="fil2" d="M126.66 11535.89c161.29,65.61 73.72,19.85 204.47,109.08 718.94,490.67 2498.03,1273.45 3239.45,1352.3l261.62 -2744.69c-567.9,-150.1 -1505.46,-377.88 -2042.68,-603.44 -937.63,-393.64 -957.48,-547.04 -1568.46,-1076.85 -47.3,-206.3 -71.71,-169.1 -221.06,-260.84 189.98,668.22 -116.34,2804.89 126.66,3224.44z"/>
  <path class="fil8" d="M11873.96 10569.08c-166.79,-192.83 -318.16,-375.98 -739.47,-281.62 -264.64,59.29 -529.77,327.95 -418.95,700.04 145.53,488.67 1249,646.97 1158.42,-418.42z"/>
  <path class="fil0" d="M4571.72 11797.6l126.22 -439.56c-182.01,-205.07 -512.29,-586.69 -785.21,-583.95l-145.86 1769.83c370.2,-18.41 501.95,-190.14 751.93,-289.84 -10.63,-313.9 -73.21,-210.97 52.92,-456.48z"/>
  <path class="fil9" d="M8669.32 9864.38c-1088.6,358.81 -2189.21,1694.93 -1826.18,3302.63 284.88,1261.67 1403.31,2173.91 2722,2366.2 3333.29,486.04 4953.06,-3490.84 2560.37,-5267.24 146.28,500.73 270.43,832.21 -144.14,1210.2 -287.11,261.77 -912.19,428.53 -1366.81,88.39 -196.43,-146.96 -52.62,-1.39 -166.12,-157.55 -195.77,-269.36 -234.7,-772 -62.33,-1063.29l52.94 -78.76c168.79,-209.79 197.93,-47.63 408.2,-290.09l-654.38 -49.12c-414.69,-136.62 -356.39,116.71 -867.66,15.53 -491.36,-97.26 -114.18,-142.5 -655.89,-76.9z"/>
  <path class="fil10" d="M11579.87 7953.19c122.15,20.64 186.28,-37.41 254.29,184.75 40.8,133.34 15.94,266.79 9.2,402.21 -279.19,5.38 -425.72,-56.68 -664.75,-52.59 -313.07,5.36 -274.29,84.71 -640.3,37.96 -24.1,-602.1 318.03,-811.89 780.22,-742.96 282.22,42.08 238.96,134.65 261.34,170.63zm-5809.92 3123.17c264.14,131.81 552.11,147.23 905.3,191.99l1197.55 -1794.89c934.95,-1084.45 1636.95,-264.72 2209.23,-313.98 806.11,-69.38 1380.7,-982.99 2428.92,790.29 103.85,175.7 219.73,278.44 325.61,421.15 222.1,299.3 436.62,630.14 656.3,941.63l738.31 -160.75c71.21,-1099.81 -611.21,-2067.23 -1321.47,-2761.06 -315.64,-308.32 -827.56,-567.26 -1331.99,-710.64 -850.09,-241.61 -985.24,220.34 -1513.16,398.71 -980.27,-1001.03 -1986.84,-306.2 -2814.85,293.49 -656.66,475.6 -1381.43,1549.24 -1479.75,2704.06z"/>
  <path class="fil11" d="M13461.22 13145.42l-42.08 108.63c300.53,175.68 36.06,458.73 -288.55,865.51 -127.76,160.07 -323.74,451.33 -480.64,604.63 -425.7,416.04 -230.61,365.99 -867.26,780.89 -851.82,555.15 -2710.28,553.91 -3596.11,-58.59 -631.72,-436.78 -394.82,-79.01 -443.65,-395.88 -275.81,-310.72 -491.18,-467.42 -762.46,-797.46 -218.33,-265.67 -516.75,-657.94 -645,-1011.93l-40.9 -56.4 337.98 -2.24 -21.38 -146.28c-287.85,-15.88 -846.58,-166.85 -1181.75,-237.83 -1009.84,-213.84 -739.87,-1618.87 93.38,-1569.33 133.47,7.93 1003,203.6 1223.12,255.97 199.57,-410.24 329.02,-706.37 594.17,-979.06 346.18,-356.05 721.26,-572.56 875.24,-737.02 183.67,7.49 248.96,-20.84 453.99,95.35 541.71,-65.6 164.53,-20.36 655.89,76.9 511.27,101.18 452.97,-152.15 867.66,-15.53 390.47,54.1 632.56,59.89 849.75,-186.39 127.16,74.12 209.71,130.69 461.51,113.15 660.66,32.98 815.99,241.77 1164.56,617.7 369.1,398.07 481.65,607.54 703.2,1184.23 798.12,-159.94 2544.79,-898.69 2556.47,307.04 5.3,546.21 -497.4,664.74 -953.17,798.54 -498.57,146.38 -1004.42,275.34 -1513.97,385.4zm-4848.08 -3818.09c435.71,150.55 758.64,199.11 1278.46,205.86 -34.13,496.9 -390.84,377.42 -754.73,248.83l-136.13 -285.29c-19.45,25 -78.7,105.67 -93.5,123.05 -61.54,72.23 -52.15,57.28 -110.68,108.14 -264.9,-32.82 -288.23,-18.85 -486.83,-162.63l303.41 -237.96zm1441.8 217.13c706.13,-91.3 1408.89,-484.47 1870.48,219.44l-646.38 -13.53c-3.77,-5.44 -88.58,-147.34 -101.89,-166.52 -112.21,-161.77 -57.96,-81.14 -134.53,-151.04l-51.38 95.23c-203.31,375 -932.98,462.07 -936.3,16.42zm-4284.99 1531.9c98.32,-1154.82 823.09,-2228.46 1479.75,-2704.06 828.01,-599.69 1834.58,-1294.52 2814.85,-293.49 527.92,-178.37 663.07,-640.32 1513.16,-398.71 504.43,143.38 1016.35,402.32 1331.99,710.64 710.26,693.83 1392.68,1661.25 1321.47,2761.06l-738.31 160.75c-219.68,-311.49 -434.2,-642.33 -656.3,-941.63 -105.88,-142.71 -221.76,-245.45 -325.61,-421.15 -1048.22,-1773.28 -1622.81,-859.67 -2428.92,-790.29 -572.28,49.26 -1274.28,-770.47 -2209.23,313.98l-1197.55 1794.89c-353.19,-44.76 -641.16,-60.18 -905.3,-191.99zm-772.35 42.54c-146.59,157.7 -144.89,139.99 -299.66,239.14l-126.22 439.56c-25.27,456.44 18.74,466.76 111.83,801.03 492.61,75.6 -120.28,76.21 656.2,301.1 1211.46,350.84 406.66,-35.27 1485.52,1510.91 871.42,1248.85 2526.2,2077.88 4207.18,1625.45 1348.96,-363.08 2042.03,-1377.11 2607.85,-2498.84 204.72,-405.85 212.22,-271.86 645.01,-378.63 595.33,-146.86 1070.75,-355.3 1585.07,-519.62 56.45,-76.23 130.85,-189.25 209.39,-296.46 116.34,-503.61 126.45,-749.22 -214.23,-1043.32l-144.28 -132.78c-123.13,-83.4 -91.7,-46.86 -196.79,-88.5l-828.04 -8.18c-357.22,-1343.95 -740.79,-1972.33 -1612.49,-2781.58 -218.83,-203.14 -1068.13,-734.17 -1404.59,-843.77 -782.71,-254.96 -1103.36,76.28 -1589.61,352.8 -576.86,-312.96 -914.23,-615.77 -1797.18,-288.01 -1143.8,424.6 -1919.66,1055.97 -2414.3,2210.71 -539.75,1260.04 10.38,1394.81 -880.66,1398.99z"/>
  <path class="fil12" d="M6745.92 11485.11c-156.57,475.21 -250.68,1020.18 -134.75,1551.19l21.38 146.28 -337.98 2.24 40.9 56.4 283.09 10.61c157.88,381.23 286.51,760.38 468.08,1034.06l656.29 764.72c48.83,316.87 -188.07,-40.9 443.65,395.88 885.83,612.5 2744.29,613.74 3596.11,58.59 636.65,-414.9 441.56,-364.85 867.26,-780.89 156.9,-153.3 352.88,-444.56 480.64,-604.63 324.61,-406.78 589.08,-689.83 288.55,-865.51l42.08 -108.63c54.19,-551.57 89.01,-986.09 -89.33,-1490.98 -221.55,-576.69 -334.1,-786.16 -703.2,-1184.23 -348.57,-375.93 -503.9,-584.72 -1164.56,-617.7 54.83,45.09 80.36,68.38 166.77,119.68 60.5,35.92 129.01,65.27 177.63,94.03 126.93,75.17 186.7,127.11 276.98,199.75 2392.69,1776.4 772.92,5753.28 -2560.37,5267.24 -1318.69,-192.29 -2437.12,-1104.53 -2722,-2366.2 -363.03,-1607.7 737.58,-2943.82 1826.18,-3302.63 -205.03,-116.19 -270.32,-87.86 -453.99,-95.35 -153.98,164.46 -529.06,380.97 -875.24,737.02 -265.15,272.69 -394.6,568.82 -594.17,979.06z"/>
  <path class="fil13" d="M15865.54 11299.22c340.68,294.1 330.57,539.71 214.23,1043.32 180.87,91.14 383.88,236.88 675.65,258l-28.23 -1947.3c-261.98,-57.13 -342.93,30.29 -526.05,203.93 -131.09,124.33 -316.91,203.2 -335.6,442.05z"/>
  <path class="fil14" d="M11722.9 11412.43c-118.12,219.59 53.73,44.26 -135.06,149.41 -3.41,1.91 -187.55,48.69 -198.68,49.97 -1071.81,122.91 -1246.09,-1285.38 -545.65,-1419.93 446.25,-4.24 761.87,-222.31 1080.73,206.38 272.61,366.51 71.42,805.84 -201.34,1014.17zm-1530.03 -1486.68l654.38 49.12c-210.27,242.46 -239.41,80.3 -408.2,290.09l-52.94 78.76c-172.37,291.29 -133.44,793.93 62.33,1063.29 113.5,156.16 -30.31,10.59 166.12,157.55 454.62,340.14 1079.7,173.38 1366.81,-88.39 414.57,-377.99 290.42,-709.47 144.14,-1210.2 -90.28,-72.64 -150.05,-124.58 -276.98,-199.75 -48.62,-28.76 -117.13,-58.11 -177.63,-94.03 -86.41,-51.3 -111.94,-74.59 -166.77,-119.68 -251.8,17.54 -334.35,-39.03 -461.51,-113.15 -217.19,246.28 -459.28,240.49 -849.75,186.39z"/>
  <path class="fil15" d="M11873.96 10569.08c90.58,1065.39 -1012.89,907.09 -1158.42,418.42 -110.82,-372.09 154.31,-640.75 418.95,-700.04 421.31,-94.36 572.68,88.79 739.47,281.62zm-1030.45 -377.2c-144.47,268.81 -182.13,216.53 -243.46,406.72 -207.75,644.16 275.37,966.79 1122.85,813.83 272.76,-208.33 473.95,-647.66 201.34,-1014.17 -318.86,-428.69 -634.48,-210.62 -1080.73,-206.38z"/>
  <path class="fil16" d="M11579.87 7953.19c-465.68,-32.12 -891.71,-124.23 -888.66,473.96l1027.52 -30.25c7.95,-303.06 -15.76,-128.11 -138.86,-443.71z"/>
  <path class="fil17" d="M11579.87 7953.19c123.1,315.6 146.81,140.65 138.86,443.71l-1027.52 30.25c-3.05,-598.19 422.98,-506.08 888.66,-473.96zm0 0c-22.38,-35.98 20.88,-128.55 -261.34,-170.63 -462.19,-68.93 -804.32,140.86 -780.22,742.96 366.01,46.75 327.23,-32.6 640.3,-37.96 239.03,-4.09 385.56,57.97 664.75,52.59 6.74,-135.42 31.6,-268.87 -9.2,-402.21 -68.01,-222.16 -132.14,-164.11 -254.29,-184.75z"/>
  <path class="fil18" d="M11722.9 11412.43c-847.48,152.96 -1330.6,-169.67 -1122.85,-813.83 61.33,-190.19 98.99,-137.91 243.46,-406.72 -700.44,134.55 -526.16,1542.84 545.65,1419.93 11.13,-1.28 195.27,-48.06 198.68,-49.97 188.79,-105.15 16.94,70.18 135.06,-149.41z"/>
  <path class="fil19" d="M7742.93 15050.61l-656.29 -764.72c-181.57,-273.68 -310.2,-652.83 -468.08,-1034.06l-283.09 -10.61c128.25,353.99 426.67,746.26 645,1011.93 271.28,330.04 486.65,486.74 762.46,797.46z"/>
 </g>
</svg>
