<?xml version="1.0" encoding="UTF-8"?>
<!DOCTYPE svg PUBLIC "-//W3C//DTD SVG 1.1//EN" "http://www.w3.org/Graphics/SVG/1.1/DTD/svg11.dtd">
<!-- Creator: CorelDRAW 2017 -->
<svg xmlns="http://www.w3.org/2000/svg" xml:space="preserve" width="180.622mm" height="180.622mm" version="1.1" style="shape-rendering:geometricPrecision; text-rendering:geometricPrecision; image-rendering:optimizeQuality; fill-rule:evenodd; clip-rule:evenodd"
viewBox="0 0 18062.2 18062.2"
 xmlns:xlink="http://www.w3.org/1999/xlink">
 <defs>
  <style type="text/css">
   <![CDATA[
    .fil0 {fill:none}
    .fil9 {fill:#231B16}
    .fil8 {fill:#4C4B4B}
    .fil6 {fill:#756A48}
    .fil5 {fill:#958C75}
    .fil4 {fill:#A7764C}
    .fil3 {fill:#B6AB77}
    .fil2 {fill:#BBBBBB}
    .fil11 {fill:#DDC25B}
    .fil10 {fill:#E5D483}
    .fil7 {fill:#F5EBD7}
    .fil12 {fill:#F9F1A9}
    .fil1 {fill:#FDDAE1}
   ]]>
  </style>
 </defs>
 <g id="Capa_x0020_1">
  <metadata id="CorelCorpID_0Corel-Layer"/>
  <rect class="fil0" width="18062.2" height="18062.2"/>
  <g id="_2326895222192">
   <path class="fil1" d="M16140.4 14036.84c-498.11,-6.47 -303.51,-244.58 -651.09,142.16 -252.89,281.29 -108.6,351.38 178.73,466.63 701.31,281.3 726.08,-205.52 472.36,-608.79z"/>
   <g>
    <path class="fil2" d="M7838.37 16730.26l-236.65 29.98c23.54,-73.64 0.64,-32.33 32.89,-85.46l59.11 -81.44c-188.41,4.47 -252.28,54.18 -413.14,13.65 -342.86,-86.41 -617.2,-589.75 -762.65,-701.26l-15.16 59.15c3.53,12.15 8.36,27.57 12.71,35.74l51.89 82.86c7.91,8.78 48.44,34.59 67.33,50.92 51.71,44.72 75.16,76.53 129.02,147.05 97.58,127.77 160.4,193.35 262.42,294.55 289.98,287.63 723.7,298.56 812.23,154.26z"/>
    <path class="fil2" d="M10856.55 1647.75c2.52,103.09 -14.78,25.12 22.77,122.26 95.69,247.58 99.83,277.63 249.46,353.72 106.97,-58.23 39.6,45.6 112.24,-119.22 -21.99,-98.13 -21.81,-64.37 -55.93,-119.95l-64.96 -211.36c-14.54,-90.39 -16.16,-78.41 -31.42,-115 -12.56,-2.87 -28.29,-6.83 -38.06,-6.71 -262.84,3.21 9.45,-33.48 -102.72,9.51 -44.45,17.04 -58.78,49.82 -91.38,86.75z"/>
    <path class="fil2" d="M11243.74 17769.91c47.61,158.4 298.99,180.96 482.85,177.31l177.46 -48.56c-156.06,-31.28 43.2,7.59 -110.9,-15.4 -11.24,-1.68 -25.04,-3.97 -36.25,-5.69l-68.95 -179.95 -447.04 -105.44 38.93 128.13 -36.1 49.6z"/>
    <path class="fil2" d="M11637.47 3826.78l-416.64 -68.46c37.53,102.13 54.19,160.17 170.51,201.25 49.63,17.53 57.96,28.22 115.11,7.4 218.13,-79.49 70.66,-21.23 131.02,-140.19z"/>
    <path class="fil2" d="M9575.13 1251.31c46.79,146.58 25.44,86.45 176.56,135.51l-48.46 191.3c156.22,-53.26 -1.45,16.72 94.23,-39.58 2.01,-1.19 68.85,-50.22 76.95,-55.77l-20.99 -164.74c-137.73,-89.19 -108.09,-22.95 -247.15,-158.33l-31.14 91.61z"/>
    <path class="fil3" d="M9483.35 14709.65c-126.92,40.74 -235.04,65.23 -307.36,54.67 -265.99,-38.82 -118.57,-107.88 -264.73,48.99 256.95,100.26 745.55,296.51 929.01,35.32 -94.25,-36.61 -126.21,-26.65 -189.04,-25.14 78.69,6.52 85.83,-70.96 222.07,-110.63 -3.64,-13.28 -10.69,-28.75 -14.62,-38.62l-46.98 -116.9c-9.85,-57.77 7.82,-73.32 29.63,-144.78 -148.3,27.58 -43.92,-13.83 -142.98,51.15 -53.22,34.89 -24.4,23.87 -75.87,84.33 -53.97,63.38 -82.85,83.87 -139.13,161.61z"/>
    <path class="fil3" d="M9575.13 1251.31l31.14 -91.61c139.06,135.38 109.42,69.14 247.15,158.33l20.99 164.74 31.52 -0.36c-28.56,-395.16 201.73,-684.71 223.22,-759.77 -246.88,-113.31 -687.11,211.81 -554.02,528.67z"/>
    <path class="fil3" d="M11257.75 325.71c32.46,125.14 148.07,219.38 230.2,316.34 114.61,135.32 142.87,177.51 279.71,279.31l-169.13 -654c-66.42,-5.91 -135.11,-26.83 -194.21,-16.72 -255.96,43.78 -43.82,-6.73 -146.57,75.07z"/>
    <path class="fil3" d="M11101.74 3546.69c146.78,61.68 308.37,95.61 493.99,84.63 1.06,-121.68 -13.3,-141.35 -67.43,-218.64 -189.03,-6.14 -251.19,-37.65 -354.65,-92.41l-202.3 101.47c74.11,155.52 -84.02,47.01 130.39,124.95z"/>
    <path class="fil3" d="M12329.69 13109.82c72.24,85.24 108.98,93.99 182.57,147.08 90.64,34.17 10.54,-6.91 93.8,38.98 172.01,94.84 -188.21,-118.89 70.95,46.83 65.89,42.13 95.91,58.96 205.89,78.61 -74.45,-51.99 -162.78,-102.38 -263.52,-174.86 -135.27,-97.29 -156.38,-116.12 -220.08,-244.37 152.24,53.56 187.12,90.33 332.36,159.23l291.19 198.63c-24.2,-68.93 -13.28,-4.04 71.84,-30.93l-632.01 -406.88c-81.33,-68.06 23.11,42.32 -55.91,-58.46 60.42,161.91 -18.24,48.22 -45.49,105.7 -37.91,79.97 8.67,27 -31.59,140.44z"/>
    <path class="fil3" d="M12868.2 3194.41l-4.3 147.9c25.09,24.82 48.96,61.01 74.33,92.41l90.88 97.42c94.02,-118.26 -25.26,-14.71 148.34,-110.4 14.53,-212.82 -2.17,-37.13 -33.42,-237.43l-62.77 8.52c-67.1,10.85 15.8,54.03 -213.06,1.58z"/>
    <path class="fil3" d="M12798.75 3188.49c-19.26,-209.84 -173.8,-385.72 -399.68,-359.32 141.01,114.63 263.25,261.78 399.68,359.32z"/>
    <path class="fil4" d="M10961.35 2938.72c-135.27,146.8 -108.44,483.26 -120.32,757.13 -22.21,511.65 -87.6,382.63 -111.92,492.78 -71.23,322.63 -23.38,98.69 42.61,178.35 76.26,-65.18 55.14,36.19 79.56,-152.98 24.05,-186.18 -85.09,-279.42 114.52,-401.5 -39.51,-58.21 -96.86,-74.85 -73.98,-232 84.63,-44.19 89.63,-36.15 209.92,-33.81 -214.41,-77.94 -56.28,30.57 -130.39,-124.95l202.3 -101.47c-23.66,-188.7 -18.19,-53.35 34.48,-113.58 291.06,18.61 513.68,153.17 644.26,-181.88l-475.93 -168.97c-191.26,-75.76 -351.49,-34.68 -419.37,207.03l4.26 -124.15z"/>
    <path class="fil4" d="M10856.55 1647.75c32.6,-36.93 46.93,-69.71 91.38,-86.75 112.17,-42.99 -160.12,-6.3 102.72,-9.51 9.77,-0.12 25.5,3.84 38.06,6.71 15.26,36.59 16.88,24.61 31.42,115l64.96 211.36c34.12,55.58 33.94,21.82 55.93,119.95 133.81,-262.08 -217.18,-731.78 -321.41,-834 -64.99,-63.73 -677.28,-439.52 -742.79,262 304.73,-2.7 453.09,-107.63 644.13,161.04 5.18,7.28 13.75,20.75 17.91,26.81 4.21,6.13 10.9,18.91 17.69,27.39z"/>
    <path class="fil4" d="M11528.3 3412.68c54.13,77.29 68.49,96.96 67.43,218.64 216.4,-44.38 287.74,-78.54 420.33,-236.8l86.72 -148.04c10.19,-2.87 25.69,-16.99 30.89,-7.46 0,0 163.07,-3.6 277.01,-112.54 -122.07,-61.53 -165.04,-83.57 -338.49,-100.88 -111.75,148.39 -263.5,354.14 -543.89,387.08z"/>
    <path class="fil4" d="M11644.54 2220.95c76.34,-69.76 14.49,58.22 88.26,-110.65 11.22,-25.7 25.25,-118.96 34.67,-154.81 53.77,-204.76 57.47,-103.64 114.23,-240.54 -59.42,-192.92 -66.78,-268.24 -315.13,-283.08l23.91 686.39c27.93,93.9 24.81,61.91 54.06,102.69z"/>
    <path class="fil4" d="M6407.87 9868.57l151.76 6.57c-6.59,-9.14 -15.95,-20.54 -20.38,-26.99 -4.31,-6.25 -14.32,-18.8 -19.34,-26.5l-77.76 -163.59c-102.34,-181.42 3.62,-46.51 -178.1,-64.02 -71.68,-137.9 -47.6,-106.53 -150.38,-177.64 15.54,171.7 188.44,344.64 294.2,452.17z"/>
    <path class="fil4" d="M12445.35 3793.37c14.97,-129.78 41.22,-161.75 71.45,-279.45 -144.78,51.62 -284.5,133.37 -351.08,254.03l279.63 25.42z"/>
    <path class="fil5" d="M5873.4 7232.42l194.79 156.48c9.53,4.29 20.83,6.03 30.31,9.92 187.47,77.04 136.45,7.91 146.44,122.34 41.31,-32.79 76.1,-57.42 111.96,-87.52 115.06,152.21 165.85,111.43 119.2,315.17 8.62,-8.04 16.8,-35.95 20.43,-28.81 60.32,118.47 -33.38,-82.64 124.92,-117.69l434.09 67.89c300.55,23.69 1146.69,113.27 1328.44,-58.93 -113.37,19.44 -119.23,18.35 -230.19,18.04 -166.49,-0.46 -106.73,-6.77 -266.76,-28.18 11.35,-5.51 28.55,-23.85 35.43,-13.3l206.34 -54.7c132.76,-44.83 111.13,-75.11 179.02,-117.13 -51.86,-111.96 43.49,-41.72 -404.4,-6.4l-842.79 34.48c-116.29,12.91 4.88,15.77 -125.74,6.92 -163.91,-11.1 -298.63,-94.83 -451.33,-16.06l-33.7 -101.71c-184.7,-7.43 -112.19,-16.89 -278.93,-79.67 -16.68,-6.28 -182.3,-50.74 -184.23,-50.89 -200.16,-16.6 -69.91,-21.24 -113.3,29.75z"/>
    <path class="fil5" d="M9211.09 16085.25c474.04,-30.51 472.33,307.94 649.45,571.05 -283.55,-8.77 -314.08,36.13 -451.12,210.57 -387.18,492.86 -659,-301.17 -1242.57,-402.82l140.8 95.92 -80.42 42.37c-8.26,3.52 -20.38,5.02 -28.89,8.69 -8.59,3.68 -20.83,5.05 -29.09,8.91 -93.77,43.99 -49.26,17.07 -100.56,78.63 596.5,-78.46 436.96,115.11 762.65,417.58 148.18,137.61 110.45,118.87 352.52,135.42 222.81,15.23 94.35,-42.71 164.49,62.37 66.66,-207.25 -50.92,-188.01 144.96,-410.28l236.84 -154.49c22.33,-3.5 137.22,9.93 162.16,10.85 -8.7,13.67 -21.13,15.81 -27.57,40.05l-123.84 137.29c200.02,4.31 163.67,27 350.1,48.49 -38.6,-57.86 -78.5,-96.32 -120.76,-156.35 -9.15,-12.98 -40.75,-57.88 -41.96,-73.62 -9.92,-129.9 -62.12,-40.45 56.78,-99.37 -81.78,-159.57 -163.38,-261.99 -250.65,-406.9 -140.56,-233.38 -32.99,-152.31 -296.31,-312.34 -48.41,110.96 26.33,62.71 -160.54,126.24l-66.47 21.74z"/>
    <path class="fil5" d="M4753.21 13859.83c389.28,-25.92 81.16,552.41 436.15,825.97 284.98,219.59 600.26,-113.07 836.56,-73.69 119.91,208.65 67.12,455.74 99.62,635.62 30.51,168.89 71.3,167.46 97.07,193.95 8.24,-78.81 -51.08,-54.02 64.35,-32.99 -144.32,-371.91 -1.81,-888.27 -261.09,-991.47 -283.18,-112.71 -749.48,467.46 -926.97,-37.56 -86.67,-246.57 -47.37,-491.13 -210.06,-644.44 -11.77,148.65 55.14,-31 -41.49,63.55 -21.51,21.04 -53.15,49.67 -58.48,40.66 -5.51,-9.35 -26.21,10.48 -35.66,20.4z"/>
    <path class="fil5" d="M3336.89 11932.63c437.84,-62.4 777.59,8.22 1083.11,205.75 391.05,81.8 643.41,783.46 937.37,967.42l-23.21 -157.49c97.7,-77.31 -33.33,-43.87 126.22,-17.94l-632.66 -624.74c-37.39,-28.76 -67.39,-52.47 -107.61,-85.78l-91.78 -82.33c-3.94,-14.73 -15.72,-15.55 -23.25,-23.65 -193.2,5.13 -46.29,15.61 -165.05,-52.14 -66.61,-38 -90.03,-63.41 -147.93,-97.94 -262.58,-156.63 -831.51,-362.36 -1094.86,-151.23l243.22 -20.91 -103.57 140.98z"/>
    <path class="fil5" d="M11966.46 16004.48c34.06,168.97 141.52,365.42 254.75,492.93 404.72,455.77 596.16,386.71 627.88,537.76 106.54,-57.47 198.91,-84.88 366.87,-82.6l-214.14 -45.27c-10.44,-2.85 -21.11,-4.94 -30.78,-8.44l-207.89 -173.09c-434.86,-400.4 -222.26,-170 -566.14,-603.92 -5.18,-6.53 -12.23,-15.88 -17.32,-22.38l-154.09 -214.06 -14.69 158.57c50.59,-40.85 32.23,6.31 -44.45,-39.5z"/>
    <path class="fil5" d="M8712.9 16311.03l-122.87 36.24 10.66 -166.56c-562.01,220.9 -785.52,-115.46 -978.94,-590.53 -55.24,-135.67 39.1,-132.31 -112.34,-149.9 12.01,289.28 251.05,850.53 743.86,948.25l373.59 -25.97c78.19,-27.74 40,-12.89 86.04,-51.53z"/>
    <path class="fil5" d="M1858.49 9805.04c270.59,-58.72 69.49,-33.46 124.3,46.89 -65.92,152.82 -108.57,98.49 -145.41,246.46 53.06,-84.41 12.4,-42.57 77.69,-99.99 6.24,-5.49 16.73,-11.75 23.35,-17.02l274.29 -232.89c93.58,-39.12 94.22,16.79 220.16,-43.09 4.31,-2.04 12.89,-8.94 16.97,-11.19l229.27 -83.59 -64.83 -98.88c-1.8,-13.92 -8.67,-19.17 -15.47,-28.53l-150 25.8c-214.58,5.11 -490.99,171.14 -590.32,296.03z"/>
    <path class="fil5" d="M6499.61 10957.25l624.83 20.56c106.02,-110.94 162.1,-94.52 183.87,-232.76 -136.58,14.74 -216.47,59.15 -368.18,52.93 -184.87,-7.59 -213.15,-43.78 -294.42,62.43 -54.73,-28.83 -62.39,-45.95 -82,-58.89 -53.17,-35.08 -9.59,-18.31 -95.28,-54.59 31.78,101.87 29.48,85.35 31.18,210.32z"/>
    <path class="fil5" d="M8748.59 14740.65c116.62,-67.77 87.4,108.5 97.73,-85.92 -31.59,-43.69 -32.6,-66.86 -75.66,-105.99 -56.3,-51.15 -5.26,-8.47 -75.97,-45.09 -245.09,-126.96 -76.25,-60.84 -245.83,-261.39 -43.59,-51.57 -77.95,-89.61 -106.34,-149.61l-86.26 -6.72c-39.56,352.11 349.14,509.14 349.16,509.16 100.29,102 -0.29,84.73 143.17,145.56z"/>
    <path class="fil5" d="M14081.76 5722.77l-164.65 -52.6c-150.66,-41.04 -263.96,-119.57 -379.61,-211.53 71.48,-92.69 -28.63,-26.12 93.72,-41.81 -28.49,-56.17 -0.88,-39.08 -49.18,-84.32 -58.78,-55.05 -18.95,-17.16 -84.01,-51.64 -8.88,102.17 31.09,33.45 -28.7,87.03 -82.28,-107.49 -55.76,-40.34 -144.06,-130.71 -97.64,-99.94 1.57,-62.33 -172.05,-136.76 18.02,119.68 168.22,273.53 265.57,355.24 326.78,274.29 202.06,305.25 662.97,267.1z"/>
    <path class="fil5" d="M11891.16 4255.47c-0.69,289.39 -13.67,276.47 -117.53,404.52l-60.98 85.16 25.67 67.46c120.39,-37.74 216.35,-91.03 291.98,-170.19 46.44,-48.6 56.44,-78.04 95.9,-145.55 103.91,-177.71 -17.98,-81.91 131.71,-121.19 -53.71,-44.31 -42.62,-78.81 -211.78,-105.49 -34.17,204.55 48.69,190.02 -125.35,317.37 7.61,-284.59 34.66,-105.98 2.45,-257.94l-32.07 -74.15z"/>
    <path class="fil5" d="M10754.45 920.68c-89.14,-282.9 -12.48,-204.48 17.27,-248.29 41.15,42.93 15.74,-17.15 70.1,103.23l68.25 148.06 36.02 -217.39c-123.84,-44.85 -125.14,-90.26 -306.98,-42.53 -121.73,31.96 -209.49,36.32 -248.4,138.26l363.74 118.66z"/>
    <path class="fil5" d="M2822.2 9615.49l-76.35 42.33 23.32 120.92c71.81,-4.13 163.19,-14.56 203.57,-29.82 177.08,-66.89 80.46,-15.72 104.36,-135.15 -112.49,-45.27 -122.03,-12.45 -254.9,1.72z"/>
    <path class="fil6" d="M14647.43 12591.51l-242.43 463.53c-100.27,213.86 -117.35,240.67 -313.29,352.81 -380.06,217.53 -694.05,92.23 -997.02,-78.83 -85.12,26.89 -96.04,-38 -71.84,30.93l-291.19 -198.63c-145.24,-68.9 -180.12,-105.67 -332.36,-159.23 63.7,128.25 84.81,147.08 220.08,244.37 100.74,72.48 189.07,122.87 263.52,174.86 159,57.48 43.6,67.68 243.18,148.08 129.14,52.02 254.22,75.45 382.9,116.5 185.46,35.99 523.11,-20.75 640.39,-94.87 56.02,-35.4 133.82,-108.54 199.88,-161.26l112.61 -69.8c136.17,-32.58 21.49,1.66 132.5,-202.72 146.57,-269.86 47.1,6.7 186.58,-360.24 3.44,-9.04 7.24,-19.59 11.08,-28.38 116.15,-266 123.26,-44.87 162.39,-528.29 3.13,-38.67 8.5,-104.51 11.75,-120.46 23.81,-116.79 189.08,-222.52 -77.58,-483.62 -20.85,416.03 -56.29,476.3 -150.73,852.5 -72.69,289.53 -22.68,222.81 -90.42,102.75z"/>
    <path class="fil6" d="M4116.5 7574c22.16,90.28 43.76,130.82 3.64,228.49 -58.01,141.21 -3.69,5.61 -104.84,78.2 -4.69,251.36 95.08,323.51 -4.82,569.76 -35.82,88.31 -55.25,186.97 -86.98,266.66 -81.11,203.81 -76.55,20.85 -124.54,248.95 -54.85,137.09 -149.7,188.6 -252.36,286.25 -218.02,207.43 -228.01,154.55 -304.48,308.72 243.47,-49.1 247.6,-78.36 374.37,-238.44 91.58,-115.65 192.58,-180.46 270.95,-287.74 62.88,-183.09 73.98,-96.08 149.41,-203.14 36.33,-51.59 76.22,-176.45 102.55,-265.05 47.68,-160.41 107.32,-417.3 166.05,-583.34 37.92,-252.49 86.55,-436.71 109.56,-710.81 12.07,-143.87 28.45,-295.34 37.2,-437.82 18.84,-306.78 -52.17,-291.84 -59.2,-333.97 -3.05,-18.22 -13.12,-20.48 -21.25,-29.45 -46.53,211.29 -253.53,949.75 -255.26,1102.73z"/>
    <path class="fil6" d="M8354.02 12369.08c87.8,168.68 13.15,53.33 225.29,157.57 489.22,240.41 652.76,359.13 1382.35,181.35l237.6 -142.99 41.56 -96.4 -64.39 -23.51c-209.69,80.91 -288.25,157.5 -533.41,183.02 -171.89,17.91 -366.23,-17.96 -557.38,-91.36 -299.93,-115.17 -584.83,-309.57 -850.78,-484.93 -34.18,107.39 27.62,19.45 -48.6,141.96 224.98,129.54 10.68,-101.65 263.08,138.45l-95.32 36.84z"/>
    <path class="fil6" d="M6463.39 13104.88c357.59,-23.37 497.18,33.47 830.39,180.92l683.47 716.36c204.54,138.34 10.04,-7.06 125.4,31.37 197.27,65.72 -82.54,73.34 153.61,52.4 -38.79,-75.43 -134.36,-156.2 -181.06,-291.76 -223.17,-88.53 -169.85,-264.16 -636.39,-598.38 -7.39,-5.29 -17.34,-11.32 -24.78,-16.87l-137.66 -110.64c-76.55,-41.53 3.61,15.74 -156.91,-48.3 -143.44,-57.23 -242.63,-149.71 -399.52,-201.26 -34.34,158.14 13.2,21.68 15.49,87.79 3.34,96.77 -59.07,85.55 -240.22,180.45 -8.09,4.23 -21.63,11.26 -31.82,17.92z"/>
    <path class="fil6" d="M13507 11530.1l-88.65 24.65c-167.42,117.23 -135.29,95.79 -351.12,40.76 -108.72,-27.72 56.85,-14.03 -76.83,-15.28 -47.97,-0.44 -105.64,5.66 -169.79,66.89l139.99 110.05c-43.43,58.73 127.71,73.19 -102.09,37.26 30.23,25.76 1.52,15.9 82.99,64.23 11.04,6.55 45.09,24.27 56.58,29.03 100.31,41.62 33.94,15.33 127.24,26.97l-60.51 17c-7.87,0.86 -21.13,3.38 -29.76,3.63 -8.42,0.23 -20.57,-0.28 -29.21,-0.82 -8.82,-0.55 -94.49,-24.76 -112.18,-28.46 -123.88,-25.91 -137.06,-8.35 -269.26,-32.4 69.7,100.03 23.07,87.53 333.57,122.04 147.78,16.42 251.77,-23.86 374.19,-41.69 508.31,-74.08 475.16,-164.17 539.37,-406.25 -60.17,-50.42 -18.18,-12.23 -97.2,-59.53 -72.17,331.73 -94.45,382.43 -429.37,298.71 177.71,-70.76 276.82,-168.67 362.38,-347.05l-200.34 90.26z"/>
    <path class="fil6" d="M5477.83 9758.34c14.75,67.27 57.43,310.84 60.56,320.04 53.36,156.7 -8.9,-104.69 28.56,91.72 23.76,124.59 3.2,67.36 46.96,197.64 60.95,81.51 35.05,123.25 270.79,281.17 70.56,47.28 125.56,73.17 203,121.36 68.43,42.61 86.09,55.7 161.48,85.62 131.86,-35.84 96.04,41.24 119.06,-36.25 -95.91,-104.88 -65.84,-55.55 -194.44,-110.99 -185.22,-79.83 20.79,-3.87 -220.7,-164.95 -189.96,-126.72 -149.22,-194.71 -206.55,-427.23 -117.44,-476.4 -38.73,-164.09 -31.31,-499.95 3.76,-170.44 -28.49,-144.57 9.23,-323.36 -90.53,87.88 -58.95,130.75 -61.35,159.3 -0.04,0.4 5.71,154.37 5.37,166.7 -71.14,-94.17 -58.12,-153.47 -93.95,-234.1 -43.67,54.75 -17.87,-30.64 -32.71,75.18 -12.1,86.27 26.93,85.04 -16.58,229.92 -73.97,246.26 151.76,-78.06 -47.42,68.18z"/>
    <path class="fil6" d="M11965.51 223.84c46.8,148.98 64.71,90.7 98.06,263.35 38.44,198.98 -20.64,65.87 60.64,229.86 98.41,198.56 126.12,249.93 258.43,405.99l43.61 -47.25c142.94,-151.45 -8.68,-88.81 142.38,-106.5 -40.6,-332.89 -80.72,-273.53 -228.9,-465.16 -66.46,-85.95 -63.03,-119.87 -152.7,-206.32 -101.87,-98.22 -104.36,-70.54 -221.52,-73.97z"/>
    <path class="fil6" d="M10564.67 5408.97c127.86,23.38 80.85,-5.49 163.66,88.05 119.44,61.38 43.33,45.86 158.25,113.32 452.04,265.35 559.07,62.16 684.12,243.81 111.77,-106.43 61.39,7.17 35.66,-168.73 28.47,-2.08 88.58,-4.87 114.21,-10.98 98.15,-23.37 24.9,-0.78 82.81,-43.1l-286.57 -21.6c-66.08,21.09 -49.3,35.32 -70.64,72.76l-235.18 -149.72c-115.59,-48.46 -162.41,-46.12 -238.12,-73.21 -183.04,-65.5 11.38,-142.51 -459.65,-288.61 9.54,9.15 44.08,44.96 50.18,52.85 52.18,67.55 53.98,95.64 1.27,185.16z"/>
    <path class="fil6" d="M14421.85 5866.71c18.47,82.75 23.78,133.73 83.77,174.93 7.86,-24.95 56.83,-15.36 -71.96,-120.96 -65.17,-53.44 -82.3,-58.84 -171.7,-104.85 115.84,302.71 604.28,769.29 868.21,985.22 97.25,79.57 41.79,81.07 192.65,73.74 9.99,-33.1 71.06,75.03 21.97,-119.96 -53.64,-213.03 -165.6,65.01 -503.15,-380.5 -256.97,-339.17 -192.2,-346.27 -419.79,-507.62z"/>
    <path class="fil6" d="M9146.96 11122.31c36.75,32.78 17,31.94 91.4,73.11l18.9 50.46c33.3,60.01 -4.39,86.1 115.85,97.46 3.64,0.34 151.75,-29.99 215.86,-32.19l32.03 -149.17c-51.09,-0.53 -120.81,-8.99 -157.77,-9.73 -156.99,-3.15 60.6,-43.36 -40.07,14.71l363.99 -51.71 41.8 -119.84c-155.71,16.56 -148.15,-7.79 -310.31,17.37l-385.06 -67.97c30.93,181.63 -29.95,90.58 71.78,137.59 36.58,67.61 31.38,37.34 -58.4,39.91z"/>
    <path class="fil6" d="M9631.5 2792.79c0.13,0.16 221.18,502.65 612.05,220.74l140.53 -186.67c-189.04,7.11 -213.47,-29.38 -365.3,-37.19 -115.69,-5.94 -256.93,7.45 -387.28,3.12z"/>
    <path class="fil6" d="M11687.95 17697.62l68.95 179.95c11.21,1.72 25.01,4.01 36.25,5.69 154.1,22.99 -45.16,-15.88 110.9,15.4 165.46,7.73 207.81,0.33 338.35,-32.71 30.06,-7.61 135.95,-32.81 152.52,-38.99l129.62 -89.95 -134.73 -53.81c-58.04,-23.59 -77.6,-28.17 -132.11,-51.45 -120.68,101.56 -378.47,94.23 -569.75,65.87z"/>
    <path class="fil6" d="M11898.66 12594.58l60.96 170.29 270.12 213.82c107.9,-149.41 -77.06,-381.21 -171.98,-481.92 -12.96,-13.76 -54.11,-60.6 -58.13,-64.71 -51.6,-52.75 -16.7,-22.43 -77.18,-69.4 -3.27,6.5 -4.62,17.75 -4.74,21.3 -4.52,137.03 38.67,89.07 -19.05,210.62z"/>
    <path class="fil6" d="M11881.53 1975.45c76.15,-57.31 41.6,-2.83 111.14,-158.75 154.26,-345.92 -5.74,-242.02 242.17,-346.14 112.67,-47.31 31.99,-4.96 86.12,-45.62 -146.64,-16.87 -283.81,-22.47 -394.42,17.82l-45.01 532.69z"/>
    <path class="fil6" d="M12319.18 1429.3c165.11,-74.98 59.36,-6.64 181.76,-185.35l-149.42 4.09 -267.83 -403.44c2.56,278.67 -34.51,426.26 268.79,479.34l-33.3 105.36z"/>
    <path class="fil6" d="M13299.63 17234.55c130.87,87.58 123.21,80.93 288.69,118.49l11.49 -46.69c2.69,-6.94 9.48,-23.91 12.33,-31.04 3.27,-8.17 10.15,-23.4 15.85,-34.8 -91.23,-27.23 -91.14,-19.42 -177.99,-64.67 -49.37,-25.72 2.23,-13.34 -117.76,-65.78l-32.61 124.49z"/>
    <path class="fil7" d="M6825.81 7036.65c2.92,185.94 -13.51,193.85 -197.58,182.98 15.81,124.64 41.33,40.34 -11.89,112.07l-166.48 1.53 33.7 101.71c152.7,-78.77 287.42,4.96 451.33,16.06 130.62,8.85 9.45,5.99 125.74,-6.92l842.79 -34.48c447.89,-35.32 352.54,-105.56 404.4,6.4 203.41,-88.08 330.02,-140.74 560.19,-177.87 342.47,-55.23 444.07,16.27 715.46,17.58l63.27 -5.75c-244.93,-98.47 -125.5,39.74 -219.15,-174.09 81.7,-16.85 134.73,-25.43 210.29,-42.11l78.27 -259.76c5.82,-2.19 37.71,-13.39 50.4,-17.05 17.68,-85.48 46.47,-54.06 6.53,-182.87 -58.61,-189.06 -50.54,-91.02 -112.01,-145.62l28.2 159.66c-88.96,55.25 -114.33,48.81 -212.97,98.52 -638.91,321.98 -147.66,69.44 -594.42,83.94 -52.92,88.65 -39.96,129.92 -91.75,222.17 -468.83,27.28 -218.51,33.76 -438.47,75.62 -97.21,-126.68 -32.38,-225.43 -245.35,-164.01 -154.16,44.45 56.71,30.04 -189.64,57.49 -43.98,4.91 -141.61,-0.52 -196.02,1.36 -95.82,159.65 -47.98,250.62 -280.21,283.27 -188.2,26.45 -362.92,-33.14 -517.02,-46.15l-45.8 -85.25c-5.29,-9.14 -30.23,-34.32 -33.6,-53.08 -2.66,-14.77 -11.25,-17.61 -18.21,-25.35z"/>
    <path class="fil7" d="M8256.26 14085.93l86.26 6.72c28.39,60 62.75,98.04 106.34,149.61 169.58,200.55 0.74,134.43 245.83,261.39 70.71,36.62 19.67,-6.06 75.97,45.09 43.06,39.13 44.07,62.3 75.66,105.99 -10.33,194.42 18.89,18.15 -97.73,85.92 95.77,126.67 225.14,166.37 347.63,211.23 361.32,132.31 59.52,156.96 311.57,237.29 168.15,69.75 488.83,-35.54 596.93,-64.88 172.28,-46.75 174.42,-7 268.46,37.99 198.66,95.07 28.68,30.42 300.17,34.69 103.1,208.42 242.67,346.07 562.34,291.31l6.57 -63.68c-82.12,-11.84 -176.99,-29.96 -224.61,-44.76 -176.36,-54.82 -50.2,46.23 -146.47,-92.57 -69,-107.79 -23.52,-229.2 -90.17,-384.99 -69.5,40 -62.98,361.08 -720.54,-126.09 -48.27,19.89 -7.81,-1.85 -63.88,33.05 -0.16,0.09 -37.48,27.61 -56.32,39.39 -183.46,261.19 -672.06,64.94 -929.01,-35.32 146.16,-156.87 -1.26,-87.81 264.73,-48.99 72.32,10.56 180.44,-13.93 307.36,-54.67l-118.36 1.35c0.02,-24.26 12.77,-188.56 12.51,-190.94 -18.69,-165.37 56.87,87.43 -36.78,-70.15 -65.32,-109.89 -49.23,-75.11 -60.17,-249.19l-254.44 -3.63c-62.22,106.4 -91.2,102.48 -158.7,163.19 -8.87,-7.37 -18,-19.43 -23.52,-25.39l-201.99 -168.85c-163.27,-146.72 -14.77,-176.52 -134.8,-172.59 -43.16,1.42 17.95,61.9 -180.82,9.82 -34.88,-85.59 -25.64,-178.97 -73.6,-221.43 -5.04,-4.46 -101.79,-33.02 -177.48,12.33 46.7,135.56 142.27,216.33 181.06,291.76z"/>
    <path class="fil7" d="M15448.3 16489.63l111.9 14.95 -12.54 174.27 -118.87 -15.74c60.87,212.33 183.65,236.06 -3.31,421.06l-104.12 121.65 94.12 63.06c-29.29,25.78 -17.08,25.41 -78.71,52.84 -2.38,1.05 -84.15,29.51 -85.29,29.89l-579.76 180.25c173.79,37.67 354.55,13.6 510.42,-2.29 333.43,-33.99 406.09,25.61 476.83,-180.63 4.33,-12.61 6.33,-22.81 10.32,-35.51 96.9,-308.37 50.79,-77.8 138.53,-282.1 108.54,-252.7 -61.63,-191.08 80.25,-432.61 263.92,-449.28 -288.12,-547.14 178.43,-493.63 196.36,22.51 166.17,84.45 235.25,-44.02 -265.35,15.46 -168.48,-91.24 -372.51,-163.71 -315.56,302.48 -115.33,587.78 -480.94,592.27z"/>
    <path class="fil7" d="M3630.75 13371.57c309.37,19.48 164.37,76.85 372.74,211.83 42.69,-176.82 111.98,7.03 303.38,24.29 178.1,16.07 257.16,-88.11 357.99,-182.53 129.15,-120.95 115.87,-80.96 342.64,-124.37 129.94,-24.87 295.24,-87.91 406.27,-90.86 0,-71.43 20.2,-56.33 -41.16,-62.16l-413.96 -34.22c-167.71,33.54 -105.06,90.43 -649.41,161.65 -187.47,24.53 -99.52,70.08 -371.97,84.5 -17.95,-369.65 153.91,-364.45 228.53,-437.94 81.49,-80.26 40.08,45.34 60.26,-99.85 30.54,-219.76 -110.66,-26.18 -152.61,-300.41l-38.89 137.42c17.77,204.47 35.98,-54.77 50.06,139.48 8.35,115.24 -88.03,99.82 -185.38,177.58 -75.29,-175.13 26.45,-197.53 -234.65,-192.25 -167.64,383.52 94.88,369.73 -33.84,587.84z"/>
    <path class="fil7" d="M3035.9 11169.24l88.82 388.58c-65.58,34.87 -62.85,23.67 -154.29,52.18 12.07,82.15 -61.95,71.88 45.09,64.65 68.74,67.89 71.68,-112.58 48.17,147.35l133.55 -9.44c263.35,-211.13 832.28,-5.4 1094.86,151.23 57.9,34.53 81.32,59.94 147.93,97.94 118.76,67.75 -28.15,57.27 165.05,52.14 81.18,-109.23 40.27,-100.47 91.14,-194.28l-524.81 -346.99c-7.8,-4.29 -17.98,-9.79 -25.51,-14.33 -1.18,-0.71 -83.09,-60.3 -91.34,-67.13 -131.56,-108.95 -52.67,-30.91 -146.29,-163.19 -112.47,-5.44 -208.57,-19.49 -267.88,39.71 -65.73,65.61 -2.52,-30.52 -66.51,172.34l-22.67 61.74c-224.02,-17.1 -429.64,-304.09 -465.41,-516.75l-49.9 84.25z"/>
    <path class="fil7" d="M13307.3 16994.01l-132.38 196.91c-4.9,5.69 -15.17,15.86 -21.9,24.49l146.61 19.14 32.61 -124.49c119.99,52.44 68.39,40.06 117.76,65.78 86.85,45.25 86.76,37.44 177.99,64.67l47.59 1.67c282.55,71.28 2.67,100.82 326.02,124.83 59.98,-168 163.3,-305.66 4.04,-469.86 -183.42,-189.12 -9.79,-98.19 -179.08,-201.41 -138.08,60.14 -67.5,-112.76 -119.02,146.36 -58.74,3.19 -228.25,6.18 -275.17,21.03 -245.57,77.8 -105.8,-19.2 -125.07,130.88z"/>
    <path class="fil7" d="M8264.58 5356.8c51.89,49.35 7.68,38.62 203.1,79.41l542.69 128.73c6.86,-31.39 -75.04,-169.55 116.19,-109.63 174.21,54.59 10.56,404.11 340.34,257.28 31.34,148.88 173.39,349.12 267.32,456.48 46.17,-30.7 89.76,23.6 10.22,-240.39 -19.74,-65.52 -53.96,-196.29 -81.22,-246.67 -69.93,-129.27 -83.04,-81.09 -168.11,-152.23 -136.65,-114.25 -25.66,4.66 -73.35,-176.88 -229.23,-104.32 -617.85,38.73 -918.31,-7.01 -148.69,-22.64 10.21,-74.43 -238.87,10.91z"/>
    <path class="fil7" d="M10256.27 4711.39c-435.15,24.1 -259.11,-120.84 -397.03,-172.43 -209.4,-2.62 -248.99,121.06 -474.83,34.96 -229.54,-87.52 -54.88,-104.43 -449.46,-178.3l9.08 97.61c64.33,74.38 327.25,283.47 485.87,316.62 138.93,29.04 251.34,12.85 380.08,26.66 115.39,12.38 212.41,67.19 324.23,89.79 37.59,-83.99 83.68,-148.03 122.06,-214.91z"/>
    <path class="fil7" d="M2235.14 9981.17c87.02,104.93 40.77,234.51 15.03,411.61 255.25,-70.92 429.6,-29.26 549.17,133.87 130.87,178.55 120.71,322.19 190.96,492.85 259.19,-333.72 -45.33,-435.82 -47.71,-437.73 -67.48,-53.93 -41.86,-31.85 -91.36,-112.73 -117.12,-191.42 5.61,-49.33 -342.6,-209.36 64.38,-132.45 187.31,-214.72 152.37,-400.11 -39.01,-206.96 162.99,57.18 -30.41,-60.55 -109.47,45.82 -126.06,41.11 -212.15,71.24 -67.32,23.57 -48,11.67 -110.67,50.2 -64.51,39.63 -33.35,21.42 -72.63,60.71z"/>
    <path class="fil7" d="M8317.75 4903.75l231.91 -112.67c-29.96,-242.17 -153.88,-124.38 -148.99,-575.3 -115.65,48.69 -55.67,71.39 -87.75,-36.5l-142.64 -13 46.08 58.69c27.66,36.03 22.84,29.48 53.02,70.01 -66.21,128.09 -39.57,33.26 -241.62,191.29l-4.1 435.44 294.09 -17.96z"/>
    <path class="fil7" d="M2176.42 10610.84l-220.04 382.81c-5.51,7.68 -13.39,16.32 -19.03,23.75 -5.96,7.86 -14.42,17.97 -20.04,25.14 -5.83,7.45 -15.86,20.04 -20.74,26.17 -4.99,6.29 -14.67,17.51 -21.63,26.56 74.82,7.3 25.77,-60.49 71.78,61.62 104.97,-87.56 131.47,-226.72 341.15,-267.74 178.46,-34.9 371.41,14.87 487.12,110.84 140.79,-58.02 37,48.03 45.18,-73.36 1.66,-24.66 -23.99,-95.25 -31.34,-110.96 -129.47,-276.7 -336.52,-289.41 -612.41,-204.83z"/>
    <path class="fil7" d="M3811.48 5813.97c370.56,344.84 523.15,171.32 861.21,268.17l68.1 19.35c-31.1,-225.63 117.57,-59.11 249.87,-139.43l-21.32 -104.33c-75.66,-11.04 -261.26,24.11 -427.41,21.66 -168.53,-2.48 -305.84,48.16 -488.51,60.02l170.14 -101.8c101.44,-36.54 67.66,-5.86 159.61,-74.36 -178.55,-83.92 -412.54,-107.17 -571.69,50.72z"/>
    <path class="fil7" d="M11460.17 16383.68l-29.27 44.13c76.06,139.4 151.49,156.11 264.9,318.78 91.62,131.42 134.26,212.64 222.74,330.52 85.07,-75.4 29.57,6.84 40.53,-110.52l16.54 -421.44c-170.97,-71.47 -61.81,23.74 -158.8,-155.38 -203.11,-8.4 -159.51,-37.05 -356.64,-6.09z"/>
    <path class="fil7" d="M10754.45 920.68c132.6,126.37 151.99,5.17 155.62,3l-68.25 -148.06c-54.36,-120.38 -28.95,-60.3 -70.1,-103.23 -29.75,43.81 -106.41,-34.61 -17.27,248.29z"/>
    <path class="fil7" d="M8550.02 8640c92.6,-63.33 103.04,-3.82 39.68,-138.36 -71.33,33.47 -48.46,-40.08 -63.78,51.39 -26.49,158.22 -21.43,18.28 24.1,86.97z"/>
    <path class="fil8" d="M9740.9 16937.36l123.84 -137.29c6.44,-24.24 18.87,-26.38 27.57,-40.05 -24.94,-0.92 -139.83,-14.35 -162.16,-10.85l-236.84 154.49c-195.88,222.27 -78.3,203.03 -144.96,410.28 -151.79,226 -239.11,630.32 -684.59,319.65l-669.98 -523.95c-418.6,-189.52 -512.12,263.55 -835.1,281.76 -295.1,16.65 -533.44,-319.17 -703.33,-480.7 -675.97,-642.68 -671.38,347.99 -1220.94,-88.25 -572.41,-454.37 -226.72,-578.38 -1121.98,-676.64 -389.92,-42.79 -330.01,-373.99 -640.57,-519.39 -236.34,38.5 5.88,-9.48 -176.49,79.27 -194.91,94.85 -294.64,28.01 -434.4,-123.64 -281.96,-305.9 80.97,-504.66 -182.58,-661.96 -206.23,137.44 -112.32,198.94 -38.25,369.25 257.78,592.66 309.73,669.22 911.21,527.32 208.73,340.7 308.23,477.18 795.36,481.54 385.87,3.46 556.69,306.03 758.79,493.32 792.23,734.16 663.41,-583.55 1656.44,483.79 295.92,318.06 519.62,291.71 851.85,52.82 335.59,-241.29 518.78,-21.49 764.97,234.71 770.91,802.23 1346.41,-190.15 1170.42,-532.85 143.74,-59.01 82.95,14.36 191.72,-92.63z"/>
    <path class="fil8" d="M6502.77 15964.88l15.16 -59.15c-715.18,-630.82 -539.31,265.09 -1053.56,201.29 -176.6,-252.66 -75.76,-445.38 -173.85,-656.12 -117.89,-253.26 -413.39,-67.15 -668.14,-131.46 -206.11,-119.38 -213.68,-799.22 -515.76,-798.04 -200.79,68.93 -132.53,150.43 -357.06,186.8 -120.69,-113.43 -117,-177.67 -281.14,-278.28 -184.24,50.17 -300.98,382.27 -521.7,-42.27 -65.26,-125.51 -92.96,-216.44 -119.8,-360.52 -27.3,-146.56 -13.36,-270.64 -148.53,-307.5 -66.59,108.08 84,681.91 149.98,785.96 171.56,270.56 417.82,366.98 683.16,169.33 147.34,75.93 101.9,192.31 320.31,203.97 225.36,12.02 158.27,-111.47 393.81,-161.08 139.56,176.74 171.62,495.27 313.31,656.77 244.25,278.41 683.96,-118.38 707.59,128.87 1.76,18.42 9.61,24.53 11.8,33.71 39.42,165.24 -3.93,891.08 460.92,651.72 358.95,-184.83 293.21,-596.72 783.5,-224z"/>
    <path class="fil8" d="M9841.33 14412.56c-21.81,71.46 -39.48,87.01 -29.63,144.78l46.98 116.9c3.93,9.87 10.98,25.34 14.62,38.62 -136.24,39.67 -143.38,117.15 -222.07,110.63 62.83,-1.51 94.79,-11.47 189.04,25.14 18.84,-11.78 56.16,-39.3 56.32,-39.39 56.07,-34.9 15.61,-13.16 63.88,-33.05l44.7 -45.81c257.86,-225.85 317.27,-205.25 567.85,-115.2 444.28,159.66 337.58,322.61 562.02,317.6 122.98,208.2 237.36,188.12 304.6,381.59 226.32,248.86 224.26,311.73 331.94,442.38l194.88 247.73c76.68,45.81 95.04,-1.35 44.45,39.5l14.69 -158.57c-28.34,-52.02 -49.64,-87.75 -72.46,-139.84 -164.9,-124.17 -319.83,-458.04 -406.07,-558.82 -648.25,-757.61 -889.51,-461.04 -949.25,-759.08 -436.47,-30.22 -256.81,-147.74 -756.49,-15.11z"/>
    <path class="fil8" d="M1858.49 9805.04c-151.38,93.5 -234.02,281.31 -265.3,418.79 -16.67,73.24 -33.58,262.37 -38.64,342.91 -1.87,29.86 -4.07,175.89 -0.08,199.6 0.32,1.88 -15.4,60.79 68.5,156.48l5.54 -130.71 150.12 -2.05c5.77,-0.48 20.64,-2.11 30.98,-1.9 -13.27,-257.69 114.76,-608.93 381.58,-781.47l43.95 -25.52c39.28,-39.29 8.12,-21.08 72.63,-60.71 62.67,-38.53 43.35,-26.63 110.67,-50.2 86.09,-30.13 102.68,-25.42 212.15,-71.24l138.58 -20.28 -23.32 -120.92 76.35 -42.33 -143.09 -4.87 -229.27 83.59c-4.08,2.25 -12.66,9.15 -16.97,11.19 -125.94,59.88 -126.58,3.97 -220.16,43.09l-274.29 232.89c-6.62,5.27 -17.11,11.53 -23.35,17.02 -65.29,57.42 -24.63,15.58 -77.69,99.99 36.84,-147.97 79.49,-93.64 145.41,-246.46 -54.81,-80.35 146.29,-105.61 -124.3,-46.89z"/>
    <path class="fil8" d="M10091 16985.85l616.44 554.04c128.17,120.85 338.73,306.8 536.3,230.02l36.1 -49.6 -38.93 -128.13c-146.11,31.03 -230.36,-83.75 -350.19,-160.1 -181.94,-115.94 -115.46,-7.79 -317.62,-237.57l270.11 -128.2 20.02 -124.67 -99.44 45.43c-7.06,4.05 -19.13,12.35 -25.88,16.46l-45.73 -5.45c-414.7,104.7 -462.05,-143.04 -707.12,-341.57 -118.9,58.92 -66.7,-30.53 -56.78,99.37 1.21,15.74 32.81,60.64 41.96,73.62 42.26,60.03 82.16,98.49 120.76,156.35z"/>
    <path class="fil8" d="M9010.37 5564.94c139.36,36.73 253.48,268.89 360.35,411.49 62.4,83.26 102.53,135.76 172.41,221.17 80.68,98.62 156.16,132.79 117.94,230.86 61.47,54.6 53.4,-43.44 112.01,145.62 39.94,128.81 11.15,97.39 -6.53,182.87 88.57,185.01 6.1,403.89 8.8,487.23 8.36,258.6 -18,70.75 66.01,165.51 270.41,-420.76 13.03,-842.85 -107.14,-1240.62 -93.93,-107.36 -235.98,-307.6 -267.32,-456.48 -329.78,146.83 -166.13,-202.69 -340.34,-257.28 -191.23,-59.92 -109.33,78.24 -116.19,109.63z"/>
    <path class="fil8" d="M6286.96 15408.69c-115.43,-21.03 -56.11,-45.82 -64.35,32.99 49.35,128.43 126.26,235.2 305.65,244.89 280.41,15.16 340.28,-126.67 383.89,-172.14 471.74,-491.83 488.28,-146.26 597.26,-74.15 5.03,-229.76 -151.26,-359.99 -396.04,-344.39 -138.54,95.01 -253.06,263.86 -375.73,363.74 -251.46,204.71 -311.62,52.23 -450.68,-50.94z"/>
    <path class="fil8" d="M2039.45 10626.32c173.69,-0.08 54.8,25.3 148.97,-22.74l-12 7.26c275.89,-84.58 482.94,-71.87 612.41,204.83 7.35,15.71 33,86.3 31.34,110.96 -8.18,121.39 95.61,15.34 -45.18,73.36l56.78 35.49c7.35,4.3 18.94,10.01 26.91,14.76l125.47 91.61c4.93,-8.47 16.48,19.37 25.16,28.67l-19.01 -151.02c-70.25,-170.66 -60.09,-314.3 -190.96,-492.85 -119.57,-163.13 -293.92,-204.79 -549.17,-133.87 -111.68,55.43 -154.3,104.29 -210.72,233.54z"/>
    <path class="fil8" d="M5357.37 13105.8l15.24 41.97c61.36,5.83 41.16,-9.27 41.16,62.16 146.03,45.57 207.53,105.81 371.92,109.18 143.84,2.95 132.2,25.67 228.05,23.82 120.97,-2.34 136.77,-38.75 185.32,-98.77 -127.98,-70.73 -163.43,-25.32 -319.29,-10.33 157.53,-119.93 84.27,-18.29 123.45,-172.74 -352.37,59.83 -360,-42.39 -542.84,-130.72 -159.55,-25.93 -28.52,-59.37 -126.22,17.94l23.21 157.49z"/>
    <path class="fil8" d="M8600.69 16180.71l-10.66 166.56 122.87 -36.24c193.77,-70.14 272.81,-162.91 498.19,-225.78l66.47 -21.74c186.87,-63.53 112.13,-15.28 160.54,-126.24 -569.71,-75.84 -445.81,143.99 -837.41,243.44z"/>
    <path class="fil8" d="M7693.72 16593.34l-59.11 81.44c-32.25,53.13 -9.35,11.82 -32.89,85.46l236.65 -29.98 230.32 -31.69c51.3,-61.56 6.79,-34.64 100.56,-78.63 8.26,-3.86 20.5,-5.23 29.09,-8.91 8.51,-3.67 20.63,-5.17 28.89,-8.69l80.42 -42.37 -140.8 -95.92c-192.22,11.05 -126.52,4.23 -284.29,63.06 -76.8,28.64 -105.91,28.56 -188.84,66.23z"/>
    <path class="fil8" d="M8708.49 4194.34c67.33,37.22 37.04,270.27 59.03,363.48l112.97 23.18 -9.54 -165.41c-12.28,176.23 -17.29,-1.8 73.08,77.64l-9.08 -97.61 -18.33 -292.66 -151.05 -29.78c-19.87,39.32 -34.52,82.8 -57.08,121.16z"/>
    <path class="fil8" d="M14515.13 9891.63c0.08,-0.07 -17.45,-96.2 114.61,-17.21 47.07,28.15 35.95,43.02 57.26,95.86 -143.99,-2.65 -102.34,8.87 -171.87,-78.65zm263.55 39.69c-59.13,-274.72 -372.11,-208.55 -354.97,-48.63 8.28,77.19 116.52,147.73 167.86,156.07 115.54,18.75 144.13,-52.19 187.11,-107.44z"/>
    <path class="fil9" d="M11637.47 3826.78c-60.36,118.96 87.11,60.7 -131.02,140.19 -57.15,20.82 -65.48,10.13 -115.11,-7.4 -116.32,-41.08 -132.98,-99.12 -170.51,-201.25l416.64 68.46zm1161.28 -638.29c-136.43,-97.54 -258.67,-244.69 -399.68,-359.32 225.88,-26.4 380.42,149.48 399.68,359.32zm-1154.21 -967.54c-29.25,-40.78 -26.13,-8.79 -54.06,-102.69l-23.91 -686.39c248.35,14.84 255.71,90.16 315.13,283.08 -56.76,136.9 -60.46,35.78 -114.23,240.54 -9.42,35.85 -23.45,129.11 -34.67,154.81 -73.77,168.87 -11.92,40.89 -88.26,110.65zm-403.52 -216.44c-72.64,164.82 -5.27,60.99 -112.24,119.22 -149.63,-76.09 -153.77,-106.14 -249.46,-353.72 -37.55,-97.14 -20.25,-19.17 -22.77,-122.26 -6.79,-8.48 -13.48,-21.26 -17.69,-27.39 -4.16,-6.06 -12.73,-19.53 -17.91,-26.81 -191.04,-268.67 -339.4,-163.74 -644.13,-161.04 65.51,-701.52 677.8,-325.73 742.79,-262 104.23,102.22 455.22,571.92 321.41,834zm-330.95 -1080.83c-3.63,2.17 -23.02,123.37 -155.62,-3l-363.74 -118.66c38.91,-101.94 126.67,-106.3 248.4,-138.26 181.84,-47.73 183.14,-2.32 306.98,42.53l-36.02 217.39zm577.88 -281.63c-82.13,-96.96 -197.74,-191.2 -230.2,-316.34 102.75,-81.8 -109.39,-31.29 146.57,-75.07 59.1,-10.11 127.79,10.81 194.21,16.72l169.13 654c-136.84,-101.8 -165.1,-143.99 -279.71,-279.31zm-3087.28 3573.73c-4.89,450.92 119.03,333.13 148.99,575.3 87.91,24.59 110.99,35.27 181.44,61.53l-81.57 -151.57c-70.26,-160.99 -60.92,-396 58.96,-506.7 22.56,-38.36 37.21,-81.84 57.08,-121.16l151.05 29.78c147.52,-101.95 -16.75,-58.79 185.88,-131.84 461.98,-166.52 902.85,-42.11 992.85,-84.92 166.6,-165.89 74.33,-254.82 161.3,-419.75 210.25,-154.62 319.08,-80.57 427.2,-367.11 -226.4,44.74 -232.85,173.07 -508.95,210.65 -432.62,58.88 -683.86,-325.74 -662.47,-716.49 19.39,-354.22 122.65,-224.53 339.43,-322.85 -41.05,-69.66 19.12,-8.03 -58.28,-54.96 -104.98,-63.67 147.21,54.4 -53.25,-24.86 -16.23,-6.42 -118.69,-27.71 -157.48,-37.33l-35.81 -252.34 235.09 -52.85 -251.07 -53.97c39.33,-185.52 33.31,-190.08 172.17,-216.22l48.46 -191.3c-151.12,-49.06 -129.77,11.07 -176.56,-135.51 -133.09,-316.86 307.14,-641.98 554.02,-528.67 -21.49,75.06 -251.78,364.61 -223.22,759.77 333.47,36.28 17.98,-17.23 231.03,146.12 208.93,-45.59 154.71,-113.05 405.73,-114.61 70.85,86.53 368.25,418.82 412.73,574.88 22.49,78.94 -37.5,684.67 5.93,849.92l-4.26 124.15c67.88,-241.71 228.11,-282.79 419.37,-207.03l475.93 168.97c-130.58,335.05 -353.2,200.49 -644.26,181.88 -52.67,60.23 -58.14,-75.12 -34.48,113.58 103.46,54.76 165.62,86.27 354.65,92.41 280.39,-32.94 432.14,-238.69 543.89,-387.08 173.45,17.31 216.42,39.35 338.49,100.88 -113.94,108.94 -277.01,112.54 -277.01,112.54 -5.2,-9.53 -20.7,4.59 -30.89,7.46l-86.72 148.04c-132.59,158.26 -203.93,192.42 -420.33,236.8 -185.62,10.98 -347.21,-22.95 -493.99,-84.63 -120.29,-2.34 -125.29,-10.38 -209.92,33.81 -22.88,157.15 34.47,173.79 73.98,232 73.37,124.1 252.69,199.76 420.51,261.42 140.07,51.45 153.92,41.86 290.13,77.45 93.01,24.3 134.84,65.46 214.72,104.1l32.07 74.15c32.21,151.96 5.16,-26.65 -2.45,257.94 174.04,-127.35 91.18,-112.82 125.35,-317.37 169.16,26.68 158.07,61.18 211.78,105.49l133.35 78.06c-99.89,659.58 -665.63,769.66 -1051.4,555.7 149.14,-79.11 307.32,-130.8 398.46,-196.83l-25.67 -67.46c-82.42,63.13 -200.37,107.26 -299.53,110.36 -47.04,1.46 -299.05,15.73 -403.61,6.19 -228.54,-20.85 -473.99,-114.81 -753.24,-150.31 -38.38,66.88 -84.47,130.92 -122.06,214.91 -111.82,-22.6 -208.84,-77.41 -324.23,-89.79 -128.74,-13.81 -241.15,2.38 -380.08,-26.66 -158.62,-33.15 -421.54,-242.24 -485.87,-316.62 -90.37,-79.44 -85.36,98.59 -73.08,-77.64l9.54 165.41c-2.78,286.3 456.21,385.42 675.2,413.12 832.93,105.33 116.85,126.79 550.07,275.65 190.46,65.45 112.68,-131.86 166.48,136.59 -74.29,49.02 -113.8,70.45 -254.31,-31.89 -42.62,34.16 -16.95,-27.27 -20.14,58.49 7.56,4.77 18.14,5.26 21.17,16.47 0.84,3.03 93.6,109.68 282.86,98.75 9.58,-40.08 34.14,-129.32 45.43,-211.24 56.55,111.36 22.54,93.91 146.76,148.43 77.11,-40.45 24.44,15.8 70.66,-76.4 52.71,-89.52 50.91,-117.61 -1.27,-185.16 -6.1,-7.89 -40.64,-43.7 -50.18,-52.85 -76.88,-123.97 620.55,-55.13 718.84,-38.7l251.81 91.26c568.4,-101.59 531.86,99.39 934,-470.56 70.55,-100 111.16,-202.06 122.14,-357.3 -328.12,-160.37 -572.27,-206.06 -616.68,-457.93 330.01,-185.83 1061.86,-22.48 908.73,786.04 -46.18,243.82 -191.98,461.59 -359.62,639.17 -155.91,165.14 -429.36,215.78 -669.06,268.4 -57.91,42.32 15.34,19.73 -82.81,43.1 -25.63,6.11 -85.74,8.9 -114.21,10.98 25.73,175.9 76.11,62.3 -35.66,168.73 -112.67,89.69 -222.84,184.22 -353.34,275.98 -104.66,73.61 -99.22,57.76 -184.66,134.44 -100.78,90.44 -86.18,103.93 -206.67,155.49l-11.93 -21.18c-29.02,407.84 -131.86,422.82 127.19,742.74 216.21,267.02 163.46,281.12 306.51,592 175.66,-289.54 -183.64,-698.15 -192.38,-906.16 -1.3,-31.05 -16.05,-74.13 39.61,-163.31 114.44,-255.21 112.79,-290.33 361.08,-433.26l287.36 -408.67c74.39,-71.53 385.97,-128.58 521.58,-191.18 326.82,-150.83 547.74,-450.66 647.83,-817.08l125.15 142.19c74.02,54.58 84.48,32.15 115.19,144.28 173.62,74.43 74.41,36.82 172.05,136.76 88.3,90.37 61.78,23.22 144.06,130.71 59.79,-53.58 19.82,15.14 28.7,-87.03l-34.33 -35.89c-118.6,-89.43 -191.88,-173.43 -302.63,-326.21 -115.17,-158.88 -195.55,-181.47 -198.57,-425.17 -1.1,-89.78 3.52,-223.71 -5.78,-273.87 -26.96,-145.45 -294.94,-407.94 -511.37,-426.36l-279.63 -25.42c66.58,-120.66 206.3,-202.41 351.08,-254.03 311.69,-203.91 185.44,64.45 576.81,128.06 -50.1,-124.8 19.41,-36.25 -64.5,-109.84l-90.88 -97.42c-25.37,-31.4 -49.24,-67.59 -74.33,-92.41l4.3 -147.9c-26.31,-227.01 -262.96,-532.17 -542.61,-514.79 -305.84,19.02 -420.83,266.29 -871.81,-12.04 35.06,-268.61 377.22,-412.29 427.75,-692.13l45.01 -532.69c110.61,-40.29 247.78,-34.69 394.42,-17.82l-1.78 4.36 33.3 -105.36c-303.3,-53.08 -266.23,-200.67 -268.79,-479.34l267.83 403.44 149.42 -4.09 67.69 -274.66c-151.06,17.69 0.56,-44.95 -142.38,106.5l-43.61 47.25c-132.31,-156.06 -160.02,-207.43 -258.43,-405.99 -81.28,-163.99 -22.2,-30.88 -60.64,-229.86 -33.35,-172.65 -51.26,-114.37 -98.06,-263.35 -99.93,-107.2 -77.94,4.01 -239.48,7.27 -94.86,1.92 -787.84,-435.45 -633.32,372.69 -299.52,-23.76 -309.17,-100.7 -635.98,-39.25 -240.51,45.22 -607.34,-211.97 -1047.75,264.23 -73.44,79.42 -122.97,149.05 -120.67,288.61 2.23,135.69 50.42,212.66 98.19,315.25 127.62,274.15 21.77,441.92 29.59,781.25l4.11 38.91c0.93,5.12 5.07,16.36 6.29,21.84 45.76,206.52 -79.07,646.93 179.64,963.78 123.09,150.74 317.44,209.79 573.82,213.94l-92.1 264.84c-223.67,11.22 -334.79,19.94 -542.81,63.17 -433.21,90 -115.38,-270.62 -876.72,118.81 -309.13,158.15 -123.64,84.6 -267.65,316.6z"/>
    <path class="fil9" d="M6244.94 7521.16c-115.73,95.18 -210.42,245.57 -324.63,411.98 -62.34,90.84 -234.96,384.24 -297.53,410.67 -60.46,361.7 -160.38,110.89 -157.9,633.87 1.13,240.81 23.13,568.58 12.95,780.66 199.18,-146.24 -26.55,178.08 47.42,-68.18 43.51,-144.88 4.48,-143.65 16.58,-229.92 14.84,-105.82 -10.96,-20.43 32.71,-75.18 35.83,80.63 22.81,139.93 93.95,234.1 0.34,-12.33 -5.41,-166.3 -5.37,-166.7 2.4,-28.55 -29.18,-71.42 61.35,-159.3 -7.98,-292.6 143.28,-466.45 292.34,-896.4 15.77,-45.46 32.45,-106.45 51.9,-148.48l114.94 -155.49c-19.6,225.42 -80.41,432.67 -110.05,670.41 -41.5,332.95 41.88,444.27 40.07,653.2 102.78,71.11 78.7,39.74 150.38,177.64 181.72,17.51 75.76,-117.4 178.1,64.02l77.76 163.59c5.02,7.7 15.03,20.25 19.34,26.5 4.43,6.45 13.79,17.85 20.38,26.99 62.74,6.01 148.65,-0.11 197.09,3.55 261.16,19.75 493.17,83.38 746.66,-2.86 339.71,-115.57 439.7,-348.64 650.23,-496.46 4.39,241.28 -0.11,913.79 59.25,1140.63 59.47,227.27 28.19,-8.57 51.8,-69.32 203.67,449.89 204.57,264.47 317.93,439.16 117.94,181.73 125.76,345.4 396.18,377.26 -9.68,-172.79 -12.62,-28.06 47.34,-76.94l231.15 55.72 -18.9 -50.46c-74.4,-41.17 -54.65,-40.33 -91.4,-73.11 -61.62,-66.45 -141.98,-105.18 -225.38,-173.41 -131.05,-107.19 -168.72,-81.3 -212.64,-207.04 -233.43,-435.74 -336.97,-945.24 -414.94,-1469.49l29.3 -224.59c-22.88,-104.79 29.04,-387.76 -154,-253.75 -64.34,47.09 -114.51,208.96 -266.88,277.19 -238.13,446.32 -1113.08,690.51 -1424.65,355.78l-214.27 -531.71c-88.73,-663.08 -40.27,-690.68 212.6,-1146.48 46.65,-203.74 -4.14,-162.96 -119.2,-315.17 -35.86,30.1 -70.65,54.73 -111.96,87.52z"/>
    <path class="fil9" d="M7765.89 4450.85l85.26 29.2c-108.4,521.83 229.03,416.79 -304.19,597.89l-681.7 269.74c-119.07,51.96 -188.24,104.33 -298.9,140.62 -112.61,-145.59 -40.64,-195.43 -242.06,-303.59 51.6,-73.46 -11.02,-16.69 87.4,-93.51l966.7 -463.15c112.05,-47.69 410.41,-100.14 272.38,-124.75 -650.81,183.98 -1244.45,497.31 -1886.41,775.08 -325.16,140.7 -588.38,295.86 -954.73,394.7 -504.44,136.1 -564.72,-143.47 -1106.16,86.88 47.93,35.86 22.19,37.38 108,54.01 159.15,-157.89 393.14,-134.64 571.69,-50.72 -91.95,68.5 -58.17,37.82 -159.61,74.36l-170.14 101.8c182.67,-11.86 319.98,-62.5 488.51,-60.02 166.15,2.45 351.75,-32.7 427.41,-21.66l21.32 104.33c-132.3,80.32 -280.97,-86.2 -249.87,139.43 149.52,-51.57 18.95,-83.15 179.02,239.99 61.64,124.43 101.83,195.68 159.49,312.95 113.05,229.91 194.7,463.27 399.26,548.8 129.29,-80.05 190.39,77.5 299.51,-89.89 -199.19,-192.8 -299.95,-224.85 -476.25,-441.76 -133.56,-164.33 -302.35,-321.64 -394.62,-511.06 68.08,-102.85 125.03,-141.27 129.9,-291.19l-52.99 -136.83c418.06,-129.07 1018.36,-459.99 1189.27,-488.2 244.48,-40.37 273.7,3.08 325.81,201.76 -9.83,89.39 -151.09,149.49 -251.46,198.1 -636.34,308.21 -924.89,48.64 -992.02,293.36 1423.83,-175.9 1578.72,-681.1 2630.24,-887.86 35.82,49.74 110.91,125.26 167.41,179.7 121.97,117.52 150.54,79.65 211.22,127.44 249.08,-85.34 90.18,-33.55 238.87,-10.91 300.46,45.74 689.08,-97.31 918.31,7.01l331.47 33.36c-8.2,-261.83 -105.15,-246.78 -330.59,-274.17 -701.18,-16.2 -938,249.92 -1279.42,-55.39l-42.47 -47.26c78.22,-49.99 73.06,-50.17 188.16,-77.52 55.77,-13.25 119,-17.23 176.71,-25.54l-147.87 -2.63 -294.09 17.96 4.1 -435.44c202.05,-158.03 175.41,-63.2 241.62,-191.29 -30.18,-40.53 -25.36,-33.98 -53.02,-70.01l-46.08 -58.69 -255.28 14.45c-32.06,92.9 -6.31,99.14 -25.29,156.04 -48.97,146.86 15.83,96.56 -123.82,114.08z"/>
    <path class="fil9" d="M10857.45 9824.51c-82,244.55 -213.16,403.74 -402.64,583.92 -93.5,88.9 -189.32,169.8 -236.54,239.56 -120.09,177.43 -20.66,140.76 -239.81,266.66l-149.51 80.76 -41.8 119.84 -363.99 51.71c100.67,-58.07 -116.92,-17.86 40.07,-14.71 36.96,0.74 106.68,9.2 157.77,9.73l-32.03 149.17c280.49,-52.39 379.49,-52.05 626.52,-185.77l178.03 -104.18c274.84,-192.75 386.41,-454.85 463.46,-573.73 4.35,-6.7 13.24,-19.59 16.81,-25.02 3.59,-5.46 11.16,-16.84 16.96,-25.11l414.49 1182.73c169.29,407.99 371.3,778.84 593.42,1014.51 57.72,-121.55 14.53,-73.59 19.05,-210.62 0.12,-3.55 1.47,-14.8 4.74,-21.3 -23.24,-104.37 -322.3,-606.06 -400.01,-761.47 -160.01,-320 -216.23,-509.83 -313.6,-891.87l-78.6 -301.5 -53.96 -183.23c-121.57,-324.33 -72.69,-88.83 -65.5,-492.41 -93.23,32.4 -89.96,48.93 -153.33,92.33z"/>
    <path class="fil9" d="M10692.18 16998.08l45.73 5.45c6.75,-4.11 18.82,-12.41 25.88,-16.46l99.44 -45.43c211.69,-65.45 159.88,-279.35 424.24,-365.72 263.97,138.56 307.05,294.88 465.17,551.56 86.01,139.64 122.23,193.44 212.58,302.7 139.7,168.95 92.26,96.1 292.48,201.57 54.51,23.28 74.07,27.86 132.11,51.45l134.73 53.81c315.39,-184.75 472.9,-468.59 628.48,-521.6 6.73,-8.63 17,-18.8 21.9,-24.49l132.38 -196.91 -91.34 -41.44c-167.96,-2.28 -260.33,25.13 -366.87,82.6 -160.86,130.86 14.01,52.88 -162.3,106.59 -22.92,126.64 -74.62,189.46 -160.73,287.13 -276.49,40.56 -386.01,-41.16 -487.71,-219.31 -101.84,-73.78 -44.25,-15.9 -119.81,-132.47 -88.48,-117.88 -131.12,-199.1 -222.74,-330.52 -113.41,-162.67 -188.84,-179.38 -264.9,-318.78l-392.92 -110.67c-7.3,214.28 -80.25,266.68 -158.3,389.28 -42.72,67.1 -179.69,261.28 -187.5,291.66z"/>
    <path class="fil9" d="M1946.72 11156.89c1.19,208.73 -120.85,434.25 -13.36,669.87 97.4,213.49 120.31,-4.6 92.54,264.97 -38.98,378.3 0.23,583.36 202.38,949.74 3.53,6.41 136.44,238.04 145.53,250.1 31.3,41.56 43.35,98.34 213.21,79.01 103.19,-11.74 31.82,6.61 88.66,-25.7 -96.03,-272.38 -194.81,-48.45 -353.29,-398.92 -85.63,-189.4 -197.98,-385.93 -168.81,-644.42l104.87 195.28c60.38,131.84 209.37,328.98 385.17,331.65 180.65,2.72 45.71,22.67 127.39,-39.28 -81.97,-201.67 -122.24,-37.56 -292.3,-196.76 -77.34,-72.4 -130.66,-191.24 -171.97,-304.57 -171.59,-470.86 104.47,-330.69 -278.09,-729.14 -43.87,-632.07 904.27,-845.53 941.78,51.28 91.44,-28.51 88.71,-17.31 154.29,-52.18l-88.82 -388.58 -26.59 1.28c-8.68,-9.3 -20.23,-37.14 -25.16,-28.67l-125.47 -91.61c-7.97,-4.75 -19.56,-10.46 -26.91,-14.76l-56.78 -35.49c-115.71,-95.97 -308.66,-145.74 -487.12,-110.84 -209.68,41.02 -236.18,180.18 -341.15,267.74z"/>
    <path class="fil9" d="M11621.58 10617.54l65.02 104.99c10.01,18.03 31.62,61.71 41.01,80.45l241.83 501.42c86.33,82.18 54.31,72.4 138.89,190.73 54.06,75.65 90.04,107.28 145.44,168.18 217.09,238.67 164.31,81.8 370.63,210.3 132.2,24.05 145.38,6.49 269.26,32.4 17.69,3.7 103.36,27.91 112.18,28.46 8.64,0.54 20.79,1.05 29.21,0.82 8.63,-0.25 21.89,-2.77 29.76,-3.63l60.51 -17c-93.3,-11.64 -26.93,14.65 -127.24,-26.97 -11.49,-4.76 -45.54,-22.48 -56.58,-29.03 -81.47,-48.33 -52.76,-38.47 -82.99,-64.23 -159.56,-76.74 -241.85,-102.1 -260.25,-314.9 -120.63,-16.62 -149.58,-80.94 -191.33,-188.06l-442.81 -487.35c-98.04,-122.38 -102.88,-133.61 -222.16,-254.68l-179.59 -193.51 59.21 261.61z"/>
    <path class="fil9" d="M7556.89 11598.21c107.3,209.37 183.23,319.06 330.41,464.78 154.51,152.96 228.56,250.33 466.72,306.09l95.32 -36.84c-252.4,-240.1 -38.1,-8.91 -263.08,-138.45 76.22,-122.51 14.42,-34.57 48.6,-141.96 -118.94,-59.8 -416.39,-465.17 -455.52,-553.24 -73.78,-166.12 -144.62,-687.39 -143.43,-921.18 -19.71,-171.37 58.25,-76.49 -92.91,-98.42 -142.96,479.14 -91.03,612.9 13.89,1119.22z"/>
    <path class="fil9" d="M14315.19 10137.8c-6.04,53.89 -10.01,143.16 -19.12,191.43 -32.38,171.45 7.38,73.07 -54.57,142.91 -8.18,113.98 16.19,31.6 -38.79,173.89 -46.09,80.13 -45.01,75.31 -104.22,152.82 -27.63,36.15 -59.05,73.56 -87.42,107.97 -66.94,81.15 -108.46,151.55 -183.9,175.78l-9.38 198.26c-105.08,79.25 -68.34,22.44 -179.19,128.47 -60.97,58.33 -58.68,68.67 -131.6,120.77l200.34 -90.26c-85.56,178.38 -184.67,276.29 -362.38,347.05 334.92,83.72 357.2,33.02 429.37,-298.71 79.02,47.3 37.03,9.11 97.2,59.53 265.36,-89.81 240.39,-340.9 351.76,-606.85 5.74,11.9 11.34,68.6 13.37,72.55 42.79,83.29 -57.94,32.46 59.74,53.64 26.88,-104.32 30.78,-213.24 63.37,-320.42 62.39,-205.11 66.39,-109.58 54.34,-377.81l-10.93 -302.44c-89.87,26.93 -6.72,-50.47 -87.99,71.42z"/>
    <path class="fil9" d="M4753.21 13859.83c9.45,-9.92 30.15,-29.75 35.66,-20.4 5.33,9.01 36.97,-19.62 58.48,-40.66 96.63,-94.55 29.72,85.1 41.49,-63.55 -204.86,-132.92 -853.41,360.67 -885.35,-151.82 -208.37,-134.98 -63.37,-192.35 -372.74,-211.83 -410.79,110.86 -409.34,-261.2 -444.79,-542.86 -19.5,-154.91 -20.9,-139.43 -184.25,-159.11 11.8,159.94 44.81,139.05 70.47,281.82 57.79,321.58 -158.45,569 792.19,599.33 183.39,350.52 240.7,566.6 888.84,309.08z"/>
    <path class="fil9" d="M14688.53 11258.29c175.67,241.89 9.76,1075.46 -41.1,1333.22 67.74,120.06 17.73,186.78 90.42,-102.75 94.44,-376.2 129.88,-436.47 150.73,-852.5l-2.83 -283.73c-11.28,-213.51 -117.44,-837.23 -186.38,-944.17l-206.02 -21.07c-88.47,216.31 30.1,209.21 101.66,401.84 53.74,144.64 83.87,322.8 93.52,469.16z"/>
    <path class="fil9" d="M8307.82 7416c-67.89,42.02 -46.26,72.3 -179.02,117.13l-206.34 54.7c-6.88,-10.55 -24.08,7.79 -35.43,13.3 160.03,21.41 100.27,27.72 266.76,28.18 110.96,0.31 116.82,1.4 230.19,-18.04 211.39,-16.24 392.62,-88.24 598.34,-143.01 318.25,-84.74 358.5,-78.84 706.48,-90.25l-105.33 -122.3c-271.39,-1.31 -372.99,-72.81 -715.46,-17.58 -230.17,37.13 -356.78,89.79 -560.19,177.87z"/>
    <path class="fil9" d="M6003.22 13061.09c-39.18,154.45 34.08,52.81 -123.45,172.74 155.86,-14.99 191.31,-60.4 319.29,10.33l43.01 23.32 221.32 -162.6c10.19,-6.66 23.73,-13.69 31.82,-17.92 181.15,-94.9 243.56,-83.68 240.22,-180.45 -2.29,-66.11 -49.83,70.35 -15.49,-87.79 -459.47,-58.26 -341.18,-4.17 -479.94,65.34l-57.5 22.81c-32.44,19.31 -24.57,15.19 -51.98,42.02 -106.47,104.28 35.92,46.96 -127.3,112.2z"/>
    <path class="fil9" d="M2039.45 10626.32c-28.02,13.53 -14.05,1.71 -59.77,36.33 -7.9,5.99 -30.88,27.89 -39.71,35.01 -95.39,76.81 -5.46,25.41 -130.36,90.5 -10.34,-0.21 -25.21,1.42 -30.98,1.9l-150.12 2.05 -5.54 130.71c2.46,84.28 -24.35,77.94 50.46,135.24 83.85,64.21 91.14,34.9 201.51,37.21 6.96,-9.05 16.64,-20.27 21.63,-26.56 4.88,-6.13 14.91,-18.72 20.74,-26.17 5.62,-7.17 14.08,-17.28 20.04,-25.14 5.64,-7.43 13.52,-16.07 19.03,-23.75l220.04 -382.81 12 -7.26c-94.17,48.04 24.72,22.66 -148.97,22.74z"/>
    <path class="fil9" d="M3336.89 11932.63l103.57 -140.98 -243.22 20.91 -133.55 9.44c23.51,-259.93 20.57,-79.46 -48.17,-147.35l-115.03 185.75c-69.57,95.52 -100.44,117.61 -94.36,247.21 322.42,74.17 243.84,-104.61 530.76,-174.98z"/>
    <path class="fil9" d="M14995.14 7181.4c115.94,236.09 457.21,291.57 702.84,365.52l29.45 -100.48c-127.71,-61.65 -253.18,-111.29 -358.09,-168.12 -137.04,-74.24 -211.25,-163.48 -325.02,-207.25l-49.18 110.33z"/>
    <path class="fil9" d="M14081.76 5722.77l180.2 93.06c89.4,46.01 106.53,51.41 171.7,104.85 128.79,105.6 79.82,96.01 71.96,120.96 -59.99,-41.2 -65.3,-92.18 -83.77,-174.93 -103.75,-97.31 -145.9,-245.58 -303.7,-312.46 -138.11,-58.54 -157.42,-8.5 -282.59,-39.61 -52.53,-13.06 -146.03,-73.23 -204.34,-97.81 -122.35,15.69 -22.24,-50.88 -93.72,41.81 115.65,91.96 228.95,170.49 379.61,211.53l164.65 52.6z"/>
    <path class="fil9" d="M15652.76 7056.7c231,-119.62 330.66,-318.9 463.9,-585.42 -0.51,-0.39 34.7,-165.36 -136.25,136.16 -294.93,520.15 -348.05,205.99 -496.11,525.28 124.72,-41.68 57.16,-11.45 168.46,-76.02z"/>
    <path class="fil9" d="M11168.45 9559.33c-68.89,-60.68 -56.98,-25.04 -72.16,-138.04l182.88 30.56c-55.66,149.57 4.78,56.55 -110.72,107.48zm-79.88 45.21c211.65,22.25 298.63,-52.57 208.11,-237.79 -132.35,-70.86 -436.47,-83.74 -208.11,237.79z"/>
    <path class="fil9" d="M8589.7 8501.64c63.36,134.54 52.92,75.03 -39.68,138.36 -45.53,-68.69 -50.59,71.25 -24.1,-86.97 15.32,-91.47 -7.55,-17.92 63.78,-51.39zm-177.82 -23.31c3.91,158.29 8.87,144.73 98.48,231.18 190.42,-35.55 227.79,-108.18 171.97,-302.1 -102.39,2.68 -203.58,31.13 -270.45,70.92z"/>
    <path class="fil9" d="M6628.23 7219.63c184.07,10.87 200.5,2.96 197.58,-182.98 -72.24,-106.01 -0.31,-31.92 -103.12,-89.04l-154.22 80.32c0.18,150.09 -10.5,101.14 59.76,191.7z"/>
    <path class="fil9" d="M15489.09 6600.4c196.37,21.91 308.52,-50.83 425.1,-134.41 -75.37,-39.72 -112.65,-65 -233,-37.22 -186.18,42.96 -165.56,42.88 -192.1,171.63z"/>
    <path class="fil9" d="M10284.28 2230.96c107.05,138.08 321.33,63.43 419.22,0 -125.81,-76.99 -289.72,-80.08 -419.22,0z"/>
    <path class="fil10" d="M14888.58 11636.26c266.66,261.1 101.39,366.83 77.58,483.62 -3.25,15.95 -8.62,81.79 -11.75,120.46 -39.13,483.42 -46.24,262.29 -162.39,528.29 -3.84,8.79 -7.64,19.34 -11.08,28.38 -139.48,366.94 -40.01,90.38 -186.58,360.24 -111.01,204.38 3.67,170.14 -132.5,202.72l-112.61 69.8c-66.06,52.72 -143.86,125.86 -199.88,161.26 -117.28,74.12 -454.93,130.86 -640.39,94.87l174.02 -23.28c-223.94,347.79 -29.11,69.91 -207.5,198.26 11.8,256.14 43.82,-23.1 82.88,385.13 327.06,39.18 157,242.63 632.11,240.97 -51.32,294.48 68.41,91.95 -152.28,207.45 90.93,89 54.24,-3.45 69.71,165.04 -95.59,16.69 -159.3,39.16 -224.21,73.11 -10.54,539.1 21.1,252.67 120.58,542.09 99.11,288.35 -79.47,216.82 -175.93,447.12l-13.85 47.98c-1.7,5.99 -2.52,18.21 -4.16,24.08 -80.02,286.04 -183.74,23.36 -369.59,92.65 -159.95,59.63 -48.04,124.66 -129.96,268.3 -226.84,7.6 -185.75,19.21 -195.65,-196.08 -238.16,-3.5 -185.56,-64.37 -296.28,-80.35 -212.03,-30.59 73.24,64.58 -261.85,51.92 -216.59,-203.01 8.15,-134.72 -312.92,-299.71 -214.15,-110.04 17.13,-13.79 -135.33,-117.71 -79.45,-54.17 -23.28,-31.2 -86,-15.76 -71.59,17.6 28,-46.17 -69.63,48.46 22.82,52.09 44.12,87.82 72.46,139.84l154.09 214.06c5.09,6.5 12.14,15.85 17.32,22.38 343.88,433.92 131.28,203.52 566.14,603.92l221.3 -348.94c250.91,163.35 340.31,186.52 524.72,-42.6l91.7 194.74c68.36,-50.62 -14.72,-34.56 146.34,-35.95 134.15,-156.68 22.67,-167.34 198.37,-196.78 37.82,81.13 10.3,116.89 42.58,246.31 24.92,99.85 52.36,229.91 76.64,295.08 184.15,69.16 413.92,78.25 669.37,75.19l53.83 -116.25c3.92,-7.28 10.5,-18.06 14.45,-25.1 52.24,-92.98 14.21,-17.53 55.61,-92.62 42.66,205.21 158.88,238.36 158.89,238.36 10.6,4.19 29.53,-8.67 34.09,2.7l128.53 -3.81c1.58,-0.45 10.76,-2.27 12.47,-2.99 2.27,-0.94 13.01,-6.26 15.29,-7.47 137.1,-72.35 -32.39,96.05 37.21,-28.12 52.36,-271.49 -15.26,-30.29 -65.68,-126.6 -39.01,-74.49 -67.7,-52.76 -3.41,-179.18 177.82,-4.89 129.83,-10.21 198.56,107.11l173.65 0 12.54 -174.27 -111.9 -14.95c44.79,-207.13 171.91,-12.01 189.53,-525.04 118.79,-55.12 148.7,-33.85 202.96,-137.38 58.67,-111.93 15.27,-197.47 1.12,-342.57l-160.16 -907.3 -146.82 -231.74c-52.92,-117.18 -42.27,-552.08 -49.42,-754.97 -127.61,-53.3 -151.03,-24.57 -258.13,-58.84 31.94,-168.61 72.75,-47.95 15.13,-242.9 59.96,130.83 2.9,42.29 131.11,135.17 0,-470.55 -0.68,-433.34 -133.33,-915.05 -50.05,-181.78 -97.03,-646.97 -209.34,-923.04 -33.29,-163.91 -22.78,-174.21 -145.2,-233.44l2.83 283.73z"/>
    <path class="fil10" d="M12395.19 10245.76c165.08,27.24 241.69,-25.54 439.54,-44.64 125.21,-174.95 -57.93,-118.74 116.02,-201.37 153.58,-72.94 59.15,11.77 181.68,110.59l109.45 61.65c529.27,257.6 98.71,487.37 89.77,672.25 -12.11,250.58 212.26,17.08 1.63,476.31 147.74,124.48 66.56,1.3 100.15,95.58 17.52,49.18 0.24,69.62 -15.08,138.62l88.65 -24.65c72.92,-52.1 70.63,-62.44 131.6,-120.77 110.85,-106.03 74.11,-49.22 179.19,-128.47l9.38 -198.26c-224.31,110.15 -48.54,35.39 -115.71,-0.2 54.33,-131.99 54.17,-115.71 50.25,-198.07l-5.45 -95.76c-10.88,-228.79 -37.57,-71.58 -57.25,-260.69 -7.23,-69.5 2.5,-77.87 22.15,-163.96 17.79,-77.94 39.78,-158.87 31.01,-277.68 -187.31,116.08 -427.46,-39.44 -595.39,-154.92 108.58,-144.41 126.75,-9.38 158.21,-239.45 -99.01,-43.53 -172.81,-24.73 -339.45,-60.6 -169.05,-543.29 -88.62,-267.89 -241.97,-493.8 104.93,-50.69 58.88,23.48 232.45,-65.15l2.12 -277.86 -669.12 -544.6c-237.8,-195.4 -464.41,-304.71 -785.75,-303.17 39.58,48.14 -89.17,25.64 168.94,44.05 353.16,25.19 197.42,53.32 453.33,202.25 -90.34,54.64 -171.61,86.31 -211.33,190.31 175.42,110.28 163.45,22.79 291.52,0.01 68.71,-12.23 157.27,22.03 283.94,22.13 -40.32,167.6 -49.48,95.02 -33.1,197.2 2.8,17.41 40,21.36 51.19,177.6 -66.55,58.49 -119.7,106.04 -193.73,165.31 -109.56,87.69 -69.12,57.76 -197.14,115.39 6.11,18.88 152.52,200.27 34.11,313.05 -107.07,102 -290.55,-22.11 -380.53,-58.56 -9.49,-3.85 -19.73,-7.82 -29.51,-11.37 -705.16,-256.09 -644.73,23.74 -871,-673.34 -30.55,-94.14 -28.15,-82.91 -98.33,-139.22 -239.42,-192.13 -57.69,-97.33 -208.28,-384.89 -224.66,6.07 -251.25,81.05 -438.74,-39.94 -154.62,-99.78 -163.59,-139.06 -137.84,-385.7l382.89 -91.52c-19,-314.45 -204.71,-306.61 -12.36,-524.39 334.45,-378.65 275.19,-216.4 319.88,-511.76 1.31,-8.62 7.32,-89.33 5.39,-114.73 29.66,-24.79 113.54,-36.45 121.53,-39.69l11.93 21.18 -39.8 -58.38c-225.64,-322.1 -450.97,-98.9 -439.72,-504.42l154.61 -29.87 -162.45 -103.49c-4.65,-157.48 8.92,-77.23 -36.85,-175.72 -189.26,10.93 -282.02,-95.72 -282.86,-98.75 -3.03,-11.21 -13.61,-11.7 -21.17,-16.47 -280.85,90.92 -255.19,260.95 -174.72,523.35 280.03,913.14 71.69,357.86 176.54,969.54 2.27,13.23 4.37,22.22 6.69,35.48 85.53,488.69 -102.87,221.17 -31.76,432.8 59.73,177.8 -12.23,-69.52 151.84,36.56 -55.95,130.88 -359.29,236.62 -204.91,655.47 22.43,60.84 71.6,96.09 111.83,120.88 325.89,200.84 257.01,138.77 457.13,143.83 -20.38,80.35 -33.58,60.65 -16.97,139.78l49.43 101.43c117.01,181.82 72.16,76.33 195.49,157.08l163.54 193.69c58.48,90.89 85.87,116.52 122.96,239.23l463.54 99.31c155.69,92.29 -163.2,196.67 526.11,289.09l60.68 -86.64c19.06,26.27 311.2,208.33 164,713.61 107.93,-20.78 181.88,-42.82 263.86,-73.37 3.3,100.15 12.4,2.44 -29.88,59.31l-58 62.37z"/>
    <path class="fil10" d="M5724.47 9293.16c-37.72,178.79 -5.47,152.92 -9.23,323.36 -7.42,335.86 -86.13,23.55 31.31,499.95 57.33,232.52 16.59,300.51 206.55,427.23 241.49,161.08 35.48,85.12 220.7,164.95 128.6,55.44 98.53,6.11 194.44,110.99 -23.02,77.49 12.8,0.41 -119.06,36.25l250.43 101.36c-1.7,-124.97 0.6,-108.45 -31.18,-210.32 85.69,36.28 42.11,19.51 95.28,54.59 19.61,12.94 27.27,30.06 82,58.89 81.27,-106.21 109.55,-70.02 294.42,-62.43 151.71,6.22 231.6,-38.19 368.18,-52.93 -21.77,138.24 -77.85,121.82 -183.87,232.76 85.03,28.25 29.6,10.78 55.57,46.03l117.97 266.49c-169.78,-62.29 -107.88,-94.69 -301.49,-130 -134.89,173.3 -262.62,373.71 -59.09,684.32 291.95,33.14 130.24,-27.7 327.47,-138.56 33.54,-18.86 114.57,-49.34 167.19,-69.23l101.45 -33.5c3.09,-8.93 15.4,-5.37 23.38,-5.15 -104.92,-506.32 -156.85,-640.08 -13.89,-1119.22 67.76,-111.7 -74.62,-32.68 50.66,-89.6 -194.76,49.81 -202.76,44.44 -295.61,9.18 -71.35,-27.1 -67.02,-28.16 -117.05,-47.4l-50.85 -240.11c-258.44,149.58 -285.68,244.8 -731.22,228.27 -5.14,-309.1 -37.8,-255.66 134.24,-408.01 -255.62,-20.36 -22.02,8.85 -125.3,-62.75 -105.76,-107.53 -278.66,-280.47 -294.2,-452.17 1.81,-208.93 -81.57,-320.25 -40.07,-653.2 29.64,-237.74 90.45,-444.99 110.05,-670.41l-114.94 155.49c-19.45,42.03 -36.13,103.02 -51.9,148.48 -149.06,429.95 -300.32,603.8 -292.34,896.4z"/>
    <path class="fil10" d="M10199.26 12565.01l-237.6 142.99 203.48 -20.63 165.33 210.62c1.95,6.31 2.13,18.92 3.81,25.14 26.79,99.32 1.38,40.79 60.11,127.77l59.95 110.23c6.3,-14.96 26.07,-97.66 26.42,-98.18 71.38,-106.44 -42.12,-43.49 118.34,-99.78 85.89,200.01 15.73,186.52 182.37,287.66l95.69 54.35c-3.1,120.81 7.54,157.62 -61.27,241l-41.18 31.53c-247.32,187.45 114.76,-165.34 -67.66,41.01 -66.97,75.77 -46.34,190.4 -41.99,236.02 26.07,273.68 -76.92,28.59 -9.32,235.75 1.47,4.51 6.98,15.15 8.87,19.58 1.92,4.5 8.38,14.54 10.57,19.04 144.28,295.82 -83.89,187.84 97.88,310.17 -43.49,85.87 85.22,66.48 -120.15,70.92l280.99 103.74c171.71,52.07 72.04,69.5 251.07,-20.83 -24.31,-194.05 21.35,21.65 -20.96,-77.35l-174.51 -200.37c-7.43,-5.62 -17.44,-11.86 -24.73,-17.56 -94.52,-73.97 -40.09,19.27 -87.37,-79.72 14.28,-88.43 14.86,-152.66 104.54,-218.23 106.15,-77.62 457.25,-170.34 496.26,-190.94 71.17,-37.59 123.9,-98.4 207,-144.65 -8.88,-333.66 -25.71,-462.27 -171.88,-587.48l-64.4 -53.16c-13.95,-15.29 -64.05,-110.92 -67.19,-129.03 -17.76,-102.36 0.68,-110.22 60.45,-189.79l62.13 -74.42c-7.66,-7.63 -19.53,-29.81 -23.11,-22.77 -16.29,31.92 -99.93,-238.9 -531.16,-437.58 -183.96,-84.76 -130.79,-33.95 -231.6,-157.24l-34.17 -43.86c-5.18,-6.29 -13.14,-15.56 -18.24,-21.59 -79.89,-94.65 35.04,97.64 -57.65,-64.88 -20.89,149.21 17.89,207.23 -145.37,367.74l-125.51 146.69c-73.64,96.98 -82.38,89.67 -138.24,168.09z"/>
    <path class="fil10" d="M7635.91 10577.41c-1.19,233.79 69.65,755.06 143.43,921.18 39.13,88.07 336.58,493.44 455.52,553.24 265.95,175.36 550.85,369.76 850.78,484.93 191.15,73.4 385.49,109.27 557.38,91.36 245.16,-25.52 323.72,-102.11 533.41,-183.02 211.88,-120.92 10.12,24.04 105.14,-154.8 58.7,-110.47 -3.51,-16.36 153.38,-17.32 -2.62,-14.31 -10.27,-48.13 -11.96,-41.96 -1.61,5.91 -8.58,-29.76 -10.38,-40.42l-12.68 -70.92c-6.33,-157.59 288.7,-401.06 -22.95,-398.12 -118.38,1.12 -257.61,116.05 -387.72,204.65l-328.39 261.15c-46.76,-65.81 -82.95,-161.05 -118.5,-231.8 -89.94,-3.71 -311.42,-11.85 -391.11,8.4 -129.36,32.88 -246.33,271.22 -458.34,-61.76 -3.77,-5.92 -10.24,-16.24 -13.52,-22.15 -6.72,-12.11 -86.08,-60.7 -17.43,-240.28 -183.17,8.99 -93.05,9.87 -232.04,-41 29.74,-203.67 83.1,-68.12 76.49,-312.66 -193.4,27.94 -25.42,-26.89 -154.76,97.78 -108.89,-155.2 -60.64,-98.06 -304.01,-122.09 -59.95,-362.43 4.1,-334.23 19.51,-655.71l-191.58 -120.71 -35.36 132.06c-0.64,2.71 -1.07,13.05 -4.31,18.49l-115.51 -146.51 -84.49 87.99z"/>
    <path class="fil10" d="M3887.44 9034.85l199.17 8.86 161.53 319.02c11.42,31.19 13.52,-71.52 40.35,107.51 195.69,4.13 145,6.55 281.8,47.4 235.65,70.37 103.18,54.88 189.15,112.25 110.78,73.93 91.69,18.89 248.12,63.51 11.17,3.18 21,6.96 31.63,10.59 67.75,23.1 123.01,68.61 236.44,88.16l-17.89 -42.77c-1.07,-5.66 -4.46,-17.97 -5.17,-24.76l-0.43 -59.21c0.13,-2.55 22.34,-124.79 24.34,-147.51 69.13,70.36 67,66.55 88.01,231.28 55.24,433.12 47.69,-81.48 91.23,578.86 93.33,39.58 7.74,12.14 158.19,39.7 -43.76,-130.28 -23.2,-73.05 -46.96,-197.64 -37.46,-196.41 24.8,64.98 -28.56,-91.72 -3.13,-9.2 -45.81,-252.77 -60.56,-320.04 10.18,-212.08 -11.82,-539.85 -12.95,-780.66 -2.48,-522.98 97.44,-272.17 157.9,-633.87 -373.04,113.26 -441.42,56.55 -762.37,-74.22 -316.82,143.6 -338.03,333.12 -502.85,136.83 -100.36,-119.53 -47.9,-295.39 -52.11,-423.1 -58.73,166.04 -118.37,422.93 -166.05,583.34 -26.33,88.6 -66.22,213.46 -102.55,265.05 -75.43,107.06 -86.53,20.05 -149.41,203.14z"/>
    <path class="fil10" d="M12512.26 13256.9c-73.59,-53.09 -110.33,-61.84 -182.57,-147.08l-99.95 -131.13 -270.12 -213.82c-151.38,38.7 -15.94,-43.56 -88.71,129.37l-74.27 168.05c-107.91,291.72 90.46,528.52 265.47,307.34 44.91,42.02 71.27,68.33 130.9,117.27 -39.45,2.58 -85.25,-23.79 -145.62,16.75 147.62,185.21 99.58,-38.4 108.88,197.98 -235.53,1.5 -129.63,-72.37 -384.62,5.45 62.35,156.14 34.86,-55.73 127.6,252.38 2.24,7.43 3.89,22.2 8.78,32.18 221.28,20.77 -148.09,116.18 53.56,-26.71 314.59,-222.93 -173.63,50.71 94.09,-76.23 6.93,6.06 20.65,1.73 24.76,12.24 12.49,31.95 176.91,16.2 278.21,66.86l28.89 -188.54c7.17,6.78 37.07,26.06 42.85,27.56 3.34,0.86 17.55,7.71 21.45,8.17 58.11,6.95 60.34,-3.38 87.75,-62.77 -74.68,-51.11 -98.48,-44.73 -169.06,-86.62 4.07,-90.15 34.95,-74.83 77.95,-183.66 35.68,-90.3 25.02,-135.29 63.78,-225.04z"/>
    <path class="fil10" d="M9518.64 11012.78c162.16,-25.16 154.6,-0.81 310.31,-17.37l149.51 -80.76c62.16,-130.71 30.01,-179.17 79.14,-264.38 129.2,52.33 -92.36,98.18 -83.45,-119.53 5.37,-131.16 78.85,-149.54 218.8,-140 -20.87,-315.25 -25.65,-141.06 191.55,-368.84 31.44,-32.97 69.74,-31.27 109.31,-197.54l-198.16 170.81 -218.37 -50.95c-4.38,1.02 -14.58,5.61 -18.97,7.21 -179.04,64.9 -282.06,173.08 -345.22,399.54l246.3 56.65c-63.73,46.9 -330.35,171.33 -427.46,185.53 -9.81,125.91 -15.43,155.14 -36.28,257.37 -29.23,143.32 -68.98,33.08 22.99,162.26z"/>
    <path class="fil10" d="M6263.5 8895.29l214.27 531.71c311.57,334.73 1186.52,90.54 1424.65,-355.78 -283.66,-19.09 -293.66,119.38 -403.55,161.01 -269.77,102.2 -175.5,-82.69 -356.87,190.17 -73.12,-123.6 -210.05,-168.54 -374.6,-136.52 -276.98,53.92 -200.25,120.75 -195.5,-109.32 1.82,-87.7 10.82,-87.41 -13.97,-180.95 -46.28,-174.59 -137.26,-175.64 -199,-213.19 -27.46,24.57 -17.97,13.03 -57.33,58.28l-38.1 54.59z"/>
    <path class="fil10" d="M12406.93 11291.47c41.75,107.12 70.7,171.44 191.33,188.06 60.58,-37.82 45.52,-151.82 78.83,-397.13 132.94,-98.28 154.58,-68.15 200.81,-242.08 -597.46,-208.82 -308.11,-117.73 -540.94,-89.4 -47.73,-245.27 -75.89,-217.89 116.21,-369.79 -12.95,-111.28 11.41,-73.17 -57.98,-135.37 -101.86,20.99 -58.2,-18.63 -126.29,73.93 -113.1,153.71 -95.45,324.47 -31.12,475.19 49.1,115.07 201.27,414.53 169.15,496.59z"/>
    <path class="fil10" d="M8708.94 10741.86c4.74,3.6 15.39,1.91 17.8,1.46 109.03,-20.54 61.89,-48.3 146.82,-89.66 9.17,-162.91 -21.42,-158.79 -19.1,-250.31 4.2,-165.72 39.62,-86.19 50.84,-173.28 2.29,-17.74 11.4,-21.41 14.7,-32.98 -288.94,-29.55 -319.39,-192.98 -316.83,-474.7 -164.71,-64.92 -207.9,-24.47 -183.48,-244.6 23.53,-212.05 49.38,-265.77 -96.39,-430.01l-29.3 224.59c77.97,524.25 181.51,1033.75 414.94,1469.49z"/>
    <path class="fil10" d="M8549.66 4791.08l-231.91 112.67 147.87 2.63c-57.71,8.31 -120.94,12.29 -176.71,25.54 -115.1,27.35 -109.94,27.53 -188.16,77.52l42.47 47.26c341.42,305.31 578.24,39.19 1279.42,55.39 -179.02,-117.64 -216.33,1.04 -406.92,-135.99l-105.09 -93.03c-103.94,-106.95 -99.31,-157.02 -261.1,-182.03l81.57 151.57c-70.45,-26.26 -93.53,-36.94 -181.44,-61.53z"/>
    <path class="fil10" d="M10513.22 5170.96c471.03,146.1 276.61,223.11 459.65,288.61 75.71,27.09 122.53,24.75 238.12,73.21l235.18 149.72c21.34,-37.44 4.56,-51.67 70.64,-72.76l-34.51 -103.24c-0.05,-0.12 46.17,-15.93 -71.84,-103.02l-48.09 -29.37c-19.38,-10.14 16.28,-19.68 -94.04,-30.41 53.44,-48.67 191.37,-63 82.34,-127.42l133.2 7.24 -251.81 -91.26c-98.29,-16.43 -795.72,-85.27 -718.84,38.7z"/>
    <path class="fil10" d="M11208.84 10709.32c178.79,99.66 113.32,-65.45 235.14,163.61 85.1,160.01 124.37,200.99 135.62,356.32l249.05 -10.97 37.87 153.19c188.32,17.49 16.45,18 102.92,-67.07l-241.83 -501.42c-9.39,-18.74 -31,-62.42 -41.01,-80.45l-65.02 -104.99c-77.66,71.6 -70.78,40.77 -132.51,-2.69 -136.76,-96.28 118.27,-7.78 -91.59,-45.77 -244.4,-44.24 -122.12,-28.9 -267.24,-161.26l78.6 301.5z"/>
    <path class="fil10" d="M3798.96 8966.06c47.99,-228.1 43.43,-45.14 124.54,-248.95 31.73,-79.69 51.16,-178.35 86.98,-266.66 99.9,-246.25 0.13,-318.4 4.82,-569.76 -127.24,160.24 -123.33,367.41 -221.59,555.07l-19.31 502.08c5.84,7.28 15.7,19.45 24.56,28.22z"/>
    <path class="fil10" d="M8978.77 11267.1c11.24,6.02 27.63,1.52 34.13,17.28 67.79,164.43 10.3,4.28 67.07,30.76 26.18,12.21 64.85,30.46 92.04,43.16 -0.04,0.02 -56.21,13.38 -71.66,47.35 -125.56,276.11 -20.9,128.02 5.3,192.56l319.08 -13.2c7.01,-1.75 19.24,-3.35 25.76,-5.88l75.08 -67.72c25.26,-75.23 12.68,-27.96 -27.44,-156.05l90.84 -44.21c-64.11,2.2 -212.22,32.53 -215.86,32.19 -120.24,-11.36 -82.55,-37.45 -115.85,-97.46l-231.15 -55.72c-59.96,48.88 -57.02,-95.85 -47.34,76.94z"/>
    <path class="fil10" d="M11142.26 15424.6l-6.57 63.68c88.95,-40.15 103.2,-28.48 156.26,-70.2 86.02,-67.64 -62.07,-38.17 147.69,-103.71 -67.24,-193.47 -181.62,-173.39 -304.6,-381.59 -109.64,110.05 -73.41,124.71 -86.95,201.3 -24.75,140 50.55,39.77 -57.32,155.73 18.88,12.1 68.84,38.06 84.12,51.49 84.7,74.54 7.79,-10.89 67.37,83.3z"/>
    <path class="fil11" d="M6559.63 9875.14l-151.76 -6.57c103.28,71.6 -130.32,42.39 125.3,62.75 -172.04,152.35 -139.38,98.91 -134.24,408.01 445.54,16.53 472.78,-78.69 731.22,-228.27l50.85 240.11c50.03,19.24 45.7,20.3 117.05,47.4 92.85,35.26 100.85,40.63 295.61,-9.18 -125.28,56.92 17.1,-22.1 -50.66,89.6 151.16,21.93 73.2,-72.95 92.91,98.42l84.49 -87.99 115.51 146.51c3.24,-5.44 3.67,-15.78 4.31,-18.49l35.36 -132.06 191.58 120.71c-15.41,321.48 -79.46,293.28 -19.51,655.71 243.37,24.03 195.12,-33.11 304.01,122.09 129.34,-124.67 -38.64,-69.84 154.76,-97.78 6.61,244.54 -46.75,108.99 -76.49,312.66 138.99,50.87 48.87,49.99 232.04,41 -68.65,179.58 10.71,228.17 17.43,240.28 3.28,5.91 9.75,16.23 13.52,22.15 212.01,332.98 328.98,94.64 458.34,61.76 79.69,-20.25 301.17,-12.11 391.11,-8.4 35.55,70.75 71.74,165.99 118.5,231.8l328.39 -261.15c130.11,-88.6 269.34,-203.53 387.72,-204.65 311.65,-2.94 16.62,240.53 22.95,398.12l12.68 70.92c1.8,10.66 8.77,46.33 10.38,40.42 1.69,-6.17 9.34,27.65 11.96,41.96 -156.89,0.96 -94.68,-93.15 -153.38,17.32 -95.02,178.84 106.74,33.88 -105.14,154.8l64.39 23.51 -41.56 96.4c55.86,-78.42 64.6,-71.11 138.24,-168.09l125.51 -146.69c163.26,-160.51 124.48,-218.53 145.37,-367.74 92.69,162.52 -22.24,-29.77 57.65,64.88 5.1,6.03 13.06,15.3 18.24,21.59l34.17 43.86c100.81,123.29 47.64,72.48 231.6,157.24 431.23,198.68 514.87,469.5 531.16,437.58 3.58,-7.04 15.45,15.14 23.11,22.77l-62.13 74.42c-59.77,79.57 -78.21,87.43 -60.45,189.79 3.14,18.11 53.24,113.74 67.19,129.03l64.4 53.16c146.17,125.21 163,253.82 171.88,587.48 -83.1,46.25 -135.83,107.06 -207,144.65 -39.01,20.6 -390.11,113.32 -496.26,190.94 -89.68,65.57 -90.26,129.8 -104.54,218.23 47.28,98.99 -7.15,5.75 87.37,79.72 7.29,5.7 17.3,11.94 24.73,17.56l174.51 200.37c42.31,99 -3.35,-116.7 20.96,77.35 -179.03,90.33 -79.36,72.9 -251.07,20.83l-280.99 -103.74 -55.09 -82.53c59.74,298.04 301,1.47 949.25,759.08 86.24,100.78 241.17,434.65 406.07,558.82 97.63,-94.63 -1.96,-30.86 69.63,-48.46 62.72,-15.44 6.55,-38.41 86,15.76 152.46,103.92 -78.82,7.67 135.33,117.71 321.07,164.99 96.33,96.7 312.92,299.71 335.09,12.66 49.82,-82.51 261.85,-51.92 110.72,15.98 58.12,76.85 296.28,80.35 9.9,215.29 -31.19,203.68 195.65,196.08 81.92,-143.64 -29.99,-208.67 129.96,-268.3 185.85,-69.29 289.57,193.39 369.59,-92.65 1.64,-5.87 2.46,-18.09 4.16,-24.08l13.85 -47.98c96.46,-230.3 275.04,-158.77 175.93,-447.12 -99.48,-289.42 -131.12,-2.99 -120.58,-542.09 64.91,-33.95 128.62,-56.42 224.21,-73.11 -15.47,-168.49 21.22,-76.04 -69.71,-165.04 220.69,-115.5 100.96,87.03 152.28,-207.45 -475.11,1.66 -305.05,-201.79 -632.11,-240.97 -39.06,-408.23 -71.08,-128.99 -82.88,-385.13 178.39,-128.35 -16.44,149.53 207.5,-198.26l-174.02 23.28c-128.68,-41.05 -253.76,-64.48 -382.9,-116.5 -199.58,-80.4 -84.18,-90.6 -243.18,-148.08 -109.98,-19.65 -140,-36.48 -205.89,-78.61 -259.16,-165.72 101.06,48.01 -70.95,-46.83 -83.26,-45.89 -3.16,-4.81 -93.8,-38.98 -38.76,89.75 -28.1,134.74 -63.78,225.04 -43,108.83 -73.88,93.51 -77.95,183.66 70.58,41.89 94.38,35.51 169.06,86.62 -27.41,59.39 -29.64,69.72 -87.75,62.77 -3.9,-0.46 -18.11,-7.31 -21.45,-8.17 -5.78,-1.5 -35.68,-20.78 -42.85,-27.56l-28.89 188.54c-101.3,-50.66 -265.72,-34.91 -278.21,-66.86 -4.11,-10.51 -17.83,-6.18 -24.76,-12.24 -267.72,126.94 220.5,-146.7 -94.09,76.23 -201.65,142.89 167.72,47.48 -53.56,26.71 -4.89,-9.98 -6.54,-24.75 -8.78,-32.18 -92.74,-308.11 -65.25,-96.24 -127.6,-252.38 254.99,-77.82 149.09,-3.95 384.62,-5.45 -9.3,-236.38 38.74,-12.77 -108.88,-197.98 60.37,-40.54 106.17,-14.17 145.62,-16.75 -59.63,-48.94 -85.99,-75.25 -130.9,-117.27 -175.01,221.18 -373.38,-15.62 -265.47,-307.34l74.27 -168.05c72.77,-172.93 -62.67,-90.67 88.71,-129.37l-60.96 -170.29c-222.12,-235.67 -424.13,-606.52 -593.42,-1014.51l-414.49 -1182.73c-5.8,8.27 -13.37,19.65 -16.96,25.11 -3.57,5.43 -12.46,18.32 -16.81,25.02 -77.05,118.88 -188.62,380.98 -463.46,573.73l-178.03 104.18c-247.03,133.72 -346.03,133.38 -626.52,185.77l-90.84 44.21c40.12,128.09 52.7,80.82 27.44,156.05l-75.08 67.72c-6.52,2.53 -18.75,4.13 -25.76,5.88l-319.08 13.2c-26.2,-64.54 -130.86,83.55 -5.3,-192.56 15.45,-33.97 71.62,-47.33 71.66,-47.35 -27.19,-12.7 -65.86,-30.95 -92.04,-43.16 -56.77,-26.48 0.72,133.67 -67.07,-30.76 -6.5,-15.76 -22.89,-11.26 -34.13,-17.28 -270.42,-31.86 -278.24,-195.53 -396.18,-377.26 -113.36,-174.69 -114.26,10.73 -317.93,-439.16 -23.61,60.75 7.67,296.59 -51.8,69.32 -59.36,-226.84 -54.86,-899.35 -59.25,-1140.63 -210.53,147.82 -310.52,380.89 -650.23,496.46 -253.49,86.24 -485.5,22.61 -746.66,2.86 -48.44,-3.66 -134.35,2.46 -197.09,-3.55z"/>
    <path class="fil11" d="M11922.45 12362.66c60.48,46.97 25.58,16.65 77.18,69.4 4.02,4.11 45.17,50.95 58.13,64.71 94.92,100.71 279.88,332.51 171.98,481.92l99.95 131.13c40.26,-113.44 -6.32,-60.47 31.59,-140.44 27.25,-57.48 105.91,56.21 45.49,-105.7 79.02,100.78 -25.42,-9.6 55.91,58.46l632.01 406.88c302.97,171.06 616.96,296.36 997.02,78.83 195.94,-112.14 213.02,-138.95 313.29,-352.81l242.43 -463.53c50.86,-257.76 216.77,-1091.33 41.1,-1333.22 46.04,193.45 29.23,194.72 -28.83,285.88 -138.03,-96.54 -79.46,8.71 -111.2,-229.25l-278.51 -111.35 26.41 -136.52c-117.68,-21.18 -16.95,29.65 -59.74,-53.64 -2.03,-3.95 -7.63,-60.65 -13.37,-72.55 -111.37,265.95 -86.4,517.04 -351.76,606.85 -64.21,242.08 -31.06,332.17 -539.37,406.25 -122.42,17.83 -226.41,58.11 -374.19,41.69 -310.5,-34.51 -263.87,-22.01 -333.57,-122.04 -206.32,-128.5 -153.54,28.37 -370.63,-210.3 -55.4,-60.9 -91.38,-92.53 -145.44,-168.18 -84.58,-118.33 -52.56,-108.55 -138.89,-190.73 -86.47,85.07 85.4,84.56 -102.92,67.07l-37.87 -153.19 -249.05 10.97c-11.25,-155.33 -50.52,-196.31 -135.62,-356.32 -121.82,-229.06 -56.35,-63.95 -235.14,-163.61 97.37,382.04 153.59,571.87 313.6,891.87 77.71,155.41 376.77,657.1 400.01,761.47z"/>
    <path class="fil11" d="M12968.14 8794.46c53.55,71.95 22.14,56.77 105.61,109.26 9.58,6.02 67.41,34.04 78.29,35.06 168.08,15.8 -32.71,133.67 110.36,-38.74 -180.66,-271.58 -233.25,-250.38 -455.86,-449.19 -165.43,-147.75 -324.49,-278.88 -501.58,-399.63l-541.61 -262.16c-188.41,-59.38 -4.74,12.41 -80.52,-65.23 -55.31,-56.65 18.43,12.32 -45.55,-49.24l-39.95 -35.85c-84.47,-74.53 -199.02,-135.46 -220.59,-225.77l-21.6 -103.39c-71.14,-518.32 -236.4,-332.22 -260.11,-645.43 -55.66,89.18 -40.91,132.26 -39.61,163.31 8.74,208.01 368.04,616.62 192.38,906.16 -143.05,-310.88 -90.3,-324.98 -306.51,-592 -259.05,-319.92 -156.21,-334.9 -127.19,-742.74 -7.99,3.24 -91.87,14.9 -121.53,39.69 1.93,25.4 -4.08,106.11 -5.39,114.73 -44.69,295.36 14.57,133.11 -319.88,511.76 -192.35,217.78 -6.64,209.94 12.36,524.39l-382.89 91.52c-25.75,246.64 -16.78,285.92 137.84,385.7 187.49,120.99 214.08,46.01 438.74,39.94 150.59,287.56 -31.14,192.76 208.28,384.89 70.18,56.31 67.78,45.08 98.33,139.22 226.27,697.08 165.84,417.25 871,673.34 9.78,3.55 20.02,7.52 29.51,11.37 89.98,36.45 273.46,160.56 380.53,58.56 118.41,-112.78 -28,-294.17 -34.11,-313.05 128.02,-57.63 87.58,-27.7 197.14,-115.39 74.03,-59.27 127.18,-106.82 193.73,-165.31 -11.19,-156.24 -48.39,-160.19 -51.19,-177.6 -16.38,-102.18 -7.22,-29.6 33.1,-197.2 -126.67,-0.1 -215.23,-34.36 -283.94,-22.13 -128.07,22.78 -116.1,110.27 -291.52,-0.01 39.72,-104 120.99,-135.67 211.33,-190.31 -255.91,-148.93 -100.17,-177.06 -453.33,-202.25 -258.11,-18.41 -129.36,4.09 -168.94,-44.05 321.34,-1.54 547.95,107.77 785.75,303.17l669.12 544.6z"/>
    <path class="fil11" d="M12395.19 10245.76c69.39,62.2 45.03,24.09 57.98,135.37 -192.1,151.9 -163.94,124.52 -116.21,369.79 232.83,-28.33 -56.52,-119.42 540.94,89.4 -46.23,173.93 -67.87,143.8 -200.81,242.08 -33.31,245.31 -18.25,359.31 -78.83,397.13 18.4,212.8 100.69,238.16 260.25,314.9 229.8,35.93 58.66,21.47 102.09,-37.26l-139.99 -110.05c64.15,-61.23 121.82,-67.33 169.79,-66.89 133.68,1.25 -31.89,-12.44 76.83,15.28 215.83,55.03 183.7,76.47 351.12,-40.76 15.32,-69 32.6,-89.44 15.08,-138.62 -33.59,-94.28 47.59,28.9 -100.15,-95.58 210.63,-459.23 -13.74,-225.73 -1.63,-476.31 8.94,-184.88 439.5,-414.65 -89.77,-672.25l-109.45 -61.65c-122.53,-98.82 -28.1,-183.53 -181.68,-110.59 -173.95,82.63 9.19,26.42 -116.02,201.37 -197.85,19.1 -274.46,71.88 -439.54,44.64z"/>
    <path class="fil11" d="M10501.12 5827.39l-154.61 29.87c-11.25,405.52 214.08,182.32 439.72,504.42l39.8 58.38c120.49,-51.56 105.89,-65.05 206.67,-155.49 85.44,-76.68 80,-60.83 184.66,-134.44 130.5,-91.76 240.67,-186.29 353.34,-275.98 -125.05,-181.65 -232.08,21.54 -684.12,-243.81 -114.92,-67.46 -38.81,-51.94 -158.25,-113.32 -2.17,215.7 9.6,-44.38 -36.69,135.84 -19.98,77.75 -16.82,92.89 -16.41,192.41l-174.11 2.12z"/>
    <path class="fil11" d="M10493.81 9824.36c-39.57,166.27 -77.87,164.57 -109.31,197.54 -217.2,227.78 -212.42,53.59 -191.55,368.84 -139.95,-9.54 -213.43,8.84 -218.8,140 -8.91,217.71 212.65,171.86 83.45,119.53 -49.13,85.21 -16.98,133.67 -79.14,264.38 219.15,-125.9 119.72,-89.23 239.81,-266.66 47.22,-69.76 143.04,-150.66 236.54,-239.56 189.48,-180.18 320.64,-339.37 402.64,-583.92 -98.28,-46.93 -272.38,-100.21 -363.64,-0.15z"/>
    <path class="fil12" d="M2448.81 9509.01l150 -25.8c6.8,9.36 13.67,14.61 15.47,28.53l64.83 98.88 143.09 4.87c132.87,-14.17 142.41,-46.99 254.9,-1.72 -23.9,119.43 72.72,68.26 -104.36,135.15 -40.38,15.26 -131.76,25.69 -203.57,29.82l-138.58 20.28c193.4,117.73 -8.6,-146.41 30.41,60.55 34.94,185.39 -87.99,267.66 -152.37,400.11 348.21,160.03 225.48,17.94 342.6,209.36 49.5,80.88 23.88,58.8 91.36,112.73 2.38,1.91 306.9,104.01 47.71,437.73l19.01 151.02 26.59 -1.28 49.9 -84.25c35.77,212.66 241.39,499.65 465.41,516.75l22.67 -61.74c63.99,-202.86 0.78,-106.73 66.51,-172.34 59.31,-59.2 155.41,-45.15 267.88,-39.71 93.62,132.28 14.73,54.24 146.29,163.19 8.25,6.83 90.16,66.42 91.34,67.13 7.53,4.54 17.71,10.04 25.51,14.33l524.81 346.99c-50.87,93.81 -9.96,85.05 -91.14,194.28 7.53,8.1 19.31,8.92 23.25,23.65l91.78 82.33c40.22,33.31 70.22,57.02 107.61,85.78l632.66 624.74c182.84,88.33 190.47,190.55 542.84,130.72 163.22,-65.24 20.83,-7.92 127.3,-112.2 27.41,-26.83 19.54,-22.71 51.98,-42.02l57.5 -22.81c138.76,-69.51 20.47,-123.6 479.94,-65.34 156.89,51.55 256.08,144.03 399.52,201.26 160.52,64.04 80.36,6.77 156.91,48.3l137.66 110.64c7.44,5.55 17.39,11.58 24.78,16.87 466.54,334.22 413.22,509.85 636.39,598.38 75.69,-45.35 172.44,-16.79 177.48,-12.33 47.96,42.46 38.72,135.84 73.6,221.43 198.77,52.08 137.66,-8.4 180.82,-9.82 120.03,-3.93 -28.47,25.87 134.8,172.59l201.99 168.85c5.52,5.96 14.65,18.02 23.52,25.39 67.5,-60.71 96.48,-56.79 158.7,-163.19l254.44 3.63c10.94,174.08 -5.15,139.3 60.17,249.19 93.65,157.58 18.09,-95.22 36.78,70.15 0.26,2.38 -12.49,166.68 -12.51,190.94l118.36 -1.35c56.28,-77.74 85.16,-98.23 139.13,-161.61 51.47,-60.46 22.65,-49.44 75.87,-84.33 99.06,-64.98 -5.32,-23.57 142.98,-51.15 499.68,-132.63 320.02,-15.11 756.49,15.11l55.09 82.53c205.37,-4.44 76.66,14.95 120.15,-70.92 -181.77,-122.33 46.4,-14.35 -97.88,-310.17 -2.19,-4.5 -8.65,-14.54 -10.57,-19.04 -1.89,-4.43 -7.4,-15.07 -8.87,-19.58 -67.6,-207.16 35.39,37.93 9.32,-235.75 -4.35,-45.62 -24.98,-160.25 41.99,-236.02 182.42,-206.35 -179.66,146.44 67.66,-41.01l41.18 -31.53c68.81,-83.38 58.17,-120.19 61.27,-241l-95.69 -54.35c-166.64,-101.14 -96.48,-87.65 -182.37,-287.66 -160.46,56.29 -46.96,-6.66 -118.34,99.78 -0.35,0.52 -20.12,83.22 -26.42,98.18l-59.95 -110.23c-58.73,-86.98 -33.32,-28.45 -60.11,-127.77 -1.68,-6.22 -1.86,-18.83 -3.81,-25.14l-165.33 -210.62 -203.48 20.63c-729.59,177.78 -893.13,59.06 -1382.35,-181.35 -212.14,-104.24 -137.49,11.11 -225.29,-157.57 -238.16,-55.76 -312.21,-153.13 -466.72,-306.09 -147.18,-145.72 -223.11,-255.41 -330.41,-464.78 -7.98,-0.22 -20.29,-3.78 -23.38,5.15l-101.45 33.5c-52.62,19.89 -133.65,50.37 -167.19,69.23 -197.23,110.86 -35.52,171.7 -327.47,138.56 -203.53,-310.61 -75.8,-511.02 59.09,-684.32 193.61,35.31 131.71,67.71 301.49,130l-117.97 -266.49c-25.97,-35.25 29.46,-17.78 -55.57,-46.03l-624.83 -20.56 -250.43 -101.36c-75.39,-29.92 -93.05,-43.01 -161.48,-85.62 -77.44,-48.19 -132.44,-74.08 -203,-121.36 -235.74,-157.92 -209.84,-199.66 -270.79,-281.17 -150.45,-27.56 -64.86,-0.12 -158.19,-39.7 -43.54,-660.34 -35.99,-145.74 -91.23,-578.86 -21.01,-164.73 -18.88,-160.92 -88.01,-231.28 -2,22.72 -24.21,144.96 -24.34,147.51l0.43 59.21c0.71,6.79 4.1,19.1 5.17,24.76l17.89 42.77c-113.43,-19.55 -168.69,-65.06 -236.44,-88.16 -10.63,-3.63 -20.46,-7.41 -31.63,-10.59 -156.43,-44.62 -137.34,10.42 -248.12,-63.51 -85.97,-57.37 46.5,-41.88 -189.15,-112.25 -136.8,-40.85 -86.11,-43.27 -281.8,-47.4 -26.83,-179.03 -28.93,-76.32 -40.35,-107.51l-161.53 -319.02 -199.17 -8.86c-78.37,107.28 -179.37,172.09 -270.95,287.74 -126.77,160.08 -130.9,189.34 -374.37,238.44 76.47,-154.17 86.46,-101.29 304.48,-308.72 102.66,-97.65 197.51,-149.16 252.36,-286.25 -8.86,-8.77 -18.72,-20.94 -24.56,-28.22l19.31 -502.08c98.26,-187.66 94.35,-394.83 221.59,-555.07 101.15,-72.59 46.83,63.01 104.84,-78.2 40.12,-97.67 18.52,-138.21 -3.64,-228.49 -204.49,153.02 73.99,104.95 -320.44,258.12 -235.21,91.33 -112.36,155.11 -196.48,362.95 -108.93,45.89 -186.16,16.12 -248.09,106.98 -97.44,142.92 19.67,204.64 -62.94,333.12 -89.12,138.62 -107.49,-3.09 -258.96,141.42 -42.16,40.24 -53.59,96.6 -130.05,126.28 -79.37,30.8 -27.11,8.34 -32.87,-3.56l30.93 570.83 -448.79 38.87z"/>
    <path class="fil12" d="M11296.68 9366.75c90.52,185.22 3.54,260.04 -208.11,237.79 -228.36,-321.53 75.76,-308.65 208.11,-237.79zm-2884.8 -888.42c66.87,-39.79 168.06,-68.24 270.45,-70.92 55.82,193.92 18.45,266.55 -171.97,302.1 -89.61,-86.45 -94.57,-72.89 -98.48,-231.18zm237.65 -3777.29c161.79,25.01 157.16,75.08 261.1,182.03l105.09 93.03c190.59,137.03 227.9,18.35 406.92,135.99 225.44,27.39 322.39,12.34 330.59,274.17l-331.47 -33.36c47.69,181.54 -63.3,62.63 73.35,176.88 85.07,71.14 98.18,22.96 168.11,152.23 27.26,50.38 61.48,181.15 81.22,246.67 79.54,263.99 35.95,209.69 -10.22,240.39 120.17,397.77 377.55,819.86 107.14,1240.62 -84.01,-94.76 -57.65,93.09 -66.01,-165.51 -2.7,-83.34 79.77,-302.22 -8.8,-487.23 -12.69,3.66 -44.58,14.86 -50.4,17.05l-78.27 259.76c-75.56,16.68 -128.59,25.26 -210.29,42.11 93.65,213.83 -25.78,75.62 219.15,174.09l-63.27 5.75 105.33 122.3c-347.98,11.41 -388.23,5.51 -706.48,90.25 -205.72,54.77 -386.95,126.77 -598.34,143.01 -181.75,172.2 -1027.89,82.62 -1328.44,58.93l-434.09 -67.89c-158.3,35.05 -64.6,236.16 -124.92,117.69 -3.63,-7.14 -11.81,20.77 -20.43,28.81 -252.87,455.8 -301.33,483.4 -212.6,1146.48l38.1 -54.59c39.36,-45.25 29.87,-33.71 57.33,-58.28 61.74,37.55 152.72,38.6 199,213.19 24.79,93.54 15.79,93.25 13.97,180.95 -4.75,230.07 -81.48,163.24 195.5,109.32 164.55,-32.02 301.48,12.92 374.6,136.52 181.37,-272.86 87.1,-87.97 356.87,-190.17 109.89,-41.63 119.89,-180.1 403.55,-161.01 152.37,-68.23 202.54,-230.1 266.88,-277.19 183.04,-134.01 131.12,148.96 154,253.75 145.77,164.24 119.92,217.96 96.39,430.01 -24.42,220.13 18.77,179.68 183.48,244.6 -2.56,281.72 27.89,445.15 316.83,474.7 -3.3,11.57 -12.41,15.24 -14.7,32.98 -11.22,87.09 -46.64,7.56 -50.84,173.28 -2.32,91.52 28.27,87.4 19.1,250.31 -84.93,41.36 -37.79,69.12 -146.82,89.66 -2.41,0.45 -13.06,2.14 -17.8,-1.46 43.92,125.74 81.59,99.85 212.64,207.04 83.4,68.23 163.76,106.96 225.38,173.41 89.78,-2.57 94.98,27.7 58.4,-39.91 -101.73,-47.01 -40.85,44.04 -71.78,-137.59l385.06 67.97c-91.97,-129.18 -52.22,-18.94 -22.99,-162.26 20.85,-102.23 26.47,-131.46 36.28,-257.37 97.11,-14.2 363.73,-138.63 427.46,-185.53l-246.3 -56.65c63.16,-226.46 166.18,-334.64 345.22,-399.54 4.39,-1.6 14.59,-6.19 18.97,-7.21l218.37 50.95 198.16 -170.81c91.26,-100.06 265.36,-46.78 363.64,0.15 63.37,-43.4 60.1,-59.93 153.33,-92.33 -7.19,403.58 -56.07,168.08 65.5,492.41l53.96 183.23c145.12,132.36 22.84,117.02 267.24,161.26 209.86,37.99 -45.17,-50.51 91.59,45.77 61.73,43.46 54.85,74.29 132.51,2.69l-59.21 -261.61 179.59 193.51c119.28,121.07 124.12,132.3 222.16,254.68l442.81 487.35c32.12,-82.06 -120.05,-381.52 -169.15,-496.59 -64.33,-150.72 -81.98,-321.48 31.12,-475.19 68.09,-92.56 24.43,-52.94 126.29,-73.93l58 -62.37c42.28,-56.87 33.18,40.84 29.88,-59.31 -81.98,30.55 -155.93,52.59 -263.86,73.37 147.2,-505.28 -144.94,-687.34 -164,-713.61l-60.68 86.64c-689.31,-92.42 -370.42,-196.8 -526.11,-289.09l-463.54 -99.31c-37.09,-122.71 -64.48,-148.34 -122.96,-239.23l-163.54 -193.69c-123.33,-80.75 -78.48,24.74 -195.49,-157.08l-49.43 -101.43c-16.61,-79.13 -3.41,-59.43 16.97,-139.78 -200.12,-5.06 -131.24,57.01 -457.13,-143.83 -40.23,-24.79 -89.4,-60.04 -111.83,-120.88 -154.38,-418.85 148.96,-524.59 204.91,-655.47 -164.07,-106.08 -92.11,141.24 -151.84,-36.56 -71.11,-211.63 117.29,55.89 31.76,-432.8 -2.32,-13.26 -4.42,-22.25 -6.69,-35.48 -104.85,-611.68 103.49,-56.4 -176.54,-969.54 -80.47,-262.4 -106.13,-432.43 174.72,-523.35 3.19,-85.76 -22.48,-24.33 20.14,-58.49 140.51,102.34 180.02,80.91 254.31,31.89 -53.8,-268.45 23.98,-71.14 -166.48,-136.59 -433.22,-148.86 282.86,-170.32 -550.07,-275.65 -218.99,-27.7 -677.98,-126.82 -675.2,-413.12l-112.97 -23.18c-21.99,-93.21 8.3,-326.26 -59.03,-363.48 -119.88,110.7 -129.22,345.71 -58.96,506.7z"/>
    <path class="fil12" d="M15489.09 6600.4c26.54,-128.75 5.92,-128.67 192.1,-171.63 120.35,-27.78 157.63,-2.5 233,37.22 -116.58,83.58 -228.73,156.32 -425.1,134.41zm-493.95 581l49.18 -110.33c113.77,43.77 187.98,133.01 325.02,207.25 104.91,56.83 230.38,106.47 358.09,168.12l52.51 -93.18c-44.97,-115.7 -95.1,-163.23 -127.18,-296.56 -111.3,64.57 -43.74,34.34 -168.46,76.02 148.06,-319.29 201.18,-5.13 496.11,-525.28 170.95,-301.52 135.74,-136.55 136.25,-136.16 220.65,-246.16 98.74,-264.58 50.62,-436.79 -526.4,-30.64 -796.1,428.77 -1031.5,353.81l-475.65 -462.19c-7.42,-4.81 -17.49,-10.84 -24.92,-15.67 -434.09,-283 -162.06,-251.18 -379.23,-371.93 -224.93,-125.07 -267.57,-128.83 -519.5,-190.28 -203.04,-49.52 -110.76,-54.56 -272.78,-103.25l34.33 35.89c65.06,34.48 25.23,-3.41 84.01,51.64 48.3,45.24 20.69,28.15 49.18,84.32 58.31,24.58 151.81,84.75 204.34,97.81 125.17,31.11 144.48,-18.93 282.59,39.61 157.8,66.88 199.95,215.15 303.7,312.46 227.59,161.35 162.82,168.45 419.79,507.62 337.55,445.51 449.51,167.47 503.15,380.5 49.09,194.99 -11.98,86.86 -21.97,119.96 -150.86,7.33 -95.4,5.83 -192.65,-73.74 -263.93,-215.93 -752.37,-682.51 -868.21,-985.22l-180.2 -93.06c-460.91,38.15 -336.19,7.19 -662.97,-267.1 -97.35,-81.71 -247.55,-235.56 -265.57,-355.24 -30.71,-112.13 -41.17,-89.7 -115.19,-144.28 2.63,183.47 -32.55,157.86 -59.63,307.21 -21.72,119.8 -21.54,198.28 -43.72,301.77 213.26,192.33 119.11,144.04 174.69,236.25 106.52,176.72 487.32,261.3 827.77,568.82 170.04,153.6 595.95,548.42 763.33,625.29 219.76,100.93 119.68,65.69 294.67,185.91z"/>
    <path class="fil12" d="M4371.76 6471.27c8.13,8.97 18.2,11.23 21.25,29.45 7.03,42.13 78.04,27.19 59.2,333.97 -8.75,142.48 -25.13,293.95 -37.2,437.82 -23.01,274.1 -71.64,458.32 -109.56,710.81 4.21,127.71 -48.25,303.57 52.11,423.1 164.82,196.29 186.03,6.77 502.85,-136.83 320.95,130.77 389.33,187.48 762.37,74.22 62.57,-26.43 235.19,-319.83 297.53,-410.67 114.21,-166.41 208.9,-316.8 324.63,-411.98 -9.99,-114.43 41.03,-45.3 -146.44,-122.34 -9.48,-3.89 -20.78,-5.63 -30.31,-9.92l-194.79 -156.48 -113.76 16.47c221.21,88.62 88.3,-18.28 129.29,-56.36 -76.17,-79.52 93.76,-38.46 -110.86,-79.19 -109.12,167.39 -170.22,9.84 -299.51,89.89 68.61,171.3 63.91,81.7 201.02,166.01 -155.54,63.98 -213.46,115.12 -449.02,87.78 -10.57,-675.06 6.07,-121.9 -194.97,-673.8 -54.26,-148.99 -78.12,-182.72 -223.16,-222.76 -356.55,-98.43 -68.92,-10.66 -229.72,-227.97 -190.37,10.59 -166.07,67.78 -210.95,138.78z"/>
    <path class="fil12" d="M15448.3 16489.63c365.61,-4.49 165.38,-289.79 480.94,-592.27 204.03,72.47 107.16,179.17 372.51,163.71 223.58,-137.72 232.49,-267.44 184.92,-616.62 -123.4,-71.75 -245.43,-41.07 -305.5,-210.74l-137.35 -858.11c-18.78,-152.21 15.59,-311.86 -16.09,-460.95 -23.44,-110.28 -140.41,-260.08 -150.03,-334.68 -13.55,-105.1 76.39,-177.61 -120.34,-577.44 -118.1,-240 -264.82,-89.25 -181.04,-455.09 -129.27,-56.56 -97.81,-18.56 -191.1,-127.73l-50.15 -67.14c213.06,-330.91 4.94,-420.67 -22.59,-454.61l-125.34 -192.41c-50.72,-57.46 -103.3,-80.96 -156.19,-119.58 112.31,276.07 159.29,741.26 209.34,923.04 132.65,481.71 133.33,444.5 133.33,915.05 -128.21,-92.88 -71.15,-4.34 -131.11,-135.17 57.62,194.95 16.81,74.29 -15.13,242.9 107.1,34.27 130.52,5.54 258.13,58.84 7.15,202.89 -3.5,637.79 49.42,754.97l146.82 231.74 160.16 907.3c14.15,145.1 57.55,230.64 -1.12,342.57 -54.26,103.53 -84.17,82.26 -202.96,137.38 -17.62,513.03 -144.74,317.91 -189.53,525.04z"/>
    <path class="fil12" d="M12763.15 16725.77l207.89 173.09c9.67,3.5 20.34,5.59 30.78,8.44l214.14 45.27 91.34 41.44c19.27,-150.08 -120.5,-53.08 125.07,-130.88 46.92,-14.85 216.43,-17.84 275.17,-21.03 51.52,-259.12 -19.06,-86.22 119.02,-146.36 169.29,103.22 -4.34,12.29 179.08,201.41 159.26,164.2 55.94,301.86 -4.04,469.86 -323.35,-24.01 -43.47,-53.55 -326.02,-124.83 138.4,129.69 93.52,133.14 341.86,148.25 100.75,6.14 278.15,36.49 425.6,12.37 336.81,-55.1 525.63,-246.44 878.32,-196.98l104.12 -121.65c186.96,-185 64.18,-208.73 3.31,-421.06l118.87 15.74 -173.65 0c-68.73,-117.32 -20.74,-112 -198.56,-107.11 -64.29,126.42 -35.6,104.69 3.41,179.18 50.42,96.31 118.04,-144.89 65.68,126.6 -69.6,124.17 99.89,-44.23 -37.21,28.12 -2.28,1.21 -13.02,6.53 -15.29,7.47 -1.71,0.72 -10.89,2.54 -12.47,2.99l-128.53 3.81c-4.56,-11.37 -23.49,1.49 -34.09,-2.7 -0.01,0 -116.23,-33.15 -158.89,-238.36 -41.4,75.09 -3.37,-0.36 -55.61,92.62 -3.95,7.04 -10.53,17.82 -14.45,25.1l-53.83 116.25c-255.45,3.06 -485.22,-6.03 -669.37,-75.19 -24.28,-65.17 -51.72,-195.23 -76.64,-295.08 -32.28,-129.42 -4.76,-165.18 -42.58,-246.31 -175.7,29.44 -64.22,40.1 -198.37,196.78 -161.06,1.39 -77.98,-14.67 -146.34,35.95l-91.7 -194.74c-184.41,229.12 -273.81,205.95 -524.72,42.6l-221.3 348.94z"/>
    <path class="fil12" d="M11483.87 5223.52l-133.2 -7.24c109.03,64.42 -28.9,78.75 -82.34,127.42 110.32,10.73 74.66,20.27 94.04,30.41l48.09 29.37c118.01,87.09 71.79,102.9 71.84,103.02l34.51 103.24 286.57 21.6c239.7,-52.62 513.15,-103.26 669.06,-268.4 167.64,-177.58 313.44,-395.35 359.62,-639.17 153.13,-808.52 -578.72,-971.87 -908.73,-786.04 44.41,251.87 288.56,297.56 616.68,457.93 -10.98,155.24 -51.59,257.3 -122.14,357.3 -402.14,569.95 -365.6,368.97 -934,470.56z"/>
    <path class="fil12" d="M13827.17 11082.6c75.44,-24.23 116.96,-94.63 183.9,-175.78 28.37,-34.41 59.79,-71.82 87.42,-107.97 59.21,-77.51 58.13,-72.69 104.22,-152.82l-33.46 -58.12c-3.43,-6.87 -10.65,-21.06 -14.8,-29.43 -133.8,-270.29 -42.53,-66.69 -148.46,-211.05 -137.99,-188.06 19.58,-371.76 -188.7,-408.36 -121.34,-21.32 -42.74,27.78 -332.55,-21.29 24.17,-112.87 111.06,-166.82 17.45,-292.49 -46.28,-62.14 -192.09,-108.66 -271.46,-170.28 41.52,-204.77 2.75,-34.79 123.83,-193.01 270.38,87.61 407.85,386.06 577.46,604.03 16.32,20.97 44.73,54.33 53.48,65.41 116.74,147.62 209.71,332.36 256,540.7 61.95,-69.84 22.19,28.54 54.57,-142.91 9.11,-48.27 13.08,-137.54 19.12,-191.43l-50.9 -43.67c-142.76,-137.04 -409.08,-621.79 -699.21,-890.65 -139.96,-129.69 -89.85,-175.72 -302.68,-303.44 -143.07,172.41 57.72,54.54 -110.36,38.74 -10.88,-1.02 -68.71,-29.04 -78.29,-35.06 -83.47,-52.49 -52.06,-37.31 -105.61,-109.26l-2.12 277.86c-173.57,88.63 -127.52,14.46 -232.45,65.15 153.35,225.91 72.92,-49.49 241.97,493.8 166.64,35.87 240.44,17.07 339.45,60.6 -31.46,230.07 -49.63,95.04 -158.21,239.45 167.93,115.48 408.08,271 595.39,154.92 8.77,118.81 -13.22,199.74 -31.01,277.68 -19.65,86.09 -29.38,94.46 -22.15,163.96 19.68,189.11 46.37,31.9 57.25,260.69l5.45 95.76c3.92,82.36 4.08,66.08 -50.25,198.07 67.17,35.59 -108.6,110.35 115.71,0.2z"/>
    <path class="fil12" d="M11135.69 15488.28l119.91 79.38c-10.15,248.75 -125.05,257.48 -87.9,512.04 47.4,324.69 167.83,90.3 292.47,303.98 197.13,-30.96 153.53,-2.31 356.64,6.09 96.99,179.12 -12.17,83.91 158.8,155.38l-16.54 421.44c-10.96,117.36 44.54,35.12 -40.53,110.52 75.56,116.57 17.97,58.69 119.81,132.47l66.39 -65.31c21.36,-25.12 43.8,-59.54 53.65,-70.72 8.97,-10.17 23.85,-195.04 402.23,-51.72l44.35 19.41c4.99,1.75 16.07,5.65 20.72,7.08l63.72 12.01c12.2,31.31 17.94,2.92 -2.62,81.43 176.31,-53.71 1.44,24.27 162.3,-106.59 -31.72,-151.05 -223.16,-81.99 -627.88,-537.76 -113.23,-127.51 -220.69,-323.96 -254.75,-492.93l-194.88 -247.73c-107.68,-130.65 -105.62,-193.52 -331.94,-442.38 -209.76,65.54 -61.67,36.07 -147.69,103.71 -53.06,41.72 -67.31,30.05 -156.26,70.2z"/>
    <path class="fil12" d="M6463.39 13104.88l-221.32 162.6c152.62,-11.19 43.94,-12.91 85.46,37.7 -72.94,179.36 56.25,351.83 215.07,458.34l77.74 40.86c226.8,115.63 251.88,60.27 381.33,135.95 73.41,42.93 99.58,130.3 225.51,104.13 162.85,-33.85 87.29,-190.48 363.29,-63.86 44.02,20.2 103.14,51.7 141.82,58.03 138.16,22.6 167.77,-39.57 244.96,-36.47l-683.47 -716.36c-333.21,-147.45 -472.8,-204.29 -830.39,-180.92z"/>
    <path class="fil12" d="M4073.45 12521.5c41.95,274.23 183.15,80.65 152.61,300.41 -20.18,145.19 21.23,19.59 -60.26,99.85 -74.62,73.49 -246.48,68.29 -228.53,437.94 272.45,-14.42 184.5,-59.97 371.97,-84.5 544.35,-71.22 481.7,-128.11 649.41,-161.65l413.96 34.22 -15.24 -41.97c-293.96,-183.96 -546.32,-885.62 -937.37,-967.42 -36.86,147.27 9.99,25.75 -76.83,97.31 -40.73,33.57 -228.57,165.6 -269.72,285.81z"/>
    <path class="fil12" d="M7765.89 4450.85c-198.46,-9.91 -70.43,-13.11 -115.11,52.45 138.03,24.61 -160.33,77.06 -272.38,124.75l-966.7 463.15c-98.42,76.82 -35.8,20.05 -87.4,93.51 201.42,108.16 129.45,158 242.06,303.59 110.66,-36.29 179.83,-88.66 298.9,-140.62l681.7 -269.74c533.22,-181.1 195.79,-76.06 304.19,-597.89l-85.26 -29.2z"/>
    <path class="fil12" d="M5037.1 5869.33c208.91,14.16 83.93,-22.14 218.61,68.19 67.13,-244.72 355.68,14.85 992.02,-293.36 100.37,-48.61 241.63,-108.71 251.46,-198.1 -52.11,-198.68 -81.33,-242.13 -325.81,-201.76 -170.91,28.21 -771.21,359.13 -1189.27,488.2l52.99 136.83z"/>
    <path class="fil12" d="M9960.47 14776.19c657.56,487.17 651.04,166.09 720.54,126.09 66.65,155.79 21.17,277.2 90.17,384.99 96.27,138.8 -29.89,37.75 146.47,92.57 47.62,14.8 142.49,32.92 224.61,44.76 -59.58,-94.19 17.33,-8.76 -67.37,-83.3 -15.28,-13.43 -65.24,-39.39 -84.12,-51.49 107.87,-115.96 32.57,-15.73 57.32,-155.73 13.54,-76.59 -22.69,-91.25 86.95,-201.3 -224.44,5.01 -117.74,-157.94 -562.02,-317.6 -250.58,-90.05 -309.99,-110.65 -567.85,115.2l-44.7 45.81z"/>
    <path class="fil12" d="M11095.03 6664.15c23.71,313.21 188.97,127.11 260.11,645.43l21.6 103.39c21.57,90.31 136.12,151.24 220.59,225.77l39.95 35.85c63.98,61.56 -9.76,-7.41 45.55,49.24 75.78,77.64 -107.89,5.85 80.52,65.23l541.61 262.16c-20.04,-215.56 -114.37,-151.56 -290.09,-240.88 -155.78,-79.18 24.98,24.31 -68.99,-45.1l-249.44 -155.63c37.23,-87.31 79.55,-10.57 110.6,-104.2l-303.55 -68.56c-40.16,-593.23 -268.88,-469.85 -166.77,-912.04 52.89,-229.03 107.61,-15.79 119.39,-293.92 -248.29,142.93 -246.64,178.05 -361.08,433.26z"/>
    <path class="fil12" d="M11738.32 4812.61c-91.14,66.03 -249.32,117.72 -398.46,196.83 385.77,213.96 951.51,103.88 1051.4,-555.7l-133.35 -78.06c-149.69,39.28 -27.8,-56.52 -131.71,121.19 -39.46,67.51 -49.46,96.95 -95.9,145.55 -75.63,79.16 -171.59,132.45 -291.98,170.19z"/>
    <path class="fil12" d="M14296.4 11067.05l-26.41 136.52 278.51 111.35c31.74,237.96 -26.83,132.71 111.2,229.25 58.06,-91.16 74.87,-92.43 28.83,-285.88 -9.65,-146.36 -39.78,-324.52 -93.52,-469.16 -71.56,-192.63 -190.13,-185.53 -101.66,-401.84l-79.24 -18.47c12.05,268.23 8.05,172.7 -54.34,377.81 -32.59,107.18 -36.49,216.1 -63.37,320.42z"/>
    <path class="fil12" d="M10301.82 5548.18c45.77,98.49 32.2,18.24 36.85,175.72l162.45 103.49 174.11 -2.12c-0.41,-99.52 -3.57,-114.66 16.41,-192.41 46.29,-180.22 34.52,79.86 36.69,-135.84 -82.81,-93.54 -35.8,-64.67 -163.66,-88.05 -46.22,92.2 6.45,35.95 -70.66,76.4 -124.22,-54.52 -90.21,-37.07 -146.76,-148.43 -11.29,81.92 -35.85,171.16 -45.43,211.24z"/>
    <path class="fil12" d="M11168.45 9559.33c115.5,-50.93 55.06,42.09 110.72,-107.48l-182.88 -30.56c15.18,113 3.27,77.36 72.16,138.04z"/>
   </g>
  </g>
 </g>
</svg>
