<?xml version="1.0" encoding="UTF-8"?>
<!DOCTYPE svg PUBLIC "-//W3C//DTD SVG 1.1//EN" "http://www.w3.org/Graphics/SVG/1.1/DTD/svg11.dtd">
<!-- Creator: CorelDRAW 2017 -->
<svg xmlns="http://www.w3.org/2000/svg" xml:space="preserve" width="200mm" height="200mm" version="1.1" style="shape-rendering:geometricPrecision; text-rendering:geometricPrecision; image-rendering:optimizeQuality; fill-rule:evenodd; clip-rule:evenodd"
viewBox="0 0 20000 20000"
 xmlns:xlink="http://www.w3.org/1999/xlink">
 <defs>
  <style type="text/css">
   <![CDATA[
    .fil8 {fill:#F8BCD1}
    .fil14 {fill:#F9FCFE}
    .fil4 {fill:#EED1E1}
    .fil1 {fill:#EA8BA0}
    .fil11 {fill:#D2DC5B}
    .fil15 {fill:#CDD490}
    .fil13 {fill:#C5D43D}
    .fil3 {fill:#B9B6CA}
    .fil16 {fill:#B984A6}
    .fil6 {fill:#ABABB5}
    .fil17 {fill:#A96B8E}
    .fil5 {fill:#A95587}
    .fil10 {fill:#A4B149}
    .fil18 {fill:#979BA7}
    .fil9 {fill:#918D92}
    .fil21 {fill:#76C3E9}
    .fil19 {fill:#6D4F59}
    .fil2 {fill:#7D8455}
    .fil7 {fill:#758776}
    .fil0 {fill:#6F6C75}
    .fil20 {fill:#5B6452}
    .fil12 {fill:#2D3032}
   ]]>
  </style>
 </defs>
 <g id="Capa_x0020_1">
  <metadata id="CorelCorpID_0Corel-Layer"/>
  <path class="fil0" d="M4944.45 11924.19c-93.95,-47.27 -104.97,-7.39 -112.65,-3.38 24.5,124.62 -26.09,50.54 91.73,76.32 65.67,14.37 40.01,22.78 82.98,3.21 -10.12,-53.26 14.2,-37.78 -62.06,-76.15z"/>
  <path class="fil0" d="M5060.82 12051.22c19.27,60.87 46.93,48.2 75.62,59.98 14.58,-99.18 38.04,-143.27 -68.55,-143.28 -8.67,22.93 -17.4,50.6 -7.07,83.3z"/>
  <path class="fil0" d="M8340.25 16358.42c74.81,-7.72 115.4,-24.04 68.4,-96.22 -64.58,19.46 -60.01,18.86 -68.4,96.22z"/>
  <path class="fil1" d="M5236.26 18380.07l163.77 21.29c0.08,-112.85 17.33,-160.13 -28.3,-256.8 -71.49,-49.07 -277.9,-21.31 -364.98,-1.53 13,94.1 113.69,235.27 229.51,237.04z"/>
  <path class="fil1" d="M5578.25 18289.7c30.19,30.7 19.75,14.38 34.57,56.67 2.14,6.12 6.22,27.51 8.52,33.97 14.36,40.49 5.33,24.53 23.23,50.77l179.03 -4.33c-71.5,-102.12 -99.11,-113.64 -210.31,-200.29 -41.18,31.1 -22.81,-2.53 -35.04,63.21z"/>
  <path class="fil2" d="M6348.36 18556.14c232.12,11.34 643.09,-377.23 652.41,-495.32l-164.02 -21.43c-61.93,122.14 -235.32,281.05 -360.63,359.28 -97.97,61.17 -126.47,35.2 -127.76,157.47z"/>
  <path class="fil2" d="M4560 10540.41c-7.31,6.18 -21.14,-9.32 -34.92,78.04 -37.03,234.8 22.94,181.97 22.06,292.61l64.51 -85.16c40.47,-83.24 135.85,-268.48 138.67,-336.02l-64.73 73.79c-21.05,27.75 -38.86,49 -52.17,69.96 -32.46,51.17 -62.24,134.28 -85.98,160.07l12.56 -253.29z"/>
  <path class="fil2" d="M7689.04 16731.75c52.35,32.11 101.05,19.19 162.28,-3.16l244.64 -112.76c14.83,-8.87 54,-32.57 59.61,-37.9 31.09,-29.5 13.7,-4.28 26.33,-44.98 -75.67,-52.25 -64.65,-12.89 -121.97,28.5 -139.79,100.94 -301.16,121.69 -370.89,170.3z"/>
  <path class="fil3" d="M5139.43 12342.7l-31.86 -3.28 -122.56 62.74c-2.04,53.65 -12.21,72.09 -16.44,105.52 -28.45,224.27 207.41,81.12 453.29,83.56 63.81,-121.79 18.18,-90.63 -75.57,-190.63 -87.44,58.18 -1.94,57.54 -99.43,66.38l-27.04 -49.16c55.7,-101.65 17.92,3.79 101.85,-79.53l-35.85 -18.47c-82.7,-13.54 -58.16,10.25 -146.39,22.87z"/>
  <path class="fil4" d="M7466.82 16433.56c-10.96,-105.4 -16.95,22.98 -38.95,-178.29l-43.42 -110.91c-175.95,-241.88 -360.44,-139.84 -268,109.67l53.21 106.75c85.72,138.76 125.7,173.67 297.16,72.78z"/>
  <path class="fil4" d="M5100.66 15986.45c-3.94,98.32 -12.12,162.54 15.17,239.63 238.98,95.19 225.08,-206.37 172.15,-250.46 -3.27,-2.73 -18.35,-15.35 -22.81,-18.94 -3.21,-2.58 -7.92,-6.24 -11.24,-8.85l-46.84 -35.3c-61.05,28.52 -39.71,35.84 -106.43,73.92z"/>
  <path class="fil4" d="M6837.7 15972.99l152.77 1.39c38.38,-92.52 54.38,-149.61 -19.23,-210.44 14.05,-39.78 42.86,-50.78 45.43,-56.55 -94.89,-13.6 -209.84,-43.4 -236.88,34.98 -13.46,39 38.67,202.14 57.91,230.62z"/>
  <path class="fil5" d="M5458.34 10384.08c-195.88,33.02 -449.67,266.29 -525.89,426.35 -111.08,233.28 -130.39,503.11 -139.16,798.7 -353.25,-27.39 -392.81,-822.91 -317.14,-1155.44 36.05,-158.44 116.16,-259.3 140.32,-374.81 -92.59,51.62 -173.1,277.78 -201.08,377.25 -29.15,103.64 -11.25,421.06 0.17,531.09 26.5,255.34 112.92,696.62 439.11,700.71 -14.43,-306.73 -4.24,-584.61 102.45,-834.18 54.7,-127.93 226.08,-287.76 350.1,-361.62 53.32,-31.75 80.31,-32.14 127.47,-78.81 4.03,-3.99 8.67,-10.72 11.89,-14.18 3.33,-3.59 7.96,-9.96 11.76,-15.06z"/>
  <path class="fil6" d="M5079.71 12830.09c-24.09,91.61 0,255.19 24.2,347.29 64.2,10.15 227.83,-29.96 281.61,-63.77 8.18,-115.32 -21.82,-243.09 -57.35,-322.66l-248.46 39.14z"/>
  <path class="fil7" d="M4924.97 12232.91c-8.79,-64.37 -106.84,-161.89 -175.24,-167.36 -32.18,65.69 -7.47,115 12.66,189.89l162.58 -22.53z"/>
  <path class="fil7" d="M5356.82 12099.74c-25.07,-81.02 -78.42,-137.95 -167.22,-138.87l4.23 191.62 162.99 -52.75z"/>
  <path class="fil8" d="M7466.82 16433.56c-171.46,100.89 -211.44,65.98 -297.16,-72.78l-53.21 -106.75c-92.44,-249.51 92.05,-351.55 268,-109.67l43.42 110.91c22,201.27 27.99,72.89 38.95,178.29zm-629.12 -460.57c-19.24,-28.48 -71.37,-191.62 -57.91,-230.62 27.04,-78.38 141.99,-48.58 236.88,-34.98 -2.57,5.77 -31.38,16.77 -45.43,56.55 73.61,60.83 57.61,117.92 19.23,210.44l-152.77 -1.39zm-353.77 -431.42c-29.33,271.06 -24.78,554.77 128.93,719.43 596.76,639.21 1630.93,190.67 1688.29,-236.49 -362.25,-92.32 -1558.84,-477.7 -1817.22,-482.94z"/>
  <path class="fil8" d="M5100.66 15986.45c66.72,-38.08 45.38,-45.4 106.43,-73.92l46.84 35.3c3.32,2.61 8.03,6.27 11.24,8.85 4.46,3.59 19.54,16.21 22.81,18.94 52.93,44.09 66.83,345.65 -172.15,250.46 -27.29,-77.09 -19.11,-141.31 -15.17,-239.63zm35.18 -87.64l-857.01 232.07c-6.35,257.77 593.83,649.67 1016.39,491.59 93.71,-35.06 234.45,-166.81 270.14,-251.56 15.25,-75.52 195.97,-405.2 77.74,-603.55l-507.26 131.45z"/>
  <path class="fil9" d="M5421.86 12591.24c-245.88,-2.44 -481.74,140.71 -453.29,-83.56 4.23,-33.43 14.4,-51.87 16.44,-105.52l122.56 -62.74 -375.84 98.27c11.41,98.47 87.71,212.43 137.31,272.06 82.56,-3.96 209.85,-33.81 282.98,-50.31l222.55 -37.2c40.98,-15.3 31.59,-15.37 47.29,-31z"/>
  <path class="fil9" d="M5135.84 15898.81l507.26 -131.45c118.23,198.35 -62.49,528.03 -77.74,603.55 133.53,-122.31 169.8,-408.3 121.52,-617.03 -73.82,-22.08 -475.14,85.42 -551.04,144.93z"/>
  <path class="fil9" d="M5187.39 17844.93c-3.84,-5.33 -9.42,-19.81 -11.61,-15.93 -2.09,3.66 -8.45,-11.45 -11.28,-14.85 -54.26,-65.35 -106.97,-103.55 -85.64,-237.28 98.88,11.57 6.68,48.83 108.35,94.56l34.14 -110.21 -83.19 18.42c-29.65,-47.64 -1.64,-45.09 -73.87,-35.59 -65.92,129.43 31.51,264.06 123.1,300.88z"/>
  <path class="fil10" d="M6035.9 19225.55c28.06,-196.98 27.27,-249.94 255.04,-230.91 152.47,74.23 93.1,506.53 -233.09,246.86l-21.95 -15.95zm-1574.36 -31.16l310.46 190.88c207.04,101.42 550.14,348.1 773.88,374.84 701.23,83.82 1374.11,-17.85 2000.57,-275.31 1087.48,-446.91 1857.75,-1417.4 2011.33,-2591.02 16.99,-129.77 9.8,-885.37 -106.61,-990.1 -9.46,60.15 36.15,276.17 50.92,365.06 32.32,194.54 -4,152.3 -64.3,297.32 -78.5,188.8 -142.51,387.26 -238.79,577.52l-151.78 262.46c-95.88,166.02 -311.12,418.48 -454.11,563.77 -41.97,42.64 -73.88,58.86 -107.77,92.62l-328.66 286.43c-120.15,98.8 -214.16,129.69 -312.62,204.67l-693.45 419.52c-57.84,27.12 -92.63,27.3 -154.01,51.55 -80.88,31.98 -7.04,4.81 -61.47,33.03 -85.84,44.53 -406.99,174.79 -515.02,191.94l-11.8 -112.16c-39.27,-273.94 -396.17,-231.54 -398.82,0.36l26.41 87.78c-4.18,77.21 45.66,53.89 66.61,130.51 -68.61,26.5 -360.43,83.17 -455.22,61.21l-363.71 -133.9c48.5,-145.01 66.74,-193.68 -31.93,-231.7l-133.26 -19.79c-62.68,21.83 -55.84,12.37 -82.13,77.06l-28.02 87.31c-176.69,-46.36 -134.51,-8.76 -237.85,-140.3 -76.55,-97.4 -173.44,-19.55 -278.66,-13.2 -206.31,12.46 -187.98,32.15 -421.38,-103.39 -73.32,-42.58 -42.49,-50.21 -134.42,-51.37 14.89,15.91 13.28,16.12 33.12,32.57l492.49 273.83zm1574.36 31.16l21.95 15.95c326.19,259.67 385.56,-172.63 233.09,-246.86 -227.77,-19.03 -226.98,33.93 -255.04,230.91z"/>
  <path class="fil10" d="M8806.46 14463.45c308.19,183.53 537.26,745.38 636.24,885.44 79.77,-28.01 1312.94,-1489.75 1475.21,-1674.36 149.8,-170.42 320.66,-370.3 492.96,-561.66l1478.7 -1683.33c80.71,-89.35 160.48,-177.51 250.55,-284.73 122.66,-146.04 142.25,-131.17 151.71,-366.13 98.05,12.92 82.48,25.88 151.52,85.76 56.55,49.05 72.4,50.21 169,50.49 251.46,-341.18 383.21,-291.91 64.59,-542.71 -74.76,-58.84 -107.09,-113.38 -208.89,-145.71l9.81 81.61c-323.56,160.05 -294.98,312.91 -534.08,560.66 -173.84,180.14 -350.08,377.71 -518.4,554.63l-518.14 575.86c-177.79,186.49 -333.26,357.86 -511.77,561.54 -35.89,40.97 -88.22,121.19 -122.83,156.09 -62.29,62.78 -46.07,1.91 -142.15,134.85l-888.55 1001.39c-295.79,285.43 -701.16,962.66 -839.02,1041.57 -54.13,-19.22 -43.47,-13.85 -95.48,-53.71l-208.73 -169.89c-115.77,-87.38 -192.79,-202.84 -243.52,-213.63l-31.69 2.31c-2.74,-5.86 -12.59,-0.07 -17.04,3.66z"/>
  <path class="fil10" d="M8426.22 13254.42c85.59,-38.44 296,-313.15 386.33,-412.23 119.81,-131.4 240.67,-271.9 365.14,-410.84l727.25 -825.87c64.46,-74.78 96.25,-132.79 173.52,-222.81l313.99 -361.33c2.42,-3.37 5.43,-8.47 7.81,-11.9 26.36,-38.23 11.4,-22.26 40.62,-58.42 28.15,-34.84 65.33,-67.76 97.93,-103.72l773.77 -957.28c-171.07,65.42 -492.73,618.39 -616.76,625.54 -83.43,4.81 -29.82,-25.48 -104.66,-32.93 6.48,52.16 24.26,38.39 73.64,71.98 -26.13,76.49 -400.32,503.21 -504.73,614.35l-1339.29 1581.27c-77.02,89.91 -377.33,427.76 -394.56,504.19z"/>
  <path class="fil11" d="M4028.98 14538.95c-107.86,11.42 -199.82,32.77 -208.48,-73.49 -16.31,-200.23 70.71,-321.82 252.35,-198.82 -3.03,262.38 -24.29,184.36 -43.87,272.31zm-1383.39 1255.4l13.55 51.43c51.38,-28.55 97.13,-55.24 152.64,-97.65 24.9,-19.03 36.99,-28.58 68.13,-52.46l1011.5 -658.81c-29.36,-130.52 -72,-144.2 -60.76,-297.81l176.39 -10.87c5.56,59.95 -17.39,180.33 29.49,209.41l27.95 -6.48c24.21,-13.13 21.63,-11.43 33.76,-22.83l577.03 -318.87c126.7,-77.98 540.56,-223.57 703.68,-289.56 118.79,-48.08 239.07,-39.71 395.56,-104.82 164.66,-68.52 53.23,-27.9 241.09,-53.82 67.83,-9.36 116.23,-15.13 185.48,-20.04 364.16,-25.85 113,71.08 297.11,385.56 38.01,64.93 21.95,68.47 101.13,97.77 -73.51,-203.02 -90.75,-124.21 -118.11,-222.24 -119.47,-428.11 200.98,-837.55 557.86,-677.73 58.27,26.1 44.92,40.92 81.62,80.42 21.27,22.89 14.17,8.76 42.48,38.34 29.27,30.59 14.62,14.99 35.45,45.69 127.96,188.6 35.62,311.45 -16.67,519.84 174.8,-117.75 -54.65,-301.65 397.39,-187.52 73.78,18.62 195.64,43.82 250.42,67.32 48.12,20.65 143.35,85.58 196.48,119.56 126.13,80.67 129.5,39.14 253.71,70.44 42.22,10.63 311.24,196.25 372.81,278.63 2.5,3.34 5.63,8.33 8.19,11.63 61.66,79.31 254.08,240.46 344.37,229.36 -41.43,-142.64 -94.2,-88.4 -115.02,-203.01 -100.53,-224 -713.58,-707.2 -1019.24,-845.09 -557.73,-251.62 -246.67,-156.36 -884.41,-351.87 -188.05,-57.66 -322.79,-65.73 -514.66,-92.21 -1013.5,-139.86 -2092.46,190.01 -2849.96,826.78 -201.85,169.67 -416.48,394.95 -587.77,642.92 -94.11,136.23 -401.87,652.74 -388.67,838.59z"/>
  <path class="fil12" d="M5371.73 18144.56c42.7,24.02 12.56,0.49 42.78,28.13 24.84,22.73 13.11,20.41 18.53,32.33l79.31 9.05 35.84 -48.19 30.41 30.76c84.46,21.1 278.51,154.26 281.01,259.97 -142.26,17.63 -505.82,38.36 -623.35,-76.54 -115.82,-1.77 -216.51,-142.94 -229.51,-237.04 87.08,-19.78 293.49,-47.54 364.98,1.53zm976.63 411.58c1.29,-122.27 29.79,-96.3 127.76,-157.47 125.31,-78.23 298.7,-237.14 360.63,-359.28l164.02 21.43c-9.32,118.09 -420.29,506.66 -652.41,495.32zm667.26 -810.51c76.65,-36.2 87.96,-12.16 164.52,-1.74 -30.54,89.46 -153.93,119.46 -164.52,1.74zm-1794.27 -184.41c52.76,-17.08 288.44,-13.07 372.23,-3.39 27.48,127.49 -15.17,226.6 -92.13,262.02 -86.86,40 -219.67,14.81 -314.06,25.08 -91.59,-36.82 -189.02,-171.45 -123.1,-300.88 72.23,-9.5 44.22,-12.05 73.87,35.59l83.19 -18.42zm-560.58 -162.02c-37.1,197.77 22.41,455.91 75.98,617.38 106.21,320.11 -69.24,120.14 246.34,429.93 563.21,552.88 1515.28,490.77 2031.93,-86.63 140.12,-156.59 478.91,-691.21 449.24,-966.17l-2803.49 5.49z"/>
  <path class="fil12" d="M7689.04 16731.75c69.73,-48.61 231.1,-69.36 370.89,-170.3 57.32,-41.39 46.3,-80.75 121.97,-28.5 -12.63,40.7 4.76,15.48 -26.33,44.98 -5.61,5.33 -44.78,29.03 -59.61,37.9l-244.64 112.76c-61.23,22.35 -109.93,35.27 -162.28,3.16zm651.21 -373.33c8.39,-77.36 3.82,-76.76 68.4,-96.22 47,72.18 6.41,88.5 -68.4,96.22zm-1856.32 -816.85c258.38,5.24 1454.97,390.62 1817.22,482.94 -57.36,427.16 -1091.53,875.7 -1688.29,236.49 -153.71,-164.66 -158.26,-448.37 -128.93,-719.43zm-203.51 275.7l-109.58 19.89c49.93,154.31 326.77,612.33 425.15,719.22 422.83,459.4 1187.43,517.86 1691.55,134.86 176.88,-134.37 431.73,-420.25 444.13,-720.4 -182.13,-58.83 -405.02,-119.93 -587.44,-168.9 -248.74,-66.77 -1672.59,-489.87 -1782.45,-480.64 -48.62,192.5 -83.47,277.57 -81.36,495.97z"/>
  <path class="fil12" d="M5597.51 8580.88c50.95,33.75 55.3,43.76 67.2,119.49 104.02,36.98 135.44,73.03 160.42,164.75 24.19,75.12 52.01,93.8 60.18,192.85 6.13,74.47 -9,155.91 -2.2,224.86 -18.56,131.53 -96.38,254.49 -158.62,332.36 -69.78,87.31 -144.59,198.48 -277.97,200.29 -17.99,19.59 -62.6,64.95 -108.72,69.53l6.16 67.68c-51.53,32.55 -42.26,36.06 -91.51,69.92 -328.06,185.61 -598.38,687.77 -591.44,1082.87 1.75,100.08 24.91,188.96 -30.6,243.96 -55.28,-118.29 -99.46,-296.33 -83.27,-438.38 0.88,-110.64 -59.09,-57.81 -22.06,-292.61 13.78,-87.36 27.61,-71.86 34.92,-78.04l8.3 -33.17c27.5,-118.34 -16.46,-118.63 57.69,-228.91 54.24,-107.35 116.89,-189.78 193.29,-276.05 63.39,-71.59 202.79,-177.7 270.31,-198.52 62.51,-86.77 32.22,11.27 176.62,-109.4 52.5,-41.39 40.66,-64.93 128.09,-66.25 12.82,-41.52 18.03,-73.13 45.23,-116.83 6.6,-10.6 27.29,-37.54 35.19,-46.38 19.96,-22.32 15.28,-17.38 35.72,-33.4 166.94,-317 -31.56,-361.18 -55.93,-616.59 -54.07,-62.05 -41.74,-78.86 -35.59,-158.35 7.28,-94.3 -1.91,-85.64 66.56,-146.09 73.88,15.55 77.3,16.83 112.03,70.41zm304.32 -167.47c89.26,62.25 86.81,5.7 148.75,90.53l35.24 71.23c78.41,26.21 97.22,38.09 137.57,122.82 26.55,55.73 51.09,127.97 67.02,191.35 75.58,300.76 35.21,593.57 -126.1,847.03 -60.43,94.93 -99.35,134.27 -188.95,188.96 -25.88,15.8 -27.45,22.14 -59.55,32.37 -65.58,85.71 -161.52,181.18 -273.03,202.88 -41.32,44.24 -11.94,21.33 -65.05,40.03 -195.38,68.76 -48.5,17.78 -155.15,87.1 -92.94,60.43 -59.84,-16.15 -220.81,101.83 -48.02,47.87 -105.55,83.36 -161.24,132.07l-115.33 106.78c-32.67,24.07 2.5,3.33 -44.46,27.45 9.42,-201.17 185.86,-359.55 279.26,-452.08 90.56,-89.72 285.75,-241.29 394.23,-297.18 62.21,-80.21 31.95,-42.62 147.56,-85.91 92.63,-266.18 509.31,-567.9 101.74,-1139.32 -168.54,-236.31 -207.98,-172.62 -261.94,-265.11 89.97,-60.98 268.82,-92.59 360.24,-2.83zm-454.16 701.54c-1.19,64.96 19.31,124.04 -10.59,191.66 -0.22,0.51 -96.48,127.97 -103.53,136.41 -215.67,258.68 -688.1,459.92 -717.08,635.86 -24.16,115.51 -104.27,216.37 -140.32,374.81 -75.67,332.53 -36.11,1128.05 317.14,1155.44 8.77,-295.59 28.08,-565.42 139.16,-798.7 76.22,-160.06 330.01,-393.33 525.89,-426.35 86.66,-13.55 496.38,-229.61 550.85,-312.2 24.76,-50.5 -0.16,-12.08 36.42,-56.16l96.51 -102.18c128.11,-160.51 212.14,-317.42 246.75,-534.44 47.93,-300.6 -20.88,-638.77 -167.74,-837.62 -105.64,-143.04 -451.15,-388.4 -709.91,-213.14 -82.14,55.63 -177.78,224.97 -176.35,351.94 2.07,183.75 98.02,273.53 112.8,434.67z"/>
  <path class="fil12" d="M4337.91 16526.55c66.87,57.68 76.06,31.21 72.96,126 -74.56,1.71 -246.16,-108.45 -193.88,-155.27 53.47,-47.89 98.01,9.51 120.92,29.27zm-265.42 -172.51c15.8,-42.07 65.19,-38.24 102.88,-23.42 0.45,31.15 -8.22,35.17 -24.96,66.22 86.16,0.88 49.76,-20.67 83.87,39.86l-61.23 38.27 -100.56 -120.93zm1492.87 16.87c-35.69,84.75 -176.43,216.5 -270.14,251.56 -422.56,158.08 -1022.74,-233.82 -1016.39,-491.59l857.01 -232.07c75.9,-59.51 477.22,-167.01 551.04,-144.93 48.28,208.73 12.01,494.72 -121.52,617.03zm-1762.08 -268.08c103.76,429.52 345.53,703.37 799.56,809.83 504.1,118.21 866.75,-184.97 1177.78,-399.58l-76.78 -31.79c155.42,-422.17 243.63,-356.52 83.64,-928.1 -163.04,9.03 -1792.33,493.97 -1984.2,549.64z"/>
  <path class="fil13" d="M5766.64 19038.35l52.25 60.35c58.06,129.64 -131.84,238.7 -223.39,147.15 -39.75,-39.75 -40.87,-124.91 -11.86,-168.45 35.68,-53.59 102.47,-47.45 183,-39.05zm-1105.87 -1639.15l2803.49 -5.49c29.67,274.96 -309.13,809.59 -449.24,966.17 -516.65,577.4 -1468.72,639.51 -2031.93,86.63 -315.58,-309.79 -140.13,-109.83 -246.34,-429.93 -53.57,-161.47 -113.07,-419.61 -75.98,-617.38zm-1279.18 -255.32c4.55,2.98 8.6,6.3 13.28,8.92 64.66,36.24 75.48,9.9 180.65,52.55 0.16,-141.16 -66.91,-156.88 -18.92,-232.65 43.68,56.79 90.7,201.4 122.75,231.58 68.42,64.4 186.24,43.38 243.95,113.37l-203.74 -7.85 37.69 180.66c-68.42,-30.49 -93.93,-143.36 -118.45,-203.37 -44.78,-17.12 -159.94,-52.84 -217.33,-52.63 -4.52,105.48 8.64,46.65 24.91,106.48 12.09,44.48 12.34,10.55 7.35,63.4 -4.09,43.34 -2.63,24.71 -16.44,47.99 -64.17,-61.58 -59.81,-166.28 -122.22,-241.18l-62.11 -62.67 72.14 -49.75c5.48,3.21 10.9,8.97 14.78,12.04l41.71 33.11zm421.69 -1041.04c191.87,-55.68 1821.15,-540.62 1984.2,-549.65 159.99,571.58 71.78,505.92 -83.64,928.1l76.78 31.79c-311.03,214.61 -673.68,517.79 -1177.77,399.58 -454.04,-106.46 -695.81,-380.31 -799.57,-809.82zm2477.14 -285.57c-2.11,-218.4 32.75,-303.47 81.36,-495.97 109.85,-9.23 1533.72,413.87 1782.45,480.64 182.43,48.98 405.31,110.07 587.44,168.9 -12.4,300.15 -267.25,586.03 -444.13,720.41 -504.12,383 -1268.73,324.53 -1691.54,-134.87 -98.39,-106.9 -375.23,-564.91 -425.16,-719.22l109.58 -19.89zm-2243.9 -879.68c-19.19,218.62 94.28,207.32 107.54,332.46 -87.02,3.63 -98.6,-48.19 -139.25,-99.13 -16.7,-20.9 -94.61,-117.48 -113.4,-134.06l-1011.5 658.82c-31.14,23.87 -43.22,33.43 -68.14,52.46 -55.51,42.4 -101.25,69.09 -152.63,97.64l-13.55 -51.43 -20.61 45.33c-1.83,4.91 -3.66,10.36 -5.38,15.47 -187.82,558.16 -104.8,1364.18 138.6,1911.73 98.87,222.42 297.93,585.36 439.82,714.77 52.45,47.84 695.48,397.86 737.91,406.34 91.93,1.17 61.1,8.79 134.42,51.37 233.4,135.54 215.07,115.84 421.37,103.39 105.24,-6.35 202.13,-84.2 278.67,13.2 103.35,131.54 61.16,93.94 237.85,140.31l28.02 -87.32c26.29,-64.69 19.45,-55.23 82.13,-77.06l133.26 19.79c98.66,38.02 80.43,86.68 31.93,231.7l363.71 133.9c94.79,21.97 386.61,-34.71 455.23,-61.21 -20.96,-76.62 -70.8,-53.3 -66.62,-130.51l-26.41 -87.78c2.65,-231.9 359.55,-274.3 398.82,-0.36l11.8 112.16c108.03,-17.15 429.17,-147.41 515.02,-191.94 54.43,-28.22 -19.41,-1.05 61.47,-33.03 61.38,-24.25 96.17,-24.43 154,-51.55l693.46 -419.52c98.46,-74.98 192.46,-105.87 312.62,-204.67l328.65 -286.43c33.9,-33.76 65.81,-49.98 107.78,-92.61 142.99,-145.3 358.22,-397.76 454.11,-563.78l151.77 -262.46c96.3,-190.26 160.3,-388.72 238.8,-577.52 60.3,-145.02 96.62,-102.78 64.3,-297.32 -14.77,-88.89 -60.39,-304.91 -50.91,-365.06 7.89,-229.81 -434.04,-1051.28 -560.88,-1128.45 20.82,114.61 73.59,60.38 115.02,203.01 -90.29,11.09 -282.71,-150.04 -344.37,-229.36 -2.56,-3.29 -5.69,-8.29 -8.19,-11.64 -61.58,-82.37 -330.59,-268 -372.81,-278.62 -124.21,-31.3 -127.58,10.24 -253.71,-70.44 -53.13,-33.98 -148.36,-98.91 -196.48,-119.55 -54.78,-23.5 -176.64,-48.71 -250.42,-67.33 -452.04,-114.14 -222.59,69.77 -397.39,187.51 -153.93,210.17 -17.23,123.82 -224.67,235.31 -165.46,88.94 -239.98,6.33 -357.96,-19.62 -79.18,-29.31 -63.13,-32.84 -101.13,-97.77 -184.1,-314.48 67.05,-411.41 -297.11,-385.56 -69.25,4.91 -117.65,10.68 -185.47,20.04 -187.87,25.92 -76.44,-14.7 -241.1,53.82 -156.49,65.1 -276.77,56.74 -395.57,104.82 -163.11,66 -576.97,211.58 -703.67,289.56l-577.03 318.88c-12.13,11.39 -9.55,9.69 -33.76,22.81l-27.96 6.49zm1730.12 4100.76c-80.53,-8.4 -147.32,-14.54 -183,39.05 -29.01,43.54 -27.89,128.7 11.86,168.45 91.55,91.55 281.45,-17.51 223.39,-147.15l-52.25 -60.35zm-1875.23 -4001.49c18.79,16.58 96.7,113.16 113.4,134.06 40.65,50.94 52.23,102.76 139.25,99.13 -13.26,-125.14 -126.73,-113.84 -107.54,-332.46 -46.87,-29.07 -23.92,-149.47 -29.48,-209.41l-176.39 10.86c-11.24,153.61 31.4,167.29 60.76,297.82zm137.57 -497.91c19.59,-87.95 40.84,-9.93 43.86,-272.31 -181.64,-122.99 -268.65,-1.41 -252.34,198.82 8.65,106.26 100.62,84.92 208.48,73.49zm381.89 2113.6c3.1,-94.78 -6.09,-68.32 -72.97,-126 -22.91,-19.76 -67.44,-77.16 -120.91,-29.27 -52.27,46.82 119.32,156.98 193.88,155.27zm-835.35 552.8c-105.17,-42.65 -115.99,-16.31 -180.65,-52.55 -4.68,-2.62 -8.73,-5.94 -13.28,-8.92l-41.71 -33.11c-3.88,-3.07 -9.3,-8.83 -14.78,-12.04l-72.14 49.75 62.11 62.67c62.41,74.9 58.05,179.6 122.22,241.18 13.81,-23.28 12.35,-4.65 16.44,-47.99 4.99,-52.85 4.74,-18.92 -7.35,-63.4 -16.27,-59.83 -29.43,-1 -24.91,-106.48 57.39,-0.21 172.55,35.51 217.33,52.63 24.52,60.01 50.03,172.88 118.45,203.37l-37.69 -180.66 203.74 7.85c-57.71,-69.99 -175.53,-48.97 -243.95,-113.37 -32.05,-30.18 -79.07,-174.79 -122.75,-231.58 -47.99,75.77 19.08,91.49 18.92,232.65zm496.97 -851.3l100.56 120.92 61.23 -38.27c-34.12,-60.53 2.29,-38.98 -83.87,-39.86 16.74,-31.05 25.41,-35.07 24.96,-66.22 -37.7,-14.82 -87.08,-18.65 -102.88,23.43z"/>
  <path class="fil13" d="M8278.7 13975.25c47.72,72.45 75.86,62.17 150.54,111.93 83.27,55.46 376.35,277.75 377.22,376.27 4.45,-3.73 14.3,-9.52 17.05,-3.66l31.68 -2.31c50.73,10.79 127.76,126.25 243.53,213.63l208.73 169.89c52,39.87 41.33,34.49 95.47,53.71 137.86,-78.9 543.23,-756.14 839.03,-1041.57l888.54 -1001.39c96.07,-132.94 79.86,-72.07 142.14,-134.85 34.63,-34.9 86.95,-115.12 122.85,-156.08 178.5,-203.69 333.98,-375.06 511.76,-561.55l518.14 -575.86c168.32,-176.92 344.56,-374.48 518.4,-554.63 239.1,-247.75 210.52,-400.61 534.08,-560.66l-9.81 -81.61c-20.18,-33.13 -1133.53,-954.4 -1214.21,-1003.32 29.75,98.01 40.81,101.66 85.17,122.11 -86.21,49.81 -77.67,68.7 -108.79,180.46 -8.19,29.41 -69.6,170.62 -84.58,188.47l-152.88 123.41c-41.89,37.92 -96.38,74.14 -143.58,114.85l-395.58 419.69c-67,107.38 -499.55,576.8 -625.04,707.77l-403.63 412.51c-36.57,45.57 -85.61,93.4 -125,133.15l-942.04 965.1c-75.09,88.4 -0.23,41.06 -125,135.86l-136.81 140.35c-106.66,106.82 -304.13,509.96 -389.5,684.97l-221.54 314.88c-73.56,99.77 -34.26,83.63 -96.28,162.29 -108.25,-12.85 -19.7,-14.98 -110.06,-53.81zm147.52 -720.84c17.23,-76.42 317.54,-414.27 394.57,-504.18l1339.28 -1581.27c104.41,-111.15 478.6,-537.86 504.73,-614.35 -49.38,-33.58 -67.17,-19.82 -73.64,-71.98 74.85,7.45 21.23,37.74 104.66,32.93 124.03,-7.15 445.69,-560.13 616.76,-625.54l-773.78 957.28c-32.59,35.97 -69.77,68.88 -97.92,103.72 -29.22,36.16 -14.26,20.2 -40.62,58.42 -2.38,3.43 -5.39,8.53 -7.81,11.9l-313.99 361.33c-77.27,90.02 -109.06,148.03 -173.52,222.82l-727.25 825.86c-124.47,138.95 -245.33,279.44 -365.14,410.84 -90.33,99.08 -300.74,373.79 -386.33,412.22zm-147.52 720.84c90.36,38.83 1.81,40.96 110.06,53.81 62.02,-78.66 22.72,-62.52 96.28,-162.29l221.54 -314.88c85.37,-175.01 282.84,-578.15 389.5,-684.97l136.81 -140.35c124.77,-94.8 49.91,-47.46 125,-135.86l942.04 -965.1c39.39,-39.75 88.43,-87.58 125,-133.15l403.63 -412.51c125.49,-130.97 558.04,-600.39 625.04,-707.77l395.58 -419.69c47.2,-40.71 101.69,-76.93 143.58,-114.85l152.88 -123.41c14.98,-17.85 76.39,-159.06 84.58,-188.47 31.12,-111.76 22.58,-130.65 108.79,-180.46 -44.36,-20.45 -55.42,-24.1 -85.17,-122.11 -11.83,-19.37 -1.64,-7.52 -23.63,-30.54 -0.93,-0.98 -27.25,-24.42 -29.7,-26.28 -441.56,-336.97 -435.33,-485.75 -646.16,-243.36 -73.78,84.82 -154.42,117.41 -141.33,278.1 48.03,41.39 190.62,141.1 217.23,195.74 -142.6,42.49 -151.79,-24.79 -331.84,183.72 -86.85,100.57 -162.64,183.67 -248.75,268.74l-476.23 538.14c-709,862.36 -1652.28,1854.62 -2382.81,2725.49 -83.4,99.42 -439.65,469.53 -451.28,557.3 49.73,40.1 517.49,301.06 539.36,305.01z"/>
  <path class="fil14" d="M5221.35 17561.22l-34.14 110.21c-101.67,-45.73 -9.47,-82.99 -108.35,-94.56 -21.33,133.73 31.38,171.93 85.64,237.28 2.83,3.4 9.19,18.51 11.28,14.85 2.19,-3.88 7.77,10.6 11.61,15.93 94.39,-10.27 227.2,14.92 314.06,-25.08 76.96,-35.42 119.61,-134.53 92.13,-262.02 -83.79,-9.68 -319.47,-13.69 -372.23,3.39z"/>
  <path class="fil15" d="M6599.32 14604.5c117.98,25.95 192.5,108.56 357.96,19.62 207.44,-111.49 70.75,-25.14 224.67,-235.3 52.29,-208.39 144.63,-331.24 16.67,-519.84 -20.83,-30.7 -6.18,-15.1 -35.45,-45.69 -28.31,-29.58 -21.21,-15.45 -42.48,-38.34 -36.7,-39.5 -23.35,-54.32 -81.62,-80.42 -356.88,-159.82 -677.33,249.62 -557.86,677.73 27.36,98.03 44.6,19.22 118.11,222.24z"/>
  <path class="fil16" d="M5003.16 10140.03c-37.9,20.87 -106.16,138.18 -128.39,176.61 -17.83,30.82 -30.9,61.23 -53.24,102.44 -46.85,86.43 -9.59,52.05 -71.21,70.8 -2.82,67.54 -98.2,252.78 -138.67,336.02l-64.51 85.16c-16.19,142.05 27.99,320.09 83.27,438.38 55.51,-55 32.35,-143.88 30.6,-243.96 -6.94,-395.1 263.38,-897.26 591.44,-1082.87 1.78,-6.37 6.85,-28.35 7,-31.79l-12.59 -26.87c-118.49,12.97 -191.02,85.29 -243.7,176.08z"/>
  <path class="fil17" d="M5578.25 18289.7c12.23,-65.74 -6.14,-32.11 35.04,-63.21 111.2,86.65 138.81,98.17 210.31,200.29l-179.03 4.33c-17.9,-26.24 -8.87,-10.28 -23.23,-50.77 -2.3,-6.46 -6.38,-27.85 -8.52,-33.97 -14.82,-42.29 -4.38,-25.97 -34.57,-56.67zm-341.99 90.37c117.53,114.9 481.09,94.17 623.35,76.54 -2.5,-105.71 -196.55,-238.87 -281.01,-259.97l-36.47 6.9 36.12 86.16c20.43,96.57 2.42,70.41 -20.65,95.87 -43.82,-77.5 -39.32,-91.98 -81.61,-91.85 -3.17,0.01 -21.74,6.45 -24.11,8.03l-18.84 -96.73c-5.42,-11.92 6.31,-9.6 -18.53,-32.33 -30.22,-27.64 -0.08,-4.11 -42.78,-28.13 45.63,96.67 28.38,143.95 28.3,256.8l-163.77 -21.29z"/>
  <path class="fil18" d="M5139.43 12342.7c88.23,-12.62 63.69,-36.41 146.39,-22.87l35.85 18.47c-83.93,83.32 -46.15,-22.12 -101.85,79.53l27.04 49.16c97.49,-8.84 11.99,-8.2 99.43,-66.38 93.75,100 139.38,68.84 75.57,190.63 67.15,-4.29 33.05,34.82 56.88,-64.26l30.13 -273.68 -343.74 67.61c-3.45,1.9 -10.61,14.54 -13.04,10.48 -2.45,-4.14 -8.64,7.32 -12.66,11.31z"/>
  <path class="fil19" d="M5433.04 18205.02l18.84 96.73c2.37,-1.58 20.94,-8.02 24.11,-8.03 42.29,-0.13 37.79,14.35 81.61,91.85 23.07,-25.46 41.08,0.7 20.65,-95.87l-36.12 -86.16 36.47 -6.9 -30.41 -30.76 -35.84 48.19 -79.31 -9.05z"/>
  <path class="fil20" d="M7015.62 17745.63c10.59,117.72 133.98,87.72 164.52,-1.74 -76.56,-10.42 -87.87,-34.46 -164.52,1.74z"/>
  <g>
   <path class="fil21" d="M13221.04 7112.3l44.11 77.09c-24.68,31 52.26,39.08 -56.11,17.97 -50.09,-66.93 -250.17,-325.54 -313.39,-360.27 -27.29,-129.38 -446.82,-382.7 -607.74,-452.58 -221.8,-96.3 -642.82,-199.62 -923.36,-124.58 -511.58,136.86 -959.88,650.67 -739.64,1295.32l111.74 180.88c115.89,281.21 591.75,428.21 1008.87,348.65 531.27,-101.31 721.57,-533.82 549.46,-681.56 -15.83,-100.56 -128.46,-209.46 -225.06,-265.41 -106.69,-61.8 -321.1,-47.2 -348.44,62.57 -28.99,22.45 -17.31,-4.67 -41.05,47.58 -32.17,70.8 8.04,148.52 24.39,205.87 -306.44,-100.32 53.76,-646.02 479.09,-332.25 81.2,59.91 213.34,213.46 236.61,361.13 14.01,88.93 -1.1,180.92 -34.27,252.44 -19.38,41.75 -46.62,62.71 -40.47,118.19 4.55,41.01 3.1,27.2 26.12,56.15 28.17,35.42 5.83,7.91 40.06,31.37 28.96,173.24 165.38,312.13 112.33,587.47 -55.98,290.56 -198.11,386.9 -237.39,480.01 35.21,62.95 491.18,426.27 539.26,444.5 60.96,97.06 731.85,553.01 776.75,571.31 121.83,-125.02 224,-189.62 338.04,-316.34 327.23,-363.55 476.04,-911.55 479.2,-1415.11 4,-636.81 -182.12,-983.55 -170.7,-1729.81 4.69,-307.14 49.78,-344.63 89.39,-576.19 16.16,-8.5 136.67,-166.69 162.68,-191.03 581.51,-544.18 1190.52,206.97 667.04,411.3 -335.71,131.04 -479.42,-180.86 -267.92,-268.73 -15.75,85.24 -58.46,173.25 54.34,206.3 82.96,24.32 188.94,4.9 220.39,-44.17 291.08,-146.25 -37.22,-550.43 -442.13,-371.78 -154.05,67.97 -186.82,217.18 -140.33,380.45 39.86,140.04 148.46,245.53 274.55,293.95 259.83,165.28 691.96,-27.28 831.49,-204.52 176.65,-224.36 137.59,-724.35 -84.46,-862.58 -18.38,-41.23 -1.85,-15.82 -37.79,-54.22 -238.5,-254.93 -678.63,-375.25 -1023.59,-330.19 -361.39,47.21 -777.57,398.23 -822.46,623.95 -43.86,37.27 -32.18,19.21 -60.11,82.3 -14.35,32.42 -27.3,74.08 -38.63,105.54 -23.48,65.26 -54.31,132.16 -45.51,200.72l-65.51 278.75c-26.37,72.22 -5.9,34.57 -58.32,79.84 -6.6,-347.34 43.44,-533.63 196.78,-813.12 32.62,-59.45 97.24,-132.47 117.11,-198.24 -129.95,11.53 -322.52,90.08 -470.69,125.29 -143.98,34.21 -361.84,65.54 -522.71,56.74 -547.73,-29.94 -604.71,-214.7 -803.83,-351.42 -57.18,328.02 -232.88,489.8 -540.71,577.51 -591.87,168.65 -1368.7,-171.93 -1413.76,-707.56 -14.15,-168.19 61.75,-303.42 140.55,-409.04 130.67,-175.15 242.06,-153.64 277.52,-270.6 -217.21,-102.98 -269.05,-100.01 -446.33,-271.17 -143.08,-138.12 -197.28,-250.4 -280.74,-437.09 -77.71,-173.78 -92.35,-407.28 -42.98,-609.9 50.46,-207.08 171.99,-313.05 259.91,-446.64 129.98,-39.9 132.13,-152.01 532.79,-231.6 -26.28,-36.86 -229.54,-150.32 -314.28,-238.09 -403.19,-417.64 -223.6,-979.17 99.9,-1133.1 788.26,-375.09 1337.01,682.09 643.14,831.38 -207.16,4.84 -201.92,12.65 -374.35,-48.63 20.94,-20.28 8.2,-49.4 125.46,-26.91 268.95,51.63 516.24,-78.26 482.11,-323.89 -8.06,-57.99 -19.24,-67.13 -46.48,-95.41 -38.86,-287.68 -586.67,-469.72 -893.12,-197.44 -207.1,184.05 -277.64,638.81 53.2,963.62 208.67,204.89 645.53,387.64 1028.02,238.08 272.16,-106.41 532.82,-473.25 560.97,-811.53 137.35,-1372.74 -1741.4,-1635.44 -2364.73,-1051.17 -146.3,137.1 -439.51,591.44 -428.52,901.8 -69.01,165.04 -36.87,429.89 3.69,606.03 102.04,442.98 348.35,427.21 296.57,1052.75 -8.16,98.44 -28.33,180.28 -65.78,265.28 -28.93,65.68 -94.73,190.72 -98.46,230.13 -62.91,40.25 -96.91,112.39 -190.46,199.3 -231.68,215.22 -546.83,226.48 -872.07,230.53 -253.72,3.17 -404.79,-79.82 -538.89,-208.19 -100.33,-96.05 -149.7,-255.68 -26.94,-386.02l74.89 -71.47c2.83,-2.88 9.57,-4.92 11.63,-12.83 2.1,-8.08 8.05,-8.61 11.71,-13.23 51.9,6.22 197.42,11.75 250.76,13.55 -8.81,71.02 22.39,24.08 -21.7,57.56 -86.56,-13.53 -186.04,-36.32 -221.44,52.22 -79.77,24.51 -161.23,182.78 35.83,346.4 81.91,68.01 255.33,160.78 402.79,148.14 331.97,-28.43 422.92,-579.27 230.29,-709.19 -30.37,-115.29 -278.91,-243.05 -427.64,-299.02 -945.39,-355.78 -1406.12,376.11 -1402.31,599.4 -34.58,31.78 -1.24,-26.32 -35.52,47.34 -8.94,19.23 -9.86,26.16 -14.39,47.59 -9.61,45.52 -9.1,63.96 -8.18,103.93l-32.09 93.91c-52.58,434.12 182.34,786.28 593.24,940.49 216.18,81.14 458.27,131.78 706.32,56.56 144.91,-43.92 451.8,-200.79 522.02,-294.05 191.14,-62.34 491.79,-336.09 865.86,-225.26 386.76,114.58 475.15,364.48 590.86,524.28 34.59,223.41 71.1,349.22 -75.81,510.07 -207.95,227.68 -650.67,258.38 -864.3,29.77 -147.23,-157.58 -99.68,-266.38 -38.65,-469.98 70.23,-56.2 117.22,-115.64 282.46,-86.1 88.64,15.84 190.31,68.44 170.16,189.89l-24.92 56.01c-10.42,-104.7 -2.74,-131.35 -107.6,-155.07 -320.64,-72.5 -347.65,198.73 -238.64,387.92 170.13,165.56 412.03,222.42 652.38,75.47 86.3,-52.76 169.29,-137.14 193.19,-254.81 24.35,-119.9 -8.64,-282.43 -91.35,-330.93 -10.65,-154.24 -361.74,-400.37 -588.89,-421.59 -483.75,-45.2 -745.05,489.8 -1432.92,568.12 -405.76,46.22 -472.07,3.33 -778.38,210.3 -350.23,236.63 -838,582.85 -951.65,1063.05 -66.23,279.82 -78.64,596.56 58.24,852.59 97.56,182.5 319.49,445.81 487.56,499.14 10.24,33.54 -17.57,25.35 35.88,21.32 31.08,42.83 6.81,20.31 58.03,49.55 1.89,1.09 51.69,22.06 56.73,23.98 716.49,272.02 1135.43,-374.21 1078.06,-541.86 -116.62,-340.69 -63.83,-408.58 -98.54,-525.62l-14.72 -28.35c-1.49,-47.36 20,-20.3 -33.88,-44.4 -56.66,-169.99 -616.44,-394.61 -736.57,-165.73 -321.93,204.22 254.52,620.63 354.78,334.65 50.39,-30.56 3.87,5.93 48.71,-41.25l31.95 -38.87c2.01,-8.45 7.09,-9.82 11.4,-14.03 24.03,473.96 -735.42,239.9 -591.85,-179.55 42.36,-123.75 139.42,-156.92 197.56,-201.59l17.94 -17.71c218.6,6.38 179.95,-56.41 421.16,40.52 129.97,52.23 242.01,162.59 309.13,185.96 41.34,-44.17 78.07,-178.28 140.64,-252.76 85.73,-102 167.58,-130.9 218.09,-190.65 68.92,-1.43 185.68,-58.45 297.83,-67.2 127.79,-9.96 223.15,13.85 324.7,48.5 349.5,119.28 342.11,277.17 386.96,326.15 20.89,224.35 -94.07,453.66 -353.84,450.46 -312.95,-3.85 -414.58,-320.87 -232.6,-394.48 -21.85,162.5 -24.66,224.17 112.96,279.88 142.33,98.75 294.7,-22.05 350.83,-104.51 37.14,-54.58 56.67,-119.38 38.44,-207.2 -14.93,-71.83 -55.84,-110.31 -103.9,-138.79 -69.76,-133.79 -621.6,-341.93 -958.86,37.55 -133.7,150.42 -146.84,287.97 -134.1,554.53 6.93,144.65 89.19,442.4 169.42,496.68 102.97,272.58 688.72,469.9 1064.9,372.22 977.87,-253.94 486.83,-1475.33 1110.14,-1819.11 226.61,-124.98 943.27,-152.11 892.49,452.69 -53.83,56.44 -40.71,102.29 -131.46,130.32 -93.36,28.82 -154.56,-12.62 -228.18,8.84 -35.12,-50.62 -62.12,-65.95 -68,-147.07 339.44,152.18 229.99,-249.48 -48.53,-190.19 -104.08,22.16 -149.26,91.03 -147.73,217.76 0.65,54.08 10.28,115.06 27.99,157.1 5.85,13.91 23.87,45.62 38.59,60.87 44.14,45.69 0.69,10.33 56.85,42.48 117.3,98.38 241.58,145.5 417.8,93.79 127.25,-45.4 177.99,-188.49 516.58,-318.26 233.37,-89.43 452.67,-74.94 711.09,-30.29 613.58,106.02 957.98,531.44 1030.87,569.48 26.31,82.23 184.92,216.52 247.03,342.06zm1599.17 -4130.69l-20.89 -76.26c47.12,-23.36 553.31,-143.66 630.08,-154.91 157.14,-23.04 142.21,-42.62 224.1,-145.93 50.85,-64.12 127.74,-178.17 153.99,-265.73 43.63,-26.27 103.15,-230.57 117.53,-295.57 26.29,-118.78 32.03,-288.51 26.64,-420.84 -9.33,-229.05 -128.75,-524.1 -264.82,-625.8 11.89,124.73 7.89,26.62 82.47,123.95 25.28,33.01 49.49,97.13 56.19,142.83 -164.25,-7.55 -142.93,-112.64 -506.69,-236.79l-133.56 -50.86c-3.8,-2.06 -8.38,-5.44 -12.16,-7.42 -74.56,-39.17 -122.47,-35.7 -206.95,-66.98 -210.9,-78.14 -938.29,-58.3 -1182.2,39.44 -215.55,86.38 -15.06,-11.52 -234.92,119.12l-103.98 55.72c-56.39,41.21 -208.95,253.27 -231.45,311.32 -18.66,48.14 -24.92,125.7 -72.2,166.09 -89.01,-87.46 -0.28,-261.87 5.09,-373.28 -122.2,151.07 -33.34,769.78 86.62,989.12 131.84,241.06 388.53,420.32 625.52,522.38 374.3,161.19 1047.3,133.38 1238.83,-287.67 57.89,-127.25 67.94,-362.75 -37.45,-457.32 13.01,106.52 84.79,219.33 17.83,322.37 -51.98,-129.75 -49.18,-397.09 -358.25,-566.93 -124.49,-68.41 -353.05,-104.63 -522.54,-90.72 -198.07,16.25 -221.65,99.58 -300,237.24l-10.44 -122.89c-24.91,27.4 -14.66,-14.85 -28.55,59.04 -15.1,80.37 25.73,155.93 84.32,210.76 60.75,56.87 182.12,104.97 273.24,96.57l178.64 -12.8c106.56,-141.29 -8.67,-119.42 119.25,-143.63 117.13,324.69 -323.71,327.39 -548.89,270.26 -99.79,-25.31 -182.73,-148.46 -205.54,-245.65 -37.57,-160.04 -39.22,-325.82 100.3,-388.46 172.1,-99.67 273.75,-237.55 699.54,-149.12 120.78,25.1 214.62,79.53 309.81,143.15 79.65,53.23 187.98,202.21 216.17,216.5 59.78,162.2 235.22,390.09 69.76,697.66 -111.15,206.6 -281.98,287.88 -540.42,340.11 -269.46,54.44 -501.58,61.92 -748.01,-35.54l-415.99 -236.6c-54.29,-40.61 -61.33,-73.51 -129.87,-80.02 -181.46,363.9 -623.12,608.1 -1150.89,444.13 -218.55,-67.9 -426.99,-157.07 -473.76,-380.58 -69.94,-334.15 163.03,-427.17 451.31,-414.95 131.31,39.86 267.76,58.85 269.29,242.29 1.23,147.3 -143.38,302.22 -288,198.72 82.56,-43.5 86.78,14.07 162.33,-75.54 275.21,-326.45 -660.39,-475.73 -507.36,44.4 96.41,327.58 951.13,576.07 1374.31,47.69 75.83,-94.67 124.46,-161.75 80.87,-252.94 -37.21,-77.89 -37.98,-61.33 -77.08,-79.54 0.92,-30.66 -81.58,-248.32 -102.72,-316.36 -40.29,-129.68 -97.64,-187.19 -207.44,-249.85 -158.78,-90.6 -597.86,-151.18 -773.16,-60.81 -120.11,29.19 -199.02,72.63 -244.03,169.57 -47.88,103.15 -88.42,175.79 -155.52,265.12 -204.08,271.67 -365.13,263.53 -486.87,349.21l206.75 210.56c0.91,137.82 48.51,300.75 -16.9,437.22 -131.98,275.39 -497.4,207.86 -647.83,89.71 -122.22,-95.99 -112.26,-174.16 -69.61,-347.71 61.17,-90.58 89.22,-109.96 251.5,-123.91l63.98 65.1c42.26,46.63 18.18,9.63 39.72,76.89 -93.98,-25.09 -28.01,-20.56 -124.81,-46.93 -189.96,-33.85 -271.43,236.16 -38.96,352.94 207.1,104.03 418.7,39.03 461.55,-167.77 84.32,-39.1 64.74,-497.74 -442.25,-535.95 -200.31,-15.1 -235.29,-68.91 -475.81,-6.93 -1020.07,262.9 -652.3,1405.42 -319.05,1575.83 49.75,79.65 134.08,126.94 217.08,170.31 441.45,230.73 1037.99,103.28 1441.42,-149.97 207.08,-130.01 503.99,-785.66 1539.7,-585.95 331.16,63.85 771.56,217.11 850.69,577.51 10.24,334.81 -62.88,451.44 -305.65,563.22 -129.35,59.56 -201.26,74.21 -364.42,67.33 -164.97,-6.97 -216.72,-57.37 -350.03,-94.75 -49.73,-75.65 -194.73,-153.47 -140.89,-351.09 33.61,-123.41 140,-187.95 301.86,-217.92 13.68,31.92 1.89,19.89 20.18,56.75 -130.05,17.79 -193.81,76.69 -247.74,178.77 32.89,137.91 -6.91,155.25 110.21,242.66 73.2,54.63 142.7,85.26 266.49,96.44 269.54,24.34 405.25,-45.75 563.4,-193.29l53.92 -110.11c-2.62,-3.85 -5.87,-8.32 -8.4,-11.9 119.92,-455 -408.02,-678.66 -803.98,-725.69 -273.83,-32.54 -546.45,-39.85 -789.65,52.73 -164.95,62.78 -439.08,246.95 -456.51,387.45 -54.85,35.26 -48.25,26.48 -89.7,138.74 -20.77,56.23 -39.44,104.79 -49.86,164.25 -22.49,128.22 -18.94,278.21 12.57,386.76 68.48,235.96 159.32,413 311.06,546.42 392.56,345.18 1206.5,194.45 1337.76,100.13 354.84,-41.6 500.39,-238.34 751.98,-342.72 354.89,-147.23 550.48,-103.98 900.36,-23.68 -12.89,-61.71 -159.19,-245.9 -202.99,-351.31 -79.55,-191.42 -57.83,-279.33 -51.54,-496.36 47.32,-414.5 523.06,-748.77 988.55,-688.06 232.9,30.37 451.59,150.69 565.05,279.01 66.47,75.18 112.56,166.67 153.89,262.79 74.69,173.64 17.48,188.65 16.52,343.16 -48.31,44.47 -1.77,-5.67 -43.85,50.88 -14.29,19.19 -19.69,31.64 -32.77,49.62 -62.51,86.05 -142.51,135.53 -255.71,184.41 -469.26,202.66 -963.15,-169.59 -701.77,-563.31 63.61,-95.83 94.01,-62.13 150.69,-142.04 169.15,4.97 267.11,-74.02 383.54,80.64 17,149.64 -42.13,210 -176.8,217 55.42,-63.77 107.71,-49.71 122.01,-157.36 -84.53,-167.62 -338.32,-52.84 -405.75,34.36 -113.42,146.61 -56.36,330.79 55.9,411.13 270.39,193.53 669.61,61.4 793.81,-180.39 118.04,-229.78 -52.45,-560.44 -376.12,-710.73 -621.07,-288.39 -1361.11,242.6 -1127.71,950.63 227.71,690.72 1452.77,958.57 1963.65,617.11 92.2,-61.64 248.92,-188.56 293.99,-292.61 48.71,-38.81 96.61,-131.96 128.23,-195.56 112.02,-225.35 222.74,-497.41 163.81,-780.84 -128.94,-620.18 -978.47,-973.35 -1556.16,-1051.28 -463.7,-62.55 -748.16,79.38 -1129.86,157.89l-50.17 13.3zm-604.6 -849.95c49.64,38.87 94.07,18.86 154.81,31.12 51.27,10.35 18.83,-3.02 45.34,16.86 -157.1,97.01 -424.07,9.35 -521.68,-76.52 -201.98,-177.68 -110.08,-314.32 -34.71,-491.74 -139.52,62.64 -137.87,228.42 -100.3,388.46 22.81,97.19 105.75,220.34 205.54,245.65 225.18,57.13 666.02,54.43 548.89,-270.26 -127.92,24.21 -12.69,2.34 -119.25,143.63l-178.64 12.8zm-1069.13 -911.95c-5.37,111.41 -94.1,285.82 -5.09,373.28 47.28,-40.39 53.54,-117.95 72.2,-166.09 22.5,-58.05 175.06,-270.11 231.45,-311.32l103.98 -55.72c219.86,-130.64 19.37,-32.74 234.92,-119.12 243.91,-97.74 971.3,-117.58 1182.2,-39.44 84.48,31.28 132.39,27.81 206.95,66.98 3.78,1.98 8.36,5.36 12.16,7.42l133.56 50.86c363.76,124.15 342.44,229.24 506.69,236.79 -6.7,-45.7 -30.91,-109.82 -56.19,-142.83 -74.58,-97.33 -70.58,0.78 -82.47,-123.95 -74.88,-139.2 -381.35,-323.37 -558.4,-406.6 -492.92,-231.72 -1085.94,-235.46 -1562.6,64.41 -158.18,99.51 -450.77,366.57 -419.36,565.33zm740.12 545.58l10.44 122.89c78.35,-137.66 101.93,-220.99 300,-237.24 169.49,-13.91 398.05,22.31 522.54,90.72 309.07,169.84 306.27,437.18 358.25,566.93 66.96,-103.04 -4.82,-215.85 -17.83,-322.37 -15.04,-159.47 -303.29,-395.77 -486.68,-436.93 -134.25,-30.12 -308.07,-42.99 -441.82,-5.74 -104.4,29.09 -238.04,114.07 -244.9,221.74zm-8003.5 7517.54c-6.79,-68.95 8.35,-150.39 2.21,-224.86 -8.17,-99.05 -35.99,-117.73 -60.17,-192.85 -24.99,-91.72 -56.41,-127.77 -160.43,-164.75 -11.9,-75.73 -16.24,-85.73 -67.2,-119.48 -34.73,-53.59 -38.14,-54.87 -112.03,-70.42 -68.47,60.45 -59.28,51.79 -66.56,146.09 -6.15,79.49 -18.49,96.3 35.6,158.35 24.36,255.41 222.85,299.58 55.92,616.59 -20.43,16.02 -15.76,11.08 -35.72,33.39 -7.9,8.85 -28.59,35.78 -35.19,46.39 -27.2,43.69 -32.41,75.31 -45.22,116.83 -87.44,1.32 -75.6,24.86 -128.1,66.25 -144.4,120.67 -114.11,22.62 -176.62,109.4 -67.52,20.82 -206.91,126.93 -270.32,198.52 -76.4,86.27 -139.04,168.69 -193.28,276.06 -74.15,110.27 -30.19,110.56 -57.69,228.91l-8.3 33.16 -12.56 253.29c23.73,-25.79 53.52,-108.9 85.99,-160.07 13.3,-20.96 31.11,-42.21 52.16,-69.95l64.73 -73.8c61.62,-18.75 24.36,15.63 71.21,-70.81 22.34,-41.2 35.42,-71.61 53.25,-102.43 22.22,-38.43 90.48,-155.74 128.38,-176.61 52.68,-90.79 125.21,-163.11 243.7,-176.08l12.59 26.86c-0.14,3.45 -5.22,25.42 -7,31.79 49.25,-33.86 39.98,-37.36 91.51,-69.91l-6.16 -67.68c46.12,-4.58 90.73,-49.94 108.72,-69.53 133.38,-1.82 208.19,-112.98 277.97,-200.29 62.24,-77.87 140.06,-200.84 158.61,-332.36zm-328.87 623.75c-108.48,55.89 -303.67,207.46 -394.23,297.18 -93.4,92.53 -269.84,250.92 -279.26,452.07 46.96,-24.11 11.79,-3.37 44.46,-27.44l115.33 -106.78c55.68,-48.72 113.22,-84.2 161.24,-132.07 160.98,-117.98 127.88,-41.4 220.8,-101.82 106.66,-69.33 -40.22,-18.35 155.16,-87.11 53.11,-18.7 23.73,4.21 65.05,-40.03 111.51,-21.7 207.44,-117.17 273.04,-202.88 32.09,-10.23 33.65,-16.56 59.55,-32.37 89.58,-54.69 128.51,-94.03 188.93,-188.95 161.32,-253.47 201.69,-546.28 126.11,-847.03 -15.93,-63.39 -40.47,-135.63 -67.02,-191.36 -40.35,-84.73 -59.16,-96.61 -137.56,-122.82l-35.25 -71.22c-61.94,-84.84 -59.49,-28.3 -148.75,-90.54 -91.42,-89.76 -270.26,-58.15 -360.23,2.83 53.95,92.49 93.39,28.81 261.93,265.11 407.57,571.43 -9.11,873.14 -101.74,1139.32 -115.61,43.29 -85.35,5.69 -147.56,85.91zm4895.6 -5415.6c-101.86,24.14 -245.1,195.23 -284.82,276.83 -332.69,683.17 982.41,1251.61 1577.68,704.42 243.3,-223.65 165.12,-623.61 -152.26,-687.02 -179.92,-38.04 -357.79,19.82 -439.29,162.16 -93.13,104.45 -33.02,202.54 24.85,265.41 35.03,5.72 63.1,2.66 77.65,4.8 81.12,12 42.99,6.73 67.33,23.57 -215.21,144.77 -274.8,-66.55 -263.84,-289.77l-13.72 -11.01c62.64,-52.07 218.05,-318.24 562.63,-235.53 67.4,16.17 123.92,59.05 174.22,68.84 2.33,-88.38 -44.1,-181.18 -42.68,-327.71 1.4,-143.64 44.49,-234.75 42.01,-327.66 -296.16,144.34 -665.19,296.02 -1026.17,277.47 -65.56,-3.37 -217.61,-49.46 -303.59,95.2zm-3068.45 2507.22c1.66,-2.52 3.26,-5.03 4.83,-7.52 -1.57,2.5 -3.17,5 -4.83,7.52zm19.97 -33.53c1.33,-2.47 2.62,-4.95 3.86,-7.4 -1.24,2.45 -2.53,4.93 -3.86,7.4zm18.31 -39.82c1.83,-4.74 3.53,-9.46 5.11,-14.15 -1.58,4.69 -3.28,9.41 -5.11,14.15zm13.58 -344.94l0.02 -0.85 0 0.02 -0.12 0.87 0.12 -0.89 -0.02 0.85zm3.65 -59.9l0.04 0.66 0 0.01 -0.04 -0.67zm-3.63 59.07l-0.02 0.83 0.02 -0.83zm-1985.59 2535.87c-14.78,-161.15 -110.73,-250.92 -112.8,-434.67 -1.43,-126.98 94.21,-296.3 176.36,-351.94 258.75,-175.26 604.26,70.09 709.9,213.14 146.86,198.85 215.67,537.03 167.74,837.62 -34.61,217.02 -118.64,373.93 -246.75,534.45l-96.51 102.17c-36.58,44.08 -11.66,5.66 -36.42,56.16 74.37,-21.22 24.78,6 84.85,-46.29 399.04,-347.36 478.15,-1097.58 148.04,-1523.29 -123.34,-159.06 -503.1,-402.69 -774.75,-197.66 -188.6,142.36 -197.98,400.62 -122.67,611.29 53.01,148.29 37.31,151 103.01,199.02z"/>
  </g>
  <path class="fil12" d="M4772 19385.27l-310.46 -190.88 -492.49 -273.83c-19.84,-16.45 -18.23,-16.66 -33.12,-32.57 -42.44,-8.49 -685.46,-358.51 -737.91,-406.34 -141.89,-129.41 -340.95,-492.35 -439.82,-714.77 -243.4,-547.55 -326.42,-1353.57 -138.6,-1911.73 1.72,-5.11 3.55,-10.56 5.38,-15.47l20.61 -45.33c-13.2,-185.85 294.56,-702.36 388.67,-838.59 171.29,-247.97 385.92,-473.25 587.77,-642.92 757.5,-636.77 1836.46,-966.64 2849.96,-826.78 191.87,26.48 326.61,34.55 514.66,92.21 637.74,195.51 326.68,100.25 884.41,351.87 305.66,137.89 918.71,621.09 1019.24,845.09 126.85,77.16 568.77,898.63 560.87,1128.45 116.41,104.73 123.6,860.33 106.61,990.1 -153.58,1173.62 -923.85,2144.11 -2011.33,2591.02 -626.46,257.46 -1299.34,359.13 -2000.57,275.31 -223.74,-26.74 -566.84,-273.42 -773.88,-374.84zm307.71 -6555.18l248.46 -39.14c35.53,79.57 65.53,207.34 57.35,322.66 -53.78,33.81 -217.41,73.92 -281.61,63.77 -24.2,-92.1 -48.29,-255.68 -24.2,-347.29zm342.15 -238.85c-15.7,15.63 -6.31,15.7 -47.29,31l-222.55 37.2c-73.13,16.5 -200.42,46.35 -282.98,50.31 -49.6,-59.63 -125.9,-173.59 -137.31,-272.06l375.84 -98.27 31.86 3.28c4.02,-3.99 10.21,-15.45 12.66,-11.31 2.43,4.06 9.59,-8.58 13.04,-10.48l343.74 -67.61 -30.13 273.68c-23.83,99.08 10.27,59.97 -56.88,64.26zm-672.13 -525.69c68.4,5.47 166.45,102.99 175.24,167.36l-162.58 22.53c-20.13,-74.89 -44.84,-124.2 -12.66,-189.89zm444.1 86.94l-4.23 -191.62c88.8,0.92 142.15,57.85 167.22,138.87l-162.99 52.75zm-125.94 -184.57c106.59,0.01 83.13,44.1 68.55,143.28 -28.69,-11.78 -56.35,0.89 -75.62,-59.98 -10.33,-32.7 -1.6,-60.37 7.07,-83.3zm-236.09 -47.11c7.68,-4.01 18.7,-43.89 112.65,3.38 76.26,38.37 51.94,22.89 62.06,76.15 -42.97,19.57 -17.31,11.16 -82.98,-3.21 -117.82,-25.78 -67.23,48.3 -91.73,-76.32zm7422.04 -2697.62c80.68,48.92 1194.03,970.2 1214.21,1003.32 101.8,32.33 134.13,86.87 208.89,145.71 318.62,250.8 186.87,201.53 -64.59,542.71 -96.6,-0.28 -112.45,-1.44 -169,-50.49 -69.04,-59.88 -53.47,-72.84 -151.52,-85.76 -9.46,234.96 -29.05,220.09 -151.71,366.13 -90.07,107.22 -169.84,195.38 -250.55,284.73l-1478.7 1683.33c-172.3,191.36 -343.16,391.24 -492.96,561.66 -162.27,184.61 -1395.44,1646.35 -1475.21,1674.36 -98.98,-140.06 -328.05,-701.91 -636.24,-885.44 -0.87,-98.53 -293.95,-320.81 -377.22,-376.27 -74.68,-49.76 -102.82,-39.48 -150.54,-111.93 -21.87,-3.95 -489.62,-264.91 -539.37,-305 11.64,-87.78 367.89,-457.89 451.29,-557.31 730.53,-870.87 1673.81,-1863.14 2382.81,-2725.48l476.23 -538.14c86.1,-85.08 161.91,-168.18 248.75,-268.75 180.05,-208.51 189.24,-141.23 331.84,-183.72 -26.61,-54.64 -169.2,-154.35 -217.23,-195.74 -13.09,-160.69 67.55,-193.29 141.33,-278.1 210.84,-242.38 204.6,-93.61 646.16,243.36 2.45,1.86 28.77,25.3 29.7,26.28 21.99,23.02 11.8,11.17 23.63,30.54zm-1210.43 -4282.82l13.72 11.01c-10.97,223.22 48.63,434.54 263.84,289.77 -24.34,-16.85 13.79,-11.57 -67.33,-23.57 -14.56,-2.14 -42.61,0.92 -77.65,-4.8 -57.87,-62.87 -117.99,-160.96 -24.84,-265.42 81.49,-142.33 259.36,-200.19 439.28,-162.15 317.38,63.42 395.56,463.38 152.26,687.02 -595.27,547.19 -1910.37,-21.25 -1577.69,-704.43 39.73,-81.59 182.97,-252.69 284.83,-276.82 85.98,-144.66 238.03,-98.57 303.6,-95.2 360.97,18.55 730,-133.13 1026.16,-277.47 2.48,92.91 -40.61,184.02 -42.01,327.66 -1.42,146.52 45.01,239.33 42.68,327.71 -50.31,-9.78 -106.82,-52.67 -174.22,-68.84 -344.58,-82.71 -499.98,183.46 -562.63,235.53zm2815.95 -3328.99c-75.36,177.42 -167.26,314.06 34.72,491.74 97.61,85.87 364.58,173.54 521.68,76.53 -26.51,-19.89 5.93,-6.52 -45.34,-16.87 -60.74,-12.27 -105.17,7.74 -154.81,-31.13 -91.11,8.42 -212.49,-39.68 -273.25,-96.57 -58.58,-54.82 -99.41,-130.38 -84.31,-210.76 13.89,-73.88 3.64,-31.63 28.55,-59.02 6.86,-107.68 140.49,-192.67 244.9,-221.75 133.75,-37.25 307.58,-24.38 441.82,5.74 183.39,41.16 471.64,277.46 486.68,436.93 105.39,94.57 95.33,330.06 37.45,457.32 -191.53,421.05 -864.53,448.86 -1238.83,287.67 -237,-102.06 -493.68,-281.32 -625.52,-522.38 -119.96,-219.34 -208.83,-838.04 -86.63,-989.12 -31.41,-198.76 261.19,-465.82 419.37,-565.33 476.66,-299.87 1069.69,-296.12 1562.6,-64.41 177.05,83.24 483.53,267.4 558.4,406.6 136.07,101.7 255.49,396.75 264.83,625.81 5.38,132.32 -0.36,302.05 -26.65,420.84 -14.38,64.98 -73.9,269.29 -117.54,295.56 -26.24,87.56 -103.13,201.6 -153.97,265.73 -81.9,103.31 -66.96,122.89 -224.11,145.92 -76.77,11.26 -582.97,131.56 -630.07,154.93l20.87 76.25 50.18 -13.3c381.7,-78.51 666.15,-220.44 1129.85,-157.88 577.7,77.92 1427.23,431.08 1556.17,1051.27 58.93,283.43 -51.8,555.48 -163.81,780.84 -31.62,63.61 -79.52,156.75 -128.24,195.56 -45.06,104.05 -201.78,230.98 -293.98,292.61 -510.88,341.46 -1735.94,73.61 -1963.65,-617.12 -233.4,-708.02 506.64,-1239.01 1127.7,-950.62 323.68,150.29 494.17,480.95 376.13,710.73 -124.2,241.79 -523.42,373.92 -793.81,180.39 -112.27,-80.34 -169.32,-264.52 -55.9,-411.14 67.43,-87.19 321.22,-201.97 405.75,-34.35 -14.3,107.66 -66.59,93.59 -122.01,157.36 134.66,-7 193.8,-67.36 176.8,-216.99 -116.43,-154.67 -214.39,-75.68 -383.54,-80.66 -56.68,79.92 -87.08,46.22 -150.69,142.04 -261.38,393.73 232.51,765.98 701.77,563.32 113.2,-48.88 193.2,-98.36 255.71,-184.41 13.08,-17.99 18.48,-30.43 32.77,-49.62 42.08,-56.55 -4.46,-6.41 43.85,-50.88 0.96,-154.5 58.17,-169.52 -16.52,-343.16 -41.34,-96.12 -87.42,-187.61 -153.89,-262.78 -113.46,-128.33 -332.15,-248.65 -565.06,-279.02 -465.48,-60.71 -941.22,273.55 -988.54,688.06 -6.29,217.03 -28,304.93 51.53,496.36 43.81,105.41 190.11,289.6 203,351.31 -349.89,-80.3 -545.48,-123.55 -900.36,23.68 -251.59,104.38 -397.14,301.12 -751.98,342.72 -131.26,94.32 -945.2,245.04 -1337.76,-100.13 -151.74,-133.42 -242.58,-310.47 -311.06,-546.42 -31.51,-108.55 -35.06,-258.54 -12.57,-386.76 10.42,-59.46 29.09,-108.02 49.86,-164.25 41.45,-112.26 34.85,-103.48 89.7,-138.73 17.43,-140.51 291.56,-324.68 456.51,-387.46 243.2,-92.58 515.82,-85.27 789.65,-52.73 429.87,51.06 1015.32,310.28 758.46,847.7 -158.15,147.54 -293.86,217.63 -563.4,193.29 -123.79,-11.18 -193.29,-41.81 -266.49,-96.44 -117.12,-87.41 -77.32,-104.75 -110.21,-242.66 53.93,-102.08 117.69,-160.98 247.74,-178.76 -18.3,-36.87 -6.5,-24.84 -20.18,-56.76 -161.87,29.96 -268.24,94.51 -301.86,217.91 -53.84,197.64 91.16,275.45 140.89,351.1 133.31,37.37 185.06,87.78 350.03,94.75 163.16,6.88 235.07,-7.77 364.42,-67.33 242.76,-111.78 315.88,-228.41 305.65,-563.22 -79.12,-360.39 -519.53,-513.66 -850.69,-577.51 -1035.7,-199.71 -1332.61,455.94 -1539.7,585.95 -403.43,253.25 -999.97,380.69 -1441.42,149.97 -83,-43.37 -167.32,-90.66 -217.08,-170.31 -333.26,-170.4 -701.02,-1312.94 319.05,-1575.83 240.52,-61.97 275.5,-8.17 475.81,6.93 506.99,38.21 526.57,496.85 442.25,535.95 -42.85,206.8 -254.45,271.8 -461.55,167.77 -232.47,-116.78 -151,-386.8 38.96,-352.94 96.8,26.37 30.83,21.84 124.81,46.93 -21.54,-67.25 2.54,-30.26 -39.72,-76.89l-63.98 -65.1c-162.28,13.95 -190.33,33.33 -251.49,123.91 -42.66,173.55 -52.62,251.72 69.6,347.71 150.43,118.15 515.84,185.68 647.83,-89.71 65.4,-136.47 17.8,-299.4 16.9,-437.23l-206.75 -210.55c121.74,-85.68 282.79,-77.54 486.87,-349.21 67.09,-89.32 107.64,-161.98 155.52,-265.12 45.01,-96.94 123.92,-140.38 244.04,-169.57 175.29,-90.37 614.37,-29.79 773.15,60.81 109.8,62.66 167.15,120.17 207.44,249.85 21.14,68.04 103.64,285.7 102.72,316.36 39.1,18.21 39.87,1.65 77.08,79.54 43.59,91.19 -5.04,158.27 -80.87,252.95 -423.17,528.36 -1277.91,279.88 -1374.3,-47.7 -153.04,-520.13 782.56,-370.85 507.35,-44.41 -75.56,89.62 -79.77,32.05 -162.33,75.55 144.62,103.5 289.23,-51.42 288,-198.73 -1.53,-183.43 -137.98,-202.42 -269.29,-242.28 -288.28,-12.22 -521.25,80.8 -451.32,414.95 46.78,223.51 255.22,312.68 473.77,380.59 527.77,163.96 969.44,-80.24 1150.89,-444.13 68.53,6.5 75.59,39.4 129.87,80.01l415.99 236.6c246.43,97.47 478.55,89.98 748.01,35.54 258.44,-52.23 429.28,-133.5 540.42,-340.12 165.46,-307.56 -9.98,-535.45 -69.77,-697.65 -28.19,-14.29 -136.51,-163.27 -216.16,-216.51 -95.18,-63.61 -189.04,-118.05 -309.8,-143.14 -425.8,-88.42 -527.45,49.45 -699.56,149.12zm-3926.67 965.96c-87.93,133.59 -209.45,239.56 -259.91,446.64 -49.37,202.62 -34.72,436.12 42.98,609.9 83.46,186.69 137.66,298.97 280.74,437.09 177.28,171.16 229.12,168.18 446.34,271.17 -35.47,116.96 -146.85,95.44 -277.53,270.6 -78.8,105.62 -154.7,240.85 -140.54,409.04 45.05,535.63 821.88,876.21 1413.75,707.56 307.83,-87.71 483.53,-249.49 540.71,-577.51 199.12,136.71 256.1,321.48 803.83,351.42 160.87,8.79 378.73,-22.53 522.71,-56.73 148.17,-35.21 340.74,-113.77 470.69,-125.3 -19.86,65.77 -84.48,138.79 -117.11,198.24 -153.34,279.49 -203.38,465.78 -196.78,813.12 52.42,-45.27 31.95,-7.61 58.32,-79.84l65.51 -278.75c-8.8,-68.56 22.02,-135.46 45.51,-200.72 11.33,-31.46 24.28,-73.12 38.64,-105.53 27.92,-63.1 16.25,-45.04 60.1,-82.31 44.89,-225.73 461.06,-576.74 822.46,-623.95 344.95,-45.06 785.09,75.25 1023.59,330.19 35.94,38.4 19.41,12.99 37.79,54.22 222.05,138.23 261.11,638.22 84.46,862.58 -139.53,177.24 -571.66,369.8 -831.49,204.52 -126.09,-48.42 -234.69,-153.91 -274.55,-293.95 -46.48,-163.27 -13.73,-312.47 140.32,-380.45 404.92,-178.65 733.22,225.53 442.14,371.78 -31.45,49.07 -137.42,68.49 -220.39,44.17 -112.79,-33.05 -70.09,-121.06 -54.35,-206.3 -211.49,87.87 -67.78,399.77 267.93,268.73 523.48,-204.33 -85.52,-955.48 -667.04,-411.3 -26.01,24.35 -146.52,182.54 -162.69,191.02 -39.6,231.57 -84.69,269.06 -89.38,576.19 -11.42,746.27 174.7,1093.01 170.7,1729.82 -3.16,503.56 -151.97,1051.57 -479.19,1415.11 -114.05,126.72 -216.23,191.33 -338.05,316.34 -44.9,-18.3 -715.79,-474.25 -776.75,-571.31 -48.08,-18.22 -504.05,-381.54 -539.25,-444.5 39.27,-93.1 181.4,-189.45 237.38,-480.01 53.05,-275.33 -83.37,-414.23 -112.33,-587.47 -34.23,-23.46 -11.89,4.06 -40.06,-31.37 -23.02,-28.95 -21.57,-15.14 -26.12,-56.15 -6.14,-55.48 21.09,-76.44 40.46,-118.19 33.18,-71.52 48.29,-163.51 34.28,-252.44 -23.27,-147.67 -155.41,-301.22 -236.61,-361.13 -425.32,-313.77 -785.53,231.93 -479.1,332.24 -16.34,-57.34 -56.55,-135.07 -24.38,-205.86 23.75,-52.25 12.06,-25.13 41.05,-47.57 27.33,-109.78 241.74,-124.38 348.44,-62.58 96.6,55.95 209.23,164.85 225.07,265.41 172.1,147.74 -18.2,580.25 -549.47,681.57 -417.12,79.55 -892.98,-67.45 -1008.87,-348.66l-111.74 -180.87c-220.24,-644.66 228.06,-1158.47 739.64,-1295.33 280.54,-75.04 701.56,28.28 923.36,124.58 160.92,69.87 580.45,323.2 607.73,452.58 63.23,34.73 263.31,293.34 313.4,360.27 108.37,21.11 31.43,13.03 56.11,-17.98l-44.11 -77.08c-62.11,-125.53 -220.72,-259.83 -247.04,-342.05 -72.88,-38.05 -417.28,-463.47 -1030.86,-569.49 -258.42,-44.65 -477.72,-59.14 -711.09,30.29 -338.59,129.77 -389.33,272.86 -516.59,318.26 -176.21,51.71 -300.49,4.59 -417.78,-93.79 -56.16,-32.15 -12.72,3.21 -56.86,-42.48 -14.72,-15.25 -32.74,-46.96 -38.59,-60.88 -17.71,-42.02 -27.34,-103.01 -27.99,-157.08 -1.53,-126.74 43.64,-195.61 147.73,-217.77 278.52,-59.3 387.97,342.37 48.53,190.19 5.88,81.13 32.88,96.45 68,147.07 73.62,-21.45 134.82,19.98 228.18,-8.84 90.75,-28.03 77.64,-73.88 131.46,-130.32 50.78,-604.8 -665.88,-577.67 -892.49,-452.69 -623.31,343.79 -132.27,1565.17 -1110.14,1819.11 -376.18,97.68 -961.93,-99.64 -1064.91,-372.22 -80.22,-54.28 -162.47,-352.03 -169.41,-496.68 -12.74,-266.57 0.4,-404.11 134.1,-554.54 337.26,-379.47 889.1,-171.33 958.85,-37.54 48.07,28.48 88.98,66.96 103.91,138.79 18.23,87.81 -1.3,152.62 -38.44,207.2 -56.14,82.46 -208.5,203.25 -350.83,104.52 -137.62,-55.72 -134.81,-117.39 -112.96,-279.89 -181.98,73.61 -80.35,390.63 232.6,394.48 259.77,3.2 374.72,-226.1 353.84,-450.46 -44.85,-48.98 -37.46,-206.87 -386.96,-326.15 -101.56,-34.66 -196.92,-58.46 -324.7,-48.5 -112.15,8.75 -228.91,65.76 -297.83,67.2 -50.51,59.76 -132.37,88.64 -218.09,190.65 -62.57,74.48 -99.3,208.58 -140.64,252.75 -67.12,-23.36 -179.15,-133.72 -309.13,-185.95 -241.21,-96.92 -202.56,-34.14 -421.16,-40.52l-17.94 17.71c-58.14,44.67 -155.2,77.83 -197.56,201.59 -143.57,419.45 615.88,653.51 591.85,179.55 -4.31,4.21 -9.39,5.58 -11.4,14.03l-31.95 38.87c-44.84,47.18 1.68,10.69 -48.71,41.25 -100.26,285.98 -676.7,-130.43 -354.78,-334.65 120.14,-228.88 679.92,-4.26 736.56,165.74 53.89,24.1 32.39,-2.97 33.89,44.39l14.72 28.35c34.7,117.04 -18.08,184.93 98.54,525.62 57.37,167.65 -361.57,813.88 -1078.06,541.87 -5.04,-1.93 -54.83,-22.9 -56.73,-23.99 -51.21,-29.24 -26.96,-6.72 -58.04,-49.55 -53.44,4.03 -25.63,12.22 -35.86,-21.32 -168.08,-53.33 -390.01,-316.64 -487.57,-499.14 -136.88,-256.03 -124.47,-572.77 -58.24,-852.59 113.65,-480.2 601.41,-826.42 951.66,-1063.05 306.3,-206.97 372.61,-164.09 778.36,-210.3 687.87,-78.32 949.19,-613.32 1432.93,-568.12 227.15,21.22 578.24,267.35 588.89,421.59 82.71,48.5 115.7,211.03 91.35,330.93 -23.9,117.67 -106.89,202.05 -193.19,254.81 -240.34,146.95 -482.25,90.09 -652.38,-75.47 -109.01,-189.19 -82,-460.42 238.63,-387.91 104.87,23.7 97.19,50.36 107.61,155.05l24.92 -56c20.16,-121.45 -81.52,-174.05 -170.16,-189.89 -165.24,-29.54 -212.23,29.9 -282.46,86.1 -61.03,203.61 -108.58,312.4 38.65,469.98 213.63,228.61 656.35,197.91 864.3,-29.77 146.91,-160.85 110.4,-286.66 75.81,-510.08 -115.71,-159.79 -204.1,-409.69 -590.86,-524.27 -374.07,-110.83 -674.72,162.93 -865.86,225.26 -70.22,93.26 -377.11,250.13 -522.02,294.06 -248.05,75.21 -490.15,24.57 -706.32,-56.57 -410.9,-154.21 -645.82,-506.37 -593.24,-940.49l32.09 -93.91c-0.92,-39.97 -1.44,-58.41 8.18,-103.93 4.53,-21.43 5.45,-28.36 14.39,-47.59 34.28,-73.65 0.94,-15.56 35.52,-47.34 -3.81,-223.29 456.92,-955.18 1402.32,-599.41 148.72,55.98 397.26,183.74 427.63,299.03 192.63,129.92 101.68,680.76 -230.29,709.19 -147.45,12.64 -320.88,-80.13 -402.79,-148.14 -197.06,-163.62 -115.6,-321.89 -35.83,-346.4 35.4,-88.54 134.88,-65.75 221.44,-52.22 44.09,-33.48 12.89,13.46 21.7,-57.56 -53.35,-1.81 -198.86,-7.33 -250.76,-13.55 -3.66,4.62 -9.61,5.16 -11.71,13.23 -2.05,7.91 -8.8,9.95 -11.63,12.83l-74.88 71.47c-122.77,130.34 -73.4,289.96 26.94,386.02 134.09,128.37 285.17,211.36 538.87,208.19 325.25,-4.05 640.4,-15.31 872.07,-230.53 93.56,-86.9 127.56,-159.06 190.46,-199.3 3.74,-39.42 69.54,-164.46 98.47,-230.13 37.45,-85 57.62,-166.84 65.77,-265.28 51.79,-625.54 -194.52,-609.77 -296.55,-1052.75 -40.57,-176.14 -72.71,-440.99 -3.7,-606.03 -10.98,-310.36 282.23,-764.7 428.52,-901.8 623.33,-584.26 2502.08,-321.56 2364.73,1051.18 -28.15,338.27 -288.81,705.11 -560.97,811.52 -382.49,149.56 -819.35,-33.19 -1028.02,-238.08 -330.84,-324.81 -260.31,-779.58 -53.19,-963.62 306.44,-272.28 854.25,-90.24 893.11,197.44 27.23,28.29 38.42,37.42 46.48,95.41 34.13,245.63 -213.16,375.53 -482.11,323.9 -117.26,-22.5 -104.52,6.62 -125.46,26.9 172.43,61.28 167.19,53.47 374.35,48.63 693.87,-149.29 145.13,-1206.47 -643.14,-831.38 -323.5,153.93 -503.09,715.46 -99.9,1133.1 84.74,87.77 288,201.23 314.28,238.09 -400.66,79.59 -402.81,191.7 -532.79,231.6zm2312.62 6331.45c-20.6,30.1 15.41,13.05 -38.53,41.24 -157.79,-99.53 -400.15,-437.32 -655.3,-268.83 -42.56,28.12 -213.27,228.81 -247.81,270.06 -166.68,198.97 -29.94,229.99 -20.42,385.17 -117.47,97.47 -2890.37,3292.54 -3248.63,3701.81 -86.08,98.32 -389.02,475.98 -481.04,535.18 -104.42,-17.13 -293.97,-89.85 -396.04,-124.57 -640.84,-217.92 -1240.67,-122.94 -1453.31,-159.63 -32.02,-60.5 -25.46,-90.34 -48.61,-143.39 -41.19,-94.29 -27.17,-31.21 -103.37,-91.87l-43.73 -297.09 110.21 -40.18 78.81 -677.6 -231.16 38.74c-36.53,-40.34 -48.28,-67.33 -79.32,-98.38 -23.43,-23.47 -38.4,-31.05 -53.99,-45.13l-54.64 -61.41c-57.27,-0.76 -155.49,-14.44 -251.61,-15.68 -149.77,-1.91 -141.82,-70.08 -248.91,-27.83 -67.85,61.3 -9.92,25.81 -36.26,104.64 -25.51,76.31 -2.13,9.64 -57.52,80.65 -55.52,71.18 -39.94,152.51 -42.63,263.96l-41.64 5.94c-39.08,41.29 -2.49,-0.04 -46.24,32.88l-49.94 40.7 220.28 485.73c88.86,155.17 180.33,-106.75 206.31,303.55 5.86,92.45 -25.6,38.94 -58.03,110.48 -26.24,57.91 -10.51,135.02 -18.38,199.23 -215.14,120.96 -597.82,154.86 -1205.92,621.56 -374.98,287.77 -613,550.53 -870.38,961.41 -123.13,196.57 -212.88,407.51 -287.69,621.7 -92.77,265.55 -110.05,479.71 -147.44,779.2 -90.32,723.59 249.59,1570.2 663.49,2093.12 122.41,154.66 647.14,406.99 851.36,523.74 102.18,58.41 182.6,121.29 285.4,172.52 316.53,157.75 946.9,543.59 1172.75,652.04 134.36,64.51 651.46,72.58 846.17,68.71 542.05,-10.79 1082,-149.44 1510.55,-339.9 1313.33,-583.69 2267.08,-1944.9 2041.16,-3386.29 -22.02,-140.46 -47.27,-249.05 -75.54,-386.84 -72.38,-352.8 -263.88,-179.88 358.24,-840.37 334.37,-355 915.15,-1040.51 1279.2,-1463.58l1290.41 -1473.21c163.46,-193.56 765.99,-860.87 850.6,-995.21 201.33,6.13 222.95,63.08 366.45,-94.07 334.67,-366.5 411.43,-439.27 -139.35,-840.07 1.45,-70.77 -6.6,-8.15 28.54,-34.8 36.3,-72.4 406.18,-293.92 593.4,-713.82 407.92,-914.9 178.51,-1477.96 87.93,-2269.14 -29.07,-253.97 -69.51,-1066.96 140.42,-1148.67 48.84,150.62 -17.61,169.23 95.82,332.53 318.59,458.64 1292.78,277.86 1300.11,-440.03 2.24,-220.36 -34.71,-351.28 -151.24,-508.47 -33.69,-45.44 -76.6,-76.99 -104.93,-120.8 83.3,-2.23 892.83,308.98 1396.4,-37.83 497.26,-342.47 842.11,-1156.7 433.05,-1723.43 -391.4,-542.26 -1120.66,-703.89 -1767.41,-740.5 2.17,-66.88 110.43,-190.15 152.74,-270.7 851.67,-1621.31 -1211.74,-2519.71 -2228.79,-1927.18 -568.93,331.44 -598.47,586.95 -616.28,1172.85 -153.97,-38.43 -63.35,-101.37 -484.69,-158.61 -296.77,-40.31 -357.29,28.52 -601.86,73.44 5.43,-471.39 31.5,-611.49 -215.01,-958.65 -412.47,-580.89 -1897.3,-931.83 -2474.63,-46.71 -146.4,224.44 -282.83,555.3 -304.07,871.94 -58.23,868.29 352.22,751 327.24,1452.32 -17.36,487.43 -334.54,884.29 -873.71,906.21 22.35,-105.69 16.19,-41.92 64.57,-140.59 175.63,-358.28 -5.55,-679.28 -393.86,-863.03 -380.37,-179.97 -873.54,-243.48 -1233.01,12.73 -509.47,363.11 -671.15,1238.13 -249.87,1669.96 186.69,191.36 387.13,216.46 500.8,283.16 -138.95,89.82 -178.92,41.77 -540.86,301.62 -485.46,348.54 -1064.85,902.53 -844.8,1649.57 137.05,465.24 387.44,735.51 821.66,896.24 431.27,159.64 807.61,9.98 1045.24,-331.8 10.58,-15.22 29.23,-45.7 39.66,-57.91 51.97,-60.88 4.36,-33 67.12,-45.13 52.68,60.64 80.15,118.99 164.88,186.18 503.01,398.86 1433.06,374.23 1691.35,-469.53 116.37,-380.16 90.34,-883.76 393.44,-1112.58 360.84,-272.38 1075.7,86.15 744.94,403.48 0.26,-105.12 48.63,-107.78 -21.09,-213.95 -116.85,-177.98 -489.08,-161.62 -528.95,85.54 -30.39,188.28 34.47,341.75 129.62,428.36 122.66,111.64 236.07,116.15 426.59,131.03 -50.34,122.41 -102.53,164.68 -135.35,322.5 -81.1,390.08 19.87,797.28 320.83,1022.66 339.06,253.92 931.49,259.5 1292.31,29.78 65.86,-41.93 81.11,-74 154.75,-85.84 83.45,67.29 173.17,373.18 168.11,496.11 -6.96,168.69 -111.29,402.88 -209.12,468.66z"/>
 </g>
</svg>
