<?xml version="1.0" encoding="UTF-8"?>
<!DOCTYPE svg PUBLIC "-//W3C//DTD SVG 1.1//EN" "http://www.w3.org/Graphics/SVG/1.1/DTD/svg11.dtd">
<!-- Creator: CorelDRAW 2017 -->
<svg xmlns="http://www.w3.org/2000/svg" xml:space="preserve" width="200mm" height="200mm" version="1.1" style="shape-rendering:geometricPrecision; text-rendering:geometricPrecision; image-rendering:optimizeQuality; fill-rule:evenodd; clip-rule:evenodd"
viewBox="0 0 20000 20000"
 xmlns:xlink="http://www.w3.org/1999/xlink">
 <defs>
  <style type="text/css">
   <![CDATA[
    .fil0 {fill:none}
    .fil1 {fill:#E83634;fill-rule:nonzero}
   ]]>
  </style>
 </defs>
 <g id="Capa_x0020_1">
  <metadata id="CorelCorpID_0Corel-Layer"/>
  <rect class="fil0" width="20000" height="20000"/>
  <path class="fil1" d="M2549.37 5876.54c392.15,0 717.55,88.37 976.14,263.98 301.72,206.89 452.54,496.75 452.54,870.62 0,248.89 -81.86,461.16 -245.66,637.86 -163.75,175.61 -370.63,276.92 -620.6,302.75 297.36,73.27 536.59,196.1 717.6,368.48 206.88,198.26 310.3,437.49 310.3,717.6 0,383.57 -165.96,668.04 -497.78,853.36 -245.7,137.92 -530.12,206.88 -853.36,206.88l-2249.74 0 0 -4221.53 2010.56 0zm-834 3684.94l497.82 0c185.32,0 339.36,-52.79 462.24,-158.36 122.83,-105.62 184.24,-268.3 184.24,-488.12 0,-215.46 -71.12,-390.04 -213.35,-523.65 -142.24,-133.61 -316.77,-200.42 -523.66,-200.42l-407.29 0 0 1370.55zm0 -1907.09l439.64 0c189.63,0 338.29,-49.56 446.07,-147.63 107.73,-99.11 161.59,-251.04 161.59,-456.85 0,-201.49 -59.25,-358.78 -177.77,-473.02 -118.51,-113.13 -283.39,-170.23 -494.54,-170.23l-374.99 0 0 1247.73zm5100.72 -1907.15c624.92,0 1152.88,217.67 1583.9,652.96 430.97,435.28 646.48,963.25 646.48,1583.9 0,620.6 -214.43,1147.49 -643.24,1580.62 -428.87,433.17 -957.91,649.71 -1587.14,649.71 -624.91,0 -1152.88,-215.46 -1583.85,-646.48 -431.02,-430.97 -646.48,-958.94 -646.48,-1583.85 0,-624.97 214.38,-1153.96 643.24,-1587.14 428.82,-433.13 957.86,-649.72 1587.09,-649.72zm0 3956.48c357.75,0 616.34,-204.73 775.78,-614.14 116.35,-297.41 174.53,-665.89 174.53,-1105.48 0,-590.46 -96.95,-1038.69 -290.89,-1344.72 -159.49,-254.28 -379.26,-381.42 -659.42,-381.42 -275.84,0 -493.46,124.98 -652.95,375 -198.26,310.3 -297.36,760.68 -297.36,1351.14 0,590.45 96.95,1038.68 290.89,1344.67 159.49,249.96 379.26,374.95 659.42,374.95zm3148.35 -704.66c90.48,189.63 187.47,334.02 290.89,433.12 142.23,137.93 299.57,206.89 471.94,206.89 168.07,0 300.6,-46.32 397.6,-139 96.95,-92.64 145.47,-216.54 145.47,-371.72 0,-193.94 -157.33,-370.63 -471.95,-530.12 -517.18,-262.91 -808.12,-418.03 -872.77,-465.48 -318.93,-241.34 -478.37,-555.95 -478.37,-943.84 0,-435.28 133.61,-784.4 400.83,-1047.31 267.17,-262.9 616.29,-394.36 1047.26,-394.36 327.55,0 601.24,65.73 821.06,197.18 219.78,131.46 418.04,343.73 594.77,636.78l-471.94 368.53c-120.67,-206.89 -224.14,-351.28 -310.3,-433.18 -137.92,-129.29 -301.72,-193.94 -491.35,-193.94 -159.44,0 -281.19,48.52 -365.25,145.47 -84.06,96.99 -126.06,227.37 -126.06,391.12 0,193.95 159.44,366.32 478.37,517.19 534.43,254.27 834,405.14 898.65,452.53 323.24,241.34 484.83,564.58 484.83,969.72 0,435.29 -142.23,780.09 -426.65,1034.37 -284.48,254.28 -646.49,381.42 -1086.13,381.42 -362.01,0 -662.61,-64.65 -901.84,-193.94 -239.18,-129.3 -444.99,-346.92 -617.37,-652.95l588.31 -368.48zm3419.87 0c90.48,189.63 187.48,334.02 290.9,433.12 142.23,137.93 299.56,206.89 471.94,206.89 168.07,0 300.6,-46.32 397.59,-139 96.95,-92.64 145.47,-216.54 145.47,-371.72 0,-193.94 -157.33,-370.63 -471.94,-530.12 -517.19,-262.91 -808.13,-418.03 -872.77,-465.48 -318.93,-241.34 -478.37,-555.95 -478.37,-943.84 0,-435.28 133.61,-784.4 400.83,-1047.31 267.17,-262.9 616.29,-394.36 1047.26,-394.36 327.55,0 601.24,65.73 821.06,197.18 219.78,131.46 418.03,343.73 594.77,636.78l-471.94 368.53c-120.67,-206.89 -224.14,-351.28 -310.3,-433.18 -137.93,-129.29 -301.73,-193.94 -491.36,-193.94 -159.44,0 -281.19,48.52 -365.24,145.47 -84.06,96.99 -126.06,227.37 -126.06,391.12 0,193.95 159.44,366.32 478.36,517.19 534.44,254.27 834.01,405.14 898.65,452.53 323.24,241.34 484.84,564.58 484.84,969.72 0,435.29 -142.23,780.09 -426.66,1034.37 -284.47,254.28 -646.48,381.42 -1086.12,381.42 -362.01,0 -662.61,-64.65 -901.84,-193.94 -239.18,-129.3 -444.99,-346.92 -617.37,-652.95l588.3 -368.48zm5503.67 -3121.44l612.02 -1.08 -1215.37 2120.45 0 2101.08 -1176.61 0 0 -2020.26 -1260.61 -2201.27 1308.01 0 861.99 1546.16 870.57 -1545.08zm-16880.03 5121.68c294.12,0 538.18,66.24 732.13,197.98 226.29,155.17 339.41,372.56 339.41,652.95 0,186.68 -61.41,345.88 -184.24,478.41 -122.83,131.74 -278,207.68 -465.47,227.09 223.01,54.95 402.42,147.07 538.18,276.36 155.18,148.71 232.76,328.07 232.76,538.19 0,287.7 -124.46,501.01 -373.35,640.01 -184.24,103.46 -397.59,155.17 -640.06,155.17l-1687.32 0 0 -3166.16 1507.96 0zm-625.48 2763.74l373.35 0c138.96,0 254.52,-39.61 346.68,-118.79 92.12,-79.23 138.16,-201.21 138.16,-366.09 0,-161.6 -53.35,-292.54 -160,-392.72 -106.66,-100.23 -237.59,-150.34 -392.72,-150.34l-305.47 0 0 1027.94zm0 -1430.37l329.71 0c142.23,0 253.71,-37.17 334.54,-110.73 80.82,-74.3 121.23,-188.27 121.23,-342.6 0,-151.14 -44.44,-269.14 -133.33,-354.79 -88.93,-84.85 -212.56,-127.65 -370.96,-127.65l-281.19 0 0 935.77zm3825.58 -1430.36c468.71,0 864.66,163.23 1187.9,489.71 323.24,326.47 484.88,722.47 484.88,1187.95 0,465.47 -160.84,860.63 -482.44,1185.46 -321.65,324.88 -718.4,487.33 -1190.34,487.33 -468.71,0 -864.71,-161.65 -1187.95,-484.89 -323.24,-323.24 -484.84,-719.19 -484.84,-1187.9 0,-468.71 160.8,-865.51 482.45,-1190.34 321.6,-324.88 718.39,-487.32 1190.34,-487.32zm0 2967.39c268.29,0 462.24,-153.54 581.83,-460.6 87.29,-223.06 130.89,-499.42 130.89,-829.13 0,-442.88 -72.71,-779.01 -218.18,-1008.54 -119.59,-190.71 -284.42,-286.06 -494.54,-286.06 -206.89,0 -370.12,93.76 -489.72,281.23 -148.7,232.72 -223.05,570.49 -223.05,1013.37 0,442.83 72.71,779.01 218.18,1008.49 119.59,187.47 284.47,281.24 494.59,281.24zm1600.02 -2870.4l2579.5 0 0 431.54 -848.53 0 0 2734.62 -882.43 0 0 -2734.62 -848.54 0 0 -431.54zm2773.45 0l2579.5 0 0 431.54 -848.54 0 0 2734.62 -882.43 0 0 -2734.62 -848.53 0 0 -431.54zm4184.4 -96.99c468.71,0 864.66,163.23 1187.9,489.71 323.24,326.47 484.89,722.47 484.89,1187.95 0,465.47 -160.85,860.63 -482.45,1185.46 -321.65,324.88 -718.4,487.33 -1190.34,487.33 -468.71,0 -864.71,-161.65 -1187.95,-484.89 -323.24,-323.24 -484.84,-719.19 -484.84,-1187.9 0,-468.71 160.8,-865.51 482.45,-1190.34 321.6,-324.88 718.4,-487.32 1190.34,-487.32zm0 2967.39c268.3,0 462.24,-153.54 581.83,-460.6 87.29,-223.06 130.89,-499.42 130.89,-829.13 0,-442.88 -72.71,-779.01 -218.18,-1008.54 -119.59,-190.71 -284.42,-286.06 -494.54,-286.06 -206.88,0 -370.12,93.76 -489.71,281.23 -148.71,232.72 -223.06,570.49 -223.06,1013.37 0,442.83 72.71,779.01 218.18,1008.49 119.59,187.47 284.47,281.24 494.59,281.24zm2075.21 -2870.4l887.3 0 703.07 1659.05 674.75 -1659.05 876.8 0 0 3166.16 -882.43 0 0 -2012.2 -843.71 2012.2 -106.65 0 -833.95 -1992.79 -9.71 1992.79 -465.47 0 0 -3166.16z"/>
 </g>
</svg>
