<?xml version="1.0" encoding="UTF-8"?>
<!DOCTYPE svg PUBLIC "-//W3C//DTD SVG 1.1//EN" "http://www.w3.org/Graphics/SVG/1.1/DTD/svg11.dtd">
<!-- Creator: CorelDRAW 2017 -->
<svg xmlns="http://www.w3.org/2000/svg" xml:space="preserve" width="200mm" height="200mm" version="1.1" style="shape-rendering:geometricPrecision; text-rendering:geometricPrecision; image-rendering:optimizeQuality; fill-rule:evenodd; clip-rule:evenodd"
viewBox="0 0 20000 20000"
 xmlns:xlink="http://www.w3.org/1999/xlink">
 <defs>
  <style type="text/css">
   <![CDATA[
    .fil0 {fill:none}
    .fil1 {fill:black}
   ]]>
  </style>
 </defs>
 <g id="Capa_x0020_1">
  <metadata id="CorelCorpID_0Corel-Layer"/>
  <rect class="fil0" width="20000" height="20000"/>
  <path class="fil1" d="M8718.16 5152.64c21.49,116.31 16.43,2556.82 16.42,2740.13 -0.04,914.68 6.95,1816.73 6.95,2730.71 0,673.64 111.36,1360.14 -313.28,1756.84 -213.12,199.1 -540.3,385.69 -808.42,556.9 -353.05,225.43 -783.9,717.85 -999.06,1058.89 -827.99,1312.47 -886.7,2929.7 -0.05,4216 225.25,326.81 609.2,733.03 942.94,964.16 164.66,114.04 314.96,227.02 513.12,328.16 1416.39,722.85 2956.23,670.03 4261.89,-258.14 569.15,-404.58 950.57,-818.72 1293.2,-1456.29 370.74,-689.87 464.89,-1434.89 335.85,-2305.82 -89.28,-602.56 -342.72,-1114.67 -652.88,-1591.69 -22.91,-35.25 -47.64,-71.06 -68.96,-99.57 -192,-256.64 -339.21,-421.44 -581.36,-633.7 -505.59,-443.2 -717.61,-442.7 -1124.48,-746.26 -99.31,-74.08 -253.33,-231.6 -320.69,-371.4 -192.45,-399.39 -125.39,-1406.86 -126.05,-1923.13 -1.14,-896.82 11.38,-1823.18 6.94,-2730.64 -1.73,-352.23 -18.31,-1776.64 4.62,-2076.75 25.89,-338.74 243.03,-248.69 213.97,-437.72 -32.81,-213.5 -403.89,-263.71 -475.24,-177.96 -29.67,35.65 -13.11,5625 -13.11,6171.26 0,866.41 -117.8,1395.06 555.26,1850.23 74.58,50.43 137.73,82.14 213.92,123.04 157.55,84.58 288,156.27 440.88,250.76 289.43,178.91 692.91,538.77 898.39,822.06 146.12,201.46 283.93,410.48 393.49,635.31 438.61,900.07 517.93,1873.11 166.87,2810.31 -228.81,610.89 -698.76,1177.46 -1195.18,1554.37 -1329.87,1009.69 -2980.3,1075.69 -4396.58,144.85l-396.54 -296.25c-71.34,-67.45 -107.17,-93.27 -172.54,-163.88 -117.66,-127.13 -218.92,-211.62 -330.83,-360.62 -820.87,-1092.83 -961.97,-2408.59 -340.49,-3690.45 83.16,-171.54 333.65,-578.25 472.72,-723.98 37.76,-39.56 43.56,-52.04 75.62,-92.82 132.46,-168.47 457.5,-437.49 642.69,-572.71 279.86,-204.35 690.99,-358.87 913.45,-620.13 253.04,-297.15 281.86,-611.61 294.76,-1090.24l-4.66 -1365.23c-27.34,-311 -1.96,-2227.04 -1.96,-2712.16 0,-344.76 16.99,-2383.3 -9.36,-2680.36 -343.35,-127.44 -592.69,84.12 -494.18,328.87 32.25,80.12 101.79,85.68 161.95,135.05zm-682.18 9877.47c120.79,-26.31 2528.15,-6.95 2955.66,-6.95 145.3,0 488.67,-18.05 611.07,3.12 89.62,15.5 123.02,83.57 169.03,147.54l259.34 357.62c68.97,92.47 115.63,147.96 41.79,172.66 -73.04,24.44 -3389.76,0.8 -4018.61,4.99 -149.31,1 -139.18,-17.85 -131.35,-166.27 8.97,-169.9 -65.17,-473.88 113.07,-512.71zm3110.82 1053.01c76.35,35.83 141.72,27.77 220.84,19.29 46.41,-75.73 81.53,-225.77 233.42,-197.2 215.19,40.48 43.74,197.2 250.85,197.2 127.12,0 339.38,9.66 434.7,-33.16l-18.74 -95.36c-48.95,20.07 -92.95,120.71 -116.01,16.25 -16.57,-75.08 39.95,-99.41 28.28,-179.27 -5.27,-36.06 -18.18,-40.09 -22.2,-82.27 -4.72,-49.56 9.92,-21.46 0.76,-82.63 -18.86,-125.96 -386.69,-583.99 -461.71,-677.27l-1547 0.12c-610.35,-14.16 -1152.33,-1.04 -1757.88,-1.04 -488.12,0 -536.07,-99.79 -536.07,499.89 0,61.23 13.8,130.65 25.1,196.41 19.75,114.96 -80.39,151.77 50.29,282.49 22.39,22.41 45.26,34.06 63.24,49.48 41.57,35.67 16.55,5.46 45.06,53.4l-115.23 -3.22c-459.12,9.4 -347.24,-116.22 -580.12,-61.07 24.17,133.52 35.02,-16.81 191.9,56.93 164.83,77.47 233.67,60.32 425.69,60.32 123.18,0 79.94,-44.27 185.16,-36.88 59.2,4.17 118.04,30.02 188.88,30.02 130.3,0 191.67,-56.34 319.35,-32.43 152.51,28.56 545.99,89.1 689.51,2.98 83.48,-50.1 31.85,-119.83 206.74,-177.34 262.59,74.02 17.43,235.84 400,203.57 70.55,-5.95 222.97,-41.01 260.17,-30.65 98.13,27.35 120.55,47.6 256.22,47.6 79.2,0 365.44,7.39 433.11,-22.57 35.02,-15.5 8.29,-2.33 30.85,-25.71 -112.98,-55.79 -1008.32,-3.84 -1141.6,-65.61 -47.66,-22.09 -262.18,-341.05 -481.54,17.01 -158.79,14.65 -324.58,-4.26 -486.57,-6.79 -299.43,-4.67 -908.83,87.99 -876.57,-217.65 149.47,-36.22 804.9,-10.66 1007.48,-10.66 169.02,0 3107.28,-22.27 3148.44,19 35.19,35.27 1.53,113.72 -30.35,152.11 -189.31,227.91 -366.67,-146.78 -571.27,-104.14 -72.86,15.17 -68.9,50.08 -104.99,101.4 -65.33,92.94 -187.46,69.29 -248.19,137.45zm-3198.57 -1161.57c35.12,-1.46 126.59,-31.54 164.69,-51.15 166.53,-85.71 -71.05,-185.12 470.71,-157.66l44.01 140.85c131.56,45.38 989.92,38.04 1204.49,38.06 845.33,0.11 247.82,-114.12 823.74,-121.82 130.08,-1.74 142.14,39.72 203.25,94.22l625.11 18.94c89.89,14.47 96.33,48.22 123.68,46.59 3.19,-5.07 55.17,-9.36 1.47,-77.04 -44.71,-56.36 -187.26,-50.1 -247.7,-46.4 -597.99,36.7 -486.91,-77.5 -724.46,-95.07 -352.49,-26.08 -217.38,86.39 -505.42,95.93 -255.3,8.46 -1371.12,14.18 -1463.64,-13.84l-24.24 -137.85c-81.3,-23.15 -385.92,-35.22 -462.41,21.66 -47.37,35.23 -43.3,106.63 -101.23,142.52 -98.86,61.26 -133.69,-36.05 -132.05,102.06zm4595.64 -11355.25c-457.2,0 -619.3,-398.17 -490.65,-671.76 29.1,-61.86 56.87,-112.55 96.26,-146.73 28.98,-25.14 108.44,-82.43 142.25,-100.67 284.8,-153.59 731.27,34.06 737.71,420.89 4.49,269.36 -218.31,498.27 -485.57,498.27zm-591.74 -386.79c43.11,274.78 339.29,520.86 651.46,452.46 289.33,-63.4 547.24,-270.33 482.07,-638.2 -59.81,-337.61 -398.6,-513.02 -670,-466.76 -257.16,43.83 -518.18,304.11 -463.53,652.5zm-3541.32 -2001.44c44.31,-115.09 -50.94,-109.98 129.04,-525.41 208.01,-480.12 773.4,-687.85 1271.56,-540.39 215.88,63.9 406.22,244.16 526.05,430.41 30.56,47.49 52.18,104.38 105.85,124.67 16.63,-102.77 -129.44,-262.87 -176.38,-316.84 -438.5,-504.11 -1337.7,-465.76 -1700.14,123.49 -68.55,111.45 -119.91,197.83 -166.37,339.34 -27.37,83.4 -19.81,122.43 -37.46,205.72 -44.03,207.84 -22.24,160.86 47.85,159.01zm469.48 958.55l48.33 16.1c98.33,561.32 251,578.99 258.83,685.1 -83.88,81.97 -143.63,44.34 -338.06,275.84 -324.8,386.75 -321.04,1095.33 -7.13,1358.8 -23.81,-68.13 -64.15,-128.51 -94.74,-207.57 -33.31,-86.06 -51.99,-145.35 -61.36,-241.51 -20.23,-207.97 -13.54,-330.12 44.31,-525.29 136.32,-459.97 448.36,-566.19 542.99,-655.24 -24.48,-66.05 -65.18,-114.9 -97.96,-166.66 -114.29,-180.49 -130.62,-290.43 -168.44,-485.2l-35.2 -101.38c-33.78,5.62 -26.18,-2.84 -63.24,16.73 -37.78,19.97 -4.92,-2.19 -28.33,30.28zm2077 -1803.68c67.32,102.3 284.52,6.32 502.43,208.79 179.84,167.1 296.52,413.26 225.91,676.85 -37.75,140.93 -26.01,110.06 0.31,130.11 101.66,77.51 106.07,-275.06 106.07,-338.78 0,-593.22 -755.29,-804.15 -834.72,-676.97zm-3361.76 1724.37c-86.09,255.93 -503.15,140.64 -413.9,-125.64 27.53,-82.15 154.86,-160.46 270.55,-131.54 84.67,21.17 184.94,133.56 143.35,257.18zm-335.82 -300.79c-323.89,146.91 -93.44,664.19 265.54,481.35 324.66,-165.35 84.01,-639.9 -265.54,-481.35zm3778.08 1749.95c619.66,-370.58 333.23,-1162.94 77.33,-1201.27 -18.62,63.7 49.18,96.84 85.75,141.54 220.78,269.89 197.41,690.68 -135.35,956.49 -119.64,95.55 -90.2,26.88 -117.71,112.95 63.76,22.68 35.79,22.7 89.98,-9.71zm252.14 943.68c204.81,-219.94 196.21,-700.63 -287.89,-890.8 -35.99,100.13 87.46,71.59 218.59,214.29 61.16,66.56 119.2,182.75 127.57,303.71 27.54,397.95 -323.13,438.66 -362.54,523.63 14.43,9.03 5.56,44.14 106.29,10.37 83.86,-28.12 146.49,-105.91 197.98,-161.2zm-2620.44 10755.67c38.13,76.03 -5.52,107.91 -90.36,107.91 -209.49,0 -346.56,33.81 -391.13,-70.5 50.08,-88.22 461.38,-43.71 481.49,-37.41zm-501.07 146.99c183.34,15.35 369.04,18.56 551.91,-2.9 26.75,-63.99 26.93,-141.53 8.04,-198.89 -471.03,-9.92 -677.34,-77.48 -559.95,201.79zm2770.61 40.48c-35.09,-42.87 -138.67,-235.31 190.96,-187.32l0.39 176.01c-56.85,29.1 -142.29,32.09 -191.35,11.31zm-94.67 -168.77l4.92 211.84c54.18,31 111.19,27.14 218.27,27.29 144.36,0.2 129.59,-4.27 129.59,-201.72 0,-127 -26.72,-120 -148.92,-121.62 -87.15,-1.16 -205.47,-18.52 -203.86,84.21zm-1964.07 -13087.9c-217.97,-21.48 -351.18,-51.9 -480.91,-161.54 -218.66,-184.77 -107.16,-348.13 -212.98,-407.71 -103.02,152.55 115.15,658.29 681.16,601.13l12.73 -31.88zm2402.18 79.15c286.36,-3.45 623.48,-328.29 569.34,-645.63 -76.93,20.49 -51,-23.34 -70.41,96.09 -30.29,186.32 -153.33,344.1 -307.34,440.27l-152.6 77.24c-35.68,22.71 -10.61,2.69 -38.99,32.03zm162.02 13033.44c135,-13.1 206.96,-21.99 224.42,104.63 -118.24,14.95 -247.26,33.69 -224.42,-104.63zm-48.27 152.04c147.43,17.4 244.28,26.67 394.42,7.17 -1.2,-81.1 -13.69,-46.34 -68.88,-109.58 -87.01,-99.71 -27.91,-120.53 -243.88,-116.54 -61.93,1.14 -158.04,-12.32 -99.92,178.25 18.87,61.89 4.77,16.08 18.26,40.7zm-1276.7 -189.52c205.05,-39.71 205.98,-15.13 235.75,54.36 -53.41,31.8 -81.11,54.92 -186.09,35 -82.25,-15.6 -7.59,1.88 -51.15,-16.41l1.49 -72.95zm-63.69 31.5c0,129.07 21.86,125.88 150.34,125.88 83.34,0 177.88,6.56 199.07,-76.57 45.45,-178.25 -103.78,-151.74 -255.03,-151.74 -94.89,0 -94.38,3.97 -94.38,102.43zm-2054.48 -11572.03c7.5,-83.87 18.77,-96.62 107.17,-95.62 23.59,51.68 26.9,81.22 2.46,142.26l-109.63 -46.64zm-58.38 56.18c69.06,47.07 71.47,57.84 192.36,49.11 34.24,-44.29 54.92,-50.86 73.56,-110.68 -8.97,-197.34 -168.74,-175.26 -268.58,-94.23l2.66 155.8zm4672.21 12276.4c5.21,79.46 6.17,83.26 82.56,91.27 92.83,9.73 203.49,20.37 285.17,-19.07 77.06,-37.23 58.05,-16.29 67.59,-84.26 -54.3,17.15 -79.23,34.65 -113.89,60.56 -94.82,30.24 -321.33,-48.48 -321.43,-48.5zm870.87 13.67c-124.3,53.82 -42.21,-49.87 -176.22,-88.85 -7.88,223.77 267.22,190.9 249.98,78.69l-73.76 10.16zm-6942.99 11.31c26.38,61.11 23.84,63.48 130.42,64.64 136.09,1.49 104.07,21.42 146.38,-32.27 -57.16,-5.89 -131.84,7.9 -174.87,-6.84 -68.79,-23.54 -23.72,-62.2 -101.93,-25.53zm6542.87 -37.04c9.62,55.11 -14.13,36.91 31.81,61.69 12.56,6.78 124.85,27.6 105.6,-104.85 -98.38,34.07 -16.29,40.46 -137.41,43.16zm-6101.23 43.85c-39.13,-1.27 -8.91,-3.41 -33.89,11.9 19.15,27.79 -20.96,56.73 97.88,55.13 93,-1.27 69.25,-9.7 68.2,-70.26 -96.55,30.37 -80.8,4.89 -132.19,3.23zm-593.89 11.82c45.59,-13.01 30.04,10.18 66.9,-46.93 19.83,-30.74 14.11,-27.17 20.28,-62.75l-90.51 -18.2 3.33 127.88zm859.98 -14.17c-4.35,-79.49 18.25,-59.81 -75.81,-84.31 8.54,78.22 -5.24,68.77 75.81,84.31zm5221.99 11.92c58.28,18.73 77.18,11.05 48.6,-48.3 -42.68,18.69 -31.3,11.96 -48.6,48.3z"/>
 </g>
</svg>
