<?xml version="1.0" encoding="UTF-8"?>
<!DOCTYPE svg PUBLIC "-//W3C//DTD SVG 1.1//EN" "http://www.w3.org/Graphics/SVG/1.1/DTD/svg11.dtd">
<!-- Creator: CorelDRAW 2017 -->
<svg xmlns="http://www.w3.org/2000/svg" xml:space="preserve" width="200mm" height="200mm" version="1.1" style="shape-rendering:geometricPrecision; text-rendering:geometricPrecision; image-rendering:optimizeQuality; fill-rule:evenodd; clip-rule:evenodd"
viewBox="0 0 20000 20000"
 xmlns:xlink="http://www.w3.org/1999/xlink">
 <defs>
  <style type="text/css">
   <![CDATA[
    .fil0 {fill:none}
    .fil4 {fill:#343434}
    .fil6 {fill:#93C9CC}
    .fil7 {fill:#B94C56}
    .fil8 {fill:#CDCDCD}
    .fil5 {fill:#CECECE}
    .fil1 {fill:#ECECEC}
    .fil3 {fill:#FCFCFC}
    .fil2 {fill:#FDFDFD}
   ]]>
  </style>
 </defs>
 <g id="Capa_x0020_1">
  <metadata id="CorelCorpID_0Corel-Layer"/>
  <rect class="fil0" width="20000" height="20000"/>
  <path class="fil1" d="M18131.28 13170.93c344.58,14.15 789.27,-108.6 958.46,-291.42 177.41,-191.7 215.36,-708.03 95.84,-992.78 -127.8,54.37 -324.83,359.35 -680.96,591.54 -543.34,354.24 -494.63,165.16 -373.34,692.66z"/>
  <path class="fil1" d="M525.22 11861.46c-109.52,284.08 -107.95,794.19 81.76,1005.95 153.5,171.35 640.01,317.5 940.45,300.82 226.02,-547.86 19.49,-447.75 -380.19,-702.8 -373.43,-238.29 -453.71,-496.09 -642.02,-603.97z"/>
  <path class="fil2" d="M16329.78 10542.39l-188.73 391.06c345.5,-54.59 351.66,-268.46 542.12,-300.14 30.98,380.3 -38.15,773.37 -168.94,1089.57 -102.59,248.04 -343.22,630.37 -386.1,883.64 339.74,-56.12 360.2,-381.65 538.8,-370.05l-30.17 487.89c586.05,-66.58 806.19,200.19 853.75,-240.07 72.03,-666.71 -263.21,-517.63 -395.07,-775.79 -124.05,-119.65 -65.49,-412.37 13.07,-547.43 84.37,-145.03 185.25,-230.68 371.09,-294.15 -58.62,135.51 -226.36,231.32 -283.83,382.53 -115.05,302.73 278.47,687.31 1090.5,-118.9 564.09,-560.05 545.91,-1228.28 -58.69,-1133.3 -187.08,29.4 -326.52,109.26 -534.34,126.37 14.23,-944.95 218.23,-924.96 276.7,-1507.47 48.54,-483.55 -40.43,-1115.68 -650.92,-1105.33 -65.27,312.73 -103.98,561.36 -122.2,901.56 -59.81,1116.53 -697.56,1546.27 -867.04,2130.01z"/>
  <path class="fil3" d="M6252.3 8990.4l-69.77 116.51c-152.51,310.78 -374.05,638.57 -540.49,989.92 -174.66,368.7 -309.41,750.28 -325.77,1220.77l441.67 -553.93c112.81,-135.06 307.95,-364.05 540.37,-425.76 -6.93,189.9 -126.24,498.75 -187,673.78 -206.47,594.82 -396.94,2001.03 -103.62,2315.11 33.2,-55.07 16.75,-19.56 36.6,-100.95l65.12 -323.92c82.77,-327.02 253.1,-1006.96 562.29,-1112.03 80.56,482.06 194.45,972.25 342.05,1420.73 89.46,271.86 393.67,1095.1 580.21,1148.52 18.95,-533.78 82.25,-1442.15 424.22,-1706.1 138.22,335.44 170.86,1142.82 405.34,1779.08 18.93,-21.13 16.83,-13.27 34.41,-50.11 18.34,-38.44 12.38,-25.15 26.27,-78.52l130.43 -500.25c78.58,-234.26 162.86,-390.09 297.7,-521.02 88.95,421.99 74.14,692.4 239.37,1099.83 445.22,1097.79 1394.48,660.37 1555.71,-535.21 18.32,-135.86 26.55,-459.63 110.79,-572.01 298.66,296.57 342.93,959.48 442.53,1142.8 179.74,-187.26 324.35,-1546.4 420.24,-1775.67 106.17,40.43 154.62,188.31 204.21,320.36 195.09,519.53 205.4,847.4 227.4,1400.8 266.82,-165.05 708.69,-1445.15 789.85,-1864.17 42.75,-220.72 33.68,-550.67 162.65,-710.89 358.06,227.38 528.87,1163.37 625.25,1468.46 112.28,-65.51 92.25,-173.99 105.73,-349 9.49,-123.05 25.13,-248.76 34.6,-372.42 75.74,-989.01 -337.9,-1520.08 -428.68,-2193.1 304.86,98.31 594.89,465.82 777.14,719.86 33.17,46.23 64.7,93.19 94.63,141.38 20.22,32.55 36.5,61.86 49.95,81.69 30.57,45.08 36.16,50.41 62.02,78.37 40.69,-730.16 -538.47,-1792.73 -866.05,-2241.23l-74.16 -171.58 -34.22 -28.04c-4.36,-4.16 -10.93,-9.87 -15.5,-14.56l-48.89 -61.49c-75.36,-96.04 -158.86,-142.63 -285.1,-213.1 -410.54,-229.15 -1155.58,-400.16 -1628.01,-414.07 131.56,185.76 822.67,440.49 891.18,933.41 -124.13,-33.71 -219.48,-101.53 -337.79,-128.55 -195.1,-44.55 -201.16,18.29 -342.01,63.84 -115.2,37.24 -489.33,-41.44 -519.06,325.9l186.01 -9.92c55.46,-69.34 41.05,-111.1 109.61,-179.29 -23.04,308.59 -347.46,387.98 -470.5,-34.22 -151.47,13.48 -269.58,69.92 -336.34,155.87 318.68,35.09 384.07,52.33 583.08,204.87 -92.18,46.83 -78.69,14.57 -173.63,95.68 -76.34,-76.27 -105.37,-85.04 -248.88,-92.71 43.39,106.75 2.56,55.22 173.55,169.17 145.22,96.78 409.75,242.47 471.02,411.33 -147.48,-15.34 -331.9,-82.4 -454.4,-27.27l1.87 27.56c-8.94,239.35 -89.64,366.53 -130.99,575.23 76.57,-34.11 110.45,-71.87 176.47,-158.15 116.2,139.51 88.15,333.53 84.48,526.97 300.38,-94.08 305.3,-376.26 546.46,-440.9l-75.96 426.13c217.09,-29.68 335.57,-139.89 506.95,-235.1l147.44 -42.47c385.86,2619.54 -5103.21,2642.63 -4735.84,-7.39l147.75 63.92c187.73,93.02 252.96,186.01 500.34,222.74 -21.45,-156.43 -53.46,-233.01 -39.46,-408.85 134.98,20.96 327.81,335.43 500.87,422.62 35.24,-216.84 -42.97,-352.07 97.55,-527.67 105.79,66.93 67,108.82 174.2,155.87 -44.79,-204.82 -125.39,-334.95 -127.76,-572.1l0.92 2.83c-6.09,-6.26 -14.42,-12.79 -20.53,-16.29 -132.81,-75.94 -177.95,-4.65 -455.6,22.67 174.21,-327.56 688.09,-438.21 840.74,-605.28l-586.04 38.86c36.38,-83.57 15.01,-66.28 113.28,-117.55 36.79,-19.19 85.58,-37.21 131.78,-50.41 106.1,-30.3 222.78,-37.06 338.46,-51.81 -193.4,-263.03 -611.53,-211.97 -997.32,-269.24l115.66 -153.24c-361.38,20.43 -565.19,170.07 -842.76,216.92 43.11,-397.64 513.63,-620.43 779.13,-822.26l111.05 -112.29c-376.42,8.56 -846.12,118.28 -1178.26,225.58 -238,76.89 -508.36,177.58 -670.91,354.11 -44.24,48.04 -117.86,123.53 -167.3,192.04z"/>
  <path class="fil3" d="M10786.25 16941.47c127.79,253.76 1021.81,481.61 1419.46,498.3 -112.42,-580.37 -258.03,-405.17 -205.58,-1339.29 245.1,41.89 980.27,755.59 1677.57,857.47 -97.01,-292.24 -500.91,-709.9 -569.32,-1183.55 152.93,40.11 933.91,532.43 1123.16,403.17 -157.35,-99.41 -333.51,-223.14 -497.75,-335.99 -87.25,-59.95 -459.58,-274.33 -501.75,-364.03 124.27,-58.27 658.92,109.62 827.87,144.86l693.49 85.96c84.92,2.68 177.6,10.46 244.94,-26.4 -288.28,-110.12 -979,-289.18 -1178.52,-459.67 220.99,-48.4 599.52,51.19 902.63,9.39 216.92,-29.91 590.67,-70.83 693.86,-249.74 -277.95,1.25 -730.33,-26.56 -941,-140.97 139.09,-90.93 370.52,-75.11 528.93,-164.37 330.8,-186.41 820.37,-781.05 835.16,-1297.85 -229.3,15.35 -570.02,12.86 -719.67,-133.59 24.57,-90.44 -20.81,-28.16 57.57,-77.4 242.92,-153.78 825.23,-1075.76 957.78,-1487.55 -276.79,100.28 -470.16,447.7 -898.54,510.14l572.25 -1143.98 -958.06 588.48c-160.49,132.49 -166.28,1064.25 -189.24,1363.1l-32.59 -35.87c-4.32,-5.58 -9.91,-11.82 -14.31,-18.04 -14.65,-20.7 -20.36,-32.02 -31.5,-54.94 -10.83,-22.26 -26.91,-68.86 -36.27,-93.58 -27.36,-72.22 -52.1,-138.54 -78.6,-210.06 -49.32,-133.04 -95.25,-290.47 -145.31,-406.38 -99.24,682.31 -60.26,865.87 -328.01,1463.28 -152.51,340.27 -434.48,927.7 -686.01,1106.08 0.66,-377.02 71.66,-1255.04 -142.56,-1516.74 -102.73,204.46 -148.98,401.72 -237.98,604.36 -188.31,428.77 -396.48,686.11 -681.98,1024.39 -66.83,79.18 -314.21,390.9 -420.21,398.09l-45.88 -937.76c-86.67,73.51 -284.23,520.09 -285.12,684.43 -0.88,163.53 191.94,525.9 254.91,691.92 235.52,620.93 139.78,1104.99 -252.95,1431.79 -284.9,-17.47 -442.4,-160.04 -710.87,-187.46z"/>
  <path class="fil3" d="M4527.16 13171.01l61.92 47.9c-86.74,199.63 -513.17,160.43 -724.91,167.8 13.46,365.86 272.13,758.75 437,960.72 309.43,379.05 490.57,339.99 812.27,447.13l110.84 60.06c-359.1,120.51 -568.89,80.92 -937.6,136.99 451.56,359.49 1196.02,214.23 1561.87,233.98l-1133.82 462.06c371.31,182.22 1322.82,-216.88 1760.05,-240.34 -140.32,268.18 -838.2,521.75 -1004.33,763.9 593.47,-65.77 916.96,-421.03 1127.7,-431.13 -53.27,250.9 -140.2,413.18 -250.51,615.32 -88.38,161.96 -270.57,384.81 -321.07,561.98 413.59,-57.81 942.7,-397.34 1285.06,-622.55 88.88,-58.47 284.06,-212.18 392.5,-220.15 15.66,244.84 19.47,501.8 -34.87,738 -36.58,159.01 -160.42,448.34 -164.45,587.23 405.17,1.91 1462.21,-335.07 1544.53,-601.97 -221.79,49.03 -272.95,108.85 -429.79,201.36 -305.98,180.47 -636.76,77 -726.85,-322.67 -135.73,-602.11 -61,-958.96 171.02,-1520.69 78.74,-190.61 158.31,-244.88 59.03,-467.49 -59.71,-133.88 -115.55,-288.96 -202.64,-406.21l-34.39 934.36c-189.24,-7.29 -663.67,-670.02 -804.69,-878.79 -244,-361.23 -346.07,-769.12 -540.85,-1131.72 -222.17,209.05 -145.43,1249.42 -144.26,1496.61 -140.4,-45.21 -300.37,-372.04 -389.25,-524.81 -744.9,-1280.33 -496.69,-1657.94 -629.35,-2038.4 -101.72,98.51 -215.05,651.09 -309.82,833.49 -3.68,-6.06 -7.01,-14.57 -8.69,-19.42 -1.7,-4.93 -6.14,-13.8 -8.05,-20.1l-12.1 -44.49c-4.9,-24.55 -8.17,-77.04 -10.09,-103.75l-37.7 -525.17c-20.03,-269.6 3.8,-566.27 -116.92,-652.17l-981.47 -585.31 564.52 1132.73c-389.62,-58.88 -649.62,-416.36 -884.66,-517.95 46.18,273.17 708.52,1333.14 954.82,1493.66z"/>
  <path class="fil3" d="M2599.56 11716.98c-119.68,263.93 -275.38,64.28 -352.63,392.3 -47.48,201.6 -60.99,486.71 72.7,622.12 274.22,44.04 404.07,-76.04 744.08,-9.79 -11.1,-156.64 -76.75,-351.99 2.28,-498.15 183.5,26.63 124.68,294.34 504.15,378.2 -56.79,-287.02 -277.28,-605.22 -389.28,-889.6 -127,-322.45 -201.24,-702.95 -161.16,-1086.96 245.94,53.55 191.86,259.28 515.65,310.04l-168.95 -399.99c-216.56,-439.62 -488.64,-865.74 -706.86,-1296.23 -216.62,-427.31 -110.32,-949.65 -273.84,-1726.97 -571.06,-16.67 -706.43,548.37 -651.12,1109.98 58.43,593.26 276.19,487.93 258.06,1505.63 -181.12,-26.94 -305.57,-89.73 -464.98,-121.85 -155.8,-31.4 -428.55,14 -470.7,87.87 -158.33,647.74 379.95,1091.03 693.34,1315.85 175.71,126.05 531.32,326.9 719.43,109.53 207.53,-239.81 -170.56,-512.11 -239.14,-645.32 439.79,73.33 522.29,684.55 368.97,843.34z"/>
  <path class="fil3" d="M10889.61 4903.12c323.86,-41.91 539.84,-165.43 900.4,-148.93 -52.35,65.4 -13.76,26.05 -77.85,65.76 -270.99,167.88 -1053.43,525.57 -1182.88,922.46 130.81,-51.29 349.87,-241.05 493.2,-325.25 140.97,-82.81 366.08,-214.53 568.34,-222.87l-474.81 395.1c-132.47,128.65 -353.25,306.41 -412.53,524.11 131.14,-49.83 284.88,-196.61 400.34,-273.76 121.79,-81.38 260.65,-162.18 425.23,-231.07 965.31,-404.07 1993.27,-406.34 2866.04,195.35 75.42,52 124.68,105.24 203.59,146.79 -90.57,-386.21 -660.57,-841 -733.15,-1021.99 542.36,110.98 731.73,459.2 1015.82,566.99 -209.2,-1082.56 -1957.59,-1494.64 -3050,-1161.74 -210.75,64.23 -580.65,214.08 -751.69,352.15 -89.71,72.42 -148.68,114.01 -190.05,216.9z"/>
  <path class="fil3" d="M4826.89 5493.54c306.76,-136.13 617.43,-538 1039.81,-572.11 -167.87,245.7 -665.4,655.03 -747.48,1002.55 200.22,-74.17 536.92,-500.26 1363.66,-574.8 1029.44,-92.82 1219.89,188.86 1716.75,231.67l156.39 -180.93c-65.56,-86.11 -170.74,-121.95 -244.84,-189.59 137.08,-62.53 474.57,145.4 572.8,211.09l496.69 328.51c-55.44,-187.12 -380.4,-447.3 -551.73,-562.53 -197.13,-132.6 -633.63,-344.83 -714.69,-435.48 384.45,-6.12 579.3,122.7 898.13,146.66 -101.57,-253.51 -583.84,-456.93 -915.13,-556.22 -791.41,-237.18 -1730.69,-155.41 -2417.51,311.69 -227.3,154.59 -623.14,463.31 -652.85,839.49z"/>
  <path class="fil3" d="M13159.21 3422.15l-511.41 -118.71 24.91 455c-259.38,-38.19 -332.63,-153.27 -583.71,19.04 -119.83,82.24 -292.9,224.64 -335.48,428.03 298.71,-39.36 590.04,-140.36 898.31,-160.96 291.64,-19.49 721.93,59.56 1035.53,74.65 -24.15,-609.77 -142.93,-1360.79 284.35,-1925.6 178.35,-235.74 324.06,-288.34 361.48,-401.47 -451.17,-100.53 -830.91,116.54 -1019.29,374.28 -296.52,405.7 -131.95,756.97 -154.69,1255.74z"/>
  <path class="fil3" d="M6018.61 4116.93c344.14,-12 667.93,-82.42 1013.92,-69.52 361.2,13.47 602.05,111.13 920.49,158.67 -45.27,-195.4 -201.22,-337.19 -330.43,-428.46 -258.07,-182.31 -320.97,-46.1 -593.97,-18.02l44.31 -440.56 -531.62 111.64c51.75,-839.77 146.27,-1695.87 -1176.49,-1647.07 54.99,128.27 260.58,255.9 363.73,394.55 96.1,129.2 190.9,322.34 243.76,517.98 123.16,455.9 68.95,943.41 46.3,1420.79z"/>
  <path class="fil3" d="M17708.05 12294.44c25.63,179.02 207.54,282.96 439.27,194.34 157.42,-60.2 286.06,-175.13 397.46,-259.4 74.87,-56.65 281.31,-262.86 342.8,-339.6 93.6,-116.82 189.94,-254.95 201.53,-450.83 29,-304.35 52.4,-461.91 -277.64,-507.21 -63.14,169.96 -390.42,615.66 -499.78,750.16 -235.93,290.17 -431.82,421.62 -603.64,612.54z"/>
  <path class="fil3" d="M610.84 11407.43c18.19,325.28 332.93,662.78 507.2,792 191.89,142.29 645.77,535.66 847.76,162.02 -66.79,-160.71 -205.43,-213.81 -302.69,-339.56l-803.4 -1087.88c-286.86,48.39 -269.11,198.19 -248.87,473.42z"/>
  <path class="fil3" d="M11532.34 7272.49c-78.92,-625.83 -63.57,-1370.65 561.56,-1441.65 -138.08,1149.43 364.02,718.37 545.3,678.27 65.5,434.31 -29.21,509.52 -46.39,876.34 103.37,-19.9 105.35,-60.37 140.2,-179.31 173.12,-590.76 2.57,-1481.33 -582.37,-1545.63 -651.48,-71.62 -874.14,786.5 -762.97,1388.63 27.04,146.46 14.26,187.28 144.67,223.35z"/>
  <path class="fil3" d="M7709.67 6029.91c-69.61,200.99 -70.3,426.06 24.87,602.62 134.03,248.66 232.6,132.11 476.68,75.45 -6.25,142.95 -34.12,288.28 -13.2,427.36l8.79 125.4c246.2,-143.48 99.83,-802.08 67.64,-1054.11 -6.5,-2.76 -16.78,-12.02 -20.23,-6.29l-105 -46.24 13.09 -177.37c-159.29,32.42 -188.43,62.04 -239.53,203.63l165.54 83.91c-328.17,29.12 -213.04,-162.52 -378.65,-234.36z"/>
  <path class="fil4" d="M8284.97 17006.7c-113.86,-157.97 -364.11,-89.44 -313.5,-926.15 22.05,-364.62 166.64,-678.1 237.69,-1004.6 312.5,54.47 924.19,328.92 1135.25,558.03 163.42,177.41 711.3,168.33 891.71,26.91 124.94,-97.94 201.95,-155.56 331.6,-246.09 135.69,-94.75 561.38,-379.07 745.54,-405.39 157.89,192.8 431.6,1002.35 415.76,1309.28 -12.98,251.33 -83.21,495.7 -248.28,613.88 -169.24,121.16 -325.83,9.81 -616.03,-113.83 -468.39,-199.53 -790.69,-482.82 -1362.76,-373.86 -129.11,24.59 -864.4,524.89 -1216.98,561.82zm9846.31 -3835.77c-121.29,-527.5 -170,-338.42 373.34,-692.66 356.13,-232.19 553.16,-537.17 680.96,-591.54 119.52,284.75 81.57,801.08 -95.84,992.78 -169.19,182.82 -613.88,305.57 -958.46,291.42zm-17606.06 -1309.47c188.31,107.88 268.59,365.68 642.02,603.97 399.68,255.05 606.21,154.94 380.19,702.8 -300.44,16.68 -786.95,-129.47 -940.45,-300.82 -189.71,-211.76 -191.28,-721.87 -81.76,-1005.95zm18563.89 -422.51c-11.59,195.88 -107.93,334.01 -201.53,450.83 -61.49,76.74 -267.93,282.95 -342.8,339.6 -111.4,84.27 -240.04,199.2 -397.46,259.4 -231.73,88.62 -413.64,-15.32 -439.27,-194.34 -230.3,-149.93 106.55,-568.53 167.55,-629.01 87.75,-86.99 162.74,-137.82 254.32,-219.14 77.38,-68.72 170.39,-167.42 235.64,-236.78 70.3,-74.71 137.64,-139.23 222.61,-222.87 459.1,-451.93 765.51,266.95 500.94,452.31zm-17123.31 922.5c-201.99,373.64 -655.87,-19.73 -847.76,-162.02 -174.27,-129.22 -489.01,-466.72 -507.2,-792 -2.54,-1.91 -71.51,4.96 -78.83,-183.37 -2.83,-72.67 5.12,-152.98 30.37,-220.14 34.99,-93.09 148.45,-187.43 287.83,-163.99 142.87,24.02 850.93,735.98 1015.2,874.09 151.54,127.41 292.03,460.16 100.39,647.43zm7083.54 4476.49c87.44,-72.48 250.73,-170.39 407.92,-206.68 -192.04,723.59 -1658.03,1206.72 -2604.67,1205.74 93.6,-298.84 333.73,-544.01 373.14,-885.66 -285.86,67.38 -967.7,677.26 -2073.76,877.85 29.53,-197.16 477.58,-711.15 506.29,-1300.94 -360.23,1.09 -867.72,319.59 -1297.13,203.65 69.12,-82.29 317.46,-251.75 412.41,-361.18 114,-131.4 286.05,-253.2 359.42,-418.91 -273.01,-0.71 -1382.64,378.9 -2147.32,239.44 -21.44,-3.91 -50.59,-10.28 -65.2,-16.24 -91.79,-37.43 -37.98,-14.7 -73.91,-48.18 334.19,-112.59 1480.49,-595.84 1711.99,-802.62 -359.89,-51.75 -756.84,51.63 -1130.5,4.35 -180.79,-22.87 -785.27,-169.34 -929.69,-235.8 150.17,-116.82 1012.02,-202.03 1220.13,-429.37 -134.9,-104.47 -387.24,-156.98 -551.07,-233.25 -145.46,-67.72 -390.55,-217.94 -443.19,-342.34l580.03 15.19c-21.78,-304.82 -127.15,-402.13 -181.64,-647.88 132.12,56.15 373.92,408.73 539.52,593.7 48.4,-330.38 -151.84,-774.17 -164.51,-1107.43 320.48,50.12 630.16,309.17 1012.97,299.81l16.59 -70.18c-246.3,-160.52 -908.64,-1220.49 -954.82,-1493.66 235.04,101.59 495.04,459.07 884.66,517.95l-564.52 -1132.73 981.47 585.31c120.72,85.9 96.89,382.57 116.92,652.17l37.7 525.17c1.92,26.71 5.19,79.2 10.09,103.75l12.1 44.49c1.91,6.3 6.35,15.17 8.05,20.1 1.68,4.85 5.01,13.36 8.69,19.42 94.77,-182.4 208.1,-734.98 309.82,-833.49 132.66,380.46 -115.55,758.07 629.35,2038.4 88.88,152.77 248.85,479.6 389.25,524.81 -1.17,-247.19 -77.91,-1287.56 144.26,-1496.61 194.78,362.6 296.85,770.49 540.85,1131.72 141.02,208.77 615.45,871.5 804.69,878.79l34.39 -934.36c87.09,117.25 142.93,272.33 202.64,406.21 99.28,222.61 19.71,276.88 -59.03,467.49 -232.02,561.73 -306.75,918.58 -171.02,1520.69 90.09,399.67 420.87,503.14 726.85,322.67 156.84,-92.51 208,-152.33 429.79,-201.36zm6127.96 -3670.17l12.12 81.38c401.52,-10.2 683.59,-234.17 1019.01,-307.64 -37.53,385.96 -176.32,682.83 -173.03,1093.77 141.24,-75.45 322.43,-432.25 551.23,-586.96 -57.18,237.54 -164.95,338.25 -186.07,647.97l576.09 -6.23c-160,140.11 -122.13,188.05 -437.12,336.67 -143.51,67.71 -454.32,152.28 -553.52,236.66l109.69 77.49c41.99,21.19 93.94,42.69 146.3,62.91 303.88,117.39 775.29,153.76 951.87,279.81 -164.64,130.07 -640.01,206.57 -889.69,236.52 -373.99,44.87 -748.05,-34.44 -1127.39,5.11 140.74,256.37 1496.62,643.94 1680.97,835.5 -832.79,242.08 -1496.9,-153.54 -2287.78,-213.84 57.86,133 257.89,314.66 356.33,409.08l417.24 388.49c-560.88,39.43 -819.75,-155.81 -1298.71,-225.72 24.77,573.62 432.85,1029.2 510.24,1307.77 -992.47,-113.43 -1767.55,-815.96 -2080.04,-875.85 76.25,377.77 279.07,566.3 377.69,880.91 -390.88,36.51 -1185.97,-177.69 -1519.08,-299.73 -402.75,-147.56 -944.87,-459.09 -1040.66,-822.47 200.59,38.39 346.26,159.57 493.26,232.1 268.47,27.42 425.97,169.99 710.87,187.46 392.73,-326.8 488.47,-810.86 252.95,-1431.79 -62.97,-166.02 -255.79,-528.39 -254.91,-691.92 0.89,-164.34 198.45,-610.92 285.12,-684.43l45.88 937.76c106,-7.19 353.38,-318.91 420.21,-398.09 285.5,-338.28 493.67,-595.62 681.98,-1024.39 89,-202.64 135.25,-399.9 237.98,-604.36 214.22,261.7 143.22,1139.72 142.56,1516.74 251.53,-178.38 533.5,-765.81 686.01,-1106.08 267.75,-597.41 228.77,-780.97 328.01,-1463.28 50.06,115.91 95.99,273.34 145.31,406.38 26.5,71.52 51.24,137.84 78.6,210.06 9.36,24.72 25.44,71.32 36.27,93.58 11.14,22.92 16.85,34.24 31.5,54.94 4.4,6.22 9.99,12.46 14.31,18.04l32.59 35.87c22.96,-298.85 28.75,-1230.61 189.24,-1363.1l958.06 -588.48 -572.25 1143.98c428.38,-62.44 621.75,-409.86 898.54,-510.14 -132.55,411.79 -714.86,1333.77 -957.78,1487.55zm-11810.9 -2632.62c358.46,129.24 448.58,611.29 590.13,953.37 41.61,100.59 141.3,254.56 153.45,352.31 -186.69,-79.34 -327.22,-182.57 -446.35,-296.59 -140.98,-134.92 -216.43,-293.9 -397.87,-417.43 41.79,297.25 257.21,765.15 383.2,1010.08 81.8,159.03 144.51,298.54 235.54,447.51 85.18,139.41 226.78,300.98 273.8,437.98 -413.29,-39.5 -555.82,-231.64 -865.6,-315.71 31.15,278.36 129.81,515.71 140.66,798.76 -276.52,-94.99 -594.78,-514.45 -735.09,-570.41 -245.65,108.02 -108.26,372.13 -969.09,255.25 14.7,-624.58 50.46,-521.71 301.23,-665.1 245.35,-140.28 107.22,-471.83 100.04,-766.99 285.05,21.66 215.45,18.1 469.11,-41.2 153.32,-158.79 70.82,-770.01 -368.97,-843.34 68.58,133.21 446.67,405.51 239.14,645.32 -188.11,217.37 -543.72,16.52 -719.43,-109.53 -313.39,-224.82 -851.67,-668.11 -693.34,-1315.85 42.15,-73.87 314.9,-119.27 470.7,-87.87 159.41,32.12 283.86,94.91 464.98,121.85 18.13,-1017.7 -199.63,-912.37 -258.06,-1505.63 -55.31,-561.61 80.06,-1126.65 651.12,-1109.98 163.52,777.32 57.22,1299.66 273.84,1726.97 218.22,430.49 490.3,856.61 706.86,1296.23zm13729.04 1173.35c251.25,77.56 197.14,72.73 481.5,46.76 -21.29,204.75 -113.22,410.63 -29.8,613.06 74.09,179.79 228.4,209.18 379.69,299.06l49.14 527.65c-192.95,11.94 -408.12,45.32 -595.03,-3.78 -227.67,-59.8 -235.83,-196.76 -403.05,-257.33 -101.43,125.83 -522.46,498.59 -702.71,574.9 -3.22,-298.84 135.79,-575.76 127.08,-804.99 -283.04,89.84 -512.05,299.29 -856.74,315.15 16.16,-46.66 867.54,-1329.94 887.25,-1893.32 -238.71,229 -499.79,602.09 -843.88,714.19 44.83,-189.05 208.97,-541.79 288.9,-727.66 108.26,-251.75 226.31,-489.63 451.99,-569.8 169.48,-583.74 807.23,-1013.48 867.04,-2130.01 18.22,-340.2 56.93,-588.83 122.2,-901.56 610.49,-10.35 699.46,621.78 650.92,1105.33 -58.47,582.51 -262.47,562.52 -276.7,1507.47 207.82,-17.11 347.26,-96.97 534.34,-126.37 604.6,-94.98 622.78,573.25 58.69,1133.3 -812.03,806.21 -1205.55,421.63 -1090.5,118.9 57.47,-151.21 225.21,-247.02 283.83,-382.53 -185.84,63.47 -286.72,149.12 -371.09,294.15 -78.56,135.06 -137.12,427.78 -13.07,547.43zm-4502.63 -4323.05c17.18,-366.82 111.89,-442.03 46.39,-876.34 -181.28,40.1 -683.38,471.16 -545.3,-678.27 -625.13,71 -640.48,815.82 -561.56,1441.65 -63.61,90.74 -197.49,74.05 -319.9,104.1 810.78,107.13 1091.5,-172.07 1770.08,467.86l-87.61 87.27c260.05,177.97 523.69,556.33 550.6,1018.78l74.16 171.58c341.1,101.78 719.66,789.37 868.26,1206.26 146.79,411.78 264.19,1419.58 173.56,1882.22 -230.46,-289.87 -215.61,-698.03 -566.8,-861.94 95.18,865.94 372.55,1029.68 -158.32,2266.13 -45.44,105.82 -207.56,459.86 -300.89,544.1 -46.47,41.94 11.46,1.94 -56.29,41.13 -39.54,-419.23 -40.02,-1231.72 -353.63,-1378.07 -118.14,138.49 -188.41,651.38 -454.13,1151.18 -161.21,303.23 -462.05,822.18 -701.54,925.99 -14.56,-338.16 18.67,-1258.97 -244.7,-1472.61 -42.49,318.98 -73.6,633.86 -162.1,935.48 -109.11,371.91 -139.58,519.13 -545.2,591.01 -9.93,-279.4 25.51,-687.54 -116.39,-907.84 -207.14,299.77 83.65,284.27 -655.31,1311.19 -97.06,134.89 -167.31,275.1 -403.68,261.13 -366.85,-21.69 -767.58,-795.28 -879.92,-1098.52 -45.72,-123.4 -88.11,-401.5 -165.02,-480.08 -185.21,376.49 -45.84,667.66 -114.05,1035.6 -353.94,-87.71 -407.15,-297.25 -522.41,-647.35 -74.21,-225.39 -131.91,-857.59 -209.8,-991.29 -158.16,193.84 -205.73,1143.35 -214.02,1463.79 -305.5,-132.92 -815.98,-1039.26 -948.51,-1463.86 -54.41,-174.31 -99.3,-479 -203.26,-612.81 -375,204.95 -256.35,968.1 -373.14,1385.68 -217.27,-168.23 -492.42,-904.41 -582.73,-1267.38 -199.08,-800.06 -13.11,-889.01 80.47,-1586.49 -286.95,75.85 -447.75,785.99 -579.5,854.98 -62.03,-590.72 -1.11,-1341.87 181.61,-1865.88 156.08,-447.6 522,-1089.56 870.3,-1236.92l69.77 -116.51c39.46,-459.91 278.29,-905.03 554.88,-1037.5l-83.88 -113.54c229.46,-161.38 242.8,-276.9 679.67,-394.15 383.28,-102.86 647.85,-33.31 1029.77,-62.34l-273.75 -75.15c4.18,-79.31 2.23,-119.48 39.03,-172.38 -20.92,-139.08 6.95,-284.41 13.2,-427.36 -244.08,56.66 -342.65,173.21 -476.68,-75.45 -95.17,-176.56 -94.48,-401.63 -24.87,-602.62l92.93 -172.39c-450.67,-21.8 -587.82,143.91 -695.23,504.03 -157.9,529.4 47.36,660.41 27.01,1074.19 -112.42,53.49 -225.46,118.09 -325.91,175.97 -120.2,69.27 -171.52,146.02 -302.42,195.95 -117.07,-315.78 -291.12,-605.44 -382.72,-982.19 -151.31,-622.35 -30.83,-659.36 91.77,-1179.87 -390.54,34.98 -720.01,257.01 -960.77,437.99 -254.85,191.56 -648.19,619.82 -735.1,667.1 59.98,-295.89 274.24,-616.75 421.96,-822.7 115.02,-160.34 488.21,-601.39 547.81,-740.03 -408.57,153.57 -833.45,713.41 -978.26,786.2 64.36,-597.65 395.68,-969.61 673.31,-1247.67 428.39,-429.06 705.59,-448.26 702.31,-724.22 -1.8,-150.76 -20.23,-325.93 -38.1,-473.57 -113.6,-938.8 -409.98,-1310.49 -986.87,-1874.95l-497.55 -452.37c353.13,-145.78 1104.22,-62.82 1469.19,31.43 491.87,127.02 764.62,317.79 1105.1,550.52 523.7,357.98 670.74,185.08 1318,107.34 520.61,-62.53 1059.16,-82.51 1586.28,-81.02 519.43,1.47 1048.81,25.57 1557.2,81.25 617.84,67.66 817.5,253.44 1339.94,-88.46 340.59,-222.9 639.71,-425.23 1099.27,-554.63 318.42,-89.66 1197.12,-207.2 1493.36,-57.46l-486.63 459.21c-266.37,267.01 -671.44,704.03 -809.98,1081.49 -124.28,338.63 -202.58,864.64 -216.34,1244.43 -15.78,435.55 564.54,331.49 1128.46,1275.6 124.63,208.66 212.87,446.96 246.37,720.87 -167.95,-57.59 -716.98,-627.73 -943.68,-735.03 65,141.37 380.01,495.64 526.15,710.92 175.78,258.93 304.73,449.95 412.61,801.49 -124.68,-56.03 -849.08,-1002.29 -1701.81,-1105.77 98.05,494.23 262.63,598.5 100.43,1182.11 -58.49,210.44 -292.35,884.51 -416.63,977.92l-475 -301.23c-85.52,-55.03 -115.37,-66.93 -103.32,-116.91zm1156.87 -6441.76c-49.81,50.14 -331.07,181.98 -421.19,239.74 -127.82,81.92 -257.99,173.58 -371.63,258.52 -486.25,363.45 -456.37,378.18 -906.73,324.81 -771.97,-91.48 -1516.77,-231.36 -2311.47,-260.53 -395.34,-14.51 -824.09,-8.29 -1194.58,93.72 -107.01,29.47 -154.07,48.75 -247.95,94.73 -149.87,73.41 -62.54,20.64 -218.22,7.11 -200.82,-17.46 -331.56,55.05 -587.47,-0.23 -292.01,-63.07 -594.74,-303.8 -846.92,-438.39 -143.73,-76.71 -291.13,-146.9 -458.83,-197.38 -149.2,-44.91 -400.96,-51.11 -521.18,-118.15 -150.16,39.84 -1482.51,77.44 -1702.96,190.18 90.58,106.36 192.69,175.25 284.77,291.22l834.9 925c159.66,146.83 409.45,381.33 491.82,663.17 89.19,305.19 148.69,702.02 138.71,1035.83 -57.37,51.53 -236.35,123.15 -320.48,170.2 -122.36,68.43 -188.54,124.61 -293.22,205.69 -173.36,134.28 -326.24,330.63 -457.16,567.26 -130.32,235.55 -327.81,1046.24 -391.07,1393.19 -21.08,115.63 -30.76,149.41 -0.9,208.35 125.53,-62.75 89.24,-134.9 214.26,-211.01l-289.18 765.51c-45.86,173.22 -242.07,496.58 -229.99,643.84 202.11,-193.62 603.26,-776.52 819.07,-1049.51l484.58 -460.63c160.98,-136.88 356.91,-285.07 656.49,-297.21 -1.29,375.86 -7.94,669.75 98.37,1011.89 134.43,432.69 94.46,513.75 104.95,1025.26 6.52,317.95 85.37,820.32 -108.9,1006.98 -52.17,50.13 -97.32,55.31 -142.91,119.44 -115.86,162.95 37.1,40.23 -135.68,155.43 -178.23,118.83 -521.78,826.71 -603.23,1103.09 -88.63,300.71 -71.7,703.45 -280.58,848.84 -215.03,149.66 -555.8,-133.36 -688.56,-302.87l-295.03 -545.47c-22.51,-38.19 -24.12,-47.71 -48.69,-81.94 -54.77,-76.33 -14.74,-37.29 -84.83,-83.02 27.05,196.99 111.42,298.53 144.46,476.51 -204.36,-75.45 -459.1,-456.19 -575.36,-719.48 -272.87,-618.01 -455.65,-2677.07 -1088.06,-2794.6 -441.5,48.6 -619.08,833.18 -675.96,1211.04 -59.58,395.8 -88.88,1216.93 299.45,1478.67 -267.64,-11.07 -544.49,-176.64 -787.31,2.82 -236.24,174.6 -151.46,434.61 -141.61,743.8 -233.55,109.02 -382.74,25.37 -483.63,285.44 -90.96,234.47 45.88,449.79 14.88,675.04 -63.58,461.99 -625.23,1582.33 1014.29,1734.39 224.51,20.82 482.49,74.78 705.48,55 277.85,-24.64 353.34,-159.44 553.58,-209.06l243.91 314.05c91.16,139.58 133.02,246.04 147.48,432.96 -333.61,8.92 -594.29,-117.7 -910.22,-129.24 42.93,172.81 569.62,579.64 745.58,685.29l308.91 200.67c-337.56,225.52 -1071.73,204.27 -1523.26,223.04 655.43,345.12 1206.03,580.82 2097.08,592.16 -139.1,248.89 -1352.62,551.08 -1745.02,641.18 32.71,45.69 0.77,15.26 45.54,48.37l195.59 71.95c98.83,23.26 203.44,40.33 310.33,54.8 1038.65,140.58 1251.89,-57.15 2032.49,-84.43 -197.43,388.58 -1004.2,580.72 -1066.71,685.31 259.48,118.08 1496.9,-127.28 1835.13,-145.68 -67.61,867.69 -793.81,1189.03 -904.53,1349.52 1014.26,-3.52 1871.38,-668.95 2381.6,-774.71 -138.88,369.11 -305.65,442.55 -511.98,666.29 677.57,15.56 1461.42,-86.65 2034.62,-316.65 550.81,-221.02 1008.62,-564.07 1274.54,-1113.73 420.96,-1.12 263.68,-49.78 523.88,331.3 578.79,847.71 2280.1,1195.09 3109.38,1093.39 -63.04,-39.14 -257.99,-223.21 -303.09,-274.55 -69.41,-79.03 -174.89,-260.37 -205.65,-387.21 587.29,165.51 1521.45,816.37 2379.78,772.5 -143.17,-179.22 -289.86,-143.37 -564.98,-523.71 -139.14,-192.35 -314.27,-524.84 -340.84,-821.92 298,16.75 1794.68,294.2 1951.26,118.89 -186.34,-86.1 -637.62,-36.4 -1183.62,-647.39 105.24,-16.83 914.27,117.2 1326.87,121.18 284.15,2.74 1105.3,-41.22 1260.06,-209.16 -110.38,-68.52 -741.03,-219.41 -930.63,-276.89 -300.11,-90.99 -639.73,-193.7 -819.18,-371.02 703.2,-91.29 967.9,-44.14 1672.49,-375.7 111.43,-52.43 349.19,-192.42 430.28,-220.98 -519.83,-54.07 -1109.57,-2.19 -1537.09,-220.2l595.39 -411.11c372.04,-276.9 338.45,-323.81 494.68,-471.75 -193.34,-29.1 -658.18,116.01 -935.59,123.69 24.64,-308.1 220.48,-557.25 373.8,-743.2 186.61,10.23 324.65,178.59 556.79,200.61 145.61,13.82 525.47,-39.64 686.58,-58.44 736.02,-85.88 1253.31,-337.15 1204.53,-1089.28 -17.74,-273.64 -104.9,-398.22 -148.74,-616.99 -69.21,-345.33 329.05,-894.24 -477.55,-967.07 2.07,-311.57 107.38,-592.82 -133.53,-759.59 -260.63,-180.43 -538.93,-5.82 -811.5,-2.56 125.66,-466.17 38.27,-219.89 218.74,-733.4 173.45,-493.53 99.18,-1262.65 -65.96,-1756.64 -90.32,-270.21 -211.91,-496.17 -503.93,-516.25 -410.41,108.71 -551.4,654.56 -640.41,1141.75 -83.45,456.76 128.16,655.4 -251.19,1587.13 -152.13,373.65 -271.06,564.46 -500,865.51 -118.56,155.91 -101.63,101.44 -260.28,212.65 -322.82,226.29 -747.07,614.25 -1079.83,759.78 -13.47,-21.8 -6.74,4.79 -22.71,-57.68l-24.04 -232.38 84.49 -22.23c2.32,-0.61 10.07,-1.56 14.4,-4.04 -172.43,-437.21 -348.18,-877.93 -526.98,-1311.29 -89.71,-217.41 -181.31,-429.66 -264.45,-654.72 -38.1,-103.13 -59.43,-325.43 -80.4,-367.54 -50.12,-100.66 -208.54,-99.58 -310.23,-160.76 -158.73,-95.49 -226.88,-389.49 -310.28,-610.97 -50.19,-133.27 21.71,-201.69 74.17,-309.22 45.82,-93.92 95.81,-234.04 149.61,-322.8 115.81,-191.07 274.49,-250.41 325.08,-596.98 54.22,-371.42 -56.07,-528.25 -111.94,-833.59 108.33,48.44 285.55,204.4 393.65,288.25l1184.6 892.68 -142.84 -950.01 130.31 -45.52c-131.19,-1424.68 -1035.75,-1753.78 -1239.23,-2026.95 55.4,-83.57 104.94,-79.89 136.43,-174.2 16.91,-50.65 33.63,-207.34 43.94,-272.09 64.3,-403.66 179.92,-1213.31 428.57,-1462.84 133.08,-133.55 1350.26,-598.22 1562.3,-956.42 -31.48,-78.99 -245.82,-300.44 -311.74,-388.1l-1655.35 -4.1c-154.09,11.76 -454.99,71.91 -557.95,66.75z"/>
  <path class="fil4" d="M8460.19 12197.61c88.37,-145.31 372.12,-249.1 608.98,-301.67 542.31,-120.38 593.33,53.87 774.02,57.44 104.57,2.06 242.14,-79.97 371.83,-94.08 286.41,-31.15 882.92,107.93 1024.52,335.34 -23.66,34.43 -2.46,12.53 -38.44,44.31l-100.33 59.07c-49.06,23.85 -89.75,43.78 -144.55,64.67 -714.83,272.46 -2229.97,223.43 -2496.03,-165.08zm3614.72 -1368.52c-66.13,193.12 -447.45,484.6 -671.92,525.22l19.23 -269.85c-232.79,80.47 -288.45,293.21 -567.52,354.83 5.53,-81.88 13.04,-161.69 21.49,-243.31 2.67,-25.84 9.77,-87.04 8.28,-111.24l-17.72 -66.77c-135.83,52.06 -214.87,278.14 -380.36,375.66 -215.87,127.22 -395.83,-22.52 -643.71,-22.29 -231.1,0.21 -455.47,138.66 -652.31,4.56 -151.42,-103.15 -239.37,-314.08 -386.97,-361.55l51.11 421.54c-283.35,-57.91 -329.82,-265.31 -578.44,-344.51l24.33 265.39c-225.86,-43.82 -590.91,-314.94 -666.14,-513.62l-147.75 -63.92c-367.37,2650.02 5121.7,2626.93 4735.84,7.39l-147.44 42.47z"/>
  <path class="fil4" d="M8740.92 10138.59l-0.92 -2.83c211.01,140.95 461.33,984.55 1102.43,986.03 670.19,1.54 900.59,-855.61 1125.07,-986.88l-1.87 -27.56c7.52,-179.1 -256.25,-334.03 -425.54,-396.37 -425.9,-156.84 -968.75,-161.93 -1392.1,3.84 -174.05,68.16 -426.64,217.83 -407.07,423.77z"/>
  <path class="fil5" d="M10889.61 4903.12c41.37,-102.89 100.34,-144.48 190.05,-216.9 171.04,-138.07 540.94,-287.92 751.69,-352.15 1092.41,-332.9 2840.8,79.18 3050,1161.74 -284.09,-107.79 -473.46,-456.01 -1015.82,-566.99 72.58,180.99 642.58,635.78 733.15,1021.99 -78.91,-41.55 -128.17,-94.79 -203.59,-146.79 -872.77,-601.69 -1900.73,-599.42 -2866.04,-195.35 -164.58,68.89 -303.44,149.69 -425.23,231.07 -115.46,77.15 -269.2,223.93 -400.34,273.76 59.28,-217.7 280.06,-395.46 412.53,-524.11l474.81 -395.1c-202.26,8.34 -427.37,140.06 -568.34,222.87 -143.33,84.2 -362.39,273.96 -493.2,325.25 129.45,-396.89 911.89,-754.58 1182.88,-922.46 64.09,-39.71 25.5,-0.36 77.85,-65.76 -360.56,-16.5 -576.54,107.02 -900.4,148.93zm-6062.72 590.42c29.71,-376.18 425.55,-684.9 652.85,-839.49 686.82,-467.1 1626.1,-548.87 2417.51,-311.69 331.29,99.29 813.56,302.71 915.13,556.22 -318.83,-23.96 -513.68,-152.78 -898.13,-146.66 81.06,90.65 517.56,302.88 714.69,435.48 171.33,115.23 496.29,375.41 551.73,562.53l-496.69 -328.51c-98.23,-65.69 -435.72,-273.62 -572.8,-211.09 74.1,67.64 179.28,103.48 244.84,189.59l-156.39 180.93c-496.86,-42.81 -687.31,-324.49 -1716.75,-231.67 -826.74,74.54 -1163.44,500.63 -1363.66,574.8 82.08,-347.52 579.61,-756.85 747.48,-1002.55 -422.38,34.11 -733.05,435.98 -1039.81,572.11zm1191.72 -1376.61c22.65,-477.38 76.86,-964.89 -46.3,-1420.79 -52.86,-195.64 -147.66,-388.78 -243.76,-517.98 -103.15,-138.65 -308.74,-266.28 -363.73,-394.55 1322.76,-48.8 1228.24,807.3 1176.49,1647.07l531.62 -111.64 -44.31 440.56c273,-28.08 335.9,-164.29 593.97,18.02 129.21,91.27 285.16,233.06 330.43,428.46 -318.44,-47.54 -559.29,-145.2 -920.49,-158.67 -345.99,-12.9 -669.78,57.52 -1013.92,69.52zm7140.6 -694.78c22.74,-498.77 -141.83,-850.04 154.69,-1255.74 188.38,-257.74 568.12,-474.81 1019.29,-374.28 -37.42,113.13 -183.13,165.73 -361.48,401.47 -427.28,564.81 -308.5,1315.83 -284.35,1925.6 -313.6,-15.09 -743.89,-94.14 -1035.53,-74.65 -308.27,20.6 -599.6,121.6 -898.31,160.96 42.58,-203.39 215.65,-345.79 335.48,-428.03 251.08,-172.31 324.33,-57.23 583.71,-19.04l-24.91 -455 511.41 118.71zm-5449.54 2607.76c165.61,71.84 50.48,263.48 378.65,234.36l-165.54 -83.91c51.1,-141.59 80.24,-171.21 239.53,-203.63l-13.09 177.37 105 46.24c3.45,-5.73 13.73,3.53 20.23,6.29 32.19,252.03 178.56,910.63 -67.64,1054.11l-8.79 -125.4c-36.8,52.9 -34.85,93.07 -39.03,172.38l273.75 75.15c-381.92,29.03 -646.49,-40.52 -1029.77,62.34 -436.87,117.25 -450.21,232.77 -679.67,394.15l83.88 113.54c-276.59,132.47 -515.42,577.59 -554.88,1037.5 49.44,-68.51 123.06,-144 167.3,-192.04 162.55,-176.53 432.91,-277.22 670.91,-354.11 332.14,-107.3 801.84,-217.02 1178.26,-225.58l-111.05 112.29c-265.5,201.83 -736.02,424.62 -779.13,822.26 277.57,-46.85 481.38,-196.49 842.76,-216.92l-115.66 153.24c385.79,57.27 803.92,6.21 997.32,269.24 -115.68,14.75 -232.36,21.51 -338.46,51.81 -46.2,13.2 -94.99,31.22 -131.78,50.41 -98.27,51.27 -76.9,33.98 -113.28,117.55l586.04 -38.86c-152.65,167.07 -666.53,277.72 -840.74,605.28 277.65,-27.32 322.79,-98.61 455.6,-22.67 6.11,3.5 14.44,10.03 20.53,16.29 -19.57,-205.94 233.02,-355.61 407.07,-423.77 423.35,-165.77 966.2,-160.68 1392.1,-3.84 169.29,62.34 433.06,217.27 425.54,396.37 122.5,-55.13 306.92,11.93 454.4,27.27 -61.27,-168.86 -325.8,-314.55 -471.02,-411.33 -170.99,-113.95 -130.16,-62.42 -173.55,-169.17 143.51,7.67 172.54,16.44 248.88,92.71 94.94,-81.11 81.45,-48.85 173.63,-95.68 -199.01,-152.54 -264.4,-169.78 -583.08,-204.87 66.76,-85.95 184.87,-142.39 336.34,-155.87 123.04,422.2 447.46,342.81 470.5,34.22 -68.56,68.19 -54.15,109.95 -109.61,179.29l-186.01 9.92c29.73,-367.34 403.86,-288.66 519.06,-325.9 140.85,-45.55 146.91,-108.39 342.01,-63.84 118.31,27.02 213.66,94.84 337.79,128.55 -68.51,-492.92 -759.62,-747.65 -891.18,-933.41 472.43,13.91 1217.47,184.92 1628.01,414.07 126.24,70.47 209.74,117.06 285.1,213.1l48.89 61.49c4.57,4.69 11.14,10.4 15.5,14.56l34.22 28.04c-26.91,-462.45 -290.55,-840.81 -550.6,-1018.78l87.61 -87.27c-678.58,-639.93 -959.3,-360.73 -1770.08,-467.86 122.41,-30.05 256.29,-13.36 319.9,-104.1 -130.41,-36.07 -117.63,-76.89 -144.67,-223.35 -111.17,-602.13 111.49,-1460.25 762.97,-1388.63 584.94,64.3 755.49,954.87 582.37,1545.63 -34.85,118.94 -36.83,159.41 -140.2,179.31 -12.05,49.98 17.8,61.88 103.32,116.91l475 301.23c124.28,-93.41 358.14,-767.48 416.63,-977.92 162.2,-583.61 -2.38,-687.88 -100.43,-1182.11 852.73,103.48 1577.13,1049.74 1701.81,1105.77 -107.88,-351.54 -236.83,-542.56 -412.61,-801.49 -146.14,-215.28 -461.15,-569.55 -526.15,-710.92 226.7,107.3 775.73,677.44 943.68,735.03 -33.5,-273.91 -121.74,-512.21 -246.37,-720.87 -563.92,-944.11 -1144.24,-840.05 -1128.46,-1275.6 13.76,-379.79 92.06,-905.8 216.34,-1244.43 138.54,-377.46 543.61,-814.48 809.98,-1081.49l486.63 -459.21c-296.24,-149.74 -1174.94,-32.2 -1493.36,57.46 -459.56,129.4 -758.68,331.73 -1099.27,554.63 -522.44,341.9 -722.1,156.12 -1339.94,88.46 -508.39,-55.68 -1037.77,-79.78 -1557.2,-81.25 -527.12,-1.49 -1065.67,18.49 -1586.28,81.02 -647.26,77.74 -794.3,250.64 -1318,-107.34 -340.48,-232.73 -613.23,-423.5 -1105.1,-550.52 -364.97,-94.25 -1116.06,-177.21 -1469.19,-31.43l497.55 452.37c576.89,564.46 873.27,936.15 986.87,1874.95 17.87,147.64 36.3,322.81 38.1,473.57 3.28,275.96 -273.92,295.16 -702.31,724.22 -277.63,278.06 -608.95,650.02 -673.31,1247.67 144.81,-72.79 569.69,-632.63 978.26,-786.2 -59.6,138.64 -432.79,579.69 -547.81,740.03 -147.72,205.95 -361.98,526.81 -421.96,822.7 86.91,-47.28 480.25,-475.54 735.1,-667.1 240.76,-180.98 570.23,-403.01 960.77,-437.99 -122.6,520.51 -243.08,557.52 -91.77,1179.87 91.6,376.75 265.65,666.41 382.72,982.19 130.9,-49.93 182.22,-126.68 302.42,-195.95 100.45,-57.88 213.49,-122.48 325.91,-175.97 20.35,-413.78 -184.91,-544.79 -27.01,-1074.19 107.41,-360.12 244.56,-525.83 695.23,-504.03l-92.93 172.39z"/>
  <path class="fil5" d="M13519.67 9122.08c327.58,448.5 906.74,1511.07 866.05,2241.23 -25.86,-27.96 -31.45,-33.29 -62.02,-78.37 -13.45,-19.83 -29.73,-49.14 -49.95,-81.69 -29.93,-48.19 -61.46,-95.15 -94.63,-141.38 -182.25,-254.04 -472.28,-621.55 -777.14,-719.86 90.78,673.02 504.42,1204.09 428.68,2193.1 -9.47,123.66 -25.11,249.37 -34.6,372.42 -13.48,175.01 6.55,283.49 -105.73,349 -96.38,-305.09 -267.19,-1241.08 -625.25,-1468.46 -128.97,160.22 -119.9,490.17 -162.65,710.89 -81.16,419.02 -523.03,1699.12 -789.85,1864.17 -22,-553.4 -32.31,-881.27 -227.4,-1400.8 -49.59,-132.05 -98.04,-279.93 -204.21,-320.36 -95.89,229.27 -240.5,1588.41 -420.24,1775.67 -99.6,-183.32 -143.87,-846.23 -442.53,-1142.8 -84.24,112.38 -92.47,436.15 -110.79,572.01 -161.23,1195.58 -1110.49,1633 -1555.71,535.21 -165.23,-407.43 -150.42,-677.84 -239.37,-1099.83 -134.84,130.93 -219.12,286.76 -297.7,521.02l-130.43 500.25c-13.89,53.37 -7.93,40.08 -26.27,78.52 -17.58,36.84 -15.48,28.98 -34.41,50.11 -234.48,-636.26 -267.12,-1443.64 -405.34,-1779.08 -341.97,263.95 -405.27,1172.32 -424.22,1706.1 -186.54,-53.42 -490.75,-876.66 -580.21,-1148.52 -147.6,-448.48 -261.49,-938.67 -342.05,-1420.73 -309.19,105.07 -479.52,785.01 -562.29,1112.03l-65.12 323.92c-19.85,81.39 -3.4,45.88 -36.6,100.95 -293.32,-314.08 -102.85,-1720.29 103.62,-2315.11 60.76,-175.03 180.07,-483.88 187,-673.78 -232.42,61.71 -427.56,290.7 -540.37,425.76l-441.67 553.93c16.36,-470.49 151.11,-852.07 325.77,-1220.77 166.44,-351.35 387.98,-679.14 540.49,-989.92 -348.3,147.36 -714.22,789.32 -870.3,1236.92 -182.72,524.01 -243.64,1275.16 -181.61,1865.88 131.75,-68.99 292.55,-779.13 579.5,-854.98 -93.58,697.48 -279.55,786.43 -80.47,1586.49 90.31,362.97 365.46,1099.15 582.73,1267.38 116.79,-417.58 -1.86,-1180.73 373.14,-1385.68 103.96,133.81 148.85,438.5 203.26,612.81 132.53,424.6 643.01,1330.94 948.51,1463.86 8.29,-320.44 55.86,-1269.95 214.02,-1463.79 77.89,133.7 135.59,765.9 209.8,991.29 115.26,350.1 168.47,559.64 522.41,647.35 68.21,-367.94 -71.16,-659.11 114.05,-1035.6 76.91,78.58 119.3,356.68 165.02,480.08 112.34,303.24 513.07,1076.83 879.92,1098.52 236.37,13.97 306.62,-126.24 403.68,-261.13 738.96,-1026.92 448.17,-1011.42 655.31,-1311.19 141.9,220.3 106.46,628.44 116.39,907.84 405.62,-71.88 436.09,-219.1 545.2,-591.01 88.5,-301.62 119.61,-616.5 162.1,-935.48 263.37,213.64 230.14,1134.45 244.7,1472.61 239.49,-103.81 540.33,-622.76 701.54,-925.99 265.72,-499.8 335.99,-1012.69 454.13,-1151.18 313.61,146.35 314.09,958.84 353.63,1378.07 67.75,-39.19 9.82,0.81 56.29,-41.13 93.33,-84.24 255.45,-438.28 300.89,-544.1 530.87,-1236.45 253.5,-1400.19 158.32,-2266.13 351.19,163.91 336.34,572.07 566.8,861.94 90.63,-462.64 -26.77,-1470.44 -173.56,-1882.22 -148.6,-416.89 -527.16,-1104.48 -868.26,-1206.26z"/>
  <path class="fil5" d="M15177.3 13167.77c-78.38,49.24 -33,-13.04 -57.57,77.4 149.65,146.45 490.37,148.94 719.67,133.59 -14.79,516.8 -504.36,1111.44 -835.16,1297.85 -158.41,89.26 -389.84,73.44 -528.93,164.37 210.67,114.41 663.05,142.22 941,140.97 -103.19,178.91 -476.94,219.83 -693.86,249.74 -303.11,41.8 -681.64,-57.79 -902.63,-9.39 199.52,170.49 890.24,349.55 1178.52,459.67 -67.34,36.86 -160.02,29.08 -244.94,26.4l-693.49 -85.96c-168.95,-35.24 -703.6,-203.13 -827.87,-144.86 42.17,89.7 414.5,304.08 501.75,364.03 164.24,112.85 340.4,236.58 497.75,335.99 -189.25,129.26 -970.23,-363.06 -1123.16,-403.17 68.41,473.65 472.31,891.31 569.32,1183.55 -697.3,-101.88 -1432.47,-815.58 -1677.57,-857.47 -52.45,934.12 93.16,758.92 205.58,1339.29 -397.65,-16.69 -1291.67,-244.54 -1419.46,-498.3 -147,-72.53 -292.67,-193.71 -493.26,-232.1 95.79,363.38 637.91,674.91 1040.66,822.47 333.11,122.04 1128.2,336.24 1519.08,299.73 -98.62,-314.61 -301.44,-503.14 -377.69,-880.91 312.49,59.89 1087.57,762.42 2080.04,875.85 -77.39,-278.57 -485.47,-734.15 -510.24,-1307.77 478.96,69.91 737.83,265.15 1298.71,225.72l-417.24 -388.49c-98.44,-94.42 -298.47,-276.08 -356.33,-409.08 790.88,60.3 1454.99,455.92 2287.78,213.84 -184.35,-191.56 -1540.23,-579.13 -1680.97,-835.5 379.34,-39.55 753.4,39.76 1127.39,-5.11 249.68,-29.95 725.05,-106.45 889.69,-236.52 -176.58,-126.05 -647.99,-162.42 -951.87,-279.81 -52.36,-20.22 -104.31,-41.72 -146.3,-62.91l-109.69 -77.49c99.2,-84.38 410.01,-168.95 553.52,-236.66 314.99,-148.62 277.12,-196.56 437.12,-336.67l-576.09 6.23c21.12,-309.72 128.89,-410.43 186.07,-647.97 -228.8,154.71 -409.99,511.51 -551.23,586.96 -3.29,-410.94 135.5,-707.81 173.03,-1093.77 -335.42,73.47 -617.49,297.44 -1019.01,307.64l-12.12 -81.38z"/>
  <path class="fil5" d="M9049.34 16837.94c-82.32,266.9 -1139.36,603.88 -1544.53,601.97 4.03,-138.89 127.87,-428.22 164.45,-587.23 54.34,-236.2 50.53,-493.16 34.87,-738 -108.44,7.97 -303.62,161.68 -392.5,220.15 -342.36,225.21 -871.47,564.74 -1285.06,622.55 50.5,-177.17 232.69,-400.02 321.07,-561.98 110.31,-202.14 197.24,-364.42 250.51,-615.32 -210.74,10.1 -534.23,365.36 -1127.7,431.13 166.13,-242.15 864.01,-495.72 1004.33,-763.9 -437.23,23.46 -1388.74,422.56 -1760.05,240.34l1133.82 -462.06c-365.85,-19.75 -1110.31,125.51 -1561.87,-233.98 368.71,-56.07 578.5,-16.48 937.6,-136.99l-110.84 -60.06c-321.7,-107.14 -502.84,-68.08 -812.27,-447.13 -164.87,-201.97 -423.54,-594.86 -437,-960.72 211.74,-7.37 638.17,31.83 724.91,-167.8l-61.92 -47.9 -16.59 70.18c-382.81,9.36 -692.49,-249.69 -1012.97,-299.81 12.67,333.26 212.91,777.05 164.51,1107.43 -165.6,-184.97 -407.4,-537.55 -539.52,-593.7 54.49,245.75 159.86,343.06 181.64,647.88l-580.03 -15.19c52.64,124.4 297.73,274.62 443.19,342.34 163.83,76.27 416.17,128.78 551.07,233.25 -208.11,227.34 -1069.96,312.55 -1220.13,429.37 144.42,66.46 748.9,212.93 929.69,235.8 373.66,47.28 770.61,-56.1 1130.5,-4.35 -231.5,206.78 -1377.8,690.03 -1711.99,802.62 35.93,33.48 -17.88,10.75 73.91,48.18 14.61,5.96 43.76,12.33 65.2,16.24 764.68,139.46 1874.31,-240.15 2147.32,-239.44 -73.37,165.71 -245.42,287.51 -359.42,418.91 -94.95,109.43 -343.29,278.89 -412.41,361.18 429.41,115.94 936.9,-202.56 1297.13,-203.65 -28.71,589.79 -476.76,1103.78 -506.29,1300.94 1106.06,-200.59 1787.9,-810.47 2073.76,-877.85 -39.41,341.65 -279.54,586.82 -373.14,885.66 946.64,0.98 2412.63,-482.15 2604.67,-1205.74 -157.19,36.29 -320.48,134.2 -407.92,206.68z"/>
  <path class="fil5" d="M2599.56 11716.98c-253.66,59.3 -184.06,62.86 -469.11,41.2 7.18,295.16 145.31,626.71 -100.04,766.99 -250.77,143.39 -286.53,40.52 -301.23,665.1 860.83,116.88 723.44,-147.23 969.09,-255.25 140.31,55.96 458.57,475.42 735.09,570.41 -10.85,-283.05 -109.51,-520.4 -140.66,-798.76 309.78,84.07 452.31,276.21 865.6,315.71 -47.02,-137 -188.62,-298.57 -273.8,-437.98 -91.03,-148.97 -153.74,-288.48 -235.54,-447.51 -125.99,-244.93 -341.41,-712.83 -383.2,-1010.08 181.44,123.53 256.89,282.51 397.87,417.43 119.13,114.02 259.66,217.25 446.35,296.59 -12.15,-97.75 -111.84,-251.72 -153.45,-352.31 -141.55,-342.08 -231.67,-824.13 -590.13,-953.37l168.95 399.99c-323.79,-50.76 -269.71,-256.49 -515.65,-310.04 -40.08,384.01 34.16,764.51 161.16,1086.96 112,284.38 332.49,602.58 389.28,889.6 -379.47,-83.86 -320.65,-351.57 -504.15,-378.2 -79.03,146.16 -13.38,341.51 -2.28,498.15 -340.01,-66.25 -469.86,53.83 -744.08,9.79 -133.69,-135.41 -120.18,-420.52 -72.7,-622.12 77.25,-328.02 232.95,-128.37 352.63,-392.3z"/>
  <path class="fil5" d="M17095.44 11708.5c131.86,258.16 467.1,109.08 395.07,775.79 -47.56,440.26 -267.7,173.49 -853.75,240.07l30.17 -487.89c-178.6,-11.6 -199.06,313.93 -538.8,370.05 42.88,-253.27 283.51,-635.6 386.1,-883.64 130.79,-316.2 199.92,-709.27 168.94,-1089.57 -190.46,31.68 -196.62,245.55 -542.12,300.14l188.73 -391.06c-225.68,80.17 -343.73,318.05 -451.99,569.8 -79.93,185.87 -244.07,538.61 -288.9,727.66 344.09,-112.1 605.17,-485.19 843.88,-714.19 -19.71,563.38 -871.09,1846.66 -887.25,1893.32 344.69,-15.86 573.7,-225.31 856.74,-315.15 8.71,229.23 -130.3,506.15 -127.08,804.99 180.25,-76.31 601.28,-449.07 702.71,-574.9 167.22,60.57 175.38,197.53 403.05,257.33 186.91,49.1 402.08,15.72 595.03,3.78l-49.14 -527.65c-151.29,-89.88 -305.6,-119.27 -379.69,-299.06 -83.42,-202.43 8.51,-408.31 29.8,-613.06 -284.36,25.97 -230.25,30.8 -481.5,-46.76z"/>
  <path class="fil5" d="M7634.26 10843.15c75.23,198.68 440.28,469.8 666.14,513.62l-24.33 -265.39c248.62,79.2 295.09,286.6 578.44,344.51l-51.11 -421.54c147.6,47.47 235.55,258.4 386.97,361.55 196.84,134.1 421.21,-4.35 652.31,-4.56 247.88,-0.23 427.84,149.51 643.71,22.29 165.49,-97.52 244.53,-323.6 380.36,-375.66l17.72 66.77c1.49,24.2 -5.61,85.4 -8.28,111.24 -8.45,81.62 -15.96,161.43 -21.49,243.31 279.07,-61.62 334.73,-274.36 567.52,-354.83l-19.23 269.85c224.47,-40.62 605.79,-332.1 671.92,-525.22 -171.38,95.21 -289.86,205.42 -506.95,235.1l75.96 -426.13c-241.16,64.64 -246.08,346.82 -546.46,440.9 3.67,-193.44 31.72,-387.46 -84.48,-526.97 -66.02,86.28 -99.9,124.04 -176.47,158.15 41.35,-208.7 122.05,-335.88 130.99,-575.23 -224.48,131.27 -454.88,988.42 -1125.07,986.88 -641.1,-1.48 -891.42,-845.08 -1102.43,-986.03 2.37,237.15 82.97,367.28 127.76,572.1 -107.2,-47.05 -68.41,-88.94 -174.2,-155.87 -140.52,175.6 -62.31,310.83 -97.55,527.67 -173.06,-87.19 -365.89,-401.66 -500.87,-422.62 -14,175.84 18.01,252.42 39.46,408.85 -247.38,-36.73 -312.61,-129.72 -500.34,-222.74z"/>
  <path class="fil5" d="M17708.05 12294.44c171.82,-190.92 367.71,-322.37 603.64,-612.54 109.36,-134.5 436.64,-580.2 499.78,-750.16 330.04,45.3 306.64,202.86 277.64,507.21 264.57,-185.36 -41.84,-904.24 -500.94,-452.31 -84.97,83.64 -152.31,148.16 -222.61,222.87 -65.25,69.36 -158.26,168.06 -235.64,236.78 -91.58,81.32 -166.57,132.15 -254.32,219.14 -61,60.48 -397.85,479.08 -167.55,629.01z"/>
  <path class="fil6" d="M8284.97 17006.7c352.58,-36.93 1087.87,-537.23 1216.98,-561.82 572.07,-108.96 894.37,174.33 1362.76,373.86 290.2,123.64 446.79,234.99 616.03,113.83 165.07,-118.18 235.3,-362.55 248.28,-613.88 15.84,-306.93 -257.87,-1116.48 -415.76,-1309.28 -184.16,26.32 -609.85,310.64 -745.54,405.39 -129.65,90.53 -206.66,148.15 -331.6,246.09 -180.41,141.42 -728.29,150.5 -891.71,-26.91 -211.06,-229.11 -822.75,-503.56 -1135.25,-558.03 -71.05,326.5 -215.64,639.98 -237.69,1004.6 -50.61,836.71 199.64,768.18 313.5,926.15z"/>
  <path class="fil7" d="M8460.19 12197.61c266.06,388.51 1781.2,437.54 2496.03,165.08 54.8,-20.89 95.49,-40.82 144.55,-64.67l100.33 -59.07c35.98,-31.78 14.78,-9.88 38.44,-44.31 -141.6,-227.41 -738.11,-366.49 -1024.52,-335.34 -129.69,14.11 -267.26,96.14 -371.83,94.08 -180.69,-3.57 -231.71,-177.82 -774.02,-57.44 -236.86,52.57 -520.61,156.36 -608.98,301.67z"/>
  <path class="fil8" d="M610.84 11407.43c-20.24,-275.23 -37.99,-425.03 248.87,-473.42l803.4 1087.88c97.26,125.75 235.9,178.85 302.69,339.56 191.64,-187.27 51.15,-520.02 -100.39,-647.43 -164.27,-138.11 -872.33,-850.07 -1015.2,-874.09 -139.38,-23.44 -252.84,70.9 -287.83,163.99 -25.25,67.16 -33.2,147.47 -30.37,220.14 7.32,188.33 76.29,181.46 78.83,183.37z"/>
 </g>
</svg>
