<?xml version="1.0" encoding="UTF-8"?>
<!DOCTYPE svg PUBLIC "-//W3C//DTD SVG 1.1//EN" "http://www.w3.org/Graphics/SVG/1.1/DTD/svg11.dtd">
<!-- Creator: CorelDRAW (Versión de evaluación) -->
<svg xmlns="http://www.w3.org/2000/svg" xml:space="preserve" width="200mm" height="200mm" version="1.1" style="shape-rendering:geometricPrecision; text-rendering:geometricPrecision; image-rendering:optimizeQuality; fill-rule:evenodd; clip-rule:evenodd"
viewBox="0 0 20000 20000"
 xmlns:xlink="http://www.w3.org/1999/xlink"
 xmlns:xodm="http://www.corel.com/coreldraw/odm/2003">
 <defs>
  <style type="text/css">
   <![CDATA[
    .str0 {stroke:#2A2929;stroke-width:482.74;stroke-linecap:round;stroke-linejoin:round;stroke-miterlimit:22.9256}
    .fil0 {fill:none}
    .fil19 {fill:#020202}
    .fil26 {fill:#060606}
    .fil17 {fill:#080808}
    .fil23 {fill:#0C0C0C}
    .fil36 {fill:#0E0E0E}
    .fil34 {fill:#101010}
    .fil38 {fill:#121212}
    .fil4 {fill:#181818}
    .fil3 {fill:#1A1A1A}
    .fil32 {fill:#1D1D1D}
    .fil30 {fill:#1E1E1E}
    .fil43 {fill:#202020}
    .fil33 {fill:#262625}
    .fil35 {fill:#2C2C2C}
    .fil47 {fill:#343434}
    .fil46 {fill:#373737}
    .fil41 {fill:#3B3B3B}
    .fil40 {fill:#3C3C3C}
    .fil39 {fill:#4D4D4D}
    .fil31 {fill:#606060}
    .fil37 {fill:#676767}
    .fil11 {fill:#686868}
    .fil8 {fill:dimgray}
    .fil24 {fill:#6A6A6A}
    .fil44 {fill:#6C6C6C}
    .fil42 {fill:#717171}
    .fil28 {fill:#895B5B}
    .fil18 {fill:#8F8F8F}
    .fil14 {fill:#909090}
    .fil15 {fill:#919191}
    .fil25 {fill:#995859}
    .fil27 {fill:#A45456}
    .fil45 {fill:#ADADAD}
    .fil13 {fill:#B8B8B8}
    .fil21 {fill:#B9B9B9}
    .fil22 {fill:#BABABA}
    .fil5 {fill:#DFDFDF}
    .fil29 {fill:#E6E6E6}
    .fil6 {fill:#E8E8E8}
    .fil20 {fill:#F3F3F3}
    .fil9 {fill:#F6F6F6}
    .fil7 {fill:#F7F7F7}
    .fil10 {fill:#F9F9F9}
    .fil12 {fill:#FAFAFA}
    .fil2 {fill:#FCFCFC}
    .fil16 {fill:#FDFDFD}
    .fil1 {fill:white}
   ]]>
  </style>
 </defs>
 <g id="Capa_x0020_1">
  <metadata id="CorelCorpID_0Corel-Layer"/>
  <g id="_2412207973360">
   <g>
    <polygon class="fil0 str0" points="5068.3,9690.49 5068.3,9728.86 5113.02,9696.88 "/>
    <polygon id="_1" class="fil1" points="5068.3,9690.49 5068.3,9728.86 5113.02,9696.88 "/>
   </g>
   <rect class="fil2" x="9842.5" y="6589.21" width="4399.24" height="3778.32"/>
   <path class="fil3" d="M7329.64 17098.9c-87.56,-32.99 -43,-16.56 -90.12,-44.11l-99.28 -63.23c21.43,429.57 18.36,265.87 -31.12,329.16 -201.02,-270.61 11.72,-195.43 5.28,-717.59 -0.35,-27.49 -1.8,-102.66 4.96,-127.49 46.48,-170.85 4.64,-43.99 79.78,-96.28 20.04,38.96 117.04,627.18 130.5,719.54z"/>
   <path class="fil3" d="M16622.9 9573.5c23,-157.1 102.85,-278.75 143.9,-457.85 52.73,-230.28 17.98,-425.11 21.1,-658.78 204.25,274.65 137.96,986.42 -165,1116.63z"/>
   <path class="fil4" d="M12518.58 6701.14c180.17,2.75 88.06,-18.92 115.33,65.13 -47.61,54.95 -75.23,100.92 -126.1,160.48 -8.53,10.02 -46.51,43.23 -65.73,70.24 -49.32,69.49 -31.03,41.18 -46.95,109.71 -176,0 -36.97,-32.26 -53.34,-81.65 -2.78,-8.37 -5.12,-40 -6.7,-47.52l-5.34 -35.52c-107.62,85.48 -275.78,223.72 -413.48,276.1 63.98,-162.41 325.83,-487.17 429.91,-549.83 83.11,-50.02 9.48,-23.66 118.62,78.68l53.78 -45.82z"/>
   <path class="fil4" d="M19078.39 9504.62c-62.98,191.64 -550.91,1024.81 -697.43,1101.08 160.43,-395.22 414.44,-949.44 697.43,-1101.08z"/>
   <path class="fil5" d="M10362.58 1428.72c260.71,-140.29 385.14,-390.42 588.19,-559.34 156.28,-130.02 542.91,-397.44 741.03,-458.99 106.73,58.36 159.19,-49.07 -300.34,271.55 -148.92,103.86 -307.82,222.51 -407.67,311.33 -151.36,134.61 -94.26,146.18 -370.36,348.84 -326.85,239.89 -180.42,230.79 -418.76,325.14 46.6,-122.69 95.58,-160.89 167.91,-238.53z"/>
   <path class="fil5" d="M13552.43 8279.45l-25.06 -269.06c78.99,-71.79 5.53,-22.87 125.09,-42.27l-11.37 277.8 -88.66 33.53z"/>
   <path class="fil6" d="M5664.35 12267.71c-260.21,-115.02 -869.03,-756.89 -882.37,-1243.34l624.75 106.27c-71.03,-350.9 -427.07,-1212.03 -176.98,-1577.93l325.81 825.84c213.94,-935.67 -57.67,-246.69 359.39,-1373.3 87.02,40.63 104.87,-58.27 -35.33,340.84 -184.84,526.1 -150.12,986.89 -255.65,1271.84 -91.1,-100.2 -88.98,-131.32 -148.61,-250.32l-182.73 -257.45c5.97,587.11 177.17,726.62 322.96,1175.53l-625.79 -68.19c100.83,419.68 363.18,644.31 538.61,851.08 38.36,45.22 65.54,72.36 102.67,122.69 58.1,78.87 65.84,25.73 33.27,76.44z"/>
   <path class="fil6" d="M10322.67 1396.4c-224.12,154.95 -311.65,287.6 -509.07,451.18 -121.15,100.39 -367.39,414.63 -471.94,467.93 -5.69,-190.37 55.77,-238.88 152.86,-337.02 218.09,-220.46 586.74,-579.56 864.2,-686.27l-36.05 104.18z"/>
   <path class="fil7" d="M11833.23 4479.1c-88.19,129.8 -200.33,245.86 -358.57,300.84l-77.23 -227.75c-278.85,93.78 -238.34,399.39 -507.84,426.31 -54.47,-189.21 77.04,-238.37 -56.81,-397.69 -72.67,127.56 -372.09,597.07 -594.67,615.62 -41.67,-389.91 512.36,-1367.48 992.2,-1512.55 -333.7,597.77 -430.48,70.27 -430.48,770.1l690.97 -3.22c255.94,-7.62 170.85,-41.65 342.43,28.34z"/>
   <path class="fil8" d="M6431.16 19422.6c42.15,102.12 -40.38,127.78 225.89,81.99l749.75 -211.8c237.52,-83.79 733.13,-295.5 873.87,-436.36 295.25,-295.47 99.5,-1026.01 1128.86,-1464.97 -62.76,140.08 -58.17,105.1 -158.94,231.9 -422.27,531 -607.94,1310.1 -750.48,1498.01 -240.83,317.47 -1648.86,471.25 -2107.85,449.64 -6.54,-124.53 -12.48,-67.33 38.9,-148.41z"/>
   <path class="fil8" d="M13589.71 4358.81c-197.1,-5.03 -381.92,-32.71 -572.61,19.9 -212.75,58.71 -221.28,144.56 -382.87,217.43 -68,-50.43 -1.08,-41.43 -113.03,4.01 -24.64,9.99 -111.28,66.13 -138.55,84.18 -107.69,71.19 -188.8,127.46 -300.18,197.61 -759.96,478.51 -253.03,230.66 -566.93,247.35 -70.74,100.73 -106.86,207.4 -220.89,273.57 -46.55,-76.94 -36.85,-80.99 -72.55,-152.08 -69.99,-139.47 -16.21,-77.73 -100.77,-138.21l138.81 -210.72c191.13,26.03 61.17,61.17 276.64,89.64 385.52,-445.85 1112.02,-734.33 1692.91,-843.15 -55.46,64.8 -4.77,82.24 -220.02,94.82l172.62 49.86c172.59,26.23 218.72,-14.19 407.42,65.79z"/>
   <path class="fil8" d="M11565.85 2277.22c-124.88,147.68 -125.07,266.68 -106.3,511.94 11.35,148.45 53.31,310.07 72.93,463.67l639.32 83.16c-1035.24,-31.72 -522.63,34.66 -1004.78,92.3 13.08,-280.15 58.46,-589.58 65.16,-867.42 9.07,-376.08 -292.98,-542.88 17.47,-719.13 6.76,8.46 15.42,12.1 17.6,27.39l44.81 89.14c84.96,222.35 23.88,302.29 253.79,318.95z"/>
   <path class="fil9" d="M11137 7305.92c146.05,-74.03 238.57,-191.45 284.73,-363.91 -165.35,47.94 -242.23,187.47 -284.73,363.91zm1260.94 -732.84l135.52 -2.31 -14.88 130.37 -53.78 45.82c-109.14,-102.34 -35.51,-128.7 -118.62,-78.68 -104.08,62.66 -365.93,387.42 -429.91,549.83 137.7,-52.38 305.86,-190.62 413.48,-276.1l5.34 35.52c1.58,7.52 3.92,39.15 6.7,47.52 16.37,49.39 -122.66,81.65 53.34,81.65 8.21,7.9 18.36,11.88 21.04,26.89 2.34,13.15 117.64,141.43 48.63,262.99l-691.42 -5.85c-101.62,2.85 -161.08,14.79 -279.86,27.87l162.98 -496.87c-123.01,95.11 -264.98,356.14 -274.52,430.8 -44.3,347.64 -49.48,119.31 92.49,175.97 -10.59,10.68 -33.97,0.73 -41.9,16.59 -37.22,74.41 -192.4,-31.73 -243.11,-72.46 -8.03,-6.44 -17.73,-21.86 -29.83,-28.24 -7.14,11.56 -18.52,14.66 -22.25,34.18l-108.88 198.18c-48.19,78.87 89.67,1.93 -61.49,56.88 -64.62,23.48 -65.38,10.97 -133.6,17.38 -18.77,188.57 46.74,300.43 -58.45,411.59 -5.12,5.4 -16.15,15.48 -21.61,20.22l-43.26 30.27c-83.23,43.2 -43.48,17.89 -152.56,9.07 -7.29,-0.6 -24.23,-5.62 -36.24,-3.82 106.8,-462.53 568.57,-933.3 622.07,-1200.11 256.09,-114.29 383.88,-291.65 961.42,-541.59 4.8,8.22 4.67,22.88 5.53,28.03l39.68 206.93 247.95 -138.52z"/>
   <path class="fil9" d="M9764.72 16888.18l-35.71 204.37c134.35,-70.75 125.32,-140.61 222.76,-247l-20.53 -165.1c120.1,2.37 59.08,-40.38 148.03,8.66 -50.62,-142.79 -27.05,-105.28 -115.58,-192.81l295.06 -7.74c-83.26,229.18 -204.03,294.84 -275.85,580.04l205 -154.99c63.14,270.45 -183.01,213.82 -32.41,474.95l260.39 27.3c82.28,-28.38 106.96,-29.51 200.11,-71.92 -72.71,182.38 -257.62,465.28 -446.85,515.42l-179.64 -472.67c-237.96,223.78 -340.37,558.75 -588.47,658.47 -2.88,-260.34 80.48,-396.43 117.86,-592.78 131.28,-106.32 49.51,-28.59 114.79,-350.86 105.25,-520 51,-794.39 -26.73,-1344.51 172.84,56.31 203.9,171.92 202.51,456.65l-109.2 -237.8c78.04,376.14 60.38,532.16 64.46,912.32z"/>
   <path class="fil10" d="M8466.75 7270.79l-87.91 1.17c6.83,415.25 628.95,2424.36 800.56,2618.66 212.91,-320.69 -625.35,-2194.78 -731.39,-2600.87 193.79,112.1 97.07,89.61 326.53,89.61 109.39,249.9 -85.57,365.36 205.76,452.26 116.47,34.75 29.17,3.82 41.68,-2.22 -43.32,103.68 -51.31,-0.66 -66.95,271.05l181.21 -68.6c-30.05,465.02 140.01,808.84 247.09,1215.47 104.09,36.62 8.85,20.76 49.8,-67.31 174.77,68.1 137.04,-97.16 94.76,188.86 -13.17,89.49 -63.38,118.24 -64.68,122 -37.41,107.81 31.44,166.62 31.44,363.98 -29.83,-48.54 64.37,-105.35 -71.22,-3.61 -4.8,3.61 -16.02,13.05 -21.01,18.11l-150.6 198.91c-2.05,0.19 -11.78,-5.34 -13.96,-5.44l-103.45 16.84c20.76,70.66 37.85,256.01 65.72,362.87 -101.97,-61.08 -26.76,-1.23 -114.26,-89.42 -45.53,-45.88 -67.52,-83.7 -96.97,-127.12 -93.63,-137.98 -72.17,-140.67 -200.62,-239.73 50.97,-689.81 -567.21,-1532.33 -751.48,-2156.45 81.46,-132.01 -49.23,-43.76 94.38,-64.33 185.7,-26.57 -66.8,61.27 114.29,19.12 45.94,-229.12 13.71,-437.03 -67.4,-663.9 237.77,-52.49 122.6,-2.18 337.27,2.27l-48.59 147.82z"/>
   <path class="fil10" d="M13553.88 11359.18c-256.98,-85.57 -120.77,-66.89 -254.05,60.64l-94.06 60.66c-6.1,3.1 -17.06,11.51 -24.02,14.38l-311.64 25.44c-39.98,140.26 2.43,146.2 -56.47,236.25l-348.52 -5.56c49.86,190.98 88.09,47.49 -45.53,84.12 26.29,154.95 43.85,-7.87 84.61,180.04 -4.61,1.45 -13.2,-7.33 -14.25,-2.53 -24.04,114.73 53.18,-9.98 -29.35,-2.21l-265.39 80.04c-12.7,4.23 -30.87,8.02 -45.22,14.69 83.07,234.83 -40.16,157.48 75.52,335.12 118.97,182.77 78.55,-103.95 171.89,204.73l79.28 -155.18c146.68,-206.97 -159.79,39.21 44.3,-46.99 20.7,163.84 -55.92,246.53 40.16,369.16 101.81,129.93 -11.25,19.97 66.96,43.54 398.86,120.26 -375.22,-65.41 172.02,-19.37 294.71,24.84 -91.16,2.34 177.39,104.65 -177.14,515.68 -563.74,-103.38 -716.32,-272.46 -144.69,-160.33 -448.15,-581.87 -617.99,-674.61l144.56 -193.26c2.91,-13.93 15.67,-15.07 24.36,-21.55 7.99,178.37 15.29,228.33 247.41,236.01 36.08,-98.56 81.14,-235.59 -22.09,-323.12 -154.19,-130.72 71.16,-42.15 -180.1,98.3l26.19 -384.35c-20.44,-155.59 -10.49,-60.48 11.98,-89.17 203.42,139.63 214.23,390.39 439.84,523.73 -60.67,-217.36 -486.23,-1027.24 -322.14,-1130.57 237.36,-71.22 11.28,53.59 226.55,418.36l138.46 -242.26c18.27,119.94 33.12,43.38 71.51,93.94 39.02,284.79 74.07,507.52 258.22,603.42 -17.48,-310.95 -137.64,-505.47 -193.73,-772.25 -26.07,-276.32 -29.29,-80.38 40.6,-161.84 183.68,211.7 398.29,639.85 583.14,780.9l-0.13 -400.88c74.51,49.39 125.57,89.05 208.48,147.09 39.15,27.36 76,50.53 106.74,76.78 92.52,79.06 34.19,16.02 100.83,106.17z"/>
   <path class="fil10" d="M17638.13 5156.43l-25.18 117.29c-132.58,-257.9 -476.46,-478.39 -733.35,-629.55 16.21,181.34 65.53,117.98 68,305.07 9.41,-2.65 40.92,20.22 -87.65,-12.67l-80.83 -49.13c-100.83,-137.77 -355.85,-285.58 -513.24,-360.53 39.72,126.64 120.61,208.42 200.86,335.91l-587.3 -252.65 -463.54 -252.28c-29.89,-27.58 -33.87,-42.75 -82.82,-73.15 -107.81,-66.89 -37.31,-22.65 -126.77,-54.91l-170.66 -135.65c9.2,-6.95 24.11,-11.76 31.35,-14.47l138.52 -42.72c85.79,-21.68 22.12,22.94 147.56,-42.22l-139.69 -204.59 193.82 15.79c767.41,273.74 2178.31,529.46 2230.92,1350.46z"/>
   <path class="fil10" d="M5758.73 6081.2l-647.5 22.02c-82.15,-108.85 -817.69,-1615.05 318.28,-1308.71l185.64 21.36c11.66,-2.28 25.18,-8.47 35.52,-11.5l67.93 -35.14c-149.61,-309.94 -801.1,-301.5 -992.77,-41.74 -276,374.05 -72.8,776.35 16.4,1187.69 -335.63,-127.27 -496.24,-399.2 -505.34,-876.55 -7.39,-386.94 13.81,-649.93 283.87,-732.94 222.55,-68.44 183.71,53.37 205.33,-192.05 89.48,88.47 125.44,93.28 88,317.97l755.88 -23.6c61.58,28.53 -37.61,1.2 86.54,41.93 139.25,45.65 48.12,46.41 192.46,38.07l-55.2 288.99c-2.65,101.02 4.17,99.41 10.43,127.03 -64.93,-34.45 -243.46,63.35 -315.25,107.24 -94.26,-148.73 -112.71,-151.51 -315.06,-196.79 -34.66,90.78 -21.39,93.02 56.18,145.98l-256.07 -66.39 57.16 135.05c4.2,12.96 8.28,25.47 12.23,39.66 3.79,13.65 5.31,25.08 8.59,38.99l70.31 429.73c8.47,226.43 -37.85,37.76 28.97,300.46 241.66,39.4 179.73,55.71 157.87,191.23 15.54,-6.92 35.1,-39.28 43.44,-26.8 17.51,26.39 58.59,-90.75 176,-64.87l230.16 143.68z"/>
   <path class="fil10" d="M12059.06 9557.58c-71.13,283.62 -122.67,167.65 -208.11,624.9l-86.83 234.17 -191.16 -614.67c-87.75,-224.31 0.63,-68.72 -98.3,-134.67 -92.71,193.76 -49.52,413.93 -47.59,638.18 -192.78,-94.54 -488.47,-657.29 -558.11,-871.87 504.65,11.03 620.67,202.57 941.55,45.21 98.84,-48.43 31.47,27.72 78.17,-65.06 66.8,101.46 -18.51,19.44 67.59,96.6 116.75,104.59 -28.75,54.85 102.79,47.21z"/>
   <path class="fil11" d="M16674.18 16482.65c-9.54,-113.97 -27.58,-195.97 -64.84,-285.74 -9.28,-22.4 -30.42,-72.23 -42.53,-90.93 -63.03,-97.42 -33.39,-50.31 -96.53,-99.76 -34.79,65.19 -124.21,-109.52 31.13,254.33 100.38,235.12 50.74,160.11 172.77,222.1zm-355.6 2328.12c-80.19,-111.67 -19.18,-92.87 -115.8,-227.63 -61.59,-85.82 -106.2,-93.72 -179.76,-177.2 39.78,-260.36 648.32,-1159.19 426.82,-1800.25 95.9,-44.74 116.09,17.07 35.89,-188.38 -62.56,-160.3 -64.96,-120.83 -166.52,-168.01 -10.26,-161.81 -65.56,-198.34 -259,-403.34 -220.71,-233.89 -906.25,-778.98 -1214.81,-802.49 59,-100.54 322.27,-596.91 409.73,-716.95 240.3,75.49 1327.55,1300.81 1469.48,1667.63 132.97,343.66 194.08,984.33 107.81,1381.99 -130.84,603.33 -406.31,604.37 -595.55,939.81 78.65,199.19 248.36,331.87 308.55,482.31l-94.47 -93.15c-263.5,-36.94 -70.78,-39.5 -132.37,105.66z"/>
   <path class="fil11" d="M14669.88 19302.52c-420.98,-64.71 -449.6,-188.48 -391.72,-647.4 35.64,-282.33 166.71,-497.35 245.04,-752.59 190.19,-619.64 -213.76,-1144.16 -630.43,-1275.73l39.49 358.79c-148,-82.56 -138.43,-112.14 -297.3,-220.61 -6.19,6.95 -11.31,19.65 -13.65,24.33l-76.37 178.08c-154.51,-70.18 -418.92,-416.71 -457.98,-594.16 156.16,-62.15 227.98,-118.49 377.62,-207.91 373.14,-223.02 336.24,-129.68 262.93,-278.7 242.48,-40.41 120.86,-61.67 268.04,-91.22 165.1,-47.68 44.84,-43.98 133.91,0.22 4.14,546.07 -21.26,591.35 301.86,869.16 566.51,487.05 439.93,708.99 205.67,1714.21 -36.15,155.02 -79.69,298 -88.86,478.13 -2.9,57.32 -0.53,197.74 13.53,250.38 19.59,73.28 3.82,24.14 42.24,97.64l65.98 97.38z"/>
   <path class="fil11" d="M19017.44 3871.95c161.11,-18.64 93.3,56.4 143.77,-100.7 12.1,-37.73 -7.56,-101.75 -20.51,-137.48l-774.97 -1030.88c-118.65,-165.6 -29.19,-270.51 -269.24,-488.75 -208.48,-274.58 -214.17,-536.94 -265.7,-880.25 467.99,395.7 680.36,738.88 901.19,1274.46 31.76,77.07 56.59,169.78 122.44,249.85 144.18,175.27 58.4,75.61 118.94,-92.55 158.37,305.13 716.82,949.25 591.13,1369.03 -239.77,48.03 -418.74,-41.77 -547.05,-162.73z"/>
   <path class="fil11" d="M7739.43 13987.54c17.16,-475.61 60.19,-295.82 -214.39,-631.23 -123.93,-151.38 -254.99,-334.93 -375.85,-526.16 -175.81,-278.22 -506.1,-951.28 -559.66,-1309.13l928.94 1074.52c303.53,319.61 421.35,278.06 383.72,563.16 -28.91,218.69 -23.54,686.87 -162.76,828.84z"/>
   <path class="fil11" d="M17176.4 4177.41c276.98,-179.86 322.58,-536.66 370.45,-955.04 177.48,-46.2 236,-205.52 342.71,-230.48 361.28,-84.49 -120.2,392.67 -188.55,614.99 -78.83,256.6 -126.7,582.09 -240.58,800.9 -110.91,-43.54 -189.62,-126.64 -284.03,-230.37z"/>
   <path class="fil11" d="M10799.83 7239.95c141.87,-667.22 -192.31,-945.47 -350.42,-1177.36l-38.87 -62.25c-6.1,-10.46 -13.43,-27.62 -18.26,-36.5 -4.99,-9.16 -12.61,-25.02 -17.92,-37.98l549.68 239.45c8.53,198.62 6.35,389.47 11.24,584.72 6.77,269.9 60.99,342.23 -135.45,489.92z"/>
   <path class="fil12" d="M15452.21 5004.51l-75.11 67.46c-294.9,-25.94 -97.29,39.37 -256.99,-100.07l-38.39 40.51c-170.66,181.97 92.21,26.95 -182.41,11.34l-205.35 -41.8c-3.38,7.96 -7.93,25.75 -12.61,35.07 -4.46,8.82 -9.64,22.59 -15.29,31.82 -5.44,8.88 -12.17,19.9 -18.74,28.5l-151.17 116.85 12.07 -206.18c-625.12,2.37 -841.82,802.33 -870.32,1437.92 -443.51,-123.99 -595.97,-250.29 -504.11,-839.71 33.87,-217.71 116.25,-345.55 216.98,-471.03 59.18,-73.75 80.45,-91.66 154.83,-160.73 157.61,-146.3 117.89,-25.79 133.59,-228.01 -486.92,5.12 -833.92,658.43 -793.07,1357.02 -120.29,-62.56 -17,3.32 -95.71,-64.01 -237.71,-203.46 -330.1,-498.62 -205.67,-812.51 160.71,-405.4 178.15,-615.11 683.21,-635.36 358.44,-14.38 858.89,54.6 1202.8,123.29 168.16,33.56 354.21,93.28 504.01,132.4l389.22 97.63c123.64,54.95 62.98,23.61 128.23,79.6z"/>
   <path class="fil2" d="M14202.9 8906.19c9.89,-11.25 24.58,-31.54 30.2,-38.99 4.43,-5.85 16.56,-22.25 21.11,-28.31 5.25,-6.96 15.83,-22 24.24,-32.68 127.71,-17.85 496.62,-249.97 583.64,-391.52 17.41,-514.67 -522.69,-642.89 -1000.16,-701.95 -171.71,-45.78 -577.8,-95.67 -725.65,70.12 -156.97,176 1.05,451.88 50.06,659.19 -48.19,20.1 10.3,65.34 -282.68,-27.36l-21.33 -341.45c-7.64,-271.01 39.06,-228.29 48.76,-307.98 12.51,-102.82 -64.52,-255.66 -106.04,-340.47l134.82 112.4c60.64,-62.6 10.18,-49.83 137.49,-47.24 264.85,5.37 85.53,116.5 228.45,58.42 243.52,-98.99 64.27,-20.06 398.35,-52.89 235.88,-23.19 241.12,-46.45 361.07,41.52 -69.8,-160.93 -299.52,-130.97 -630.09,-135.05 7.14,-13.62 17.91,-48.98 20.79,-41.14 2.72,7.46 15.32,-30.3 18.45,-39.78 98.97,-301.76 -20.88,195.78 22.78,-67.75 15.9,-96.05 53.31,72.42 -17,-98.33 277.34,50.4 660.84,193.41 932.04,284.44 1009.45,338.95 2045.07,444.14 1987.15,1553.79 -95.96,-137.29 -105.98,-286.59 -214.49,-393.87 -144.65,2390.49 -2009.2,1066.05 -2001.96,306.88z"/>
   <path class="fil2" d="M13304.76 3566.15l221.95 3.7c-42.31,114.06 -126.36,161.43 -209.69,204.68l80.23 232.09c-149.55,6.26 -148,6.29 -297.74,40.29l-249.15 98.71c-162.64,13.55 -355.41,72.58 -521.52,126.2 -104.84,33.87 -176.22,62.28 -258.35,104.97 -153.84,79.97 -96.72,83.51 -237.26,102.31 -171.58,-69.99 -86.49,-35.96 -342.43,-28.34l-690.97 3.22c0,-699.83 96.78,-172.33 430.48,-770.1 330.99,-288.23 1554.39,-161.4 2074.45,-117.73z"/>
   <path class="fil13" d="M18382.26 10312.44c-121.27,78.49 -197.8,270.86 -190.66,426.45 166.93,-104.53 150.59,-231.68 190.66,-426.45zm696.13 -807.82c-282.99,151.64 -537,705.86 -697.43,1101.08 146.52,-76.27 634.45,-909.44 697.43,-1101.08zm-1078.11 -460.54l-6.29 138.94c349.78,117.32 583.76,-180.68 786.4,-481.74 26.16,-38.9 60.86,-100.23 88.92,-136.06 60.92,-77.89 24.58,-66.36 116.12,-104.87 -20.82,140.01 -93.4,406.09 -39.85,509.54 365.62,-229.9 585.26,-669.49 528.38,-1239.96 538.99,660.71 -604.37,3639.74 -1068.44,3623.5 -175.75,-6.16 -391.94,-476.62 -540.04,-599.34 -150.69,258.46 -212.43,793.32 -405.05,972.83 -157.61,-158.28 -77.64,-388.85 -180.01,-564.72 -224.47,280.78 -418.23,691.11 -656.41,582.92 -57.86,-563.49 134.44,-694.14 -378.73,-551.92l-139.73 -436.78 634.8 -713.63c5.47,8.88 7.55,14.85 8.63,30.11 1.07,15.77 6.57,24.27 8.12,31.35l73.24 259.41c582.34,-370.51 607.65,-994.66 513.08,-1831.78 202.23,96.98 350.39,302.49 469.92,517.73l186.94 -5.53z"/>
   <path class="fil13" d="M16622.9 9573.5c302.96,-130.21 369.25,-841.98 165,-1116.63 -3.12,233.67 31.63,428.5 -21.1,658.78 -41.05,179.1 -120.9,300.75 -143.9,457.85zm-3633.92 -3025.76c256.82,2.87 499.21,169.2 723.33,262.23 610.88,253.51 971.98,208.48 2236.14,820.97 209.3,101.4 489.48,217.14 662.47,326.53 227.92,144.15 443.51,229.24 525.57,512.2 137.73,475.01 213.22,1401.73 -222.01,1623.46l29.2 -434.79c-285.61,147.02 -590.47,825.33 -1030.24,1063.36 26.22,-182.89 143.58,-492.04 61.8,-665.96 -178.4,108.7 -251.83,647.85 -585.09,824.99 -227.95,-283.75 -76.31,-563.8 -661.63,-949.42 -324.22,-213.57 -714.01,-427.48 -684.21,-976.3l158.59 -48.82c-7.24,759.17 1857.31,2083.61 2001.96,-306.88 108.51,107.28 118.53,256.58 214.49,393.87 57.92,-1109.65 -977.7,-1214.84 -1987.15,-1553.79 -271.2,-91.03 -654.7,-234.04 -932.04,-284.44 -97.1,-62.31 -306.15,-122.91 -443.41,-188.54 -143.99,-68.85 -268.55,-169.87 -422.84,-200.14 -27.27,-84.05 64.84,-62.38 -115.33,-65.13l14.88 -130.37 -135.52 2.31c26.92,-21.83 54.19,-69.83 151.83,-54.98 110.78,16.78 49.86,92.83 287.73,60.6 62.02,-8.4 101.24,-20.19 151.48,-30.96z"/>
   <path class="fil13" d="M15303.25 12527.79c35.52,252.43 -21.73,451.06 -40.63,702.51l-107.21 37.48c-56.72,13.87 -14.03,-17.73 -59.88,8.56l-191.29 728.01c-4.71,8.69 -8.94,13.11 -10.87,27.55l-42.88 101.59c-5.69,12.48 -14.47,29.45 -19.59,40.38 -5.43,11.69 -13.24,29.23 -21.42,42.97 -66.61,-125.88 40.41,-138.33 -157.86,21.68 -190.25,153.57 -326.19,308.27 -658.72,119.19 -256.01,-145.57 -454.63,-431.15 -575.21,-689.72l-68.91 144.12c-0.7,2.31 -24.55,128.13 -28,146.8 -22.24,120.48 -33.08,172.18 -74,267.35 -444.51,-65.85 -1016.56,-865.87 -1287.41,-1206.71 -140.65,223.42 -88.98,366.15 -349.7,501.89 -226.01,-103.42 -346.31,-430.17 -451.15,-694.48l-230.19 -628.7c-73.37,-201.22 -6.16,-162.67 -132.68,-142.22l24.05 -386.19c112.24,138.78 337.62,1021.55 801.7,1115.46 28.88,-72.77 49.98,-122.12 80.54,-225.64 7.93,-26.89 34.16,-118.24 42.31,-138.65 43.45,-108.73 6.41,-37.06 50.02,-91.35 177.67,332.47 756.32,1137.71 1210.6,1132.65 168.95,-185.85 167.12,-387.89 185.6,-687.69 87.44,34.89 330.45,366.44 516.22,563.77 884.57,939.52 1325.3,275.28 1358,-929.64 181.4,51 99.5,61.9 238.56,119.03z"/>
   <path class="fil13" d="M15654.34 12538.47c207.53,51.31 45.31,21.04 112.42,-28.28 -28.18,-852.25 -390.48,-1209.24 -1173.7,-1343.03l33.91 293.29 -521.9 -171.57c77.95,138.43 117.51,110.18 155.43,268.42 -206.84,-60.67 -515.83,-189.18 -706.62,-198.12 -66.64,-90.15 -8.31,-27.11 -100.83,-106.17 -30.74,-26.25 -67.59,-49.42 -106.74,-76.78 -82.91,-58.04 -133.97,-97.7 -208.48,-147.09l0.13 400.88c-184.85,-141.05 -399.46,-569.2 -583.14,-780.9 -69.89,81.46 -66.67,-114.48 -40.6,161.84 -80.7,40.86 -55.07,7.9 -64.49,168.83 -38.39,-50.56 -53.24,26 -71.51,-93.94l-138.46 242.26c-215.27,-364.77 10.81,-489.58 -226.55,-418.36 91.16,-261.75 259.45,-482.37 451.59,-616.12 219.07,91.79 290.76,349.69 590.25,471l-57.07 -352.26c354.46,165.89 681.56,594.83 1153.13,709.69 -41.68,-216.29 -80.99,-228.86 -146.96,-386 211.04,43.04 272.18,223.21 578.96,271.05 -21.86,-174.74 -36.37,-129.24 -92.93,-284.51l497.22 92.01c-57.06,-163.23 -144.84,-155.77 -92.29,-297.74 282.95,72.07 281.34,585.98 450.04,784.66 125.73,-57.85 248.36,-224.09 360.06,-388.52 6.35,9.07 8.09,24.96 10.58,31.41 114.55,296.41 124.88,56.3 194.87,356.48 26.13,112.14 30.65,419.15 35.83,552.61 11.18,287.86 103.17,782.74 -61.24,996.28 -103.1,-10.33 -58.93,9.6 -150.75,-36.18 -79.69,-39.72 -32.17,-14.66 -80.16,-75.14z"/>
   <path class="fil13" d="M13774.59 10538.72c-139.85,-68.92 -713.22,-503.86 -846.88,-638.81 136.97,-179.45 343.75,-130.44 685.76,-516.6 110.94,-125.28 94.26,-140.7 216.67,-210.97 280.4,635.14 423.12,542.34 892.6,952.73l-39.05 301.6 -395.45 -67.4c-1.93,6.92 -6.41,22.5 -8.21,29.55l-15.01 93.05c-185.01,-90.91 -404.2,-248.26 -625.45,-307.85 14.22,163.2 71.73,220.2 135.02,364.7z"/>
   <path class="fil14" d="M16795.01 2000.07c301.92,-166.83 605.23,-522.59 894.06,-589.58 62.94,187.53 144.97,488.03 261.25,668.23 180.58,279.92 111.16,111.63 146.17,35.42 240.05,218.24 150.59,323.15 269.24,488.75l774.97 1030.88c12.95,35.73 32.61,99.75 20.51,137.48 -50.47,157.1 17.34,82.06 -143.77,100.7 -401.48,-325.9 -643.33,-701.85 -940.32,-1070.97 -287.85,-357.69 -643.04,-870.33 -1239.54,-431.69 -60.58,60.1 -74.01,-88.54 -40.04,97.89 158.43,65.79 452.1,425.4 563.13,636.63 154.77,125.35 -19.74,46.51 186.18,118.56 -47.87,418.38 -93.47,775.18 -370.45,955.04 -247,-60.92 -1556.69,-557.01 -1769.19,-371.44l-193.82 -15.79 139.69 204.59c-125.44,65.16 -61.77,20.54 -147.56,42.22l-138.52 42.72c-7.24,2.71 -22.15,7.52 -31.35,14.47l170.66 135.65c-242.76,-85.67 -43.06,-44.53 -125.38,83.54l381.29 300.34c-74.28,77 3.35,30.68 -132.83,64.77l-1739.68 -319.67c-188.7,-79.98 -234.83,-39.56 -407.42,-65.79l-172.62 -49.86c215.25,-12.58 164.56,-30.02 220.02,-94.82 32.67,-85.38 17.82,-13.62 -44.78,-58.3l-334.55 55.58 249.15 -98.71c149.74,-34 148.19,-34.03 297.74,-40.29l-80.23 -232.09c83.33,-43.25 167.38,-90.62 209.69,-204.68l-221.95 -3.7c-59.91,-141.59 -347.92,-142.73 -496.9,-164.34 -217.9,-31.6 -417.5,-57.07 -636.06,-65.82l-639.32 -83.16c-19.62,-153.6 -61.58,-315.22 -72.93,-463.67 -18.77,-245.26 -18.58,-364.26 106.3,-511.94l98.9 -1.77c175.02,-63.33 378.44,-108.16 556.69,-174.17 75.39,-27.93 200.11,-89.58 236.51,-135.52 96.81,-122.29 63.1,-168.86 -12.96,-239.55 -606.07,-1195.02 -2475.9,1279.52 -3103.33,589.3 104.55,-53.3 350.79,-367.54 471.94,-467.93 197.42,-163.58 284.95,-296.23 509.07,-451.18l39.91 32.32c-72.33,77.64 -121.31,115.84 -167.91,238.53 238.34,-94.35 91.91,-85.25 418.76,-325.14 276.1,-202.66 219,-214.23 370.36,-348.84 99.85,-88.82 258.75,-207.47 407.67,-311.33 459.53,-320.62 407.07,-213.19 300.34,-271.55 40.03,-35.64 2.46,-28.12 86.01,-59.5 331.36,-124.4 515.48,308.84 634.45,554.16 165.79,342.05 295.69,661.06 428.27,1000.29l299.36 15.58 36.97 -192.56c1.36,-5.91 2.81,-20.76 8.05,-29.54l1000.86 355.76c4.68,-193.6 -33.87,-304.07 23.7,-446.92 136.18,-31.69 736.29,436.52 990.46,584.4l-178.84 -598.05c507.77,139.25 658.08,624.21 954.15,738.66l84.94 -406.22c302.92,12.83 276.67,163.26 196.63,361.54l165.54 85.16c224.85,-177.71 186.96,-258 372.66,-373.08z"/>
   <path class="fil14" d="M14915.39 14472.63c-21.67,271.17 -218.78,332.28 -231.07,591.03l161.08 -20.19c308.56,23.51 994.1,568.6 1214.81,802.49 193.44,205 248.74,241.53 259,403.34 4.84,184.79 59.82,264.19 130.63,356.39 221.5,641.06 -387.04,1539.89 -426.82,1800.25 73.56,83.48 118.17,91.38 179.76,177.2 96.62,134.76 35.61,115.96 115.8,227.63 70.91,43.98 223.4,187.41 279.83,287.67 139.7,248.29 22.12,257.67 -218.15,242.57 -14.6,-28.12 -176.66,-644.4 -524.58,-695.91 8.91,307.16 331.33,289.22 284.44,691.77 -333.74,47.97 -1147.63,20.82 -1470.24,-34.35l-65.98 -97.38c-38.42,-73.5 -22.65,-24.36 -42.24,-97.64 -14.06,-52.64 -16.43,-193.06 -13.53,-250.38 9.17,-180.13 52.71,-323.11 88.86,-478.13 234.26,-1005.22 360.84,-1227.16 -205.67,-1714.21 -323.12,-277.81 -297.72,-323.09 -301.86,-869.16 -89.07,-44.2 31.19,-47.9 -133.91,-0.22 93.18,-190.47 157.64,-226.84 274.05,-401.73 81.87,-122.98 138.81,-234.08 210.6,-372 120.86,-232.05 250.25,-525.31 329.28,-804.83 8.18,-13.74 15.99,-31.28 21.42,-42.97 5.12,-10.93 13.9,-27.9 19.59,-40.38l42.88 -101.59c1.93,-14.44 6.16,-18.86 10.87,-27.55l11.15 468.28z"/>
   <path class="fil14" d="M6589.53 11521.02c53.56,357.85 383.85,1030.91 559.66,1309.13 120.86,191.23 251.92,374.78 375.85,526.16 274.58,335.41 231.55,155.62 214.39,631.23 -31.91,187.31 -284.88,273.67 -489.7,307.41 -6.6,-136.78 24.24,-184.87 37.44,-349.18 -488.12,90.46 -414.53,229.78 -1050.27,113.4 128.88,-238.21 548.03,-263.4 578.24,-365.2 4.51,-15.14 18.39,-14.98 26.57,-23.51 -663.24,-128.32 -1557.1,-600.8 -1732.44,-1025.25 216.89,-108.51 604.4,-60.35 875.38,-60.8 -58.89,-137.95 -104.36,-86.89 -251.86,-232.33 -59.75,-58.93 -20.07,-11.03 -68.44,-84.37 32.57,-50.71 24.83,2.43 -33.27,-76.44 -37.13,-50.33 -64.31,-77.47 -102.67,-122.69 -175.43,-206.77 -437.78,-431.4 -538.61,-851.08l625.79 68.19c-145.79,-448.91 -316.99,-588.42 -322.96,-1175.53l182.73 257.45c59.63,119 57.51,150.12 148.61,250.32 105.53,-284.95 70.81,-745.74 255.65,-1271.84 140.2,-399.11 122.35,-300.21 35.33,-340.84 89.64,-149.77 62.56,-132.36 185.29,-206.81 150.97,356.39 35.48,1362.43 275.75,2147.51 62.63,204.69 194.23,426.38 213.54,575.07z"/>
   <path class="fil15" d="M7329.64 17098.9c-13.46,-92.36 -110.46,-680.58 -130.5,-719.54 -75.14,52.29 -33.3,-74.57 -79.78,96.28 -6.76,24.83 -5.31,100 -4.96,127.49 6.44,522.16 -206.3,446.98 -5.28,717.59 49.48,-63.29 52.55,100.41 31.12,-329.16l99.28 63.23c47.12,27.55 2.56,11.12 90.12,44.11zm1870.49 -6656.37c23.48,95.02 -35.17,16.56 88.95,158.43 171.45,196.04 386.69,254.46 483.09,352.66 -38.51,51.67 -76.49,-63.73 22.06,123.52 42.43,80.7 65.28,103.42 109.45,196.57 -112.11,137.29 16.62,1079.72 8.25,1345.18l-86.17 -174.55c-40.63,-89.1 -4.1,-36.84 -56.59,-115.14l-57.6 986.54c-152.36,-65.37 -109.39,-148.35 -268.36,-272.47l163.74 2713.74c77.73,550.12 131.98,824.51 26.73,1344.51 -65.28,322.27 16.49,244.54 -114.79,350.86l24.8 -121.33c-57.16,31.09 -96.06,45.53 -134.16,60.41 -1029.36,438.96 -833.61,1169.5 -1128.86,1464.97 -140.74,140.86 -636.35,352.57 -873.87,436.36l-749.75 211.8c-266.27,45.79 -183.74,20.13 -225.89,-81.99 67.62,-353.61 374.4,-453.65 474.19,-729.72 -452.58,45.5 -562.54,444.86 -718.85,872.22l-356.04 -19.75c-36.91,-304.69 250.95,-479.49 275.15,-727.15 -206.52,-14.86 -268.49,116.59 -342.24,266.3l-125.72 323.12c-35.8,74.66 -20.79,48.97 -58.71,92.17 -348.56,-206.14 -13.43,-574.07 112.01,-711.83 192.75,-211.74 339.93,-319.36 499.18,-581.27 410.77,-675.47 452.13,-1330.27 648.74,-1510.6l-10.75 136.47c67.91,-214.61 196.07,-418.32 300.24,-617.86 92.27,-176.72 194.96,-385.46 291.08,-555.67 787.61,-1394.92 771.4,-597.14 823.94,-1790.27 26.23,-595.42 294.9,-2115.46 209.87,-2244.51 89.33,-424.92 412.13,-1232.27 335.03,-1637.99 128.45,99.06 106.99,101.75 200.62,239.73 29.45,43.42 51.44,81.24 96.97,127.12 87.5,88.19 12.29,28.34 114.26,89.42z"/>
   <path class="fil15" d="M10374.36 5925.86c5.31,12.96 12.93,28.82 17.92,37.98 4.83,8.88 12.16,26.04 18.26,36.5l38.87 62.25c158.11,231.89 492.29,510.14 350.42,1177.36 6.5,158.46 -27.59,127.46 -123.01,190 38.7,-205.36 61.71,-102.82 -206.53,-213.32 -122.94,-50.65 -154.73,-89.3 -274.83,-133.44 80.48,-115.3 72.51,-82.47 195.36,-142.91 -218.37,-65.1 -356.45,-132.27 -483.66,-280.78 106.01,-100.07 169.49,-14.16 285.8,-90.02 -223.59,-169.49 -498.93,-413.81 -605.54,-642.35l312.88 145.6c-125.98,-182.86 -284.44,-283.56 -394.46,-543.99 197.96,49.14 745.23,290.04 868.52,397.12z"/>
   <path class="fil16" d="M9505.84 5528.74c110.02,260.43 268.48,361.13 394.46,543.99l-312.88 -145.6c106.61,228.54 381.95,472.86 605.54,642.35 -116.31,75.86 -179.79,-10.05 -285.8,90.02 127.21,148.51 265.29,215.68 483.66,280.78 -122.85,60.44 -114.88,27.61 -195.36,142.91 120.1,44.14 151.89,82.79 274.83,133.44 268.24,110.5 245.23,7.96 206.53,213.32 -30.75,158.14 -352.51,537.16 -445.15,1136.19 -68.22,441.35 66.29,1100.26 387.89,1234.67 56.43,-83.73 20.16,-46.51 52.26,-115.96l82.76 -151.51c206.61,351.84 449.38,888.69 765.1,1015.27l70.85 -271.14c54.03,145.09 39.18,410.29 97.22,578.01 69.01,199.26 173.88,286.59 207.76,461.11 -22.47,28.69 -32.42,-66.42 -11.98,89.17l-26.19 384.35c251.26,-140.45 25.91,-229.02 180.1,-98.3 103.23,87.53 58.17,224.56 22.09,323.12 -232.12,-7.68 -239.42,-57.64 -247.41,-236.01 -8.69,6.48 -21.45,7.62 -24.36,21.55l-144.56 193.26c9.42,173.85 -19.5,378.13 -168.54,491.02 -303.59,-136.28 -589.68,-1092.42 -710.76,-1429.35 -7.65,11.03 -15.58,15.45 -18.01,35.96l-126.33 734.08c-193.09,-69.08 -534.38,-612.75 -847.39,-871.82 -96.4,-98.2 -311.64,-156.62 -483.09,-352.66 -124.12,-141.87 -65.47,-63.41 -88.95,-158.43 -27.87,-106.86 -44.96,-292.21 -65.72,-362.87l103.45 -16.84c2.18,0.1 11.91,5.63 13.96,5.44l150.6 -198.91c4.99,-5.06 16.21,-14.5 21.01,-18.11 135.59,-101.74 41.39,-44.93 71.22,3.61 0,-197.36 -68.85,-256.17 -31.44,-363.98 1.3,-3.76 51.51,-32.51 64.68,-122 42.28,-286.02 80.01,-120.76 -94.76,-188.86 -89.11,-356.51 -87.37,-887.01 -296.89,-1148.16l-181.21 68.6c15.64,-271.71 23.63,-167.37 66.95,-271.05 -12.51,6.04 74.79,36.97 -41.68,2.22 -291.33,-86.9 -96.37,-202.36 -205.76,-452.26 -229.46,0 -132.74,22.49 -326.53,-89.61l18.74 -18.96 48.59 -147.82c-214.67,-4.45 -99.5,-54.76 -337.27,-2.27 81.11,226.87 113.34,434.78 67.4,663.9 -181.09,42.15 71.41,-45.69 -114.29,-19.12 -143.61,20.57 -12.92,-67.68 -94.38,64.33l-18.23 -68.47c77.03,-252.68 150.94,-367.38 -181.88,-396.93 -58.49,-294.05 -82.85,-236.38 -45.91,-420.28 23.38,-116.41 177.73,-108.09 -133.47,-173.66 -14.44,-3.03 -83.36,-17.32 -97.89,-20.98l-90.02 -495.29c189.39,169.45 -56.37,110.33 -89.99,135.01 -42.63,-64.01 -59.47,-78.11 -97.96,-142.47 -11.66,2.87 -26.19,3 -33.11,14.31 -3.7,6.1 -87.97,-9.48 -119.38,-13.21 -26.85,-38.99 -42.75,-138.11 -154.86,-209.3 -59.75,135.11 37.07,166.3 34.29,331.56l-33.72 35.67c-295.69,-173.91 -810.98,-252.18 -1215.94,-324.57l-230.16 -143.68c-117.41,-25.88 -158.49,91.26 -176,64.87 -8.34,-12.48 -27.9,19.88 -43.44,26.8 21.86,-135.52 83.79,-151.83 -157.87,-191.23 -66.82,-262.7 -20.5,-74.03 -28.97,-300.46l-70.31 -429.73c-3.28,-13.91 -4.8,-25.34 -8.59,-38.99 -3.95,-14.19 -8.03,-26.7 -12.23,-39.66l-57.16 -135.05 256.07 66.39c-77.57,-52.96 -90.84,-55.2 -56.18,-145.98 202.35,45.28 220.8,48.06 315.06,196.79 71.79,-43.89 250.32,-141.69 315.25,-107.24 -6.26,-27.62 -13.08,-26.01 -10.43,-127.03l55.2 -288.99c-144.34,8.34 -53.21,7.58 -192.46,-38.07 -124.15,-40.73 -24.96,-13.4 -86.54,-41.93l-755.88 23.6c37.44,-224.69 1.48,-229.5 -88,-317.97 -440.95,-47.77 -411.03,29.99 -605.26,238.66 -59.59,63.95 -11.85,25.53 -81.39,77.54 14.37,-286.84 91.82,-448.12 191.7,-601.87 766.53,-102.38 4889.27,1348.46 5274.7,1700.77z"/>
   <path class="fil16" d="M10658.33 16650.4c152.24,-66.86 294.36,-216.03 367.17,-370.48 -188.26,82.72 -332.66,156.73 -367.17,370.48zm137.32 -4594.36c126.52,-20.45 59.31,-59 132.68,142.22l230.19 628.7c104.84,264.31 225.14,591.06 451.15,694.48 260.72,-135.74 209.05,-278.47 349.7,-501.89 270.85,340.84 842.9,1140.86 1287.41,1206.71 40.92,-95.17 51.76,-146.87 74,-267.35 3.45,-18.67 27.3,-144.49 28,-146.8l68.91 -144.12c120.58,258.57 319.2,544.15 575.21,689.72 332.53,189.08 468.47,34.38 658.72,-119.19 198.27,-160.01 91.25,-147.56 157.86,-21.68 -79.03,279.52 -208.42,572.78 -329.28,804.83 -71.79,137.92 -128.73,249.02 -210.6,372 -116.41,174.89 -180.87,211.26 -274.05,401.73 -147.18,29.55 -25.56,50.81 -268.04,91.22 -204.15,-1.61 -552.68,236.07 -754.52,329.16 -425.21,196.12 -708.33,200.49 -823.22,259.67 -212.68,109.55 -858.44,968.47 -1180.83,1023.64l-4.3 -562.79c-143.96,96.75 -185.95,324.54 -348.65,407.64 -93.15,42.41 -117.83,43.54 -200.11,71.92l-260.39 -27.3c-150.6,-261.13 95.55,-204.5 32.41,-474.95 44.94,-208.54 217.14,-285.23 271.55,-585.12l-200.7 160.07 -295.06 7.74c88.53,87.53 64.96,50.02 115.58,192.81 -88.95,-49.04 -27.93,-6.29 -148.03,-8.66 -45.31,72.33 -114.48,160.2 -166.52,207.73 -4.08,-380.16 13.58,-536.18 -64.46,-912.32l109.2 237.8c1.39,-284.73 -29.67,-400.34 -202.51,-456.65l-163.74 -2713.74c158.97,124.12 116,207.1 268.36,272.47l57.6 -986.54c52.49,78.3 15.96,26.04 56.59,115.14l86.17 174.55c8.37,-265.46 -120.36,-1207.89 -8.25,-1345.18 227.25,285.58 473.72,824.73 819.52,922.4l72.45 -140.07z"/>
   <path class="fil16" d="M15452.21 5004.51c392.53,-46.7 1884.26,809.09 2298.48,1050.02 409.88,238.4 722.79,375.57 1056.87,652.43 201.57,166.99 654.23,651.26 666.4,1022.97 56.88,570.47 -162.76,1010.06 -528.38,1239.96 -53.55,-103.45 19.03,-369.53 39.85,-509.54 -91.54,38.51 -55.2,26.98 -116.12,104.87 -28.06,35.83 -62.76,97.16 -88.92,136.06 -202.64,301.06 -436.62,599.06 -786.4,481.74l6.29 -138.94c-62.85,-414.81 -347.36,-642.76 -656.92,-871.94 -638.15,-472.41 -612.87,-567.62 -1674.96,-1025.59 -270.54,-116.63 -454.44,-223.02 -769.6,-312.16 -583.29,-164.97 -1258.72,-66.83 -911.12,-1084.49 97.17,-284.45 173.67,-587.63 508.47,-555.71l151.17 -116.85c6.57,-8.6 13.3,-19.62 18.74,-28.5 5.65,-9.23 10.83,-23 15.29,-31.82 4.68,-9.32 9.23,-27.11 12.61,-35.07l205.35 41.8c274.62,15.61 11.75,170.63 182.41,-11.34l38.39 -40.51c159.7,139.44 -37.91,74.13 256.99,100.07l75.11 -67.46z"/>
   <path class="fil16" d="M15654.34 12538.47c-281.86,-61.96 -443.76,-353.55 -728.87,-458.17 -3.63,590.09 -82.97,1091.93 -435.41,1380.16 -341.7,27.24 -647.95,-327.23 -816.2,-493.94 -109.96,-108.94 -509.33,-588.06 -613.19,-631.95 -7.49,230.79 -1.64,480 -83.16,606.23 -268.55,-102.31 117.32,-79.81 -177.39,-104.65 -547.24,-46.04 226.84,139.63 -172.02,19.37 -78.21,-23.57 34.85,86.39 -66.96,-43.54 -96.08,-122.63 -19.46,-205.32 -40.16,-369.16 -204.09,86.2 102.38,-159.98 -44.3,46.99l-79.28 155.18c-93.34,-308.68 -52.92,-21.96 -171.89,-204.73 -115.68,-177.64 7.55,-100.29 -75.52,-335.12 14.35,-6.67 32.52,-10.46 45.22,-14.69l265.39 -80.04c82.53,-7.77 5.31,116.94 29.35,2.21 1.05,-4.8 9.64,3.98 14.25,2.53 -40.76,-187.91 -58.32,-25.09 -84.61,-180.04 133.62,-36.63 95.39,106.86 45.53,-84.12l348.52 5.56c58.9,-90.05 16.49,-95.99 56.47,-236.25l311.64 -25.44c6.96,-2.87 17.92,-11.28 24.02,-14.38l94.06 -60.66c133.28,-127.53 -2.93,-146.21 254.05,-60.64 190.79,8.94 499.78,137.45 706.62,198.12 -37.92,-158.24 -77.48,-129.99 -155.43,-268.42l521.9 171.57 -33.91 -293.29c783.22,133.79 1145.52,490.78 1173.7,1343.03 -67.11,49.32 95.11,79.59 -112.42,28.28z"/>
   <path class="fil17" d="M5664.35 12267.71c48.37,73.34 8.69,25.44 68.44,84.37 147.5,145.44 192.97,94.38 251.86,232.33 -270.98,0.45 -658.49,-47.71 -875.38,60.8 175.34,424.45 1069.2,896.93 1732.44,1025.25 -8.18,8.53 -22.06,8.37 -26.57,23.51 -30.21,101.8 -449.36,126.99 -578.24,365.2 635.74,116.38 562.15,-22.94 1050.27,-113.4 -13.2,164.31 -44.04,212.4 -37.44,349.18 204.82,-33.74 457.79,-120.1 489.7,-307.41 139.22,-141.97 133.85,-610.15 162.76,-828.84 37.63,-285.1 -80.19,-243.55 -383.72,-563.16l-928.94 -1074.52c-19.31,-148.69 -150.91,-370.38 -213.54,-575.07 -240.27,-785.08 -124.78,-1791.12 -275.75,-2147.51 -122.73,74.45 -95.65,57.04 -185.29,206.81 -417.06,1126.61 -145.45,437.63 -359.39,1373.3l-325.81 -825.84c-250.09,365.9 105.95,1227.03 176.98,1577.93l-624.75 -106.27c13.34,486.45 622.16,1128.32 882.37,1243.34zm7127.14 -2136.98c-20.1,-151.74 37.13,-127.12 -125.63,-160.77 -6.83,117.22 -31.63,106.39 125.63,160.77zm983.1 407.99c-63.29,-144.5 -120.8,-201.5 -135.02,-364.7 221.25,59.59 440.44,216.94 625.45,307.85l15.01 -93.05c1.8,-7.05 6.28,-22.63 8.21,-29.55l395.45 67.4 39.05 -301.6c-469.48,-410.39 -612.2,-317.59 -892.6,-952.73 -122.41,70.27 -105.73,85.69 -216.67,210.97 -342.01,386.16 -548.79,337.15 -685.76,516.6 133.66,134.95 707.03,569.89 846.88,638.81zm-2855.39 -4789.2c3.76,-707.98 -23.41,-309.06 -201.97,-661.69 -86.04,57.79 -326.85,307.7 -418.83,401.48 27.55,27.81 26.13,31.16 78.21,64.3 8.5,5.44 20.31,12.26 29.51,17.47l191.54 77.48c127.91,49.9 180.71,96.85 321.54,100.96zm3576.95 -555.33c-334.8,-31.92 -411.3,271.26 -508.47,555.71 -347.6,1017.66 327.83,919.52 911.12,1084.49 315.16,89.14 499.06,195.53 769.6,312.16 1062.09,457.97 1036.81,553.18 1674.96,1025.59 309.56,229.18 594.07,457.13 656.92,871.94l-186.94 5.53c-119.53,-215.24 -267.69,-420.75 -469.92,-517.73 94.57,837.12 69.26,1461.27 -513.08,1831.78l-73.24 -259.41c-1.55,-7.08 -7.05,-15.58 -8.12,-31.35 -1.08,-15.26 -3.16,-21.23 -8.63,-30.11l-634.8 713.63 139.73 436.78c513.17,-142.22 320.87,-11.57 378.73,551.92 238.18,108.19 431.94,-302.14 656.41,-582.92 102.37,175.87 22.4,406.44 180.01,564.72 192.62,-179.51 254.36,-714.37 405.05,-972.83 148.1,122.72 364.29,593.18 540.04,599.34 464.07,16.24 1607.43,-2962.79 1068.44,-3623.5 -12.17,-371.71 -464.83,-855.98 -666.4,-1022.97 -334.08,-276.86 -646.99,-414.03 -1056.87,-652.43 -414.22,-240.93 -1905.95,-1096.72 -2298.48,-1050.02 -65.25,-55.99 -4.59,-24.65 -128.23,-79.6l-389.22 -97.63c-149.8,-39.12 -335.85,-98.84 -504.01,-132.4 -343.91,-68.69 -844.36,-137.67 -1202.8,-123.29 -505.06,20.25 -522.5,229.96 -683.21,635.36 -124.43,313.89 -32.04,609.05 205.67,812.51 78.71,67.33 -24.58,1.45 95.71,64.01 -40.85,-698.59 306.15,-1351.9 793.07,-1357.02 -15.7,202.22 24.02,81.71 -133.59,228.01 -74.38,69.07 -95.65,86.98 -154.83,160.73 -100.73,125.48 -183.11,253.32 -216.98,471.03 -91.86,589.42 60.6,715.72 504.11,839.71 28.5,-635.59 245.2,-1435.55 870.32,-1437.92l-12.07 206.18zm-9770.06 -1080.55c-21.62,245.42 17.22,123.61 -205.33,192.05 -270.06,83.01 -291.26,346 -283.87,732.94 9.1,477.35 169.71,749.28 505.34,876.55 -89.2,-411.34 -292.4,-813.64 -16.4,-1187.69 191.67,-259.76 843.16,-268.2 992.77,41.74l-67.93 35.14c-10.34,3.03 -23.86,9.22 -35.52,11.5l-185.64 -21.36c-1135.97,-306.34 -400.43,1199.86 -318.28,1308.71l647.5 -22.02c404.96,72.39 920.25,150.66 1215.94,324.57 43.35,224.22 694.2,1699.67 824.45,1833.33l-117.67 -970.18c223.9,188.23 131.7,328.94 337.12,492.42l18.23 68.47c184.27,624.12 802.45,1466.64 751.48,2156.45 77.1,405.72 -245.7,1213.07 -335.03,1637.99 -26.79,197.93 -113.68,432.89 -163.29,628.92 -142.67,563.8 -247.98,1955.24 -359.52,2199.77 -130.03,285.24 -1165.77,1832.01 -1091.57,2243.15 -196.61,180.33 -237.97,835.13 -648.74,1510.6 -159.25,261.91 -306.43,369.53 -499.18,581.27 -125.44,137.76 -460.57,505.69 -112.01,711.83 37.92,-43.2 22.91,-17.51 58.71,-92.17l125.72 -323.12c73.75,-149.71 135.72,-281.16 342.24,-266.3 -24.2,247.66 -312.06,422.46 -275.15,727.15l356.04 19.75c156.31,-427.36 266.27,-826.72 718.85,-872.22 -99.79,276.07 -406.57,376.11 -474.19,729.72 -51.38,81.08 -45.44,23.88 -38.9,148.41 458.99,21.61 1867.02,-132.17 2107.85,-449.64 142.54,-187.91 328.21,-967.01 750.48,-1498.01 100.77,-126.8 96.18,-91.82 158.94,-231.9 38.1,-14.88 77,-29.32 134.16,-60.41l-24.8 121.33c-37.38,196.35 -120.74,332.44 -117.86,592.78 248.1,-99.72 350.51,-434.69 588.47,-658.47l179.64 472.67c189.23,-50.14 374.14,-333.04 446.85,-515.42 162.7,-83.1 204.69,-310.89 348.65,-407.64l4.3 562.79c322.39,-55.17 968.15,-914.09 1180.83,-1023.64 114.89,-59.18 398.01,-63.55 823.22,-259.67 201.84,-93.09 550.37,-330.77 754.52,-329.16 73.31,149.02 110.21,55.68 -262.93,278.7 -149.64,89.42 -221.46,145.76 -377.62,207.91 39.06,177.45 303.47,523.98 457.98,594.16l76.37 -178.08c2.34,-4.68 7.46,-17.38 13.65,-24.33 158.87,108.47 149.3,138.05 297.3,220.61l-39.49 -358.79c416.67,131.57 820.62,656.09 630.43,1275.73 -78.33,255.24 -209.4,470.26 -245.04,752.59 -57.88,458.92 -29.26,582.69 391.72,647.4 322.61,55.17 1136.5,82.32 1470.24,34.35 46.89,-402.55 -275.53,-384.61 -284.44,-691.77 347.92,51.51 509.98,667.79 524.58,695.91 240.27,15.1 357.85,5.72 218.15,-242.57 -56.43,-100.26 -208.92,-243.69 -279.83,-287.67 61.59,-145.16 -131.13,-142.6 132.37,-105.66l94.47 93.15c-60.19,-150.44 -229.9,-283.12 -308.55,-482.31 189.24,-335.44 464.71,-336.48 595.55,-939.81 86.27,-397.66 25.16,-1038.33 -107.81,-1381.99 -141.93,-366.82 -1229.18,-1592.14 -1469.48,-1667.63 -87.46,120.04 -350.73,616.41 -409.73,716.95l-161.08 20.19c12.29,-258.75 209.4,-319.86 231.07,-591.03 209.53,-192.21 632.24,-1352.92 656.16,-1737.4l-268.3 -207.44c-139.06,-57.13 -57.16,-68.03 -238.56,-119.03 -32.7,1204.92 -473.43,1869.16 -1358,929.64 -185.77,-197.33 -428.78,-528.88 -516.22,-563.77 -18.48,299.8 -16.65,501.84 -185.6,687.69 -454.28,5.06 -1032.93,-800.18 -1210.6,-1132.65 -43.61,54.29 -6.57,-17.38 -50.02,91.35 -8.15,20.41 -34.38,111.76 -42.31,138.65 -30.56,103.52 -51.66,152.87 -80.54,225.64 -464.08,-93.91 -689.46,-976.68 -801.7,-1115.46l-24.05 386.19 -72.45 140.07c-345.8,-97.67 -592.27,-636.82 -819.52,-922.4 -44.17,-93.15 -67.02,-115.87 -109.45,-196.57 -98.55,-187.25 -60.57,-71.85 -22.06,-123.52 313.01,259.07 654.3,802.74 847.39,871.82l126.33 -734.08c2.43,-20.51 10.36,-24.93 18.01,-35.96 121.08,336.93 407.17,1293.07 710.76,1429.35 149.04,-112.89 177.96,-317.17 168.54,-491.02 169.84,92.74 473.3,514.28 617.99,674.61 152.58,169.08 539.18,788.14 716.32,272.46 81.52,-126.23 75.67,-375.44 83.16,-606.23 103.86,43.89 503.23,523.01 613.19,631.95 168.25,166.71 474.5,521.18 816.2,493.94 352.44,-288.23 431.78,-790.07 435.41,-1380.16 285.11,104.62 447.01,396.21 728.87,458.17 47.99,60.48 0.47,35.42 80.16,75.14 91.82,45.78 47.65,25.85 150.75,36.18 164.41,-213.54 72.42,-708.42 61.24,-996.28 -5.18,-133.46 -9.7,-440.47 -35.83,-552.61 -69.99,-300.18 -80.32,-60.07 -194.87,-356.48 -2.49,-6.45 -4.23,-22.34 -10.58,-31.41 -111.7,164.43 -234.33,330.67 -360.06,388.52 -168.7,-198.68 -167.09,-712.59 -450.04,-784.66 -52.55,141.97 35.23,134.51 92.29,297.74l-497.22 -92.01c56.56,155.27 71.07,109.77 92.93,284.51 -306.78,-47.84 -367.92,-228.01 -578.96,-271.05 65.97,157.14 105.28,169.71 146.96,386 -471.57,-114.86 -798.67,-543.8 -1153.13,-709.69l57.07 352.26c-299.49,-121.31 -371.18,-379.21 -590.25,-471 -192.14,133.75 -360.43,354.37 -451.59,616.12 -164.09,103.33 261.47,913.21 322.14,1130.57 -225.61,-133.34 -236.42,-384.1 -439.84,-523.73 -33.88,-174.52 -138.75,-261.85 -207.76,-461.11 -58.04,-167.72 -43.19,-432.92 -97.22,-578.01l-70.85 271.14c-315.72,-126.58 -558.49,-663.43 -765.1,-1015.27l-82.76 151.51c-32.1,69.45 4.17,32.23 -52.26,115.96 -321.6,-134.41 -456.11,-793.32 -387.89,-1234.67 92.64,-599.03 414.4,-978.05 445.15,-1136.19 95.42,-62.54 129.51,-31.54 123.01,-190 196.44,-147.69 142.22,-220.02 135.45,-489.92 -4.89,-195.25 -2.71,-386.1 -11.24,-584.72l-549.68 -239.45c-123.29,-107.08 -670.56,-347.98 -868.52,-397.12 -385.43,-352.31 -4508.17,-1803.15 -5274.7,-1700.77 -99.88,153.75 -177.33,315.03 -191.7,601.87 69.54,-52.01 21.8,-13.59 81.39,-77.54 194.23,-208.67 164.31,-286.43 605.26,-238.66zm7718.9 -2387.43l-24.74 66.11c-11.6,-17.7 -34.41,-56.47 -54.73,-75.93 -75.26,-72.11 15.07,-3.19 -100.79,-62.69 -35.27,-57.54 77.66,6.03 -72.2,-76.15 -64.78,-35.55 -57.99,-28.72 -138.15,-36.91 -100.64,-10.33 -204.5,12.32 -234.14,24.58l-422.55 152.31c21.64,176.88 15.64,248.67 118.39,358.41 119.28,127.34 152.08,40.89 148.67,199.51l-98.9 1.77c-229.91,-16.66 -168.83,-96.6 -253.79,-318.95l-44.81 -89.14c-2.18,-15.29 -10.84,-18.93 -17.6,-27.39 -310.45,176.25 -8.4,343.05 -17.47,719.13 -6.7,277.84 -52.08,587.27 -65.16,867.42 482.15,-57.64 -30.46,-124.02 1004.78,-92.3 218.56,8.75 418.16,34.22 636.06,65.82 148.98,21.61 436.99,22.75 496.9,164.34 -520.06,-43.67 -1743.46,-170.5 -2074.45,117.73 -479.84,145.07 -1033.87,1122.64 -992.2,1512.55 222.58,-18.55 522,-488.06 594.67,-615.62 133.85,159.32 2.34,208.48 56.81,397.69 269.5,-26.92 228.99,-332.53 507.84,-426.31l77.23 227.75c158.24,-54.98 270.38,-171.04 358.57,-300.84 140.54,-18.8 83.42,-22.34 237.26,-102.31 82.13,-42.69 153.51,-71.1 258.35,-104.97 166.11,-53.62 358.88,-112.65 521.52,-126.2l334.55 -55.58c62.6,44.68 77.45,-27.08 44.78,58.3 -580.89,108.82 -1307.39,397.3 -1692.91,843.15 -215.47,-28.47 -85.51,-63.61 -276.64,-89.64l-138.81 210.72 22.03 1905.66c-53.5,266.81 -515.27,737.58 -622.07,1200.11 -212.11,253.19 -194.07,942.46 -9.04,1284.29 8.35,-10.24 15.39,-25.47 19.37,-34.57l43.42 -110.31c6.95,-25.84 11.94,-83.42 18.26,-117.16 23.99,-128.26 -13.9,-70.18 60.39,-181.03l215.27 374.06c69.64,214.58 365.33,777.33 558.11,871.87 -1.93,-224.25 -45.12,-444.42 47.59,-638.18 98.93,65.95 10.55,-89.64 98.3,134.67l191.16 614.67c111.01,154.83 24.08,86.64 160.61,154.39 345.05,-418.7 231.24,-557.73 842.53,-818.51 402.9,-171.82 739.92,-335.66 881.86,-797.77 -39.69,-63.83 -46.52,-96.22 -73.6,-147.98 132.21,-82.37 -173.75,-1.7 97.96,-30.62 16.55,-1.73 116.59,11.54 134.03,13.5 -69.35,177.61 -121.27,89.01 7.46,255.12 216.35,-169.59 152.9,-402.24 463.48,-238.57 -8.41,10.68 -18.99,25.72 -24.24,32.68 -4.55,6.06 -16.68,22.46 -21.11,28.31 -5.62,7.45 -20.31,27.74 -30.2,38.99l-158.59 48.82c-29.8,548.82 359.99,762.73 684.21,976.3 585.32,385.62 433.68,665.67 661.63,949.42 333.26,-177.14 406.69,-716.29 585.09,-824.99 81.78,173.92 -35.58,483.07 -61.8,665.96 439.77,-238.03 744.63,-916.34 1030.24,-1063.36l-29.2 434.79c435.23,-221.73 359.74,-1148.45 222.01,-1623.46 -82.06,-282.96 -297.65,-368.05 -525.57,-512.2 -172.99,-109.39 -453.17,-225.13 -662.47,-326.53 -1264.16,-612.49 -1625.26,-567.46 -2236.14,-820.97 -224.12,-93.03 -466.51,-259.36 -723.33,-262.23 -233.13,-198.5 -516.78,-137.99 -734.46,-531.73 -158.4,-286.53 38.45,-179.47 -294.55,-340.75 -174.71,-84.62 -317.02,-134.98 -225.23,-333.23 180.8,-75.17 243.58,89.77 457.06,181.03 236.7,-552.36 51.72,-462.94 442.43,-926.92 161.59,-72.87 170.12,-158.72 382.87,-217.43 190.69,-52.61 375.51,-24.93 572.61,-19.9l1739.68 319.67 516.43 145.95 -137.48 -149.36c-56.72,-43.86 -72.96,-45.88 -133.16,-89.77 -31.02,-22.59 -161.55,-116.75 -162.82,-117.92 -144.91,-140.36 -111.13,-44.08 3.54,-109.49l463.54 252.28c180.17,280.17 633.18,512.39 905.43,654.89 305.83,160.11 663.61,350.14 996.37,483.98 -0.73,-166.49 -47.11,-461.48 -143.11,-592.61 -52.61,-821 -1463.51,-1076.72 -2230.92,-1350.46 212.5,-185.57 1522.19,310.52 1769.19,371.44 94.41,103.73 173.12,186.83 284.03,230.37 113.88,-218.81 161.75,-544.3 240.58,-800.9 68.35,-222.32 549.83,-699.48 188.55,-614.99 -106.71,24.96 -165.23,184.28 -342.71,230.48 -205.92,-72.05 -31.41,6.79 -186.18,-118.56 164,-203.33 265.24,9.92 500.1,-269.81 -86.51,-192.87 -402.17,-558.08 -753.22,-492.39 -219.01,40.98 -206.31,157.01 -269.97,27.68 596.5,-438.64 951.69,74 1239.54,431.69 296.99,369.12 538.84,745.07 940.32,1070.97 128.31,120.96 307.28,210.76 547.05,162.73 125.69,-419.78 -432.76,-1063.9 -591.13,-1369.03 -60.54,168.16 25.24,267.82 -118.94,92.55 -65.85,-80.07 -90.68,-172.78 -122.44,-249.85 -220.83,-535.58 -433.2,-878.76 -901.19,-1274.46 -478.08,66.92 -813.04,532.26 -1035.78,766.18 -185.7,115.08 -147.81,195.37 -372.66,373.08l-165.54 -85.16c80.04,-198.28 106.29,-348.71 -196.63,-361.54l-84.94 406.22c-296.07,-114.45 -446.38,-599.41 -954.15,-738.66l178.84 598.05c-254.17,-147.88 -854.28,-616.09 -990.46,-584.4 -57.57,142.85 -19.02,253.32 -23.7,446.92l-1000.86 -355.76c-5.24,8.78 -6.69,23.63 -8.05,29.54l-36.97 192.56 -299.36 -15.58c-132.58,-339.23 -262.48,-658.24 -428.27,-1000.29 -118.97,-245.32 -303.09,-678.56 -634.45,-554.16 -83.55,31.38 -45.98,23.86 -86.01,59.5 -198.12,61.55 -584.75,328.97 -741.03,458.99 -203.05,168.92 -327.48,419.05 -588.19,559.34l-39.91 -32.32 36.05 -104.18c-277.46,106.71 -646.11,465.81 -864.2,686.27 -97.09,98.14 -158.55,146.65 -152.86,337.02 627.43,690.22 2497.26,-1784.32 3103.33,-589.3zm1159.89 -87.71c94,107.78 172.43,117.2 331.9,110.97l52.01 -359.49c64.55,-175.9 613.63,190 820.15,251.17 -53.18,-155.27 -122.6,-230.22 -129.17,-414.37 220.58,12.17 468.97,178.34 630.21,292.47 169.94,120.23 375.76,320.84 530.66,383.28l134.6 -449.82c259.74,41.39 299.83,364.06 540.07,468.11 320.62,-275.34 477.57,-539.72 894.97,-802.45 575.93,-362.52 693.35,179.16 1063.36,406.63 29.95,133.15 261.19,375.57 399.77,573.02 258.73,368.56 1104.15,1642.2 887.9,1994.51 -421.64,687.03 -1499.91,-760.99 -1580.8,-820.75 -261.35,252.31 -428.24,762.39 -485.03,1237.81 -28.24,236.38 120.52,435.1 188.77,648.83 77.35,242.07 103.83,459.71 125.13,736.32 528.28,260.68 959.71,632.33 1274.05,967.58 799.83,853.05 546.67,2516.63 95.01,3471.83 -193.98,410.27 -595.21,1099.48 -972.92,1255.41 -276.36,-57.82 -262.3,-208.96 -450.05,-383.06 -7.74,7.3 -17.54,18.55 -21.58,23.57l-414.22 857.69c-161.36,15.96 -177.89,-17.95 -224.34,-177.23 -34.91,-119.69 -27.2,-238.94 -114.57,-358.76 -64.78,157.26 -408.62,613.78 -663.43,465.97l-34.44 -65.22c-60.63,-206.39 12.64,-426.44 6.86,-725.04 -255.98,76.15 -78.59,66.26 -289.5,170.53l-147.28 -543.73c-23.63,434.19 130.03,1156.79 51.51,1696.96 -44.71,307.57 -78.9,256.73 -331.34,293.44 -69.23,367.23 -387.23,1058.46 -393.13,1285.71 444.45,397.06 1331.93,1258.82 1533.43,1759.52 213.22,529.74 286.06,1475.99 -47.55,2011.51 -146.65,235.4 -269.75,279.64 -387.99,459.52 148.51,349.57 542.69,347.83 481.89,994.73 -131.35,267.44 -981.26,190.57 -1254.58,190.69 -278.22,0.1 -1198.25,13.43 -1386,-73.46 -653.76,-302.55 57.35,-1577.26 47.14,-1921.77 -7.49,-252.44 -104.37,-281 -111.76,-289.18 -7.8,-119.1 -18.8,-91.16 -91.38,-190.03 -40.38,182.38 -0.63,128.32 -82.25,214.07l-310.98 -261.09c-201.66,79.34 59.46,44.33 -180.05,178.21 -287,-151.42 -443.06,-454.34 -675.05,-692.56 -39.4,2.21 -646.24,148.48 -694.86,167 -219.58,83.6 -899.53,1062.5 -1380.13,1097.76 -11.66,-44.71 -20.63,-141.49 -32.45,-180.96l-29.16 -77.16c-4.05,-10.33 -16.44,-16.21 -19.59,-37.82 -3.2,-21.93 -12.11,-26.38 -21.14,-37.57 -85.32,163.04 -217.71,342.74 -334.69,477.22 -242.48,278.85 -297.71,160.45 -458.38,-96.59 -205.07,89.35 -373.52,359.13 -644.44,400.02l-81.27 -229.02c-615.05,1274.05 -130.75,1413.27 -1779.49,1730.61 -522.53,100.57 -1138.3,127.4 -1677.49,62.18 -572.07,-69.13 -720.26,-525.25 -394.52,-961.83 282.54,-378.7 484.58,-447.96 760.96,-993.28 294.78,-581.74 559.54,-1571.32 1010.97,-2499.34 101.78,-209.24 188.17,-366.85 307.29,-546.93 109.45,-165.44 258.12,-338.22 294.02,-566.23 -248.2,105.73 -463.57,290.67 -773.14,355.7l51.38 -310.16c-351.11,32.7 -1096.94,196.72 -1124.53,-271.71l400.44 -267.07c-384.99,-195.14 -593.44,-137 -960.7,-429.57 -170.06,-135.46 -584.87,-494.78 -576.75,-834.62l780.75 -3.25c-420.82,-412.89 -1026.3,-720.68 -952.45,-1637.11l528.94 54.76c-54.19,-505.85 -274.14,-720.71 -91,-1350.74 19.4,-66.77 37.98,-139.91 73.88,-192.11 113.09,-164.28 29.57,-60.61 139.6,-117.58 44.61,150.56 146.77,478.67 249.27,611.29 21.52,-467.9 150.56,-1166.33 703.3,-1256.67 200.46,758.56 92.84,1821.48 427.96,2497.83 304.54,614.54 1056.15,1267.51 1278.28,1591.98 126.81,-121.49 281.67,-904.42 313.2,-1066.61 214.58,-1104.27 484.84,-1318.51 211.52,-2146.68 -106.68,-323.12 -226.37,-674.36 -415.42,-900.6 4.58,189.4 40.32,345.43 -40.82,501.08 -124.97,-62.63 -149.46,-207.19 -221,-365.18l-518.33 -1147.47c-367.98,-695.68 -321.94,-949.48 -654.7,-1049.74 -1274.33,-383.97 -1480.38,169.59 -2203.81,-502.97 -369.6,-343.65 -625.61,-929.25 -559.5,-1589.8 96.97,-968.76 533.56,-834.18 1324.83,-654.99 606.04,137.19 1162,295.69 1711.2,490.52 604.12,214.26 1127.97,356.93 1683.75,561.05 461.99,169.68 1088.16,509.45 1525.18,625 79.5,-636.06 45.13,-976.97 633.79,-1612.81 327.35,-353.58 225.29,-274.83 292.22,-837.05 37.69,-316.64 68.37,-617.52 -88.26,-873.62 -381.28,172.18 -825.52,585.1 -1389.85,520.92 -271.74,-30.87 -469.42,-218.68 -359.11,-487.2 69.45,-169.05 298.5,-365.49 442.15,-506.35 459.87,-450.9 1314.93,-1079.85 1952.64,-1379.81 68.19,-32.07 106.36,-45.19 158.62,-68.16l95.9 -51.91c362.52,-35.74 432.6,52.32 599,273.13 463.72,615.24 271.93,1156.13 1215.94,1248.17z"/>
   <path class="fil18" d="M12988.98 6547.74c-50.24,10.77 -89.46,22.56 -151.48,30.96 -237.87,32.23 -176.95,-43.82 -287.73,-60.6 -97.64,-14.85 -124.91,33.15 -151.83,54.98l-247.95 138.52 -39.68 -206.93c-0.86,-5.15 -0.73,-19.81 -5.53,-28.03 -577.54,249.94 -705.33,427.3 -961.42,541.59l-22.03 -1905.66c84.56,60.48 30.78,-1.26 100.77,138.21 35.7,71.09 26,75.14 72.55,152.08 114.03,-66.17 150.15,-172.84 220.89,-273.57 313.9,-16.69 -193.03,231.16 566.93,-247.35 111.38,-70.15 192.49,-126.42 300.18,-197.61 27.27,-18.05 113.91,-74.19 138.55,-84.18 111.95,-45.44 45.03,-54.44 113.03,-4.01 -390.71,463.98 -205.73,374.56 -442.43,926.92 -213.48,-91.26 -276.26,-256.2 -457.06,-181.03 -91.79,198.25 50.52,248.61 225.23,333.23 333,161.28 136.15,54.22 294.55,340.75 217.68,393.74 501.33,333.23 734.46,531.73z"/>
   <path class="fil19" d="M14278.45 8806.21c-310.58,-163.67 -247.13,68.98 -463.48,238.57 -128.73,-166.11 -76.81,-77.51 -7.46,-255.12 -17.44,-1.96 -117.48,-15.23 -134.03,-13.5 -271.71,28.92 34.25,-51.75 -97.96,30.62 -72.42,-23.88 -42.62,98.78 -105.41,-107.81 90.34,-118.05 59.25,-122.12 63.61,-295.47 -121.52,100.36 -18.33,102.32 -122.88,47.71 -107.59,-56.21 -53.4,-94.79 -158.34,-182.73 27.43,-2.37 111.54,-6.09 123.71,-0.85l134.92 124.46 41.3 -112.64 88.66 -33.53 11.37 -277.8c223.02,-245.3 -73.4,155.81 126.46,-51.92 12.83,-13.4 60.89,-138.74 83.01,-203.46 477.47,59.06 1017.57,187.28 1000.16,701.95 -87.02,141.55 -455.93,373.67 -583.64,391.52z"/>
   <path class="fil20" d="M6838.87 16696.09c-74.2,-411.14 961.54,-1957.91 1091.57,-2243.15 111.54,-244.53 216.85,-1635.97 359.52,-2199.77 49.61,-196.03 136.5,-430.99 163.29,-628.92 85.03,129.05 -183.64,1649.09 -209.87,2244.51 -52.54,1193.13 -36.33,395.35 -823.94,1790.27 -96.12,170.21 -198.81,378.95 -291.08,555.67 -104.17,199.54 -232.33,403.25 -300.24,617.86l10.75 -136.47z"/>
   <path class="fil21" d="M13575.52 8806.78c27.08,51.76 33.91,84.15 73.6,147.98 -141.94,462.11 -478.96,625.95 -881.86,797.77 -611.29,260.78 -497.48,399.81 -842.53,818.51 -136.53,-67.75 -49.6,0.44 -160.61,-154.39l86.83 -234.17c85.44,-457.25 136.98,-341.28 208.11,-624.9 73.08,-54.54 26.73,-28.19 97.19,-103.8l17.76 378.79c241.78,-50.94 1314.81,-705.67 1191.11,-1147.28l104.99 13.68c62.79,206.59 32.99,83.93 105.41,107.81z"/>
   <path class="fil22" d="M17444.88 5431.17c-16.71,-209.18 -235.43,-439.37 -426.09,-490.33 51.75,160.07 93.81,177.89 185.73,308.52 84.97,120.73 80.23,180.96 240.36,181.81zm-665.76 -543.73l-83.36 16.81c59.95,187.75 11.73,114.85 134.58,171.16 36.15,-47.17 46.8,46.55 29.61,-138.84 128.57,32.89 97.06,10.02 87.65,12.67 -2.47,-187.09 -51.79,-123.73 -68,-305.07 256.89,151.16 600.77,371.65 733.35,629.55l25.18 -117.29c96,131.13 142.38,426.12 143.11,592.61 -332.76,-133.84 -690.54,-323.87 -996.37,-483.98 -272.25,-142.5 -725.26,-374.72 -905.43,-654.89l587.3 252.65c-80.25,-127.49 -161.14,-209.27 -200.86,-335.91 157.39,74.95 412.41,222.76 513.24,360.53z"/>
   <path class="fil23" d="M8448.01 7289.75c106.04,406.09 944.3,2280.18 731.39,2600.87 -171.61,-194.3 -793.73,-2203.41 -800.56,-2618.66l87.91 -1.17 -18.74 18.96z"/>
   <path class="fil24" d="M14915.39 14472.63l-11.15 -468.28 191.29 -728.01c45.85,-26.29 3.16,5.31 59.88,-8.56l107.21 -37.48c18.9,-251.45 76.15,-450.08 40.63,-702.51l268.3 207.44c-23.92,384.48 -446.63,1545.19 -656.16,1737.4z"/>
   <path class="fil25" d="M17360.67 3103.81c-111.03,-211.23 -404.7,-570.84 -563.13,-636.63 -33.97,-186.43 -20.54,-37.79 40.04,-97.89 63.66,129.33 50.96,13.3 269.97,-27.68 351.05,-65.69 666.71,299.52 753.22,492.39 -234.86,279.73 -336.1,66.48 -500.1,269.81z"/>
   <path class="fil26" d="M13409.92 7967.33c-8.31,12.86 -112.74,-7.4 0,197.58 126.8,-181.75 5.56,-189.62 0,-197.58zm242.54 0.79c-119.56,19.4 -46.1,-29.52 -125.09,42.27l25.06 269.06 -41.3 112.64 -134.92 -124.46c-12.17,-5.24 -96.28,-1.52 -123.71,0.85 104.94,87.94 50.75,126.52 158.34,182.73 104.55,54.61 1.36,52.65 122.88,-47.71 -4.36,173.35 26.73,177.42 -63.61,295.47l-104.99 -13.68 -178.78 -243.24c-49.01,-207.31 -207.03,-483.19 -50.06,-659.19 147.85,-165.79 553.94,-115.9 725.65,-70.12 -22.12,64.72 -70.18,190.06 -83.01,203.46 -199.86,207.73 96.56,-193.38 -126.46,51.92z"/>
   <path class="fil27" d="M12264.73 1653.7l24.55 282.48c-392.79,184.41 -710.98,292.47 -728.99,-137.32 8.72,-7.21 23.38,-28.12 27.68,-19.72 4.29,8.34 21.77,-15.26 27.68,-19.31 60.7,-41.61 24.61,-7.77 83.13,-55.64 109.71,-89.7 45.31,-10.36 121.46,-138.97 29.64,-12.26 133.5,-34.91 234.14,-24.58 80.16,8.19 73.37,1.36 138.15,36.91 149.86,82.18 36.93,18.61 72.2,76.15z"/>
   <path class="fil28" d="M12264.73 1653.7c115.86,59.5 25.53,-9.42 100.79,62.69 20.32,19.46 43.13,58.23 54.73,75.93l24.74 -66.11c76.06,70.69 109.77,117.26 12.96,239.55 -36.4,45.94 -161.12,107.59 -236.51,135.52 -178.25,66.01 -381.67,110.84 -556.69,174.17 3.41,-158.62 -29.39,-72.17 -148.67,-199.51 -102.75,-109.74 -96.75,-181.53 -118.39,-358.41l422.55 -152.31c-76.15,128.61 -11.75,49.27 -121.46,138.97 -58.52,47.87 -22.43,14.03 -83.13,55.64 -5.91,4.05 -23.39,27.65 -27.68,19.31 -4.3,-8.4 -18.96,12.51 -27.68,19.72 18.01,429.79 336.2,321.73 728.99,137.32l-24.55 -282.48z"/>
   <path class="fil29" d="M18096.49 2114.14c-35.01,76.21 34.41,244.5 -146.17,-35.42 -116.28,-180.2 -198.31,-480.7 -261.25,-668.23 -288.83,66.99 -592.14,422.75 -894.06,589.58 222.74,-233.92 557.7,-699.26 1035.78,-766.18 51.53,343.31 57.22,605.67 265.7,880.25z"/>
   <path class="fil30" d="M9433.13 9180.01c-40.95,88.07 54.29,103.93 -49.8,67.31 -107.08,-406.63 -277.14,-750.45 -247.09,-1215.47 209.52,261.15 207.78,791.65 296.89,1148.16z"/>
   <path class="fil31" d="M15415.9 4357.89c-114.67,65.41 -148.45,-30.87 -3.54,109.49 1.27,1.17 131.8,95.33 162.82,117.92 60.2,43.89 76.44,45.91 133.16,89.77l137.48 149.36 -516.43 -145.95c136.18,-34.09 58.55,12.23 132.83,-64.77l-381.29 -300.34c82.32,-128.07 -117.38,-169.21 125.38,-83.54 89.46,32.26 18.96,-11.98 126.77,54.91 48.95,30.4 52.93,45.57 82.82,73.15z"/>
   <path class="fil32" d="M12449.73 10979.79c9.42,-160.93 -16.21,-127.97 64.49,-168.83 56.09,266.78 176.25,461.3 193.73,772.25 -184.15,-95.9 -219.2,-318.63 -258.22,-603.42z"/>
   <path class="fil33" d="M10187.9 16913.61l-205 154.99c71.82,-285.2 192.59,-350.86 275.85,-580.04l200.7 -160.07c-54.41,299.89 -226.61,376.58 -271.55,585.12z"/>
   <path class="fil34" d="M17444.88 5431.17c-160.13,-0.85 -155.39,-61.08 -240.36,-181.81 -91.92,-130.63 -133.98,-148.45 -185.73,-308.52 190.66,50.96 409.38,281.15 426.09,490.33z"/>
   <path class="fil35" d="M11493.52 7418.6l-19.05 109.9c-141.97,-56.66 -136.79,171.67 -92.49,-175.97 9.54,-74.66 151.51,-335.69 274.52,-430.8l-162.98 496.87z"/>
   <path class="fil36" d="M16674.18 16482.65c-122.03,-61.99 -72.39,13.02 -172.77,-222.1 -155.34,-363.85 -65.92,-189.14 -31.13,-254.33 63.14,49.45 33.5,2.34 96.53,99.76 12.11,18.7 33.25,68.53 42.53,90.93 37.26,89.77 55.3,171.77 64.84,285.74z"/>
   <path class="fil37" d="M10658.33 16650.4c34.51,-213.75 178.91,-287.76 367.17,-370.48 -72.81,154.45 -214.93,303.62 -367.17,370.48z"/>
   <path class="fil38" d="M16449.84 16605.69c-70.81,-92.2 -125.79,-171.6 -130.63,-356.39 101.56,47.18 103.96,7.71 166.52,168.01 80.2,205.45 60.01,143.64 -35.89,188.38z"/>
   <path class="fil39" d="M9764.72 16888.18c52.04,-47.53 121.21,-135.4 166.52,-207.73l20.53 165.1c-97.44,106.39 -88.41,176.25 -222.76,247l35.71 -204.37z"/>
   <path class="fil40" d="M11137 7305.92c42.5,-176.44 119.38,-315.97 284.73,-363.91 -46.16,172.46 -138.68,289.88 -284.73,363.91z"/>
   <path class="fil41" d="M18382.26 10312.44c-40.07,194.77 -23.73,321.92 -190.66,426.45 -7.14,-155.59 69.39,-347.96 190.66,-426.45z"/>
   <path class="fil42" d="M13604.88 1638.5l289.21 70.02c1.27,-45.88 -2.56,-139.66 7.49,-180.64 49.36,-200.68 0.51,-50.24 87.21,-137.9l-52.01 359.49c-159.47,6.23 -237.9,-3.19 -331.9,-110.97z"/>
   <path class="fil43" d="M16859.95 4936.57c17.19,185.39 6.54,91.67 -29.61,138.84 -122.85,-56.31 -74.63,16.59 -134.58,-171.16l83.36 -16.81 80.83 49.13z"/>
   <path class="fil44" d="M12791.49 10130.73c-157.26,-54.38 -132.46,-43.55 -125.63,-160.77 162.76,33.65 105.53,9.03 125.63,160.77z"/>
   <path class="fil45" d="M13409.92 8164.91c-112.74,-204.98 -8.31,-184.72 0,-197.58 5.56,7.96 126.8,15.83 0,197.58z"/>
   <path class="fil7" d="M7540.81 6969.22c-68.98,-249.21 -87.09,-414.03 -254.87,-533.15 19.81,119.91 42.78,204.22 84.78,315.6 56.15,149.05 49.99,178.75 170.09,217.55zm477.76 792.12c-205.42,-163.48 -113.22,-304.19 -337.12,-492.42l117.67 970.18c-130.25,-133.66 -781.1,-1609.11 -824.45,-1833.33l33.72 -35.67c193.56,200.39 58.14,180.54 258.81,328.58l-138.24 -450.84c31.41,3.73 115.68,19.31 119.38,13.21 6.92,-11.31 21.45,-11.44 33.11,-14.31 38.49,64.36 55.33,78.46 97.96,142.47 33.62,-24.68 279.38,34.44 89.99,-135.01l90.02 495.29c14.53,3.66 83.45,17.95 97.89,20.98 311.2,65.57 156.85,57.25 133.47,173.66 -36.94,183.9 -12.58,126.23 45.91,420.28 332.82,29.55 258.91,144.25 181.88,396.93z"/>
   <path class="fil46" d="M7128.96 6247.84l138.24 450.84c-200.67,-148.04 -65.25,-128.19 -258.81,-328.58 2.78,-165.26 -94.04,-196.45 -34.29,-331.56 112.11,71.19 128.01,170.31 154.86,209.3z"/>
   <path class="fil47" d="M7540.81 6969.22c-120.1,-38.8 -113.94,-68.5 -170.09,-217.55 -42,-111.38 -64.97,-195.69 -84.78,-315.6 167.78,119.12 185.89,283.94 254.87,533.15z"/>
  </g>
 </g>
</svg>
