<?xml version="1.0" encoding="UTF-8"?>
<!DOCTYPE svg PUBLIC "-//W3C//DTD SVG 1.1//EN" "http://www.w3.org/Graphics/SVG/1.1/DTD/svg11.dtd">
<!-- Creator: CorelDRAW 2017 -->
<svg xmlns="http://www.w3.org/2000/svg" xml:space="preserve" width="200mm" height="200mm" version="1.1" style="shape-rendering:geometricPrecision; text-rendering:geometricPrecision; image-rendering:optimizeQuality; fill-rule:evenodd; clip-rule:evenodd"
viewBox="0 0 20000 20000"
 xmlns:xlink="http://www.w3.org/1999/xlink">
 <defs>
  <style type="text/css">
   <![CDATA[
    .str0 {stroke:#ED3237;stroke-width:7.62;stroke-miterlimit:22.9256}
    .fil1 {fill:#ED3237}
    .fil0 {fill:#292929}
    .fil2 {fill:#292929;fill-rule:nonzero}
   ]]>
  </style>
 </defs>
 <g id="Capa_x0020_1">
  <metadata id="CorelCorpID_0Corel-Layer"/>
  <path class="fil0" d="M2562.74 9469.53c55.85,79.51 207.84,123.2 310.9,117.17 66,-69.21 81.67,-58.83 54.57,-162.36l-81.74 53.63 -102.03 -29.46 -90.84 -53.08 -38.22 -57.39 -29.39 69.63 19.38 -45.91c-159.53,-92.21 -403.31,-63.81 -425.18,329.46 -376.49,97.52 -427.49,540.39 -130.81,713.83 339.17,198.28 713.23,-70.21 599.29,-482.54 -57.7,-179.62 -149.64,-167.89 -276.66,-249.42 -6.28,-112.39 7,-111.83 75.92,-197.42l114.81 -6.14zm1328.04 152.82l-110.07 315.88c-22.16,216.86 -182.47,176.2 -295.63,97.18l209.94 -236.96 189.39 -365.56c16.17,-99.02 82.42,-252.75 177.94,-292.8 41.63,85.18 -96.78,413.6 -171.57,482.26zm-462.82 -111.77c-22.64,123.79 -63.14,122.7 -97.45,220.89 -38.93,111.38 9.22,176.47 35.24,271.43 -152.78,12.06 -197.47,-55.04 -332.5,-14.06 -119.01,36.13 -136.95,99.75 -228.92,158.7l-441.58 967.79c-58.79,116.03 -254,454.21 0.71,459.4 144.75,2.94 271.07,-309.88 278.22,-412.09 5.1,-135.13 204.29,-456.55 254.78,-609.52l99.04 -0.93c-4.36,295.8 178.7,140.42 257.2,141.75l34.29 -48.75 144.73 49.39c-8.82,88.36 -79.71,168 -115.42,259.65 -27.15,69.67 -49.43,142.58 -90.29,195.99 -10.08,13.22 -21.35,25.25 -34.09,35.74 -24.89,120.43 -178.81,420.78 -233.53,551.96 -223.4,535.72 202.24,408.15 217.47,354.29l432.75 -993.77c168.98,-366.06 -35.64,-253.84 138.72,-346.16 130.12,76.66 65.68,102.18 -39.29,350.11 -143.9,339.81 -395.01,762.41 -308.32,1004.26 65.27,80.56 214.93,39.2 276.33,-69.38 51.17,-90.54 89.56,-178.39 129.63,-277.99 50.74,-126.03 217.78,-461 219.72,-564.07 11.26,-102.18 65.22,-215.18 108.96,-313.27 77.47,-12.65 346.4,45.03 409.64,86 64.69,184.53 -293.94,629.46 -210.35,893.52 166.49,56.26 487.85,30.02 674.69,30.7 194.66,0.7 484.74,57.9 633.5,-70.76l9.58 -128.85c-55.76,-199.39 -740.78,-33.66 -912.57,-114.31 -73.98,-130.6 160.85,-422.01 141.61,-576.85 30.88,-221.03 105.42,-151.49 42.35,-444.12l-32.78 146.76c-173.03,69.06 -193.93,-53.5 -176.28,-203.69l103.41 -58.27c-135.86,-86.54 -130.55,-21.54 -245.7,-129.05l-53.99 -25.98c1.53,-99.66 319.3,-850.46 386.17,-1001.87 171.95,-4.39 511.07,84.63 615.69,32.14 252.66,-126.83 940.92,-631.52 798.18,-917.67 -201.72,-72.12 -416.48,164.59 -681.38,379.26 -145.69,118.05 -180.37,188.2 -384.58,174.05 -330.74,-22.93 -1305.61,-256.81 -1439.6,-152.66 -68.69,53.39 -152.22,270.91 -199.58,358.56 -42.61,78.89 -162.08,276.47 -184.41,351.73zm1129.21 -1574.99c-552.26,139.86 -301.33,970.27 271.37,803.2 205.09,-59.82 351.38,-312 287.23,-530.98 -71.49,-244.05 -326.45,-331.03 -558.6,-272.22z"/>
  <path class="fil1 str0" d="M4880.46 11001.39c106.67,-75.62 161.17,-343.03 95.95,-463.31 -83.7,-154.44 -235.6,-205.1 -404.95,-225.06 115.15,107.51 109.83,42.51 245.7,129.05l-103.41 58.28c-17.65,150.19 3.25,272.74 176.28,203.68l32.79 -146.76c63.06,292.64 -11.48,223.09 -42.36,444.12z"/>
  <path class="fil0" d="M3764.98 6882.94c1709.87,-244.79 3341.62,1112.92 3525.65,2800.92 185.34,1699.8 -1195.14,3263.11 -2873.8,3405.02 -1760.28,148.81 -3363.18,-999.6 -3565.9,-2793.52 -167.43,-1481.84 854.85,-2899.51 2250.32,-3294.76 273.63,-77.49 394.64,-79.14 663.73,-117.66zm-686.87 5236.87c0,0 0,0 0,0zm589.05 -5734.88c917.66,-161.78 2101.57,236.45 2815.75,824.82 783.58,645.54 1143.45,1384.85 1313.38,2373.64 157,913.41 -261.56,2066.12 -877.42,2747.28 -625.47,691.78 -1484.57,1142.75 -2412.65,1248.64 -3309.14,377.5 -5518.88,-3372.1 -3275.92,-5963.97 284.97,-329.31 646.12,-598.77 1028.09,-804.19 537.26,-288.94 821.66,-322.71 1408.77,-426.22zm12337.94 5521.44c-2784.22,0 -5594.78,23.17 -8371.94,-0.81 -4.6,-113.34 35.55,-134.87 83.47,-229.81 307.47,-609.22 393.55,-1049.98 390.88,-1721.74 -2.27,-565.06 -104.46,-986.31 -313.63,-1497.39 -105.22,-257.11 -178.24,-274.63 -181.55,-403.18 512.87,-40.46 1146.18,-8.65 1672,-8.65l5040.58 0c561.72,0 2927.02,-51.34 3299.12,60.66 2079.77,626.1 1875.21,3251.9 -13.41,3733.49 -443.9,113.19 -1132.31,67.43 -1605.52,67.43zm2441.54 -315.86c35.68,-96.16 15.7,-48.11 105.91,-115.89 37.56,-28.24 67.34,-64.87 101.63,-98.64 81.27,-80.04 125.34,-167.35 206.7,-217.14 635.07,-823.77 467.82,-2141.95 -359.26,-2773.63 -444.99,-339.87 -908.85,-494.3 -1468.46,-493.71l-9228.45 -0.47c-143.96,0.04 -322.72,46.57 -387.59,-83.14 105.52,-96.26 668.68,-50.82 839.03,-50.86l8225.42 -0.01c561.3,0 1167.4,-50.96 1705.38,118.06 882.27,277.19 1551.01,1145.71 1554.86,2077.8 3.89,941.32 -629.18,1838.19 -1535.31,2123.15 -549.71,172.88 -1154.01,114.94 -1724.93,114.94l-8200.34 0c-177.92,-0.05 -730.75,59.16 -834.76,-58.97 68.14,-156.2 447.09,-88.19 609.06,-88.16l5065.65 0c444.28,0 4072.01,37.84 4337.45,-28.95 313.93,-79 751.2,-182.82 988.01,-424.38zm1558.26 -1285.13c138.39,-936.79 -286.93,-1855.93 -1070.03,-2378.2 -900.78,-600.76 -1976.4,-456.86 -3005.01,-456.84 -202.24,0 -8514.73,31.36 -8690.81,-12.16 -191.59,-47.33 -467.22,-452.12 -972.59,-758.72 -833.66,-505.78 -1809.39,-748.79 -2782.37,-590.7 -1755.94,285.29 -3301.85,1654.4 -3440.72,3497.99 -146.31,1942.57 995.02,3515.22 2820.54,4110.27 1320.84,430.54 3011.08,47.14 4005.58,-909.46 197.15,-189.66 202,-329.9 525.66,-340.81 264.01,-8.88 587.95,7.18 860.56,8.71l8701.83 0c553.89,0.83 1019.05,22.62 1542.52,-202.72 838.13,-360.78 1372.02,-1068.2 1504.84,-1967.36zm-12564.64 -75.29c231.57,-2963.42 -3359.5,-4631.88 -5617.98,-2699.43 -2108.15,1803.81 -1202.57,5378.46 1976.26,5714.5 1730.17,182.91 3493.29,-1115.81 3641.72,-3015.07z"/>
  <g id="_2850310831568">
   <path class="fil2" d="M9744.21 9221.12l0 86.69 -447.06 0 0 -710.29 426.16 0 0 86.72 -307.08 0 0 204.71 265.31 0 0 86.7 -265.31 0 0 245.47 327.98 0zm621.5 -480.5l-220.41 574.5 -108.62 0 -220.4 -574.5 118.04 0 157.71 447.07 156.68 -447.07 117 0zm340.51 498.25c34.12,0 65.29,-7.14 93.49,-21.41 28.21,-14.27 56.23,-34.65 84.08,-61.11l38.65 73.11c-29.94,30.66 -62.33,54.16 -97.14,70.52 -34.82,16.37 -74.52,24.54 -119.08,24.54 -61.27,0 -112.81,-13.23 -154.6,-39.69 -41.77,-26.46 -72.92,-62.33 -93.48,-107.58 -20.54,-45.27 -30.81,-95.75 -30.81,-151.46 0,-57.8 10.27,-109.33 30.81,-154.59 20.56,-45.27 51.71,-81.13 93.48,-107.59 41.79,-26.47 93.33,-39.7 154.6,-39.7 66.85,0 120.3,19.16 160.34,57.46 40.03,38.29 60.05,91.57 60.05,159.82 0,20.88 -2.78,44.21 -8.34,69.98l-376.03 0 0 12.54c0,66.85 13.75,119.41 41.25,157.71 27.5,38.31 68.42,57.45 122.73,57.45zm-5.23 -433.48c-38.98,0 -70.85,11.14 -95.56,33.43 -24.73,22.29 -42.31,53.27 -52.75,92.96l261.12 0 0 -10.44c0,-37.6 -10.96,-66.33 -32.9,-86.18 -21.93,-19.84 -48.56,-29.77 -79.91,-29.77zm668.5 -81.48c66.16,0 111.6,17.25 136.31,51.71 24.72,34.47 37.08,84.08 37.08,148.85l0 383.34 -115.94 0 0 -370.8c0,-45.27 -6.45,-77.31 -19.31,-96.1 -12.89,-18.8 -36.39,-28.21 -70.52,-28.21 -45.95,0 -96.1,20.54 -150.41,61.64l0 433.47 -114.89 0 0 -567.19 87.73 0 14.62 55.37c68.25,-48.04 133.35,-72.08 195.33,-72.08zm1118.69 102.37l-117 -12.54c17.42,28.56 26.11,60.94 26.11,97.16 0,34.11 -8,65.44 -24.02,94 -16.02,28.56 -40.21,51.52 -72.6,68.94 -32.36,17.41 -72.23,26.12 -119.59,26.12 -23.68,0 -44.91,-2.1 -63.72,-6.27 -16.71,13.92 -28.88,26.29 -36.56,37.08 -7.65,10.79 -11.48,21.75 -11.48,32.9 0,14.62 5.04,25.06 15.14,31.33 10.09,6.27 26.98,9.41 50.67,9.41l172.33 0c54.33,0 96.45,12.53 126.39,37.59 29.95,25.08 44.93,58.5 44.93,100.28 0,41.09 -14.1,78.69 -42.31,112.81 -28.2,34.13 -66.68,60.94 -115.43,80.42 -48.73,19.5 -103.41,29.25 -163.98,29.25 -80.78,0 -139.1,-14.27 -174.95,-42.83 -35.87,-28.54 -53.81,-63.71 -53.81,-105.48 0,-27.87 7.32,-52.58 21.94,-74.17 14.62,-21.58 36.91,-43.53 66.85,-65.8 -40.39,-18.11 -60.58,-47.36 -60.58,-87.75 0,-20.88 6.96,-40.9 20.89,-60.06 13.92,-19.15 36.21,-40.56 66.84,-64.23 -25.77,-17.4 -45.42,-39.35 -59.02,-65.81 -13.57,-26.46 -20.36,-55 -20.36,-85.66 0,-34.11 8.02,-65.44 24.04,-94 16,-28.56 40.38,-51.52 73.11,-68.94 32.72,-17.41 72.41,-26.12 119.07,-26.12 36.21,0 68.94,5.58 98.19,16.71l208.91 0 0 85.66zm-307.1 192.2c32.03,0 57.46,-9.75 76.25,-29.25 18.81,-19.5 28.21,-45.26 28.21,-77.29 0,-32.04 -9.23,-57.8 -27.69,-77.3 -18.45,-19.5 -44.04,-29.25 -76.77,-29.25 -31.33,0 -56.41,9.75 -75.2,29.25 -18.81,19.5 -28.21,45.26 -28.21,77.3 0,32.03 9.4,57.79 28.21,77.29 18.79,19.5 43.87,29.25 75.2,29.25zm188.02 340.51c0,-43.87 -27.87,-65.79 -83.56,-65.79l-165.04 0 -13.58 0c-45.96,38.29 -68.94,76.59 -68.94,114.88 0,25.08 10.26,43.18 30.82,54.31 20.54,11.16 49.96,16.72 88.26,16.72 39.69,0 75.73,-5.91 108.11,-17.75 32.37,-11.83 57.79,-27.16 76.25,-45.97 18.45,-18.79 27.68,-37.59 27.68,-56.4zm453.32 -34.47c-60.58,0 -111.77,-13.23 -153.54,-39.69 -41.79,-26.46 -73.12,-62.33 -94.01,-107.58 -20.9,-45.27 -31.34,-95.75 -31.34,-151.46 0,-57.8 10.44,-109.33 31.34,-154.59 20.89,-45.27 52.22,-81.13 94.01,-107.59 41.77,-26.47 92.96,-39.7 153.54,-39.7 60.58,0 111.77,13.77 153.54,41.27 41.79,27.5 73.12,63.89 94.01,109.16 20.9,45.25 31.34,95.04 31.34,149.37 0,54.31 -10.44,104.27 -31.34,149.89 -20.89,45.6 -52.22,82.15 -94.01,109.67 -41.77,27.5 -92.96,41.25 -153.54,41.25zm1.04 -85.65c52.92,0 93.14,-18.96 120.66,-56.93 27.5,-37.94 41.25,-90.35 41.25,-157.19 0,-66.16 -13.75,-118.39 -41.25,-156.68 -27.52,-38.31 -67.74,-57.45 -120.66,-57.45 -53.62,0 -94,19.14 -121.16,57.45 -27.15,38.29 -40.73,90.52 -40.73,156.68 0,66.84 13.58,119.25 40.73,157.19 27.16,37.97 67.54,56.93 121.16,56.93zm651.79 85.65c-60.58,0 -111.77,-13.23 -153.55,-39.69 -41.79,-26.46 -73.11,-62.33 -94,-107.58 -20.9,-45.27 -31.35,-95.75 -31.35,-151.46 0,-57.8 10.45,-109.33 31.35,-154.59 20.89,-45.27 52.21,-81.13 94,-107.59 41.78,-26.47 92.97,-39.7 153.55,-39.7 60.58,0 111.77,13.77 153.54,41.27 41.79,27.5 73.12,63.89 94,109.16 20.91,45.25 31.35,95.04 31.35,149.37 0,54.31 -10.44,104.27 -31.35,149.89 -20.88,45.6 -52.21,82.15 -94,109.67 -41.77,27.5 -92.96,41.25 -153.54,41.25zm1.04 -85.65c52.92,0 93.13,-18.96 120.65,-56.93 27.5,-37.94 41.25,-90.35 41.25,-157.19 0,-66.16 -13.75,-118.39 -41.25,-156.68 -27.52,-38.31 -67.73,-57.45 -120.65,-57.45 -53.62,0 -94.01,19.14 -121.16,57.45 -27.16,38.29 -40.73,90.52 -40.73,156.68 0,66.84 13.57,119.25 40.73,157.19 27.15,37.97 67.54,56.93 121.16,56.93zm884.71 -766.68l0 835.62 -87.73 0 -12.54 -45.96c-50.14,41.79 -105.85,62.67 -167.12,62.67 -48.06,0 -90.54,-11.3 -127.44,-33.94 -36.91,-22.63 -65.62,-55.89 -86.18,-99.75 -20.54,-43.87 -30.81,-96.79 -30.81,-158.78 0,-103.75 27.33,-181.04 82,-231.89 54.66,-50.82 126.91,-76.25 216.74,-76.25 34.81,0 67.54,4.89 98.18,14.64l0 -266.36 114.9 0zm-394.83 559.86c0,72.43 13.05,124.83 39.17,157.2 26.12,32.39 58.67,48.58 97.66,48.58 27.86,0 52.75,-4 74.69,-12.02 21.93,-8 44.73,-20.71 68.41,-38.12l0 -362.45c-25.76,-9.75 -56.41,-14.62 -91.91,-14.62 -63.37,0 -110.54,19.49 -141.54,58.49 -30.98,39 -46.48,93.31 -46.48,162.94zm1345.36 -205.77l-117 -12.54c17.42,28.56 26.11,60.94 26.11,97.16 0,34.11 -8,65.44 -24.02,94 -16.02,28.56 -40.21,51.52 -72.59,68.94 -32.37,17.41 -72.24,26.12 -119.6,26.12 -23.68,0 -44.91,-2.1 -63.72,-6.27 -16.71,13.92 -28.88,26.29 -36.56,37.08 -7.65,10.79 -11.48,21.75 -11.48,32.9 0,14.62 5.04,25.06 15.14,31.33 10.09,6.27 26.98,9.41 50.67,9.41l172.33 0c54.33,0 96.45,12.53 126.39,37.59 29.95,25.08 44.93,58.5 44.93,100.28 0,41.09 -14.1,78.69 -42.31,112.81 -28.2,34.13 -66.68,60.94 -115.43,80.42 -48.73,19.5 -103.41,29.25 -163.98,29.25 -80.78,0 -139.1,-14.27 -174.95,-42.83 -35.87,-28.54 -53.81,-63.71 -53.81,-105.48 0,-27.87 7.33,-52.58 21.94,-74.17 14.62,-21.58 36.91,-43.53 66.85,-65.8 -40.39,-18.11 -60.58,-47.36 -60.58,-87.75 0,-20.88 6.96,-40.9 20.89,-60.06 13.92,-19.15 36.21,-40.56 66.85,-64.23 -25.77,-17.4 -45.43,-39.35 -59.03,-65.81 -13.57,-26.46 -20.36,-55 -20.36,-85.66 0,-34.11 8.02,-65.44 24.04,-94 16,-28.56 40.38,-51.52 73.11,-68.94 32.72,-17.41 72.41,-26.12 119.07,-26.12 36.21,0 68.94,5.58 98.19,16.71l208.91 0 0 85.66zm-307.1 192.2c32.03,0 57.46,-9.75 76.25,-29.25 18.81,-19.5 28.21,-45.26 28.21,-77.29 0,-32.04 -9.23,-57.8 -27.69,-77.3 -18.45,-19.5 -44.04,-29.25 -76.77,-29.25 -31.33,0 -56.41,9.75 -75.2,29.25 -18.81,19.5 -28.21,45.26 -28.21,77.3 0,32.03 9.4,57.79 28.21,77.29 18.79,19.5 43.87,29.25 75.2,29.25zm188.02 340.51c0,-43.87 -27.87,-65.79 -83.56,-65.79l-165.04 0 -13.58 0c-45.96,38.29 -68.94,76.59 -68.94,114.88 0,25.08 10.27,43.18 30.82,54.31 20.54,11.16 49.97,16.72 88.26,16.72 39.69,0 75.73,-5.91 108.11,-17.75 32.37,-11.83 57.79,-27.16 76.26,-45.97 18.44,-18.79 27.67,-37.59 27.67,-56.4zm284.1 -766.68c-19.5,0 -36.21,-6.96 -50.13,-20.88 -13.93,-13.95 -20.89,-30.29 -20.89,-49.1 0,-19.5 6.96,-36.39 20.89,-50.66 13.92,-14.28 30.63,-21.42 50.13,-21.42 19.51,0 36.22,7.14 50.14,21.42 13.92,14.27 20.89,31.16 20.89,50.66 0,18.81 -6.97,35.15 -20.89,49.1 -13.92,13.92 -30.63,20.88 -50.14,20.88zm-57.44 148.31l114.89 0 0 567.19 -114.89 0 0 -567.19zm621.5 92.97c-34.12,0 -66.16,4.54 -96.1,13.59 -29.94,9.04 -63.37,26.45 -100.27,52.22l0 408.41 -114.89 0 0 -567.19 87.73 0 19.85 73.12c34.81,-32.71 68.41,-55.69 100.79,-68.92 32.39,-13.24 66.68,-19.85 102.89,-19.85l0 108.62zm126.4 -361.4l114.89 0 0 835.62 -114.89 0 0 -835.62zm457.5 852.33c-78.68,0 -145.53,-16.36 -200.55,-49.09l29.25 -82.52c51.53,30.65 108.64,45.96 171.3,45.96 34.13,0 62.15,-7.31 84.1,-21.93 21.92,-14.63 32.9,-35.52 32.9,-62.67 0,-22.98 -9.92,-40.73 -29.77,-53.27 -19.85,-12.54 -51.37,-26.81 -94.54,-42.83 -36.9,-13.23 -67.19,-25.77 -90.87,-37.6 -23.67,-11.84 -43.69,-28.04 -60.06,-48.57 -16.36,-20.54 -24.55,-46.83 -24.55,-78.87 0,-55 19.5,-96.97 58.5,-125.85 39,-28.91 90.86,-43.37 155.63,-43.37 68.24,0 128.12,15.68 179.66,47.02l-29.25 82.5c-47.34,-28.54 -96.79,-42.81 -148.33,-42.81 -30.63,0 -55.35,5.91 -74.15,17.76 -18.79,11.82 -28.2,29.59 -28.2,53.27 0,22.28 9.75,39.69 29.24,52.23 19.5,12.52 50.15,26.1 91.92,40.73 38.31,13.23 69.12,25.94 92.45,38.12 23.32,12.19 43.52,29.25 60.57,51.19 17.06,21.93 25.6,49.96 25.6,84.08 0,55 -20.54,98.18 -61.64,129.52 -41.07,31.33 -97.48,47 -169.21,47zm-7045.34 506.67c66.16,0 111.6,17.24 136.31,51.71 24.72,34.46 37.08,84.08 37.08,148.85l0 383.34 -115.94 0 0 -370.8c0,-45.27 -6.45,-77.31 -19.31,-96.1 -12.89,-18.81 -36.39,-28.21 -70.52,-28.21 -45.95,0 -96.1,20.54 -150.41,61.63l0 433.48 -114.89 0 0 -567.19 87.73 0 14.62 55.36c68.25,-48.04 133.35,-72.07 195.33,-72.07zm589.12 514.95c34.11,0 65.29,-7.13 93.48,-21.4 28.21,-14.27 56.23,-34.66 84.08,-61.12l38.65 73.12c-29.94,30.65 -62.32,54.15 -97.13,70.52 -34.83,16.36 -74.52,24.54 -119.08,24.54 -61.28,0 -112.82,-13.23 -154.6,-39.7 -41.78,-26.46 -72.93,-62.32 -93.49,-107.58 -20.54,-45.27 -30.81,-95.75 -30.81,-151.46 0,-57.79 10.27,-109.33 30.81,-154.58 20.56,-45.27 51.71,-81.14 93.49,-107.6 41.78,-26.46 93.32,-39.69 154.6,-39.69 66.84,0 120.29,19.15 160.33,57.46 40.04,38.29 60.06,91.56 60.06,159.81 0,20.89 -2.79,44.21 -8.35,69.98l-376.03 0 0 12.54c0,66.85 13.75,119.41 41.25,157.72 27.5,38.31 68.43,57.44 122.74,57.44zm-5.23 -433.47c-38.99,0 -70.85,11.13 -95.57,33.42 -24.73,22.29 -42.3,53.27 -52.75,92.97l261.13 0 0 -10.45c0,-37.59 -10.97,-66.33 -32.91,-86.17 -21.92,-19.85 -48.56,-29.77 -79.9,-29.77zm601.65 433.47c34.11,0 65.29,-7.13 93.48,-21.4 28.21,-14.27 56.23,-34.66 84.08,-61.12l38.65 73.12c-29.94,30.65 -62.32,54.15 -97.13,70.52 -34.83,16.36 -74.52,24.54 -119.08,24.54 -61.27,0 -112.81,-13.23 -154.6,-39.7 -41.77,-26.46 -72.93,-62.32 -93.49,-107.58 -20.54,-45.27 -30.81,-95.75 -30.81,-151.46 0,-57.79 10.27,-109.33 30.81,-154.58 20.56,-45.27 51.72,-81.14 93.49,-107.6 41.79,-26.46 93.33,-39.69 154.6,-39.69 66.85,0 120.29,19.15 160.33,57.46 40.04,38.29 60.06,91.56 60.06,159.81 0,20.89 -2.79,44.21 -8.35,69.98l-376.03 0 0 12.54c0,66.85 13.75,119.41 41.25,157.72 27.5,38.31 68.43,57.44 122.74,57.44zm-5.23 -433.47c-38.99,0 -70.85,11.13 -95.57,33.42 -24.73,22.29 -42.3,53.27 -52.75,92.97l261.13 0 0 -10.45c0,-37.59 -10.96,-66.33 -32.91,-86.17 -21.92,-19.85 -48.56,-29.77 -79.9,-29.77zm834.58 -333.2l0 835.62 -87.74 0 -12.53 -45.97c-50.14,41.79 -105.85,62.68 -167.13,62.68 -48.05,0 -90.53,-11.31 -127.44,-33.95 -36.9,-22.63 -65.62,-55.88 -86.17,-99.75 -20.54,-43.87 -30.81,-96.79 -30.81,-158.77 0,-103.76 27.32,-181.05 82,-231.89 54.65,-50.83 126.91,-76.25 216.73,-76.25 34.81,0 67.55,4.88 98.18,14.63l0 -266.35 114.91 0zm-394.84 559.86c0,72.42 13.06,124.83 39.17,157.2 26.12,32.38 58.68,48.57 97.66,48.57 27.87,0 52.75,-4 74.69,-12.02 21.93,-8 44.74,-20.71 68.41,-38.11l0 -362.46c-25.75,-9.75 -56.4,-14.61 -91.91,-14.61 -63.36,0 -110.54,19.48 -141.54,58.48 -30.98,39 -46.48,93.31 -46.48,162.95zm737.44 292.47c-78.67,0 -145.52,-16.37 -200.54,-49.1l29.25 -82.52c51.52,30.65 108.64,45.96 171.29,45.96 34.14,0 62.16,-7.31 84.1,-21.92 21.93,-14.64 32.91,-35.52 32.91,-62.68 0,-22.98 -9.93,-40.73 -29.77,-53.27 -19.85,-12.54 -51.37,-26.81 -94.54,-42.83 -36.91,-13.23 -67.2,-25.77 -90.87,-37.59 -23.68,-11.85 -43.7,-28.04 -60.06,-48.58 -16.37,-20.54 -24.56,-46.83 -24.56,-78.87 0,-55 19.5,-96.96 58.5,-125.85 39,-28.9 90.87,-43.36 155.64,-43.36 68.23,0 128.12,15.67 179.66,47.01l-29.25 82.51c-47.35,-28.54 -96.79,-42.81 -148.33,-42.81 -30.64,0 -55.35,5.9 -74.16,17.75 -18.79,11.83 -28.19,29.6 -28.19,53.27 0,22.29 9.75,39.69 29.23,52.23 19.5,12.52 50.15,26.1 91.93,40.73 38.3,13.23 69.11,25.95 92.44,38.12 23.33,12.19 43.52,29.25 60.58,51.19 17.06,21.93 25.6,49.97 25.6,84.08 0,55.01 -20.54,98.18 -61.64,129.53 -41.08,31.32 -97.48,47 -169.22,47zm1119.75 -18.81c-18.81,4.88 -34.48,8.37 -47.02,10.46 -12.52,2.08 -26.81,3.12 -42.81,3.12 -27.87,0 -51.02,-5.39 -69.47,-16.18 -18.46,-10.8 -30.82,-29.42 -37.07,-55.88 -31.35,23.67 -61.99,41.77 -91.93,54.31 -29.94,12.54 -60.58,18.8 -91.92,18.8 -44.56,0 -81.12,-13.05 -109.68,-39.17 -28.54,-26.12 -42.83,-58.67 -42.83,-97.66 0,-37.61 10.1,-68.42 30.31,-92.44 20.19,-24.02 48.21,-43.7 84.08,-59.02 35.86,-15.33 86.17,-32.39 150.93,-51.18l66.84 -18.8 0 -31.33c0,-36.22 -7.48,-64.95 -22.44,-86.18 -14.98,-21.25 -38.83,-31.86 -71.56,-31.86 -32.73,0 -64.23,6.96 -94.52,20.88 -30.29,13.94 -64.6,39 -102.89,75.21l-37.61 -75.21c82.17,-73.12 170.27,-109.67 264.27,-109.67 61.27,0 106.54,16.36 135.79,49.09 29.24,32.73 43.87,87.41 43.87,164.01l0 253.81c0,15.31 2.79,26.29 8.35,32.91 5.57,6.61 14.63,9.92 27.17,9.92 11.83,0 26.45,-3.14 43.87,-9.4l6.27 81.46zm-417.82 -133.7c0,21.6 6.09,37.43 18.27,47.53 12.19,10.11 29.08,15.15 50.67,15.15 22.27,0 45.25,-5.4 68.93,-16.19 23.69,-10.79 50.15,-26.99 79.38,-48.56l0 -135.8 -49.08 14.62c-62.67,19.5 -106.36,38.13 -131.09,55.89 -24.72,17.75 -37.08,40.21 -37.08,67.36zm941.1 152.51c-78.67,0 -145.52,-16.37 -200.54,-49.1l29.25 -82.52c51.52,30.65 108.64,45.96 171.29,45.96 34.14,0 62.16,-7.31 84.1,-21.92 21.92,-14.64 32.9,-35.52 32.9,-62.68 0,-22.98 -9.92,-40.73 -29.77,-53.27 -19.84,-12.54 -51.36,-26.81 -94.54,-42.83 -36.9,-13.23 -67.19,-25.77 -90.86,-37.59 -23.68,-11.85 -43.7,-28.04 -60.06,-48.58 -16.37,-20.54 -24.56,-46.83 -24.56,-78.87 0,-55 19.5,-96.96 58.5,-125.85 39,-28.9 90.87,-43.36 155.64,-43.36 68.23,0 128.12,15.67 179.66,47.01l-29.25 82.51c-47.35,-28.54 -96.79,-42.81 -148.33,-42.81 -30.64,0 -55.35,5.9 -74.16,17.75 -18.79,11.83 -28.19,29.6 -28.19,53.27 0,22.29 9.75,39.69 29.23,52.23 19.5,12.52 50.15,26.1 91.92,40.73 38.31,13.23 69.12,25.95 92.45,38.12 23.33,12.19 43.52,29.25 60.58,51.19 17.06,21.93 25.59,49.97 25.59,84.08 0,55.01 -20.53,98.18 -61.63,129.53 -41.08,31.32 -97.49,47 -169.22,47zm640.31 -600.61c48.04,0 90.52,11.49 127.43,34.48 36.9,22.98 65.63,56.57 86.17,100.79 20.54,44.21 30.81,96.96 30.81,158.25 0,102.35 -27.33,179.14 -81.98,230.32 -54.68,51.17 -126.91,76.77 -216.74,76.77 -34.83,0 -67.56,-4.87 -98.2,-14.62l0 243.37 -114.88 0 0 -813.69 87.73 0 12.54 45.96c49.44,-41.08 105.14,-61.63 167.12,-61.63zm-60.58 514.95c63.37,0 110.54,-19.67 141.52,-59 31,-39.35 46.49,-94.19 46.49,-164.52 0,-72.43 -13.06,-124.47 -39.18,-156.16 -26.1,-31.68 -58.65,-47.52 -97.66,-47.52 -27.84,0 -52.75,3.82 -74.67,11.48 -21.94,7.67 -44.75,20.19 -68.43,37.61l0 362.46c27.85,10.44 58.51,15.65 91.93,15.65zm932.77 66.85c-18.8,4.88 -34.48,8.37 -47.01,10.46 -12.53,2.08 -26.81,3.12 -42.81,3.12 -27.87,0 -51.02,-5.39 -69.47,-16.18 -18.46,-10.8 -30.82,-29.42 -37.08,-55.88 -31.34,23.67 -61.98,41.77 -91.92,54.31 -29.94,12.54 -60.58,18.8 -91.93,18.8 -44.56,0 -81.11,-13.05 -109.67,-39.17 -28.54,-26.12 -42.83,-58.67 -42.83,-97.66 0,-37.61 10.1,-68.42 30.31,-92.44 20.19,-24.02 48.21,-43.7 84.08,-59.02 35.86,-15.33 86.17,-32.39 150.92,-51.18l66.85 -18.8 0 -31.33c0,-36.22 -7.48,-64.95 -22.44,-86.18 -14.98,-21.25 -38.83,-31.86 -71.56,-31.86 -32.73,0 -64.23,6.96 -94.52,20.88 -30.29,13.94 -64.6,39 -102.89,75.21l-37.62 -75.21c82.18,-73.12 170.28,-109.67 264.28,-109.67 61.27,0 106.54,16.36 135.79,49.09 29.24,32.73 43.87,87.41 43.87,164.01l0 253.81c0,15.31 2.79,26.29 8.35,32.91 5.57,6.61 14.63,9.92 27.17,9.92 11.83,0 26.44,-3.14 43.87,-9.4l6.26 81.46zm-417.81 -133.7c0,21.6 6.09,37.43 18.27,47.53 12.19,10.11 29.07,15.15 50.67,15.15 22.27,0 45.25,-5.4 68.93,-16.19 23.69,-10.79 50.15,-26.99 79.38,-48.56l0 -135.8 -49.08 14.62c-62.67,19.5 -106.37,38.13 -131.1,55.89 -24.71,17.75 -37.07,40.21 -37.07,67.36zm825.17 -448.1c66.16,0 111.6,17.24 136.32,51.71 24.71,34.46 37.07,84.08 37.07,148.85l0 383.34 -115.94 0 0 -370.8c0,-45.27 -6.44,-77.31 -19.31,-96.1 -12.89,-18.81 -36.39,-28.21 -70.52,-28.21 -45.95,0 -96.1,20.54 -150.41,61.63l0 433.48 -114.89 0 0 -567.19 87.74 0 14.61 55.36c68.25,-48.04 133.35,-72.07 195.33,-72.07zm358.28 -251.72l114.89 0 0 835.62 -114.89 0 0 -835.62zm493.02 835.62l-129.53 0 -236.06 -298.74 0 -20.89 204.72 -247.56 122.21 0 -216.22 256.97 254.88 310.22zm176.52 -715.51c-19.5,0 -36.21,-6.96 -50.14,-20.88 -13.92,-13.94 -20.88,-30.29 -20.88,-49.1 0,-19.5 6.96,-36.38 20.88,-50.65 13.93,-14.29 30.64,-21.43 50.14,-21.43 19.5,0 36.21,7.14 50.14,21.43 13.92,14.27 20.88,31.15 20.88,50.65 0,18.81 -6.96,35.16 -20.88,49.1 -13.93,13.92 -30.64,20.88 -50.14,20.88zm-57.44 148.32l114.89 0 0 567.19 -114.89 0 0 -567.19zm607.92 -16.71c66.15,0 111.6,17.24 136.31,51.71 24.71,34.46 37.08,84.08 37.08,148.85l0 383.34 -115.95 0 0 -370.8c0,-45.27 -6.44,-77.31 -19.31,-96.1 -12.88,-18.81 -36.38,-28.21 -70.52,-28.21 -45.94,0 -96.1,20.54 -150.41,61.63l0 433.48 -114.89 0 0 -567.19 87.74 0 14.62 55.36c68.25,-48.04 133.35,-72.07 195.33,-72.07zm857.56 102.36l-117 -12.53c17.42,28.55 26.11,60.94 26.11,97.15 0,34.12 -8,65.45 -24.02,94 -16.02,28.56 -40.21,51.52 -72.59,68.95 -32.37,17.4 -72.24,26.11 -119.6,26.11 -23.68,0 -44.91,-2.09 -63.72,-6.27 -16.71,13.93 -28.88,26.29 -36.56,37.08 -7.65,10.79 -11.48,21.75 -11.48,32.91 0,14.61 5.04,25.06 15.14,31.33 10.09,6.26 26.98,9.4 50.67,9.4l172.33 0c54.33,0 96.45,12.54 126.39,37.6 29.95,25.07 44.93,58.5 44.93,100.27 0,41.1 -14.1,78.69 -42.31,112.81 -28.2,34.13 -66.68,60.94 -115.43,80.43 -48.73,19.5 -103.41,29.25 -163.98,29.25 -80.78,0 -139.1,-14.27 -174.95,-42.83 -35.87,-28.54 -53.81,-63.72 -53.81,-105.49 0,-27.86 7.33,-52.58 21.94,-74.17 14.62,-21.58 36.91,-43.52 66.85,-65.79 -40.39,-18.12 -60.58,-47.37 -60.58,-87.75 0,-20.89 6.96,-40.91 20.89,-60.06 13.92,-19.16 36.21,-40.56 66.85,-64.24 -25.77,-17.4 -45.43,-39.34 -59.03,-65.81 -13.57,-26.46 -20.36,-55 -20.36,-85.65 0,-34.12 8.02,-65.45 24.04,-94 16,-28.56 40.38,-51.53 73.11,-68.95 32.72,-17.4 72.41,-26.11 119.07,-26.11 36.21,0 68.94,5.57 98.19,16.71l208.91 0 0 85.65zm-307.1 192.2c32.03,0 57.46,-9.75 76.25,-29.25 18.81,-19.5 28.21,-45.25 28.21,-77.29 0,-32.04 -9.23,-57.79 -27.69,-77.29 -18.45,-19.5 -44.04,-29.25 -76.77,-29.25 -31.33,0 -56.41,9.75 -75.2,29.25 -18.81,19.5 -28.21,45.25 -28.21,77.29 0,32.04 9.4,57.79 28.21,77.29 18.79,19.5 43.87,29.25 75.2,29.25zm188.02 340.51c0,-43.87 -27.87,-65.79 -83.56,-65.79l-165.04 0 -13.58 0c-45.96,38.29 -68.94,76.6 -68.94,114.89 0,25.07 10.27,43.17 30.82,54.31 20.54,11.15 49.97,16.71 88.26,16.71 39.69,0 75.73,-5.91 108.11,-17.75 32.37,-11.83 57.79,-27.16 76.26,-45.96 18.44,-18.79 27.67,-37.6 27.67,-56.41zm-8237.16 472.2c66.16,0 111.6,17.25 136.31,51.71 24.72,34.46 37.08,84.08 37.08,148.85l0 383.34 -115.94 0 0 -370.8c0,-45.27 -6.45,-77.31 -19.31,-96.1 -12.89,-18.81 -36.39,-28.21 -70.52,-28.21 -45.95,0 -96.1,20.54 -150.41,61.63l0 433.48 -114.89 0 0 -567.19 87.73 0 14.62 55.37c68.25,-48.04 133.35,-72.08 195.33,-72.08zm589.12 600.61c-60.58,0 -111.78,-13.23 -153.55,-39.69 -41.79,-26.46 -73.12,-62.33 -94,-107.58 -20.9,-45.27 -31.35,-95.75 -31.35,-151.47 0,-57.79 10.45,-109.33 31.35,-154.58 20.88,-45.27 52.21,-81.14 94,-107.6 41.77,-26.46 92.97,-39.69 153.55,-39.69 60.57,0 111.77,13.77 153.54,41.27 41.79,27.5 73.12,63.89 94,109.15 20.9,45.26 31.35,95.05 31.35,149.37 0,54.31 -10.45,104.28 -31.35,149.89 -20.88,45.6 -52.21,82.16 -94,109.68 -41.77,27.5 -92.97,41.25 -153.54,41.25zm1.03 -85.65c52.93,0 93.14,-18.97 120.66,-56.93 27.5,-37.94 41.25,-90.35 41.25,-157.2 0,-66.15 -13.75,-118.38 -41.25,-156.67 -27.52,-38.31 -67.73,-57.45 -120.66,-57.45 -53.61,0 -94,19.14 -121.15,57.45 -27.16,38.29 -40.74,90.52 -40.74,156.67 0,66.85 13.58,119.26 40.74,157.2 27.15,37.96 67.54,56.93 121.15,56.93zm1177.19 -498.25l-178.62 574.5 -107.58 0 -130.56 -443.92 -131.62 443.92 -107.58 0 -179.66 -574.5 118.02 0 115.95 442.9 131.62 -442.9 106.54 0 132.66 444.97 114.89 -444.97 115.94 0zm858.6 565.09c-18.8,4.89 -34.48,8.37 -47.02,10.46 -12.52,2.08 -26.8,3.12 -42.81,3.12 -27.86,0 -51.02,-5.38 -69.46,-16.17 -18.46,-10.81 -30.83,-29.43 -37.08,-55.89 -31.34,23.67 -61.98,41.77 -91.92,54.31 -29.95,12.54 -60.58,18.81 -91.93,18.81 -44.56,0 -81.12,-13.06 -109.67,-39.18 -28.54,-26.11 -42.83,-58.67 -42.83,-97.65 0,-37.62 10.09,-68.43 30.3,-92.45 20.2,-24.02 48.22,-43.69 84.08,-59.02 35.87,-15.32 86.18,-32.38 150.93,-51.17l66.85 -18.81 0 -31.33c0,-36.21 -7.48,-64.94 -22.44,-86.18 -14.98,-21.24 -38.83,-31.86 -71.56,-31.86 -32.73,0 -64.24,6.96 -94.52,20.89 -30.29,13.94 -64.6,39 -102.89,75.21l-37.62 -75.21c82.18,-73.12 170.28,-109.68 264.28,-109.68 61.27,0 106.54,16.36 135.79,49.1 29.23,32.73 43.87,87.4 43.87,164l0 253.81c0,15.31 2.79,26.29 8.34,32.91 5.58,6.62 14.64,9.92 27.18,9.92 11.83,0 26.44,-3.13 43.86,-9.4l6.27 81.46zm-417.82 -133.69c0,21.59 6.1,37.42 18.28,47.52 12.19,10.11 29.07,15.15 50.67,15.15 22.27,0 45.25,-5.4 68.92,-16.19 23.7,-10.79 50.16,-26.98 79.39,-48.56l0 -135.79 -49.08 14.61c-62.67,19.5 -106.37,38.14 -131.1,55.89 -24.71,17.75 -37.08,40.21 -37.08,67.37zm825.18 -448.11c66.16,0 111.6,17.25 136.31,51.71 24.72,34.46 37.08,84.08 37.08,148.85l0 383.34 -115.94 0 0 -370.8c0,-45.27 -6.45,-77.31 -19.31,-96.1 -12.89,-18.81 -36.39,-28.21 -70.52,-28.21 -45.95,0 -96.1,20.54 -150.41,61.63l0 433.48 -114.89 0 0 -567.19 87.73 0 14.62 55.37c68.25,-48.04 133.35,-72.08 195.33,-72.08z"/>
   <path class="fil2" d="M13434.51 10686.74l0 835.62 -87.73 0 -12.54 -45.96c-50.13,41.79 -105.85,62.67 -167.12,62.67 -48.06,0 -90.54,-11.31 -127.44,-33.94 -36.91,-22.64 -65.62,-55.89 -86.18,-99.75 -20.54,-43.87 -30.81,-96.8 -30.81,-158.78 0,-103.75 27.33,-181.04 82,-231.89 54.66,-50.83 126.91,-76.25 216.74,-76.25 34.81,0 67.54,4.88 98.18,14.63l0 -266.35 114.9 0zm-394.83 559.86c0,72.43 13.06,124.83 39.17,157.2 26.12,32.38 58.67,48.58 97.66,48.58 27.86,0 52.75,-4 74.69,-12.02 21.93,-8 44.73,-20.71 68.41,-38.12l0 -362.45c-25.75,-9.75 -56.41,-14.62 -91.91,-14.62 -63.37,0 -110.54,19.48 -141.54,58.48 -30.98,39.01 -46.48,93.32 -46.48,162.95zm1181.36 250.68c-38.99,24.39 -81.81,36.56 -128.47,36.56 -62.67,0 -109.33,-16.17 -139.96,-48.56 -30.66,-32.38 -45.97,-78.87 -45.97,-139.44l0 -305.01 -88.79 0 0 -49.1 100.28 -32.37 34.48 -141.02 68.92 0 0 136.83 167.14 0 0 85.66 -167.14 0 0 283.06c0,43.89 6.96,75.39 20.91,94.54 13.92,19.16 36.55,28.72 67.88,28.72 16.02,-0.7 30.98,-3.14 44.93,-7.31 13.92,-4.18 29.23,-10.79 45.94,-19.85l19.85 77.29zm425.12 -558.82c65.47,0 110.56,17.07 135.28,51.19 24.71,34.12 37.08,83.91 37.08,149.37l0 383.34 -114.89 0 0 -370.8c0,-45.27 -6.62,-77.31 -19.85,-96.1 -13.23,-18.81 -36.9,-28.21 -71.04,-28.21 -45.94,0 -96.1,20.89 -150.41,62.67l0 432.44 -114.89 0 0 -835.62 114.89 0 0 316.49c63.37,-43.18 124.66,-64.77 183.83,-64.77zm588.08 514.96c34.12,0 65.29,-7.14 93.48,-21.41 28.21,-14.27 56.23,-34.65 84.08,-61.12l38.66 73.12c-29.95,30.66 -62.33,54.16 -97.14,70.52 -34.83,16.37 -74.52,24.54 -119.08,24.54 -61.27,0 -112.81,-13.23 -154.6,-39.69 -41.77,-26.46 -72.93,-62.33 -93.48,-107.58 -20.54,-45.27 -30.81,-95.75 -30.81,-151.47 0,-57.79 10.27,-109.33 30.81,-154.58 20.55,-45.27 51.71,-81.14 93.48,-107.6 41.79,-26.46 93.33,-39.69 154.6,-39.69 66.85,0 120.29,19.15 160.33,57.46 40.04,38.29 60.06,91.56 60.06,159.81 0,20.89 -2.79,44.22 -8.35,69.99l-376.03 0 0 12.53c0,66.85 13.75,119.41 41.25,157.72 27.51,38.31 68.43,57.45 122.74,57.45zm-5.23 -433.48c-38.98,0 -70.85,11.14 -95.56,33.43 -24.73,22.28 -42.31,53.27 -52.75,92.96l261.12 0 0 -10.44c0,-37.6 -10.96,-66.33 -32.9,-86.18 -21.93,-19.85 -48.57,-29.77 -79.91,-29.77zm668.5 -81.48c66.15,0 111.6,17.25 136.31,51.71 24.71,34.46 37.08,84.08 37.08,148.85l0 383.34 -115.95 0 0 -370.8c0,-45.27 -6.44,-77.31 -19.31,-96.1 -12.88,-18.81 -36.38,-28.21 -70.52,-28.21 -45.94,0 -96.1,20.54 -150.4,61.64l0 433.47 -114.89 0 0 -567.19 87.73 0 14.62 55.37c68.25,-48.04 133.35,-72.08 195.33,-72.08zm418.86 592.26c-20.89,0 -38.66,-7.32 -53.27,-21.94 -14.64,-14.61 -21.95,-32.38 -21.95,-53.27 0,-20.19 7.31,-37.77 21.95,-52.75 14.61,-14.96 32.38,-22.46 53.27,-22.46 20.88,0 38.63,7.5 53.27,22.46 14.61,14.98 21.92,32.56 21.92,52.75 0,20.89 -7.31,38.66 -21.92,53.27 -14.64,14.62 -32.39,21.94 -53.27,21.94z"/>
  </g>
 </g>
</svg>
