<?xml version="1.0" encoding="UTF-8"?>
<!DOCTYPE svg PUBLIC "-//W3C//DTD SVG 1.1//EN" "http://www.w3.org/Graphics/SVG/1.1/DTD/svg11.dtd">
<!-- Creator: CorelDRAW 2017 -->
<svg xmlns="http://www.w3.org/2000/svg" xml:space="preserve" width="200mm" height="200mm" version="1.1" style="shape-rendering:geometricPrecision; text-rendering:geometricPrecision; image-rendering:optimizeQuality; fill-rule:evenodd; clip-rule:evenodd"
viewBox="0 0 20000 20000"
 xmlns:xlink="http://www.w3.org/1999/xlink">
 <defs>
  <style type="text/css">
   <![CDATA[
    .fil0 {fill:none}
    .fil4 {fill:#020202}
    .fil3 {fill:#030303}
    .fil2 {fill:#F40404}
    .fil1 {fill:#F7F7F7}
    .fil5 {fill:#F9F9F9}
    .fil6 {fill:#FA0202}
    .fil8 {fill:#FDFAFA}
    .fil7 {fill:#FEFEFE}
   ]]>
  </style>
 </defs>
 <g id="Capa_x0020_1">
  <metadata id="CorelCorpID_0Corel-Layer"/>
  <rect class="fil0" width="20000" height="20000"/>
  <g id="_2384926897888">
   <path class="fil1" d="M14032.52 6521.74c376.93,20.45 408.59,52.14 622.9,-143.64 18.98,-416.29 -278.51,-355.83 -624.74,-336.35l1.84 479.99z"/>
   <path class="fil2" d="M14046.21 9020.02c-170.14,-0.53 -288.66,-6.28 -353.84,122.51 -244.83,483.74 637.51,402.13 859.54,396.6 294.37,-7.35 495.21,-215.45 298.33,-431.4 -137.99,-151.36 -570.56,-86.97 -804.03,-87.71z"/>
   <path class="fil2" d="M4520.67 10158.61c-56.13,148.93 -166.8,162.57 -206.7,275.79 -64.46,182.87 65.59,284.51 85.87,340.58 352.62,28.17 387.19,-82.28 571.86,-267.85 155.39,-156.13 389.8,-289.69 240.82,-561.82 -326.37,-279.73 -452.47,111.42 -691.85,213.3z"/>
   <path class="fil3" d="M14030.68 6041.75c346.23,-19.48 643.72,-79.94 624.74,336.35 -214.31,195.78 -245.97,164.09 -622.9,143.64l-1.84 -479.99zm-523.14 977.05l-0.2 293.24c-0.37,275.94 253.65,396.52 427.44,230.07 301.06,-274.7 -319.5,-586.52 555.02,-502.82 93.34,178.49 161.76,398.66 258.76,567.3 249.62,10.49 266.93,-16.45 411.49,-126.97 38.34,-336.22 -251.59,-476.92 -158.84,-722.98 33.07,-87.69 294.13,-339.95 111.67,-765.56 -220.03,-513.25 -863.19,-515.32 -1501.8,-450.61 -171.97,264.73 -103.54,1109.66 -103.54,1478.33z"/>
   <path class="fil3" d="M9193.5 7018.8c0,321.12 -47.35,458.39 124.28,513.35 529.14,169.39 365.42,-524.82 390.47,-787.96l761.25 -11.29c49.08,497.39 -132.19,808.9 270.79,816.61 111.56,2.12 141.92,-9.68 227.53,-48 13.11,-627.63 64.49,-1346.99 4.93,-1961.66 -690.4,-150.22 -435.76,329.6 -501.39,790.69 -920.94,48.89 -779.95,23.97 -767.09,-400.84 8.78,-289.94 21.91,-535.28 -379.89,-412.89 -199.35,60.73 -124.05,469.44 -125.25,664.12 -1.74,279.13 -5.63,558.83 -5.63,837.87z"/>
   <path class="fil3" d="M10223.77 3941.5c-1.82,-325.38 111.89,-703.14 -237.21,-716.61 -373.76,-14.44 -281.38,330.53 -283.1,651.87 -6.58,1234.56 -146.22,1500.92 429.17,1399.78 133.85,-214.87 79.9,-387.64 88.94,-707.45 352.31,149.01 478.08,640.55 810.3,764.2 165.88,-48.11 220.82,-97.51 299.29,-241.58 -35.65,-279.58 -522.43,-627.37 -696.36,-837.84 225.51,-227.14 633.53,-507.29 714,-795.97 -163.4,-341.54 -350.73,-304.46 -570.1,-43.74 -127.82,151.91 -381.43,465.64 -554.93,527.34z"/>
   <path class="fil4" d="M7640.75 6491.66c172.57,334.56 196.16,688.05 402.06,1041.94l278.68 0.34c155.72,-214.5 685.11,-1606.37 714.15,-1917.69 -137.84,-91.89 -189.12,-157.69 -420.34,-132.63 -222.03,345.61 -267.61,862.52 -443.45,1042.42 -150.13,-275.11 -209.23,-1032.52 -534.51,-1048.6 -356.18,-17.62 -409.16,780.11 -582.72,1038.72 -7.15,-8.22 -16.46,-33.07 -19.11,-26.54 -2.64,6.46 -14.86,-20.49 -18.35,-26.54 -187.98,-327.05 -195.98,-962.71 -467.44,-997 -336.13,-42.46 -336.02,239.67 -254.54,464.27l410.36 1190.45c59.93,187.03 123.82,464.31 385.03,409.9 318.28,-66.3 338.56,-959.14 550.18,-1039.04z"/>
   <path class="fil4" d="M6261.88 3709.26c306.97,-149.88 625.55,98.44 699.74,307.33 129.29,364.07 -71.55,672.18 -303.84,761.3 -657.92,252.42 -1080.52,-734.39 -395.9,-1068.63zm72.08 -517.23c-582.25,142.57 -974.97,446.92 -920.3,1189.92 93.99,1277.67 2242.61,1253.44 2096.26,-296.58 -45.3,-479.67 -617.68,-1030.04 -1175.96,-893.34z"/>
   <path class="fil4" d="M11726.27 6725.54c-190.39,-792.66 879.67,-995.5 1046.68,-362.45 87.11,330.19 -62.42,643.64 -332.41,726.78 -358.78,110.5 -663.68,-153.67 -714.27,-364.33zm197.94 -1168.44c-1418.81,547.64 -541.77,2436.9 663.77,2015.7 465.11,-162.51 877.69,-709.29 677.61,-1369.29 -132.14,-435.85 -721.68,-885.62 -1341.38,-646.41z"/>
   <path class="fil4" d="M15352.47 5887.69c-0.85,258.87 -29.18,1607.52 36.02,1673.07 163.11,69.24 1425.77,109.25 1561.41,14.81 86.22,-60.05 88.63,-238.79 52.78,-330.91 -52.07,-133.78 -145.13,-109.49 -315.87,-111.51 -258.46,-3.08 -558.43,14.28 -811.2,-16.01l-16.19 -256.65c699.21,-42.29 961.56,47.42 796.63,-486.28 -211.92,-78.9 -525.06,-32.08 -776.69,-55.78l-3.41 -221.26c197.02,-104.98 848.95,-56.51 1077.54,-57.89 288.77,-587.58 -213.28,-479.79 -646.52,-485.05 -772.25,-9.32 -952.89,-110.57 -954.5,333.46z"/>
   <path class="fil4" d="M5229.4 5029.2c-34.17,-707.88 -464.36,-132.85 -917.68,-259.41 -439.66,-122.73 -572.36,-846.18 -24.56,-1061.43 356.37,-140.03 472.96,92.84 757.9,95.66 867.49,-519.13 -1264.37,-1144.08 -1601.12,141.34 -235.9,900.39 777.59,1798.66 1785.46,1083.84z"/>
   <path class="fil4" d="M9273.51 4666.81c-257.13,34.8 -333.28,244.48 -671.06,134.63 -563.75,-183.29 -539.22,-858.76 -81.89,-1053.04 390.26,-165.75 470.56,58.61 752.95,97.5 678.37,-364.02 -231.98,-739.19 -778.53,-610.57 -1138.96,268.03 -1057.99,1794.65 -4.09,2044.2 468.15,110.84 1441.76,-194.54 782.62,-612.72z"/>
   <path class="fil5" d="M6261.88 3709.26c-684.62,334.24 -262.02,1321.05 395.9,1068.63 232.29,-89.12 433.13,-397.23 303.84,-761.3 -74.19,-208.89 -392.77,-457.21 -699.74,-307.33z"/>
   <path class="fil5" d="M11726.27 6725.54c50.59,210.66 355.49,474.83 714.27,364.33 269.99,-83.14 419.52,-396.59 332.41,-726.78 -167.01,-633.05 -1237.07,-430.21 -1046.68,362.45z"/>
   <path class="fil6" d="M12622.77 13111.43c256.9,-6.32 1099.09,52.73 1256.96,150.31 57.54,118.37 51.49,358.13 73.39,506.03 27.62,186.55 71.49,333.51 123.3,506.44 161.42,538.76 571.67,1071.05 1025.01,1405.92 345.03,254.85 726.94,337.43 768.89,471.3 -323.8,170.13 -1142.48,175.7 -1488.22,79.41 -853.22,-237.63 -1477.87,-795.11 -1770.57,-1621.42 -109.84,-310.07 -219.35,-1177.37 11.24,-1497.99zm-1392.11 -740.24c-162.84,42.66 -4132.16,-395.18 -4313.95,-460.58l-3295.76 -341.85c-77.06,-174.17 -20.67,-277.49 -250.78,-293.7 -161.4,-11.37 -316.65,104.79 -444.33,164.03 -259.54,120.37 -636.42,215.38 -975.17,181.34 -508.42,-51.08 -1409.69,-211.96 -1369.42,-900.92 169.63,77.6 345.95,396.29 603.22,193.09 66.72,-51.63 88.24,-30.93 101.26,-168.48 31.6,-334.03 -859.78,-496.16 -222.78,-1387.53 1142.34,-1598.49 2321.59,-1583.11 3883.59,-1842.11 237.65,-39.41 893.92,-184.43 1029.79,-7.15 177.42,231.42 -121.61,1183.42 -399.93,1553.46 -92.99,123.61 -269.55,281.14 -161.43,473.86 93.62,166.87 311.15,166.36 451.25,23.34 378.83,-386.78 521.69,-963.99 661.24,-1430.01 1299.96,-22.76 2616.96,29.85 3918.3,33.26 1295.87,3.42 2556.74,12.19 3851.64,34.65 1278.88,22.17 2447.11,-166.04 3216.23,674.6 409.91,448.03 1102.58,1845.71 1398.23,2491.54 403.53,881.49 818.17,2095.83 268.84,3099.79 -1111,2030.48 -4114.75,1582.97 -4653.46,-509.78 -147.07,-571.38 -70.55,-1212.27 50.91,-1760.93 116.16,-524.76 -331.82,-501.42 -455.71,-319.46 -139.13,204.33 -80.53,576.42 -201.84,807.62 -332.4,42.31 -1028.23,-77.02 -1376.55,-108.16 -154.82,-13.85 -1200.33,-117.17 -1313.39,-199.92zm-4636.56 -4790.79c-152.36,-264.36 -30.47,-273.72 -302.32,-510.56 -439.96,-383.3 -1294.42,-100.52 -2019.73,4.18 -1119.53,161.62 -1620.17,244.76 -2451.07,778.78 -1624.22,1043.88 -3141.2,4012.6 49.27,4302.86 606.25,55.15 860.76,-169.05 1434.68,-86.28 970.39,139.98 1914.88,204.1 2896.31,324.86 970.48,119.42 1954.83,236.69 2904.52,323.68 920.17,84.27 1951.54,275.65 2869.25,319.09 22.19,844.96 -132.78,1212.32 197.84,1975.69 216.16,499.08 540.46,875.44 941.09,1190.61 856.91,674.14 2321.37,862.6 3352.79,272.38 384.63,-220.1 412.99,-144.05 888.94,-190.03 304.92,-29.48 616.85,-125.08 862.99,-233.95 1672.75,-739.91 2187.4,-2435.42 1459.13,-4281.18 -419.22,-1062.45 -889.03,-1933.1 -1450,-2859.88 -774.07,-1278.88 -1870.64,-1220.15 -3093.08,-1231.87 -1410.26,-13.5 -2843.76,-31.72 -4270.3,-45.06 -691.35,-6.46 -1484.63,16.82 -2140.44,-28.95 -700.32,-48.87 -1434.48,19.69 -2129.87,-24.37z"/>
   <path class="fil6" d="M10655.08 9489.09l2084.36 21.76c207.34,-42.32 267.87,-326.86 108.98,-455.07 -104.48,-84.31 -4700.31,-134.26 -4865.1,-94.91 -188.97,45.15 -249.85,322.75 -90.66,445.09 165.97,127.56 2368.19,81.92 2762.42,83.13z"/>
   <path class="fil7" d="M14850.24 9107.73c196.88,215.95 -3.96,424.05 -298.33,431.4 -222.03,5.53 -1104.37,87.14 -859.54,-396.6 65.18,-128.79 183.7,-123.04 353.84,-122.51 233.47,0.74 666.04,-63.65 804.03,87.71zm-6957.58 298.23c-159.19,-122.34 -98.31,-399.94 90.66,-445.09 164.79,-39.35 4760.62,10.6 4865.1,94.91 158.89,128.21 98.36,412.75 -108.98,455.07l-2084.36 -21.76c-394.23,-1.21 -2596.45,44.43 -2762.42,-83.13zm-975.95 2504.65c181.79,65.4 4151.11,503.24 4313.95,460.58 386.67,-103.83 494.94,43.51 709.16,-49.42 225.05,-97.6 1567.7,3.02 1813.33,2.05 102.82,-131.91 231.01,-513.55 234.6,-685.93 3.19,-152.16 -24.2,8.25 16.39,-178.67 212.22,-6.51 317.8,-90.43 491.29,11.59l173.5 102.73c39.83,-57.4 151.92,-142.74 214.81,-156.2 2.28,155.6 23.3,257.23 -51.33,373.8 -45.99,71.82 -113.79,161.81 -72.39,254.8 126.58,39.81 43.58,-5.1 133.8,-53.48l-36.25 263.56 -176.85 -25.89c-40.03,175.51 12.03,485.88 -132.34,611.77 0,95.09 -13.41,419.36 0.94,488.56 87,419.78 144.44,-200.01 90.79,302.15 237.84,-39.25 178.5,33.99 249.93,-13.89 -8.39,219.54 -24.23,-99.32 -91.59,204.33 -56.19,253.34 -28.27,113.11 102.33,233.75l-100.79 209.25c90.24,45.81 93.66,35.09 134.62,146.67l-9.43 144.25c196.49,8.76 -28.74,-13.34 181.77,-30.52l26.38 175.53c-3.65,88.75 -87.62,73.53 54.02,141.48 124.74,59.86 338.11,56.85 472.69,93.09 -39.19,130.33 -74.26,0.08 -152.85,76.82 -173.42,169.33 42.92,154.33 213.54,125.75 103.16,-17.28 -28.91,35.46 82.23,-32.27 40.59,-24.75 102.94,-148.95 60.09,-70.1 46.83,81.48 26.15,139.05 25.46,276.62 139.32,0 399.49,-53.93 506.26,35.18 8.72,7.29 15.55,16.74 24.45,25.23 10.67,10.19 18.6,20.24 28.84,30.72l68.02 72.65c123.63,-174.59 573.3,69.36 866.05,-88.81 9.29,-5 17.67,-13.76 26.09,-18.86 110.96,-67.04 -83.28,-49.4 154.88,-60.07 59.03,-2.64 148.63,9.86 208.68,7.41l224.18 -109.47 -64.01 -74.19c242.16,-65.24 195.99,-50.78 339.97,-196.83 109.68,129.61 171.19,179.84 232.13,66.07 151.02,-281.84 -102.22,18.88 -9.04,-151.83 38.96,-71.39 150.7,-64.09 239.96,-81.82 -8.05,-77.32 -53.31,-330.71 -125.4,-335.14 160.67,53.79 116.61,64.69 290.33,0 50.65,-114.88 69.25,-185.71 44.39,-334.93 0.5,-141.27 16.58,109.53 185.2,-120.74 102.03,-139.31 84.92,-179.59 -59.61,-256.3l0.07 -42.09c156.33,-56.92 61.4,20.93 125.54,-125.47 -9.98,-24.4 36.27,-66.53 -95.1,-125.68l244.88 0 -25.14 -334.82c-92.74,-20.6 -104.43,-68.55 -153.34,-129.88l-86.82 -94.09c-248.55,-237.54 -157.16,-619.75 -135.68,-1158.82 -11.11,-9.44 -28.86,-35.08 -35.78,-25.17l-415.96 -231.6c-7.75,-4.94 -37.75,-31.18 -50.64,-36.49 0,-172.9 -30.3,-281.7 80.49,-400.69 5.68,-6.13 19.18,-15.47 27.42,-24.54l-151.42 -199.88c-109.71,-123.48 -353.46,-240.69 -458.88,-254.63 9.01,-146.59 -37.44,-43.81 102.87,-125.89 -8.28,-12.25 -23.92,-42.7 -28.36,-34.1l-70.81 -106.32c-41.95,-171.65 -16.39,68.56 2.65,-39.44 0.91,-5.15 6.74,-16.32 8.39,-21.78l22.75 -51.53c17.77,-52.73 33.34,-101.83 27.02,-156.04l-64.31 -168.66c-141.8,15.15 -309.06,33.69 -502.6,33.69 122.76,-38.29 67.73,71.32 94.4,-172.3 12.63,-115.4 19.92,-25.55 -17.73,-139.93l-39.14 -203.64c20.24,-163.63 -35.04,-296.3 -48.89,-473.13l-993.18 -14.09c-1.24,-181.91 23.3,-92.93 85.41,-139.5 110.67,-82.98 58.51,221.21 81.82,-156.31l-79.52 -17.6c-8.21,-1.52 -50.32,-5.86 -58.29,-8.23 -50.48,-15.06 -29.28,165.46 -29.65,-57.73 -434.49,0 -400.1,103.08 -502.39,-167.58l-543.84 0c-95.46,248.06 -23.35,173.01 -375.07,168.12 -171.46,-2.37 -417.26,18.33 -540.94,-23.48l-253.49 -66.47c-254.91,-13.7 -369.55,91.79 -756.75,89.19 0,-257.83 14.95,-19.14 -83.52,-125.47l-921.04 0c-159.79,172.63 -199.05,128.2 -459.56,125.92 -181.67,-1.6 -364.09,0.77 -545.44,-0.45 0,-329.19 16.56,-49.35 -83.51,-167.36l-965.53 0c159.36,193.64 37.97,122.61 463.36,125.46 -22.87,89.53 -1828.14,42.12 -2009.77,42.12 -362.85,0 -725.69,0 -1088.52,0 -271.02,0 -867.46,38 -1088.51,7.57l-115.37 188.81c-6.16,10.56 -19.94,14.56 -41.22,71.78 -66.66,179.05 -9.56,414.77 -10.87,611.58 -104.75,5.71 -107.95,1.24 -203.89,24.97 -114.92,28.39 -198.27,91.17 -247.61,202.8 -4.12,9.35 -7.92,20.85 -11.51,30.45 -3.58,9.61 -6.85,21.31 -9.95,30.97 -3.08,9.64 -6.16,21.89 -8.79,31.23 -2.62,9.27 -5.59,22.89 -7.72,31.26l-12.93 61.35c-307.77,96.57 -174.59,18.6 -504.9,-2.09 26.4,51.58 40.8,44.5 1.61,93.51l-46.67 39.89c-7.97,6.42 -24.28,15.64 -31.52,20.91 -7.71,5.61 -23.41,13.22 -34.31,21.04 -10.88,136.95 -0.6,410.6 -11.98,463.51 -61.32,285.21 -78.43,-70.17 -149.77,162.04 -9.1,29.57 8.97,111.21 16.4,139.89l-199.02 -40.41c-8.51,261.44 151.86,-27.78 18.93,218.3 -156.03,15.89 -26.97,-24.63 -158.61,-41.1 -196.54,-24.59 -382.58,108.43 -508.29,-78.54 -20.28,-56.07 -150.33,-157.71 -85.87,-340.58 39.9,-113.22 150.57,-126.86 206.7,-275.79 24.63,-149.64 -15.75,-191.36 -42.57,-333 117.13,-113.1 53.34,13.16 106.44,-146.72 137.59,-3.08 29.11,-20.6 117.28,24.29 6.74,3.44 17.87,10.9 24.33,14.94l67.71 60.55c81.82,-27.29 100.54,-23.32 175.67,-51.32 199.37,-74.28 86.54,0.32 159.05,-111.2 -63.5,-124.94 -47.72,-70.5 -175.44,-114.61 -6.47,-2.24 -21.64,-4.6 -26.8,-6.1 -4.98,-1.43 -18.63,-0.11 -26.01,-4.97l290.27 -1.6c8.7,-317.89 -18.44,-312.51 -112.5,-583.63 131.29,22.59 237.65,38.2 385.41,27.78l-3.79 -1063.53c-91.46,-23.45 -118.9,-29 -196.4,-51.19l-301.77 -3.33c-0.99,74.44 -49.14,-46.89 -125.81,-74.95 -93.54,53.03 -83.97,17.54 -83.74,139.57 -174,-35.42 -106.59,-52.46 -267.3,-34.89 -12.97,1.41 -23.13,2.26 -36.54,4.55l-158.26 47.03c-15.64,6.58 -28.1,15.25 -40.85,21.16l-292.5 274.56 -0.21 -125.68c-231.65,0 -520.58,-39.09 -731.81,46.11 -10.69,4.31 -20.63,9.89 -30.73,14.61l-676.57 244.02c-121.57,3.47 -102.57,37.53 -134.72,108.29 -42.64,93.84 -139.69,145.32 -166.89,240.33l-17.43 145.77c-218.02,-4.52 -88.48,-73.15 -282.02,-10.97 -215.67,69.3 -180.74,243.45 -306.11,430.19 -49.75,74.14 -34.91,45.03 -74.08,70.17 -7.8,5.01 -18.62,9.2 -27.39,14.28l-147.5 79.47c10.92,155.05 48.68,157.44 36.43,282.69 -15.62,159.9 -1.2,-52.53 -28.06,118.48l-6.83 59.61c-0.19,7.52 0.8,20.42 1.22,27.59 14.62,252.21 264.97,223.63 309.65,382.03l-115.26 781.4c-163.67,114.11 -146.72,-49.86 -155.28,275.26l335.24 97c113.65,5.5 195.11,-18.75 301.83,-23.28 293.66,-12.48 446.95,222.9 451.23,-199.61 187.64,-33.57 301.01,-127.41 501.43,-168.55 8.95,-1.83 25.64,-4.21 37.56,-9.13 13.77,-168.71 8.25,-44.33 -36.61,-148.4 134.41,16.88 265.71,9.55 392.03,65.98 7.57,3.4 17.78,10.1 25.21,13.66l169.85 71.27c138.37,58.23 141.3,108.43 306.19,161.28 28.31,196.12 -35.14,-11.96 -30.5,223.78 191.41,57.41 485.8,-34.6 605.26,-42.31 31.77,65.59 4.88,63.64 -72.57,105.12 -6.44,3.45 -22.93,7.43 -34.09,11.93 651.45,21.71 246.21,-39.07 856.3,-56.68 141.26,-4.09 367.96,-11.54 504.89,8.16 139.24,20.03 223.23,63.25 326.1,43.24l129.13 -72.42c-45.28,116.66 -16.15,87.2 88.53,103.07 273.44,41.46 2.35,-21.84 224.02,-54.85 165.6,-24.69 29.53,27.72 236.36,8.83 126.28,-11.54 108.81,-123.21 125.14,-12.62 74.18,55.28 50.15,287.79 71.22,409.49z"/>
   <path class="fil8" d="M6916.71 11910.61c-21.07,-121.7 2.96,-354.21 -71.22,-409.49 -16.33,-110.59 1.14,1.08 -125.14,12.62 -206.83,18.89 -70.76,-33.52 -236.36,-8.83 -221.67,33.01 49.42,96.31 -224.02,54.85 -104.68,-15.87 -133.81,13.59 -88.53,-103.07l-129.13 72.42c-102.87,20.01 -186.86,-23.21 -326.1,-43.24 -136.93,-19.7 -363.63,-12.25 -504.89,-8.16 -610.09,17.61 -204.85,78.39 -856.3,56.68 11.16,-4.5 27.65,-8.48 34.09,-11.93 77.45,-41.48 104.34,-39.53 72.57,-105.12 -119.46,7.71 -413.85,99.72 -605.26,42.31 -4.64,-235.74 58.81,-27.66 30.5,-223.78 -164.89,-52.85 -167.82,-103.05 -306.19,-161.28l-169.85 -71.27c-7.43,-3.56 -17.64,-10.26 -25.21,-13.66 -126.32,-56.43 -257.62,-49.1 -392.03,-65.98 44.86,104.07 50.38,-20.31 36.61,148.4 -11.92,4.92 -28.61,7.3 -37.56,9.13 -200.42,41.14 -313.79,134.98 -501.43,168.55 -4.28,422.51 -157.57,187.13 -451.23,199.61 -106.72,4.53 -188.18,28.78 -301.83,23.28l-335.24 -97c8.56,-325.12 -8.39,-161.15 155.28,-275.26l115.26 -781.4c-44.68,-158.4 -295.03,-129.82 -309.65,-382.03 -0.42,-7.17 -1.41,-20.07 -1.22,-27.59l6.83 -59.61c26.86,-171.01 12.44,41.42 28.06,-118.48 12.25,-125.25 -25.51,-127.64 -36.43,-282.69l147.5 -79.47c8.77,-5.08 19.59,-9.27 27.39,-14.28 39.17,-25.14 24.33,3.97 74.08,-70.17 125.37,-186.74 90.44,-360.89 306.11,-430.19 193.54,-62.18 64,6.45 282.02,10.97l17.43 -145.77c27.2,-95.01 124.25,-146.49 166.89,-240.33 32.15,-70.76 13.15,-104.82 134.72,-108.29l676.57 -244.02c10.1,-4.72 20.04,-10.3 30.73,-14.61 211.23,-85.2 500.16,-46.11 731.81,-46.11l0.21 125.68 292.5 -274.56c12.75,-5.91 25.21,-14.58 40.85,-21.16l158.26 -47.03c13.41,-2.29 23.57,-3.14 36.54,-4.55 160.71,-17.57 93.3,-0.53 267.3,34.89 -0.23,-122.03 -9.8,-86.54 83.74,-139.57 76.67,28.06 124.82,149.39 125.81,74.95l301.77 3.33c77.5,22.19 104.94,27.74 196.4,51.19l3.79 1063.53c-147.76,10.42 -254.12,-5.19 -385.41,-27.78 94.06,271.12 121.2,265.74 112.5,583.63l-290.27 1.6c7.38,4.86 21.03,3.54 26.01,4.97 5.16,1.5 20.33,3.86 26.8,6.1 127.72,44.11 111.94,-10.33 175.44,114.61 -72.51,111.52 40.32,36.92 -159.05,111.2 -75.13,28 -93.85,24.03 -175.67,51.32l-67.71 -60.55c-6.46,-4.04 -17.59,-11.5 -24.33,-14.94 -88.17,-44.89 20.31,-27.37 -117.28,-24.29 -53.1,159.88 10.69,33.62 -106.44,146.72 26.82,141.64 67.2,183.36 42.57,333 239.38,-101.88 365.48,-493.03 691.85,-213.3 148.98,272.13 -85.43,405.69 -240.82,561.82 -184.67,185.57 -219.24,296.02 -571.86,267.85 125.71,186.97 311.75,53.95 508.29,78.54 131.64,16.47 2.58,56.99 158.61,41.1 132.93,-246.08 -27.44,43.14 -18.93,-218.3l199.02 40.41c-7.43,-28.68 -25.5,-110.32 -16.4,-139.89 71.34,-232.21 88.45,123.17 149.77,-162.04 11.38,-52.91 1.1,-326.56 11.98,-463.51 10.9,-7.82 26.6,-15.43 34.31,-21.04 7.24,-5.27 23.55,-14.49 31.52,-20.91l46.67 -39.89c39.19,-49.01 24.79,-41.93 -1.61,-93.51 330.31,20.69 197.13,98.66 504.9,2.09l12.93 -61.35c2.13,-8.37 5.1,-21.99 7.72,-31.26 2.63,-9.34 5.71,-21.59 8.79,-31.23 3.1,-9.66 6.37,-21.36 9.95,-30.97 3.59,-9.6 7.39,-21.1 11.51,-30.45 49.34,-111.63 132.69,-174.41 247.61,-202.8 95.94,-23.73 99.14,-19.26 203.89,-24.97 1.31,-196.81 -55.79,-432.53 10.87,-611.58 21.28,-57.22 35.06,-61.22 41.22,-71.78l115.37 -188.81c221.05,30.43 817.49,-7.57 1088.51,-7.57 362.83,0 725.67,0 1088.52,0 181.63,0 1986.9,47.41 2009.77,-42.12 -425.39,-2.85 -304,68.18 -463.36,-125.46l965.53 0c100.07,118.01 83.51,-161.83 83.51,167.36 181.35,1.22 363.77,-1.15 545.44,0.45 260.51,2.28 299.77,46.71 459.56,-125.92l921.04 0c98.47,106.33 83.52,-132.36 83.52,125.47 387.2,2.6 501.84,-102.89 756.75,-89.19l253.49 66.47c123.68,41.81 369.48,21.11 540.94,23.48 351.72,4.89 279.61,79.94 375.07,-168.12l543.84 0c102.29,270.66 67.9,167.58 502.39,167.58 0.37,223.19 -20.83,42.67 29.65,57.73 7.97,2.37 50.08,6.71 58.29,8.23l79.52 17.6c-23.31,377.52 28.85,73.33 -81.82,156.31 -62.11,46.57 -86.65,-42.41 -85.41,139.5l993.18 14.09c13.85,176.83 69.13,309.5 48.89,473.13l39.14 203.64c37.65,114.38 30.36,24.53 17.73,139.93 -26.67,243.62 28.36,134.01 -94.4,172.3 193.54,0 360.8,-18.54 502.6,-33.69l64.31 168.66c6.32,54.21 -9.25,103.31 -27.02,156.04l-22.75 51.53c-1.65,5.46 -7.48,16.63 -8.39,21.78 -19.04,108 -44.6,-132.21 -2.65,39.44l70.81 106.32c4.44,-8.6 20.08,21.85 28.36,34.1 -140.31,82.08 -93.86,-20.7 -102.87,125.89 105.42,13.94 349.17,131.15 458.88,254.63l151.42 199.88c-8.24,9.07 -21.74,18.41 -27.42,24.54 -110.79,118.99 -80.49,227.79 -80.49,400.69 12.89,5.31 42.89,31.55 50.64,36.49l415.96 231.6c6.92,-9.91 24.67,15.73 35.78,25.17 -21.48,539.07 -112.87,921.28 135.68,1158.82l86.82 94.09c48.91,61.33 60.6,109.28 153.34,129.88l25.14 334.82 -244.88 0c131.37,59.15 85.12,101.28 95.1,125.68 -64.14,146.4 30.79,68.55 -125.54,125.47l-0.07 42.09c144.53,76.71 161.64,116.99 59.61,256.3 -168.62,230.27 -184.7,-20.53 -185.2,120.74 24.86,149.22 6.26,220.05 -44.39,334.93 -173.72,64.69 -129.66,53.79 -290.33,0 72.09,4.43 117.35,257.82 125.4,335.14 -89.26,17.73 -201,10.43 -239.96,81.82 -93.18,170.71 160.06,-130.01 9.04,151.83 -60.94,113.77 -122.45,63.54 -232.13,-66.07 -143.98,146.05 -97.81,131.59 -339.97,196.83l64.01 74.19 -224.18 109.47c-60.05,2.45 -149.65,-10.05 -208.68,-7.41 -238.16,10.67 -43.92,-6.97 -154.88,60.07 -8.42,5.1 -16.8,13.86 -26.09,18.86 -292.75,158.17 -742.42,-85.78 -866.05,88.81l-68.02 -72.65c-10.24,-10.48 -18.17,-20.53 -28.84,-30.72 -8.9,-8.49 -15.73,-17.94 -24.45,-25.23 -106.77,-89.11 -366.94,-35.18 -506.26,-35.18 0.69,-137.57 21.37,-195.14 -25.46,-276.62 42.85,-78.85 -19.5,45.35 -60.09,70.1 -111.14,67.73 20.93,14.99 -82.23,32.27 -170.62,28.58 -386.96,43.58 -213.54,-125.75 78.59,-76.74 113.66,53.51 152.85,-76.82 -134.58,-36.24 -347.95,-33.23 -472.69,-93.09 -141.64,-67.95 -57.67,-52.73 -54.02,-141.48l-26.38 -175.53c-210.51,17.18 14.72,39.28 -181.77,30.52l9.43 -144.25c-40.96,-111.58 -44.38,-100.86 -134.62,-146.67l100.79 -209.25c-130.6,-120.64 -158.52,19.59 -102.33,-233.75 67.36,-303.65 83.2,15.21 91.59,-204.33 -71.43,47.88 -12.09,-25.36 -249.93,13.89 53.65,-502.16 -3.79,117.63 -90.79,-302.15 -14.35,-69.2 -0.94,-393.47 -0.94,-488.56 144.37,-125.89 92.31,-436.26 132.34,-611.77l176.85 25.89 36.25 -263.56c-90.22,48.38 -7.22,93.29 -133.8,53.48 -41.4,-92.99 26.4,-182.98 72.39,-254.8 74.63,-116.57 53.61,-218.2 51.33,-373.8 -62.89,13.46 -174.98,98.8 -214.81,156.2l-173.5 -102.73c-173.49,-102.02 -279.07,-18.1 -491.29,-11.59 -40.59,186.92 -13.2,26.51 -16.39,178.67 -3.59,172.38 -131.78,554.02 -234.6,685.93 -245.63,0.97 -1588.28,-99.65 -1813.33,-2.05 -214.22,92.93 -322.49,-54.41 -709.16,49.42 113.06,82.75 1158.57,186.07 1313.39,199.92 348.32,31.14 1044.15,150.47 1376.55,108.16 121.31,-231.2 62.71,-603.29 201.84,-807.62 123.89,-181.96 571.87,-205.3 455.71,319.46 -121.46,548.66 -197.98,1189.55 -50.91,1760.93 538.71,2092.75 3542.46,2540.26 4653.46,509.78 549.33,-1003.96 134.69,-2218.3 -268.84,-3099.79 -295.65,-645.83 -988.32,-2043.51 -1398.23,-2491.54 -769.12,-840.64 -1937.35,-652.43 -3216.23,-674.6 -1294.9,-22.46 -2555.77,-31.23 -3851.64,-34.65 -1301.34,-3.41 -2618.34,-56.02 -3918.3,-33.26 -139.55,466.02 -282.41,1043.23 -661.24,1430.01 -140.1,143.02 -357.63,143.53 -451.25,-23.34 -108.12,-192.72 68.44,-350.25 161.43,-473.86 278.32,-370.04 577.35,-1322.04 399.93,-1553.46 -135.87,-177.28 -792.14,-32.26 -1029.79,7.15 -1562,259 -2741.25,243.62 -3883.59,1842.11 -637,891.37 254.38,1053.5 222.78,1387.53 -13.02,137.55 -34.54,116.85 -101.26,168.48 -257.27,203.2 -433.59,-115.49 -603.22,-193.09 -40.27,688.96 861,849.84 1369.42,900.92 338.75,34.04 715.63,-60.97 975.17,-181.34 127.68,-59.24 282.93,-175.4 444.33,-164.03 230.11,16.21 173.72,119.53 250.78,293.7l3295.76 341.85z"/>
   <path class="fil7" d="M12622.77 13111.43c-230.59,320.62 -121.08,1187.92 -11.24,1497.99 292.7,826.31 917.35,1383.79 1770.57,1621.42 345.74,96.29 1164.42,90.72 1488.22,-79.41 -41.95,-133.87 -423.86,-216.45 -768.89,-471.3 -453.34,-334.87 -863.59,-867.16 -1025.01,-1405.92 -51.81,-172.93 -95.68,-319.89 -123.3,-506.44 -21.9,-147.9 -15.85,-387.66 -73.39,-506.03 -157.87,-97.58 -1000.06,-156.63 -1256.96,-150.31z"/>
  </g>
 </g>
</svg>
