<?xml version="1.0" encoding="UTF-8"?>
<!DOCTYPE svg PUBLIC "-//W3C//DTD SVG 1.1//EN" "http://www.w3.org/Graphics/SVG/1.1/DTD/svg11.dtd">
<!-- Creator: CorelDRAW 2017 -->
<svg xmlns="http://www.w3.org/2000/svg" xml:space="preserve" width="200mm" height="200mm" version="1.1" style="shape-rendering:geometricPrecision; text-rendering:geometricPrecision; image-rendering:optimizeQuality; fill-rule:evenodd; clip-rule:evenodd"
viewBox="0 0 20000 20000"
 xmlns:xlink="http://www.w3.org/1999/xlink">
 <defs>
  <style type="text/css">
   <![CDATA[
    .fil2 {fill:#0303FB}
    .fil4 {fill:#0F0908}
    .fil15 {fill:#1D1F1F}
    .fil11 {fill:#2E2E2E}
    .fil7 {fill:#410101}
    .fil14 {fill:#4A4A4A}
    .fil18 {fill:#5C5C5C}
    .fil12 {fill:#6D0101}
    .fil10 {fill:#7C7C7C}
    .fil9 {fill:#880000}
    .fil13 {fill:#999796}
    .fil16 {fill:#B2B2B2}
    .fil17 {fill:#CBCBCC}
    .fil5 {fill:#CD0000}
    .fil6 {fill:#E1E1E1}
    .fil8 {fill:#F3F3F4}
    .fil1 {fill:#FBF503}
    .fil3 {fill:black}
    .fil0 {fill:white}
   ]]>
  </style>
 </defs>
 <g id="Capa_x0020_1">
  <metadata id="CorelCorpID_0Corel-Layer"/>
  <path class="fil0" d="M10852.67 13420.99c112.65,91 72.15,102.86 8.92,182.06 -44.06,-47.69 -36.44,24.52 -43.93,-66.91 -14.55,-176.81 1.93,-67.53 35.01,-115.15zm-1687.17 -623.18c-21.97,-140.61 -1.81,-215.13 52.3,-307.88 162.89,96.74 380.08,338.34 -52.3,307.88zm2422.63 -305.38c107.22,59.04 185.3,141.43 235.6,253.08 -90.87,122.45 -56.67,79.33 -192.41,126.7l-43.19 -379.78zm-2961.68 100.98c47.18,-55.73 78.45,-109.09 120.39,-172.75 59.1,76.2 83.57,200.9 77.39,311.49 -120.08,-16.72 -133,-70.52 -197.78,-138.74zm409.85 -274.8c70.59,252.08 -55.29,571.32 -85.69,736.46 -30.27,164.39 27.59,108.35 -72.21,230.74 -12.98,-234.11 13.61,-365.11 37.26,-574.63 20.16,-179.12 -90.43,-401.74 120.64,-392.57zm856.73 5.87c26.09,-109.16 -19.72,-42.5 69.71,-64.35 19.97,218.07 85.07,153.72 -70.4,226.5 0,-22.53 -2.74,-147.61 0.69,-162.15zm3321.67 -38.94c-10.92,-188.3 14.42,-199.66 194.41,-221.44 53.11,173.94 3.31,197.97 -194.41,221.44zm-130.07 -303.26c-52.55,27.46 -63.53,37.57 -101.17,69.34 -51.98,-64.85 -59.41,-54.86 -48.18,-163.77l149.35 94.43zm-1074.6 -187.3c13.98,-7.8 -57.61,-73.02 79.58,0 -5.62,4.68 44.18,90.06 -79.58,0zm-1695.29 -76.02c31.52,-160.15 43.38,-383.83 135.56,-515.7 284.54,102.6 127.76,91.8 273.11,267.24 124.52,150.29 256.14,107.72 329.16,122.95 -44.43,104.79 -1.62,25.9 -78.14,94.31 -140.23,125.26 -224.55,79.07 -301.38,88.18 -164.58,19.54 -305.19,29.28 -358.31,-56.98zm-704.31 -112.46c53.48,-195.66 29.21,-191.17 165.51,-312.93 103.92,53.23 69.66,-9.49 126.89,119.08l47.62 468.65c-60.48,0.62 -290.65,-63.16 -341.77,-99.05 0,-0.06 -61.79,-67.28 -70.65,-77.39 -100.23,-115.03 -78.2,-95.49 -244.47,-98.36l7.24 -70.53c120.02,-7.74 137.75,-29.27 239.23,-70.21 12.04,191.1 -32.52,87.44 70.4,140.74zm-2428.38 15.72c160.34,-63.59 176.69,-84.94 312.62,-43.18 -81.01,98.67 -31.76,124.32 -31.76,336.08 -160.78,-2.74 -280.73,-94.86 -280.86,-292.9zm4083.35 19.48c-111.97,-77.52 -49.93,10.3 -134.87,-101.17 14.54,-37.82 253.76,-4.56 371.78,-4.56l0 28.09c-173.94,0 -95.86,21.72 -236.91,77.64zm1373.05 -422.53c174.26,27.02 294.34,244.15 316.93,352 -238.97,-73.58 -71.77,-64.16 -316.93,-35.2l0 -316.8zm-1506.86 119.58c38.88,-116.08 89.43,-116.65 147.48,-253.39 38.07,65.03 51.98,84.57 91.37,139.18l-38.82 152.97 -200.03 -38.76zm2346.86 -266.18c-21.22,120.76 -30.52,154.15 -154.4,252.01l-161.65 -205.95c-19.6,-46.63 -32.14,-51.18 -32.27,-123.45 -0.31,-220.13 10.11,-70.34 41.82,-124.27 91.87,41.63 2.81,-13.1 94.05,65.1 178.75,153.41 77.77,35.51 212.45,136.56zm-88.5 811.85c-84.5,-152.29 -194.41,-182.93 -264.5,-270.18l-219.19 -351.76c-111.22,-159.64 -167.64,-124.44 -240.03,-303.94 6.36,-7.86 15.1,-18.16 19.66,-23.03 75.26,-80.26 100.98,-113.28 219.87,-127.94 70.84,103.22 39.2,95.55 76.52,192.41l308.06 481.57c102.05,167.82 325.42,437.19 326.73,721.73 -100.17,-99.67 -146.54,-173.69 -227.12,-318.86zm-1626.26 -777.22c-104.85,-57.73 -94.8,-61.72 -130.38,-203.33 97.55,44.68 73.52,28.77 119.52,106.72 36.01,60.98 27.59,22.66 10.86,96.61zm-1937.88 -34.63c202.03,-224.62 341.33,-175.94 547.6,-129.07 -4.81,126.32 10.98,-8.68 -62.79,77.45 -138.86,162.08 -18.72,291.59 -226.67,335.84l-15.8 -172.82c-174.19,-21.16 -150.97,-32.45 -242.34,-111.4zm1533.45 -253.65c184.93,42.19 355.5,463.35 363.86,641.28 -400.3,20.91 -261.38,-16.85 -258.07,-231.29 0.63,-40.63 -18.22,-156.41 -40.13,-226.18 -29.46,-93.68 -50.05,-64.22 -65.66,-183.81zm3436.26 -295.08c325.11,55.86 163.96,167.08 162.21,170.32 -0.25,0.13 5.06,81.33 -94.86,-14.73 -54.55,-52.48 -49.68,-65.28 -67.35,-155.59zm-3563.82 99.05c-40.51,-88.81 46.24,-184.18 116.02,-235.54 76.7,-56.42 196.66,-83.63 303.38,-83.63 184.99,0 175.07,24.71 177.62,194.53 -202.02,-59.85 9.3,-60.04 -211.32,-82.57 -9.8,197.04 33.76,92.06 -65.22,177.75 37.57,148.85 44.19,-69.09 50.74,77.27 3.93,89.06 -5.8,55.86 -65.84,106.97 -100.92,-83.57 -25.84,-2.56 -126.33,-221.62l-154.65 60.47c-1.56,1 -11.55,8.24 -12.61,4.43 -0.94,-3.43 -7.8,2.31 -11.79,1.94zm2709.53 -4.31c39.88,-238.22 106.6,-26.58 0,-339.83 177.5,-13.67 282.29,45.87 360.81,193.23l-145.55 176.44 -34.01 -130.88c-76.71,19.78 -30.52,7.3 -90.19,46 -53.11,34.51 -21.47,31.01 -91.06,55.04zm383.27 -486.56c408.55,84.63 219.51,140.18 234.55,275.36 119.45,-109.34 197.22,-42.5 248.08,99.17 -188.11,80.64 -286.97,-4.3 -505.84,-184.8 -134.19,-110.65 -361.87,-254.89 -571.19,-264.56 39.94,-202.84 158.33,-194.66 278.29,-313.62l134.5 242.78c54.92,98.18 60.78,120.65 181.61,145.67zm-1190.56 101.17c-21.78,-34.76 -50.87,68.59 -31.14,-102.17 1.81,-15.79 22.9,-63.59 33.32,-81.01 36.7,-61.47 69.9,-83.19 136.25,-114.33 -19.91,108.53 -23.22,71.46 -53.61,159.77 -64.97,188.79 36.45,79.32 -84.82,137.74zm1398.58 -145.29c-63.35,-49.99 -263.75,-157.03 -270.3,-312.25 -9.55,-224.24 222.49,-96.3 375.9,-169.26 84.07,144.42 -12.17,17.16 5.87,197.78 18.41,184.99 -90.31,262.82 -90.31,262.76 -2.93,-6.24 -13.98,14.1 -21.16,20.97zm-7668.52 1589.37c-21.72,134.44 -68.46,197.78 -130.19,294.09l-80.63 144.54c237.85,-103.1 144.92,-171.32 310.87,-361.61 84.44,47.87 42.81,10.23 111.53,81.82l-422.59 515.71c128.44,-64.22 167.95,-145.55 283.54,-214.57l183.92 122.26c17.48,111.53 -6.67,121.77 -33.32,212.57 79.51,-57.98 42.19,-44.31 153.59,-90.87 6.12,10.36 13.67,14.48 16.23,32.15 2.68,18.59 24.28,51.05 28.15,60.16 61.66,145.23 -22.41,-29.52 28.83,75.21 6.18,-82.45 123.01,-352.51 171.94,-430.02 317.62,-502.73 -114.08,-199.72 116.15,-437.82 33.89,-16.72 23.59,-21.9 92,-24.46 117.83,-4.37 171.13,36.07 261.81,100.1l-296.39 418.6c-101.23,135 -198.03,333.96 -228.8,485.75 158.71,-116.77 135.31,6.74 100.42,142.92 -40.44,157.72 -47.18,292.28 -88.5,422.34 94.99,-51.74 144.86,-438.63 216.38,-588.66 114.78,7.11 88.69,6.86 167.08,55.48 29.64,150.41 -285.6,711.49 -360.31,848.61 240.23,-111.72 250.65,-556.46 497.36,-737.95 498.05,139.42 187.74,251.45 304.2,455.41 82.19,-96.3 77.89,-149.97 190.1,-203.33 98.18,145.79 -39.63,622.49 -35.2,828.64 79.77,-160.59 132.07,-312 132.19,-530.5 26.03,-104.61 52.24,-35.33 148.23,-101.67 6.55,-4.56 17.04,-12.55 23.09,-16.92l134.5 137.43c4.05,6.62 10.86,15.54 14.66,22.29l64.04 174.25c80.26,-198.22 70.77,-339.08 164.83,-546.79 34.7,69.9 -6.56,166.83 -21.22,281.04 205.27,-62.04 402.49,-44.06 605.27,0.69l127.88 26.71c9.36,2.18 23.53,6.18 31.02,7.99 7.55,1.81 21.4,3.55 30.83,8.42 44.68,177.75 19.28,152.41 31.14,274.61 11.3,116.9 60.54,153.1 107.6,305.82 7.11,-8.17 14.6,-33.51 16.41,-28.02l3.5 -323.86c-0.38,-2.87 -16.79,-180.18 -16.54,-185.92 10.36,-208.95 -69.47,-87.44 83.82,-163.77 1.75,133.44 20.78,207.71 44.68,342.89 54.24,307.13 30.52,239.72 131.44,287.1 -48.74,-400.87 -126.94,-189.92 -89.25,-708.38 11.18,-153.28 -20.97,-72.02 -6.55,-234.73 154.28,-85.75 116.84,86.19 107.72,-365.67 -7.05,-350.56 -66.21,-437 93.68,-436.94 0.25,156.34 -30.45,246.46 -0.43,344.76 77.32,252.96 58.41,10.61 33.39,282.98l-32.83 782.45c165.45,-53.17 62.85,-86.94 230.98,-153.72 214.64,161.02 159.65,602.21 312.44,834.51 78.14,-103.42 -35.77,-273.8 -9.55,-368.23 27.27,-98.3 42.19,43.44 65.78,-211.39 6.93,-74.58 -1.62,-159.28 5.87,-243.91 62.91,-39.94 128.38,-45.81 239.41,-50.05 -8.74,-175.63 -56.98,-146.98 -1.94,-277.86 246.59,40.26 352.5,655.89 353.94,907.78 76.64,-142.55 8.24,-155.22 147.79,-32.27 -25.9,-422.27 -293.27,-810.1 -418.47,-1186.88 -64.53,-194.22 -127.38,-288.84 73.46,-316.86 58.91,90.93 104.97,324.16 117.96,403.61 42.06,257.27 51.3,195.42 123.7,401l155.65 587.36c17.23,105.41 -136.37,75.76 81.63,135.12 -40.87,-111.41 -82.82,-410.55 -111.65,-550.6 -72.9,-354.06 -41.32,-321.73 287.22,-348.26 113.65,390.83 309.25,753.5 451.42,1139.89 56.3,152.91 111.34,275.17 160.03,406.49 87.75,-154.03 54.73,-71.28 13.66,-162.34 -215.69,-477.94 -293.52,-859.53 -449.48,-1266.89 -47.69,-124.45 -175.69,-167.95 -31.71,-293.08 186.05,72.7 204.27,554.65 338.33,767.03 21.47,-259.13 -149.53,-532.24 -102.6,-743.44 121.51,-46.13 241.28,-113.03 345.2,24.28l423.4 647.52c58.79,89.31 124.51,263.69 225.55,295.08 -176.06,-290.65 -311.93,-642.03 -484.75,-950.16 -110.34,-196.78 -157.46,-325.16 -246.52,-516.39 -72.09,-154.72 -231.36,-365.98 -249.77,-488.87 134.31,-88.38 242.59,-122.89 396.43,-112.47 -13.73,273.87 83.89,552.6 177.19,774.22 74.71,177.62 73.15,603.71 257.7,646.52 -33.2,-268.62 -130.01,-260.94 -88.31,-581.18 19.84,-152.22 -45.75,-91.18 74.76,-184.73 137,68.52 117.4,159.71 188.05,277.35 65.72,-85.69 17.98,-41.75 -18.78,-211.38 68.02,-46.69 116.27,-85.88 170.88,-134.75 176.44,168.32 141.67,195.41 359.61,188.61 127.95,-4.06 9.8,38.44 128.14,-20.47 -189.61,-249.15 -111.78,-204.09 -173.51,-174.94 -6.99,3.3 -31.52,22.46 -38.82,27.14 -188.67,122.39 144.73,-11.54 -48.81,32.4 -85.75,-106.17 2.06,-111.28 -179.87,-153.72 252.33,-217.26 -197.59,-286.54 29.28,-459.54 101.54,95.74 109.96,268 190.1,422.96 4.12,-7.55 6.8,-29.52 8.05,-24.46 1.38,5.12 6.56,-19.85 8.49,-24.97 2,-5.24 6.55,-19.03 9.18,-25.65l63.72 -133.56c241.22,150.54 84.19,272.12 444.49,402.81 -70.9,-197.47 -298.76,-294.77 -372.03,-492.18l252.7 -345.83c103.29,-134.18 190.54,-249.95 307.82,-311.68 172.38,58.54 163.08,120.58 298.64,165.33 -107.6,-144.86 -322.11,-166.76 -332.22,-379.96 310.43,-128.13 425.08,268.06 649.14,385.14 -45.25,-82.7 -97.36,-217.38 -159.02,-274.55 -91.37,-84.75 -142.36,-67.65 -213.89,-188.98l132.81 -193.98c150.04,21.91 267.56,81.14 372.17,99.86 -47.19,-129.25 -196.29,-159.21 -257.83,-248.08 55.74,-215.82 123.83,-143.43 200.22,-345.02l-455.23 -195.1c9.55,-129.44 -8.93,-29.45 55.05,-159.52 35.2,-71.71 59.35,-114.21 87.25,-175.88 274.42,62.04 438.31,314 652.01,455.92 220.75,146.54 181.06,45.13 382.83,104.35 130.51,38.32 305.76,113.41 432.95,171.2 -85.19,-115.96 -189.04,-156.9 -327.16,-197.6 -28.83,-8.48 -33.76,-7.24 -58.29,-16.35 -127.13,-47.18 -432.08,-215.57 -503.41,-326.35 175.12,-163.77 447.93,162.08 790.38,333.72 -77.45,-175.63 -167.45,-147.29 -336.15,-259.95l-355.75 -301.88c6.49,-242.22 139.43,-612.45 238.17,-772.28 142.67,-0.63 128.63,12.6 239.41,32.2 99.67,17.6 204.64,26.09 255.26,-20.35 -739.83,-189.1 -513.4,101.73 -782.83,126.14 -218.75,19.84 -27.52,59.1 -306.19,117.58 -185.18,38.82 -300.26,68.47 -464.41,100.67 -314.55,61.66 -629.04,138.37 -957.08,164.14 -221.93,17.42 -268.74,74.65 -415.97,91.44 -133.44,15.22 -155.16,-77.96 -304.44,198.9 118.08,29.65 80.51,-39.07 188.6,-0.43 -117.46,190.54 -338.33,7.86 -347.13,392.75 -1.75,75.4 33.58,-5.43 -2.81,68.84 -78.82,-18.66 92.74,-90.12 -119.83,-59.98 -5.3,9.99 -9.74,14.48 -11.17,32.02 -30.77,376.09 -224.56,431.14 -430.89,709.75l36.01 210.82c-97.24,-81.51 -88.94,-76.2 -229.17,-28.21 111.34,124.14 139.24,61.98 92.49,208.65 -163.96,51.24 -37.14,-3.19 -181.37,-22.91 -216.13,-29.58 -154.97,-717.98 -195.35,-882.13 153.35,76.02 18.73,9.87 107.29,83.45l218.94 113.59c116.71,28.21 106.85,-28.27 82.19,-138.24 -9.54,-42.88 -36.76,-123.45 -48.74,-189.55l-638.91 -115.52c161.52,-83.76 227.56,-2.81 353.32,-25.9 9.23,-35.27 33.88,42.87 -4.5,-71.03 -40.5,-120.01 -0.25,6.62 -50.12,-92.68 -72.14,-143.55 -123.32,-559.96 -127,-749.81 -205.71,-142.8 -446,-185.12 -596.78,99.86 54.73,129.94 193.66,225.12 277.35,334.34 106.79,139.36 228.49,206.77 305.45,359.67 -87.25,50.81 -91.12,56.11 -208.15,100.67 -176.56,67.16 -151.91,16.42 -252.95,37.45 -187.17,38.95 13.54,45.19 -173.01,99.42 -214.25,62.29 -207.14,-99.79 -348.06,153.54 -46.31,83.25 -23.85,57.85 -81.83,130.06 102.61,-23.22 182.37,-86.94 237.04,-164.77 -3.43,178.19 -112.96,94 -82.51,295.21 36.95,243.78 73.65,74.21 90.25,242.1 0.38,3.68 -10.11,114.08 -10.11,131.68l-205.33 74.84 -308.38 -232.55c30.21,-31.7 22.84,-23.28 63.29,-56.04 98.23,-79.52 135.74,-92.25 167.51,-177.44 -138.8,-113.65 -161.9,-44.19 -238.04,-7.93 -156.28,74.58 -49.62,12.3 -169.95,37.64 -320.1,67.4 -10.98,81.88 -352.62,9.48l-6.74 67.78c-37.07,226.43 -348.7,261.94 -508.59,405.3 -105.29,94.43 -127.64,89.88 -306.94,90.25 45.31,109.1 61.91,120.46 198.65,102.86 163.4,-20.98 60.35,-25.66 64.35,-29.53 -92.75,204.9 -365.05,-39 -504.1,-101.98 21.34,133.94 28.77,55.86 99.92,204.65 -151.66,-52.61 -210.01,-104.29 -365.29,-139.93 -207.21,-47.55 -46.81,-4.86 -143.3,6.87l-38.01 4.12c-4.56,-0.38 -14.85,-2.68 -19.66,-3.56 -787.95,-144.23 -582.3,-156.09 -751.5,26.9l-224.18 -62.47c40.25,-284.97 219.06,-252.33 309.69,-417.85 -90.75,-96.61 -167.52,-61.35 -250.03,62.79l-292.83 388.82c-84.63,146.29 -192.35,362.11 -337.59,381.21z"/>
  <path class="fil0" d="M6062.08 11047.04c38.63,75.14 19.34,106.6 -12.05,165.64 -92.87,-113.21 -99.48,-99.55 12.05,-165.64zm-284.72 -1547.56c4.3,-7.68 11.85,-15.48 16.47,-22.28l78.14 -88.81c114.59,41.81 105.54,66.4 147.36,112.9 -51.99,130.13 -109.97,159.96 -281.61,168.7l39.64 -170.51zm-589.73 77.2c-41.88,-80.82 -11.55,-69.09 56.17,-68.77l-56.17 68.77zm1676.37 2100.59c203.15,-279.79 4.75,11.92 87.82,-284.53 56.79,-202.78 107.72,-27.34 194.66,-289.72 89.62,-270.55 112.22,-194.85 159.77,-316.3 68.28,-174.44 58.67,-263.38 -103.54,-194.6 -82.82,202.96 16.42,255.45 -190.1,411.04 -6.49,-6.92 -17.17,-26.46 -19.79,-20.4 -2.62,6.05 -15.66,-15.92 -19.03,-20.73 -7.49,-10.61 -44.19,-68.77 -45.13,-70.9 -100.92,-229.36 79.52,-86.5 -226.61,-383.02 -163.96,-158.83 -214.14,-289.65 -348.89,-445.3 -52.23,74.08 -62.47,105.54 -126.69,170.51 -208.83,-61.04 -113.09,-48.5 -151.66,-85.51 -39.01,-37.38 -24.34,-30.14 -50.37,-63.78 126.14,-128.2 146.11,-51.49 257.58,-152.04 -92.69,-197.84 -96.99,-67.28 -245.34,-15.48l-30.52 -121.76c130.37,-60.73 132.62,-37.82 148.04,-135.75 41.63,-264.5 -169.58,-363.92 -374.22,-395.31 -145.98,-22.41 -218.76,-23.53 -357.87,-59.29l-635.04 -168.33c38.01,-173.13 213.76,-480.25 -35.39,-535.11 124.26,270.86 -14.66,338.2 -105.41,480.5 13.48,234.36 134.06,310.75 99.61,532.31 -245.47,99.49 -952.09,373.16 -1050.26,543.42 122.2,-40.94 189.79,-92.93 269.18,-134.37 107.41,-56.05 178.18,-60.04 302.94,-114.46 178.56,-77.89 410.98,-228.81 583.3,-187.36 2.81,198.53 -15.04,155.09 -210.82,216.38 -281.17,88.06 -689.72,283.66 -1044.46,290.34l772.96 -92.94c521.45,-74.02 794.94,-481.5 1182.46,-466.4 43.12,69.59 70.71,103.11 78.51,211.52 -126.32,90.74 -428.71,111.09 -621.87,190.1 29.02,123.83 92.49,156.34 136.56,310.69l438.5 -227.93c4.31,-1.75 61.23,-30.64 69.78,-35.95 -9.18,-46.87 -65.54,-19.91 -46.81,-100.3 303.01,-85.37 296.02,53.18 296.27,53.49l-641.91 411.42c101.42,177.12 212.95,170.69 17.1,358.24 -127.57,122.27 -80.88,-111.9 -95.17,182.93 282.47,-158.46 138.05,-196.66 337.83,-186.11 -124.32,209.45 -278.11,209.64 -378.09,410.36 128.88,-39.95 304.32,-166.52 375.03,-239.79 148.17,-153.6 33.02,-74.71 295.52,-200.97l100.8 -50.24c50.55,66.6 81.5,86.32 122.32,188.61l-161.39 121.14c-221.5,109.28 -1089.77,644.34 -1140.14,816.91 6.43,-4 14.48,-21.03 16.66,-15.42l482.07 -346.57c218.57,-119.7 387.02,-215.38 595.85,-295.96 155.84,110.54 270.99,274.62 432.94,428.52 -64.03,169.51 -122.13,167.02 -179.05,341.77 -120.27,369.35 -68.72,72.27 -200.6,280.35 82.58,43.13 -37.57,-54.67 55.43,23.72l65.4 78.08c3.87,5.18 11.11,17.35 16.61,26.08 29.58,-189.35 211.95,-469.39 346.88,-587.23 364.61,169.08 -181.37,323.48 -341.39,763.8 168.45,-110.04 241.66,-316.99 626.73,-586.17 180.56,-126.2 63.1,-139.99 212.45,-216.2z"/>
  <path class="fil1" d="M4892.61 18179.32c0,-232.55 60.91,-292.34 212.45,-369.23 32.7,87.63 8.86,52.74 -24.09,176.19 181.99,21.03 53.8,2.49 234.16,-77.52 -130.44,535.93 -337.14,307.69 -422.52,270.56zm-990.16 -329.97c223.24,-24.91 255.14,58.66 422.52,-33.27 124.58,-68.46 209.4,-120.27 250.9,-254.26 -195.97,-204.71 -520.51,-197.66 -809.23,-119.08 -249.9,68.02 -423.03,328.09 -423.03,663.68 0,1023.93 504.85,760.67 739.33,755.49 -35.95,122.21 -120.89,427.02 -132.31,521.08l370.66 -12.98 176.56 -1000.71c93.81,114.59 61.36,188.86 120.15,305.63 222.24,441.62 838,-195.85 838,-568.51l0 -190.11c0,-233.17 -304.13,-293.77 -499.92,-193.22 -239.29,122.95 -268.12,227.99 -385.27,382.96l-447.8 -91.56c-19.6,24.28 -25.4,28.46 -51.8,75.39 -91,162.02 -20.35,197.97 -138.31,206.21 -115.83,-26.9 -161.02,-101.17 -149.97,-224.31 10.17,-114.21 73.21,-152.78 119.52,-222.43z"/>
  <path class="fil0" d="M7773.03 10404.82c-45.12,-124.2 88.19,30.9 -14.42,-91.3 -12.48,-14.92 -42.81,23.34 -84.57,-100.3 106.23,0.19 125.2,11.73 211.39,56.17 -65.4,217.94 -8.55,92.93 -112.4,135.43zm-365.79 -523.51c77.76,116.65 74.51,62.98 90.87,200.35 -162.02,-57.73 -128.57,-96.74 -176.19,-277.24 -383.9,-66.9 -364.11,21.47 -492.74,-404.74 4.74,-2.8 14.73,-8.23 16.23,-2.87l114.65 -11.67c7.73,-216.32 -134.25,-165.08 -183.12,-219.87 -85.32,-95.56 -38.57,-221.38 -229.49,-305.01 15.85,237.41 111.28,427.83 180.5,641.9 133.68,413.36 715.73,964.95 1042.4,960.21l61.22 -9.68c75.46,-10.05 -7.18,-38.57 283.6,17.23 96.86,-109.53 27.34,-77.7 152.1,-130.88 116.46,70.34 84.5,71.59 135.62,211.08 100.04,-21.91 104.85,-22.6 196.47,-59.54l78.26 -35.14c3.12,-1.37 64.72,-28.09 67.35,-29.21 -75.96,-68.9 -15.48,-32.58 -114.4,-39.19 -108.41,-7.31 -119.27,14.29 -206.65,-36.83 218.75,-193.72 430.7,42.19 527.69,20.04l128.69 -90.44 -98.54 -56.67c-246.9,-68.03 -86.94,61.04 -228.56,-165.95 -190.35,34.45 129.95,-20.41 -105.72,63.41 -93.24,-54.17 -462.35,-23.59 -609.08,3.81 -127.13,23.71 -49.93,49.43 -188.17,-32.21 16.98,-89.87 99.05,-208.26 142.99,-280.66 83.88,-138.24 97.73,-127.01 215.69,-203.71 306.38,-199.1 364.99,-94.24 616.5,-219.57 36.7,-339.2 -113.46,-344.76 -138.05,-370.41 -99.86,-104.1 -102.54,-190.04 -268,-263.32 -190.29,106.29 -139.49,81.83 -267.37,261.88 -183.11,257.89 -318.92,232.18 -427.58,670.99 -85.32,344.64 -106.54,221.63 -317.17,193.91z"/>
  <path class="fil1" d="M8077.16 17591.96l27.15 61.85c29.46,83.7 97.61,205.02 27.46,274.99 -81.38,34.7 103.73,80.82 -110.97,12.48 -5.36,-1.75 -83.13,-53.24 -95.74,-61.04 7.74,-163.64 18.42,-213.51 152.1,-288.28zm-442.43 337.27l-53.37 -89.81c-133.99,-306.56 18.66,-61.85 -213.26,-388.26l-695.89 86.88 -21.03 977.18c528,-50.93 290.9,-177.81 359.24,-596.72 21.03,-128.76 37.14,-156.09 161.4,-185.74 130.19,191.42 117.89,465.47 87.19,696.58l230.3 4.55c44.06,-75.58 41.13,-75.58 66.59,-153.65l75.58 -183.49c136.43,305.63 231.55,390.13 779.27,229.17l36.64 -1007.57 -522.33 178.62c-158.52,85.38 -221.68,276.48 -290.33,432.26z"/>
  <path class="fil1" d="M10378.78 17744.31c-55.99,-178.87 -18.6,-252.89 143.36,-328.04l9.8 340.77 -153.16 -12.73zm640.09 -610.26c-388.32,0 -194.66,48.05 -472.27,135.93 -639.59,202.46 -493.05,803.74 -249.46,860.66l492.99 -49.81 29.09 -630.17c459.78,32.21 -24.78,469.4 390.82,606.39 128.13,42.26 278.67,-8.98 351.13,-79.45 113.15,-110.09 77.57,-231.04 56.23,-385.64 -265.5,84.32 -387.2,568.57 -387.2,-55.86 0,-218.81 6.24,-51.36 85.31,-110.4 99.61,-74.34 125.89,127.13 125.89,-291.47 -263.13,-3.99 -219.88,-10.92 -165.7,-519.14 -305.7,5.31 -256.83,234.24 -256.83,518.96z"/>
  <path class="fil0" d="M7320.48 8297.81c29.96,-107.29 63.66,-290.41 72.03,-423.09 -282.73,-50.68 49.36,41.63 -205.71,58.1 8.36,-26.52 62.41,-110.65 85.63,-136.12 108.03,-118.58 50.92,-22.15 190.48,-105.85l-45.5 -115.83c-117.4,-39.63 -146.67,20.78 -271.31,-76.39 84.95,-52.06 200.53,-55.74 310.44,8.86 207.64,122.14 153.35,401.49 78.01,591.41 -42.31,106.6 -97.86,165.33 -214.07,198.91zm0 0c-121.45,187.23 -182.93,150.1 -296.45,265.43 99.11,71.09 39.5,36.83 171.57,15.29 -0.81,1.94 -26.15,65.29 -25.97,74.02 1.81,111.47 -29.39,28.09 33.08,101.98 321.86,-247.15 305.2,-358.18 466.72,-756.05 37.88,-93.18 58.54,-127.88 63.78,-227.62l-11.67 -126.07c-1.37,-5.99 -4.24,-16.72 -5.93,-22.65 -54.73,-194.6 -105.66,-181.31 -274.55,-376.91 -137.37,89.31 -228.99,94.37 -333.4,237.67l-60.23 94.3c-117.71,137.24 -375.28,127.82 -659.69,246.65 -227.18,94.87 -291.65,-13.48 -419.78,169.08 184.86,202.33 686.84,76.14 1039.84,163.51 161.46,39.95 154.78,92.19 312.68,141.37z"/>
  <path class="fil1" d="M5892.63 18583.93c70.34,-295.45 -40.07,-682.66 207.46,-774.4 148.66,233.92 132.18,518.95 117.58,793.19l277.92 -63.29 51.86 -356.99c20.29,-280.67 -76.14,-597.84 -295.27,-649.58 -103.35,7.55 -107.66,13.04 -203.96,38.82 -306.81,82.19 -136.24,-43.25 -475.39,82.32l-18.97 1029.42c142.11,-33.14 195.72,-38.82 338.77,-99.49z"/>
  <path class="fil1" d="M12738.56 17901.15c16.1,-257.2 -34.95,-374.66 73.96,-555.71 102.54,55.85 37.82,-5.31 92.24,84.44 0.44,0.75 40.45,140.42 41.69,149.85 14.3,106.22 7.74,210.83 14.11,319.8 124.57,10.17 241.41,77.14 241.41,-287.41 0,-384.14 -181,-494.8 -472.33,-462.97l-68.97 -607.2c-281.6,-8.93 -198.09,96.61 -198.22,766.04 -0.12,738.27 -44.56,629.73 276.11,593.16z"/>
  <path class="fil1" d="M16793.07 17307.99c40.07,-98.92 36.39,-62.16 89.62,-136.37 36.2,135.74 90.69,159.77 15.29,278.73 -157.09,-63.47 -46.87,-34.89 -104.91,-142.36zm140.8 -304.2c-81.82,134 -376.09,88.5 -308.81,525.51 38.38,249.02 184.8,312.5 485,257.39l2.68 -716.37c14.05,8.99 18.85,14.3 21.41,31.21 30.21,198.84 137.81,169.57 187.05,173.44 20.47,-258.76 44.19,-355.74 23.53,-598.96 -102.86,14.91 -80.95,43.12 -167.45,14.6 -223.12,-73.58 119.08,-120.95 -152.79,-85.69 -133.31,17.35 -90.62,266.19 -90.62,398.87z"/>
  <path class="fil1" d="M9293.69 17840.3c0,308 121.45,350.19 342.33,350.19 219.5,0 290.09,-184.86 392.69,-294.83l-207.64 -92.5c-62.66,110.41 -65.85,184.3 -237.98,166.02 -240.47,-487.38 317.3,-400.81 436.57,-429.52 -54.98,-526 -725.97,-295.46 -725.97,300.64z"/>
  <path class="fil1" d="M14082.03 17384.01c61.42,-102.23 44.75,-138.93 157.22,-130.76l-2.75 299.14c-131.25,-21.09 -113.21,-25.9 -154.47,-168.38zm-176.12 76.08c0,290.9 -19.97,218.87 110.03,410.6 542.23,12.73 475.39,143.05 449.49,-870.33 -195.47,84.82 -559.52,218.13 -559.52,459.73z"/>
  <path class="fil0" d="M9726.01 8158.94c20.66,212.82 85.57,82.45 -16.29,360.61 -51.73,141.3 -104.78,248.72 -128.56,364.68 195.78,22.9 215.94,-101.92 337.52,-189.8 128.94,-93.24 274.98,-77.83 359.93,-251.52 74.7,-152.84 30.02,-319.48 -99.61,-378.4 -240.79,-109.47 -332.16,8.86 -452.99,94.43z"/>
  <path class="fil0" d="M7856.41 8905.38c291.03,185.87 471.77,-499.85 831.95,-156.03 92.24,88.07 207.52,267.44 244.03,438.07 64.66,302.64 -123.45,168.89 77.33,517.77 111.78,-93.99 42.19,29.71 84.38,-176.56 102.29,-499.86 -496.18,-1125.6 -707.13,-1112.05 -112.71,7.24 10.68,-12.8 -112.09,31.7 -209.83,76.02 -352.06,248.59 -418.47,457.1z"/>
  <path class="fil1" d="M12350.05 17673.6c-265.06,-37.58 -98.55,47.87 -318.74,124.26 -116.52,-105.17 -147.85,-166.2 -38.01,-337.96 101.98,-93.74 163.02,16.85 295.84,-48.12l62.78 -47c4.31,-3.37 13.61,-12.42 20.22,-18.78 -137.3,-495.55 -609.2,-131.82 -649.83,267.99 -57.17,562.71 626.87,404.68 627.74,59.61z"/>
  <path class="fil1" d="M15103.15 17460.09c0,368.04 295.64,415.47 460.79,259.32 172.5,-163.15 50.3,-192.17 50.24,-192.36 -120.71,-55.54 -120.89,14.55 -237.04,95.18 -98.24,-97.61 -132.13,-137.18 -23.91,-338.21l285.48 -16.66c-6.68,-117.77 -56.8,-168.89 -98.24,-235.48l-163.33 -3.87c-149.42,60.85 -273.99,248.02 -273.99,432.08z"/>
  <path class="fil1" d="M15915.63 17384.01c10.36,-136.37 24.52,-151.1 107.84,-212.14 0.5,0.81 78.45,170.76 102.73,121.26 4.31,-8.8 21.1,9.24 29.71,14.36l-56.36 138.55c-115.65,46.75 -99.36,31.08 -183.92,-62.03zm-178.81 76.08c0,707.12 734.71,206.52 442.62,-346.08 -295.58,-78.45 -442.62,69.28 -442.62,346.08z"/>
  <path class="fil1" d="M16267 16813.69c111.53,203.27 52.37,674.73 114.97,1162.35l157.09 -38.07c31.33,-458.85 -30.34,-534.37 -27.03,-858.91 1.81,-179.62 11.17,-281.72 -70.34,-400.99 -109.59,66.65 -86.25,46.81 -174.69,135.62z"/>
  <path class="fil0" d="M3347.48 8699.3c115.46,100.8 11.99,66.59 217.07,-8.24 206.96,-75.39 560.33,-112.53 779.33,-112.53 -25.15,174.26 0.69,135.13 -185.67,140.8 67.59,104.73 48.06,74.02 417.35,67.97 72.89,-102.6 98.17,-65.47 72.77,-148.48 0,-0.06 -38.07,-81.76 -44.63,-97.86 -22.96,-56.73 -36.32,-97.73 -52.48,-137.8 -210.46,-0.25 -435.7,68.03 -621.37,111.53l-582.37 184.61z"/>
  <path class="fil0" d="M10842.87 9271.24c47.5,167.39 61.73,74.27 70.59,257.76 178.99,-89.37 5.86,82.51 170.57,-319.05 71.96,-175.5 98.61,-145.48 204.4,-279.29 307.44,0 331.47,-34.95 526.13,113.09 110.65,84.13 222.99,202.21 363.67,236.67 -38.01,-127.89 -157.96,-245.35 -275.92,-323.05 -44.38,-29.27 -416.47,-167.64 -441.31,-167.64 -269.62,0 -489.37,346.58 -618.13,481.51z"/>
  <path class="fil0" d="M9399.41 8068.94c5.87,170.32 25.09,114.34 -32.51,225.93 153.53,-74.89 130.44,-455.66 497.23,-455.66 475.08,0 560.15,398.37 630.17,542.35 27.28,-29.52 110.1,-9.48 19.22,-195.35 -104.35,-213.38 -131.31,-190.54 -233.91,-302.69 -130.38,-142.49 -58.3,-114.84 -453.49,-114.84 -165.7,0 -342.76,156.4 -426.71,300.26z"/>
  <path class="fil0" d="M10276.98 14810.46l73.03 -10.8c-0.07,-215.07 -38.89,-322.1 -30.59,-496.79 8.93,-187.74 64.66,-240.22 -66.65,-370.29l24.21 877.88z"/>
  <path class="fil0" d="M15743.24 8661.48c50.93,40.75 6.68,24.78 90.56,52.8l767.11 181.18c-95.06,-147.67 -371.67,-152.78 -535.12,-182.87 -180,-33.14 -32.14,-79.57 -322.55,-51.11z"/>
  <path class="fil0" d="M12110.33 10053.45c192.16,-90.44 59.66,-81.51 199.65,-187.18 76.27,-57.54 200.97,-85.38 290.46,-123.07 -57.54,-49.43 -2.55,-110.97 -272.8,27.83 -124.7,64.04 -152.34,147.42 -217.31,282.42z"/>
  <path class="fil0" d="M6969.98 9564.2c154.47,7.18 84.88,-20.03 131.5,44.69 116.9,162.14 -104.54,57.04 113.65,133.25 48.93,-108.54 14.29,-103.54 -15.54,-263.57 -296.95,1.25 -176.37,54.36 -229.61,85.63z"/>
  <path class="fil0" d="M11899.13 14472.44l-40.63 -458.16c-171.51,116.08 -57.24,358.49 40.63,458.16z"/>
  <path class="fil1" d="M17180.27 17650.19c0,92.25 25.65,83.2 97.86,117.77 182.31,-219.25 7.87,-224.99 -38,-240.16 -33.08,33.89 -59.86,16.92 -59.86,122.39z"/>
  <path class="fil0" d="M6708.41 8841.16c133.56,-135.81 79.26,-234.23 -117.77,-354.87 21.72,155.9 22.78,63.91 75.64,233.04 3.25,10.3 3.87,21.72 7.06,31.83 3.18,10.12 5.86,22.22 8.92,31.4l26.15 58.6z"/>
  <path class="fil0" d="M15469.94 8964.67l115.22 -43.31c-16.29,-192.6 18.1,-209.45 -17.92,-273.36 -78.7,80.45 -110.34,187.36 -97.3,316.67z"/>
  <path class="fil0" d="M4658.88 11666.23c107.84,-105.67 102.16,-176.07 182.11,-254.52 102.11,-100.17 157.59,-49.93 227.81,-226.99 -186.49,113.71 -115.28,57.98 -232.74,222.56 -99.29,139.18 -180.43,64.28 -177.18,258.95z"/>
  <path class="fil0" d="M7430.64 12660.88c-89.44,103.73 -101.67,112.9 -108.72,277.11 70.52,-22.78 47.18,80.07 98.67,-84.13 11.05,-35.14 8.86,-149.6 10.05,-192.98z"/>
  <path class="fil0" d="M10924.51 10008.01c96.17,63.29 112.34,86.13 216.38,0 -1.88,-1.87 24.65,-57.36 -99.43,-56.48 -251.7,1.87 -40.31,-13.55 -116.95,56.48z"/>
  <path class="fil0" d="M7181.12 12887.62c106.6,-44.37 111.78,-146.85 140.8,-260.07 -110.35,54.18 -30.15,-49.49 -100.17,96.86 -28.96,60.54 -31.02,107.04 -40.63,163.21z"/>
  <path class="fil0" d="M9592.08 8557.44c-41.38,-100.36 40.69,-21.85 -77.95,-92.18 -51.49,-30.52 -94.24,-42.51 -149.92,-62.73 54.61,107.54 108.35,153.47 227.87,154.91z"/>
  <path class="fil0" d="M13995.78 12859.54c-85.81,-296.27 29.33,-192.36 -125.07,-216.07 13.29,36.94 31.58,108.16 40.07,126.57 69.27,150.28 -6.68,49.8 85,89.5z"/>
  <path class="fil0" d="M14602.92 12964.7c-74.33,-144.42 25.34,-103.6 -133.56,-154.16 28.84,84.07 -16.16,37.82 48.99,111.28 53.62,60.48 11.11,26.47 84.57,42.88z"/>
  <path class="fil0" d="M13019.85 9878.38c20.22,-19.28 20.22,38.63 50.18,-52.86 55.3,-168.83 22.28,-22.47 -12.17,-85.13 -54.74,28.83 -126.13,4.06 -38.01,137.99z"/>
  <path class="fil0" d="M12427.44 10444.52c167.64,-57.23 110.78,8.92 135.43,-134 -113.59,50.86 -79.32,1 -135.43,134z"/>
  <path class="fil0" d="M6443.29 12342.71c132.06,-64.1 81.57,-0.88 104.16,-126.83 -119.83,49 -73.27,-27.21 -104.16,126.83z"/>
  <path class="fil0" d="M16579.37 10453.13c-8.73,9.11 -24.84,9.05 -27.64,25.84 -11.99,72.4 -123.64,21.47 4.05,99.42l19.72 -152.1c-141.61,-65.34 -20.16,5.87 -132.43,-84.25 57.6,112.96 -10.74,44.68 136.3,111.09z"/>
  <path class="fil0" d="M16992.04 9057.48c66.41,41.19 97.17,72.02 149.04,93.93 -68.09,-82.2 -14.86,-157.53 -149.04,-93.93z"/>
  <path class="fil0" d="M7563.45 9821.65c-59.48,-98.05 -31.45,-77.64 -134.25,-116.46 43.38,109.22 -0.75,60.73 134.25,116.46z"/>
  <path class="fil0" d="M10460.35 8590.58c37.2,-28.65 60.98,62.6 48.56,-65.22 -7.74,-79.14 -4,-27.96 -36.45,-64.85l-12.11 130.07z"/>
  <path class="fil0" d="M9143.09 10105.37c152.6,-41 78.26,29.15 100.42,-83.44l-100.42 83.44z"/>
  <path class="fil0" d="M10684.91 10844.45c23.03,16.48 46.74,32.89 71.4,55.73 -0.19,-70.02 33.95,-87.75 -71.4,-55.73z"/>
  <path class="fil2" d="M5892.63 18583.93c-143.05,60.67 -196.66,66.35 -338.77,99.49l18.97 -1029.42c339.15,-125.57 168.58,-0.13 475.39,-82.32 96.3,-25.78 100.61,-31.27 203.96,-38.82 219.13,51.74 315.56,368.91 295.27,649.58l-51.86 356.99 -277.92 63.29c14.6,-274.24 31.08,-559.27 -117.58,-793.19 -247.53,91.74 -137.12,478.95 -207.46,774.4zm-1000.02 -404.61c85.38,37.13 292.08,265.37 422.52,-270.56 -180.36,80.01 -52.17,98.55 -234.16,77.52 32.95,-123.45 56.79,-88.56 24.09,-176.19 -151.54,76.89 -212.45,136.68 -212.45,369.23zm3128.19 -238.04c214.7,68.34 29.59,22.22 110.97,-12.48 70.15,-69.97 2,-191.29 -27.46,-274.99l-27.15 -61.85c-133.68,74.77 -144.36,124.64 -152.1,288.28 12.61,7.8 90.38,59.29 95.74,61.04zm2357.98 -196.97l153.16 12.73 -9.8 -340.77c-161.96,75.15 -199.35,149.17 -143.36,328.04zm5536.85 -360.3c84.56,93.11 68.27,108.78 183.92,62.03l56.36 -138.55c-8.61,-5.12 -25.4,-23.16 -29.71,-14.36 -24.28,49.5 -102.23,-120.45 -102.73,-121.26 -83.32,61.04 -97.48,75.77 -107.84,212.14zm-1833.6 0c41.26,142.48 23.22,147.29 154.47,168.38l2.75 -299.14c-112.47,-8.17 -95.8,28.53 -157.22,130.76zm-4788.34 456.29c0,-596.1 670.99,-826.64 725.97,-300.64 -119.27,28.71 -677.04,-57.86 -436.57,429.52 172.13,18.28 175.32,-55.61 237.98,-166.02l207.64 92.5c-102.6,109.97 -173.19,294.83 -392.69,294.83 -220.88,0 -342.33,-42.19 -342.33,-350.19zm7886.58 -190.11c0,-105.47 26.78,-88.5 59.86,-122.39 45.87,15.17 220.31,20.91 38,240.16 -72.21,-34.57 -97.86,-25.52 -97.86,-117.77zm-3274.36 -190.1c0,-241.6 364.05,-374.91 559.52,-459.73 25.9,1013.38 92.74,883.06 -449.49,870.33 -130,-191.73 -110.03,-119.7 -110.03,-410.6zm2992.07 -9.74c75.4,-118.96 20.91,-142.99 -15.29,-278.73 -53.23,74.21 -49.55,37.45 -89.62,136.37 58.04,107.47 -52.18,78.89 104.91,142.36zm-2433.36 775.34c483.94,0 354.56,-479.38 356.99,-917.76 3,-546.98 -56.36,-723.54 -545.1,-492.56 -257.51,121.71 -194.97,30.27 -396.88,249.34 -405.55,439.88 -187.73,1160.98 280.54,1160.98l304.45 0zm1272.2 -765.6c0,-276.8 147.04,-424.53 442.62,-346.08 292.09,552.6 -442.62,1053.2 -442.62,346.08zm-633.67 0c0,-184.06 124.57,-371.23 273.99,-432.08l163.33 3.87c41.44,66.59 91.56,117.71 98.24,235.48l-285.48 16.66c-108.22,201.03 -74.33,240.6 23.91,338.21 116.15,-80.63 116.33,-150.72 237.04,-95.18 0.06,0.19 122.26,29.21 -50.24,192.36 -165.15,156.15 -460.79,108.72 -460.79,-259.32zm1830.72 -456.3c0,-132.68 -42.69,-381.52 90.62,-398.87 271.87,-35.26 -70.33,12.11 152.79,85.69 86.5,28.52 64.59,0.31 167.45,-14.6 20.66,243.22 -3.06,340.2 -23.53,598.96 -49.24,-3.87 -156.84,25.4 -187.05,-173.44 -2.56,-16.91 -7.36,-22.22 -21.41,-31.21l-2.68 716.37c-300.2,55.11 -446.62,-8.37 -485,-257.39 -67.28,-437.01 226.99,-391.51 308.81,-525.51zm-421.84 75.27c-3.31,324.54 58.36,400.06 27.03,858.91l-157.09 38.07c-62.6,-487.62 -3.44,-959.08 -114.97,-1162.35 88.44,-88.81 65.1,-68.97 174.69,-135.62 81.51,119.27 72.15,221.37 70.34,400.99zm1161.17 533.06c0,-1046.71 189.29,-1004.83 -292.84,-1206.6 -8.11,-3.44 -17.66,-8.49 -25.52,-12.11 -71.59,-32.71 -41.51,-69.09 -152.72,-69.09 -273.05,0 -294.77,121.64 -404.81,143.36 -80.63,15.91 -109.59,-107.85 -334.08,-54.74 -414.48,98.11 -317.31,393.13 -544.3,449.87 -192.72,48.18 -382.39,-268.31 -704,-18.98 -408.48,316.74 -499.54,1204.61 139.12,1331.74 224.24,44.69 229.67,-74.02 392.32,-52.98 188.23,24.4 103.41,94.99 440.75,47.68 171.57,255.32 397.25,254.45 634.29,87.94 341.2,-239.66 851.79,208.51 851.79,-646.09zm-5323.15 61.48c-0.87,345.07 -684.91,503.1 -627.74,-59.61 40.63,-399.81 512.53,-763.54 649.83,-267.99 -6.61,6.36 -15.91,15.41 -20.22,18.78l-62.78 47c-132.82,64.97 -193.86,-45.62 -295.84,48.12 -109.84,171.76 -78.51,232.79 38.01,337.96 220.19,-76.39 53.68,-161.84 318.74,-124.26zm388.51 227.55c-320.67,36.57 -276.23,145.11 -276.11,-593.16 0.13,-669.43 -83.38,-774.97 198.22,-766.04l68.97 607.2c291.33,-31.83 472.33,78.83 472.33,462.97 0,364.55 -116.84,297.58 -241.41,287.41 -6.37,-108.97 0.19,-213.58 -14.11,-319.8 -1.24,-9.43 -41.25,-149.1 -41.69,-149.85 -54.42,-89.75 10.3,-28.59 -92.24,-84.44 -108.91,181.05 -57.86,298.51 -73.96,555.71zm-1719.69 -767.1c0,-284.72 -48.87,-513.65 256.83,-518.96 -54.18,508.22 -97.43,515.15 165.7,519.14 0,418.6 -26.28,217.13 -125.89,291.47 -79.07,59.04 -85.31,-108.41 -85.31,110.4 0,624.43 121.7,140.18 387.2,55.86 21.34,154.6 56.92,275.55 -56.23,385.64 -72.46,70.47 -223,121.71 -351.13,79.45 -415.6,-136.99 68.96,-574.18 -390.82,-606.39l-29.09 630.17 -492.99 49.81c-243.59,-56.92 -390.13,-658.2 249.46,-860.66 277.61,-87.88 83.95,-135.93 472.27,-135.93zm598.53 -320.36c84.94,-170.82 11.36,-490.12 -111.84,-579.62 -188.11,-136.62 -359.68,58.29 -473.33,151.1 -173.19,141.36 -183.62,165.02 -239.79,332.53 -93.68,279.1 -214.19,191.42 -548.1,378.65 -428.2,-247.71 -589.16,-233.48 -894.48,76.58 -189.29,192.29 -388.14,582.11 -303.57,943.41 181.43,775.41 1002.52,334.9 1075.41,339.59 68.84,4.36 378.09,141.05 813.85,-5.81 294.09,-99.11 257.2,26.28 553.09,-18.04 294.09,-44 123.58,-154.03 460.29,-94.74 119.83,21.1 718.73,-70.02 1039.78,-50.24 513.33,31.71 602.33,-243.22 562.83,-710.3 -46.81,-554.53 -241.97,-575.63 -490.56,-763.11 0,-234.98 -4.74,-505.54 -163.46,-599.53 -148.1,-87.75 -483.31,19.91 -563.51,103.04 -95.37,98.8 -72.34,145.42 -80.51,308.13 -10.55,208.08 10.61,153.41 -168.45,205.27 -313.93,90.94 -182.8,249.4 -467.65,-16.91zm-3982.67 1115.54c68.65,-155.78 131.81,-346.88 290.33,-432.26l522.33 -178.62 -36.64 1007.57c-547.72,160.96 -642.84,76.46 -779.27,-229.17l-75.58 183.49c-25.46,78.07 -22.53,78.07 -66.59,153.65l-230.3 -4.55c30.7,-231.11 43,-505.16 -87.19,-696.58 -124.26,29.65 -140.37,56.98 -161.4,185.74 -68.34,418.91 168.76,545.79 -359.24,596.72l21.03 -977.18 695.89 -86.88c231.92,326.41 79.27,81.7 213.26,388.26l53.37 89.81zm-3732.28 -79.88c-46.31,69.65 -109.35,108.22 -119.52,222.43 -11.05,123.14 34.14,197.41 149.97,224.31 117.96,-8.24 47.31,-44.19 138.31,-206.21 26.4,-46.93 32.2,-51.11 51.8,-75.39l447.8 91.56c117.15,-154.97 145.98,-260.01 385.27,-382.96 195.79,-100.55 499.92,-39.95 499.92,193.22l0 190.11c0,372.66 -615.76,1010.13 -838,568.51 -58.79,-116.77 -26.34,-191.04 -120.15,-305.63l-176.56 1000.71 -370.66 12.98c11.42,-94.06 96.36,-398.87 132.31,-521.08 -234.48,5.18 -739.33,268.44 -739.33,-755.49 0,-335.59 173.13,-595.66 423.03,-663.68 288.72,-78.58 613.26,-85.63 809.23,119.08 -41.5,133.99 -126.32,185.8 -250.9,254.26 -167.38,91.93 -199.28,8.36 -422.52,33.27zm4250.73 974.87c34.82,0 488.06,-112.03 514.65,-127.39 104.72,-60.6 168.13,-271.36 168.13,-438.31 0,-1011.13 122.02,-1300.29 -340.58,-1300.29 -26.96,0 -618.87,238.85 -711.55,352.01 -286.66,-108.98 -140.8,-215.01 -696.08,-146.42 -180.49,22.28 -230.49,37.76 -379.21,73.96 -302.39,73.58 -411.17,-100.55 -1142.14,106.41 -183.42,51.92 -412.1,29.02 -606.95,69.09 -166.08,-148.61 -331.72,-314.25 -684.03,-314.25 -658.19,0 -1213.59,395.38 -1213.59,893.3 0,479.01 -49.43,1198.06 563.38,1399.96 0,523.63 60.48,609.07 605.9,556.4 469.02,-45.25 465.28,-323.67 547.78,-615.26 158.47,-26.83 209.46,-18.1 339.59,-79.57 103.91,-49.06 155.53,-111.41 237.91,-127.2 77.58,-14.85 197.47,36.58 309.25,23.1 147.66,-17.79 145.48,-57.3 276.42,-93.62 132.19,-36.7 218.75,10.42 336.77,0.69 91.81,-7.62 241.41,-43.13 346.45,-58.48 137.12,-20.04 202.46,-43.32 327.54,-84.76 256.45,-84.94 115.52,48.81 708.99,-86.94 130.01,-29.77 287.66,-2.43 491.37,-2.43z"/>
  <path class="fil3" d="M12666.23 10958.54c72.39,179.5 128.81,144.3 240.03,303.94l219.19 351.76c70.09,87.25 180,117.89 264.5,270.18 80.58,145.17 126.95,219.19 227.12,318.86 -1.31,-284.54 -224.68,-553.91 -326.73,-721.73l-308.06 -481.57c-37.32,-96.86 -5.68,-89.19 -76.52,-192.41 -118.89,14.66 -144.61,47.68 -219.87,127.94 -4.56,4.87 -13.3,15.17 -19.66,23.03z"/>
  <path class="fil3" d="M10314.74 11718.96c53.12,86.26 193.73,76.52 358.31,56.98 76.83,-9.11 161.15,37.08 301.38,-88.18 76.52,-68.41 33.71,10.48 78.14,-94.31 -73.02,-15.23 -204.64,27.34 -329.16,-122.95 -145.35,-175.44 11.43,-164.64 -273.11,-267.24 -92.18,131.87 -104.04,355.55 -135.56,515.7z"/>
  <path class="fil3" d="M13730.1 10057.19c209.32,9.67 437,153.91 571.19,264.56 218.87,180.5 317.73,265.44 505.84,184.8 -50.86,-141.67 -128.63,-208.51 -248.08,-99.17 -15.04,-135.18 174,-190.73 -234.55,-275.36 -120.83,-25.02 -126.69,-47.49 -181.61,-145.67l-134.5 -242.78c-119.96,118.96 -238.35,110.78 -278.29,313.62z"/>
  <path class="fil3" d="M9610.43 11606.5c-102.92,-53.3 -58.36,50.36 -70.4,-140.74 -101.48,40.94 -119.21,62.47 -239.23,70.21l-7.24 70.53c166.27,2.87 144.24,-16.67 244.47,98.36 8.86,10.11 70.65,77.33 70.65,77.39 51.12,35.89 281.29,99.67 341.77,99.05l-47.62 -468.65c-57.23,-128.57 -22.97,-65.85 -126.89,-119.08 -136.3,121.76 -112.03,117.27 -165.51,312.93z"/>
  <path class="fil3" d="M7320.48 8297.81c116.21,-33.58 171.76,-92.31 214.07,-198.91 75.34,-189.92 129.63,-469.27 -78.01,-591.41 -109.91,-64.6 -225.49,-60.92 -310.44,-8.86 124.64,97.17 153.91,36.76 271.31,76.39l45.5 115.83c-139.56,83.7 -82.45,-12.73 -190.48,105.85 -23.22,25.47 -77.27,109.6 -85.63,136.12 255.07,-16.47 -77.02,-108.78 205.71,-58.1 -8.37,132.68 -42.07,315.8 -72.03,423.09z"/>
  <path class="fil3" d="M14532.52 10087.9c7.18,-6.87 18.23,-27.21 21.16,-20.97 0,0.06 108.72,-77.77 90.31,-262.76 -18.04,-180.62 78.2,-53.36 -5.87,-197.78 -153.41,72.96 -385.45,-54.98 -375.9,169.26 6.55,155.22 206.95,262.26 270.3,312.25z"/>
  <path class="fil3" d="M11231.7 10622.89c3.99,0.37 10.85,-5.37 11.79,-1.94 1.06,3.81 11.05,-3.43 12.61,-4.43l154.65 -60.47c100.49,219.06 25.41,138.05 126.33,221.62 60.04,-51.11 69.77,-17.91 65.84,-106.97 -6.55,-146.36 -13.17,71.58 -50.74,-77.27 98.98,-85.69 55.42,19.29 65.22,-177.75 220.62,22.53 9.3,22.72 211.32,82.57 -2.55,-169.82 7.37,-194.53 -177.62,-194.53 -106.72,0 -226.68,27.21 -303.38,83.63 -69.78,51.36 -156.53,146.73 -116.02,235.54z"/>
  <path class="fil3" d="M9825.81 11072.57c91.37,78.95 68.15,90.24 242.34,111.4l15.8 172.82c207.95,-44.25 87.81,-173.76 226.67,-335.84 73.77,-86.13 57.98,48.87 62.79,-77.45 -206.27,-46.87 -345.57,-95.55 -547.6,129.07z"/>
  <path class="fil3" d="M11723.12 11460.2c-8.36,-177.93 -178.93,-599.09 -363.86,-641.28 15.61,119.59 36.2,90.13 65.66,183.81 21.91,69.77 40.76,185.55 40.13,226.18 -3.31,214.44 -142.23,252.2 258.07,231.29z"/>
  <path class="fil3" d="M8915.66 12711.18c-23.65,209.52 -50.24,340.52 -37.26,574.63 99.8,-122.39 41.94,-66.35 72.21,-230.74 30.4,-165.14 156.28,-484.38 85.69,-736.46 -211.07,-9.17 -100.48,213.45 -120.64,392.57z"/>
  <path class="fil3" d="M13324.05 11324.58c123.88,-97.86 133.18,-131.25 154.4,-252.01 -134.68,-101.05 -33.7,16.85 -212.45,-136.56 -91.24,-78.2 -2.18,-23.47 -94.05,-65.1 -31.71,53.93 -42.13,-95.86 -41.82,124.27 0.13,72.27 12.67,76.82 32.27,123.45l161.65 205.95z"/>
  <path class="fil3" d="M13941.23 10618.58c69.59,-24.03 37.95,-20.53 91.06,-55.04 59.67,-38.7 13.48,-26.22 90.19,-46l34.01 130.88 145.55 -176.44c-78.52,-147.36 -183.31,-206.9 -360.81,-193.23 106.6,313.25 39.88,101.61 0,339.83z"/>
  <path class="fil3" d="M7182.05 11622.22c0.13,198.04 120.08,290.16 280.86,292.9 0,-211.76 -49.25,-237.41 31.76,-336.08 -135.93,-41.76 -152.28,-20.41 -312.62,43.18z"/>
  <path class="fil3" d="M12638.45 11535.97c245.16,-28.96 77.96,-38.38 316.93,35.2 -22.59,-107.85 -142.67,-324.98 -316.93,-352l0 316.8z"/>
  <path class="fil3" d="M9165.5 12797.81c432.38,30.46 215.19,-211.14 52.3,-307.88 -54.11,92.75 -74.27,167.27 -52.3,307.88z"/>
  <path class="fil3" d="M11631.32 12872.21c135.74,-47.37 101.54,-4.25 192.41,-126.7 -50.3,-111.65 -128.38,-194.04 -235.6,-253.08l43.19 379.78z"/>
  <path class="fil3" d="M5737.72 9669.99c171.64,-8.74 229.62,-38.57 281.61,-168.7 -41.82,-46.5 -32.77,-71.09 -147.36,-112.9l-78.14 88.81c-4.62,6.8 -12.17,14.6 -16.47,22.28l-39.64 170.51z"/>
  <path class="fil3" d="M11131.59 11338.75l200.03 38.76 38.82 -152.97c-39.39,-54.61 -53.3,-74.15 -91.37,-139.18 -58.05,136.74 -108.6,137.31 -147.48,253.39z"/>
  <path class="fil3" d="M13214.7 12285.54c197.72,-23.47 247.52,-47.5 194.41,-221.44 -179.99,21.78 -205.33,33.14 -194.41,221.44z"/>
  <path class="fil3" d="M8626.45 12593.41c64.78,68.22 77.7,122.02 197.78,138.74 6.18,-110.59 -18.29,-235.29 -77.39,-311.49 -41.94,63.66 -73.21,117.02 -120.39,172.75z"/>
  <path class="fil3" d="M13133.94 10233.19c121.27,-58.42 19.85,51.05 84.82,-137.74 30.39,-88.31 33.7,-51.24 53.61,-159.77 -66.35,31.14 -99.55,52.86 -136.25,114.33 -10.42,17.42 -31.51,65.22 -33.32,81.01 -19.73,170.76 9.36,67.41 31.14,102.17z"/>
  <path class="fil3" d="M14957.73 10694.16c1.75,-3.24 162.9,-114.46 -162.21,-170.32 17.67,90.31 12.8,103.11 67.35,155.59 99.92,96.06 94.61,14.86 94.86,14.73z"/>
  <path class="fil3" d="M11130.53 11540.53c84.94,111.47 22.9,23.65 134.87,101.17 141.05,-55.92 62.97,-77.64 236.91,-77.64l0 -28.09c-118.02,0 -357.24,-33.26 -371.78,4.56z"/>
  <path class="fil3" d="M7773.03 10404.82c103.85,-42.5 47,82.51 112.4,-135.43 -86.19,-44.44 -105.16,-55.98 -211.39,-56.17 41.76,123.64 72.09,85.38 84.57,100.3 102.61,122.2 -30.7,-32.9 14.42,91.3z"/>
  <path class="fil3" d="M9892.34 12486.63c155.47,-72.78 90.37,-8.43 70.4,-226.5 -89.43,21.85 -43.62,-44.81 -69.71,64.35 -3.43,14.54 -0.69,139.62 -0.69,162.15z"/>
  <path class="fil3" d="M10861.59 13603.05c63.23,-79.2 103.73,-91.06 -8.92,-182.06 -33.08,47.62 -49.56,-61.66 -35.01,115.15 7.49,91.43 -0.13,19.22 43.93,66.91z"/>
  <path class="fil3" d="M11763.69 11107.2c16.73,-73.95 25.15,-35.63 -10.86,-96.61 -46,-77.95 -21.97,-62.04 -119.52,-106.72 35.58,141.61 25.53,145.6 130.38,203.33z"/>
  <path class="fil3" d="M12983.46 12051.62c37.64,-31.77 48.62,-41.88 101.17,-69.34l-149.35 -94.43c-11.23,108.91 -3.8,98.92 48.18,163.77z"/>
  <path class="fil3" d="M6050.03 11212.68c31.39,-59.04 50.68,-90.5 12.05,-165.64 -111.53,66.09 -104.92,52.43 -12.05,165.64z"/>
  <path class="fil3" d="M12010.03 11794.98c123.76,90.06 73.96,4.68 79.58,0 -137.19,-73.02 -65.6,-7.8 -79.58,0z"/>
  <path class="fil3" d="M5187.63 9576.68l56.17 -68.77c-67.72,-0.32 -98.05,-12.05 -56.17,68.77z"/>
  <g id="_2886199155664">
   <path class="fil4" d="M8753.58 1230.56c-252.27,-67.28 -221.13,-396.56 -363.8,-587.67 -75.45,-101.17 -81.45,-81.76 -235.48,-81.76 -22.53,96.74 -70.46,143.18 -70.46,211.39 0,214.39 35.26,257.01 35.26,458.04 -222.56,-162.96 -85.19,-488.68 -493.55,-704.63 -184.24,123.27 -317.24,467.53 -317.24,739.89 0,158.28 134.44,560.52 176.25,739.89 -181.12,-48.37 -403.55,-681.22 -640.53,-1051.01 -127.88,-199.53 -487.49,-418.28 -487.49,-76.45 0,445.62 197.84,836.75 281.97,1197.93 -172.38,-46 -89.25,-99.74 -352.19,-105.98 -446.49,-10.67 -629.36,-387.26 -1093.08,-387.26 -605.08,0 -63.59,1001.08 132.07,1206.85 34.7,36.45 327.78,413.85 114.71,413.85 -447.68,0 -1833.03,-1592.56 -1833.03,-563.7 0,284.41 460.47,645.4 645.46,799.37 86.32,71.83 113.03,73.21 186.49,165.89 92.37,116.46 488.99,690.71 155.03,690.71 -478.76,0 -1310.96,-612.95 -1533.71,-443.81 -192.35,146.04 -23.21,489.06 124.2,584.17 285.91,184.62 403.62,440.88 633.61,599.9 156.03,107.91 247.15,114.28 247.15,387.21 -621.75,148.78 -1868.3,-648.09 -1868.3,35.2 0,401.05 1224.15,413.66 1339.55,845.61 -143.8,68.97 -338.84,11.61 -500.67,63.35 -220.5,70.46 -322.48,255.45 -491.55,389.45 -233.49,185.05 -302.08,230.05 -276.8,533.74 332.34,77.39 1088.65,106.29 1219.4,155.28 79.39,29.71 261.13,160.65 261.13,232.3 0,615.38 -1380.05,333.71 -1515.79,916.08 190.98,285.09 612.13,131 930.43,84.31 829.14,-121.45 1184.95,264.26 586.23,550.79 -247.83,118.58 -550.78,226.93 -772.78,390.26 -126.19,92.87 -210.45,172.75 -215.13,383.95 237.91,55.43 508.84,207.9 787.82,232.49 271.99,23.96 496.3,-225.75 798.5,-232.49 -38.01,142.12 -141.06,146.36 -141.06,281.85 0,341.46 185.37,384.52 -99.85,604.84 -473.15,365.42 -446.31,875.01 -111.66,875.01 197.66,0 462.41,-248.46 605.89,-345.76 270.12,-183.06 495.74,-368.48 839.44,-288.47 54.49,233.86 -23.9,277.23 -110.66,488.37 -514.39,1252.42 -141.61,828.33 45.94,1056.13 92.93,112.9 74.77,585.36 799.43,-352.06 72.83,-94.24 113.28,-159.09 252.33,-170.64 9.17,110.16 35.2,125.14 35.2,246.59 0,749.82 -241.78,1352.9 105.79,1585.51 483.31,-112.53 582.11,-915.27 951.78,-1162.67 0,369.04 5.18,335.9 112.65,664.12 73.21,223.5 -121.52,569.01 169.32,569.01 170.45,0 60.35,-126.38 246.78,-176.13 2.56,114.41 22.53,209.65 35.88,351.63 15.11,160.21 34.95,176.75 140.37,247.34 150.6,-35.08 198.4,-105.48 251.77,-241.66 122.51,-312.68 147.79,-881.13 417.97,-1062 155.96,135.5 159.65,211.77 197.97,471.59 50.42,342.08 -131.44,587.29 210.64,776.02 333.84,184.31 65.65,655.01 402.18,655.01 442.37,0 221.25,-1200.55 458.28,-1374.11 74.52,319.73 62.92,408.67 281.98,598.96 277.3,-146.6 211.51,-233.23 211.51,-634.16 147.54,39.32 157.59,226.93 197.29,366.54 82.5,290.46 121.95,618.75 234.79,892.8 64.28,156.21 100.73,250.77 272.93,290.9 405.92,-605.83 176.25,-907.97 176.25,-1515.04 304.81,223.24 436.63,1125.72 881.31,1162.73 108.53,-205.03 108.22,-229.06 69.78,-491.62 -78.95,-539.61 -351.82,-965.88 -351.82,-1551.93 281.6,188.48 596.72,1057 881.25,1057 150.85,0 176.32,-193.78 176.32,-352.37 183.74,49.05 207.52,317.11 422.96,317.11 325.98,0 -101.67,-626.8 -105.72,-810.35 208.14,55.55 222.56,352.31 458.22,352.31 245.34,0 46.37,-359.86 35.26,-493.24 205.53,-108.72 634.54,-31.14 634.54,-176.18 0,-233.61 -1080.9,-1444.58 -493.55,-1444.58 319.99,0 830.83,739.89 1233.82,739.89 186.8,0 67.78,-265.38 91.12,-366.55 27.96,-121.08 85.13,-134.06 85.13,-267.62 0,-118.64 -261.13,-244.96 -337.15,-473.39 -45.62,-136.93 -35.76,-203.59 -114.27,-308.56 -82.33,-110.16 -144.05,-93.68 -183.12,-239.85 329.03,27.4 782.33,458.04 1198.55,458.04 218.76,0 521.89,-446.87 95.93,-800.56 -266.19,-221.06 -871.45,-455.35 -871.45,-820.15 0,-715.11 1472.91,203.03 1797.82,-281.85 -120.82,-452.11 -1304.34,-351.75 -1304.34,-880.88 0,-514.83 338.71,-438.5 836.07,-503.22 297.77,-38.76 750.25,-145.67 750.25,-483.32 0,-192.04 -520.64,-287.97 -719.54,-337.83 -276.42,-69.34 -632.92,-140.43 -760.99,-331.6 273.12,-182.8 1410.01,-332.03 1410.01,-739.89 0,-336.96 -939.99,-70.46 -1445.27,-70.46 -129.38,0 -170.38,-54.61 -246.78,-105.72 105.42,-452.05 881.32,-680.48 881.32,-986.55 0,-249.58 -455.11,-88.68 -564.02,-140.92 39.07,-146.36 70.97,-107.85 184.81,-202.84 173.62,-144.92 287.15,-396.13 -43.82,-396.13 -268.18,0 -338.33,154.47 -599.27,176.19 135.68,-202.52 458.28,-268.62 458.28,-598.96 0,-54.3 -118.39,-105.73 -176.25,-105.73 -180.93,0 -331.84,230.24 -528.81,246.65 109.28,-163.02 317.3,-258.63 317.3,-458.04 0,-434.19 -951.59,201.41 -1082.47,260.64 -47.93,21.65 -123.82,44.93 -151.03,41.06 -421.91,-59.91 598.96,-944.85 598.96,-1253.04 0,-562.01 -838.69,146.05 -951.78,176.19 63.85,-273.86 379.78,-345.82 387.77,-704.69 -304.07,-70.77 -153.35,-98.36 -458.23,105.73 75.4,-323.48 184.8,-259.57 105.73,-598.97 -337.77,7.49 -502.98,306.94 -669.18,529.07 -73.58,98.42 -95.05,162.95 -247.34,175.62 0,-449.36 14.98,-327.85 -247.15,-492.92 -177.62,-111.91 -46.43,-172.39 -387.39,-352.69 313.37,-652.7 -1.06,-986.23 -292.15,-468.15 -245.96,437.69 -334.71,-249.84 -822.96,762.86 -61.97,128.5 -54.11,162.51 -189.17,198.53 0,-448.93 215.82,-981.49 0,-1303.6 -268.3,128.63 -287.09,189.36 -384.01,496.93 -37.51,118.89 -71.34,252.45 -101.42,356.74 -36.58,127.07 -60.54,244.22 -149.04,309 -89.87,-159.77 3.93,-455.29 -3.56,-595.09 -7.24,-134.44 -75.33,-240.73 -102.23,-356.19 -412.67,9.18 -281.48,672.36 -669.74,704.63 -87.69,-182.55 -65.03,-334.21 -94.68,-539.55 -40.19,-278.73 -26.15,-294.27 -152.09,-482.19 -221.38,18.41 -523.7,224.12 -596.72,425.33 -97.11,267.69 -50.87,601.4 -178.81,843.06z"/>
   <path class="fil5" d="M5469.29 7742.47l175.69 -168.95 146.67 -460.47c-7.68,-171.07 2.68,-186.49 -89.13,-269 -77.76,19.66 1.38,-45.93 -82.5,66.22 -26.09,34.83 -45.38,85.44 -53.93,113.53 -80.7,-130.32 -200.46,-561.27 -17.29,-583.24 69.03,164.21 -38.07,162.33 67.47,327.29 243.78,-111.1 41.07,-290.72 12.42,-498.92 330.91,-367.67 293.46,-1080.78 906.65,-590.67 228.68,114.9 300.14,549.79 640.97,503.79 69.65,-98.86 36.39,-165.33 44,-283.66 46.94,94.99 45.75,80.14 158.47,87.69 341.01,-374.47 -146.05,-372.85 -630.24,-669.68 27.28,-183.05 285.47,-510.15 338.52,-724.16l-111.96 -49.74c30.39,-89.38 56.1,-202.47 85.38,-290.97 59.79,-180.43 95.67,-96.55 103.29,-96.11 283.1,15.17 -48.87,-278.11 909.83,-500.23 642.47,-148.79 209.77,-79.82 574.07,-11.55 124.26,-75.33 347.07,-187.29 538.61,-167.82 94.61,196.6 38.82,288.59 38.82,515.02l239.66 -24.53 -57.11 -285.09c181.5,14.73 342.64,224.43 349.94,420.21 -233.29,93.87 -206.52,31.58 -455.54,40.76 50.93,70.4 21.72,47.56 150.16,97.99 194.17,76.32 91.19,35.07 290.78,259 219.81,-109.47 -21.47,-139.42 155.84,-288.34 100.86,-84.69 197.16,-117.96 306.26,-232.04 6.3,-233.67 -19.1,-280.54 -149.04,-381.78 -246.03,59.11 -100.3,108.16 -290.03,200.1 -99.11,-130.45 -162.52,-257.39 -112.15,-505.1 229.05,-40.94 436.32,169.45 714.48,212.88l-54.42 -48.43c-91.93,-95.18 -74.08,-53.42 -35.07,-101.67 25.9,-32.01 132.06,-88.81 176.62,-110.78 -49.93,-122.7 20.35,-34.64 -130,-125.26 115.71,-76.58 226.68,-152.91 402.8,-160.21 90.5,-3.74 176.88,10.55 247.9,33.45l195.97 110.66 -167.88 399.12 -509.53 -127.13 17.72 248.52 -208.7 79.64 170.51 72.59c-101.92,119.83 -41.38,-4.62 -107.91,153.34 128.5,104.04 494.49,436.38 647.33,481.63 -38.69,-84.5 -75.39,-107.97 -59.91,-240.78 228.36,19.78 98.92,152.41 368.72,119.39 -86.37,-56.23 -117.45,-59.79 -195.41,-140.61 140.37,-105.29 82.57,-60.98 241.29,-62.54 264.87,-2.56 25.96,23.09 237.54,-109.22 158.96,-99.36 309.24,-127.63 460.91,-232.42 -171.01,-252.21 -344.33,-109.03 -609.14,-107.16 -39.57,-244.09 -34.45,-265.25 36.7,-478.45 166.82,-3.87 220.81,39.07 325.66,111.66 126.07,87.25 121.7,50.55 184.8,240.9 130.63,394.13 351.5,196.85 377.03,428.02 -93.43,-39.81 -139.68,-84.5 -245.53,-123.57l27.84 212.45 396.12 162.14c-16.47,190.42 -150.35,289.59 -361.36,327.42l-148.04 -277.74c-195.04,21.66 -397.81,154.78 -458.16,289.53 -79.02,176.44 52.61,416.54 114.96,545.17 221.75,72.96 -5.49,60.04 161.02,194.66 127.51,103.04 83.69,-16.73 206.52,45.37 61.54,31.08 220.31,303.82 287.91,381.4l114.77 -151.16c106.6,62.66 77.77,76.83 196.91,114.9 85.75,-89.87 119.02,-153.53 159.71,-263.5 -190.73,-168.45 -204.46,-51.12 -201.4,-298.58 3.24,-259.51 19.97,-345.57 244.78,-448.49 138.36,110.9 149.78,215.13 233.85,415.85 39.2,93.68 6.81,0.31 37.08,99.42 12.17,40.07 10.67,52.24 27.08,103.6 27.28,85.51 55.11,129.38 102.42,211.83 78.89,137.55 146.48,255.64 230.36,370.6 83.57,114.52 40.44,57.35 145.73,135.18 161.4,119.46 30.96,15.85 137.99,186.74l23.1 -220.57c56.29,136.69 7.42,263.13 40.5,420.91 34.39,163.89 82.26,102.54 98.49,354.25 20.97,325.22 107.78,477.2 251.52,669.49 -40.07,123.14 -98.74,153.53 -153.97,295.02 259.44,-25.03 507.03,-14.73 765.41,-18.91 205.21,-3.25 444.87,-79.02 652.89,-115.03 504.91,-87.44 96.3,-384.14 824.46,-263.31 119.58,19.84 210.64,19.91 299.64,-53.18 -315.93,-30.21 -305.26,-123.07 -700.76,-35.7 -173.19,38.26 -499.54,138.99 -672.55,107.48 -98.92,-425.15 139.18,-335.4 486.5,-338.4 69.28,-136.18 237.1,-272.43 -110.91,-256.2 -145.23,6.74 -343.76,63.35 -466.09,106.41 -209.39,73.83 -627.67,293.77 -825.26,307.75 -101.74,-173.5 -106.6,-176.87 -68.28,-424.52 119.45,-5.49 180.99,45 366.85,27.65 114.97,-10.67 239.35,-47.81 358.87,-61.23 297.02,-33.33 553.22,23.66 875.01,-20.03 -134.62,-176 -199.47,-74.83 -167.14,-450.55 315.49,-222.81 788.51,-202.47 1068.68,-444.12 -167.45,-35.58 -406.74,131.25 -649.9,195.35 -245.34,64.65 -562.26,236.85 -654.82,-3.06 166.58,-142.55 446.24,-78.14 635.29,-180.5l-486.31 1.75 -170.7 -529.87c264.25,-135.81 500.98,-384.15 694.64,-559.84 -239.97,-249.39 -328.53,-85.81 -540.42,10.74 -337.96,154.03 -382.52,-27.34 -644.71,152.16 -82.07,-140.12 58.73,-107.6 -92.74,-184.74 171.32,-100.36 324.16,-243.28 506.72,-336.9 62.59,-32.08 128.5,-59.35 128.94,-113.34 -178,-10.11 -308.44,211.01 -564.64,177.81 42.5,-385.64 423.9,-543.79 647.27,-797.43l-410.92 197.41c0.75,16.72 -1.62,21.59 -2.37,32.51 -10.92,159.4 -165.58,319.49 -360.18,404.62 -67.78,-110.85 -144.79,-189.17 -233.1,-285.54 112.4,-264.87 356.43,-372.66 549.47,-567.44 80.82,-81.57 34.2,-12.73 86.31,-117.46 -266.56,109.72 -1034.03,885.99 -1194.8,1147.75 -205.65,-25.53 -180.75,-41.82 -291.59,-161.65 26.65,-135.68 16.35,-93.43 108.22,-189.1 139.24,-145.11 361.55,-317.06 448.93,-496.86l-247.84 -350.51c117.9,-275.73 378.71,-500.04 506.03,-787.2 -292.21,124.39 -378.52,519.58 -667.3,669.06 -121.14,-262.44 256.7,-431.14 420.9,-581.87 85.38,-78.45 148.42,-147.16 258.32,-159.96 6.31,-0.75 17.35,0.44 23.66,-0.5 116.9,-17.35 234.54,-149.91 228.74,-327.35 -511.03,175.88 -752,653.02 -1152.31,822.71l-142.92 -89.87 116.4 -323.79c-243.03,199.34 -385.21,533.74 -607.96,768.66 -71.14,-28.77 -65.34,-30.83 -130.56,-72.21 86.75,-131.19 465.03,-615.25 575.75,-707.18 73.27,-60.86 125.88,-79.27 195.1,-119.27 53.17,-30.65 42.87,-21.04 85.31,-58.67 146.11,-129.5 255.76,-304.57 360.8,-466.65 -289.9,237.79 -561.7,487.87 -868.2,731.96l245.4 -513.46c-161.09,131.07 -279.73,482.63 -466.09,539.86 -84.82,-97.49 -72.52,-96.49 -24.97,-242.22l-214.01 16.73c34.08,-318.49 240.54,-512.15 201.28,-852.54 -220.81,204.27 -48.43,530.99 -341.08,716.29 29.96,-167.76 116.27,-124.51 128.32,-368.22l-305.5 297.95 -67.16 -201.72c-88.62,66.1 -107.66,130.94 -170.82,232.61 -157.15,252.89 -257.32,539.43 -376.97,815.97l-220.18 -34.64c35.88,-339.02 296.7,-502.97 437.25,-772.28 121.45,-232.67 0.75,-148.66 17.66,-332.53 8.49,-92.24 164.27,-493.36 205.71,-637.84 64.41,-224.5 109.41,-425.09 154.6,-662.32 -324.36,215.26 -512.78,1082.41 -796.44,1280.32 -198.59,-38.76 -168.26,17.78 -193.91,-176.07 -181,83.51 -194.54,98.36 -426.71,-4.93 -30.96,-262.19 127.94,-561.39 -49.12,-708 -311.56,193.04 -27.4,741.64 -573.37,629.86 -122.64,-343.7 -25.53,-630.73 -36.89,-965.26l-232.36 709.94 -112.4 -150.42c-68.9,209.52 -64.16,219.19 37.76,392.01 -83.7,76.71 -156.72,122.89 -281.42,173.76 -157.09,-342.71 -182.55,-1053.33 -280.29,-1201.3 -55.92,284.34 -249.27,1278.81 -215.82,1546.68 29.09,232.98 71.65,251.21 58.17,530.63 -304.5,-74.96 -213.07,-274.49 -505.66,-45.19l-82.69 -172.38c82.26,-66.91 213.32,-88.44 314.61,-132.06 229.3,-98.68 103.61,-455.8 60.73,-647.21l-68.03 151.16c-7.3,12.73 1,93.18 -115.21,68.78 -74.46,-15.61 -74.83,-46.19 -107.6,-105.42 -58.17,-105.04 22.85,-33.89 -79.7,-139.99 -10.05,305.63 13.55,144.86 -95.86,335.4 -76.02,132.32 21.84,150.91 -42.57,339.71 -241.72,-94.12 -29.27,-192.54 -224.87,-304.26 -353.37,-201.77 -68.77,177.81 -457.35,-676.16 -45.43,-99.93 -160.71,-272.93 -178.43,-332.47 -3.37,229.42 167.01,515.21 -23.84,682.66 -18.48,-28.28 -21.47,-171.57 -225.5,-473.83 -21.47,342.64 193.79,753.68 253.83,1062.93 -98.3,85.57 -156.4,144.11 -358.05,147.79 -132.57,-226.49 -221.19,-423.15 -344.58,-700.13 -116.96,-262.57 -238.47,-504.73 -416.53,-635.79 23.9,157.96 78.63,162.83 92.86,353.94 20.6,276.04 39.51,174.13 115.4,384.45 57.73,160.03 180.75,624.06 107.04,773.59 -253.83,86.63 -218.82,-75.76 -387.83,-196.72l106.66 265.32 -240.09 129.44c-147.11,-128.51 -292.34,-355.81 -385.08,-519.46l-30.71 218.63c-18.47,192.42 -18.16,-36.26 -68.15,187.74 -130.51,-71.78 -211.89,-183.37 -347.2,-239.6 66.78,310.68 353.75,379.9 418.97,597.47l-59.85 75.64c-143.3,-115.59 -563.89,-674.3 -627.93,-912.34 216.45,70.22 7.37,122.89 266.44,218.76 -53.92,-136.93 -329.35,-435.64 -502.91,-454.73 106.72,445.3 616.19,923.69 691.95,1265.33 -78.26,104.35 -206.83,282.16 -314.8,343.33 -339.52,-165.71 -656.88,-484.13 -974.62,-576.81 170.57,149.72 315.68,271.61 498.73,426.21 186.99,157.96 360.05,212.7 564.95,406.23l-91.74 244.35c151.72,137.49 295.83,144.48 345.26,371.28 202.71,-53.17 208.02,-16.97 356.18,96.55 113.15,86.76 180.75,141.18 241.28,284.04 222.63,-60.17 145.74,-48.31 294.9,58.17l-148.98 345.07c-305,-137.74 -1151.43,-1042.09 -1367.12,-1324.25 90.68,65.97 90.43,71.46 215.19,102.73 -24.46,-234.73 -212.88,-262.88 -393.69,-390.57 -167.14,-118.02 -222.19,-276.42 -484.07,-311l239.79 453.55c101.98,125.26 223.99,233.04 309.94,387.2 -50.81,112.15 -348.26,483.75 -489.44,534.74 -5.3,1.94 -15.72,4 -21.28,5.68 -5.93,1.75 -16.85,3.62 -22.9,5.24l-76.27 18.54c131.63,32.27 160.71,56.73 274.98,129.63 45.63,29.08 105.17,64.1 128.76,86.63 31.89,30.39 62.47,69.52 37.88,100.85 -279.91,193.35 -689.89,-411.48 -996.27,-430.2 43.81,314.87 480.32,469.77 735.77,555.15 265.81,88.88 161.96,174.88 349.19,281.1 209.83,119.02 224.31,26.84 448.24,217.57l-68.09 169.2c-455.54,-370.35 -608.45,-375.6 -749.19,-481.94 -127.13,-95.99 -64.1,-105.11 -250.14,-185.93 -5.87,8.99 -11.11,13.11 -12.99,29.46 -1.81,16.23 -9.67,21.72 -11.98,29.52 -10.11,33.27 -16.91,54.92 -23.9,91.31 -29.34,153.16 -15.29,363.23 -92.19,491.43 -355.37,24.28 -657.31,-156.22 -998.52,-199.47 143.49,70.96 367.42,141.99 542.86,205.15 91.81,33.08 164.08,60.79 261.25,91.12 135.69,42.38 201.78,24.84 217.2,139.99 -63.85,72.89 26.96,82.57 -293.15,-28.03 -96.68,-33.39 -220.32,-75.76 -331.16,-102.16 159.71,347.01 566.08,186.42 334.15,422.65 -5.49,5.55 -17.28,13.85 -24.65,22.03 229.49,155.9 30.4,220.69 -121.27,328.78 282.79,130.2 716.3,168.2 1035.04,235.42 167.76,35.33 217.44,2.87 199.9,160.9l-307.87 14.79c-270.37,-74.15 -594.41,-335.96 -818.03,-108.22 189.23,240.66 314.05,-37.82 387.39,269.62l-187.74 41.94c-427.64,7.8 -1123.59,-238.29 -1475.1,-15.67 254.89,31.33 509.03,58.36 765.3,84.32 640.03,64.85 334.21,24.34 616.19,228.36 155.21,112.28 1127.77,131.63 1461.3,253.71z"/>
   <path class="fil6" d="M9460.14 10393.84l-99.61 178.93c-139.24,122.89 -531.81,348.63 -700.26,398.75 82.57,85.82 -70.27,34.95 142.55,89.19 -58.67,37.82 -74.77,56.36 -141.17,18.66l-154.85 -134.06 -100.11 134.06c-305.19,-78.45 -680.28,-161.65 -1011.31,-180.93 -231.43,-13.55 -121.77,19.84 -262.63,116.27l-180.68 -81.88c86,-331.72 194.91,-176.82 289.46,-428.83 -377.78,37.5 -437.57,285.28 -608.82,554.27 -132.32,207.83 -384.96,450.93 -435.64,706.75l156.34 -144.6c65.1,-66.91 58.8,-75.9 174.69,-101.67 -22.96,150.03 -73.27,147.97 -139.05,281.85 171.01,177.31 221.25,42.06 213.82,350.88 130.76,-49.62 121.96,-87.01 197.66,56.54 79.26,-119.39 253.64,-441 292.15,-612.76 -135,-30.02 -228.68,79.64 -395.13,-229.23 169.57,-131.69 212.58,-136.56 306.44,68.34 217.51,-49.62 166.27,-117.46 399.31,21.15 -51.61,165.33 -156.65,279.11 -250.21,401.93 -170.07,223.56 -109.65,282.29 -205.08,493.56l-225.18 26.52 -7.93 201.15 152.22 41.82c59.3,-116.59 51.31,-196.22 123.95,-309.31 4.75,9.55 10.05,13.35 11.43,29.95 2.87,34.46 52.98,-2.8 6.67,255.14 -17.53,97.68 -34.88,171.2 -35.32,279.86 18.85,-60.67 78.39,-165.14 109.47,-243.97 50.93,-129 48.87,-213.45 161.46,-266.75 152.59,219.38 -57.55,274.43 -221.88,788.01l115.22 -150.1c95.67,-152.41 203.33,-381.52 346.44,-487.93l260.76 128.38 -78.76 545.73c97.98,-149.17 136.43,-311.69 276.23,-381.9 103.35,218.94 -43.63,531.87 -32.64,784.95l305.13 -627.99c112.59,70.03 151.1,175.19 146.35,313.44 -5.93,172.19 -76.45,214.01 -57.41,417.28 247.15,-319.05 72.52,-1035.78 1062.3,-634.04 82.14,428.02 128.2,464.03 189.42,857.79 18.73,120.45 24.78,205.27 95.37,305.75l-101.23 -1218.27c156.09,158.27 73.2,348.81 155.28,529.93 89.49,-48.68 91.99,47.81 60.04,-155.78 -28.71,-182.68 -154.16,-346.19 -72.28,-647.77 78.45,-288.78 118.84,-590.54 131.26,-910.33 184.36,466.46 -30.71,969.56 67.4,1333.36l87.44 11.17c7.61,-0.81 19.35,-1.81 27.58,-3.43 6.31,-1.25 88.57,-42.75 122.83,-56.17 215.7,308.12 139.62,398.31 240.29,706.87 23.9,73.09 76.89,148.29 89.31,184.3l28.83 -882c169.45,-180.18 178.75,-1.93 264.44,-335.84 304.57,134.75 299.7,780.03 382.27,1123.1 8.05,-86.25 -12.3,-184.42 -1.44,-236.35 24.66,-118.02 26.47,-20.03 110.91,-165.08 94.74,263.13 -32.08,477.57 176.5,826.39 3.74,6.18 10.73,17.1 16.79,25.22 -15.85,-421.84 -208.71,-1201.24 -170.39,-1552.93l267.69 -13.6c135.93,547.84 316.43,744.13 391.51,949.59 112.09,306.69 227.24,697.26 421.9,918.2 -19.72,-544.11 -488.81,-1572.21 -406.68,-2064.27l266.44 -19.28c105.85,129.19 193.16,267.99 294.21,414.6l214.57 316.49c81.45,97.92 2.37,72.08 102.98,60.6 188.48,-169.88 -297.89,-738.39 -103.92,-1200.05l154.04 124.51 113.46 -100.73c44.75,-37.14 49.24,-42.69 106.1,-79.39 233.48,140.8 223.62,218 387.76,416.72l67.97 -203.58 158.84 24.77c-88.38,-59.23 -299.08,-376.53 -334.65,-493.36 4.05,-94.99 -10.61,-173.01 -51.56,-235.17 -88.12,-133.68 -19.22,-131.87 -228.17,-63.1 -63.91,174.44 -30.58,171.26 35.26,316.74 -9.49,-230.48 -621.18,-1333.86 -705.38,-1373.74l-95.49 0.81c-301.38,29.71 120.83,22.84 -248.46,-4.74 -5.3,-0.44 -22.28,10.23 -26.21,1.31 -3.93,-8.99 -17.85,0.25 -26.4,2.5 -66.53,104.29 -134.75,169.13 -212.26,268.43 -113.53,145.29 -159.15,150.41 -272.3,180.18 -59.3,-125.14 -138.62,-687.65 -23.41,-809.29 109.53,102.92 65.91,142.17 129.01,327.35 -6.43,-7.62 -77.52,19.78 1.06,-104.85 92.12,-146.05 182.86,53.23 148.47,-298.52 -252.95,-187.17 -849.92,-264.06 -1158.6,-150.1 -201.47,74.4 -192.17,33.95 -284.6,173.01 2,5.61 10.92,10.42 12.85,12.6 2.06,2.25 10.86,10.36 13.42,13.42 78.77,93.99 68.91,124.08 85.51,264.63 21.34,180.68 88.06,431.51 -180.81,397.81 -137.06,-17.23 -228.3,-128.57 -290.78,-244.34 114.84,-106.29 125.02,-29.21 137.5,-206.21 -293.77,40.88 -312.62,172.82 -667.87,72.71z"/>
   <path class="fil7" d="M8647.67 3643.64c-27.15,210.89 346.44,27.15 525.44,309.88 9.3,14.73 35.76,66.65 37.26,100.86 18.72,421.65 -546.1,1.62 -703.57,-89.81 -12.42,37.5 35.14,39.75 -10.05,169.51 -162.76,-49.12 -92.49,21.78 -166.2,-139.74 -83.38,23.28 -96.17,40.19 -175.94,61.53 -426.08,114.22 -796.31,472.02 -946.53,501.79l-121.02 34.58c-53.05,214.01 -311.24,541.11 -338.52,724.16 484.19,296.83 971.25,295.21 630.24,669.68 -112.72,-7.55 -111.53,7.3 -158.47,-87.69 -7.61,118.33 25.65,184.8 -44,283.66 -340.83,46 -412.29,-388.89 -640.97,-503.79 -5.3,5.62 -7.48,16.48 -51.24,50.99 -0.74,0.57 -60.6,42.01 -62.34,42.88 -271.18,130.19 7.67,-190.29 -365.67,271.12l263.68 -14.23c-53.29,431.39 -379.15,386.51 -215.81,632.23 305.5,-116.9 133.62,-245.4 508.09,-317.37 109.34,-224.99 154.65,-132.31 414.91,-113.52 1008.07,72.83 207.64,-750.69 529.38,-1006.14 162.39,21.41 43.31,-10.92 125.51,109.53 76.51,112.16 5.36,47.75 128.25,106.04 -28.77,203.65 -24.15,157.09 35.51,314.55 51.49,193.85 110.85,128.76 184.06,119.21 146.85,-19.16 -39.88,-66.34 191.41,51.24 126.82,64.47 313.87,86.07 430.96,40.76 138.99,-53.8 83.94,-47.56 111.84,-83.14 -130.63,-35.57 -606.33,102.23 -597.59,-708.37 2.18,-202.21 -9.37,-186.98 148.22,-269.31l162.83 247.28c15.92,-184.3 -20.65,-342.58 -91.62,-487.56 -111.34,-227.37 -149.47,-121.83 -86.37,-401.31 198.15,-4.74 315.55,134.62 527.25,345.7 84.88,84.69 337.21,361.61 378.09,462.16 -72.34,252.33 -282.6,403.37 -598.65,422.59 -141.8,-157.65 -96.18,-138.56 -190.67,-135.19 22.09,403.68 868.89,319.3 879.5,-428.33 -90.3,-165.01 -242.28,-231.98 -332.03,-358.05 157.34,4.8 96.68,-1.69 204.4,52.49 176,88.37 312.87,37.26 379.65,364.79 45.63,223.75 -212.63,436.7 -311.06,610.39 311.13,-68.84 246.34,-117.27 642.97,-99.74 -73.65,-118.08 -83.57,-45.87 -102.42,-219.68 253.02,-12.05 65.97,9.54 246.21,85.62 12.74,-27.27 -3.99,0.57 8.55,-45.43l26.72 -78.08c287.28,71.53 254.95,10.67 458.29,-94.86 146.66,51.74 113.34,100.67 238.35,120.95 58.41,-257.39 -53.18,-80.64 -127.82,-297.7 146.04,11.29 165.7,79.51 207.45,206.64l79.14 237.23c42.88,72.27 35.33,48.87 61.1,69.77 77.33,-85.25 74.52,-94.55 74.52,-242.15 239.41,-38.14 145.92,43.37 342.08,115.02 184.86,67.59 567.2,81.2 873.89,564.39 -175.44,5.06 -165.96,4.06 -311.44,-35.89 -201.34,-55.29 -72.83,-15.97 -224.24,14.3 131.75,100.35 400.99,3.49 551.28,133.24 -359.3,316.99 -630.29,583.55 -846.49,270.68 -74.27,-107.47 -89.93,-279.23 -87.38,-441.12 104.61,-50.74 32.4,-16.48 156.41,-28.21 -8.55,-8.93 -21.47,-36.2 -24.72,-27.59 -2.62,6.87 -16.35,-18.53 -19.47,-22.03 -3.68,-4.18 -10.98,-13.98 -19.22,-22.34 -327.41,190.54 -83.38,862.09 384.58,745.01 172.25,-43.07 141.74,-116.71 384.02,-110.6 63.72,188.55 -38.7,193.48 271.92,214.57 38.7,-529.37 77.96,-447.36 -40.87,-609.88 -50.5,-68.97 -50.56,34.95 -49.37,-150.23 203.33,73.15 239.72,201.53 364.04,223.93 32.96,-172.94 -37.88,-285.72 -79.07,-415.78 -119.14,-38.07 -90.31,-52.24 -196.91,-114.9l-114.77 151.16c-67.6,-77.58 -226.37,-350.32 -287.91,-381.4 -122.83,-62.1 -79.01,57.67 -206.52,-45.37 -166.51,-134.62 60.73,-121.7 -161.02,-194.66 -295.96,-25.28 -188.61,-56.55 -371.29,-189.3 -96.24,-69.9 -111.65,-45.06 -186.17,-96.61 -92.56,-64.1 -79.95,-133.19 -106.98,-170.07 -162.45,176.31 -340.64,50.43 -491.86,-47.19 -77.89,127.26 17.29,57.17 -105.79,134.56 -123.7,-68.03 -92.06,-84 -178.62,-159.46 21.03,-133.68 -19.29,-41 87.25,-142.48 -338.9,7.17 -280.35,177.81 -520.01,252.2l-91.25 -157.03c-199.59,-223.93 -96.61,-182.68 -290.78,-259 -128.44,-50.43 -99.23,-27.59 -150.16,-97.99 249.02,-9.18 222.25,53.11 455.54,-40.76 -7.3,-195.78 -168.44,-405.48 -349.94,-420.21l57.11 285.09 -239.66 24.53c0,-226.43 55.79,-318.42 -38.82,-515.02 -191.54,-19.47 -414.35,92.49 -538.61,167.82z"/>
   <path class="fil8" d="M13125.58 9193.6c-146.23,690.9 -161.53,122.33 -460.91,773.09l-306.44 -37.38c-29.96,247.34 -55.18,175 1.99,426.71 -308.56,165.14 -264.44,-8.68 -337.27,140.99 8.55,-2.25 22.47,-11.49 26.4,-2.5 3.93,8.92 20.91,-1.75 26.21,-1.31 369.29,27.58 -52.92,34.45 248.46,4.74l95.49 -0.81c84.2,39.88 695.89,1143.26 705.38,1373.74 -65.84,-145.48 -99.17,-142.3 -35.26,-316.74 208.95,-68.77 140.05,-70.58 228.17,63.1 40.95,62.16 55.61,140.18 51.56,235.17 5.74,-4.49 12.73,-21.66 14.79,-16.04 8.74,23.78 -6.12,-35.76 67.34,-45.31 155.47,-20.16 41.69,61.6 214.13,280.29 86.51,109.72 287.16,342.64 187.8,480.69l236.6 90.94c-39,-159.53 -326.1,-354.5 -36.63,-329.16 -113.9,-192.67 -522.14,-525.63 -474.77,-692.33 26.78,-94 194.35,-318.37 248.53,-387.52 267.99,-342.14 170.94,-179.37 315.42,-243.72 -46.43,-76.89 -64.03,-82.44 -65.97,-206.39 288.53,-13.73 306.01,126.69 443.38,257.57 477.2,454.36 153.9,245.72 235.1,362.93 83.38,111.03 138.06,136.12 284.97,196.72 -68.65,-172.88 -185.98,-333.22 -299.2,-466.53l-94.99 -109.41c-4.37,-5.36 -11.11,-13.23 -15.48,-18.78 -149.22,-189.86 -221,-210.77 -269.49,-297.96l48.99 -132.37c152.47,14.17 3,13.17 86.19,26.52 80.33,12.92 46.25,-3.99 122.77,-21.65 7.74,-1.75 17.72,-5.56 25.9,-6.93 102.48,-17.29 117.71,9.86 233.98,19.35 -353.88,-251.52 -339.46,-272.99 -192.73,-441.82 55.98,-64.4 79.01,47.62 53.18,-105.72 -33.96,-201.78 -672.24,-72.65 -274.93,-522.7 325.23,28.77 746.26,585.17 1106.37,695.95 -84.75,-106.91 -78.01,-67.21 -133.24,-180.87l610.32 220.57c-195.35,-213.95 -955.84,-361.05 -969.38,-627.05 278.92,-36.89 390.45,197.91 637.29,280.04 -41.63,-58.98 -10.93,-21.91 -59.42,-71.21 -3.24,-3.31 -68.4,-60.6 -79.82,-69.4l-422.84 -324.11c-29.71,-218.44 104.29,-592.66 187.92,-741.76l565.39 14.67c-433.45,-284.91 -850.92,137.49 -1290.93,236.41 -420.59,94.49 -1040.34,218.38 -1490.32,237.29z"/>
   <path class="fil9" d="M12674.84 5659.73c41.19,130.06 112.03,242.84 79.07,415.78 -124.32,-22.4 -160.71,-150.78 -364.04,-223.93 -1.19,185.18 -1.13,81.26 49.37,150.23 118.83,162.52 79.57,80.51 40.87,609.88 -310.62,-21.09 -208.2,-26.02 -271.92,-214.57 -242.28,-6.11 -211.77,67.53 -384.02,110.6 -467.96,117.08 -711.99,-554.47 -384.58,-745.01l94.24 -56.61c7.36,-4.74 19.28,-13.54 25.59,-17.72 6.43,-4.31 17.91,-11.74 26.27,-18.42 -220.75,-470.83 -634.72,-194.53 -624.74,208.02 8.43,339.52 141.18,539.24 345.26,760.67 209.08,226.81 597.78,224.56 872.46,183.43l51.42 284.48c130.88,-70.47 133.25,-130.26 219.44,-115.72 167.77,28.4 22.97,-7.61 80.76,53.24 -50.67,43.13 -947.59,322.42 -744.75,976.68 42.31,136.62 47.3,115.96 140.61,144.73 109.22,-150.35 21.78,-293.89 71.96,-461.53 70.9,-236.54 590.41,-322.61 590.66,-322.67 135,-51.3 201.91,-171.38 317.05,-224.43 99.49,198.78 105.29,312.81 87.57,564.32 211.89,17.85 809.66,103.73 1058.69,-29.7 55.23,-141.49 113.9,-171.88 153.97,-295.02 -143.74,-192.29 -230.55,-344.27 -251.52,-669.49 -16.23,-251.71 -64.1,-190.36 -98.49,-354.25 -33.08,-157.78 15.79,-284.22 -40.5,-420.91l-23.1 220.57c-107.03,-170.89 23.41,-67.28 -137.99,-186.74 -105.29,-77.83 -62.16,-20.66 -145.73,-135.18 -83.88,-114.96 -151.47,-233.05 -230.36,-370.6 -47.31,-82.45 -75.14,-126.32 -102.42,-211.83 -16.41,-51.36 -14.91,-63.53 -27.08,-103.6 -30.27,-99.11 2.12,-5.74 -37.08,-99.42 -84.07,-200.72 -95.49,-304.95 -233.85,-415.85 -224.81,102.92 -241.54,188.98 -244.78,448.49 -3.06,247.46 10.67,130.13 201.4,298.58 -40.69,109.97 -73.96,173.63 -159.71,263.5z"/>
   <path class="fil8" d="M4242.15 9165.52c-212.13,132.81 -425.46,225.61 -677.04,340.64 -232.86,106.47 -508.47,221.25 -621.74,398.5 252.27,-12.92 1000.77,-153.97 1203.29,-242.85 219.32,-96.24 529.25,-333.28 737.27,-363.55 211.14,-30.76 177.5,0.75 233.42,141.74 -184.67,228.3 -591.29,77.33 -999.96,405.86l371.35 -134.24c59.29,134.56 102.36,151.47 142.36,303.01 -114.96,99.92 -163.39,152.84 -243.34,267.12l414.1 -193.35c100.73,405.98 -169.32,320.23 -143.55,481.88 35.33,17.04 3.94,23.96 68.22,10.61 134.56,-28.03 56.05,-90.56 241.35,-140.49 -43.63,270.74 -670.62,510.34 -797.5,875.01 133.19,-68.09 206.4,-176.06 304.07,-268.12 107.1,-100.86 192.85,-166.33 298.45,-266.44 149.98,-142.36 504.29,-490.93 722.48,-270.05 -145.11,298.14 -1018.87,563.45 -1216.65,903.78 217,-90.5 816.97,-607.95 1073.17,-542.67 99.6,25.4 362.79,306.94 359.99,433.64l-247.34 484.06c-19.66,18.23 -6.43,-6.49 -59.11,46.25l26.09 188.05c32.46,-32.52 21.53,-17.73 57.23,-65.72 148.67,-199.72 167.08,-445.44 445,-500.05 20.28,274.3 -304.94,435.14 -387.83,690.15 173.82,-125.94 650.64,-592.53 788.39,-795.25 136.87,-201.46 564.57,-805.04 459.85,-1082.21 -220.19,111.4 -28.96,185.67 -273.49,387.82 -154.72,-194.66 -473.64,-603.14 -593.47,-830.76l-28.96 -51.55c-107.48,44.12 -148.04,76.39 -234.05,143.48l-97.23 -164.76c111.71,-110.6 178.62,-57.42 190.41,-247.84 -220.25,74.77 -628.29,262.94 -813.22,423.21 -136.31,118.09 -82.45,156.41 -240.78,98.55 58.35,-91 107.16,-117.08 192.79,-179.37 362.17,-263.63 -63.35,-121.95 494.86,-275.36 129.94,-35.7 189.04,-99.8 262.06,-163.33l-101.66 -393.32c-390.95,-77.83 -940.55,-130.88 -1226.14,-329.78 26.83,-388.52 131.37,-306.57 -107.85,-572.38 70.65,348.88 110.28,135.56 -33.52,494.36 -77.76,194.1 41.2,352.5 58.23,555.72z"/>
   <path class="fil10" d="M9460.14 10393.84c355.25,100.11 374.1,-31.83 667.87,-72.71 -12.48,177 -22.66,99.92 -137.5,206.21 62.48,115.77 153.72,227.11 290.78,244.34 268.87,33.7 202.15,-217.13 180.81,-397.81 -16.6,-140.55 -6.74,-170.64 -85.51,-264.63 -2.56,-3.06 -11.36,-11.17 -13.42,-13.42 -1.93,-2.18 -10.85,-6.99 -12.85,-12.6 92.43,-139.06 83.13,-98.61 284.6,-173.01 308.68,-113.96 905.65,-37.07 1158.6,150.1 34.39,351.75 -56.35,152.47 -148.47,298.52 -78.58,124.63 -7.49,97.23 -1.06,104.85 -63.1,-185.18 -19.48,-224.43 -129.01,-327.35 -115.21,121.64 -35.89,684.15 23.41,809.29 113.15,-29.77 158.77,-34.89 272.3,-180.18 77.51,-99.3 145.73,-164.14 212.26,-268.43 72.83,-149.67 28.71,24.15 337.27,-140.99 -57.17,-251.71 -31.95,-179.37 -1.99,-426.71l306.44 37.38c299.38,-650.76 314.68,-82.19 460.91,-773.09 -419.41,16.48 -1213.22,49.56 -1528.15,369.48 -143.42,145.67 80.13,47.62 -104.29,124.13l-99.55 99.18 -111.59 -78.64 -93.74 0.75c-36.64,-19.04 -33.77,-46.38 -108.1,-94.81 -313.87,178.75 97.61,24.91 -798.62,-45.56 91.12,-250.52 783.83,-3.62 432.51,-286.22 -69.09,-55.54 -121.45,-61.41 -135.43,-174.87 -4.62,-37.76 18.66,-703.76 636.85,-358 173.19,96.93 239.16,176.75 463.78,232.74 -53.86,-277.11 -106.54,-298.39 -318.74,-398.57 -600.21,-283.22 -722.41,22.41 -890.92,176.32 -212.7,194.22 -146.55,200.65 -175.57,493.67 -104.47,68.41 -181.3,110.35 -245.71,214.89 -116.77,189.42 -6.12,204.64 30.95,234.79 7.06,5.74 19.35,13.98 25.47,18.66 6.36,4.93 19.28,11.05 26.52,19.16 -156.09,181.31 -93.3,184.74 -323.04,331.34 -144.3,92.06 -273.11,173.01 -348.07,321.8z"/>
   <path class="fil11" d="M7021.84 6978.42c460.98,500.55 -43.56,1330.25 -312.8,1437.41l-107.85 -209.02c148.54,-176.75 414.47,-275.24 469.33,-519.51 74.34,-331.66 -69.46,-540.61 -396.56,-479.89l255.2 108.66c-62.78,150.73 -56.29,51.8 -112.71,186.05 83.25,210.95 94.99,210.76 -17.17,407.3 -154.84,30.39 -556.71,-52.18 -716.42,-92.31 -9.8,260.32 -82.01,370.73 -71.21,687.65 201.59,-15.97 32.89,11.36 101.92,-51.3 -37.76,-118.96 -62.91,-135.81 -3.69,-249.9 66.85,-19.41 100.3,11.61 166.71,47.56 16.6,76.21 -0.32,427.58 160.08,463.22l33.89 -3.06c6.37,-1.74 35.01,-27.21 44.81,-33.7 39.88,170.38 124.33,404.62 193.92,549.54 84.44,175.87 284.72,252.64 477.2,282.47 94.61,-431.83 421.77,-917.95 721.1,-1053.63 170.82,85.13 145.29,238.91 376.84,198.59 -6.86,-226.24 -177.37,-346.51 -375.09,-274.86 -179.12,64.97 -250.96,214.01 -488.87,216.01 2.18,-333.72 252.26,-480.14 589.1,-489l88.87 -299.07c-260.38,51.61 -228.55,219.43 -518.7,230.86 -85.75,-140.56 -200.65,-332.28 -179.06,-584.99 205.09,-30.71 250.02,68.28 444.68,-49.74 51,-130 -2.8,-207.14 56.11,-370.54 40.82,-113.15 123.64,-179.56 -64.41,-224.24 -196.84,204.46 -47.43,232.42 -120.2,492.3 -156.09,24.9 -195.16,8.99 -197.72,-186.3 -1.69,-128.82 53.86,-213.07 69.9,-348.82 -238.29,7.49 -41.32,62.6 -332.72,49.49 -257.51,-11.6 -85.87,111.41 -234.48,162.77z"/>
   <path class="fil12" d="M9742.99 4499.18l91.25 157.03c239.66,-74.39 181.11,-245.03 520.01,-252.2 -106.54,101.48 -66.22,8.8 -87.25,142.48 86.56,75.46 54.92,91.43 178.62,159.46 123.08,-77.39 27.9,-7.3 105.79,-134.56 151.22,97.62 329.41,223.5 491.86,47.19 27.03,36.88 14.42,105.97 106.98,170.07 74.52,51.55 89.93,26.71 186.17,96.61 182.68,132.75 75.33,164.02 371.29,189.3 -62.35,-128.63 -193.98,-368.73 -114.96,-545.17 60.35,-134.75 263.12,-267.87 458.16,-289.53l148.04 277.74c211.01,-37.83 344.89,-137 361.36,-327.42l-396.12 -162.14 -27.84 -212.45c105.85,39.07 152.1,83.76 245.53,123.57 -25.53,-231.17 -246.4,-33.89 -377.03,-428.02 -63.1,-190.35 -58.73,-153.65 -184.8,-240.9 -104.85,-72.59 -158.84,-115.53 -325.66,-111.66 -71.15,213.2 -76.27,234.36 -36.7,478.45 264.81,-1.87 438.13,-145.05 609.14,107.16 -151.67,104.79 -301.95,133.06 -460.91,232.42 -211.58,132.31 27.33,106.66 -237.54,109.22 -158.72,1.56 -100.92,-42.75 -241.29,62.54 77.96,80.82 109.04,84.38 195.41,140.61 -269.8,33.02 -140.36,-99.61 -368.72,-119.39 -15.48,132.81 21.22,156.28 59.91,240.78 -152.84,-45.25 -518.83,-377.59 -647.33,-481.63 66.53,-157.96 5.99,-33.51 107.91,-153.34l-170.51 -72.59 208.7 -79.64 -17.72 -248.52 509.53 127.13 167.88 -399.12 -195.97 -110.66c-71.02,-22.9 -157.4,-37.19 -247.9,-33.45 -176.12,7.3 -287.09,83.63 -402.8,160.21 150.35,90.62 80.07,2.56 130,125.26 -44.56,21.97 -150.72,78.77 -176.62,110.78 -39.01,48.25 -56.86,6.49 35.07,101.67l54.42 48.43c-278.16,-43.43 -485.43,-253.82 -714.48,-212.88 -50.37,247.71 13.04,374.65 112.15,505.1 189.73,-91.94 44,-140.99 290.03,-200.1 129.94,101.24 155.34,148.11 149.04,381.78 -109.1,114.08 -205.4,147.35 -306.26,232.04 -177.31,148.92 63.97,178.87 -155.84,288.34z"/>
   <path class="fil6" d="M7186.49 9509.59c-85.63,198.28 -38.2,94.12 -184.81,130.19l544.98 509.47c164.39,-31.27 227.12,-129.26 373.41,-169.33 166.83,-45.62 302.82,28.03 427.08,45.63l194.23 -47.87c-146.86,-61.29 -315.62,-140.93 -526.38,-152.1 -219.31,-11.67 -491.49,48.12 -642.09,-68.53 11.73,-142.17 19.22,-117.08 111.47,-172.75 162.02,-325.1 335.65,-374.72 776.21,-457.85 16.35,-54.24 22.16,-103.36 40.19,-172.82l70.59 -158.28c36.07,79.7 58.42,136.93 71.96,252.08 1.56,207.4 -15.66,243.28 148.04,319.36 131.63,-289.21 -31.83,-567.07 -143.48,-749.94 -156.78,-256.76 -255.39,-321.35 -438.32,-510.15 -336.84,8.86 -586.92,155.28 -589.1,489 237.91,-2 309.75,-151.04 488.87,-216.01 197.72,-71.65 368.23,48.62 375.09,274.86 -231.55,40.32 -206.02,-113.46 -376.84,-198.59 -299.33,135.68 -626.49,621.8 -721.1,1053.63z"/>
   <path class="fil12" d="M10022.59 5831.73l-24.71 -107.03c-1.81,-5.24 -5.43,-18.1 -10.49,-25.9 -977.24,128 -795.87,957.39 -677.91,1072.04 98.24,95.37 471.77,308.32 728.28,156.84 256.89,-151.78 495.67,-258.57 500.73,-480.32 4.8,-211.32 -32.52,-411.48 -116.4,-548.03 -134.62,-219.26 -201.78,-154.41 -399.5,-67.6z"/>
   <path class="fil5" d="M8763.88 5882.41l471.95 -282.72c98.43,-173.69 356.69,-386.64 311.06,-610.39 -66.78,-327.53 -203.65,-276.42 -379.65,-364.79 -107.72,-54.18 -47.06,-47.69 -204.4,-52.49 89.75,126.07 241.73,193.04 332.03,358.05 -10.61,747.63 -857.41,832.01 -879.5,428.33 94.49,-3.37 48.87,-22.46 190.67,135.19 316.05,-19.22 526.31,-170.26 598.65,-422.59 -40.88,-100.55 -293.21,-377.47 -378.09,-462.16 -211.7,-211.08 -329.1,-350.44 -527.25,-345.7 -63.1,279.48 -24.97,173.94 86.37,401.31 70.97,144.98 107.54,303.26 91.62,487.56l-162.83 -247.28c-157.59,82.33 -146.04,67.1 -148.22,269.31 -8.74,810.6 466.96,672.8 597.59,708.37z"/>
   <path class="fil13" d="M6011.65 8504.76c70.59,204.71 14.04,313.93 227.36,796.5 161.15,364.73 283.66,380.03 493.18,611.39 155.97,172.25 443.06,290.15 786.32,301.51 369.04,12.23 672.99,103.54 828.64,-188.61 -124.26,-17.6 -260.25,-91.25 -427.08,-45.63 -146.29,40.07 -209.02,138.06 -373.41,169.33l-544.98 -509.47c146.61,-36.07 99.18,68.09 184.81,-130.19 -192.48,-29.83 -392.76,-106.6 -477.2,-282.47 -69.59,-144.92 -154.04,-379.16 -193.92,-549.54 -9.8,6.49 -38.44,31.96 -44.81,33.7l-33.89 3.06c-160.4,-35.64 -143.48,-387.01 -160.08,-463.22 -66.41,-35.95 -99.86,-66.97 -166.71,-47.56 -59.22,114.09 -34.07,130.94 3.69,249.9 -69.03,62.66 99.67,35.33 -101.92,51.3z"/>
   <path class="fil9" d="M7087.06 4592.24l121.02 -34.58c150.22,-29.77 520.45,-387.57 946.53,-501.79 79.77,-21.34 92.56,-38.25 175.94,-61.53 73.71,161.52 3.44,90.62 166.2,139.74 45.19,-129.76 -2.37,-132.01 10.05,-169.51 157.47,91.43 722.29,511.46 703.57,89.81 -1.5,-34.21 -27.96,-86.13 -37.26,-100.86 -179,-282.73 -552.59,-98.99 -525.44,-309.88 -364.3,-68.27 68.4,-137.24 -574.07,11.55 -958.7,222.12 -626.73,515.4 -909.83,500.23 -7.62,-0.44 -43.5,-84.32 -103.29,96.11 -29.28,88.5 -54.99,201.59 -85.38,290.97l111.96 49.74z"/>
   <path class="fil8" d="M5644.98 7573.52l-175.69 168.95 613.57 74.64c159.71,40.13 561.58,122.7 716.42,92.31 112.16,-196.54 100.42,-196.35 17.17,-407.3 56.42,-134.25 49.93,-35.32 112.71,-186.05l-255.2 -108.66c327.1,-60.72 470.9,148.23 396.56,479.89 -54.86,244.27 -320.79,342.76 -469.33,519.51l107.85 209.02c269.24,-107.16 773.78,-936.86 312.8,-1437.41 -267.06,-105.97 -396.37,272.74 -577.68,365.11 -110.34,56.17 -646.46,203.4 -799.18,229.99z"/>
   <path class="fil9" d="M5791.65 7113.05c89.93,-69.84 245.84,-339.65 312.31,-451.8 -163.34,-245.72 162.52,-200.84 215.81,-632.23l-263.68 14.23c373.34,-461.41 94.49,-140.93 365.67,-271.12 1.74,-0.87 61.6,-42.31 62.34,-42.88 43.76,-34.51 45.94,-45.37 51.24,-50.99 -613.19,-490.11 -575.74,223 -906.65,590.67 28.65,208.2 231.36,387.82 -12.42,498.92 -105.54,-164.96 1.56,-163.08 -67.47,-327.29 -183.17,21.97 -63.41,452.92 17.29,583.24 8.55,-28.09 27.84,-78.7 53.93,-113.53 83.88,-112.15 4.74,-46.56 82.5,-66.22 91.81,82.51 81.45,97.93 89.13,269z"/>
   <path class="fil13" d="M10197.85 11160.69l75.45 208.14c-128.32,57.42 -315.36,126.82 -409.48,-13.1 -3.75,4.05 -6.99,7.67 -7.18,14.79 -5.49,202.09 85.26,17.72 10.99,197.41 243.34,20.53 552.09,-114.65 755.74,-190.17 352.37,-130.75 480.69,119.2 786.14,-154.03 -199.85,-129.26 -186.43,-349.26 -361.8,-550.85 -71.47,-82.13 -68.22,-59.04 -143.8,-155.34 -154.59,175.44 -176.81,215.44 -261.01,472.7l204.46 166.02 -649.51 4.43z"/>
   <path class="fil10" d="M7484.38 9584.3c-92.25,55.67 -99.74,30.58 -111.47,172.75 150.6,116.65 422.78,56.86 642.09,68.53 210.76,11.17 379.52,90.81 526.38,152.1 137.8,-101.8 338.58,-224.18 392.69,-396.75l-423.21 -88.44c45.19,-65.41 47.62,-74.77 80.51,-125.7 -163.7,-76.08 -146.48,-111.96 -148.04,-319.36 -44.94,64.16 -127.94,180.31 -145.17,259.2 -23.96,109.66 -1,73.27 -3.24,167.95l-26.97 157.77c-225.55,69.22 -569.13,19.6 -783.57,-48.05z"/>
   <path class="fil9" d="M12139.22 4852.5c-226.43,-99.92 -164.2,-59.3 -78.14,-489.19 -485.43,351.38 -96.86,1034.04 477.26,967.2 -271.24,-377.22 -162.39,-253.46 -20.78,-477.51 137.31,-217.26 -25.4,-228.62 209.27,-330.79 163.45,-71.15 56.11,0.13 91.43,-68.15 111.72,-216.13 -88.62,-61.91 155.53,-193.41 -227.99,-166.02 -731.28,529.06 -834.57,591.85z"/>
   <path class="fil14" d="M13794.44 9635.1c-253.45,-16.1 -108.41,-60.41 -274.42,-166.64 11.48,-40.38 55.67,-76.58 -136,53.8 -83.63,56.86 -78.32,62.79 -118.08,164.33l1217.4 742.45c-3.49,-293.96 -197.09,-172.19 -402.18,-428.21 -196.6,-245.4 -331.41,7.74 -208.2,-302.94 122.32,13.66 149.28,128.25 233.41,-14.61 58.73,-99.79 41.7,-230.48 -8.05,-334.59 -397.18,-73.21 -291.15,106.67 -300.51,260.45 -0.31,5.68 -0.75,17.66 -3.37,25.96z"/>
   <path class="fil5" d="M13158.72 8311.47c-179.19,-237.16 -346.39,-42.87 -507.6,-441.62 -46.37,-114.65 -61.16,-257.7 -140.61,-319.8 -288.72,-225.74 -720.36,396.25 -141.99,601.34 212.64,75.39 555.47,145.92 790.2,160.08z"/>
   <path class="fil8" d="M9105.14 8592.95c195.6,-20.97 266.75,-158.15 438.07,-266.37 190.98,-120.64 290.59,-156.47 267.87,-450.49 -96.42,-70.4 -417.66,-322.11 -553.84,-9.67 -24.28,55.61 -150.85,660.31 -152.1,726.53z"/>
   <path class="fil8" d="M11282 9707.75l111.59 78.64 99.55 -99.18c-174.63,-218.06 -71.4,-497.1 -178.5,-727.59 -159.9,-344.08 -452.48,-88.87 -577.37,61.23 135.18,225.36 393.01,457.22 544.73,686.9z"/>
   <path class="fil7" d="M13566.7 5636.26c158.65,-23.53 210.45,-101.42 326.54,-185.17 112.71,-81.26 182.43,-152.97 291.4,-235.8 164.95,-125.44 439.88,-351.37 556.09,-490.86 -141.99,30.08 -267.5,101.29 -392.45,160.52 -784.82,372.1 -1112.49,212.45 -781.58,751.31z"/>
   <path class="fil15" d="M7484.38 9584.3c214.44,67.65 558.02,117.27 783.57,48.05l26.97 -157.77c2.24,-94.68 -20.72,-58.29 3.24,-167.95 17.23,-78.89 100.23,-195.04 145.17,-259.2 -13.54,-115.15 -35.89,-172.38 -71.96,-252.08l-70.59 158.28c-18.03,69.46 -23.84,118.58 -40.19,172.82 -440.56,83.13 -614.19,132.75 -776.21,457.85z"/>
   <path class="fil5" d="M6612.05 6343.88c254.2,99.93 594.28,187.86 804.73,-2.49 93.43,-84.51 148.36,-161.96 201.22,-292.96 74.52,-184.55 70.84,-258.82 227.61,-294.09 -59.66,-157.46 -64.28,-110.9 -35.51,-314.55 -122.89,-58.29 -51.74,6.12 -128.25,-106.04 -82.2,-120.45 36.88,-88.12 -125.51,-109.53 -321.74,255.45 478.69,1078.97 -529.38,1006.14 -260.26,-18.79 -305.57,-111.47 -414.91,113.52z"/>
   <path class="fil15" d="M11963.1 11624.47c95.55,293.96 680.6,1477.47 833.13,1589.25 -38.82,-308 -199.41,-497.86 -278.11,-808.6 -72.14,-285.04 -112.96,-616.44 -239.47,-864.97 -104.85,10.11 -271.18,26.22 -315.55,84.32z"/>
   <path class="fil5" d="M11729.18 5900.08c-134.19,0.99 -118.33,-3.94 -226.18,-65.41 -124.01,11.73 -51.8,-22.53 -156.41,28.21 -2.55,161.89 13.11,333.65 87.38,441.12 216.2,312.87 487.19,46.31 846.49,-270.68 -150.29,-129.75 -419.53,-32.89 -551.28,-133.24z"/>
   <path class="fil16" d="M9071.25 8276.65c-18.03,-203.21 -50.49,-555.47 127.14,-685.34 216.88,-66.22 479.38,6.05 598.65,135.43 149.91,162.71 80.07,401.18 190.35,573.87 449.87,-479.69 -727.09,-1345.22 -1072.35,-565.07 -112.84,254.95 -121.39,498.98 156.21,541.11z"/>
   <path class="fil17" d="M2815.42 8403.84c59.61,41.32 -42,28.21 116.21,39.26 165.33,11.48 595.79,-244.59 835.88,-95.36 -171.75,159.96 -442.81,-26.4 -658.75,142.92 335.52,18.35 734.77,21.72 1029.6,-59.6 17.04,-433.52 -223.68,-347.76 -581.3,-272.56 -330.22,69.47 -489.49,151.16 -741.64,245.34z"/>
   <path class="fil5" d="M9561.06 6088.75c4.62,1.12 12.48,-4.44 14.29,0.74 22.78,65.66 -28.14,-15.16 95.06,25.53 8.42,2.75 23.21,7.99 34.38,12.98 -48.8,189.55 -155.28,314.62 35.45,422.22 134.69,75.95 350.51,34.26 421.22,-70.71 134.19,-199.1 27.65,-342.83 -142.86,-410.49 -266.31,-105.66 -250.89,-140.55 -457.54,19.73z"/>
   <path class="fil7" d="M13424.4 4976.82c217.07,63.04 529.13,102.42 535.31,-176.13 -112.84,-66.9 -117.09,-34.82 -226.74,-13.79 -21.04,-113.65 -27.9,-168.14 -79.52,-239.97 -202.09,33.76 -179.3,-21.6 -229.05,429.89z"/>
   <path class="fil14" d="M9107.27 11275.84l-254.46 -0.44c158.84,132.44 275.36,268.69 566.39,279.3 33.51,-263.19 13.92,-349.01 -103.23,-522.7 -121.83,60.91 -163.14,107.22 -208.7,243.84z"/>
   <path class="fil7" d="M14602.24 7255.47c53.61,164.77 94.05,181.43 249.77,252.89l57.98 -53.36c4.43,-4.87 12.35,-13.61 16.97,-19.1 122.14,-145.04 116.28,-232.73 100.05,-396.56 -217.38,4.68 -335.84,49.99 -424.77,216.13z"/>
   <path class="fil4" d="M9863.82 11355.73c94.12,139.92 281.16,70.52 409.48,13.1l-75.45 -208.14c-78.27,-91.18 -123.89,-162.21 -238.98,-250.21 -34.45,158.53 -96.3,285.16 -95.05,445.25z"/>
   <path class="fil18" d="M13398.5 10354.02c99.8,-46.68 64.97,-6.05 131.88,-105.66l50.8 35.95c60.85,33.45 -22.84,-0.38 72.34,34.26l133.68 -136.06c-45.5,-151.97 -110.53,-203.52 -305,-210.2l-83.7 381.71z"/>
  </g>
 </g>
</svg>
