<?xml version="1.0" encoding="UTF-8"?>
<!DOCTYPE svg PUBLIC "-//W3C//DTD SVG 1.1//EN" "http://www.w3.org/Graphics/SVG/1.1/DTD/svg11.dtd">
<!-- Creator: CorelDRAW 2017 -->
<svg xmlns="http://www.w3.org/2000/svg" xml:space="preserve" width="200mm" height="200mm" version="1.1" style="shape-rendering:geometricPrecision; text-rendering:geometricPrecision; image-rendering:optimizeQuality; fill-rule:evenodd; clip-rule:evenodd"
viewBox="0 0 20000 20000"
 xmlns:xlink="http://www.w3.org/1999/xlink">
 <defs>
  <style type="text/css">
   <![CDATA[
    .fil1 {fill:#56C6D7}
    .fil0 {fill:#18BAC2}
   ]]>
  </style>
 </defs>
 <g id="Capa_x0020_1">
  <metadata id="CorelCorpID_0Corel-Layer"/>
  <g id="_2850310870480">
   <path class="fil0" d="M6783.2 15168.34c121.51,65.17 560.28,453.37 687.62,560.26l473.79 422.11c12.68,9.73 84.54,49.59 95.75,61.89 125.73,137.88 26.4,91.06 -3.41,113.22 -16.21,-4.09 -463.82,66.55 -560.94,81.38l23.11 1809.08c53.34,42.13 21.3,-3.11 42.23,78.42l24.02 1295.47c251.22,67.27 866.26,53.95 990.41,115.82l35.79 28.18 2823.53 265.83c35.62,-136.97 -81.87,-735.26 -112.79,-857.27 -119.59,-471.98 -261.03,-1756.06 -361.19,-2122.78l-1189.74 -7310.94c-96.6,-586.67 -165.41,-1183.54 -278.68,-1713.04 -67.54,-315.67 -215.39,-1568.41 -283.38,-1721.86 -180.44,-22.17 -2686.9,-44.32 -2694.08,28.96 -0.92,9.43 -6.45,13.23 -7.57,17.6l-10.13 188.2c2.95,86.55 11.19,162.94 17.87,229.51 16.15,160.99 13.9,353.3 17.9,517.84 8.7,356.97 44.74,612.71 62.76,946.56 34.49,639.31 93.87,1306.58 106.21,1943.95 12.54,647.7 83.82,1288.99 113.21,1918.96 25.37,543.76 114.11,1469.11 100.73,1943.14 -104.43,-70.96 -400.45,-585.28 -485.66,-735.32 -137.47,-242.08 -333.51,-492.62 -470.41,-745.35 -141.59,21.22 -420.28,236.12 -549.72,319.52 -171.26,110.31 -343.15,228.92 -525.57,338.76 -13.47,100.24 104.13,336.78 156.66,433.8l402.99 817.82c180.28,375.71 942.91,1976.09 1025.72,2065.14l880.73 -144.2c-16.64,-218.21 -651.7,-1052.15 -679.49,-1279.07 78.95,13.12 100.49,31.28 131.73,88.41z"/>
   <path class="fil1" d="M13054.56 19502.69c-98.63,24.99 -134.77,67.15 -237.58,92.39 -8.79,-306.87 51.51,-524.23 46.7,-802.37l45.3 -43.37c31.39,-32.9 13.17,-9.81 41.8,-46.92l-87.51 -3.37c33.73,-81.47 686.27,-266.79 855.79,-324.69l454.36 -143.03c163.46,-37.85 329.29,-97.71 474.61,-154.22 -23.5,-183.65 -352.72,-610.57 -400.65,-828.55l95.07 40.9c1.7,-131.01 -0.95,-41.08 26.26,-77.66 157.23,-9.78 1083.55,-174.79 1282.93,-174.54 -63.21,38.46 -103.19,74.97 -127.06,164.24 95.42,-43.76 179.72,-116.09 195.48,-228.45l-636.14 94.72c24.31,-104.38 383.76,-542.15 468.03,-630.21l960.11 -1182.97c74.34,-93.63 143.72,-176.29 233.91,-288.29l177.01 -221.61c60.12,-91.16 26.6,40.84 46.56,-113.09l-820.08 -558.36c-160.22,-103.52 -733.95,-507.1 -868.4,-519.38 -238.26,497.23 -590.4,1169.3 -806.78,1655.35l-1089.88 2252.55c-92.72,195.57 -153.14,425.55 -360.34,477.87l-16.06 -65.58c-79.89,54.89 -2.72,-13.88 -52.91,50.01 -4.62,5.88 -28.59,53.32 -30.63,57.13 -34.24,-81.68 -9.87,-385.12 12.71,-476.43l121.44 -1602.77c0.9,-107.37 22.28,-423.65 44.3,-521.84l72.14 -1079.93c33.7,-279.2 141.26,-150.37 184.61,-398.2 -68.56,42.57 -49.06,77.19 -145.33,117.06 1.25,-349.32 41.13,-635.89 55.82,-983.15 12.89,-304.97 53.83,-658.46 73.99,-970.69 42.99,-665.98 83.05,-1287.2 134.16,-1941.12 48.62,-622.07 68.7,-1320.61 141.44,-1922.04l137.1 -1929.97c-212.83,-37.22 -4148.59,-22.36 -4247.56,8.42 -11.51,112.83 31.52,298.21 59.16,397.14l497.95 2987.32c92.62,566.46 169.95,1157.92 281.23,1713.3 112.12,559.49 175.74,1161.99 277.87,1720.4 86.14,471.13 274.5,1851.24 344.97,2148.01l78.69 410.75c96.16,606.06 303.61,2057.5 423.43,2565.38 59.66,252.92 231.25,1660.77 292.25,1728.28l170.43 11.06c71.99,-8.9 137.76,-14.34 209.31,-26.16 619.82,-102.31 595.77,13.33 874.57,-379.17 27.55,-38.78 6.51,-0.95 35.42,-54.15z"/>
   <path class="fil0" d="M9550.07 5949.89l4149.18 11.24c8.21,-183.27 -614.24,-1922.45 -725.03,-2239.99 -83.45,-239.14 -155.58,-515.53 -248.37,-751.89l-750.37 -2238.62c-26.86,-85.85 -216.15,-668.97 -271.16,-730.63 -4.31,4.9 -10.52,6.22 -12.29,15.24l-75.47 153.07c-23.12,71.98 -38.67,121.94 -62.67,190.12l-404.2 1110.27c-201.85,607.12 -503.32,1310.11 -663.17,1886.05 -33.23,119.75 -92.85,223.78 -138.21,351.52l-540.96 1500.89c-46.39,114.55 -250.4,648.64 -257.28,742.73z"/>
   <path class="fil1" d="M8591.57 19734.17l-35.79 -28.18c-124.15,-61.87 -739.19,-48.55 -990.41,-115.82l-24.02 -1295.47c-20.93,-81.53 11.11,-36.29 -42.23,-78.42 3.29,202.82 50.71,1257.13 -3.05,1345.38 -63.77,-34.43 -40.63,-39.11 -41.78,-143.22l-7.88 -600.81c-4.05,-256.22 6.98,-547.83 -13.5,-780.6 -44.46,-505.4 -22.56,-1061.1 -35.98,-1589.55 -84.45,-13.17 -834,92.65 -932.1,152.56l44.45 348.92c-190.22,-160.79 -1397.18,-2917.16 -1744.34,-3518.67l-82.68 -104.63c-142.83,41.71 -995.98,638.97 -1252.69,799.45 -72.06,45.05 -142.76,87.54 -214.99,136.33 -105.74,71.4 -152.14,90.06 -191.03,170.82 98.23,205.82 1771.1,2167.7 2106.59,2615.7 107.41,143.46 196.76,229.15 313.44,383.32 440.58,582.12 936.92,1116.8 1354.73,1686.74 41.63,56.77 199.19,205.44 306.73,364.21 146.75,216.65 324.27,150.56 818.4,197.72 225.11,21.49 444.79,52.44 668.13,54.22z"/>
   <path class="fil1" d="M6647.14 5963.1c469.47,3.73 2398.86,23.62 2567.08,-11.59 103.59,-221.72 153.98,-478.2 254.9,-709.25 96.6,-221.17 166.82,-476.06 255.02,-713.49 177.67,-478.37 349.32,-974.27 515.81,-1459.49l632.03 -1784.06c61.24,-146.08 88.07,-191.24 138.78,-351.26 71.3,-225.01 232.17,-542.89 256.34,-769.04 -133.09,52.24 -65.59,34.04 -179.39,170.21l-1004.54 1263.81c-206.03,269.69 -387.91,480.76 -575,719.46l-2584.53 3245.95c-70.17,89.59 -266.1,298.81 -276.5,398.75z"/>
   <path class="fil0" d="M13359.66 13902.02c-43.35,247.83 -150.91,119 -184.61,398.2l-72.14 1079.93c-22.02,98.19 -43.4,414.47 -44.3,521.84l-121.44 1602.77c-22.58,91.31 -46.95,394.75 -12.71,476.43 2.04,-3.81 26.01,-51.25 30.63,-57.13 50.19,-63.89 -26.98,4.88 52.91,-50.01 197.94,-359.48 349.54,-707.66 526.08,-1091.97 79.76,-173.64 201.64,-379.92 278.09,-535.09 90.96,-184.62 51.33,-156.01 191.19,-411.95 29.97,-54.82 47.23,-95.27 74.18,-148.96l806.95 -1658.96c53.18,-104.27 251.92,-488.82 256.49,-591.52 -139.98,-123.84 -980.37,-667.1 -1071.08,-676.93l-710.24 1143.35z"/>
   <path class="fil0" d="M2914.3 14255.43c104.66,-8.69 697.82,-431.37 839.28,-526.71 144.19,-97.17 280.22,-179.23 410.51,-263.09 148.66,-95.69 292.78,-161.55 411.08,-279.19 -27.85,-66.91 -1163.8,-855.04 -1244.91,-915.41l-1265.3 -902.83c0.64,260.78 498.81,1734.27 631.78,2155.17 37.17,117.7 60.61,258.14 103.39,377.56 39.14,109.22 68.15,268.65 114.17,354.5z"/>
   <path class="fil0" d="M15449.19 13410.68c55.63,93.47 56.11,66.5 185.01,153.81l623.24 399.94c148.85,97.08 712.01,501.99 830.54,523.61 62.75,-216.66 161.75,-474.74 215.67,-705.9l419.79 -1426.27c58.44,-155.61 198.02,-582.77 211.58,-747.9 -129.56,36.75 -227.07,139.85 -323.22,213.13l-932.83 662.13c-105.7,79.82 -1165.73,809.48 -1229.78,927.45z"/>
   <path class="fil1" d="M14250.12 12638.26c76.2,116.4 691.73,462.91 869.07,595.56 192.41,143.91 345.64,-52.73 483.51,-156 158.11,-118.47 319.17,-220.45 438.4,-310.5l1299.8 -939.17c92.72,-60.53 365.46,-234.81 396,-317.09l-1717.76 554.93c-166.53,52.3 -285.2,76.87 -461.19,126.02l-1307.83 446.25z"/>
   <path class="fil1" d="M5718.03 12414.01l-90.21 -53.65c-41.3,-19.05 -64.01,-24.3 -111.52,-38.1 -509.8,-148.02 -982.14,-329.26 -1478.6,-466.19l-825.97 -265.58c-164.23,-63.47 -706.77,-249.12 -880.42,-260 75.46,135.75 693.88,519.87 818.22,623.39l1245.5 898.09c438.02,325.8 272.71,275.46 900.49,-122.62l311.97 -207.34c82.1,-51.79 71.19,-23.85 110.54,-108z"/>
   <path class="fil0" d="M12950.78 18702.42c-28.63,37.11 -10.41,14.02 -41.8,46.92l-45.3 43.37c4.81,278.14 -55.49,495.5 -46.7,802.37 102.81,-25.24 138.95,-67.4 237.58,-92.39 88.72,0.68 1735.11,-743.42 1897.09,-824.27 -4.95,-122.36 -190.21,-447.12 -259.23,-516 -139.13,3.33 -1631.51,522.78 -1741.64,540z"/>
   <path class="fil0" d="M14342.45 17289.46c10.47,62.34 129.23,255.49 179.76,350.69 72.78,137.11 144.25,320.3 220.02,356.96 78.83,-33.24 341,-325.59 404.95,-394.33 77.04,-82.81 124.96,-134.9 195.06,-202.26l182.34 -199.02c23.87,-89.27 63.85,-125.78 127.06,-164.24 -199.38,-0.25 -1125.7,164.76 -1282.93,174.54 -27.21,36.58 -24.56,-53.35 -26.26,77.66z"/>
   <path class="fil1" d="M8036.95 16325.82c29.81,-22.16 129.14,24.66 3.41,-113.22 -11.21,-12.3 -83.07,-52.16 -95.75,-61.89l-473.79 -422.11c-127.34,-106.89 -566.11,-495.09 -687.62,-560.26 44.27,156.86 82.15,166.77 159.38,312.41 56.06,105.73 100.33,184.94 161.27,289.75 440.7,757.98 234.8,553.81 798.23,488.73 132.98,-15.36 120.8,-20.21 134.87,66.59z"/>
   <path class="fil1" d="M15057.05 18557.51c124.41,-234.36 595.94,-1140.27 622.39,-1351.64 -166.72,62.51 -644.09,614.68 -793.09,759.27 -59.31,57.56 -117.52,84.9 -89.45,192.31l186.9 344.6c41.41,41.42 17.4,20.74 73.25,55.46z"/>
  </g>
 </g>
</svg>
