<?xml version="1.0" encoding="UTF-8"?>
<!DOCTYPE svg PUBLIC "-//W3C//DTD SVG 1.1//EN" "http://www.w3.org/Graphics/SVG/1.1/DTD/svg11.dtd">
<!-- Creator: CorelDRAW 2017 -->
<svg xmlns="http://www.w3.org/2000/svg" xml:space="preserve" width="200mm" height="200mm" version="1.1" style="shape-rendering:geometricPrecision; text-rendering:geometricPrecision; image-rendering:optimizeQuality; fill-rule:evenodd; clip-rule:evenodd"
viewBox="0 0 20000 20000"
 xmlns:xlink="http://www.w3.org/1999/xlink">
 <defs>
  <style type="text/css">
   <![CDATA[
    .str0 {stroke:#373435;stroke-width:7.62;stroke-miterlimit:22.9256}
    .fil0 {fill:none}
    .fil1 {fill:#373435}
    .fil2 {fill:#848688;fill-rule:nonzero}
   ]]>
  </style>
 </defs>
 <g id="Capa_x0020_1">
  <metadata id="CorelCorpID_0Corel-Layer"/>
  <rect class="fil0" width="20000" height="20000"/>
  <path class="fil1 str0" d="M7057.37 9237.75c74.7,-35.34 27.31,-1.56 91.76,-66.08 20.46,-20.51 52.85,-61.77 72.74,-87.11 41,-52.31 113.98,-118.89 118.26,-194.51 21.93,-98.77 71.29,-141.77 111.47,-237.71 -237.74,-38.14 -634.72,34.01 -895.45,52.75 -104.36,7.51 -207.89,21.85 -307.35,2.67 -61.51,-82.7 -91.38,-198.41 -33.79,-293.1 233.05,-0.99 1266.42,-25.39 1401.17,-99.22 -125.06,-2.84 -1389.94,43.77 -1442.1,93.06 -81.16,66.54 -17.83,251.66 51.25,317.87 153.74,40.55 924.87,-28.37 1165.14,-25.68l-314.32 472.72c-5.41,10.68 -17.97,11.84 -18.78,64.34zm-6453.11 -110.22c103.19,-38.49 160.18,-164.46 242.01,-298.31l822.38 2.91c-13,177.95 -106.04,356.12 -137.52,514.53 79.97,-58.95 53.05,-26.98 91.9,-131.02 147.56,-395.26 112.34,-378.2 110.26,-395.36 -13.95,-114.26 -866.81,-46.43 -887.31,-37.87 -70.64,34.09 -26.78,1.48 -75.38,70.7 -18.4,26.23 -31.81,52.97 -54.49,85.42 -57.17,81.75 -77.86,94.33 -111.85,189zm152.32 -971.7c132.5,-66.03 146.98,-32.92 289.81,-4.97 14.11,181.12 -77.1,182.84 -78.74,377.09 157.86,13.45 332.88,5.75 492.96,6.16 70.74,0.2 167.87,6.26 235.32,0.38 130.5,-11.39 83.69,-49.11 233.99,-39.24 -46.24,-67.41 -9.25,-60.24 -211.29,-31.28l-692.05 -0.2c37.68,-133.34 138.11,-195.6 104.14,-330.62 -101.4,-56.08 -239.85,-70.27 -350.67,-70.27 -24.25,57.19 -6.58,-5.33 -23.47,92.95zm15514.65 728.6c122.37,-95.6 186.31,-461.37 232.43,-628.42 12.16,-44 19.02,-91.4 152.45,-42.06l122.33 83.4c-26.01,137.91 -37.84,25.99 -50.97,187.56l79.24 0c9.76,-201.7 188.49,-208.2 -108.68,-311.65 -5.84,-2.04 -12.24,-4.1 -17.71,-6.26l-29.59 -14.72c-271.06,-127.75 -220.03,194.79 -333,533.77 -30.93,92.79 -46.1,35.22 -46.5,198.38zm2499.3 1539.8c-142.55,33.39 -122.05,81.37 -269.61,88.43 -67.19,-31.38 -145.08,-60.44 -176.54,-150.87 1.92,-50.78 66.34,-68.25 111.78,-90.79 107.85,-53.53 245.76,-103.25 317.91,-205.59 -92.53,4.52 -74.55,9.35 -140.61,51.93 -139.14,89.69 -247.09,93.48 -383.42,197.54 7.99,112.3 35.25,118.91 120.25,176.18l150.63 95.8c9.55,1.23 211.88,-46.67 269.61,-162.63zm-18330.85 -1098.92c-97.82,38.31 -92.13,89.58 -199.6,123.15l-153.11 -118.89c15.73,-171.65 10.25,3.5 62.84,-153.67 -6.26,3.49 -14.32,8.03 -18.78,10.46l-128.84 67.59c-1.72,85.34 -14.03,105.87 46.14,149.65 150.98,109.78 268.1,131.75 378.18,-27.1 52.57,-0.3 3.8,8.02 13.17,-51.19zm4082.72 456.43c91.24,-80.66 97.74,-170.2 116.64,-301.58 40.64,-282.35 -8.68,-893.15 19.47,-1247.03l246.9 -27.16c-18.38,420.95 27.32,1171.56 -52.23,1484.23 -48.16,189.18 -109.33,251.72 -149.13,389.95 90.57,-48.49 182.64,-252.75 201.78,-351.1 57.51,-295.7 15.29,-964.65 27.79,-1314.8 3.81,-106.4 27.48,-91.37 7.25,-182.39 -1.3,-5.92 -8.22,-9.23 -9.47,-21.3 -6.08,-59.64 -254.19,-50.67 -299.26,-4.16 -59.49,61.37 -19.31,1090.76 -33.58,1236.38 -13.31,135.91 -63.72,204.93 -76.16,338.96zm14194.27 -1578.35c126.1,-125.19 0.19,-183.22 347.67,-46.91 -2.23,21.75 -141.65,198.02 -150.17,315.99 182.88,92.8 703.08,9.13 929.25,12.34 38.7,53.62 113.37,98.08 81.71,198.65l-221.85 677.72c134.81,-99.22 161.65,-360.25 230.66,-573.54 40.2,-124.19 61.14,-71.93 66.05,-185.3 -36.25,-61.65 -82.11,-108.99 -161.19,-156.42 -101.03,-8.46 -316.58,16.82 -445.97,16.86 -137.4,0.02 -284.29,5.45 -420.44,-5.11 40.79,-212.2 145.82,-157.07 132.86,-324.52 -69.59,-41.23 -89.78,-58.88 -161.88,-83.46 -87.05,-29.65 -96.93,-43.68 -169.59,-41.32 -35.98,53.84 -51.57,100.97 -57.11,195.02zm-11376.54 686.66c83.02,-51.62 143.42,-159.39 138.86,-273.15 -377.03,-30.92 -979.24,71.02 -1230.84,57.54 -20.49,-109.36 -26.69,-122.6 2.67,-231.63 245.26,-14.99 479.87,-23.77 725.59,-26.4l556.43 -20.11c131.14,-22.98 93.46,-86.39 229.05,30.49 60.42,52.09 40.83,40.76 106.32,74.4 -24.48,-69 -57.17,-99.34 -97.3,-131.4 -65.45,-52.25 -59.53,-44.27 -154.73,-54.35 -134.75,73.83 -1168.12,98.23 -1401.17,99.22 -57.59,94.69 -27.72,210.4 33.79,293.1 99.46,19.18 202.99,4.84 307.35,-2.67 260.73,-18.74 657.71,-90.89 895.45,-52.75 -40.18,95.94 -89.54,138.94 -111.47,237.71zm2415.02 -705.08c52.68,-55.23 37.32,-51.76 61.39,-118.88l269.63 85.24c-34.49,109.65 -161.31,212.18 -122.52,350.87 231.32,15.87 573.59,13.29 798.82,-10.46 335.99,-35.46 150.06,288.49 142.02,330.37 -14.17,73.79 -32.59,118.93 -48.08,189.73 48.77,-24.72 45.08,20.8 78.07,-101.15 8.85,-32.74 9.7,-83.85 18.66,-119.19 31.36,-123.77 63.67,-39.08 62.48,-221.37 -72.11,-205.61 -577.91,-69.63 -1012.07,-113.41 37.77,-212.04 117.03,-171.02 145.73,-300.12 -77.07,-77.18 -221.55,-137.14 -361.84,-122.78l-32.29 151.15zm8775.8 933.35c61.09,-34.07 9.15,1.68 49.25,-32.83l96.21 -119.33c40.34,-61.57 73.97,-116.95 98.89,-187l793.14 0.08c-2.14,166.32 -32.27,152.23 -66.4,275.43 -32.81,118.42 -70.72,149.29 -86.33,274.78l29.85 -34.98c92.95,-119.22 222.76,-425.49 162.76,-555.19 -135.22,-28.27 -553.39,-18.64 -710.02,-13.53 -139.87,4.56 -169.07,50.77 -225.23,144.08 -58.2,96.69 -114.66,155.24 -142.12,248.49zm-9052.81 106.99c-133.08,66.84 -199.96,280.11 -365.85,103.72 -25.87,-27.49 -11.8,-14.36 -31.65,-46.37 98.15,-159.59 392.86,-428.05 442.86,-609.84 -106.22,53.68 -65.83,49.82 -136.76,155.92 -130.67,195.48 -264.82,306.83 -321.04,381.69 -54.46,72.55 -22.22,-5.17 -46.83,119.02 165.75,92.23 201.64,188.86 324.72,88.17l95.15 -114.81c36.74,-51.81 12.22,-6.05 39.4,-77.5zm9814.81 778.52c74.52,-25.4 57.27,-22.11 108.97,-80.07 32.53,-36.43 51.84,-63.75 84.8,-94.89 151.55,24.64 89.38,103.29 296.97,123.45 64.76,-120.28 214.93,-220.54 107.96,-321.63 -3.21,-3.01 -7.8,-7.9 -11.41,-10.75l-120.04 -49.57c50.87,91.09 60.12,61.31 111.98,134.55 -29.34,101.03 -64.16,140.87 -127.28,188.41 -162.38,-29.24 -108.57,-104.62 -281.65,-111.89 -50.57,52.76 -153.84,158.74 -170.3,222.39zm-6971.96 218.58c-142.53,62.44 -86.67,136.84 -251.27,207.2 -64,-29.89 -128.18,-62.32 -167.8,-114.73 37.14,-134.61 123.05,-116.58 188.17,-277 -26.33,10.42 -317.09,209.19 -200.83,336.33 4.34,4.73 9.51,10.44 14.18,15.25 56.76,58.32 149.94,113.27 236.9,65.15 48.22,-26.66 154,-144.86 180.65,-232.2zm-4268.01 69.77c28.4,86.17 54.87,129.25 198.83,6.06 50.55,-43.27 76.12,-60.72 105.4,-100.66 31.26,-98.55 -269.05,-351.36 -365.27,-381.87 47.57,93.7 107.47,123.78 170.58,182.05 107.87,99.65 208.68,152.06 70.17,259.87 -90.07,70.12 -77.38,55.92 -179.71,34.55zm-7014.99 25.27c-187.22,61.43 -250.25,177.3 -461.6,194.93 -66.86,-67.77 -139.64,-76.01 -132.35,-220.84 -73.08,31.82 -17.47,-6.48 -61.49,46.79 46.38,138.79 108.2,156.16 209.61,230.9 87.93,-13.67 393.48,-147.5 445.83,-251.78zm14599.52 -565.46c109.03,-39.17 170.34,-127.28 244.45,-201.41 67.43,-67.43 172.66,-145.6 179.41,-267.92 -53.48,-47.03 -157.96,-112.36 -250.65,-126.49 38.89,46.04 -11.35,6.32 61.51,60.09 42.67,31.49 79.56,32.7 133.6,89.85 -37.25,176.98 -274.54,287.16 -368.32,445.88zm-5045.82 69.69c61.69,112.34 47.88,36.68 116.8,132.64l105.7 -5.68c131.32,-175.65 225.65,-303.84 -36.21,-384.35 56.58,89.7 61.47,68.64 103.09,109.92 2.83,2.84 9.81,19.12 11.85,14.9 2.14,-4.42 8.18,10.58 12.3,15.81 -90.87,297.02 -232.7,141.6 -313.53,116.76zm8355.3 483.47l70.31 -7.01c53.72,-94.2 205.82,-166.7 256.06,-242.85l19.59 -51.46c-69.87,21.65 -134.25,101.56 -185.42,145.24 -44.59,38.05 -45.07,34.35 -93.86,67.79 -49.44,33.87 -60.83,8.56 -66.68,88.29zm-9191.84 -2120.18c-22.7,168.24 -159.78,341.04 -231.65,487.85 -50,181.79 -344.71,450.25 -442.86,609.84 19.85,32.01 5.78,18.88 31.65,46.37 165.89,176.39 232.77,-36.88 365.85,-103.72l258.23 -350.67c26.73,-41.48 15.52,-30.09 50.08,-66.94 42.99,-45.84 21.3,-22.04 53.49,-49.52l793.25 12.34c4.34,168.01 -116.68,418.06 -173.13,542.72 -140.08,0.08 -190.08,-68.69 -293.4,-117.8 -160.54,-76.27 -450.53,-179.66 -434.29,110.67 51.69,26.83 87.05,33.48 139.82,62.19 53.94,29.31 92.57,56.23 132.29,77.79 81.47,44.23 198.39,91.97 248.41,148.97 -14.01,173.67 -384.78,425.94 -537.77,506.07 -29.56,15.47 -31.28,16.32 -69.28,43.76 -198.31,143.2 -157.86,89.72 -338.4,176.25 8.81,122.97 23.15,98.11 116.06,149 144.97,79.38 207.33,85.98 519.23,-145.68 197.13,-146.39 420.5,-319.86 528.94,-507.93l120.02 5.15c80.83,24.84 222.66,180.26 313.53,-116.76 -4.12,-5.23 -10.16,-20.23 -12.3,-15.81 -2.04,4.22 -9.02,-12.06 -11.85,-14.9 -41.62,-41.28 -46.51,-20.22 -103.09,-109.92l-73.14 -41.56c11.38,-183.2 149.53,-340.39 151.57,-510.89 15.49,-70.8 33.91,-115.94 48.08,-189.73 8.04,-41.88 193.97,-365.83 -142.02,-330.37 -225.23,23.75 -567.5,26.33 -798.82,10.46 -38.79,-138.69 88.03,-241.22 122.52,-350.87l-269.63 -85.24c-24.07,67.12 -8.71,63.65 -61.39,118.88zm8961.52 18.42c-55.19,279.6 -243.32,506.75 -404.55,725.98l-296.75 353.29c32.76,82.05 137.06,118.7 203.9,158.51 226.68,-197.79 120.68,-96.96 311.68,-322.85 27.46,-93.25 83.92,-151.8 142.12,-248.49 56.16,-93.31 85.36,-139.52 225.23,-144.08 156.63,-5.11 574.8,-14.74 710.02,13.53 60,129.7 -69.81,435.97 -162.76,555.19l-29.85 34.98c-87.48,-3.19 -93.5,-11.55 -160.68,-51.13 -42.75,-25.18 -93.3,-51.41 -136.03,-75.14 -95.36,-53.01 -176.64,-109.54 -313.59,-107.05 -63.84,76.96 -100.21,69.02 -89.54,209.98 511.47,294.1 648.19,217.83 298.38,559.51 -59.91,58.49 -184.61,187.14 -260.18,199.79 -72.15,102.34 -210.06,152.06 -317.91,205.59 -45.44,22.54 -109.86,40.01 -111.78,90.79 31.46,90.43 109.35,119.49 176.54,150.87 147.56,-7.06 127.06,-55.04 269.61,-88.43 2.08,-3.59 6.42,-8.25 7.82,-9.69 1.47,-1.49 6.62,-7.75 8.54,-9.57l160.1 -99.82c5.85,-79.73 17.24,-54.42 66.68,-88.29 48.79,-33.44 49.27,-29.74 93.86,-67.79 51.17,-43.68 115.55,-123.59 185.42,-145.24 16.46,-63.65 119.73,-169.63 170.3,-222.39 173.08,7.27 119.27,82.65 281.65,111.89 63.12,-47.54 97.94,-87.38 127.28,-188.41 -51.86,-73.24 -61.11,-43.46 -111.98,-134.55 -113.73,-43.54 -67.6,-91.75 -56.92,-209.19l221.85 -677.72c31.66,-100.57 -43.01,-145.03 -81.71,-198.65 -226.17,-3.21 -746.37,80.46 -929.25,-12.34 8.52,-117.97 147.94,-294.24 150.17,-315.99 -347.48,-136.31 -221.57,-78.28 -347.67,46.91zm-11376.54 686.66c-4.28,75.62 -77.26,142.2 -118.26,194.51 -19.89,25.34 -52.28,66.6 -72.74,87.11 -64.45,64.52 -17.06,30.74 -91.76,66.08 -3.73,40.47 -211.19,232.94 -254.69,270.94 -107.75,94.05 -194.44,150.75 -283.88,231.69 -200.86,181.77 -529.49,326.28 -578.08,457.2 176.56,313.13 418.44,20.35 499.32,-41.73 52.6,-40.38 91.15,-61.34 153.76,-104.14 110.26,-75.36 184.47,-155.37 301.66,-241.21 86.97,-63.66 183.22,-217.21 268.72,-263.8 66.13,-11.45 617.72,483.12 699.1,562 33.93,32.9 165.07,167.96 189.7,183.48 102.33,21.37 89.64,35.57 179.71,-34.55 138.51,-107.81 37.7,-160.22 -70.17,-259.87 -63.11,-58.27 -123.01,-88.35 -170.58,-182.05 -707.81,-636.89 -686.32,-372.85 -326.72,-924.85 155.83,-239.18 270.07,-300.33 202.99,-389.67 -65.49,-33.64 -45.9,-22.31 -106.32,-74.4 -135.59,-116.88 -97.91,-53.47 -229.05,-30.49l-556.43 20.11c-245.72,2.63 -480.33,11.41 -725.59,26.4 -29.36,109.03 -23.16,122.27 -2.67,231.63 251.6,13.48 853.81,-88.46 1230.84,-57.54 4.56,113.76 -55.84,221.53 -138.86,273.15zm-6583.55 -734.22c25.02,144.25 -167.16,448.89 -234.73,561.01 -161.66,268.18 -108,172.34 -268.97,368.65 -71.53,87.27 -17.41,81.76 -103.07,90.41 -52.59,157.17 -47.11,-17.98 -62.84,153.67l153.11 118.89c107.47,-33.57 101.78,-84.84 199.6,-123.15 8.22,-64.84 43.23,-80.07 113.41,-152.1l51.17 -45.68c33.99,-94.67 54.68,-107.25 111.85,-189 22.68,-32.45 36.09,-59.19 54.49,-85.42 48.6,-69.22 4.74,-36.61 75.38,-70.7 20.5,-8.56 873.36,-76.39 887.31,37.87 2.08,17.16 37.3,0.1 -110.26,395.36 -38.85,104.04 -11.93,72.07 -91.9,131.02 -24.78,171.83 -323.89,458.81 -444.33,572.44 -140.35,132.45 -449.65,338.47 -642.76,372.44 -7.29,144.83 65.49,153.07 132.35,220.84 211.35,-17.63 274.38,-133.5 461.6,-194.93 351.56,-137.71 740.48,-674 905.22,-1088.77 26.43,-66.52 62.46,-179.7 79.61,-248.14 8.76,-34.88 15.48,-98.95 28.15,-139.1 29.48,-93.3 31.3,-28.21 64.46,-121.81 -42.01,-99.17 -171.41,-148.63 -185.51,-224.38 -150.3,-9.87 -103.49,27.85 -233.99,39.24 -67.45,5.88 -164.58,-0.18 -235.32,-0.38 -160.08,-0.41 -335.1,7.29 -492.96,-6.16 1.64,-194.25 92.85,-195.97 78.74,-377.09 -142.83,-27.95 -157.31,-61.06 -289.81,4.97zm15514.65 728.6c7.99,90.09 -48.13,116.06 -107.11,109.56 -61.7,-6.79 -138.39,-63.03 -177.19,-82.92 -96.49,-49.46 -245.72,-146.95 -373,-136.07 -48.37,84.66 -89.2,140.65 -89.4,246.11 64.15,32.71 213.79,108.08 286.19,135.06 92.69,14.13 197.17,79.46 250.65,126.49 -6.75,122.32 -111.98,200.49 -179.41,267.92 -74.11,74.13 -135.42,162.24 -244.45,201.41 -51.79,45.76 -80.73,53.27 -135.7,98.95 -264.06,219.51 -456.07,212.81 -437.77,323.17l244.75 180.43c77.81,-3.43 455.54,-345.66 546.32,-404.32 251.51,-162.52 402.18,-471.47 486.43,-476.78 155.15,39.47 314.87,252.2 422.48,275.85 87.87,-88.86 164.36,-190.11 82.98,-292.66l-253.58 -190.53c-43.31,-28.81 -59.69,-25.64 -100.38,-53.82 -3.6,-162.6 189.42,-411.13 234.43,-727.37 13.13,-161.57 24.96,-49.65 50.97,-187.56l-122.33 -83.4c-133.43,-49.34 -140.29,-1.94 -152.45,42.06 -46.12,167.05 -110.06,532.82 -232.43,628.42zm-3045.04 1420.8c414.89,20.23 884.51,-386.09 1163.83,-674.2 177.51,-183.12 99.9,-198.85 3.39,-381.39 -67.36,12.28 -81.42,26.09 -121.22,74.24 -153.15,185.3 -562.79,597.76 -756.27,629.77l-67.91 -8.2c-75.25,-153.76 -3.46,-1314.43 -17.65,-1599.86l-208.83 -5.55c-62.97,9.71 -60.12,11.92 -65.75,36.27 -1.15,5.01 -4.18,13.33 -5.42,19.65l-4.6 1829.08 80.43 80.19zm-8703.79 -523.49c-19.5,109.77 -174.9,247.15 -268.82,344.65 -121.49,126.11 -319.29,141.64 -352.51,282.32 34.41,56.74 146.83,144.87 226.72,132.55 72.23,-11.13 342.19,-178.88 430.72,-273.85l145.54 -187.26c39.8,-138.23 100.97,-200.77 149.13,-389.95 79.55,-312.67 33.85,-1063.28 52.23,-1484.23l-246.9 27.16c-28.15,353.88 21.17,964.68 -19.47,1247.03 -18.9,131.38 -25.4,220.92 -116.64,301.58zm7567.69 256.14c-65.12,160.42 -151.03,142.39 -188.17,277 39.62,52.41 103.8,84.84 167.8,114.73 164.6,-70.36 108.74,-144.76 251.27,-207.2 13.19,-56.6 155.98,-224.49 204.79,-341.09 61.13,-146.05 95.18,-231.51 135.28,-404.35 37.06,-159.8 92.23,-777.07 54.65,-958.6 -12.93,-62.42 -80.98,-63.59 -153.16,-60.74 -166.76,6.64 -138.93,59.84 -137.09,261.7 3.69,404.06 -13.45,307.84 -48.11,657.56 -21.4,215.71 -177.24,534.35 -287.26,660.99zm-8376.14 -1716.66c-247.7,-19.29 -288.45,-50.36 -284.05,185.91l-0.28 918.28c-0.49,113.07 -16.92,144.39 73.28,166.6l155.05 -11.04c4.71,-1.29 14.6,0.02 17.88,-7.47 3.23,-7.35 11.83,-4.71 17.2,-8.1 48.29,-89.62 45.92,-1083.94 20.92,-1244.18z"/>
  <path class="fil2" d="M6995.9 13424.15c-63.88,-61.32 -116.26,-138.19 -157.14,-230.59 -40.88,-92.41 -61.32,-194.4 -61.32,-305.97 0,-111.57 20.44,-213.56 61.32,-305.97 40.88,-92.4 93.26,-169.27 157.14,-230.59l97.09 80.48c-41.73,48.55 -76.44,114.56 -104.12,198.02 -27.68,83.46 -41.52,169.48 -41.52,258.06 0,91.13 13.84,177.57 41.52,259.34 27.68,81.76 62.39,147.34 104.12,196.73l-97.09 80.49zm983.69 -144.36c-100.5,0 -185.46,-20.66 -254.87,-61.96 -69.41,-41.31 -121.36,-96.24 -155.85,-164.8 -34.5,-68.56 -51.74,-143.72 -51.74,-225.48 0,-80.91 18.09,-155.44 54.29,-223.57 36.2,-68.13 90.07,-122.64 161.61,-163.52 71.54,-40.88 157.98,-61.32 259.33,-61.32 53.66,0 104.12,7.24 151.39,21.71 47.27,14.48 87.94,34.5 122,60.05l-45.99 118.81c-28.96,-21.3 -62.81,-38.75 -101.56,-52.38 -38.75,-13.63 -80.7,-20.44 -125.84,-20.44 -63.02,0 -117.32,14.05 -162.88,42.16 -45.57,28.1 -80.06,66.64 -103.48,115.61 -23.42,48.97 -35.13,103.69 -35.13,164.16 0,62.18 11.07,117.75 33.21,166.72 22.15,48.97 54.94,87.51 98.37,115.62 43.44,28.1 95.82,42.15 157.14,42.15 49.4,0 95.39,-8.3 137.97,-24.91 42.58,-16.61 80.06,-37.26 112.42,-61.96l43.44 116.26c-36.62,28.1 -80.49,51.31 -131.59,69.62 -51.1,18.31 -105.18,27.47 -162.24,27.47zm797.17 -367.93l-141.81 0 0 351.32 -173.74 0 0 -868.71 319.38 0c219.73,0 329.6,83.46 329.6,250.39 0,122.64 -53.66,201.42 -160.97,236.34l261.89 381.98 -200.57 0 -233.78 -351.32zm-141.81 -123.92l145.64 0c53.66,0 93.05,-11.07 118.17,-33.21 25.12,-22.15 37.69,-55.79 37.69,-100.93 0,-90.28 -51.96,-135.41 -155.86,-135.41l-145.64 0 0 269.55zm735.85 -393.47l173.74 0 0 868.71 -173.74 0 0 -868.71zm660.47 886.6c-120.94,0 -221.01,-23.85 -300.21,-71.55l42.15 -121.36c42.59,22.14 84.32,38.54 125.2,49.18 40.88,10.65 84.32,15.97 130.31,15.97 51.95,0 95.39,-10.64 130.31,-31.93 34.91,-21.3 52.37,-51.96 52.37,-91.99 0,-24.69 -8.3,-45.77 -24.91,-63.23 -16.61,-17.46 -37.26,-31.94 -61.96,-43.44 -24.7,-11.5 -58.76,-24.91 -102.2,-40.24 -56.21,-20.44 -101.56,-39.39 -136.06,-56.85 -34.49,-17.46 -64.08,-41.73 -88.78,-72.82 -24.7,-31.09 -37.05,-70.48 -37.05,-118.17 0,-80.91 30.02,-143.72 90.06,-188.43 60.05,-44.72 139.47,-67.07 238.26,-67.07 98.8,0 185.67,22.99 260.62,68.98l-42.16 120.09c-70.69,-40.88 -141.81,-61.32 -213.35,-61.32 -47.69,0 -86.87,10.22 -117.53,30.66 -30.66,20.44 -45.99,49.4 -45.99,86.87 0,22.14 7.88,41.31 23.63,57.49 15.76,16.18 35.35,29.59 58.77,40.24 23.42,10.65 56.42,24.06 99.01,40.24 57.91,21.29 104.75,41.1 140.52,59.41 35.77,18.31 66.44,43.43 91.99,75.37 25.55,31.94 38.32,72.61 38.32,122 0,81.76 -31.09,145.85 -93.26,192.27 -62.17,46.42 -148.19,69.63 -258.06,69.63zm1147.22 -761.41l-264.45 0 0 743.52 -173.74 0 0 -743.52 -264.45 0 0 -125.19 702.64 0 0 125.19zm628.54 508.46l-321.94 0 -81.76 235.06 -175.02 0 334.71 -880.21 166.08 0 335.99 880.21 -176.3 0 -81.76 -235.06zm-43.44 -122.65l-117.53 -339.82 -118.81 339.82 236.34 0zm1006.69 233.79l0 123.92 -560.83 0 0 -868.71 173.74 0 0 744.79 387.09 0zm385.81 204.4c41.73,-48.54 76.44,-114.55 104.12,-198.01 27.68,-83.47 41.52,-169.49 41.52,-258.06 0,-91.13 -13.63,-177.58 -40.88,-259.34 -27.26,-81.76 -61.75,-147.34 -103.48,-196.74l97.09 -80.48c63.02,61.32 114.98,138.19 155.86,230.59 40.88,92.41 61.32,194.4 61.32,305.97 0,111.57 -20.44,213.56 -61.32,305.97 -40.88,92.4 -92.84,169.27 -155.86,230.59l-98.37 -80.49z"/>
 </g>
</svg>
