<?xml version="1.0" encoding="UTF-8"?>
<!DOCTYPE svg PUBLIC "-//W3C//DTD SVG 1.1//EN" "http://www.w3.org/Graphics/SVG/1.1/DTD/svg11.dtd">
<!-- Creator: CorelDRAW (Versión de evaluación) -->
<svg xmlns="http://www.w3.org/2000/svg" xml:space="preserve" width="200mm" height="200mm" version="1.1" style="shape-rendering:geometricPrecision; text-rendering:geometricPrecision; image-rendering:optimizeQuality; fill-rule:evenodd; clip-rule:evenodd"
viewBox="0 0 20000 20000"
 xmlns:xlink="http://www.w3.org/1999/xlink"
 xmlns:xodm="http://www.corel.com/coreldraw/odm/2003">
 <defs>
  <style type="text/css">
   <![CDATA[
    .fil1 {fill:#222222}
    .fil3 {fill:#3A433A}
    .fil2 {fill:#9DD2A6}
    .fil0 {fill:#FDFDFD}
   ]]>
  </style>
 </defs>
 <g id="Capa_x0020_1">
  <metadata id="CorelCorpID_0Corel-Layer"/>
  <g id="_2412208745984">
   <path class="fil0" d="M17266.95 11718.16c1.54,461.73 90.94,403.16 484.89,437.76l-104.85 654.49c-318.6,107.89 -709.85,100.95 -940.74,-92.31 -342.43,-286.63 -150.44,-647.27 -273.05,-879.54 -153.04,-8.47 -104.52,-30.73 -190.18,451.55l-75.69 432.06c-45.19,146.9 10.78,57.64 -73.18,105.72l-819.44 -1.5 454.99 -2662.91c248.98,-56.83 1618.18,-94.88 1962.61,209.97 203.16,179.84 294.77,469.84 139.89,795.15 -64.34,135.12 -134.69,233.63 -224.92,310.02 -193.96,164.25 -269.08,125.17 -340.33,239.54zm-6898.22 1097.25l-810.03 13.02c-231.43,-410.71 -493.46,-849.91 -754.19,-1292.35 -31.97,33.81 0.83,-27.2 -25.3,48.96 -1.3,3.8 -15.88,59.27 -16.85,63.77l-86.3 503.48c-39.34,220.32 -62.47,427.09 -114.96,652.28 -135.93,50.12 -560.61,31.63 -719.93,15.18l454.89 -2658.54 790.94 -16.52c70.28,87.43 699.83,1193.03 761.2,1346.41 110.73,-176.57 162.29,-1159.93 284.26,-1340.37l706.21 -5.94 -469.94 2670.62zm-6028.46 -0.43l-885.58 14.22 165.22 -1036.16 -754.56 2.54c-13.99,128.11 -152.58,953.02 -192.09,1021.7l-882.54 10.88c9.98,-224.32 280.82,-1665.74 341.02,-2015.21 24,-139.29 69.48,-552.46 145.97,-660.02 170.53,-18.92 718.45,-24.19 875.57,10.65l-179.44 1037.79c129.98,-1.61 662.92,21.45 747.12,-27.74l188.48 -1005.55c149.87,-44.55 759,-43.61 906.74,-1.13 -15.12,213.21 -413.04,2512.37 -475.91,2648.03zm2625.63 -2652.14c167.6,-36.97 734.98,-31.36 911.65,-3.53 -47.52,316.23 -255.93,1582.37 -345.26,1814.97 -182.45,474.81 -601.19,809.66 -1241.76,896.43 -697.2,94.44 -1258.8,-229.03 -1337.66,-812.23 -31.74,-234.74 85,-731.04 123.07,-963.5 50.29,-307.12 125.45,-624.32 161.22,-941.85l910.31 -6.44c-18.42,337.92 -140.2,831.45 -193.39,1146.91 -57.83,342.8 -259,900.5 305.62,849.61 446.51,-40.25 435.23,-444.24 502.94,-834.82 67.58,-389.78 133.79,-761.97 203.26,-1145.55zm8284.88 616.44l-911.47 6.18 -77.83 413.47 831.65 4.57c-83.56,802.95 -105.65,475.28 -925.35,540.32l-77.43 441.47 899.7 13.65 -98.38 623.95 -1880.18 5c15.58,-234.73 426.92,-2586.16 483.25,-2672.99 198.63,-26.36 1712.99,-29.33 1859.63,11.72l-103.59 612.66zm-2194.54 -21.72l-533.55 17.58c-103.75,355.81 -303.14,1904.65 -384.17,2042.78l-912.98 10.17 346.23 -2048.17 -532.74 -17.96 96.08 -610.06 2028.75 -0.47 -107.62 606.13zm83.66 -2581.52c676.54,335.98 187.68,1508.89 -1114.44,1459.93 -300.14,-11.27 -732.21,-19.08 -1016.8,-65.04 27.67,-295.43 433.8,-2478 480.02,-2547.04 325.07,-44.39 1446.49,-35.95 1704.71,76.78 211.31,92.24 375.13,266.64 321.97,567.69 -22.49,127.34 -67.91,230.49 -135.45,318.33 -80.06,104.08 -102.75,126.21 -240.01,189.35zm-4975.79 -416.95c-232.4,-48.59 -441.44,-164.55 -714.45,-49.89 -471.91,198.16 -576.66,971.11 -229.6,1152.99 267.51,140.16 496.24,4.04 733.14,-42.08l6.78 609.46c-602.59,485.72 -2099.34,151.38 -1744.7,-1254.87 124.84,-495 411.34,-803.52 747.99,-1012.26 192.85,-119.57 406.63,-193.02 682.05,-202.93 376.93,-13.51 444.3,76.79 717.28,173.8 -13.28,129.08 -154.64,526.37 -198.49,625.78zm499.1 -735.27l821.64 -8.01c-33.47,342.33 -126.24,747.76 -189.95,1090.25 -67.24,361.64 -252.95,844.96 271.61,809.52 608.7,-41.14 423.15,-1264.44 678.95,-1886.69l842.39 -16.28c-49.75,295.2 -101.81,591.37 -160.08,893.29 -50.22,260.33 -89.34,608.09 -177.6,840.12 -450.15,1183.66 -2365.18,1177.28 -2398.78,34.68 -8.28,-282.03 86.53,-615.78 133.65,-887.49 34.61,-199.72 98.52,-743.38 178.17,-869.39zm-8066.29 6912.31l15977.58 11.78 45.01 -97.78c36.91,-43.15 -97.44,-38.11 91.51,-31.14 -19.26,7.78 -101.85,30.31 -62.94,115.97l463.26 14.32c59.24,-19.56 -33.13,-151.68 153.31,-122.71 -102.25,22.29 -77.69,3.94 -99.98,95.44 106.59,55.53 803.15,29.54 991.8,27.6 35.18,-77.12 48.09,-116.73 74.25,-190.08 -0.96,171.73 -72.48,139.42 39.01,195.22 50.56,-84.1 30.77,-169.19 33.68,-288.06 50.25,112.29 -15.65,178.43 51.09,278.45 139.96,-28.7 -6.11,-115.63 198.96,-129.08 -99.98,59 -83.06,5.47 -87.73,127.01l256.09 5.84c72.95,-28.13 -21.53,-133.85 162.22,-127.98 -92.21,40.41 -81.1,5.21 -83.23,124.31l260.1 3.9c49.15,-8.27 -19.89,-97.01 157.18,-155.31 -71.19,128.85 -50.93,-59.57 -85.67,128.18 99.35,45.89 138.46,42.72 249.52,0 -41.98,-96.27 9.78,-50.82 -78.72,-46.48 24.89,-39.82 59.5,-65.55 96.37,-94.81l-13.61 -7724.51 -18784.69 -9.01 -4.37 7888.93z"/>
   <path class="fil1" d="M601.29 6047.2l18784.69 9.01 13.61 7724.51c-36.87,29.26 -71.48,54.99 -96.37,94.81 88.5,-4.34 36.74,-49.79 78.72,46.48 -111.06,42.72 -150.17,45.89 -249.52,0 34.74,-187.75 14.48,0.67 85.67,-128.18 -177.07,58.3 -108.03,147.04 -157.18,155.31l-260.1 -3.9c2.13,-119.1 -8.98,-83.9 83.23,-124.31 -183.75,-5.87 -89.27,99.85 -162.22,127.98l-256.09 -5.84c4.67,-121.54 -12.25,-68.01 87.73,-127.01 -205.07,13.45 -59,100.38 -198.96,129.08 -66.74,-100.02 -0.84,-166.16 -51.09,-278.45 -2.91,118.87 16.88,203.96 -33.68,288.06 -111.49,-55.8 -39.97,-23.49 -39.01,-195.22 -26.16,73.35 -39.07,112.96 -74.25,190.08 -188.65,1.94 -885.21,27.93 -991.8,-27.6 22.29,-91.5 -2.27,-73.15 99.98,-95.44 -186.44,-28.97 -94.07,103.15 -153.31,122.71l-463.26 -14.32c-38.91,-85.66 43.68,-108.19 62.94,-115.97 -188.95,-6.97 -54.6,-12.01 -91.51,31.14l-45.01 97.78 -15977.58 -11.78 4.37 -7888.93zm-108.76 7994.25c387.08,34.77 4306.26,7.94 4808.4,7.94 3575.83,0 7259.31,-28.33 10822.72,16.35l1044.16 -7.3c393.58,8.81 776.15,-9.32 1160.12,-6.68 183.95,1.27 336.16,4.37 535.05,8.31 188.82,3.77 440.9,8.91 629.42,6.41 -23.36,-2675.36 -0.9,-5429.51 -0.63,-8113.92l-18999.37 -4.51 0.13 8093.4z"/>
   <path class="fil2" d="M7907.82 12780.74l601.12 -2.57c79.19,-218.62 191.68,-1166.33 239.77,-1312.5l27.53 -63.51c141.2,158.28 290.03,485.56 417.18,691.03 35.87,57.96 66.14,101.58 99.18,155.11 91.57,148.43 213.21,428.42 314.53,531.34l698.7 0.13c44.65,-99.35 463.26,-2443.69 456.28,-2559.09l-588.2 0c-114.2,124.34 -177.04,1194.73 -295.74,1404.17l-675.24 -1179.92c-30.97,-51.96 -100.35,-189.61 -147.17,-213.64 -38.78,-19.89 -672.47,-18.76 -698.46,0 -37.25,26.9 -463.97,2388.9 -449.48,2549.45z"/>
   <path class="fil2" d="M1850.85 12772.03l774.16 9.41c104.52,-192.75 116.2,-772.65 203.13,-1021.84l844.73 -12.14c0.2,259.66 -184.01,811.29 -150.04,1036.45l777.09 -3.6 465.7 -2578.99 -792.67 4.61 -41.78 117.1c-42.28,175.3 -105.06,810.26 -184.25,925.32l-836.29 4.11 190.75 -1035.22 -795.41 -12.01 -247.68 1298.18c-55.46,310.19 -205.87,992.24 -207.44,1268.62z"/>
   <path class="fil2" d="M16468.07 10734.16c233.47,-37.57 776.93,-41.54 640.8,306.09 -94.4,241.04 -424.95,250.79 -731.5,249.52l90.7 -555.61zm-1126.45 2045.98c156.61,3.44 313.56,-0.37 470.27,0.83 382.17,2.97 247.95,188.45 477.85,-1000.37l207.23 8.47c26.4,364.69 2.27,645.44 225.46,855.85 189.62,178.74 621.51,286.73 866.93,113.29l107.45 -554.46c-317.13,12.44 -547.36,-26.73 -477.98,-542.09 193.09,-113.73 419.22,-195.82 555.4,-470.81 320.24,-646.6 -229.29,-987.63 -945.48,-986.22 -280.15,0.56 -795.34,-29.17 -1045.39,11.74 -56.4,136.09 -452.22,2469.33 -441.74,2563.77z"/>
   <path class="fil2" d="M5300.93 10206.19c-37.74,71.65 -18.75,26.17 -39.81,118.71 -74.45,327.5 -274.41,1536.45 -257.09,1705.45 66.04,644.7 735.51,873.06 1286.77,793.77 1468.65,-211.27 1275.63,-1445.95 1534.15,-2618.86l-800.48 13.51c-302.11,892.29 -81.99,1929.85 -768.84,1967.29 -577.26,31.47 -430.73,-425.85 -366.22,-814.73 64.64,-389.45 139.69,-764.24 200.09,-1166.17l-788.57 1.03z"/>
   <path class="fil2" d="M12005.27 8418.01c325.37,-17.25 720.76,-50.62 630.79,353.98 -61.77,277.81 -419.68,314.59 -751.53,265.5l120.74 -619.48zm153.57 -911.34c104.36,-12.08 214.95,-18.15 320.34,-9.14 392.35,33.57 335.92,344.06 133.32,484.62 -145.3,100.85 -358.51,73.92 -546.8,74.45l93.14 -549.93zm-649.4 -422.25c-51.5,190.45 -440.91,2331.77 -427.63,2433.15 276.52,55.43 676.74,52.06 971.95,63.41 536.41,20.62 1166.3,-186.18 1304.46,-744.55 33.87,-136.86 43.41,-310.86 -22.2,-433.47 -24.66,-46.08 -73.61,-106.12 -121.07,-132.51l-174.36 -62.94c-7.85,-3.04 -17.79,-7.75 -24.2,-10.31 -6.54,-2.67 -16.65,-6.68 -24.59,-10.85 151.07,-102.42 344.99,-42.82 451.45,-445.28 82.39,-311.52 -46.89,-485.15 -273.22,-586.03 -242.87,-108.26 -499.97,-81.1 -777.22,-80.93 -214.84,0.1 -705.27,-24.29 -883.37,10.31z"/>
   <path class="fil2" d="M8686.77 7075.85c-53.32,182.44 -297.17,1527.78 -294.1,1676.28 12.11,584 563.18,888.68 1174.48,818.87 498.97,-56.96 975.58,-366.89 1134.39,-843.36 82.07,-246.19 309.73,-1408.25 313.33,-1657.67l-730.1 6.24c-240.54,595.28 -41.38,1841.51 -722.53,1894.77 -166.29,12.98 -234.67,-7.11 -308.02,-76.62l-27.03 -30.07c-145,-173.76 -60.53,-424.48 -3.44,-682.38 46.86,-211.61 204.84,-969.91 193.36,-1102.49l-730.34 -3.57z"/>
   <polygon class="fil2" points="15302.97,10206.36 13513.53,10198.69 13075.73,12780.94 14843.92,12777.44 14935.52,12251.87 14030.05,12240.19 14127.96,11693.9 14957.38,11677.31 15044.38,11257.33 14205.09,11248.25 14297.46,10734.16 15216.34,10715.01 "/>
   <path class="fil2" d="M7929.34 8891.69c-267.31,22.76 -430.36,186.65 -746.62,11.15 -342.43,-190.02 -260.6,-955.96 171.93,-1207.55 332.85,-193.59 469.8,-44.92 771.75,-12.75 54.46,-64.11 169.29,-418.08 185.28,-531.74 -305.52,-69.31 -335.69,-157.42 -714.02,-138.73 -209.44,10.35 -509.32,128.98 -672.27,227.86 -1134.53,688.46 -908.94,2735.23 724.73,2278.48 383.04,-107.09 239.04,-179.41 279.22,-626.72z"/>
   <path class="fil2" d="M11093.26 10706.57l533.34 6.87c-2.57,355.37 -368.02,1807.67 -333.95,2068.57l801.15 -1.8c124.31,-232.37 272.62,-1666.71 389.68,-2063.47l547.36 -10.04c-3.74,-158.72 81.7,-355.07 48.89,-487.39l-1873.74 1.27c-65.61,93.07 -93.01,344.06 -112.73,485.99z"/>
   <path class="fil3" d="M1850.85 12772.03c1.57,-276.38 151.98,-958.43 207.44,-1268.62l247.68 -1298.18 795.41 12.01 -190.75 1035.22 836.29 -4.11c79.19,-115.06 141.97,-750.02 184.25,-925.32l41.78 -117.1 792.67 -4.61 -465.7 2578.99 -777.09 3.6c-33.97,-225.16 150.24,-776.79 150.04,-1036.45l-844.73 12.14c-86.93,249.19 -98.61,829.09 -203.13,1021.84l-774.16 -9.41zm2489.42 42.95c62.87,-135.66 460.79,-2434.82 475.91,-2648.03 -147.74,-42.48 -756.87,-43.42 -906.74,1.13l-188.48 1005.55c-84.2,49.19 -617.14,26.13 -747.12,27.74l179.44 -1037.79c-157.12,-34.84 -705.04,-29.57 -875.57,-10.65 -76.49,107.56 -121.97,520.73 -145.97,660.02 -60.2,349.47 -331.04,1790.89 -341.02,2015.21l882.54 -10.88c39.51,-68.68 178.1,-893.59 192.09,-1021.7l754.56 -2.54 -165.22 1036.16 885.58 -14.22z"/>
   <path class="fil3" d="M7907.82 12780.74c-14.49,-160.55 412.23,-2522.55 449.48,-2549.45 25.99,-18.76 659.68,-19.89 698.46,0 46.82,24.03 116.2,161.68 147.17,213.64l675.24 1179.92c118.7,-209.44 181.54,-1279.83 295.74,-1404.17l588.2 0c6.98,115.4 -411.63,2459.74 -456.28,2559.09l-698.7 -0.13c-101.32,-102.92 -222.96,-382.91 -314.53,-531.34 -33.04,-53.53 -63.31,-97.15 -99.18,-155.11 -127.15,-205.47 -275.98,-532.75 -417.18,-691.03l-27.53 63.51c-48.09,146.17 -160.58,1093.88 -239.77,1312.5l-601.12 2.57zm2930.85 -2635.95l-706.21 5.94c-121.97,180.44 -173.53,1163.8 -284.26,1340.37 -61.37,-153.38 -690.92,-1258.98 -761.2,-1346.41l-790.94 16.52 -454.89 2658.54c159.32,16.45 584,34.94 719.93,-15.18 52.49,-225.19 75.62,-431.96 114.96,-652.28l86.3 -503.48c0.97,-4.5 15.55,-59.97 16.85,-63.77 26.13,-76.16 -6.67,-15.15 25.3,-48.96 260.73,442.44 522.76,881.64 754.19,1292.35l810.03 -13.02 469.94 -2670.62z"/>
   <path class="fil3" d="M15216.34 10715.01l-918.88 19.15 -92.37 514.09 839.29 9.08 -87 419.98 -829.42 16.59 -97.91 546.29 905.47 11.68 -91.6 525.57 -1768.19 3.5 437.8 -2582.25 1789.44 7.67 -86.63 508.65zm138.03 -548.39c-146.64,-41.05 -1661,-38.08 -1859.63,-11.72 -56.33,86.83 -467.67,2438.26 -483.25,2672.99l1880.18 -5 98.38 -623.95 -899.7 -13.65 77.43 -441.47c819.7,-65.04 841.79,262.63 925.35,-540.32l-831.65 -4.57 77.83 -413.47 911.47 -6.18 103.59 -612.66z"/>
   <path class="fil3" d="M5300.93 10206.19l788.57 -1.03c-60.4,401.93 -135.45,776.72 -200.09,1166.17 -64.51,388.88 -211.04,846.2 366.22,814.73 686.85,-37.44 466.73,-1075 768.84,-1967.29l800.48 -13.51c-258.52,1172.91 -65.5,2407.59 -1534.15,2618.86 -551.26,79.29 -1220.73,-149.07 -1286.77,-793.77 -17.32,-169 182.64,-1377.95 257.09,-1705.45 21.06,-92.54 2.07,-47.06 39.81,-118.71zm1664.97 -43.35c-69.47,383.58 -135.68,755.77 -203.26,1145.55 -67.71,390.58 -56.43,794.57 -502.94,834.82 -564.62,50.89 -363.45,-506.81 -305.62,-849.61 53.19,-315.46 174.97,-808.99 193.39,-1146.91l-910.31 6.44c-35.77,317.53 -110.93,634.73 -161.22,941.85 -38.07,232.46 -154.81,728.76 -123.07,963.5 78.86,583.2 640.46,906.67 1337.66,812.23 640.57,-86.77 1059.31,-421.62 1241.76,-896.43 89.33,-232.6 297.74,-1498.74 345.26,-1814.97 -176.67,-27.83 -744.05,-33.44 -911.65,3.53z"/>
   <path class="fil3" d="M9417.11 7079.42c11.48,132.58 -146.5,890.88 -193.36,1102.49 -57.09,257.9 -141.56,508.62 3.44,682.38l27.03 30.07c73.35,69.51 141.73,89.6 308.02,76.62 681.15,-53.26 481.99,-1299.49 722.53,-1894.77l730.1 -6.24c-3.6,249.42 -231.26,1411.48 -313.33,1657.67 -158.81,476.47 -635.42,786.4 -1134.39,843.36 -611.3,69.81 -1162.37,-234.87 -1174.48,-818.87 -3.07,-148.5 240.78,-1493.84 294.1,-1676.28l730.34 3.57zm-753.9 -55.6c-79.65,126.01 -143.56,669.67 -178.17,869.39 -47.12,271.71 -141.93,605.46 -133.65,887.49 33.6,1142.6 1948.63,1148.98 2398.78,-34.68 88.26,-232.03 127.38,-579.79 177.6,-840.12 58.27,-301.92 110.33,-598.09 160.08,-893.29l-842.39 16.28c-255.8,622.25 -70.25,1845.55 -678.95,1886.69 -524.56,35.44 -338.85,-447.88 -271.61,-809.52 63.71,-342.49 156.48,-747.92 189.95,-1090.25l-821.64 8.01z"/>
   <path class="fil3" d="M15341.62 12780.14c-10.48,-94.44 385.34,-2427.68 441.74,-2563.77 250.05,-40.91 765.24,-11.18 1045.39,-11.74 716.19,-1.41 1265.72,339.62 945.48,986.22 -136.18,274.99 -362.31,357.08 -555.4,470.81 -69.38,515.36 160.85,554.53 477.98,542.09l-107.45 554.46c-245.42,173.44 -677.31,65.45 -866.93,-113.29 -223.19,-210.41 -199.06,-491.16 -225.46,-855.85l-207.23 -8.47c-229.9,1188.82 -95.68,1003.34 -477.85,1000.37 -156.71,-1.2 -313.66,2.61 -470.27,-0.83zm1925.33 -1061.98c71.25,-114.37 146.37,-75.29 340.33,-239.54 90.23,-76.39 160.58,-174.9 224.92,-310.02 154.88,-325.31 63.27,-615.31 -139.89,-795.15 -344.43,-304.85 -1713.63,-266.8 -1962.61,-209.97l-454.99 2662.91 819.44 1.5c83.96,-48.08 27.99,41.18 73.18,-105.72l75.69 -432.06c85.66,-482.28 37.14,-460.02 190.18,-451.55 122.61,232.27 -69.38,592.91 273.05,879.54 230.89,193.26 622.14,200.2 940.74,92.31l104.85 -654.49c-393.95,-34.6 -483.35,23.97 -484.89,-437.76z"/>
   <path class="fil3" d="M7929.34 8891.69c-40.18,447.31 103.82,519.63 -279.22,626.72 -1633.67,456.75 -1859.26,-1590.02 -724.73,-2278.48 162.95,-98.88 462.83,-217.51 672.27,-227.86 378.33,-18.69 408.5,69.42 714.02,138.73 -15.99,113.66 -130.82,467.63 -185.28,531.74 -301.95,-32.17 -438.9,-180.84 -771.75,12.75 -432.53,251.59 -514.36,1017.53 -171.93,1207.55 316.26,175.5 479.31,11.61 746.62,-11.15zm234.77 -1132.6c43.85,-99.41 185.21,-496.7 198.49,-625.78 -272.98,-97.01 -340.35,-187.31 -717.28,-173.8 -275.42,9.91 -489.2,83.36 -682.05,202.93 -336.65,208.74 -623.15,517.26 -747.99,1012.26 -354.64,1406.25 1142.11,1740.59 1744.7,1254.87l-6.78 -609.46c-236.9,46.12 -465.63,182.24 -733.14,42.08 -347.06,-181.88 -242.31,-954.83 229.6,-1152.99 273.01,-114.66 482.05,1.3 714.45,49.89z"/>
   <path class="fil3" d="M11509.44 7084.42c178.1,-34.6 668.53,-10.21 883.37,-10.31 277.25,-0.17 534.35,-27.33 777.22,80.93 226.33,100.88 355.61,274.51 273.22,586.03 -106.46,402.46 -300.38,342.86 -451.45,445.28 7.94,4.17 18.05,8.18 24.59,10.85 6.41,2.56 16.35,7.27 24.2,10.31l174.36 62.94c47.46,26.39 96.41,86.43 121.07,132.51 65.61,122.61 56.07,296.61 22.2,433.47 -138.16,558.37 -768.05,765.17 -1304.46,744.55 -295.21,-11.35 -695.43,-7.98 -971.95,-63.41 -13.28,-101.38 376.13,-2242.7 427.63,-2433.15zm1630.46 1091.62c137.26,-63.14 159.95,-85.27 240.01,-189.35 67.54,-87.84 112.96,-190.99 135.45,-318.33 53.16,-301.05 -110.66,-475.45 -321.97,-567.69 -258.22,-112.73 -1379.64,-121.17 -1704.71,-76.78 -46.22,69.04 -452.35,2251.61 -480.02,2547.04 284.59,45.96 716.66,53.77 1016.8,65.04 1302.12,48.96 1790.98,-1123.95 1114.44,-1459.93z"/>
   <path class="fil3" d="M11093.26 10706.57c19.72,-141.93 47.12,-392.92 112.73,-485.99l1873.74 -1.27c32.81,132.32 -52.63,328.67 -48.89,487.39l-547.36 10.04c-117.06,396.76 -265.37,1831.1 -389.68,2063.47l-801.15 1.8c-34.07,-260.9 331.38,-1713.2 333.95,-2068.57l-533.34 -6.87zm2070.6 -555.14l-2028.75 0.47 -96.08 610.06 532.74 17.96 -346.23 2048.17 912.98 -10.17c81.03,-138.13 280.42,-1686.97 384.17,-2042.78l533.55 -17.58 107.62 -606.13z"/>
   <path class="fil0" d="M11949.67 8992.94c315.46,9.84 596.65,39.78 655.72,-255.56 61.5,-307.59 -311.36,-306.42 -566.18,-281.52l-89.54 537.08z"/>
   <path class="fil0" d="M16426.36 11251.52c319.13,-9.27 693.33,-10.68 645.07,-377.19 -109.42,-124.15 -360.68,-127.85 -567.78,-99.92l-77.29 477.11z"/>
   <path class="fil0" d="M12148.83 7997.33c125.58,3.77 285,22.83 396.12,-25.93 52.8,-23.12 95.35,-64.97 120.37,-102.51 170.97,-256.4 -89.06,-345.63 -442.03,-305.89 -55.03,96.91 -92.74,304.75 -74.46,434.33z"/>
   <path class="fil3" d="M12148.83 7997.33c-18.28,-129.58 19.43,-337.42 74.46,-434.33 352.97,-39.74 613,49.49 442.03,305.89 -25.02,37.54 -67.57,79.39 -120.37,102.51 -111.12,48.76 -270.54,29.7 -396.12,25.93zm-83.13 59.27c188.29,-0.53 401.5,26.4 546.8,-74.45 202.6,-140.56 259.03,-451.05 -133.32,-484.62 -105.39,-9.01 -215.98,-2.94 -320.34,9.14l-93.14 549.93z"/>
   <path class="fil1" d="M11949.67 8992.94l89.54 -537.08c254.82,-24.9 627.68,-26.07 566.18,281.52 -59.07,295.34 -340.26,265.4 -655.72,255.56zm-65.14 44.55c331.85,49.09 689.76,12.31 751.53,-265.5 89.97,-404.6 -305.42,-371.23 -630.79,-353.98l-120.74 619.48z"/>
   <path class="fil1" d="M16426.36 11251.52l77.29 -477.11c207.1,-27.93 458.36,-24.23 567.78,99.92 48.26,366.51 -325.94,367.92 -645.07,377.19zm-48.99 38.25c306.55,1.27 637.1,-8.48 731.5,-249.52 136.13,-347.63 -407.33,-343.66 -640.8,-306.09l-90.7 555.61z"/>
  </g>
 </g>
</svg>
