<?xml version="1.0" encoding="UTF-8"?>
<!DOCTYPE svg PUBLIC "-//W3C//DTD SVG 1.1//EN" "http://www.w3.org/Graphics/SVG/1.1/DTD/svg11.dtd">
<!-- Creator: CorelDRAW (Versión de evaluación) -->
<svg xmlns="http://www.w3.org/2000/svg" xml:space="preserve" width="200mm" height="200mm" version="1.1" style="shape-rendering:geometricPrecision; text-rendering:geometricPrecision; image-rendering:optimizeQuality; fill-rule:evenodd; clip-rule:evenodd"
viewBox="0 0 20000 20000"
 xmlns:xlink="http://www.w3.org/1999/xlink"
 xmlns:xodm="http://www.corel.com/coreldraw/odm/2003">
 <defs>
  <style type="text/css">
   <![CDATA[
    .fil0 {fill:black}
    .fil3 {fill:#020202}
    .fil9 {fill:#040505}
    .fil11 {fill:#0D0B00}
    .fil8 {fill:#AAA727}
    .fil5 {fill:#F5ED07}
    .fil10 {fill:#F5F21B}
    .fil4 {fill:#F6F20B}
    .fil6 {fill:#FAF10A}
    .fil7 {fill:#FAF20E}
    .fil2 {fill:#FDF100}
    .fil1 {fill:#FDF204}
   ]]>
  </style>
 </defs>
 <g id="Capa_x0020_1">
  <metadata id="CorelCorpID_0Corel-Layer"/>
  <path class="fil0" d="M15511.25 12377.3l198.73 -0.56c57.35,432.58 -111.8,825.83 193.3,823.61 312.52,-2.24 173.98,-586.95 197.55,-819.37l208.23 -2.25c12.72,163.76 16.33,508.1 0.56,662.64 -46.85,458.91 -747.78,437.09 -801.45,39.2 -17.12,-126.94 -15.87,-578.35 3.08,-703.27zm2137.63 363.36l482.2 11.37 11.93 161.39 -490.18 11.41 0.29 243.89 552.73 5.48 -2.87 170.62 -758.81 1.77 -1.13 -963.15 739.87 -7.32 3.05 160.39 -535.93 14.89 -1.15 189.26zm-972.44 -82.82c98.55,119.44 277.52,96.84 437.22,162.14 304.17,124.39 220.42,617.41 -339.26,545.06 -192.19,-24.84 -298.53,-112.67 -304.89,-318.22 362.8,-0.62 104.23,139.82 387.17,154.75 159.92,8.41 219.64,-20.2 212.63,-181.24 -103.36,-46.72 -828.6,-128.73 -546.75,-533.51 152.82,-219.48 704.93,-218.73 715.4,178.72l-184.98 -1.93c-92.29,-231.55 -359.37,-181.74 -376.54,-5.77zm-6319.78 -2153.2c62.62,-203.09 6.67,-699.51 18.33,-950.94l200.22 -13.93 6.05 769.47 18.23 25.97c84.5,-100.4 357.4,-52.02 481.42,-52.37 9.88,-307.41 36.4,-199.41 72.59,-413.31l-141.56 -1.31c28.08,-83.35 4.48,-0.6 41.98,-85.15 78.51,-177.07 -76.86,-89.05 99.58,-263.31l83.72 13.06 729.08 9.5 -1.93 169.68 -525.62 4.4 0.84 199.19 476.31 3.65 13.62 168.31 24.41 72.12c-6.39,4.27 -15.31,3.4 -19.33,12.53 -16.52,37.68 -386.51,31.13 -438.16,31.48 40.08,53.82 106.69,26.9 264.34,23.65 127.44,-2.61 191.31,16.31 307.47,46.63 12.78,-155.68 17.55,-101.92 61.65,-136.17 11.06,9.63 79.91,-11.88 38.06,75.8 -6.46,13.56 -69.2,50.87 -88.65,69.25 5.02,77.36 42.17,252.43 -11.06,307.79 -61.28,63.71 -770.29,28.58 -835.58,23.9 -107.75,-7.73 -758.44,1.19 -837.86,11.38 120.15,24.25 354.13,-0.41 494.76,1.87 45.23,0.72 89.42,1.84 133.93,4.77l122.52 19.7c64.86,14.3 487.25,-61 866,-5.74l31.98 3.31c146.99,11.96 112.21,-49.28 103.54,-138.23l161.67 21.56 -10.69 119.25 -180.81 75.49c-170.67,54.33 -91.91,-54.17 -229.67,25.59 135.98,11.56 302.42,-0.37 400.19,-8.88l39.9 65.45c53.05,-61.53 37.62,-59.16 109.68,-30.2 7.04,-147.52 -17.02,-48.31 39.52,-167.06 -104.54,22.6 0.69,32.29 -88.36,27.11 -48.03,-2.77 -18.08,9.54 -52.33,-40.39 6.11,-2.4 15.92,-10.63 19.01,-4.99l117.32 -47.78c-64.74,-99.89 -53.15,-894.02 -30.77,-1042.28 84.16,0.87 48,-7.2 98.21,32.35l305.14 3.86 175.47 727.09 176.69 -724.06c32.67,-53.71 3.78,-57.07 198.98,-53.83 111.99,1.87 125.83,-6.14 233.01,32.07 -22.91,353.54 -72.18,195.14 17.49,519.04 21.07,-57.22 20.88,-42.04 57.29,-61.68 -35.79,-22.16 -2,36.15 -28.96,-26.62 -22.41,-52.17 -2.9,-3.71 -18.36,-64.58 -1.99,-7.88 -1.53,-15.92 -3.49,-23.65 -1.81,-7.14 -2.99,-14.81 -4.89,-21.42l-27.96 -61.55c52.24,-26.87 -0.31,-21.85 66.01,13.24 12.69,-136.26 23.19,-56.5 52.8,-92.29l79.17 87.77c7.79,-101.29 8.32,-60.99 30.2,-133.52 14.93,-49.53 20.2,-93.44 40.21,-143.5l99.42 48.28 93.26 -25 132.8 7.11 74.28 132.47 99.58 22.75c-7.04,-77.27 -27.52,-125.52 27.43,-163.7 50.55,-35.12 7.45,-39.49 88.92,79.14 58.53,-77.17 39.12,-116.1 39.65,-57.13 116.41,-29.36 65.35,-33.79 175.1,-24.69l203.34 13.31 4.2 365.88c78.11,-35.03 320.51,-278.02 356.25,-364.79 39.71,-71.47 -8.57,-36.34 89.8,-57.69 0.22,-0.06 129.57,0.47 135.55,1.03 118.78,11.34 98.68,36.09 208.64,39.68l750.27 -3.37c61.72,3.24 78.17,-4.27 125.02,-3.86 93.56,0.84 45.5,3.42 136.64,39.58 1.71,-0.22 658.39,-196.23 663.5,257.79l-196.23 8.41c-53.95,-104.19 -52.64,-140.56 -186.76,-146.67 -132.87,-6.05 -184.79,31.23 -185.2,152.53 158.65,166.13 563.42,62.4 601.95,346.09 20.23,148.99 -63.9,251.84 -159.36,306.13 -139.92,79.58 -313.09,25.66 -458.61,40.65l-68.04 70.62c-1.06,3.09 0.62,11.6 -0.44,14.75 -1.09,3.27 -0.28,12.03 -1.74,15.27 -26.34,58.81 -23.69,34.94 -71.81,53.92l-103.39 -0.81c-200.94,95.56 -511.62,-5.39 -705.8,50.62 104.51,38.74 80.57,26.15 204.28,8.88 -5.95,105.25 -29.77,86.55 52.77,123.17 0,212.94 12.09,23.51 -62.99,99.37 105.81,43.54 218.86,124.17 188.44,284.69l-169.81 -0.63c-182.33,-291.17 -436.72,-101.36 -377.53,12.28 89.2,76.3 178.46,78.42 312.86,109.84 197.48,46.16 151.57,73.9 267.42,138.1 41.18,26.28 72.56,-20.57 54.27,254.27 -12.85,192.99 -45.91,120.09 -98.21,210.29 1.46,0.22 3.17,-4.11 3.49,-2.68l42.38 -1.09c2.72,0.31 12.16,1.65 17.83,3.77 6.27,21.7 11.22,125.98 6.7,156.15 -148.32,-6.54 -141.37,18.05 -263.74,-103.5 0.19,3.99 82.72,-8.29 -18.23,33.47 -46.19,19.11 -52.18,18.36 -131.34,10.69l114.16 87.89c-64.51,71.47 -4.2,91.95 -243.32,-16.23 -52.34,-23.66 6.1,-17.8 -38.06,-89.3 -33.23,21.63 -93.04,190.09 -190.41,47.53l-9.47 -72.53c1.46,-2.33 6.95,-7.48 15.27,-10.28 -101.48,-67.67 -63.11,2.09 -74.77,-114.3 -107.78,-37.46 -8.88,-23.25 -131.97,4.37 80.11,-252.87 -45.25,21.01 -39.64,-246.26 -36.34,45.04 52.08,37.53 -149.45,48.28l40.7 -135.33c-46.25,121.05 28.74,63.18 -115.91,82.94 -55.29,7.57 -175.38,17.57 -188.82,-26.53l232.98 4.3c-6.51,99.74 -7.51,44.26 8.48,93.48l48.84 95.59c52.55,-57.48 53.14,-48.06 114.3,-87.93 -31.11,86.84 -199.07,225.72 -290.37,267.05l-162.63 45.22c-20.76,187.48 10.57,81.07 -70.38,174.27 -43.91,50.55 -25.84,34.09 -39.55,67.63 159.67,0.4 16.86,-12.28 79.04,61.46 309.91,-28.2 507.64,132.87 541.55,390.85 19.1,145.55 4.33,283.78 -56.42,401.82 -94.31,183.3 -150.32,129.84 -247.63,215.65 48.72,43.7 24.94,14.62 48.41,95.68 -136.55,27.99 -479.65,7.73 -543.42,-13.99 -95.81,-32.67 -28.14,-18.14 -107.43,31.63 -24.69,-41.76 -69.63,-145.36 -109.93,-189.22 -23.04,131.88 2.68,55.58 0,167.22l-488.12 18.05c91.1,-503.05 24.21,-233.36 28.76,-448.57 1.66,-78.95 30.3,-57.1 37.16,-44.6l-211.26 0c5.14,-3 -14.65,-94.72 31.82,3.7 31.98,67.67 8.2,213.1 7.83,295.45 14.8,-90.7 0.56,-91.7 66.04,-156 23.84,35.56 54.48,-23.94 26.87,201.87 -13.41,109.68 -0.47,85.69 -68.57,156.5 -2.25,-55.48 -122.77,-9.76 -122.8,-9.76 -88.58,13.94 -172.05,0.85 -257.73,0.88 -25.09,-34.41 -27.46,-15.96 -39.65,-70.29 -190.28,159.93 157.18,-70.78 -82.81,48.94l-62.24 30.1c-5.36,-8.04 -12.16,-29.85 -15.9,-24.18 -3.4,5.17 -19.73,-27.46 -33.07,-39.12 -4.8,-4.21 -11.75,-9.47 -16.95,-13.59 -178.32,-140.88 -9.73,-15.92 -118.82,-136.29l-17.42 74.08c-26.24,34.26 -19.73,20.01 -101.26,29.3 70.15,47.16 57.84,18.76 92.28,74.77 -190.68,18.42 3.84,25.15 -228.61,-8.76 -40.09,78.64 -0.88,78.89 -48.53,4.4 -163.7,58.34 -294.54,-10.32 -540.89,41.7 -45.01,-58.72 -78.67,-50.8 -206.74,-32.94l-8.1 -152.63c-20.32,-68.07 -49.34,-52.3 -69.23,-52.83 -0.74,-0.03 -5.89,0.06 -8.41,-1.28 -4.15,-129.38 17.83,-72.84 26.02,-176.57 0.41,-5.11 0.47,-13.21 0.5,-18.04 0.6,-94.07 10.07,-67.17 -68.35,-86.93 -10.13,120.31 41.21,108.28 -30.76,224.38 -77.83,-94.54 21.91,-85.28 -57.16,-202.35 -4.21,4.8 -10.07,6.46 -11.19,15.65l-59.1 173.45c50.25,22.07 97.78,34.97 149.45,70.41l-167.09 61.52c-3.86,-215.02 27.99,-305.04 -17.48,-532.03l43.13 -33.6c48.53,-74.68 23.44,-19.05 25.37,-66.11 -31.04,-54.36 8.76,-32.91 -68.66,-43.42 -1.81,3.9 -4.46,6.08 -4.89,11.97l-12.97 47.1c-24.87,130.68 6.27,149.29 5.33,289.83 -0.97,150.7 12.25,330.85 -5.11,471.48l-222.85 19.2c-68.54,-14.93 -39.8,-14.15 -76.02,-41.24 133.4,-110.55 141.5,-13.56 187.54,-73.03 -264.53,21.29 -180.06,30.86 -199.66,-549.8 -104.07,88.14 -159.27,412.76 -158.93,545.35 4.64,7.45 17.49,28.02 17.89,33.66l-5.45 70.1 -659.46 17.64c-22.03,-45.45 -43.13,-42.39 -79.13,-71.41l-26.56 -20.91c-111.86,62.61 -37.71,-23.32 -234.88,79.57 -166.22,86.77 -285.03,25.71 -527.39,-4.27 -68.7,-8.51 -55.79,7.01 -106.32,-27.8l-28.64 -25.47c-43.01,84.47 2.37,47.5 -71.65,44.85 -58.88,-2.12 -20.14,-92.07 -60.28,7.92l-263.96 23.13c-5.37,-6.17 -12.38,-28.15 -14.59,-21.54l-67.23 -23.84c-72.84,11.03 -13.28,-44.48 -85.34,61.9 -142.47,-125.11 -214.5,-41.49 -545.1,-64.37 -138.54,-9.56 -154.31,-39.11 -160.39,-158.77l-15.77 -942.48c212.44,-102.89 82.1,-52.4 360.24,-43.17l231.11 15.46c55.64,3.02 105.26,-18.2 114.86,-18.58 44.26,-1.65 117.41,41.8 288.24,37.84 112.58,-2.59 193.02,-12.34 254.73,65.73l127.57 -66.04 2.4 -149.64c91.98,18.26 162.33,-1.56 225.29,14.93 113.45,29.7 28.77,51.33 102.1,84.28 121.03,-26.15 -15.11,-15.4 117.66,-63.3 81.94,-29.55 110.59,-15.65 172.61,12.56 -98.37,-174.73 108.84,126.88 -35.09,-41.39 -53.93,-63.03 10.03,52.08 -52.8,-68.54 33.75,-90.92 -13.31,-21.6 61.65,-79.29 -129.51,19.85 -42.73,-5.74 -79.45,52.76 -9.63,-6.57 -20.7,-28.8 -27.58,-21.57l-121.71 -66.2c-14.19,26.19 -20.14,38.43 -35.29,70.41l-72.84 -70.59c-69.5,100.33 38.03,143.62 -208.54,149.63 -79.57,-128.63 -28.58,-53.14 -167.22,-121.02l-144.59 55.73c-116.35,-75.74 -262.4,-49.09 -409.57,-49.15 -381.34,-0.16 -203.9,-22.88 -448.64,85.86l-92.28 -138.38c73.24,-42.2 90.79,-139.35 140.56,-189.38l-105.03 139.54c-3.81,4.02 -9.48,9.13 -13.37,12.9 -5.58,5.3 -23.29,17.24 -28.93,22.23l-76.95 85.83c-31.2,23.82 11.03,41.21 -167.03,12.28 -17.58,32.32 -13.5,32.7 -22.78,50.28l-19.24 34c-2.05,3.62 -6.76,11.56 -10.78,16.89l-220.54 3.74c-154.1,-29.82 -139.54,-35.59 -192.78,88.58 168.99,23.5 18.98,33.48 118.69,-35.15l1.9 78.42c22.63,62.74 30.61,-29.08 26.03,116.22 -4.3,136.2 25.93,257.95 -5.93,399.04l-70.56 -17.64c0,127.23 17.2,-1.71 -53.39,41.21l-84.68 74.43c153.47,94.65 71.56,256.17 139.16,439.71 -430.99,21.23 -146.89,-128.91 -268.95,-291.45l0 159.74c-28.02,83.03 -5.86,25.28 -48.65,73.37 -51.58,-85.31 -37.99,-123.96 -52.8,-233.11 -83.28,137.7 135.3,506.29 -145.06,325.68l-9.59 77.51c-88.52,-14.12 -79.05,-88.73 -56.57,14.65l-395.71 15.46 -52.77 -107.75c-102.04,20.85 -26.77,19.7 -167.31,-28.21 -60.12,-3.49 -305.54,12.41 -383.71,26.81l-133.65 45.5c-5.08,1.97 -13.03,5.55 -17.64,7.58l-300.49 -49.5c-3.61,7.89 16.21,16.62 -26.37,72.59 -103.88,-5.17 -20.23,7.48 -69.13,-5.3 -70.69,-18.45 -74.36,-48.93 -74.36,-48.8 -0.44,3.52 -6.74,-19.3 -7.02,-26.06 -8.66,-205.49 -13.24,149.01 4.12,-62.31 -210.48,93.6 -252.5,30.49 -426.82,65.27l-134.21 48.68c2.65,2.84 8.04,5.24 9.42,12.97l47.15 46.47c-52.3,-6.04 -63.7,-28.49 -123.33,-30.85 -87.71,-3.53 -143.47,85.99 -259.1,-57.38l-20.79 -30.67c-28.73,-40.87 -16.17,-19.83 -41.14,-61.44 -69.47,134.96 12.62,-13.55 -70.28,61.37 65.86,4.21 107.65,-11.87 57.16,96.97 -57.6,-12.44 -23.66,-8.01 -78.08,-49.22l-50.15 26.15c-34,36.06 -261.46,34.19 -320.25,31.67l17.36 -129.75 13.87 -314.49 -3.14 266.43c-20.23,91.79 -12.69,50.21 -54.61,92.1 -74.62,-120.09 -52.64,-210.29 -52.64,-358.53 2.12,3.9 100.54,-12.65 -6.3,32.17 -75.55,31.66 -5.52,10.88 -99.27,20.63 14.24,-101.29 1.25,-142.75 52.64,-114.32 -69.35,-75.71 -10.94,-35.94 -109.93,-74.65 17.24,125.73 52.96,312.27 13.13,452.96 -1.78,-81.06 -1.1,-158.02 -1.44,-238.68 -0.78,-180.74 27.4,-140.6 -103.97,-187.91 -45.2,84.74 -10.73,70.66 -35.29,145.21 -3.14,-8.2 -13.18,-35.78 -16.02,-39.61 -37.59,-51.37 13.12,-5.46 -32.38,-30.92 149.54,-154.16 -25.25,-50.43 165.03,-175.85l-17.45 -86.4c-8.54,-30.45 19.82,-16.49 -24.37,-45.66l-101.05 26.37c-28.8,-136.99 84.65,-183.05 -26.52,-433.02 -41.49,52.99 -74.93,-138.45 -8.54,149.7 9.25,40.27 13.34,17.98 7.6,70.16 -12.19,110.4 -27.96,-8.76 -42.98,169.4 -66.42,9.32 -95.09,20.22 -149.7,26.4 -39.71,-85.65 -22.47,-8.76 -17.52,-127.7 -35.18,160.58 -152.1,1.68 -316.79,92.41l1.06 606.97c86.06,-23.03 45.63,-21.32 139.76,-8.92l-26.77 131.91c-171.12,73.3 -258.92,104.63 -580.16,74.99 21.94,-71.16 -11.57,-39.31 88.05,-74.81 -46.6,-204.68 7.23,-114.85 35.15,-149.45 0.16,50.31 8.54,11.66 -52.64,21.76 15.02,-214.5 35.38,-414.16 -0.16,-628.85l-21.88 237.69c-0.15,34.04 -4.23,97.03 -6.57,132.12l19.2 289.33c-12.81,220.42 -260.5,162.39 -396.18,156.97 -2.96,-17.15 -10.25,-31.64 -12.06,-27.77l-40.24 -80.04c-26.12,-125.11 3.12,44.04 9.26,-101.46 33.07,86.53 2.15,-29.92 -30.42,61.87 -19.51,54.98 -8.64,107.41 -4.99,166.88 -7.42,-4.68 -44.1,-32.82 -48.53,-35.13 -103.88,-54.05 25.03,-14.87 -28.64,-17.39 -15.27,-0.72 63.05,-59.47 -15.52,10.75l-18.8 30.98c-2.4,3.65 -7.07,13.53 -11.56,19.67l-16.05 -79.26c-91.17,24.72 -57.79,3.3 -120.28,66.14 -327.76,-72.94 -55.45,69.84 -382.55,-30.8 -21.98,35.47 -12.85,56.73 -61.94,40.86 -137.51,-44.38 -33.41,-66.98 -56.88,-322.37l177.19 -22.41 13.5 136.86 339.82 -890.31 239.5 -6.92c229.21,46.91 80.79,-37.87 258.51,-81.91 181.8,-45.04 744.1,-17.86 933.01,20.1 -39.02,-195.23 16.02,-72.52 -188.88,-73.58 -75.21,-0.41 -36.84,2.3 -79.38,-23.07 39.11,-6.39 58,-5.83 85.74,-10.5l116.47 -42.3 -518.66 -43.66c-62.15,2.46 -130.94,-0.22 -193.84,-0.22 151.82,-44.51 536.28,-25.74 738.9,-17.77 7.27,-62.92 8.39,14.78 49.84,-101.07 54.7,-153.01 -49.53,-51.18 99.74,-110.03 -9.88,-302.98 30.32,-511 2.18,-756.41 -124.77,-2.31 -64.14,38.9 -169.15,-26.37 20.95,-163.35 28.43,-110.49 87.8,-211.1 -4.95,-3.62 -15.05,-13.84 -16.24,-8.6l-36.56 -149.73 -125.79 -17.18c-7.26,-2.8 -29.05,-17.39 -35.91,-20.94l-44.88 -23.44c-187.63,168.21 -139.76,-125.23 -229.18,-137.3 -5.51,-0.74 -46.41,-3.46 -55.2,-3.64l-192.27 -20.95 -10.01 -791.13 -299.64 -5.02 -6.33 -167.78c38.96,-64.64 -4.3,-35.84 90.79,-54.76l745.91 2.65c129.69,17.45 27.28,-10.26 103.32,39.55l205.53 14.12 5.83 359.71 381.09 3.15 5.14 -365.88 200.56 -13.84c8.2,0 20.54,-5.83 24.41,3.27l60.68 14.62c60.66,7.85 54.42,-11.78 103.61,-15.55 67.22,-85.47 236.69,-19.7 330.13,-13.44l20.91 804.54 15.74 -105.97c379.25,-15.83 80.23,116.97 359.15,145.49 156.34,15.99 254.58,-2.46 241.64,-158.08 -116.72,-102.95 -274.99,-81.48 -436.57,-147.4 -142.03,-57.97 -212.94,-230.73 -111.92,-397.26 137.95,-227.4 730.52,-217.03 723.6,168.46l-179.1 0.56c-57.03,-89.58 -52.23,-134.08 -187.88,-144.99 -147.48,-11.91 -195.2,29.14 -202.18,153.41 105.47,95.81 248.97,81.97 409.2,135.89 202.84,68.19 179.72,149.92 202.5,364.57 20.73,89.64 23.87,73.84 -10.63,156.9 2.37,-2.12 -11.65,-44.35 53.14,-19.2 70.88,27.49 33.13,7.29 72.22,72.12 -50.74,85.72 -23.94,67.48 -138.36,79.17 34.2,79.51 -1.05,26.09 57.88,66.95l138.33 54.89c159.33,17.17 454.18,-38.68 566.63,24.81 45.07,25.43 9.04,6.54 47.5,25.49 43.45,21.41 34.63,-3.4 65.24,39.49 1.3,1.87 5.26,8.2 6.35,10.32 8.26,16.33 -12.49,98.77 107.44,121.24l-10.6 10.01c1.94,-15.56 -4.33,0.99 10.88,-36.41l137.67 18.11 47.06 -8.1c-39.17,-37.75 -23.25,-21.04 -44.04,-93.69 84.94,-10.98 315.55,-20.76 408.96,-22.01l-368.75 -30.45c47.87,-78.73 7.39,-0.81 37.37,-45.47l21.57 -34.01c1.21,-3.65 9.72,-90.73 10.66,-145.05 -117.51,7.35 -258.88,26.3 -404.59,48.24l242.79 33.6c-63.24,51.4 -109.61,50.18 -219.23,35 -136.73,-18.91 -15.24,-30.63 -142.38,15.09 -22.62,-29.61 -45.94,-55.57 -57.16,-101.33 11.94,1.65 45.1,9.48 51.49,8.39l-29.8 -93.63c18.11,-23.1 33.17,-1.31 18.11,-73.09 -27.95,8.13 -1.09,0.5 -28.36,16.83 -47.72,28.61 34.32,-8.01 -46.56,27.21l-36.22 -127.91c-9.41,-42.83 -3.8,-68.39 5.45,-96.47 97.4,107.62 -25.24,-36.84 15.49,57.82 37.09,86.12 12,32.79 68.04,60.99 -25.4,-110.92 -14.93,-126.82 8.23,-231.95 -0.44,-173.07 -149.17,-412.88 -179.18,-619.74 99.55,-0.97 127.04,-10.35 203.62,18.76l218.42 685.45 207.99 -699.6c18.2,-33.82 -48.78,-88.2 278.08,-46.38l525.11 -8.01c120.09,-0.25 233.3,-22.78 304.8,38.84l188.53 -0.69 195.27 13.5 8.26 359.49 381.25 8.32 -5.71 -361.86c25.9,-54.67 -76.48,-63.3 139.14,-61.87 67.1,0.47 129.37,19.83 204.61,26.15 78.98,-22.19 -53.61,-95.93 299.03,-65.89 -43.61,148.92 -18.8,-18.95 -15.93,85.78 87.02,-22.26 68.7,-94.47 68.73,406.86 1.59,-223.1 -4.09,-62.61 52.89,-129.75 0.31,-60.99 -9.88,-1.34 55.38,-28.58 36.63,-35.56 64.3,-100.05 113.52,-147.83 76.89,-74.65 108.46,-60.65 174.29,-105.13 -68.94,-29.98 -4.71,-4.74 -52.8,-81.35 451.16,-38.46 336.55,25.75 589.33,92.29l-42.05 -102.1c78.7,-38.68 24.84,-7.61 42.05,-34.35 5.48,48.75 7.88,96.53 36.74,118.81 49.56,38.27 -3.18,14.65 47.97,4.36l90.98 -35 -38.37 1039.39c-3.71,3.52 -12.28,10.54 -16.55,14.81 -37.18,37.02 -10.19,-16.71 -46.1,54.91 -62.02,123.74 -4.58,130.66 -4.39,131.07 88.33,-31.55 11.41,57.16 73.18,-128.85l27.18 -97.99zm-9561.18 -4095.16l14.62 -42.24c64.26,-176.31 161.13,-230.95 394.58,-230.23 5863.1,17.89 11738.3,-14.12 17602.09,0.03 219.29,0.53 309.9,64.98 369.74,229.02 9.1,8.45 12.25,-3.62 28.9,33.44 18.23,40.61 14.11,9.45 9.35,64.93 66.23,71.78 66.13,122.42 74.83,255.6l2.09 2096.39 -18596.91 -4.11c-2.52,-415.6 -0.37,-831.84 -0.37,-1247.5 0,-275.34 -56.26,-999.74 101.08,-1155.33zm-303.08 236.65l0 6737.83c72.78,139.11 50.24,258.6 190.47,455.8 85.21,119.84 214.28,219.83 390.72,229.9 394.4,22.47 863.35,0.12 1266.04,0.12l15305.54 0c405.52,0 867.75,20.85 1266.13,-0.03 462.29,-24.22 518.3,-575.89 581.1,-698.66l0 -6712.74c-76.36,-153.38 -104.38,-677.43 -579.32,-710.56 -383.43,-26.78 -872.83,-0.78 -1267.91,-0.78l-15305.54 -0.13c-394.15,0 -885.79,-26.27 -1267.94,1.09 -464.09,33.26 -493.48,536.87 -579.29,698.16zm8940.25 6354.78c-142.09,-810.99 838.11,-841.54 935.2,-290.14 142.72,810.49 -836.05,855.96 -935.2,290.14zm4159.9 352.1l-176.16 -0.93 -8.45 -968.55 205.06 -3.7 3.96 363.6 386.07 -2.21 3.28 -361.92 200.66 -0.63 6.45 964.18 -206.77 4.05 -3.8 -425.38 -389.42 -0.9c0.32,138.6 24.88,306.85 -20.88,432.39zm-4711.6 -10.87l-208.17 1.37 -168.96 -715.21 -15.43 715.08 -189.56 6.45 -5.3 -972.34 311.4 -0.94 165.06 719.02 193.49 -720.08 288.21 -0.78 10.91 974.84 -191.68 -3.95 -5.99 -731.83 -183.98 728.37zm-6300.98 -962.13l805.6 -4.55 6.57 166.38 -294.53 7.85 -4.15 800.52 -206.21 1.93 -11.22 -800.55 -293.82 -6.54 -2.24 -165.04zm9678.62 277.83c92.98,117.54 265.77,96.28 427.1,156.65 166.28,62.25 243.26,258.92 126.57,419.09 -148.73,204.18 -752.89,224.47 -764.64,-182.3l161.42 -4.96c2.68,0.87 169.42,298.4 444.67,88.99 12.53,-215.59 -169.87,-143.22 -420.27,-236.26 -150.82,-56.07 -238.84,-214.78 -142.97,-387.04 137.92,-247.82 714.84,-251 734.79,151.97 -350.86,3.65 -118.97,-118.22 -352.29,-142.81 -146.62,-15.46 -202.91,16.02 -214.38,136.67zm-4698.91 -1695.25l202.87 -4.87c7.67,253.03 -98.59,804.51 173.36,826.86 199.31,16.36 210.04,-114.95 210.91,-287.4 0.87,-177.41 -2.18,-354.88 0.87,-532.29l213.35 -5.45c12.84,471.2 121.05,997.16 -400.57,997.53 -509.82,0.4 -416.13,-452.09 -400.79,-994.38zm6849.35 639.69c-158.43,598.24 -1116.6,435.04 -927.56,-339.92 136.45,-559.5 1124.41,-403.53 927.56,339.92zm401.53 -10.32l-6.48 337.64 -215.31 -7.54 8.01 -961.87c380.72,-12.97 806.16,-69.91 751.99,379.53 -34.62,287.34 -277.77,213.09 -538.21,252.24zm-9591.1 -121.62c176.04,205.06 53.05,208.46 135.92,458.45 -107.37,6.3 -148.26,23.82 -230.98,-30.2l-27.74 -283.16c-96.22,-73.46 -177.85,-73.99 -340.73,-52.24l-8.07 367.13 -204.03 4.24 0.16 -976.37c175.13,0.63 558.4,-35.5 683.73,52.64 190.65,134.06 141.75,314.3 -8.26,459.51zm4468.49 460.6l-199.13 -2.27 0.37 -961.88 227.12 -9.13c57.23,116.57 131.41,223.98 183.27,315.08l134.96 234.76c4.42,6.88 17.27,27.17 22.38,33.41 27.43,33.25 18.98,20.1 48.68,44.72l3.31 -623.95 185.51 -4.95 15.11 885.98c-9.78,131.4 -58.78,93.81 -205.42,90.88 -84.63,-101.45 -359.96,-626.57 -412.67,-658.61l-3.49 655.96zm2898.09 -961.53l812.18 -7.1 2.18 166.18 -291.23 6.86 -8.14 783.44 -214.12 9.66 -1.53 -787.68 -300.27 -12.53 0.93 -158.83zm-2168.85 -0.25l813.86 -2.68 1.27 158.65 -300.08 13.24 -3.74 795.07 -208.98 0.22 -1.03 -791.39 -300.87 -14.37 -0.43 -158.74zm-1637.29 361.89l477.22 7.42 6.82 169.12 -474.16 -0.03 -11.03 242.8 557.81 6.79 -8.13 175.13 -747.47 1.53 -8.23 -974.37 721.23 -3.4 19.76 175.48 -527.77 3.21 -6.05 196.32zm-3024.48 -5.14l483.61 14.43 3.8 156.68 -482.45 12.6 -5.45 236 554.26 11.87 -0.63 171.96 -759.87 4.05 -0.1 -973.72 733.42 -0.68 2.06 172.42 -526.12 4.49 -2.53 189.9zm-1858.85 25.9l435.13 2.28c-0.75,142.4 9.98,147.92 -64.98,165.06 -10.76,2.47 -113.92,1.16 -132.31,0.88 -80.82,-1.25 -160.27,-0.97 -241.05,1.4l-2.78 400.1 -207.51 10.54 0.06 -967.18 711.78 -4.58 1 163.73 -496.44 10.91 -2.9 216.86zm8013.5 -118.97c81.63,133.78 287.28,104.51 443.74,171.65 153.69,65.95 211.69,234.04 125.73,389.07 -132.49,238.96 -789.67,248.5 -776.98,-162.79 360.73,1.3 120.83,132.99 375.45,153.44 130.81,10.53 234.57,-17.49 230.23,-155.53 -53.48,-127.82 -789.67,-74.93 -569.19,-523.31 122.09,-248.26 701.35,-275.12 740.87,137.85 -346.9,16.46 -122.34,-109.05 -352.58,-138.16 -137.79,-17.46 -198.57,16.42 -217.27,127.78zm-2725.39 -1699.77l-20.69 977.96 -201.88 -1 3.24 -966.21 219.33 -10.75zm-4800.33 -1.93l213 10.53 1.12 970.01 -207.27 -6.45 -6.85 -974.09zm3405.88 -1l-15.28 182.36 -517.32 3.21 2.37 201.47 478.71 10.54 -4.55 159.45 -476.22 2.62 1.87 246.1 547.37 3.8 2.74 171.02 -761.09 -0.5 6.67 -968.79 734.73 -11.28zm1859.26 -1.5c306.54,-17.64 539.36,43.42 556.01,332.94l-186.7 -1.78c-79.57,-94.66 -137.26,-220.04 -327.23,-140.82 -202.16,84.28 -220.42,608.9 67.32,637.76 206.46,20.7 166.37,-123.3 286.31,-177.93l155.25 3.46c-23.6,469.42 -1016.24,624.88 -838.77,-400.67 -65.26,27.24 -55.07,-32.41 -55.38,28.58 -56.98,67.14 -51.3,-93.35 -52.89,129.75 -0.03,-501.33 18.29,-429.12 -68.73,-406.86 -2.87,-104.73 -27.68,63.14 15.93,-85.78 -352.64,-30.04 -220.05,43.7 -299.03,65.89 -75.24,-6.32 -137.51,-25.68 -204.61,-26.15 -215.62,-1.43 -113.24,7.2 -139.14,61.87l221.64 -1.34 -9.01 964.18 -196.3 -3.86 -9.94 -430.96 -382.96 7.79 -1.62 424.91 -207.7 0.28 6.82 -980.45 -188.53 0.69c-71.5,-61.62 -184.71,-39.09 -304.8,-38.84l-525.11 8.01c-326.86,-41.82 -259.88,12.56 -278.08,46.38l234.25 2.87 -340.97 961 -192.75 2.65c-36.81,-86.96 -86.08,-286.81 -151.38,-351.39 -23.16,105.13 -33.63,121.03 -8.23,231.95 -56.04,-28.2 -30.95,25.13 -68.04,-60.99 -40.73,-94.66 81.91,49.8 -15.49,-57.82 -9.25,28.08 -14.86,53.64 -5.45,96.47l36.22 127.91c80.88,-35.22 -1.16,1.4 46.56,-27.21 27.27,-16.33 0.41,-8.7 28.36,-16.83 15.06,71.78 0,49.99 -18.11,73.09l29.8 93.63c-6.39,1.09 -39.55,-6.74 -51.49,-8.39 11.22,45.76 34.54,71.72 57.16,101.33 127.14,-45.72 5.65,-34 142.38,-15.09 109.62,15.18 155.99,16.4 219.23,-35l-242.79 -33.6c145.71,-21.94 287.08,-40.89 404.59,-48.24 -0.94,54.32 -9.45,141.4 -10.66,145.05l-21.57 34.01c-29.98,44.66 10.5,-33.26 -37.37,45.47l368.75 30.45c-93.41,1.25 -324.02,11.03 -408.96,22.01 20.79,72.65 4.87,55.94 44.04,93.69 658.77,-98.37 793.23,359.77 579.45,834.3 72.84,83.53 60.34,17.36 82.56,137.33 -110.4,94.59 -115.88,44.47 -213.53,-17.43 -819.22,196.99 -880.81,-572.58 -567.13,-870.64l71.59 -75.46 -137.67 -18.11c-15.21,37.4 -8.94,20.85 -10.88,36.41l10.6 -10.01c-119.93,-22.47 -99.18,-104.91 -107.44,-121.24 -1.09,-2.12 -5.05,-8.45 -6.35,-10.32 -30.61,-42.89 -21.79,-18.08 -65.24,-39.49 -38.46,-18.95 -2.43,-0.06 -47.5,-25.49 -112.45,-63.49 -407.3,-7.64 -566.63,-24.81l-138.33 -54.89c-58.93,-40.86 -23.68,12.56 -57.88,-66.95 114.42,-11.69 87.62,6.55 138.36,-79.17 -39.09,-64.83 -1.34,-44.63 -72.22,-72.12 -64.79,-25.15 -50.77,17.08 -53.14,19.2 34.5,-83.06 31.36,-67.26 10.63,-156.9 -35.38,30.73 -2.84,-2.18 -43.7,43.7 -100.02,112.33 -171.61,162.91 -389.38,155.71 -231.83,-7.66 -267.05,-74.36 -367.31,-182.36l-33.79 -31.73 -20.91 -804.54c-93.44,-6.26 -262.91,-72.03 -330.13,13.44 -49.19,3.77 -42.95,23.4 -103.61,15.55l-60.68 -14.62c-3.87,-9.1 -16.21,-3.27 -24.41,-3.27l6.14 982.88 -208.48 -4.55 -2.49 -428 -381.96 3.05 -11.19 428.97 -203.16 -2.28 2.99 -977.33c-76.04,-49.81 26.37,-22.1 -103.32,-39.55l-745.91 -2.65c-95.09,18.92 -51.83,-9.88 -90.79,54.76l813.73 -2.84 5.86 172.39 -298.71 3.37 -12.63 811.96c8.79,0.18 49.69,2.9 55.2,3.64 89.42,12.07 41.55,305.51 229.18,137.3l44.88 23.44c6.86,3.55 28.65,18.14 35.91,20.94l125.79 17.18 36.56 149.73c1.19,-5.24 11.29,4.98 16.24,8.6 -59.37,100.61 -66.85,47.75 -87.8,211.1 105.01,65.27 44.38,24.06 169.15,26.37 28.14,245.41 -12.06,453.43 -2.18,756.41 -149.27,58.85 -45.04,-42.98 -99.74,110.03 -41.45,115.85 -42.57,38.15 -49.84,101.07 -202.62,-7.97 -587.08,-26.74 -738.9,17.77 62.9,0 131.69,2.68 193.84,0.22l518.66 43.66 -116.47 42.3c-27.74,4.67 -46.63,4.11 -85.74,10.5 42.54,25.37 4.17,22.66 79.38,23.07 204.9,1.06 149.86,-121.65 188.88,73.58 -188.91,-37.96 -751.21,-65.14 -933.01,-20.1 -177.72,44.04 -29.3,128.82 -258.51,81.91l349.95 972.88 -226.09 8.38 -63.02 -200.56 -351.48 -0.32 -95.28 200.66 -168.59 0c-52.86,-46.28 -12.41,20.45 -24.81,-83.81l-13.5 -136.86 -177.19 22.41c23.47,255.39 -80.63,277.99 56.88,322.37 49.09,15.87 39.96,-5.39 61.94,-40.86 327.1,100.64 54.79,-42.14 382.55,30.8 62.49,-62.84 29.11,-41.42 120.28,-66.14l16.05 79.26c4.49,-6.14 9.16,-16.02 11.56,-19.67l18.8 -30.98c78.57,-70.22 0.25,-11.47 15.52,-10.75 53.67,2.52 -75.24,-36.66 28.64,17.39 4.43,2.31 41.11,30.45 48.53,35.13 -3.65,-59.47 -14.52,-111.9 4.99,-166.88 32.57,-91.79 63.49,24.66 30.42,-61.87 -6.14,145.5 -35.38,-23.65 -9.26,101.46l40.24 80.04c1.81,-3.87 9.1,10.62 12.06,27.77 135.68,5.42 383.37,63.45 396.18,-156.97l-19.2 -289.33c2.34,-35.09 6.42,-98.08 6.57,-132.12l21.88 -237.69c35.54,214.69 15.18,414.35 0.16,628.85 61.18,-10.1 52.8,28.55 52.64,-21.76 -27.92,34.6 -81.75,-55.23 -35.15,149.45 -99.62,35.5 -66.11,3.65 -88.05,74.81 321.24,29.64 409.04,-1.69 580.16,-74.99l26.77 -131.91c-94.13,-12.4 -53.7,-14.11 -139.76,8.92l-1.06 -606.97c164.69,-90.73 281.61,68.17 316.79,-92.41 -4.95,118.94 -22.19,42.05 17.52,127.7 54.61,-6.18 83.28,-17.08 149.7,-26.4 15.02,-178.16 30.79,-59 42.98,-169.4 5.74,-52.18 1.65,-29.89 -7.6,-70.16 -66.39,-288.15 -32.95,-96.71 8.54,-149.7 111.17,249.97 -2.28,296.03 26.52,433.02l101.05 -26.37c44.19,29.17 15.83,15.21 24.37,45.66l17.45 86.4c-190.28,125.42 -15.49,21.69 -165.03,175.85 45.5,25.46 -5.21,-20.45 32.38,30.92 2.84,3.83 12.88,31.41 16.02,39.61 24.56,-74.55 -9.91,-60.47 35.29,-145.21 131.37,47.31 103.19,7.17 103.97,187.91 0.34,80.66 -0.34,157.62 1.44,238.68 39.83,-140.69 4.11,-327.23 -13.13,-452.96 98.99,38.71 40.58,-1.06 109.93,74.65 -51.39,-28.43 -38.4,13.03 -52.64,114.32 93.75,-9.75 23.72,11.03 99.27,-20.63 106.84,-44.82 8.42,-28.27 6.3,-32.17 0,148.24 -21.98,238.44 52.64,358.53 41.92,-41.89 34.38,-0.31 54.61,-92.1l3.14 -266.43c-51.21,-224.31 -290.51,-465.34 -322.18,-651.56l226.37 2.4c74.25,134.92 145.28,345.8 222.76,379.87l184.39 -382.27 227.09 1.96c-21.97,83.06 -158.05,307.13 -211.97,401.23 -143.78,250.99 -97.56,233.16 -108.69,552.6l-231.64 10.26 -17.36 129.75c58.79,2.52 286.25,4.39 320.25,-31.67l50.15 -26.15c54.42,41.21 20.48,36.78 78.08,49.22 50.49,-108.84 8.7,-92.76 -57.16,-96.97 82.9,-74.92 0.81,73.59 70.28,-61.37 24.97,41.61 12.41,20.57 41.14,61.44l20.79 30.67c115.63,143.37 171.39,53.85 259.1,57.38 59.63,2.36 71.03,24.81 123.33,30.85l-47.15 -46.47c-1.38,-7.73 -6.77,-10.13 -9.42,-12.97l134.21 -48.68c-96.96,-90.04 -147.24,-52.7 -237.9,-198.13 -156.12,-250.35 -115.67,-781.73 310.21,-828.92 636.48,-70.53 740.83,686.85 354.51,961.78 -17.36,211.32 -12.78,-143.18 -4.12,62.31 0.28,6.76 6.58,29.58 7.02,26.06 0,-0.13 3.67,30.35 74.36,48.8 48.9,12.78 -34.75,0.13 69.13,5.3 42.58,-55.97 22.76,-64.7 26.37,-72.59l300.49 49.5c4.61,-2.03 12.56,-5.61 17.64,-7.58l133.65 -45.5c-204.24,-177.75 -318.57,-90.92 -250.28,-993.36l210.73 -7.94c26.46,212.87 -45.2,561.14 32.29,728.73 84.93,154.88 324.8,133.68 349.02,-76.61 23.25,-202 -14.15,-440.93 10.06,-646.51l195.8 -8.26c25,158.52 11.53,383.27 10.85,548.05 -0.84,207.05 -11.22,275.78 -127.29,383.12l-47.47 45.97c140.54,47.91 65.27,49.06 167.31,28.21l52.77 107.75 395.71 -15.46c-22.48,-103.38 -31.95,-28.77 56.57,-14.65l9.59 -77.51c280.36,180.61 61.78,-187.98 145.06,-325.68 14.81,109.15 1.22,147.8 52.8,233.11 42.79,-48.09 20.63,9.66 48.65,-73.37l0 -159.74c-38.55,-71.78 -18.7,-71.81 -126.1,-83.03 -65.74,-6.86 -143.41,0.34 -208.77,7.42l-3.55 365.22 -206.89 2 -4.43 -821.03c-0.9,-147.42 -19.73,-149.92 129.22,-150.97 418.4,-2.9 777.15,-57.2 634.99,457.7 70.59,-42.92 53.39,86.02 53.39,-41.21l70.56 17.64c31.86,-141.09 1.63,-262.84 5.93,-399.04 4.58,-145.3 -3.4,-53.48 -26.03,-116.22l-1.9 -78.42c-99.71,68.63 50.3,58.65 -118.69,35.15 53.24,-124.17 38.68,-118.4 192.78,-88.58l220.54 -3.74c4.02,-5.33 8.73,-13.27 10.78,-16.89l19.24 -34c9.28,-17.58 5.2,-17.96 22.78,-50.28 178.06,28.93 135.83,11.54 167.03,-12.28l76.95 -85.83c5.64,-4.99 23.35,-16.93 28.93,-22.23 3.89,-3.77 9.56,-8.88 13.37,-12.9l105.03 -139.54c-49.77,50.03 -67.32,147.18 -140.56,189.38l92.28 138.38c244.74,-108.74 67.3,-86.02 448.64,-85.86 147.17,0.06 293.22,-26.59 409.57,49.15l144.59 -55.73c138.64,67.88 87.65,-7.61 167.22,121.02 246.57,-6.01 139.04,-49.3 208.54,-149.63l72.84 70.59c15.15,-31.98 21.1,-44.22 35.29,-70.41l121.71 66.2c6.88,-7.23 17.95,15 27.58,21.57 36.72,-58.5 -50.06,-32.91 79.45,-52.76 -74.96,57.69 -27.9,-11.63 -61.65,79.29 62.83,120.62 -1.13,5.51 52.8,68.54 143.93,168.27 -63.28,-133.34 35.09,41.39 -62.02,-28.21 -90.67,-42.11 -172.61,-12.56 -132.77,47.9 3.37,37.15 -117.66,63.3 -73.33,-32.95 11.35,-54.58 -102.1,-84.28 -62.96,-16.49 -133.31,3.33 -225.29,-14.93l-2.4 149.64 -127.57 66.04c-61.71,-78.07 -142.15,-68.32 -254.73,-65.73 -170.83,3.96 -243.98,-39.49 -288.24,-37.84 -9.6,0.38 -59.22,21.6 -114.86,18.58l-231.11 -15.46c-278.14,-9.23 -147.8,-59.72 -360.24,43.17l15.77 942.48c6.08,119.66 21.85,149.21 160.39,158.77 330.6,22.88 402.63,-60.74 545.1,64.37 72.06,-106.38 12.5,-50.87 85.34,-61.9l67.23 23.84c2.21,-6.61 9.22,15.37 14.59,21.54l263.96 -23.13c40.14,-99.99 1.4,-10.04 60.28,-7.92 74.02,2.65 28.64,39.62 71.65,-44.85l28.64 25.47c50.53,34.81 37.62,19.29 106.32,27.8 242.36,29.98 361.17,91.04 527.39,4.27 197.17,-102.89 123.02,-16.96 234.88,-79.57l26.56 20.91c36,29.02 57.1,25.96 79.13,71.41l659.46 -17.64 5.45 -70.1c-0.4,-5.64 -13.25,-26.21 -17.89,-33.66l-225.19 -1.72c-68.6,-222.91 -76.3,-569.72 -180.8,-721.85l-1.84 724.47 -199.85 -6.48 -0.63 -954.65c101.36,-17.64 230.24,-22.59 311.78,8.54l170.74 701.5 187.47 -707.04 305.04 -12.72 -8.13 974.4c-46.04,59.47 -54.14,-37.52 -187.54,73.03 36.22,27.09 7.48,26.31 76.02,41.24l222.85 -19.2c17.36,-140.63 4.14,-320.78 5.11,-471.48 0.94,-140.54 -30.2,-159.15 -5.33,-289.83l12.97 -47.1c0.43,-5.89 3.08,-8.07 4.89,-11.97 77.42,10.51 37.62,-10.94 68.66,43.42 74.53,-35.44 38,-3.58 85,-63.11 -37.84,-133.47 -99.74,45.84 -91.6,-224.48l189.28 -3.33c22.91,224.35 -12.75,358.37 -208.05,357.03l-43.13 33.6c45.47,226.99 13.62,317.01 17.48,532.03l167.09 -61.52c-51.67,-35.44 -99.2,-48.34 -149.45,-70.41l59.1 -173.45c1.12,-9.19 6.98,-10.85 11.19,-15.65 79.07,117.07 -20.67,107.81 57.16,202.35 71.97,-116.1 20.63,-104.07 30.76,-224.38 78.42,19.76 68.95,-7.14 68.35,86.93 -0.03,4.83 -0.09,12.93 -0.5,18.04 -8.19,103.73 -30.17,47.19 -26.02,176.57 2.52,1.34 7.67,1.25 8.41,1.28 19.89,0.53 48.91,-15.24 69.23,52.83l8.1 152.63c128.07,-17.86 161.73,-25.78 206.74,32.94 246.35,-52.02 377.19,16.64 540.89,-41.7 47.65,74.49 8.44,74.24 48.53,-4.4 232.45,33.91 37.93,27.18 228.61,8.76 -34.44,-56.01 -22.13,-27.61 -92.28,-74.77 81.53,-9.29 75.02,4.96 101.26,-29.3l17.42 -74.08c109.09,120.37 -59.5,-4.59 118.82,136.29 5.2,4.12 12.15,9.38 16.95,13.59 13.34,11.66 29.67,44.29 33.07,39.12 3.74,-5.67 10.54,16.14 15.9,24.18l62.24 -30.1c239.99,-119.72 -107.47,110.99 82.81,-48.94 12.19,54.33 14.56,35.88 39.65,70.29 85.68,-0.03 169.15,13.06 257.73,-0.88 0.03,0 120.55,-45.72 122.8,9.76 68.1,-70.81 55.16,-46.82 68.57,-156.5 27.61,-225.81 -3.03,-166.31 -26.87,-201.87 -65.48,64.3 -51.24,65.3 -66.04,156 0.37,-82.35 24.15,-227.78 -7.83,-295.45 -46.47,-98.42 -26.68,-6.7 -31.82,-3.7l211.26 0c-6.86,-12.5 -35.5,-34.35 -37.16,44.6 -4.55,215.21 62.34,-54.48 -28.76,448.57l488.12 -18.05c2.68,-111.64 -23.04,-35.34 0,-167.22 40.3,43.86 85.24,147.46 109.93,189.22 79.29,-49.77 11.62,-64.3 107.43,-31.63 63.77,21.72 406.87,41.98 543.42,13.99 -23.47,-81.06 0.31,-51.98 -48.41,-95.68 -377.47,35.37 -597.21,-66.02 -647.76,-390.97 -55.11,-354.1 115.91,-582.16 410.26,-617.35 -62.18,-73.74 80.63,-61.06 -79.04,-61.46 13.71,-33.54 -4.36,-17.08 39.55,-67.63 80.95,-93.2 49.62,13.21 70.38,-174.27l162.63 -45.22c91.3,-41.33 259.26,-180.21 290.37,-267.05 -61.16,39.87 -61.75,30.45 -114.3,87.93l-48.84 -95.59c-15.99,-49.22 -14.99,6.26 -8.48,-93.48l-232.98 -4.3c13.44,44.1 133.53,34.1 188.82,26.53 144.65,-19.76 69.66,38.11 115.91,-82.94l-40.7 135.33c201.53,-10.75 113.11,-3.24 149.45,-48.28 -5.61,267.27 119.75,-6.61 39.64,246.26 123.09,-27.62 24.19,-41.83 131.97,-4.37 11.66,116.39 -26.71,46.63 74.77,114.3 -8.32,2.8 -13.81,7.95 -15.27,10.28l9.47 72.53c97.37,142.56 157.18,-25.9 190.41,-47.53 44.16,71.5 -14.28,65.64 38.06,89.3 239.12,108.18 178.81,87.7 243.32,16.23l-114.16 -87.89c79.16,7.67 85.15,8.42 131.34,-10.69 100.95,-41.76 18.42,-29.48 18.23,-33.47 122.37,121.55 115.42,96.96 263.74,103.5 4.52,-30.17 -0.43,-134.45 -6.7,-156.15 -5.67,-2.12 -15.11,-3.46 -17.83,-3.77l-42.38 1.09c-0.32,-1.43 -2.03,2.9 -3.49,2.68 52.3,-90.2 85.36,-17.3 98.21,-210.29 18.29,-274.84 -13.09,-227.99 -54.27,-254.27 36.38,294.57 -58.44,431.15 -341.97,448.54 -256.23,15.74 -455.55,-87.49 -463.16,-316.38l198.29 -5.08c142.07,295.72 464.22,115.72 413.6,-5.58 -167.18,-176.76 -533.19,-60.13 -588.61,-322.81 -65.7,-311.4 262.94,-440.96 560.47,-342.97 75.08,-75.86 62.99,113.57 62.99,-99.37 -82.54,-36.62 -58.72,-17.92 -52.77,-123.17 -123.71,17.27 -99.77,29.86 -204.28,-8.88 194.18,-56.01 504.86,44.94 705.8,-50.62l103.39 0.81c48.12,-18.98 45.47,4.89 71.81,-53.92 1.46,-3.24 0.65,-12 1.74,-15.27 1.06,-3.15 -0.62,-11.66 0.44,-14.75l68.04 -70.62 -63.89 -56.85c-103.76,-78.95 -123.24,-79.26 -139.92,-256.76 274.41,0.09 153.66,22.06 259.44,111.05 105.57,88.83 420.59,34.81 348.24,-120.87 -121.71,-112.89 -334.77,-83.28 -477.61,-171.55 -252.25,-155.87 -26.81,-431.58 -5.55,-469.95 -91.14,-36.16 -43.08,-38.74 -136.64,-39.58 -46.85,-0.41 -63.3,7.1 -125.02,3.86l-4.2 175.85c-132.72,46.94 -370.31,18.01 -522.6,18.23l3.24 186.36 485.63 14.77 -7.01 171.39 -494.08 15.03 4.31 148.39c-0.1,130.47 -4.77,38.99 27.61,70.34l539.14 6.45 -14.74 188.17 -770.78 -9.04 3.21 -982.57c-109.96,-3.59 -89.86,-28.34 -208.64,-39.68 -5.98,-0.56 -135.33,-1.09 -135.55,-1.03 -98.37,21.35 -50.09,-13.78 -89.8,57.69l277.12 -3.05c-81.38,150.51 -271.04,250 -374.08,396.05 84.56,173.48 359.49,440.22 397.7,573.46l-254.48 -4.46c-83.63,-111.14 -204.21,-341.13 -323.4,-393.09 -138.7,112.99 -60.15,182.02 -88.46,395.59l-200.5 -3.56 2.31 -975.34c-109.75,-9.1 -58.69,-4.67 -175.1,24.69 -0.53,-58.97 18.88,-20.04 -39.65,57.13 -81.47,-118.63 -38.37,-114.26 -88.92,-79.14 -54.95,38.18 -34.47,86.43 -27.43,163.7l-99.58 -22.75 284.44 835.27 -218.55 -0.72 -65.49 -196.55 -365.16 2.43 -79.01 194.96 -209.36 -4.55 352.79 -945.42 -99.42 -48.28c-20.01,50.06 -25.28,93.97 -40.21,143.5 -21.88,72.53 -22.41,32.23 -30.2,133.52l-79.17 -87.77c-29.61,35.79 -40.11,-43.97 -52.8,92.29 -66.32,-35.09 -13.77,-40.11 -66.01,-13.24l27.96 61.55c1.9,6.61 3.08,14.28 4.89,21.42 1.96,7.73 1.5,15.77 3.49,23.65 15.46,60.87 -4.05,12.41 18.36,64.58 26.96,62.77 -6.83,4.46 28.96,26.62 -36.41,19.64 -36.22,4.46 -57.29,61.68 -89.67,-323.9 -40.4,-165.5 -17.49,-519.04 -107.18,-38.21 -121.02,-30.2 -233.01,-32.07 -195.2,-3.24 -166.31,0.12 -198.98,53.83l313.71 -2.62 1.62 970.76 -198.51 -3.43 -14.12 -730.58 -162.38 721.79c-278.02,66.32 -224.54,-37.12 -275.15,-244.8 -28.8,-118.25 -64.36,-323.64 -125.42,-427l-9.51 684.89 -189.25 -9.6 1.71 -966.3c-50.21,-39.55 -14.05,-31.48 -98.21,-32.35 -22.38,148.26 -33.97,942.39 30.77,1042.28l-117.32 47.78c-3.09,-5.64 -12.9,2.59 -19.01,4.99 34.25,49.93 4.3,37.62 52.33,40.39 89.05,5.18 -16.18,-4.51 88.36,-27.11 -56.54,118.75 -32.48,19.54 -39.52,167.06 -72.06,-28.96 -56.63,-31.33 -109.68,30.2l-39.9 -65.45c-97.77,8.51 -264.21,20.44 -400.19,8.88 137.76,-79.76 59,28.74 229.67,-25.59l180.81 -75.49 10.69 -119.25 -161.67 -21.56c8.67,88.95 43.45,150.19 -103.54,138.23l-31.98 -3.31c-378.75,-55.26 -801.14,20.04 -866,5.74l-122.52 -19.7c-44.51,-2.93 -88.7,-4.05 -133.93,-4.77 -140.63,-2.28 -374.61,22.38 -494.76,-1.87 79.42,-10.19 730.11,-19.11 837.86,-11.38 65.29,4.68 774.3,39.81 835.58,-23.9 53.23,-55.36 16.08,-230.43 11.06,-307.79 19.45,-18.38 82.19,-55.69 88.65,-69.25 41.85,-87.68 -27,-66.17 -38.06,-75.8 -44.1,34.25 -48.87,-19.51 -61.65,136.17 -116.16,-30.32 -180.03,-49.24 -307.47,-46.63 -157.65,3.25 -224.26,30.17 -264.34,-23.65 51.65,-0.35 421.64,6.2 438.16,-31.48 4.02,-9.13 12.94,-8.26 19.33,-12.53l-24.41 -72.12 -491.58 3.89 1.43 243.77 556.23 8.66 -7.79 168.84 -754.46 -4.27 3.87 -975.62 -83.72 -13.06c-176.44,174.26 -21.07,86.24 -99.58,263.31 -37.5,84.55 -13.9,1.8 -41.98,85.15l141.56 1.31c-36.19,213.9 -62.71,105.9 -72.59,413.31 -124.02,0.35 -396.92,-48.03 -481.42,52.37l483.23 1.77 -12 176.97 -714.06 -9.31 -27.18 97.99c-61.77,186.01 15.15,97.3 -73.18,128.85 -0.19,-0.41 -57.63,-7.33 4.39,-131.07 35.91,-71.62 8.92,-17.89 46.1,-54.91 4.27,-4.27 12.84,-11.29 16.55,-14.81l38.37 -1039.39 -90.98 35c-51.15,10.29 1.59,33.91 -47.97,-4.36 -28.86,-22.28 -31.26,-70.06 -36.74,-118.81 -17.21,26.74 36.65,-4.33 -42.05,34.35l42.05 102.1c-252.78,-66.54 -138.17,-130.75 -589.33,-92.29 48.09,76.61 -16.14,51.37 52.8,81.35z"/>
  <path class="fil1" d="M15861.7 8121.1l382.68 4.36 -9.35 353.57 -374.67 -5.52 1.34 -352.41zm-4826.01 -1480.89l398.73 8.48 -6.86 1829.56 -392.62 -6.89 0.75 -1831.15zm-4845.88 -2.09l454 1.31c96.43,321.88 645.61,1691.96 649.54,1839.6l-403.69 -4.24c-52.96,-93.75 -82.78,-242.52 -133.56,-370.46l-686.88 1.34c-56.94,88.64 -91.97,251.68 -148.48,374.01l-401.88 -9.63 670.95 -1831.93zm2884.16 1.41c15.46,319.09 31.98,1019 -8.6,1311.2 -57.91,417 -303.79,575.77 -761.87,572.93 -448.57,-2.77 -701.81,-182.49 -741.98,-588.64 -33.7,-340.48 -18.83,-943.08 -4.02,-1298.95l397.89 10.94c5.98,321.96 1.21,648.17 0.9,970.57 -0.31,335.24 -5.64,588.26 373.42,580.5 366.48,-7.54 345.75,-283.32 345.56,-606.9 -0.18,-313.11 -6.23,-632.9 1.62,-951.68l397.08 0.03zm3363.71 -39.96c1372.33,-240.24 1460.47,1725.96 421.55,1910.69 -617.22,109.77 -1042.44,-217.65 -1113.19,-740.89 -81.82,-605.16 154.03,-1075.7 691.64,-1169.8zm1412.79 40.18l422.38 -0.38c48.91,97.4 706.8,1226.93 750.72,1253.11l3.61 -1254.76 360.77 -0.75 -1.15 1838.94 -398.95 -0.75c-103.39,-205.08 -239.47,-410.13 -368.44,-627.34 -79.63,-134.18 -270.97,-530.42 -394.87,-611.99l-3.99 1240.49 -371.83 -1.93 1.75 -1834.64zm-4546.13 -2.78l1533.96 5.14 -2.87 320.35 -566.69 11.44 -2.12 1501.55 -392.66 -1.06 -5.02 -1506.85 -565.98 -6.23 1.38 -324.34zm-3978.97 1217.8c-88.95,906.95 -1669.98,999.71 -1664.22,-289.65 5.83,-1304.25 1602.85,-1162.72 1676.84,-316.98l-385.86 -1.49c-78.35,-112.89 -74.49,-200.63 -206.67,-268.26 -289.86,-148.24 -683.42,6.48 -676.91,612.82 6.98,651.29 486.47,684.2 706.55,535.71 113.04,-76.26 100.05,-153.19 177.03,-274.99l373.24 2.84zm-4515.27 -1487.53c92.19,18.98 98.21,34.01 143.27,-41.17 65.3,72.22 5.61,37.87 143.97,41.89 427.25,12.47 2716.91,-62.05 2844.51,29.8l86.65 -85.59c69.44,71.16 -44.66,31.57 103.26,50.37l289.77 45.97c-21.13,6.86 32.94,-1.84 -57.13,18.58 -105.13,23.87 -233.76,0.96 -326.49,12.4 66.45,64.11 -90.94,56.98 146.77,52.99 52.27,-0.88 94.69,-11.13 149.55,-18.89l-113.36 72.46 141.44 9.67c-35.47,-13.09 22.28,-10.54 -47.44,-6.8 -166.28,8.88 -108.68,-6.82 -263.3,-52.24 -120.59,-35.4 -224.69,-73.12 -305.61,-56.97l-36.43 16.77c6.08,3.15 14.4,6.61 18.85,8.16 159.93,56.36 263.12,138.17 263.19,138.05 2.74,-5.15 11.31,7.88 16.73,12.12 -17.45,15.3 -41.01,37.59 -60.65,53.24 -39.8,31.76 -13.93,10.47 -51.08,35.96l-108.87 -65.92c-61.15,-40.67 -0.88,-19.45 -91.42,-49.68 39.77,44.6 72.9,91.6 102.58,169.15 -116.48,10.97 -158,42.45 -260.26,18.05 -3.39,-0.81 -11.87,-1.59 -14.15,-7.64 -2.02,-5.45 -7.63,-5.86 -11.37,-8.88 8.88,87.74 -20.17,38.9 65.85,52.7l103.89 19.73c5.39,-7.6 16.36,7.33 35.15,11.78l-6.23 168.34 -65.17 -13.49c-29.83,55.32 -45.6,65.42 -72.84,94.87l18.04 271.51c-1.24,-3.81 -2.92,-12.63 -4.17,-17.02 -1.44,-5.02 -1.4,-14.5 -2.81,-19.73 -14.61,-54.48 41.8,7.14 -28.2,-70.38 -52.74,53.24 -8.89,-46.25 -28.3,46.04 -15.84,75.24 6.7,-1.41 1.77,182.73l7.89 221.39c-67.26,3.62 -43.11,-17.39 -47.94,-24.75 -3.43,-5.23 -15.86,-45.32 -17.55,-51.95 -64.98,-256.67 -0.43,-377.57 -5.98,-409.12 -74.24,-165.59 -88.67,-21.06 -82.13,-277.92 -162.04,3.74 -34.53,55.04 -87.61,154.44 -3.8,7.13 -41.36,38.18 -50.62,53.54l109.37 44.08 25.65 182.51c-108.34,28.46 15.99,-32.72 -53.23,30.83 -33.73,30.95 -14.15,22.25 -25.93,36.12 120.05,60.19 -3.46,24.69 105.56,46.6l-80.72 162.82c119.49,77.95 50.08,-7.29 89.98,121.03 -80.63,46.13 -105.35,120.02 -114.82,251.65 104.07,-3 71.65,-18.92 159.89,-56.01 2.71,2.24 5.3,7.85 6.07,8.69l108.75 84.38c-3.74,2.83 -7.57,8.85 -9.23,10.65 -78.51,86.68 -248.16,122 -265.48,268.95 84.74,-10.72 72.62,-29.58 105.69,-88.42l94.28 69.97 104.35 -73.84c86.46,37.5 24.31,-15.55 80.29,57.76 47.78,62.58 60.31,196.7 11.22,245.63 72.96,38.09 74.02,26.43 107.25,91.42 78.23,-24.53 152.44,-58.94 239.96,-16.96 5.39,2.59 11,7.61 15.83,10.63 56.98,35.57 46.91,52.71 123.93,56.57 126.38,6.33 326.36,9.85 447.6,-6.61l-104.26 -41.98c-48.49,-20.2 -86.49,-27.02 -105.44,-28.05 79.92,0 182.99,-11.22 247.73,22.66 56.53,29.61 100.32,18.51 176.03,3.74l-51.08 -52.99c-7.79,-6.17 -14.99,-11.53 -22.38,-16.73 -6.95,-4.9 -38.84,-8.14 -47.53,-9.32 160.11,-0.59 114.32,36.12 226.68,24.06l88.68 -104.91c3.02,-12.28 11.22,-13.31 16.86,-19.95 145.61,49.84 -67.42,-9.51 156.8,-3.21 -35.37,-126.82 -7.94,-95.5 27.93,-133.37 115.51,220.45 -20.2,184.55 -56.63,263.78 15.77,10.03 -44.88,55.01 72.87,18.98 96.03,-29.36 -74.99,45.69 43.17,-37.06 47.43,-33.23 59.15,-35.94 129.94,-20.82 -38.96,-84.53 -37.81,-25.75 -1.94,-116.76l50.21 130.16 429.97 -13.28c-43.7,90.55 10.78,42.17 -84.22,52.62 -2.02,0.21 -99.99,-4.9 -128.57,-3.06 53.18,88.36 -43.35,-104.07 17.68,44.2 2.05,4.92 6.63,15.77 8.47,20.19l20.45 46.6c147.52,-24.12 106.13,-68.91 184.7,10.29l-5172.36 0 0 -1979.42 79.17 26.37c3.68,-9.01 8.98,-18.58 10.72,-27.12l10.82 -82.09c-11.22,-108.84 -4.18,0.4 -34.51,-77.83 -18.82,-48.5 -11.31,-104.6 -26.86,-176.47 -157.34,155.59 -101.08,879.99 -101.08,1155.33 0,415.66 -2.15,831.9 0.37,1247.5l18596.91 4.11 -2.09 -2096.39c-8.7,-133.18 -8.6,-183.82 -74.83,-255.6l13.74 2261.61c-34.41,-65.49 -5.17,-1489.68 -12.4,-1794.56 -5.8,-244.3 -39.06,-197.08 -44.45,-229.37 -2.24,-13.34 -10.5,-13.77 -25.62,-20.51l6.39 2044.44 -3057.89 -0.13c1.31,-0.75 70.31,-50.8 73.62,-53.92 90.45,-85.43 174.88,-98.8 111.11,-57.94 67.32,-211.82 47.31,-412.95 31.51,-625.76 -6.95,-93.5 -36.21,-56.91 2.62,-159.61l-59.09 -26.37c39.05,-147.3 36.81,-364.82 -2,-510.44l-104.69 678.69 -193.87 -5.18c-30.73,-456.67 -133.8,-831.03 -100.76,-1324.82l399.82 1.49 -12.03 605.94c9.07,-6.27 21.16,-13.5 27.89,-17.74l75.06 -704.49 -92.51 -27.33c52.96,-27.24 34.19,2.84 41.27,-42.39 8.19,-52.17 3.49,-2.37 -24.16,-77.2 68.07,-10.97 122.8,-30.2 162.67,-30.64 40.17,-0.41 88.02,13.93 157.49,15.49 112.98,2.53 230.61,-0.81 344.19,-0.84 223.91,-0.03 1930.45,32.51 2058.21,-11.81 32.1,103.97 -7.42,35.06 52.92,75.17 87.58,-35.34 33.69,-35.31 132.71,-60.15 -59.84,-164.04 -150.45,-228.49 -369.74,-229.02 -5863.79,-14.15 -11738.99,17.86 -17602.09,-0.03 -233.45,-0.72 -330.32,53.92 -394.58,230.23z"/>
  <path class="fil2" d="M810.1 6367.24l-14.62 42.24c15.55,71.87 8.04,127.97 26.86,176.47 30.33,78.23 23.29,-31.01 34.51,77.83l-10.82 82.09c-1.74,8.54 -7.04,18.11 -10.72,27.12l-79.17 -26.37 0 1979.42 5172.36 0c-78.57,-79.2 -37.18,-34.41 -184.7,-10.29l-20.45 -46.6c-1.84,-4.42 -6.42,-15.27 -8.47,-20.19 -61.03,-148.27 35.5,44.16 -17.68,-44.2 28.58,-1.84 126.55,3.27 128.57,3.06 95,-10.45 40.52,37.93 84.22,-52.62l-429.97 13.28 -50.21 -130.16c-35.87,91.01 -37.02,32.23 1.94,116.76 -70.79,-15.12 -82.51,-12.41 -129.94,20.82 -118.16,82.75 52.86,7.7 -43.17,37.06 -117.75,36.03 -57.1,-8.95 -72.87,-18.98 36.43,-79.23 172.14,-43.33 56.63,-263.78 -35.87,37.87 -63.3,6.55 -27.93,133.37 -224.22,-6.3 -11.19,53.05 -156.8,3.21 -5.64,6.64 -13.84,7.67 -16.86,19.95l-88.68 104.91c-112.36,12.06 -66.57,-24.65 -226.68,-24.06 8.69,1.18 40.58,4.42 47.53,9.32 7.39,5.2 14.59,10.56 22.38,16.73l51.08 52.99c-75.71,14.77 -119.5,25.87 -176.03,-3.74 -64.74,-33.88 -167.81,-22.66 -247.73,-22.66 18.95,1.03 56.95,7.85 105.44,28.05l104.26 41.98c-121.24,16.46 -321.22,12.94 -447.6,6.61 -77.02,-3.86 -66.95,-21 -123.93,-56.57 -4.83,-3.02 -10.44,-8.04 -15.83,-10.63 -87.52,-41.98 -161.73,-7.57 -239.96,16.96 -33.23,-64.99 -34.29,-53.33 -107.25,-91.42 49.09,-48.93 36.56,-183.05 -11.22,-245.63 -55.98,-73.31 6.17,-20.26 -80.29,-57.76l-104.35 73.84 -94.28 -69.97c-33.07,58.84 -20.95,77.7 -105.69,88.42 17.32,-146.95 186.97,-182.27 265.48,-268.95 1.66,-1.8 5.49,-7.82 9.23,-10.65l-108.75 -84.38c-0.77,-0.84 -3.36,-6.45 -6.07,-8.69 -88.24,37.09 -55.82,53.01 -159.89,56.01 9.47,-131.63 34.19,-205.52 114.82,-251.65 -39.9,-128.32 29.51,-43.08 -89.98,-121.03l80.72 -162.82c-109.02,-21.91 14.49,13.59 -105.56,-46.6 11.78,-13.87 -7.8,-5.17 25.93,-36.12 69.22,-63.55 -55.11,-2.37 53.23,-30.83l-25.65 -182.51 -109.37 -44.08c9.26,-15.36 46.82,-46.41 50.62,-53.54 53.08,-99.4 -74.43,-150.7 87.61,-154.44 -6.54,256.86 7.89,112.33 82.13,277.92 5.55,31.55 -59,152.45 5.98,409.12 1.69,6.63 14.12,46.72 17.55,51.95 4.83,7.36 -19.32,28.37 47.94,24.75l-7.89 -221.39c4.93,-184.14 -17.61,-107.49 -1.77,-182.73 19.41,-92.29 -24.44,7.2 28.3,-46.04 70,77.52 13.59,15.9 28.2,70.38 1.41,5.23 1.37,14.71 2.81,19.73 1.25,4.39 2.93,13.21 4.17,17.02l-18.04 -271.51c27.24,-29.45 43.01,-39.55 72.84,-94.87l65.17 13.49 6.23 -168.34c-18.79,-4.45 -29.76,-19.38 -35.15,-11.78l-103.89 -19.73c-86.02,-13.8 -56.97,35.04 -65.85,-52.7 3.74,3.02 9.35,3.43 11.37,8.88 2.28,6.05 10.76,6.83 14.15,7.64 102.26,24.4 143.78,-7.08 260.26,-18.05 -29.68,-77.55 -62.81,-124.55 -102.58,-169.15 90.54,30.23 30.27,9.01 91.42,49.68l108.87 65.92c37.15,-25.49 11.28,-4.2 51.08,-35.96 19.64,-15.65 43.2,-37.94 60.65,-53.24 -5.42,-4.24 -13.99,-17.27 -16.73,-12.12 -0.07,0.12 -103.26,-81.69 -263.19,-138.05 -4.45,-1.55 -12.77,-5.01 -18.85,-8.16l36.43 -16.77c80.92,-16.15 185.02,21.57 305.61,56.97 154.62,45.42 97.02,61.12 263.3,52.24 69.72,-3.74 11.97,-6.29 47.44,6.8l-141.44 -9.67 113.36 -72.46c-54.86,7.76 -97.28,18.01 -149.55,18.89 -237.71,3.99 -80.32,11.12 -146.77,-52.99 92.73,-11.44 221.36,11.47 326.49,-12.4 90.07,-20.42 36,-11.72 57.13,-18.58l-289.77 -45.97c-147.92,-18.8 -33.82,20.79 -103.26,-50.37l-86.65 85.59c-127.6,-91.85 -2417.26,-17.33 -2844.51,-29.8 -138.36,-4.02 -78.67,30.33 -143.97,-41.89 -45.06,75.18 -51.08,60.15 -143.27,41.17z"/>
  <path class="fil2" d="M16240.77 7247.99l11.53 43.88c38.81,145.62 41.05,363.14 2,510.44l59.09 26.37c-38.83,102.7 -9.57,66.11 -2.62,159.61 15.8,212.81 35.81,413.94 -31.51,625.76 63.77,-40.86 -20.66,-27.49 -111.11,57.94 -3.31,3.12 -72.31,53.17 -73.62,53.92l3057.89 0.13 -6.39 -2044.44c15.12,6.74 23.38,7.17 25.62,20.51 5.39,32.29 38.65,-14.93 44.45,229.37 7.23,304.88 -22.01,1729.07 12.4,1794.56l-13.74 -2261.61c4.76,-55.48 8.88,-24.32 -9.35,-64.93 -16.65,-37.06 -19.8,-24.99 -28.9,-33.44 -99.02,24.84 -45.13,24.81 -132.71,60.15 -60.34,-40.11 -20.82,28.8 -52.92,-75.17 -127.76,44.32 -1834.3,11.78 -2058.21,11.81 -113.58,0.03 -231.21,3.37 -344.19,0.84 -69.47,-1.56 -117.32,-15.9 -157.49,-15.49 -39.87,0.44 -94.6,19.67 -162.67,30.64 27.65,74.83 32.35,25.03 24.16,77.2 -7.08,45.23 11.69,15.15 -41.27,42.39l92.51 27.33 -75.06 704.49c-6.73,4.24 -18.82,11.47 -27.89,17.74z"/>
  <path class="fil3" d="M13848.72 8474.39l371.83 1.93 3.99 -1240.49c123.9,81.57 315.24,477.81 394.87,611.99 128.97,217.21 265.05,422.26 368.44,627.34l398.95 0.75 1.15 -1838.94 -360.77 0.75 -3.61 1254.76c-43.92,-26.18 -701.81,-1155.71 -750.72,-1253.11l-422.38 0.38 -1.75 1834.64z"/>
  <path class="fil3" d="M12133.61 7696.74c-130.63,-931.42 908.17,-1066.03 1015.7,-285.03 130.56,948.23 -907.33,1057.66 -1015.7,285.03zm304.07 -1097.17c-537.61,94.1 -773.46,564.64 -691.64,1169.8 70.75,523.24 495.97,850.66 1113.19,740.89 1038.92,-184.73 950.78,-2150.93 -421.55,-1910.69z"/>
  <path class="fil0" d="M9073.97 6639.53l-397.08 -0.03c-7.85,318.78 -1.8,638.57 -1.62,951.68 0.19,323.58 20.92,599.36 -345.56,606.9 -379.06,7.76 -373.73,-245.26 -373.42,-580.5 0.31,-322.4 5.08,-648.61 -0.9,-970.57l-397.89 -10.94c-14.81,355.87 -29.68,958.47 4.02,1298.95 40.17,406.15 293.41,585.87 741.98,588.64 458.08,2.84 703.96,-155.93 761.87,-572.93 40.58,-292.2 24.06,-992.11 8.6,-1311.2z"/>
  <path class="fil3" d="M6404.44 7087.88c75.24,89.01 207.61,541.23 240.92,695.32l-109.89 2.34 -158.34 0.19 -209.66 -5.36 236.97 -692.49zm-885.58 1382.17l401.88 9.63c56.51,-122.33 91.54,-285.37 148.48,-374.01l686.88 -1.34c50.78,127.94 80.6,276.71 133.56,370.46l403.69 4.24c-3.93,-147.64 -553.11,-1517.72 -649.54,-1839.6l-454 -1.31 -670.95 1831.93z"/>
  <path class="fil3" d="M5325.37 7854.77l-373.24 -2.84c-76.98,121.8 -63.99,198.73 -177.03,274.99 -220.08,148.49 -699.57,115.58 -706.55,-535.71 -6.51,-606.34 387.05,-761.06 676.91,-612.82 132.18,67.63 128.32,155.37 206.67,268.26l385.86 1.49c-73.99,-845.74 -1671.01,-987.27 -1676.84,316.98 -5.76,1289.36 1575.27,1196.6 1664.22,289.65z"/>
  <polygon class="fil0" points="9302.96,6961.31 9868.94,6967.54 9873.96,8474.39 10266.62,8475.45 10268.74,6973.9 10835.43,6962.46 10838.3,6642.11 9304.34,6636.97 "/>
  <path class="fil2" d="M12133.61 7696.74c108.37,772.63 1146.26,663.2 1015.7,-285.03 -107.53,-781 -1146.33,-646.39 -1015.7,285.03z"/>
  <polygon class="fil3" points="11034.94,8471.36 11427.56,8478.25 11434.42,6648.69 11035.69,6640.21 "/>
  <path class="fil4" d="M13197.71 9543.7l-176.69 724.06 -175.47 -727.09 -305.14 -3.86 -1.71 966.3 189.25 9.6 9.51 -684.89c61.06,103.36 96.62,308.75 125.42,427 50.61,207.68 -2.87,311.12 275.15,244.8l162.38 -721.79 14.12 730.58 198.51 3.43 -1.62 -970.76 -313.71 2.62z"/>
  <path class="fil5" d="M11140.94 13345.63c-0.34,-132.59 54.86,-457.21 158.93,-545.35 19.6,580.66 -64.87,571.09 199.66,549.8l8.13 -974.4 -305.04 12.72 -187.47 707.04 -170.74 -701.5c-81.54,-31.13 -210.42,-26.18 -311.78,-8.54l0.63 954.65 199.85 6.48 1.84 -724.47c104.5,152.13 112.2,498.94 180.8,721.85l225.19 1.72z"/>
  <polygon class="fil6" points="9064.93,12613.77 9070.92,13345.6 9262.6,13349.55 9251.69,12374.71 8963.48,12375.49 8769.99,13095.57 8604.93,12376.55 8293.53,12377.49 8298.83,13349.83 8488.39,13343.38 8503.82,12628.3 8672.78,13343.51 8880.95,13342.14 "/>
  <path class="fil6" d="M7001.4 11772.86c-432.8,67.63 -420.02,-466.74 -268.64,-606.47 270.91,-250.09 580.28,149.02 409.64,460.26 -79.07,-32.54 -91.67,-92.47 -160.17,-24.75 -101.98,100.74 -0.1,77.67 19.17,170.96zm-328.14 -812.05l-71.59 75.46c-313.68,298.06 -252.09,1067.63 567.13,870.64 97.65,61.9 103.13,112.02 213.53,17.43 -22.22,-119.97 -9.72,-53.8 -82.56,-137.33 213.78,-474.53 79.32,-932.67 -579.45,-834.3l-47.06 8.1z"/>
  <path class="fil4" d="M9691.44 11274.98c52.71,32.04 328.04,557.16 412.67,658.61 146.64,2.93 195.64,40.52 205.42,-90.88l-15.11 -885.98 -185.51 4.95 -3.31 623.95c-29.7,-24.62 -21.25,-11.47 -48.68,-44.72 -5.11,-6.24 -17.96,-26.53 -22.38,-33.41l-134.96 -234.76c-51.86,-91.1 -126.04,-198.51 -183.27,-315.08l-227.12 9.13 -0.37 961.88 199.13 2.27 3.49 -655.96z"/>
  <path class="fil6" d="M7485.96 12766.34c-71.18,30.2 -160.82,41.76 -264.39,37.87l-93.23 -2.71 -6.67 -257.92c245.36,-8.44 427.75,-40.83 364.29,222.76zm-31.01 287.21c122.06,162.54 -162.04,312.68 268.95,291.45 -67.6,-183.54 14.31,-345.06 -139.16,-439.71l84.68 -74.43c142.16,-514.9 -216.59,-460.6 -634.99,-457.7 -148.95,1.05 -130.12,3.55 -129.22,150.97l4.43 821.03 206.89 -2 3.55 -365.22c65.36,-7.08 143.03,-14.28 208.77,-7.42 107.4,11.22 87.55,11.25 126.1,83.03z"/>
  <path class="fil6" d="M4750.1 11136.75c221.57,-35.22 398.42,-53.76 374.42,191.75 -94.37,75.24 -227.18,72.59 -374.39,51.27l-0.03 -243.02zm469.36 333.59c150.01,-145.21 198.91,-325.45 8.26,-459.51 -125.33,-88.14 -508.6,-52.01 -683.73,-52.64l-0.16 976.37 204.03 -4.24 8.07 -367.13c162.88,-21.75 244.51,-21.22 340.73,52.24l27.74 283.16c82.72,54.02 123.61,36.5 230.98,30.2 -82.87,-249.99 40.12,-253.39 -135.92,-458.45z"/>
  <path class="fil6" d="M13852.52 11125.35c390.88,-166.57 476.78,516.92 206.05,635.85 -384.48,168.93 -546.43,-490.86 -206.05,-635.85zm556.51 476.93c196.85,-743.45 -791.11,-899.42 -927.56,-339.92 -189.04,774.96 769.13,938.16 927.56,339.92z"/>
  <path class="fil6" d="M5139.39 12549.04c384.36,-202.1 524.12,485.09 226.09,627.53 -363.01,173.48 -543.04,-460.85 -226.09,-627.53zm-47.97 827.63c174.32,-34.78 216.34,28.33 426.82,-65.27 386.32,-274.93 281.97,-1032.31 -354.51,-961.78 -425.88,47.19 -466.33,578.57 -310.21,828.92 90.66,145.43 140.94,108.09 237.9,198.13z"/>
  <path class="fil6" d="M9785.94 12551.25c410.7,-199.82 510.19,496.72 225.57,627.07 -365.73,167.43 -538.46,-474.82 -225.57,-627.07zm-353.29 449.66c99.15,565.82 1077.92,520.35 935.2,-290.14 -97.09,-551.4 -1077.29,-520.85 -935.2,290.14z"/>
  <path class="fil6" d="M15112.4 13000.91c-112.33,369.18 -643.9,206.21 -510.69,-280.95 99.11,-362.45 664.41,-224.25 510.69,280.95zm-79.86 357.28c97.31,-85.81 153.32,-32.35 247.63,-215.65 60.75,-118.04 75.52,-256.27 56.42,-401.82 -33.91,-257.98 -231.64,-419.05 -541.55,-390.85 -294.35,35.19 -465.37,263.25 -410.26,617.35 50.55,324.95 270.29,426.34 647.76,390.97z"/>
  <path class="fil6" d="M16676.44 12657.84c17.17,-175.97 284.25,-225.78 376.54,5.77l184.98 1.93c-10.47,-397.45 -562.58,-398.2 -715.4,-178.72 -281.85,404.78 443.39,486.79 546.75,533.51 7.01,161.04 -52.71,189.65 -212.63,181.24 -282.94,-14.93 -24.37,-155.37 -387.17,-154.75 6.36,205.55 112.7,293.38 304.89,318.22 559.68,72.35 643.43,-420.67 339.26,-545.06 -159.7,-65.3 -338.67,-42.7 -437.22,-162.14z"/>
  <polygon class="fil6" points="5757.95,11136.01 6284.07,11131.52 6282.01,10959.1 5548.59,10959.78 5548.69,11933.5 6308.56,11929.45 6309.19,11757.49 5754.93,11745.62 5760.38,11509.62 6242.83,11497.02 6239.03,11340.34 5755.42,11325.91 "/>
  <path class="fil6" d="M4735.39 10322.24l33.79 31.73c100.26,108 135.48,174.7 367.31,182.36 217.77,7.2 289.36,-43.38 389.38,-155.71 40.86,-45.88 8.32,-12.97 43.7,-43.7 -22.78,-214.65 0.34,-296.38 -202.5,-364.57 -160.23,-53.92 -303.73,-40.08 -409.2,-135.89 6.98,-124.27 54.7,-165.32 202.18,-153.41 135.65,10.91 130.85,55.41 187.88,144.99l179.1 -0.56c6.92,-385.49 -585.65,-395.86 -723.6,-168.46 -101.02,166.53 -30.11,339.29 111.92,397.26 161.58,65.92 319.85,44.45 436.57,147.4 12.94,155.62 -85.3,174.07 -241.64,158.08 -278.92,-28.52 20.1,-161.32 -359.15,-145.49l-15.74 105.97z"/>
  <path class="fil6" d="M16729.36 9562.18c-21.26,38.37 -246.7,314.08 5.55,469.95 142.84,88.27 355.9,58.66 477.61,171.55 72.35,155.68 -242.67,209.7 -348.24,120.87 -105.78,-88.99 14.97,-110.96 -259.44,-111.05 16.68,177.5 36.16,177.81 139.92,256.76l63.89 56.85c145.52,-14.99 318.69,38.93 458.61,-40.65 95.46,-54.29 179.59,-157.14 159.36,-306.13 -38.53,-283.69 -443.3,-179.96 -601.95,-346.09 0.41,-121.3 52.33,-158.58 185.2,-152.53 134.12,6.11 132.81,42.48 186.76,146.67l196.23 -8.41c-5.11,-454.02 -661.79,-258.01 -663.5,-257.79z"/>
  <path class="fil6" d="M11910.07 11232.84c18.7,-111.36 79.48,-145.24 217.27,-127.78 230.24,29.11 5.68,154.62 352.58,138.16 -39.52,-412.97 -618.78,-386.11 -740.87,-137.85 -220.48,448.38 515.71,395.49 569.19,523.31 4.34,138.04 -99.42,166.06 -230.23,155.53 -254.62,-20.45 -14.72,-152.14 -375.45,-153.44 -12.69,411.29 644.49,401.75 776.98,162.79 85.96,-155.03 27.96,-323.12 -125.73,-389.07 -156.46,-67.14 -362.11,-37.87 -443.74,-171.65z"/>
  <polygon class="fil7" points="8785.95,11134.73 9313.72,11131.52 9293.96,10956.04 8572.73,10959.44 8580.96,11933.81 9328.43,11932.28 9336.56,11757.15 8778.75,11750.36 8789.78,11507.56 9263.94,11507.59 9257.12,11338.47 8779.9,11331.05 "/>
  <path class="fil6" d="M12258.59 12657.84c11.47,-120.65 67.76,-152.13 214.38,-136.67 233.32,24.59 1.43,146.46 352.29,142.81 -19.95,-402.97 -596.87,-399.79 -734.79,-151.97 -95.87,172.26 -7.85,330.97 142.97,387.04 250.4,93.04 432.8,20.67 420.27,236.26 -275.25,209.41 -441.99,-88.12 -444.67,-88.99l-161.42 4.96c11.75,406.77 615.91,386.48 764.64,182.3 116.69,-160.17 39.71,-356.84 -126.57,-419.09 -161.33,-60.37 -334.12,-39.11 -427.1,-156.65z"/>
  <path class="fil6" d="M16272.87 11507.18c-115.85,-64.2 -69.94,-91.94 -267.42,-138.1 -134.4,-31.42 -223.66,-33.54 -312.86,-109.84 -59.19,-113.64 195.2,-303.45 377.53,-12.28l169.81 0.63c30.42,-160.52 -82.63,-241.15 -188.44,-284.69 -297.53,-97.99 -626.17,31.57 -560.47,342.97 55.42,262.68 421.43,146.05 588.61,322.81 50.62,121.3 -271.53,301.3 -413.6,5.58l-198.29 5.08c7.61,228.89 206.93,332.12 463.16,316.38 283.53,-17.39 378.35,-153.97 341.97,-448.54z"/>
  <polygon class="fil6" points="4195.65,9528.8 3995.09,9542.64 3989.95,9908.52 3608.86,9905.37 3603.03,9545.66 3397.5,9531.54 3394.51,10508.87 3597.67,10511.15 3608.86,10082.18 3990.82,10079.13 3993.31,10507.13 4201.79,10511.68 "/>
  <polygon class="fil7" points="7790.23,9530.14 7055.5,9541.42 7048.83,10510.21 7809.92,10510.71 7807.18,10339.69 7259.81,10335.89 7257.94,10089.79 7734.16,10087.17 7738.71,9927.72 7260,9917.18 7257.63,9715.71 7774.95,9712.5 "/>
  <polygon class="fil6" points="11929.52,10087.55 11915.9,9919.24 11439.59,9915.59 11438.75,9716.4 11964.37,9712 11966.3,9542.32 11237.22,9532.82 11233.35,10508.44 11987.81,10512.71 11995.6,10343.87 11439.37,10335.21 11437.94,10091.44 "/>
  <polygon class="fil7" points="17650.03,12551.4 18185.96,12536.51 18182.91,12376.12 17443.04,12383.44 17444.17,13346.59 18202.98,13344.82 18205.85,13174.2 17653.12,13168.72 17652.83,12924.83 18143.01,12913.42 18131.08,12752.03 17648.88,12740.66 "/>
  <polygon class="fil7" points="8557.83,9548.9 8563.54,9910.76 8182.29,9902.44 8174.03,9542.95 7978.76,9529.45 7971.94,10509.9 8179.64,10509.62 8181.26,10084.71 8564.22,10076.92 8574.16,10507.88 8770.46,10511.74 8779.47,9547.56 "/>
  <path class="fil6" d="M15283.44 9546.81c-35.74,86.77 -278.14,329.76 -356.25,364.79l-4.2 -365.88 -203.34 -13.31 -2.31 975.34 200.5 3.56c28.31,-213.57 -50.24,-282.6 88.46,-395.59 119.19,51.96 239.77,281.95 323.4,393.09l254.48 4.46c-38.21,-133.24 -313.14,-399.98 -397.7,-573.46 103.04,-146.05 292.7,-245.54 374.08,-396.05l-277.12 3.05z"/>
  <path class="fil6" d="M13592.55 13353.01c45.76,-125.54 21.2,-293.79 20.88,-432.39l389.42 0.9 3.8 425.38 206.77 -4.05 -6.45 -964.18 -200.66 0.63 -3.28 361.92 -386.07 2.21 -3.96 -363.6 -205.06 3.7 8.45 968.55 176.16 0.93z"/>
  <path class="fil6" d="M6142.78 13377.7c78.17,-14.4 323.59,-30.3 383.71,-26.81l47.47 -45.97c116.07,-107.34 126.45,-176.07 127.29,-383.12 0.68,-164.78 14.15,-389.53 -10.85,-548.05l-195.8 8.26c-24.21,205.58 13.19,444.51 -10.06,646.51 -24.22,210.29 -264.09,231.49 -349.02,76.61 -77.49,-167.59 -5.83,-515.86 -32.29,-728.73l-210.73 7.94c-68.29,902.44 46.04,815.61 250.28,993.36z"/>
  <path class="fil6" d="M15511.25 12377.3c-18.95,124.92 -20.2,576.33 -3.08,703.27 53.67,397.89 754.6,419.71 801.45,-39.2 15.77,-154.54 12.16,-498.88 -0.56,-662.64l-208.23 2.25c-23.57,232.42 114.97,817.13 -197.55,819.37 -305.1,2.22 -135.95,-391.03 -193.3,-823.61l-198.73 0.56z"/>
  <path class="fil6" d="M2147.64 12644.6c29.45,30.57 28.73,18.42 55.48,72.99l71.5 264.87 -229.9 -1.53 102.92 -336.33zm-439.75 620.33c12.4,104.26 -28.05,37.53 24.81,83.81l168.59 0 95.28 -200.66 351.48 0.32 63.02 200.56 226.09 -8.38 -349.95 -972.88 -239.5 6.92 -339.82 890.31z"/>
  <path class="fil6" d="M7559.68 10962.59c-15.34,542.29 -109.03,994.78 400.79,994.38 521.62,-0.37 413.41,-526.33 400.57,-997.53l-213.35 5.45c-3.05,177.41 0,354.88 -0.87,532.29 -0.87,172.45 -11.6,303.76 -210.91,287.4 -271.95,-22.35 -165.69,-573.83 -173.36,-826.86l-202.87 4.87z"/>
  <path class="fil0" d="M16252.3 7291.87l-11.53 -43.88 12.03 -605.94 -399.82 -1.49c-33.04,493.79 70.03,868.15 100.76,1324.82l193.87 5.18 104.69 -678.69z"/>
  <path class="fil6" d="M13998.05 10146.39c1.68,-99.64 54.66,-264.3 121.05,-353.23l98.03 352.89 -219.08 0.34zm-9.42 -584.93l-352.79 945.42 209.36 4.55 79.01 -194.96 365.16 -2.43 65.49 196.55 218.55 0.72 -284.44 -835.27 -74.28 -132.47 -132.8 -7.11 -93.26 25z"/>
  <path class="fil4" d="M14805.2 11139.03c157.31,-28.8 230.21,-22.19 324.68,46.03 29.89,187.2 -37.53,251.81 -229.4,232.73l-95.4 -13.49 0.09 -171.46 0.03 -93.81zm5.36 452.93c260.44,-39.15 503.59,35.1 538.21,-252.24 54.17,-449.44 -371.27,-392.5 -751.99,-379.53l-8.01 961.87 215.31 7.54 6.48 -337.64z"/>
  <path class="fil6" d="M9361.68 9781.6c-177.47,1025.55 815.17,870.09 838.77,400.67l-155.25 -3.46c-119.94,54.63 -79.85,198.63 -286.31,177.93 -287.74,-28.86 -269.48,-553.48 -67.32,-637.76 189.97,-79.22 247.66,46.16 327.23,140.82l186.7 1.78c-16.65,-289.52 -249.47,-350.58 -556.01,-332.94 -65.83,44.48 -97.4,30.48 -174.29,105.13 -49.22,47.78 -76.89,112.27 -113.52,147.83z"/>
  <path class="fil6" d="M6231.39 10160.82c65.3,64.58 114.57,264.43 151.38,351.39l192.75 -2.65 340.97 -961 -234.25 -2.87 -207.99 699.6 -218.42 -685.45c-76.58,-29.11 -104.07,-19.73 -203.62,-18.76 30.01,206.86 178.74,446.67 179.18,619.74z"/>
  <path class="fil6" d="M3899.47 11134.95l496.44 -10.91 -1 -163.73 -711.78 4.58 -0.06 967.18 207.51 -10.54 2.78 -400.1c80.78,-2.37 160.23,-2.65 241.05,-1.4 18.39,0.28 121.55,1.59 132.31,-0.88 74.96,-17.14 64.23,-22.66 64.98,-165.06l-435.13 -2.28 2.9 -216.86z"/>
  <path class="fil6" d="M15960.6 10326.82c-32.38,-31.35 -27.71,60.13 -27.61,-70.34l-4.31 -148.39c30.86,-54.21 -27.42,-25.75 78.92,-43.61 45.54,-7.67 258.88,16.8 375.01,-12l0.35 -105.53c-151.35,-17.24 -333.28,22.34 -464.56,-33.54l-9.44 -215.71 525.61 -16.37 1.28 -117.56 -680.74 -0.91 -1.53 920.99c158.8,20.32 595.31,41.86 706.49,-16.27l2.24 -116.17c-144.34,-3.36 -399.01,33.91 -501.71,-24.59z"/>
  <path class="fil6" d="M4139.05 13027.15l-13.87 314.49 231.64 -10.26c11.13,-319.44 -35.09,-301.61 108.69,-552.6 53.92,-94.1 190,-318.17 211.97,-401.23l-227.09 -1.96 -184.39 382.27c-77.48,-34.07 -148.51,-244.95 -222.76,-379.87l-226.37 -2.4c31.67,186.22 270.97,427.25 322.18,651.56z"/>
  <polygon class="fil6" points="13101.03,11918.79 13109.17,11135.35 13400.4,11128.49 13398.22,10962.31 12586.04,10969.41 12585.11,11128.24 12885.38,11140.77 12886.91,11928.45 "/>
  <polygon class="fil4" points="2887.25,13352.14 3093.46,13350.21 3097.61,12549.69 3392.14,12541.84 3385.57,12375.46 2579.97,12380.01 2582.21,12545.05 2876.03,12551.59 "/>
  <path class="fil3" d="M15112.4 13000.91c153.72,-505.2 -411.58,-643.4 -510.69,-280.95 -133.21,487.16 398.36,650.13 510.69,280.95z"/>
  <polygon class="fil6" points="10928.5,11933.44 10932.24,11138.37 11232.32,11125.13 11231.05,10966.48 10417.19,10969.16 10417.62,11127.9 10718.49,11142.27 10719.52,11933.66 "/>
  <polygon class="fil6" points="2965.73,10528.98 2978.36,9717.02 3277.07,9713.65 3271.21,9541.26 2457.48,9544.1 2463.81,9711.88 2763.45,9716.9 2773.46,10508.03 "/>
  <path class="fil3" d="M5139.39 12549.04c-316.95,166.68 -136.92,801.01 226.09,627.53 298.03,-142.44 158.27,-829.63 -226.09,-627.53z"/>
  <path class="fil3" d="M9785.94 12551.25c-312.89,152.25 -140.16,794.5 225.57,627.07 284.62,-130.35 185.13,-826.89 -225.57,-627.07z"/>
  <path class="fil3" d="M13852.52 11125.35c-340.38,144.99 -178.43,804.78 206.05,635.85 270.73,-118.93 184.83,-802.42 -206.05,-635.85z"/>
  <path class="fil3" d="M7001.4 11772.86c-19.27,-93.29 -121.15,-70.22 -19.17,-170.96 68.5,-67.72 81.1,-7.79 160.17,24.75 170.64,-311.24 -138.73,-710.35 -409.64,-460.26 -151.38,139.73 -164.16,674.1 268.64,606.47z"/>
  <path class="fil6" d="M10356.66 10504.64l714.06 9.31 12 -176.97 -483.23 -1.77 -18.23 -25.97 -6.05 -769.47 -200.22 13.93c-11.66,251.43 44.29,747.85 -18.33,950.94z"/>
  <polygon class="fil6" points="9184.68,9533.07 8965.35,9543.82 8962.11,10510.03 9163.99,10511.03 "/>
  <polygon class="fil6" points="4384.35,9531.14 4391.2,10505.23 4598.47,10511.68 4597.35,9541.67 "/>
  <path class="fil6" d="M6167.47 7780.37l209.66 5.36 158.34 -0.19 109.89 -2.34c-33.31,-154.09 -165.68,-606.31 -240.92,-695.32l-236.97 692.49z"/>
  <path class="fil8" d="M15960.6 10326.82c102.7,58.5 357.37,21.23 501.71,24.59l-2.24 116.17c-111.18,58.13 -547.69,36.59 -706.49,16.27l1.53 -920.99 680.74 0.91 -1.28 117.56 -525.61 16.37 9.44 215.71c131.28,55.88 313.21,16.3 464.56,33.54l-0.35 105.53c-116.13,28.8 -329.47,4.33 -375.01,12 -106.34,17.86 -48.06,-10.6 -78.92,43.61l494.08 -15.03 7.01 -171.39 -485.63 -14.77 -3.24 -186.36c152.29,-0.22 389.88,28.71 522.6,-18.23l4.2 -175.85 -750.27 3.37 -3.21 982.57 770.78 9.04 14.74 -188.17 -539.14 -6.45z"/>
  <polygon class="fil3" points="15860.36,8473.51 16235.03,8479.03 16244.38,8125.46 15861.7,8121.1 "/>
  <path class="fil9" d="M4750.13 11379.77c147.21,21.32 280.02,23.97 374.39,-51.27 24,-245.51 -152.85,-226.97 -374.42,-191.75l0.03 243.02z"/>
  <path class="fil9" d="M7485.96 12766.34c63.46,-263.59 -118.93,-231.2 -364.29,-222.76l6.67 257.92 93.23 2.71c103.57,3.89 193.21,-7.67 264.39,-37.87z"/>
  <path class="fil3" d="M14805.17 11232.84l-0.09 171.46 95.4 13.49c191.87,19.08 259.29,-45.53 229.4,-232.73 -94.47,-68.22 -167.37,-74.83 -324.68,-46.03l-0.03 93.81z"/>
  <path class="fil10" d="M11697.16 12668.19c-1.93,47.06 23.16,-8.57 -25.37,66.11 195.3,1.34 230.96,-132.68 208.05,-357.03l-189.28 3.33c-8.14,270.32 53.76,91.01 91.6,224.48 -47,59.53 -10.47,27.67 -85,63.11z"/>
  <path class="fil11" d="M13998.05 10146.39l219.08 -0.34 -98.03 -352.89c-66.39,88.93 -119.37,253.59 -121.05,353.23z"/>
  <path class="fil9" d="M2044.72 12980.93l229.9 1.53 -71.5 -264.87c-26.75,-54.57 -26.03,-42.42 -55.48,-72.99l-102.92 336.33z"/>
 </g>
</svg>
