<?xml version="1.0" encoding="UTF-8"?>
<!DOCTYPE svg PUBLIC "-//W3C//DTD SVG 1.1//EN" "http://www.w3.org/Graphics/SVG/1.1/DTD/svg11.dtd">
<!-- Creator: CorelDRAW 2017 -->
<svg xmlns="http://www.w3.org/2000/svg" xml:space="preserve" width="200mm" height="200mm" version="1.1" style="shape-rendering:geometricPrecision; text-rendering:geometricPrecision; image-rendering:optimizeQuality; fill-rule:evenodd; clip-rule:evenodd"
viewBox="0 0 20000 20000"
 xmlns:xlink="http://www.w3.org/1999/xlink">
 <defs>
  <style type="text/css">
   <![CDATA[
    .fil1 {fill:#848688;fill-rule:nonzero}
    .fil0 {fill:#373435;fill-rule:nonzero}
   ]]>
  </style>
 </defs>
 <g id="Capa_x0020_1">
  <metadata id="CorelCorpID_0Corel-Layer"/>
  <g id="_2850521305184">
   <path class="fil0" d="M2291.19 10569.17c-178.81,86.47 -413.12,129.73 -701.81,129.73 -376.3,0 -672.56,-110.44 -888.17,-331.91 -216.21,-221.46 -323.72,-516.53 -323.72,-885.25 0,-392.68 120.96,-711.13 363.45,-955.38 242.51,-244.26 557.45,-366.38 944.29,-366.38 239.58,0 441.74,30.38 605.96,91.14l0 532.34c-164.22,-98.18 -351.19,-147.26 -561.55,-147.26 -230.24,0 -416.63,72.45 -558.05,217.38 -141.4,144.9 -212.11,341.24 -212.11,589 0,237.24 66.61,426.57 200.42,567.4 133.24,140.82 313.22,211.51 539.35,211.51 215.61,0 413.13,-52.59 591.94,-157.76l0 505.44zm2040.48 87.07l-539.33 0 0 -267.03 -8.21 0c-133.81,206.26 -312.03,309.69 -535.82,309.69 -406.7,0 -609.46,-246.01 -609.46,-738.03l0 -1057.64 539.35 0 0 1009.73c0,247.76 98.16,371.65 294.5,371.65 96.99,0 174.12,-33.91 232.57,-101.69 58.43,-67.77 87.07,-160.09 87.07,-276.37l0 -1003.32 539.33 0 0 1753.01zm3238.96 0l-539.35 0 0 -999.79c0,-254.77 -93.48,-381.57 -280.48,-381.57 -88.81,0 -161.26,37.99 -217.37,114.52 -56.09,76.55 -84.14,171.8 -84.14,285.75l0 981.09 -540.5 0 0 -1010.31c0,-247.18 -92.34,-371.05 -275.82,-371.05 -92.32,0 -166.54,36.23 -221.46,109.27 -55.52,73.05 -83.56,172.38 -83.56,298.01l0 974.08 -540.5 0 0 -1753.01 540.5 0 0 274.06 7.01 0c56.11,-93.48 134.41,-170.03 235.5,-228.46 101.09,-59.03 211.53,-88.24 331.3,-88.24 247.76,0 417.22,108.68 508.37,326.65 133.81,-217.97 329.58,-326.65 589.03,-326.65 380.97,0 571.47,234.9 571.47,705.29l0 1090.36zm1447.97 0l0 -2454.79 870.08 0c871.82,0 1307.74,398.53 1307.74,1196.73 0,382.14 -119.22,687.16 -357.03,915.65 -237.84,228.46 -554.55,342.41 -950.71,342.41l-870.08 0zm553.37 -2004.85l0 1556.07 274.04 0c239.58,0 427.15,-71.85 563.89,-215.61 136.15,-143.73 204.5,-339.5 204.5,-587.26 0,-233.74 -67.77,-417.8 -202.75,-551.61 -135.56,-134.38 -324.89,-201.59 -569.14,-201.59l-270.54 0zm3644.49 2004.85l-539.33 0 0 -267.03 -8.21 0c-133.81,206.26 -312.03,309.69 -535.82,309.69 -406.7,0 -609.46,-246.01 -609.46,-738.03l0 -1057.64 539.35 0 0 1009.73c0,247.76 98.16,371.65 294.5,371.65 96.99,0 174.12,-33.91 232.57,-101.69 58.43,-67.77 87.07,-160.09 87.07,-276.37l0 -1003.32 539.33 0 0 1753.01zm3238.96 0l-539.35 0 0 -999.79c0,-254.77 -93.48,-381.57 -280.48,-381.57 -88.81,0 -161.26,37.99 -217.37,114.52 -56.09,76.55 -84.14,171.8 -84.14,285.75l0 981.09 -540.5 0 0 -1010.31c0,-247.18 -92.34,-371.05 -275.82,-371.05 -92.32,0 -166.54,36.23 -221.46,109.27 -55.52,73.05 -83.56,172.38 -83.56,298.01l0 974.08 -540.5 0 0 -1753.01 540.5 0 0 274.06 7.01 0c56.11,-93.48 134.41,-170.03 235.5,-228.46 101.09,-59.03 211.53,-88.24 331.3,-88.24 247.76,0 417.22,108.68 508.37,326.65 133.81,-217.97 329.58,-326.65 589.03,-326.65 380.97,0 571.47,234.9 571.47,705.29l0 1090.36zm975.82 -203.93l-7.01 0 0 1010.31 -540.49 0 0 -2559.39 540.49 0 0 263.55 7.01 0c133.82,-203.93 321.41,-306.19 563.3,-306.19 227.32,0 402.6,77.72 526.49,233.74 123.87,155.41 185.83,367.54 185.83,635.74 0,292.17 -72.47,526.5 -216.8,703.55 -144.33,177.05 -336.57,265.28 -576.15,265.28 -210.94,0 -371.63,-81.82 -482.67,-246.59zm-15.19 -718.73l0 140.25c0,120.96 31.55,219.69 95.85,296.24 63.67,76.55 147.83,114.54 251.83,114.54 122.73,0 218.55,-47.34 286.33,-142.59 67.77,-95.24 102.26,-230.23 102.26,-404.94 0,-308.52 -119.79,-462.2 -359.94,-462.2 -110.44,0 -201.02,41.5 -271.13,125.63 -70.14,84.14 -105.2,195.18 -105.2,333.07zm1883.32 965.32c-89.41,0 -163.6,-27.47 -222.63,-81.82 -59.59,-54.92 -88.81,-122.13 -88.81,-202.16 0,-82.4 30.39,-149.6 91.15,-202.19 61.36,-52.58 137.32,-78.89 228.47,-78.89 92.91,0 168.29,26.88 227.32,80.06 58.43,52.59 87.64,119.79 87.64,201.02 0,82.97 -29.81,151.34 -89.41,204.5 -60.19,53.18 -137.89,79.48 -233.73,79.48z"/>
   <path class="fil1" d="M963.31 11826.94l0 -674.52c-15.15,15.17 -40.63,32.22 -76.44,51.51 -35.84,19.11 -69.93,32.7 -102.31,40.81l0 -90.76c40.12,-11.18 83.36,-29.1 130.01,-54.07 46.52,-24.8 82.83,-48.74 108.68,-71.63l24.26 0 0 798.66 -84.2 0zm512.91 -374.88c0,-137.94 22.54,-242.29 67.5,-313.23 44.77,-70.96 109.68,-106.43 194.42,-106.43 162.36,0 243.65,133.47 243.65,400.55 0,129.82 -22.22,230.04 -66.81,300.82 -44.61,70.96 -109.34,106.25 -194.6,106.25 -79.37,0 -139.82,-33.91 -181.5,-101.94 -41.65,-67.85 -62.66,-163.23 -62.66,-286.02zm85.74 -4.47c0,213.87 55.97,320.8 167.56,320.8 110.72,0 166.01,-108.49 166.01,-325.29 0,-225.74 -54.08,-338.54 -161.88,-338.54 -114.52,0 -171.69,114.33 -171.69,343.03zm669.95 4.47c0,-137.94 22.55,-242.29 67.5,-313.23 44.78,-70.96 109.69,-106.43 194.42,-106.43 162.36,0 243.66,133.47 243.66,400.55 0,129.82 -22.23,230.04 -66.82,300.82 -44.61,70.96 -109.34,106.25 -194.6,106.25 -79.37,0 -139.81,-33.91 -181.49,-101.94 -41.66,-67.85 -62.67,-163.23 -62.67,-286.02zm85.74 -4.47c0,213.87 55.98,320.8 167.57,320.8 110.71,0 166,-108.49 166,-325.29 0,-225.74 -54.07,-338.54 -161.88,-338.54 -114.52,0 -171.69,114.33 -171.69,343.03zm665.47 -205.78c0,-64.07 16.88,-114.68 50.63,-151.89 33.92,-37.35 79.38,-55.96 136.54,-55.96 55.11,0 98.16,17.39 128.82,52.17 30.82,34.79 46.33,83 46.33,144.47 0,61.32 -17.23,110.9 -51.32,149.14 -34.1,38.22 -79.05,57.17 -134.82,57.17 -53.92,0 -96.79,-17.92 -128.48,-53.73 -31.85,-35.81 -47.7,-82.99 -47.7,-141.37zm70.09 -5.18c0,44.77 9.99,79.73 30.13,104.71 19.98,25.14 47.18,37.53 81.45,37.53 34.97,0 62.17,-12.74 81.62,-38.56 19.64,-25.66 29.28,-61.48 29.28,-107.12 0,-45.12 -9.64,-80.08 -28.94,-105.03 -19.27,-24.79 -45.96,-37.21 -80.05,-37.21 -34.63,0 -62.17,13.26 -82.67,39.8 -20.49,26.51 -30.82,61.82 -30.82,105.88zm626.12 -191.14l-500.42 787.47 -74.72 0 500.4 -787.47 74.74 0zm-231.6 598.23c0,-63.53 16.86,-114.33 50.45,-152.57 33.75,-38.06 78.87,-57.17 135.69,-57.17 54.92,0 97.79,17.57 128.63,52.86 30.98,35.31 46.5,84.39 46.5,146.89 0,61.48 -17.24,111.06 -51.67,148.78 -34.6,37.71 -79.21,56.48 -133.98,56.48 -52.86,0 -95.22,-17.74 -127.42,-53.39 -32.03,-35.63 -48.2,-82.99 -48.2,-141.88zm69.22 -4.49c0,43.74 10.15,78.18 30.47,103.5 20.32,25.14 47.36,37.72 80.93,37.72 34.96,0 62.16,-12.93 81.8,-39.09 19.45,-26.01 29.28,-61.82 29.28,-107.12 0,-45.46 -9.65,-80.24 -28.75,-104.51 -19.3,-24.13 -45.81,-36.34 -79.74,-36.34 -35.65,0 -63.54,13.08 -83.86,39.25 -20.14,26.01 -30.13,61.48 -30.13,106.59zm851.44 187.71l0 -781.45 218.34 0c64.92,0 117.27,16.36 156.89,48.92 39.78,32.72 59.57,75.77 59.57,129.66 0,43.74 -11.71,82.14 -35.12,115.02 -23.26,32.88 -56.32,56.67 -99.03,71.13l0 2.06c52.01,4.99 94.03,24.45 125.88,58.54 31.69,33.94 47.52,78.02 47.52,132.1 0,66.28 -23.76,120.17 -71.28,161.67 -47.52,41.52 -107.62,62.35 -180.28,62.35l-222.49 0zm85.75 -701.72l0 256.75 94.72 0c51.83,0 92.29,-12.4 121.23,-37.01 28.76,-24.81 43.22,-59.41 43.22,-103.68 0,-77.49 -50.3,-116.06 -151.21,-116.06l-107.96 0zm0 335.96l0 286.02 126.57 0c53.89,0 95.91,-12.9 126.39,-38.56 30.49,-25.67 45.64,-61.3 45.64,-106.78 0,-93.83 -64.23,-140.68 -192.7,-140.68l-105.9 0zm1305.03 365.76l-95.39 0 -84.73 -221.96 -334.92 0 -79.21 221.96 -95.91 0 300.64 -781.45 87.32 0 302.2 781.45zm-209.4 -300.67l-125.01 -337.51c-3.44,-9.46 -7.22,-26.51 -11.71,-51.48l-2.41 0c-3.78,22.91 -7.93,40.12 -12.74,51.48l-123.48 337.51 275.35 0zm1036.22 300.67l-102.97 0 -131.23 -219.9c-27.88,-47.18 -53.2,-78.02 -76.11,-92.64 -22.89,-14.64 -49.59,-21.88 -80.24,-21.88l-77.15 0 0 334.42 -85.74 0 0 -781.45 230.04 0c71.65,0 128.64,18.44 171,55.29 42.37,36.84 63.54,87.64 63.54,152.55 0,107.99 -57.69,178.06 -173.06,210.43l0 1.91c21.54,9.46 39.27,21.7 53.2,36.84 13.96,15.15 34.97,45.12 62.88,89.89l145.84 234.54zm-467.7 -701.72l0 287.59 127.6 0c47.36,0 86.11,-13.96 116.08,-41.68 29.95,-27.73 44.77,-64.76 44.77,-110.72 0,-42.36 -13.61,-75.61 -40.83,-99.37 -27.2,-23.92 -66.98,-35.82 -118.99,-35.82l-128.63 0zm1145.06 701.72l-410.52 0 0 -781.45 392.96 0 0 78.7 -307.21 0 0 265.89 283.96 0 0 78.68 -283.96 0 0 279.47 324.77 0 0 78.71zm308.86 0l0 -781.45 218.34 0c64.91,0 117.27,16.36 156.89,48.92 39.77,32.72 59.57,75.77 59.57,129.66 0,43.74 -11.71,82.14 -35.12,115.02 -23.26,32.88 -56.32,56.67 -99.03,71.13l0 2.06c52.01,4.99 94.03,24.45 125.88,58.54 31.69,33.94 47.52,78.02 47.52,132.1 0,66.28 -23.76,120.17 -71.28,161.67 -47.52,41.52 -107.62,62.35 -180.28,62.35l-222.49 0zm85.74 -701.72l0 256.75 94.73 0c51.83,0 92.29,-12.4 121.23,-37.01 28.76,-24.81 43.21,-59.41 43.21,-103.68 0,-77.49 -50.29,-116.06 -151.2,-116.06l-107.97 0zm0 335.96l0 286.02 126.58 0c53.89,0 95.91,-12.9 126.38,-38.56 30.5,-25.67 45.65,-61.3 45.65,-106.78 0,-93.83 -64.23,-140.68 -192.7,-140.68l-105.91 0zm1305.04 365.76l-95.39 0 -84.73 -221.96 -334.92 0 -79.21 221.96 -95.91 0 300.64 -781.45 87.32 0 302.2 781.45zm-209.4 -300.67l-125.02 -337.51c-3.43,-9.46 -7.21,-26.51 -11.7,-51.48l-2.41 0c-3.78,22.91 -7.93,40.12 -12.74,51.48l-123.48 337.51 275.35 0zm997.82 267.44c-57.52,30.82 -129.33,46.31 -215.43,46.31 -109.69,0 -198.02,-36.16 -265.18,-108.47 -66.99,-72.34 -100.56,-165.85 -100.56,-280.52 0,-120.37 36.84,-220.25 110.37,-299.64 73.71,-79.37 169.44,-118.99 287.06,-118.99 74.05,0 135.34,10.68 183.74,32.22l0 92.8c-56.14,-30.82 -118.14,-46.31 -185.65,-46.31 -92.79,0 -167.03,31.16 -222.3,93.85 -55.27,62.51 -82.99,142.91 -82.99,241.07 0,93.16 25.98,169.1 77.65,227.98 51.83,58.91 121.24,88.36 208.37,88.36 78.69,0 147.06,-17.58 204.92,-52.52l0 83.86zm854.01 33.23l-121.58 0 -306.34 -358.18c-10.34,-12.4 -17.21,-21.17 -20.65,-26.17l-2.43 0 0 384.35 -85.74 0 0 -781.45 85.74 0 0 367.32 2.43 0c4.81,-7.43 11.71,-16.02 20.65,-25.85l297.22 -341.47 106.94 0 -339.07 374.88 362.83 406.57z"/>
  </g>
 </g>
</svg>
