<?xml version="1.0" encoding="UTF-8"?>
<!DOCTYPE svg PUBLIC "-//W3C//DTD SVG 1.1//EN" "http://www.w3.org/Graphics/SVG/1.1/DTD/svg11.dtd">
<!-- Creator: CorelDRAW 2017 -->
<svg xmlns="http://www.w3.org/2000/svg" xml:space="preserve" width="200mm" height="200mm" version="1.1" style="shape-rendering:geometricPrecision; text-rendering:geometricPrecision; image-rendering:optimizeQuality; fill-rule:evenodd; clip-rule:evenodd"
viewBox="0 0 20000 20000"
 xmlns:xlink="http://www.w3.org/1999/xlink">
 <defs>
  <style type="text/css">
   <![CDATA[
    .fil0 {fill:none}
    .fil2 {fill:#848688;fill-rule:nonzero}
    .fil1 {fill:#373435;fill-rule:nonzero}
   ]]>
  </style>
 </defs>
 <g id="Capa_x0020_1">
  <metadata id="CorelCorpID_0Corel-Layer"/>
  <rect class="fil0" width="20000" height="20000"/>
  <rect class="fil0" width="20000" height="20000"/>
  <g id="_1892222719744">
   <path class="fil1" d="M1988.77 10591.5c-185.83,89.86 -429.33,134.82 -729.34,134.82 -391.06,0 -698.95,-114.77 -923.02,-344.94 -224.69,-230.14 -336.41,-536.79 -336.41,-919.97 0,-408.09 125.7,-739.03 377.7,-992.86 252.03,-253.84 579.32,-380.76 981.34,-380.76 248.98,0 459.07,31.58 629.73,94.73l0 553.22c-170.66,-102.03 -364.96,-153.04 -583.58,-153.04 -239.26,0 -432.97,75.29 -579.94,225.9 -146.95,150.59 -220.43,354.63 -220.43,612.11 0,246.55 69.22,443.31 208.28,589.66 138.47,146.35 325.51,219.81 560.51,219.81 224.07,0 429.33,-54.65 615.16,-163.95l0 525.27zm2120.52 90.48l-560.48 0 0 -277.5 -8.53 0c-139.06,214.35 -324.27,321.84 -556.84,321.84 -422.66,0 -633.37,-255.67 -633.37,-766.98l0 -1099.14 560.51 0 0 1049.35c0,257.48 102.01,386.23 306.05,386.23 100.8,0 180.95,-35.24 241.69,-105.68 60.72,-70.44 90.49,-166.37 90.49,-287.22l0 -1042.68 560.48 0 0 1821.78zm3366.04 0l-560.51 0 0 -1039.01c0,-264.76 -97.16,-396.54 -291.49,-396.54 -92.29,0 -167.58,39.48 -225.9,119.02 -58.29,79.55 -87.44,178.54 -87.44,296.95l0 1019.58 -561.7 0 0 -1049.94c0,-256.88 -95.96,-385.61 -286.64,-385.61 -95.94,0 -173.07,37.65 -230.15,113.56 -57.69,75.92 -86.84,179.14 -86.84,309.7l0 1012.29 -561.7 0 0 -1821.78 561.7 0 0 284.82 7.29 0c58.31,-97.15 139.68,-176.71 244.74,-237.43 105.06,-61.34 219.83,-91.7 344.29,-91.7 257.48,0 433.6,112.94 528.32,339.46 139.06,-226.52 342.51,-339.46 612.13,-339.46 395.92,0 593.9,244.12 593.9,732.96l0 1133.13zm1504.77 0l0 -2551.09 904.21 0c906.02,0 1359.04,414.16 1359.04,1243.68 0,397.13 -123.89,714.12 -371.04,951.57 -247.17,237.43 -576.29,355.84 -988,355.84l-904.21 0zm575.08 -2083.49l0 1617.11 284.79 0c248.98,0 443.9,-74.67 586.01,-224.07 141.49,-149.37 212.52,-352.82 212.52,-610.3 0,-242.9 -70.43,-434.18 -210.71,-573.25 -140.87,-139.65 -337.63,-209.49 -591.46,-209.49l-281.15 0zm3787.45 2083.49l-560.48 0 0 -277.5 -8.53 0c-139.06,214.35 -324.27,321.84 -556.84,321.84 -422.66,0 -633.37,-255.67 -633.37,-766.98l0 -1099.14 560.51 0 0 1049.35c0,257.48 102.01,386.23 306.05,386.23 100.8,0 180.95,-35.24 241.69,-105.68 60.72,-70.44 90.49,-166.37 90.49,-287.22l0 -1042.68 560.48 0 0 1821.78zm3366.04 0l-560.51 0 0 -1039.01c0,-264.76 -97.16,-396.54 -291.49,-396.54 -92.29,0 -167.58,39.48 -225.9,119.02 -58.29,79.55 -87.44,178.54 -87.44,296.95l0 1019.58 -561.7 0 0 -1049.94c0,-256.88 -95.96,-385.61 -286.64,-385.61 -95.94,0 -173.07,37.65 -230.15,113.56 -57.69,75.92 -86.84,179.14 -86.84,309.7l0 1012.29 -561.7 0 0 -1821.78 561.7 0 0 284.82 7.29 0c58.31,-97.15 139.68,-176.71 244.74,-237.43 105.05,-61.34 219.83,-91.7 344.29,-91.7 257.48,0 433.59,112.94 528.32,339.46 139.06,-226.52 342.51,-339.46 612.13,-339.46 395.92,0 593.9,244.12 593.9,732.96l0 1133.13zm1014.1 -211.92l-7.29 0 0 1049.94 -561.7 0 0 -2659.8 561.7 0 0 273.89 7.29 0c139.06,-211.93 334.01,-318.2 585.39,-318.2 236.24,0 418.4,80.77 547.15,242.91 128.73,161.51 193.12,381.96 193.12,660.68 0,303.63 -75.32,547.15 -225.31,731.15 -149.99,183.99 -349.78,275.69 -598.75,275.69 -219.22,0 -386.21,-85.03 -501.6,-256.26zm-15.79 -746.94l0 145.76c0,125.7 32.79,228.31 99.61,307.86 66.17,79.56 153.63,119.04 261.71,119.04 127.54,0 227.12,-49.2 297.56,-148.18 70.43,-98.99 106.27,-239.27 106.27,-420.83 0,-320.63 -124.49,-480.34 -374.06,-480.34 -114.78,0 -208.9,43.13 -281.77,130.56 -72.89,87.44 -109.32,202.83 -109.32,346.13zm1957.2 1003.2c-92.92,0 -170.02,-28.55 -231.36,-85.03 -61.93,-57.08 -92.29,-126.92 -92.29,-210.09 0,-85.63 31.57,-155.47 94.72,-210.12 63.77,-54.65 142.71,-81.98 237.43,-81.98 96.56,0 174.9,27.93 236.24,83.19 60.72,54.65 91.08,124.49 91.08,208.91 0,86.22 -30.98,157.27 -92.92,212.52 -62.55,55.27 -143.3,82.6 -242.9,82.6z"/>
   <path class="fil2" d="M608.8 11898.61l0 -700.98c-15.74,15.76 -42.22,33.48 -79.44,53.53 -37.24,19.86 -72.67,33.98 -106.32,42.41l0 -94.32c41.7,-11.62 86.63,-30.24 135.11,-56.2 48.34,-25.76 86.08,-50.64 112.94,-74.43l25.22 0 0 829.99 -87.51 0zm533.03 -389.59c0,-143.35 23.43,-251.79 70.15,-325.51 46.53,-73.75 113.99,-110.61 202.04,-110.61 168.73,0 253.22,138.71 253.22,416.26 0,134.92 -23.1,239.07 -69.44,312.63 -46.36,73.74 -113.63,110.41 -202.23,110.41 -82.49,0 -145.3,-35.24 -188.62,-105.94 -43.29,-70.5 -65.12,-169.63 -65.12,-297.24zm89.1 -4.64c0,222.26 58.17,333.39 174.14,333.39 115.06,0 172.52,-112.75 172.52,-338.06 0,-234.6 -56.2,-351.82 -168.24,-351.82 -119.01,0 -178.42,118.82 -178.42,356.49zm696.24 4.64c0,-143.35 23.43,-251.79 70.15,-325.51 46.53,-73.75 113.99,-110.61 202.04,-110.61 168.73,0 253.22,138.71 253.22,416.26 0,134.92 -23.1,239.07 -69.44,312.63 -46.36,73.74 -113.63,110.41 -202.23,110.41 -82.49,0 -145.3,-35.24 -188.62,-105.94 -43.29,-70.5 -65.12,-169.63 -65.12,-297.24zm89.1 -4.64c0,222.26 58.18,333.39 174.14,333.39 115.06,0 172.52,-112.75 172.52,-338.06 0,-234.6 -56.2,-351.82 -168.23,-351.82 -119.02,0 -178.43,118.82 -178.43,356.49zm691.57 -213.86c0,-66.58 17.55,-119.18 52.63,-157.85 35.24,-38.81 82.48,-58.15 141.89,-58.15 57.27,0 102.01,18.08 133.87,54.22 32.03,36.15 48.15,86.25 48.15,150.14 0,63.72 -17.91,115.25 -53.34,154.99 -35.43,39.72 -82.15,59.41 -140.11,59.41 -56.03,0 -100.58,-18.62 -133.51,-55.84 -33.1,-37.22 -49.58,-86.25 -49.58,-146.92zm72.84 -5.38c0,46.53 10.39,82.87 31.32,108.82 20.76,26.12 49.03,39 84.65,39 36.34,0 64.6,-13.24 84.82,-40.07 20.4,-26.67 30.43,-63.89 30.43,-111.32 0,-46.89 -10.03,-83.22 -30.08,-109.16 -20.02,-25.76 -47.76,-38.67 -83.2,-38.67 -35.98,0 -64.6,13.79 -85.91,41.36 -21.29,27.56 -32.03,64.25 -32.03,110.04zm650.69 -198.64l-520.05 818.37 -77.65 0 520.02 -818.37 77.68 0zm-240.69 621.71c0,-66.03 17.52,-118.83 52.43,-158.57 35.08,-39.55 81.96,-59.41 141.02,-59.41 57.07,0 101.63,18.27 133.68,54.94 32.19,36.69 48.31,87.7 48.31,152.65 0,63.89 -17.91,115.42 -53.7,154.62 -35.95,39.19 -82.31,58.69 -139.22,58.69 -54.94,0 -98.97,-18.43 -132.42,-55.48 -33.29,-37.03 -50.1,-86.25 -50.1,-147.44zm71.93 -4.67c0,45.46 10.55,81.25 31.67,107.56 21.12,26.12 49.22,39.19 84.11,39.19 36.33,0 64.6,-13.43 85.01,-40.62 20.21,-27.03 30.43,-64.25 30.43,-111.32 0,-47.24 -10.03,-83.39 -29.89,-108.61 -20.05,-25.07 -47.6,-37.76 -82.86,-37.76 -37.05,0 -66.03,13.59 -87.15,40.79 -20.93,27.02 -31.32,63.88 -31.32,110.77zm884.86 195.07l0 -812.11 226.9 0c67.46,0 121.87,17 163.04,50.84 41.34,34 61.91,78.75 61.91,134.75 0,45.46 -12.17,85.37 -36.5,119.54 -24.17,34.17 -58.53,58.88 -102.92,73.91l0 2.14c54.05,5.19 97.73,25.41 130.82,60.84 32.94,35.27 49.39,81.08 49.39,137.28 0,68.89 -24.69,124.89 -74.08,168.01 -49.38,43.15 -111.84,64.8 -187.35,64.8l-231.21 0zm89.1 -729.24l0 266.81 98.44 0c53.86,0 95.91,-12.88 125.99,-38.46 29.88,-25.79 44.91,-61.74 44.91,-107.75 0,-80.53 -52.27,-120.6 -157.14,-120.6l-112.2 0zm0 349.13l0 297.24 131.54 0c56,0 99.67,-13.41 131.34,-40.07 31.7,-26.67 47.44,-63.7 47.44,-110.97 0,-97.51 -66.75,-146.2 -200.26,-146.2l-110.06 0zm1356.23 380.11l-99.13 0 -88.05 -230.67 -348.06 0 -82.32 230.67 -99.68 0 312.44 -812.11 90.75 0 314.05 812.11zm-217.62 -312.46l-129.91 -350.75c-3.57,-9.84 -7.5,-27.55 -12.17,-53.51l-2.5 0c-3.93,23.81 -8.24,41.7 -13.24,53.51l-128.32 350.75 286.14 0zm1076.88 312.46l-107.02 0 -136.37 -228.53c-28.98,-49.03 -55.29,-81.08 -79.1,-96.27 -23.79,-15.21 -51.53,-22.74 -83.39,-22.74l-80.17 0 0 347.54 -89.11 0 0 -812.11 239.07 0c74.46,0 133.68,19.17 177.71,57.46 44.03,38.29 66.03,91.08 66.03,158.54 0,112.22 -59.96,185.04 -179.85,218.69l0 1.97c22.38,9.84 40.82,22.55 55.29,38.29 14.5,15.74 36.34,46.89 65.34,93.42l151.57 243.74zm-486.05 -729.24l0 298.86 132.61 0c49.21,0 89.48,-14.5 120.63,-43.31 31.12,-28.82 46.52,-67.3 46.52,-115.06 0,-44.03 -14.14,-78.58 -42.43,-103.28 -28.26,-24.86 -69.6,-37.21 -123.65,-37.21l-133.68 0zm1189.97 729.24l-426.61 0 0 -812.11 408.37 0 0 81.79 -319.27 0 0 276.32 295.1 0 0 81.77 -295.1 0 0 290.43 337.51 0 0 81.8zm320.99 0l0 -812.11 226.9 0c67.46,0 121.87,17 163.04,50.84 41.34,34 61.91,78.75 61.91,134.75 0,45.46 -12.16,85.37 -36.5,119.54 -24.17,34.17 -58.53,58.88 -102.91,73.91l0 2.14c54.05,5.19 97.72,25.41 130.82,60.84 32.93,35.27 49.38,81.08 49.38,137.28 0,68.89 -24.69,124.89 -74.07,168.01 -49.39,43.15 -111.85,64.8 -187.36,64.8l-231.21 0zm89.1 -729.24l0 266.81 98.44 0c53.86,0 95.92,-12.88 125.99,-38.46 29.88,-25.79 44.91,-61.74 44.91,-107.75 0,-80.53 -52.27,-120.6 -157.14,-120.6l-112.2 0zm0 349.13l0 297.24 131.54 0c56.01,0 99.68,-13.41 131.35,-40.07 31.69,-26.67 47.43,-63.7 47.43,-110.97 0,-97.51 -66.74,-146.2 -200.26,-146.2l-110.06 0zm1356.24 380.11l-99.13 0 -88.06 -230.67 -348.06 0 -82.32 230.67 -99.67 0 312.43 -812.11 90.75 0 314.06 812.11zm-217.62 -312.46l-129.92 -350.75c-3.57,-9.84 -7.5,-27.55 -12.17,-53.51l-2.5 0c-3.93,23.81 -8.24,41.7 -13.24,53.51l-128.32 350.75 286.15 0zm1036.96 277.93c-59.77,32.03 -134.39,48.12 -223.88,48.12 -113.99,0 -205.78,-37.57 -275.57,-112.72 -69.63,-75.18 -104.52,-172.35 -104.52,-291.53 0,-125.09 38.29,-228.88 114.71,-311.39 76.6,-82.49 176.09,-123.66 298.31,-123.66 76.96,0 140.66,11.1 190.95,33.48l0 96.44c-58.34,-32.03 -122.77,-48.12 -192.92,-48.12 -96.44,0 -173.59,32.38 -231.03,97.53 -57.43,64.96 -86.24,148.52 -86.24,250.53 0,96.82 27,175.73 80.69,236.93 53.87,61.22 125.99,91.81 216.55,91.81 81.77,0 152.83,-18.26 212.95,-54.57l0 87.15zm887.52 34.53l-126.35 0 -318.36 -372.23c-10.74,-12.88 -17.89,-22 -21.46,-27.19l-2.52 0 0 399.42 -89.11 0 0 -812.11 89.11 0 0 381.73 2.52 0c5,-7.72 12.17,-16.64 21.46,-26.86l308.89 -354.87 111.13 0 -352.37 389.59 377.06 422.52z"/>
  </g>
 </g>
</svg>
