<?xml version="1.0" encoding="UTF-8"?>
<!DOCTYPE svg PUBLIC "-//W3C//DTD SVG 1.1//EN" "http://www.w3.org/Graphics/SVG/1.1/DTD/svg11.dtd">
<!-- Creator: CorelDRAW 2017 -->
<svg xmlns="http://www.w3.org/2000/svg" xml:space="preserve" width="200mm" height="200mm" version="1.1" style="shape-rendering:geometricPrecision; text-rendering:geometricPrecision; image-rendering:optimizeQuality; fill-rule:evenodd; clip-rule:evenodd"
viewBox="0 0 20000 20000"
 xmlns:xlink="http://www.w3.org/1999/xlink">
 <defs>
  <style type="text/css">
   <![CDATA[
    .fil0 {fill:none}
    .fil1 {fill:#1B191C}
    .fil4 {fill:#1E1C1C}
    .fil2 {fill:#FEF112}
    .fil3 {fill:#FFF212}
   ]]>
  </style>
 </defs>
 <g id="Capa_x0020_1">
  <metadata id="CorelCorpID_0Corel-Layer"/>
  <rect class="fil0" width="20000" height="20000"/>
  <g id="_1775467215504">
   <path class="fil1" d="M5970.78 8352.54c22.2,-53.75 277.79,-364.87 327.67,-398.66 85.55,47.21 196.66,142.15 284.3,211.36l862.03 649.58c230.45,164.52 1107.26,396.2 1385.6,621.03l-533.08 372.68c-86.14,63.28 -91.28,77.01 -219.74,41.87 -291.96,-79.87 -667.91,-165.6 -907.05,-296.05 -329.23,-179.58 -330.48,-381.69 -572.11,-629.44l-627.62 -572.37zm760.86 -535.06c318.15,-88.28 584.8,-86.98 864.93,-240.36 248.35,-135.99 333.41,-341.05 452.59,-651.47 852.01,161.15 1317.5,167.22 1699.96,844.52 64.46,114.17 224.18,460.53 235.66,601.92 -223.58,110.39 -423.36,116.74 -537.33,319.42 -104.14,185.2 -181.74,404.38 -319.54,531.42l-628.25 -339.06c-468.45,-254.37 -784.48,-367.88 -1217.03,-681.82l-550.99 -384.57zm-4271.16 767.79c-15.94,-563.74 18.39,-829.52 -283.48,-1227.57l-189.05 -197.81c-142.2,-123.75 -500.94,-393.09 -573.7,-548.27 525.44,-57.54 895.48,37.36 1261.98,285.55 161.06,109.07 318.77,230.98 445.81,349.5 38.79,36.19 56.42,63.31 95.31,97.6l204.38 183.32c47.88,38.25 57.53,30.93 99.52,88.69 -35.33,224.13 -144.67,462.81 -207.05,678.37 -72.68,251.14 -84.91,534.47 -86.12,810.96 -53.06,-27.62 -113.42,-107.02 -165.98,-151.89 -352.3,-300.76 -395.72,-225.67 -601.62,-368.45zm-2460.48 -1969.29l0 338.6c98.54,1.88 100.21,-5.82 155.25,-74.14 49.24,-61.14 51.91,-77.61 116.07,-128.86 90.24,97.13 114.01,198.47 200.28,270.06l-4.03 -161.08 0.39 -55.13c133.73,96.62 -24.87,-67.69 309.89,52.52 531.8,190.95 944.89,514.3 1221.54,1007.31 76.87,136.98 239.64,486.34 245.86,656.02l-633.69 116.44c88.66,161.65 319.29,214.32 485.21,235.24 457.21,57.64 960.83,788.44 1182.02,965.2 -137.61,300.05 -351.76,74.18 -496.29,596.4l1327.73 -12.98c73.21,166.71 307.68,437.25 424.87,585.7 285.25,361.32 607.24,771.5 925.91,1089.83 759.14,758.31 1988.95,1576.92 3152.97,1207.07 132.74,-42.17 262.27,-115.67 368.94,-143.66 -21.12,-15.29 -11.49,-11.92 -48.98,-24.16 -61.67,-20.13 -1113.33,-88.09 -1806.66,-302.28 -935.22,-288.91 -1256.15,-801.16 -1764.94,-1490.99l-722.11 -906.25c-239.31,-288.51 -536.69,-501.51 -735.51,-892.19 -881.87,-1732.84 1451.61,-3451.37 2547.94,-3558.2 340.57,-33.18 391.86,81.83 734.06,353.97 110.62,87.96 203.29,160.68 302.26,240.41 98.49,79.34 206.32,173.88 303.76,233.34 -86.1,209.37 -430.35,472.36 -756.49,532.92 -422.44,78.45 -721.55,-88.83 -1068.08,-178.15 103.32,822.83 -61.43,767.53 -904.92,1169.34 102.15,298.04 182.86,227.79 770.08,222.74l122.79 211.53c186.65,292.48 544.32,538.84 646.18,1038.37 37.14,182.12 55.05,397.65 180.65,494.69l205.26 -393.05c143.58,27.9 317.66,87.05 451.49,127.86 205.92,62.77 293.52,46.87 512.72,69.17 -18.62,93.35 -105.67,185.78 -130.74,270.84 -17.62,59.8 32.33,287.97 65.92,346.28 416.61,-138.56 1425.23,-1099.08 1708.76,-1459.87 117.53,-149.55 352.83,-521.71 467.41,-603.92 179.9,447.33 -61.57,607.98 110.65,804.81 171.68,-123.87 339.04,-594.3 332.2,-902.34 -25.29,-1137.22 -1533.2,-2090.87 -1578.65,-2192.86l-121.29 31.05c-6.41,112.56 94.25,305.65 126.39,417.78 -322.87,-61.48 -823.92,-352.29 -1088.39,-499.19 -411.89,-228.79 -669.15,-275.1 -771.43,-820.64 486.65,20.41 795.76,232.21 891.04,-342.14 -250.4,89.16 -498.09,196.63 -826.07,148.56 208.28,-550.68 143.55,-308.16 904.45,-327.33 240.64,-6.06 479.92,-30.53 714.85,-61.7 545.6,-72.38 824.43,-128.91 1303.81,116.12 351.99,179.91 606.56,418.08 896.87,634.46l891.72 653.2c52.62,7.72 381.98,221.16 470.71,271.23 474.91,267.94 998.5,586.44 1455.46,831.35 850.09,455.61 2354.34,964.97 3008.02,1546.39 256.23,227.91 562.53,454.96 872.79,658.48 587.92,385.64 1305.5,769.24 2169.57,880.42l0.02 -130.35 -1553.6 -804.49c-264.78,-150.76 -481.15,-307.15 -697.51,-484.32 -897.12,-734.64 -931.51,-827.31 -2211.23,-1335.37 -275.29,-109.29 -581.13,-222.42 -832.99,-349.28 -763.74,-384.69 -1497.52,-895.16 -2236.57,-1329.24 -742.14,-435.9 -762.86,-498.47 -1407.66,-976.12 -1386.19,-1026.84 -1764.22,-441.77 -3234.07,-300.99 -112.88,10.81 -528.79,-5.62 -581.62,58.37l-56.36 82.62c-70.42,113.43 -142.64,194.77 -206.71,316.31 -95.83,181.81 -105.64,353.52 -116.97,576.66 -700.01,6.77 -1285.05,164.38 -1791.09,461.22 -121.5,71.26 -229.93,149.33 -332.96,228.98 -297.26,229.79 -523.2,508.41 -721.83,828.37 -7.86,12.67 -24.16,38.31 -30.69,46.7 -26.67,34.27 -12.45,18.89 -39.11,41.96 -99.65,-122.07 -215.2,-228.91 -323.17,-351.25 -111.51,-126.35 -69.42,-150.2 -321.86,-376.3 -1154.16,-1033.72 -1885.42,-173.14 -1922.95,-158 -55.81,22.52 -472.23,-58.7 -607.11,-51.86 -213.33,10.81 -399.33,73.84 -600.43,111.79z"/>
   <path class="fil1" d="M20000 16005.18l0 -5477.2 -173.53 -17.41 -1.8 5309.75 -548.48 -387.21c-1047.01,-687.66 -3366.78,-1684.6 -4507.83,-1984.43 -641.47,-168.56 -960.66,-174.08 -1646.85,-91.72 -542.57,65.13 -1074.56,160.57 -1608.33,250.61 -531.36,89.63 -1073.65,169.06 -1608.04,251.92 -1938.02,300.51 -2842.41,219.01 -4630.83,-625.62 -876.62,-414.01 -1629.66,-832.25 -2369.07,-1332.82 -1025.39,-694.18 -1853.66,-2079.46 -2203.27,-3358.02 -113.32,-414.45 -33.78,-422.82 8.51,-794.66 23.22,-204.19 -68.46,-611.67 -207.39,-700.02 -35.42,59.59 -26.44,58.89 -15.16,200.38l42.6 651.01c-4.17,-4.23 -9.93,-16.75 -11.86,-13.32l-21.65 -26.58c-2.65,-3.87 -6.3,-8.97 -9,-13.27l-180.65 -401.96c-59.53,-126.81 -138.04,-340.75 -207.47,-447.88 -10.58,761.17 468.84,2254.96 786.34,2969.54 198.12,445.89 436.4,843.92 688.24,1191.94 579.78,801.22 1255.84,1189.91 2068.84,1710.04 1061.88,679.35 2827.35,1484.11 4127.33,1544.89 2190.67,102.42 4604.78,-1100.19 6674.3,-640.38 998.67,221.89 1889.25,650.13 2735.59,1043.38 774.58,359.91 1465.17,730.61 2264.83,1029.17 93.72,34.99 278.57,83.54 351.04,122.03l34.48 -128.52c58.88,52.16 105.62,117.96 169.11,166.36z"/>
   <path class="fil2" d="M8927.97 6372.53c-64.46,-105.94 -19.2,-18.33 6.14,-54.6l2733.19 -0.22c30.96,0.01 61.88,0.06 92.81,1l89.81 3.99 -891.72 -653.2c-290.31,-216.38 -544.88,-454.55 -896.87,-634.46 -479.38,-245.03 -758.21,-188.5 -1303.81,-116.12 -234.93,31.17 -474.21,55.64 -714.85,61.7 -760.9,19.17 -696.17,-223.35 -904.45,327.33 327.98,48.07 575.67,-59.4 826.07,-148.56 -95.28,574.35 -404.39,362.55 -891.04,342.14 102.28,545.54 359.54,591.85 771.43,820.64 264.47,146.9 765.52,437.71 1088.39,499.19 -32.14,-112.13 -132.8,-305.22 -126.39,-417.78l121.29 -31.05z"/>
   <path class="fil2" d="M1414.25 6611.62c72.76,155.18 431.5,424.52 573.7,548.27l189.05 197.81c301.87,398.05 267.54,663.83 283.48,1227.57 205.9,142.78 249.32,67.69 601.62,368.45 52.56,44.87 112.92,124.27 165.98,151.89 1.21,-276.49 13.44,-559.82 86.12,-810.96 62.38,-215.56 171.72,-454.24 207.05,-678.37 -41.99,-57.76 -51.64,-50.44 -99.52,-88.69l-204.38 -183.32c-38.89,-34.29 -56.52,-61.41 -95.31,-97.6 -127.04,-118.52 -284.75,-240.43 -445.81,-349.5 -366.5,-248.19 -736.54,-343.09 -1261.98,-285.55z"/>
   <path class="fil2" d="M5970.78 8352.54l627.62 572.37c241.63,247.75 242.88,449.86 572.11,629.44 239.14,130.45 615.09,216.18 907.05,296.05 128.46,35.14 133.6,21.41 219.74,-41.87l533.08 -372.68c-278.34,-224.83 -1155.15,-456.51 -1385.6,-621.03l-862.03 -649.58c-87.64,-69.21 -198.75,-164.15 -284.3,-211.36 -49.88,33.79 -305.47,344.91 -327.67,398.66z"/>
   <path class="fil3" d="M467.57 6860.56c4.54,5.85 9.22,7.29 11.05,19.25l26.57 77.77c1.92,12.6 -1.62,71.31 -2.1,90.77 138.93,88.35 230.61,495.83 207.39,700.02 -42.29,371.84 -121.83,380.21 -8.51,794.66 349.61,1278.56 1177.88,2663.84 2203.27,3358.02 739.41,500.57 1492.45,918.81 2369.07,1332.82 1788.42,844.63 2692.81,926.13 4630.83,625.62 534.39,-82.86 1076.68,-162.29 1608.04,-251.92 533.77,-90.04 1065.76,-185.48 1608.33,-250.61 686.19,-82.36 1005.38,-76.84 1646.85,91.72 1141.05,299.83 3460.82,1296.77 4507.83,1984.43l548.48 387.21 1.8 -5309.75c-864.07,-111.18 -1581.65,-494.78 -2169.57,-880.42 -310.26,-203.52 -616.56,-430.57 -872.79,-658.48 -653.68,-581.42 -2157.93,-1090.78 -3008.02,-1546.39 -456.96,-244.91 -980.55,-563.41 -1455.46,-831.35 -88.73,-50.07 -418.09,-263.51 -470.71,-271.23l-89.81 -3.99c-30.93,-0.94 -61.85,-0.99 -92.81,-1l-2733.19 0.22c-25.34,36.27 -70.6,-51.34 -6.14,54.6 45.45,101.99 1553.36,1055.64 1578.65,2192.86 6.84,308.04 -160.52,778.47 -332.2,902.34 -172.22,-196.83 69.25,-357.48 -110.65,-804.81 -114.58,82.21 -349.88,454.37 -467.41,603.92 -283.53,360.79 -1292.15,1321.31 -1708.76,1459.87 -33.59,-58.31 -83.54,-286.48 -65.92,-346.28 25.07,-85.06 112.12,-177.49 130.74,-270.84 -219.2,-22.3 -306.8,-6.4 -512.72,-69.17 -133.83,-40.81 -307.91,-99.96 -451.49,-127.86l-205.26 393.05c-125.6,-97.04 -143.51,-312.57 -180.65,-494.69 -101.86,-499.53 -459.53,-745.89 -646.18,-1038.37l-122.79 -211.53c-587.22,5.05 -667.93,75.3 -770.08,-222.74 843.49,-401.81 1008.24,-346.51 904.92,-1169.34 346.53,89.32 645.64,256.6 1068.08,178.15 326.14,-60.56 670.39,-323.55 756.49,-532.92 -97.44,-59.46 -205.27,-154 -303.76,-233.34 -98.97,-79.73 -191.64,-152.45 -302.26,-240.41 -342.2,-272.14 -393.49,-387.15 -734.06,-353.97 -1096.33,106.83 -3429.81,1825.36 -2547.94,3558.2 198.82,390.68 496.2,603.68 735.51,892.19l722.11 906.25c508.79,689.83 829.72,1202.08 1764.94,1490.99 693.33,214.19 1744.99,282.15 1806.66,302.28 37.49,12.24 27.86,8.87 48.98,24.16 -106.67,27.99 -236.2,101.49 -368.94,143.66 -1164.02,369.85 -2393.83,-448.76 -3152.97,-1207.07 -318.67,-318.33 -640.66,-728.51 -925.91,-1089.83 -117.19,-148.45 -351.66,-418.99 -424.87,-585.7l-1327.73 12.98c144.53,-522.22 358.68,-296.35 496.29,-596.4 -221.19,-176.76 -724.81,-907.56 -1182.02,-965.2 -165.92,-20.92 -396.55,-73.59 -485.21,-235.24l633.69 -116.44c-6.22,-169.68 -168.99,-519.04 -245.86,-656.02 -276.65,-493.01 -689.74,-816.36 -1221.54,-1007.31 -334.76,-120.21 -176.16,44.1 -309.89,-52.52l-0.39 55.13z"/>
   <polygon class="fil4" points="20000,10469.16 20000,10383.99 19849.44,10388.11 "/>
  </g>
 </g>
</svg>
