<?xml version="1.0" encoding="UTF-8"?>
<!DOCTYPE svg PUBLIC "-//W3C//DTD SVG 1.1//EN" "http://www.w3.org/Graphics/SVG/1.1/DTD/svg11.dtd">
<!-- Creator: CorelDRAW 2017 -->
<svg xmlns="http://www.w3.org/2000/svg" xml:space="preserve" width="200mm" height="200mm" version="1.1" style="shape-rendering:geometricPrecision; text-rendering:geometricPrecision; image-rendering:optimizeQuality; fill-rule:evenodd; clip-rule:evenodd"
viewBox="0 0 20000 20000"
 xmlns:xlink="http://www.w3.org/1999/xlink">
 <defs>
  <style type="text/css">
   <![CDATA[
    .str0 {stroke:#EAD8C7;stroke-width:7.62;stroke-miterlimit:22.9256}
    .fil0 {fill:#312156}
    .fil4 {fill:#C96D60}
    .fil1 {fill:#DBDBD4}
    .fil2 {fill:#EAD8C7}
    .fil3 {fill:#EAEBD8}
   ]]>
  </style>
 </defs>
 <g id="Capa_x0020_1">
  <metadata id="CorelCorpID_0Corel-Layer"/>
  <path class="fil0" d="M12878.82 4833.78c25.95,45.6 18.7,-31.83 58.62,131.22 12.45,50.86 20.39,141.95 24.64,196.05 10.45,132.28 13.92,269.33 17.39,402.13 158.7,1778.31 103.54,3423.55 -312.09,5141.02 -114.31,472.47 -387.9,1086.35 -447.83,1483.6 103.48,-60.78 40.34,2.05 136.95,-105.64 250.78,-279.53 457.81,-960.55 638.62,-1208.08 613,31.89 1319.44,554.53 1489.07,919.68 -249.42,243.01 -555.26,460.23 -770.7,719.05 411.8,-49.27 692,-379.8 975.73,-437.48 397.98,792.33 345.39,1182.59 145.98,2050.68l-1318.75 -232.04c72.07,102.7 -4.47,79.38 248.89,192.32l904.02 316.3c-177.71,513.07 -1054.21,1292.17 -1860.57,1189.94 -46.8,-244.22 -71.33,-504.04 -180.34,-680.39l-66.61 705.56c-1691.68,-153.87 -1980.5,-1597.55 -2273.15,-1664.84 -45.81,484.29 190.38,709.07 304.68,1065.4 -915.41,902.44 -2590.7,689.84 -3217.14,-218.59 123.29,-130.01 239.75,-191.74 346.18,-299.11 150.45,-151.82 252.73,-199.36 291.29,-398.14 -299.8,108.53 -539.19,347.97 -811.19,456.34 -273.48,-282.67 -393.15,-843.71 -403.29,-1305.78 293.55,-18.7 632.01,-13.81 879.38,-131.22l-865.98 -70.61c37.98,-1012.91 902.81,-2047.68 1758.39,-2135.15 118.51,358.69 378.28,961.49 637.1,1133.85 -21.11,-333.1 -668.52,-1779.25 -730.4,-3751.92 -30.94,-986.86 -31.67,-3304.3 254.94,-4149.06 727.88,-63.3 1170.77,233.66 3100.47,-120.77 251.47,-46.17 716.17,-182.55 909.01,-183.33 76.17,314.98 170.57,679.7 136.69,989.01zm-2232.76 -2553.62c175.56,-253.62 184.34,-749.15 258.41,-1088.35 304.26,37.88 564.92,148.25 750.94,301.8 495.53,409.11 1033.61,1604.21 946.2,1977.97 -383.22,197.57 -2488.9,294.44 -3112.08,297.54 -33.57,0.16 -87.47,9.77 -198.89,8.83l-481.4 13.92c99.44,-834.47 650.18,-2345.54 1640.67,-2561.76 -15.81,425.98 7.46,707.07 196.15,1050.05zm-2552.3 1698.61c-100.6,852.17 -146.62,1573.33 -201.72,2440.47 -438.7,357.37 -2566.6,1349.59 -3319.32,1188.79 -190.48,-175.35 -164.01,-550.22 -564.25,-487.76l74.6 300.43c-444.37,-17.54 -703.87,-111.31 -872.19,0.9 68.09,120.87 -36.08,31.2 182.18,152.18 13.4,7.41 29.79,14.34 42.29,21.33l84.26 55.37c-253.36,-2.47 -284.51,-57.79 -516.8,24.63 -40.61,58.47 -22.54,14.77 -36.93,101.5l336.52 136.89 -228.31 163.95c179.24,134.49 190.43,82.22 458.92,56.27 -270.7,230.19 -35.56,214.17 277.42,185.7 318.55,-28.95 305.58,-77.17 559.2,-177.3 380.64,-150.24 828.32,24.9 2504.97,-665.21 254.26,-104.59 847.23,-459.49 1025.84,-497.37 42.39,2105.58 253.89,1968 488.39,3471.09l-920.46 352.33c-129.33,-258.14 -304.11,-665.48 -595.76,-695.58 6.72,409.28 234.81,551.38 342.56,866.62 -114.94,167.89 -258.88,270.91 -399.72,433.6 -141.41,163.37 -213.28,273.63 -313.61,451.61 -255.78,453.72 -225.84,788.45 -392.26,1146.35 -372.34,27.89 -1121.55,-103.91 -1403.59,99.86 207.66,216.06 1062.35,172.3 1403.17,176.35 60.1,354.69 54.32,590.77 155.18,922.56 91.14,299.75 252.1,512.66 334.52,759.29 -162.84,156.13 -344.34,244.17 -419.83,411.64 249.89,-13.97 374.24,-117.25 594.76,-206.66 352.33,372.92 348.24,269.86 334.95,725.94 -5.89,202.77 -17.55,193.42 7.72,346.29 63.3,382.22 307.31,1627.59 268.38,1798.58 -635.47,193.79 -1060.35,-391.78 -1246.94,-542.34l-286.82 -77.06c-78.12,548.27 317.71,794.48 692.73,943.31 364.99,144.83 76.22,45.02 450.51,41.65 103.96,253.47 -54.16,120.3 265.71,219.01 -85.21,-122.45 -80.11,-46.28 -159.23,-249.05l297.02 38.5c105.53,-26.47 -14.24,-58.68 191.58,-82.47 -27.68,300.16 13.71,86.46 -90.3,273.11 235.08,22.64 352.64,56.16 544.91,-33.41 40.14,-171.46 33.78,2.78 8.25,-221.53 -188.91,-173.88 -486.71,-2122.8 -440.43,-2475.03 511.35,290.56 952.66,314.51 1616.09,335.15 72.39,320.45 241.12,823.49 550.27,895.93 -0.69,-454.34 -181.5,-591.98 -228.2,-939.21 286.3,-141.15 1113.93,-376.81 1286.5,-788.55 286.72,141.52 411.53,344.76 780.04,527.52 875.23,433.96 930.24,6.09 1030.52,654.75 35.09,227.05 12.82,170.84 115.73,314.88 218.58,-101.02 150.97,-86.73 144.72,-671.88 997.42,-48.23 1176.76,-384.22 1616.56,-536.03 50.48,810.14 9.4,1670.98 -89.67,2470.09l309.2 -9.88 157.07 -55.58c3.83,-248.52 -7.99,-180.65 61.77,-297.54 965.33,86.05 1470.42,-170.41 1552.42,-1103.32 -526.21,-13.76 -359.74,272.38 -644.61,511.55 -200.52,168.32 -498.9,335.63 -865.99,301.96 -25.27,-389.11 16.29,-813.19 18.18,-1208.71 1.78,-383.9 -42.55,-727.72 -51.48,-1095.75 163.05,-170.36 272.37,-304.06 362.78,-555 289.66,28.31 519.8,113.84 804.63,36.3 -37.98,-229.09 -329.48,-182.23 -633.17,-353.01 87.05,-489.39 143.68,-638.37 157.97,-1206.66 279.83,-45.49 1232.55,-215.75 1370.97,-490.43 -460.55,-93.61 -969,113.47 -1420.09,165.37 -62.04,-361.16 -208.45,-813.88 -421.57,-1071.97 173.46,-328.21 644.14,-485.7 773.9,-910.26 -401.13,60.14 -665.58,401.23 -949.3,571.07 -159.96,-87.15 -449.36,-337.36 -464.7,-526.26 -390.73,56.1 -444.26,-324.81 -1409.84,-411.33 43.18,-439.74 311.4,-1254.03 419.62,-2398.59 164.53,-1739.49 -211.07,-1457.5 499.47,-2219.31l1269.59 -1517.85c877.59,-1132.01 641.57,-697.2 1048.06,-1027.15 84.63,-68.66 264.7,-266.86 318.6,-330.53l-114.36 -173.3c109.11,-82.01 147.72,-60.21 158.07,-233.14 -202.56,-14.92 -106.33,41.87 -319.55,139.89l155.33 -427.24c-266.07,74.07 -308.57,227.73 -446.57,408.01 60.99,-182.39 109.9,-168.78 67.09,-389.78 -174.73,45.91 -341.99,391.31 -470.37,560.04 -104.17,-91.67 -62.78,-107.48 -218.59,-165.37 -156.75,300.27 12.82,403.71 87.57,615.04l-968.52 1251.52c-213.28,241.33 -858.42,1048.32 -1019.75,1145.24 -136.74,-1135.58 -150.03,-1993.21 -508.77,-3049.52 -843.34,-2483.38 -2956.33,-2665.3 -4086.6,-1144.03 -552,743.01 -670.56,1501.88 -919.09,2507.54z"/>
  <path class="fil1" d="M14743.59 18126.87l-309.2 9.88c-126.13,13.13 -283.78,283.67 -316.09,189.48 -0.52,-1.58 1.79,-14.39 1.37,-16.39l-16.18 -70.71c-1.16,-23.48 -8.56,-34.46 -15.39,-50.8 -268.44,213.33 19.17,216.96 -382.91,-25.11l-108.95 -138.84c-80.32,88.1 -78.69,152.87 -272.95,109.32l-22.7 -59.73c-3.09,-25.48 -20.38,-33.83 -32.25,-49.59 -11.29,6.78 -26.37,16.65 -33.41,21.23l-239.54 142.72c198.09,-269.12 -32.73,-121.03 -163.96,-163.95 40.45,148.19 20.7,-56.57 -98.34,126.34 -133.37,-176.03 93.25,-77.8 -256.77,-126.34 9.3,117.94 19.65,67.77 -52.69,159.8l-138.89 -159.8c-219.48,119.77 -42.24,-148.03 -163.95,163.43l-163.96 -163.43c-14.7,14.4 -31.09,34.25 -42.55,44.55 -10.19,9.14 -27.52,28.89 -39.24,38.19 -132.01,104.59 -118.67,-13.03 -300.74,-82.74l-163.95 147.09c-58.52,-184.7 -156.55,-143.62 -163.95,-147.09l-109.27 109.32c-13.5,-12.24 -48.49,-35.83 -54.63,-41.39 -4.73,-4.26 -23.64,-13.71 -27.48,-31.16 -4.2,-19.22 -21.43,-22.64 -27.21,-36.77l-109.58 65.25c-13.87,9.61 -31.68,24.21 -43.76,32.93l-65.24 65.25c-88.78,-143.15 -43.87,-79.27 -163.95,-163.43 -219.43,119.77 -42.24,-148.03 -163.9,163.43 -160.44,-254.99 92.45,-133.27 -257.67,-148.77l-562.09 -14.66c-11.4,15.66 -28.84,35.88 -34.51,46.7l-165.32 41.45c-105.06,-90.04 -44.08,28.42 -19.02,-88.15 -219.58,57.94 -159.43,-0.84 -272.95,163.43 -91.78,-151.71 -35.09,-78.27 -163.95,-163.43l-109.27 140 -140.99 -104.28c-5.05,-18.59 -15.29,-23.79 -22.96,-35.72 -165.27,67.09 -120.98,32.62 -218.59,163.43 -120.35,-175.25 -60.83,-75.75 -163.95,-163.43l-192 157.39c-102.28,87.57 -1.68,-157.23 -105.85,167.36 25.53,224.31 31.89,50.07 -8.25,221.53 -192.27,89.57 -309.83,56.05 -544.91,33.41 104.01,-186.65 62.62,27.05 90.3,-273.11 -205.82,23.79 -86.05,56 -191.58,82.47l-297.02 -38.5c79.12,202.77 74.02,126.6 159.23,249.05 -319.87,-98.71 -161.75,34.46 -265.71,-219.01 -374.29,3.37 -85.52,103.18 -450.51,-41.65 -375.02,-148.83 -770.85,-395.04 -692.73,-943.31l286.82 77.06c-12.14,-19.17 -79.48,-125.29 -82.69,-129.02l-218.9 0c-52.63,99.29 -61.88,58.68 -109.52,164.22l44.86 101.01c15.39,77.02 6.67,36.57 11.4,104.23 6.51,93.03 -1.68,244.85 -1.63,340.98 -255.52,-67.82 -119.35,132.17 -218.53,-109.27l218.53 109.85 -130.91 129.23c-0.16,-10.2 13.08,-15.45 21.85,-19.97 77.64,93.72 62.04,48.6 112.84,210.18l215.33 555c37.4,-28.52 192.53,-399.5 411.16,-24.79 99.45,170.46 -117.83,-89.89 20.44,79.42l593.66 -49.9 67.45 159.22c15.81,-9.03 60.94,-23.06 73.65,-25.06l651.34 -111.68c83,-12.97 177.87,-48.27 203.98,-125.86 52.53,118.35 242.96,159.38 327.9,262.02 294.97,-121.66 32.89,-121.66 327.91,0l139.05 -109.84c74.43,-41.13 154.18,-42.29 188.8,-133.01 157.75,67.4 21.85,54.84 -90.31,188.48 11.82,13.82 85.21,104.86 89.99,113.31l444.47 20.33c247.06,-28.94 160.64,20.02 484.71,31.68 242.02,8.67 406.12,-44.81 596.39,-31.36 147.67,10.45 81.38,9.19 229.83,3.52 306.1,-11.77 18.6,5.94 272.64,25.74 399.5,31.1 1013.02,-30.21 1231.24,-16.86 349.49,21.32 847.91,-45.76 1167.2,72.54l55.21 218.59c26.11,-237.18 67.19,-253.68 272.95,-327.91l-27.15 32c-5.63,-3.52 -3.05,27.52 -36.57,-36.99 -83.57,-161.11 -24.58,-14.65 -44.96,-213.59l272.64 163.37 159.8 -133.01c82.95,-56.15 101.23,-68.02 168.05,-124.71 45.38,152.4 141.15,138.48 163.95,148.46 46.96,-70.34 209.65,160.8 54.37,-270.12 32.99,165.74 135.74,180.5 231.08,285.09l206.4 -158.75c5.99,17.18 2.16,57.05 63.09,89.25 268.7,142.1 93.14,12.87 155.23,-0.16l-14.6 -122.82c-45.65,-138.84 -26.42,-8.24 -40.08,-8.24l247.95 73.33c130.28,-43.86 184.86,-72.34 353.17,-51.59 -29.42,-170.57 40.34,-119.72 62.25,-234.71 5.72,-29.99 32.46,-24.27 47.07,-38.24 -119.3,-85.94 -19.18,-67.4 -218.59,-109.06 94.72,46.97 33.15,-63.45 31.15,-102.59 -1.62,-32.2 -19.01,-41.76 -30.88,-61.36 -15.92,8.83 -50.12,32.47 -62.15,36.93l-110.11 26.53c-108,8.09 -272.11,-3.73 -293.02,-122.29 -4.46,-25.48 -16.49,-34.36 -26.58,-50.49l-328.11 -61.46z"/>
  <g id="_1892389940128">
   <path class="fil2 str0" d="M9709.69 2612.22c209.49,-75.81 54.73,61.88 170.57,-180.03l126.7 136.11c9.62,10.82 24.75,29.15 37.2,43.65l163.95 -198.57c10.71,16.87 23.32,23.22 30.41,51.69l161.27 147.15c-143.2,132.38 -76.38,-10.93 -140.36,273 126.6,16.92 121.66,20.39 217.01,82.53 -64.04,-26.37 -10.25,-39.29 223.21,-136.63 -12.35,13.34 -94.51,97.44 -99.97,112.57 -103.28,286.56 -38.67,171.1 98.91,269.7 -17.91,14.08 -49.85,5.78 -55.42,40.03 -12.34,75.8 -187.27,29.57 56.48,287.61l-123.98 -67.98c-23.38,-11.55 -39.29,-20.17 -65.35,-32.83l-138 -62.62c-5.57,167.89 30.31,30.31 -98.6,223.58 -10.35,15.49 -23.96,33.35 -32.94,46.59 -9.66,14.29 -22.38,34.41 -32.67,52.17 -7.78,-16.45 -38.51,-79.27 -47.54,-90.46l-116.41 -122.56 -204.56 99.23c-5.68,-9.29 -15.97,-29.57 -23.06,-40.39l-420 -332.37c149.46,-119.77 70.55,-47.54 210.45,-239.13 9.66,15.45 38.5,59.52 47.54,69.35l194.47 42.44c65.45,-59.67 130.7,-86.68 140.26,-200.3 -16.5,-1.68 -39.82,-22.17 -49.64,-3 -9.67,18.92 -35.46,-1.1 -49.02,3.26l-167.05 71.34c-21.27,10.24 -40.24,26.37 -61.62,37.14l47.76 -382.27zm936.37 -332.06c-188.69,-342.98 -211.96,-624.07 -196.15,-1050.05 -990.49,216.22 -1541.23,1727.29 -1640.67,2561.76l481.4 -13.92c111.42,0.94 165.32,-8.67 198.89,-8.83 623.18,-3.1 2728.86,-99.97 3112.08,-297.54 87.41,-373.76 -450.67,-1568.86 -946.2,-1977.97 -186.02,-153.55 -446.68,-263.92 -750.94,-301.8 -74.07,339.2 -82.85,834.73 -258.41,1088.35z"/>
   <path class="fil2 str0" d="M10044.16 2611.95c-12.45,-14.5 -27.58,-32.83 -37.2,-43.65l-126.7 -136.11c-115.84,241.91 38.92,104.22 -170.57,180.03l-47.76 382.27c21.38,-10.77 40.35,-26.9 61.62,-37.14l167.05 -71.34c13.56,-4.36 39.35,15.66 49.02,-3.26 9.82,-19.17 33.14,1.32 49.64,3 -9.56,113.62 -74.81,140.63 -140.26,200.3l-194.47 -42.44c-9.04,-9.83 -37.88,-53.9 -47.54,-69.35 -139.9,191.59 -60.99,119.36 -210.45,239.13l420 332.37c7.09,10.82 17.38,31.1 23.06,40.39l204.56 -99.23 116.41 122.56c9.03,11.19 39.76,74.01 47.54,90.46 10.29,-17.76 23.01,-37.88 32.67,-52.17 8.98,-13.24 22.59,-31.1 32.94,-46.59 128.91,-193.27 93.03,-55.69 98.6,-223.58l138 62.62c26.06,12.66 41.97,21.28 65.35,32.83l123.98 67.98c-243.75,-258.04 -68.82,-211.81 -56.48,-287.61 5.57,-34.25 37.51,-25.95 55.42,-40.03 -137.58,-98.6 -202.19,16.86 -98.91,-269.7 5.46,-15.13 87.62,-99.23 99.97,-112.57 -233.46,97.34 -287.25,110.26 -223.21,136.63 -95.35,-62.14 -90.41,-65.61 -217.01,-82.53 63.98,-283.93 -2.84,-140.62 140.36,-273l-161.27 -147.15c-7.09,-28.47 -19.7,-34.82 -30.41,-51.69l-163.95 198.57z"/>
  </g>
  <path class="fil3" d="M9863.86 5338.88c373.77,200.83 530,523.31 1238.49,405.28 416.27,-69.4 820.28,-394.94 879.86,-751.26 70.29,1147.34 -1776.1,1349.96 -2118.35,345.98zm3115.61 224.3c-3.47,-132.8 -6.93,-269.85 -17.39,-402.13 -4.25,-54.11 -12.18,-145.19 -24.64,-196.05 -39.92,-163.06 -32.67,-85.62 -58.62,-131.22 33.88,-309.3 -60.52,-674.04 -136.69,-989.01 -192.84,0.79 -657.54,137.16 -909.01,183.33 -1929.7,354.44 -2372.59,57.48 -3100.47,120.77 -286.62,844.77 -285.87,3162.2 -254.94,4149.06 61.88,1972.67 709.29,3418.82 730.41,3751.92 -258.83,-172.36 -518.6,-775.16 -637.11,-1133.85 -855.58,87.47 -1720.42,1122.24 -1758.4,2135.16l865.99 70.6c-247.38,117.4 -585.83,112.52 -879.38,131.23 10.14,462.06 129.81,1023.1 403.28,1305.77 272.02,-108.37 511.4,-347.81 811.2,-456.34 -38.56,198.78 -140.84,246.32 -291.29,398.14 -106.43,107.37 -222.89,169.1 -346.18,299.11 626.44,908.43 2301.73,1121.02 3217.14,218.59 -114.3,-356.33 -350.48,-581.11 -304.68,-1065.4 292.65,67.3 581.47,1510.97 2273.15,1664.83l66.61 -705.55c109.01,176.35 133.54,436.17 180.34,680.39 806.36,102.23 1682.86,-676.87 1860.57,-1189.95l-904.02 -316.29c-253.36,-112.94 -176.82,-89.62 -248.89,-192.32l1318.75 232.04c199.41,-868.09 252,-1258.35 -145.98,-2050.68 -283.73,57.68 -563.93,388.2 -975.73,437.48 215.44,-258.83 521.27,-476.04 770.7,-719.06 -169.63,-365.14 -876.07,-887.78 -1489.06,-919.66 -180.82,247.52 -387.85,928.55 -638.63,1208.07 -96.61,107.69 -33.47,44.86 -136.95,105.64 59.93,-397.25 333.52,-1011.14 447.83,-1483.6 415.63,-1717.47 470.79,-3362.71 312.09,-5141.02zm-2374.02 -428.34c-53.47,-17.6 -209.8,82.74 -188.32,-337.15 10.71,-209.02 23.54,-214.22 173.1,-264.82 79.42,183.35 75.01,406.08 15.22,601.97zm513.4 -98.82c-60.94,-246.63 -121.14,-436.32 72.91,-598.17 182.13,164.58 138.42,424.83 92.72,501.73 -103.38,174.04 22.07,33.52 -165.63,96.44z"/>
  <path class="fil4" d="M9863.87 5338.87c342.24,1003.99 2188.62,801.37 2118.34,-345.97 -59.57,356.32 -463.6,681.86 -879.86,751.25 -708.49,118.04 -864.72,-204.45 -1238.48,-405.28z"/>
  <path class="fil4" d="M11118.85 5036.03c187.69,-62.94 62.25,77.59 165.63,-96.45 45.7,-76.91 89.41,-337.15 -92.72,-501.73 -194.05,161.85 -133.85,351.54 -72.91,598.18z"/>
  <path class="fil4" d="M10605.46 5134.84c59.78,-195.89 64.19,-418.63 -15.24,-601.96 -149.56,50.59 -162.37,55.79 -173.09,264.81 -21.49,419.89 134.85,319.55 188.33,337.15z"/>
 </g>
</svg>
