<?xml version="1.0" encoding="UTF-8"?>
<!DOCTYPE svg PUBLIC "-//W3C//DTD SVG 1.1//EN" "http://www.w3.org/Graphics/SVG/1.1/DTD/svg11.dtd">
<!-- Creator: CorelDRAW (Versión de evaluación) -->
<svg xmlns="http://www.w3.org/2000/svg" xml:space="preserve" width="200mm" height="200mm" version="1.1" style="shape-rendering:geometricPrecision; text-rendering:geometricPrecision; image-rendering:optimizeQuality; fill-rule:evenodd; clip-rule:evenodd"
viewBox="0 0 20000 20000"
 xmlns:xlink="http://www.w3.org/1999/xlink"
 xmlns:xodm="http://www.corel.com/coreldraw/odm/2003">
 <defs>
  <style type="text/css">
   <![CDATA[
    .str0 {stroke:#F6E384;stroke-width:16.93;stroke-miterlimit:22.9256}
    .fil1 {fill:#020402}
    .fil2 {fill:#8B755B}
    .fil3 {fill:#F29272}
    .fil0 {fill:#F6E384}
    .fil5 {fill:#F6E384}
    .fil4 {fill:#FEFEFE}
   ]]>
  </style>
 </defs>
 <g id="Capa_x0020_1">
  <metadata id="CorelCorpID_0Corel-Layer"/>
  <path class="fil0" d="M14341.68 14034.21c41.1,-133.77 117.46,-158.48 250.58,-108.16 -31.19,64.42 37.23,28.01 -69.42,77.47 -64.7,30.01 -113.49,25.5 -181.16,30.69zm-635.48 -401.11c-38.7,-112.34 -5,-156.83 39.52,-216.81 90.42,-10.34 116.06,-2.11 168.14,37.37 -22.64,99.36 -97.54,194.92 -207.66,179.44zm-542.52 -403.54c84.65,-67.89 123.42,-52.65 243.67,-99.72 28.43,-140.56 2.71,-203.04 155.86,-197.89 122.96,324.47 -126.82,409.27 -296.46,379.62 -107.83,-18.89 -72.24,-22.86 -103.07,-82.01zm159.76 -1185.16c-63.95,-122.86 45.89,-279.3 107.69,-373.97 76.07,-116.49 160.41,-250.68 325.75,-266.06 -13.09,182.48 -76.21,169.42 -191.7,342.46 -92.42,138.48 -82.37,285.8 -241.74,297.57zm-1492.03 -1207.05l-180.5 13.77c-9.12,170.1 -15.56,196.82 -326.94,195.74 -161.48,-0.57 -124.28,-11.91 -159.4,-38.55 192.99,-35.37 378.22,58.8 440.63,-140.7l-148.5 -90.85c28.68,-54.72 -23.39,-7.65 45.78,-57.83 4.79,-3.51 13.05,-7.19 18.6,-10.84l70.24 -40.66c6.97,-4.3 17.67,-10.77 25.82,-17.1l-312.02 4.04c157.27,-140.13 358.02,26.22 432.59,69.92 74.14,43.49 59.87,-15.77 93.7,113.06zm-2873.03 -272.39c136.01,-41.24 225.89,-30.29 398.06,-30.29 -2.68,90.62 -9.47,104.57 20.86,184.94 50.85,134.73 59.19,-50.18 40.02,148.17l-242.42 3.01c-95.42,23.57 -48.36,2.65 -101.93,57.4 136.87,48.79 151.18,16.35 222.92,34.34 12.38,3.11 18.28,4.36 30.26,8.44 12.34,4.18 18.64,8.19 29.72,12.84l57.84 35.23c-101.11,87.77 -201.4,75.43 -330.66,30.11 63.77,108.8 45.25,15.74 46.96,145.46 10.73,115.02 282.66,975.5 347.72,1123.93 410.98,106.47 981.9,195.17 1207.26,460.87 456.97,538.74 -163.52,738.84 -702.58,596.89 52.29,272.93 291.85,765.45 -171.42,764.24 -178.65,-0.5 -255.12,-90.63 -364.2,-183.37 -60.62,-51.54 -80.76,-61.59 -134.62,-136.88 -57.55,-80.4 -60.16,-120.17 -148.18,-183.94 116.02,677.29 -492.6,758.69 -667.63,394.1 -78.58,-163.63 -85.98,-484.84 -49.97,-677.79 41.67,-223.07 179.58,-364.59 273.36,-487.84 216.52,-284.41 -476.08,-1910.59 -535.73,-2268.32 -229.69,-27.07 -213.38,-23.96 -371.57,59.91 66.06,-121.28 180.76,-88.05 332.26,-93.13 -14.63,-251.15 -150.5,-454.15 -241.56,-632.94 -49.03,-96.28 -233.23,-552.4 -225.89,-620.75 187.84,-13.23 309.44,464.95 377.39,587.91 131.69,238.42 152.79,257.8 229.58,531.16 36.2,128.86 4.37,118.88 123.71,150.46 -181.61,26.86 -61.01,-4.93 -88.48,87.13 195.92,165.81 60.09,243.02 191.45,502.5 61.66,121.71 177.87,416.27 203.01,517.85 57.04,230.58 270.28,965.99 263.98,1149.32 -131.36,129.72 -290.09,297.61 -353.54,507.12 -74.35,245.46 -22.75,592.13 96.07,728.29 614.13,39.81 74.82,-610.19 249.35,-805.9 141.35,-123.82 326.15,233.44 422.5,383.05 202.86,315.02 745.43,663.62 430.51,-190.49 -140.49,-381.01 -213.34,-229.33 -204.47,-390.81 262.84,-203.25 234.87,396.35 1049.07,110.09 49.89,-460.88 -693.88,-562.16 -1097.93,-673.79 -273.39,-75.54 -190.09,-56.29 -303.11,-304.08 -121.74,-266.99 -152.36,-619.74 -291.56,-890.59 -188.98,-367.63 -90.02,-397.82 -203.97,-712.66 -25.68,-70.93 -54.51,86.73 -11.01,-107.44 22.6,-100.86 22.63,56.97 40.34,-105.58 -71.5,-30.3 -62.52,-6.3 -108.59,-60.02 -21.74,-25.39 -49.96,-114.16 -59.22,-147.64 -56.48,-203.9 -303.11,-767.06 -264.6,-962.55 246.32,-47.36 153.37,202.97 331.8,643.88 56.97,140.81 195.1,644.75 258.84,708.16zm1381.11 73.71l-123.24 77.54c166.63,369.89 -103.12,337.63 -252.94,336.23 9.37,-6.76 22.89,-26.79 29.54,-18.1 6.34,8.34 20.36,-12.66 28.97,-15.98 8.09,-3.11 19,-8.66 28.65,-12.02 133.01,-45.96 163.56,37.73 165.49,-292.88l-374.71 -1.83 -111.91 -60.87c-23.07,-283.48 288.66,-559.26 475.57,-752.15 -24.79,-166.7 -57.76,-176.89 -134.69,-319.45l-77.72 -118.35c-124.61,35.58 -93.82,41.52 -188.99,98.64 -167.02,100.32 -469.42,189.45 -696.67,135.59 -41.56,-354.55 346.49,-770.61 562.98,-977.4l-440.59 -1240.63c-125.54,170.38 61.44,36.48 -312.52,407.15 -150.04,148.71 -341.49,143.6 -592.64,155.9 -220.2,10.8 -380.32,-115.02 -530.93,-212.05 -202.36,-130.33 -214.85,-193.28 -344.25,-410.37l-1883.08 687.34c-602.54,170.42 -1520,541.63 -1983.7,598.21 89.85,362.8 114.24,563.27 -125.07,777.07 -210.76,188.27 -478.65,197.18 -806.9,143.17 39.34,409.73 340.63,1338.56 544.1,1712.99l545.88 1153.76c231.48,534.19 480.37,779.18 625.29,1067.52 233.62,464.92 130.76,329.15 435.05,685.52 110.12,128.97 120.96,183.83 270.18,274.93 198.56,121.24 76.21,180.11 607.19,543.78 120.67,82.65 168.99,161.98 322.24,253.14 454.87,270.53 863.63,638.78 1404.37,835.06 750.25,272.39 976.61,437.73 1901.47,336.76 734.58,-80.22 1000.36,73.79 1994.28,-250.53 520.53,-169.85 738.23,-229.37 1132.01,-566.96 91.81,-78.68 214.56,-209.69 376.47,-202.75l142.99 493.13c95.24,290.81 219.24,960.13 350.5,1222.47 66.42,132.65 101.47,81.9 131.8,184.29 -169.28,52.44 -345.28,-139.37 -771.18,-179.47 -233.73,-22.03 -696.89,-110.4 -909.55,-76.93 3.76,310.16 578.11,712.99 918.1,828.69 206.94,70.38 1358.84,231.54 1554.15,219.31 -4.58,-156.58 -129.33,-564.41 -168.1,-756.04 -193.52,-956.48 -95.28,-608.3 -393.56,-1544.64 -52.79,-165.81 -226.97,-614.2 -241.77,-720.18 224.75,-265.38 672.49,-37.94 1402.11,-375.07 242.24,-111.91 239.38,-151.14 501.61,-377.82 98.93,-85.52 387.7,-329.98 454.9,-453.22 155.01,-284.16 356.05,-555.48 468.1,-865.99 296.64,-822.14 528.25,-887.63 204.54,-1782.12 -83.83,-231.62 -172.57,-391.67 -292.67,-587.74 -163.52,-266.99 -228,-290.84 -425.5,-482.83 -543.31,-528.04 -2377.76,-96.24 -2900.26,257.08 -42.73,28.9 -88.84,52.51 -129.43,82.62 -207.33,153.68 -310.84,196.78 -378.68,320.28 -79.8,145.28 -105.01,124.89 -200.76,253.47 -118.92,159.69 2.65,213.95 -165.23,292.02 -43.89,-49.28 -38.09,38.74 -46.43,-127.28 -9.08,-181.3 128.26,-286.06 194.46,-366.21 65.74,-79.58 70.92,-157.11 134.8,-227.54 39.95,-44.02 149.11,-112.26 194.78,-157.44 -84.77,-57.44 -150.79,-125.53 -258.33,-166.99 -177.44,-68.38 -241.46,5.44 -247.47,-172.53 230.3,-107.15 487.45,140.6 633.84,220.96 188.59,-49.71 414.27,-253.25 694.24,-341.56l401.08 -115.74c143.24,-36.12 327.11,-68.2 462.12,-90.2 -91.34,-286.12 -875.97,-607.08 -109.73,-674.93 -58.65,-73.67 -104.83,-104.07 -198.21,-155.9 -152.32,-84.55 -149.93,-32.04 -312.3,-81.29 -604.76,-183.51 -1354.12,61.87 -1850.15,357.4 -104.72,62.41 -126.36,106.83 -205.54,157.3 -263.09,167.74 -743.21,287.02 -769.07,816.52 -6.47,132.62 -15.13,134.23 46.32,234.05l54.93 95.5c3.65,8.54 12.13,34.83 15.63,43.52l103.94 200.72c72.14,98.93 149.53,98.32 135.08,226 -77.25,-6.26 -123.82,-61.37 -173.35,-96.96 -117.99,-84.76 -128.22,-193.28 -256.55,-393.67 -114.41,9.58 -130.54,34.23 -265.38,36.98z"/>
  <path class="fil1" d="M9144.64 19764.05c-173.35,19.59 -775.72,-67.14 -979.15,-195.64 -100.29,-63.34 -152.93,-82.44 -256.19,-136.95 -217.77,-114.95 -473.35,-354.15 -660.69,-520.13 -115.81,-102.65 -168.28,-64.06 -159.73,-236.16 158.65,-170.86 662.09,-120.57 923.18,-43.6 305.65,90.09 605.9,348.64 769.2,390.2 4.98,-6.9 11.52,-26.47 13.56,-21.64 2,4.76 10.37,-16.34 13.02,-21.35 3.72,-7.05 30.18,-60.23 31.33,-63.2 16.49,-42.45 21.46,-65.66 27.07,-116.84 19.53,-178.8 -1.5,-484.41 44.32,-869.39 46.35,-389.41 17.06,-804.79 23.49,-1213.13l592.1 -47.78 -29.5 1271.78c-22.86,149.61 -62.56,200.86 -65.81,375.25 -6.58,354.9 16.13,442.78 -91.74,770.61 -75.22,228.5 -123.93,449.75 -194.46,677.97zm694.5 -9198.34c27.5,-99.57 327.11,-496.21 395.63,-553.01 127.86,100.9 93.99,272.89 253.22,334.84 124.04,48.25 78.08,-73.5 141.49,65.84 -82.33,168.53 -633.48,156.23 -790.34,152.33zm-624.36 -975.5c17.67,-216.85 350.32,-596.43 474.93,-743.92 99.42,78.86 212.59,318.02 245.31,476.96 -143.56,125.5 -461.48,311.41 -720.24,266.96zm626.47 1121.42l21.42 -126.61c252.54,-7.58 262.52,13.24 476.82,53.65 134.84,-2.75 150.97,-27.4 265.38,-36.98 128.33,200.39 138.56,308.91 256.55,393.67 49.53,35.59 96.1,90.7 173.35,96.96 14.45,-127.68 -62.94,-127.07 -135.08,-226l-103.94 -200.72c-3.5,-8.69 -11.98,-34.98 -15.63,-43.52l-54.93 -95.5c-61.45,-99.82 -52.79,-101.43 -46.32,-234.05 25.86,-529.5 505.98,-648.78 769.07,-816.52 79.18,-50.47 100.82,-94.89 205.54,-157.3 496.03,-295.53 1245.39,-540.91 1850.15,-357.4 162.37,49.25 159.98,-3.26 312.3,81.29 93.38,51.83 139.56,82.23 198.21,155.9 -766.24,67.85 18.39,388.81 109.73,674.93 -135.01,22 -318.88,54.08 -462.12,90.2l-401.08 115.74c-279.97,88.31 -505.65,291.85 -694.24,341.56 -146.39,-80.36 -403.54,-328.11 -633.84,-220.96 6.01,177.97 70.03,104.15 247.47,172.53 107.54,41.46 173.56,109.55 258.33,166.99 -45.67,45.18 -154.83,113.42 -194.78,157.44 -63.88,70.43 -69.06,147.96 -134.8,227.54 -66.2,80.15 -203.54,184.91 -194.46,366.21 8.34,166.02 2.54,78 46.43,127.28 167.88,-78.07 46.31,-132.33 165.23,-292.02 95.75,-128.58 120.96,-108.19 200.76,-253.47 67.84,-123.5 171.35,-166.6 378.68,-320.28 40.59,-30.11 86.7,-53.72 129.43,-82.62 522.5,-353.32 2356.95,-785.12 2900.26,-257.08 197.5,191.99 261.98,215.84 425.5,482.83 120.1,196.07 208.84,356.12 292.67,587.74 323.71,894.49 92.1,959.98 -204.54,1782.12 -112.05,310.51 -313.09,581.83 -468.1,865.99 -67.2,123.24 -355.97,367.7 -454.9,453.22 -262.23,226.68 -259.37,265.91 -501.61,377.82 -729.62,337.13 -1177.36,109.69 -1402.11,375.07 14.8,105.98 188.98,554.37 241.77,720.18 298.28,936.34 200.04,588.16 393.56,1544.64 38.77,191.63 163.52,599.46 168.1,756.04 -195.31,12.23 -1347.21,-148.93 -1554.15,-219.31 -339.99,-115.7 -914.34,-518.53 -918.1,-828.69 212.66,-33.47 675.82,54.9 909.55,76.93 425.9,40.1 601.9,231.91 771.18,179.47 -30.33,-102.39 -65.38,-51.64 -131.8,-184.29 -131.26,-262.34 -255.26,-931.66 -350.5,-1222.47l-142.99 -493.13c-161.91,-6.94 -284.66,124.07 -376.47,202.75 -393.78,337.59 -611.48,397.11 -1132.01,566.96 -993.92,324.32 -1259.7,170.31 -1994.28,250.53 -924.86,100.97 -1151.22,-64.37 -1901.47,-336.76 -540.74,-196.28 -949.5,-564.53 -1404.37,-835.06 -153.25,-91.16 -201.57,-170.49 -322.24,-253.14 -530.98,-363.67 -408.63,-422.54 -607.19,-543.78 -149.22,-91.1 -160.06,-145.96 -270.18,-274.93 -304.29,-356.37 -201.43,-220.6 -435.05,-685.52 -144.92,-288.34 -393.81,-533.33 -625.29,-1067.52l-545.88 -1153.76c-203.47,-374.43 -504.76,-1303.26 -544.1,-1712.99 328.25,54.01 596.14,45.1 806.9,-143.17 239.31,-213.8 214.92,-414.27 125.07,-777.07 463.7,-56.58 1381.16,-427.79 1983.7,-598.21l1883.08 -687.34c129.4,217.09 141.89,280.04 344.25,410.37 150.61,97.03 310.73,222.85 530.93,212.05 251.15,-12.3 442.6,-7.19 592.64,-155.9 373.96,-370.67 186.98,-236.77 312.52,-407.15l440.59 1240.63c-216.49,206.79 -604.54,622.85 -562.98,977.4 227.25,53.86 529.65,-35.27 696.67,-135.59 95.17,-57.12 64.38,-63.06 188.99,-98.64l77.72 118.35c76.93,142.56 109.9,152.75 134.69,319.45 -186.91,192.89 -498.64,468.67 -475.57,752.15l111.91 60.87zm-7385.28 -2327.08c0.96,-517.49 585.08,-113.77 708.87,14.45 48.82,50.54 90.09,103.72 127.43,174.4 97.78,185.12 329.83,365.05 187.88,655.58 -100.15,204.9 -650.51,459.3 -844.96,182.72 -87.45,-124.39 -179.58,-833.44 -179.22,-1027.15zm5756.3 -1854.36c180.37,-45.5 484.27,-28.15 601.54,64.77 198.68,157.4 258.91,589.34 236.12,851.32 -10.47,120.68 -54.68,151.65 -130.97,228.51 -114.81,115.74 -207.9,237.77 -469.56,242.74 -801.58,15.27 -1432.62,-1085.7 -237.13,-1387.34zm6174.05 2501.11c7.44,4.29 15.7,12.05 20.06,16.17 116.88,110.87 279.08,399.85 521.46,410.87 423.29,19.28 909.2,-170.6 1225.9,-453.72 398.07,-355.79 384.87,-372.89 834.62,-313.34 75.29,110.3 203.65,203.36 198.93,359.44 -196.32,127.68 -517.81,21.53 -566.67,211.98 130.19,122.29 434.41,-5.15 602.65,-24.78 -1.79,261.69 3.75,292.81 -175.22,444.49 -157.51,-24.53 -276.75,-203.65 -416.88,-86.62 64.24,164.2 180.55,35.8 230.98,207.44 -245.25,151.11 -626.29,-280.12 -792.96,-116.6 31.8,133.33 14.95,58.16 275.82,187.3 718.67,355.87 1141.56,-79.18 1492.75,143.64 167.74,106.4 111.23,66.45 176.86,251.54 51.14,144.27 169.27,428.97 -148.97,586.94 -103.75,-61.91 -283.87,-286.23 -452.72,-230.68 -7.04,140.84 11.16,96.17 129.37,171.31 81.33,51.72 108.29,77.9 149.68,164.17 -161.77,44.49 -319.93,105.54 -497.47,147.67 -76.78,-122.35 -245.49,-362.37 -410.4,-324 9.19,200.36 157.69,177.9 211.76,354.83 -259.15,2.25 -362.95,35.05 -468.99,-172.14 -177.68,-347.21 -480.94,-805.61 -825.86,-993.13 -353.72,-192.35 -621.92,-163.77 -1075.5,-145.03 -319.28,13.16 -293.35,31.72 -463.31,-163.95l-300.11 -325.97c150.9,-8.19 413.31,43.75 521.21,-19.06 48.18,-128.72 -66.73,-91.31 -139.02,-269.42 -72.14,-62.2 -130.93,-190.92 -185.94,-283.01 -68.53,-114.74 -155.26,-198.32 -160.62,-328.97 194.24,-100.58 533.97,-78.97 679.36,-266.1 -14.23,-154.29 -123.21,-330.9 -182.33,-469.63 -107.62,-252.36 39.52,-8.37 -18.78,-165.63 -23.28,-62.88 -75.14,-91.35 -112.23,-186.27 -66.17,-169.31 -265.92,-1853.4 454.47,-1895 1007.3,-58.15 1039.27,941.6 1138.38,1339.6 94.39,379.11 51.54,736.48 -5.22,1079.33 -122.75,741.74 -14.88,556.65 -1085.48,766.95l-510.09 95.39c-5.69,154.18 14.23,235.73 130.51,293.99zm-11875.06 -3380.55c431.62,-168.38 604.01,347.61 619.46,703.94 19.02,439.27 -178.44,707.26 -564.2,788.37 -766.38,161.23 -923.9,-1153.43 -55.26,-1492.31zm3484.13 -2914.81c182.04,0.89 334.19,10.62 496.24,66.95 259.41,90.2 137.73,48.54 390.06,-47.03 854.08,-323.53 1059.98,-300.18 1866.99,-392.85 318.24,-36.51 728.44,-84.8 1062.13,-82.01 213.55,1.79 334.91,7.01 530.69,-24.07 392.92,-62.3 687.84,190.6 470.42,467.1 -790.88,1005.79 -2463.6,437.45 -3144.18,616.45 -15.95,293.28 247.79,281.73 427.44,642.64 241.31,484.8 278.72,1213.02 490.27,1631.58 79.11,156.51 245.03,625.82 274.18,815.2 -364.63,-102.18 -694.03,-93.02 -1016.1,79.19 -428.51,229.11 -419.42,397.14 -420.78,704.22 -607.3,296.39 -854.65,355.36 -1420.32,573.35 -311.16,119.89 -2390.6,827.9 -2520.39,780.94 -173.68,-62.87 -238.2,-634.19 -1029.08,-510.69 17.78,-727.69 3.08,-224.93 743.46,-503.83 356.51,-134.34 443.2,-252 527.57,-285.52 16.42,335.48 33.09,374.15 424.22,374.36 697.82,0.39 1208.98,-456.47 765.09,-596.5l-446.42 -3.29c-4.22,-6.97 -15.56,5.91 -22.78,10.02 110.69,190.56 256.79,43.74 477.61,151.43 -52.04,172.03 -528.97,301.97 -743.21,302 -355.08,0 -359.83,-68.13 -279.11,-429.29 57.4,-256.9 496.17,-888.16 686.62,-1070.03 65.78,-62.8 117.31,-90.45 145.18,-197.21 -139.17,7.76 -251.69,111.01 -325.01,198.1 -62.05,73.72 -186.3,221.93 -225.07,289.99 -33.29,-42.92 -2.43,7.9 -34.55,-63.45 -3.82,-8.51 -14.12,-35.55 -17.59,-44.7 -305.23,-806.12 -580.4,-763.99 -1390.17,-791.85 -29.94,-176.47 261.66,-912.95 334.08,-1114.1 135.88,-377.43 405.33,-668.77 617.85,-867.77 221.5,-207.44 578.58,-432.69 913.24,-569.25 562.41,-229.43 761.16,-113.12 1391.42,-110.08zm-2664.78 731.44c-124.03,-107.51 -556.62,-1333.05 -507.55,-1524.61 34.91,-136.23 321.46,-440.6 435.13,-594.71 100.82,-136.66 394.52,-352.29 647.78,-368.78 52.65,67.21 125.57,224.61 173,297 206.26,314.63 287.73,900.9 203.75,1215.27 -123.64,462.81 -101.68,299.72 -439.48,531.98 -275.36,189.34 -408.77,373.5 -512.63,443.85zm-628.01 -2077.83c-3,906.15 -13.59,888.81 371.18,1859.12 51.57,130.01 125.61,220.89 158.62,351.43 -346.68,522.18 -534.95,1037.42 -702.54,1681.09 -105.08,403.72 -338.99,238.52 -583.91,597.99 -157.51,231.19 -234.94,648.4 -234.94,991.28 0,344.53 247.32,666.6 577.36,740.95l-11.8 773.14c0,283.52 74.82,526.61 102.79,789.6 68.02,639.48 359.15,1663.2 613.48,2181.08 50.18,102.11 102.58,179.04 154.69,300.72l442.81 949.89c92.77,231.26 236.66,453.04 333.62,603.79 219.96,342.1 472.07,845.89 721.75,1127.55 462.44,521.67 335.83,439.27 940.34,905.97 463.99,358.19 1189.92,874.68 1709.91,1076.75 520.39,202.22 917.56,346.11 1486.77,394.6 7.08,300.51 4.01,636.34 -5.11,937.13 -11.91,392.13 -77.04,713.63 -78.72,1157.33 -171.32,-45.7 -327.15,-209.51 -498.72,-276.5 -189.27,-73.89 -395.49,-115.45 -629,-119.7 -244.6,-4.48 -482.84,-18.96 -610.38,146.06 -190.52,246.43 61.02,386.23 182.34,487.48 127.68,106.55 275.46,228.12 411.41,345.28 280.58,241.81 640.38,402.76 1033.01,484.2 117.45,24.35 596.89,93.27 709.26,80.18 54.94,-209.26 96,-406.72 152.11,-611.3 227.19,-828.29 85.16,-474.79 150.9,-1117.6 36.62,-358.05 67.31,-301.47 63.27,-758.12l-13.45 -790.42c659.26,-24.82 1201.36,-93.24 1775.47,-286.23 239.05,-80.33 525.29,-155.61 717.77,-285.51l571.93 -419.49c126.5,346.13 170.74,711.16 287.16,1069.95 39.7,122.36 88.23,266.39 112.7,386.41 -374.93,-93.88 -262.16,-96.24 -727.83,-153.04 -221.67,-27.03 -590.02,-111.48 -785.05,-32.01 -178.01,474.9 546.78,938.42 917.78,1105.55 313.84,141.38 528.93,128.18 888.62,169.56l703.51 89.17c16.27,1.46 107.98,4.83 120.6,3.18 138.95,-18.13 54.54,10.77 117.21,-48.18 88.62,-103.97 -349.83,-1998.82 -483.37,-2323.36 -58.52,-142.2 -223.86,-577.14 -211.91,-751.53 351.36,-22.25 670.06,-57.87 1009.22,-151.08 455.66,-125.25 815.35,-528.07 1133.23,-832.83 195.93,-187.84 159.84,-244.42 318.14,-468.85 74.82,-106.05 242.67,-366.81 288.37,-501.15 281.51,-827.72 531.55,-1043.99 273.79,-1926.97 440.23,-1.39 1407.44,-113.12 1556.51,-598.1 44.28,-144.07 60.59,-292.1 4.47,-409.87 -90.49,-189.85 -32.47,-210.66 -190.77,-355.08 -285.45,-260.45 -467.64,-164.56 -843.57,-122.89 232.01,-342.82 297.82,-236.95 197.07,-798.43 -48.14,-268.31 -230.36,-553.01 -534.33,-553.19 -562.81,-0.35 -386.88,23.72 -778.4,332.23 -190.63,150.21 -194.32,283.51 -507.84,374.79 -180.47,52.54 -526.5,158.15 -734.08,117.81 -117.99,-22.93 -130.98,-99.07 -224.57,-193.85 -57.01,-57.73 -159.95,-151.58 -221.14,-246.5 106.62,-64.98 977.54,-199.25 1266.67,-290.56 304.72,-96.2 291.52,-110.05 345.17,-439.05 33.51,-205.65 101.79,-486.84 101.11,-693.6l-0.11 -30.29c-1.25,-384.55 -119.85,-1217.93 -274.14,-1487.24 -476.54,-831.97 -1392.39,-817.6 -1662.31,-323.78 -213.59,390.77 -225.78,1520.1 -19.85,1917.78 88.38,170.63 246.14,382.01 277.83,608.72 -246.39,110.05 -431.44,110.48 -662.81,188.99 -40.34,397.03 133.12,394.7 248.75,643.99 -378.22,-118.74 -356.94,-243.42 -878.9,-246.17 -1152.54,-6.08 -1604.9,528.57 -1862.77,650.28 -178.25,84.12 -183.3,99.72 -321.96,192.6 -156.15,104.65 -164.7,105.12 -271.46,243.35 -44.38,57.47 -69.49,91.45 -99.71,141.7l-66.46 117.42c-29.47,43.28 -12.08,24.68 -45.31,56.33 -89.06,-312.27 -206.73,-528.08 -334.77,-792.17 -68.24,-140.66 -107.18,-269.88 -176.57,-396.6 -149.96,-274.07 -363.05,-942.99 -464.34,-1258.73 -89.06,-277.65 -253.79,-549.57 -329.8,-823.71 -81.72,-294.82 -119.77,-597 -239.23,-886.92 -107.4,-260.62 -250,-569.31 -314.13,-827.97 -91.88,-370.81 -179.9,-1024 -397.75,-1333.19 -84.83,-120.42 -191.38,-209.66 -257.15,-320.03 1607.12,-6.4 2457.09,88.77 4061.02,-636.77 133.7,-60.48 244.14,-106.36 380.76,-164.84 154.87,-66.34 273.86,-80.9 304.33,-229.18 -161.55,-265.56 -1090.56,-342.24 -1502.68,-342.57l-1937.88 68.92c-255.23,-1.39 -1214.49,111.59 -1473.04,168.82 -290.67,64.3 -554.15,161.44 -831.15,254.4 -447.03,150.03 -228.22,-49.36 -996.61,-71.82l-757.04 -29.51c-354.73,0.25 -581.76,149.97 -858.8,230.91 23.78,-290.71 124.82,-482.95 64.59,-939.24 -42.46,-321.93 -175.65,-479.54 -297.96,-701.18 -230.05,-416.81 -353.9,-531.55 -700.76,-812.56 -92.74,-75.14 -158.01,-205.61 -296.46,-217.95 -205.61,239.3 -415.13,967.92 -416.06,1331.94z"/>
  <path class="fil0" d="M6607.19 4531.29c1626.61,-323 1302.33,1539.06 1238.31,1647.25 -67.85,114.7 -181.94,254.69 -270.39,333.62 -464.09,414.13 -1382.23,575.32 -1850.83,175.25 -352.57,-300.96 -317.45,-327.97 -313.69,-908.01 2.14,-335.41 149.39,-667.17 379.11,-840.38 221.78,-167.17 488.05,-342.31 817.49,-407.73zm-611.8 -1795.35c-630.26,-3.04 -829.01,-119.35 -1391.42,110.08 -334.66,136.56 -691.74,361.81 -913.24,569.25 -212.52,199 -481.97,490.34 -617.85,867.77 -72.42,201.15 -364.02,937.63 -334.08,1114.1 809.77,27.86 1084.94,-14.27 1390.17,791.85 3.47,9.15 13.77,36.19 17.59,44.7 32.12,71.35 1.26,20.53 34.55,63.45 38.77,-68.06 163.02,-216.27 225.07,-289.99 73.32,-87.09 185.84,-190.34 325.01,-198.1 -27.87,106.76 -79.4,134.41 -145.18,197.21 -190.45,181.87 -629.22,813.13 -686.62,1070.03 -80.72,361.16 -75.97,429.29 279.11,429.29 214.24,-0.03 691.17,-129.97 743.21,-302 -220.82,-107.69 -366.92,39.13 -477.61,-151.43 7.22,-4.11 18.56,-16.99 22.78,-10.02l446.42 3.29c443.89,140.03 -67.27,596.89 -765.09,596.5 -391.13,-0.21 -407.8,-38.88 -424.22,-374.36 -84.37,33.52 -171.06,151.18 -527.57,285.52 -740.38,278.9 -725.68,-223.86 -743.46,503.83 790.88,-123.5 855.4,447.82 1029.08,510.69 129.79,46.96 2209.23,-661.05 2520.39,-780.94 565.67,-217.99 813.02,-276.96 1420.32,-573.35 1.36,-307.08 -7.73,-475.11 420.78,-704.22 322.07,-172.21 651.47,-181.37 1016.1,-79.19 -29.15,-189.38 -195.07,-658.69 -274.18,-815.2 -211.55,-418.56 -248.96,-1146.78 -490.27,-1631.58 -179.65,-360.91 -443.39,-349.36 -427.44,-642.64 680.58,-179 2353.3,389.34 3144.18,-616.45 217.42,-276.5 -77.5,-529.4 -470.42,-467.1 -195.78,31.08 -317.14,25.86 -530.69,24.07 -333.69,-2.79 -743.89,45.5 -1062.13,82.01 -807.01,92.67 -1012.91,69.32 -1866.99,392.85 -252.33,95.57 -130.65,137.23 -390.06,47.03 -162.05,-56.33 -314.2,-66.06 -496.24,-66.95z"/>
  <path class="fil0" d="M15318.65 8358.27c-0.03,-0.04 -112.41,-77.01 82.87,-166.67 119.24,-54.76 141.38,-54.19 218.31,11.27 -13.3,99.82 -78.79,158.76 -186.48,176.18 -113.27,18.27 -55.9,10.8 -114.7,-20.78zm-44.63 -470.53c-13.27,-138.81 62.26,-181.58 207.29,-176.33 -9.37,135.66 -66.7,207.34 -207.29,176.33zm-1029.73 1162.91c1.29,0.18 85.98,13.34 91.67,12.23 72.28,-14.2 2.72,30.65 50.36,-31.58 -116.28,-58.26 -136.2,-139.81 -130.51,-293.99l510.09 -95.39c1070.6,-210.3 962.73,-25.21 1085.48,-766.95 56.76,-342.85 99.61,-700.22 5.22,-1079.33 -99.11,-398 -131.08,-1397.75 -1138.38,-1339.6 -720.39,41.6 -520.64,1725.69 -454.47,1895 37.09,94.92 88.95,123.39 112.23,186.27 58.3,157.26 -88.84,-86.73 18.78,165.63 59.12,138.73 168.1,315.34 182.33,469.63 -145.39,187.13 -485.12,165.52 -679.36,266.1 5.36,130.65 92.09,214.23 160.62,328.97 55.01,92.09 113.8,220.81 185.94,283.01z"/>
  <path class="fil2" d="M14386.32 9031.3c-47.64,62.23 21.92,17.38 -50.36,31.58 -5.69,1.11 -90.38,-12.05 -91.67,-12.23 72.29,178.11 187.2,140.7 139.02,269.42 -107.9,62.81 -370.31,10.87 -521.21,19.06l300.11 325.97c169.96,195.67 144.03,177.11 463.31,163.95 453.58,-18.74 721.78,-47.32 1075.5,145.03 344.92,187.52 648.18,645.92 825.86,993.13 106.04,207.19 209.84,174.39 468.99,172.14 -54.07,-176.93 -202.57,-154.47 -211.76,-354.83 164.91,-38.37 333.62,201.65 410.4,324 177.54,-42.13 335.7,-103.18 497.47,-147.67 -41.39,-86.27 -68.35,-112.45 -149.68,-164.17 -118.21,-75.14 -136.41,-30.47 -129.37,-171.31 168.85,-55.55 348.97,168.77 452.72,230.68 318.24,-157.97 200.11,-442.67 148.97,-586.94 -65.63,-185.09 -9.12,-145.14 -176.86,-251.54 -351.19,-222.82 -774.08,212.23 -1492.75,-143.64 -260.87,-129.14 -244.02,-53.97 -275.82,-187.3 166.67,-163.52 547.71,267.71 792.96,116.6 -50.43,-171.64 -166.74,-43.24 -230.98,-207.44 140.13,-117.03 259.37,62.09 416.88,86.62 178.97,-151.68 173.43,-182.8 175.22,-444.49 -168.24,19.63 -472.46,147.07 -602.65,24.78 48.86,-190.45 370.35,-84.3 566.67,-211.98 4.72,-156.08 -123.64,-249.14 -198.93,-359.44 -449.75,-59.55 -436.55,-42.45 -834.62,313.34 -316.7,283.12 -802.61,473 -1225.9,453.72 -242.38,-11.02 -404.58,-300 -521.46,-410.87 -4.36,-4.12 -12.62,-11.88 -20.06,-16.17z"/>
  <path class="fil1" d="M6703.04 6705.97c113.63,-208.22 212.56,23.79 242.88,-489.84 753.19,-201.25 506.41,-192.24 766.6,-517.78 14.13,158.12 39.67,309.84 -53.68,441.6 -56.15,79.26 -159.27,201.4 -244.07,272.68 -113.94,95.7 -501.21,315.66 -711.73,293.34zm79.33 -979.07c-411.98,1049.28 -1286.45,788.3 -1106.55,-272.82 95.53,-563.38 1044.93,-907.84 1123.43,-395.1 13.77,90.02 5.22,611.62 -16.88,667.92zm-175.18 -1195.61c-329.44,65.42 -595.71,240.56 -817.49,407.73 -229.72,173.21 -376.97,504.97 -379.11,840.38 -3.76,580.04 -38.88,607.05 313.69,908.01 468.6,400.07 1386.74,238.88 1850.83,-175.25 88.45,-78.93 202.54,-218.92 270.39,-333.62 64.02,-108.19 388.3,-1970.25 -1238.31,-1647.25zm95.85 2174.68c210.52,22.32 597.79,-197.64 711.73,-293.34 84.8,-71.28 187.92,-193.42 244.07,-272.68 93.35,-131.76 67.81,-283.48 53.68,-441.6 -260.19,325.54 -13.41,316.53 -766.6,517.78 -30.32,513.63 -129.25,281.62 -242.88,489.84z"/>
  <path class="fil0" d="M9144.64 19764.05c70.53,-228.22 119.24,-449.47 194.46,-677.97 107.87,-327.83 85.16,-415.71 91.74,-770.61 3.25,-174.39 42.95,-225.64 65.81,-375.25l29.5 -1271.78 -592.1 47.78c-6.43,408.34 22.86,823.72 -23.49,1213.13 -45.82,384.98 -24.79,690.59 -44.32,869.39 -5.61,51.18 -10.58,74.39 -27.07,116.84 -1.15,2.97 -27.61,56.15 -31.33,63.2 -2.65,5.01 -11.02,26.11 -13.02,21.35 -2.04,-4.83 -8.58,14.74 -13.56,21.64 -163.3,-41.56 -463.55,-300.11 -769.2,-390.2 -261.09,-76.97 -764.53,-127.26 -923.18,43.6 -8.55,172.1 43.92,133.51 159.73,236.16 187.34,165.98 442.92,405.18 660.69,520.13 103.26,54.51 155.9,73.61 256.19,136.95 203.43,128.5 805.8,215.23 979.15,195.64z"/>
  <path class="fil0" d="M3330.61 3467.38c103.86,-70.35 237.27,-254.51 512.63,-443.85 337.8,-232.26 315.84,-69.17 439.48,-531.98 83.98,-314.37 2.51,-900.64 -203.75,-1215.27 -47.43,-72.39 -120.35,-229.79 -173,-297 -253.26,16.49 -546.96,232.12 -647.78,368.78 -113.67,154.11 -400.22,458.48 -435.13,594.71 -49.07,191.56 383.52,1417.1 507.55,1524.61z"/>
  <path class="fil1" d="M9130.01 11194.61c-265.7,-227.15 -139.91,-428.4 -171.63,-629.65 -63.74,-63.41 -201.87,-567.35 -258.84,-708.16 -178.43,-440.91 -85.48,-691.24 -331.8,-643.88 -38.51,195.49 208.12,758.65 264.6,962.55 9.26,33.48 37.48,122.25 59.22,147.64 46.07,53.72 37.09,29.72 108.59,60.02 -17.71,162.55 -17.74,4.72 -40.34,105.58 -43.5,194.17 -14.67,36.51 11.01,107.44 113.95,314.84 14.99,345.03 203.97,712.66 139.2,270.85 169.82,623.6 291.56,890.59 113.02,247.79 29.72,228.54 303.11,304.08 404.05,111.63 1147.82,212.91 1097.93,673.79 -814.2,286.26 -786.23,-313.34 -1049.07,-110.09 -8.87,161.48 63.98,9.8 204.47,390.81 314.92,854.11 -227.65,505.51 -430.51,190.49 -96.35,-149.61 -281.15,-506.87 -422.5,-383.05 -174.53,195.71 364.78,845.71 -249.35,805.9 -118.82,-136.16 -170.42,-482.83 -96.07,-728.29 63.45,-209.51 222.18,-377.4 353.54,-507.12 6.3,-183.33 -206.94,-918.74 -263.98,-1149.32 -25.14,-101.58 -141.35,-396.14 -203.01,-517.85 -131.36,-259.48 4.47,-336.69 -191.45,-502.5 27.47,-92.06 -93.13,-60.27 88.48,-87.13 -119.34,-31.58 -87.51,-21.6 -123.71,-150.46 -76.79,-273.36 -97.89,-292.74 -229.58,-531.16 -67.95,-122.96 -189.55,-601.14 -377.39,-587.91 -7.34,68.35 176.86,524.47 225.89,620.75 91.06,178.79 226.93,381.79 241.56,632.94 -151.5,5.08 -266.2,-28.15 -332.26,93.13 158.19,-83.87 141.88,-86.98 371.57,-59.91 59.65,357.73 752.25,1983.91 535.73,2268.32 -93.78,123.25 -231.69,264.77 -273.36,487.84 -36.01,192.95 -28.61,514.16 49.97,677.79 175.03,364.59 783.65,283.19 667.63,-394.1 88.02,63.77 90.63,103.54 148.18,183.94 53.86,75.29 74,85.34 134.62,136.88 109.08,92.74 185.55,182.87 364.2,183.37 463.27,1.21 223.71,-491.31 171.42,-764.24 539.06,141.95 1159.55,-58.15 702.58,-596.89 -225.36,-265.7 -796.28,-354.4 -1207.26,-460.87 -65.06,-148.43 -336.99,-1008.91 -347.72,-1123.93z"/>
  <path class="fil3" d="M8212.27 6530.19c-1195.49,301.64 -564.45,1402.61 237.13,1387.34 261.66,-4.97 354.75,-127 469.56,-242.74 76.29,-76.86 120.5,-107.83 130.97,-228.51 22.79,-261.98 -37.44,-693.92 -236.12,-851.32 -117.27,-92.92 -421.17,-110.27 -601.54,-64.77z"/>
  <path class="fil4" d="M2511.26 5650.75c-868.64,338.88 -711.12,1653.54 55.26,1492.31 385.76,-81.11 583.22,-349.1 564.2,-788.37 -15.45,-356.33 -187.84,-872.32 -619.46,-703.94z"/>
  <path class="fil4" d="M6782.37 5726.9c22.1,-56.3 30.65,-577.9 16.88,-667.92 -78.5,-512.74 -1027.9,-168.28 -1123.43,395.1 -179.9,1061.12 694.57,1322.1 1106.55,272.82z"/>
  <path class="fil3" d="M2455.97 8384.55c-0.36,193.71 91.77,902.76 179.22,1027.15 194.45,276.58 744.81,22.18 844.96,-182.72 141.95,-290.53 -90.1,-470.46 -187.88,-655.58 -37.34,-70.68 -78.61,-123.86 -127.43,-174.4 -123.79,-128.22 -707.91,-531.94 -708.87,-14.45z"/>
  <path class="fil2" d="M9214.78 9590.21c258.76,44.45 576.68,-141.46 720.24,-266.96 -32.72,-158.94 -145.89,-398.1 -245.31,-476.96 -124.61,147.49 -457.26,527.07 -474.93,743.92z"/>
  <path class="fil2" d="M9839.14 10565.71c156.86,3.9 708.01,16.2 790.34,-152.33 -63.41,-139.34 -17.45,-17.59 -141.49,-65.84 -159.23,-61.95 -125.36,-233.94 -253.22,-334.84 -68.52,56.8 -368.13,453.44 -395.63,553.01z"/>
  <path class="fil0" d="M8958.38 10564.96c31.72,201.25 -94.07,402.5 171.63,629.65 -1.71,-129.72 16.81,-36.66 -46.96,-145.46 129.26,45.32 229.55,57.66 330.66,-30.11l-57.84 -35.23c-11.08,-4.65 -17.38,-8.66 -29.72,-12.84 -11.98,-4.08 -17.88,-5.33 -30.26,-8.44 -71.74,-17.99 -86.05,14.45 -222.92,-34.34 53.57,-54.75 6.51,-33.83 101.93,-57.4l242.42 -3.01c19.17,-198.35 10.83,-13.44 -40.02,-148.17 -30.33,-80.37 -23.54,-94.32 -20.86,-184.94 -172.17,0 -262.05,-10.95 -398.06,30.29z"/>
  <path class="fil1" d="M13323.44 12044.4c159.37,-11.77 149.32,-159.09 241.74,-297.57 115.49,-173.04 178.61,-159.98 191.7,-342.46 -165.34,15.38 -249.68,149.57 -325.75,266.06 -61.8,94.67 -171.64,251.11 -107.69,373.97z"/>
  <path class="fil1" d="M13163.68 13229.56c30.83,59.15 -4.76,63.12 103.07,82.01 169.64,29.65 419.42,-55.15 296.46,-379.62 -153.15,-5.15 -127.43,57.33 -155.86,197.89 -120.25,47.07 -159.02,31.83 -243.67,99.72z"/>
  <path class="fil5 str0" d="M11831.41 10837.35c-33.83,-128.83 -19.56,-69.57 -93.7,-113.06 -74.57,-43.7 -275.32,-210.05 -432.59,-69.92l312.02 -4.04c-8.15,6.33 -18.85,12.8 -25.82,17.1l-70.24 40.66c-5.55,3.65 -13.81,7.33 -18.6,10.84 -69.17,50.18 -17.1,3.11 -45.78,57.83l148.5 90.85c-62.41,199.5 -247.64,105.33 -440.63,140.7 35.12,26.64 -2.08,37.98 159.4,38.55 311.38,1.08 317.82,-25.64 326.94,-195.74l180.5 -13.77z"/>
  <path class="fil5" d="M9841.25 10711.63l374.71 1.83c-1.93,330.61 -32.48,246.92 -165.49,292.88 -9.65,3.36 -20.56,8.91 -28.65,12.02 -8.61,3.32 -22.63,24.32 -28.97,15.98 -6.65,-8.69 -20.17,11.34 -29.54,18.1 149.82,1.4 419.57,33.66 252.94,-336.23l123.24 -77.54c-214.3,-40.41 -224.28,-61.23 -476.82,-53.65l-21.42 126.61z"/>
  <path class="fil1" d="M15318.65 8358.27c58.8,31.58 1.43,39.05 114.7,20.78 107.69,-17.42 173.18,-76.36 186.48,-176.18 -76.93,-65.46 -99.07,-66.03 -218.31,-11.27 -195.28,89.66 -82.9,166.63 -82.87,166.67z"/>
  <path class="fil1" d="M13706.2 13633.1c110.12,15.48 185.02,-80.08 207.66,-179.44 -52.08,-39.48 -77.72,-47.71 -168.14,-37.37 -44.52,59.98 -78.22,104.47 -39.52,216.81z"/>
  <path class="fil1" d="M15274.02 7887.74c140.59,31.01 197.92,-40.67 207.29,-176.33 -145.03,-5.25 -220.56,37.52 -207.29,176.33z"/>
  <path class="fil1" d="M14341.68 14034.21c67.67,-5.19 116.46,-0.68 181.16,-30.69 106.65,-49.46 38.23,-13.05 69.42,-77.47 -133.12,-50.32 -209.48,-25.61 -250.58,108.16z"/>
 </g>
</svg>
