<?xml version="1.0" encoding="UTF-8"?>
<!DOCTYPE svg PUBLIC "-//W3C//DTD SVG 1.1//EN" "http://www.w3.org/Graphics/SVG/1.1/DTD/svg11.dtd">
<!-- Creator: CorelDRAW 2017 -->
<svg xmlns="http://www.w3.org/2000/svg" xml:space="preserve" width="200mm" height="200mm" version="1.1" style="shape-rendering:geometricPrecision; text-rendering:geometricPrecision; image-rendering:optimizeQuality; fill-rule:evenodd; clip-rule:evenodd"
viewBox="0 0 20000 20000"
 xmlns:xlink="http://www.w3.org/1999/xlink">
 <defs>
  <style type="text/css">
   <![CDATA[
    .fil6 {fill:#005AAB}
    .fil1 {fill:#EC1D25}
    .fil0 {fill:#ED1B24}
    .fil5 {fill:#FAB116}
    .fil2 {fill:#FAFAF7}
    .fil4 {fill:#FDFDFA}
    .fil3 {fill:#FEAE17}
   ]]>
  </style>
 </defs>
 <g id="Capa_x0020_1">
  <metadata id="CorelCorpID_0Corel-Layer"/>
  <path class="fil0" d="M5606.88 7019.19c254.29,-77.19 631.28,-293.43 667.22,182.93 25.37,336.45 -242.89,565.64 -580.18,556.26l-87.04 -739.19zm12588.53 8316.2c103.48,26.15 205.03,154.15 271.37,252.4l-299.54 -30.57 28.17 -221.83zm266.57 -2350.6c57.19,-259.55 126.56,-278.75 202.41,-488.03 -261.55,64.74 -438.58,231.75 -586.59,398.35 -71.16,-99.56 -61.68,-182.56 -66.8,-194.7 -149.13,500.61 -58.27,502.23 -601.84,513.6 59.99,126.26 156.78,172.68 261.04,216.91l-397.92 80.17c147.61,166.23 342.01,132.19 479.8,259.82l-213.3 108.34c98.52,65.48 210.57,100.88 342.72,112.85 -139.78,147.48 -61.77,151.19 -159.45,291.95 -201.18,-142.41 -60.59,-321.5 -388.47,-352.95 34.75,116.84 23.62,50.17 110.87,145.39 287.69,313.94 174.4,378.61 79.96,476.09 -167.04,-98.05 -220.25,-314.65 -442.79,-360.4 65.52,251.59 257.87,261.27 341.03,425.21 130.47,257.16 10.73,370.79 422.86,166.54 -11.51,168.05 -54.63,280.16 -122.81,437.25 -115.7,266.51 -35.5,170.59 -37.15,396.5 -379.77,214.75 -178.08,26.09 -425.01,64.85 -136.07,21.39 -200.34,180.91 -260.37,322.82 -101.42,239.81 -88.39,210.19 -380.44,247.07 -240.35,30.36 -245.82,114.1 -406.18,192.14l118.19 29.05c23.61,-1.38 93.18,-31.92 111.84,-37.42 345.32,-101.55 132.46,187.29 764.59,-36.84 95.22,101.52 81.08,206.85 276.33,204.8 255.81,-2.74 105.6,-149.57 320.55,-8.88 159.15,104.16 95.25,143.6 333.48,118.06 733.22,-78.65 394.71,-130.88 724.98,-232.16 594.62,-182.36 395.32,-296.6 336.58,-490.33 -81.98,-270.32 45.99,-47.51 56.52,-337.93 -150.95,-152.4 -289.21,-157.12 -521.04,-139.58 137.39,-281.08 73.35,-47.98 -68.65,-606.83 8.53,-5.26 21.45,-10.02 26.99,-13.23l75.2 -45.81c52.6,-38.2 26.32,-9.52 61.91,-59.49l-285.43 -668.87c-49.8,-86.31 -124.87,-104.59 -174.03,-177.77l245.19 -117.18c-85.7,-133.77 -37.08,30.06 -106.01,-145.38l317.11 -155.13c-47.1,-97.34 -109.01,-149.87 -158.57,-281.59l298.99 -263.67 -506.29 6.41zm-9772.2 -6197.89c130.57,79.55 81.95,46.46 152.97,199.94 43.69,94.43 69.13,150.67 83.06,266.09l-343.29 89.24 107.26 -555.27zm-280.67 1460.86c231.89,-73.38 711.82,-272.88 893.44,-279.43 110.45,179.33 147.34,395.09 358.84,427.11 234.97,35.59 419.99,-146.22 496.04,-298.83 219.57,-440.73 -67.08,-764.79 -280.27,-1113.35 -207.16,-338.67 -385.88,-672.59 -581.12,-999.35 -229.97,-384.86 -337.13,-853.23 -888.26,-622.83 -186.1,77.81 -151.85,141.14 -251.58,531.06l-499.75 1879.84c-97.64,358.07 -360.36,987.5 7.52,1225.77 200.18,129.65 440.23,-19.67 531.8,-135.84 132.53,-168.12 131.75,-378.18 213.34,-614.15zm6819.83 -2705.13c-348.25,1133 -1759.01,925.5 -1386.97,-397.03 102.43,-364.12 444.87,-748.68 912.26,-700.13 449.14,46.66 609.26,659.41 474.71,1097.16zm-569.78 -2003.59c-2252.49,379.03 -2269.36,3915.51 -261.98,3654.65 2177.75,-283.04 2315.36,-4000.21 261.98,-3654.65zm-1821.81 1947.56c-165.25,-16.13 -1266.29,313.53 -1396.05,411.61 -6.31,914.46 214.04,708.45 574.24,683.82l14.91 295.8c-1398.28,1006.66 -1726.43,-1946.85 150.98,-1610.27 665.8,119.34 914.59,-932.51 -70.62,-960.14 -2284.94,-64.08 -2728.1,3355.74 -1088.99,3694.28 589.26,121.7 1387.39,-262.22 1651.22,-552.17 235,-258.27 264.18,-422.04 231.48,-879.34 -24.29,-339.99 -33.97,-732.24 -67.17,-1083.59zm5232.62 -1087.11c-257.23,-64.48 -839.83,-1127.46 -1112.01,-1215.65 -159.17,-51.63 -566.27,38.79 -677.67,85.76l-57.9 3454.98c1150.37,34.28 845.16,-749.31 904.31,-1660.9 323.08,160.89 852.65,1237.44 1228.33,1258.67 260.2,14.7 449.31,-122.04 522.55,-298.84 89.61,-216.29 95.99,-2816.87 90.49,-3267.55 -1148.78,127.19 -866.82,534.08 -898.1,1643.53zm-1972.45 2797.91c-28.92,750.86 36.1,1576.39 47.91,2335.75 6.44,416.51 -25.2,2042.26 139.17,2267.6 262.36,359.56 1519.2,-7.05 1948.64,-95.14 1026.98,-210.66 1146.04,-120.82 1064.73,-1343.48 -381.15,14.97 -1363.97,313.29 -1633.34,262.51 -47.3,-846.54 -44.16,-1744 -63.63,-2592.88 -29.06,-1267.81 -180.61,-1042.29 -1503.48,-834.36zm-3768.86 973.71c4.46,680.14 148.8,1640.79 225.12,2339.53 237.92,2178.63 -24.88,2559.07 1278.13,2209.53 382.63,-102.62 631.69,-164.95 1013.01,-264.07 315.77,-82.09 744.96,-142.45 906.44,-349.47 156.89,-201.18 121.56,-803.97 33.8,-1038.96 -480.61,31.11 -1172.06,380.71 -1619.94,373.73 -49.2,-849.51 -180.44,-1688.84 -249.77,-2541.2 -31.58,-388.26 -6.75,-884.49 -425.15,-948.49 -325.95,-49.84 -847.39,166.73 -1161.64,219.4zm-7825.76 3582.38l20.62 -162.36c367.51,-121.89 885.2,-350.14 948.8,195.69 55.67,477.64 -369.54,605.55 -772.12,703.39l-38.73 -143.02c-32.04,-118.69 -49.02,-202.47 -70.47,-316.85 -7.26,-38.69 -21.9,-124.96 -34.59,-164.77 -43.29,-135.67 11.2,-32.83 -53.51,-112.08zm905.49 1425.14c244.74,-29.63 400.35,15.72 474.88,214.57 111.51,322.99 68.65,558.76 -146.98,714.49 -128.37,92.75 -472.04,231.52 -663.27,246.13 -83.54,-149.77 -203.04,-790.84 -193.09,-996.58l528.46 -178.61zm1225.33 -2607.8c-461.48,-602.71 -1295.44,-275.04 -1943.94,-42.61 -287.36,102.97 -1670.62,549.07 -1831.72,665.77l935.58 4647.95 844.76 -307.46c402.94,-95.48 934.67,-310.26 1357.05,-461.41 519.61,-186.01 810.71,-323.06 1115.58,-658.21 523.39,-575.46 476.93,-1821.61 -336.98,-2115.41 -59.9,-21.63 -115.3,-29.59 -180.98,-51.08l-146.3 -68.05c247.81,-393.17 628.33,-775.46 186.95,-1609.49zm2952.41 1331.64c23.14,-231.95 89.34,-652.94 190.75,-831.29 112.32,72.1 364.08,515.54 406.87,635l-597.62 196.29zm-264.86 1284.45l1523.79 -476.16c127.37,243.29 302.44,576.77 594.28,620.64 655.11,98.51 1245.35,-677.92 874.52,-1277.74l-1546.33 -2048.64c-172.95,-229.49 -325.72,-429.09 -512.91,-673.36 -195.85,-255.57 -394.17,-400.44 -857.4,-262.72 -543.2,161.47 -401.67,99.26 -557.98,635.71l-797.69 2796.36c-164.85,552.68 -560.31,1452.7 53.82,1760.97 297.57,149.36 732.81,-24.25 891.31,-184.28 224.2,-226.42 215.83,-545.25 334.59,-890.78zm-6324.51 -5138.38c273.18,-80.44 476.83,-199.17 698.8,55.97 399.84,459.56 388.37,1829.7 -361.78,1892.28 -61.48,-129.18 -331.93,-1735.16 -337.02,-1948.25zm-972.74 -253.86c-11.37,262.09 468.87,2780.47 552.35,3254.07 228.41,-20.38 1368.86,-547.46 1600.58,-751.64 974.38,-858.63 651.06,-3011.76 -413.34,-3129.7 -373.01,-41.33 -638.78,128.95 -922.83,254.66 -209.82,92.85 -641.96,257.46 -816.76,372.61zm2652.09 -1106.27c-38.29,195.52 342.33,3026.63 415.13,3295.19 125.07,39.45 274.53,-42 438.61,-113.97 619.99,-271.84 283.41,-729.53 282.09,-1373.72 170.21,93.83 448.87,390.7 598.77,529.71 136.07,126.14 400.41,473.66 714.05,226.89 185.09,-145.62 417.69,-504.29 168.59,-793.61 -137.95,-160.23 -430.03,-367.68 -548.9,-545.66 77.57,-218.52 328.35,-333.04 307.3,-949.32 -13.43,-393.59 -198.63,-670.9 -456.33,-806.39 -316.6,-166.47 -708.95,54.75 -983.88,164.14 -299.31,119.06 -647.5,225.72 -935.43,366.74z"/>
  <path class="fil1" d="M9207.4 4101.81c-1.08,-193.02 -146.56,-293.23 -118.52,-441.07 15.75,-83.03 160.6,-235.1 198.79,-361.65l-459.46 0.51c-79.08,-83.47 -156.48,-225.14 -276.69,-282.16 -71.02,137.42 -44.27,317.75 -141.24,409.05 -79.42,74.76 -252.8,80.94 -362.29,180.16 105.61,98.02 249.3,147.28 367.52,249.1l17.08 391.44c200.98,-41.33 229.22,-196.43 369.94,-225.61 98.25,-20.38 283.04,64.17 404.87,80.23zm2281.6 -603.22c-24.29,-162.32 -123.35,-301.43 -115.86,-400.89 8,-106.04 120.42,-187.05 164.72,-379.36 -755.69,14.17 -298.02,-50.74 -693.71,-287.02 -67.51,103.31 -79.35,248.39 -106.72,398.12 -117.71,41.06 -290.35,95.92 -382.8,184.55 269.98,352.24 325.82,-89.77 364.38,652.45 134.55,-42.92 72.41,-14.34 190.97,-115.35 270.62,-230.51 230.8,-88.3 579.02,-52.5z"/>
  <path class="fil2" d="M5828.84 4993.36c342.22,-572.21 273.86,-1250.91 1477.77,-2432.99 128.52,-126.15 590.13,-483.24 625.69,-591.88 -437.49,-41.8 -1430.6,978.09 -1641.57,1234.51 -181.08,220.05 -1424.12,1899.95 -461.89,1790.36z"/>
  <path class="fil3" d="M9207.4 4101.81c-121.83,-16.06 -306.62,-100.61 -404.87,-80.23 -140.72,29.18 -168.96,184.28 -369.94,225.61l-17.08 -391.44c-118.22,-101.82 -261.91,-151.08 -367.52,-249.1 109.49,-99.22 282.87,-105.4 362.29,-180.16 96.97,-91.3 70.22,-271.63 141.24,-409.05 120.21,57.02 197.61,198.69 276.69,282.16l459.46 -0.51c-38.19,126.55 -183.04,278.62 -198.79,361.65 -28.04,147.84 117.44,248.05 118.52,441.07zm2281.6 -603.22c-348.22,-35.8 -308.4,-178.01 -579.02,52.5 -118.56,101.01 -56.42,72.43 -190.97,115.35 -38.56,-742.22 -94.4,-300.21 -364.38,-652.45 92.45,-88.63 265.09,-143.49 382.8,-184.55 27.37,-149.73 39.21,-294.81 106.72,-398.12 395.69,236.28 -61.98,301.19 693.71,287.02 -44.3,192.31 -156.72,273.32 -164.72,379.36 -7.49,99.46 91.57,238.57 115.86,400.89zm-5660.16 1494.77c-962.23,109.59 280.81,-1570.31 461.89,-1790.36 210.97,-256.42 1204.08,-1276.31 1641.57,-1234.51 -35.56,108.64 -497.17,465.73 -625.69,591.88 -1203.91,1182.08 -1135.55,1860.78 -1477.77,2432.99zm5261.91 -3717.8c410.06,-302.54 2144.45,253.04 2508.39,445.72 1229.42,650.83 500.15,1278.11 -517.79,1270.82 56.21,-158.78 6.65,-67.85 130.67,-182.09 159.79,-147.17 309.25,-319.38 156.15,-581.66 -409.32,-701.2 -2110.14,-813.05 -2277.42,-952.79zm-6314.67 4366.1c197.88,43.56 2257.92,-662.74 2590.02,-773.13 2283.05,-758.69 4418.09,-1230.9 6759.78,-1732.2 341.64,-73.14 1195.88,-151.65 1423.35,-310.97 -15.25,-746 -1836.82,-1428.75 -2642.14,-1590.76 -2694.06,-541.85 -6168.03,348.56 -7601.98,2841.57 -174.77,303.82 -612.5,1115.71 -529.03,1565.49z"/>
  <path class="fil4" d="M11090.75 1275.56c167.28,139.74 1868.1,251.59 2277.42,952.79 153.1,262.28 3.64,434.49 -156.15,581.66 -124.02,114.24 -74.46,23.31 -130.67,182.09 1017.94,7.29 1747.21,-619.99 517.79,-1270.82 -363.94,-192.68 -2098.33,-748.26 -2508.39,-445.72z"/>
  <path class="fil1" d="M12610.42 14313.84c113.84,128.82 210.97,135.56 345.15,237.05l25.64 405.37c225.72,-32.35 166.2,-148.95 328.08,-202.83 159.86,-53.18 300.38,41.29 450.38,59.75 -11.7,-162.12 -121.12,-282.03 -126.15,-390.06 -5.53,-117.95 136.31,-231.62 185.57,-402.34l-439.65 13.87c-73.12,-103.34 -159.02,-249.5 -282.2,-306.32 -129.76,290.66 38.26,354.87 -299.9,484.76 -13.09,5.03 -78.58,30.57 -86.92,34.79l-76.18 47.88c-5.4,3.57 -16.26,11.6 -23.82,18.08zm-2160.07 671.68l356.28 230.87 33.98 432.37c152.43,-64.75 191.91,-178.48 316.27,-232.9 132.05,-57.8 287.79,32.89 449.23,52.97 -27.7,-171.03 -139.54,-310.06 -114.84,-430.21 22.9,-111.47 144.5,-197.37 185.12,-364.65 -708.11,28.1 -338.2,5.13 -713.68,-277.71 -95.48,135.64 -49.97,308.78 -148.32,403.73 -67.95,65.62 -259.79,93.25 -364.04,185.53z"/>
  <path class="fil2" d="M15548.18 13880.46c11,257.84 -686.62,1033.46 -850.83,1203.2 -308.31,318.7 -1093.41,905.83 -1121.52,968.62 169.94,89 497.21,-215.93 689.9,-228.28l519.95 -375.35c517.49,-366.03 925.53,-786.05 1273.24,-1294.9 144.61,-211.58 702.11,-971.69 278.96,-1142.71 -489.73,-197.95 -488.11,620.12 -789.7,869.42z"/>
  <path class="fil3" d="M10450.35 14985.52c104.25,-92.28 296.09,-119.91 364.04,-185.53 98.35,-94.95 52.84,-268.09 148.32,-403.73 375.48,282.84 5.57,305.81 713.68,277.71 -40.62,167.28 -162.22,253.18 -185.12,364.65 -24.7,120.15 87.14,259.18 114.84,430.21 -161.44,-20.08 -317.18,-110.77 -449.23,-52.97 -124.36,54.42 -163.84,168.15 -316.27,232.9l-33.98 -432.37 -356.28 -230.87zm2160.07 -671.68c7.56,-6.48 18.42,-14.51 23.82,-18.08l76.18 -47.88c8.34,-4.22 73.83,-29.76 86.92,-34.79 338.16,-129.89 170.14,-194.1 299.9,-484.76 123.18,56.82 209.08,202.98 282.2,306.32l439.65 -13.87c-49.26,170.72 -191.1,284.39 -185.57,402.34 5.03,108.03 114.45,227.94 126.15,390.06 -150,-18.46 -290.52,-112.93 -450.38,-59.75 -161.88,53.88 -102.36,170.48 -328.08,202.83l-25.64 -405.37c-134.18,-101.49 -231.31,-108.23 -345.15,-237.05zm1896.98 1597.68c-159.96,-167.35 -4.56,32.96 -241.67,-87.52 -192.69,12.35 -519.96,317.28 -689.9,228.28 28.11,-62.79 813.21,-649.92 1121.52,-968.62 164.21,-169.74 861.83,-945.36 850.83,-1203.2l-93.62 -435.84c189.64,-169.74 157.15,-166.5 159.68,-247.21 4.83,-152.87 -42.37,-153.27 -154.59,-176.62 170.38,39.07 66.33,12.38 113.3,-89.81 -96.19,-151.52 -99.84,2.73 -141.27,-101.22 -7.62,-19.16 -27.77,-10.39 -40.86,-17.31l132.77 -93.52c-506.09,60.69 -4014.54,1157.04 -4513.85,1325.2 -804.47,270.99 -3674.68,1202.19 -4212.65,1589.04 25.84,348.63 363.87,500.86 649.74,657.44 1442.72,790.13 3740.72,826.98 5330.16,351.22 341.98,-102.33 1623.49,-550.28 1730.41,-730.31z"/>
  <path class="fil5" d="M15523.59 12718.93l-132.77 93.52c13.09,6.92 33.24,-1.85 40.86,17.31 41.43,103.95 45.08,-50.3 141.27,101.22 -46.97,102.19 57.08,128.88 -113.3,89.81 112.22,23.35 159.42,23.75 154.59,176.62 -2.53,80.71 29.96,77.47 -159.68,247.21l93.62 435.84c301.59,-249.3 299.97,-1067.37 789.7,-869.42 423.15,171.02 -134.35,931.13 -278.96,1142.71 -347.71,508.85 -755.75,928.87 -1273.24,1294.9l-519.95 375.35c237.11,120.48 81.71,-79.83 241.67,87.52 545.49,-178.48 1515.08,-1110.89 1792.76,-1438.36 269.2,-317.49 1288.19,-1858.45 963.82,-2110.21 -137.45,-106.65 -475.82,15.65 -928.6,130.74 -184.79,46.96 -727.35,176.82 -811.79,225.24z"/>
  <path class="fil6" d="M3491.88 16260.72c-108.24,-245.99 -216.95,-1245.31 -275.89,-1600.92 -45.51,-274.57 -181.82,-406.66 -295.48,-604.94 -594.82,-1037.68 -975.3,-2167.33 -1096.25,-3451.74 -492.29,-5226.85 2879.18,-9476.15 7943.75,-10248.91 545.73,-83.27 1131.14,-135.09 1708.58,-123.01 595.39,12.41 1175.57,132.66 1713.13,141.67 -117.04,-121.5 -491.58,-172.88 -647.08,-201.73 -5166.59,-958.83 -10143.64,2200.56 -11521.37,7241.08 -535.17,1957.94 -413.78,3898.24 190.59,5744.24 1738.98,5311.63 7434.73,8031.24 12648.19,6346.92 781.77,-252.57 1590.59,-625.93 2253.87,-1067.95 392.99,-261.88 1597.27,-1152.02 1771.67,-1513.93 -281.05,-280.27 -305.51,6.54 -626.81,-168.6 -208.67,-113.73 -13.22,-97.84 -254.46,-73.99 -152.5,15.08 -181.55,13.16 -339.31,-12.62 -241.54,-39.5 -363.3,23.22 -563.98,132.67 -230,125.44 -186.71,286.71 -380.41,426.52 -2.46,-423.79 6.38,-697.58 286.38,-871.04 286.95,-177.73 308.68,-275.07 752.31,-318.76 193.83,-391.61 169.71,-537.4 672.08,-574.78l101.49 -356.86c-80.74,-59.78 -147.85,-89.44 -205.24,-160.39 -65.79,-81.31 -57.15,-113.97 -120.38,-191 -237.92,396.16 -669.31,867.63 -1066.25,1259.88 -1225.54,1211 -2828.07,2009.33 -4732.64,2198.13 -1958.69,194.17 -4048.62,-276.45 -5653.99,-1259.54 -275.41,-168.63 -425.68,-273.59 -679.37,-465.19 -113.36,-85.63 -219.81,-166.81 -332.9,-260.94 -124.09,-103.28 -178.21,-185.74 -301.53,-260.3 -322.51,-19.26 -621.2,278.72 -948.7,296.03z"/>
 </g>
</svg>
