<?xml version="1.0" encoding="UTF-8"?>
<!DOCTYPE svg PUBLIC "-//W3C//DTD SVG 1.1//EN" "http://www.w3.org/Graphics/SVG/1.1/DTD/svg11.dtd">
<!-- Creator: CorelDRAW 2017 -->
<svg xmlns="http://www.w3.org/2000/svg" xml:space="preserve" width="200mm" height="200mm" version="1.1" style="shape-rendering:geometricPrecision; text-rendering:geometricPrecision; image-rendering:optimizeQuality; fill-rule:evenodd; clip-rule:evenodd"
viewBox="0 0 20000 20000"
 xmlns:xlink="http://www.w3.org/1999/xlink">
 <defs>
  <style type="text/css">
   <![CDATA[
    .fil0 {fill:none}
    .fil1 {fill:#050402}
   ]]>
  </style>
 </defs>
 <g id="Capa_x0020_1">
  <metadata id="CorelCorpID_0Corel-Layer"/>
  <rect class="fil0" width="20000" height="20000"/>
  <rect class="fil0" width="20000" height="20000"/>
  <path class="fil1" d="M12519.59 8659.77c135.67,-192.65 99,-22.72 73.39,-297.67 -348.07,-11.86 -33.82,-21.99 -177.07,102.51 146.11,60.42 123.4,-127.88 103.68,195.16zm-11176.86 7393.2l78.79 238.94c72.73,-100.41 116.33,186.4 122.88,-302.6 3.73,-277.79 -108.16,-254.21 -120.74,-271.55 19.82,168 110.78,335.21 -80.93,335.21zm3244.61 -10742.42c26.12,-199.99 -37.61,-168.59 121.95,-168.59 -105.72,-173.65 -30.2,-85.52 -226.67,-152.66 7.52,157.24 -23.23,78.69 25.99,192.88l78.73 128.37zm11916.49 2295.99c-62.04,-310.18 92.35,-126.91 154.94,-25.75 161.66,261.28 -148.7,56.95 -154.94,25.75zm-40.64 118.78c-342.2,29.3 -288.36,-63.01 -383.49,-322.94 359.95,56.19 177.75,15.1 383.49,322.94zm-180.82 1748.81l-10.72 163c-197.92,110.13 -765.27,53.25 -1097.86,128.4 -356.48,80.55 -531.85,282.57 -842.97,353.75l11.44 348.75c-214.98,-114.71 -184.02,198.16 -169.58,-259.68 -268.03,-179.9 -251.97,-630.92 -221.26,-1216.47 328.59,-278.1 1593.22,-1392.68 1969.03,-1590.53 14.3,314.87 -88.65,326.94 -173.89,466.43l133.7 17.55c475.84,-326.08 163.76,-73.08 278.37,37.36l-265.13 22.61 147.31 102.72 535.44 -147.6 217.09 -80.72 -234.18 117.02c-137.33,86.34 -341.49,245.28 -514.42,311.91 -472.08,181.85 -324.04,-82.97 -651.04,196.92 221.46,571.76 641.98,344.1 1236.67,204.12 -446.75,-49.15 -28.23,51.29 -204.4,-167.9 -420.21,-148.18 -249.42,-158.14 136.56,-289.74l97 -17.44 52.39 -82.93c322.8,210.74 159.11,30.09 288.47,371.26 -201.64,-111.27 -80.11,22.54 -222.43,-150.7l-130.6 301.05c612.54,-249.86 169.38,-111.4 270.72,64.25l-694.89 271.2 11.82 72.97 585 101.2c-142.49,99.17 126.4,9.62 -211.84,94.69 -110.85,27.88 -61.94,2.69 -198.85,-10.21 102.89,210.51 -94.65,159.35 111.68,181.79l0.45 16c828.73,-121.85 461.98,-141.02 291.91,-543.09 314.53,-116.54 342.48,-68.7 351.14,-434.52l-231.98 -493.73c248.73,192.72 202.95,219.57 324.97,511.24 172.38,41.09 520.03,360.79 674.18,499.39 236.66,212.81 306.15,396.18 532.85,616.68 404.45,393.32 311.94,176.96 910.04,173.89 356.34,-1.86 662.42,102.06 945.41,-48.29 -350.58,-229.66 -1096.21,-20.09 -1545.13,-176 -174.38,-60.56 -618.54,-620.05 -870.47,-825.8 -1186.52,-968.98 -514.17,-813.32 -912.08,-1114.48 -835.42,-632.33 -172,-93.89 -566.8,-621.43 -653.84,90.37 -1802.96,1338.21 -2386.9,1663.6 -422.75,-555.88 -505.34,-1555.37 -1219.77,-2099.94 -907.7,-691.86 -1104.49,-1333.12 -1664.33,-1607.18 343.59,968.51 1582.63,1537.1 2089.22,2516.15 273.55,528.72 609.86,963.13 555.22,1634.41 -124.15,1525.55 429.97,1472.09 499.04,1680.9 -12.85,745.04 -406.21,4629.6 -163.9,4914.48 138.67,-322.66 340.83,-4885.32 319.01,-5532.92 789.2,-209.36 756.76,-212.81 1691.42,-238.76 796.43,-22.13 584.69,-453.51 1292.99,131.94 682.86,564.46 2185.07,1093.83 2675.67,860.79 -620.75,-258.76 -1413.98,-290.26 -2000.02,-586.24 -321.45,-162.35 -513.17,-382.68 -758.03,-576.42 -482.12,-381.4 -354.89,-108.75 -1072.74,-235.7zm-6534.82 -2587.95l-301.6 555.6c-294.75,2094.56 1462.3,3859.67 1806.78,4839.86 242.66,690.41 384.91,1018.31 715.29,1615.59l-885.71 1924.73c314.53,-162.07 420.73,-506.97 649.67,-1000.49 168.76,-363.92 320.63,-682.89 474.88,-1029.27l-87.45 -98.48c-601.72,-646.77 -488.53,-1192.51 -937.96,-2005.18 -200.09,-361.79 -394.02,-572.91 -590.31,-936.66 -205.51,-380.77 -340.28,-601.06 -524.03,-1002.52 -330.59,-722.19 -732.53,-1513.56 -387.22,-2420.05 261.82,-687.41 1257.97,-1062.26 1268.58,-1739.19l-1200.92 1296.06zm-6706.2 620.78c-292.95,-57.42 -99.14,-52.91 -168.97,91.34 481.05,191.48 1387.68,766.56 1708.65,1046.3 251.1,218.81 510.17,477.57 722.64,704.37 1105.03,1179.66 1069.6,694.37 2509.08,1696 1527.96,1063.22 1268.21,-225.84 1953.31,140.67 300.7,231.32 124.22,60.22 250.34,522.72 86.07,315.52 155.46,376.43 220.71,651.7 -406.42,664.49 -816.08,1035.54 -1867.21,702.92 -940.37,-297.6 -3125.28,-1448.55 -3953.94,-1968.06 -634.12,-397.57 -1138.33,-856.48 -2095.49,-792.89l387.7 416.21c812.05,-286.23 1291.1,403.36 1881.58,664.8 5.69,1577.91 356.2,2211.58 323.39,3173.12 -10.35,303.64 -130.85,801.06 55.25,1037.03 403.63,-940.31 -215.78,-2914.78 -204.5,-4033.77 1429.04,536.57 4162.72,2830.92 5502.27,1144.81 233.43,431.27 207.3,918.25 220.26,1427.9 10.24,363.09 58.6,531.4 -85.45,819.46 -10.44,312.67 -162.17,666.04 -25.23,897.6 419.31,-749.38 298.15,-2460.41 76.38,-3444.29 -49.11,-217.98 -233.42,-673.28 -336.07,-984.77 -164.55,-499.45 -762.76,-643.7 -879.23,-1731.09 -67.69,-631.85 -68.35,-1736.16 146.05,-2231.61 48.67,-194.47 142.77,-307.8 -18.51,-307.8 -572.29,787.16 -251.21,896.56 -285.44,1868.34 -41.05,1165.01 169.87,1090.66 358.89,1979.81l-845.79 413.94c-348.69,-358.85 -1426.15,-1039.16 -1952.97,-1298.71 -1104.13,-544.06 -854.03,-455.85 -1787.1,-1457.96 -283.61,-304.57 -313.59,-862.79 -272.27,-1356.18 39.37,-469.84 599.38,-1383.16 1019.49,-1284.75 528.02,123.64 -61.36,295.54 606.89,269.93 440.75,-16.93 683.48,-531.44 713.09,-993.74 -217.19,193.44 -342.11,538.65 -482.22,784.1 -630.43,-75.52 -1478.61,-499.25 -1727.64,-932.45 -159.56,0 -95.83,-31.4 -121.95,168.59 215.19,430.3 285.95,179.51 673.76,557.15 -856.45,790.37 -930.38,1036.54 -780.82,2449.21 -473.22,-202.23 -846.9,-613.75 -1438.93,-809.95zm9478.24 1152.81c19.72,-323.04 42.43,-134.74 -103.68,-195.16 -163.48,533.19 -269.44,277.33 -102.82,952.64 340.62,1380.58 212.02,1478.92 831.8,3069.07 285.64,732.8 608.68,1162.11 258.83,2012.32 -249.97,607.37 -739.63,1203.37 -883.61,1709.75 263.65,-114.26 92.1,70.73 321.42,-276.78l664.28 -1244.36c401.84,-934.72 289.3,-1041.85 -70.18,-1908.4 -395.25,-952.89 -1103.89,-2973.17 -916.04,-4119.08zm-3077.5 -1643.92c106.47,-65.76 109.43,-43.22 208.12,-121.22 82.1,-625.51 -138.5,-945.52 -515.65,-1190.18l336.38 -501.41 -787.68 474.6c300.56,180.51 260.86,-179.52 630.74,426.38 223.63,366.33 206.26,459.08 128.09,911.83zm-8099.36 9037.12c191.71,0 100.75,-167.21 80.93,-335.21 -7.31,-675.55 -418.45,-2096.08 -567.43,-2868.56 -553.74,-2871.24 -698.5,-3200.07 836.7,-5485.94 539.64,-803.5 1110.79,-1204.06 998.39,-2579.67 -358.38,413.69 68.35,436.65 -420.94,1445.41 -353.47,728.74 -1832.7,2174.94 -1936,3593.43 -132.88,1824.99 689.89,4407.94 1008.35,6230.54zm1529.65 -8454.67c69.83,-144.25 -123.98,-148.76 168.97,-91.34 -146.7,-153.35 61.69,-94.06 -283.03,-115.71 15.24,405.8 -19.2,40.47 114.06,207.05z"/>
 </g>
</svg>
