<?xml version="1.0" encoding="UTF-8"?>
<!DOCTYPE svg PUBLIC "-//W3C//DTD SVG 1.1//EN" "http://www.w3.org/Graphics/SVG/1.1/DTD/svg11.dtd">
<!-- Creator: CorelDRAW 2017 -->
<svg xmlns="http://www.w3.org/2000/svg" xml:space="preserve" width="250mm" height="250mm" version="1.1" style="shape-rendering:geometricPrecision; text-rendering:geometricPrecision; image-rendering:optimizeQuality; fill-rule:evenodd; clip-rule:evenodd"
viewBox="0 0 25000 25000"
 xmlns:xlink="http://www.w3.org/1999/xlink">
 <defs>
  <style type="text/css">
   <![CDATA[
    .fil8 {fill:#050305}
    .fil18 {fill:#2B586D}
    .fil5 {fill:#35312D}
    .fil17 {fill:#42C7E6}
    .fil10 {fill:#4B250A}
    .fil6 {fill:#585658}
    .fil9 {fill:#834C29}
    .fil1 {fill:#8C695A}
    .fil2 {fill:#908F90}
    .fil7 {fill:#A47638}
    .fil3 {fill:#A7DDE8}
    .fil0 {fill:#B8B6B9}
    .fil16 {fill:#C68711}
    .fil19 {fill:#D8B59C}
    .fil4 {fill:#D8D6D8}
    .fil11 {fill:#DAC11F}
    .fil13 {fill:#E3CC58}
    .fil14 {fill:#F5E697}
    .fil12 {fill:#F9EDD2}
    .fil15 {fill:#FEFEFE}
   ]]>
  </style>
 </defs>
 <g id="Capa_x0020_1">
  <metadata id="CorelCorpID_0Corel-Layer"/>
  <g id="_2378237961920">
   <path class="fil0" d="M17134.72 12072.03c-72.54,120.19 -267.34,272.39 -145.97,567.68 95.72,232.91 535.42,77.47 699.59,39.05l34.04 -53.54c59.68,-128.96 11.55,-28.82 58.66,-109.27 7.41,-12.61 31.61,-46.37 38.31,-58.04 65.09,-113.34 23.85,-24.28 53.14,-120.19 -153.6,32.5 -173.26,170.52 -280.92,245.17 -349.11,242.07 -732.96,-95.64 -382.64,-426.31 62.55,-59.02 92.23,-68.03 157.17,-111.69l111.03 -107.27c3.13,-15.36 10.69,-20.17 15.39,-30.59 -232.28,24.87 -148.86,73.39 -357.8,165z"/>
   <path class="fil0" d="M9051.36 12743.38c161.9,10.89 308.06,10.34 431.9,-54.16 133.08,-69.32 178.28,-198.72 329.41,-241.1l-26.55 -98.14c-331.8,97.48 -143.23,396.61 -741.81,269.33 -52.44,-299.61 -3.53,-304.27 89.88,-532.95 -164.49,114.13 -235.73,305.84 -163.35,514.27l80.52 142.75z"/>
   <path class="fil0" d="M16764.81 23431.67l-9.48 -135.86c36.54,43.59 26.44,11.28 99.48,40.66 -61.26,-143.35 -18.45,-103.75 -167.78,-143.07 -7.25,100.81 -29.26,18.95 2.15,137.9 29.41,111.54 15.28,39.94 75.63,100.37z"/>
   <path class="fil0" d="M8736.4 24983.91l-38.89 -196.68c-99.28,53.26 -134.73,-99.4 -77.55,116.47 31.06,117.22 6.54,32.35 116.44,80.21z"/>
   <path class="fil1" d="M6460.01 10232.83c-179.33,319.94 -66.7,690.74 1.33,1013.65 538.98,881 1595.01,407.23 2197.79,-2.03 158.34,-251.75 408.87,-324.24 496.95,-627.22 -131.28,75.47 -87.53,49.93 -195.9,194.22 -315.47,419.92 -988.27,788.53 -1531.79,805.37 -434.96,13.51 -760.96,-146.87 -902.97,-471.07 -175.81,-401.43 -12.03,-762.76 103.74,-1093.66 -42.14,37.83 -51.23,52.91 -85.57,89.8 -11.67,12.54 -0.71,147.65 -54.4,58.75 -5.29,-8.73 -19.04,21.85 -29.18,32.19z"/>
   <path class="fil1" d="M13586 24462.71l16.29 -139.5 -180.12 9.6c-44.61,109.54 -21.93,39 -38.03,168.32 -74.56,13.16 -24.47,-24.12 -8.02,17.55 1.13,2.86 5.75,15.98 7.67,19.58 2.63,4.74 9.71,19.35 13.24,24.6 60.39,89.8 -4.86,38.81 95.95,87.29l93.02 -187.44z"/>
   <path class="fil1" d="M14157.05 13169.49c-45.11,-80.8 -8.38,-46.84 -62.15,-101.44 -58.43,-59.37 -19.7,-20.28 -94.54,-68.89l156.69 170.33z"/>
   <path class="fil2" d="M15324.54 9303.82c313.35,-43.24 672.41,-534.48 1417.67,-436.61 78.8,10.34 180.04,38.5 245.8,64.82 129.51,51.77 132.68,59.57 223.15,136.76 230.45,196.64 321.35,662.74 181.33,1070.91 -151.95,443.1 -427.32,649.54 -457.94,818.38 128.14,-38.89 73.86,4.74 181.6,-127.72 32.31,-39.75 100.77,-148.12 122.55,-180.62 83.22,-124.31 141.93,-238.04 211.72,-365.05 381.69,-1500.58 -629.84,-1738.23 -1460.75,-1420.73l-518.5 275.84c-178.9,113.1 -89.37,-7.37 -146.63,164.02z"/>
   <path class="fil2" d="M14635.84 10017.78c2.35,189.16 -219.64,452.39 -160.23,919.93 87.03,684.67 788.23,871.92 1466.98,683.77 284.49,-78.88 523.12,-306.58 748.67,-334.42 45.7,-110.45 56.86,-86.01 136.68,-168.72 15.98,-16.53 49.94,-52.95 63.02,-71.28 53.93,-75.59 9.08,5.13 43.59,-88.98 -118.04,29.64 -239.22,154.11 -376.45,246.34 -396.5,266.36 -937.36,502.24 -1463.85,341.55 -1021.24,-311.78 -272.89,-1611.92 -251.86,-1697.57l-206.55 169.38z"/>
   <path class="fil2" d="M6645.61 9992.56c13.12,-7.56 31.45,-34.7 37.99,-25.03l131.79 -129.94c43.94,-58.99 63.91,-101.28 122.27,-178.63 88,-116.59 212.5,-211.14 313.51,-298.63 469.38,-406.45 1348.54,-731.94 1839,-339.2 305.99,245.01 300.94,466.17 307.05,949.77 307.44,-423.36 -136.14,-1488.71 -1274.02,-1185.27 -571.88,152.55 -1283.22,700.42 -1477.59,1206.93z"/>
   <path class="fil2" d="M9283.84 11870.61c-202.48,170.44 -191.36,67.16 -361.49,354.47l-13.2 433.79 142.21 84.51 -80.52 -142.75c-72.38,-208.43 -1.14,-400.14 163.35,-514.27 150.82,-70.85 246.5,-190.3 447.14,-181.49 284.33,12.46 237.18,213.25 201.22,460.65 117.85,-80.44 22.76,99.01 111.94,-110.95 3.33,-7.79 17.03,-112.95 16.64,-124.7 -13.16,-391.48 -458.03,-275.75 -627.29,-259.26z"/>
   <path class="fil2" d="M17872.49 12337.72c254.92,-108.72 30.59,-387.1 -29.02,-507.96 -15.35,-0.63 -209.96,-11.87 -226.64,-8.46 -154.78,31.64 -82.48,20.05 -124.31,85.73 244.78,4.89 224.88,-24.01 388.63,91.06l-8.66 339.63z"/>
   <path class="fil2" d="M14941.47 9704.98c174.21,-88.4 80.1,-49 209.61,-179.1 31.1,-31.26 71.87,-58.98 93.33,-81.66 103.63,-109.43 48.68,-35.72 80.13,-140.4 -118.39,32.7 -171.3,73.39 -236.43,158.73 -71.68,93.84 -98.23,135 -146.64,242.43z"/>
   <path class="fil2" d="M16569.26 24086.23c108.33,-63.96 125.25,-56.44 181.64,-327.96 -26.74,8.53 -175.92,-1.53 -204.35,214.38 -28.32,214.86 -16.65,27.96 22.71,113.58z"/>
   <path class="fil2" d="M7694.2 24639.46l-92.28 -335.48c43.48,46.84 43.59,16.02 115.38,52.83l-113.1 -133.9c-59.73,97.4 -90.04,142.87 19.27,322.32l70.73 94.23z"/>
   <path class="fil2" d="M16261.63 25043.99c55.8,-52.05 83.77,119.1 66.85,-128.42 -9.64,-140.83 -66.42,-116.47 -66.85,-116.94 -74.46,111.3 -62.43,135.39 0,245.36z"/>
   <path class="fil2" d="M8267.29 24810.57c-55.07,66.58 -78.06,-110.44 -45.67,141.42l214 19.82c1.72,-55.85 34.42,-196.25 -43.28,-196.25 22.13,291.85 23.42,74.18 -41.08,175.3 -128.31,-70.97 -71.56,4.62 -83.97,-140.29z"/>
   <path class="fil2" d="M16908.78 23620.29c118.27,-83.73 34.15,109.27 107.7,-124.39l-148.71 -61.84c24.56,79.47 28.2,103.51 41.01,186.23z"/>
   <path class="fil3" d="M14841.76 16910.43l-91.33 6.81c135.04,523.31 197.47,1009.22 82.83,1583.8l3.76 206.28c-63.48,-320.64 17.71,-118.55 74.96,-152.42 -0.98,164.84 11.4,393.87 75.2,505.33 101.4,-122.07 79.11,-128.14 84.48,-338.85 4.07,-161.51 -7.64,-260.99 52.2,-406.29 -11.75,-97.75 -22.56,-198.99 -23.26,-298.51 -0.04,-9.4 3.48,-130.06 4.11,-133.47 32.63,-166.25 10.42,-81.93 71.08,-154.5 -28.86,-143.7 9.87,-241.18 94.47,-363.13l133.78 -164.02c42.93,-111.39 27.85,-141.74 148.63,-180.4l-1.99 29.34c70.14,-189.32 197.42,-284.45 379.18,-375.08 13.67,-260.72 18.14,-62.78 -59.72,-140.79l-101.36 112.32c-7.28,6.77 -17.31,14.1 -24.63,20.4l-510.16 413.81c-7.48,4.9 -17.15,12.93 -24.4,18.02 -62.82,44.26 -45.82,129.36 -178.47,93.37 -116.51,-31.65 -94.42,-151.73 -189.36,-282.02z"/>
   <path class="fil3" d="M13885.13 17262.47c-45.47,201.62 -53.14,273.21 -84.28,491.28 -161.55,-21.66 -58.74,-307.64 -94.03,-535.1 -87.49,172.01 -140.52,424.23 -111.34,661.25 99.51,46.56 131.82,76.29 277.87,73.47 140.99,-170.4 141.07,-302.23 78.29,-524.29 -33.14,-117.1 -21.78,-88.83 -66.51,-166.61z"/>
   <path class="fil4" d="M9243.11 10021.31c-23.89,119.72 -31.65,143.53 -71.32,212.74l-265.93 429.79c-6.15,6.65 -15.35,16.21 -21.5,22.95l-759.4 566.27c-385.88,204.52 -867.13,236.95 -1230.93,60.71 -367.36,-177.93 -298.59,-643.35 -191.04,-963.84 151.09,-450.35 284.33,-527.03 507.53,-766.21 674.92,-723.28 2322.95,-1017.99 2032.59,437.59zm-2597.5 -28.75l-16.45 59.53c-115.77,330.9 -279.55,692.23 -103.74,1093.66 142.01,324.2 468.01,484.58 902.97,471.07 543.52,-16.84 1216.32,-385.45 1531.79,-805.37 108.37,-144.29 64.62,-118.75 195.9,-194.22l70.93 -129.48c50.44,-181.45 158.3,-312.37 170.21,-516.85 -6.11,-483.6 -1.06,-704.76 -307.05,-949.77 -490.46,-392.74 -1369.62,-67.25 -1839,339.2 -101.01,87.49 -225.51,182.04 -313.51,298.63 -58.36,77.35 -78.33,119.64 -122.27,178.63l-131.79 129.94c-6.54,-9.67 -24.87,17.47 -37.99,25.03z"/>
   <path class="fil4" d="M17293.84 9845.54c-120.78,497.62 -86.24,521.16 -412.67,880.29 -1099.03,1209.04 -2406.34,842.11 -2152.16,-165.04 234.12,-927.8 560.95,-902.34 771.42,-1122.05 620.87,-648.09 2051.62,-657.1 1793.41,406.8zm-1969.3 -541.72c-31.45,104.68 23.5,30.97 -80.13,140.4 -21.46,22.68 -62.23,50.4 -93.33,81.66 -129.51,130.1 -35.4,90.7 -209.61,179.1l-99.08 143.42c-21.03,85.65 -769.38,1385.79 251.86,1697.57 526.49,160.69 1067.35,-75.19 1463.85,-341.55 137.23,-92.23 258.41,-216.7 376.45,-246.34 30.62,-168.84 305.99,-375.28 457.94,-818.38 140.02,-408.17 49.12,-874.27 -181.33,-1070.91 -90.47,-77.19 -93.64,-84.99 -223.15,-136.76 -65.76,-26.32 -167,-54.48 -245.8,-64.82 -745.26,-97.87 -1104.32,393.37 -1417.67,436.61z"/>
   <path class="fil4" d="M13563.91 16257.52c44.65,46.29 25.85,15.27 65.13,88.82 9.36,17.51 32.19,70.65 38.89,92.39 64.15,208.43 19.54,584.37 38.89,779.92 35.29,227.46 -67.52,513.44 94.03,535.1 31.14,-218.07 38.81,-289.66 84.28,-491.28 72.69,-310.45 -16.13,-668.49 278.03,-735.62 301.45,-68.77 483.99,260.64 587.27,390.39l91.33 -6.81c-126.93,-379.04 -590.79,-739.98 -979.15,-280.7 -99.47,-109.11 -91.17,-185.24 -130.18,-307.67 -42.45,-133.12 -42.14,-149.53 -165.54,-217.91l-2.98 153.37z"/>
   <path class="fil4" d="M9135.52 12490.58c5.25,-177.89 44.96,-233.38 135.31,-318.1 123.92,-116.2 154.27,-99.16 361.69,-93.13 21.07,356.91 -144.95,440.17 -497,411.23zm-1.33 -404.22c-93.41,228.68 -142.32,233.34 -89.88,532.95 598.58,127.28 410.01,-171.85 741.81,-269.33l-3.57 15.54c35.96,-247.4 83.11,-448.19 -201.22,-460.65 -200.64,-8.81 -296.32,110.64 -447.14,181.49z"/>
   <path class="fil4" d="M17728.76 12072.61c-0.12,280.5 14.8,224.34 -150.51,365.33 -65.52,55.89 -201.23,200.52 -313.16,95.48 -111.54,-104.64 -33.99,-276.97 52.56,-356.55 94.19,-86.59 222.42,-104.84 411.11,-104.26zm143.73 265.11l8.66 -339.63c-163.75,-115.07 -143.85,-86.17 -388.63,-91.06 -4.7,10.42 -12.26,15.23 -15.39,30.59l-111.03 107.27c-64.94,43.66 -94.62,52.67 -157.17,111.69 -350.32,330.67 33.53,668.38 382.64,426.31 107.66,-74.65 127.32,-212.67 280.92,-245.17z"/>
   <path class="fil4" d="M16410.61 24493.26c-38.97,-256.09 29.1,-101.75 -105.04,-151.09 -69.99,148.12 -41.99,113.96 105.04,151.09z"/>
   <path class="fil5" d="M13333.7 11642.71l45.27 297.76c3.26,9.25 8.07,20.57 11.36,29.73 4.55,12.69 17.2,48.52 21.82,61.57l223.27 498.99 100.22 81.66c5.96,-276.03 -42.8,-116.91 -41.2,-655.61 0.71,-249.56 -30.07,-812.82 65.53,-1051.02 57.33,-142.83 377.93,-630.35 562.08,-759.39 16.69,-11.71 148.28,-92.12 154.62,-97.05 -29.65,372.14 -188.73,584.6 -69.83,1037.5 298.67,1137.17 2105.36,638.65 2284.42,200.21 -225.55,27.84 -464.18,255.54 -748.67,334.42 -678.75,188.15 -1379.95,0.9 -1466.98,-683.77 -59.41,-467.54 162.58,-730.77 160.23,-919.93 137.03,-308.81 333.4,-408.01 382.79,-687.25 -499.35,54 -843.6,507.25 -1078.86,740.55 -319.54,316.92 -294.36,359.65 -483.64,757.68 -318.52,669.67 -120.9,153.01 -122.43,813.95z"/>
   <path class="fil5" d="M9227.01 10487.75l-70.93 129.48c-88.08,302.98 -338.61,375.47 -496.95,627.22 360.9,-82.76 793.7,-798.84 882.6,-1161.58 58.75,-239.76 33.61,-430.45 127.95,-591.54 195.12,3.92 687.3,250.77 886.68,522.69 170.33,232.28 149.89,100.81 297.97,272.86 180.54,209.84 -61.57,-14.26 234.86,380.44 273.33,363.92 207.34,176.71 284.85,543.17 188.81,892.44 1.95,511.06 32.07,1051.41 95.21,-88.63 127.91,-196.49 171.23,-332.51 47.35,-148.51 74.1,-245.6 54.36,-408.72 -8.66,-263.77 72.77,-449.92 -119.69,-832.08 -3.21,-6.43 -44.41,-80.84 -47.54,-85.97 -142.37,-232.01 -176.83,-148.82 -376.84,-455.64 -93.45,-143.34 -552.45,-574.65 -728.77,-653.22l-864.75 -306.97c6.89,283.16 53.97,554.18 5.95,789.12 -20.99,102.77 -63.09,201.58 -101.86,306.86 -62.47,169.5 -10.07,212.97 -171.19,204.98z"/>
   <path class="fil5" d="M17450.42 10284.69c-69.79,127.01 -128.5,240.74 -211.72,365.05 -21.78,32.5 -90.24,140.87 -122.55,180.62 -107.74,132.46 -53.46,88.83 -181.6,127.72 -34.51,94.11 10.34,13.39 -43.59,88.98 -13.08,18.33 -47.04,54.75 -63.02,71.28 -79.82,82.71 -90.98,58.27 -136.68,168.72 321.34,-35.56 749.56,-715.85 896.74,-1126.56 62.82,-175.26 83.23,-390 167.78,-522.77l501.07 370.3c419.84,231.07 202.4,138.76 426.5,445.3l285.9 617.97 122.98 691.96c92.42,-87.73 76.99,-61.53 69.71,-230.68 34.38,-468.17 82.4,-467.35 -76.65,-818.57 -5.6,-12.38 -19.93,-48.92 -25.3,-61.45 -87.18,-203.03 -325.92,-585.71 -466.29,-720.74l-87.02 -89.26c-6.03,-6.97 -12.92,-18.21 -18.99,-25.18 -165.87,-190.03 -55.66,-11.44 -433.55,-313.47 -117.14,-93.61 -290.33,-225.16 -439.94,-243.76 -4.93,203.53 6.15,626.86 -57.33,815.09l-106.45 209.45z"/>
   <path class="fil5" d="M5777.65 11422.25c-15.59,210.51 60.74,312.06 77.47,488.77 50.64,160.42 106.88,294.48 173.54,430.14 33.75,68.7 60.58,113.93 109.42,196.1 112.99,190.1 -2.74,89.22 161.83,176.36 -3.49,-104.49 15.51,-130.03 -36.62,-214.31 -73.08,-118.16 -77.31,54.2 -170.91,-438.41 -32.16,-169.19 7.75,-77.89 2.54,-277.83 -4.27,-165.43 -82.36,-367.16 -27.14,-574.97 23.15,-87.1 54.28,-152.19 163.24,-134.61 111.5,17.98 22.67,2.47 198.01,148.55 7.95,6.62 20.17,18.57 32.31,24.44 -68.03,-322.91 -180.66,-693.71 -1.33,-1013.65l19.7 -233.14c-385.06,81.18 -459.55,203.06 -601.96,680.59 -103.86,30.98 62,-105.93 -75.58,0 -6.62,197.82 -7.6,577.4 -24.52,741.97z"/>
   <path class="fil5" d="M15550.68 17050.4l1.99 -29.34c-51.58,121.84 11.71,19.9 -53.38,105.16 -67.01,87.77 12.06,-1.8 -95.25,75.24l-133.78 164.02c-84.6,121.95 -123.33,219.43 -94.47,363.13l176.87 1648.7c69.09,1359.66 -777.33,744.2 -845.09,727.36 69.25,341.35 386.36,381.93 598.59,316.95l215.36 -124.46c-7.2,-433.82 188.66,-87.85 136.73,-1006.68 -49.43,-874.89 -350.17,-1376 81.81,-1989.82 59.3,-84.24 47.16,-73.63 115.93,-153.25l151.68 -157.44c200.25,-176.44 264.24,-210.86 377.11,-150.67 1.61,-99.75 13.48,-94.3 -15.82,-178.23 -57.02,-163.4 -129.91,-170.76 -137.93,-176.79 -13.56,240.58 11.74,139.7 -176.52,288.72 -196.05,155.17 -22.16,169.11 -303.83,277.4z"/>
   <path class="fil5" d="M8265.99 23640.38c56.6,113.93 41.6,120.82 41.56,307.52 15.82,-12.53 35.09,-50.99 44.88,-40.58l146.01 -155.16c24.63,147.72 31.05,109.85 86.04,239.88 3.72,0.86 7.91,-10.97 8.69,-7.44 0.87,3.95 9.29,-6.9 10.62,-7.29 1.6,-0.47 11.98,-6.07 14.17,-6.42l40.15 -5.05c119.49,14.92 -14.81,-15.67 124.58,62.97 -29.53,-449.25 76.8,-478.9 -89.1,-651.61l11.08 323.14c-326.59,-151.84 -384.71,-455.64 -280.18,-786.65 95.13,-301.37 27.3,-116.24 24.21,-207.03 -0.43,-13.43 -5.25,-18.56 -9.52,-27.14 -262.32,149.3 -252.77,391.45 -270.7,722.66 -54.36,1.18 -71.71,-6.11 -127.25,10.89 -115.42,35.33 -46.17,16.61 -113.38,75 46.49,7.87 141.54,14.8 190.3,34.19 177.22,70.57 76.64,30.63 147.84,118.12z"/>
   <path class="fil5" d="M15732.99 24229.18l-11.05 -221.48c-105.31,67.37 -49.97,80.52 -163.47,105.79 -110.33,-88.56 -140.33,-110.53 -197,-293.15 -60.35,98.42 -37.4,173.73 -66.66,233.03l-570.74 -64.35c41.05,297.49 -29.8,79.7 112.25,281.36 23.22,33.01 85.42,148.94 121.45,230.05 249.59,-76.29 165.54,-125.91 422.07,-155.05 -128.97,179.72 -126.54,31.33 -197.7,274.54l285.9 -52.17 9.87 -405.35c14.14,15.39 75.31,56.91 95.44,62.7 95.88,27.73 -11.24,2.12 159.64,4.08z"/>
   <path class="fil5" d="M13257.41 23848.11l5.72 219.59c79.3,-38.1 41.43,11.05 141.97,-77.82 144.55,38.23 272.19,57.14 352.01,178.87l-483.45 -20.17 -4.82 -75c-104.29,65.68 -60.97,-101.36 -118.66,171.46 198.91,-28.4 284.45,-46.96 483.32,6.46l97.17 33.49c6.89,2.66 20.52,8.93 30.16,14.6 -22.99,115.15 -18.33,80.02 -46.33,210.63 100.26,-33.17 70.06,36.27 138.64,184.78 -52.05,56.51 1.88,23.53 -128.46,41.51 43.47,37.52 -67.09,102.14 198.44,56.71 2.63,-0.47 149.49,-73.59 155.41,-76.29 -26.48,-287.62 -95.21,-135.74 -117.61,-357.73 -206.83,-5.36 -69.25,13.36 -121.22,-59.61l33.33 -177.49 -216.5 -119.68c-3.87,-10.62 -7.56,-38.66 -9.32,-32.55 -18.09,62.86 2.12,-46.76 -61.96,-161.75l-30.15 95.33 -297.69 -55.34z"/>
   <path class="fil5" d="M17688.34 12678.76c-164.17,38.42 -603.87,193.86 -699.59,-39.05 -121.37,-295.29 73.43,-447.49 145.97,-567.68 29.72,-110.33 -22.41,-77.51 123.79,-183.37 9.79,-7.09 161.91,-79.54 175.93,-84.05 183.29,-59.33 301.1,-14.72 483.21,8.07 -241.84,-293.1 -700.18,25.18 -881.94,215.76 -374.73,392.97 -135.71,669.98 16.96,866.31 271.25,1.26 543.4,49.58 635.67,-215.99z"/>
   <path class="fil5" d="M13246.87 15959.75c208.48,171.89 178.63,198.41 303.53,386.59l13.51 -88.82 2.98 -153.37c-38.07,-39.79 -74.73,-119.41 -127.92,-186.46 -89.56,-112.87 -118.15,-67.36 -162.88,-220.07l348.52 36.39c-8.22,-20.02 -10.53,-92.55 -43.94,-128.19l-532.36 -39.91c-12.14,445.5 35.05,100.15 198.56,393.84z"/>
   <path class="fil5" d="M11791.02 24782.84c76.8,61.84 8.3,26.44 144.04,86.75 318.88,141.74 184.08,146.55 394.62,188.62 -11.08,-142.33 -106.64,-343.94 -179.09,-463.16l-107.82 -124.93c-190.46,60.62 -196.8,116.55 -251.75,312.72z"/>
   <path class="fil5" d="M10548.37 24958.38l-20.6 -482.55c-123.68,45.67 -227.62,101.09 -257.93,236.09 -50.49,224.56 97.79,222.64 278.53,246.46z"/>
   <path class="fil5" d="M14209.41 23955.54l119.06 -36.27c-0.47,-1.45 19.74,71.83 28.59,78.72l97.64 33.96c43.32,-101.83 75.47,-160.7 3.53,-286.41 -48.72,-85.15 -31.57,-35.17 -84.17,-86.79 -23.34,118.63 10.85,67.91 -43.16,108.41l-410.24 -89.53c134.49,206.23 186.22,99.08 288.75,277.91z"/>
   <path class="fil5" d="M14797.66 23696.15l81.35 6.89c-51.15,38.74 -10.81,92.16 -5.05,107.63 3.52,9.47 17.11,26.12 25.33,39.36 147.46,-1.92 278.5,2.31 305.41,-127.29 32.78,-157.91 -181.69,-264.51 -190.58,-270.15l2.28 127.56c-55.38,28.51 -40.74,9.08 -89.06,32.38 -138.8,67.01 -46.77,8.35 -129.68,83.62z"/>
   <path class="fil5" d="M10900.15 24955.09c45.51,-60.86 44.49,-11.32 77.31,-124.66 4.23,-14.69 16.37,-115.81 15.12,-131.09 -20.6,-248.89 -64.27,-166.91 -136.37,-223.82 -69.05,83.54 -47.43,-18.45 -81.9,127.83 -3.87,16.45 -6.22,125.05 -4.23,140.64 28.98,225 129.79,210.82 130.07,211.1z"/>
   <path class="fil5" d="M8281.9 24739.41c189.04,-11.12 79.85,-17.9 110.44,36.15 77.7,0 45,140.4 43.28,196.25 192.72,-2.74 64.81,54.79 263.88,26.91 9.52,-1.34 27.5,-5.49 36.9,-14.81 -109.9,-47.86 -85.38,37.01 -116.44,-80.21 -57.18,-215.87 -21.73,-63.21 77.55,-116.47 -11.24,-9.56 -28.44,-37.36 -35.09,-26.99 -6.27,9.8 -25.42,-18.87 -33.8,-24.36 -58.63,-38.45 -41.16,-17.11 -89.81,-55.02l-99.63 -111.03 -157.28 169.58z"/>
   <path class="fil5" d="M9230.22 24739.64c155.01,-152.54 127.6,-259.62 0,-366.38 -119.29,47.31 -32.31,-32.66 -96.27,52.4 -115.61,153.76 -7.16,254.26 96.27,313.98z"/>
   <path class="fil6" d="M13333.7 11642.71c1.53,-660.94 -196.09,-144.28 122.43,-813.95 189.28,-398.03 164.1,-440.76 483.64,-757.68 235.26,-233.3 579.51,-686.55 1078.86,-740.55 -49.39,279.24 -245.76,378.44 -382.79,687.25l206.55 -169.38 99.08 -143.42c48.41,-107.43 74.96,-148.59 146.64,-242.43 65.13,-85.34 118.04,-126.03 236.43,-158.73 57.26,-171.39 -32.27,-50.92 146.63,-164.02l518.5 -275.84c830.91,-317.5 1842.44,-79.85 1460.75,1420.73l106.45 -209.45c63.48,-188.23 52.4,-611.56 57.33,-815.09 149.61,18.6 322.8,150.15 439.94,243.76 377.89,302.03 267.68,123.44 433.55,313.47 6.07,6.97 12.96,18.21 18.99,25.18l87.02 89.26c140.37,135.03 379.11,517.71 466.29,720.74 5.37,12.53 19.7,49.07 25.3,61.45 159.05,351.22 111.03,350.4 76.65,818.57l30.7 -22.21c79.39,-540.78 26.67,-996.38 -190.69,-1416.73 -103.59,-200.32 -190.49,-343.51 -328.9,-506.74 -123.48,-145.7 -271.56,-257.78 -389.21,-433.67 -100.89,-32.12 -465.67,-314.41 -691.53,-416.98 -1894.49,-860.36 -3866.69,342.41 -4278.11,1894.22 -61.45,231.85 -139.66,797.93 19.5,1012.24z"/>
   <path class="fil6" d="M7126.12 8835.88c-333.92,357.69 -1013.03,568.35 -1342.4,1696.32 -52.09,178.52 -119.65,727.72 -6.07,890.05 16.92,-164.57 17.9,-544.15 24.52,-741.97 137.58,-105.93 -28.28,30.98 75.58,0 142.41,-477.53 216.9,-599.41 601.96,-680.59l-19.7 233.14c10.14,-10.34 23.89,-40.92 29.18,-32.19 53.69,88.9 42.73,-46.21 54.4,-58.75 34.34,-36.89 43.43,-51.97 85.57,-89.8l16.45 -59.53c194.37,-506.51 905.71,-1054.38 1477.59,-1206.93 1137.88,-303.44 1581.46,761.91 1274.02,1185.27 -11.91,204.48 -119.77,335.4 -170.21,516.85 161.12,7.99 108.72,-35.48 171.19,-204.98 38.77,-105.28 80.87,-204.09 101.86,-306.86 48.02,-234.94 0.94,-505.96 -5.95,-789.12l864.75 306.97c176.32,78.57 635.32,509.88 728.77,653.22 200.01,306.82 234.47,223.63 376.84,455.64 3.13,5.13 44.33,79.54 47.54,85.97 192.46,382.16 111.03,568.31 119.69,832.08 395.36,-551.67 -560.37,-3052.31 -2884.57,-3074.75 -875.17,-8.42 -1117.83,233.93 -1621.01,389.96z"/>
   <path class="fil6" d="M13550.4 16346.34l14.96 204.56c-4.55,264.32 27.88,537.06 -11.99,803.57 -41.35,276.66 -195.15,238.39 -93.17,658.67 246.78,49.54 52.33,157.32 486.66,144.2 419.68,-587 2.11,-471.27 205.1,-1502.34 19,23.57 505.49,55.33 559.62,836.35 54.59,787.16 -99.56,1063 -99.24,1393.23 111.54,-117.85 26.94,-36.42 84.79,-184.11 93.09,-237.49 -77.74,-85.42 136.13,-199.43 114.64,-574.58 52.21,-1060.49 -82.83,-1583.8 -103.28,-129.75 -285.82,-459.16 -587.27,-390.39 -294.16,67.13 -205.34,425.17 -278.03,735.62 44.73,77.78 33.37,49.51 66.51,166.61 62.78,222.06 62.7,353.89 -78.29,524.29 -146.05,2.82 -178.36,-26.91 -277.87,-73.47 -29.18,-237.02 23.85,-489.24 111.34,-661.25 -19.35,-195.55 25.26,-571.49 -38.89,-779.92 -6.7,-21.74 -29.53,-74.88 -38.89,-92.39 -39.28,-73.55 -20.48,-42.53 -65.13,-88.82l-13.51 88.82z"/>
   <path class="fil6" d="M17134.72 12072.03c208.94,-91.61 125.52,-140.13 357.8,-165 41.83,-65.68 -30.47,-54.09 124.31,-85.73 16.68,-3.41 211.29,7.83 226.64,8.46 59.61,120.86 283.94,399.24 29.02,507.96 -29.29,95.91 11.95,6.85 -53.14,120.19 -6.7,11.67 -30.9,45.43 -38.31,58.04 -47.11,80.45 1.02,-19.69 -58.66,109.27 259.73,-17.27 370.76,-385.92 358.19,-670.88l-162.92 -141.66c-182.11,-22.79 -299.92,-67.4 -483.21,-8.07 -14.02,4.51 -166.14,76.96 -175.93,84.05 -146.2,105.86 -94.07,73.04 -123.79,183.37z"/>
   <path class="fil6" d="M9812.67 12448.12c-151.13,42.38 -196.33,171.78 -329.41,241.1 -123.84,64.5 -270,65.05 -431.9,54.16l-142.21 -84.51 13.2 -433.79c-85.03,56.36 -91.57,-13.71 -108.64,210.86 -17.08,225 71.9,395.48 326.82,416.16 320.45,25.97 507.57,-164.29 667.05,-274.5l5.09 -129.48z"/>
   <path class="fil6" d="M13586 24462.71l-93.02 187.44c-100.81,-48.48 -35.56,2.51 -95.95,-87.29 -3.53,-5.25 -10.61,-19.86 -13.24,-24.6 -1.92,-3.6 -6.54,-16.72 -7.67,-19.58 -16.45,-41.67 -66.54,-4.39 8.02,-17.55 16.1,-129.32 -6.58,-58.78 38.03,-168.32 -147.25,38.77 -58.16,2.23 -177.76,67.28 -29.77,190.49 59.17,620.44 375.82,689.72 -12.18,-104.17 3.09,-147.41 -52.05,-248.89 -83.27,-153.17 56.71,41.32 -119.02,-102.02l136.84 -276.19z"/>
   <path class="fil6" d="M9283.84 11870.61c169.26,-16.49 614.13,-132.22 627.29,259.26 0.39,11.75 -13.31,116.91 -16.64,124.7 -89.18,209.96 5.91,30.51 -111.94,110.95l3.57 -15.54 26.55 98.14 100.3 -23.65c270.51,-850.14 -510.9,-734.61 -629.13,-553.86z"/>
   <path class="fil6" d="M15870.14 16534.53c77.86,78.01 73.39,-119.93 59.72,140.79 -181.76,90.63 -309.04,185.76 -379.18,375.08 281.67,-108.29 107.78,-122.23 303.83,-277.4 188.26,-149.02 162.96,-48.14 176.52,-288.72 -57.11,-13.12 -133.24,-32.66 -180.59,-48.53l19.7 98.78z"/>
   <path class="fil6" d="M13263.13 24067.7l5.71 5.88 4.82 75 483.45 20.17c-79.82,-121.73 -207.46,-140.64 -352.01,-178.87 -100.54,88.87 -62.67,39.72 -141.97,77.82z"/>
   <path class="fil6" d="M14387.57 25146.76c-1.52,-196.69 -14.57,-282.14 -212.89,-258.13 -69.56,220.26 15.04,246.5 212.89,258.13z"/>
   <path class="fil6" d="M11383.59 24967.89c70.03,-20.48 142.76,30.43 119.77,-195.62 -6.86,-67.13 -20.76,-65.64 -31.88,-89.65 -335.45,186.31 -90.36,282.38 -87.89,285.27z"/>
   <path class="fil6" d="M13960.92 24359.2c17.74,-153.91 30.51,-73.71 56.79,-228.33l-144.68 -8.77 -33.33 177.49c51.97,72.97 -85.61,54.25 121.22,59.61z"/>
   <path class="fil6" d="M17647.1 24522.28l46.69 23.74 -34.74 122.42c64.81,-49.46 77.03,-18.25 120.39,-134.1 84.08,-224.64 -23.54,-157.44 -38.54,-167.89l-93.8 155.83z"/>
   <path class="fil6" d="M13724.68 24736.51c130.34,-17.98 76.41,15 128.46,-41.51 -68.58,-148.51 -38.38,-217.95 -138.64,-184.78l10.18 226.29z"/>
   <path class="fil6" d="M16268.95 23128.78l-36.89 -7.8 49.93 167.08 146.87 -130.73c-36.97,-26.83 -9.29,-50.05 -159.91,-28.55z"/>
   <path class="fil6" d="M15404.04 17201.46c107.31,-77.04 28.24,12.53 95.25,-75.24 65.09,-85.26 1.8,16.68 53.38,-105.16 -120.78,38.66 -105.7,69.01 -148.63,180.4z"/>
   <path class="fil7" d="M13460.2 18013.14c-101.98,-420.28 51.82,-382.01 93.17,-658.67 39.87,-266.51 7.44,-539.25 11.99,-803.57l-159.75 -207.22c-81.94,-77.78 -18.65,20.32 -52.17,-66.7l-38.15 -140.83c-526.91,-26.09 -900.34,-79.66 -1325.67,158.61l-18.64 508.39c-92.55,2.31 -469.66,-7.67 -479.49,37.09 -3.64,16.69 -18.41,21.07 -23.26,27.57 -119.69,159.95 -155.17,86.6 -66.54,629.81 23.89,146.35 29.88,203.45 56.24,347.27 43.94,239.84 79.26,191.74 114.39,325.49 88.83,338.03 -65.2,47.9 148.91,524.68 3.84,8.54 9.67,19.59 13,28.44l122.66 889.11c109.31,4.54 252.69,-15.59 331.45,-19.31 72.92,-3.45 222.14,26.47 363.84,30.74l61.8 -603.4c86.08,-167.47 101,-103.01 174.04,-265.38 90.08,-200.21 -39.83,108.09 22.99,-67.83 28.16,-78.88 1.61,-50.45 42.81,-123.96 78.84,6.82 65.95,-18.88 142.75,76.37l91.06 171.82c90.71,215.95 13.67,311.98 203.26,634.81 6.62,11.28 27.89,41.4 34.08,52.48 75.58,135.35 3.25,-39.56 40.45,81.07l98.23 1072.52c-1.1,44.37 -5.8,185.83 -0.94,222.49 6.54,49.27 2.19,37.44 16.33,84.28 30.59,101.36 11.16,50.64 57.92,112.91 252.65,-114.4 183.53,-560.52 288.96,-798.33 86.98,-196.25 178.86,-480.19 177.61,-717.96 -1.22,-231.77 8.34,-732.45 -51.5,-929.21 -34.08,-111.97 6.11,-67.67 -76.37,-126.34 66.97,-200.52 46.29,109.19 82.99,-245.33 -237.14,-35.48 -378.92,-46.01 -498.45,-241.91z"/>
   <path class="fil7" d="M5082.25 19220.65c135.31,26.83 738.44,598.08 1143.44,877.24l1225.61 804.47c179.8,34.04 443.06,194.53 641.51,278.74 235.77,100.06 406.49,175.14 626.47,261.34l-9.94 -1293.91c-60.75,83.42 -73.56,119.53 -78.65,285.43 -3.56,116.79 -5.71,128.54 28.01,217.95 -79.78,87.92 -40.3,8.03 -63.92,135.47 -35.64,192.29 59.29,96.5 -17.7,398.42 -138.61,5.75 -746.04,-274.74 -903.41,-351.11 -75.58,-36.7 -160.77,-108.45 -238.04,-148.43 -226.99,-117.46 -89.02,13.47 -276.85,-158.93 -97.83,-89.77 -114.63,-97.95 -235.3,-163.94 -570.27,-311.87 -632.23,-389.49 -1135.02,-757.21l-948.79 -930.07c-83.15,-100.89 -91.1,-175.26 -269.49,-120.43 26.16,260.44 427.32,389.17 512.07,664.97z"/>
   <path class="fil7" d="M6951.21 2157.47c-209.29,212.7 -455.56,324.98 -696.15,492.6 -146.82,102.3 -228.36,173.27 -324.98,250.81 -127.01,101.99 -190.65,167.12 -327.53,227.31 -105.32,148.2 -376.14,349.74 -553.63,517.09 -101.12,95.32 -163.78,161.63 -264.4,262.13 -107.5,107.34 -194.57,157.4 -218.22,305.95 214.03,42.65 176.98,18.6 507.14,-372.69 170.01,-201.42 -22.72,-33.25 129.51,-125.37 113.97,-68.96 17.43,41.48 165,-102.33 173.62,-169.19 -60.08,-10.77 315.35,-301.92 163.63,-126.93 73.87,-130.81 296.83,-271.96 140.52,-88.98 69.52,-36.69 173.73,-137.62 124.86,-121.02 233.58,-129.87 379.15,-232.24 220.3,-154.86 99.91,-127.99 333.76,-234.32 226.88,-103.16 298.55,-122.75 370.22,-277.68l-78.95 -33.95c-271.61,-47.63 18.8,8.69 -206.83,34.19z"/>
   <path class="fil7" d="M3694.62 5280.27l180.98 8.81c40.61,-76.25 44.25,-83.97 76.6,-153.29 149.61,-320.6 251.01,-160.88 327.89,-351.42 51.65,-127.95 -84.21,56.67 34.46,-119.17 4,-5.92 13.83,-15.55 18.64,-21.39 107.04,-129.16 266.87,-148.04 233.11,-430.45 -119.53,33.21 -57.73,-12.14 -168.56,99.43 -162.97,164.06 -659.85,799.62 -703.12,967.48z"/>
   <path class="fil7" d="M4013.65 18049.01c137.62,67.05 169.31,135.86 265.46,261.46 43.66,57.06 69.98,101.83 114.94,146.44 119.77,118.7 48.29,65.13 176.13,98.77l19.15 -169.58c-137.27,-69.36 -117.42,-109.23 -322.64,-327.73 -131.28,-139.78 -39.71,-108.17 -143.1,-250.18 -72.77,-99.99 -208.75,-221.59 -248.5,-330.35l-181.06 7.83c81.82,275.4 266.55,315.27 319.62,563.34z"/>
   <path class="fil8" d="M9812.67 12448.12l-5.09 129.48c-159.48,110.21 -346.6,300.47 -667.05,274.5 -254.92,-20.68 -343.9,-191.16 -326.82,-416.16 17.07,-224.57 23.61,-154.5 108.64,-210.86 170.13,-287.31 159.01,-184.03 361.49,-354.47 118.23,-180.75 899.64,-296.28 629.13,553.86l-100.3 23.65zm-1153.54 -1203.67c-602.78,409.26 -1658.81,883.03 -2197.79,2.03 -12.14,-5.87 -24.36,-17.82 -32.31,-24.44 -175.34,-146.08 -86.51,-130.57 -198.01,-148.55 -108.96,-17.58 -140.09,47.51 -163.24,134.61 -55.22,207.81 22.87,409.54 27.14,574.97 5.21,199.94 -34.7,108.64 -2.54,277.83 93.6,492.61 97.83,320.25 170.91,438.41 52.13,84.28 33.13,109.82 36.62,214.31 77.42,284.45 723.87,778.82 1077.17,958.39 978.21,497.19 2310.93,401.16 3147.13,-291.46 254.37,-210.67 843.76,-756.15 881.9,-1118.65 -30.12,-540.35 156.74,-158.97 -32.07,-1051.41 -77.51,-366.46 -11.52,-179.25 -284.85,-543.17 -296.43,-394.7 -54.32,-170.6 -234.86,-380.44 -148.08,-172.05 -127.64,-40.58 -297.97,-272.86 -199.38,-271.92 -691.56,-518.77 -886.68,-522.69 -94.34,161.09 -69.2,351.78 -127.95,591.54 -88.9,362.74 -521.7,1078.82 -882.6,1161.58z"/>
   <path class="fil8" d="M17722.38 12625.22l-34.04 53.54c-92.27,265.57 -364.42,217.25 -635.67,215.99 -152.67,-196.33 -391.69,-473.34 -16.96,-866.31 181.76,-190.58 640.1,-508.86 881.94,-215.76l162.92 141.66c12.57,284.96 -98.46,653.61 -358.19,670.88zm-1031.12 -1338.16c-179.06,438.44 -1985.75,936.96 -2284.42,-200.21 -118.9,-452.9 40.18,-665.36 69.83,-1037.5 -6.34,4.93 -137.93,85.34 -154.62,97.05 -184.15,129.04 -504.75,616.56 -562.08,759.39 -95.6,238.2 -64.82,801.46 -65.53,1051.02 -1.6,538.7 47.16,379.58 41.2,655.61 28.24,164.25 175.73,288.48 264.72,386.74 74.84,48.61 36.11,9.52 94.54,68.89 53.77,54.6 17.04,20.64 62.15,101.44 345.55,213.29 386.79,427.2 1162.16,688.31 1040.37,350.29 2190.86,24.36 2959.34,-677.78 481.05,-439.58 456.73,-651.34 770.09,-1126.05l43.59 -290.71 -122.98 -691.96 -285.9 -617.97c-224.1,-306.54 -6.66,-214.23 -426.5,-445.3l-501.07 -370.3c-84.55,132.77 -104.96,347.51 -167.78,522.77 -147.18,410.71 -575.4,1091 -896.74,1126.56z"/>
   <path class="fil8" d="M16261.63 24798.63c0.43,0.47 57.21,-23.89 66.85,116.94 16.92,247.52 -11.05,76.37 -66.85,128.42 -62.43,-109.97 -74.46,-134.06 0,-245.36zm-2086.95 90c198.32,-24.01 211.37,61.44 212.89,258.13 -197.85,-11.63 -282.45,-37.87 -212.89,-258.13zm-5907.39 -78.06c26.16,-48.88 6.5,-14.96 14.61,-71.16l157.28 -169.58 99.63 111.03c48.65,37.91 31.18,16.57 89.81,55.02 8.38,5.49 27.53,34.16 33.8,24.36 6.65,-10.37 23.85,17.43 35.09,26.99l38.89 196.68c-9.4,9.32 -27.38,13.47 -36.9,14.81 -199.07,27.88 -71.16,-29.65 -263.88,-26.91l-214 -19.82c-32.39,-251.86 -9.4,-74.84 45.67,-141.42zm3775.48 -340.45l107.82 124.93c72.45,119.22 168.01,320.83 179.09,463.16 -210.54,-42.07 -75.74,-46.88 -394.62,-188.62 -135.74,-60.31 -67.24,-24.91 -144.04,-86.75 54.95,-196.17 61.29,-252.1 251.75,-312.72zm-1050.19 229.22c1.25,15.28 -10.89,116.4 -15.12,131.09 -32.82,113.34 -31.8,63.8 -77.31,124.66 -0.28,-0.28 -101.09,13.9 -130.07,-211.1 -1.99,-15.59 0.36,-124.19 4.23,-140.64 34.47,-146.28 12.85,-44.29 81.9,-127.83 72.1,56.91 115.77,-25.07 136.37,223.82zm391.01 268.55c-2.47,-2.89 -247.56,-98.96 87.89,-285.27 11.12,24.01 25.02,22.52 31.88,89.65 22.99,226.05 -49.74,175.14 -119.77,195.62zm-835.22 -9.51c-180.74,-23.82 -329.02,-21.9 -278.53,-246.46 30.31,-135 134.25,-190.42 257.93,-236.09l20.6 482.55zm1959.47 -418.59c100.15,-18.88 -1.29,1.96 87.93,-26.87l328.94 -87.96c10.42,222.1 31.49,426.34 88.24,590.95 -181.3,-21.82 -215.57,-50.95 -347.9,-153.88 -173.54,-135 -162.34,-86.79 -157.21,-322.24zm914.33 -206.98l180.12 -9.6 -16.29 139.5 -136.84 276.19c175.73,143.34 35.75,-51.15 119.02,102.02 55.14,101.48 39.87,144.72 52.05,248.89 -316.65,-69.28 -405.59,-499.23 -375.82,-689.72 119.6,-65.05 30.51,-28.51 177.76,-67.28zm-4288.22 92.85c63.96,-85.06 -23.02,-5.09 96.27,-52.4 127.6,106.76 155.01,213.84 0,366.38 -103.43,-59.72 -211.88,-160.22 -96.27,-313.98zm7456.19 -38.22c38.49,-125.72 145.37,-253.39 242.78,-303.72 107.03,168.05 69.12,352.79 27.65,554.65 -140.06,-16.57 -27.77,31.37 -145.81,-86.48 -121.92,-121.72 -55.77,-21.3 -124.62,-164.45zm-284.57 -45.27c134.14,49.34 66.07,-105 105.04,151.09 -147.03,-37.13 -175.03,-2.97 -105.04,-151.09zm263.69 -255.94c-39.36,-85.62 -51.03,101.28 -22.71,-113.58 28.43,-215.91 177.61,-205.85 204.35,-214.38 -56.39,271.52 -73.31,264 -181.64,327.96zm-5413.84 534.71c-67.17,-148.4 -322.75,-634.43 -115.96,-840.63 138.44,-138.01 328.31,-39.63 427.71,-17.11 161.83,36.74 93.33,-101.44 370.85,-5.91 93.75,285.11 24.32,418 -146.83,584.88l-115.61 -192.81c-145.97,-182.55 -267.38,-77.78 -443.7,-314.53l0.9 187.44c180.71,90.08 192.03,80.29 347.74,213.96 -3.91,184.19 23.35,183.95 -95.36,284.13l-229.74 100.58zm-2534.24 -1507.79l72.41 264.05c165.9,172.71 59.57,202.36 89.1,651.61 -139.39,-78.64 -5.09,-48.05 -124.58,-62.97l-40.15 5.05c-2.19,0.35 -12.57,5.95 -14.17,6.42 -1.33,0.39 -9.75,11.24 -10.62,7.29 -0.78,-3.53 -4.97,8.3 -8.69,7.44 -54.99,-130.03 -61.41,-92.16 -86.04,-239.88l-146.01 155.16c-9.79,-10.41 -29.06,28.05 -44.88,40.58 0.04,-186.7 15.04,-193.59 -41.56,-307.52l-177.17 1238.34 -134.22 -11.83 -55.18 -603.17 47.35 -6.89 -229.47 99.98c-71.79,-36.81 -71.9,-5.99 -115.38,-52.83l92.28 335.48 183.52 466.8c-637.52,26.01 -296.67,-222.69 -558.17,-514.19l9.28 530.29 -345.43 0 0 55.77 10937.58 -5.21 0 -55.77 -665.68 -0.39 -0.35 -70.81 404.1 -377.51 34.74 -122.42 -46.69 -23.74 -657.06 350.41 42.14 -56.17 -123.4 -1196.23c-12.81,-82.72 -16.45,-106.76 -41.01,-186.23l-12.96 -97.59c-73.04,-29.38 -62.94,2.93 -99.48,-40.66l9.48 135.86 -260.84 375.98 -58.51 -1.88 -203.77 -467.58 -166.68 324.79 -122.16 -5.45 -74.96 -590.08 -147.45 690.66 58.98 32.78 400.69 171.89 45.31 134.26 -502.43 132.14c-170.88,-1.96 -63.76,23.65 -159.64,-4.08 -20.13,-5.79 -81.3,-47.31 -95.44,-62.7l-9.87 405.35 -285.9 52.17c71.16,-243.21 68.73,-94.82 197.7,-274.54 -256.53,29.14 -172.48,78.76 -422.07,155.05 -36.03,-81.11 -98.23,-197.04 -121.45,-230.05 -142.05,-201.66 -71.2,16.13 -112.25,-281.36l570.74 64.35c29.26,-59.3 6.31,-134.61 66.66,-233.03l-6.97 -236.63c-66.7,-111.34 -592.55,-849.55 -112.71,-926.08 -270.12,-273.64 -329.61,335.09 -291.9,620.6 29.57,175.26 21.7,18.09 64.23,174.36 8.89,5.64 223.36,112.24 190.58,270.15 -26.91,129.6 -157.95,125.37 -305.41,127.29 -8.22,-13.24 -21.81,-29.89 -25.33,-39.36 -5.76,-15.47 -46.1,-68.89 5.05,-107.63l-81.35 -6.89 4.78 -13.47c-60.51,99.75 24.4,29.96 -100.69,121.02 -147.18,107.19 -204.24,-19.12 -252.88,-73.91 -68.39,-77.07 32.42,-14.64 -70.42,-80.68l-4.39 9.64c52.6,51.62 35.45,1.64 84.17,86.79 71.94,125.71 39.79,184.58 -3.53,286.41l-97.64 -33.96c-8.85,-6.89 -29.06,-80.17 -28.59,-78.72l-119.06 36.27 -310.41 -55.19c-200.37,-85.65 -123.25,-368.49 -16.37,-500.2l20.99 -123.84 -154.35 34.03c-147.22,189.91 -129.87,175.93 -164.02,497.78 64.08,114.99 43.87,224.61 61.96,161.75 1.76,-6.11 5.45,21.93 9.32,32.55l216.5 119.68 144.68 8.77c-26.28,154.62 -39.05,74.42 -56.79,228.33 22.4,221.99 91.13,70.11 117.61,357.73 -5.92,2.7 -152.78,75.82 -155.41,76.29 -265.53,45.43 -154.97,-19.19 -198.44,-56.71l-10.18 -226.29c28,-130.61 23.34,-95.48 46.33,-210.63 -9.64,-5.67 -23.27,-11.94 -30.16,-14.6l-97.17 -33.49c-198.87,-53.42 -284.41,-34.86 -483.32,-6.46 57.69,-272.82 14.37,-105.78 118.66,-171.46l-5.71 -5.88 -5.72 -219.59c-7.17,-159.79 7.28,-177.3 -73.59,-263.03 -105,-29.69 -213.29,-61.02 -298.47,-181.92 -65.84,-93.48 -99.99,-236.39 -56.59,-298.43 -31.14,414.12 69.98,333.21 258.68,579.79 41.51,118.98 -43.09,333.76 -152.43,443.53 -97.87,98.19 -22.29,27.69 -116.24,92 -244.82,164.57 -315.47,90.04 -568.24,44.02 3.53,-162.96 12.34,-185.83 81.43,-287.62 123.79,-182.35 50.6,-2.62 142.67,-213.41l-168.4 109.9 -219.29 118.9c-21.69,-316.99 -196.44,-383.93 -515.32,-328.31 -503.38,87.84 -309.32,-267.42 -752.54,180.07l-651.85 -74.06c160.92,34.12 389.09,35.13 505.26,155.29l-732.02 826.02 2.82 -579.71 116.16 0.58c-713.38,-120.86 505.8,-786.14 580.41,-939.31 -230.64,14.92 -821.12,374.76 -905.48,554.8 -457.12,975.82 -358.74,-249.05 -430.45,-347.43l-479.22 -61.92 -26.59 -2016.29 -176.94 1751.58z"/>
   <path class="fil9" d="M12306.23 23872.94l168.4 -109.9c-92.07,210.79 -18.88,31.06 -142.67,213.41 -69.09,101.79 -77.9,124.66 -81.43,287.62 252.77,46.02 323.42,120.55 568.24,-44.02 96.85,-426.18 -96.23,-669.63 -104.69,-1151.04 -3.33,-189.59 -36.97,-226.6 -37.79,-356.31 -0.98,-151.41 23.11,-118.63 38.3,-162.26 106.96,-307.05 8.58,-387.57 104.41,-642.81l28.05 -59.68c144.32,-366.23 -66.23,-348.64 162.53,-435.2 14.92,32.04 7.4,31.57 12.37,82.05 0.67,6.7 1.45,19.94 2.08,27.46l14.02 359.88c-7.56,648.95 43.47,792.68 52.44,1187.34 7.79,342.34 47.31,237.06 93.33,515.6 80.87,85.73 66.42,103.24 73.59,263.03l297.69 55.34 30.15 -95.33c34.15,-321.85 16.8,-307.87 164.02,-497.78 32.16,-55.85 -34.77,-64.66 118.48,-128.06 170.99,-70.77 319.62,35.28 411.73,110.16 222.92,181.22 109.66,178.99 214.27,355.93 6.89,11.63 36.62,48.6 42.77,56.67l265.92 -22.36 -4.78 13.47c82.91,-75.27 -9.12,-16.61 129.68,-83.62 48.32,-23.3 33.68,-3.87 89.06,-32.38l-2.28 -127.56c-42.53,-156.27 -34.66,0.9 -64.23,-174.36 -268.7,-172.52 -183.87,-764.76 467.04,-788.18 -9.83,-111.78 -26.44,-134.96 -68.19,-222.22 -141.73,-296.08 -17.15,-436.68 -15.82,-823.9 0.94,-266.75 -42.26,-321.93 -47.23,-570.12 -5.17,-258.17 57.81,-372.41 35.83,-576.65l-215.36 124.46c-212.23,64.98 -529.34,24.4 -598.59,-316.95 -54.28,-260.13 -29.84,-374.73 3.37,-635.41 12.18,-95.4 21.35,-204.75 46.02,-300.07 30.39,-117.57 65.76,-126.31 55.38,-284.61 -0.32,-330.23 153.83,-606.07 99.24,-1393.23 -54.13,-781.02 -540.62,-812.78 -559.62,-836.35 -202.99,1031.07 214.58,915.34 -205.1,1502.34 -434.33,13.12 -239.88,-94.66 -486.66,-144.2 119.53,195.9 261.31,206.43 498.45,241.91 -36.7,354.52 -16.02,44.81 -82.99,245.33 82.48,58.67 42.29,14.37 76.37,126.34 59.84,196.76 50.28,697.44 51.5,929.21 1.25,237.77 -90.63,521.71 -177.61,717.96 -105.43,237.81 -36.31,683.93 -288.96,798.33 -46.76,-62.27 -27.33,-11.55 -57.92,-112.91 -14.14,-46.84 -9.79,-35.01 -16.33,-84.28 -4.86,-36.66 -0.16,-178.12 0.94,-222.49l-98.23 -1072.52c-37.2,-120.63 35.13,54.28 -40.45,-81.07 -6.19,-11.08 -27.46,-41.2 -34.08,-52.48 -189.59,-322.83 -112.55,-418.86 -203.26,-634.81l-91.06 -171.82c-76.8,-95.25 -63.91,-69.55 -142.75,-76.37 -41.2,73.51 -14.65,45.08 -42.81,123.96 -62.82,175.92 67.09,-132.38 -22.99,67.83 -73.04,162.37 -87.96,97.91 -174.04,265.38l-61.8 603.4c-141.7,-4.27 -290.92,-34.19 -363.84,-30.74 -78.76,3.72 -222.14,23.85 -331.45,19.31l-122.66 -889.11c-3.33,-8.85 -9.16,-19.9 -13,-28.44 -214.11,-476.78 -60.08,-186.65 -148.91,-524.68 -35.13,-133.75 -70.45,-85.65 -114.39,-325.49 -26.36,-143.82 -32.35,-200.92 -56.24,-347.27 -88.63,-543.21 -53.15,-469.86 66.54,-629.81 4.85,-6.5 19.62,-10.88 23.26,-27.57 9.83,-44.76 386.94,-34.78 479.49,-37.09l18.64 -508.39c425.33,-238.27 798.76,-184.7 1325.67,-158.61l38.15 140.83c33.52,87.02 -29.77,-11.08 52.17,66.7l159.75 207.22 -14.96 -204.56c-124.9,-188.18 -95.05,-214.7 -303.53,-386.59 -253.47,-83.15 -580.69,-39.44 -852.56,-37.32 -234.25,1.84 -935.48,121.21 -1126.37,211.8 -169.43,80.4 -5.91,5.21 -136.88,86.63 -279.75,173.89 -260.48,99.36 -316.92,366.22l-67.83 3452.81c17.94,237.73 60.82,365.52 218.34,231.62 228.49,-194.3 -130.38,77.58 60.82,-57.42 6.82,-4.86 18.57,-10.89 25.89,-15.55l58.04 -29.76c208.16,-127.48 181.18,-140.48 234.17,-272.59 136.68,-340.73 82.95,-908.84 71.28,-1318.62 165.54,101.63 168.83,328.55 198.99,631.76 25.81,259.7 27.92,573.21 -49,803.22l-178.62 486.3c-122.16,400.38 -213.88,429.4 -203.54,903.21 4.58,210.39 18.13,226.84 77.54,382.01 140.64,367.4 62.94,260.68 270.32,600.86l738.79 1452.49c6.39,-8.82 21.23,28.7 36.9,35.52z"/>
   <path class="fil9" d="M11155.42 24620.94l229.74 -100.58c118.71,-100.18 91.45,-99.94 95.36,-284.13 -155.71,-133.67 -167.03,-123.88 -347.74,-213.96l-0.9 -187.44c176.32,236.75 297.73,131.98 443.7,314.53l115.61 192.81c171.15,-166.88 240.58,-299.77 146.83,-584.88 -277.52,-95.53 -209.02,42.65 -370.85,5.91 -99.4,-22.52 -289.27,-120.9 -427.71,17.11 -206.79,206.2 48.79,692.23 115.96,840.63z"/>
   <path class="fil9" d="M15354.5 23583.71c141.11,122.15 46.22,-26.83 110.33,183.33 -11.71,-242.74 -32.39,-305.99 67.83,-457.72 151.02,-228.64 -27.38,162.03 50.52,-64.15 -92.78,-77.23 -97.13,-27.72 -120.27,-178.47l43.16 -226.49c-13.59,-5.4 -81.5,-25.18 -90.2,-30.43 -104.1,-62.66 -13.47,62.9 -47.7,-48.44 -27.65,-89.96 8.18,-20.17 49.31,-95.92l-175.69 -7.79c-479.84,76.53 46.01,814.74 112.71,926.08z"/>
   <path class="fil9" d="M13882.63 23400.15c-106.88,131.71 -184,414.55 16.37,500.2l310.41 55.19c-102.53,-178.83 -154.26,-71.68 -288.75,-277.91l410.24 89.53c54.01,-40.5 19.82,10.22 43.16,-108.41l4.39 -9.64c-155.91,-205.77 -160.69,-375.35 -495.82,-248.96z"/>
   <path class="fil9" d="M12507.84 24539.79c-5.13,235.45 -16.33,187.24 157.21,322.24 132.33,102.93 166.6,132.06 347.9,153.88 -56.75,-164.61 -77.82,-368.85 -88.24,-590.95l-328.94 87.96c-89.22,28.83 12.22,7.99 -87.93,26.87z"/>
   <path class="fil10" d="M8701.62 17308.1l7.72 2840.43 9.94 1293.91 -98.1 1670.71 176.94 -1751.58 26.59 2016.29 479.22 61.92c71.71,98.38 -26.67,1323.25 430.45,347.43 84.36,-180.04 674.84,-539.88 905.48,-554.8 -74.61,153.17 -1293.79,818.45 -580.41,939.31l-116.16 -0.58 -2.82 579.71 732.02 -826.02c-116.17,-120.16 -344.34,-121.17 -505.26,-155.29l651.85 74.06c443.22,-447.49 249.16,-92.23 752.54,-180.07 318.88,-55.62 493.63,11.32 515.32,328.31l219.29 -118.9c-15.67,-6.82 -30.51,-44.34 -36.9,-35.52l-738.79 -1452.49c-207.38,-340.18 -129.68,-233.46 -270.32,-600.86 -59.41,-155.17 -72.96,-171.62 -77.54,-382.01 -10.34,-473.81 81.38,-502.83 203.54,-903.21l178.62 -486.3c76.92,-230.01 74.81,-543.52 49,-803.22 -30.16,-303.21 -33.45,-530.13 -198.99,-631.76 11.67,409.78 65.4,977.89 -71.28,1318.62 -52.99,132.11 -26.01,145.11 -234.17,272.59l-58.04 29.76c-7.32,4.66 -19.07,10.69 -25.89,15.55 -191.2,135 167.67,-136.88 -60.82,57.42 -157.52,133.9 -200.4,6.11 -218.34,-231.62l67.83 -3452.81c56.44,-266.86 37.17,-192.33 316.92,-366.22 130.97,-81.42 -32.55,-6.23 136.88,-86.63 190.89,-90.59 892.12,-209.96 1126.37,-211.8 271.87,-2.12 599.09,-45.83 852.56,37.32 -163.51,-293.69 -210.7,51.66 -198.56,-393.84l532.36 39.91c33.41,35.64 35.72,108.17 43.94,128.19 356.75,68.42 868.9,163.59 1211.98,285.19 132.85,47.12 952.64,424.5 1013.85,416.55 47.35,15.87 123.48,35.41 180.59,48.53 8.02,6.03 80.91,13.39 137.93,176.79 29.3,83.93 17.43,78.48 15.82,178.23 -112.87,-60.19 -176.86,-25.77 -377.11,150.67l-151.68 157.44c-68.77,79.62 -56.63,69.01 -115.93,153.25 -431.98,613.82 -131.24,1114.93 -81.81,1989.82 51.93,918.83 -143.93,572.86 -136.73,1006.68 21.98,204.24 -41,318.48 -35.83,576.65 4.97,248.19 48.17,303.37 47.23,570.12 -1.33,387.22 -125.91,527.82 15.82,823.9 41.75,87.26 58.36,110.44 68.19,222.22 -650.91,23.42 -735.74,615.66 -467.04,788.18 -37.71,-285.51 21.78,-894.24 291.9,-620.6l175.69 7.79c-41.13,75.75 -76.96,5.96 -49.31,95.92 34.23,111.34 -56.4,-14.22 47.7,48.44 8.7,5.25 76.61,25.03 90.2,30.43l-43.16 226.49c23.14,150.75 27.49,101.24 120.27,178.47 -77.9,226.18 100.5,-164.49 -50.52,64.15 -100.22,151.73 -79.54,214.98 -67.83,457.72 -64.11,-210.16 30.78,-61.18 -110.33,-183.33l6.97 236.63c56.67,182.62 86.67,204.59 197,293.15 113.5,-25.27 58.16,-38.42 163.47,-105.79l11.05 221.48 502.43 -132.14 -45.31 -134.26 -400.69 -171.89 -58.98 -32.78 147.45 -690.66 74.96 590.08 122.16 5.45 166.68 -324.79 40.3 -50.13 -49.93 -167.08 70.81 -6052.76c135.82,-446.63 138.05,-285.98 -72.5,-659.29 -193.82,-49.86 -607.51,-330.2 -896.35,-454.62 -1603.19,-690.78 -3989.71,-686.83 -5647.77,-30.08 -1683.32,666.77 -994.54,922.32 -984.63,1383.87z"/>
   <path class="fil10" d="M16654.33 7017.17c51.65,37.4 34.34,21.03 81.77,66.26 51.03,48.65 19.86,20.1 64.78,71.64 40.57,46.52 49.93,62.31 101.83,117.92 74.06,79.35 148.19,159.83 245.16,238.16 180.16,145.57 360.2,261.62 556.96,365.4 395.29,208.59 954.83,357.73 1465.88,428.5 731.04,101.2 950.99,177.49 975,-84.79 25.18,-275.01 -324.91,-219.71 -1079.84,-521.75 -116.91,-46.76 -207.26,-87.3 -331.45,-147.38 -135.12,-65.32 -189.99,-80.01 -273.05,-188.02 -347.47,-35.68 -1244.49,-938.81 -1518.72,-1359.79 -114.98,-176.55 -238.66,-426.81 -373.39,-547.24 -461.47,-42.85 -409.93,411.62 -305.01,741.73 162.34,510.67 329.84,643.63 390.08,819.36z"/>
   <path class="fil10" d="M5491.67 7805.31c-72.29,64.7 0.83,17.19 -113.85,74.65 -293.57,147.02 -728.45,33.01 -533.49,464.45 374.49,133.86 1476.8,-130.97 1876.59,-259.54 943.94,-303.53 1054.07,-629.69 1388.89,-831.5 86.79,-199.31 1182.13,-1585.18 373.31,-1812.29 -219.94,41.75 -1615.76,2349.78 -2991.45,2364.23z"/>
   <path class="fil10" d="M12818.77 24220.05c93.95,-64.31 18.37,6.19 116.24,-92 109.34,-109.77 193.94,-324.55 152.43,-443.53 -188.7,-246.58 -289.82,-165.67 -258.68,-579.79 -43.4,62.04 -9.25,204.95 56.59,298.43 85.18,120.9 193.47,152.23 298.47,181.92 -46.02,-278.54 -85.54,-173.26 -93.33,-515.6 -8.97,-394.66 -60,-538.39 -52.44,-1187.34l-14.02 -359.88c-0.63,-7.52 -1.41,-20.76 -2.08,-27.46 -4.97,-50.48 2.55,-50.01 -12.37,-82.05 -228.76,86.56 -18.21,68.97 -162.53,435.2l-28.05 59.68c-95.83,255.24 2.55,335.76 -104.41,642.81 -15.19,43.63 -39.28,10.85 -38.3,162.26 0.82,129.71 34.46,166.72 37.79,356.31 8.46,481.41 201.54,724.86 104.69,1151.04z"/>
   <path class="fil10" d="M13749.27 23310.34l154.35 -34.03 -20.99 123.84c335.13,-126.39 339.91,43.19 495.82,248.96 102.84,66.04 2.03,3.61 70.42,80.68 48.64,54.79 105.7,181.1 252.88,73.91 125.09,-91.06 40.18,-21.27 100.69,-121.02l-265.92 22.36c-6.15,-8.07 -35.88,-45.04 -42.77,-56.67 -104.61,-176.94 8.65,-174.71 -214.27,-355.93 -92.11,-74.88 -240.74,-180.93 -411.73,-110.16 -153.25,63.4 -86.32,72.21 -118.48,128.06z"/>
   <path class="fil11" d="M8658.7 20651.91c-33.72,-89.41 -31.57,-101.16 -28.01,-217.95 5.09,-165.9 17.9,-202.01 78.65,-285.43l-7.72 -2840.43 -69.87 -57.57c-255.7,-99.52 -362.07,-402.81 -259.78,-711.7 100.5,-303.56 328.08,-354.28 468.72,-567.6l7.25 -546.15c-84.83,-62.82 -212.47,-60.59 -301.61,-62.31l-1.92 -260.72 -257.07 -5.01 -11.48 -256.17 -247.51 -3.02 -57.34 -349.27c-207.41,-85.41 -336.3,-54.94 -540.23,-167.82 -69.17,-38.26 -147.77,-87.57 -221.95,-127.48 -276.81,-149.06 -636.69,-525.23 -835.53,-786.49 -54.44,-71.52 -324.91,-338.19 -429.24,-600.9l-249.48 -709.62c-52.05,-186.07 -65.48,-278.22 -344.76,-303.88l-3.8 -384.43 -263.03 -10.66c-3.6,-204.94 37.91,-150.74 -68.3,-231.18l-144.87 -77.35c-200.56,-158.15 220.03,-117.46 -576.11,-130.07 50.21,-140.44 18.84,-39.43 92.71,-112.75 196.72,-195.23 3.76,90.78 57.88,-46.92l-92.19 -177.37 -1027.2 -15.75c1.49,-418.82 -45.28,-1192.79 81.73,-1568.76 73.16,-216.58 37.88,-239.42 67.13,-460.5 81.31,-613.74 935.48,-2266.83 1405.57,-2906.66 174.52,-237.49 352.87,-369.51 499.19,-610.41l236.86 -322.4c6.31,-6.78 15.16,-16.41 21.5,-23.07 6.31,-6.58 15.12,-16.37 21.51,-22.75 10.37,-10.34 35.28,-104.69 261.77,-132.22 29.29,-83.73 1.57,-18.13 41.55,-95.29 106.69,-205.89 100.3,-167.39 217.91,-256.76l721.18 -488.07 12.84 11.24c100.85,-262.12 831.5,-619.5 1158.79,-796.21 451.14,-243.56 803.38,-388.43 1331.12,-573.09 1675.18,-586.25 3237.52,-665.91 4980.18,-333.48l1475.94 413.42c619.31,291.34 1319.49,583.86 1879.54,1009.5l569.6 352.91c8.23,-337.68 -399.67,-453.92 -614.05,-569.61 -276.98,-149.37 -451.88,-264.12 -725.72,-417.73 -576.73,-323.49 -1044.43,-423.68 -1644.67,-683.8 -1124.64,-487.4 -2705.31,-395.17 -4117.34,-355.3 -1010.79,28.55 -2726.86,752.19 -3487.82,1158.99 -316.6,169.23 -1080.38,733.35 -1365.93,959.44l-1187.15 1014.55c-483.52,329.73 -602.94,885.2 -932.35,1387.09 -124.89,190.3 -342.8,529.89 -434.8,746.08 -166.45,391.01 -116.32,94.15 -225.43,345.66 -56.43,130.07 -43.86,310.46 -97.91,474.95 -97.01,294.98 -276.58,473.45 -298.12,882.45 -25.69,487.67 -135.94,608.73 -200.25,942.53 -135.5,703.31 -154.42,1335.42 -217.47,2060.94 -17.12,196.92 164.05,1997.77 176.59,2029.3 155.36,390.5 558.4,1272.45 618.32,1719.98 54.95,410.28 29.53,83.06 205.77,396.57 78.17,139.04 111.58,231.11 203.85,328.12 120.59,126.74 261.62,454.78 404.57,687.85 188.15,306.85 311.83,220.26 543.09,596.98 208.63,339.75 140.48,118.04 290.09,286.05 289.74,325.34 -34.07,183.1 -59.21,310.61 337.04,17 323.73,229.82 446.55,342.89 78.44,72.18 376.01,111.81 509.56,287.9 322.21,424.85 -202.48,116.67 411.15,405.89 194.69,91.81 315.16,263.03 441.23,359.02 319.77,243.45 908.84,409.86 1024.89,513.64 697.44,623.77 625.92,-365.6 682.44,637.56z"/>
   <path class="fil11" d="M16294.41 19595.14l115.65 767.27 296 -759.01c427.25,226.76 794.68,-318.72 1064.68,-429.63 447.69,-183.99 207.03,89.29 483.96,-305.4 160.3,-228.53 231.07,-188.74 505.69,-291.31 402.96,-150.51 874.69,-860.36 1096.13,-1269.82 210.55,-389.41 111.97,-125.92 389.1,-403.71 359.99,-360.82 360.19,-576.34 646.05,-935.36 419.06,-526.37 74.02,-550.45 360,-1045.69 123.29,-213.52 271.92,-1002.95 340.14,-1241.9 143.42,-502.12 137.23,-39.94 211.68,-576.57 41.13,-296.44 98.54,-313.55 121.45,-667.72 31.61,-488.3 125.56,-752.81 126.31,-1448.68 1.56,-1432.79 -433.4,-2608.42 -875.13,-3777.83 -198.05,-524.29 -888.52,-1542.92 -1250.05,-1905.93 -271.37,-272.47 -1284.51,-1511.35 -1617.25,-1500.54 90.75,154.03 500.01,492.57 691.61,670.33 137.58,127.6 207.76,272.08 324.59,373.4 330.58,286.68 98.97,70.45 320.95,348.44 256.21,320.87 249.24,193.67 605.99,749.96 369.79,576.65 480.51,607.24 742.63,1262.69 248.58,621.7 306.07,646.76 530.25,1451.94 260.25,934.81 264.99,1334.37 252.77,2415.62 -105.12,53.07 -155.45,-2.47 -395.49,197.23 -231.57,192.65 -3.01,234.55 -379.15,235.49l-9.32 335.05 -908.69 63.02c-146.98,214.23 174.17,171.81 -615.27,175.93 -161.67,190.57 -210.43,376.87 -265.3,484.89 -162.84,320.4 -644.64,999.12 -899.99,1209.08 -152.82,125.64 -223.83,251.87 -413.42,327.73 -175.5,70.22 -92.51,17.35 -231.58,126.61 -167.43,131.52 -603.95,178.99 -812.93,259.47 -245.88,94.74 32.15,62.11 -201.74,126.3 -55.57,15.24 -269.37,10.38 -339.16,10.62 -193.94,40.92 4.89,79.66 -182.08,219.08 -1.37,1.02 -78.29,34.66 -91.17,42.1 -100.07,-44.17 -53.81,-75.74 -122.27,-173.96 -204.83,131.35 0.62,175.84 -228.96,86.27l-1.05 305.21c-67.68,0 -93.1,-5.87 -159.72,12.65l-332.62 160.18c-6.27,-10.49 -25.65,6.9 -36.11,14.65 -12.96,428.15 34.82,120.63 294.32,331.33 461.51,374.73 374.88,151.53 601.25,322.17l217.01 179.02c107.31,68.22 103.83,61.99 173.89,179.37 395.09,661.88 68.11,616.45 -67.21,1117.63l-76.44 2172.33z"/>
   <path class="fil12" d="M9010.23 2660.14l-976.91 595.18c-132.38,69.01 -188.77,70.18 -322.09,158.03l-737.7 520.77c-248.02,327.92 -266.24,67.59 -297.72,425.63 -227.47,10.93 -360.63,155.92 -499.7,282.03 -264.6,239.92 -166.84,275.16 -384.52,415.49 -202.79,130.69 -86.94,74.69 -327.21,446.35l-33.72 51c-78.14,149.06 -38.9,401.35 -33.18,567.1 795.04,0 702.34,-211.41 932.27,-167.16 138.09,60.59 10.85,6.03 80.91,78.21 65.37,67.29 15.04,39.09 59.69,67.01 66.23,41.48 121.53,25.5 240.23,25.5l4.04 305.52c440.56,1.53 34.42,-127.79 463.23,-127.95 8.5,-354.04 -29.6,-157.91 147.38,-219.55 159.75,233.3 130.34,165.23 -79.19,495.39 -36.19,56.98 -33.57,54.75 -59.81,80.83 -102.72,101.94 -101.7,44.1 -187.08,123.84 -8.5,7.95 -53.54,77.82 -66.97,97.87l-281.56 259.15c-181.33,134.69 -209.8,148.78 -408.75,156.66l-3.8 41.24c-1.88,3.76 -7.68,16.13 -10.34,20.48 -125.09,202.79 -676.53,396.69 -845.44,434.96l109.38 11.59c1375.69,-14.45 2771.51,-2322.48 2991.45,-2364.23 808.82,227.11 -286.52,1612.98 -373.31,1812.29 2.58,102.37 -11.28,44.33 21.73,85.96 154.08,-151.09 163.08,-182.5 289.74,-367.91l301.06 -357.45c114.4,-130.1 150.78,-457.12 194.61,-640.14 101.59,-424.15 131.59,-114.59 170.99,-126.19 73.35,-161.98 22.95,-154.5 133.63,-315.46l109.97 81.26c243.05,147.34 686.08,-46.49 997.32,11.2 179.57,68.93 -98.27,-96.19 49.42,43.12 8.11,7.68 34.62,36.19 43.87,44.69l153.95 104.65c8.54,4.97 20.49,11.04 28.75,16.05 328.35,200.45 -133.47,40.15 119.53,88.55 11.51,2.2 1097.26,38.93 1230.07,-33.25 136.21,-74.02 -142.91,-30.74 175.14,-97.48 376.53,-78.99 306.97,124.43 611.91,135.43l1266.34 -11.12c137.66,-39.32 -1.53,5.72 80.99,-45.27 247.32,-152.7 874.85,-118.04 1135.06,-90.71 172.79,18.17 203.26,-34.93 374.17,-29.76 492.97,14.84 402.61,234.32 474.32,469.03l452.94 882.61c192.69,-66.03 27.92,14.41 129.01,-84.01 -60.24,-175.73 -227.74,-308.69 -390.08,-819.36 -104.92,-330.11 -156.46,-784.58 305.01,-741.73 134.73,120.43 258.41,370.69 373.39,547.24 274.23,420.98 1171.25,1324.11 1518.72,1359.79 70.85,-115.85 50.05,5.13 -34.98,-118.91l-128.42 -132.18c-74.02,-45.43 -60.58,-1.99 -183.29,-85.33 -183.05,-124.39 41.79,-92.86 -339.2,-317.2 -146.39,-86.2 -225.04,-172.04 -260.83,-368.81l255.35 -37.01 3.09 -262.95c12.34,7.88 56.87,37.76 69.09,43.67l140.56 44.92c37.83,4.98 164.88,-1.17 212.51,-0.7 5.56,-13.55 22.95,-66.03 28.31,-75.9l31.29 -51.66c166.1,-215.99 344.49,-68.69 634.35,-171.26 10.26,-3.61 20.4,-9.95 31.02,-13.52 11.08,-3.72 21.34,-9.2 33.05,-12.57 169.9,-48.72 406.02,-14.76 589.58,-17.43 -14.8,-326.94 -74.02,-70.49 -137.58,-378.83 -3.02,-14.73 -9.52,-135.08 -10.58,-149.69 -175.49,1.33 -139.62,-80.79 -201.38,-226.53 -56.67,-133.66 -97.32,-162.21 -189.83,-255.39 -213.41,-214.97 -1018.12,-920.63 -1287.33,-1087.24 -11.28,-7.01 -45.98,-24.75 -57.3,-31.52 -69.87,-41.87 -65.29,-38.46 -129.24,-88.28 -346.64,-270.19 -749.76,-476.63 -1141.25,-662.66 -430.77,-204.63 -796.99,-347.58 -1283.34,-482.23 -2285.47,-632.74 -3927.63,-533.1 -6094.79,236.24z"/>
   <path class="fil12" d="M14157.05 13169.49l-156.69 -170.33c-88.99,-98.26 -236.48,-222.49 -264.72,-386.74l-100.22 -81.66c-59.53,64.89 -56.79,78.95 9.09,198.84 167.62,304.93 -134.73,-191.75 75.39,104.41l295.69 447.14c127.36,155.17 21.89,13.51 171.89,123.48 143.03,104.84 130.93,196.96 390.82,355.42l51.86 28.67c177.8,77.19 108.52,-9.99 260.09,103.35 108.01,80.72 12.96,69.09 172.4,140.05 303.91,135.32 1197.72,162.46 1508.69,165.94l775.76 -154.58c195.82,-61.88 80.13,-44.22 150.24,-107.27 150.82,-135.67 154.58,-66.5 330.7,-161.48 8.46,-4.58 19.07,-11.59 27.3,-16.44l672.29 -587.94c102.07,-125.91 528.06,-823.47 540.16,-1050.39 6.69,-126.1 56.55,26.32 -19.15,-65.99 -313.36,474.71 -289.04,686.47 -770.09,1126.05 -768.48,702.14 -1918.97,1028.07 -2959.34,677.78 -775.37,-261.11 -816.61,-475.02 -1162.16,-688.31z"/>
   <path class="fil12" d="M22075.65 16276.75c154.5,-84.79 388.94,-575.6 396.69,-605.05 94.94,-360.12 -54.87,-183.45 219.6,-334.51 3.21,-145.8 -5.68,-260.28 33.36,-379.54 93.96,-286.99 31.88,8.19 96.5,-246.26 32.08,-126.19 1.02,-71.79 58.87,-178.16 86.83,-159.63 13.71,41.04 68.93,-103.16l88.71 -667.12c27.92,-129.29 63.75,-150.55 85.77,-246.58 50.28,-219.52 12.02,-454.97 73.15,-685.65 98.93,-373.39 99.6,-974.1 89.69,-1403.57 -5.72,-247.83 -13.82,-499.23 -12.53,-746.87 3.29,-623.61 71.59,-592.04 -147.61,-614.48 72.02,1303.42 91.09,2202.68 -145.46,3466.63 -94.62,505.53 -240.31,960.5 -405.39,1431.76 -94.46,269.73 -494.49,1135.22 -500.28,1312.56z"/>
   <path class="fil12" d="M18158.59 20521.1c308.65,-39.44 474.08,-251.24 728.02,-369.87 205.5,-95.99 275.76,-153.01 450.16,-355.84 265.34,-308.54 122.5,-69.17 356.86,-326.71 258.92,-284.57 434.73,-365.17 742.83,-707.62l65.09 -66.82c240.43,-247.56 -43.7,-151.8 263.07,-177.06 -189.28,-53.3 74.14,-182.82 101.16,-203.11 137.51,-103.15 65.29,-135.82 191.08,-300.54l526.61 -741.89c5.72,-7.52 14.37,-17.04 20.13,-24.4 5.68,-7.29 14.72,-16.45 20.33,-23.7l99 -160.18c4.35,-8.69 9.4,-20.56 13.67,-29.29 4.27,-8.78 9.56,-20.41 13.83,-29.18 4.23,-8.73 9.9,-20.13 14.13,-28.9l127.99 -226.26c9.17,-11.43 85.38,-89.09 103.12,-114 75,-105.28 110.05,-209.65 79.98,-358.98l-130.85 128.53c-654.2,1044.52 -537.85,1073.11 -1587.45,2237.5 -477.26,529.42 -1030.76,1022.34 -1600.37,1425.74 -136.96,97.01 -198.17,150.9 -311,220.37 -136.45,84.01 -195.24,96.74 -287.39,232.21z"/>
   <path class="fil12" d="M7451.3 20902.36l-1225.61 -804.47c-405,-279.16 -1008.13,-850.41 -1143.44,-877.24l166.57 345.15c325.49,219.09 30.62,90.98 288.24,237.07l111.66 53.96c411.54,202.76 27.46,68.66 473.11,302.63l384.59 314.13c68.03,59.3 78.68,41.79 171.58,84.44 192.81,88.51 182.07,173.54 334.46,235.65 106.73,43.48 341.55,115.3 438.84,108.68z"/>
   <path class="fil12" d="M22648.62 7884.03c2.94,-125.95 -19.5,-273.05 -57.3,-405.86l-106.05 -307.79c-44.53,-170.13 -360.71,-696.22 -397.37,-782.74 -236.2,-558.05 -198.17,-101.47 -309.86,-785.4 -108.25,60.47 -164.53,-23.85 -258.37,-90.82l-98.38 -62c64.31,194.84 239.45,406.68 337.01,574.15 305.52,524.41 812.74,1778.33 890.32,1860.46z"/>
   <path class="fil12" d="M15949.49 1216.15c115.92,117.3 326.55,158.93 467.77,212.12 499.55,188.14 1398.8,662.66 1425,671.19l-17.31 -185.36c-59.73,-43.4 10.41,69.44 -28.95,-37.68 -1.05,-2.86 -6.46,-15.35 -7.08,-18.37l26.82 -68.89c-218.89,-11.35 -278.77,-76.8 -543.36,-120 -14.81,-9 -24.13,-113.65 -112.05,-137.74 -122.86,-33.68 -172.36,-6.54 -307.17,-47.03 -429.79,-129.21 -333.44,-111.27 -415.77,-269.81l-487.9 1.57z"/>
   <path class="fil12" d="M5602.55 3128.19c136.88,-60.19 200.52,-125.32 327.53,-227.31 96.62,-77.54 178.16,-148.51 324.98,-250.81 240.59,-167.62 486.86,-279.9 696.15,-492.6 118.39,21.85 257.04,-91.53 390.19,-174.29 157.91,-98.1 265.42,-119.53 381.31,-247 -247.6,-18.22 -125.88,64.73 -529.46,201.34 -12.07,4.07 -23.43,7.56 -35.57,11.32 -12.06,3.72 -23.96,6.19 -35.87,9.63 -279.87,80.76 -111.93,50.92 -319.89,192.46 -36.43,24.83 -41.48,25.06 -84.87,49.34l-167.74 97.56c-144.36,96.34 27.21,47.55 -150.28,74.22 -9.83,1.49 -61.6,-6.66 -77.19,-6.47 -13,100.97 -73,188.23 -163.63,239.77l-62.94 26.75c-386.2,156.07 -71.82,92.7 -330.54,276.62 -135.71,96.46 -125.8,-5.8 -162.18,219.47z"/>
   <path class="fil12" d="M20501.67 4229.92l-144.83 -333.64c-59.61,-88.47 -174.95,-113.06 -286.09,-184.27l128.61 -178.27c-206.75,26.75 -156.22,42.84 -324.2,-110.99 -6.62,-6.03 -16.1,-15.16 -22.79,-21.03 -95.29,-83.86 -41.28,-37.41 -147.69,-109.39 -292.21,-197.62 -171.62,-46.57 -333.56,-247.44 -110.68,-137.27 -347.12,-299.14 -499.51,-302.86 106.37,171.19 219.21,216.78 398.54,361.33 133.59,107.66 287.54,251.24 424.93,365.48 251.67,209.14 584.92,637.36 806.59,761.08z"/>
   <path class="fil12" d="M5082.25 19220.65c-84.75,-275.8 -485.91,-404.53 -512.07,-664.97 -127.84,-33.64 -56.36,19.93 -176.13,-98.77 -44.96,-44.61 -71.28,-89.38 -114.94,-146.44 -96.15,-125.6 -127.84,-194.41 -265.46,-261.46l51.35 319.58c215.91,104.3 236.04,26.67 256.68,340.57 308.97,0.04 320.79,165.39 548.49,409.07 98.39,105.32 -2.31,98.97 212.08,102.42z"/>
   <path class="fil12" d="M16590.14 24387.44c68.85,143.15 2.7,42.73 124.62,164.45 118.04,117.85 5.75,69.91 145.81,86.48 41.47,-201.86 79.38,-386.6 -27.65,-554.65 -97.41,50.33 -204.29,178 -242.78,303.72z"/>
   <path class="fil12" d="M4013.65 18049.01c-53.07,-248.07 -237.8,-287.94 -319.62,-563.34l-72.53 7.44c2.94,11.99 6.97,27.22 9.36,35.88l19.42 71.75c4.19,14.64 30.55,104.84 32.12,109.34 52.28,149.88 149.14,269.88 331.25,338.93z"/>
   <path class="fil12" d="M8267.29 24810.57c12.41,144.91 -44.34,69.32 83.97,140.29 64.5,-101.12 63.21,116.55 41.08,-175.3 -30.59,-54.05 78.6,-47.27 -110.44,-36.15 -8.11,56.2 11.55,22.28 -14.61,71.16z"/>
   <path class="fil13" d="M6913.65 3730.26c222.45,-30.43 306.42,-177.25 414.2,-264.47 6.39,-5.21 16.45,-13.43 23.15,-18.21l1012.2 -524.53c194.76,-102.69 398.03,-227.04 647.03,-262.91 2167.16,-769.34 3809.32,-868.98 6094.79,-236.24 486.35,134.65 852.57,277.6 1283.34,482.23 391.49,186.03 794.61,392.47 1141.25,662.66 63.95,49.82 59.37,46.41 129.24,88.28 11.32,6.77 46.02,24.51 57.3,31.52 269.21,166.61 1073.92,872.27 1287.33,1087.24 92.51,93.18 133.16,121.73 189.83,255.39 61.76,145.74 25.89,227.86 201.38,226.53 233.73,-8.77 121.88,12.65 212.74,160.34 86.56,140.68 62.67,60.35 154.19,186.5 30.55,42.1 6.86,-18.84 47.51,89.18 114.01,303.25 -1.33,46.37 306.15,427.16 155.71,192.89 121.91,335.48 213.76,496.68 102.84,180.47 -26.56,19.31 152.19,99.56 3.09,46.21 2.23,148.86 6.93,187.4 28.98,237.06 -20.4,57.34 116.24,225.59 5.8,7.16 14.49,16.76 20.17,24.2 140.87,185.13 78.45,175.77 15.74,342.69 -74.17,197.43 46.61,58.47 -104.45,195.78l-122.7 -23.97c-94.31,-12.73 -78.84,-36.19 -166.45,13.04 -132.45,74.42 8.85,111.62 109.98,178.63 1.09,150.12 32.03,367.05 -43.09,496.33 -52.51,90.31 -41.78,121.25 -370.69,173.97l-1091.82 8.46c-397.99,-12.3 -150.23,-56.95 -436.09,-134.69l4.62 34.86c0.04,20.44 15.7,0.2 -4.62,51.81 -232.95,-5.52 -170.33,-0.04 -234.56,111.94l-29.14 68.38c-191.16,-5.37 -144,-28.87 -296.59,-48.41 17.12,257.97 2.86,98.07 81.23,158.34 7.05,5.44 19.86,10.3 27.45,15.47l278.54 205.57c44.22,32.98 41.32,28.44 76.84,60.67l75.94 79.39c-43.9,25.53 -11.59,21.46 -110.87,10.61 117.65,175.89 265.73,287.97 389.21,433.67 138.41,163.23 225.31,306.42 328.9,506.74 217.36,420.35 270.08,875.95 190.69,1416.73 54.29,25.54 108.8,9.32 66.9,315 -105.04,766.02 -621.27,1563.79 -1265.17,1988.92 -233.53,154.19 -133.86,166.8 -454.81,296.32 -815.33,329.02 -1436.28,493.7 -2326.32,117.96 -491.4,-207.45 -968.73,-442.95 -1275.27,-868.35 -138.72,-192.61 -205.81,-216.54 -320.21,-422.35l-141.27 -216.11c-111.85,-174.94 -139.81,-323.85 -202.98,-483.36 -105.44,-266.24 84.2,-101.44 -191.36,-196.18 -6.97,-295.88 62.82,-488.14 28.16,-743.77 -50.29,-370.53 9.36,-376.56 -0.71,-718.86 -151.33,123.37 -358.74,123.06 -548.42,61.18 -183.72,-59.96 -81.77,-57.5 -342.64,-55.34 -95.84,133.82 -8.11,326.16 -150.63,246.11 -163.94,-92.12 8.77,-7.25 -66.31,-141.46 -59.33,-105.98 140.57,-65.45 -134.6,-110.68 -136.22,190.26 122.03,721.64 -98.54,1361.86 -56.4,163.74 -87.61,428.26 -168.99,583.39 -185.88,354.51 -355.11,674.21 -654.24,893.85 -124,91.01 -93.88,78.32 -188.27,191.2 -31.17,37.28 -52.48,60.66 -82.28,90.78 -174.71,176.59 -223.16,141.3 -380.6,247.95 -152,103 -51.34,52.13 -267.41,138.52l-569.34 217.4c-973.03,285.04 -2161.55,-134.37 -2757.87,-734.09 -273.25,-274.86 -900.19,-1143.17 -909.86,-1491.69 -8.86,-318.64 -33.96,-95.72 65.52,-167.55 -16.73,-176.71 -93.06,-278.26 -77.47,-488.77 -113.58,-162.33 -46.02,-711.53 6.07,-890.05 329.37,-1127.97 1008.48,-1338.63 1342.4,-1696.32 -92.59,36.58 -56.95,59.33 -205.26,12.49l-139.08 -65.71c-1.33,-0.94 -68.85,-60.47 -71.67,-64.82 -60.82,-93.76 -37.2,-94.39 -34.89,-223.59 -309.95,-5.52 -216.78,-62.47 -477.34,2.15l-37.36 260.25c-177.37,0.24 -224.84,16.49 -358.12,42.73l-87.92 -221c-193.67,65.79 110.01,-28.59 -83.3,46.76l-399.17 -3.02c-340.02,-43 -532.75,-40.14 -541.52,-216.85l-0.47 -41.79c-15.78,-140.72 -68.38,-347.9 -180.2,-431.63l-118.04 -63.29c-12.02,-546.61 -14.88,-301.64 -84.75,-462.37 -143.61,-330.35 454.23,-1272.29 664.58,-1552.51l815.83 -1081.57c136.49,-192.72 110.25,75.4 132.73,-212.97 -226.49,27.53 -251.4,121.88 -261.77,132.22 -6.39,6.38 -15.2,16.17 -21.51,22.75 -6.34,6.66 -15.19,16.29 -21.5,23.07l-236.86 322.4c-146.32,240.9 -324.67,372.92 -499.19,610.41 -470.09,639.83 -1324.26,2292.92 -1405.57,2906.66 -29.25,221.08 6.03,243.92 -67.13,460.5 -127.01,375.97 -80.24,1149.94 -81.73,1568.76l1027.2 15.75 92.19 177.37c-54.12,137.7 138.84,-148.31 -57.88,46.92 -73.87,73.32 -42.5,-27.69 -92.71,112.75 796.14,12.61 375.55,-28.08 576.11,130.07l144.87 77.35c106.21,80.44 64.7,26.24 68.3,231.18l263.03 10.66 3.8 384.43c279.28,25.66 292.71,117.81 344.76,303.88l249.48 709.62c104.33,262.71 374.8,529.38 429.24,600.9 198.84,261.26 558.72,637.43 835.53,786.49 74.18,39.91 152.78,89.22 221.95,127.48 203.93,112.88 332.82,82.41 540.23,167.82l57.34 349.27 247.51 3.02 11.48 256.17 257.07 5.01 1.92 260.72c89.14,1.72 216.78,-0.51 301.61,62.31l-7.25 546.15c-140.64,213.32 -368.22,264.04 -468.72,567.6 -102.29,308.89 4.08,612.18 259.78,711.7 -72.22,-406.37 -674.41,-747.88 992.78,-1431.61 2183.21,-895.38 4914.92,-662.39 6711.39,585.85l-105.55 4.16c210.55,373.31 208.32,212.66 72.5,659.29l-8.46 2526.92 76.44 -2172.33c135.32,-501.18 462.3,-455.75 67.21,-1117.63 -70.06,-117.38 -66.58,-111.15 -173.89,-179.37l-217.01 -179.02c-226.37,-170.64 -139.74,52.56 -601.25,-322.17 -259.5,-210.7 -307.28,96.82 -294.32,-331.33 10.46,-7.75 29.84,-25.14 36.11,-14.65l332.62 -160.18c66.62,-18.52 92.04,-12.65 159.72,-12.65l1.05 -305.21c229.58,89.57 24.13,45.08 228.96,-86.27 68.46,98.22 22.2,129.79 122.27,173.96 12.88,-7.44 89.8,-41.08 91.17,-42.1 186.97,-139.42 -11.86,-178.16 182.08,-219.08 69.79,-0.24 283.59,4.62 339.16,-10.62 233.89,-64.19 -44.14,-31.56 201.74,-126.3 208.98,-80.48 645.5,-127.95 812.93,-259.47 139.07,-109.26 56.08,-56.39 231.58,-126.61 189.59,-75.86 260.6,-202.09 413.42,-327.73 255.35,-209.96 737.15,-888.68 899.99,-1209.08 54.87,-108.02 103.63,-294.32 265.3,-484.89 789.44,-4.12 468.29,38.3 615.27,-175.93l908.69 -63.02 9.32 -335.05c376.14,-0.94 147.58,-42.84 379.15,-235.49 240.04,-199.7 290.37,-144.16 395.49,-197.23 12.22,-1081.25 7.48,-1480.81 -252.77,-2415.62 -224.18,-805.18 -281.67,-830.24 -530.25,-1451.94 -262.12,-655.45 -372.84,-686.04 -742.63,-1262.69 -356.75,-556.29 -349.78,-429.09 -605.99,-749.96 -221.98,-277.99 9.63,-61.76 -320.95,-348.44 -116.83,-101.32 -187.01,-245.8 -324.59,-373.4 -191.6,-177.76 -600.86,-516.3 -691.61,-670.33l-569.6 -352.91c-560.05,-425.64 -1260.23,-718.16 -1879.54,-1009.5l-1475.94 -413.42c-1742.66,-332.43 -3305,-252.77 -4980.18,333.48 -527.74,184.66 -879.98,329.53 -1331.12,573.09 -327.29,176.71 -1057.94,534.09 -1158.79,796.21z"/>
   <path class="fil13" d="M5920.17 4559.14l419.37 -282.42c349.62,-326 530.36,-328.9 561.27,-557.7l-721.18 488.07c-117.61,89.37 -111.22,50.87 -217.91,256.76 -39.98,77.16 -12.26,11.56 -41.55,95.29z"/>
   <path class="fil14" d="M6913.65 3730.26l-12.84 -11.24c-30.91,228.8 -211.65,231.7 -561.27,557.7l-419.37 282.42c-22.48,288.37 3.76,20.25 -132.73,212.97l-815.83 1081.57c-210.35,280.22 -808.19,1222.16 -664.58,1552.51 69.87,160.73 72.73,-84.24 84.75,462.37l118.04 63.29c111.82,83.73 164.42,290.91 180.2,431.63l0.47 41.79c8.77,176.71 201.5,173.85 541.52,216.85l399.17 3.02c193.31,-75.35 -110.37,19.03 83.3,-46.76l87.92 221c133.28,-26.24 180.75,-42.49 358.12,-42.73l37.36 -260.25c260.56,-64.62 167.39,-7.67 477.34,-2.15 -2.31,129.2 -25.93,129.83 34.89,223.59 2.82,4.35 70.34,63.88 71.67,64.82l139.08 65.71c148.31,46.84 112.67,24.09 205.26,-12.49 503.18,-156.03 745.84,-398.38 1621.01,-389.96 2324.2,22.44 3279.93,2523.08 2884.57,3074.75 19.74,163.12 -7.01,260.21 -54.36,408.72 -43.32,136.02 -76.02,243.88 -171.23,332.51 -38.14,362.5 -627.53,907.98 -881.9,1118.65 -836.2,692.62 -2168.92,788.65 -3147.13,291.46 -353.3,-179.57 -999.75,-673.94 -1077.17,-958.39 -164.57,-87.14 -48.84,13.74 -161.83,-176.36 -48.84,-82.17 -75.67,-127.4 -109.42,-196.1 -66.66,-135.66 -122.9,-269.72 -173.54,-430.14 -99.48,71.83 -74.38,-151.09 -65.52,167.55 9.67,348.52 636.61,1216.83 909.86,1491.69 596.32,599.72 1784.84,1019.13 2757.87,734.09l569.34 -217.4c216.07,-86.39 115.41,-35.52 267.41,-138.52 157.44,-106.65 205.89,-71.36 380.6,-247.95 29.8,-30.12 51.11,-53.5 82.28,-90.78 94.39,-112.88 64.27,-100.19 188.27,-191.2 299.13,-219.64 468.36,-539.34 654.24,-893.85 81.38,-155.13 112.59,-419.65 168.99,-583.39 220.57,-640.22 -37.68,-1171.6 98.54,-1361.86 275.17,45.23 75.27,4.7 134.6,110.68 75.08,134.21 -97.63,49.34 66.31,141.46 142.52,80.05 54.79,-112.29 150.63,-246.11 260.87,-2.16 158.92,-4.62 342.64,55.34 189.68,61.88 397.09,62.19 548.42,-61.18 10.07,342.3 -49.58,348.33 0.71,718.86 34.66,255.63 -35.13,447.89 -28.16,743.77 275.56,94.74 85.92,-70.06 191.36,196.18 63.17,159.51 91.13,308.42 202.98,483.36l141.27 216.11c114.4,205.81 181.49,229.74 320.21,422.35 306.54,425.4 783.87,660.9 1275.27,868.35 890.04,375.74 1510.99,211.06 2326.32,-117.96 320.95,-129.52 221.28,-142.13 454.81,-296.32 643.9,-425.13 1160.13,-1222.9 1265.17,-1988.92 41.9,-305.68 -12.61,-289.46 -66.9,-315l-30.7 22.21c7.28,169.15 22.71,142.95 -69.71,230.68l-43.59 290.71c75.7,92.31 25.84,-60.11 19.15,65.99 -12.1,226.92 -438.09,924.48 -540.16,1050.39l-672.29 587.94c-8.23,4.85 -18.84,11.86 -27.3,16.44 -176.12,94.98 -179.88,25.81 -330.7,161.48 -70.11,63.05 45.58,45.39 -150.24,107.27l-775.76 154.58c-310.97,-3.48 -1204.78,-30.62 -1508.69,-165.94 -159.44,-70.96 -64.39,-59.33 -172.4,-140.05 -151.57,-113.34 -82.29,-26.16 -260.09,-103.35l-51.86 -28.67c-259.89,-158.46 -247.79,-250.58 -390.82,-355.42 -150,-109.97 -44.53,31.69 -171.89,-123.48l-295.69 -447.14c-210.12,-296.16 92.23,200.52 -75.39,-104.41 -65.88,-119.89 -68.62,-133.95 -9.09,-198.84l-223.27 -498.99c-4.62,-13.05 -17.27,-48.88 -21.82,-61.57 -3.29,-9.16 -8.1,-20.48 -11.36,-29.73l-45.27 -297.76c-159.16,-214.31 -80.95,-780.39 -19.5,-1012.24 411.42,-1551.81 2383.62,-2754.58 4278.11,-1894.22 225.86,102.57 590.64,384.86 691.53,416.98 99.28,10.85 66.97,14.92 110.87,-10.61l-75.94 -79.39c-35.52,-32.23 -32.62,-27.69 -76.84,-60.67l-278.54 -205.57c-7.59,-5.17 -20.4,-10.03 -27.45,-15.47 -78.37,-60.27 -64.11,99.63 -81.23,-158.34 152.59,19.54 105.43,43.04 296.59,48.41l29.14 -68.38c64.23,-111.98 1.61,-117.46 234.56,-111.94 20.32,-51.61 4.66,-31.37 4.62,-51.81l-4.62 -34.86c285.86,77.74 38.1,122.39 436.09,134.69l1091.82 -8.46c328.91,-52.72 318.18,-83.66 370.69,-173.97 75.12,-129.28 44.18,-346.21 43.09,-496.33 -101.13,-67.01 -242.43,-104.21 -109.98,-178.63 87.61,-49.23 72.14,-25.77 166.45,-13.04l122.7 23.97c151.06,-137.31 30.28,1.65 104.45,-195.78 62.71,-166.92 125.13,-157.56 -15.74,-342.69 -5.68,-7.44 -14.37,-17.04 -20.17,-24.2 -136.64,-168.25 -87.26,11.47 -116.24,-225.59 -4.7,-38.54 -3.84,-141.19 -6.93,-187.4 -178.75,-80.25 -49.35,80.91 -152.19,-99.56 -91.85,-161.2 -58.05,-303.79 -213.76,-496.68 -307.48,-380.79 -192.14,-123.91 -306.15,-427.16 -40.65,-108.02 -16.96,-47.08 -47.51,-89.18 -91.52,-126.15 -67.63,-45.82 -154.19,-186.5 -90.86,-147.69 20.99,-169.11 -212.74,-160.34 1.06,14.61 7.56,134.96 10.58,149.69 63.56,308.34 122.78,51.89 137.58,378.83 -183.56,2.67 -419.68,-31.29 -589.58,17.43 -11.71,3.37 -21.97,8.85 -33.05,12.57 -10.62,3.57 -20.76,9.91 -31.02,13.52 -289.86,102.57 -468.25,-44.73 -634.35,171.26l-31.29 51.66c-5.36,9.87 -22.75,62.35 -28.31,75.9 -47.63,-0.47 -174.68,5.68 -212.51,0.7l-140.56 -44.92c-12.22,-5.91 -56.75,-35.79 -69.09,-43.67l-3.09 262.95 -255.35 37.01c35.79,196.77 114.44,282.61 260.83,368.81 380.99,224.34 156.15,192.81 339.2,317.2 122.71,83.34 109.27,39.9 183.29,85.33l128.42 132.18c85.03,124.04 105.83,3.06 34.98,118.91 83.06,108.01 137.93,122.7 273.05,188.02 124.19,60.08 214.54,100.62 331.45,147.38 754.93,302.04 1105.02,246.74 1079.84,521.75 -24.01,262.28 -243.96,185.99 -975,84.79 -511.05,-70.77 -1070.59,-219.91 -1465.88,-428.5 -196.76,-103.78 -376.8,-219.83 -556.96,-365.4 -96.97,-78.33 -171.1,-158.81 -245.16,-238.16 -51.9,-55.61 -61.26,-71.4 -101.83,-117.92 -44.92,-51.54 -13.75,-22.99 -64.78,-71.64 -47.43,-45.23 -30.12,-28.86 -81.77,-66.26 -101.09,98.42 63.68,17.98 -129.01,84.01l-452.94 -882.61c-71.71,-234.71 18.65,-454.19 -474.32,-469.03 -170.91,-5.17 -201.38,47.93 -374.17,29.76 -260.21,-27.33 -887.74,-61.99 -1135.06,90.71 -82.52,50.99 56.67,5.95 -80.99,45.27l-1266.34 11.12c-304.94,-11 -235.38,-214.42 -611.91,-135.43 -318.05,66.74 -38.93,23.46 -175.14,97.48 -132.81,72.18 -1218.56,35.45 -1230.07,33.25 -253,-48.4 208.82,111.9 -119.53,-88.55 -8.26,-5.01 -20.21,-11.08 -28.75,-16.05l-153.95 -104.65c-9.25,-8.5 -35.76,-37.01 -43.87,-44.69 -147.69,-139.31 130.15,25.81 -49.42,-43.12 -311.24,-57.69 -754.27,136.14 -997.32,-11.2l-109.97 -81.26c-110.68,160.96 -60.28,153.48 -133.63,315.46 -39.4,11.6 -69.4,-297.96 -170.99,126.19 -43.83,183.02 -80.21,510.04 -194.61,640.14l-301.06 357.45c-126.66,185.41 -135.66,216.82 -289.74,367.91 -33.01,-41.63 -19.15,16.41 -21.73,-85.96 -334.82,201.81 -444.95,527.97 -1388.89,831.5 -399.79,128.57 -1502.1,393.4 -1876.59,259.54 -194.96,-431.44 239.92,-317.43 533.49,-464.45 114.68,-57.46 41.56,-9.95 113.85,-74.65l-109.38 -11.59c168.91,-38.27 720.35,-232.17 845.44,-434.96 2.66,-4.35 8.46,-16.72 10.34,-20.48l3.8 -41.24c198.95,-7.88 227.42,-21.97 408.75,-156.66l281.56 -259.15c13.43,-20.05 58.47,-89.92 66.97,-97.87 85.38,-79.74 84.36,-21.9 187.08,-123.84 26.24,-26.08 23.62,-23.85 59.81,-80.83 209.53,-330.16 238.94,-262.09 79.19,-495.39 -176.98,61.64 -138.88,-134.49 -147.38,219.55 -428.81,0.16 -22.67,129.48 -463.23,127.95l-4.04 -305.52c-118.7,0 -174,15.98 -240.23,-25.5 -44.65,-27.92 5.68,0.28 -59.69,-67.01 -70.06,-72.18 57.18,-17.62 -80.91,-78.21 -229.93,-44.25 -137.23,167.16 -932.27,167.16 -5.72,-165.75 -44.96,-418.04 33.18,-567.1l33.72 -51c240.27,-371.66 124.42,-315.66 327.21,-446.35 217.68,-140.33 119.92,-175.57 384.52,-415.49 139.07,-126.11 272.23,-271.1 499.7,-282.03 31.48,-358.04 49.7,-97.71 297.72,-425.63l737.7 -520.77c133.32,-87.85 189.71,-89.02 322.09,-158.03l976.91 -595.18c-249,35.87 -452.27,160.22 -647.03,262.91l-1012.2 524.53c-6.7,4.78 -16.76,13 -23.15,18.21 -107.78,87.22 -191.75,234.04 -414.2,264.47z"/>
   <path class="fil14" d="M8631.75 17250.53l69.87 57.57c-9.91,-461.55 -698.69,-717.1 984.63,-1383.87 1658.06,-656.75 4044.58,-660.7 5647.77,30.08 288.84,124.42 702.53,404.76 896.35,454.62l105.55 -4.16c-1796.47,-1248.24 -4528.18,-1481.23 -6711.39,-585.85 -1667.19,683.73 -1065,1025.24 -992.78,1431.61z"/>
   <path class="fil15" d="M17293.84 9845.54c258.21,-1063.9 -1172.54,-1054.89 -1793.41,-406.8 -210.47,219.71 -537.3,194.25 -771.42,1122.05 -254.18,1007.15 1053.13,1374.08 2152.16,165.04 326.43,-359.13 291.89,-382.67 412.67,-880.29z"/>
   <path class="fil15" d="M9243.11 10021.31c290.36,-1455.58 -1357.67,-1160.87 -2032.59,-437.59 -223.2,239.18 -356.44,315.86 -507.53,766.21 -107.55,320.49 -176.32,785.91 191.04,963.84 363.8,176.24 845.05,143.81 1230.93,-60.71l759.4 -566.27c6.15,-6.74 15.35,-16.3 21.5,-22.95l265.93 -429.79c39.67,-69.21 47.43,-93.02 71.32,-212.74z"/>
   <path class="fil15" d="M13566.89 16104.15c123.4,68.38 123.09,84.79 165.54,217.91 39.01,122.43 30.71,198.56 130.18,307.67 388.36,-459.28 852.22,-98.34 979.15,280.7 94.94,130.29 72.85,250.37 189.36,282.02 132.65,35.99 115.65,-49.11 178.47,-93.37 7.25,-5.09 16.92,-13.12 24.4,-18.02l510.16 -413.81c7.32,-6.3 17.35,-13.63 24.63,-20.4l101.36 -112.32 -19.7 -98.78c-61.21,7.95 -881,-369.43 -1013.85,-416.55 -343.08,-121.6 -855.23,-216.77 -1211.98,-285.19l-348.52 -36.39c44.73,152.71 73.32,107.2 162.88,220.07 53.19,67.05 89.85,146.67 127.92,186.46z"/>
   <path class="fil15" d="M17728.76 12072.61c-188.69,-0.58 -316.92,17.67 -411.11,104.26 -86.55,79.58 -164.1,251.91 -52.56,356.55 111.93,105.04 247.64,-39.59 313.16,-95.48 165.31,-140.99 150.39,-84.83 150.51,-365.33z"/>
   <path class="fil15" d="M9135.52 12490.58c352.05,28.94 518.07,-54.32 497,-411.23 -207.42,-6.03 -237.77,-23.07 -361.69,93.13 -90.35,84.72 -130.06,140.21 -135.31,318.1z"/>
   <path class="fil16" d="M7722.71 1736.18c-115.89,127.47 -223.4,148.9 -381.31,247 -133.15,82.76 -271.8,196.14 -390.19,174.29 225.63,-25.5 -64.78,-81.82 206.83,-34.19l78.95 33.95c-71.67,154.93 -143.34,174.52 -370.22,277.68 -233.85,106.33 -113.46,79.46 -333.76,234.32 -145.57,102.37 -254.29,111.22 -379.15,232.24 -104.21,100.93 -33.21,48.64 -173.73,137.62 -222.96,141.15 -133.2,145.03 -296.83,271.96 -375.43,291.15 -141.73,132.73 -315.35,301.92 -147.57,143.81 -51.03,33.37 -165,102.33 -152.23,92.12 40.5,-76.05 -129.51,125.37 -330.16,391.29 -293.11,415.34 -507.14,372.69 33.76,282.41 -126.07,301.29 -233.11,430.45 -4.81,5.84 -14.64,15.47 -18.64,21.39 -118.67,175.84 17.19,-8.78 -34.46,119.17 -76.88,190.54 -178.28,30.82 -327.89,351.42 -32.35,69.32 -35.99,77.04 -76.6,153.29l-180.98 -8.81 -220.14 262.56c-20.29,93.05 -11.05,106.33 -50.96,167.27 -81.97,125.13 -24.94,30.86 -125.87,87.73 -70.85,237.88 -497.58,942.45 -639.67,1256.15 -197.08,435.16 -353.15,912.34 -498.37,1390.26 -319.46,1051.44 -435.04,2148.75 -403.23,3380.07 83.34,3226.75 1720.56,5091.87 1865.12,5668.8l72.53 -7.44 181.06 -7.83c39.75,108.76 175.73,230.36 248.5,330.35 103.39,142.01 11.82,110.4 143.1,250.18 205.22,218.5 185.37,258.37 322.64,327.73l-19.15 169.58c178.39,-54.83 186.34,19.54 269.49,120.43l948.79 930.07c502.79,367.72 564.75,445.34 1135.02,757.21 120.67,65.99 137.47,74.17 235.3,163.94 187.83,172.4 49.86,41.47 276.85,158.93 77.27,39.98 162.46,111.73 238.04,148.43 157.37,76.37 764.8,356.86 903.41,351.11 76.99,-301.92 -17.94,-206.13 17.7,-398.42 23.62,-127.44 -15.86,-47.55 63.92,-135.47 -56.52,-1003.16 15,-13.79 -682.44,-637.56 -116.05,-103.78 -705.12,-270.19 -1024.89,-513.64 -126.07,-95.99 -246.54,-267.21 -441.23,-359.02 -613.63,-289.22 -88.94,18.96 -411.15,-405.89 -133.55,-176.09 -431.12,-215.72 -509.56,-287.9 -122.82,-113.07 -109.51,-325.89 -446.55,-342.89 25.14,-127.51 348.95,14.73 59.21,-310.61 -149.61,-168.01 -81.46,53.7 -290.09,-286.05 -231.26,-376.72 -354.94,-290.13 -543.09,-596.98 -142.95,-233.07 -283.98,-561.11 -404.57,-687.85 -92.27,-97.01 -125.68,-189.08 -203.85,-328.12 -176.24,-313.51 -150.82,13.71 -205.77,-396.57 -59.92,-447.53 -462.96,-1329.48 -618.32,-1719.98 -12.54,-31.53 -193.71,-1832.38 -176.59,-2029.3 63.05,-725.52 81.97,-1357.63 217.47,-2060.94 64.31,-333.8 174.56,-454.86 200.25,-942.53 21.54,-409 201.11,-587.47 298.12,-882.45 54.05,-164.49 41.48,-344.88 97.91,-474.95 109.11,-251.51 58.98,45.35 225.43,-345.66 92,-216.19 309.91,-555.78 434.8,-746.08 329.41,-501.89 448.83,-1057.36 932.35,-1387.09l1187.15 -1014.55c285.55,-226.09 1049.33,-790.21 1365.93,-959.44 760.96,-406.8 2477.03,-1130.44 3487.82,-1158.99 1412.03,-39.87 2992.7,-132.1 4117.34,355.3 600.24,260.12 1067.94,360.31 1644.67,683.8 273.84,153.61 448.74,268.36 725.72,417.73 214.38,115.69 622.28,231.93 614.05,569.61 332.74,-10.81 1345.88,1228.07 1617.25,1500.54 361.53,363.01 1052,1381.64 1250.05,1905.93 441.73,1169.41 876.69,2345.04 875.13,3777.83 -0.75,695.87 -94.7,960.38 -126.31,1448.68 -22.91,354.17 -80.32,371.28 -121.45,667.72 -74.45,536.63 -68.26,74.45 -211.68,576.57 -68.22,238.95 -216.85,1028.38 -340.14,1241.9 -285.98,495.24 59.06,519.32 -360,1045.69 -285.86,359.02 -286.06,574.54 -646.05,935.36 -277.13,277.79 -178.55,14.3 -389.1,403.71 -221.44,409.46 -693.17,1119.31 -1096.13,1269.82 -274.62,102.57 -345.39,62.78 -505.69,291.31 -276.93,394.69 -36.27,121.41 -483.96,305.4 -270,110.91 -637.43,656.39 -1064.68,429.63l-296 759.01 -115.65 -767.27 8.46 -2526.92 -70.81 6052.76 36.89 7.8 9.71 -1681.25 1879.93 -926.43c92.15,-135.47 150.94,-148.2 287.39,-232.21 112.83,-69.47 174.04,-123.36 311,-220.37 569.61,-403.4 1123.11,-896.32 1600.37,-1425.74 1049.6,-1164.39 933.25,-1192.98 1587.45,-2237.5l130.85 -128.53c5.79,-177.34 405.82,-1042.83 500.28,-1312.56 165.08,-471.26 310.77,-926.23 405.39,-1431.76 236.55,-1263.95 217.48,-2163.21 145.46,-3466.63l-478.16 -2181.77c-77.58,-82.13 -584.8,-1336.05 -890.32,-1860.46 -97.56,-167.47 -272.7,-379.31 -337.01,-574.15l-919.62 -1219.5c-221.67,-123.72 -554.92,-551.94 -806.59,-761.08 -137.39,-114.24 -291.34,-257.82 -424.93,-365.48 -179.33,-144.55 -292.17,-190.14 -398.54,-361.33l-1029.35 -642.57c-26.2,-8.53 -925.45,-483.05 -1425,-671.19 -141.22,-53.19 -351.85,-94.82 -467.77,-212.12 -120.75,3.53 -1539.71,-381.42 -2002.91,-444.51 -1315.92,-179.22 -3195.45,-115.38 -4462.77,318.75 -259.15,88.79 -1700.36,640.03 -1761.1,645.79z"/>
   <path class="fil17" d="M14837.02 18707.32c-141.97,223.28 -233.57,986.67 -179.8,1312.4 412.01,256.52 582.57,-56.4 592.36,-507.18 8.85,-408.21 -61.41,-791.35 -125.72,-1197.45 -59.84,145.3 -48.13,244.78 -52.2,406.29 -5.37,210.71 16.92,216.78 -84.48,338.85 -63.8,-111.46 -76.18,-340.49 -75.2,-505.33 -57.25,33.87 -138.44,-168.22 -74.96,152.42z"/>
   <path class="fil18" d="M15123.86 18315.09c64.31,406.1 134.57,789.24 125.72,1197.45 -9.79,450.78 -180.35,763.7 -592.36,507.18 -53.77,-325.73 37.83,-1089.12 179.8,-1312.4l-3.76 -206.28c-213.87,114.01 -43.04,-38.06 -136.13,199.43 -57.85,147.69 26.75,66.26 -84.79,184.11 10.38,158.3 -24.99,167.04 -55.38,284.61 -24.67,95.32 -33.84,204.67 -46.02,300.07 -33.21,260.68 -57.65,375.28 -3.37,635.41 67.76,16.84 914.18,632.3 845.09,-727.36l-176.87 -1648.7c-60.66,72.57 -38.45,-11.75 -71.08,154.5 -0.63,3.41 -4.15,124.07 -4.11,133.47 0.7,99.52 11.51,200.76 23.26,298.51z"/>
   <path class="fil19" d="M3297.65 5797.83c100.93,-56.87 43.9,37.4 125.87,-87.73 39.91,-60.94 30.67,-74.22 50.96,-167.27 -129.05,103.63 -116.01,85.22 -176.83,255z"/>
  </g>
 </g>
</svg>
