<?xml version="1.0" encoding="UTF-8"?>
<!DOCTYPE svg PUBLIC "-//W3C//DTD SVG 1.1//EN" "http://www.w3.org/Graphics/SVG/1.1/DTD/svg11.dtd">
<!-- Creator: CorelDRAW 2017 -->
<svg xmlns="http://www.w3.org/2000/svg" xml:space="preserve" width="200mm" height="200mm" version="1.1" style="shape-rendering:geometricPrecision; text-rendering:geometricPrecision; image-rendering:optimizeQuality; fill-rule:evenodd; clip-rule:evenodd"
viewBox="0 0 20000 20000"
 xmlns:xlink="http://www.w3.org/1999/xlink">
 <defs>
  <style type="text/css">
   <![CDATA[
    .fil0 {fill:none}
    .fil4 {fill:#FEFEFE}
    .fil1 {fill:#FFF212}
    .fil3 {fill:#020202}
    .fil2 {fill:#030303}
   ]]>
  </style>
 </defs>
 <g id="Capa_x0020_1">
  <metadata id="CorelCorpID_0Corel-Layer"/>
  <rect class="fil0" width="20000" height="20000"/>
  <rect class="fil0" width="20000" height="20000"/>
  <g id="_2384926972608">
   <path class="fil1" d="M11614.58 13669.78c45.49,-18.29 81.31,-25.41 130.43,-52.83 74.02,-41.36 34.88,-16.11 79.27,-68.73 125.57,-31 132.61,-37.57 242.23,-110.39 31.64,-21.02 89.67,-55.05 114.19,-73.6 72.61,-55.09 34.11,-16.63 93.63,-90.05 241.13,-47.84 974.91,-894.62 1181.02,-1270.18 265.14,-483.1 564.29,-1347.27 473.98,-2018.84l-2132.55 -5.71 -5575.59 -9.38c-178.45,124.46 -417.78,-139.86 -139.86,965.05 247.86,985.56 605.44,1399.72 1217.95,2029.67 86.43,88.86 310.28,229.06 368.19,299.54 407.43,269.7 844.84,494.62 1323.26,610.04 299.37,72.19 605.01,104.8 928.64,105.4 694.85,1.24 1110.58,-106.38 1695.21,-309.99z"/>
   <path class="fil1" d="M6880.43 8437.1l237.12 -2.81c154.78,-215.97 178.96,-792.88 996.78,-829.85 703.25,-31.81 880.11,367.98 1087,784.39l267.26 3.5c41.23,-409.38 -668.75,-1379.63 -1785.9,-1006.41 -373.69,124.84 -813.21,604.83 -802.26,1051.18z"/>
   <path class="fil1" d="M13212.44 8404.87c-59.4,-489.76 -626.8,-1018.36 -1201.83,-1086.24 -665.04,-78.5 -1254.66,394.63 -1383.56,890.01 -60.63,232.9 135.9,230.76 246.67,132.61 48.44,-42.98 419.87,-1088.79 1408.12,-681.46 111.67,46.05 289.22,174.73 343.29,232.89 79.78,85.75 155.29,220.19 224.88,350.8 95.85,179.81 118.79,182.24 362.43,161.39z"/>
   <path class="fil1" d="M5284.88 8606.89c19.69,304.66 -351.65,1231.25 94.23,2667.51 324.06,1043.89 914.52,1809.61 1738.36,2450.64 1103.45,858.67 2512.94,1187.89 3929.5,891.97 1593.04,-332.79 2784.51,-1532.58 3321.97,-2819.04 319.11,-763.84 487.28,-1716.87 340.6,-2633.36 -105.53,-659.8 -285.29,-1128.53 -586.67,-1687.02 -68.39,-126.81 -262.66,-380.6 -284.87,-499.09 -147.96,-101.91 -313.27,-347.25 -434.49,-479.14 -150.31,-163.48 -266.67,-247.13 -452.58,-412.32 -1741.89,-1547.42 -4593.77,-1328.76 -6331.83,344.14 -282.02,271.44 -530.13,600.92 -783.41,985.57 -331.39,503.27 -450.31,1076.34 -550.81,1190.14z"/>
   <path class="fil1" d="M107.75 12114.22c27.5,16.59 154.74,218.44 195.12,266.03 121.44,143.05 410.36,311.82 779.06,774.07 464.21,582.07 72.83,1512.75 281.46,1742.41 183.22,81.69 2107.32,81.27 2274.38,-1.07 151.62,-218.74 -105.96,-1090.58 124.37,-1427.6 112.4,-164.46 292.38,-194.1 396.89,-362.61 123.95,-199.76 132.27,-1954.75 125.1,-2219.24 -15.94,-587.86 -615.96,-355.05 -1029.43,-518.7 -93.85,-247.65 10.19,-991.28 -41.49,-1449.95 -20.47,-181.6 -87.07,-254.47 -98.29,-390.87 -247.43,-153.46 -266.11,-313.36 -703.41,-331.01 -334.59,-13.52 -613.33,106.68 -735.96,295.4 -352.45,542.25 -89.58,1388.42 -226.11,1758.02 -158.75,171.19 -802.77,18.76 -1139.71,523.39 -274.04,410.41 -329.21,829.51 -201.98,1341.73z"/>
   <path class="fil1" d="M1693.16 11427.9c110.14,-206.29 30.53,-1448.88 35.69,-1804.49 8.32,-577.63 -13.69,-1170.49 645.39,-1165.07 810.23,6.69 597.46,1149.85 597.08,2139.8 -0.09,283.94 -48.02,715.91 52.74,804.35 95.6,-41.75 63.57,36.88 109.2,-121.95 86,-299.37 -139.09,-630.76 351.18,-602.71 507.32,29 467.75,144.64 464.46,497.05 -4.05,431.85 -2.47,869.07 4.05,1300.88 11.26,747.46 -276.85,496.45 -474.61,813.94 -163.65,262.66 18.97,891.2 -65.03,1236.62 -186.54,104.13 -1594.15,96.28 -1670.64,29.42 -195.89,-171.19 84.38,-945.05 -194.86,-1399.37 -301.59,-490.7 -1425.73,-898.71 -1037.33,-1930.41 168.55,-447.67 896.23,-791.68 1018.56,-434.88l16.25 313.91c0.98,34.07 13.82,200.83 23.96,227.48 49.55,129.58 -18.03,77.95 123.91,95.43z"/>
   <path class="fil1" d="M19957.02 11644.89c22.22,-1367.48 -1129.34,-1290.47 -1298.32,-1372.43 -217.97,-105.74 -95.64,-773.6 -99.6,-1263.91 -2.99,-374.54 -107.07,-487.07 -361.29,-696.25l-82.93 -74.49c-165.31,-8.62 -432.19,-158.88 -808.35,-34.63 -205.44,67.88 -376.59,238.06 -446.48,455.65 -121.9,379.74 62.6,1431.01 -118.58,1650.09 -428.86,281.97 -942.75,-302.61 -977.25,577.25 -19.01,485.57 -30.78,994.52 -32.61,1481.2 -3.37,886.55 365.07,849.88 503.44,1048.92 141.6,203.69 -1.03,1099.33 103.78,1413.37 212.94,64.72 2083.44,86.04 2258.68,7.37 102.04,-224.32 37.27,-797.61 50.4,-1099.58 42.34,-974.43 1148.66,-962.88 1309.11,-2092.56z"/>
   <path class="fil1" d="M17031.97 11319.6c120.67,-232.43 29.17,-1565.59 28.23,-1948.96 -0.72,-292.42 8.66,-608.16 204.24,-776.54 172.05,-148.17 542.67,-188.25 769.81,-45.24 472.48,297.49 60.72,2483.52 245.18,2715.48 248.58,312.54 195.75,-537.94 223.17,-640.79 734.71,-157.21 1571.59,711.65 742.56,1683.57 -228.63,268.03 -530.64,508.05 -757.4,829.97 -290.2,411.94 -31.25,861.36 -130.43,1346.42 -232.98,141.26 -1640.59,78.07 -1714.78,8.02 -192.94,-227.4 37.86,-950.13 -88.26,-1250.61 -213.5,-508.56 -643.47,471.72 -519.65,-2037.94 11.13,-225.44 7.08,-417.57 165.83,-495.85 134.1,-66.14 445.79,-60.25 578.1,-9.38 184.88,231.57 -74.11,586.24 253.4,621.85z"/>
   <path class="fil2" d="M9231.43 12729.5l-20.25 -2241.03c0.81,-4.77 -2.9,-87.54 63.36,-145.18 162.24,-109.63 1369.7,-91.17 1517.53,-5.84 85.96,166.63 61.4,2074.95 53.64,2442.07l21.57 601.85 22.54 275.74 -1658.39 -44.59 12.24 -403.5 7.12 -47.88 -10.58 -335.57 -8.78 -96.07zm-1995.09 -314.03c-156.95,-198.23 -282.1,-336.55 -425.19,-587.4 -145.66,-255.32 -613.33,-1191.89 -429.68,-1483.29 75.26,-64.26 2439.69,-100.76 2525.82,0.68 48.82,118.84 50.53,2816.32 48.99,3182.21l-154.69 -32.32c-502.08,-123.06 -1346.66,-803.78 -1565.25,-1079.88zm3897.1 1088.11l-11.64 -737.24c34.49,-316.9 20.58,-2178.78 30.19,-2392.65 65.79,-186.16 1380.91,-73.9 1799.84,-73.26 82.8,0.13 566.08,-20.89 621.89,43.03 439.1,502.26 -1463.08,3288.59 -2440.28,3160.12zm2321.91 -1499.58c265.14,-483.1 564.29,-1347.27 473.98,-2018.84l-2132.55 -5.71 -5575.59 -9.38c-178.45,124.46 -417.78,-139.86 -139.86,965.05 247.86,985.56 605.44,1399.72 1217.95,2029.67 86.43,88.86 310.28,229.06 368.19,299.54 407.43,269.7 844.84,494.62 1323.26,610.04 299.37,72.19 605.01,104.8 928.64,105.4 1468.94,2.62 2809.73,-652.45 3535.98,-1975.77z"/>
   <path class="fil2" d="M6880.43 8437.1l237.12 -2.81c154.78,-215.97 178.96,-792.88 996.78,-829.85 703.25,-31.81 880.11,367.98 1087,784.39l267.26 3.5c41.23,-409.38 -668.75,-1379.63 -1785.9,-1006.41 -373.69,124.84 -813.21,604.83 -802.26,1051.18z"/>
   <path class="fil2" d="M13212.44 8404.87c-59.4,-489.76 -626.8,-1018.36 -1201.83,-1086.24 -665.04,-78.5 -1254.66,394.63 -1383.56,890.01 -60.63,232.9 135.9,230.76 246.67,132.61 48.44,-42.98 419.87,-1088.79 1408.12,-681.46 111.67,46.05 289.22,174.73 343.29,232.89 79.78,85.75 155.29,220.19 224.88,350.8 95.85,179.81 118.79,182.24 362.43,161.39z"/>
   <path class="fil3" d="M5578.74 10011.55c-2.51,-709.81 76.41,-1269.45 315.96,-1850.62 647.43,-1570.7 2014.66,-2544.63 3761.25,-2702.94 1415.62,-128.31 2408.43,481.26 3186.59,1098.47 1460.74,1158.5 1827.52,3083.07 1250.91,4787.23 -189.79,560.83 -504.63,1078.09 -798.84,1439.11 -286.24,351.31 -758.04,748.66 -1239.14,999.34 -523.57,272.85 -1051.83,455.47 -1737.04,500.84 -2667.97,176.65 -4649.89,-1757.67 -4739.69,-4271.43zm-199.63 1262.85c324.06,1043.89 914.52,1809.61 1738.36,2450.64 1103.45,858.67 2512.94,1187.89 3929.5,891.97 1593.04,-332.79 2784.51,-1532.58 3321.97,-2819.04 319.11,-763.84 487.28,-1716.87 340.6,-2633.36 -212.72,-1329.92 -793.38,-2219.97 -1758.61,-3077.57 -1741.89,-1547.42 -4593.77,-1328.76 -6331.83,344.14 -282.02,271.44 -530.13,600.92 -783.41,985.57 -724.61,1100.43 -839.1,2625.42 -456.58,3857.65z"/>
   <path class="fil3" d="M1693.16 11427.9c110.14,-206.29 30.53,-1448.88 35.69,-1804.49 8.32,-577.63 -13.69,-1170.49 645.39,-1165.07 810.23,6.69 597.46,1149.85 597.08,2139.8 -0.09,283.94 -48.02,715.91 52.74,804.35 95.6,-41.75 63.57,36.88 109.2,-121.95 86,-299.37 -139.09,-630.76 351.18,-602.71 507.32,29 467.75,144.64 464.46,497.05 -4.05,431.85 -2.47,869.07 4.05,1300.88 11.26,747.46 -276.85,496.45 -474.61,813.94 -163.65,262.66 18.97,891.2 -65.03,1236.62 -186.54,104.13 -1594.15,96.28 -1670.64,29.42 -195.89,-171.19 84.38,-945.05 -194.86,-1399.37 -301.59,-490.7 -1425.73,-898.71 -1037.33,-1930.41 168.55,-447.67 896.23,-791.68 1018.56,-434.88l16.25 313.91c0.98,34.07 13.82,200.83 23.96,227.48 49.55,129.58 -18.03,77.95 123.91,95.43zm-1585.41 686.32c27.5,16.59 154.74,218.44 195.12,266.03 121.44,143.05 410.36,311.82 779.06,774.07 464.21,582.07 72.83,1512.75 281.46,1742.41 183.22,81.69 2107.32,81.27 2274.38,-1.07 151.62,-218.74 -105.96,-1090.58 124.37,-1427.6 112.4,-164.46 292.38,-194.1 396.89,-362.61 123.95,-199.76 132.27,-1954.75 125.1,-2219.24 -15.94,-587.86 -615.96,-355.05 -1029.43,-518.7 -93.85,-247.65 10.19,-991.28 -41.49,-1449.95 -49.51,-439.18 -356.76,-703.93 -801.7,-721.88 -334.59,-13.52 -613.33,106.68 -735.96,295.4 -352.45,542.25 -89.58,1388.42 -226.11,1758.02 -158.75,171.19 -802.77,18.76 -1139.71,523.39 -274.04,410.41 -329.21,829.51 -201.98,1341.73z"/>
   <path class="fil3" d="M17031.97 11319.6c120.67,-232.43 29.17,-1565.59 28.23,-1948.96 -0.72,-292.42 8.66,-608.16 204.24,-776.54 172.05,-148.17 542.67,-188.25 769.81,-45.24 472.48,297.49 60.72,2483.52 245.18,2715.48 248.58,312.54 195.75,-537.94 223.17,-640.79 734.71,-157.21 1571.59,711.65 742.56,1683.57 -228.63,268.03 -530.64,508.05 -757.4,829.97 -290.2,411.94 -31.25,861.36 -130.43,1346.42 -232.98,141.26 -1640.59,78.07 -1714.78,8.02 -192.94,-227.4 37.86,-950.13 -88.26,-1250.61 -213.5,-508.56 -643.47,471.72 -519.65,-2037.94 11.13,-225.44 7.08,-417.57 165.83,-495.85 134.1,-66.14 445.79,-60.25 578.1,-9.38 184.88,231.57 -74.11,586.24 253.4,621.85zm2925.05 325.29c22.22,-1367.48 -1129.34,-1290.47 -1298.32,-1372.43 -217.97,-105.74 -95.64,-773.6 -99.6,-1263.91 -2.99,-374.54 -107.07,-487.07 -361.29,-696.25l-82.93 -74.49c-165.31,-8.62 -432.19,-158.88 -808.35,-34.63 -205.44,67.88 -376.59,238.06 -446.48,455.65 -121.9,379.74 62.6,1431.01 -118.58,1650.09 -428.86,281.97 -942.75,-302.61 -977.25,577.25 -19.01,485.57 -30.78,994.52 -32.61,1481.2 -3.37,886.55 365.07,849.88 503.44,1048.92 141.6,203.69 -1.03,1099.33 103.78,1413.37 212.94,64.72 2083.44,86.04 2258.68,7.37 102.04,-224.32 37.27,-797.61 50.4,-1099.58 42.34,-974.43 1148.66,-962.88 1309.11,-2092.56z"/>
   <path class="fil4" d="M11133.44 13503.58l-11.64 -737.24 -5.08 -2241.84c6.48,-79.26 -5.8,8.49 8.02,-65.7 16.24,-87.03 3.45,-40.81 27.25,-85.11 65.79,-186.16 1380.91,-73.9 1799.84,-73.26 82.8,0.13 566.08,-20.89 621.89,43.03 439.1,502.26 -1463.08,3288.59 -2440.28,3160.12z"/>
   <path class="fil4" d="M7236.34 12415.47c-156.95,-198.23 -282.1,-336.55 -425.19,-587.4 -145.66,-255.32 -613.33,-1191.89 -429.68,-1483.29 75.26,-64.26 2439.69,-100.76 2525.82,0.68 48.82,118.84 50.53,2816.32 48.99,3182.21l-154.69 -32.32c-502.08,-123.06 -1346.66,-803.78 -1565.25,-1079.88z"/>
   <path class="fil4" d="M9231.43 12729.5l-20.25 -2241.03c0.81,-4.77 -2.9,-87.54 63.36,-145.18 162.24,-109.63 1369.7,-91.17 1517.53,-5.84 85.96,166.63 61.4,2074.95 53.64,2442.07l21.57 601.85 22.54 275.74 -1658.39 -44.59 12.24 -403.5 7.12 -47.88 -10.58 -335.57 -8.78 -96.07z"/>
  </g>
 </g>
</svg>
