<?xml version="1.0" encoding="UTF-8"?>
<!DOCTYPE svg PUBLIC "-//W3C//DTD SVG 1.1//EN" "http://www.w3.org/Graphics/SVG/1.1/DTD/svg11.dtd">
<!-- Creator: CorelDRAW 2017 -->
<svg xmlns="http://www.w3.org/2000/svg" xml:space="preserve" width="35mm" height="35mm" version="1.1" style="shape-rendering:geometricPrecision; text-rendering:geometricPrecision; image-rendering:optimizeQuality; fill-rule:evenodd; clip-rule:evenodd"
viewBox="0 0 3500 3500"
 xmlns:xlink="http://www.w3.org/1999/xlink">
 <defs>
  <style type="text/css">
   <![CDATA[
    .fil0 {fill:#E6E7E8}
    .fil4 {fill:#84B403}
    .fil1 {fill:#8BC202}
    .fil2 {fill:#8C33B2}
    .fil3 {fill:#C876E8}
   ]]>
  </style>
 </defs>
 <g id="Capa_x0020_1">
  <metadata id="CorelCorpID_0Corel-Layer"/>
  <g id="_2707667339312">
   <path class="fil0" d="M2380.97 2873.93c-238.95,105.41 -522.78,124.73 -761.17,-1.18 -72.07,32.82 -397.28,2.41 -434.01,93.84 141.9,77.33 599.12,81.28 803.52,81.29 128.48,0 640.33,-8.97 772.15,-62.72 31.8,-12.96 16.78,-3.46 33.3,-23.19 -13.01,-25.77 -11.3,-22.4 -40.98,-32.94 -68.22,-24.21 -243.83,-40.33 -324.64,-47.33l-48.17 -7.77z"/>
   <path class="fil1" d="M736.9 1358.16c23.11,-26.96 54.71,-44.72 85.05,-73.77 34.59,-33.12 50.99,-71.97 75.02,-91.29 26.44,7.13 197.58,130.64 255.47,102.32 21.39,-10.46 82.84,-122.68 99.07,-173.77 8.87,-27.91 8.34,-53.94 15.45,-74.76 39.3,2.35 90.67,38.46 131.64,57.62 31.91,14.93 104.81,36.61 129.98,56.29l29.7 -12.69c-17.43,-73.13 -91.22,-185.01 -134.43,-236.09 -42.98,-50.81 -141.57,-120.86 -221.11,-142.64 -43.25,-34.77 -95.89,-22.95 -148.08,-14.45l3.84 -135.09c3.14,-40.52 32.47,-102.27 9.35,-144 -29.86,-53.92 -92.93,-1.97 -111.06,18.91 -59.65,68.71 -10.18,215.96 -14.79,309.96 -37.12,33.52 -66.89,40.49 -107.21,87.66 -87.51,102.36 -131.71,357.13 -124.8,476.39l26.91 -10.6z"/>
   <path class="fil2" d="M2159.25 2063.84c-36.25,-255.73 349.29,-61.14 382.93,178.33 35.17,250.34 -349.6,56.79 -382.93,-178.33zm-1422.35 -705.68c3.13,322.46 169.23,668.36 300.92,899.28 157.38,276 311.64,470.37 581.98,615.31 238.39,125.91 522.22,106.59 761.17,1.18 39.57,-33.49 74.97,-49.68 112.95,-85.59 102.37,-96.81 175.1,-255.43 181.25,-408.21 10.15,-251.86 -144.47,-409.39 -285.49,-496.55 -80.5,-49.75 -178.49,-94.31 -268.57,-126.56 -56.98,-20.4 -102.4,-31.39 -152.44,-50.38 -215.37,-81.71 -400.7,-277.62 -440.09,-545.84 -25.17,-19.68 -98.07,-41.36 -129.98,-56.29 -40.97,-19.16 -92.34,-55.27 -131.64,-57.62 -7.11,20.82 -6.58,46.85 -15.45,74.76 -16.23,51.09 -77.68,163.31 -99.07,173.77 -57.89,28.32 -229.03,-95.19 -255.47,-102.32 -24.03,19.32 -40.43,58.17 -75.02,91.29 -30.34,29.05 -61.94,46.81 -85.05,73.77z"/>
   <path class="fil3" d="M2159.25 2063.84c33.33,235.12 418.1,428.67 382.93,178.33 -33.64,-239.47 -419.18,-434.06 -382.93,-178.33z"/>
   <path class="fil4" d="M730.25 1128.23l-25.01 241.96 32.6 -6.04c14.78,-23.46 71.17,-67.82 90.72,-86.21 25.81,-24.29 47.22,-79.95 80.97,-83.32 -25.96,-43.44 -27.39,-44.07 -15.89,-109.77 4.81,-27.48 18.51,-87.42 27.37,-112.19 26.31,-73.59 65.5,-124.31 91.9,-187.28l-52.67 19.71 -18.08 -51.3c4.69,77.37 1.2,50.68 -56.72,92.37 -27.32,19.67 -51.43,45.94 -70.34,74.72 -35.04,53.33 -68.19,187.62 -84.85,207.35z"/>
  </g>
 </g>
</svg>
