<?xml version="1.0" encoding="UTF-8"?>
<!DOCTYPE svg PUBLIC "-//W3C//DTD SVG 1.1//EN" "http://www.w3.org/Graphics/SVG/1.1/DTD/svg11.dtd">
<!-- Creator: CorelDRAW 2017 -->
<svg xmlns="http://www.w3.org/2000/svg" xml:space="preserve" width="181mm" height="181mm" version="1.1" style="shape-rendering:geometricPrecision; text-rendering:geometricPrecision; image-rendering:optimizeQuality; fill-rule:evenodd; clip-rule:evenodd"
viewBox="0 0 18100 18100"
 xmlns:xlink="http://www.w3.org/1999/xlink">
 <defs>
  <style type="text/css">
   <![CDATA[
    .fil0 {fill:none}
    .fil22 {fill:#070506}
    .fil15 {fill:#383738}
    .fil13 {fill:#4B5870}
    .fil4 {fill:#4D310E}
    .fil12 {fill:#647894}
    .fil7 {fill:#67542E}
    .fil2 {fill:#6B0B0C}
    .fil14 {fill:#6C92B6}
    .fil5 {fill:#8C8D8E}
    .fil3 {fill:#917168}
    .fil11 {fill:#961106}
    .fil8 {fill:#967133}
    .fil9 {fill:#99B3D1}
    .fil16 {fill:#AC916D}
    .fil21 {fill:#C67704}
    .fil18 {fill:#C68837}
    .fil10 {fill:#D0B18D}
    .fil6 {fill:#D0D2CF}
    .fil1 {fill:#D20A09}
    .fil20 {fill:#D7EBF9}
    .fil24 {fill:#FCCC53}
    .fil19 {fill:#FCDA96}
    .fil25 {fill:#FDBA2E}
    .fil17 {fill:#FDE7C9}
    .fil23 {fill:#FEFEFE}
   ]]>
  </style>
 </defs>
 <g id="Capa_x0020_1">
  <metadata id="CorelCorpID_0Corel-Layer"/>
  <rect class="fil0" width="18100" height="18100"/>
  <g id="_1500062232416">
   <path class="fil1" d="M7781.54 9917.35l0 63.77 101.45 51.64c154,-4.62 140.32,-51.91 110.88,78.17 256.72,0.91 86.42,-17.48 136.42,91.95 129.9,-25.55 96.74,-51.64 96.74,81.8l134.52 19.65 233.89 163.87 106.71 25.64c551.39,90.13 585.27,101.91 1121.99,-44.48l209.61 -199.92 120.85 -179.09c-188.6,-81.53 -96.02,124.92 -176.01,-175.64l-209.53 -61.87 -497.76 3.35c1.45,238.42 55.71,273.11 65.31,288.78l-600.94 -312.33 -954.13 104.71z"/>
   <path class="fil2" d="M9956.12 8959.96c17.49,122.02 40.13,84.6 -91.67,91.76l-68.48 5.71 -19.93 60.24c31.07,169.39 51.09,118.12 -128.36,72.65l-143.12 85.96 -156.81 87.42 -102.27 4.71c-102.27,103.81 154.45,115.22 -205.63,54.26l-412.16 11.32c320.13,106.17 106.8,-52.18 387.07,154.72 -161.69,109.34 -1080.32,238.42 -1316.02,207.8l-3.44 78.18 86.24 42.66 954.13 -104.71c396.13,4.44 732.2,-123.29 1033.39,20.2l209.53 61.87 242.49 -18.3 60.06 -16.13 10.69 -502.56c-186.24,-258.89 -69.84,-306.36 -202.55,-538.62l-40.76 54.35c-4.44,134.34 32.43,112.96 -92.4,86.51z"/>
   <g>
    <path class="fil3" d="M6290.41 3297.3c-153.08,-91.22 -390.6,-173.2 -534.36,2.9l534.36 -2.9z"/>
    <polygon class="fil3" points="14001.11,13307.05 13754.9,13317.01 13754.9,13411.68 13976.29,13441.03 "/>
    <path class="fil3" d="M15024.54 12660.09c253.28,126.46 329.1,-22.65 311.25,-313.51 -48.37,86.59 -11.5,-10.42 -66.03,151.27 -4.89,14.59 -17.94,103.09 -21.02,133.16l-224.2 29.08z"/>
    <path class="fil3" d="M14632.94 13015.46c164.14,-67.94 105.81,-47.29 77.82,-293.14 -90.41,153.64 -64.23,-24.27 -77.82,293.14z"/>
    <path class="fil3" d="M8197.41 3136.24l111.88 -162.33c-172.3,-42.58 -136.88,-85.24 -141.23,79.17l29.35 83.16z"/>
    <path class="fil3" d="M9776.04 9117.67c-156.44,-4.17 -136.69,-52.54 -128.36,72.65 179.45,45.47 159.43,96.74 128.36,-72.65z"/>
    <path class="fil3" d="M9956.12 8959.96c-129.71,-26.63 -91.67,-48.37 -91.67,91.76 131.8,-7.16 109.16,30.26 91.67,-91.76z"/>
    <path class="fil3" d="M12816.35 11167.79l-121.48 13.32 33.88 90.67c115.68,-6.52 80.08,21.92 87.6,-103.99z"/>
    <path class="fil3" d="M10048.52 8873.45c-132.53,0 -109.97,-36.33 -92.4,86.51 124.83,26.45 87.96,47.83 92.4,-86.51z"/>
    <path class="fil3" d="M8197.41 3136.24c-107.97,-15.4 -77.72,-33.79 -63.41,81.8 141.86,57.7 103.18,66.85 63.41,-81.8z"/>
    <path class="fil3" d="M8304.94 3396.76c-116.77,-17.93 -83.34,-42.76 -100.91,73.83 135.06,0 118.93,40.94 100.91,-73.83z"/>
    <path class="fil3" d="M6816.17 8902.8c48.28,-123.38 58.7,-85.24 -80.08,-75.19l24.82 104 55.26 -28.81z"/>
    <path class="fil3" d="M6037.68 3842.62c-119.03,-55.17 -102.36,-75.73 -60.6,49.46 133.16,44.48 131.89,78.09 60.6,-49.46z"/>
    <path class="fil3" d="M14558.66 10190.83c-142.31,-41.31 -94.57,-48.01 -49.55,100.73l49.55 -100.73z"/>
    <polygon class="fil3" points="7096.35,9051.81 7096.35,8963.22 6975.78,8974.18 "/>
    <polygon class="fil3" points="8596.35,3190.86 8576.6,3131.35 8442.54,3223.65 "/>
    <path class="fil3" d="M8363.18 3302.82l-58.24 93.94c117.21,20.75 79.71,35.51 58.24,-93.94z"/>
    <polygon class="fil3" points="8912.58,2994.65 8912.58,2918.38 8802.25,2981.88 "/>
    <path class="fil3" d="M6990 3367.77l-99.01 -71.47c0,112.6 -24.54,79.35 99.01,71.47z"/>
    <path class="fil3" d="M7078.14 3601.57c0,-111.87 24.82,-76.36 -99.1,-81.61l99.1 81.61z"/>
    <polygon class="fil3" points="9504.56,9276.28 9347.75,9363.7 "/>
    <polygon class="fil3" points="8057.55,3675.76 7962.89,3754.48 "/>
    <polygon class="fil3" points="14199.31,13045.8 14093.69,13097.71 "/>
    <polygon class="fil3" points="6624.49,3140.04 6496.4,3083.16 "/>
   </g>
   <g>
    <path class="fil4" d="M5524.15 3391.05c151.83,-17.75 139.14,29.9 100.37,-98.19l-78.99 -80.44 -122.56 -5.34 -7.7 58.24c-29.53,182.8 -71.2,145.93 108.88,125.73z"/>
    <path class="fil4" d="M13285.04 13108.03c54.08,-197.47 89.86,-146.2 -117.31,-146.2l-17.94 149.37 135.25 -3.17z"/>
    <path class="fil4" d="M16037.56 11874.81c11.59,-168.85 46.29,-123.47 -132.08,-106.44 -13.22,156.35 -42.48,106.44 132.08,106.44z"/>
    <path class="fil4" d="M6760.91 8931.61l-24.82 -104 -82.43 8.16c-21.65,147.38 -48.92,107.16 107.25,95.84z"/>
    <polygon class="fil4" points="7551.18,9706.74 7517.39,9575.94 7357.69,9578.84 "/>
    <polygon class="fil4" points="12978.86,12731.74 13114.46,12763.09 12968.26,12645.33 12961.56,12760.01 "/>
    <path class="fil4" d="M15654.38 11505.94l-5.07 -2.08 -133.98 -36.41c0,141.22 -22.19,90.4 139.05,38.49z"/>
    <polygon class="fil4" points="6408.72,3118.48 6261.7,3007.15 "/>
   </g>
   <g>
    <path class="fil5" d="M9131.8 7071.8l4.44 -108.25 -10.69 -178 -133.89 16.94c-25.81,207.62 -80.98,195.57 140.14,269.31z"/>
    <path class="fil5" d="M14280.84 10414.48l124.92 166.95 103.35 -289.87c-199.83,217.77 8.88,74.64 -228.27,122.92z"/>
    <path class="fil5" d="M15108.52 10227.7l0 -94.3c-173.38,-7.61 -149.11,-60.78 -147.02,76.09l147.02 18.21z"/>
    <polygon class="fil5" points="14280.84,10414.48 14072.58,10321.36 14059.45,10435.77 "/>
    <path class="fil5" d="M9343.95 2893.47l139.77 119.75c5.44,-291.59 40.22,-58.42 -94.48,-168.94l-45.29 49.19z"/>
    <path class="fil5" d="M6355.82 6502.2c-140.23,-13.04 -106.26,-45.74 -106.26,93.39 140.41,0.19 111.87,38.14 106.26,-93.39z"/>
    <polygon class="fil5" points="13718.03,10668.85 13553.17,10559.51 13502.71,10663.77 "/>
    <path class="fil5" d="M12924.87 10893.59c-132.16,1.36 -108.88,-36.78 -104.26,79.99 141.31,47.55 104.26,71.01 104.26,-79.99z"/>
    <polygon class="fil5" points="14782.95,10217.1 14726.7,10113.29 14558.66,10190.83 "/>
    <path class="fil5" d="M15431.45 12280.63c-142.67,-23.01 -129.72,-63.95 -95.66,65.95 145.85,32.24 130.63,71.83 95.66,-65.95z"/>
    <polygon class="fil5" points="14001.11,13307.05 14098.85,13274.89 14093.69,13097.71 "/>
    <path class="fil5" d="M7671.29 9282.89l-165.49 -91.21c74.46,144.12 -132.8,128.35 165.49,91.21z"/>
    <polygon class="fil5" points="14962.67,10293.92 14961.5,10209.49 14782.95,10217.1 "/>
    <polygon class="fil5" points="7954.37,9376.65 7788.51,9293.22 7788.51,9370.13 "/>
    <path class="fil5" d="M13816.59 10719.94c0,-116.5 23.01,-85.42 -98.56,-51.09l16.67 34.42 81.89 16.67z"/>
    <path class="fil5" d="M7979.01 3508.91c-122.56,0 -81.16,-24.64 -73.83,118.66l73.83 -118.66z"/>
    <polygon class="fil5" points="6975.78,8974.18 6902.95,8899.45 6877.04,9004.35 "/>
    <polygon class="fil5" points="8698.98,2762.66 8698.98,2688.66 8587.2,2755.6 "/>
    <path class="fil5" d="M9588.44 7049.88l-83.52 88.59c111.69,-5.43 83.52,23.74 83.52,-88.59z"/>
    <polygon class="fil5" points="8503.23,2847.63 8587.2,2755.6 8441.18,2839.57 "/>
    <polygon class="fil5" points="14398.87,13122.26 14398.87,13034.12 14371.15,13018.35 "/>
    <polygon class="fil5" points="8304.39,9431.27 8100.58,9363.7 "/>
    <polygon class="fil5" points="7284.4,9158.16 7138.74,9039.13 "/>
   </g>
   <g>
    <polygon class="fil6" points="9489.43,6050.73 9394.31,6083.7 9355.54,6142.31 9583.18,6122.38 9569.69,6364.15 9667.16,6358.35 9771.96,6210.88 9546.86,6005.7 "/>
    <path class="fil6" d="M10419.56 4984.81l30.98 -151.1c-131.62,-39.76 -79.17,18.48 -213.42,-81.43l23.19 183.61 159.25 48.92z"/>
    <path class="fil6" d="M12694.87 11181.11l121.48 -13.32 4.26 -194.21c-109.61,65.58 -94.12,-154.18 -125.74,207.53z"/>
    <path class="fil6" d="M8742.83 3637.63c-148.47,1.9 -121.12,-41.76 -126.46,82.34 159.25,30.07 126.46,69.39 126.46,-82.34z"/>
    <path class="fil6" d="M9292.95 2760.49c46.11,-152.82 63.23,-108.7 -102.45,-85.06 0,121.11 -27.63,85.97 102.45,85.06z"/>
    <path class="fil6" d="M8434.11 2910.77l7.07 -71.2c-157.35,-46.38 -126.19,-81.89 -116.5,76.18l109.43 -4.98z"/>
    <path class="fil6" d="M9362.97 7282.96c-141.22,-15.04 -109.7,-49.65 -109.7,86.32 134.43,-10.05 109.7,30.26 109.7,-86.32z"/>
    <path class="fil6" d="M3229.99 15035.23l-184.97 -66.12c68.57,105.89 -83.43,110.42 184.97,66.12z"/>
    <path class="fil6" d="M8669.54 7207.32c47.11,-147.29 78.81,-114.77 -70.74,-114.77l70.74 114.77z"/>
    <path class="fil6" d="M6007.34 4011.92l-95.75 88.42c124.55,0 95.47,32.33 95.75,-88.42z"/>
   </g>
   <g>
    <path class="fil7" d="M12656.92 11454.85c-10.78,267.77 -52.09,406.01 114.77,579.3l-42.94 -762.37 -58.97 5.26 -12.86 177.81z"/>
    <path class="fil7" d="M5547.8 3080.8l-12.23 81.07c283.89,-102.09 278.46,-181.17 634.09,-143.39 -115.58,-124.1 34.88,-109.07 -276.73,-98.65l-244.58 64.86 -100.55 96.11z"/>
    <polygon class="fil7" points="13164.83,13037.74 13114.46,12763.09 12978.86,12731.74 "/>
    <polygon class="fil7" points="7123.62,3586.54 7123.62,3676.67 7352.8,3686.27 7177.33,3545.32 "/>
    <path class="fil7" d="M6920.8 9135.6c-19.93,-147.47 20.83,-110.78 -133.35,-95.75l11.15 95.75 122.2 0z"/>
    <polygon class="fil7" points="15515.33,11467.45 15649.31,11503.86 15478.47,11281.93 "/>
    <polygon class="fil7" points="13330.15,13331.15 13488.67,13351.8 13332.41,13202.79 "/>
    <path class="fil7" d="M15831.84 11626.51c24.46,-126.45 41.76,-90.76 -92.04,-63.13 -30.61,134.79 -47.46,98.37 92.04,63.13z"/>
    <path class="fil7" d="M7058.03 9277.73c18.21,-116.85 39.77,-79.71 -85.78,-94.93l-11.51 115.68 97.29 -20.75z"/>
    <path class="fil7" d="M7154.32 9368.14c-8.6,-131.08 28,-106.17 -96.29,-90.41l-13.22 90.31 109.51 0.1z"/>
    <path class="fil7" d="M6877.04 9004.35l25.91 -104.9 -86.78 3.35c-41.4,132.53 -71.92,106.07 60.87,101.55z"/>
    <path class="fil7" d="M15739.8 11563.38c29.26,-143.22 50.28,-114.5 -85.42,-57.44 -23.64,118.4 -39.31,85.06 85.42,57.44z"/>
    <path class="fil7" d="M8434.11 2910.77l-109.43 4.98 6.98 80.9c134.16,-13.77 115.41,28.08 102.45,-85.88z"/>
    <path class="fil7" d="M12871.24 12523.49c18.85,-333.63 27.72,-128 -86.14,-197.75l86.14 197.75z"/>
    <path class="fil7" d="M12816.17 12299.29c-13.23,-390.69 5.98,-147.29 -90.77,-231.81l90.77 231.81z"/>
    <path class="fil7" d="M8712.57 3072.01l10.6 -100.27c-116.4,6.7 -82.8,-22.11 -82.8,103.17l72.2 -2.9z"/>
    <path class="fil7" d="M8141.25 3296.75l-99.01 0 4.98 60.61c115.32,26.9 88.05,52.72 94.03,-60.61z"/>
    <polygon class="fil7" points="12864.36,12655.47 12968.26,12645.33 12871.24,12523.49 "/>
    <polygon class="fil7" points="7695.3,9874.69 7698.74,9796.51 7551.18,9706.74 "/>
    <path class="fil7" d="M8442.54 3223.65c-137.24,-52.72 -102,-68.75 -79.36,79.17l79.36 -79.17z"/>
    <polygon class="fil7" points="13332.41,13202.79 13285.04,13108.03 13233.67,13229.06 "/>
    <polygon class="fil7" points="15905.48,11768.37 15914.54,11659.31 15831.84,11626.51 "/>
    <polygon class="fil7" points="7788.51,9370.13 7788.51,9293.22 7671.29,9282.89 "/>
    <path class="fil7" d="M7081.4 3444.14c0,-113.96 26.82,-84.61 -91.4,-76.37l91.4 76.37z"/>
    <polygon class="fil7" points="6595.14,3381.18 6503.83,3305.63 6503.83,3371.76 "/>
    <polygon class="fil7" points="8503.23,2847.63 8441.18,2839.57 8434.11,2910.77 "/>
    <polygon class="fil7" points="6753.76,3231.08 6626.76,3148.01 6624.49,3140.04 "/>
    <polygon class="fil7" points="15247.02,10832.17 15194.48,10688.78 "/>
   </g>
   <g>
    <path class="fil8" d="M10094.54 8715.83l-5.26 103.27c132.71,232.26 16.31,279.73 202.55,538.62l-3.17 -621.42 -79.99 -46.19 -114.13 25.72z"/>
    <polygon class="fil8" points="5865.03,7513.04 5934.6,7511.95 6270.21,7428.71 6214.14,7389.85 5964.4,7351.17 5833.32,7370.1 5821.91,7445.37 "/>
    <path class="fil8" d="M6758.38 9025.27l2.53 -93.66c-156.17,11.32 -128.9,51.54 -107.25,-95.84l-73.37 -244.31 -120.48 40.31c70.84,276.74 57.07,238.78 298.57,393.5z"/>
    <path class="fil8" d="M15138.23 10463.94c7.97,274.93 -26.91,130.81 96.02,174.92l-43.75 -504.37 -81.98 -1.09 0 94.3 29.71 236.24z"/>
    <path class="fil8" d="M5311.55 3534c177.91,59.96 163.78,-41.58 212.6,-142.95 -180.08,20.2 -138.41,57.07 -108.88,-125.73l-103.72 268.68z"/>
    <path class="fil8" d="M15380.54 10998.12c-36.05,-290.86 -17.75,-105.62 -133.52,-165.95 63.86,271.31 24.64,120.39 133.52,165.95z"/>
    <path class="fil8" d="M10421.64 4953.74c130.35,75.28 129.45,-135.06 98.01,178l78.9 -14.04 -148.01 -283.99 -30.98 151.1 2.08 -31.07z"/>
    <path class="fil8" d="M7905 3892.44l-88.86 2 -77.18 100.82c294.4,14.31 41.4,35.78 166.04,-102.82z"/>
    <path class="fil8" d="M7357.69 9578.84l-211.07 -146.3c145.21,246.94 8.25,126.1 211.07,146.3z"/>
    <path class="fil8" d="M15478.47 11281.93c33.51,-247.39 34.06,-112.69 -62.87,-155.9l62.87 155.9z"/>
    <path class="fil8" d="M15415.6 11126.03c46.29,-163.32 105.26,-158.25 -35.06,-127.91l35.06 127.91z"/>
    <path class="fil8" d="M5588.56 7063.01c29.89,-133.7 77.54,-143.3 -42.57,-80.62l42.57 80.62z"/>
   </g>
   <g>
    <path class="fil9" d="M6345.58 6410.26l85.97 25.54c8.78,-16.39 21.74,-44.66 27.71,-48.55 3.81,-2.45 31.17,21.56 34.25,8.51 6.88,-28.53 27.08,43.94 40.85,65.68l57.34 164.59c133.25,211.34 107.89,49.91 20.74,217.13l9.33 73.11 115.5 0.18 52.36 -466.33 -442.33 -173.57 -1.72 133.71z"/>
    <path class="fil9" d="M9569.78 6658.01c207.44,-62.69 137.6,-129.27 97.38,-299.66l-97.47 5.8 -63.96 0.82 -24.82 102.81 88.87 190.23z"/>
    <path class="fil9" d="M6852.31 6986.38c77.82,-177.82 125.83,-506.92 -102.81,-595.33l102.81 595.33z"/>
    <path class="fil9" d="M15855.93 12161.42c127.09,-14.13 43.58,166.68 115.59,-116.4l7.43 -52.09 -112.69 0 -10.33 168.49z"/>
    <polygon class="fil9" points="13325.8,10954.1 13427.98,10933.9 13420.28,10736.79 "/>
    <path class="fil9" d="M13193.64 10974.39c0,-117.22 23.73,-76.72 -114.32,-74.64l11.86 67.39 102.46 7.25z"/>
    <path class="fil9" d="M9000.9 2912.67l-88.32 5.71 0 76.27c114.41,-2.8 88.32,27.81 88.32,-81.98z"/>
    <polygon class="fil9" points="9489.43,6050.73 9546.86,6005.7 9427.2,5908.96 "/>
    <polygon class="fil9" points="12728.75,11271.78 12694.87,11181.11 12669.78,11277.04 "/>
    <polygon class="fil9" points="14882.78,12661.18 14811.94,12664.35 14794.64,12728.84 "/>
    <polygon class="fil9" points="9355.54,6142.31 9394.31,6083.7 9300.38,6166.67 "/>
    <polygon class="fil9" points="9024.73,6033.51 8957.87,6126.36 "/>
    <polygon class="fil9" points="9127.81,6009.69 9024.73,6033.51 "/>
   </g>
   <g>
    <path class="fil10" d="M499.4 11693.28l-39.86 -1292.93c-126.28,218.95 -136.15,1213.12 39.86,1292.93z"/>
    <path class="fil10" d="M5287 2997.55c326.38,-26 157.8,-81.62 260.8,83.25l100.55 -96.11 244.58 -64.86 0 -85.51c-291.42,26.63 -393.05,1.08 -605.93,163.23z"/>
    <path class="fil10" d="M11967.29 15238.05l-713.44 13.14c165.95,139.14 588.53,167.94 713.44,-13.14z"/>
    <path class="fil10" d="M7409.87 14060.27l-1015.19 -2.9c287.51,102.36 729.75,102.36 1015.19,2.9z"/>
    <path class="fil10" d="M17613.38 10436.32l81.07 0c36.78,-193.59 102.63,-358.54 -90.59,-471.14l9.52 471.14z"/>
    <polygon class="fil10" points="13754.9,13411.68 13754.9,13317.01 13488.67,13351.8 13330.15,13331.15 13298.17,13432.78 "/>
    <path class="fil10" d="M8992.3 14058.18c-6.71,-295.58 62.32,-233.89 -138.69,-320.04 51.18,371.49 -14.04,139.6 138.69,320.04z"/>
    <path class="fil10" d="M8849.63 3148.92l-47.38 -167.04 -79.08 -10.14 -10.6 100.27c-16.49,160.79 -40.94,109.79 137.06,76.91z"/>
    <path class="fil10" d="M10616.22 5368.17l-17.67 -250.47 -78.9 14.04c-11.05,300.11 -45.83,124.19 96.57,236.43z"/>
    <path class="fil10" d="M9372.85 8885.23c-370.68,-11.51 -128.73,-24.64 -214.24,98.28 352.92,-10.78 145.39,18.57 214.24,-98.28z"/>
    <path class="fil10" d="M5669.82 7238.84l95.02 -12.23c-36.23,-254.54 27.72,-101.82 -152.73,-168.12l57.71 180.35z"/>
    <path class="fil10" d="M2746.18 14873.45c0,-172.39 35.96,-121.84 -153.36,-95.93 0,152.73 -30.26,98.1 153.36,95.93z"/>
    <path class="fil10" d="M10847.12 15325.11c-343.77,9.42 -134.97,-19.48 -205.45,100.36 352.2,-7.79 126.73,17.67 205.45,-100.36z"/>
    <path class="fil10" d="M9598.95 3476.66c0,-150.01 30.07,-96.39 -149.65,-97.74 0,167.31 -35.24,117.48 149.65,97.74z"/>
    <path class="fil10" d="M10519.65 5131.74c31.44,-313.06 32.34,-102.72 -98.01,-178 6.61,288.87 -25.91,122.56 98.01,178z"/>
    <path class="fil10" d="M17640.73 9954.49c0.46,-185.88 57.25,-157.89 -90.13,-157.89 -11.32,188.33 -66.85,157.89 90.13,157.89z"/>
    <path class="fil10" d="M10094.54 8715.83l114.13 -25.72c-56.43,-138.24 176.74,-97.47 -156.35,-98.74l22.02 114.04 20.2 10.42z"/>
    <path class="fil10" d="M10596.47 6578.38c-140.86,0 -85.24,-26.18 -84.34,154.72 160.61,0 107.53,31.16 84.34,-154.72z"/>
    <path class="fil10" d="M12918.35 13578.08c-173.11,-18.3 -143.04,-67.3 -143.04,83.43 170.49,6.88 143.04,57.52 143.04,-83.43z"/>
    <path class="fil10" d="M10216.1 3863.18c0,-148.19 36.96,-116.31 -109.51,-97.1 -47.92,157.8 -65.77,109.42 109.51,97.1z"/>
    <path class="fil10" d="M4292.29 3466.24l-27.63 -116.22c-237.52,51.54 -67.4,-8.15 -131.53,119.75l159.16 -3.53z"/>
    <path class="fil10" d="M11676.43 5377.86c34.96,-139.59 58.6,-100.73 -90.32,-100.73l-39.4 134.25 129.72 -33.52z"/>
    <path class="fil10" d="M5532.58 6867.53l7.25 -136.33 -98.02 0c-15.22,168.49 -60.96,136.33 90.77,136.33z"/>
    <path class="fil10" d="M12516.87 7591.49l-105.89 -302.83c-8.42,243.49 -60.51,202.64 105.89,302.83z"/>
    <path class="fil10" d="M11964.49 10919.04c-147.93,0 -100.46,-30.52 -89.14,138.24 134.07,0 83.88,26.45 89.14,-138.24z"/>
    <path class="fil10" d="M1883.72 5925.36l-40.31 -119.76c-129.09,0 -95.03,-28.8 -77.27,107.44l117.58 12.32z"/>
    <path class="fil10" d="M1218.28 13615.49l28.72 -111.96 -101.82 2.44c-33.88,140.41 -65.68,109.52 73.1,109.52z"/>
    <path class="fil10" d="M9523.58 15097.19c36.32,-152 65.22,-125.18 -84.97,-82.43 -13.32,133.71 -44.48,109.43 84.97,82.43z"/>
    <polygon class="fil10" points="4441.12,14984.23 4459.05,14948.82 4269.46,14936.95 4252.07,15020.65 "/>
    <path class="fil10" d="M11516.81 5157.19c-13.04,-145.93 31.71,-120.57 -91.21,-120.57 4.25,148.38 -38.87,120.57 91.21,120.57z"/>
    <path class="fil10" d="M7484.87 7218.46c201.46,-63.86 123.38,132.34 177.27,-159.61l-177.27 159.61z"/>
    <polygon class="fil10" points="1222.99,7596.11 1299.26,7620.57 1297.09,7350.08 "/>
    <path class="fil10" d="M8141.25 3296.75l-7.25 -78.71c-138.5,-54.17 -102.09,-72.74 -91.76,78.71l99.01 0z"/>
    <path class="fil10" d="M9588.89 15186.15c30.98,-135.7 65.31,-117.67 -65.31,-88.96 -34.88,129.45 -64.04,105.99 65.31,88.96z"/>
    <path class="fil10" d="M11976.17 5937.58l-91.22 -193.94c-35.6,334.26 -31.79,121.2 91.22,193.94z"/>
    <path class="fil10" d="M3225.74 4069.99c-126.28,-13.23 -97.56,-43.66 -97.56,78.81 128.63,-3.44 108.34,34.42 97.56,-78.81z"/>
    <path class="fil10" d="M10490.67 4082.13c14.85,-118.67 46.01,-96.02 -63.78,-93.3 -13.4,133.16 -53.08,121.02 63.78,93.3z"/>
    <path class="fil10" d="M11211 4781.72l-112.87 -117.31c-12.05,165.23 -51,127.45 112.87,117.31z"/>
    <path class="fil10" d="M3297.39 3986.74c-109.15,-6.52 -80.89,-30.16 -71.65,83.25 121.83,13.95 95.11,39.04 71.65,-83.25z"/>
    <path class="fil10" d="M8745.36 7313.94l-75.82 -106.62c-47.19,153.09 -79.98,123.65 75.82,106.62z"/>
    <path class="fil10" d="M1145.18 13505.97c31.88,-146.47 73.64,-131.98 -63.14,-100.36l63.14 100.36z"/>
    <path class="fil10" d="M1988.53 5492.45c-128.73,0 -94.39,-27.72 -70.84,108.7l70.84 -108.7z"/>
    <polygon class="fil10" points="2319.34,5186 2321.7,5076.48 2224.5,5157.19 "/>
    <path class="fil10" d="M3988.55 3522.95c-138.14,-12.14 -113.59,-51 -113.59,69.84l113.59 -69.84z"/>
    <path class="fil10" d="M10593.12 4153.42c0,-125.37 27.9,-93.94 -102.45,-71.29l102.45 71.29z"/>
    <polygon class="fil10" points="7138.74,9039.13 7096.35,8963.22 7096.35,9051.81 "/>
    <polygon class="fil10" points="5345.07,14332.11 5457.3,14174.58 "/>
    <polygon class="fil10" points="17621.35,10568.84 17565.55,10663.96 "/>
    <polygon class="fil10" points="8047.22,3357.36 7981.82,3497.04 "/>
    <polygon class="fil10" points="8312.37,13897.12 8144.42,13983.09 "/>
    <polygon class="fil10" points="7998.22,13966.24 7765.59,14062.8 "/>
    <polygon class="fil10" points="5190.8,2990.76 5039.34,3053.81 "/>
   </g>
   <g>
    <path class="fil11" d="M8735.67 9812.64l600.94 312.33c-9.6,-15.67 -63.86,-50.36 -65.31,-288.78l497.76 -3.35c-301.19,-143.49 -637.26,-15.76 -1033.39,-20.2z"/>
    <path class="fil11" d="M10154.6 10070.35l43.66 1.81 22.82 -195.75 -242.49 18.3c79.99,300.56 -12.59,94.11 176.01,175.64z"/>
   </g>
   <g>
    <path class="fil12" d="M6328.46 6229.63l18.84 46.92 442.33 173.57 -52.36 466.33 -53.99 125.55 35.15 71.29 133.88 -126.91 -102.81 -595.33c-59.88,-231.08 -389.7,-501.2 -510.81,-212.24l260.16 19.84 -170.39 30.98z"/>
    <path class="fil12" d="M8991.66 6802.49l133.89 -16.94 27.35 -46.29c-140.58,-52.54 -107.7,98.56 -108.88,-143.48 -155.08,32.52 -92.49,-114.32 -137.14,47.1l84.78 159.61z"/>
    <path class="fil12" d="M9394.31 6083.7l95.12 -32.97 -62.23 -141.77c-304.82,16.4 -122.93,-33.79 -299.39,100.73 399.12,-93.39 174.38,-142.31 266.5,74.01z"/>
    <path class="fil12" d="M9480.91 6467.78l24.82 -102.81 -109.24 3.98c0,144.57 -42.49,128.36 84.42,98.83z"/>
    <path class="fil12" d="M9367.86 6374.39l-54.98 -113.69c-47.83,137.15 -80.99,108.7 54.98,113.69z"/>
    <path class="fil12" d="M6534.36 6461.44c-13.77,-21.74 -33.97,-94.21 -40.85,-65.68 -3.08,13.05 -30.44,-10.96 -34.25,-8.51 -5.97,3.89 -18.93,32.16 -27.71,48.55l102.81 25.64z"/>
   </g>
   <g>
    <polygon class="fil13" points="9315.05,6928.77 9136.24,6963.55 9131.8,7071.8 9504.92,7138.47 9588.44,7049.88 9739.9,6845.61 9573.85,6858.38 9569.78,6658.01 9480.91,6467.78 9472.85,6885.47 "/>
    <path class="fil13" d="M6215.32 7203.15c215.95,79.44 214.96,125.37 449.21,21.29l108.88 -0.18 -54.98 -110.97 -35.15 -71.29 -167.04 -19.57c-132.34,117.76 -31.7,151.64 -332.99,24.19l32.07 156.53z"/>
    <path class="fil13" d="M9024.73 6033.51l-66.86 92.85 23.92 76.46c108.52,201.37 -34.51,48.64 318.59,-36.15l93.93 -82.97c-92.12,-216.32 132.62,-167.4 -266.5,-74.01l-103.08 23.82z"/>
    <path class="fil13" d="M15855.93 12161.42l-385.16 -0.54 -39.32 119.75c286.79,10.96 348.21,105.17 424.48,-119.21z"/>
    <polygon class="fil13" points="13427.98,10933.9 13325.8,10954.1 13193.64,10974.39 13091.18,10967.14 13253.88,11108.37 "/>
    <polygon class="fil13" points="14632.94,13015.46 14398.87,13034.12 14398.87,13122.26 14588.1,13130.05 "/>
    <path class="fil13" d="M14371.15 13018.35c-4.25,-4.16 -163.14,-225.73 -171.84,27.45l171.84 -27.45z"/>
    <polygon class="fil13" points="14882.78,12661.18 15024.54,12660.09 14951.62,12537.8 14811.94,12664.35 "/>
    <path class="fil13" d="M15978.95 11992.93l-14.95 -104.72c-137.42,3.72 -105.35,-31.79 -97.74,104.72l112.69 0z"/>
    <polygon class="fil13" points="13940.15,10736.51 13816.59,10719.94 13734.7,10703.27 13801.73,10826.74 "/>
    <path class="fil13" d="M9380.27 2854.52c0,-123.47 32.07,-95.03 -87.32,-94.03 -42.67,148.92 -68.03,114.23 87.32,94.03z"/>
    <path class="fil13" d="M6621.77 6916.27l-9.33 -73.11c-129.08,-16.21 -84.24,-36.59 -85.24,113.24l94.57 -40.13z"/>
    <path class="fil13" d="M13502.71 10663.77c-112.96,-1.81 -91.94,-32.33 -82.43,73.02 127,33.69 99.01,57.43 82.43,-73.02z"/>
    <path class="fil13" d="M6431.55 6435.8l-85.97 -25.54 10.24 91.94c131.89,11.87 125.73,49.37 75.73,-66.4z"/>
    <path class="fil13" d="M6612.44 6843.16c87.15,-167.22 112.51,-5.79 -20.74,-217.13l20.74 217.13z"/>
    <path class="fil13" d="M14794.64 12728.84l17.3 -64.49c-149.1,-11.69 -152.18,-62.14 -101.18,57.97l83.88 6.52z"/>
    <polygon class="fil13" points="8739.75,2675.88 8698.98,2688.66 8698.98,2762.66 "/>
   </g>
   <g>
    <path class="fil14" d="M6215.32 7203.15l-32.07 -156.53 -37.59 -475.39 -139.41 -207.53c-115.23,340.05 -108.07,653.12 209.07,839.45z"/>
    <path class="fil14" d="M8981.79 6202.82c-137.51,162.78 -190.05,521.77 9.87,599.67l-84.78 -159.61c44.65,-161.42 -17.94,-14.58 137.14,-47.1 61.24,-296.76 22.74,-239.96 268.86,-335.08l-12.5 -94.03c-353.1,84.79 -210.07,237.52 -318.59,36.15z"/>
    <path class="fil14" d="M9667.16 6358.35c40.22,170.39 110.06,236.97 -97.38,299.66l4.07 200.37 166.05 -12.77c144.66,-298.39 47.92,-315.87 32.06,-634.73l-104.8 147.47z"/>
   </g>
   <g>
    <path class="fil15" d="M13435.32 12520.41c284.89,47.28 175.55,-30.8 209.43,208.07 -216.77,-18.75 -188.14,117.76 -209.43,-208.07zm209.34 340.15c21.74,-52.73 149.1,-1.36 128.81,-337.8 -247.48,-200.46 -560.09,-244.3 -469.59,176.74 13.77,64.13 82.52,148.83 117.49,207.53l223.29 -46.47z"/>
    <path class="fil15" d="M13224.62 11831.15l-223.57 -24.01c118.4,-218.49 59.43,-290.6 223.57,24.01zm60.96 -263.52c-383.63,-150.01 -458.36,37.23 -378.1,402.75l420.58 19.11 -42.48 -421.86z"/>
    <path class="fil15" d="M15366.05 11525.6c131.89,297.21 102.72,18.48 -20.29,283.81 -112.42,-206.72 -148.29,168.48 -59.24,-147.21l79.53 -136.6zm-13.32 -129.35c-270.94,105.71 -115.22,12.23 -292.95,198.11 154.36,252.37 86.69,416.23 460.17,230.35 87.15,-257.8 49.73,-269.49 -167.22,-428.46z"/>
    <path class="fil15" d="M14810.31 11117.7c26.27,-326.02 -22.83,-136.97 85.6,-274.2 285.53,153.27 95.66,205.53 -85.6,274.2zm0 0c42.57,141.04 -97.83,103.81 144.75,86.6 284.08,-20.2 248.57,-252.65 90.23,-486.36 -325.48,0.91 -162.42,-85.87 -390.24,176.92 80.62,281.99 46.92,141.31 155.26,222.84z"/>
    <path class="fil15" d="M14233.64 11197.5c277.47,-254.9 155.09,-79.26 242.41,82.44 -207.71,43.75 -118.94,170.3 -242.41,-82.44zm-106.07 -175.82c-55.08,394.4 -8.52,474.21 362.07,411.89 155.26,-252.28 115.31,-124.83 54.98,-441.88l-417.05 29.99z"/>
    <path class="fil15" d="M14635.66 11877.71l270.67 81.98c-64.41,143.94 85.69,206.08 -154.09,146.38 -135.33,-33.7 -69.47,-46.29 -116.58,-228.36zm0 0c-94.48,118.03 -127.27,-231.09 -74.28,248.38 201.37,186.79 176.1,197.84 436.98,51.36 56.98,-277.55 80.72,-296.21 -196.29,-434.9 -312.25,70.48 -83.98,9.51 -166.41,135.16z"/>
    <path class="fil15" d="M14319.43 12341.5c-194.22,167.95 -150.55,190.68 -262.61,-74.01 224.11,-70.74 127.27,-191.04 262.61,74.01zm-318.86 130.63c222.29,156.26 84.88,156.44 358.99,65.4 160.79,-346.67 -27.36,-570.23 -392.33,-398.58l33.34 333.18z"/>
    <path class="fil15" d="M13712.06 11646.9c-84.16,-182.71 -59.7,-31.8 -6.71,-184.62 94.57,-272.21 -48.37,3.17 123.11,-56.25 45.11,319.77 36.05,129.36 -116.4,240.87zm-127.19 73.37l364.07 30.71 -4.08 -441.88c-360.26,-60.15 -535.9,91.31 -359.99,411.17z"/>
    <path class="fil15" d="M13940.15 10736.51c200.64,13.41 118.39,-39.49 119.3,-300.74 -180.72,91.49 -116.67,38.41 -119.3,300.74z"/>
    <polygon class="fil15" points="15138.23,10463.94 15108.52,10227.7 14961.5,10209.49 14962.67,10293.92 "/>
    <polygon class="fil15" points="6328.46,6229.63 6498.85,6198.65 6238.69,6178.81 6142.67,6168.94 "/>
   </g>
   <g>
    <path class="fil16" d="M8140.07 5125.4l242.86 1886.89 135.88 15.94c-203.82,-797.42 -456.64,-2574.97 -8.61,-3273.66l106.17 -34.6c5.34,-124.1 -22.01,-80.44 126.46,-82.34l160.78 -16.04c429.29,87.69 503.75,264.69 849.51,351.93 -87.14,-249.02 133.52,-27.54 -220.57,-234.26 -55.26,-32.34 -198.66,-117.03 -249.11,-141.49 -298.93,-145.03 -447.31,-98.19 -758.2,-59.33 -132.62,303.09 -211.79,213.14 -327.92,680.29 -81.25,326.92 -79.62,572.77 -57.25,906.67z"/>
    <path class="fil16" d="M5166.71 5303.4l29.16 1119.63 83.16 -46.56c123.2,-734.01 -68.3,-797.51 248.11,-1691.86l6.89 -147.2c-129.72,76.63 -75.1,10.69 -169.67,148.92 -0.54,0.73 -89.22,201.28 -91.49,207.62 -59.15,161.33 -70.75,243.68 -106.16,409.45z"/>
    <path class="fil16" d="M6836.37 3775.86c488.89,352.92 382.54,1060.84 686,1367.93 63.05,-470.14 -237.51,-1073.08 -542.78,-1436.05l-235.8 -115.95c68.03,200.1 -107.52,22.19 92.58,184.07z"/>
    <path class="fil16" d="M10237.12 4752.28c134.25,99.91 81.8,41.67 213.42,81.43l-18.84 -78.99 -217.23 -396.58c-248.84,-210.7 -131.17,-279.36 -461.35,-384.62 56.35,282.71 65.4,150.55 285.98,403.83 122.2,140.31 166.13,208.34 198.02,374.93z"/>
    <path class="fil16" d="M519.96 10039.73l70.75 53.09c53.89,-272.12 91.31,-553.57 311.97,-683.83l177 -110.24 0 -107.07 -238.96 54.71c-234.16,216.5 -342.14,477.29 -320.76,793.34z"/>
    <path class="fil16" d="M5534.03 4537.41l107.07 42.48 199.65 -346.48 70.84 -133.07 95.75 -88.42 -30.26 -119.84 -159.52 19.75c-130.9,250.65 -276.56,393.32 -283.53,625.58z"/>
    <path class="fil16" d="M6037.68 3842.62l417.6 -116.49 288.51 -134.34c-78.53,-135.15 -231.35,-71.74 -409.9,-16.03 -308.26,96.2 -234.34,82.34 -296.21,266.86z"/>
    <path class="fil16" d="M17169.33 11044.41l22.37 135.7c175.47,-201.28 48.37,-104.9 257.35,-165.32l116.5 -350.83 -149.47 -17.94 -246.75 398.39z"/>
    <path class="fil16" d="M6214.14 7389.85l56.07 38.86 345.22 0.63 40.77 -37.95 8.33 -166.95c-234.25,104.08 -233.26,58.15 -449.21,-21.29l-1.18 186.7z"/>
    <path class="fil16" d="M12118.3 11404.58c231.99,262.15 -15.31,77.54 290.78,83.07 9.78,0.18 183.07,-31.26 247.84,-32.8l12.86 -177.81 -551.48 127.54z"/>
    <polygon class="fil16" points="3528.29,3905.94 3682.29,3922.52 3687.09,3794.79 3566.43,3753.03 "/>
    <polygon class="fil16" points="12266.23,15126.27 12504.19,14976.63 12396.03,14970.74 12275.37,14950.99 "/>
    <path class="fil16" d="M8729.6 13729.9l-126.55 -17.57 -10.78 118.76c288.61,-36.24 102,10.32 137.33,-101.19z"/>
    <path class="fil16" d="M7906 3665.16c-119.3,0 -93.76,-30.25 -81.62,86.69 116.86,41.49 75.28,50.91 81.62,-86.69z"/>
    <path class="fil16" d="M9245.48 9368.41l-205.63 54.26c360.08,60.96 103.36,49.55 205.63,-54.26z"/>
    <path class="fil16" d="M6784.65 3442.78c0,-123.56 22.73,-76.27 -132.98,-66.13l132.98 66.13z"/>
    <path class="fil16" d="M7177.33 3545.32c30.89,-104.63 47.02,-72.11 -66.58,-84.97l66.58 84.97z"/>
    <polygon class="fil16" points="6503.83,3371.76 6503.83,3305.63 6421.13,3301.65 "/>
    <polygon class="fil16" points="6930.04,3516.61 6820.25,3445.13 "/>
    <polygon class="fil16" points="9647.68,9190.32 9504.56,9276.28 "/>
   </g>
   <g>
    <path class="fil17" d="M6626.76 3148.01l127 83.07 137.23 65.22 99.01 71.47c118.22,-8.24 91.4,-37.59 91.4,76.37l29.35 16.21c113.6,12.86 97.47,-19.66 66.58,84.97l175.47 140.95c208.89,-92.49 102.27,118.58 180.53,-242.95 345.59,519.15 -8.87,-296.21 291.05,308.53 -12.14,-116.94 -37.68,-86.69 81.62,-86.69l-0.82 -37.59c-7.33,-143.3 -48.73,-118.66 73.83,-118.66l2.81 -11.87 65.4 -139.68 -4.98 -60.61c-10.33,-151.45 -46.74,-132.88 91.76,-78.71 -14.31,-115.59 -44.56,-97.2 63.41,-81.8l-29.35 -83.16c-319.04,-58.88 -901.32,-117.67 -1233.86,-53.44l-307.44 148.37z"/>
    <path class="fil17" d="M5524.15 3391.05c-48.82,101.37 -34.69,202.91 -212.6,142.95l-65.22 48.28c-81.98,262.24 -65.58,138.69 -42.21,259.62l613.44 69.93 159.52 -19.75c-41.76,-125.19 -58.43,-104.63 60.6,-49.46 61.87,-184.52 -12.05,-170.66 296.21,-266.86 178.55,-55.71 331.37,-119.12 409.9,16.03l235.8 115.95 144.03 -31.07 0 -90.13 -45.48 15.03 -99.1 -81.61 -49 -3.35 -109.79 -71.48 -35.6 -2.35 -132.98 -66.13 -56.53 4.53 -91.31 -9.42 -82.7 -70.11 -130.72 -4.35 -534.36 2.9 -131.53 -7.34c38.77,128.09 51.46,80.44 -100.37,98.19z"/>
    <path class="fil17" d="M4441.12 14984.23l-189.05 36.42 -1022.08 14.58c300.57,240.69 692.62,199.83 1135.31,174.02 -1.18,-25.55 3.17,-80.26 75.82,-225.02z"/>
    <path class="fil17" d="M840.72 9246.39l238.96 -54.71 143.58 -61.6 -1.18 -1297.09c-151.82,235.25 -134.24,196.75 -142.03,526.57 -5.71,242.22 12.59,381.91 53.99,614.8 -272.03,206.72 -115.86,-23.28 -293.32,272.03z"/>
    <path class="fil17" d="M2061.54 5321.7c75.18,-49.1 66.31,-6.71 167.76,-109.97l-4.8 -54.54 97.2 -80.71 295.03 -497.4c-349.29,119.57 -582.64,405.46 -555.19,742.62z"/>
    <polygon class="fil17" points="12504.19,14976.63 12266.23,15126.27 12277.1,15171.38 12269.76,15279.54 12604.74,15215.5 12696.78,14812.39 "/>
    <path class="fil17" d="M9526.75 8919.74l269.22 137.69 68.48 -5.71c0,-140.13 -38.04,-118.39 91.67,-91.76 -17.57,-122.84 -40.13,-86.51 92.4,-86.51l40.76 -54.35 5.26 -103.27 -20.2 -10.42 -547.59 214.33z"/>
    <path class="fil17" d="M8363.18 3302.82c21.47,129.45 58.97,114.69 -58.24,93.94 18.02,114.77 34.15,73.83 -100.91,73.83l-4.9 44.66c230.81,116.49 -126.63,20.11 122.11,30.25 7.61,0.36 166.95,-7.79 204,-7.06 -3.62,-228.46 -23.46,-116.41 71.11,-347.58l-153.81 32.79 -79.36 79.17z"/>
    <path class="fil17" d="M17565.55 10663.96l-116.5 350.83c238.79,-207.17 158.08,-118.21 291.96,-396.85l-46.56 -181.62 -81.07 0 7.97 132.52 -55.8 95.12z"/>
    <path class="fil17" d="M11674.34 11367.44c-23.55,191.41 -58.61,127.73 152.55,152.18l244.85 -0.99 0 -90.14c-178.45,-27.9 -247.75,10.78 -284.26,-171.02l-76 -4.26 -37.14 114.23z"/>
    <path class="fil17" d="M17191.7 11180.11l18.93 122.11 208.17 -73.74 30.25 -213.69c-208.98,60.42 -81.88,-35.96 -257.35,165.32z"/>
    <path class="fil17" d="M10200.79 7048.25l188.78 -32.61 67.22 -209.16c-243.95,118.12 -89.41,-55.71 -256,241.77z"/>
    <path class="fil17" d="M6836.37 3775.86c-200.1,-161.88 -24.55,16.03 -92.58,-184.07l-288.51 134.34 381.09 49.73z"/>
    <polygon class="fil17" points="3377.65,3912.64 3528.29,3905.94 3566.43,3753.03 3398.12,3776.31 "/>
    <path class="fil17" d="M2376.86 14762.57l-268.31 -205.08c65.95,212.24 29.35,176.82 268.31,205.08z"/>
    <path class="fil17" d="M6816.17 8902.8l86.78 -3.35 20.38 -107.71c-295.49,-97.11 -132.43,-7.79 -187.24,35.87 138.78,-10.05 128.36,-48.19 80.08,75.19z"/>
   </g>
   <g>
    <path class="fil18" d="M4900.93 14703.69l140.13 2.99 98.83 -56.25 80.62 -72.74c-11.5,-121.21 -43.93,-101.91 68.21,-86.33 -15.58,-138.23 -50.27,-108.79 80.44,-108.79l-24.09 -50.46 112.23 -157.53 -14.76 -55.98c44.75,-241.23 -17.58,-93.57 133.97,-152.54l818.17 91.31 1015.19 2.9 355.72 2.53 232.63 -96.56 146.2 16.85 167.95 -85.97 279.9 -66.03 10.78 -118.76c-387.79,62.5 -781.38,178.81 -1168.27,206.17 -231.36,16.31 -454.11,25.82 -685.91,20.2 -275.02,-6.61 -548.32,49.1 -636.09,-134.25l-553.3 -17.75c-240.41,-413.98 -149.73,-418.32 -505.37,-815.72 -284.08,-317.5 -341.51,-514.8 -358.27,-936.65l-224.83 -761.01c-145.12,198.38 -52.36,315.24 74.73,969.44 193.68,996.8 858.3,994.36 806.94,1642.59 -31.62,399.75 -375.39,566.97 -451.75,818.34z"/>
    <path class="fil18" d="M12261.24 10078.59c160.25,-269.03 217.86,-629.74 223.02,-962.19l7.79 -1353.98 24.82 -170.93c-166.4,-100.19 -114.31,-59.34 -105.89,-302.83l57.98 -116.04c-138.15,-115.77 -69.76,55.26 -142.4,-260.43l-184.89 -711.82 -117.49 -150.64 -48.01 -112.15c-123.01,-72.74 -126.82,140.32 -91.22,-193.94l-90.58 24.28c60.51,510.81 517.06,1163.56 575.85,1958.27 27.26,368.14 34.42,791.71 13.77,1159.76 -24.73,440.33 -179.54,776.86 -122.75,1192.64z"/>
    <path class="fil18" d="M15526.84 9501.57l-143.67 77.54c-142.04,228.36 -124.74,218.67 -92.85,511.71l143.85 -36.59 39.59 -324.21c110.24,-30.71 632.01,-143.3 749.5,-158.43 219.67,-28.17 665.8,16.94 751.58,-27.45l314.24 86.96c161.24,284.89 43.48,142.13 114.77,419.59 72.47,281.72 60.79,292.96 12.23,595.33l149.47 17.94 55.8 -95.12 -7.97 -132.52 -9.52 -471.14 36.87 -10.69c-156.98,0 -101.45,30.44 -90.13,-157.89 -425.21,-673.04 -1400.99,-238.24 -2023.76,-295.03z"/>
    <path class="fil18" d="M10616.22 5368.17c-17.94,344.85 85.87,655.02 -20.93,1004.04l1.18 206.17c23.19,185.88 76.27,154.72 -84.34,154.72l-55.34 73.38 -67.22 209.16 -188.78 32.61 -837.82 234.71c0,116.58 24.73,76.27 -109.7,86.32l-14.94 -1.54c-175.92,125.1 -162.6,130.17 -264.24,-26.09l-228.73 -27.71c-155.8,17.03 -123.01,46.47 -75.82,-106.62l-70.74 -114.77 -79.99 -64.32 -135.88 -15.94c212.88,364.78 428.83,343.04 631.83,607.28l57.89 5.89c471.76,-302.19 838.54,-507.1 1424.72,-434.45l17.57 -26.9c-1.99,-358.18 204.63,-506.65 266.41,-948.43 36.42,-260.7 23.28,-368.05 -10.14,-623.04 -39.95,-305 -5.89,-303.01 -172.66,-474.94l17.67 250.47z"/>
    <path class="fil18" d="M5892.93 2834.32l0 85.51c311.61,-10.42 161.15,-25.45 276.73,98.65l92.04 -11.33 147.02 111.33 87.68 -35.32 128.09 56.88 2.27 7.97 307.44 -148.37c332.54,-64.23 914.82,-5.44 1233.86,53.44 4.35,-164.41 -31.07,-121.75 141.23,-79.17l22.37 22.74 -6.98 -80.9 -507.91 -53.89c-245.57,-23.19 -261.15,7.33 -428.1,-130.63l-1495.74 103.09z"/>
    <path class="fil18" d="M2108.55 14557.49l268.31 205.08 215.96 14.95c189.32,-25.91 153.36,-76.46 153.36,95.93l20.11 -9.6 155.9 96.02 122.83 9.24 184.97 66.12 1022.08 -14.58 17.39 -83.7 -106.98 10.6 -791.26 -18.3 -681.75 -252.55c-545.5,-198.38 -857.93,-627.94 -1273.71,-973.88l-99.29 -12.69c220.13,533.82 520.69,542.97 792.08,867.36z"/>
    <path class="fil18" d="M10026.51 3892.35c245.12,125.92 396.85,191.5 506.46,465.07l172.65 137.32 327.74 243.5c158.34,228.09 357.99,537.44 513.35,673.14l39.4 -134.25 -69.3 -119.94c-130.08,0 -86.96,27.81 -91.21,-120.57l-54.54 -116.67c-137.96,0 -95.38,31.8 -108.43,-116.04l-51.63 -22.19c-163.87,10.14 -124.92,47.92 -112.87,-117.31l-505.01 -510.99 -102.45 -71.29c-116.86,27.72 -77.18,39.86 -63.78,-93.3l-74.09 -88.23 -136.7 -37.42c-175.28,12.32 -157.43,60.7 -109.51,-97.1 -129.63,19.29 -96.39,46.47 -96.39,-85.88l-411.25 -203.54c-184.89,19.74 -149.65,69.57 -149.65,-97.74l2.35 0.45c-145.29,1.99 -119.75,44.29 -119.75,-80.26l-482.27 -150.19c-178,32.88 -153.55,83.88 -137.06,-76.91l-72.2 2.9 -63.77 56.44c584.82,197.93 948.25,438.34 1449.91,761z"/>
    <path class="fil18" d="M459.54 10400.35l39.86 1292.93c-26.27,409.8 123.65,639.71 189.5,1017.99l76.18 128.45 -4.16 23.82c123.83,0 77.81,-24.63 83.97,126.73l74.64 186.61c113.23,0 75.64,-24.64 83.61,103.27l3.53 23.55c120.12,0 86.87,-26.72 75.37,101.91 136.78,-31.62 95.02,-46.11 63.14,100.36l101.82 -2.44c-58.79,-348.12 -422.67,-766.71 -525.58,-1241.02 -123.2,-568.15 -183.71,-981.76 -154.9,-1573.1l-46.56 -649.68 -60.42 360.62z"/>
    <path class="fil18" d="M7546.65 5596.26c183.34,539.8 106.07,914.37 115.49,1462.59 -53.89,291.95 24.19,95.75 -177.27,159.61 -302.1,315.14 -413.97,108.43 -828.67,172.93l-40.77 37.95 785.92 240.41 241.59 9.15 -302.01 -181.26c809.2,-646.14 362.43,-1489.76 243.4,-2392.17l-61.96 38.32 24.28 452.47z"/>
    <path class="fil18" d="M13176.79 13340.48l-681.11 306.08 34.42 113.42c41.58,669.33 112.96,584.45 -134.07,1210.76l108.16 5.89 192.59 -164.24 55.98 -712.54c-116.68,-185.61 -217.95,-340.42 13.41,-439.52l9.14 1.18c0,-150.73 -30.07,-101.73 143.04,-83.43l379.82 -145.3 31.98 -101.63 2.26 -128.36 -98.74 26.27 -56.88 111.42z"/>
    <path class="fil18" d="M7704.09 8980.34l1454.52 3.17c85.51,-122.92 -156.44,-109.79 214.24,-98.28l153.9 34.51 547.59 -214.33 -22.02 -114.04c-382.17,56.25 -640.16,236.61 -1089.46,277.28 -226.56,20.47 -451.21,25.82 -679.94,14.22 -305.36,-15.49 -435.53,-106.98 -578.83,97.47z"/>
    <path class="fil18" d="M1671.66 6044.84l-83.43 160.15 -184.34 720.43 -139.05 245.3 32.25 179.36 2.17 270.49c127.73,-146.39 106.44,-96.84 176.01,-425.21 107.43,-506.46 326.92,-929.68 408.45,-1270l-117.58 -12.32 -94.48 131.8z"/>
    <path class="fil18" d="M5039.34 3053.81l-291.14 60.78 -193.22 134.25 -123.83 42.3 -30.07 5.8 -136.42 53.08 27.63 116.22c383.17,-35.51 593.96,-280.27 1092.27,-337.61l163.24 -47.83c-103,-164.87 65.58,-109.25 -260.8,-83.25l-96.2 -6.79 -151.46 63.05z"/>
    <path class="fil18" d="M16323.9 11597.35l-237.88 37.14 -171.48 24.82 -9.06 109.06c178.37,-17.03 143.67,-62.41 132.08,106.44l-8.25 5.7 86.87 -4.98 7.8 -30.89 49.73 -133.52 194.66 99.1 397.4 -142.85c0,-153.63 -39.49,-129.45 104.63,-90.04 -23.46,-115.14 -42.94,-84.34 78.99,-73.38 -23.56,-134.06 -59.34,-118.39 65.94,-87.68 -24.55,-130.9 -47.01,-92.31 94.39,-92.31l-9.15 -50.28c-263.06,9.88 -296.93,149.02 -553.11,361.8l-223.56 -38.13z"/>
    <path class="fil18" d="M9035.6 14474.06c126.54,0 80.62,-25.55 86.14,126.91l1.63 33.33 76.91 108.52 61.51 124.92c125.73,0 93.48,-30.98 93.57,96.11l83.25 50.91c150.19,-42.75 121.29,-69.57 84.97,82.43 130.62,-28.71 96.29,-46.74 65.31,88.96 138.51,-15.67 107.34,-49.19 107.34,84.61l151.83 14.67c-198.11,-381.73 -270.58,-186.97 -443.6,-596.14l-104.26 -103.63c-7.34,-10.15 -106.62,-155.72 -107.71,-156.71 -117.67,-114.41 27.09,-14.04 -172.84,-128.27l15.95 173.38z"/>
    <path class="fil18" d="M6653.66 8835.77l82.43 -8.16c54.81,-43.66 -108.25,-132.98 187.24,-35.87l651.49 134.43c136.78,-135.42 229.54,31.34 35.87,-99.82l-1030.4 -234.89 73.37 244.31z"/>
    <path class="fil18" d="M11788.93 11094.24l99.28 0 -12.86 -36.96c-11.32,-168.76 -58.79,-138.24 89.14,-138.24l9.15 12.87c5.79,-152.73 -41.13,-129 81.16,-129l51 -224.56 115.59 -121.74 8.33 -160.88c-120.84,-152.46 -4.89,-159.25 -157.71,-67.49l-283.08 866z"/>
    <path class="fil18" d="M2616.73 4579.08l-295.03 497.4 -2.36 109.52c171.03,-123.56 165.5,-143.85 281.63,-285.71 172.66,-211.15 183.89,-142.85 240.05,-368.95l-156.35 -33.7 -67.94 81.44z"/>
    <path class="fil18" d="M3297.39 3986.74c23.46,122.29 50.18,97.2 -71.65,83.25 10.78,113.23 31.07,75.37 -97.56,78.81l-251.74 221.84 -35.42 160.7c233.98,-79.08 604.93,-396.13 687.27,-625.4l-150.64 6.7c9.51,108.52 32.43,80.17 -80.26,74.1z"/>
    <path class="fil18" d="M3988.55 3522.95l-113.59 69.84 -48.46 -7.79 -144.49 121.56 5.08 88.23c266.41,-31.43 465.7,-127.36 605.2,-328.55l-159.16 3.53 -29.35 -16.03c0,120.84 24.28,81.16 -115.23,69.21z"/>
    <path class="fil18" d="M2061.54 5321.7l15.03 32.24c-11.05,141.32 32.16,116.95 -86.41,116.95l-1.63 21.56 -70.84 108.7 -26.27 174.65c198.29,-97.74 39.31,97.29 245.48,-194.12 160.88,-227.46 108.98,-140.05 92.4,-369.95 -101.45,103.26 -92.58,60.87 -167.76,109.97z"/>
    <polygon class="fil18" points="4269.46,14936.95 4459.05,14948.82 4627.18,14971.1 4780.99,14870.73 4921.22,14856.78 4900.93,14703.69 4754.72,14714.02 "/>
    <path class="fil18" d="M5304.76 6741.89c175.91,280.9 -14.13,108.7 241.23,240.5l-13.41 -114.86c-151.73,0 -105.99,32.16 -90.77,-136.33 -52.54,-214.14 -42.39,-222.66 -162.78,-354.73 -34.69,245.67 -63.86,41.13 25.73,365.42z"/>
    <path class="fil18" d="M10052.32 8591.37c333.09,1.27 99.92,-39.5 156.35,98.74l79.99 46.19 111.24 -246.03 -96.29 -62.14c-257.72,80.17 -130.08,-4.62 -251.29,163.24z"/>
    <path class="fil18" d="M11794.37 5767.92l21.01 -171.66 -128.99 -151.37 -9.96 -67.03 -129.72 33.52c88.86,201.73 95.84,241.22 247.66,356.54z"/>
    <path class="fil18" d="M13233.67 13229.06l51.37 -121.03 -135.25 3.17c-24.82,163.15 -68.12,138.06 83.88,117.86z"/>
    <path class="fil18" d="M10198.26 10072.16c107.61,-72.65 98.55,132.08 82.88,-211.88l-60.06 16.13 -22.82 195.75z"/>
    <path class="fil18" d="M12961.56 12760.01l6.7 -114.68 -103.9 10.14c-10.78,139.5 -42.94,104.54 97.2,104.54z"/>
    <path class="fil18" d="M5669.82 7238.84l-57.71 -180.35 -23.55 4.52c-53.44,319.95 -36.05,106.26 81.26,175.83z"/>
    <path class="fil18" d="M7781.54 9981.12l0 -63.77 -86.24 -42.66c-70.66,156.62 -88.96,113.77 86.24,106.43z"/>
    <path class="fil18" d="M8227.03 10284.68c0,-133.44 33.16,-107.35 -96.74,-81.8 -13.5,116.31 -33.97,78.17 96.74,81.8z"/>
    <polygon class="fil18" points="5833.32,7370.1 5788.03,7221.99 5764.84,7226.61 5669.82,7238.84 "/>
    <path class="fil18" d="M6905.49 9200.19l15.31 -64.59 -122.2 0c15.12,127.82 -18.57,103.18 106.89,64.59z"/>
    <path class="fil18" d="M5545.53 3212.42l-9.96 -50.55c-149.11,-44.38 -137.51,-92.94 -112.6,45.21l122.56 5.34z"/>
    <path class="fil18" d="M6960.74 9298.48l11.51 -115.68 -66.76 17.39c-36.42,131.71 -71.66,112.05 55.25,98.29z"/>
    <path class="fil18" d="M7160.94 9435.08l-6.62 -66.94 -109.51 -0.1c-0.46,119.12 -23.65,78.63 116.13,67.04z"/>
    <polygon class="fil18" points="7044.81,9368.04 7058.03,9277.73 6960.74,9298.48 "/>
   </g>
   <g>
    <path class="fil19" d="M4469.56 4223.98l-105.53 525.4c379.73,191.77 254.36,-22.92 467.24,350.47 27.81,-40.4 76.27,-142.4 98.46,-163.59 197.39,-188.87 -248.38,145.39 88.51,-68.49 491.87,-312.15 -353.65,67.22 118.03,-44.47l30.44 480.1c35.41,-165.77 47.01,-248.12 106.16,-409.45 2.27,-6.34 90.95,-206.89 91.49,-207.62 94.57,-138.23 39.95,-72.29 169.67,-148.92 6.97,-232.26 152.63,-374.93 283.53,-625.58l-613.44 -69.93c-23.37,-120.93 -39.77,2.62 42.21,-259.62 -367.5,63.5 -511.99,437.53 -776.77,641.7z"/>
    <path class="fil19" d="M7352.8 3686.27l-229.18 -9.6 -144.03 31.07c305.27,362.97 605.83,965.91 542.78,1436.05l61.96 -38.32 -10.78 -430.64c18.21,-300.66 -53.8,-59.43 94.66,-270.49 262.61,179.18 177.91,33.34 189.33,403.56 32.34,-303.37 -13.86,-192.04 178,-300.66 46.56,260.53 1.08,440.43 104.53,618.16 -22.37,-333.9 -24,-579.75 57.25,-906.67 116.13,-467.15 195.3,-377.2 327.92,-680.29 -37.05,-0.73 -196.39,7.42 -204,7.06 -248.74,-10.14 108.7,86.24 -122.11,-30.25l-141.58 160.51 -94.66 78.72c-23.83,136.6 77.99,13.59 -57.89,137.96 -124.64,138.6 128.36,117.13 -166.04,102.82l77.18 -100.82 8.24 -142.59c-299.92,-604.74 54.54,210.62 -291.05,-308.53 -78.26,361.53 28.36,150.46 -180.53,242.95z"/>
    <path class="fil19" d="M5934.6 7511.95c256.44,267.32 1155.32,301.11 1547.1,271.4l-80.35 -113.6 -785.92 -240.41 -345.22 -0.63 -335.61 83.24z"/>
    <path class="fil19" d="M8525.24 3538.44c310.89,-38.86 459.27,-85.7 758.2,59.33 50.45,24.46 193.85,109.15 249.11,141.49 354.09,206.72 133.43,-14.76 220.57,234.26 330.18,105.26 212.51,173.92 461.35,384.62 13.23,-139.14 27,-3.53 -117.22,-192.67 -257.8,-338.07 -121.11,-178.55 -70.74,-273.12 -501.66,-322.66 -865.09,-563.07 -1449.91,-761l19.75 59.51c-94.57,231.17 -74.73,119.12 -71.11,347.58z"/>
    <path class="fil19" d="M12484.26 9116.4c179.63,-268.04 173.93,-1074.79 7.79,-1353.98l-7.79 1353.98z"/>
    <path class="fil19" d="M2161.81 11502.5l50.64 158.16c203,-362.7 171.48,-153.18 204.63,-162.87 -6.52,-319.04 43.76,-293.67 167.22,-546.14 -256.71,128.91 -392.14,263.61 -422.49,550.85z"/>
    <path class="fil19" d="M590.71 10092.82c273.47,-70.57 137.87,33.69 248.92,-309.44 50.1,-154.54 46.02,-213.78 63.05,-374.39 -220.66,130.26 -258.08,411.71 -311.97,683.83z"/>
    <path class="fil19" d="M4162.48 14947.55c-120.21,-240.96 -688.54,-201.74 -791.26,-18.3l791.26 18.3z"/>
    <path class="fil19" d="M3265.59 11454.13c122.84,190.59 -1.54,170.75 183.71,125.73l2.72 -383.81 -186.43 258.08z"/>
    <path class="fil19" d="M12752.76 14099.85l13.41 -439.52c-231.36,99.1 -130.09,253.91 -13.41,439.52z"/>
    <path class="fil19" d="M7816.77 2861.86c-186.87,-141.14 -176.09,-122.11 -428.1,-130.63 166.95,137.96 182.53,107.44 428.1,130.63z"/>
    <path class="fil19" d="M2684.67 4497.64l156.35 33.7 35.42 -160.7c-191.86,66.31 -50.18,-97.83 -191.77,127z"/>
    <path class="fil19" d="M10014.82 15416.33c-93.66,-124.74 155.27,-71.84 -203.63,-113.6 68.66,146.48 -98.38,107.98 203.63,113.6z"/>
    <path class="fil19" d="M5833.32 7370.1l131.08 -18.93c-95.48,-219.13 2.99,-77.73 -176.37,-129.18l45.29 148.11z"/>
    <path class="fil19" d="M9238.33 7367.74l-264.24 -26.09c101.64,156.26 88.32,151.19 264.24,26.09z"/>
    <path class="fil19" d="M12269.76 15279.54l7.34 -108.16c-301.29,36.87 -102.64,-13.58 -173.2,113.78l165.86 -5.62z"/>
    <polygon class="fil19" points="16368.37,11810.22 16173.71,11711.12 16123.98,11844.64 "/>
    <path class="fil19" d="M11371.06 4919.95c11.33,-154.99 47.2,-116.04 -108.43,-116.04 13.05,147.84 -29.53,116.04 108.43,116.04z"/>
    <path class="fil19" d="M16870.4 11577.33c-144.12,-39.41 -104.63,-63.59 -104.63,90.04 149.01,-1.63 129.36,41.85 104.63,-90.04z"/>
    <path class="fil19" d="M9121.74 14600.97c-5.52,-152.46 40.4,-126.91 -86.14,-126.91 -11.51,156.71 -54.44,126.91 86.14,126.91z"/>
    <path class="fil19" d="M9696.23 15270.76c0,-133.8 31.17,-100.28 -107.34,-84.61 -38.23,137.42 -51.63,89.86 107.34,84.61z"/>
    <path class="fil19" d="M844.89 12990.27c-6.16,-151.36 39.86,-126.73 -83.97,-126.73 -11.24,155.72 -54.36,126.73 83.97,126.73z"/>
    <path class="fil19" d="M12054.8 10802.91c-122.29,0 -75.37,-23.73 -81.16,129 135.96,0 91.4,27.72 81.16,-129z"/>
    <path class="fil19" d="M17109.72 11323.96c-141.4,0 -118.94,-38.59 -94.39,92.31 141.68,28.53 106.35,54.89 94.39,-92.31z"/>
    <path class="fil19" d="M10106.59 3766.08c48.64,-139.05 61.14,-94.3 -96.39,-85.88 0,132.35 -33.24,105.17 96.39,85.88z"/>
    <path class="fil19" d="M5369.16 14382.57c-130.71,0 -96.02,-29.44 -80.44,108.79 130.27,16.03 88.6,37.5 80.44,-108.79z"/>
    <polygon class="fil19" points="5041.06,14706.68 4900.93,14703.69 4921.22,14856.78 "/>
    <path class="fil19" d="M9451.65 3379.37c0,-123.65 25.28,-81.17 -119.75,-80.26 0,124.55 -25.54,82.25 119.75,80.26z"/>
    <path class="fil19" d="M9355.36 14963.85c-0.09,-127.09 32.16,-96.11 -93.57,-96.11 -12.68,138.23 -44.39,106.71 93.57,96.11z"/>
    <path class="fil19" d="M2076.57 5353.94c-128.9,0 -88.04,-27.81 -86.41,116.95 118.57,0 75.36,24.37 86.41,-116.95z"/>
    <path class="fil19" d="M1082.04 13405.61c11.5,-128.63 44.75,-101.91 -75.37,-101.91 -3.53,146.11 -48.46,134.61 75.37,101.91z"/>
    <path class="fil19" d="M16949.39 11503.95c-121.93,-10.96 -102.45,-41.76 -78.99,73.38 131.53,38.4 104.17,61.68 78.99,-73.38z"/>
    <path class="fil19" d="M11826.89 11519.62c-211.16,-24.45 -176.1,39.23 -152.55,-152.18l-93.57 186.61 246.12 -34.43z"/>
    <path class="fil19" d="M17015.33 11416.27c-125.28,-30.71 -89.5,-46.38 -65.94,87.68 117.76,12.23 87.96,34.52 65.94,-87.68z"/>
    <path class="fil19" d="M1003.14 13280.15c-7.97,-127.91 29.62,-103.27 -83.61,-103.27 -0.54,130.26 -36.23,103.27 83.61,103.27z"/>
    <path class="fil19" d="M12468.96 7172.62l-142.4 -260.43c72.64,315.69 4.25,144.66 142.4,260.43z"/>
    <polygon class="fil19" points="11787.48,11257.47 11888.21,11094.24 11788.93,11094.24 "/>
    <polygon class="fil19" points="5527.14,4684.61 5641.1,4579.89 5534.03,4537.41 "/>
    <path class="fil19" d="M3377.65 3912.64c-124.19,-9.6 -105.62,-41.76 -80.26,74.1 112.69,6.07 89.77,34.42 80.26,-74.1z"/>
    <path class="fil19" d="M5288.72 14491.36c-112.14,-15.58 -79.71,-34.88 -68.21,86.33 111.69,4.44 84.07,28.89 68.21,-86.33z"/>
    <path class="fil19" d="M11815.38 5596.26c-14.22,-222.21 28.18,-90.86 -128.99,-151.37l128.99 151.37z"/>
    <polygon class="fil19" points="11794.37,5767.92 11884.95,5743.64 11815.38,5596.26 "/>
    <path class="fil19" d="M15526.84 9501.57c-172.11,-20.02 -143.67,-69.66 -143.67,77.54l143.67 -77.54z"/>
    <path class="fil19" d="M5442.54 14118.6l133.97 -152.54c-151.55,58.97 -89.22,-88.69 -133.97,152.54z"/>
    <polygon class="fil19" points="1815.6,5743.37 1891.42,5775.8 1917.69,5601.15 "/>
    <path class="fil19" d="M4748.2 3114.59c-252.64,61.78 -110.96,-13.23 -193.22,134.25l193.22 -134.25z"/>
    <path class="fil19" d="M765.08 12839.72l-76.18 -128.45c-13.86,155.26 -58.06,128.45 76.18,128.45z"/>
    <path class="fil19" d="M12141.67 6200.37c-48.28,-263.6 5.44,-87.32 -117.49,-150.64l117.49 150.64z"/>
    <path class="fil19" d="M4103.78 3453.74l-115.23 69.21c139.51,11.95 115.23,51.63 115.23,-69.21z"/>
    <path class="fil19" d="M9200.28 14742.82l-76.91 -108.52c-3.71,133.62 -41.3,108.52 76.91,108.52z"/>
    <path class="fil19" d="M5220.51 14577.69l-80.62 72.74c117.31,15.31 93.21,42.39 80.62,-72.74z"/>
    <path class="fil19" d="M5139.89 14650.43l-98.83 56.25c120.48,20.38 98.29,52.81 98.83,-56.25z"/>
    <path class="fil19" d="M10426.89 3988.83c15.22,-108.62 37.69,-77.36 -74.09,-88.23l74.09 88.23z"/>
    <path class="fil19" d="M9438.61 15014.76l-83.25 -50.91c0.09,113.6 -24.82,92.4 83.25,50.91z"/>
    <polygon class="fil19" points="12105.8,10578.35 12221.39,10456.61 "/>
    <polygon class="fil19" points="8616.37,3719.97 8510.2,3754.57 "/>
    <polygon class="fil19" points="1588.23,6204.99 1671.66,6044.84 "/>
    <polygon class="fil19" points="3826.5,3585 3682.01,3706.56 "/>
    <polygon class="fil19" points="2922.19,14959.87 2766.29,14863.85 "/>
    <polygon class="fil19" points="1264.84,7170.72 1403.89,6925.42 "/>
    <polygon class="fil19" points="4780.99,14870.73 4627.18,14971.1 "/>
    <polygon class="fil19" points="4401.08,3296.94 4264.66,3350.02 "/>
    <polygon class="fil19" points="4554.98,3248.84 4431.15,3291.14 "/>
    <polygon class="fil19" points="1671.66,6044.84 1766.14,5913.04 "/>
   </g>
   <g>
    <path class="fil20" d="M10595.29 6372.21c106.8,-349.02 2.99,-659.19 20.93,-1004.04 -142.4,-112.24 -107.62,63.68 -96.57,-236.43 -123.92,-55.44 -91.4,110.87 -98.01,-178l-2.08 31.07 -159.25 -48.92 -23.19 -183.61c-31.89,-166.59 -75.82,-234.62 -198.02,-374.93 -220.58,-253.28 -229.63,-121.12 -285.98,-403.83 -345.76,-87.24 -420.22,-264.24 -849.51,-351.93l-112.68 214.69c383.81,217.5 900.87,610.27 1086.38,992.36 217.5,448.03 404.83,1397.1 717.98,1543.57z"/>
    <path class="fil20" d="M6975.78 8974.18l120.57 -10.96 42.39 75.91 145.66 119.03 221.4 33.52 165.49 91.21 117.22 10.33 165.86 83.43 146.21 -12.95 203.81 67.57 323.3 2.72 412.16 -11.32 205.63 -54.26 102.27 -4.71 156.81 -87.42 143.12 -85.96c-8.33,-125.19 -28.08,-76.82 128.36,-72.65l19.93 -60.24 -269.22 -137.69 -153.9 -34.51c-68.85,116.85 138.68,87.5 -214.24,98.28l-1454.52 -3.17 -129.27 -54.17 -651.49 -134.43 -20.38 107.71 72.83 74.73z"/>
    <path class="fil20" d="M5641.1 4579.89l-113.96 104.72c-316.41,894.35 -124.91,957.85 -248.11,1691.86 120.39,132.07 110.24,140.59 162.78,354.73l98.02 0 125.73 -23.19c5.61,-20.74 36.68,-12.41 55.07,-18.66 -353.01,-2053.38 589.44,-1821.12 120.12,-2455.94l-199.65 346.48z"/>
    <path class="fil20" d="M6773.41 7224.26l-108.88 0.18 -8.33 166.95c414.7,-64.5 526.57,142.21 828.67,-172.93l177.27 -159.61c-9.42,-548.22 67.85,-922.79 -115.49,-1462.59 -118.67,133.07 -59.15,119.48 -119.85,312.43l-153.81 434.81c-135.79,369.86 -116.76,509.09 -410.44,800.86 131.8,-33.24 48.92,31.25 269.49,-91.04 143.4,-79.53 33.52,23.1 115.77,-127.81 -20.02,275.28 -87.23,101.36 -362.43,412.88l-111.97 -114.13z"/>
    <path class="fil20" d="M6006.25 6363.7l139.41 207.53 103.9 24.36c0,-139.13 -33.97,-106.43 106.26,-93.39l-10.24 -91.94 1.72 -133.71 -18.84 -46.92 -185.79 -60.69c-182.08,68.03 -194.58,-217.31 -136.42,194.76z"/>
    <polygon class="fil20" points="9136.24,6963.55 9315.05,6928.77 9152.9,6739.26 9125.55,6785.55 "/>
    <polygon class="fil20" points="6516.24,7022.43 6683.28,7042 6737.27,6916.45 6621.77,6916.27 6527.2,6956.4 "/>
    <polygon class="fil20" points="15971.52,12045.02 16116.18,11875.53 16029.31,11880.51 15964,11888.21 15978.95,11992.93 "/>
   </g>
   <g>
    <path class="fil21" d="M3074.01 10881.72l-277.01 -166.22c427.29,-192.49 570.68,-191.95 870.61,116.31l-226.01 192.86 -367.59 -142.95zm-1851.93 -3048.73l1.18 1297.09 -143.58 61.6 0 107.07 179.54 -15.31c902.32,358.72 208.08,1290.38 659.74,2103.75l103.35 98.37c-74.28,382.64 -80.71,728.22 63.32,1080.14 85.7,-171.39 -148.74,-811.46 76.18,-1063.2 30.35,-287.24 165.78,-421.94 422.49,-550.85l290.69 -51.63 199.02 -18.3 -11.05 107.53c217.04,118.21 228.18,64.68 178.9,216.77 -30.71,279.54 -5.25,127 -110.97,197.65 -22.37,484.54 67.49,820.34 53.45,1205.33l144.12 -75.82 -49.37 -187.6c-82.52,-377.47 -163.78,-510.9 -13.5,-891.45l186.43 -258.08 10.87 -133.25 294.76 -69.57c202.82,44.84 381.64,146.3 547.14,220.12 -202.64,-351.83 -287.43,-172.65 -558.91,-464.61 -304.55,-327.64 -407.82,-289.05 -859.02,-233.62 -364.61,171.48 -366.15,472.32 -755.21,639.99l-28.17 96.47c-212.97,-268.58 -223.11,-340.33 -230.18,-667.34l-7.15 -460.9c20.56,-670.05 -133.26,-637.72 -540.07,-1014.55l-26.82 -1488.22 -76.27 -24.46 -0.91 236.88z"/>
    <path class="fil21" d="M9848.06 15285.43l-36.87 17.3c358.9,41.76 109.97,-11.14 203.63,113.6l626.85 9.14c70.48,-119.84 -138.32,-90.94 205.45,-100.36l406.73 -73.92 713.44 -13.14 136.61 47.11c70.56,-127.36 -128.09,-76.91 173.2,-113.78l-10.87 -45.11 -637.45 69.75 -280.73 -27.17c95.3,-155.09 469.15,-383.36 637.45,-812.01 138.51,-352.65 50.55,-224.65 -11.23,-345.85 -262.33,451.65 -229.91,699.41 -747.96,1058.67 -540.61,375.02 -872.07,190.41 -1378.25,215.77z"/>
    <path class="fil21" d="M15795.88 11192.61c-23.65,-360.98 -335.53,-714.08 -361.71,-1138.38l-143.85 36.59c-22.28,332.09 239.42,950.97 505.56,1101.79z"/>
    <path class="fil21" d="M11884.86 11639.83l236.88 -77.72 -50 -43.48 -244.85 0.99 -246.12 34.43 93.57 -186.61 37.14 -114.23 -243.13 282.72 -470.77 93.39c257.44,141.77 558.91,36.6 887.28,10.51z"/>
    <path class="fil21" d="M6229.45 8500.87l169.21 110.15 61.15 20.75 120.48 -40.31c-237.61,-146.03 -644.52,-230.18 -751.86,-473.4 -214.51,-31.7 -172.56,-87.69 -172.56,110.33l573.58 272.48z"/>
    <path class="fil21" d="M8729.6 13729.9l124.01 8.24c201.01,86.15 131.98,24.46 138.69,320.04l27.35 242.5 49.37 -954.14c-153.36,75.28 -89.86,63.41 -186.69,197.66l-109.34 142.58c-8.79,10.51 -29.35,28.36 -43.39,43.12z"/>
    <path class="fil21" d="M12530.1 13759.98l-34.42 -113.42 -680.48 149.2c304.73,165.41 418.87,4.98 714.9,-35.78z"/>
    <path class="fil21" d="M16086.02 11634.49l237.88 -37.14c-341.24,-111.7 -221.57,-272.76 -528.02,-404.74 71.29,254.55 126.18,214.51 290.14,441.88z"/>
    <path class="fil21" d="M10303.61 8428.13l96.29 62.14c44.57,-205.62 29.35,-92.12 217.68,-254.54 389.87,-336.25 176.27,-194.12 49,-261.07 -31.16,179.91 -217.76,297.67 -362.97,453.47z"/>
    <polygon class="fil21" points="10746.39,7327.34 10719.21,7169.27 10514.94,7164.11 10497.37,7191.01 "/>
    <polygon class="fil21" points="1223.35,13634.79 1316.47,13690.13 1415.76,13702.82 1247,13503.53 1218.28,13615.49 "/>
    <path class="fil21" d="M9072.65 7625.46l-57.89 -5.89 -220.03 122.29c149.83,26.99 36.14,42.48 277.92,-116.4z"/>
    <path class="fil21" d="M7993.87 10110.93c29.44,-130.08 43.12,-82.79 -110.88,-78.17 0,141.22 -32.07,108.97 110.88,78.17z"/>
    <path class="fil21" d="M8130.29 10202.88c-50,-109.43 120.3,-91.04 -136.42,-91.95l136.42 91.95z"/>
    <path class="fil21" d="M5706.14 7698.92l12.5 -76.09c-20.47,4.8 -64.5,-12.5 -61.51,13.68 1.27,10.69 -6.34,22.55 -4.16,25.36 5.52,6.98 35.42,24.73 53.17,37.05z"/>
    <polygon class="fil21" points="8595.44,10468.2 8361.55,10304.33 "/>
    <polygon class="fil21" points="9824.14,10449.36 10033.75,10249.44 "/>
   </g>
   <g>
    <path class="fil22" d="M13644.66 12860.56l-223.29 46.47c-34.97,-58.7 -103.72,-143.4 -117.49,-207.53 -90.5,-421.04 222.11,-377.2 469.59,-176.74 20.29,336.44 -107.07,285.07 -128.81,337.8zm322.57 -721.61c364.97,-171.65 553.12,51.91 392.33,398.58 -274.11,91.04 -136.7,90.86 -358.99,-65.4l-33.34 -333.18zm668.43 -261.24c82.43,-125.65 -145.84,-64.68 166.41,-135.16 277.01,138.69 253.27,157.35 196.29,434.9 -260.88,146.48 -235.61,135.43 -436.98,-51.36 -52.99,-479.47 -20.2,-130.35 74.28,-248.38zm-1307.6 111.78l-420.58 -19.11c-80.26,-365.52 -5.53,-552.76 378.1,-402.75l42.48 421.86zm1731.72 -395.13c177.73,-185.88 22.01,-92.4 292.95,-198.11 216.95,158.97 254.37,170.66 167.22,428.46 -373.48,185.88 -305.81,22.02 -460.17,-230.35zm-1474.91 125.91c-175.91,-319.86 -0.27,-471.32 359.99,-411.17l4.08 441.88 -364.07 -30.71zm959.75 -728.58c60.33,317.05 100.28,189.6 -54.98,441.88 -370.59,62.32 -417.15,-17.49 -362.07,-411.89l417.05 -29.99zm265.69 126.01c-108.34,-81.53 -74.64,59.15 -155.26,-222.84 227.82,-262.79 64.76,-176.01 390.24,-176.92 158.34,233.71 193.85,466.16 -90.23,486.36 -242.58,17.21 -102.18,54.44 -144.75,-86.6zm-301.2 -826.14l-103.35 289.87 -124.92 -166.95 -221.39 21.29c-0.91,261.25 81.34,314.15 -119.3,300.74l-138.42 90.23 -67.03 -123.47 -16.67 -34.42 -215.32 -5.08c16.58,130.45 44.57,106.71 -82.43,73.02l7.7 197.11 -174.1 174.47 -162.7 -141.23 -11.86 -67.39 -154.45 -6.16c0,151 37.05,127.54 -104.26,79.99l-4.26 194.21c-7.52,125.91 28.08,97.47 -87.6,103.99l42.94 762.37 -46.29 33.33c96.75,84.52 77.54,-158.88 90.77,231.81l-31.07 26.45c113.86,69.75 104.99,-135.88 86.14,197.75l97.02 121.84 146.2 117.76 50.37 274.65 2.9 -75.91c207.17,0 171.39,-51.27 117.31,146.2l47.37 94.76 156.26 149.01 266.23 -34.79 246.21 -9.96 92.58 -209.34 105.62 -51.91c8.7,-253.18 167.59,-31.61 171.84,-27.45l27.72 15.77 234.07 -18.66c13.59,-317.41 -12.59,-139.5 77.82,-293.14 -51,-120.11 -47.92,-69.66 101.18,-57.97l139.68 -126.55 72.92 122.29 224.2 -29.08c3.08,-30.07 16.13,-118.57 21.02,-133.16 54.53,-161.69 17.66,-64.68 66.03,-151.27 -34.06,-129.9 -47.01,-88.96 95.66,-65.95l39.32 -119.75 385.16 0.54 10.33 -168.49c-7.61,-136.51 -39.68,-101 97.74,-104.72l65.31 -7.7 8.25 -5.7c-174.56,0 -145.3,49.91 -132.08,-106.44l-73.64 -141.86c-139.5,35.24 -122.65,71.66 -92.04,-63.13 -124.73,27.62 -109.06,60.96 -85.42,-57.44 -161.24,51.91 -139.05,102.73 -139.05,-38.49l-36.86 -185.52 -62.87 -155.9 -35.06 -127.91c-108.88,-45.56 -69.66,105.36 -133.52,-165.95l-52.54 -143.39 39.77 -49.92c-122.93,-44.11 -88.05,100.01 -96.02,-174.92l-175.56 -170.02 -179.72 -76.82 -224.29 -26.27 -49.55 100.73z"/>
    <path class="fil22" d="M6787.45 9039.85c154.18,-15.03 113.42,-51.72 133.35,95.75l-15.31 64.59 66.76 -17.39c125.55,15.22 103.99,-21.92 85.78,94.93 124.29,-15.76 87.69,-40.67 96.29,90.41l6.62 66.94 -14.32 -2.54 211.07 146.3 159.7 -2.9 33.79 130.8 147.56 89.77c235.7,30.62 1154.33,-98.46 1316.02,-207.8 -280.27,-206.9 -66.94,-48.55 -387.07,-154.72l-323.3 -2.72 -203.81 -67.57 -146.21 12.95 -165.86 -6.52 -117.22 -87.24c-298.29,37.14 -91.03,52.91 -165.49,-91.21l-221.4 -33.52 -145.66 -119.03 -42.39 12.68 -120.57 -77.63 -98.74 30.17c-132.79,4.52 -102.27,30.98 -60.87,-101.55l-55.26 28.81 -2.53 93.66 29.07 14.58z"/>
    <path class="fil22" d="M8698.98 2762.66l-111.78 -7.06 -83.97 92.03 -69.12 63.14c12.96,113.96 31.71,72.11 -102.45,85.88l-22.37 -22.74 -111.88 162.33c39.77,148.65 78.45,139.5 -63.41,81.8l7.25 78.71c-5.98,113.33 21.29,87.51 -94.03,60.61l-65.4 139.68 -2.81 11.87 -73.83 118.66 0.82 37.59c-6.34,137.6 35.24,128.18 -81.62,86.69l-8.24 142.59 88.86 -2c135.88,-124.37 34.06,-1.36 57.89,-137.96l94.66 -78.72 141.58 -160.51 4.9 -44.66c17.57,-116.59 -15.86,-91.76 100.91,-73.83l58.24 -93.94c-22.64,-147.92 -57.88,-131.89 79.36,-79.17l134.06 -92.3 63.77 -56.44c0,-125.28 -33.6,-96.47 82.8,-103.17l79.08 10.14 110.33 -63.5 88.32 -5.71 343.05 -19.2 45.29 -49.19 -8.97 10.24c-155.35,20.2 -129.99,54.89 -87.32,-94.03 -130.08,0.91 -102.45,36.05 -102.45,-85.06l-450.75 0.45 -40.77 86.78z"/>
    <path class="fil22" d="M5535.57 3161.87l9.96 50.55 78.99 80.44 131.53 7.34c143.76,-176.1 381.28,-94.12 534.36,-2.9l130.72 4.35 82.7 3.98 91.31 75.55 56.53 -4.53c155.71,-10.14 132.98,-57.43 132.98,66.13l35.6 2.35 109.79 71.48 49 3.35c123.92,5.25 99.1,-30.26 99.1,81.61l45.48 -15.03 53.71 -41.22 -66.58 -84.97 -29.35 -16.21 -91.4 -76.37c-123.55,7.88 -99.01,41.13 -99.01,-71.47l-137.23 -65.22 -129.27 -91.04 -128.09 -56.88 -87.68 35.32 -147.02 -111.33 -92.04 11.33c-355.63,-37.78 -350.2,41.3 -634.09,143.39z"/>
    <path class="fil22" d="M6355.82 6502.2c5.61,131.53 34.15,93.58 -106.26,93.39l-103.9 -24.36 37.59 475.39c301.29,127.45 200.65,93.57 332.99,-24.19l10.96 -66.03c1,-149.83 -43.84,-129.45 85.24,-113.24l-20.74 -217.13 -57.34 -164.59 -102.81 -25.64c50,115.77 56.16,78.27 -75.73,66.4z"/>
    <path class="fil22" d="M9044.02 6595.78c1.18,242.04 -31.7,90.94 108.88,143.48l162.15 189.51 157.8 -43.3 8.06 -417.69c-126.91,29.53 -84.42,45.74 -84.42,-98.83l-28.63 5.44c-135.97,-4.99 -102.81,23.46 -54.98,-113.69 -246.12,95.12 -207.62,38.32 -268.86,335.08z"/>
    <path class="fil22" d="M14635.66 11877.71c47.11,182.07 -18.75,194.66 116.58,228.36 239.78,59.7 89.68,-2.44 154.09,-146.38l-270.67 -81.98z"/>
    <path class="fil22" d="M14056.82 12267.49c112.06,264.69 68.39,241.96 262.61,74.01 -135.34,-265.05 -38.5,-144.75 -262.61,-74.01z"/>
    <path class="fil22" d="M14810.31 11117.7c181.26,-68.67 371.13,-120.93 85.6,-274.2 -108.43,137.23 -59.33,-51.82 -85.6,274.2z"/>
    <path class="fil22" d="M14233.64 11197.5c123.47,252.74 34.7,126.19 242.41,82.44 -87.32,-161.7 35.06,-337.34 -242.41,-82.44z"/>
    <path class="fil22" d="M13644.75 12728.48c-33.88,-238.87 75.46,-160.79 -209.43,-208.07 21.29,325.83 -7.34,189.32 209.43,208.07z"/>
    <path class="fil22" d="M13712.06 11646.9c152.45,-111.51 161.51,78.9 116.4,-240.87 -171.48,59.42 -28.54,-215.96 -123.11,56.25 -52.99,152.82 -77.45,1.91 6.71,184.62z"/>
    <path class="fil22" d="M13001.05 11807.14l223.57 24.01c-164.14,-314.61 -105.17,-242.5 -223.57,-24.01z"/>
    <path class="fil22" d="M15366.05 11525.6l-79.53 136.6c-89.05,315.69 -53.18,-59.51 59.24,147.21 123.01,-265.33 152.18,13.4 20.29,-283.81z"/>
   </g>
   <g>
    <path class="fil23" d="M8981.79 6202.82l-23.92 -76.46 66.86 -92.85 103.08 -23.82c176.46,-134.52 -5.43,-84.33 299.39,-100.73l119.66 96.74 225.1 205.18c15.86,318.86 112.6,336.34 -32.06,634.73l-151.46 204.27c0,112.33 28.17,83.16 -83.52,88.59l-373.12 -66.67c-221.12,-73.74 -165.95,-61.69 -140.14,-269.31 -199.92,-77.9 -147.38,-436.89 -9.87,-599.67zm-365.42 -2482.85l-106.17 34.6c-448.03,698.69 -195.21,2476.24 8.61,3273.66l79.99 64.32c149.55,0 117.85,-32.52 70.74,114.77l75.82 106.62 228.73 27.71 264.24 26.09 14.94 1.54c0,-135.97 -31.52,-101.36 109.7,-86.32l837.82 -234.71c166.59,-297.48 12.05,-123.65 256,-241.77l55.34 -73.38c-0.9,-180.9 -56.52,-154.72 84.34,-154.72l-1.18 -206.17c-313.15,-146.47 -500.48,-1095.54 -717.98,-1543.57 -185.51,-382.09 -702.57,-774.86 -1086.38,-992.36l112.68 -214.69 -160.78 16.04c0,151.73 32.79,112.41 -126.46,82.34z"/>
    <path class="fil23" d="M6037.68 3842.62c71.29,127.55 72.56,93.94 -60.6,49.46l30.26 119.84c-0.28,120.75 28.8,88.42 -95.75,88.42l-70.84 133.07c469.32,634.82 -473.13,402.56 -120.12,2455.94 -18.39,6.25 -49.46,-2.08 -55.07,18.66l-125.73 23.19 -7.25 136.33 13.41 114.86c120.11,-62.68 72.46,-53.08 42.57,80.62l23.55 -4.52c180.45,66.3 116.5,-86.42 152.73,168.12l23.19 -4.62c179.36,51.45 80.89,-89.95 176.37,129.18l249.74 38.68 1.18 -186.7c-317.14,-186.33 -324.3,-499.4 -209.07,-839.45 -58.16,-412.07 -45.66,-126.73 136.42,-194.76l96.02 9.87c121.11,-288.96 450.93,-18.84 510.81,212.24 228.64,88.41 180.63,417.51 102.81,595.33l-133.88 126.91 54.98 110.97 111.97 114.13c275.2,-311.52 342.41,-137.6 362.43,-412.88 -82.25,150.91 27.63,48.28 -115.77,127.81 -220.57,122.29 -137.69,57.8 -269.49,91.04 293.68,-291.77 274.65,-431 410.44,-800.86l153.81 -434.81c60.7,-192.95 1.18,-179.36 119.85,-312.43l-24.28 -452.47c-303.46,-307.09 -197.11,-1015.01 -686,-1367.93l-381.09 -49.73 -417.6 116.49z"/>
    <polygon class="fil23" points="9312.88,6260.7 9367.86,6374.39 9396.49,6368.95 9505.73,6364.97 9569.69,6364.15 9583.18,6122.38 9355.54,6142.31 9300.38,6166.67 "/>
   </g>
   <g>
    <path class="fil24" d="M7584.33 5105.47c119.03,902.41 565.8,1746.03 -243.4,2392.17l302.01 181.26 -241.59 -9.15 80.35 113.6c-391.78,29.71 -1290.66,-4.08 -1547.1,-271.4l-69.57 1.09c-47.38,140.41 180.62,229.63 -146.39,109.79l-12.5 76.09 -204.45 199.83c329.1,146.84 121.93,-50.72 326.74,219.31 107.34,243.22 514.25,327.37 751.86,473.4l1030.4 234.89c193.67,131.16 100.91,-35.6 -35.87,99.82l129.27 54.17c143.3,-204.45 273.47,-112.96 578.83,-97.47 228.73,11.6 453.38,6.25 679.94,-14.22 449.3,-40.67 707.29,-221.03 1089.46,-277.28 121.21,-167.86 -6.43,-83.07 251.29,-163.24 145.21,-155.8 331.81,-273.56 362.97,-453.47 160.79,-200.37 -5.61,-119.57 249.47,-110.87 55.35,265.05 41.76,141.13 90.95,289.05l-5.16 -372.93c-218.58,95.93 -161.33,9.51 -223.2,40.12 -170.3,84.34 32.15,56.62 -289.51,212.34 10.23,-117.22 -254.1,-217.95 527.56,-520.23 -75,-257.18 -133.25,-157.44 -12.95,-412.62l-257.35 227.82 -249.02 -136.33c-586.18,-72.65 -952.96,132.26 -1424.72,434.45 -241.78,158.88 -128.09,143.39 -277.92,116.4l220.03 -122.29c-203,-264.24 -418.95,-242.5 -631.83,-607.28l-242.86 -1886.89c-103.45,-177.73 -57.97,-357.63 -104.53,-618.16 -191.86,108.62 -145.66,-2.71 -178,300.66 -11.42,-370.22 73.28,-224.38 -189.33,-403.56 -148.46,211.06 -76.45,-30.17 -94.66,270.49l10.78 430.64z"/>
    <path class="fil24" d="M11884.86 11639.83c341.87,1.36 128.18,60.6 379.74,-85.69 -34.52,254.54 43.75,55.07 -105.63,317.86 -371.03,-123.47 -634.46,208.35 -1039.01,335.53l-63.59 453.47c-145.12,97.92 -504.47,263.78 -631.2,378.28 -298.47,269.76 98.29,272.75 -562.17,507.55 -32.43,487.08 -175.1,314.06 -160.97,662.45 179.72,-363.25 612,95.57 1241.65,-356l477.57 -291.05c269.13,-212.88 610,-560.81 1015.09,-585.18 -3.89,-472.86 -4.16,-214.96 219.4,-320.04 293.23,85.06 183.35,15.13 351.2,272.21 94.21,144.3 143.22,192.85 169.85,411.26l56.88 -111.42c-152,20.2 -108.7,45.29 -83.88,-117.86l17.94 -149.37 -2.9 75.91 -185.97 -306 -17.3 28.27c-140.14,0 -107.98,34.96 -97.2,-104.54l6.88 -131.98 -86.14 -197.75 31.07 -26.45 -90.77 -231.81 46.29 -33.33c-166.86,-173.29 -125.55,-311.53 -114.77,-579.3 -64.77,1.54 -238.06,32.98 -247.84,32.8 -306.09,-5.53 -58.79,179.08 -290.78,-83.07l-46.56 23.91 0 90.14 50 43.48 -236.88 77.72z"/>
    <path class="fil24" d="M2161.81 11502.5c-224.92,251.74 9.52,891.81 -76.18,1063.2 -144.03,-351.92 -137.6,-697.5 -63.32,-1080.14l-103.35 -98.37c-131.62,174.92 -46.84,880.03 -52.36,987.29 -14.04,268.76 -1.9,-39.77 -100.91,283.98 277.82,62.5 -249.48,6.98 60.96,-10.51 129.63,-7.34 80.35,-26.09 374.48,417.6 409.81,618.06 284.8,333.81 824.32,384.62 225.38,21.2 357.18,23.1 601.13,8.34l-150.47 -413.25c156.26,-226.37 265.06,-514.71 129.63,-749.5 -202.27,341.59 129.9,25.63 -103.45,520.59l-51.81 -324.2 -129.54 279.18 -136.6 -162.33c14.04,-384.99 -75.82,-720.79 -53.45,-1205.33 -31.97,25.55 -1.17,52.91 -241.4,188.24 -162.33,-245.94 -191.86,-295.13 -135.7,-616.43l121.2 -75.46 -290.69 51.63c-123.46,252.47 -173.74,227.1 -167.22,546.14 -33.15,9.69 -1.63,-199.83 -204.63,162.87l-50.64 -158.16z"/>
    <path class="fil24" d="M17169.33 11044.41l246.75 -398.39c48.56,-302.37 60.24,-313.61 -12.23,-595.33 -71.29,-277.46 46.47,-134.7 -114.77,-419.59l-314.24 -86.96c-264.42,-58.79 -278.73,-70.2 -505.19,73.1 -7.52,183.98 -184.43,44.12 225.74,153.73l-314.7 163.96c-1.81,0.36 -96.56,-33.07 -191.67,98.37 -126.46,174.74 -140.77,1479.53 980.31,1011.11z"/>
    <path class="fil24" d="M4695.84 12034.33c16.76,421.85 74.19,619.15 358.27,936.65 355.64,397.4 264.96,401.74 505.37,815.72l553.3 17.75 497.67 17.76c51.73,-569.15 -159.79,-320.13 -514.79,-526.21 -518.42,-301.02 -295.04,-473.94 -655.66,-507.82 -157.35,-14.77 -306.18,-83.61 -113.86,-288.61l-385.26 -13.31c52.72,-360.17 -26.82,-311.71 -187.79,-600.31l-57.25 148.38z"/>
    <path class="fil24" d="M5195.87 6423.03l-29.16 -1119.63 -30.44 -480.1c-471.68,111.69 373.84,-267.68 -118.03,44.47 -336.89,213.88 108.88,-120.38 -88.51,68.49 -22.19,21.19 -70.65,123.19 -98.46,163.59 -212.88,-373.39 -87.51,-158.7 -467.24,-350.47l105.53 -525.4c-370.04,305.28 -466.96,757.75 -407.81,1232.6l759.28 49.46c129.36,248.29 95.75,74.37 144.85,384.17 81.52,514.79 30.16,364.6 229.99,532.82z"/>
    <path class="fil24" d="M1866.15 10123.34l7.15 460.9 258.35 570.87c389.06,-167.67 390.6,-468.51 755.21,-639.99 -191.5,-152.63 -207.44,-68.21 -310.35,-370.76 -278.55,85.69 28.54,46.29 -240.86,102.63l-159.16 -352.28 -122.92 153.72 -72.74 -307.72 -114.68 382.63z"/>
    <path class="fil24" d="M8702.15 10493.84l-106.71 -25.64 -233.89 -163.87 -134.52 -19.65c-130.71,-3.63 -110.24,34.51 -96.74,-81.8l-136.42 -91.95c-142.95,30.8 -110.88,63.05 -110.88,-78.17l-101.45 -51.64c-175.2,7.34 -156.9,50.19 -86.24,-106.43l-144.12 -167.95 -193.49 -127.9c-202.82,-20.2 -65.86,100.64 -211.07,-146.3l14.32 2.54c-139.78,11.59 -116.59,52.08 -116.13,-67.04l-84.07 -69.56c-126.91,13.76 -91.67,33.42 -55.25,-98.29 -125.46,38.59 -91.77,63.23 -106.89,-64.59l-11.15 -95.75 -29.07 -14.58c-241.5,-154.72 -227.73,-116.76 -298.57,-393.5l-61.15 -20.75c-243.85,129.18 -171.84,-56.52 -131.89,235.71 287.61,167.04 806.75,1028.59 1710.79,1505.25 254.91,134.43 564.35,384.9 724.59,141.86z"/>
    <path class="fil24" d="M3452.02 11196.05l-2.72 383.81c-185.25,45.02 -60.87,64.86 -183.71,-125.73 -150.28,380.55 -69.02,513.98 13.5,891.45 125.73,-207.17 466.88,-1077.33 478.56,-1352.35l-294.76 69.57 -10.87 133.25z"/>
    <path class="fil24" d="M3371.22 14929.25c102.72,-183.44 671.05,-222.66 791.26,18.3l106.98 -10.6 485.26 -222.93c-561.71,-133.61 -1437.94,56.34 -2065.25,-37.32l681.75 252.55z"/>
    <path class="fil24" d="M902.68 9408.99c-17.03,160.61 -12.95,219.85 -63.05,374.39 -111.05,343.13 24.55,238.87 -248.92,309.44l-70.75 -53.09 46.56 649.68c124.74,-194.21 263.15,-485.81 316.96,-700.04 88.86,-354.28 147.38,-493.15 375.74,-705.93l-179.54 15.31 -177 110.24z"/>
    <path class="fil24" d="M3074.01 10881.72l367.59 142.95 226.01 -192.86c-299.93,-308.26 -443.32,-308.8 -870.61,-116.31l277.01 166.22z"/>
    <path class="fil24" d="M10214.47 4358.14l217.23 396.58c52.9,-128.17 57.52,-31.88 47.91,-197.11 -0.72,-12.68 -47.37,-182.17 -50.81,-194.03l104.17 -6.16c-109.61,-273.57 -261.34,-339.15 -506.46,-465.07 -50.37,94.57 -187.06,-64.95 70.74,273.12 144.22,189.14 130.45,53.53 117.22,192.67z"/>
    <path class="fil24" d="M6229.45 8500.87l-573.58 -272.48 -155.09 59.97 637.27 409.08c264.24,-171.02 44.3,-0.81 91.4,-196.57z"/>
    <path class="fil24" d="M5821.91 7445.37l11.41 -75.27 -163.5 -131.26c-117.31,-69.57 -134.7,144.12 -81.26,-175.83l-42.57 -80.62c-255.36,-131.8 -65.32,40.4 -241.23,-240.5 59.42,407.36 72.47,695.6 517.15,703.48z"/>
    <polygon class="fil24" points="11628.78,15196.02 12266.23,15126.27 12275.37,14950.99 11889.03,14926.08 "/>
    <path class="fil24" d="M3241.86 11206.02c49.28,-152.09 38.14,-98.56 -178.9,-216.77l178.9 216.77z"/>
    <path class="fil24" d="M5422.97 3207.08c-24.91,-138.15 -36.51,-89.59 112.6,-45.21l12.23 -81.07 -163.24 47.83 38.41 78.45z"/>
    <polygon class="fil24" points="11033.36,4738.24 10705.62,4494.74 "/>
    <polygon class="fil24" points="9404.46,14689.29 9300.2,14585.66 "/>
    <polygon class="fil24" points="1316.47,13690.13 1223.35,13634.79 "/>
   </g>
   <g>
    <path class="fil25" d="M4292.29 3466.24c-139.5,201.19 -338.79,297.12 -605.2,328.55l-4.8 127.73 -154 -16.58c-82.34,229.27 -453.29,546.32 -687.27,625.4 -56.16,226.1 -67.39,157.8 -240.05,368.95 -116.13,141.86 -110.6,162.15 -281.63,285.71l-94.84 -28.81 4.8 54.54c16.58,229.9 68.48,142.49 -92.4,369.95 -206.17,291.41 -47.19,96.38 -245.48,194.12l-75.82 -32.43 27.81 62.23 40.31 119.76c-81.53,340.32 -301.02,763.54 -408.45,1270 -69.57,328.37 -48.28,278.82 -176.01,425.21l26.82 1488.22c406.81,376.83 560.63,344.5 540.07,1014.55l114.68 -382.63 72.74 307.72 122.92 -153.72 159.16 352.28c269.4,-56.34 -37.69,-16.94 240.86,-102.63 102.91,302.55 118.85,218.13 310.35,370.76 451.2,-55.43 554.47,-94.02 859.02,233.62 271.48,291.96 356.27,112.78 558.91,464.61 -165.5,-73.82 -344.32,-175.28 -547.14,-220.12 -11.68,275.02 -352.83,1145.18 -478.56,1352.35l49.37 187.6 -144.12 75.82 136.6 162.33 129.54 -279.18 51.81 324.2c233.35,-494.96 -98.82,-179 103.45,-520.59 135.43,234.79 26.63,523.13 -129.63,749.5l150.47 413.25c-243.95,14.76 -375.75,12.86 -601.13,-8.34 -539.52,-50.81 -414.51,233.44 -824.32,-384.62 -294.13,-443.69 -244.85,-424.94 -374.48,-417.6 -310.44,17.49 216.86,73.01 -60.96,10.51 99.01,-323.75 86.87,-15.22 100.91,-283.98 5.52,-107.26 -79.26,-812.37 52.36,-987.29 -451.66,-813.37 242.58,-1745.03 -659.74,-2103.75 -228.36,212.78 -286.88,351.65 -375.74,705.93 -53.81,214.23 -192.22,505.83 -316.96,700.04 -28.81,591.34 31.7,1004.95 154.9,1573.1 102.91,474.31 466.79,892.9 525.58,1241.02l168.76 199.29c415.78,345.94 728.21,775.5 1273.71,973.88 627.31,93.66 1503.54,-96.29 2065.25,37.32l146.21 -10.33c76.36,-251.37 420.13,-418.59 451.75,-818.34 51.36,-648.23 -613.26,-645.79 -806.94,-1642.59 -127.09,-654.2 -219.85,-771.06 -74.73,-969.44l224.83 761.01 57.25 -148.38c160.97,288.6 240.51,240.14 187.79,600.31l385.26 13.31c-192.32,205 -43.49,273.84 113.86,288.61 360.62,33.88 137.24,206.8 655.66,507.82 355,206.08 566.52,-42.94 514.79,526.21l-497.67 -17.76c87.77,183.35 361.07,127.64 636.09,134.25 231.8,5.62 454.55,-3.89 685.91,-20.2 386.89,-27.36 780.48,-143.67 1168.27,-206.17l126.55 17.57c14.04,-14.76 34.6,-32.61 43.39,-43.12l109.34 -142.58c96.83,-134.25 33.33,-122.38 186.69,-197.66l-49.37 954.14c199.93,114.23 55.17,13.86 172.84,128.27 1.09,0.99 100.37,146.56 107.71,156.71l104.26 103.63c173.02,409.17 245.49,214.41 443.6,596.14 506.18,-25.36 837.64,159.25 1378.25,-215.77 518.05,-359.26 485.63,-607.02 747.96,-1058.67 61.78,121.2 149.74,-6.8 11.23,345.85 -168.3,428.65 -542.15,656.92 -637.45,812.01l280.73 27.17 260.25 -269.94 386.34 24.91 120.66 19.75c247.03,-626.31 175.65,-541.43 134.07,-1210.76 -296.03,40.76 -410.17,201.19 -714.9,35.78l680.48 -149.2 681.11 -306.08c-26.63,-218.41 -75.64,-266.96 -169.85,-411.26 -167.85,-257.08 -57.97,-187.15 -351.2,-272.21 -223.56,105.08 -223.29,-152.82 -219.4,320.04 -405.09,24.37 -745.96,372.3 -1015.09,585.18l-477.57 291.05c-629.65,451.57 -1061.93,-7.25 -1241.65,356 -14.13,-348.39 128.54,-175.37 160.97,-662.45 660.46,-234.8 263.7,-237.79 562.17,-507.55 126.73,-114.5 486.08,-280.36 631.2,-378.28l63.59 -453.47c404.55,-127.18 667.98,-459 1039.01,-335.53 149.38,-262.79 71.11,-63.32 105.63,-317.86 -251.56,146.29 -37.87,87.05 -379.74,85.69 -328.37,26.09 -629.84,131.26 -887.28,-10.51l470.77 -93.39 243.13 -282.72 76 4.26 1.45 -163.23 283.08 -866c152.82,-91.76 36.87,-84.97 157.71,67.49l31.52 -217.14c-56.79,-415.78 98.02,-752.31 122.75,-1192.64 20.65,-368.05 13.49,-791.62 -13.77,-1159.76 -58.79,-794.71 -515.34,-1447.46 -575.85,-1958.27 -151.82,-115.32 -158.8,-154.81 -247.66,-356.54 -155.36,-135.7 -355.01,-445.05 -513.35,-673.14l-327.74 -243.5 -172.65 -137.32 -104.17 6.16c3.44,11.86 50.09,181.35 50.81,194.03 9.61,165.23 4.99,68.94 -47.91,197.11l18.84 78.99 148.01 283.99c166.77,171.93 132.71,169.94 172.66,474.94 33.42,254.99 46.56,362.34 10.14,623.04 -61.78,441.78 -268.4,590.25 -266.41,948.43l204.27 5.16 27.18 158.07 257.35 -227.82c-120.3,255.18 -62.05,155.44 12.95,412.62 -781.66,302.28 -517.33,403.01 -527.56,520.23 321.66,-155.72 119.21,-128 289.51,-212.34 61.87,-30.61 4.62,55.81 223.2,-40.12l5.16 372.93c-49.19,-147.92 -35.6,-24 -90.95,-289.05 -255.08,-8.7 -88.68,-89.5 -249.47,110.87 127.27,66.95 340.87,-75.18 -49,261.07 -188.33,162.42 -173.11,48.92 -217.68,254.54l-111.24 246.03 3.17 621.42 -10.69 502.56c15.67,343.96 24.73,139.23 -82.88,211.88l-43.66 -1.81 -120.85 179.09 -209.61 199.92c-536.72,146.39 -570.6,134.61 -1121.99,44.48 -160.24,243.04 -469.68,-7.43 -724.59,-141.86 -904.04,-476.66 -1423.18,-1338.21 -1710.79,-1505.25 -39.95,-292.23 -111.96,-106.53 131.89,-235.71l-169.21 -110.15c-47.1,195.76 172.84,25.55 -91.4,196.57l-637.27 -409.08 155.09 -59.97c0,-198.02 -41.95,-142.03 172.56,-110.33 -204.81,-270.03 2.36,-72.47 -326.74,-219.31l204.45 -199.83c-17.75,-12.32 -47.65,-30.07 -53.17,-37.05 -2.18,-2.81 5.43,-14.67 4.16,-25.36 -2.99,-26.18 41.04,-8.88 61.51,-13.68 327.01,119.84 99.01,30.62 146.39,-109.79l-43.12 -67.67c-444.68,-7.88 -457.73,-296.12 -517.15,-703.48 -89.59,-324.29 -60.42,-119.75 -25.73,-365.42l-83.16 46.56c-199.83,-168.22 -148.47,-18.03 -229.99,-532.82 -49.1,-309.8 -15.49,-135.88 -144.85,-384.17l-759.28 -49.46c-59.15,-474.85 37.77,-927.32 407.81,-1232.6 264.78,-204.17 409.27,-578.2 776.77,-641.7l65.22 -48.28 103.72 -268.68 7.7 -58.24 -38.41 -78.45c-498.31,57.34 -709.1,302.1 -1092.27,337.61z"/>
    <path class="fil25" d="M15434.17 10054.23c26.18,424.3 338.06,777.4 361.71,1138.38 306.45,131.98 186.78,293.04 528.02,404.74l223.56 38.13c256.18,-212.78 290.05,-351.92 553.11,-361.8l110.06 28.54 -18.93 -122.11 -22.37 -135.7c-1121.08,468.42 -1106.77,-836.37 -980.31,-1011.11 95.11,-131.44 189.86,-98.01 191.67,-98.37l314.7 -163.96c-410.17,-109.61 -233.26,30.25 -225.74,-153.73 226.46,-143.3 240.77,-131.89 505.19,-73.1 -85.78,44.39 -531.91,-0.72 -751.58,27.45 -117.49,15.13 -639.26,127.72 -749.5,158.43l-39.59 324.21z"/>
    <path class="fil25" d="M15234.25 10638.86l-39.77 49.92 52.54 143.39c115.77,60.33 97.47,-124.91 133.52,165.95 140.32,-30.34 81.35,-35.41 35.06,127.91 96.93,43.21 96.38,-91.49 62.87,155.9l170.84 221.93 5.07 2.08c135.7,-57.06 114.68,-85.78 85.42,57.44 133.8,-27.63 116.5,-63.32 92.04,63.13l82.7 32.8 171.48 -24.82c-163.96,-227.37 -218.85,-187.33 -290.14,-441.88 -266.14,-150.82 -527.84,-769.7 -505.56,-1101.79 -122.74,-39.22 -102.63,-73.28 -99.82,43.67l43.75 504.37z"/>
    <path class="fil25" d="M3130.89 11403.67c105.72,-70.65 80.26,81.89 110.97,-197.65l-178.9 -216.77 11.05 -107.53 -199.02 18.3 -121.2 75.46c-56.16,321.3 -26.63,370.49 135.7,616.43 240.23,-135.33 209.43,-162.69 241.4,-188.24z"/>
    <path class="fil25" d="M2131.65 11155.11l-258.35 -570.87c7.07,327.01 17.21,398.76 230.18,667.34l28.17 -96.47z"/>
   </g>
  </g>
 </g>
</svg>
