<?xml version="1.0" encoding="UTF-8"?>
<!DOCTYPE svg PUBLIC "-//W3C//DTD SVG 1.1//EN" "http://www.w3.org/Graphics/SVG/1.1/DTD/svg11.dtd">
<!-- Creator: CorelDRAW 2017 -->
<svg xmlns="http://www.w3.org/2000/svg" xml:space="preserve" width="40mm" height="40mm" version="1.1" style="shape-rendering:geometricPrecision; text-rendering:geometricPrecision; image-rendering:optimizeQuality; fill-rule:evenodd; clip-rule:evenodd"
viewBox="0 0 4000 4000"
 xmlns:xlink="http://www.w3.org/1999/xlink">
 <defs>
  <style type="text/css">
   <![CDATA[
    .fil0 {fill:#0C0C0E}
    .fil2 {fill:#CFC806}
    .fil4 {fill:#CFC806}
    .fil3 {fill:#EBE404}
    .fil1 {fill:#FAF239}
   ]]>
  </style>
 </defs>
 <g id="Capa_x0020_1">
  <metadata id="CorelCorpID_0Corel-Layer"/>
  <path class="fil0" d="M128.08 3329.08c22.9,160.21 121.11,304.11 228.04,381.85 68.02,49.46 98.43,52.55 167.67,63.42 159.07,25.01 74.27,106.79 300.57,110.32 242.27,3.78 354.44,4.74 561.32,-80.58 260.19,-107.31 257.36,-199.32 310.62,-329.58 324,33.79 433.37,93.77 828.88,1.27 1160.74,-271.48 1324.91,-1381.87 1334.49,-1395.59 78.09,-775.51 -190.77,-1396.11 -805.86,-1778.79 -462.12,-287.51 -1146.8,-328.4 -1650.79,-112.49 -357.06,152.95 -668.93,440.31 -853.45,802.63 -301.24,591.51 -235.25,1167.57 83.82,1727.69 -111.81,83.5 -108.96,55.01 -173.76,196.89 -139.77,3.82 -196.6,-6.16 -272.92,94.48 -64.94,85.64 -69.24,188.02 -58.63,318.48z"/>
  <path class="fil1" d="M839.52 2740.33c62.84,-23.05 209.56,-219.41 450.73,21.83 149.46,149.5 153.61,244.21 181.4,486.08 334.22,178.89 856.81,168.23 1221.96,32.35 1134.77,-422.28 1446.3,-1922.55 447.78,-2747.02 -975.63,-805.58 -2505.07,-159.8 -2632.07,1053.29 -24.1,230.12 -4.53,474.5 62.19,673.3 43.58,129.84 167.26,429.45 268.01,480.17z"/>
  <path class="fil0" d="M1482.4 903.91c-322.24,124.78 -161.09,643.03 132.88,544.03 303.38,-102.15 167.55,-660.35 -132.88,-544.03z"/>
  <path class="fil0" d="M2569.17 901.85c-322.83,95.88 -196.9,630.41 109.8,549.13 296.18,-78.5 207.49,-643.34 -109.8,-549.13z"/>
  <path class="fil1" d="M671.54 2866.7c-139.48,77.29 -94.99,287.6 -44.98,398.86 48.48,107.87 185.17,283.8 320.47,216.17 224.93,-112.45 -54.84,-737.29 -275.49,-615.03z"/>
  <path class="fil0" d="M2901.33 1809.3c354.2,9.77 347.7,309.95 259.4,559.54 -25.23,71.32 -76.75,150.61 -86.34,219.69 33.55,25.6 68.81,49.26 117.64,53.24 78.11,-143.45 199.84,-451.19 149.33,-653.41 -50.17,-200.83 -265.24,-337.68 -509.7,-325.85l-166.85 2.9c-1.79,6.67 -4.91,7.67 -5.44,13.84 -1.8,20.36 -23.72,19.64 0.93,101.95l241.03 28.1z"/>
  <path class="fil1" d="M1115.44 3502.57c-129.05,158.6 -142.36,123.56 -348.52,116.32 -27.51,41.2 -45.56,54.46 -53.86,99.38 210.32,107.9 811,-21.91 825.55,-229.39 -59.59,-68.01 -133.05,-72.65 -193.47,-32.18 -102.91,68.95 -100.46,35.11 -229.7,45.87z"/>
  <path class="fil1" d="M343.22 3062.78c-215.87,79.22 -2.32,608.87 217.48,569.42 68.94,-12.38 96.82,-80.05 56.4,-136.87 -77.58,-109.07 -127.9,-150.03 -162.14,-318.71 -17.3,-85.21 -3.72,-153.49 -111.74,-113.84z"/>
  <path class="fil1" d="M973.37 2809.72c6.93,49.61 62.97,99.53 87.82,138.54 96,150.73 82,229.57 100.53,367.22 20.56,152.68 299.79,-16.8 102.19,-367.27 -57.84,-102.59 -153.37,-205.29 -290.54,-138.49z"/>
  <path class="fil2" d="M2522.71 2812.97l59.25 6.53c39.02,-56.19 102.18,-43.91 187.75,-130.82 127.28,-129.27 99.31,-365.36 46.15,-450.66l-42.36 -43.43c-61.65,-63.82 -104.61,-121.84 -196.39,-135.2 13.4,14.68 19.71,12.07 1.13,3.12 -37.59,-18.11 -11.3,-14.37 -67.99,-25.73 45.32,58.52 107.58,80.79 156.99,146.58 135.88,180.9 106.05,426.94 -95.94,582.71l-48.59 46.9z"/>
  <path class="fil3" d="M2774.73 2786.32c202,-165.01 231.83,-425.64 95.95,-617.27 -139.99,-197.44 -413.13,-256.18 -621.77,-154.98 -121.98,59.18 -233.55,172.72 -265.06,332.06 -38.13,192.84 61.15,342.28 148.43,421.68 156.1,142.02 505.31,158.7 642.45,18.51z"/>
  <path class="fil4" d="M2688.97 2766.07c202,-155.77 231.83,-401.81 95.95,-582.71 -139.99,-186.39 -413.13,-241.84 -621.77,-146.3 -121.98,55.86 -233.55,163.04 -265.06,313.46 -38.13,182.05 61.15,323.12 148.43,398.07 156.1,134.08 505.31,149.82 642.45,17.48z"/>
  <path class="fil0" d="M2571.3 2766.07c201.99,-155.77 231.82,-401.81 95.94,-582.71 -139.99,-186.39 -413.13,-241.84 -621.76,-146.3 -121.99,55.86 -233.56,163.04 -265.07,313.46 -38.13,182.05 61.15,323.12 148.43,398.07 156.1,134.08 505.31,149.82 642.46,17.48z"/>
 </g>
</svg>
