<?xml version="1.0" encoding="UTF-8"?>
<!DOCTYPE svg PUBLIC "-//W3C//DTD SVG 1.1//EN" "http://www.w3.org/Graphics/SVG/1.1/DTD/svg11.dtd">
<!-- Creator: CorelDRAW 2017 -->
<svg xmlns="http://www.w3.org/2000/svg" xml:space="preserve" width="35mm" height="35mm" version="1.1" style="shape-rendering:geometricPrecision; text-rendering:geometricPrecision; image-rendering:optimizeQuality; fill-rule:evenodd; clip-rule:evenodd"
viewBox="0 0 3500 3500"
 xmlns:xlink="http://www.w3.org/1999/xlink">
 <defs>
  <style type="text/css">
   <![CDATA[
    .fil0 {fill:#E6E7E8}
    .fil4 {fill:#7B481B}
    .fil5 {fill:#84B403}
    .fil1 {fill:#8BC202}
    .fil7 {fill:#F48332}
    .fil3 {fill:#F49843}
    .fil2 {fill:#FAB74F}
    .fil6 {fill:#FDCB51}
   ]]>
  </style>
 </defs>
 <g id="Capa_x0020_1">
  <metadata id="CorelCorpID_0Corel-Layer"/>
  <path class="fil0" d="M2031.62 2473.83c-116.8,37.4 -177.55,81.6 -329.75,102.76 -60.61,-0.8 -145.47,-20.91 -199.61,-41.53 -25.33,-9.65 -55.35,-19.25 -82.46,-32.14 -31.02,-14.76 -44.07,-28.57 -87.16,-39.9l12.72 16.21c1.36,1.78 8.29,12.6 10.28,14.82 -104.36,2.81 -418.28,22.66 -478.31,77.61 8.06,34.08 26.66,35.27 68.9,45.38 81.61,19.52 216.38,35.28 296.9,40.84 181.84,12.55 1180.85,39.66 1270.48,-77.26 -35.99,-76.32 -370.87,-77.14 -480.08,-84.95 -7.34,-12.45 -4.27,-2.51 -1.91,-21.84z"/>
  <path class="fil1" d="M1240.45 1092.19c44.44,4.91 80.54,-15.6 130.84,-22.21 50.51,-6.63 99.05,-6.63 149.76,-2.5 93.4,7.61 158.95,41.75 233.27,69.24 -0.02,-64.6 -13.12,-160.64 -1.19,-218.38l-5.58 115.73c-53.96,-22.59 -110.85,-86.87 -267.63,-150.42 -116.54,-47.23 -229.13,-60.99 -358.89,-19.42 -5.56,84.1 86.47,188.22 119.42,227.96z"/>
  <path class="fil1" d="M1829.34 1148.67c98.87,-62.23 364.79,-56.11 509.64,40.63 23.74,15.86 34.95,29.82 60.62,19.78l30.43 -53.45c-142.69,-93.09 -241.37,-129.55 -443.21,-90.36 -61.67,11.97 -104.07,30.2 -155.14,40.12l2.05 -106.67 -4.39 149.95z"/>
  <path class="fil2" d="M1240.45 1092.19c-14.51,26.7 -55,38.49 -85.76,56.24 -404.35,233.36 -366.5,900.86 25.8,1208.01 17.17,13.44 144.32,97.66 152.15,106.58 43.09,11.33 56.14,25.14 87.16,39.9 27.11,12.89 57.13,22.49 82.46,32.14 54.14,20.62 139,40.73 199.61,41.53 5.65,-42.81 39.74,-122.06 56.89,-169.96 20.72,-57.86 39.98,-110.1 57.49,-167.35 75.06,-245.52 131.21,-489.66 93.4,-752.94 -23.38,-162.78 -64.62,-209.98 -116.6,-324.69l-38.73 -24.93c-74.32,-27.49 -139.87,-61.63 -233.27,-69.24 -50.71,-4.13 -99.25,-4.13 -149.76,2.5 -50.3,6.61 -86.4,27.12 -130.84,22.21z"/>
  <path class="fil3" d="M1829.34 1148.67l-36.29 12.98c51.98,114.71 93.22,161.91 116.6,324.69 37.81,263.28 -18.34,507.42 -93.4,752.94 -17.51,57.25 -36.77,109.49 -57.49,167.35 -17.15,47.9 -51.24,127.15 -56.89,169.96 152.2,-21.16 212.95,-65.36 329.75,-102.76 47.02,-33.33 112.51,-59.33 165.96,-94.9 56.2,-37.39 98.87,-70.56 147.17,-112.39 199.98,-173.21 349.84,-465.98 260.44,-743.57 -72.58,-225.34 -197.25,-258.96 -205.59,-313.89 -25.67,10.04 -36.88,-3.92 -60.62,-19.78 -144.85,-96.74 -410.77,-102.86 -509.64,-40.63z"/>
  <path class="fil4" d="M1753.13 918.34c-11.93,57.74 1.17,153.78 1.19,218.38l38.73 24.93 36.29 -12.98 4.39 -149.95c7.66,-53.8 38.96,-95.11 12.51,-140.98 -49.05,-26.99 -82.06,16.34 -93.11,60.6z"/>
  <path class="fil5" d="M1117.19 871.47c79.25,-5.07 224.52,44.31 297.33,72.58 110.35,42.83 161.32,88.82 253.07,133.12 -9.74,4.67 -0.33,6.68 -23.91,2.79l106.15 52.48 -2.8 -102.46c-79.13,-33.04 -164.06,-109.95 -273.87,-153.96 -82.13,-32.91 -295.17,-81.83 -355.97,-4.55z"/>
  <path class="fil6" d="M1118.04 1244.03c-123.72,44.03 -261.86,500.41 -104.63,439.24 109.47,-42.6 264.68,-496.2 104.63,-439.24z"/>
  <path class="fil7" d="M1836.8 1279.58c85.46,259.2 106.72,410.86 50.86,685.63 -22.63,111.31 -48.73,210.54 -82.55,317.15 -27.72,87.38 -84.3,211 -102.42,292.78 97.92,-107.6 209.87,-461.85 237.44,-607.05 50.02,-263.48 -7.97,-570.5 -147.1,-806.45l43.77 117.94z"/>
 </g>
</svg>
