<?xml version="1.0" encoding="UTF-8"?>
<!DOCTYPE svg PUBLIC "-//W3C//DTD SVG 1.1//EN" "http://www.w3.org/Graphics/SVG/1.1/DTD/svg11.dtd">
<!-- Creator: CorelDRAW (Versión de evaluación) -->
<svg xmlns="http://www.w3.org/2000/svg" xml:space="preserve" width="200mm" height="200mm" version="1.1" style="shape-rendering:geometricPrecision; text-rendering:geometricPrecision; image-rendering:optimizeQuality; fill-rule:evenodd; clip-rule:evenodd"
viewBox="0 0 20000 20000"
 xmlns:xlink="http://www.w3.org/1999/xlink"
 xmlns:xodm="http://www.corel.com/coreldraw/odm/2003">
 <defs>
  <style type="text/css">
   <![CDATA[
    .fil0 {fill:black}
    .fil1 {fill:#2A245D}
    .fil2 {fill:#E62328}
   ]]>
  </style>
 </defs>
 <g id="Capa_x0020_1">
  <metadata id="CorelCorpID_0Corel-Layer"/>
  <path class="fil0" d="M10633.94 17621.77l63.71 32.65c3.34,-7.24 77.66,58.49 -36.43,112.39 81.21,116.46 23.37,-16.28 29.11,49.3l-10.06 28.01c-0.45,-4.24 -6.39,11.14 -9.05,16.96 24.99,33.78 31.69,43.9 58.49,95.75l-38.3 21.56c-4.02,4.13 -11.11,8.26 -14.65,13.4 -3.39,4.92 -7.74,10.29 -10.14,16.09 -23.78,57.78 29.76,115.38 16.34,188.09 -13.77,74.51 -1.67,14.95 -42.49,48.65 -27.34,-55.66 -100.15,-565.86 -69.65,-646.79l63.12 23.94zm-41.21 -188.65l-13.57 -55.8c32.34,-36.16 47.29,-51.14 85.25,-83.82 11.62,29.49 16.54,2.8 19.45,79.43 0.65,17.56 -7.52,71.1 -10.15,97.87 -152.42,13.88 -32.99,12.74 -80.98,-37.68zm-257.72 -3658.26c-15.88,195.33 -54.22,355.06 -53.85,568.06 0.34,178.9 0.14,440.01 -14.9,614.62 -32.62,378.19 -7.34,844.23 -19.95,1243.57 -73.95,53.45 -552.06,311.7 -618.41,305.17 -13.88,-531.06 2.23,-1063.5 -20.27,-1588.97 -10.37,-241.97 -2.14,-513.05 -198.07,-613.34 -235.04,-120.28 -425.53,-84.13 -668.49,-14.28 77.08,359.2 78.21,76.72 74.11,627.62l18.6 1394.52c-20.35,233.66 20.24,451.86 17.59,687.66 -217.35,177.64 -455.48,322.53 -652.95,477.89 -54.73,43.08 -164.01,116.86 -209.97,168.31 45.25,127.03 276.14,223.54 410.5,254.69 274.05,63.51 351.87,-127.8 547.68,-143.63 -1.39,263.34 191.65,1312.65 265.15,1606.15 46.64,186.29 85.9,239.37 115.84,338.34l21.31 95.46c38.44,136.87 351.31,165.22 485.07,187.55 228.43,38.13 399.05,42.63 520.74,-88.84 -29.54,-107.7 -103.12,-166.75 -152.08,-257.27 -105.83,-195.63 -170.2,-383.61 -227.66,-605.63 -36.5,-141.02 -47.38,-32.25 -96.14,-338.24 -21.74,-136.51 -58.82,-184.11 -78.44,-330.76 -16.82,-125.59 -39.52,-246.32 -64.76,-362.9 -30.98,-143.14 -70.36,-600.26 -70.53,-761.78 66.74,-73.66 496.4,-334.68 600.48,-318.51 27.99,304.61 36.53,665.13 52.1,965.89 15.24,293.93 77.14,624.91 58.94,934.19 185.29,98.59 848.31,319.87 1098.13,93.76l2.01 -98.23c-98.17,-82.74 -138.79,-62.41 -261.45,-116.32 -177.03,-612.81 -218.08,-1344.2 -203.1,-2047.1 140.38,-32.48 200.67,-1.87 288.39,-107.73 13.31,-165.98 -154.85,-269.44 -311.74,-303.48 8.31,-535.47 1.67,-1079.28 20.55,-1611.18 17.78,-502 24.48,-815.72 -333.61,-891.3 -133.76,-28.24 -222.92,16.05 -340.82,36.04zm1956.84 4182.25c-74.14,-101.14 -141.14,-324.06 -158.72,-474.98 -25.81,-221.53 -6.36,-356.54 7.66,-579.31 17.33,-274.73 135.4,-728.48 380.54,-873.13 -20.52,317.53 -61.77,678.96 -98.85,1003.87 -33.1,289.85 -45.63,556.89 -99.56,835.27 -4.64,24 -5.85,33.61 -13.06,57.04l-18.01 31.24zm2816.26 -2604.51c17.7,-94.78 -9.05,-59.75 55.72,-106.99 39.65,74.18 26.74,47.89 24.45,142.44l35.25 621.83c127.2,90.54 429.83,221.13 626.52,121.32 16.67,-65.52 -38.48,-213.78 -64.31,-400.63 -14.14,-102.3 -57.95,-294.32 -86.81,-389.33 -80.25,-264.24 -129.47,-560.99 -484.22,-492.45 -306.59,59.22 -415.93,549.35 -522.58,913.89 -33.1,113.24 -46.73,310.91 -103.43,405.41 -19.71,-247.54 -36.67,-497.93 -57.67,-749.82 -23.52,-282 -322.84,-258.31 -531.6,-161.15l-13.4 503.21c-4.12,86.39 19.14,-53.79 2.35,83.22 -9.95,81.24 -7.91,102.95 -48.82,150.75 -4.89,82.46 2.38,162.09 -1.81,239.26 -5.62,103.51 -73.8,272.02 -80.93,670.19 -5.2,288.78 -22.21,690.26 -106.54,932.01 -300.48,-112.65 -482.07,-1025.97 -487.1,-1458.52 -1.84,-156.26 26.97,-522.61 1.67,-646.19 -82.86,-95.35 -215.18,-156.77 -373.53,-172.12 -359.67,-34.91 -245.47,-15.27 -344.04,207.79 -365.78,-3.93 -669.94,-248.41 -903.85,486.74 -212.94,669.17 -259.87,1877.44 656.79,2099.39 698.04,169.04 528.12,-369.88 586.46,-854.24 64.43,53.91 410.28,713.7 1127.48,626.97 95.46,-11.56 149.51,-27.22 206.69,-82.76 104.2,-101.17 55.24,-99.51 105.33,-197.96 173.93,91.33 330.53,111.66 552.06,37.71 21.45,-167.77 4.83,-1000.78 38.61,-1349.91 19.42,-200.76 26.26,-438.38 61.03,-627.54l130.23 -552.52zm2362.11 1562.94c18.74,-42.32 19.34,-57.44 41.27,-81.55 50.43,-55.46 -9.16,-9.73 75.48,-36.52 -24.26,112.27 -4.41,90.06 -116.75,118.07zm-463.53 -2221.74c502.71,273.04 540.59,1085.64 524.56,1612.86 -3.76,123.56 -228.68,446.96 -323.89,534.62 -80.42,74.03 -109.42,113.44 -247.82,159.12 -406.71,134.3 -499.65,-939.19 -512.74,-1148.65 -28.21,-451.91 239.76,-1075.8 559.89,-1157.95zm1304.6 777.39l1.53 17.15 -23.21 75.73 -38.42 69.74c-52.21,-25.5 -29.85,-17.47 -68.18,-72.59 -18.31,71.03 1.62,64.9 -66.79,87.82l80.59 -232.86c36.49,-62.81 21.65,-32.82 54.1,-62.73 28.92,-39.71 53.63,-215.06 140.35,-413.92 80.93,-185.55 12.24,-85.56 71.88,-192.87 33.95,-61.08 81.24,-180.37 104.4,-243.1 -100.16,38.64 -46.79,21.6 -159.52,212.83 -54.3,92.12 -104.78,113.92 -135.57,225.12 -29.09,100.77 -60.66,205.17 -148.85,246.24 4.21,-79.69 -23.16,-175.94 32.93,-239.4 -10.43,-135.74 -7.3,-507.51 21.2,-631.58 34.2,-148.97 33.21,-475.26 44.07,-645.6 11.36,-178.53 100.94,-386.87 -41.41,-525.97 -130.63,-127.66 -377.12,-100.69 -549.07,-46.5 5.54,64.11 -53.57,709.4 -69,797.2 -45.26,257.51 -22.87,535.38 -53.43,803.19 -229.08,-25.67 -291.29,-278.49 -968.61,-178.34 -165.17,24.42 -195.1,29.62 -278.8,129.78 -255.68,305.91 -360.95,776.87 -357.13,1272.57 2.09,269.44 104.62,728.14 278.21,943.23 253.78,314.41 992.61,527.01 1319.55,198.12 67.67,-68.07 33.47,-59.87 78.98,-125.11 69.76,129.61 155.07,166.1 355.38,256.56 127.06,57.38 369.17,147.86 499.74,42.93 -8.32,-109.56 -61.91,-110.81 -146.8,-157.76 -38.33,-47.85 -185.35,-719.91 -119.74,-904.78 53.03,-149.42 259.19,-621.8 242.08,-803.47l-100.46 98.37zm-6469.62 -2205.26c20.49,92.1 66.34,161.44 108.8,215.4 138.59,2.37 265.46,-71.18 410.16,-101l17.95 1008.89c289.48,71.55 327.53,84.18 309.05,-73.58 -7.24,-61.68 -13.21,-99.61 -24,-149.34 -21.83,-100.37 -21.43,-198.21 -23.83,-302.03 -5.03,-218.45 20.75,-424.64 21.73,-638.82 46.48,-34.26 84.67,-53.68 163.48,-64.31 -3.37,249.01 -6.17,502.4 -0.82,751.01 4.07,189.9 22.44,458.78 295.42,382.91l-1.58 -729.49c174.18,5.51 206.07,-37.88 310.15,-46.22 21.03,188.43 -10.35,488.8 60.35,650.01 146.73,74.57 152.5,1.67 171.67,-136.17 24.16,-174.07 104.47,-968.47 59.89,-1050.67 -72.45,-70.5 -115.84,-92.55 -252.96,-113.89l-11.22 412.03c-81.67,67.33 -193.86,114.03 -329.8,116.01 0.14,-199.74 5.17,-228.97 -88.65,-346.11 123.42,-96.39 152.14,-60.89 190.16,-226.93 -175.09,23.04 -1259.23,365.16 -1385.95,442.3zm-1270.85 4331.9c-30.5,80.93 42.31,591.13 69.65,646.79 40.82,-33.7 28.72,25.86 42.49,-48.65 13.42,-72.71 -40.12,-130.31 -16.34,-188.09 2.4,-5.8 6.75,-11.17 10.14,-16.09 3.54,-5.14 10.63,-9.27 14.65,-13.4l38.3 -21.56c-26.8,-51.85 -33.5,-61.97 -58.49,-95.75 2.66,-5.82 8.6,-21.2 9.05,-16.96l10.06 -28.01c-5.74,-65.58 52.1,67.16 -29.11,-49.3 114.09,-53.9 39.77,-119.63 36.43,-112.39l-63.71 -32.65 -63.12 -23.94zm7718.79 -2033.76c-57.21,-37.17 -57.86,63.94 -45.11,-48.42 33.1,-41.78 -45.94,-44.8 68.32,-27.31l-1.53 -17.15 -36.29 -82.18c-3.23,-5.59 -8.94,-13.31 -11.76,-17.95 -2.83,-4.66 -8.37,-11.64 -12.33,-17.61 -32.45,29.91 -17.61,-0.08 -54.1,62.73l-80.59 232.86c68.41,-22.92 48.48,-16.79 66.79,-87.82 38.33,55.12 15.97,47.09 68.18,72.59l38.42 -69.74zm-17.16 -622.56c-66.85,54.44 -62.84,73.67 -109.2,132.94l-6.72 -126.1c-56.09,63.46 -28.72,159.71 -32.93,239.4 88.19,-41.07 119.76,-145.47 148.85,-246.24zm-7693.29 2435.81c122.62,-4.75 35.95,-9.11 69.28,29.05 1.44,75.56 9.41,2.29 -55.71,26.75 47.99,50.42 -71.44,51.56 80.98,37.68 2.63,-26.77 10.8,-80.31 10.15,-97.87 -2.91,-76.63 -7.83,-49.94 -19.45,-79.43 -37.96,32.68 -52.91,47.66 -85.25,83.82zm6891.06 -461.78c112.34,-28.01 92.49,-5.8 116.75,-118.07 -84.64,26.79 -25.05,-18.94 -75.48,36.52 -21.93,24.11 -22.53,39.23 -41.27,81.55zm-2362.11 -1562.94c9.27,-7.46 33.75,-6.3 49.5,-31.97 5.08,137.84 -4.7,12.05 30.67,67.42 2.29,-94.55 15.2,-68.26 -24.45,-142.44 -64.77,47.24 -38.02,12.21 -55.72,106.99zm3181.5 211.47l23.21 -75.73c-114.26,-17.49 -35.22,-14.47 -68.32,27.31 -12.75,112.36 -12.1,11.25 45.11,48.42zm-7696.88 1869.05c65.12,-24.46 57.15,48.81 55.71,-26.75 -33.33,-38.16 53.34,-33.8 -69.28,-29.05l13.57 55.8zm1102.79 -10125.17c-13.51,-130.06 -43.81,-185.32 -53.11,-336.19 -7.44,-120.33 -11.53,-240.84 -19.42,-358.09 -32.65,-485.07 394.5,-1312.68 916.91,-1343.44 216.13,414.32 -134.75,1588.26 -342.15,1798.41 -107.9,109.33 -268.91,256.27 -502.23,239.31zm-1078.96 205.28c-343.68,-362.73 -377.74,-965.03 -351.09,-1452.61 10.01,-183.03 129.89,-377.94 124.86,-501.13 -43.7,-115.72 -582.14,-291.97 -678.39,30.45 -139.27,466.66 -81.32,1045.75 50.51,1469 280.5,900.43 1260,1116.85 1441.67,764.18l58.63 -120.79c166.38,48.48 415.33,235.98 600.82,82.94 -1.38,-97.63 -74.17,-151.68 -103.34,-288.41 292.62,26.48 749.9,197.96 1056.35,-264.81l253.08 -464.04c70.16,-173.79 115.53,-356.42 154.4,-570.44 141.62,-779.7 -222.41,-1091.83 -888.34,-1174.08 -352.63,-43.56 -443.12,70.83 -598.95,108.32 43.13,-515.18 140.51,-734.14 183.9,-1080.75 30.98,-247.71 96.76,-376.38 -88.22,-496.97 -144.05,-93.91 -347.55,-122.12 -550.11,-107.22 10.06,290.9 -239.31,1628.54 -289.06,2081.47 -18.6,169.55 -25.81,365.59 -34.52,532.82 -12.32,237.05 -299.04,1405.4 -342.2,1452.07zm-3088.87 5906.73c-85.54,-40.71 -95.35,-70.24 -213.85,-56.54 -166.97,49.98 -1271.18,495.5 -1394.82,495.39 -56.43,-0.08 -29.09,-4.97 -56.96,-18.49 -20.16,-97.4 -59.85,-644.15 -32.26,-715.5 -74.57,-48.06 -41.72,-246.18 -54.58,-418.05 -34.37,-458.67 6.59,-958.09 -16.93,-1426.32 -16.71,-220.23 -23.3,-405.58 -48.17,-621.4 -21.99,-190.8 -69.74,-417.31 -84.63,-599.07 -17.33,-211.86 -25.36,-458.27 -148.35,-557.66 -149.31,-120.65 -383.03,-135.37 -584.57,-92.43 2.32,125.36 62.89,372.7 75.3,529.16 89.47,1125.98 13.26,2410.82 79.18,3638.02 9.84,183.17 38.67,403.57 32.96,574.39l-315.92 130.15c-53.39,374.29 207.26,585.44 576.06,482.52 449.03,-125.31 1107.04,-434.21 1693.99,-606.22 158.13,-46.36 306.61,-71.94 460.02,-111.26 201.32,-51.62 113.18,14.9 250.99,17.95 115.84,2.6 123.02,-66.74 198.27,-116.35 -14.28,-182.27 -70.7,-230.41 -151.18,-322.53 -38.67,-44.21 -191.2,-167.63 -264.55,-205.76zm-5459.04 -12648.6c-26.01,141.56 -80.84,511.47 119.49,602.24 169.29,76.71 497.36,-67.51 635.99,-106.74 21.68,145.55 2.2,734.24 4.86,965.95 1.86,161.35 22.58,158.33 -43.53,287.2 11.36,80.9 44.74,151.65 52.46,240.44l38.73 860.46c13.14,333.73 94.81,833.36 43.67,1148.79 118.53,89.58 746.12,269.14 822.98,-5.57 -35.11,-33.16 -47.32,-38.38 -87.69,-64.98 -25.78,-330.96 -61.9,-653.46 -95.48,-988.54l-56.88 -1023.09c39.6,-71.57 830.02,-452.14 958.75,-508.16 289.09,-125.85 332.79,-5.4 410.61,-91.11 66.06,-139.89 -112.36,-258.05 -201.77,-300.08l-420.51 -165.6c-246.69,45.49 -522.32,304.67 -782.47,387.64l9.81 -932.46c208.25,-55.01 829.06,-290.28 1110.49,-349.36 104.22,-21.88 111.23,3.11 208.1,-9.69 103.06,-211.5 -110.02,-551.62 -210.85,-711.1 -256.95,27.28 -2086.16,769.81 -2516.76,763.76zm6671.85 2237.62c29.06,-71.4 -5.93,-48.71 88.79,-83.79 -15.69,107.45 14.47,64.74 -88.79,83.79zm-445.46 54.02c-576.52,-395.32 20.83,-2442.79 450.66,-1254.79 76.58,211.64 57.95,304.8 57.72,544.26 -0.28,307.27 7.55,289.51 -141.42,485.29 -85.82,112.79 -182.04,227.73 -366.96,225.24zm490.6 10.54c7.38,-98.57 -7.34,-28.07 35.93,-53.56 44.07,29.48 13.97,0.08 33.53,54.27 77.51,98.88 382.37,259.35 562.44,187.3 -24.8,-121.52 -12.36,-41.67 -79.8,-108.77 -64.45,-64.14 -103.04,-420.57 -100.61,-537.74 3.2,-153.23 182.33,-437.09 213.68,-653.45l-51.82 21.99c-14.98,90.82 -7.07,62.7 -53,131.58 -74.23,-11.7 -39.01,21.46 -64.9,-46.07 -25.16,65.69 4.49,31.69 -47.8,61.93 13.99,-80.76 50.99,-165.99 115.95,-225.6 19.84,-123.76 77.48,-171.75 83.47,-271.23l23.3 -82.54 -69.43 40.17c-38.78,66.65 -48.34,104.67 -118.13,148.12 23.29,-322.33 57.5,-619.54 90.54,-934.27 18.52,-176.41 192.5,-620.55 -389.38,-482.89l-137.44 1115.83c-137.24,-8.59 -296.69,-227.1 -749.62,-128.79 -268.15,58.23 -403.58,638.65 -413.02,946.65 -9.27,302.97 -72.67,393.99 -190.6,717.6 -32.14,88.14 -73.5,270.97 -165.14,299.32 -66.01,-225.18 -48.26,-730.54 -67.11,-994.16 -10.15,-142.22 -16.45,-354.11 -111.4,-441.91 -103.83,-96.02 -271.71,-132.77 -443.77,-101.19 -226.23,106.42 -307.1,819.19 -386.62,931.52 0.63,-222.01 55.75,-563.88 28.67,-745.98 -32.74,-67.02 -391.68,-241.83 -424.81,-70.21l-23.01 204.71c-55.03,293.9 -105.72,1195.51 54.7,1405.8 76.32,100.06 269.22,184.78 450.08,143.54 54.84,-359.34 -45.54,-278.95 145.09,-957.93 44.84,-159.65 66.6,-303.2 114.91,-455.42 39.4,-124.12 97.95,-305.28 213.33,-366.4 32.48,379.1 -44.15,801.89 3.68,1181.01 46.1,365.73 229.62,633.05 637.71,581.61 224.87,-136.08 224.14,-583.67 311.14,-674.83 126.44,153.8 195.78,219.41 437.21,273.91 103.27,23.32 216.11,46.7 327.45,24.65 69.54,-13.74 170.23,-74.77 204.6,-138.57zm-3515.16 2047.02c-29.49,162.22 22.1,350 104.95,439.47 183.03,197.62 657.73,-272.33 1250.16,-346.76 -17.27,297.04 -78.9,592.8 -90.06,871.63 -13.17,329.32 -49.61,577.25 -56.48,910.58l-22.36 885.25c-23.15,252.63 47.04,579.2 9.89,885.79 88.51,66.62 232.73,119.12 366.55,151.29 182.63,43.92 329.71,64.13 387.04,-79.49l-76.21 -95.83 -109.09 -1027.92c-28.43,-378.75 124.89,-2374.86 190.44,-2697.42 193.21,-76.66 714.21,-249.29 925.33,-276.03 170.37,-21.59 496.52,84.92 392.7,-191.34 -37.94,-100.91 -264.64,-301.58 -344.05,-377.65 -368.04,103.99 -917.56,336.04 -1449.75,488.23 -250.79,71.72 -486.06,149.06 -729.33,227.41 -215.2,69.29 -528.82,211.16 -749.73,232.79zm8873.96 414.99c-61.25,-109.22 -70.07,-63.88 -34.45,-211.5 35.59,-147.67 112.25,-460.42 264.04,-526.39 127.26,140.8 176.84,384.52 174.3,618.07 -4.18,381.15 -48.2,438.08 -246.1,549.06 -217.77,-84.83 -168.89,-150.18 -157.79,-429.24zm1855.28 461.44c-49.3,82.2 -26.71,65.83 -110.61,103.51 36.1,-78.21 17.89,-58.31 88.34,-106.42 -20.36,-88.96 -20.75,-50.29 10.88,-134.53l146.45 -600.96c128.08,-312.84 7.21,-400.52 99.25,-652.25l-413.95 963.44c-199.91,409.65 -505.08,952.73 -845.9,1235.54 -416.27,345.43 -584.52,256.19 -816.34,-144.39 -87.71,-151.59 -134.27,-353.45 -118.95,-577.27 192.48,19.47 315.21,134.75 575.53,111.48 133.76,-11.95 375.11,-161.4 414.46,-291.91 141.73,-470.04 -31.35,-1245.35 -607.58,-1394.49 -162.46,-42.04 -499.6,-64.74 -590.57,51.47 -375.47,479.64 -527.64,1631.68 -92.32,2161.27 337.66,410.76 995.21,682.52 1453.91,446.09 398.6,-205.5 411.15,-394.95 520.88,-508.5 107.87,-111.57 68.86,-79.01 148.07,-212.32 69.51,-116.97 209.12,-354.59 221.19,-484.28l-82.74 34.52zm-7748.95 756.52c-43.79,-607.55 112.25,-914.99 -170.96,-977.8 -134.7,-29.88 -251.95,-23.46 -341.95,39.29 -64.77,95.26 -115.82,1995.15 50.42,2453.39 105.3,290.25 412.71,287.88 621.13,202.06 30.18,-477.05 132.8,-1572.75 266.13,-2028.22 59.56,-203.44 98.37,-419.38 216.02,-549.83l2.72 744.08c129.55,118.44 426.92,230.21 624.17,149.28 12.32,-139.41 -20.27,-88.14 -37.54,-204.03 -26.23,-175.88 11.42,-272.75 -73.69,-647.13 -69.71,-306.5 -119.18,-539.93 -492.87,-445.72 -115.67,29.15 -164.83,67.5 -249.66,224.25l-292.82 666.46c-45.54,119.51 -63.29,276.59 -121.1,373.92zm1013.36 3733.76c-26.55,-28.44 -13.34,4.75 -27.82,-47.18 -29.62,-106.45 10.24,55.6 -5.37,-44.58 -11.7,-75.19 2.72,-46.78 -24.59,-121.07l-82.34 -9.41c-23.1,5.12 -439.96,67.33 -459.58,85.06 3.28,144.73 36.95,251.49 51.2,405.66 14.72,159.63 18.2,314.82 42.34,473.48 6.7,122.66 43.96,145.92 86.05,252.4 4.18,6.11 9.69,8.29 11.67,18.91 18.35,97.5 191.85,99.08 229.34,307.89 46.47,258.9 -70.28,296.95 -121.33,464.04l225.66 637.4c66.29,78.56 462.51,144.59 745.27,-61.51 100.52,-73.27 41.36,-410.95 43.9,-659.39 2.43,-237.96 -7.24,-409.37 18.86,-644.22 150.12,-1350.64 13.28,-1749.58 -107.76,-1036.59 -85.26,502.23 -145.63,565.49 -214.07,1225.7 -13.62,131.48 -10.26,587.37 -40.28,664.97 -136.82,-177.55 -416.95,-1597.79 -371.15,-1911.56zm6019.38 2516.73c-4.3,-4.43 -11.62,-16.79 -13.2,-13 -1.56,3.73 -9.98,-10.37 -11.99,-13.71 -56.31,-93.9 -56.31,-232.61 -135.85,-315.92 -94.02,-98.48 -280.58,-50.06 -438.17,-47.17 -95.29,1.75 -640.43,159.34 -854.58,204.85 -20.56,106 2.37,21.99 -43.11,56.11l42.88 221.87c34.88,266.93 -104.08,841.61 44.04,1026.73 202.65,219.98 677.12,-238.57 684.81,-563.06 -157.28,34.15 -283.67,246.58 -420.14,273.97l5.09 -371.12 356.42 -287.85c50.91,-46.75 57.81,-63.23 70.73,-154.65 -179.81,32.28 -298.14,152.98 -429.1,168.93l3.42 -175.54c217.88,-133.96 370.33,-157.65 554.72,-316.37 22.41,391.95 -58.35,799.68 23.8,1201.02 50.82,27.99 106.68,51.76 177.57,40.48 115.48,-18.34 34.91,-6.64 66.6,-34.99 62.19,-84.61 26.6,-588.96 28.86,-739 88.03,77.31 56.34,135.26 145.3,194.06 72.11,47.66 199.11,73.04 282.19,26.74l31.58 -95.26c6.38,-53.23 3.61,-69.43 14.58,-123.25 16.48,-80.84 30.33,-159.26 69.54,-208.13 7.72,180.63 -8.71,336.78 14.56,522.35 23.94,190.86 64.59,288.36 298.25,232.25l-19.14 -1178.33c-88.05,-88.9 -164.71,-61.29 -287.73,-53.06 -145.21,177.52 -150.98,331.89 -261.93,521.05zm-11366.25 -6987.51c18.74,221.03 -81.36,1001.49 -143.21,1195.52l-58.4 -88.51c-15.29,-35.78 -29.28,-76.77 -38.41,-107.78 -111.97,-379.63 -82.32,-673.44 -125.03,-802.66 -102.67,-26.4 -197.45,-9.8 -277.92,21.01 -17.13,352.75 39.26,687.01 175.99,962.42 68.63,138.2 187.72,208.05 383.14,174.72 203.29,-34.71 203.63,-185.6 221.58,-379.04 22.48,25.81 15.81,5.46 35.39,48.25l64.23 208.79c261.7,-72.65 125,-934.07 77.65,-1145.6 -38.61,-172.68 -179.19,-132.97 -315.01,-87.12zm748.74 4.36c65.02,-45.8 96,-96.25 208.79,-104.06 6.02,188.46 -48.23,589.04 -179.19,661.8l-29.6 -557.74zm-301.67 -6.62c4.53,266.22 13.54,979.64 125.34,1174.09 75.79,43.28 153.24,62.53 239.34,23.35 64.68,-120.22 -7.32,-230.83 -15.83,-351.85 156.15,87.46 188.6,209.66 457.2,219.47 -79.09,-157.25 -228.94,-183.31 -297.77,-347.07 146.29,-91.92 163.58,-161.94 219.33,-328.46 114.28,-341.3 127.63,-663.84 -362.79,-603.91 -156.12,19.11 -266.16,140.07 -364.82,214.38zm-1526.04 1406.56c-43.56,-33.86 0.99,35.99 -44.49,-48.14 -57.33,-106 -67.76,-385.91 -64.6,-496.83 7.01,-244.99 0.26,-470.96 156.95,-508.22 205.84,152.79 98.59,865.41 -47.86,1053.19zm-319.37 -1120.89c-133.7,309.39 -187.83,1016.16 141.96,1231.64 510.2,333.36 624.66,-569.56 574.65,-916.06 -58.82,-407.53 -342.63,-326.09 -716.61,-315.58zm3290.28 -2328.7c20.29,-13.82 36.69,22.81 -2.04,-35.7 2.26,-118.35 -67.11,-143.54 -139.16,-211.84 -51.19,-38.69 -11.79,-0.7 -53.23,-56.28 -20.97,-28.12 4.21,-10.85 -40.84,-53.14 34.96,-18.82 32.87,-20.35 60.69,-49.32l-6.62 -41.25c-43.53,-29.73 -29.71,-7.04 -69.54,-65.15 -17.61,-25.67 -19.9,-38.31 -27.61,-71.63l105.72 21.08 -8.14 -53.34c9.8,-6.78 30.95,-41.15 35.67,-44.83 -419.4,-1005.1 198.15,-1224.6 -292.46,-1262.79 -98.96,-7.69 -188.14,6.81 -237.47,71.69 -158.21,251.61 -21.96,913.66 66.82,1146.21 82.91,217.21 451.18,637.26 608.21,706.29zm-3784.08 2449.88l5.17 475.04c-280.95,-166.44 -60.41,-327.08 -613.03,-329.54l266.59 314.9c82.71,94.38 184.33,196.54 324.34,250.13 3.28,201.52 -50.6,441.54 -17.78,638.82 102.72,49.47 168.56,53.37 249.54,-12.27 73.24,-102.75 94.44,-877.36 91.45,-1073.88 -2.63,-171.5 15.4,-217.94 -91.45,-297.82 -76.49,-6.36 -172.01,-10.09 -214.83,34.62zm7866.26 -1412.04c80.31,91.81 235.1,152.79 365.9,156.09 16.31,0.4 58,-0.28 73.29,-2.96 132.72,-23.38 120.08,-113.05 66.88,-197.14l-197.53 -257.18c-40.45,-49.61 -91.42,-70.07 -133.85,-100.23 -88.08,68.66 -146.14,275.63 -174.69,401.42zm-4763.82 -3397.77c117.08,50.06 226.73,110.27 382.45,61.99 12.7,-129.13 -149.45,-323.13 -291.55,-361.74l-90.9 299.75zm4259.02 -19.45l69.43 -40.17 -23.3 82.54c66.49,-51.47 135.49,-224.02 156.38,-311.42 -85.68,26.74 -166.72,181.19 -202.51,269.05zm12.41 391.76l-47.29 -19.59 -2.46 -58.57c-64.96,59.61 -101.96,144.84 -115.95,225.6 52.29,-30.24 22.64,3.76 47.8,-61.93 25.89,67.53 -9.33,34.37 64.9,46.07 45.93,-68.88 38.02,-40.76 53,-131.58zm-3770.99 1540.09l10.97 -71c90.68,-106.88 6.67,-83.56 -10.54,-98.04l8.14 53.34 -105.72 -21.08c7.71,33.32 10,45.96 27.61,71.63 39.83,58.11 26.01,35.42 69.54,65.15zm40 199.99c0,-15.6 8.74,-84.77 8.71,-85.56 -5.97,-95.18 -20.36,-54.75 -42.09,-73.18 -27.82,28.97 -25.73,30.5 -60.69,49.32 45.05,42.29 19.87,25.02 40.84,53.14 41.44,55.58 2.04,17.59 53.23,56.28zm3072.5 -714.68c103.26,-19.05 73.1,23.66 88.79,-83.79 -94.72,35.08 -59.73,12.39 -88.79,83.79zm7259.22 2988.01l-22.27 -2.91c-70.45,48.11 -52.24,28.21 -88.34,106.42 83.9,-37.68 61.31,-21.31 110.61,-103.51zm-10190.52 -2025.79c37.48,52.3 8.11,45.51 84.43,51.79 -37.79,-77.6 -8.87,-45.06 -86.47,-87.49 38.73,58.51 22.33,21.88 2.04,35.7zm2976.44 -897.66l69.46 0.71c-19.56,-54.19 10.54,-24.79 -33.53,-54.27 -43.27,25.49 -28.55,-45.01 -35.93,53.56zm2360.85 7757.83c-61.25,-109.22 -70.07,-63.88 -34.45,-211.5 35.59,-147.67 112.25,-460.42 264.04,-526.39 127.26,140.8 176.84,384.52 174.3,618.07 -4.18,381.15 -48.2,438.08 -246.1,549.06 -217.77,-84.83 -168.89,-150.18 -157.79,-429.24zm1855.28 461.44c-49.3,82.2 -26.71,65.83 -110.61,103.51 36.1,-78.21 17.89,-58.31 88.34,-106.42 -20.36,-88.96 -20.75,-50.29 10.88,-134.53l146.45 -600.96c128.08,-312.84 7.21,-400.52 99.25,-652.25l-413.95 963.44c-199.91,409.65 -505.08,952.73 -845.9,1235.54 -416.27,345.43 -584.52,256.19 -816.34,-144.39 -87.71,-151.59 -134.27,-353.45 -118.95,-577.27 192.48,19.47 315.21,134.75 575.53,111.48 133.76,-11.95 375.11,-161.4 414.46,-291.91 141.73,-470.04 -31.35,-1245.35 -607.58,-1394.49 -162.46,-42.04 -499.6,-64.74 -590.57,51.47 -375.47,479.64 -527.64,1631.68 -92.32,2161.27 337.66,410.76 995.21,682.52 1453.91,446.09 398.6,-205.5 411.15,-394.95 520.88,-508.5 107.87,-111.57 68.86,-79.01 148.07,-212.32 69.51,-116.97 209.12,-354.59 221.19,-484.28l-82.74 34.52z"/>
  <path class="fil1" d="M7099.66 12571.77c-124.57,111.37 -258.62,389.78 -413.16,421.13 -12.21,69.93 -71.91,75.1 -141.42,89.35 -147.04,68.29 -293.13,12.24 -386.3,-45.34l-13.51 -168.79 5.76 -80.93c41.02,-48.28 27.73,-26.99 58.29,-91.67l24.4 -4.1c58.88,-282.33 649.22,-228.91 914.36,-213.84l-48.42 94.19zm1741.16 -568.18c-34.17,70.64 -20.46,63.35 -81.07,105.24l-90.4 52.44c-47.66,71.12 -25.64,36.89 -112.25,76.21 -71.83,32.62 -39.52,31.63 -127.34,46.52 -95.4,60.38 -260.09,57.3 -399.05,44.55 -106.69,-9.8 -289.12,-26 -361.04,-67.78 153.98,-177.01 446.29,-379.29 782.62,-436l79 -15.69c-72.81,-6.55 -124.29,7.18 -199.17,23.44 -100.49,21.82 -114.17,60.52 -204.48,-15.04 331.29,-92.29 394.95,-120.05 752.22,-25.16 -0.9,112.48 36.92,147.22 -39.04,211.27zm-104.39 -486.65l-202.31 -3.82c-308.57,24.14 -743.12,227.61 -887.14,386.28 -49.53,54.55 -70.25,71.54 -119.01,121.18 -459.52,467.85 -0.34,167.99 -977.49,272.16 -354.13,37.76 -386.92,167.85 -499.2,227.13 -21.51,72.67 -47.21,104.22 -73.78,160.95l-50.91 137.58 14.81 230.01c25.73,20.55 7.8,-2.15 46.42,37.12 68.83,69.93 52.97,159.34 320.32,206.89 302.98,53.87 343.65,-54.45 526.97,-100.78l76.29 22.42 120.11 -120.02 71.29 -103.55c-79.57,-132.8 18.99,21.77 -155.08,87.41 60.13,-145.27 304.22,-345.72 375.65,-492.17 0.37,91.47 -9.92,5.46 51.33,37.57l82.54 -108.72 43.88 -55.09c137.83,25.86 254.85,38.7 387.17,56.45 192.76,25.84 294.55,5.54 468.57,15.66l204.91 -7.77c59.81,-38.31 138.03,-74.74 209.43,-122.01 66.4,-43.92 124.29,-110.41 192.5,-129.35 51.05,-167.09 167.8,-205.14 121.33,-464.04 -37.49,-208.81 -210.99,-210.39 -229.34,-307.89 -1.98,-10.62 -7.49,-12.8 -11.67,-18.91 -14.31,62.36 15.2,30.79 -21.94,49.44l-85.65 -14.13z"/>
  <path class="fil2" d="M5828.08 11925.8c-25.64,394.7 27.81,465.68 149.42,755.02 26.57,-56.73 52.27,-88.28 73.78,-160.95 -99.64,-413.78 -175.66,-659.51 250.79,-841.33 476.81,-203.29 863.34,179.39 987.77,123.87 139.9,-62.41 67.62,-667.7 493.1,-771.56 401.71,-98.06 722.91,133 751.18,482.27l202.31 3.82 -98.37 -242.62c-80.65,-248.07 -360.35,-382.03 -559.36,-403.38 -172.79,-18.54 -110.61,-33.66 -139.3,-71.91 -212.99,32.65 -391.13,138.37 -493.52,253.93 -201.04,226.84 -138.34,361.17 -251.78,539.03 -122.08,-16.14 -246.29,-87.43 -384.04,-119.97 -128.81,-30.38 -310.88,-24.02 -442.38,7.83 -332.82,80.68 -406.6,247.68 -539.6,445.95z"/>
  <path class="fil2" d="M8290.91 12636.25c-39.12,193.2 -223.68,517.12 -330.93,630.78 -325.36,-23.85 -642.21,-147.52 -928.47,-172.99l-120.11 120.02c70.44,27.76 139.1,44.13 186.2,76.97 46.75,7.75 67.64,10.86 116.26,23.35 10.57,2.71 44.78,11.22 53.88,15.49 39.09,18.32 22.9,13 46.1,33.55 118.5,-13.7 128.31,15.83 213.85,56.54 10.03,-17.07 -34.74,-43.02 121.91,-19.5 348.99,52.32 100.18,29.14 484.54,35.44 108.94,-245.58 356.25,-620.47 427.63,-912.07l-204.91 7.77c-20.58,32.17 -34.35,70.38 -65.95,104.65z"/>
  <path class="fil2" d="M8429.76 12284c87.82,-14.89 55.51,-13.9 127.34,-46.52 86.61,-39.32 64.59,-5.09 112.25,-76.21l49.22 -333.22c-86.3,-33.13 -75.25,-31.52 -187.28,-18.97l-79 15.69 71.68 -8.82c-17.78,177.55 -59.56,301.14 -94.21,468.05z"/>
  <path class="fil2" d="M6145.27 12868.12c119.31,93.62 236.2,137.83 399.81,214.13 69.51,-14.25 129.21,-19.42 141.42,-89.35 -65.52,-43.37 -158.94,-67.31 -239.14,-106.69 -92.35,-45.34 -143.88,-85.05 -229.44,-132.37l-8.6 -58.32c-30.56,64.68 -17.27,43.39 -58.29,91.67l-5.76 80.93z"/>
 </g>
</svg>
