<?xml version="1.0" encoding="UTF-8"?>
<!DOCTYPE svg PUBLIC "-//W3C//DTD SVG 1.1//EN" "http://www.w3.org/Graphics/SVG/1.1/DTD/svg11.dtd">
<!-- Creator: CorelDRAW 2017 -->
<svg xmlns="http://www.w3.org/2000/svg" xml:space="preserve" width="200mm" height="200mm" version="1.1" style="shape-rendering:geometricPrecision; text-rendering:geometricPrecision; image-rendering:optimizeQuality; fill-rule:evenodd; clip-rule:evenodd"
viewBox="0 0 20000 20000"
 xmlns:xlink="http://www.w3.org/1999/xlink">
 <defs>
  <style type="text/css">
   <![CDATA[
    .fil0 {fill:#0B0101}
   ]]>
  </style>
 </defs>
 <g id="Capa_x0020_1">
  <metadata id="CorelCorpID_0Corel-Layer"/>
  <path class="fil0" d="M18279.29 8536.7c-22.84,-304.84 -99.39,-1146.61 39.42,-1366.17 158.26,-250.36 734.5,-111.98 931.71,38.86 625.95,478.77 300.37,1573.97 -971.13,1327.31zm-15634.42 2236.87c485.5,-10.45 383.14,-107.61 388.1,-628.21l4.96 -2957.55c-33.79,-567.55 50.65,-303.04 -219.29,-479.71 -213.33,120.87 -243.6,-27.1 -230.45,839.11 13.02,856.46 -61.33,2628.12 56.68,3226.36zm3359.05 -3927.42c133.78,363.4 -207.08,145.51 337.46,282.09 66.13,16.58 539.37,13.02 659.54,19.15 155.07,732.36 0.67,2922.06 53.11,3227.79 90.24,525.95 -99.32,177.34 228.25,399.83 294.14,-153.4 142.48,38.25 246.13,-291.48 83.24,-264.81 -71.35,-2556.6 56.8,-3329.45 132.99,-10.49 461.83,1.4 530.49,-8.16 755.17,-104.95 332.3,76.52 480.47,-299.77 -347.42,-229.58 -850.86,-146.87 -1314.02,-146.87 -482.94,0.03 -959.95,-84.64 -1278.23,146.87zm-2277.81 3523.9c36.3,196.65 -43.25,445.31 738.53,467.52 1487.83,42.29 1541.51,-1421.64 1034.13,-1971.57 -421.01,-456.3 -1215.43,-440.02 -1283.83,-1091.27 -130.09,-1238.81 1358.35,-300.8 1374,-815.84 16.98,-559.62 -1255.19,-322.74 -1576.61,23.01 -496.49,534.08 -275.46,1301.81 190.29,1658.91 478.45,366.87 1190.96,387.51 1131.1,1122.54 -62.17,763.53 -806.62,614.33 -1083.95,579.36 -65.06,-8.19 -217.66,-40.02 -283.29,-37.65 -244.56,8.89 -66.89,-28.17 -240.37,64.99zm5596.17 -3600.85l-137.52 5961.69c-7.72,556.29 -99.02,470.95 211.87,662.61 384.34,-225.32 216.83,-1119.94 217.19,-2083.75 0.3,-806.11 -29.7,-1653.15 21.48,-2453.37 1257.05,-54.97 1093.83,172.44 1302.97,-248.3 -233.98,-307.03 -822.8,-169.68 -1316.89,-207.8l2.57 -1297.21c1299.27,-61.47 1204.77,171.58 1434.42,-256.92 -245.13,-400.13 -1241.04,-175.61 -1736.09,-76.95zm5947.54 3999.18l159.09 -512.77c16.78,-169.38 -11.42,-418.57 -7.16,-598.44 13.26,-560.19 41.73,-499.39 317.92,-791.1 784.21,870.91 620.59,1884.16 1537.02,1881.73l-1212.37 -2348.79 1135.95 -1644.46c-694.6,-27.77 -691.07,315.75 -1015.02,778.15 -234.38,334.6 -553.73,731.79 -723.07,1006.29l-192.36 -1829.36c-197.25,90.74 -286.05,6.23 -278.36,832.92l10.95 2833.13c83.48,365.4 -43.48,236.67 267.41,392.7zm-14917.91 2612.9c238.94,-442.15 52.11,-3688.99 120.01,-4521.67 1197.42,-54.21 1085.01,164.05 1319.18,-251.53 -346.82,-274.66 -771.68,-169.14 -1281.06,-185.79l-63.63 -1326.01c511.21,-18.22 1098.43,64.53 1434.59,-132.69 -79.84,-500.95 -131.59,-340.99 -719.14,-301.17 -1228.92,83.37 -1029.17,-245.9 -1054.94,2532.99l-77.65 3414.22c-15.12,641.66 -150.14,701.06 322.64,771.65zm13508.36 -6655.36c-507.41,865.65 563.05,3628.28 -940.87,3667.37 -1601.28,41.62 -336.87,-3238.25 -1056.04,-3682.42 -296.25,116.9 -306.83,17.81 -285.32,1072.52 24.54,1204.74 -249.03,3010.03 1229.45,3053.78 941.2,27.84 1292.21,-595.61 1347.02,-1518.07l16.68 -2134.89c-104.92,-746.48 109.65,-323.14 -310.92,-458.29zm4228.69 4048.92c173.91,-240.3 177.91,-564.21 177.77,-875.67 -0.1,-321.65 -20.84,-528.89 24.24,-852.23 583.16,-82.25 857.03,44.51 1028.08,428.43 97.46,218.69 98.22,393.13 154.13,651.85 97.82,452.53 130.16,510.97 377.72,651.78l128.46 -494.66c-16.69,-501.61 -272.34,-1169.31 -563.19,-1441.31 1280.13,-1446.88 317.26,-2466.56 -1552.03,-2099.67l-25.24 3631.85c73.66,355.54 -39.69,236.94 250.06,399.63z"/>
 </g>
</svg>
