<?xml version="1.0" encoding="UTF-8"?>
<!DOCTYPE svg PUBLIC "-//W3C//DTD SVG 1.1//EN" "http://www.w3.org/Graphics/SVG/1.1/DTD/svg11.dtd">
<!-- Creator: CorelDRAW 2017 -->
<svg xmlns="http://www.w3.org/2000/svg" xml:space="preserve" width="200mm" height="200mm" version="1.1" style="shape-rendering:geometricPrecision; text-rendering:geometricPrecision; image-rendering:optimizeQuality; fill-rule:evenodd; clip-rule:evenodd"
viewBox="0 0 20000 20000"
 xmlns:xlink="http://www.w3.org/1999/xlink">
 <defs>
  <style type="text/css">
   <![CDATA[
    .fil21 {fill:#010102}
    .fil23 {fill:#010105}
    .fil22 {fill:#03030C}
    .fil20 {fill:#0B0B0B}
    .fil44 {fill:#111111}
    .fil48 {fill:#13110F}
    .fil2 {fill:#151515}
    .fil3 {fill:#181816}
    .fil24 {fill:#191D49}
    .fil49 {fill:#1A1A1A}
    .fil34 {fill:#1C213A}
    .fil29 {fill:#1D2344}
    .fil50 {fill:#1E1E1E}
    .fil0 {fill:#232323}
    .fil17 {fill:#242424}
    .fil31 {fill:#250904}
    .fil36 {fill:#29130A}
    .fil51 {fill:#292929}
    .fil47 {fill:#38190A}
    .fil45 {fill:#381C13}
    .fil1 {fill:#3A4496}
    .fil7 {fill:#3A44A8}
    .fil30 {fill:#424242}
    .fil38 {fill:#44220B}
    .fil46 {fill:#444999}
    .fil27 {fill:#464646}
    .fil28 {fill:#482207}
    .fil12 {fill:#494949}
    .fil25 {fill:#4A4A4A}
    .fil42 {fill:#4B362A}
    .fil33 {fill:#9A6237}
    .fil11 {fill:#9C5D34}
    .fil13 {fill:#9C623B}
    .fil35 {fill:#BBBBBB}
    .fil18 {fill:#BCBCBC}
    .fil32 {fill:#BDBDBD}
    .fil41 {fill:#BEBEBE}
    .fil9 {fill:#C78B65}
    .fil5 {fill:#CD8C62}
    .fil37 {fill:#D08D61}
    .fil19 {fill:#D38C60}
    .fil43 {fill:#EBCDB0}
    .fil39 {fill:#F1EFED}
    .fil6 {fill:#F4D4B3}
    .fil4 {fill:#F4F4F4}
    .fil40 {fill:#F5D3AC}
    .fil15 {fill:#F9D2AD}
    .fil10 {fill:#F9F9F9}
    .fil26 {fill:#FAD1AA}
    .fil14 {fill:#FAD1AD}
    .fil8 {fill:#FAFAF5}
    .fil16 {fill:#FBFDFC}
   ]]>
  </style>
 </defs>
 <g id="Capa_x0020_1">
  <metadata id="CorelCorpID_0Corel-Layer"/>
  <g id="_1995031321856">
   <path class="fil0" d="M8455.32 9721.75c233.37,49.31 646.2,183.84 839.05,95.69l-345.92 -103.58 -492.18 -51.33 -0.95 59.22z"/>
   <path class="fil0" d="M9907.16 7093.93l181.1 -695.81c-146.75,77.5 -145.54,134.33 -180.6,323.31 -21.36,115.14 -42.7,256.82 -0.5,372.5z"/>
   <path class="fil1" d="M15526.02 13360.38l123.88 -27.41 -157.95 -191.64c-32.73,-44.21 -29.47,-27.75 -53.38,-102.38 -1.31,-4.08 -13.86,-125.4 -14.76,-134.6l-201.6 -41.38 -125.03 -37.74c58.52,512.84 149.89,342.56 428.84,535.15z"/>
   <path class="fil1" d="M14511.08 12219.07c80.06,-0.79 313.95,17.13 367.12,4.33 77.53,-18.67 90.37,-10.14 114.88,-77.29 92.86,-254.43 -72.74,-171.72 -75.4,-174.29 -254.03,56.07 -387.34,-2.23 -550.16,124l143.56 123.25z"/>
   <path class="fil2" d="M8126.49 10610.9c275.25,60.89 579.17,116.29 865.53,82.98l0.43 -51.45c-119.95,-167.7 -606.21,-163.02 -828.01,-199.79 -3.34,8.42 -3,22.9 -3.11,27.02l-17.28 119.99c-0.93,-6.72 -11.72,14.15 -17.56,21.25z"/>
   <path class="fil2" d="M8947.11 9704.92c196.47,-16.94 263.34,55 444.49,-3.62 -259.25,-94.8 -932.15,-245.79 -1206.65,-169.34 107.31,59.49 236.99,49.76 369.77,67.66 59.14,7.97 174.27,20.25 226.43,31.48l165.96 73.82z"/>
   <path class="fil3" d="M8542.89 7530.8c252.23,23.42 808.8,-156.55 976.64,-284.88l-178.88 -34.59 32.27 -143.32 -252.01 86.49c-70.76,26.77 -147.99,55.33 -216.05,84.85 -157.16,68.17 -322.98,140.18 -435.15,216.75l73.18 74.7z"/>
   <path class="fil3" d="M10252.93 8551.96c63.69,0 42.91,13.11 39.1,-60 -114.72,-320.27 -55.27,-372.52 14.63,-673.81 -245.44,156.26 -182.49,504.97 -53.73,733.81z"/>
   <path class="fil4" d="M10302.28 6125.69c25.24,-64.32 42.03,-57.9 46.72,-148.25 12.86,-247.68 18.29,-100.43 -66.36,-155.15l-61.89 73.59c-3.23,-290.7 110.84,-659.78 304.33,-779.63l-180.19 519.93c30.05,-56.1 61.14,-123.81 95.12,-201.18l138.27 -206.71 -47.08 261.99 24.78 13.15 117.42 -161.95c124.76,-104.14 323.14,-256.48 374.15,-398.26 -897.68,-111.89 -1003.16,729.43 -875.33,1138.84l130.06 43.63z"/>
   <path class="fil4" d="M10742.32 5356.39c-15.45,133.26 -0.35,86.94 167.23,102.87 115.84,-19 70.02,-2.08 150.11,-67.38 30.08,-24.52 72.33,-73.05 111.56,-106.26 119.12,-100.84 134.68,-79.09 202.67,-225.44 -384.04,-56.61 -334.84,215.49 -631.57,296.21z"/>
   <path class="fil4" d="M3229.28 7585.67c119.98,-17.17 194.3,-15.17 336.51,-3.7 83.19,6.72 123.87,19.56 194.1,26.29 204.55,19.59 61.95,31.58 127.17,-23.76 -86.57,-63.96 -226.86,-150.16 -368.31,-183.2 -172.14,-40.21 -233.58,70.83 -371.86,136.95 56.53,82 -8.47,25.56 82.39,47.42z"/>
   <path class="fil4" d="M10663.27 5816.16l106.78 54.41 97.89 -294.24 -220.43 -57.5c-15.38,118.13 -63.04,241.88 15.76,297.33z"/>
   <path class="fil5" d="M12051.77 8087.72l156.14 -9.42c33.24,173.6 33.29,215.71 16.57,392 -26.48,279.21 -67.32,190.72 -145.15,200.08l-27.56 -582.66zm-1529.47 816.23c150.83,57.53 1209.33,45.93 1477.22,33.12 612.43,-29.31 466.75,-865.79 360.33,-960.94 -79.2,-70.81 -389.38,-59.62 -481.03,-65.06 206.8,1297.21 -370.45,898.31 -1356.52,992.88z"/>
   <path class="fil5" d="M11110.8 5606.43c279.51,303.27 393.35,-39.13 563.55,-127.55l-19.45 -153.45c-249.27,44.2 -288.71,214.81 -544.1,281z"/>
   <path class="fil6" d="M18614.75 10408.71l19.04 197.23c79.18,217.84 601.15,419.04 806.47,527.35 289.27,152.61 549.81,342.22 864.09,449.13l-1632.99 -1452.02 -56.61 278.31z"/>
   <path class="fil6" d="M10663.27 5816.16c46.28,88.33 -38.5,30.06 103.6,135.81 56.52,42.06 77.99,42.28 153.42,66.32l96.79 -4.23 48.12 -294.35c-56.65,-114 -52.96,-81.92 -197.26,-143.38l-97.89 294.24 -106.78 -54.41z"/>
   <path class="fil7" d="M17016.51 8805.26c65.66,210.05 99.53,65.63 217.19,288.27 199.01,273 270.47,730.66 472.1,986.83 529.89,-326.44 7.89,-947.7 -297.7,-1196.76 -74.36,8.88 2.78,-62.97 -84.7,145.1 -148.77,-406.82 -46.8,-564.59 -227.55,-667.8 -97.87,136.64 -79.34,223.74 -79.34,444.36z"/>
   <path class="fil7" d="M16228.6 8228.21l439.59 87.06 -37.15 -419.75 -94.88 -207.93 -629.05 -26.08c9.66,421.96 169.68,236.48 321.49,566.7z"/>
   <path class="fil7" d="M13654.75 11380.11c232.23,171.84 302.55,306.31 717.68,306.2 10.4,-109.94 7.19,-47.71 -16.84,-130.6 -25.59,-88.23 -27.8,-30.9 -63.53,-173.39 -193.38,11.14 -250.88,-17.94 -390.91,-113.8 -191,-130.77 -84.91,-105.2 -390.25,-90.28l143.85 201.87z"/>
   <path class="fil7" d="M15224.04 12841.64c245.49,-58.1 235.15,-9.26 352.76,-193.3 -51.94,-94.49 11.69,-9.88 -59.8,-76.96 -8.41,-7.88 -60.31,-47.4 -75.55,-58.51 -71.74,-52.35 -86.67,-50.81 -153.99,-118.55 -110.11,-35.03 -218.67,-64.54 -369.78,-66.27 -122.84,114.89 55.12,-94.4 -35.8,60.04l342.16 453.55z"/>
   <path class="fil8" d="M10080.29 8498.66c-135.09,-148.15 -177.7,-570.73 41.46,-688.81 -94.85,334.43 -50.55,353.31 -41.46,688.81zm442.01 405.29c-27.9,-103.41 -49.91,-143.51 -113.19,-242.02 -68.36,-106.39 -121.04,-86.92 -156.18,-109.97 -128.76,-228.84 -191.71,-577.55 53.73,-733.81 -69.9,301.29 -129.35,353.54 -14.63,673.81 46.3,-56 28.2,-11.99 37.24,-117.43 23.96,-279.29 -95.64,-305.09 109.11,-562.22l-125.68 -80.11 -356.25 -82.48c-168.47,218.92 -231.68,524.65 -169.01,893.89 53.47,314.99 385.99,379.43 734.86,360.34z"/>
   <path class="fil8" d="M11514.52 4999.59c79.89,-144.74 130.87,-150.49 245.15,-258.77 75.28,-71.31 57.15,-55.31 142.68,-116.89 142.67,-102.73 54.32,3.26 137.24,-138.09 -254.17,-148.7 -336.1,-128.71 -493.39,86.06 -97.92,133.72 -215.42,294.91 -308.38,386.52l276.7 41.17z"/>
   <path class="fil9" d="M12139.4 6841.58l56.18 3.98c31.79,200.77 17.72,502.32 -89.56,688.28 -45.92,79.62 -26.18,39.88 -70.53,87.02l36.65 -287.58c-8.46,9.53 -17.16,23.47 -22.71,30.77 -5.46,7.18 -15.94,21.44 -22.61,30.03 -69.2,89.08 -76.69,137.54 -220.79,168.29 -99.97,21.34 -303.65,20.58 -417.26,28.14 -285.17,18.97 -574.04,50.61 -855.7,-0.44l-66.5 4.2c15.01,6.68 1767,226.55 1789.67,222.6 246.6,-43 353.97,-398.66 353.03,-659.28 -1.15,-318.46 -246.25,-452.81 -523.5,-510.51l53.63 194.5z"/>
   <path class="fil9" d="M11927.23 9777.83c-12.53,11.03 -43.23,32.65 -72.58,62.46l-67.43 75.93c-5.42,6.33 -14.9,19.42 -22.72,28.83 250.71,-25.57 387.59,-64.82 432.23,-316.36 35.46,-199.8 -8.07,-392.92 -91.38,-553.46l-150.11 8c327.74,229.58 9.26,741.22 -28.01,694.6z"/>
   <path class="fil10" d="M8232.39 5967.44c-84.09,91.33 -850.22,316.23 -1037.1,447.85l1254.72 -181.14 524.88 -33.07 324.92 450.2c149.61,-216.41 168.42,-524.4 131.93,-805.54 -264.72,-128.66 -142.9,-172.08 -469.61,-24.88 -178.3,80.32 -349.69,151.64 -537.01,196.24 84.79,-109.57 163.87,-133.78 320.91,-197.34 72.26,-29.25 121.12,-44.15 186.69,-70.98 8.89,-3.64 84.07,-36.36 91.77,-40.8 9.15,-5.28 20.12,-12.11 28.67,-17.69l53.98 -42.74c6.19,-4.81 17.86,-14.99 25.82,-23.47 -293.74,41.1 -562.69,291.95 -900.57,343.36z"/>
   <path class="fil10" d="M9907.16 7093.93c-42.2,-115.68 -20.86,-257.36 0.5,-372.5 35.06,-188.98 33.85,-245.81 180.6,-323.31l-181.1 695.81zm559.41 500.34l66.5 -4.2c-237.79,-326.36 -263.86,-258.53 -326.63,-298.62 -48.03,-273.71 -134.93,-681.89 126.6,-822.27 167.06,63.18 28.67,9.68 268.54,-52.6 139.95,-36.34 189.07,-4.12 295.14,-87.95 -350.69,-79.91 -706.34,-228.29 -940.63,7.23 -239.69,240.95 -266.6,571.13 -228.44,1008.83 235.49,174.69 301.86,273.56 738.92,249.58z"/>
   <path class="fil10" d="M9171.68 6916c130.91,139.11 4.04,97 201.24,152.01l-32.27 143.32 178.88 34.59c-167.84,128.33 -724.41,308.3 -976.64,284.88 -123.53,114.76 -425.75,162.75 -615.47,186.6 213.96,166.61 1133.7,-112.41 1617.52,18.08 171.47,46.24 20.92,66.62 177.94,33.48l138.36 -171.23c-176.62,-205.99 -166.05,-76.89 -260.67,-391.92 -68.09,-226.71 -134.9,-193.1 -248.38,-384.19 -73.12,-43.93 -148.69,-55.21 -226.41,-54.94l45.9 149.32z"/>
   <path class="fil10" d="M2589.23 7968.34c924.75,-160.67 792.71,75.73 1296.33,382.96 188.2,114.81 65.64,78.26 124.16,26.91 -32.82,-109.57 -166.93,-228.08 -268.68,-324.42 -71.99,-68.17 -803.1,-570.55 -1098.01,-268.34 -173.65,177.94 -53.86,182.85 -53.8,182.89z"/>
   <path class="fil10" d="M5318.88 10975.7l-38.24 563.49c166.57,-180.88 266.19,-254.45 294.6,-640.61 18.02,-244.97 -49.14,-573.06 -64.49,-828.57 -5.41,9.89 -11.73,23.05 -14.2,30.69l-80.3 454.68c-24,137.46 -39.79,321.93 -97.37,420.32z"/>
   <path class="fil10" d="M7852.37 4963.65c157.44,56.46 381.33,295.26 443,149.25 -19.22,-187.53 -275.26,-370.34 -462.71,-427.28l19.71 278.03z"/>
   <path class="fil11" d="M12676.78 7289.71l22 413.97c34.11,42 314.7,858.7 588.69,1008 -177.55,-476.06 -438.11,-1766.29 -90.26,-2227.05 113.07,-149.78 164.28,-151.97 401.16,-486.73 -265.1,109.41 -382.43,175.62 -715.24,180.52 -37.81,833.83 -245.93,392.06 -221.06,780.47 9.6,150.07 47.95,164.19 14.71,330.82z"/>
   <path class="fil11" d="M14336.4 9082.34c509.88,223.36 490.58,-55.29 907.14,-126.46 -124.24,119.47 -242.6,176.1 -416.19,294.17l29.05 549.56c19.58,-18.9 840.71,-1344.38 882.21,-1498.11l-647.75 424.94c-174.42,107.31 -523.58,325.55 -754.46,355.9z"/>
   <path class="fil11" d="M12639.8 9650.97c192.55,-184.15 245.43,-521.92 641.2,-759.92l-279.61 -322.87c-296.32,343.7 -416.45,444.02 -361.59,1082.79z"/>
   <path class="fil12" d="M4375.31 8910.81c62.63,198 207.32,400.79 196.96,601.62 43.75,221.13 9.54,30.26 126.31,240.62 47.73,85.99 72.62,161.74 102.09,246.27 218.44,626.74 189.86,1063.93 61.93,1720.59 259.57,-6.13 300.63,21.92 418.04,-180.72l38.24 -563.49c4.53,-468.53 -62.43,-1398.23 -286.76,-1773.37 -222.04,-371.31 -650.02,-836.09 -1017.86,-1052.04l274.29 399.82c89.52,129.2 162.44,269.08 248.12,405.67 188.43,300.37 316.43,539.31 400.96,920.3l-538.61 -935.26c-3.82,-18.04 -14.95,-20.74 -23.71,-30.01z"/>
   <path class="fil12" d="M1150.25 9156.98l-946.73 584.16c-71.12,41.56 -80.81,42.29 -157.95,102.53l-121.84 111.64c324.37,-81.28 969.28,-366.85 1337.24,-508.76 470.27,-181.39 325.17,-149.38 351.17,-69.53 12.8,-7.16 30.2,-33.74 37.04,-23.75l371.14 -235.04c358.87,-191.87 962.68,-544.63 1351.66,-571.64 -45.97,-204.09 16.74,-51.95 -85.17,-91.7 -492.45,103.92 -657.34,-27.05 -1187.92,219.5 -301.76,140.23 -688.54,398.99 -948.64,482.59z"/>
   <path class="fil12" d="M7927.42 7717.4c189.72,-23.85 491.94,-71.84 615.47,-186.6l-73.18 -74.7c112.17,-76.57 277.99,-148.58 435.15,-216.75 68.06,-29.52 145.29,-58.08 216.05,-84.85l252.01 -86.49c-197.2,-55.01 -70.33,-12.9 -201.24,-152.01l-3051.8 1177.31c401.98,-12.76 1418.44,-251.66 1807.54,-375.91z"/>
   <path class="fil12" d="M4936.95 8692.34c107.62,-103.1 -41.42,-47.74 63.81,-9.41 167.7,61.08 -143.45,-140.92 39.8,26.32 44.07,40.22 65.03,97.25 86.95,134.73 627.23,1073.14 459.49,935.89 502.3,2288.6 61.06,0 45.6,14.22 39.02,-49.13 24.08,-407.45 -3.36,-628.44 58.39,-1048.9 45.06,-306.85 79.63,-681.55 -56.97,-947.45 -193.31,-376.3 -703.24,-820.5 -1182.47,-1025.83l449.17 631.07z"/>
   <path class="fil12" d="M4395.35 11403.35c90.73,118.09 25.5,331.02 9.68,505.03 450.45,-56.98 365.17,-91.37 407.59,-564.74 -225.95,-335.09 -220.16,-863.47 -484.49,-1183.36 19.32,288.31 14.25,1076.13 67.22,1243.07z"/>
   <path class="fil12" d="M8126.49 10610.9c5.84,-7.1 16.63,-27.97 17.56,-21.25l17.28 -119.99c0.11,-4.12 -0.23,-18.6 3.11,-27.02 221.8,36.77 708.06,32.09 828.01,199.79 111.37,-67.54 126.27,-88.55 234.99,-172.7 -83.32,-175.64 -126.55,-121.92 -583.75,-119.17l-1609.82 61.8c-129.01,34.2 -61.29,16.76 -106.94,44.43l1199.56 154.11z"/>
   <path class="fil13" d="M15911.84 13653.05c196.17,165.89 1072.16,1545.98 1404.6,1785.61 -73.85,-170.54 -142.89,-227.83 -217.67,-389.12 129,80.86 279.94,221.51 438.04,338.37 141.49,104.58 265.47,201.49 416.41,296.05 -182.22,-267.04 -501.5,-571.09 -652.38,-860.5 321.3,152.27 879.79,671.35 1389.46,856.75 -99.37,-69.08 -271.33,-264.2 -386.28,-362.31 -74.04,-63.22 -358.13,-298.65 -335.35,-347.65 -84.79,-119.19 -286.65,-200.42 -400.36,-311.92l-752.73 -684.63c-375.98,-313.82 -451.69,-235.46 -346.95,-274.76l-325.56 -107.97c-124.06,-22.23 -229.04,-88.09 -231.23,62.08z"/>
   <path class="fil13" d="M15841.33 8270.88c61.92,144.71 133.21,262.15 146.28,419.29 12.8,153.84 -20.6,325.5 -73.72,464.12 -113.91,297.33 -284.77,533.11 -647.67,540.03 55.63,318.77 -2.91,37.17 88.59,159.15 127.71,-183.65 7.78,7.71 396.66,142.71 176.86,-542.29 446.12,-877.73 407.84,-1533.89 -14,-239.84 -110.88,-303.25 -182.85,-446.53l-93.09 162.02c-54.87,115.31 13.47,18.99 -42.04,93.1z"/>
   <path class="fil13" d="M12399.55 6429.3c-75,80.66 -42.64,-14.14 -70.33,179.95l328.35 221.06c60.55,-191.94 186.69,-449.13 151.75,-667.21 -309.15,18.88 15.15,85.76 -302.31,349.78 53.66,-165.43 154.51,-282.32 57.79,-430.11 -5.07,7.85 -10.74,19.64 -12.84,24.92l-32.35 91.16c-49.12,165 -57.23,325.69 -120.06,230.45z"/>
   <path class="fil13" d="M13087.39 6085.38c57.48,-18.66 129.1,-34.51 180.09,-50.74 93.75,-29.82 28.37,-0.61 94.3,-34.69 116.36,-60.13 34.78,-20.61 73.58,-54.71l-1094.44 -135.93c237.67,237.15 300.73,288.04 746.47,276.07z"/>
   <path class="fil13" d="M12275.91 9534.11c-1.73,230.84 -89.15,290.25 -174.71,483.98 188.61,-43.33 233.12,-67.72 416.67,-5.25l18.98 -644.3c-174.28,97.46 -58.88,94.67 -260.94,165.57z"/>
   <path class="fil13" d="M14757.31 9956.85c1.07,-92.94 -10.4,-543.14 -31.77,-609.7 -47.62,-148.3 -241.86,-119.58 -428.18,-146.53 121.22,255.01 137.07,79.03 322.5,563.23 59.91,156.46 75.43,141.59 137.45,193z"/>
   <path class="fil13" d="M11766.09 6160.63c325.63,-10.19 381.83,-117.72 715.87,-53.62 -13.09,-151.17 -150.14,-204.29 -265.71,-267.85 -386.01,321.76 -277.08,184.23 -450.16,321.47z"/>
   <path class="fil14" d="M10333.04 6469.18c-28.86,248.77 -103.09,162.8 -87.86,605.19 7.04,204.58 20.14,146.89 -38.74,217.08 62.77,40.09 88.84,-27.74 326.63,298.62 281.66,51.05 570.53,19.41 855.7,0.44 113.61,-7.56 317.29,-6.8 417.26,-28.14 144.1,-30.75 151.59,-79.21 220.79,-168.29 6.67,-8.59 17.15,-22.85 22.61,-30.03 5.55,-7.3 14.25,-21.24 22.71,-30.77l67.26 -491.7 -53.63 -194.5 -1189.05 -318.45c-106.07,83.83 -155.19,51.61 -295.14,87.95 -239.87,62.28 -101.48,115.78 -268.54,52.6z"/>
   <path class="fil14" d="M10292.03 8491.96c3.81,73.11 24.59,60 -39.1,60 35.14,23.05 87.82,3.58 156.18,109.97 63.28,98.51 85.29,138.61 113.19,242.02 986.07,-94.57 1563.32,304.33 1356.52,-992.88l-1566.12 -178.87 125.68 80.11c-204.75,257.13 -85.15,282.93 -109.11,562.22 -9.04,105.44 9.06,61.43 -37.24,117.43z"/>
   <path class="fil15" d="M12039.59 4485.84c-82.92,141.35 5.43,35.36 -137.24,138.09 -85.53,61.58 -67.4,45.58 -142.68,116.89 -114.28,108.28 -165.26,114.03 -245.15,258.77 38.52,34.81 168.75,154.95 218.64,218.04 702.5,-503.46 577.45,-559.58 1406.21,-244.6 607.71,230.96 1210.47,109.35 1318,835.16l-407.63 190.7c768.85,316.71 986.46,375.29 1462.12,1262.96 99.62,185.91 155.62,472.44 275.97,622.11 -89.47,-1068.18 -149.83,-869.96 -829.05,-1855.99 -186.25,-270.37 -158.73,-333.43 -292.08,-620.53 -228.87,-492.73 -530.99,-693.36 -1074.03,-770.97 -251.5,-35.95 -511.22,-68.28 -758.91,-142.16 -344.72,-102.83 -338.78,-181.83 -726.16,-210.68 68.4,133.17 73.82,104.24 175.75,206.92 -140,-102.02 -195.71,-187.58 -428.68,-165.05 106.95,104.6 179.31,80.81 300.74,219.87l-115.82 -59.53z"/>
   <path class="fil15" d="M10345.25 9596.55l33.51 262.57c210.69,108.06 -53.38,-37.4 120.24,105.14 78.41,64.38 16.45,47.32 149.33,73.01 126.08,24.37 259.55,-3.15 370.91,42.41l745.26 -134.63c7.82,-9.41 17.3,-22.5 22.72,-28.83l67.43 -75.93c29.35,-29.81 60.05,-51.43 72.58,-62.46l-32.19 -679.87c-233.23,-43.8 -485.59,1.08 -659.45,-66.41 -215.67,61.09 -515.43,16.58 -752.07,-4.73 -114.69,311.41 -63.56,292.9 -104.71,475.49l-33.56 94.24z"/>
   <path class="fil16" d="M3905.58 7394.84c423.81,-331.01 173.12,-962.23 1783.93,-1362.29 420.88,-104.53 910.15,-212.37 1357.62,-256.86 527.23,-52.4 1054.9,-12.56 1567.69,-57.17l381.55 -183.97c-1121.48,-503.73 -1184.81,-18.33 -2358.42,-97.81 -156.79,-10.62 -322.53,-17.84 -479.44,-10 -168.46,8.41 -293.28,57.81 -411.34,-24.88l234.68 -58.21 128.81 -108.35c40.28,-24.87 101.75,-54.28 145.35,-73.91 58.92,-26.53 92.6,-35.34 150.25,-63.59l157.08 -84.4 55.05 11.37c272.62,-33 749.52,-190.69 1020.22,-145.07l22.95 -191.51 -53.87 -98.17c-403.3,-23.77 -960.68,186.65 -1445.86,198.29 -1004.61,24.08 -1403.53,619.18 -1922.99,1406.79 -198.47,300.92 -576.09,718.38 -546.95,1121.59l213.69 78.15z"/>
   <path class="fil16" d="M8695.07 9132.52l816.78 73.96c9.43,182.02 -75.61,322.96 -120.25,494.82 -181.15,58.62 -248.02,-13.32 -444.49,3.62l1.34 8.94 345.92 103.58c-192.85,88.15 -605.68,-46.38 -839.05,-95.69 -60.67,42.84 -159.35,-6.39 168.08,159.15 90.96,45.99 179.18,85.62 291.52,142.82 93.49,47.59 183.95,87.86 279.56,159.08 215.61,160.6 44.09,265.81 32.96,286.93 -108.72,84.15 -123.62,105.16 -234.99,172.7l-0.43 51.45c-122.76,105.77 -244.61,67.64 -435.22,89.22 -906.92,102.67 -2057.79,79.3 -2887.97,300.35 6.58,63.35 22.04,49.13 -39.02,49.13l-19.43 179.18c596.67,-0.23 1123.65,47.43 1726.14,-10.96 685.16,-66.4 804.66,-185.36 1350.44,-395.67 879.46,-338.89 682.83,-608.87 759.39,-992.37 41.66,-208.72 234.57,-363.14 334.39,-531.4 154.71,-260.83 -41.27,-369.59 -48.07,-602.16l-1037.6 353.32z"/>
   <path class="fil17" d="M1612.14 9377.02c-89.54,3.39 -820.7,683.19 -963.04,809.63 -147.32,130.85 -336.32,294.98 -495.93,419.98l-457.52 425.07c890.55,-158.43 1399.84,-465.64 2060.24,-730.57 -281.95,306.43 -1709.6,1446.66 -1812.68,1632.4 691.73,-241.03 1383.01,-694.76 2028.88,-935.86 -310.58,303.71 -782.05,625.75 -1122.4,915.41 -589.77,501.93 -466.13,369.09 -1025.19,927.47 868.37,-275.67 2780.38,-1541.16 3191.85,-1714.08 -941.18,874.17 -1992.59,1659.91 -2860.21,2475.18 835.5,-311.23 1997.91,-1099.89 2721.06,-1465.22 -280.51,272.02 -1775.11,1744.53 -1879.91,1921.29 72.08,-65.05 414.69,-250.71 538.91,-326.07 388.24,-235.55 1310.91,-810 1591.25,-1041.65 82.15,-120.68 268.21,-180.42 461.3,-347.44 78.53,-67.93 600.53,-581.38 680.68,-595.05 33.88,-77 35.21,-343.71 125.92,-344.16 -52.97,-166.94 -47.9,-954.76 -67.22,-1243.07 264.33,319.89 258.54,848.27 484.49,1183.36 23.78,-289.71 80.61,-263.54 46.35,-546.17 -62.37,-514.52 -92.04,-561.58 -265.65,-1030.03 -156.34,-421.85 -200.08,-281.99 -134.68,-376.15 -44.72,-96.53 -233.4,-302.98 -319.65,-384.85 -119.96,-113.88 -221.94,-176.56 -371.62,-299.04 75.51,199.34 42.48,154.47 180.08,312.42 101.94,117.03 103.08,121.94 166.93,266.86 -144.53,-86.2 -9.95,-12.83 -153.83,-147.18 -6.73,-6.29 -16.19,-15.1 -23.14,-21.15 -370.27,-322.61 -302.98,-400.15 -565.43,-571.76 -388.98,27.01 -992.79,379.77 -1351.66,571.64l-371.14 235.04c-6.84,-9.99 -24.24,16.59 -37.04,23.75z"/>
   <path class="fil17" d="M10282.64 5822.29l62.25 -186.11 180.19 -519.93c-193.49,119.85 -307.56,488.93 -304.33,779.63l61.89 -73.59z"/>
   <path class="fil17" d="M10080.29 8498.66c-9.09,-335.5 -53.39,-354.38 41.46,-688.81 -219.16,118.08 -176.55,540.66 -41.46,688.81z"/>
   <path class="fil18" d="M9535.84 8119.06c-227.82,-19.4 -1067.36,-78.06 -1185.46,-161.85 250.35,-41.13 958.57,-18.93 1185.46,161.85zm-5630.26 -724.22c105.4,182.23 163.91,127.67 297.87,379.78 -140.58,-73.95 -189.09,-126.83 -316.39,-190.12 -65.22,55.34 77.38,43.35 -127.17,23.76 -70.23,-6.73 -110.91,-19.57 -194.1,-26.29 -142.21,-11.47 -216.53,-13.47 -336.51,3.7l625.08 444.4c89.21,65.8 69.74,32.74 159.9,120.22 367.84,215.95 795.82,680.73 1017.86,1052.04 224.33,375.14 291.29,1304.84 286.76,1773.37 57.58,-98.39 73.37,-282.86 97.37,-420.32l80.3 -454.68c2.47,-7.64 8.79,-20.8 14.2,-30.69 -58.79,-325.76 -90.98,-489.8 -228.22,-767.91 -59.16,-119.89 -98.28,-201.55 -163.62,-317 -57.17,-100.99 -127.82,-190.73 -181.96,-292.76l-449.17 -631.07c479.23,205.33 989.16,649.53 1182.47,1025.83 136.6,265.9 102.03,640.6 56.97,947.45 -61.75,420.46 -34.31,641.45 -58.39,1048.9 830.18,-221.05 1981.05,-197.68 2887.97,-300.35 190.61,-21.58 312.46,16.55 435.22,-89.22 -286.36,33.31 -590.28,-22.09 -865.53,-82.98l-1199.56 -154.11c45.65,-27.67 -22.07,-10.23 106.94,-44.43l1609.82 -61.8c457.2,-2.75 500.43,-56.47 583.75,119.17 11.13,-21.12 182.65,-126.33 -32.96,-286.93 -95.61,-71.22 -186.07,-111.49 -279.56,-159.08 -112.34,-57.2 -200.56,-96.83 -291.52,-142.82 -327.43,-165.54 -228.75,-116.31 -168.08,-159.15l0.95 -59.22 492.18 51.33 -1.34 -8.94 -165.96 -73.82c-52.16,-11.23 -167.29,-23.51 -226.43,-31.48 -132.78,-17.9 -262.46,-8.17 -369.77,-67.66 274.5,-76.45 947.4,74.54 1206.65,169.34 44.64,-171.86 129.68,-312.8 120.25,-494.82l-816.78 -73.96 -2078.49 269.76 2092.92 -869.99c221.97,-84.11 557.27,-131.39 736.49,-241.65l-1239.59 -221.49c311.77,-8.48 1135.47,66.48 1363.97,169.47 136.1,-163.41 94.7,-211.68 152.51,-469.66 -157.02,33.14 -6.47,12.76 -177.94,-33.48 -483.82,-130.49 -1403.56,148.53 -1617.52,-18.08 -389.1,124.25 -1405.56,363.15 -1807.54,375.91l3051.8 -1177.31 -45.9 -149.32c77.72,-0.27 153.29,11.01 226.41,54.94l-55.17 -115.77 -1060.63 -29.43 -2366.47 157.14 2580.09 -599.41 -1254.72 181.14c186.88,-131.62 953.01,-356.52 1037.1,-447.85 -128.92,-14.64 207.54,-143.45 265.43,-173.88l88.37 -54.43c4.91,-14.77 19.64,-13.02 28.63,-20.61 -512.79,44.61 -1040.46,4.77 -1567.69,57.17 -447.47,44.49 -936.74,152.33 -1357.62,256.86 -1610.81,400.06 -1360.12,1031.28 -1783.93,1362.29z"/>
   <path class="fil18" d="M193.18 9005.63c-141.43,4.96 -80.19,-13.68 -175.7,26.8l186.01 135.9c75.11,33.59 62.59,19.99 108.86,11.63 245.4,-44.36 486.3,-179.81 663.41,-253.47l105.71 223.82c61.77,-89.39 46.61,-59.21 87.35,-161.46l-18.57 168.13c260.1,-83.6 646.88,-342.36 948.64,-482.59 530.58,-246.55 695.47,-115.58 1187.92,-219.5 -433.98,-377.9 -1047.37,-477.7 -1644.72,-152.82 -288.68,157.01 -1188.83,666.87 -1448.91,703.56z"/>
   <path class="fil19" d="M11733.16 5217.63c4.99,52.55 49.34,266.76 -36.41,242.23 -68.48,204.08 -117.08,190.82 -264.01,334.5 -197.55,9.17 -228.65,2.81 -367.54,-74.65l-48.12 294.35 -96.79 4.23c332.4,229 821.73,6.27 1096.98,-146.3 460.66,-255.34 451.74,-628.48 559.68,-782.97 25.8,458.92 -199.95,469.72 -244.06,676.22l8.03 44.07 1094.44 135.93 428.06 -186.3c-58.14,95.52 -142.95,175.83 -265.05,238.96 -236.88,334.76 -288.09,336.95 -401.16,486.73 -347.85,460.76 -87.29,1750.99 90.26,2227.05 72.73,186.7 235.45,187.17 483.81,245.03 193.54,45.1 371.3,103.46 565.12,125.63 230.88,-30.35 580.04,-248.59 754.46,-355.9l647.75 -424.94c-41.5,153.73 -862.63,1479.21 -882.21,1498.11l-56.31 248.72 -42.78 -91.48c-62.02,-51.41 -77.54,-36.54 -137.45,-193 -185.43,-484.2 -201.28,-308.22 -322.5,-563.23 -341.74,-65.9 -748.99,-182.4 -1016.36,-309.57 -395.77,238 -448.65,575.77 -641.2,759.92 -7.98,206.63 -33.02,447.89 -115.95,601.38l-5.98 -239.51c-183.55,-62.47 -228.06,-38.08 -416.67,5.25 -452.55,46.26 -863.36,181.78 -1380.09,187.42l282.69 235.51c78.48,-87.56 -23.43,-100.11 407.06,6.51 616.76,152.74 882.49,141.12 1036.74,-285.09 88.61,224.22 34.83,120.62 359.03,190.95 833.2,180.76 939.66,181.73 1755.88,111.88l-196.76 416.82c45.69,95.8 129.42,24.52 265.9,-41.4 99.59,-48.1 228.55,-126.84 297.46,-184.64 161.17,-135.17 231.47,-359.38 289.63,-615.72 168.88,48.31 170.8,120.61 340.3,155.88l1.44 -169.41c-56.73,-74.6 -124.65,-141.63 -205.67,-173.33 -91.5,-121.98 -32.96,159.62 -88.59,-159.15 362.9,-6.92 533.76,-242.7 647.67,-540.03 53.12,-138.62 86.52,-310.28 73.72,-464.12 -13.07,-157.14 -84.36,-274.58 -146.28,-419.29l-53.5 -386.92c-120.35,-149.67 -176.35,-436.2 -275.97,-622.11 -475.66,-887.67 -693.27,-946.25 -1462.12,-1262.96l407.63 -190.7c-107.53,-725.81 -710.29,-604.2 -1318,-835.16 -828.76,-314.98 -703.71,-258.86 -1406.21,244.6z"/>
   <path class="fil20" d="M10483.52 9026.82c236.64,21.31 536.4,65.82 752.07,4.73 132.4,-18.53 731.78,-24.82 869.76,43.68 83.31,160.54 126.84,353.66 91.38,553.46 -44.64,251.54 -181.52,290.79 -432.23,316.36l-745.26 134.63c-358.63,25.16 -765.4,62.07 -940.09,-173.9 -187.42,-253.16 -183.95,-631.15 -77.25,-955l481.62 76.04zm-170.82 -1294.62l1566.12 178.87c91.65,5.44 401.83,-5.75 481.03,65.06 106.42,95.15 252.1,931.63 -360.33,960.94 -267.89,12.81 -1326.39,24.41 -1477.22,-33.12 -348.87,19.09 -681.39,-45.35 -734.86,-360.34 -62.67,-369.24 0.54,-674.97 169.01,-893.89l356.25 82.48zm153.87 -137.93c-437.06,23.98 -503.43,-74.89 -738.92,-249.58 -38.16,-437.7 -11.25,-767.88 228.44,-1008.83 234.29,-235.52 589.94,-87.14 940.63,-7.23l1189.05 318.45c277.25,57.7 522.35,192.05 523.5,510.51 0.94,260.62 -106.43,616.28 -353.03,659.28 -22.67,3.95 -1774.66,-215.92 -1789.67,-222.6zm5321.26 289.69l53.5 386.92c55.51,-74.11 -12.83,22.21 42.04,-93.1l93.09 -162.02c71.97,143.28 168.85,206.69 182.85,446.53 38.28,656.16 -230.98,991.6 -407.84,1533.89 -388.88,-135 -268.95,-326.36 -396.66,-142.71 81.02,31.7 148.94,98.73 205.67,173.33l117.61 87.04 -101.68 291.25 -342.93 -197.27 176.86 203.92c7.39,7.08 17.19,15.81 24.25,22.93l46.07 51.45c5.33,5.9 16.02,17.41 22.22,27.4 -346.35,564.89 -919.43,867.68 -1563.53,673.75 45.01,-38.11 30.58,-28.22 99.58,-64.08 47.93,-24.92 89.24,-34.74 133.73,-58.31 287.01,-152.05 88.12,-99.83 53.25,-126.43 -673.73,141.15 -1025.91,162.46 -1691.99,-44.62 -259.34,-80.63 -469.29,-158.46 -707.29,-251.56 -196.43,-76.83 -616.19,-155.77 -822.83,-201.25l-282.69 -235.51c516.73,-5.64 927.54,-141.16 1380.09,-187.42 85.56,-193.73 172.98,-253.14 174.71,-483.98 48.18,-289.7 -60.25,-292.59 -69.88,-552.4 167.87,-50.84 207.59,170.98 302.65,-354.99 51.37,-284.24 40.4,-521.78 -65.82,-727.28 276.4,-431.54 114.99,-150.51 189.5,-485.32 25.45,-114.38 18.6,-77.53 44.42,-124.41 33.24,-166.63 -5.11,-180.75 -14.71,-330.82 -24.87,-388.41 183.25,53.36 221.06,-780.47 332.81,-4.9 450.14,-71.11 715.24,-180.52 122.1,-63.13 206.91,-143.44 265.05,-238.96l-428.06 186.3c-38.8,34.1 42.78,-5.42 -73.58,54.71 -65.93,34.08 -0.55,4.87 -94.3,34.69 -50.99,16.23 -122.61,32.08 -180.09,50.74 -116.99,81.24 -219.87,66.86 -278.07,77.72 34.94,218.08 -91.2,475.27 -151.75,667.21l-328.35 -221.06c-142.3,-20.3 -655.74,-219.3 -895.74,-279.56 -285.34,-71.65 -637.22,-120.06 -902.93,-195.27l-228.27 -8.73 -130.06 -43.63c-127.83,-409.41 -22.35,-1250.73 875.33,-1138.84 -51.01,141.78 -249.39,294.12 -374.15,398.26l68.92 14.91c296.73,-80.72 247.53,-352.82 631.57,-296.21 203.41,62.32 219.03,63.85 281.01,265.25l19.45 153.45 22.4 -19.02c85.75,24.53 41.4,-189.68 36.41,-242.23 -49.89,-63.09 -180.12,-183.23 -218.64,-218.04l-276.7 -41.17c92.96,-91.61 210.46,-252.8 308.38,-386.52 157.29,-214.77 239.22,-234.76 493.39,-86.06l115.82 59.53c-121.43,-139.06 -193.79,-115.27 -300.74,-219.87 232.97,-22.53 288.68,63.03 428.68,165.05 -101.93,-102.68 -107.35,-73.75 -175.75,-206.92 387.38,28.85 381.44,107.85 726.16,210.68 247.69,73.88 507.41,106.21 758.91,142.16 543.04,77.61 845.16,278.24 1074.03,770.97 133.35,287.1 105.83,350.16 292.08,620.53 679.22,986.03 739.58,787.81 829.05,1855.99zm-15594.65 1121.67c260.08,-36.69 1160.23,-546.55 1448.91,-703.56 597.35,-324.88 1210.74,-225.08 1644.72,152.82 101.91,39.75 39.2,-112.39 85.17,91.7 262.45,171.61 195.16,249.15 565.43,571.76 6.95,6.05 16.41,14.86 23.14,21.15 143.88,134.35 9.3,60.98 153.83,147.18 -63.85,-144.92 -64.99,-149.83 -166.93,-266.86 -137.6,-157.95 -104.57,-113.08 -180.08,-312.42 -186.94,-163.12 -584.19,-502.91 -826.07,-592.93 -57.36,-21.34 -106.21,-29.54 -168.06,-50.75 -32.06,-11 -67.17,-23.17 -98.04,-38.85 -112.43,-57.08 -33.26,-10.07 -85.97,-56.53 -0.06,-0.04 -119.85,-4.95 53.8,-182.89 294.91,-302.21 1026.02,200.17 1098.01,268.34 101.75,96.34 235.86,214.85 268.68,324.42 130.18,98.32 114.06,92.93 200.55,253.57 56.09,104.2 104.49,202.96 165.04,279.03 8.76,9.27 19.89,11.97 23.71,30.01l538.61 935.26c-84.53,-380.99 -212.53,-619.93 -400.96,-920.3 -85.68,-136.59 -158.6,-276.47 -248.12,-405.67l-274.29 -399.82c-90.16,-87.48 -70.69,-54.42 -159.9,-120.22l-625.08 -444.4c-90.86,-21.86 -25.86,34.58 -82.39,-47.42 138.28,-66.12 199.72,-177.16 371.86,-136.95 141.45,33.04 281.74,119.24 368.31,183.2 127.3,63.29 175.81,116.17 316.39,190.12 -133.96,-252.11 -192.47,-197.55 -297.87,-379.78l-213.69 -78.15c-29.14,-403.21 348.48,-820.67 546.95,-1121.59 519.46,-787.61 918.38,-1382.71 1922.99,-1406.79 485.18,-11.64 1042.56,-222.06 1445.86,-198.29l53.87 98.17c88.54,-65.09 -61.94,-91.61 96.22,-46.98l94.59 322.44 -19.71 -278.03c187.45,56.94 443.49,239.75 462.71,427.28 86.96,73.97 88.83,12.4 43.35,90.63 -718.07,18.95 -1115.86,130.91 -1307.04,134.28 -193.77,-216.62 -216.56,-168.03 -413.29,-313.04l-55.05 -11.37c36.58,212.5 195.08,127.41 334.98,319.85l-916.47 10.4 -234.68 58.21c118.06,82.69 242.88,33.29 411.34,24.88 156.91,-7.84 322.65,-0.62 479.44,10 1173.61,79.48 1236.94,-405.92 2358.42,97.81l-381.55 183.97c-8.99,7.59 -23.72,5.84 -28.63,20.61l-88.37 54.43c-57.89,30.43 -394.35,159.24 -265.43,173.88 337.88,-51.41 606.83,-302.26 900.57,-343.36 -7.96,8.48 -19.63,18.66 -25.82,23.47l-53.98 42.74c-8.55,5.58 -19.52,12.41 -28.67,17.69 -7.7,4.44 -82.88,37.16 -91.77,40.8 -65.57,26.83 -114.43,41.73 -186.69,70.98 -157.04,63.56 -236.12,87.77 -320.91,197.34 187.32,-44.6 358.71,-115.92 537.01,-196.24 326.71,-147.2 204.89,-103.78 469.61,24.88 36.49,281.14 17.68,589.13 -131.93,805.54 -51.68,6.38 -718.16,-89.94 -1205.16,-21.82 241.32,-12.81 83.28,13.14 141.74,46.96l1060.63 29.43 55.17 115.77c113.48,191.09 180.29,157.48 248.38,384.19 94.62,315.03 84.05,185.93 260.67,391.92l-138.36 171.23c-57.81,257.98 -16.41,306.25 -152.51,469.66 -86.99,243.03 -74.39,22.27 -152.01,286.94l255.53 -186.03c-16.6,204.99 -21.33,254.05 58.78,439.67 6.8,232.57 202.78,341.33 48.07,602.16 -99.82,168.26 -292.73,322.68 -334.39,531.4 -76.56,383.5 120.07,653.48 -759.39,992.37 -545.78,210.31 -665.28,329.27 -1350.44,395.67 -602.49,58.39 -1129.47,10.73 -1726.14,10.96l19.43 -179.18c-42.81,-1352.71 124.93,-1215.46 -502.3,-2288.6 -21.92,-37.48 -42.88,-94.51 -86.95,-134.73 -183.25,-167.24 127.9,34.76 -39.8,-26.32 -105.23,-38.33 43.81,-93.69 -63.81,9.41 54.14,102.03 124.79,191.77 181.96,292.76 65.34,115.45 104.46,197.11 163.62,317 137.24,278.11 169.43,442.15 228.22,767.91 15.35,255.51 82.51,583.6 64.49,828.57 -28.41,386.16 -128.03,459.73 -294.6,640.61 -117.41,202.64 -158.47,174.59 -418.04,180.72 127.93,-656.66 156.51,-1093.85 -61.93,-1720.59 -29.47,-84.53 -54.36,-160.28 -102.09,-246.27 -116.77,-210.36 -82.56,-19.49 -126.31,-240.62 -53.03,-91.63 -1.94,-42.49 -113.63,-121.14 -65.4,94.16 -21.66,-45.7 134.68,376.15 173.61,468.45 203.28,515.51 265.65,1030.03 34.26,282.63 -22.57,256.46 -46.35,546.17 -42.42,473.37 42.86,507.76 -407.59,564.74 15.82,-174.01 81.05,-386.94 -9.68,-505.03 -90.71,0.45 -92.04,267.16 -125.92,344.16 19.41,839.02 -517.56,1080.17 -917.3,1448.6 -127.87,117.85 -93.46,121.54 -248.19,230.01 -72.31,50.69 -466.45,355.92 -426.53,431.01 227.68,-66.88 853.72,-587.4 1027.37,-744.18 774.84,-699.55 418.62,-428.78 693.76,-1090.57 488.76,-15.31 275.83,-121.45 543.73,-170.69 275.12,-50.57 235.53,83.96 651.67,-464.58 546.53,44.72 835.26,142.38 1459.93,104.07 572.38,-35.1 804.42,-74.45 1284.96,-282.78 670.68,-290.77 1194.94,-421.88 1208.36,-1131.41 3.86,-203.65 -18.81,-193.11 77.28,-325.51l207.33 -206.36c32.23,130.28 140.87,365.25 203.35,448.73 118.8,158.72 215.53,143.74 441.29,206.27 256.75,71.1 302.66,327.29 874.56,441.2 245.19,48.83 311.85,21.34 534.11,118.22 488.74,213.05 956.79,382.15 1520.59,406.55 -2.06,60.47 -7.94,112.88 -0.51,173.41l42.92 136.66 38.42 -206.47c-2.03,5.98 5.59,8.98 8.1,19.55l37.6 36.77c5.96,3.88 90.54,43.19 122.52,54.1l-143.85 -201.87c305.34,-14.92 199.25,-40.49 390.25,90.28 140.03,95.86 197.53,124.94 390.91,113.8 899.31,-76.67 1153.95,-493.73 1471.07,-1156.88 243.34,-508.88 688.97,-1440.57 465.47,-1997.23 -151.81,-330.22 -311.83,-144.74 -321.49,-566.7l629.05 26.08 94.88 207.93c-58.99,-249.23 -99.86,-118.25 44.92,-200.02 -93.57,-129.8 -204.59,-146.5 -362.58,-155.51 -146.46,-8.36 -272.19,13.48 -410.65,-9.82 -40.07,-648.46 -367.38,-908.42 -748.44,-1436.25 -198.18,-274.54 -223.52,-355.03 -387.59,-701.94 -507.17,-1072.43 -1421.31,-790.57 -2196.92,-1071.26 -608.76,-220.3 -871.91,-88.22 -1161.93,287.01 -83.63,108.21 -169.27,183.68 -236.52,277.76 -461.19,-57.16 -687.93,-90.19 -935.26,250.66 -160.21,220.81 -279.96,718.44 -126.62,966.65 -488.64,217.55 -360.14,371.3 -550.84,786.81 -298.72,-279.15 238.55,-731.17 -61.62,-1107.28 -168.82,-211.52 -642.77,-437.4 -887.26,-551.58 -298.18,-139.25 -14.39,-102.47 -313.02,-426.84 -532.87,-578.82 -1125.4,-289.26 -1633.17,-197.21 -616.07,111.68 -1322.86,-147.11 -2045.15,836.79 -326.37,444.58 -1025.27,1241.14 -1044.59,1827.63 -433.74,-51.68 -287,194.72 -645.49,262.2 -392.44,73.87 -344.79,177.66 -530.37,431.59 -626.75,-11.81 -1268.36,423.44 -1754.52,734.43 -140.29,89.74 -329.19,244.17 -450.24,306.29z"/>
   <path class="fil21" d="M16872.87 9930.07c-63.09,93.34 -229.02,512.72 -297.12,672.89 -180.07,423.58 -496.54,835.63 -833.03,1127.67 -158.93,137.94 -335.01,251.29 -500.16,401.27l604.26 -105.62c-198.96,261.7 -381.09,228.26 -559.36,368.04 67.32,67.74 82.25,66.2 153.99,118.55 15.24,11.11 67.14,50.63 75.55,58.51 71.49,67.08 7.86,-17.53 59.8,76.96 -117.61,184.04 -107.27,135.2 -352.76,193.3l-1.83 21.33 201.6 41.38c635.86,-0.34 1219.63,-338.3 1529.8,-659.79 218.82,-226.81 310.87,-311.13 506.46,-579.05 88.72,-121.54 377.99,-485.21 405.09,-613.7 -9.13,-323.02 186.78,-162 36.5,-460.28 -100.87,-200.19 -108.23,-112.51 -51.51,-404.66 -137.58,53.97 -124.89,85.58 -191.93,153.98 17.24,-168.01 10.75,-113.37 -45.42,-294.53l-173.44 -12.05c67.09,-127.14 -14.92,-375.24 -125.67,-487.68 -290.69,-0.03 -156.76,181.47 -440.82,383.48z"/>
   <path class="fil22" d="M16631.04 7895.52l37.15 419.75c5.32,556.8 -370.66,1796.21 -568.23,2245.54 -167.23,380.36 -398.26,521.97 -698.11,697.84 -297.05,174.24 -646.77,385.24 -1029.42,427.66 -415.13,0.11 -485.45,-134.36 -717.68,-306.2 -31.98,-10.91 -116.56,-50.22 -122.52,-54.1l-37.6 -36.77c-2.51,-10.57 -10.13,-13.57 -8.1,-19.55l-38.42 206.47c-37.13,388.58 413.83,471.19 664.71,537.02l128.72 47.72c139.36,96.92 16.52,177.46 266.06,250.42 320.77,93.79 106.99,-69.43 306.54,178.58 358.57,445.65 64.25,763.19 509.18,908.32l202.7 -37.84c-278.95,-192.59 -370.32,-22.31 -428.84,-535.15l125.03 37.74 1.83 -21.33 -342.16 -453.55c90.92,-154.44 -87.04,54.85 35.8,-60.04 136.04,-108.69 143.29,-52.39 -76.82,-64.26 -160.52,-8.66 -207.57,6.5 -329.78,-44.72l-143.56 -123.25c162.82,-126.23 296.13,-67.93 550.16,-124 208.44,-110.6 485.31,-152.69 821.01,-508.07 790.89,-837.24 935.83,-1215.76 1191.89,-2372.6l71.63 -252.5c3.07,-8.17 8.36,-22.84 14.3,-33.39 0,-220.62 -18.53,-307.72 79.34,-444.36 180.75,103.21 78.78,260.98 227.55,667.8 87.48,-208.07 10.34,-136.22 84.7,-145.1 305.59,249.06 827.59,870.32 297.7,1196.76 -201.63,-256.17 -273.09,-713.83 -472.1,-986.83 -160.31,-53.13 -63.07,-41.36 -125.71,119.87 -19.6,50.44 -38.91,162.81 -66.9,240.66 -59.61,165.71 -120.81,281.88 -168.22,476.01 284.06,-202.01 150.13,-383.51 440.82,-383.48 110.75,112.44 192.76,360.54 125.67,487.68l173.44 12.05c56.17,181.16 62.66,126.52 45.42,294.53 67.04,-68.4 54.35,-100.01 191.93,-153.98 -56.72,292.15 -49.36,204.47 51.51,404.66 150.28,298.28 -45.63,137.26 -36.5,460.28 155.25,-133.12 181.13,-382.17 194.69,-588.97 17.54,-267.59 -16.6,-545.01 10.32,-807.3l-26.29 -215.59c141.93,45.4 146.7,63.68 251.2,112.45l30.68 -69.66c-49.96,-70.29 -0.68,-43.05 -123.08,-121.28 -401.83,-256.81 -72.8,213.39 -616.16,-471.33 -76.29,-96.15 -158,-156.41 -209.73,-224.26 -97.77,-128.24 -53.94,-210.66 -123.21,-314.35 -100.77,-150.84 -121.23,-21.63 -241.58,-193.94 -41.7,-59.71 -107.14,-209.28 -154.98,-281.72l-181.06 -180.36c-144.78,81.77 -103.91,-49.21 -44.92,200.02z"/>
   <path class="fil23" d="M18295.08 9552.4c63.09,219.11 91.71,48.92 163.75,316.68 -98.86,-39.42 -104.63,-48.79 -200.21,-68.55 -83.21,25.87 -18.89,445.86 -34.61,565.11 -29.63,224.62 -97.67,462.13 -174.26,618.06 -101.69,207.02 -177.59,305.28 -309.84,476.77 -317.64,411.87 -688.95,928.9 -1128.88,1226.95 -437.47,296.37 -851.61,299.08 -1001.6,352.75 -180.81,64.7 -96.72,-57.91 -117.48,101.16l157.95 191.64 -123.88 27.41 -202.7 37.84c391.11,214.61 195.34,-81.86 514.67,377.62 112.94,162.53 310.6,400.06 441.63,480.69l-367.78 -603.48 -107.8 -169.21c460.72,-131.87 652.81,-151.42 1051.89,-378.62 1770.47,-1007.94 1616.69,-2242.35 1777.86,-2499.28l-19.04 -197.23c5.14,-193.32 54.14,-853.37 -288.99,-925.97l-30.68 69.66z"/>
   <path class="fil24" d="M14292.06 11382.32c35.73,142.49 37.94,85.16 63.53,173.39 24.03,82.89 27.24,20.66 16.84,130.6 382.65,-42.42 732.37,-253.42 1029.42,-427.66 299.85,-175.87 530.88,-317.48 698.11,-697.84 197.57,-449.33 573.55,-1688.74 568.23,-2245.54l-439.59 -87.06c223.5,556.66 -222.13,1488.35 -465.47,1997.23 -317.12,663.15 -571.76,1080.21 -1471.07,1156.88z"/>
   <path class="fil25" d="M3127.45 12690c-47.38,145.72 -649.3,809.82 -806.36,999.08 -154.21,185.82 -272.9,305.74 -428.33,485.2l-394.19 479.26c285.51,-147.04 621.79,-406.45 891.9,-590.72l286.94 -205.69c-39.92,-75.09 354.22,-380.32 426.53,-431.01 154.73,-108.47 120.32,-112.16 248.19,-230.01 399.74,-368.43 936.71,-609.58 917.3,-1448.6 -80.15,13.67 -602.15,527.12 -680.68,595.05 -193.09,167.02 -379.15,226.76 -461.3,347.44z"/>
   <path class="fil26" d="M11003.8 10441.02c206.64,45.48 626.4,124.42 822.83,201.25 238,93.1 447.95,170.93 707.29,251.56 666.08,207.08 1018.26,185.77 1691.99,44.62l139.84 -56.36 196.76 -416.82c-816.22,69.85 -922.68,68.88 -1755.88,-111.88 -324.2,-70.33 -270.42,33.27 -359.03,-190.95 -154.25,426.21 -419.98,437.83 -1036.74,285.09 -430.49,-106.62 -328.58,-94.07 -407.06,-6.51z"/>
   <path class="fil27" d="M8695.07 9132.52l1037.6 -353.32c-80.11,-185.62 -75.38,-234.68 -58.78,-439.67l-255.53 186.03c77.62,-264.67 65.02,-43.91 152.01,-286.94 -228.5,-102.99 -1052.2,-177.95 -1363.97,-169.47l1239.59 221.49c-179.22,110.26 -514.52,157.54 -736.49,241.65l-2092.92 869.99 2078.49 -269.76z"/>
   <path class="fil28" d="M17968.67 14970.25l1538.08 815.94c-143.87,-222.59 -1061.95,-1018.42 -1338.49,-1247.85 -510.29,-423.37 -962.39,-843.47 -1699.63,-839.4 -104.74,39.3 -29.03,-39.06 346.95,274.76l752.73 684.63c113.71,111.5 315.57,192.73 400.36,311.92z"/>
   <path class="fil29" d="M14917.68 11971.82c2.66,2.57 168.26,-80.14 75.4,174.29 -24.51,67.15 -37.35,58.62 -114.88,77.29 -53.17,12.8 -287.06,-5.12 -367.12,-4.33 122.21,51.22 169.26,36.06 329.78,44.72 220.11,11.87 212.86,-44.43 76.82,64.26 151.11,1.73 259.67,31.24 369.78,66.27 178.27,-139.78 360.4,-106.34 559.36,-368.04l-604.26 105.62c165.15,-149.98 341.23,-263.33 500.16,-401.27 336.49,-292.04 652.96,-704.09 833.03,-1127.67 68.1,-160.17 234.03,-579.55 297.12,-672.89 47.41,-194.13 108.61,-310.3 168.22,-476.01 27.99,-77.85 47.3,-190.22 66.9,-240.66 62.64,-161.23 -34.6,-173 125.71,-119.87 -117.66,-222.64 -151.53,-78.22 -217.19,-288.27 -5.94,10.55 -11.23,25.22 -14.3,33.39l-71.63 252.5c-256.06,1156.84 -401,1535.36 -1191.89,2372.6 -335.7,355.38 -612.57,397.47 -821.01,508.07z"/>
   <path class="fil30" d="M8450.01 6234.15l-2580.09 599.41 2366.47 -157.14c-58.46,-33.82 99.58,-59.77 -141.74,-46.96 487,-68.12 1153.48,28.2 1205.16,21.82l-324.92 -450.2 -524.88 33.07z"/>
   <path class="fil31" d="M12536.85 9368.54l-18.98 644.3 5.98 239.51c82.93,-153.49 107.97,-394.75 115.95,-601.38 -54.86,-638.77 65.27,-739.09 361.59,-1082.79l279.61 322.87c267.37,127.17 674.62,243.67 1016.36,309.57 186.32,26.95 380.56,-1.77 428.18,146.53 21.37,66.56 32.84,516.76 31.77,609.7l42.78 91.48 56.31 -248.72 -29.05 -549.56c173.59,-118.07 291.95,-174.7 416.19,-294.17 -416.56,71.17 -397.26,349.82 -907.14,126.46 -193.82,-22.17 -371.58,-80.53 -565.12,-125.63 -248.36,-57.86 -411.08,-58.33 -483.81,-245.03 -273.99,-149.3 -554.58,-966 -588.69,-1008 -95.68,168.62 -9.89,251.13 58.05,392.49 90.58,188.42 23.23,128.71 -60.55,376.62 -90.96,269.1 -260.47,628.92 -159.43,895.75z"/>
   <path class="fil32" d="M2589.23 7968.34c52.71,46.46 -26.46,-0.55 85.97,56.53 30.87,15.68 65.98,27.85 98.04,38.85 61.85,21.21 110.7,29.41 168.06,50.75 241.88,90.02 639.13,429.81 826.07,592.93 149.68,122.48 251.66,185.16 371.62,299.04 86.25,81.87 274.93,288.32 319.65,384.85 111.69,78.65 60.6,29.51 113.63,121.14 10.36,-200.83 -134.33,-403.62 -196.96,-601.62 -60.55,-76.07 -108.95,-174.83 -165.04,-279.03 -86.49,-160.64 -70.37,-155.25 -200.55,-253.57 -58.52,51.35 64.04,87.9 -124.16,-26.91 -503.62,-307.23 -371.58,-543.63 -1296.33,-382.96z"/>
   <path class="fil33" d="M14365.75 10882.09l-139.84 56.36c34.87,26.6 233.76,-25.62 -53.25,126.43 -44.49,23.57 -85.8,33.39 -133.73,58.31 -69,35.86 -54.57,25.97 -99.58,64.08 644.1,193.93 1217.18,-108.86 1563.53,-673.75 -6.2,-9.99 -16.89,-21.5 -22.22,-27.4l-46.07 -51.45c-7.06,-7.12 -16.86,-15.85 -24.25,-22.93l-176.86 -203.92 342.93 197.27 101.68 -291.25 -117.61 -87.04 -1.44 169.41c-169.5,-35.27 -171.42,-107.57 -340.3,-155.88 -58.16,256.34 -128.46,480.55 -289.63,615.72 -68.91,57.8 -197.87,136.54 -297.46,184.64 -136.48,65.92 -220.21,137.2 -265.9,41.4z"/>
   <path class="fil34" d="M17865.16 11051.81c-27.1,128.49 -316.37,492.16 -405.09,613.7 -195.59,267.92 -287.64,352.24 -506.46,579.05 -310.17,321.49 -893.94,659.45 -1529.8,659.79 0.9,9.2 13.45,130.52 14.76,134.6 23.91,74.63 20.65,58.17 53.38,102.38 20.76,-159.07 -63.33,-36.46 117.48,-101.16 149.99,-53.67 564.13,-56.38 1001.6,-352.75 439.93,-298.05 811.24,-815.08 1128.88,-1226.95 132.25,-171.49 208.15,-269.75 309.84,-476.77 76.59,-155.93 144.63,-393.44 174.26,-618.06 15.72,-119.25 -48.6,-539.24 34.61,-565.11l-188.45 -144.99c-26.92,262.29 7.22,539.71 -10.32,807.3 -13.56,206.8 -39.44,455.85 -194.69,588.97z"/>
   <path class="fil35" d="M6618.39 5024.77c196.73,145.01 219.52,96.42 413.29,313.04 191.18,-3.37 588.97,-115.33 1307.04,-134.28 45.48,-78.23 43.61,-16.66 -43.35,-90.63 -61.67,146.01 -285.56,-92.79 -443,-149.25l-94.59 -322.44c-158.16,-44.63 -7.68,-18.11 -96.22,46.98l-22.95 191.51c-270.7,-45.62 -747.6,112.07 -1020.22,145.07z"/>
   <path class="fil36" d="M10920.29 6018.29c-75.43,-24.04 -96.9,-24.26 -153.42,-66.32 -142.1,-105.75 -57.32,-47.48 -103.6,-135.81 -78.8,-55.45 -31.14,-179.2 -15.76,-297.33l220.43 57.5c144.3,61.46 140.61,29.38 197.26,143.38 138.89,77.46 169.99,83.82 367.54,74.65 146.93,-143.68 195.53,-130.42 264.01,-334.5l-22.4 19.02c-170.2,88.42 -284.04,430.82 -563.55,127.55l-201.25 -147.17c-167.58,-15.93 -182.68,30.39 -167.23,-102.87l-68.92 -14.91 -117.42 161.95c-24.78,219.84 -50.26,301.54 63.97,457.93 337.97,247.64 682.17,206.58 1146.14,199.27 173.08,-137.24 64.15,0.29 450.16,-321.47 115.57,63.56 252.62,116.68 265.71,267.85l-82.41 322.29c62.83,95.24 70.94,-65.45 120.06,-230.45l32.35 -91.16c2.1,-5.28 7.77,-17.07 12.84,-24.92 96.72,147.79 -4.13,264.68 -57.79,430.11 317.46,-264.02 -6.84,-330.9 302.31,-349.78 58.2,-10.86 161.08,3.52 278.07,-77.72 -445.74,11.97 -508.8,-38.92 -746.47,-276.07l-8.03 -44.07c44.11,-206.5 269.86,-217.3 244.06,-676.22 -107.94,154.49 -99.02,527.63 -559.68,782.97 -275.25,152.57 -764.58,375.3 -1096.98,146.3z"/>
   <path class="fil37" d="M10530.55 6134.42c265.71,75.21 617.59,123.62 902.93,195.27 240,60.26 753.44,259.26 895.74,279.56 27.69,-194.09 -4.67,-99.29 70.33,-179.95l82.41 -322.29c-334.04,-64.1 -390.24,43.43 -715.87,53.62 -463.97,7.31 -808.17,48.37 -1146.14,-199.27l-89.4 173.06z"/>
   <path class="fil38" d="M12275.91 9534.11c202.06,-70.9 86.66,-68.11 260.94,-165.57 -101.04,-266.83 68.47,-626.65 159.43,-895.75 83.78,-247.91 151.13,-188.2 60.55,-376.62 -67.94,-141.36 -153.73,-223.87 -58.05,-392.49l-22 -413.97c-25.82,46.88 -18.97,10.03 -44.42,124.41 -74.51,334.81 86.9,53.78 -189.5,485.32 106.22,205.5 117.19,443.04 65.82,727.28 -95.06,525.97 -134.78,304.15 -302.65,354.99 9.63,259.81 118.06,262.7 69.88,552.4z"/>
   <path class="fil39" d="M10294.15 9821.21l-38.45 72.61c-138.59,-214.63 -155.72,-400.21 -134.16,-667.97 42.47,57.73 30.61,11.19 59.5,111.83 4.42,15.42 8.36,67.31 10.81,83.52 29.62,195.99 7.46,183.51 102.3,400.01zm725.09 258.47c-111.36,-45.56 -244.83,-18.04 -370.91,-42.41 -132.88,-25.69 -70.92,-8.63 -149.33,-73.01 -173.62,-142.54 90.45,2.92 -120.24,-105.14l-84.61 -37.91c-40.08,-225.51 -107.76,-499.3 5.12,-730.88 71.75,89.71 47.42,42.19 42.94,244.8 -2.18,98.63 -3.21,161.93 3.04,261.42l33.56 -94.24c41.15,-182.59 -9.98,-164.08 104.71,-475.49l-481.62 -76.04c-106.7,323.85 -110.17,701.84 77.25,955 174.69,235.97 581.46,199.06 940.09,173.9z"/>
   <path class="fil40" d="M10909.55 5459.26l201.25 147.17c255.39,-66.19 294.83,-236.8 544.1,-281 -61.98,-201.4 -77.6,-202.93 -281.01,-265.25 -67.99,146.35 -83.55,124.6 -202.67,225.44 -39.23,33.21 -81.48,81.74 -111.56,106.26 -80.09,65.3 -34.27,48.38 -150.11,67.38z"/>
   <path class="fil41" d="M5981.85 5343.65l916.47 -10.4c-139.9,-192.44 -298.4,-107.35 -334.98,-319.85l-157.08 84.4c-57.65,28.25 -91.33,37.06 -150.25,63.59 -43.6,19.63 -105.07,49.04 -145.35,73.91l-128.81 108.35z"/>
   <path class="fil42" d="M11927.23 9777.83c37.27,46.62 355.75,-465.02 28.01,-694.6l150.11 -8c-137.98,-68.5 -737.36,-62.21 -869.76,-43.68 173.86,67.49 426.22,22.61 659.45,66.41l32.19 679.87z"/>
   <path class="fil43" d="M10344.89 5636.18l-62.25 186.11c84.65,54.72 79.22,-92.53 66.36,155.15 -4.69,90.35 -21.48,83.93 -46.72,148.25l228.27 8.73 89.4 -173.06c-114.23,-156.39 -88.75,-238.09 -63.97,-457.93l-24.78 -13.15c-113.14,123.56 -91.64,198.1 -195.76,285.43l9.45 -139.53z"/>
   <path class="fil44" d="M9535.84 8119.06c-226.89,-180.78 -935.11,-202.98 -1185.46,-161.85 118.1,83.79 957.64,142.45 1185.46,161.85z"/>
   <path class="fil45" d="M12079.33 8670.38c77.83,-9.36 118.67,79.13 145.15,-200.08 16.72,-176.29 16.67,-218.4 -16.57,-392l-156.14 9.42 27.56 582.66z"/>
   <path class="fil46" d="M18070.17 9655.54l188.45 144.99c95.58,19.76 101.35,29.13 200.21,68.55 -72.04,-267.76 -100.66,-97.57 -163.75,-316.68 -104.5,-48.77 -109.27,-67.05 -251.2,-112.45l26.29 215.59z"/>
   <path class="fil47" d="M12072.14 7333.28l-36.65 287.58c44.35,-47.14 24.61,-7.4 70.53,-87.02 107.28,-185.96 121.35,-487.51 89.56,-688.28l-56.18 -3.98 -67.26 491.7z"/>
   <path class="fil48" d="M10294.15 9821.21l84.61 37.91 -33.51 -262.57c-6.25,-99.49 -5.22,-162.79 -3.04,-261.42 4.48,-202.61 28.81,-155.09 -42.94,-244.8 -112.88,231.58 -45.2,505.37 -5.12,730.88z"/>
   <path class="fil49" d="M10206.44 7291.45c58.88,-70.19 45.78,-12.5 38.74,-217.08 -15.23,-442.39 59,-356.42 87.86,-605.19 -261.53,140.38 -174.63,548.56 -126.6,822.27z"/>
   <path class="fil50" d="M10294.15 9821.21c-94.84,-216.5 -72.68,-204.02 -102.3,-400.01 -2.45,-16.21 -6.39,-68.1 -10.81,-83.52 -28.89,-100.64 -17.03,-54.1 -59.5,-111.83 -21.56,267.76 -4.43,453.34 134.16,667.97l38.45 -72.61z"/>
   <path class="fil51" d="M10344.89 5636.18l-9.45 139.53c104.12,-87.33 82.62,-161.87 195.76,-285.43l47.08 -261.99 -138.27 206.71c-33.98,77.37 -65.07,145.08 -95.12,201.18z"/>
  </g>
 </g>
</svg>
