<?xml version="1.0" encoding="UTF-8"?>
<!DOCTYPE svg PUBLIC "-//W3C//DTD SVG 1.1//EN" "http://www.w3.org/Graphics/SVG/1.1/DTD/svg11.dtd">
<!-- Creator: CorelDRAW 2017 -->
<svg xmlns="http://www.w3.org/2000/svg" xml:space="preserve" width="200mm" height="200mm" version="1.1" style="shape-rendering:geometricPrecision; text-rendering:geometricPrecision; image-rendering:optimizeQuality; fill-rule:evenodd; clip-rule:evenodd"
viewBox="0 0 20000 20000"
 xmlns:xlink="http://www.w3.org/1999/xlink">
 <defs>
  <style type="text/css">
   <![CDATA[
    .fil2 {fill:#E9F0F6}
    .fil0 {fill:#49729E}
    .fil1 {fill:#2B5695}
   ]]>
  </style>
 </defs>
 <g id="Capa_x0020_1">
  <metadata id="CorelCorpID_0Corel-Layer"/>
  <path class="fil0" d="M9118.45 4786.64c298.55,-18 2236.96,-27.5 2516.48,26.5 121.03,23.38 272.84,31.14 407.32,34.93 148.57,4.2 240.79,27.96 382.44,38.67l1512.6 206.91c269.21,68.25 817.63,134.79 1072.53,213.5 108.72,33.57 224.79,61.66 336.99,83.42l332.96 108.9c60.88,27.45 117.27,14.31 180.68,32.3 384.78,109.2 1074.22,337.62 1429.49,507.71 97.75,46.8 199.65,92.97 302.76,135.84 104.53,43.46 190.95,101.66 278.16,142.94 713.41,337.7 1498.26,937.36 1826.3,1606.98 556.19,1135.31 -327.23,2151.26 -1226.29,2714.25 -808.02,505.99 -1338.24,698.27 -2215.08,1009.32 -307.51,109.09 -1240.19,354.82 -1520.48,410.86 -243.26,48.63 -470.8,81.33 -714.28,133.16 -555.9,118.34 -1701.69,248.17 -2324.39,273.47 -138.5,5.63 -229.53,34.58 -383.69,37.15 -738.8,12.33 -1369.56,26.7 -2127.91,13.47 -387.35,-6.76 -865.92,-27.32 -1237.07,-70.09l-373.59 -38.88c-224.19,-12.05 -256.62,-33.81 -386.05,-49.53 -132.42,-16.09 -286.15,-11.42 -404.14,-32.86l-1471.29 -256.47c-83.48,-12.6 -83.15,-28.88 -154.62,-45.83 -59.01,-14.01 -122.12,-13.51 -181.46,-31.49 -108.08,-32.75 -213.77,-62.48 -330.9,-87.87 -630.93,-136.7 -821.4,-252.52 -1341.96,-397.76 -135.79,-37.89 -314.44,-123.08 -454.85,-185.64l-459.18 -196.98c-515.26,-225.66 -1182.77,-662.78 -1564.83,-1024.39 -58.24,-55.11 -49.09,-74.67 -94.3,-116.72 -343.81,-319.91 -611.55,-791.06 -615.71,-1302.17 -6.11,-750.88 408.84,-1198.88 923.1,-1668.92 504.16,-460.82 1294.98,-824.11 1935.98,-1078.52 93.13,-36.95 188.17,-85.33 295.26,-122.16l498.59 -157.72c257.36,-111.63 533.17,-170.5 819.68,-249.09 234.17,-64.23 466.82,-112.04 699.48,-163.19 69.61,-15.28 123.49,-6.61 192.6,-18.38 51.29,-8.73 100.98,-37.29 165.85,-50.95 121.52,-25.55 220.87,-42.9 349.42,-67.51 473.58,-90.63 1019.21,-167.02 1507.04,-211.22l1184.34 -99.43c140.27,-2.04 293.57,1.85 432.02,-6.51zm-6941.76 5610.67c-19.58,-47.46 -9.08,-26.3 -36.14,-59.2l-163.43 -124.15c-217.39,-161.93 -421.47,-324.3 -589.47,-562.76 -184.52,-261.96 -308.27,-411.99 -391.97,-753.24 -40.74,-166.05 -19.26,-220.62 -200.72,-209.73 50.97,810.91 1065.01,1666.09 1381.73,1709.08zm-2176.69 -2127.5l0 630.69c42.55,9.74 34.82,85.36 41.61,132.76 12.42,86.87 13.39,76.55 38.75,140.84 34.5,87.46 53.43,153.32 100.82,245.25 340.84,661.42 1009.33,1196.12 1665.15,1539.68 92.37,48.38 141,82.2 224,121.35 89.81,42.36 143.23,76.12 242.12,120.56l483.95 209.66c315.13,126.86 1121.31,416.79 1457.96,497.66l269.9 71.64c541.13,144.7 801.68,173.78 1313.08,282.67 79.96,17.02 70.28,28.87 146.73,39.32 55.1,7.55 105.12,7.97 160.83,17.38 106.26,17.97 189.97,30.94 309.53,45.08l1215.84 153.86c138.53,2.21 668.59,14.29 746.47,73.55 91.91,-14.46 351.69,-2.33 459.1,7.16 437.02,38.62 960.87,32.46 1402.21,31.86 235.05,-0.31 2097.03,-93.63 2243.83,-130.71 128.64,-32.48 292.59,-29.32 441.65,-37.22 102.7,-5.43 93.24,-27.36 205.35,-42.39 651.04,-87.28 2324.34,-380.48 2947.58,-621.27 103,-39.79 239.42,-80.23 356.82,-117.49 950.32,-301.67 2615.75,-1049 3219.63,-2020.51l232.1 -478.88c67.36,-185.35 0.62,-125.68 74.99,-164.87l0 -650.87c-54.95,-23.7 -32.88,-92.59 -53.21,-165.27l-54.12 -153.89c-18.36,-60.92 -31.61,-66.37 -63.91,-148.98 -74.42,-190.24 -298.56,-489.28 -429.91,-631.41 -544.52,-589.25 -1372,-1014.12 -2086.37,-1332.53 -96.44,-42.98 -202.43,-82.55 -305.14,-131.4l-633.2 -215.92c-352.36,-110.67 -622.61,-196.9 -997.83,-289.05 -639.86,-157.18 -1477.36,-346.56 -2124.39,-415.77 -249.41,-26.67 -532.43,-59.82 -772.8,-92.11 -251.14,-33.74 -527.28,-32.7 -787.54,-62.22 -830.46,-94.21 -2484.29,-38.28 -3292.67,-6.75l-799.58 66.38c-247.01,34.22 -507.64,69.59 -754.03,88.07l-1468.72 243.12c-515.08,110.94 -1213,283.45 -1697.6,448.04 -344.35,116.94 -570.81,191.41 -922.98,341.48 -641.08,273.2 -633.25,305.81 -1139.85,568.76 -314.99,163.49 -735.52,509.6 -961.92,747.29 -133.71,140.39 -278.49,300.67 -375.19,468.16 -33.03,57.22 -48.85,85.33 -75.92,137.7l-101.34 221.57c-7.13,18.46 -8.4,23.66 -16.18,42.18 -2.29,5.48 -9.59,20.07 -11.83,25.37 -16.81,39.94 -15.11,52.6 -27.43,83.63l-46.34 66.79z"/>
  <path class="fil1" d="M18178.34 15269.41c168.92,0.16 119.56,-84.68 118.91,-255.93l-0.01 -1036.37c0.14,-308.87 -27.78,-361.97 78.33,-610.3 19.03,-44.55 26.39,-77.52 47.09,-124.18l250.75 -629.9c20.3,-55.44 26.4,-66.33 48.9,-125.42l326.63 -879.3c56.47,-199.12 234.71,-647.86 251.59,-806.23 -146.58,6.8 -430.41,192.29 -559.51,260.87 -174.59,92.72 -375.1,162.44 -550.59,257.36 -77.04,41.67 -71.1,37.09 -107.09,108.23 -52.88,104.54 -104.76,334.35 -140.78,456.93 -18.03,61.36 -35.17,103.25 -50.17,158.93 -53.67,199.16 -57.24,410.75 -155.09,423.49 -19.55,-40.93 -54.68,-160.63 -68.31,-209.36l-249.18 -574.24c-1.33,-8.31 -5.05,-10.25 -8.5,-14.77 -147.92,-0.26 -324.7,88.76 -445.75,133.45 -50.17,18.52 -59.56,28.7 -113.03,41.1 -219.01,50.76 -122.58,39.73 -313.26,107.44l-481.6 153.19c-4.58,1.47 -9.5,3.35 -14.11,4.75l-1269.61 336.08c-92.41,23.07 -158.82,10.72 -251.27,41.85 -71.2,23.95 -146.8,39.53 -222.47,58.18 -465.95,114.83 -483.63,-38.51 -480.92,299.51 1.26,155.53 -12.46,518 9.59,629.22 202.46,10.8 206.48,-33.44 359.32,-52.85 190.74,-24.2 244.74,-82.3 244.76,114.58l4.33 1667.45c0.98,5.28 3.5,12.03 4.45,16.2 0.91,4.06 4.78,17.99 5.54,15.4 0.74,-2.58 3.48,10.28 6.11,14.98 45.56,44.34 891.07,16.8 1086.76,15.93l4.03 -2046.29c143.26,-92.78 442.45,-51 606.59,-118.31 29.97,-100.51 13.25,-753.98 16.25,-967.01 72.71,21.25 111.08,99.43 174.27,187.75l209.97 348.99c90.47,120.79 120.18,140.8 214.06,324.11l279.22 448.08c197.01,261.99 181.27,298.38 181.27,534.11l-0.27 1189.89c-0.01,94.96 -6.85,83.53 70.24,100.6l882.56 1.81zm-14861.82 -3313.15c-122.41,-35.77 -118.11,-61 -281.26,-65.66 28.57,378.35 168.94,638.52 227.51,868.93 10.81,42.61 14.81,74.76 28.88,110.91 35.49,91.3 16.02,-6.88 35.05,93.01 44.17,231.64 39.62,63.32 61.96,208.08 37.27,241.42 286.1,982.76 377.21,1238.79l136.43 396.23c49.3,170.68 91.39,197.78 115.66,418.02 75.7,61.97 77.22,58.28 199.78,57.02 1055.11,-10.79 700.17,145.82 931.86,-588.11 14.71,-46.6 30.93,-137.22 47.7,-181.51 76.44,-201.95 22.28,-76.07 52.61,-201.83 14.42,-59.79 31.93,-37.28 59.81,-166.09 24.45,-112.89 15.97,-299.38 72.24,-371.62 12.6,45.57 23.52,104.78 41,150.3l101.32 433.13c41.86,197.89 89.42,393.64 140.96,569.09 98.12,333.98 -99.98,368.7 336.66,368 217.35,-0.34 486.13,14.52 697.07,-4.51 23.58,-30.81 29.7,-91.62 51.75,-144.31 22.21,-53.1 46.45,-75.49 72.63,-132.45l530.54 -1215.25c58.09,-128.65 386.92,-795.76 382.64,-913.23l-31.36 -14.74c-4.88,-1.84 -10.3,-4.32 -15.74,-6.12l-230.27 -24.06c-220.62,-15.92 -697.78,-108.35 -824.45,-93.08 -41.7,63.13 -97.06,258.02 -116.88,331.86 -22.55,84.05 -37.91,82.16 -60.51,162.16l-145.49 506.65c-26.57,79.26 -18.08,162.38 -59.73,266.27 -0.56,1.4 -20.74,43.02 -20.78,43.12 -1.88,3.57 -7.6,17.19 -9.04,14.15 -1.46,-3.1 -5.92,9.8 -9.44,14.32 -59.94,-59.53 -170.31,-551.55 -203.06,-647.73 -68.04,-199.79 -28.85,-193.48 -71.43,-295.2 -26.75,-63.88 -75.73,-482.94 -147.36,-549.27l-824.54 -166.53c-64.52,114.66 -194.13,620.98 -241.15,793.9l-57.59 211.46c-17.98,76.66 -33.93,112.49 -47.76,206.9l-75.37 406.9 -56.77 -83.69c-16.94,-35.95 -20.95,-57.51 -25.39,-100.82 -13.84,-134.86 -26.54,-129.35 -49.34,-241.78 -19.04,-93.87 -19.47,-161.11 -41.42,-251.79l-145.6 -712.89c-25.23,-154.48 -46.75,-430.8 -146.86,-461.55l-762.68 -235.38zm-2700.56 274.35l330.28 93.29c80.51,38.76 189.45,73.72 282.71,113.06 7.18,340.24 -36.7,2711.66 19.36,2803.97 42.3,42.47 33.68,37.51 111.87,41.19l917.49 -5.32c63.76,-11.64 58.33,-25.15 66.36,-89.91 1.85,-14.9 1.12,-59.54 0.98,-76.74 -4.67,-573.1 -24.19,-1940.96 2.58,-2336.66 61.69,-4.37 241.7,47.03 298.48,71.37 5.68,2.45 55.72,23.45 66.74,29.53l34.3 22.82c59.65,33.43 130.74,29.48 211.6,27.09l-2.15 -1083.31c-106.47,-44.92 -192.98,-77.39 -295.24,-125.52 -19.04,-8.96 -56.42,-27.79 -76.2,-37.97l-25.14 -13.33c-3.6,-1.92 -8.4,-4.85 -11.95,-6.76 -3.46,-1.84 -8.14,-4.88 -11.58,-6.64l-166.28 -61.66c-363.34,-135.11 -838.59,-342.46 -1179.72,-513.77 -122.86,-61.71 -442.11,-267.66 -577.81,-267.61l3.32 1422.88zm9408.77 2432.22c-164.98,-9.99 -847.24,48.11 -925.32,-44.6 -32.04,-34.76 -34.44,-152 3.31,-186.27 70.37,-78.55 674.5,-3.56 830.16,-39.27 11.52,-116.76 28.56,-453.46 -19.17,-536.04 -96.29,-52.11 -313.77,-17.31 -441.04,-20.83 -203.41,-5.63 -284.98,18.54 -391.55,-44.9l8.04 -190.81c157.21,-96.73 759.07,33.05 931.62,-45.11 19.25,-90.25 6.03,-521.93 -3.1,-601.09 -305.87,66.23 -1153.09,-8.78 -1522.66,-30.28 -489.81,-28.49 -482.91,-66.31 -481.12,131.28 0.47,51.96 0.93,102.46 0.5,154.55l-1.92 1920.63c1.12,54.8 -10.68,107.16 49.44,124.94 4.31,1.28 9.83,3.52 14.85,4.67 5.34,1.23 10.36,2.31 16.22,3.25 10.88,1.76 43.01,2.56 55.14,2.78 396.55,6.82 1728.91,20.81 1914.1,-27.03 -2.45,-93.94 -15.36,-185.47 -15.3,-301.99 0.03,-55.52 22.33,-265.08 -22.2,-273.88zm0 0c-51.26,-43.66 -144.51,-23.41 -264.42,-23.35 -429.13,0.22 -740.2,80.37 -632.89,-201.86 179.41,-41.23 716.67,36.3 821.5,-40.63 29.46,-52.76 32.8,-512.12 -5.43,-563.72 -82.03,-91.75 -712.9,29.78 -816.32,-67.27l2.54 -171.21c160.71,-3.13 317.19,2.1 477.19,3.15 202.35,1.33 374.83,35.01 413.88,-42.94 -172.55,78.16 -774.41,-51.62 -931.62,45.11l-8.04 190.81c106.57,63.44 188.14,39.27 391.55,44.9 127.27,3.52 344.75,-31.28 441.04,20.83 47.73,82.58 30.69,419.28 19.17,536.04 -155.66,35.71 -759.79,-39.28 -830.16,39.27 -37.75,34.27 -35.35,151.51 -3.31,186.27 78.08,92.71 760.34,34.61 925.32,44.6zm1954.06 -1242.54c-64.8,-29.01 -385.59,-439.63 -406.49,-489.89l-1047.48 47.7c-2.39,37.84 -33.48,2223.75 17.9,2265.67 65.42,26.73 854.05,22.06 972.22,9.46 31.61,-83.41 23.68,-767.91 12.74,-931.2 -8.22,-122.73 -51.27,-184.63 -40.58,-287.46 74.61,18.73 76.24,12.68 99.53,91.13 39.55,73.36 280.37,358.58 342.44,425.81 61.96,67.13 107.91,140.93 165.76,217.23 100.4,132.41 237.8,333.67 342.21,443.68 82.78,87.26 131.09,57.1 333.82,56.99 127.83,-0.08 255.67,-0.25 383.51,-0.24 28.06,0 343.94,9.04 354.74,-14.71 2.75,-6.05 10.14,-3.43 14.75,-6.07 32.21,-33.06 18.68,-411.96 18.66,-465.22l-0.47 -1381.8c-0.68,-789.14 69.35,-752.32 -209,-690.22 -156.23,34.85 -277.94,4.49 -421.17,46.43 -136.05,39.85 -233.35,42.12 -407.25,52.44 -46.07,157.66 -38.02,780.09 -5.14,978.61 18.98,114.49 33.98,182.67 29.15,311.63l-549.85 -679.97z"/>
  <path class="fil1" d="M9721.95 12236.64c-434.23,0 -1471.26,-43.78 -1879.19,-93.03l3.29 -10.23c-141.59,-14.7 -200,-39.64 -309.25,-47.36 -108.98,-7.72 -229.94,-1.17 -333.62,-24.82l-587.97 -100.79c-398.12,-40.36 -780.75,-153.64 -1171.08,-227.35 -304.67,-57.52 -830.17,-195.94 -1120.55,-283.37l-372.17 -137.75c-45.6,-17.72 -87.32,-18.52 -137.05,-36.08 -695.65,-245.71 -1793.2,-711.31 -2308.28,-1186.03 -272.57,-251.21 -516.68,-535.54 -686.3,-884.64 -132.23,-272.15 -56.26,-143.55 -119.03,-400.63 -77.2,-316.14 -222.55,-82.14 -361.25,-249.31 -48.63,-58.63 22.14,-18.79 -53.79,-49.44 -223.99,571.18 883.87,1623.86 1328.47,1917.6 596.17,393.9 468,307.96 1042.67,586.18l1047.52 393.48c65.94,24.77 81.37,47.97 137.9,61.58 71.87,17.32 280.79,51.82 341.63,74.42 121.9,45.27 146.33,60.66 299.84,95.68l657.14 166.18c302.74,44.77 551.69,124.41 862.14,166.93 106.44,14.58 78.91,28.24 156.5,45.15l1416.86 224.22c135.85,11.75 283.14,10.47 420.13,19.17 123.01,7.8 233.43,35.92 363.21,41.27 250.37,10.35 245.22,-23.49 484.27,27.11 307.48,65.12 1939.2,36.4 2166.88,-3.61 235.51,-41.39 555.86,-7.63 817.85,-47.5 350.05,-53.26 704.86,-78.55 1117.99,-144.76 114.92,-18.41 52.05,-30.4 168.34,-39.1 75.32,-5.64 153.94,-5.08 229.62,-13.89 69.82,-8.12 107.94,-26.64 166.54,-40.13l1613.85 -314.74 652.45 -188.39c228.21,-53.5 424.14,-129.34 647.73,-210.11 865.19,-312.55 1857.68,-716.46 2517.81,-1320.8 77.52,-70.97 146.35,-135.03 213.99,-207.46 222.86,-238.61 400.57,-439.49 541.23,-761.59 88.2,-201.96 120.62,-534.39 14.1,-742.51 -107.31,23.18 -20.82,56.28 -122.88,93.04 -62.11,22.34 -136.19,-3.62 -201.36,12.44 -112.27,27.68 -36.87,229.4 -87.51,356.13 -50.19,125.63 -34.63,181.4 -174.12,452.63 -216.54,421.07 -476.76,800.75 -867.71,1112.1 -93.24,74.24 -112.9,111.41 -235.51,184.71 -98.04,58.62 -188.79,115.78 -277.42,160.78 -1044.87,530.5 -1477.12,602.71 -2555.32,933.72 -181,55.56 -306.19,58.67 -512.71,120.78 -62.95,18.93 -138.76,13.39 -205.99,29.7 -104.8,25.4 -275.35,37.8 -360.97,64.48 -256.76,80.04 -853.41,188.49 -1110.05,208.78 -285.94,22.61 -804.25,113.39 -1152.14,146.61 -140,13.36 -285.9,7.57 -427.36,20.51 -556.51,50.98 -1113.73,50.04 -1699.37,50.04zm3982.07 -1965.6l-27.38 64.03c-144.52,22.36 -405.11,31.78 -501.37,-24.04 -3.74,-86.37 184.16,-398.65 259.96,-441.79 8.16,-83.54 111.03,-197.52 159.11,-269.54 65.17,-97.66 105.66,-170.91 168.67,-274.93 113.33,-187.07 286.91,-335.64 264.4,-579.06 -133.91,-86.89 -280.61,-6.59 -405.13,96.24 -293.95,242.76 -564.25,651.06 -824.93,939.88 -113.24,125.47 -165.86,187.58 -282.07,312.91 -174.34,188.05 -625.2,381.73 -881.38,277.31 -155.63,-63.43 -176.44,-219.39 -214.67,-357.54 -181.61,56.83 -292,292.86 -584.69,332.9 -338.18,46.29 -493.28,-61.72 -600.45,-281.91 -159.89,-328.53 62.37,-622.97 178.93,-886.56 66.57,-150.54 195.5,-259.25 211.05,-442.4 -120.36,-13.58 -147.65,28.15 -214.39,95.84 -150.96,153.09 -302.09,296.22 -436.52,462.67 -29.69,36.74 -34.68,49.85 -68.96,86.51l-196.32 263.62c-26.57,34.66 -48.17,51.33 -71.04,81.16 -234.81,306.33 -541.16,659.57 -988.94,656.03 -266.53,-2.08 -427.94,-137.32 -557.1,-337.62 -61.11,-94.79 -46.66,-103.46 -83.56,-203.99 -89.8,13.15 -78.7,18.06 -134.62,78.3 -27.9,30.06 -54.01,55.57 -85.03,88.52 -141.74,150.65 -333.2,218.79 -316.04,-79.88 259.31,-210.26 410.99,-479.42 596.11,-772.69 53.17,-84.23 109.57,-195.19 171.72,-269.32 135.69,-161.83 315.06,-336.43 503.9,-414.1 115.34,-47.45 235.98,-87.9 365.95,-93.1 147.15,-5.89 222.14,58.76 195.48,212.4 -33.57,23.33 -182.77,65.9 -236,87.47 -43.26,17.53 -175.57,100.26 -205.03,122.28 -609.11,455.68 -518.76,1212.12 -48.75,1140.75 239,-36.29 429.18,-225.71 548.57,-428.6 376.74,-640.29 -15.82,-884.39 161.07,-1031.41 70.51,-58.61 124,-81.85 235.74,-72.68 206.14,176.42 81.25,401.43 166.09,545.64 52.55,-3.07 221.13,-219.43 270.12,-261.64l79.18 -71.61c67.88,-73.22 117.47,-139.3 207.73,-197.8 262.77,-170.3 364.47,-142.46 696.27,-126.05l188.04 18.12c38.47,7.68 57.81,8.52 55.21,57.24 -0.21,3.78 -0.67,9.76 -1.39,13.58 -13.65,71.44 -211.66,324.68 -249.96,384.52 -146.03,228.11 -497.9,652.98 -499.07,927.25 -0.97,228.93 228,354.35 404.58,223.97 351.65,-259.64 576.17,-622.62 808.14,-978.52 18.96,-29.08 50.48,-54.52 76.71,-92.2l330 -558.86 494.92 26.78c5.8,96.1 -55.48,160.26 -106.33,231.88l-391.55 603.8c-137.48,243.01 -269.61,414.67 -383.79,616.78 -52.31,92.58 -40.63,165.24 10.12,243.82 144.31,26.62 247.38,2.93 357.54,-86.23 133.68,-108.2 261.94,-211.99 373.7,-335.88l356.39 -394.85c28.24,-29.93 39.98,-42.5 60.58,-69.63 44.25,-58.23 80.83,-105.95 128.3,-161.49 207.53,-242.86 812.29,-960.87 1140.95,-583.63 71.38,81.95 57.73,251.24 93.38,327.58 67.17,-5.02 44.4,-18.95 96.92,-81.22 32.67,-38.75 62.92,-65.53 95.17,-96.81 175.87,-170.57 552.78,-304.04 736.69,-57.95 307.65,411.68 -389.34,810.1 -497.19,404.08 -14.38,-54.14 -5.46,-102.6 -35.13,-147.41 -163.05,12.56 -374.04,387.71 -483.68,538.71l-386.14 612.21c-48.08,70.68 -231.91,305.94 -248.79,388.16zm-5319.32 -2742.2c-51.35,147.95 -140.72,164.41 -169.16,317 229.95,10.19 421.53,6.97 596.08,-58.01 18.93,-58.33 -1.85,-119.8 54.88,-168.13 -15.69,-111.26 91.07,-256.59 189.64,-313.61 53.55,-30.97 137.77,-62.64 202.51,-56.45 204.03,19.48 284.9,296.22 148.1,482.53 -140.17,190.9 -268.72,150.39 -258.36,237.99 45.25,83.36 133.96,61.25 144.29,179.39l-44.7 4.75c-127.98,132.66 -257.59,-118.18 -336.19,-141.55 -139.14,-41.37 -334.5,36.69 -456.21,46.47 -87.62,7.04 -180.67,9.06 -269.06,13.81 -289.58,15.57 -255.6,268.67 -398.97,355.45 -35.96,123.03 -306.4,480.1 -395.59,625.14 -44.78,72.81 -49.74,105.51 -98.96,171.78 -339.13,456.65 -394.39,554.94 -868.73,894.19 -489.03,349.79 -1292.82,289.11 -1650.54,-227.67 -26.23,-37.9 -60.24,-124.67 -78.86,-170.16 -254.8,-622.56 340.2,-1362.15 808.71,-1372.68 116.94,-2.64 120.67,15.19 184.46,66.74 4.61,98.72 -3.02,116.97 -67.98,169.59l-261.83 197.8c-307.78,251.6 -319.42,739.12 93.29,892.3 181.46,67.36 442.61,23.28 606.33,-52.69 160.11,-74.31 305.69,-166.05 440.86,-272.05 77.15,-60.52 135.65,-114.22 196.57,-169.28 52.99,-47.9 34.99,-39.54 78.93,-93.13 30.27,-36.92 49.92,-48.05 87.69,-84.56l321.78 -388.61c85.92,-120.59 277.39,-297.82 286.85,-444.23 -95.28,-1.29 -296.07,44.39 -389.69,73.13 -118.17,36.25 -176.82,145.68 -308.6,125.34 -56.42,-187.67 113.77,-252.39 262.08,-307.13 59.85,-22.08 55.52,-30.43 106.3,-45.13 63.76,-18.48 57.72,-7.79 121.1,-33.37 120.92,-48.82 326.54,-21.79 436.28,-78.49l179.87 -209.38c54.98,-92.39 34.15,-101.21 122.61,-180.75l452.65 -449.62c66.59,-60.32 105.78,-82.22 173.21,-134.8 52.83,-41.2 336.47,-221.3 340.64,-249.06 13.32,-88.85 -127.7,-64.55 -199.69,-77.55l-488.48 -103.42c-437.51,-53.72 -694.29,-67.38 -1123.15,-2.4 -261.73,39.65 -501.56,183.8 -686.34,366.17 -373.12,368.24 -158.39,832.85 260.55,680.94 392.39,-142.32 495.34,-502.9 678.13,-482.53 53.27,77.07 20.56,183.63 -13.22,270.94 -46.39,119.91 -155.17,231.69 -239.16,331.32 -101.84,120.85 -382.92,358.91 -542.67,389.4 -948.33,181.01 -1126.5,-869.34 -492.13,-1366.35 74.34,-58.23 149.39,-104.77 232.6,-151.81l230.38 -130.28 570.72 -168.81c189.09,-25.73 1047.44,-38.82 1275.91,2.43l129.82 36.46c113.09,19.55 234.99,17.24 351.4,34.31l962.44 146.44c128.52,16.26 182.61,48.41 326.79,54.06 149.05,5.83 196.95,29.33 325.55,41.97 231.47,22.79 469.2,33.35 710.38,33.32 248.29,-0.01 475.87,-7.23 689.32,-53.4 109.43,-23.67 222.94,-25.16 330.96,-55.08 785.2,-217.59 251.26,786.19 -1202.58,634.89l-805.2 -132.19c-144.32,-70.28 -881.74,-260.71 -1052.35,-265.37 -25.66,78.59 -0.11,95.53 -70.33,141.84l-361.44 271.5c-121.75,110.12 -262.85,293.85 -380.49,400.34zm9916.41 1228.17c26.52,-62.22 27.71,-257.67 17.03,-345.15 -17.62,-144.53 -244.08,-563.39 -354.58,-688.18l-77.12 -74.31c-218.31,-204.99 -447.13,-389.17 -713.86,-535.29 -222.15,-121.71 -451.83,-269.47 -690.03,-358.77 -95.08,-35.64 -170.63,-70.88 -248.38,-98.26 -99.14,-34.91 -201.89,-64.23 -279.89,-92.66l-789.67 -246.32c-395.45,-128.06 -866.36,-203.11 -1289.48,-300.55l-1367.08 -202.68c-110.24,-25.33 -176.33,-25.81 -312.46,-31l-480.91 -40.77c-46.23,-7.39 -112.9,-11.56 -154.15,-14.48 -233.48,-16.58 -475.34,-1.99 -707.51,-11.62 -208.96,-8.67 -424.57,-39.15 -651.68,-37.74 -236.5,1.48 -473.97,1.25 -710.46,4.55 -127.33,1.77 -159.74,27.36 -305.3,29.05 -115.19,1.33 -230.49,2.92 -345.7,4.44 -621.42,8.16 -1334.6,100.58 -1942.66,170.17l-284.08 54.7c-131.41,11.65 -188.28,30.49 -304.94,45.49 -342.13,44 -585.26,121.46 -885.48,171.07 -68.5,11.32 -90.78,4.83 -149.34,27.73 -53.58,20.93 -41.56,26.29 -123.01,40.02 -596.2,100.55 -1514.7,430.84 -2082.69,726.92l-450.27 260.09c-64.43,41.5 -140.85,92.47 -204.17,140.36 -214.44,162.15 -355.5,289.64 -525.35,529.42 -366.57,517.45 -266.6,1130.87 129.9,1540.36 557.47,575.72 1149.18,827.97 1878.18,1115.6 63.55,25.08 53.21,25.46 130.25,44.83l926.9 297.93c50.86,11.76 99.78,9.88 154.55,23.15 204.61,49.59 350.36,95.4 566.76,125.06 93.4,12.79 206.94,26.41 291.47,53.3 141.1,44.88 1030.7,200.38 1186.08,208.65 433.25,23.09 872.25,87.67 1304.6,107.01 458.6,20.52 863.12,53.56 1342.08,54.53 693.8,1.39 1348.65,-12 2019.45,-88.29 104.44,-11.87 231.66,-5.1 339.9,-10.15l646.57 -67.88c395.61,-81.21 924.85,-139.79 1346.37,-220.94 291.48,-56.11 584.38,-105.73 860.31,-198.75 97.69,-32.92 181.47,-24.42 286.05,-62.56 42.86,-15.61 82.21,-43.44 114.21,-55.42 42.65,-15.98 96.67,-17.26 142.52,-32.31 63.58,-20.86 54.61,-26 132.55,-39.5 187.17,-32.42 350.65,-121.07 527.09,-185.76 198.17,-72.63 532.7,-213.99 710.98,-323.57 151.82,-93.32 302.43,-159.01 448.46,-260.33 281.41,-195.3 534.4,-393.72 719.93,-678.95 46.21,-71.04 79.38,-135.1 124.24,-219.85 54.4,-102.74 45.11,-161.67 83.82,-252.39zm-8425.76 2971.25c-191.22,-0.42 -1708.7,-40.47 -1921.06,-90.76 -57.43,-13.61 -109.6,-12.77 -169.06,-13.86 -243.01,-4.49 -421.84,-42.51 -651.03,-72.94l-2428.53 -482.53c-166.17,-67.42 -426.4,-127.58 -429.38,-128.83 -50.59,-21.06 -36.9,-23.35 -121.02,-50.18 -185.32,-59.09 -349.07,-125.64 -523.74,-200 -585.47,-249.18 -918.69,-393.63 -1413.01,-774.17 -68.91,-53.06 -124.16,-98.76 -203.85,-161.43 -489.5,-384.9 -829.6,-1131.72 -473.47,-1775.76 80.4,-145.38 195.95,-313.91 303.25,-425.68 134.99,-140.62 229.93,-224.73 383.6,-345.38 457.84,-359.5 1127.15,-649.94 1683.27,-867.39l261.83 -98.94c395.97,-126.54 1009.68,-302.88 1424.76,-382.33 68.43,-13.09 101.26,-12.66 173.34,-20.82 90.17,-10.2 64.02,-26.12 123.64,-43.24l608.55 -116.18c195.63,-29.13 466.24,-40.01 654.85,-82.65l647.67 -79.83c225.66,-22.86 443.42,-36.25 660.59,-61.16 404.41,-46.37 2640.34,-41.3 3028.24,11.39 239.9,32.57 459.08,20.78 696.13,43.03l1577.91 223.3c68.84,4.49 115.91,19.23 155.66,32.37 51.47,17.01 87.39,19.8 141.22,29.58 420,76.2 294.74,70.89 575.7,143.92 56.51,14.69 118.99,8.02 176.26,23.36 61.24,16.39 48.35,30.77 115.96,51.24 82.93,25.07 201.68,37.56 292.88,58.81 83.07,19.36 184.67,66.64 272.54,89.01 271.3,69.1 363.14,123.34 554.86,178.57 115.62,33.32 145.57,67.07 254.48,104.52 517.58,177.97 1429.91,677.03 1789.15,1089.84 37.11,42.65 40.03,64.4 83.45,108.36 64.19,64.98 157.14,175.43 198.47,257.75 318.33,634.03 192.84,1175.92 -251.87,1669.6 -176.38,195.78 -547.51,497.23 -799.57,639.39 -57.79,32.59 -72.87,22.39 -132.18,61.66 -316.04,209.27 -748.07,384.79 -1116.33,516.17l-801 268.18c-108.31,34.65 -201.98,22.12 -304.96,61.7l-1785.72 390.86c-306.47,39.84 -662.89,93.36 -972.72,108.74 -244.8,12.16 -413.11,46.82 -653.01,55.35l-1686.75 57.36zm-517.73 246.76c415.41,4.83 1946.84,15.31 2199.38,-26.04 311.7,-51.07 470.65,-32.31 700.04,-65.47l1012.2 -137.26c156.54,-9.24 201.7,-36.4 327.62,-54.73 143.28,-20.84 814.45,-142.11 957.67,-189.83 82.33,-27.44 201.56,-65.37 292.64,-83.26l606.99 -165.56c90.79,-34.63 208.9,-50.06 302.63,-84.64l825.32 -321.91c173.58,-71.88 359.81,-150.21 533.69,-238.89 72.68,-37.06 168.28,-99.7 240.11,-139.93 46.51,-26.07 82.56,-48.35 119.13,-73.11 26.45,-17.89 86.33,-45.49 123.23,-68.5 596.92,-371.86 1279.18,-1024.73 1267.54,-1799.74 -7.36,-489.77 -305.79,-939.04 -648.88,-1266.06 -143.63,-136.88 16.2,-17.22 -203.73,-179.64l-441.33 -323.26c-315.84,-181.33 -684.31,-380.83 -1020.5,-517.5 -222.83,-90.61 -638.18,-253.22 -844.87,-307.91l-431.72 -143.38c-97.73,-25.85 -56.12,6.3 -188.98,-42.14l-269.39 -75.57c-517.68,-148.21 -1066.63,-234.3 -1591.29,-320.81 -399.87,-65.93 -315.86,-46.06 -683.95,-83.17 -61.52,-6.2 -106.72,-24.06 -159.37,-31.78l-878.56 -74.83c-653.15,-40.39 -2737.49,-96.39 -3386.96,46.58 -107.37,23.64 -234.89,10.07 -348.5,19.47l-979.73 128.54c-203.21,26.48 -425.36,62 -633.47,97.27l-598.2 128.77c-110.39,18.59 -196.27,45.73 -297.44,70.2 -56.83,13.74 -102.13,8.1 -153.51,20.22 -58.77,13.84 -53.89,33.77 -140.99,50.82 -292.09,57.15 -820.8,256.77 -1126.91,351.07 -213.96,65.9 -1082.73,471.98 -1244.91,577.55 -92.68,60.34 -145.75,99.01 -229.77,149.91 -300.48,182.08 -565.28,390.97 -794.19,668.01 -241.53,292.27 -446.11,607.02 -455.15,1019.69 -4.87,222.22 28.01,411.76 114.95,611.18 225.64,517.52 598.3,849.35 1047.38,1159.36 546.37,377.18 1405.27,713.14 2010.89,925.66 100.52,35.28 171.15,48.1 283.81,83.61l398.97 128.49c68.42,13.72 100.87,13.64 165.8,32.35 283.32,81.57 1599.18,356.73 1824.45,367.53 134.54,6.45 223.21,10.03 338.53,34.95 107.53,23.24 222.06,18.27 332.52,34.51 75.16,11.07 50.17,20.89 135.33,28.36l862.82 61.58c249.02,5.78 485.76,18.59 728.66,19.24zm8311.64 -1462.09c146.03,-7.28 458.34,-243.87 569.24,-334 180.12,-146.43 286.19,-273.54 431.26,-449.6 69.81,-84.75 118.36,-161.38 181.3,-261.02 63.04,-99.77 99.46,-182.66 156.61,-286.81 68.8,-125.37 153.65,-341.71 161.04,-500.63 4.22,-90.71 18.18,-164.5 -31.61,-225.3l-91.2 38.49c-36.84,125.61 -19.28,198.1 -109,489.53l-57.37 152.91c-231.36,471.83 -627.34,990.63 -1085.13,1253.91 -70.3,40.44 -99.02,39.9 -125.14,122.52z"/>
  <path class="fil2" d="M17669.26 10512.93c26.12,-82.62 54.84,-82.08 125.14,-122.52 457.79,-263.28 853.77,-782.08 1085.13,-1253.91l57.37 -152.91c89.72,-291.43 72.16,-363.92 109,-489.53l91.2 -38.49c49.79,60.8 35.83,134.59 31.61,225.3 -7.39,158.92 -92.24,375.26 -161.04,500.63 -57.15,104.15 -93.57,187.04 -156.61,286.81 -62.94,99.64 -111.49,176.27 -181.3,261.02 -145.07,176.06 -251.14,303.17 -431.26,449.6 -110.9,90.13 -423.21,326.72 -569.24,334zm-3965.24 -241.89l-483.93 11.49c18.22,-93.24 9.14,-52.28 55.4,-116.48l159.74 -296.81c-75.8,43.14 -263.7,355.42 -259.96,441.79 96.26,55.82 356.85,46.4 501.37,24.04l27.38 -64.03zm-5916.47 -1842.56c143.37,-86.78 109.39,-339.88 398.97,-355.45 88.39,-4.75 181.44,-6.77 269.06,-13.81 121.71,-9.78 317.07,-87.84 456.21,-46.47 78.6,23.37 208.21,274.21 336.19,141.55 -176.5,-8.77 -131.33,14.86 -243.17,-117.19 -93.6,-110.52 6.28,7.58 -222.36,-126.59 41.59,-108.24 134.44,-55.15 84.05,-290.82 -56.73,48.33 -35.95,109.8 -54.88,168.13 -174.55,64.98 -366.13,68.2 -596.08,58.01 28.44,-152.59 117.81,-169.05 169.16,-317 -147.31,71.81 -207.22,315.35 -253.37,345.21 -30.51,19.73 -106.74,15.72 -156.35,35.62 32.57,132.07 135.48,98.86 294.47,98.75 -59.47,48.13 -41.61,25.6 -158.57,35.73 -121.28,10.52 -62.86,12.9 -135.35,57.84 -24.22,-56.84 -48.11,-83.84 -111.32,-90.62 -25.74,71.37 -15.22,122.61 -18.13,209.47 -4.94,147.86 -37.42,92.49 -58.53,207.64zm0 0c21.11,-115.15 53.59,-59.78 58.53,-207.64 2.91,-86.86 -7.61,-138.1 18.13,-209.47 63.21,6.78 87.1,33.78 111.32,90.62 72.49,-44.94 14.07,-47.32 135.35,-57.84 116.96,-10.13 99.1,12.4 158.57,-35.73 -158.99,0.11 -261.9,33.32 -294.47,-98.75 49.61,-19.9 125.84,-15.89 156.35,-35.62 46.15,-29.86 106.06,-273.4 253.37,-345.21 117.64,-106.49 258.74,-290.22 380.49,-400.34l361.44 -271.5c70.22,-46.31 44.67,-63.25 70.33,-141.84 170.61,4.66 908.03,195.09 1052.35,265.37l805.2 132.19c1453.84,151.3 1987.78,-852.48 1202.58,-634.89 -108.02,29.92 -221.53,31.41 -330.96,55.08 -213.45,46.17 -441.03,53.39 -689.32,53.4 -241.18,0.03 -478.91,-10.53 -710.38,-33.32 -128.6,-12.64 -176.5,-36.14 -325.55,-41.97 -144.18,-5.65 -198.27,-37.8 -326.79,-54.06l-962.44 -146.44c-116.41,-17.07 -238.31,-14.76 -351.4,-34.31l-129.82 -36.46c-228.47,-41.25 -1086.82,-28.16 -1275.91,-2.43l-570.72 168.81 -230.38 130.28c-83.21,47.04 -158.26,93.58 -232.6,151.81 -634.37,497.01 -456.2,1547.36 492.13,1366.35 159.75,-30.49 440.83,-268.55 542.67,-389.4 83.99,-99.63 192.77,-211.41 239.16,-331.32 33.78,-87.31 66.49,-193.87 13.22,-270.94 -182.79,-20.37 -285.74,340.21 -678.13,482.53 -418.94,151.91 -633.67,-312.7 -260.55,-680.94 184.78,-182.37 424.61,-326.52 686.34,-366.17 428.86,-64.98 685.64,-51.32 1123.15,2.4l488.48 103.42c71.99,13 213.01,-11.3 199.69,77.55 -4.17,27.76 -287.81,207.86 -340.64,249.06 -67.43,52.58 -106.62,74.48 -173.21,134.8l-452.65 449.62c-88.46,79.54 -67.63,88.36 -122.61,180.75l-179.87 209.38c-109.74,56.7 -315.36,29.67 -436.28,78.49 -63.38,25.58 -57.34,14.89 -121.1,33.37 -50.78,14.7 -46.45,23.05 -106.3,45.13 -148.31,54.74 -318.5,119.46 -262.08,307.13 131.78,20.34 190.43,-89.09 308.6,-125.34 93.62,-28.74 294.41,-74.42 389.69,-73.13 -9.46,146.41 -200.93,323.64 -286.85,444.23l-321.78 388.61c-37.77,36.51 -57.42,47.64 -87.69,84.56 -43.94,53.59 -25.94,45.23 -78.93,93.13 -60.92,55.06 -119.42,108.76 -196.57,169.28 -135.17,106 -280.75,197.74 -440.86,272.05 -163.72,75.97 -424.87,120.05 -606.33,52.69 -412.71,-153.18 -401.07,-640.7 -93.29,-892.3l261.83 -197.8c64.96,-52.62 72.59,-70.87 67.98,-169.59 -63.79,-51.55 -67.52,-69.38 -184.46,-66.74 -468.51,10.53 -1063.51,750.12 -808.71,1372.68 18.62,45.49 52.63,132.26 78.86,170.16 357.72,516.78 1161.51,577.46 1650.54,227.67 474.34,-339.25 529.6,-437.54 868.73,-894.19 49.22,-66.27 54.18,-98.97 98.96,-171.78 89.19,-145.04 359.63,-502.11 395.59,-625.14zm5647.68 1440.76l-159.74 296.81c-46.26,64.2 -37.18,23.24 -55.4,116.48l483.93 -11.49c16.88,-82.22 200.71,-317.48 248.79,-388.16l386.14 -612.21c109.64,-151 320.63,-526.15 483.68,-538.71 29.67,44.81 20.75,93.27 35.13,147.41 107.85,406.02 804.84,7.6 497.19,-404.08 -183.91,-246.09 -560.82,-112.62 -736.69,57.95 -32.25,31.28 -62.5,58.06 -95.17,96.81 -52.52,62.27 -29.75,76.2 -96.92,81.22 -35.65,-76.34 -22,-245.63 -93.38,-327.58 -328.66,-377.24 -933.42,340.77 -1140.95,583.63 -47.47,55.54 -84.05,103.26 -128.3,161.49 -20.6,27.13 -32.34,39.7 -60.58,69.63l-356.39 394.85c-111.76,123.89 -240.02,227.68 -373.7,335.88 -110.16,89.16 -213.23,112.85 -357.54,86.23 -50.75,-78.58 -62.43,-151.24 -10.12,-243.82 114.18,-202.11 246.31,-373.77 383.79,-616.78l391.55 -603.8c50.85,-71.62 112.13,-135.78 106.33,-231.88l-494.92 -26.78 -330 558.86c-26.23,37.68 -57.75,63.12 -76.71,92.2 -231.97,355.9 -456.49,718.88 -808.14,978.52 -176.58,130.38 -405.55,4.96 -404.58,-223.97 1.17,-274.27 353.04,-699.14 499.07,-927.25 38.3,-59.84 236.31,-313.08 249.96,-384.52 0.72,-3.82 1.18,-9.8 1.39,-13.58 2.6,-48.72 -16.74,-49.56 -55.21,-57.24l-188.04 -18.12c-331.8,-16.41 -433.5,-44.25 -696.27,126.05 -90.26,58.5 -139.85,124.58 -207.73,197.8l-79.18 71.61c-48.99,42.21 -217.57,258.57 -270.12,261.64 -84.84,-144.21 40.05,-369.22 -166.09,-545.64 -111.74,-9.17 -165.23,14.07 -235.74,72.68 -176.89,147.02 215.67,391.12 -161.07,1031.41 -119.39,202.89 -309.57,392.31 -548.57,428.6 -470.01,71.37 -560.36,-685.07 48.75,-1140.75 29.46,-22.02 161.77,-104.75 205.03,-122.28 53.23,-21.57 202.43,-64.14 236,-87.47 26.66,-153.64 -48.33,-218.29 -195.48,-212.4 -129.97,5.2 -250.61,45.65 -365.95,93.1 -188.84,77.67 -368.21,252.27 -503.9,414.1 -62.15,74.13 -118.55,185.09 -171.72,269.32 -185.12,293.27 -336.8,562.43 -596.11,772.69 -17.16,298.67 174.3,230.53 316.04,79.88 31.02,-32.95 57.13,-58.46 85.03,-88.52 55.92,-60.24 44.82,-65.15 134.62,-78.3 36.9,100.53 22.45,109.2 83.56,203.99 129.16,200.3 290.57,335.54 557.1,337.62 447.78,3.54 754.13,-349.7 988.94,-656.03 22.87,-29.83 44.47,-46.5 71.04,-81.16l196.32 -263.62c34.28,-36.66 39.27,-49.77 68.96,-86.51 134.43,-166.45 285.56,-309.58 436.52,-462.67 66.74,-67.69 94.03,-109.42 214.39,-95.84 -15.55,183.15 -144.48,291.86 -211.05,442.4 -116.56,263.59 -338.82,558.03 -178.93,886.56 107.17,220.19 262.27,328.2 600.45,281.91 292.69,-40.04 403.08,-276.07 584.69,-332.9 38.23,138.15 59.04,294.11 214.67,357.54 256.18,104.42 707.04,-89.26 881.38,-277.31 116.21,-125.33 168.83,-187.44 282.07,-312.91 260.68,-288.82 530.98,-697.12 824.93,-939.88 124.52,-102.83 271.22,-183.13 405.13,-96.24 22.51,243.42 -151.07,391.99 -264.4,579.06 -63.01,104.02 -103.5,177.27 -168.67,274.93 -48.08,72.02 -150.95,186 -159.11,269.54zm-4413.05 -2119.31c-38.51,-229.33 71.32,-436.66 268.07,-328.16 31.4,106.91 0.68,172.13 -70.5,238.75 -60.17,56.29 -111.17,96.77 -197.57,89.41zm-155.68 -130.23c50.39,235.67 -42.46,182.58 -84.05,290.82 228.64,134.17 128.76,16.07 222.36,126.59 111.84,132.05 66.67,108.42 243.17,117.19l44.7 -4.75c-10.33,-118.14 -99.04,-96.03 -144.29,-179.39 -10.36,-87.6 118.19,-47.09 258.36,-237.99 136.8,-186.31 55.93,-463.05 -148.1,-482.53 -64.74,-6.19 -148.96,25.48 -202.51,56.45 -98.57,57.02 -205.33,202.35 -189.64,313.61zm155.68 130.23c86.4,7.36 137.4,-33.12 197.57,-89.41 71.18,-66.62 101.9,-131.84 70.5,-238.75 -196.75,-108.5 -306.58,98.83 -268.07,328.16zm-7045.06 2464.03l163.43 124.15c27.06,32.9 16.56,11.74 36.14,59.2 -316.72,-42.99 -1330.76,-898.17 -1381.73,-1709.08 181.46,-10.89 159.98,43.68 200.72,209.73 83.7,341.25 207.45,491.28 391.97,753.24 168,238.46 372.08,400.83 589.47,562.76zm7744.83 2022.68c585.64,0 1142.86,0.94 1699.37,-50.04 141.46,-12.94 287.36,-7.15 427.36,-20.51 347.89,-33.22 866.2,-124 1152.14,-146.61 256.64,-20.29 853.29,-128.74 1110.05,-208.78 85.62,-26.68 256.17,-39.08 360.97,-64.48 67.23,-16.31 143.04,-10.77 205.99,-29.7 206.52,-62.11 331.71,-65.22 512.71,-120.78 1078.2,-331.01 1510.45,-403.22 2555.32,-933.72 88.63,-45 179.38,-102.16 277.42,-160.78 122.61,-73.3 142.27,-110.47 235.51,-184.71 390.95,-311.35 651.17,-691.03 867.71,-1112.1 139.49,-271.23 123.93,-327 174.12,-452.63 50.64,-126.73 -24.76,-328.45 87.51,-356.13 65.17,-16.06 139.25,9.9 201.36,-12.44 102.06,-36.76 15.57,-69.86 122.88,-93.04 106.52,208.12 74.1,540.55 -14.1,742.51 -140.66,322.1 -318.37,522.98 -541.23,761.59 -67.64,72.43 -136.47,136.49 -213.99,207.46 -660.13,604.34 -1652.62,1008.25 -2517.81,1320.8 -223.59,80.77 -419.52,156.61 -647.73,210.11l-652.45 188.39 -1613.85 314.74c-58.6,13.49 -96.72,32.01 -166.54,40.13 -75.68,8.81 -154.3,8.25 -229.62,13.89 -116.29,8.7 -53.42,20.69 -168.34,39.1 -413.13,66.21 -767.94,91.5 -1117.99,144.76 -261.99,39.87 -582.34,6.11 -817.85,47.5 -227.68,40.01 -1859.4,68.73 -2166.88,3.61 -239.05,-50.6 -233.9,-16.76 -484.27,-27.11 -129.78,-5.35 -240.2,-33.47 -363.21,-41.27 -136.99,-8.7 -284.28,-7.42 -420.13,-19.17l-1416.86 -224.22c-77.59,-16.91 -50.06,-30.57 -156.5,-45.15 -310.45,-42.52 -559.4,-122.16 -862.14,-166.93l-657.14 -166.18c-153.51,-35.02 -177.94,-50.41 -299.84,-95.68 -60.84,-22.6 -269.76,-57.1 -341.63,-74.42 -56.53,-13.61 -71.96,-36.81 -137.9,-61.58l-1047.52 -393.48c-574.67,-278.22 -446.5,-192.28 -1042.67,-586.18 -444.6,-293.74 -1552.46,-1346.42 -1328.47,-1917.6 75.93,30.65 5.16,-9.19 53.79,49.44 138.7,167.17 284.05,-66.83 361.25,249.31 62.77,257.08 -13.2,128.48 119.03,400.63 169.62,349.1 413.73,633.43 686.3,884.64 515.08,474.72 1612.63,940.32 2308.28,1186.03 49.73,17.56 91.45,18.36 137.05,36.08l372.17 137.75c290.38,87.43 815.88,225.85 1120.55,283.37 390.33,73.71 772.96,186.99 1171.08,227.35l587.97 100.79c103.68,23.65 224.64,17.1 333.62,24.82 109.25,7.72 167.66,32.66 309.25,47.36l-3.29 10.23c407.93,49.25 1444.96,93.03 1879.19,93.03zm-364.33 -261.62c-242.9,-0.65 -479.64,-13.46 -728.66,-19.24l-862.82 -61.58c-85.16,-7.47 -60.17,-17.29 -135.33,-28.36 -110.46,-16.24 -224.99,-11.27 -332.52,-34.51 -115.32,-24.92 -203.99,-28.5 -338.53,-34.95 -225.27,-10.8 -1541.13,-285.96 -1824.45,-367.53 -64.93,-18.71 -97.38,-18.63 -165.8,-32.35l-398.97 -128.49c-112.66,-35.51 -183.29,-48.33 -283.81,-83.61 -605.62,-212.52 -1464.52,-548.48 -2010.89,-925.66 -449.08,-310.01 -821.74,-641.84 -1047.38,-1159.36 -86.94,-199.42 -119.82,-388.96 -114.95,-611.18 9.04,-412.67 213.62,-727.42 455.15,-1019.69 228.91,-277.04 493.71,-485.93 794.19,-668.01 84.02,-50.9 137.09,-89.57 229.77,-149.91 162.18,-105.57 1030.95,-511.65 1244.91,-577.55 306.11,-94.3 834.82,-293.92 1126.91,-351.07 87.1,-17.05 82.22,-36.98 140.99,-50.82 51.38,-12.12 96.68,-6.48 153.51,-20.22 101.17,-24.47 187.05,-51.61 297.44,-70.2l598.2 -128.77c208.11,-35.27 430.26,-70.79 633.47,-97.27l979.73 -128.54c113.61,-9.4 241.13,4.17 348.5,-19.47 649.47,-142.97 2733.81,-86.97 3386.96,-46.58l878.56 74.83c52.65,7.72 97.85,25.58 159.37,31.78 368.09,37.11 284.08,17.24 683.95,83.17 524.66,86.51 1073.61,172.6 1591.29,320.81l269.39 75.57c132.86,48.44 91.25,16.29 188.98,42.14l431.72 143.38c206.69,54.69 622.04,217.3 844.87,307.91 336.19,136.67 704.66,336.17 1020.5,517.5l441.33 323.26c219.93,162.42 60.1,42.76 203.73,179.64 343.09,327.02 641.52,776.29 648.88,1266.06 11.64,775.01 -670.62,1427.88 -1267.54,1799.74 -36.9,23.01 -96.78,50.61 -123.23,68.5 -36.57,24.76 -72.62,47.04 -119.13,73.11 -71.83,40.23 -167.43,102.87 -240.11,139.93 -173.88,88.68 -360.11,167.01 -533.69,238.89l-825.32 321.91c-93.73,34.58 -211.84,50.01 -302.63,84.64l-606.99 165.56c-91.08,17.89 -210.31,55.82 -292.64,83.26 -143.22,47.72 -814.39,168.99 -957.67,189.83 -125.92,18.33 -171.08,45.49 -327.62,54.73l-1012.2 137.26c-229.39,33.16 -388.34,14.4 -700.04,65.47 -252.54,41.35 -1783.97,30.87 -2199.38,26.04zm-239.17 -7188.38c-138.45,8.36 -291.75,4.47 -432.02,6.51l-1184.34 99.43c-487.83,44.2 -1033.46,120.59 -1507.04,211.22 -128.55,24.61 -227.9,41.96 -349.42,67.51 -64.87,13.66 -114.56,42.22 -165.85,50.95 -69.11,11.77 -122.99,3.1 -192.6,18.38 -232.66,51.15 -465.31,98.96 -699.48,163.19 -286.51,78.59 -562.32,137.46 -819.68,249.09l-498.59 157.72c-107.09,36.83 -202.13,85.21 -295.26,122.16 -641,254.41 -1431.82,617.7 -1935.98,1078.52 -514.26,470.04 -929.21,918.04 -923.1,1668.92 4.16,511.11 271.9,982.26 615.71,1302.17 45.21,42.05 36.06,61.61 94.3,116.72 382.06,361.61 1049.57,798.73 1564.83,1024.39l459.18 196.98c140.41,62.56 319.06,147.75 454.85,185.64 520.56,145.24 711.03,261.06 1341.96,397.76 117.13,25.39 222.82,55.12 330.9,87.87 59.34,17.98 122.45,17.48 181.46,31.49 71.47,16.95 71.14,33.23 154.62,45.83l1471.29 256.47c117.99,21.44 271.72,16.77 404.14,32.86 129.43,15.72 161.86,37.48 386.05,49.53l373.59 38.88c371.15,42.77 849.72,63.33 1237.07,70.09 758.35,13.23 1389.11,-1.14 2127.91,-13.47 154.16,-2.57 245.19,-31.52 383.69,-37.15 622.7,-25.3 1768.49,-155.13 2324.39,-273.47 243.48,-51.83 471.02,-84.53 714.28,-133.16 280.29,-56.04 1212.97,-301.77 1520.48,-410.86 876.84,-311.05 1407.06,-503.33 2215.08,-1009.32 899.06,-562.99 1782.48,-1578.94 1226.29,-2714.25 -328.04,-669.62 -1112.89,-1269.28 -1826.3,-1606.98 -87.21,-41.28 -173.63,-99.48 -278.16,-142.94 -103.11,-42.87 -205.01,-89.04 -302.76,-135.84 -355.27,-170.09 -1044.71,-398.51 -1429.49,-507.71 -63.41,-17.99 -119.8,-4.85 -180.68,-32.3l-332.96 -108.9c-112.2,-21.76 -228.27,-49.85 -336.99,-83.42 -254.9,-78.71 -803.32,-145.25 -1072.53,-213.5l-1512.6 -206.91c-141.65,-10.71 -233.87,-34.47 -382.44,-38.67 -134.48,-3.79 -286.29,-11.55 -407.32,-34.93 -279.52,-54 -2217.93,-44.5 -2516.48,-26.5zm9182.66 3970.37c-38.71,90.72 -29.42,149.65 -83.82,252.39 -44.86,84.75 -78.03,148.81 -124.24,219.85 -185.53,285.23 -438.52,483.65 -719.93,678.95 -146.03,101.32 -296.64,167.01 -448.46,260.33 -178.28,109.58 -512.81,250.94 -710.98,323.57 -176.44,64.69 -339.92,153.34 -527.09,185.76 -77.94,13.5 -68.97,18.64 -132.55,39.5 -45.85,15.05 -99.87,16.33 -142.52,32.31 -32,11.98 -71.35,39.81 -114.21,55.42 -104.58,38.14 -188.36,29.64 -286.05,62.56 -275.93,93.02 -568.83,142.64 -860.31,198.75 -421.52,81.15 -950.76,139.73 -1346.37,220.94l-646.57 67.88c-108.24,5.05 -235.46,-1.72 -339.9,10.15 -670.8,76.29 -1325.65,89.68 -2019.45,88.29 -478.96,-0.97 -883.48,-34.01 -1342.08,-54.53 -432.35,-19.34 -871.35,-83.92 -1304.6,-107.01 -155.38,-8.27 -1044.98,-163.77 -1186.08,-208.65 -84.53,-26.89 -198.07,-40.51 -291.47,-53.3 -216.4,-29.66 -362.15,-75.47 -566.76,-125.06 -54.77,-13.27 -103.69,-11.39 -154.55,-23.15l-926.9 -297.93c-77.04,-19.37 -66.7,-19.75 -130.25,-44.83 -729,-287.63 -1320.71,-539.88 -1878.18,-1115.6 -396.5,-409.49 -496.47,-1022.91 -129.9,-1540.36 169.85,-239.78 310.91,-367.27 525.35,-529.42 63.32,-47.89 139.74,-98.86 204.17,-140.36l450.27 -260.09c567.99,-296.08 1486.49,-626.37 2082.69,-726.92 81.45,-13.73 69.43,-19.09 123.01,-40.02 58.56,-22.9 80.84,-16.41 149.34,-27.73 300.22,-49.61 543.35,-127.07 885.48,-171.07 116.66,-15 173.53,-33.84 304.94,-45.49l284.08 -54.7c608.06,-69.59 1321.24,-162.01 1942.66,-170.17 115.21,-1.52 230.51,-3.11 345.7,-4.44 145.56,-1.69 177.97,-27.28 305.3,-29.05 236.49,-3.3 473.96,-3.07 710.46,-4.55 227.11,-1.41 442.72,29.07 651.68,37.74 232.17,9.63 474.03,-4.96 707.51,11.62 41.25,2.92 107.92,7.09 154.15,14.48l480.91 40.77c136.13,5.19 202.22,5.67 312.46,31l1367.08 202.68c423.12,97.44 894.03,172.49 1289.48,300.55l789.67 246.32c78,28.43 180.75,57.75 279.89,92.66 77.75,27.38 153.3,62.62 248.38,98.26 238.2,89.3 467.88,237.06 690.03,358.77 266.73,146.12 495.55,330.3 713.86,535.29l77.12 74.31c110.5,124.79 336.96,543.65 354.58,688.18 10.68,87.48 9.49,282.93 -17.03,345.15zm-8425.76 2971.25l1686.75 -57.36c239.9,-8.53 408.21,-43.19 653.01,-55.35 309.83,-15.38 666.25,-68.9 972.72,-108.74l1785.72 -390.86c102.98,-39.58 196.65,-27.05 304.96,-61.7l801 -268.18c368.26,-131.38 800.29,-306.9 1116.33,-516.17 59.31,-39.27 74.39,-29.07 132.18,-61.66 252.06,-142.16 623.19,-443.61 799.57,-639.39 444.71,-493.68 570.2,-1035.57 251.87,-1669.6 -41.33,-82.32 -134.28,-192.77 -198.47,-257.75 -43.42,-43.96 -46.34,-65.71 -83.45,-108.36 -359.24,-412.81 -1271.57,-911.87 -1789.15,-1089.84 -108.91,-37.45 -138.86,-71.2 -254.48,-104.52 -191.72,-55.23 -283.56,-109.47 -554.86,-178.57 -87.87,-22.37 -189.47,-69.65 -272.54,-89.01 -91.2,-21.25 -209.95,-33.74 -292.88,-58.81 -67.61,-20.47 -54.72,-34.85 -115.96,-51.24 -57.27,-15.34 -119.75,-8.67 -176.26,-23.36 -280.96,-73.03 -155.7,-67.72 -575.7,-143.92 -53.83,-9.78 -89.75,-12.57 -141.22,-29.58 -39.75,-13.14 -86.82,-27.88 -155.66,-32.37l-1577.91 -223.3c-237.05,-22.25 -456.23,-10.46 -696.13,-43.03 -387.9,-52.69 -2623.83,-57.76 -3028.24,-11.39 -217.17,24.91 -434.93,38.3 -660.59,61.16l-647.67 79.83c-188.61,42.64 -459.22,53.52 -654.85,82.65l-608.55 116.18c-59.62,17.12 -33.47,33.04 -123.64,43.24 -72.08,8.16 -104.91,7.73 -173.34,20.82 -415.08,79.45 -1028.79,255.79 -1424.76,382.33l-261.83 98.94c-556.12,217.45 -1225.43,507.89 -1683.27,867.39 -153.67,120.65 -248.61,204.76 -383.6,345.38 -107.3,111.77 -222.85,280.3 -303.25,425.68 -356.13,644.04 -16.03,1390.86 473.47,1775.76 79.69,62.67 134.94,108.37 203.85,161.43 494.32,380.54 827.54,524.99 1413.01,774.17 174.67,74.36 338.42,140.91 523.74,200 84.12,26.83 70.43,29.12 121.02,50.18 2.98,1.25 263.21,61.41 429.38,128.83l2428.53 482.53c229.19,30.43 408.02,68.45 651.03,72.94 59.46,1.09 111.63,0.25 169.06,13.86 212.36,50.29 1729.84,90.34 1921.06,90.76z"/>
 </g>
</svg>
