<?xml version="1.0" encoding="UTF-8"?>
<!DOCTYPE svg PUBLIC "-//W3C//DTD SVG 1.1//EN" "http://www.w3.org/Graphics/SVG/1.1/DTD/svg11.dtd">
<!-- Creator: CorelDRAW 2017 -->
<svg xmlns="http://www.w3.org/2000/svg" xml:space="preserve" width="200mm" height="200mm" version="1.1" style="shape-rendering:geometricPrecision; text-rendering:geometricPrecision; image-rendering:optimizeQuality; fill-rule:evenodd; clip-rule:evenodd"
viewBox="0 0 20000 20000"
 xmlns:xlink="http://www.w3.org/1999/xlink">
 <defs>
  <style type="text/css">
   <![CDATA[
    .fil4 {fill:#030303}
    .fil5 {fill:#C30D03}
    .fil6 {fill:#FCFCFC}
    .fil0 {fill:#E6E7E8;fill-rule:nonzero}
    .fil3 {fill:#FFF212;fill-rule:nonzero}
    .fil2 {fill:#ED3237;fill-rule:nonzero}
    .fil1 {fill:#3E4095;fill-rule:nonzero}
   ]]>
  </style>
 </defs>
 <g id="Capa_x0020_1">
  <metadata id="CorelCorpID_0Corel-Layer"/>
  <path class="fil0" d="M11.5 15446.33l0 -5703.36 3799.73 0 0 1420.13 -2325.93 0 0 890.39 2325.93 0 0 1358.66 -2325.93 0 0 2034.18 -1473.8 0zm6209.97 -5703.36l0 3346.78c0,376.16 64.01,651.23 193.2,823.94 127.93,172.71 330.1,258.38 605.17,258.38 282.68,0 488.67,-86.94 619.22,-260.92 129.19,-172.71 194.38,-447.78 194.38,-821.4l0 -3346.78 1435.45 0 0 3548.96c0,328.74 -17.86,589.75 -52.4,780.42 -34.55,190.57 -93.39,363.28 -176.61,515.5 -179.06,326.29 -436.27,569.35 -770.18,728.01 -333.9,158.57 -754.75,237.9 -1265.27,237.9 -414.51,0 -777.79,-62.65 -1091.21,-189.3 -312.15,-125.39 -569.35,-313.42 -771.44,-562.92 -143.34,-172.71 -244.42,-368.45 -304.53,-588.49 -60.11,-220.03 -89.58,-527.11 -89.58,-921.12l0 -3548.96 1473.8 0zm8091.93 2256.85c-165,-272.53 -373.61,-479.79 -625.56,-623.12 -253.4,-141.98 -539.89,-213.6 -863.65,-213.6 -409.34,0 -724.02,130.46 -944.15,391.48 -220.04,261.01 -330.01,635.81 -330.01,1123.21 0,479.78 108.7,853.4 327.47,1122.03 218.77,268.63 522.03,402.99 909.61,402.99 314.78,0 602.63,-75.52 863.56,-227.74 261.01,-150.96 459.29,-359.48 593.65,-624.3l0 1503.26c-225.2,228.92 -493.84,402.99 -805.98,521.94 -312.15,118.95 -658.84,177.79 -1038.81,177.79 -742.06,0 -1319.04,-258.39 -1729.73,-775.25 -410.61,-518.13 -616.6,-1244.79 -616.6,-2182.59 0,-973.53 207.26,-1710.43 620.49,-2210.7 414.51,-500.18 1023.49,-749.68 1828.11,-749.68 382.59,0 725.38,57.57 1027.38,173.98 303.17,116.41 564.19,291.75 784.22,524.57l0 1665.73zm891.66 3446.51l0 -5703.36 1473.8 0 0 2570.26 1374.07 -2570.26 1750.14 0 -1796.19 2884.95 1757.84 2818.41 -1719.49 0 -1366.37 -2439.71 0 2439.71 -1473.8 0z"/>
  <path class="fil1" d="M11.5 12601.72l0 -2858.75 3799.73 0 0 1420.13 -2325.93 0 0 890.39 2325.93 0 0 548.23 -3799.73 0zm6209.97 -2858.75l0 2858.75 -1473.8 0 0 -2858.75 1473.8 0zm1611.97 2858.75l0 -2858.75 1435.45 0 0 2858.75 -1435.45 0zm6479.96 -601.9c-165,-272.53 -373.61,-479.79 -625.56,-623.12 -253.4,-141.98 -539.89,-213.6 -863.65,-213.6 -409.34,0 -724.02,130.46 -944.15,391.48 -208.43,247.23 -318.13,596.64 -329.1,1047.14l-1497.74 0 0 -5.8c0,-973.53 207.26,-1710.43 620.49,-2210.7 414.51,-500.18 1023.49,-749.68 1828.11,-749.68 382.59,0 725.38,57.57 1027.38,173.98 303.17,116.41 564.19,291.75 784.22,524.57l0 1665.73zm891.66 601.9l0 -2858.75 1473.8 0 0 2570.26 1374.07 -2570.26 1750.14 0 -1779.87 2858.75 -2818.14 0z"/>
  <g id="_2384926506816">
   <path class="fil2" d="M679.95 12601.72l0 -2858.75 1473.8 0 0 2858.75 -1473.8 0zm3952.31 0c-2.81,-81.41 -4.26,-164.28 -4.26,-248.87 0,-917.31 203.45,-1599.18 611.51,-2046.96 406.89,-446.42 1028.65,-670.35 1866.55,-670.35 836.72,0 1459.75,223.93 1867.91,670.35 408.06,447.78 612.78,1129.65 612.78,2046.96 0,84.59 -1.45,167.46 -4.26,248.87l-1424.3 0c-8.88,-464.82 -94.38,-810.88 -256.39,-1038.17 -171.35,-241.79 -436.17,-362.1 -795.74,-362.1 -350.5,0 -612.78,118.95 -788.03,355.66 -172.8,234.64 -259.84,582.42 -262.2,1044.61l-1423.57 0zm6052.77 0l-784.86 -2858.75 1505.8 0 696.46 2858.75 -1417.4 0zm1962.92 0l737.17 -2858.75 1466.18 0 -804.17 2858.75 -1399.18 0zm2740.61 0l0 -2858.75 3745.97 0 0 1420.13 -2417.95 0 0 775.25 2417.95 0 0 663.37 -3745.97 0z"/>
   <path class="fil3" d="M679.95 15446.33l0 -2844.61 1473.8 0 0 1424.57 2011.15 0 0 1420.04 -3484.95 0zm6426.11 107.43c-804.71,0 -1418.77,-272.44 -1842.25,-818.77 -389.12,-501.9 -599.82,-1213.32 -631.55,-2133.27l1423.57 0 -0.09 19.86c0,503.98 89.58,887.85 269.99,1150.04 180.33,262.28 442.61,392.84 786.77,392.84 327.47,0 584.68,-130.56 768.9,-391.48 185.49,-261.02 277.61,-623.12 277.61,-1088.76 0,-27.92 -0.28,-55.39 -0.82,-82.5l1424.3 0c-31.73,919.95 -242.52,1631.37 -631.55,2133.27 -423.48,546.33 -1038.9,818.77 -1844.88,818.77zm4360.02 -107.43l-781.05 -2844.61 1417.4 0 23.85 97.82c57.57,222.67 104.89,461.84 144.51,717.77 38.44,255.85 70.36,529.65 94.74,822.58l23.03 0c10.16,-243.07 34.54,-488.67 72.89,-740.71 38.35,-250.77 98.46,-538.62 177.79,-863.55l8.71 -33.91 1399.18 0 -800.18 2844.61 -1780.87 0zm3922.48 0l0 -2844.61 3745.97 0 0 618.59 -2417.95 0 0 859.65 2417.95 0 0 1366.37 -3745.97 0z"/>
  </g>
  <path class="fil4" d="M14774.64 6419.99l776.1 14.96c-12.87,-1196.43 -195.82,-1811.92 362.8,-1833.59 632.2,-24.64 446.18,669.28 430.89,1826.88l756.85 -44.11c16.5,-1881.22 261.37,-2503.75 -1092.81,-2525.75 -1505.66,-24.53 -1243.95,498.99 -1233.83,2561.61z"/>
  <path class="fil4" d="M12423.91 6413.17l928.46 5.5c205.49,-466.54 936.92,-2129.4 981.14,-2546.43l-751.78 1.43 -665.65 1691.57c-307.47,-386.45 -543.76,-1203.36 -709.43,-1703.56l-759.71 9.57c61.28,523.52 747.39,1967.47 976.97,2541.92z"/>
  <path class="fil5" d="M13352.37 6418.67l-928.46 -5.5c169.52,651.79 37.73,1385.31 96.04,2058.99l742.76 39.16 89.66 -2092.65z"/>
  <path class="fil5" d="M76.78 8503.73l2031.16 14.96 22.44 -656.08 -1279.81 -39.6c-340.14,-1074.1 495.58,-1433.16 -725.27,-1386.74l-48.52 2067.46z"/>
  <path class="fil5" d="M6448.69 7059.43l-171.83 -619.64 -647.28 -8.8c348.28,2356.12 431.01,2121.81 1145.17,2076.04l468.52 -2068.01 -615.82 -14.63 -178.76 635.04z"/>
  <path class="fil5" d="M8079.76 8508.02l1937.98 11 49.83 -667.3 -1369.69 -28.6 -42.68 -1032.3 1004.91 -14.3 59.62 -314.73 -1708.95 17.71c-31.24,572.37 -105.61,1506.76 68.98,2028.52z"/>
  <path class="fil5" d="M2773.7 8015.96c72.94,501.41 390.41,502.51 936.93,510.32 594.14,8.47 902.71,22.56 1042.2,-503.72l5.39 -1557.69 -573.13 13.53 -11.23 1025.37c-56.7,513.55 -785.77,478.96 -837.03,-0.11l-19.48 -1007 -565.76 19.04 22.11 1500.26z"/>
  <path class="fil5" d="M17101.28 6384.13l-756.85 44.11c9.68,586.56 209.9,1367.71 -430.56,1352.97 -426.28,-9.9 -364.34,-153.9 -368.52,-546.84 -2.75,-263.25 10.45,-531.33 5.39,-799.42l-776.1 -14.96c-7.59,396.79 -47.08,1176.63 34.98,1535.47 121.45,530.89 493.82,574.12 1101.5,573.13 1502.36,-2.31 1217.33,-785 1190.16,-2144.46z"/>
  <path class="fil5" d="M19989.72 6440.78l-537.6 -9.57c-89.55,104.95 -65.35,70.4 -149.61,213.96 -12.21,20.79 -44.56,121.78 -56.99,150.16l-43.67 896.77c-976.09,315.94 -734.73,-531.22 -733.52,-1266.94l-790.62 -84.04c2.53,1206.11 -327.16,2152.27 1026.25,2185.6 557.74,13.64 1044.84,29.49 1228.88,-451.9 122,-318.8 68.54,-1233.18 56.88,-1634.04z"/>
  <path class="fil4" d="M7955.78 5954.99l1344.17 2.31c193.39,-434.63 837.81,-1660.43 916.9,-2075.16l-698.98 -3.85c-311.76,517.8 -483.37,1241.31 -852.77,1593.88l-5.39 -1589.48 -682.92 -17.16 -21.01 2089.46z"/>
  <path class="fil4" d="M76.23 5957.63l1767.81 -27.94 23.21 -330.9c-339.04,9.9 -704.04,21.34 -1040.33,15.4l-0.11 -1054.74 1331.63 -7.26 0.88 -678.3 -2076.49 -7.37 -6.6 2091.11z"/>
  <path class="fil4" d="M5358.96 5944.98l634.52 20.13c190.64,-830.33 -330.24,-1526.45 642.77,-1383.77 168.97,294.16 112.21,316.49 128.49,685.23l648.49 -7.7c40.59,-471.27 -18.49,-884.89 -131.79,-1237.35 -1859,-646.84 -2158.77,185.14 -1922.48,1923.46z"/>
  <path class="fil6" d="M15550.74 6434.95c5.06,268.09 -8.14,536.17 -5.39,799.42 4.18,392.94 -57.76,536.94 368.52,546.84 640.46,14.74 440.24,-766.41 430.56,-1352.97 15.29,-1157.6 201.31,-1851.52 -430.89,-1826.88 -558.62,21.67 -375.67,637.16 -362.8,1833.59z"/>
  <polygon class="fil4" points="17677.71,6341.12 18468.33,6425.16 18460.52,3871.25 17718.96,3882.36 "/>
  <path class="fil4" d="M19245.52 6795.33c12.43,-28.38 44.78,-129.37 56.99,-150.16 84.26,-143.56 60.06,-109.01 149.61,-213.96l537.6 9.57 -1.65 -2536.75 -711.85 -39.49 -30.7 2930.79z"/>
  <path class="fil4" d="M3314.82 3877.41l-492.5 0.55c-289.64,178.54 -148.39,1924.56 -106.48,2111.9l677.31 -10.45c28.05,-114.18 160.17,-1845.79 -78.33,-2102zm887.43 -4.18c-259.51,191.85 -149.28,1831.39 -67,2092.32l650.47 20.57c72.93,-383.37 147.41,-1872.42 -99.45,-2102.22l-484.02 -10.67z"/>
 </g>
</svg>
