<?xml version="1.0" encoding="UTF-8"?>
<!DOCTYPE svg PUBLIC "-//W3C//DTD SVG 1.1//EN" "http://www.w3.org/Graphics/SVG/1.1/DTD/svg11.dtd">
<!-- Creator: CorelDRAW 2017 -->
<svg xmlns="http://www.w3.org/2000/svg" xml:space="preserve" width="200mm" height="200mm" version="1.1" style="shape-rendering:geometricPrecision; text-rendering:geometricPrecision; image-rendering:optimizeQuality; fill-rule:evenodd; clip-rule:evenodd"
viewBox="0 0 20000 20000"
 xmlns:xlink="http://www.w3.org/1999/xlink">
 <defs>
  <style type="text/css">
   <![CDATA[
    .str0 {stroke:#373435;stroke-width:20;stroke-miterlimit:22.9256}
    .fil0 {fill:none}
    .fil2 {fill:#FFF212}
    .fil1 {fill:#3E4095}
    .fil4 {fill:#080808}
    .fil3 {fill:#090909}
   ]]>
  </style>
 </defs>
 <g id="Capa_x0020_1">
  <metadata id="CorelCorpID_0Corel-Layer"/>
  <rect class="fil0" width="20000" height="20000"/>
  <path class="fil1 str0" d="M18295.43 9456.79l-377.44 -38.73c-455.12,906.12 803.61,980.85 377.44,38.73z"/>
  <path class="fil1 str0" d="M7205.84 9648.03l301.45 -22.31 90.31 -454.8c220.61,130.41 336.49,267.24 550.68,429.43l203.45 -83.57c-181.03,-209.35 -380.91,-387.22 -508.16,-598.36 935.7,-73.05 540.37,-13.47 662.99,-221.88l-663.62 -55.67c389.96,-643.21 165.67,-388.07 127.04,-488.48 -231.24,106.3 -193.98,45.04 -361.96,433.74l-350.92 -334.17c-109.15,197.77 -260.18,-407.97 68.94,559.73l-498.37 246.19c248.19,243.34 180.61,143.25 515.21,54.52l-137.04 535.63z"/>
  <path class="fil1 str0" d="M9989.16 5473.38c608.15,-48.1 1254.41,234.5 1754.46,469.53 254.4,119.57 459.12,259.13 674.26,390.6 436.69,266.71 893.18,672.98 1170.83,1060 331.76,462.59 1115.27,1530.17 1131.05,2021.39l304.82 656.99 288.71 0.63c-180.72,-505.43 -276.61,-773.61 -512.8,-1219.89 -201.24,-380.27 -486.37,-757.29 -558.15,-1101.15 -356.29,-285.45 -485.33,-661.63 -912.97,-1067.9 251.03,-658.99 833.08,-1158.84 1143.89,-1516.81 394.6,-454.37 1023.8,-886.12 1690.58,-850.65l92.3 2126.95c572.27,233.77 1128.21,636.68 1394.93,1101.79 163.45,72 80.83,-7.89 251.45,168.94 99.14,102.83 72.83,94.62 113.67,176.51 277.66,233.24 356.28,383.96 507.21,715.51 390.18,856.86 596.05,1870.77 194.3,2765.73 -263.13,586.58 -547.32,872.66 -1053.27,1174.31 -404.49,241.24 -1056.84,540.8 -1622.58,499.54l-36.21 -1285.88c-50.2,-306.6 -24,-139.78 -104.41,-263.98 -155.67,149.88 -121.36,-253.34 -148.3,349.55 -45.15,1010.01 195.14,760.87 -274.19,2441.98 -191.24,685.09 -571.63,1849.72 -573.63,2555.55 232.93,341.23 452.59,302.81 348.39,892.65 -406.59,379.96 -999.17,372.7 -1352.08,-141.36 -272.39,-396.91 -301.23,-1068.95 -332.6,-1661.95 265.45,-108.09 773.61,-606.57 991.27,-874.44 201.25,-247.76 649.1,-870.97 449.96,-1243.14 -319.97,183.45 -515.21,1635.42 -2243.26,2271.46 125.46,-481.84 1115.37,-3164.01 371.86,-3893.21 -127.88,189.35 -87.25,-194.61 -92.62,271.77 0,1.05 52.31,253.76 58.31,291.65 187.98,1175.05 -335.02,2775.22 -867.39,3722.49 -593.32,1055.59 -1277.25,2966.25 -2752.37,2085.18 -137.78,-1033.59 706.24,-1664.06 860.76,-4117.83 27.99,-445.53 65.99,-233.87 -147.46,-339.86 -165.46,251.03 -136.1,646.78 -167.04,953.81l-100.31 375.75c-812.55,169.77 -1823.4,90.31 -2634.06,-52.73 -1096.11,-193.46 -1208.42,-452.91 -1910.77,-873.08l-65.68 322.6c216.09,93.26 625.31,343.97 822.45,523.64 75.99,690.46 256.82,1080.63 458.38,1698.26 597.31,1830.56 -607,1915.82 -1513.33,711.09 -875.18,-1163.36 -1328.3,-2810.26 -1483.23,-4309.59 -61.05,-951.18 -56.52,-1654.16 94.73,-2578.71 83.57,-510.37 350.07,-1604.69 626.78,-1876.98 278.82,-828.97 1157.36,-1976.97 1683.74,-2348.19 580.36,104.83 860.97,212.29 1514.48,206.08 306.08,-26.21 719.73,-149.77 888.24,-205.66 -66.31,-147.67 1.05,-135.78 -95.68,-208.83 -3893.11,845.29 -3485.35,-2267.57 -3701.97,-3090.23 -228.71,-868.65 -1168.1,-1502.59 -2167.37,-1035.27 -938.75,439.12 -801.29,1235.46 -856.44,1855.93 -28,315.13 -58.42,463.96 -214.19,570.16 -1223.36,483 -1256.31,-2161.48 -191.67,-3064.56 1057.27,-896.75 2275.78,-1224.09 3553.56,-315.86 1670.58,1187.26 148.4,4669.03 3134.86,4159.61 358.91,-61.26 1929.82,-355.02 2115.8,-49.89z"/>
  <path class="fil1 str0" d="M15701.36 9000.09c-5.16,-519.31 37.36,-564.99 -512.59,-538.47 -74.52,292.29 -132.41,334.81 -46.1,672.88 460.59,107.26 331.55,16 558.69,-134.41z"/>
  <path class="fil1 str0" d="M16451.18 10125.15c211.66,353.86 486.8,608.46 925.17,349.86l-23.89 -463.85c-388.49,-105.05 -288.18,-241.24 -820.55,-112.2l-80.73 226.19z"/>
  <path class="fil2 str0" d="M9555.31 15771.03l311.12 -27.26 -55.57 253.14c-16.1,440.8 -232.82,872.23 -375.96,1238.09 -113.89,402.17 -365.76,985.27 -157.67,1420.29 164.82,344.59 755.71,455.64 1256.19,376.17 1107.69,-446.17 1417.03,-1615.95 1891.4,-2369.35 252.3,-400.6 484.8,-313.13 869.39,-508.69l222.3 1312.5c304.71,242.4 265.13,740.15 966.75,796.56 584.37,47.05 840.55,-267.24 1070.32,-618.26 -23.68,-480.79 -178.4,-643.94 -396.38,-890.75 40.1,-891.5 629.31,-2524.19 855.6,-3453.68 780.24,2.42 1000.33,-223.77 1637.63,-384.49 107.05,-134.83 221.67,-167.03 424.07,-315.76 176.4,-129.56 205.56,-196.08 411.01,-369.33 263.77,103.25 247.24,107.57 379.34,357.02l511.84 241.03c107.36,-59.47 120.94,-7.79 209.25,-80.84 -300.4,-301.34 -670.15,-516.47 -897.71,-810.45 222.82,-228.08 360.28,-60.83 636.26,58.74 767.19,332.28 528.37,182.72 636.57,108.2 -135.25,-297.13 -415.75,-266.61 -991.7,-553.32 116.31,-824.97 346.5,-983.28 143.36,-2008.86 -151.88,-766.98 -403.65,-1119.9 -723.93,-1699.63 -80.94,-984.22 576.89,-1821.41 307.44,-2701.22 -871.5,-257.34 -1568.06,543.95 -2222,643.94 -7.16,-593.84 53.05,-1328.3 -248.4,-1744.99l-707.62 20.21c-161.03,183.77 -514.05,333.44 -754.56,506.26 -815.5,585.95 -1403.23,1622.69 -1731.41,1914.77 -560.37,-518.58 -683.41,-387.75 -940.12,-733.72 -296.92,-20.95 -1000.96,-363.75 -1468.18,-477.53 -578.79,-140.94 -1191.04,-105.47 -1780.04,-219.88 -253.03,162.72 -814.77,197.98 -1186.42,256.71 -603.73,95.57 -667.62,46.11 -1077.58,-204.71 -232.29,-233.77 -114.3,-20.95 -161.67,-328.6 -137.67,-105.78 -133.46,-57.26 -240.82,-308.39l-262.81 -1253.99c-87.26,-833.29 -108.1,-902.13 -523.32,-1519.02 -603,-896.02 -1770.68,-1323.45 -2898.89,-1017.9 -3032.02,821.19 -2967.93,4840.38 -904.12,4324.75 517.11,-1000.85 -75.68,-1857.82 939.38,-2426.19 963.91,-539.85 1794.57,280.08 1888.56,1169.78 124.83,581.53 45.16,1173.58 302.18,1736.68 246.72,540.69 543.32,754.45 998.54,1015.38 -166.19,241.13 -335.76,335.54 -544.79,599.52 -2181.48,2757 -2412.61,6572.22 -996.33,9625.51 377.23,813.19 1247.99,2378.09 2308.42,2043.17 1190.52,-528.26 90.41,-2146.32 -29.89,-3147.49 23.89,-190.82 -28.21,-138.09 174.93,-136.72 802.03,286.81 2010.44,317.13 2926.04,292.6z"/>
  <g id="_2384928937728">
   <path class="fil3" d="M7205.84 9648.03l301.45 -22.31 90.31 -454.8c220.61,130.41 336.49,267.24 550.68,429.43l203.45 -83.57c-181.03,-209.35 -380.91,-387.22 -508.16,-598.36 935.7,-73.05 540.37,-13.47 662.99,-221.88l-663.62 -55.67c389.96,-643.21 165.67,-388.07 127.04,-488.48 -231.24,106.3 -193.98,45.04 -361.96,433.74l-350.92 -334.17c-109.15,197.77 -260.18,-407.97 68.94,559.73l-498.37 246.19c248.19,243.34 180.61,143.25 515.21,54.52l-137.04 535.63z"/>
   <path class="fil3" d="M18295.43 9456.79l-377.44 -38.73c-455.12,906.12 803.61,980.85 377.44,38.73z"/>
  </g>
  <path class="fil4" d="M16514.86 6148.89c469.43,-330.49 1355.24,-769.61 1992.02,-820.03 37.57,475.85 -64.21,781.61 -176.72,1198.21l-198.82 787.29c-56.31,151.99 -57.58,111.88 -116.1,192.19 -765.19,-962.64 -1304.09,-980.64 -1500.38,-1357.66zm-6959.55 9622.14l311.12 -27.26 -55.57 253.14c-16.1,440.8 -232.82,872.23 -375.96,1238.09 -113.89,402.17 -365.76,985.27 -157.67,1420.29 164.82,344.59 755.71,455.64 1256.19,376.17 1107.69,-446.17 1417.03,-1615.95 1891.4,-2369.35 252.3,-400.6 484.8,-313.13 869.39,-508.69l222.3 1312.5c304.71,242.4 265.13,740.15 966.75,796.56 584.37,47.05 840.55,-267.24 1070.32,-618.26 -23.68,-480.79 -178.4,-643.94 -396.38,-890.75 40.1,-891.5 629.31,-2524.19 855.6,-3453.68 780.24,2.42 1000.33,-223.77 1637.63,-384.49 107.05,-134.83 221.67,-167.03 424.07,-315.76 176.4,-129.56 205.56,-196.08 411.01,-369.33 263.77,103.25 247.24,107.57 379.34,357.02l511.84 241.03c107.36,-59.47 120.94,-7.79 209.25,-80.84 -300.4,-301.34 -670.15,-516.47 -897.71,-810.45 222.82,-228.08 360.28,-60.83 636.26,58.74 767.19,332.28 528.37,182.72 636.57,108.2 -135.25,-297.13 -415.75,-266.61 -991.7,-553.32 116.31,-824.97 346.5,-983.28 143.36,-2008.86 -151.88,-766.98 -403.65,-1119.9 -723.93,-1699.63 -80.94,-984.22 576.89,-1821.41 307.44,-2701.22 -871.5,-257.34 -1568.06,543.95 -2222,643.94 -7.16,-593.84 53.05,-1328.3 -248.4,-1744.99l-707.62 20.21c-161.03,183.77 -514.05,333.44 -754.56,506.26 -815.5,585.95 -1403.23,1622.69 -1731.41,1914.77 -560.37,-518.58 -683.41,-387.75 -940.12,-733.72 -296.92,-20.95 -1000.96,-363.75 -1468.18,-477.53 -578.79,-140.94 -1191.04,-105.47 -1780.04,-219.88 -253.03,162.72 -814.77,197.98 -1186.42,256.71 -603.73,95.57 -667.62,46.11 -1077.58,-204.71 -232.29,-233.77 -114.3,-20.95 -161.67,-328.6 -137.67,-105.78 -133.46,-57.26 -240.82,-308.39l-262.81 -1253.99c-87.26,-833.29 -108.1,-902.13 -523.32,-1519.02 -603,-896.02 -1770.68,-1323.45 -2898.89,-1017.9 -3032.02,821.19 -2967.93,4840.38 -904.12,4324.75 517.11,-1000.85 -75.68,-1857.82 939.38,-2426.19 963.91,-539.85 1794.57,280.08 1888.56,1169.78 124.83,581.53 45.16,1173.58 302.18,1736.68 246.72,540.69 543.32,754.45 998.54,1015.38 -166.19,241.13 -335.76,335.54 -544.79,599.52 -2181.48,2757 -2412.61,6572.22 -996.33,9625.51 377.23,813.19 1247.99,2378.09 2308.42,2043.17 1190.52,-528.26 90.41,-2146.32 -29.89,-3147.49 23.89,-190.82 -28.21,-138.09 174.93,-136.72 802.03,286.81 2010.44,317.13 2926.04,292.6zm6895.87 -5645.88c211.66,353.86 486.8,608.46 925.17,349.86l-23.89 -463.85c-388.49,-105.05 -288.18,-241.24 -820.55,-112.2l-80.73 226.19zm-749.82 -1125.06c-5.16,-519.31 37.36,-564.99 -512.59,-538.47 -74.52,292.29 -132.41,334.81 -46.1,672.88 460.59,107.26 331.55,16 558.69,-134.41zm-5712.2 -3526.71c608.15,-48.1 1254.41,234.5 1754.46,469.53 254.4,119.57 459.12,259.13 674.26,390.6 436.69,266.71 893.18,672.98 1170.83,1060 331.76,462.59 1115.27,1530.17 1131.05,2021.39l304.82 656.99 288.71 0.63c-180.72,-505.43 -276.61,-773.61 -512.8,-1219.89 -201.24,-380.27 -486.37,-757.29 -558.15,-1101.15 -356.29,-285.45 -485.33,-661.63 -912.97,-1067.9 251.03,-658.99 833.08,-1158.84 1143.89,-1516.81 394.6,-454.37 1023.8,-886.12 1690.58,-850.65l92.3 2126.95c572.27,233.77 1128.21,636.68 1394.93,1101.79 163.45,72 80.83,-7.89 251.45,168.94 99.14,102.83 72.83,94.62 113.67,176.51 277.66,233.24 356.28,383.96 507.21,715.51 390.18,856.86 596.05,1870.77 194.3,2765.73 -263.13,586.58 -547.32,872.66 -1053.27,1174.31 -404.49,241.24 -1056.84,540.8 -1622.58,499.54l-36.21 -1285.88c-50.2,-306.6 -24,-139.78 -104.41,-263.98 -155.67,149.88 -121.36,-253.34 -148.3,349.55 -45.15,1010.01 195.14,760.87 -274.19,2441.98 -191.24,685.09 -571.63,1849.72 -573.63,2555.55 232.93,341.23 452.59,302.81 348.39,892.65 -406.59,379.96 -999.17,372.7 -1352.08,-141.36 -272.39,-396.91 -301.23,-1068.95 -332.6,-1661.95 265.45,-108.09 773.61,-606.57 991.27,-874.44 201.25,-247.76 649.1,-870.97 449.96,-1243.14 -319.97,183.45 -515.21,1635.42 -2243.26,2271.46 125.46,-481.84 1115.37,-3164.01 371.86,-3893.21 -127.88,189.35 -87.25,-194.61 -92.62,271.77 0,1.05 52.31,253.76 58.31,291.65 187.98,1175.05 -335.02,2775.22 -867.39,3722.49 -593.32,1055.59 -1277.25,2966.25 -2752.37,2085.18 -137.78,-1033.59 706.24,-1664.06 860.76,-4117.83 27.99,-445.53 65.99,-233.87 -147.46,-339.86 -165.46,251.03 -136.1,646.78 -167.04,953.81l-100.31 375.75c-812.55,169.77 -1823.4,90.31 -2634.06,-52.73 -1096.11,-193.46 -1208.42,-452.91 -1910.77,-873.08l-65.68 322.6c216.09,93.26 625.31,343.97 822.45,523.64 75.99,690.46 256.82,1080.63 458.38,1698.26 597.31,1830.56 -607,1915.82 -1513.33,711.09 -875.18,-1163.36 -1328.3,-2810.26 -1483.23,-4309.59 -61.05,-951.18 -56.52,-1654.16 94.73,-2578.71 83.57,-510.37 350.07,-1604.69 626.78,-1876.98 278.82,-828.97 1157.36,-1976.97 1683.74,-2348.19 580.36,104.83 860.97,212.29 1514.48,206.08 306.08,-26.21 719.73,-149.77 888.24,-205.66 -66.31,-147.67 1.05,-135.78 -95.68,-208.83 -3893.11,845.29 -3485.35,-2267.57 -3701.97,-3090.23 -228.71,-868.65 -1168.1,-1502.59 -2167.37,-1035.27 -938.75,439.12 -801.29,1235.46 -856.44,1855.93 -28,315.13 -58.42,463.96 -214.19,570.16 -1223.36,483 -1256.31,-2161.48 -191.67,-3064.56 1057.27,-896.75 2275.78,-1224.09 3553.56,-315.86 1670.58,1187.26 148.4,4669.03 3134.86,4159.61 358.91,-61.26 1929.82,-355.02 2115.8,-49.89z"/>
 </g>
</svg>
