<?xml version="1.0" encoding="UTF-8"?>
<!DOCTYPE svg PUBLIC "-//W3C//DTD SVG 1.1//EN" "http://www.w3.org/Graphics/SVG/1.1/DTD/svg11.dtd">
<!-- Creator: CorelDRAW 2017 -->
<svg xmlns="http://www.w3.org/2000/svg" xml:space="preserve" width="200mm" height="200mm" version="1.1" style="shape-rendering:geometricPrecision; text-rendering:geometricPrecision; image-rendering:optimizeQuality; fill-rule:evenodd; clip-rule:evenodd"
viewBox="0 0 20000 20000"
 xmlns:xlink="http://www.w3.org/1999/xlink">
 <defs>
  <style type="text/css">
   <![CDATA[
    .str0 {stroke:#373435;stroke-width:20;stroke-miterlimit:22.9256}
    .fil0 {fill:#343D76}
    .fil1 {fill:#EA8337}
    .fil3 {fill:#ED4C3A}
    .fil2 {fill:#F2D22F}
   ]]>
  </style>
 </defs>
 <g id="Capa_x0020_1">
  <metadata id="CorelCorpID_0Corel-Layer"/>
  <rect class="fil0 str0" x="-0" y="3856.22" width="20000" height="12287.57"/>
  <path class="fil1" d="M5681.84 6162.85c290.94,-79.5 6741.27,-50.58 7571.48,-37.76 1016.58,15.69 1016.8,1063.72 277.25,1234.35 -271.18,62.56 -6847.22,52.3 -7579.81,25.36 -971.61,-35.74 -1077.33,-1001.07 -268.92,-1221.95zm52.16 -164.16c-938.49,166.53 -971.84,1206.21 -181.82,1478.54 314.82,108.52 4649.41,55.48 5347.87,56.16 552.56,0.53 2251.43,69.1 2676.67,-32.8 828.81,-198.6 814.11,-1214.88 82.06,-1467.62 -332.83,-114.92 -4602.3,-57.84 -5305.66,-57.84 -650.12,0 -2072.98,-73.37 -2619.12,23.56z"/>
  <path class="fil1" d="M10659.51 11526.72c-120.36,140.02 -347.29,295.52 -36.74,483.01 559.32,337.65 2399.08,-950.85 3754.77,-897.66 2210.49,86.72 2064.22,2428.05 -412.48,1610.54l53.46 -61.56c126.82,-119.43 240.59,-123.4 292.92,-267.89 69.4,-191.63 -27.73,-379.71 -128.05,-467.94 -552.87,-486.33 -2339.1,278.04 -2946.13,489.38 -624.22,217.31 -1656.27,236.33 -1936.34,-260.15 -297.18,-526.82 314.05,-1098.75 1358.59,-627.73zm-5888.25 -2441.28c-186.85,406.66 -1045.72,780.28 -1595.2,474.04 -964.11,-537.31 -230.54,-2464.4 1673.83,-1912.95 300.28,86.96 531.41,196.88 826.76,298.16 494.6,169.62 553.67,64.62 1010.34,111.17 7.81,144.06 -325.75,1546.6 -48.13,1953.07 225.9,1.59 199.61,-68.88 308.04,-274.17 80.14,-151.75 134.41,-229.26 224.88,-363.09 366.76,-542.54 1201.39,-1521.21 1964.95,-1498.73 18.12,243.92 -232.26,594.02 -339.36,824.52 -311.52,670.32 -911.33,2600.76 178.04,2274.47 188.28,783.41 -1372.69,1833.69 -1580.52,695.38 -125.28,-686.08 151.83,-1433.31 446.07,-2018.56 84.92,-168.91 240.19,-351.38 201.47,-543.65 -175.74,-38.47 -90.77,-55.24 -227.8,25.52l-402.07 485.17c-299.15,477.16 -967.35,2042.57 -1333.72,1993.07 -41.96,-378.86 70.54,-777.27 50.44,-1179.14l-25.7 -1298.67c-224.02,-7.12 -181.81,-34.28 -274.07,175.26 -249.44,566.51 -451.89,1722.94 -704.28,2234.48 -1054.91,2138.01 -4146.31,1597.5 -3663.98,-287.29 258.86,-1011.59 1615.04,-1318.75 2089.57,-1041.54 -81.84,206.69 -283.84,196.16 -226.11,523.29 54.38,308.25 727.21,797.53 1399.19,-186.42 190.18,-278.48 359.02,-667.09 512.7,-1005.08 212.97,-468.41 499.56,-847.51 523.84,-1010.19 -418.95,-248.27 -1540.47,-372.27 -1289.17,484.1l299.99 67.78zm3120.35 169.36c-210.74,466.54 -450.14,850.44 -582.29,1433.99 -122.37,540.39 -134.17,1377.29 335.49,1555.97 980.44,372.97 1855.33,-1321.54 1347.29,-1386.72 -256.59,-32.92 -456.82,183.6 -499.97,-398.37 -76.67,-1034.24 588.51,-1910.8 751.39,-2348.73 250.32,-672.95 -1159.27,-572.31 -2525.75,1731.63 -144.06,-1334.32 195.2,-1490.18 66.03,-1879.87 -266.8,-93.16 -633.86,14.24 -1081.84,-143.51 -333.8,-117.54 -599.02,-242.31 -942.81,-329.4 -826.56,-209.41 -1507.54,90.84 -1872,538.52 -501.95,616.56 -232.24,1431.71 326.34,1687.42 632.99,289.75 1682.51,-217.84 1707.09,-728.24 -206.86,-133.87 -287.95,56.19 -360.89,-166.12 -40.88,-124.63 66.08,-241.12 155.64,-287.41 260.27,-134.49 647.06,3.46 898.01,57.51 -79.67,170.95 -178.77,264.18 -284.22,457.4 -327.52,600.15 -754.25,2094.92 -1562.9,1935.23 -192.31,-37.97 -349.22,-159.08 -312.5,-370.5 49.72,-286.2 231.19,-97.2 233.86,-449.4 -124.39,-319.64 -1856.65,-267.09 -2294,876.03 -780.61,2040.25 2353.59,2813.97 3630.89,936.98 430.02,-631.91 548.82,-1515.39 787.85,-2245.65l145.56 -273.78c8.23,385.11 50.43,770.98 45.11,1147.49 -5.69,403.91 -237.58,1074.34 107.46,1128.49 82.37,12.93 16.65,22.24 122.58,-4.44 166.33,-41.9 300.53,-302.31 396.19,-449.35 430.71,-662.12 776.41,-1622.21 1262.39,-2025.17zm3602.96 642.74c-84.35,346.82 -595.98,645.6 -964.3,772.76 -466.35,161 -1036.43,76.22 -1321.04,-188.42 -505.9,-470.41 -295.63,-1652.25 810.19,-2029.51 1366.48,-466.18 1948.89,731.08 714.06,1151.45 -143.14,48.74 -704.24,131.36 -732.97,149.84 -209.06,134.53 -20.93,444.45 176.4,503.26 536.97,160.07 909.77,-251.35 1317.66,-359.38zm-1444.34 20.56c244.15,-192.26 820.08,-41.54 1290.73,-538.4 413.92,-436.98 142.27,-970.04 -359.45,-1112.67 -1014.82,-288.5 -2091.4,573.22 -2161.03,1403.95 -103.86,1239.26 1279.76,1450.92 2172.66,927.72 795.34,-466.04 717.57,-916.74 343.26,-789.06 -283.31,96.63 -1090.14,699.16 -1286.17,108.46zm3876.42 -1420.4c65.39,540.66 -398.44,376.38 -889.21,384.23 -446.5,1554.2 -432.45,1785.31 545.15,1620.42 -126.63,389.38 -1194.71,740.35 -1616.09,307.58 -332.66,-341.64 155.34,-1328.2 232.47,-1822.44 -107.64,-139 -32.05,-32.12 -121.36,-103.72l-116.45 -92.19c90.78,-271.33 1071.78,-1064.89 1355.44,-1050.66 -7.12,165.89 -192.08,537.2 -138.72,644.75 95.54,192.57 392.4,50.44 748.77,112.03zm-1871.09 538.77c-121.09,611.89 -644.24,1564.27 -70.38,1951.24 533.52,359.77 1828.49,-38.25 1732.11,-607.56 -398.45,-73.48 -1197.56,661.51 -582.22,-1363.11 359.37,-52.34 1114.15,163.88 910.49,-624.96l-744.96 -48.51c42.9,-267.46 187.79,-449.71 123.55,-701.69 -354.71,-113.52 -862.76,360.36 -1049.51,518.86 -149.61,126.96 -346.29,284.27 -438.55,395.26 -255.89,307.83 -36.54,338.51 119.47,480.47zm3814.17 1689.64c-466.81,-278.76 118.9,-1001.73 -40.95,-1461.29 -171.77,-211.88 -435.72,-205.2 -621.08,15.12 -149.35,177.52 -176,389.96 -232.05,651.61 -163.63,763.81 -86.57,778.86 -978.45,723.77 89.72,-901.2 953.56,-3754.6 737.54,-4151.19 1189.18,-647.03 981.54,15.04 875.23,530.35 -62.43,302.49 -118.61,597.56 -182.63,898.81 -85.26,401.16 -316.66,958.85 79.53,819.75 0.13,-0.05 916.25,-657.47 1262.51,-149.27 220.23,323.2 -277.94,1125.05 -112.75,1679.53 184,73.02 301.04,71.03 519.34,23.24 -175.05,295.82 -821.31,709.15 -1306.24,419.57zm-1326.15 -4224.34c234.99,233.82 107.94,379.17 -24.26,1013.9 -75.21,361.11 -154.39,730.54 -229.86,1088.35 -144.02,682.81 -378.85,1543.25 -453.57,2206.46 672.67,-31.85 1062.07,121.14 1198.52,-524.92 104.53,-494.94 116.14,-1134.15 671.05,-1008.58 138.71,532.66 -505.28,1346.29 199.59,1610.56 538.75,201.98 1485.16,-244.16 1396.43,-708.59 -278.28,-30.37 -335.48,148.76 -508.61,-32.91 -256.82,-295.46 379.49,-1191.9 88.09,-1602.83 -401.92,-566.78 -1120.51,-41.61 -1460.62,93.8 220.45,-1542.3 840.22,-2575.01 -61.64,-2499.87 -369.06,30.74 -604.13,209.77 -815.12,364.63zm-3934.61 5339.48c58.51,-306.02 91.14,-35.28 267.78,-257.87 -395.74,-482.1 -1502.88,-509.85 -1741.58,96.98 -284.79,724.06 705.01,1044.73 1370.9,1006.69 618.68,-35.36 1336.51,-369.45 1926.96,-552.14 435.12,-134.64 1856.65,-594.55 1751.05,232.15 -193.3,203.13 -263.14,81.75 -366.99,293.86 121.95,303 670.19,365.97 1050.91,377.62 1393.81,42.66 1691,-1511.93 160.84,-1954.91 -1695.58,-490.87 -3854.39,1254.85 -4419.87,757.62z"/>
  <path class="fil1" d="M10129.33 9233.9c71.51,-274.52 199.87,-500.32 517.38,-389.8 28.68,318.38 -199.01,395.44 -517.38,389.8zm-77.53 113.6c97.05,27.64 879.43,52.11 680.13,-627.2 -226.34,-43.51 -393.16,-69.23 -546.14,91.23 -28.33,29.72 -107.71,154.69 -133.09,215.2 -85.22,203.2 -58.31,224.15 -0.9,320.77z"/>
  <path class="fil2" d="M6590.29 6881.38c-209.51,313.18 -709.99,170.97 -643.2,-186.71 79.5,-425.59 593.66,-85.9 788.95,-149.67 -40.09,-138.74 -89.69,-194.91 -257.68,-241.6 -477.98,-132.83 -886.14,221.33 -728.17,632.34 171.69,446.7 1145.19,419.53 1083.46,-247.87 -189.07,-33.68 -385.7,-69.02 -525.83,46.58 79.18,192.51 99.45,65.22 282.47,146.93zm5148.12 -99.43c168.34,-76.23 134.4,-5.23 227.32,-145.45 -155.01,-184.82 -500.62,-64.6 -455.49,396.49 23.55,240.51 5.59,139.15 124.49,198.06 159.79,-106.73 97.66,-234.68 103.68,-449.1zm-4805.67 -478.59c-79.89,191.44 -49.05,727.38 -11,921.8l168.55 -3.07c46.93,-176.66 73.36,-738.47 -10.87,-931.67l-146.68 12.94zm2693.85 927.56c302.09,-172.01 -112.22,-455.93 293.87,-485.36 213.67,279.77 -121.82,443.57 259.79,478.47 169.93,-572.12 -244.39,-927.12 -638.82,-489.58 -29.92,204.17 -85.62,394.95 85.16,496.47zm-2363.82 -658.4c-138.12,82.69 -71.72,473.87 6.41,558.49 341.49,369.81 876.98,-196.04 545.18,-576.2 -388.08,74.48 130.69,479.59 -342.86,474.92 -96.52,-164.65 5.26,-585.33 -208.73,-457.21zm3795.35 63.98c28.01,-383.6 248.43,-4.19 372.69,-293.88 -196.6,-147.68 -397.64,-42.61 -546.16,26.45 -34.49,131.76 -49.69,296.93 -51.41,464.31 -0.22,22.46 3.89,237.64 5.58,245.24 50.27,225.43 -29.65,78.84 110.21,151.33 164.73,-89.29 109.24,-115.9 109.53,-339.53 244.73,-32.09 268.92,41.85 377.43,-106.99 -129.16,-180.27 -315.76,-54.99 -346.73,-131.05 -5.42,-13.29 -21.81,-8.91 -31.14,-15.88zm1155.72 359.81c0.33,-236.25 -33.05,-157.59 106.6,-254.13 112.51,166.15 -72.32,-10.58 -9.28,193.6 171.23,82.8 85.58,31.75 137.3,21.75 113.97,-22.03 216.66,-143.67 252.87,-272.06 -221.38,-242.89 -637.47,-134.22 -705.71,118.81 -70.71,262.17 159.38,442.93 421.84,433.19 195.09,-7.23 95.6,9.03 206.84,-62.21 -108.07,-267.04 125.79,32.18 -410.46,-178.95zm-3256.1 -30.11c-11.34,-209.05 -11.36,-191 176.49,-228.43 -114.14,141.86 -100.12,33.03 -78,223.65 130.56,11.61 147.61,-3.77 237.71,-66.59 132.98,-92.73 108.25,-50.49 151.48,-209.36 -273.4,-267.66 -740.55,-183.51 -699.87,358.77 161.89,120.46 361.98,309.58 627.9,131.02 -54.91,-155.62 15.6,-81.5 -188.9,-128.9 -135.15,-31.32 -139.11,-16.69 -226.81,-80.16zm4038.51 28.4c-7.06,-241.56 -39.93,-162.09 107.86,-249.74 62.88,95.84 17.84,-34.06 2.38,88.08 -9.85,77.67 -43.82,-63.43 -19.1,106.61 11.67,4.61 28.37,9.71 36.13,10.61 9.9,1.14 231.6,94.4 365.27,-275.79 -208.67,-177.89 -634.6,-174.43 -711.78,127.51 -89.8,351.31 332.18,557.87 627.49,373.38 -65.77,-172.3 105.34,-54.27 -189.47,-125.84 -129.79,-31.5 -58.59,21.17 -218.78,-54.82zm-4741.08 38.56c-93.61,-141.34 -64.06,-102.02 -57.68,-296.89 218.46,-4.35 356.76,57.55 458.05,-99.77 -152.26,-186.99 -248.43,-22.47 -400.37,-86.66 -92.53,-39.12 -19.79,-130.76 -246.17,-149.1 -300.52,848.05 496.43,1028.57 621.26,653.7l-18.88 -192.02c-375.78,-58.87 56.8,158.76 -356.21,170.74z"/>
  <path class="fil3" d="M6932.74 6303.36l146.68 -12.94c84.23,193.2 57.8,755.01 10.87,931.67l-168.55 3.07c-38.05,-194.42 -68.89,-730.36 11,-921.8zm538.76 726.37c473.55,4.67 -45.22,-400.44 342.86,-474.92 331.8,380.16 -203.69,946.01 -545.18,576.2 -78.13,-84.62 -144.53,-475.8 -6.41,-558.49 213.99,-128.12 112.21,292.56 208.73,457.21zm5524.75 -35.13c160.19,75.99 88.99,23.32 218.78,54.82 294.81,71.57 123.7,-46.46 189.47,125.84 -295.31,184.49 -717.29,-22.07 -627.49,-373.38 77.18,-301.94 503.11,-305.4 711.78,-127.51 -133.67,370.19 -355.37,276.93 -365.27,275.79 -7.76,-0.9 -24.46,-6 -36.13,-10.61 -24.72,-170.04 9.25,-28.94 19.1,-106.61 15.46,-122.14 60.5,7.76 -2.38,-88.08 -147.79,87.65 -114.92,8.18 -107.86,249.74zm-782.41 1.71c536.25,211.13 302.39,-88.09 410.46,178.95 -111.24,71.24 -11.75,54.98 -206.84,62.21 -262.46,9.74 -492.55,-171.02 -421.84,-433.19 68.24,-253.03 484.33,-361.7 705.71,-118.81 -36.21,128.39 -138.9,250.03 -252.87,272.06 -51.72,10 33.93,61.05 -137.3,-21.75 -63.04,-204.18 121.79,-27.45 9.28,-193.6 -139.65,96.54 -106.27,17.88 -106.6,254.13zm-2587.25 234.61c-170.78,-101.52 -115.08,-292.3 -85.16,-496.47 394.43,-437.54 808.75,-82.54 638.82,489.58 -381.61,-34.9 -46.12,-198.7 -259.79,-478.47 -406.09,29.43 8.22,313.35 -293.87,485.36zm-668.85 -264.72c87.7,63.47 91.66,48.84 226.81,80.16 204.5,47.4 133.99,-26.72 188.9,128.9 -265.92,178.56 -466.01,-10.56 -627.9,-131.02 -40.68,-542.28 426.47,-626.43 699.87,-358.77 -43.23,158.87 -18.5,116.63 -151.48,209.36 -90.1,62.82 -107.15,78.2 -237.71,66.59 -22.12,-190.62 -36.14,-81.79 78,-223.65 -187.85,37.43 -187.83,19.38 -176.49,228.43zm-702.57 66.96c413.01,-11.98 -19.57,-229.61 356.21,-170.74l18.88 192.02c-124.83,374.87 -921.78,194.35 -621.26,-653.7 226.38,18.34 153.64,109.98 246.17,149.1 151.94,64.19 248.11,-100.33 400.37,86.66 -101.29,157.32 -239.59,95.42 -458.05,99.77 -6.38,194.87 -35.93,155.55 57.68,296.89zm3483.24 -251.21c-6.02,214.42 56.11,342.37 -103.68,449.1 -118.9,-58.91 -100.94,42.45 -124.49,-198.06 -45.13,-461.09 300.48,-581.31 455.49,-396.49 -92.92,140.22 -58.98,69.22 -227.32,145.45zm-5148.12 99.43c-183.02,-81.71 -203.29,45.58 -282.47,-146.93 140.13,-115.6 336.76,-80.26 525.83,-46.58 61.73,667.4 -911.77,694.57 -1083.46,247.87 -157.97,-411.01 250.19,-765.17 728.17,-632.34 167.99,46.69 217.59,102.86 257.68,241.6 -195.29,63.77 -709.45,-275.92 -788.95,149.67 -66.79,357.68 433.69,499.89 643.2,186.71zm4467.83 -244.88c9.33,6.97 25.72,2.59 31.14,15.88 30.97,76.06 217.57,-49.22 346.73,131.05 -108.51,148.84 -132.7,74.9 -377.43,106.99 -0.29,223.63 55.2,250.24 -109.53,339.53 -139.86,-72.49 -59.94,74.1 -110.21,-151.33 -1.69,-7.6 -5.8,-222.78 -5.58,-245.24 1.72,-167.38 16.92,-332.55 51.41,-464.31 148.52,-69.06 349.56,-174.13 546.16,-26.45 -124.26,289.69 -344.68,-89.72 -372.69,293.88zm-5376.28 -473.65c-808.41,220.88 -702.69,1186.21 268.92,1221.95 732.59,26.94 7308.63,37.2 7579.81,-25.36 739.55,-170.63 739.33,-1218.66 -277.25,-1234.35 -830.21,-12.82 -7280.54,-41.74 -7571.48,37.76z"/>
  <path class="fil2" d="M14734.74 6504.13c216.02,396.59 -647.82,3249.99 -737.54,4151.19 891.88,55.09 814.82,40.04 978.45,-723.77 56.05,-261.65 82.7,-474.09 232.05,-651.61 185.36,-220.32 449.31,-227 621.08,-15.12 159.85,459.56 -425.86,1182.53 40.95,1461.29 484.93,289.58 1131.19,-123.75 1306.24,-419.57 -218.3,47.79 -335.34,49.78 -519.34,-23.24 -165.19,-554.48 332.98,-1356.33 112.75,-1679.53 -346.26,-508.2 -1262.38,149.22 -1262.51,149.27 -396.19,139.1 -164.79,-418.59 -79.53,-819.75 64.02,-301.25 120.2,-596.32 182.63,-898.81 106.31,-515.31 313.95,-1177.38 -875.23,-530.35zm-9963.48 2581.31l-299.99 -67.78c-251.3,-856.37 870.22,-732.37 1289.17,-484.1 -24.28,162.68 -310.87,541.78 -523.84,1010.19 -153.68,337.99 -322.52,726.6 -512.7,1005.08 -671.98,983.95 -1344.81,494.67 -1399.19,186.42 -57.73,-327.13 144.27,-316.6 226.11,-523.29 -474.53,-277.21 -1830.71,29.95 -2089.57,1041.54 -482.33,1884.79 2609.07,2425.3 3663.98,287.29 252.39,-511.54 454.84,-1667.97 704.28,-2234.48 92.26,-209.54 50.05,-182.38 274.07,-175.26l25.7 1298.67c20.1,401.87 -92.4,800.28 -50.44,1179.14 366.37,49.5 1034.57,-1515.91 1333.72,-1993.07l402.07 -485.17c137.03,-80.76 52.06,-63.99 227.8,-25.52 38.72,192.27 -116.55,374.74 -201.47,543.65 -294.24,585.25 -571.35,1332.48 -446.07,2018.56 207.83,1138.31 1768.8,88.03 1580.52,-695.38 -1089.37,326.29 -489.56,-1604.15 -178.04,-2274.47 107.1,-230.5 357.48,-580.6 339.36,-824.52 -763.56,-22.48 -1598.19,956.19 -1964.95,1498.73 -90.47,133.83 -144.74,211.34 -224.88,363.09 -108.43,205.29 -82.14,275.76 -308.04,274.17 -277.62,-406.47 55.94,-1809.01 48.13,-1953.07 -456.67,-46.55 -515.74,58.45 -1010.34,-111.17 -295.35,-101.28 -526.48,-211.2 -826.76,-298.16 -1904.37,-551.45 -2637.94,1375.64 -1673.83,1912.95 549.48,306.24 1408.35,-67.38 1595.2,-474.04zm5280.54 262.06c-57.41,-96.62 -84.32,-117.57 0.9,-320.77 25.38,-60.51 104.76,-185.48 133.09,-215.2 152.98,-160.46 319.8,-134.74 546.14,-91.23 199.3,679.31 -583.08,654.84 -680.13,627.2zm1442.77 550.04c-407.89,108.03 -780.69,519.45 -1317.66,359.38 -197.33,-58.81 -385.46,-368.73 -176.4,-503.26 28.73,-18.48 589.83,-101.1 732.97,-149.84 1234.83,-420.37 652.42,-1617.63 -714.06,-1151.45 -1105.82,377.26 -1316.09,1559.1 -810.19,2029.51 284.61,264.64 854.69,349.42 1321.04,188.42 368.32,-127.16 879.95,-425.94 964.3,-772.76zm-835.06 1629.18c-1044.54,-471.02 -1655.77,100.91 -1358.59,627.73 280.07,496.48 1312.12,477.46 1936.34,260.15 607.03,-211.34 2393.26,-975.71 2946.13,-489.38 100.32,88.23 197.45,276.31 128.05,467.94 -52.33,144.49 -166.1,148.46 -292.92,267.89l-53.46 61.56c2476.7,817.51 2622.97,-1523.82 412.48,-1610.54 -1355.69,-53.19 -3195.45,1235.31 -3754.77,897.66 -310.55,-187.49 -83.62,-342.99 36.74,-483.01zm3267.14 -3029.02c-356.37,-61.59 -653.23,80.54 -748.77,-112.03 -53.36,-107.55 131.6,-478.86 138.72,-644.75 -283.66,-14.23 -1264.66,779.33 -1355.44,1050.66l116.45 92.19c89.31,71.6 13.72,-35.28 121.36,103.72 -77.13,494.24 -565.13,1480.8 -232.47,1822.44 421.38,432.77 1489.46,81.8 1616.09,-307.58 -977.6,164.89 -991.65,-66.22 -545.15,-1620.42 490.77,-7.85 954.6,156.43 889.21,-384.23z"/>
 </g>
</svg>
