<?xml version="1.0" encoding="UTF-8"?>
<!DOCTYPE svg PUBLIC "-//W3C//DTD SVG 1.1//EN" "http://www.w3.org/Graphics/SVG/1.1/DTD/svg11.dtd">
<!-- Creator: CorelDRAW 2017 -->
<svg xmlns="http://www.w3.org/2000/svg" xml:space="preserve" width="215.9mm" height="279.4mm" version="1.1" style="shape-rendering:geometricPrecision; text-rendering:geometricPrecision; image-rendering:optimizeQuality; fill-rule:evenodd; clip-rule:evenodd"
viewBox="0 0 21590 27940"
 xmlns:xlink="http://www.w3.org/1999/xlink">
 <defs>
  <style type="text/css">
   <![CDATA[
    .str1 {stroke:#FBFBFB;stroke-width:484.44;stroke-linecap:round;stroke-linejoin:round;stroke-miterlimit:22.9256;stroke-opacity:0.501961}
    .str2 {stroke:#FEFEFE;stroke-width:615.01;stroke-linecap:round;stroke-linejoin:round;stroke-miterlimit:22.9256;stroke-opacity:0.501961}
    .str3 {stroke:#FEFEFE;stroke-width:322.44;stroke-linecap:round;stroke-linejoin:round;stroke-miterlimit:22.9256;stroke-opacity:0.501961}
    .str0 {stroke:#E3BCA3;stroke-width:20;stroke-miterlimit:22.9256}
    .fil1 {fill:none;fill-rule:nonzero}
    .fil6 {fill:#FEFEFE}
    .fil0 {fill:#EC268F}
    .fil4 {fill:black}
    .fil30 {fill:#010101}
    .fil7 {fill:#1A1A1A}
    .fil15 {fill:#212121}
    .fil10 {fill:#242424}
    .fil18 {fill:#2B2B2B}
    .fil8 {fill:#323030}
    .fil13 {fill:#383838}
    .fil22 {fill:#3B3B3B}
    .fil23 {fill:#444444}
    .fil25 {fill:#454545}
    .fil24 {fill:#5A5A5A}
    .fil27 {fill:#5E5E5E}
    .fil9 {fill:#6B6B6B}
    .fil19 {fill:#6D6D6D}
    .fil21 {fill:#DFDFDF}
    .fil28 {fill:#E1E1E1}
    .fil14 {fill:#EEEEEE}
    .fil11 {fill:#F1F1F1}
    .fil20 {fill:#F2F2F2}
    .fil26 {fill:whitesmoke}
    .fil12 {fill:#F8F8F8}
    .fil16 {fill:#FCFCFC}
    .fil17 {fill:#FDFDFD}
    .fil5 {fill:#FEFEFE}
    .fil29 {fill:#201E1E;fill-rule:nonzero}
    .fil31 {fill:#040302;fill-rule:nonzero}
    .fil3 {fill:#201E1E;fill-rule:nonzero;fill-opacity:0.501961}
    .fil2 {fill:#FBFBFB;fill-rule:nonzero;fill-opacity:0.501961}
   ]]>
  </style>
 </defs>
 <g id="Capa_x0020_1">
  <metadata id="CorelCorpID_0Corel-Layer"/>
  <polygon class="fil0 str0" points="795,3970 20795,3970 20795,23970 795,23970 "/>
  <g>
   <path class="fil1 str1" d="M2083.74 9862.37l-459.69 -1394.55 -378.05 124.62 -214.24 -649.93 378.05 -124.62c-68.35,-132.54 -114.61,-227.05 -139.99,-282.31 -25.36,-55.26 -44.55,-103.82 -57.79,-143.99 -85.6,-259.68 -73.13,-489.66 37.88,-690.88 111.03,-201.23 305.23,-347.96 582.14,-439.23 114.05,-37.6 228.31,-62.54 343.24,-75.77 115.66,-13.48 230.55,-14.76 346.12,-4.35l213.53 647.79c-57.23,-26.48 -118.82,-39.57 -185.94,-40.52 -66.87,-0.21 -139.04,12.44 -215.8,37.74 -132.01,43.51 -217.99,113.21 -257.71,209.82 -39.97,95.88 -34.42,221.3 16.42,375.53l53.92 163.56 675.75 -222.76 214.24 649.93 -546.64 180.19 459.69 1394.55 -865.13 285.18zm1949.71 -2173.66l12.54 38.02c91.51,277.62 169.3,446.03 233.83,504.29 64.06,59.21 147.61,71.43 249.48,37.85 119.08,-39.25 195.77,-115.43 231.5,-229.01 35.01,-113.34 25.45,-253.34 -29.41,-419.77l-476.72 -1446.2 865.13 -285.17 883.91 2681.49 -818.5 269.81 -113.51 -344.34 -65.37 -239.31c-13.94,244.78 -72.41,441.41 -175.85,590.82 -102.97,148.47 -255.24,255.93 -457.53,322.61 -247.49,81.59 -455.5,70.62 -622.83,-34.08 -167.33,-104.7 -299.7,-306.02 -397.36,-602.29l-613.16 -1860.12 865.14 -285.18 428.71 1300.58zm4101.42 -121.63c-55.67,147.19 -148.78,277.3 -279.56,389.6 -130.08,112.06 -290.64,199.19 -479.31,261.38 -360.11,118.71 -688.42,82.98 -983.98,-106.7 -295.55,-189.68 -516.14,-506.67 -662.04,-949.28 -147.79,-448.35 -157.99,-831.51 -30.81,-1150.19 127.41,-317.97 378.96,-539.28 756.28,-663.66 179.34,-59.11 350.45,-85.3 513.09,-79.26 162.65,6.03 308.22,44.73 437.21,115.15l272.17 825.68c-96.53,-61.23 -213.69,-98.17 -351.71,-109.13 -138.03,-10.97 -272.79,4.82 -403.34,47.86 -177.92,58.65 -296.71,154.26 -356.15,287.6 -59.68,132.59 -56.88,297.9 7.68,493.73 69.28,210.19 171.25,357.91 305.69,442.43 134.43,84.52 287.73,98.41 459.9,41.65 139.16,-45.87 254.06,-119.53 343.74,-221.46 89.9,-101.21 156.5,-232.13 198.59,-391.54l252.55 766.14zm794.72 -1206.79c48.55,125.55 94.73,246.34 136.86,362.08 42.12,115.75 81.16,229.34 117.57,339.81l136.68 414.63 -852.22 280.93 -1071.2 -3249.64 852.22 -280.93 380.48 1154.24c35.47,107.61 66.19,208.03 91.91,300.55 25.73,92.52 49.08,182.64 68.61,270.85l25.11 -8.27c-0.18,-89.81 14.09,-213.02 43.27,-368.18l3.9 -24.35 163.67 -951.06 981.35 -323.49 -452.78 1622.96 1362.52 1050.02 -1028.69 339.09 -574.32 -540.77c-60.01,-56.57 -119.04,-117.44 -177.1,-182.61 -58.31,-65.88 -118.01,-138.44 -179.13,-217.71l-28.71 11.85z"/>
   <path id="1" class="fil2" d="M2083.74 9862.37l-459.69 -1394.55 -378.05 124.62 -214.24 -649.93 378.05 -124.62c-68.35,-132.54 -114.61,-227.05 -139.99,-282.31 -25.36,-55.26 -44.55,-103.82 -57.79,-143.99 -85.6,-259.68 -73.13,-489.66 37.88,-690.88 111.03,-201.23 305.23,-347.96 582.14,-439.23 114.05,-37.6 228.31,-62.54 343.24,-75.77 115.66,-13.48 230.55,-14.76 346.12,-4.35l213.53 647.79c-57.23,-26.48 -118.82,-39.57 -185.94,-40.52 -66.87,-0.21 -139.04,12.44 -215.8,37.74 -132.01,43.51 -217.99,113.21 -257.71,209.82 -39.97,95.88 -34.42,221.3 16.42,375.53l53.92 163.56 675.75 -222.76 214.24 649.93 -546.64 180.19 459.69 1394.55 -865.13 285.18zm1949.71 -2173.66l12.54 38.02c91.51,277.62 169.3,446.03 233.83,504.29 64.06,59.21 147.61,71.43 249.48,37.85 119.08,-39.25 195.77,-115.43 231.5,-229.01 35.01,-113.34 25.45,-253.34 -29.41,-419.77l-476.72 -1446.2 865.13 -285.17 883.91 2681.49 -818.5 269.81 -113.51 -344.34 -65.37 -239.31c-13.94,244.78 -72.41,441.41 -175.85,590.82 -102.97,148.47 -255.24,255.93 -457.53,322.61 -247.49,81.59 -455.5,70.62 -622.83,-34.08 -167.33,-104.7 -299.7,-306.02 -397.36,-602.29l-613.16 -1860.12 865.14 -285.18 428.71 1300.58zm4101.42 -121.63c-55.67,147.19 -148.78,277.3 -279.56,389.6 -130.08,112.06 -290.64,199.19 -479.31,261.38 -360.11,118.71 -688.42,82.98 -983.98,-106.7 -295.55,-189.68 -516.14,-506.67 -662.04,-949.28 -147.79,-448.35 -157.99,-831.51 -30.81,-1150.19 127.41,-317.97 378.96,-539.28 756.28,-663.66 179.34,-59.11 350.45,-85.3 513.09,-79.26 162.65,6.03 308.22,44.73 437.21,115.15l272.17 825.68c-96.53,-61.23 -213.69,-98.17 -351.71,-109.13 -138.03,-10.97 -272.79,4.82 -403.34,47.86 -177.92,58.65 -296.71,154.26 -356.15,287.6 -59.68,132.59 -56.88,297.9 7.68,493.73 69.28,210.19 171.25,357.91 305.69,442.43 134.43,84.52 287.73,98.41 459.9,41.65 139.16,-45.87 254.06,-119.53 343.74,-221.46 89.9,-101.21 156.5,-232.13 198.59,-391.54l252.55 766.14zm794.72 -1206.79c48.55,125.55 94.73,246.34 136.86,362.08 42.12,115.75 81.16,229.34 117.57,339.81l136.68 414.63 -852.22 280.93 -1071.2 -3249.64 852.22 -280.93 380.48 1154.24c35.47,107.61 66.19,208.03 91.91,300.55 25.73,92.52 49.08,182.64 68.61,270.85l25.11 -8.27c-0.18,-89.81 14.09,-213.02 43.27,-368.18l3.9 -24.35 163.67 -951.06 981.35 -323.49 -452.78 1622.96 1362.52 1050.02 -1028.69 339.09 -574.32 -540.77c-60.01,-56.57 -119.04,-117.44 -177.1,-182.61 -58.31,-65.88 -118.01,-138.44 -179.13,-217.71l-28.71 11.85z"/>
  </g>
  <g>
   <path class="fil1 str2" d="M11355.66 21473.74c-81.48,-359.07 -159.43,-581.29 -232.51,-665 -74.22,-84.43 -178.54,-110.9 -313.2,-80.34 -154.29,35.01 -261.98,119.42 -322.33,252.09 -59.42,132.45 -66.57,300.25 -20.1,505.03l425.02 1872.99 -1127.71 255.91 -793.19 -3495.38 1066.95 -242.11 102.06 449.78 55.61 318.73c64.88,-329.35 168.71,-578.08 310.34,-746.88 140.69,-168.61 340.19,-281.72 598.27,-340.29 320.73,-72.78 581.55,-32.65 781.51,120.59 199.96,153.24 343.65,422.48 431.08,807.74l550 2423.76 -1127.72 255.9 -384.08 -1692.52zm3179.42 208.67c197.3,-44.77 331.39,-155.83 401.32,-332.95 70.87,-177.33 73.15,-409.9 7.58,-698.84 -65.14,-287.07 -162.87,-488.09 -294.33,-603.78 -130.73,-116.83 -300.72,-151.02 -509.25,-103.7 -202.91,46.05 -339.12,147.75 -409.76,304.39 -69.5,157.35 -73.74,372.66 -11.57,646.64 68.75,302.98 172.39,521.34 311.83,654.88 138.51,133.75 306.88,178.13 504.18,133.36zm-642.19 -2804c544.22,-123.49 987.74,-66.83 1329.41,169.3 341.68,236.12 578.78,648.37 712.25,1236.55 141.74,624.64 109.83,1138.25 -96.48,1541.98 -206.52,402.8 -570.2,663.3 -1092.92,781.91 -521.77,118.41 -961.63,43.2 -1318.85,-226.76 -357,-269.01 -605.49,-714.08 -746.38,-1334.99 -135.59,-597.51 -101.87,-1077.13 100.78,-1440.7 202.85,-362.64 573.57,-605.06 1112.19,-727.29zm5219 2614.94l-601.75 -1620.51c-69.17,-187.84 -131.84,-364.36 -187.8,-528.64 -55.24,-165.44 -106.61,-326.83 -154.33,-485.12l-24.31 5.52c29.56,190.92 53.13,368.46 71.65,532.38 17.58,164.15 30.45,298.88 36.75,404.63l113.59 1861.07 -1189.44 269.91 -1718.92 -3285.3 1081.89 -245.51 413.02 931.8c113.36,252.54 219.68,517.48 319.94,794.62 100.04,276.2 197.78,572.59 293.21,889.17l21.51 -4.88c-31.08,-206.31 -57.7,-414.61 -78.21,-626.27 -21.22,-210.51 -38.61,-425.83 -52.18,-645.95l-81.31 -1528.19 1274.53 -289.22 548.28 1480.23c11.59,33.76 31.8,88.16 60.85,164.16 145.73,399.56 249.96,728.89 312.91,988.93l28.04 -6.36c-32.22,-207.03 -57.4,-417.63 -73.95,-629.21 -17.69,-212.3 -26.89,-430.46 -28.72,-655.21l-24.53 -1529.27 1056.65 -239.78 -227.93 3727.09 -1189.44 269.91z"/>
   <path id="1" class="fil3" d="M11355.66 21473.74c-81.48,-359.07 -159.43,-581.29 -232.51,-665 -74.22,-84.43 -178.54,-110.9 -313.2,-80.34 -154.29,35.01 -261.98,119.42 -322.33,252.09 -59.42,132.45 -66.57,300.25 -20.1,505.03l425.02 1872.99 -1127.71 255.91 -793.19 -3495.38 1066.95 -242.11 102.06 449.78 55.61 318.73c64.88,-329.35 168.71,-578.08 310.34,-746.88 140.69,-168.61 340.19,-281.72 598.27,-340.29 320.73,-72.78 581.55,-32.65 781.51,120.59 199.96,153.24 343.65,422.48 431.08,807.74l550 2423.76 -1127.72 255.9 -384.08 -1692.52zm3179.42 208.67c197.3,-44.77 331.39,-155.83 401.32,-332.95 70.87,-177.33 73.15,-409.9 7.58,-698.84 -65.14,-287.07 -162.87,-488.09 -294.33,-603.78 -130.73,-116.83 -300.72,-151.02 -509.25,-103.7 -202.91,46.05 -339.12,147.75 -409.76,304.39 -69.5,157.35 -73.74,372.66 -11.57,646.64 68.75,302.98 172.39,521.34 311.83,654.88 138.51,133.75 306.88,178.13 504.18,133.36zm-642.19 -2804c544.22,-123.49 987.74,-66.83 1329.41,169.3 341.68,236.12 578.78,648.37 712.25,1236.55 141.74,624.64 109.83,1138.25 -96.48,1541.98 -206.52,402.8 -570.2,663.3 -1092.92,781.91 -521.77,118.41 -961.63,43.2 -1318.85,-226.76 -357,-269.01 -605.49,-714.08 -746.38,-1334.99 -135.59,-597.51 -101.87,-1077.13 100.78,-1440.7 202.85,-362.64 573.57,-605.06 1112.19,-727.29zm5219 2614.94l-601.75 -1620.51c-69.17,-187.84 -131.84,-364.36 -187.8,-528.64 -55.24,-165.44 -106.61,-326.83 -154.33,-485.12l-24.31 5.52c29.56,190.92 53.13,368.46 71.65,532.38 17.58,164.15 30.45,298.88 36.75,404.63l113.59 1861.07 -1189.44 269.91 -1718.92 -3285.3 1081.89 -245.51 413.02 931.8c113.36,252.54 219.68,517.48 319.94,794.62 100.04,276.2 197.78,572.59 293.21,889.17l21.51 -4.88c-31.08,-206.31 -57.7,-414.61 -78.21,-626.27 -21.22,-210.51 -38.61,-425.83 -52.18,-645.95l-81.31 -1528.19 1274.53 -289.22 548.28 1480.23c11.59,33.76 31.8,88.16 60.85,164.16 145.73,399.56 249.96,728.89 312.91,988.93l28.04 -6.36c-32.22,-207.03 -57.4,-417.63 -73.95,-629.21 -17.69,-212.3 -26.89,-430.46 -28.72,-655.21l-24.53 -1529.27 1056.65 -239.78 -227.93 3727.09 -1189.44 269.91z"/>
  </g>
  <path class="fil4" d="M10938.32 9677.97c30.35,8.11 103.37,78.05 218.28,122.75 115.18,44.82 182.67,37.5 233.29,-58.22 37.77,8.81 154.43,86.39 194.04,110.13 107.61,64.53 290.85,160.12 407.53,210.02 45.56,19.48 183.51,81.84 227.83,85.53 -29.47,-40.24 -160.61,-113.62 -209.36,-150.11 -102.86,-76.98 -211.8,-150.23 -308.77,-235.07 -35.16,-30.76 -66.77,-52.72 -101.37,-82.97 -66.87,-58.49 -128.25,-119.5 -200.69,-168.02 1.03,45.94 23.81,149.96 -4.75,198.35 -13.57,23.01 -38.35,-5.15 -61.58,-21.19l-202.36 -138.84c-22.46,-16.58 -41.91,-31.62 -63.06,-47.55l-163.36 -122.39c-45.75,-33 -44.28,-47.08 -61.09,-104.84 -13.8,-47.41 -12.5,-48.57 -15.45,-104.4 -7.22,-136.55 -1.89,-296.64 9.5,-433.62 50.56,33.88 67.3,82 101.14,129.32 33.14,46.34 74.19,83.89 104.37,135.29 38.42,65.42 170.04,176.21 227.62,242.49 0,-61.66 -9.47,-102.43 -15.71,-150.23 -6.74,-51.62 -20.21,-111.75 -21.15,-154.03 24.99,16.74 35.78,39.9 53.37,66.46 73.56,111.01 156.47,229.8 257.11,314.42 54.18,45.56 132.2,105.94 214.81,107.78 -4.09,-49.18 -36.29,-100.56 -55.33,-138.26l-162.75 -344.27c-12.84,-27.51 -17.91,-46.4 -30.74,-70.67 124.81,29.09 162.57,101.42 304.11,101.42 -2.82,-33.99 -12.43,-49.22 -30.2,-71.19 -182.45,-225.45 -252.74,-518.06 -295.22,-801.82 -4.07,-27.14 -4.18,-65.41 -8.91,-101.72 -13.67,-104.8 -10.37,-322.33 11.79,-417.48 30.61,2.55 82.79,12.09 111.92,17.11 83.14,14.33 148.46,11.68 240.41,36.07l302.11 112.64c180.16,88.79 349.54,191.03 509.35,310.99 101.95,76.52 124.35,128.47 164.41,250.43 9.91,30.2 20.17,75.18 44.93,93.34 39.87,-10.66 55.27,-52.5 64.51,-92.2 117.61,78.78 386.97,513.01 442.35,617.73 80.29,-53.78 100.4,-257.97 101.75,-359.21 1.94,-146.4 -34.81,-284.52 -46.46,-424.48 55.56,4.62 164.28,81.69 202.76,110.63 65.39,49.19 136.08,88.26 138.22,184.41 54.78,-4.56 63.4,-10.44 97.88,77.24 59.47,151.19 90.41,497.48 65.79,685.8 -11.89,90.9 -49.41,214.65 -84.67,302.52 -16.93,42.21 -47.55,105.72 -51.35,151.47 133.73,0 187.01,-76.28 294.9,-101.43 -19.21,82.51 -60.02,168.65 -92.12,239.77 -17.08,37.85 -23.33,83.24 -56.09,109.84 -31.75,25.77 -58.65,46.69 -95.03,70.88 -69.25,46.07 -134.26,86.54 -208.31,123.5 -82.18,41.02 -147.06,65.63 -243.09,97.95 -85.64,28.83 -172.04,48.05 -272.21,59.58l-227.24 13.8c-159.92,-15.71 -199.68,-8.84 -379.49,-44.56l-269.55 -71.46c62.56,85.43 577.07,313.1 695.04,346.5 137.77,38.99 279.47,73.96 457.22,68.7 69.05,-2.04 164.01,-20.35 219.81,-38.23l185.37 -81.93c-0.98,44.61 -19.97,107.99 -25.33,149.83 -5.93,46.3 -13.66,140 -2.31,163.65 54.37,22.47 317.45,-57.14 386.85,-73.97 86.27,-20.92 332.66,-51.77 433.36,-45.97 65.46,3.79 154.13,13.11 220.91,18.77 301.31,25.5 505,150.94 571.62,156.49 -0.81,-36.36 -14.15,-76.56 -34.49,-103.8l-202.92 -285.63c-39.77,-46.79 -18.5,-33.09 -73.79,-82.92 -71.2,-64.19 -69.86,-93.29 -195.83,-191.31l-41.98 -40.98c-1.35,-1.33 -3.25,-3.3 -4.65,-4.57 -50.04,-45.22 -135.87,-72.28 -174.38,-129.81 64.74,-15.08 122.24,-54.07 188.2,-79.09l393.46 -141.11c68.95,-23.05 135.87,-43.66 203.84,-63.45 66.86,-19.47 132.74,-51.48 201.19,-66.09 75.75,-16.16 128.02,-42.99 208.87,-58.41 32.02,-6.1 70.59,-11.19 109.29,-19.74 80.49,-17.79 140.27,-38.78 224.9,-42.37 43.77,-1.87 68.98,-13.22 118.16,-20.09 335.76,-46.91 871.45,-17.09 1207.96,94.89l92.18 36.85c98.49,25.62 203.42,64.47 292.94,112.59 30.93,16.62 58.66,37.69 86.26,52.01 30.66,15.92 70.02,22.42 100.97,37.28l-20.44 -90.19c-43.23,-82.27 -97.48,-156.27 -137.12,-240.83 -16.38,-34.96 -7.56,-20.87 -33.67,-49.31 -26.56,-28.93 -15.45,-27.92 -36.31,-55.86 -1.15,-1.53 -2.91,-3.62 -4.15,-5.08l-290.98 -354.27c-31.37,-28.18 -45.33,-63 -77.56,-88.36 -62.17,-48.91 -182.65,-179.77 -254.59,-243.17l-90.37 -75.55c-20.5,-15.95 -24.56,-20.74 -46.06,-36.89l-87.33 -78.59c-14.54,-10.64 -32.48,-17.68 -51.18,-31.78 -62.09,-46.79 -119.28,-96.12 -186.32,-136.29l-150.57 -98.3c-18.95,-15.66 -24.53,-26.46 -44.99,-37.96l-110.79 -55.12c-72.32,-41.76 -139.48,-74.91 -217.62,-114.2 -144.1,-72.49 -308.9,-148.94 -462.5,-201.12 -76.33,-25.91 -188.47,-37.94 -269.71,-62.08 -160.43,-47.67 -366.26,-93.3 -570.27,-93.3 17.32,-25.89 20.49,-52.87 43.69,-76.14 23.29,-23.34 42.41,-30.63 60.3,-59.53 31.45,-50.83 71.69,-84.12 108.02,-131.64 39.23,-51.32 80.01,-73.86 114.55,-125.14 20.25,-30.08 32.63,-30.52 54.32,-65.51 16.44,-26.54 30.23,-47.61 49.99,-69.83 112.8,-126.79 266.21,-224.19 416.92,-302.06 35.23,-18.21 127.89,-65.37 147.5,-92.15 -154.83,-81.95 -648.6,-65.77 -884.72,-55.32 -211.01,9.33 -459.61,114.07 -657.69,181.01 -32.65,11.04 -61.15,24.62 -88.77,31.06 33.13,-49.5 148.92,-170.76 191.05,-214.56 79.76,-82.91 265.34,-255.99 361.74,-329.58l243.5 -162.06c32.37,-21.38 54.68,-32.1 86.74,-51.52 31.35,-18.98 53.25,-33.06 87.71,-50.54 76.43,-38.77 145.52,-82.62 224.82,-116.23 7.05,-2.99 18.97,-7.12 26.13,-10.73 22.06,-11.14 9.4,-3.1 22.43,-14.44 -221.55,18.45 -879.1,506.06 -1062.1,689.19 -48.87,48.91 -102.58,97 -147.26,147.72l-110.57 110.66c-22.93,22.09 -12.03,21.21 -43.99,29.74 26.42,-55.07 57.12,-188.04 141.31,-356.5 170.05,-340.26 408.95,-757.98 658.3,-1037.86l506.58 -562.7c98.45,-98.01 163.88,-149.17 262.52,-235.23 38.07,-33.2 113.72,-81.47 126.97,-131.13l-879.8 0c-134.11,3.27 -403.23,31.66 -511.29,46.57 -361.72,49.9 -739.11,191.07 -1030.02,407.82 -113.78,84.78 -203.61,181.91 -288.39,292.31 -149.53,194.72 -268.59,416.63 -377.73,636.3l-38.66 71.96c-6.55,9.11 -11.53,14.34 -16.64,20.23 0,-198.21 19.11,-172.7 71.79,-379.95l102.23 -367.94c61.97,-210.79 105.2,-437.25 194.66,-635.04 12.81,-28.33 19.82,-58.87 27.59,-92.26 -225.52,119.39 -462.53,234.03 -676.54,374.21 -165.36,108.32 -326.37,248.24 -428.92,419.12 -27.39,45.63 -49.37,85.56 -78.07,133.96l-149.65 274.39c-64.66,131.73 -207.83,388.53 -287.72,505.07 -19.44,28.38 1.5,15.66 -28.7,26.6 -80.06,-166.91 -73.77,-393.1 -107.84,-583.61 -6.93,-38.77 -6.33,-53.36 -30.4,-71 0,542.55 108.48,536.61 129.02,783.69 -48.57,11.32 -94.82,31.45 -143.55,49.98 -332.06,126.36 -602.67,255.26 -805.66,558.53l-1824.7 0c21.99,32.85 263.83,172.54 320.02,214.59 91.01,68.11 225.29,152.39 288.22,246.41 -206.81,-48.2 -404.51,-82.98 -626.67,-82.98 -65.06,0 -307.98,-10.36 -335.49,-4.15 -107.94,24.36 -205.56,25.48 -328.07,31.77 -166.69,8.57 -301.63,43.91 -457.04,68.29 -110.36,17.31 -372.2,162.56 -494.8,214.9 -35.42,15.13 -98.16,41.3 -117.14,67.21 91.14,0 510.68,123.19 597.93,148.6 253.79,73.92 751.93,256.82 976.49,424.49 55.16,41.19 120.14,64.82 179.2,106.54 21.89,15.46 33.49,20.81 55.34,36.82l163.19 122.57c34.53,26.99 77.24,56.14 101.37,92.19 -78.46,0 -163.11,-25.75 -238.18,-38.3 -120.31,-20.12 -167.25,-8.16 -258.12,-18.36 -70.9,-7.97 -181.36,-16.61 -264.71,-3.99 -81.17,12.29 -176.93,7.22 -260.52,15.95 -245.18,25.62 -463.67,81.63 -700.93,128.54 -37.91,7.5 -74.75,13.76 -115.36,22.89 -36.95,8.32 -82.44,19.57 -115.9,22.35 40.88,55.83 673.12,311.73 737.29,322.67 47.54,8.1 75.32,22.25 118.37,38.3l219.09 85.07c81.42,22.76 150.98,42.19 224.7,79.46 16.8,8.5 29.85,14.57 49.3,24.43 24.88,12.6 26.13,15.76 45.43,28.32 46.79,30.48 106.33,45.13 157.07,73.34 21.63,12.03 30.31,20.56 50.26,32.71 60.28,36.74 150.75,53.87 207.58,96.57 37.05,27.82 57.73,37.95 98.55,58.14 35.63,17.63 59.71,32.87 95.41,52.08 74.88,40.28 150.07,120.24 223.08,154.83 52.22,24.76 88.68,61.91 134.42,96.02 33.47,24.96 55.97,40.94 83.63,73.06l36.49 37.26c72.08,48.13 132.68,121.85 194.17,183.75 32.96,33.18 39.39,58.98 98.73,58.82 106.84,-0.29 191.3,-68.1 284.81,-94.61l88.53 -31.3c46.27,-24.64 50.92,-5.31 50.92,-68.91 -85.44,-7.11 -321.67,-233.78 -375.12,-297.75l-76.6 -89.33c-59.14,-82.85 -156,-225.54 -202.58,-313.64 42.14,0.95 108.43,18.94 148.21,26.9 95.96,19.2 376.38,91.31 450.8,92.97 -38.36,-164.69 -303.69,-640.28 -248.82,-875.9 122.52,-28.55 316.63,146.58 411.84,224.15 154.66,126.02 84.45,76.77 151.49,254.12 53.5,141.57 128.96,178.4 158.31,238.07 103.77,210.99 95.48,162.38 201.67,332.99 27.18,43.67 29.5,45.9 71.98,66.29 0,-37.38 -2.27,-66.85 -8.04,-93.38 -8.43,-38.77 -18.69,-49.82 -19.61,-91.02z"/>
  <path class="fil5" d="M6111.14 18361.68c-12.91,-23.59 5.24,-142.93 11.98,-190.19 -9.65,-43.99 -5.28,-176.45 -9.5,-235.88 -15.32,-216.25 -54.62,-486 -59.58,-682.56 -8.7,-345.51 87.95,-557.07 -216.65,-750.27 -427.45,-271.12 -1195.93,363.14 -1541.68,654.4 -104.62,88.14 -225.92,228.5 -307.21,305.76 -267.37,254.15 -580.72,910.01 -711.24,1232.59 -45,111.24 -208.22,688.8 -245.06,725.94 -63.65,-110.1 65.19,-446.72 107.94,-565.18 65.19,-180.6 133.1,-341.58 210.11,-507.86 174.87,-377.56 431.74,-781.91 724.56,-1070.5l286.56 -256.62c343.53,-300.8 847.33,-614.5 1350.81,-621.47 -14.95,-53.75 -148.97,-219.24 -188.77,-266.32 -74.81,-88.51 -143.29,-162.98 -222.12,-242.14l-599.05 -557.19c-239.03,-190.6 -236.32,-238.57 -430.73,-134.42 -214.18,114.74 -375.56,240.17 -553.34,366.66 -90.22,64.2 -175.91,135.26 -259.9,204.39 -82.6,68 -175.85,135.62 -249.26,214.99 -20.84,22.54 -40.21,35.57 -63.36,59.15 -20.65,21.04 -32.14,39.65 -52.66,61.62 -90.24,96.67 -219.42,276.6 -292.47,390.36 -232.52,362.09 -445.54,772.58 -609.2,1229.51 -133.5,372.75 -39.47,400.51 123.24,662.33 116.91,188.11 231.85,382.39 348.3,571.1 58.77,95.23 121.6,191.97 176.32,287.7 22.63,39.61 58.9,124.87 83.59,152.79 32.25,36.45 108.59,49.65 148.44,79.41 38.08,28.43 40.29,134.19 50.39,185.76 12.12,61.85 25.62,125.45 42.24,186.03 68.17,248.47 201.06,379.08 359.14,559.61l225.69 238.75c75.83,78.88 157.57,153.26 248.16,216.03 87.35,60.53 180.72,114.82 285.99,169.57 489.15,254.39 880.59,345.43 1519.75,318.91 5.73,-253.77 -53.56,-542.68 -65.03,-801.86 -11.83,-266.92 16.55,-538.01 47.12,-798.78 29.19,-248.99 80.24,-484.54 139.08,-719.54 7.52,-30.05 158.35,-641.46 187.4,-672.58z"/>
  <path class="fil5" d="M820.64 16186.47c160.7,98.16 876.31,1242.21 1082.87,1553.93l146.51 226.92c46.95,-46.1 135.07,-379.39 171.93,-472.85 183.24,-464.6 415.1,-867.18 697.9,-1254.62 104.66,-143.4 201.21,-215.52 313.3,-334.89l173.07 -150.96c200.14,-156.84 317.68,-265.79 563.12,-409.51 135.15,-79.13 300.37,-152.18 420.52,-233.23 -79.35,-179.8 -1353.18,-939.22 -1663.06,-1104.73 -352.92,-188.5 -1499.37,-757.68 -1904.76,-867.95l-1.4 3047.89z"/>
  <path class="fil6" d="M833.43 19033.27c15.34,67.09 17.69,2021.01 1.47,2104.97l24.06 22.53c5.92,4.73 16.06,12.24 25.12,18.96 103.15,76.6 275.13,244.36 388.38,270.95 3.06,-236.15 31.17,-440.42 72.81,-667.15 23.51,-128.04 94.69,-516.31 160.97,-584.47 -2.9,304.37 -254.97,1020.71 -159.09,1271.3 65.02,169.93 552.29,442.69 754.61,533.32 122.84,55.02 95.74,7.39 100.39,83.71l-38.45 -6.3c22.44,18.44 5.75,10.55 35.43,12.84 19.37,-35.68 11.49,-47.88 1.25,-82.67l45.53 18.13c1.33,0.94 3.59,3.13 5.41,4.67 6.36,-45.63 -9.91,-3.58 67.88,-68.95 132,-110.93 290.24,-412.44 389.68,-482.39 -31.19,146.81 -235.57,330.95 -282.99,450.51 409.96,-30.03 1111.17,-339.44 1487.63,-530.03 103.49,-52.4 362.98,-205.98 390.81,-276.38 -228.22,-84.48 -561.54,-359.59 -726.75,-524.97 -150.1,-150.26 -419.12,-455.98 -496.21,-747.35 -23.73,-89.69 -16.91,-187.75 -40.67,-274.39 -14.43,-52.65 -30.95,-59.16 -71.64,-85.93 -101.35,-66.67 -472.39,-677.39 -571.04,-821.38l-242.66 -379.05c-100.89,37.85 -276,315.44 -353.49,443.64 -171.5,283.75 -393.02,792.06 -460.97,1124.13 -23.57,115.14 -103.7,587.34 -128.97,653.7 -35.53,-810.07 415.55,-1482.36 419.43,-1635.57 -77.02,-25.18 -119.23,-53.03 -221.61,-49.59 -75.61,2.54 -148.62,22.81 -215.15,45.37 -62.94,21.34 -332.67,136.67 -361.17,157.84z"/>
  <path class="fil7" d="M822.04 13138.58c405.39,110.27 1551.84,679.45 1904.76,867.95 309.88,165.51 1583.71,924.93 1663.06,1104.73 -120.15,81.05 -285.37,154.1 -420.52,233.23 -245.44,143.72 -362.98,252.67 -563.12,409.51l-173.07 150.96c-112.09,119.37 -208.64,191.49 -313.3,334.89 -282.8,387.44 -514.66,790.02 -697.9,1254.62 -36.86,93.46 -124.98,426.75 -171.93,472.85l-146.51 -226.92c-206.56,-311.72 -922.17,-1455.77 -1082.87,-1553.93 -1.2,61.19 16,71.35 68.17,142.72 172.9,236.53 458.99,653.51 590.57,889.38 130.01,233.04 582.68,850.99 648.53,1049.14 -13.73,21.83 -80.21,65.67 -127.5,116.58 -82.9,89.24 -283.12,341.07 -308.37,456.07 -215.62,-31.71 -268.74,-98.59 -508.26,-19.43 -89.76,29.67 -286.77,98.17 -348.59,178.81 -19.2,25.04 -23.58,29.94 -1.76,33.53 28.5,-21.17 298.23,-136.5 361.17,-157.84 66.53,-22.56 139.54,-42.83 215.15,-45.37 102.38,-3.44 144.59,24.41 221.61,49.59 -3.88,153.21 -454.96,825.5 -419.43,1635.57 25.27,-66.36 105.4,-538.56 128.97,-653.7 67.95,-332.07 289.47,-840.38 460.97,-1124.13 77.49,-128.2 252.6,-405.79 353.49,-443.64l242.66 379.05c98.65,143.99 469.69,754.71 571.04,821.38 40.69,26.77 57.21,33.28 71.64,85.93 23.76,86.64 16.94,184.7 40.67,274.39 77.09,291.37 346.11,597.09 496.21,747.35 165.21,165.38 498.53,440.49 726.75,524.97 -27.83,70.4 -287.32,223.98 -390.81,276.38 -376.46,190.59 -1077.67,500 -1487.63,530.03 47.42,-119.56 251.8,-303.7 282.99,-450.51 -99.44,69.95 -257.68,371.46 -389.68,482.39 -77.79,65.37 -61.52,23.32 -67.88,68.95 14.59,20.07 3.24,4.99 17.99,13.27 67.79,-25.1 116.3,-89.58 198,-85.01 101.76,5.68 158.38,-4.1 251.74,-27.04 418.58,-102.82 905.44,-291.23 1249.81,-511.82 121.39,-77.75 226.81,-158.78 346.9,-231.64 38.94,-23.63 47.51,-29.87 91.21,-9.3 636.92,299.79 786.57,177.34 1396.63,225.78 22.77,107.12 44.56,394.16 43.59,500.23l62.21 7.1c6.66,-10.77 3.5,-0.73 7.08,-19.59 1.71,-8.99 2.68,-23.77 2.69,-32.99 0.03,-24.8 -3.05,-36.81 -6.06,-56.45 -5.86,-38.11 -3.76,-78.69 -3.71,-118.77 0.08,-73.52 -1.7,-163.65 -11.17,-233.78l-85.36 -912.05 -0.07 -367.54c-0.77,-133.62 43.52,-451.2 60.05,-569.9 10.77,-77.4 24.79,-136.93 36.55,-208.47 25.56,-155.54 236.83,-978.47 236.83,-1014.67 -15.09,-10.07 -14.13,-11.51 -35.09,-19.74 -29.05,31.12 -179.88,642.53 -187.4,672.58 -58.84,235 -109.89,470.55 -139.08,719.54 -30.57,260.77 -58.95,531.86 -47.12,798.78 11.47,259.18 70.76,548.09 65.03,801.86 -639.16,26.52 -1030.6,-64.52 -1519.75,-318.91 -105.27,-54.75 -198.64,-109.04 -285.99,-169.57 -90.59,-62.77 -172.33,-137.15 -248.16,-216.03l-225.69 -238.75c-158.08,-180.53 -290.97,-311.14 -359.14,-559.61 -16.62,-60.58 -30.12,-124.18 -42.24,-186.03 -10.1,-51.57 -12.31,-157.33 -50.39,-185.76 -39.85,-29.76 -116.19,-42.96 -148.44,-79.41 -24.69,-27.92 -60.96,-113.18 -83.59,-152.79 -54.72,-95.73 -117.55,-192.47 -176.32,-287.7 -116.45,-188.71 -231.39,-382.99 -348.3,-571.1 -162.71,-261.82 -256.74,-289.58 -123.24,-662.33 163.66,-456.93 376.68,-867.42 609.2,-1229.51 73.05,-113.76 202.23,-293.69 292.47,-390.36 20.52,-21.97 32.01,-40.58 52.66,-61.62 23.15,-23.58 42.52,-36.61 63.36,-59.15 73.41,-79.37 166.66,-146.99 249.26,-214.99 83.99,-69.13 169.68,-140.19 259.9,-204.39 177.78,-126.49 339.16,-251.92 553.34,-366.66 194.41,-104.15 191.7,-56.18 430.73,134.42l599.05 557.19c78.83,79.16 147.31,153.63 222.12,242.14 39.8,47.08 173.82,212.57 188.77,266.32 -503.48,6.97 -1007.28,320.67 -1350.81,621.47l-286.56 256.62c-292.82,288.59 -549.69,692.94 -724.56,1070.5 -77.01,166.28 -144.92,327.26 -210.11,507.86 -42.75,118.46 -171.59,455.08 -107.94,565.18 36.84,-37.14 200.06,-614.7 245.06,-725.94 130.52,-322.58 443.87,-978.44 711.24,-1232.59 81.29,-77.26 202.59,-217.62 307.21,-305.76 345.75,-291.26 1114.23,-925.52 1541.68,-654.4 304.6,193.2 207.95,404.76 216.65,750.27 4.96,196.56 44.26,466.31 59.58,682.56 4.22,59.43 -0.15,191.89 9.5,235.88 57.94,95.8 84.58,299.47 114.52,433.66 12.96,58.1 80.89,379.61 154.18,406.06 -12.36,-52.89 -20.12,-112.95 -31.4,-169.87 -12.21,-61.59 -26.59,-107.45 -38.05,-163.24 -52.4,-255.09 -102.41,-375.61 -139.49,-683.13l-54.55 -557.89c-0.42,-34.11 2.21,-71.68 0.4,-105.36 -8.16,-150.64 -24.12,-358.75 -7.54,-506.01 6.8,-60.37 2.4,-126.38 7.95,-193.25 4.41,-53.06 14.48,-139.33 17.07,-192.92 17.13,-353.78 85.6,-760.72 140.36,-1093.37 18.89,-114.85 46.48,-234.8 67.92,-343.37 76.99,-389.84 194.78,-762.79 303.63,-1131.74l70.58 -235.76c33.18,-145.23 13.06,-92.6 69.16,-140.96 18.92,-16.31 22.37,-29.07 32.52,-72.53 -38.24,18.3 -62.12,-3.5 -88.07,34.62 -8.86,13 -27.96,64.06 -37.18,85.38 -95.29,220.21 -238.22,679.44 -304.61,929.59 -35.24,132.77 -64.82,260.37 -99.97,398.89 -58.95,232.42 -122.69,582.24 -159.3,829.56 -35.74,241.42 -26.8,582 -67.51,798.64 -5.88,31.31 -21.04,71.77 -24,107.27 -39.11,-9.09 -112.42,-80.17 -142.81,-111.26 -78.32,-80.14 -79.85,-310.97 -85.18,-422.39l-35.16 -244.84 -9.15 96.21 22.18 451.9c-64.07,-26.88 -110.38,-112.06 -153.51,-171.78 -127,-175.91 -238.28,-278.47 -362.61,-425.67 -27.03,-31.99 -44,-53.6 -75.99,-81.76 -54.12,-47.64 -103.71,-106.96 -156.3,-158.96 -149.49,-147.74 -334.85,-324.71 -518.18,-425.19 14.08,-84.82 52.11,-124.63 66.61,-191.36 145.98,34.9 368.39,349.44 472.69,388.5 -93.81,-149.4 -358.93,-305.11 -410.14,-453.09 28.87,3.88 38.13,7.2 54.31,17.46 -11.96,-50.35 -32.06,-71.68 -43.86,-122.16 -27.32,7.28 -42.44,23.2 -52.63,61.23 -46.99,-10.92 -142.6,-102.79 -177.62,-137.77 -107.59,-107.46 -411.25,-432.86 -515.31,-457.04 16.92,31.89 12.23,24.45 37.23,50.35 20.99,21.73 23.37,30.52 44.74,51.61 1.81,1.78 7.16,6.75 9.03,8.49l191.71 176.19c21.75,21.58 31.17,24.7 52.73,43.64l288.39 281.62c16.55,23.38 17.12,33.15 5.3,67.12l-59 134.47c-82.29,-19.12 -326.7,-215.95 -417.26,-283.66 -342.72,-256.18 -626.72,-393.13 -963.39,-613.75 -157.63,-103.29 -600.09,-331.03 -797.44,-429.34l-473.78 -227.3c-43.58,-20.3 -78.16,-33.93 -122.38,-52.91 -41.99,-18.03 -82,-37.48 -121.52,-53.75 -84.85,-34.93 -160.47,-67.51 -248.11,-102.47 -99.73,-39.77 -441.44,-176.68 -531.29,-178.68l0 49.16z"/>
  <path class="fil5" d="M4716.5 14873.53c-16.18,-10.26 -25.44,-13.58 -54.31,-17.46 51.21,147.98 316.33,303.69 410.14,453.09 -104.3,-39.06 -326.71,-353.6 -472.69,-388.5 -14.5,66.73 -52.53,106.54 -66.61,191.36 183.33,100.48 368.69,277.45 518.18,425.19 52.59,52 102.18,111.32 156.3,158.96 31.99,28.16 48.96,49.77 75.99,81.76 124.33,147.2 235.61,249.76 362.61,425.67 43.13,59.72 89.44,144.9 153.51,171.78l-22.18 -451.9c-75.98,-90.47 -1.64,-224.01 -147.34,-403.74 -49.44,-61 -96.34,-91.97 -139.64,-131.91 -137.07,-126.42 -259.53,-294.03 -398.99,-433.09 -57.16,-56.99 -222.68,-240.29 -304.8,-247.11 7.83,93.9 222.57,249.34 318.08,356.32l255.76 331.02c16.85,21.26 26.47,27.04 40.15,47.42 -97.69,0 -111.58,-19.36 -199.54,-107.15l-249.1 -223.94c-78.71,-62.65 -170.03,-160.73 -235.52,-237.77z"/>
  <path class="fil8" d="M854.9 21078.24l-31.43 -18.97 -7.74 64.22c47.89,31.88 102.81,81.57 154.72,122.59 51.94,41.04 102.84,79.71 163.21,117.28 107.56,66.92 144.53,33.07 245.88,174.57 84.91,118.58 653.5,451.14 804.16,483.16l38.45 6.3c-4.65,-76.32 22.45,-28.69 -100.39,-83.71 -202.32,-90.63 -689.59,-363.39 -754.61,-533.32 -95.88,-250.59 156.19,-966.93 159.09,-1271.3 -66.28,68.16 -137.46,456.43 -160.97,584.47 -41.64,226.73 -69.75,431 -72.81,667.15 -113.25,-26.59 -285.23,-194.35 -388.38,-270.95 -9.06,-6.72 -19.2,-14.23 -25.12,-18.96l-24.06 -22.53z"/>
  <path class="fil9" d="M2961.25 22008.24c12.7,15.79 14.59,22.58 57.32,30.33 95.27,17.28 455.25,4.01 595.54,11.62 159.8,8.68 443.6,45.6 567.78,108.7 -236.28,26.68 -639.6,-62 -853.99,7.65 112.46,36.26 626.89,47.39 794.61,47.94 45.76,0.15 93.38,0.46 138.98,-2.29 56.04,-3.38 66.6,-9.99 69.07,-65.46 -300.57,-141.01 -1013.15,-213.12 -1369.31,-138.49z"/>
  <path class="fil5" d="M4848.07 14690.14c85.34,56.99 256.34,226.04 314.46,298.7l414.62 443.74c48.11,52.09 28.91,44.12 95.42,88.54 -65.29,-279.47 -203.61,-328.23 -338.38,-502.28 -34.2,-44.18 -63.84,-67.54 -98.88,-111.32l-99.72 -110.48c-20.25,-20.43 -38.88,-26.83 -60.94,-44.2 -19.06,-14.99 -35.25,-33.57 -53.48,-51.63 -42.82,-42.42 -53.58,-83.08 -102.93,-116.03 -23.48,34.96 -46.69,69.99 -70.17,104.96z"/>
  <path class="fil5" d="M7534.55 21479.13c94.32,0 206.29,-43.19 297.49,-61.96l298.96 -69.25 -237.93 -68.88c-97.98,-31.27 -180.15,-53.58 -288.36,-53.58 0,107.54 -68.2,165.8 -70.16,253.67z"/>
  <path class="fil10" d="M12712.62 11102.86c-65.34,54.11 -145.3,87.8 -183.5,134.02 125.98,34.41 197.81,-49.13 243.48,-140.44 -50.51,-196.58 -92.45,-119.62 -63.27,-403.96 -13.78,12.06 -80.06,-23.78 -67.77,207.13 4.9,91.92 46.24,125.73 71.06,203.25z"/>
  <path class="fil11" d="M13578.98 17036.49c-11.09,15.78 -15.03,3.35 -28.29,55 -45.05,175.44 11.29,481.94 146.33,633.87 14.19,-86.27 -81.44,-619.05 -118.04,-688.87z"/>
  <path class="fil11" d="M13518.79 18061.4c113.8,-41.14 125.67,-31.63 135.92,-164.45 -119.74,13.13 -118.04,40.91 -135.92,164.45z"/>
  <path class="fil12" d="M13485.22 17952.6c92.18,-86.37 77.91,-55.35 144.35,-88.83 44.27,-22.3 16.57,-4.17 48.03,-34.73 -91.65,-139.17 -96.14,-229.69 -171.42,-300.1 -22.45,114.01 -42.14,238.14 -69.71,351.39 -59.06,242.57 -106.06,252.03 33.71,299.88l15.04 -227.61z"/>
  <path class="fil12" d="M13627.25 17067.33c16.96,115.39 43.37,303.37 99.51,395.27 59.88,-118.13 58.1,-332.06 56.6,-481.85l-156.11 86.58z"/>
  <path class="fil13" d="M12301.8 12417.6c189.86,-73.95 349.98,-200.08 525.2,-271.41 -31.05,124.47 -111.48,281.3 -131.05,406.13 -40.98,261.41 87.32,-49.21 -44.19,443.59 -71.94,269.58 -177.55,559.78 -328.94,736.64 -289.98,-101.97 -230.98,-269.34 -156.03,-559.08 63.88,-246.97 111.71,-657.69 -248.14,-564.64 -16.61,193.17 -34.09,282.86 -93.49,450.1 -45.85,129.07 -151.37,285.39 -167.49,394.39 189.55,-84.89 283.67,-565.08 293.08,-836.3 169.32,9.51 184.65,47.36 189.72,223.54 4.14,143.95 -18.25,251.82 -56.17,383.03 -45.99,159.16 -149.61,468.41 213.89,565.67 211.88,-124.79 402.61,-651.75 444.47,-973.39 30.5,-234.33 -88.57,-7.36 101.12,-559.37 76.31,-222.09 127.1,-328.16 233.38,-503.33 -109.5,46.6 -120.31,99.28 -166.27,200.13 -74.15,162.68 -26.61,113.31 -183.18,184.67 -84.05,38.31 -396.77,192.08 -425.91,279.63z"/>
  <path class="fil13" d="M17104.64 17332.75c74.51,-89.61 41.37,-301.45 55.62,-436.56 8.71,-82.64 117.72,-231.1 162.5,-320.01 64.05,-127.16 95.37,-215.44 136.79,-358.09 32.79,-112.93 67.79,-313.97 42.06,-382.21 -54.16,66.53 -68.05,275.6 -139.35,485.84 -37.88,111.71 -123.49,340.34 -201.48,396.87 0.8,-140.01 32.53,-510.18 -35.01,-598.64 -43.51,92.8 19.83,490.79 -8.29,649.97 -14.02,79.37 -40.26,74.81 -69.22,149.98 23.46,14 13.85,7.76 42.86,18.11 96.2,34.33 -32,-22.31 29.89,6.63l-16.37 388.11z"/>
  <path class="fil13" d="M11714.52 12510.42c-101.18,18.94 -45.97,17.81 -126.76,31.52l-45.6 -138.86c-87.72,75.6 71.17,352.38 172.36,107.34z"/>
  <path class="fil14" d="M13619.95 18062.07c-80.51,35.2 -49.28,-5.89 -101.37,77.77 -22.02,35.38 -24.38,56.99 -37.87,86.72l83.85 63.49 55.39 -227.98z"/>
  <path class="fil15" d="M16537.43 13559.6c-68.09,-13.37 -87.9,-26.06 -152.8,-53.21 -145.61,-60.91 -94.03,-43.55 -119.22,-80.15l99.62 -89.8 230.84 66.86 -58.44 156.3zm-116.11 -241.35l187.24 50.11 -187.24 -50.11zm-179.25 22.94l0 0zm-101.39 -66.7c-65.94,32.14 -140.94,-29.16 -246.31,57.96 44,37.24 46.59,63.02 196.92,73.6 -9.41,-19.8 15.22,-50.29 -35.98,17.48 -26.27,47.53 50.67,28.72 -109.49,40.44 -154.73,11.32 -166.57,-16.96 -403.35,34.07 -154.5,33.29 -282.6,84.51 -415.52,149.93 -126.49,62.24 -242.82,127.31 -356.46,208.95 -110.65,79.49 -230.33,161.72 -319.57,247.12 -313.68,300.2 -834.7,1049.74 -801.07,1489.11l182.73 -484.16c160.74,-367.8 564.28,-990.72 854.77,-1106.12 136.54,92.88 87.36,177.84 191.67,237.39 -20.7,-59.6 -44.75,-95.98 -77.08,-138.2 -21.28,-27.78 -35.48,-40.24 -55.54,-67.39 -49.72,-67.29 -13.02,-6.96 -39.34,-63.36 245.56,-236.13 835.52,-501.95 1305.64,-463.95 -62.7,127.73 -147.25,199.13 -206.6,331.08l123.97 -74.26 94.27 246.12c16.87,-50.14 -51.93,-203.94 -86.98,-244.39 213.76,-446.77 542.41,-95.21 776.87,-80.85 -52.12,-2.71 -120.01,-62.02 -155.83,-108.8l124.03 -123.19c326.37,93 734.89,549.85 909.25,814.97 573.74,872.41 789.2,1569.39 660.43,2722.88 -19.8,177.38 -216,1410.3 -215.01,1413.16 88.5,-212.83 100.01,-459.21 180.96,-667.76l-78.63 1345.88 43.9 0c73.75,-420.53 58.25,-1024.02 78,-1480.38 340.97,302.82 268.09,976.42 270.63,1291.92 0,0.28 -11.73,42.37 22.39,96.03l31.79 -5.86c36.58,-267.57 39.23,-516.45 -8.13,-785.59 -52.85,-300.37 -140.12,-374.74 -237.28,-588.41l-66.19 -43.41c-41.46,-143.96 28.48,-486.99 43.21,-671 94.07,-1175.2 -123.22,-1902.31 -804.29,-2819.26 -113.18,-152.38 -225.87,-263.55 -362.46,-375.83 -205.55,-168.95 -366.24,-238.53 -428.18,-294.25l-582.14 -131.67z"/>
  <path class="fil16" d="M5800.22 15820.66c63.56,672.66 -10.41,587.13 241.81,794.86 70.85,-119.29 68.67,-656.58 92.88,-849.67 83.08,-662.5 365.07,-1771.28 617.21,-2323.58 34.83,-169.36 -205.55,-801.59 -81.99,-1669.43 101.54,-713.13 313.96,-859.23 538.38,-1271.1 27.02,89.65 -232.82,148.17 -436.24,461.75 -2.86,4.41 -6.59,10.62 -9.52,14.96 -223.27,331.67 -317.05,427.95 -512.63,834.57 -80.24,166.82 -148.29,419.02 -227.92,555.33l11.5 -204.91c-118.72,278.63 -709.11,1203.91 -729.64,1586.73 159.09,158.05 408.73,372.73 512.7,540.4 -60.69,-35.11 -211.39,-183.5 -271.57,-241.56 -69.93,-67.48 -67.18,-55.59 -121.54,-123.82 -55.39,-69.49 -70.97,-89.85 -145.16,-126.22 -50.25,125.58 -3.04,137.87 62.83,208.29 117.77,125.9 391.78,375.68 472.7,503.94 -96.29,-71.45 -374.76,-419.03 -581.02,-559.5 -40.54,137.93 198.01,305.69 404.05,522.54 117.61,123.79 159.64,125.82 281.14,332.33 -142.15,-88.78 -633.43,-670.36 -738.23,-701.97 -12.51,306.03 -105,143.05 135.83,394.65l298.09 350.31c-71.36,-32.81 -400.47,-400.42 -483.18,-486.81 -58.49,125.24 53.42,182.76 273.85,441.94 54.41,63.98 77.13,53.08 110.65,142.48 -56.71,-19.17 -64.37,-45.7 -114.62,-90.13 -195.8,-173.12 -197.47,-242.52 -319.14,-333.27 -57.94,100.15 50.95,203.8 130.91,276.82 115.48,105.46 253.49,311.85 375.78,409.5 151.47,120.96 180.87,366.3 212.09,610.57z"/>
  <path class="fil16" d="M12967.31 10629.68c193.75,-61.66 158.28,-65.28 397.71,-44.27 96.88,-252.89 196.03,-550.4 177.88,-880.07 -105.63,54.73 -267.39,323.06 -339.1,426.89 -136.71,197.94 -181.62,234.89 -236.49,497.45z"/>
  <path class="fil16" d="M13552.69 9647.31c22.79,227.29 40.62,268.82 -10.63,528.95 -33.93,172.2 -130.13,340.45 -147.8,489 101.31,-45.03 176.25,-251.82 284.5,-428.12 78.41,-127.67 226.3,-330.3 271.04,-440.85l-164.51 64.91c59.57,-151.8 101.88,-176.45 -13.86,-329.06 -128.97,0.92 -126.84,59.34 -218.74,115.17z"/>
  <path class="fil5" d="M11745.86 20565.99l1044.55 -255.22c109.74,-306.58 255.08,-658.1 378.94,-973.73 72.38,-184.42 353.18,-844.34 358.62,-994.31 -106.87,-68.04 -124.41,-118.23 -229.16,-185.35l-151.67 -92c-219.49,-151.72 -414.86,-232.82 -714.65,-270.9 -654.13,-83.1 -1178.73,216.11 -1300.65,219.15 -57.23,1.43 -36.72,1.15 -67.02,-17.99 300.66,-141.31 657.54,-252.95 1011.47,-272.74 601.67,-33.64 767.87,157.31 1032.87,225.43 42.3,-136.01 123.14,-396.31 116.08,-535.99 -20.15,-103.78 -3.15,-79.24 10.95,-191.35 -256.18,0.23 -315.34,47.87 -519.28,76.78 -29.75,41.2 -63.62,-59.53 -12.67,68.23l44.17 62.42c13.05,14.83 32.02,32.65 48.42,50.1 93.22,99.21 223.46,255.85 244.34,401.76 -79.62,-55.83 -90.15,-109.7 -141.58,-184.84 -294.52,-430.32 -885.3,-725.43 -1438.96,-651.39 2.32,64.56 28.65,16.86 59.66,108.03 -113.62,142.72 9.71,153.51 -301.89,164.91 -99.23,235.45 -280.79,146.96 -627.12,125.21l3 -84.65c-123.92,111.17 -325.29,231.83 -372.26,424.67 352.86,61.14 332.27,133.88 413.49,150.83 92.13,19.25 258.72,-149.68 436.21,-5.72 -80.43,59.3 -128.88,-69.21 -365.25,59.91l-33.9 19.54c-517.75,-280.46 -1378.72,-403.59 -2009.71,-561.96 57.51,-42.13 38.22,-30.68 163.12,-12.05 19.02,-263.85 -43.76,-522.18 -105.26,-749.43 -55.38,85.82 -187.71,476.99 -242.03,602.38 -93.73,216.39 -160.48,380.7 -253.16,581.26 -325.01,703.21 -242.99,321.57 -157.41,958.7 7.84,58.33 37.65,361.91 47.15,384.77 79.99,192.6 1355.2,670.03 1695.04,831.17 211.07,100.08 96.85,-3.36 264.3,101.68 89.05,55.86 185.28,88.11 314.77,44.61 -81.37,-79.41 -178.76,-52.77 -236.25,-73.71 -186.48,-327.45 24.83,-916.7 161.32,-1192.24 130.77,-264.03 368.53,-729.2 620.93,-789.6 -475.54,278.81 -987.32,1657.25 -748.56,1901.99 113.67,92.91 595.14,178.66 791.29,241.47l767.75 290.17z"/>
  <path class="fil5" d="M8130.75 21391.92l2712.22 -616.3c140.01,-28.84 291.97,-63.83 440.61,-101.02 143.33,-35.86 303.9,-63.57 462.28,-108.61 -121.09,5.58 -790.91,-236 -985.92,-292.06 -65.65,-18.87 -179.85,-62.84 -254.4,-55.83 -91.32,8.59 -113.4,55.3 -251,46.46 -130.43,-8.38 -338.89,-118.55 -450.86,-166.52 -302.2,-129.48 -582.57,-256.01 -883.73,-373.12 -452.81,-176.07 -436.55,-156.08 -810,-424.13 -31.17,961.5 -324.13,1267.98 -491.45,1948.45 191.17,4.35 388.63,41.06 512.25,142.68z"/>
  <path class="fil5" d="M12505.35 17158.31c28.03,-122.11 103.06,-67.73 171.74,-208.56 134.57,-275.97 219.16,-104.4 385.04,-150.39 -40.81,-42.23 -24.37,-29.34 -88.81,-62.12 -34.77,-17.68 -65.95,-28.79 -102.85,-44.29l-584.92 -227.74c-281.8,-92.6 -549.31,-162.46 -874.18,-186.07 -657.42,-19.23 -1109.77,49.67 -1636.52,385.06 -110.95,70.64 -159.81,69.42 -193.03,203.23 -42.7,171.97 -89.84,518.74 -82.8,704.31l656.79 166.26c94.74,-113.47 273.29,-459.97 623.3,-552.1 -35.04,-196.98 160.52,-284.91 293.15,-223.85 116.49,53.63 -6.65,81.17 198.03,43.23 788.12,-146.08 1041.03,224.11 1235.06,153.03z"/>
  <path class="fil5" d="M8880.82 17450.62c96.08,21.14 171.78,37.03 265.03,55.85 79.21,15.99 210.76,57.47 276.02,26.21 45.16,-182.21 58.07,-480.23 107.53,-695.36 52.92,-230.23 138.6,-428.45 188.39,-637.76 -80.67,26.15 -290.49,123.91 -365.07,166.9 -117.35,67.64 -389.72,481.09 -464.72,615.73 -43.31,77.73 -4.93,351.53 -7.18,468.43z"/>
  <path class="fil5" d="M18183.33 19082.2c69.68,-15.72 323.21,-69.39 371.02,-92.43 -34.12,-53.66 -22.39,-95.75 -22.39,-96.03 -2.54,-315.5 70.34,-989.1 -270.63,-1291.92 -19.75,456.36 -4.25,1059.85 -78,1480.38z"/>
  <path class="fil17" d="M11587.76 12541.94c80.79,-13.71 25.58,-12.58 126.76,-31.52 -101.19,245.04 -260.08,-31.74 -172.36,-107.34l45.6 138.86zm714.04 -124.34c29.14,-87.55 341.86,-241.32 425.91,-279.63 156.57,-71.36 109.03,-21.99 183.18,-184.67 45.96,-100.85 56.77,-153.53 166.27,-200.13 -106.28,175.17 -157.07,281.24 -233.38,503.33 -189.69,552.01 -70.62,325.04 -101.12,559.37 -41.86,321.64 -232.59,848.6 -444.47,973.39 -363.5,-97.26 -259.88,-406.51 -213.89,-565.67 37.92,-131.21 60.31,-239.08 56.17,-383.03 -5.07,-176.18 -20.4,-214.03 -189.72,-223.54 -9.41,271.22 -103.53,751.41 -293.08,836.3 16.12,-109 121.64,-265.32 167.49,-394.39 59.4,-167.24 76.88,-256.93 93.49,-450.1 359.85,-93.05 312.02,317.67 248.14,564.64 -74.95,289.74 -133.95,457.11 156.03,559.08 151.39,-176.86 257,-467.06 328.94,-736.64 131.51,-492.8 3.21,-182.18 44.19,-443.59 19.57,-124.83 100,-281.66 131.05,-406.13 -175.22,71.33 -335.34,197.46 -525.2,271.41zm155.91 -692.63c-115.27,12.78 -472.92,-59.61 -594.24,-92.84 -255.36,-69.93 -309.46,-145.47 -188.8,-419.96 149.89,-340.98 464.13,-3.34 628.5,123.66 24.2,18.71 72.53,50.01 105.55,66.8 33.97,17.28 48.19,20.08 69.52,30.24l56.72 32.14c-45.36,97.26 -58.62,163.19 -147.22,210.31 20.73,-105.6 30.89,-105.19 78.69,-185.73l-156.04 -84.98c-104.35,-60.47 -338.26,-311.22 -455.55,-285.23 -85.75,44.35 -130.11,57.21 -109.07,173.63 79.89,77.8 295.29,119.34 399.58,151.09 -55.26,35.82 -32.62,31.8 -127.18,2.85l-332.11 -119.65 9.63 179.17c194.85,139.6 579.86,75.89 762.02,218.5zm251.62 -1032.49c-29.18,284.34 12.76,207.38 63.27,403.96 -45.67,91.31 -117.5,174.85 -243.48,140.44 38.2,-46.22 118.16,-79.91 183.5,-134.02 -24.82,-77.52 -66.16,-111.33 -71.06,-203.25 -12.29,-230.91 53.99,-195.07 67.77,-207.13zm-153.62 -206.49c8.44,-59.15 19.4,-116.26 19.14,-176.24 -0.41,-92.62 -20.6,-76.89 18.91,-146.26 51.61,61.6 44.89,73.72 52.59,171.58l45.92 -134.4c43.23,76.59 -3.2,220.05 -25.24,307.44 -99.25,-37.17 9.71,-17.6 -111.32,-22.12zm-2572.53 -991.46c-0.23,-197.03 204.44,-258.46 259.07,-413.53l11.6 -45.47c74.9,77.86 135.31,182.13 192.44,297.01l94.21 273.59c11.56,100.79 -2.62,60.32 -15.71,79.76 -21.38,-40.6 -14.66,-42.14 -28.28,-83.17l-45.61 -85.99c-47.7,63.09 -82.36,96.21 -105.02,203.7 62.89,85.27 125.38,128.29 146.6,255.36 -86.13,-43.48 -52,-1.66 -125.28,-123.14 -103.47,-171.5 -160.53,-113.98 73.07,-406.68l-67.9 -163.47c-93.89,81.84 -153.51,210.78 -239.68,260.64 17.85,-118.29 145.5,-221.64 217.52,-292.13l-71.73 -120.56c-4.97,3.21 -11.95,7.58 -14.76,9.85l-280.54 354.23zm-3168.56 3988.48c-97.03,38.77 -53.65,59.21 -124.16,274.07 -461.6,1406.49 -749.4,3119.75 -450.78,4588.26 41.02,201.74 126.75,480.84 146.21,666.91 -149.73,-178.54 -172.19,-738.46 -269.85,-861.37 0,88.09 -12.63,151.59 -14.2,209.26 38.34,26.22 66.65,-19.96 1.3,191.05l-145.05 591.87c-306.45,1379.62 -50.84,1689.4 -45.92,2773.99l1169.1 -274.67c73.98,-18.51 122.99,-26.71 202.59,-43.96 41.93,-9.09 61.06,-11.41 99.5,-23.92 7.18,-2.34 27.04,-9.54 32.86,-12.14 69.41,-30.96 8.1,10.36 36.41,-23.01 269.2,-1089.82 776.56,-1669.44 532.79,-2923.5 -49.16,-252.86 -59.9,-210.11 47.07,-446.15 448.68,-990.03 923.24,-2064.49 952.31,-3190.95 3.8,-147.27 27.95,-958.66 -90.99,-1080.69 -79.47,88.89 -300.75,303.3 -423.51,355.42 17.77,-9.21 237.62,-212.09 270.9,-243.34 172.87,-162.31 341.56,-381.53 474.51,-582.68 305.01,-461.48 499.17,-1010.2 550.18,-1568.86 12.01,-131.48 -1.78,-369.34 44.61,-463.63 81.91,189.6 -51.73,884.06 -108.21,1095.09 -58.22,217.56 30.78,301.51 28.16,519.54 -2.22,184.1 -43.3,361.36 -58.98,531.77 84.98,-84.07 100.92,-172.32 145.4,-298.09 79.67,-225.29 52.32,-151.98 1.16,-363.59 -64.47,-266.64 17.77,-564.4 235.86,-623.38 -114.25,205.45 -296.9,220.74 -138.03,730.24 47.3,151.72 33.65,83.14 -14.29,187.94 -81.27,177.66 -93.13,352.01 -265,454.68 -32.08,-278.47 151.71,-676.72 1.52,-906.58 -67.14,102.71 -145.49,331.29 -218.31,465.38 -76.56,140.98 -49.83,453.98 -139.08,544.54l18.4 -304.91 -354.93 445.43c102.93,309.1 112.79,870.42 97.19,1236.49l168.91 -236.83c228.34,-342.67 186.48,-284.44 412.6,-332.69 479.59,-102.35 428.5,-668.16 1150.56,-677.92 -19.83,-316.07 -188.65,-248.47 -427.9,-143.15 -274.57,120.87 -121.19,187.8 -456.47,197.53 24.02,-51.58 59.17,-81.47 96.75,-161.32 277.71,-590.06 150.2,-644.62 111.83,-993.74 -15.08,-137.21 -38.88,-358.56 8.43,-481.27l33.75 92.73c2.22,23.7 -3.59,93.25 -4.01,123.74 -2.92,213.4 45.88,425.62 79.93,629.34 29.4,175.91 -154.8,578.5 -209.25,729.62 155.46,-42.27 96.72,-63.92 216.69,-137.76 393.26,-242.03 722.72,-27.95 554.69,138.7 -38.86,38.54 -316.06,99.57 -421.39,169.36 -127.94,84.75 -230.1,147.05 -303.73,260.28 -331.1,509.13 -538.39,132 -692.48,475.77 163.39,65.94 183,95.95 371.39,148.5l108.49 49.12c-232.17,-10.76 -362.23,-110.13 -497.63,-182.07 -42.58,45.8 -250.26,375.6 -285,454.56 -40.82,92.78 -76.71,466.35 -106.71,608.08 -74.21,350.51 -229.63,697.06 -181.34,863.36 22.18,76.39 41.77,184.18 80.44,253.82l386.04 -543.02c-71.62,17.14 -114.97,46.68 -173.35,10.25 541.56,-173.55 1828.82,-955.34 1989.59,-1429.81 -221.82,26.47 -717.21,207.22 -914.78,82.33 81.93,-28.15 522.04,-51.12 688.58,-92.19 157.3,-38.78 455.69,-126.68 582.93,-202.67l-104.88 -73.71c28.46,-33.68 -27.47,-22.31 82.82,-55.2l0.96 44.35c-0.75,36.45 -18.85,-4.27 -0.96,28.73 143.18,11.06 221.52,-19.32 330.23,-81.35 87.03,-49.66 167.74,-140.83 255.65,-163.73 -147.83,260.44 -855.46,445.99 -890.4,514 -2.04,3.98 -7.09,12.4 -9.49,17.32l-83.58 193.48c362.9,-40.48 503.42,-121.74 939.07,-81.9 329.25,30.1 518.3,150.94 758.45,245.52l-420.74 -678.64c-73.49,-124.81 -52.14,-125.59 -179.42,-189.16 -475.83,-237.67 -485.24,-198.73 -451.42,-997.43 59.68,-19.97 188.88,-48.96 259.5,-16.55l-190.11 39.96c-96.18,1137.52 238.36,585.61 587.65,1113.38l439.03 668.42c122.82,181 437.65,675.74 524.07,878.99 12.69,29.85 32.45,48.82 18.46,97.24l-35.32 37.22c-1.26,-3.93 -9.22,4.22 -13.39,7.07 -1.97,92.24 15.96,132.28 -27.64,189.12l-1.11 267.2 148.6 -1.3c35.79,-192.72 10.07,-317.72 14.3,-504.72 10.17,-448.54 27.65,-276.34 -72.77,-254.66l-80.41 -265.88c-124.92,80.1 -147.32,-89.93 -157.7,-194.02 -43.12,-432.93 93.92,-768.67 284.5,-1103.17 -47.46,-113.53 -280.41,-267.85 -191.59,-410.31 255.8,-410.24 195.65,-461.61 394.47,-936.61 85.85,-205.12 49.99,-345.43 -10.31,-541.8 -64.84,142.14 -85.14,345.46 -130.18,499.7l-65.8 136.16c10.18,-228.42 118.62,-410.99 135.17,-638.36 24.42,-335.38 -145.62,-366.45 -170.62,-579.16 117.36,203.56 158.48,263.3 232.34,486.7 153.02,462.85 133.76,426.09 -40.69,858.42 -86.35,214.01 -119.67,494.5 -254.62,679.86l-79.63 101.39c34.48,95.92 142.88,235.63 230.52,278.29 122.59,-109.92 254.22,-254.4 395.61,-350.45 69.07,-46.91 153.62,-77.32 229.94,-137.72 441.84,-349.62 558.1,-490.59 1204.99,-622.35 -30.34,-257.45 -69.52,-703.32 -161.88,-885.05l-116.93 280.24c-16.96,-38.05 259.57,-849.87 -22.75,-1585.95 -98.78,-257.56 -224.26,-429.19 -389.81,-570.87 -109.75,-93.94 -455.73,-247.59 -621.92,-307.49 -65.25,73.5 -97.96,198.64 -145.92,290.62 -190.34,365.09 -274.51,344.73 -379.72,481.71 -69.99,91.14 -47.73,218.29 -93.16,325.07 -120.2,282.61 -694.85,612.28 -1018,702.55 -487.93,136.31 -885.2,-424.1 -1070.48,-627.88 -113.55,-124.88 -484.6,-590.93 -517.9,-782.45 -37.29,-214.48 54.04,-355.83 -146.05,-426.67 -175.96,-62.29 -431.71,-326.96 -459.93,-519.07 63.5,123.71 399.87,572.5 587.41,531.94 33.25,-97.11 2.45,-173.31 59.5,-265.34 26.9,201.66 -33.68,526.11 19.58,716.06 72.49,258.49 806.96,1060.2 990.85,1221.19 115.24,100.89 471.44,149.87 636.82,86.33 104.55,-40.17 374.2,-217.76 464.6,-278.66 117.2,-78.95 322.97,-240.34 387.54,-349.62 9.02,-15.28 164.4,-540.44 168.39,-570.73 -413.52,-139.63 -283.61,8.17 -547.9,32.82 49.97,-97.89 73.42,-76.24 109.81,-205.92 52.46,-186.95 2.85,-53.91 -49.56,-195.48 157.06,-110.21 115.28,-131.88 195.42,-315.64l325.24 -708.31c64.62,-128.5 100.23,-231.73 212.52,-290.08 218.58,44.55 199.67,247.57 287.2,402.94 35.48,-470.65 -92.48,-813.77 -311.83,-1145.59l-32.03 57.77c-7.45,18.99 -11.19,36.42 -16.91,56.66l-121.25 346.82c-65.7,157.57 -143.92,276.52 -229.31,411 -275.6,434.05 -304.96,390.43 -582.61,661.74 -34.69,-502.61 31.79,-749.94 -128.41,-1215.42 -111.99,-325.39 -321.03,-646.74 -515.1,-824.21l-109.04 394.2c15.49,315.84 309.64,849.56 399.94,1138.45 -230.12,-217.16 -294.24,-746.34 -420.76,-1028.22 -86.99,133.01 -110.25,494.62 -116.93,683.83 199.43,0.83 302.27,0.79 367.68,173.24 44.24,116.61 80.19,309.73 99.47,440.13 23.08,156.07 48.07,300.13 93.3,449.85 58.55,193.82 90.23,219.76 154.61,358.73l-145.06 3.61 -150.79 285.52c-150.76,-277.92 -357.52,-524.92 -671.56,-597.75l-147.09 -44.79c179.56,-69.84 406.91,0.11 547.57,83.93 158.32,94.34 210.89,179.42 295.71,368.2 100.32,-85.16 65.63,-169.2 -0.12,-268.99 -173.49,-263.32 -265.53,-586.15 -380.84,-872.31 -101.4,49.63 -153.27,186.49 -201.93,291.78 -50.27,108.78 -77.91,215.47 -110.75,333.76 -30.44,-53.43 -28.12,-21.13 -13.61,-113.7 34.21,-218.4 266.01,-476.35 287.6,-573.72 -62.15,-62.1 -133.38,-82.7 -246.31,-82.29 -160.3,0.59 -132.7,27.18 -196.11,124.88 -59.98,-134.94 84.09,-182.87 139.76,-263.74 -58.09,-75.5 -262.37,-450.71 -324.65,-482.5 -8.07,348.63 19.67,658.16 21.62,986.84 -185.11,-105.04 -191.5,-378.45 -301.6,-552.12 -16.9,297.2 50.25,444.69 114.2,679.95 -308.82,-91.51 -444.6,-715.7 -659.18,-870.56 -156.86,50.97 -281.62,222.9 -356.62,374.44 -276.52,558.7 230.57,1080.02 683.91,1234.53 -22.73,14.1 24.11,82.9 -207.5,-39.52 -52.41,-27.69 -126.4,-75.98 -165.99,-105.58 -121.9,-91.09 -168.49,-204.07 -317.67,-227.23 -162.92,-25.32 -298.67,-41.68 -461.6,-74.45 -150.04,-30.16 -304.73,-89.53 -419.41,-105.66 113.91,53.67 267.42,155.79 310.57,259.23 -94.64,-56.13 -159.99,-129.85 -292.45,-197.85 -841.23,-431.88 -1753.15,252.79 -2109.07,1000.68 -242.78,510.13 -302.63,1011.24 -258.95,1659.1 19.45,288.54 78.53,540.44 141.77,816.7 16.58,72.4 208.33,638.71 177.14,696.91 -69.25,-126.15 -224.76,-541.14 -212.63,-676.04z"/>
  <path class="fil17" d="M15394.15 17792.46c-11.61,128.02 -2.76,407.27 -66.4,495.83 -70.09,-101.39 19.48,-360.53 -2.55,-499.97 -356.58,4.44 -162.33,-65.72 -290.07,459.91 -36.92,-41.49 -46.27,71.42 -11.49,-225.07 9.69,-82.69 22.49,-164.11 30.09,-241.12l-237.29 -41.6c392.34,-36.22 280.61,4.09 414.41,2.35 131.62,-1.71 81.43,13.41 121.53,-55.03 89.4,26.88 23.9,46.03 167.32,30.6 95.23,-10.23 98.83,-50.43 169.2,7.06 -77.6,37.06 -200.73,40.25 -294.75,67.04zm1710.49 -459.71l16.37 -388.11c-61.89,-28.94 66.31,27.7 -29.89,-6.63 -29.01,-10.35 -19.4,-4.11 -42.86,-18.11 28.96,-75.17 55.2,-70.61 69.22,-149.98 28.12,-159.18 -35.22,-557.17 8.29,-649.97 67.54,88.46 35.81,458.63 35.01,598.64 77.99,-56.53 163.6,-285.16 201.48,-396.87 71.3,-210.24 85.19,-419.31 139.35,-485.84 25.73,68.24 -9.27,269.28 -42.06,382.21 -41.42,142.65 -72.74,230.93 -136.79,358.09 -44.78,88.91 -153.79,237.37 -162.5,320.01 -14.25,135.11 18.89,346.95 -55.62,436.56zm-4270.34 2978.02l5305.13 -1228.57 78.63 -1345.88c-80.95,208.55 -92.46,454.93 -180.96,667.76 -0.99,-2.86 195.21,-1235.78 215.01,-1413.16 128.77,-1153.49 -86.69,-1850.47 -660.43,-2722.88 -174.36,-265.12 -582.88,-721.97 -909.25,-814.97l-124.03 123.19c35.82,46.78 103.71,106.09 155.83,108.8 -234.46,-14.36 -563.11,-365.92 -776.87,80.85 35.05,40.45 103.85,194.25 86.98,244.39l-94.27 -246.12 -123.97 74.26c59.35,-131.95 143.9,-203.35 206.6,-331.08 -470.12,-38 -1060.08,227.82 -1305.64,463.95 26.32,56.4 -10.38,-3.93 39.34,63.36 20.06,27.15 34.26,39.61 55.54,67.39 32.33,42.22 56.38,78.6 77.08,138.2 -104.31,-59.55 -55.13,-144.51 -191.67,-237.39 -290.49,115.4 -694.03,738.32 -854.77,1106.12l-182.73 484.16c-33.63,-439.37 487.39,-1188.91 801.07,-1489.11 89.24,-85.4 208.92,-167.63 319.57,-247.12 113.64,-81.64 229.97,-146.71 356.46,-208.95 132.92,-65.42 261.02,-116.64 415.52,-149.93 236.78,-51.03 248.62,-22.75 403.35,-34.07 160.16,-11.72 83.22,7.09 109.49,-40.44 -273.79,-130.52 -795.03,-129.52 -1100.87,-48.33 -949.49,252.04 -1645.16,1483.19 -1483.55,2348.88l37.48 -22.23c96.67,-56.71 73.83,-54.59 167.08,-50.71 -400.67,181.15 -272.33,1063.31 -134.06,1255.57 58.29,81.05 33.67,87.23 160.74,71.05 56.29,-78.64 39.37,-28.27 24.34,-144.83 -6.1,-47.33 -18.57,-104.41 -24.71,-158.1 -11.41,-99.9 -21.38,-188.08 -22.25,-294.86 -1.67,-203.65 -4.93,-433.82 20.47,-617.76 77.35,146.08 0.38,699.5 63.06,976.16l27.07 71.05c1.15,-3.5 5.68,11.01 10.38,16.27l20.4 -246.97c52.05,1303.19 -291.79,1878.18 -648.74,2884.96 -102.96,290.41 -238.14,562.77 -337.85,847.09z"/>
  <path class="fil17" d="M16265.41 13426.24c25.19,36.6 -26.39,19.24 119.22,80.15 64.9,27.15 84.71,39.84 152.8,53.21l58.44 -156.3 -230.84 -66.86 -99.62 89.8z"/>
  <path class="fil18" d="M10828.57 17136.61c19.3,-115.64 137.73,-182.44 249.27,-125.68 -1.57,26.31 39.3,10.73 -38.47,52.28l-210.8 73.4zm-1947.75 314.01c2.25,-116.9 -36.13,-390.7 7.18,-468.43 75,-134.64 347.37,-548.09 464.72,-615.73 74.58,-42.99 284.4,-140.75 365.07,-166.9 -49.79,209.31 -135.47,407.53 -188.39,637.76 -49.46,215.13 -62.37,513.15 -107.53,695.36 -65.26,31.26 -196.81,-10.22 -276.02,-26.21 -93.25,-18.82 -168.95,-34.71 -265.03,-55.85zm-1428.19 4088.73l60.58 0c27.58,-117.3 62.54,-131.25 76.35,-255.49 226.06,17.8 371.99,104.76 521.43,117.26l19.76 -9.2c-123.62,-101.62 -321.08,-138.33 -512.25,-142.68 167.32,-680.47 460.28,-986.95 491.45,-1948.45 373.45,268.05 357.19,248.06 810,424.13 301.16,117.11 581.53,243.64 883.73,373.12 111.97,47.97 320.43,158.14 450.86,166.52 137.6,8.84 159.68,-37.87 251,-46.46 74.55,-7.01 188.75,36.96 254.4,55.83 195.01,56.06 864.83,297.64 985.92,292.06l-767.75 -290.17c-196.15,-62.81 -677.62,-148.56 -791.29,-241.47 -238.76,-244.74 273.02,-1623.18 748.56,-1901.99 -252.4,60.4 -490.16,525.57 -620.93,789.6 -136.49,275.54 -347.8,864.79 -161.32,1192.24 57.49,20.94 154.88,-5.7 236.25,73.71 -129.49,43.5 -225.72,11.25 -314.77,-44.61 -167.45,-105.04 -53.23,-1.6 -264.3,-101.68 -339.84,-161.14 -1615.05,-638.57 -1695.04,-831.17 -9.5,-22.86 -39.31,-326.44 -47.15,-384.77 -85.58,-637.13 -167.6,-255.49 157.41,-958.7 92.68,-200.56 159.43,-364.87 253.16,-581.26 54.32,-125.39 186.65,-516.56 242.03,-602.38 61.5,227.25 124.28,485.58 105.26,749.43 -124.9,-18.63 -105.61,-30.08 -163.12,12.05 630.99,158.37 1491.96,281.5 2009.71,561.96l33.9 -19.54c236.37,-129.12 284.82,-0.61 365.25,-59.91 -177.49,-143.96 -344.08,24.97 -436.21,5.72 -81.22,-16.95 -60.63,-89.69 -413.49,-150.83 46.97,-192.84 248.34,-313.5 372.26,-424.67 203.09,-150.75 555.08,-294.3 866.35,-313.5 553.66,-74.04 1144.44,221.07 1438.96,651.39 51.43,75.14 61.96,129.01 141.58,184.84 -20.88,-145.91 -151.12,-302.55 -244.34,-401.76 -16.4,-17.45 -35.37,-35.27 -48.42,-50.1l-44.17 -62.42c-39.02,-20.83 -89.42,-50.68 -117.01,-71.79 -61.83,-47.33 -69.12,-27.14 -69.83,-119.85l-12.05 -16.05c-194.03,71.08 -446.94,-299.11 -1235.06,-153.03 -204.68,37.94 -81.54,10.4 -198.03,-43.23 -132.63,-61.06 -328.19,26.87 -293.15,223.85 -350.01,92.13 -528.56,438.63 -623.3,552.1l-656.79 -166.26c-7.04,-185.57 40.1,-532.34 82.8,-704.31 33.22,-133.81 82.08,-132.59 193.03,-203.23 526.75,-335.39 979.1,-404.29 1636.52,-385.06l102.59 -14.46c-5.63,-3.53 -13.67,-6.58 -18.2,-8.14 -4.61,-1.58 -12.96,-5.74 -18.83,-7.51 -6.07,-1.85 -12.99,-4.54 -20.01,-6.32l-93.09 -13.38c-1032.34,-107.11 -1616.1,429.48 -1735.5,461.43 26.38,-139.49 96.86,-486.37 202.6,-560.53l479.31 -308.58c622.05,-432.78 434.23,-533.93 935.83,-616.12 490.24,-80.32 931.16,-27.21 1327.38,161.62 231.02,110.1 233.84,209.83 369.47,417.87 100.92,154.81 243.77,342.18 243.53,545.04l11.01 189.24c43.6,-56.84 25.67,-96.88 27.64,-189.12 4.17,-2.85 12.13,-11 13.39,-7.07l35.32 -37.22c13.99,-48.42 -5.77,-67.39 -18.46,-97.24 -86.42,-203.25 -401.25,-697.99 -524.07,-878.99l-439.03 -668.42c-349.29,-527.77 -683.83,24.14 -587.65,-1113.38l190.11 -39.96c-70.62,-32.41 -199.82,-3.42 -259.5,16.55 -33.82,798.7 -24.41,759.76 451.42,997.43 127.28,63.57 105.93,64.35 179.42,189.16l420.74 678.64c-240.15,-94.58 -429.2,-215.42 -758.45,-245.52 -435.65,-39.84 -576.17,41.42 -939.07,81.9l83.58 -193.48c2.4,-4.92 7.45,-13.34 9.49,-17.32 34.94,-68.01 742.57,-253.56 890.4,-514 -87.91,22.9 -168.62,114.07 -255.65,163.73 -108.71,62.03 -187.05,92.41 -330.23,81.35 -17.89,-33 0.21,7.72 0.96,-28.73l-0.96 -44.35c-110.29,32.89 -54.36,21.52 -82.82,55.2l104.88 73.71c-127.24,75.99 -425.63,163.89 -582.93,202.67 -166.54,41.07 -606.65,64.04 -688.58,92.19 197.57,124.89 692.96,-55.86 914.78,-82.33 -160.77,474.47 -1448.03,1256.26 -1989.59,1429.81 58.38,36.43 101.73,6.89 173.35,-10.25l-386.04 543.02c-38.67,-69.64 -58.26,-177.43 -80.44,-253.82 -48.29,-166.3 107.13,-512.85 181.34,-863.36 30,-141.73 65.89,-515.3 106.71,-608.08 34.74,-78.96 242.42,-408.76 285,-454.56 135.4,71.94 265.46,171.31 497.63,182.07l-108.49 -49.12c-188.39,-52.55 -208,-82.56 -371.39,-148.5 154.09,-343.77 361.38,33.36 692.48,-475.77 73.63,-113.23 175.79,-175.53 303.73,-260.28 105.33,-69.79 382.53,-130.82 421.39,-169.36 168.03,-166.65 -161.43,-380.73 -554.69,-138.7 -119.97,73.84 -61.23,95.49 -216.69,137.76 54.45,-151.12 238.65,-553.71 209.25,-729.62 -34.05,-203.72 -82.85,-415.94 -79.93,-629.34 0.42,-30.49 6.23,-100.04 4.01,-123.74l-33.75 -92.73c-47.31,122.71 -23.51,344.06 -8.43,481.27 38.37,349.12 165.88,403.68 -111.83,993.74 -37.58,79.85 -72.73,109.74 -96.75,161.32 335.28,-9.73 181.9,-76.66 456.47,-197.53 239.25,-105.32 408.07,-172.92 427.9,143.15 -722.06,9.76 -670.97,575.57 -1150.56,677.92 -226.12,48.25 -184.26,-9.98 -412.6,332.69l-168.91 236.83c15.6,-366.07 5.74,-927.39 -97.19,-1236.49l354.93 -445.43 -18.4 304.91c89.25,-90.56 62.52,-403.56 139.08,-544.54 72.82,-134.09 151.17,-362.67 218.31,-465.38 150.19,229.86 -33.6,628.11 -1.52,906.58 171.87,-102.67 183.73,-277.02 265,-454.68 47.94,-104.8 61.59,-36.22 14.29,-187.94 -158.87,-509.5 23.78,-524.79 138.03,-730.24 -218.09,58.98 -300.33,356.74 -235.86,623.38 51.16,211.61 78.51,138.3 -1.16,363.59 -44.48,125.77 -60.42,214.02 -145.4,298.09 15.68,-170.41 56.76,-347.67 58.98,-531.77 2.62,-218.03 -86.38,-301.98 -28.16,-519.54 56.48,-211.03 190.12,-905.49 108.21,-1095.09 -46.39,94.29 -32.6,332.15 -44.61,463.63 -51.01,558.66 -245.17,1107.38 -550.18,1568.86 -132.95,201.15 -301.64,420.37 -474.51,582.68 -33.28,31.25 -253.13,234.13 -270.9,243.34 122.76,-52.12 344.04,-266.53 423.51,-355.42 118.94,122.03 94.79,933.42 90.99,1080.69 -29.07,1126.46 -503.63,2200.92 -952.31,3190.95 -106.97,236.04 -96.23,193.29 -47.07,446.15 243.77,1254.06 -263.59,1833.68 -532.79,2923.5z"/>
  <path class="fil19" d="M4920.15 14588.77c60.81,49.39 32.5,39.87 82.78,99.42 47.54,56.32 61.95,57.6 119,101.27l399.92 438.09c74.25,84.86 107.38,138.53 148.5,292.28 -87.24,-59.61 -643.58,-720.94 -819.33,-830.64l69.13 -100.42zm-637.26 -1426c16.09,97.54 20.18,67.45 84.64,120.02l229.54 214.06c67.05,61.02 39.05,39.07 91.39,104.63l433.77 419.58 -40.79 131.59c-205.8,-138.62 -227.75,-247.8 -486.24,-482.3 -59.31,-53.8 -86.12,-61.08 -140.7,-106.54 -55.35,-46.12 -65.5,-94.76 -102.82,-109.38 -93.24,-36.54 20.25,104.49 -127.82,-25.92 -9.09,-7.99 -56.29,-59.69 -62.11,-63.01 -52.34,-29.83 -4.56,-70.9 -36.58,10.39l493.25 467.78c92.08,85.3 162.37,149.27 251.42,240.34 140.5,143.69 201.53,157.93 162.46,280.57 -63.28,-26.62 -751.29,-815.5 -864.56,-858.1 8.45,102.83 5.14,74.52 82.86,137.74l309.74 330.76c153.8,186.63 337.05,327.53 425.36,438.62 -31.04,26.83 -41.78,35.78 -69.91,60.06 -82.08,-167.53 -182.99,-192.81 -258.36,-275.38l-367.99 -419.12c-50.12,-51.68 -76.42,-57.91 -128.01,-117.95 -111.19,-129.39 -160.08,-227.27 -275.78,-269.88 64.22,215.83 94.88,214.64 225.28,344.34l648.66 678.85c67.01,58.95 63.5,35.4 105.2,115.03 -40.56,68.13 -13.02,38.13 -80.27,70.17l-282.82 -271.21c-172.14,-158.36 -703.8,-717.8 -850.86,-804.37 44.64,114.87 482.27,486.61 567.2,571 25.12,24.96 570.66,513.49 516.37,562.32 -35.97,32.36 -117.73,-105.92 -260.42,-227.78 -156.98,-134.05 -637.04,-677.33 -809.67,-764.19 50.5,121.77 914.12,960.74 1009.54,1012.19l-10.17 67.99 55.31 134.47c90.91,114.69 240.42,240.31 336.11,321.92 150.46,128.32 244,276.12 353.54,243.55 -93.42,-99.89 -203.27,-262.11 -294.89,-376.82 -95.27,-119.28 -281.99,-222.29 -327.89,-360.67 121.61,15.03 500.76,465.89 566.32,540.98 82.46,94.46 196.96,189.16 271.54,270.02 143.13,155.18 71.48,280.95 153.82,420.12 5.59,-80.59 -6.39,-68.24 22.67,-118.58 -31.22,-244.27 -60.62,-489.61 -212.09,-610.57 -122.29,-97.65 -260.3,-304.04 -375.78,-409.5 -79.96,-73.02 -188.85,-176.67 -130.91,-276.82 121.67,90.75 123.34,160.15 319.14,333.27 50.25,44.43 57.91,70.96 114.62,90.13 -33.52,-89.4 -56.24,-78.5 -110.65,-142.48 -220.43,-259.18 -332.34,-316.7 -273.85,-441.94 82.71,86.39 411.82,454 483.18,486.81l-298.09 -350.31c-240.83,-251.6 -148.34,-88.62 -135.83,-394.65 104.8,31.61 596.08,613.19 738.23,701.97 -121.5,-206.51 -163.53,-208.54 -281.14,-332.33 -206.04,-216.85 -444.59,-384.61 -404.05,-522.54 206.26,140.47 484.73,488.05 581.02,559.5 -80.92,-128.26 -354.93,-378.04 -472.7,-503.94 -65.87,-70.42 -113.08,-82.71 -62.83,-208.29 74.19,36.37 89.77,56.73 145.16,126.22 54.36,68.23 51.61,56.34 121.54,123.82 60.18,58.06 210.88,206.45 271.57,241.56 -103.97,-167.67 -353.61,-382.35 -512.7,-540.4 20.53,-382.82 610.92,-1308.1 729.64,-1586.73l-11.5 204.91c79.63,-136.31 147.68,-388.51 227.92,-555.33 195.58,-406.62 289.36,-502.9 512.63,-834.57 2.93,-4.34 6.66,-10.55 9.52,-14.96 203.42,-313.58 463.26,-372.1 436.24,-461.75l95.83 -98.82c2.42,-10.23 8.51,-11.9 13.36,-17.37 -141.68,25.6 -134.12,52.81 -223.37,139.23 -860.59,833.33 -751.44,1107.51 -1225.51,1802.15l-639.6 1341.94c-145.69,-81.83 -510.22,-504.73 -604.27,-524.56 38.16,109.94 228.07,269.65 308.25,336.2 277.57,230.37 297.64,219.87 246.76,344.64 -166.37,-106.32 -540.07,-550.42 -713.44,-634.06l556.67 543.37c75.49,65.29 159.18,100.98 123.35,226.91l-432.5 -410.45c-125.59,-114.49 -285.53,-349.28 -431.15,-388.15z"/>
  <path class="fil20" d="M12517.4 17174.36c0.71,92.71 8,72.52 69.83,119.85 27.59,21.11 77.99,50.96 117.01,71.79 -50.95,-127.76 -17.08,-27.03 12.67,-68.23 203.94,-28.91 263.1,-76.55 519.28,-76.78 -14.1,112.11 -31.1,87.57 -10.95,191.35l96.63 -574.07c-482.54,-8.62 -613.89,249.74 -804.47,336.09z"/>
  <path class="fil21" d="M10594.28 17357.55l-3 84.65c346.33,21.75 527.89,110.24 627.12,-125.21 311.6,-11.4 188.27,-22.19 301.89,-164.91 -31.01,-91.17 -57.34,-43.47 -59.66,-108.03 -311.27,19.2 -663.26,162.75 -866.35,313.5z"/>
  <path class="fil22" d="M12457.71 11724.97c-182.16,-142.61 -567.17,-78.9 -762.02,-218.5l-9.63 -179.17 332.11 119.65c94.56,28.95 71.92,32.97 127.18,-2.85 -104.29,-31.75 -319.69,-73.29 -399.58,-151.09 -21.04,-116.42 23.32,-129.28 109.07,-173.63 117.29,-25.99 351.2,224.76 455.55,285.23l156.04 84.98c-47.8,80.54 -57.96,80.13 -78.69,185.73 88.6,-47.12 101.86,-113.05 147.22,-210.31l-56.72 -32.14c-21.33,-10.16 -35.55,-12.96 -69.52,-30.24 -33.02,-16.79 -81.35,-48.09 -105.55,-66.8 -164.37,-127 -478.61,-464.64 -628.5,-123.66 -120.66,274.49 -66.56,350.03 188.8,419.96 121.32,33.23 478.97,105.62 594.24,92.84z"/>
  <path class="fil23" d="M9983.18 9494.53l280.54 -354.23c2.81,-2.27 9.79,-6.64 14.76,-9.85l71.73 120.56c-72.02,70.49 -199.67,173.84 -217.52,292.13 86.17,-49.86 145.79,-178.8 239.68,-260.64l67.9 163.47c-233.6,292.7 -176.54,235.18 -73.07,406.68 73.28,121.48 39.15,79.66 125.28,123.14 -21.22,-127.07 -83.71,-170.09 -146.6,-255.36 22.66,-107.49 57.32,-140.61 105.02,-203.7l45.61 85.99c13.62,41.03 6.9,42.57 28.28,83.17 13.09,-19.44 27.27,21.03 15.71,-79.76l-94.21 -273.59c-57.13,-114.88 -117.54,-219.15 -192.44,-297.01l-11.6 45.47c-54.63,155.07 -259.3,216.5 -259.07,413.53z"/>
  <path class="fil24" d="M18602.28 17131.34c312.84,-97.64 392.25,-197.99 900.47,-194.15l-622.28 113.58c6.72,7.19 15.98,4.71 19.24,12.02 13.86,31.07 385.3,-37.01 423.33,-42.66 128.14,-19.05 331.21,-11.05 412.8,-113.86 -169.76,-74.9 -979.23,0.21 -1133.56,225.07z"/>
  <path class="fil25" d="M15394.15 17792.46c94.02,-26.79 217.15,-29.98 294.75,-67.04 -70.37,-57.49 -73.97,-17.29 -169.2,-7.06 -143.42,15.43 -77.92,-3.72 -167.32,-30.6 -40.1,68.44 10.09,53.32 -121.53,55.03 -133.8,1.74 -22.07,-38.57 -414.41,-2.35l237.29 41.6c-7.6,77.01 -20.4,158.43 -30.09,241.12 -34.78,296.49 -25.43,183.58 11.49,225.07 127.74,-525.63 -66.51,-455.47 290.07,-459.91 22.03,139.44 -67.54,398.58 2.55,499.97 63.64,-88.56 54.79,-367.81 66.4,-495.83z"/>
  <path class="fil26" d="M13401.84 10900.17c181.17,-108.04 495.34,-694.55 552.32,-994.38 -64.84,50.03 -118.26,149.86 -162.38,224.7 -118.31,200.72 -325.32,573.02 -389.94,769.68z"/>
  <path class="fil27" d="M12555.71 10485.99c121.03,4.52 12.07,-15.05 111.32,22.12 22.04,-87.39 68.47,-230.85 25.24,-307.44l-45.92 134.4c-7.7,-97.86 -0.98,-109.98 -52.59,-171.58 -39.51,69.37 -19.32,53.64 -18.91,146.26 0.26,59.98 -10.7,117.09 -19.14,176.24z"/>
  <path class="fil28" d="M10828.57 17136.61l210.8 -73.4c77.77,-41.55 36.9,-25.97 38.47,-52.28 -111.54,-56.76 -229.97,10.04 -249.27,125.68z"/>
  <path class="fil29" d="M11305.66 21473.74c-81.48,-359.07 -159.43,-581.29 -232.51,-665 -74.22,-84.43 -178.54,-110.9 -313.2,-80.34 -154.29,35.01 -261.98,119.42 -322.33,252.09 -59.42,132.45 -66.57,300.25 -20.1,505.03l425.02 1872.99 -1127.71 255.91 -793.19 -3495.38 1066.95 -242.11 102.06 449.78 55.61 318.73c64.88,-329.35 168.71,-578.08 310.34,-746.88 140.69,-168.61 340.19,-281.72 598.27,-340.29 320.73,-72.78 581.55,-32.65 781.51,120.59 199.96,153.24 343.65,422.48 431.08,807.74l550 2423.76 -1127.72 255.9 -384.08 -1692.52zm3179.42 208.67c197.3,-44.77 331.39,-155.83 401.32,-332.95 70.87,-177.33 73.15,-409.9 7.58,-698.84 -65.14,-287.07 -162.87,-488.09 -294.33,-603.78 -130.73,-116.83 -300.72,-151.02 -509.25,-103.7 -202.91,46.05 -339.12,147.75 -409.76,304.39 -69.5,157.35 -73.74,372.66 -11.57,646.64 68.75,302.98 172.39,521.34 311.83,654.88 138.51,133.75 306.88,178.13 504.18,133.36zm-642.19 -2804c544.22,-123.49 987.74,-66.83 1329.41,169.3 341.68,236.12 578.78,648.37 712.25,1236.55 141.74,624.64 109.83,1138.25 -96.48,1541.98 -206.52,402.8 -570.2,663.3 -1092.92,781.91 -521.77,118.41 -961.63,43.2 -1318.85,-226.76 -357,-269.01 -605.49,-714.08 -746.38,-1334.99 -135.59,-597.51 -101.87,-1077.13 100.78,-1440.7 202.85,-362.64 573.57,-605.06 1112.19,-727.29zm5219 2614.94l-601.75 -1620.51c-69.17,-187.84 -131.84,-364.36 -187.8,-528.64 -55.24,-165.44 -106.61,-326.83 -154.33,-485.12l-24.31 5.52c29.56,190.92 53.13,368.46 71.65,532.38 17.58,164.15 30.45,298.88 36.75,404.63l113.59 1861.07 -1189.44 269.91 -1718.92 -3285.3 1081.89 -245.51 413.02 931.8c113.36,252.54 219.68,517.48 319.94,794.62 100.04,276.2 197.78,572.59 293.21,889.17l21.51 -4.88c-31.08,-206.31 -57.7,-414.61 -78.21,-626.27 -21.22,-210.51 -38.61,-425.83 -52.18,-645.95l-81.31 -1528.19 1274.53 -289.22 548.28 1480.23c11.59,33.76 31.8,88.16 60.85,164.16 145.73,399.56 249.96,728.89 312.91,988.93l28.04 -6.36c-32.22,-207.03 -57.4,-417.63 -73.95,-629.21 -17.69,-212.3 -26.89,-430.46 -28.72,-655.21l-24.53 -1529.27 1056.65 -239.78 -227.93 3727.09 -1189.44 269.91z"/>
  <g>
   <g>
    <path class="fil1 str3" d="M4658.89 23683.56l-401.31 -1835.91 549.11 -120.03 51.64 236.24 27.33 167.45c8.41,-159.31 47.5,-284.16 117.29,-374.55 69.41,-89.78 173.06,-150 310.08,-179.96 142.44,-31.13 262.58,-18.29 359.83,38.17 97.25,56.44 178.9,161.59 244.35,315.04 4.81,-161.6 43.82,-291.58 116.73,-388.82 72.43,-97.15 178.88,-161.07 319.35,-191.77 166.99,-36.5 302.2,-13.57 405.52,68.31 103.33,81.88 176.95,223.26 220.96,424.63l278.28 1273.06 -586.43 128.18 -194.32 -888.98c-41.87,-191.54 -80.94,-309.08 -117.72,-352.51 -36.65,-42.93 -88.68,-57.28 -156.95,-42.36 -76.62,16.75 -129.61,59.2 -158.96,127.37 -29.36,68.17 -32.23,156.29 -8.5,264.83l215.04 983.77 -583.49 127.54 -194.32 -888.98c-41.22,-188.6 -80.19,-305.65 -116.67,-350.16 -36.11,-45.11 -88.74,-59.85 -157.99,-44.72 -76.62,16.75 -129.6,59.21 -159.07,126.89 -29.47,67.67 -32.33,155.79 -8.39,265.31l215.04 983.77 -586.43 128.19zm3096.41 -1430.23l6.55 29.96c21.37,97.74 79.41,167.91 174.04,210 94.63,42.1 208.24,48.65 341.84,19.45 104.12,-22.76 193.32,-64.38 266.6,-124.66 72.79,-60.17 135.41,-143.33 186.37,-249.15l95.98 439.08c-49.03,98.21 -121.84,179.48 -218.53,243.33 -97.17,63.94 -219.49,111.79 -367.33,144.1 -268.16,58.62 -496.78,18.01 -684.75,-121.52 -188.58,-139.93 -316.76,-366.13 -385.14,-678.99 -66.03,-302.06 -44.32,-555.88 65.73,-761.07 109.94,-205.7 293.4,-336.38 550.75,-392.63 255.89,-55.93 465.28,-20.91 628.05,104.59 162.88,125.99 277.36,341.29 344.14,646.78 10.84,49.61 19.85,95.5 26.52,137.78 6.66,42.28 11.65,83.91 15.32,124.28l-1046.14 228.67zm-89.53 -409.62l671.88 -146.87c-21.07,-86.99 -67.86,-150.35 -140.25,-189.59 -72.39,-39.25 -158.13,-47.77 -257.83,-25.98 -101.19,22.12 -175.94,66.25 -225.24,132.6 -49.31,66.36 -65.49,142.97 -48.56,229.84z"/>
    <path id="1" class="fil3" d="M4658.89 23683.56l-401.31 -1835.91 549.11 -120.03 51.64 236.24 27.33 167.45c8.41,-159.31 47.5,-284.16 117.29,-374.55 69.41,-89.78 173.06,-150 310.08,-179.96 142.44,-31.13 262.58,-18.29 359.83,38.17 97.25,56.44 178.9,161.59 244.35,315.04 4.81,-161.6 43.82,-291.58 116.73,-388.82 72.43,-97.15 178.88,-161.07 319.35,-191.77 166.99,-36.5 302.2,-13.57 405.52,68.31 103.33,81.88 176.95,223.26 220.96,424.63l278.28 1273.06 -586.43 128.18 -194.32 -888.98c-41.87,-191.54 -80.94,-309.08 -117.72,-352.51 -36.65,-42.93 -88.68,-57.28 -156.95,-42.36 -76.62,16.75 -129.61,59.2 -158.96,127.37 -29.36,68.17 -32.23,156.29 -8.5,264.83l215.04 983.77 -583.49 127.54 -194.32 -888.98c-41.22,-188.6 -80.19,-305.65 -116.67,-350.16 -36.11,-45.11 -88.74,-59.85 -157.99,-44.72 -76.62,16.75 -129.6,59.21 -159.07,126.89 -29.47,67.67 -32.33,155.79 -8.39,265.31l215.04 983.77 -586.43 128.19zm3096.41 -1430.23l6.55 29.96c21.37,97.74 79.41,167.91 174.04,210 94.63,42.1 208.24,48.65 341.84,19.45 104.12,-22.76 193.32,-64.38 266.6,-124.66 72.79,-60.17 135.41,-143.33 186.37,-249.15l95.98 439.08c-49.03,98.21 -121.84,179.48 -218.53,243.33 -97.17,63.94 -219.49,111.79 -367.33,144.1 -268.16,58.62 -496.78,18.01 -684.75,-121.52 -188.58,-139.93 -316.76,-366.13 -385.14,-678.99 -66.03,-302.06 -44.32,-555.88 65.73,-761.07 109.94,-205.7 293.4,-336.38 550.75,-392.63 255.89,-55.93 465.28,-20.91 628.05,104.59 162.88,125.99 277.36,341.29 344.14,646.78 10.84,49.61 19.85,95.5 26.52,137.78 6.66,42.28 11.65,83.91 15.32,124.28l-1046.14 228.67zm-89.53 -409.62l671.88 -146.87c-21.07,-86.99 -67.86,-150.35 -140.25,-189.59 -72.39,-39.25 -158.13,-47.77 -257.83,-25.98 -101.19,22.12 -175.94,66.25 -225.24,132.6 -49.31,66.36 -65.49,142.97 -48.56,229.84z"/>
   </g>
   <path class="fil29" d="M4658.89 23683.56l-401.31 -1835.91 549.11 -120.03 51.64 236.24 27.33 167.45c8.41,-159.31 47.5,-284.16 117.29,-374.55 69.41,-89.78 173.06,-150 310.08,-179.96 142.44,-31.13 262.58,-18.29 359.83,38.17 97.25,56.44 178.9,161.59 244.35,315.04 4.81,-161.6 43.82,-291.58 116.73,-388.82 72.43,-97.15 178.88,-161.07 319.35,-191.77 166.99,-36.5 302.2,-13.57 405.52,68.31 103.33,81.88 176.95,223.26 220.96,424.63l278.28 1273.06 -586.43 128.18 -194.32 -888.98c-41.87,-191.54 -80.94,-309.08 -117.72,-352.51 -36.65,-42.93 -88.68,-57.28 -156.95,-42.36 -76.62,16.75 -129.61,59.2 -158.96,127.37 -29.36,68.17 -32.23,156.29 -8.5,264.83l215.04 983.77 -583.49 127.54 -194.32 -888.98c-41.22,-188.6 -80.19,-305.65 -116.67,-350.16 -36.11,-45.11 -88.74,-59.85 -157.99,-44.72 -76.62,16.75 -129.6,59.21 -159.07,126.89 -29.47,67.67 -32.33,155.79 -8.39,265.31l215.04 983.77 -586.43 128.19zm3096.41 -1430.23l6.55 29.96c21.37,97.74 79.41,167.91 174.04,210 94.63,42.1 208.24,48.65 341.84,19.45 104.12,-22.76 193.32,-64.38 266.6,-124.66 72.79,-60.17 135.41,-143.33 186.37,-249.15l95.98 439.08c-49.03,98.2 -121.84,179.48 -218.53,243.33 -97.17,63.94 -219.49,111.79 -367.33,144.1 -268.16,58.62 -496.78,18.01 -684.75,-121.52 -188.58,-139.93 -316.76,-366.13 -385.14,-678.99 -66.03,-302.06 -44.32,-555.88 65.73,-761.07 109.94,-205.7 293.4,-336.38 550.75,-392.63 255.89,-55.93 465.28,-20.91 628.05,104.59 162.88,125.99 277.36,341.29 344.14,646.78 10.84,49.6 19.85,95.5 26.52,137.78 6.66,42.28 11.65,83.91 15.32,124.27l-1046.14 228.68zm-89.53 -409.62l671.88 -146.87c-21.07,-86.99 -67.86,-150.35 -140.25,-189.59 -72.39,-39.25 -158.13,-47.77 -257.83,-25.98 -101.19,22.12 -175.94,66.25 -225.24,132.6 -49.31,66.36 -65.49,142.97 -48.56,229.84z"/>
  </g>
  <path class="fil30" d="M13564.56 18290.05l-83.85 -63.49c13.49,-29.73 15.85,-51.34 37.87,-86.72 52.09,-83.66 20.86,-42.57 101.37,-77.77l-55.39 227.98zm-45.77 -228.65c17.88,-123.54 16.18,-151.32 135.92,-164.45 -10.25,132.82 -22.12,123.31 -135.92,164.45zm-33.57 -108.8l-15.04 227.61c-139.77,-47.85 -92.77,-57.31 -33.71,-299.88 27.57,-113.25 47.26,-237.38 69.71,-351.39 75.28,70.41 79.77,160.93 171.42,300.1 -31.46,30.56 -3.76,12.43 -48.03,34.73 -66.44,33.48 -52.17,2.46 -144.35,88.83zm93.76 -916.11c36.6,69.82 132.23,602.6 118.04,688.87 -135.04,-151.93 -191.38,-458.43 -146.33,-633.87 13.26,-51.65 17.2,-39.22 28.29,-55zm48.27 30.84l156.11 -86.58c1.5,149.79 3.28,363.72 -56.6,481.85 -56.14,-91.9 -82.55,-279.88 -99.51,-395.27zm-225.41 -6167.16c64.62,-196.66 271.63,-568.96 389.94,-769.68 44.12,-74.84 97.54,-174.67 162.38,-224.7 -56.98,299.83 -371.15,886.34 -552.32,994.38zm-434.53 -270.49c54.87,-262.56 99.78,-299.51 236.49,-497.45 71.71,-103.83 233.47,-372.16 339.1,-426.89 18.15,329.67 -81,627.18 -177.88,880.07 -239.43,-21.01 -203.96,-17.39 -397.71,44.27zm982.49 -833.39c-44.74,110.55 -192.63,313.18 -271.04,440.85 -108.25,176.3 -183.19,383.09 -284.5,428.12 17.67,-148.55 113.87,-316.8 147.8,-489 51.25,-260.13 33.42,-301.66 10.63,-528.95 91.9,-55.83 89.77,-114.25 218.74,-115.17 115.74,152.61 73.43,177.26 13.86,329.06l164.51 -64.91zm-4610.76 -251.34c-198.46,8.52 -1213.88,-220.2 -1260.69,-90.52 111.35,39.17 512.95,45.74 607.28,125.82 -426.06,175.36 -792.61,328.97 -1172.98,624.65 -84.09,65.37 -121.33,118.35 -194.95,180.65 -4.85,5.47 -10.94,7.14 -13.36,17.37l-95.83 98.82c-224.42,411.87 -436.84,557.97 -538.38,1271.1 -123.56,867.84 116.82,1500.07 81.99,1669.43 139.86,-27.22 46.63,-16.98 62.5,40.74 -12.13,134.9 143.38,549.89 212.63,676.04 31.19,-58.2 -160.56,-624.51 -177.14,-696.91 -63.24,-276.26 -122.32,-528.16 -141.77,-816.7 -43.68,-647.86 16.17,-1148.97 258.95,-1659.1 355.92,-747.89 1267.84,-1432.56 2109.07,-1000.68 132.46,68 197.81,141.72 292.45,197.85 -43.15,-103.44 -196.66,-205.56 -310.57,-259.23 114.68,16.13 269.37,75.5 419.41,105.66 162.93,32.77 298.68,49.13 461.6,74.45 149.18,23.16 195.77,136.14 317.67,227.23 39.59,29.6 113.58,77.89 165.99,105.58 231.61,122.42 184.77,53.62 207.5,39.52 -453.34,-154.51 -960.43,-675.83 -683.91,-1234.53 75,-151.54 199.76,-323.47 356.62,-374.44 214.58,154.86 350.36,779.05 659.18,870.56 -63.95,-235.26 -131.1,-382.75 -114.2,-679.95 110.1,173.67 116.49,447.08 301.6,552.12 -1.95,-328.68 -29.69,-638.21 -21.62,-986.84 62.28,31.79 266.56,407 324.65,482.5 -55.67,80.87 -199.74,128.8 -139.76,263.74 63.41,-97.7 35.81,-124.29 196.11,-124.88 112.93,-0.41 184.16,20.19 246.31,82.29 -21.59,97.37 -253.39,355.32 -287.6,573.72 -14.51,92.57 -16.83,60.27 13.61,113.7 32.84,-118.29 60.48,-224.98 110.75,-333.76 48.66,-105.29 100.53,-242.15 201.93,-291.78 115.31,286.16 207.35,608.99 380.84,872.31 65.75,99.79 100.44,183.83 0.12,268.99 -84.82,-188.78 -137.39,-273.86 -295.71,-368.2 -140.66,-83.82 -368.01,-153.77 -547.57,-83.93l147.09 44.79c314.04,72.83 520.8,319.83 671.56,597.75l150.79 -285.52 145.06 -3.61c-64.38,-138.97 -96.06,-164.91 -154.61,-358.73 -45.23,-149.72 -70.22,-293.78 -93.3,-449.85 -19.28,-130.4 -55.23,-323.52 -99.47,-440.13 -65.41,-172.45 -168.25,-172.41 -367.68,-173.24 6.68,-189.21 29.94,-550.82 116.93,-683.83 126.52,281.88 190.64,811.06 420.76,1028.22 -90.3,-288.89 -384.45,-822.61 -399.94,-1138.45l109.04 -394.2c194.07,177.47 403.11,498.82 515.1,824.21 160.2,465.48 93.72,712.81 128.41,1215.42 277.65,-271.31 307.01,-227.69 582.61,-661.74 85.39,-134.48 163.61,-253.43 229.31,-411l121.25 -346.82c5.72,-20.24 9.46,-37.67 16.91,-56.66l32.03 -57.77c219.35,331.82 347.31,674.94 311.83,1145.59 -87.53,-155.37 -68.62,-358.39 -287.2,-402.94 -112.29,58.35 -147.9,161.58 -212.52,290.08l-325.24 708.31c-80.14,183.76 -38.36,205.43 -195.42,315.64 52.41,141.57 102.02,8.53 49.56,195.48 -36.39,129.68 -59.84,108.03 -109.81,205.92 264.29,-24.65 134.38,-172.45 547.9,-32.82 -3.99,30.29 -159.37,555.45 -168.39,570.73 -64.57,109.28 -270.34,270.67 -387.54,349.62 -90.4,60.9 -360.05,238.49 -464.6,278.66 -165.38,63.54 -521.58,14.56 -636.82,-86.33 -183.89,-160.99 -918.36,-962.7 -990.85,-1221.19 -53.26,-189.95 7.32,-514.4 -19.58,-716.06 -57.05,92.03 -26.25,168.23 -59.5,265.34 -187.54,40.56 -523.91,-408.23 -587.41,-531.94 28.22,192.11 283.97,456.78 459.93,519.07 200.09,70.84 108.76,212.19 146.05,426.67 33.3,191.52 404.35,657.57 517.9,782.45 185.28,203.78 582.55,764.19 1070.48,627.88 323.15,-90.27 897.8,-419.94 1018,-702.55 45.43,-106.78 23.17,-233.93 93.16,-325.07 105.21,-136.98 189.38,-116.62 379.72,-481.71 47.96,-91.98 80.67,-217.12 145.92,-290.62 166.19,59.9 512.17,213.55 621.92,307.49 165.55,141.68 291.03,313.31 389.81,570.87 282.32,736.08 5.79,1547.9 22.75,1585.95l116.93 -280.24c92.36,181.73 131.54,627.6 161.88,885.05 -646.89,131.76 -763.15,272.73 -1204.99,622.35 -76.32,60.4 -160.87,90.81 -229.94,137.72 -141.39,96.05 -273.02,240.53 -395.61,350.45 -87.64,-42.66 -196.04,-182.37 -230.52,-278.29l79.63 -101.39c134.95,-185.36 168.27,-465.85 254.62,-679.86 174.45,-432.33 193.71,-395.57 40.69,-858.42 -73.86,-223.4 -114.98,-283.14 -232.34,-486.7 25,212.71 195.04,243.78 170.62,579.16 -16.55,227.37 -124.99,409.94 -135.17,638.36l65.8 -136.16c45.04,-154.24 65.34,-357.56 130.18,-499.7 60.3,196.37 96.16,336.68 10.31,541.8 -198.82,475 -138.67,526.37 -394.47,936.61 -88.82,142.46 144.13,296.78 191.59,410.31 -190.58,334.5 -327.62,670.24 -284.5,1103.17 10.38,104.09 32.78,274.12 157.7,194.02l80.41 265.88c100.42,-21.68 82.94,-193.88 72.77,254.66 -4.23,187 21.49,312 -14.3,504.72l-148.6 1.3 1.11 -267.2 -11.01 -189.24 -35.68 432.86c-86.86,7.06 -1202.44,-575.17 -1636.81,-498.24l-102.59 14.46c324.87,23.61 592.38,93.47 874.18,186.07l584.92 227.74c36.9,15.5 68.08,26.61 102.85,44.29 64.44,32.78 48,19.89 88.81,62.12 -165.88,45.99 -250.47,-125.58 -385.04,150.39 -68.68,140.83 -143.71,86.45 -171.74,208.56l12.05 16.05c190.58,-86.35 321.93,-344.71 804.47,-336.09l-96.63 574.07c7.06,139.68 -73.78,399.98 -116.08,535.99 -265,-68.12 -431.2,-259.07 -1032.87,-225.43 -353.93,19.79 -710.81,131.43 -1011.47,272.74 30.3,19.14 9.79,19.42 67.02,17.99 121.92,-3.04 646.52,-302.25 1300.65,-219.15 299.79,38.08 495.16,119.18 714.65,270.9l151.67 92c104.75,67.12 122.29,117.31 229.16,185.35 -5.44,149.97 -286.24,809.89 -358.62,994.31 -123.86,315.63 -269.2,667.15 -378.94,973.73l43.89 0c99.71,-284.32 234.89,-556.68 337.85,-847.09 356.95,-1006.78 700.79,-1581.77 648.74,-2884.96l-20.4 246.97c-4.7,-5.26 -9.23,-19.77 -10.38,-16.27l-27.07 -71.05c-62.68,-276.66 14.29,-830.08 -63.06,-976.16 -25.4,183.94 -22.14,414.11 -20.47,617.76 0.87,106.78 10.84,194.96 22.25,294.86 6.14,53.69 18.61,110.77 24.71,158.1 15.03,116.56 31.95,66.19 -24.34,144.83 -127.07,16.18 -102.45,10 -160.74,-71.05 -138.27,-192.26 -266.61,-1074.42 134.06,-1255.57 -93.25,-3.88 -70.41,-6 -167.08,50.71l-37.48 22.23c-161.61,-865.69 534.06,-2096.84 1483.55,-2348.88 305.84,-81.19 827.08,-82.19 1100.87,48.33 51.2,-67.77 26.57,-37.28 35.98,-17.48 -150.33,-10.58 -152.92,-36.36 -196.92,-73.6 105.37,-87.12 180.37,-25.82 246.31,-57.96 -309.7,50.33 -589.43,11.29 -889.92,5.63 -23.92,-323.62 -42.09,-534.09 -133.88,-818.6 -80.5,-249.49 9.11,-600.32 -30.85,-906.56 -54.77,-419.81 -197.67,-718.15 -473.35,-998.33 -100.77,-102.4 -169.48,-127.05 -266.08,-221.9 123.15,-128.92 433.32,-178.31 471.36,-376.6 -195.33,-39.72 -342.55,21.37 -511.62,-2.32 214.08,-129.48 650.01,-297.77 918.04,-387.12 426.41,-142.15 732.78,-116.55 1211.45,-121.25 10.25,-148.4 -109.62,-230.49 -185.18,-303.6 -262.54,-254.05 -588.53,-488.93 -978.85,-573.53l112.16 -72.23c40.54,-17.76 83.82,-32.88 123.11,-47.46 -538.53,-1218.11 -3259.64,-1502.11 -2371.52,-1899.84 -224.74,0.83 -357.92,-24.95 -591.04,-24.66 -371.99,0.46 -847.54,25.25 -1206.91,-5.4 -657.87,-27.63 -724.81,-91.01 -1025.04,260.64 -224.82,263.34 -324.27,540.27 -313.44,971.61 -156.51,-23.34 -436.26,-303.34 -1180.33,-324.45 96.86,72.92 1073.34,156.72 1188.66,428.54 -344.53,-81.51 -439.22,-231.79 -1083.75,-212.2 -473.21,14.38 -684.43,130.38 -963.78,326.45 18.7,59.82 32.39,52.63 16.76,91.33 243.45,62.52 380.15,103.45 574.15,211.28 103.96,57.79 422.69,250.44 461.72,305.3 -436.26,-105.72 -765.21,-5.03 -1130.26,251.35 -719.88,505.49 -26.24,-623.4 1456.75,714.38z"/>
  <path class="fil31" d="M2083.74 9862.37l-459.69 -1394.55 -378.05 124.62 -214.24 -649.93 378.05 -124.62c-68.35,-132.54 -114.61,-227.05 -139.99,-282.31 -25.36,-55.26 -44.55,-103.82 -57.79,-143.99 -85.6,-259.68 -73.13,-489.66 37.88,-690.88 111.03,-201.23 305.23,-347.96 582.14,-439.23 114.05,-37.6 228.31,-62.54 343.24,-75.77 115.66,-13.48 230.55,-14.76 346.12,-4.35l213.53 647.79c-57.23,-26.48 -118.82,-39.57 -185.94,-40.52 -66.87,-0.21 -139.04,12.44 -215.8,37.74 -132.01,43.51 -217.99,113.21 -257.71,209.82 -39.97,95.88 -34.42,221.3 16.42,375.53l53.92 163.56 675.75 -222.76 214.24 649.93 -546.64 180.19 459.69 1394.55 -865.13 285.18zm1949.71 -2173.66l12.54 38.02c91.51,277.62 169.3,446.03 233.83,504.29 64.06,59.21 147.61,71.43 249.48,37.85 119.08,-39.25 195.77,-115.43 231.5,-229.01 35.01,-113.34 25.45,-253.34 -29.41,-419.77l-476.72 -1446.2 865.13 -285.17 883.91 2681.49 -818.5 269.81 -113.51 -344.34 -65.37 -239.31c-13.94,244.78 -72.41,441.41 -175.85,590.82 -102.97,148.47 -255.24,255.93 -457.53,322.61 -247.49,81.59 -455.5,70.62 -622.83,-34.08 -167.33,-104.7 -299.7,-306.02 -397.36,-602.29l-613.16 -1860.12 865.14 -285.18 428.71 1300.58zm4101.42 -121.63c-55.67,147.19 -148.78,277.3 -279.56,389.6 -130.08,112.06 -290.64,199.19 -479.31,261.38 -360.11,118.71 -688.42,82.98 -983.98,-106.7 -295.55,-189.68 -516.14,-506.67 -662.04,-949.28 -147.79,-448.35 -157.99,-831.51 -30.81,-1150.19 127.41,-317.97 378.96,-539.28 756.28,-663.66 179.34,-59.11 350.45,-85.3 513.09,-79.26 162.65,6.03 308.22,44.73 437.21,115.15l272.17 825.68c-96.53,-61.23 -213.69,-98.17 -351.71,-109.13 -138.03,-10.97 -272.79,4.82 -403.34,47.86 -177.92,58.65 -296.71,154.26 -356.15,287.6 -59.68,132.59 -56.88,297.9 7.68,493.73 69.28,210.19 171.25,357.91 305.69,442.43 134.43,84.52 287.73,98.41 459.9,41.65 139.16,-45.87 254.06,-119.53 343.74,-221.46 89.9,-101.21 156.5,-232.13 198.59,-391.54l252.55 766.14zm794.72 -1206.79c48.55,125.55 94.73,246.34 136.86,362.08 42.12,115.75 81.16,229.34 117.57,339.81l136.68 414.63 -852.22 280.93 -1071.2 -3249.64 852.22 -280.93 380.48 1154.24c35.47,107.61 66.19,208.03 91.91,300.55 25.73,92.52 49.08,182.64 68.61,270.85l25.11 -8.27c-0.18,-89.81 14.09,-213.02 43.27,-368.18l3.9 -24.35 163.67 -951.06 981.35 -323.49 -452.78 1622.96 1362.52 1050.02 -1028.69 339.09 -574.32 -540.77c-60.01,-56.57 -119.04,-117.44 -177.1,-182.61 -58.31,-65.88 -118.01,-138.44 -179.13,-217.71l-28.71 11.85z"/>
 </g>
</svg>
