<?xml version="1.0" encoding="UTF-8"?>
<!DOCTYPE svg PUBLIC "-//W3C//DTD SVG 1.1//EN" "http://www.w3.org/Graphics/SVG/1.1/DTD/svg11.dtd">
<!-- Creator: CorelDRAW 2017 -->
<svg xmlns="http://www.w3.org/2000/svg" xml:space="preserve" width="215.9mm" height="279.4mm" version="1.1" style="shape-rendering:geometricPrecision; text-rendering:geometricPrecision; image-rendering:optimizeQuality; fill-rule:evenodd; clip-rule:evenodd"
viewBox="0 0 21590 27940"
 xmlns:xlink="http://www.w3.org/1999/xlink">
 <defs>
  <style type="text/css">
   <![CDATA[
    .fil26 {fill:black}
    .fil24 {fill:#070707}
    .fil0 {fill:#151515}
    .fil21 {fill:#1A1A1A}
    .fil19 {fill:#1F1F1F}
    .fil1 {fill:#212121}
    .fil22 {fill:#252525}
    .fil13 {fill:#262626}
    .fil11 {fill:#272727}
    .fil16 {fill:#2B2B2B}
    .fil6 {fill:#2E2E2E}
    .fil15 {fill:#373737}
    .fil17 {fill:#393939}
    .fil18 {fill:#4B4B4B}
    .fil10 {fill:#4D4D4D}
    .fil8 {fill:#515151}
    .fil14 {fill:#585858}
    .fil5 {fill:#6A6A6A}
    .fil20 {fill:#6D6D6D}
    .fil7 {fill:#767676}
    .fil9 {fill:#7B7B7B}
    .fil3 {fill:#7F7F7F}
    .fil4 {fill:#919191}
    .fil12 {fill:#929292}
    .fil2 {fill:#CECECE}
    .fil23 {fill:#EDEDED}
    .fil25 {fill:#FDFDFD}
    .fil27 {fill:#FEFEFE}
    .fil28 {fill:#373435;fill-rule:nonzero}
   ]]>
  </style>
 </defs>
 <g id="Capa_x0020_1">
  <metadata id="CorelCorpID_0Corel-Layer"/>
  <path class="fil0" d="M7996.57 14778.79l-1.88 -43.35c-821.83,117.1 -1756.6,247.03 -2158.67,-964.76 -310.58,-936.08 -834.39,-3002.46 353.83,-3585.24 448.76,-220.1 2218.81,-395.08 2729.35,-315.17 647,101.27 719.6,300.32 1103.44,492.21l11.3 -12.1 -53.3 -160.22 7896.31 8.5c-1.36,236.95 -1.34,473.92 -0.93,710.87 0.74,424.94 78.21,612.68 -107.03,590.87l164.28 974.78c-28.74,100.85 -54.34,38.42 -218.28,157.47 186.84,31 84.43,-52.4 160.76,58.48l0.04 1727.61c-11.4,320.8 10.15,78.03 -77.82,174.42 41.36,163.11 42,95.69 135.3,203.5 0,158.57 50.32,294.31 -72.93,363.88l6 6872.33c-248.97,-558.5 -419.38,-1227.47 -842.96,-2115.67 -170.73,-358.01 -329.09,-609.16 -527.08,-931.49 -230.09,-374.61 -388.27,-485.32 -480.34,-651.91l-139.45 -192.15 196.41 1249.85 -8.17 -827.96c446.12,352.74 1849.94,3332.12 1802.28,4106.12l-740.76 4.72c-675.15,-2300.2 -685.29,-2151.78 -1591.38,-4077 -205.27,-436.15 -380.62,-894.89 -626.2,-1292.69 -186.32,35.9 -49.19,-53.59 -168.59,84.2l33.1 133.59 125.95 -151.08c163.32,737.2 1816.53,3508.28 2101.31,5298.45l-2077.71 3.38 -29.19 -264.02c-101.41,70.11 -121.68,-92.47 -73.51,146.47 3.25,158.09 76.97,74.72 -75.26,119.28l-1195.58 -0.16 -415.82 -1073.25c271.86,-326.39 230.9,-150.44 540.55,-642.47 86.78,-137.88 42.4,-112.21 159.79,-230.44 91.45,192.65 234.56,289.52 343.74,411.21 141.17,157.34 175.06,288.7 340.65,398.36 77.9,0 59.45,20.06 59.54,-55.93 -231.65,-339.93 -505.79,-484.74 -695.81,-800.95 -14.75,-227.5 92.71,-686.91 117.9,-973.14 30.21,-343.39 44.98,-677.44 41.45,-1030.63 -50.01,80.84 -24.87,-89.54 -61.37,166.65l-55.04 643.99c-24.16,264.9 -57.97,597.42 -111.48,853.53 -61.45,294.14 -141.42,421.21 -281.97,639.35 -122.26,189.75 -313.34,375.2 -399.13,570.51l-617.33 -1269.56c161.2,-195.55 231.5,-547.67 230.81,-844.26 -111.32,232.78 -100.01,589.46 -255.47,800.13 -245.19,-473.22 -812.52,-1664.34 -909.67,-2132.08 119.73,211.63 446.42,508.21 642.81,658.35 123.71,37.05 101.94,56.11 56.86,-64.95 -169.1,-148.86 -245.38,-278.47 -388.17,-402.2 -222.44,-192.75 -158.56,-223.24 -321.75,-361.85l-7.28 -349.36c-274.99,-129.3 -209.24,-174.93 -403.11,-391.04 -691.28,-770.59 -154.1,-678.79 -348.03,-1081.19 -160.57,372.28 5.07,366.33 -193.41,456.84l-20.27 25.45 493.75 719.89c61.77,68.96 70.86,51.37 142.2,126.2 81.33,85.31 35.94,60.43 122.19,150.79 33.15,34.73 66.51,51.75 123.97,119.25 -68.11,451.58 144.28,882.33 332.91,1312.82 351.38,801.93 1510.73,3206.74 1599.82,3650.14l-2049.19 -1.59c-183.02,-841.75 -832.71,-4309.26 -1076,-4745.42 51.84,-133.79 15.92,-94.31 124.37,-161.96 -196.44,-172.41 -478.79,-262.42 -703.52,-471.67 -490.26,-456.48 -114.92,-905.29 -897.49,-758.96 -140.71,26.31 -281.29,102.1 -445.84,135.72l106.14 54.56c367.01,-5.65 269.46,-139.85 782.25,-44.02 70.4,268.75 182.79,500.56 344.91,668.84 123.11,127.8 399.4,340.25 631.45,397.32 -68.61,409.97 22.84,21.44 109.5,590.99 32.74,215.1 76.9,410.5 119.32,635.66l791.62 3700.53 -2121.63 0.02c-765.79,-364.19 -548.55,-2278.34 -1084.35,-2661.33 63.53,227.38 156.11,431.63 211.53,679.52 138.89,621.2 194.91,1485.02 636.07,1970.73l-2763.65 10.09c743.48,-830 895.65,-507.56 1002.04,-1452.9 61.96,-550.52 199.94,-1680.93 432.4,-2100.79 151.35,212.92 54.2,287.12 280.6,505.95 -112.06,-581.7 -328.96,-878.92 -194.63,-1555.03 108.13,-544.26 508.96,-934.22 584.12,-1236.45l-12.5 -50.71c-1135.71,1600.92 -488.06,1547.95 -747.1,2293.59 -307.83,886.09 -413.4,1691.4 -506.78,2684.82 -373.13,201.43 -661.24,710.23 -1077.67,912.84l-750.67 -0.22 -10.05 -12484.69 800.52 5.19c-771.82,731.78 -690.42,1958.99 -327.75,3162.12 313.14,1038.82 742.53,1698.38 1964.17,1559.37 200.46,-22.81 297.71,-27.51 431.34,-138.29zm-2953.78 -4707.24c-140.36,451.79 -38.28,5441.02 -38.28,6344.74 0,2092.04 -69.76,4305.35 6,6382.33 2183.79,-9.02 4365.32,-0.69 6548.36,-0.69 1044.64,0 2260.93,-56.74 3283.74,9.39 833.8,53.91 2246.23,-109.87 3153.17,10.2 13.86,-483.35 62.05,-12432.86 -30.67,-12744.13 -2248.12,-39.8 -4532.11,-2.3 -6784.23,-2.3 -533.95,0 -1205.14,80.58 -1628.92,-126.82 -409.63,-200.48 -955.35,-233.04 -1441.39,-194.68l-1529.81 169.27c-349.24,77.93 -294.7,154.62 -745.68,152.89 -264.09,-1.02 -528.2,-1.12 -792.29,-0.2z"/>
  <path class="fil1" d="M12562.36 18089.92c97.65,-531.18 561.93,-170.19 913.69,-140.09 -142.12,-120.35 -434.14,-257.3 -620.42,-246.59 -284.87,16.38 -370.63,176.5 -388.38,440.66 204.73,152.44 518.86,242.28 793.05,300.57 -124.53,-165.52 119.73,-8.6 -176.02,-157.26l-521.92 -197.29z"/>
  <path class="fil2" d="M14908.35 17030.5c98.01,-289.14 187.27,-552.64 212.87,-896.66 -66.18,85.51 -57.97,61.41 -102.22,182.27l-153.16 596.66c6.27,91.78 24.51,81.05 42.51,117.73z"/>
  <path class="fil3" d="M14746.7 15798.05l91.28 -181c130.55,-495.64 45.67,-146.4 -39.19,-272 -98.31,134.13 -73.18,-137.04 -90.44,202.35 -1.08,21.42 34.63,225.35 38.35,250.65z"/>
  <path class="fil4" d="M14518.12 21538.21c65.92,59.91 112.34,94.39 170.51,136.1l-44.01 -196.11 -66.96 4.08c-0.09,75.99 18.36,55.93 -59.54,55.93z"/>
  <polygon class="fil5" points="8225,16748.26 8220.56,16784.06 8233.06,16834.77 8471.51,16725.64 8365.37,16671.08 8325.49,16563.1 "/>
  <path class="fil6" d="M10472.17 15275.8c-150.32,59.99 -234.82,207.99 -269.98,441.49 146.83,-107.91 223.38,-270.65 269.98,-441.49z"/>
  <path class="fil7" d="M7518.76 20963.85c-61.91,-126.14 169.23,-82.68 -106.72,-107.52l106.72 107.52z"/>
  <path class="fil8" d="M9500.07 21215.48c49.23,124.18 -148.22,56.28 129.76,109.98l-129.76 -109.98z"/>
  <path class="fil9" d="M12400.84 17260.15c-101.37,-189.37 -38.66,-198.47 -322.14,-235.51 -245.93,-32.14 -116.28,-91.22 -340.61,-109.74 250.54,331.83 290.04,159.56 662.75,345.25z"/>
  <path class="fil10" d="M7518.76 20963.85c5,10.03 12.38,15.25 15.27,29.95 0.01,0.04 381.05,523.32 513.11,597.74 -52.25,-182.09 -94.33,-253.53 -268.48,-353.33 124.07,-79.77 68.44,26.97 231.17,-93.14l-491.07 -181.22z"/>
  <path class="fil11" d="M7410.92 22090.66c115.01,306.89 252.72,402.51 488.04,428.01 -8.38,-11.38 -21.1,-43.16 -25.63,-33.78 -4.45,9.24 -20.77,-25.44 -26.96,-31.78 -6.03,-6.18 -21.25,-21.31 -28.65,-28.82 -132.22,-134.27 -232.53,-258.16 -406.8,-333.63z"/>
  <path class="fil12" d="M14328.26 17105.7l-209.36 3.16 37.55 -215.87c-75.82,111.74 -66.33,60.94 -82.46,289.07l254.27 -76.36z"/>
  <path class="fil13" d="M9500.07 21215.48c-44.59,-150.5 118.7,29.11 -285.89,-296.75 -146.52,-118 -178.48,-184.84 -314.39,-332.41 -142,-154.18 -488.94,-545.47 -689.03,-606.77 97.18,196.01 420.84,505.4 587.37,655.31 207.71,186.97 442.26,473.24 701.94,580.62z"/>
  <path class="fil14" d="M7410.92 22090.66l-157.9 -382.72c-37.92,65.85 -50.96,84 -8.69,197.16 72.3,193.59 140.12,173.54 166.59,185.56z"/>
  <path class="fil15" d="M10472.17 15275.8l89.38 165.19c-130.93,322.58 -304.59,257.84 -291.9,529.9 160.77,-63.53 243.51,-220.64 315.09,-324.19 9.19,567.48 -222.12,7.2 -59.96,718.43 196.58,17.31 60.58,27.92 111.52,-75.98 -60.27,-99.7 -148.93,-268.17 -14.76,-308.18l48.31 6.88c1.24,0 10.05,-1.45 14.65,-3.46l-212.33 -708.59z"/>
  <path class="fil16" d="M8210.76 19979.55l-107.89 -140.82c70.94,296.14 -15.72,88.31 107.89,140.82z"/>
  <path class="fil17" d="M11799.54 12340.61c138.62,30.99 311.28,26.74 464.07,26.14 101.63,-0.41 202.32,9.35 271.39,-36.03 210.85,-138.51 83.78,25.53 71.61,-229.34 -97.31,-90.73 -41.96,37.15 -78.42,-114.54 -61.64,-256.39 226.26,-1148.83 742.19,-1497.7 -607.21,100.71 -894.98,1027.26 -845.88,1802.43 -155.46,-14.08 -558.37,-81.42 -624.96,49.04z"/>
  <path class="fil17" d="M10557.99 17977.31c342.75,37.89 470.53,61.53 628.89,-203.96 -554.73,269.71 -342.42,41.43 -628.89,203.96z"/>
  <path class="fil18" d="M13780.59 17589.05c297.86,-36.6 581.48,-40.38 792.15,-200.98 -163.6,-68.85 -269.17,71.74 -428.3,75.33 -272.8,6.16 -178.47,-197.31 -363.85,125.65z"/>
  <path class="fil18" d="M12743.57 17222.65l-236.74 -25.05c105.44,189.88 76.29,178.98 261.27,261.45l-24.53 -236.4z"/>
  <path class="fil19" d="M11337.27 14742.4l4.74 -546.73c146.19,310.32 222.9,672.75 522.18,795.98 16.26,-178.83 42.9,-81.64 -62.7,-217.07l-283.45 -471.14c-7.04,-13.25 -80.35,-146.59 -81.09,-147.34 -174.22,-178.08 -20.22,-41.99 -201.8,-115 0,338.69 -59.15,559.23 102.12,701.3z"/>
  <path class="fil20" d="M9931.5 21559.96c124.54,-141.01 66.29,66.95 104.66,-344.06 12.52,-134.13 39.55,-302.68 59.12,-432.66 43.33,-287.79 109.31,-545.15 116.96,-837.83 -10.29,14.42 -27.37,17.69 -31.36,42.92 -3.68,23.23 -22.59,31.93 -26.97,40.85 -6.41,13.06 -39.48,103.86 -39.66,104.5l233.89 -1150.9c-248.23,592.68 -432.08,1203.15 -492.89,1871.83 -14.47,159.13 -35.45,179.88 8.59,331.21l67.66 374.14z"/>
  <path class="fil21" d="M13730.6 17576.43c-22.06,-206.07 -80.19,-267.89 -283.19,-464.89 16.64,244.76 9.55,211.14 172.6,319.45 -60.53,156.8 -51.35,100.62 -108.34,259.55l218.93 -114.11z"/>
  <path class="fil22" d="M13356.43 18360.85c147.93,-41.36 88.88,36.44 167.83,-198.18 24.84,-73.81 48.13,-156.11 68.49,-230.76 -164.84,47.58 -56.25,-80.42 -160.32,198.2 -37.65,100.79 -53.54,138.38 -76,230.74z"/>
  <path class="fil23" d="M9899.2 15809.51l-212.57 -258.72 -290.15 -9.97c119.16,130.12 328.68,215.55 502.72,268.69z"/>
  <path class="fil24" d="M12743.57 17222.65l148.57 -9.53c46.91,-287.19 163.5,-370.1 4.08,-667.1 -213.7,63.46 -242.87,224.54 -264.77,456.53l-405.13 -157.44c-11.13,-574.66 89.19,-1155.73 412.53,-1511.84 122.42,27.64 170.91,73.32 262.7,121.28 373.89,195.34 265.83,262.84 288.81,997.68 115.39,-210.33 65.25,-596.39 14.08,-845.75 359.97,-268.88 200.97,158.16 310.57,-286.69 -991.65,-329.52 -970.84,-847.24 -926.47,-2041.53 -149.38,324.4 -76.02,820.18 -49.75,1194.47 -263.38,163.02 -284.93,116.2 -442.76,431.9l260.52 120.48c98.68,62.61 124.43,115.25 235.47,184.53 -35.27,85.18 -913.7,1504.35 -300.35,1774.96l374.76 160.18c69.92,49.16 52.74,49.52 77.14,77.87z"/>
  <path class="fil25" d="M7994.69 14735.44c48.51,-112.01 574.14,-30.44 702.98,-35.83 1088.85,-45.57 158.37,-350.94 1216.82,181.24l-322.16 -406.55c242.24,-301.84 782.02,-468.74 789.77,-1891.14 3.86,-709.45 132.68,-1374.93 -237.96,-1986.57 -107.6,-177.57 -76.96,-55.09 -121.5,-234.11 -383.84,-191.89 -456.44,-390.94 -1103.44,-492.21 -510.54,-79.91 -2280.59,95.07 -2729.35,315.17 -1004.71,492.78 -1493.77,5020.01 1804.84,4550z"/>
  <path class="fil26" d="M14908.35 17030.5c-18,-36.68 -36.24,-25.95 -42.51,-117.73l153.16 -596.66c44.25,-120.86 36.04,-96.76 102.22,-182.27 -25.6,344.02 -114.86,607.52 -212.87,896.66zm-5009.15 -1220.99c-174.04,-53.14 -383.56,-138.57 -502.72,-268.69l290.15 9.97 212.57 258.72zm-1904.51 -1074.07l1.88 43.35 758.06 7.07c335.69,15.41 131.62,3.17 221.61,83.61l-1667.83 193.42c109.25,314.45 683.65,494.39 987.91,687.78l-487.67 109.67c74.48,177.91 25.89,155.8 498.46,303.57 -38.94,155.8 -149.35,451.42 -82.11,584.35l100.49 -185.16c126.22,-73.21 222.35,-81.49 361.97,-156.24 157,-84.07 199.05,-122.01 333.47,-231.26l492.23 147.47c-50.91,-69.63 -6.71,-44.36 -84.29,-98.74 -486.28,-340.84 -579.48,78.92 -1048.73,177.58 30.4,-204.27 382.68,-355.03 548.68,-456.8 345.47,-211.8 420.81,-34.47 739.68,78.89 -76.21,-154.48 -297.04,-268.14 -485.43,-267.34 -180.99,0.77 -402.47,158.32 -540.34,232.17 271.89,-492.7 683.74,-347.74 1088.2,-120.69 279.25,156.77 315.18,76.75 497.75,312.35 90.21,116.41 262.64,358.99 369.52,415.38l20.27 -25.45c-28.38,-121.19 21.95,8.89 -32.38,-101.71 -4.47,-9.08 -41.26,-68.71 -61.31,-103.58l-490.91 -591.91c69.12,-195.61 57.55,-311.05 201.97,-514.56l110.89 -212.52c70.07,-115.82 108.91,-120.78 240.17,-144.26 195.15,176.49 304.31,507.95 337.95,829.07 6.95,-13.14 16.97,-48.1 19.46,-40.12l66.33 -196.14c78.35,143.8 122.28,203.11 278.24,257.57l11.64 -266.15c142.11,86.46 115.91,145.14 287.6,152.15 -64.58,-320.3 -182.63,-477.83 -250.85,-895.86 -161.27,-142.07 -102.12,-362.61 -102.12,-701.3 181.58,73.01 27.58,-63.08 201.8,115 0.74,0.75 74.05,134.09 81.09,147.34l283.45 471.14c105.6,135.43 78.96,38.24 62.7,217.07 50.4,179.09 164.16,300.38 341.61,385.55 -426.86,-1195.04 28.47,-1311.95 258.15,-2329.3 845.39,355.44 1083.78,1790.41 1148.14,2566.82 350.36,-426.98 679.08,-554.96 996.95,-1439.2 72.06,-200.44 93.49,-448.97 186.37,-611.91 174.54,340.44 214.17,797.42 177.22,1252.93 -347.21,114.27 -1162.51,897.45 -983.82,1368.36 284.88,-391.38 -57.86,-597.26 690.98,-774.92 91.2,452.99 -187.55,1357.09 -351.53,1695.72l-254.27 76.36c16.13,-228.13 6.64,-177.33 82.46,-289.07 -5.96,-295.79 1.44,-73.28 -59.64,-171.59 -297.34,-72.11 -259.65,320.2 -316.38,547.91 650.63,22.56 704.27,-157 840.26,-709.26 59.8,-242.84 127.01,-521.03 126.01,-762 -3.72,-25.3 -39.43,-229.23 -38.35,-250.65 17.26,-339.39 -7.87,-68.22 90.44,-202.35 84.86,125.6 169.74,-223.64 39.19,272l340.65 -172.89c100.96,-72.51 4.91,-8.42 109.96,-72.88 -110.41,422.8 -335.46,832.85 -450.12,1292.8 -178.97,717.95 128.94,1204.91 -1383.87,2079.66 -521.11,301.32 -725.9,373.75 -1174.38,-44.52 45.08,121.06 66.85,102 -56.86,64.95 88.38,49.51 66.82,38.14 137.56,135.56l-175.4 332.74c130.57,-61.39 39.24,41.93 146.18,-100.53 48.8,-65 63.82,-122.77 89.25,-172.72 547.45,190.66 516.27,250.76 1282.13,-236.62 142.84,-90.9 243.73,-186.39 393.73,-259.53l547.81 3015.13 44.01 196.11 131.42 881.37c-48.17,-238.94 -27.9,-76.36 73.51,-146.47 -136.97,-491.31 -216.38,-1425.26 -319.6,-1995.04 -79.42,-438.43 -391.92,-1718.35 -372.02,-2054.31 219.39,-223.49 547.23,-469.72 571.26,-837.38l-33.1 -133.59c119.4,-137.79 -17.73,-48.3 168.59,-84.2l97.75 -316.09c735.95,199.78 643.16,829.68 870.07,1153.05 31,-242.56 -7.62,-222.44 -46.46,-427.53 286.31,-109.38 399.48,-206.47 716.58,-301.3 -205.71,-269.45 -582.08,-205.1 -857.67,-322.54 -73.35,-31.26 -60.89,-39.89 -96.26,-68.07 346.03,-32.87 634.02,-65.49 988.77,-57.86 514.87,11.07 1522.25,611.57 404.72,-1006.32 -223.89,-324.14 -501.8,-614.87 -1003.02,-726.3 624.02,-519.42 1796.01,-77.52 1877.17,-71.19 123.25,-69.57 72.93,-205.31 72.93,-363.88 -93.3,-107.81 -93.94,-40.39 -135.3,-203.5 -4.04,-272.19 -272.72,-679.42 -426.03,-856.58 -197.9,-228.72 -426.92,-403.96 -731.48,-556.17 204.67,-253.97 749.07,-372.23 1074.53,-547.76 163.94,-119.05 189.54,-56.62 218.28,-157.47l-164.28 -974.78c-180.44,-384.61 -2542.67,-1230.59 -3802.15,34.37 -84.94,85.31 -112.68,89.79 -189.91,189.13 -13.01,16.74 -56.81,86.63 -65.69,95.57 -92.26,92.87 44.44,3.5 -100.42,47.83 -59.72,-176.32 -21.71,-323.2 26.65,-498.12 28,-101.3 57.01,-156.18 84.61,-243.82 26.09,-82.84 13.85,-7.29 25.48,-110.78l-16.85 -70.59c-162.1,-47.24 -247.58,-39.77 -413.85,49.13 -343.92,183.88 -710.03,766.84 -710.25,1108.26 12.17,254.87 139.24,90.83 -71.61,229.34 -69.07,45.38 -169.76,35.62 -271.39,36.03 -152.79,0.6 -325.45,4.85 -464.07,-26.14 -911.9,-51.89 -1250.27,1088.28 -1252.49,1083.68 -4.39,-9.11 -22.75,24.75 -33.9,37.32 -208.23,-321.46 162.6,-1763.35 -123.55,-2569.65 -72.74,-204.95 -163.61,-465.01 -355.66,-541.58l-11.3 12.1c44.54,179.02 13.9,56.54 121.5,234.11 370.64,611.64 241.82,1277.12 237.96,1986.57 -7.75,1422.4 -547.53,1589.3 -789.77,1891.14l322.16 406.55c-1058.45,-532.18 -127.97,-226.81 -1216.82,-181.24 -128.84,5.39 -654.47,-76.18 -702.98,35.83z"/>
  <path class="fil27" d="M8220.56 16784.06l4.44 -35.8c-67.24,-132.93 43.17,-428.55 82.11,-584.35 -472.57,-147.77 -423.98,-125.66 -498.46,-303.57l487.67 -109.67c-304.26,-193.39 -878.66,-373.33 -987.91,-687.78l1667.83 -193.42c-89.99,-80.44 114.08,-68.2 -221.61,-83.61l-758.06 -7.07c-133.63,110.78 -230.88,115.48 -431.34,138.29 -1221.64,139.01 -1651.03,-520.55 -1964.17,-1559.37 -362.67,-1203.13 -444.07,-2430.34 327.75,-3162.12l-800.52 -5.19 10.05 12484.69 750.67 0.22c416.43,-202.61 704.54,-711.41 1077.67,-912.84 93.38,-993.42 198.95,-1798.73 506.78,-2684.82 259.04,-745.64 -388.61,-692.67 747.1,-2293.59z"/>
  <path class="fil27" d="M7410.92 22090.66c174.27,75.47 274.58,199.36 406.8,333.63 7.4,7.51 22.62,22.64 28.65,28.82 6.19,6.34 22.51,41.02 26.96,31.78 4.53,-9.38 17.25,22.4 25.63,33.78 -235.32,-25.5 -373.03,-121.12 -488.04,-428.01zm0 0c-26.47,-12.02 -94.29,8.03 -166.59,-185.56 -42.27,-113.16 -29.23,-131.31 8.69,-197.16l157.9 382.72zm2089.15 -875.18l129.76 109.98c-277.98,-53.7 -80.53,14.2 -129.76,-109.98zm-1981.31 -251.63l491.07 181.22c-162.73,120.11 -107.1,13.37 -231.17,93.14 174.15,99.8 216.23,171.24 268.48,353.33 -132.06,-74.42 -513.1,-597.7 -513.11,-597.74 -2.89,-14.7 -10.27,-19.92 -15.27,-29.95zm0 0l-106.72 -107.52c275.95,24.84 44.81,-18.62 106.72,107.52zm692 -984.3c200.09,61.3 547.03,452.59 689.03,606.77 135.91,147.57 167.87,214.41 314.39,332.41 404.59,325.86 241.3,146.25 285.89,296.75 -259.68,-107.38 -494.23,-393.65 -701.94,-580.62 -166.53,-149.91 -490.19,-459.3 -587.37,-655.31zm0 0c-123.61,-52.51 -36.95,155.32 -107.89,-140.82l107.89 140.82zm1653.08 1206.27c-44.04,-151.33 -23.06,-172.08 -8.59,-331.21 60.81,-668.68 244.66,-1279.15 492.89,-1871.83l-233.89 1150.9c0.18,-0.64 33.25,-91.44 39.66,-104.5 4.38,-8.92 23.29,-17.62 26.97,-40.85 3.99,-25.23 21.07,-28.5 31.36,-42.92 -7.65,292.68 -73.63,550.04 -116.96,837.83 -19.57,129.98 -46.6,298.53 -59.12,432.66 -38.37,411.01 19.88,203.05 -104.66,344.06l-67.66 -374.14zm-1392.33 -4460.18l-238.45 109.13c-75.16,302.23 -475.99,692.19 -584.12,1236.45 -134.33,676.11 82.57,973.33 194.63,1555.03 -226.4,-218.83 -129.25,-293.03 -280.6,-505.95 -232.46,419.86 -370.44,1550.27 -432.4,2100.79 -106.39,945.34 -258.56,622.9 -1002.04,1452.9l2763.65 -10.09c-441.16,-485.71 -497.18,-1349.53 -636.07,-1970.73 -55.42,-247.89 -148,-452.14 -211.53,-679.52 535.8,382.99 318.56,2297.14 1084.35,2661.33l2121.63 -0.02 -791.62 -3700.53c-42.42,-225.16 -86.58,-420.56 -119.32,-635.66 -86.66,-569.55 -178.11,-181.02 -109.5,-590.99 -232.05,-57.07 -508.34,-269.52 -631.45,-397.32 -162.12,-168.28 -274.51,-400.09 -344.91,-668.84 -512.79,-95.83 -415.24,38.37 -782.25,44.02z"/>
  <path class="fil27" d="M13356.43 18360.85c22.46,-92.36 38.35,-129.95 76,-230.74 104.07,-278.62 -4.52,-150.62 160.32,-198.2 -20.36,74.65 -43.65,156.95 -68.49,230.76 -78.95,234.62 -19.9,156.82 -167.83,198.18zm-794.07 -270.93l521.92 197.29c295.75,148.66 51.49,-8.26 176.02,157.26 -274.19,-58.29 -588.32,-148.13 -793.05,-300.57 17.75,-264.16 103.51,-424.28 388.38,-440.66 186.28,-10.71 478.3,126.24 620.42,246.59 -351.76,-30.1 -816.04,-391.09 -913.69,140.09zm1218.23 -500.87c185.38,-322.96 91.05,-119.49 363.85,-125.65 159.13,-3.59 264.7,-144.18 428.3,-75.33 -210.67,160.6 -494.29,164.38 -792.15,200.98zm-1037.02 -366.4l24.53 236.4c-184.98,-82.47 -155.83,-71.57 -261.27,-261.45l236.74 25.05zm703.84 -111.11c203,197 261.13,258.82 283.19,464.89l-218.93 114.11c56.99,-158.93 47.81,-102.75 108.34,-259.55 -163.05,-108.31 -155.96,-74.69 -172.6,-319.45zm-1046.57 148.61c-372.71,-185.69 -412.21,-13.42 -662.75,-345.25 224.33,18.52 94.68,77.6 340.61,109.74 283.48,37.04 220.77,46.14 322.14,235.51zm-1928.67 -1984.35c-46.6,170.84 -123.15,333.58 -269.98,441.49 35.16,-233.5 119.66,-381.5 269.98,-441.49zm52.61 1089.33c-162.16,-711.23 69.15,-150.95 59.96,-718.43 -71.58,103.55 -154.32,260.66 -315.09,324.19 -12.69,-272.06 160.97,-207.32 291.9,-529.9l-89.38 -165.19 212.33 708.59c-4.6,2.01 -13.41,3.46 -14.65,3.46l-48.31 -6.88c-134.17,40.01 -45.51,208.48 14.76,308.18 -50.94,103.9 85.06,93.29 -111.52,75.98zm2218.79 857.52c-24.4,-28.35 -7.22,-28.71 -77.14,-77.87l-374.76 -160.18c-613.35,-270.61 265.08,-1689.78 300.35,-1774.96 -111.04,-69.28 -136.79,-121.92 -235.47,-184.53l-260.52 -120.48c157.83,-315.7 179.38,-268.88 442.76,-431.9 -26.27,-374.29 -99.63,-870.07 49.75,-1194.47 -44.37,1194.29 -65.18,1712.01 926.47,2041.53 -109.6,444.85 49.4,17.81 -310.57,286.69 51.17,249.36 101.31,635.42 -14.08,845.75 -22.98,-734.84 85.08,-802.34 -288.81,-997.68 -91.79,-47.96 -140.28,-93.64 -262.7,-121.28 -323.34,356.11 -423.66,937.18 -412.53,1511.84l405.13 157.44c21.9,-231.99 51.07,-393.07 264.77,-456.53 159.42,297 42.83,379.91 -4.08,667.1l-148.57 9.53zm-879.38 -2231c-299.28,-123.23 -375.99,-485.66 -522.18,-795.98l-4.74 546.73c68.22,418.03 186.27,575.56 250.85,895.86 -171.69,-7.01 -145.49,-65.69 -287.6,-152.15l-11.64 266.15c-155.96,-54.46 -199.89,-113.77 -278.24,-257.57l-66.33 196.14c-2.49,-7.98 -12.51,26.98 -19.46,40.12 -33.64,-321.12 -142.8,-652.58 -337.95,-829.07 -131.26,23.48 -170.1,28.44 -240.17,144.26l-110.89 212.52c-144.42,203.51 -132.85,318.95 -201.97,514.56l490.91 591.91c20.05,34.87 56.84,94.5 61.31,103.58 54.33,110.6 4,-19.48 32.38,101.71 198.48,-90.51 32.84,-84.56 193.41,-456.84 193.93,402.4 -343.25,310.6 348.03,1081.19 193.87,216.11 128.12,261.74 403.11,391.04l7.28 349.36c163.19,138.61 99.31,169.1 321.75,361.85 142.79,123.73 219.07,253.34 388.17,402.2 448.48,418.27 653.27,345.84 1174.38,44.52 1512.81,-874.75 1204.9,-1361.71 1383.87,-2079.66 114.66,-459.95 339.71,-870 450.12,-1292.8 -105.05,64.46 -9,0.37 -109.96,72.88l-340.65 172.89 -91.28 181c1,240.97 -66.21,519.16 -126.01,762 -135.99,552.26 -189.63,731.82 -840.26,709.26 56.73,-227.71 19.04,-620.02 316.38,-547.91 61.08,98.31 53.68,-124.2 59.64,171.59l-37.55 215.87 209.36 -3.16c163.98,-338.63 442.73,-1242.73 351.53,-1695.72 -748.84,177.66 -406.1,383.54 -690.98,774.92 -178.69,-470.91 636.61,-1254.09 983.82,-1368.36 36.95,-455.51 -2.68,-912.49 -177.22,-1252.93 -92.88,162.94 -114.31,411.47 -186.37,611.91 -317.87,884.24 -646.59,1012.22 -996.95,1439.2 -64.36,-776.41 -302.75,-2211.38 -1148.14,-2566.82 -229.68,1017.35 -685.01,1134.26 -258.15,2329.3 -177.45,-85.17 -291.21,-206.46 -341.61,-385.55z"/>
  <path class="fil27" d="M10557.99 17977.31c286.47,-162.53 74.16,65.75 628.89,-203.96 -158.36,265.49 -286.14,241.85 -628.89,203.96zm-2232.5 -1414.21l39.88 107.98c164.55,-33.62 305.13,-109.41 445.84,-135.72 782.57,-146.33 407.23,302.48 897.49,758.96 224.73,209.25 507.08,299.26 703.52,471.67 -108.45,67.65 -72.53,28.17 -124.37,161.96 243.29,436.16 892.98,3903.67 1076,4745.42l2049.19 1.59c-89.09,-443.4 -1248.44,-2848.21 -1599.82,-3650.14 -188.63,-430.49 -401.02,-861.24 -332.91,-1312.82 -57.46,-67.5 -90.82,-84.52 -123.97,-119.25 -86.25,-90.36 -40.86,-65.48 -122.19,-150.79 -71.34,-74.83 -80.43,-57.24 -142.2,-126.2l-493.75 -719.89c-106.88,-56.39 -279.31,-298.97 -369.52,-415.38 -182.57,-235.6 -218.5,-155.58 -497.75,-312.35 -404.46,-227.05 -816.31,-372.01 -1088.2,120.69 137.87,-73.85 359.35,-231.4 540.34,-232.17 188.39,-0.8 409.22,112.86 485.43,267.34 -318.87,-113.36 -394.21,-290.69 -739.68,-78.89 -166,101.77 -518.28,252.53 -548.68,456.8 469.25,-98.66 562.45,-518.42 1048.73,-177.58 77.58,54.38 33.38,29.11 84.29,98.74l-492.23 -147.47c-134.42,109.25 -176.47,147.19 -333.47,231.26 -139.62,74.75 -235.75,83.03 -361.97,156.24z"/>
  <path class="fil27" d="M10033.94 10350.38c192.05,76.57 282.92,336.63 355.66,541.58 286.15,806.3 -84.68,2248.19 123.55,2569.65 11.15,-12.57 29.51,-46.43 33.9,-37.32 2.22,4.6 340.59,-1135.57 1252.49,-1083.68 66.59,-130.46 469.5,-63.12 624.96,-49.04 -49.1,-775.17 238.67,-1701.72 845.88,-1802.43 -515.93,348.87 -803.83,1241.31 -742.19,1497.7 36.46,151.69 -18.89,23.81 78.42,114.54 0.22,-341.42 366.33,-924.38 710.25,-1108.26 166.27,-88.9 251.75,-96.37 413.85,-49.13l16.85 70.59c-11.63,103.49 0.61,27.94 -25.48,110.78 -27.6,87.64 -56.61,142.52 -84.61,243.82 -48.36,174.92 -86.37,321.8 -26.65,498.12 144.86,-44.33 8.16,45.04 100.42,-47.83 8.88,-8.94 52.68,-78.83 65.69,-95.57 77.23,-99.34 104.97,-103.82 189.91,-189.13 1259.48,-1264.96 3621.71,-418.98 3802.15,-34.37 185.24,21.81 107.77,-165.93 107.03,-590.87 -0.41,-236.95 -0.43,-473.92 0.93,-710.87l-7896.31 -8.5 53.3 160.22z"/>
  <path class="fil27" d="M14773.2 17522.48c-24.03,367.66 -351.87,613.89 -571.26,837.38 -19.9,335.96 292.6,1615.88 372.02,2054.31 103.22,569.78 182.63,1503.73 319.6,1995.04l29.19 264.02 2077.71 -3.38c-284.78,-1790.17 -1937.99,-4561.25 -2101.31,-5298.45l-125.95 151.08z"/>
  <path class="fil27" d="M15876.51 18141.65l139.45 192.15c92.07,166.59 250.25,277.3 480.34,651.91 197.99,322.33 356.35,573.48 527.08,931.49 423.58,888.2 593.99,1557.17 842.96,2115.67l-6 -6872.33c-81.16,-6.33 -1253.15,-448.23 -1877.17,71.19 501.22,111.43 779.13,402.16 1003.02,726.3 1117.53,1617.89 110.15,1017.39 -404.72,1006.32 -354.75,-7.63 -642.74,24.99 -988.77,57.86 35.37,28.18 22.91,36.81 96.26,68.07 275.59,117.44 651.96,53.09 857.67,322.54 -317.1,94.83 -430.27,191.92 -716.58,301.3 38.84,205.09 77.46,184.97 46.46,427.53z"/>
  <path class="fil27" d="M14577.66 21482.28l66.96 -4.08 -547.81 -3015.13c-150,73.14 -250.89,168.63 -393.73,259.53 -765.86,487.38 -734.68,427.28 -1282.13,236.62 -25.43,49.95 -40.45,107.72 -89.25,172.72 -106.94,142.46 -15.61,39.14 -146.18,100.53l175.4 -332.74c-70.74,-97.42 -49.18,-86.05 -137.56,-135.56 -196.39,-150.14 -523.08,-446.72 -642.81,-658.35 97.15,467.74 664.48,1658.86 909.67,2132.08 155.46,-210.67 144.15,-567.35 255.47,-800.13 0.69,296.59 -69.61,648.71 -230.81,844.26l617.33 1269.56c85.79,-195.31 276.87,-380.76 399.13,-570.51 140.55,-218.14 220.52,-345.21 281.97,-639.35 53.51,-256.11 87.32,-588.63 111.48,-853.53l55.04 -643.99c36.5,-256.19 11.36,-85.81 61.37,-166.65 3.53,353.19 -11.24,687.24 -41.45,1030.63 -25.19,286.23 -132.65,745.64 -117.9,973.14 190.02,316.21 464.16,461.02 695.81,800.95z"/>
  <path class="fil27" d="M14908.69 17304.69c245.58,397.8 420.93,856.54 626.2,1292.69 906.09,1925.22 916.23,1776.8 1591.38,4077l740.76 -4.72c47.66,-774 -1356.16,-3753.38 -1802.28,-4106.12l8.17 827.96 -196.41 -1249.85c-226.91,-323.37 -134.12,-953.27 -870.07,-1153.05l-97.75 316.09z"/>
  <path class="fil27" d="M14820.05 22555.68l-131.42 -881.37c-58.17,-41.71 -104.59,-76.19 -170.51,-136.1 -165.59,-109.66 -199.48,-241.02 -340.65,-398.36 -109.18,-121.69 -252.29,-218.56 -343.74,-411.21 -117.39,118.23 -73.01,92.56 -159.79,230.44 -309.65,492.03 -268.69,316.08 -540.55,642.47l415.82 1073.25 1195.58 0.16c152.23,-44.56 78.51,38.81 75.26,-119.28z"/>
  <path class="fil27" d="M17797.97 14593.16c87.97,-96.39 66.42,146.38 77.82,-174.42l-0.04 -1727.61c-76.33,-110.88 26.08,-27.48 -160.76,-58.48 -325.46,175.53 -869.86,293.79 -1074.53,547.76 304.56,152.21 533.58,327.45 731.48,556.17 153.31,177.16 421.99,584.39 426.03,856.58z"/>
  <path class="fil28" d="M6892.29 11179.13l0 -151.84c19.29,26.38 43.96,46.72 74.28,61.16 30.18,14.3 64.04,21.52 101.58,21.52 24.28,0 43.44,-4.2 57.09,-12.6 13.77,-8.53 20.6,-20.08 20.6,-34.64 0,-18.38 -23.1,-34.78 -69.29,-49.09 -12.08,-3.8 -21.53,-6.82 -28.48,-9.18 -66.93,-22.84 -113.13,-47.64 -138.33,-74.41 -25.32,-26.78 -37.92,-62.47 -37.92,-106.83 0,-55.38 19.81,-100.79 59.45,-136.35 39.63,-35.57 90.68,-53.29 153.28,-53.29 38.45,0 73.63,4.6 105.38,13.91 31.76,9.19 59.59,22.97 83.47,41.21l0 161.42c-20.47,-24.01 -45.67,-42.65 -75.33,-55.77 -29.79,-13.26 -61.55,-19.82 -95.41,-19.82 -23.88,0 -43.17,4.33 -57.74,12.99 -14.57,8.8 -21.92,19.82 -21.92,33.47 0,18.37 25.33,35.3 76.12,50.53 27.17,8.53 49.34,15.74 66.54,21.91 42.12,15.36 73.36,36.22 93.7,62.47 20.34,26.25 30.58,58.93 30.58,97.9 0,55.65 -20.08,100.66 -60.24,135.18 -40.03,34.51 -92.92,51.7 -158.53,51.7 -36.49,0 -69.69,-5.25 -99.61,-15.61 -30.06,-10.37 -56.43,-25.59 -79.27,-45.94zm481.12 50.53l0 -585.05 384.26 0 0 145.67 -248.04 0 0 79.53 248.04 0 0 131.5 -248.04 0 0 88.19 248.04 0 0 140.16 -384.26 0zm1000.02 -425.99l0 425.99 -151.97 0 0 -425.99 -148.03 0 0 -159.06 448.04 0 0 159.06 -148.04 0zm220.35 425.99l0 -585.05 384.26 0 0 145.67 -248.04 0 0 79.53 248.04 0 0 131.5 -248.04 0 0 88.19 248.04 0 0 140.16 -384.26 0zm-1488.42 695.69l107.74 0 -31.89 -128.09c-3.67,-13.51 -7.22,-29.13 -10.76,-46.85 -3.67,-17.71 -7.22,-37.53 -10.89,-59.58 -3.55,30.71 -10.11,63.91 -19.56,99.61l-0.78 2.62 -33.86 132.29zm-218.25 256.7l159.85 -585.05 230.71 0 154.34 585.05 -159.72 0 -30.71 -122.05 -170.74 0 -31.63 122.05 -152.1 0zm600.15 0l0 -585.05 248.95 0c64.83,0 111.69,10.89 140.69,32.81 29,21.91 43.44,57.22 43.44,105.9 0,42.79 -10.76,75.99 -32.42,99.61 -21.65,23.76 -54.2,37.67 -97.51,41.74l0 4.98c45.67,3.81 79.93,17.46 102.76,40.82 22.84,23.36 34.25,56.43 34.25,99.21 0,52.76 -16.53,92.66 -49.47,119.56 -32.94,26.9 -81.89,40.42 -146.72,40.42l-243.97 0zm145.67 -234.65l0 107.88 56.82 0c30.19,0 51.97,-4.2 65.1,-12.73 13.25,-8.4 19.82,-22.31 19.82,-41.61 0,-19.03 -6.57,-32.67 -19.56,-41.07 -13.12,-8.27 -34.91,-12.47 -65.36,-12.47l-56.82 0zm44.88 -113.39c33.6,0 57.35,-4.2 71.66,-12.47 14.17,-8.27 21.26,-21.91 21.26,-40.81 0,-17.98 -6.43,-30.84 -19.16,-38.72 -12.86,-8 -33.73,-11.94 -62.6,-11.94l-56.04 0 0 103.94 44.88 0zm334.66 348.04l0 -585.05 263.52 0c59.45,0 104.6,13.91 135.7,41.73 30.97,27.82 46.46,68.51 46.46,122.05 0,49.48 -13.52,88.45 -40.69,117.06 -27.16,28.61 -65.62,44.49 -115.22,47.51l174.02 256.7 -181.11 0 -94.49 -164.57 -2.36 -4.2c-16.8,-30.05 -29.4,-57.74 -37.8,-83.2l0 251.97 -148.03 0zm148.03 -449.62l0 119.69 63.65 0c30.19,0 51.84,-4.72 65.23,-14.04 13.25,-9.32 19.94,-24.41 19.94,-45.28 0,-22.31 -6.03,-37.93 -17.98,-46.85 -12.07,-9.05 -34.51,-13.52 -67.19,-13.52l-63.65 0zm383.35 449.62l0 -585.05 384.26 0 0 145.67 -248.04 0 0 79.53 248.04 0 0 131.5 -248.04 0 0 88.19 248.04 0 0 140.16 -384.26 0zm-1970.13 598.84c-16.93,-27.95 -38.32,-49.22 -64.17,-63.91 -25.99,-14.57 -55.38,-21.92 -88.59,-21.92 -41.99,0 -74.28,13.39 -96.85,40.16 -22.57,26.77 -33.86,65.22 -33.86,115.22 0,49.22 11.16,87.54 33.6,115.1 22.44,27.56 53.54,41.34 93.31,41.34 32.28,0 61.81,-7.74 88.58,-23.36 26.77,-15.49 47.12,-36.88 60.9,-64.05l0 154.21c-23.1,23.49 -50.66,41.34 -82.68,53.54 -32.03,12.21 -67.59,18.24 -106.57,18.24 -76.11,0 -135.3,-26.51 -177.43,-79.53 -42.13,-53.15 -63.26,-127.69 -63.26,-223.89 0,-99.87 21.26,-175.46 63.65,-226.77 42.52,-51.32 104.99,-76.91 187.54,-76.91 39.24,0 74.41,5.91 105.38,17.85 31.11,11.94 57.88,29.92 80.45,53.81l0 170.87zm91.48 353.55l0 -585.05 151.18 0 0 213.39 155.12 0 0 -213.39 151.19 0 0 585.05 -151.19 0 0 -220.48 -155.12 0 0 220.48 -151.18 0zm568.65 0l0 -585.05 151.18 0 0 585.05 -151.18 0zm262.21 0l0 -585.05 209.06 0 97.24 229.14c12.73,30.18 24.15,61.68 34.26,94.36 10.1,32.67 19.16,67.06 27.03,103.15l4.59 0c-3.01,-34.26 -5.38,-66.15 -6.82,-95.28 -1.58,-29.27 -2.36,-56.17 -2.36,-80.71l0 -250.66 137.01 0 0 585.05 -181.76 0 -132.55 -289.11c-9.71,-21.26 -18.51,-44.1 -26.51,-68.77 -7.88,-24.54 -15.1,-50.92 -21.39,-79.14l-5.78 0c1.84,20.21 3.02,41.6 3.81,64.18 0.78,22.57 1.18,48.69 1.18,78.34l0 294.5 -137.01 0zm1059.73 -296.86l0 179.67c-17.72,41.47 -45.54,73.23 -83.47,95.14 -37.93,22.05 -83.86,33.07 -137.93,33.07 -77.16,0 -138.71,-26.64 -184.65,-79.79 -45.8,-53.15 -68.77,-124.8 -68.77,-214.7 0,-99.22 23.5,-176.12 70.35,-230.72 46.85,-54.59 112.86,-81.89 198.03,-81.89 38.85,0 73.76,6.04 104.73,18.24 30.84,12.21 58.14,30.71 82.02,55.65l0 162.34c-24.54,-31.1 -49.08,-53.02 -73.36,-65.75 -24.41,-12.86 -52.36,-19.29 -84.25,-19.29 -47.38,0 -83.86,14.3 -109.45,42.91 -25.59,28.61 -38.46,69.43 -38.46,122.45 0,51.57 10.37,92.12 30.98,121.78 20.6,29.53 48.95,44.36 84.91,44.36 12.46,0 23.23,-1.7 32.15,-5.25 8.79,-3.41 16.4,-8.66 22.83,-15.88l0 -162.34 154.34 0zm314.96 307.88c-82.55,0 -145.54,-27.95 -188.98,-83.99 -43.44,-56.04 -65.22,-137.53 -65.22,-244.36 0,-94.1 20.86,-164.05 62.73,-209.98 41.73,-45.8 105.51,-68.77 191.47,-68.77 85.83,0 149.74,22.97 191.61,68.77 41.86,45.93 62.86,115.88 62.86,209.98 0,106.83 -21.78,188.32 -65.22,244.36 -43.44,56.04 -106.57,83.99 -189.25,83.99zm-107.74 -300.79c0,51.71 9.18,91.08 27.69,117.98 18.5,26.9 45.41,40.29 80.71,40.29 33.6,0 59.97,-13.39 78.87,-40.16 19.03,-26.77 28.48,-63.91 28.48,-111.68 0,-51.97 -8.79,-90.29 -26.38,-114.96 -17.58,-24.81 -44.75,-37.14 -81.63,-37.14 -35.96,0 -62.86,12.2 -80.84,36.48 -17.98,24.41 -26.9,60.76 -26.9,109.19zm446.34 289.77l0 -585.05 209.06 0 97.24 229.14c12.73,30.18 24.15,61.68 34.26,94.36 10.1,32.67 19.16,67.06 27.03,103.15l4.59 0c-3.01,-34.26 -5.38,-66.15 -6.82,-95.28 -1.58,-29.27 -2.36,-56.17 -2.36,-80.71l0 -250.66 137.01 0 0 585.05 -181.76 0 -132.55 -289.11c-9.71,-21.26 -18.51,-44.1 -26.51,-68.77 -7.88,-24.54 -15.1,-50.92 -21.39,-79.14l-5.78 0c1.84,20.21 3.02,41.6 3.81,64.18 0.78,22.57 1.18,48.69 1.18,78.34l0 294.5 -137.01 0zm-2842.86 952.39l0 -585.05 384.26 0 0 145.67 -248.04 0 0 79.53 248.04 0 0 131.5 -248.04 0 0 88.19 248.04 0 0 140.16 -384.26 0zm491.35 0l0 -585.05 151.18 0 0 439.38 206.31 0 0 145.67 -357.49 0zm1104.62 -353.55c-16.93,-27.95 -38.32,-49.22 -64.17,-63.91 -25.99,-14.57 -55.38,-21.92 -88.59,-21.92 -41.99,0 -74.28,13.39 -96.85,40.16 -22.57,26.77 -33.86,65.22 -33.86,115.22 0,49.22 11.16,87.54 33.6,115.1 22.44,27.56 53.54,41.34 93.31,41.34 32.28,0 61.81,-7.74 88.58,-23.36 26.77,-15.49 47.12,-36.88 60.9,-64.05l0 154.21c-23.1,23.49 -50.66,41.34 -82.68,53.54 -32.03,12.21 -67.59,18.24 -106.57,18.24 -76.11,0 -135.3,-26.51 -177.43,-79.53 -42.13,-53.15 -63.26,-127.69 -63.26,-223.89 0,-99.87 21.26,-175.46 63.65,-226.77 42.52,-51.32 104.99,-76.91 187.54,-76.91 39.24,0 74.41,5.91 105.38,17.85 31.11,11.94 57.88,29.92 80.45,53.81l0 170.87zm237.94 -231.5l0 343.31c0,38.59 6.56,66.8 19.81,84.52 13.13,17.72 33.86,26.51 62.08,26.51 29,0 50.13,-8.93 63.52,-26.77 13.25,-17.72 19.95,-45.94 19.95,-84.26l0 -343.31 147.24 0 0 364.05c0,33.73 -1.83,60.5 -5.38,80.05 -3.54,19.56 -9.58,37.27 -18.11,52.89 -18.37,33.47 -44.75,58.4 -79,74.67 -34.26,16.28 -77.43,24.41 -129.8,24.41 -42.52,0 -79.79,-6.43 -111.94,-19.42 -32.02,-12.86 -58.4,-32.15 -79.14,-57.74 -14.7,-17.72 -25.06,-37.8 -31.23,-60.37 -6.17,-22.57 -9.19,-54.07 -9.19,-94.49l0 -364.05 151.19 0zm419.83 585.05l0 -585.05 151.18 0 0 439.38 206.31 0 0 145.67 -357.49 0zm659.2 11.02c-82.55,0 -145.54,-27.95 -188.98,-83.99 -43.44,-56.04 -65.22,-137.53 -65.22,-244.36 0,-94.1 20.86,-164.05 62.73,-209.98 41.73,-45.8 105.51,-68.77 191.47,-68.77 85.83,0 149.74,22.97 191.61,68.77 41.86,45.93 62.86,115.88 62.86,209.98 0,106.83 -21.78,188.32 -65.22,244.36 -43.44,56.04 -106.57,83.99 -189.25,83.99zm-107.74 -300.79c0,51.71 9.18,91.08 27.69,117.98 18.5,26.9 45.41,40.29 80.71,40.29 33.6,0 59.97,-13.39 78.87,-40.16 19.03,-26.77 28.48,-63.91 28.48,-111.68 0,-51.97 -8.79,-90.29 -26.38,-114.96 -17.58,-24.81 -44.75,-37.14 -81.63,-37.14 -35.96,0 -62.86,12.2 -80.84,36.48 -17.98,24.41 -26.9,60.76 -26.9,109.19z"/>
 </g>
</svg>
