<?xml version="1.0" encoding="UTF-8"?>
<!DOCTYPE svg PUBLIC "-//W3C//DTD SVG 1.1//EN" "http://www.w3.org/Graphics/SVG/1.1/DTD/svg11.dtd">
<!-- Creator: CorelDRAW 2017 -->
<svg xmlns="http://www.w3.org/2000/svg" xml:space="preserve" width="182mm" height="182mm" version="1.1" style="shape-rendering:geometricPrecision; text-rendering:geometricPrecision; image-rendering:optimizeQuality; fill-rule:evenodd; clip-rule:evenodd"
viewBox="0 0 18200 18200"
 xmlns:xlink="http://www.w3.org/1999/xlink">
 <defs>
  <style type="text/css">
   <![CDATA[
    .str0 {stroke:#373435;stroke-width:20;stroke-miterlimit:22.9256}
    .fil0 {fill:#FEFEFE}
    .fil66 {fill:black}
    .fil5 {fill:#0E0E0E}
    .fil64 {fill:#121212}
    .fil1 {fill:#191919}
    .fil38 {fill:#202020}
    .fil48 {fill:#2B2B2B}
    .fil18 {fill:#2E2E2E}
    .fil41 {fill:#2F2F2F}
    .fil56 {fill:#313131}
    .fil57 {fill:#333333}
    .fil54 {fill:#343434}
    .fil59 {fill:#363636}
    .fil45 {fill:#373737}
    .fil52 {fill:#393939}
    .fil23 {fill:#3A3A3A}
    .fil34 {fill:#3B3B3B}
    .fil33 {fill:#3D3D3D}
    .fil10 {fill:#3F3F3F}
    .fil36 {fill:#404040}
    .fil32 {fill:#424242}
    .fil58 {fill:#434343}
    .fil28 {fill:#464646}
    .fil53 {fill:#4B4B4B}
    .fil46 {fill:#4E4E4E}
    .fil27 {fill:#505050}
    .fil43 {fill:#525252}
    .fil20 {fill:#545454}
    .fil47 {fill:#575757}
    .fil40 {fill:#5B5B5B}
    .fil49 {fill:#5C5C5C}
    .fil51 {fill:#616161}
    .fil37 {fill:#636363}
    .fil55 {fill:#666666}
    .fil50 {fill:#676767}
    .fil60 {fill:#6E6E6E}
    .fil11 {fill:#737373}
    .fil24 {fill:#747474}
    .fil2 {fill:#757575}
    .fil25 {fill:#767676}
    .fil14 {fill:#777777}
    .fil17 {fill:#787878}
    .fil42 {fill:#7C7C7C}
    .fil26 {fill:#7D7D7D}
    .fil29 {fill:#7E7E7E}
    .fil13 {fill:gray}
    .fil16 {fill:#818181}
    .fil30 {fill:#828282}
    .fil19 {fill:#868686}
    .fil21 {fill:#8D8D8D}
    .fil39 {fill:#929292}
    .fil35 {fill:#9B9B9B}
    .fil15 {fill:#A0A0A0}
    .fil3 {fill:#A1A1A1}
    .fil7 {fill:#A4A4A4}
    .fil8 {fill:#A6A6A6}
    .fil61 {fill:#C1C1C1}
    .fil12 {fill:gainsboro}
    .fil9 {fill:#E1E1E1}
    .fil4 {fill:#F2F2F2}
    .fil22 {fill:#F3F3F3}
    .fil6 {fill:whitesmoke}
    .fil31 {fill:#F9F9F9}
    .fil44 {fill:#FAFAFA}
    .fil63 {fill:#FBFBFB}
    .fil62 {fill:#FCFCFC}
    .fil65 {fill:#FDFDFD}
    .fil67 {fill:#FEFEFE}
    .fil68 {fill:#373435;fill-rule:nonzero}
   ]]>
  </style>
 </defs>
 <g id="Capa_x0020_1">
  <metadata id="CorelCorpID_0Corel-Layer"/>
  <rect class="fil0 str0" width="18200" height="18200"/>
  <path class="fil1" d="M6654.8 5755.85c-222.04,-34.11 -702.49,-295.83 -883.66,-224.14 -361.7,143.12 -403.64,259.73 -891.23,300.4 -357.1,29.78 -835.23,12.22 -1221.22,28 -899.52,36.78 -2252.87,-92.01 -2500.41,-1244.26 -98.88,-460.28 129.8,-1942.61 326.05,-2324.3 281.68,-547.85 875.73,-911.37 1644.45,-897.89 724.69,12.71 52.2,92.65 1082.32,1.48 1242.74,-109.99 1790.14,331.53 2057.24,1694.39 233.6,1191.88 93.6,1530.67 -286.89,2261.52 34.59,43.71 20.41,45.34 86.95,96.8l586.4 308zm-5197.8 9115.8l47.75 1.8c120.56,-142.45 79.32,-106.67 246.25,-185.53l230.77 204.58c237.25,86.01 617.82,400.6 817.04,560.67 -42,205.81 -276.54,432.2 -480.71,663.86 -57.33,65.05 -34.58,38.67 -98.08,90.38 -234.91,249.96 -334.64,393.7 -570.93,684.44 -205.1,252.37 -401.48,428.03 -623.21,724.79 -22.24,249.88 -165.91,194.99 512.91,206.24l324.36 -5.24c161.3,-54.72 61.38,8.46 152.55,-106.62l-911.62 18.35c100.47,-302.12 222.37,-322.09 442.8,-583.65l1132.36 -1349.16c156.21,-194.09 57.67,-167.44 290.9,-228.85 -14.5,-97.56 68.83,-108.74 -22.1,-74.26 246.24,111.65 432.65,235.52 716.2,274.23 -177.67,-212.11 -567.78,-354.42 -842.58,-517.12 -859.51,-508.91 -1255.56,-658.2 -1333.29,-1478.5 -46.49,-490.62 35.97,-964.83 122.58,-1418.52 133.11,-697.26 221.98,-526.52 490.17,-915.21 635.56,-921.14 1785.78,-1252.59 2817.81,-1364.08l-173.54 -112.2c227.43,-74.06 594.54,-413.54 723.49,-548.84 207.03,-217.25 367.37,-454.3 518.43,-763.96 -117.71,94.33 -94.32,106.97 -217.28,205.04 103.82,-878.85 849.24,-2220.28 1186.39,-2799.61 261.07,11.08 348.91,173.93 502.51,44.67l-306.23 -366.12 -1019.06 -369.72c339.28,-790.06 456.19,-1227.73 245.17,-2269.48 -176.91,-873.35 -309.93,-1313.94 -944.06,-1646.69 -621.84,-326.32 -1333.43,-67.38 -1986.26,-151.52 -708.19,-91.28 -1441.47,133.23 -1817.47,547.18 -403.24,443.92 -461.21,1265.83 -584.21,2064.6 -139.17,903.87 233.33,1429.88 731.98,1725.37 584.13,346.14 1342.23,391.44 2038.88,341.9 846.72,-60.23 1274.38,111 2015.64,-346.06l1060.63 355.03c-80.87,235.03 -212.39,379.36 -334.89,598.87 -853.63,1529.55 -800.08,2383.52 -1038.88,2641.75 -1444,1561.39 -2156.61,367.7 -3700.56,2381.22 -501.07,653.47 -647.41,2387.24 -139.56,2978.26 -133.16,201.09 -113.21,37.01 -223.05,287.71z"/>
  <path class="fil2" d="M453.68 17853.51c12.61,6.09 -1.25,26.34 129.05,47.66 29.85,4.89 124.95,4.07 159.72,4.4 3007.77,28.31 16702.74,63.61 16984.64,-51.2 74.26,-777.43 13.09,-14350.74 13.09,-16556.66l3.04 -813.49c-16.12,-222.36 -20.66,-129.41 -52.45,-203.4l-2.46 17570.19 -17234.63 2.5z"/>
  <path class="fil3" d="M2220.02 16207.41c63.5,-51.71 40.75,-25.33 98.08,-90.38 204.17,-231.66 438.71,-458.05 480.71,-663.86 -199.22,-160.07 -579.79,-474.66 -817.04,-560.67 -61.81,289.04 176.68,1005.61 238.25,1314.91z"/>
  <path class="fil4" d="M15416.24 11495.39c-61.08,201.62 -89.35,380.17 -237.43,481.19l106.32 -333.05c-72.1,78.67 -33.51,3.93 -92.46,116.05 -54.61,103.86 -12.25,35.47 -34.14,146.95l-120.99 -230.63c-6.91,261.06 -25.69,274.33 -271.32,260.17l215.53 -126.42c-49.75,-116.15 51.93,61.75 -54.58,-89.02l-71.02 -71.99 560.09 -153.25zm-841.02 1089.88c-43.14,247.05 -27.16,58.98 52.71,129.92l204.37 -44.8c35.03,-262.67 -34.44,-297.33 -151.12,-503.18 211.32,27.47 361.06,54.57 524.16,-98.78l343.86 -384.27 3.59 -322 -707.25 168.05 -133.49 590.17c-5.76,-13.36 -21.06,18.73 -35.36,26.47l-101.47 438.42z"/>
  <path class="fil5" d="M11612.02 6608.04c179.94,238.68 89.44,375.97 313.34,552.32 229.63,-17.37 417.64,-227.54 358.2,-542.23 -242.32,4.28 -317.39,118.29 -467.92,217.37l-129.98 -290.35c197.74,-236.59 551.5,-675.21 919.36,-496.79 43.07,268.74 45.59,266.95 -46.84,489.31 191.93,-162.68 192.79,-377.17 42.88,-600.84 -480.68,-116.74 -850.83,360.3 -989.04,671.21z"/>
  <path class="fil6" d="M14919.83 6321.94l16.52 -596.21 -544.94 -220.58c3.39,37.46 16.32,42.59 21.77,69.06l268.38 336.47c72.48,112.55 138,340.52 238.27,411.26z"/>
  <path class="fil7" d="M17592.76 14195.92l12.74 -319.84c-68.17,3.34 -302.15,-9.31 -333.22,-4.27 -210,34.11 -124.16,13.26 -206.49,311.57l526.97 12.54z"/>
  <path class="fil8" d="M10236.3 16846.77c-10.46,19.84 -79.29,104.83 -44.95,196.86 6.48,17.33 191.74,301.97 461.95,386.88 -94.03,-259.63 -247.12,-543.48 -417,-583.74z"/>
  <path class="fil9" d="M12291 10715.48c236.86,48.09 48.13,32.35 128.16,-80.07l-392.43 -482.5 -212.02 -310.07c287.9,849.78 367.41,575.35 476.29,872.64z"/>
  <path class="fil10" d="M6677.15 11091.49c-197.31,102.4 -167.71,298.39 -553.64,649.1 -73.66,66.95 -34.28,13.15 -93.41,77.62 -115.94,126.41 -40.75,31.66 -106.37,166.37 309.33,-160.74 638.7,-540.17 753.42,-893.09z"/>
  <path class="fil11" d="M14122.22 10388.52l11.33 -5.52 -86.7 -277.1 147.84 -78.44 -149.67 36.69c-16.85,-23.81 -74.57,-45.02 -104.63,-118.3 -8.86,16.36 -22.24,42.42 -25.7,49.71l-36.53 94.75c147.7,162.82 66.36,161.26 244.06,298.21z"/>
  <path class="fil12" d="M11750.42 12903.45l126.73 1.93 3.06 -127.54 -113.44 -132.25c-45.08,-60.39 -48.06,-70.61 -92.44,-118.41 7.98,171.23 39.24,286.5 76.09,376.27z"/>
  <path class="fil13" d="M11011.43 17114.03c-81.86,-182.25 -138.04,-189.68 -298.71,-261.35 89.17,152.17 18.4,84.41 142.51,184.75 59.38,48.01 108.98,56.64 156.2,76.6z"/>
  <path class="fil14" d="M13983.09 12698.02l-6.86 90.02 117.66 -13.16 -0.32 -154.38c-35.21,28.24 -76.85,47.03 -110.48,77.52z"/>
  <polygon class="fil15" points="8207.33,4643.83 8166.92,4755.65 8263.35,4780.02 "/>
  <path class="fil16" d="M16092.55 12534.32c128.79,-73.59 63.89,-4.97 116.61,-127.72 -247.66,73.54 -4.15,10.78 -116.61,127.72z"/>
  <path class="fil17" d="M16378.23 14314.38l329.49 -79.77c-30.89,-29.63 91.04,-163.71 -189.92,-65.16 -156.55,54.9 -101.28,71.27 -139.57,144.93z"/>
  <path class="fil18" d="M11983.87 13209.97l-17.19 -152.09c-16.87,-164.75 0.29,-0.1 -89.05,-45.49 45.66,220.35 -53.18,-33.9 24.83,98.35 59.33,100.6 32.42,54.07 81.41,99.23z"/>
  <path class="fil19" d="M12920.39 1612.69c194.24,4.01 6.77,-111.74 -39.21,-137.99l39.21 137.99z"/>
  <path class="fil20" d="M8466.75 15252.58c3.84,7.78 -127.4,204.05 152.05,102.89 -53.16,-63.62 -66.28,-56.07 -152.05,-102.89z"/>
  <path class="fil21" d="M11660.4 7220.43c71.82,-148.29 77.47,-104.5 -43.04,-311.13l-249.91 -270.14c50.17,211.96 37.32,175.4 138.56,328.81l44.49 63.9c5.79,9.57 12.34,26.06 17.99,35.83l91.91 152.73z"/>
  <path class="fil22" d="M10648.11 5719.89l89.27 -38.21c-71.08,-95.93 -107.82,-148.4 -172.1,-222.15l-190.25 -172.8c62.87,262.57 104.24,338.4 273.08,433.16z"/>
  <path class="fil23" d="M5129.48 12870.37l199.26 -317.85c-156.39,92.04 -48.7,-39.6 -130.98,91.35 -32.47,51.67 -52.53,158.57 -68.28,226.5z"/>
  <path class="fil24" d="M11451.98 14700.84c-24.69,-211 -168.05,-432.41 -266.21,-552.26 42.39,210.18 133.67,420.96 266.21,552.26z"/>
  <path class="fil25" d="M14535.94 16123.98l-397.53 2.18c68.95,55.55 123.75,103.2 278.75,98.16l187.65 -60.81c7.79,-21.11 23.43,-22.4 35.71,-32.72 -25.07,-171.62 -274.86,-173.1 -486.24,-140.57l381.66 133.76z"/>
  <path class="fil26" d="M16403.27 11348.64c171.82,-224.21 75.22,-8.23 121.28,-212.4l-39.64 -535.19c-100.06,-366.67 -20.12,-106.78 -130.92,-234.32 21.86,152.51 103.92,518.86 102.64,612.73 -2.63,195.37 -107.1,139.86 -53.36,369.18z"/>
  <path class="fil26" d="M16747.41 11536.74c-35.22,-168.51 52.25,-89 -88.92,-130.11 45.54,323.72 -13.33,33.2 88.92,130.11z"/>
  <path class="fil27" d="M6896.54 9655.69l-68.77 -208.78 -457 -222.3c116.07,141.05 178.48,141.62 373.92,196.61 76.02,256.11 23.56,195.1 151.85,234.47z"/>
  <path class="fil27" d="M8161.49 11464.82l115.12 -32.07c189.03,-23.98 -7.77,2.49 36.65,-88.71l-97.41 24.47c-210.01,16.64 8.38,-14.06 -54.36,96.31z"/>
  <path class="fil28" d="M7152.7 5733.23c151.65,69.73 104.18,117.18 263.72,113.85 16.75,-0.34 106.74,-20.3 124.58,-33.54 201.8,-149.78 41.53,19.04 123.75,-200.78l-290.6 158.01c-12.43,-29 -21.36,-64.71 -22.54,-55.87l-36.51 -202.57c-210.51,160.77 -86.05,-25.23 -162.4,220.9z"/>
  <path class="fil29" d="M16403.48 14110.59l338.09 -84.53c-15.95,-17.96 52.92,-82.32 -135.87,-52.05 -295.69,47.43 -139.89,39.21 -202.22,136.58z"/>
  <path class="fil29" d="M10700.4 12442.45c68.82,212.22 44.05,227.66 204.84,308.28l-104.06 -254.64c-15.06,-222.89 8.1,4.12 -100.78,-53.64z"/>
  <path class="fil30" d="M16747.41 11536.74c-7.97,157.74 8.04,124.98 -134.31,174.91 47.41,211.88 35.18,345.71 127.62,489.78l4.31 -456.58c0.01,15.08 15.13,18.68 20.79,44.3l122.41 132.08 32.45 -59.87c11.85,-86.9 26.91,-124.07 16.93,-215.7 -40.6,-372.82 -13.55,-123.88 -70.61,-240.52l-2.75 221.11 -116.84 -89.51z"/>
  <path class="fil31" d="M9493.88 13324.16l83.04 -506.49c-12.35,-145.6 -13.63,-55.63 -53.75,-132.15 -61.47,182.39 -134.96,316.81 -130.11,596.47l100.82 42.17z"/>
  <path class="fil32" d="M11125.17 7586l38.51 -190.22c140.67,-26.29 163.92,-55.84 289.06,67.96l202.75 245.98c19.89,-220.99 -395.54,-710.4 -608.55,-219.01 68.64,224.26 -9.08,17.71 78.23,95.29z"/>
  <path class="fil32" d="M5325.66 12554.82c217.24,-106.07 414.16,-279.81 519.22,-488.27 -201.07,116.82 -421.45,290.66 -519.22,488.27z"/>
  <path class="fil32" d="M14390.86 13714.59c161.32,-88.12 222.5,-133.83 281.7,-315.61l-281.7 315.61z"/>
  <path class="fil33" d="M12454.58 13829.74c78.81,260.32 347.44,651.78 542.14,746.53l-456.87 -717.61c0,-137.65 12.76,-7.67 -85.27,-28.92z"/>
  <path class="fil33" d="M6896.54 9655.69c12.7,36.16 -80.51,149.11 325.49,278.57l-152.8 -184.6c-48.91,-38.95 -112.06,-66.96 -172.69,-93.97z"/>
  <path class="fil34" d="M12454.58 13829.74c-62.83,-222.05 -139.15,-312.88 -289.81,-454.24 55.51,203 141.29,385.35 289.81,454.24z"/>
  <path class="fil35" d="M10207.58 16637.99l318.76 80.08c1.48,-4.74 8.84,-28.63 10.32,-33.48l10.92 -39.01c389.4,92.31 602.75,326.91 940.94,404.86l-252.51 -243.28c-114.18,-80.48 -240.25,-165.27 -354.36,-202.18 -239.51,-77.44 -515.15,-45.32 -674.07,33.01z"/>
  <path class="fil36" d="M9278.24 13578.25l-89.27 -5.63c-422.69,584.59 -254.2,472.97 -685.04,520.41l218.36 88.14c-148.46,122.48 -188.18,161.58 -296.31,353.6 321.91,-91.95 736.92,-656.31 852.26,-956.52z"/>
  <path class="fil37" d="M7429.98 8099.24c-99.15,-585.3 -390.55,-451.79 -120.7,-1826.52 -303.5,522 -254.27,1241.32 31.43,1773.04 0,224.66 -21.29,8.04 89.27,53.48z"/>
  <path class="fil37" d="M10700.4 12442.45c-13.54,-38.9 -38.54,-116.57 -59.11,-151.6 -162.86,-277.42 -10.08,-68.38 -140.7,-134.31 17.03,45.43 38.32,110.2 65.12,154.2 8.3,13.63 36.31,57.88 46.17,69.24 75.29,86.75 25.97,28.06 88.52,62.47z"/>
  <path class="fil38" d="M5676.58 13584.15c488.87,-187.05 1021.34,-901.71 1205.32,-1360.38 -265.07,88.39 -364.48,480.03 -545.41,707.35 -299.91,376.76 -563.68,421.79 -659.91,653.03z"/>
  <path class="fil39" d="M2080.39 15765.28c-48.13,64.25 -174.49,-142.21 -86.59,218.69 39.81,-261.12 66.82,-461.16 -97.13,-837.61l-51.13 -83.14c-56.06,412.36 38.82,797.61 110.46,1251.54 12.09,-15.95 28.21,-36.78 36.67,-47.43l58.28 -73.4c4.24,-5.17 15.17,-18.35 18.6,-22.42 5.62,-6.64 22.58,-21.5 33.99,-32.41l-23.15 -373.82z"/>
  <path class="fil40" d="M15774.08 9284.59c305.06,73.06 381.54,227.63 525.21,493.92 -38.48,323.67 -82.03,622.14 -252.83,836.02l-0.15 185.22c224.18,-195.83 280.17,-607.03 307.88,-958.87l183.53 129.51c-22.46,-54.91 -221.11,-421.66 -302.5,-526.29 -104.5,-134.35 -297.79,-236.96 -494.21,-279.08l33.07 119.57z"/>
  <path class="fil40" d="M11655.49 7709.72l32.09 221.09 -292.13 74.66 -270.28 -419.47c29.92,206.05 101.23,331.2 217.29,509.78 110.35,0.6 246.95,1.25 342.59,-92.96 45.49,-44.81 65.03,-66.47 60.62,-144.19 -17.94,-316.59 -30.64,-85.23 -90.18,-148.91z"/>
  <path class="fil40" d="M16442.65 3226.11l150.78 6.13 -60.51 -141.36c-91.59,56.02 -36.44,-121.96 -90.27,135.23z"/>
  <path class="fil41" d="M7650.25 5626.38c168.89,-111.01 124.79,-117.15 263.12,-204.55 807.04,765.32 1125.51,88.88 1426.7,604.27l131.12 178.74c-16.57,-194.17 -65.84,-154.76 -135.02,-354.93 16.21,-8.19 54.21,-28.03 63.68,-35.52l73.07 -60.91c9.4,-8.01 26.16,-25.49 39.28,-38.18 -414.94,-10.28 -1104.3,69.73 -1458.1,-236.64 -8.74,-7.57 -19.28,-20.9 -27.85,-28.58 -8.71,-7.81 -19.92,-21.36 -28.41,-28.89 -67.82,-60.07 -23.08,-25.37 -99.83,-77.79 -217.35,140.06 -164.91,134.53 -247.76,282.98z"/>
  <path class="fil42" d="M10500.59 12156.54l-377.09 -709.01c-124.75,-222.23 -133.79,-105.81 -137.57,-110.04 -123.2,-274.79 -241.02,-828.01 -337.98,-985.24 11.98,295.37 132.94,733.2 240.21,1003.33 223.78,563.54 459.39,566.57 524.01,758.59 0,172.35 -16.4,7.8 88.42,42.37z"/>
  <path class="fil43" d="M6881.9 12223.77l882.71 -412.65c202.64,-114.24 179.57,-103.04 240.48,-229.73 -473.09,59.75 -211.29,345.78 -1272.89,368.98l-517.18 -51.48c180.09,140.72 519.7,137.75 755.04,113.66 -203.6,215.95 -28.81,-3.99 -88.16,211.22z"/>
  <path class="fil44" d="M13983.09 12698.02c33.63,-30.49 75.27,-49.28 110.48,-77.52l79.45 -425.81 -486.28 82.64c119.06,204.19 212.51,237.14 296.35,420.69z"/>
  <path class="fil45" d="M9164.61 16645.66c80.8,-79.63 34.08,51.5 165.23,-314.47l1376.8 -49.22c63.41,-8.57 184.11,-28.07 244.06,-45.1 17.49,-4.96 66.26,-17.86 80.82,-24.73 85.06,-40.14 83.95,-65.01 95.21,-76.2l-1964.09 141.11c202.27,117.37 -33.8,-34.04 94.43,49.15 -35.71,93.88 -73.91,174.62 -92.46,319.46z"/>
  <path class="fil46" d="M8166.92 4755.65l40.41 -111.82c-41.49,-0.04 -191.18,7.65 -234.88,-3.08 -341.98,-83.99 -84.43,27.1 -185.13,-162.42l-59.08 9.52c-246.35,414.02 -194.79,592.7 -482.61,812.07 3.85,5.51 46.56,166.54 268.59,153.67l160.08 -362.7 499.14 4.07c-10.48,-10.07 -24.87,-43.06 -30.2,-30.61 -5.18,12.14 -23.85,-22.52 -31.38,-26.12 -147.95,-70.54 -276.53,-55.33 -444.39,-58.16 90.02,-166.41 60.67,-81 104.78,-266.72l394.67 42.3z"/>
  <path class="fil46" d="M10442.48 7472.28c32.46,247.28 158.08,439.85 233.52,595.09 83.74,-122.66 156.28,169.26 34.36,-338.98l-251.38 -1123.82 116.77 1112.35 -133.27 -244.64z"/>
  <path class="fil46" d="M7429.98 8099.24c46.12,132.46 30.49,108.75 149.17,197.2 -29.63,-78.86 -0.47,-68.35 -55.64,-134.33 -90.61,-108.34 -8.83,-18.5 -93.53,-62.87z"/>
  <path class="fil47" d="M10773.44 4604.22l88.66 44.73c-99.97,292.79 -233.52,206.97 -345.72,428.13 114.77,-23.81 185.78,-94.5 287.32,-159.95 -66.91,419.81 -121.28,-47.15 -266.54,378.98 -89.64,-96.63 -59.86,-63.75 -159.92,-135.49l-2.21 126.11 190.25 172.8c64.28,73.75 101.02,126.22 172.1,222.15l-89.27 38.21 -234.99 125.06 294.54 -30.31c-77.84,307.38 -197.92,412.48 -264.48,729.39 213.65,-181.25 364.89,-668.98 472.66,-1005.91 -49.11,-23.35 -15.51,-2.83 -70.33,-10.14 -120.25,-16.04 -37.55,24.3 -158.84,-40.34l-51.78 -286.23 196.62 -12.2 88.03 -753.52 -125.88 132.17c-4.09,6.3 -13.38,24.32 -20.22,36.36z"/>
  <path class="fil47" d="M10442.48 7472.28l-251.4 -832.48c-40.85,-82.65 -49.23,-79.26 -81.59,-124.3 37.94,178.41 80.82,324.87 136.45,494.06l119.95 358.05c45.17,91.4 52.48,76.65 76.59,104.67z"/>
  <path class="fil47" d="M10843.62 13615.98c9.11,-147.15 72.54,-57.12 -128.36,-351.86 -84.98,-124.67 -23.51,-51.81 -115.64,-134.3 78.26,269.68 108.22,293.14 244,486.16z"/>
  <path class="fil47" d="M16246.2 12296.05c91.31,-86.35 34,2.69 108.72,-113.02 4.71,-7.28 58.99,-120.91 59.39,-121.91 48.57,-119.95 55.78,-189.44 79.75,-323l-247.86 557.93z"/>
  <path class="fil47" d="M10773.44 4604.22c-191.92,76.8 -194.89,71.65 -279.48,251.3 19.49,-10.45 145.82,-78.61 146.07,-78.78 155.36,-115.31 83.06,-60.79 133.41,-172.52z"/>
  <path class="fil47" d="M17401.9 12876.71l-97.22 -211.48c-4.4,295.25 19.58,152.25 97.22,211.48z"/>
  <path class="fil48" d="M11750.42 12903.45c-36.85,-89.77 -68.11,-205.04 -76.09,-376.27 44.38,47.8 47.36,58.02 92.44,118.41l113.44 132.25c-68.24,-294.35 -199.53,-305.76 -263.8,-700.4 -42.17,-258.93 -89.57,-522.73 -153.13,-752.97 -107.49,-389.3 -324.74,-1042.8 -593.88,-1168.88 69.27,202.77 187.84,331.4 291.98,580.75 309.97,742.23 390.82,1477.71 508.77,2305.42l80.27 -138.31z"/>
  <path class="fil49" d="M12210.17 17712.36c11.67,7.5 45.98,46.98 134.57,67.54l428.51 4.05c842.11,-2.74 691.33,50.04 681.67,-164.39 -371.27,-537.71 -276.56,-272.25 -553.69,-1188.37 -157.69,-521.3 -78.44,-425.22 -198.13,-366.13 6.61,390.16 261.67,742.58 349.49,1114.58l-284.73 -167.47c151.58,307.46 327.6,182.41 606.61,702.88l-1164.3 -2.69z"/>
  <path class="fil49" d="M14856.15 11648.64l71.02 71.99c106.51,150.77 4.83,-27.13 54.58,89.02l-215.53 126.42c245.63,14.16 264.41,0.89 271.32,-260.17l120.99 230.63c21.89,-111.48 -20.47,-43.09 34.14,-146.95 58.95,-112.12 20.36,-37.38 92.46,-116.05l-106.32 333.05c148.08,-101.02 176.35,-279.57 237.43,-481.19l-560.09 153.25z"/>
  <path class="fil49" d="M11802.62 1752.7c47.78,-54.39 32.87,-1.92 92.41,-121.82 25.83,-51.98 29,-81.52 49.46,-134.49 152.62,-395.15 209.58,-395.46 341.07,-678.4 -193.69,157.55 -451.19,528.82 -482.94,934.71z"/>
  <path class="fil49" d="M7382.66 9159.16c-73.46,-163.03 153.49,-20.61 -159.13,-168.57 67.27,202.31 39.94,111.04 159.13,168.57z"/>
  <path class="fil50" d="M14575.22 12585.27c-94.16,87.25 -64.58,87.91 -58.4,267.49l352.91 -58.7c-47.42,325.98 -138.48,362.07 -197.17,604.92 212.83,-133.16 49.16,-104.91 398.59,-177.04 142.97,-29.53 323.65,-84.29 434.43,-121.03 -63.81,-66.95 55.01,-95.63 -218.44,4.71 -125.94,46.22 -211.6,56.59 -359.9,76.67 43.04,-359.99 51.24,-572.84 -79.62,-837.55 471.97,-51.33 465.14,-284.07 696.62,-480.66l4.96 -179.92 -343.86 384.27c-163.1,153.35 -312.84,126.25 -524.16,98.78 116.68,205.85 186.15,240.51 151.12,503.18l-204.37 44.8c-79.87,-70.94 -95.85,117.13 -52.71,-129.92z"/>
  <path class="fil50" d="M11451.98 14700.84c67.42,331.71 110.66,264.67 176.87,340.64 -32.39,-104.45 -34.01,-137.19 -73.4,-212.84 -66.31,-127.35 -79.51,-103.67 -103.47,-127.8z"/>
  <path class="fil51" d="M14128.29 10904.18c29.97,-262.41 97.52,-228.82 -92.11,-350.53 -34.94,51.32 -82.34,9.39 -29.53,190.2 83.19,284.85 10.26,51.24 121.64,160.33z"/>
  <path class="fil52" d="M10869.4 10155.59l-322.89 -501.79c-1.01,-3.61 -150.36,-2106.77 -572.32,-2486.56 13.01,207.09 318.51,1066.06 389.91,1510.73 78.97,491.72 83.95,1071.51 324.67,1371.98 171.56,214.15 23.37,82.47 180.63,105.64z"/>
  <path class="fil52" d="M8005.09 11581.39l110.75 -20.13c172.47,-19.68 -4.43,5.55 45.65,-96.44l-101.71 29.98c-10.81,16.79 -33.59,24.45 -34.9,45.66 -1.12,18.21 -11.72,28.43 -19.79,40.93z"/>
  <path class="fil53" d="M12026.73 10152.91l392.43 482.5c-80.03,112.42 108.7,128.16 -128.16,80.07 124.24,352.48 27.33,32.03 259.11,322.57 135.8,170.21 92.59,196.03 284.49,317.19 -53.81,-225.22 -7.76,-355.53 20.36,-578.98 127.06,-101.78 161.53,-149.68 235.47,-260.26l40.06 -199c198.79,-192.02 301.7,-71.28 223.27,-549.02 -140.77,-85.02 -41.31,47.17 -64.43,135.9 -108.56,416.68 51.33,-212.06 -17.96,108.35l-21.22 94.38c-494.02,120.61 10.79,308.03 -463.08,562.96 -5.24,27.29 -25.34,164.79 -26.92,170.3 -64.88,225.45 -1.43,38.22 -59.95,143.23 -94.71,-263.75 -415.12,-755.58 -673.47,-830.19z"/>
  <path class="fil53" d="M6677.15 11091.49l111.86 -116.92c5.98,-7.52 19.57,-26.78 24.55,-33.26 55.16,-71.81 449.35,-36.21 838.65,-196.13 285.3,-117.22 393.39,-258.8 588.89,-379.63 -617.03,175.75 -543.45,401.39 -1725.31,430.58l231.81 188.47 -70.45 106.89z"/>
  <path class="fil54" d="M9936.35 9684.05c-419.87,-300.15 -1176,-442.96 -1670.87,-651.34 -219.63,-92.48 -348.41,-195.04 -545.07,-282.49 79.23,157.11 -17.58,37.87 84.84,139.79 195.14,194.21 771.91,365.09 999.85,443.72 239.49,82.61 950.26,348.82 1131.25,350.32z"/>
  <path class="fil55" d="M9974.19 7167.24l2.28 -168.85c-46.51,-36.7 -213.79,-251.04 -245.14,-309.44 -259.05,-482.48 -42.12,-574.93 -260.14,-484.11 51.56,649.4 241.83,781.93 194.56,2264.14 -106.38,62.25 5.61,42.68 -79.74,26.45 -39.72,-7.55 -10.96,-6.2 -14.89,-26.45 -13.17,252.57 11.16,633.64 123.01,798.34 213.45,-911.99 -0.13,-1708.36 -44.96,-2542.74 34.62,46.29 95.09,111.19 143.26,193.98 94.29,162.09 19.98,122.57 181.76,248.68z"/>
  <path class="fil55" d="M8313.26 11344.04c193.86,-89.19 127.74,-41.83 227.13,-208.47 -64.35,34.23 -56.27,5.02 -121.96,60.86 -97.65,83.05 -57.53,51.51 -105.17,147.61z"/>
  <path class="fil56" d="M14046.69 9855.87c139.59,-124.09 60.96,-123.72 196.93,-14.99l-196.93 14.99zm247.47 -189.94l350.58 -122.18c-49.59,272.08 -78.54,339.98 -201.77,509.27l-148.81 -387.09zm-940.4 102.05c423.13,88.56 434.91,78.87 594.1,-298.5 178.16,270.31 93.12,225.11 -7.47,476.37 30.06,73.28 87.78,94.49 104.63,118.3l149.67 -36.69 97.23 -23.95c51.84,232.29 -15.61,251.35 -158.37,379.49l-11.33 5.52 28.78 117.37c162.39,-34.48 122.39,-25.35 207.44,-172.57 80.3,-139.01 54.11,-102.79 162.62,-244.57 105.95,-138.43 387.03,-621.14 10.06,-613.25 -40.24,0.84 -85.62,20.73 -124.06,34.61 -120.03,43.4 -116.01,61.7 -253.79,96.28l-81.49 -202.02 172.59 -154.63c5.54,-21.31 22.04,-20.15 32.87,-30.5 -85.06,-140.17 -9.59,-37.61 -126.24,-92.73l-15.65 118.61c-268.98,191.06 -232.48,211.17 -386.41,471.95l-341.43 -36.97c-115.79,49.06 -25.5,-49.41 -53.75,87.88z"/>
  <path class="fil57" d="M2169.41 17582.03c126.89,48.39 -24.97,173.15 337.9,-430.38 106.23,-176.68 130.62,-226.87 259.06,-378.69 288.41,-340.9 381.03,-438.91 945.31,-320.81 76.73,50.22 345.46,829.82 719.44,856.43 -775.72,-931.5 -448.82,-686.19 -634.24,-955.36 -162.92,-236.54 -578.1,-735.58 -826.74,-785.51 42.64,200.22 -186.17,-116.38 332.62,428.07 145.62,152.84 178.53,105.69 318.53,343.86 -584.72,-41.25 -656.06,47.59 -949.28,385.05 -122.59,141.08 -448.35,655.02 -502.6,857.34z"/>
  <path class="fil58" d="M12291 10715.48c-108.88,-297.29 -188.39,-22.86 -476.29,-872.64l212.02 310.07c-82.53,-542.69 -721.61,-1424.13 -827.46,-1680.28 113.48,-56.37 223.79,-52.53 309.05,-119.53 125.06,-98.27 20.67,-137.79 258.95,-205.08l626.55 -269.34 -16.99 -35.76 -303.15 0.85 -82.07 172.77c-216.32,12.95 -307.49,28 -469.06,165.12 -154.96,131.53 -233.76,141.23 -394.67,195.3l-346.08 -322.61c57.47,178.11 -13.84,88.67 118.39,255.01 24.42,30.71 87.5,74.03 116.29,104.15 89.97,94.13 104.64,142.07 180.8,284.31 334.01,623.79 651.39,1459.24 880.01,2105.32l213.71 -87.66z"/>
  <path class="fil58" d="M13090.43 10516c49,216.87 -13.53,62.09 131.45,234.55 39.68,47.19 60.64,74.25 106.08,141.14l-365.01 -200.26c-31.54,358.9 268.15,315.09 579.8,292.36l-452.32 -467.79z"/>
  <path class="fil58" d="M16808.22 10659.44c-9.17,-185.77 -24.65,-240.02 -90.01,-408.24 -26.31,-67.71 -42.76,-114 -72.85,-164.64 -87.16,-146.73 -63.58,-79.17 -107.64,-116.17 36.48,163 66.67,178.86 124.11,341.49 20.52,58.1 33.8,125.9 56.08,183.07 59.09,151.59 53.79,112.63 90.31,164.49z"/>
  <path class="fil58" d="M15798.06 13223.31c22.75,37.46 -102.09,79.25 266.59,183.03 -39.74,-62.9 34.77,-135.08 -266.59,-183.03z"/>
  <path class="fil59" d="M9658.65 12778.29c563.41,333.41 460.27,498.26 468.75,1102.18 -376.17,-108.42 -535.2,-573.06 -468.75,-1102.18zm-164.77 545.87l-100.82 -42.17c-4.85,-279.66 68.64,-414.08 130.11,-596.47 40.12,76.52 41.4,-13.45 53.75,132.15l-83.04 506.49zm-953.49 -2188.59c132.37,-14.36 170.07,225.33 226.82,359.84 65.89,156.16 117.79,273.6 220.78,428.6 193.83,291.76 325.88,494.9 525.08,706.26 -41.49,68.03 -165.62,265.41 -186.59,393.6 -54.45,332.85 62.22,212.18 -48.24,554.38 94.63,-38.46 51.97,16.64 131.55,-85.84 58.24,-74.99 56.88,-109.32 84.09,-168.25 197.34,141.82 181.69,478.31 629.77,682.35 67.42,179.78 106.88,403.43 189.98,596.1 145.32,336.94 798.89,962.66 1010.1,1450.88l-197 82.45 275.12 -47.88c84.99,197.84 99.88,177.33 211.25,354.96 90.12,143.75 120.18,233.69 261.82,331.04 -105.11,-516.64 -1338.8,-1956.03 -1472.25,-2207.34 -161.11,-303.42 -197.15,-793.03 -199.26,-1179.81 246.18,144.21 270.7,347.16 590.05,475.18 -50.67,-204.35 -324.71,-356.22 -432.15,-492.33l-29.29 -436.15c-22.72,51.18 -35.41,36.39 -58.27,149.33 -8.08,39.94 -15.01,180.6 -20,235.37 -48.99,-176.78 -201.2,-269.07 -319.77,-387.9 -100.38,-100.58 -64.93,-77.23 -155.67,-186.92 -234.67,-283.72 -91.9,3.08 -522.57,-634.06 -111.2,-164.5 -212.8,-291.37 -322.31,-490.08 -237.36,-430.71 -580.54,-2094.79 -854.72,-2251.78l83.26 259.99c-195.65,-106.33 -600.74,-420.91 -779.31,-468.4 33.08,57.84 -13.6,16.87 64.1,93.71 18.98,18.76 63.52,51.81 92.61,75.49l702.29 425.84c61.03,317.66 397.34,1119.56 298.73,1381.37z"/>
  <path class="fil59" d="M11877.63 13012.39l-0.48 -107.01 -126.73 -1.93c-15.73,101.44 -35.21,78.13 49.88,78.13l77.33 30.81z"/>
  <path class="fil60" d="M15798.06 13223.31c-71.15,-150.09 65.13,-1.21 -72.49,-124.86 -12.45,-11.19 -103.99,-52.83 -133.84,-65.56 54.91,193.74 23.67,145.43 206.33,190.42z"/>
  <path class="fil60" d="M15813.65 13415.29c-39.68,-52.03 -40.92,-79.14 -92.02,-121.67 -145.17,-120.83 -15.96,-25.14 -172.68,-91.01 128.51,193.52 72.03,143.41 264.7,212.68z"/>
  <path class="fil61" d="M14243.62 9840.88c-135.97,-108.73 -57.34,-109.1 -196.93,14.99l196.93 -14.99z"/>
  <path class="fil62" d="M1845.54 15063.22l51.13 83.14c163.95,376.45 136.94,576.49 97.13,837.61 -87.9,-360.9 38.46,-154.44 86.59,-218.69l23.15 373.82c-11.41,10.91 -28.37,25.77 -33.99,32.41 -3.43,4.07 -14.36,17.25 -18.6,22.42l-58.28 73.4c-8.46,10.65 -24.58,31.48 -36.67,47.43 -71.64,-453.93 -166.52,-839.18 -110.46,-1251.54zm-340.79 -189.77c-281.68,312.75 -470.58,680.92 -651.02,1206.46 -60.33,175.72 -208.91,543.5 -250.75,701.7 -54.92,207.59 -39.47,734.13 6.55,944.37l326.32 -0.92c35.91,-44.31 46.42,-53.2 90.03,-108.42 221.73,-296.76 418.11,-472.42 623.21,-724.79 236.29,-290.74 336.02,-434.48 570.93,-684.44 -61.57,-309.3 -300.06,-1025.87 -238.25,-1314.91l-230.77 -204.58c-166.93,78.86 -125.69,43.08 -246.25,185.53z"/>
  <path class="fil62" d="M14516.82 12852.76c-88.13,226.53 -173.51,627.28 -125.96,861.83l281.7 -315.61c58.69,-242.85 149.75,-278.94 197.17,-604.92l-352.91 58.7z"/>
  <path class="fil62" d="M14442.97 10053.02c123.23,-169.29 152.18,-237.19 201.77,-509.27l-350.58 122.18 148.81 387.09z"/>
  <path class="fil63" d="M14194.69 10027.46l-147.84 78.44 86.7 277.1c142.76,-128.14 210.21,-147.2 158.37,-379.49l-97.23 23.95z"/>
  <path class="fil64" d="M6891.17 15579.21l-910.94 -1556.33c457.97,70.87 793.3,238.23 1195.87,354.88 -9.2,239.06 -59.88,445.81 -104.15,658.71l-105.12 437.85c-37.33,89.17 -44.33,66.36 -75.66,104.89zm9975.83 -4174.07c57.06,116.64 30.01,-132.3 70.61,240.52 9.98,91.63 -5.08,128.8 -16.93,215.7l-32.45 59.87 -109.42 966.58 220.27 -414.66c-133.15,-174.96 -71.13,-549.29 -29.88,-885.16 211.36,-57.51 361.06,-110.48 633.81,-62.11l1.63 2029.81c-403.55,-33.74 -1031.56,68.4 -1280.99,-80.05l32.56 150.74 -1134.61 430.6c590.88,-65.93 849.79,-463.72 2375.71,-501.57l8.19 320.67 -12.74 319.84 -1.57 328.47c-653.96,67.9 -1400.71,260.93 -2059,383.61 -684.88,127.65 -1633.64,265.81 -1381,-830.26 -8.31,11.25 -20.69,25.93 -25.58,33.08 -454.25,663.65 -712.94,1144.08 -1511.36,1389.26 -170.45,-256.32 -337.46,-1318.31 -444.83,-1770.18 -55.13,-231.99 -77.48,-394.63 -185.55,-519.93 35.54,418.51 603.23,2692.32 719.23,2855.09 5.14,-214.65 -49.52,-273.17 -97.19,-498.31 640.05,-58.16 1158.49,-730.77 1394.68,-1158.03 265.93,408.17 246.71,887.92 1596.71,559.78 672.01,-163.33 1330.31,-319.2 2007.61,-406.38l-0.08 3162.49 -4149.91 -105.05c9.66,214.43 160.44,161.65 -681.67,164.39l-428.51 -4.05c-88.59,-20.56 -122.9,-60.04 -134.57,-67.54 -8.81,-124.4 -61.55,-410.31 -108.06,-542.94l-150.81 -312.01c-50.59,-79.26 -37.93,-47.57 -76.38,-83.35 40.78,152.81 295.85,451.93 247.15,951.53l-4065.23 2.22c-215.21,3.04 -430.83,89.44 -452.32,-128.82 572.97,366.13 1490.31,-502.27 1560.09,-953.33 -9.33,7.77 -25.27,4.91 -28.58,22.3 -3.32,17.45 -22.67,19.19 -27.14,24.96 -305.01,392.68 -719.85,1089.25 -1540.89,816.78 -86.44,-263.19 -165.66,-610.34 -270.23,-912.7 -113.81,-329.13 -247.44,-593.79 -354.73,-894.39 114.26,-383.32 229.48,-806.19 245.3,-1275.05 667.62,226.6 991.97,730.42 1278.41,825.02 -96.5,-267.88 -698.46,-567.6 -911.15,-797.15 251.63,-174.3 725.98,-167.17 944.53,-327.83 -271.05,10.07 -557.25,76.11 -794.91,166.38 -572.55,217.48 -464.82,-92.32 -1428.88,-297.47 -380.89,-81.03 -461.8,-87.61 -599.76,-412.36l-1092.35 -1206.63c-22.2,-312.86 148.43,-1143.59 215.15,-1459.9 -86.46,182.34 -146.53,469.36 -200.44,715.62l-220.58 783.89c461.92,194.6 1007.06,1093.75 1239.53,1353.58 118.47,132.41 121.45,166.12 214.7,310.34 497.56,769.57 1636.07,2595.75 1619.95,3645.87l-5343.43 -2.22c88.32,-32.86 38.94,-25.95 60.3,-142.67l-153.71 128.99c-91.17,115.08 8.75,51.9 -152.55,106.62l-324.36 5.24c-678.82,-11.25 -535.15,43.64 -512.91,-206.24 -43.61,55.22 -54.12,64.11 -90.03,108.42l-326.32 0.92c-46.02,-210.24 -61.47,-736.78 -6.55,-944.37 41.84,-158.2 190.42,-525.98 250.75,-701.7 180.44,-525.54 369.34,-893.71 651.02,-1206.46l-47.75 -1.8c-161.59,83.08 -165.57,88.56 -297.38,321.21 -318.77,562.63 -363.41,905.97 -578.97,1369.89l-0.82 -16156.73c5546.32,70.12 11439.12,4.12 17024.36,5.79l0.2 11020.9c-278.93,-26.49 -426.68,27.94 -652.22,99.74 -22.54,-267.9 -31.07,-552.14 -110.76,-803.82 -2.49,-7.86 -14.1,-17.05 -15.98,-36.01 -1.81,-18.14 -11.62,-22.01 -17.21,-33.18l58.78 745.7zm-16413.32 6448.37l17234.63 -2.5 2.46 -17570.19 -17194.91 -14.76c-108.65,589.14 -35.86,7586.7 -35.86,8826.51 0,2865.01 86.63,5919.62 -6.32,8760.94z"/>
  <path class="fil65" d="M14154.28 15990.22c211.38,-32.53 461.17,-31.05 486.24,140.57 -12.28,10.32 -27.92,11.61 -35.71,32.72l-187.65 60.81c-155,5.04 -209.8,-42.61 -278.75,-98.16l397.53 -2.18 -381.66 -133.76zm-1451.18 74.84c119.69,-59.09 40.44,-155.17 198.13,366.13 277.13,916.12 182.42,650.66 553.69,1188.37l4149.91 105.05 0.08 -3162.49c-677.3,87.18 -1335.6,243.05 -2007.61,406.38 -1350,328.14 -1330.78,-151.61 -1596.71,-559.78 -236.19,427.26 -754.63,1099.87 -1394.68,1158.03 47.67,225.14 102.33,283.66 97.19,498.31z"/>
  <path class="fil65" d="M16378.23 14314.38c38.29,-73.66 -16.98,-90.03 139.57,-144.93 280.96,-98.55 159.03,35.53 189.92,65.16l-329.49 79.77zm25.25 -203.79c62.33,-97.37 -93.47,-89.15 202.22,-136.58 188.79,-30.27 119.92,34.09 135.87,52.05l-338.09 84.53zm-589.83 -695.3c-192.67,-69.27 -136.19,-19.16 -264.7,-212.68 156.72,65.87 27.51,-29.82 172.68,91.01 51.1,42.53 52.34,69.64 92.02,121.67zm-15.59 -191.98c301.36,47.95 226.85,120.13 266.59,183.03 -368.68,-103.78 -243.84,-145.57 -266.59,-183.03zm0 0c-182.66,-44.99 -151.42,3.32 -206.33,-190.42 29.85,12.73 121.39,54.37 133.84,65.56 137.62,123.65 1.34,-25.23 72.49,124.86zm1603.84 -346.6c-77.64,-59.23 -101.62,83.77 -97.22,-211.48l97.22 211.48zm-1192.74 -470.11c-52.72,122.75 12.18,54.13 -116.61,127.72 112.46,-116.94 -131.05,-54.18 116.61,-127.72zm284.9 -668.48c-23.97,133.56 -31.18,203.05 -79.75,323 -0.4,1 -54.68,114.63 -59.39,121.91 -74.72,115.71 -17.41,26.67 -108.72,113.02l247.86 -557.93zm253.35 -201.38c-102.25,-96.91 -43.38,193.61 -88.92,-130.11 141.17,41.11 53.7,-38.4 88.92,130.11zm-222.86 -400.5c-46.06,204.17 50.54,-11.81 -121.28,212.4 -53.74,-229.32 50.73,-173.81 53.36,-369.18 1.28,-93.87 -80.78,-460.22 -102.64,-612.73 110.8,127.54 30.86,-132.35 130.92,234.32l39.64 535.19zm-478.24 -336.49c-28.31,149.12 -160.75,343.55 -263.95,463.13 -70.41,81.55 -106.69,93.39 -157.5,196.71 -32.45,66 -67.89,205.92 -75.66,224.57l-4.96 179.92c-231.48,196.59 -224.65,429.33 -696.62,480.66 130.86,264.71 122.66,477.56 79.62,837.55 148.3,-20.08 233.96,-30.45 359.9,-76.67 273.45,-100.34 154.63,-71.66 218.44,-4.71 -110.78,36.74 -291.46,91.5 -434.43,121.03 -349.43,72.13 -185.76,43.88 -398.59,177.04 -59.2,181.78 -120.38,227.49 -281.7,315.61 -53.32,88.23 -145.48,257.37 -239.67,363.15 -252.64,1096.07 696.12,957.91 1381,830.26 658.29,-122.68 1405.04,-315.71 2059,-383.61l1.57 -328.47 -526.97 -12.54c82.33,-298.31 -3.51,-277.46 206.49,-311.57 31.07,-5.04 265.05,7.61 333.22,4.27l-8.19 -320.67c-1525.92,37.85 -1784.83,435.64 -2375.71,501.57l1134.61 -430.6 -32.56 -150.74c249.43,148.45 877.44,46.31 1280.99,80.05l-1.63 -2029.81c-272.75,-48.37 -422.45,4.6 -633.81,62.11 -41.25,335.87 -103.27,710.2 29.88,885.16l-220.27 414.66 109.42 -966.58 -122.41 -132.08c-5.66,-25.62 -20.78,-29.22 -20.79,-44.3l-4.31 456.58c-92.44,-144.07 -80.21,-277.9 -127.62,-489.78 142.35,-49.93 126.34,-17.17 134.31,-174.91l116.84 89.51 2.75 -221.11 -58.78 -745.7c-36.52,-51.86 -31.22,-12.9 -90.31,-164.49 -22.28,-57.17 -35.56,-124.97 -56.08,-183.07 -57.44,-162.63 -87.63,-178.49 -124.11,-341.49l-183.53 -129.51c-27.71,351.84 -83.7,763.04 -307.88,958.87z"/>
  <path class="fil65" d="M11011.43 17114.03c-47.22,-19.96 -96.82,-28.59 -156.2,-76.6 -124.11,-100.34 -53.34,-32.58 -142.51,-184.75 160.67,71.67 216.85,79.1 298.71,261.35zm-820.08 -70.4c-34.34,-92.03 34.49,-177.02 44.95,-196.86 169.88,40.26 322.97,324.11 417,583.74 -270.21,-84.91 -455.47,-369.55 -461.95,-386.88zm16.23 -405.64c158.92,-78.33 434.56,-110.45 674.07,-33.01 114.11,36.91 240.18,121.7 354.36,202.18l252.51 243.28c-338.19,-77.95 -551.54,-312.55 -940.94,-404.86l-10.92 39.01c-1.48,4.85 -8.84,28.74 -10.32,33.48l-318.76 -80.08zm919.15 -502.05c-11.26,11.19 -10.15,36.06 -95.21,76.2 -14.56,6.87 -63.33,19.77 -80.82,24.73 -59.95,17.03 -180.65,36.53 -244.06,45.1l-1376.8 49.22c-131.15,365.97 -84.43,234.84 -165.23,314.47 -69.78,451.06 -987.12,1319.46 -1560.09,953.33 21.49,218.26 237.11,131.86 452.32,128.82l4065.23 -2.22c48.7,-499.6 -206.37,-798.72 -247.15,-951.53 -141.64,-97.35 -171.7,-187.29 -261.82,-331.04 -111.37,-177.63 -126.26,-157.12 -211.25,-354.96l-275.12 47.88z"/>
  <path class="fil65" d="M14036.18 10553.65c189.63,121.71 122.08,88.12 92.11,350.53 -111.38,-109.09 -38.45,124.52 -121.64,-160.33 -52.81,-180.81 -5.41,-138.88 29.53,-190.2zm-945.75 -37.65l452.32 467.79c-311.65,22.73 -611.34,66.54 -579.8,-292.36l365.01 200.26c-45.44,-66.89 -66.4,-93.95 -106.08,-141.14 -144.98,-172.46 -82.45,-17.68 -131.45,-234.55zm1031.79 -127.48c-177.7,-136.95 -96.36,-135.39 -244.06,-298.21l36.53 -94.75c3.46,-7.29 16.84,-33.35 25.7,-49.71 100.59,-251.26 185.63,-206.06 7.47,-476.37 -159.19,377.37 -170.97,387.06 -594.1,298.5 78.43,477.74 -24.48,357 -223.27,549.02l-40.06 199c-73.94,110.58 -108.41,158.48 -235.47,260.26 -28.12,223.45 -74.17,353.76 -20.36,578.98 93.91,240.69 13.36,158.78 199.39,361.67 128.29,139.93 160.75,175.51 293.48,280.59 400.86,317.36 347.23,212.75 855.39,137.6l535.04 -1234.13c-299.8,-711.97 -111.45,-477 371.88,-1476.41 -310.29,-136.52 -341.1,-98.76 -681.77,-95.6l-130.77 -109.72c-10.83,10.35 -27.33,9.19 -32.87,30.5l-172.59 154.63 81.49 202.02c137.78,-34.58 133.76,-52.88 253.79,-96.28 38.44,-13.88 83.82,-33.77 124.06,-34.61 376.97,-7.89 95.89,474.82 -10.06,613.25 -108.51,141.78 -82.32,105.56 -162.62,244.57 -85.05,147.22 -45.05,138.09 -207.44,172.57l-28.78 -117.37z"/>
  <path class="fil65" d="M11125.17 7586l270.28 419.47 292.13 -74.66 -32.09 -221.09 -202.75 -245.98c-125.14,-123.8 -148.39,-94.25 -289.06,-67.96l-38.51 190.22z"/>
  <path class="fil66" d="M14093.57 12620.5l0.32 154.38 -117.66 13.16 6.86 -90.02c-83.84,-183.55 -177.29,-216.5 -296.35,-420.69l486.28 -82.64 -79.45 425.81zm1496.92 -4841.13c-705.12,-272.58 -604.54,-1191.51 -558.87,-2117 18.41,-373.07 94.93,-874.92 340.52,-1055.94 170.34,-125.54 752.2,-235.7 979.51,-156.94 784.98,272.01 864.42,2618.84 366.73,3174.64 -242.19,270.47 -605.22,181.05 -988.99,216.7l-202.55 455.25 63.65 -516.71zm-670.66 -1457.43c-100.27,-70.74 -165.79,-298.71 -238.27,-411.26l-268.38 -336.47c-5.45,-26.47 -18.38,-31.6 -21.77,-69.06l544.94 220.58 -16.52 596.21zm-3117.21 -4569.24l-82.17 540.56c-785.15,50.37 -751.79,127.87 -1331.84,461.18 -338.71,-190.24 -809.35,-528.43 -1250.62,-434.8 196.3,179.19 486.56,444.47 507.7,841.26 -304.98,-128.28 -357.52,-284.71 -1063.26,-482.73 -306.05,-85.87 -949.46,-268.86 -1215.79,7.31 473.82,230.75 1032.21,731.23 1268.52,1173.12l-1175.61 -384.68c150.38,395.64 284.12,623.35 573.85,920.06l-305.16 93.87 59.08 -9.52c356.43,35.14 1459.94,110.47 1690.75,321.62 108.14,98.92 557.7,1461.12 631.42,1715.55l-59.07 -416.15c116.05,-130.42 175.4,-184.42 362.7,-254.4l234.99 -125.06c-168.84,-94.76 -210.21,-170.59 -273.08,-433.16 -147.96,-306.31 231.03,-959.56 637.41,-1022.14l19.33 587.58c140.96,96.47 -93.73,12.42 42.02,2.92 74.78,-5.23 -39.51,-35.97 56.6,-2.92 63.66,210.31 81.24,372.86 215.26,411.23l65.57 -902.04c157.69,318.33 203.41,472.52 383.67,768.9 142.69,-1215.19 263.11,-1007.58 303.81,-1130.28l16 1014.34c30.95,-446.96 -44.63,-1047.02 128.61,-1411.16 246.9,248.5 382.06,1012.13 381.42,1373.73 -265.2,177.73 -437.63,148.62 -566.81,470.53 370.28,-195.39 662.4,-63.27 745.05,426.07 16.78,99.32 8.72,155.88 17.56,228.13 25.26,206.35 14.03,114.56 58.68,197.26 180.44,-318.5 37.23,-756.84 -6.77,-1152.45l165.74 -158.3c267.43,521.02 150.42,1323.42 -320.71,1855.26 -457.91,516.92 -202.36,118.64 -340.64,999.53l16.99 35.76c105.56,-23.09 83.93,177.8 65.19,-591.1 392.93,-10.93 786.96,246.75 1169.97,297.87 -51.98,-288.64 -317.12,-437.71 -434.32,-744.4 377.18,78.18 787.96,298.14 1057.92,509.4 580.2,454.07 477.98,615.8 612.91,840.35 59.61,99.17 18.32,28.37 95.33,97.7 90.47,-232.08 159.96,-316.08 185.4,-660.96 157.39,127.96 151.27,137.29 346.43,225.82l-129.9 822c-263.33,-28.96 -577.02,-167.07 -872.99,-54.57 -102.95,39.14 -552.88,368.51 -338.76,505.72 116.65,55.12 41.18,-47.44 126.24,92.73l130.77 109.72c340.67,-3.16 371.48,-40.92 681.77,95.6 -483.33,999.41 -671.68,764.44 -371.88,1476.41l-535.04 1234.13c-508.16,75.15 -454.53,179.76 -855.39,-137.6 -132.73,-105.08 -165.19,-140.66 -293.48,-280.59 -186.03,-202.89 -105.48,-120.98 -199.39,-361.67 -18.12,630.73 -415.07,1688.85 -954.39,1422.6l-3.06 127.54 191.37 253.42 -22.2 -263.73c468.73,-99.96 737.37,-650.56 802.45,-1218.5 191.05,99.87 266.57,243.6 617.44,527.07 325.07,262.64 280.57,290.01 510.02,584.4 317.25,722.34 214.25,500.74 174.96,1289.7 94.19,-105.78 186.35,-274.92 239.67,-363.15 -47.55,-234.55 37.83,-635.3 125.96,-861.83 -6.18,-179.58 -35.76,-180.24 58.4,-267.49l101.47 -438.42c14.3,-7.74 29.6,-39.83 35.36,-26.47l133.49 -590.17 707.25 -168.05 -3.59 322c7.77,-18.65 43.21,-158.57 75.66,-224.57 50.81,-103.32 87.09,-115.16 157.5,-196.71 103.2,-119.58 235.64,-314.01 263.95,-463.13l-104.95 146.52c-294.7,499.83 -266,419.38 -615,386.33 106.41,-249.5 690.87,-1016.34 447.72,-2048.01l-33.07 -119.57c-89.4,-186.72 -152.83,-202.62 -250.01,-388.28l329.31 -832.1c896.92,-9.91 1361.62,-116.32 1286.48,-1784.47 -56.36,-1251.22 -230.84,-1834.95 -1218.9,-1861.66 -305.48,-512.32 -777.66,-719.76 -1495.45,-793.01 314.06,-103.76 548.33,-223.79 970.54,-295.36 344.52,-58.41 739.22,-56.13 1079.67,15.97 53.83,-257.19 -1.32,-79.21 90.27,-135.23 -138.11,-318.76 -441.34,-661.61 -685.51,-858.76 -1048.97,-846.96 -2064.45,-924.15 -3172.28,-237.46 63.04,-196.36 128.29,-259.81 245.26,-381.97l-39.21 -137.99c-799.46,143.62 -830.16,601.69 -1138.16,820.48l59.6 -542.48z"/>
  <path class="fil67" d="M11655.49 7709.72c59.54,63.68 72.24,-167.68 90.18,148.91 4.41,77.72 -15.13,99.38 -60.62,144.19 -95.64,94.21 -232.24,93.56 -342.59,92.96 -116.06,-178.58 -187.37,-303.73 -217.29,-509.78 -87.31,-77.58 -9.59,128.97 -78.23,-95.29 213.01,-491.39 628.44,-1.98 608.55,219.01zm-1213.01 -237.44l133.27 244.64 -116.77 -1112.35 251.38 1123.82c121.92,508.24 49.38,216.32 -34.36,338.98 -75.44,-155.24 -201.06,-347.81 -233.52,-595.09zm1174.88 -562.98c120.51,206.63 114.86,162.84 43.04,311.13l-91.91 -152.73c-5.65,-9.77 -12.2,-26.26 -17.99,-35.83l-44.49 -63.9c-101.24,-153.41 -88.39,-116.85 -138.56,-328.81l249.91 270.14zm-1507.87 -393.8c32.36,45.04 40.74,41.65 81.59,124.3l251.4 832.48c-24.11,-28.02 -31.42,-13.27 -76.59,-104.67l-119.95 -358.05c-55.63,-169.19 -98.51,-315.65 -136.45,-494.06zm1502.53 92.54c138.21,-310.91 508.36,-787.95 989.04,-671.21 149.91,223.67 149.05,438.16 -42.88,600.84 92.43,-222.36 89.91,-220.57 46.84,-489.31 -367.86,-178.42 -721.62,260.2 -919.36,496.79l129.98 290.35c150.53,-99.08 225.6,-213.09 467.92,-217.37 59.44,314.69 -128.57,524.86 -358.2,542.23 -223.9,-176.35 -133.4,-313.64 -313.34,-552.32zm-838.58 -2003.82c-50.35,111.73 21.95,57.21 -133.41,172.52 -0.25,0.17 -126.58,68.33 -146.07,78.78 84.59,-179.65 87.56,-174.5 279.48,-251.3zm1029.18 -2851.52c31.75,-405.89 289.25,-777.16 482.94,-934.71 -131.49,282.94 -188.45,283.25 -341.07,678.4 -20.46,52.97 -23.63,82.51 -49.46,134.49 -59.54,119.9 -44.63,67.43 -92.41,121.82zm-10345.62 13118.95c109.84,-250.7 89.89,-86.62 223.05,-287.71 -507.85,-591.02 -361.51,-2324.79 139.56,-2978.26 1543.95,-2013.52 2256.56,-819.83 3700.56,-2381.22 238.8,-258.23 185.25,-1112.2 1038.88,-2641.75 122.5,-219.51 254.02,-363.84 334.89,-598.87l-1060.63 -355.03c-741.26,457.06 -1168.92,285.83 -2015.64,346.06 -696.65,49.54 -1454.75,4.24 -2038.88,-341.9 -498.65,-295.49 -871.15,-821.5 -731.98,-1725.37 123,-798.77 180.97,-1620.68 584.21,-2064.6 376,-413.95 1109.28,-638.46 1817.47,-547.18 652.83,84.14 1364.42,-174.8 1986.26,151.52 634.13,332.75 767.15,773.34 944.06,1646.69 211.02,1041.75 94.11,1479.42 -245.17,2269.48l1019.06 369.72c76.35,-246.13 -48.11,-60.13 162.4,-220.9l36.51 202.57c1.18,-8.84 10.11,26.87 22.54,55.87l290.6 -158.01 -14.5 13.62c82.85,-148.45 30.41,-142.92 247.76,-282.98 76.75,52.42 32.01,17.72 99.83,77.79 8.49,7.53 19.7,21.08 28.41,28.89 8.57,7.68 19.11,21.01 27.85,28.58 353.8,306.37 1043.16,226.36 1458.1,236.64 -13.12,12.69 -29.88,30.17 -39.28,38.18l-73.07 60.91c-9.47,7.49 -47.47,27.33 -63.68,35.52 69.18,200.17 118.45,160.76 135.02,354.93 218.02,-90.82 1.09,1.63 260.14,484.11 31.35,58.4 198.63,272.74 245.14,309.44l-2.28 168.85c421.96,379.79 571.31,2482.95 572.32,2486.56l322.89 501.79c269.14,126.08 486.39,779.58 593.88,1168.88 63.56,230.24 110.96,494.04 153.13,752.97 64.27,394.64 195.56,406.05 263.8,700.4 539.32,266.25 936.27,-791.87 954.39,-1422.6 -191.9,-121.16 -148.69,-146.98 -284.49,-317.19 -231.78,-290.54 -134.87,29.91 -259.11,-322.57l-213.71 87.66c-228.62,-646.08 -546,-1481.53 -880.01,-2105.32 -76.16,-142.24 -90.83,-190.18 -180.8,-284.31 -28.79,-30.12 -91.87,-73.44 -116.29,-104.15 -132.23,-166.34 -60.92,-76.9 -118.39,-255.01l346.08 322.61c160.91,-54.07 239.71,-63.77 394.67,-195.3 161.57,-137.12 252.74,-152.17 469.06,-165.12l82.07 -172.77 303.15 -0.85c138.28,-880.89 -117.27,-482.61 340.64,-999.53 471.13,-531.84 588.14,-1334.24 320.71,-1855.26l-165.74 158.3c44,395.61 187.21,833.95 6.77,1152.45 -44.65,-82.7 -33.42,9.09 -58.68,-197.26 -8.84,-72.25 -0.78,-128.81 -17.56,-228.13 -82.65,-489.34 -374.77,-621.46 -745.05,-426.07 129.18,-321.91 301.61,-292.8 566.81,-470.53 0.64,-361.6 -134.52,-1125.23 -381.42,-1373.73 -173.24,364.14 -97.66,964.2 -128.61,1411.16l-16 -1014.34c-40.7,122.7 -161.12,-84.91 -303.81,1130.28 -180.26,-296.38 -225.98,-450.57 -383.67,-768.9l-65.57 902.04c-134.02,-38.37 -151.6,-200.92 -215.26,-411.23 -96.11,-33.05 18.18,-2.31 -56.6,2.92 -135.75,9.5 98.94,93.55 -42.02,-2.92l-19.33 -587.58c-406.38,62.58 -785.37,715.83 -637.41,1022.14l2.21 -126.11c100.06,71.74 70.28,38.86 159.92,135.49 145.26,-426.13 199.63,40.83 266.54,-378.98 -101.54,65.45 -172.55,136.14 -287.32,159.95 112.2,-221.16 245.75,-135.34 345.72,-428.13l-88.66 -44.73c6.84,-12.04 16.13,-30.06 20.22,-36.36l125.88 -132.17 -88.03 753.52 -196.62 12.2 51.78 286.23c121.29,64.64 38.59,24.3 158.84,40.34 54.82,7.31 21.22,-13.21 70.33,10.14 -107.77,336.93 -259.01,824.66 -472.66,1005.91 66.56,-316.91 186.64,-422.01 264.48,-729.39l-294.54 30.31c-187.3,69.98 -246.65,123.98 -362.7,254.4l59.07 416.15c-73.72,-254.43 -523.28,-1616.63 -631.42,-1715.55 -230.81,-211.15 -1334.32,-286.48 -1690.75,-321.62 100.7,189.52 -156.85,78.43 185.13,162.42 43.7,10.73 193.39,3.04 234.88,3.08l56.02 136.19 -96.43 -24.37 -394.67 -42.3c-44.11,185.72 -14.76,100.31 -104.78,266.72 167.86,2.83 296.44,-12.38 444.39,58.16 7.53,3.6 26.2,38.26 31.38,26.12 5.33,-12.45 19.72,20.54 30.2,30.61l-499.14 -4.07 -160.08 362.7c-222.03,12.87 -264.74,-148.16 -268.59,-153.67 287.82,-219.37 236.26,-398.05 482.61,-812.07l305.16 -93.87c-289.73,-296.71 -423.47,-524.42 -573.85,-920.06l1175.61 384.68c-236.31,-441.89 -794.7,-942.37 -1268.52,-1173.12 266.33,-276.17 909.74,-93.18 1215.79,-7.31 705.74,198.02 758.28,354.45 1063.26,482.73 -21.14,-396.79 -311.4,-662.07 -507.7,-841.26 441.27,-93.63 911.91,244.56 1250.62,434.8 580.05,-333.31 546.69,-410.81 1331.84,-461.18l82.17 -540.56 -59.6 542.48c308,-218.79 338.7,-676.86 1138.16,-820.48 45.98,26.25 233.45,142 39.21,137.99 -116.97,122.16 -182.22,185.61 -245.26,381.97 1107.83,-686.69 2123.31,-609.5 3172.28,237.46 244.17,197.15 547.4,540 685.51,858.76l60.51 141.36 -150.78 -6.13c-340.45,-72.1 -735.15,-74.38 -1079.67,-15.97 -422.21,71.57 -656.48,191.6 -970.54,295.36 717.79,73.25 1189.97,280.69 1495.45,793.01 988.06,26.71 1162.54,610.44 1218.9,1861.66 75.14,1668.15 -389.56,1774.56 -1286.48,1784.47l-329.31 832.1c97.18,185.66 160.61,201.56 250.01,388.28 196.42,42.12 389.71,144.73 494.21,279.08 81.39,104.63 280.04,471.38 302.5,526.29 44.06,37 20.48,-30.56 107.64,116.17 30.09,50.64 46.54,96.93 72.85,164.64 65.36,168.22 80.84,222.47 90.01,408.24 5.59,11.17 15.4,15.04 17.21,33.18 1.88,18.96 13.49,28.15 15.98,36.01 79.69,251.68 88.22,535.92 110.76,803.82 225.54,-71.8 373.29,-126.23 652.22,-99.74l-0.2 -11020.9c-5585.24,-1.67 -11478.04,64.33 -17024.36,-5.79l0.82 16156.73c215.56,-463.92 260.2,-807.26 578.97,-1369.89 131.81,-232.65 135.79,-238.13 297.38,-321.21z"/>
  <path class="fil67" d="M11451.98 14700.84c23.96,24.13 37.16,0.45 103.47,127.8 39.39,75.65 41.01,108.39 73.4,212.84 -66.21,-75.97 -109.45,-8.93 -176.87,-340.64zm0 0c-132.54,-131.3 -223.82,-342.08 -266.21,-552.26 98.16,119.85 241.52,341.26 266.21,552.26zm-608.36 -1084.86c-135.78,-193.02 -165.74,-216.48 -244,-486.16 92.13,82.49 30.66,9.63 115.64,134.3 200.9,294.74 137.47,204.71 128.36,351.86zm-5714.14 -745.61c15.75,-67.93 35.81,-174.83 68.28,-226.5 82.28,-130.95 -25.41,0.69 130.98,-91.35l-199.26 317.85zm5570.92 -427.92c108.88,57.76 85.72,-169.25 100.78,53.64l104.06 254.64c-160.79,-80.62 -136.02,-96.06 -204.84,-308.28zm-199.81 -285.91c130.62,65.93 -22.16,-143.11 140.7,134.31 20.57,35.03 45.57,112.7 59.11,151.6 -62.55,-34.41 -13.23,24.28 -88.52,-62.47 -9.86,-11.36 -37.87,-55.61 -46.17,-69.24 -26.8,-44 -48.09,-108.77 -65.12,-154.2zm-5174.93 398.28c97.77,-197.61 318.15,-371.45 519.22,-488.27 -105.06,208.46 -301.98,382.2 -519.22,488.27zm1351.49 -1463.33c-114.72,352.92 -444.09,732.35 -753.42,893.09 65.62,-134.71 -9.57,-39.96 106.37,-166.37 59.13,-64.47 19.75,-10.67 93.41,-77.62 385.93,-350.71 356.33,-546.7 553.64,-649.1zm3823.44 1065.05c-104.82,-34.57 -88.42,129.98 -88.42,-42.37 -64.62,-192.02 -300.23,-195.05 -524.01,-758.59 -107.27,-270.13 -228.23,-707.96 -240.21,-1003.33 96.96,157.23 214.78,710.45 337.98,985.24 3.78,4.23 12.82,-112.19 137.57,110.04l377.09 709.01zm-3823.44 -1065.05l70.45 -106.89 -231.81 -188.47c1181.86,-29.19 1108.28,-254.83 1725.31,-430.58 -195.5,120.83 -303.59,262.41 -588.89,379.63 -389.3,159.92 -783.49,124.32 -838.65,196.13 -4.98,6.48 -18.57,25.74 -24.55,33.26l-111.86 116.92zm219.39 -1435.8c60.63,27.01 123.78,55.02 172.69,93.97l152.8 184.6c-406,-129.46 -312.79,-242.41 -325.49,-278.57zm0 0c-128.29,-39.37 -75.83,21.64 -151.85,-234.47 -195.44,-54.99 -257.85,-55.56 -373.92,-196.61l457 222.3 68.77 208.78zm486.12 -496.53c-119.19,-57.53 -91.86,33.74 -159.13,-168.57 312.62,147.96 85.67,5.54 159.13,168.57zm2553.69 524.89c-180.99,-1.5 -891.76,-267.71 -1131.25,-350.32 -227.94,-78.63 -804.71,-249.51 -999.85,-443.72 -102.42,-101.92 -5.61,17.32 -84.84,-139.79 196.66,87.45 325.44,190.01 545.07,282.49 494.87,208.38 1251,351.19 1670.87,651.34zm-2506.37 -1584.81c84.7,44.37 2.92,-45.47 93.53,62.87 55.17,65.98 26.01,55.47 55.64,134.33 -118.68,-88.45 -103.05,-64.74 -149.17,-197.2zm0 0c-110.56,-45.44 -89.27,171.18 -89.27,-53.48 -285.7,-531.72 -334.93,-1251.04 -31.43,-1773.04 -269.85,1374.73 21.55,1241.22 120.7,1826.52zm220.27 -2472.86l14.5 -13.62c-82.22,219.82 78.05,51 -123.75,200.78 -17.84,13.24 -107.83,33.2 -124.58,33.54 -159.54,3.33 -112.07,-44.12 -263.72,-113.85l306.23 366.12c-153.6,129.26 -241.44,-33.59 -502.51,-44.67 -337.15,579.33 -1082.57,1920.76 -1186.39,2799.61 122.96,-98.07 99.57,-110.71 217.28,-205.04 -151.06,309.66 -311.4,546.71 -518.43,763.96 -128.95,135.3 -496.06,474.78 -723.49,548.84l173.54 112.2c-1032.03,111.49 -2182.25,442.94 -2817.81,1364.08 -268.19,388.69 -357.06,217.95 -490.17,915.21 -86.61,453.69 -169.07,927.9 -122.58,1418.52 77.73,820.3 473.78,969.59 1333.29,1478.5 274.8,162.7 664.91,305.01 842.58,517.12 -283.55,-38.71 -469.96,-162.58 -716.2,-274.23 90.93,-34.48 7.6,-23.3 22.1,74.26 248.64,49.93 663.82,548.97 826.74,785.51 185.42,269.17 -141.48,23.86 634.24,955.36 -373.98,-26.61 -642.71,-806.21 -719.44,-856.43 -564.28,-118.1 -656.9,-20.09 -945.31,320.81 -128.44,151.82 -152.83,202.01 -259.06,378.69 -362.87,603.53 -211.01,478.77 -337.9,430.38 -21.36,116.72 28.02,109.81 -60.3,142.67l5343.43 2.22c16.12,-1050.12 -1122.39,-2876.3 -1619.95,-3645.87 -93.25,-144.22 -96.23,-177.93 -214.7,-310.34 -232.47,-259.83 -777.61,-1158.98 -1239.53,-1353.58l220.58 -783.89c53.91,-246.26 113.98,-533.28 200.44,-715.62 -66.72,316.31 -237.35,1147.04 -215.15,1459.9l1092.35 1206.63c96.23,-231.24 360,-276.27 659.91,-653.03 180.93,-227.32 280.34,-618.96 545.41,-707.35 59.35,-215.21 -115.44,4.73 88.16,-211.22 -235.34,24.09 -574.95,27.06 -755.04,-113.66l517.18 51.48c1061.6,-23.2 799.8,-309.23 1272.89,-368.98 8.07,-12.5 18.67,-22.72 19.79,-40.93 1.31,-21.21 24.09,-28.87 34.9,-45.66l101.71 -29.98c62.74,-110.37 -155.65,-79.67 54.36,-96.31l97.41 -24.47c47.64,-96.1 7.52,-64.56 105.17,-147.61 65.69,-55.84 57.61,-26.63 121.96,-60.86 98.61,-261.81 -237.7,-1063.71 -298.73,-1381.37l-702.29 -425.84c-29.09,-23.68 -73.63,-56.73 -92.61,-75.49 -77.7,-76.84 -31.02,-35.87 -64.1,-93.71 178.57,47.49 583.66,362.07 779.31,468.4l-83.26 -259.99c274.18,156.99 617.36,1821.07 854.72,2251.78 109.51,198.71 211.11,325.58 322.31,490.08 430.67,637.14 287.9,350.34 522.57,634.06 90.74,109.69 55.29,86.34 155.67,186.92 118.57,118.83 270.78,211.12 319.77,387.9 4.99,-54.77 11.92,-195.43 20,-235.37 22.86,-112.94 35.55,-98.15 58.27,-149.33l29.29 436.15c107.44,136.11 381.48,287.98 432.15,492.33 -319.35,-128.02 -343.87,-330.97 -590.05,-475.18 2.11,386.78 38.15,876.39 199.26,1179.81 133.45,251.31 1367.14,1690.7 1472.25,2207.34 38.45,35.78 25.79,4.09 76.38,83.35l150.81 312.01c46.51,132.63 99.25,418.54 108.06,542.94l1164.3 2.69c-279.01,-520.47 -455.03,-395.42 -606.61,-702.88l284.73 167.47c-87.82,-372 -342.88,-724.42 -349.49,-1114.58 -116,-162.77 -683.69,-2436.58 -719.23,-2855.09 -48.99,-45.16 -22.08,1.37 -81.41,-99.23 -78.01,-132.25 20.83,122 -24.83,-98.35l-77.33 -30.81c-85.09,0 -65.61,23.31 -49.88,-78.13l-80.27 138.31c-117.95,-827.71 -198.8,-1563.19 -508.77,-2305.42 -104.14,-249.35 -222.71,-377.98 -291.98,-580.75 -157.26,-23.17 -9.07,108.51 -180.63,-105.64 -240.72,-300.47 -245.7,-880.26 -324.67,-1371.98 -71.4,-444.67 -376.9,-1303.64 -389.91,-1510.73 -161.78,-126.11 -87.47,-86.59 -181.76,-248.68 -48.17,-82.79 -108.64,-147.69 -143.26,-193.98 44.83,834.38 258.41,1630.75 44.96,2542.74 -111.85,-164.7 -136.18,-545.77 -123.01,-798.34 3.93,20.25 -24.83,18.9 14.89,26.45 85.35,16.23 -26.64,35.8 79.74,-26.45 47.27,-1482.21 -143,-1614.74 -194.56,-2264.14l-131.12 -178.74c-301.19,-515.39 -619.66,161.05 -1426.7,-604.27 -138.33,87.4 -94.23,93.54 -263.12,204.55z"/>
  <path class="fil67" d="M8466.75 15252.58c85.77,46.82 98.89,39.27 152.05,102.89 -279.45,101.16 -148.21,-95.11 -152.05,-102.89zm811.49 -1674.33c-115.34,300.21 -530.35,864.57 -852.26,956.52 108.13,-192.02 147.85,-231.12 296.31,-353.6l-218.36 -88.14c430.84,-47.44 262.35,64.18 685.04,-520.41l89.27 5.63zm-964.98 -2234.21c-44.42,91.2 152.38,64.73 -36.65,88.71l-115.12 32.07c-50.08,101.99 126.82,76.76 -45.65,96.44l-110.75 20.13c-60.91,126.69 -37.84,115.49 -240.48,229.73l-882.71 412.65c-183.98,458.67 -716.45,1173.33 -1205.32,1360.38 137.96,324.75 218.87,331.33 599.76,412.36 964.06,205.15 856.33,514.95 1428.88,297.47 237.66,-90.27 523.86,-156.31 794.91,-166.38 -218.55,160.66 -692.9,153.53 -944.53,327.83 212.69,229.55 814.65,529.27 911.15,797.15 -286.44,-94.6 -610.79,-598.42 -1278.41,-825.02 -15.82,468.86 -131.04,891.73 -245.3,1275.05 107.29,300.6 240.92,565.26 354.73,894.39 104.57,302.36 183.79,649.51 270.23,912.7 821.04,272.47 1235.88,-424.1 1540.89,-816.78 4.47,-5.77 23.82,-7.51 27.14,-24.96 3.31,-17.39 19.25,-14.53 28.58,-22.3 18.55,-144.84 56.75,-225.58 92.46,-319.46 -128.23,-83.19 107.84,68.22 -94.43,-49.15l1964.09 -141.11 197 -82.45c-211.21,-488.22 -864.78,-1113.94 -1010.1,-1450.88 -83.1,-192.67 -122.56,-416.32 -189.98,-596.1 -448.08,-204.04 -432.43,-540.53 -629.77,-682.35 -27.21,58.93 -25.85,93.26 -84.09,168.25 -79.58,102.48 -36.92,47.38 -131.55,85.84 110.46,-342.2 -6.21,-221.53 48.24,-554.38 20.97,-128.19 145.1,-325.57 186.59,-393.6 -199.2,-211.36 -331.25,-414.5 -525.08,-706.26 -102.99,-155 -154.89,-272.44 -220.78,-428.6 -56.75,-134.51 -94.45,-374.2 -226.82,-359.84 -99.39,166.64 -33.27,119.28 -227.13,208.47z"/>
  <path class="fil67" d="M12393.82 7878.68l-626.55 269.34c-238.28,67.29 -133.89,106.81 -258.95,205.08 -85.26,67 -195.57,63.16 -309.05,119.53 105.85,256.15 744.93,1137.59 827.46,1680.28 258.35,74.61 578.76,566.44 673.47,830.19 58.52,-105.01 -4.93,82.22 59.95,-143.23 1.58,-5.51 21.68,-143.01 26.92,-170.3 473.87,-254.93 -30.94,-442.35 463.08,-562.96l21.22 -94.38c69.29,-320.41 -90.6,308.33 17.96,-108.35 23.12,-88.73 -76.34,-220.92 64.43,-135.9 28.25,-137.29 -62.04,-38.82 53.75,-87.88l341.43 36.97c153.93,-260.78 117.43,-280.89 386.41,-471.95l15.65 -118.61c-214.12,-137.21 235.81,-466.58 338.76,-505.72 295.97,-112.5 609.66,25.61 872.99,54.57l129.9 -822c-195.16,-88.53 -189.04,-97.86 -346.43,-225.82 -25.44,344.88 -94.93,428.88 -185.4,660.96 -77.01,-69.33 -35.72,1.47 -95.33,-97.7 -134.93,-224.55 -32.71,-386.28 -612.91,-840.35 -269.96,-211.26 -680.74,-431.22 -1057.92,-509.4 117.2,306.69 382.34,455.76 434.32,744.4 -383.01,-51.12 -777.04,-308.8 -1169.97,-297.87 18.74,768.9 40.37,568.01 -65.19,591.1z"/>
  <path class="fil67" d="M15590.49 7779.37l-63.65 516.71 202.55 -455.25c383.77,-35.65 746.8,53.77 988.99,-216.7 497.69,-555.8 418.25,-2902.63 -366.73,-3174.64 -227.31,-78.76 -809.17,31.4 -979.51,156.94 -245.59,181.02 -322.11,682.87 -340.52,1055.94 -45.67,925.49 -146.25,1844.42 558.87,2117z"/>
  <path class="fil67" d="M12454.58 13829.74c98.03,21.25 85.27,-108.73 85.27,28.92l456.87 717.61c-194.7,-94.75 -463.33,-486.21 -542.14,-746.53zm0 0c-148.52,-68.89 -234.3,-251.24 -289.81,-454.24 150.66,141.36 226.98,232.19 289.81,454.24zm-577.43 -924.36l0.48 107.01c89.34,45.39 72.18,-119.26 89.05,45.49l17.19 152.09c108.07,125.3 130.42,287.94 185.55,519.93 107.37,451.87 274.38,1513.86 444.83,1770.18 798.42,-245.18 1057.11,-725.61 1511.36,-1389.26 4.89,-7.15 17.27,-21.83 25.58,-33.08 39.29,-788.96 142.29,-567.36 -174.96,-1289.7 -229.45,-294.39 -184.95,-321.76 -510.02,-584.4 -350.87,-283.47 -426.39,-427.2 -617.44,-527.07 -65.08,567.94 -333.72,1118.54 -802.45,1218.5l22.2 263.73 -191.37 -253.42z"/>
  <path class="fil67" d="M2015.7 17711.02l153.71 -128.99c54.25,-202.32 380.01,-716.26 502.6,-857.34 293.22,-337.46 364.56,-426.3 949.28,-385.05 -140,-238.17 -172.91,-191.02 -318.53,-343.86 -518.79,-544.45 -289.98,-227.85 -332.62,-428.07 -233.23,61.41 -134.69,34.76 -290.9,228.85l-1132.36 1349.16c-220.43,261.56 -342.33,281.53 -442.8,583.65l911.62 -18.35z"/>
  <path class="fil67" d="M6891.17 15579.21c31.33,-38.53 38.33,-15.72 75.66,-104.89l105.12 -437.85c44.27,-212.9 94.95,-419.65 104.15,-658.71 -402.57,-116.65 -737.9,-284.01 -1195.87,-354.88l910.94 1556.33z"/>
  <path class="fil67" d="M16046.31 10799.75l0.15 -185.22c170.8,-213.88 214.35,-512.35 252.83,-836.02 -143.67,-266.29 -220.15,-420.86 -525.21,-493.92 243.15,1031.67 -341.31,1798.51 -447.72,2048.01 349,33.05 320.3,113.5 615,-386.33l104.95 -146.52z"/>
  <path class="fil67" d="M9658.65 12778.29c-66.45,529.12 92.58,993.76 468.75,1102.18 -8.48,-603.92 94.66,-768.77 -468.75,-1102.18z"/>
  <path class="fil68" d="M2418.62 3268.79l-198.32 -722.29 190.7 0 91.22 374.43c7.29,28.19 13.28,58.49 18.31,90.89 4.86,32.41 8.91,67.08 11.99,104.18l2.91 0c1.3,-30.78 4.38,-61.89 9.24,-93.81 4.86,-31.75 12.47,-68.21 22.52,-109.36l94.46 -366.33 185.67 0 -203.17 722.29 -225.53 0zm784.5 -282.08c-5.02,2.59 -12.31,6 -21.87,10.53 -88.47,42.29 -132.7,79.39 -132.7,110.99 0,15.87 5.51,28.51 16.37,38.23 10.85,9.56 25.6,14.42 43.91,14.42 28.35,0 50.38,-14.25 65.78,-42.93 15.55,-28.68 25.11,-72.43 28.51,-131.24zm2.92 282.08l4.7 -103.21c-16.53,41.8 -38.56,72.91 -66.43,93.16 -27.87,20.26 -62.22,30.46 -103.37,30.46 -52.5,0 -93.97,-14.58 -124.6,-43.9 -30.46,-29.33 -45.69,-69.02 -45.69,-119.41 0,-48.45 13.29,-87.98 40.02,-118.44 26.74,-30.62 68.38,-53.95 125.08,-69.99 16.37,-4.86 38.56,-10.37 66.59,-16.69 64,-14.75 95.92,-34.84 95.92,-60.11 0,-15.56 -8.1,-28.52 -24.46,-38.89 -16.37,-10.53 -37.27,-15.71 -63.03,-15.71 -31.92,0 -66.75,8.58 -104.5,25.76 -37.76,17.33 -72.91,40.83 -105.48,70.48l0 -168.83c34.51,-29.81 72.58,-52.33 114.22,-67.72 41.64,-15.4 85.23,-23.01 130.76,-23.01 71.93,0 127.51,16.04 167.2,48.12 39.54,32.24 59.3,77.28 59.3,135.61l0 442.32 -166.23 0zm75.82 -836.03l-154.4 174.98 -73.07 0 91.21 -174.98 136.26 0zm200.42 836.03l0 -605.64 181.14 0 0 77.94 -2.91 54.6c13.61,-49.58 34.51,-86.2 62.7,-109.85 28.03,-23.5 64.81,-35.32 110.01,-35.32 46.99,0 83.93,12.31 110.66,36.77 26.73,24.47 45.21,63.19 55.25,116.01 12.64,-50.55 33.86,-88.79 63.51,-114.39 29.49,-25.59 67.4,-38.39 113.74,-38.39 55.09,0 96.08,16.52 122.98,49.41 26.89,32.89 40.34,82.47 40.34,148.9l0 419.96 -193.45 0 0 -293.26c0,-63.19 -4.22,-102.88 -12.8,-119.09 -8.59,-16.04 -23.98,-24.14 -46.5,-24.14 -25.28,0 -44.88,9.72 -58.82,29.17 -13.93,19.44 -20.9,46.98 -20.9,82.79l0 324.53 -192.48 0 0 -293.26c0,-62.22 -4.21,-101.75 -12.64,-118.28 -8.26,-16.68 -23.82,-24.95 -46.66,-24.95 -25.28,0 -44.88,9.72 -58.81,29.01 -13.94,19.28 -20.9,46.82 -20.9,82.95l0 324.53 -193.46 0zm1221.16 -139.99c34.18,0 60.43,-13.28 78.58,-39.85 18.31,-26.58 27.38,-64.81 27.38,-114.88 0,-49.74 -8.59,-86.52 -25.92,-110.5 -17.18,-24.14 -43.91,-36.13 -80.04,-36.13 -35.16,0 -61.41,11.67 -78.91,34.84 -17.33,23.33 -26.08,58.65 -26.08,106.12 0,52.5 8.91,92.35 26.89,119.57 17.83,27.22 43.91,40.83 78.1,40.83zm-0.97 -486.06c94.29,0 165.26,25.92 212.73,77.61 47.47,51.68 71.13,128.48 71.13,230.39 0,108.23 -24.47,191.67 -73.56,250.49 -49.09,58.65 -118.76,87.97 -209.33,87.97 -90.41,0 -160.08,-28.84 -208.85,-86.68 -48.77,-57.68 -73.07,-140.31 -73.07,-247.89 0,-103.53 23.49,-181.3 70.48,-233.64 46.99,-52.17 117.14,-78.25 210.47,-78.25zm354.99 585.22l0 -170.12c14.58,24.63 38.07,45.04 70.48,60.76 32.4,15.87 66.75,23.81 102.72,23.81 20.9,0 37.42,-4.21 49.58,-12.8 12.15,-8.58 18.3,-19.93 18.3,-34.18 0,-12.64 -4.53,-22.85 -13.77,-30.46 -9.23,-7.62 -29.32,-15.56 -60.27,-23.66 -69.18,-18.79 -116.98,-41.8 -143.23,-69.34 -26.24,-27.55 -39.37,-65.95 -39.37,-115.2 0,-65.94 20.09,-117.95 60.27,-156.35 40.19,-38.4 94.46,-57.68 163.16,-57.68 35.48,0 69.51,5.34 102.24,15.88 32.72,10.69 61.89,25.76 87.49,45.36l0 175.96c-24.63,-24.31 -49.91,-42.13 -75.83,-53.63 -26.08,-11.5 -53.79,-17.34 -83.6,-17.34 -23.98,0 -42.94,4.22 -56.87,12.48 -13.94,8.42 -20.9,19.93 -20.9,34.35 0,11.34 4.53,20.57 13.77,27.54 9.23,6.97 29,14.1 59.3,21.71 69.18,17.82 116.33,40.02 141.28,66.92 24.95,26.89 37.43,65.94 37.43,116.81 0,61.73 -19.77,110.66 -59.3,146.47 -39.53,35.97 -93.33,53.95 -161.21,53.95 -37.92,0 -73.56,-5.34 -106.61,-15.87 -32.89,-10.7 -61.41,-25.76 -85.06,-45.37zm-3442.39 1175.79l0 -170.12c14.58,24.63 38.07,45.04 70.48,60.76 32.4,15.87 66.75,23.81 102.72,23.81 20.9,0 37.42,-4.21 49.58,-12.8 12.15,-8.58 18.3,-19.93 18.3,-34.18 0,-12.64 -4.53,-22.85 -13.77,-30.46 -9.23,-7.62 -29.32,-15.56 -60.27,-23.66 -69.18,-18.79 -116.98,-41.8 -143.23,-69.34 -26.24,-27.55 -39.37,-65.95 -39.37,-115.2 0,-65.94 20.09,-117.95 60.27,-156.35 40.19,-38.4 94.46,-57.68 163.16,-57.68 35.48,0 69.51,5.34 102.24,15.88 32.72,10.69 61.89,25.76 87.49,45.36l0 175.96c-24.63,-24.31 -49.91,-42.13 -75.83,-53.63 -26.08,-11.5 -53.79,-17.34 -83.6,-17.34 -23.98,0 -42.94,4.22 -56.87,12.48 -13.94,8.42 -20.9,19.93 -20.9,34.35 0,11.34 4.53,20.57 13.77,27.54 9.23,6.97 29,14.1 59.3,21.71 69.18,17.82 116.33,40.02 141.28,66.92 24.95,26.89 37.43,65.94 37.43,116.81 0,61.73 -19.77,110.66 -59.3,146.47 -39.53,35.97 -93.33,53.95 -161.21,53.95 -37.92,0 -73.56,-5.34 -106.61,-15.87 -32.89,-10.7 -61.41,-25.76 -85.06,-45.37zm497.73 40.83l0 -733.96 195.4 0 0 733.96 -195.4 0zm607.58 -282.08c-5.02,2.59 -12.31,6 -21.87,10.53 -88.47,42.29 -132.7,79.39 -132.7,110.99 0,15.87 5.51,28.51 16.37,38.23 10.85,9.56 25.6,14.42 43.91,14.42 28.35,0 50.38,-14.25 65.78,-42.93 15.55,-28.68 25.11,-72.43 28.51,-131.24zm2.92 282.08l4.7 -103.21c-16.53,41.8 -38.56,72.91 -66.43,93.16 -27.87,20.26 -62.22,30.46 -103.37,30.46 -52.5,0 -93.97,-14.58 -124.6,-43.9 -30.46,-29.33 -45.69,-69.02 -45.69,-119.41 0,-48.45 13.29,-87.98 40.02,-118.44 26.74,-30.62 68.38,-53.95 125.08,-69.99 16.37,-4.86 38.56,-10.37 66.59,-16.69 64,-14.75 95.92,-34.84 95.92,-60.11 0,-15.56 -8.1,-28.52 -24.46,-38.89 -16.37,-10.53 -37.27,-15.71 -63.03,-15.71 -31.92,0 -66.75,8.58 -104.5,25.76 -37.76,17.33 -72.91,40.83 -105.48,70.48l0 -168.83c34.51,-29.81 72.58,-52.33 114.22,-67.72 41.64,-15.4 85.23,-23.01 130.76,-23.01 71.93,0 127.51,16.04 167.2,48.12 39.54,32.24 59.3,77.28 59.3,135.61l0 442.32 -166.23 0zm276.24 0l0 -605.64 181.14 0 0 77.94 -2.91 54.6c13.61,-49.58 34.51,-86.2 62.7,-109.85 28.03,-23.5 64.81,-35.32 110.01,-35.32 46.99,0 83.93,12.31 110.66,36.77 26.73,24.47 45.21,63.19 55.25,116.01 12.64,-50.55 33.86,-88.79 63.51,-114.39 29.49,-25.59 67.4,-38.39 113.74,-38.39 55.09,0 96.08,16.52 122.98,49.41 26.89,32.89 40.34,82.47 40.34,148.9l0 419.96 -193.45 0 0 -293.26c0,-63.19 -4.22,-102.88 -12.8,-119.09 -8.59,-16.04 -23.98,-24.14 -46.5,-24.14 -25.28,0 -44.88,9.72 -58.82,29.17 -13.93,19.44 -20.9,46.98 -20.9,82.79l0 324.53 -192.48 0 0 -293.26c0,-62.22 -4.21,-101.75 -12.64,-118.28 -8.26,-16.68 -23.82,-24.95 -46.66,-24.95 -25.28,0 -44.88,9.72 -58.81,29.01 -13.94,19.28 -20.9,46.82 -20.9,82.95l0 324.53 -193.46 0zm1117.14 -237.2l0 9.88c0,32.25 13.45,58.33 40.34,78.1 26.9,19.76 62.22,29.65 106.29,29.65 34.35,0 65.29,-6.97 92.51,-20.9 27.06,-13.94 52.5,-35.81 75.83,-65.62l0 144.85c-22.2,27.54 -50.71,48.12 -85.55,61.56 -34.99,13.45 -76.8,20.09 -125.56,20.09 -88.47,0 -157.65,-28.51 -207.23,-85.38 -49.74,-57.03 -74.53,-137.07 -74.53,-240.28 0,-99.64 24.3,-178.06 73.07,-235.09 48.77,-57.2 115.52,-85.71 200.42,-85.71 84.42,0 147.93,25.44 190.54,76.15 42.61,50.87 63.84,126.54 63.84,227.31 0,16.37 -0.33,31.44 -1.14,45.21 -0.81,13.77 -2.1,27.22 -3.72,40.18l-345.11 0zm0 -135.13l221.65 0c-0.65,-28.84 -11.02,-52 -31.11,-69.34 -20.09,-17.34 -46.5,-25.92 -79.39,-25.92 -33.38,0 -59.95,8.74 -80.04,26.24 -20.09,17.5 -30.46,40.51 -31.11,69.02zm736.87 90.25c-5.02,2.59 -12.31,6 -21.87,10.53 -88.47,42.29 -132.7,79.39 -132.7,110.99 0,15.87 5.51,28.51 16.37,38.23 10.85,9.56 25.6,14.42 43.91,14.42 28.35,0 50.38,-14.25 65.78,-42.93 15.55,-28.68 25.11,-72.43 28.51,-131.24zm2.92 282.08l4.7 -103.21c-16.53,41.8 -38.56,72.91 -66.43,93.16 -27.87,20.26 -62.22,30.46 -103.37,30.46 -52.5,0 -93.97,-14.58 -124.6,-43.9 -30.46,-29.33 -45.69,-69.02 -45.69,-119.41 0,-48.45 13.29,-87.98 40.02,-118.44 26.74,-30.62 68.38,-53.95 125.08,-69.99 16.37,-4.86 38.56,-10.37 66.59,-16.69 64,-14.75 95.92,-34.84 95.92,-60.11 0,-15.56 -8.1,-28.52 -24.46,-38.89 -16.37,-10.53 -37.27,-15.71 -63.03,-15.71 -31.92,0 -66.75,8.58 -104.5,25.76 -37.76,17.33 -72.91,40.83 -105.48,70.48l0 -168.83c34.51,-29.81 72.58,-52.33 114.22,-67.72 41.64,-15.4 85.23,-23.01 130.76,-23.01 71.93,0 127.51,16.04 167.2,48.12 39.54,32.24 59.3,77.28 59.3,135.61l0 442.32 -166.23 0zm315.13 -166.07l0 -265.56 -89.44 0 0 -118.6c37.91,-4.69 71.13,-21.54 99.32,-50.55 28.35,-29 54.76,-73.39 79.39,-133.18l101.26 0 0 128.32 172.07 0 0 174.01 -172.07 0 0 203.18c0,40.67 4.05,66.59 12.32,77.61 8.26,11.18 23.65,16.69 46.17,16.69 18.96,0 36.62,-4.7 52.66,-14.1 16.2,-9.4 29,-22.52 38.56,-39.37l0 144.04c-14.9,20.9 -36.13,36.78 -63.67,47.63 -27.55,10.86 -60.27,16.36 -97.86,16.36 -61.25,0 -106.29,-15.06 -135.29,-45.36 -29,-30.14 -43.42,-77.29 -43.42,-141.12zm592.19 -71.13l0 9.88c0,32.25 13.45,58.33 40.34,78.1 26.9,19.76 62.22,29.65 106.29,29.65 34.35,0 65.29,-6.97 92.51,-20.9 27.06,-13.94 52.5,-35.81 75.83,-65.62l0 144.85c-22.2,27.54 -50.71,48.12 -85.55,61.56 -34.99,13.45 -76.8,20.09 -125.56,20.09 -88.47,0 -157.65,-28.51 -207.23,-85.38 -49.74,-57.03 -74.53,-137.07 -74.53,-240.28 0,-99.64 24.3,-178.06 73.07,-235.09 48.77,-57.2 115.52,-85.71 200.42,-85.71 84.42,0 147.93,25.44 190.54,76.15 42.61,50.87 63.84,126.54 63.84,227.31 0,16.37 -0.33,31.44 -1.14,45.21 -0.81,13.77 -2.1,27.22 -3.72,40.18l-345.11 0zm0 -135.13l221.65 0c-0.65,-28.84 -11.02,-52 -31.11,-69.34 -20.09,-17.34 -46.5,-25.92 -79.39,-25.92 -33.38,0 -59.95,8.74 -80.04,26.24 -20.09,17.5 -30.46,40.51 -31.11,69.02z"/>
  <path class="fil68" d="M15623.84 6717.29l-198.32 -722.29 190.7 0 91.22 374.43c7.29,28.19 13.28,58.49 18.31,90.89 4.86,32.41 8.91,67.08 11.99,104.18l2.91 0c1.3,-30.78 4.38,-61.89 9.24,-93.81 4.86,-31.75 12.47,-68.21 22.52,-109.36l94.46 -366.33 185.67 0 -203.17 722.29 -225.53 0zm763.11 -282.08c-5.02,2.59 -12.31,6 -21.87,10.53 -88.47,42.29 -132.7,79.39 -132.7,110.99 0,15.87 5.51,28.51 16.37,38.23 10.85,9.56 25.6,14.42 43.91,14.42 28.35,0 50.38,-14.25 65.78,-42.93 15.55,-28.68 25.11,-72.43 28.51,-131.24zm2.92 282.08l4.7 -103.21c-16.53,41.8 -38.56,72.91 -66.43,93.16 -27.87,20.26 -62.22,30.46 -103.37,30.46 -52.5,0 -93.97,-14.58 -124.6,-43.9 -30.46,-29.33 -45.69,-69.02 -45.69,-119.41 0,-48.45 13.29,-87.98 40.02,-118.44 26.74,-30.62 68.38,-53.95 125.08,-69.99 16.37,-4.86 38.56,-10.37 66.59,-16.69 64,-14.75 95.92,-34.84 95.92,-60.11 0,-15.56 -8.1,-28.52 -24.46,-38.89 -16.37,-10.53 -37.27,-15.71 -63.03,-15.71 -31.92,0 -66.75,8.58 -104.5,25.76 -37.76,17.33 -72.91,40.83 -105.48,70.48l0 -168.83c34.51,-29.81 72.58,-52.33 114.22,-67.72 41.64,-15.4 85.23,-23.01 130.76,-23.01 71.93,0 127.51,16.04 167.2,48.12 39.54,32.24 59.3,77.28 59.3,135.61l0 442.32 -166.23 0z"/>
 </g>
</svg>
