<?xml version="1.0" encoding="UTF-8"?>
<!DOCTYPE svg PUBLIC "-//W3C//DTD SVG 1.1//EN" "http://www.w3.org/Graphics/SVG/1.1/DTD/svg11.dtd">
<!-- Creator: CorelDRAW 2017 -->
<svg xmlns="http://www.w3.org/2000/svg" xml:space="preserve" width="200mm" height="200mm" version="1.1" style="shape-rendering:geometricPrecision; text-rendering:geometricPrecision; image-rendering:optimizeQuality; fill-rule:evenodd; clip-rule:evenodd"
viewBox="0 0 20000 20000"
 xmlns:xlink="http://www.w3.org/1999/xlink">
 <defs>
  <style type="text/css">
   <![CDATA[
    .fil0 {fill:#221E1F}
    .fil1 {fill:#E31C02}
    .fil2 {fill:#373435;fill-rule:nonzero}
   ]]>
  </style>
 </defs>
 <g id="Capa_x0020_1">
  <metadata id="CorelCorpID_0Corel-Layer"/>
  <g id="_2886199180304">
   <path class="fil0" d="M7257.69 8566.57c-911.09,5.41 -2309.85,-246.04 -2879.08,340.33 4.98,720.78 226.84,751.49 932.45,750.52 601.8,-0.84 1203.55,-2.34 1805.38,-2.34 1457.13,0 9852.72,75.5 10543.31,-36.38 13.85,-332.84 47.65,-1491.81 -41.79,-1746.32 -204.34,-581.4 -774.12,-602.29 -1387.4,-665.89l-7202.85 -684.73c-2140.27,-230.9 -1779.46,-120.33 -1770.02,2044.81z"/>
   <path class="fil0" d="M2284.61 14033.96l1286.59 -0.81 -0.36 -2290.02 12791.17 -22.14 26.77 2255.1 1264.78 13.37 -10.76 -3387.38c-2015.28,-167.15 -11207.87,-43.69 -14094.94,-38.01l3.45 -4070.16c-0.75,-888.74 178.98,-1774.98 -996.72,-1468.37 -511.28,610.01 -260.22,3279.85 -260.22,4330.17 0,1544.41 38.94,3140.29 -9.76,4678.25z"/>
   <path class="fil0" d="M1845.02 855.45c872.69,-268.49 11553.66,-116.43 13962.8,-118.17 4664.16,-3.34 3677.87,528.85 3677.87,10420.3 0,917.22 127.93,6190.18 -124.81,6842.31 -193.49,499.23 -648.26,945.67 -1192.92,1122.91 -922.47,300.18 -7838.57,126.88 -9355.65,126.76 -1554.53,-0.09 -3109.1,-0.33 -4663.67,-0.33 -1514.55,0 -2993.13,99.36 -3543.2,-1150.46 -305.47,-694.04 -162.78,-11670.6 -162.84,-13936.73 -0.06,-1640.89 -97.41,-2845.19 1402.42,-3306.59zm-1779.19 16873.67c107.92,735.3 561.87,1263.89 993.92,1504.46 834.93,464.92 1038.22,389.62 2028.99,388.87 1625.2,-1.23 3250.43,-0.03 4875.64,-0.06 1625.23,0 3250.44,0.03 4875.67,0 4075.36,0 7061.58,836.46 7057.41,-2740.96l0.18 -9751.59c0,-2749.49 576.74,-5291.77 -1008.17,-6373.99 -664.99,-454.11 -1164.13,-393.38 -2021.71,-392.6 -4504.2,4.11 -10466.03,-161.11 -14624.17,0.42 -1539.72,59.79 -2211.71,1167.25 -2209.46,2738.2 2.86,1975.17 -96.62,13753.03 31.7,14627.25z"/>
   <path class="fil0" d="M5099.06 6230.8c-1431.92,498.87 -631.85,2546.15 828.89,2052.9 1266.85,-427.78 658.14,-2571 -828.89,-2052.9z"/>
   <path class="fil0" d="M6755.84 4301.6c-1416.66,264.04 -921.46,2540.53 601.75,2121.52 1271.03,-349.64 864.04,-2394.72 -601.75,-2121.52z"/>
   <path class="fil1" d="M5599.74 3297.55c-57.96,-39.12 -103.13,-80.82 -188.5,-107.99 -291.17,-92.67 -477.85,217.72 -368.66,436.02 136.54,272.99 525.21,271.99 551.96,653.22 117.44,-68.11 408.03,-346.99 495.75,-452.39 29.22,-35.11 56.73,-70.09 84.45,-110.16 414.27,-599.02 -186.52,-887.72 -449.59,-674.16 -70.13,56.93 -104.39,144.62 -125.41,255.46zm23.59 100.58c-42.25,-20.89 -184.18,-171.75 -339.17,-86.19 -103.39,57.09 -163.75,190.37 -77.41,322.11 61.35,93.62 157.78,160.34 248.77,230.05 71.98,55.16 129.08,109.42 172.06,187.75 18.38,33.48 19.9,62.25 33.2,91.07 50.19,-47.7 98.63,-88.1 149.96,-139.31 25.04,-24.99 46.65,-45.68 69.65,-72.51 110.15,-128.51 242.99,-251.94 287.27,-447.33 77.01,-339.93 -301.98,-425.57 -447.79,-289.77 -78.54,73.14 -71.91,151.2 -96.54,204.13z"/>
   <path class="fil1" d="M5279.15 1968.72c-31.93,-36.06 -54.87,-71.64 -107.14,-104.46 -178.24,-111.91 -356.16,62.97 -320.9,227.36 44.08,205.56 303.47,271.78 255.71,530.64 90.05,-25.21 331.84,-161.2 408.49,-216.4 25.52,-18.39 49.89,-36.98 75.27,-58.94 379.39,-328.22 28.37,-624.16 -183.83,-526.99 -56.57,25.9 -94.51,78.49 -127.6,148.79zm-1.57 71.14c-24.59,-21.2 -93.29,-146.24 -211.38,-115.84 -78.78,20.28 -141.97,98.78 -107.06,201.5 24.8,72.99 77.64,134.09 126.32,196.24 38.52,49.17 67.26,95.19 82.45,154.82 6.5,25.5 2.56,44.95 6.47,66.46 41.69,-23.18 80.94,-41.79 123.99,-67.11 21,-12.35 38.97,-22.44 58.93,-36.37 95.57,-66.75 205.42,-126.21 268.57,-248.91 109.86,-213.46 -128.16,-335.79 -248.78,-270.32 -64.97,35.26 -73.98,88.47 -99.51,119.53z"/>
   <path class="fil1" d="M4779.93 4970.72c35.44,-72.8 56.56,-140.77 126.41,-217.47 238.23,-261.61 605.22,-58.58 622.22,223.54 21.27,352.79 -368.97,576.98 -174.92,974.68 -157.2,-0.24 -610.1,-111.48 -759.12,-166.33 -49.63,-18.27 -97.48,-37.39 -148.48,-61.51 -762.39,-360.54 -327.32,-998.06 60.15,-936.36 103.29,16.44 188.45,84.51 273.74,183.45zm34.61 114.5c30.27,-45.42 85.15,-278.89 290.11,-282.9 136.73,-2.67 274.46,95.98 264.22,278.08 -7.26,129.39 -65.28,252.17 -116.11,374.76 -40.21,97.01 -66.02,184.49 -63.73,287.92 0.97,44.22 16.12,73.94 19.48,110.54 -77.96,-18.74 -149.93,-31.18 -231.06,-52.78 -39.58,-10.55 -73.23,-18.77 -111.84,-32.35 -184.88,-65.02 -389.57,-111.8 -547.16,-282.03 -274.16,-296.19 56.18,-601.62 281.04,-549.96 121.12,27.82 159.7,109.93 215.05,148.72z"/>
   <path class="fil1" d="M3824.78 3119.4c39.44,-81.03 62.95,-156.68 140.7,-242.06 265.15,-291.17 673.62,-65.2 692.55,248.81 23.67,392.67 -410.68,642.19 -194.7,1084.84 -174.97,-0.26 -679.06,-124.07 -844.92,-185.12 -55.24,-20.34 -108.49,-41.62 -165.27,-68.47 -848.56,-401.29 -364.31,-1110.86 66.96,-1042.19 114.96,18.3 209.74,94.06 304.68,204.19zm38.52 127.44c33.69,-50.55 94.78,-310.42 322.9,-314.88 152.18,-2.97 305.48,106.83 294.09,309.51 -8.08,144.02 -72.67,280.67 -129.24,417.12 -44.75,107.97 -73.48,205.34 -70.93,320.46 1.07,49.22 17.94,82.3 21.68,123.04 -86.77,-20.86 -166.88,-34.71 -257.17,-58.75 -44.06,-11.73 -81.52,-20.89 -124.48,-36 -205.78,-72.37 -433.62,-124.44 -609.02,-313.92 -305.14,-329.66 62.54,-669.61 312.81,-612.11 134.81,30.97 177.76,122.35 239.36,165.53z"/>
   <path class="fil2" d="M2766.89 15388.51c0,47.48 -2.97,123.79 -8.89,229.79 -5.95,105.58 -8.93,184.42 -8.93,237 0,91.15 5.95,175.1 17.82,250.99l30.53 25.45c6.79,-1.71 79.71,-1.71 218.76,0 93.29,1.68 164.52,-6.79 213.68,-25.45 1.71,-82.68 4.26,-206.47 7.63,-371.41 3.39,-164.92 5.11,-288.71 5.11,-371.39 10.15,-42.4 44.07,-63.61 101.73,-63.61 16.98,0 41.13,2.13 72.5,6.37 31.4,4.24 51.32,7.21 59.79,8.89 40.71,16.98 61.89,64.45 63.6,142.48 -16.97,157.71 -25.44,357.84 -25.44,600.33 0,45.79 0,114.47 0,206.05 0,91.58 0,160.26 0,206.05 0,290 -11.87,524.89 -35.19,704.65 -10.18,25.45 -34.76,38.16 -73.34,38.16 -85.66,0 -121.68,-1.68 -108.55,-5.08 -57.24,-25.45 -85.63,-66.16 -85.63,-122.1 0,-15.27 2.52,-28.85 7.63,-40.71 6.79,-133.98 7.63,-339.18 2.53,-615.6 -5.08,-3.4 -13.13,-9.34 -24.16,-17.82 -11.03,-8.47 -19.08,-14.42 -24.16,-17.81l-389.2 0c-32.24,6.79 -46.63,27.13 -43.27,61.05 -1.68,14.84 -4.23,135.26 -7.63,359.97 -1.68,147.1 -9.31,266.23 -22.89,357.39 -16.95,27.13 -42.4,40.71 -76.32,40.71 6.79,0 -29.65,-5.95 -109.36,-17.82 -40.71,-11.87 -68.69,-31.37 -83.95,-58.5 0,-204.78 5.92,-496.04 17.79,-873.8 11.87,-413.39 18.66,-704.65 20.37,-873.81 1.68,-59.36 34.76,-89.05 99.21,-89.05 78,0 140.76,29.69 188.23,88.63zm1850.82 -73.37c49.18,11.9 73.76,50.9 73.76,117.03 0,15.26 -1.69,29.68 -5.08,43.23 -50.87,49.19 -144.16,73.8 -279.81,73.8 -22.06,0 -56.82,-0.85 -104.32,-2.56 -47.47,-1.68 -82.23,-2.55 -104.29,-2.55 -62.73,0 -113.63,4.26 -152.63,12.74 -18.65,176.36 -19.5,350.2 -2.55,521.49l30.53 25.42c11.89,0 94.97,0 249.31,0 100.05,-1.68 182.32,6.79 246.73,25.45 33.92,37.31 42.43,98.37 25.45,183.15 -5.08,8.48 -13.55,19.5 -25.45,33.08 -45.79,5.08 -132.26,5.92 -259.47,2.53 -108.52,-3.4 -195.02,0.84 -259.47,12.74 -22.02,76.31 -33.05,171.25 -33.05,284.88 0,22.06 3.4,116.19 10.16,282.37 11.9,6.79 27.16,19.5 45.79,38.16 279.84,0 446.89,3.39 501.15,10.18 47.47,18.66 69.52,48.34 66.13,89.03 -5.08,61.05 -4.24,97.52 2.55,109.39 -6.79,6.79 -16.97,17.82 -30.52,33.08l-780.55 0c-58.07,-25.45 -86.92,-72.92 -86.92,-142.47 0,-8.48 0,-22.9 0,-43.24 5.11,-20.34 7.63,-35.6 7.63,-45.79 0,-23.73 -2.52,-43.23 -7.63,-58.5l38.16 -1559.37c8.5,-16.98 25.45,-36.48 50.9,-58.53 176.36,-1.68 437.51,3.4 783.49,15.26zm1235.6 231.5c35.64,35.61 61.9,85.66 78.45,150.08 6.79,20.37 16.95,73.79 30.53,160.26 -1.72,30.52 -21.21,49.18 -58.53,55.97 -33.89,0 -68.68,0.84 -104.29,2.56 -27.13,-23.74 -63.6,-90.74 -109.39,-200.98 -35.61,-88.18 -89.87,-139.04 -162.79,-152.62 -35.63,-8.48 -71.23,-12.71 -106.84,-12.71 -94.97,0 -172.13,23.73 -231.5,71.2 -42.39,144.16 -67,334.95 -73.76,572.39 -5.1,198.42 -11.02,396.84 -17.81,595.26 10.18,44.08 33.08,85.21 68.68,123.36 35.6,38.16 74.63,60.64 117.03,67.43 37.31,6.76 74.6,10.15 111.91,10.15 98.37,0 177.24,-22.89 236.58,-68.68 23.74,-18.66 38.16,-78.84 43.23,-180.6 5.11,-86.5 29.69,-129.74 73.8,-129.74 30.52,0 70.36,13.55 119.55,40.71 33.92,32.21 50.86,74.6 50.86,127.18 0,13.55 -2.52,41.56 -7.63,83.95 -3.36,35.6 -4.24,63.61 -2.52,83.95 -13.58,66.13 -46.63,125.07 -99.21,176.78 -52.58,51.74 -112.79,86.08 -180.63,103.03 -44.08,5.1 -85.63,7.63 -124.63,7.63 -225.55,0 -406.18,-72.92 -541.84,-218.76 -88.18,-93.26 -132.29,-202.66 -132.29,-328.15 0,-35.61 3.82,-87.35 11.45,-155.19 7.63,-67.84 11.45,-118.71 11.45,-152.63 0,-28.81 0,-56.81 0,-83.94 16.94,-64.45 26.29,-190.79 27.97,-379.02 1.71,-173 17.4,-297.63 47.92,-373.95 47.47,-118.7 140.34,-190.78 278.55,-216.23 50.87,-3.4 93.71,-5.08 129.32,-5.08 227.68,0 399.81,75.48 516.38,226.39zm565.75 -158.13c0,47.48 -2.97,123.79 -8.89,229.79 -5.95,105.58 -8.92,184.42 -8.92,237 0,91.15 5.95,175.1 17.81,250.99l30.53 25.45c6.79,-1.71 79.71,-1.71 218.76,0 93.29,1.68 164.53,-6.79 213.68,-25.45 1.71,-82.68 4.27,-206.47 7.63,-371.41 3.4,-164.92 5.11,-288.71 5.11,-371.39 10.16,-42.4 44.08,-63.61 101.73,-63.61 16.98,0 41.13,2.13 72.5,6.37 31.4,4.24 51.32,7.21 59.79,8.89 40.71,16.98 61.89,64.45 63.61,142.48 -16.98,157.71 -25.45,357.84 -25.45,600.33 0,45.79 0,114.47 0,206.05 0,91.58 0,160.26 0,206.05 0,290 -11.87,524.89 -35.18,704.65 -10.19,25.45 -34.77,38.16 -73.34,38.16 -85.66,0 -121.69,-1.68 -108.56,-5.08 -57.23,-25.45 -85.63,-66.16 -85.63,-122.1 0,-15.27 2.53,-28.85 7.64,-40.71 6.79,-133.98 7.63,-339.18 2.52,-615.6 -5.08,-3.4 -13.13,-9.34 -24.16,-17.82 -11.02,-8.47 -19.08,-14.42 -24.15,-17.81l-389.21 0c-32.24,6.79 -46.63,27.13 -43.26,61.05 -1.69,14.84 -4.24,135.26 -7.64,359.97 -1.68,147.1 -9.31,266.23 -22.89,357.39 -16.95,27.13 -42.39,40.71 -76.31,40.71 6.79,0 -29.66,-5.95 -109.37,-17.82 -40.71,-11.87 -68.68,-31.37 -83.95,-58.5 0,-204.78 5.92,-496.04 17.79,-873.8 11.87,-413.39 18.66,-704.65 20.37,-873.81 1.68,-59.36 34.76,-89.05 99.21,-89.05 78,0 140.76,29.69 188.23,88.63zm1922.06 493.08c-1.72,37.31 -2.56,77.99 -2.56,122.1 0,71.24 3.4,178.92 10.19,323.92 6.79,144.57 10.15,251.84 10.15,321.36 0,143.74 -10.15,267.52 -30.52,370.97 -74.61,138.66 -202.66,208.18 -384.1,208.18 -45.79,0 -95.82,-4.24 -150.11,-12.71 -89.86,-16.97 -199.26,-89.05 -328.15,-215.81 -37.29,-35.61 -64.45,-88.19 -81.39,-157.71 -10.19,-57.66 -20.34,-114.89 -30.53,-172.58 3.4,-115.31 -0.42,-290.42 -11.45,-526.12 -11.02,-235.31 -14,-409.58 -8.89,-523.21 20.34,-71.2 56.82,-132.68 109.36,-185.26 52.58,-52.58 112.79,-85.66 180.64,-99.21 38.99,-8.47 77.99,-12.73 116.99,-12.73 189.95,0 353.6,79.71 490.97,238.7 54.26,64.45 90.74,171.29 109.4,320.11zm-249.32 901.35c0,-8.47 -3.36,-194.18 -10.16,-557.1 -3.39,-220.47 -23.73,-407.86 -61.05,-562.17 -30.52,-28.85 -67.84,-49.19 -111.95,-61.05 -38.99,-6.79 -77.99,-12.74 -116.99,-17.82 -74.63,8.47 -133.97,43.23 -178.08,104.29 -8.47,79.71 -12.71,170.44 -12.71,272.21 0,74.6 3.4,196.7 10.16,366.31 8.5,157.7 11.86,278.97 10.18,363.75 -1.68,76.32 26.29,152.63 83.95,228.95 42.39,30.52 96.65,45.79 162.81,45.79 32.21,0 76.32,-4.24 132.26,-12.71 30.53,-10.19 52.58,-33.92 66.16,-71.24 8.47,-33.92 16.95,-66.97 25.42,-99.21zm1939.84 -1467.8c49.18,11.9 73.76,50.9 73.76,117.03 0,15.26 -1.68,29.68 -5.08,43.23 -50.87,49.19 -144.16,73.8 -279.81,73.8 -22.05,0 -56.82,-0.85 -104.32,-2.56 -47.47,-1.68 -82.23,-2.55 -104.28,-2.55 -62.74,0 -113.63,4.26 -152.63,12.74 -18.66,176.36 -19.5,350.2 -2.56,521.49l30.53 25.42c11.9,0 94.97,0 249.31,0 100.05,-1.68 182.32,6.79 246.73,25.45 33.93,37.31 42.43,98.37 25.45,183.15 -5.07,8.48 -13.55,19.5 -25.45,33.08 -45.78,5.08 -132.25,5.92 -259.47,2.53 -108.52,-3.4 -195.02,0.84 -259.47,12.74 -22.02,76.31 -33.05,171.25 -33.05,284.88 0,22.06 3.4,116.19 10.16,282.37 11.9,6.79 27.16,19.5 45.79,38.16 279.84,0 446.89,3.39 501.15,10.18 47.47,18.66 69.53,48.34 66.13,89.03 -5.08,61.05 -4.23,97.52 2.56,109.39 -6.79,6.79 -16.98,17.82 -30.53,33.08l-780.54 0c-58.08,-25.45 -86.92,-72.92 -86.92,-142.47 0,-8.48 0,-22.9 0,-43.24 5.1,-20.34 7.63,-35.6 7.63,-45.79 0,-23.73 -2.53,-43.23 -7.63,-58.5l38.15 -1559.37c8.51,-16.98 25.45,-36.48 50.9,-58.53 176.36,-1.68 437.52,3.4 783.49,15.26zm690.38 53.42c62.76,237.45 161.13,582.55 295.52,1035.36 13.55,-1.71 20.34,-9.34 20.34,-22.89 0,-5.08 0,-13.16 0,-24.16 0,-11.03 0,-19.08 0,-24.19 0,-6.79 0.84,-11.86 2.13,-15.26 13.98,-130.58 22.03,-286.6 23.32,-468.07 0,0 0,-159.39 0,-478.23 22.05,-66.13 70.37,-99.21 145,-99.21 18.66,0 38.15,2.55 58.5,7.63 55.97,15.26 82.26,67 78.86,155.18 -8.47,373.1 -23.73,934.44 -45.78,1684.01 -1.72,55.97 -47.51,83.94 -137.37,83.94 -127.21,0 -182.32,-0.84 -165.37,-2.52 -62.73,-39.03 -103.45,-100.08 -122.1,-183.16 -10.16,-67.84 -21.19,-136.52 -33.05,-206.05 -37.32,-127.21 -91.58,-318.84 -162.82,-574.91 -11.87,-5.08 -21.18,-7.63 -27.97,-7.63 -16.98,0 -25.45,17.81 -25.45,53.42 1.71,47.47 1.71,73.76 0,78.87 -6.79,178.04 -12.71,446.86 -17.82,806.38 -22.02,44.11 -70.36,66.13 -144.99,66.13 -22.03,0 -44.92,-1.68 -68.69,-5.08 -28.81,-10.18 -48.31,-30.52 -58.49,-61.05 -1.69,-6.79 -5.08,-33.92 -10.19,-81.39 27.13,-614.79 42.39,-1182.91 45.79,-1704.38 37.31,-50.89 105.58,-76.31 205.63,-76.31 23.76,0 48.34,1.68 73.79,5.5 18.66,12.29 42.39,31.81 71.21,58.07zm2505.43 178.08c35.64,35.61 61.9,85.66 78.45,150.08 6.79,20.37 16.95,73.79 30.53,160.26 -1.71,30.52 -21.21,49.18 -58.53,55.97 -33.89,0 -68.68,0.84 -104.29,2.56 -27.13,-23.74 -63.6,-90.74 -109.39,-200.98 -35.61,-88.18 -89.87,-139.04 -162.79,-152.62 -35.63,-8.48 -71.23,-12.71 -106.84,-12.71 -94.97,0 -172.13,23.73 -231.5,71.2 -42.39,144.16 -67,334.95 -73.76,572.39 -5.1,198.42 -11.02,396.84 -17.81,595.26 10.18,44.08 33.08,85.21 68.68,123.36 35.6,38.16 74.63,60.64 117.03,67.43 37.31,6.76 74.6,10.15 111.91,10.15 98.37,0 177.24,-22.89 236.58,-68.68 23.74,-18.66 38.16,-78.84 43.24,-180.6 5.1,-86.5 29.68,-129.74 73.79,-129.74 30.52,0 70.36,13.55 119.55,40.71 33.92,32.21 50.86,74.6 50.86,127.18 0,13.55 -2.52,41.56 -7.63,83.95 -3.36,35.6 -4.23,63.61 -2.52,83.95 -13.58,66.13 -46.63,125.07 -99.21,176.78 -52.58,51.74 -112.79,86.08 -180.63,103.03 -44.08,5.1 -85.63,7.63 -124.63,7.63 -225.55,0 -406.18,-72.92 -541.84,-218.76 -88.18,-93.26 -132.28,-202.66 -132.28,-328.15 0,-35.61 3.81,-87.35 11.44,-155.19 7.63,-67.84 11.45,-118.71 11.45,-152.63 0,-28.81 0,-56.81 0,-83.94 16.95,-64.45 26.29,-190.79 27.97,-379.02 1.71,-173 17.4,-297.63 47.92,-373.95 47.48,-118.7 140.35,-190.78 278.55,-216.23 50.87,-3.4 93.71,-5.08 129.32,-5.08 227.68,0 399.81,75.48 516.38,226.39zm1473.9 1630.61c-5.08,-1.71 -40.26,-0.87 -106.42,2.53 -39,1.71 -69.52,-15.26 -91.16,-50.87l-119.97 -437.55c0,0 -14.42,-11.86 -43.23,-35.6 -25.45,3.4 -53.42,5.08 -83.95,5.08 -33.92,0 -84.4,-2.53 -151.79,-7.63 -67,-5.08 -116.6,-7.64 -148.81,-7.64 -47.5,0 -89.9,3.4 -127.21,10.19 -32.21,50.87 -61.89,140.34 -89.03,268.36 -27.13,128.06 -61.89,219.21 -104.28,273.48 -74.63,11.86 -112.79,17.81 -114.47,17.81 -45.79,0 -81.43,-17.81 -106.85,-53.42 -10.18,-39.03 -12.73,-61.92 -7.63,-68.68 47.47,-162.82 122.95,-464.68 226.39,-905.62 89.9,-383.26 171.29,-682.6 244.21,-897.96 59.37,-8.48 174.68,-5.11 345.97,10.15 22.05,13.58 47.47,36.48 76.32,68.68 32.2,145.87 87.34,365.47 165.33,658.87 78.03,293.39 133.14,514.7 165.37,663.93 -8.5,8.48 -12.74,17.82 -12.74,28.01 0,13.55 10.19,32.62 30.53,57.23 20.37,24.58 32.24,43.66 35.63,57.24 -1.71,8.47 -2.55,17.78 -2.55,27.97 0,25.45 11.45,66.13 34.34,122.1 22.9,55.98 34.34,95.82 34.34,119.55 0,32.24 -16.1,56.82 -48.34,73.79zm-407.02 -763.14c-16.95,-98.79 -45.79,-224.71 -86.47,-377.76 -67.84,-255.24 -101.76,-382.87 -101.76,-382.87 -6.79,-1.68 -12.29,-7.21 -16.53,-16.52 -4.24,-9.35 -8.92,-12.29 -14,-8.93 -28.81,93.72 -61.05,214.56 -96.66,362.53 -49.18,207.31 -78.86,328.99 -89.05,364.6 -16.95,22.47 -10.15,45.37 20.37,69.1 35.6,8.47 72.92,12.74 111.92,12.74 32.24,0 78.03,-3.81 137.37,-11.45 59.37,-7.63 104.28,-11.44 134.81,-11.44zm924.88 -1007.39c32.21,100.08 83.95,301.02 155.15,602.92 57.69,249.28 117.03,447.7 178.08,595.25l22.9 0c64.44,-130.6 132.28,-329.86 203.49,-597.81 71.24,-278.12 135.69,-478.25 193.34,-600.36 15.27,-33.89 44.95,-50.86 89.06,-50.86 18.62,0 52.55,5.07 101.73,15.26 44.11,8.47 76.31,11.87 96.68,10.18 11.87,10.16 28.82,24.58 50.87,43.24 -3.39,390.05 -12.71,973.43 -27.97,1750.16 -15.26,39 -73.79,58.5 -175.53,58.5 -47.5,-22.02 -73.79,-57.66 -78.86,-106.84 0,-39 0,-78.84 0,-119.55 3.39,-89.9 3.39,-206.89 0,-351.05 -5.08,-203.5 -7.64,-322.23 -7.64,-356.13 -8.47,-3.39 -15.26,-5.1 -20.37,-5.1 -13.13,0 -23.31,11.86 -30.07,35.63 -11.9,32.21 -18.66,50.03 -20.37,53.42 -8.47,22.02 -51.29,162.79 -128.9,422.26 -52.12,171.28 -108.94,305.25 -169.57,401.94 -23.74,8.47 -47.92,12.71 -73.34,12.71 -60.63,0 -110.24,-20.34 -149.24,-61.05 -31.81,-91.58 -75.89,-242.53 -131.44,-452.81 -52.13,-198.42 -96.24,-345.1 -131.42,-440.08 -11.87,0 -19.5,6.8 -22.9,20.35 -3.39,25.44 -5.1,38.15 -5.1,38.15 3.39,83.11 2.55,193.34 -2.53,330.71 -6.79,162.82 -10.18,272.18 -10.18,328.15 0,52.58 0,102.61 0,150.08 -6.79,35.63 -33.5,53.42 -80.55,53.42 -82.27,0 -117.45,-0.84 -105.58,-2.52 -15.26,-11.87 -34.76,-31.4 -58.08,-58.53 6.79,-186.55 8.47,-477.39 5.08,-872.51 -3.4,-381.61 -0.84,-672.45 7.63,-872.55 35.63,-37.31 89.05,-55.97 160.26,-55.97 76.32,0 131.45,27.13 165.37,81.39zm2481.67 1770.53c-5.08,-1.71 -40.26,-0.87 -106.42,2.53 -39,1.71 -69.52,-15.26 -91.16,-50.87l-119.97 -437.55c0,0 -14.42,-11.86 -43.23,-35.6 -25.45,3.4 -53.42,5.08 -83.95,5.08 -33.92,0 -84.39,-2.53 -151.79,-7.63 -67,-5.08 -116.6,-7.64 -148.81,-7.64 -47.5,0 -89.89,3.4 -127.21,10.19 -32.21,50.87 -61.89,140.34 -89.02,268.36 -27.13,128.06 -61.9,219.21 -104.29,273.48 -74.63,11.86 -112.79,17.81 -114.47,17.81 -45.79,0 -81.43,-17.81 -106.84,-53.42 -10.19,-39.03 -12.74,-61.92 -7.64,-68.68 47.48,-162.82 122.95,-464.68 226.4,-905.62 89.89,-383.26 171.28,-682.6 244.2,-897.96 59.37,-8.48 174.69,-5.11 345.97,10.15 22.06,13.58 47.47,36.48 76.32,68.68 32.21,145.87 87.34,365.47 165.34,658.87 78.02,293.39 133.13,514.7 165.36,663.93 -8.5,8.48 -12.73,17.82 -12.73,28.01 0,13.55 10.18,32.62 30.52,57.23 20.37,24.58 32.24,43.66 35.64,57.24 -1.72,8.47 -2.56,17.78 -2.56,27.97 0,25.45 11.45,66.13 34.34,122.1 22.9,55.98 34.34,95.82 34.34,119.55 0,32.24 -16.1,56.82 -48.34,73.79zm-407.02 -763.14c-16.95,-98.79 -45.79,-224.71 -86.47,-377.76 -67.84,-255.24 -101.76,-382.87 -101.76,-382.87 -6.79,-1.68 -12.29,-7.21 -16.53,-16.52 -4.23,-9.35 -8.92,-12.29 -14,-8.93 -28.81,93.72 -61.05,214.56 -96.65,362.53 -49.19,207.31 -78.87,328.99 -89.06,364.6 -16.94,22.47 -10.15,45.37 20.37,69.1 35.61,8.47 72.92,12.74 111.92,12.74 32.24,0 78.03,-3.81 137.37,-11.45 59.37,-7.63 104.28,-11.44 134.81,-11.44z"/>
  </g>
 </g>
</svg>
