<?xml version="1.0" encoding="UTF-8"?>
<!DOCTYPE svg PUBLIC "-//W3C//DTD SVG 1.1//EN" "http://www.w3.org/Graphics/SVG/1.1/DTD/svg11.dtd">
<!-- Creator: CorelDRAW 2017 -->
<svg xmlns="http://www.w3.org/2000/svg" xml:space="preserve" width="200mm" height="200mm" version="1.1" style="shape-rendering:geometricPrecision; text-rendering:geometricPrecision; image-rendering:optimizeQuality; fill-rule:evenodd; clip-rule:evenodd"
viewBox="0 0 20000 20000"
 xmlns:xlink="http://www.w3.org/1999/xlink">
 <defs>
  <style type="text/css">
   <![CDATA[
    .fil0 {fill:#373435}
   ]]>
  </style>
 </defs>
 <g id="Capa_x0020_1">
  <metadata id="CorelCorpID_0Corel-Layer"/>
  <path class="fil0" d="M4651.05 18361.71c-143.16,53.66 -35.96,-85.59 -197.89,320.34 -92.93,233 -404.82,968.39 -359.65,1165.46 163.16,83.89 1082.26,113.87 1247.94,17.94 118.04,-82.12 68.01,-39.47 137.84,-213.11 31.92,-79.32 55.51,-152.44 97,-230.23l1157.17 -5.12c207.62,390.39 -110.95,546.29 497.94,542.25 341.76,-2.27 724.72,16.83 1059.79,-10.6 60.01,-575.65 -88.97,-213.2 -268.75,-973.71l-708.83 -1873.75c-74.12,-240.95 -114.83,-252.17 -169.64,-496.75 -37.41,-166.79 -94.04,-281.45 -162.51,-459.5 -366.17,-73.38 -1222.33,-105.38 -1572.99,-2.19 -24.66,37.37 -176.24,440.04 -204,513.95 -82.61,219.96 -574.12,1561.73 -553.42,1705.02zm1868.31 107.32c80.18,-160.65 -237.04,-1076.41 -336.11,-1208.68 -205.73,140.97 -264.58,519.35 -344.97,824.19 -51.22,194.31 -129.47,384.16 90.7,429.11 168.73,34.44 475.22,13.2 590.38,-44.62z"/>
  <path class="fil0" d="M12908.16 16435.04c-125.59,67.35 -224.66,210.76 -274.4,290.69 -75.02,374.67 -209.48,525.67 -20.21,941.04 190.02,416.99 571.99,589.76 966.61,680.05 189.44,43.3 247.43,55.97 419.59,117.26 450.35,160.44 717,10.72 676.2,475.8 -205.64,111.03 -382.58,170.38 -716.46,113.34 -324.72,-55.48 -270.93,-217.57 -424.24,-432.37 -236.54,-29.62 -831.78,-89.26 -992.97,30.52 -247.38,264.58 150.88,722.69 285.99,860.94 419.38,429.15 1555.01,419.25 2113.22,321.71 176.69,-30.85 302.53,-102.82 450.56,-177.68 129.05,-65.25 296.3,-214.15 331.27,-304.1 41,-194.35 108.19,-211.87 135.2,-461.32 62.08,-572.64 -57.66,-929.41 -616.32,-1129.9 -608.36,-218.27 -1673.5,-260.26 -1572,-679.67 118.75,-200.33 336.52,-248.09 623.62,-231.26 460.38,26.97 296.55,205.27 541.59,326.16 172.19,89.21 751.39,50.57 936.75,-1.57l-52.14 -321.87c43.23,-202.59 -259.26,-452.13 -414.96,-529.34 -171.74,-85.17 -563.2,-188.2 -763.03,-204.07 -669.23,-53.17 -1230.66,20.7 -1633.87,315.64z"/>
  <path class="fil0" d="M14344.22 10015.59c-8.45,365.92 -255.3,783.69 -231.38,1135.79 -18.72,387 -247.59,193.4 -299.27,20.96 -29.16,-97.34 -22.19,-189.11 -50.32,-284.22 -32.62,-110.54 -69.91,-128.85 -93.87,-194.02 -46.11,-125.5 -189.56,-971.27 -260.17,-1033.34 -148.24,-88.06 -1111.96,-79.07 -1340.09,-14.19l20.17 3010.37 762.33 -4.91c118.04,-423 -53.91,-1514.63 -33.86,-1970.34 177.22,20.87 233.77,108.8 275.76,289.29 74.94,322.37 310.9,1099.25 283.18,1217.17 74.74,89.79 149.27,377.72 188.25,485.04 827.74,-4.87 740.5,61.04 797.92,-271.06l226.43 -874.51c62.44,-152.98 203.71,-1084.41 382.67,-889.73 81,88.14 21.03,665.36 16.95,933.9 -4.41,292.84 -40.67,839.58 7.71,1101.81l847.17 3.72c12.33,-54.98 93.21,-2956.47 -11.8,-3066.01 -65.41,-34.61 63.03,-8.75 -113.91,-37.58 -178.8,-29.12 -304.23,23.39 -462.65,32.63 -226.47,13.24 -463.34,4.95 -689.73,7.83 -84.97,181.81 -106.41,109.01 -106.41,359.16 -61.38,59.85 -44.05,17.49 -115.08,42.24z"/>
  <path class="fil0" d="M9202.94 16360.22c-178.83,44.51 -416.61,260.09 -481.86,437.77 -523.44,1425.38 1008.52,1524.99 1706.79,1705.93 597.06,154.71 607.62,723.06 -464.99,581.34 -264.96,-35.01 -400.12,-316.1 -416.82,-406.51 -22.27,-120.47 -829.56,-56.71 -968.34,-41.49 -193.98,1461.18 2363.85,1412.26 2970.15,911.72 50.44,-41.62 93.54,-77.42 130.83,-123.86 75.48,-94.08 20.42,-25.16 81.71,-138.75 75.68,-140.23 101.75,-104.06 140.85,-274.69 115.23,-503.27 57.7,-804.35 -306,-1083 -141.63,-108.48 -10.19,8.91 -115.36,-90.25l-84.8 -94.36c-3.46,-15.22 -14.31,-17.28 -21.03,-26.28 -329.14,92.6 124.27,10.31 -484.63,-58.36 -223.55,-25.24 -294.4,-78.32 -467.8,-115.57 -328.22,-70.48 -667.3,-87.31 -681.94,-462.51 142.92,-232.83 320.23,-270.98 646.93,-247.06 419.87,30.69 316.71,145.72 501.82,341.01l923.68 -14.48c-3.84,-254.85 -141.6,-516.71 -314.66,-640.11 -937.16,-668.21 -2196.49,-164.45 -2294.53,-160.49z"/>
  <path class="fil0" d="M4418.6 10015.01c-72.88,289.21 -169.93,320.97 -231.22,733.08 -111.36,748.39 67.85,1661.8 858.75,1909.76 555.74,174.22 1071.58,197.64 1618.78,-14.52 360.77,-139.9 831,-648.16 704.62,-1127.47l-811.45 -33.36 -211.29 380.23c-218.97,255.64 -650.76,291.03 -877.07,125.1 -130.87,-96.02 -217.9,-225.78 -250.27,-382.46 44.46,-573.84 -163.33,-946.49 271.76,-1274.34 162.5,-122.42 412.49,-165.11 631.12,-42.11 677.86,381.3 -426.38,571.28 1247.29,534.32 50.19,-272.91 -4.5,-299.93 -65.25,-521.21 -313.63,-1142.31 -2168.49,-873.31 -2587.78,-575.94 -167.41,118.74 -173.06,147.95 -297.99,288.92z"/>
  <path class="fil0" d="M4113.76 7451.9c-30.19,156.73 -65.58,179.08 -137.93,271.47l-170.13 231.38c10.43,8.71 25.74,16.46 34.52,21.82l172.65 104.35c-54.19,142.01 -220.66,497.29 -224.33,636.9l210.14 105.26c213.86,-164.28 740.55,-1486.26 1200.35,-1804.34 -64.96,-230.47 -176.82,-61.86 -155.58,-264.7 12.79,-122.25 69.09,-183.34 122.21,-282.32 257.37,-479.56 127.37,-464.79 328.64,-558.62 85.46,-263.39 140.48,-252.92 340.1,-407.75l1243.12 -1283.7 705.16 -933.86c309.34,-446.15 412.04,-624.12 354.42,-1370.85 -176.2,-69.42 -236.13,-151.66 -481.86,-118.21 -549.88,74.86 -942.57,668.53 -1190.91,1102.97 -241.85,423.04 -179.45,253.53 -397.59,696.29l-692.42 1452.51c-87.69,193.57 -118.25,165.44 -203.54,380.69 -97.46,245.99 -693.49,1515.29 -817.93,1658.54 -101.91,117.26 -194.67,219.83 -239.09,362.17zm1979.58 -2647.79c405.19,-48.17 2133.79,-2393.64 1820.17,-2701.24 -99.61,-97.71 -351.32,-31.97 -447.75,32.29 -124.36,82.86 -176.49,187.13 -265.58,319.11l-407.66 728.01c-187.42,437.16 -688.29,1206.08 -699.18,1621.83zm10256.86 705.57c-415.87,123.9 -1040.27,709.21 -1311.75,1090.22 -253.57,355.86 -752.3,1239.86 -993.5,1486.96 -205.07,210.1 -612.19,759.11 -1012.06,582.87 -230.31,-173.64 12.99,-620.9 117.01,-839.08 18.19,-38.11 68.88,-127.28 89.58,-163.58l312.39 -565.38c266.57,-793.14 227.51,-642.51 -337.71,-1098.72 -156.9,-126.66 -84.47,-77.75 -128.02,-274.81l-55.03 -162.38c-171.12,58.4 -121.63,2.68 -287.64,260.04l-1213.37 1807.47c-95.2,102.58 -158.88,162.13 -266.53,274.16 -782.78,814.66 -2057.82,1163.96 -2333.09,405.31 -80.67,-222.39 -42.48,-472.42 -0.91,-512.06 121.84,-49.37 431.92,-99.15 572.11,-139.61 261.33,-75.39 417.77,-77.33 556.02,-252.87 -293,15.22 -483.84,177.02 -834.88,149.35 45.25,-40.14 22.23,-47.27 69.09,-120.03l-288.43 3.43c-69.04,-137.72 -10.14,-169.89 83.24,-319.9 331.52,-532.67 1025.09,-1607.92 1759.99,-1437.66 294.78,607.16 -498.23,1195.23 -936.46,1459.52l-202.68 180.74c412.04,-25.82 765.18,-481.25 960.55,-680.95 43.93,-44.88 60.59,-64.18 102.82,-107.94 8.63,-8.95 35.23,-34.36 43.44,-43.23l160.27 -338.08c155.25,-382.3 22.65,-354.7 -85.91,-595.78 410.59,44.75 492.09,434.64 361.67,774.7 -212.78,554.87 -349.75,337.92 -445.69,666.06 797.88,-280.83 956.22,-2245.24 -891.34,-1412.84 -341.05,153.68 -137.59,0 -511.64,256.42 -31.14,21.33 -181.84,135.62 -208.45,162.3 -144.56,144.98 -444.86,476.17 -490.31,688.5 204.2,-52.34 128.72,-29.66 234.31,-194.63 105.29,-164.53 251.05,-254.98 390.71,-403.17l153.88 -129.1c285.21,-189.56 556.06,-407.25 928.92,-394.59 -9.16,10.64 -22.07,21.49 -30.69,28.79 -338.83,286.74 -452.74,181.36 -979.07,826.05 -224.58,275.02 -678.6,828.57 -498.28,1192.14 -116.26,158.75 -211.5,71.72 -181.64,378.42 57.54,590.62 390.59,721.87 742.33,839.25 -9.33,6.64 -22.48,13.44 -30.15,16.41l-474.52 -31.38c-623.5,-305.67 -512.59,-758.95 -578.71,-1076.53 -23.88,-6.81 -79.97,-16.54 -101.26,-25.16 -83.52,-33.91 -53.33,-17.45 -107.27,-58.98 140.11,-330.66 249.61,-224.62 448.16,-804.56 -122.7,52.21 -70.69,-21.16 -204.57,177.93l-190.72 313.99c-105.75,158.96 -57.86,105.75 -148.73,280.8l-374.46 502.69c-51.31,71.89 -591.9,631.54 -811.65,422.1l-28.3 -64.84c-91.68,-348.44 72.43,-534.41 93.96,-785.84 -174.63,63.19 -36.38,-52.75 -146.38,126.75 -60.34,98.37 -185.48,453.2 -133.63,654.47 40.38,156.69 61.45,50.86 128.97,260.54 -436.62,-18.76 -460.54,-265.04 -424.61,-664.28 34.73,-386.1 226.64,-535.28 204.49,-807.16 -134.38,108.39 -170.3,258.72 -220.29,412.36 -47.72,146.71 -124.85,293.13 -136.11,479.26 -24.5,405.52 170.55,691.64 506.36,749.09 424.78,72.67 703.64,-118 923.14,-324.22 105.38,-98.95 209.57,-201.4 308.23,-321.55 50.11,-61 78.73,-113.92 118.86,-177.84 75.36,-119.99 52.71,-130.21 157.56,-167.09 68.05,155.66 22.64,231.01 113.13,421.36 108.89,229.07 195.58,459.18 518.86,566.74 428.08,142.46 459.22,175.54 1009.75,134.46 215.55,-16.04 615.42,-191.04 796.89,-293.62 97.8,-55.27 251.76,-206.72 334.7,-224.91 68.84,-134.41 551.12,-481.28 980.52,-1147.84 142.04,-220.49 697.65,-1147.26 867.37,-1247.12 801.1,269.33 -107.15,938.86 -197.56,1449.3 160.61,-76.59 65.41,11.96 150.46,-139.36 461.53,-821.39 472.09,-602.34 442.14,-1202.53 122.63,47.55 257.5,98.98 305.46,264 78.04,268.22 -412.4,1003.65 -591.78,1361.95 -416.94,832.81 -16.21,851.91 131.7,1001.01 -439.92,-0.66 -391.74,-131.53 -618.3,-312.72 81.87,619.74 1159.02,551.89 1732.32,-214.35l110.86 -187.29c64.92,-92.27 175.09,-223.8 299.4,-205.98l42.15 253.66c42.73,102.41 0.08,35.96 63.35,104.06 2.52,-131.12 -2.1,-295.61 -34.44,-429.4 -47.34,-196.04 -140.68,-166.34 -145.05,-256.05l648.16 -1067c627.08,-908.54 2350.78,-1625.66 2403.41,-532.84 16.25,336.8 -125.59,412.77 -164.57,667.54 96.06,-52.67 35.8,22.81 137.31,-111.07 143.69,-189.48 222.51,-721.41 -40.88,-987.07 -377.47,-380.69 -757.78,-174.71 -1186.98,-78.2zm-1616.96 2794.09c8.34,176.15 380.78,564.35 577.72,570.41 753.13,70.32 571.86,218.06 1636.88,-194.1 -75.19,-67.51 -3.8,-49.12 -135.9,-55.76 -9.98,-0.54 -1912.23,781.88 -1727.79,-894.6 100.06,-71.85 56.26,-60.83 216.66,-77.74 -293.54,-212.91 8.09,-631.42 144.85,-737.67 24.46,-118.95 316.93,-474.56 418.31,-580.85 31.01,-32.46 65.99,-73.12 101.54,-110.49 228.83,-240.71 875.79,-763.98 1278.3,-505.87 105.26,58.69 61.21,-33.2 93.21,177.19 7.8,51.47 -14.76,188.36 -31.22,239.59 -18.39,57.37 -114.49,230.76 -163.04,305.83 -373.51,577.72 -881.19,856.57 -1491.12,1046.05 -126.37,39.22 -73.09,-6.68 -136.35,83.64 288.38,10.77 380.19,-51.64 603.49,-54.44 331.77,-0.74 1269.59,-573.55 1321.97,-828.94 38.98,-254.77 180.82,-330.74 164.57,-667.54 -52.63,-1092.82 -1776.33,-375.7 -2403.41,532.84l-648.16 1067c4.37,89.71 97.71,60.01 145.05,256.05 32.34,133.79 36.96,298.28 34.44,429.4zm-12314.89 -2867.79l-251.59 564.6c-56.47,85.95 -114.5,140.39 -151.58,253.24 -262.6,800.07 -938.19,2708.87 556.11,2653.32 681.98,-25.37 904.12,-513.58 1172.21,-568.69 -0.41,138.96 -16.95,124.03 -32.66,226.39 -45.04,293.26 95.6,372.32 417.93,317.42 89.91,-171.2 168.94,-308.79 263.1,-495.3 440.7,-872.74 361.92,-647.67 965.66,-1427.28 157.64,-203.62 217.36,-268.62 373.1,-425.48 374.71,-377.43 422.02,-430.72 900.33,-693.49 154.67,-85 303.32,-183.41 584.94,-115.03 171.2,316.68 -84.76,446.52 -138.17,728.47 192.2,-97.63 149.63,-110.54 241.11,-299.65 85.21,-176.11 117.92,-122.54 90.45,-398.22 -376.03,-282.69 -515.64,19.93 -744.34,-159.86 425.27,-10.27 497.16,-83.36 916.7,44.96 -64.87,-176.86 39.06,-35.72 -123.48,-150.42 -320.97,-226.48 -986.12,80.59 -1270.09,280.42 -572.77,403.09 -804.44,836.53 -984.93,852.28l141.72 -306.12c67.39,-114.62 120.44,-262.23 149.43,-404.44 -201.27,93.83 -71.27,79.06 -328.64,558.62 -53.12,98.98 -109.42,160.07 -122.21,282.32 -21.24,202.84 90.62,34.23 155.58,264.7 -459.8,318.08 -986.49,1640.06 -1200.35,1804.34l-210.14 -105.26c3.67,-139.61 170.14,-494.89 224.33,-636.9l-172.65 -104.35c-8.78,-5.36 -24.09,-13.11 -34.52,-21.82l170.13 -231.38c72.35,-92.39 107.74,-114.74 137.93,-271.47 -9.04,8.16 -22.4,8.53 -26.81,24.95 -4.29,16 -20.34,18.73 -26.15,24.29 -300.47,289.42 -523.27,676.25 -958.86,940.59 -197.27,119.69 -537.67,252.33 -793.96,66.36 -222.72,-161.64 -161.51,-461.11 -158.01,-784.02 -143.61,110.99 -132.06,456.83 -72.09,600.28 93.95,224.78 203.58,241.57 249.11,286.77 101.18,100.39 66.24,25.53 112.23,180.36 -1020.15,-41.2 -699.84,-1261.01 -529.79,-1884.1l77.71 -162.38c3.3,-5.89 10.76,-15.22 13.77,-21.4 3.14,-6.48 8.99,-16.83 11.72,-23.88 33.4,-85.87 37.94,-262.24 216.2,-635.63 45.99,-96.3 58.07,-90.65 114.83,-223.13l242.56 -445.65c133.55,-342.08 -204.99,-293.74 -353.84,-292.47 -203.01,1.78 -232.79,39.31 -278.61,-112.35 -81.5,95.61 -93.5,-142.99 -63.02,163 253.65,118.62 475.3,-81.91 631.87,151.62 -52.59,172.2 -39.35,86.2 -104.27,130.87zm13027.31 1478.33c-136.76,106.25 -438.39,524.76 -144.85,737.67 -160.4,16.91 -116.6,5.89 -216.66,77.74 -184.44,1676.48 1717.81,894.06 1727.79,894.6 132.1,6.64 60.71,-11.75 135.9,55.76 -1065.02,412.16 -883.75,264.42 -1636.88,194.1 312.76,360.56 957.78,107.77 1290.88,69l2.1 20.75c105.34,-107.53 564.97,-318.45 704.13,-420.57 170.38,-215.14 314.86,-283.68 435.83,-414.88l167.13 -159.7c213.19,-187.05 72.67,-174.68 286.85,-439.84 133.8,-165.6 153.72,-131.9 168.45,-415.13 -318.12,24.63 -383.29,282.24 -659.71,649.07l-122.58 169.77c-224,267.18 235.46,-131.2 -108.56,89.7 -247.42,158.92 -425.77,431.59 -801.22,545.92 -371.78,107.03 -1121.15,372.97 -1437.38,-256.34 -230.76,-459.22 -72.55,-539.85 181.77,-570.7 208.53,-25.33 549.63,-50.94 700.13,-226.27 -223.3,2.8 -315.11,65.21 -603.49,54.44 63.26,-90.32 9.98,-44.42 136.35,-83.64 609.93,-189.48 1117.61,-468.33 1491.12,-1046.05 48.55,-75.07 144.65,-248.46 163.04,-305.83 16.46,-51.23 39.02,-188.12 31.22,-239.59 -32,-210.39 12.05,-118.5 -93.21,-177.19 19.8,334 -32.01,450.06 -200.86,700.96l-441.98 483.88c-315.98,268.05 -821.02,541.46 -1305.68,514.69 25.44,-236.37 113.05,-195.33 150.37,-502.32zm-8367.93 -460.16c-95.36,87.43 -477.12,671.17 -493.66,818.79 22.15,271.88 -169.76,421.06 -204.49,807.16 -35.93,399.24 -12.01,645.52 424.61,664.28 -67.52,-209.68 -88.59,-103.85 -128.97,-260.54 -51.85,-201.27 73.29,-556.1 133.63,-654.47 110,-179.5 -28.25,-63.56 146.38,-126.75 117.51,-54.4 128.64,-308.22 231.96,-469.9l385.93 -755.35c57.16,-129.02 316.84,-513.05 8.53,-835.99 -419.54,-128.32 -491.43,-55.23 -916.7,-44.96 228.7,179.79 368.31,-122.83 744.34,159.86 27.47,275.68 -5.24,222.11 -90.45,398.22 -91.48,189.11 -48.91,202.02 -241.11,299.65zm1625.25 238.68c-54.08,84.8 -72.72,61.25 -83.28,162.96 -198.55,579.94 -308.05,473.9 -448.16,804.56 53.94,41.53 23.75,25.07 107.27,58.98 21.29,8.62 77.38,18.35 101.26,25.16 66.12,317.58 -44.79,770.86 578.71,1076.53l474.52 31.38c7.67,-2.97 20.82,-9.77 30.15,-16.41 -351.74,-117.38 -684.79,-248.63 -742.33,-839.25 -29.86,-306.7 65.38,-219.67 181.64,-378.42 -180.32,-363.57 273.7,-917.12 498.28,-1192.14 526.33,-644.69 640.24,-539.31 979.07,-826.05 8.62,-7.3 21.53,-18.15 30.69,-28.79 -372.86,-12.66 -643.71,205.03 -928.92,394.59l-153.88 129.1c-139.66,148.19 -285.42,238.64 -390.71,403.17 -105.59,164.97 -30.11,142.29 -234.31,194.63zm3962.5 888.49c-40.71,156.16 -130.7,274.36 -159.95,386.8 -42.85,164.56 -23.26,414.3 -20.37,585.55 226.56,181.19 178.38,312.06 618.3,312.72 -147.91,-149.1 -548.64,-168.2 -131.7,-1001.01 179.38,-358.3 669.82,-1093.73 591.78,-1361.95 -47.96,-165.02 -182.83,-216.45 -305.46,-264 29.95,600.19 19.39,381.14 -442.14,1202.53 -85.05,151.32 10.15,62.77 -150.46,139.36zm-2957.91 -257.65c-127.03,-9.08 -145.88,99.07 -415.66,113.87 -46.86,72.76 -23.84,79.89 -69.09,120.03 351.04,27.67 541.88,-134.13 834.88,-149.35 214.02,42.93 58.65,-0.33 175.74,-57.21 89.88,-43.68 157.93,-51.76 249,-95.89 65.45,-31.72 301.95,-187.83 322.28,-256.67 95.94,-328.14 232.91,-111.19 445.69,-666.06 130.42,-340.06 48.92,-729.95 -361.67,-774.7 108.56,241.08 241.16,213.48 85.91,595.78l-160.27 338.08c-8.21,8.87 -34.81,34.28 -43.44,43.23 -42.23,43.76 -58.89,63.06 -102.82,107.94 -195.37,199.7 -548.51,655.13 -960.55,680.95zm5274.26 -3406.24l-160.49 55.85 58.03 -217.32 -156.23 169.02c-237.57,309.5 -229.78,302.65 -463.8,278.65 -1.69,-139.45 -13.11,-99.32 31.6,-202.27l86.2 -168.07 -5.65 -185.44c3.05,-8.62 9.57,-17.4 11.83,-36.58 2.35,-20.17 9.74,-25.37 11.84,-38.73 -138.66,69.79 -227.46,189.03 -274.85,352.07 -76.02,261.74 30.89,321.71 118.78,459.01 324.43,28.46 661.65,-165.72 742.74,-466.19zm-13028.06 1073.06c45.82,151.66 75.6,114.13 278.61,112.35 148.85,-1.27 487.39,-49.61 353.84,292.47l-242.56 445.65c-56.76,132.48 -68.84,126.83 -114.83,223.13 -178.26,373.39 -182.8,549.76 -216.2,635.63 -2.73,7.05 -8.58,17.4 -11.72,23.88 -3.01,6.18 -10.47,15.51 -13.77,21.4l-77.71 162.38c-170.05,623.09 -490.36,1842.9 529.79,1884.1 -45.99,-154.83 -11.05,-79.97 -112.23,-180.36 -45.53,-45.2 -155.16,-61.99 -249.11,-286.77 -59.97,-143.45 -71.52,-489.29 72.09,-600.28 52.67,-281.82 205.65,-805.84 305.67,-974.36 43.8,-283.48 501.2,-1213.63 660.37,-1525.11 280.75,-60.01 1503.65,30.44 1618.81,-75.93 304.51,-281.33 -963.52,-174.18 -1366.11,-186.88 40.63,-297.25 182.1,-557.96 331.57,-793.06 68.63,-107.93 124.89,-217.27 189.93,-317.25 65.29,-100.31 286.86,-442.89 -42.07,-341.8 -186.51,57.33 -997.3,1311.96 -1136.91,1465.88l-757.46 14.93zm464.58 445.49c64.92,-44.67 51.68,41.33 104.27,-130.87 -156.57,-233.53 -378.22,-33 -631.87,-151.62 -30.48,-305.99 -18.48,-67.39 63.02,-163l757.46 -14.93c139.61,-153.92 950.4,-1408.55 1136.91,-1465.88 328.93,-101.09 107.36,241.49 42.07,341.8 -65.04,99.98 -121.3,209.32 -189.93,317.25 -149.47,235.1 -290.94,495.81 -331.57,793.06 402.59,12.7 1670.62,-94.45 1366.11,186.88 -115.16,106.37 -1338.06,15.92 -1618.81,75.93 -159.17,311.48 -616.57,1241.63 -660.37,1525.11 140.1,-75.65 29.69,90.65 238.64,-347.9 93.79,-196.91 45.7,-172.24 169.43,-380.03l348.68 -737.13c331.82,-8.21 664.42,-4.33 996.39,-2.93 340.31,1.41 671.67,83.4 659.75,-301.33 -263.1,-181.15 -950.15,-88.8 -1349.89,-87.11 -29.33,-533.34 1069.47,-1462.95 434.47,-1519.87 -410.02,-36.75 -1096.12,1401.54 -1298.8,1503.21 -235.88,26.15 -816.85,-94.41 -866.76,183.5 -86.28,480.83 612.36,-26.24 630.8,375.86z"/>
  <path class="fil0" d="M11137.24 12118.7l12.66 -42.48c31.43,-686.32 127.24,-1763.71 41.08,-2444.87 -48.59,-4.91 -785.17,-43.88 -821.55,-3.09 -155.04,173.97 134.87,1841.16 -161.15,2231.92 -159.2,210.18 -296.22,261.98 -538.32,261.16 -1169.46,-3.84 -463.63,-1812.34 -717.04,-2526.33 -162.75,-61.74 -704.67,-61 -837.15,45.91 -80.59,172.65 -31.71,1346.85 -31.42,1637.58 0.61,589.06 121.71,960.34 511.1,1197.83 553.96,337.79 1537.98,363.41 2035.72,60.3 460.58,-280.51 265.78,-305.66 506.07,-417.93z"/>
  <path class="fil0" d="M11814.68 15107l-30.23 7.88c-7.34,-220.95 17.45,-242.81 76.84,-420.99 22.36,-67.1 38.77,-145.75 56.59,-191.7l114.62 -165.64c41.16,291.27 24.74,1098.72 79.93,1270.71l499.76 37.94c188,-23.01 76.59,14.98 150.5,-53.86 85.83,-87.56 94.41,-2215.75 16.34,-2303.93 -172.9,-113.8 -718.86,-63.27 -966.24,-28.79 -133.84,180.53 -144.94,370.13 -201.24,622.26 -10.8,48.42 -162.75,640.16 -176.85,666.06 -326.91,-24.42 -225.61,-307.85 -309.63,-605.14 -93.62,-331.36 -112.43,-580.77 -250.97,-676.5 -145.43,-113.26 -836.78,-75.56 -994.08,-10.89 -90.33,211.92 -34.85,876.16 -34.52,1177.29 1.19,1094.68 -120.98,1218.12 328.76,1217.59 511.18,-0.62 296.63,-209.94 334.37,-1351.18 261.86,163.08 206.3,213.24 288.88,556.02 41.57,172.53 58.11,142.01 100.34,322.78 24.46,104.6 38.73,265.41 74.49,394.18 211.3,95.52 317.38,80.34 588.36,56.96 139.12,-222.31 111.77,-343.2 253.98,-521.05z"/>
  <path class="fil0" d="M6603.16 14882.63l38.57 14.85c177.06,87.4 297.08,304.51 524.22,523.56 138.75,133.84 105.34,173.19 316.59,198.18 753.54,89.13 512.35,-183.04 517.91,-1187.52 1.82,-329.71 28.5,-868.94 -14.43,-1175.14l-492.22 -2.48c-65.58,15.8 -94.28,14.85 -115.36,102l-14.02 444.83c0.78,77.41 6.31,180.98 3.05,255.09 -7.67,174.96 -23.71,298.16 -197.97,233.04 -89.55,-33.41 -679.96,-765.55 -782.42,-910.73l-143.24 -131.82c-140.15,-70.53 -417.27,-52.75 -619.08,-41.08 -162.26,235.35 -78.49,862.88 -78.37,1226.29 0.13,392.28 -53.53,880.91 48.51,1219.86 989.37,84.8 539.15,-185.32 667.05,-1102.48 210.88,15.27 298.69,113.76 341.21,333.55z"/>
  <path class="fil0" d="M13388.29 13654.98c154.59,26.36 85.34,6.81 181.77,149.31l385.1 626.26c267.06,455.63 96.76,564.84 158.38,1232.51 170.26,64.96 588.19,105.22 791.65,30.36 94.16,-194.26 47.06,-502.81 51.35,-759.44 6.31,-377.88 117.84,-304.39 238.85,-609.06l478.73 -1082.43c-949.66,-176.15 -696.13,409.69 -1088.61,682.56 -225.04,-44.42 -159.42,-123.77 -271.48,-314.9 -86.28,-147.2 -140.15,-244.75 -232.66,-358.21l-816.4 -23.59c9.2,321.5 104.39,113.46 123.32,426.63z"/>
  <path class="fil0" d="M13494.83 2697.33c-74.94,-270.73 -112.47,-377.89 32.01,-687.76 84.46,-181.1 233.03,-356.93 458.06,-385.31 -60.92,291.27 -293.99,302.7 -276.05,582.83l204.86 79.52 -267.76 61.29c-47.97,400.2 97.59,225.61 167.58,418.27l-236.09 8.95c231.39,255.09 642.1,137.88 871.83,-47.68 109.59,-88.56 105.59,-117.67 220.29,-150.59 292.1,192.33 102.29,206.72 580.32,206.84 -47.31,176.2 -287.93,241.57 -437.24,340.19 -154.46,102 -92.68,28.21 -174.09,181.02l189.68 -69c551.94,-257.9 564.89,-482.77 630.26,-793.18 24.29,-115.15 42.57,-105.91 95.77,-161.1 350.91,-363.78 168.2,-376.19 442.15,-453.4 0.2,264.21 -90.54,360.89 -192.49,566.5 -58.98,118.95 -137.23,605.06 -176.04,530.57 -3.54,-6.89 -14.76,21.4 -21.28,32.66 227.8,-18.64 436.7,-207.75 601.97,-359.94l337.87 -376.36c91.4,-181.8 -74.65,-172.11 -238.47,-164.4 -112.81,224.91 -143.91,244.05 -316.8,283.35 48.21,-467.51 316.06,-468.74 316.59,-1027.78 -356.6,49.33 -176.36,40.96 -363.03,356.85 -3.84,6.48 -10.19,16.71 -14.4,22.77 -111.48,160.03 -564.43,748.96 -698.85,796.85 -27.8,9.94 -114.66,30.56 -122.37,32.75l-19.68 7.46c-207.25,-131.32 57.87,-366.87 51.06,-581.3 325.18,-312.64 154.92,-438.84 40.59,-420.74 -208.74,33.08 -452.54,486.81 -582.09,675.1 -244.33,355.11 -730.77,626.38 -885.85,284.67 85.75,-167.79 138.46,-69.62 352.93,-150.63 62.53,-23.63 251.34,-114.95 325.21,-169.1 223.51,-163.87 318.41,-351.2 291.93,-647.59 -152.48,-67.84 -270.85,-163.82 -445.65,-131.28 -544.3,101.34 -976.55,588.56 -882.3,1245.72 74.16,53.04 17.98,20.33 139.57,62.98zm350.13 -498.7c181.88,6.74 356.18,-87.31 477.37,-202.47 75.64,-71.87 259.56,-221.09 297.78,-334.33 -106.72,-19.53 -381.07,106.95 -472.31,157.17 -164.87,90.76 -320.46,129.15 -302.84,379.63zm-2667.8 -610.41c-246.93,380.81 -269.24,122.49 -566.16,268.13l309.99 31.72c-2.88,332.02 -120.43,52.87 -198.55,463.63 241.04,-72.84 104.02,-30.36 335.86,-282.08 125.22,-135.94 153.22,-227.05 319.07,-297.16l102.61 -32.17 54.32 -126.34c196.82,-21.73 253.66,17.86 381.93,-94.04 -119.28,-43.1 -220.99,28.09 -360.11,-84.13 40.13,-131.78 10.44,-83.9 114.78,-163.75 10.69,-82.16 275.77,-652.08 68.31,-984.14 -163.95,-262.35 -530.99,-342.2 -914.23,-252.62 -48.18,11.26 -382.96,131.86 -429.4,155.66l-199.42 102.74c-292.76,138.74 -547.86,527.68 -448.13,1058.01 270.24,72.46 10.36,179.41 723.85,141.63 207.01,-10.97 188.57,27.64 271.35,-99.56l-71.77 -37.99c-69.12,-22.4 -11.71,-16.41 -118.04,-30.64 -179.08,-23.97 -399.41,56.58 -502.28,-135.58 -122.7,-229.28 18.31,-441.03 161.72,-595.9 187.38,-202.39 614.47,-436.29 972.84,-402.59 734.65,69.13 68.22,1156.96 -8.54,1397.17zm-1749.06 1268.6c2.27,37.2 -60.47,137.72 280.5,129.88 217.94,-4.95 374.3,-27.43 515.52,-119.2l1031.16 -897.56c6.15,-6.56 15.88,-13.99 21.9,-20.71 6.02,-6.72 15.55,-14.02 21.33,-21.2 83.56,-103.48 26.06,92.68 78.86,-155.57 -165.85,70.11 -193.85,161.22 -319.07,297.16 -231.84,251.72 -94.82,209.24 -335.86,282.08 78.12,-410.76 195.67,-131.61 198.55,-463.63l-309.99 -31.72c296.92,-145.64 319.23,112.68 566.16,-268.13 -227.5,43.18 -175.66,41.36 -323.07,107.4 -234.1,104.92 -208.82,-20.5 -474.27,120.89 -129.14,68.75 41.08,3.58 -149.96,67.64 -165.52,55.51 -139.74,48.21 -283.56,120.1 -199.59,99.81 -337.14,152.4 -488.09,310.24 -106.13,110.91 -225.69,295.85 -152.94,447.39 72.39,150.66 30.28,62.85 122.83,94.94zm305.75 -111.03c264.99,9.82 518.94,-127.2 695.51,-294.98 110.2,-104.72 378.17,-322.12 433.85,-487.1 -155.49,-28.46 -555.2,155.82 -688.13,228.99 -240.21,132.23 -466.89,188.16 -441.23,553.09zm2412.77 -1460.02c-72.67,78.2 2.56,42.27 -138.29,92.35 81.91,276.5 63.64,280.67 -24.21,576.8 -58.94,198.55 -106.87,398.3 -3.3,604.24 10.1,-10.77 20.54,-43.93 24.79,-36.63l71.89 -134.5c10.51,-23.22 32.21,-77.04 58.07,-134.08 38.77,-85.54 77.58,-221.28 128.35,-284.47 -2.1,-313 200.95,-605.84 502.45,-763.44l516.96 -319.27c103.6,-74.9 20.95,-12.58 113.83,-94.62 803.41,-709.9 -74.94,-1351.96 -939.14,72.84 -73.13,120.6 -195.79,377.59 -311.4,420.78zm647.42 -363.37c136.36,-12.41 61.04,14.27 184.28,-36.29l300.3 -209.73c167.29,-127.08 274.28,-209.07 219.96,-502.32 -175.12,-2.19 -184.94,-44.84 -428.32,259.8 -147.49,184.61 -248.75,193.35 -276.22,488.54zm-1314.06 817.89c150.26,-25.12 275.48,-76.76 458.6,-87.11 -28.91,283.27 -165.64,791.9 -0.37,1050.83 271.06,424.9 908.95,299.85 1034.83,154.01 499.31,-578.38 261.33,-1210.49 -296.63,-1190.33l-12.7 188.45c67.1,53.37 409.27,115.32 252.21,630.26 -68.67,225.07 -349.39,331.98 -612.57,228.83 -178.67,-273.87 -41.08,-438.52 -39.43,-745.75 -50.77,63.19 -89.58,198.93 -128.35,284.47 -25.86,57.04 -47.56,110.86 -58.07,134.08l-71.89 134.5c-4.25,-7.3 -14.69,25.86 -24.79,36.63 -103.57,-205.94 -55.64,-405.69 3.3,-604.24 87.85,-296.13 106.12,-300.3 24.21,-576.8 140.85,-50.08 65.62,-14.15 138.29,-92.35 -327.56,50.89 -196.78,159.04 -496.83,139.45l21.11 -153.19c-104.34,79.85 -74.65,31.97 -114.78,163.75 139.12,112.22 240.83,41.03 360.11,84.13 -128.27,111.9 -185.11,72.31 -381.93,94.04l-54.32 126.34zm3158.57 1564.61l-243.39 267.64c-2.1,13.36 -9.49,18.56 -11.84,38.73 -2.26,19.18 -8.78,27.96 -11.83,36.58l5.65 185.44 670.51 -584.27c89.54,165.18 -116.6,333.13 -168.28,506.94l-58.03 217.32 160.49 -55.85c118.99,-57.87 226.72,-288.96 318.45,-466.89 47.92,-92.93 85.17,-182.88 147.12,-276.18 20.54,-30.93 143.36,-205.27 159.2,-216.41 6.52,-11.26 17.74,-39.55 21.28,-32.66 38.81,74.49 117.06,-411.62 176.04,-530.57 101.95,-205.61 192.69,-302.29 192.49,-566.5 -273.95,77.21 -91.24,89.62 -442.15,453.4 -53.2,55.19 -71.48,45.95 -95.77,161.1 -65.37,310.41 -78.32,535.28 -630.26,793.18l-189.68 69zm-1143.72 -607.57c36.5,102.99 -4.12,56.05 82.61,77.79l236.09 -8.95c-69.99,-192.66 -215.55,-18.07 -167.58,-418.27l267.76 -61.29 -204.86 -79.52c-17.94,-280.13 215.13,-291.56 276.05,-582.83 -225.03,28.38 -373.6,204.21 -458.06,385.31 -144.48,309.87 -106.95,417.03 -32.01,687.76zm1645.66 -749.13c-12.86,-286.11 33.04,-53.78 91.77,-320.51 -265.86,89.66 -553.83,564.64 -645.85,817.67 341.43,105.59 142.46,82.95 335.2,180.66 72.84,-125.8 -56.96,-549.92 218.88,-677.82zm-5712.39 908.62c204.24,86.08 358,69.09 567.86,-1.19l-368.86 -68.84c-88.92,-415.09 147.5,-282.2 252.96,-593.76 -137.84,10.1 -238.27,-14.31 -410.63,215.83 -143.25,191.25 -61.62,274.49 -41.33,447.96z"/>
  <path class="fil0" d="M4090.41 13716.68l0.41 1430c-0.16,367.41 -117.42,643.62 666.35,547.03 232.17,-28.63 193.77,-176.86 194.43,-420.86 2.97,-2266.65 151.21,-2106 -492.87,-2104.72 -458.56,0.91 -367.91,101.09 -368.32,548.55z"/>
 </g>
</svg>
