<?xml version="1.0" encoding="UTF-8"?>
<!DOCTYPE svg PUBLIC "-//W3C//DTD SVG 1.1//EN" "http://www.w3.org/Graphics/SVG/1.1/DTD/svg11.dtd">
<!-- Creator: CorelDRAW 2017 -->
<svg xmlns="http://www.w3.org/2000/svg" xml:space="preserve" width="200mm" height="200mm" version="1.1" style="shape-rendering:geometricPrecision; text-rendering:geometricPrecision; image-rendering:optimizeQuality; fill-rule:evenodd; clip-rule:evenodd"
viewBox="0 0 20000 20000"
 xmlns:xlink="http://www.w3.org/1999/xlink">
 <defs>
  <style type="text/css">
   <![CDATA[
    .fil11 {fill:#010002}
    .fil19 {fill:#020202}
    .fil3 {fill:#040404}
    .fil6 {fill:#050101}
    .fil8 {fill:#0A0909}
    .fil2 {fill:#140E15}
    .fil12 {fill:#191919}
    .fil10 {fill:#250806}
    .fil9 {fill:#2D1313}
    .fil14 {fill:#3A110E}
    .fil18 {fill:#972A26}
    .fil17 {fill:#A82B26}
    .fil1 {fill:#B72B27}
    .fil15 {fill:#CE2E1E}
    .fil5 {fill:#D42D23}
    .fil13 {fill:#DB2A1B}
    .fil20 {fill:#EFD01A}
    .fil0 {fill:#F5D414}
    .fil4 {fill:#F7D509}
    .fil7 {fill:#FAD304}
    .fil16 {fill:#FDD201}
   ]]>
  </style>
 </defs>
 <g id="Capa_x0020_1">
  <metadata id="CorelCorpID_0Corel-Layer"/>
  <path class="fil0" d="M18429.66 10546.52c145.37,165.97 248.96,155.52 491.8,121.09 31.29,-285.61 -4.73,-246.11 -193.35,-353.74 -302.96,-172.86 -284.98,-190.51 -189.86,-279.62 67.71,-63.43 -7.08,-90.94 176.67,43.65l354.3 291.23c145.5,155.77 81.16,114.44 228.96,135.25 -58.58,-186.52 -175.07,-287.29 -308.52,-377.3 -246.59,-166.32 -279.91,-103.63 -358.2,-273.97 103.75,-62.26 188.62,-44.15 296.32,6.29 99.46,46.6 112.65,79.25 236.35,96.3l86.97 -283.55c-248.25,-262.11 -997.63,-389.2 -1099.01,9.64 -131.67,518.07 548.33,598.49 665.83,858.95 -53.61,39.68 -9.33,25.17 -99.94,47.44 -60.25,14.8 -41.97,11.74 -104.37,6.56 -67.42,-5.62 -100.34,-28.83 -183.95,-48.22z"/>
  <path class="fil0" d="M19849.2 9808.96l-372.37 -97.79c-8.66,222.21 15.21,422.65 26.95,618.46 19.93,332.35 -56.34,354.49 312.99,343.4l32.43 -864.07z"/>
  <path class="fil1" d="M17400.34 8936.85c345.79,152.44 -5.29,50.74 525.41,189.91 275.19,72.15 378.02,27.83 621.45,134.19 235.48,102.9 335.19,-16.41 551.61,104.93 205.42,115.19 293.1,197.81 592,223.83 -73.82,-183.71 -70.31,-119.06 -339.72,-293.82 -404.81,-262.61 -1079.88,-742.59 -1481.46,-870.42 -168.55,-53.65 -334.5,-48.32 -465.83,-117.23 -137.82,-72.3 -239.79,-154.14 -393.21,-187.86 -221,-48.58 -269.76,46.11 -444.72,-101.72l-42.92 -40.76 -18.61 13.41 -551.9 -84.47c50.28,116.92 -15.53,30.04 72.86,113.17 17.81,16.75 60.45,42.33 87.97,59.24l1287.07 857.6z"/>
  <path class="fil2" d="M19462.08 10807.46c236.21,-98.63 301.66,-26.35 425.63,95.2 17.18,166.41 17.72,120.16 -60.5,239.05 -249.4,36.11 -403.67,-74.04 -365.13,-334.25zm354.69 -134.43c-369.33,11.09 -293.06,-11.05 -312.99,-343.4 -11.74,-195.81 -35.61,-396.25 -26.95,-618.46l372.37 97.79 -32.43 864.07zm-518.59 -168.65c137.99,595.11 -647.79,564.76 -1162.74,296.94 3.05,-149.63 17.76,-208.59 113.07,-321.66l181.15 66.86c83.61,19.39 116.53,42.6 183.95,48.22 62.4,5.18 44.12,8.24 104.37,-6.56 90.61,-22.27 46.33,-7.76 99.94,-47.44 -117.5,-260.46 -797.5,-340.88 -665.83,-858.95 101.38,-398.84 850.76,-271.75 1099.01,-9.64l-86.97 283.55c-123.7,-17.05 -136.89,-49.7 -236.35,-96.3 -107.7,-50.44 -192.57,-68.55 -296.32,-6.29 78.29,170.34 111.61,107.65 358.2,273.97 133.45,90.01 249.94,190.78 308.52,377.3zm-1897.84 -1567.53c-271.79,-5.02 -34.17,16.87 -303.06,82.86 232.34,39.61 -20.03,-29.77 101.39,93.17 -7.28,80.16 184.96,519.54 253.55,577.25l238.25 -462.97c191.7,8.84 379.27,37.98 489.64,119.26 -43.65,129.25 -312.96,477.7 -390.75,591.85 -240.5,352.88 -72.39,435.43 -143.21,870.18l-322.56 -6.39c-70.45,257.46 -665.13,-316.85 -812.44,-297.32 -159.78,79.61 -218.72,161.08 -361.77,243.09 -215.04,106.1 -450.16,5.6 -646.15,28.77 118.8,170.94 624.43,80.69 797.57,-17.47 143.69,-81.46 57.84,-84.16 210.35,-160.06 219.7,47.71 251.37,179.49 458.04,272.28 165.59,74.36 448.69,90.92 645.92,111.25 348.47,35.91 123.25,-189.76 594.35,29.26 684.82,318.4 751.75,-65.97 1227.75,188.77 195.43,104.58 538.61,102.72 588.24,-123.47 39.36,-179.45 -26.82,-177.93 -49.68,-297.52 -33.2,-173.58 114.49,-943.02 62.46,-1071.3 -137,-177.44 -586.42,-420.59 -796.6,-555.52 -278.86,-179.04 -528.04,-352.01 -822.82,-518.9 -555.74,-314.61 -100.35,-127.18 -822.55,-364.53 -107.97,-35.48 -152.29,-34.35 -252.65,-75.61 -323.47,-133 -349.9,-187.01 -820.66,-215.88l42.92 40.76c174.96,147.83 223.72,53.14 444.72,101.72 153.42,33.72 255.39,115.56 393.21,187.86 131.33,68.91 297.28,63.58 465.83,117.23 401.58,127.83 1076.65,607.81 1481.46,870.42 269.41,174.76 265.9,110.11 339.72,293.82 -298.9,-26.02 -386.58,-108.64 -592,-223.83 -216.42,-121.34 -316.13,-2.03 -551.61,-104.93 -243.43,-106.36 -346.26,-62.04 -621.45,-134.19 -530.7,-139.17 -179.62,-37.47 -525.41,-189.91z"/>
  <path class="fil3" d="M4823.67 12625.23c80.79,8.46 518.14,-91.4 637.09,-120.64 280.56,-68.96 374.66,-84.58 455.51,-252.37l25.94 -57.35c177.84,30.73 120.99,73.33 324.74,51.83 119.71,-12.65 183.6,-53.06 285.56,-80.98 68.96,-18.9 222.38,-25.08 286.21,-78.2 77.06,-64.13 33.9,-73.19 57.4,-108.18 91.43,-136.04 -108.37,-71.17 131.75,-103l0 -141.08c-98.35,1.48 -78.22,-3.14 -161.15,14.39 -151.16,31.89 -21.77,19.13 -19.83,21.61l0 -832.4c95.33,-50.59 -28.63,19.08 71.09,-28.27 103,-48.9 -8.99,26.6 65.19,-36.67 -52.58,-129.93 16.47,-35.53 -102.38,-79.83 55.97,-148.13 52.13,-104.26 14.88,-256.9l-75.38 122.21c-152.98,337.53 -58.25,809.34 -90.34,1292.82 -104.22,76.5 -300.85,126.49 -452.17,132.63 -82.49,-476.37 84.82,-908.3 -112.52,-1336.33l-300.33 -777.76c-16.85,-44.92 -26.72,-89.87 -47,-135.13l-97.19 -138.72c-4.1,145.77 28.16,378.76 -43.92,469.88 -135.28,98.65 -450.32,85.24 -590.06,165.23l-5.25 380.55 594.47 -102.07 5.21 581.78 -592.14 130.37 -8.83 478.29c282.55,22.47 392.94,-127.12 664.26,-121.89l9.29 562.7c-163.78,64.99 -1006.47,315.62 -1138.17,310.82l-24.08 -2719.43c-1.48,-111.99 6.8,-63.49 -24.73,-114.04l-302.43 -137.61 13.45 3094.56c89.27,55.23 -17.94,1.45 78.76,0.56 341.35,-3.17 299.19,-51.27 467.1,-51.38z"/>
  <path class="fil3" d="M13432.17 9491.38c-123.52,677.06 48.83,1342.99 859.31,1145.45l-23.43 -401.25 -293.1 7.35c-84.51,-16.79 -73.75,-18.91 -105.85,-33.65 -31.51,-171.21 -41.42,-455.7 17.92,-631.42 167.69,-69.03 896.29,-30.31 1139.56,-14.46l-108.01 -361.37c-349.54,-5.04 -265.56,112.97 -361.77,-75.07 -152.78,-88.19 -489.5,-117.32 -716.29,-57.71 -216.62,56.95 -308.34,242.47 -408.34,422.13z"/>
  <path class="fil3" d="M16500.71 10251.03c-57.62,75.92 -62.69,165.65 -156.91,267.84 -66.19,71.75 -167.42,127.18 -250.55,169.33 35.13,86.08 -9.5,114.53 56.13,59.63 143.05,-82.01 201.99,-163.48 361.77,-243.09 147.31,-19.53 741.99,554.78 812.44,297.32l-147.02 -55.14c-14.37,-440.12 58.5,-543.04 -120.7,-892.38 -101.86,-198.57 -231.31,-485.21 -341.49,-656.21 -238.29,-55.6 -55.68,-28.79 -126.33,39.52 -1.87,181.38 -3.35,362.3 -2.74,543.94 0.69,207.67 37.71,348.26 -84.6,469.24z"/>
  <path class="fil3" d="M10044.21 9428.01c-255.71,150.45 -272.35,408.05 -265.93,752.39 4.92,264.89 108.88,711.8 435.4,508.01 354.38,-221.18 309.12,-1541.93 -169.47,-1260.4z"/>
  <path class="fil4" d="M4747.77 10523.56c190.88,-14.2 223.55,38.49 96.17,143.13 157.15,23.61 92.49,31.29 157.37,163.42 500.37,0 212.65,-72.39 542.89,-72.39l-36.16 326.08c-89.82,120.58 -470.83,-14.5 -527.77,251.22l-16.77 108.57c-2.21,25.8 -2.12,119.17 -1.78,148.45 1.63,144.25 -7.36,195.6 50.68,300.75 96.38,174.61 327.11,182.53 314.32,341.84l-579.08 152.07 0.13 -1863.14zm-156.25 -690.42l24.08 2719.43c131.7,4.8 974.39,-245.83 1138.17,-310.82l-9.29 -562.7c-271.32,-5.23 -381.71,144.36 -664.26,121.89l8.83 -478.29 592.14 -130.37 -5.21 -581.78 -594.47 102.07 5.25 -380.55c139.74,-79.99 454.78,-66.58 590.06,-165.23 72.08,-91.12 39.82,-324.11 43.92,-469.88l97.19 138.72c20.28,45.26 30.15,90.21 47,135.13l300.33 777.76c197.34,428.03 30.03,859.96 112.52,1336.33 151.32,-6.14 347.95,-56.13 452.17,-132.63 32.09,-483.48 -62.64,-955.29 90.34,-1292.82l75.38 -122.21c-1.05,-189.13 270.05,-838.76 345.59,-1046.17 6.16,-170.38 9.73,-12.72 1.09,-100.08l-483.26 12.7c-53.96,225.7 -162.33,735.72 -249.45,905.68 -119.64,-245.91 -135.64,-531.93 -241.68,-776.65 -192.91,-34.7 -1482.07,231.08 -1676.44,300.47z"/>
  <path class="fil4" d="M10044.21 9428.01c478.59,-281.53 523.85,1039.22 169.47,1260.4 -326.52,203.79 -430.48,-243.12 -435.4,-508.01 -6.42,-344.34 10.22,-601.94 265.93,-752.39zm861.96 931.77c428.76,-1323.9 -1138.28,-2230.67 -1590.64,-617.3 -402.98,1437.2 1059.72,2256.67 1590.64,617.3z"/>
  <path class="fil4" d="M11107.02 8828.83c-49.68,197.88 -30.35,1168.69 -19.17,1424.7 20.1,459.89 249.32,769.26 754.8,694.95 394.53,-57.98 618.86,-379.82 671.65,-776.34 31.14,-233.99 35.22,-1163.93 -0.55,-1397.78l-410.67 26.78c-6.67,7.63 -12.99,19.1 -16.04,25.82 -154.52,341.71 160.07,1562.3 -252.42,1642.41 -435.1,84.49 -212.81,-940.97 -269.87,-1653.93l-457.73 13.39z"/>
  <path class="fil4" d="M12973.86 10879.7c102.05,141.31 274.02,292.99 497.08,351.91 684.06,74.67 845.56,30.68 1437.75,-157.8 33.54,-220.65 13.81,-519.84 13.94,-750.21 0.07,-152.86 21.61,-498.59 -19.57,-636.64 -47.98,-160.85 -777.1,-91.7 -966.09,-75.2l9.41 561.43c50.82,4.48 147.36,0.05 177.08,4.28 173.15,24.68 57.36,-28.2 144.59,58.11l23.43 401.25c-810.48,197.54 -982.83,-468.39 -859.31,-1145.45 -17.85,6.16 -80.02,14.47 -106,36.18 0,507.09 -39.92,539.9 72.02,976.82 -163.32,0.29 -61.37,-10.24 -37.36,22.39 35.01,47.6 58.2,94.06 37.36,158.74 84.15,0.82 41.61,14.68 56.72,-106.39 2.33,-18.63 8.5,-24.44 15.85,-34.88 189.49,341.08 266.63,116.27 270.05,355.7 1.11,77.3 -48.67,137.45 -125.76,153.23 -7.14,1.45 -19.39,-0.56 -26.01,-0.18l-118.28 66.65c-147.18,-83.26 -183.86,-156.5 -199.33,-164.56 -2.41,-1.27 -11.76,-3.32 -14.51,-4.46 -42.02,-17.54 -67.42,6.78 -129.99,-97.01l-18.3 -59.34c-262.19,0 -72.17,-20.1 -134.77,85.43z"/>
  <path class="fil4" d="M16093.25 10688.2c83.13,-42.15 184.36,-97.58 250.55,-169.33 94.22,-102.19 99.29,-191.92 156.91,-267.84l17.83 -1230.27c-129.84,-40.38 -328.77,-78.33 -461.59,-56.27 -17.43,426.29 123.89,1506.4 -283.62,1334.3 -97.68,-41.25 -36.82,-5.67 -73.07,-69.83 -10.86,-4.13 -101.96,48.42 -129.72,-232.99 -45.48,-460.98 126.84,-1060.33 -116.65,-1114l-334.9 -23.86c-39.47,200.76 -33.11,1212.63 26.49,1393.75 123.54,375.42 433.97,513.51 947.77,436.34z"/>
  <path class="fil4" d="M16714.38 9198.33c110.18,171 239.63,457.64 341.49,656.21 179.2,349.34 106.33,452.26 120.7,892.38l147.02 55.14 322.56 6.39c70.82,-434.75 -97.29,-517.3 143.21,-870.18 77.79,-114.15 347.1,-462.6 390.75,-591.85 -110.37,-81.28 -297.94,-110.42 -489.64,-119.26l-238.25 462.97c-68.59,-57.71 -260.83,-497.09 -253.55,-577.25 -134.75,-18.33 -426.87,-93.75 -525.57,-55.99l41.28 141.44z"/>
  <path class="fil4" d="M18429.66 10546.52l-181.15 -66.86c-95.31,113.07 -110.02,172.03 -113.07,321.66 514.95,267.82 1300.73,298.17 1162.74,-296.94 -147.8,-20.81 -83.46,20.52 -228.96,-135.25l-354.3 -291.23c-183.75,-134.59 -108.96,-107.08 -176.67,-43.65 -95.12,89.11 -113.1,106.76 189.86,279.62 188.62,107.63 224.64,68.13 193.35,353.74 -242.84,34.43 -346.43,44.88 -491.8,-121.09z"/>
  <path class="fil5" d="M1848.56 8425.07c184.3,30.97 518.34,317.58 655.07,408.63 229.61,152.89 470.13,270.49 650.7,424.48 287.58,114.1 132.84,218.27 877.29,19.41 171.99,-45.94 163.74,-90.89 308.81,-66.99l18.24 382.93c158.64,74.02 23.25,73.8 205.62,79.95l1629.42 -325.43c78.55,-31.72 30.93,-7.08 72.19,-37.81 -109.75,-135.24 -1186.13,-768.37 -1488.63,-970.73 -443.44,-296.61 -439.72,-183.31 -1293.33,-31.34 -361.48,64.36 -333.77,187.53 -620.13,-10.68 -168.42,-116.58 -329.88,-285.99 -570.31,-256.33 -120.49,14.86 -568.18,81.94 -663.62,183.33 111.31,112.14 162.39,73.15 218.68,200.58z"/>
  <path class="fil5" d="M5308.16 7593.97c268.6,169.89 1725.02,1124.18 1900.81,1136.54 204.79,14.37 743.29,-70.43 871.83,-144.1l-33.85 -39.7c-221.78,-221.78 -1168.42,-717.69 -1329.52,-889.23 -283.66,-79.76 -276.23,-260.48 -630.06,-236.47 -252.82,17.16 -504.17,66.24 -760.49,103.24l-18.72 69.72z"/>
  <path class="fil5" d="M2849.06 9406.67c-138.69,-18.81 -583.44,-331.75 -737.86,-431.44 -123.82,-79.92 -232.72,-155.65 -368.33,-241.06 -100.34,-63.2 -289.89,-135.75 -369.88,-257.8 -99.3,-21.82 -186.05,-93.21 -262.14,-143.29 -173.65,-15.24 -751.88,78.04 -889.98,144.74 12.37,136.11 -98.06,23.3 240.59,232.25 91.61,56.52 191.3,123.79 313.33,195.65 210.15,123.76 1153.54,750.87 1262.09,763.66 118.12,13.94 732.96,-130 838.49,-167.89l-26.31 -94.82z"/>
  <path class="fil5" d="M6871.21 7290.38c9.31,125.64 421.33,328.91 543.22,403.85l1224.72 771.18c254.2,111.39 654.42,-10.33 922.73,-22.4 -32.18,-114.88 -370.58,-314.33 -504.3,-399.26l-581.54 -427.36c-79.53,-76.14 -292.65,-199.44 -390.49,-266.21 -272.44,-185.87 -219.59,-106.24 -554.31,-121.96l-660.03 62.16z"/>
  <path class="fil5" d="M14670.86 7646.09l-536.31 -37.84c402.73,281.23 840.06,560.16 1276.38,846.95 233.32,153.37 408.62,318.2 700.87,347.59 343.29,34.52 657.17,123.37 990.48,121.23 -88.08,-127.05 -940.2,-650.79 -1110.3,-758.78 -440.03,-279.36 -442.48,-346.55 -946.63,-430.75 -84.91,-14.19 -301.16,-39.61 -374.49,-88.4z"/>
  <path class="fil5" d="M6822.05 8839.91c-127.02,-25.85 -1069.96,-655.41 -1246.95,-779.89 -190.96,-71.81 -117.87,-111.58 -384.97,-72.86 -105.29,15.28 -309.44,47.19 -396.29,92.56 83.3,138.77 1313.69,864.8 1630.24,1071.96 256.37,167.78 636.29,86.68 762.08,-22.4 -145.68,-153.23 -246.7,-133.38 -364.11,-289.37z"/>
  <path class="fil5" d="M9236.58 7664.44c184.91,38.72 872.72,535.25 1060.07,655.01 170.41,108.96 382.65,256.99 525.26,342.46 204.75,122.72 520.72,22.79 770.47,21.65 -28.23,-129.46 -886.77,-632.72 -1057.13,-744.68 -431.26,-283.37 -779.12,-616.08 -1335.49,-416.26 -27.34,74 -39.97,-26.09 36.82,141.82z"/>
  <path class="fil6" d="M352.94 13266.07l1144.29 740.41c189.35,111.06 425.53,318.43 670.56,265.83 187.14,-40.19 625.46,-185.16 715.42,-276.03 4.7,-9.57 9.28,-34.91 10.6,-30.17 22.02,78.84 6.33,-309.11 60.41,-367.77 66.48,-59.34 6.44,-53.09 111.22,-0.76 131.38,65.65 255.12,284.5 532.62,187.43 -2.83,-11.9 -4.93,-25.46 -8.25,-35.75l-28.52 -75.74c-3.46,-24.3 -12.68,-26.69 -20.11,-39.44l5.96 -1635.33c-173.94,3.1 -599.18,145.39 -749.14,210.67l-3.71 1699.87c-163.5,88.08 -426.77,167.3 -632.15,225.97 -51.55,-31.73 -97.14,-9.35 -92.92,-263.3 1.61,-96.54 6.36,-192.48 6.51,-291.12l-6.4 -3857.44c-61.5,94.36 -15.69,-24.61 -22.59,83.4 -0.71,11.29 2.5,46.11 3.49,58.67l-0.36 1073.39c-8.99,863.86 -80.03,764.8 -91.7,1122.26 -285.54,13.28 -141.37,-36.86 -250.77,138.76 -137.28,-51.79 -21.62,-52.61 -149.45,-107.94l-1310.27 -17.34c-173.07,-143.6 -37.61,-594.1 -137.63,-877.01l-16.56 1900.91c57.89,26.19 207.74,127.71 259.45,167.57z"/>
  <path class="fil6" d="M1372.99 8476.37c79.99,122.05 269.54,194.6 369.88,257.8 135.61,85.41 244.51,161.14 368.33,241.06 154.42,99.69 599.17,412.63 737.86,431.44 130.69,41.2 42.8,-44.47 113.99,84.53l-114.75 124.75c-4.01,4.31 -13.07,12.7 -18.43,20 97.65,227.6 -20.02,1201.02 49.23,1520.23l183.91 -7.95c94.82,22.79 413.61,-22.34 418.11,-88.79 0,-481.01 3.75,-937.4 30.96,-1387.29l-339.37 -389.83c-3.17,-14.26 -13.52,-15.28 -18.38,-24.14 -180.57,-153.99 -421.09,-271.59 -650.7,-424.48 -136.73,-91.05 -470.77,-377.66 -655.07,-408.63 -118.24,-28.19 -15.13,4.15 -112.48,-37.63 -12.63,-5.42 -92.77,-49.14 -96.88,-52.31 -116.1,-89.4 -91.13,-63.35 -112.6,-192.28 -75.14,83.02 -44.26,162.78 -49.28,298.78l-104.33 34.74z"/>
  <path class="fil7" d="M3481.12 11059.44c-4.5,66.45 -323.29,111.58 -418.11,88.79 -93.78,87.17 -122.09,80.68 -247.8,88.49 -19.78,-278.8 54.89,-1374.73 -36.25,-1512.53 -73.5,-79.58 -202.05,-19.84 -295.46,5.24 -425.8,114.28 -328.07,-78.44 -328.47,1137.04 -0.3,913.47 -41.47,2500.11 7.11,3268.79 205.38,-58.67 468.65,-137.89 632.15,-225.97l3.71 -1699.87c149.96,-65.28 575.2,-207.57 749.14,-210.67l-5.96 1635.33c166.79,6.25 547.51,-145.74 664.91,-199.91l-4.69 -4016.28c-179.19,-14.81 -499.88,64.46 -637.44,117.99 -4.57,262.02 -1.78,525.51 -1.78,787.72 0,132.85 -1.21,265.77 1.67,398.55 8.39,386.8 -5.96,295.87 -82.73,337.29z"/>
  <path class="fil7" d="M7499.97 9333.21c83.38,75.38 212.92,524.4 284.8,708.62 81.52,208.91 276.48,531.65 251.22,730.1 35.82,47.29 22.98,16.07 47.46,95.77 16.47,53.57 12.99,49.92 17.3,105.59l0.27 1317.35c136.93,22.23 552.23,-101.69 660.34,-154.78 18.27,-349.5 7.32,-735.77 5.22,-1088.54 -4.87,-816.15 748.28,-1967.74 788.34,-2462.74l-687.58 72.55 -302.86 997.45c-93.79,372.33 -44.32,263.92 -124.82,295.2l-368.06 -1192.89 -705.32 96.03c-6.01,176.14 98.23,281.11 133.69,480.29z"/>
  <path class="fil7" d="M12985.6 8886.05c-19.28,119.77 -123.81,204.22 -190.38,436.6 -148.31,517.72 -126.47,1186.35 178.64,1557.05 62.6,-105.53 -127.42,-85.43 134.77,-85.43l18.3 59.34c62.57,103.79 87.97,79.47 129.99,97.01 2.75,1.14 12.1,3.19 14.51,4.46 15.47,8.06 52.15,81.3 199.33,164.56l118.28 -66.65c6.62,-0.38 18.87,1.63 26.01,0.18 77.09,-15.78 126.87,-75.93 125.76,-153.23 -3.42,-239.43 -80.56,-14.62 -270.05,-355.7 -7.35,10.44 -13.52,16.25 -15.85,34.88 -15.11,121.07 27.43,107.21 -56.72,106.39 20.84,-64.68 -2.35,-111.14 -37.36,-158.74 -24.01,-32.63 -125.96,-22.1 37.36,-22.39 -111.94,-436.92 -72.02,-469.73 -72.02,-976.82 25.98,-21.71 88.15,-30.02 106,-36.18 100,-179.66 191.72,-365.18 408.34,-422.13 226.79,-59.61 563.51,-30.48 716.29,57.71l143.74 35.44c70.25,-113.41 129.68,-378.6 144.7,-543.03 -281.25,-138.8 -654.85,-236.61 -1045.3,-178.01 -500.39,75.12 -635.25,358.17 -814.34,444.69z"/>
  <path class="fil8" d="M10906.17 10359.78c-530.92,1639.37 -1993.62,819.9 -1590.64,-617.3 452.36,-1613.37 2019.4,-706.6 1590.64,617.3zm200.85 -1530.95l457.73 -13.39c57.06,712.96 -165.23,1738.42 269.87,1653.93 412.49,-80.11 97.9,-1300.7 252.42,-1642.41 3.05,-6.72 9.37,-18.19 16.04,-25.82l410.67 -26.78c35.77,233.85 31.69,1163.79 0.55,1397.78 -52.79,396.52 -277.12,718.36 -671.65,776.34 -505.48,74.31 -734.7,-235.06 -754.8,-694.95 -11.18,-256.01 -30.51,-1226.82 19.17,-1424.7zm-4352.01 -1326.54l-37.58 155.19c161.1,171.54 1107.74,667.45 1329.52,889.23l33.85 39.7c-128.54,73.67 -667.04,158.47 -871.83,144.1 -175.79,-12.36 -1632.21,-966.65 -1900.81,-1136.54 -15.2,106.85 -17.7,213.36 60.58,292.45 166.84,168.55 103.76,-55.54 206.36,173.6 176.99,124.48 1119.93,754.04 1246.95,779.89 137.91,29.14 440.14,190.24 472.5,325.55 -89.38,87.72 -103.97,77.25 -233.72,100.66 82.8,3.11 267.87,-7.9 271.57,38.01 1.63,20.31 18.99,102.65 21.24,114.5l27.34 -130.79 118.99 45.37c-35.46,-199.18 -139.7,-304.15 -133.69,-480.29l705.32 -96.03 368.06 1192.89c80.5,-31.28 31.03,77.13 124.82,-295.2l302.86 -997.45 687.58 -72.55c-40.06,495 -793.21,1646.59 -788.34,2462.74 2.1,352.77 13.05,739.04 -5.22,1088.54 -108.11,53.09 -523.41,177.01 -660.34,154.78l-0.27 -1317.35c-4.31,-55.67 -0.83,-52.02 -17.3,-105.59 -24.48,-79.7 -11.64,-48.48 -47.46,-95.77 -80.47,304.55 -30.49,932.51 -30.49,1277.94 -101.34,-25.95 -117.69,-51.05 -222.65,32.27l62.15 184.36 -187.38 -26.29c5.13,9.08 14.46,11.31 17.83,25.71 8.07,34.28 193.99,275.32 584.06,160.86 176.65,-51.82 502.8,-113.08 647.44,-185.14l5.77 -1336.57c330.58,15.6 524.53,470.5 1047.09,478 468.26,6.73 780.71,-281.01 941.1,-601.41 417.04,23.91 385.89,629.21 1373.58,149.12 256.93,-124.88 118.82,-160.09 664.51,176.59 778.86,480.54 968.53,292.97 1736.06,194.82 -96.03,-161.23 132.66,12.54 -56.84,-32.02 -116.27,-27.34 -804.22,150.17 -1038.76,49.29 -12.01,-5.17 -19.32,-9.59 -30.22,-15.86 -205.53,-117.96 58.43,84.17 -78.3,-71.99 -223.06,-58.92 -395.03,-210.6 -497.08,-351.91 -305.11,-370.7 -326.95,-1039.33 -178.64,-1557.05 66.57,-232.38 171.1,-316.83 190.38,-436.6l58.2 -151.97c-89.6,-45.43 -0.06,19.51 -58.56,-85.2l-27.55 -49.03c-5.16,-9.24 -11.08,-19.68 -16.01,-28.48l-34.12 -61.05c-59.96,-90.74 -252.39,-186.79 -390.96,-273.76 -134.56,-84.47 -269.76,-181.68 -389.48,-259.65 -181.06,-117.92 -672.84,-487.9 -814.12,-499.62 -71.44,-21.19 -169.65,-77.01 -185.88,-81.12 -91.04,77.73 -91.98,57.29 -81.6,189.56 95.64,108.81 561.12,380.63 706.04,473.37 122.31,78.26 621.35,441.67 726.52,418.9 238.25,73.38 114.53,-18.25 160.03,144.59 -70.11,93.46 49.82,4.37 -77.21,60.54 -61.59,27.23 -68.22,25.17 -136.37,31.43 -372.53,34.21 -498.21,0.77 -763.33,-102.46 -30.02,154.94 5.46,11.9 -68.82,71.46 -249.75,1.14 -565.72,101.07 -770.47,-21.65 -142.61,-85.47 -354.85,-233.5 -525.26,-342.46 -187.35,-119.76 -875.16,-616.29 -1060.07,-655.01l-166.93 -58.96c-75.51,-11.85 -8.1,-24.21 -70.58,3.75l47.38 233.56c196.53,141.84 1246.45,791.96 1313.73,888.37l-218.01 42c-363.35,27.11 -335.03,130.05 -541.5,174.08 19.35,-199.75 146.31,-323.85 137,-535.97 -70.57,8.44 -112.41,16.99 -175.79,31.74 -268.31,12.07 -668.53,133.79 -922.73,22.4l-1224.72 -771.18c-121.89,-74.94 -533.91,-278.21 -543.22,-403.85 -132.65,25.97 -127.69,78.71 -116.2,211.91z"/>
  <path class="fil9" d="M15700.26 10228.96c-15.75,-327.69 -103.08,-416.18 -57.42,-1063.5 102.42,-77.17 207.73,-47.79 342.96,-69.75 -12.03,1047.33 120.24,1083.24 -285.54,1133.25zm-1029.4 -2582.87c73.33,48.79 289.58,74.21 374.49,88.4 504.15,84.2 506.6,151.39 946.63,430.75 170.1,107.99 1022.22,631.73 1110.3,758.78 -333.31,2.14 -647.19,-86.71 -990.48,-121.23 -292.25,-29.39 -467.55,-194.22 -700.87,-347.59 -436.32,-286.79 -873.65,-565.72 -1276.38,-846.95l536.31 37.84zm-7139.62 -417.87c334.72,15.72 281.87,-63.91 554.31,121.96 97.84,66.77 310.96,190.07 390.49,266.21 169.45,26.22 188.42,16.16 296.41,96.18 128.67,95.36 114.75,80.12 274,130.22l-47.38 -233.56c62.48,-27.96 -4.93,-15.6 70.58,-3.75l166.93 58.96c-76.79,-167.91 -64.16,-67.82 -36.82,-141.82 556.37,-199.82 904.23,132.89 1335.49,416.26 170.36,111.96 1028.9,615.22 1057.13,744.68 74.28,-59.56 38.8,83.48 68.82,-71.46 265.12,103.23 390.8,136.67 763.33,102.46 68.15,-6.26 74.78,-4.2 136.37,-31.43 127.03,-56.17 7.1,32.92 77.21,-60.54 -45.5,-162.84 78.22,-71.21 -160.03,-144.59 18.06,38.79 39.48,105.33 55.51,145.66 -230.6,51.26 -597.63,74.87 -807.87,-67.93 -257.69,-175.05 -1557.1,-974.06 -1618.18,-1086.25 170.61,-49.22 558.87,-71.83 731.17,23.46 127.52,70.54 54.34,47.2 206.81,92.79 -10.38,-132.27 -9.44,-111.83 81.6,-189.56 16.23,4.11 114.44,59.93 185.88,81.12l-14.51 -155.07c377.53,-188.17 618.99,-293.88 1145.61,-207.36 277.75,45.63 773.7,231.75 918.25,418.38 430.45,54.99 335.36,-74.6 717.8,187.03 156.06,106.74 308.61,191.17 508.23,326.22 291.92,197.52 838.93,488.93 1010.39,693.8l-571.61 -39.39c-62.3,-129.01 55.73,-318.03 -613.7,-376.57 -425.55,-37.22 -484.84,-30.89 -906.31,33.66 -110.6,72.77 -288.08,154.29 -401.76,232.73l-197.83 -80.4 34.12 61.05c4.93,8.8 10.85,19.24 16.01,28.48l27.55 49.03c58.5,104.71 -31.04,39.77 58.56,85.2l-58.2 151.97c179.09,-86.52 313.95,-369.57 814.34,-444.69 390.45,-58.6 764.05,39.21 1045.3,178.01 -15.02,164.43 -74.45,429.62 -144.7,543.03l-143.74 -35.44c96.21,188.04 12.23,70.03 361.77,75.07l108.01 361.37c-243.27,-15.85 -971.87,-54.57 -1139.56,14.46 -59.34,175.72 -49.43,460.21 -17.92,631.42 32.1,14.74 21.34,16.86 105.85,33.65l293.1 -7.35c-87.23,-86.31 28.56,-33.43 -144.59,-58.11 -29.72,-4.23 -126.26,0.2 -177.08,-4.28l-9.41 -561.43c188.99,-16.5 918.11,-85.65 966.09,75.2 41.18,138.05 19.64,483.78 19.57,636.64 -0.13,230.37 19.6,529.56 -13.94,750.21 -592.19,188.48 -753.69,232.47 -1437.75,157.8 136.73,156.16 -127.23,-45.97 78.3,71.99 10.9,6.27 18.21,10.69 30.22,15.86 234.54,100.88 922.49,-76.63 1038.76,-49.29 189.5,44.56 -39.19,-129.21 56.84,32.02 137.38,-28.79 311.67,-97.5 407.82,-160.81l12.17 -498.84c234.18,18.44 183.99,146.8 408.18,134.06 195.99,-23.17 431.11,77.33 646.15,-28.77 -65.63,54.9 -21,26.45 -56.13,-59.63 -513.8,77.17 -824.23,-60.92 -947.77,-436.34 -59.6,-181.12 -65.96,-1192.99 -26.49,-1393.75l334.9 23.86c243.49,53.67 71.17,653.02 116.65,1114 27.76,281.41 118.86,228.86 129.72,232.99 36.25,64.16 -24.61,28.58 73.07,69.83 407.51,172.1 266.19,-908.01 283.62,-1334.3 132.82,-22.06 331.75,15.89 461.59,56.27l-17.83 1230.27c122.31,-120.98 85.29,-261.57 84.6,-469.24 -0.61,-181.64 0.87,-362.56 2.74,-543.94 70.65,-68.31 -111.96,-95.12 126.33,-39.52l-41.28 -141.44c98.7,-37.76 390.82,37.66 525.57,55.99 -121.42,-122.94 130.95,-53.56 -101.39,-93.17 268.89,-65.99 31.27,-87.88 303.06,-82.86l-1287.07 -857.6c-27.52,-16.91 -70.16,-42.49 -87.97,-59.24 -88.39,-83.13 -22.58,3.75 -72.86,-113.17l551.9 84.47c-37.42,-42.47 -1.89,-22.25 -55.45,-60.99 -100.12,-72.42 -677.64,-144.82 -806.45,-150.3 -186.11,-7.93 -579.64,-202.59 -971.58,-133.93l-203.61 -84.98c-323.81,-56.77 -995.51,-58 -1234.52,-218.6 -517.65,-347.8 -1257.48,-443.01 -1854.32,-156.2 -142.69,68.58 -228.66,192.15 -368.91,264.56 -1.07,0.2 -546.53,-120.39 -966.55,-46.59 -266.05,46.75 -682.54,9.39 -1007.26,43.04 -59.36,115.94 -33.94,144.66 -89.31,243.67l-686.9 -333.24c-38.98,-24.71 -277.54,-175.86 -316.68,-189.73 -112.06,-39.69 -361.86,-50.02 -411.56,60.2z"/>
  <path class="fil10" d="M1310.47 9402.21c79.89,109.88 25.53,14.46 179.01,126.58l60.57 45.79c148.56,86.65 132.92,28.41 466.37,282.28 39.76,1389.79 -76.39,1129.29 -326.36,1184.7 -5.4,1.18 -15.42,4.67 -20.62,5.98l-189.06 -5.27c133.63,-34.38 114.24,-9.12 108.15,-164 -38.08,80.25 -11.5,63.74 -101.97,94.78 -18.23,6.25 -150.68,27.07 -184.49,34.28 -182.54,38.89 -216.96,8.94 -287.87,142.47l-67.83 -175.08 -216.24 46.08 -57.98 -101.78c-58.53,-81.21 56.39,-4.55 -50.61,-48.56l-36.2 178.51c-64.04,-84.05 -67.75,-201.38 -108.59,-281.25 -137.13,53.62 23.34,82.28 -108.57,216.89l-74.93 -126.47c-31.05,-59.31 -39.22,-71.39 -62.51,-110.46 -160.93,-269.94 -55.46,-622 -111,-894.75 24.21,-232.09 -49.82,-1002.14 -5.99,-1141.3 168.74,-18.74 309.29,183.06 623.61,350.25l72.3 35.55c36.96,17.03 30.69,9.31 71.17,30.35l129.91 87.26c31.57,22.94 120.77,93.22 141.72,107.43l46.89 29.86c7.9,4.49 18.7,9.77 26.11,13.68 18.55,9.75 62.29,24.77 85.01,36.2zm-957.53 3863.86c-51.71,-39.86 -201.56,-141.38 -259.45,-167.57l16.56 -1900.91c100.02,282.91 -35.44,733.41 137.63,877.01l1310.27 17.34c127.83,55.33 12.17,56.15 149.45,107.94 109.4,-175.62 -34.77,-125.48 250.77,-138.76 11.67,-357.46 82.71,-258.4 91.7,-1122.26l0.36 -1073.39c-0.99,-12.56 -4.2,-47.38 -3.49,-58.67 6.9,-108.01 -38.91,10.96 22.59,-83.4l6.4 3857.44c-0.15,98.64 -4.9,194.58 -6.51,291.12 -4.22,253.95 41.37,231.57 92.92,263.3 -48.58,-768.68 -7.41,-2355.32 -7.11,-3268.79 0.4,-1215.48 -97.33,-1022.76 328.47,-1137.04 93.41,-25.08 221.96,-84.82 295.46,-5.24 91.14,137.8 16.47,1233.73 36.25,1512.53 125.71,-7.81 154.02,-1.32 247.8,-88.49l-183.91 7.95c-69.25,-319.21 48.42,-1292.63 -49.23,-1520.23 5.36,-7.3 14.42,-15.69 18.43,-20l114.75 -124.75c-71.19,-129 16.7,-43.33 -113.99,-84.53l26.31 94.82c-105.53,37.89 -720.37,181.83 -838.49,167.89 -108.55,-12.79 -1051.94,-639.9 -1262.09,-763.66 -122.03,-71.86 -221.72,-139.13 -313.33,-195.65 -338.65,-208.95 -228.22,-96.14 -240.59,-232.25 138.1,-66.7 716.33,-159.98 889.98,-144.74 -141.22,-99.04 -345.75,-40.5 -530.1,-2.34 -157.33,32.56 -384.94,53.56 -474.98,140.63 -62.53,121.6 -78.72,4262.43 -19.06,4638.98l266.23 155.72z"/>
  <path class="fil11" d="M7353.64 9418.63c-73.26,128.52 5.72,35.68 -112.38,72.39 -75.54,207.41 -346.64,857.04 -345.59,1046.17 37.25,152.64 41.09,108.77 -14.88,256.9 118.85,44.3 49.8,-50.1 102.38,79.83 -74.18,63.27 37.81,-12.23 -65.19,36.67 -99.72,47.35 24.24,-22.32 -71.09,28.27l0 832.4c-1.94,-2.48 -131.33,10.28 19.83,-21.61 82.93,-17.53 62.8,-12.91 161.15,-14.39l0 141.08c89.02,84.67 514.95,368 629.75,363.87l187.38 26.29 -62.15 -184.36c104.96,-83.32 121.31,-58.22 222.65,-32.27 0,-345.43 -49.98,-973.39 30.49,-1277.94 25.26,-198.45 -169.7,-521.19 -251.22,-730.1 -71.88,-184.22 -201.42,-633.24 -284.8,-708.62l-118.99 -45.37 -27.34 130.79z"/>
  <path class="fil12" d="M1526.6 8142.85c21.47,128.93 -3.5,102.88 112.6,192.28 4.11,3.17 84.25,46.89 96.88,52.31 97.35,41.78 -5.76,9.44 112.48,37.63 -56.29,-127.43 -107.37,-88.44 -218.68,-200.58 95.44,-101.39 543.13,-168.47 663.62,-183.33 240.43,-29.66 401.89,139.75 570.31,256.33 286.36,198.21 258.65,75.04 620.13,10.68 853.61,-151.97 849.89,-265.27 1293.33,31.34 302.5,202.36 1378.88,835.49 1488.63,970.73 -41.26,30.73 6.36,6.09 -72.19,37.81l-1629.42 325.43c-182.37,-6.15 -46.98,-5.93 -205.62,-79.95l-18.24 -382.93c-145.07,-23.9 -136.82,21.05 -308.81,66.99 -744.45,198.86 -589.71,94.69 -877.29,-19.41 4.86,8.86 15.21,9.88 18.38,24.14l339.37 389.83c-27.21,449.89 -30.96,906.28 -30.96,1387.29 76.77,-41.42 91.12,49.51 82.73,-337.29 -2.88,-132.78 -1.67,-265.7 -1.67,-398.55 0,-262.21 -2.79,-525.7 1.78,-787.72 137.56,-53.53 458.25,-132.8 637.44,-117.99l4.69 4016.28c-117.4,54.17 -498.12,206.16 -664.91,199.91 7.43,12.75 16.65,15.14 20.11,39.44l28.52 75.74c3.32,10.29 5.42,23.85 8.25,35.75l737.69 -214.3 28.12 -813.32c103.52,-11.25 171.09,-14.77 250.81,-31.98 204.71,-44.23 179.44,-69.07 208.99,-100.18 -167.91,0.11 -125.75,48.21 -467.1,51.38 -96.7,0.89 10.51,54.67 -78.76,-0.56l-13.45 -3094.56 302.43 137.61c31.53,50.55 23.25,2.05 24.73,114.04 194.37,-69.39 1483.53,-335.17 1676.44,-300.47 106.04,244.72 122.04,530.74 241.68,776.65 87.12,-169.96 195.49,-679.98 249.45,-905.68l483.26 -12.7c8.64,87.36 5.07,-70.3 -1.09,100.08 118.1,-36.71 39.12,56.13 112.38,-72.39 -2.25,-11.85 -19.61,-94.19 -21.24,-114.5 -3.7,-45.91 -188.77,-34.9 -271.57,-38.01 129.75,-23.41 144.34,-12.94 233.72,-100.66 -32.36,-135.31 -334.59,-296.41 -472.5,-325.55 117.41,155.99 218.43,136.14 364.11,289.37 -125.79,109.08 -505.71,190.18 -762.08,22.4 -316.55,-207.16 -1546.94,-933.19 -1630.24,-1071.96 86.85,-45.37 291,-77.28 396.29,-92.56 267.1,-38.72 194.01,1.05 384.97,72.86 -102.6,-229.14 -39.52,-5.05 -206.36,-173.6 -78.28,-79.09 -75.78,-185.6 -60.58,-292.45l18.72 -69.72c256.32,-37 507.67,-86.08 760.49,-103.24 353.83,-24.01 346.4,156.71 630.06,236.47l37.58 -155.19c-273.98,136.09 -252.13,-239.25 -719.16,-152.95 -270.12,49.94 -552.27,75.87 -834.37,134.25 -25.44,219.9 54.37,218.68 65.12,423.96 -777.31,108.08 -440.41,171.46 -694.95,177.78 -76.36,1.91 -105.98,-32.81 -242.73,-16.72l-1211.6 234.43c-153.95,-8.74 -90.93,-19.06 -203.74,-83.79 -531.78,-305.03 -393.86,-336.38 -1386.98,-76.4z"/>
  <path class="fil13" d="M11313 7477.29c141.28,11.72 633.06,381.7 814.12,499.62 119.72,77.97 254.92,175.18 389.48,259.65 138.57,86.97 331,183.02 390.96,273.76l197.83 80.4c113.68,-78.44 291.16,-159.96 401.76,-232.73 6.86,-7.75 18.08,-28.9 22.37,-21.58 4.15,7.09 31.39,-44.35 129.88,-71.4 224.56,-61.68 514.61,-24.94 709.59,-18.79l-739.72 -503.21c-147,-88.97 -165.63,-76.2 -266.92,-209.77 -144.55,-186.63 -640.5,-372.75 -918.25,-418.38 -526.62,-86.52 -768.08,19.19 -1145.61,207.36l14.51 155.07z"/>
  <path class="fil14" d="M119.74 9852.93c55.54,272.75 -49.93,624.81 111,894.75 23.29,39.07 31.46,51.15 62.51,110.46l74.93 126.47c131.91,-134.61 -28.56,-163.27 108.57,-216.89 40.84,79.87 44.55,197.2 108.59,281.25l36.2 -178.51c107,44.01 -7.92,-32.65 50.61,48.56l57.98 101.78 216.24 -46.08 67.83 175.08c70.91,-133.53 105.33,-103.58 287.87,-142.47 33.81,-7.21 166.26,-28.03 184.49,-34.28 90.47,-31.04 63.89,-14.53 101.97,-94.78 6.09,154.88 25.48,129.62 -108.15,164l189.06 5.27c5.2,-1.31 15.22,-4.8 20.62,-5.98 249.97,-55.41 366.12,205.09 326.36,-1184.7 -333.45,-253.87 -317.81,-195.63 -466.37,-282.28l-60.57 -45.79c-153.48,-112.12 -99.12,-16.7 -179.01,-126.58l-15.78 67.01c-1.36,5.87 -4.51,16.05 -5.9,22.45l-27.51 235.77c-146.69,19.08 -273.73,35.44 -410.67,-8.77l-11.24 123.33c-27.67,420.27 -114.2,104.77 -109.42,442.41 -142.11,32.36 -24.81,-42.86 -434,75.19 47.62,-292.75 14.17,-41.98 60,-155.59 30.82,-76.39 29.22,2.76 31.02,-93.89 0.11,-6.02 -48.69,-199.73 -54.81,-220.82 9.44,-8.19 21.32,-18.01 28.77,-24.05l116 -84.52c-202.07,-16.06 -42.82,-4.57 -127.18,24.86 -35.24,12.3 -79.65,47.34 -230.01,47.34zm0 0c150.36,0 194.77,-35.04 230.01,-47.34 84.36,-29.43 -74.89,-40.92 127.18,-24.86l-116 84.52c-7.45,6.04 -19.33,15.86 -28.77,24.05 6.12,21.09 54.92,214.8 54.81,220.82 -1.8,96.65 -0.2,17.5 -31.02,93.89 -45.83,113.61 -12.38,-137.16 -60,155.59 409.19,-118.05 291.89,-42.83 434,-75.19 -4.78,-337.64 81.75,-22.14 109.42,-442.41l11.24 -123.33c136.94,44.21 263.98,27.85 410.67,8.77l27.51 -235.77c1.39,-6.4 4.54,-16.58 5.9,-22.45l15.78 -67.01c-22.72,-11.43 -66.46,-26.45 -85.01,-36.2 -7.41,-3.91 -18.21,-9.19 -26.11,-13.68l-46.89 -29.86c-20.95,-14.21 -110.15,-84.49 -141.72,-107.43l-129.91 -87.26c-40.48,-21.04 -34.21,-13.32 -71.17,-30.35l-72.3 -35.55c-314.32,-167.19 -454.87,-368.99 -623.61,-350.25 -43.83,139.16 30.2,909.21 5.99,1141.3z"/>
  <path class="fil15" d="M12478.08 8478c-105.17,22.77 -604.21,-340.64 -726.52,-418.9 -144.92,-92.74 -610.4,-364.56 -706.04,-473.37 -152.47,-45.59 -79.29,-22.25 -206.81,-92.79 -172.3,-95.29 -560.56,-72.68 -731.17,-23.46 61.08,112.19 1360.49,911.2 1618.18,1086.25 210.24,142.8 577.27,119.19 807.87,67.93 -16.03,-40.33 -37.45,-106.87 -55.51,-145.66z"/>
  <path class="fil16" d="M4747.64 12386.7l579.08 -152.07c12.79,-159.31 -217.94,-167.23 -314.32,-341.84 -58.04,-105.15 -49.05,-156.5 -50.68,-300.75 -0.34,-29.28 -0.43,-122.65 1.78,-148.45l16.77 -108.57c56.94,-265.72 437.95,-130.64 527.77,-251.22l36.16 -326.08c-330.24,0 -42.52,72.39 -542.89,72.39 -64.88,-132.13 -0.22,-139.81 -157.37,-163.42 127.38,-104.64 94.71,-157.33 -96.17,-143.13l-0.13 1863.14z"/>
  <path class="fil17" d="M13507.15 8357.99c421.47,-64.55 480.76,-70.88 906.31,-33.66 669.43,58.54 551.4,247.56 613.7,376.57l571.61 39.39c-171.46,-204.87 -718.47,-496.28 -1010.39,-693.8 -199.62,-135.05 -352.17,-219.48 -508.23,-326.22 -382.44,-261.63 -287.35,-132.04 -717.8,-187.03 101.29,133.57 119.92,120.8 266.92,209.77l739.72 503.21c-194.98,-6.15 -485.03,-42.89 -709.59,18.79 -98.49,27.05 -125.73,78.49 -129.88,71.4 -4.29,-7.32 -15.51,13.83 -22.37,21.58z"/>
  <path class="fil18" d="M9561.88 8443.01c63.38,-14.75 105.22,-23.3 175.79,-31.74 9.31,212.12 -117.65,336.22 -137,535.97 206.47,-44.03 178.15,-146.97 541.5,-174.08l218.01 -42c-67.28,-96.41 -1117.2,-746.53 -1313.73,-888.37 -159.25,-50.1 -145.33,-34.86 -274,-130.22 -107.99,-80.02 -126.96,-69.96 -296.41,-96.18l581.54 427.36c133.72,84.93 472.12,284.38 504.3,399.26z"/>
  <path class="fil19" d="M15700.26 10228.96c405.78,-50.01 273.51,-85.92 285.54,-1133.25 -135.23,21.96 -240.54,-7.42 -342.96,69.75 -45.66,647.32 41.67,735.81 57.42,1063.5z"/>
  <path class="fil20" d="M19827.21 11141.71c78.22,-118.89 77.68,-72.64 60.5,-239.05 -123.97,-121.55 -189.42,-193.83 -425.63,-95.2 -38.54,260.21 115.73,370.36 365.13,334.25z"/>
 </g>
</svg>
