<?xml version="1.0" encoding="UTF-8"?>
<!DOCTYPE svg PUBLIC "-//W3C//DTD SVG 1.1//EN" "http://www.w3.org/Graphics/SVG/1.1/DTD/svg11.dtd">
<!-- Creator: CorelDRAW 2017 -->
<svg xmlns="http://www.w3.org/2000/svg" xml:space="preserve" width="200mm" height="200mm" version="1.1" style="shape-rendering:geometricPrecision; text-rendering:geometricPrecision; image-rendering:optimizeQuality; fill-rule:evenodd; clip-rule:evenodd"
viewBox="0 0 20000 20000"
 xmlns:xlink="http://www.w3.org/1999/xlink">
 <defs>
  <style type="text/css">
   <![CDATA[
    .fil0 {fill:none}
    .fil1 {fill:#221E1F}
   ]]>
  </style>
 </defs>
 <g id="Capa_x0020_1">
  <metadata id="CorelCorpID_0Corel-Layer"/>
  <rect class="fil0" width="20000" height="20000"/>
  <g id="_2350541955440">
   <g>
    <path class="fil1" d="M12330.52 1804.51l0 2349.63c0,344.36 16.76,623.37 20.45,960.29 2.27,207.81 -38.06,104.46 -357.76,130.92 -355.09,29.38 -906.39,17.81 -1279.02,17.81 0,155.56 18.8,235.58 18.8,394.73l0 2293.24 1616.32 18.79 0 9285.72c0,198.39 48.16,410.5 80.3,596.38 54.52,315.27 174.78,788.43 336.58,1054.36 295.37,485.47 620.36,715.46 1183.05,903.26 391.77,130.76 783.16,176.36 1183.04,190.36l1088.7 0c353.18,0 641.75,-56.39 1052.5,-56.39l0 -2857.14c-249.71,0 -1088.93,-20.76 -1307.81,-64.2 -468.69,-93.04 -553.41,-385.04 -552.86,-838.05 1.13,-921.03 0.01,-1842.13 0.01,-2763.17 0,-474.26 -18.8,-888.22 -18.8,-1353.38l-0.24 -2406.26c-0.81,-140.12 20.09,-197.73 19.29,-337.85 -1.75,-304.89 -33.35,-1149.64 18.54,-1372.43l1841.87 0c0,-131.29 18.79,-183.43 18.79,-319.55l0 -2048.87c0,-136.13 -18.79,-188.26 -18.79,-319.55 -58.79,-4.89 -66.77,-18.8 -131.57,-18.8l-1729.09 0 18.92 -2894.86c0.73,-143.12 -19.91,-204.3 -19.36,-337.78 0.87,-213.64 35.78,-525.11 -37.15,-677.13 -229.22,0 -389.02,-18.8 -620.22,-18.8 -521.04,0 -1795.53,-28.83 -2312.89,17.63 -123.4,11.08 -86.5,69.53 -94.39,187.55 -6.11,91.34 -17.21,163.5 -17.21,283.54z"/>
    <path class="fil1" d="M6861.32 9417.29c59.97,16.02 150.69,80.91 205.69,113.83l646.15 370.86c178.08,87.16 527.86,-397.62 820.87,-465.89l351.67 773.93c6.65,92.23 -118.63,138.82 -186.2,181.04 -154.83,96.73 -292.58,202.44 -439.35,312.47 -550.2,412.47 -365.6,382.54 -1146.29,-91.44 -72.2,-43.84 -151.65,-102.32 -252.54,-104.57l-19.24 1748.56c-0.51,124.63 19.73,162.06 19.88,280.87 0.46,355.83 -46.58,298.45 305.7,596.52l1455.68 1288.48c82.8,83.56 248.93,230.59 305.37,314.89 -94.13,140.6 -251.44,286.75 -319.5,375.94l-1423.83 1527.11c-28.45,32.31 -53.19,53.75 -84.44,84.72 -68.84,68.23 -104.26,120.47 -170.11,187.02 -47.29,47.79 -47.57,32.18 -52.15,117.02 -7.63,141.37 15.63,374.1 -1.31,524.99 -33.8,301.08 -16.05,1922.73 -16.05,2295.98l3082.3 0c0,-109.67 -19.77,-155.65 -19.05,-281.7 17.02,-2974.55 -11.49,-5970.61 0.69,-8948.06 0.52,-127.99 -19.93,-171.7 -19.69,-299.89 0.38,-214.35 19.25,-389.24 19.25,-620.72l0 -1672.93c0,-485.37 -18.79,-920.05 -18.79,-1390.98l37.59 -1372.18 -3082.3 0 0 4154.13z"/>
    <path class="fil1" d="M4737.54 6146.62c-297.86,0 -498.91,-22.51 -762.83,-214.52 -454.77,-330.87 -797.12,-969.9 -797.12,-1571.2 0,-551.36 108.45,-989.16 391.74,-1375.13 221.64,-301.98 580.33,-598.55 999.06,-598.55 323.5,0 501.74,14.73 800.93,214 419.76,279.57 707.1,786.82 773.12,1294.45 26.59,204.44 20.57,565.69 -11.15,750.15 -21.27,123.72 -43.86,234.28 -75.53,337.99 -57.52,188.31 -176.51,402.31 -281.58,545.45 -122.51,166.92 -243.13,293.48 -419.87,407.14 -120.57,77.54 -429.44,210.22 -616.77,210.22zm-2029.81 -2067.67l0 319.55c0,589.5 257.75,1212.29 512.58,1555.02 219.71,295.51 509.64,545.25 861.75,679.49l411.15 115.11 18.79 1165.41c0,426.07 0,852.13 0,1278.2l-18.79 1917.29c0,382.06 -62.63,514.95 192.27,766.36l170.45 149.07c37.78,31.96 44.94,30.8 83.61,66.76 41.93,38.98 42.8,41.21 90.78,78.38l858.75 757.67c310.04,299.44 957.26,865.04 1277.51,1147.13l582.61 545.13c75.33,76.14 113.55,77.19 164.62,173.71 -37.93,56.65 -47.43,75.88 -98.56,126.99l-347.83 385.21c-339.89,334.91 -637.4,716.82 -989.36,1040.59l-392.4 453.41c-47,48.81 -55.6,74.1 -102.61,122.94 -44.04,45.76 -77.6,76.87 -122.54,121.8l-1390.75 1503.8c-75.6,74.93 -184.84,167.12 -239.67,249.02 111.6,210.95 556.69,871.8 770.57,1015.04 121.68,-105.77 228.3,-220.92 319.51,-357.14 -53.04,-227.68 -342.05,-404.34 -394.69,-601.51l163.53 -193.59c29.15,-34.48 26.48,-38.98 57.45,-74.12l469.7 -507.68c89.81,-89.23 147.25,-166.9 234.91,-253.78 45.29,-44.89 77.95,-76.67 122.58,-121.77 50.79,-51.35 62.88,-81.28 112.01,-132.33l479.92 -497.47c52.7,-52.44 65.13,-81.13 112.26,-132.09 44.63,-48.26 84.61,-84.17 131.79,-131.34l712.29 -753.78c149.83,-187.84 318.95,-339.12 481.4,-514.78 137.28,-148.44 681.06,-733.92 681.06,-803.81 0,-56.17 -95.29,-122.77 -131.55,-150.38 -160.79,-122.38 -562.08,-531.77 -751.79,-676.69 -105.73,-80.76 -199.77,-184.58 -311.57,-271.09 -261.05,-201.99 -508.37,-455.8 -755.16,-673.31l-159.63 -141.11c-99.44,-100.03 -181.3,-204.3 -299.63,-283.03 -118.04,-78.53 -196.44,-169.8 -307.94,-255.93l-904.99 -824.22c-133.37,-110.7 -99.05,-238.81 -99.05,-464.84l0 -1748.12c211.4,17.59 1360.46,690.93 1661.32,894.85l703.11 405.82c73.21,47.26 394.78,246.61 478.74,250.55 78.66,3.7 259.71,-153.8 325.36,-205.58 177.14,-139.76 300.28,-180.66 442.04,-309.78 54.56,-49.7 23.47,-56.88 110.74,-77.21 0,-74.76 -136.5,-507.52 -206.74,-507.52 -176.66,0 -503.74,316.57 -676.6,432.33 -92.29,-44.29 -170.8,-58.42 -259.75,-116.16 -158.19,-102.7 -314.36,-217.25 -485.49,-303.92l-752 -413.31c-91.65,-46.49 -169.65,-95.96 -251.49,-143.21 -85.96,-49.61 -164.25,-87.03 -254.28,-140.43l-743.28 -422.03c-105.73,-61.13 -92.86,-148.51 -91.93,-302.8 3.13,-519.79 0.25,-1040.5 0.25,-1560.4 172.25,-40.13 548.39,-210.05 676.56,-300.79 159.92,-113.22 251.88,-213.9 380.67,-352.36 50.63,-54.42 73.62,-81.36 118.93,-144.21 249.5,-346.08 496.55,-911.54 496.55,-1495.87 0,-465.98 -33.15,-763.69 -171.53,-1181.83 -226.2,-683.54 -759.13,-1323.62 -1500.72,-1450.21 -79.03,-13.49 -164.18,-16.27 -253.1,-29.7 -274.97,-41.53 -785.95,153.42 -1003.97,314.73 -27.92,20.66 -51.85,34.83 -78.01,53.56 -132.26,94.71 -247.87,216.84 -349.22,346.23 -281.59,359.52 -571.5,959.41 -571.5,1590.08z"/>
    <path class="fil1" d="M6842.52 3477.44c0,78.02 179.78,75.19 300.71,75.19l2424.5 0c147.51,0 213.71,-18.8 357.09,-18.8l0 -3533.83 -3082.3 0 0 3477.44z"/>
    <path class="fil1" d="M2801.7 12387.22c0,210.12 54.84,379.77 110.23,547.66 94.04,285.09 279.02,571.97 541.36,717.96 151.74,84.43 328.39,140.28 442.78,-20.78 45.31,-63.79 57.57,-146.86 31.25,-226.42 -26.23,-79.32 -83.38,-123.22 -151.93,-168.93 -124.16,-82.82 -244.48,-189.3 -332.2,-306.86 -321.57,-430.95 -205.65,-786.99 -491.13,-786.99 -2.87,0 -150.36,78.36 -150.36,244.36z"/>
    <path class="fil1" d="M4117.32 13214.29c324.99,0 249.76,-387.05 120.13,-458.5 -65.25,-35.96 -130.83,-45.08 -202.35,-79.57 -124.29,-59.94 -214.67,-172.18 -275.24,-288.64 -71.21,-136.91 -102.16,-253.46 -131.19,-432.7 -79.16,-488.65 -334.58,-370.47 -390.53,-164.98 -30.27,111.22 -16.39,185.37 -4.3,296.68 43.48,400.1 195.34,634.05 446.42,888.13 89.1,90.16 271.32,239.58 437.06,239.58z"/>
    <path class="fil1" d="M6861.32 15676.69c94.58,-50.05 144.78,-116.6 220.83,-192.67 69.03,-69.03 156.6,-145.8 214.24,-218.06 455.46,-571.01 558.74,-350.39 -101.16,-938.26 -81.92,-72.97 -242,-227.34 -333.91,-248.75l0 1597.74z"/>
   </g>
  </g>
 </g>
</svg>
