<?xml version="1.0" encoding="UTF-8"?>
<!DOCTYPE svg PUBLIC "-//W3C//DTD SVG 1.1//EN" "http://www.w3.org/Graphics/SVG/1.1/DTD/svg11.dtd">
<!-- Creator: CorelDRAW 2017 -->
<svg xmlns="http://www.w3.org/2000/svg" xml:space="preserve" width="200mm" height="200mm" version="1.1" style="shape-rendering:geometricPrecision; text-rendering:geometricPrecision; image-rendering:optimizeQuality; fill-rule:evenodd; clip-rule:evenodd"
viewBox="0 0 20000 20000"
 xmlns:xlink="http://www.w3.org/1999/xlink">
 <defs>
  <style type="text/css">
   <![CDATA[
    .fil0 {fill:#FEFEFE}
    .fil3 {fill:#F9FCFE}
    .fil2 {fill:#C23538}
    .fil1 {fill:#2E3D5A}
   ]]>
  </style>
 </defs>
 <g id="Capa_x0020_1">
  <metadata id="CorelCorpID_0Corel-Layer"/>
  <path class="fil0" d="M1305.2 5070.2l17389.6 0c529.08,0 987.21,319.07 1191.6,774.27 -204.72,-449.23 -687.56,-766 -1284.02,-766.44l-3342.49 -1.19c-76.95,-0.71 -150.9,-7.64 -212.16,23.09 -25.43,78.67 171.44,198.42 29.62,417.7 -175.84,271.9 -411.35,-10.54 -429.11,270.5l1.68 1412.8c0,359.71 -24.27,345.24 135.78,588.79l2518.8 4167.54c73.76,82.36 73.48,136.14 130.49,237.34 27.31,48.47 43.42,59.82 73.43,104.97l336.08 599.65c109.22,200.21 166.39,235.44 220.25,509.03 71.93,365.43 94.2,872.53 -199.73,1177.63 -219.65,227.97 -181.97,165.55 -377.95,260.56l-70.84 50.19c120.12,53.1 838.68,26.38 1049.73,25.94 421.87,-0.86 773.07,-80.18 1036.91,-274.91 -222.65,176.45 -503.61,282.14 -808.07,282.14l-17389.6 0c-717.86,0 -1305.2,-587.34 -1305.2,-1305.2l0 -7249.2c0,-77.41 6.85,-153.31 19.95,-227.11 -29.15,199.43 -17.75,427.96 -17.69,734.07l-0.05 6644.33c-1.19,587.7 203.43,940.84 680.93,1232.11 159.26,97.14 189.72,69.42 371.51,116.68 174.45,45.36 206.38,47.58 427.27,47.26l7547.24 -5.79c44.16,-11.28 33.17,-7.85 59.65,-24.99 -31.97,-32.93 1.92,-8.76 -59.95,-46.14 -72.1,-43.57 -90.31,-27.07 -198.26,-117.9 -248.07,-208.68 -394.05,-503.03 -398.3,-859.51 -5.37,-450.24 50.45,-654 266.31,-993.67 792.84,-1358.53 1566.71,-2706 2403.37,-4031.98l506.03 -813.1c344.29,-512.12 269.35,-384.09 269.4,-1056.28l-7.82 -1245.97c-48.51,-149.46 -269.85,20.11 -417.77,-218.31 -131.98,-212.73 45.79,-289.78 58.46,-424.91 -303.73,-27.22 -3407.12,-5.97 -3798.6,-5.97l-5684.08 0.05c-703.86,-0.02 -1156.65,-55.02 -1579.03,337.5 -136.5,126.86 -231.79,240.9 -298.25,353.58 219.23,-414.78 655.42,-699.15 1154.88,-699.15zm9392.73 5687.08c-41.28,70.71 -53.1,116.56 -94.84,180.84 -37.71,58.09 -70.09,104.62 -118.43,174 -79.87,114.67 -131.23,222.18 -204.09,344.44 -56.12,94.19 -191.23,255.29 -179.05,381.36l6313.94 1.79c12.46,-137.16 -99.74,-234.77 -147.36,-322.45 -211.3,-389.11 -564.13,-894.45 -746.67,-1233.18 -54.9,-101.88 -131.67,-205.3 -194.56,-303.97 -129.77,-203.55 -245.22,-407.36 -375.41,-627.31 -37.56,-63.47 -54.58,-77.25 -93.35,-133.17 -33.45,-48.24 -57.47,-97.55 -95.6,-154.46l-190.33 -307.52c-96.32,-155.93 -219.9,-318.79 -282.97,-466.62 -35.5,-83.16 -48.91,-95.26 -91.91,-163.84 -232.12,-370.06 -97.8,-331.69 -642.4,-332.3 -304.81,-0.33 -702.14,-22.22 -995.87,4.55 -39.81,20.17 -642.28,1025.73 -672.59,1080.7 -363.81,579.73 -809.8,1335.88 -1188.51,1877.14zm3002.89 -1334.19l0 0zm-1985.28 960c13.77,15.27 256.88,201.64 254.6,-110.05 -0.54,-74.46 -2.27,-114.03 -20.93,-165.76 -214.41,-60.12 -344.84,105.54 -233.67,275.81zm1397.65 -1053.78c-112.89,37.12 -210.03,50.48 -297.59,204.41 -279.95,492.24 196.62,892.17 589.74,774.71 662.69,-197.99 391.42,-1203.94 -292.15,-979.12zm-772.62 872.06c-112.89,37.13 -210.03,50.49 -297.59,204.41 -279.95,492.25 196.62,892.17 589.74,774.72 662.69,-198 391.42,-1203.95 -292.15,-979.13zm1521.42 261.41c-112.88,37.12 -210.03,50.48 -297.59,204.41 -279.95,492.24 196.62,892.17 589.75,774.71 662.69,-197.99 391.41,-1203.94 -292.16,-979.12zm6078.21 -4477.06c38.82,123.19 59.8,254.1 59.8,389.68l0 7249.2c0,236.2 -63.6,458.26 -174.5,649.92 42.21,-76.65 78.84,-161.12 109.61,-253.95 72.27,-218.02 57.55,-489.63 57.41,-744.17 -0.4,-777.11 22.39,-6842.67 -9.7,-7093.77 -8.61,-67.39 -22.96,-133.18 -42.62,-196.91z"/>
  <path class="fil1" d="M11101.98 8842.76l506.03 -813.1c344.29,-512.12 269.35,-384.09 269.4,-1056.28l-7.82 -1245.97c-48.51,-149.46 -269.85,20.11 -417.77,-218.31 -131.98,-212.73 45.79,-289.78 58.46,-424.91 -303.73,-27.22 -3407.12,-5.97 -3798.6,-5.97l-5684.08 0.05c-703.86,-0.02 -1156.65,-55.02 -1579.03,337.5 -506.16,470.4 -446.45,764.53 -446.31,1466.59l-0.05 6644.33c-1.19,587.7 203.43,940.84 680.93,1232.11 159.26,97.14 189.72,69.42 371.51,116.68 174.45,45.36 206.38,47.58 427.27,47.26l7547.24 -5.79c44.16,-11.28 33.17,-7.85 59.65,-24.99 -31.97,-32.93 1.92,-8.76 -59.95,-46.14 -72.1,-43.57 -90.31,-27.07 -198.26,-117.9 -248.07,-208.68 -394.05,-503.03 -398.3,-859.51 -5.37,-450.24 50.45,-654 266.31,-993.67 792.84,-1358.53 1566.71,-2706 2403.37,-4031.98z"/>
  <path class="fil2" d="M15047.73 5099.93c-25.43,78.67 171.44,198.42 29.62,417.7 -175.84,271.9 -411.35,-10.54 -429.11,270.5l1.68 1412.8c0,359.71 -24.27,345.24 135.78,588.79l2518.8 4167.54c73.76,82.36 73.48,136.14 130.49,237.34 27.31,48.47 43.42,59.82 73.43,104.97l336.08 599.65c109.22,200.21 166.39,235.44 220.25,509.03 71.93,365.43 94.2,872.53 -199.73,1177.63 -219.65,227.97 -181.97,165.55 -377.95,260.56l-70.84 50.19c120.12,53.1 838.68,26.38 1049.73,25.94 730.48,-1.49 1249.08,-238.17 1469.15,-902 72.27,-218.02 57.55,-489.63 57.41,-744.17 -0.4,-777.11 22.39,-6842.67 -9.7,-7093.77 -79.23,-620.09 -643.05,-1104.05 -1380.44,-1104.6l-3342.49 -1.19c-76.95,-0.71 -150.9,-7.64 -212.16,23.09z"/>
  <path class="fil2" d="M10697.93 10757.28c-41.28,70.71 -53.1,116.56 -94.84,180.84 -37.71,58.09 -70.09,104.62 -118.43,174 -79.87,114.67 -131.23,222.18 -204.09,344.44 -56.12,94.19 -191.23,255.29 -179.05,381.36l6313.94 1.79c12.46,-137.16 -99.74,-234.77 -147.36,-322.45 -211.3,-389.11 -564.13,-894.45 -746.67,-1233.18 -54.9,-101.88 -131.67,-205.3 -194.56,-303.97 -129.77,-203.55 -245.22,-407.36 -375.41,-627.31 -37.56,-63.47 -54.58,-77.25 -93.35,-133.17 -33.45,-48.24 -57.47,-97.55 -95.6,-154.46l-190.33 -307.52c-96.32,-155.93 -219.9,-318.79 -282.97,-466.62 -35.5,-83.16 -48.91,-95.26 -91.91,-163.84 -232.12,-370.06 -97.8,-331.69 -642.4,-332.3 -304.81,-0.33 -702.14,-22.22 -995.87,4.55 -39.81,20.17 -642.28,1025.73 -672.59,1080.7 -363.81,579.73 -809.8,1335.88 -1188.51,1877.14zm3002.89 -1334.19l0 0zm-1985.28 960c13.77,15.27 256.88,201.64 254.6,-110.05 -0.54,-74.46 -2.27,-114.03 -20.93,-165.76 -214.41,-60.12 -344.84,105.54 -233.67,275.81zm1397.65 -1053.78c-112.89,37.12 -210.03,50.48 -297.59,204.41 -279.95,492.24 196.62,892.17 589.74,774.71 662.69,-197.99 391.42,-1203.94 -292.15,-979.12zm-772.62 872.06c-112.89,37.13 -210.03,50.49 -297.59,204.41 -279.95,492.25 196.62,892.17 589.74,774.72 662.69,-198 391.42,-1203.95 -292.15,-979.13zm1521.42 261.41c-112.88,37.12 -210.03,50.48 -297.59,204.41 -279.95,492.24 196.62,892.17 589.75,774.71 662.69,-197.99 391.41,-1203.94 -292.16,-979.12z"/>
  <line class="fil3" x1="13700.82" y1="9423.09" x2="13700.82" y2= "9423.09" />
 </g>
</svg>
