<?xml version="1.0" encoding="UTF-8"?>
<!DOCTYPE svg PUBLIC "-//W3C//DTD SVG 1.1//EN" "http://www.w3.org/Graphics/SVG/1.1/DTD/svg11.dtd">
<!-- Creator: CorelDRAW (Versión de evaluación) -->
<svg xmlns="http://www.w3.org/2000/svg" xml:space="preserve" width="200mm" height="200mm" version="1.1" style="shape-rendering:geometricPrecision; text-rendering:geometricPrecision; image-rendering:optimizeQuality; fill-rule:evenodd; clip-rule:evenodd"
viewBox="0 0 20000 20000"
 xmlns:xlink="http://www.w3.org/1999/xlink"
 xmlns:xodm="http://www.corel.com/coreldraw/odm/2003">
 <defs>
  <style type="text/css">
   <![CDATA[
    .fil0 {fill:none}
    .fil1 {fill:black}
   ]]>
  </style>
 </defs>
 <g id="Capa_x0020_1">
  <metadata id="CorelCorpID_0Corel-Layer"/>
  <rect class="fil0" x="-7.6" y="7.6" width="20000" height="20000"/>
  <path class="fil1" d="M5150.87 4633.98c0,854.41 -62.38,5835.93 55.36,6271.53 23.63,87.32 48.37,131.79 81.18,193.93 33.31,63.07 82.49,124.97 104.22,170.86 86.71,182.91 34.31,2833.01 34.31,3163.48 0,631.77 -38.66,3934.48 7.8,4256.01 89.31,618.2 662.85,947.29 1235.8,770.01 256.43,-79.32 452.3,-270.03 556.23,-509.72 119.04,-274.55 56.95,-560.82 56.99,-940.19 0.08,-645.7 -65.84,-3978.34 34.39,-4195.04 424.37,284.2 600.14,186.44 1011.67,14.53 265.6,-110.95 1160.58,-548.03 1360.93,-564.68 67.9,128.38 144.29,258.87 225.68,393.25 237.09,391.56 755.92,1258.27 943.83,1665.82 49.63,107.75 4.72,17.38 52.72,72.85l565.78 962.77c-67.78,92.51 -1891.86,1410.19 -2107.27,1571.92 -430.13,322.86 -540.4,368.07 -540.4,869.43 0,352.4 341.64,687.69 687.7,687.69l4642.03 0c681.77,0 971.13,-1011.77 343.58,-1409.5 -235.76,-149.41 -450.11,-138.04 -824.96,-137.84 -641.89,0.36 -1283.73,0 -1925.57,0 426.84,-371.04 1689.97,-823.17 1937.22,-1398.13 315.4,-733.38 -355.03,-1587.22 -768.15,-2349.85 -164.11,-302.97 -331.47,-594.12 -505.18,-904.65 -243.67,-435.56 -729.24,-1473.51 -1095.81,-1723.76 -717.18,-489.55 -1323.93,-19.41 -2068.68,299.72l-972.35 437.48c-123.38,-233.24 -218.94,-628.56 -305.17,-898.31 -65.95,-206.52 -402.8,-1201.77 -416.4,-1371.65 -14.5,-181.66 -0.48,-429.52 -0.48,-618.41 0,-401.18 0,-802.31 0,-1203.48 131.33,35.05 2365.81,1470.66 2620.16,1643.59 656.14,446.22 1230.97,-8.97 1230.97,-474.51 0,-233.81 -34.36,-396.26 -197.58,-558.92l-1673.77 -1077.04c-261.87,-160.34 -1112.54,-613.98 -1194.74,-868.35 -239.13,-739.87 -702.96,-2744.03 -1030.55,-3130.09 -4.59,-5.45 -11.09,-13.25 -15.84,-18.57l-347.56 -271.32c-745.77,-360.07 -1798.09,24.32 -1798.09,1179.14zm1203.48 -2682.05c0,584.82 375.87,1091.21 859.16,1307.11 549,245.3 1195.75,131.46 1641.68,-250.5 598.8,-512.89 601.92,-1581.86 18.24,-2097.11 -1018.48,-899.05 -2519.08,-184.67 -2519.08,1040.5zm1581.74 8046.13c0,311.22 -8.69,417.06 148.24,711.42 380.38,713.72 1337.98,997.85 2141.95,375.3 114.24,-88.46 224.43,-239.13 289.73,-363.61 169.27,-322.74 107.83,-350.97 170.9,-482.4 -405.61,0 -764.41,-326.52 -1136.35,-548.55 -214.51,-128.09 -937.09,-620.96 -1064.33,-654.92 -267.43,179.11 -550.14,519.48 -550.14,962.76z"/>
 </g>
</svg>
