<?xml version="1.0" encoding="UTF-8"?>
<!DOCTYPE svg PUBLIC "-//W3C//DTD SVG 1.1//EN" "http://www.w3.org/Graphics/SVG/1.1/DTD/svg11.dtd">
<!-- Creator: CorelDRAW 2017 -->
<svg xmlns="http://www.w3.org/2000/svg" xml:space="preserve" width="200mm" height="200mm" version="1.1" style="shape-rendering:geometricPrecision; text-rendering:geometricPrecision; image-rendering:optimizeQuality; fill-rule:evenodd; clip-rule:evenodd"
viewBox="0 0 20000 20000"
 xmlns:xlink="http://www.w3.org/1999/xlink">
 <defs>
  <style type="text/css">
   <![CDATA[
    .fil16 {fill:#2579A8}
    .fil17 {fill:#307292}
    .fil7 {fill:#524B4C}
    .fil5 {fill:#6C534C}
    .fil11 {fill:#765539}
    .fil12 {fill:#84664A}
    .fil6 {fill:#8D4F32}
    .fil4 {fill:#AE704C}
    .fil2 {fill:#B7A38C}
    .fil9 {fill:#C8946B}
    .fil1 {fill:#D35A65}
    .fil0 {fill:#D37B83}
    .fil8 {fill:#D4BBB5}
    .fil3 {fill:#E45556}
    .fil10 {fill:#E4B895}
    .fil13 {fill:#F8F6E9}
    .fil14 {fill:#FAC69E}
    .fil15 {fill:#FEFEFD}
   ]]>
  </style>
 </defs>
 <g id="Capa_x0020_1">
  <metadata id="CorelCorpID_0Corel-Layer"/>
  <path class="fil0" d="M9478.48 3092.73l-186.52 18.74c19.79,-178.47 -28.63,-163.62 135.42,-165.35l51.1 146.61zm0 0c8.85,-20.89 19.23,23.47 22.73,-84.1 1.8,-55.2 -7.68,-40.91 -24.93,-86.78 -351.61,-128.77 -214.87,402.7 2.2,170.88z"/>
  <path class="fil1" d="M10842.32 3121.26c163.45,7.18 129.09,-0.47 204.88,-48.03l-19.19 -145.51 -139.91 5.72c-74.6,106.41 -45.59,43.77 -45.78,187.82z"/>
  <path class="fil2" d="M11476.65 3036.28c-75.32,125.5 -103.89,291.54 -160.17,428.96 137.37,-117.7 94.74,-204.48 160.64,-345.57 31.48,-67.36 174.2,-160.06 244.45,-233.04 186.2,-193.46 131.06,-496.17 151.35,-809.54l28.2 42.99c88.2,136.74 36.66,80.14 143.97,136.57 -52.13,-82.47 -94.02,-123.26 -107.28,-235.16 -13.06,-110.44 -0.74,-210.75 -14.4,-329.33l-89.11 -18.67c-132.88,543.34 215.78,1012.85 -357.65,1362.79z"/>
  <path class="fil3" d="M9478.48 3092.73l-51.1 -146.61c-164.05,1.73 -115.63,-13.12 -135.42,165.35l186.52 -18.74z"/>
  <path class="fil4" d="M9813.2 2420.9c143.44,-179.99 -41.03,-203.58 123.74,-389.73 104.36,135.2 69.66,200.31 21.25,406.4 94.7,-67.37 90.64,-317.47 12.72,-432.46 -209.39,21.14 -101.42,177.12 -157.71,415.79z"/>
  <path class="fil5" d="M8288.9 11856.76c346.07,15.08 621.13,46.46 885.64,-165.26 200.04,-160.11 217.72,-305.55 248.56,-625.05 41.74,-432.53 398.32,-795.97 922.8,-726.45 662.12,87.74 630.93,799.14 674.63,990.52 45.05,197.29 206.93,371.73 370.1,452.48 176.67,87.4 623.89,122.16 756.95,25.18 -87.04,-234.41 -384.12,36.63 -717.02,-168.34 -255.03,-157.03 -270.72,-268.86 -300.02,-614.2 -92.82,-1094.46 -1771.94,-1160.35 -1840.62,68.21 -56.47,1010.32 -1056.69,369.22 -1001.02,762.91z"/>
  <path class="fil6" d="M11122.01 2024.91l-132.64 1.79 -25.64 385.77c-89.94,80.31 -214.02,226.41 -382.35,86.2 -144.52,-120.38 -69.05,-318.38 -122.64,-486.47 -131.54,29.06 -117.98,-3.5 -118.9,176.67 -1.18,236.26 50.56,469.96 341.03,501.37 399.91,43.27 473.67,-308.54 441.14,-665.33z"/>
  <path class="fil6" d="M9958.19 2437.57c48.41,-206.09 83.11,-271.2 -21.25,-406.4 -164.77,186.15 19.7,209.74 -123.74,389.73 -105.18,203.59 -436.78,178.78 -453.69,-160.64 -16.06,-322.36 23.61,-191.56 -68.02,-251.34 -78.33,47.12 -63.88,-29.93 -76.28,144.69 -52.29,735.19 726.62,609.14 742.98,283.96z"/>
  <path class="fil6" d="M10536.99 3220.41c-268.06,-6.89 4.96,322.58 -465.77,286.08 -173.3,-67.77 -93.16,-227.3 -236.19,-295.23 -28.35,31.99 -38.74,-53.67 -52.33,101.48 -6.91,78.99 45.8,170.49 93.05,226.22 194.27,229.17 729.62,133.11 661.24,-318.55z"/>
  <path class="fil7" d="M8781.77 956.75c-29.77,-128.7 324.42,-544.14 576.56,-612.02 175.73,-47.3 69.26,-86.03 285.32,-133.1 631.89,-137.68 1249.79,-72.57 1704.84,369.84 185.15,180 320.79,480.02 329.23,757.75 5.54,181.87 66.84,1283.87 -58.22,1416.17l-95.02 53.86c-91.18,-148.05 -32.97,-757.43 -43.77,-992.99 -4.13,-90.22 -3.33,-150.01 -32.61,-220.42 -95.7,-230.1 -17.01,75.33 -225.72,-315.49 -76.1,-142.49 -55.92,-112.11 -130.44,-160.54 -258,64.62 -72.22,193.56 -381.86,266.41 -97.28,195.64 -574.17,260.34 -824.92,168.27 -168,-61.69 -219.65,-98.95 -348.41,-188.79 -138.78,-96.86 -146.43,-206.23 -313.2,-231.84 -187.43,131.78 -102.19,291.56 -347.09,410.98 -61.71,337.14 32.65,1000.93 -56.44,1227.29 -192.85,-20.4 -188.18,-141.19 -183.96,-343.36l0.13 -1020.03c4.59,-99.8 3.83,-158.33 27.54,-257.87 37.37,-156.74 54.14,-142.41 118.04,-194.12zm92.87 -510.46c-75.8,156.23 -123.9,123.06 -291.83,490.63 -121.44,265.83 -115.72,1644.73 -45.6,1799.63l134.91 176.52c37.26,29.67 25.12,15.79 54.17,31.9 111.64,-44.48 96.08,-52.28 189.46,-103.43l39.69 -1262.54c286.19,-127.33 27.2,-186.45 273.71,-222.37 186.52,43.47 672.56,644.74 1453.57,254.78 150.6,-75.2 262.73,-198.1 375.25,-263.63 102.73,98.93 92.6,231.66 227.81,250.46 191.7,29.35 111.95,831.9 115.09,1104.14 2.02,173.72 56.74,145.66 75.78,333.9 573.43,-349.94 224.77,-819.45 357.65,-1362.79 -45.46,-131.78 -54.18,-79.29 -64.17,-227.2 -6.11,-90.49 4.32,-200.38 1.39,-297.65 43.6,-17.93 -3.69,-114.54 -4.42,-215.53 58.16,-26.83 85.49,-21.36 105.85,-31.24 112.51,-54.62 27.46,19.92 80.76,-93.14l-271.66 -28.29 -122.13 -158.33c-129.53,20.39 -47.53,-48.02 -112.65,-137.91l-78.82 -86.39c-26.02,-19.28 -46.48,-27.79 -66,-48.05 -52.38,-54.43 -6.53,-0.1 -50.62,-75.98 -28.03,-3.36 -1228.56,-626.52 -2157.44,18.71 -81.83,56.83 -154.08,137.51 -219.75,153.8z"/>
  <path class="fil8" d="M3602.72 19271.42l-346.98 -25.27 9.88 -9189.28c210.62,56.7 11553.93,18.63 12989.84,17.13 149.5,-0.17 736.39,-69.36 798.57,42.8l-1.15 8658.18c0.95,490.66 -59.04,180.83 -54.04,491.49l-13396.12 4.95zm-337.1 -9214.55c-63.62,41.72 -42.06,-111.88 -57.66,86.08 -12.1,1527.09 -3.29,3060.22 -1.42,4587.91 0.94,770.31 -0.36,1540.66 -0.27,2310.95 0.03,385.17 -0.58,770.34 0.6,1155.49l0.46 850.01c-0.73,106.47 -13.15,193.62 41.76,239.83 59.86,50.35 13745.43,51.23 13811.86,-4.15 31.43,-39.09 22.07,1.9 39.98,-68.43 3.57,-13.99 5.08,-44.29 6.52,-63.06 1.99,-26.18 -1.9,-106.1 -2.02,-138.4 -0.37,-101.94 1.02,-204.02 0.83,-306.04l0.05 -7510.59c-0.05,-334.94 29.59,-839.16 -12.03,-1153.07 -234.64,-62.9 -1378.32,-20.92 -1722.05,-21.62l-11753.82 -1.37c-151.41,0.32 -334.44,-27.42 -352.79,36.46z"/>
  <path class="fil9" d="M6614.23 6620.35c-6.32,7.87 -16.27,16.73 -19.79,22.92 -60.32,105.95 -28.91,83.88 -43.78,253.49l-941.05 -10.95 61.61 -556.61c-106.87,118.67 -127.62,432.28 -82.73,585.21 148.14,54.77 472.26,25.43 645.68,25.63 361.63,0.39 366.18,65.99 380.06,-319.69z"/>
  <path class="fil10" d="M11839.1 1000.91c111.24,-44.55 124.12,-59.85 237.8,-101.16l0 237.06 -239.93 -45.77 2.13 -90.13zm-279.18 -378.8l122.13 158.33 271.66 28.29c-53.3,113.06 31.75,38.52 -80.76,93.14 -20.36,9.88 -47.69,4.41 -105.85,31.24 0.73,100.99 48.02,197.6 4.42,215.53l172.61 23.05c-17.89,283.92 -105.96,-76.3 -100.39,338.93l195.18 59.66c19.76,221.67 -16.82,403.23 62,556.96 149.55,-0.2 188.65,-27.03 196.79,-172.45 23.93,-427.62 -103.75,-418.65 390.84,-415.53 124.39,0.79 249.23,-0.5 373.68,-0.5 273.04,-0.01 542.81,-6.93 815.12,10.9 -55.09,-70.68 59.04,-65.43 -167.14,-74.75 -300.37,-12.41 -1243.5,-15.3 -1429.3,35.78 -8.35,-9.01 -19.76,-35.53 -23.99,-27.93l-145.69 -141.83 33.8 -169.97c-8.84,-10.78 -21.67,-38.94 -25.73,-32.7 -3.75,5.79 -17.57,-21.9 -22.14,-31.5l-42.14 -142.49c-11.73,-72.58 -8.53,-103.99 -11.92,-172.27 -153.88,-90.83 -127.07,-62.62 -305.72,-62.62 -55.34,-84.12 -23.62,30.94 -77.67,-124.55 339.96,-15.83 1560.96,-45.84 1830.42,15.48 93.64,21.31 204.7,89.52 305.4,111.44 345.26,75.15 581.9,-106.19 823.37,77.77 334.97,255.22 172.91,16.38 277.91,191.39l101.32 0c-41.11,-54.85 -17.18,-31.92 -60.88,-73.13 -315.44,-297.46 -1021.48,-378.16 -1433.41,-385.83 -466.59,-8.67 -1541.59,-62.35 -1948.86,7.12l4.94 73.04z"/>
  <path class="fil10" d="M10842.32 3121.26c0.19,-144.05 -28.82,-81.41 45.78,-187.82l139.91 -5.72 19.19 145.51c-75.79,47.56 -41.43,55.21 -204.88,48.03zm0 0c73.15,68.6 11.78,36.45 147.71,57.86l116.07 -104.98c1.93,-109.5 -46.15,-180.45 -150.77,-192.13 -100.38,-11.21 -175.31,51.79 -161.6,156.9 10.76,82.64 24.03,56.29 48.59,82.35z"/>
  <path class="fil11" d="M6739.24 6916.9c-53.71,-615.98 529.76,-1270.43 1093.85,-1166.22l2.08 552 0.17 237.92 -9.57 376.18 -300.74 9.9 -271.79 1.92 -514 -11.7zm4820.68 -6294.79l-4.94 -73.04c407.27,-69.47 1482.27,-15.79 1948.86,-7.12 411.93,7.67 1117.97,88.37 1433.41,385.83 43.7,41.21 19.77,18.28 60.88,73.13 174.96,21.9 528.86,486.91 632.65,659.11 549.89,912.19 403.7,2328.4 -238.11,3065.19 -1163.39,1335.56 -2164.66,427.74 -2805.21,1169.91 -377.67,437.6 -128.6,630.2 -262.62,1033.98l-4328.54 -10.39c-49.17,-158.93 -22.39,-469.32 -20.79,-650.01 1,-113.54 -1.11,-226.53 -0.44,-339.85l-8.48 -267.69c-21.75,-118.95 -168.69,-99.42 -305.04,-75.77 -500.18,86.71 -1014.32,559.24 -1047.32,1034.96 -13.88,385.68 -18.43,320.08 -380.06,319.69 -173.42,-0.2 -497.54,29.14 -645.68,-25.63 -44.89,-152.93 -24.14,-466.54 82.73,-585.21 3.47,-177.83 148.28,-465.31 229.33,-599.54l250.57 -358.67c209.7,-243.7 506.77,-472.43 847.19,-614.52 889.29,-371.17 2571.04,-119.98 2627.15,-237.12 6.43,-13.44 19.11,-12 28.77,-17.84 67.92,-64.71 36.51,-285.35 35.72,-386.75 173.02,12.9 255.18,74.49 484.69,73.82 222.46,-0.65 280.84,-52.3 457.01,-77.32 4.67,98.74 -40.35,375.83 65.4,412.88 171.1,59.95 2898,36.69 3114.39,18.06 1482.49,-127.6 1596.35,-2790.13 65.91,-2992.54 -272.31,-17.83 -542.08,-10.91 -815.12,-10.9 -124.45,0 -249.29,1.29 -373.68,0.5 -494.59,-3.12 -366.91,-12.09 -390.84,415.53 -8.14,145.42 -47.24,172.25 -196.79,172.45 -78.82,-153.73 -42.24,-335.29 -62,-556.96l-195.18 -59.66c-5.57,-415.23 82.5,-55.01 100.39,-338.93l-172.61 -23.05c2.93,97.27 -7.5,207.16 -1.39,297.65 9.99,147.91 18.71,95.42 64.17,227.2l89.11 18.67c13.66,118.58 1.34,218.89 14.4,329.33 13.26,111.9 55.15,152.69 107.28,235.16 442.52,18.32 369.51,-128.85 386.84,-562.09 175.4,-67.21 884.21,-26.49 1140.16,-26.71 655.65,-0.59 1157.6,383.92 1237.51,1047.73 36.45,302.85 16.26,793.61 -104.91,1022.53 -391.61,739.94 -994.21,672.81 -1642.46,672.75 -429.24,-0.06 -1995.24,55.09 -2296.5,-24.6 -29.23,-553.17 464.4,-516.74 550.75,-921.02 56.28,-137.42 84.85,-303.46 160.17,-428.96 -19.04,-188.24 -73.76,-160.18 -75.78,-333.9 -3.14,-272.24 76.61,-1074.79 -115.09,-1104.14 97.63,322.95 81.29,1384.9 -35.61,1704.7 -330.31,903.75 -1696.25,1044.99 -2143.74,56.41 -194.17,-428.95 -112.76,-1138.8 -107.92,-1675.25 94.04,-94.81 175.87,-162.55 230.64,-327.47 -246.51,35.92 12.48,95.04 -273.71,222.37l-39.69 1262.54c-93.38,51.15 -77.82,58.95 -189.46,103.43 141.54,232.15 69.29,-52.01 201.8,358.29 99.58,308.37 260.54,454.24 478.15,641.34 136.01,116.92 175.67,292.52 111.71,443.49 -846.11,255.66 -2255.26,-529.86 -3570.55,1014.01 -165.02,193.71 -469.64,776.4 -444.44,1075.62 56.72,265.16 1.63,374.32 -83.95,572.45 1010.56,-3.94 2005.08,-29.47 3023.22,-5.82 987.64,22.95 2016.11,-37.22 2989.41,1.05 753.28,29.6 2137.4,-11.09 2989.4,-11.09 1005.27,0 2024.41,-34.59 3023.22,15.86l-67.97 -34.22c-174.28,-87.2 -2128.34,-33.75 -2479.65,-33.75l-2243.51 5.74c-217.75,-24 -94.77,-13.39 -168.22,-81.19 41.78,-195.47 -116.97,-989.34 638.23,-1188.7 204.24,-53.91 622.92,-7.26 894.81,-58.24 390.96,-73.31 522.03,-182.2 742.63,-234.65l38.41 -6.25c79.68,-97.59 187.38,-142.65 288.28,-213.99 97.39,-68.83 188.33,-141.78 263.85,-214.46 147.63,-142.07 311.45,-421.25 419.26,-502.88 85.4,-456.97 349.3,-232.74 319.19,-1753.4 -9.39,-474.33 -177.36,-975.22 -460.36,-1343.87 -65.54,-85.37 -70.35,-66.17 -99.98,-159.06 -133.31,-75.12 -236.94,-215.48 -352.81,-306.98 -102.14,-80.66 -247.09,-176.53 -371.02,-239.96 -1047.42,-536.16 -2132.54,-186.96 -3436.95,-286.5l78.82 86.39c65.12,89.89 -16.88,158.3 112.65,137.91z"/>
  <path class="fil12" d="M3265.62 10056.87c18.35,-63.88 201.38,-36.14 352.79,-36.46l11753.82 1.37c343.73,0.7 1487.41,-41.28 1722.05,21.62 41.62,313.91 11.98,818.13 12.03,1153.07l-0.05 7510.59c0.19,102.02 -1.2,204.1 -0.83,306.04 0.12,32.3 4.01,112.22 2.02,138.4 -1.44,18.77 -2.95,49.07 -6.52,63.06 -17.91,70.33 -8.55,29.34 -39.98,68.43 -66.43,55.38 -13752,54.5 -13811.86,4.15 -54.91,-46.21 -42.49,-133.36 -41.76,-239.83l-0.46 -850.01c-1.18,-385.15 -0.57,-770.32 -0.6,-1155.49 -0.09,-770.29 1.21,-1540.64 0.27,-2310.95 -1.87,-1527.69 -10.68,-3060.82 1.42,-4587.91 15.6,-197.96 -5.96,-44.36 57.66,-86.08zm-512.26 -2876.29c203.14,-192.66 1350.18,-102.23 1748.28,-102.14 611.45,0.12 1223.04,-1.09 1834.42,1.06 1233.87,4.34 2468.71,0.83 3702.78,0.83 338.27,0 7271.68,-51.33 7405.76,42.08 418.39,114.4 469.05,451.28 468.07,913.49 -2.3,1061.52 223,1844.98 -875.89,1845.06l-12229.4 -0.49c-2500.75,3.1 -2414.83,199.2 -2407.11,-1674.65 1.81,-438.95 -24.5,-891.73 353.09,-1025.24zm14982.2 2708.24c56.75,-126.35 38.61,-42.89 138.06,-165.97 289.46,-358.23 184.44,-1125.47 186.42,-1720.93 2.86,-868.9 -328.1,-1081.62 -1125.17,-1080.35 -742.17,1.19 -3997.55,36.95 -4449.96,-14.82 73.45,67.8 -49.53,57.19 168.22,81.19l2243.51 -5.74c351.31,0 2305.37,-53.45 2479.65,33.75l67.97 34.22c-998.81,-50.45 -2017.95,-15.86 -3023.22,-15.86 -852,0 -2236.12,40.69 -2989.4,11.09 -973.3,-38.27 -2001.77,21.9 -2989.41,-1.05 -1018.14,-23.65 -2012.66,1.88 -3023.22,5.82 85.58,-198.13 140.67,-307.29 83.95,-572.45 -143.52,94.36 62.41,403.94 -152.88,440.2l-1697.7 4.23c-663.62,1.51 -1048.18,-34.26 -1293.01,438.25 -189.2,365.16 -106.98,1214.37 -105.42,1695.13 2.04,636.65 274.73,884.88 816.9,988.53l6.16 9332.24c190.58,136.34 1388.04,75 1696.4,75.44l10734.7 -0.92c334.71,-0.05 1523.49,69.8 1712.63,-64.06 49.73,-253.2 18.45,-864.48 18.13,-1155.47 -0.42,-385.17 -0.27,-770.32 0.02,-1155.49l-0.1 -4689.87c1.05,-729.92 -47.58,-1630.64 7.71,-2339.28 387.32,-73.58 323.12,-132.53 489.06,-157.83z"/>
  <path class="fil13" d="M2753.36 7180.58c-377.59,133.51 -351.28,586.29 -353.09,1025.24 -7.72,1873.85 -93.64,1677.75 2407.11,1674.65l12229.4 0.49c1098.89,-0.08 873.59,-783.54 875.89,-1845.06 0.98,-462.21 -49.68,-799.09 -468.07,-913.49 23.29,117.75 -8.89,83.22 76.04,157.02 44.28,38.48 81.35,49.98 144.07,76.77 36.53,142.26 -6.68,196.72 6.96,225.21 40.7,84.94 53.21,-3.85 180.57,80.49l-4.99 1579.44c-32.21,133.56 -181.71,174.72 -224.31,335.09l-186.74 12.57c99.95,1.54 24.16,-35.79 62.22,99.66 -439.03,6.53 -389.4,73.56 -427.67,-89.64 -78.55,31.5 -73.49,88.03 -102.08,169.92l-305.56 -0.63c-61.04,-25.42 5.63,-50.91 -111.61,-72.97l-6105.01 1.65c-15.49,93.88 -22.05,49.15 -67.94,98.64 -279.03,1.59 -667.53,59.79 -885.65,-47.94 -233.96,-115.56 -587.98,-50.55 -846.84,-50.64l-4586.17 3.9c-197.48,-0.63 -290.91,32.09 -440.14,34.52 -160.98,2.63 -263.61,-41.78 -472.71,-41.8 -27.92,-93.21 -3.45,-28.66 -38.2,-96.81 -94.85,10.22 -97.81,38.74 -229,18.38 -106.02,-16.45 -167.56,-44.09 -276.05,-51.29 20.21,-88.53 14.2,-114.38 48.93,-208.33 62.2,-168.27 32.21,30.21 48.65,-130.26 18.9,-252.22 -99.58,-807.25 -63.76,-1025.77 32.65,-199.3 49.01,-39.71 68.75,-170.46 12.25,-81.19 22.61,-348.19 -39.13,-372.03l-35 357.49c-39.25,130.82 17.92,66.72 -100.88,123.08 -67.9,-86.04 -71.36,-54.97 -61.4,-272.49 5.04,-110.27 20.97,-191.09 53.11,-272.38 59.69,-150.96 181.23,-221.62 230.3,-412.22z"/>
  <path class="fil14" d="M13877.35 1549.66c1530.44,202.41 1416.58,2864.94 -65.91,2992.54 -216.39,18.63 -2943.29,41.89 -3114.39,-18.06 -105.75,-37.05 -60.73,-314.14 -65.4,-412.88 -176.17,25.02 -234.55,76.67 -457.01,77.32 -229.51,0.67 -311.67,-60.92 -484.69,-73.82 0.79,101.4 32.2,322.04 -35.72,386.75 -9.66,5.84 -22.34,4.4 -28.77,17.84 -56.11,117.14 -1737.86,-134.05 -2627.15,237.12 -340.42,142.09 -637.49,370.82 -847.19,614.52l-250.57 358.67c-81.05,134.23 -225.86,421.71 -229.33,599.54l-61.61 556.61 941.05 10.95c14.87,-169.61 -16.54,-147.54 43.78,-253.49 3.52,-6.19 13.47,-15.05 19.79,-22.92 33,-475.72 547.14,-948.25 1047.32,-1034.96 136.35,-23.65 283.29,-43.18 305.04,75.77l8.48 267.69c-0.67,113.32 1.44,226.31 0.44,339.85 -1.6,180.69 -28.38,491.08 20.79,650.01l4328.54 10.39c134.02,-403.78 -115.05,-596.38 262.62,-1033.98 640.55,-742.17 1641.82,165.65 2805.21,-1169.91 641.81,-736.79 788,-2153 238.11,-3065.19 -103.79,-172.2 -457.69,-637.21 -632.65,-659.11l-101.32 0c-105,-175.01 57.06,63.83 -277.91,-191.39 -241.47,-183.96 -478.11,-2.62 -823.37,-77.77 -100.7,-21.92 -211.76,-90.13 -305.4,-111.44 -269.46,-61.32 -1490.46,-31.31 -1830.42,-15.48 54.05,155.49 22.33,40.43 77.67,124.55 178.65,0 151.84,-28.21 305.72,62.62 3.39,68.28 0.19,99.69 11.92,172.27l42.14 142.49c4.57,9.6 18.39,37.29 22.14,31.5 4.06,-6.24 16.89,21.92 25.73,32.7l-33.8 169.97 145.69 141.83c4.23,-7.6 15.64,18.92 23.99,27.93 185.8,-51.08 1128.93,-48.19 1429.3,-35.78 226.18,9.32 112.05,4.07 167.14,74.75z"/>
  <path class="fil14" d="M9835.03 3211.26c143.03,67.93 62.89,227.46 236.19,295.23 470.73,36.5 197.71,-292.97 465.77,-286.08 68.38,451.66 -466.97,547.72 -661.24,318.55 -47.25,-55.73 -99.96,-147.23 -93.05,-226.22 13.59,-155.15 23.98,-69.49 52.33,-101.48zm1007.29 -90c-24.56,-26.06 -37.83,0.29 -48.59,-82.35 -13.71,-105.11 61.22,-168.11 161.6,-156.9 104.62,11.68 152.7,82.63 150.77,192.13l-116.07 104.98c-135.93,-21.41 -74.56,10.74 -147.71,-57.86zm-1363.84 -28.53c-217.07,231.82 -353.81,-299.65 -2.2,-170.88 17.25,45.87 26.73,31.58 24.93,86.78 -3.5,107.57 -13.88,63.21 -22.73,84.1zm334.72 -671.83c56.29,-238.67 -51.68,-394.65 157.71,-415.79 77.92,114.99 81.98,365.09 -12.72,432.46 -16.36,325.18 -795.27,451.23 -742.98,-283.96 12.4,-174.62 -2.05,-97.57 76.28,-144.69 91.63,59.78 51.96,-71.02 68.02,251.34 16.91,339.42 348.51,364.23 453.69,160.64zm526.64 -232.03c0.92,-180.17 -12.64,-147.61 118.9,-176.67 53.59,168.09 -21.88,366.09 122.64,486.47 168.33,140.21 292.41,-5.89 382.35,-86.2l25.64 -385.77 132.64 -1.79c32.53,356.79 -41.23,708.6 -441.14,665.33 -290.47,-31.41 -342.21,-265.11 -341.03,-501.37zm-1110.69 -832.24c-54.77,164.92 -136.6,232.66 -230.64,327.47 -4.84,536.45 -86.25,1246.3 107.92,1675.25 447.49,988.58 1813.43,847.34 2143.74,-56.41 116.9,-319.8 133.24,-1381.75 35.61,-1704.7 -135.21,-18.8 -125.08,-151.53 -227.81,-250.46 -112.52,65.53 -224.65,188.43 -375.25,263.63 -781.01,389.96 -1267.05,-211.31 -1453.57,-254.78z"/>
  <path class="fil14" d="M11836.97 1091.04l239.93 45.77 0 -237.06c-113.68,41.31 -126.56,56.61 -237.8,101.16l-2.13 90.13z"/>
  <path class="fil15" d="M3602.72 19271.42l13396.12 -4.95c-5,-310.66 54.99,-0.83 54.04,-491.49l1.15 -8658.18c-355.82,-44.92 -5887.86,-40.62 -6219.36,5.99 65.42,71.14 58.26,57.72 161.54,88.12 -99.71,40.04 -56.35,9 -98.73,127.53l201.53 1.18c-80.73,69.75 -55.51,-4.74 -97.73,128.53l236.26 7.84c2.88,30.84 10.87,65.15 2.21,92.73l-49.36 88.15c-31.21,94.11 -3.43,203.53 5.45,302.07 21.17,234.95 -11.39,340.47 190.88,386.18l12.73 149.66 254.56 22.54c7.38,119.7 26.64,66.6 -24.76,121.12 118.76,0 303.62,-11 414.67,1.79l406.83 28.67 136.72 185.52c19.81,117.79 -55.51,166.02 -72.15,188.72 -4.62,6.31 -25.56,31.16 -30.6,41.3 -497.94,1.38 -277.12,-106.01 -507.13,-134.07 -280.96,-34.29 49.39,104.7 -590.09,72.31 0.66,-6.23 8.91,-57.79 8.82,-59.06l-7.34 -46.66c-0.82,-5.08 -4.78,-16.86 -7.43,-25.22l-45.23 2.61c-2.45,0.74 -15.25,3.47 -17.91,4.43 -4.85,1.81 -21.27,15.44 -30.8,21.55 -26.78,-102.86 -24.68,-77.89 -71.02,-168.75l-175.85 -35.37 -2.29 -161.35 -123.94 -11.09c45.88,-90.58 6.7,-587.24 -60.92,-665.11 -94.93,-109.32 -181.01,-64.81 -203.13,-265.74 -146.66,-16.61 -119.02,-13.26 -160.13,-134.86 -152.25,7.36 -219.32,-32.09 -343.18,-54.96 -55.43,98.71 5.53,58.49 -125.87,75.69 -2.32,109.3 18.51,236.7 -63.47,261.95 -108.29,33.38 -236.72,0.7 -292.64,-26.71 -44.97,88.22 -7.64,102.01 -89.57,190.57 18.67,470.74 -213.92,515.81 -130.61,764.19 -202.5,14.62 -320.93,212.52 -558.46,248.02 -220.65,32.99 -541.23,-4.73 -769.94,-2.15 52.75,-174.92 39.47,-81.52 -60.51,-160.45 550.21,-326.59 387.45,53.13 937.12,-264.84l-48.48 -37.39c-77.38,-48.02 -109.13,-43.82 -109.22,-156.24 199.59,84.85 30.39,10.34 112.88,-14.06 75.27,-22.28 96.08,-27.03 147.44,19.73 75.77,-78.69 63.62,-109.37 79.48,-147.96 60.76,-147.81 -28.42,-126.77 -23.24,-282.84 156.42,-50.18 72.9,-73.52 136.89,-237.14 56.72,-145.02 105.19,-27.35 118.11,-319.06l-190.58 -50.27c1.91,-12.23 16.74,-48.57 16.92,-51.13l-15.15 -122.66c-438.06,-41.53 -1087.96,-8.02 -1557.34,-11.9 -521.02,-4.29 -1041.05,12.85 -1562.65,3.42 -223.99,-4.04 -2376.74,-45.68 -2537.32,10.56 -113.81,39.85 -39.32,-6.53 -114.06,100.69l-92.82 354.56c5.58,18.97 5.29,92.59 5.24,116.39 -0.77,459.35 62.66,231.62 68.3,442.22l-7.79 1602.27c1.29,300.75 -62.23,-18.53 -61.71,475.72 0.26,252.28 -21.81,75.13 -66.24,201.18l36.74 1404.41c2.35,4.6 11,15.03 13.39,20.9 49.81,123.02 -34.44,291.05 11.98,409.87 49.85,127.54 74.73,-31.91 71.34,270.87l-6.33 1122.49c10.78,497.68 10.36,997.23 4.96,1495.33 -141.34,35.54 -59.58,6.04 -132.08,67.97l-4.64 566.85c115.19,0.17 180.07,6.68 231.64,-93.8 -15.71,31.19 -18.21,11.86 -25.52,72.51 -3.17,26.21 -0.97,102.14 -1.58,134.13l-147.18 129.68c-6.03,5.26 -16.44,14.86 -21.51,19.3 -5.4,4.75 -15.34,13.74 -22.7,20.95 8.17,6.84 21.09,5.57 25.74,18.97 23.6,68.09 13.32,7.8 50.05,30.32l226.56 175.21zm4686.18 -7414.66c-55.67,-393.69 944.55,247.41 1001.02,-762.91 68.68,-1228.56 1747.8,-1162.67 1840.62,-68.21 29.3,345.34 44.99,457.17 300.02,614.2 332.9,204.97 629.98,-66.07 717.02,168.34 -133.06,96.98 -580.28,62.22 -756.95,-25.18 -163.17,-80.75 -325.05,-255.19 -370.1,-452.48 -43.7,-191.38 -12.51,-902.78 -674.63,-990.52 -524.48,-69.52 -881.06,293.92 -922.8,726.45 -30.84,319.5 -48.52,464.94 -248.56,625.05 -264.51,211.72 -539.57,180.34 -885.64,165.26zm-4686.18 7414.66l-226.56 -175.21c-36.73,-22.52 -26.45,37.77 -50.05,-30.32 -4.65,-13.4 -17.57,-12.13 -25.74,-18.97 7.36,-7.21 17.3,-16.2 22.7,-20.95 5.07,-4.44 15.48,-14.04 21.51,-19.3l147.18 -129.68c0.61,-31.99 -1.59,-107.92 1.58,-134.13 7.31,-60.65 9.81,-41.32 25.52,-72.51 -51.57,100.48 -116.45,93.97 -231.64,93.8l4.64 -566.85c72.5,-61.93 -9.26,-32.43 132.08,-67.97 5.4,-498.1 5.82,-997.65 -4.96,-1495.33l6.33 -1122.49c3.39,-302.78 -21.49,-143.33 -71.34,-270.87 -46.42,-118.82 37.83,-286.85 -11.98,-409.87 -2.39,-5.87 -11.04,-16.3 -13.39,-20.9l-36.74 -1404.41c44.43,-126.05 66.5,51.1 66.24,-201.18 -0.52,-494.25 63,-174.97 61.71,-475.72l7.79 -1602.27c-5.64,-210.6 -69.07,17.13 -68.3,-442.22 0.05,-23.8 0.34,-97.42 -5.24,-116.39l92.82 -354.56c74.74,-107.22 0.25,-60.84 114.06,-100.69 160.58,-56.24 2313.33,-14.6 2537.32,-10.56 521.6,9.43 1041.63,-7.71 1562.65,-3.42 469.38,3.88 1119.28,-29.63 1557.34,11.9l15.15 122.66c-0.18,2.56 -15.01,38.9 -16.92,51.13l190.58 50.27c-12.92,291.71 -61.39,174.04 -118.11,319.06 -63.99,163.62 19.53,186.96 -136.89,237.14 -5.18,156.07 84,135.03 23.24,282.84 -15.86,38.59 -3.71,69.27 -79.48,147.96 -51.36,-46.76 -72.17,-42.01 -147.44,-19.73 -82.49,24.4 86.71,98.91 -112.88,14.06 0.09,112.42 31.84,108.22 109.22,156.24l48.48 37.39c-549.67,317.97 -386.91,-61.75 -937.12,264.84 99.98,78.93 113.26,-14.47 60.51,160.45 228.71,-2.58 549.29,35.14 769.94,2.15 237.53,-35.5 355.96,-233.4 558.46,-248.02 -83.31,-248.38 149.28,-293.45 130.61,-764.19 81.93,-88.56 44.6,-102.35 89.57,-190.57 55.92,27.41 184.35,60.09 292.64,26.71 81.98,-25.25 61.15,-152.65 63.47,-261.95 131.4,-17.2 70.44,23.02 125.87,-75.69 123.86,22.87 190.93,62.32 343.18,54.96 41.11,121.6 13.47,118.25 160.13,134.86 22.12,200.93 108.2,156.42 203.13,265.74 67.62,77.87 106.8,574.53 60.92,665.11l123.94 11.09 2.29 161.35 175.85 35.37c46.34,90.86 44.24,65.89 71.02,168.75 9.53,-6.11 25.95,-19.74 30.8,-21.55 2.66,-0.96 15.46,-3.69 17.91,-4.43l45.23 -2.61c2.65,8.36 6.61,20.14 7.43,25.22l7.34 46.66c0.09,1.27 -8.16,52.83 -8.82,59.06 639.48,32.39 309.13,-106.6 590.09,-72.31 230.01,28.06 9.19,135.45 507.13,134.07 5.04,-10.14 25.98,-34.99 30.6,-41.3 16.64,-22.7 91.96,-70.93 72.15,-188.72l-136.72 -185.52 -406.83 -28.67c-111.05,-12.79 -295.91,-1.79 -414.67,-1.79 51.4,-54.52 32.14,-1.42 24.76,-121.12l-254.56 -22.54 -12.73 -149.66c-202.27,-45.71 -169.71,-151.23 -190.88,-386.18 -8.88,-98.54 -36.66,-207.96 -5.45,-302.07l49.36 -88.15c8.66,-27.58 0.67,-61.89 -2.21,-92.73l-236.26 -7.84c42.22,-133.27 17,-58.78 97.73,-128.53l-201.53 -1.18c42.38,-118.53 -0.98,-87.49 98.73,-127.53 -103.28,-30.4 -96.12,-16.98 -161.54,-88.12 331.5,-46.61 5863.54,-50.91 6219.36,-5.99 -62.18,-112.16 -649.07,-42.97 -798.57,-42.8 -1435.91,1.5 -12779.22,39.57 -12989.84,-17.13l-9.88 9189.28 346.98 25.27z"/>
  <path class="fil15" d="M2753.36 7180.58c-49.07,190.6 -170.61,261.26 -230.3,412.22 -32.14,81.29 -48.07,162.11 -53.11,272.38 -9.96,217.52 -6.5,186.45 61.4,272.49 118.8,-56.36 61.63,7.74 100.88,-123.08l35 -357.49c61.74,23.84 51.38,290.84 39.13,372.03 -19.74,130.75 -36.1,-28.84 -68.75,170.46 -35.82,218.52 82.66,773.55 63.76,1025.77 -16.44,160.47 13.55,-38.01 -48.65,130.26 -34.73,93.95 -28.72,119.8 -48.93,208.33 108.49,7.2 170.03,34.84 276.05,51.29 131.19,20.36 134.15,-8.16 229,-18.38 34.75,68.15 10.28,3.6 38.2,96.81 209.1,0.02 311.73,44.43 472.71,41.8 149.23,-2.43 242.66,-35.15 440.14,-34.52l4586.17 -3.9c258.86,0.09 612.88,-64.92 846.84,50.64 218.12,107.73 606.62,49.53 885.65,47.94 45.89,-49.49 52.45,-4.76 67.94,-98.64l6105.01 -1.65c117.24,22.06 50.57,47.55 111.61,72.97l305.56 0.63c28.59,-81.89 23.53,-138.42 102.08,-169.92 38.27,163.2 -11.36,96.17 427.67,89.64 -38.06,-135.45 37.73,-98.12 -62.22,-99.66l186.74 -12.57c42.6,-160.37 192.1,-201.53 224.31,-335.09l4.99 -1579.44c-127.36,-84.34 -139.87,4.45 -180.57,-80.49 -13.64,-28.49 29.57,-82.95 -6.96,-225.21 -62.72,-26.79 -99.79,-38.29 -144.07,-76.77 -84.93,-73.8 -52.75,-39.27 -76.04,-157.02 -134.08,-93.41 -7067.49,-42.08 -7405.76,-42.08 -1234.07,0 -2468.91,3.51 -3702.78,-0.83 -611.38,-2.15 -1222.97,-0.94 -1834.42,-1.06 -398.1,-0.09 -1545.14,-90.52 -1748.28,102.14z"/>
  <path class="fil16" d="M8781.77 956.75c-23.36,275.87 -120.63,367.1 -96.34,859.96 7.56,153.84 22.15,321.57 26.18,475.82 4.72,181.32 -89.01,300.5 73.58,374.98l15.53 -1156.96c149.39,-44.77 306.47,-269.3 320.75,-509.64 86.59,6.98 60.67,56.47 237.96,65.03 140.56,279.32 306.19,286.83 544.59,413.96 324.62,173.09 621.14,-82.07 806.06,-93.68 309.64,-72.85 123.86,-201.79 381.86,-266.41 74.52,48.43 54.34,18.05 130.44,160.54 208.71,390.82 130.02,85.39 225.72,315.49 29.28,70.41 28.48,130.2 32.61,220.42 10.8,235.56 -47.41,844.94 43.77,992.99l95.02 -53.86c125.06,-132.3 63.76,-1234.3 58.22,-1416.17 -8.44,-277.73 -144.08,-577.75 -329.23,-757.75 -455.05,-442.41 -1072.95,-507.52 -1704.84,-369.84 -216.06,47.07 -109.59,85.8 -285.32,133.1 -252.14,67.88 -606.33,483.32 -576.56,612.02z"/>
  <path class="fil17" d="M10710.08 1386.22c-184.92,11.61 -481.44,266.77 -806.06,93.68 -238.4,-127.13 -404.03,-134.64 -544.59,-413.96 -177.29,-8.56 -151.37,-58.05 -237.96,-65.03 -14.28,240.34 -171.36,464.87 -320.75,509.64l-15.53 1156.96c-162.59,-74.48 -68.86,-193.66 -73.58,-374.98 -4.03,-154.25 -18.62,-321.98 -26.18,-475.82 -24.29,-492.86 72.98,-584.09 96.34,-859.96 -63.9,51.71 -80.67,37.38 -118.04,194.12 -23.71,99.54 -22.95,158.07 -27.54,257.87l-0.13 1020.03c-4.22,202.17 -8.89,322.96 183.96,343.36 89.09,-226.36 -5.27,-890.15 56.44,-1227.29 244.9,-119.42 159.66,-279.2 347.09,-410.98 166.77,25.61 174.42,134.98 313.2,231.84 128.76,89.84 180.41,127.1 348.41,188.79 250.75,92.07 727.64,27.37 824.92,-168.27z"/>
 </g>
</svg>
