<?xml version="1.0" encoding="UTF-8"?>
<!DOCTYPE svg PUBLIC "-//W3C//DTD SVG 1.1//EN" "http://www.w3.org/Graphics/SVG/1.1/DTD/svg11.dtd">
<!-- Creator: CorelDRAW 2017 -->
<svg xmlns="http://www.w3.org/2000/svg" xml:space="preserve" width="200mm" height="200mm" version="1.1" style="shape-rendering:geometricPrecision; text-rendering:geometricPrecision; image-rendering:optimizeQuality; fill-rule:evenodd; clip-rule:evenodd"
viewBox="0 0 20000 20000"
 xmlns:xlink="http://www.w3.org/1999/xlink">
 <defs>
  <style type="text/css">
   <![CDATA[
    .str0 {stroke:#373435;stroke-width:20;stroke-miterlimit:22.9256}
    .fil3 {fill:#EAEAEA}
    .fil4 {fill:#8ED3EC}
    .fil5 {fill:#8CC5D5}
    .fil1 {fill:#6A9AB0}
    .fil2 {fill:#547C8C}
    .fil0 {fill:#292929}
   ]]>
  </style>
 </defs>
 <g id="Capa_x0020_1">
  <metadata id="CorelCorpID_0Corel-Layer"/>
  <rect class="fil0 str0" width="20000" height="20000"/>
  <g id="_2850525481488">
   <path class="fil1" d="M16021.83 13026.53c109.46,-265.65 7.03,-357.5 -49.72,-483.03l-395.9 4.09c-19.28,44.57 -211.86,302.99 -23.02,475.59 144.51,132.08 341.35,74.68 468.64,3.35z"/>
   <path class="fil1" d="M14822.1 11597.09c-298.27,175.43 -124.51,560.58 240.01,478.05 349.38,-79.1 154.39,-709.98 -240.01,-478.05z"/>
   <path class="fil2" d="M9512.29 5410.15c337.91,-214.92 714.56,114.61 593.96,470.41 -148.12,437.04 -968.99,243.34 -775.61,-282.17 52.51,-142.72 77.77,-122.16 181.65,-188.24zm621.53 -159.92c-88.23,-105.66 -179.17,-269.21 8.34,-369.5 200.28,-107.1 302.59,84.67 280.81,295.89 -157.22,71.39 -49.42,92.81 -289.15,73.61zm-177.17 0.98c-270.08,-10.16 -500.76,-77.11 -678.23,198.61 -337,523.58 337.8,1074.83 812.04,662.11 115.63,-100.64 149.57,-171.01 155.17,-344.13 9.05,-280.93 -67.09,-229.14 -112.26,-394.86 602.94,-0.44 454.28,-501.53 269.43,-598.62 -151.67,-79.68 -310.99,-42.08 -404.17,54.42 -163.74,169.58 -109.74,251.85 -41.98,422.47z"/>
   <path class="fil2" d="M15609.68 10469.14c453.1,-209.22 1027.57,327.99 716.81,813 -59.07,92.22 -190.4,208.29 -291.65,249.41 -434.85,176.61 -1007,-295.43 -730.35,-812.3 83.87,-156.69 138.33,-173.07 305.19,-250.11zm1243.86 1383.9c-92.11,-519.5 -73.59,-536.28 -229.89,-1030.86l-78.03 -228.44c-99.47,-165.98 40.56,31.68 -52.9,-64.84l9.64 187.31c-72.77,-43.63 -113.07,-202.78 -350.88,-333.89 -147.25,-81.16 -407.2,-98.11 -584.45,-35.47 -286.17,101.12 -581.6,500.48 -414.57,880.26 273.15,621.03 1001.56,565.54 1282.09,124.14 133.33,-209.81 84.32,-348.01 77.43,-622.53 124.51,140.13 205.24,646.73 242.18,825.31 23.05,111.39 24.96,221.61 99.38,299.01z"/>
   <path class="fil2" d="M3770.27 10864.52c-143.4,-771.15 880.59,-958.7 1104.08,-318.06 185.2,530.92 -459.92,910.63 -859.84,646.42 -115.85,-76.53 -218.73,-191.2 -244.24,-328.36zm1244.43 -183.15c2.01,-870.66 -1462.31,-847.09 -1386.61,90.5 67.29,833.28 1384.37,881.87 1386.61,-90.5z"/>
   <path class="fil3" d="M8005.85 1066.08c295.11,-49.4 547.66,-137.2 855.41,-164.27 872.7,-76.75 2050.16,-163.92 2885.48,110.69 207.65,68.29 296.33,-17.43 295.93,236.88 -0.8,789.54 -66.1,4501.66 39.08,4774.05 354,66.13 813.74,260.42 1106.26,397.56 955.78,448.06 1818.11,1134.26 2499.96,1950.65 2915.86,3491.23 1670.23,8840.96 -2704.44,10768.92 -4629.52,2040.26 -10235.65,-1166.66 -10240.15,-6414.06 -1.46,-1677.71 605.01,-3128.3 1609.28,-4386.35 936.13,-1172.69 2038.75,-1769.19 3351.36,-2262.69 146.75,-55.16 250.19,-25.65 277.42,-161.04l13.07 -117.51c30.45,-877.95 -46.67,-4386.02 11.34,-4732.83zm-274.54 221.25c-211.32,-16.49 -467.5,-303.22 -122.75,-559.86 521.85,-388.46 1769.45,-466.36 2442.42,-466.34 2935.9,0.04 2832.91,999.26 2246.89,1031.68 -12.16,-282.11 -2.82,-418.18 -291.93,-471.53 -216.62,-39.98 -373.46,-102.93 -586.8,-139.31 -438.53,-74.81 -914.4,-101.97 -1398.66,-102.99 -831.91,-1.76 -1261.19,77.77 -2011,251.43 -326.57,75.62 -192.92,258.54 -278.17,456.92zm4553.14 4509.38c-4.22,-1189.53 1.7,-2380.73 1.59,-3570.55 -0.02,-149.12 -7.21,-314.19 -2.4,-460.83 11.36,-345.31 549.55,-225.8 597.82,-732.57 80.05,-840.48 -1940.62,-996.63 -2524.53,-1027.03 -518.72,-27 -1591.18,43.18 -2054.23,176.59 -349.75,100.77 -615.59,162.13 -908.78,396.22 -148.19,118.33 -295.26,415.44 -141.2,664.01 124.53,200.93 317.76,259.36 503.61,379.51l-6.79 4175.44c-100.47,68.76 -489.53,187.74 -602.49,234.59 -569.18,236.05 -624.68,274.18 -1145.95,570.37 -830.25,471.8 -1603.77,1253.55 -2166.18,2013.95 -1322.98,1788.67 -1755.22,4279.99 -878.08,6628.24 167.05,447.17 605.45,1270.87 886.39,1646.78 118.27,158.23 225.48,290.49 365.16,456.87 1310.97,1561.47 3389.22,2642.59 5751.03,2651.65 2276.16,8.72 4386.74,-940.41 5830.23,-2632.76 471.78,-553.1 1044.37,-1424.59 1255.29,-2106.15 85.45,-276.14 352.91,-1079.93 373.97,-1283.32 124.49,-1202.95 132.52,-1999.67 -154.56,-3097.62 -424.28,-1622.68 -1474.3,-3013.62 -2759.97,-3949 -1183.61,-861.12 -1853.28,-918.79 -2219.93,-1134.39z"/>
   <path class="fil4" d="M8561.73 17204.38c-8.99,-11.71 -20.82,-24.61 -27.5,-38.45 -98.21,-203.46 151.05,-367.66 303.72,-433.44 504.51,-217.4 1459.03,-256.59 1988.97,-50.98 224.02,86.93 266.61,85.21 373.08,237.35 109.21,156.11 90.04,128.19 72,297.35l-231 166.66c-61.15,45.92 -482.51,182.83 -623.9,182.31l-672.21 59.97c-184.96,-3.42 -144.79,-68.59 -309.43,-92.09 -125.93,-17.97 -259.79,9.97 -382.13,-24.43 -173.62,-48.83 -52.61,-63.65 -314.8,-81.32l-176.8 -222.93zm-4658.63 -3515.61c144.96,-67.95 249.93,-38.23 374.16,15.6 118.52,51.36 193.99,75.9 284.77,147.73 776.48,614.37 1421.75,1439.36 1793.81,2362.07 97.98,242.99 407.28,1112.87 51.89,1262.53 -978.02,411.85 -3413.37,-3362 -2504.63,-3787.93zm9258.86 3556.41c-91.28,42.58 -53,4.46 -247.82,-81.67 -106.71,-47.2 -26.83,5.44 -98.92,-58.99l-59.91 -63.36c-43.93,-39.35 -81.34,-46.27 -131.36,-114.37 -141.16,-192.21 -62.32,-671.26 12.79,-884.13 300.44,-851.54 1000.61,-1925.74 1684.86,-2467.34 143.28,-113.44 416,-338.37 652.32,-382.89 250.19,-47.14 617.96,233.18 694.64,327.7 -65.78,84.63 -8.75,28.09 -134.93,82.45 -290.24,125.05 -536.45,313.24 -772.03,539.91 -549.96,529.18 -933.85,1077.03 -1271,1777.74 -112.28,233.34 -399.77,939.51 -277.57,1212.99 66.37,-70.76 21.72,14.3 54.43,-104.21l143.05 -576.16c304.92,-866.96 1029.29,-1918.2 1721.45,-2462.07 210.16,-165.14 948.15,-654.35 1000.72,16.84 58.6,748.46 -684.72,1863.35 -1025.11,2309.1 -109.24,143.03 -253.75,316 -394.99,460.73 -187.51,192.14 -291.56,344.17 -419.27,405.28 -223.48,106.88 -117.75,157.63 -547.22,281.46 -442.12,127.49 -421.75,-161.68 -474.46,-297.85l-109.67 78.84zm-8956.66 -3725.05c59.84,-91.06 414.16,-330.55 596.31,-326.25 368.85,8.73 858.06,456.16 1089.24,701.85 457.3,486.01 1165.37,1498.52 1334.21,2183.92 78.42,318.41 99.77,379.47 81.53,773.3 -166.07,90.5 -358.38,384.44 -620.24,401.74 6.22,-645.99 -90.63,-796.98 -298.09,-1256.82 -903.85,-2003.41 -2109.24,-2388.83 -2182.96,-2477.74zm11816.53 -493.6c-127.29,71.33 -324.13,128.73 -468.64,-3.35 -188.84,-172.6 3.74,-431.02 23.02,-475.59l395.9 -4.09c56.75,125.53 159.18,217.38 49.72,483.03zm-1199.73 -1429.44c394.4,-231.93 589.39,398.95 240.01,478.05 -364.52,82.53 -538.28,-302.62 -240.01,-478.05zm-9807.4 -915.72c-2.24,972.37 -1319.32,923.78 -1386.61,90.5 -75.7,-937.59 1388.62,-961.16 1386.61,-90.5zm192.38 -641.01c-0.32,-1222.73 457.68,-2130.51 1315.52,-2585.41 446.8,-236.92 969.15,-322.07 1500.16,-443.77 679.58,-155.76 1800.53,-139.35 2577.62,-128.69l992.84 90.63c105.84,24.96 122.05,51.7 257.38,59.67 174.91,10.27 434.28,74.18 595.09,115.35 726.94,186.07 1337,423.38 1740.95,1078.53 535.38,868.29 559.04,1856.54 396.29,2964.8 -58.47,398.18 -453.5,1638.98 -456.17,1669.66 164.07,-32.29 338.15,-145.38 527.37,-124.38 175.65,19.48 326.6,129.97 308.71,324.77 -75.99,39.51 -202.67,70.76 -286.82,114.43 -235.57,122.23 -478.54,320.79 -671.62,512.82 -497.35,494.61 -1041.13,1199.91 -1310.15,1858.46 -348.5,853.09 -229.13,1043.06 -272.84,1231.44 -43.76,188.46 -339.05,22.23 -411.25,-92.33 -156.52,-248.39 -42.41,-615.24 -43.49,-869.03 -96.77,15.56 -423.26,311.95 -501.35,370.77 -311.15,234.37 -205.53,92.19 -259.67,534.16 -117.3,1.79 -275.59,-115.78 -581.01,-200.49 -985.96,-273.46 -1734.75,130.16 -1958.74,156.38l-10.06 -288.73c-100.07,-87.89 -622.75,-514.56 -734.4,-545.72 -21.43,180.02 177.61,1158.9 -486.44,995.96 -32.53,-736.38 -48.85,-734.08 -289.32,-1297.77 -346.2,-811.54 -1009.29,-1710.96 -1742.47,-2225.41 -80.95,-56.8 -157.89,-103.12 -245.87,-148.45 -67.39,-34.73 -198.02,-65.97 -259.49,-105.75 -33.05,-537.06 788.8,-210.94 852.36,-208.64 -14.14,-85.4 -73.39,-239.31 -111.73,-331.55 -290.54,-698.91 -431.18,-1730.66 -431.4,-2481.71zm4791.55 -5211.62c93.18,-96.5 252.5,-134.1 404.17,-54.42 184.85,97.09 333.51,598.18 -269.43,598.62 45.17,165.72 121.31,113.93 112.26,394.86 -5.6,173.12 -39.54,243.49 -155.17,344.13 -474.24,412.72 -1149.04,-138.53 -812.04,-662.11 177.47,-275.72 408.15,-208.77 678.23,-198.61 -67.76,-170.62 -121.76,-252.89 41.98,-422.47zm6854.91 7024.3c-74.42,-77.4 -76.33,-187.62 -99.38,-299.01 -36.94,-178.58 -117.67,-685.18 -242.18,-825.31 6.89,274.52 55.9,412.72 -77.43,622.53 -280.53,441.4 -1008.94,496.89 -1282.09,-124.14 -167.03,-379.78 128.4,-779.14 414.57,-880.26 177.25,-62.64 437.2,-45.69 584.45,35.47 237.81,131.11 278.11,290.26 350.88,333.89l-9.64 -187.31c-40.87,-205.7 -325.86,-745.74 -434.31,-938.9 -514.67,-916.6 -1120.05,-1595.73 -1990.49,-2223.54 -292.61,-211.05 -561.43,-355.43 -877.47,-523.7 -319.61,-170.16 -663.36,-280.81 -995.7,-414.33 -211.61,-85 -358.32,-62.37 -464.11,-239.04 -161.85,-270.34 1.15,-1448.45 -81.78,-2022.08 -151.82,-91.57 -538.21,-241.93 -728.48,-271.44 -802.75,-124.46 -1008.27,15.95 -1654.78,259.75 -413.22,155.82 -788.6,57.58 -854.8,123.99 -74.18,104.88 -30.72,1056.79 -30.61,1273.7 0.37,806.99 -26.05,674.06 -479.33,845.15 -771.7,291.3 -1049.27,384.79 -1754.94,837.41 -1580.99,1014.06 -2855.98,2935.77 -2985.21,4850.67 -49.46,733.23 -20.89,1715.8 183.02,2345.25 211.34,652.3 439.19,1266.19 814.09,1808.32 378.23,546.95 675.88,914.02 1197.28,1395.7 498.02,460.14 937.65,729.74 1572.91,1052.18 2321.12,1178.09 5159.36,823.66 7155.49,-586.58 186.22,-131.56 210.57,-171.86 404.95,-270.85 141.53,-72.07 191.92,-211.74 312.91,-324.07 688.44,-639.13 1227.28,-1442.94 1606.41,-2294.74 271.28,-609.52 457.83,-1484.14 471.8,-2149.49 3.43,-164.18 -26.92,-1206.05 -26.03,-1209.22z"/>
   <path class="fil4" d="M8994.84 7537.38l-887.96 152.67c-322.96,63.91 -547.65,111.56 -838.43,211.64 -1185.44,407.97 -1471.74,1643.57 -1311.8,2793.41 88.06,633.13 72.98,694.21 276.68,1279.29 90.56,260.21 338.32,892.44 481.87,1067.22 369.42,449.8 1048.96,-166.68 1305.23,-483.42 146.51,-181.09 335.02,-397.71 442.47,-589.83 267.88,-478.98 359.99,-933.54 716.6,-1363.28 384.3,-463.1 894.79,-607.02 1397.84,-114.46 167.85,164.36 308.53,419.06 423.99,610.35 68.09,112.84 99.83,213.4 151.47,369 162.87,490.89 713.64,1186.33 1109.63,1487.04 708.42,538.01 912.05,126.86 1157.8,-463.43 163.75,-393.26 424.93,-1126.44 466.51,-1598.88 126.39,-1436.48 -69.69,-2496.58 -1189.7,-2950.76 -484.01,-196.27 -885.72,-212.74 -1230.51,-320.39 -189.61,-59.19 -1159.19,-115.24 -1446.05,-116.02 -145.6,-0.4 -948.24,-3.7 -1025.64,29.85z"/>
   <path class="fil4" d="M15609.68 10469.14c-166.86,77.04 -221.32,93.42 -305.19,250.11 -276.65,516.87 295.5,988.91 730.35,812.3 101.25,-41.12 232.58,-157.19 291.65,-249.41 310.76,-485.01 -263.71,-1022.22 -716.81,-813z"/>
   <path class="fil4" d="M3770.27 10864.52c25.51,137.16 128.39,251.83 244.24,328.36 399.92,264.21 1045.04,-115.5 859.84,-646.42 -223.49,-640.64 -1247.48,-453.09 -1104.08,318.06z"/>
   <path class="fil4" d="M9512.29 5410.15c-103.88,66.08 -129.14,45.52 -181.65,188.24 -193.38,525.51 627.49,719.21 775.61,282.17 120.6,-355.8 -256.05,-685.33 -593.96,-470.41z"/>
   <path class="fil4" d="M10193.6 13446.54c-272.55,231.92 54.44,520.85 269.69,363 229.18,-168.07 -25.85,-570.5 -269.69,-363z"/>
   <path class="fil4" d="M10459.14 14735.43l-263.41 -6.25c-51,77.01 -134.13,140.74 -95.2,268.08 72.14,235.99 386.92,212.62 453.91,2.24 41.13,-129.14 -47.11,-196.94 -95.3,-264.07z"/>
   <path class="fil4" d="M9840.48 14070.01c-294.13,141.17 -132.65,494.64 171.86,415.72 258.55,-67 126.34,-558.84 -171.86,-415.72z"/>
   <path class="fil4" d="M9377.06 14771.61c-223.22,192.21 71.41,520.61 291.56,350.58 241.1,-186.2 -42.2,-565.3 -291.56,-350.58z"/>
   <path class="fil4" d="M9079.18 14071.92c-339.67,147.27 -146.11,492.36 140.62,418.27 276.72,-71.48 132.23,-536.56 -140.62,-418.27z"/>
   <path class="fil4" d="M9424.23 13419.25c-72,82.54 -171.84,119.94 -103.79,306.47 35.25,96.68 152.86,161 290.03,118.11 87.83,-27.44 178.22,-132.99 137.48,-287.1 -35.66,-134.91 -156.56,-146.59 -323.72,-137.48z"/>
   <path class="fil4" d="M10620.77 14089.98c-316.48,235.51 -35.54,484.62 209.85,390.61 165.29,-63.32 145.79,-353.09 -40.58,-419.05 -114.22,-40.41 -140.05,6.7 -169.27,28.44z"/>
   <path class="fil4" d="M10133.82 5250.23c239.73,19.2 131.93,-2.22 289.15,-73.61 21.78,-211.22 -80.53,-402.99 -280.81,-295.89 -187.51,100.29 -96.57,263.84 -8.34,369.5z"/>
   <path class="fil0" d="M9555.84 12864.55c885.02,-240.49 1655.34,379.58 1828.7,1059.38 120.42,472.08 0.83,865.98 -221.16,1199.28 -78.97,118.57 -247.55,281.62 -364.79,361.93 -520.65,356.69 -1181.59,358 -1687.11,40.85 -271.44,-170.27 -563.59,-477.24 -653.98,-828.64 -219.73,-854.37 258.4,-1604.56 1098.34,-1832.8zm-561 -5327.17c77.4,-33.55 880.04,-30.25 1025.64,-29.85 286.86,0.78 1256.44,56.83 1446.05,116.02 344.79,107.65 746.5,124.12 1230.51,320.39 1120.01,454.18 1316.09,1514.28 1189.7,2950.76 -41.58,472.44 -302.76,1205.62 -466.51,1598.88 -245.75,590.29 -449.38,1001.44 -1157.8,463.43 -395.99,-300.71 -946.76,-996.15 -1109.63,-1487.04 -51.64,-155.6 -83.38,-256.16 -151.47,-369 -115.46,-191.29 -256.14,-445.99 -423.99,-610.35 -503.05,-492.56 -1013.54,-348.64 -1397.84,114.46 -356.61,429.74 -448.72,884.3 -716.6,1363.28 -107.45,192.12 -295.96,408.74 -442.47,589.83 -256.27,316.74 -935.81,933.22 -1305.23,483.42 -143.55,-174.78 -391.31,-807.01 -481.87,-1067.22 -203.7,-585.08 -188.62,-646.16 -276.68,-1279.29 -159.94,-1149.84 126.36,-2385.44 1311.8,-2793.41 290.78,-100.08 515.47,-147.73 838.43,-211.64l887.96 -152.67zm-3787.76 2502.98c0.22,751.05 140.86,1782.8 431.4,2481.71 38.34,92.24 97.59,246.15 111.73,331.55 -63.56,-2.3 -885.41,-328.42 -852.36,208.64 61.47,39.78 192.1,71.02 259.49,105.75 87.98,45.33 164.92,91.65 245.87,148.45 733.18,514.45 1396.27,1413.87 1742.47,2225.41 240.47,563.69 256.79,561.39 289.32,1297.77 664.05,162.94 465.01,-815.94 486.44,-995.96 111.65,31.16 634.33,457.83 734.4,545.72l10.06 288.73c223.99,-26.22 972.78,-429.84 1958.74,-156.38 305.42,84.71 463.71,202.28 581.01,200.49 54.14,-441.97 -51.48,-299.79 259.67,-534.16 78.09,-58.82 404.58,-355.21 501.35,-370.77 1.08,253.79 -113.03,620.64 43.49,869.03 72.2,114.56 367.49,280.79 411.25,92.33 43.71,-188.38 -75.66,-378.35 272.84,-1231.44 269.02,-658.55 812.8,-1363.85 1310.15,-1858.46 193.08,-192.03 436.05,-390.59 671.62,-512.82 84.15,-43.67 210.83,-74.92 286.82,-114.43 17.89,-194.8 -133.06,-305.29 -308.71,-324.77 -189.22,-21 -363.3,92.09 -527.37,124.38 2.67,-30.68 397.7,-1271.48 456.17,-1669.66 162.75,-1108.26 139.09,-2096.51 -396.29,-2964.8 -403.95,-655.15 -1014.01,-892.46 -1740.95,-1078.53 -160.81,-41.17 -420.18,-105.08 -595.09,-115.35 -135.33,-7.97 -151.54,-34.71 -257.38,-59.67l-992.84 -90.63c-777.09,-10.66 -1898.04,-27.07 -2577.62,128.69 -531.01,121.7 -1053.36,206.85 -1500.16,443.77 -857.84,454.9 -1315.84,1362.68 -1315.52,2585.41z"/>
   <path class="fil0" d="M16492.72 10528.9c93.46,96.52 -46.57,-101.14 52.9,64.84l78.03 228.44c156.3,494.58 137.78,511.36 229.89,1030.86 -0.89,3.17 29.46,1045.04 26.03,1209.22 -13.97,665.35 -200.52,1539.97 -471.8,2149.49 -379.13,851.8 -917.97,1655.61 -1606.41,2294.74 -120.99,112.33 -171.38,252 -312.91,324.07 -194.38,98.99 -218.73,139.29 -404.95,270.85 -1996.13,1410.24 -4834.37,1764.67 -7155.49,586.58 -635.26,-322.44 -1074.89,-592.04 -1572.91,-1052.18 -521.4,-481.68 -819.05,-848.75 -1197.28,-1395.7 -374.9,-542.13 -602.75,-1156.02 -814.09,-1808.32 -203.91,-629.45 -232.48,-1612.02 -183.02,-2345.25 129.23,-1914.9 1404.22,-3836.61 2985.21,-4850.67 705.67,-452.62 983.24,-546.11 1754.94,-837.41 453.28,-171.09 479.7,-38.16 479.33,-845.15 -0.11,-216.91 -43.57,-1168.82 30.61,-1273.7 66.2,-66.41 441.58,31.83 854.8,-123.99 646.51,-243.8 852.03,-384.21 1654.78,-259.75 190.27,29.51 576.66,179.87 728.48,271.44 82.93,573.63 -80.07,1751.74 81.78,2022.08 105.79,176.67 252.5,154.04 464.11,239.04 332.34,133.52 676.09,244.17 995.7,414.33 316.04,168.27 584.86,312.65 877.47,523.7 870.44,627.81 1475.82,1306.94 1990.49,2223.54 108.45,193.16 393.44,733.2 434.31,938.9zm-8486.87 -9462.82c-58.01,346.81 19.11,3854.88 -11.34,4732.83l-13.07 117.51c-27.23,135.39 -130.67,105.88 -277.42,161.04 -1312.61,493.5 -2415.23,1090 -3351.36,2262.69 -1004.27,1258.05 -1610.74,2708.64 -1609.28,4386.35 4.5,5247.4 5610.63,8454.32 10240.15,6414.06 4374.67,-1927.96 5620.3,-7277.69 2704.44,-10768.92 -681.85,-816.39 -1544.18,-1502.59 -2499.96,-1950.65 -292.52,-137.14 -752.26,-331.43 -1106.26,-397.56 -105.18,-272.39 -39.88,-3984.51 -39.08,-4774.05 0.4,-254.31 -88.28,-168.59 -295.93,-236.88 -835.32,-274.61 -2012.78,-187.44 -2885.48,-110.69 -307.75,27.07 -560.3,114.87 -855.41,164.27z"/>
   <path class="fil0" d="M13271.63 17166.34c52.71,136.17 32.34,425.34 474.46,297.85 429.47,-123.83 323.74,-174.58 547.22,-281.46 127.71,-61.11 231.76,-213.14 419.27,-405.28 141.24,-144.73 285.75,-317.7 394.99,-460.73 340.39,-445.75 1083.71,-1560.64 1025.11,-2309.1 -52.57,-671.19 -790.56,-181.98 -1000.72,-16.84 -692.16,543.87 -1416.53,1595.11 -1721.45,2462.07l-143.05 576.16c-32.71,118.51 11.94,33.45 -54.43,104.21 -122.2,-273.48 165.29,-979.65 277.57,-1212.99 337.15,-700.71 721.04,-1248.56 1271,-1777.74 235.58,-226.67 481.79,-414.86 772.03,-539.91 126.18,-54.36 69.15,2.18 134.93,-82.45 -76.68,-94.52 -444.45,-374.84 -694.64,-327.7 -236.32,44.52 -509.04,269.45 -652.32,382.89 -684.25,541.6 -1384.42,1615.8 -1684.86,2467.34 -75.11,212.87 -153.95,691.92 -12.79,884.13 50.02,68.1 87.43,75.02 131.36,114.37l59.91 63.36c72.09,64.43 -7.79,11.79 98.92,58.99 194.82,86.13 156.54,124.25 247.82,81.67l109.67 -78.84z"/>
   <path class="fil0" d="M3903.1 13688.77c-908.74,425.93 1526.61,4199.78 2504.63,3787.93 355.39,-149.66 46.09,-1019.54 -51.89,-1262.53 -372.06,-922.71 -1017.33,-1747.7 -1793.81,-2362.07 -90.78,-71.83 -166.25,-96.37 -284.77,-147.73 -124.23,-53.83 -229.2,-83.55 -374.16,-15.6z"/>
   <path class="fil0" d="M10459.14 14735.43c48.19,67.13 136.43,134.93 95.3,264.07 -66.99,210.38 -381.77,233.75 -453.91,-2.24 -38.93,-127.34 44.2,-191.07 95.2,-268.08l263.41 6.25zm-1082.08 36.18c249.36,-214.72 532.66,164.38 291.56,350.58 -220.15,170.03 -514.78,-158.37 -291.56,-350.58zm1243.71 -681.63c29.22,-21.74 55.05,-68.85 169.27,-28.44 186.37,65.96 205.87,355.73 40.58,419.05 -245.39,94.01 -526.33,-155.1 -209.85,-390.61zm-780.29 -19.97c298.2,-143.12 430.41,348.72 171.86,415.72 -304.51,78.92 -465.99,-274.55 -171.86,-415.72zm-761.3 1.91c272.85,-118.29 417.34,346.79 140.62,418.27 -286.73,74.09 -480.29,-271 -140.62,-418.27zm345.05 -652.67c167.16,-9.11 288.06,2.57 323.72,137.48 40.74,154.11 -49.65,259.66 -137.48,287.1 -137.17,42.89 -254.78,-21.43 -290.03,-118.11 -68.05,-186.53 31.79,-223.93 103.79,-306.47zm769.37 27.29c243.84,-207.5 498.87,194.93 269.69,363 -215.25,157.85 -542.24,-131.08 -269.69,-363zm-1598.27 867.22c0.74,773.5 619.98,1269.91 1395.16,1258.25 1061.82,-15.99 1773.11,-1358.21 846.22,-2227.02 -788.01,-738.65 -2242.6,-292.24 -2241.38,968.77z"/>
   <path class="fil0" d="M4205.3 13520.13c73.72,88.91 1279.11,474.33 2182.96,2477.74 207.46,459.84 304.31,610.83 298.09,1256.82 261.86,-17.3 454.17,-311.24 620.24,-401.74 18.24,-393.83 -3.11,-454.89 -81.53,-773.3 -168.84,-685.4 -876.91,-1697.91 -1334.21,-2183.92 -231.18,-245.69 -720.39,-693.12 -1089.24,-701.85 -182.15,-4.3 -536.47,235.19 -596.31,326.25z"/>
   <path class="fil0" d="M8738.53 17427.31c262.19,17.67 141.18,32.49 314.8,81.32 122.34,34.4 256.2,6.46 382.13,24.43 164.64,23.5 124.47,88.67 309.43,92.09l672.21 -59.97c141.39,0.52 562.75,-136.39 623.9,-182.31l231 -166.66c18.04,-169.16 37.21,-141.24 -72,-297.35 -106.47,-152.14 -149.06,-150.42 -373.08,-237.35 -529.94,-205.61 -1484.46,-166.42 -1988.97,50.98 -152.67,65.78 -401.93,229.98 -303.72,433.44 6.68,13.84 18.51,26.74 27.5,38.45l176.8 222.93z"/>
   <path class="fil0" d="M7731.31 1287.33c85.25,-198.38 -48.4,-381.3 278.17,-456.92 749.81,-173.66 1179.09,-253.19 2011,-251.43 484.26,1.02 960.13,28.18 1398.66,102.99 213.34,36.38 370.18,99.33 586.8,139.31 289.11,53.35 279.77,189.42 291.93,471.53 586.02,-32.42 689.01,-1031.64 -2246.89,-1031.68 -672.97,-0.02 -1920.57,77.88 -2442.42,466.34 -344.75,256.64 -88.57,543.37 122.75,559.86z"/>
   <path class="fil5" d="M8595.33 14313.76c-1.22,-1261.01 1453.37,-1707.42 2241.38,-968.77 926.89,868.81 215.6,2211.03 -846.22,2227.02 -775.18,11.66 -1394.42,-484.75 -1395.16,-1258.25zm960.51 -1449.21c-839.94,228.24 -1318.07,978.43 -1098.34,1832.8 90.39,351.4 382.54,658.37 653.98,828.64 505.52,317.15 1166.46,315.84 1687.11,-40.85 117.24,-80.31 285.82,-243.36 364.79,-361.93 221.99,-333.3 341.58,-727.2 221.16,-1199.28 -173.36,-679.8 -943.68,-1299.87 -1828.7,-1059.38z"/>
  </g>
 </g>
</svg>
