<?xml version="1.0" encoding="UTF-8"?>
<!DOCTYPE svg PUBLIC "-//W3C//DTD SVG 1.1//EN" "http://www.w3.org/Graphics/SVG/1.1/DTD/svg11.dtd">
<!-- Creator: CorelDRAW 2017 -->
<svg xmlns="http://www.w3.org/2000/svg" xml:space="preserve" width="181mm" height="181mm" version="1.1" style="shape-rendering:geometricPrecision; text-rendering:geometricPrecision; image-rendering:optimizeQuality; fill-rule:evenodd; clip-rule:evenodd"
viewBox="0 0 18100 18100"
 xmlns:xlink="http://www.w3.org/1999/xlink">
 <defs>
  <style type="text/css">
   <![CDATA[
    .fil12 {fill:none}
    .fil6 {fill:#030402}
    .fil0 {fill:#291407}
    .fil11 {fill:#663516}
    .fil8 {fill:#93CCD4}
    .fil9 {fill:#B9DCE3}
    .fil4 {fill:#DCE3D4}
    .fil2 {fill:#E6E8E9}
    .fil10 {fill:#E7B4B8}
    .fil7 {fill:#E9BB67}
    .fil3 {fill:#EA96A5}
    .fil1 {fill:#EBBBA3}
    .fil5 {fill:#F9C556}
   ]]>
  </style>
   <clipPath id="id0">
    <path d="M-0 0l18100 0 0 18100 -18100 0 0 -18100z"/>
   </clipPath>
 </defs>
 <g id="Capa_x0020_1">
  <metadata id="CorelCorpID_0Corel-Layer"/>
  <g>
  </g>
  <g style="clip-path:url(#id0)">
   <g>
    <path class="fil0" d="M-2804.56 4462.46l0 359.57c205.17,-125.42 370.59,-326.17 601.21,-439.42 604.88,-297.05 74.65,-83.11 745.61,-304.66 683.35,-225.6 1123.95,-112.74 1654.17,165.12 480.61,251.85 838.13,503.2 1085.14,1005.97 389.36,792.56 451.06,1608.77 144.31,2539.21 -120.95,366.85 -552.7,1037.12 -792.97,1294.56 -822.43,881.2 -2206.83,1667.96 -3437.47,1660.3l0 202.1c1634.81,-70.64 2320.67,-700.71 2568.18,-690.2 111.76,217.05 136.66,709.78 274.24,1002.96 141.08,300.67 260.07,530.14 420.22,837.79 240.96,463.07 760.29,1159.44 1089.6,1442.58l1076.84 817.91c243.69,179.59 1393.12,756.67 1691.71,829.07 495.28,120.1 572.19,31.83 520.31,283.13 -0.73,3.4 -40.98,182.83 -41.62,184.75 -59.84,175.34 -18.86,67.67 -304.37,176.52l38.21 16.77c-968.87,142.32 -1726.52,730.51 -2506.9,1101.48 -213.55,101.5 -364.21,204.49 -592.75,294.75 -409.52,161.72 -1723.07,706.89 -2031.23,668.16 -126.52,105.03 -436.6,131.54 -546.57,185.38 -67.23,32.85 -38.64,16.47 -76.3,51.83l483.45 0c1258.18,-392.04 1882.88,-483.36 3129.01,-1137.39l947.93 -497.54c260.12,-144.99 1160.25,-492.69 1441.47,-472.65 110.65,299.44 141.42,552.31 330.08,784.64 134.09,165.16 360.63,449.7 579.08,576.57 1065.3,618.66 3609.36,706.03 4781.48,64.73 412.13,-225.47 459.83,108.01 727.78,-204.02l69.28 -80.86c389.96,382.5 93.59,131.71 693.01,259.81 878.73,187.77 1365.72,-213.73 1741.25,209.86 150.27,169.55 330.16,304.07 470.72,496.85l366.09 0c-256.88,-246.11 -278.16,-353.31 -584.19,-636.28 -84.7,-78.3 -15.88,26.01 -98.31,-107.92 6.98,-7.75 18.6,-28.73 22.89,-21.28l529.38 -180.66c1059.9,-378.89 721.18,-561.67 1692.48,-58.17 324.2,168.05 690.75,347.9 1009.71,521.41 305.4,166.19 714.68,399.15 1050.63,482.9l454.3 0 -527.8 -233.72c-281.69,-128.69 -1546.97,-707.91 -1662.09,-846.77l-865.96 -445.16c17.78,-97.66 -5.91,-43.45 135.76,-188.57 524.26,-536.82 604.66,-1082.7 452.09,-1779.12 -96.74,-441.54 -267.99,-599.81 -535.08,-850.68 -443.41,-416.48 -714.24,-368.43 -876.98,-493.42l681.51 -800.47c436.13,-529.97 310.59,-423.35 604.19,-928 80.7,-138.66 167.09,-219.85 238.88,-394.3 129.76,-315.1 299.39,-528.31 385.49,-823.28 227.34,-778.89 272.62,-1241.32 257.05,-2190.1 -16.3,-993.76 -493.42,-1747.76 -449.29,-1953.01 1008.66,-23.53 1194.85,-258.16 1423.47,-276.97 86.44,-86.48 182.57,-85.88 312.71,-153.25 203.43,-105.28 764.43,-427.19 770.68,-654.54 -344.03,-131.28 -511.42,15.07 -834.04,-355.22 -382.77,-439.32 -337.31,-732.16 -410.56,-1316.78 -38.05,-303.6 -90.39,-534.27 -108.39,-866.6 -43.33,-273.69 -0.85,-576.78 -86.9,-828.3 -47.37,-138.44 -80.05,-243.72 -113.54,-369.48 -42.09,-157.98 -74.99,-178.7 -109.68,-304.55 -195.76,-158.61 -196.78,-506.52 -802.63,-902.26 -116.82,-76.31 -297.74,-166.69 -353.78,-241.64l-2656.54 0c-34,72.77 32.81,2.68 -115.28,85.33 -709.74,395.95 -969.47,775.6 -1350.92,1480.83 -155.07,286.72 -180.35,503.89 -194.78,815.79 -249.43,30.64 -1092.46,-211.43 -1446.83,-252.37 -2101.97,-242.7 -2444.26,-135.46 -4482.43,381.06 -846.05,214.41 -1114.03,368.76 -1845,727.4 -558.91,274.19 -853.97,400.64 -1386.79,773.53 -398.89,279.17 -1049.46,948.43 -1183.36,909.75 -107.92,-81.67 -264.28,-290.93 -390.97,-400.68 -148.06,-128.31 -280.07,-234.66 -439.02,-342.84 -825.88,-562.27 -1561.36,-569.12 -2459.58,-244.25 -759.99,274.85 -600.95,387.45 -990.7,577.01z"/>
    <path class="fil1" d="M9374.2 4528.67c61.88,92.95 117.46,101.76 199.26,202.28 202.74,249.17 529.63,816.47 626.11,1121.95l209.68 639.34c33.62,121.54 40.13,248.88 62.43,352.97 104.31,487.29 117.12,1080.2 77.71,1627.45 -22.9,318.37 -228.58,1138.2 -364.17,1325.75 -74.39,-65.41 -98.69,-55.62 -91.45,-195.55 -157.51,73.16 53.19,80.1 -32.39,374.55 -13.83,47.67 -29.15,114.82 -38.94,150.44 -61.96,225.39 -149.16,308.38 -248.37,496.82l-142.61 235.77c-41.79,42.9 -139.93,74.52 -191.59,174.44 -56.56,109.33 -38.86,135.21 -118.4,256.54l-165.16 207.6c-192.79,231.77 -85.71,-22.77 -302.08,252.66 -135.33,172.23 -111.8,15.71 -307.65,254.79 -75.28,91.97 -254.32,344.51 -348.5,398.6 -61.45,35.24 -53.28,13.15 -128.82,57.41l-141.38 116.99c-29.75,24.77 -9.02,13.19 -63.66,49.2 -9.54,6.3 -123.08,63.15 -124.19,63.62 -214.91,87.92 -963.46,312.25 -1163.48,331.14l-1130.08 239.05c-5.02,4.51 -11.96,13.19 -16.64,18.21 -228.15,244.24 -256.49,296.76 -941.54,270.88 -190.53,-7.23 -441.96,-113.93 -549.29,-211.68 -256.71,-233.81 -158.83,-39.32 -396.39,-157.85 -148.82,-74.3 45.37,-30.51 -109.58,-66.43 -145.85,-33.83 -524.82,149.63 -375.87,-233.3 -30.68,-0.68 -108.91,2 -132.31,-1.19l-160.7 -50.9 -388.59 -77.54c187.8,203.55 410.12,8.72 426.76,260.28 -182.7,141.76 -981.89,-291.82 -1126.79,-383.02 -159.64,-100.47 -350.59,-216.49 -492.86,-325.6 -122.53,-93.93 -299.4,-316.55 -456.05,-377.45 40.47,272.46 591.59,938.31 756.03,1076.88 89.55,75.5 169.04,134.78 237.22,211.13 298.67,334.46 1147.74,956.57 1543.4,1206.85 314.67,199.08 1498.11,721.52 1748.35,591.29 92.43,-109.03 95.97,-180.82 207.72,-304.67 97.16,-107.67 137.42,-156.78 255.77,-264.58 814.9,-742.42 2371.36,-870.39 3406.62,-816.98 675.09,34.86 1432.66,276.5 1921.77,741.1 54.3,51.54 223.43,247.6 274.97,271.05 126.14,-57.2 374.04,-490.35 775.01,-742.88 1286.95,-810.64 2229.04,-610.83 2441.75,-682.37 321.18,-108.01 1224.64,-1264.05 1418.27,-1666.3 164.57,-341.83 372.85,-686.93 497.8,-1074.24 36.26,-112.44 45.28,-202.66 76.86,-296.97 134.65,-402.43 281.73,-310.33 292.5,-884.48 4.17,-223.3 93.71,-1154.46 1.19,-1375.93 -30.6,-73.28 -7.49,-31.79 -46.47,-79.92 -48.69,220.19 10.25,578.44 9.7,823.87 -0.51,227.13 -65.24,593.17 -44.13,778.25 19.83,137.63 28.77,84.74 -13.62,200.02 -31.45,85.59 9.28,-24.64 -38.77,70.57 -23.75,47.02 -7.36,14.76 -35.28,74.77 -50.39,108.39 -104.65,263.86 -215.09,313.9 -149.37,67.71 -160.48,94.23 -281.09,227.94 -309.48,9.07 -963.51,77.07 -1208.38,-49.11 -334.89,-172.53 -770.72,-10.47 -1112.33,-561.8 -143.85,-232.11 -228.11,-213.56 -383.19,-323.87 -2.04,-1.44 -145.46,-115.33 -145.68,-115.5 -106.18,-104.09 -64.98,-125.16 -104.9,-183.89 -70.65,-103.84 51.07,4.26 -61.15,-42.39 -207.05,-86.01 73.41,74.05 -64.99,-17.23 27.32,-336.51 319.05,-100.18 316.84,-357.15l-136.86 -73.71c97.28,266.2 -60.39,249.26 -343.27,-118.22l-659.31 -1058.32c-277.18,-590.79 -468.73,-1329.25 -561.16,-1992.04 -107.63,-771.4 78.13,-1229.11 92.99,-1631.32 -415.24,-136.87 -758.98,-254.58 -1115.44,-406.98 -129.42,-55.32 -390.89,-178.32 -526.44,-259.69 -695.43,-417.57 -360.89,-399.91 -978.4,172.41 -104.94,97.24 -407.83,338.03 -451.45,478.26 146.99,142.61 340.33,111.24 789.79,582.27 112.31,117.72 47.4,-10.34 110.43,161.76z"/>
    <path class="fil2" d="M-2804.56 1459.37l0 3003.08c389.74,-189.55 230.71,-302.16 990.7,-576.99 898.22,-324.89 1633.7,-318.04 2459.58,244.24 158.95,108.18 290.96,214.53 439.02,342.84 126.69,109.76 283.05,319.01 390.98,400.68 133.88,38.68 784.46,-630.58 1183.36,-909.75 532.82,-372.89 827.87,-499.33 1386.78,-773.53 730.97,-358.64 998.95,-512.99 1845,-727.4 2038.17,-516.52 2380.46,-623.76 4482.43,-381.06 354.37,40.94 1197.4,283.01 1446.83,252.37 14.42,-311.91 39.7,-529.08 194.78,-815.79 381.45,-705.22 641.18,-1084.88 1350.91,-1480.83 148.1,-82.65 81.29,-12.56 115.29,-85.33l-11238.58 0c-222.15,96.86 -368.89,-23.71 -1007.81,204.44 -391.19,139.72 -482.43,-6.89 -897.88,218.96 -205.38,111.59 -371.95,98.95 -681.47,250.75 -231.39,113.46 -1059.26,253.9 -1271.41,370.64l-557.64 261.56c-190.23,72.64 -397.02,188.1 -630.87,201.12z"/>
    <path class="fil3" d="M17294.05 1095.8c-31.36,-273.34 -140.91,-164.95 -163.38,-487.96 281.14,-9.66 316.33,-76.31 499.08,-107.2 361.44,-61.12 609.85,44.72 783.57,61.83 250.36,24.6 413.49,85.76 674.79,162.06 8.73,180.87 12.56,265.31 -38.09,417.87 -156.31,471.29 -124.73,414.22 -468.6,876.31l-884.6 884.69c-4.85,-39.96 -12.73,-131.85 -21.66,-165.89 -43.75,-166.62 14.12,-60.22 -70.99,-139.38 18,332.33 70.35,563 108.39,866.6 73.25,584.62 27.79,877.46 410.56,1316.78 322.63,370.29 490.01,223.94 834.04,355.23 -6.25,227.34 -567.25,549.25 -770.67,654.53 -130.15,67.37 -226.28,66.78 -312.72,153.25l202.07 0.98c134.14,267.77 225.76,815.53 270.02,953.42l37.84 106.61c12.51,43.87 15.36,72.77 26.13,120.61 312.37,1390.91 390.93,2926.13 286.41,4361.98 -16.21,222.75 -102.95,164.96 -108.95,521.55 -2.34,139.88 9.07,146.95 -40.26,249.89 -169.8,354.34 -51.62,412.73 -155.12,626.88 -3.36,6.94 -9.96,15.36 -13.57,22.21 -236.92,451.63 -343.61,1251.33 -322.76,1758.53 180.7,72.26 344.08,140.14 524.56,225.47l257.09 112.43c59.88,28.31 182.79,111.68 254.07,154.74l440.9 304.16c79.16,55.8 144.57,90.44 223.94,149.38 70.56,52.43 127.97,143.76 209.68,153.42 269.9,101.03 632.83,499.84 704.2,759.36 29.83,108.43 7.66,90.35 48.43,173.16l186.11 6.94 0 -16754.34 -4766.93 0c56.05,74.94 236.96,165.33 353.78,241.64 605.86,395.74 606.88,743.65 802.64,902.26z"/>
    <path class="fil2" d="M-2804.56 10945.21l0 6235.72c157.21,11.15 796.08,299.56 961.38,378.59l576.48 200.62c8.34,3.1 17.45,7.83 25.92,10.72 8.55,2.98 17.83,7.02 26.64,9.66 354,107.12 107.37,-60.39 345.02,140.78 148.35,-16.47 120.22,-32.77 267,-10.42 308.16,38.72 1621.7,-506.44 2031.24,-668.16 228.53,-90.26 379.19,-193.25 592.74,-294.75 780.38,-370.98 1538.03,-959.17 2506.9,-1101.48l-38.22 -16.77c285.52,-108.86 244.54,-1.19 304.38,-176.52 0.63,-1.92 40.89,-181.34 41.62,-184.75 51.87,-251.3 -25.03,-163.04 -520.31,-283.13 -298.59,-72.39 -1448.03,-649.48 -1691.71,-829.07l-1076.84 -817.91c-329.31,-283.14 -848.64,-979.51 -1089.6,-1442.58 -160.15,-307.65 -279.14,-537.12 -420.22,-837.79 -137.58,-293.18 -162.48,-785.91 -274.24,-1002.96 -247.51,-10.51 -933.37,619.56 -2568.18,690.2z"/>
    <path class="fil4" d="M16422.64 17067.6c264.37,11.45 116.86,-21.75 296.71,-90.27 190.79,-72.69 824.39,7.11 1058.58,18.39 500.35,24.13 944.44,45.32 1452.84,44.77 743.43,-0.81 633.64,-108.78 964.99,-145.76 161.59,-18.05 198.36,-19.19 276.2,-193.6 80.94,-181.38 28.38,-358.88 -120.82,-495.2 -192.79,-176.19 -301.48,-94.35 -385.32,-439.15 -81.71,-9.66 -139.12,-100.99 -209.68,-153.42 -79.37,-58.94 -144.78,-93.58 -223.94,-149.38l-440.9 -304.16c-71.28,-43.06 -194.19,-126.43 -254.07,-154.74l-257.09 -112.43c-180.48,-85.33 -343.86,-153.21 -524.56,-225.47 -20.85,-507.2 85.84,-1306.9 322.76,-1758.53 3.61,-6.85 10.21,-15.27 13.57,-22.21 103.5,-214.15 -14.68,-272.54 155.12,-626.88 49.33,-102.94 37.92,-110.01 40.26,-249.89 6,-356.59 92.74,-298.8 108.95,-521.55 104.52,-1435.85 25.96,-2971.07 -286.41,-4361.98 -10.77,-47.84 -13.62,-76.74 -26.13,-120.61l-37.84 -106.61c-44.26,-137.89 -135.88,-685.65 -270.02,-953.42l-202.07 -0.98c-228.62,18.81 -414.81,253.43 -1423.47,276.97 -44.13,205.25 432.99,959.25 449.29,1953.01 15.57,948.78 -29.71,1411.21 -257.05,2190.1 -86.1,294.97 -255.73,508.18 -385.49,823.28 -71.79,174.44 -158.19,255.64 -238.88,394.29 -293.6,504.65 -168.06,398.05 -604.19,928.02l-681.52 800.46c162.75,124.99 433.58,76.95 876.99,493.42 267.09,250.87 438.34,409.15 535.08,850.68 152.57,696.41 72.18,1242.3 -452.09,1779.12 -141.68,145.12 -117.97,90.91 -135.76,188.58l865.96 445.15z"/>
    <path class="fil5" d="M-2804.56 4822.02l0 5921.09c1230.64,7.66 2615.04,-779.1 3437.47,-1660.3 240.28,-257.43 672.02,-927.72 792.97,-1294.56 306.76,-930.44 245.05,-1746.65 -144.31,-2539.2 -247.01,-502.78 -604.53,-754.13 -1085.14,-1005.98 -530.22,-277.86 -970.82,-390.72 -1654.17,-165.12 -670.96,221.55 -140.74,7.61 -745.61,304.67 -230.62,113.24 -396.04,313.99 -601.21,439.4z"/>
    <path class="fil6" d="M6793.08 4805.72c-154.35,-7.32 -330.03,117.33 -455.15,193.21 -179.94,109.12 -291.1,123.12 -461.92,209.39 -558.83,282.11 -1418.24,457.92 -2060.86,626.62l-999.68 234.49c-76.6,80.82 102.87,95.63 -225.25,96.52 63.15,-78.09 427.66,-83.07 569.12,-48.47 282.03,49.53 637.09,-109.42 906.39,-162.74l898.22 -220.62c-33.36,559.12 -100.26,662.96 55.07,1209.74 167.94,591.17 551.64,1271.71 990.45,1686.56 107.2,101.33 253.34,196.62 381.19,286.88 346.08,244.37 999.42,540.31 1448.06,555.89 363.57,12.64 918.48,-4.26 1177.1,-161.25 432.73,-262.63 389.79,-193.04 775.19,-563.51 332.51,-319.61 418.34,-686.41 583.38,-799.95 12.22,208.53 -31.83,944.73 -117.2,1155.82 -29.54,72.99 -8.94,38.17 -46.56,85.33 17.19,145.88 -63.5,283.94 -116.86,413.23 -7.24,139.93 17.06,130.14 91.45,195.55 135.59,-187.55 341.27,-1007.38 364.17,-1325.75 39.41,-547.25 26.6,-1140.16 -77.71,-1627.45 -22.3,-104.09 -28.81,-231.43 -62.43,-352.97l-209.68 -639.34c-96.48,-305.48 -423.37,-872.78 -626.11,-1121.95 -81.8,-100.52 -137.38,-109.33 -199.26,-202.28 -259.13,-31.4 -140.1,-50.3 -279.77,-174.61l-125.12 -97.88c-191,-172.15 -145.12,-130.1 -398.17,-263.22 -101.2,-53.2 -171.04,-102.1 -246.92,-171.3l-169.51 128.06c-5.7,5.23 -13.53,13.11 -19.23,18.43l-666.97 529.5c-211.04,158.65 -445.36,344.89 -675.43,308.07z"/>
    <path class="fil7" d="M12138.28 2502.5c134.57,47.29 345.4,109.25 467.83,171.3l1275.54 690.96c815.88,575.94 864.56,749.4 1402.02,1237.41 431.37,391.66 597.43,768.89 842.64,1132.8 140.53,208.53 171.6,207.17 459.41,209.38 687.61,5.28 1198.04,-192.53 1787.68,-520.43 126.44,-70.31 135.67,-23.62 190.4,-150.83 -137.37,-157.21 -222.75,-1.02 -577.38,-283.31 -868.34,-691.09 -245.3,-1898.62 -851.58,-3579.13 -283.39,-785.45 -1332.43,-1411.94 -2109.49,-1431.98 -489.93,-12.64 -1076.46,41.11 -1498.8,303.09 -413.62,256.58 -700.45,431.32 -947.42,836.26 -248.49,407.49 -461.7,822.64 -440.85,1384.48z"/>
    <path class="fil2" d="M1233.1 8740.77c-146.15,377.66 -1077.1,1138.29 -1094.67,1183.7 -48.6,374.85 114.73,740.46 220.83,1039.34 54.69,153.98 130.1,276.63 227.47,407.07 322.93,432.51 275.99,531.54 933.93,961.88 169.16,110.65 692.96,429.2 854.9,419.92l388.59 77.54 105.24 -27.88 -28.42 -147.29c352.93,-31.79 294.71,-51.11 756.93,-43.83 785.82,12.43 395.4,-338.63 1227.4,-335.53 311.44,1.15 811.11,75.67 1047.9,-149.2 181.51,-172.4 -69.84,-70.14 229.81,-187.94 131.16,-51.58 161.12,-99.45 257.86,-140.1l904.73 -289.35c321.05,-143.8 111.8,-66.73 312.33,-284.03 100.78,-109.24 41.88,28.99 106.78,-109.88 -204.58,-105.33 -388.04,134.1 -1262.82,36.98 -768.88,-85.33 -653.98,-122.69 -1406.65,-376.46 -130.49,-43.96 -106.48,-57.54 -260.07,-110.14 -151.08,-51.75 -128.27,-32.73 -247.94,-125.59 -214.41,-166.4 -77.71,9.15 -312.63,-243.13l-484.01 -448.13c-140.87,-153.08 15.06,-55.16 -207.89,-147.55 -29.24,-407.19 -248.63,-406.6 -330,-716.46 -53.15,-202.57 -110.6,-230.7 -147.84,-381.02 -137.38,-555.03 -276.24,-1263.32 -157.42,-1835.97 15.49,-74.57 26.17,-120.36 51.45,-195.05 67.45,-199.17 -11.58,-148.44 148.14,-194.48 20.94,-73.37 28.47,-70.14 78.05,-129.59 -341.01,-42.48 -833.96,61.24 -1212.59,77.24 12.26,486.52 -24,1008.96 -165.64,1418.27 -40.17,116.06 -79.03,209.35 -107.67,297.57 -81.15,249.94 -73.54,170.61 -124.86,259.85 -58.69,102.14 -169.08,492.4 -301.22,439.24z"/>
    <path class="fil5" d="M2815.47 6069.43l999.68 -234.49c642.62,-168.7 1502.03,-344.51 2060.86,-626.62 170.82,-86.27 281.98,-100.27 461.92,-209.39 125.12,-75.88 300.8,-200.53 455.15,-193.21 82.9,-123.41 170.7,-140.39 333.78,-247.09l1629.75 -1308.6c111.58,-86.35 203.59,-187.47 303.99,-291.99 80.98,-84.31 171.42,-262.28 268.53,-330.88 188.58,17.7 759.62,430 984.49,540.22 301.31,147.68 787.74,318.33 1122.03,417.15 677.52,200.24 534.27,155.42 1231.41,302.71 432.98,91.5 919.24,158.28 1434.66,128.44 -101.67,-286.32 -1456.83,-976.91 -1738.06,-1103.94 -146.44,-66.18 -278.07,-89.24 -412.42,-151.85 -603.21,-280.96 -2234.62,-490.77 -2919.75,-499.37 -585.6,-7.32 -1521.52,115.42 -2060.56,243.69 -656.66,156.27 -1194.76,298.71 -1746.44,520.18 -1129.01,453.32 -1640.51,686.88 -2572.65,1377.33 -215.17,159.38 -849.32,626.32 -949.93,801.53 -77.62,135.21 23.92,276.59 66.09,409.45 40.35,127.16 56.18,367.78 128.31,467.28 181.6,135.76 677.01,-2.93 919.16,-10.55z"/>
    <path class="fil8" d="M3159.34 6117.48c-8.77,6.59 -23.36,2.38 -29.02,15.53 -46.69,108.05 -1124.25,78.6 -1217.11,172.19 -105.07,95.54 -39.37,505.29 -56.69,677.9 -34.21,340.97 -185.76,945.37 -342.67,1223.36 -94.56,167.59 -179.08,367.44 -280.75,534.31 132.14,53.16 242.53,-337.1 301.22,-439.24 51.32,-89.24 43.71,-9.91 124.86,-259.85 28.64,-88.22 67.5,-181.51 107.67,-297.57 141.64,-409.31 177.9,-931.75 165.64,-1418.27 378.63,-16 871.58,-119.72 1212.59,-77.24 -49.58,59.45 -57.11,56.22 -78.05,129.59 -113.37,450.55 -125.63,694.92 -116.52,1202.59 5.36,298.16 42.69,311.31 99.58,541.76 78.57,318.37 121.29,655.21 338.64,970.74 120.01,174.23 75.49,263.3 202.57,428.3 184.96,240.11 222.75,89.16 486.48,481.07 76.56,113.71 389.36,358.5 508.05,457.11 181.64,150.82 641.47,268.54 890.77,370.34 304.76,124.48 1307.71,248.06 1734.01,214.78 215.94,-16.85 122.06,-22 232.2,-65.75l537.97 -48.98c207.04,42.68 -56.22,79.88 269.01,70.69 125.03,-209.85 -65.16,-209.85 544.99,-381.74 504.61,-142.19 384.98,-333.1 590.45,-604.62 83.71,-110.65 88.09,-68.31 181.67,-151.51l113.85 -107.5c6.51,-4.25 16.64,-9.61 23.27,-13.44 6.86,-3.92 18.43,-8.9 24.86,-12.22 6.59,-3.4 20.6,-8.77 26.13,-11.4l249.81 -384.34c88.56,-167.51 105.76,-284.07 180.4,-457.41l15.54 84.6c11.1,154.74 -27.45,58.05 9.87,228.37 37.62,-47.16 17.02,-12.34 46.56,-85.33 85.37,-211.09 129.42,-947.29 117.2,-1155.82 -165.04,113.54 -250.87,480.34 -583.38,799.95 -385.4,370.47 -342.46,300.88 -775.19,563.51 -258.62,156.99 -813.53,173.89 -1177.1,161.25 -448.64,-15.58 -1101.98,-311.52 -1448.06,-555.89 -127.85,-90.26 -273.99,-185.55 -381.19,-286.88 -438.81,-414.85 -822.51,-1095.39 -990.45,-1686.56 -155.33,-546.78 -88.43,-650.62 -55.07,-1209.74l-898.22 220.62c-269.3,53.32 -624.36,212.27 -906.39,162.74z"/>
    <path class="fil5" d="M16773.15 5739.74c798.63,-43.8 539.12,-6.05 632.74,-181.64 156.02,-3.45 274.54,-6.13 329.78,-112.14 95.88,-184.1 -29.83,-361.74 -62.34,-434.26l-81.29 -211.93c-36.09,-97.5 -66.22,-242.33 -113.16,-341.27 -91.5,-192.79 -91.16,-2.05 -109.33,-298.42 -8.81,-143.93 6.64,-565.8 -33.28,-685.56l-61.58 -144.91c-5.24,-27.83 -5.36,-70.47 -6.05,-100.18 -1.82,-75.16 1.62,-147.72 -1.27,-226.36 -10.39,-281.1 -37.54,-483.07 -87.46,-742.12l-350.42 -1074.63c-92.43,-157.71 -10.81,-6.25 -134.48,-111.96 -137.42,-117.51 14.77,-125.72 -330.2,-272.16 -62.78,-26.68 16.13,-43.62 -117.46,-21.19l-34.43 -237.6 -258.75 -19.58c-24.9,-53.15 23.57,31.53 -9.88,-40.6 -1.1,-2.43 -5.1,-12.55 -6.64,-15.32 -142.05,-257.69 -397.78,-229.43 -493.28,-240.32 -364.85,-41.67 -1317.29,-35.5 -1610.72,135.54 -45.67,26.6 -176.49,151.42 -244.11,196.7 -229.52,153.81 -525.93,192.32 -757.1,595.77 -150.4,262.49 -10.9,-52.73 -264.16,395.53l-87.97 134.74c-80.3,126.6 -51.15,113.71 -94.86,344.41 -17.96,94.82 -39.02,301.65 4.68,379.87 39.84,71.29 528.66,248.97 601.09,279.78 71.71,30.51 108.05,53.71 148.61,63.03 88.14,20.3 119.89,-39.33 266.24,118.48 44.9,48.43 63.84,79.37 108.86,112.94 118.78,88.57 482.95,197 579.85,315.95 107.84,132.31 64.48,118.31 237.35,209.6 645.59,340.76 370.16,386.89 714.84,550.44 159.84,75.84 212.95,197.85 433.96,459.2 37.28,44.09 20.04,24.93 49.83,69.79l342.63 434.26c135.85,223.04 87.12,40.68 230.32,215.34l199.47 244.92c90.18,135.29 64.31,329.78 347.78,297.9 223.18,-25.11 -57.15,-16.64 122.19,-42.04z"/>
    <path class="fil1" d="M11375.82 16399.19c8.04,5.27 22.51,-0.09 26.42,11.57 3.83,11.45 20.64,8.98 25.84,11.88 175.85,98.65 80.94,72.35 163.16,170.27 61.75,73.54 62.9,29.28 146.74,152.14l31.66 52.39c3.92,6.39 9.71,19.2 16.01,27.88 117.54,-83.25 255.04,-259.6 471.88,-150.32 214.78,108.27 190.99,235.18 218.49,522.82 1016.06,41.63 2331.77,-204.74 3003.37,-940.86 100.31,-109.88 -20.3,17.7 52.69,-54.05 5.19,-5.1 13.36,-12.47 18.64,-17.62l38.6 -35.87c581.42,-591.21 446.69,-1702.44 -328.37,-2254.83 -929.17,-662.24 -2300.29,-337.19 -3189.61,222.49l-498.14 433.36c-61.24,73.5 -156.83,174.06 -220.75,261.14 -147.72,201.21 4.9,437.36 41.33,710.58 47.83,359.23 -10.52,572.87 -17.96,877.03z"/>
    <path class="fil8" d="M-741.54 18148.09l14911.1 0c-140.57,-192.78 -320.46,-327.31 -470.74,-496.86 -375.52,-423.57 -862.51,-22.08 -1741.24,-209.85 -599.43,-128.1 -303.05,122.7 -693.01,-259.81l-69.28 80.86c-267.95,312.03 -315.65,-21.45 -727.78,204.02 -1172.12,641.3 -3716.18,553.93 -4781.48,-64.73 -218.45,-126.87 -444.98,-411.41 -579.08,-576.57 -188.66,-232.33 -219.43,-485.2 -330.08,-784.64 -281.22,-20.04 -1181.36,327.65 -1441.47,472.65l-947.93 497.54c-1246.13,654.02 -1870.83,745.35 -3129.01,1137.39z"/>
    <path class="fil9" d="M2764.15 12830.22l160.7 50.9c23.4,3.19 101.63,0.51 132.31,1.19 -148.95,382.93 230.02,199.47 375.87,233.3 154.95,35.92 -39.24,-7.87 109.58,66.43 237.56,118.53 139.68,-75.96 396.39,157.85 107.33,97.75 358.76,204.45 549.29,211.68 685.05,25.88 713.39,-26.64 941.54,-270.88 4.68,-5.02 11.62,-13.7 16.64,-18.21l1130.08 -239.05c200.02,-18.89 948.57,-243.22 1163.48,-331.14 1.11,-0.47 114.65,-57.32 124.19,-63.62 54.64,-36.01 33.91,-24.43 63.66,-49.2l141.38 -116.99c75.54,-44.26 67.37,-22.17 128.82,-57.41 94.18,-54.09 273.22,-306.63 348.5,-398.6 195.85,-239.08 172.32,-82.56 307.65,-254.79 216.37,-275.43 109.29,-20.89 302.08,-252.66l165.16 -207.6c79.54,-121.33 61.84,-147.21 118.4,-256.54 51.66,-99.92 149.8,-131.54 191.59,-174.44l142.61 -235.77c99.21,-188.44 186.41,-271.43 248.37,-496.82 9.79,-35.62 25.11,-102.77 38.94,-150.44 85.58,-294.45 -125.12,-301.39 32.39,-374.55 53.36,-129.29 134.05,-267.35 116.86,-413.23 -37.32,-170.32 1.23,-73.63 -9.87,-228.37l-15.54 -84.6c-74.64,173.34 -91.84,289.9 -180.4,457.41l-249.81 384.34c-5.53,2.63 -19.54,8 -26.13,11.4 -6.43,3.32 -18,8.3 -24.86,12.22 -6.63,3.83 -16.76,9.19 -23.27,13.44l-113.85 107.5c-93.58,83.2 -97.96,40.86 -181.67,151.51 -205.47,271.52 -85.84,462.43 -590.45,604.62 -610.15,171.89 -419.96,171.89 -544.99,381.74 -325.23,9.19 -61.97,-28.01 -269.01,-70.69l-537.97 48.98c-110.14,43.75 -16.26,48.9 -232.2,65.75 -426.3,33.28 -1429.25,-90.3 -1734.01,-214.78 -249.3,-101.8 -709.13,-219.52 -890.77,-370.34 -118.69,-98.61 -431.49,-343.4 -508.05,-457.11 -263.73,-391.91 -301.52,-240.96 -486.48,-481.07 -127.08,-165 -82.56,-254.07 -202.57,-428.3 -217.35,-315.53 -260.07,-652.37 -338.64,-970.74 -56.89,-230.45 -94.22,-243.6 -99.58,-541.76 -9.11,-507.67 3.15,-752.04 116.52,-1202.59 -159.72,46.04 -80.69,-4.69 -148.14,194.48 -25.28,74.69 -35.96,120.48 -51.45,195.05 -118.82,572.65 20.04,1280.94 157.42,1835.97 37.24,150.32 94.69,178.45 147.84,381.02 81.37,309.86 300.76,309.27 330,716.46 222.95,92.39 67.02,-5.53 207.89,147.55l484.01 448.13c234.92,252.28 98.22,76.73 312.63,243.13 119.67,92.86 96.86,73.84 247.94,125.59 153.59,52.6 129.58,66.18 260.07,110.14 752.67,253.77 637.77,291.13 1406.65,376.46 874.78,97.12 1058.24,-142.31 1262.82,-36.98 -64.9,138.87 -6,0.64 -106.78,109.88 -200.53,217.3 8.72,140.23 -312.33,284.03l-904.73 289.35c-96.74,40.65 -126.7,88.52 -257.86,140.1 -299.65,117.8 -48.3,15.54 -229.81,187.94 -236.79,224.87 -736.46,150.35 -1047.9,149.2 -832,-3.1 -441.58,347.96 -1227.4,335.53 -462.22,-7.28 -404,12.04 -756.93,43.83l28.42 147.29 -105.24 27.88z"/>
    <path class="fil10" d="M16422.64 17067.6c115.12,138.86 1380.4,718.07 1662.09,846.77l527.8 233.72 2292.03 0 0 -1441.85 -186.11 -6.94c-40.77,-82.81 -18.6,-64.73 -48.43,-173.16 -71.37,-259.52 -434.3,-658.33 -704.2,-759.36 83.84,344.8 192.53,262.96 385.32,439.15 149.2,136.32 201.76,313.82 120.82,495.2 -77.84,174.41 -114.61,175.55 -276.2,193.6 -331.35,36.98 -221.56,144.95 -964.99,145.76 -508.4,0.55 -952.49,-20.64 -1452.84,-44.77 -234.19,-11.28 -867.79,-91.08 -1058.58,-18.39 -179.85,68.52 -32.34,101.72 -296.71,90.27z"/>
    <path class="fil8" d="M12534.53 7369.05l1.28 248.33c59.03,34 74.18,23.87 101.67,40.47 216.15,130.69 2.21,185.21 254.03,115.46 35.62,294.8 145.12,216.79 342.84,336.67 128.18,77.76 28.77,107.76 415.11,289.65 430.04,202.45 1417.76,162.4 1839.3,-129.46 70.56,-48.86 24.81,-20.64 117.37,-62.3 340.76,-153.51 79.54,-155.38 373.02,-341.79 139.25,-88.47 269.35,-262.19 298.41,-401.48 45.62,-218.71 -19.91,-222.15 178.66,-214.88 -87.37,-417.53 -429.58,-1058.87 -649.17,-1422.02l-116.06 -229.81c-3.62,-7.11 -8.34,-17.06 -12.21,-23.7l-146.1 -128.74c-29.54,1102.84 -57.63,1471.51 -795.83,1959.57 -450.35,297.73 -1143.57,375.52 -1690.69,175.84 -167.85,-61.28 -377.66,-171.16 -511.63,-211.81z"/>
    <path class="fil4" d="M13016.46 8600.54l136.86 73.71 70.99 70.69c87.54,58.31 237.13,75.58 341.01,106.23 239.64,70.64 134.53,140.22 386.47,213.68l402.72 191c6.81,4.17 15.75,10.38 22.68,14.47l391.87 164.57c208.41,104.94 898.82,67.45 1071.95,-27.62 260.79,-143.25 48.94,-320.21 496.9,-112.99 147.04,68.05 95.84,17.1 163.04,143.71 -21.11,-185.08 43.62,-551.12 44.13,-778.25 0.55,-245.43 -58.39,-603.68 -9.7,-823.87l-79.16 -586.15c-198.57,-7.27 -133.04,-3.83 -178.66,214.88 -29.06,139.29 -159.16,313.01 -298.41,401.48 -293.48,186.41 -32.26,188.28 -373.02,341.79 -92.56,41.66 -46.81,13.44 -117.37,62.3 -421.54,291.86 -1409.26,331.91 -1839.3,129.46 -386.34,-181.89 -286.93,-211.89 -415.11,-289.65 -197.72,-119.88 -307.22,-41.87 -342.84,-336.67 -251.82,69.75 -37.88,15.23 -254.03,-115.46 -27.49,-16.6 -42.64,-6.47 -101.67,-40.47l-1.28 -248.33c-66.6,-89.92 -201.08,-166.48 -294.54,-281 -80.13,-98.14 -162.65,-253.6 -293.48,-281.27 100.36,402.3 866.82,1686.01 1069.95,1793.76z"/>
    <path class="fil3" d="M-2804.56 1459.37c233.85,-13.02 440.64,-128.48 630.87,-201.12l557.64 -261.56c212.15,-116.74 1040.02,-257.18 1271.41,-370.64 309.52,-151.8 476.09,-139.16 681.47,-250.75 415.45,-225.85 506.69,-79.24 897.88,-218.96 638.92,-228.15 785.66,-107.58 1007.81,-204.44l-5047.08 0 0 1507.47z"/>
    <path class="fil8" d="M14535.64 18148.09l3622.59 0c-335.95,-83.75 -745.23,-316.71 -1050.62,-482.9 -318.97,-173.51 -685.52,-353.35 -1009.73,-521.41 -971.29,-503.5 -632.57,-320.72 -1692.47,58.17l-529.38 180.66c-4.29,-7.45 -15.91,13.53 -22.89,21.28 82.43,133.93 13.62,29.62 98.31,107.92 306.03,282.97 327.31,390.17 584.19,636.28z"/>
    <path class="fil9" d="M16500.95 9437.99c-67.2,-126.61 -16,-75.66 -163.04,-143.71 -447.96,-207.22 -236.11,-30.26 -496.9,112.99 -173.13,95.07 -863.54,132.56 -1071.95,27.62l-391.87 -164.57c-6.93,-4.09 -15.87,-10.3 -22.68,-14.47l-402.72 -191c-251.94,-73.46 -146.83,-143.04 -386.47,-213.68 -103.88,-30.65 -253.47,-47.92 -341.01,-106.23l-70.99 -70.69c2.21,256.97 -289.52,20.64 -316.84,357.15 138.4,91.28 -142.06,-68.78 64.99,17.23 112.22,46.65 -9.5,-61.45 61.15,42.39 39.92,58.73 -1.28,79.8 104.9,183.89 0.22,0.17 143.64,114.06 145.68,115.5 155.08,110.31 239.34,91.76 383.19,323.87 341.61,551.33 777.44,389.27 1112.33,561.8 244.87,126.18 898.9,58.18 1208.38,49.11 120.61,-133.71 131.72,-160.23 281.09,-227.94 110.44,-50.04 164.7,-205.51 215.09,-313.9 27.92,-60.01 11.53,-27.75 35.28,-74.77 48.05,-95.21 7.32,15.02 38.77,-70.57 42.39,-115.28 33.45,-62.39 13.62,-200.02z"/>
    <path class="fil4" d="M17294.05 1095.8c34.69,125.85 67.58,146.57 109.67,304.55 33.5,125.75 66.18,231.04 113.55,369.48 86.05,251.52 43.58,554.61 86.9,828.3 85.11,79.16 27.24,-27.24 70.99,139.38 8.93,34.04 16.81,125.93 21.66,165.89l884.6 -884.69c343.87,-462.09 312.29,-405.02 468.6,-876.31 50.65,-152.56 46.82,-237 38.09,-417.87 -261.3,-76.3 -424.43,-137.46 -674.79,-162.06 -173.72,-17.11 -422.13,-122.95 -783.57,-61.83 -182.75,30.89 -217.94,97.54 -499.08,107.2 22.47,323.01 132.02,214.62 163.38,487.96z"/>
    <path class="fil4" d="M8128.88 5037.15c-748.29,334.67 -321.05,2184.31 699.27,1851.51 394.63,-128.69 409.78,-784.08 241.68,-1170.12 -141.97,-325.95 -432.13,-908.9 -940.95,-681.39z"/>
    <path class="fil4" d="M12862.31 4479.43c-742.76,191.47 -498.52,1921.52 451.24,1801.98 220.28,-27.75 370.59,-168.61 397.36,-372.64 44.13,-336.71 -16,-417.66 -91.88,-672.15 -100.73,-337.95 -331.31,-866.81 -756.72,-757.19z"/>
    <path class="fil11" d="M10833.38 12843.46c-8.98,-114.87 -951.89,-603.9 4.51,-825.62 599.25,-138.95 295.26,-578.91 467.45,-941.51 214.66,-452.08 794.08,-17.87 1002.36,-9.61 296.97,11.74 350.34,-213.17 593.08,-68.9 159,94.47 209.13,274.32 305.44,404.29 130.95,176.7 229.17,135.72 484.6,185.09 46.9,327.22 -2.17,304.03 -156.1,525.8l-94.01 155.76c264.92,128.05 493.03,-293.1 491.42,-520.61 -3.83,-529.33 -393.62,-197.64 -602.62,-503.37 -148.99,-218.02 -207.68,-563.98 -648.41,-479.29 -182.7,35.11 -222.92,169.85 -424.77,102.91 -129.97,-43.11 -232.79,-147 -404.34,-179.47 -376.04,-71.2 -663.3,84.35 -726.84,358.51 -95.88,413.91 107.29,681.9 -365.65,786.89 -343.7,76.26 -591.38,139.46 -540.66,577.97 27.62,238.88 380.09,594.53 614.54,431.16z"/>
    <path class="fil10" d="M-2804.56 18148.09l1579.57 0c37.66,-35.36 9.06,-18.98 76.31,-51.83 109.96,-53.84 420.04,-80.35 546.56,-185.38 -146.78,-22.35 -118.65,-6.05 -267,10.42 -237.65,-201.17 8.98,-33.66 -345.02,-140.78 -8.81,-2.64 -18.09,-6.68 -26.64,-9.66 -8.47,-2.89 -17.58,-7.62 -25.92,-10.72l-576.48 -200.62c-165.3,-79.03 -804.17,-367.44 -961.38,-378.59l0 967.16z"/>
    <path class="fil1" d="M9932.39 17443.64c241.64,-169.42 159.46,-13.32 318.84,-124.4l256.67 51.32 -25.37 -346.33c187.81,28.3 71.75,35.7 128.49,-50.38 125.75,38.89 28.55,-3.97 143.41,53.71 -46.69,-59.04 -56.77,-55.12 -78.65,-144.66 68.86,-131.76 133.72,-139.94 309.87,-158.32l-113.33 -131.37c322.32,-119.25 331.91,-975.34 161.72,-1418.32 -181.42,-472.18 -466.99,-715.82 -886.74,-938.31 -975.42,-516.99 -2065.07,-344.85 -3200.25,-203.47 -34.42,72.78 -234.44,46.95 -415.06,100.73 -181.38,54.01 -271.99,149.56 -450.09,244.79 -809.32,432.69 -1338.65,1261.88 -812.64,2176.06 75.67,131.5 193.39,267.52 283.65,388.68 54.82,83.93 11.23,25.37 63.24,69.88l76.39 55.71c-20.26,149.59 -63.33,203.85 61.41,281.13l94.31 -45.36 -6.21 -594.79c103.15,48.56 95.07,151 137.2,273.9 43.11,125.72 87.29,192.24 119.8,337.7l75.32 3.07 176.07 121.24c115.07,57.32 129.76,53.53 264.07,53.49l1672.43 168.62c668.2,17.57 1117.65,-13.02 1645.45,-224.32z"/>
   </g>
  </g>
  <polygon class="fil12" points="-0,0 18100,0 18100,18100 -0,18100 "/>
 </g>
</svg>
