<?xml version="1.0" encoding="UTF-8"?>
<!DOCTYPE svg PUBLIC "-//W3C//DTD SVG 1.1//EN" "http://www.w3.org/Graphics/SVG/1.1/DTD/svg11.dtd">
<!-- Creator: CorelDRAW 2017 -->
<svg xmlns="http://www.w3.org/2000/svg" xml:space="preserve" width="200mm" height="200mm" version="1.1" style="shape-rendering:geometricPrecision; text-rendering:geometricPrecision; image-rendering:optimizeQuality; fill-rule:evenodd; clip-rule:evenodd"
viewBox="0 0 20000 20000"
 xmlns:xlink="http://www.w3.org/1999/xlink">
 <defs>
  <style type="text/css">
   <![CDATA[
    .fil4 {fill:black}
    .fil9 {fill:#130800}
    .fil12 {fill:#414141}
    .fil7 {fill:#5598FF}
    .fil8 {fill:#637072}
    .fil6 {fill:#74777E}
    .fil17 {fill:#758DA7}
    .fil15 {fill:#7C7C7C}
    .fil13 {fill:#848484}
    .fil14 {fill:#898989}
    .fil10 {fill:#909FA3}
    .fil1 {fill:#A7D7FF}
    .fil11 {fill:#AADBFF}
    .fil16 {fill:#ADADAD}
    .fil0 {fill:#C9D2D5}
    .fil2 {fill:#D5D5D5}
    .fil5 {fill:#D5ECF2}
    .fil3 {fill:white}
   ]]>
  </style>
 </defs>
 <g id="Capa_x0020_1">
  <metadata id="CorelCorpID_0Corel-Layer"/>
  <g id="_2850195390016">
   <g>
    <path class="fil0" d="M11733.48 876.68c-289.49,-104.89 -388.43,116 -447.94,314.92l142.28 262.7 374.12 -43.06c153.8,-199.5 189.2,-441.21 -68.46,-534.56z"/>
    <path class="fil0" d="M10628.07 564.58c304.49,222.47 573.94,-9.36 319.8,-410.96l-350.5 77.04 30.7 333.92z"/>
   </g>
   <g>
    <path class="fil1" d="M5916.33 17563.4c42.64,-82.7 52.36,-21.11 62.36,-191.63l-204.48 -1570.23 -429.17 -273.31c-340.5,-269.94 -815.04,-708.25 -1208.3,-914.46 325.92,902.37 1356.27,2028.58 1779.59,2949.63z"/>
    <path class="fil1" d="M3283.08 9026.62c-328.09,-139.95 -485.91,-327.41 -771.87,-553.71 -143.04,-113.2 -204.28,-148.26 -392.31,-305.05 -328.33,-273.82 -355.9,-141.36 -147.52,-277.4l-500.56 -215.16c133.53,235.49 1528.3,2513.03 1816.91,2763.66l-4.65 -1412.34z"/>
    <path class="fil1" d="M14939.7 15315.46c-97.42,81.39 31.84,-52.83 -124.22,120.64l-219.33 288.98c-411.71,576.29 -473.22,648.7 -388.74,1690.58 280.35,-440.61 585.79,-863.59 891.98,-1359.44 271.31,-439.44 683.83,-982.68 849.89,-1442.45 -455.72,238.95 -579.53,477.49 -1009.58,701.69z"/>
    <path class="fil1" d="M4891.61 13655.95c151.6,322.56 1346.17,2250.23 1567.77,2413.44l19.65 -1418.47c-404.79,-136.16 -1152.32,-729.88 -1587.42,-994.97z"/>
    <path class="fil1" d="M18028.62 7890.46c105.74,120.07 287.6,-85.48 -147.52,277.4 -167.81,139.94 -213.63,167.47 -342.99,267.23 -307.32,237.01 -369.66,362.98 -745.09,536.08l209.3 223.79 49.84 817.48c469.4,-814.26 1035.71,-1558.91 1469.17,-2356.52l-492.71 234.54z"/>
    <path class="fil1" d="M5216.38 8163.71c-163.93,-462.3 -605.46,-706.35 -689.97,-1178.7 -174.44,-290.91 -30.59,-178.68 -314.41,-266.82l401.52 1447.65 602.86 -2.13z"/>
    <polygon class="fil1" points="15142.79,6900.14 14353.57,8163.71 14936.29,8160.67 15325.18,6711.22 "/>
    <path class="fil1" d="M14213.84 15431c218.57,-325.84 571.51,-636.45 726.11,-1014.57l-751.02 118.1 24.91 896.47z"/>
   </g>
   <g>
    <path class="fil2" d="M4084.17 10755.15l7.93 1457.79 613.36 430.56 48.91 -1368.09 414.28 1412.93 438.53 -952.68 -69.8 1588.84 776.69 493.05c-141.8,-462.67 -93.62,-4078.78 -40.91,-4776.48 -268.14,321.61 -37.03,1196.72 -155.62,1670.24l-2033.37 43.84z"/>
    <path class="fil2" d="M13434.76 16351.86l-2050.67 -6.12c0,-511.99 85.84,-1559.26 -129.08,-1904l9.81 3159.21 638.45 425.39 68.75 -1200.99 399.75 1234.42 421.42 -1018.77 -84.21 1632.45 742.8 568.53 -17.02 -2890.12z"/>
    <path class="fil2" d="M9237.25 16351.86l31.53 1872.01 1049.73 784.55 757.02 -868.71 -0.22 -1804.16 -612.88 10.19c5.48,-228.03 17.01,-478.42 16.7,-703.77 -1,-704.01 -131.58,-621.36 -162.04,-657.67l11.27 3019.15c-270.75,-181.47 -358.1,-168.72 -387.51,-545.47l17.75 -2444.79c-139.72,293.74 -75.38,912.89 -75.46,1324.72l-645.89 13.95z"/>
    <path class="fil2" d="M12276.85 10714.39l-1805.6 46.86 -36.86 1544.8 699.4 559.78c35.89,-439.63 -99.79,-1231.2 113.4,-1505.8l257.97 15.87c420.05,1127.19 -665.98,1712.76 792,2390.59l-20.31 -3052.1z"/>
    <path class="fil2" d="M13737.79 10705.32l-1145.5 13.14c-109.79,-609.13 40.42,-985.98 -82.92,-1506.31l-54.32 -146.21 24.75 3366.3 686.38 438.88 -1.53 -1605.32c529.08,161.67 451.43,168.72 448.45,760.85 -2.14,426.19 18.83,809.85 -60.68,1199.06l755.26 540.22 -50.83 -2592.97c-68.07,-41.23 -311.24,-164.86 -335.28,-185.51 -191.97,-164.98 -126.56,-19.31 -183.78,-282.13z"/>
    <path class="fil2" d="M7802.31 10691.98l-1370.31 32.6 -10.19 1452.4 1846.66 1474.9 -28.04 -2235.7c-847.84,3.83 -680.85,-9.6 -685.39,572.26l-446.38 -283.35 0 -640.79 681.46 -0.74 12.19 -371.58z"/>
    <path class="fil2" d="M9032.87 16865.41l-646.28 0 7.22 516.33 -74.19 -6.07 -422.98 -264.87 -2.05 -758.94 -601.83 -6.12c0,-395.94 61.04,-1578.01 -83.61,-1869.36l1.98 3061.25c520.23,527.82 1313.8,1043.39 1854.48,1515.87l-32.74 -2188.09z"/>
    <path class="fil2" d="M16264.52 10755.15l-545.35 0c0,-193.05 17.61,-435.49 12.56,-616.85 -3.58,-129.1 -9.02,-225.4 -47.18,-346.82 -75.8,-241.34 -2.05,-87.21 -136.97,-250.24 -496.22,-4.46 -398.64,74.22 -472.83,137.02l515.99 0 -19.24 1166.25 -449.99 252.48 -2.17 -335.74 -548.86 -42.79c-139.19,-564.39 24.02,-970.74 -86.79,-1507.99l-50.42 -144.53c-14.02,1174 127.48,2945.57 -50.81,4024.53 431.51,162.06 380.19,324.85 764.48,487.54l-0.52 -1690.31 1106.61 -628.07 11.49 -504.48z"/>
    <path class="fil2" d="M8982.04 10755.15c-11.02,828.75 109.22,1819.45 -77.24,2569.64 341.33,138.26 468.86,350.5 821.89,504.41 -174.15,-1044.24 -30.84,-2980.48 -39.49,-4126.51l-1.73 -81.6c-217.63,288.01 -90.36,670.51 -158.65,1091.93l-544.78 42.13z"/>
    <path class="fil2" d="M6208.36 18433.5c271.35,187 525.59,441.26 800.9,630.33l-72.63 -828.06c-244.08,-140.53 -423.3,-331.87 -664.76,-434.14l-63.51 631.87z"/>
   </g>
   <g>
    <path class="fil3" d="M13141.95 9716.32c121.15,-78.14 -31.96,-59.03 249.97,-86.58 101.53,-9.9 143.7,15.68 231.45,27.07 119.93,559.29 -23.89,510.01 -35.96,536.95l-448.51 231.62 3.05 -709.06zm-4159.91 1038.83l544.78 -42.13c68.29,-421.42 -58.98,-803.92 158.65,-1091.93l544.78 3.7c-1.32,-102.37 -11.21,-244.02 0.44,-342.74 35.62,-301.37 22.23,-103.13 65.63,-198.7 65.05,-19.38 -30.18,-66.44 114.42,5.36 102.4,50.86 -7.36,-30.62 62.49,106.03l-1.98 1566.51 1805.6 -46.86 -25.64 -1556.58 203.84 -91.87 54.32 146.21c123.34,520.33 -26.87,897.18 82.92,1506.31l1145.5 -13.14 560.9 -189.07 -68.76 -1379.99c-570.33,-284.72 -1999.2,-288.96 -2687.86,-162.62 4.07,304.61 3,606.98 9.46,911.61 15.34,723.42 -28.23,653.86 -218.4,744.05 -284.47,-151.67 -115.1,257.19 -193.53,-391.36l10.43 -1299.65 -2767.95 15.72 57.22 584.77 539.96 172 2.78 1044.37z"/>
    <path class="fil3" d="M11255.01 14441.74c214.92,344.74 129.08,1392.01 129.08,1904l2050.67 6.12 31.96 -2006.5c-712.52,-9.04 -847.61,-187.24 -1087.03,896.55 -560.29,-740.98 43.72,-907.47 -1045.44,-902.57l-79.24 102.4z"/>
    <path class="fil3" d="M4084.17 10755.15l2033.37 -43.84c118.59,-473.52 -112.52,-1348.63 155.62,-1670.24l-355.96 -106.37c-99.84,-11.26 -319.87,2.02 -420.07,6.66l-370.03 861.17 -330.65 -865.81 -805.63 0c199.75,494.27 95.11,1241.46 93.35,1818.43z"/>
    <path class="fil3" d="M9237.25 16351.86l645.89 -13.95c0.08,-411.83 -64.26,-1030.98 75.46,-1324.72l358.49 -28.89c30.46,36.31 161.04,-46.34 162.04,657.67 0.31,225.35 -11.22,475.74 -16.7,703.77l612.88 -10.19c-1.54,-1706.06 233.71,-1999.09 -858.27,-2007.91 -1279.81,-10.32 -963.35,432.48 -979.79,2024.22z"/>
    <path class="fil3" d="M14433.27 9065.94l50.42 144.53c110.81,537.25 -52.4,943.6 86.79,1507.99l548.86 42.79 -44.59 -1082.99c74.19,-62.8 -23.39,-141.48 472.83,-137.02 134.92,163.03 61.17,8.9 136.97,250.24 38.16,121.42 43.6,217.72 47.18,346.82 5.05,181.36 -12.56,423.8 -12.56,616.85l545.35 0 0.34 -1474.39c-327.8,-511.77 -1076.89,-344.04 -1749.38,-344.04 -215.62,66.91 -173.66,-26.3 -82.21,129.22z"/>
    <path class="fil3" d="M6432 10724.58l1370.31 -32.6 -12.31 -363.93 -682.39 -0.75 0 -660.45c427.37,13.36 521.55,129.97 1129.21,129.97l0 -643.69c-823.65,-336.31 -716.84,-216.41 -1917.7,-216.41 180.88,378.29 110.17,1247.34 112.88,1787.86z"/>
    <path class="fil3" d="M7209.15 14476.38c144.65,291.35 83.61,1473.42 83.61,1869.36l601.83 6.12 21.67 -1284.98c156.02,2.41 135.9,1.78 270.51,34.91 470.35,115.74 111,102.77 861.44,113.32l-41.35 -673.36c-234.4,-107.3 -2015.5,-476.52 -1797.71,-65.37z"/>
    <path class="fil3" d="M16793.02 8971.17c375.43,-173.1 437.77,-299.07 745.09,-536.08 129.36,-99.76 175.18,-127.29 342.99,-267.23 435.12,-362.88 253.26,-157.33 147.52,-277.4l-1615.23 696.84c140.33,176.93 194.28,182.17 379.63,383.87z"/>
    <path class="fil3" d="M3283.08 9026.62l-18.78 -588.72 -1292.92 -547.44c-208.38,136.04 -180.81,3.58 147.52,277.4 188.03,156.79 249.27,191.85 392.31,305.05 285.96,226.3 443.78,413.76 771.87,553.71z"/>
    <path class="fil3" d="M5216.38 8163.71l719.45 -1.07c-312.27,-324.31 -1033.22,-947.65 -1409.42,-1177.63 84.51,472.35 526.04,716.4 689.97,1178.7z"/>
    <polygon class="fil3" points="14353.57,8163.71 15142.79,6900.14 13667.4,8156.2 "/>
    <path class="fil3" d="M4136.74 14613.77c393.26,206.21 867.8,644.52 1208.3,914.46l429.17 273.31c-107.69,-197.21 -177.12,-313.29 -289.57,-500.51 -141.43,-235.44 -79.92,-230.83 -338.2,-348.67 -303.18,-138.26 -704.68,-338.89 -1032.94,-431.63l-7.87 110.66 31.11 -17.62z"/>
    <path class="fil3" d="M14939.7 15315.46c430.05,-224.2 553.86,-462.74 1009.58,-701.69l115.24 -145.29c-627.58,253.88 -868.63,219.31 -1124.82,846.98z"/>
   </g>
   <g>
    <path class="fil4" d="M6208.36 18433.5l63.51 -631.87c241.46,102.27 420.68,293.61 664.76,434.14l72.63 828.06c-275.31,-189.07 -529.55,-443.33 -800.9,-630.33zm3028.89 -2081.64c16.44,-1591.74 -300.02,-2034.54 979.79,-2024.22 1091.98,8.82 856.73,301.85 858.27,2007.91l0.22 1804.16 -757.02 868.71 -1049.73 -784.55 -31.53 -1872.01zm5702.45 -1036.4c256.19,-627.67 497.24,-593.1 1124.82,-846.98l-115.24 145.29c-166.06,459.77 -578.58,1003.01 -849.89,1442.45 -306.19,495.85 -611.63,918.83 -891.98,1359.44 -84.48,-1041.88 -22.97,-1114.29 388.74,-1690.58l219.33 -288.98c156.06,-173.47 26.8,-39.25 124.22,-120.64zm-725.86 115.54l-24.91 -896.47 751.02 -118.1c-154.6,378.12 -507.54,688.73 -726.11,1014.57zm-10100.34 -910.27c328.26,92.74 729.76,293.37 1032.94,431.63 258.28,117.84 196.77,113.23 338.2,348.67 112.45,187.22 181.88,303.3 289.57,500.51 192.12,299.95 570.6,788.81 685.22,1220.05 -140.92,272.29 -238.49,410.16 -390.53,670.37l-152.57 -128.56c-423.32,-921.05 -1453.67,-2047.26 -1779.59,-2949.63l-31.11 17.62c-161.62,-185.14 -33.14,216.53 -134.39,-138.96 316.36,-163.84 73.24,-13.95 142.26,28.3zm9321.26 1831.13l17.02 2890.12 -742.8 -568.53 84.21 -1632.45 -421.42 1018.77 -399.75 -1234.42 -68.75 1200.99 -638.45 -425.39 -9.81 -3159.21 79.24 -102.4c1089.16,-4.9 485.15,161.59 1045.44,902.57 239.42,-1083.79 374.51,-905.59 1087.03,-896.55l-31.96 2006.5zm-5540.17 0l2.05 758.94 422.98 264.87 19.77 -573.23c307.05,-27.99 436.73,-78.83 693.48,62.97l32.74 2188.09c-540.68,-472.48 -1334.25,-988.05 -1854.48,-1515.87l-1.98 -3061.25c-217.79,-411.15 1563.31,-41.93 1797.71,65.37l41.35 673.36c-750.44,-10.55 -391.09,2.42 -861.44,-113.32 -134.61,-33.13 -114.49,-32.5 -270.51,-34.91l-21.67 1284.98zm-3002.98 -2695.91c435.1,265.09 1182.63,858.81 1587.42,994.97l-19.65 1418.47c-221.6,-163.21 -1416.17,-2090.88 -1567.77,-2413.44zm10825.25 -280.91l88.72 -737.15 595.47 -209.28c-104.45,281.59 -136.02,271.09 -310.54,490.34 -73.38,92.21 -93.57,127.44 -143.62,195.02 -15.68,21.16 -58.98,87.53 -75.95,107.93 -93.62,112.69 -58.8,71.78 -154.08,153.14zm-9443.7 -4333.97c-52.71,697.7 -100.89,4313.81 40.91,4776.48l-776.69 -493.05 69.8 -1588.84 -438.53 952.68 -414.28 -1412.93 -48.91 1368.09 -613.36 -430.56 -7.93 -1457.79c1.76,-576.97 106.4,-1324.16 -93.35,-1818.43l805.63 0 330.65 865.81 370.03 -861.17c100.2,-4.64 320.23,-17.92 420.07,-6.66l355.96 106.37zm9991.36 1714.08l-11.49 504.48 -1106.61 628.07 0.52 1690.31c-384.29,-162.69 -332.97,-325.48 -764.48,-487.54 178.29,-1078.96 36.79,-2850.53 50.81,-4024.53 -91.45,-155.52 -133.41,-62.31 82.21,-129.22 672.49,0 1421.58,-167.73 1749.38,344.04l-0.34 1474.39zm-2526.73 -49.83c57.22,262.82 -8.19,117.15 183.78,282.13 24.04,20.65 267.21,144.28 335.28,185.51l50.83 2592.97 -755.26 -540.22c79.51,-389.21 58.54,-772.87 60.68,-1199.06 2.98,-592.13 80.63,-599.18 -448.45,-760.85l1.53 1605.32 -686.38 -438.88 -24.75 -3366.3 -203.84 91.87 25.64 1556.58 20.31 3052.1c-1457.98,-677.83 -371.95,-1263.4 -792,-2390.59l-257.97 -15.87c-213.19,274.6 -77.51,1066.17 -113.4,1505.8l-699.4 -559.78 36.86 -1544.8 1.98 -1566.51c-69.85,-136.65 39.91,-55.17 -62.49,-106.03 -144.6,-71.8 -49.37,-24.74 -114.42,-5.36l-5.65 593.42 -603.47 25.92c8.65,1146.03 -134.66,3082.27 39.49,4126.51 -353.03,-153.91 -480.56,-366.15 -821.89,-504.41 186.46,-750.19 66.22,-1740.89 77.24,-2569.64l-2.78 -1044.37 -539.96 -172 -57.22 -584.77 2767.95 -15.72 -10.43 1299.65c78.43,648.55 -90.94,239.69 193.53,391.36 190.17,-90.19 233.74,-20.63 218.4,-744.05 -6.46,-304.63 -5.39,-607 -9.46,-911.61 688.66,-126.34 2117.53,-122.1 2687.86,162.62l68.76 1379.99 -560.9 189.07zm-5935.48 -13.34l-12.19 371.58 -681.46 0.74 0 640.79 446.38 283.35c4.54,-581.86 -162.45,-568.43 685.39,-572.26l28.04 2235.7 -1846.66 -1474.9 10.19 -1452.4c-2.71,-540.52 68,-1409.57 -112.88,-1787.86 1200.86,0 1094.05,-119.9 1917.7,216.41l0 643.69c-607.66,0 -701.84,-116.61 -1129.21,-129.97l0 660.45 682.39 0.75 12.31 363.93zm8990.71 -1720.81c-185.35,-201.7 -239.3,-206.94 -379.63,-383.87l1615.23 -696.84 492.71 -234.54c-433.46,797.61 -999.77,1542.26 -1469.17,2356.52l-49.84 -817.48 -209.3 -223.79zm-14821.64 -1080.71l1292.92 547.44 18.78 588.72 4.65 1412.34c-288.61,-250.63 -1683.38,-2528.17 -1816.91,-2763.66l500.56 215.16zm2555.03 -905.45c376.2,229.98 1097.15,853.32 1409.42,1177.63l-719.45 1.07 -602.86 2.13 -401.52 -1447.65c283.82,88.14 139.97,-24.09 314.41,266.82zm9827.16 1178.7l-686.17 -7.51 1475.39 -1256.06 182.39 -188.92 -388.89 1449.45 -582.72 3.04zm-6829.76 -686.41l449.46 -727.56 242.1 -314.54c55.68,-181.51 -84.17,-105.88 91.06,-144.11l373.8 -532.03 -27.67 -3693.64 2237.16 1.08c-50.32,804.43 -98.18,1460.81 -105.66,2312.62 -13.12,1497.4 184.97,938.6 514.77,1856.99l-1000.17 1.15c326.26,1268.15 1041.17,-241.37 1648.86,979.27l-1304.77 68.95c278.37,1182.53 1034.2,2.56 1892.15,767.57l-5441.02 117.15 429.93 -692.9zm-1007.19 616.95l-2837.53 -2190.37 554.93 2224.36c-1117.27,204.19 -2429.7,-793 -3469.6,-1045.71 256.77,659.28 1062.31,1835.08 1480.92,2515.23 792.66,1287.92 969.93,1052.7 1047.24,2907.04l1679.78 2027.22 -1724.88 -690.41c298.86,647.57 1673.87,2824.49 2193.64,3658.53 572.31,918.36 270.31,389.74 6.49,1258.42l1656.59 1186.02 733.32 -914.95c2123.28,683.65 2345.87,1136.69 4078.21,-271.07l1550.43 1233.2c535.3,-586.01 599.28,-774.77 749.02,-1650.79 62.39,-365.07 607.28,-1145.69 852.4,-1542.29 533.27,-862.78 1352.61,-2053.87 1774.17,-2949.02l-1183.77 466.44 1743.65 -2513.8 -1079.96 318.33 678 -442.65c45.32,-1983.95 1619.13,-3011.78 2235.91,-4595.45 -1087.2,264.22 -3029.55,1644.59 -3919,994.1l547.46 -2093.32 -2812.2 2153.73c-887.55,-2385.37 -2765.73,-2295.24 -1482.49,-6430.79l-3613.05 -23.26c267.48,843.37 491.36,581.74 481.9,1746.36 -5.07,626.04 139.58,1544.29 -139.04,2041.16 -247.97,442.24 -1499.79,2333.25 -1782.54,2623.74z"/>
    <path class="fil4" d="M10317.09 14984.3l-358.49 28.89 -17.75 2444.79c29.41,376.75 116.76,364 387.51,545.47l-11.27 -3019.15z"/>
    <polygon class="fil4" points="15119.34,10761.25 15121.51,11096.99 15571.5,10844.51 15590.74,9678.26 15074.75,9678.26 "/>
    <polygon class="fil4" points="13587.41,10193.76 13585.51,9716.32 13141.95,9716.32 13138.9,10425.38 "/>
    <path class="fil4" d="M10628.07 564.58l-12.39 121.85c-8.8,196.71 416.55,54.79 496.85,-59.1 57.23,-81.13 84.51,-153.2 63.74,-286.37 -45.23,-289.71 -117.4,-197.75 -213.75,-222.59l-14.65 35.25c254.14,401.6 -15.31,633.43 -319.8,410.96z"/>
    <path class="fil4" d="M9428.81 851.86c-2.97,-190.17 95.04,-143.87 137.41,10.99 36.94,135.05 -134.8,155.65 -137.41,-10.99zm36.62 219.76c399.99,-94.94 373.88,-385.19 -100.11,-381.38 -53.56,367.41 -99.59,205.31 100.11,381.38z"/>
   </g>
   <path class="fil5" d="M8680.23 5759.06c91.89,-12.1 428.42,-55.52 507.09,-46.55 585.84,66.69 215.92,-101.1 362.96,198.63 277.59,175.18 -83.56,-115.98 100.08,101.87l-135.53 451.67 -1299.46 -29.48 -242.1 314.54 1275.83 12.82 -88.6 718.08 -1636.69 -3.34 -429.93 692.9 5441.02 -117.15c-857.95,-765.01 -1613.78,414.96 -1892.15,-767.57l1304.77 -68.95c-607.69,-1220.64 -1322.6,288.88 -1648.86,-979.27l1000.17 -1.15c-329.8,-918.39 -527.89,-359.59 -514.77,-1856.99 7.48,-851.81 55.34,-1508.19 105.66,-2312.62l-2237.16 -1.08 27.67 3693.64z"/>
   <polygon class="fil6" points="7523.81,7477.3 9160.5,7480.64 9249.1,6762.56 7973.27,6749.74 "/>
   <path class="fil7" d="M5916.33 17563.4l152.57 128.56c152.04,-260.21 249.61,-398.08 390.53,-670.37 -114.62,-431.24 -493.1,-920.1 -685.22,-1220.05l204.48 1570.23c-10,170.52 -19.72,108.93 -62.36,191.63z"/>
   <path class="fil8" d="M8306.43 6291.09l1079.45 -25.01c88.57,-217.65 11.87,-215.21 164.4,-354.94 -147.04,-299.73 222.88,-131.94 -362.96,-198.63 -78.67,-8.97 -415.2,34.45 -507.09,46.55l-373.8 532.03z"/>
   <path class="fil9" d="M11801.94 1411.24l-374.12 43.06 -142.28 -262.7c59.51,-198.92 158.45,-419.81 447.94,-314.92 257.66,93.35 222.26,335.06 68.46,534.56zm-447.53 -549.92c-0.17,0.14 -393.6,204.62 -93.54,577.13 127.41,158.16 383.55,209.85 579.47,100.87 466.43,-259.41 87.85,-1153.16 -485.93,-678z"/>
   <path class="fil10" d="M8306.43 6291.09c-175.23,38.23 -35.38,-37.4 -91.06,144.11l1299.46 29.48 135.53 -451.67c-183.64,-217.85 177.51,73.31 -100.08,-101.87 -152.53,139.73 -75.83,137.29 -164.4,354.94l-1079.45 25.01z"/>
   <path class="fil11" d="M15716.86 13375.04c95.28,-81.36 60.46,-40.45 154.08,-153.14 16.97,-20.4 60.27,-86.77 75.95,-107.93 50.05,-67.58 70.24,-102.81 143.62,-195.02 174.52,-219.25 206.09,-208.75 310.54,-490.34l-595.47 209.28 -88.72 737.15z"/>
   <path class="fil12" d="M10615.68 686.43l12.39 -121.85 -30.7 -333.92 350.5 -77.04 14.65 -35.25 0 -126.61 -321.51 0 -213.35 95.76c-24.38,407.94 -110.57,378.93 188.02,598.91z"/>
   <path class="fil13" d="M8319.62 17375.67l74.19 6.07 -7.22 -516.33 646.28 0c-256.75,-141.8 -386.43,-90.96 -693.48,-62.97l-19.77 573.23z"/>
   <path class="fil14" d="M9685.47 9621.09l1.73 81.6 603.47 -25.92 5.65 -593.42c-43.4,95.57 -30.01,-102.67 -65.63,198.7 -11.65,98.72 -1.76,240.37 -0.44,342.74l-544.78 -3.7z"/>
   <path class="fil15" d="M13587.41 10193.76c12.07,-26.94 155.89,22.34 35.96,-536.95 -87.75,-11.39 -129.92,-36.97 -231.45,-27.07 -281.93,27.55 -128.82,8.44 -249.97,86.58l443.56 0 1.9 477.44z"/>
   <path class="fil16" d="M9428.81 851.86c2.61,166.64 174.35,146.04 137.41,10.99 -42.37,-154.86 -140.38,-201.16 -137.41,-10.99z"/>
   <path class="fil17" d="M4105.63 14631.39l7.87 -110.66c-69.02,-42.25 174.1,-192.14 -142.26,-28.3 101.25,355.49 -27.23,-46.18 134.39,138.96z"/>
  </g>
 </g>
</svg>
