<?xml version="1.0" encoding="UTF-8"?>
<!DOCTYPE svg PUBLIC "-//W3C//DTD SVG 1.1//EN" "http://www.w3.org/Graphics/SVG/1.1/DTD/svg11.dtd">
<!-- Creator: CorelDRAW 2017 -->
<svg xmlns="http://www.w3.org/2000/svg" xml:space="preserve" width="200mm" height="200mm" version="1.1" style="shape-rendering:geometricPrecision; text-rendering:geometricPrecision; image-rendering:optimizeQuality; fill-rule:evenodd; clip-rule:evenodd"
viewBox="0 0 20000 20000"
 xmlns:xlink="http://www.w3.org/1999/xlink">
 <defs>
  <style type="text/css">
   <![CDATA[
    .fil2 {fill:#FAF5E5}
    .fil10 {fill:#F7FBFE}
    .fil0 {fill:#EACC95}
    .fil7 {fill:#E19638}
    .fil14 {fill:#DEE1DD}
    .fil3 {fill:#DBB776}
    .fil6 {fill:#DBA749}
    .fil11 {fill:#D1883A}
    .fil17 {fill:#CEE6EE}
    .fil15 {fill:#C1BDBC}
    .fil9 {fill:#A7DAEB}
    .fil12 {fill:#7CCAE3}
    .fil1 {fill:#86B8C9}
    .fil8 {fill:#65B5CC}
    .fil5 {fill:#6797A7}
    .fil13 {fill:#2C3031}
    .fil4 {fill:#44636D}
    .fil16 {fill:#36545C}
    .fil18 {fill:#FEFEFE;fill-rule:nonzero}
   ]]>
  </style>
 </defs>
 <g id="Capa_x0020_1">
  <metadata id="CorelCorpID_0Corel-Layer"/>
  <g id="_2850308374432">
   <path class="fil0" d="M15673.4 19094.87l-4.43 43.96c85.21,-25.15 95.29,-81.7 192.09,-12.09 153.81,110.6 301.87,311.88 440.17,296.54 19.46,-120.56 -69.44,-159.36 -145.37,-211 -70.83,-48.17 -126.76,-113.98 -202.19,-159.05 8.9,-91.29 25.4,-38.18 30.56,-132.97 -3.89,3.28 -8.88,8.04 -11.25,10.32 -76.2,73.13 -189.31,168.26 -299.58,164.29z"/>
   <path class="fil1" d="M15376.37 16868.94l-23.39 95.91c94.1,-7.6 71.82,-25.05 119.68,-95.49 38.36,-56.44 68.73,-92.54 101.36,-141.54l383.19 -539.47c68.22,-98.51 125.51,-191.95 198.28,-259.87 -9.48,-99.7 12.09,-13.57 -23.07,-86.35 6.83,-43.4 -16.23,-8.54 42.66,-22.7 15.06,-3.63 51.94,-4.61 73.43,-7.99 52.05,-8.14 67.2,-21.15 114.65,-39.22 69.45,-26.48 160.03,-76.25 200.92,-78.46 -138.23,-19.41 -322.11,23.8 -471.68,37.14 -15.63,30.8 -3.67,41.69 9.86,79.81 -151.19,2.75 -102.3,-5.46 -236.18,226.81l-489.71 831.42z"/>
   <path class="fil1" d="M4516.52 16866.14c-65.07,-120.03 -538.59,-886.35 -546.07,-968.14 -90.68,-66.86 -12.55,-70.73 -120.55,-67.81 -72.4,1.96 -19.69,17.36 -110.14,43.94l752.59 1058.14c35.42,-27.89 33.74,44.96 24.17,-66.13z"/>
   <path class="fil1" d="M4311.72 14539.48c53.94,-98.75 44.77,-392.9 40.74,-527.11 -88.32,27.16 -317.24,334.18 -316.38,404.07 59.83,42.17 199,124.95 275.64,123.04z"/>
   <path class="fil1" d="M15550.47 14013.04c-2.67,48.31 18.5,470.09 29.25,500.08 38.1,106.22 287.8,-109.69 288.85,-116.75 3.34,-22.25 -236.62,-356.46 -318.1,-383.33z"/>
   <path class="fil1" d="M5014.67 18158.86c-19.3,163.8 33.28,289.86 26.61,463.29l8.38 118.69 57.16 -75.93c9.1,-22.45 19.43,-75.65 24.25,-96.33 35.06,-150.73 145.75,-459.74 137.3,-551.35 -83.99,13.53 -168.04,117.05 -253.7,141.63z"/>
   <path class="fil1" d="M14747.86 18734.21c27.71,-11.45 45.01,16.93 62.49,-99.51l25.95 -478.37c-89.78,-24.89 -169.31,-132.19 -258.9,-135.34 -1.48,137.03 192.9,589.9 170.46,713.22z"/>
   <path class="fil1" d="M3940.24 18804.15c40.83,138.46 162.61,218.37 309.69,231.32 -10.07,-45.12 -377.64,-606.94 -419.41,-663.49 0.08,140.69 69.24,294.92 109.72,432.17z"/>
   <path class="fil1" d="M15597.99 19048.43c71.73,-19.7 104.56,-43.22 158.58,-69.02 62.63,-29.91 91.35,-34.85 125.41,-95.25 37.01,-65.68 95.21,-290.17 101.64,-382.61 -82.28,29.93 -30.46,-4.44 -82.98,61.5 -67.52,84.76 -297.73,433.91 -302.65,485.38z"/>
   <path class="fil2" d="M16805.2 15559.39l7 -55.5c-163.33,-36.93 -947.24,-186.9 -1079.27,-170.11 -75.9,236.41 -393.6,928.29 -395.79,1161.01 100.58,-52.39 352.73,-561.73 479.37,-745.36 94.57,-137.13 267.22,-122.79 462.2,-142.98 101.1,-10.48 195.99,-1.5 293.91,-10.83 81.19,-7.74 139.27,-30.37 232.58,-36.23z"/>
   <path class="fil3" d="M1281.26 7296.21l2653.51 2153.83c45.44,89.05 9.15,163.79 76.32,256.94 -4.76,-110.73 -62.01,-440.57 -105.89,-495.07l-12.27 56.42 -1938.39 -1570.41c-123.04,-98.83 -562.91,-492.66 -673.28,-522.37l0 120.66z"/>
   <path class="fil3" d="M16021.23 9055.12c-33.79,38.59 -11.37,-15.34 -35.69,70.03 -4.9,17.16 -11.38,71.16 -13.17,90.55 -7.07,77.24 -5.13,127.43 -0.29,196.47 108.23,-28.64 612.69,-463.82 710.46,-550.66 228.95,-203.4 472.37,-373.54 689.33,-554.26l1028.7 -838.15c184.39,-159.46 300.36,-181.4 314.33,-335.12 -111.25,14.85 -147.44,64.41 -222.86,125.76l-2347.44 1908.65c-167.19,137.69 -149.71,76.55 -142.67,129.09l19.3 -242.36z"/>
   <path class="fil3" d="M1281.26 14312.28l2524.92 29.43c82.34,170.72 142,503.54 209.18,609.78 27.02,42.73 3.85,14.76 30.07,37.12 -12.14,-99.06 -93.46,-287.62 -124.03,-405.11 -16.56,-63.62 -54.95,-151 -56.62,-208.47 -3.61,-124.31 34.03,-92.65 82.79,-173.68l-2666.31 7.84 0 103.09z"/>
   <path class="fil3" d="M1281.26 11276.75c161.22,16.33 1620.79,566.61 1948.49,662.36 -16.4,-49.92 -20.88,-66.74 -36.46,-120.62 -8.64,-29.87 -7.91,-35.03 -22.35,-60.96 -28.75,-51.54 11.65,-2.87 -33.06,-38.77l16.58 81.72c-95.69,-6.37 -369.85,-116.07 -466.33,-155.21 -142.02,-57.6 -324.09,-109.21 -467.03,-161.32 -140.42,-51.18 -809.89,-309.65 -939.84,-322.17l0 114.97z"/>
   <path class="fil3" d="M16741.85 11761.32l-43.42 85.34c-34.58,105.71 -73.42,159.62 -86.49,248.69 55.34,-52.1 50.44,-98.86 77.38,-136.65 48.7,-68.36 1353.55,-494.72 1506.87,-551.2 100.35,-36.96 182.4,-62.27 291.17,-97.52 237.11,-76.84 215.19,-61 220.72,-146.26l-980.3 305.56c-83.44,28.99 -170.75,59.55 -259.39,87.76l-717.41 254.63 -9.13 -50.35z"/>
   <path class="fil3" d="M3439.76 16866.68c-28.25,-58.97 -114.74,-150.05 -157.57,-195.94 -60.9,-65.29 -79.76,-127.66 -152.24,-178.14 24.54,64.68 19.85,34.9 37,92.33 -88.14,57.91 -303.83,119.61 -414.05,150.72 -143.95,40.63 -256.96,103.02 -407.97,147.72l-616.33 221.88c-197.73,70.63 -168.51,22.5 -200.54,134.71 170.72,12.09 328.96,-78.17 456,-127.45l1263.99 -437.83c46.23,53.37 136.79,161.37 191.71,192z"/>
   <path class="fil3" d="M16640.67 16666.92l858.67 300.39c142.11,51.76 291.28,104.81 433.07,152.95 167.55,56.9 326.98,138.67 452.4,112.52 -18.7,-55.23 -3.87,-23.25 -38.74,-58.14 -43.82,-43.84 -274.92,-103.92 -359.81,-138.58 -295.62,-120.68 -1177.04,-404.21 -1255.99,-451.13 41.27,-88.34 106.64,-119.02 144.73,-235.58 -54.26,43.82 -85.32,100.4 -125.06,149.53l-109.27 168.04z"/>
   <path class="fil3" d="M15550.23 4482.02c30.42,82.38 40.12,86.55 87.52,151.63 23.71,32.55 26.72,42.31 46.01,72.7 34.7,54.68 10.65,30.28 58.22,69.55 -27.07,-155.94 110.2,-275.07 215.58,-474.16 42.31,-79.96 77.59,-141.41 125.87,-214.68 49.89,-75.71 111.11,-147.31 107.57,-250.47 -116.82,-4.46 -122.12,73.81 -169.47,148.31l-363.42 620.53 -107.88 -123.41z"/>
   <path class="fil3" d="M4208.33 4738.46c19.54,-62.81 4.5,-31.65 36.17,-87.64l53.29 -78.73 -67.3 6.33c-29.27,-87.69 -268.23,-458.62 -346.76,-596.19 -44.39,-77.78 -58.72,-150.68 -151.69,-164.44 -44.62,106.98 106.72,289.7 203.38,448.99 47.89,78.9 92.43,153.81 135.38,228l137.53 243.68z"/>
   <path class="fil3" d="M4147.46 19114.75c-47.01,-53.27 -80.64,-44.34 -161.98,-95.12l-120.44 -109.4c13.14,89.11 63.73,116.94 115.99,154.43 -55.21,11.35 -165.52,105.33 -214.92,147.2 -121.64,103.13 -150.62,101.95 -147.51,197.02 106.19,14.68 367.28,-229.85 432.67,-306.57l96.19 12.44z"/>
   <path class="fil4" d="M4347.41 17122.48c-89.51,35.94 -4.23,20.93 -95.9,47.12l-651.26 -816.14c-53.61,-67.65 -204.38,-196.26 -212.15,-290.57 58.26,-47.44 209.45,-112.33 301.48,-103.57l742.63 1047.27 -84.8 115.89zm-904.7 -1306.65l76.39 66.35c-27.37,26.31 17.13,-1.13 -52.35,40.71 -17.42,10.49 -17.49,8.97 -39.55,18.51 -105.03,45.46 -224.14,105.77 -335.79,119.43 5.08,-141.35 22.04,-185.51 42.86,-295.7 150.91,3.53 146.44,32.79 254.16,50.19 -49.81,-73.66 -196.87,-112.9 -291.33,-99.31l-59.01 378.23 102.26 17.25c-53.46,83.49 -42.42,101.69 -11.97,147.13 20.36,30.39 65.63,78.75 83.9,100.79 72.83,87.82 91.05,149.75 173.78,185.27 -48.7,-130.4 -231.96,-249.03 -250.19,-387.95 87.94,-25.17 131.8,-63.25 197.92,18.83 155.73,193.3 795.03,1034.75 860.56,1076.8 5.21,-4.2 21.07,-14.82 25.64,-17.67 86.27,-54.01 99.55,-35.19 127.42,-112.21 76.11,-27.51 60.91,-37.32 100.09,-98.79 62.94,-98.74 26.8,-34.28 110.94,-101.77l-41.92 -55.78c9.57,111.09 11.25,38.24 -24.17,66.13l-752.59 -1058.14c90.45,-26.58 37.74,-41.98 110.14,-43.94 108,-2.92 29.87,0.95 120.55,67.81 -42.01,-158.29 -148.09,-62.24 -170.9,-176.07 -2.01,-10 -5.23,-12.9 -9.63,-18.14 -159.19,-6.8 -328.9,-54.74 -471.6,-25.8 29.23,32.7 4.73,11.51 50.45,47.25 5.26,4.11 35.43,24.08 50.38,31.11 73.99,34.86 306.9,74.68 340.03,85.68 -67.29,36.53 -30.44,121.24 -159.17,60.86 -57.27,-26.86 -32.44,-57.76 -157.3,-87.06z"/>
   <path class="fil4" d="M14912.92 18330.69c74.86,52.51 190.32,267.6 254.92,361.71l251.16 388.47 -557.06 -167.61 50.98 -582.57zm-165.06 403.52c2.86,5.7 9.79,10.51 13.21,13.82 157.01,151.38 16.87,101.09 129.19,229.29 -80.11,-4.12 -83.54,-10.1 -140.27,-46.64 37.13,73.1 205.26,91.84 280.52,117.3 221.06,59.5 355,145.72 638.46,90.85l4.43 -43.96c-62,17.63 -210.12,36.03 -222.47,6.5 -2.59,-6.18 -10.07,-3.96 -14.78,-6.6 41.74,-169.21 38.47,11.65 114.27,-143.55 -63.03,29.24 -16.28,11.67 -80.17,25.3 -55.01,-61.59 -465.33,-678.23 -479.59,-744.86l96.12 14.95c-27.9,-34.77 44.53,-17.22 -59.5,-43.65 -77.08,-19.59 -7.54,-8.84 -47.6,4.71 -65.01,22.01 -0.47,1.71 -48.6,28.65 -11.48,6.43 -4.73,16.05 -59.14,31.04 -6.35,-72.58 9.86,-55.09 -35.64,-111.03l-25.95 478.37c-17.48,116.44 -34.78,88.06 -62.49,99.51z"/>
   <path class="fil4" d="M4435.41 19072.06c44.86,-64.97 85.77,-128.4 127.24,-190.71l364.31 -560.65c40.65,104.42 58.77,446.11 56.02,593.36 -74.19,40.91 -446.21,167.92 -547.57,158zm126.68 -771.86l306.31 -65.54c-14.74,49.79 -434.78,736.14 -520.25,747.47 55.8,89.31 46.65,6.39 68.02,133.68l-232.43 -8.41c127.31,156.36 580.1,-82.48 720.57,-52.47l-39.62 -26.15 169.79 -54.59 -78.61 -0.05c80.17,-57.52 61.98,-86.97 58.76,-200.37 -2.08,-72.81 -4.47,-141.75 -3.56,-214.83 -19.88,104.67 11.63,43.78 30.21,63.21 6.67,-173.43 -45.91,-299.49 -26.61,-463.29l-21.65 34.33c-3.03,5.56 -6.16,10.78 -9.2,16.75l-29.88 74.35c-61.07,-32.93 -24.41,-45.01 -100.35,-91.4 -104.7,29.77 -249.93,57.8 -291.5,107.31z"/>
   <path class="fil4" d="M4550.03 17076.83c25.7,-12.1 31.9,-10.85 49.77,-15.6 59,88.23 253.07,932.29 234.81,1066.48l119.22 -48.87c-26.94,-265.42 -197.83,-622.99 -204.15,-894.31 74.79,49.95 211.79,327.45 283.86,423.16 3.66,4.87 25.46,32.59 28.03,35.66l34.13 38.18c-1.61,-89.72 -10.56,-39.91 19.03,-73.72l119.81 163.21c-80.5,-177.32 -389.38,-527.21 -420.22,-663.03l177.97 -0.23c0,-50.04 14.49,-45.31 -29.43,-31.76l-189.54 26.91c-4.78,-3.63 -10.35,-8.83 -13.67,-11.69l-38.11 -33.14c-63.91,-51.38 -65.68,-34.22 -147.73,-45.15l-23.78 63.9z"/>
   <path class="fil5" d="M13642.01 16969.08c70.27,-117.73 646.94,-3816.35 753.66,-4477.08 38.36,-237.46 74.79,-495.48 123.25,-727.9 24.22,-116.19 40.11,-250.89 61.54,-382.54 21.51,-132.18 61.4,-277.32 -137.47,-229.44l-800.98 5816.96z"/>
   <path class="fil5" d="M6270.37 17231.21l39.29 0.55 -853.98 -6081.14c-217.88,-46.52 -152.13,117.02 -128.56,263.78l191.36 1148.8c89.56,510.77 177.39,1041.2 255.53,1548.39 71.3,462.74 499.91,2900.96 496.36,3119.62z"/>
   <path class="fil5" d="M14514.57 10916.89c113.29,69.88 111.4,49.88 232.53,-12.8l613.53 -332.37c-119.7,-4.59 -355.49,81.3 -482.27,112.53 -172.14,42.38 -304.68,72.76 -363.79,232.64z"/>
   <path class="fil5" d="M4609.4 10596.54c27.98,39.46 -2.3,9.09 44.82,44.77l330.62 171.58c233.73,120.76 268.56,183.91 390.47,109.88 -19.99,-164.18 -200.32,-203.11 -309.02,-228.59 -144.54,-33.86 -300.73,-104.77 -456.89,-97.64z"/>
   <path class="fil6" d="M8648.9 7387.7l1394.02 5.13 -11.64 -7392.83 -168.95 0 -0.05 7374.86 -1103.51 1.91 -998.23 -5321.79c-148.66,176.98 857.43,4655.05 888.36,5332.72z"/>
   <path class="fil6" d="M15732.93 15333.78c132.03,-16.79 915.94,133.18 1079.27,170.11l-7 55.5 87.36 3.46 59.71 247.07 -37.44 -270.23c320.4,-10.42 1677.25,335.45 1796.85,242.11 0.58,-170.5 -150.57,-124.55 -313.32,-149.93 -131.66,-20.53 -248.77,-43.52 -379.53,-62.25 -239.05,-34.23 -471.88,-89.85 -737.04,-126.56 -443.5,-61.42 -1026.91,-170.37 -1471.89,-264.32l283.44 -875.97c63.63,20.61 2555.55,52.64 2610.84,-26.86 -25.84,-97.04 -176.93,-61.79 -303.78,-60.97 -659.7,4.27 -1896.62,25.19 -2437.49,-2.15 101.99,202.37 65,277.46 -38.02,557.92 -51.64,140.58 -172.34,424.08 -191.96,563.07z"/>
   <path class="fil6" d="M13477.14 4415.44l488.35 -427.09 -76.09 32.89c32.17,-188.59 592.18,-1584.95 706,-1841.6 63,-142.06 103.62,-331.52 166.53,-480.74 53.03,-125.79 135.54,-318.37 183.91,-453.44 55.67,-155.47 105.38,-314 171.67,-472.9 108.73,-260.64 -39.33,-352.99 -154.29,-53.83 -230.13,598.81 -485.44,1250.5 -708.51,1880.67 -114.75,324.2 -219.93,613.05 -350.71,931.35 -60.11,146.34 -121.12,310.83 -178.02,466.2 -178.48,487.27 -93.29,192.77 -248.84,418.49z"/>
   <path class="fil6" d="M5949.21 3996.26l314.55 266.12c-168.63,-613.03 -473.35,-1263.82 -702.13,-1897.47 -127.67,-353.58 -233.34,-590.51 -349.86,-934l-266.89 -695.72c-39.88,-97.15 -45.71,-221.3 -178.37,-140.17 -77.68,89.1 1225.17,3155.31 1246.97,3433.21l-64.27 -31.97z"/>
   <path class="fil6" d="M16326.85 6723.49l31.24 494.01c120.83,-280.91 -109.87,-135.35 209.36,-458.1l1899.1 -2196.38c118.74,-140.64 259.61,-221.87 243.87,-457.66 -135.99,35.56 -236.98,220.07 -323.06,320.52 -88.71,103.53 -189.96,203.76 -295.09,325.73l-1601.58 1851.27c-101.74,126.57 -75.73,67.46 -163.84,120.61z"/>
   <path class="fil6" d="M1281.26 4409.85c105.69,44.65 217.78,225.76 287.16,302.8 110.3,122.48 176.12,194.33 271.4,310.14l412.17 469.21c44.67,56.9 82.2,115.39 130.57,173.92 82,99.21 192.89,198.94 279.39,301.49l551.44 633.56c94.86,103.19 175.66,271.11 317.33,305.98l39.45 -186.59c-99.22,-4.59 -55.63,-48.59 -158.79,-135.64l-1539.83 -1774.01c-81.93,-102.3 -194.56,-222.43 -282.09,-320.19 -72.23,-80.67 -202.74,-265.71 -308.2,-307.27l0 226.6z"/>
   <path class="fil6" d="M1281.26 15643.89l0 158.38c241.97,-13.52 562.19,-100.16 814.91,-141.48 264.1,-43.17 614.31,-120.84 882.7,-131.03 -5.89,174.16 -134.75,605.44 -27.91,716.47 -30.61,-143.96 -15.38,-294 14.99,-419.58 49.41,-204.21 -50.38,-275.98 158.52,-262.02 -27.38,-57.7 -14.81,-11.43 -24.35,-83.06 318.13,-33.3 903.44,-157.43 1059.4,-152.18l219.28 551.09c-30.25,-122.84 -307.1,-859.8 -333.37,-891.87l39.32 184.53c-459.23,48.8 -934.17,175.92 -1400.73,240.44 -316.1,43.72 -1241.14,220.28 -1402.76,230.31z"/>
   <path class="fil6" d="M16219.42 18122.44l70.74 -197.27c136.71,1.59 502.28,242.83 625.58,308.32 193.89,102.98 386.47,209.64 577.9,323.01 187.61,111.11 394.17,227.76 591.48,332.33 150.97,80.02 457.95,298.76 628.7,301.15 0.09,-162.99 -15.88,-119.13 -121.63,-188.66l-1953.52 -1095.65c-182.21,-125.38 -661.83,-316.78 -678.83,-416.35 -58.97,63.37 -24.39,71.82 27.44,123.28l281.53 300.22 -49.39 209.62z"/>
   <path class="fil6" d="M1281.26 19005.22l0 171.41c136.23,-30.22 2178.2,-1238.19 2268.25,-1253.82l37.57 57.03c-0.09,-181.28 289.46,-312.87 360.54,-461.26 -266.27,156.13 -2585.29,1471.76 -2666.36,1486.64z"/>
   <path class="fil6" d="M16354.55 10454.99c17.79,72.52 113.14,256.29 148.29,283.37 5.21,-89.74 419.36,-290.74 545.44,-362.41 192.62,-109.5 397.43,-221.85 589.52,-317.26 193.91,-96.32 375.64,-222.22 589.79,-332 108.01,-55.36 184.1,-111.06 290.13,-168.52 129.1,-69.98 216.75,-50.31 198.66,-237.78 -126,-14.79 -467.3,224.43 -586.31,285.42 -187.77,96.25 -371.82,204.73 -568.27,316.24 -196.18,111.36 -382.96,212.25 -562.87,318.13 -106.29,62.55 -459.95,275.15 -572.52,307.76l-71.86 -92.95z"/>
   <path class="fil6" d="M1281.26 9509.15c116.02,29.16 398.08,217.02 526.35,286.1 175.01,94.24 353.7,199.92 529.8,294.28 186.99,100.19 350.56,208.24 518.85,300.53 178.3,97.78 387.73,205.25 557.07,299.67l94.78 -159.26c-137.36,13.88 -874.53,-464.16 -1116.94,-580.36 -181.39,-86.93 -370.74,-216.23 -546.71,-313.47 -114.49,-63.27 -461.96,-273.23 -563.2,-297.83l0 170.34z"/>
   <path class="fil6" d="M16327.84 12893.7c-49.86,50.7 -137.45,328.69 -156.51,403.65 117.91,-51.28 1110.2,-238.3 1265.58,-251.3 295.64,-24.75 828.67,-141.12 1155.84,-191.98 125.42,-19.49 99.49,17.66 120.56,-84.06 -29.6,-62.15 -5.26,-37.65 -72.58,-52.66 -59.38,-13.23 -1056.24,161.26 -1146.75,173.22 -376.88,49.84 -838.04,181.43 -1218.89,189.16l52.75 -186.03z"/>
   <path class="fil6" d="M1281.26 12853.7c203.79,6.46 409.91,67.87 613.04,94.94 199.69,26.63 401.67,64.81 604.03,99.31 367.32,62.6 802.52,148.71 1207.96,200.75l-104.59 -294.19 17.97 124.21c-207.24,-3.91 -901.68,-144.08 -1148.22,-189.13l-1190.19 -174.69 0 138.8z"/>
   <path class="fil7" d="M14373.49 17147.55l-489.49 43.03 -76.53 2.79 -250.76 53.69 -133.72 60.38 -30.71 139.33 639.63 280.83 -221.04 932.5c-28.01,85.79 -93.45,392.4 -119.71,446.19 -63.46,130.04 -126.25,275.73 -133.76,455l126.19 -371.95 25.19 1.04 1321.73 -142.4c-75.26,-25.46 -243.39,-44.2 -280.52,-117.3 -40.21,-58.47 -130.3,-426.41 -152.92,-516.36 -34.64,-137.72 -164.93,-360.63 -89.32,-481.91 94.49,-151.59 492.51,-686.8 527.37,-818.32l-103.7 -28.6 -64.64 3.37c-38.83,44.48 -86.53,81.61 -124.8,1.81 -58.25,84.02 -255.52,52.74 -368.49,56.88z"/>
   <path class="fil7" d="M5234.54 17771.02c213.56,274.38 127.86,264.67 38.44,593.99 -40.42,148.82 -111.13,566.25 -238.5,609.18l-169.79 54.59 39.62 26.15 1132.68 133.34c-14.38,-111.99 -60.68,-238.09 -77.03,-373.9 -14.58,-121.13 -34.02,-293.65 -53.23,-403.2 -20.83,-118.85 -161.45,-434.44 -143.79,-777.39l707.94 -204.52 -12.74 -121.41 -360.15 -80.95 0.06 -4.74 -77.53 -1.44 -87.76 -50.29 -243.63 -11.21 -167.82 -11.18 -357.8 -23.59 -130.72 -16.8 -40.5 0.11 -177.97 0.23c30.84,135.82 339.72,485.71 420.22,663.03z"/>
   <path class="fil8" d="M14707.62 6622.1c90.23,-33.11 326.68,-465.11 402.91,-578.07 152.19,-225.48 -18.85,-561.57 -62.42,-821.17l-360.56 -1632.99c-383.79,321.22 -814.85,729.2 -1205.09,1067.18 -452.43,391.83 -509.79,169.88 468.52,1179.96 171.33,176.91 575.79,650.34 756.64,785.09z"/>
   <path class="fil8" d="M5174.7 6610.72l1590.6 -1623.16c-42.24,-103.28 -1457.64,-1347.48 -1563.63,-1365.02 -133.22,487.75 -239.91,1092.39 -357.18,1602.22 -46.29,201.18 -193.87,617.32 -69.64,796.7 88.21,127.35 307.79,506.21 399.85,589.26z"/>
   <path class="fil8" d="M15534.59 13730.78c320.57,368.05 142.4,320.73 587.81,-833.06 69.87,-180.97 499.44,-1243.17 473.05,-1394.94l-935.46 -24.07 -608.71 2424.01 483.31 -171.94z"/>
   <polygon class="fil8" points="4149.18,13926.48 4171.02,13943.95 4375.01,13715.89 4838.21,13926.54 4852.12,13907.28 4231.34,11469.5 3266.44,11509.93 "/>
   <path class="fil8" d="M14198.54 17180.08c175.66,-492.73 431.26,-1630.6 615.59,-2271.06 29.2,-101.45 106.01,-289.46 39.12,-376.38 -44.83,-58.27 -182.49,-198.32 -255.45,-208.93l-647.15 2854.96 247.89 1.41z"/>
   <path class="fil8" d="M5689.13 17159.22l243.63 11.21 -629.72 -2823.05c-117.51,4.06 -237.11,158.95 -297.52,232.11l683.61 2579.73z"/>
   <path class="fil8" d="M4962.86 17076c43.92,-13.55 29.43,-18.28 29.43,31.76l40.5 -0.11c-8.11,-142.21 -131.96,-577.62 -178.19,-705.98 -78.75,-218.71 -114.2,-446.48 -183.23,-682.92 -31.86,-109.15 -239.48,-958.08 -292.2,-1007.56 -39.81,-37.36 -235.53,-106.06 -314.09,-107l897.78 2471.81z"/>
   <path class="fil8" d="M15455.13 17086.81l123.29 121.2c78.86,-11.25 55.1,-5.6 99.5,-54.47 124.88,-137.5 835.11,-1035.84 849.26,-1090.65 -73.81,-64.41 -224.33,-111.45 -321.78,-107.71l-756.37 1051.55 6.1 80.08z"/>
   <path class="fil8" d="M14866.78 17088.86l64.64 -3.37 890.05 -2479.84c-495.16,52.45 -344.69,385.04 -589.93,1140.48l-364.76 1342.73z"/>
   <path class="fil8" d="M15670.95 11274.74c66.16,-109.7 373.23,-743.35 383.16,-836.85 -73.26,15 -1085.54,543.28 -1114.28,625.43 114.05,41.65 646.71,218.18 731.12,211.42z"/>
   <path class="fil8" d="M4962.84 11063.32c-28.18,-72.08 -1030.89,-608.19 -1140.39,-633.28l410.72 849.52c114.42,-1.95 603.21,-173.17 729.67,-216.24z"/>
   <path class="fil8" d="M4347.41 17122.48l84.8 -115.89 -742.63 -1047.27c-92.03,-8.76 -243.22,56.13 -301.48,103.57 7.77,94.31 158.54,222.92 212.15,290.57l651.26 816.14c91.67,-26.19 6.39,-11.18 95.9,-47.12z"/>
   <path class="fil8" d="M15775.22 17525.19c-75.46,-76.18 -270.93,-301.56 -351.28,-323.83 8.89,74.35 459.84,983.57 537.21,1030.12l140.96 -361.51c-17,-43.04 -282.39,-299.84 -326.89,-344.78z"/>
   <path class="fil8" d="M3910.33 18201.56c73.99,-38.32 107.33,-153.26 143.64,-229.65 92.43,-194.43 333.89,-606.86 352.78,-740.44 -129.65,42.09 -249.66,217.86 -339.57,313.15 -112.71,119.48 -221.23,188.61 -300.32,305.28 -7.55,24.85 65.57,307.96 143.47,351.66z"/>
   <path class="fil8" d="M15082.07 17359.64c32.25,-77.88 54.44,-132.45 53.49,-240.87 -94.06,46 -503.51,772.93 -513.47,811.44 25.11,25.17 -8.02,-2.98 33.59,31.44 12.9,10.66 21.23,16.56 35.24,26.05 91.13,61.73 137.64,104.67 215.83,100.99l175.32 -729.05z"/>
   <path class="fil8" d="M4435.41 19072.06c101.36,9.92 473.38,-117.09 547.57,-158 2.75,-147.25 -15.37,-488.94 -56.02,-593.36l-364.31 560.65c-41.47,62.31 -82.38,125.74 -127.24,190.71z"/>
   <path class="fil8" d="M14861.94 18913.26l557.06 167.61 -251.16 -388.47c-64.6,-94.11 -180.06,-309.2 -254.92,-361.71l-50.98 582.57z"/>
   <path class="fil8" d="M4953.83 18078.84c79.71,32.28 231.48,-100.66 281.7,-154.82l-139.83 -242.49 -34.13 -38.18c-2.57,-3.07 -24.37,-30.79 -28.03,-35.66 -72.07,-95.71 -209.07,-373.21 -283.86,-423.16 6.32,271.32 177.21,628.89 204.15,894.31z"/>
   <path class="fil9" d="M6965.05 17759.67l1741.53 150.34 -240.16 -61.77c142.64,161.96 427.05,-295.97 4.44,-846.57 -412.74,-537.76 -574.58,-768.73 -565.61,-1480.9 4.49,-356.69 29.83,-310.86 100.56,-577.83 56.38,-212.81 209.95,-518.78 304.14,-723.51 33.35,-72.5 101.32,-125.28 128.78,-196.73 -67.96,-0.14 -359.1,171.94 -420.33,226.98 -66.37,59.63 -18.57,19 -72.71,86.29 -83.03,103.17 -77.71,18.49 -271.07,273.12 -64.96,85.55 -108.09,104.71 -158.5,182.71 -198.22,306.78 -213.67,378.26 -349.15,735.21 -107.59,283.51 -79.2,983.92 -16,1310.42 50.59,261.44 306.23,804.16 501.69,905.84 -344.05,81.7 -414.3,-145.24 -539.81,-347.65 -377.26,-608.37 -465.66,-1679.4 -284.55,-2338.23 63.9,-232.47 157.18,-466.56 255.5,-642.73 41.77,-74.86 311.36,-483.88 388.87,-529.82 143.1,-84.76 1541.78,39.97 1788.89,-38.55l126.44 -332.26c-99.32,50.67 -123.16,200.95 -163.27,296.27 -307.7,25.33 -1606.19,-53.66 -1760.01,25.43 -226.62,116.49 -553.46,785.69 -656.95,1104.36 -144.03,443.47 -151.05,1106.66 -53.86,1615.7 111.51,584.05 278.11,788.75 565.28,1210.4l-354.14 -6.52z"/>
   <path class="fil9" d="M11402.27 17905.94c164.54,3.01 351.61,-194.37 479.24,-275.98 129.67,-82.9 227.34,-311.01 327.16,-412.25 190.06,-192.76 404.33,-680.4 453.69,-1006.1 86.5,-570.71 -81.86,-1388.36 -383.2,-1796.6 -65.51,-88.75 -99.08,-45.24 -202,-155.97 -74.94,-80.64 -159.15,-90.16 -246.69,-140.08 -393.46,-224.32 -851.49,-11.22 -743.17,484.74 83.01,380.09 394.2,578.72 558.78,905.42 164.35,326.21 249.64,818.97 171.15,1292.99 -33.4,201.76 -102.55,386.52 -161.37,588.13 -68.72,235.57 -179.27,303.64 -253.59,515.7z"/>
   <path class="fil10" d="M9890.98 14348.62c624.6,-1.3 659.11,-948.76 -0.37,-961.62 -626.87,-12.25 -652.68,962.99 0.37,961.62z"/>
   <path class="fil10" d="M8734.56 14640.14c-665.54,243.14 -298.79,1040.41 258.45,864.48 607.2,-191.69 263.17,-1055.02 -258.45,-864.48z"/>
   <path class="fil10" d="M9643.09 15993.23c-167.49,47.96 -281.83,124.11 -260.55,350.98 17.48,186.6 167.79,278.65 390.16,257.48 416.04,-39.63 288.32,-728.12 -129.61,-608.46z"/>
   <line class="fil10" x1="9378.7" y1="17717.49" x2="9378.7" y2= "17717.49" />
   <path class="fil11" d="M6036.99 19188.27l121.11 442.22c41.8,45.89 3356.81,325.76 3737.1,363.72 284.69,28.42 686.63,-55.86 947.6,-77.36l2382.41 -193.21c196.89,-14.33 334.21,29.08 332.19,-162.35 7.51,-179.27 70.3,-324.96 133.76,-455 26.26,-53.79 91.7,-360.4 119.71,-446.19l221.04 -932.5 -639.63 -280.83 30.71 -139.33 133.72 -60.38c-259.94,16.74 -185.14,147.37 -285.46,329.12 -19.41,35.13 -94.19,165.43 -112.27,187.47 -51.77,63.13 -221.67,117.73 -202.54,-23.97l-81.97 78.14c-682.12,62.83 -1388.29,79.89 -2071.13,145.99 -324.75,31.42 -727.04,70.75 -1065.39,26.06 -164.76,-21.76 -949.69,-50.6 -1031.37,-79.86l-1741.53 -150.34 -105.92 -113.31 30.85 111.87c-213.72,-12.98 -246.08,-80.74 -321.58,-237.47 -132.84,-275.69 62.17,-170.54 -258.74,-289l-39.29 -0.55 -172.38 -4.31 360.15 80.95 12.74 121.41 -707.94 204.52c-17.66,342.95 122.96,658.54 143.79,777.39 19.21,109.55 38.65,282.07 53.23,403.2 16.35,135.81 62.65,261.91 77.03,373.9z"/>
   <path class="fil12" d="M13643.95 15493.41c163.45,-245.6 729.5,-6282.22 828.05,-7278.81 24.38,-246.71 183.97,-1345.77 88.05,-1478.84 -167.14,-231.86 -578.7,-613.27 -793.05,-835.46 -149.12,-154.58 -269.32,-270.29 -393.85,-409.2 -510.34,-569.29 -265.47,-464.55 -1241.27,445.44 -236.42,220.48 -153.3,273.76 -148.83,649.24 3.3,277.67 18.32,536.67 22.27,803.1 15.92,1075.13 56.67,2103.58 78.32,3172.73 10.54,521 37.63,1057.47 42.89,1585.96 10.71,1075.83 -9.78,739.93 449.78,1168.51 1095.39,1021.55 951.02,2042.13 1067.64,2177.33z"/>
   <path class="fil12" d="M6238.38 15448.38c23.36,-28 116.43,-550.92 148.19,-661.54 61.14,-212.95 140.11,-413.04 235.4,-587.32 188.57,-344.83 408.6,-649.64 712.79,-914.59 115.02,-100.18 409.1,-278.77 423.86,-396.09l58.3 -2387.57c11.65,-1041.88 60.49,-2134.79 82.36,-3192.65 5.55,-268.23 9.27,-544.13 17.36,-803.87 12.69,-406.65 67.52,-379.62 -185.35,-609.14 -150.1,-136.24 -761.61,-758.1 -830.63,-783.24 -132.22,106.47 -1534.69,1568.35 -1582.01,1638.91 -70.68,105.4 340.52,3768.96 403.19,4399.83 89.36,899.29 158.51,2024.7 319.83,2902.2 65.74,357.61 102.91,1106.55 196.71,1395.07z"/>
   <path class="fil12" d="M9378.7 17717.49l0 0zm264.39 -1724.26c417.93,-119.66 545.65,568.83 129.61,608.46 -222.37,21.17 -372.68,-70.88 -390.16,-257.48 -21.28,-226.87 93.06,-303.02 260.55,-350.98zm-908.53 -1353.09c521.62,-190.54 865.65,672.79 258.45,864.48 -557.24,175.93 -923.99,-621.34 -258.45,-864.48zm2667.71 3265.8c74.32,-212.06 184.87,-280.13 253.59,-515.7 58.82,-201.61 127.97,-386.37 161.37,-588.13 78.49,-474.02 -6.8,-966.78 -171.15,-1292.99 -164.58,-326.7 -475.77,-525.33 -558.78,-905.42 -108.32,-495.96 349.71,-709.06 743.17,-484.74 87.54,49.92 171.75,59.44 246.69,140.08 102.92,110.73 136.49,67.22 202,155.97 301.34,408.24 469.7,1225.89 383.2,1796.6 -49.36,325.7 -263.63,813.34 -453.69,1006.1 -99.82,101.24 -197.49,329.35 -327.16,412.25 -127.63,81.61 -314.7,278.99 -479.24,275.98zm-1511.29 -3557.32c-653.05,1.37 -627.24,-973.87 -0.37,-961.62 659.48,12.86 624.97,960.32 0.37,961.62zm-502.98 -834.59l-126.44 332.26c-247.11,78.52 -1645.79,-46.21 -1788.89,38.55 -77.51,45.94 -347.1,454.96 -388.87,529.82 -98.32,176.17 -191.6,410.26 -255.5,642.73 -181.11,658.83 -92.71,1729.86 284.55,2338.23 125.51,202.41 195.76,429.35 539.81,347.65 -195.46,-101.68 -451.1,-644.4 -501.69,-905.84 -63.2,-326.5 -91.59,-1026.91 16,-1310.42 135.48,-356.95 150.93,-428.43 349.15,-735.21 50.41,-78 93.54,-97.16 158.5,-182.71 193.36,-254.63 188.04,-169.95 271.07,-273.12 54.14,-67.29 6.34,-26.66 72.71,-86.29 61.23,-55.04 352.37,-227.12 420.33,-226.98 -27.46,71.45 -95.43,124.23 -128.78,196.73 -94.19,204.73 -247.76,510.7 -304.14,723.51 -70.73,266.97 -96.07,221.14 -100.56,577.83 -8.97,712.17 152.87,943.14 565.61,1480.9 422.61,550.6 138.2,1008.53 -4.44,846.57l240.16 61.77c81.68,29.26 866.61,58.1 1031.37,79.86 338.35,44.69 740.64,5.36 1065.39,-26.06 682.84,-66.1 1389.01,-83.16 2071.13,-145.99l-365.63 8.01c54.22,-183.42 423.15,-406.51 593.43,-1257.84 106.85,-534.27 79.26,-1136.68 -65.13,-1623.71 -82.92,-279.75 -137.98,-416 -263.16,-644.87 -60.93,-111.41 -309.23,-451.46 -433.92,-465.65 -298.65,-34 -1654.52,56.12 -1788.57,-16.57 -45.22,-25.76 -151.47,-439.6 -451.18,-526.44 -281.91,-81.68 -615.19,54.98 -712.31,223.28z"/>
   <path class="fil12" d="M5474.3 10700.19c33.65,-272.05 -80.07,-948.93 -101.55,-1243.37 -54.37,-744.96 -170.61,-1711.84 -245.13,-2488.29 -12.61,-131.53 -434.68,-791.69 -514.86,-839.82 -70.12,45.8 -671.72,856.27 -783.72,996.63 -137.65,172.49 -32.48,496.21 17.47,709.68 58.9,251.68 87.07,511.18 143.98,755.44 106.59,457.44 194.98,1049.96 271.74,1518.19 39.35,240.12 -35.71,209.7 557.16,346.35 136.02,31.36 219.28,61.81 352.53,90.55 213.76,46.09 212.93,128.17 302.38,154.64z"/>
   <path class="fil12" d="M14418.31 10691.8c92.74,-26.68 109.11,-89.81 265.3,-133.91 106.62,-30.1 216.95,-49.74 316.15,-73.56 124.57,-29.89 490.01,-114.98 590.9,-168.03 64.81,-64.79 258.51,-1525.44 316.23,-1752.82 96.26,-379.19 139.65,-786.66 232.82,-1139.41 60.49,-229 -86.75,-320.86 -190.67,-454.31 -790.95,-1015.5 -591.76,-960.53 -892.56,-518.03 -52.82,77.69 -244.65,361.43 -264.16,440.85 -85.14,346.32 -73.39,871.88 -134.48,1247.25l-239.53 2551.97z"/>
   <path class="fil12" d="M6020.52 17220.72l77.53 1.44 -984.18 -6038.29c-127.55,-10.78 -546.88,172.08 -678.34,223.91 -15.51,104.71 297.78,1312.1 354.22,1504.86 70.63,241.19 107.23,511.58 181.51,745.64 20.45,64.45 77.98,334.9 97.37,364.31 39.79,60.34 248.18,117.63 293.46,165.7 14.49,15.4 644.44,2811.12 658.43,3032.43z"/>
   <path class="fil12" d="M13807.47 17193.37l76.53 -2.79c87.27,-362.3 553.65,-2937.75 672.82,-3024.71 90.52,-66.07 242.72,-63.19 285.97,-176.44 64.93,-170.1 201.79,-843.29 277.5,-1108.87 51.95,-182.27 364.46,-1363.89 345.34,-1468.99l-661.79 -252.79 -996.37 6034.59z"/>
   <path class="fil12" d="M3734.28 6944.27c59.05,-30.18 400.98,-496.02 459.52,-575.05 219.44,-296.22 265.78,-242.43 368.76,-674.74 56.66,-237.82 369.17,-1599.5 369.29,-1739.82 -93.77,50.33 -692.04,1054.97 -831.58,1254.8 -231.2,331.02 -219.06,276.82 -269.86,770.93 -24.96,242.8 -120.33,730.83 -96.13,963.88z"/>
   <path class="fil12" d="M16161.78 6917.53c5.4,-259.58 -72.99,-635.36 -93.89,-934.82 -29.83,-427.34 -37.17,-453.44 -248.53,-748.75 -145.15,-202.8 -668.7,-1136.39 -824.04,-1212.82 12,467.68 267.58,1201.21 347.75,1684.89 59.03,356.04 159.89,396.02 353.91,653.59 108.74,144.39 353.56,502.65 464.8,557.91z"/>
   <polygon class="fil12" points="5163.51,17124.45 5521.31,17148.04 4890.8,14596.14 4871.07,14590.06 4506.29,14681.03 4494.48,14698.06 "/>
   <path class="fil12" d="M14373.49 17147.55c112.97,-4.14 310.24,27.14 368.49,-56.88l653.16 -2405 -385.42 -84.91 -636.23 2546.79z"/>
   <path class="fil12" d="M15278.43 17057.62c-112.08,86.51 -289.57,859.46 -270.17,1075.36l851.17 213.56 19.26 -15.41 -600.26 -1273.51z"/>
   <path class="fil12" d="M4550.03 17076.83l-567.55 1274.04 852.13 -223.16c18.26,-134.19 -175.81,-978.25 -234.81,-1066.48 -17.87,4.75 -24.07,3.5 -49.77,15.6z"/>
   <path class="fil12" d="M15550.42 18951.22c6.89,-112.46 307.16,-385.28 290.64,-518.81l-754.28 -185.8 -96.12 -14.95c14.26,66.63 424.58,683.27 479.59,744.86 63.89,-13.63 17.14,3.94 80.17,-25.3z"/>
   <path class="fil12" d="M4562.09 18300.2c-686.69,150.06 -571.7,132.06 -473.9,290.78l259.96 391.15c85.47,-11.33 505.51,-697.68 520.25,-747.47l-306.31 65.54z"/>
   <path class="fil12" d="M15851.46 17365.99l653.94 -803.71c47.98,-139.46 211.61,-257.91 275.45,-378.92 -48.89,-40.09 -122.3,-110.87 -198.28,-32.95l-770.95 975.25c-76.16,93.9 -219.45,282.34 39.84,240.33z"/>
   <path class="fil12" d="M16212.81 10629.72c-57.87,33.67 -128.52,186.15 -173.6,274.92 -255.18,502.53 -173.42,408.99 133.46,414.51 113.3,2.05 305.99,18.54 408.63,-7.3 -43.27,-102.4 -275.56,-623.63 -368.49,-682.13z"/>
   <path class="fil12" d="M3331.62 11319.41c125.06,13.96 307.02,0.61 438.32,-1.48 172.86,-2.73 308.69,43.95 219.31,-132.53 -51.96,-102.58 -234.59,-533.88 -299.67,-585.86 -42.88,33.88 -352.47,651.31 -357.96,719.87z"/>
   <path class="fil12" d="M3386.06 16544.68c154.44,111.45 571.07,763.66 712.53,829.58l95.76 -121.9c-65.53,-42.05 -704.83,-883.5 -860.56,-1076.8 -66.12,-82.08 -109.98,-44 -197.92,-18.83 18.23,138.92 201.49,257.55 250.19,387.95z"/>
   <path class="fil12" d="M15176.64 14530.54c26.12,9.54 69.11,15.71 98.82,24.17 87.3,24.92 88.78,36 200.24,32.14 -1.92,-115.88 -3.11,-236.06 -7.29,-351.56 -5.93,-164.04 -26.07,-213.89 -31.62,-268.99 -0.84,-8.32 -3.82,-10.4 -6.68,-15.1 -61.61,27.47 -7.46,-21.59 -65.78,57.74l-266.96 467.74 79.27 53.86z"/>
   <path class="fil12" d="M4439.52 14588.16c86.94,-1.27 269.53,-43.9 337.52,-89.65 3.19,-2.16 10.75,-3.41 13.03,-10.68 2.34,-7.44 8.84,-7.36 13.15,-11.15 -26.92,-107.53 -106.43,-203.75 -162.18,-290.41 -29.01,-45.08 -46.73,-82.47 -82.22,-140.39 -41.88,-68.33 -40.15,-69.42 -107.77,-77.78l-11.53 620.06z"/>
   <path class="fil12" d="M5214.73 14255.82c-35.76,-48.94 -459.62,-279.35 -554.41,-313.61 0.95,69.29 103.81,211.46 142.06,286.51 36.52,71.68 115.16,225.56 171.63,264.11 65.5,-32.22 220.92,-163.28 240.72,-237.01z"/>
   <path class="fil12" d="M14928.39 14492.81c36.86,-23.87 326.89,-487.72 301.04,-546.83 -46.33,14.54 -538.23,280.67 -553.5,309.84 -4.91,37.13 217.85,224.81 252.46,236.99z"/>
   <path class="fil12" d="M16634.37 15765.56c-90.78,22.52 -92.97,55.04 -179.84,48.17 -34,42.77 -41.7,41.74 -92.62,57.6 29.06,30.21 16.27,19.85 60.06,47.22l161.5 73.56c73.88,32.15 169.95,83.79 247.1,91.6l-53.22 -344.04 -142.98 25.89z"/>
   <path class="fil12" d="M3442.71 15815.83l-54.28 -0.51c-107.72,-17.4 -103.25,-46.66 -254.16,-50.19 -20.82,110.19 -37.78,154.35 -42.86,295.7 111.65,-13.66 230.76,-73.97 335.79,-119.43 22.06,-9.54 22.13,-8.02 39.55,-18.51 69.48,-41.84 24.98,-14.4 52.35,-40.71l-76.39 -66.35z"/>
   <path class="fil13" d="M15597.99 19048.43c4.92,-51.47 235.13,-400.62 302.65,-485.38 52.52,-65.94 0.7,-31.57 82.98,-61.5 -6.43,92.44 -64.63,316.93 -101.64,382.61 -34.06,60.4 -62.78,65.34 -125.41,95.25 -54.02,25.8 -86.85,49.32 -158.58,69.02zm-11767.47 -676.45c41.77,56.55 409.34,618.37 419.41,663.49 -147.08,-12.95 -268.86,-92.86 -309.69,-231.32 -40.48,-137.25 -109.64,-291.48 -109.72,-432.17zm11447.91 -1314.36l600.26 1273.51 -19.26 15.41 -851.17 -213.56c-19.4,-215.9 158.09,-988.85 270.17,-1075.36zm-11368.1 1143.94c-77.9,-43.7 -151.02,-326.81 -143.47,-351.66 79.09,-116.67 187.61,-185.8 300.32,-305.28 89.91,-95.29 209.92,-271.06 339.57,-313.15 -18.89,133.58 -260.35,546.01 -352.78,740.44 -36.31,76.39 -69.65,191.33 -143.64,229.65zm11513.61 -1000.2c80.35,22.27 275.82,247.65 351.28,323.83 44.5,44.94 309.89,301.74 326.89,344.78l-140.96 361.51c-77.37,-46.55 -528.32,-955.77 -537.21,-1030.12zm-517.19 887.33c-78.19,3.68 -124.7,-39.26 -215.83,-100.99 -14.01,-9.49 -22.34,-15.39 -35.24,-26.05 -41.61,-34.42 -8.48,-6.27 -33.59,-31.44 9.96,-38.51 419.41,-765.44 513.47,-811.44 0.95,108.42 -21.24,162.99 -53.49,240.87l-175.32 729.05zm1225.67 -2246.56c81.39,38.23 67.54,114.45 164.63,54.45 2.7,-1.66 36.34,-41.37 57.02,-55.82 51.3,-35.84 40.35,-27.25 100.46,-27.03 86.87,6.87 89.06,-25.65 179.84,-48.17 65.17,-65.38 45.76,-58.56 140.39,-63.17l21.23 30.43c50.1,99.97 51.15,235.82 68.07,350.16 -25.53,19.42 14.78,27.53 -105.73,26.72 4.64,6.5 12.21,5.59 14.81,18.86 2.19,11.09 21.04,33.68 23.93,41.19 20.38,52.87 8.25,2.1 17.4,73.76 -99.88,31.62 -194.29,269.81 -309.07,318.77l-653.94 803.71c-45.17,79.5 11.23,20.24 -60.1,62.15 -142.01,-68.03 -135.79,-119.8 -121.33,-200.99 -171.01,50.02 -60.91,6.91 -91.61,-19.14l-123.29 -121.2 -54.26 -70.84c-37.41,-37.31 -26.13,21.57 -73.45,-69.62l48.95 -77.41 489.71 -831.42c133.88,-232.27 84.99,-224.06 236.18,-226.81 -13.53,-38.12 -25.49,-49.01 -9.86,-79.81 149.57,-13.34 333.45,-56.55 471.68,-37.14 -40.89,2.21 -131.47,51.98 -200.92,78.46 -47.45,18.07 -62.6,31.08 -114.65,39.22 -21.49,3.38 -58.37,4.36 -73.43,7.99 -58.89,14.16 -35.83,-20.7 -42.66,22.7zm-12161.97 55.87c7.48,81.79 481,848.11 546.07,968.14l41.92 55.78c-84.14,67.49 -48,3.03 -110.94,101.77 -39.18,61.47 -23.98,71.28 -100.09,98.79 -27.87,77.02 -41.15,58.2 -127.42,112.21 -4.57,2.85 -20.43,13.47 -25.64,17.67l-95.76 121.9c-141.46,-65.92 -558.09,-718.13 -712.53,-829.58 -82.73,-35.52 -100.95,-97.45 -173.78,-185.27 -18.27,-22.04 -63.54,-70.4 -83.9,-100.79 -30.45,-45.44 -41.49,-63.64 11.97,-147.13l-102.26 -17.25 59.01 -378.23c94.46,-13.59 241.52,25.65 291.33,99.31l54.28 0.51c124.86,29.3 100.03,60.2 157.3,87.06 128.73,60.38 91.88,-24.33 159.17,-60.86 -33.13,-11 -266.04,-50.82 -340.03,-85.68 -14.95,-7.03 -45.12,-27 -50.38,-31.11 -45.72,-35.74 -21.22,-14.55 -50.45,-47.25 142.7,-28.94 312.41,19 471.6,25.8 4.4,5.24 7.62,8.14 9.63,18.14 22.81,113.83 128.89,17.78 170.9,176.07zm10228.09 1282.08l-247.89 -1.41 647.15 -2854.96c72.96,10.61 210.62,150.66 255.45,208.93 66.89,86.92 -9.92,274.93 -39.12,376.38 -184.33,640.46 -439.93,1778.33 -615.59,2271.06zm898.83 -2703.4l266.96 -467.74c58.32,-79.33 4.17,-30.27 65.78,-57.74 2.86,4.7 5.84,6.78 6.68,15.1 5.55,55.1 25.69,104.95 31.62,268.99 4.18,115.5 5.37,235.68 7.29,351.56 -111.46,3.86 -112.94,-7.22 -200.24,-32.14 -29.71,-8.46 -72.7,-14.63 -98.82,-24.17l-79.27 -53.86zm-10657.85 111.48l11.53 -620.06c67.62,8.36 65.89,9.45 107.77,77.78 35.49,57.92 53.21,95.31 82.22,140.39 55.75,86.66 135.26,182.88 162.18,290.41 -4.31,3.79 -10.81,3.71 -13.15,11.15 -2.28,7.27 -9.84,8.52 -13.03,10.68 -67.99,45.75 -250.58,88.38 -337.52,89.65zm-127.8 -48.68c-76.64,1.91 -215.81,-80.87 -275.64,-123.04 -0.86,-69.89 228.06,-376.91 316.38,-404.07 4.03,134.21 13.2,428.36 -40.74,527.11zm11238.75 -526.44c81.48,26.87 321.44,361.08 318.1,383.33 -1.05,7.06 -250.75,222.97 -288.85,116.75 -10.75,-29.99 -31.92,-451.77 -29.25,-500.08zm-622.08 479.77c-34.61,-12.18 -257.37,-199.86 -252.46,-236.99 15.27,-29.17 507.17,-295.3 553.5,-309.84 25.85,59.11 -264.18,522.96 -301.04,546.83zm-10268.07 -550.6c94.79,34.26 518.65,264.67 554.41,313.61 -19.8,73.73 -175.22,204.79 -240.72,237.01 -56.47,-38.55 -135.11,-192.43 -171.63,-264.11 -38.25,-75.05 -141.11,-217.22 -142.06,-286.51zm10874.27 -211.43l-483.31 171.94 608.71 -2424.01 935.46 24.07c26.39,151.77 -403.18,1213.97 -473.05,1394.94 -445.41,1153.79 -267.24,1201.11 -587.81,833.06zm-12268.15 -2220.85l964.9 -40.43 620.78 2437.78 -13.91 19.26 -463.2 -210.65 -203.99 228.06 -21.84 -17.47 -882.74 -2416.55zm12946.37 -880.21c92.93,58.5 325.22,579.73 368.49,682.13 -102.64,25.84 -295.33,9.35 -408.63,7.3 -306.88,-5.52 -388.64,88.02 -133.46,-414.51 45.08,-88.77 115.73,-241.25 173.6,-274.92zm-12881.19 689.69c5.49,-68.56 315.08,-685.99 357.96,-719.87 65.08,51.98 247.71,483.28 299.67,585.86 89.38,176.48 -46.45,129.8 -219.31,132.53 -131.3,2.09 -313.26,15.44 -438.32,1.48zm10310.39 5649.67l800.98 -5816.96c198.87,-47.88 158.98,97.26 137.47,229.44 -21.43,131.65 -37.32,266.35 -61.54,382.54 -48.46,232.42 -84.89,490.44 -123.25,727.9 -106.72,660.73 -683.39,4359.35 -753.66,4477.08zm-9032.61 -6372.54c156.16,-7.13 312.35,63.78 456.89,97.64 108.7,25.48 289.03,64.41 309.02,228.59 -121.91,74.03 -156.74,10.88 -390.47,-109.88l-330.62 -171.58c-47.12,-35.68 -16.84,-5.31 -44.82,-44.77zm9905.17 320.35c59.11,-159.88 191.65,-190.26 363.79,-232.64 126.78,-31.23 362.57,-117.12 482.27,-112.53l-613.53 332.37c-121.13,62.68 -119.24,82.68 -232.53,12.8zm1156.38 357.85c-84.41,6.76 -617.07,-169.77 -731.12,-211.42 28.74,-82.15 1041.02,-610.43 1114.28,-625.43 -9.93,93.5 -317,727.15 -383.16,836.85zm-11848.5 -844.7c109.5,25.09 1112.21,561.2 1140.39,633.28 -126.46,43.07 -615.25,214.29 -729.67,216.24l-410.72 -849.52zm4693.95 -2579.29c-1.54,-220.69 18.57,-279.56 249.38,-281.22l2229.01 0.66c283.96,0 375.69,-30.23 372.79,281.25 -2.61,278.46 -159.27,243.13 -397.87,243.13l-2202.6 0c-207.28,0 -249.43,-58.19 -250.71,-243.82zm6141.44 289.08c61.09,-375.37 49.34,-900.93 134.48,-1247.25 19.51,-79.42 211.34,-363.16 264.16,-440.85 300.8,-442.5 101.61,-497.47 892.56,518.03 103.92,133.45 251.16,225.31 190.67,454.31 -93.17,352.75 -136.56,760.22 -232.82,1139.41 -57.72,227.38 -251.42,1688.03 -316.23,1752.82 -100.89,53.05 -466.33,138.14 -590.9,168.03 -99.2,23.82 -209.53,43.46 -316.15,73.56 -156.19,44.1 -172.56,107.23 -265.3,133.91l239.53 -2551.97zm-9183.54 2560.36c-89.45,-26.47 -88.62,-108.55 -302.38,-154.64 -133.25,-28.74 -216.51,-59.19 -352.53,-90.55 -592.87,-136.65 -517.81,-106.23 -557.16,-346.35 -76.76,-468.23 -165.15,-1060.75 -271.74,-1518.19 -56.91,-244.26 -85.08,-503.76 -143.98,-755.44 -49.95,-213.47 -155.12,-537.19 -17.47,-709.68 112,-140.36 713.6,-950.83 783.72,-996.63 80.18,48.13 502.25,708.29 514.86,839.82 74.52,776.45 190.76,1743.33 245.13,2488.29 21.48,294.44 135.2,971.32 101.55,1243.37zm8169.65 4793.22c-116.62,-135.2 27.75,-1155.78 -1067.64,-2177.33 -459.56,-428.58 -439.07,-92.68 -449.78,-1168.51 -5.26,-528.49 -32.35,-1064.96 -42.89,-1585.96 -21.65,-1069.15 -62.4,-2097.6 -78.32,-3172.73 -3.95,-266.43 -18.97,-525.43 -22.27,-803.1 -4.47,-375.48 -87.59,-428.76 148.83,-649.24 975.8,-909.99 730.93,-1014.73 1241.27,-445.44 124.53,138.91 244.73,254.62 393.85,409.2 214.35,222.19 625.91,603.6 793.05,835.46 95.92,133.07 -63.67,1232.13 -88.05,1478.84 -98.55,996.59 -664.6,7033.21 -828.05,7278.81zm-7405.57 -45.03c-93.8,-288.52 -130.97,-1037.46 -196.71,-1395.07 -161.32,-877.5 -230.47,-2002.91 -319.83,-2902.2 -62.67,-630.87 -473.87,-4294.43 -403.19,-4399.83 47.32,-70.56 1449.79,-1532.44 1582.01,-1638.91 69.02,25.14 680.53,647 830.63,783.24 252.87,229.52 198.04,202.49 185.35,609.14 -8.09,259.74 -11.81,535.64 -17.36,803.87 -21.87,1057.86 -70.71,2150.77 -82.36,3192.65l-58.3 2387.57c-14.76,117.32 -308.84,295.91 -423.86,396.09 -304.19,264.95 -524.22,569.76 -712.79,914.59 -95.29,174.28 -174.26,374.37 -235.4,587.32 -31.76,110.62 -124.83,633.54 -148.19,661.54zm8469.24 -8826.28c-180.85,-134.75 -585.31,-608.18 -756.64,-785.09 -978.31,-1010.08 -920.95,-788.13 -468.52,-1179.96 390.24,-337.98 821.3,-745.96 1205.09,-1067.18l360.56 1632.99c43.57,259.6 214.61,595.69 62.42,821.17 -76.23,112.96 -312.68,544.96 -402.91,578.07zm-9532.92 -11.38c-92.06,-83.05 -311.64,-461.91 -399.85,-589.26 -124.23,-179.38 23.35,-595.52 69.64,-796.7 117.27,-509.83 223.96,-1114.47 357.18,-1602.22 105.99,17.54 1521.39,1261.74 1563.63,1365.02l-1590.6 1623.16zm10644.66 -1376.76c211.36,295.31 218.7,321.41 248.53,748.75 20.9,299.46 99.29,675.24 93.89,934.82 -111.24,-55.26 -356.06,-413.52 -464.8,-557.91 -194.02,-257.57 -294.88,-297.55 -353.91,-653.59 -80.17,-483.68 -335.75,-1217.21 -347.75,-1684.89 155.34,76.43 678.89,1010.02 824.04,1212.82zm-12085.08 1710.31c-24.2,-233.05 71.17,-721.08 96.13,-963.88 50.8,-494.11 38.66,-439.91 269.86,-770.93 139.54,-199.83 737.81,-1204.47 831.58,-1254.8 -0.12,140.32 -312.63,1502 -369.29,1739.82 -102.98,432.31 -149.32,378.52 -368.76,674.74 -58.54,79.03 -400.47,544.87 -459.52,575.05zm10231.21 -2955.92l-488.35 427.09c-195.45,227.73 -474.11,403.83 -670.9,609.31 -195.96,204.61 -435.66,430.28 -648.09,636.77 -401.83,390.62 -356.56,207.07 -346.2,944.35 5.78,411.96 0.07,852.96 26.77,1262.14 50.71,777.21 62.92,1694.53 71.11,2492.46 4.27,416.03 -1.15,852.52 26.37,1263 19.57,291.93 52.67,930.35 24.69,1222.42l-711.27 -316.83 9.18 -4255.55c204.06,-119.02 277.8,-106.61 280.34,-402.18 2.44,-284.4 -5.86,-363.44 -228.47,-457.2 -175.95,-74.11 -968.76,-27.65 -1267.75,-21.3l-1394.02 -5.13c-214.24,126.65 -298.33,49.85 -298.37,422.74 -0.04,350.85 39.04,317.9 272.1,463.98 0.66,1714.37 18.9,2663.58 -2.66,4250.66l-675.25 301.97c-10.84,-834.94 5.23,-1798.26 48.76,-2606.31 45.78,-849.71 14.17,-1727.08 69.36,-2581.87 26.27,-406.95 7.69,-857.11 39.24,-1258.76 36.16,-460.11 25.91,-330.86 -482.93,-835.02 -231.26,-229.11 -434.39,-428.23 -670.4,-652.97 -119.47,-113.74 -653.3,-560.7 -684.99,-629.74l-314.55 -266.12 -760.4 -668.74 -14.11 15.98c-143.46,88.67 -731.3,982.54 -876.91,1228.59l-53.29 78.73c-31.67,55.99 -16.63,24.83 -36.17,87.64 -84.23,52.23 -481.97,695.42 -500.26,802.22 -31.5,183.82 -25.3,434.24 -60.61,609.3 -23.45,116.27 -77.51,456.25 -77.29,570.38l-39.45 186.59c-24.23,287.65 130.76,837.16 179.74,1165.49 35.19,235.83 210.33,945.1 194.74,1139.47 43.88,54.5 101.13,384.34 105.89,495.07l85.39 552.4 -413.74 -64.75 -174.63 335.84 -94.78 159.26c-10.02,95.35 -179.29,377.53 -223.98,472.89 -143.91,307.15 -95.38,252.54 -51.47,556.14 44.71,35.9 4.31,-12.77 33.06,38.77 14.44,25.93 13.71,31.09 22.35,60.96 15.58,53.88 20.06,70.7 36.46,120.62l371.95 1015.4 104.59 294.19c68.15,136.18 116.33,309.6 174.96,473.75 52.46,146.82 205.89,393 66.32,478.9 -48.76,81.03 -86.4,49.37 -82.79,173.68 1.67,57.47 40.06,144.85 56.62,208.47 30.57,117.49 111.89,306.05 124.03,405.11 26.27,32.07 303.12,769.03 333.37,891.87 32.09,132.64 327.39,804.44 294.18,873.68 -116.56,-251.76 -342.65,-619.07 -489.43,-864.35 -147.01,-245.67 -135.42,-203.15 -425.68,-262.32 -139.03,-28.35 -480.92,-53.15 -633.4,-62.86 -208.9,-13.96 -109.11,57.81 -158.52,262.02 -30.37,125.58 -45.6,275.62 -14.99,419.58l178.99 246.37c72.48,50.48 91.34,112.85 152.24,178.14 42.83,45.89 129.32,136.97 157.57,195.94l507.86 651.9c-71.08,148.39 -360.63,279.98 -360.54,461.26l277.96 930.39 120.44 109.4c81.34,50.78 114.97,41.85 161.98,95.12l36.28 -7.35 232.43 8.41c-21.37,-127.29 -12.22,-44.37 -68.02,-133.68l-259.96 -391.15c-97.8,-158.72 -212.79,-140.72 473.9,-290.78 41.57,-49.51 186.8,-77.54 291.5,-107.31 75.94,46.39 39.28,58.47 100.35,91.4l29.88 -74.35c3.04,-5.97 6.17,-11.19 9.2,-16.75l21.65 -34.33c85.66,-24.58 169.71,-128.1 253.7,-141.63 8.45,91.61 -102.24,400.62 -137.3,551.35 -4.82,20.68 -15.15,73.88 -24.25,96.33l-57.16 75.93 -8.38 -118.69c-18.58,-19.43 -50.09,41.46 -30.21,-63.21 -0.91,73.08 1.48,142.02 3.56,214.83 3.22,113.4 21.41,142.85 -58.76,200.37l78.61 0.05c127.37,-42.93 198.08,-460.36 238.5,-609.18 89.42,-329.32 175.12,-319.61 -38.44,-593.99l-119.81 -163.21c-29.59,33.81 -20.64,-16 -19.03,73.72l139.83 242.49c-50.22,54.16 -201.99,187.1 -281.7,154.82l-119.22 48.87 -852.13 223.16 567.55 -1274.04 23.78 -63.9c82.05,10.93 83.82,-6.23 147.73,45.15l38.11 33.14c3.32,2.86 8.89,8.06 13.67,11.69l189.54 -26.91 -897.78 -2471.81c78.56,0.94 274.28,69.64 314.09,107 52.72,49.48 260.34,898.41 292.2,1007.56 69.03,236.44 104.48,464.21 183.23,682.92 46.23,128.36 170.08,563.77 178.19,705.98l130.72 16.8 -669.03 -2426.39 11.81 -17.03 364.78 -90.97 19.73 6.08 630.51 2551.9 167.82 11.18 -683.61 -2579.73c60.41,-73.16 180.01,-228.05 297.52,-232.11l629.72 2823.05 87.76 50.29c-13.99,-221.31 -643.94,-3017.03 -658.43,-3032.43 -45.28,-48.07 -253.67,-105.36 -293.46,-165.7 -19.39,-29.41 -76.92,-299.86 -97.37,-364.31 -74.28,-234.06 -110.88,-504.45 -181.51,-745.64 -56.44,-192.76 -369.73,-1400.15 -354.22,-1504.86 131.46,-51.83 550.79,-234.69 678.34,-223.91l984.18 6038.29 -0.06 4.74 172.38 4.31c3.55,-218.66 -425.06,-2656.88 -496.36,-3119.62 -78.14,-507.19 -165.97,-1037.62 -255.53,-1548.39l-191.36 -1148.8c-23.57,-146.76 -89.32,-310.3 128.56,-263.78l853.98 6081.14c320.91,118.46 125.9,13.31 258.74,289 75.5,156.73 107.86,224.49 321.58,237.47l-30.85 -111.87c-370.75,-659.71 -563.94,-1624.65 -373.6,-2549.52 176.73,-858.78 635.64,-1410.44 1180.36,-1861.57 319.89,-264.97 627.18,-366.39 1006.77,-523.51 193.35,-80.04 132.2,-388.88 132.2,-624.43 0,-608.37 -43.82,-3716.6 23.25,-3816.6l2239.77 -13.9c50.58,209.59 14.43,3660.35 11.93,4172.9 -1.22,274.57 84.15,264.64 299.39,338.73 557.74,191.94 1109.55,644.46 1449.06,1077.82 774.15,988.12 878.27,2860.05 128.18,3893.4 -19.13,141.7 150.77,87.1 202.54,23.97 18.08,-22.04 92.86,-152.34 112.27,-187.47 100.32,-181.75 25.52,-312.38 285.46,-329.12l250.76 -53.69 996.37 -6034.59 661.79 252.79c19.12,105.1 -293.39,1286.72 -345.34,1468.99 -75.71,265.58 -212.57,938.77 -277.5,1108.87 -43.25,113.25 -195.45,110.37 -285.97,176.44 -119.17,86.96 -585.55,2662.41 -672.82,3024.71l489.49 -43.03 636.23 -2546.79 385.42 84.91 -653.16 2405c38.27,79.8 85.97,42.67 124.8,-1.81l364.76 -1342.73c245.24,-755.44 94.77,-1088.03 589.93,-1140.48l-890.05 2479.84 103.7 28.6c-34.86,131.52 -432.88,666.73 -527.37,818.32 -75.61,121.28 54.68,344.19 89.32,481.91 22.62,89.95 112.71,457.89 152.92,516.36 56.73,36.54 60.16,42.52 140.27,46.64 -112.32,-128.2 27.82,-77.91 -129.19,-229.29 -3.42,-3.31 -10.35,-8.12 -13.21,-13.82 22.44,-123.32 -171.94,-576.19 -170.46,-713.22 89.59,3.15 169.12,110.45 258.9,135.34 45.5,55.94 29.29,38.45 35.64,111.03 54.41,-14.99 47.66,-24.61 59.14,-31.04 48.13,-26.94 -16.41,-6.64 48.6,-28.65 40.06,-13.55 -29.48,-24.3 47.6,-4.71 104.03,26.43 31.6,8.88 59.5,43.65l754.28 185.8c16.52,133.53 -283.75,406.35 -290.64,518.81 -75.8,155.2 -72.53,-25.66 -114.27,143.55 4.71,2.64 12.19,0.42 14.78,6.6 12.35,29.53 160.47,11.13 222.47,-6.5 110.27,3.97 223.38,-91.16 299.58,-164.29 2.37,-2.28 7.36,-7.04 11.25,-10.32l235.19 -797.82 49.39 -209.62 -281.53 -300.22c-51.83,-51.46 -86.41,-59.91 -27.44,-123.28l680.83 -822.4 109.27 -168.04c39.74,-49.13 70.8,-105.71 125.06,-149.53 36.41,-105.15 102.45,-82.01 105.6,-225.08 1.94,-88.03 -23.53,-207.99 -28.33,-314.35l-59.71 -247.07 -87.36 -3.46c-93.31,5.86 -151.39,28.49 -232.58,36.23 -97.92,9.33 -192.81,0.35 -293.91,10.83 -194.98,20.19 -367.63,5.85 -462.2,142.98 -126.64,183.63 -378.79,692.97 -479.37,745.36 2.19,-232.72 319.89,-924.6 395.79,-1161.01 19.62,-138.99 140.32,-422.49 191.96,-563.07 103.02,-280.46 140.01,-355.55 38.02,-557.92 -151.95,-94.15 -27.64,-271.23 32.84,-437.24 55.34,-151.91 133.42,-317.32 175.58,-478.2 19.06,-74.96 106.65,-352.95 156.51,-403.65l284.1 -798.35c13.07,-89.07 51.91,-142.98 86.49,-248.69l43.42 -85.34c26.64,-282.98 171.97,-148.9 -9.52,-558.29 -55.98,-126.29 -194.95,-320.23 -229.49,-464.67 -35.15,-27.08 -130.5,-210.85 -148.29,-283.37l-150.56 -267.83 -417.26 66.95 185.35 -841.94c-4.84,-69.04 -6.78,-119.23 0.29,-196.47 1.79,-19.39 8.27,-73.39 13.17,-90.55 24.32,-85.37 1.9,-31.44 35.69,-70.03l336.86 -1837.62 -31.24 -494.01c12.76,-249.44 -83.99,-869.6 -118.73,-1161.23 -24.55,-206.11 -415.38,-599.4 -466.14,-786.36 -47.57,-39.27 -23.52,-14.87 -58.22,-69.55 -19.29,-30.39 -22.3,-40.15 -46.01,-72.7 -47.4,-65.08 -57.1,-69.25 -87.52,-151.63 -110.45,-126.36 -295.68,-449.53 -390.76,-597.28 -121.89,-189.41 -279.28,-399.08 -440.91,-566.68l-753.07 670.29z"/>
   <path class="fil14" d="M6859.13 17646.36l105.92 113.31 354.14 6.52c-287.17,-421.65 -453.77,-626.35 -565.28,-1210.4 -97.19,-509.04 -90.17,-1172.23 53.86,-1615.7 103.49,-318.67 430.33,-987.87 656.95,-1104.36 153.82,-79.09 1452.31,-0.1 1760.01,-25.43 40.11,-95.32 63.95,-245.6 163.27,-296.27 97.12,-168.3 430.4,-304.96 712.31,-223.28 299.71,86.84 405.96,500.68 451.18,526.44 134.05,72.69 1489.92,-17.43 1788.57,16.57 124.69,14.19 372.99,354.24 433.92,465.65 125.18,228.87 180.24,365.12 263.16,644.87 144.39,487.03 171.98,1089.44 65.13,1623.71 -170.28,851.33 -539.21,1074.42 -593.43,1257.84l365.63 -8.01 81.97 -78.14c750.09,-1033.35 645.97,-2905.28 -128.18,-3893.4 -339.51,-433.36 -891.32,-885.88 -1449.06,-1077.82 -215.24,-74.09 -300.61,-64.16 -299.39,-338.73l7.67 -1567.55c3.34,-249.5 -6.68,-528.9 -6.68,-802.79 0,-335.26 22.83,-1654.43 -12.92,-1802.56l-2239.77 13.9c-67.07,100 -23.25,3208.23 -23.25,3816.6 0,235.55 61.15,544.39 -132.2,624.43 -379.59,157.12 -686.88,258.54 -1006.77,523.51 -544.72,451.13 -1003.63,1002.79 -1180.36,1861.57 -190.34,924.87 2.85,1889.81 373.6,2549.52z"/>
   <path class="fil15" d="M8516.4 7850.75c1.28,185.63 43.43,243.82 250.71,243.82l2202.6 0c238.6,0 395.26,35.33 397.87,-243.13 2.9,-311.48 -88.83,-281.25 -372.79,-281.25l-2229.01 -0.66c-230.81,1.66 -250.92,60.53 -249.38,281.22z"/>
   <path class="fil16" d="M16634.37 15765.56l142.98 -25.89 53.22 344.04c-77.15,-7.81 -173.22,-59.45 -247.1,-91.6l-161.5 -73.56c-43.79,-27.37 -31,-17.01 -60.06,-47.22 50.92,-15.86 58.62,-14.83 92.62,-57.6 -60.11,-0.22 -49.16,-8.81 -100.46,27.03 -20.68,14.45 -54.32,54.16 -57.02,55.82 -97.09,60 -83.24,-16.22 -164.63,-54.45 35.16,72.78 13.59,-13.35 23.07,86.35 -72.77,67.92 -130.06,161.36 -198.28,259.87l-383.19 539.47c-32.63,49 -63,85.1 -101.36,141.54 -47.86,70.44 -25.58,87.89 -119.68,95.49l23.39 -95.91 -48.95 77.41c47.32,91.19 36.04,32.31 73.45,69.62l54.26 70.84 -6.1 -80.08 756.37 -1051.55c97.45,-3.74 247.97,43.3 321.78,107.71 -14.15,54.81 -724.38,953.15 -849.26,1090.65 -44.4,48.87 -20.64,43.22 -99.5,54.47 30.7,26.05 -79.4,69.16 91.61,19.14 -14.46,81.19 -20.68,132.96 121.33,200.99 71.33,-41.91 14.93,17.35 60.1,-62.15 -259.29,42.01 -116,-146.43 -39.84,-240.33l770.95 -975.25c75.98,-77.92 149.39,-7.14 198.28,32.95 -63.84,121.01 -227.47,239.46 -275.45,378.92 114.78,-48.96 209.19,-287.15 309.07,-318.77 -9.15,-71.66 2.98,-20.89 -17.4,-73.76 -2.89,-7.51 -21.74,-30.1 -23.93,-41.19 -2.6,-13.27 -10.17,-12.36 -14.81,-18.86 120.51,0.81 80.2,-7.3 105.73,-26.72 -16.92,-114.34 -17.97,-250.19 -68.07,-350.16l-21.23 -30.43c-94.63,4.61 -75.22,-2.21 -140.39,63.17z"/>
   <path class="fil17" d="M9378.7 17717.49l0 0zm0 0l0 0z"/>
   <path class="fil10" d="M9336.47 17013.37c-202.87,58.09 -341.36,150.33 -315.59,425.12 21.18,226.02 203.23,337.53 472.58,311.88 503.94,-48.01 349.24,-881.94 -156.99,-737z"/>
   <path class="fil18" d="M6598.02 19160.52l180.05 0 0 -234.49 205.17 -445.94 -188.42 0 -50.25 142.37c-17.8,51.29 -35.59,98.4 -53.39,151.79l-4.18 0c-17.8,-53.39 -34.55,-100.5 -51.3,-151.79l-50.25 -142.37 -192.61 0 205.18 445.94 0 234.49zm450.12 0l450.13 0 0 -150.74 -270.08 0 0 -121.43 221.93 0 0 -150.74 -221.93 0 0 -106.78 259.61 0 0 -150.74 -439.66 0 0 680.43zm746.38 -283.69l11.51 -47.1c16.75,-64.9 33.5,-146.56 48.16,-215.64l4.18 0c16.75,68.04 33.5,150.74 50.25,215.64l11.52 47.1 -125.62 0zm191.57 283.69l190.52 0 -207.27 -680.43 -217.74 0 -207.27 680.43 184.24 0 33.5 -144.46 190.52 0 33.5 144.46zm255.42 0l180.05 0 0 -270.08 203.08 0 0 270.08 180.05 0 0 -680.43 -180.05 0 0 253.33 -203.08 0 0 -253.33 -180.05 0 0 680.43zm891.88 -84.79c73.27,65.95 171.67,97.35 257.51,97.35 169.59,0 265.89,-102.59 265.89,-217.73 0,-94.22 -48.15,-152.84 -132.94,-186.34l-82.7 -32.45c-61.76,-24.07 -100.49,-35.59 -100.49,-68.04 0,-30.36 27.21,-46.06 71.18,-46.06 50.25,0 90.03,16.75 136.08,49.2l90.03 -113.06c-62.81,-61.76 -148.65,-91.07 -226.11,-91.07 -148.65,0 -253.33,95.26 -253.33,211.46 0,98.4 63.86,160.16 137.13,189.47l84.8 35.59c57.57,23.03 92.11,33.5 92.11,65.95 0,30.36 -23.03,48.15 -77.46,48.15 -50.25,0 -110.96,-27.21 -159.11,-65.95l-102.59 123.53zm602.96 -250.19c0,232.39 150.74,347.54 328.7,347.54 83.74,0 162.25,-33.5 219.83,-100.49l-98.4 -108.87c-29.31,31.4 -67,54.43 -119.34,54.43 -87.93,0 -146.55,-71.18 -146.55,-198.89 0,-123.52 69.09,-196.8 150.74,-196.8 43.96,0 73.28,16.75 106.77,46.06l98.4 -110.96c-48.15,-48.16 -121.43,-90.03 -207.26,-90.03 -175.87,0 -332.89,129.81 -332.89,358.01zm642.74 334.98l180.05 0 0 -680.43 -180.05 0 0 680.43zm330.79 0l450.13 0 0 -150.74 -270.08 0 0 -121.43 221.93 0 0 -150.74 -221.93 0 0 -106.78 259.61 0 0 -150.74 -439.66 0 0 680.43zm582.03 0l171.68 0 0 -196.8c0,-83.75 -14.66,-182.15 -23.03,-259.61l4.18 0 64.91 151.79 150.74 304.62 184.24 0 0 -680.43 -171.68 0 0 196.8c0,83.75 14.65,186.34 23.03,259.61l-4.19 0 -64.9 -152.83 -150.74 -303.58 -184.24 0 0 680.43zm674.15 -334.98c0,232.39 150.74,347.54 328.7,347.54 83.74,0 162.25,-33.5 219.83,-100.49l-98.4 -108.87c-29.31,31.4 -67,54.43 -119.34,54.43 -87.93,0 -146.55,-71.18 -146.55,-198.89 0,-123.52 69.09,-196.8 150.74,-196.8 43.96,0 73.28,16.75 106.77,46.06l98.4 -110.96c-48.15,-48.16 -121.43,-90.03 -207.26,-90.03 -175.87,0 -332.89,129.81 -332.89,358.01zm642.74 334.98l450.13 0 0 -150.74 -270.08 0 0 -121.43 221.93 0 0 -150.74 -221.93 0 0 -106.78 259.61 0 0 -150.74 -439.66 0 0 680.43zm636.46 -255.42l117.25 0 25.12 -291.01 6.28 -154.93 -180.05 0 6.28 154.93 25.12 291.01zm-46.06 159.11c0,60.72 43.97,108.87 104.69,108.87 60.71,0 104.68,-48.15 104.68,-108.87 0,-60.71 -43.97,-108.86 -104.68,-108.86 -60.72,0 -104.69,48.15 -104.69,108.86z"/>
  </g>
 </g>
</svg>
