<?xml version="1.0" encoding="UTF-8"?>
<!DOCTYPE svg PUBLIC "-//W3C//DTD SVG 1.1//EN" "http://www.w3.org/Graphics/SVG/1.1/DTD/svg11.dtd">
<!-- Creator: CorelDRAW 2017 -->
<svg xmlns="http://www.w3.org/2000/svg" xml:space="preserve" width="200mm" height="200mm" version="1.1" style="shape-rendering:geometricPrecision; text-rendering:geometricPrecision; image-rendering:optimizeQuality; fill-rule:evenodd; clip-rule:evenodd"
viewBox="0 0 20000 20000"
 xmlns:xlink="http://www.w3.org/1999/xlink">
 <defs>
  <style type="text/css">
   <![CDATA[
    .fil0 {fill:#44A8D5}
    .fil9 {fill:#C5838D}
    .fil5 {fill:#C5D8F9}
    .fil7 {fill:#C6D6F9}
    .fil1 {fill:#C9E7F6}
    .fil6 {fill:#E3EFFE}
    .fil3 {fill:#E6E8E8}
    .fil8 {fill:#E6F2FD}
    .fil2 {fill:#EAEAEA}
    .fil4 {fill:#FBFAF9}
   ]]>
  </style>
 </defs>
 <g id="Capa_x0020_1">
  <metadata id="CorelCorpID_0Corel-Layer"/>
  <rect class="fil0" width="20000" height="20000"/>
  <g id="_2384931804080">
   <path class="fil1" d="M16781.8 17418.44c382.78,-87.19 565.07,-328.95 640.71,-737.56 -134.02,71.71 -111.85,-89.25 -112.42,86.83 -90.55,129.58 -112.54,215.93 -187.94,320.46 -33.96,47.1 -37.68,140.92 -274.13,150.4l-66.22 179.87z"/>
   <path class="fil2" d="M13704.76 10740.42c-65.61,-56.91 -7.92,-29.07 -136.54,-92.26 -545.24,-267.92 -69.67,-19.83 -346.38,-262.52 -139.18,-122.08 -407.11,-213.08 -592.19,-244.37 145,309.78 265.61,686.85 621.5,817.69 321.12,118.09 592.1,193.88 891.47,68.56 276.26,-115.6 167.18,-7.74 222.38,-212.99 -275.12,17.58 -539.75,99.55 -766.36,-36.88l106.12 -37.23z"/>
   <path class="fil3" d="M2943.05 16273.96c168.41,520.27 783.04,1005.42 1485.23,1048.74 734.07,45.3 1651.7,-45.18 2445.21,-42.84 1580.72,4.59 3069.06,160.66 4531.27,376.62 486.4,29.16 873.02,137.26 1351.74,202.13 928.49,125.8 1987.19,127.03 2882.71,-46.78 271.41,-52.68 1055.58,-213.02 1142.59,-393.39l66.22 -179.87c236.45,-9.48 240.17,-103.3 274.13,-150.4 75.4,-104.53 97.39,-190.88 187.94,-320.46 0.57,-176.08 -21.6,-15.12 112.42,-86.83 226.49,-255.02 113.32,-986.99 86.89,-1356.09 -0.18,-0.09 -258.12,-1361.07 -264.51,-1464.3 -34.83,-51.76 -299.96,-1192.04 -358.35,-1427.8 -85.93,-346.95 -257.93,-1221.47 -370.59,-1432.93l-173.18 -60.51c-60.72,-171.65 -134.35,-178.61 -312.02,-208.01 -352.23,-58.33 -914.06,-103.12 -1269.63,-64.24l-212.68 68.53c616.04,-33.84 1151.92,-142.06 1319.9,172.16 131.5,246.02 49.15,292.82 108.73,508.9l409.51 1604.9c20.73,103.09 21.45,229.01 41.16,336.57 218.57,1193.06 492.37,1545.11 80.17,2731.05 -116.86,336.18 -638.79,565.94 -983.64,653.1 -220.58,55.77 -56.25,69.39 -592.4,207.26l-1440.04 145.18c-273.95,-5.94 -543.25,-2.16 -816.34,-5.16 -496.27,-5.49 -944.3,-134.89 -1423.71,-174.86 -194.3,-229.1 -525.11,-122.74 -918.23,-144.01 -329.22,-17.79 -677.7,-105.79 -965.13,-125.95 -1922.93,-134.95 -2177.89,-211.79 -4378.58,-210.14 -379.57,0.3 -736.18,30.9 -1121.95,20.85 -406.39,-10.59 -439.78,92.44 -827.15,-135.85 -10.89,-6.42 -38.13,-1.02 -46.38,-23.04 -8.91,-23.79 -33.96,-15.6 -51.31,-22.53z"/>
   <path class="fil4" d="M2999.1 10932.56c-147.79,223.88 -315.48,896.6 -378.93,1213.03 -100.06,498.86 -167.51,846.74 -180.41,1432.24 -11.58,524 99.55,2533.96 503.29,2696.13 17.35,6.93 42.4,-1.26 51.31,22.53 8.25,22.02 35.49,16.62 46.38,23.04 387.37,228.29 420.76,125.26 827.15,135.85 385.77,10.05 742.38,-20.55 1121.95,-20.85 2200.69,-1.65 2455.65,75.19 4378.58,210.14 287.43,20.16 635.91,108.16 965.13,125.95 393.12,21.27 723.93,-85.09 918.23,144.01 479.41,39.97 927.44,169.37 1423.71,174.86 273.09,3 542.39,-0.78 816.34,5.16l1440.04 -145.18c536.15,-137.87 371.82,-151.49 592.4,-207.26 344.85,-87.16 866.78,-316.92 983.64,-653.1 412.2,-1185.94 138.4,-1537.99 -80.17,-2731.05 -19.71,-107.56 -20.43,-233.48 -41.16,-336.57l-409.51 -1604.9c-59.58,-216.08 22.77,-262.88 -108.73,-508.9 -167.98,-314.22 -703.86,-206 -1319.9,-172.16 -231.62,41.76 -602.67,7.77 -843.68,4.89l-106.12 37.23c226.61,136.43 491.24,54.46 766.36,36.88 -55.2,205.25 53.88,97.39 -222.38,212.99 -299.37,125.32 -570.35,49.53 -891.47,-68.56 -355.89,-130.84 -476.5,-507.91 -621.5,-817.69 -317.4,-99.49 -681.09,23.46 -943.29,113.65l-1702.5 537.83c-379.14,139.06 -388.65,216.91 -870.01,226.28 -992.1,19.32 -592.4,61.62 -1016.7,122.05 -694.11,98.85 -1072.39,-94.42 -1576.31,-417.01l-817.42 -305.13c-108.94,-63.03 -10.65,17.94 -102.67,-114.82 -454.57,-17.1 -1595.9,-50.76 -2013.27,191.42 -352.71,204.68 -241.25,35.25 -424.63,189.44 -147.49,124 1.17,105.4 -163.75,247.58z"/>
   <path class="fil5" d="M16294.56 3683.14c-1993.94,-48.52 -12716.47,69.34 -13041.79,-21.57l6.12 -138.4 13187.18 -19.57c261.29,27.03 38.61,-16.89 160.96,53.71 -71.73,182.56 -66.23,131.8 -312.47,125.83zm-6779.16 2235.92c-456.01,-66.04 -913.4,127.81 -1317.63,131.22 -570.64,4.84 -792.42,-24.6 -1305.98,180.54 -395.22,157.87 -84.13,-16.98 -304.68,186.64 -49.71,45.9 -254.08,157.28 -324.33,197.27 -178.3,101.53 -1018.05,952.8 -1020.59,954.5 -485.86,326.52 -752.41,982.17 -1012.8,1022.11 -15.54,-1054.46 95.67,-2275.98 -276.68,-3122.03 -29.67,-289.99 -135.02,-489.1 -134.27,-688.7 294.36,-66.78 10338.73,-54.76 10520.22,-2.53 -64.23,164.78 36.93,34.57 -511.43,180.06l-1813.59 422.28c-428.54,95.98 -772.54,195.08 -1221.26,249.29l-964.83 193.43c-356.43,34.65 -195.97,-22.74 -312.15,95.92zm-6323.69 -1751.11c54.62,1260.41 417.4,2922.29 411.17,4272.44 -1.75,375.84 46.53,529.75 -89.18,607.31 94.85,418.57 -461.11,1481.02 -514.6,1884.85 164.92,-142.17 16.26,-123.58 163.76,-247.57 183.37,-154.18 71.91,15.24 424.62,-189.44 417.37,-242.18 1558.7,-208.52 2013.27,-191.42 92.01,132.76 -6.27,51.78 102.67,114.82l817.42 305.13c503.93,322.58 882.19,515.86 1576.31,417 424.3,-60.42 24.6,-102.72 1016.7,-122.04 481.36,-9.36 490.87,-87.23 870.01,-226.29l1702.5 -537.82c262.2,-90.19 625.89,-213.14 943.29,-113.65 185.08,31.29 453,122.29 592.18,244.37 276.72,242.69 -198.85,-5.4 346.39,262.52 128.62,63.19 70.93,35.35 136.54,92.26 241.01,2.88 612.05,36.88 843.67,-4.89l212.69 -68.52c355.57,-38.89 917.39,5.91 1269.62,64.23 177.68,29.4 251.31,36.37 312.03,208.01l173.17 60.51c-45.66,-331.85 -186.46,-759.45 -263.65,-1135.9 -134.12,-653.85 -106.9,-1317.71 -35.41,-1982.39 13.99,-129.97 368.23,-1343.04 400.03,-1752.76 118.96,-235.1 143.89,-1287.35 123.42,-1707.69 -27.06,-556.19 -138.36,-1219.54 -55.89,-1800.73l-26.46 -32.19 -13455.08 -7.46c-94.26,188.44 -49.86,575.32 -48,824.07 0.72,96.59 -23.22,780.76 36.81,763.24z"/>
   <path class="fil6" d="M3952.7 5469.32c372.37,846.04 261.15,2067.57 276.69,3122.01 260.39,-39.93 526.93,-695.58 1012.8,-1022.1 2.55,-1.71 842.29,-852.97 1020.6,-954.5 70.23,-40 274.61,-151.37 324.33,-197.27 220.54,-203.63 -90.55,-28.77 304.67,-186.65 513.56,-205.12 735.34,-175.69 1305.99,-180.52 404.22,-3.42 861.61,-197.27 1317.62,-131.23 116.17,-118.66 -44.28,-61.27 312.15,-95.92l964.83 -193.43c448.72,-54.21 792.73,-153.31 1221.25,-249.29l1813.6 -422.29c548.36,-145.48 447.19,-15.27 511.43,-180.04 -181.49,-52.24 -10225.86,-64.27 -10520.22,2.52 -0.75,199.6 104.59,398.7 134.26,688.71z"/>
   <path class="fil7" d="M3200.42 2430.26l13461.82 -5.43c-6.69,-114.85 8.37,-238.37 -60,-300.87 -158.93,-75.6 -12240,-97.96 -13393.03,-37.41 -41.05,166.84 -102.64,216.14 -8.79,343.71z"/>
   <path class="fil8" d="M3252.77 3661.57c325.32,90.91 11047.84,-26.94 13041.79,21.57 246.23,5.97 240.74,56.73 312.48,-125.83 -122.35,-70.6 100.33,-26.67 -160.97,-53.71l-13187.18 19.57 -6.12 138.4z"/>
   <polygon class="fil9" points="3202.91,2580.63 16657.98,2588.1 16662.24,2424.83 3200.42,2430.26 "/>
  </g>
 </g>
</svg>
