<?xml version="1.0" encoding="UTF-8"?>
<!DOCTYPE svg PUBLIC "-//W3C//DTD SVG 1.1//EN" "http://www.w3.org/Graphics/SVG/1.1/DTD/svg11.dtd">
<!-- Creator: CorelDRAW 2017 -->
<svg xmlns="http://www.w3.org/2000/svg" xml:space="preserve" width="200mm" height="200mm" version="1.1" style="shape-rendering:geometricPrecision; text-rendering:geometricPrecision; image-rendering:optimizeQuality; fill-rule:evenodd; clip-rule:evenodd"
viewBox="0 0 20000 20000"
 xmlns:xlink="http://www.w3.org/1999/xlink">
 <defs>
  <style type="text/css">
   <![CDATA[
    .str0 {stroke:#FEFEFE;stroke-width:7.62;stroke-miterlimit:22.9256}
    .fil0 {fill:none}
    .fil2 {fill:#010101}
    .fil10 {fill:#020202}
    .fil7 {fill:#040404}
    .fil1 {fill:#919191}
    .fil5 {fill:#A7A796}
    .fil4 {fill:#C3BEA2}
    .fil6 {fill:#CF4C4E}
    .fil8 {fill:#CFD0D2}
    .fil9 {fill:#D0D1D3}
    .fil11 {fill:#FEFEFE}
    .fil3 {fill:#FEFEFE}
   ]]>
  </style>
 </defs>
 <g id="Capa_x0020_1">
  <metadata id="CorelCorpID_0Corel-Layer"/>
  <rect class="fil0" width="20000" height="20000"/>
  <path class="fil1" d="M9155.02 13336.92c110.64,-145.61 339.35,-197.58 528.14,-271.85 193.03,-75.93 382.28,-139.84 554.46,-213.2 922.01,-392.84 2751.98,-956.3 3343.73,-1246.27l-545.75 -97.83c-258.82,239.09 -4160.51,1318.57 -4345.18,1359.72 -71.54,-99.61 -111.65,156.72 -50.17,-151.5l-96.03 119.48c85.44,177.45 73.32,126.19 214.3,278.94 -10.81,11.78 -26.21,28.15 -33.25,34.59 -7.06,6.45 -25.93,25.25 -34.73,33.21 -8.99,8.13 -28.15,21.71 -38.09,30.94 -229.58,213.25 -123.39,135.69 -202.17,385.75 -655.89,109.67 -866.69,273.36 -1334.18,-233.12 -93.14,-100.94 -51.69,-31.55 -103.44,-181.65 138.96,-283.23 33.07,-10.89 151.65,-198.65 366.52,-580.3 -208.8,-66.73 488.15,-420.99 163,-82.84 269.31,-142.19 427.73,-201.43 307.57,-114.99 277.24,-33.8 446.16,-171.49 -321.44,-116.55 -195.68,-249.03 -627.51,-519.33 -922.73,-577.66 -2068.67,-945.24 -2195.3,-1347.27 -105.82,-944.74 1412.76,-2415.58 -28.96,-2715.91 158.73,212.64 513.88,390.95 294.62,832.01 -327.2,658.14 -1662.61,1108.55 -623.52,2439.53 184.16,235.87 1037.59,940.55 1098.48,1410.15 62.34,481.11 -557.06,453.75 -684.5,267.42 -216.44,-316.48 266.61,-674.91 -137.62,-960.87 -5.08,12.13 -11.07,29.75 -12.87,37.28 -216.4,910.26 -669.95,573.5 6.88,1344.84 177.27,202.02 314.44,193.36 482.23,425.63 311.9,431.69 197.4,935.25 616.89,1269.88 330.36,263.53 969.79,377.17 1415.11,-98.4 92.4,-98.66 614.78,-862.37 694.3,-1107.92 388.02,-45.94 236.51,-47.46 330.44,-131.69z"/>
  <path class="fil2" d="M10930.89 19368.16c-79.11,56.22 52.29,5.26 -147.9,89.65 -3.08,1.3 -152.17,44.97 -167.53,48.49 -680.33,156.01 -1530.04,214.6 -2179.84,-2.16 -985.43,-328.71 -1133.52,-1190.82 -1334.38,-1541.66 -80.24,845.84 665.83,1606.34 1256.35,1831.28 1479.6,563.58 3785.52,-114.97 4767.6,-986.39 437.56,-388.28 1169.28,-1298.36 678.05,-2165.93 -71.4,569.06 21.81,733.33 -240.08,1205.85 -169.57,305.95 -383,497.95 -673.05,720.26 -357.62,274.14 -1469.87,810.53 -1959.22,800.61z"/>
  <path class="fil3 str0" d="M12650.96 9775.13c38.09,152.61 137.13,115.58 -463.45,139.76 93.08,126.85 63.67,94.88 133.07,237.21 12.79,-14.39 35.66,-58.39 38.83,-42.82 2.51,12.44 28.25,-30.97 30.95,-34.25 113.27,-137.37 37.56,-14.12 19.73,-29.02 112.66,735.57 1063.74,879.03 1460.66,976.6 291.33,-409.7 319.09,-691.89 341.84,-1324.93 -336.74,0 -241.11,90.48 -361.35,278.94 29.87,-38.88 221.06,14.77 -6.43,-139.48 -11.5,-7.79 -37.22,-18.42 -51.71,-24.63l-366.81 -5.87c-196.21,98.92 -101.31,-246.62 -132.94,239.72 75.02,-97.67 121.12,172.02 38.31,-102.3 -85.93,-284.69 -343.2,-158.99 -665.93,-246.38l-14.77 77.45z"/>
  <path class="fil4" d="M8640.25 12715.99c-61.48,308.22 -21.37,51.89 50.17,151.5 184.67,-41.15 4086.36,-1120.63 4345.18,-1359.72 -187.04,-66.62 -363.09,-158.02 -487.69,-214.46l-129.59 83.2 81.08 44.97c-681.17,92.08 -2908.2,896.45 -4120.14,1015.55l260.99 278.96z"/>
  <path class="fil3 str0" d="M9427.78 9908.96l30.08 555.11c138.97,51.5 -202.46,96.65 218.24,57.98 310.07,-28.5 234.66,-222.84 187.22,-472.88 41.25,59.46 247.45,424.04 253.72,440.5 174.8,-171.84 265.08,-458.94 107.57,-700.17 -223.73,92.08 -98.68,-68.16 -196.59,202.54 -167.53,-438.35 -8.38,-27.34 -267.06,-296.22 -160.99,194.93 -145.21,315.85 -181.76,579.93l-151.42 -366.79z"/>
  <path class="fil5" d="M14657.4 10784.67l-231.5 42 -430.75 581.45c-9.31,13.88 -22.88,38.37 -34.46,57.45l999 -306.8c332.49,-139.92 144.74,-16.9 206.63,-206.18 -246.26,-191.39 -242.11,-24.01 -508.92,-167.92z"/>
  <path class="fil6" d="M8017.8 12925.09c39.44,-200.18 59.78,-239.86 -94.48,-341.19 -369.66,350.11 -150.18,170.84 -568.84,391.03 36.71,137.11 181.86,446.02 237.59,539.74 238.24,53.19 414.13,69.06 610.54,-51.58 -118.43,-229.74 -211,-114.55 -495.14,-68.18 142.21,-314.7 97.65,-33.84 110.66,-374.71l199.67 -95.11z"/>
  <path class="fil3 str0" d="M8480.86 9877.27c-53.92,-306.62 -76.81,-451.57 -71.97,-742.3 10.32,-621.28 159.11,-475.23 -67.15,-756.49 -43.59,63.58 -91.39,-29.89 -141.93,339.71 -7.24,52.84 -0.14,282.38 0.41,351.71 5.91,754.97 153.16,344.98 45.45,731.48 -132.68,476.09 116.55,340.18 -182.87,535.84 -273.87,-271.39 22.57,-190.4 -209.21,-569.8 -79.36,146.36 -190.85,-199.5 -36.7,609.81 165.79,31.61 38.88,65.1 242.15,113.79l361.51 20.18c224.9,2.65 36.18,-15.24 199.54,58.06l279.2 -105.19 78.51 -205.26 129.15 227.11c-15.62,-398.7 -59.33,-417.42 73.51,-529.32 -3.85,259.47 -33.15,322.37 55.59,518.94 11.43,-122.18 25.34,-240.47 25.46,-363.9 0,-5.48 -11.94,-203.67 -12.53,-208.61 -2.14,-18.05 -15.24,-28.41 -17.26,-62.94 -1.98,-34.26 -14.25,-40.72 -21.27,-61.13 -31.59,10.72 -176.25,-193.92 -156.48,434.38 -101.59,-173.09 -34.3,-208.79 -533.47,-214.4 295.31,-69.82 269.16,34.63 457.36,-162.13 -142.92,-83.46 -132.99,-108.77 -356.84,-80.34 -384.56,48.85 -139.41,108.48 -140.16,120.8z"/>
  <path class="fil3 str0" d="M6876.93 9976.29c80.16,-21.45 60.89,16.44 144.05,-16.43 244.94,-96.82 32.22,15.81 163.71,-147.72l-314.48 -48.38c213.23,-634.84 3.52,-302.46 -132.05,-414.76 -68.12,181.47 -85.67,447.66 -119.77,673.31 -129.44,-312.69 -140,-301.94 -644.47,-237.75l1.27 680.58c408.81,92.99 350.83,194.93 509.98,-188.8 190.72,172.12 97.58,303.24 194.82,85.32 207.26,219.26 84.38,171.42 545.62,172.15 -205.5,-255.26 311.01,-205.56 -368.72,-208.84 41.29,-191.19 -23.84,-70.18 101.88,-147.55l146.02 -55.35c7.36,-20.5 30.56,-17.12 44.36,-27.81 -74.94,-71.44 -10.99,-26.43 -171.84,-85.89l-100.38 -32.08z"/>
  <path class="fil7" d="M8017.8 12925.09l-199.67 95.11c-13.01,340.87 31.55,60.01 -110.66,374.71 284.14,-46.37 376.71,-161.56 495.14,68.18 -196.41,120.64 -372.3,104.77 -610.54,51.58 -55.73,-93.72 -200.88,-402.63 -237.59,-539.74 418.66,-220.19 199.18,-40.92 568.84,-391.03 154.26,101.33 133.92,141.01 94.48,341.19zm2974.25 -1297.21c-340.87,106.72 -857.93,204.46 -1203.65,279.08 -375.45,81.05 -873.04,267.2 -1262.05,284.61 -168.92,137.69 -138.59,56.5 -446.16,171.49 -158.42,59.24 -264.73,118.59 -427.73,201.43 -696.95,354.26 -121.63,-159.31 -488.15,420.99 -118.58,187.76 -12.69,-84.58 -151.65,198.65 51.75,150.1 10.3,80.71 103.44,181.65 467.49,506.48 678.29,342.79 1334.18,233.12 78.78,-250.06 -27.41,-172.5 202.17,-385.75 9.94,-9.23 29.1,-22.81 38.09,-30.94 8.8,-7.96 27.67,-26.76 34.73,-33.21 7.04,-6.44 22.44,-22.81 33.25,-34.59 -140.98,-152.75 -128.86,-101.49 -214.3,-278.94l96.03 -119.48 -260.99 -278.96c1211.94,-119.1 3438.97,-923.47 4120.14,-1015.55l-81.08 -44.97 -1036.68 180.88c72.31,-605.21 225.19,-922.92 363.15,-1462.36 -144.27,96.43 -91.15,-92.47 -238.56,326.27 -171.24,486.44 -208.61,576.7 -141.08,1151.88l-373.1 54.7z"/>
  <path class="fil7" d="M13633.59 16363.31c205.73,-144.14 374.96,-187.99 593.59,-362.74 187.22,-149.66 370.21,-278.54 480.61,-420.36 -268.84,42.74 -897.65,471.72 -1308.11,639.03 -322.9,131.62 -1081.01,366.08 -1352.13,510.53 551.34,63.21 1132.63,-191.77 1586.04,-366.46z"/>
  <path class="fil8" d="M7101.24 17962.48c200.86,350.84 348.95,1212.95 1334.38,1541.66 649.8,216.76 1499.51,158.17 2179.84,2.16 15.36,-3.52 164.45,-47.19 167.53,-48.49 200.19,-84.39 68.79,-33.43 147.9,-89.65 -721.38,-73.24 -1647.6,-287.9 -1806.41,-1163.03 403.64,-1.41 346.15,12.85 681.18,-191.99l-945.89 19.61c-97.26,89.37 173.42,100.6 -306.26,109.93 -454.12,8.82 -1198.24,-278.43 -1589.21,-432.18 93.68,393.66 51.62,167.04 136.94,251.98z"/>
  <path class="fil8" d="M10268.3 678.86l-145.37 144.17c125.62,263.88 -6.49,64.36 223.37,244.35 116.47,91.2 144.09,99.86 216.62,270.44 119.99,282.24 91.64,638.47 87.63,967.15l115.14 -349.37c5.32,-74.57 -196.19,-490.6 574.43,-635.69 519.7,-97.85 882.97,164.64 1141.41,465.82l8.72 277.64c128.89,0 438.82,-1415.03 -355.29,-1742.78 -297.7,-122.88 -675.4,-102.77 -979.15,-17.95 -344.53,96.25 -625.75,337.26 -887.51,376.22z"/>
  <path class="fil9" d="M8859.77 18032.75c-1271.14,-574.11 -2265.71,-1439.4 -3079.69,-2562.8 -786.34,-1085.23 -1310.5,-2646.46 -1322.36,-4305.84 -14.04,-1963.98 381.14,-3034.21 1024.88,-4606.08 316.71,-773.33 1491.31,-3568.98 2698.27,-2370.18 -72.43,-897.38 -567.33,-1493.63 -1467.32,-445.23 -412.49,480.53 -834.35,1270.43 -1132.43,1941.46 -1398.71,3148.86 -2019.93,6734.01 -320.67,9885.42 673.17,1248.43 2169.29,2681.51 3599.32,2463.25z"/>
  <path class="fil9" d="M8272.97 3302.93c268.72,-690.81 1034.3,-1838.5 2021.38,-1499.29l35.05 606.56c213.28,-83.7 244.21,-1835.38 -1185.73,-1048.36 -532.22,292.91 -1088.19,963.63 -1240.08,1571.09 123.07,124.32 246.74,247.02 369.38,370z"/>
  <path class="fil9" d="M13920.29 13655.39c-180.6,-150.94 -235.5,-131.73 -369.72,-311.42 -327.91,-438.92 -234.31,-1037.25 21.03,-1467.16l-1047.29 344.1c60.21,873.18 491.66,1376.54 1395.98,1434.48z"/>
  <path class="fil3" d="M10992.05 11627.88l373.1 -54.7c-67.53,-575.18 -30.16,-665.44 141.08,-1151.88 147.41,-418.74 94.29,-229.84 238.56,-326.27l23.84 -82.51 84.59 -802.98c-449.8,378.75 -501.63,687.36 -656.49,908.86 -100.85,-232.59 -39.28,-174.73 -193.07,-325.4 -143.46,123.57 -255.8,466.62 -252.83,660.38l248.84 -166.4c312.19,-56.22 99.37,-4.55 141.47,-98.27l-149.09 1439.17z"/>
  <path class="fil9" d="M13870.75 11022.61c-396.92,-97.57 -1348,-241.03 -1460.66,-976.6 17.83,14.9 93.54,-108.35 -19.73,29.02 -2.7,3.28 -28.44,46.69 -30.95,34.25 -3.17,-15.57 -26.04,28.43 -38.83,42.82 -69.4,-142.33 -39.99,-110.36 -133.07,-237.21 600.58,-24.18 501.54,12.85 463.45,-139.76l-575.59 19.41c-31.53,-109.35 7.94,-54.08 -66.46,-202.5 -89.87,-179.23 -57.57,-91.36 -129.66,-164.8 210.59,1886.79 1604.11,2188.18 1991.5,1595.37z"/>
  <path class="fil10" d="M10268.3 678.86c261.76,-38.96 542.98,-279.97 887.51,-376.22 303.75,-84.82 681.45,-104.93 979.15,17.95 794.11,327.75 484.18,1742.78 355.29,1742.78 24.47,580.9 -533.81,1533.6 -800.45,1917.01 -369.11,530.69 -733.43,1087.41 -1036.37,1686.37 -327.43,647.35 -615.27,1140.67 -853.35,1865.2 -513.13,1561.49 -211.59,1539.9 -372.3,2377.01l151.42 366.79c36.55,-264.08 20.77,-385 181.76,-579.93 -13.03,-531.59 582.73,-1304.37 826.94,-1659.62 243.94,-354.81 882.55,-863.71 1488.14,-1015.84 1464.43,-367.88 2106.54,1341.64 2136.55,2677.32 -22.75,633.04 -50.51,915.23 -341.84,1324.93 -387.39,592.81 -1780.91,291.42 -1991.5,-1595.37l-18.62 -256.92 -7.41 39.22 -84.59 802.98c170.61,9.07 89.01,80.93 160.97,349.83 41.35,154.58 74.6,228.55 141.28,352.36 141.5,262.73 304.62,419.69 477.03,578.6 124.6,56.44 300.65,147.84 487.69,214.46l545.75 97.83c-591.75,289.97 -2421.72,853.43 -3343.73,1246.27 -172.18,73.36 -361.43,137.27 -554.46,213.2 -188.79,74.27 -417.5,126.24 -528.14,271.85l2534.04 -783.06c205.37,125.58 111.22,104.59 375.14,170.77 -14.04,-17.06 -32.42,-38.65 -42.33,-50.94l-151.93 -211.08 585.95 -184.49c-27.99,986.27 226.7,1311.72 1080.23,1564.1l93.44 348.52c118.47,-196.09 52.33,-123.98 40.49,-350.34 308.31,-17.16 577.61,-35.56 811.01,-165.4l-560.77 -19.61c-904.32,-57.94 -1335.77,-561.3 -1395.98,-1434.48l1047.29 -344.1c820.92,-521.77 1680.3,-425.77 2149.8,480.73 224.6,433.67 202.68,1017.9 46.85,1489.07 -132.11,399.4 -479.41,905.51 -505.01,1168.76 419.1,-359.97 963.7,-1289.64 884.99,-2108.46 -113.1,-1176.16 -1248.71,-1386.31 -1425.59,-1500.9 346.37,-112.36 570.57,-131.4 567.01,-505.7 -248.55,-199.14 -280.54,-89.15 -632.25,-115.64 266.81,143.91 262.66,-23.47 508.92,167.92 -61.89,189.28 125.86,66.26 -206.63,206.18l-999 306.8c11.58,-19.08 25.15,-43.57 34.46,-57.45l430.75 -581.45c196.32,-1023.37 323.03,-1522.86 -21.94,-2588.22 -806.42,-2490.58 -3606.48,-2181.84 -4759.45,903.46 -177.08,-721.58 595.03,-2461.55 900.08,-2961.6 914.83,-1499.48 2988.74,-3510.15 2327.1,-5473.32 -393.32,-1167.01 -2120.43,-681.06 -2603.39,-28.13z"/>
  <path class="fil10" d="M6964.3 17710.5c390.97,153.75 1135.09,441 1589.21,432.18 479.68,-9.33 209,-20.56 306.26,-109.93 -1430.03,218.26 -2926.15,-1214.82 -3599.32,-2463.25 -1699.26,-3151.41 -1078.04,-6736.56 320.67,-9885.42 298.08,-671.03 719.94,-1460.93 1132.43,-1941.46 899.99,-1048.4 1394.89,-452.15 1467.32,445.23 150.45,2021.19 -1210.97,3289.88 -1314.04,4972.25 10.77,-16.55 25.74,-37.19 32.16,-49.76l119.85 -318.95c639.13,-2021.21 1938.74,-3296.32 1254.13,-5488.46 -122.64,-122.98 -246.31,-245.68 -369.38,-370 151.89,-607.46 707.86,-1278.18 1240.08,-1571.09 1429.94,-787.02 1399.01,964.66 1185.73,1048.36 76.98,710.29 -588.5,2198.62 -856.12,2769.71 -298.12,636.14 -933.53,1747.27 -982.16,2573.08 189.22,-371.47 360.33,-1004.08 543.46,-1408.98 200.32,-442.88 426.86,-812.61 643.59,-1241.23 377.33,-746.24 908.79,-1878.91 972.38,-2797.81 4.01,-328.68 32.36,-684.91 -87.63,-967.15 -72.53,-170.58 -100.15,-179.24 -216.62,-270.44 -82.43,-64.55 426,-609.4 384.05,-593.81l-424.73 158.07c-8.02,2.98 -178.5,200.2 -182.69,191.39 -336.47,289.73 -1214.83,-274.36 -2214.32,1259.3 -816.05,1252.12 -50.57,416.41 -868.93,875 -304.33,170.53 -767.42,752.12 -972.14,1050.31 -1093.8,1593.3 -1857.02,3949.95 -2155.79,5991.18 -330.97,2261.21 573.11,5798.36 2270.7,7156.37l781.85 555.31z"/>
  <path class="fil11" d="M6876.93 9976.29l100.38 32.08c160.85,59.46 96.9,14.45 171.84,85.89 -13.8,10.69 -37,7.31 -44.36,27.81l-146.02 55.35c-125.72,77.37 -60.59,-43.64 -101.88,147.55 679.73,3.28 163.22,-46.42 368.72,208.84 -461.24,-0.73 -338.36,47.11 -545.62,-172.15 -97.24,217.92 -4.1,86.8 -194.82,-85.32 -159.15,383.73 -101.17,281.79 -509.98,188.8l-1.27 -680.58c504.47,-64.19 515.03,-74.94 644.47,237.75 34.1,-225.65 51.65,-491.84 119.77,-673.31 135.57,112.3 345.28,-220.08 132.05,414.76l314.48 48.38c-131.49,163.53 81.23,50.9 -163.71,147.72 -83.16,32.87 -63.89,-5.02 -144.05,16.43zm1603.93 -99.02c0.75,-12.32 -244.4,-71.95 140.16,-120.8 223.85,-28.43 213.92,-3.12 356.84,80.34 -188.2,196.76 -162.05,92.31 -457.36,162.13 499.17,5.61 431.88,41.31 533.47,214.4 -19.77,-628.3 124.89,-423.66 156.48,-434.38 7.02,20.41 19.29,26.87 21.27,61.13 2.02,34.53 15.12,44.89 17.26,62.94 0.59,4.94 12.53,203.13 12.53,208.61 -0.12,123.43 -14.03,241.72 -25.46,363.9 -88.74,-196.57 -59.44,-259.47 -55.59,-518.94 -132.84,111.9 -89.13,130.62 -73.51,529.32l-129.15 -227.11 -78.51 205.26 -279.2 105.19c-163.36,-73.3 25.36,-55.41 -199.54,-58.06l-361.51 -20.18c-203.27,-48.69 -76.36,-82.18 -242.15,-113.79 -154.15,-809.31 -42.66,-463.45 36.7,-609.81 231.78,379.4 -64.66,298.41 209.21,569.8 299.42,-195.66 50.19,-59.75 182.87,-535.84 107.71,-386.5 -39.54,23.49 -45.45,-731.48 -0.55,-69.33 -7.65,-298.87 -0.41,-351.71 50.54,-369.6 98.34,-276.13 141.93,-339.71 226.26,281.26 77.47,135.21 67.15,756.49 -4.84,290.73 18.05,435.68 71.97,742.3zm2169.69 -7572.3c-63.59,918.9 -595.05,2051.57 -972.38,2797.81 -216.73,428.62 -443.27,798.35 -643.59,1241.23 -183.13,404.9 -354.24,1037.51 -543.46,1408.98 48.63,-825.81 684.04,-1936.94 982.16,-2573.08 267.62,-571.09 933.1,-2059.42 856.12,-2769.71l-35.05 -606.56c-987.08,-339.21 -1752.66,808.48 -2021.38,1499.29 684.61,2192.14 -615,3467.25 -1254.13,5488.46l-119.85 318.95c-6.42,12.57 -21.39,33.21 -32.16,49.76 103.07,-1682.37 1464.49,-2951.06 1314.04,-4972.25 -1206.96,-1198.8 -2381.56,1596.85 -2698.27,2370.18 -643.74,1571.87 -1038.92,2642.1 -1024.88,4606.08 11.86,1659.38 536.02,3220.61 1322.36,4305.84 813.98,1123.4 1808.55,1988.69 3079.69,2562.8l945.89 -19.61c-335.03,204.84 -277.54,190.58 -681.18,191.99 158.81,875.13 1085.03,1089.79 1806.41,1163.03 489.35,9.92 1601.6,-526.47 1959.22,-800.61 290.05,-222.31 503.48,-414.31 673.05,-720.26 261.89,-472.52 168.68,-636.79 240.08,-1205.85 37.99,-125.64 86.76,-48.86 -6.68,-174.96 -260.44,-351.47 222.86,95.16 -162.97,-103.17 -453.41,174.69 -1034.7,429.67 -1586.04,366.46 271.12,-144.45 1029.23,-378.91 1352.13,-510.53 410.46,-167.31 1039.27,-596.29 1308.11,-639.03 239.21,-42.24 544.94,-313.65 555.45,-564.84 25.6,-263.25 372.9,-769.36 505.01,-1168.76 155.83,-471.17 177.75,-1055.4 -46.85,-1489.07 -469.5,-906.5 -1328.88,-1002.5 -2149.8,-480.73 -255.34,429.91 -348.94,1028.24 -21.03,1467.16 134.22,179.69 189.12,160.48 369.72,311.42l560.77 19.61c-233.4,129.84 -502.7,148.24 -811.01,165.4 11.84,226.36 77.98,154.25 -40.49,350.34l-93.44 -348.52c-853.53,-252.38 -1108.22,-577.83 -1080.23,-1564.1l-585.95 184.49 151.93 211.08c9.91,12.29 28.29,33.88 42.33,50.94 -263.92,-66.18 -169.77,-45.19 -375.14,-170.77l-2534.04 783.06c-93.93,84.23 57.58,85.75 -330.44,131.69 -79.52,245.55 -601.9,1009.26 -694.3,1107.92 -445.32,475.57 -1084.75,361.93 -1415.11,98.4 -419.49,-334.63 -304.99,-838.19 -616.89,-1269.88 -167.79,-232.27 -304.96,-223.61 -482.23,-425.63 -676.83,-771.34 -223.28,-434.58 -6.88,-1344.84 1.8,-7.53 7.79,-25.15 12.87,-37.28 404.23,285.96 -78.82,644.39 137.62,960.87 127.44,186.33 746.84,213.69 684.5,-267.42 -60.89,-469.6 -914.32,-1174.28 -1098.48,-1410.15 -1039.09,-1330.98 296.32,-1781.39 623.52,-2439.53 219.26,-441.06 -135.89,-619.37 -294.62,-832.01 1441.72,300.33 -76.86,1771.17 28.96,2715.91 126.63,402.03 1272.57,769.61 2195.3,1347.27 431.83,270.3 306.07,402.78 627.51,519.33 389.01,-17.41 886.6,-203.56 1262.05,-284.61 345.72,-74.62 862.78,-172.36 1203.65,-279.08l149.09 -1439.17c-42.1,93.72 170.72,42.05 -141.47,98.27l-248.84 166.4c-2.97,-193.76 109.37,-536.81 252.83,-660.38 153.79,150.67 92.22,92.81 193.07,325.4 154.86,-221.5 206.69,-530.11 656.49,-908.86l7.41 -39.22 18.62 256.92c72.09,73.44 39.79,-14.43 129.66,164.8 74.4,148.42 34.93,93.15 66.46,202.5l575.59 -19.41 14.77 -77.45c322.73,87.39 580,-38.31 665.93,246.38 82.81,274.32 36.71,4.63 -38.31,102.3 31.63,-486.34 -63.27,-140.8 132.94,-239.72l366.81 5.87c14.49,6.21 40.21,16.84 51.71,24.63 227.49,154.25 36.3,100.6 6.43,139.48 120.24,-188.46 24.61,-278.94 361.35,-278.94 -30.01,-1335.68 -672.12,-3045.2 -2136.55,-2677.32 -605.59,152.13 -1244.2,661.03 -1488.14,1015.84 -244.21,355.25 -839.97,1128.03 -826.94,1659.62 258.68,268.88 99.53,-142.13 267.06,296.22 97.91,-270.7 -27.14,-110.46 196.59,-202.54 157.51,241.23 67.23,528.33 -107.57,700.17 -6.27,-16.46 -212.47,-381.04 -253.72,-440.5 47.44,250.04 122.85,444.38 -187.22,472.88 -420.7,38.67 -79.27,-6.48 -218.24,-57.98l-30.08 -555.11c160.71,-837.11 -140.83,-815.52 372.3,-2377.01 238.08,-724.53 525.92,-1217.85 853.35,-1865.2 302.94,-598.96 667.26,-1155.68 1036.37,-1686.37 266.64,-383.41 824.92,-1336.11 800.45,-1917.01l-8.72 -277.64c-258.44,-301.18 -621.71,-563.67 -1141.41,-465.82 -770.62,145.09 -569.11,561.12 -574.43,635.69l-115.14 349.37z"/>
 </g>
</svg>
