<?xml version="1.0" encoding="UTF-8"?>
<!DOCTYPE svg PUBLIC "-//W3C//DTD SVG 1.1//EN" "http://www.w3.org/Graphics/SVG/1.1/DTD/svg11.dtd">
<!-- Creator: CorelDRAW 2017 -->
<svg xmlns="http://www.w3.org/2000/svg" xml:space="preserve" width="215.9mm" height="279.4mm" version="1.1" style="shape-rendering:geometricPrecision; text-rendering:geometricPrecision; image-rendering:optimizeQuality; fill-rule:evenodd; clip-rule:evenodd"
viewBox="0 0 21590 27940"
 xmlns:xlink="http://www.w3.org/1999/xlink">
 <defs>
  <style type="text/css">
   <![CDATA[
    .fil0 {fill:none}
    .fil1 {fill:#070707}
    .fil4 {fill:#6C6C6C}
    .fil3 {fill:#D6D6D6}
    .fil2 {fill:#F6F6F6}
   ]]>
  </style>
 </defs>
 <g id="Capa_x0020_1">
  <metadata id="CorelCorpID_0Corel-Layer"/>
  <rect class="fil0" x="9270.99" y="12475.64" width="3048" height="2936.23"/>
  <g id="_2712375552960">
   <g>
    <path class="fil1" d="M9271 13938.75l0 32.52 31.64 -8.19c-2.77,26.35 -7.93,50.61 -7.97,79.11 -0.05,41.25 6.97,45.55 -23.67,64.2l0 25.15 18.49 -6.2 6.91 50.28c19.64,-29.27 16.93,-94.07 61.46,-139.69 30.36,-31.09 23.97,0.07 33.96,-46.77 -41.89,10.8 -13.32,2.7 -55.26,35.61 -1.83,1.43 -4.09,3.01 -5.83,4.31 -1.82,1.37 -4.76,3.2 -6.3,4.31 -1.58,1.13 -4.26,3.04 -6.54,4.3 16.38,-190.2 176.35,-305.7 333.82,-190.08 55.96,41.09 48.55,96.46 76.49,123.19 16.94,-28.33 -11.59,-61.43 -15.85,-91.72 -5.51,-39.17 67.93,-259.55 80.9,-304.85 120.56,-420.99 311.02,-374.95 332.9,-234.6 12.89,82.65 -2.36,169.34 -16.11,245.79 -13.39,74.46 -24.14,141.71 -37.3,217.15 -11.21,64.22 -39.99,161.25 -40.23,221.83 26.37,-26.65 13.72,-42.72 34.36,-72.31 111.17,40.49 199.2,269.07 83.38,486.59 -141.07,264.96 -321.05,295.15 -353.82,322.95 12.15,7.58 13.49,8.11 40.25,1.3 9.36,-6.86 -15.6,-10.39 25.32,-7.51 1.51,39.5 -0.48,12.59 -9.27,22.56 -44.52,114.96 -180.86,123.8 -311.26,85.98 -46,-13.34 -112.41,-44.57 -150.89,-69.46 -49.53,-32.04 -80.9,-65.77 -119.58,-99.37l0 35.73 21.51 20.42 -21.51 15.72 0 440.72c150.04,-34.19 273.98,-157.65 342.81,-247.12 31.23,-40.6 25.88,-51.42 88.47,-55.17 87.33,-5.24 148,-41.47 178.72,-126.11 24.48,-67.46 21.13,-43.72 74.17,-78.55 158.97,-104.4 336.35,-378.07 251.42,-604.34 -35.35,-94.19 -74.95,-115.23 -131.98,-173 -0.4,-136.86 220.08,-750.78 -64.64,-708.61 -57.23,8.47 -105.94,60.35 -131.91,96.61 -41.62,58.12 -48.88,91.37 -74.22,162.33 -21.29,59.62 -39.49,118.94 -58.58,177.98 -15.94,49.33 -39.54,144.25 -59.39,181.06 -37.96,-9.28 -112.91,-99.22 -242.34,-41.65 -93.28,41.49 -88.39,125.82 -172.53,147.6z"/>
    <path class="fil1" d="M9750.6 14533.63c26.92,-14.27 121.09,-191.6 120.73,-204.43 -0.52,-18.31 -1.86,-9.57 -7.66,-19.32 -13.92,9.85 -5.29,-0.63 -19.09,17.82l-41.93 84.68c-17.37,33.37 -45.66,85.07 -52.05,121.25z"/>
    <path class="fil1" d="M9865.18 14547.6c22.88,-10.71 57.24,-60.86 73.75,-83.24 41.52,-56.29 60.77,-63.31 59.71,-98.58 -44,14.25 -129.96,153.89 -133.46,181.82z"/>
    <path class="fil1" d="M9670.66 14482.51c10.43,-24.13 43.92,-175.02 32.14,-198.6 -31.18,21.31 -31.1,87.37 -40.26,140.43 -0.84,4.89 -4.77,29.11 -4.43,32.57 2.48,25.33 -0.29,11.95 12.55,25.6z"/>
    <path class="fil1" d="M9271 14585.77c56.65,25.59 52.49,70.7 100.93,89.96 -7.79,-32.31 -25.65,-40.38 -41.64,-66.55 -22.24,-36.41 -17.78,-31.65 -59.29,-49.83l0 26.42z"/>
   </g>
   <g>
    <path class="fil2" d="M9865.18 14547.6c3.5,-27.93 89.46,-167.57 133.46,-181.82 1.06,35.27 -18.19,42.29 -59.71,98.58 -16.51,22.38 -50.87,72.53 -73.75,83.24zm-114.58 -13.97c6.39,-36.18 34.68,-87.88 52.05,-121.25l41.93 -84.68c13.8,-18.45 5.17,-7.97 19.09,-17.82 5.8,9.75 7.14,1.01 7.66,19.32 0.36,12.83 -93.81,190.16 -120.73,204.43zm-79.94 -51.12c-12.84,-13.65 -10.07,-0.27 -12.55,-25.6 -0.34,-3.46 3.59,-27.68 4.43,-32.57 9.16,-53.06 9.08,-119.12 40.26,-140.43 11.78,23.58 -21.71,174.47 -32.14,198.6zm-399.66 -350.97l0 427.81c41.51,18.18 37.05,13.42 59.29,49.83 15.99,26.17 33.85,34.24 41.64,66.55 -48.44,-19.26 -44.28,-64.37 -100.93,-89.96l0 109.36c38.68,33.6 70.05,67.33 119.58,99.37 38.48,24.89 104.89,56.12 150.89,69.46 130.4,37.82 266.74,28.98 311.26,-85.98l5.66 -17.73 -21.71 2.68c-26.76,6.81 -28.1,6.28 -40.25,-1.3 32.77,-27.8 212.75,-57.99 353.82,-322.95 115.82,-217.52 27.79,-446.1 -83.38,-486.59 -20.64,29.59 -7.99,45.66 -34.36,72.31 0.24,-60.58 29.02,-157.61 40.23,-221.83 13.16,-75.44 23.91,-142.69 37.3,-217.15 13.75,-76.45 29,-163.14 16.11,-245.79 -21.88,-140.35 -212.34,-186.39 -332.9,234.6 -12.97,45.3 -86.41,265.68 -80.9,304.85 4.26,30.29 32.79,63.39 15.85,91.72 -27.94,-26.73 -20.53,-82.1 -76.49,-123.19 -157.47,-115.62 -317.44,-0.12 -333.82,190.08 2.28,-1.26 4.96,-3.17 6.54,-4.3 1.54,-1.11 4.48,-2.94 6.3,-4.31 1.74,-1.3 4,-2.88 5.83,-4.31 41.94,-32.91 13.37,-24.81 55.26,-35.61 -9.99,46.84 -3.6,15.68 -33.96,46.77 -44.53,45.62 -41.82,110.42 -61.46,139.69l-6.91 -50.28 -18.49 6.2z"/>
    <path class="fil2" d="M9271 13971.27l0 135.12c30.64,-18.65 23.62,-22.95 23.67,-64.2 0.04,-28.5 5.2,-52.76 7.97,-79.11l-31.64 8.19z"/>
   </g>
   <polygon class="fil3" points="9271,14767 9292.51,14751.28 9271,14730.86 "/>
   <path class="fil4" d="M9852.73 14777.98c8.79,-9.97 10.78,16.94 9.27,-22.56 -40.92,-2.88 -15.96,0.65 -25.32,7.51l21.71 -2.68 -5.66 17.73z"/>
  </g>
 </g>
</svg>
