<?xml version="1.0" encoding="UTF-8"?>
<!DOCTYPE svg PUBLIC "-//W3C//DTD SVG 1.1//EN" "http://www.w3.org/Graphics/SVG/1.1/DTD/svg11.dtd">
<!-- Creator: CorelDRAW 2017 -->
<svg xmlns="http://www.w3.org/2000/svg" xml:space="preserve" width="60mm" height="60mm" version="1.1" style="shape-rendering:geometricPrecision; text-rendering:geometricPrecision; image-rendering:optimizeQuality; fill-rule:evenodd; clip-rule:evenodd"
viewBox="0 0 6000 6000"
 xmlns:xlink="http://www.w3.org/1999/xlink">
 <defs>
  <style type="text/css">
   <![CDATA[
    .fil0 {fill:none}
    .fil9 {fill:#0A140C}
    .fil7 {fill:#2A3217}
    .fil2 {fill:#49544A}
    .fil6 {fill:#64581E}
    .fil1 {fill:#6F6F52}
    .fil3 {fill:#7C8684}
    .fil4 {fill:#9E945B}
    .fil8 {fill:#A3A49B}
    .fil5 {fill:#C6B98D}
    .fil10 {fill:#CACDC9}
    .fil11 {fill:#F0F1EC}
   ]]>
  </style>
 </defs>
 <g id="Capa_x0020_1">
  <metadata id="CorelCorpID_0Corel-Layer"/>
  <rect class="fil0" width="6000" height="6000"/>
  <path class="fil1" d="M2019.36 4869.83c2.19,-1.79 38.96,8.8 16.85,-83.48 -42.62,-1.61 -85.09,0.78 -127.75,-0.55 -56.3,-1.75 -72.75,0.21 -83.19,-45.75 57.08,-20.95 286.72,8.93 304.76,-55.11 -61.97,3.69 -96.45,28.26 -157.62,28.68 -59.08,0.42 -109.19,-4.4 -170.56,4.2l-0.65 61.51c65.36,36.07 134.31,20.05 221.68,24.09l-3.52 66.41z"/>
  <path class="fil1" d="M1759.1 2758.47c-4.21,48.24 -39.91,62.58 -68.82,74.04l-38.76 23.74c55.89,-3.26 41.85,-15.6 94.86,-26.98 -6.04,34.56 -3.96,32.58 -22.31,56.98 18.37,-9.14 12.77,-1.04 32.71,-30.87 4.52,-6.76 13.31,-20.45 20.83,-31.73 15.83,-23.77 26.5,-38.13 27.55,-63.97l0.56 -51.7c-30.23,1.83 -16.97,-4.87 -27.08,14.94l-19.54 35.55z"/>
  <path class="fil1" d="M1127.59 3355.04c-8.56,-28.85 -14.38,-94.46 -6.37,-130.99 35.57,-8.26 97.96,12.26 142.91,15.08 -17.14,-30.7 -48.71,-23.54 -88.11,-29.94 -72.59,-11.79 -81.19,-9.03 -75.93,89.68 1.94,36.47 -6.15,47.57 27.5,56.17z"/>
  <path class="fil1" d="M1346.14 3728.82c-37.88,24.76 -18.89,17.43 -31.86,31.76 -16.5,18.25 -0.07,9.43 -28.51,15.38 -4.73,-47.83 13.27,-75.26 -31.78,-83.42l11.69 91.81c0.23,0.08 26.27,25.52 60.86,-0.99 16.28,-12.48 16.85,-29.87 19.6,-54.54z"/>
  <path class="fil2" d="M2336.58 1677.83c3.07,-1.34 7.91,-6.39 9.38,-3.57 1.28,2.48 6.77,-2.5 8.28,-3.04 1.56,-0.55 9.46,-2.73 12.13,-4.1 -0.4,83.1 -75.28,231.15 -77.03,422.23 -0.45,48.7 1.93,44.57 -10.47,66.64 -25.4,-12.07 -21.44,30.03 -21.47,-102.85 -0.04,-184.71 63.9,-257.01 62.54,-328.05 -13.83,13.27 -4.64,3.24 -15.49,19.17 -20.43,29.98 -22.94,62.98 -30.42,95.44 -11.78,51.15 -23.52,62.94 -30.27,122.95 -5.04,44.84 -17.89,191.04 0.72,231.7 16.18,35.35 32.93,22 33.25,22.04l16.57 -3.17c24.61,-14.73 16.27,-33.76 13.9,-87.83 -2.77,-62.78 14.42,-207.95 34.59,-269.36 10.73,-32.63 4.89,-9.29 13.47,-33.13 9.37,-26.06 10.78,-48.94 17.34,-74.62 16.11,-63.15 32.9,-52.97 32.09,-146.67l-29.13 7.51c-24.09,12.64 -33.28,46.09 -39.98,68.71z"/>
  <path class="fil2" d="M1462.49 1331.16l474.28 -13.05c50.27,-5.24 122.71,12.76 160.39,-15.58 0.16,-50.66 -92.32,-35.65 -143.18,-36.21 -81.21,-0.9 -319.62,25.64 -413.21,37.98l-61.11 12.69c-17.15,9.16 -6.57,0.61 -17.17,14.17z"/>
  <path class="fil2" d="M532.01 1558.92c24.99,24.54 46.97,71.96 79.32,100.39 15.44,7.64 29.53,14.06 54.03,17.09 -5.62,-24.41 -4.78,-19.42 -12.82,-44.85 -13.43,-23.66 -39.27,-55.94 -48.62,-76.51 -74.12,-27.5 -43.28,-70.66 -103.87,-90.48 -2.27,70.21 19.13,20.67 31.96,94.36z"/>
  <path class="fil2" d="M2891.79 958.12c1.05,-58.03 -10.94,-60.37 -24,-138.22 -0.22,-1.3 -4.51,-22.26 -4.67,-22.72l-15.7 -30.21c-30.51,29.52 -28.74,79.19 -18.92,121.88 5.52,24.03 11.58,28.83 21.52,43.43 13.33,19.59 11.06,23.1 41.77,25.84z"/>
  <path class="fil2" d="M1049.06 1774.76l-10.99 18.17c73.98,-2 218.81,-26.89 277.96,7.5l5.55 45.02c-3.81,1.78 -7.8,0.54 -9.6,4.34 -6.79,14.34 -36.22,-8.49 -54.44,29.2 29.23,-4.08 59.5,-8.62 79.01,-18.8l-8.81 -67.96c-1.03,-2.47 -6.41,-10.61 -7.1,-15.12 -0.7,-4.6 -2.72,-5.49 -3.89,-8.33 -33.31,2.65 -97.07,-4.26 -138.71,-2.44 -41.32,1.81 -81.82,8.95 -128.98,8.42z"/>
  <path class="fil2" d="M2398.13 4646.43c-42.97,8 -61.92,27.07 -119.74,15.61 21.49,-42.75 67.09,-93.18 66.79,-162.79 -37.42,36.83 -16.71,30.63 -52.07,93.62 -15.61,27.81 -46.57,54.15 -28.23,72.68 38.52,46.16 125.69,7.71 133.25,-19.12z"/>
  <path class="fil2" d="M3054.98 1003.65c31.97,0.08 29.84,0.54 40.39,-29.31 9.24,-26.16 7.54,-47.94 12.05,-83.68 -3.6,0.87 -8.62,-1.65 -10.71,3.01 -1.93,4.32 -7.26,2.06 -9.76,3.33 -43.95,22.4 -56.99,61.15 -31.97,106.65z"/>
  <path class="fil2" d="M2224.73 1502.9c46.98,-78.21 39.3,-7.13 43.55,-70.33 -71.77,-32.64 -141.01,41.65 -43.55,70.33z"/>
  <path class="fil2" d="M1764.43 2151l-15.76 -49.12 51.82 4.25 9.61 -23.46c-75.39,14.79 -34.85,-8.21 -81.28,-28.64 -3.4,43.95 -1.36,71.04 35.61,96.97z"/>
  <path class="fil3" d="M1994.62 5612.56l-3.58 44.13 -82.34 24.37c-30.87,13.68 -186.53,22.69 -233.64,17.42l-22.48 -5.2c-12.51,-24.25 -7.95,-38.84 -23.89,-74.32 -11.88,-26.48 -12.53,-44.27 -19.12,-72.86 -8.01,-34.79 -24.76,-120.21 -48.76,-136.04l51.73 224.16c12.68,33.14 4.87,40.5 12.22,77.59 114.9,30.91 312.69,-10.99 390.79,-48.76 5.93,-45.92 -9.81,-141.57 -12.01,-198.68 -7.2,-187.48 10.5,-411.39 22.6,-594.41 -35.85,10.22 -23.28,33.09 -26.86,79.72 -11.93,155.14 -23.65,545.18 -4.66,662.88z"/>
  <path class="fil3" d="M739.85 619.92c8.19,11.18 1.91,21 53.49,20.23 6.31,-64.31 -21.76,-82.02 -24.58,-147.79 -2.54,-58.62 -7.51,-133.14 5.1,-186.46 19.37,-81.95 56.79,-196.75 151.82,-218.81 66.02,-15.31 108.65,-2.23 152.91,25.47 65.2,40.81 324.65,170.26 400.93,176.16 -19.22,-27.8 -135.66,-66.72 -198.8,-96.42 -139.95,-65.87 -230.4,-151.77 -365.14,-125.92 -100.86,19.35 -148.53,141.19 -159.25,235.5 -30.2,265.43 57.15,314.35 -16.48,318.04z"/>
  <path class="fil3" d="M2559.99 4226.95c-4.72,-42.75 -24.54,-76.5 -41.91,-104 -25.26,-39.94 -16.66,-44.75 -52.56,-72.84 -198.68,-155.45 -119.61,-32.22 -143.6,-381.62 -2.17,-31.67 -9.45,-226.67 -40.34,-208.67 0.62,78.02 16.47,152.7 22.2,235.76 3.15,45.72 -0.22,233.8 7.37,257.44 12.4,38.68 103.37,74.6 138.97,112.75 23.17,24.84 37.72,44.79 53.94,72.51l33.43 64.15c11.7,18.24 3.46,11.59 22.5,24.52z"/>
  <path class="fil3" d="M2336.58 1677.83l-16.64 47.26c1.36,71.04 -62.58,143.34 -62.54,328.05 0.03,132.88 -3.93,90.78 21.47,102.85 12.4,-22.07 10.02,-17.94 10.47,-66.64 1.75,-191.08 76.63,-339.13 77.03,-422.23 -2.67,1.37 -10.57,3.55 -12.13,4.1 -1.51,0.54 -7,5.52 -8.28,3.04 -1.47,-2.82 -6.31,2.23 -9.38,3.57z"/>
  <path class="fil3" d="M2231.26 4585.97c79.54,-50.85 58.43,-257.89 11.66,-330.86 -62.18,-97.01 -22.75,-79.84 -150.29,-156.35 -34.98,-20.99 -41.94,-10.69 -48.6,-52.96l86.78 4.45c-7.76,-12.89 3.98,-18.66 -49.53,-21.97 -14.37,-0.88 -46.05,1.62 -61.83,1.98l8.79 50.28c15.09,27.25 53.21,27.99 95.57,59.53 10.55,7.86 14.37,11.59 26.46,19.9l9.8 6.19c0.83,0.58 3.08,1.77 3.82,2.33l17.22 21.05c60.2,80.03 61.13,121.46 75.35,217.64 5,33.84 10.73,50.09 3.18,90.3 -8.27,44.06 -21.44,37.43 -28.38,88.49z"/>
  <path class="fil3" d="M2670.47 762.66c5.57,36.74 41.83,47.09 77.28,44.89 6.15,-55.4 -1.24,-71.03 25.82,-109.61 33.4,-47.63 55.13,-33 117.74,-33.31 -12.71,-10.84 -1.88,-8.03 -25.07,-15.53 -112.79,-36.45 -129.94,103.45 -136.15,129.82 -28.32,-0.37 -33.24,-8.46 -59.62,-16.26z"/>
  <path class="fil3" d="M2371.53 2804.63l4.15 -70.03c-30.43,2.84 -27.87,-7.83 -45.75,19.68 -15.5,23.84 -8.89,23.25 -7.49,49.68l49.09 0.67z"/>
  <path class="fil3" d="M760.51 3356.6c25.82,-17.84 26.02,-79.08 16.96,-109.56 -7.08,-23.83 -30.9,-49.61 -60.95,-61.2l49.35 67.53 -5.36 103.23z"/>
  <path class="fil3" d="M1149.79 2080.64l-47.46 5.56c-9.39,-28.41 -7.88,-20.61 -2.63,-48.37 -14.39,4.49 -12.42,-22.46 -18.15,24.37 -7.78,63.64 52.07,44.1 64.83,41.3l3.41 -22.86z"/>
  <path class="fil3" d="M1505.8 3349.86c-39.03,25.35 2.29,-2.39 -22.72,20.58 -21.29,19.56 -0.83,7.32 -25.44,17.76 -14.01,-16.37 -16.18,24.68 -15.01,-41.54 -19.99,23.85 -13.91,28.7 -13.87,62.81 46.75,-2.86 62.85,-22.67 77.04,-59.61z"/>
  <path class="fil3" d="M1099.7 2037.83l40.98 -6.92 9.11 49.73c1.38,-1.41 31.9,-25.23 0.87,-54.68 -7.03,-2.91 -7.09,-9.23 -27.19,-7.31 -44.73,4.29 -20.45,6.72 -23.77,19.18z"/>
  <path class="fil3" d="M2514.9 4653.51c23.27,-10.29 22.91,-2.66 26,-37.39 -28.99,15.56 -26.54,8.62 -26,37.39z"/>
  <path class="fil4" d="M1330.01 3090.98c14.83,16.95 -1.45,15.77 38.84,23.92l232.52 5.41c30.95,3.77 42.27,13.07 81.89,15.33 42.41,-49.56 -7.72,-21.68 27.07,-38.34 31.05,10.97 55.93,10.31 82.75,20.16 30.17,11.09 28.69,16 67.35,6.88 1.89,-0.45 5.82,-0.03 7.16,-2.99 1.32,-2.95 4.76,-1.97 6.94,-3.35 -20.72,-38.75 -23.12,-10.38 -48.84,-44.97 34.76,-0.1 72.79,4.97 105.06,-5.47 49.51,-16.02 37.45,-31.39 50.31,-55.09 49.35,-4.84 86.06,-22.23 117.1,-47.88 56.42,-46.6 8.63,-26.17 99.89,-53.72l6.61 -67.64c37.41,-24.35 51.08,-5.56 67.22,-50.11 -29.34,-38.26 -17.47,-11.05 -44.93,-18.04 22,-69.77 -7.45,-46.06 3.49,-89.69 6.94,-27.69 -8,-2.41 22.45,-26.4 12.83,-10.11 4.11,5.16 23.4,-19.28 -10.08,-62.24 -35.61,-15.02 -4.19,-87.75 19.51,-45.15 20.96,-72.05 -24.04,-83.17 28.49,56.1 1.84,56.37 -13.17,93.22 -17.73,43.57 1.61,45.97 10.32,80.11 -25.18,22.4 -39.6,19.86 -63.87,42.71 8.69,32.42 8.98,15.08 29.63,45.13 -14,58.05 -33.09,21.67 4.95,72.19 -40.62,43.19 -30.18,26.32 -39.97,92.8l-84.08 31.01c-2,0.88 -4.3,1.94 -6.28,2.79l-39.56 20.09c-26.47,25.17 -1.58,61.39 -151.53,48.22 20.39,25.24 23.92,3.78 20.95,57.78 -16.01,7.59 -2.17,3.31 -25.51,7.06l-89.36 -0.79 -13.22 28.36c-1.12,2.03 -3.04,5.43 -4.84,7.95l-108.39 -20.12c-0.53,2.5 -1.93,13.93 -3.03,16.28 -1.01,2.17 -2.5,5.16 -3.68,7.43l-164.64 -0.52c-51.69,-3.63 -128.47,3.25 -172.77,-9.51z"/>
  <path class="fil4" d="M1435.11 3563.69l29.43 -34.14c28.21,-39.01 23.01,-9.43 48.02,-58.24 18.66,-36.39 46.66,-62.82 80.97,-81.24 15.01,-8.06 20.06,-10.08 34.69,-18.94 6.39,-3.87 12.7,-7.06 17.08,-10.72 26.57,-22.23 4.2,1.38 19.86,-23.79 -45.16,7.4 -47.94,18.13 -86.76,37.02 -30.76,14.97 -38.02,25.53 -59.93,48.92 -23.61,25.18 -81.88,98.66 -83.36,141.13z"/>
  <path class="fil4" d="M1034.03 3792.11c36.86,-15.04 32.01,-14.54 57.46,-38.06 29,-26.8 29.66,-9.98 41.45,-50.33 -31.92,-0.91 -41.76,6.99 -60.98,20.73 -40.25,28.76 -35.19,19.79 -37.93,67.66z"/>
  <path class="fil5" d="M949.9 3580.01l118.95 -99.64c19.51,38.11 -15.3,44.35 -45.81,59.58 -15.34,7.65 -29.94,14.83 -41.39,21.49l-31.75 18.57zm-101.72 15.41c7.48,-55.85 2.92,-42.58 40.73,-62.49 26.01,-13.68 33.42,-21.26 74.69,-28.84 -15.13,25.66 -41.64,43.6 -69.08,69.11 -27.89,25.93 6.42,14.98 -46.34,22.22zm198.5 517.46c-5.65,-32.71 -27.35,-59.64 -46.33,-86.56 -55.28,-78.42 -21.05,-23.16 -72.25,-125.49 -18.11,-36.17 -5.75,-20.92 -14.79,-58.58 -8.06,-33.54 -23.7,-33.75 -31.55,-101.44 18.37,-9.61 12.14,-4.1 31.64,-11.49 145.6,-55.19 122.13,-80.14 142.77,-112.02 11.27,-17.41 46.98,-36 67.57,-41.18 32.08,15.27 7.01,0.63 28.9,27.27 33.93,41.31 51.43,76.64 89.06,79.5 -16.92,-41.12 -68.06,-95.06 -101.69,-129.61 -89.3,-91.72 11.3,-21.99 -60.41,-93.61 -26.7,-26.66 -7.09,12.69 -21.93,-39.09l-17.51 -44 -6.63 48.26c-74.27,9.66 -122.03,89.47 -174.44,76.26 -42.6,-132.76 53.68,-261.79 -72.6,-366.94 25.06,108.62 53.72,-55.51 47.8,254.58l2.52 215.49c5.61,24.93 28.68,33.88 28.73,33.78 0.83,-1.69 4.14,1.98 5.88,3.42 -19.64,28.6 -29.82,21.41 -25.87,60.38 7.58,74.59 49.26,198.43 87.92,265.3 8.85,15.28 17.84,36.07 26.35,54.77 17.15,37.73 41.57,84.9 86.86,91z"/>
  <path class="fil5" d="M1299.16 3061.47c2.84,2.97 13.08,14.52 16.59,18.69 1.44,1.73 4.3,8.78 5.39,7.12 1.11,-1.68 3.56,4.96 5.38,7.41l3.49 -3.71c44.3,12.76 121.08,5.88 172.77,9.51l164.64 0.52c1.18,-2.27 2.67,-5.26 3.68,-7.43 1.1,-2.35 2.5,-13.78 3.03,-16.28l108.39 20.12c1.8,-2.52 3.72,-5.92 4.84,-7.95l13.22 -28.36 89.36 0.79c23.34,-3.75 9.5,0.53 25.51,-7.06 2.97,-54 -0.56,-32.54 -20.95,-57.78 149.95,13.17 125.06,-23.05 151.53,-48.22l39.56 -20.09c1.98,-0.85 4.28,-1.91 6.28,-2.79l84.08 -31.01c9.79,-66.48 -0.65,-49.61 39.97,-92.8 -38.04,-50.52 -18.95,-14.14 -4.95,-72.19 -20.65,-30.05 -20.94,-12.71 -29.63,-45.13 24.27,-22.85 38.69,-20.31 63.87,-42.71 -8.71,-34.14 -28.05,-36.54 -10.32,-80.11 15.01,-36.85 41.66,-37.12 13.17,-93.22 -13.13,-12.33 -11.07,-40.4 -13.21,-63.67 -38.27,-9.88 -20.7,-5.28 -36.88,-36.1l-27.35 -0.54 40.91 99.76c-10.96,22.75 -10.24,17.42 -29.06,27.07 9.7,32.01 9.09,6.93 18.7,48.58 -56.08,35.93 -40.58,3.59 -44.94,33.9 -4.93,34.27 7.5,20.6 8.13,21.62 48.95,76.5 -5.36,-30.52 18.05,22.25l-32.73 42.6c-16.75,23.98 1.2,12.05 -24.25,38.62 14.13,31.67 16.6,9.67 28.47,36.09l-20.68 7.7c-2.22,0.73 -4.85,1.48 -7.08,2.16 -14.07,4.34 -11.46,0.64 -28.09,7.76 5.47,51.04 10.3,7.34 28.42,46.42 -52.6,5.3 -11.78,-3.91 -31.08,23.14l-21.82 30.15c20.45,16.93 26.2,12.01 34.57,35.65 -56.94,3.12 -94.09,8.79 -142.31,12.41 -2.18,57.48 -7.82,30.72 -19.09,70.12 -65.09,-0.36 -87.34,-4.45 -143.12,11.02l39.41 26.1c10.52,7.56 15.45,4.19 29.43,36.41l-135.06 -18.45 -4.13 18.92c-3.17,12.96 1.54,5.92 -4.9,16.71 -63.99,-3.46 -71.72,-33.65 -132.71,-34.78 0.03,0.05 24.1,11.21 -2.56,43.11l-293.94 -12.05z"/>
  <path class="fil5" d="M1560.81 5410.06c24,15.83 40.75,101.25 48.76,136.04 6.59,28.59 7.24,46.38 19.12,72.86 15.94,35.48 11.38,50.07 23.89,74.32l22.48 5.2c47.11,5.27 202.77,-3.74 233.64,-17.42l-99.1 -0.03c-17.39,-30.82 -1.23,-26.73 -39.92,-45.19 2.42,-156.08 -39.08,-62.95 -37.95,-173.01l-36.44 -2c25.5,-14.88 11.76,-26.41 -3.28,-48.34l-31.17 -32.28c-31.98,-27.6 45.02,-26.45 -50.87,-33.11 1.35,-86.87 0.38,-31.78 -23.54,-53.51 -0.11,13.21 -2.09,43.14 -0.39,54.89 7.31,50.58 -6.91,15.55 16.04,34.63 -17.57,-20.26 -16.11,7.7 -25.02,-50.1l-35.96 -251.23 -31.63 -5.41c1.86,66.68 5.12,128.34 16.33,187.18 8.2,43 22.24,104.64 35.01,146.51z"/>
  <path class="fil5" d="M2499.61 2522.34l-16.41 8.7c-8.73,100.53 85.14,135.93 120.11,81.6 -1.86,-1.27 -4.76,-2.23 -6.18,-2.7 -51.83,-17.3 -69.8,-0.91 -75.66,-51.45 26.73,-14.27 84.49,0.49 118.83,-63.3 24.47,-45.46 15.1,-82.37 -18.5,-124.35 -91.02,-14.18 -53.88,8.62 -108,25.35 7.91,-40.98 -1.5,1.24 12.34,-32.58 6,-14.66 7.6,-20.91 11.62,-33.14 10.27,-31.32 13.81,-32.44 29.26,-52.33 69.43,-89.32 76.22,-59.74 75.76,-89.65 -90.33,-37.56 -197.14,213 -165.32,297.76 86.53,-14.57 16.08,-59.25 116.48,-54.29 0.98,30.65 6.67,23.28 -6.61,46.32 -16.96,29.41 -53.2,37.42 -87.72,44.06z"/>
  <path class="fil5" d="M1218.13 2536.47c-12.06,-20.14 -14.91,-29.26 -12.47,-57.94 11.09,-130.06 140.41,-40.82 192.35,-42.59 3.97,-47.29 -0.61,-107.7 -1.25,-157.22 -1.63,-124.39 9.78,-117.36 -29.36,-123.84 -22.61,31.05 -4.32,168.11 -4.76,218.89 -58.88,1.83 -108.83,-24.66 -157.27,13.57 -101.1,79.79 -28.44,253.24 116.7,242.92 39.87,-2.82 46,-5.48 55.77,-35.67 -45.34,-29.97 -106.61,30.47 -159.71,-58.12z"/>
  <path class="fil5" d="M1034.03 3792.11c2.74,-47.87 -2.32,-38.9 37.93,-67.66 19.22,-13.74 29.06,-21.64 60.98,-20.73 -11.79,40.35 -12.45,23.53 -41.45,50.33 -25.45,23.52 -20.6,23.02 -57.46,38.06zm-101.86 20.78l11.03 54.58c7.85,21.03 3.6,10.17 9.07,19.23 31.74,-7.99 31.22,-29.22 86.21,-67.61 62.06,-43.32 113.59,-61.16 117.34,-145.31 -95.89,7.4 -129.12,71.8 -173.5,106.19 -1.91,1.47 -7.25,5.57 -8.93,6.88l-10.64 8.62c-0.49,0.34 -2.98,2.45 -12.46,7.9l-11.67 6.2c-1.31,0.71 -4.47,1.94 -6.45,3.32z"/>
  <path class="fil5" d="M1038.62 3699.97c50.64,-5.57 22.05,-5.43 62.59,-26.35 38.03,-19.64 36.27,-1.81 38.96,-41.22 -2.23,-1.48 -10.49,-29.3 -60.3,10.2 -29.74,23.57 -34.42,16.99 -41.25,57.37z"/>
  <path class="fil5" d="M1759.1 2758.47l19.54 -35.55c10.11,-19.81 -3.15,-13.11 27.08,-14.94l-0.56 51.7c12.65,-9.78 13.23,11.63 22.66,-30.65 2.04,-9.12 -0.68,-24.27 -1.39,-36.35l-62.23 2.67 -5.1 63.12z"/>
  <path class="fil6" d="M2371.53 2804.63l-49.09 -0.67c-1.4,-26.43 -8.01,-25.84 7.49,-49.68 17.88,-27.51 15.32,-16.84 45.75,-19.68l-4.15 70.03zm-123.47 -335.84c45,11.12 43.55,38.02 24.04,83.17 -31.42,72.73 -5.89,25.51 4.19,87.75 -19.29,24.44 -10.57,9.17 -23.4,19.28 -30.45,23.99 -15.51,-1.29 -22.45,26.4 -10.94,43.63 18.51,19.92 -3.49,89.69 27.46,6.99 15.59,-20.22 44.93,18.04 -16.14,44.55 -29.81,25.76 -67.22,50.11l-6.61 67.64c-91.26,27.55 -43.47,7.12 -99.89,53.72 -31.04,25.65 -67.75,43.04 -117.1,47.88 -12.86,23.7 -0.8,39.07 -50.31,55.09 -32.27,10.44 -70.3,5.37 -105.06,5.47 25.72,34.59 28.12,6.22 48.84,44.97 -2.18,1.38 -5.62,0.4 -6.94,3.35 -1.34,2.96 -5.27,2.54 -7.16,2.99 -38.66,9.12 -37.18,4.21 -67.35,-6.88 -26.82,-9.85 -51.7,-9.19 -82.75,-20.16 -34.79,16.66 15.34,-11.22 -27.07,38.34 -39.62,-2.26 -50.94,-11.56 -81.89,-15.33l-232.52 -5.41c-40.29,-8.15 -24.01,-6.97 -38.84,-23.92l-3.49 3.71c-37.28,-14.38 -22.76,-15.61 -58.4,-28.99 -14.76,29.66 -8.49,17.97 -8.81,61.49 -59.21,-2.74 -71.68,12.07 -71.45,-44.44 -2.5,3.1 -31.06,-15.13 -11.43,41.44 9.99,28.86 48.26,22.5 101.97,22.02l17.89 -46.71 44.85 26.8c159.93,26.47 217.42,4.85 278.94,10.25 55.39,4.87 233.28,11.14 275.63,-9.52 -0.55,-35.52 9.94,-30.5 -20.1,-38.07 117.34,-9.03 113.06,-30.67 187.86,-23.86 126.25,11.52 63.31,-4.96 90.15,-72.86 66.06,7.21 21.11,54.75 78.79,-38.35 8.13,-13.12 3.74,-7.52 11.77,-15.41 31.72,-31.19 5.1,3.6 30.17,-13.79 18.61,-12.91 3.41,9.71 15.17,-15.22 32.83,-69.66 -26.26,-12.54 -16.79,-80.25 24.15,-10.19 5.06,6.45 46.54,-3.11 16.3,-3.75 42.39,-15.86 52.26,-21.48l11.82 2.87 -2.48 -81.63c-71.02,-9.87 -17.45,2.48 -74.92,14.17l-6.54 -12.5c-0.92,-1.56 -2.43,-4.21 -3.49,-5.89 -1.03,-1.62 -2.62,-3.88 -3.69,-5.52 -23.17,-35.01 -21.26,5.94 -18.16,-40.32 38.55,-13.16 41.92,-0.22 68.95,4.68 48.23,8.75 36.93,-2.92 78.08,-9.53l2.53 37.19c41.12,27.9 -31.44,-31.15 14.07,15.64l16.18 15.14 -2.15 -19.49 0.58 -46.56c-60.26,-25.57 -32.76,-9.33 -100.37,-7.91 4.29,-63.88 19.14,-37.11 19.47,-68.88 0.24,-22.88 -13.02,-19.74 -3.4,-73.65 -58.78,23.16 -47.93,3.5 -72.18,-35.29 -30.01,-48 -24.18,-0.32 -30.17,-76.26l-30.81 -5.77c2.14,23.27 0.08,51.34 13.21,63.67z"/>
  <path class="fil6" d="M1651.52 2856.25c-18.02,-10.89 -127.83,15.46 -175.91,12.33 -21.62,44.24 -99.72,-11.01 -153.28,32.84 61.17,76.3 118.2,21.93 172.85,11.06 98.63,-19.6 147.47,2.29 223.38,-2.82 3.43,-13.18 4.1,-17.4 5.51,-23.41 18.35,-24.4 16.27,-22.42 22.31,-56.98 -53.01,11.38 -38.97,23.72 -94.86,26.98z"/>
  <path class="fil7" d="M2853.23 1800.05c-0.96,-49.14 1.43,-4.77 -11.97,-36.24 -20.88,-49 15.47,-21.84 -33.53,-44.6 28.06,-18.26 17.6,-25.89 54.26,-47.71 0.19,-0.12 58.35,-1.79 29.59,-77.66 -2.68,-0.95 -6.2,-1.4 -8.35,-1.67 -37.09,-4.79 -92.89,-5.32 -116.81,17.46 -37.24,35.48 28.5,7.88 -13.98,12.31 -57.09,5.94 -127.99,-10.72 -177.72,15.2l-18.9 18.02c2.25,1.58 5.66,2.46 7.57,3.25l50.15 27.14c23.73,16.75 13.44,13.32 54.35,15.35 -25.32,-20.88 -16.43,1.12 -53.43,10.97 5.19,38.19 -4.79,28.35 22.52,56.75 1.43,1.5 3.67,2.9 5.18,4.21l32.18 26.81c1.13,1.42 2.44,3.67 3.6,5.17l25.08 30.71c73.83,-9.89 -9.79,-27.95 90.25,7.89 11.99,-14.21 7.46,-7.49 16.23,-29.84 0.85,-2.16 1.14,-11.23 1.82,-14.16 9.64,57.15 -16.07,21.56 27.07,44.98 20.46,-25.42 16.39,36.49 14.84,-44.34z"/>
  <path class="fil7" d="M1341.14 3126.3c1.94,2.05 4,4.94 5.43,6.51l27.17 23.81 201.5 6.95c94.81,-24.23 245.27,17.25 432.9,-33.66 3.73,-12 0.43,-8.42 3.69,-22.33l7.24 -24.13c52.11,-9.46 85.46,22.01 143.15,-10.65 1.56,-0.87 3.71,-2.41 5.29,-3.32 53.07,-30.05 59.49,-41.44 81.56,-27.04 -5.76,-23.08 -1.12,-46.02 10.97,-67.47 3.83,-6.79 61.54,-64.73 76.23,-96.87 0.82,-1.79 1.34,-4.49 2.12,-6.35 26.92,-64.45 24.44,-10.75 44.96,-64.25l-11.82 -2.87c-9.87,5.62 -35.96,17.73 -52.26,21.48 -41.48,9.56 -22.39,-7.08 -46.54,3.11 -9.47,67.71 49.62,10.59 16.79,80.25 -11.76,24.93 3.44,2.31 -15.17,15.22 -25.07,17.39 1.55,-17.4 -30.17,13.79 -8.03,7.89 -3.64,2.29 -11.77,15.41 -57.68,93.1 -12.73,45.56 -78.79,38.35 -26.84,67.9 36.1,84.38 -90.15,72.86 -74.8,-6.81 -70.52,14.83 -187.86,23.86 30.04,7.57 19.55,2.55 20.1,38.07 -42.35,20.66 -220.24,14.39 -275.63,9.52 -61.52,-5.4 -119.01,16.22 -278.94,-10.25z"/>
  <path class="fil7" d="M532.01 1558.92c-12.83,-73.69 -34.23,-24.15 -31.96,-94.36 60.59,19.82 29.75,62.98 103.87,90.48 -5.37,-29.08 -19.72,-24.39 -53.65,-75.7 -24.58,-37.17 -32.57,-28.82 -55.71,-70.48 -44.71,-80.5 -60.17,-74.23 -92.06,-160.77 -74.75,-202.9 -64.51,-191.83 -62.77,-378.23 0.08,-8.09 0.67,-19 -1.31,-25.94 -0.77,-2.68 -1.66,-4.92 -2.71,-7.32l-9.33 -12.39c-1.13,-1.59 -3.58,-4.04 -5.83,-5.48 -30.5,22.1 -16.57,-7.71 -19.95,106.31 -4.02,135.32 0.19,200.45 49.8,322.4 41.31,101.6 38.25,72.49 83.29,161.37l98.32 150.11z"/>
  <path class="fil7" d="M1168.82 1340.18c-11.4,-26.96 0.5,-24.44 -36.54,-36.08 -37.28,-11.72 -102.87,3.93 -217.52,-43.5 -38.77,-16.04 -46.03,-9.4 -97.15,-30.82 -33.83,-14.18 -27.27,-12.34 -68.91,-12.14 8.72,35.52 -0.64,19.31 25.79,47.87 11.2,12.1 21.1,19.82 44.75,30.19 29.17,12.78 64.41,29.34 91.45,39.44 35.97,13.44 177.09,33.73 222.66,22.22 28.19,-7.12 18.7,-3.29 35.47,-17.18z"/>
  <path class="fil7" d="M844.02 464.81c0,68.43 17.52,209.08 62.13,262.28 13.96,16.65 -12.45,15.77 38.19,16.97 -7.04,-38.63 -10.3,-17.21 -19.16,-62.9l-38.1 -225.4c-0.53,-27.63 4.09,-59.05 5.41,-75.34 10.38,-129.75 67.69,-123.23 36.13,-196.55 -28.97,20.93 -82.32,158.93 -83.35,181.02 -1.41,30.03 -1.25,68.11 -1.25,99.92z"/>
  <path class="fil7" d="M2197.97 2369.02c16.18,30.82 -1.39,26.22 36.88,36.1l30.81 5.77c5.99,75.94 0.16,28.26 30.17,76.26 24.25,38.79 13.4,58.45 72.18,35.29 24.03,-25.54 5.8,-57.69 24.21,-102.6 17.01,-41.55 29.84,-49.89 35.3,-101.63l-12.02 14.3c-32.78,45.04 -14.97,59.54 -50.26,73.76l-25.66 5.59c-21.98,2.18 -50.57,-2.44 -74.78,-13.19 -32.79,-14.57 -17.19,-20.85 -66.83,-29.65z"/>
  <path class="fil7" d="M2383.35 2807.5l6.85 -13.58c7.03,-18.28 2.32,-3.29 5.06,-14.25 8.28,-33.22 -4.04,-52.06 -14.69,-83.89l43.06 12.37 -2.53 -37.19c-41.15,6.61 -29.85,18.28 -78.08,9.53 -27.03,-4.9 -30.4,-17.84 -68.95,-4.68 -3.1,46.26 -5.01,5.31 18.16,40.32 1.07,1.64 2.66,3.9 3.69,5.52 1.06,1.68 2.57,4.33 3.49,5.89l6.54 12.5c57.47,-11.69 3.9,-24.04 74.92,-14.17l2.48 81.63z"/>
  <path class="fil7" d="M611.33 1659.31c11.87,25.13 24.49,47.76 47.58,63.98 49.18,34.55 27.42,-4.29 49.7,53.18 10.68,-20.24 1.53,-14.86 7.15,-38.65 6.18,-26.23 3.92,-11.83 13.63,-32.42l-39.46 -11.1c2.08,-56.19 9.24,-44.79 -37.39,-62.75 8.04,25.43 7.2,20.44 12.82,44.85 -24.5,-3.03 -38.59,-9.45 -54.03,-17.09z"/>
  <path class="fil8" d="M1254.6 2888.43c-12.95,-46.43 -95.43,-102.44 -152.21,-113.95 -103.85,-21.04 -138.35,-12.33 -239.83,-0.65l-37.77 -103.35c-50.92,-109.27 -34.99,-60.3 -35.31,-238.33l13.04 -405.23 8.62 -123.98c52.33,6.89 53.01,15.66 113.8,16.22 41.3,0.37 92.39,-5.33 122.91,7.62 -6.74,4.38 -6.84,5.05 -24.21,9.85l-71.13 16.32c-10.18,4.12 -36.79,16.97 -43.76,21.2 -22.37,13.58 -20.72,8.71 -27.96,31.4l45.88 -1.8c137.63,-67.81 253.33,-44.59 327.07,-91.43 52.45,-33.32 113.14,-9.02 106.1,-93.78 -2.19,-26.34 -7.24,-29.55 -15.66,-41.8l-27.43 -7.96c1.17,2.84 3.19,3.73 3.89,8.33 0.69,4.51 6.07,12.65 7.1,15.12l8.81 67.96c-19.51,10.18 -49.78,14.72 -79.01,18.8 -32.86,21.23 -375.81,18.48 -423.41,4.22l-4.08 -55.62c61.75,-29.06 131.01,-39.78 208.02,-34.66l10.99 -18.17c-95.93,0.89 -133.65,11.48 -214.11,23.95 -10.27,-29.64 -4.85,-34.65 -0.99,-51.93 26.52,-118.64 27.51,-285.24 73.19,-314.36 35.72,14.27 12.97,-1.99 25.92,31.51 0.93,2.4 1.13,21.19 1.16,21.26 24.06,-13.31 39.33,-5.75 72.2,-7.64 40.74,-2.34 19.15,-0.71 27.87,-9.17l17.24 -26.05c166.49,-2.46 332.64,1.45 494.66,-11.88 140.97,-11.61 342.74,-35.74 479.94,-9 7.98,24.86 14,85.87 20,114.22 17.45,24.36 46.87,34.94 81.96,35.04 -31.94,-39.27 -57.84,-34.59 -69.78,-63.69 -12.38,-30.15 -2.2,-78.28 -4.32,-112.6 -105.69,-13.91 -696.5,27.83 -876.11,26.91 -88.81,-0.46 -220.01,-12.33 -301.7,-3.15l-63.01 333.89c-24.77,137.44 -75.3,800.44 -33.4,927.59 0.32,0.98 14.69,30.65 17.57,35.8 6.79,12.13 9.1,15.2 16.37,28.58 9.79,18 17.85,37.61 30.26,53.65 39.27,4.99 59.41,-13.11 116.96,-13.94 248,-3.59 219.7,87.78 293.66,104.68z"/>
  <path class="fil8" d="M2159.77 4763.83c63.82,14.31 156.31,10.53 209.3,-6.9l28.48 -6.82c-12.92,161.58 -10.33,317.4 -10.34,479.63 -0.01,297.49 75.4,386.09 -45.91,378.97 -37.02,1.91 -6.71,19.8 -98.53,25.96 -75.38,5.06 -116.16,9.43 -126.88,-25.43l-10.88 -58.89c-6.02,-35.08 -2.4,-59 -3.15,-94.96l0.98 -587.04c-9.68,11.18 -10.59,5.97 -14.39,45.2 -15.96,165.3 -31.63,640.9 18.79,739.92 85.46,7.02 275.57,-4.74 326.68,-42.55 13.31,-86.59 -16.01,-127.33 -24.71,-204.14 -9.7,-85.62 -4.29,-365.78 -2.79,-466.03 0.72,-49.02 18.99,-186.79 13.92,-213.17 -68.57,-9.27 -49.32,24.35 -195.98,23.06l-64.59 13.19z"/>
  <path class="fil8" d="M1567.77 1888.24c-10.22,-47.87 -10.19,-50.99 28.57,-68.03 38.45,-16.9 211.41,-21.38 249.36,-21.37 55.28,0.01 85.4,7.94 144.98,9.75 45.17,1.37 98.66,18.11 63.08,73.69 -18.96,29.63 -230.12,15.07 -280.26,15.18 -66.57,0.07 -159.12,11.56 -205.73,-9.22zm28.99 32.08c62.72,-6.73 125.25,20.64 221.9,19.12 79.53,-1.24 61.84,4.99 72.11,20.73 45.34,6.68 82.26,35.32 118.33,11.73 -20.46,-52.47 -59.61,-20.75 -99.76,-44.79 104.35,-1.94 209.53,18.4 164.46,-120.33 -63.54,-38.85 -185.32,-29.65 -273.22,-27.13 -71.95,2.05 -315.09,-19.72 -264.67,114.45 12.94,34.46 39.51,26.63 60.85,26.22z"/>
  <path class="fil8" d="M1254.6 2888.43c7.62,86.99 -35.6,128.73 -66.74,194.32 -0.23,56.51 12.24,41.7 71.45,44.44 0.32,-43.52 -5.95,-31.83 8.81,-61.49 35.64,13.38 21.12,14.61 58.4,28.99 -1.82,-2.45 -4.27,-9.09 -5.38,-7.41 -1.09,1.66 -3.95,-5.39 -5.39,-7.12 -3.51,-4.17 -13.75,-15.72 -16.59,-18.69 -12.95,-15.69 -35.29,-24.93 -52.15,-42.73 11.64,-66.91 32.91,-7.75 33.21,-94.32l3.5 -28.26c0.2,-3.53 1.21,-4.69 2.46,-6.72 41.18,30.61 31.34,79.72 207.35,89.17 52.05,2.8 94.35,1.27 133.31,-13.49 10.66,-4.04 43.28,-16.69 52.02,-21.2l39.7 -34.26c-75.91,5.11 -124.75,-16.78 -223.38,2.82 -54.65,10.87 -111.68,65.24 -172.85,-11.06 53.56,-43.85 131.66,11.4 153.28,-32.84 -56.62,-6.86 -101.73,7.06 -153.34,-10.94 -14.03,-51.89 4.61,-41.74 -36.09,-47.77 -1.18,2.09 -1.82,5.18 -2.18,6.86 -17.95,82.11 17.89,68.15 -29.4,71.7z"/>
  <path class="fil8" d="M2427.52 2318.21c-5.46,51.74 -18.29,60.08 -35.3,101.63 -18.41,44.91 -0.18,77.06 -24.21,102.6 -9.62,53.91 3.64,50.77 3.4,73.65 -0.33,31.77 -15.18,5 -19.47,68.88 67.61,-1.42 40.11,-17.66 100.37,7.91 -4,-15.19 19.58,-36.53 -73.95,-32.17 21.25,-46.78 20.38,-4.92 13.12,-59.13 -10.79,-80.59 2.1,3.57 21.9,-130.64 12.67,-85.94 76.36,-232.92 143.06,-291.48 64.08,-56.25 255.87,-73.66 247.49,191.46 -3.58,113.29 -22.79,111.41 -23.93,156.49 29.69,-11.78 24.85,-3.3 34.95,-45.61 12.31,-51.52 22.36,-130.2 12.29,-181.07 -0.59,-2.92 -1.25,-4.93 -1.94,-7.79 -0.68,-2.84 -1.47,-4.85 -2.23,-7.66 -21.74,-80.93 -16.87,-89.68 -45.37,-114.6 -1.35,-1.17 -3.54,-2.8 -4.95,-3.94 -51.79,-41.9 -97.19,-48.11 -169.6,-39.57 -99.67,11.76 -159.1,188.49 -175.63,211.04z"/>
  <path class="fil8" d="M3271.52 1368.74c-11.31,-62.38 -49.22,-91.34 -51.8,-100.75 -1.16,-4.28 121.5,-428.81 -33.19,-508.97 -73.57,-38.13 -116.14,10.8 -176.67,5.79 -20.79,-29.06 -11.87,-45.24 -50.98,-50.4 46.53,153.98 142.8,0.8 237.81,78.16 69.95,56.96 48.3,326.8 22.16,396 -13.91,36.78 -21.91,61.62 -6.28,101.76 12.37,31.75 29.94,61.05 58.95,78.41z"/>
  <path class="fil8" d="M2549.57 4049.49c-14,-34.48 -4.49,-12.85 -15.01,-29.66 -44.16,-70.58 -105.39,-68.48 -120.28,-98.97 -29.84,-61.12 12.97,-435.53 -60.54,-498.9 5.88,54.97 13.4,212.93 24.4,255.21 19.93,76.6 1.31,172.03 8.79,254.17 31.71,26.39 87.14,42.73 122.42,84.72 15.63,18.6 9.57,26.63 40.22,33.43z"/>
  <path class="fil8" d="M1231.96 2153.95c-45.65,14.96 -78.69,46.25 -135.21,7.1 -113.32,-78.51 -4.32,-214.58 91.28,-163.05 45.25,24.4 56.28,75.44 53.03,136.3 41.19,-17.32 24.72,-111.81 -31.81,-147.53 -119.61,-75.58 -252.56,90.35 -133.07,185.39 32.35,25.73 140.67,57.37 155.78,-18.21z"/>
  <path class="fil8" d="M2271.76 3141.55l-2.27 -43.05c19.44,-19.99 32.69,-32.33 52.22,-54.84 2.6,-3 27.04,-30.28 27.62,-30.72 2.26,-1.7 29.99,-16.15 19.96,-3.23 6.51,-64.41 53.52,-104.61 71.98,-171.51 2.01,-0.58 5.53,-3.23 6.08,-1.46 0.49,1.56 4.6,-1.6 5.16,-1.95 18.48,-11.32 27.66,-2.38 61.45,-4.15 80.47,-4.22 33.1,-2.92 50.57,-21.78 -198.87,19.41 -97.21,-17.51 -216.96,169.63 -47.85,74.76 -106.01,81.97 -100.42,149.5l24.61 13.56z"/>
  <path class="fil8" d="M2451.73 2719.44l2.15 19.49c157.77,20.14 253.27,-139.9 298.65,-149.93 5.74,-21.31 -0.77,-13.37 11.82,-32.26 18.92,-28.38 7.85,-9.06 21.84,-20.34l-3.34 -22.99c-29.3,14.84 -11.08,-2.87 -41.81,38.73 -1.19,1.62 -14.38,18.46 -15.26,19.47 -62.79,72.53 -168.03,151.28 -274.05,147.83z"/>
  <path class="fil8" d="M1760.75 2062.15c3.42,-21.33 19.58,-22.92 39.77,-28.48 1.28,32.61 0.23,60.34 -39.77,28.48zm108 126.29c16.14,-15.42 6.94,-1.8 9.17,-29.25 -38.05,12.04 -83.15,27.92 -113.49,-8.19 -36.97,-25.93 -39.01,-53.02 -35.61,-96.97 46.43,20.43 5.89,43.43 81.28,28.64 14.92,-23.86 10.73,-5.11 16.89,-38.58 -15.3,-16.16 -10.95,-9.23 -24.92,-18.07 -41.56,-26.26 -22.1,13.27 -25.21,-35.13 -38.24,21.46 -8.22,0.81 -36.94,29.11 -19.4,19.14 -15.84,11.97 -29.55,42.15 0.92,106.54 53.62,134.34 158.38,126.29z"/>
  <path class="fil8" d="M1464.32 3357.28c15.18,-70.29 40.78,-106.01 121.35,-87.99l-121.35 87.99zm-21.69 -10.62c-1.17,66.22 1,25.17 15.01,41.54 24.61,-10.44 4.15,1.8 25.44,-17.76 25.01,-22.97 -16.31,4.77 22.72,-20.58l30.51 -17.28c62.42,-53.36 70.13,-28.47 88.23,-70.18 -13.39,-10.34 -2.42,-16.68 -67.59,-15.32 -27.64,0.58 -45.78,2.96 -71.73,7.05l-42.59 92.53z"/>
  <path class="fil8" d="M1889.48 3289.43c-2.82,-14.11 -4.9,-25.62 -7.15,-41.46 47.59,-8.11 174.45,-28.54 220,-51.03 26.31,-12.98 18.62,-1.15 27.54,-29.54 -48.44,4.04 -41.46,6.72 -78.3,19.78 -109.07,38.64 -160.34,28.44 -198.74,57.17 3.64,43.6 -5.69,31.26 36.65,45.08z"/>
  <path class="fil8" d="M1256.25 3565.21c9.71,39.05 15.46,48.09 57.44,49.44 35.42,-70.93 9.48,-78.32 24.55,-140.94 9.3,-38.67 22.93,-39.13 29.16,-130.05l-20.51 13.72c-5.97,64.35 -10.96,74.03 -28.57,107.99 -20.76,40.06 10.75,76.32 -23.12,118.97 -31.67,-10.97 -8.52,-0.07 -38.95,-19.13z"/>
  <path class="fil8" d="M1524.34 4113.67c61.29,-20 105.01,-87.34 138.27,-122.76 24.1,-25.67 24.58,-20.18 37.05,-51.94 -50.93,12.72 -58.72,58.7 -135.71,125.56 -18.16,15.78 -26.39,19.94 -39.61,49.14z"/>
  <path class="fil8" d="M2648.83 4220.24c-8.33,-38.3 -29.46,-102.15 -61.55,-109.64 7.18,66.98 17.91,46.41 33.09,102.14l28.46 7.5z"/>
  <path class="fil9" d="M2102.84 4868.35c-5.2,-39.5 8.21,-78.47 22.15,-107.4l34.78 2.88 64.59 -13.19c146.66,1.29 127.41,-32.33 195.98,-23.06 5.07,26.38 -13.2,164.15 -13.92,213.17 -1.5,100.25 -6.91,380.41 2.79,466.03 8.7,76.81 38.02,117.55 24.71,204.14 -51.11,37.81 -241.22,49.57 -326.68,42.55 -50.42,-99.02 -34.75,-574.62 -18.79,-739.92 3.8,-39.23 4.71,-34.02 14.39,-45.2zm-735.44 -1524.69c-6.23,90.92 -19.86,91.38 -29.16,130.05 -15.07,62.62 10.87,70.01 -24.55,140.94 -41.98,-1.35 -47.73,-10.39 -57.44,-49.44 -28.65,-14.82 -53.69,-63.89 -73.1,-92.22 -32.18,-46.97 -33.73,-72.88 -55.56,-117.95 -33.65,-8.6 -25.56,-19.7 -27.5,-56.17 -5.26,-98.71 3.34,-101.47 75.93,-89.68 39.4,6.4 70.97,-0.76 88.11,29.94l120.45 8.16c7.01,37.96 0.26,71.87 -17.18,96.37zm762.47 -176.26c9.15,-6.9 15.08,-12.77 49.74,-12.84 31.24,36.86 76.6,159.78 90.75,212.18 7.92,29.36 5.1,64.2 11.22,93.08 30.89,-18 38.17,177 40.34,208.67 23.99,349.4 -55.08,226.17 143.6,381.62 35.9,28.09 27.3,32.9 52.56,72.84 17.37,27.5 37.19,61.25 41.91,104 -0.88,92.96 48.53,162.67 -7.04,266.37 -37.44,69.88 -89.82,115.18 -154.82,153.11 -7.56,26.83 -94.73,65.28 -133.25,19.12 -18.34,-18.53 12.62,-44.87 28.23,-72.68 35.36,-62.99 14.65,-56.79 52.07,-93.62 3.85,-86.51 25.61,-201.85 -42.74,-285.82l-71.13 -90.9c-27.4,-28.78 -73.17,-54.48 -100.5,-72.28l-86.78 -4.45c6.66,42.27 13.62,31.97 48.6,52.96 127.54,76.51 88.11,59.34 150.29,156.35 46.77,72.97 67.88,280.01 -11.66,330.86 -22.44,43.51 -71.67,71.07 -101.23,98.97 -18.04,64.04 -247.68,34.16 -304.76,55.11 10.44,45.96 26.89,44 83.19,45.75 42.66,1.33 85.13,-1.06 127.75,0.55 22.11,92.28 -14.66,81.69 -16.85,83.48l6.78 0.13c-12.1,183.02 -29.8,406.93 -22.6,594.41 2.2,57.11 17.94,152.76 12.01,198.68 -78.1,37.77 -275.89,79.67 -390.79,48.76 -7.35,-37.09 0.46,-44.45 -12.22,-77.59l-51.73 -224.16c-12.77,-41.87 -26.81,-103.51 -35.01,-146.51 -11.21,-58.84 -14.47,-120.5 -16.33,-187.18 -2.89,-87.57 -34.53,-796.02 8.11,-850.85 16.81,-21.61 109.31,-76.5 125.42,-91.78 33.74,-32.03 -0.16,-23.97 51.68,-38.08 -3.85,-52.53 9.61,11.58 56.63,-78.17 48.84,-93.21 56.19,-85.22 85.52,-131.98 23.7,-37.8 14,-39.74 64,-117.38 67.12,-104.2 83.8,-265.82 50.22,-395.41 -10.1,-38.94 -38.75,-59.71 -61.57,-83.29 -42.34,-13.82 -33.01,-1.48 -36.65,-45.08 38.4,-28.73 89.67,-18.53 198.74,-57.17 36.84,-13.06 29.86,-15.74 78.3,-19.78zm-624.07 182.46c-14.19,36.94 -30.29,56.75 -77.04,59.61 -0.04,-34.11 -6.12,-38.96 13.87,-62.81l42.59 -92.53c25.95,-4.09 44.09,-6.47 71.73,-7.05 65.17,-1.36 54.2,4.98 67.59,15.32 -18.1,41.71 -25.81,16.82 -88.23,70.18l-30.51 17.28zm-465.64 26.72l17.51 44c14.84,51.78 -4.77,12.43 21.93,39.09 71.71,71.62 -28.89,1.89 60.41,93.61 33.63,34.55 84.77,88.49 101.69,129.61l12.29 9.65c45.05,8.16 27.05,35.59 31.78,83.42 28.44,-5.95 12.01,2.87 28.51,-15.38 12.97,-14.33 -6.02,-7 31.86,-31.76l88.97 -165.13c1.48,-42.47 59.75,-115.95 83.36,-141.13 21.91,-23.39 29.17,-33.95 59.93,-48.92 38.82,-18.89 41.6,-29.62 86.76,-37.02 41.76,-6.93 133.64,-16 169.9,7.84 36.67,24.11 6.85,-5.5 27.85,36.88 77.76,156.99 12.88,240.32 -16.47,313.21 -73.53,182.64 -120.42,186.68 -146.78,244.42 -12.47,31.76 -12.95,26.27 -37.05,51.94 -33.26,35.42 -76.98,102.76 -138.27,122.76 -30.08,43.19 -148.11,142.35 -237.4,139.42 -107.05,-3.51 -149.47,-64.19 -194.27,-93.17 -24.53,-15.86 -44.42,-14.83 -45.99,-47.04 -45.29,-6.1 -69.71,-53.27 -86.86,-91 -8.51,-18.7 -17.5,-39.49 -26.35,-54.77 -38.66,-66.87 -80.34,-190.71 -87.92,-265.3 -3.95,-38.97 6.23,-31.78 25.87,-60.38 -1.74,-1.44 -5.05,-5.11 -5.88,-3.42 -0.05,0.1 -23.12,-8.85 -28.73,-33.78l-2.52 -215.49c5.92,-310.09 -22.74,-145.96 -47.8,-254.58 -52.85,-44.38 -75.14,-141.3 40.2,-214.65 100.56,-63.96 138.8,-84.15 274.03,-50.17 40.71,10.24 36.14,-1.04 56.38,27.33 33.13,46.43 -20.28,131.03 -54.51,191.89 -85.25,151.53 -52.08,228 -62.43,288.02zm1279.78 -1651.49l16.64 -47.26c6.7,-22.62 15.89,-56.07 39.98,-68.71l29.13 -7.51c0.81,93.7 -15.98,83.52 -32.09,146.67 -6.56,25.68 -7.97,48.56 -17.34,74.62 -8.58,23.84 -2.74,0.5 -13.47,33.13 -20.17,61.41 -37.36,206.58 -34.59,269.36 2.37,54.07 10.71,73.1 -13.9,87.83l-16.57 3.17c-0.32,-0.04 -17.07,13.31 -33.25,-22.04 -18.61,-40.66 -5.76,-186.86 -0.72,-231.7 6.75,-60.01 18.49,-71.8 30.27,-122.95 7.48,-32.46 9.99,-65.46 30.42,-95.44 10.85,-15.93 1.66,-5.9 15.49,-19.17zm571.64 -131.25c28.76,75.87 -29.4,77.54 -29.59,77.66 -36.66,21.82 -26.2,29.45 -54.26,47.71 49,22.76 12.65,-4.4 33.53,44.6 25.21,59.18 27.7,42.6 -2.87,80.58 -43.14,-23.42 -17.43,12.17 -27.07,-44.98 -0.68,2.93 -0.97,12 -1.82,14.16 -8.77,22.35 -4.24,15.63 -16.23,29.84 -100.04,-35.84 -16.42,-17.78 -90.25,-7.89l-25.08 -30.71c-1.16,-1.5 -2.47,-3.75 -3.6,-5.17l-32.18 -26.81c-1.51,-1.31 -3.75,-2.71 -5.18,-4.21 -27.31,-28.4 -17.33,-18.56 -22.52,-56.75 37,-9.85 28.11,-31.85 53.43,-10.97 -40.91,-2.03 -30.62,1.4 -54.35,-15.35l-50.15 -27.14c-1.91,-0.79 -5.32,-1.67 -7.57,-3.25l18.9 -18.02c49.73,-25.92 120.63,-9.26 177.72,-15.2 42.48,-4.43 -23.26,23.17 13.98,-12.31 23.92,-22.78 79.72,-22.25 116.81,-17.46 2.15,0.27 5.67,0.72 8.35,1.67zm-666.85 -90.94c-97.46,-28.68 -28.22,-102.97 43.55,-70.33 -4.25,63.2 3.43,-7.88 -43.55,70.33zm-762.24 -171.74c10.6,-13.56 0.02,-5.01 17.17,-14.17l61.11 -12.69c93.59,-12.34 332,-38.88 413.21,-37.98 50.86,0.56 143.34,-14.45 143.18,36.21 -37.68,28.34 -110.12,10.34 -160.39,15.58l-474.28 13.05zm-293.67 9.02c-16.77,13.89 -7.28,10.06 -35.47,17.18 -45.57,11.51 -186.69,-8.78 -222.66,-22.22 -27.04,-10.1 -62.28,-26.66 -91.45,-39.44 -23.65,-10.37 -33.55,-18.09 -44.75,-30.19 -26.43,-28.56 -17.07,-12.35 -25.79,-47.87 41.64,-0.2 35.08,-2.04 68.91,12.14 51.12,21.42 58.38,14.78 97.15,30.82 114.65,47.43 180.24,31.78 217.52,43.5 37.04,11.64 25.14,9.12 36.54,36.08zm-564.9 214.86c9.35,20.57 35.19,52.85 48.62,76.51 46.63,17.96 39.47,6.56 37.39,62.75l39.46 11.1c-9.71,20.59 -7.45,6.19 -13.63,32.42 -5.62,23.79 3.53,18.41 -7.15,38.65 -22.28,-57.47 -0.52,-18.63 -49.7,-53.18 -23.09,-16.22 -35.71,-38.85 -47.58,-63.98 -32.35,-28.43 -54.33,-75.85 -79.32,-100.39l-98.32 -150.11c-45.04,-88.88 -41.98,-59.77 -83.29,-161.37 -49.61,-121.95 -53.82,-187.08 -49.8,-322.4 3.38,-114.02 -10.55,-84.21 19.95,-106.31 2.25,1.44 4.7,3.89 5.83,5.48l9.33 12.39c1.05,2.4 1.94,4.64 2.71,7.32 1.98,6.94 1.39,17.85 1.31,25.94 -1.74,186.4 -11.98,175.33 62.77,378.23 31.89,86.54 47.35,80.27 92.06,160.77 23.14,41.66 31.13,33.31 55.71,70.48 33.93,51.31 48.28,46.62 53.65,75.7zm2451.06 -551.39c-25.02,-45.5 -11.98,-84.25 31.97,-106.65 2.5,-1.27 7.83,0.99 9.76,-3.33 2.09,-4.66 7.11,-2.14 10.71,-3.01 -4.51,35.74 -2.81,57.52 -12.05,83.68 -10.55,29.85 -8.42,29.39 -40.39,29.31zm-163.19 -45.53c-30.71,-2.74 -28.44,-6.25 -41.77,-25.84 -9.94,-14.6 -16,-19.4 -21.52,-43.43 -9.82,-42.69 -11.59,-92.36 18.92,-121.88l15.7 30.21c0.16,0.46 4.45,21.42 4.67,22.72 13.06,77.85 25.05,80.19 24,138.22zm-2047.77 -493.31c0,-31.81 -0.16,-69.89 1.25,-99.92 1.03,-22.09 54.38,-160.09 83.35,-181.02 31.56,73.32 -25.75,66.8 -36.13,196.55 -1.32,16.29 -5.94,47.71 -5.41,75.34l38.1 225.4c8.86,45.69 12.12,24.27 19.16,62.9 -50.64,-1.2 -24.23,-0.32 -38.19,-16.97 -44.61,-53.2 -62.13,-193.85 -62.13,-262.28zm-104.17 155.11c-110.69,-50.47 -145.23,-123.36 -347.46,-105.74 -58.98,5.14 -109.71,40.51 -146.42,83.84 -86.62,102.26 -77.45,361.52 -35.75,473.06l86.26 257.11c101.21,181.46 84.07,204.96 257.21,419.59 191.14,236.91 167.88,123.63 151.69,277.13 -14.35,135.97 -10.06,299.68 -8.72,443.33 0.6,63.78 -2.7,163.99 4.82,223.63 8.26,65.59 45.48,121.05 44,184.43 -47.21,30.71 -72.96,67.58 -76.93,141.99 -6.85,128.74 22.88,102.3 47.97,167.55 30.05,11.59 53.87,37.37 60.95,61.2 9.06,30.48 8.86,91.72 -16.96,109.56l8.96 294.12c1.31,59.53 38.66,208.22 58.22,260.43 26.06,69.57 159.42,280.62 207.05,316.3 34.86,26.13 159.66,95.7 214.85,100.3 139.85,11.67 100.31,-41.39 174.39,-29.83 13.41,46.75 -12.48,529.05 2.6,690.84 5.49,58.9 2.94,118.7 5.66,177.89l46.4 313.34c4.28,28.13 9.88,41.54 18.6,70.87 10.62,35.73 12.03,37 5.05,70.22 -0.33,1.54 -1.17,4.49 -2.15,6.57l-23.89 27.11c-32.8,34.67 -48.99,49.99 -38.28,107.42 77.81,36.78 56.29,28.34 164.05,32.37 57.99,2.16 164.46,8.62 212.02,-9.6 75.39,5.26 213.44,-45.59 265.65,-45.89l307.73 -15.7c77.31,-6.41 133.7,-26.42 134.14,-101.82l-28.28 -223.82c-8.64,-75.05 -21.95,-577.1 -5.69,-636.7 7.62,-27.87 6.41,-20.14 8.28,-55.09 2.07,-38.85 -8.78,-43.84 19.03,-52.42 -0.54,-28.77 -2.99,-21.83 26,-37.39 21.38,-6.37 40.19,-41.83 54.46,-63.11 20.63,-30.83 26.1,-58.7 40.4,-96.26 34.36,-90.25 3.38,-149.91 13.07,-236.51l-28.46 -7.5c-15.18,-55.73 -25.91,-35.16 -33.09,-102.14 -3.68,-8.27 -28.85,-50.56 -37.71,-61.11 -30.65,-6.8 -24.59,-14.83 -40.22,-33.43 -35.28,-41.99 -90.71,-58.33 -122.42,-84.72 -7.48,-82.14 11.14,-177.57 -8.79,-254.17 -11,-42.28 -18.52,-200.24 -24.4,-255.21 -9.62,-40.06 -28.63,-90.18 -40.95,-138.56 -11.13,-43.65 -42.74,-103 -41.03,-141.85l-24.61 -13.56c-5.59,-67.53 52.57,-74.74 100.42,-149.5 119.75,-187.14 18.09,-150.22 216.96,-169.63 2.27,-1.15 41.76,-19.13 56.49,-24.08 52.66,-17.71 32.18,4.4 57.88,-38.64 5.96,-23.15 -16.14,-7.55 15.1,-24.09l38.35 19.97c0.11,-34.35 2.65,-66.49 10.14,-96.28 10.02,-39.83 22.29,-37.39 27.75,-69.25 12.63,35.47 -5.44,6.89 -17.71,12.51 -45.38,10.03 -140.88,170.07 -298.65,149.93l-16.18 -15.14c-45.51,-46.79 27.05,12.26 -14.07,-15.64l-43.06 -12.37c10.65,31.83 22.97,50.67 14.69,83.89 -2.74,10.96 1.97,-4.03 -5.06,14.25l-6.85 13.58c-20.52,53.5 -18.04,-0.2 -44.96,64.25 -0.78,1.86 -1.3,4.56 -2.12,6.35 -14.69,32.14 -72.4,90.08 -76.23,96.87 -12.09,21.45 -16.73,44.39 -10.97,67.47 -22.07,-14.4 -28.49,-3.01 -81.56,27.04 -1.58,0.91 -3.73,2.45 -5.29,3.32 -57.69,32.66 -91.04,1.19 -143.15,10.65l-7.24 24.13c-3.26,13.91 0.04,10.33 -3.69,22.33 -187.63,50.91 -338.09,9.43 -432.9,33.66l-201.5 -6.95 -27.17 -23.81c-1.43,-1.57 -3.49,-4.46 -5.43,-6.51l-44.85 -26.8 -17.89 46.71c-53.71,0.48 -91.98,6.84 -101.97,-22.02 -19.63,-56.57 8.93,-38.34 11.43,-41.44 31.14,-65.59 74.36,-107.33 66.74,-194.32 -73.96,-16.9 -45.66,-108.27 -293.66,-104.68 -57.55,0.83 -77.69,18.93 -116.96,13.94 -12.41,-16.04 -20.47,-35.65 -30.26,-53.65 -7.27,-13.38 -9.58,-16.45 -16.37,-28.58 -2.88,-5.15 -17.25,-34.82 -17.57,-35.8 -41.9,-127.15 8.63,-790.15 33.4,-927.59l63.01 -333.89c81.69,-9.18 212.89,2.69 301.7,3.15 179.61,0.92 770.42,-40.82 876.11,-26.91 2.12,34.32 -8.06,82.45 4.32,112.6 11.94,29.1 37.84,24.42 69.78,63.69l124.08 9.02c20.85,39.05 -18.62,112.12 -42.56,178.85 -15.49,43.18 -11.56,53.35 -19.61,102.62 -12.94,79.15 -57.24,91.01 -60.52,309.23 -0.5,33.37 -3.4,86.71 0.24,118.19 3.85,33.23 7.66,42.42 40.89,79.86l27.35 0.54c49.64,8.8 34.04,15.08 66.83,29.65 24.21,10.75 52.8,15.37 74.78,13.19l25.66 -5.59c35.29,-14.22 17.48,-28.72 50.26,-73.76l12.02 -14.3c16.53,-22.55 75.96,-199.28 175.63,-211.04 72.41,-8.54 117.81,-2.33 169.6,39.57 1.41,1.14 3.6,2.77 4.95,3.94 28.5,24.92 23.63,33.67 45.37,114.6 0.76,2.81 1.55,4.82 2.23,7.66 0.69,2.86 1.35,4.87 1.94,7.79 10.07,50.87 0.02,129.55 -12.29,181.07 -10.1,42.31 -5.26,33.83 -34.95,45.61l2.85 6 3.34 22.99 3.87 23.19c13.69,-33.2 -13,-18 41.4,-28.13 19.32,-3.95 48.11,-32.63 79.3,-34.69 24.84,-30.67 99.32,-22.04 34.74,-34.18 -97.11,-8.33 -21.15,-15.33 -47.48,-214.38 -2.86,-55.09 -7.57,-59.9 24.55,-91.74l1.11 -1.1c4.53,-28.62 118.08,-162.76 167.4,-283.16 0.41,-2.98 1.94,-22.32 4.16,-26.39 12.41,-22.85 -6.55,-14.14 22.62,-23.26 1.43,-1.13 3.33,-3.03 4.03,-3.7 44.79,-42.6 35.55,-35.75 61.28,-89.1 25.04,-51.89 64.06,-81.25 82.92,-160.17 6.04,-25.29 10.65,-43.21 12.43,-67.41 3.09,-41.54 -8.85,-120.41 -7,-133.44 -29.01,-17.36 -46.58,-46.66 -58.95,-78.41 -15.63,-40.14 -7.63,-64.98 6.28,-101.76 26.14,-69.2 47.79,-339.04 -22.16,-396 -95.01,-77.36 -191.28,75.82 -237.81,-78.16l-67.57 -49.78c-62.61,0.31 -84.34,-14.32 -117.74,33.31 -27.06,38.58 -19.67,54.21 -25.82,109.61 -35.45,2.2 -71.71,-8.15 -77.28,-44.89l-161.71 -139.73c-103.84,-81.06 -152.06,-81.13 -200.1,-107.7 -52.01,-28.78 -214.31,-112.05 -251.86,-95.59 -40.74,-43.01 -359.99,-82.37 -437.98,-94.72 -51.05,-8.08 -105.77,-33.55 -139.3,-36.2 -76.28,-5.9 -335.73,-135.35 -400.93,-176.16 -44.26,-27.7 -86.89,-40.78 -152.91,-25.47 -95.03,22.06 -132.45,136.86 -151.82,218.81 -12.61,53.32 -7.64,127.84 -5.1,186.46 2.82,65.77 30.89,83.48 24.58,147.79 -51.58,0.77 -45.3,-9.05 -53.49,-20.23z"/>
  <path class="fil9" d="M1038.07 1792.93c-77.01,-5.12 -146.27,5.6 -208.02,34.66l4.08 55.62c47.6,14.26 390.55,17.01 423.41,-4.22 18.22,-37.69 47.65,-14.86 54.44,-29.2 1.8,-3.8 5.79,-2.56 9.6,-4.34l-5.55 -45.02c-59.15,-34.39 -203.98,-9.5 -277.96,-7.5z"/>
  <path class="fil9" d="M1567.77 1888.24c46.61,20.78 139.16,9.29 205.73,9.22 50.14,-0.11 261.3,14.45 280.26,-15.18 35.58,-55.58 -17.91,-72.32 -63.08,-73.69 -59.58,-1.81 -89.7,-9.74 -144.98,-9.75 -37.95,-0.01 -210.91,4.47 -249.36,21.37 -38.76,17.04 -38.79,20.16 -28.57,68.03z"/>
  <path class="fil9" d="M1099.7 2037.83c3.32,-12.46 -20.96,-14.89 23.77,-19.18 20.1,-1.92 20.16,4.4 27.19,7.31 31.03,29.45 0.51,53.27 -0.87,54.68l-3.41 22.86c-12.76,2.8 -72.61,22.34 -64.83,-41.3 5.73,-46.83 3.76,-19.88 18.15,-24.37zm132.26 116.12l9.1 -19.65c3.25,-60.86 -7.78,-111.9 -53.03,-136.3 -95.6,-51.53 -204.6,84.54 -91.28,163.05 56.52,39.15 89.56,7.86 135.21,-7.1z"/>
  <path class="fil9" d="M1810.1 2082.67l-9.61 23.46 -51.82 -4.25 15.76 49.12c30.34,36.11 75.44,20.23 113.49,8.19 32.77,-33.24 33.99,-37.19 30.37,-106.07 -7.31,-11.51 -37.39,-42.1 -49.17,-49.67 -26.66,-17.1 -54.78,-12.74 -88.76,-8.12l6.5 -4.44c3.11,48.4 -16.35,8.87 25.21,35.13 13.97,8.84 9.62,1.91 24.92,18.07 -6.16,33.47 -1.97,14.72 -16.89,38.58z"/>
  <path class="fil10" d="M1509.47 5076.37l31.63 5.41 35.96 251.23c8.91,57.8 7.45,29.84 25.02,50.1 -22.95,-19.08 -8.73,15.95 -16.04,-34.63 -1.7,-11.75 0.28,-41.68 0.39,-54.89 23.92,21.73 24.89,-33.36 23.54,53.51 95.89,6.66 18.89,5.51 50.87,33.11l31.17 32.28c15.04,21.93 28.78,33.46 3.28,48.34l36.44 2c-1.13,110.06 40.37,16.93 37.95,173.01 38.69,18.46 22.53,14.37 39.92,45.19l99.1 0.03 82.34 -24.37 3.58 -44.13 -18.03 17.65c-16.77,15.04 -39.48,27.41 -62.01,23.68 18.63,-8.9 31.01,-15.61 53.27,-23.06 1.21,-68.44 -16.57,-94.36 -20.21,-175.49l-22.64 -16.19c-1.55,-1.3 -3.24,-3.21 -4.8,-4.56 -11.77,-10.18 -5.79,-11.4 -28.79,-21.48 -11.01,-4.82 -50.67,-11.04 -56.72,-11.91 31.39,-7.94 16.85,2.43 24.83,-25.61 3.92,-13.8 1.54,-40.39 1.17,-55.61 -37.74,-90.79 42.38,63.1 -14.17,-18.74 -23.4,-33.86 0.83,15.35 -9.92,-15.65 -14.13,-40.76 3.16,-60.6 32.77,-77.05 -28.2,-31.57 -50.4,-40.61 -81.55,-29.22 2.56,-2.03 15.11,-11.23 19.01,-15.67 27.65,-31.37 26.59,-53.78 -1.03,-78.31 22.95,-19.41 21.46,-14.81 27.05,-56.97l-182.3 -6.19c21.01,-8.52 39.76,-1.39 54.08,-5.46l-1.37 -9.22c-0.33,-1.92 -1.75,-9.45 -2.13,-11.65 -0.23,-1.3 -3.82,2.54 -3.89,-23.27 -69.89,12.79 -15.83,3.3 -80.07,-1.97 5.35,-73.81 -9.6,-91.63 -10.03,-164.65 -1.2,-200.2 -28.83,-110.43 -36.38,-153.79 -10.49,-60.22 9.42,-234.18 10.18,-281.64l49.3 -7.01c-13.93,-29.66 -0.56,-28.57 14.98,-74.22l6.33 -20.76c16.04,-49.66 79.34,-34.82 86.72,-122.95 -39.96,-2.48 -29.99,-8.15 -54.93,9.94 -23.99,17.39 -13.1,21.88 -28.88,34.46l-43.12 18.26c-25.42,7.89 -17.66,7.5 -49.14,9.22 5.72,23.8 8.1,21.03 10.43,46.65 -38.27,23.6 -38.6,4.91 -37.67,71.5 0.88,64.08 12.86,278.46 -7.75,313.25l0.45 -384.75c8.82,-20.48 -1.55,-0.26 17.11,-21.4l71.55 -53.46c33.42,-21.53 51.51,-29.01 66.89,-61.48l11.47 -32.12c-51.84,14.11 -17.94,6.05 -51.68,38.08 -16.11,15.28 -108.61,70.17 -125.42,91.78 -42.64,54.83 -11,763.28 -8.11,850.85z"/>
  <path class="fil10" d="M2159.77 4763.83l-34.78 -2.88c-13.94,28.93 -27.35,67.9 -22.15,107.4l-0.98 587.04c0.75,35.96 -2.87,59.88 3.15,94.96l10.88 58.89c10.72,34.86 51.5,30.49 126.88,25.43 91.82,-6.16 61.51,-24.05 98.53,-25.96l23.13 -36.04c-0.64,-2.51 -2.71,-8.47 -3.23,-7.05l-6.12 -13.42c-0.71,-1.78 -2.07,-4.38 -2.79,-6.38 -5.77,-16.1 -4.4,-3.79 -6.36,-27.63l-2.04 -217.68c-48.3,-4.67 -38.08,-30.78 -38.7,-115.9 -2.06,-284.51 -102.73,-313.53 49.8,-364.27l14.08 -63.41c-52.99,17.43 -145.48,21.21 -209.3,6.9z"/>
  <path class="fil10" d="M786.49 3134.16c126.28,105.15 30,234.18 72.6,366.94 52.41,13.21 100.17,-66.6 174.44,-76.26l6.63 -48.26c10.35,-60.02 -22.82,-136.49 62.43,-288.02 34.23,-60.86 87.64,-145.46 54.51,-191.89 -20.24,-28.37 -15.67,-17.09 -56.38,-27.33 -135.23,-33.98 -173.47,-13.79 -274.03,50.17 -115.34,73.35 -93.05,170.27 -40.2,214.65z"/>
  <path class="fil10" d="M1049.06 1774.76c47.16,0.53 87.66,-6.61 128.98,-8.42 41.64,-1.82 105.4,5.09 138.71,2.44l27.43 7.96c-8.49,-82.43 -343.99,-0.09 -427.68,-11.58 -59.86,-8.22 32.37,10.15 -14.94,-3.67 -2.07,-0.6 -5.08,-2.34 -6.7,-2.92 -1.6,-0.56 -4.46,-1.87 -6.44,-3.26 6.95,-12.16 -7.95,-20.09 72.55,-19.63 36.3,0.2 53.19,4.28 85.4,-3.64 146.68,-36.1 65.54,-41.77 142.54,-38.45 -5.8,-69.64 -16.08,-23.5 8.95,-83.61l-82.14 -1.48c1.92,-35.36 14.52,-20.73 21.65,-49.7 4.7,-19.1 -1.88,-34.67 13.44,-61.61 154.88,-2.46 299.14,-18.43 460.25,-20.31 85.64,-0.99 150.08,-10.58 225.42,-11.74 194.97,-2.99 176.81,-10.22 183.43,62.39l26.23 8.14c-6,-28.35 -12.02,-89.36 -20,-114.22 -137.2,-26.74 -338.97,-2.61 -479.94,9 -162.02,13.33 -328.17,9.42 -494.66,11.88l-17.24 26.05c-8.72,8.46 12.87,6.83 -27.87,9.17 -32.87,1.89 -48.14,-5.67 -72.2,7.64 -0.03,-0.07 -0.23,-18.86 -1.16,-21.26 -12.95,-33.5 9.8,-17.24 -25.92,-31.51 -45.68,29.12 -46.67,195.72 -73.19,314.36 -3.86,17.28 -9.28,22.29 0.99,51.93 80.46,-12.47 118.18,-23.06 214.11,-23.95z"/>
  <path class="fil10" d="M2499.61 2522.34c34.52,-6.64 70.76,-14.65 87.72,-44.06 13.28,-23.04 7.59,-15.67 6.61,-46.32 -100.4,-4.96 -29.95,39.72 -116.48,54.29 -31.82,-84.76 74.99,-335.32 165.32,-297.76 0.46,29.91 -6.33,0.33 -75.76,89.65 -15.45,19.89 -18.99,21.01 -29.26,52.33 -4.02,12.23 -5.62,18.48 -11.62,33.14 -13.84,33.82 -4.43,-8.4 -12.34,32.58 54.12,-16.73 16.98,-39.53 108,-25.35 33.6,41.98 42.97,78.89 18.5,124.35 -34.34,63.79 -92.1,49.03 -118.83,63.3 5.86,50.54 23.83,34.15 75.66,51.45 1.42,0.47 4.32,1.43 6.18,2.7 -34.97,54.33 -128.84,18.93 -120.11,-81.6 -67.73,32.82 51.35,189.18 147.11,81 17.37,-19.62 8.95,-11.43 26.7,-27.33 9.17,-8.23 26.98,-21.79 34.3,-29.05l40.63 -67.12c20.56,-45.76 4.65,-133.04 -2.26,-183.32 -0.96,-6.95 0.23,-22.17 0.23,-22.2 0.91,-14.66 3.04,-34.81 3.5,-53.95l-65 -50.24c-58.39,-36.89 -99.74,13.56 -130.4,52.83 -61.42,78.65 -66.93,145.82 -83.56,254.64 51.65,25.93 30.46,-28.41 45.16,36.04z"/>
  <path class="fil10" d="M802.52 2026.92c15.33,-15.39 9.99,22.09 16.92,-35.37l11.48 45.06 75.05 -2.91 20.7 -29.95 -45.88 1.8c7.24,-22.69 5.59,-17.82 27.96,-31.4 6.97,-4.23 33.58,-17.08 43.76,-21.2l71.13 -16.32c17.37,-4.8 17.47,-5.47 24.21,-9.85 -30.52,-12.95 -81.61,-7.25 -122.91,-7.62 -60.79,-0.56 -61.47,-9.33 -113.8,-16.22l-8.62 123.98z"/>
  <path class="fil10" d="M1770.36 1995.33c33.98,-4.62 62.1,-8.98 88.76,8.12 11.78,7.57 41.86,38.16 49.17,49.67 3.62,68.88 2.4,72.83 -30.37,106.07 -2.23,27.45 6.97,13.83 -9.17,29.25 21.26,-5.35 19.69,9.69 52.73,-50.6 27.37,-49.94 9.13,-107.59 -29.05,-140.34 -8.11,-6.94 -16.19,-12.15 -27.58,-17.65l-38.9 -16.98c27.51,-12.46 30.65,-5.53 64.82,-2.7 -10.27,-15.74 7.42,-21.97 -72.11,-20.73 -96.65,1.52 -159.18,-25.85 -221.9,-19.12 32.05,81.2 122.82,25.26 194.16,38.19l-15.45 29.42c-1.5,1.77 -3.54,4.84 -5.11,7.4z"/>
  <path class="fil10" d="M848.18 3595.42c52.76,-7.24 18.45,3.71 46.34,-22.22 27.44,-25.51 53.95,-43.45 69.08,-69.11 -41.27,7.58 -48.68,15.16 -74.69,28.84 -37.81,19.91 -33.25,6.64 -40.73,62.49z"/>
  <path class="fil10" d="M1149.79 2080.64l-9.11 -49.73 -40.98 6.92c-5.25,27.76 -6.76,19.96 2.63,48.37l47.46 -5.56z"/>
  <path class="fil10" d="M981.65 3561.44c11.45,-6.66 26.05,-13.84 41.39,-21.49 30.51,-15.23 65.32,-21.47 45.81,-59.58l-118.95 99.64 31.75 -18.57z"/>
  <path class="fil11" d="M1367.4 2154.88c39.14,6.48 27.73,-0.55 29.36,123.84 0.64,49.52 5.22,109.93 1.25,157.22 -51.94,1.77 -181.26,-87.47 -192.35,42.59 -2.44,28.68 0.41,37.8 12.47,57.94 53.1,88.59 114.37,28.15 159.71,58.12 -9.77,30.19 -15.9,32.85 -55.77,35.67 -145.14,10.32 -217.8,-163.13 -116.7,-242.92 48.44,-38.23 98.39,-11.74 157.27,-13.57 0.44,-50.78 -17.85,-187.84 4.76,-218.89zm-126.34 -20.58l-9.1 19.65c-15.11,75.58 -123.43,43.94 -155.78,18.21 -119.49,-95.04 13.46,-260.97 133.07,-185.39 56.53,35.72 73,130.21 31.81,147.53zm649.71 -174.13c-34.17,-2.83 -37.31,-9.76 -64.82,2.7l38.9 16.98c11.39,5.5 19.47,10.71 27.58,17.65 38.18,32.75 56.42,90.4 29.05,140.34 -33.04,60.29 -31.47,45.25 -52.73,50.6 -104.76,8.05 -157.46,-19.75 -158.38,-126.29 13.71,-30.18 10.15,-23.01 29.55,-42.15 28.72,-28.3 -1.3,-7.65 36.94,-29.11l-6.5 4.44c1.57,-2.56 3.61,-5.63 5.11,-7.4l15.45 -29.42c-71.34,-12.93 -162.11,43.01 -194.16,-38.19 -21.34,0.41 -47.91,8.24 -60.85,-26.22 -50.42,-134.17 192.72,-112.4 264.67,-114.45 87.9,-2.52 209.68,-11.72 273.22,27.13 45.07,138.73 -60.11,118.39 -164.46,120.33 40.15,24.04 79.3,-7.68 99.76,44.79 -36.07,23.59 -72.99,-5.05 -118.33,-11.73zm-546.59 -183.43c8.42,12.25 13.47,15.46 15.66,41.8 7.04,84.76 -53.65,60.46 -106.1,93.78 -73.74,46.84 -189.44,23.62 -327.07,91.43l-20.7 29.95 -75.05 2.91 -11.48 -45.06c-6.93,57.46 -1.59,19.98 -16.92,35.37l-13.04 405.23c0.32,178.03 -15.61,129.06 35.31,238.33l37.77 103.35c101.48,-11.68 135.98,-20.39 239.83,0.65 56.78,11.51 139.26,67.52 152.21,113.95 47.29,-3.55 11.45,10.41 29.4,-71.7 0.36,-1.68 1,-4.77 2.18,-6.86 40.7,6.03 22.06,-4.12 36.09,47.77 51.61,18 96.72,4.08 153.34,10.94 48.08,3.13 157.89,-23.22 175.91,-12.33l38.76 -23.74c28.91,-11.46 64.61,-25.8 68.82,-74.04l5.1 -63.12 62.23 -2.67c0.71,12.08 3.43,27.23 1.39,36.35 -9.43,42.28 -10.01,20.87 -22.66,30.65 -1.05,25.84 -11.72,40.2 -27.55,63.97 -7.52,11.28 -16.31,24.97 -20.83,31.73 -19.94,29.83 -14.34,21.73 -32.71,30.87 -1.41,6.01 -2.08,10.23 -5.51,23.41l-39.7 34.26c-8.74,4.51 -41.36,17.16 -52.02,21.2 -38.96,14.76 -81.26,16.29 -133.31,13.49 -176.01,-9.45 -166.17,-58.56 -207.35,-89.17 -1.25,2.03 -2.26,3.19 -2.46,6.72l-3.5 28.26c-0.3,86.57 -21.57,27.41 -33.21,94.32 16.86,17.8 39.2,27.04 52.15,42.73l293.94 12.05c26.66,-31.9 2.59,-43.06 2.56,-43.11 60.99,1.13 68.72,31.32 132.71,34.78 6.44,-10.79 1.73,-3.75 4.9,-16.71l4.13 -18.92 135.06 18.45c-13.98,-32.22 -18.91,-28.85 -29.43,-36.41l-39.41 -26.1c55.78,-15.47 78.03,-11.38 143.12,-11.02 11.27,-39.4 16.91,-12.64 19.09,-70.12 48.22,-3.62 85.37,-9.29 142.31,-12.41 -8.37,-23.64 -14.12,-18.72 -34.57,-35.65l21.82 -30.15c19.3,-27.05 -21.52,-17.84 31.08,-23.14 -18.12,-39.08 -22.95,4.62 -28.42,-46.42 16.63,-7.12 14.02,-3.42 28.09,-7.76 2.23,-0.68 4.86,-1.43 7.08,-2.16l20.68 -7.7c-11.87,-26.42 -14.34,-4.42 -28.47,-36.09 25.45,-26.57 7.5,-14.64 24.25,-38.62l32.73 -42.6c-23.41,-52.77 30.9,54.25 -18.05,-22.25 -0.63,-1.02 -13.06,12.65 -8.13,-21.62 4.36,-30.31 -11.14,2.03 44.94,-33.9 -9.61,-41.65 -9,-16.57 -18.7,-48.58 18.82,-9.65 18.1,-4.32 29.06,-27.07l-40.91 -99.76c-33.23,-37.44 -37.04,-46.63 -40.89,-79.86 -3.64,-31.48 -0.74,-84.82 -0.24,-118.19 3.28,-218.22 47.58,-230.08 60.52,-309.23 8.05,-49.27 4.12,-59.44 19.61,-102.62 23.94,-66.73 63.41,-139.8 42.56,-178.85l-124.08 -9.02c-35.09,-0.1 -64.51,-10.68 -81.96,-35.04l-26.23 -8.14c-6.62,-72.61 11.54,-65.38 -183.43,-62.39 -75.34,1.16 -139.78,10.75 -225.42,11.74 -161.11,1.88 -305.37,17.85 -460.25,20.31 -15.32,26.94 -8.74,42.51 -13.44,61.61 -7.13,28.97 -19.73,14.34 -21.65,49.7l82.14 1.48c-25.03,60.11 -14.75,13.97 -8.95,83.61 -77,-3.32 4.14,2.35 -142.54,38.45 -32.21,7.92 -49.1,3.84 -85.4,3.64 -80.5,-0.46 -65.6,7.47 -72.55,19.63 1.98,1.39 4.84,2.7 6.44,3.26 1.62,0.58 4.63,2.32 6.7,2.92 47.31,13.82 -44.92,-4.55 14.94,3.67 83.69,11.49 419.19,-70.85 427.68,11.58z"/>
  <path class="fil11" d="M2129.87 3167.4c-8.92,28.39 -1.23,16.56 -27.54,29.54 -45.55,22.49 -172.41,42.92 -220,51.03 2.25,15.84 4.33,27.35 7.15,41.46 22.82,23.58 51.47,44.35 61.57,83.29 33.58,129.59 16.9,291.21 -50.22,395.41 -50,77.64 -40.3,79.58 -64,117.38 -29.33,46.76 -36.68,38.77 -85.52,131.98 -47.02,89.75 -60.48,25.64 -56.63,78.17l-11.47 32.12c-15.38,32.47 -33.47,39.95 -66.89,61.48l-71.55 53.46c-18.66,21.14 -8.29,0.92 -17.11,21.4l-0.45 384.75c20.61,-34.79 8.63,-249.17 7.75,-313.25 -0.93,-66.59 -0.6,-47.9 37.67,-71.5 -2.33,-25.62 -4.71,-22.85 -10.43,-46.65 31.48,-1.72 23.72,-1.33 49.14,-9.22l43.12 -18.26c15.78,-12.58 4.89,-17.07 28.88,-34.46 24.94,-18.09 14.97,-12.42 54.93,-9.94 -7.38,88.13 -70.68,73.29 -86.72,122.95l-6.33 20.76c-15.54,45.65 -28.91,44.56 -14.98,74.22l-49.3 7.01c-0.76,47.46 -20.67,221.42 -10.18,281.64 7.55,43.36 35.18,-46.41 36.38,153.79 0.43,73.02 15.38,90.84 10.03,164.65 64.24,5.27 10.18,14.76 80.07,1.97 0.07,25.81 3.66,21.97 3.89,23.27 0.38,2.2 1.8,9.73 2.13,11.65l1.37 9.22c-14.32,4.07 -33.07,-3.06 -54.08,5.46l182.3 6.19c-5.59,42.16 -4.1,37.56 -27.05,56.97 27.62,24.53 28.68,46.94 1.03,78.31 -3.9,4.44 -16.45,13.64 -19.01,15.67 31.15,-11.39 53.35,-2.35 81.55,29.22 -29.61,16.45 -46.9,36.29 -32.77,77.05 10.75,31 -13.48,-18.21 9.92,15.65 56.55,81.84 -23.57,-72.05 14.17,18.74 0.37,15.22 2.75,41.81 -1.17,55.61 -7.98,28.04 6.56,17.67 -24.83,25.61 6.05,0.87 45.71,7.09 56.72,11.91 23,10.08 17.02,11.3 28.79,21.48 1.56,1.35 3.25,3.26 4.8,4.56l22.64 16.19c3.64,81.13 21.42,107.05 20.21,175.49 -22.26,7.45 -34.64,14.16 -53.27,23.06 22.53,3.73 45.24,-8.64 62.01,-23.68l18.03 -17.65c-18.99,-117.7 -7.27,-507.74 4.66,-662.88 3.58,-46.63 -8.99,-69.5 26.86,-79.72l-6.78 -0.13 3.52 -66.41c-87.37,-4.04 -156.32,11.98 -221.68,-24.09l0.65 -61.51c61.37,-8.6 111.48,-3.78 170.56,-4.2 61.17,-0.42 95.65,-24.99 157.62,-28.68 29.56,-27.9 78.79,-55.46 101.23,-98.97 6.94,-51.06 20.11,-44.43 28.38,-88.49 7.55,-40.21 1.82,-56.46 -3.18,-90.3 -14.22,-96.18 -15.15,-137.61 -75.35,-217.64l-17.22 -21.05c-0.74,-0.56 -2.99,-1.75 -3.82,-2.33l-9.8 -6.19c-12.09,-8.31 -15.91,-12.04 -26.46,-19.9 -42.36,-31.54 -80.48,-32.28 -95.57,-59.53l-8.79 -50.28c15.78,-0.36 47.46,-2.86 61.83,-1.98 53.51,3.31 41.77,9.08 49.53,21.97 27.33,17.8 73.1,43.5 100.5,72.28l71.13 90.9c68.35,83.97 46.59,199.31 42.74,285.82 0.3,69.61 -45.3,120.04 -66.79,162.79 57.82,11.46 76.77,-7.61 119.74,-15.61 65,-37.93 117.38,-83.23 154.82,-153.11 55.57,-103.7 6.16,-173.41 7.04,-266.37 -19.04,-12.93 -10.8,-6.28 -22.5,-24.52l-33.43 -64.15c-16.22,-27.72 -30.77,-47.67 -53.94,-72.51 -35.6,-38.15 -126.57,-74.07 -138.97,-112.75 -7.59,-23.64 -4.22,-211.72 -7.37,-257.44 -5.73,-83.06 -21.58,-157.74 -22.2,-235.76 -6.12,-28.88 -3.3,-63.72 -11.22,-93.08 -14.15,-52.4 -59.51,-175.32 -90.75,-212.18 -34.66,0.07 -40.59,5.94 -49.74,12.84z"/>
  <path class="fil11" d="M932.17 3812.89c1.98,-1.38 5.14,-2.61 6.45,-3.32l11.67 -6.2c9.48,-5.45 11.97,-7.56 12.46,-7.9l10.64 -8.62c1.68,-1.31 7.02,-5.41 8.93,-6.88 44.38,-34.39 77.61,-98.79 173.5,-106.19 -3.75,84.15 -55.28,101.99 -117.34,145.31 -54.99,38.39 -54.47,59.62 -86.21,67.61 -5.47,-9.06 -1.22,1.8 -9.07,-19.23l-11.03 -54.58zm106.45 -112.92c6.83,-40.38 11.51,-33.8 41.25,-57.37 49.81,-39.5 58.07,-11.68 60.3,-10.2 -2.69,39.41 -0.93,21.58 -38.96,41.22 -40.54,20.92 -11.95,20.78 -62.59,26.35zm396.49 -136.28l-88.97 165.13c-2.75,24.67 -3.32,42.06 -19.6,54.54 -34.59,26.51 -60.63,1.07 -60.86,0.99l-11.69 -91.81 -12.29 -9.65c-37.63,-2.86 -55.13,-38.19 -89.06,-79.5 -21.89,-26.64 3.18,-12 -28.9,-27.27 -20.59,5.18 -56.3,23.77 -67.57,41.18 -20.64,31.88 2.83,56.83 -142.77,112.02 -19.5,7.39 -13.27,1.88 -31.64,11.49 7.85,67.69 23.49,67.9 31.55,101.44 9.04,37.66 -3.32,22.41 14.79,58.58 51.2,102.33 16.97,47.07 72.25,125.49 18.98,26.92 40.68,53.85 46.33,86.56 1.57,32.21 21.46,31.18 45.99,47.04 44.8,28.98 87.22,89.66 194.27,93.17 89.29,2.93 207.32,-96.23 237.4,-139.42 13.22,-29.2 21.45,-33.36 39.61,-49.14 76.99,-66.86 84.78,-112.84 135.71,-125.56 26.36,-57.74 73.25,-61.78 146.78,-244.42 29.35,-72.89 94.23,-156.22 16.47,-313.21 -21,-42.38 8.82,-12.77 -27.85,-36.88 -36.26,-23.84 -128.14,-14.77 -169.9,-7.84 -15.66,25.17 6.71,1.56 -19.86,23.79 -4.38,3.66 -10.69,6.85 -17.08,10.72 -14.63,8.86 -19.68,10.88 -34.69,18.94 -34.31,18.42 -62.31,44.85 -80.97,81.24 -25.01,48.81 -19.81,19.23 -48.02,58.24l-29.43 34.14z"/>
  <path class="fil11" d="M2483.2 2531.04l16.41 -8.7c-14.7,-64.45 6.49,-10.11 -45.16,-36.04 16.63,-108.82 22.14,-175.99 83.56,-254.64 30.66,-39.27 72.01,-89.72 130.4,-52.83l65 50.24c-0.46,19.14 -2.59,39.29 -3.5,53.95 0,0.03 -1.19,15.25 -0.23,22.2 6.91,50.28 22.82,137.56 2.26,183.32l-40.63 67.12c-7.32,7.26 -25.13,20.82 -34.3,29.05 -17.75,15.9 -9.33,7.71 -26.7,27.33 -95.76,108.18 -214.84,-48.18 -147.11,-81zm-30.89 141.84l-0.58 46.56c106.02,3.45 211.26,-75.3 274.05,-147.83 0.88,-1.01 14.07,-17.85 15.26,-19.47 30.73,-41.6 12.51,-23.89 41.81,-38.73l-2.85 -6c1.14,-45.08 20.35,-43.2 23.93,-156.49 8.38,-265.12 -183.41,-247.71 -247.49,-191.46 -66.7,58.56 -130.39,205.54 -143.06,291.48 -19.8,134.21 -32.69,50.05 -21.9,130.64 7.26,54.21 8.13,12.35 -13.12,59.13 93.53,-4.36 69.95,16.98 73.95,32.17z"/>
  <path class="fil11" d="M2341.3 5608.71c121.31,7.12 45.9,-81.48 45.91,-378.97 0.01,-162.23 -2.58,-318.05 10.34,-479.63l-28.48 6.82 -14.08 63.41c-152.53,50.74 -51.86,79.76 -49.8,364.27 0.62,85.12 -9.6,111.23 38.7,115.9l2.04 217.68c1.96,23.84 0.59,11.53 6.36,27.63 0.72,2 2.08,4.6 2.79,6.38l6.12 13.42c0.52,-1.42 2.59,4.54 3.23,7.05l-23.13 36.04z"/>
  <path class="fil11" d="M1464.32 3357.28l121.35 -87.99c-80.57,-18.02 -106.17,17.7 -121.35,87.99z"/>
  <path class="fil11" d="M1760.75 2062.15c40,31.86 41.05,4.13 39.77,-28.48 -20.19,5.56 -36.35,7.15 -39.77,28.48z"/>
 </g>
</svg>
