<?xml version="1.0" encoding="UTF-8"?>
<!DOCTYPE svg PUBLIC "-//W3C//DTD SVG 1.1//EN" "http://www.w3.org/Graphics/SVG/1.1/DTD/svg11.dtd">
<!-- Creator: CorelDRAW 2017 -->
<svg xmlns="http://www.w3.org/2000/svg" xml:space="preserve" width="181mm" height="181mm" version="1.1" style="shape-rendering:geometricPrecision; text-rendering:geometricPrecision; image-rendering:optimizeQuality; fill-rule:evenodd; clip-rule:evenodd"
viewBox="0 0 18100 18100"
 xmlns:xlink="http://www.w3.org/1999/xlink">
 <defs>
  <style type="text/css">
   <![CDATA[
    .fil17 {fill:none}
    .fil4 {fill:#18104B}
    .fil16 {fill:#1D1E1D}
    .fil6 {fill:#371868}
    .fil0 {fill:#3B441F}
    .fil10 {fill:#4117AA}
    .fil2 {fill:#521845}
    .fil5 {fill:#544D4D}
    .fil3 {fill:#6A5010}
    .fil9 {fill:#7B3B65}
    .fil1 {fill:#90704E}
    .fil13 {fill:#918E9C}
    .fil7 {fill:#A33425}
    .fil11 {fill:#B35B4E}
    .fil14 {fill:#BCA343}
    .fil15 {fill:#E3947D}
    .fil12 {fill:#E5D2C1}
    .fil8 {fill:#E6ABA3}
   ]]>
  </style>
   <clipPath id="id0">
    <path d="M-0 0l18100 0 0 18100 -18100 0 0 -18100z"/>
   </clipPath>
 </defs>
 <g id="Capa_x0020_1">
  <metadata id="CorelCorpID_0Corel-Layer"/>
  <g>
  </g>
  <g style="clip-path:url(#id0)">
   <g>
    <g id="_1500056565344">
     <g>
      <path class="fil0" d="M18473.02 16114.91l-110.41 60.42c443.14,29.59 255.11,87.99 397,350.91l28.93 -183.21c379.46,-108.13 505.26,65.83 624.53,-349.02l-64.66 -0.92 -0.58 109.24c-359.58,136.35 -489.48,53.84 -874.81,12.58z"/>
      <path class="fil0" d="M10961.33 10627.41l-31.61 357.56c98.61,-58.2 42.89,-12.97 120.05,-76.65 38,-31.41 52.67,-48.82 84.41,-87.66 115.88,-141.89 71.37,-73.52 118.56,-240.57 -108.39,-11.86 -62.71,-25.74 -62.71,117.06l-174.54 -212.09c-276.48,0 3.85,-34.08 -80.43,96.47 140.2,46.08 220.11,-84.6 76.59,179.04 -69.42,-54.82 -65.57,116.99 -50.32,-133.16z"/>
     </g>
     <g>
      <path class="fil1" d="M18106.66 14153.28c371.06,118.43 745.89,58.4 859.56,470.19 -293.3,269.57 -411.2,110.02 -593.37,386.04 628.95,632.48 851.66,475.4 975.56,983.58l64.66 0.92 128.14 -4.83 19.09 -44.84c-96.72,-489.09 -208.56,-207.52 -487.45,-650.14 -116.08,-184.19 -105.85,-39.04 -373.86,-224.47l367.21 -37.8c28.61,-718.25 284.95,-756.12 -646.82,-959.14 -55.85,-241.81 -32.98,-361.41 -44.32,-622.77 -172.91,116.15 -101.74,424.37 -89.81,628.31 -96.85,100.5 153.49,98.87 -178.59,74.95z"/>
      <path class="fil1" d="M3025.33 16198.86c-129.76,-11.54 -78.6,11.86 -140.97,-40.93l101.41 -165.23c-137.2,100.51 -108.71,53.84 -182.95,232.03 178.78,82.45 88.05,80.5 222.51,-25.87z"/>
      <path class="fil1" d="M10330.29 14068.36l127.09 -61.6c128.99,94.64 34.29,-38.78 59.51,139.74 44.32,-54.03 85.9,87.73 51.49,-164.05 -205.24,1.5 -114.13,-38.97 -238.09,85.91z"/>
      <polygon class="fil1" points="7658.36,14669.74 7791.52,14525.57 7526.51,14455.51 7713.44,14516.71 "/>
      <polygon class="fil1" points="10260.29,14279.33 10341.04,14076.96 "/>
      <polygon class="fil1" points="14230.79,14496.44 14404.95,14232.67 "/>
      <polygon class="fil1" points="14534.78,13423.56 14639.65,13252.93 "/>
     </g>
     <g>
      <path class="fil2" d="M-171.78 15561.88c18.11,370.93 -722.88,2190.08 -958.43,2463.88l-1632.29 9.91c-62.5,-851.6 16.88,-844.23 165.62,-1488.96 52.92,-229.43 -2.68,-76.98 84.07,-267.69 77.24,-169.59 145.35,-296.88 198.66,-501.21 -72.41,70.46 -67.19,51.69 -138.82,172.07 -21.06,35.33 -52.01,102.85 -72.22,143.13 -160.66,320.8 -285.67,722.29 -475.79,913.19l0 1093.8 7544.09 0 190.18 -290.43 101.42 -127.48c-240.31,122.2 -251.78,257.38 -417.13,321.06 -143.85,55.4 -459.3,34.35 -630.92,34.15 -457.6,-0.46 -907.52,-6.84 -1364.15,4.95 73.33,-375.35 480.94,-1012.58 604.26,-1453.44 -125.92,87.53 -64.01,-99.13 -114.32,97.18 92.55,-271.92 -54.42,-203.94 -58.01,-210.13l-437.86 88.51 19.03 -177.8c-76.84,78.08 -110.73,-103.63 -67.84,242.39l473.57 -72.74c-67.98,373.01 -400.64,1220.31 -651.7,1477.23l-3127.19 -12.97c215.67,-442.29 372.16,-912.08 598.91,-1401.75 155.25,-335.27 497.3,-1122.61 560.26,-1435.98l307.9 64.53c-131.07,-131.01 -124.88,-112.63 -335.6,-119.73 -135.89,226.48 -102.19,368.7 -231.7,529.1 -12.71,-13.3 -46.8,-32 -53.71,-36.89l-80.29 -57.88z"/>
      <path class="fil2" d="M15969.39 14850.15l169.85 -79.97c172.72,296.36 194.81,1528.14 612.79,2514.07 81.86,192.99 234.77,536.79 280.91,731.09 -775.41,55.53 -2260.27,21.37 -3147.97,19.09 -606.15,-1.56 -438.97,70.33 -893.12,-225.77 111.32,227.47 59.24,37.74 119.08,291.34l5891.53 0c57.42,-167.37 0.71,-332.21 -180.35,-448.16l139.02 373.79 -1709.98 -18.9c-450.17,-643.16 -844.88,-2522.99 -896.31,-3328.06 148.08,-157.14 161.05,-182.23 362.45,-248.39 133.16,-246.95 155.06,-197.74 456.96,-256.73 -171.09,-59.96 -120,6.58 -198.99,-138.76 -91.38,53.38 -376.66,319.11 -496.19,421.5 -38.85,33.24 -192.6,202.76 -227.27,224.86 -149.39,95.03 -120.84,-8.73 -282.41,169z"/>
      <path class="fil2" d="M3687.79 13980.37c211.17,106.89 85.12,24.31 236.98,70.91 141.96,43.47 -22.74,8.08 187.91,77.5 -142.8,-209.22 72.61,-747.84 194.62,-1314.17 46.92,-217.69 89.09,-398.23 130.61,-618.65l184.91 -588.29c222.19,126.7 153.36,190.97 366.55,296.42 -56.25,-149.45 -147.43,-259.53 -276.35,-356.77 -495.02,-373.4 -52.53,-124.17 -336.9,-311.42 91.97,483.55 -106.63,1026.8 -196.96,1507.54 -48.69,259.01 -88.58,436.36 -161.77,691.72 -84.47,294.6 -39.69,528.39 -329.6,545.21z"/>
      <path class="fil2" d="M8957.86 2908.06c393.67,-141.76 733.37,-327.12 1188.56,-93.72 -45.29,470.77 -977.45,428.27 -1188.56,93.72zm-101.42 193.84c353.59,232.29 1631.77,298.31 1422.42,-320.09 -88.57,-261.75 -612.59,-217.88 -863.07,-189.86 -384.35,43.08 -594.48,109.96 -559.35,509.95z"/>
      <path class="fil2" d="M4943.36 3200.64c141.5,-253.73 686.64,-235.75 935.09,-102.13 -70.78,374.24 -790.2,322.49 -935.09,102.13zm-166.46 -55.21c70.91,327 281.23,346.61 609.66,349.74 217.95,2.09 609.08,-32.85 649.62,-306.2 62.5,-421.37 -1021.52,-421.24 -1259.28,-43.54z"/>
      <path class="fil2" d="M13055.98 3202.85c-208.3,-21.57 -284.95,-31.35 -389.95,-167.76 278.04,-240.63 732.07,10.82 861.25,22.81 -235.49,142.87 -132.25,180.09 -471.3,144.95zm598.39 -218.86c-288.6,-277.33 -1273.62,-266.25 -1130.62,134.92 75.67,212.41 1142.35,458.45 1130.62,-134.92z"/>
      <path class="fil2" d="M4315.64 14138.49c239.13,173.37 724.24,108.39 1015.98,55.85 139.34,-134.72 326.99,-626.8 409.89,-810.8 -219.12,134.33 -244.28,533.35 -409.89,743.28 -322.89,80.23 -683.32,29.13 -1015.98,11.67z"/>
      <path class="fil2" d="M-1226.02 14987.81c55.47,285.99 278.04,74.82 377.18,-21.58l72.21 80.04c193.71,206.28 -52.14,-33.44 83.1,87.53 24.97,22.29 140.72,105.26 175.53,132.57 -100.64,-181.06 -283.33,-436.62 -454.81,-525.71l-33.17 274.19 -220.04 -27.04z"/>
     </g>
     <g>
      <path class="fil3" d="M8105.35 6531.63l-47.91 195.27 369.62 183.74c-82.71,220.68 -214.63,279.86 -371.9,429.38 -260.32,-51.36 -569.25,-255.82 -883.41,-354.95 -1275.7,-402.47 -1497.76,-42.04 -1771.5,-535.43 -173.05,-312 -229.1,-608.82 -166.07,-967.36 353.26,24.51 1661.16,598.91 2018,791.45l33.05 -108.98c-127.69,-137 -777.17,-384.28 -977.46,-466.8 -219.84,-90.53 -873.89,-299.87 -1000.86,-400.38 781.73,-1474.75 3477.64,129.18 3180.05,1392.51 -157.67,25.22 -200.1,-91.9 -381.61,-158.45zm-2730.39 200.68c-252.56,83.23 -135.76,-1.37 -219.45,169.79 1837.14,-146.59 2324.27,477.87 2935.3,700.19 285.28,-464.84 323.8,-123.31 518.68,-688.07 339.31,-983.58 -686.31,-1891.04 -1413.82,-2172.67 -1597.02,-618.14 -2718.65,535.82 -1820.71,1990.76z"/>
      <path class="fil3" d="M11537.17 6126.17c166.33,125.66 85.57,35.45 73.13,343.15 227.59,-318.71 -217.57,-169.72 726.65,-560.26 217.3,-89.88 627.59,-310.63 844.5,-297.92 45.43,323.67 -82.65,679.66 -243.57,951.71 -161.9,273.68 -617.16,241.94 -923.55,322.24 -541.69,142.15 -1394.33,863 -1538.57,-104.94l253.47 -123.77c150.82,279.48 -26.65,150.1 227.08,236.92 -115.43,-148.34 -77.82,-57.68 -148.67,-242.85 -80.69,-210.85 -83.62,-21.9 6.91,-207l-343.29 140.78c-82.18,-191.42 133.55,-597.09 268.86,-791.44 643.49,-924.41 2122.09,-1119.02 2344.87,-392.43 -355.8,317.67 -1236.02,424.1 -1547.82,725.81zm-688.01 1502c135.83,-61.14 325.95,-213.85 478.14,-300.47 204.52,-116.34 316.56,-146.58 537.45,-227.01 519.85,-189.34 850.36,-154.53 1364.21,-260.32 -49.92,-134.32 -130.55,-132.63 -162.48,-211.82 251.84,-535.88 514.57,-1111.66 -14.99,-1546.26 -677.45,-556.08 -1396.55,-194.74 -1929.7,156.23 -10.03,6.65 -24.57,14.21 -34.67,20.86l-279.28 216.84c-495.67,378.22 -793.73,1310.51 -219.91,1853.18 36.11,34.15 144.04,113.08 152.19,122.14 7.17,7.95 16.81,20.66 23.4,29.2l85.64 147.43z"/>
      <path class="fil3" d="M18377.21 13244.91c193.32,-207 120.65,-391.38 278.24,-633.78l2964.38 14.08 -18.06 -286.58c-330.71,28.48 -2768.84,45.1 -2937.32,-13.82l-12.58 -1552.58c-6.58,-197.35 4.95,-196.31 -85.71,-350.06 -21.12,498.73 123.06,924.99 62.7,1497.37 -26.26,248.98 16.3,504.01 -64.91,698.31 -81.74,195.59 -136.68,408.2 -186.74,627.06z"/>
      <path class="fil3" d="M14299.69 6288.52l823.44 -108.45c-166.92,311.15 -457.87,452.33 -484.78,780.69 185.75,-66.16 668.45,-597.55 721.31,-920.76l-846.98 35.65c201.53,-286.84 220.69,-423.12 539.28,-660.82 1119.67,-835.31 768.04,129.18 874.8,337.48 279.09,-272.63 81.41,-701.69 -6.97,-764.13 -371.38,-136.68 -639.39,120.84 -948.59,295.9 -381.09,215.74 -408.13,525.2 -647.46,692.05l57.61 -1206.36c-133.15,64.07 -80.36,530.48 -86.94,693.35 -13.23,324.39 -22.16,508.32 5.28,825.4z"/>
      <path class="fil3" d="M8879.84 10048.77l-75.67 -500.69 356.71 124.23c-31.08,149.19 -159.61,318.06 -281.04,376.46zm-338.46 33.89l205.05 -20.53 89.55 198.4 456.24 -471.42c77.56,70.91 47.12,33.43 92.68,155.12l86.88 -196.97 367.99 -17.14 -92.29 260.12c-4.96,216.32 -3,102.65 56.63,159.03l111.07 -322.95c244.93,0.98 24.37,-79.71 227.98,81.73l-46.08 -125.46c133.94,-179.37 149.98,-120.58 365.13,-228.64 107.34,66.09 26.78,-30.18 52.92,125.07l107.35 -133.35 -99.07 -149.12c-407.16,135.5 -422.15,200.54 -889.21,192.33 -370.01,-6.58 -525.59,-132.44 -839.54,-219.84 14.47,538.23 -112.37,354.89 -253.28,713.62z"/>
      <path class="fil3" d="M18759.61 16526.24c82.71,456.43 439.09,1138.25 652.61,1573.76l2179.65 0 5.6 -83.04c-308.74,70.4 -1751.89,64.73 -2063.56,-3.32 -73.33,-77.82 -140.39,-201.79 -175.98,-317.35 -226.82,-736.23 -285.61,-247.08 -310.05,-1145.67l295.52 -217.11c168.09,-116.6 160.2,-128.98 197.81,-344.33l-128.14 4.83c-119.27,414.85 -245.07,240.89 -624.53,349.02l-28.93 183.21z"/>
      <path class="fil3" d="M9605.65 8132.44c-96.59,-235.81 -123.83,-340.42 -411.2,-384.35 -147.04,127.62 -203.94,197.36 -203.42,419.09 1.05,455.72 248.98,429.71 254.91,432.64 -55.99,-278.89 -142.08,-401.23 -45.43,-688.98 322.82,19.94 204.33,321.78 380.24,567.56 289.39,-183.21 129.51,-604.06 496,-726.98 160.92,405.14 -125.86,696.28 5.93,905.82 218.34,-130.81 247.02,-813.53 82.19,-1016.69 -369.1,-110.21 -427.56,273.29 -559.22,491.89z"/>
      <path class="fil3" d="M2790.89 6286.83l194.16 -156.56 -18.44 -946.1c-23.07,-196.25 -16.49,-136.61 -138.44,-219.06 173.37,176.3 93.21,839.54 97.18,1104.74 -164.57,-110.99 -257.05,-397.77 -411.59,-604.25 -125.14,-167.05 -338.92,-377.18 -534.77,-514.9 -737.87,-518.48 -1237.78,549.18 -841.24,715.64 19.23,-51.88 -10.23,-1192.08 851.6,-502.97 276.48,220.95 745.43,755.6 801.54,1123.46z"/>
      <path class="fil3" d="M9951.94 11485.2l-200.03 -66.48 -332.27 2.35 -175 -81.15c-28.22,-8.47 -94.51,-14.27 -124.82,-18.7l-126.24 -116.21c104.15,-277.79 401.55,-400.58 399.33,-806.83 -60.61,224.21 -175.71,435.51 -428.21,567.11l-49.79 -258.1c-86.95,141.43 -61.07,145.28 -73.91,329.47l-2.09 167.37 -276.54 -146.26 24.44 -196.57c-32.92,-75.93 51.23,-109.95 -72.54,-49.21 -123.58,-17.99 -171.03,1.76 -264.1,-157.79 -80.43,-137.85 -83.88,-153.62 -47.71,-316.18 -150.04,16.36 -135.89,5.41 -254.19,-68.69 87.53,332.66 412.24,803.5 697.39,985.8 341.01,217.88 933.53,438.57 1306.28,230.07z"/>
      <path class="fil3" d="M2826.61 7539.53l191.55 -81.93c75.74,-250.61 -12.18,-666.04 -26.59,-946.04l-200.68 -224.73c-343.41,-143.33 -659.98,-259.28 -1037.09,-305.68 33.5,186.34 450.83,1134.14 751.42,1122.67 -170.24,-348.24 -385.58,-567.56 -521.93,-943.76 296.55,87.79 699.02,176.76 922.51,352.87 28.87,258.88 184.84,748.16 4.17,944.6 -31.87,34.68 -20.66,9.98 -83.36,82z"/>
      <path class="fil3" d="M10567.14 9398.44c180.87,45.23 22.55,-58.73 173.57,97.43 39.69,-177.08 2.8,-115.75 160.92,-239l242.98 -286.71 9.19 69.74 101.09 -94.83c48.23,174.93 8.86,14.14 84.6,93.72l-103.24 -302.1c-285.41,23.14 -144.37,170.96 -504.34,465.5 -137.4,112.36 -37.48,-60.62 -164.77,196.25z"/>
      <path class="fil3" d="M7932.69 9094.91l111.72 -271.01 149.45 60.29 -43.8 -139.54c-232.75,26.26 -189.73,111.38 -217.37,350.26z"/>
      <path class="fil3" d="M9107.7 5414.5l-227.47 -267.42c77.76,150.23 55.73,163.2 227.47,267.42z"/>
     </g>
     <g>
      <path class="fil4" d="M3860.58 10677.07l515.54 558.83c284.37,187.25 -158.12,-61.98 336.9,311.42 128.92,97.24 220.1,207.32 276.35,356.77 141.05,428.02 1010.31,807.28 831.72,1322.7l171.88 -36.37 -24.25 185.11 137.52 -234.84 1163.54 -32.13 -104.81 486.81 101.49 -212.74c13.81,13.36 32.19,15.9 37.41,42.63 79.97,412.04 1309.79,295.96 1614.69,298.51l1417.01 10.75c319.3,38.19 -134.01,90.86 295.9,110.87 145.93,-195.53 153.36,-105.2 135.96,-388.98l-149.39 159.94c-637.1,-185.42 -2170.71,88.71 -3025.11,-96.78l-59.9 -605.56c-428.8,-203.09 -930.01,139.48 -1328.7,-266.7 -175.06,-178.33 -610.44,-557.98 -702.34,-783.23 -251.65,-89.43 -69.48,36.36 -240.63,-159.04 -50.91,-58.13 -107.29,-153.81 -111.46,-158.44 -155.18,-173.18 -177.86,-74.89 -259.47,-394.52l-96.85 -60.61c-389.69,-161.57 -483.02,-525.85 -824.09,-794.38 -361.21,-284.36 -588.75,-641.73 -780.5,-708.08 49.41,257.26 98.16,124.36 432.58,515.36 73.85,86.36 121.49,145.99 209.61,222.84 105.52,92.09 79.32,-17.73 123.51,119.33 88.64,275.25 -48.69,191.17 -94.11,230.53z"/>
      <path class="fil4" d="M4834.71 17682.09l-101.42 127.48 125.4 -80.88c5.02,-18.12 20.99,-20.08 31.48,-30.11 10.04,10.55 23.34,24.96 29.85,31.87l58.21 60.87c350.65,370.66 229.22,42.3 359.32,308.68l7142.2 0c52.54,-317.41 265.08,-309.72 2.74,-640.43 -110.28,-138.95 -221.67,-284.69 -336.44,-437.53 -207,-275.5 -335.73,-763.22 -586.79,-1009.65 64.53,424.88 448.42,987.62 696.55,1347.85 184.71,268.14 219.25,198.21 235.94,515.36 -1217.18,182.43 -5951.17,124.55 -7321.84,45.49 36.31,-400.45 339.44,-621.4 554.98,-959.66 161.32,-253.28 410.42,-728.94 568.87,-906.55l-416.35 21.31c-67.85,398.89 -913.65,1252.25 -1042.7,1605.9z"/>
      <path class="fil4" d="M7741.85 12630.56c-93.85,-245.53 -457.67,-477.56 -613.11,-731.03 -475.99,-776.25 -82.26,-1357.89 -473.12,-1572.98 -255.76,-140.71 -210.46,-140.91 -420.52,-300.59 -206.55,-156.95 -218.48,-8.61 -472.73,-195.92 -244.67,-180.22 -124.29,-187.39 -306.92,-401.3l-728.02 -170.24 -420.92 -447.89 -211.1 -9.06c62.05,195.4 344,484.32 525.84,571.79 592.46,284.76 60.03,-107.21 1074.7,583.07 239.46,162.88 57.03,125.21 284.5,258.76 207.13,121.62 536.47,225.05 720.53,379.72 26.46,473.51 90.99,857.98 230.08,1277.33 91.5,275.83 205.11,279.09 420.19,511.9 206.94,224.08 121.16,173.83 390.6,246.44z"/>
      <path class="fil4" d="M231.66 7079.7c70.59,210.07 94.18,135.18 395.49,332.93 569.97,374.11 357.37,453.89 737.02,567.43l-6.32 -254.13c393.47,69.55 408.14,49.73 527.48,225.51l1306.86 -14.86 -4.24 -200.28c-228.44,-42.11 -1458.27,302.22 -2098.76,-292.13 -477.88,-443.53 -158.12,-275.89 -433.75,-546.05 -42.43,407.55 -125.99,283.06 -423.78,181.58z"/>
      <path class="fil4" d="M15873.64 7163.85c146.52,-99.59 196.9,-181.19 287.82,-356.45 168.55,-324.78 -20.92,-302.56 290.3,-405.93l1221.22 -48.29c-24.77,173.82 -152.71,294.73 -294.54,377.5 -230.07,134.4 -358.08,61.66 -381.74,351.57 273.94,-2.48 992.06,-583.01 988.15,-859.82 -556.55,-53.38 -1047.39,57.16 -1613.71,74.89 -199.44,280.72 -223.1,525.59 -482.44,672.5l-15.06 194.03z"/>
      <path class="fil4" d="M12866.51 10867.72l-430.29 564.56c-53.58,136.48 -101.29,227.66 -231.06,347.91 -205.43,190.38 -142.02,56.84 -233,345.05 392.75,-91.18 331.81,-241.35 498.93,-516.53 169.46,-278.89 325.68,-32.52 459.95,-568.4 193.57,92.74 273.02,-286.07 388.39,-401.43l188.94 -197.09c149.39,-224.02 21.97,-69.35 230.01,-177.74l8.8 -204.85c-340.87,38.78 -342.31,472.73 -880.67,808.52z"/>
      <path class="fil4" d="M4095.41 8801.55l-43.15 -286.78c-245.91,-53.77 -139.35,8.86 -376.14,21.38 -152.51,-196.12 -282.28,-332.21 -310.3,-607l-173.63 7.43c-74.96,392.76 68.89,365.91 236.33,640.24 207.52,340.09 217.49,348.63 666.89,224.73z"/>
      <path class="fil4" d="M171.63 7091.57c-84.66,-212.87 -239.46,-199.12 -421.5,-349.48l-358.99 -374.57c-10.62,-16.88 -17.4,-38.72 -25.75,-53.71 -8.86,-16.03 -18.44,-38.52 -24.05,-58.98 308.81,-36.83 676.87,-49.47 985.74,23.92 99.59,231.05 30.37,243.43 230.4,360.36l-237.77 -436.88c-456.23,-87.21 -750.38,-71.5 -1213,11.8 35.45,182.29 554.98,594.21 726.72,716.35 190.64,135.64 -8.73,100.64 338.2,161.19z"/>
      <path class="fil4" d="M15910.73 7971.13c252.17,12.06 328.23,-182.3 527.08,-338.86 262.53,-206.67 490.59,-91.83 558.89,-550.02 -161.31,-23.14 -152.51,16.94 -288.47,156.22 -345.24,353.59 -736.24,406.12 -797.5,732.66z"/>
      <path class="fil4" d="M14641.93 9140.6c317.61,75.14 251.58,-148.15 431.67,-279.42 194.16,-141.56 69.21,22.03 225.77,-157.46 141.5,-162.23 -24.18,-46.67 203.94,-156.23l30.96 -207.4c-293.37,52.47 -299.49,175.2 -510.21,350.72 -177.08,147.5 -365.71,204.26 -382.13,449.79z"/>
      <path class="fil4" d="M3188.99 9589.01l-36.43 -167.24c-82.71,-155.38 -162.16,-128.33 -305.16,-260.97 -117.77,-109.24 -182.17,-229.55 -311.35,-303.4l-146.91 -20.14c57.68,191.69 196.84,292.45 344.07,438.12 91.31,90.34 98.35,101.55 202.77,184.13 177.15,140.13 66.67,102.71 253.01,129.5z"/>
      <path class="fil4" d="M13747.18 10059.2c286.72,-30.18 385.13,-286.78 494.76,-537.71 -204.07,35.13 -461.26,349.67 -494.76,537.71z"/>
      <path class="fil4" d="M14403.25 9230.21c-88.44,190.71 -4.17,12.71 -88.83,140.59 -98.94,149.39 -19.88,-3.78 -98.03,170.89 244.8,-12.84 424.89,-157.79 425.54,-401.09 -232.75,12.77 -58.99,-34.09 -238.68,89.61z"/>
     </g>
     <g>
      <path class="fil5" d="M14056.45 43.67l-8.22 841.95c-548.92,11.28 -2162.95,-368.31 -2469.61,-815.42l2477.83 -26.53zm-3028.05 -15.51c185.16,289.9 965.07,722.74 1314.81,850.1 379.46,138.17 1577.8,315.84 1720.67,393.14l-9.52 1098.89c-416.22,170.95 -2193.13,-169.4 -2692.32,-346.35 -1389.77,-492.61 -1317.55,-1262.61 -1570.7,-1557.8 -130.16,30.9 -703.13,916.65 -1002.03,1114.4 -492.02,325.56 -987.17,428.08 -1557.01,547.48 -1212.55,254.13 -2699.49,230.73 -3943.72,237.51l2.15 154.86c1188.24,-201.46 3927.82,125.79 5430.54,-721.31 506.29,-285.41 734.41,-850.76 1025.03,-1028.49 306.33,817.7 816.8,1144.83 1638.42,1400.12 749.34,232.82 1834.99,380.9 2643.11,363.04l-16.62 1493.59c-612.85,57.1 -2253.94,-162.29 -2670.03,77.24l2694.28 -16.62c87.53,-320.93 -0.26,-1101.62 23.59,-1439.17 22.69,-321.46 97.18,-203.68 86.36,-551.86l-64.13 -1048.43c1.43,-202.83 121.03,-826.51 -24.83,-1004.83l20.07 -43.67 -2567.51 0c-173.44,90.92 -299.68,69.54 -480.61,28.16z"/>
      <path class="fil5" d="M14977.07 11485.07c-202.05,-199.37 -387.8,-77.56 -647.27,-117.12 56.12,964.55 -780.3,2123.85 -870.96,2526.32 236.4,-17.34 66.48,73.58 374.7,-478.01 450.31,-805.97 454.94,-1185.96 627.78,-1786.36l83.11 -186.87 432.64 42.04z"/>
      <path class="fil5" d="M6969.18 15105.19c173.37,-475.6 617.95,-690.81 242.72,-1035.86 -88.18,96.34 -28.94,169.07 -27.18,185.11 8.54,75.86 48.56,46.01 16.36,187.9 -40.93,180.28 -362.71,201.72 -461.51,1028.49 187.38,-99.72 47.97,64.4 158.9,-160.66 6.91,-14.01 56.44,-165.74 70.71,-204.98z"/>
      <path class="fil5" d="M18109.21 15511.11c-31.09,-164.11 -96.86,-243.04 -20.93,-296.88 -80.1,-314.93 -78.27,-279.35 102.2,-516.92l-233.85 116.93 -36.31 -305.09c104.61,-79.84 -171.08,-90.21 183.09,-56.25 -196.64,-98.74 -32.85,-71.17 -245.26,-21.96 -62.7,355.53 -137.79,993.49 251.06,1080.17z"/>
      <path class="fil5" d="M12469.59 14797.1c7.62,302.68 119.92,389.37 422.99,389.43 -130.61,-245.52 -207.52,-94.64 -256.73,-342.31l669.95 -218.28c-180.21,-128.85 -649.42,11.74 -836.21,171.16z"/>
      <path class="fil5" d="M8598.21 15201.72l211.63 -16.1c-40.73,-164.83 17.67,19.75 -23.53,-88.51l-34.67 -83.17c-21.97,-57.42 -183.54,-296.49 111.32,-337.42l465.82 21.77c-296.62,-169.33 -730.83,-3.71 -983.13,-128.07 95.03,270.68 265.6,353.39 252.56,631.5z"/>
      <path class="fil5" d="M-1858.17 14580.97c100.11,-69.54 67.39,110.15 87.08,-120.12l108.06 -163.66 284.95 578.51c121.82,194.03 43.48,79.91 152.06,112.11 -78.67,-230.53 -91.96,-94.12 -236.01,-420.26 -94.96,-214.89 -56.7,-315.72 -214.56,-467.45 -126.38,138.63 -151.99,290.75 -181.58,480.87z"/>
      <path class="fil5" d="M12879.29 13850.93c55.07,54.81 27.83,43.86 102.26,86.62l796.79 367.79c-77.11,-201.46 -700.59,-537.91 -899.05,-454.41z"/>
      <path class="fil5" d="M12018.04 16332.93c-21.7,-250.67 -40.08,-351.24 28.48,-597.81l-218.08 51.88c-90.59,129.25 64.01,431.8 189.6,545.93z"/>
      <path class="fil5" d="M27.85 15229.03c83.62,-139.03 117.84,-136.42 -48.95,-206.09 -67.58,109.49 -44.97,107.93 48.95,206.09z"/>
     </g>
     <g>
      <path class="fil6" d="M11146.24 15759.5c31.28,169.52 44.97,203.61 25.87,401.42 208.89,95.88 105.59,-193.51 335.92,294.6 129.9,275.38 94.25,305.1 163.79,570.3 85.06,324.52 216.52,210.2 376.79,301.51 215.02,122.6 61,6.45 170.57,237.83 106.63,225.25 51.68,-57.36 96.13,177.54 -262.27,164.31 -4937.53,105.78 -5935.39,99.2 -707.56,-4.69 -455.13,-71.56 -759.51,-87.6 266.38,-887.18 292.78,-548.4 670.48,-1116.48 141.17,-212.41 -36.83,-175.19 127.55,-430.36 304.44,-98.61 512.16,-0.85 821.55,-120.9 313.7,-121.69 371.64,-241.03 648.84,-230.08 -105.39,-73.97 -47.58,-266.64 -20.47,-382.72 1221.48,64.2 562.67,79.06 977.72,382.27 583.46,426.19 810.74,-426.13 1008.61,-513.99 747.71,-46.6 952.11,466.8 1291.55,417.46zm-4852.48 295.38c-158.45,177.61 -407.55,653.27 -568.87,906.55 -215.54,338.26 -518.67,559.21 -554.98,959.66 1370.67,79.06 6104.66,136.94 7321.84,-45.49 -16.69,-317.15 -51.23,-247.22 -235.94,-515.36 -248.13,-360.23 -632.02,-922.97 -696.55,-1347.85 -54.1,-198.14 -208.82,-288.22 -413.02,-252.89 -37.42,-210.85 70.26,-46.73 -151.47,-186.67 -55.01,-34.74 -114.46,-61.85 -168.1,-102.39 -129.83,-98.09 -197.22,-165.16 -252.82,-314.54 -165.48,14.4 -333.31,16.03 -500.42,19.55 -187.78,3.91 -360.11,56.64 -361.48,-120.84 -121.16,45.3 -70.13,-6.65 -125.72,56.38 -144.69,174.93 -190.12,467.25 -391.78,680.9 -187.06,-125.72 -253.99,-441.44 -384.61,-606.27l-211.63 16.1c-204.72,-34.22 -307.04,-22.95 -511.44,-21.12 -136.68,1.24 -381.28,39.69 -361.73,-94.51 -106.17,164.38 94.05,-178.84 -49.6,106.83l-187.25 275.57c-58.14,101.67 -103.76,276.87 -133.16,397.18 -454.09,183.61 -558.96,172.46 -1061.27,189.21z"/>
      <path class="fil6" d="M15873.64 7163.85c-231.96,191.94 -324.32,330.77 -620.81,438.44 -350.84,127.36 -677.71,16.56 -1041.72,70 -125.4,162.36 -207.98,730.5 -402.14,1065.84 -6.58,11.4 -14.99,25.35 -22.03,36.76l-112.04 177.74c-306.26,761.65 -320.08,341.59 -611.55,433.36 -163.01,128.79 -203.68,233.53 -344.27,372.74 -234.05,231.84 -251.06,31.16 -510.07,209.61 -127.1,285.09 -56.7,885.62 -108.45,1242.47 -58.21,401.03 -276.68,561.17 -357.24,975.96 170.37,-4.76 123.71,33.76 228.84,-61.53 90.98,-288.21 27.57,-154.67 233,-345.05 129.77,-120.25 177.48,-211.43 231.06,-347.91l-173.24 7.43c-38,-1726.93 -16.43,-1285.09 471.62,-1492.94 302.61,-128.86 47.97,-18.64 271,-296.1 155.38,-193.18 593.83,105.59 963.12,-628.83 315.72,-627.91 20.46,215.54 217.75,-616.83l252.37 -609.86c258.95,-14.86 555.44,23.01 794.05,-44.45 582.48,-164.64 1171.62,-736.82 1218.87,-1349.23 -311.22,103.37 -121.75,81.15 -290.3,405.93 -90.92,175.26 -141.3,256.86 -287.82,356.45z"/>
      <path class="fil6" d="M171.63 7091.57l60.03 -11.87c297.79,101.48 381.35,225.97 423.78,-181.58 -113.47,-214.76 -105.13,-1.82 -97.96,-259.01 -200.03,-116.93 -130.81,-129.31 -230.4,-360.36 -308.87,-73.39 -676.93,-60.75 -985.74,-23.92 5.61,20.46 15.19,42.95 24.05,58.98 8.35,14.99 15.13,36.83 25.75,53.71l358.99 374.57c182.04,150.36 336.84,136.61 421.5,349.48z"/>
      <path class="fil6" d="M3188.99 9589.01c191.75,66.35 419.29,423.72 780.5,708.08 341.07,268.53 434.4,632.81 824.09,794.38 -19.29,-275.89 -180.08,-248.85 -332.01,-511.97 -136.15,-235.74 -133.94,-217.1 -384.74,-440.39 -238.42,-212.29 -90.59,18.7 -411.98,-356.91 -281.96,-329.6 -240.96,-331.23 -512.29,-360.43l36.43 167.24z"/>
      <path class="fil6" d="M1364.17 7980.06c193.32,23 104.35,33.56 244.94,207.06 96.39,118.89 159.29,147.11 276.41,228.25 202.25,140.2 296.17,353.33 503.62,421.89l146.91 20.14c-18.44,-289.77 -136.09,-136.28 -397.32,-476.7 -26.13,-34.09 -27.89,-52.79 -66.54,-98.55 -209.74,-248.45 -245.26,-21.05 -376.27,-276.41l189.41 -54.3c-119.34,-175.78 -134.01,-155.96 -527.48,-225.51l6.32 254.13z"/>
      <path class="fil6" d="M12866.51 10867.72c538.36,-335.79 539.8,-769.74 880.67,-808.52 33.5,-188.04 290.69,-502.58 494.76,-537.71l-25.55 20.2c78.15,-174.67 -0.91,-21.5 98.03,-170.89 84.66,-127.88 0.39,50.12 88.83,-140.59 -112.88,84.54 -416.02,278.37 -477.81,351.5l-96.59 127.88c-302.49,317.22 -827.55,742.62 -962.34,1158.13z"/>
      <path class="fil6" d="M18359.81 16341.46l2.8 -166.13 110.41 -60.42c-251.77,-131.07 -582.87,-226.43 -891.42,-439.42 -299.36,-206.61 -432.19,-335.34 -675.1,-589.53l-41.52 85.51c692.57,625.31 356.97,375.36 1122.67,865.55l372.16 304.44z"/>
      <path class="fil6" d="M5501.99 11864.08c-36.17,-163.27 -2.15,-101.03 -81.41,-258.63l-113.67 -162.09c-6.58,-10.1 -15.7,-23.73 -22.03,-33.96 -145.34,-235.81 -77.95,-220.82 -394.45,-257.32 81.61,319.63 104.29,221.34 259.47,394.52 4.17,4.63 60.55,100.31 111.46,158.44 171.15,195.4 -11.02,69.61 240.63,159.04z"/>
      <path class="fil6" d="M10385.04 13052.18c342.57,13.56 354.43,-88.64 397.38,233.92 184.58,-135.56 82.64,-39.95 185.43,-254.58 63.94,-133.35 99.78,-138.89 127.22,-274.72 -218.41,61.46 -581.83,152.26 -710.03,295.38z"/>
      <path class="fil6" d="M15528.27 8250.74c205.83,-51.69 279.22,-94.64 335.2,-303.01l-305.09 23.53 -30.11 279.48z"/>
     </g>
     <g>
      <path class="fil7" d="M19541.21 15989.18c-37.61,215.35 -29.72,227.73 -197.81,344.33l-295.52 217.11c24.44,898.59 83.23,409.44 310.05,1145.67 35.59,115.56 102.65,239.53 175.98,317.35 311.67,68.05 1754.82,73.72 2063.56,3.32l16.75 -2032.4 -2053.92 -40.22 -19.09 44.84z"/>
      <path class="fil7" d="M9384.9 9944.23l129.24 478.66c178.91,-44.59 39.76,51.03 174.48,-100.31 46.6,-52.34 78.93,-116.86 115.49,-173.31 -59.63,-56.38 -61.59,57.29 -56.63,-159.03l-176.89 211.63 -98.81 -454.61 -86.88 196.97z"/>
      <path class="fil7" d="M8514.27 10811.99c123.77,-60.74 39.62,-26.72 72.54,49.21 150.43,-131.79 30.11,-92.49 217.23,-160.27l36.96 335.73c12.84,-184.19 -13.04,-188.04 73.91,-329.47l-39.43 -227.8c-239.4,11.87 -118.5,-46.14 -248.13,158.64 -34.48,54.43 -84.08,121.23 -113.08,173.96z"/>
     </g>
     <g>
      <path class="fil8" d="M-2916.71 8718.64l-22.74 3608.39c313.95,15.64 813.86,77.95 1074.76,-20.99 56.45,-1049.15 47.65,-1871.29 436.3,-2845.62 269.44,-675.56 425.99,-629.61 447.83,-1181.27 21.57,-544.74 111.25,-1117.58 21.83,-1657.18 -149.45,-114.06 -350.65,-253.15 -533.47,-277.53 -234.51,261.36 -46.73,1727.06 -83.69,2196.27 -434.21,106.43 -985.54,-1.24 -1340.82,177.93z"/>
      <path class="fil8" d="M18651.87 10772.23l12.58 1552.58 1811.65 -56.96c-27.76,-430.24 -67.65,-865.29 -23.4,-1290.24 58.66,-562.94 -270.09,-120.78 -42.88,-1099.08 116.73,-502.58 0.58,-620.81 26.13,-1104.36 35.33,-668.58 32.01,-577.53 -94.57,-1133.49 -235.16,105.13 -231.57,511.64 -405.14,785.9 -80.82,127.82 -152.84,246.83 -209.54,393.35 -39.63,102.52 -48.43,168.35 -96.79,235.54 -50.84,70.59 -92.09,67.92 -136.22,139.87l-663.04 1618.15 -178.78 -41.26z"/>
      <path class="fil8" d="M-848.84 5411.11c-260.32,28.29 -147.5,46.67 -315.72,228.19 -179.95,194.16 13.1,93.79 -317.28,130.28l904.46 66.29c-82.77,-129.7 -183.41,-306.85 -271.46,-424.76z"/>
     </g>
     <g>
      <path class="fil9" d="M15969.39 14850.15l-440.4 217.82c-27.44,486.55 279.74,750.06 285.54,1251.53 -340.75,-15.58 -1499.27,-343.35 -1902.97,-457.67 -1360.7,-385.33 -1230.15,-467.78 -1865.04,-126.71 -68.56,246.57 -50.18,347.14 -28.48,597.81 46.41,246.1 522.91,957.25 691.79,1183.15l282.02 292.58c454.15,296.1 286.97,224.21 893.12,225.77 887.7,2.28 2372.56,36.44 3147.97,-19.09 -46.14,-194.3 -199.05,-538.1 -280.91,-731.09 -417.98,-985.93 -440.07,-2217.71 -612.79,-2514.07l-169.85 79.97z"/>
      <path class="fil9" d="M2435.61 16386.57c83.5,-197.95 68.37,-175.2 202.05,-372.82 113.93,-168.41 178.78,-194.81 137.2,-428.01 -528.13,187.25 -1697.53,-225.9 -2245.34,-338.46l-307.9 -64.53c-62.96,313.37 -405.01,1100.71 -560.26,1435.98 -226.75,489.67 -383.24,959.46 -598.91,1401.75l3127.19 12.97c251.06,-256.92 583.72,-1104.22 651.7,-1477.23l-473.57 72.74c-42.89,-346.02 -9,-164.31 67.84,-242.39z"/>
      <path class="fil9" d="M-1858.17 14580.97c-76.45,164.96 -158.38,453.37 -222.45,623.42 -83.23,221.01 -156.88,351.76 -233.53,573.42 -53.31,204.33 -121.42,331.62 -198.66,501.21 -86.75,190.71 -31.15,38.26 -84.07,267.69 -148.74,644.73 -228.12,637.36 -165.62,1488.96l1632.29 -9.91c235.55,-273.8 976.54,-2092.95 958.43,-2463.88l-346.22 -295.51c-34.81,-27.31 -150.56,-110.28 -175.53,-132.57 -135.24,-120.97 110.61,118.75 -83.1,-87.53l-72.21 -80.04c-99.14,96.4 -321.71,307.57 -377.18,21.58 -108.58,-32.2 -30.24,81.92 -152.06,-112.11l-284.95 -578.51 -108.06 163.66c-19.69,230.27 13.03,50.58 -87.08,120.12z"/>
      <path class="fil9" d="M3026.77 16588.81c-123.32,440.86 -530.93,1078.09 -604.26,1453.44 456.63,-11.79 906.55,-5.41 1364.15,-4.95 171.62,0.2 487.07,21.25 630.92,-34.15 165.35,-63.68 176.82,-198.86 417.13,-321.06 129.05,-353.65 974.85,-1207.01 1042.7,-1605.9l-719.16 -35.52 -119.02 -193.05c-451.87,49.53 -699.67,200.09 -1133.29,316.24 -276.68,74.1 -756.18,183.27 -879.17,424.95z"/>
      <path class="fil9" d="M18822.11 17651.84c-63.35,-361.27 -366.49,-906.41 -462.3,-1310.38l-372.16 -304.44c-765.7,-490.19 -430.1,-240.24 -1122.67,-865.55l41.52 -85.51c-134.46,-286.25 -204.14,-314.93 -189.21,-655.68 -201.4,66.16 -214.37,91.25 -362.45,248.39 51.43,805.07 446.14,2684.9 896.31,3328.06l1709.98 18.9 -139.02 -373.79z"/>
      <path class="fil9" d="M3687.79 13980.37c289.91,-16.82 245.13,-250.61 329.6,-545.21 73.19,-255.36 113.08,-432.71 161.77,-691.72 90.33,-480.74 288.93,-1023.99 196.96,-1507.54l-515.54 -558.83 -122.54 -71.89c-674.25,760.23 -1181.98,1784.55 -742.69,2763.05 168.16,374.5 391.13,385.13 692.44,612.14z"/>
      <path class="fil9" d="M4112.68 14128.78l202.96 9.71c332.66,17.46 693.09,68.56 1015.98,-11.67 165.61,-209.93 190.77,-608.95 409.89,-743.28l79.58 -156.75c178.59,-515.42 -690.67,-894.68 -831.72,-1322.7 -213.19,-105.45 -144.36,-169.72 -366.55,-296.42l-184.91 588.29c-41.52,220.42 -83.69,400.96 -130.61,618.65 -122.01,566.33 -337.42,1104.95 -194.62,1314.17z"/>
      <path class="fil9" d="M3279 809.11c-28.61,297.92 -122.14,1376.86 9.58,1556.42 -0.45,-303.33 -67.19,-917.11 43.93,-1159.95 1257.72,-147.24 3685.49,-4.76 4571.18,-1179.9l-619.25 -2.87c-357.43,697.13 -3279.69,904.92 -4005.44,786.3z"/>
      <path class="fil9" d="M11537.36 14765.94l140.98 98.55c471.03,-141.69 777.36,-1117.19 548.92,-1350.53 -343.55,-350.84 -803.83,789.55 -689.9,1251.98z"/>
      <path class="fil9" d="M12399.52 12198.89l597.74 603.54c244.15,-394 195.53,-1154.35 191.1,-1562.94 -261.3,156.55 -655.1,646.62 -788.84,959.4z"/>
      <path class="fil9" d="M8809.84 15185.62c130.62,164.83 197.55,480.55 384.61,606.27 201.66,-213.65 247.09,-505.97 391.78,-680.9 55.72,-208.96 122.07,-185.43 89.75,-400.25l-347.2 -12.45 -465.82 -21.77c-294.86,40.93 -133.29,280 -111.32,337.42l34.67 83.17c41.2,108.26 -17.2,-76.32 23.53,88.51z"/>
      <path class="fil9" d="M13351.43 11065.46l1105.14 31.03c-137.27,-340.94 -268.73,-484.66 -516.4,-736.57 -159.1,86.17 -572.25,461.91 -588.74,705.54z"/>
      <path class="fil9" d="M-654.03 7981.3c241.74,-68.9 557.98,-372.69 699.68,-586.79 -94.51,-170.83 -489.42,-463.67 -677.97,-501.86l-21.71 1088.65z"/>
      <path class="fil9" d="M8957.86 2908.06c211.11,334.55 1143.27,377.05 1188.56,-93.72 -455.19,-233.4 -794.89,-48.04 -1188.56,93.72z"/>
      <path class="fil9" d="M4943.36 3200.64c144.89,220.36 864.31,272.11 935.09,-102.13 -248.45,-133.62 -793.59,-151.6 -935.09,102.13z"/>
      <path class="fil9" d="M9119.82 11321.22c30.31,4.43 96.6,10.23 124.82,18.7l175 81.15c8.6,-207.72 100.37,-365.77 222.31,-535.43 99.4,129.25 89.1,370.07 109.96,533.08 13.62,-12.38 58.46,-42.23 68.3,-47.97 9.85,-5.73 58.34,-28.15 70.85,-37.08 154.27,-110.09 56.38,25.81 125.66,-170.64l-145.67 46.34c-95.68,-454.8 -56.38,-506.81 -235.16,-582.61 -150.16,172.91 -237.96,657.18 -516.07,694.46z"/>
      <path class="fil9" d="M12666.03 3035.09c105,136.41 181.65,146.19 389.95,167.76 339.05,35.14 235.81,-2.08 471.3,-144.95 -129.18,-11.99 -583.21,-263.44 -861.25,-22.81z"/>
     </g>
     <g>
      <path class="fil10" d="M11146.24 15759.5c-339.44,49.34 -543.84,-464.06 -1291.55,-417.46 -197.87,87.86 -425.15,940.18 -1008.61,513.99 -415.05,-303.21 243.76,-318.07 -977.72,-382.27 -27.11,116.08 -84.92,308.75 20.47,382.72 -277.2,-10.95 -335.14,108.39 -648.84,230.08 -309.39,120.05 -517.11,22.29 -821.55,120.9 -164.38,255.17 13.62,217.95 -127.55,430.36 -377.7,568.08 -404.1,229.3 -670.48,1116.48 304.38,16.04 51.95,82.91 759.51,87.6 997.86,6.58 5673.12,65.11 5935.39,-99.2 -44.45,-234.9 10.5,47.71 -96.13,-177.54 -109.57,-231.38 44.45,-115.23 -170.57,-237.83 -160.27,-91.31 -291.73,23.01 -376.79,-301.51 -69.54,-265.2 -33.89,-294.92 -163.79,-570.3 -230.33,-488.11 -127.03,-198.72 -335.92,-294.6 19.1,-197.81 5.41,-231.9 -25.87,-401.42z"/>
      <path class="fil10" d="M2536.05 8857.4c129.18,73.85 193.58,194.16 311.35,303.4 143,132.64 222.45,105.59 305.16,260.97 271.33,29.2 230.33,30.83 512.29,360.43 321.39,375.61 173.56,144.62 411.98,356.91 250.8,223.29 248.59,204.65 384.74,440.39 151.93,263.12 312.72,236.08 332.01,511.97l96.85 60.61c316.5,36.5 249.11,21.51 394.45,257.32 6.33,10.23 15.45,23.86 22.03,33.96l113.67 162.09c79.26,157.6 45.24,95.36 81.41,258.63 91.9,225.25 527.28,604.9 702.34,783.23 398.69,406.18 899.9,63.61 1328.7,266.7l59.9 605.56c854.4,185.49 2388.01,-88.64 3025.11,96.78l149.39 -159.94 14.99 -170.31c-42.95,-322.56 -54.81,-220.36 -397.38,-233.92 -462.04,70.2 -900.68,215.74 -1466.42,75.41 -341.26,-84.66 -758.85,-127.22 -1017.34,-357.69l-159.43 -139.34c-269.44,-72.61 -183.66,-22.36 -390.6,-246.44 -215.08,-232.81 -328.69,-236.07 -420.19,-511.9 -139.09,-419.35 -203.62,-803.82 -230.08,-1277.33 -184.06,-154.67 -513.4,-258.1 -720.53,-379.72 -227.47,-133.55 -45.04,-95.88 -284.5,-258.76 -1014.67,-690.28 -482.24,-298.31 -1074.7,-583.07 -181.84,-87.47 -463.79,-376.39 -525.84,-571.79 -449.4,123.9 -459.37,115.36 -666.89,-224.73 -167.44,-274.33 -311.29,-247.48 -236.33,-640.24l-1306.86 14.86 -189.41 54.3c131.01,255.36 166.53,27.96 376.27,276.41 38.65,45.76 40.41,64.46 66.54,98.55 261.23,340.42 378.88,186.93 397.32,476.7z"/>
      <path class="fil10" d="M16451.76 6401.47c-47.25,612.41 -636.39,1184.59 -1218.87,1349.23 -238.61,67.46 -535.1,29.59 -794.05,44.45l-252.37 609.86c-197.29,832.37 97.97,-11.08 -217.75,616.83 -369.29,734.42 -807.74,435.65 -963.12,628.83 -223.03,277.46 31.61,167.24 -271,296.1 -488.05,207.85 -509.62,-233.99 -471.62,1492.94l173.24 -7.43 430.29 -564.56c134.79,-415.51 659.85,-840.91 962.34,-1158.13l96.59 -127.88c61.79,-73.13 364.93,-266.96 477.81,-351.5 179.69,-123.7 5.93,-76.84 238.68,-89.61 16.42,-245.53 205.05,-302.29 382.13,-449.79 210.72,-175.52 216.84,-298.25 510.21,-350.72l-6 -89.35 30.11 -279.48 305.09 -23.53 47.26 23.4c61.26,-326.54 452.26,-379.07 797.5,-732.66 135.96,-139.28 127.16,-179.36 288.47,-156.22 23.66,-289.91 151.67,-217.17 381.74,-351.57 141.83,-82.77 269.77,-203.68 294.54,-377.5l-1221.22 48.29z"/>
     </g>
     <g>
      <path class="fil11" d="M-3000.98 16254.19c314.67,-281.89 693.42,-1243.25 847.62,-1713.3 101.81,-310.05 210.53,-694.4 309.27,-1030.77 128.79,-438.84 -61.98,-832.12 -20.6,-1204.08 -260.9,98.94 -760.81,36.63 -1074.76,20.99l22.74 -3608.39c88.06,-325.69 41.72,1.04 222.52,-302.16 34.67,-58.2 97.24,-235.03 157.72,-338.07l747.26 -1239.34c270.87,-416.35 -65.38,-446.33 238.15,-538.95 -190.31,-178.91 -472.46,-170.76 -543.96,-409.63l521.61 3.06c-160.79,-414 -281.11,-5581.35 -145.54,-5847.67 -392.69,-7.23 -908.89,-54.48 -1282.03,39.76l0 16168.55z"/>
      <path class="fil11" d="M14459.3 1329.87l689.9 12.06 -47.84 657.11 -694 1.89 51.94 -671.06zm122.47 2936.67c-372.61,70.85 -88.51,42.5 -196.18,-66.67l21.83 -1995.2c67.72,-34.54 45.43,-26.72 144.44,-42.82l700.26 -17.86c35.97,-274.72 61.33,-660.57 -4.57,-923.49l-798.67 -44.38c-36.76,-388.59 -60.75,-695.7 54.35,-1046.55 319.7,-101.67 5656.18,-102.72 5973.46,-4.3l-25.29 7688.33c392.76,34.28 87.01,-63.81 392.63,-141.24 255.75,205.04 513.65,485.3 769.93,644.47 -21.9,-1367.09 10.36,-2709.99 -3.32,-4067.76 -13.43,-1336.45 83.1,-2879.57 -9.98,-4185.78 -994.86,-49.02 -6439.92,-91.06 -7228.37,-11.41l-40.73 4330.55 250.21 -115.89z"/>
      <path class="fil11" d="M18377.21 13244.91l-2.15 205.11c11.34,261.36 -11.53,380.96 44.32,622.77 931.77,203.02 675.43,240.89 646.82,959.14l-367.21 37.8c268.01,185.43 257.78,40.28 373.86,224.47 278.89,442.62 390.73,161.05 487.45,650.14l2053.92 40.22 5.61 -3359.35 -2964.38 -14.08c-157.59,242.4 -84.92,426.78 -278.24,633.78z"/>
      <path class="fil11" d="M9804.11 10149.27c-36.56,56.45 -68.89,120.97 -115.49,173.31 -134.72,151.34 4.43,55.72 -174.48,100.31l-129.24 -478.66c-45.56,-121.69 -15.12,-84.21 -92.68,-155.12l-456.24 471.42 -89.55 -198.4 -205.05 20.53c-53.05,164.05 -156.03,234.38 -338.92,255.36 -36.17,162.56 -32.72,178.33 47.71,316.18 93.07,159.55 140.52,139.8 264.1,157.79 29,-52.73 78.6,-119.53 113.08,-173.96 129.63,-204.78 8.73,-146.77 248.13,-158.64l39.43 227.8 49.79 258.1c252.5,-131.6 367.6,-342.9 428.21,-567.11 2.22,406.25 -295.18,529.04 -399.33,806.83l126.24 116.21c278.11,-37.28 365.91,-521.55 516.07,-694.46 178.78,75.8 139.48,127.81 235.16,582.61l145.67 -46.34c196.57,-387.15 246.96,-555.76 239.01,-1007.3 161.37,-114.98 35.65,106.17 154.27,-130.29l-120.58 -7.37c-71.24,-186.21 -38,-145.67 -192.34,-235.48l46.08 125.46c-203.61,-161.44 16.95,-80.75 -227.98,-81.73l-111.07 322.95z"/>
      <path class="fil11" d="M149.08 5909.39c182.1,-73.65 106.89,-16.95 124.49,-278.96 8.67,-128.2 -1.63,-218.6 19.29,-355.67 32.78,-214.04 130.35,-367.6 192.14,-555.7l-136.22 7.24 -34.08 -4655.71 2526.18 -4.37c-17.27,742.1 5.09,1504.48 5.67,2253.36l24.9 1600.22c27.64,345.7 116.28,457.74 -139.02,480.81l178.71 110.8 -57.68 -4446.56c-151.21,-41.32 -369.68,-59.57 -621.59,-64.85l-362.32 0c-639.45,10.56 -1376.47,66.74 -1788.97,43.54l68.5 5865.85z"/>
     </g>
     <g>
      <path class="fil12" d="M3288.58 2365.53c1244.23,-6.78 2731.17,16.62 3943.72,-237.51 569.84,-119.4 1064.99,-221.92 1557.01,-547.48 298.9,-197.75 871.87,-1083.5 1002.03,-1114.4 253.15,295.19 180.93,1065.19 1570.7,1557.8 499.19,176.95 2276.1,517.3 2692.32,346.35l9.52 -1098.89c-142.87,-77.3 -1341.21,-254.97 -1720.67,-393.14 -349.74,-127.36 -1129.65,-560.2 -1314.81,-850.1l-3124.71 -2.48c-885.69,1175.14 -3313.46,1032.66 -4571.18,1179.9 -111.12,242.84 -44.38,856.62 -43.93,1159.95z"/>
      <path class="fil12" d="M12469.59 14797.1c186.79,-159.42 656,-300.01 836.21,-171.16l-669.95 218.28c49.21,247.67 126.12,96.79 256.73,342.31 -303.07,-0.06 -415.37,-86.75 -422.99,-389.43zm409.7 -946.17c198.46,-83.5 821.94,252.95 899.05,454.41l-796.79 -367.79c-74.43,-42.76 -47.19,-31.81 -102.26,-86.62zm208.82 -384.29c-129.11,251.39 -90.79,251.78 -351.43,216.46 -13.56,-258.82 -37.35,-97.38 61.66,-230.01 47.45,-672.24 -450.5,-1261.89 -1132.97,-880.74 -449.85,251.19 -774.89,913.13 -786.88,1411.34l520.57 -26.13c155.44,-202.77 246.69,-474.1 477.94,-625.38 270.03,-176.63 548.59,61.79 590.76,349.61 76.13,520.5 -293.03,1421.77 -898.66,1322.11 -385.91,-228.18 -229.55,-517.3 -194.94,-905.43 -249.17,-35 -467.06,-54.82 -635.21,89.42 -46.74,68.05 -191.88,975.76 409.83,1290.96 727.37,381.02 879.43,-295.97 1397.45,-231.25 585.55,73.06 2043.75,596.96 2907.41,689.12l-740.86 -2243.26c-127.42,98.94 -257,368.31 -307.83,539.21l-174.16 263.77 -14.99 85.18c-154.99,127.82 -35.06,100.44 -255.16,76.85 -36.24,-217.37 -30.51,-171.29 83.42,-310.64l490.72 -924.27 104.87 -170.63c179.95,-570.43 554.98,-1098.95 569.84,-1723.15l-232.42 -44.71 -432.64 -42.04 -83.11 186.87c-172.84,600.4 -177.47,980.39 -627.78,1786.36 -308.22,551.59 -138.3,460.67 -374.7,478.01 90.66,-402.47 927.08,-1561.77 870.96,-2526.32l-800.44 30.05c-24.24,424.49 -58.85,707.56 -145.93,1118.5 -106.43,502.44 -270.81,815.36 -295.32,950.14z"/>
      <path class="fil12" d="M7211.9 14069.33c375.23,345.05 -69.35,560.26 -242.72,1035.86 -14.27,39.24 -63.8,190.97 -70.71,204.98 -110.93,225.06 28.48,60.94 -158.9,160.66 98.8,-826.77 420.58,-848.21 461.51,-1028.49 32.2,-141.89 -7.82,-112.04 -16.36,-187.9 -1.76,-16.04 -61,-88.77 27.18,-185.11zm-1243.18 -693.8l-441.9 990.62c-615.79,173.5 -1069.03,-35.85 -1550.88,14.4l-990.17 1612.15 -101.41 165.23c62.37,52.79 11.21,29.39 140.97,40.93 500.3,-32.46 2033.46,-787.67 2421.06,-749.34l-89.49 356.52c434.21,81.21 1374.45,-0.33 1845.55,-39.89 97.96,-152.65 435.64,-960.97 455.91,-1096.41l55.08 -153.03 -186.93 -61.2 -42.36 -89.3c603.79,-139.08 1759.31,145.61 2442.3,102.33l40.87 -234.18 119.14 -251.97c-93.72,-98.74 14.54,-23.27 -118.43,-94.57 -15.7,-8.41 -114.05,-42.56 -124.68,-47.13 -353.13,26.33 -3134.81,-37.8 -3283.28,-108.78 163.66,-192.27 347.07,-65.11 604.9,-136.54l104.81 -486.81 -1163.54 32.13 -137.52 234.84z"/>
      <path class="fil12" d="M3279 809.11c725.75,118.62 3648.01,-89.17 4005.44,-786.3l-4004.79 25.29 -0.65 761.01z"/>
      <path class="fil12" d="M14056.45 43.67l-2477.83 26.53c306.66,447.11 1920.69,826.7 2469.61,815.42l8.22 -841.95z"/>
      <path class="fil12" d="M10330.29 14068.36l10.75 8.6 -80.75 202.37c-86.17,176.11 -130.55,324.91 -264.62,431.28 -217.82,172.85 -141.11,99.65 -283.72,344 1.37,177.48 173.7,124.75 361.48,120.84 167.11,-3.52 334.94,-5.15 500.42,-19.55 -44.71,-447.64 -132.44,-501.34 -56.96,-1009.4 -25.22,-178.52 69.48,-45.1 -59.51,-139.74l-127.09 61.6z"/>
      <path class="fil12" d="M7725.04 15086.09c-19.55,134.2 225.05,95.75 361.73,94.51 204.4,-1.83 306.72,-13.1 511.44,21.12 13.04,-278.11 -157.53,-360.82 -252.56,-631.5l-312.65 -21.58 -184.78 268.47c-44.12,87.6 -84.2,176.04 -123.18,268.98z"/>
      <path class="fil12" d="M8231.27 9757.17c153.75,-29.98 287.04,-173.31 374.37,-320.87 -79.9,-136.87 -154.79,-233.72 -319.1,-245.71l-55.27 566.58z"/>
      <path class="fil12" d="M10901.63 9256.87c-88.64,140.33 -121.56,81.6 -108.72,232.75 21.64,253.99 70.85,146.19 150.76,210.52l77.82 -197.88 132.31 -462.36 -9.19 -69.74 -242.98 286.71z"/>
      <path class="fil12" d="M9419.64 11421.07l332.27 -2.35c-20.86,-163.01 -10.56,-403.83 -109.96,-533.08 -121.94,169.66 -213.71,327.71 -222.31,535.43z"/>
      <path class="fil12" d="M10097.08 9782.59c154.34,89.81 121.1,49.27 192.34,235.48l120.58 7.37 105.13 -346.42c-26.14,-155.25 54.42,-58.98 -52.92,-125.07 -215.15,108.06 -231.19,49.27 -365.13,228.64z"/>
      <path class="fil12" d="M8879.84 10048.77c121.43,-58.4 249.96,-227.27 281.04,-376.46l-356.71 -124.23 75.67 500.69z"/>
      <polygon class="fil12" points="9747.48,9990.24 9839.77,9730.12 9471.78,9747.26 9570.59,10201.87 "/>
      <path class="fil12" d="M8586.81 10861.2l-24.44 196.57 276.54 146.26 2.09 -167.37 -36.96 -335.73c-187.12,67.78 -66.8,28.48 -217.23,160.27z"/>
      <path class="fil12" d="M10255.99 11302.84c218.92,-34.55 176.04,-30.64 297.01,-153.04l-14.02 -365.97c-161.96,100.83 -109.95,28.55 -191.23,248 -33.04,89.36 -68.69,179.37 -91.76,271.01z"/>
     </g>
     <g>
      <path class="fil13" d="M4776.9 3145.43c237.76,-377.7 1321.78,-377.83 1259.28,43.54 -40.54,273.35 -431.67,308.29 -649.62,306.2 -328.43,-3.13 -538.75,-22.74 -609.66,-349.74zm8877.47 -161.44c11.73,593.37 -1054.95,347.33 -1130.62,134.92 -143,-401.17 842.02,-412.25 1130.62,-134.92zm-4797.93 117.91c-35.13,-399.99 175,-466.87 559.35,-509.95 250.48,-28.02 774.5,-71.89 863.07,189.86 209.35,618.4 -1068.83,552.38 -1422.42,320.09zm-5565.71 -581.51l15.58 1629.48 8034.87 -45.29c416.09,-239.53 2057.18,-20.14 2670.03,-77.24l16.62 -1493.59c-808.12,17.86 -1893.77,-130.22 -2643.11,-363.04 -821.62,-255.29 -1332.09,-582.42 -1638.42,-1400.12 -290.62,177.73 -518.74,743.08 -1025.03,1028.49 -1502.72,847.1 -4242.3,519.85 -5430.54,721.31z"/>
      <path class="fil13" d="M18190.48 14697.31c-180.47,237.57 -182.3,201.99 -102.2,516.92 147.04,95.22 353.2,255.36 408.01,432.77l-387.08 -135.89c-388.85,-86.68 -313.76,-724.64 -251.06,-1080.17 212.41,-49.21 48.62,-76.78 245.26,21.96l228.7 107.09 -141.63 137.32zm-1473.19 -267.03c-14.93,340.75 54.75,369.43 189.21,655.68 242.91,254.19 375.74,382.92 675.1,589.53 308.55,212.99 639.65,308.35 891.42,439.42 385.33,41.26 515.23,123.77 874.81,-12.58l0.58 -109.24c-123.9,-508.18 -346.61,-351.1 -975.56,-983.58 182.17,-276.02 300.07,-116.47 593.37,-386.04 -113.67,-411.79 -488.5,-351.76 -859.56,-470.19 -423.25,-51.1 -496.32,-94.64 -932.41,20.27 -301.9,58.99 -323.8,9.78 -456.96,256.73z"/>
      <path class="fil13" d="M13088.11 13466.64c-13.23,8.8 -32.91,6.59 -39.1,26.99l-200.42 146.38c-87.99,-137.52 -38.91,29.66 -50.25,-186.92 -99.01,132.63 -75.22,-28.81 -61.66,230.01 260.64,35.32 222.32,34.93 351.43,-216.46z"/>
      <path class="fil13" d="M10740.71 9495.87c74.75,269.64 8.79,248.59 225.83,277.33l54.95 -270.94 -77.82 197.88c-79.91,-64.33 -129.12,43.47 -150.76,-210.52 -12.84,-151.15 20.08,-92.42 108.72,-232.75 -158.12,123.25 -121.23,61.92 -160.92,239z"/>
      <path class="fil13" d="M9967.32 14234.36c158.18,-138.96 160.92,-158.64 183.99,-388.84l-307.96 -4.83c10.63,4.57 108.98,38.72 124.68,47.13 132.97,71.3 24.71,-4.17 118.43,94.57l-119.14 251.97z"/>
      <path class="fil13" d="M14215.8 14581.62l-228.44 62.51 56.7 -296.3c-113.93,139.35 -119.66,93.27 -83.42,310.64 220.1,23.59 100.17,50.97 255.16,-76.85z"/>
      <path class="fil13" d="M10935.06 10581.53l26.27 45.88c-15.25,250.15 -19.1,78.34 50.32,133.16 143.52,-263.64 63.61,-132.96 -76.59,-179.04z"/>
     </g>
     <g>
      <path class="fil14" d="M7932.69 9094.91c27.64,-238.88 -15.38,-324 217.37,-350.26l43.8 139.54c234.63,172.52 308.67,325.75 600.8,484.85 313.95,87.4 469.53,213.26 839.54,219.84 467.06,8.21 482.05,-56.83 889.21,-192.33l43.73 1.89c127.29,-256.87 27.37,-83.89 164.77,-196.25 359.97,-294.54 218.93,-442.36 504.34,-465.5l103.24 302.1c76.38,556.09 180.47,1026.34 -86.75,1541.3 -47.19,167.05 -2.68,98.68 -118.56,240.57 -31.74,38.84 -46.41,56.25 -84.41,87.66 -77.16,63.68 -21.44,18.45 -120.05,76.65 -120.77,277.52 -622.24,477.16 -977.78,500.23 -372.75,208.5 -965.27,-12.19 -1306.28,-230.07 -285.15,-182.3 -609.86,-653.14 -697.39,-985.8 -42.23,-385.65 -97.9,-776.91 -15.58,-1174.42zm1672.96 -962.47c131.66,-218.6 190.12,-602.1 559.22,-491.89 164.83,203.16 136.15,885.88 -82.19,1016.69 -131.79,-209.54 154.99,-500.68 -5.93,-905.82 -366.49,122.92 -206.61,543.77 -496,726.98 -175.91,-245.78 -57.42,-547.62 -380.24,-567.56 -96.65,287.75 -10.56,410.09 45.43,688.98 -5.93,-2.93 -253.86,23.08 -254.91,-432.64 -0.52,-221.73 56.38,-291.47 203.42,-419.09 287.37,43.93 314.61,148.54 411.2,384.35zm-4230.69 -1400.13c-897.94,-1454.94 223.69,-2608.9 1820.71,-1990.76 727.51,281.63 1753.13,1189.09 1413.82,2172.67 -194.88,564.76 -233.4,223.23 -518.68,688.07 -611.03,-222.32 -1098.16,-846.78 -2935.3,-700.19 83.69,-171.16 -33.11,-86.56 219.45,-169.79zm5388.56 748.43c-6.59,-8.54 -16.23,-21.25 -23.4,-29.2 -8.15,-9.06 -116.08,-87.99 -152.19,-122.14 -573.82,-542.67 -275.76,-1474.96 219.91,-1853.18l279.28 -216.84c10.1,-6.65 24.64,-14.21 34.67,-20.86 533.15,-350.97 1252.25,-712.31 1929.7,-156.23 529.56,434.6 266.83,1010.38 14.99,1546.26 31.93,79.19 112.56,77.5 162.48,211.82 -513.85,105.79 -844.36,70.98 -1364.21,260.32 -220.89,80.43 -332.93,110.67 -537.45,227.01 -152.19,86.62 -342.31,239.33 -478.14,300.47l-85.64 -147.43zm-1655.82 -2066.24c-171.74,-104.22 -149.71,-117.19 -227.47,-267.42 -219.12,-138.11 -460.47,-467.06 -646.68,-647.34 -417.85,-404.68 -420.78,-295.05 -1025.69,-299.22 -623.28,-4.24 -2044.79,-49.15 -2593.58,58.53 -239.92,153.16 -1526.05,3194.05 1581.12,3991.69 823.19,211.3 1207.47,-51.36 1926.24,-170.83 -105.98,342.31 -479.57,445.03 -806.76,1243.44 -235.87,575.64 -345.7,1142.49 -252.04,1769.88 410.23,2747.92 5985.06,2445.3 4677.87,-1665.01 -83.55,-262.79 -530.21,-1341.27 -538.88,-1458.33 534.65,-46.86 1725.75,515.87 2202.52,-889.53 258.49,-762.18 212.22,-2204.15 -102,-2912.76 -255.17,-60.09 -1817.85,-49.47 -1998.91,24.12 -275.5,111.91 -1637.89,1855.91 -1667.55,1871.94l-528.19 -649.16z"/>
      <path class="fil14" d="M2826.61 7539.53c62.7,-72.02 51.49,-47.32 83.36,-82 180.67,-196.44 24.7,-685.72 -4.17,-944.6 -223.49,-176.11 -625.96,-265.08 -922.51,-352.87 136.35,376.2 351.69,595.52 521.93,943.76 -300.59,11.47 -717.92,-936.33 -751.42,-1122.67 377.11,46.4 693.68,162.35 1037.09,305.68 -56.11,-367.86 -525.06,-902.51 -801.54,-1123.46 -861.83,-689.11 -832.37,451.09 -851.6,502.97 -396.54,-166.46 103.37,-1234.12 841.24,-715.64 195.85,137.72 409.63,347.85 534.77,514.9 154.54,206.48 247.02,493.26 411.59,604.25 -3.97,-265.2 76.19,-928.44 -97.18,-1104.74 -996.81,-782.26 -2231.26,-744.78 -2161.19,829.83 22.22,500.03 254.71,1062.51 616.83,1399.67 538.1,501.02 899.9,378.55 1542.8,344.92z"/>
      <path class="fil14" d="M14381.35 4769.77l-57.61 1206.36c239.33,-166.85 266.37,-476.31 647.46,-692.05 309.2,-175.06 577.21,-432.58 948.59,-295.9 88.38,62.44 286.06,491.5 6.97,764.13 -106.76,-208.3 244.87,-1172.79 -874.8,-337.48 -318.59,237.7 -337.75,373.98 -539.28,660.82l846.98 -35.65c-52.86,323.21 -535.56,854.6 -721.31,920.76 26.91,-328.36 317.86,-469.54 484.78,-780.69l-823.44 108.45 -62.51 960.97c204.4,157.79 499.84,203.35 743.21,149.58 610.12,-134.79 1025.23,-969.83 1135.64,-1558.96 362.39,-1933.8 -1499.13,-1553.3 -1734.68,-1070.34z"/>
      <path class="fil14" d="M7285.23 6164.75l820.12 366.88c181.51,66.55 223.94,183.67 381.61,158.45 297.59,-1263.33 -2398.32,-2867.26 -3180.05,-1392.51 126.97,100.51 781.02,309.85 1000.86,400.38 200.29,82.52 849.77,329.8 977.46,466.8z"/>
      <path class="fil14" d="M10814.55 6443.45l722.62 -317.28c311.8,-301.71 1192.02,-408.14 1547.82,-725.81 -222.78,-726.59 -1701.38,-531.98 -2344.87,392.43 -135.31,194.35 -351.04,600.02 -268.86,791.44l343.29 -140.78z"/>
     </g>
     <g>
      <path class="fil15" d="M14581.77 4266.54c509.29,-251.58 1086.24,-320.8 1531.79,77.89 519.52,464.9 445.35,960.96 425.02,1615.8l2181.46 -31.09c-83.68,351.3 -562.8,535.36 -765.76,786.88 -674.19,835.63 767.72,2221.81 611.88,3706.15 90.66,153.75 79.13,152.71 85.71,350.06l178.78 41.26 663.04 -1618.15c44.13,-71.95 85.38,-69.28 136.22,-139.87 48.36,-67.19 57.16,-133.02 96.79,-235.54 56.7,-146.52 128.72,-265.53 209.54,-393.35 173.57,-274.26 169.98,-680.77 405.14,-785.9 126.58,555.96 129.9,464.91 94.57,1133.49 -25.55,483.55 90.6,601.78 -26.13,1104.36 -227.21,978.3 101.54,536.14 42.88,1099.08 -44.25,424.95 -4.36,860 23.4,1290.24l-1811.65 56.96c168.48,58.92 2606.61,42.3 2937.32,13.82l14.67 -2074.91c-4.44,-394.97 99.78,-595.65 37.47,-976.28 -51.68,-315.46 -41.97,-648.97 -39.95,-970.61 -256.28,-159.17 -514.18,-439.43 -769.93,-644.47 -305.62,77.43 0.13,175.52 -392.63,141.24l25.29 -7688.33c-317.28,-98.42 -5653.76,-97.37 -5973.46,4.3 -115.1,350.85 -91.11,657.96 -54.35,1046.55l798.67 44.38c65.9,262.92 40.54,648.77 4.57,923.49l-700.26 17.86c-99.01,16.1 -76.72,8.28 -144.44,42.82l-21.83 1995.2c107.67,109.17 -176.43,137.52 196.18,66.67z"/>
      <path class="fil15" d="M-848.84 5411.11c88.05,117.91 188.69,295.06 271.46,424.76l-904.46 -66.29c330.38,-36.49 137.33,63.88 317.28,-130.28 168.22,-181.52 55.4,-199.9 315.72,-228.19zm-724.57 482.44l1722.49 15.84 -68.5 -5865.85 -1799.53 2.34c-135.57,266.32 -15.25,5433.67 145.54,5847.67z"/>
      <path class="fil15" d="M485 4719.06c258.49,-328.03 438.12,-600.99 926.62,-651.05 475.4,-48.75 920.95,132.77 1320.81,332.6 255.3,-23.07 166.66,-135.11 139.02,-480.81l-24.9 -1600.22c-0.58,-748.88 -22.94,-1511.26 -5.67,-2253.36l-2526.18 4.37 34.08 4655.71 136.22 -7.24z"/>
      <path class="fil15" d="M8057.44 6726.9c-131,282.54 -268.46,377.83 -600.8,321.65 -249.69,-213.45 -255.56,-432.32 -204.46,-774.82 -356.84,-192.54 -1664.74,-766.94 -2018,-791.45 -63.03,358.54 -6.98,655.36 166.07,967.36 273.74,493.39 495.8,132.96 1771.5,535.43 314.16,99.13 623.09,303.59 883.41,354.95 157.27,-149.52 289.19,-208.7 371.9,-429.38l-369.62 -183.74z"/>
      <path class="fil15" d="M11610.3 6469.32c-5.35,363.69 -309.53,515.1 -653.99,423.98 -253.73,-86.82 -76.26,42.56 -227.08,-236.92l-253.47 123.77c144.24,967.94 996.88,247.09 1538.57,104.94 306.39,-80.3 761.65,-48.56 923.55,-322.24 160.92,-272.05 289,-628.04 243.57,-951.71 -216.91,-12.71 -627.2,208.04 -844.5,297.92 -944.22,390.54 -499.06,241.55 -726.65,560.26z"/>
      <path class="fil15" d="M-2916.71 8718.64c355.28,-179.17 906.61,-71.5 1340.82,-177.93 36.96,-469.21 -150.82,-1934.91 83.69,-2196.27 0,-80.16 19.09,-64.72 -58.86,-44.32 -303.53,92.62 32.72,122.6 -238.15,538.95l-747.26 1239.34c-60.48,103.04 -123.05,279.87 -157.72,338.07 -180.8,303.2 -134.46,-23.53 -222.52,302.16z"/>
      <polygon class="fil15" points="14407.36,2000.93 15101.36,1999.04 15149.2,1341.93 14459.3,1329.87 "/>
     </g>
     <g>
      <g>
       <path class="fil16" d="M-21.1 15022.94c166.79,69.67 132.57,67.06 48.95,206.09 -93.92,-98.16 -116.53,-96.6 -48.95,-206.09zm11558.46 -257c-113.93,-462.43 346.35,-1602.82 689.9,-1251.98 228.44,233.34 -77.89,1208.84 -548.92,1350.53l-140.98 -98.55zm862.16 -2567.05c133.74,-312.78 527.54,-802.85 788.84,-959.4 4.43,408.59 53.05,1168.94 -191.1,1562.94l-597.74 -603.54zm2240.13 1054.04l-104.87 170.63 -490.72 924.27 -56.7 296.3 228.44 -62.51 14.99 -85.18 174.16 -263.77c50.83,-170.9 180.41,-440.27 307.83,-539.21l740.86 2243.26c-863.66,-92.16 -2321.86,-616.06 -2907.41,-689.12 -518.02,-64.72 -670.08,612.27 -1397.45,231.25 -601.71,-315.2 -456.57,-1222.91 -409.83,-1290.96 168.15,-144.24 386.04,-124.42 635.21,-89.42 -34.61,388.13 -190.97,677.25 194.94,905.43 605.63,99.66 974.79,-801.61 898.66,-1322.11 -42.17,-287.82 -320.73,-526.24 -590.76,-349.61 -231.25,151.28 -322.5,422.61 -477.94,625.38l-520.57 26.13c11.99,-498.21 337.03,-1160.15 786.88,-1411.34 682.47,-381.15 1180.42,208.5 1132.97,880.74 11.34,216.58 -37.74,49.4 50.25,186.92l200.42 -146.38c6.19,-20.4 25.87,-18.19 39.1,-26.99 24.51,-134.78 188.89,-447.7 295.32,-950.14 87.08,-410.94 121.69,-694.01 145.93,-1118.5l800.44 -30.05c259.47,39.56 445.22,-82.25 647.27,117.12l232.42 44.71c-14.86,624.2 -389.89,1152.72 -569.84,1723.15zm-1288.22 -2187.47c16.49,-243.63 429.64,-619.37 588.74,-705.54 247.67,251.91 379.13,395.63 516.4,736.57l-1105.14 -31.03zm-13983.75 -4172.81c188.55,38.19 583.46,331.03 677.97,501.86 -141.7,214.1 -457.94,517.89 -699.68,586.79l21.71 -1088.65zm17629.02 189.6c-68.3,458.19 -296.36,343.35 -558.89,550.02 -198.85,156.56 -274.91,350.92 -527.08,338.86l-47.26 -23.4c-55.98,208.37 -129.37,251.32 -335.2,303.01l6 89.35 -30.96 207.4c-228.12,109.56 -62.44,-6 -203.94,156.23 -156.56,179.49 -31.61,15.9 -225.77,157.46 -180.09,131.27 -114.06,354.56 -431.67,279.42 -0.65,243.3 -180.74,388.25 -425.54,401.09l25.55 -20.2c-109.63,250.93 -208.04,507.53 -494.76,537.71l-8.8 204.85c-208.04,108.39 -80.62,-46.28 -230.01,177.74l-188.94 197.09c-115.37,115.36 -194.82,494.17 -388.39,401.43 -134.27,535.88 -290.49,289.51 -459.95,568.4 -167.12,275.18 -106.18,425.35 -498.93,516.53 -105.13,95.29 -58.47,56.77 -228.84,61.53 80.56,-414.79 299.03,-574.93 357.24,-975.96 51.75,-356.85 -18.65,-957.38 108.45,-1242.47 259.01,-178.45 276.02,22.23 510.07,-209.61 140.59,-139.21 181.26,-243.95 344.27,-372.74 291.47,-91.77 305.29,328.29 611.55,-433.36l112.04 -177.74c7.04,-11.41 15.45,-25.36 22.03,-36.76 194.16,-335.34 276.74,-903.48 402.14,-1065.84 364.01,-53.44 690.88,57.36 1041.72,-70 296.49,-107.67 388.85,-246.5 620.81,-438.44l15.06 -194.03c259.34,-146.91 283,-391.78 482.44,-672.5 566.32,-17.73 1057.16,-128.27 1613.71,-74.89 3.91,276.81 -714.21,857.34 -988.15,859.82zm-8116.47 -1935.17l227.47 267.42 528.19 649.16c29.66,-16.03 1392.05,-1760.03 1667.55,-1871.94 181.06,-73.59 1743.74,-84.21 1998.91,-24.12 314.22,708.61 360.49,2150.58 102,2912.76 -476.77,1405.4 -1667.87,842.67 -2202.52,889.53 8.67,117.06 455.33,1195.54 538.88,1458.33 1307.19,4110.31 -4267.64,4412.93 -4677.87,1665.01 -93.66,-627.39 16.17,-1194.24 252.04,-1769.88 327.19,-798.41 700.78,-901.13 806.76,-1243.44 -718.77,119.47 -1103.05,382.13 -1926.24,170.83 -3107.17,-797.64 -1821.04,-3838.53 -1581.12,-3991.69 548.79,-107.68 1970.3,-62.77 2593.58,-58.53 604.91,4.17 607.84,-105.46 1025.69,299.22 186.21,180.28 427.56,509.23 646.68,647.34zm-8322.75 1492.03c-7.17,257.19 -15.51,44.25 97.96,259.01 275.63,270.16 -44.13,102.52 433.75,546.05 640.49,594.35 1870.32,250.02 2098.76,292.13l4.24 200.28 173.63 -7.43c28.02,274.79 157.79,410.88 310.3,607 236.79,-12.52 130.23,-75.15 376.14,-21.38l43.15 286.78 211.1 9.06 420.92 447.89 728.02 170.24c182.63,213.91 62.25,221.08 306.92,401.3 254.25,187.31 266.18,38.97 472.73,195.92 210.06,159.68 164.76,159.88 420.52,300.59 390.86,215.09 -2.87,796.73 473.12,1572.98 155.44,253.47 519.26,485.5 613.11,731.03l159.43 139.34c258.49,230.47 676.08,273.03 1017.34,357.69 565.74,140.33 1004.38,-5.21 1466.42,-75.41 128.2,-143.12 491.62,-233.92 710.03,-295.38 -27.44,135.83 -63.28,141.37 -127.22,274.72 -102.79,214.63 -0.85,119.02 -185.43,254.58l-14.99 170.31c17.4,283.78 9.97,193.45 -135.96,388.98 -429.91,-20.01 23.4,-72.68 -295.9,-110.87l-1417.01 -10.75c-304.9,-2.55 -1534.72,113.53 -1614.69,-298.51 -5.22,-26.73 -23.6,-29.27 -37.41,-42.63l-101.49 212.74c-257.83,71.43 -441.24,-55.73 -604.9,136.54 148.47,70.98 2930.15,135.11 3283.28,108.78l307.96 4.83c-23.07,230.2 -25.81,249.88 -183.99,388.84l-40.87 234.18c-682.99,43.28 -1838.51,-241.41 -2442.3,-102.33l42.36 89.3 265.01 70.06 -133.16 144.17c-20.27,135.44 -357.95,943.76 -455.91,1096.41 -471.1,39.56 -1411.34,121.1 -1845.55,39.89l89.49 -356.52c-387.6,-38.33 -1920.76,716.88 -2421.06,749.34 -134.46,106.37 -43.73,108.32 -222.51,25.87 74.24,-178.19 45.75,-131.52 182.95,-232.03l990.17 -1612.15c481.85,-50.25 935.09,159.1 1550.88,-14.4l441.9 -990.62 24.25 -185.11 -171.88 36.37 -79.58 156.75c-82.9,184 -270.55,676.08 -409.89,810.8 -291.74,52.54 -776.85,117.52 -1015.98,-55.85l-202.96 -9.71c-210.65,-69.42 -45.95,-34.03 -187.91,-77.5 -151.86,-46.6 -25.81,35.98 -236.98,-70.91 -301.31,-227.01 -524.28,-237.64 -692.44,-612.14 -439.29,-978.5 68.44,-2002.82 742.69,-2763.05l122.54 71.89c45.42,-39.36 182.75,44.72 94.11,-230.53 -44.19,-137.06 -17.99,-27.24 -123.51,-119.33 -88.12,-76.85 -135.76,-136.48 -209.61,-222.84 -334.42,-391 -383.17,-258.1 -432.58,-515.36 -186.34,-26.79 -75.86,10.63 -253.01,-129.5 -104.42,-82.58 -111.46,-93.79 -202.77,-184.13 -147.23,-145.67 -286.39,-246.43 -344.07,-438.12 -207.45,-68.56 -301.37,-281.69 -503.62,-421.89 -117.12,-81.14 -180.02,-109.36 -276.41,-228.25 -140.59,-173.5 -51.62,-184.06 -244.94,-207.06 -379.65,-113.54 -167.05,-193.32 -737.02,-567.43 -301.31,-197.75 -324.9,-122.86 -395.49,-332.93l-60.03 11.87c-346.93,-60.55 -147.56,-25.55 -338.2,-161.19 -171.74,-122.14 -691.27,-534.06 -726.72,-716.35 462.62,-83.3 756.77,-99.01 1213,-11.8l237.77 436.88zm2270.69 -1674c121.95,82.45 115.37,22.81 138.44,219.06l18.44 946.1 -194.16 156.56 200.68 224.73c14.41,280 102.33,695.43 26.59,946.04l-191.55 81.93c-642.9,33.63 -1004.7,156.1 -1542.8,-344.92 -362.12,-337.16 -594.61,-899.64 -616.83,-1399.67 -70.07,-1574.61 1164.38,-1612.09 2161.19,-829.83zm11471.52 1323.41c-27.44,-317.08 -18.51,-501.01 -5.28,-825.4 6.58,-162.87 -46.21,-629.28 86.94,-693.35 235.55,-482.96 2097.07,-863.46 1734.68,1070.34 -110.41,589.13 -525.52,1424.17 -1135.64,1558.96 -243.37,53.77 -538.81,8.21 -743.21,-149.58l62.51 -960.97zm-16018.64 -6242.64l1799.53 -2.34c412.5,23.2 1149.46,-32.98 1788.97,-43.54l-3588.5 45.88zm3950.82 -45.88c251.91,5.21 470.38,23.53 621.59,64.85l57.68 4446.56 -178.71 -110.8c-399.86,-199.83 -845.41,-381.35 -1320.81,-332.6 -488.5,50.06 -668.13,323.02 -926.62,651.05 -61.79,188.1 -159.36,341.66 -192.14,555.7 -20.92,137.07 -10.62,227.47 -19.29,355.67 -17.6,262.01 57.61,205.31 -124.49,278.96l-1722.49 -15.84 -521.61 -3.06c71.5,238.87 353.65,230.72 543.96,409.63 77.95,-20.4 58.86,-35.84 58.86,44.32 182.82,24.38 384.02,163.47 533.47,277.53 89.42,539.6 -0.26,1112.44 -21.83,1657.18 -21.84,551.66 -178.39,505.71 -447.83,1181.27 -388.65,974.33 -379.85,1796.47 -436.3,2845.62 -41.38,371.96 149.39,765.24 20.6,1204.08 -98.74,336.37 -207.46,720.72 -309.27,1030.77 -154.2,470.05 -532.95,1431.41 -847.62,1713.3l0 752.01c190.12,-190.9 315.13,-592.39 475.79,-913.19 20.21,-40.28 51.16,-107.8 72.22,-143.13 71.63,-120.38 66.41,-101.61 138.82,-172.07 76.65,-221.66 150.3,-352.41 233.53,-573.42 64.07,-170.05 146,-458.46 222.45,-623.42 29.59,-190.12 55.2,-342.24 181.58,-480.87 157.86,151.73 119.6,252.56 214.56,467.45 144.05,326.14 157.34,189.73 236.01,420.26l220.04 27.04 33.17 -274.19c171.48,89.09 354.17,344.65 454.81,525.71l346.22 295.51 80.29 57.88c6.91,4.89 41,23.59 53.71,36.89 129.51,-160.4 95.81,-302.62 231.7,-529.1 210.72,7.1 204.53,-11.28 335.6,119.73 547.81,112.56 1717.21,525.71 2245.34,338.46 41.58,233.2 -23.27,259.6 -137.2,428.01 -133.68,197.62 -118.55,174.87 -202.05,372.82l-19.03 177.8 437.86 -88.51c3.59,6.19 150.56,-61.79 58.01,210.13 50.31,-196.31 -11.6,-9.65 114.32,-97.18 122.99,-241.68 602.49,-350.85 879.17,-424.95 433.62,-116.15 681.42,-266.71 1133.29,-316.24l119.02 193.05 719.16 35.52 416.35 -21.31c502.31,-16.75 607.18,-5.6 1061.27,-189.21 29.4,-120.31 75.02,-295.51 133.16,-397.18l187.25 -275.57c143.65,-285.67 -56.57,57.55 49.6,-106.83 38.98,-92.94 79.06,-181.38 123.18,-268.98l184.78 -268.47 312.65 21.58c252.3,124.36 686.51,-41.26 983.13,128.07l347.2 12.45c32.32,214.82 -34.03,191.29 -89.75,400.25 55.59,-63.03 4.56,-11.08 125.72,-56.38 142.61,-244.35 65.9,-171.15 283.72,-344 134.07,-106.37 178.45,-255.17 264.62,-431.28l80.75 -202.37 -10.75 -8.6c123.96,-124.88 32.85,-84.41 238.09,-85.91 34.41,251.78 -7.17,110.02 -51.49,164.05 -75.48,508.06 12.25,561.76 56.96,1009.4 55.6,149.38 122.99,216.45 252.82,314.54 53.64,40.54 113.09,67.65 168.1,102.39 221.73,139.94 114.05,-24.18 151.47,186.67 204.2,-35.33 358.92,54.75 413.02,252.89 251.06,246.43 379.79,734.15 586.79,1009.65 114.77,152.84 226.16,298.58 336.44,437.53 262.34,330.71 49.8,323.02 -2.74,640.43l631.18 0c-59.84,-253.6 -7.76,-63.87 -119.08,-291.34l-282.02 -292.58c-168.88,-225.9 -645.38,-937.05 -691.79,-1183.15 -125.59,-114.13 -280.19,-416.68 -189.6,-545.93l218.08 -51.88c634.89,-341.07 504.34,-258.62 1865.04,126.71 403.7,114.32 1562.22,442.09 1902.97,457.67 -5.8,-501.47 -312.98,-764.98 -285.54,-1251.53l440.4 -217.82c161.57,-177.73 133.02,-73.97 282.41,-169 34.67,-22.1 188.42,-191.62 227.27,-224.86 119.53,-102.39 404.81,-368.12 496.19,-421.5 78.99,145.34 27.9,78.8 198.99,138.76 436.09,-114.91 509.16,-71.37 932.41,-20.27 332.08,23.92 81.74,25.55 178.59,-74.95 -11.93,-203.94 -83.1,-512.16 89.81,-628.31l2.15 -205.11c50.06,-218.86 105,-431.47 186.74,-627.06 81.21,-194.3 38.65,-449.33 64.91,-698.31 60.36,-572.38 -83.82,-998.64 -62.7,-1497.37 155.84,-1484.34 -1286.07,-2870.52 -611.88,-3706.15 202.96,-251.52 682.08,-435.58 765.76,-786.88l-2181.46 31.09c20.33,-654.84 94.5,-1150.9 -425.02,-1615.8 -445.55,-398.69 -1022.5,-329.47 -1531.79,-77.89l-250.21 115.89 40.73 -4330.55c788.45,-79.65 6233.51,-37.61 7228.37,11.41 93.08,1306.21 -3.45,2849.33 9.98,4185.78 13.68,1357.77 -18.58,2700.67 3.32,4067.76 -2.02,321.64 -11.73,655.15 39.95,970.61 62.31,380.63 -41.91,581.31 -37.47,976.28l-14.67 2074.91 18.06 286.58 -5.61 3359.35 -16.75 2032.4 -5.6 83.04 129.11 0 0 -18100 -7644.46 0 -20.07 43.67c145.86,178.32 26.26,802 24.83,1004.83l64.13 1048.43c10.82,348.18 -63.67,230.4 -86.36,551.86 -23.85,337.55 63.94,1118.24 -23.59,1439.17l-2694.28 16.62 -8034.87 45.29 -15.58 -1629.48 -2.15 -154.86c-131.72,-179.56 -38.19,-1258.5 -9.58,-1556.42l0.65 -761.01 4004.79 -25.29 619.25 2.87 3124.71 2.48c180.93,41.38 307.17,62.76 480.61,-28.16l-14509.99 0 0 85.64c373.14,-94.24 889.34,-46.99 1282.03,-39.76l3950.82 -45.88z"/>
      </g>
      <path class="fil16" d="M10255.99 11302.84c23.07,-91.64 58.72,-181.65 91.76,-271.01 81.28,-219.45 29.27,-147.17 191.23,-248l14.02 365.97c-120.97,122.4 -78.09,118.49 -297.01,153.04zm897.81 -2262.94l-132.31 462.36 -54.95 270.94c-217.04,-28.74 -151.08,-7.69 -225.83,-277.33 -151.02,-156.16 7.3,-52.2 -173.57,-97.43l-43.73 -1.89 99.07 149.12 -107.35 133.35 -105.13 346.42c-118.62,236.46 7.1,15.31 -154.27,130.29 7.95,451.54 -42.44,620.15 -239.01,1007.3 -69.28,196.45 28.61,60.55 -125.66,170.64 -12.51,8.93 -61,31.35 -70.85,37.08 -9.84,5.74 -54.68,35.59 -68.3,47.97l200.03 66.48c355.54,-23.07 857.01,-222.71 977.78,-500.23l31.61 -357.56 -26.27 -45.88c84.28,-130.55 -196.05,-96.47 80.43,-96.47l174.54 212.09c0,-142.8 -45.68,-128.92 62.71,-117.06 267.22,-514.96 163.13,-985.21 86.75,-1541.3 -75.74,-79.58 -36.37,81.21 -84.6,-93.72l-101.09 94.83z"/>
      <path class="fil16" d="M8286.54 9190.59c164.31,11.99 239.2,108.84 319.1,245.71 -87.33,147.56 -220.62,290.89 -374.37,320.87l55.27 -566.58zm-353.85 -95.68c-82.32,397.51 -26.65,788.77 15.58,1174.42 118.3,74.1 104.15,85.05 254.19,68.69 182.89,-20.98 285.87,-91.31 338.92,-255.36 140.91,-358.73 267.75,-175.39 253.28,-713.62 -292.13,-159.1 -366.17,-312.33 -600.8,-484.85l-149.45 -60.29 -111.72 271.01z"/>
      <path class="fil16" d="M18359.81 16341.46c95.81,403.97 398.95,949.11 462.3,1310.38 181.06,115.95 237.77,280.79 180.35,448.16l409.76 0c-213.52,-435.51 -569.9,-1117.33 -652.61,-1573.76 -141.89,-262.92 46.14,-321.32 -397,-350.91l-2.8 166.13z"/>
      <path class="fil16" d="M8057.44 6726.9l47.91 -195.27 -820.12 -366.88 -33.05 108.98c-51.1,342.5 -45.23,561.37 204.46,774.82 332.34,56.18 469.8,-39.11 600.8,-321.65z"/>
      <path class="fil16" d="M10814.55 6443.45c-90.53,185.1 -87.6,-3.85 -6.91,207 70.85,185.17 33.24,94.51 148.67,242.85 344.46,91.12 648.64,-60.29 653.99,-423.98 12.44,-307.7 93.2,-217.49 -73.13,-343.15l-722.62 317.28z"/>
      <path class="fil16" d="M4733.29 17809.57l-190.18 290.43 794.44 0c-130.1,-266.38 -8.67,61.98 -359.32,-308.68l-58.21 -60.87c-6.51,-6.91 -19.81,-21.32 -29.85,-31.87 -10.49,10.03 -26.46,11.99 -31.48,30.11l-125.4 80.88z"/>
      <path class="fil16" d="M18190.48 14697.31l141.63 -137.32 -228.7 -107.09c-354.17,-33.96 -78.48,-23.59 -183.09,56.25l36.31 305.09 233.85 -116.93z"/>
      <path class="fil16" d="M18109.21 15511.11l387.08 135.89c-54.81,-177.41 -260.97,-337.55 -408.01,-432.77 -75.93,53.84 -10.16,132.77 20.93,296.88z"/>
     </g>
    </g>
   </g>
  </g>
  <polygon class="fil17" points="-0,0 18100,0 18100,18100 -0,18100 "/>
 </g>
</svg>
