<?xml version="1.0" encoding="UTF-8"?>
<!DOCTYPE svg PUBLIC "-//W3C//DTD SVG 1.1//EN" "http://www.w3.org/Graphics/SVG/1.1/DTD/svg11.dtd">
<!-- Creator: CorelDRAW 2017 -->
<svg xmlns="http://www.w3.org/2000/svg" xml:space="preserve" width="200mm" height="200mm" version="1.1" style="shape-rendering:geometricPrecision; text-rendering:geometricPrecision; image-rendering:optimizeQuality; fill-rule:evenodd; clip-rule:evenodd"
viewBox="0 0 20000 20000"
 xmlns:xlink="http://www.w3.org/1999/xlink">
 <defs>
  <style type="text/css">
   <![CDATA[
    .fil1 {fill:#356EBA}
    .fil0 {fill:#356FBC}
   ]]>
  </style>
 </defs>
 <g id="Capa_x0020_1">
  <metadata id="CorelCorpID_0Corel-Layer"/>
  <g id="_2850304506640">
   <path class="fil0" d="M17140.47 14052.57l46.91 145.58 -203.32 20.64 59.74 -167.55 45.09 -483.11c-372.04,-324.58 28.57,150.44 -518.08,-526.42l250.24 -201.68c164.15,168.94 93,168.36 296.18,376.68 22.51,-310.65 -66.05,-111.25 -120.46,-413.1 120.28,-296.86 434.49,-390.64 747.5,-368.98 340.41,189.57 321.59,393.09 354.37,763.12 14.76,166.58 -7.32,367.27 35.9,517.87 50.91,177.39 168.67,212.92 227.36,401.43 -296.67,178.93 -112.86,-20.29 -373.98,76.25l-126.34 -315.72 -162.47 249.96 -108.68 -108.51 -102 157.48c-164.26,-155.52 -113.93,-115.46 -347.96,-123.94zm-323.9 -3197.55c-341.27,102.37 -884.82,454.87 -1140.66,41.11l-72.94 161.48c-241.02,-24.79 1.51,-24.11 -216,29.89l-51.18 -121.69c-28.3,-59.11 -16.25,-49.47 -80.67,-138.15l-123.91 150.33c199.08,308.19 588.77,431.24 1016.78,603.2 -528.42,111.58 -711.7,39.32 -1176.2,67.25l55.55 885.7 736.5 -18.98 48.83 -266.16 500.34 -13.87c-4.23,224.55 -257.99,975.45 -335.78,1251.87 -93.04,330.64 -400.25,974.96 -440.8,1203.27 668.65,499.74 1059.66,235.53 1334.17,214.06 106.49,-188.66 11.66,-148.33 79.04,-383.69l189.43 68.5 84.99 -115.52 83.68 -134.53 112.62 88.36 69.42 -47.94c145.07,183.05 79.77,137.94 307.88,121.27 27.59,-101.96 -9.36,-120.15 179.87,-147.28 30.09,171.65 92.74,325.99 22.73,462.84l50.35 171.46c983.25,171.74 830.52,108.89 1699.39,-129.74l0 -38.58c-231.68,-206.2 -1430.84,-2199.76 -1515.41,-2509.57l1280.51 -40.32 -17.95 -774.8c-526.61,-68.16 -1082.88,16.86 -1596.17,7.38 -237.03,-4.37 -415.89,-90.29 -646.05,-118.77 -340.78,-42.16 -485.49,35.72 -773.01,45.03 291.56,-496.06 854.54,-8.42 785.31,-875l-66.76 140.23 -232.94 -41.21c-29.26,107.8 -39.6,186.52 -96.36,284.11 -73.98,13.64 -43.51,87.01 -54.6,-81.54z"/>
   <path class="fil0" d="M9481.1 12307.67c151.62,140.54 567.59,972.95 643.39,1207.2l-1059.4 -77.48 416.01 -1129.72zm-2476.76 -406.72l48.25 626.62 730.43 -11.98 52.99 -263.72 507.14 -18.49c-45.05,606.19 -754.51,2284.67 -773.35,2476.78 256.59,155.23 570.48,300.29 870.15,312.1l442.67 -1082.71 1512.25 9.86c197.07,355.5 409.54,868.88 674.15,1150.56l691.84 -241.46c-38.66,-97.83 -1487.9,-2239.87 -1495.46,-2564.33l1275.59 -22.36 -10.72 -758.38c-320.03,-90.36 -782.25,-30.36 -1122.62,-24.51 -780.86,26.88 -2810.66,-96.46 -3421.4,126.21l18.09 285.81z"/>
   <path class="fil0" d="M2488.52 12906.27c296.67,-325.52 278.46,-708.62 582.23,-842.17 335.26,315.98 70.69,610.37 -77.45,818.25 -349.82,490.9 -470.29,86.16 -676.5,516.07 151.21,198.58 177.17,123.72 313.87,279.94 9.98,331.05 -75.25,136.18 -230.39,387.16 179.52,289.95 319.29,153.98 332.84,590.35l-321.3 56.43c-262.93,-234.7 -113.9,-184.78 -641.45,-172.05 -132.31,242.14 -177.4,236.72 -473.1,147.32 -4.72,-360 94.96,-335.64 290.37,-570.3 -187.86,-115.87 -245.22,-87.04 -273.78,-356.06l292.64 -203.13c-345.8,-246.45 -417.63,153 -816.11,-152.2 -173.34,-132.77 -314.76,-514.25 -290.08,-731.72 328.76,1.17 366.74,390.72 785.04,514.39 120.16,-766.07 766.8,-951.03 1203.17,-282.28zm-2238.52 849.4l0 453.25c156.47,275.89 268.08,576.62 548.14,765.25 283.2,190.77 748.54,221.04 1081.32,223.03 982.54,5.85 1319.61,-39.03 1645.2,-911.49 2.04,-760.2 246.2,-2193.74 -444.67,-2628.26 -502.52,-316.06 -2063.61,-115.83 -2571.86,161.16 -232.52,470.64 -211.77,1873.22 -258.13,1937.06z"/>
   <path class="fil0" d="M13307.76 11576.21c-247.62,-78.64 -137.34,-92.67 -315.84,9.33l-189.89 133.9c-173.58,-106.73 -203.14,-300.72 -65.83,-364.82 -261.69,-268.17 -614.06,-120.81 -965.33,-147.98l36.6 578.3c204.19,2.89 143.6,-28.41 293.33,39.43l208.8 3133.21c245.96,36.75 631.62,29.42 821,-82.24 139.58,-274.5 33.98,-1437.47 73,-1851.17l717.78 1465.75 720.18 24.3c71.42,-432.78 175.93,-2140.85 125.54,-2519.91 -225.8,-86.61 -686.01,-142.8 -925.23,-97.14l-12.63 1274.9c-314.84,-442.14 -345.86,-1165.88 -661.46,-1494.84l139.98 -101.02z"/>
   <path class="fil0" d="M3998.18 12460.93c158.7,94.83 96.8,227.64 92.92,453.9 -5.88,343.02 -9.19,1337.11 74.57,1570.83 249.66,52.22 529.66,10.43 787.24,-14.52 78.97,-320.34 -56.76,-713.01 81.03,-1014.22 1186.23,-277.23 347.73,1036.06 747.16,1421.24 176.54,98.06 543.1,111.86 750.36,82.23l287.44 -3748.27 -376.43 7.34c-221.97,84.06 -480.31,53.79 -674.39,196.07 -77.85,375.07 13.5,1174.33 -113.85,1457.87 -171.22,55.11 -409.61,61.53 -587.46,-2.09l-25.55 -969.73c-306.41,-65.79 -995.88,-32.54 -1296.91,6.12l15.24 514.87 238.63 38.36z"/>
   <path class="fil1" d="M13922.01 9593.34c31.3,152.07 35.49,112.98 61.5,235.17 38.24,179.72 -38.37,34.03 56.58,226.57 482.93,-48.67 307.65,-548.69 779.46,-662.44 -37.8,222.56 -223.15,366.88 -324.26,604.76 -125.53,295.32 -243.61,1063.12 -726.17,1111.95 -178.44,18.04 -600.18,-62.58 -732.29,-170.56 -88.33,-597.73 -77.65,-920.48 361.71,-1335 305.53,-288.23 822.18,-638.42 1262.72,-488.01 -312.61,216.88 -482.83,96.9 -739.25,477.56zm-1711.31 -1023.09c190.68,-222.49 314.32,-181.04 531.29,-383.34 624.91,-582.61 1662.61,300.33 1779.49,533.18 -636.85,234.21 -958.33,502.89 -1261.45,578.15 -239,59.34 -599.87,110.47 -744.61,-120.73 -280.55,-448.18 -344.03,-164.44 -304.72,-607.26zm3523.29 -384.56c-12.66,-1494.62 2635.38,-1463.13 1748.17,-206.03 86.66,216.16 102.36,105.09 110.86,378.6 -363.93,439.83 -1300.58,299.01 -1788.17,143.06 443.03,-371.43 696.19,-138.41 943.33,-481.35l-200.7 -337.19c-443.16,12.73 -554.1,250.91 -813.49,502.91zm-871.99 -1896.79c504.97,-635.45 929.17,-21.22 947.91,323.17 15.77,289.74 -73.64,455.17 -201.75,696.59 -111.32,209.8 -104.23,485.65 -213.42,654.25 -392.28,-180.16 -118.43,-650.08 -315.11,-964.3 -598.38,-3.76 58.92,748.93 99.06,958.25 -737.95,-146.92 -1492.24,-1872.79 -316.69,-1667.96zm-2059.59 5123.84c-137.31,64.1 -102.02,78.39 -7.84,232.27l165.09 -121.48c178.49,-102.01 75.66,-115.27 323.28,-36.63 629.03,34.02 1010.48,82.17 1267.61,-623.28 130.97,-359.29 131.25,-1215.21 520.92,-1356.74 -53.17,486.38 -384.56,588.4 59.74,1471.11l123.91 -150.33c64.42,88.68 52.37,79.04 80.67,138.15l51.18 121.69c217.51,-54 -25.02,-54.68 216,-29.89l72.94 -161.48c-491.86,-260.97 -734.93,-925.2 -326.33,-1345.21 140.55,215.46 27.29,320.23 190.79,577.56l243.92 10.16c140.88,-143.93 92.28,-41.97 134.43,-235.15l307.79 -135.89c112.86,-368.5 -109.55,-325.59 -329.9,-543.79 360.23,-124.43 817.79,146.25 1021.51,440.32 243.44,351.42 -5.59,437.97 -101.55,1190.89 11.09,168.55 -19.38,95.18 54.6,81.54 56.76,-97.59 67.1,-176.31 96.36,-284.11l232.94 41.21 66.76 -140.23c749.89,-1053.65 -972.65,-1576.98 -1032.39,-1617.84 402.91,-80.71 1309.66,239.96 1661.59,-263.91 5.1,-7.31 260.65,-754.08 261.19,-760.96 14.38,-179.67 -27.55,-212.11 -111.99,-349.45 -134.17,-218.24 -57.67,-205.48 -125.14,-420.73 -96.79,-308.77 -370.94,-258.7 -627.39,-402.91 -316.24,-177.8 -524.6,-111.8 -826.12,67.76 -803.62,478.59 -491.72,646.54 -897.39,1211.52 7.75,-665.63 761.05,-1112.38 519.63,-1814.54 -145.29,-422.59 -388.38,-309.76 -686.85,-512.8 -341.37,-232.2 -610.31,-89.3 -816.9,211.55 -444.43,95.56 -584.5,21.04 -714.41,538.82 -106.08,422.9 13,614.35 248.67,915.62 212.26,271.34 726.31,723.71 1033.93,816.34 328.77,99.01 175.28,44.6 409.53,231.38l-84.45 262.17c282.44,10.25 390.84,-87.39 541.87,113.52 -123.43,206.15 -217.26,122.38 -480.3,149.01 2.51,251.16 129.37,146.71 1.86,426.83 -400.29,23.52 -181.98,-201.24 -518.26,-21.25 -79.15,-249 -47.55,-23.99 -209.67,-348.55l-438.61 -11.13 366.85 -203.85c-246.19,-686.65 -2115.21,-1572.64 -2550.01,-856.71 -71.46,117.66 -32.63,128.47 -134.62,242.18 -95.55,106.55 -109.79,76.43 -204.38,230.62 -148.19,241.53 -145.64,379.49 45.82,591.49 260.08,287.97 81.98,268.45 236.98,578.23 376.89,247.28 643.66,35.57 1025.79,9.63 -212.84,128.73 -560.83,502.34 -620.55,758.67 -76.74,329.38 186.96,733.92 341.41,1043.55l-80.51 45.05z"/>
   <path class="fil1" d="M11800.57 6936.93c64.53,169.18 59.92,149.12 244.83,229.11 413.96,-211.73 200.44,-173.54 479.03,41.91 169.91,131.4 59.79,-85.01 231.19,205.18 283.71,31.04 150.81,-87.02 309.94,89.58 460.45,-59.16 820.59,180.18 1277.82,499.19 739.45,515.89 562.4,846.68 865.2,862 215.71,-472.84 -978.81,-1128.93 -1376.2,-1330.93 -289.04,-146.95 -430.65,-72.32 -513.52,-410.38 -283.68,-27.05 -138.51,3.63 -316.98,-164.26l-541.92 15.63c-183.18,12.33 -289.45,-145.3 -483.1,-216.64 -105.19,96.67 -104.23,81.47 -176.29,179.61z"/>
   <path class="fil1" d="M13426.29 8501.72l23.88 315.27c341.34,82.45 519.02,-5.73 779.46,-195.31 -181.21,-144.01 -610.94,-325.54 -803.34,-119.96z"/>
  </g>
 </g>
</svg>
