<?xml version="1.0" encoding="UTF-8"?>
<!DOCTYPE svg PUBLIC "-//W3C//DTD SVG 1.1//EN" "http://www.w3.org/Graphics/SVG/1.1/DTD/svg11.dtd">
<!-- Creator: CorelDRAW 2017 -->
<svg xmlns="http://www.w3.org/2000/svg" xml:space="preserve" width="181mm" height="181mm" version="1.1" style="shape-rendering:geometricPrecision; text-rendering:geometricPrecision; image-rendering:optimizeQuality; fill-rule:evenodd; clip-rule:evenodd"
viewBox="0 0 18100 18100"
 xmlns:xlink="http://www.w3.org/1999/xlink">
 <defs>
  <style type="text/css">
   <![CDATA[
    .str0 {stroke:#373435;stroke-width:20;stroke-miterlimit:22.9256}
    .fil0 {fill:#111111}
    .fil10 {fill:#111111}
    .fil8 {fill:#222222}
    .fil2 {fill:#545453}
    .fil1 {fill:#646363}
    .fil4 {fill:#827D7C}
    .fil7 {fill:#989391}
    .fil6 {fill:#AEA6A5}
    .fil5 {fill:#C5BEBE}
    .fil9 {fill:#C5BEBE}
    .fil3 {fill:#D6D2D1}
   ]]>
  </style>
 </defs>
 <g id="Capa_x0020_1">
  <metadata id="CorelCorpID_0Corel-Layer"/>
  <rect class="fil0 str0" width="18100" height="18100"/>
  <path class="fil1" d="M2679.33 13592c99.81,-440.09 418.68,-158.18 596.93,-299.76l46.44 -84.96c11.83,-29.76 22.13,-66.95 31.12,-92.97 18.77,-54.38 44.67,-143.75 77.62,-198.46 67.68,-112.37 236.21,-110.69 427.56,-108.34 380.46,848.13 -615.64,1285.35 -1179.67,784.49zm-1160.62 -2830.31c57.95,-94.82 58.68,-311.94 54.1,-444.12 103.99,0.4 353.53,61.14 416.62,143.26l201.31 390.2 -375.7 -23.58 -95.23 481.02c-127.8,43.54 -247.08,-58.91 -397.27,-22.08 -6.53,1.63 -18.08,16.77 -22.77,9.92 -4.82,-7.02 -15.96,6.3 -22.83,11.66l465.85 79.05c69.29,-125.63 89.42,-343.12 104.51,-496.83 7.54,-2.18 17.02,-3.1 23.23,-3.68 172.53,-16.42 174.91,35.73 366.27,15.02l993.51 1173.96c56.39,39.37 76.09,13.93 153.1,75.71l107.61 93.32c74.64,65.12 317.6,421.81 343.3,509.12l-395.3 41.95c-149.13,193.99 -59.87,403.1 -218.22,458.54 -123.63,43.27 -383.47,17.89 -427.45,39.21 -93.72,75.97 -69.06,159.72 -179.17,242.07 -102.11,-47.4 -321.16,-256.4 -372.48,-341.62 5.25,-3.68 13.35,-6.7 17.38,-8.26l56.18 -19.99c87.34,-23.23 156.38,-4.9 189.27,-82.06l27.99 -120.44c8.97,-57.34 14.65,-97.46 31.85,-149.38 156.73,-28.43 204.1,110.89 435.08,46.64l19.29 -409.72c142.97,-46.67 412.39,22.89 537.78,-53.2 -4.81,-3.8 -12.38,-7.28 -16.21,-8.7l-127.34 -20.04c-130.19,-0.67 -321.57,-9.29 -426.05,29.67 -44.47,120.44 -30.03,272.72 -25.99,418.28 -191.25,50.64 -254.07,-56.01 -432.06,-67.79l-77.74 338.77 -260.22 47.11c-64.6,-59.9 -127.48,-132.65 -156.69,-242.99l154.78 -68.78 49.8 -350.28 411.46 0.78 -6.52 -409.63 438.4 -6.15c-121.62,-24.54 -382.62,-45.31 -487.95,-21.56l-5.94 387.16 -397.34 7.13c-68.95,316.15 55.61,385.01 -199.16,415.82 -87.77,-79.11 -177.38,-238.9 -243.13,-330.28 -93.09,-129.34 -161.43,-205.48 -275.31,-297.11l-299.14 -272.93c-142.63,-115.82 -189.51,-166.21 -275.48,-305.38l383.7 20.13 -14.56 -288.01c-41.54,68.02 -29.7,116.67 -29.82,218.28 -130.97,34.78 -346.63,55.17 -430.03,-75.04 -217.05,-338.89 -279.22,-302.54 -109.67,-538.28l381.84 59.2 83.95 -338.48 354.61 63.41zm-456.16 235.42l-376.39 -52.04c-66.34,89.52 -31.07,104.86 -151.77,144.8 -122.93,-328.38 -130.99,-233.27 2.09,-580.57l393.85 28.25c14.42,-79.04 -50.29,-272.11 -73.3,-368.5 136.05,6.79 354.73,77.8 462.43,58.1 120.12,-21.98 24.83,-95.89 47.37,-366.9 140.71,1.04 354.2,12.73 423.99,120.4 59.17,91.29 148.25,266 149.24,365.34 -121.97,-15.78 -276.03,-92.44 -390.34,-54.01l-53.2 419.24 -371.69 -55.11 -62.28 341zm-639.31 -322.73c-107.09,-143.32 -117.57,-675.66 -121.34,-890.28 -19.52,-1106.43 838.44,-756.78 1086.28,-541.64 79.97,69.44 193.88,173.08 249.95,270.89 86.64,151.19 59.96,221.15 118.32,373.41 -344.34,55.08 -445.2,-314.84 -430.81,279.86 -189.42,6.9 -347.76,-51.69 -537.15,-68.31 38.67,133.72 83.13,262.65 99.7,385.73l-340.45 -6.12c-66.02,98.53 -19.96,131.77 -124.5,196.46zm-165.34 -591.54c59.23,482.88 198.03,1042.65 460.95,1446.49l258.48 289.48c53.57,48.36 84.46,93.99 128.99,144.92 93.81,107.33 158.69,142.45 285.72,259.76 305.76,282.32 241.97,244.09 492.1,605.17 141.43,204.17 300.39,433.15 496.53,598.64 142.8,120.46 407.52,392.95 656.78,427.96 328.38,46.12 601.6,12.74 829.04,-258.19 431.85,-514.37 6.67,-956.9 -104.77,-1153.22l-246.04 -300.48c-144.95,-168.96 -403.28,-314.35 -658.63,-585.88 -173.34,-184.31 -164.44,-156.84 -283.66,-391.13 -31.15,-61.23 -64.68,-97.08 -99.23,-170.9 -58.1,-124.1 -116.55,-235.42 -192.78,-357.63 -72.57,-116.32 -318.14,-840.44 -497.46,-1143.53 -61.38,-103.73 -35.68,-70.08 -118.23,-155.42 -50.8,-52.47 -79.42,-90.21 -124.65,-150.17 -89.05,-118.12 -845.43,-525.69 -1146.14,-53.2 -174.04,273.45 -178.05,612.57 -137,947.33z"/>
  <path class="fil2" d="M3708.26 11420.96c-1.86,-122.82 -14.48,-233.89 26.28,-311.22 63.9,102.8 23.64,452.51 20.3,456.57 -34.23,41.91 -16.94,-16.13 -228.78,-114.64l59.09 -458.94c122.5,148.4 34.87,146.11 54.45,296.25 27.7,212.38 3.62,71.18 68.66,131.98zm-215.64 -16.1c-124.87,-58.05 -258.07,-128.71 -249.52,-267.24l68.17 -344.11c130.41,95.35 7.08,80.03 30.49,480.58 47.62,-46.35 32.4,-17.75 61.84,-93.37l32.05 -276.72c72.81,52.79 60.1,45.97 48.21,179.29 -10.59,118.61 -30.95,184.71 8.76,321.57zm-1494.92 -1693.97c34.31,53.29 56.01,112.11 105.2,187.09l702.81 983.1c23.38,28.28 131.49,116.29 157.01,135.72l40.38 -99c23.41,-100.94 -6.67,-149.24 59.2,-230.98 31.36,66.2 -31.21,305.39 -34.11,416.42 43.83,37.22 74.49,58.48 110.63,98.45 174.19,192.72 531.03,477.89 793.4,513.08 -48.91,-120.24 1.59,-21.44 -62.11,-80.53 -5.19,-4.84 -50.96,-26.22 -59.66,-33.33l34.75 -73.35c28.63,88.44 3.07,40.23 63.49,95.11 -9.92,-111.47 17.99,-220.48 26.02,-339.64 55.55,144.19 -35.56,237.07 48.79,367.6l48.85 -173.84c18.8,-210.99 -19.67,-245.25 -134.27,-340.48l-441.31 -327.05c-177,-113.36 -552,-294.59 -740.98,-347.88l-26.92 141.99c-177.96,-100.59 -491.75,-739.29 -691.17,-892.48z"/>
  <path class="fil3" d="M15557.24 9242.49l14.38 112.43c-5.83,-129.81 4.01,-26.98 42.38,-68.37l-14.79 -0.7c-27.47,-135.02 10.3,-179.43 77.33,-323.94 3.19,-6.88 6.73,-16.25 11.23,-23.79 52.7,-159.68 98.71,-459.41 246.21,-497.58 107.47,155.82 157.24,436.61 273.85,559.68 65.82,-26.28 425.59,-376.88 465.99,-432.54 -82.43,33.21 -201.27,136.82 -249.31,188.86l-206.38 202.38c-2.61,-4.73 -10.76,8.99 -16.86,12.36 -75.62,-241.49 -207.83,-453.32 -276.43,-655.47 1.51,-47.43 486.07,-616.19 575.32,-656.57 42.35,-19.14 388.6,-138.42 455.09,-141.52 166.84,-7.81 330.44,103.7 471.53,114.05l1.13 -61.14c-46.99,-35.92 -86.67,-59.73 -144.8,-79.89 -257.96,-89.34 -280.29,-167.34 -634.46,-77.71 -166.04,42 -427.3,278.32 -564.24,405.84 -107.74,100.36 -315.48,400.43 -384.87,610.01 -65.75,198.58 -173.72,593.36 -142.3,813.61z"/>
  <path class="fil4" d="M14191.31 10295.96c-58.48,68.05 -41.69,93.95 -59.58,205.45 -13.43,83.69 -28.31,156.96 -38.93,247.11 -24.6,209.34 -86.73,229.04 -1.57,454.02 113.51,-8.94 176.16,-58.28 253.96,-119.34 168.38,-132.18 442.67,-390.31 455.93,-615.61l32.22 -118.29 -91.89 57.09c35.88,-152.32 121.39,-240.06 -177.32,-222.72 -101.96,5.92 -274.55,79.39 -372.82,112.29z"/>
  <path class="fil5" d="M12709.06 5994.63c-16.74,124.44 -208.04,346.95 -271.01,469.73 -28.95,56.42 -45.89,102.11 -84.24,148.23l78.76 -9.2c-17.67,98.6 -30.02,140.48 -37.16,268.64 -5.77,104.19 6.7,174.91 -24.34,249.16 -57.84,9.14 54.39,30.2 -19.78,-19.29 -72.78,-48.55 74,-8.9 -34.11,-19.08 -168.36,-15.87 0.52,131.37 -109.73,192.89 -77.86,43.43 -13.49,10.01 -36.99,-3.8 -88.56,-52.03 72.81,93.81 -34.83,-39.68 -2.64,-3.28 -6.85,-11.66 -10.88,-17.08l-121.16 80.26c48.93,141.67 101.14,-72.34 39.24,301.79 -91.05,-28.05 -15.69,-24.4 -113.27,-50.27 -17.63,226.05 -81.97,44.64 -169.34,271.99 -2.32,6.09 -4.96,13.87 -7.08,19.55 -31.12,83.25 -42.75,24.8 -99.78,80.73l-19.41 27.27c-2.75,4.46 -5.04,11.57 -7.6,16.38 -2.67,5.11 -4.43,12.3 -7.1,17.64 -61.93,123.98 15.98,109.3 -141.93,111.33 72.98,59.38 21.75,-51.84 61.03,63.84 24.57,72.35 38.84,28.81 -27.18,83.28 81.71,-1.8 124.35,10.68 118.2,100.31 -8.59,124.73 -57.06,69.9 -145.27,93.8 52.16,26.69 67.62,20.57 117.83,49.72 38.9,-45.86 19.2,-64.74 96.07,-87.77 2.41,-0.73 11.11,-2 13.08,-2.5 1.97,-0.49 9.17,-0.03 13.11,-2.03l-61.9 -110.72c-3.33,-4.52 -8.26,-10.18 -11.51,-14.62 -22.4,-30.68 -12.82,-12.27 -32.78,-48.87 5.74,-3.4 12.56,-54.71 107.53,29.27 -4.5,-109.19 -27.47,-103.62 19.61,-183.44l163.59 69.18c12.39,4.67 25.76,10.56 36.12,15.43 4.78,2.26 12.82,7.69 16.59,9.63 3.77,1.94 11.05,6.35 16.16,10.15 -51.14,74.61 -53.49,43.37 -123.17,99.55 0,140.34 23.47,193.89 29.3,331.46 -190.05,-13.43 -48.85,-61.26 -205.14,-79.27 10.91,66.57 13.17,45.54 29.53,121.13 96.94,58.48 82.56,-28.86 123.83,99.55 -43.3,26.83 5.54,8.07 -51.28,11.69 -2.26,0.15 -52.18,-1.48 -58.65,-1.3 -76.87,2 -59.5,-5.49 -108.86,23.09 209.37,53.28 143.75,-9.23 232.02,174.41 58.19,121.05 53.72,61.7 100.28,123.31 65.78,87.05 19.4,65.59 8.55,159.54 113.8,-87.4 130.65,-34.46 280.06,-30.23l-57.78 157.74c43.43,-84.38 59.73,-53.95 97.38,-120.49 -56.54,-128.33 -36.87,40.14 -51.11,-130.18 127.63,26.39 132.88,65.12 104.48,175.52 0.03,0 32.43,-40.09 118.29,2.35 5.19,2.55 11.28,6.84 16.27,9.95l86.41 72.31c1.14,-4.5 -0.52,-16.77 -0.49,-13.9 0.06,2.99 -0.32,-11.8 -0.23,-14.38 0.12,-2.7 -0.03,-11.72 0.2,-15.14 2.27,-34.73 1.08,-22.05 5.4,-50.62 11.34,-75.22 19.23,-16.71 20.13,-135.35 114.4,69.56 44.03,-25.26 74.69,141.03 0,-11.69 -1.48,-76.6 1.6,-90.38 24.71,-110.89 3.45,-47.19 43.68,-100.42l73.62 -154.67c215.58,6.07 233.56,43.8 416.8,89.92 410.56,103.36 361.51,-16.12 544.43,504.23 54.62,155.39 109.93,248.24 162.72,381.58 91.67,52.01 3.92,66.2 113.25,65.91 11.37,-138.77 -21.9,-306.55 19.29,-429.97l-41.45 -156.46c-22.83,-234.93 -195.92,-455.55 -344.4,-717.22 -233.01,-410.54 -393.97,-963.9 -388.63,-1450.55 4.64,-425.12 163.51,-784.34 385.64,-1128.33 68.57,-106.17 29.38,-139.09 141.84,-171.87 93.03,271.07 -86.76,622.02 -126.44,879.43 -270.66,1755.26 475.05,1895.48 503.21,2496.73 165.43,4.03 327.75,-16.56 486.53,-7.34 134.74,7.8 289.2,55.58 423.18,21.35 101.03,-99.84 292.65,-674.32 343.21,-848.01 193.1,-663.27 352.9,-397.89 326.3,-838.41 -26.02,-431.34 -42.47,-652.95 -143.03,-1057.01l-298.89 -867.57c-103.93,-185.93 -375.61,-493.66 -534.57,-660.51 -347.41,-364.61 -317.45,-312.02 -805.86,-150.8 -406.15,134.06 -509.48,134.09 -753.92,417.17 -139.43,161.45 -391.73,627.82 -486.76,689.58zm-3189.18 5218.12l-225.09 -19.12c-86.7,-27.79 63.35,-40.52 -78.12,-21.35 42.32,34.05 19.96,-46.35 33.71,66.14 7.42,60.65 -40.93,165.31 -48.15,179.06 -27.85,53.19 5.45,33.73 -60.28,55.28 4.35,-106.42 31.42,-169.98 68.52,-242.67 -93.46,25.61 -68.03,64.6 -134.54,137.35 -11.43,12.5 -25.26,29.32 -27.99,23.55 -2.06,-4.38 -10.38,7.08 -15.37,10.91 44.44,110.69 12.67,-2.38 52.04,99.55 -89.37,86.15 -77.54,83.22 -74.18,248.88 -43.88,18.24 -25.72,-9.08 -101.14,-30.75l15.34 267.56c4.7,2.38 12.53,5.63 17.49,8.53 4.91,2.84 11.72,6.64 16.45,9.89l38.64 36.63c19.06,19.73 19.2,68.05 89.51,31.68 -61.67,-103.38 96.36,79.68 -40.23,-30.34 -65.09,-52.42 -65.96,-46.27 -82.44,-118.99 25.85,-18.36 29.88,-8.55 58.74,-17.05 68.2,-20.05 55.2,-22.86 112.23,2.81l39.8 24.95c-12.04,-195.74 50.35,-53.2 41.48,-163.6 -6.79,-84.76 -49.58,-99.96 -63.56,-136.3 -25.47,-66.23 -4.58,-78.61 9.28,-105.24 98.51,43.45 37.48,98.33 109.27,180.1 91.03,-130.3 10.13,-151.47 88.21,-284.82 13.23,187.01 -66.02,162.18 -1.19,400.99l68.75 172.83 -95.29 31.47c359.45,477.41 -114.24,819.21 139.87,-16.83 45.51,-149.79 -27.38,-63.93 -52.7,-214.7 -17.23,-102.48 1.88,-231.65 26.89,-313.71l9.42 222.71 150.4 -6.18 -176.33 98.13c4.27,2.15 11.4,3.6 13.72,4.3l42.32 12.56c20.42,6.03 3.63,-7.78 44.59,13.57 -28.75,49.86 -27.15,-0.43 -17.44,90.82 0.58,5.43 3.28,12.91 4.3,18.1 36.66,192.58 3.36,36.41 -14.1,141.93 20.93,135.07 90.75,-14.07 98.74,-21.67 0.17,-0.14 -11.55,-74.43 90.56,-21.81 1429.05,737 -819.24,1084.48 885.92,1175.91l-6.44 -144.46 53.29 0c-20.42,-193.94 -70.23,-21.23 5.48,-185 2.03,-4.41 6.35,-11.23 8.24,-15.49l17.34 -62.05c42.91,48.39 27.71,12.97 46.27,70.03 17,52.29 44.09,169.83 103,227.47 -49.98,105.23 28.81,83.62 -110.19,81.88 72.31,169.69 56.27,17.32 35.62,71.04 -73.39,-78.67 -87.86,-68.22 -139.09,-58.3l-151.68 69.53c6.85,5.13 16.68,8.2 23.21,10.87l44.96 18.51c75.79,28.63 58.59,-11.92 134.1,109.91 70.43,-21.18 56.62,-3.69 88.5,-46.7 32.34,85.88 2.61,16.33 40.11,81.62l-78.29 24.89c30.98,88.41 70.2,92.73 74.9,99.55l-36.72 140.48c-103.67,-33.42 17.14,14.85 -50.71,-60.45l-119.04 -174.97c-1.36,-13.23 -2.67,-16.79 -4.53,-25.09 -169.4,20.68 -30.71,4.03 -84.32,33.39 -6.26,3.45 6.24,89.25 -30.43,22.59 -2.4,-4.35 -8.23,8.94 -13.46,11.81 32.75,-108.25 17.12,-92.19 -8.41,-132.68 -5.13,-0.98 -12.85,3.25 -15.28,3.71 -2.27,0.41 -11.64,2.79 -14.28,3.14 -48.59,6.7 -198.09,-137.2 -177.43,111.3l6.09 24.36c0.06,2 0.93,8.44 0.7,10.36l-7.08 20.33c-31.3,64.22 -25.85,5.4 -69.7,111.27l43.25 20.33c6.78,2.96 13.66,6.1 21.03,9.2l59 23.15c5.83,1.88 12.58,4.61 18.15,6.09l33.85 7.25c103.85,10.27 12.56,-1.19 41.57,-4.47 2.47,-0.29 9.08,-2.87 11.46,-3.07l21.96 -1.63c2.67,0.29 9.48,1.92 12.38,2.53 94.97,19.64 192.93,78.17 329.78,24.02 61.99,-24.54 27.67,7.54 61.96,-39.08 -6.93,35.71 -3.05,19 22.57,47.31 -170.8,-61.29 -133.99,43.6 -138.74,48.27 119.24,-40.61 99.03,-52.21 222.6,-25.84 153.56,13.95 463.99,-132.01 608.64,-205.63 468.52,-238.44 570.16,-353.83 917.87,-723.35 98.27,-104.45 309.88,-293.14 307.96,-472.08 -285.66,-11.92 -614.19,358.17 -956.44,289.4 -134.59,-27.03 -180.07,-62.71 -193.88,-200.29 -45.69,-456.13 791.28,-531.7 731.23,-913.74 -286.35,-41.25 -623.56,71.47 -840.56,-79.43 -218.71,-152.05 -291.98,-344.13 -200.03,-587.9 85.4,-11.29 142.66,-9.37 224.8,-12.71 124.3,-4.99 66.58,-16.5 176.1,-31.96l346 -8.39c112.95,-22.33 36.37,3.45 84.99,-39.27 -277.95,-92.07 -828.12,-226.46 -684.04,-640.91 30.2,-86.84 135.08,-185 200.7,-245.54 84.29,8.59 358.32,135.26 446.79,177.75 141.7,68.05 223.96,176.8 367.92,213.17 -66.57,-195.39 -458.65,-192.14 -475.97,-689.86 164.84,-205.31 401.83,-234.15 599.86,-67.73 86.9,73.01 150.31,131.25 250.56,198.05 49.63,33.07 87.28,55.41 134.3,91.61l95.78 98.82c88.79,-46.23 26.66,19.41 58.94,-74.54 23.9,-69.59 -4.12,-138.4 -44.64,-184.78 -112.49,-128.64 -302.89,-90.56 -353.5,-269.3 -21.21,-74.83 -19.67,-235.01 -13.87,-314.66 -40.23,53.23 -18.97,-10.47 -43.68,100.42 -3.08,13.78 -1.6,78.69 -1.6,90.38 -30.66,-166.29 39.71,-71.47 -74.69,-141.03 -0.9,118.64 -8.79,60.13 -20.13,135.35 -4.32,28.57 -3.13,15.89 -5.4,50.62 -0.23,3.42 -0.08,12.44 -0.2,15.14 -0.09,2.58 0.29,17.37 0.23,14.38 -0.03,-2.87 1.63,9.4 0.49,13.9l-86.41 -72.31c-4.99,-3.11 -11.08,-7.4 -16.27,-9.95 -85.86,-42.44 -118.26,-2.35 -118.29,-2.35 28.4,-110.4 23.15,-149.13 -104.48,-175.52 14.24,170.32 -5.43,1.85 51.11,130.18 -37.65,66.54 -53.95,36.11 -97.38,120.49l57.78 -157.74c-149.41,-4.23 -166.26,-57.17 -280.06,30.23 10.85,-93.95 57.23,-72.49 -8.55,-159.54 -46.56,-61.61 -42.09,-2.26 -100.28,-123.31 -88.27,-183.64 -22.65,-121.13 -232.02,-174.41 49.36,-28.58 31.99,-21.09 108.86,-23.09 6.47,-0.18 56.39,1.45 58.65,1.3 56.82,-3.62 7.98,15.14 51.28,-11.69 -41.27,-128.41 -26.89,-41.07 -123.83,-99.55 -16.36,-75.59 -18.62,-54.56 -29.53,-121.13 156.29,18.01 15.09,65.84 205.14,79.27 -5.83,-137.57 -29.3,-191.12 -29.3,-331.46 69.68,-56.18 72.03,-24.94 123.17,-99.55 -5.11,-3.8 -12.39,-8.21 -16.16,-10.15 -3.77,-1.94 -11.81,-7.37 -16.59,-9.63 -10.36,-4.87 -23.73,-10.76 -36.12,-15.43l-163.59 -69.18c-47.08,79.82 -24.11,74.25 -19.61,183.44 -94.97,-83.98 -101.79,-32.67 -107.53,-29.27 19.96,36.6 10.38,18.19 32.78,48.87 3.25,4.44 8.18,10.1 11.51,14.62l61.9 110.72c-3.94,2 -11.14,1.54 -13.11,2.03 -1.97,0.5 -10.67,1.77 -13.08,2.5 -76.87,23.03 -57.17,41.91 -96.07,87.77 -50.21,-29.15 -65.67,-23.03 -117.83,-49.72 88.21,-23.9 136.68,30.93 145.27,-93.8 6.15,-89.63 -36.49,-102.11 -118.2,-100.31 66.02,-54.47 51.75,-10.93 27.18,-83.28 -39.28,-115.68 11.95,-4.46 -61.03,-63.84 157.91,-2.03 80,12.65 141.93,-111.33 2.67,-5.34 4.43,-12.53 7.1,-17.64 2.56,-4.81 4.85,-11.92 7.6,-16.38l19.41 -27.27c57.03,-55.93 68.66,2.52 99.78,-80.73 2.12,-5.68 4.76,-13.46 7.08,-19.55 87.37,-227.35 151.71,-45.94 169.34,-271.99 97.58,25.87 22.22,22.22 113.27,50.27 61.9,-374.13 9.69,-160.12 -39.24,-301.79l121.16 -80.26c4.03,5.42 8.24,13.8 10.88,17.08 107.64,133.49 -53.73,-12.35 34.83,39.68 23.5,13.81 -40.87,47.23 36.99,3.8 110.25,-61.52 -58.63,-208.76 109.73,-192.89 108.11,10.18 -38.67,-29.47 34.11,19.08 74.17,49.49 -38.06,28.43 19.78,19.29 31.04,-74.25 18.57,-144.97 24.34,-249.16 7.14,-128.16 19.49,-170.04 37.16,-268.64l-78.76 9.2c-164.64,195.62 -266.05,403.05 -407.37,603.86 -286.21,406.68 -489.34,769.67 -697.73,1242.68 -99.08,224.98 -220.77,430.87 -344.42,627.8 -68.69,109.41 -79.68,226.86 -135.52,364.26 -78.87,194.15 -72.55,111.68 -197.28,299.06 -532.13,799.34 -174.39,647.2 -224.02,1052.75 -36.89,301.23 -323.94,594.14 -688.1,479.54l-126.67 -63.59c-1.59,-5.62 -8.29,-4.81 -12.82,-6.2zm-2309.69 763.37c-5.02,-97.38 -15.81,-4.09 25.7,-64.6 68.34,-99.67 5.19,53.17 63.03,-74.32l-296.39 43.72c73.41,-55.75 136.5,-16.54 149.32,-103.06 -2.29,-3.05 -9.36,-8.53 -10.35,-4.88l-72.23 9.14 -1.33 -62.86c17.43,-53.14 21.03,-38.08 45.97,-61.03 -46.26,12.1 -18.97,2.35 -53.54,33.01l-64.37 68.49c-11.89,-19.79 -60.33,44.78 -12.01,-92.13 15.46,-43.8 45.02,-58.53 76.49,-78.75l-77.1 -37.62c126.24,-61.12 144.63,2.81 148.34,-164.21 68.29,9.95 94.97,28.02 127.6,14.88 38.53,-179.7 -62.16,-262.34 23.67,-496.92 -8.84,4.82 -19.66,3.02 -25.52,16.07l-48.24 27.12c-43.71,19.61 -0.87,10.53 -63.84,21.12l-134.77 -105.12c29.12,-89.6 42.44,-57.32 40.73,-132.56 -2.5,-110.31 -68.61,1.83 -1.72,-175.9 -6.38,-3.62 -17.75,-11.8 -21.17,-5.94 -3.37,5.74 -16.19,-4.56 -20.57,-6.7 -24.83,-12.19 -122.55,-21.64 -53.6,-91.35 0.06,3.28 28.02,26.57 -23.87,39.97l-35.91 1.02c-6.33,-0.32 -17.29,-4.18 -22.92,-4.9 -6.18,-0.84 -17.32,-2.64 -24.83,-6.76 66.75,-152.4 -12.79,-77.22 131.84,-124.44 -26.69,-80.87 -79.19,-25.21 -145.85,-78.93 -120.49,-97.14 -57.11,-123.86 -2.06,-176.82l27.41 -20.95c17.38,-25.93 14.85,-59.2 -11.48,-100.76 -87.17,33.29 4.2,26.77 -124.47,47.19 -3.48,-6.06 -6.33,-23.79 -7.43,-19.7 -1.01,3.92 -5.74,-15.08 -7.1,-18.71l-41.75 -80.95c62.28,63.72 14.13,273.79 -76.78,282.35 81.4,-8.76 2.85,6.44 54.71,-32.29l97.58 -69.76c2.93,76.64 8.96,116.99 26.11,169.78l-127.52 82.9c-71.36,15 -31.64,6.73 -82.15,-5.95l-123.54 -54.09c-52.44,-41.66 -10.73,-2.06 -45.42,-59.7 -42.73,-71.01 -19.49,-59.96 -92.68,-115.59 22.25,72.57 29.79,61.93 56.07,135.03 -102.19,-17.32 -91.72,-24.4 -152.95,-74.47 -86.99,91.99 -250.12,75.63 -330.71,-25.81l-49.34 -72.69c-2.78,-4.5 -5.74,-11.26 -8.58,-15.75l-44.38 -59.03c-4.47,-4.03 -11.4,-8.7 -15.78,-12.16l44.29 -140.85c-16.5,8.55 -28.02,59.11 -82.58,44.84 19.32,-138.97 -7.17,-77.19 88.59,-121.42l-131.26 -27.91c1.6,-89.07 24.42,-106.86 15.92,-189.26 -159.36,-10.48 -19.46,-12.27 -80.11,19.49 -78.49,41.13 45.13,12.15 -80.82,50.21 4.07,-77.94 -94.09,-396.93 50.27,-326.53 63.47,30.92 -50.41,39.86 44.85,25.67 63.09,-9.4 -0.18,-57.93 -17.67,-102.83 -83.91,24.8 -69.06,36.49 -158.81,58.39 24.57,-78.29 19.73,-45.54 26.83,-60.01l53.37 -99.38c12.91,-31.62 9.46,-0.73 12.85,-46.67 4.65,-62.92 -45.8,-147.36 7.02,-242.41 -61,29.21 -27.23,-8.38 -33.38,88.7 -3.16,50.18 2.11,100.97 -3.45,162.06 -174.48,0.99 -62.54,-9.8 -178.48,-54.62 -39.66,76.7 -2.41,22.48 -8.15,63.41l-23.76 88.36c-100.48,-113.36 -52.18,-44.41 -47.48,-205.87 3.42,-116.81 -29.21,-177.98 -49.49,-273.99l128.88 -129.4c5.74,0.06 73.56,0.55 74.43,0.69l79.91 29.16c-5.42,3.62 -15.57,-0.67 -18.45,6.43l-54.09 10.85c-42.64,5.11 -6.53,-34.49 -75.62,7.6 71.35,36.55 75.96,21.24 118.28,94.59 56.25,-83.22 39.74,-25.12 136.95,-59.84 95.34,-34.11 50.29,-63.67 80.81,-175.34 -177.84,-5.66 -256.31,-103.21 -345.44,10.79 -3.16,4.06 -7.17,10.18 -10.04,14.59l-31.3 68.86c-3.01,7.57 -11.75,32.11 -14.38,38.93 -2.27,5.86 -5.95,15.02 -7.81,19.81 -1.85,4.81 -4.03,13.92 -7.95,19.9 -31.64,-44.99 -32.4,-118.67 -37.97,-174.48l-15.72 -156.08c-10.35,-108.69 -66.19,-158.09 -117.04,-246.91 -13.46,207.95 64.69,141.52 -28.46,296.83 -112.45,-59.26 -56.62,-66.08 -25.29,-101.21 3.42,-3.86 11.63,-10.96 14.74,-14.15 3.25,-3.34 11.37,-8.79 15.49,-14.54l-106.26 -69.73c40.38,-38.29 55.73,-37.47 72.26,-99.55 -71.94,-44.41 -40.78,29.27 -130.59,-59.55l-137.58 -141.06c65.79,-53.6 18.91,4.64 53.43,-69.21 131.61,4.53 25.91,24.39 133.67,26.74 0.32,0 48.21,-4.32 59.43,-4.29 9.4,-260.6 -4.64,-556.93 -36.23,-792.93l-83.57 -1.16c51.61,121.11 20.25,-50.47 59.93,102.22 16.07,61.82 -10.01,38.9 15.64,147.1 -50.39,-13.32 -36.2,-19.87 -53.26,-29.04 -81.42,-43.8 -41.25,12.3 -104.54,-25 0.75,-32.84 -0.35,-64.28 6.5,-95.84 27.99,-129.46 8.09,-0.53 33.59,-90.88 21.37,-75.77 6.46,-157.59 9.71,-241.34 83.83,34.78 65.79,11.14 128.24,77.1 34.55,-67.67 10.62,-98.19 49.81,-156.61l12.5 41.72c1.62,5.86 8.67,33.76 10.85,41.48l139.49 -37.05c3.42,2.7 10.85,8.91 16.19,13.43 -32.08,87.61 -32.64,58.4 -101.38,95.38 94.07,-5.22 88.03,-19.17 165.31,-16.74l37.71 308.95c1.91,1.13 9.57,4.7 11.16,5.57 1.57,0.87 7.72,3.02 11.29,5.05 3.97,117.3 -11.92,110.92 -21.73,209.05 -77.07,-11.11 -96.82,-27.7 -131.89,-85.68 -0.96,67.99 5.48,109.93 59.49,150.4 -58.04,48.76 -55.87,84.67 -144.19,106.94 26.39,-130.41 43.39,-218.62 10.06,-283.45 -37.73,98.74 -16.47,133.08 -18.85,251.63 -2.67,131.43 -31.5,130.5 -35.07,273.31l78.64 95.8c99.2,-0.02 154.08,10.56 218.53,19.9 14.25,-120.61 -27.44,-34.4 50.59,-71.9 -107.53,-43.51 -94.65,98.33 -104.8,-87.26 -35.27,139.76 39.33,60.13 -76.98,103.06 5.07,-74.8 13.28,-163.27 -18.83,-202.75 22.22,-61.58 16.8,-39.71 62.39,-72.81 3.08,-2.2 11.38,-4.61 16.42,-8.04 -5.13,-1.65 -13.17,-9.13 -15.4,-4.98 -2.44,4.49 -12.97,-4.94 -16.24,-6.91l-54.45 -37.88c5.69,-4.47 15.23,-17.11 18.07,-12.04 2.79,4.93 13.49,-9.31 17.2,-12.21l124.47 -230.14c151.33,56.36 -138.22,-63.23 60.48,43.57 6.06,3.28 9.51,73.12 23.15,-1.95 18.07,-99.63 1.13,-9.48 -11.52,-54.21 -116.84,-412.77 55.14,-270.14 -65.76,-382.45 28.34,-20.92 -9.63,-10.97 48.94,-8.44 -65.85,-151.13 -649.09,-766.74 -762.24,-872.53 -240.73,-225.09 -347.71,-373.87 -614.69,-579.23 -296.21,-227.85 -485.63,-272.81 -888.7,-334.71 -732.54,-112.52 -1027.95,420.13 -1225.28,1124.79 -255.84,913.54 195.59,2487.42 498.31,3363.45 85.68,248.04 90.06,188.52 188.51,209.26 517.43,109.06 1221.97,658.71 1307.89,687.69 59.46,-124.15 -37.54,-76.98 79.36,-223.64 357.68,-448.91 77.97,-2181.6 -86.12,-2687.45 -52.21,-160.9 -78,-265.18 -148.46,-421.76 -48.84,-108.51 -139.55,-285.11 -168.76,-379.52 67.97,-66.57 74.38,-93.72 174.59,-116.2 718.59,506.54 793.66,2043.87 718.36,2902.39 -13.67,155.73 -215.96,894.91 -170.62,982.69 111.21,-85.14 15.37,-97.23 184.08,-275.22 92.7,-97.81 114.2,-182.71 179.49,-291.81 246.67,-412.21 115.13,-449.05 498.19,-442.18 51.69,104.4 326.5,257.61 310.2,674.64 -14.33,366.65 -275.01,320.01 -263.58,689.06 131.34,-3.54 359.91,-428.29 759.54,-540.08 444.44,-124.29 558.93,177.35 496.33,420.11 -37.68,146.13 -86.99,74.34 -132.21,208.64 185.01,-25.49 213.08,-92.59 456.65,-71.47 127.49,11.08 310.29,160.96 312.49,165.02 40.82,335.64 -135.78,412.53 -355.42,530.82 -98.21,52.88 -199.13,89.92 -307.35,136.83 -113.71,49.25 -217.09,60.62 -213.29,197.22 137.64,62.19 318.44,24.8 489.29,16.65 336.68,-16.1 264.83,-73.1 488.62,41.13zm1858.84 1366.39c-71.79,-30.8 -116.58,-72.72 -163.54,-148.72l118.78 -88.96c46.3,-30.28 86.15,-58.6 137.75,-92.33 0.67,0.64 119.02,28.83 30.58,161.42 -40.96,61.41 -87.78,105.94 -123.57,168.59zm-106.17 -384.63c-44.14,-23.5 -78.2,-40.2 -116.92,-62.74l43.74 -245.05 323.89 112.26 -20.51 96.91 -222.48 79.04c-2.03,4.18 -3.71,13.84 -7.72,19.58zm315.92 -319.19c-26.25,52.59 -306.03,-116.93 -327.84,-126.67 13.05,-85.63 29.5,-162.38 86.62,-220.48 97.47,55.46 288.61,251.84 241.22,347.15zm-2068.59 -662.57c246.12,643.69 -533.21,583.58 -677.22,695.03 80,96.01 225.99,131.46 371.28,190.37 598.21,242.61 295.18,593.39 205.78,617.38 -129.23,34.72 -364.53,-9.95 -484.68,-36.81 229.65,286.5 924.94,437.6 1413.04,547.24 427.65,96.04 870.23,29.62 1250.07,-144.34l328.25 -154.57c298.48,253.89 793.48,187.09 1142.66,132.65 30.25,-4.7 60.74,-8.97 89.4,-17.38 55,-16.19 23.17,-1.22 54.71,-24.97 -123.57,-26.37 -103.36,-14.77 -222.6,25.84 4.75,-4.67 -32.06,-109.56 138.74,-48.27 -25.62,-28.31 -29.5,-11.6 -22.57,-47.31 -34.29,46.62 0.03,14.54 -61.96,39.08 -136.85,54.15 -234.81,-4.38 -329.78,-24.02 -2.9,-0.61 -9.71,-2.24 -12.38,-2.53l-21.96 1.63c-2.38,0.2 -8.99,2.78 -11.46,3.07 -29.01,3.28 62.28,14.74 -41.57,4.47l-33.85 -7.25c-5.57,-1.48 -12.32,-4.21 -18.15,-6.09l-59 -23.15c-7.37,-3.1 -14.25,-6.24 -21.03,-9.2l-43.25 -20.33c43.85,-105.87 38.4,-47.05 69.7,-111.27l7.08 -20.33c0.23,-1.92 -0.64,-8.36 -0.7,-10.36l-6.09 -24.36c-20.66,-248.5 128.84,-104.6 177.43,-111.3 2.64,-0.35 12.01,-2.73 14.28,-3.14 2.43,-0.46 10.15,-4.69 15.28,-3.71 25.53,40.49 41.16,24.43 8.41,132.68 5.23,-2.87 11.06,-16.16 13.46,-11.81 36.67,66.66 24.17,-19.14 30.43,-22.59 53.61,-29.36 -85.08,-12.71 84.32,-33.39 1.86,8.3 3.17,11.86 4.53,25.09l119.04 174.97c67.85,75.3 -52.96,27.03 50.71,60.45l36.72 -140.48c-4.7,-6.82 -43.92,-11.14 -74.9,-99.55l78.29 -24.89c-37.5,-65.29 -7.77,4.26 -40.11,-81.62 -31.88,43.01 -18.07,25.52 -88.5,46.7 -75.51,-121.83 -58.31,-81.28 -134.1,-109.91l-44.96 -18.51c-6.53,-2.67 -16.36,-5.74 -23.21,-10.87l151.68 -69.53c51.23,-9.92 65.7,-20.37 139.09,58.3 20.65,-53.72 36.69,98.65 -35.62,-71.04 139,1.74 60.21,23.35 110.19,-81.88 -58.91,-57.64 -86,-175.18 -103,-227.47 -18.56,-57.06 -3.36,-21.64 -46.27,-70.03l-17.34 62.05c-1.89,4.26 -6.21,11.08 -8.24,15.49 -75.71,163.77 -25.9,-8.94 -5.48,185l-53.29 0 6.44 144.46c-1741.51,-93.38 143.77,-644.87 -885.92,-1175.91 -102.11,-52.62 -90.39,21.67 -90.56,21.81 -7.99,7.6 -77.81,156.74 -98.74,21.67 17.46,-105.52 50.76,50.65 14.1,-141.93 -1.02,-5.19 -3.72,-12.67 -4.3,-18.1 -9.71,-91.25 -11.31,-40.96 17.44,-90.82 -40.96,-21.35 -24.17,-7.54 -44.59,-13.57l-42.32 -12.56c-2.32,-0.7 -9.45,-2.15 -13.72,-4.3l176.33 -98.13 -150.4 6.18 -9.42 -222.71c-25.01,82.06 -44.12,211.23 -26.89,313.71 25.32,150.77 98.21,64.91 52.7,214.7 -254.11,836.04 219.58,494.24 -139.87,16.83l95.29 -31.47 -68.75 -172.83c-64.83,-238.81 14.42,-213.98 1.19,-400.99 -78.08,133.35 2.82,154.52 -88.21,284.82 -71.79,-81.77 -10.76,-136.65 -109.27,-180.1 -13.86,26.63 -34.75,39.01 -9.28,105.24 13.98,36.34 56.77,51.54 63.56,136.3 8.87,110.4 -53.52,-32.14 -41.48,163.6l-39.8 -24.95c-57.03,-25.67 -44.03,-22.86 -112.23,-2.81 -28.86,8.5 -32.89,-1.31 -58.74,17.05 16.48,72.72 17.35,66.57 82.44,118.99 136.59,110.02 -21.44,-73.04 40.23,30.34 -70.31,36.37 -70.45,-11.95 -89.51,-31.68l-38.64 -36.63c-4.73,-3.25 -11.54,-7.05 -16.45,-9.89 -4.96,-2.9 -12.79,-6.15 -17.49,-8.53l-15.34 -267.56c75.42,21.67 57.26,48.99 101.14,30.75 -3.36,-165.66 -15.19,-162.73 74.18,-248.88 -39.37,-101.93 -7.6,11.14 -52.04,-99.55 4.99,-3.83 13.31,-15.29 15.37,-10.91 2.73,5.77 16.56,-11.05 27.99,-23.55 66.51,-72.75 41.08,-111.74 134.54,-137.35 -37.1,72.69 -64.17,136.25 -68.52,242.67 65.73,-21.55 32.43,-2.09 60.28,-55.28 7.22,-13.75 55.57,-118.41 48.15,-179.06 -13.75,-112.49 8.61,-32.09 -33.71,-66.14 141.47,-19.17 -8.58,-6.44 78.12,21.35l225.09 19.12c-4.26,-5.98 -9.8,-13.52 -12.99,-17.79l-120.79 -139.61c-342.86,88.94 -389.5,299.35 -779.7,53.7 -380.69,-239.69 -212.16,-328.04 -380.63,-688.86 -90.3,-193.38 -299.38,-459.55 -445.95,-624.02 -249.69,-280.18 -364.41,-472.06 -476.99,-592.64 -240.4,-257.46 -499.7,-672.93 -706.6,-910.98l-952.73 -1163.44c-76.66,-95.02 -165.31,-218.5 -238.49,-267.58 -58.57,-2.53 -20.6,-12.48 -48.94,8.44 120.9,112.31 -51.08,-30.32 65.76,382.45 12.65,44.73 29.59,-45.42 11.52,54.21 -13.64,75.07 -17.09,5.23 -23.15,1.95 -198.7,-106.8 90.85,12.79 -60.48,-43.57l-124.47 230.14c-3.71,2.9 -14.41,17.14 -17.2,12.21 -2.84,-5.07 -12.38,7.57 -18.07,12.04l54.45 37.88c3.27,1.97 13.8,11.4 16.24,6.91 2.23,-4.15 10.27,3.33 15.4,4.98 -5.04,3.43 -13.34,5.84 -16.42,8.04 -45.59,33.1 -40.17,11.23 -62.39,72.81 32.11,39.48 23.9,127.95 18.83,202.75 116.31,-42.93 41.71,36.7 76.98,-103.06 10.15,185.59 -2.73,43.75 104.8,87.26 -78.03,37.5 -36.34,-48.71 -50.59,71.9 -64.45,-9.34 -119.33,-19.92 -218.53,-19.9l-78.64 -95.8c3.57,-142.81 32.4,-141.88 35.07,-273.31 2.38,-118.55 -18.88,-152.89 18.85,-251.63 33.33,64.83 16.33,153.04 -10.06,283.45 88.32,-22.27 86.15,-58.18 144.19,-106.94 -54.01,-40.47 -60.45,-82.41 -59.49,-150.4 35.07,57.98 54.82,74.57 131.89,85.68 9.81,-98.13 25.7,-91.75 21.73,-209.05 -3.57,-2.03 -9.72,-4.18 -11.29,-5.05 -1.59,-0.87 -9.25,-4.44 -11.16,-5.57l-37.71 -308.95c-77.28,-2.43 -71.24,11.52 -165.31,16.74 68.74,-36.98 69.3,-7.77 101.38,-95.38 -5.34,-4.52 -12.77,-10.73 -16.19,-13.43l-139.49 37.05c-2.18,-7.72 -9.23,-35.62 -10.85,-41.48l-12.5 -41.72c-39.19,58.42 -15.26,88.94 -49.81,156.61 -62.45,-65.96 -44.41,-42.32 -128.24,-77.1 -3.25,83.75 11.66,165.57 -9.71,241.34 -25.5,90.35 -5.6,-38.58 -33.59,90.88 -6.85,31.56 -5.75,63 -6.5,95.84 63.29,37.3 23.12,-18.8 104.54,25 17.06,9.17 2.87,15.72 53.26,29.04 -25.65,-108.2 0.43,-85.28 -15.64,-147.1 -39.68,-152.69 -8.32,18.89 -59.93,-102.22l83.57 1.16c31.59,236 45.63,532.33 36.23,792.93 -11.22,-0.03 -59.11,4.29 -59.43,4.29 -107.76,-2.35 -2.06,-22.21 -133.67,-26.74 -34.52,73.85 12.36,15.61 -53.43,69.21l137.58 141.06c89.81,88.82 58.65,15.14 130.59,59.55 -16.53,62.08 -31.88,61.26 -72.26,99.55l106.26 69.73c-4.12,5.75 -12.24,11.2 -15.49,14.54 -3.11,3.19 -11.32,10.29 -14.74,14.15 -31.33,35.13 -87.16,41.95 25.29,101.21 93.15,-155.31 15,-88.88 28.46,-296.83 50.85,88.82 106.69,138.22 117.04,246.91l15.72 156.08c5.57,55.81 6.33,129.49 37.97,174.48 3.92,-5.98 6.1,-15.09 7.95,-19.9 1.86,-4.79 5.54,-13.95 7.81,-19.81 2.63,-6.82 11.37,-31.36 14.38,-38.93l31.3 -68.86c2.87,-4.41 6.88,-10.53 10.04,-14.59 89.13,-114 167.6,-16.45 345.44,-10.79 -30.52,111.67 14.53,141.23 -80.81,175.34 -97.21,34.72 -80.7,-23.38 -136.95,59.84 -42.32,-73.35 -46.93,-58.04 -118.28,-94.59 69.09,-42.09 32.98,-2.49 75.62,-7.6l54.09 -10.85c2.88,-7.1 13.03,-2.81 18.45,-6.43l-79.91 -29.16c-0.87,-0.14 -68.69,-0.63 -74.43,-0.69l-128.88 129.4c20.28,96.01 52.91,157.18 49.49,273.99 -4.7,161.46 -53,92.51 47.48,205.87l23.76 -88.36c5.74,-40.93 -31.51,13.29 8.15,-63.41 115.94,44.82 4,55.61 178.48,54.62 5.56,-61.09 0.29,-111.88 3.45,-162.06 6.15,-97.08 -27.62,-59.49 33.38,-88.7 -52.82,95.05 -2.37,179.49 -7.02,242.41 -3.39,45.94 0.06,15.05 -12.85,46.67l-53.37 99.38c-7.1,14.47 -2.26,-18.28 -26.83,60.01 89.75,-21.9 74.9,-33.59 158.81,-58.39 17.49,44.9 80.76,93.43 17.67,102.83 -95.26,14.19 18.62,5.25 -44.85,-25.67 -144.36,-70.4 -46.2,248.59 -50.27,326.53 125.95,-38.06 2.33,-9.08 80.82,-50.21 60.65,-31.76 -79.25,-29.97 80.11,-19.49 8.5,82.4 -14.32,100.19 -15.92,189.26l131.26 27.91c-95.76,44.23 -69.27,-17.55 -88.59,121.42 54.56,14.27 66.08,-36.29 82.58,-44.84l-44.29 140.85c4.38,3.46 11.31,8.13 15.78,12.16l44.38 59.03c2.84,4.49 5.8,11.25 8.58,15.75l49.34 72.69c80.59,101.44 243.72,117.8 330.71,25.81 61.23,50.07 50.76,57.15 152.95,74.47 -26.28,-73.1 -33.82,-62.46 -56.07,-135.03 73.19,55.63 49.95,44.58 92.68,115.59 34.69,57.64 -7.02,18.04 45.42,59.7l123.54 54.09c50.51,12.68 10.79,20.95 82.15,5.95l127.52 -82.9c-17.15,-52.79 -23.18,-93.14 -26.11,-169.78l-97.58 69.76c-51.86,38.73 26.69,23.53 -54.71,32.29 90.91,-8.56 139.06,-218.63 76.78,-282.35l41.75 80.95c1.36,3.63 6.09,22.63 7.1,18.71 1.1,-4.09 3.95,13.64 7.43,19.7 128.67,-20.42 37.3,-13.9 124.47,-47.19 26.33,41.56 28.86,74.83 11.48,100.76l-27.41 20.95c-55.05,52.96 -118.43,79.68 2.06,176.82 66.66,53.72 119.16,-1.94 145.85,78.93 -144.63,47.22 -65.09,-27.96 -131.84,124.44 7.51,4.12 18.65,5.92 24.83,6.76 5.63,0.72 16.59,4.58 22.92,4.9l35.91 -1.02c51.89,-13.4 23.93,-36.69 23.87,-39.97 -68.95,69.71 28.77,79.16 53.6,91.35 4.38,2.14 17.2,12.44 20.57,6.7 3.42,-5.86 14.79,2.32 21.17,5.94 -66.89,177.73 -0.78,65.59 1.72,175.9 1.71,75.24 -11.61,42.96 -40.73,132.56l134.77 105.12c62.97,-10.59 20.13,-1.51 63.84,-21.12l48.24 -27.12c5.86,-13.05 16.68,-11.25 25.52,-16.07 -85.83,234.58 14.86,317.22 -23.67,496.92 -32.63,13.14 -59.31,-4.93 -127.6,-14.88 -3.71,167.02 -22.1,103.09 -148.34,164.21l77.1 37.62c-31.47,20.22 -61.03,34.95 -76.49,78.75 -48.32,136.91 0.12,72.34 12.01,92.13l64.37 -68.49c34.57,-30.66 7.28,-20.91 53.54,-33.01 -24.94,22.95 -28.54,7.89 -45.97,61.03l1.33 62.86 72.23 -9.14c0.99,-3.65 8.06,1.83 10.35,4.88 -12.82,86.52 -75.91,47.31 -149.32,103.06l296.39 -43.72c-57.84,127.49 5.31,-25.35 -63.03,74.32 -41.51,60.51 -30.72,-32.78 -25.7,64.6z"/>
  <path class="fil5" d="M13807.92 11147.86c-112.92,-26.51 -55.25,-25.62 -139.55,-70.84 -43.94,80.58 -5.22,32.55 -30.08,115.57 -28.28,94.44 -26.89,57.11 -89.43,114.22l-91.74 110.64c-1.92,-4.18 -8.39,10.12 -12.82,14.93 -4.04,-5.83 -7.84,-14.06 -10.04,-18.7 -29.24,-61.64 -57.09,-88.42 -17.35,-186.17 90.5,-222.51 -16.44,149.01 28.6,-58.8 -76.75,23.7 -80.49,35.62 -95.08,115.33 -61.26,-17.95 -58.74,-0.31 -109.12,-69 -1.72,-2.32 -4.12,-9.58 -5.54,-11.72 -1.31,-1.92 -3.51,-8.91 -4.7,-10.59l-39.63 -22.16c-65.84,-30.63 -28.25,-36.46 -45.91,-76.4 -49.4,25.32 -44.12,22.97 -75.54,57.05 1.48,-110.25 0.64,-87.74 -24.04,-126.41 -68.17,114.23 -0.79,92.79 22.24,202.87l-94.24 153.42c-3.13,-4.96 -5.51,-12.94 -6.35,-16.45l-2.44 -114.43c51.58,-330.62 6.47,-133.28 102.19,-352.23l53.29 133.03c25.12,-43.8 30.95,-130.5 38.29,-188.81 14.79,-117.71 17.26,-67.09 -26.28,-162.06 5.13,-1.68 13.77,-2.12 16.04,-2.29 109.12,-7.6 -21.47,41.16 39.04,2.29 1.33,-89.98 9.02,-48.9 -17.32,-95.26 -46.2,14.57 -22.36,9.2 -48.87,24.78l61.11 -211.55c-51.05,25.23 -90.87,43.83 -157.88,54.1l20.6 -222.46c4.17,4.35 8.58,11.4 10.67,14.59l64.6 119.19c3.88,-5.48 7.66,-13.75 10.35,-17.31 2.67,-3.51 7.54,-12.36 11,-16.45l129.54 -72.58c99.09,-42.66 8.94,-4.9 48.15,-99.4 -110.17,39.88 -124.99,63.61 -191.38,-39.19 -276.79,-35.59 -745.91,-579.58 -938.78,-518.82 -45.4,108.23 58.88,231.28 128.79,313.63 44.21,52.03 77.71,72.77 126.53,123.54 331.37,344.48 540.16,389.9 521.97,642.09 -182.13,51.83 -235.59,26.34 -396.75,-72.34 -107.41,-65.76 -929.81,-519.31 -997.51,-475.08 -176.71,115.45 386.95,453.06 440.41,485.9 488.53,300.01 506.11,210.12 536.82,488.27 -403.83,14.5 -229.9,-114.46 -924.53,-112.75 -380.34,0.96 -187.7,249.37 -7.19,368.79 75.36,49.83 261.75,27.03 381.03,16.59 292.68,-25.64 574.36,-56.18 670.99,172.8 9.22,163.65 -724.25,597.68 -771.67,645.95 -116.12,118.11 -97.75,163.31 2.29,274.55 250.53,-2.85 405.25,-127.23 575.87,-244.41 112.98,-77.6 136.1,-139.21 277.48,-113.77 136.27,24.54 256.88,20.04 368.62,-17.81 160.61,-54.39 -26.69,-19.75 273.27,-140.6 420.48,-169.39 358.61,-230.02 411.98,-807.28zm-488.24 -990.06c-39.21,94.5 50.94,56.74 -48.15,99.4l-129.54 72.58c-3.46,4.09 -8.33,12.94 -11,16.45 -2.69,3.56 -6.47,11.83 -10.35,17.31l-64.6 -119.19c-2.09,-3.19 -6.5,-10.24 -10.67,-14.59l-20.6 222.46c67.01,-10.27 106.83,-28.87 157.88,-54.1l-61.11 211.55c26.51,-15.58 2.67,-10.21 48.87,-24.78 26.34,46.36 18.65,5.28 17.32,95.26 -60.51,38.87 70.08,-9.89 -39.04,-2.29 -2.27,0.17 -10.91,0.61 -16.04,2.29 43.54,94.97 41.07,44.35 26.28,162.06 -7.34,58.31 -13.17,145.01 -38.29,188.81l-53.29 -133.03c-95.72,218.95 -50.61,21.61 -102.19,352.23l2.44 114.43c0.84,3.51 3.22,11.49 6.35,16.45l94.24 -153.42c-23.03,-110.08 -90.41,-88.64 -22.24,-202.87 24.68,38.67 25.52,16.16 24.04,126.41 31.42,-34.08 26.14,-31.73 75.54,-57.05 17.66,39.94 -19.93,45.77 45.91,76.4l39.63 22.16c1.19,1.68 3.39,8.67 4.7,10.59 1.42,2.14 3.82,9.4 5.54,11.72 50.38,68.69 47.86,51.05 109.12,69 14.59,-79.71 18.33,-91.63 95.08,-115.33 -45.04,207.81 61.9,-163.71 -28.6,58.8 -39.74,97.75 -11.89,124.53 17.35,186.17 2.2,4.64 6,12.87 10.04,18.7 4.43,-4.81 10.9,-19.11 12.82,-14.93l91.74 -110.64c62.54,-57.11 61.15,-19.78 89.43,-114.22 24.86,-83.02 -13.86,-34.99 30.08,-115.57 84.3,45.22 26.63,44.33 139.55,70.84 25.76,-153.91 37.71,-323.57 65.18,-484.71 55.09,-323.42 -21.23,-272.89 -41.48,-489.8 -166.29,-132.22 -212.21,-515.02 -304.95,-720.59 -68.48,-151.91 -141.46,-175.43 -292.5,-231.01 -78.93,-29.04 -310.17,-103.35 -380.02,-101.79 -11.51,124.36 64.43,177.64 153.8,229.27 91.57,52.91 186.86,107.79 269.47,132.59 14.65,196.99 134.65,493.55 42.26,675.98z"/>
  <path class="fil5" d="M9859.26 10282.06c63.26,-16.36 264.22,-345.12 301.58,-417.06 143.88,-277.07 27.73,-283.42 -54.96,-554.26l-275.28 11.37c-225.93,8.94 -18.13,19.7 -248.67,109.27l-2.93 153.71 -103.88 49.77c52.82,27.76 -61.32,45.37 74.35,8.53 -0.26,64.69 -7.66,28.14 -24.6,56.39 -136.62,228.17 25.21,-133.11 -46.99,70.43 51.83,23.52 100.77,38.58 174.27,50.79l-11.37 107.96c-103.09,-68.66 -27.85,-79.45 -130.18,-130.27 -3.08,5.2 -5.31,8.76 -5.43,17.29 -0.14,8.24 -3.97,13.69 -3.91,17.03 0.75,36.98 47.95,214.27 89.57,266.46 55.67,69.81 25.35,41.56 104.31,67.29 -2.18,-144.05 -47.05,-131.25 14.62,-208.79 73.13,151.82 -58.83,389.36 149.5,324.09zm0 0c-208.33,65.27 -76.37,-172.27 -149.5,-324.09 -61.67,77.54 -16.8,64.74 -14.62,208.79 -78.96,-25.73 -48.64,2.52 -104.31,-67.29 -41.62,-52.19 -88.82,-229.48 -89.57,-266.46 -0.06,-3.34 3.77,-8.79 3.91,-17.03 0.12,-8.53 2.35,-12.09 5.43,-17.29 102.33,50.82 27.09,61.61 130.18,130.27l11.37 -107.96c-73.5,-12.21 -122.44,-27.27 -174.27,-50.79 72.2,-203.54 -89.63,157.74 46.99,-70.43 16.94,-28.25 24.34,8.3 24.6,-56.39 -135.67,36.84 -21.53,19.23 -74.35,-8.53l103.88 -49.77 2.93 -153.71c230.54,-89.57 22.74,-100.33 248.67,-109.27 -55.81,-52.88 -122.38,-80.81 -220.42,-96.85 -97,18.24 -568.77,587.27 -636.12,969.81 -197.51,31.94 -350.14,56.04 -414.22,235.86 -125.86,353.21 184.63,761.8 552.9,572.3 206.01,-105.99 150.89,-236.9 273.36,-351.07l47.78 104.22c137.92,515.22 783.41,348.55 656.25,-131.83 -42.06,-158.87 -110.17,-203.98 -259.59,-241.08 13.38,-67.03 0.79,-37.59 28.72,-101.41z"/>
  <path class="fil5" d="M10316.44 8962.89c26.1,-107.26 84.09,-147.67 51.66,-284.26 -197.95,-60.34 -313.31,19.78 -414.86,104.28 -113.82,94.67 -163.16,195.56 -74.86,357.16 93.4,30.37 213.37,16.5 329.31,21.14 53.6,85.25 50.99,215.81 116.98,283.75 246.74,253.92 465.56,-380.54 240.62,-666.67l-82.04 111.42c-19.02,42.46 -22.04,69.88 -53.43,123.1l-113.38 -49.92z"/>
  <path class="fil5" d="M7022.31 8016.95c64.63,-58.42 80.23,-80.61 186.31,-95.78 125.95,325.95 256.65,105.73 398.26,344.86 -126.67,95.41 -248.64,59.55 -411.52,48.01 -98.42,-215.87 -95.92,-63.18 -173.05,-297.09zm1928.54 -671.77c46.21,-21.58 72.2,-18.65 116.79,-38.78 -9.58,209.34 246.38,238.58 -77.1,736.92l-17.9 30.54c-23.09,33.8 -3.92,12.74 -31.97,41.83 -163.07,169.02 -361.54,268.63 -613.84,162.53 -80.81,-34 -284,-192.58 -158.96,-235.31 150.23,-51.34 257.96,144.83 441.81,21 67.76,-45.62 225.41,-216.21 257.46,-266.83 78.93,-124.7 83.19,-289.05 83.71,-451.9zm-1332.42 284.79c-123.69,-62.27 -329.14,-195.82 -134.83,-342.74 221.94,-167.75 312.47,38.9 338.14,215.2l-203.31 127.54zm-636.44 -334.56c61.47,-246.7 371.03,-347.21 518.29,-344.05 122.85,2.64 36.2,-7.43 85.54,20.51 -62.21,127.11 3.34,14.3 -61.98,78.52 -32.87,32.31 -29.59,18.8 -65.53,60.56l-263.12 412.68 -112.17 -116.02c-42.64,-50.24 -63.38,-67.18 -101.03,-112.2zm1062.17 -422.4c5.86,-2.32 12.82,-4.58 18.86,-6.93 41.53,-16.07 29.99,-7.66 71.41,-27.79 230.11,-111.85 189.73,-204.87 402.27,-160.26 -26.81,168.15 -159.16,199.65 -223.33,293.84 122.38,252.5 125.78,-26.25 394.87,373.31 -73.59,196.7 -412.62,408.33 -467.38,399.63 -111.51,-67.76 -194.52,-170.88 -220.69,-319.6 155.42,8.39 133.93,94.16 270.49,140.98 111.85,-77.28 186.6,-129.49 199.48,-221.01 -102.02,-61.2 -191.33,-58.97 -322.56,-77.33l-178.94 -370.65 55.52 -24.19zm1040.59 -318.87c231.76,-11.6 417.87,195.16 251.58,356.99 -41.4,-29.68 -237.86,-290.24 -251.58,-356.99zm-1142.66 220.66c-350.06,-190.99 576.56,-721.75 596.11,-449.35 6.12,85.43 20.54,30.17 -54.96,89.72 -43.48,34.29 -138.37,87.16 -189.33,113.39 -276.75,142.33 -234.09,190.25 -351.82,246.24zm1527.9 371.28c171.46,-162.7 280.12,-456.68 78.06,-686.04 -31.39,-35.62 -258.92,-183.67 -301.82,-200.84 -157.74,-63.15 -247.69,47.51 -333.17,99.58 -98.89,-66.89 -770.42,-1039.69 -1316.1,-29.76 -120.43,222.92 -14.65,208.96 -273.88,297.43 -418.31,142.78 -410.01,296.74 -432.34,669.05 -14.97,249.45 31.12,275.97 109.52,447.89 -85.36,211.37 -277.85,201.74 -126.75,522.93 87.89,186.87 146.04,318.41 397.33,340.86 348.08,31.1 459.82,-128 582.22,-148.98 43.02,-7.36 397.19,168.3 512.99,207.05 366.04,122.5 1020.66,17.55 1145.91,-248.87 108.46,-230.69 73.94,-784.14 25.27,-997.75 -22.63,-99.35 -67.59,-156.09 -67.24,-272.55z"/>
  <path class="fil6" d="M15449.85 13318.23c-166.03,122.15 -214.39,208.71 -474.84,230.95 -251.69,21.5 -399.07,38.23 -585.56,-81.53 -279.65,-179.61 -394.81,-748.84 -122.44,-993.05 70.38,138.42 184.63,317.45 227.42,477.57l291.2 -52.62 152.49 374.36c156.84,0.78 302.68,-106.31 473.71,-126.35l38.02 170.67zm-403.13 -367.11c0.84,-3.8 4.52,-12.82 5.33,-17.58 16.22,-98.47 -78.11,-375.78 -105.61,-467.7 -152.46,19.06 -172.68,64.1 -307.09,94.47l-193.16 -414.04 118.46 -145.03c42.03,62.51 42.82,229.09 58.45,313.33 187.85,-45.28 303.33,-250.65 454.16,-276.18 63.32,150.43 58.62,475.34 134.71,580.55 161.16,-41.83 401.97,-283.72 522.82,-367 35.47,43.14 146.68,297.93 169.16,351.16 53.75,127.4 -43.22,263.35 -119.36,335.4 -46.84,-65.12 -59.72,-196.84 -106.02,-284.2 -136.3,-3.43 -500.63,224.16 -547.36,317.39l504 -259.09 57.14 173.55c13.14,51.69 34.66,109.32 25.29,149.15 -15.63,66.25 -140.39,182.54 -208.61,202.47l-72.98 -142.19c-174.36,7.31 -302.11,104.1 -472.7,125.3l-136.88 -362.32c-6.82,-1.83 -15.78,-2.99 -20.86,-3.48l-62.88 -4.55c-27.56,0.69 -40.27,4.55 -63.38,7.42 -69.85,8.67 -66.34,14.22 -139.58,12.47 -80.93,-106.01 -188.64,-319.79 -251.38,-423.26 21.73,-86.21 85.17,-178.48 137.2,-247.43l160.35 401.08c124.99,5.16 198.32,-50.5 302.37,-67.39 44.18,61.27 111.88,343.27 152.03,434.84 3.16,-5.22 5.51,-13.37 6.38,-17.14zm750.08 -717.54c-33.93,-44.55 -7.71,-22.1 -62.01,-43.54 -147.97,99.18 -413.44,321.45 -497.93,354.55 -34.46,-89.11 -52.19,-346.08 -89.55,-481.95l-59.84 -120.11c-142.83,78.9 -263.82,207.31 -398.35,279.56 -163.92,-254.47 44.58,-493.95 174.04,-596.35 135.64,-254.65 243.6,-295.43 302.69,-416.45l117.39 -238.05c39.53,-87.43 54.39,-151.25 78.9,-239.14 106.22,-380.88 219.69,-711.97 232.08,-1135.15 105.87,35.91 53.84,111.62 215.26,301.03 151.41,1.05 265.24,-103.9 405.66,-123.42l234.26 557.39c260.8,-34.75 322.03,-224.51 555.13,-305.76 56.01,99 90.96,262.05 128.12,383.1 49.05,159.74 -13.89,191.06 -106.25,316.61 -188.34,255.92 -564.96,486.61 -780.37,1160.79l-247.4 724.5c-92.76,-62.1 -149.38,-246.18 -201.83,-377.61zm1629.98 -4601.81c32.69,86.91 47.08,74.9 76.7,134.48 129.05,259.69 196.63,949.5 189.06,1221.91 -6.5,233.73 -201.89,948.26 -334.62,1177.79 -20.04,34.69 -16.42,28.86 -35.71,50.44 -21.09,-140.01 -154.95,-700.8 -218.07,-773.55 -91.69,77.04 -300.89,294.65 -401.22,336.1 -102.43,-229.7 -141.79,-470.08 -295.9,-654.94 -141.35,51.74 -260.8,253.72 -423.24,287.34 -66.54,-79.54 -85.8,-150.95 -128.64,-242.56 -147.79,-316.03 -115.54,-45.39 -167.37,-230.66 -4.5,7.54 -8.04,16.91 -11.23,23.79 -67.03,144.51 -104.8,188.92 -77.33,323.94 51.92,-71.21 13.46,-138.36 85.8,-216.53 66.98,15.75 40.7,-7.95 89.31,76.55l179.29 341.73c191.91,-30.9 281.37,-251.43 460.11,-304.28 35.74,112.43 95.49,210.44 137.06,332.82 36.63,107.9 73.27,253.69 136.62,330.65 122.93,-45.86 281.89,-243.49 391.82,-336.37 4.21,4.91 8.5,12.48 10.5,16.28l67.5 231.62c109.5,460.62 205.57,512.2 46.5,678.81l-56.85 -125.94c-31.77,-103.76 -61.41,-284.07 -117.42,-369.09 -205.49,78.41 -324.85,294.19 -547.74,334.05 -55.26,-67.39 -216.62,-483.05 -236.72,-576.31 -66.31,17.03 -163.78,44.79 -220.57,72.11 -89.46,43.02 -82.64,53.2 -190.02,66.8 -244.85,-289.49 -238.24,-331.4 -220.4,-552.2 -38.37,41.39 -48.21,-61.44 -42.38,68.37l-14.38 -112.43 -28.66 93.78c-4.73,24.22 -7.81,70.02 -9.84,96.21 -48.99,631.74 -196.11,1668.24 -705.01,2017.63 -10.38,59.4 -23.58,50.41 -88.73,110.57 -276,254.88 -411.49,490.74 -575.58,847.29 -82.9,180.13 -175.81,429.47 -124.55,630.96 137.69,541.2 478.14,648.53 999.11,588.86 260.68,-29.85 381.35,-156.17 531.98,-289.75 390.87,-346.63 412.33,-602.29 614.68,-989.33 115.16,-432.26 164.67,-578.34 371.75,-912.55 100.34,-161.89 215.81,-331.09 358.18,-461.79 484.96,-445.23 844.01,-1408.14 858.83,-2061.08 3.8,-167.25 -13.2,-253.03 -23.73,-398.81l-54.53 -352.67c-35.82,-205.28 -64.42,-467.59 -253.23,-591.18l-1.13 61.14z"/>
  <path class="fil5" d="M8464.93 10227.01c227.47,-112.52 278.7,-120.09 363.84,-277.92 335.52,-622.02 770.97,-790.46 889.43,-1060.86 -167.14,-106.02 -434.93,-26.75 -611.06,22.8 -205.92,57.93 -330.62,114.05 -394.37,299.26 -105.59,-132.97 41.91,-108.74 -221.53,-199.57 -246.56,-84.99 -852.51,-161.19 -1013.41,-22.94 30.49,98.19 54.54,74.49 116.29,150.55 49.57,61.05 74.87,112.92 111.73,159.94 86.27,110.08 164.18,189.15 256.54,291.37 231.21,256.02 362.32,532.33 509.5,557.8 -78.37,48.79 -38.49,36.2 -6.96,79.57z"/>
  <path class="fil5" d="M5001.49 10505.94c91.78,-77.89 200.56,-150.29 231.94,-265.56 83.28,-305.96 -178.01,-733.09 -323.05,-278.12 -220.16,690.71 -439.01,229.48 -431.24,1041.43 3.68,384.11 -50.7,539.96 117.01,859.5 221.12,421.27 531.26,799.75 986.7,977.07 401.45,156.29 188.4,-2.79 681.86,289.22 148.89,88.13 424.54,170.13 609.03,153.83 107.67,-9.52 116.58,-35.88 137.63,-133.14 -7.04,-4.38 -26.51,-14.36 -32.45,-17.18l-861.85 -479.04c-73.77,-50.5 -72.96,-34.96 -87.49,-107.24 295.73,-78.03 835.66,-38.96 972.25,-298.63 -111.41,-107.44 -488.01,-78.46 -703.44,-77.33 -302.49,1.57 -414.51,-57.81 -525.92,-246.21 67.03,-138.68 373.34,-295.87 565.69,-383.18 223.93,-101.67 564.64,-115.01 557.65,-366.93 -203.63,-117.48 -563.25,22.77 -763.37,112.89 -101.52,45.72 -214.48,122.32 -307.53,188.14 -118.12,83.51 -139.93,153.3 -243.63,133.72 -126.79,-23.96 -111.27,-76.2 63.35,-314.87 180.69,-246.93 260.77,-316.64 495.32,-449.43 304.6,-172.44 176.86,-458.86 -255.63,-230.89 -180.08,94.88 -360.41,307.21 -477.72,468.37 -65.9,90.53 -114.75,252.45 -277.85,149.21 -56.83,-90.21 -29.97,-259.84 -50.24,-377.67 -21.79,-126.41 -69.21,-242.2 -77.02,-347.96z"/>
  <path class="fil7" d="M16904.95 9314.43c142.57,-10.24 187.47,-143.82 323.66,-235.45l56.94 125.19c41.22,122.61 97.69,283.34 167.13,371.49 11.58,-20.36 45.6,47.66 -12.03,-124.9 -42.56,-127.49 -107.91,-350.26 -187.16,-434.96 -125.28,56.48 -226.45,168.59 -356.52,235.42 -12.96,-135.55 -103.44,-524.99 -191.18,-600.18 -63.06,100.28 144.39,498.05 199.16,663.39z"/>
  <path class="fil8" d="M17228.61 9078.98c-136.19,91.63 -181.09,225.21 -323.66,235.45 -54.77,-165.34 -262.22,-563.11 -199.16,-663.39 87.74,75.19 178.22,464.63 191.18,600.18 130.07,-66.83 231.24,-178.94 356.52,-235.42 79.25,84.7 144.6,307.47 187.16,434.96 57.63,172.56 23.61,104.54 12.03,124.9 -69.44,-88.15 -125.91,-248.88 -167.13,-371.49l-56.94 -125.19zm-1540.84 -140.86c51.83,185.27 19.58,-85.37 167.37,230.66 42.84,91.61 62.1,163.02 128.64,242.56 162.44,-33.62 281.89,-235.6 423.24,-287.34 154.11,184.86 193.47,425.24 295.9,654.94 100.33,-41.45 309.53,-259.06 401.22,-336.1 63.12,72.75 196.98,633.54 218.07,773.55 19.29,-21.58 15.67,-15.75 35.71,-50.44 132.73,-229.53 328.12,-944.06 334.62,-1177.79 7.57,-272.41 -60.01,-962.22 -189.06,-1221.91 -29.62,-59.58 -44.01,-47.57 -76.7,-134.48 -141.09,-10.35 -304.69,-121.86 -471.53,-114.05 -66.49,3.1 -412.74,122.38 -455.09,141.52 -89.25,40.38 -573.81,609.14 -575.32,656.57 68.6,202.15 200.81,413.98 276.43,655.47 6.1,-3.37 14.25,-17.09 16.86,-12.36l206.38 -202.38c48.04,-52.04 166.88,-155.65 249.31,-188.86 -40.4,55.66 -400.17,406.26 -465.99,432.54 -116.61,-123.07 -166.38,-403.86 -273.85,-559.68 -147.5,38.17 -193.51,337.9 -246.21,497.58z"/>
  <path class="fil8" d="M14863.16 11625.74c113.13,-11.08 -15.34,-17.11 40.67,17 48.01,29.27 -46.61,52.27 38.58,25.96 122.55,-37.88 -82.53,-98.47 119.22,-100.36 -85.37,-43.8 -56.31,-0.61 -78.12,-116.55l58.1 41.71c8.7,5.77 35.27,20.22 45.86,26.51 24.86,-41.36 14.07,-36.2 46.99,-71.85 3.63,-3.88 9.4,-8.64 13.23,-12.44 3.86,-3.83 9.86,-8.3 13.84,-12.04 146.1,-137.95 49.48,-37.24 148.57,-74.49 -12.42,-31.53 -45.19,-54.82 -52.71,-125.89 185.33,15.55 33.16,49.87 93.35,20.57 47.74,-23.23 -16.1,-36.93 63.09,-68.51l48.09 127.94c36.64,-24.68 -57.4,-28.86 73.71,-22.71l8.81 -104.77c0.85,-3.54 2.93,-11.14 3.63,-14.65l4.67 -62.8c114.49,37.77 30.43,13.84 74.55,40.06 5.63,3.36 11.22,7.34 16.79,10.73 5.43,3.28 11,7.31 16.33,10.53 5.25,3.13 11,7.05 16.19,10.1 186.16,108.42 290.68,66.36 307.65,235.5l-80.27 -4.35c-7.63,82.47 88.59,-31.64 -19.81,25.96 -23.99,-21.9 -22.36,-19.72 -65.99,-41.65 -135.08,-67.94 -201.89,-94.39 -282.44,-33.13l102.54 84.21c23.7,11.69 78.84,28.28 105.96,40.41l208.68 99.23c-6.18,1.94 -14.97,4.41 -18.28,6.58 -59.63,39.19 -53.4,35.39 -51.43,118.96 51.67,25.53 110.98,35.04 173.52,49.78l-0.69 221.55c-367.23,47.51 -48.91,-61.5 -371.23,-30.69l-49.46 11.28c0.03,6.44 3.25,15.06 4.99,18.65 76.75,159.02 243.6,73.91 249.66,72.52l-107.85 76.61c75.83,148.14 53.73,67.47 14.65,112.37 52.45,131.43 109.07,315.51 201.83,377.61l247.4 -724.5c215.41,-674.18 592.03,-904.87 780.37,-1160.79 92.36,-125.55 155.3,-156.87 106.25,-316.61 -37.16,-121.05 -72.11,-284.1 -128.12,-383.1 -233.1,81.25 -294.33,271.01 -555.13,305.76l-234.26 -557.39c-140.42,19.52 -254.25,124.47 -405.66,123.42 -161.42,-189.41 -109.39,-265.12 -215.26,-301.03 -12.39,423.18 -125.86,754.27 -232.08,1135.15 -24.51,87.89 -39.37,151.71 -78.9,239.14l-117.39 238.05c-59.09,121.02 -167.05,161.8 -302.69,416.45z"/>
  <path class="fil8" d="M15599.21 9285.85l14.79 0.7c-17.84,220.8 -24.45,262.71 220.4,552.2 107.38,-13.6 100.56,-23.78 190.02,-66.8 56.79,-27.32 154.26,-55.08 220.57,-72.11 20.1,93.26 181.46,508.92 236.72,576.31 222.89,-39.86 342.25,-255.64 547.74,-334.05 56.01,85.02 85.65,265.33 117.42,369.09l56.85 125.94c159.07,-166.61 63,-218.19 -46.5,-678.81l-67.5 -231.62c-2,-3.8 -6.29,-11.37 -10.5,-16.28 -109.93,92.88 -268.89,290.51 -391.82,336.37 -63.35,-76.96 -99.99,-222.75 -136.62,-330.65 -41.57,-122.38 -101.32,-220.39 -137.06,-332.82 -178.74,52.85 -268.2,273.38 -460.11,304.28l-179.29 -341.73c-48.61,-84.5 -22.33,-60.8 -89.31,-76.55 -72.34,78.17 -33.88,145.32 -85.8,216.53z"/>
  <path class="fil8" d="M12692.99 9087.45c-5.8,79.65 -7.34,239.83 13.87,314.66 50.61,178.74 241.01,140.66 353.5,269.3 40.52,46.38 68.54,115.19 44.64,184.78 -32.28,93.95 29.85,28.31 -58.94,74.54 23.7,97.29 31.59,34.81 -30.37,87.28l101.64 46.18c34.2,15.17 33.62,17.49 71.68,34.32l-60.71 20.1c66.39,102.8 81.21,79.07 191.38,39.19 92.39,-182.43 -27.61,-478.99 -42.26,-675.98 -82.61,-24.8 -177.9,-79.68 -269.47,-132.59 -89.37,-51.63 -165.31,-104.91 -153.8,-229.27 69.85,-1.56 301.09,72.75 380.02,101.79 151.04,55.58 224.02,79.1 292.5,231.01 92.74,205.57 138.66,588.37 304.95,720.59l-10 -82.12c109.7,46.12 69.41,31.96 101.29,16.5 -5.22,-4.41 -13.37,-9.22 -16.59,-12.06l-44.88 -48.18c-0.98,-2.33 -1.97,-9.35 -2.43,-11.67l-32.64 -127.19c36,-18.83 -64.25,-58.8 64.19,-0.12 -52.79,-133.34 -108.1,-226.19 -162.72,-381.58 -182.92,-520.35 -133.87,-400.87 -544.43,-504.23 -183.24,-46.12 -201.22,-83.85 -416.8,-89.92l-73.62 154.67z"/>
  <path class="fil0" d="M5001.49 10505.94c7.81,105.76 55.23,221.55 77.02,347.96 20.27,117.83 -6.59,287.46 50.24,377.67 163.1,103.24 211.95,-58.68 277.85,-149.21 117.31,-161.16 297.64,-373.49 477.72,-468.37 432.49,-227.97 560.23,58.45 255.63,230.89 -234.55,132.79 -314.63,202.5 -495.32,449.43 -174.62,238.67 -190.14,290.91 -63.35,314.87 103.7,19.58 125.51,-50.21 243.63,-133.72 93.05,-65.82 206.01,-142.42 307.53,-188.14 200.12,-90.12 559.74,-230.37 763.37,-112.89 6.99,251.92 -333.72,265.26 -557.65,366.93 -192.35,87.31 -498.66,244.5 -565.69,383.18 111.41,188.4 223.43,247.78 525.92,246.21 215.43,-1.13 592.03,-30.11 703.44,77.33 -136.59,259.67 -676.52,220.6 -972.25,298.63 14.53,72.28 13.72,56.74 87.49,107.24l861.85 479.04c5.94,2.82 25.41,12.8 32.45,17.18 -21.05,97.26 -29.96,123.62 -137.63,133.14 -184.49,16.3 -460.14,-65.7 -609.03,-153.83 -493.46,-292.01 -280.41,-132.93 -681.86,-289.22 -455.44,-177.32 -765.58,-555.8 -986.7,-977.07 -167.71,-319.54 -113.33,-475.39 -117.01,-859.5 -7.77,-811.95 211.08,-350.72 431.24,-1041.43 145.04,-454.97 406.33,-27.84 323.05,278.12 -31.38,115.27 -140.16,187.67 -231.94,265.56zm-4743.59 -423.1c-41.05,-334.76 -37.04,-673.88 137,-947.33 300.71,-472.49 1057.09,-64.92 1146.14,53.2 45.23,59.96 73.85,97.7 124.65,150.17 82.55,85.34 56.85,51.69 118.23,155.42 179.32,303.09 424.89,1027.21 497.46,1143.53 76.23,122.21 134.68,233.53 192.78,357.63 34.55,73.82 68.08,109.67 99.23,170.9 119.22,234.29 110.32,206.82 283.66,391.13 255.35,271.53 513.68,416.92 658.63,585.88l246.04 300.48c111.44,196.32 536.62,638.85 104.77,1153.22 -227.44,270.93 -500.66,304.31 -829.04,258.19 -249.26,-35.01 -513.98,-307.5 -656.78,-427.96 -196.14,-165.49 -355.1,-394.47 -496.53,-598.64 -250.13,-361.08 -186.34,-322.85 -492.1,-605.17 -127.03,-117.31 -191.91,-152.43 -285.72,-259.76 -44.53,-50.93 -75.42,-96.56 -128.99,-144.92l-258.48 -289.48c-262.92,-403.84 -401.72,-963.61 -460.95,-1446.49zm9601.36 199.22c-27.93,63.82 -15.34,34.38 -28.72,101.41 149.42,37.1 217.53,82.21 259.59,241.08 127.16,480.38 -518.33,647.05 -656.25,131.83l-47.78 -104.22c-122.47,114.17 -67.35,245.08 -273.36,351.07 -368.27,189.5 -678.76,-219.09 -552.9,-572.3 64.08,-179.82 216.71,-203.92 414.22,-235.86 67.35,-382.54 539.12,-951.57 636.12,-969.81 98.04,16.04 164.61,43.97 220.42,96.85l275.28 -11.37c82.69,270.84 198.84,277.19 54.96,554.26 -37.36,71.94 -238.32,400.7 -301.58,417.06zm-7861.56 -571.17c199.42,153.19 513.21,791.89 691.17,892.48l26.92 -141.99c188.98,53.29 563.98,234.52 740.98,347.88l441.31 327.05c114.6,95.23 153.07,129.49 134.27,340.48l-48.85 173.84c-84.35,-130.53 6.76,-223.41 -48.79,-367.6 -8.03,119.16 -35.94,228.17 -26.02,339.64 -60.42,-54.88 -34.86,-6.67 -63.49,-95.11l-34.75 73.35c8.7,7.11 54.47,28.49 59.66,33.33 63.7,59.09 13.2,-39.71 62.11,80.53 -262.37,-35.19 -619.21,-320.36 -793.4,-513.08 -36.14,-39.97 -66.8,-61.23 -110.63,-98.45 2.9,-111.03 65.47,-350.22 34.11,-416.42 -65.87,81.74 -35.79,130.04 -59.2,230.98l-40.38 99c-25.52,-19.43 -133.63,-107.44 -157.01,-135.72l-702.81 -983.1c-49.19,-74.98 -70.89,-133.8 -105.2,-187.09zm6467.23 516.12c-31.53,-43.37 -71.41,-30.78 6.96,-79.57 -147.18,-25.47 -278.29,-301.78 -509.5,-557.8 -92.36,-102.22 -170.27,-181.29 -256.54,-291.37 -36.86,-47.02 -62.16,-98.89 -111.73,-159.94 -61.75,-76.06 -85.8,-52.36 -116.29,-150.55 160.9,-138.25 766.85,-62.05 1013.41,22.94 263.44,90.83 115.94,66.6 221.53,199.57 63.75,-185.21 188.45,-241.33 394.37,-299.26 176.13,-49.55 443.92,-128.82 611.06,-22.8 -118.46,270.4 -553.91,438.84 -889.43,1060.86 -85.14,157.83 -136.37,165.4 -363.84,277.92zm1851.51 -1264.12l113.38 49.92c31.39,-53.22 34.41,-80.64 53.43,-123.1l82.04 -111.42c224.94,286.13 6.12,920.59 -240.62,666.67 -65.99,-67.94 -63.38,-198.5 -116.98,-283.75 -115.94,-4.64 -235.91,9.23 -329.31,-21.14 -88.3,-161.6 -38.96,-262.49 74.86,-357.16 101.55,-84.5 216.91,-164.62 414.86,-104.28 32.43,136.59 -25.56,177 -51.66,284.26zm-846.45 -1816.81c-0.35,116.46 44.61,173.2 67.24,272.55 48.67,213.61 83.19,767.06 -25.27,997.75 -125.25,266.42 -779.87,371.37 -1145.91,248.87 -115.8,-38.75 -469.97,-214.41 -512.99,-207.05 -122.4,20.98 -234.14,180.08 -582.22,148.98 -251.29,-22.45 -309.44,-153.99 -397.33,-340.86 -151.1,-321.19 41.39,-311.56 126.75,-522.93 -78.4,-171.92 -124.49,-198.44 -109.52,-447.89 22.33,-372.31 14.03,-526.27 432.34,-669.05 259.23,-88.47 153.45,-74.51 273.88,-297.43 545.68,-1009.93 1217.21,-37.13 1316.1,29.76 85.48,-52.07 175.43,-162.73 333.17,-99.58 42.9,17.17 270.43,165.22 301.82,200.84 202.06,229.36 93.4,523.34 -78.06,686.04zm1341.91 -4083.6c122.06,-34.4 168.01,-21.93 265.3,30.72 211.8,114.52 378.39,220.04 419.84,337.78l6.96 27.73c83.48,270.05 147.68,407.34 -12.91,689.84 -78.66,138.42 -413.37,205.6 -461.49,206.64 -433.63,9.58 -771.96,-360.49 -815.99,-549.04 -123.05,-527.05 226.42,-638.93 598.29,-743.67zm-1652.2 1393.83c-275.24,-6.52 -708.02,-57.11 -918.7,-173.37 -198.23,-109.41 -401.89,-422.17 -285.37,-705.65 172.62,-420.08 569.87,-629.27 1033.77,-600.9 221.24,13.51 225.39,132.09 197.11,337 -309.83,98.68 -653.47,-34.14 -779.1,191.33 -23.93,42.9 -84.55,168.84 -87.97,210.56 -11.17,136.71 162.03,307.21 275.94,342.94 178.91,56.1 451.34,-49.37 593.97,26.69 49.02,140.07 16.3,264.22 -29.65,371.4zm-2216.11 -53.72c-212.77,13.2 -428.99,0.87 -618.55,-2.93 -370.03,-7.39 -499.72,74.78 -527.51,-110.22 -21,-139.7 -53.81,-1183.16 -29.97,-1268.62l350.55 6.62 -40.03 107.15c157.83,-10.53 -20.1,-23.9 108.83,-55l36.5 856.17c134.12,14.94 236.02,-1.74 354.78,-11.72 89.72,-7.54 275.42,-36.38 332.12,25.58 10.45,13.84 38.55,386.4 33.28,452.97zm-4849.91 -726.24c80.76,48.64 52.94,97.55 171.92,136.74 81.66,-103.67 282.41,-612.66 448.3,-793.51l455.27 33.3c-31.94,113.85 -1.83,101.03 -76.44,191.44 -82.52,99.99 -41.88,47.89 -91.72,180.02 -30.86,81.74 -28.77,51.89 -52.04,102.54l-266.89 626.98c-72.98,139.23 -102.39,225.15 -316.87,212.85 -134.33,-125.31 -303.38,-408.1 -382.74,-580.28 -116.41,52.65 -52.21,30.72 -142.13,321.39 -38.26,123.78 -78.58,189.25 -116.47,304l-312.81 2.64c23.56,-81.6 30.55,-22.83 53.52,-38.84 56.68,-39.51 22.92,26.54 49.02,-41.83 -76.34,-29.97 80.29,31.38 -37.47,-6.01 -204.36,-64.88 -226.14,-278.75 -290.22,-430.02 -24.97,-59 -77.13,-124.53 -102.91,-174.04l-297.35 -572.8c-143.15,-223.58 -30.08,-218.45 260.02,-209.63 4.06,4.81 8,12.56 10.09,15.95 2.06,3.4 7.37,11.72 9.89,15.9 2.5,4.06 6.82,11.22 9.52,15.75 193.24,320.23 152.31,120.49 266.34,351.21 96.85,196.03 109.67,261.03 276.78,429.53 93.75,-78.86 89.77,-153.5 248.96,-261.61 103.06,20.92 176.02,73.24 226.43,168.33zm2381.37 443.83c173.52,-9.98 259.06,-37.36 442.03,25.09 14.19,146.95 29.13,239.71 -113.9,256.16 -161.28,18.57 -850.05,-54.1 -1066.12,-55.31 -84.87,-264.58 6.9,-1025.89 -34.9,-1363.41 380.75,-36.37 732.22,-102.48 1098.64,13.11 -15.29,401.31 -405.23,143.09 -896.05,232.35 -1.57,102.22 14.01,177.86 68.4,269.53 270.05,31.15 573.43,-72.23 839.19,8.87 9.49,81.71 24.72,218.39 -45.37,241.8 -4.84,1.63 -13.31,5.83 -19.43,7.6l-738.54 5.63c-2.09,38.2 -1.95,354.84 0,369.14 98.51,5.19 133.02,-25.79 248.33,-28.83 113.88,-2.99 159.65,21.61 217.72,18.27zm5356.19 11311.78l2418 -13.35c252.36,-6.73 543.39,-8.96 796.71,-1.45 528.32,15.72 2885.39,-13.98 3159.97,-94.39 64.25,-11.66 131.71,-9.71 174.73,-25.9 65.53,-24.68 -15.08,-54.3 159.68,-30.6l-1.53 -150.29c63.12,140.05 -5.72,70.46 115.73,17.61 -23,139.64 -49.1,7.02 -15.2,138.16l43.14 -24.42c78.98,-28.08 -3.92,44.06 297.4,27.96 133.44,-7.14 310.23,9.2 471.83,9.2 -44.7,-57.18 -6.56,-65.33 28.08,-134.34l-127.17 -14.12c30.52,-20.86 69.1,1.45 78.09,-128.33 -74,-18.56 -25.88,4.61 -81.45,-42.84 -6.04,-5.13 -31.8,-34.11 -35.48,-39.51 -1.51,-2.17 -16.88,-27.55 -18.65,-31.73 -31.88,-75.04 -3.57,-142.86 12.56,-202.18 264.72,0 106.4,37.36 272,51.26l-1.05 -132.01 -96.68 -43.69c2.24,-145.47 -0.11,-112.2 95.2,-178.59 -106.51,-26.95 -55.08,-25.3 -124.47,-96.62 -350.98,0 -161.04,41.01 -369.08,43.94 76.61,-93.69 81.42,9.08 68.46,-116.95 -14.36,-139.79 -25.53,35.44 -64.8,-129.03 53.89,-32.25 35.44,-9.39 103.75,-32.86l-101.58 -49.08c-20.39,-93.63 -33.41,-11.78 -27.52,-82.35 0.31,-3.68 4.98,-10.73 10,-22.57 0.35,-0.84 3.45,-4.7 3.74,-8.32 0.27,-3.77 4.53,-5.75 4.04,-11.58l-171.81 -22.07c42.35,-80.96 90.53,-8.62 176.22,-74.66l-182.81 -44.94 184.26 -22.94 -101.06 -52.18 67.12 -30.08c159.77,-62.8 -48.01,33.44 52.99,-18.25 -178.71,25.53 -46.26,6.53 -141.14,-85.63 -4.15,-4.03 -10.53,-9.22 -14.51,-12.76 -33.65,-29.99 -7.66,60.91 -33.21,-24.13 -2.81,-9.37 -12.76,-6.82 -18.07,-11.63l120.32 -128.88c30.08,-22.69 19.03,-13.26 34.52,-30.17 45.74,-49.83 -96.45,-39.94 72.14,-59.11 -25.41,-95.03 -39.54,-45.31 -49.55,-102.08 -22.39,-127.11 -1.45,94.24 3.19,-38.9 0.79,-22.48 11.93,-1.68 0.58,-42 -38.26,-136.04 -7.1,12.27 -51.89,-77.74 -19.29,-38.75 6.3,-39.71 2.47,-55.55 -55.09,18.83 -30.75,-13.16 -49.08,45.4l47.92 46.76c50.61,58.42 0.84,-34.46 37.71,52.79 -45.89,48.88 -95.09,81.34 -161.05,101.76 -181.99,-122.99 50.88,-58.83 -470.49,-54.88l1.1 -245.98 -128.12 -132.97 -167.98 4.18c-4,-65.47 -19.75,-250.65 50.56,-289.02 52.33,-28.58 32.34,27.38 40.58,-5.11 1.02,-3.95 8.12,1.54 11.6,-0.17 -14.47,-101.09 -2.7,-74.67 -71.56,-123.34 -202.35,387.04 -223.81,642.7 -614.68,989.33 -150.63,133.58 -271.3,259.9 -531.98,289.75 -520.97,59.67 -861.42,-47.66 -999.11,-588.86 -51.26,-201.49 41.65,-450.83 124.55,-630.96 164.09,-356.55 299.58,-592.41 575.58,-847.29 65.15,-60.16 78.35,-51.17 88.73,-110.57 40.79,-152.9 -0.84,-13.75 7.43,-82.24 23,-190.69 94.19,-71.79 161.8,-223.23 66.72,-149.45 2.2,-164.15 -14.85,-190.72 58.22,-49.55 103.7,-45.25 110.63,-49.78 -1.77,-106.51 -41.16,-69.03 -14.39,-168.53 21.18,-78.75 47.89,-36.69 72.43,-116.78l-94.24 -11.4c-14.39,235.3 62.57,219.76 -175.72,228.34 26.83,106.6 53.2,41.6 -28.31,96.42l-41.95 -136.91c-6.58,-90.27 -6.06,-19.87 31.88,-118.61 41.42,-107.82 93.37,-171.02 65.09,-263.55l-55.98 91.37c-54.39,-21.87 -60.02,26.57 -36.43,-36.9 -13.26,225.3 -287.55,483.43 -455.93,615.61 -77.8,61.06 -140.45,110.4 -253.96,119.34 -85.16,-224.98 -23.03,-244.68 1.57,-454.02 10.62,-90.15 25.5,-163.42 38.93,-247.11 17.89,-111.5 1.1,-137.4 59.58,-205.45 55.49,-45.78 -70.52,-17.29 66.68,-53.46 -139.72,-32.92 -55.08,-69.56 -113.67,-159.77 111.64,8.56 27.55,13.46 140.01,-15.93l-68.37 72.78c-33.47,39.1 -8.79,1.19 -39.33,53 98.77,-17.23 42.55,-45.08 197.1,-23.41 -4.67,-6.61 -11.89,-14.04 -15.17,-18.94 -3.13,-4.67 -10.01,-13.43 -13.34,-18.8 -2.99,-4.79 -8.18,-12.76 -10.85,-17.43 -14.16,-24.66 -11.14,-15.84 -14.8,-46.33 100.86,-26.77 84.59,-24.1 195.92,-23.09 17.49,0.15 90.73,1.22 99.03,-0.2 100.65,-17.11 28.68,24.51 74.6,-36.2 -86.15,-0.26 -214.07,-7.89 -294.82,0.52 -98.63,10.3 -137.67,87.02 -252.77,-0.52 65.93,-55.92 75.62,-56.94 174.22,-74.55l0.05 24.66c-30.22,0 -38.63,3.36 -62.88,6 -70.32,7.75 -152,16.07 -203.69,61.35 32.49,-146.42 13.29,-271.33 10.18,-422.94 35.04,44.46 43.69,130.55 52.74,156.11 2.78,-95.98 5.65,-131.75 38.87,-153.59 3.25,-2.15 10.26,-5.08 14.06,-7.02l297.59 -88.44c64.19,-4.76 489.54,58.48 564.7,88.44 -86.03,-104.05 -74.29,-62.95 -90.12,-68.92 -8.04,-3.05 -99.32,-11.2 -103.12,-11.4 -369.84,-19.46 -204.85,-90.41 -370.3,-42.76l-38.55 11.26c-6.79,1.94 -13.41,3.54 -20.34,5.57l-155.18 16.62c-23.5,-42.41 86.26,22.88 -94.62,-84.59 -40,19.15 -19.24,46.33 -98.22,75.28l-28.83 -194.26c7.13,122.64 26.71,114.52 -4.99,239.45 -41.19,123.42 -7.92,291.2 -19.29,429.97 -109.33,0.29 -21.58,-13.9 -113.25,-65.91 -128.44,-58.68 -28.19,-18.71 -64.19,0.12l32.64 127.19c0.46,2.32 1.45,9.34 2.43,11.67l44.88 48.18c3.22,2.84 11.37,7.65 16.59,12.06 -31.88,15.46 8.41,29.62 -101.29,-16.5l10 82.12c20.25,216.91 96.57,166.38 41.48,489.8 -27.47,161.14 -39.42,330.8 -65.18,484.71 -53.37,577.26 8.5,637.89 -411.98,807.28 -299.96,120.85 -112.66,86.21 -273.27,140.6 -111.74,37.85 -232.35,42.35 -368.62,17.81 -141.38,-25.44 -164.5,36.17 -277.48,113.77 -170.62,117.18 -325.34,241.56 -575.87,244.41 -100.04,-111.24 -118.41,-156.44 -2.29,-274.55 47.42,-48.27 780.89,-482.3 771.67,-645.95 -96.63,-228.98 -378.31,-198.44 -670.99,-172.8 -119.28,10.44 -305.67,33.24 -381.03,-16.59 -180.51,-119.42 -373.15,-367.83 7.19,-368.79 694.63,-1.71 520.7,127.25 924.53,112.75 -30.71,-278.15 -48.29,-188.26 -536.82,-488.27 -53.46,-32.84 -617.12,-370.45 -440.41,-485.9 67.7,-44.23 890.1,409.32 997.51,475.08 161.16,98.68 214.62,124.17 396.75,72.34 18.19,-252.19 -190.6,-297.61 -521.97,-642.09 -48.82,-50.77 -82.32,-71.51 -126.53,-123.54 -69.91,-82.35 -174.19,-205.4 -128.79,-313.63 192.87,-60.76 661.99,483.23 938.78,518.82l60.71 -20.1c-38.06,-16.83 -37.48,-19.15 -71.68,-34.32l-101.64 -46.18c61.96,-52.47 54.07,10.01 30.37,-87.28l-95.78 -98.82c-47.02,-36.2 -84.67,-58.54 -134.3,-91.61 -100.25,-66.8 -163.66,-125.04 -250.56,-198.05 -198.03,-166.42 -435.02,-137.58 -599.86,67.73 17.32,497.72 409.4,494.47 475.97,689.86 -143.96,-36.37 -226.22,-145.12 -367.92,-213.17 -88.47,-42.49 -362.5,-169.16 -446.79,-177.75 -65.62,60.54 -170.5,158.7 -200.7,245.54 -144.08,414.45 406.09,548.84 684.04,640.91 -48.62,42.72 27.96,16.94 -84.99,39.27l-346 8.39c-109.52,15.46 -51.8,26.97 -176.1,31.96 -82.14,3.34 -139.4,1.42 -224.8,12.71 -91.95,243.77 -18.68,435.85 200.03,587.9 217,150.9 554.21,38.18 840.56,79.43 60.05,382.04 -776.92,457.61 -731.23,913.74 13.81,137.58 59.29,173.26 193.88,200.29 342.25,68.77 670.78,-301.32 956.44,-289.4 1.92,178.94 -209.69,367.63 -307.96,472.08 -347.71,369.52 -449.35,484.91 -917.87,723.35 -144.65,73.62 -455.08,219.58 -608.64,205.63 -31.54,23.75 0.29,8.78 -54.71,24.97 -28.66,8.41 -59.15,12.68 -89.4,17.38 -349.18,54.44 -844.18,121.24 -1142.66,-132.65l-328.25 154.57c-379.84,173.96 -822.42,240.38 -1250.07,144.34 -488.1,-109.64 -1183.39,-260.74 -1413.04,-547.24 120.15,26.86 355.45,71.53 484.68,36.81 89.4,-23.99 392.43,-374.77 -205.78,-617.38 -145.29,-58.91 -291.28,-94.36 -371.28,-190.37 144.01,-111.45 923.34,-51.34 677.22,-695.03 -223.79,-114.23 -151.94,-57.23 -488.62,-41.13 -170.85,8.15 -351.65,45.54 -489.29,-16.65 -3.8,-136.6 99.58,-147.97 213.29,-197.22 108.22,-46.91 209.14,-83.95 307.35,-136.83 219.64,-118.29 396.24,-195.18 355.42,-530.82 -2.2,-4.06 -185,-153.94 -312.49,-165.02 -243.57,-21.12 -271.64,45.98 -456.65,71.47 45.22,-134.3 94.53,-62.51 132.21,-208.64 62.6,-242.76 -51.89,-544.4 -496.33,-420.11 -399.63,111.79 -628.2,536.54 -759.54,540.08 -11.43,-369.05 249.25,-322.41 263.58,-689.06 16.3,-417.03 -258.51,-570.24 -310.2,-674.64 -383.06,-6.87 -251.52,29.97 -498.19,442.18 -65.29,109.1 -86.79,194 -179.49,291.81 -168.71,177.99 -72.87,190.08 -184.08,275.22 -45.34,-87.78 156.95,-826.96 170.62,-982.69 75.3,-858.52 0.23,-2395.85 -718.36,-2902.39 -100.21,22.48 -106.62,49.63 -174.59,116.2 29.21,94.41 119.92,271.01 168.76,379.52 70.46,156.58 96.25,260.86 148.46,421.76 164.09,505.85 443.8,2238.54 86.12,2687.45 -116.9,146.66 -19.9,99.49 -79.36,223.64 -85.92,-28.98 -790.46,-578.63 -1307.89,-687.69 -98.45,-20.74 -102.83,38.78 -188.51,-209.26 -302.72,-876.03 -754.15,-2449.91 -498.31,-3363.45 197.33,-704.66 492.74,-1237.31 1225.28,-1124.79 403.07,61.9 592.49,106.86 888.7,334.71 266.98,205.36 373.96,354.14 614.69,579.23 113.15,105.79 696.39,721.4 762.24,872.53 73.18,49.08 161.83,172.56 238.49,267.58l952.73 1163.44c206.9,238.05 466.2,653.52 706.6,910.98 112.58,120.58 227.3,312.46 476.99,592.64 146.57,164.47 355.65,430.64 445.95,624.02 168.47,360.82 -0.06,449.17 380.63,688.86 390.2,245.65 436.84,35.24 779.7,-53.7l120.79 139.61c3.19,4.27 8.73,11.81 12.99,17.79 4.53,1.39 11.23,0.58 12.82,6.2l126.67 63.59c364.16,114.6 651.21,-178.31 688.1,-479.54 49.63,-405.55 -308.11,-253.41 224.02,-1052.75 124.73,-187.38 118.41,-104.91 197.28,-299.06 55.84,-137.4 66.83,-254.85 135.52,-364.26 123.65,-196.93 245.34,-402.82 344.42,-627.8 208.39,-473.01 411.52,-836 697.73,-1242.68 141.32,-200.81 242.73,-408.24 407.37,-603.86 38.35,-46.12 55.29,-91.81 84.24,-148.23 62.97,-122.78 254.27,-345.29 271.01,-469.73 -0.12,-103.82 5.74,-7.28 -22.42,-19.75 -179.64,-79.74 79.16,95.25 -56.16,-18.05 12.5,-71.27 37.71,-105.2 72.98,-174.41 47.28,-92.74 41.25,-109.68 123.37,-78.38l-28.4 -158.06c106.48,56.56 68.6,2.55 168.44,-67.35 -3.3,-83.31 10.62,-261.76 37.16,-315.45l60.62 -64.4c51.9,-61.29 34,-94.5 34,-189.67 99.2,-27.36 1.42,-1.08 62.45,-35.71 161.11,-91.43 110.2,-21.7 135.26,-91.63 -109.01,1.65 -86.73,2.2 -128.12,-24.89l151.56 -30.72c77.13,-120.17 -66.05,-113.07 124.5,-120.09 -33.13,-78.17 -68.84,-62.68 -150.9,-74.19 -48.38,-6.79 -39.07,-2.12 -86.35,-14.33l-149.18 -30.43c-172.04,-44.96 -90.74,-132.53 -86.62,-145.56 -43.16,13.84 -14.5,7.4 -43.65,21.23 -4.67,2.21 1.51,82.73 -26.89,12.22 -1.63,-4.06 -8.79,4.09 -13.49,5.16 3.51,-77.19 20.1,-242.7 -15.55,-311.77l-4.41 316.03c-26.65,97.32 37.36,42.01 -51.54,82.53 -303.09,7.68 -548.69,209.22 -480.88,-651.44 17.23,-218.5 -47.54,-430.78 -60.74,-676.35 32.17,-19.11 -46.49,-36.31 49.95,-14.27 5.17,-217 -14.79,-15.52 40.55,-122.12 44.59,-85.86 -1.97,-18.97 -9.54,-73.44 -1.19,-8.5 -8.7,-9.46 -13.02,-14.16 33.33,-25.35 -53.52,-37.07 95.2,-33.76 -108.66,-9.92 -106.78,26.05 -172.33,47.37 7.48,-118.99 -54.45,-87.89 99.58,-97.5 -145.76,-36.46 -43.05,-36.43 -40.55,-43.45 75.5,8.99 113.41,-0.98 160.55,20.48 1.19,0.55 56.74,51.6 77.13,64.98 -67.96,72.98 -72.11,47.48 -129.84,76.49 287.06,34.08 25.39,-157.1 226.63,-94.22 -178.97,-9.6 -80,23.73 -135.17,-84.73 126.12,38.7 704.29,48.45 896.25,43.4 167.32,-4.38 729.7,-11.29 871.28,23.61 16.42,-23.32 39.91,35.42 0.15,-46.47 -417.38,-50.53 -2472.08,-42.29 -3112.23,-68.83 -457.23,-18.94 -3010.12,2.78 -3165.42,-31.13 -289.4,-15.2 -683.43,14.59 -992.35,13.32 -331.14,-1.37 -664,-12.56 -995.89,-11.52l-2962.7 14.71c-163.19,-0.12 -324.03,5.92 -485.74,20.45 -252.22,22.65 -2291.4,-59.2 -2396.2,42.9 -101.55,98.94 -75.04,1369.61 -83.3,1516.42 -49.26,874.38 -42.35,2311.02 -23.06,3206.81 11.66,540.92 -3.63,1057.27 17.43,1592.82 21,533.52 -5.54,1063.04 26.74,1593.14 47.49,779.79 58.48,1553.6 81.22,2339.11 8.04,278.17 8.56,524.32 20.39,796.41 22.28,511.53 19.79,1041.25 100.4,1518.01 325.19,61.23 1257.73,24.25 1746.23,47.66 649.09,31.12 1500.15,-3.74 2085.79,16.42 689.93,23.75 1335.56,54.47 2047.07,29.41 398.44,-14.07 800.59,5.89 1195.05,-2.41 381.47,-8 830.26,39.8 1197.37,15.55 384.08,-25.35 839.84,-10.3 1239.52,-8.67zm6571.25 -10831.05c-259.35,47.86 -746.4,14.68 -1020.66,-5.16 -177.87,-12.85 -343.41,18.16 -393.85,-153.24 -18.91,-64.28 -35.19,-393.39 -39.28,-480.91 -39.56,-848.39 -14.27,-753.42 286.91,-794.23 196.87,-26.66 832.38,-102.05 1005.78,-38.03l-2 288.82c-189.21,47.8 -597.98,-19.64 -721.86,47.54l-28.11 120.06c-1.16,38.84 3.45,101.35 4.15,143.21 233.91,-11.14 677.83,-43.98 831.91,66.45l-3.36 239.57c-25.7,-11.49 -722.21,-10.12 -811.09,-5.31l-5.92 310.4c157.1,12.5 342.54,0.84 503.59,-2.9 63.29,-1.45 191.04,-9.48 247.77,-0.09 66.14,10.94 88.16,39.63 151.1,71.22l-5.08 192.6zm-4078.44 -1476.01c276.87,-47.4 316.15,-52.73 380.02,31.79l16.25 38.99c50.32,-155.1 -25.79,11.43 101.55,-101.32 60.42,54.99 326.7,384.22 473.04,416.53l243.83 -327.74c117.33,-135.06 373.14,-144.05 441.46,-111.27 144.83,69.5 235.15,1156.53 211.4,1352.03 -117.25,43.4 -213.96,115.22 -428.61,48.04l-79.07 -692.42c-4,1.33 -11.28,4.12 -15.34,5.97 -137.79,62.25 -233.6,278.03 -434.35,186.37l-478.56 -297.96c34.29,78.35 42.56,-17.49 51.69,160 10.79,209.35 38.5,428.23 8.36,633.05 88.9,-40.52 24.89,14.79 51.54,-82.53l4.41 -316.03c35.65,69.07 19.06,234.58 15.55,311.77 4.7,-1.07 11.86,-9.22 13.49,-5.16 28.4,70.51 22.22,-10.01 26.89,-12.22 29.15,-13.83 0.49,-7.39 43.65,-21.23 -4.12,13.03 -85.42,100.6 86.62,145.56l149.18 30.43c47.28,12.21 37.97,7.54 86.35,14.33 82.06,11.51 117.77,-3.98 150.9,74.19 -190.55,7.02 -47.37,-0.08 -124.5,120.09l-151.56 30.72c41.39,27.09 19.11,26.54 128.12,24.89 -25.06,69.93 25.85,0.2 -135.26,91.63 -61.03,34.63 36.75,8.35 -62.45,35.71 0,95.17 17.9,128.38 -34,189.67l-60.62 64.4c-26.54,53.69 -40.46,232.14 -37.16,315.45 -99.84,69.9 -61.96,123.91 -168.44,67.35l28.4 158.06c-82.12,-31.3 -76.09,-14.36 -123.37,78.38 -35.27,69.21 -60.48,103.14 -72.98,174.41 135.32,113.3 -123.48,-61.69 56.16,18.05 28.16,12.47 22.3,-84.07 22.42,19.75 95.03,-61.76 347.33,-528.13 486.76,-689.58 244.44,-283.08 347.77,-283.11 753.92,-417.17 488.41,-161.22 458.45,-213.81 805.86,150.8 158.96,166.85 430.64,474.58 534.57,660.51l298.89 867.57c100.56,404.06 117.01,625.67 143.03,1057.01 26.6,440.52 -133.2,175.14 -326.3,838.41 -50.56,173.69 -242.18,748.17 -343.21,848.01 -133.98,34.23 -288.44,-13.55 -423.18,-21.35 -158.78,-9.22 -321.1,11.37 -486.53,7.34 -28.16,-601.25 -773.87,-741.47 -503.21,-2496.73 39.68,-257.41 219.47,-608.36 126.44,-879.43 -112.46,32.78 -73.27,65.7 -141.84,171.87 -222.13,343.99 -381,703.21 -385.64,1128.33 -5.34,486.65 155.62,1040.01 388.63,1450.55 148.48,261.67 321.57,482.29 344.4,717.22l41.45 156.46c31.7,-124.93 12.12,-116.81 4.99,-239.45l28.83 194.26c78.98,-28.95 58.22,-56.13 98.22,-75.28 180.88,107.47 71.12,42.18 94.62,84.59l155.18 -16.62c6.93,-2.03 13.55,-3.63 20.34,-5.57l38.55 -11.26c165.45,-47.65 0.46,23.3 370.3,42.76 3.8,0.2 95.08,8.35 103.12,11.4 15.83,5.97 4.09,-35.13 90.12,68.92 -75.16,-29.96 -500.51,-93.2 -564.7,-88.44l-297.59 88.44c-3.8,1.94 -10.81,4.87 -14.06,7.02 -33.22,21.84 -36.09,57.61 -38.87,153.59 -9.05,-25.56 -17.7,-111.65 -52.74,-156.11 3.11,151.61 22.31,276.52 -10.18,422.94 51.69,-45.28 133.37,-53.6 203.69,-61.35 24.25,-2.64 32.66,-6 62.88,-6l-0.05 -24.66c-98.6,17.61 -108.29,18.63 -174.22,74.55 115.1,87.54 154.14,10.82 252.77,0.52 80.75,-8.41 208.67,-0.78 294.82,-0.52 -45.92,60.71 26.05,19.09 -74.6,36.2 -8.3,1.42 -81.54,0.35 -99.03,0.2 -111.33,-1.01 -95.06,-3.68 -195.92,23.09 3.66,30.49 0.64,21.67 14.8,46.33 2.67,4.67 7.86,12.64 10.85,17.43 3.33,5.37 10.21,14.13 13.34,18.8 3.28,4.9 10.5,12.33 15.17,18.94 -154.55,-21.67 -98.33,6.18 -197.1,23.41 30.54,-51.81 5.86,-13.9 39.33,-53l68.37 -72.78c-112.46,29.39 -28.37,24.49 -140.01,15.93 58.59,90.21 -26.05,126.85 113.67,159.77 -137.2,36.17 -11.19,7.68 -66.68,53.46 98.27,-32.9 270.86,-106.37 372.82,-112.29 298.71,-17.34 213.2,70.4 177.32,222.72l91.89 -57.09 -32.22 118.29c-23.59,63.47 -17.96,15.03 36.43,36.9l55.98 -91.37c28.28,92.53 -23.67,155.73 -65.09,263.55 -37.94,98.74 -38.46,28.34 -31.88,118.61l41.95 136.91c81.51,-54.82 55.14,10.18 28.31,-96.42 238.29,-8.58 161.33,6.96 175.72,-228.34l94.24 11.4c-24.54,80.09 -51.25,38.03 -72.43,116.78 -26.77,99.5 12.62,62.02 14.39,168.53 -6.93,4.53 -52.41,0.23 -110.63,49.78 17.05,26.57 81.57,41.27 14.85,190.72 -67.61,151.44 -138.8,32.54 -161.8,223.23 -8.27,68.49 33.36,-70.66 -7.43,82.24 508.9,-349.39 656.02,-1385.89 705.01,-2017.63 2.03,-26.19 5.11,-71.99 9.84,-96.21l28.66 -93.78c-31.42,-220.25 76.55,-615.03 142.3,-813.61 69.39,-209.58 277.13,-509.65 384.87,-610.01 136.94,-127.52 398.2,-363.84 564.24,-405.84 354.17,-89.63 376.5,-11.63 634.46,77.71 58.13,20.16 97.81,43.97 144.8,79.89 188.81,123.59 217.41,385.9 253.23,591.18l54.53 352.67c10.53,145.78 27.53,231.56 23.73,398.81 -14.82,652.94 -373.87,1615.85 -858.83,2061.08 -142.37,130.7 -257.84,299.9 -358.18,461.79 -207.08,334.21 -256.59,480.29 -371.75,912.55 68.86,48.67 57.09,22.25 71.56,123.34 -3.48,1.71 -10.58,-3.78 -11.6,0.17 -8.24,32.49 11.75,-23.47 -40.58,5.11 -70.31,38.37 -54.56,223.55 -50.56,289.02l167.98 -4.18 128.12 132.97 -1.1 245.98c521.37,-3.95 288.5,-68.11 470.49,54.88 65.96,-20.42 115.16,-52.88 161.05,-101.76 -36.87,-87.25 12.9,5.63 -37.71,-52.79l-47.92 -46.76c18.33,-58.56 -6.01,-26.57 49.08,-45.4 3.83,15.84 -21.76,16.8 -2.47,55.55 44.79,90.01 13.63,-58.3 51.89,77.74 11.35,40.32 0.21,19.52 -0.58,42 -4.64,133.14 -25.58,-88.21 -3.19,38.9 10.01,56.77 24.14,7.05 49.55,102.08 -168.59,19.17 -26.4,9.28 -72.14,59.11 -15.49,16.91 -4.44,7.48 -34.52,30.17l-120.32 128.88c5.31,4.81 15.26,2.26 18.07,11.63 25.55,85.04 -0.44,-5.86 33.21,24.13 3.98,3.54 10.36,8.73 14.51,12.76 94.88,92.16 -37.57,111.16 141.14,85.63 -101,51.69 106.78,-44.55 -52.99,18.25l-67.12 30.08 101.06 52.18 -184.26 22.94 182.81 44.94c-85.69,66.04 -133.87,-6.3 -176.22,74.66l171.81 22.07c0.49,5.83 -3.77,7.81 -4.04,11.58 -0.29,3.62 -3.39,7.48 -3.74,8.32 -5.02,11.84 -9.69,18.89 -10,22.57 -5.89,70.57 7.13,-11.28 27.52,82.35l101.58 49.08c-68.31,23.47 -49.86,0.61 -103.75,32.86 39.27,164.47 50.44,-10.76 64.8,129.03 12.96,126.03 8.15,23.26 -68.46,116.95 208.04,-2.93 18.1,-43.94 369.08,-43.94 69.39,71.32 17.96,69.67 124.47,96.62 -95.31,66.39 -92.96,33.12 -95.2,178.59l96.68 43.69 1.05 132.01c-165.6,-13.9 -7.28,-51.26 -272,-51.26 -16.13,59.32 -44.44,127.14 -12.56,202.18 1.77,4.18 17.14,29.56 18.65,31.73 3.68,5.4 29.44,34.38 35.48,39.51 55.57,47.45 7.45,24.28 81.45,42.84 -8.99,129.78 -47.57,107.47 -78.09,128.33l127.17 14.12c-34.64,69.01 -72.78,77.16 -28.08,134.34 -161.6,0 -338.39,-16.34 -471.83,-9.2 -301.32,16.1 -218.42,-56.04 -297.4,-27.96l-43.14 24.42c-33.9,-131.14 -7.8,1.48 15.2,-138.16 -121.45,52.85 -52.61,122.44 -115.73,-17.61l1.53 150.29c-174.76,-23.7 -94.15,5.92 -159.68,30.6 -43.02,16.19 -110.48,14.24 -174.73,25.9 75.53,70 273.44,35.28 435.07,25.36 323.1,-19.79 1158.76,65.93 1222.31,-123.25 82.44,-245.37 75.45,-2124.05 93.87,-2604.15 26.69,-695.9 63.76,-2007.09 52.79,-2637.44l-21.78 -2712.77c-3.19,-284.12 -25.96,-619.9 -20.8,-869.48 18.74,-904.49 -0.52,-2611.88 -77.51,-3503.41l-1780.63 -51.28c-611,-11.2 -1207.67,-41.36 -1818.32,-54.97 39.76,81.89 16.27,23.15 -0.15,46.47 -141.58,-34.9 -703.96,-27.99 -871.28,-23.61 -191.96,5.05 -770.13,-4.7 -896.25,-43.4 55.17,108.46 -43.8,75.13 135.17,84.73 -201.24,-62.88 60.43,128.3 -226.63,94.22 57.73,-29.01 61.88,-3.51 129.84,-76.49 -20.39,-13.38 -75.94,-64.43 -77.13,-64.98 -47.14,-21.46 -85.05,-11.49 -160.55,-20.48 -2.5,7.02 -105.21,6.99 40.55,43.45 -154.03,9.61 -92.1,-21.49 -99.58,97.5 65.55,-21.32 63.67,-57.29 172.33,-47.37 -148.72,-3.31 -61.87,8.41 -95.2,33.76 4.32,4.7 11.83,5.66 13.02,14.16 7.57,54.47 54.13,-12.42 9.54,73.44 -55.34,106.6 -35.38,-94.88 -40.55,122.12zm-1193.65 456.07c-131.2,-89.6 -171.09,-170.12 -403.49,-95.89 -180.57,57.66 -225.9,135.78 -142.45,296.74 63.03,121.57 142.89,218.65 358.29,165.51 192.49,-47.51 191.21,-173.52 187.65,-366.36z"/>
  <path class="fil0" d="M1518.71 10761.69l-354.61 -63.41 -83.95 338.48 -381.84 -59.2c-169.55,235.74 -107.38,199.39 109.67,538.28 83.4,130.21 299.06,109.82 430.03,75.04 0.12,-101.61 -11.72,-150.26 29.82,-218.28l14.56 288.01 -383.7 -20.13c85.97,139.17 132.85,189.56 275.48,305.38l299.14 272.93c113.88,91.63 182.22,167.77 275.31,297.11 65.75,91.38 155.36,251.17 243.13,330.28 254.77,-30.81 130.21,-99.67 199.16,-415.82l397.34 -7.13 5.94 -387.16c105.33,-23.75 366.33,-2.98 487.95,21.56l-438.4 6.15 6.52 409.63 -411.46 -0.78 -49.8 350.28 -154.78 68.78c29.21,110.34 92.09,183.09 156.69,242.99l260.22 -47.11 77.74 -338.77c177.99,11.78 240.81,118.43 432.06,67.79 -4.04,-145.56 -18.48,-297.84 25.99,-418.28 104.48,-38.96 295.86,-30.34 426.05,-29.67l127.34 20.04c3.83,1.42 11.4,4.9 16.21,8.7 -125.39,76.09 -394.81,6.53 -537.78,53.2l-19.29 409.72c-230.98,64.25 -278.35,-75.07 -435.08,-46.64 -17.2,51.92 -22.88,92.04 -31.85,149.38l-27.99 120.44c-32.89,77.16 -101.93,58.83 -189.27,82.06l-56.18 19.99c-4.03,1.56 -12.13,4.58 -17.38,8.26 51.32,85.22 270.37,294.22 372.48,341.62 110.11,-82.35 85.45,-166.1 179.17,-242.07 43.98,-21.32 303.82,4.06 427.45,-39.21 158.35,-55.44 69.09,-264.55 218.22,-458.54l395.3 -41.95c-25.7,-87.31 -268.66,-444 -343.3,-509.12l-107.61 -93.32c-77.01,-61.78 -96.71,-36.34 -153.1,-75.71l-993.51 -1173.96c-191.36,20.71 -193.74,-31.44 -366.27,-15.02 -6.21,0.58 -15.69,1.5 -23.23,3.68 -15.09,153.71 -35.22,371.2 -104.51,496.83l-465.85 -79.05c6.87,-5.36 18.01,-18.68 22.83,-11.66 4.69,6.85 16.24,-8.29 22.77,-9.92 150.19,-36.83 269.47,65.62 397.27,22.08l95.23 -481.02 375.7 23.58 -201.31 -390.2c-63.09,-82.12 -312.63,-142.86 -416.62,-143.26 4.58,132.18 3.85,349.3 -54.1,444.12z"/>
  <path class="fil0" d="M423.24 10674.38c104.54,-64.69 58.48,-97.93 124.5,-196.46l340.45 6.12c-16.57,-123.08 -61.03,-252.01 -99.7,-385.73 189.39,16.62 347.73,75.21 537.15,68.31 -14.39,-594.7 86.47,-224.78 430.81,-279.86 -58.36,-152.26 -31.68,-222.22 -118.32,-373.41 -56.07,-97.81 -169.98,-201.45 -249.95,-270.89 -247.84,-215.14 -1105.8,-564.79 -1086.28,541.64 3.77,214.62 14.25,746.96 121.34,890.28z"/>
  <path class="fil0" d="M14863.16 11625.74c-129.46,102.4 -337.96,341.88 -174.04,596.35 134.53,-72.25 255.52,-200.66 398.35,-279.56l59.84 120.11c37.36,135.87 55.09,392.84 89.55,481.95 84.49,-33.1 349.96,-255.37 497.93,-354.55 54.3,21.44 28.08,-1.01 62.01,43.54 39.08,-44.9 61.18,35.77 -14.65,-112.37l107.85 -76.61c-6.06,1.39 -172.91,86.5 -249.66,-72.52 -1.74,-3.59 -4.96,-12.21 -4.99,-18.65l49.46 -11.28c322.32,-30.81 4,78.2 371.23,30.69l0.69 -221.55c-62.54,-14.74 -121.85,-24.25 -173.52,-49.78 -1.97,-83.57 -8.2,-79.77 51.43,-118.96 3.31,-2.17 12.1,-4.64 18.28,-6.58l-208.68 -99.23c-27.12,-12.13 -82.26,-28.72 -105.96,-40.41l-102.54 -84.21c80.55,-61.26 147.36,-34.81 282.44,33.13 43.63,21.93 42,19.75 65.99,41.65 108.4,-57.6 12.18,56.51 19.81,-25.96l80.27 4.35c-16.97,-169.14 -121.49,-127.08 -307.65,-235.5 -5.19,-3.05 -10.94,-6.97 -16.19,-10.1 -5.33,-3.22 -10.9,-7.25 -16.33,-10.53 -5.57,-3.39 -11.16,-7.37 -16.79,-10.73 -44.12,-26.22 39.94,-2.29 -74.55,-40.06l-4.67 62.8c-0.7,3.51 -2.78,11.11 -3.63,14.65l-8.81 104.77c-131.11,-6.15 -37.07,-1.97 -73.71,22.71l-48.09 -127.94c-79.19,31.58 -15.35,45.28 -63.09,68.51 -60.19,29.3 91.98,-5.02 -93.35,-20.57 7.52,71.07 40.29,94.36 52.71,125.89 -99.09,37.25 -2.47,-63.46 -148.57,74.49 -3.98,3.74 -9.98,8.21 -13.84,12.04 -3.83,3.8 -9.6,8.56 -13.23,12.44 -32.92,35.65 -22.13,30.49 -46.99,71.85 -10.59,-6.29 -37.16,-20.74 -45.86,-26.51l-58.1 -41.71c21.81,115.94 -7.25,72.75 78.12,116.55 -201.75,1.89 3.33,62.48 -119.22,100.36 -85.19,26.31 9.43,3.31 -38.58,-25.96 -56.01,-34.11 72.46,-28.08 -40.67,-17z"/>
  <path class="fil0" d="M14446.19 12146.27l193.16 414.04c134.41,-30.37 154.63,-75.41 307.09,-94.47 27.5,91.92 121.83,369.23 105.61,467.7 -0.81,4.76 -4.49,13.78 -5.33,17.58 -0.87,3.77 -3.22,11.92 -6.38,17.14 -40.15,-91.57 -107.85,-373.57 -152.03,-434.84 -104.05,16.89 -177.38,72.55 -302.37,67.39l-160.35 -401.08c-52.03,68.95 -115.47,161.22 -137.2,247.43 62.74,103.47 170.45,317.25 251.38,423.26 73.24,1.75 69.73,-3.8 139.58,-12.47 23.11,-2.87 35.82,-6.73 63.38,-7.42l62.88 4.55c5.08,0.49 14.04,1.65 20.86,3.48l136.88 362.32c170.59,-21.2 298.34,-117.99 472.7,-125.3l72.98 142.19c68.22,-19.93 192.98,-136.22 208.61,-202.47 9.37,-39.83 -12.15,-97.46 -25.29,-149.15l-57.14 -173.55 -504 259.09c46.73,-93.23 411.06,-320.82 547.36,-317.39 46.3,87.36 59.18,219.08 106.02,284.2 76.14,-72.05 173.11,-208 119.36,-335.4 -22.48,-53.23 -133.69,-308.02 -169.16,-351.16 -120.85,83.28 -361.66,325.17 -522.82,367 -76.09,-105.21 -71.39,-430.12 -134.71,-580.55 -150.83,25.53 -266.31,230.9 -454.16,276.18 -15.63,-84.24 -16.42,-250.82 -58.45,-313.33l-118.46 145.03z"/>
  <path class="fil0" d="M857.03 10169.05c23.01,96.39 87.72,289.46 73.3,368.5l-393.85 -28.25c-133.08,347.3 -125.02,252.19 -2.09,580.57 120.7,-39.94 85.43,-55.28 151.77,-144.8l376.39 52.04 62.28 -341 371.69 55.11 53.2 -419.24c114.31,-38.43 268.37,38.23 390.34,54.01 -0.99,-99.34 -90.07,-274.05 -149.24,-365.34 -69.79,-107.67 -283.28,-119.36 -423.99,-120.4 -22.54,271.01 72.75,344.92 -47.37,366.9 -107.7,19.7 -326.38,-51.31 -462.43,-58.1z"/>
  <path class="fil0" d="M2679.33 13592c564.03,500.86 1560.13,63.64 1179.67,-784.49 -191.35,-2.35 -359.88,-4.03 -427.56,108.34 -32.95,54.71 -58.85,144.08 -77.62,198.46 -8.99,26.02 -19.29,63.21 -31.12,92.97l-46.44 84.96c-178.25,141.58 -497.12,-140.33 -596.93,299.76z"/>
  <path class="fil0" d="M15449.85 13318.23l-38.02 -170.67c-171.03,20.04 -316.87,127.13 -473.71,126.35l-152.49 -374.36 -291.2 52.62c-42.79,-160.12 -157.04,-339.15 -227.42,-477.57 -272.37,244.21 -157.21,813.44 122.44,993.05 186.49,119.76 333.87,103.03 585.56,81.53 260.45,-22.24 308.81,-108.8 474.84,-230.95z"/>
  <path class="fil0" d="M7988.64 6897.2l178.94 370.65c131.23,18.36 220.54,16.13 322.56,77.33 -12.88,91.52 -87.63,143.73 -199.48,221.01 -136.56,-46.82 -115.07,-132.59 -270.49,-140.98 26.17,148.72 109.18,251.84 220.69,319.6 54.76,8.7 393.79,-202.93 467.38,-399.63 -269.09,-399.56 -272.49,-120.81 -394.87,-373.31 64.17,-94.19 196.52,-125.69 223.33,-293.84 -212.54,-44.61 -172.16,48.41 -402.27,160.26 -41.42,20.13 -29.88,11.72 -71.41,27.79 -6.04,2.35 -13,4.61 -18.86,6.93l-55.52 24.19z"/>
  <path class="fil0" d="M8950.85 7345.18c-0.52,162.85 -4.78,327.2 -83.71,451.9 -32.05,50.62 -189.7,221.21 -257.46,266.83 -183.85,123.83 -291.58,-72.34 -441.81,-21 -125.04,42.73 78.15,201.31 158.96,235.31 252.3,106.1 450.77,6.49 613.84,-162.53 28.05,-29.09 8.88,-8.03 31.97,-41.83l17.9 -30.54c323.48,-498.34 67.52,-527.58 77.1,-736.92 -44.59,20.13 -70.58,17.2 -116.79,38.78z"/>
  <path class="fil0" d="M6981.99 7295.41c37.65,45.02 58.39,61.96 101.03,112.2l112.17 116.02 263.12 -412.68c35.94,-41.76 32.66,-28.25 65.53,-60.56 65.32,-64.22 -0.23,48.59 61.98,-78.52 -49.34,-27.94 37.31,-17.87 -85.54,-20.51 -147.26,-3.16 -456.82,97.35 -518.29,344.05z"/>
  <path class="fil0" d="M7942.09 6774.8c117.73,-55.99 75.07,-103.91 351.82,-246.24 50.96,-26.23 145.85,-79.1 189.33,-113.39 75.5,-59.55 61.08,-4.29 54.96,-89.72 -19.55,-272.4 -946.17,258.36 -596.11,449.35z"/>
  <path class="fil0" d="M7195.36 8314.04c162.88,11.54 284.85,47.4 411.52,-48.01 -141.61,-239.13 -272.31,-18.91 -398.26,-344.86 -106.08,15.17 -121.68,37.36 -186.31,95.78 77.13,233.91 74.63,81.22 173.05,297.09z"/>
  <path class="fil0" d="M7618.43 7629.97l203.31 -127.54c-25.67,-176.3 -116.2,-382.95 -338.14,-215.2 -194.31,146.92 11.14,280.47 134.83,342.74z"/>
  <path class="fil0" d="M3492.62 11404.86c-39.71,-136.86 -19.35,-202.96 -8.76,-321.57 11.89,-133.32 24.6,-126.5 -48.21,-179.29l-32.05 276.72c-29.44,75.62 -14.22,47.02 -61.84,93.37 -23.41,-400.55 99.92,-385.23 -30.49,-480.58l-68.17 344.11c-8.55,138.53 124.65,209.19 249.52,267.24z"/>
  <path class="fil0" d="M3708.26 11420.96c-65.04,-60.8 -40.96,80.4 -68.66,-131.98 -19.58,-150.14 68.05,-147.85 -54.45,-296.25l-59.09 458.94c211.84,98.51 194.55,156.55 228.78,114.64 3.34,-4.06 43.6,-353.77 -20.3,-456.57 -40.76,77.33 -28.14,188.4 -26.28,311.22z"/>
  <path class="fil0" d="M9336.33 6911.13c166.29,-161.83 -19.82,-368.59 -251.58,-356.99 13.72,66.75 210.18,327.31 251.58,356.99z"/>
  <rect class="fil9" x="8387.7" y="11855.51" width="2343.8" height="1599.59"/>
  <path class="fil8" d="M8962.86 12957.88c4.01,-5.74 5.69,-15.4 7.72,-19.58l222.48 -79.04 20.51 -96.91 -323.89 -112.26 -43.74 245.05c38.72,22.54 72.78,39.24 116.92,62.74z"/>
  <path class="fil0" d="M9037.56 12291.54c-57.12,58.1 -73.57,134.85 -86.62,220.48 700.4,312.95 211.64,-149.33 86.62,-220.48z"/>
  <path class="fil0" d="M9069.03 13342.51c35.79,-62.65 82.61,-107.18 123.57,-168.59 88.44,-132.59 -29.91,-160.78 -30.58,-161.42 -51.6,33.73 -91.45,62.05 -137.75,92.33l-118.78 88.96c46.96,76 91.75,117.92 163.54,148.72z"/>
  <path class="fil8" d="M10015.92 12965.97c-4.01,-5.74 -5.69,-15.4 -7.72,-19.58l-222.48 -79.04 -20.51 -96.91 323.89 -112.26 43.74 245.05c-38.72,22.54 -72.78,39.24 -116.92,62.74z"/>
  <path class="fil0" d="M9941.22 12299.63c57.12,58.1 73.57,134.85 86.62,220.48 -700.4,312.95 -211.64,-149.33 -86.62,-220.48z"/>
  <path class="fil0" d="M9909.75 13350.6c-35.79,-62.65 -82.61,-107.18 -123.57,-168.59 -88.44,-132.59 29.91,-160.78 30.58,-161.42 51.6,33.73 91.45,62.05 137.75,92.33l118.78 88.96c-46.96,76 -91.75,117.92 -163.54,148.72z"/>
  <circle class="fil10" cx="9522.3" cy="12855.54" r="222.41"/>
 </g>
</svg>
