<?xml version="1.0" encoding="UTF-8"?>
<!DOCTYPE svg PUBLIC "-//W3C//DTD SVG 1.1//EN" "http://www.w3.org/Graphics/SVG/1.1/DTD/svg11.dtd">
<!-- Creator: CorelDRAW 2017 -->
<svg xmlns="http://www.w3.org/2000/svg" xml:space="preserve" width="200mm" height="200mm" version="1.1" style="shape-rendering:geometricPrecision; text-rendering:geometricPrecision; image-rendering:optimizeQuality; fill-rule:evenodd; clip-rule:evenodd"
viewBox="0 0 20000 20000"
 xmlns:xlink="http://www.w3.org/1999/xlink">
 <defs>
  <style type="text/css">
   <![CDATA[
    .str0 {stroke:#FEFEFE;stroke-width:20;stroke-miterlimit:22.9256}
    .str2 {stroke:#F6BA79;stroke-width:7.62;stroke-miterlimit:22.9256}
    .str1 {stroke:#F96C48;stroke-width:7.62;stroke-miterlimit:22.9256}
    .fil0 {fill:#FEFEFE}
    .fil27 {fill:#0F0909}
    .fil1 {fill:#2C2219}
    .fil8 {fill:#4C291D}
    .fil22 {fill:#794528}
    .fil33 {fill:#884519}
    .fil32 {fill:#893712}
    .fil24 {fill:#8A4B23}
    .fil19 {fill:#90532E}
    .fil16 {fill:#946C53}
    .fil17 {fill:#975629}
    .fil7 {fill:#9C6236}
    .fil14 {fill:#A76738}
    .fil29 {fill:#B07A65}
    .fil38 {fill:#B39689}
    .fil11 {fill:#B77848}
    .fil13 {fill:#B7A396}
    .fil18 {fill:#B98353}
    .fil21 {fill:#C68957}
    .fil10 {fill:#C95834}
    .fil9 {fill:#CD905A}
    .fil20 {fill:#CD9071}
    .fil15 {fill:#D3AB8F}
    .fil23 {fill:#E8B378}
    .fil26 {fill:#EAC7A7}
    .fil5 {fill:#EC6D4B}
    .fil12 {fill:#EDB47A}
    .fil31 {fill:#F36A46}
    .fil25 {fill:#F36D4B}
    .fil30 {fill:#F4BA79}
    .fil28 {fill:#F4BC7D}
    .fil37 {fill:#F4BC82}
    .fil4 {fill:#F66D49}
    .fil35 {fill:#F6BA79}
    .fil39 {fill:#F6BA79}
    .fil6 {fill:#F6BC79}
    .fil36 {fill:#F96C48}
    .fil3 {fill:#F96C48}
    .fil34 {fill:#FBE6CD}
    .fil41 {fill:#FCFCFC}
    .fil40 {fill:#FEFDFD}
    .fil2 {fill:#FEFEFA}
   ]]>
  </style>
 </defs>
 <g id="Capa_x0020_1">
  <metadata id="CorelCorpID_0Corel-Layer"/>
  <rect class="fil0 str0" width="20000" height="20000"/>
  <g id="_1892133992448">
   <path class="fil1" d="M2207.15 4114.44c213.51,6.2 156.63,40.04 318.4,111.55 98.55,-146.34 229.97,19.63 299.16,117.54l667.11 799.38c53.64,-16.21 146.65,-42.5 197.3,-68.58 67.21,-34.61 84.13,-65.95 174.39,-101.75l652.87 -122.58c244.56,-145.53 290.77,48.35 453.7,-149.62 -35.07,-36.23 -143.87,-262.85 -413.17,-560.14l-143.66 -154.44c-4.26,-15.05 -17.58,-13.64 -26.25,-20.62 -248.69,40.25 -456.49,151.52 -772.11,195.68 -320.48,44.83 -560.25,46.38 -871.7,-18.47 -76.03,-361.96 33.23,-936.17 136.11,-1237.09 60.09,-175.87 150.92,-320.44 267.19,-427.23 188.74,-173.34 278.26,-138.94 550.66,-94.35 -8.7,-7.19 -18.92,-17.03 -26.01,-21.71 -6.59,-4.37 -17.23,-14.14 -25.3,-19l-359.22 -126.99c-200.36,-38.38 -333.76,-32.99 -530.32,9.2 -645.54,138.48 -958.44,581.29 -1006.17,1232.44 -31.36,428.04 237.76,443.87 457.02,656.78z"/>
   <path class="fil2" d="M12993.03 7137.94l4.54 32.98c-105.94,327.43 -226.13,577.17 -407.32,772.21 -43.88,74.79 -4.44,17.8 -64.81,91.71 -65.77,80.46 19.35,-35.17 -40.64,45.15 -79.83,97.56 -318.47,192.65 -514.5,406.26l-187.01 53.01c-82.51,25.2 -101.15,48.11 -169.21,101.3l-93.08 18.46c-53.78,1.45 -41.76,2.15 -76.87,7.48 -7.36,1.12 -53.96,13.04 -65.13,16.1l-274.66 48.11 0 23.02c299.61,78.66 243.22,-28.41 600.29,-43.25 -119.7,102.77 -22.39,-47.93 69.53,-102.81 76.27,68.34 23.76,-79.9 52.48,66.4 1.06,5.5 -15.47,33.87 -17.9,36.41 346.17,22.52 -46.91,57.98 243.36,69.54 -100.27,127.34 142.14,102.95 -152.89,104.18 6.49,102.92 -12.05,129.74 48.6,174.11l-48.74 69.57c-37.75,79.37 -19.7,1.98 -25.13,44.94 -10.96,86.84 -17.83,-45.36 39.12,128.61 -190.92,-25.38 -225.95,-25.38 -416.84,0 -16.07,-179.68 -149.79,-194.87 -417.19,-177.35l33.8 -183.63 -173.01 10.36 121.56 -205.54 -141.41 4.16c-396.89,46.03 -900.25,39.29 -1302.6,21.92 -377.33,-16.32 -834.74,-87.41 -1199.31,-88.82 -365.52,-0.91 -387.09,-52.09 -758.04,42.75 -1.9,2.4 -19.56,28.23 -32.81,44.09 -47.69,56.99 -23.58,25.87 -56.04,59.29l-38.17 44.76 -62.21 118.21 65.21 69.29 13.46 3.03 539.74 123.07c513.23,32.04 1002.95,123.82 1564.26,122.76 480.52,-0.92 1083.74,-19.91 1519.64,-130.12l73.94 38.45 -13.42 86.6 98.72 84.44c11.77,125.51 29.11,421.91 7.47,541.85 -36.73,203.5 -162.87,170.45 -198.11,-70.35 -50.79,202.03 -61.68,151.7 -232.9,240.8l-74.33 168.5 -2.18 103.87c300.39,87.75 703.41,-62.56 782.81,-274.52 -51.81,-70.74 -358.12,-139.22 -253.48,-538.33 83.29,-317.73 414.94,-149.33 595.64,-161.14l78.63 -432.73c261.2,-138.23 402.7,-201.85 611.78,-391.68l438.12 -583.44 9.06 -15.12c182.11,-317.37 150.6,-601.8 -23.12,-894.4 -20.94,20.23 -55.58,37.71 -78.7,55.48z"/>
   <path class="fil3 str1" d="M16034.18 13238.11l-13.64 98.37c24.18,23.54 17.73,45.85 39.33,74.01l166.15 134.67c-81.91,49.27 -39.83,30.52 -160.47,45.79l38.49 41.44 -64.08 193 -72.07 93.86c-69.19,78.7 15.54,67.95 -127.52,47.4 61.92,126.88 63.19,25.03 -62.45,227.12 -63.44,-79.87 -42.58,-61.11 -126.28,-92.24 -182.82,-71.05 -6.95,-9.16 -168.47,-12.86 -40.43,89.17 6.38,41.27 -58.62,84.23 -163.04,-57.23 -153.17,-40.42 -202.86,-120.04l105.69 11.24c-66.64,-111.16 -9.65,8.89 -49.76,-124.16l127.87 7.29c-45.5,-45.81 -44.94,-34.04 -28.45,-103.48 66.58,-280.72 169.21,-75.28 159.49,-288.79l85.57 -78.95c52.48,-170.33 49.24,-21.39 85.36,-211.68l66.44 23.65c20.26,110.67 -0.32,56.29 44.55,59.42l92.97 -1.12 -100.97 -241.96 239.87 45.36c15.19,44.59 10.61,20.69 6.56,55.51 -0.57,4.76 -15.47,23.86 -22.7,32.92zm-915.44 766.15l-14.98 96.71 603.91 382.19c125.55,-188.17 257.4,-393.29 385.05,-582.41 106.83,-158.29 363.62,-475.74 386.99,-655.17l-603.21 -352.2 -757.76 1110.88z"/>
   <path class="fil4" d="M15710.07 11948.33c64.78,84.59 55.37,70 271,67.07 591.19,-8.03 572.05,-222.6 590.56,138.27 -1.45,0 -134.85,1.41 -144.58,-0.32 -87.26,-15.29 -59.42,-9.06 -98.61,-48.64 -52.48,90.23 15.47,-18.01 34.96,87.23l413.7 -37.92c45.01,198.01 40.82,-72.71 87.76,218.98 25.91,160.92 -49.41,58.82 25.8,183.69 4.33,7.19 15.08,18.61 25.52,23.76l270.29 -866.35c-257.75,-5.85 -539.98,-17.27 -744.76,101.54 -327.14,189.83 -288.51,168.96 -731.64,132.69z"/>
   <path class="fil5" d="M10348.76 6720.92l-320.9 -42.05 -87.93 116.66c5.28,190.64 117.11,239.84 272.86,274.14 169.42,37.32 389.59,41.41 532.79,-63.76 5.92,-286.12 -16.63,-486.27 -286.71,-476.08 -83,96.07 -45.29,82.64 -110.11,191.09z"/>
   <path class="fil6" d="M7776.08 8502.4c-22.87,213.05 -18.04,66.29 34.83,121.56l311.13 -30.42 210.06 -26.26c-151.87,12.27 -83.91,40.22 -104.04,-117.79 -112.15,75.5 -41.31,62.39 -156.52,52.1 4.3,-268.57 2.82,-58.16 -51.88,-347.66l174.11 12.48c-74.26,149.05 -53.79,-5.46 -69.82,195.89 223.84,-35.84 168.78,-153.46 434.49,-191.06 24.99,-239.49 26.54,17.02 -95.83,-121.84l113 -35.14c15.54,-112.29 18.22,-90.72 34.89,-208.16l3.91 15.51c-120.29,7.93 -183.62,51.74 -285.27,118.71 -88.5,58.29 -153.49,109.43 -218.62,165.61 -170.69,147.25 -210.13,248.12 -334.44,396.47z"/>
   <path class="fil7" d="M14085.47 14269.51c-139.85,-691.96 -718.78,-910.69 -549.29,-1745.81 -281.53,651.15 88.08,934.51 406.94,1526.73l142.35 219.08z"/>
   <path class="fil8" d="M2221.46 4169.07l-14.31 -54.63c-169.77,5.25 -153.07,-56.99 -320.65,-116.2 90.33,164.73 176.36,199.69 227.11,324.04 49.73,121.87 113.67,265.53 155.25,374.54 32.36,-269.41 -68.69,-325.62 -47.4,-527.75z"/>
   <path class="fil9" d="M14107.82 14001.72c-9.63,-54.95 -20.8,-40.78 35.63,-40.78 -48.64,-116.52 -94.92,-123.39 -169.04,-197.51 23.62,128.68 33.03,179.33 133.41,238.29z"/>
   <polygon class="fil3 str1" points="16039.96,13825.39 16104.04,13632.39 16015.29,13670.35 "/>
   <path class="fil10" d="M8153.2 13227.33c-8.67,-7.79 -18.43,-31.65 -23.47,-25.94 -64.89,73.55 -41.91,-50.58 -46.91,-55.65 -158.04,55.43 -64.25,0.91 -90.55,69.71l160.93 11.88z"/>
   <path class="fil3 str1" d="M15478.76 14035.1l62.28 10.01 -36.3 -75.43c-54.42,27.71 -59.74,-26.11 -25.98,65.42z"/>
   <path class="fil11" d="M3419.53 7674.39l26.61 17.17c110.32,-57.2 55.3,-2.82 88.43,-111.16 -118.74,46.1 -73.91,36.12 -115.04,93.99z"/>
   <polygon class="fil11" points="16669.78,11203.44 16645.11,11172.46 16493.42,11378.04 "/>
   <path class="fil3 str1" d="M15911.42 13346.28l-92.97 1.12 105.03 109.55c107.14,-20.24 -28.09,-41.24 91.99,18.5 -12.73,-83.46 -34.02,-67.25 44.4,-64.96 -21.6,-28.16 -15.15,-50.47 -39.33,-74.01l13.64 -98.37 -122.76 108.17z"/>
   <path class="fil3 str1" d="M15698.76 13823.45c18.78,15.51 -0.99,19.81 64.81,43.28 2.79,0.96 73.28,14 78.67,15.05 -57.34,-96.36 -50.51,-98.15 -143.48,-58.33z"/>
   <path class="fil3 str1" d="M15923.48 13456.95l-81.1 -15.3c50.54,102.38 48.39,35.81 -8.67,138.3l-155.47 38.49c55.09,49.51 36.87,23.36 81.35,109.78l69.57 -57.3c42.47,-30.91 39.19,-21.29 62.35,-40.4 41.98,-34.53 18.19,-7.82 36.34,-40.53 2.04,-3.66 4.93,-14.87 6.48,-18.43l160.01 -39.65c-50.93,-62.45 10.08,-31.72 -78.87,-56.46 -120.08,-59.74 15.15,-38.74 -91.99,-18.5z"/>
   <path class="fil3 str1" d="M15504.74 13969.68l36.3 75.43 -62.28 -10.01c-6.38,2.75 -194.55,53.57 4.41,53.57 161.52,3.7 -14.35,-58.19 168.47,12.86 -50.09,-120.81 -1.45,66.86 -38.42,-132.16l145.1 7.01c-119.37,-107.04 -44.97,-99.78 -253.58,-6.7z"/>
   <path class="fil3 str1" d="M15482.32 13835.44c110.63,56.81 22.24,44.33 135.69,10.15 2.33,-206.04 -159.37,-156.63 -135.69,-10.15z"/>
   <path class="fil3 str1" d="M15878.79 13724.59c-39.41,87.83 -31.48,76.98 67.24,121.74 98.23,-90.93 61.72,-197.16 -67.24,-121.74z"/>
   <path class="fil12" d="M18828.87 10867.98c126.14,-48.95 283.43,37.61 216.68,-145.91l-157.86 -45.19c-121.31,172.56 -84.27,-27.28 -160.05,155.19 54.46,97.84 -34.43,25.09 101.23,35.91z"/>
   <path class="fil12" d="M18579.37 11296.52c42.01,83.28 -104.32,90.16 99.6,48.36 99.32,-20.34 22.56,-9.66 81.17,-62.42l12.48 -105c-187.29,19.67 -110.25,-2.43 -193.25,119.06z"/>
   <path class="fil3 str1" d="M15622.1 13476.01l124.91 9.2c-34.3,-68.23 -38.38,-32.32 -25.91,-99.32 32.78,-175.97 3.74,-17.8 52.8,-97.91l-66.44 -23.65c-36.12,190.29 -32.88,41.35 -85.36,211.68z"/>
   <path class="fil13" d="M1307.22 6882.13c35.98,-51.67 0.49,48.07 46.8,-77.57 9.09,-24.67 17.87,-73.03 22.91,-94.95l-69.71 172.52z"/>
   <path class="fil14" d="M2511.52 4400.73l57.31 101.89c-2.08,-4.15 3.31,-25.09 5.15,-20.51 25.44,64.01 -0.81,-4.65 47.89,-112.11 3.56,-7.9 9.66,-20.16 15.2,-29.82 32.17,208.3 112.39,185.21 -22.03,356.22 -183.66,233.64 -137.74,69.85 -250.38,152.96 78,120.01 68.97,75.99 221.55,57.1 209.95,-469 116.02,-88.18 157.75,-371.38 20.13,-136.39 0.32,-50.54 36.34,-107.39l-107.14 -173.72 -103.62 -9.16c-102.99,92.13 -77.61,-111.62 -77.61,82.61 0.6,0.39 70.84,-30.62 19.59,73.31z"/>
   <path class="fil14" d="M18645.84 10879.01l115.67 44.52c15.65,-4.48 36.84,-38.49 39.73,-26.19 2.46,10.71 17.76,-20.2 27.63,-29.36 -135.66,-10.82 -46.77,61.93 -101.23,-35.91 75.78,-182.47 38.74,17.37 160.05,-155.19 -134,80.12 -37.36,35.25 -74.01,-30.27l-64.61 36.9 -49.44 -91.74 -53.79 287.24z"/>
   <path class="fil15" d="M12993.03 7137.94c23.12,-17.77 57.76,-35.25 78.7,-55.48 4.12,-70.52 20.76,-54.56 -49.45,-48.32l-29.25 103.8z"/>
   <polygon class="fil15" points="10382.71,5946.46 10474.91,5977.96 10480.37,5879.46 "/>
   <path class="fil16" d="M18579.37 11296.52c-57.94,44.58 -35.49,-77.4 -51.21,101.82 159.69,26.12 206.11,40.07 268.11,-97.87l-36.13 -18.01c-58.61,52.76 18.15,42.08 -81.17,62.42 -203.92,41.8 -57.59,34.92 -99.6,-48.36z"/>
   <path class="fil16" d="M2423.69 5493.32l83.82 137.59 -18.51 65.91 168.86 -72.92c-139.53,-46.56 -107.64,-45.47 -194.23,-146.9l-39.94 16.32z"/>
   <path class="fil17" d="M14143.45 13960.94c-56.43,0 -45.26,-14.17 -35.63,40.78l317.69 406.05c82.33,87.55 5.82,11.25 91.74,82.12 274.56,226.49 644.63,479.79 678.43,845.98 44.58,-286.93 -225.71,-587.42 -431.89,-746.97 -426.25,-329.89 -226.7,-184.44 -483.88,-455.54 -93.75,-98.83 -71.72,-60.13 -136.46,-172.42z"/>
   <path class="fil17" d="M14377.58 15397.06c49.27,49.8 88.99,128.67 123.74,183.51 50.15,79.23 79.3,109.05 137.84,175.81 70.56,80.42 215.28,234.69 350.44,231.45 -163.11,-18.19 -656.25,-808.48 -656.25,-808.52 -3.35,-14.06 -16.22,-12.51 -27.88,-17.58l72.11 235.33z"/>
   <path class="fil18" d="M2441.92 4286.93c-67.81,-89.56 -40.15,-84.73 -140.21,-95.34 85.75,204.14 118.92,249.32 104.57,504.14 10.54,-7.58 118.04,-14.59 97.91,-190.64 -11.94,-104.39 -51.35,-91.99 -62.27,-218.16z"/>
   <path class="fil18" d="M19021.41 10395.39c-160.96,42.96 -50.33,12.89 -91.11,-21.75l-230.96 -26.58c35.78,66.83 12.94,84.7 134.57,104.93 79.19,13.18 160.36,17.44 187.5,-56.6z"/>
   <path class="fil19" d="M14195.01 16183.5l-51.32 46.84 0 41.73 240.69 264.41c0.6,0.74 178.16,587.74 519.26,314.28 95.97,-76.94 104.85,-222.01 101.93,-383.4 -95.09,-126.84 -52.45,-167.13 -197.59,-237.65 401.3,480.31 -157.93,834.17 -269.37,376.41 110.74,-155.95 284,-270.46 60.52,-615.86 27.98,186.79 94.7,299.51 -43.71,464.84 -142.46,9.13 -175.8,-43.35 -223.52,-162.06 0.21,-0.35 347.44,-305.25 74.97,-601.97 54.38,220.59 117.25,530.99 -211.86,492.43z"/>
   <path class="fil19" d="M2236.79 5326.57c128.79,85.37 68.34,106.9 186.9,166.75l39.94 -16.32c-108.59,-199.84 -345.22,-449.55 -358.69,-731.22 -29.39,-615.09 -203.82,-189.51 -245.27,-682.09 -5.85,-69.33 -4.82,-38.59 15.83,-69.22 -44.9,-91.96 0.03,-37.54 -80.68,-121.03 -26.75,-27.67 -65.8,-53.93 -79.86,-65.31 41.41,378.98 72.99,558.73 360.2,748.07 3,120.11 -11.28,353.29 9.55,453.95 31.97,154.51 127.45,181.15 152.08,316.42z"/>
   <path class="fil20" d="M8714.4 6276.13c61.82,-3.45 8.57,24.29 82.44,-17.83 49.52,-28.23 37.57,-30.17 65.52,-58.15 -71.55,19.31 -10.75,-17.52 -91.64,27.73 -59.49,33.28 -44.48,36.76 -56.32,48.25z"/>
   <path class="fil21" d="M7654.7 7050.71l50.58 -1.17c7.01,-6.48 18.5,-25.06 21.74,-18.71 0.04,0.07 84.8,-56.22 115.92,-185 -193.07,117.01 -159.48,132.41 -188.24,204.88z"/>
   <path class="fil22" d="M11970.3 8486.25c12.86,-226.69 -59.32,-336.19 -179.47,-506.39 37.86,-575.02 -20.12,-979.52 -310.08,-1340.21 -173.65,-216.02 -615.58,-610.97 -1005.84,-661.69l-92.2 -31.5 -160.65 20.01c151.9,99.89 86.7,25.2 368.31,137.46 115.63,46.1 201.88,88.08 302.47,150.18 742.81,458.6 855.7,903.35 809.07,1830.07 5.15,3 13.71,6.98 16.04,7.86 2.22,0.88 13.36,5.61 16,6.59 2.57,0.92 13.64,4.09 16.21,4.97 196.56,68.13 10.65,353.19 220.14,382.65z"/>
   <path class="fil22" d="M2301.71 4191.59c100.06,10.61 72.4,5.78 140.21,95.34l69.6 113.8c51.25,-103.93 -18.99,-72.92 -19.59,-73.31 0,-194.23 -25.38,9.52 77.61,-82.61l-43.99 -18.82c-161.77,-71.51 -104.89,-105.35 -318.4,-111.55l14.31 54.63 80.25 22.52z"/>
   <path class="fil3 str1" d="M15698.76 13823.45c92.97,-39.82 86.14,-38.03 143.48,58.33 -5.39,-1.05 -75.88,-14.09 -78.67,-15.05 -65.8,-23.47 -46.03,-27.77 -64.81,-43.28zm-80.75 22.14c-113.45,34.18 -25.06,46.66 -135.69,-10.15 -23.68,-146.48 138.02,-195.89 135.69,10.15zm328.02 0.74c-98.72,-44.76 -106.65,-33.91 -67.24,-121.74 128.96,-75.42 165.47,30.81 67.24,121.74zm-323.93 -370.32l-85.57 78.95c9.72,213.51 -92.91,8.07 -159.49,288.79 -16.49,69.44 -17.05,57.67 28.45,103.48l-127.87 -7.29c40.11,133.05 -16.88,13 49.76,124.16l-105.69 -11.24c49.69,79.62 39.82,62.81 202.86,120.04 65,-42.96 18.19,4.94 58.62,-84.23 -198.96,0 -10.79,-50.82 -4.41,-53.57 -33.76,-91.53 -28.44,-37.71 25.98,-65.42 208.61,-93.08 134.21,-100.34 253.58,6.7l-145.1 -7.01c36.97,199.02 -11.67,11.35 38.42,132.16 83.7,31.13 62.84,12.37 126.28,92.24 125.64,-202.09 124.37,-100.24 62.45,-227.12 143.06,20.55 58.33,31.3 127.52,-47.4l72.07 -93.86 -24.67 -155.04 88.75 -37.96 -38.49 -41.44c120.64,-15.27 78.56,3.48 160.47,-45.79l-166.15 -134.67c-78.42,-2.29 -57.13,-18.5 -44.4,64.96 88.95,24.74 27.94,-5.99 78.87,56.46l-160.01 39.65c-1.55,3.56 -4.44,14.77 -6.48,18.43 -18.15,32.71 5.64,6 -36.34,40.53 -23.16,19.11 -19.88,9.49 -62.35,40.4l-69.57 57.3c-44.48,-86.42 -26.26,-60.27 -81.35,-109.78l155.47 -38.49c57.06,-102.49 59.21,-35.92 8.67,-138.3l81.1 15.3 -105.03 -109.55c-44.87,-3.13 -24.29,51.25 -44.55,-59.42 -49.06,80.11 -20.02,-78.06 -52.8,97.91 -12.47,67 -8.39,31.09 25.91,99.32l-124.91 -9.2z"/>
   <path class="fil3 str1" d="M15911.42 13346.28l122.76 -108.17c7.23,-9.06 22.13,-28.16 22.7,-32.92 4.05,-34.82 8.63,-10.92 -6.56,-55.51l-239.87 -45.36 100.97 241.96z"/>
   <path class="fil23" d="M18679.54 11093.97c189.29,-0.35 228.98,42.05 271.94,-154.8 -148.27,3.53 -235.85,1.13 -271.94,154.8z"/>
   <path class="fil24" d="M18679.54 11093.97c36.09,-153.67 123.67,-151.27 271.94,-154.8 -42.96,196.85 -82.65,154.45 -271.94,154.8zm42.15 -1147.04c-72.22,80.85 -74.61,68.87 -180.56,107.85 -68.8,25.31 -120.89,50.33 -198.29,52.97 -105.55,3.63 -336.3,-96.21 -405.77,6.63 134.99,36.8 352.38,51.46 462.84,77.26 67.45,-77.44 319.45,-137.95 423.74,-162.98 374.48,-89.73 450.15,250.81 106.65,344.98 40.78,34.64 -69.85,64.71 91.11,21.75l135.09 3.55c27.28,40.5 43.81,49.28 53.29,93.23 33.1,153.24 -14.31,93.32 -20.93,108.09 -207.95,76.77 -137.99,-79.76 -375.18,46.35 36.65,65.52 -59.99,110.39 74.01,30.27l157.86 45.19c66.75,183.52 -90.54,96.96 -216.68,145.91 -9.87,9.16 -25.17,40.07 -27.63,29.36 -2.89,-12.3 -24.08,21.71 -39.73,26.19l-115.67 -44.52 -15.79 104.43c-83.35,302.08 -157.51,409.16 -424.1,501.85l13.61 85.75c74.05,-18.36 96.89,-28.44 152.26,-52.44 113.45,-49.17 30.59,-24.78 129.66,-43.6 12.41,-68.76 -13.36,-36.16 26.68,-76.66 15.72,-179.22 -6.73,-57.24 51.21,-101.82 83,-121.49 5.96,-99.39 193.25,-119.06l-12.48 105 36.13 18.01 246.25 -325.66c84.66,-153.63 18.47,53.78 117.93,-205.13 39.01,-101.57 51.81,-70.8 130.23,-146.3 26.96,-173.01 -7.83,-197.12 -80.57,-313.04 54.24,-309.17 -70,-400.41 -369.96,-383.32l-118.46 19.91z"/>
   <path class="fil24" d="M8244.52 6482l-154.41 -52.87c-864.86,-113.13 -1166.88,-409.26 -1910.36,-745.42 336.27,347.83 1344.83,851.86 2064.77,798.29z"/>
   <path class="fil24" d="M16645.11 11172.46l24.67 30.98c427.48,-227.86 282.42,-172.42 854.23,-165.16l-220.67 -78.28c-253.52,-36.02 -506.25,16.64 -658.23,212.46z"/>
   <path class="fil3 str1" d="M15118.74 14004.26c-102.95,78.95 21.64,34.82 -115.68,62.66 91.01,39.37 72.29,100.73 73.66,104.36 -107.21,88.04 109.97,38 -139.07,69.58 46.84,9.27 30.49,17.83 76.97,0.28l97 -54.53c5.88,-15.89 22.91,-10.82 34.82,-15.15 95.86,106.33 8.42,-109.79 84.76,139.89 0.11,0.35 15.62,88.53 19.35,103.58 0.21,-0.81 -162.44,-17.9 104.47,-33.66 75.95,92.55 57.41,-108.98 69.36,138.02 50.5,3.28 23.4,-8.25 77.61,15.44l161.98 106.96 -47.44 53.33c-101.15,149.82 53.29,-133.01 -20.19,67.56 -104.5,136.29 -53.86,8.71 -47.16,143.41 248.65,-147.74 944.17,-1302.25 1029.07,-1569.33l-41.38 -0.18c0,-191.91 11.78,-36.13 -57.16,-90.9 -23.37,179.43 -280.16,496.88 -386.99,655.17 -127.65,189.12 -259.5,394.24 -385.05,582.41l-603.91 -382.19 14.98 -96.71z"/>
   <path class="fil25" d="M3522.59 15063.96c-1.24,-96.64 -8,-211.96 85.22,-301.38 -11.21,2.89 -45.89,33.1 -52.76,39.55 -74.19,69.78 -13.68,52.9 -159.2,99.42l34.75 -243.47c-249.36,-16.25 -42.72,24.46 -202.34,-105.27 -5.25,-4.3 -13.68,-9.66 -19.03,-14.03 -5.68,-4.65 -13.75,-10.96 -19.56,-15.68 -6.24,-5.01 -13.26,-13.26 -19.71,-18.05 -221.65,-165.23 -112.57,-57.03 -141.79,-19.38 127.31,165.19 341.07,496.31 494.42,578.29z"/>
   <path class="fil26" d="M12484.8 8079.99c59.99,-80.32 -25.13,35.31 40.64,-45.15 60.37,-73.91 20.93,-16.92 64.81,-91.71l-102.49 20.9 13.96 -134.98c-14.03,19.28 -59.32,69.46 -68.87,125.05 -33.34,194.16 -11.17,101.46 51.95,125.89z"/>
   <path class="fil27" d="M1714.96 3808.13c14.06,11.38 53.11,37.64 79.86,65.31 80.71,83.49 35.78,29.07 80.68,121.03l11 3.77c167.58,59.21 150.88,121.45 320.65,116.2 -219.26,-212.91 -488.38,-228.74 -457.02,-656.78 47.73,-651.15 360.63,-1093.96 1006.17,-1232.44 196.56,-42.19 329.96,-47.58 530.32,-9.2l359.22 126.99c8.07,4.86 18.71,14.63 25.3,19 7.09,4.68 17.31,14.52 26.01,21.71 84.06,72.92 164.84,103.23 291.09,237.72 73.38,78.21 187.29,230.5 247.03,344.8 137.13,262.19 237.23,632.57 151.73,998.94 8.67,6.98 21.99,5.57 26.25,20.62l143.66 154.44c269.3,297.29 378.1,523.91 413.17,560.14l17.73 -34.33c-74.15,-327.45 -337.64,-526.9 -492.23,-755.85l9.73 -250.73c-19.95,-911.29 -742.64,-1664.54 -1701.68,-1567.37 -120.29,46.32 -320.87,91.43 -504.53,199.52 -175.37,103.23 -283.33,190.99 -386.7,343.46 -186.76,275.51 -361.36,844.32 -197.44,1173.05z"/>
   <path class="fil27" d="M2569.54 4244.81l103.62 9.16 107.14 173.72c87.23,152.01 424.63,666.09 546.29,751.46l165.23 -36.24 -667.11 -799.38c-69.19,-97.91 -200.61,-263.88 -299.16,-117.54l43.99 18.82z"/>
   <path class="fil28" d="M12501.72 7829.05l-13.96 134.98 102.49 -20.9c181.19,-195.04 301.38,-444.78 407.32,-772.21 -78.34,-80.99 -73.9,-196.66 -123.35,-325.48 -25.24,-65.77 -40.82,-111.44 -72.08,-171.04 -51.45,-98.12 -30.1,-66.26 -103.19,-120.68 37.21,500.83 -119.1,840.8 -197.23,1275.33z"/>
   <path class="fil29" d="M15050.54 16294.67c80.96,-91.43 88.14,-89.98 136.64,-227.01l-41.76 -1.24c-25.34,22.77 -33.1,19.14 -63.02,64.39 -19.31,29.22 -22.73,44.45 -32.78,74.48 -43.42,129.63 -37.39,60.05 0.92,89.38z"/>
   <path class="fil30" d="M2463.63 5477c86.59,101.43 54.7,100.34 194.23,146.9l256.02 -67.57c-45.79,-132.94 -91.6,-168.11 -104.01,-320.86l159.16 281.57c99.43,-46.35 327.29,-255.21 357.56,-337.89 -121.66,-85.37 -459.06,-599.45 -546.29,-751.46 -36.02,56.85 -16.21,-29 -36.34,107.39 -41.73,283.2 52.2,-97.62 -157.75,371.38 -152.58,18.89 -143.55,62.91 -221.55,-57.1 112.64,-83.11 66.72,80.68 250.38,-152.96 134.42,-171.01 54.2,-147.92 22.03,-356.22 -5.54,9.66 -11.64,21.92 -15.2,29.82 -48.7,107.46 -22.45,176.12 -47.89,112.11 -1.84,-4.58 -7.23,16.36 -5.15,20.51l-57.31 -101.89 -69.6 -113.8c10.92,126.17 50.33,113.77 62.27,218.16 20.13,176.05 -87.37,183.06 -97.91,190.64 14.35,-254.82 -18.82,-300 -104.57,-504.14l-80.25 -22.52c-21.29,202.13 79.76,258.34 47.4,527.75 -41.58,-109.01 -105.52,-252.67 -155.25,-374.54 -50.75,-124.35 -136.78,-159.31 -227.11,-324.04l-11 -3.77c-20.65,30.63 -21.68,-0.11 -15.83,69.22 41.45,492.58 215.88,67 245.27,682.09 13.47,281.67 250.1,531.38 358.69,731.22z"/>
   <path class="fil30" d="M14195.01 16183.5c329.11,38.56 266.24,-271.84 211.86,-492.43 272.47,296.72 -74.76,601.62 -74.97,601.97 47.72,118.71 81.06,171.19 223.52,162.06 138.41,-165.33 71.69,-278.05 43.71,-464.84 223.48,345.4 50.22,459.91 -60.52,615.86 111.44,457.76 670.67,103.9 269.37,-376.41 145.14,70.52 102.5,110.81 197.59,237.65l-11.67 -104.32c49.66,-29.15 51.7,-61.89 56.64,-68.37 -38.31,-29.33 -44.34,40.25 -0.92,-89.38 10.05,-30.03 13.47,-45.26 32.78,-74.48 29.92,-45.25 37.68,-41.62 63.02,-64.39l12.93 -86.24 -79.76 66.75 -88.99 -59.1c-135.16,3.24 -279.88,-151.03 -350.44,-231.45 -58.54,-66.76 -87.69,-96.58 -137.84,-175.81 -34.75,-54.84 -74.47,-133.71 -123.74,-183.51 44.16,603.49 -302.58,197.86 -231.63,730.76l49.06 55.68z"/>
   <path class="fil31" d="M4387 3965.18c85.5,-366.37 -14.6,-736.75 -151.73,-998.94 -59.74,-114.3 -173.65,-266.59 -247.03,-344.8 -126.25,-134.49 -207.03,-164.8 -291.09,-237.72 -272.4,-44.59 -361.92,-78.99 -550.66,94.35 -116.27,106.79 -207.1,251.36 -267.19,427.23 -102.88,300.92 -212.14,875.13 -136.11,1237.09 311.45,64.85 551.22,63.3 871.7,18.47 315.62,-44.16 523.42,-155.43 772.11,-195.68z"/>
   <path class="fil31" d="M13250.77 11897.76l26.4 114.83 -182 24.91 -36.41 116.35c90.4,54.87 39.4,40.21 71.09,104.35l-58.19 160.58c206.39,-110.28 374.61,-288.58 754.09,-274.77 445.14,16.18 458.68,168.08 729.5,324.99 -83.32,-167.06 -80.4,-134.98 -103.98,-314.98 154.38,40.99 86.32,-103.51 139.08,69.57 40.42,-139 7.68,-7.78 34.75,-136l170.34 1.41c-34.19,155.49 -29.61,23.54 38.27,-4.9 -83.17,-2.72 -121.94,-9.91 -161.66,-24.99l-151.24 -145.42c100.48,5.5 163.36,-5.11 249.18,-2.01 153.46,5.53 83.04,4.72 167.84,41.52l66.54 -118.81c6.66,-9.2 15.05,-25.55 23.82,-37.47 -277.62,17.8 -526.52,114.97 -820.1,139.64 -356.86,29.96 -609,6.17 -957.32,-38.8z"/>
   <path class="fil31" d="M10377.07 11196.04c41.76,-15.47 98.29,-49.94 145.7,-15.97 -2.22,-11.35 -11.84,-38.91 -9.55,-47.01l44.16 -92.1c63.68,0 190.74,-13.36 201.35,22.77l126.21 46.56c3.88,-8.25 13.25,-23.12 20.09,-34.54l185.32 46.03c-95.38,-125.83 -115.57,-76.98 -215.74,-223.84 -67.17,-98.51 -119.83,-189.72 -162.65,-286.43 -111.72,77.78 -300.04,462.58 -334.89,584.53z"/>
   <path class="fil32" d="M2868.09 10709.91c139.57,-834.84 261.69,-948.01 268.29,-1987.76 109.22,15.26 424.55,335.98 424.55,335.98 89.52,221.55 -424.41,1451.73 -692.84,1651.78zm-1000.63 1296.12l-36.09 99.53c195.79,-40.81 303.46,-138.58 389.95,-257.46l485.32 -696.89c384.87,-487.82 920.52,-1321.15 955.09,-2006.2 194.13,91.95 399.36,284.25 592.22,411.87 1019.77,674.72 1234.3,468.65 2272.04,333.17 -54.84,95.69 -744.01,866.63 -1070.41,1403.76 -335.64,552.39 -542.49,930.17 -819.76,1615.72 -54.73,135.3 -168.47,248.86 -252.63,371.33 -332.04,483.28 -416.84,836.46 -95.97,1354.28 323.51,522.01 762.27,905.64 1356.56,1081.55 2584.91,765.23 3686.56,-48.88 6043.93,-653.79 886.08,-227.36 1247.62,-70.45 2081.12,106.44 81.63,134 18.79,156.35 179.29,232.3 -32,299.22 -29.92,299.33 92.03,474 -13.5,166.01 -16.39,289.11 103.54,354.7l51.32 -46.84 -49.06 -55.68c-70.95,-532.9 275.79,-127.27 231.63,-730.76 -13.61,-14.28 -52.9,-26.16 -67.92,-43.07 45.89,250.73 29.96,432.84 -269.94,408.87 -68.58,-245.94 50.3,-392.7 186.16,-487.86 7.09,-209.42 7.41,-364.21 -118.52,-500.79 11.7,184.79 109.75,613.22 -176.97,510.13 -79.05,-121.13 -51.14,-220.63 -48.56,-376.27l-77.22 164.17c-925.85,-220.45 -1321.64,-331.83 -2285.48,-77.61 -1466.21,386.71 -2821.96,1008.39 -4368.92,926.76 -600.78,-31.68 -1712.43,-293.69 -2070.73,-582.42 -259.05,-208.72 -431.43,-381.91 -627.14,-659.92 -636.03,-903.35 74.82,-1218.51 315.61,-1813.65 1002.47,-2477.66 2588.69,-3516.53 2781.51,-3801.45l-13.46 -3.03 -107.53 -5.57c-147.71,50.86 -601.07,658.69 -910.94,724.52 -1171.32,248.83 -1526.37,208.16 -2471.42,-503.11 -164.38,-123.71 -319.85,-231.7 -474.5,-360.13 -129.59,-107.61 -344.41,-274.56 -425.93,-380.26 -17.9,-477.21 185.7,-553.16 300.46,-844.81l-26.61 -17.17c-375.92,454.55 -370.63,437.78 -390.02,1106.97 -12.79,442.14 -72.04,864.55 -145.2,1296.22 -125.55,740.99 -424.56,1499.17 -1016.85,1928.45z"/>
   <path class="fil32" d="M4987.81 4666.05l-17.73 34.33c-162.93,197.97 -209.14,4.09 -453.7,149.62 499.42,-58.02 99.07,133.43 629.89,-126.74 379.34,-185.92 874.95,-394.07 1305.64,-220.56 649.24,261.58 1179.39,1501.98 1569.37,1771 240.76,166.15 438.27,16.18 693.12,2.43 11.84,-11.49 -3.17,-14.97 56.32,-48.25 80.89,-45.25 20.09,-8.42 91.64,-27.73 194.62,-46.67 373.13,-130.97 606.63,-183.84 250.02,-56.64 544.46,-6.84 753.07,-49.84l160.65 -20.01 97.66 -67c546.47,-72.78 756.17,-177.78 1336.83,3.38 363.83,113.52 819.33,390.09 881.75,670.88 73.09,54.42 51.74,22.56 103.19,120.68 31.26,59.6 46.84,105.27 72.08,171.04 49.45,128.82 45.01,244.49 123.35,325.48l-4.54 -32.98 29.25 -103.8c-34.57,-697.46 -871.39,-1297.78 -1664.25,-1353.75 -245.27,-17.3 -496.46,10.68 -714.16,55.59 -261.83,53.99 -347.97,160.36 -606.99,144.78 -519.43,-31.19 -858.2,106.16 -1292.59,251.75 -944.91,316.82 -770.27,-204.95 -1625.94,-1216.15 -959.01,-1133.29 -1713.28,-303.21 -2130.54,-250.31z"/>
   <path class="fil33" d="M13094.85 7976.86l-9.06 15.12c-85.11,1064.29 348.85,1421.67 -634.05,2369.64 -119.09,114.86 -437.17,336.38 -609.13,407.22 246.08,59.7 789.58,-435.31 977.44,-630.25 105.38,-109.33 146.54,-216.79 230.11,-329.32 470.16,-185.35 1085.04,3.63 1401.89,256.61 309.2,246.89 639.44,494.38 1116.09,626.97 -285.87,362.28 -605.5,324.04 -309.87,985.9 -493.28,34.78 -930.42,195.22 -1432.94,178.41 -1317.87,-44.02 -2062.76,-680.47 -2400.69,-745.64 -246.85,-47.58 -383.57,-173.44 -485.03,-313.36 -111.91,-154.23 -248.09,-352.41 -105.14,-528.21l74.33 -168.5 -4.69 -61.3c5.47,-67.91 38.49,-147.04 -36.62,-147.04 -27.1,107.46 -41.3,163.64 -117.18,233.75 -26.33,359.81 -696.61,1319.34 -888.91,1574.48 -329.99,437.88 -776.05,823.88 -1362.73,1140.13 -1091.77,588.51 -1163.32,201.7 -1970.42,497.93 -269.55,98.94 -597.75,346.6 -748.35,503.93l-400.94 538.5c-63.97,105.74 -96.12,102.53 -36.41,202.06 148.73,-56 167.8,-313.57 469.84,-604.37 770.17,-741.48 1412.89,-755.79 2608.99,-589.68 636.09,88.36 1301.37,229.51 1927.38,252.81 708.81,26.4 1409.37,-125.65 2092.16,-139.85 -66.15,124.66 -136.54,233.88 -124.48,445.77 228.03,-267.57 44.23,-493.85 610.64,-394.67 -85.82,-129.77 -36.16,-53.18 -213.68,-147.85 126.14,-370.6 401.64,-952.27 785.11,-1092.37 254.29,-92.94 560.6,-48.53 753.14,75 197.33,126.63 315.93,349.52 324.95,669.44 4.59,162.65 -43.77,282.38 -35.84,452.4 61.89,1323.33 554.47,940.57 727.38,1679.76 38.87,166.14 -7.97,726.53 -109.79,789.9l-12.93 86.24 41.76 1.24c83.78,-124.59 142.78,-326.58 173.33,-511.76 128.58,-842.8 -479.18,-921.82 -602.22,-1377.78 -72.71,-269.44 -120.33,-612.9 -81.06,-886.82 63.26,-441.09 -131.92,-684.53 -121.98,-822.3 -270.82,-156.91 -284.36,-308.81 -729.5,-324.99 -379.48,-13.81 -547.7,164.49 -754.09,274.77 -46.52,153.1 -189.3,316.85 -280.23,509.99 -88.43,187.82 -122.9,405.63 -358.16,439.32 -429.21,61.43 -995.09,99.01 -1425.01,123.18 -1123.91,63.13 -1826.76,-184.5 -2855.06,-263.94l-160.93 -11.88c26.3,-68.8 -67.49,-14.28 90.55,-69.71 831.56,-200.76 1730.44,-1080.08 2197.22,-1827.09 13.88,-22.24 38.84,-66.47 52.83,-84.72 29.57,-38.53 31.26,-28.66 44.2,-37.89 34.85,-121.95 223.17,-506.75 334.89,-584.53 42.82,96.71 95.48,187.92 162.65,286.43 100.17,146.86 120.36,98.01 215.74,223.84 102.17,8.21 426.56,123.32 550.87,191.02 445.03,242.38 561.45,285.24 1047.68,447.82 123.85,41.41 572.73,133.08 561.87,137.14 348.32,44.97 600.46,68.76 957.32,38.8 293.58,-24.67 542.48,-121.84 820.1,-139.64 141.65,-119.76 558.74,91.25 681.88,151.41 443.13,36.27 404.5,57.14 731.64,-132.69 204.78,-118.81 487.01,-107.39 744.76,-101.54 284.92,-29.5 847.81,-36.59 1033.09,-143.06l-13.61 -85.75c-435.44,197.12 -1223.51,72.29 -1708.69,215.34l17.38 -125.01c-150.71,268.95 -324.64,371.73 -740.46,292.64 -392.45,-74.61 -910.12,-605.61 -92.48,-1091.1 289.74,-172.07 509.42,-27.6 820.56,9.86 15.97,-70.87 39.62,-73.02 156.6,-107.35 698.23,-204.98 1497.93,-784.44 1768.18,-403.45 106.09,31.76 61.51,17.06 155.54,65.28 -24.43,-45.82 -7.61,-42.83 -67.5,-97.21 -96.99,-88.07 -32.03,-35.56 -115.17,-52.65 -110.46,-25.8 -327.85,-40.46 -462.84,-77.26 -243.71,-22.35 -338.56,113.52 -552.53,156.91l-256.79 142.81c-780.1,318.89 -618.61,246.89 -1079.65,179.08 -265.46,-39.02 -368.87,111.94 -879.28,-167.66 -765.51,-419.31 -784.48,-873.96 -2049.37,-762.84 167.69,-793.42 106.54,-944.38 54.91,-1734 -9.16,7.26 -65.59,28.48 -79.51,48.18z"/>
   <path class="fil33" d="M3491.82 5142.91l-165.23 36.24c-30.27,82.68 -258.13,291.54 -357.56,337.89l-159.16 -281.57c12.41,152.75 58.22,187.92 104.01,320.86l-256.02 67.57 -168.86 72.92c-371.55,11.31 -785.35,528.42 -915.3,618.22l9.2 -4.61 -205.97 399.18c-5.04,21.92 -13.82,70.28 -22.91,94.95 -46.31,125.64 -10.82,25.9 -46.8,77.57 -245.2,940.89 -61.75,1291.61 -116.84,1502.2 -20.69,79.05 -361.72,500.05 -470.55,1232.33 -141.05,949.17 28.65,2322.33 831.81,2509.55l279.73 -20.65 36.09 -99.53c-401.12,82.33 -661.57,-141.51 -830.01,-483.03 -159.16,-322.7 -215.84,-638.98 -246.6,-1038.34 -67.67,-878.23 162.86,-1491.91 532.26,-2087.4 20.3,-81.31 -381.66,-1912.44 1045.64,-2555.9 121.31,-54.7 686.88,-205.87 712.29,-227.9 89.17,-77.32 68.66,-132.69 217.67,-234.9 671.66,-460.65 1105.45,-277.27 1794.83,-116.13 -110.49,-70.91 -386.98,-163.57 -556.75,-200.72 -471.08,-103.02 -673.28,48.04 -673.28,-89.13 -90.26,35.8 -107.18,67.14 -174.39,101.75 -50.65,26.08 -143.66,52.37 -197.3,68.58z"/>
   <path class="fil33" d="M7533 8873.42l38.17 -44.76c5.39,-331.97 -95.34,-612.13 -72.43,-989.11 17.45,-286.64 88.08,-583.12 206.54,-790.01l-50.58 1.17c-99.95,311.28 -228.24,417.26 -248.51,859.51 -6.59,143.72 4.9,933.87 126.81,963.2z"/>
   <path class="fil34" d="M10348.76 6720.92c64.82,-108.45 27.11,-95.02 110.11,-191.09 270.08,-10.19 292.63,189.96 286.71,476.08 -143.2,105.17 -363.37,101.08 -532.79,63.76 -155.75,-34.3 -267.58,-83.5 -272.86,-274.14l87.93 -116.66 320.9 42.05zm-1486.4 -520.77c-27.95,27.98 -16,29.92 -65.52,58.15 -73.87,42.12 -20.62,14.38 -82.44,17.83 -40.95,108.38 -109.08,120.54 -188.38,193 -221.51,202.34 -360.62,396.89 -505.48,674.02 -131.53,251.65 -342.54,939.55 -312.9,1264.9l17.59 153.38c-21.12,-105.49 -5.82,-8.74 50.85,-59.03 124.31,-148.35 163.75,-249.22 334.44,-396.47 65.13,-56.18 130.12,-107.32 218.62,-165.61 101.65,-66.97 164.98,-110.78 285.27,-118.71 120.54,-130.05 522.01,-187.22 703.1,-212.56 906.66,-126.81 1823.24,580.87 1886.25,813.09 78.78,42.16 23.9,-7.43 97.42,68.48 42.65,44.03 17.06,35.74 76.45,91.82l1.37 100.16c11.17,-3.06 57.77,-14.98 65.13,-16.1 35.11,-5.33 23.09,-6.03 76.87,-7.48 36.48,-152.43 90.69,-192.78 167.69,-317.59 5.68,90.34 6.81,56.57 -9.44,130.23 -21.82,98.83 -22.73,97.35 -65.17,168.9 68.06,-53.19 86.7,-76.1 169.21,-101.3l187.01 -53.01c-209.49,-29.46 -23.58,-314.52 -220.14,-382.65 -2.57,-0.88 -13.64,-4.05 -16.21,-4.97 -2.64,-0.98 -13.78,-5.71 -16,-6.59 -2.33,-0.88 -10.89,-4.86 -16.04,-7.86 46.63,-926.72 -66.26,-1371.47 -809.07,-1830.07 -100.59,-62.1 -186.84,-104.08 -302.47,-150.18 -281.61,-112.26 -216.41,-37.57 -368.31,-137.46 -208.61,43 -503.05,-6.8 -753.07,49.84 -233.5,52.87 -412.01,137.17 -606.63,183.84z"/>
   <path class="fil34" d="M10480.37 5879.46l-5.46 98.5c390.26,50.72 832.19,445.67 1005.84,661.69 289.96,360.69 347.94,765.19 310.08,1340.21 120.15,170.2 192.33,279.7 179.47,506.39 196.03,-213.61 434.67,-308.7 514.5,-406.26 -63.12,-24.43 -85.29,68.27 -51.95,-125.89 9.55,-55.59 54.84,-105.77 68.87,-125.05 78.13,-434.53 234.44,-774.5 197.23,-1275.33 -62.42,-280.79 -517.92,-557.36 -881.75,-670.88 -580.66,-181.16 -790.36,-76.16 -1336.83,-3.38z"/>
   <path class="fil35" d="M14143.45 13960.94c64.74,112.29 42.71,73.59 136.46,172.42 257.18,271.1 57.63,125.65 483.88,455.54 206.18,159.55 476.47,460.04 431.89,746.97 -33.8,-366.19 -403.87,-619.49 -678.43,-845.98 -85.92,-70.87 -9.41,5.43 -91.74,-82.12l-317.69 -406.05c-100.38,-58.96 -109.79,-109.61 -133.41,-238.29 74.12,74.12 120.4,80.99 169.04,197.51zm-200.33 89.49c-318.86,-592.22 -688.47,-875.58 -406.94,-1526.73 -169.49,835.12 409.44,1053.85 549.29,1745.81l-142.35 -219.08zm-5918.42 -4147.52c0,125.51 75.28,-9.73 -15.05,127.02 -187.29,59.14 -204.7,-88.99 -250.41,-279.24 -42.76,168.22 -20.83,208.79 -156.95,306.17 -182.28,-48.11 -129.87,-113.77 -183.38,-301.09 -39.12,-136.93 -102.84,-254.01 -25.2,-385.86 107.04,2.01 95.48,-42.82 152.33,97.1 42.37,104.32 -15.29,-24.25 22.77,84.48 30.84,88.18 25.59,56.85 41.24,83.28 4.47,-112.32 -9.59,-124.17 88.11,-239.98l43.21 -41.62c187.11,55.26 155.53,112.88 167.76,284l60.45 -101.54c43.63,-62.81 33.51,-40.85 65.27,-67.25l70.98 -27.63c18.15,204.56 -112.25,240.68 -81.13,462.16zm6352.88 5494.15l-72.11 -235.33c11.66,5.07 24.53,3.52 27.88,17.58 0,0.04 493.14,790.33 656.25,808.52l88.99 59.1 79.76 -66.75c101.82,-63.37 148.66,-623.76 109.79,-789.9 -172.91,-739.19 -665.49,-356.43 -727.38,-1679.76 -7.93,-170.02 40.43,-289.75 35.84,-452.4 -9.02,-319.92 -127.62,-542.81 -324.95,-669.44 -192.54,-123.53 -498.85,-167.94 -753.14,-75 -383.47,140.1 -658.97,721.77 -785.11,1092.37 177.52,94.67 127.86,18.08 213.68,147.85 -566.41,-99.18 -382.61,127.1 -610.64,394.67 -12.06,-211.89 58.33,-321.11 124.48,-445.77 -682.79,14.2 -1383.35,166.25 -2092.16,139.85 -626.01,-23.3 -1291.29,-164.45 -1927.38,-252.81 -1196.1,-166.11 -1838.82,-151.8 -2608.99,589.68 -302.04,290.8 -321.11,548.37 -469.84,604.37 -59.71,-99.53 -27.56,-96.32 36.41,-202.06l400.94 -538.5c150.6,-157.33 478.8,-404.99 748.35,-503.93 807.1,-296.23 878.65,90.58 1970.42,-497.93 586.68,-316.25 1032.74,-702.25 1362.73,-1140.13 192.3,-255.14 862.58,-1214.67 888.91,-1574.48l-51.14 -107.78 -212.7 13.96 -103.48 -131.22 -138.51 18.19c-58.26,138.75 -21.64,152.75 -405.49,124.3l-197.06 -221.12c-6.2,38.27 -19.13,190.39 -31.89,237.9 -142.74,-36.44 2.25,-58.72 -194.38,-41.34 -111.97,9.87 29.64,50.72 -121.34,14.91 -71.16,-43.53 -22.77,9.69 -96.93,-70.99 -67,-72.88 -58.15,-142.98 -166.7,-256.61 -9.91,157.75 17.87,213.26 -53.72,331.76l-53.57 12.15c-38.77,-116.2 -6.31,7.27 -37.36,-130.58l-138.4 52.02c-599.27,352.52 -839.32,-419.27 -393.05,-587.1 -56.22,-160.93 52.44,-43.77 -125.44,-108.03 -144.22,-52.09 -139.95,64.85 -139.95,-90.26l-539.74 -123.07c-192.82,284.92 -1779.04,1323.79 -2781.51,3801.45 -240.79,595.14 -951.64,910.3 -315.61,1813.65 195.71,278.01 368.09,451.2 627.14,659.92 358.3,288.73 1469.95,550.74 2070.73,582.42 1546.96,81.63 2902.71,-540.05 4368.92,-926.76 963.84,-254.22 1359.63,-142.84 2285.48,77.61l77.22 -164.17c-2.58,155.64 -30.49,255.14 48.56,376.27 286.72,103.09 188.67,-325.34 176.97,-510.13 125.93,136.58 125.61,291.37 118.52,500.79 -135.86,95.16 -254.74,241.92 -186.16,487.86 299.9,23.97 315.83,-158.14 269.94,-408.87 15.02,16.91 54.31,28.79 67.92,43.07z"/>
   <path class="fil35" d="M8244.52 6482c-719.94,53.57 -1728.5,-450.46 -2064.77,-798.29 743.48,336.16 1045.5,632.29 1910.36,745.42l154.41 52.87zm-3728.14 -1632l-652.87 122.58c0,137.17 202.2,-13.89 673.28,89.13 169.77,37.15 446.26,129.81 556.75,200.72 -689.38,-161.14 -1123.17,-344.52 -1794.83,116.13 -149.01,102.21 -128.5,157.58 -217.67,234.9 -25.41,22.03 -590.98,173.2 -712.29,227.9 -1427.3,643.46 -1025.34,2474.59 -1045.64,2555.9 -369.4,595.49 -599.93,1209.17 -532.26,2087.4 30.76,399.36 87.44,715.64 246.6,1038.34 168.44,341.52 428.89,565.36 830.01,483.03 592.29,-429.28 891.3,-1187.46 1016.85,-1928.45 73.16,-431.67 132.41,-854.08 145.2,-1296.22 19.39,-669.19 14.1,-652.42 390.02,-1106.97 41.13,-57.87 -3.7,-47.89 115.04,-93.99 -33.13,108.34 21.89,53.96 -88.43,111.16 -114.76,291.65 -318.36,367.6 -300.46,844.81 81.52,105.7 296.34,272.65 425.93,380.26 154.65,128.43 310.12,236.42 474.5,360.13 945.05,711.27 1300.1,751.94 2471.42,503.11 309.87,-65.83 763.23,-673.66 910.94,-724.52l107.53 5.57 -65.21 -69.29 62.21 -118.21c-121.91,-29.33 -133.4,-819.48 -126.81,-963.2 20.27,-442.25 148.56,-548.23 248.51,-859.51 28.76,-72.47 -4.83,-87.87 188.24,-204.88 -31.12,128.78 -115.88,185.07 -115.92,185 -3.24,-6.35 -14.73,12.23 -21.74,18.71 -118.46,206.89 -189.09,503.37 -206.54,790.01 -22.91,376.98 77.82,657.14 72.43,989.11 32.46,-33.42 8.35,-2.3 56.04,-59.29 13.25,-15.86 30.91,-41.69 32.81,-44.09 1.27,-37.43 -1.34,-121.91 1.45,-156.69 1.44,-18.23 3.45,-56.61 6.34,-70.07 12.37,-57.31 28.2,-69.57 39.83,-90.47 -29.64,-325.35 181.37,-1013.25 312.9,-1264.9 144.86,-277.13 283.97,-471.68 505.48,-674.02 79.3,-72.46 147.43,-84.62 188.38,-193 -254.85,13.75 -452.36,163.72 -693.12,-2.43 -389.98,-269.02 -920.13,-1509.42 -1569.37,-1771 -430.69,-173.51 -926.3,34.64 -1305.64,220.56 -530.82,260.17 -130.47,68.72 -629.89,126.74z"/>
   <path class="fil35" d="M12121.82 10058.76c-93.05,-100.87 -83.6,-163.28 -83.67,-339.72 -0.11,-213.37 -2.58,-263.49 83.67,-364.96 134.81,11.35 138.86,29.85 201.84,131.36 44.45,71.58 75.28,133.33 98.55,192.61 53.18,-237.3 -65.77,-295.1 173.36,-319.1 48.92,167.02 63.9,476.79 3.28,664.25 -198.95,68.31 -181.09,-16.63 -312.44,-200.29 -49.27,-68.87 -34.89,-37.64 -41.45,-81.95 -54.06,183.28 40.53,254.22 -123.14,317.8zm-164.56 -658.93l4.58 68.41c13.25,298.1 28.51,435.69 -231.2,537.94 -36.2,27.38 -6.07,6.2 -47.87,40.81 -63.26,52.38 -1.97,5.92 -67.67,52.31 -79.4,211.96 -482.42,362.27 -782.81,274.52l2.18 -103.87c-142.95,175.8 -6.77,373.98 105.14,528.21 101.46,139.92 238.18,265.78 485.03,313.36 337.93,65.17 1082.82,701.62 2400.69,745.64 502.52,16.81 939.66,-143.63 1432.94,-178.41 -295.63,-661.86 24,-623.62 309.87,-985.9 -476.65,-132.59 -806.89,-380.08 -1116.09,-626.97 -316.85,-252.98 -931.73,-441.96 -1401.89,-256.61 -83.57,112.53 -124.73,219.99 -230.11,329.32 -187.86,194.94 -731.36,689.95 -977.44,630.25 171.96,-70.84 490.04,-292.36 609.13,-407.22 982.9,-947.97 548.94,-1305.35 634.05,-2369.64l-438.12 583.44c-209.08,189.83 -350.58,253.45 -611.78,391.68l-78.63 432.73z"/>
   <path class="fil35" d="M16669.78 11203.44l-176.36 174.6 151.69 -205.58c151.98,-195.82 404.71,-248.48 658.23,-212.46l220.67 78.28c-571.81,-7.26 -426.75,-62.7 -854.23,165.16zm1536.17 281.85c266.59,-92.69 340.75,-199.77 424.1,-501.85 -9.37,-79.44 -9.73,-290.63 -48.74,-406.02l-154.27 -301.2c-270.25,-380.99 -1069.95,198.47 -1768.18,403.45 -116.98,34.33 -140.63,36.48 -156.6,107.35 -311.14,-37.46 -530.82,-181.93 -820.56,-9.86 -817.64,485.49 -299.97,1016.49 92.48,1091.1 415.82,79.09 589.75,-23.69 740.46,-292.64l-17.38 125.01c485.18,-143.05 1273.25,-18.22 1708.69,-215.34z"/>
   <path class="fil35" d="M2868.09 10709.91c268.43,-200.05 782.36,-1430.23 692.84,-1651.78 0,0 -315.33,-320.72 -424.55,-335.98 -6.6,1039.75 -128.72,1152.92 -268.29,1987.76z"/>
   <path class="fil35" d="M18399.91 10191.64c83.14,17.09 18.18,-35.42 115.17,52.65 59.89,54.38 43.07,51.39 67.5,97.21 -94.03,-48.22 -49.45,-33.52 -155.54,-65.28l154.27 301.2c39.01,115.39 39.37,326.58 48.74,406.02l15.79 -104.43 53.79 -287.24 49.44 91.74 64.61 -36.9c237.19,-126.11 167.23,30.42 375.18,-46.35 6.62,-14.77 54.03,45.15 20.93,-108.09 -9.48,-43.95 -26.01,-52.73 -53.29,-93.23l-135.09 -3.55c-27.14,74.04 -108.31,69.78 -187.5,56.6 -121.63,-20.23 -98.79,-38.1 -134.57,-104.93l230.96 26.58c343.5,-94.17 267.83,-434.71 -106.65,-344.98 -104.29,25.03 -356.29,85.54 -423.74,162.98z"/>
   <path class="fil36" d="M4505.31 3659.47l-9.73 250.73c154.59,228.95 418.08,428.4 492.23,755.85 417.26,-52.9 1171.53,-882.98 2130.54,250.31 855.67,1011.2 681.03,1532.97 1625.94,1216.15 434.39,-145.59 773.16,-282.94 1292.59,-251.75 259.02,15.58 345.16,-90.79 606.99,-144.78 217.7,-44.91 468.89,-72.89 714.16,-55.59 792.86,55.97 1629.68,656.29 1664.25,1353.75 70.21,-6.24 53.57,-22.2 49.45,48.32 173.72,292.6 205.23,577.03 23.12,894.4 13.92,-19.7 70.35,-40.92 79.51,-48.18 51.63,789.62 112.78,940.58 -54.91,1734 1264.89,-111.12 1283.86,343.53 2049.37,762.84 510.41,279.6 613.82,128.64 879.28,167.66 461.04,67.81 299.55,139.81 1079.65,-179.08l256.79 -142.81c3.84,-530.79 -13.04,-942.23 -53.78,-1456.49 -132.41,-828.31 -306.03,-1479.71 -610.08,-2166.09 -145.35,-328.17 -325.67,-646.85 -491.67,-934.55 -104.36,-180.91 -526.76,-729.46 -547.56,-824.73 -76.58,-44.62 -3.1,20.27 -91.99,-66.85l-451.83 -542.77 -13.47 -11.99c-96.95,-46.34 -56.46,-14.73 -137.27,-94.73l-1703.59 -1291.47c-124.13,-16.11 -382.51,-167.59 -500.54,-223.24 -165.26,-77.86 -311.07,-138.65 -513.45,-213.83 -2300.76,-854.89 -4819.59,-620.48 -6916.75,640.57l-847.25 574.35z"/>
   <path class="fil36" d="M1831.37 12105.56l-279.73 20.65c128.25,49.13 182.99,18.86 330.31,9.8 110.21,531.24 513.23,1346.91 809.74,1835.05 107.85,177.6 239.14,350.72 336.48,514.61 29.22,-37.65 -79.86,-145.85 141.79,19.38 6.45,4.79 13.47,13.04 19.71,18.05 5.81,4.72 13.88,11.03 19.56,15.68 5.35,4.37 13.78,9.73 19.03,14.03 159.62,129.73 -47.02,89.02 202.34,105.27l-34.75 243.47c145.52,-46.52 85.01,-29.64 159.2,-99.42 6.87,-6.45 41.55,-36.66 52.76,-39.55 -93.22,89.42 -86.46,204.74 -85.22,301.38 36.69,95.79 11.27,37.71 76.97,118.6 64.15,79.02 32.43,26.01 74.47,119.97 64.25,29.85 -24.6,-41.02 73.73,45.99 39.34,34.79 48.96,52.48 84.8,90.09 55.58,58.44 97.91,93.26 149.58,143.76 1107.42,1013.74 2698.29,2014.76 4803.6,2174.03 1817.95,137.56 3355.07,-260.67 4857.69,-1158.59 162.41,-97.07 357.95,-253.98 500.26,-325.74l0 -41.73c-119.93,-65.59 -117.04,-188.69 -103.54,-354.7 -121.95,-174.67 -124.03,-174.78 -92.03,-474 -160.5,-75.95 -97.66,-98.3 -179.29,-232.3 -833.5,-176.89 -1195.04,-333.8 -2081.12,-106.44 -2357.37,604.91 -3459.02,1419.02 -6043.93,653.79 -594.29,-175.91 -1033.05,-559.54 -1356.56,-1081.55 -320.87,-517.82 -236.07,-871 95.97,-1354.28 84.16,-122.47 197.9,-236.03 252.63,-371.33 277.27,-685.55 484.12,-1063.33 819.76,-1615.72 326.4,-537.13 1015.57,-1308.07 1070.41,-1403.76 -1037.74,135.48 -1252.27,341.55 -2272.04,-333.17 -192.86,-127.62 -398.09,-319.92 -592.22,-411.87 -34.57,685.05 -570.22,1518.38 -955.09,2006.2l-485.32 696.89c-86.49,118.88 -194.16,216.65 -389.95,257.46z"/>
   <g>
    <path class="fil36" d="M10377.07 11196.04c-12.94,9.23 -14.63,-0.64 -44.2,37.89 -13.99,18.25 -38.95,62.48 -52.83,84.72 -466.78,747.01 -1365.66,1626.33 -2197.22,1827.09 5,5.07 -17.98,129.2 46.91,55.65 5.04,-5.71 14.8,18.15 23.47,25.94 1028.3,79.44 1731.15,327.07 2855.06,263.94 429.92,-24.17 995.8,-61.75 1425.01,-123.18 235.26,-33.69 269.73,-251.5 358.16,-439.32 90.93,-193.14 233.71,-356.89 280.23,-509.99l58.19 -160.58c-31.69,-64.14 19.31,-49.48 -71.09,-104.35l36.41 -116.35 182 -24.91 -26.4 -114.83c10.86,-4.06 -438.02,-95.73 -561.87,-137.14 -486.23,-162.58 -602.65,-205.44 -1047.68,-447.82 -124.31,-67.7 -448.7,-182.81 -550.87,-191.02l-185.32 -46.03c-6.84,11.42 -16.21,26.29 -20.09,34.54l-126.21 -46.56c-10.61,-36.13 -137.67,-22.77 -201.35,-22.77l-44.16 92.1c-2.29,8.1 7.33,35.66 9.55,47.01 -47.41,-33.97 -103.94,0.5 -145.7,15.97z"/>
    <path class="fil36" d="M14555.25 12469c-9.94,137.77 185.24,381.21 121.98,822.3 -39.27,273.92 8.35,617.38 81.06,886.82 123.04,455.96 730.8,534.98 602.22,1377.78 54.92,-649.63 35.18,-358.54 167.06,-584.78 40.29,-69.07 3.39,11.67 21.61,-65.13 -6.7,-134.7 -57.34,-7.12 47.16,-143.41 73.48,-200.57 -80.96,82.26 20.19,-67.56l47.44 -53.33 -161.98 -106.96c-54.21,-23.69 -27.11,-12.16 -77.61,-15.44 -11.95,-247 6.59,-45.47 -69.36,-138.02 -266.91,15.76 -104.26,32.85 -104.47,33.66 -3.73,-15.05 -19.24,-103.23 -19.35,-103.58 -76.34,-249.68 11.1,-33.56 -84.76,-139.89 -11.91,4.33 -28.94,-0.74 -34.82,15.15l-97 54.53c-46.48,17.55 -30.13,8.99 -76.97,-0.28 249.04,-31.58 31.86,18.46 139.07,-69.58 -1.37,-3.63 17.35,-64.99 -73.66,-104.36 137.32,-27.84 12.73,16.29 115.68,-62.66l757.76 -1110.88 603.21 352.2c68.94,54.77 57.16,-101.01 57.16,90.9l41.38 0.18c93.08,-73.74 287.39,-595.82 337.93,-756.21 -10.44,-5.15 -21.19,-16.57 -25.52,-23.76 -75.21,-124.87 0.11,-22.77 -25.8,-183.69 -46.94,-291.69 -42.75,-20.97 -87.76,-218.98l-413.7 37.92c-19.49,-105.24 -87.44,3 -34.96,-87.23 39.19,39.58 11.35,33.35 98.61,48.64 9.73,1.73 143.13,0.32 144.58,0.32 -18.51,-360.87 0.63,-146.3 -590.56,-138.27 -215.63,2.93 -206.22,17.52 -271,-67.07 -123.14,-60.16 -540.23,-271.17 -681.88,-151.41 -8.77,11.92 -17.16,28.27 -23.82,37.47l-66.54 118.81c-84.8,-36.8 -14.38,-35.99 -167.84,-41.52 -85.82,-3.1 -148.7,7.51 -249.18,2.01l151.24 145.42c39.72,15.08 78.49,22.27 161.66,24.99 -67.88,28.44 -72.46,160.39 -38.27,4.9l-170.34 -1.41c-27.07,128.22 5.67,-3 -34.75,136 -52.76,-173.08 15.3,-28.58 -139.08,-69.57 23.58,180 20.66,147.92 103.98,314.98z"/>
   </g>
   <path class="fil37" d="M11104.34 8730.71l274.66 -48.11 -1.37 -100.16c-59.39,-56.08 -33.8,-47.79 -76.45,-91.82 -73.52,-75.91 -18.64,-26.32 -97.42,-68.48 48.75,218.59 15.48,38.49 -20.61,114.06l-141.69 173.33c-11.49,10.78 -21.46,23.44 -31.96,35.38l94.84 -14.2z"/>
   <path class="fil38" d="M11521 8659.02l93.08 -18.46c42.44,-71.55 43.35,-70.07 65.17,-168.9 16.25,-73.66 15.12,-39.89 9.44,-130.23 -77,124.81 -131.21,165.16 -167.69,317.59z"/>
   <path class="fil38" d="M11071.1 9618.03c49.94,-61.15 0.6,59.18 48.08,-69.15 23.79,-64.22 5.28,-13.22 22.27,-101.61 -4.79,9.27 -11.77,20.44 -15.12,27.49l-55.23 143.27z"/>
   <path class="fil16" d="M10885.54 9800.53c-6.06,69.85 13.29,20.19 -18.05,92.58 75.11,0 42.09,79.13 36.62,147.04l32.18 -48.39c15.69,-32.21 19.92,-47.12 31.26,-73.59 24.82,-57.83 28.13,-59.07 54.67,-124.48l-97.03 -1.83 -39.65 8.67z"/>
   <path class="fil39" d="M10885.54 9800.53c40.25,-118.71 16.39,-199.7 -41.06,-290.38 -35.24,-80.93 0.67,-65.84 -41.8,-92.7 -142.18,35.95 -97.35,82.37 -95.9,266.42 0.88,115.07 -12.62,225.07 24.42,311.95 39.8,-44.94 34.51,-2.89 48.36,-100.52 0.39,-2.86 -1.83,-96.64 -2.08,-106.09 -0.67,-25.27 -5.32,-123.28 -2.93,-140.73 9.94,-72.88 16.92,-50.19 29.05,-81.84l81.94 233.89z"/>
   <path class="fil22" d="M10925.19 9791.86l97.03 1.83 48.88 -175.66 55.23 -143.27c3.35,-7.05 10.33,-18.22 15.12,-27.49 15.58,-33.13 1.94,-21.96 22.77,-56.67 76.13,-126.92 11.88,-31.58 69.4,-85.89l13.42 -86.6 -73.94 -38.45c-71.58,164.59 -205.33,393.43 -247.91,612.2z"/>
   <g>
    <path class="fil39 str2" d="M12149.41 9992.12l5.68 -468.93c214.35,118.38 176.82,394.88 392.87,474.85l9.51 -455.26c-34.43,-178.86 -2.74,-50.08 -56.88,-119.09l-1.48 448.74c-186.37,-106.58 -162.87,-381.99 -390.12,-448.25 3.24,181.41 -21.5,473.09 40.42,567.94z"/>
    <path class="fil39 str2" d="M12149.41 9992.12c-61.92,-94.85 -37.18,-386.53 -40.42,-567.94 227.25,66.26 203.75,341.67 390.12,448.25l1.48 -448.74c54.14,69.01 22.45,-59.77 56.88,119.09l-9.51 455.26c-216.05,-79.97 -178.52,-356.47 -392.87,-474.85l-5.68 468.93zm-27.59 66.64c163.67,-63.58 69.08,-134.52 123.14,-317.8 6.56,44.31 -7.82,13.08 41.45,81.95 131.35,183.66 113.49,268.6 312.44,200.29 60.62,-187.46 45.64,-497.23 -3.28,-664.25 -239.13,24 -120.18,81.8 -173.36,319.1 -23.27,-59.28 -54.1,-121.03 -98.55,-192.61 -62.98,-101.51 -67.03,-120.01 -201.84,-131.36 -86.25,101.47 -83.78,151.59 -83.67,364.96 0.07,176.44 -9.38,238.85 83.67,339.72z"/>
    <path class="fil39 str2" d="M11830.17 9686.4c0.81,129.21 -13.93,133.19 -78.7,200.9l-20.83 118.88c259.71,-102.25 244.45,-239.84 231.2,-537.94 -36.79,47.58 -13.04,7.93 -43.56,78.45 -99.64,230.26 -25.17,79.55 -88.11,139.71z"/>
   </g>
   <path class="fil28" d="M8354.59 9385.31c50.12,-21.32 60.27,-38.7 119.3,-40.71 252.56,-8.6 138.44,55.97 140.73,58.61 270.47,-42.75 158.92,219.61 202.77,454.94 -60.31,70.07 -44.48,67.95 -69.75,114.26l138.4 -52.02c31.05,137.85 -1.41,14.38 37.36,130.58l53.57 -12.15 -18.75 -45.72c-94.63,-64 -43.31,-428.5 -42.43,-564.76 138.23,56.47 39.3,5.11 139.67,116.8 87.66,27.46 30.1,-6.34 90.41,53.51 7.12,7.04 22.9,33.62 30.34,41.16 50.3,51.04 11.31,15.68 68.94,56.36l8.49 -275.16c100.24,-58.08 9.41,-12.58 51.67,12.9 68.8,56.57 40.75,33.98 40.53,250.06 -0.1,98.12 6,178.8 0.57,278.54l-68.41 20.8 16.32 51.35c150.98,35.81 9.37,-5.04 121.34,-14.91 196.63,-17.38 51.64,4.9 194.38,41.34 12.76,-47.51 25.69,-199.63 31.89,-237.9l7.19 -42.93c-71.65,71.27 -17.58,29.68 -34.43,86.49 -58.19,196.07 17.69,55.69 -89.84,140.42l-15.3 -430.87c27.18,-274.13 -10.5,-73.91 74.37,-139.57l1.73 264.2c284.18,-81.74 -21.25,55.22 280.23,-271.56 -65.06,-163.36 53.11,-80.89 134.91,-52.73l71.69 -8.92c14.66,-3.8 54.63,-19.49 102.46,-31.15 84.34,77.18 27.74,-30.38 47.33,92.13l-11.66 -57.35c15.54,0 39.61,-1.23 42.92,17.59 2.58,14.59 16.99,16.99 25.98,24.92l104.57 8.77 23.12 95.55c-26.75,-130.47 -13.15,-16.99 54.74,-65.34l162.9 460.29c44.54,-149.54 -8.74,-355.02 46.84,-524.33 0.77,-0.35 -12.09,-63.48 181.65,-16.07 4.9,11.59 17.27,14.62 16.14,34.15l-24.99 103.27c57.45,90.68 81.31,171.67 41.06,290.38l39.65 -8.67c42.58,-218.77 176.33,-447.61 247.91,-612.2 -435.9,110.21 -1039.12,129.2 -1519.64,130.12 -561.31,1.06 -1051.03,-90.72 -1564.26,-122.76 0,155.11 -4.27,38.17 139.95,90.26 177.88,64.26 69.22,-52.9 125.44,108.03z"/>
   <g>
    <path class="fil40" d="M11615.1 10099.3c65.7,-46.39 4.41,0.07 67.67,-52.31 41.8,-34.61 11.67,-13.43 47.87,-40.81l20.83 -118.88c-193.32,-28.8 -258.66,-34.29 -196.46,-272.65 67.14,-65.38 62.7,-76.59 187.64,-74.33 66.86,65.44 49.42,27.17 87.52,146.08 62.94,-60.16 -11.53,90.55 88.11,-139.71 30.52,-70.52 6.77,-30.87 43.56,-78.45l-4.58 -68.41c-180.7,11.81 -512.35,-156.59 -595.64,161.14 -104.64,399.11 201.67,467.59 253.48,538.33z"/>
    <path class="fil40" d="M11141.45 9447.27c-16.99,88.39 1.52,37.39 -22.27,101.61 -47.48,128.33 1.86,8 -48.08,69.15l-48.88 175.66c-26.54,65.41 -29.85,66.65 -54.67,124.48 -11.34,26.47 -15.57,41.38 -31.26,73.59l-32.18 48.39 4.69 61.3c171.22,-89.1 182.11,-38.77 232.9,-240.8 35.24,240.8 161.38,273.85 198.11,70.35 21.64,-119.94 4.3,-416.34 -7.47,-541.85l-98.72 -84.44c-57.52,54.31 6.73,-41.03 -69.4,85.89 -20.83,34.71 -7.19,23.54 -22.77,56.67z"/>
   </g>
   <path class="fil41" d="M11751.47 9887.3c64.77,-67.71 79.51,-71.69 78.7,-200.9 -38.1,-118.91 -20.66,-80.64 -87.52,-146.08 -124.94,-2.26 -120.5,8.95 -187.64,74.33 -62.2,238.36 3.14,243.85 196.46,272.65z"/>
   <g>
    <path class="fil39 str2" d="M8614.41 7821.61l-3.91 -15.51c-16.67,117.44 -19.35,95.87 -34.89,208.16l-113 35.14c122.37,138.86 120.82,-117.65 95.83,121.84 -265.71,37.6 -210.65,155.22 -434.49,191.06 16.03,-201.35 -4.44,-46.84 69.82,-195.89l-174.11 -12.48c54.7,289.5 56.18,79.09 51.88,347.66 115.21,10.29 44.37,23.4 156.52,-52.1 20.13,158.01 -47.83,130.06 104.04,117.79l-210.06 26.26c63.73,21.39 72.19,13.99 140.31,27.53 49.98,9.93 52.76,8.91 101.33,25.62l54.38 35.84c364.57,1.41 821.98,72.5 1199.31,88.82 402.35,17.37 905.71,24.11 1302.6,-21.92l184.37 4.3 0 -23.02 -94.84 14.2c10.5,-11.94 20.47,-24.6 31.96,-35.38l141.69 -173.33c36.09,-75.57 69.36,104.53 20.61,-114.06 -63.01,-232.22 -979.59,-939.9 -1886.25,-813.09 -181.09,25.34 -582.56,82.51 -703.1,212.56z"/>
    <g>
     <path class="fil39 str2" d="M8958.22 9993.1l18.75 45.72c71.59,-118.5 43.81,-174.01 53.72,-331.76 108.55,113.63 99.7,183.73 166.7,256.61 74.16,80.68 25.77,27.46 96.93,70.99l-16.32 -51.35 -218.91 -360.31c-83.88,-131.75 17.31,-30.77 -100.73,-101.54l-0.14 471.64z"/>
     <polygon class="fil39 str2" points="10226.25,9772.37 10411.68,9770.11 10334.67,9524.81 "/>
     <path class="fil39 str2" d="M8958.22 9993.1l0.14 -471.64c118.04,70.77 16.85,-30.21 100.73,101.54l218.91 360.31 68.41 -20.8c5.43,-99.74 -0.67,-180.42 -0.57,-278.54 0.22,-216.08 28.27,-193.49 -40.53,-250.06l-23.01 457.65 -226.84 -346.42c-100.37,-111.69 -1.44,-60.33 -139.67,-116.8 -0.88,136.26 -52.2,500.76 42.43,564.76z"/>
     <path class="fil39 str2" d="M7660.02 8725.28c370.95,-94.84 392.52,-43.66 758.04,-42.75l-54.38 -35.84c-48.57,-16.71 -51.35,-15.69 -101.33,-25.62 -68.12,-13.54 -76.58,-6.14 -140.31,-27.53l-311.13 30.42c-52.87,-55.27 -57.7,91.49 -34.83,-121.56 -56.67,50.29 -71.97,-46.46 -50.85,59.03l-17.59 -153.38c-11.63,20.9 -27.46,33.16 -39.83,90.47 -2.89,13.46 -4.9,51.84 -6.34,70.07 -2.79,34.78 -0.18,119.26 -1.45,156.69z"/>
     <path class="fil39 str2" d="M8034.85 9468.38l-66.3 299.23c-30.09,68.02 -23.96,38.91 -59.74,77.75 -9.26,-103.34 -23.36,-138.02 -51.7,-240.97 -55.93,-203.4 -61.36,-149.47 -150.35,-198.25 -14.59,181.65 -89.03,285.9 -89.1,476.01 -161.84,-183.69 11.1,-306.77 -219.47,-475.83 25.76,164.27 73.77,517.21 204.1,592.77 20.27,-39.5 70.39,-173.15 89.81,-228.03 15.33,-43.17 22.31,-105.91 33.34,-140.02 38.45,-119.06 18.99,-48.36 50.19,-86.14l139.56 458.14 109.51 -100.13c-31.12,-221.48 99.28,-257.6 81.13,-462.16l-70.98 27.63z"/>
     <path class="fil39 str2" d="M8587.24 9496.37c154.58,136.89 122.19,195.5 69.54,412.53 -157.51,41.52 -190.36,50.4 -343.78,4.34 -65.24,-277.8 -82.47,-471.12 274.24,-416.87zm27.38 -93.16c-10.22,2.37 -588.48,10.4 -382.4,450.71 181.3,387.45 839.53,-9.94 398.4,-433.75 -3.27,-3.18 -10.96,-11.04 -16,-16.96z"/>
     <path class="fil39 str2" d="M10334.67 9524.81l77.01 245.3 -185.43 2.26 108.42 -247.56zm72.53 -6.63l-23.12 -95.55 -104.57 -8.77c-39.05,112.39 -78.74,220.24 -117.33,330.8 -24.04,68.73 -51.6,108.63 -64.99,147.64 -62.24,181.51 -7.37,82.02 8.21,117.02 6.66,-7.62 15.97,-17.13 19.88,-22.81l84.37 -154.79 255.77 -2.79 33.73 183.13c96.57,-94.63 103.83,120.01 53.89,-138.58l-145.84 -355.3z"/>
     <path class="fil39 str2" d="M9649.12 9780.26l63.16 -44.16c154.73,206.22 118.21,226.76 252.81,264.93 -50.86,-138.68 -124.91,-182.78 -198.92,-300.56 39.02,-172.6 77.57,-139.43 155.32,-264.27l-55.61 -6.83c-301.48,326.78 3.95,189.82 -280.23,271.56l-1.73 -264.2c-84.87,65.66 -47.19,-134.56 -74.37,139.57l15.3 430.87c107.53,-84.73 31.65,55.65 89.84,-140.42 16.85,-56.81 -37.22,-15.22 34.43,-86.49z"/>
     <path class="fil39 str2" d="M9055.46 9545.14l226.84 346.42 23.01 -457.65c-42.26,-25.48 48.57,-70.98 -51.67,-12.9l-8.49 275.16c-57.63,-40.68 -18.64,-5.32 -68.94,-56.36 -7.44,-7.54 -23.22,-34.12 -30.34,-41.16 -60.31,-59.85 -2.75,-26.05 -90.41,-53.51z"/>
     <path class="fil39 str2" d="M9649.12 9780.26l-7.19 42.93 197.06 221.12c383.85,28.45 347.23,14.45 405.49,-124.3l138.51 -18.19 103.48 131.22 212.7 -13.96 51.14 107.78c75.88,-70.11 90.08,-126.29 117.18,-233.75 31.34,-72.39 11.99,-22.73 18.05,-92.58l-81.94 -233.89c-12.13,31.65 -19.11,8.96 -29.05,81.84 -2.39,17.45 2.26,115.46 2.93,140.73 0.25,9.45 2.47,103.23 2.08,106.09 -13.85,97.63 -8.56,55.58 -48.36,100.52 -37.04,-86.88 -23.54,-196.88 -24.42,-311.95 -1.45,-184.05 -46.28,-230.47 95.9,-266.42 42.47,26.86 6.56,11.77 41.8,92.7l24.99 -103.27c1.13,-19.53 -11.24,-22.56 -16.14,-34.15 -193.74,-47.41 -180.88,15.72 -181.65,16.07 -55.58,169.31 -2.3,374.79 -46.84,524.33l-162.9 -460.29c-67.89,48.35 -81.49,-65.13 -54.74,65.34l145.84 355.3c49.94,258.59 42.68,43.95 -53.89,138.58l-33.73 -183.13 -255.77 2.79 -84.37 154.79c-3.91,5.68 -13.22,15.19 -19.88,22.81 -15.58,-35 -70.45,64.49 -8.21,-117.02 13.39,-39.01 40.95,-78.91 64.99,-147.64 38.59,-110.56 78.28,-218.41 117.33,-330.8 -8.99,-7.93 -23.4,-10.33 -25.98,-24.92 -3.31,-18.82 -27.38,-17.59 -42.92,-17.59l11.66 57.35 -220.98 499.2c24.56,-55.65 34.57,14.98 -8,-53.5l-152.29 -191.45c116.83,-166.95 175.27,-204.03 159.79,-306.31 -81.8,-28.16 -199.97,-110.63 -134.91,52.73l55.61 6.83c-77.75,124.84 -116.3,91.67 -155.32,264.27 74.01,117.78 148.06,161.88 198.92,300.56 -134.6,-38.17 -98.08,-58.71 -252.81,-264.93l-63.16 44.16z"/>
     <path class="fil39 str2" d="M8024.7 9902.91l-109.51 100.13 -139.56 -458.14c-31.2,37.78 -11.74,-32.92 -50.19,86.14 -11.03,34.11 -18.01,96.85 -33.34,140.02 -19.42,54.88 -69.54,188.53 -89.81,228.03 -130.33,-75.56 -178.34,-428.5 -204.1,-592.77 230.57,169.06 57.63,292.14 219.47,475.83 0.07,-190.11 74.51,-294.36 89.1,-476.01 88.99,48.78 94.42,-5.15 150.35,198.25 28.34,102.95 42.44,137.63 51.7,240.97 35.78,-38.84 29.65,-9.73 59.74,-77.75l66.3 -299.23c-31.76,26.4 -21.64,4.44 -65.27,67.25l-60.45 101.54c-12.23,-171.12 19.35,-228.74 -167.76,-284l-43.21 41.62c-97.7,115.81 -83.64,127.66 -88.11,239.98 -15.65,-26.43 -10.4,4.9 -41.24,-83.28 -38.06,-108.73 19.6,19.84 -22.77,-84.48 -56.85,-139.92 -45.29,-95.09 -152.33,-97.1 -77.64,131.85 -13.92,248.93 25.2,385.86 53.51,187.32 1.1,252.98 183.38,301.09 136.12,-97.38 114.19,-137.95 156.95,-306.17 45.71,190.25 63.12,338.38 250.41,279.24 90.33,-136.75 15.05,-1.51 15.05,-127.02z"/>
     <path class="fil39 str2" d="M8614.62 9403.21c5.04,5.92 12.73,13.78 16,16.96 441.13,423.81 -217.1,821.2 -398.4,433.75 -206.08,-440.31 372.18,-448.34 382.4,-450.71zm133.02 569.2c25.27,-46.31 9.44,-44.19 69.75,-114.26 -43.85,-235.33 67.7,-497.69 -202.77,-454.94 -2.29,-2.64 111.83,-67.21 -140.73,-58.61 -59.03,2.01 -69.18,19.39 -119.3,40.71 -446.27,167.83 -206.22,939.62 393.05,587.1z"/>
     <path class="fil39 str2" d="M8370.24 9810.43c-29.54,-176.58 -31.97,-232.16 135.97,-283.75 131.75,88.81 120.29,153.98 93.89,320.19 -251.71,52.02 -209.98,-17.8 -229.86,-36.44zm217 -314.06c-356.71,-54.25 -339.48,139.07 -274.24,416.87 153.42,46.06 186.27,37.18 343.78,-4.34 52.65,-217.03 85.04,-275.64 -69.54,-412.53z"/>
     <path class="fil39 str2" d="M10222.27 9428.7c-19.59,-122.51 37.01,-14.95 -47.33,-92.13 -47.83,11.66 -87.8,27.35 -102.46,31.15l-71.69 8.92c15.48,102.28 -42.96,139.36 -159.79,306.31l152.29 191.45c42.57,68.48 32.56,-2.15 8,53.5l220.98 -499.2z"/>
     <path class="fil39 str2" d="M8370.24 9810.43c19.88,18.64 -21.85,88.46 229.86,36.44 26.4,-166.21 37.86,-231.38 -93.89,-320.19 -167.94,51.59 -165.51,107.17 -135.97,283.75z"/>
    </g>
   </g>
   <path class="fil40" d="M11104.34 8753.73l-184.37 -4.3 141.41 -4.16 -121.56 205.54 173.01 -10.36 -33.8 183.63c267.4,-17.52 401.12,-2.33 417.19,177.35 190.89,-25.38 225.92,-25.38 416.84,0 -56.95,-173.97 -50.08,-41.77 -39.12,-128.61 5.43,-42.96 -12.62,34.43 25.13,-44.94l48.74 -69.57c-60.65,-44.37 -42.11,-71.19 -48.6,-174.11 295.03,-1.23 52.62,23.16 152.89,-104.18 -290.27,-11.56 102.81,-47.02 -243.36,-69.54 2.43,-2.54 18.96,-30.91 17.9,-36.41 -28.72,-146.3 23.79,1.94 -52.48,-66.4 -91.92,54.88 -189.23,205.58 -69.53,102.81 -357.07,14.84 -300.68,121.91 -600.29,43.25z"/>
  </g>
 </g>
</svg>
