<?xml version="1.0" encoding="UTF-8"?>
<!DOCTYPE svg PUBLIC "-//W3C//DTD SVG 1.1//EN" "http://www.w3.org/Graphics/SVG/1.1/DTD/svg11.dtd">
<!-- Creator: CorelDRAW 2017 -->
<svg xmlns="http://www.w3.org/2000/svg" xml:space="preserve" width="181mm" height="181mm" version="1.1" style="shape-rendering:geometricPrecision; text-rendering:geometricPrecision; image-rendering:optimizeQuality; fill-rule:evenodd; clip-rule:evenodd"
viewBox="0 0 18100 18100"
 xmlns:xlink="http://www.w3.org/1999/xlink">
 <defs>
  <style type="text/css">
   <![CDATA[
    .fil1 {fill:#FEFEFE}
    .fil0 {fill:#292929}
    .fil3 {fill:#693E16}
    .fil2 {fill:#FDCD0E}
   ]]>
  </style>
 </defs>
 <g id="Capa_x0020_1">
  <metadata id="CorelCorpID_0Corel-Layer"/>
  <g id="_1995043742720">
   <path class="fil0" d="M463.86 8374.62l0 85.88c83.79,55.29 1217.51,1150.1 1344.34,1277.55 423.07,425.13 901.3,859.74 1332.47,1289.9l800.99 772.4c37.68,40.48 97.46,81.55 139.05,123.19l400.59 386.1c95.86,95.54 182.33,166.63 278.22,262.8 186.41,187.02 351.17,337.2 531.58,517.25 92.52,92.33 173.1,174.08 261.8,262.55 93.34,93.09 177.08,161.55 270.07,254.57 359.08,359.17 706.37,689.62 1063.98,1050.27 52.48,52.92 87.03,75.06 138.99,123.36 48.17,44.78 84.39,84.49 131.1,131.24l400.83 385.83c115.86,109.24 291.48,308.32 395.52,390.83 92.97,73.71 1038.9,1006.32 1096.62,1018.26 106.59,22.04 1020.52,-934.81 1197.18,-1114.03l392.19 -373.37c74.69,35.74 195.33,120.71 268.99,168.92 95.15,62.28 186.64,122.97 277.99,180.77 190.82,120.7 368.9,239.15 556.85,361.04 371.2,240.75 727.53,470.65 1100.38,718.68 359.87,239.44 715.43,491.21 1083.04,736.38 178.88,119.3 371.72,249.93 553.53,364.38 96,60.45 183.89,122.23 280.24,178.44 66.76,38.93 240.41,127.27 290.77,172.19l31.65 0c-90.9,-240.83 -721.65,-1061.33 -916.76,-1348.3l-958.2 -1319.66c-135.76,-177.54 -254.19,-350.43 -384.41,-534.18 -126.62,-178.69 -252.54,-343.12 -375.96,-525.12 -64.41,-94.98 -123.63,-175.81 -187.2,-272.01 -55.97,-84.69 -138.21,-189.26 -174.43,-281.94 577.41,-801.25 3912.69,-3793.64 4501.22,-4375.85 120.31,-120.13 232.06,-216.82 351.88,-336.44 107.49,-107.31 614,-646.01 697.18,-677.18l0 -31.72 -547.95 -520.87c-91.2,-86.51 -167.39,-166.51 -261.53,-262.75 -95.14,-97.29 -168.09,-164.13 -269.6,-254.89 -186.31,-166.57 -346.84,-357.25 -539.86,-525.47 -181.11,-157.85 -342.87,-369.22 -529.51,-519.23 -122.04,-98.09 -654.8,-660.98 -808.58,-782.18l-2401.68 -2334.6c-93.92,-93.53 -172.78,-174.46 -261.63,-263.06 -50.73,-50.6 -88.11,-71.73 -139.26,-123.01l-1464.48 -1436.41c-91.22,-91.68 -176.72,-160.93 -269.87,-254.51 -178.11,-178.93 -338.53,-338.58 -523.95,-525.2 -86.54,-87.11 -490.62,-452.1 -568.83,-476.87 -62.51,56.98 -136,119.15 -200.43,171.89l-952.02 933.17c-99.02,98.32 -261.46,270.83 -403.6,336.05 -60.81,-37.27 -135.29,-141.93 -181.07,-198.29l-351.37 -385.56c-153.98,-186.39 -383.31,-410.69 -523.6,-575.18 -58.23,-68.28 -309.31,-345.86 -334.25,-400.63l-48.19 0c-64.2,47.67 -120.98,75.7 -187.82,126.91 -577.86,442.65 -799.9,715.07 -1259.22,1216.13 -290.65,317.04 -654.85,910.85 -857.57,1289.27 -277.43,517.88 -554.09,1139.26 -769.41,1705.93 -50.29,132.33 -495.25,1284.49 -391.35,1403.18 57.08,65.2 207.55,104.69 345.65,259.13 -35.07,60.7 -87.4,93.99 -156.05,152.45 -34.77,29.61 -40.77,42.48 -70.73,76.82l-1785.63 1705.51c-55.01,51.5 -85.54,87.58 -146.49,148.54l-312.4 290.75zm1505.02 35.98c39.94,88.91 129.34,163.9 197.55,231.23 78.96,77.94 133.42,148.77 213.57,228.85 150.43,150.3 287.46,262.51 441.91,426.56l800.88 723.27c88.74,75.15 79.06,149.29 442.63,426.95 59.36,45.33 52.54,84.97 95.76,133.57l1775.39 1715.21c43.21,41.66 71.27,55.69 114.71,98.32l441.49 427.43c151.95,138.63 252.97,266.11 440.85,427.58l1219.96 1189.62c142.39,141.53 290.95,306 433.89,434.47 96.27,86.53 407.78,371.92 478.92,408.21 163.21,-89.97 595.93,-506.8 674.09,-673.99 -79.02,-87.09 -683.68,-472.81 -821.66,-557.09 -259.11,-158.26 -617.5,-389.77 -818.71,-569.46 28.04,-64.09 1008.12,-1213.18 1178.86,-1431.06 -205.02,-220.54 -1528.37,-784.17 -1941.85,-1007.55 -107.04,-57.82 -207.56,-112.2 -319.45,-171.95l-227.42 -133.51c-36.8,-25.94 -51.83,-40.41 -73.72,-64.16 117.02,-146.33 225.25,-251.08 361.91,-366.26 58.17,-49.03 127.45,-122.89 180.24,-180.06 69.07,-74.82 123.1,-122.46 188.72,-188.15 65.16,-65.24 121.17,-105.05 188.16,-172.6l360.72 -360.39c30.59,-33.28 142.82,-165.62 161.26,-204.63 -54.81,-48.39 -188.63,-122.74 -257.28,-164.81l-2407.21 -1509.22c-175.37,-112.94 -349.21,-226.8 -532.29,-336.43 -231.09,-138.37 -879.69,-560.39 -1103.11,-626.12 -153.96,111.22 -315.6,336.59 -470.61,459l-1418.16 1387.17zm6273.69 -6098.91c56.14,203.85 1028.54,1214.17 1242.33,1433.75l707.97 783.97c140.34,174.97 407.88,444.57 564.69,631.44 48.98,58.39 91.86,94.67 140.49,154.4 49.33,60.57 95.78,103.43 147.62,164.2l1132.32 1260.71c31.44,33.74 36.32,47.57 66.29,80.96 23.63,26.32 51.44,49.07 73.67,74.08l424 482.52 -693.72 770.22c-168.2,176.64 -1068.78,1230.44 -1109.18,1344.73l1569.28 1523.86c192.38,192.12 329.27,415.02 569.64,454.99l3081.03 -3065.21 -3093.81 -2996.81c-79.69,-79.3 -152.47,-136.34 -229.06,-213.49l-662.96 -647.96c-72.22,-77.57 -133.97,-139.41 -218.21,-207.78 -75.39,-61.2 -149.54,-144.59 -223.46,-219.54 -147.35,-149.45 -291.98,-278.93 -441.48,-427.1l-670.53 -640.68c-331.99,-344.13 -751.93,-722.29 -1104.06,-1075.96l-448.84 -431.93 -409.28 374.09c-80.27,82.83 -130.71,117.48 -204.27,188.75l-210.47 203.79z"/>
   <path class="fil1" d="M3169.02 5522.06l5440.55 3345.57c63.78,39.43 113.2,68.33 181.32,113.54 65.3,43.36 126.2,70.14 183.51,118.01 -29.58,136.88 -233.59,324.71 -309.82,401.5 -64.01,64.47 -119.5,101.83 -180.08,163.84l-464 421.11c-105.39,99.34 -357.6,362.49 -421.69,475.79 39.29,38.18 522.13,279.49 617.79,322.36 216.97,97.21 432.45,221.64 642.55,324.76 218.67,107.3 426.97,212.45 644.88,321.84 109.59,55.02 210.8,105.9 317.31,158.3 85.57,42.1 76.96,60.98 147.02,98.81 86.81,46.88 73.89,40.01 122.43,111.31 -130.11,222.29 -318.8,384.95 -449.79,545.98 -156.41,192.24 -723.9,774.56 -770.89,938.92l239.61 180.9c223.95,163.85 540.24,348.05 785.02,509.48l2087.83 1386.91c212.37,140.11 839.06,612.46 1060.63,668.91 -74.08,-189.16 -645.98,-956.81 -804.08,-1171.47 -97.75,-132.71 -186.37,-256.63 -283.99,-388.13 -271.72,-365.98 -585.1,-786.63 -835.53,-1164.3 -78.94,-119.04 -198.14,-274.84 -244.42,-421.22 73.4,-96.66 427.31,-381.79 548.2,-510.85 86.72,-92.55 65.39,-91.12 189.24,-171.14 159.47,-103.02 232.75,-228.84 385.58,-335.5 34.88,-24.35 79.6,-40.22 114.82,-65.56 14.37,-10.34 219.41,-233.27 238.77,-294.12 -73.64,-113.63 -668.59,-636.97 -806.46,-775.31l-400.82 -402.2c-50.3,-49.63 -87.87,-71.47 -139.24,-122.94 -94,-94.15 -168.72,-172.79 -269.62,-271.39 -156.27,-152.69 -428.18,-328.3 -514.55,-543.1 208.04,-274.93 446.09,-526.52 679.36,-788.13l687.59 -787.75c55.84,-62.33 439.91,-486.16 444.92,-539.07 -44.75,-167.09 -267.21,-308.27 -360.82,-426.53l-1687.78 -1869.3c-39.53,-40.98 -50.35,-65.12 -90.18,-106.19l-477.66 -522.2c-32.74,-38.68 -49.87,-72.36 -86.28,-110.58l-1319.06 -1450.74c-187.61,-184.79 -497.7,-560.81 -668.41,-725.11 -71.73,-69.04 -113.92,-141.25 -181.74,-211.4l-955.36 -1027.77c-53.24,-63.74 -127.36,-176.18 -187.04,-223.05 -208.21,73.29 -418.49,283.67 -543.06,408.08 -166.2,165.97 -290.06,331.18 -442.94,523.67 -193.28,243.39 -603.63,882.45 -754.37,1163.33 -224.3,417.93 -445.25,821.05 -642.42,1275.17 -137.78,317.33 -453.91,1081.67 -466.83,1446.96z"/>
   <path class="fil2" d="M9876.04 11724.02l-211.7 -617.08c-10.92,-12.84 -16.89,-32.15 -21.31,-45.87l-12.83 -649.48 -985.95 -35.29c37.21,-194.25 158.03,-133.26 416.61,-129.37 190.95,2.88 380.06,0.59 571.13,5.98 -11.07,-191.63 -7.21,-376.32 -9.84,-568.1 -7.01,-509.17 43.03,-355.05 153.2,-377.58l-0.66 949.4c209.17,-10.7 410.11,-10.5 619.14,-12.44 250.42,-2.32 324.61,-53.66 368.52,132.11 -181.48,67.28 -772.91,37.7 -989.45,19.83l43.2 724.5c37.83,110.98 359.51,464.95 475.77,577.65 127.51,-154.07 132.01,-372.95 282.16,-537.34 11.81,147.56 19.28,293.51 26.9,441.44 7.47,144.81 3.31,292.56 84.06,403.48 184.31,-120.67 237.87,-211.36 456.35,-311.68l9.98 670.32 363.17 3.28c263.79,-130.52 345.7,-354.16 621.19,-468.93 24.28,-48.73 0.31,-10.05 52.55,-73.59 3.34,-4.06 64.89,-70.59 67.32,-73.43 84.52,-98.35 46.12,-31.09 108.51,-146.99 -175.71,-194.5 -366.33,-342.86 -557.71,-532.29l-1068.97 -1043.08c-184.39,-169.03 -403.42,-320.06 -515.67,-537.72l461.5 -542.15c132,-142.34 333.59,-366.87 457.83,-524.72l693.94 -779.65c80.51,-99.11 135.15,-173.72 209.59,-266.56 -73.92,-165.09 -158.63,-225.96 -306.14,-365.79l-2285.3 -2529.75c-207.88,-247.92 -429.7,-485.86 -660.03,-716.64 -121.64,-121.87 -196.79,-242.38 -318.55,-369.66l-984.15 -1079.19c-233.68,-259.1 -424.25,-463.29 -645.77,-708.62 -271.92,-286.71 -593.21,-622.56 -819.5,-915.92 -1012.82,417.16 -2693.75,3573.29 -2864.46,4825.21l5813.9 3580.32c-51.24,194.66 -527.61,590.03 -694.22,741.37 -149.93,136.17 -633.68,577.41 -691.25,732.87l2286.94 1151.15zm-211.7 -617.08c63.35,-183 -52.64,-96.28 151.76,13.69l-43.2 -724.5c216.54,17.87 807.97,47.45 989.45,-19.83 -43.91,-185.77 -118.1,-134.43 -368.52,-132.11 -209.03,1.94 -409.97,1.74 -619.14,12.44l0.66 -949.4c-110.17,22.53 -160.21,-131.59 -153.2,377.58 2.63,191.78 -1.23,376.47 9.84,568.1 -191.07,-5.39 -380.18,-3.1 -571.13,-5.98 -258.58,-3.89 -379.4,-64.88 -416.61,129.37l985.95 35.29 12.83 649.48c4.42,13.72 10.39,33.03 21.31,45.87z"/>
   <path class="fil3" d="M9876.04 11724.02c121.11,130.99 92.58,11.02 212.93,175.67 -310.39,441.09 -1025.96,1122.12 -1229.27,1474.25 210.97,204.95 787.23,540.59 1056.42,719.37l2065 1373.43c229.26,157.58 852.35,602.17 1077.77,680.04 -174.97,-420.8 -2104.28,-2834.56 -2180.9,-3165.98 177,-181.81 522.67,-432.45 636.5,-613.02l-363.17 -3.28 -9.98 -670.32c-218.48,100.32 -272.04,191.01 -456.35,311.68 -80.75,-110.92 -76.59,-258.67 -84.06,-403.48 -7.62,-147.93 -15.09,-293.88 -26.9,-441.44 -150.15,164.39 -154.65,383.27 -282.16,537.34 -116.26,-112.7 -437.94,-466.67 -475.77,-577.65 -204.4,-109.97 -88.41,-196.69 -151.76,-13.69l211.7 617.08z"/>
  </g>
 </g>
</svg>
