<?xml version="1.0" encoding="UTF-8"?>
<!DOCTYPE svg PUBLIC "-//W3C//DTD SVG 1.1//EN" "http://www.w3.org/Graphics/SVG/1.1/DTD/svg11.dtd">
<!-- Creator: CorelDRAW 2017 -->
<svg xmlns="http://www.w3.org/2000/svg" xml:space="preserve" width="200mm" height="200mm" version="1.1" style="shape-rendering:geometricPrecision; text-rendering:geometricPrecision; image-rendering:optimizeQuality; fill-rule:evenodd; clip-rule:evenodd"
viewBox="0 0 20000 20000"
 xmlns:xlink="http://www.w3.org/1999/xlink">
 <defs>
  <style type="text/css">
   <![CDATA[
    .fil1 {fill:#F9FCFE}
    .fil0 {fill:#201E1E}
   ]]>
  </style>
 </defs>
 <g id="Capa_x0020_1">
  <metadata id="CorelCorpID_0Corel-Layer"/>
  <path class="fil0" d="M667.31 9247.99c-47.51,-275.05 160.76,-426.74 354.85,-452.92 511.62,-69 644.14,608.87 261.37,760.14l-74.64 29.41c-38.98,20.23 -7.26,18.38 -79.7,23.97 -215.45,16.58 -314.8,-51.22 -408.65,-207.48 -27.76,-46.22 -43.49,-96.67 -53.23,-153.12zm-212.73 -451.2c-3.91,69.3 -16.29,62.67 -50.98,120.31 -84.61,140.54 -71.71,124.77 -69.72,315.86l5.78 1398.79c-0.65,135.29 -6.76,144.79 68.36,220.67l244.38 -2.17c81.32,-123.63 29.07,-752.35 37.65,-958.79 191.04,0.87 232.08,134.12 602.34,16.29 188.43,-59.95 436.24,-194.22 506.39,-378.36 59.17,-155.31 85.9,-284.35 32.01,-469.8 -15.06,-51.86 -21.22,-92.91 -36.74,-149.92 -29.47,-108.13 -127.35,-242.39 -220.75,-317.09 -189.47,-151.53 -444.81,-173.54 -716.86,-110.03 -160.43,37.45 -155.56,122.55 -367.72,-84.49 -138.76,-135.42 -190.44,-210.58 -320.54,-110.52 -45.24,34.82 -61.74,56.69 -60.49,133.79 1.69,104.47 108.46,172.43 178.16,240.28l67.04 67.38c47.99,45.93 31.36,41.04 101.69,67.8zm576.14 201.42c-100.79,33.68 -212.85,132.4 -157.4,262.04 35.39,82.71 151.52,198.78 266.75,152.01 77.81,-31.57 225.68,-137.74 173.73,-258.5 -38.67,-89.91 -140.54,-203.21 -283.08,-155.55zm2515.01 349.61c-27.95,17.18 -91.13,63.51 -109.95,88.14 -33.38,43.74 -46.57,100.35 -21.93,168.42 47.13,130.16 163.57,161.7 284.8,129.86 281.8,-74.01 53.3,-513.18 -152.92,-386.42zm2442.95 8c-52.29,35.03 -73.91,30.64 -111.62,84.72 -101.34,145.36 33.84,374.56 264.81,292.86 89.13,-31.52 229.24,-214.7 5.43,-362.32 -42.56,-28.06 -105.32,-50.94 -158.62,-15.26zm2763.2 24.95c-155.72,0.19 -208.81,65.56 -195.21,228.03 22.75,271.76 456.02,236.17 433.42,-43.66 -10.37,-128.58 -104.29,-184.52 -238.21,-184.37zm3115.94 260.87c-90.34,56.25 -79.81,15.41 -160.9,110.04 -88.82,103.7 -76.68,165.12 1.35,270.05 113.19,152.15 212.79,160.43 335.05,66.54 37.54,-28.82 42.34,-20.45 77.14,-57.97 34.06,-36.73 84.67,-124.43 60.21,-180.15 -41.12,-93.71 -200.57,-278.41 -312.85,-208.51zm3363.41 -288.36c-73.27,54.27 -192.48,114.61 -119.72,272.52 155.85,338.18 662.25,-19.58 312.17,-267.18 -43.8,-31 -150.73,-36.25 -192.45,-5.34zm3370.27 371.43c294.75,0 252.36,-305.77 166.19,-371.66 -32.1,-24.54 -108.27,-63.58 -151.05,-64.9 -186.89,-5.83 -332.57,203.66 -183.32,367.7 55.15,60.62 70.99,68.86 168.18,68.86zm-33.62 -677.52c0.08,-0.03 5.98,-28.42 78.32,-6.52 201.58,61.03 404.89,147.67 419.84,403.44 5.94,101.48 -52.4,321.71 -103.42,376.31 -75.81,81.1 -143.36,152.72 -315.92,151.68 -65.46,-0.4 -191.44,-18.35 -251.69,-53.58 -31.15,-18.22 12.25,1.98 -41.32,-20.9 -63.95,-27.3 -121.35,-76.44 -166.53,-129.67 -41.19,-48.54 -61.31,-151.49 -62.43,-218.6 -1.64,-98.22 12.63,-131.39 32.73,-210.52 58.28,-229.38 357.76,-270.8 410.42,-291.64zm1432.12 -65.04l0 -725.56 -209.98 -21.08c-61.94,94.73 -174.73,757.28 -181.92,907.04 -9.36,195.31 -51.98,279.32 -60.19,481.66 -3.74,92.04 -37.59,422.54 -63.87,475.8 -35.02,-4.87 -64.87,-38.13 -95.06,-60.99 -153.24,-116 -49.36,-66.37 22.71,-342.16 42.44,-162.42 16.72,-172.52 -10.2,-312.94 -6.51,-33.92 -69.84,-255.58 -84.76,-281.02l-263.41 -291.74c-46.98,-35.69 -73.41,-32.21 -122.72,-56.75 -95.63,-47.56 -186.17,-43.91 -314.09,-43.19 -212.33,1.19 -332.68,21.05 -498.08,129.32 -71.64,46.9 -89.25,56.75 -214.95,-68.4 -120.84,-120.3 -225.38,-165.72 -289.83,-220.51 -72.04,-61.2 -99.54,-53.87 -217.4,-42.41 -99.02,222.36 -112.5,488.83 -152.25,703.56 -36.71,198.26 -45.39,395.06 -61.17,465.51l-100.79 936.12c-7.36,58.33 -19.34,83.01 14.51,139.05 16.9,27.96 56.23,75.71 76.38,95.25 86.91,7.7 184.92,19.73 219.94,-41.23 18.13,-31.55 42.57,-198.58 47.77,-239.22 11.65,-91.49 -0.1,-160.51 23.75,-247.39 20.51,-74.78 34.35,-159.65 37.75,-245.11l55.66 -503.8c16.12,-92.55 33.54,-78.54 44.61,-234.18 4.99,-70.22 -3.95,-199.46 36.69,-260.73 77.12,-0.71 140.31,51.81 169.91,95.75 4.69,71.5 -35.37,99.31 -41.17,180.69 -5.07,71.05 -3.06,153.62 -2.12,225.39 2.14,163.77 8.74,235.05 103.02,390.09l203.82 195.06c28.03,12.31 48.6,7.72 83.42,23.34 51.4,23.05 19.29,26.51 74.75,42.74 49.58,14.51 51,3.85 100.17,25.36 66.27,28.97 192.7,81.93 254.95,83.61l272.21 -56.45c142.28,-38.58 128.23,-130.38 349.51,74.13 20.26,18.73 10.23,12.22 30.19,29.06l416.37 280.49c30.71,-16.32 45.24,-29.38 71.33,-52.01 52.04,-45.16 27,11.2 46.88,-81.89l160.22 -1071.25c22.3,-150.07 23.12,-306.36 31.41,-468.84l36.03 -10.17zm-4294.87 626.81c0.09,75.28 3.74,115.49 -34.43,167.66 -56.57,77.37 -363.71,258.67 -552.78,114.06 -19.94,-15.26 -14.08,-10.57 -25.45,-20.35l-67.32 -68.72c-411.93,-450.13 278.19,-802.39 579.2,-534.38 120.75,107.5 100.49,137.17 100.78,341.73zm-561.87 887.2c-74.64,3.68 -58.78,5.15 -112.33,-22.31 -102.95,-52.77 -106.63,-22.93 -282.56,-140.11l-166.75 -133.35c-32.14,-27.09 -37.81,-22.06 -67.06,-52.82 -132.68,-139.6 -251,-501.33 -175.13,-769.86 29.37,-103.9 101.3,-279.33 159.19,-353.54l212.72 -252.64c54,-52.11 240.48,-141.12 328.66,-156.52 189.12,-33.06 266.76,-15.61 448.72,-6.27 47.69,2.45 84.97,6.07 121.96,19.93 114.74,42.98 293.12,133.7 388.3,214.27l92.04 87.5c117.37,108.51 109.43,106.82 174.39,247.9 76.28,165.66 79.12,391.92 35.6,532.86 -62.1,201.18 -3.96,189.75 -133.56,350.71l-152.35 208.59c-11.11,11.45 -15.3,15.35 -30.27,29.73 -49.89,47.96 -467.26,358.68 -492.4,165.64 -36.17,-277.75 78.92,-202.52 176.25,-240.43 260.18,-101.35 290.82,-372.32 340.69,-491.35 86.23,-205.87 45.78,-478.53 -108.38,-643.3 -13.99,-14.96 -69.42,-60.83 -89.19,-76.03 -272.9,-209.87 -810.11,-240.04 -1012.78,9.33 -86.43,106.35 -197.22,314.32 -210.62,451.08 -23.09,235.54 104.89,558.97 295.72,694.38 221.96,157.54 288.43,-48.96 259.14,326.61zm-1170.2 -887.2c9.04,59.32 11.52,94.93 13.83,166.49 6.82,211.08 308.36,665.65 487.99,801.51l218.08 142.33c102.45,50.99 182.87,65.75 244.86,87.57 159.08,56.02 264.28,44.34 460.68,40.17 56.64,-1.2 125.15,-2.18 180.92,-7.14 196.49,-17.49 630.48,-291.88 761.26,-424.1l204.43 -258.98c7.3,-13.39 17.12,-42.17 27.04,-63.24 52.39,-111.48 32.27,-89.58 65.57,-176.22 61.11,-158.97 59.34,-584.89 -19.2,-748.53 -100.39,-209.14 -219.62,-427.53 -401.48,-588.66 -189.09,-167.5 -68.21,-94.56 -181.6,-147.08 -54.46,-25.22 -110.88,-69.87 -223.16,-108.1 -258.47,-88 -59.71,-22.47 -268.56,-64.31 -101.31,-20.33 -151,-50.31 -285.31,-22.41 -81.51,16.93 -222.77,30.68 -290.37,54.16 -155.26,53.96 -126.15,65.29 -227.01,101.47l-112.34 55.82c-219.43,119.37 -230.55,160.8 -366.44,293.9 -119.61,117.16 -255.85,387.28 -276.55,548.41 -10.92,85.11 -27.49,219.62 -12.64,316.94zm-2592.16 345.93c-58.19,-218.08 104.89,-418.82 296.77,-516.39 26.72,-13.58 7,-7.09 37.93,-20.7 65.5,-28.82 296.76,-35.46 367.15,-12.87 138.55,44.45 201.56,101.37 279.13,233.21 51.38,87.32 49.43,77.38 67.61,201.13 28.28,192.42 -18.81,298.8 -109.74,390.19 -20.94,21.05 -31.99,38.31 -61.95,53.97 -13.55,7.08 -25.36,9.9 -42.85,17.97 -184.89,85.25 -400.77,155.17 -607.45,14.66 -3.57,-2.42 -13.09,-10.03 -16.48,-12.68 -109.75,-85.68 -149.02,-188.48 -187.95,-302.89 -4.3,-12.63 -21.97,-44.84 -22.17,-45.6zm-734.28 -1555.02c-106.75,3.93 -206.11,51.49 -271.71,94.65 -7.47,79.27 13.54,124.14 49.96,179.06l87.27 137.86c128.78,145.1 110.92,98.3 -10.06,308.32l-100.13 185.92c-96.74,189.86 -134.04,456.22 -102,692.43 11.56,85.1 37.52,93.65 53.58,166.82 14.93,68.07 0.93,124.8 33.87,197.3 33.3,73.28 15.98,112.07 51.77,175.41 44.01,77.84 74.37,243.8 152.58,298.32 35.67,24.84 146.57,31.27 195.36,8.86 36.14,-16.58 16.17,-18.25 57.09,-44.43 140.79,-90.13 57.51,-87.84 17.5,-198.41l-30.14 -62.3c-52.57,-107.17 -164.35,-497.87 -170.77,-613.96 -7.6,-137.31 -1.42,-255.04 62.65,-375.61 31.11,-58.54 35.81,-97.71 69.18,-155.85 101.67,-177.18 181.51,-354.35 320.46,-507.48 1.99,-2.21 5.04,-5.48 7.07,-7.61l128.99 -111.1c24.71,-21.03 38.96,-27.92 61.93,-43.03 2.78,-1.83 6.52,-4.3 9.26,-6.14 2.66,-1.8 6.23,-4.46 8.85,-6.24 2.55,-1.74 5.99,-4.55 8.48,-6.25l44.94 -25.87c425.61,-173.89 358.85,-50.98 359.5,221.52 0.23,113.31 22.83,130.26 -86.49,140.79 -168.21,16.18 -277.89,92.34 -309.45,122.1 -2.29,2.15 -5.7,5.06 -7.99,7.22 -48.56,45.7 -68.7,72.65 -106.68,119.45 -67.65,83.39 -130.81,188.85 -156.86,292.09 -43.75,173.39 -87.65,132.54 -63.02,398.78l49.49 219.72c8.3,19.14 8.32,26.38 15.14,45.57 20.07,56.46 15.52,35.02 41.91,77.13 41.92,66.88 78.54,134.82 141.11,189.55l32.22 28.25c207.24,171.57 568.69,255.48 827.89,190.85 87.62,-21.85 3.43,-7.1 75.04,-40.53 70.81,-33.06 244.32,-46.22 434.71,-244.13 83.47,-86.8 126.17,-166.94 168.97,-281.19 42.27,-112.89 39.94,-300.96 19,-435.56l-133.9 -310.8c-127.05,-186.1 -113.55,-151.5 -290.56,-263.8 -266.28,-168.96 -272.26,-57.64 -272.39,-421.9 0,-13.91 -0.08,-45.71 1.97,-58.23l10.72 -34.09c37.25,-103.15 434.28,55.31 495.51,98.08 356.83,249.35 614.62,949.56 499.37,1347.46 -23.56,81.3 -60,158.4 -91.02,227.49 -21.63,48.14 -24.52,56.73 -52.37,97.15 -11.84,17.18 -17.73,23.97 -31,44.01 -76.63,115.74 -137.83,156.01 -29.51,272.62 42.84,46.12 29.59,54.99 112.99,60.98 127.68,9.17 139.46,-50.09 210.88,-128.08 2.15,-2.33 5.21,-5.6 7.34,-8 8.37,-9.4 14.97,-17.67 21.35,-25.45 225.31,-275.59 273.46,-528.17 272.53,-885.28 -0.29,-88.9 -3.29,-185.99 -22.47,-265.39l-68.42 -216.15c-204.55,-409.58 -251.21,-342.07 -121.37,-497.13 37.55,-44.85 56.58,-65.39 92,-103.81 94.34,-102.38 73.28,-212.42 -33.86,-280.94 -2.78,-1.77 -6.79,-3.87 -9.61,-5.62 -2.85,-1.75 -6.76,-3.96 -9.62,-5.7 -2.81,-1.7 -6.57,-4.15 -9.38,-5.81 -37.75,-22.26 -15.19,-23.4 -73.85,-25.41 -81.59,-2.77 -123.48,57.24 -174.57,103.02 -15.02,13.47 -6.59,5.86 -22.7,21.58l-132.74 127.34 -170.74 -105.36c-2.43,-1.97 -5.66,-5.06 -8.01,-7.05 -2.29,-1.93 -5.32,-5.21 -7.58,-7.09l-131.58 -76.24c-35.05,-18.27 -30.35,-10.04 -68.86,-23.07l-114.87 -51.35c-15.73,-7.42 -45.82,-26.67 -55.69,-30.96 -63.53,-27.67 -414.98,-50.55 -495.31,-50.67 -192.15,-0.32 -415.74,26.87 -570.92,121.57 -85.9,52.4 -208.92,92.76 -303.92,147.38l-98.98 68.17c-84.51,55.7 -131.63,2.35 -179.52,-53.36l-20.78 -25.33c-13.93,-16.18 -11.73,-11.05 -27.45,-31.02 -24.08,-30.64 -25.04,-50.22 -61.58,-66.04zm-1986.51 800.45c108.59,-41.07 241.18,14.94 320.16,59.86 159.02,90.47 210.66,202.45 172.81,403.62 -16.03,85.18 -20.2,83.4 -62.51,132.73 -24.18,28.18 -16.9,28.83 -48.26,57.38l-187.66 96.51c-178.34,54.73 -368.58,-50.15 -461.8,-192.45 -45.35,-69.23 -46.96,-167.47 -18.75,-258 55.4,-177.7 102.77,-230.36 286.01,-299.65zm311.21 -328.32c-6.06,-91.11 19.17,-98.74 65.05,-150.32 175.51,-197.33 574.92,-118.3 652.12,-176.21 146.68,-110.02 -12.65,-315.44 -169.69,-315.69l-357.38 49.01c-128.38,23.4 -387.94,149.54 -488.74,287.95 -65.64,90.15 -85.2,158.69 -91.57,301.22 -64.6,33.41 -109.72,49.51 -170.22,84.22 -85.94,49.31 -83.21,27.52 -158.12,96.48 -296.76,273.2 -128.34,201.35 -210.99,300.63 -41.87,50.29 -127.79,31.83 -237.27,31.74 -215.78,-0.19 -185.46,168.65 -134.39,241.89 79.88,114.52 181.2,61.2 339.37,81.13 25.93,101.35 23.23,149.94 87.54,243.65 32.41,47.23 118.76,139.16 162.75,168.71 201.97,135.65 284.51,93.57 317.04,174.16 21.28,52.74 27.24,71.78 47.86,122.44 30.22,74.23 58.04,103.74 100.64,156.23 2.01,2.47 4.74,6.06 6.73,8.52l26.42 31.9c15.52,14.27 86.81,56.1 101.24,65.18l159.34 95.14c19.35,9.72 32.78,13.95 55.24,18.98 83.59,18.64 66.36,17.25 126.44,38.59 84.83,30.11 208.67,20.14 303.03,20.22 96.15,0.08 133.81,7.66 181.18,-49.97 28.36,-34.5 55.17,-82.66 46.71,-149.52 -18.59,-146.83 -305.87,-136.39 -469.22,-145.25 -50.66,-2.75 -352.93,-71.58 -346.38,-203.81 135.83,-40.07 -5.85,30.95 222.2,-74.02 19.49,-8.97 12.86,-5.65 31.05,-15.62 108.4,-59.38 148.77,-117.44 191.44,-222.35l43.84 -73.37c2.36,-3.83 8.69,-15.28 10.88,-19.18 30.27,-53.97 62.41,-133.44 88.78,-193.38 131.26,-6.29 263.87,21.46 342.66,-50.25 41.84,-38.08 67.08,-67.42 66.19,-131.96 -2.81,-204.56 -245.69,-130.28 -409.33,-142.07l-156.67 -243.77c-115.57,-184.54 -333.53,-238.07 -375.77,-261.25zm-2583.97 797.12c-72.88,209.82 -334.35,284.99 -547.69,158.18 -130.89,-77.8 -152.77,-219.72 -123.99,-381.09 43.03,-241.23 503.95,-315.17 660.21,-80.31 40.5,60.9 35.52,233.99 11.47,303.22zm-486.02 -872.33l-4.23 107.47c-91.96,74.84 -229.03,-13.3 -368.35,219.26 -63.02,105.21 -126.76,316.17 -126.53,440.32 0.19,92.27 30.32,180.93 56.25,269.05 31.55,107.23 164.21,276.88 305.25,330.3 164.54,62.33 138.09,-99.71 137.65,408.33 -0.24,127.21 -14.41,169.72 63.19,244.06 33,31.63 68.95,43.94 124.63,28.94 69.41,-18.71 19.85,-23.08 99,-68.31l4.38 -569.15c82.04,-57.4 127.3,10.83 273.26,-132.26 80.83,-79.24 91.84,-177.04 150.72,-249.41 89.28,-3.99 111.19,67.68 242.77,174.09 16.47,13.31 18.3,13.58 33.4,26.05 99.81,82.49 188.53,192.14 286.07,55.47 85.71,-120.05 -2.54,-198.97 -60.38,-251.68 -64.35,-58.62 -275.51,-236.86 -292.82,-310.6 65.68,-68.64 144.23,-140.77 213.31,-209.24 29.58,-29.32 281.81,-243.45 125.99,-341.16 -48.68,-30.52 -136.71,-28.22 -189.37,5.79l-50.24 40.32c-72.64,58.01 -72.05,39.16 -135.92,106.85 -71.56,75.82 -120.72,141.9 -187.32,67.09l-28.19 -45.35c-26.6,-43.07 -60.7,-72.02 -92.02,-105.27 -115.93,-123.07 -144.56,-70.65 -265.37,-141.31 -3.65,-105.3 5.87,-513.38 -22.25,-565.65 -45.79,-85.09 -166.05,-157.55 -268.62,-14.05 -45.23,63.25 -24.29,391.39 -24.26,480.05zm-2368.08 387.03c130.71,-28.63 209.77,10.6 314.08,50.42 183.11,69.9 167.84,253.57 155.51,436.14 -12.45,184.46 -353.89,298.8 -499.15,271.8 -143.29,-26.66 -231.18,-188.92 -268.29,-324.82 -28.47,-104.31 -41.11,-231.5 49.21,-303.38 76.15,-60.62 152.35,-109.06 248.64,-130.16zm-96.98 1319.37c-111.01,5.79 -83.88,-7.63 -186.21,-44.45l-221.13 -133.64c-362.56,-227.56 -509.8,-638.8 -362.56,-1056.75 15.37,-43.58 7.55,-52.55 29.94,-92.53 211.59,-378.07 457.27,-613.94 928.41,-594.99 227.67,9.16 517.92,129.98 681.98,270.04 86.89,74.18 156.25,153.32 213.67,253.01l40.66 79.41c51.97,159.51 89.31,358.07 48.95,525.87 -5.57,23.12 -22.55,55.57 -29.62,86.72 -8.4,37.01 -6.73,62.96 -12.28,98.89 -13.13,84.89 -313.5,467.85 -507.17,545.84 -101.53,40.9 -82.39,93.43 -267.09,67.3 -47.54,-430.1 90.21,-117.55 357.33,-416.82 217.09,-243.2 290.94,-793.23 90.59,-978.09 -122.85,-113.37 -161.74,-158.47 -318.69,-208.98 -52.06,-16.75 -160.48,-51.78 -197.09,-58.88 -179.41,-34.87 -413.39,5.84 -553.97,102.26 -147.18,100.93 -295.04,388.45 -295.29,601.4 -0.19,150.18 102.89,405.63 162.45,479.4 240.72,298.18 274.92,171.5 404.6,242.55l-7.48 232.44zm-1155.82 -879.19c7.39,50.86 8.1,92.01 13.5,151.13 13.12,143.66 107.16,274.97 144.32,353.56 145.95,308.63 285.6,379.74 487.63,553.98 3.38,2.92 13.22,11.29 16.66,14.04 86.83,69.51 330.04,132.64 435.13,148.68 99.1,15.13 205.38,10.97 306.52,8.27 94.39,-2.51 237.97,8.89 300.2,-28.4 1.14,-0.68 20.35,-14.5 26.19,-17.62l394.25 -220.97c141.39,-97.06 148.29,-127.59 227.97,-192.55 100.18,-81.7 41.37,-29.08 103.3,-111.67 169.87,-226.57 224.61,-452.68 220.95,-764.33 -1.22,-102.81 -61.93,-378.21 -118.43,-477.37 -11.79,-20.73 -18.06,-25.65 -27.41,-43.93 -18.93,-36.98 -6.16,-24.78 -31.42,-62.36 -13.6,-20.22 -22.05,-25.77 -32.52,-40.92 -36.98,-53.63 36.46,60.2 -16.31,-27.37l-11.26 -19.26c-78.54,-126.23 -87.35,-126.94 -193.06,-230.95 -255.85,-251.71 -584.47,-392.57 -962.79,-353.08 -212.65,22.18 -337.61,49.26 -526.3,139.99 -83.72,40.25 -144.56,77.63 -208.92,122.85 -65.5,46.01 -123.48,73.28 -192.15,142.36 -12.82,12.9 -34.25,37.47 -42.21,46.65 -2.98,3.46 -18.92,22.44 -20.81,24.79l-52.68 68.89c-17.65,23.39 -16.92,21.74 -32.57,41.58 -37.19,47.18 -30.82,49.26 -62.06,105.49 -1.62,2.92 -3.96,6.54 -5.59,9.46 -63.55,113.67 -95.12,221.65 -128.99,353.84 -20.82,81.34 -24.93,210.22 -11.14,305.22z"/>
  <path class="fil1" d="M15143.26 10496.16c29.29,-375.57 -37.18,-169.07 -259.14,-326.61 -190.83,-135.41 -318.81,-458.84 -295.72,-694.38 13.4,-136.76 124.19,-344.73 210.62,-451.08 202.67,-249.37 739.88,-219.2 1012.78,-9.33 19.77,15.2 75.2,61.07 89.19,76.03 154.16,164.77 194.61,437.43 108.38,643.3 -49.87,119.03 -80.51,390 -340.69,491.35 -97.33,37.91 -212.42,-37.32 -176.25,240.43 25.14,193.04 442.51,-117.68 492.4,-165.64 14.97,-14.38 19.16,-18.28 30.27,-29.73l152.35 -208.59c129.6,-160.96 71.46,-149.53 133.56,-350.71 43.52,-140.94 40.68,-367.2 -35.6,-532.86 -64.96,-141.08 -57.02,-139.39 -174.39,-247.9l-92.04 -87.5c-95.18,-80.57 -273.56,-171.29 -388.3,-214.27 -36.99,-13.86 -74.27,-17.48 -121.96,-19.93 -181.96,-9.34 -259.6,-26.79 -448.72,6.27 -88.18,15.4 -274.66,104.41 -328.66,156.52l-212.72 252.64c-57.89,74.21 -129.82,249.64 -159.19,353.54 -75.87,268.53 42.45,630.26 175.13,769.86 29.25,30.76 34.92,25.73 67.06,52.82l166.75 133.35c175.93,117.18 179.61,87.34 282.56,140.11 53.55,27.46 37.69,25.99 112.33,22.31z"/>
  <path class="fil1" d="M3436.27 10503.19l7.48 -232.44c-129.68,-71.05 -163.88,55.63 -404.6,-242.55 -59.56,-73.77 -162.64,-329.22 -162.45,-479.4 0.25,-212.95 148.11,-500.47 295.29,-601.4 140.58,-96.42 374.56,-137.13 553.97,-102.26 36.61,7.1 145.03,42.13 197.09,58.88 156.95,50.51 195.84,95.61 318.69,208.98 200.35,184.86 126.5,734.89 -90.59,978.09 -267.12,299.27 -404.87,-13.28 -357.33,416.82 184.7,26.13 165.56,-26.4 267.09,-67.3 193.67,-77.99 494.04,-460.95 507.17,-545.84 5.55,-35.93 3.88,-61.88 12.28,-98.89 7.07,-31.15 24.05,-63.6 29.62,-86.72 40.36,-167.8 3.02,-366.36 -48.95,-525.87l-40.66 -79.41c-57.42,-99.69 -126.78,-178.83 -213.67,-253.01 -164.06,-140.06 -454.31,-260.88 -681.98,-270.04 -471.14,-18.95 -716.82,216.92 -928.41,594.99 -22.39,39.98 -14.57,48.95 -29.94,92.53 -147.24,417.95 0,829.19 362.56,1056.75l221.13 133.64c102.33,36.82 75.2,50.24 186.21,44.45z"/>
  <path class="fil1" d="M11867.82 9641.64c112.28,-69.9 271.73,114.8 312.85,208.51 24.46,55.72 -26.15,143.42 -60.21,180.15 -34.8,37.52 -39.6,29.15 -77.14,57.97 -122.26,93.89 -221.86,85.61 -335.05,-66.54 -78.03,-104.93 -90.17,-166.35 -1.35,-270.05 81.09,-94.63 70.56,-53.79 160.9,-110.04zm-486.92 313.25c0.2,0.76 17.87,32.97 22.17,45.6 38.93,114.41 78.2,217.21 187.95,302.89 3.39,2.65 12.91,10.26 16.48,12.68 206.68,140.51 422.56,70.59 607.45,-14.66 17.49,-8.07 29.3,-10.89 42.85,-17.97 29.96,-15.66 41.01,-32.92 61.95,-53.97 90.93,-91.39 138.02,-197.77 109.74,-390.19 -18.18,-123.75 -16.23,-113.81 -67.61,-201.13 -77.57,-131.84 -140.58,-188.76 -279.13,-233.21 -70.39,-22.59 -301.65,-15.95 -367.15,12.87 -30.93,13.61 -11.21,7.12 -37.93,20.7 -191.88,97.57 -354.96,298.31 -296.77,516.39z"/>
  <path class="fil1" d="M18322.11 9563.84c-8.34,-34.26 -7.19,-80.59 3.09,-113.38 0.27,-0.87 43.25,-82.52 46.85,-88.05 43.42,-66.6 261.99,-165.36 403.49,-61.65l16.67 13.33c37.06,29.4 59.01,5.99 60.57,174.23 0.87,94.27 7.42,147.62 -49.41,202.03 -101.23,96.91 -260.56,125.52 -372.19,28.65l-27.8 -31.08c-21.74,-24.72 -14.09,-12.16 -33.33,-41.41 -7.03,-10.68 -47.82,-82.13 -47.94,-82.67zm245.77 -516.65c-52.66,20.84 -352.14,62.26 -410.42,291.64 -20.1,79.13 -34.37,112.3 -32.73,210.52 1.12,67.11 21.24,170.06 62.43,218.6 45.18,53.23 102.58,102.37 166.53,129.67 53.57,22.88 10.17,2.68 41.32,20.9 60.25,35.23 186.23,53.18 251.69,53.58 172.56,1.04 240.11,-70.58 315.92,-151.68 51.02,-54.6 109.36,-274.83 103.42,-376.31 -14.95,-255.77 -218.26,-342.41 -419.84,-403.44 -72.34,-21.9 -78.24,6.49 -78.32,6.52z"/>
  <path class="fil1" d="M1030.72 8998.21c142.54,-47.66 244.41,65.64 283.08,155.55 51.95,120.76 -95.92,226.93 -173.73,258.5 -115.23,46.77 -231.36,-69.3 -266.75,-152.01 -55.45,-129.64 56.61,-228.36 157.4,-262.04zm-363.41 249.78c9.74,56.45 25.47,106.9 53.23,153.12 93.85,156.26 193.2,224.06 408.65,207.48 72.44,-5.59 40.72,-3.74 79.7,-23.97l74.64 -29.41c382.77,-151.27 250.25,-829.14 -261.37,-760.14 -194.09,26.18 -402.36,177.87 -354.85,452.92z"/>
  <path class="fil1" d="M3545.73 9347.82c206.22,-126.76 434.72,312.41 152.92,386.42 -121.23,31.84 -237.67,0.3 -284.8,-129.86 -24.64,-68.07 -11.45,-124.68 21.93,-168.42 18.82,-24.63 82,-70.96 109.95,-88.14zm-12.48 -164c-96.29,21.1 -172.49,69.54 -248.64,130.16 -90.32,71.88 -77.68,199.07 -49.21,303.38 37.11,135.9 125,298.16 268.29,324.82 145.26,27 486.7,-87.34 499.15,-271.8 12.33,-182.57 27.6,-366.24 -155.51,-436.14 -104.31,-39.82 -183.37,-79.05 -314.08,-50.42z"/>
  <path class="fil1" d="M15231.23 9353.28c41.72,-30.91 148.65,-25.66 192.45,5.34 350.08,247.6 -156.32,605.36 -312.17,267.18 -72.76,-157.91 46.45,-218.25 119.72,-272.52zm473.9 255.68c-0.29,-204.56 19.97,-234.23 -100.78,-341.73 -301.01,-268.01 -991.13,84.25 -579.2,534.38l67.32 68.72c11.37,9.78 5.51,5.09 25.45,20.35 189.07,144.61 496.21,-36.69 552.78,-114.06 38.17,-52.17 34.52,-92.38 34.43,-167.66z"/>
  <path class="fil1" d="M8751.88 9380.77c133.92,-0.15 227.84,55.79 238.21,184.37 22.6,279.83 -410.67,315.42 -433.42,43.66 -13.6,-162.47 39.49,-227.84 195.21,-228.03zm-91.77 -180.45c-183.24,69.29 -230.61,121.95 -286.01,299.65 -28.21,90.53 -26.6,188.77 18.75,258 93.22,142.3 283.46,247.18 461.8,192.45l187.66 -96.51c31.36,-28.55 24.08,-29.2 48.26,-57.38 42.31,-49.33 46.48,-47.55 62.51,-132.73 37.85,-201.17 -13.79,-313.15 -172.81,-403.62 -78.98,-44.92 -211.57,-100.93 -320.16,-59.86z"/>
  <path class="fil1" d="M5988.68 9355.82c53.3,-35.68 116.06,-12.8 158.62,15.26 223.81,147.62 83.7,330.8 -5.43,362.32 -230.97,81.7 -366.15,-147.5 -264.81,-292.86 37.71,-54.08 59.33,-49.69 111.62,-84.72zm398.67 313.3c24.05,-69.23 29.03,-242.32 -11.47,-303.22 -156.26,-234.86 -617.18,-160.92 -660.21,80.31 -28.78,161.37 -6.9,303.29 123.99,381.09 213.34,126.81 474.81,51.64 547.69,-158.18z"/>
 </g>
</svg>
