<?xml version="1.0" encoding="UTF-8"?>
<!DOCTYPE svg PUBLIC "-//W3C//DTD SVG 1.1//EN" "http://www.w3.org/Graphics/SVG/1.1/DTD/svg11.dtd">
<!-- Creator: CorelDRAW 2017 -->
<svg xmlns="http://www.w3.org/2000/svg" xml:space="preserve" width="181mm" height="181mm" version="1.1" style="shape-rendering:geometricPrecision; text-rendering:geometricPrecision; image-rendering:optimizeQuality; fill-rule:evenodd; clip-rule:evenodd"
viewBox="0 0 18100 18100"
 xmlns:xlink="http://www.w3.org/1999/xlink">
 <defs>
  <style type="text/css">
   <![CDATA[
    .fil1 {fill:none}
    .fil3 {fill:#12151A}
    .fil4 {fill:#3A3937}
    .fil2 {fill:#DDDDDE}
    .fil0 {fill:#F1F1F1}
   ]]>
  </style>
 </defs>
 <g id="Capa_x0020_1">
  <metadata id="CorelCorpID_0Corel-Layer"/>
  <path class="fil0" d="M11610.41 17641.5c3.63,-18.92 12.11,-20.73 26.69,-29.03l-45.86 198.06 -139.1 -12.54 -30.61 -186.2c66.92,86.72 49.42,119.11 104.65,175.65l84.23 -145.94zm439.03 29.86c7.55,-3.17 18.42,-5.77 23.59,-6.7l149.86 -37.59 -30.36 185.78 -126.77 13.18 -16.32 -154.67zm-3164.08 -46.07c94.88,-66.31 143.59,-49.13 238.97,17.03l-20.95 136.96c-142.41,92.11 -284.72,42.01 -218.02,-153.99zm-1946.32 164.61l-121.6 35.17 -20.53 -183.71c169.5,51.38 195.54,63.67 142.13,148.54zm6275.86 -28.04c-33.89,-247.48 290.02,-279.94 224.54,46.64 -146.55,26.76 -132.8,36.91 -224.54,-46.64zm-3734.02 -182.46l209.93 52.88 -9.73 134.11c-88.07,58.61 -90.07,61.78 -217.91,49.06l17.71 -236.05zm-187.02 12.44c80.63,88.96 84.94,108.42 112.7,226.53 -93.6,-47.1 -34.74,-67.73 -224.29,-29.71l111.59 -196.82zm-1873.78 -4.1c40.05,59.25 60.71,73.07 93.1,230.77 -55.65,-63.28 -22.87,-28.11 -146.51,-62.49l-53.59 -24.3c34.92,-59.18 47.61,-105.75 107,-143.98zm-1293.72 2.03c100.55,107.28 88.22,102.01 104.89,223.65 -8.73,-5.24 -18.45,-13.08 -25.86,-16.14 -57.76,-24.02 -1.64,-52.27 -188.06,-2.35 23.66,-96.77 40.05,-128.56 109.03,-205.16zm7588.32 64.88c22.62,-49.67 20.13,-31.39 43.82,-55.8 34.6,62.96 53.09,27.12 16.36,218.99l-52.59 -129.8 -67.77 131.22 -69.73 -137.85 -25.3 123.6c-7.27,-31.39 -20.59,-66.74 -19.13,-104.97 6.98,-181.28 -3.31,-40.4 37.16,-99.51 20.92,33.67 33.1,63.31 51.06,88.79 34.74,49.35 27.22,33.56 58.68,63.31 7.59,-26.93 16.11,-73.18 27.44,-97.98zm-1181.99 -62.14l160.19 9.52 -13 221.08 -55.94 -102.08c-42.54,66.98 -54.34,51.41 -72.15,44.22l-19.1 -172.74zm-3862.32 64.39c153.71,65.7 -96.16,12.86 46.32,12.18 38.16,-0.18 17.32,46.25 48.1,-28.68 5.49,-13.29 15.96,-15.89 24.66,-23.02 -44.97,137.46 -43.26,71.73 -17.53,198.75l-88.26 -98.06 -48.71 95.42 35.42 -156.59zm3147.69 83.9c94.21,-86.83 36.73,-19.45 86.22,-145.83 64.1,74.08 58.79,33.53 45.25,198.42l-56.01 -108.45 -55.54 135.25c-25.19,-46.21 -50.24,-90.68 -84.73,-156.1l-33.92 140.56c-17.14,-115.72 -21.16,-120.03 18.03,-210.57 91.57,87.79 37.55,38.44 80.7,146.72zm-3677.08 -168.63l406.82 24.08 -101.01 61.57 73.33 43.72c-166.46,73.08 -33.92,-7.45 -124.1,118.72l-31.85 -181.5c-0.54,-7.95 -2.07,-13.08 -2.43,-28.11 -0.32,-14.93 -1.46,-18.6 -3.35,-28.68l-152.49 48.6 84.3 70.97c-173.16,71.97 -24.19,32.21 -140.95,104.11l-8.27 -233.48zm-119.89 99.19c-56.98,-71.19 -101.23,-14.82 -136.75,-112.7l172.66 64.49c59.33,242.07 -192.76,301.72 -254.61,25.05 188.84,138.32 -10.08,132.76 183.99,136.14l34.71 -112.98zm-956.45 -60.32c8.62,-5.2 89.86,-54.37 131.72,-14.57l-90.43 28.75c59.79,89.82 -4.74,14.15 91.93,76.32 -142.42,30.14 -49.74,0.89 -91.25,60.32l-54.91 67.45 12.94 -218.27zm-772.85 -5.74c86.61,-19.98 348.78,-25.9 432.3,-5.55 -130.66,65.48 -6.74,59.21 -101.3,220.72 -75.11,-215.67 65.17,-178.47 -134.43,-231.81 -2.5,9.23 -5.92,20.67 -7.88,27.55l-15.46 51.41c-2.39,9.05 -9.65,34.24 -11.12,42.68l-59.53 23.31c-4.42,2.63 -10.8,6.34 -13.04,8.23l-91.04 79.92 1.5 -216.46zm-756.85 37.09c3.31,4.28 14.36,29.01 18.24,38.27 74.57,-10.22 54.66,-33.81 150.79,-7.73l-32.82 158.8c-111.09,-206.51 -33.14,-85.65 -87.79,-118.25 -107.57,63.81 95.09,-144.66 -81.7,103.18 -29.97,-84.8 -14.07,-37.16 -25.65,-117.19l-13.33 -115.79c-176.05,44.6 -71.51,32.46 -133.26,239.57 -83.48,-184.99 31.96,-298.76 -263.59,-197.49 1.5,79.66 -49.49,11.22 59.97,75.78 -51.27,20.2 -41.55,15.96 -80.77,69.48l113.12 46.64 -167.85 21.63c5.09,-93.57 6.88,-173.77 10.26,-266.66 403.22,78.6 446.44,-44.22 534.38,69.76zm-5164.38 -196.39c-29.93,-34.35 -12.97,-10.47 -53.02,-32.74 2.32,114.62 -12.83,36.88 16.96,107.14 252.87,94.92 3548.49,30.14 4132.82,30.14l-65.84 228.74c-12.83,68.56 41.76,13.26 -24.66,103.26l9502.5 0c19.92,-24.83 6.67,-39.3 46.43,-60.32 -54.76,0.03 -48.35,1.53 -93,-30.18 6.17,-5.95 13.01,-14.68 16.71,-19.56 65.03,-85.76 79.46,-149.82 120.22,-161.3l3814.61 19.35 -13.61 -464.47c-3.53,5.73 -5.24,15.14 -6.06,19.34 -0.89,4.39 -4.24,14.93 -5.16,20.56 -42.58,257.18 43.79,161.51 -79.14,224.22 71.37,-53.69 29.9,-367.38 29.86,-482.82 -0.21,-5489.25 -26.47,-11019.62 3.56,-16502.03 1.14,-207.55 -13.71,-196.29 -64.88,-227.86 33.71,704.91 5.38,1477.29 5.42,2189.57l-1.11 14027.5c0,1223.39 112.06,1058.92 -546.17,1058.6l-15716.82 -0.07c-175.58,0.36 -920.5,39.23 -1019.62,-47.07z"/>
  <rect class="fil1" width="18100" height="18100"/>
  <path class="fil2" d="M13666.84 4473.74c-284,127.55 -315.33,342.21 -810.14,288.92 -345.86,-37.23 -454.03,-233.59 -637.16,-408.45 176.71,742.32 1212.58,782.33 1447.3,119.53z"/>
  <path class="fil2" d="M9587.8 3052c-154.71,64.16 -393.01,380.25 -820.4,205.79 -420.54,-171.69 -359.03,-480.96 -400.04,-650.36 -81.37,120.45 -23.51,328.93 41.77,455.84 55.25,107.29 191.07,241.35 300.57,291.9 310.59,143.4 747.9,60.95 878.1,-303.17z"/>
  <path class="fil2" d="M8395.73 9096.28c-184.41,141.16 -313.92,274.53 -644.62,250.33 -358.27,-26.2 -345.67,-203.82 -582.56,-284.91 172.41,460.78 725.56,526.5 997.39,326.84 32.26,-23.67 107.62,-96.25 122.3,-111.9 114.75,-122.46 52,-29.49 107.49,-180.36z"/>
  <path class="fil2" d="M5800.06 14754.94c153.71,606.23 1096.18,672.71 1278.98,-39.84 -73.63,60.14 -43.66,29.61 -102.8,107.01 -32.74,42.89 -5.94,19.66 -45.14,72.42 -48.23,64.96 -50.99,67.77 -122.13,112.47 -531.24,333.46 -882.08,-147.9 -1008.91,-252.06z"/>
  <path class="fil2" d="M4058.7 3709.94c136.3,195.25 328.25,365.81 654.78,342.7 281.94,-19.94 522.56,-211.85 571.31,-455.6 -225.85,157.12 -257.47,322.95 -607.55,341.85 -333.34,18.01 -414.51,-156.8 -493.31,-209.81l-98.63 -26.2c-3.57,-9.63 -19.22,1.61 -26.6,7.06z"/>
  <path class="fil2" d="M12199.88 8451.3c-215.3,77.44 -289.73,224.89 -618.54,207.8 -295.75,-15.41 -352.49,-128.44 -549.77,-231.63 171.72,488.34 982.7,475.18 1168.31,23.83z"/>
  <path class="fil2" d="M11514.33 8126.7c140.31,24.15 39.76,41.29 149.98,-26.84l-5.53 -111.35c-133.05,-13.84 -188.9,-37.31 -144.45,138.19z"/>
  <path class="fil2" d="M10026.35 14903.72c38.16,-14.24 91.36,24.88 87.75,-73.15 -5.09,-137.26 2.61,-45.17 -87.75,-88.27 -32.22,42.89 -143.92,27.81 0,161.42z"/>
  <path class="fil2" d="M13497.04 14904.44c134.09,-141.55 84.62,-108.97 -39.89,-159.81 -27.6,40.28 -70.61,-50.72 -40.92,87.95 21.9,102.4 5.69,44.02 80.81,71.86z"/>
  <path class="fil3" d="M13899.11 3143.2c-173.85,-172.77 -342.73,-257.35 -641.73,-337l-6.54 -969.1c307.79,-22.15 1565.14,152.75 1234.44,-463.15 -81.97,-152.71 -238.54,-151.14 -427.8,-151.3 -757.81,-0.48 -1642.25,-39.2 -2383.9,9.07 69.22,88.47 -25.72,34.62 145.61,60.26 358.79,53.65 2266.86,-56.29 2576.61,49.96 70.18,177.5 96.46,364.44 -149.18,420.01l-470.32 11.47c-581.68,2.29 -422.38,-35.47 -559.21,-55.77 -28.72,294.55 46.39,930.43 -51.55,1122.06 169.52,37.51 272.03,54.52 401.47,124.66 134.78,73.02 181.2,161.9 332.1,178.83z"/>
  <path class="fil3" d="M13666.84 4473.74c-234.72,662.8 -1270.59,622.79 -1447.3,-119.53 -128.11,-340.33 78.61,-587.61 110.3,-703.77l-23.59 -7.42c-555.43,531.67 107.93,1611.76 958.83,1313.08 302.49,-106.21 553.43,-408.86 551.06,-801.43 -2.05,-335.95 -147.86,-509.16 -350.8,-689.92 -87.27,-77.72 -102.84,-117.76 -167.92,-45.02 192.63,116.36 296.55,180.76 395.34,418.29 70.05,168.4 97.42,526.98 -25.92,635.72z"/>
  <path class="fil3" d="M13020.57 4035.19c-22.35,145 -4.37,160.73 -181.12,95.49l0.76 -114.19c156.04,-61.43 70.58,-63.24 180.36,18.7zm205.27 239.09c172.93,-371.26 -364.08,-565.7 -509.77,-256.95 -177.59,376.4 356.74,585.52 509.77,256.95z"/>
  <path class="fil3" d="M7835.49 8816.22c-360.55,2.09 -2.69,-361.63 0,0zm192.39 -124.9l-113.75 -105.17c-355.7,-46.82 -473.34,225.38 -296.83,405.25 177.42,180.84 455.68,68.53 410.58,-300.08z"/>
  <path class="fil3" d="M4670.5 3244.63c44.38,20.1 48.15,50.16 28.73,95.01 -65.08,150.07 -127.71,33.23 -150.42,-61.59 5.74,-3.65 -21.51,-98.38 121.69,-33.42zm-98.18 -88.27c-333.3,142.64 -114.03,581.43 193.96,446.41 270.15,-118.44 118.92,-580.3 -193.96,-446.41z"/>
  <path class="fil3" d="M8904.38 2597.44c358.5,-3.01 15.32,349.92 0,0zm249.16 359.55c487.59,-586.73 -764.55,-608.32 -286.52,10.87l286.52 -10.87z"/>
  <path class="fil3" d="M11664.31 8099.86c-110.22,68.13 -9.67,50.99 -149.98,26.84 -44.45,-175.5 11.4,-152.03 144.45,-138.19l5.53 111.35zm-280.86 -92.49c-33.95,340.97 210.25,485.86 407.49,300.89 184.85,-173.26 75.44,-457.57 -296.59,-403.72l-110.9 102.83z"/>
  <path class="fil3" d="M6343.09 14392.14c156.4,26.49 140.96,-26.28 122.02,152.51 -172.09,11.28 -161.46,-11.43 -122.02,-152.51zm-38.72 -76.55c-453.11,641.86 717.49,627.61 261.21,-7.95l-261.21 7.95z"/>
  <path class="fil3" d="M10114.1 14830.57c3.61,98.03 -49.59,58.91 -87.75,73.15 -143.92,-133.61 -32.22,-118.53 0,-161.42 90.36,43.1 82.66,-48.99 87.75,88.27zm159.49 212.62c52.36,-203.39 45.62,-208.24 -75.63,-369.98l-246.52 1.77c-231.99,319.3 -11.23,538.77 322.15,368.21z"/>
  <path class="fil3" d="M13457.15 14744.63c124.51,50.84 173.98,18.26 39.89,159.81 -75.12,-27.84 -58.91,30.54 -80.81,-71.86 -29.69,-138.67 13.32,-47.67 40.92,-87.95zm251.38 303.57c67.85,-261.16 -1.49,-434.57 -319.51,-356.37l-78.4 70.49c-74.03,341.74 180.04,397.27 397.91,285.88z"/>
  <path class="fil4" d="M8395.73 9096.28c-55.49,150.87 7.26,57.9 -107.49,180.36 -14.68,15.65 -90.04,88.23 -122.3,111.9 -271.83,199.66 -824.98,133.94 -997.39,-326.84 -136.01,-498.18 144.45,-943.67 663.21,-923.53 283.39,11 446.05,169.49 545.23,331.63 90.88,148.49 162.95,500.74 18.74,626.48zm-1879.95 -1945.1c-169.8,-150.51 -241.98,-330.18 -577.81,-224.29 -155.72,315.41 15.44,456.6 197.12,615.05 -85.9,185.33 -217.99,323.48 -310.63,589.41 -86.83,249.33 -132.45,547.29 -111.43,844.28 29.69,419.25 279.86,1357.7 759.74,921.72 80.77,-401.24 -493.36,-849.05 -108.61,-1709.94 182.6,-408.54 625.96,-855.04 1168.56,-901.1l5.73 335.35c-232.51,132.01 -988,295.19 -945.19,1273 27.93,638.45 502.07,1112.39 1158.17,1130.48 1053.56,29.05 1597.6,-1107.73 1010.43,-1936.32 -230.19,-324.8 -326.97,-273.12 -699.23,-467.16l-9.23 -339.24c576.05,79.45 982.18,472.94 1170.52,899.01 393.77,890.78 -170.04,1277.21 -107.77,1671.78 414.11,569.56 708.74,-424.7 751.35,-796.73 78.16,-682.54 -145.77,-1071.42 -406.81,-1514.54 116.16,-206.76 284.84,-165.51 268.99,-478.19 -210.45,-376.64 -471.57,-122.3 -609.36,88.99 -285.72,-66.72 -520.36,-410.1 -1287.44,-425.71 -664.97,-13.52 -873.69,217.55 -1317.1,424.15z"/>
  <path class="fil4" d="M12329.84 3650.44c180.12,-104.96 194.8,-193.59 400.76,-255.34 233.19,-69.86 349.67,-34.55 566.82,24.63 65.08,-72.74 80.65,-32.7 167.92,45.02 202.94,180.76 348.75,353.97 350.8,689.92 2.37,392.57 -248.57,695.22 -551.06,801.43 -850.9,298.68 -1514.26,-781.41 -958.83,-1313.08l23.59 7.42zm1569.27 -507.24c-150.9,-16.93 -197.32,-105.81 -332.1,-178.83 -129.44,-70.14 -231.95,-87.15 -401.47,-124.66 97.94,-191.63 22.83,-827.51 51.55,-1122.06 136.83,20.3 -22.47,58.06 559.21,55.77l470.32 -11.47c245.64,-55.57 219.36,-242.51 149.18,-420.01 -309.75,-106.25 -2217.82,3.69 -2576.61,-49.96 -171.33,-25.64 -76.39,28.21 -145.61,-60.26 -371.9,90.43 -344.7,523.25 -11.99,585.8 273.28,51.4 696.34,-25.72 993.85,25.96 47.71,240.86 40.33,713.23 -4.81,956.38 -622.6,204.99 -1020.5,545.72 -1064.32,1237.09 -94.73,1494.84 1769.05,2061.55 2564.1,848.45 366.89,-559.8 164.26,-1450.38 -251.3,-1742.2z"/>
  <path class="fil4" d="M8881.43 3755.97c401.63,-222.05 575.01,432.09 263.17,594.67 -340.57,177.58 -646.67,-382.62 -263.17,-594.67zm-514.07 -1148.54c-19.29,-358.74 473.1,-668.14 889.1,-509.81 292.1,111.18 625.17,628.82 331.34,954.38 -130.2,364.12 -567.51,446.57 -878.1,303.17 -109.5,-50.55 -245.32,-184.61 -300.57,-291.9 -65.28,-126.91 -123.14,-335.39 -41.77,-455.84zm104.93 2130c197.53,61.87 273.12,179.67 556.07,175.14 267.3,-4.26 346.39,-104.89 510.69,-187.74 81.21,397.02 143.92,989.28 594.99,578.42 74.95,-309.67 -172.09,-1107.25 -251.01,-1446.94 -93.17,-400.87 31.66,-251.53 196.45,-566.06 310.63,-592.9 84.05,-1319.26 -546.81,-1635.75 -87.35,-43.82 -106.37,-44.42 -140.07,-91.64 -128.31,-179.88 -48.43,-531.88 -233.72,-653.01 -315.85,-206.48 -404.89,149.13 -449.98,375.87 -88.92,447.26 -38.12,240.74 -378.13,457.17 -400.03,254.62 -605.78,760.7 -498.17,1251.25 24.51,111.74 76.23,229.91 124.02,318.74 237.09,440.68 354.85,-83.7 -57.82,1666.41 -69.41,294.39 40.01,560.57 344.46,428.72 200.54,-86.87 199.78,-467.88 229.03,-670.58z"/>
  <path class="fil4" d="M6143.88 15950.22c-86.19,-492.35 486.18,-574.33 573.4,-192.67 112.43,491.75 -504.79,584.6 -573.4,192.67zm935.16 -1235.12c-182.8,712.55 -1125.27,646.07 -1278.98,39.84 -219.68,-437.02 219.64,-891.7 635.88,-891.22 426.71,0.48 787.38,418.81 643.1,851.38zm-1474.78 667.09c5.29,343.66 -212.38,1069.74 -293.02,1440.44 -61.79,284.15 94.57,538.49 380.97,381.69 176.02,-96.38 141.96,-461.3 225.21,-653.41 575.17,266.74 491.23,223.81 1050.08,-9.03 42.77,188.46 59.46,543.15 190.66,641.78 237.17,178.31 460.9,-31.46 411.19,-338.73 -66.89,-413.35 -293.43,-1082.61 -305.66,-1465.47 558.84,-362.95 444.16,-1406.57 -96.78,-1794.72 -84.14,-60.39 -312.2,-156.56 -350.88,-209.36 -142.84,-194.96 -10.07,-692.22 -381.46,-702.33 -362.03,-9.87 -229.74,439.52 -364.6,680.94 -82.81,148.22 -355.05,106.21 -603.86,471.93 -342.17,503.03 -322.91,1233.76 138.15,1556.27z"/>
  <path class="fil4" d="M5284.79 3597.04c-48.75,243.75 -289.37,435.66 -571.31,455.6 -326.53,23.11 -518.48,-147.45 -654.78,-342.7 -61.03,-242.3 -151.02,-429.56 15.21,-681.21 106.04,-160.54 271.67,-317.3 532.88,-333.75 462.18,-29.05 903.74,427.52 678,902.06zm-938.36 -1376.8c-488.59,145.09 -726.4,400.83 -866.95,889.34 -261.69,8.74 -580.91,-40.49 -607.27,250.01 -30.01,330.97 330.21,287.6 608.51,285.43 335.23,1024.96 794.81,629.78 893.91,1021.59 14.73,58.34 12.88,93.77 31.66,161.58 29.57,106.85 65.12,187.69 122.5,273.76 273.28,410.06 755.64,344.46 1229.58,342.61 333.03,-1.32 466.8,-38.23 438.23,-386.75 -172.09,-389.32 -1367.37,166.56 -1275.36,-504.59 606.7,-190.23 684.34,-361.67 917.78,-904.95 270.67,-3.21 593.51,32.02 608.71,-251.57 17.98,-334.19 -333.3,-265.18 -610.11,-294.39 -138.91,-297.59 -118.13,-361.63 -330.26,-570.39 -173.21,-170.49 -318.98,-242.23 -613.89,-336 29.97,-382.29 165.83,-363.68 545.16,-356.97 357.06,6.29 538.1,85.22 753.48,-146.42 30.81,-322.31 -79.85,-381.13 -393.41,-383.22 -506,-3.45 -956.59,-70.41 -1249.65,323.92 -160.57,216.11 -121.25,330.7 -202.62,587.01z"/>
  <path class="fil4" d="M12901.6 15033.68c-195.44,-866.63 1091.12,-1021.79 1222.45,-270.63 148.41,849.21 -1064.56,970.78 -1222.45,270.63zm-1098.86 -836.86c95.05,161.38 454.4,398.03 618.14,473.1 -47.38,1089.71 764.24,1489.99 1433.21,1277.45 297.76,-94.57 374.76,-227.1 560.49,-389.24l236.61 143.37c-98.71,237.53 -522.89,521.8 -820.05,576.81 -222.08,41.13 -176.34,-62.43 -364.24,-36.79 -308.71,42.09 -337.2,1006.21 134.66,854.39 173.53,-55.85 121.29,-165.27 174.74,-308.55 410.94,-100.11 641.37,-168.12 917.42,-398.27 151.19,-126.03 542.67,-483.09 535.73,-797.53 -102.84,-174.82 -425.75,-391.53 -620.07,-474.5 0.8,-662.36 -156.12,-1015.25 -637,-1236.97 -234.32,-108.05 -539.02,-135.14 -805.2,-54.25 -314.37,95.5 -360.75,244.84 -547.77,390.76l-247.36 -130c77.44,-230.71 556.44,-632.26 955.02,-589.49 276.69,29.69 418.01,89.68 431.85,-293.58 9.03,-249.45 14.25,-583.76 -295.63,-526.62 -124.54,22.95 -133.37,78.68 -176.42,190.26 -72.99,189.02 46.66,112.47 -223.49,176.02 -553.98,130.28 -1279.74,667.78 -1260.64,1153.63z"/>
  <path class="fil4" d="M10673.3 15073.52c-266.98,795.85 -1440.15,396.74 -1190.94,-384.46 253.1,-793.48 1446.57,-377.44 1190.94,384.46zm-1687.15 -401.07c-69.53,1046.78 726.19,1488.38 1437.06,1276.53 340.01,-101.31 385.31,-261.57 560.57,-391.45l230.55 145.65c-103.04,256.59 -643.62,649.2 -1024.44,559.68 -329.45,-77.44 -361.51,108.46 -359.54,404.69 2.37,352.6 53.64,498.69 412.23,410.78 54.44,-109.33 52.64,-151.02 95.77,-296.79 927.74,-169.68 1535.41,-917.91 1454.12,-1189.98 -105.77,-173.14 -427.48,-397.27 -620.51,-469.93 5.9,-658.07 -146.69,-988 -604.5,-1228.18 -634.88,-333.07 -1052.96,23.63 -1378.85,317.86 -142.68,-38 -117.24,-45.7 -239.21,-134.01 42.69,-227.5 360.31,-422.91 631.58,-521.81 522.21,-190.43 739.16,287.89 737.79,-554.15 -0.72,-457.68 -357.78,-373.14 -446.65,-196.28 -202.55,403.12 159.21,22.23 -570.52,348.15 -356.7,159.33 -889.7,591.7 -936.28,936.72 -26.12,193.24 123.78,255.59 238.65,334.07 124.19,84.94 266.58,195.16 382.18,248.45z"/>
  <path class="fil4" d="M12199.88 8451.3c-185.61,451.35 -996.59,464.51 -1168.31,-23.83 -160.58,-151.59 -94.05,-490.88 12.15,-666.46 94.94,-156.96 285.08,-315.13 578.3,-313.16 462.11,3.09 900.58,576.61 577.86,1003.45zm-1608.07 -1001.16c-95.21,457.89 -322.91,593.14 -68.85,1188.5 125.79,294.78 452.87,597.67 829.07,648.83l2.01 645.47c0,250.29 32.74,315.53 -179.67,388.31 -157.61,54.05 -314.41,92.33 -287.73,326.37 50.92,446.49 628.21,83.5 763.51,22.31 174.94,150.06 752,380.41 705.05,-97.34 -42.17,-429.16 -472.98,50.71 -472.37,-719.38l3.33 -562.61c797.49,-143.16 1110.21,-984.31 759.7,-1788.5 163.9,-227.18 584.27,-388.16 224.25,-752.2 -324.64,-41.29 -453.72,185.25 -609.76,348.63 -642.94,-235.04 -625.97,-247.6 -1276.57,-2.16 -136.74,-99.43 -404.81,-515.55 -672.35,-307.03 -292.94,228.31 178.35,587.45 280.38,660.8z"/>
 </g>
</svg>
