<?xml version="1.0" encoding="UTF-8"?>
<!DOCTYPE svg PUBLIC "-//W3C//DTD SVG 1.1//EN" "http://www.w3.org/Graphics/SVG/1.1/DTD/svg11.dtd">
<!-- Creator: CorelDRAW 2017 -->
<svg xmlns="http://www.w3.org/2000/svg" xml:space="preserve" width="200mm" height="200mm" version="1.1" style="shape-rendering:geometricPrecision; text-rendering:geometricPrecision; image-rendering:optimizeQuality; fill-rule:evenodd; clip-rule:evenodd"
viewBox="0 0 20000 20000"
 xmlns:xlink="http://www.w3.org/1999/xlink">
 <defs>
  <style type="text/css">
   <![CDATA[
    .str0 {stroke:#373435;stroke-width:593.64;stroke-linecap:round;stroke-linejoin:round;stroke-miterlimit:22.9256}
    .fil0 {fill:none;fill-rule:nonzero}
    .fil3 {fill:#84716B}
    .fil5 {fill:#ED3237}
    .fil2 {fill:black}
    .fil4 {fill:#FEFDFD}
    .fil1 {fill:#FEFEFE;fill-rule:nonzero}
   ]]>
  </style>
 </defs>
 <g id="Capa_x0020_1">
  <metadata id="CorelCorpID_0Corel-Layer"/>
  <g>
   <path class="fil0 str0" d="M1928.67 5085.44l-1603.42 -4481.66 980.62 0 1138.15 3317.43 1092.25 -3317.43 963.93 0 -1594.03 4481.66 -977.5 0zm6106.37 0l-977.5 0 -387.03 -1020.27 -1797.46 0 -372.43 1020.27 -959.76 0 1740.09 -4481.66 958.71 0 1795.38 4481.66zm-1658.72 -1777.64l-622.8 -1658.72 -605.06 1658.72 1227.86 0zm6656.14 1777.64l0 -4444.1 907.59 0 0 3686.72 2247.09 0 0 757.38 -3154.68 0zm3985.5 0l-1603.42 -4481.66 980.62 0 1138.15 3317.43 1092.25 -3317.43 963.93 0 -1594.03 4481.66 -977.5 0z"/>
   <path id="1" class="fil1" d="M1928.67 5085.44l-1603.42 -4481.66 980.62 0 1138.15 3317.43 1092.25 -3317.43 963.93 0 -1594.03 4481.66 -977.5 0zm6106.37 0l-977.5 0 -387.03 -1020.27 -1797.46 0 -372.43 1020.27 -959.76 0 1740.09 -4481.66 958.71 0 1795.38 4481.66zm-1658.72 -1777.64l-622.8 -1658.72 -605.06 1658.72 1227.86 0zm6656.14 1777.64l0 -4444.1 907.59 0 0 3686.72 2247.09 0 0 757.38 -3154.68 0zm3985.5 0l-1603.42 -4481.66 980.62 0 1138.15 3317.43 1092.25 -3317.43 963.93 0 -1594.03 4481.66 -977.5 0z"/>
  </g>
  <g>
   <path class="fil2" d="M13521.06 18972.6c225.24,-147.46 198.46,-199.23 331.95,-276.79 193.74,-112.56 1083.1,-369.98 1334.04,-446.95 636.63,-195.3 1444.55,309.1 1550.35,729.84 -574.79,113.03 -982.02,232.24 -1625.55,209.11 -286.07,-10.28 -563.31,-48.23 -844.65,-72.24 -144.55,-12.34 -287.55,-19.5 -433.83,-21.44 -319.61,-4.25 -279.35,-25.08 -312.31,-121.53zm6590.04 -11475.24l0 116.07c-10.21,127.18 -56.12,195.04 -114.14,276.07 -200.55,115.68 -60.55,142.14 -712.38,393.48 -1297.65,500.36 -883.87,505.62 -1281.35,910.27 -269.33,274.19 -522.95,171.32 -921.26,194.42 151.14,560.75 467.06,1385.92 215.04,2044.52 -83.06,217.04 -255.09,359.69 -86.84,555.41 185.49,215.76 135.97,-1.7 362.03,461.18 86.64,177.4 224.73,370.92 272.08,550.28 134.23,508.39 161.96,912.53 -64.71,1380.8 -342.65,707.87 -996.06,1133.92 -1782.18,1505.85 -630.91,298.49 -1825.87,635.08 -2618.95,670.91 133.03,199.31 856.71,164.6 1183.31,454.71 377.7,335.5 -118.19,420.21 849.16,817.64 339.15,139.34 879.87,331.16 1153.39,512.85 165.9,110.2 680.39,693.1 627.22,1041.74 -446.56,332.55 -1062.31,364.66 -1686.99,441.99 -164.07,20.31 -327.25,91.87 -438.19,87.25 -1241.58,-51.67 -3145.71,-34.51 -4106.71,-737.19 -146.42,-107.06 -305.36,-256 -387.59,-411.79 -37.31,-70.7 -20.52,-86.57 -72.44,-130.85l-28.45 -17.94c-3.02,-1.96 -10.47,-4.75 -15.38,-7.72 71.68,-589.08 11.87,-103.42 184.91,-499.26 139.7,-319.55 50.93,-291.82 84.36,-643.26 44.45,-467.25 -17.7,-282.54 -430.55,-315.69 -127.93,-10.28 -225.38,-77.17 -343.34,-92.98 -455.56,-61.06 -564.31,-221.4 -652.89,-69.82 95.92,93.9 288.83,117.56 409.38,199.6 175.79,119.65 136.47,234.44 182.09,456.93 38.92,189.8 115.04,76.36 142.86,477.2 6.72,96.88 4.52,200.12 21.62,297.5 31.05,176.81 47.35,105.13 115.73,149.65 52.92,548.1 -545.21,730.47 -976.7,833.36 -1224.83,292.06 -4835.66,441.71 -5676.77,-315.21 -226.72,-204.02 -300.25,-276.67 -108.33,-584.91 514.92,-827 1355.55,-639.03 1817.77,-944.6 362.64,-239.75 536.1,-155.77 647.26,-289.06 435.27,-521.91 578.83,-405.94 1360.26,-493.31l44.6 -128.58c-98.13,-67.72 -1867.8,-448.47 -2790.66,-973.38 -603.89,-343.47 -1118.09,-745.68 -1494.63,-1335.59 -127.29,-199.42 -210.23,-415.92 -336.58,-622.6 -299.17,-24.04 -648.08,25.89 -874.49,-129.65 -504.86,-346.84 -284.91,-148.96 -674.25,-330.71 -274.72,-128.24 -371.72,-220.55 -478.61,-525.56 -198.03,-565.11 -723.69,-644.74 -439.74,-1419.3 105.23,-287.07 223.43,-439.8 395.4,-609.43 204.79,-202.01 346,-321.23 616.26,-388.51 264.81,-65.93 200,-349.96 527.26,-477.23 355.78,-138.35 639.22,133.99 815.66,41.07 1293.22,-681 725.09,-885.91 1276.23,-1738.48 190.92,-295.32 462.55,-572.97 728.95,-777.65 555.94,-427.14 905.81,-623.21 1656.65,-854.39 -100.48,-489.78 -93.67,-147.28 -54.25,-737.75 9.21,-137.97 19.25,-276.24 27.23,-414.25 8.26,-142.76 243.66,-856.64 311.91,-983.49 183.05,-340.25 488.03,-717.31 784.18,-950.6 679.57,-535.32 1117.02,-679.54 1973.29,-519.42 48.15,711.09 -41.41,564.21 384.87,937.85 646.58,566.75 1953.24,921.36 2792.99,1225.41 645.38,233.67 1331.63,548.91 1726.83,943.53 186.18,185.91 498.06,461.04 623.93,700.68 168.03,319.91 156.91,781.98 175.25,1172.73l506.43 268.22c128.31,95.76 -19.7,97.3 178.75,98.05 100.42,-232.89 -35.28,-263.08 -115.05,-367.71 119.76,-621.6 70.89,-898.93 -388.6,-1391.31 -403.92,-432.83 -498.43,-916.78 11.68,-1246.54 401.4,-259.48 659.94,-33.61 1108.84,-46.97 21.83,-385.64 10.99,-257.28 141.13,-575.13 29.89,-73 54.68,-83.14 110.58,-140.59 406.82,-418.06 1081.35,-302.45 1314.49,121.58 135.72,246.84 92.99,601.44 86.66,898.72 536.67,-25.33 937.66,-693.7 1513.21,-124.74 291.55,288.2 224.77,786.55 -5.88,1145.7 -193.58,301.44 -245.56,112.59 -241.89,286.22 129.72,99.93 325.33,-82.99 674.37,219.07 70.51,61.01 79.82,108.64 150.53,164.36 52.11,110.54 103.24,164.68 114.14,310.28zm-16336.62 11370.45c124.38,12.11 221.59,46.35 357.5,56.51 396.67,29.67 747.69,108.2 1138.18,164.06 566.91,81.1 1112.27,-1.88 1678.25,57.82 775.81,81.84 1536.1,-127.77 2273.96,-310.71 117.19,-29.05 234.77,-54.39 355.09,-76.96 151.67,-28.44 217.81,-101.17 322.62,-94.96 35.34,142.21 10.08,77.62 -82.76,151.28 -60.26,47.81 -61.79,66.41 -120.05,107.46 -87.2,61.43 -196.71,108.34 -309.22,147.54 -231.65,80.7 -492.04,132.6 -742.45,171.22 -1006.27,155.19 -3281.69,209.43 -4250.19,-97.94 -118.97,-37.76 -223.81,-79.11 -344.02,-113.02 -236.27,-66.67 -134.25,-41.78 -276.91,-162.3zm12688.49 360.61c290.04,-37.48 138.28,-101.15 362.69,-67.64l33.16 165.88c-64.03,-31.69 -588.29,114.33 -729.69,138.07 -1287.79,216.13 -2900.15,194.39 -4142.93,-174.26 -554.1,-164.36 -533.57,-186.1 -931.74,-437.74 -282.74,-178.7 -262.18,-26.07 -235.42,-237.62 186.08,22.13 131.26,19.05 190.45,55.64 69.1,42.72 69.48,34.94 154.31,50.91 297.24,55.96 683.59,219.98 987.2,313.26 471.97,145.01 1025.41,120.98 1524.94,209.88 1181.61,210.31 1679.39,126.77 2787.03,-16.38zm-12743.63 -666.78c25.48,-57.97 -4.3,-1.33 26.34,-43.21l242.5 -237.36c103.36,-72.69 207.62,-130.5 341.36,-183.61 645.16,-256.18 805.18,-206.83 1250.88,65.62 430.8,263.34 790.1,264.18 881.34,721.07 -504.17,23.07 -2419.24,-91.41 -2742.42,-322.51zm1690.52 -799.08c140.75,-131.29 94.49,-54.96 264.47,-104.1 129.79,-37.52 28.62,-98.02 278.69,-74.41 28.7,166.19 8.99,251.24 25.81,407.46 47.1,22.41 98.17,47.72 153.42,76.73 71.76,37.68 83.27,38.48 87.13,91.41 -251.17,56.02 -274.69,-94.3 -432.67,-157.86 -169.35,-68.13 -290.76,-122.58 -376.85,-239.23zm6678.36 136.98c-46.37,-247.48 -8.17,-392.47 168.84,-476.42 73.53,164.88 48.92,137.28 32.19,335.45 47.5,24.52 61.23,24.3 104.44,51.4 93.45,58.61 -18.5,26.92 93.53,46.51 45.96,8.03 202.98,3.05 260.33,-25.44l-2.75 -91.31c-26.35,-18.89 -9.87,-11.65 -54.59,-25.78l-121.58 -14.11 85.95 -67.12c182.59,-89.07 584.06,-30.9 746.17,28.23 -19.41,78.78 15.54,7.22 -83.03,88.24 -56.51,46.45 -39.4,23.95 -62.75,103.62 626.53,-141.66 522.74,-32.84 989.44,-32.12 143.52,0.22 419.28,-30.08 540.99,-4.89 113.17,23.43 300.08,89.35 379.71,152.24 -57.81,107.64 -127.46,100.71 -263.81,132.78 -232.83,54.77 -505.48,161.22 -755.03,225.92 -279.51,72.47 -53.27,122.39 -341.46,229.93 -329.06,122.8 -485.11,-253.36 -572.3,-514 -185.97,-40.86 -322.26,-36.1 -511.59,8.1l16.07 281.49c76.75,23.33 125.16,48.18 198.66,77.44 116.04,46.21 113.47,14.85 235.86,38.53 131.92,140.96 7.24,125.36 281.25,182.24l-202.04 376.92c-404.38,7.06 -840.24,-67.59 -1205.52,-163.31 -173.33,-45.42 -341.79,-97.45 -491.44,-170.77 -189.89,-93.03 -304.34,-89.22 -528.04,-142.57 -4.54,-11.6 -13.82,-58.04 -15.81,-61.41 -38.1,-64.64 -18.16,-34.67 -209.36,-65.31 -31.68,-200.73 -46.21,-106.28 61.75,-210.93 50.17,-48.63 62.43,-135.93 102.48,-216.3l677.29 -59.44c19.21,-37.63 1.26,-5.55 10.08,-31.02l104.05 -39.66c10.3,31.43 12.21,-3.83 0.72,33.75 -10.1,33.03 2.21,-0.99 -27.01,38.57 262.09,-10.07 14.19,54.89 185.72,66.15 85.9,5.65 24.5,-1.48 85.62,-38l86.97 -47.6zm-1024.65 -515.27c89.85,62.96 53.39,98.68 83.18,233.69l560.14 49.4c56.33,19.69 12.16,-5.36 48.6,27.58 -255.26,143.75 -435.59,111.05 -753.96,41.43l62.04 -352.1zm-2004.29 353.78c30.16,-136.57 76.43,-123.95 142.53,-224.04 44.17,-66.89 84.92,-152.48 134.67,-232.08 251.22,11.35 312.89,153.06 291.21,410.28l-568.41 45.84zm4510.7 -174.6c-113.33,39.74 -106.72,-45.49 -271.06,-62.76 -110.86,-11.64 -223.01,-18.04 -333.44,-27.62 -99.13,-8.61 -235.5,-40.83 -322.44,-8.6 -0.96,0.35 -173.99,117.89 -213.57,-31.42 -44.82,-169.09 474.98,-119.37 582.25,-121.66 299.03,-6.4 379.52,-54.29 496.78,66.49l77.45 65.13 -15.97 120.44zm309.29 -462.99c12.08,111.09 7.41,235.04 -134.4,206.39 -88.22,-17.82 -91.43,-119.67 -106.09,-232.73l240.49 26.34zm-6742.88 116.11l72.51 -2.79 9.16 142.36c-83.59,2.98 -76.4,12.87 -139.24,-29.51l-40.12 -28.57c-55.49,-44.26 -64.93,-62.73 -170.11,-103.14 -103.71,-39.84 -182.42,-24.9 -301.18,-23.62 -50.77,67.78 -118.87,154.15 -164.39,225.96 85.75,119.96 41.96,97.98 243.27,110.77 -29.92,-97.38 -151.12,-300.83 188.77,-189.98 130.47,42.56 42.32,-0.24 104.53,127.2 283.35,30.67 265.99,-8.1 525.03,99.1 248.99,-179.3 88.93,-151.12 467.01,-113.93 197.13,19.39 376.88,-11.36 583.06,-5.65 62.14,45.67 12.43,13.32 51.97,57.96l185.28 156.8c120.51,98.96 32.71,156.54 248.74,211 -65.54,294.91 -233.67,423.14 -279.07,660.11 711.9,-188.74 131.44,-717.41 820.75,-711.15 223.05,2.02 231.12,33.77 286.21,224.48 46.24,160.12 77.62,244.51 -22.75,367.43 -223.18,273.33 -1112.27,363.28 -1114.13,362.34 -119.12,-114.36 -22.99,-252.26 -245.48,-283.48 -65.51,98.93 -13.39,266.1 -125.59,331.18 -116.06,67.32 -1010.11,140.12 -1176.27,127.3 -273.79,-21.13 -443.08,-148.35 -498.06,-395.2 -39.44,-177.03 77.23,-342.76 -162.82,-498.97l-103.67 -39.23c-1.31,-4.49 -7.85,-2.37 -11.32,-4.47 64.37,-262.76 108.66,-93.39 268.03,-205.48 -8.02,-127.73 4.06,-90.64 -83.98,-117.64 -210.27,-64.47 8.95,-65.95 -438.17,-153.66 12.55,-138.87 56.75,-248.89 131.91,-308.22 29.98,-23.67 87.76,-52.78 138.67,-65.56 99.05,-24.85 76.73,0.77 155.13,-52.13 25.88,-17.46 6.39,-45.94 170.82,-56.21 265.38,-16.58 263.61,-1.08 425.5,184.6zm7014.24 308.71c-116.91,-63.55 -173.2,-71.36 -194,-223.4l237.24 -18.39 68.03 143.06c18.27,-32.38 38.64,-75.96 19.7,-158.54 -34.16,-148.97 -197.6,-76.78 -247.33,-218.26 -11.65,-33.15 -7.15,-38.18 -8.82,-74.33 328.74,78.03 588.31,241.16 567.45,627.32 -51.93,27.36 -559.55,129.17 -671.93,-54.31l229.66 -23.15zm-1813.77 -366.17c67.96,-51.05 94.64,-122.97 188.25,-158.25 302.52,-113.98 131.82,29.68 212.68,-149.05 141.08,-9.51 626.46,33.54 729.53,88.83 -2.67,115.5 7.61,63.73 -72.99,108.1 -190.79,105.02 -206.1,30.25 -429.05,73.46 -187.39,36.31 -435.12,79.44 -628.42,36.91zm-3923.08 130.89c-229.76,9.29 -475.71,36.91 -699.75,-6.66 -194.71,-37.86 -368.56,-136.87 -413.87,-293.65 444.08,-11.52 969.63,-48.9 1113.62,300.31zm26.49 -343.04c-163.72,-63.33 -134.13,-29.2 -142.86,-218.93 721.31,-1.7 343.7,34.26 744.46,192.43l-47.4 478.28c-450.09,31.27 -289.71,-18.84 -376.24,-286.76 -29.15,-90.25 -84.92,-129.04 -177.96,-165.02zm3063.2 429.98c-106.43,-62.58 -83.26,-374 -63.24,-506.23 13.21,-87.26 3.77,-77.41 85.6,-86.75l736.97 -35.85c-72.07,261.24 -222.88,152.72 -488.95,642.06 -47.72,2.23 -110.35,9.14 -155.82,8.83 -28.69,-0.2 -35.05,0.06 -63.08,-4.4 -70.35,-11.18 -26.37,-2.6 -51.48,-17.66zm-9915.5 -6930.28c68.75,-289.87 168.74,-473.14 533.42,-401.3 121.82,24 143.69,84.53 184.68,275.12 79.7,370.51 281.9,556.83 648.69,741.84 478.85,241.52 359.65,-76.62 360.46,-128.51 1.65,-105.93 2.05,-79.48 108.92,-111.04 51.86,110.2 34.46,59.92 104.63,146.46 156.73,193.28 86.21,536.79 59.03,564.87 -275.45,133.49 -517.08,-163.39 -757.54,-102.36 -35.66,47.46 -15.5,-59.83 -29.31,57.4 -7.37,62.54 62.96,96.86 108.02,121.94 271.52,151.21 645.69,121.83 742.45,217.6 103.27,139.83 118.19,479.94 39.14,652.18 -70.72,154.11 -169.48,242.93 -282.08,336.58 -26,21.63 -14.69,44.72 -121.31,24.65 -114.66,-201.39 -1.49,-620.5 -250.05,-696.12 -294.89,-89.7 -544.8,60.07 -592.62,298.23 173.14,90.12 313.3,7.67 409.74,89.04 226.96,191.51 67.95,507.53 -75.46,702.85 -98.62,134.31 -89.04,201.68 -288.9,209.18 -1184.86,44.51 -495.26,-744.87 -1006.09,-983.64 -237.92,105.82 -76.9,263.91 -182.62,457.04 -658.68,72.82 -279.13,-1250.36 -656.36,-927.69 -30.71,26.27 -76.1,100.42 -93.48,131.99 -272.6,-204.93 -183.67,-761.41 82.12,-1124.04 256.02,-349.3 578.12,-455.06 954.52,-552.27zm5544.16 -3071.99c6.34,-585.26 -600.9,-550.05 -688.82,-1193.61 -77.5,-567.34 65.76,-1138.07 275.23,-1584.67 347.19,-740.21 1130.02,-1507.38 2274.61,-1447.5 -14.32,264.41 -24.39,466.59 117.31,638.81l405.31 348.07c1088.11,820.09 2978.33,1080.57 4133.21,1848.13 326.53,217.02 521.11,419.19 739.6,744.24 179.47,266.99 51.09,991.02 -86.34,1252.17 -88.26,167.71 -221.53,271.42 -389.65,363.64 -166.06,91.1 -311.9,153.64 -319.9,395.24 243.36,38.26 827.81,-468.39 1030.7,-576.54 112.26,-59.84 170.52,5.43 278.98,60.04 202.68,102.03 529.36,334.77 712.65,475.94 21.14,171.29 -91.05,295.81 -106.68,493.87 368.41,-56.18 463.36,-182.3 606.18,-450.33 137.05,-257.19 204.02,-474.08 389.82,-666.39 481.21,-23.15 773.58,486.53 391.38,808.14 -199.4,167.79 -578.14,528.4 -507.5,984.54l336.15 -88.28c202.13,309 345.49,780.87 259.23,1225.86 -187.07,965.06 -1463.34,1777.47 -2272.02,1927.3 -108.43,20.09 -501.49,27.2 -239.45,350.15 237.31,-4.02 403.35,-116.71 688.89,-196.8 454.81,-127.57 777.34,-382.47 1122.46,-659.1 532.67,-426.95 619.42,-128.14 845.98,75.41 81.78,73.47 154.32,115.22 230.58,202.24 443.16,505.68 355.4,1476.31 -114.17,1963.28 -327.06,339.17 -567.83,538.87 -1001.88,778.8 -326.41,180.43 -843.23,435.2 -1262.24,496.54 -195,28.54 -219.79,70.94 -353.13,103.11 -100.11,24.15 -275.09,29.06 -385.25,39.26 -257.52,23.85 -550.76,41.57 -777.68,121.15 -86.99,30.5 -1425.9,137.86 -1632.04,151.37 12.31,-246.49 74.86,-471.77 -1.75,-677.92 -275.42,-41.26 -541.96,461.23 -682.56,675.68 -100.85,153.83 -198.72,264.58 -357.28,351.16 -82.01,44.78 -134.77,90.83 -236.31,104.51 -1009.03,135.92 -993.55,-351.12 -1297.57,-593.21 -81.63,-65.01 -32.66,1.52 -71.2,-84.95 -116.72,-261.9 -291.79,-380.42 -424.67,-602.17l-122.41 4.34c-143.74,323.42 71.37,516.19 137.61,776.42 -1133.84,-1.52 -410.04,50.5 -1376.51,-153.66 -416.69,-88.03 -827.67,-170.74 -1239.57,-266.65 -1172.95,-273.12 -2178.41,-749.25 -2831.37,-1665.6 -87.97,-123.46 -200.97,-315.44 -262.26,-491.41 -85.95,-246.77 -9.4,-353.01 135.6,-508.34 292.75,-313.61 606.64,-187.86 730.06,-774.62 21.61,-102.71 44.7,-248.97 46.63,-353.1 3.38,-182.79 -237.21,-372.8 -101.21,-548.54 93.41,-120.7 54.5,-162.64 50.25,-327.34 214.26,39.96 255.5,166.45 371.98,274.2l332.03 306.89c115.9,102.46 614.65,440.56 843.57,404.91 218.93,-265.52 10.28,-299.02 -230.61,-402.06 -356.64,-152.54 -1094.35,-832.69 -1204,-1236.51 136.98,-136.3 159.24,-6.03 351.95,-228.31 -161.42,-356.72 -754.07,-82.45 -970.08,90.75 -101.53,81.39 -256.77,300.7 -392.76,309.96 -237.26,16.16 -547.35,-333.87 -486.83,-528.43 38.5,-123.8 471.26,-381.84 576.49,-449.3 153.5,-98.42 281.63,-208.44 417.09,-291.18 92.48,-56.5 443.14,-66.34 591.17,-94.47l21.5 -159.91 -351.65 -99.54c13.64,-257.24 36.43,-89.2 89,-255.48 90.28,-285.63 87.32,-327.62 296.76,-615.74 413.52,-568.89 1521.25,-1406.83 2252.64,-1409.5 304.29,323.72 256.46,540.76 694.75,535.04zm8868.97 643.7c-126.46,-12.97 -52.73,-16.35 -74.57,-44.89 -121.66,-159 -98.98,-377.21 -73.91,-543.11 285.83,-76.33 497.72,34.54 786.38,-119.61 -95.61,-356.84 -535.07,-220.02 -695.19,-271.67 -13.4,-4.32 -710.84,-753.87 -823.54,-1043.21 -300.58,-771.64 878.13,-655.41 1081.64,-533.8 277.56,165.87 238.01,249.42 345.52,591.08 151.36,481 598.49,193.64 763.98,651.27 108.8,300.85 24.43,86.47 149.54,309.64 2.4,-5.43 4.19,-13.18 4.98,-17.1 0.8,-3.92 3.53,-12.42 4.34,-17.32l4.38 -73.82c0.07,-350.48 -60.21,-59.54 -29.67,-302.12 228.42,-31.59 10.39,-28.84 287.17,182.05 106.24,80.95 161.5,139.96 241.1,238.32 57.07,70.53 139.71,196.32 187.11,292.44 150.92,306.08 83.84,258.49 211.98,270.64 -70.11,-761.78 -863.15,-1127.5 -1431.2,-1448.15 -121.82,-68.77 -189.79,-85.59 -235.64,-243.85 -101.1,-348.91 -226.58,-885.62 -13.6,-1164 130.51,-170.59 441.76,-286.94 709.31,-126.21 391.23,235.04 115.36,1121.27 86.75,1581.71 504.95,-57.33 518.17,-291.11 790.52,-485.12 1052.64,-749.9 1294.21,258.73 853.8,762.68 -200.59,229.54 -650.15,162.11 -774.16,500.33 216.55,226.19 594.72,198.37 977.05,179.4 127.41,-6.32 178.24,-27.14 255.61,43.26 117.99,107.34 321.55,390.26 93.86,536.85 -251.8,162.11 -1282.83,697.95 -1554.8,741.76 -106.16,-201.12 -93.99,-361.42 -387.87,-313.34 -71.86,270.34 109.33,446.05 104.82,747.72 -269.11,153.49 -283.33,199.26 -688.29,147.43 -45.78,-182.93 258.17,-431.28 108.94,-747.3 -102.8,-217.71 -297.81,-324.44 -534.83,-423.5 -832.48,-347.9 -476.08,167.74 -731.51,141.54z"/>
   <path class="fil2" d="M9504.76 14805.87l511.48 56.96c64.04,228.58 5.53,211.61 118.37,387.47 301.19,-132.73 -103.38,-700.79 878.72,-472.35 13.57,391.68 -22.73,738.81 -201.64,1035.45 -157.46,261.06 -426.12,457.48 -860.22,419.84 -46.1,-92.96 -116.51,-190.62 -170.25,-285.63 -100.85,-178.29 -76.66,-115.42 -123.05,-335.68 -34.75,-165.05 -79.37,-129.58 -104.21,-354.69 -16.43,-148.96 -37.27,-298.47 -49.2,-451.37zm111.99 -2636.92c-117.51,-247.41 90.58,-480.25 278.83,-537.1 386.88,-116.85 821.42,199.61 831.77,403.53 8.76,172.43 -155.81,85.01 -312.3,118.5 -92.29,19.75 -78.37,39.38 -187.08,43.77l-611.22 -28.7zm298.23 -758.77c-278.06,52.07 -413.01,187.84 -526.21,399.95 -114.67,214.88 -138.74,465.26 -211.15,702.13 -136.99,448.07 -60.1,2467.89 177.44,2902.63 122.36,223.95 48.23,140.63 110.63,346.85 138.31,457.1 466.79,907.04 1062.15,612.26 352.68,-174.63 599.77,-637.92 695.85,-1128.71 14.14,-72.21 17.2,-134.47 28.66,-201.01 30.39,-176.33 122.58,-88.35 131.04,-545.96 8.37,-452.67 -94.25,-1215.08 -167.71,-1672.25 -33.65,-209.39 -153.88,-468.37 -212.5,-701.98 -69.55,-277.15 -163.77,-447.71 -348.52,-565.39 -191,-121.66 -469.4,-199.12 -739.68,-148.52z"/>
   <path class="fil2" d="M8036.98 10343.5c349.19,-75.46 129.19,-169.86 222.71,-438.6 80.33,-230.79 116.73,-406.81 267.19,-554.34 79.61,-78.06 235.09,-80.65 354.24,-68.3 208.64,21.64 241.11,316.62 337.87,492.49 131.5,239.04 5.71,461.28 292.22,513.92 202.79,-498.51 -459.52,-1623.13 -1117.15,-1139.95 -149.45,109.81 -109.15,190.89 -211.47,313.42 -112.79,135.06 -124.04,125.3 -137.76,358.67 -10.3,175.21 -2.82,352.59 -7.85,522.69z"/>
   <path class="fil2" d="M10158.27 10207.13l142.43 -2.96c109.33,-387.68 130.89,-1078.61 660.51,-939.85 537.31,140.78 255.16,936.91 620.26,1039.34 230.6,-477.19 -255.11,-1232.37 -648.32,-1284.25 -687.64,-90.72 -911.82,925.92 -774.88,1187.72z"/>
   <path class="fil2" d="M10158.27 7546.62l91.32 -7.89c22.74,-31.38 -0.22,19.45 26.58,-48.11 16.31,-41.09 10.39,-27.41 19.77,-70 8.78,-39.89 16.73,-86.83 27.12,-132.73 49.97,-220.91 168.25,-512.58 451.69,-512.01 300.47,0.6 246.69,316.43 402.51,561.19 96.5,151.56 39.48,150.35 111.04,216.1 146.15,-47.52 147.04,-7.69 165.33,-199.7 -140.64,-118.64 -84.2,-38.69 -120.89,-262.02 -52.98,-322.53 -292.96,-562.06 -655.57,-497.82 -525.25,93.05 -668.95,693.06 -563.43,895.19l44.53 57.8z"/>
   <path class="fil2" d="M7919.18 7509.5c220.34,-102.32 80.93,-358.25 321.58,-587.59 675.98,-99.95 378.23,510.66 744.82,626.32 175.64,-381.65 -251.86,-823.15 -568.87,-849.34 -356.88,-29.47 -498.4,249.07 -568.41,533.07 -42.66,173.07 -20.92,189.16 70.88,277.54z"/>
   <path class="fil2" d="M6831.82 18268.83c73.54,49.74 670.9,-50.72 690.9,-61.91 84.26,-47.16 -20.86,-68.51 195.35,-75.56l35.52 -291.34c1.65,-4.99 4.52,-12.8 7.79,-18.71 158,21.02 49.4,17.9 296.76,281.86 55.03,-22.49 100.41,-28.98 181.54,-18.87l-120.94 -264.96c463.17,-17.7 300.02,-17.53 511.2,98.57l5.37 -181.46c-345.2,-171.43 -562.9,-139.36 -974.34,-72.02 -324.49,53.12 93.24,302.31 -275.13,498.46 -155.15,82.61 -391.21,45.96 -554.02,105.94z"/>
   <path class="fil2" d="M12558.33 18238.44c-29.8,-151.16 30.43,-160.72 -117.3,-166.49 -2.71,5.97 -4.9,13.89 -6.03,18.71 -23.13,99.43 -12.46,81.71 -8.39,197.01l80.55 69.08 -39.91 203.22 -249.87 -17.13c-22.78,232.17 146.58,253.94 337.79,179.76 37.14,-39.33 104.38,-232.38 123.74,-297.94 -51.26,-78.41 -98.47,-74.06 -120.58,-186.22z"/>
   <path class="fil2" d="M6833.66 17673.98l-33.3 316.95c185.46,123.54 204.52,118.72 453.31,54.89 -303.05,-22 -296.73,-64.75 -331.05,-191.94 44.18,-25.82 -3.63,11.24 63.88,-21.72 297.17,-145.09 52.3,-50.21 382.35,-92.59 -107.92,-210.27 -306.33,-161.16 -535.19,-65.59z"/>
   <path class="fil2" d="M13536.2 18372.5c114.23,-5.54 196.88,-3.22 295.49,-41.81 138.46,-54.17 113.66,-28.88 94.93,-157.45 -261.81,6.25 -382.54,-64.72 -390.42,199.26z"/>
  </g>
  <path class="fil3" d="M9914.98 11410.18c270.28,-50.6 548.68,26.86 739.68,148.52 184.75,117.68 278.97,288.24 348.52,565.39 58.62,233.61 178.85,492.59 212.5,701.98 73.46,457.17 176.08,1219.58 167.71,1672.25 -8.46,457.61 -100.65,369.63 -131.04,545.96 -11.46,66.54 -14.52,128.8 -28.66,201.01 -96.08,490.79 -343.17,954.08 -695.85,1128.71 -595.36,294.78 -923.84,-155.16 -1062.15,-612.26 -62.4,-206.22 11.73,-122.9 -110.63,-346.85 -237.54,-434.74 -314.43,-2454.56 -177.44,-2902.63 72.41,-236.87 96.48,-487.25 211.15,-702.13 113.2,-212.11 248.15,-347.88 526.21,-399.95zm-1878 -1066.68c5.03,-170.1 -2.45,-347.48 7.85,-522.69 13.72,-233.37 24.97,-223.61 137.76,-358.67 102.32,-122.53 62.02,-203.61 211.47,-313.42 657.63,-483.18 1319.94,641.44 1117.15,1139.95 -286.51,-52.64 -160.72,-274.88 -292.22,-513.92 -96.76,-175.87 -129.23,-470.85 -337.87,-492.49 -119.15,-12.35 -274.63,-9.76 -354.24,68.3 -150.46,147.53 -186.86,323.55 -267.19,554.34 -93.52,268.74 126.48,363.14 -222.71,438.6zm2121.29 -136.37c-136.94,-261.8 87.24,-1278.44 774.88,-1187.72 393.21,51.88 878.92,807.06 648.32,1284.25 -365.1,-102.43 -82.95,-898.56 -620.26,-1039.34 -529.62,-138.76 -551.18,552.17 -660.51,939.85l-142.43 2.96zm-2239.09 -2697.63c-91.8,-88.38 -113.54,-104.47 -70.88,-277.54 70.01,-284 211.53,-562.54 568.41,-533.07 317.01,26.19 744.51,467.69 568.87,849.34 -366.59,-115.66 -68.84,-726.27 -744.82,-626.32 -240.65,229.34 -101.24,485.27 -321.58,587.59zm2194.56 -20.68c-105.52,-202.13 38.18,-802.14 563.43,-895.19 362.61,-64.24 602.59,175.29 655.57,497.82 36.69,223.33 -19.75,143.38 120.89,262.02 -18.29,192.01 -19.18,152.18 -165.33,199.7 -71.56,-65.75 -14.54,-64.54 -111.04,-216.1 -155.82,-244.76 -102.04,-560.59 -402.51,-561.19 -283.44,-0.57 -401.72,291.1 -451.69,512.01 -10.39,45.9 -18.34,92.84 -27.12,132.73 -9.38,42.59 -3.46,28.91 -19.77,70 -26.8,67.56 -3.84,16.73 -26.58,48.11l-91.32 7.89 -44.53 -57.8zm-2981.61 -114.15c-438.29,5.72 -390.46,-211.32 -694.75,-535.04 -731.39,2.67 -1839.12,840.61 -2252.64,1409.5 -209.44,288.12 -206.48,330.11 -296.76,615.74 -52.57,166.28 -75.36,-1.76 -89,255.48l351.65 99.54 -21.5 159.91c-148.03,28.13 -498.69,37.97 -591.17,94.47 -135.46,82.74 -263.59,192.76 -417.09,291.18 -105.23,67.46 -537.99,325.5 -576.49,449.3 -60.52,194.56 249.57,544.59 486.83,528.43 135.99,-9.26 291.23,-228.57 392.76,-309.96 216.01,-173.2 808.66,-447.47 970.08,-90.75 -192.71,222.28 -214.97,92.01 -351.95,228.31 109.65,403.82 847.36,1083.97 1204,1236.51 240.89,103.04 449.54,136.54 230.61,402.06 -228.92,35.65 -727.67,-302.45 -843.57,-404.91l-332.03 -306.89c-116.48,-107.75 -157.72,-234.24 -371.98,-274.2 4.25,164.7 43.16,206.64 -50.25,327.34 -136,175.74 104.59,365.75 101.21,548.54 -1.93,104.13 -25.02,250.39 -46.63,353.1 -123.42,586.76 -437.31,461.01 -730.06,774.62 -145,155.33 -221.55,261.57 -135.6,508.34 61.29,175.97 174.29,367.95 262.26,491.41 652.96,916.35 1658.42,1392.48 2831.37,1665.6 411.9,95.91 822.88,178.62 1239.57,266.65 966.47,204.16 242.67,152.14 1376.51,153.66 -66.24,-260.23 -281.35,-453 -137.61,-776.42l122.41 -4.34c132.88,221.75 307.95,340.27 424.67,602.17 38.54,86.47 -10.43,19.94 71.2,84.95 304.02,242.09 288.54,729.13 1297.57,593.21 101.54,-13.68 154.3,-59.73 236.31,-104.51 158.56,-86.58 256.43,-197.33 357.28,-351.16 140.6,-214.45 407.14,-716.94 682.56,-675.68 76.61,206.15 14.06,431.43 1.75,677.92 206.14,-13.51 1545.05,-120.87 1632.04,-151.37 226.92,-79.58 520.16,-97.3 777.68,-121.15 110.16,-10.2 285.14,-15.11 385.25,-39.26 133.34,-32.17 158.13,-74.57 353.13,-103.11 419.01,-61.34 935.83,-316.11 1262.24,-496.54 434.05,-239.93 674.82,-439.63 1001.88,-778.8 469.57,-486.97 557.33,-1457.6 114.17,-1963.28 -76.26,-87.02 -148.8,-128.77 -230.58,-202.24 -226.56,-203.55 -313.31,-502.36 -845.98,-75.41 -345.12,276.63 -667.65,531.53 -1122.46,659.1 -285.54,80.09 -451.58,192.78 -688.89,196.8 -262.04,-322.95 131.02,-330.06 239.45,-350.15 808.68,-149.83 2084.95,-962.24 2272.02,-1927.3 86.26,-444.99 -57.1,-916.86 -259.23,-1225.86l-336.15 88.28c-70.64,-456.14 308.1,-816.75 507.5,-984.54 382.2,-321.61 89.83,-831.29 -391.38,-808.14 -185.8,192.31 -252.77,409.2 -389.82,666.39 -142.82,268.03 -237.77,394.15 -606.18,450.33 15.63,-198.06 127.82,-322.58 106.68,-493.87 -183.29,-141.17 -509.97,-373.91 -712.65,-475.94 -108.46,-54.61 -166.72,-119.88 -278.98,-60.04 -202.89,108.15 -787.34,614.8 -1030.7,576.54 8,-241.6 153.84,-304.14 319.9,-395.24 168.12,-92.22 301.39,-195.93 389.65,-363.64 137.43,-261.15 265.81,-985.18 86.34,-1252.17 -218.49,-325.05 -413.07,-527.22 -739.6,-744.24 -1154.88,-767.56 -3045.1,-1028.04 -4133.21,-1848.13l-405.31 -348.07c-141.7,-172.22 -131.63,-374.4 -117.31,-638.81 -1144.59,-59.88 -1927.42,707.29 -2274.61,1447.5 -209.47,446.6 -352.73,1017.33 -275.23,1584.67 87.92,643.56 695.16,608.35 688.82,1193.61z"/>
  <path class="fil4" d="M18372.34 7587.16c-128.14,-12.15 -61.06,35.44 -211.98,-270.64 -47.4,-96.12 -130.04,-221.91 -187.11,-292.44 -79.6,-98.36 -134.86,-157.37 -241.1,-238.32 -276.78,-210.89 -58.75,-213.64 -287.17,-182.05 -30.54,242.58 29.74,-48.36 29.67,302.12l-4.38 73.82c-0.81,4.9 -3.54,13.4 -4.34,17.32 -0.79,3.92 -2.58,11.67 -4.98,17.1 -125.11,-223.17 -40.74,-8.79 -149.54,-309.64 -165.49,-457.63 -612.62,-170.27 -763.98,-651.27 -107.51,-341.66 -67.96,-425.21 -345.52,-591.08 -203.51,-121.61 -1382.22,-237.84 -1081.64,533.8 112.7,289.34 810.14,1038.89 823.54,1043.21 160.12,51.65 599.58,-85.17 695.19,271.67 -288.66,154.15 -500.55,43.28 -786.38,119.61 -25.07,165.9 -47.75,384.11 73.91,543.11 21.84,28.54 -51.89,31.92 74.57,44.89 255.43,26.2 -100.97,-489.44 731.51,-141.54 237.02,99.06 432.03,205.79 534.83,423.5 149.23,316.02 -154.72,564.37 -108.94,747.3 404.96,51.83 419.18,6.06 688.29,-147.43 4.51,-301.67 -176.68,-477.38 -104.82,-747.72 293.88,-48.08 281.71,112.22 387.87,313.34 271.97,-43.81 1303,-579.65 1554.8,-741.76 227.69,-146.59 24.13,-429.51 -93.86,-536.85 -77.37,-70.4 -128.2,-49.58 -255.61,-43.26 -382.33,18.97 -760.5,46.79 -977.05,-179.4 124.01,-338.22 573.57,-270.79 774.16,-500.33 440.41,-503.95 198.84,-1512.58 -853.8,-762.68 -272.35,194.01 -285.57,427.79 -790.52,485.12 28.61,-460.44 304.48,-1346.67 -86.75,-1581.71 -267.55,-160.73 -578.8,-44.38 -709.31,126.21 -212.98,278.38 -87.5,815.09 13.6,1164 45.85,158.26 113.82,175.08 235.64,243.85 568.05,320.65 1361.09,686.37 1431.2,1448.15z"/>
  <path class="fil4" d="M1587.97 10446.66c-376.4,97.21 -698.5,202.97 -954.52,552.27 -265.79,362.63 -354.72,919.11 -82.12,1124.04 17.38,-31.57 62.77,-105.72 93.48,-131.99 377.23,-322.67 -2.32,1000.51 656.36,927.69 105.72,-193.13 -55.3,-351.22 182.62,-457.04 510.83,238.77 -178.77,1028.15 1006.09,983.64 199.86,-7.5 190.28,-74.87 288.9,-209.18 143.41,-195.32 302.42,-511.34 75.46,-702.85 -96.44,-81.37 -236.6,1.08 -409.74,-89.04 47.82,-238.16 297.73,-387.93 592.62,-298.23 248.56,75.62 135.39,494.73 250.05,696.12 106.62,20.07 95.31,-3.02 121.31,-24.65 112.6,-93.65 211.36,-182.47 282.08,-336.58 79.05,-172.24 64.13,-512.35 -39.14,-652.18 -96.76,-95.77 -470.93,-66.39 -742.45,-217.6 -45.06,-25.08 -115.39,-59.4 -108.02,-121.94 13.81,-117.23 -6.35,-9.94 29.31,-57.4 240.46,-61.03 482.09,235.85 757.54,102.36 27.18,-28.08 97.7,-371.59 -59.03,-564.87 -70.17,-86.54 -52.77,-36.26 -104.63,-146.46 -106.87,31.56 -107.27,5.11 -108.92,111.04 -0.81,51.89 118.39,370.03 -360.46,128.51 -366.79,-185.01 -568.99,-371.33 -648.69,-741.84 -40.99,-190.59 -62.86,-251.12 -184.68,-275.12 -364.68,-71.84 -464.67,111.43 -533.42,401.3z"/>
  <path class="fil4" d="M8635.31 17736.45l-5.37 181.46c-211.18,-116.1 -48.03,-116.27 -511.2,-98.57l120.94 264.96c-81.13,-10.11 -126.51,-3.62 -181.54,18.87 -247.36,-263.96 -138.76,-260.84 -296.76,-281.86 -3.27,5.91 -6.14,13.72 -7.79,18.71l-35.52 291.34c-216.21,7.05 -111.09,28.4 -195.35,75.56 -20,11.19 -617.36,111.65 -690.9,61.91 162.81,-59.98 398.87,-23.33 554.02,-105.94 368.37,-196.15 -49.36,-445.34 275.13,-498.46 411.44,-67.34 629.14,-99.41 974.34,72.02zm-1801.65 -62.47c228.86,-95.57 427.27,-144.68 535.19,65.59 -330.05,42.38 -85.18,-52.5 -382.35,92.59 -67.51,32.96 -19.7,-4.1 -63.88,21.72 34.32,127.19 28,169.94 331.05,191.94 -248.79,63.83 -267.85,68.65 -453.31,-54.89l33.3 -316.95zm245.16 -347.35l118.02 14.16c-6.71,-74.53 2.7,-77.86 -60.45,-124.22 -161.89,-185.68 -160.12,-201.18 -425.5,-184.6 -164.43,10.27 -144.94,38.75 -170.82,56.21 -78.4,52.9 -56.08,27.28 -155.13,52.13 -50.91,12.78 -108.69,41.89 -138.67,65.56 -75.16,59.33 -119.36,169.35 -131.91,308.22 447.12,87.71 227.9,89.19 438.17,153.66 88.04,27 75.96,-10.09 83.98,117.64 -159.37,112.09 -203.66,-57.28 -268.03,205.48 3.47,2.1 10.01,-0.02 11.32,4.47l103.67 39.23c240.05,156.21 123.38,321.94 162.82,498.97 54.98,246.85 224.27,374.07 498.06,395.2 166.16,12.82 1060.21,-59.98 1176.27,-127.3 112.2,-65.08 60.08,-232.25 125.59,-331.18 222.49,31.22 126.36,169.12 245.48,283.48 1.86,0.94 890.95,-89.01 1114.13,-362.34 100.37,-122.92 68.99,-207.31 22.75,-367.43 -55.09,-190.71 -63.16,-222.46 -286.21,-224.48 -689.31,-6.26 -108.85,522.41 -820.75,711.15 45.4,-236.97 213.53,-365.2 279.07,-660.11 -216.03,-54.46 -128.23,-112.04 -248.74,-211l-185.28 -156.8c-39.54,-44.64 10.17,-12.29 -51.97,-57.96 -206.18,-5.71 -385.93,25.04 -583.06,5.65 -378.08,-37.19 -218.02,-65.37 -467.01,113.93 -259.04,-107.2 -241.68,-68.43 -525.03,-99.1 -62.21,-127.44 25.94,-84.64 -104.53,-127.2 -339.89,-110.85 -218.69,92.6 -188.77,189.98 -201.31,-12.79 -157.52,9.19 -243.27,-110.77 45.52,-71.81 113.62,-158.18 164.39,-225.96 118.76,-1.28 197.47,-16.22 301.18,23.62 105.18,40.41 114.62,58.88 170.11,103.14l40.12 28.57z"/>
  <path class="fil4" d="M12426.61 18287.67c-4.07,-115.3 -14.74,-97.58 8.39,-197.01 1.13,-4.82 3.32,-12.74 6.03,-18.71 147.73,5.77 87.5,15.33 117.3,166.49 22.11,112.16 69.32,107.81 120.58,186.22 -19.36,65.56 -86.6,258.61 -123.74,297.94 -191.21,74.18 -360.57,52.41 -337.79,-179.76l249.87 17.13 39.91 -203.22 -80.55 -69.08zm1109.59 84.83c7.88,-263.98 128.61,-193.01 390.42,-199.26 18.73,128.57 43.53,103.28 -94.93,157.45 -98.61,38.59 -181.26,36.27 -295.49,41.81zm-1447.98 -472.96l-86.97 47.6c-61.12,36.52 0.28,43.65 -85.62,38 -171.53,-11.26 76.37,-76.22 -185.72,-66.15 29.22,-39.56 16.91,-5.54 27.01,-38.57 11.49,-37.58 9.58,-2.32 -0.72,-33.75l-104.05 39.66c-8.82,25.47 9.13,-6.61 -10.08,31.02l-677.29 59.44c-40.05,80.37 -52.31,167.67 -102.48,216.3 -107.96,104.65 -93.43,10.2 -61.75,210.93 191.2,30.64 171.26,0.67 209.36,65.31 1.99,3.37 11.27,49.81 15.81,61.41 223.7,53.35 338.15,49.54 528.04,142.57 149.65,73.32 318.11,125.35 491.44,170.77 365.28,95.72 801.14,170.37 1205.52,163.31l202.04 -376.92c-274.01,-56.88 -149.33,-41.28 -281.25,-182.24 -122.39,-23.68 -119.82,7.68 -235.86,-38.53 -73.5,-29.26 -121.91,-54.11 -198.66,-77.44l-16.07 -281.49c189.33,-44.2 325.62,-48.96 511.59,-8.1 87.19,260.64 243.24,636.8 572.3,514 288.19,-107.54 61.95,-157.46 341.46,-229.93 249.55,-64.7 522.2,-171.15 755.03,-225.92 136.35,-32.07 206,-25.14 263.81,-132.78 -79.63,-62.89 -266.54,-128.81 -379.71,-152.24 -121.71,-25.19 -397.47,5.11 -540.99,4.89 -466.7,-0.72 -362.91,-109.54 -989.44,32.12 23.35,-79.67 6.24,-57.17 62.75,-103.62 98.57,-81.02 63.62,-9.46 83.03,-88.24 -162.11,-59.13 -563.58,-117.3 -746.17,-28.23l-85.95 67.12 121.58 14.11c44.72,14.13 28.24,6.89 54.59,25.78l2.75 91.31c-57.35,28.49 -214.37,33.47 -260.33,25.44 -112.03,-19.59 -0.08,12.1 -93.53,-46.51 -43.21,-27.1 -56.94,-26.88 -104.44,-51.4 16.73,-198.17 41.34,-170.57 -32.19,-335.45 -177.01,83.95 -215.21,228.94 -168.84,476.42z"/>
  <path class="fil4" d="M13521.06 18972.6c32.96,96.45 -7.3,117.28 312.31,121.53 146.28,1.94 289.28,9.1 433.83,21.44 281.34,24.01 558.58,61.96 844.65,72.24 643.53,23.13 1050.76,-96.08 1625.55,-209.11 -105.8,-420.74 -913.72,-925.14 -1550.35,-729.84 -250.94,76.97 -1140.3,334.39 -1334.04,446.95 -133.49,77.56 -106.71,129.33 -331.95,276.79z"/>
  <path class="fil4" d="M3719.34 18561.64c323.18,231.1 2238.25,345.58 2742.42,322.51 -91.24,-456.89 -450.54,-457.73 -881.34,-721.07 -445.7,-272.45 -605.72,-321.8 -1250.88,-65.62 -133.74,53.11 -238,110.92 -341.36,183.61l-242.5 237.36c-30.64,41.88 -0.86,-14.76 -26.34,43.21z"/>
  <path class="fil5" d="M9504.76 14805.87c11.93,152.9 32.77,302.41 49.2,451.37 24.84,225.11 69.46,189.64 104.21,354.69 46.39,220.26 22.2,157.39 123.05,335.68 53.74,95.01 124.15,192.67 170.25,285.63 434.1,37.64 702.76,-158.78 860.22,-419.84 178.91,-296.64 215.21,-643.77 201.64,-1035.45 -982.1,-228.44 -577.53,339.62 -878.72,472.35 -112.84,-175.86 -54.33,-158.89 -118.37,-387.47l-511.48 -56.96z"/>
  <path class="fil4" d="M16858.82 19326.66l-33.16 -165.88c-224.41,-33.51 -72.65,30.16 -362.69,67.64 -1107.64,143.15 -1605.42,226.69 -2787.03,16.38 -499.53,-88.9 -1052.97,-64.87 -1524.94,-209.88 -303.61,-93.28 -689.96,-257.3 -987.2,-313.26 -84.83,-15.97 -85.21,-8.19 -154.31,-50.91 -59.19,-36.59 -4.37,-33.51 -190.45,-55.64 -26.76,211.55 -47.32,58.92 235.42,237.62 398.17,251.64 377.64,273.38 931.74,437.74 1242.78,368.65 2855.14,390.39 4142.93,174.26 141.4,-23.74 665.66,-169.76 729.69,-138.07z"/>
  <path class="fil4" d="M3774.48 18867.81c142.66,120.52 40.64,95.63 276.91,162.3 120.21,33.91 225.05,75.26 344.02,113.02 968.5,307.37 3243.92,253.13 4250.19,97.94 250.41,-38.62 510.8,-90.52 742.45,-171.22 112.51,-39.2 222.02,-86.11 309.22,-147.54 58.26,-41.05 59.79,-59.65 120.05,-107.46 92.84,-73.66 118.1,-9.07 82.76,-151.28 -104.81,-6.21 -170.95,66.52 -322.62,94.96 -120.32,22.57 -237.9,47.91 -355.09,76.96 -737.86,182.94 -1498.15,392.55 -2273.96,310.71 -565.98,-59.7 -1111.34,23.28 -1678.25,-57.82 -390.49,-55.86 -741.51,-134.39 -1138.18,-164.06 -135.91,-10.16 -233.12,-44.4 -357.5,-56.51z"/>
  <path class="fil5" d="M9616.75 12168.95l611.22 28.7c108.71,-4.39 94.79,-24.02 187.08,-43.77 156.49,-33.49 321.06,53.93 312.3,-118.5 -10.35,-203.92 -444.89,-520.38 -831.77,-403.53 -188.25,56.85 -396.34,289.69 -278.83,537.1z"/>
  <path class="fil4" d="M11503.47 17376.94c25.11,15.06 -18.87,6.48 51.48,17.66 28.03,4.46 34.39,4.2 63.08,4.4 45.47,0.31 108.1,-6.6 155.82,-8.83 266.07,-489.34 416.88,-380.82 488.95,-642.06l-736.97 35.85c-81.83,9.34 -72.39,-0.51 -85.6,86.75 -20.02,132.23 -43.19,443.65 63.24,506.23z"/>
  <path class="fil4" d="M8994.47 17398.74l47.4 -478.28c-400.76,-158.17 -23.15,-194.13 -744.46,-192.43 8.73,189.73 -20.86,155.6 142.86,218.93 93.04,35.98 148.81,74.77 177.96,165.02 86.53,267.92 -73.85,318.03 376.24,286.76z"/>
  <path class="fil4" d="M14261.9 17426.55l-68.03 -143.06 -237.24 18.39c20.8,152.04 77.09,159.85 194,223.4l-229.66 23.15c112.38,183.48 620,81.67 671.93,54.31 20.86,-386.16 -238.71,-549.29 -567.45,-627.32 1.67,36.15 -2.83,41.18 8.82,74.33 49.73,141.48 213.17,69.29 247.33,218.26 18.94,82.58 -1.43,126.16 -19.7,158.54z"/>
  <path class="fil4" d="M8413.78 17290c-143.99,-349.21 -669.54,-311.83 -1113.62,-300.31 45.31,156.78 219.16,255.79 413.87,293.65 224.04,43.57 469.99,15.95 699.75,6.66z"/>
  <path class="fil4" d="M12336.86 17159.11c193.3,42.53 441.03,-0.6 628.42,-36.91 222.95,-43.21 238.26,31.56 429.05,-73.46 80.6,-44.37 70.32,7.4 72.99,-108.1 -103.07,-55.29 -588.45,-98.34 -729.53,-88.83 -80.86,178.73 89.84,35.07 -212.68,149.05 -93.61,35.28 -120.29,107.2 -188.25,158.25z"/>
  <path class="fil4" d="M5409.86 17762.56c86.09,116.65 207.5,171.1 376.85,239.23 157.98,63.56 181.5,213.88 432.67,157.86 -3.86,-52.93 -15.37,-53.73 -87.13,-91.41 -55.25,-29.01 -106.32,-54.32 -153.42,-76.73 -16.82,-156.22 2.89,-241.27 -25.81,-407.46 -250.07,-23.61 -148.9,36.89 -278.69,74.41 -169.98,49.14 -123.72,-27.19 -264.47,104.1z"/>
  <path class="fil4" d="M13569.98 17563.45l15.97 -120.44 -77.45 -65.13c-117.26,-120.78 -197.75,-72.89 -496.78,-66.49 -107.27,2.29 -627.07,-47.43 -582.25,121.66 39.58,149.31 212.61,31.77 213.57,31.42 86.94,-32.23 223.31,-0.01 322.44,8.6 110.43,9.58 222.58,15.98 333.44,27.62 164.34,17.27 157.73,102.5 271.06,62.76z"/>
  <path class="fil4" d="M9059.28 17738.05l568.41 -45.84c21.68,-257.22 -39.99,-398.93 -291.21,-410.28 -49.75,79.6 -90.5,165.19 -134.67,232.08 -66.1,100.09 -112.37,87.47 -142.53,224.04z"/>
  <path class="fil4" d="M11001.53 17736.37c318.37,69.62 498.7,102.32 753.96,-41.43 -36.44,-32.94 7.73,-7.89 -48.6,-27.58l-560.14 -49.4c-29.79,-135.01 6.67,-170.73 -83.18,-233.69l-62.04 352.1z"/>
  <path class="fil4" d="M13879.27 17100.46l-240.49 -26.34c14.66,113.06 17.87,214.91 106.09,232.73 141.81,28.65 146.48,-95.3 134.4,-206.39z"/>
  <path class="fil4" d="M7078.82 17326.63c62.84,42.38 55.65,32.49 139.24,29.51l-9.16 -142.36 -72.51 2.79c63.15,46.36 53.74,49.69 60.45,124.22l-118.02 -14.16z"/>
 </g>
</svg>
