<?xml version="1.0" encoding="UTF-8"?>
<!DOCTYPE svg PUBLIC "-//W3C//DTD SVG 1.1//EN" "http://www.w3.org/Graphics/SVG/1.1/DTD/svg11.dtd">
<!-- Creator: CorelDRAW 2017 -->
<svg xmlns="http://www.w3.org/2000/svg" xml:space="preserve" width="181mm" height="181mm" version="1.1" style="shape-rendering:geometricPrecision; text-rendering:geometricPrecision; image-rendering:optimizeQuality; fill-rule:evenodd; clip-rule:evenodd"
viewBox="0 0 18100 18100"
 xmlns:xlink="http://www.w3.org/1999/xlink">
 <defs>
  <style type="text/css">
   <![CDATA[
    .fil1 {fill:none}
    .fil29 {fill:#142518}
    .fil2 {fill:#170B06}
    .fil13 {fill:#261B16}
    .fil19 {fill:#292727}
    .fil12 {fill:#3A3737}
    .fil18 {fill:#452B17}
    .fil10 {fill:#4EA773}
    .fil34 {fill:#506871}
    .fil15 {fill:#524431}
    .fil6 {fill:#554A47}
    .fil28 {fill:#5A595A}
    .fil3 {fill:#685648}
    .fil30 {fill:#6F2D20}
    .fil14 {fill:#71522F}
    .fil8 {fill:#776A66}
    .fil5 {fill:#876848}
    .fil16 {fill:#93B6CD}
    .fil31 {fill:#961F16}
    .fil7 {fill:#978A86}
    .fil11 {fill:#9B8467}
    .fil21 {fill:#A97D56}
    .fil36 {fill:#AA978B}
    .fil9 {fill:#B3332D}
    .fil4 {fill:#B6B1AE}
    .fil22 {fill:#BA906A}
    .fil35 {fill:#CAC6C6}
    .fil26 {fill:#CEAA78}
    .fil25 {fill:#CEBAB2}
    .fil32 {fill:#D1453B}
    .fil23 {fill:#E2C295}
    .fil17 {fill:#E8F4F7}
    .fil20 {fill:#ECE4DD}
    .fil27 {fill:#ED4236}
    .fil33 {fill:#F4F682}
    .fil24 {fill:#FDFAFA}
    .fil0 {fill:#373435;fill-rule:nonzero}
   ]]>
  </style>
 </defs>
 <g id="Capa_x0020_1">
  <metadata id="CorelCorpID_0Corel-Layer"/>
  <path class="fil0" d="M10173.62 11774.41l-574.73 0 -240.12 -2303.74 465.2 0 119.16 1387.18 34.9 454.97 227.49 -481.45 651.76 -1360.7 486.87 0 -1170.53 2303.74zm800.39 0l462.19 -2303.74 1386.58 0 -75.83 368.31 -946.05 0 -114.35 570.52 901.52 0 -68.61 357.47 -904.52 0 -128.19 639.13 946.05 0 -72.22 368.31 -1386.57 0zm2827.89 0l-141.43 -574.13c-17.45,-76.43 -37.31,-139.62 -58.98,-188.97 -21.66,-49.35 -46.34,-87.86 -73.42,-116.15 -27.68,-28.28 -58.38,-47.54 -92.68,-58.38 -33.7,-10.23 -72.22,-15.64 -115.55,-15.64l-66.8 0 -190.17 953.27 -433.91 0 462.19 -2303.74 661.4 0c109.53,0 208.83,9.03 298.5,27.08 89.06,18.66 165.49,47.54 229.29,87.26 63.19,40.32 111.93,92.08 146.24,155.27 34.3,63.79 51.15,140.83 51.15,232.9 0,92.68 -13.84,179.34 -42.13,260.59 -28.28,81.24 -69.81,153.46 -123.97,217.85 -54.16,63.8 -119.76,117.36 -196.79,160.09 -77.03,43.33 -164.9,73.42 -262.39,90.87 29.49,16.85 56.57,37.31 81.24,62.59 24.68,25.28 48.15,57.77 69.81,96.89 21.67,39.72 42.73,87.26 63.19,143.23 21.07,55.97 42.13,121.57 64.4,198l158.88 571.12 -488.07 0zm-327.39 -1292.69c83.05,0 158.88,-9.03 226.28,-27.09 67.4,-18.65 125.18,-45.13 172.12,-80.64 46.94,-34.9 83.05,-78.24 108.33,-129.99 25.27,-51.76 37.91,-111.34 37.91,-178.14 0,-80.64 -28.29,-140.22 -85.46,-177.53 -57.17,-37.92 -148.04,-56.57 -272.62,-56.57l-210.03 0 -129.99 649.96 153.46 0zm1878.23 317.75l70.41 -357.47 821.48 0 -249.16 1227.69c-113.74,48.15 -226.88,84.26 -339.42,108.33 -111.94,24.07 -235.91,36.11 -370.71,36.11 -134.21,0 -253.97,-18.66 -358.69,-56.57 -105.31,-37.31 -194.98,-92.68 -268.4,-164.9 -73.43,-72.22 -129.39,-160.68 -167.91,-266 -39.12,-105.32 -58.38,-225.68 -58.38,-362.29 0,-90.27 8.43,-191.38 25.28,-302.11 17.45,-111.34 46.34,-223.88 87.26,-337.62 41.53,-113.74 95.69,-224.47 164.3,-331.6 68,-106.52 152.86,-202.21 254.56,-285.26 101.71,-83.65 222.07,-150.45 361.09,-201 139.02,-50.55 300.31,-75.83 483.86,-75.83 104.72,0 208.83,9.63 313.55,28.28 104.71,18.66 203.41,43.33 296.09,72.82l-83.05 400.81c-77.03,-29.49 -164.9,-55.97 -262.99,-79.44 -98.1,-24.07 -200.41,-36.11 -307.53,-36.11 -107.12,0 -202.81,18.06 -288.27,53.56 -84.86,36.11 -160.08,83.66 -225.08,143.24 -65.6,59.58 -120.96,127.58 -166.7,204.61 -45.74,77.64 -83.65,158.28 -112.54,241.93 -29.49,84.26 -51.15,169.11 -64.39,254.57 -13.85,85.46 -20.47,164.9 -20.47,239.52 0,76.43 9.03,143.83 27.09,202.21 18.65,57.77 46.94,107.72 86.66,148.05 39.12,40.92 89.67,71.01 151.65,92.07 61.39,20.46 136.01,30.7 222.68,30.7 54.16,0 99.9,-3.01 136.61,-9.63 37.31,-6.62 74.62,-16.25 111.93,-29.49l120.37 -589.18 -391.18 0zm2288.66 1011.05l-35.51 -454.97 -804.02 0 -220.26 454.97 -451.36 0 1142.84 -2303.74 606.63 0 220.26 2303.74 -458.58 0zm-148.05 -1882.47l-519.96 1073.63 604.82 0 -84.86 -1073.63z"/>
  <rect class="fil1" width="18100" height="18100"/>
  <g id="_1500053895280">
   <path class="fil2" d="M4681.35 2711.76l-51.76 238.65 -78.54 34.24c-16.71,-101.13 -41.79,-276.93 58.58,-347.45 50.77,24.29 -2.96,-17.8 44.89,34.06 70.93,76.86 3.75,-15.14 26.83,40.5z"/>
   <path class="fil2" d="M6792.14 1928.08l61.93 -133.52c93.98,-6.9 73.03,9.43 128.11,-50.09l-14.2 194.76c-45.42,35.76 -114.8,61.88 -199.1,64.77l23.26 -75.92z"/>
   <path class="fil3" d="M4900.58 12359.3c-14.02,8.82 -97.86,-14.71 34.64,119.7 53.49,54.21 75.68,60.22 128.98,113.78 -49.25,40.76 -75.65,57.44 -124.94,82.45 51.35,-66.95 23.83,-47.27 -25.97,-83.92 -108.11,-178.93 55.66,-133.08 -175.24,-261.25 -117.87,-65.43 -150.76,-99.41 -250.52,-201.96 41.44,-73.7 -28.53,-16.99 73.19,-37.76 25.89,69.1 93.52,96.21 157.55,138.97 42.94,28.65 57.11,37.61 98.27,63.6 9.69,6.14 37.08,22.06 44.1,27.26 29.11,21.5 20.57,17.42 39.94,39.13z"/>
   <path class="fil3" d="M1249.24 7553.8c-106.28,-30.74 -111.35,-95.58 -208.33,-247.13 -34.39,-53.76 -54.45,-101.61 -75.6,-156.31 -12.14,-31.45 -25.74,-58.71 -28.07,-91.52 -5.37,-75.12 14.18,-72.08 24.09,-85.64 47.98,100.8 70.4,204.06 122.51,292.11 62.46,105.6 147.22,190.15 165.4,288.49z"/>
   <path class="fil4" d="M6929.54 1604.03c-13.37,153.28 1.72,129.16 -42.96,164.36l-32.51 26.17 -61.93 133.52 -40.6 10.52c-35.68,-95.58 -53.46,-158.65 -45.83,-270.89 12.25,-81.81 23.61,-139.93 94.42,-177.16 101.61,-53.36 128.65,28.05 129.41,113.48z"/>
   <path class="fil4" d="M7573.51 1406.1l172.98 6.14 -65.45 -93.17c109.85,11.72 546.24,136.76 623.43,187.53 -126.11,1.32 -655.08,-49.65 -730.96,-100.5z"/>
   <path class="fil4" d="M8276.78 13957.3c19.22,20.26 20.08,11.74 38.93,48.2l49.42 310.17c-261,-96.08 -179.14,-328.83 -128.24,-473.43l39.89 115.06z"/>
   <path class="fil4" d="M6713.5 9159.94l-44.18 30.81c-18.31,-55.67 13.22,6.84 -36.64,-23.64l-2.71 -93.37c77.49,-57.16 93.9,-128.55 217.33,-82.37 -96.73,89.27 -51.94,-17.5 -133.8,168.57z"/>
   <path class="fil4" d="M4099.76 6495.3c-192.1,-100.98 -36.8,-7.89 -207.29,-62.74 47.32,-74.94 12.38,-35.86 15.34,-160.17 1.07,1.37 25.46,34.79 31.98,42.02l89.14 96.59c4.79,5.36 20.01,19.53 24.68,24.7 42.35,46.94 7.6,3.55 46.15,59.6z"/>
   <path class="fil4" d="M5058.88 4737.77c106.56,7.96 39.56,8.82 62.84,-17.53l85.36 33.28c5.17,-141.92 -0.69,-27.98 34.21,-74.38l-6.14 83.48c-56.81,39.38 -34.16,16.03 -65.68,60.48 -26.55,-7.25 -37.91,-4.66 -61.98,-21.4 -50.79,-35.3 -27.01,4.18 -48.61,-63.93z"/>
   <path class="fil5" d="M7582.84 16503.53l-19.6 335.33c-91.32,332.13 -442.27,661.9 -799.96,758.39 56.17,-89.16 217.61,-151.16 301.6,-206.78 103.59,-68.59 182.99,-156.87 249.26,-236.02 237.82,-284.15 211.49,-460.09 218.16,-762.98 26.48,31.64 39.41,30.12 50.54,112.06z"/>
   <path class="fil5" d="M6820.03 8877.38c-142.34,-4.74 -139.24,46.87 -232.36,123.37 -100.35,-13.26 -167.15,-15.74 -202.5,-102.3 59.29,-94.81 118.58,-108.74 254.79,-138.91 54.75,78.76 69.91,32.03 132.6,70.93l47.47 46.91z"/>
   <path class="fil5" d="M3609.77 10443.7c-161.49,-124 -298.76,-44 -460,-148.86 -73.87,-48.03 -20.74,-10.88 -54.45,-48.76 15.75,-8.35 -39.18,-66.14 184.57,22.21 246.37,97.28 193.72,39.99 214.95,22.27l-166.79 -40.93c16.79,-11.06 -35.3,-28.81 72.17,-26.65 109.22,2.15 -4.11,8.85 78.72,19.4 81.5,10.37 111.3,-11.85 156.08,-58.03 122.39,-18.31 -7.43,-14.63 46.39,33.58 -74.92,30.4 -59.7,-64.26 -41.77,85.31 9.84,82.21 18.11,-19.66 18.74,59.11 39.84,-79.68 -68.47,-96.09 -135.98,-102.86 20.85,111.08 35.18,109.73 87.37,184.21z"/>
   <path class="fil5" d="M7281.04 14701.52c-116.17,-144.65 -209.52,-544.22 -158.65,-634.39 62.16,59.34 158.22,617.6 158.65,634.39z"/>
   <path class="fil5" d="M3864.58 9633.67l-48.31 -33.14c-99.92,-72.27 -74.64,-57.57 -90.38,-123.78l111.02 50.36 -15.8 -66.56c64.03,41.64 36.39,88.17 43.47,173.12z"/>
   <path class="fil6" d="M6872.33 3475.5c-12.61,-60.33 -7.84,-51.37 -34.85,-95.75l66.24 28.1c42.86,-76.26 207.29,-77.91 294.73,-69.46 8.72,164.12 -46.41,315.11 -90.54,430.19 -136.23,19.3 -111.86,-15.29 -247.76,-22.95 -16.68,-99.48 -21.91,-36.87 -57.26,-144.75 117.69,-139.25 149.55,-7.15 203.16,-207.41 -159.84,13.97 -75.85,-39.54 -133.72,82.03z"/>
   <path class="fil6" d="M2077.2 8108.51c22.11,53.86 46.51,50.77 95.65,90.48 43.21,34.95 58.1,63.02 97.71,95.46 12.33,147.11 16.76,45.03 -37.73,82.72 -30.59,-82.17 -66.19,-97.74 -134.74,-149.14 -204.62,-153.45 -277.02,-200.62 -522.65,-316.82 158.24,0.33 369.33,140.65 501.76,197.3z"/>
   <path class="fil7" d="M1887.15 6435.43c89.52,57.79 272.41,273.07 356.28,345.59 44.93,38.9 376.25,332.16 378.77,337.87 -105.04,-10.45 -681.69,-553.85 -774.28,-653.46 -5.48,-3.68 -14.25,-15.22 -16.86,-10.43 -13.11,24.04 -17.2,8.17 -76.84,-68.85l-227.42 -261.81c-85.79,-78.66 -12.28,-79.17 -145.11,-180.15 -128.17,-97.43 -25.03,-99.21 -180.79,-164.76l9.39 -43.49c-10.43,-52.24 -7.43,-43.24 -36.32,-91.98l-49.83 -91.22c137.25,9.08 199.1,-25.33 263.66,113.64l-160.57 -51.43c50.84,85.26 60.07,59.72 98.97,107.6 29.55,36.36 1.63,43.97 35.23,102.96l279.33 280.47c90.86,83.51 190.53,212.74 246.39,329.45z"/>
   <path class="fil7" d="M9030.99 16646.25c-93.04,-27.46 -25.05,-14.33 -48.94,12.66l105.67 276.69 24.65 90.76c-117.41,-75.39 -293.23,-441.71 -308.7,-571.24 92.16,21.6 69.46,10.88 125.53,70.75 20.67,22.09 25.21,25.74 45.29,46.51l56.5 73.87z"/>
   <path class="fil7" d="M8779.2 8796.64l-116.1 145.41c-9.3,-123.6 1.96,-42.3 -31.49,-72.23l-35 62.69 4.69 -267.89c61.22,34.46 131.08,83.81 177.9,132.02z"/>
   <path class="fil8" d="M2491.67 8181.34c31.6,70.07 98.85,112.8 206.05,165.14 76.96,37.59 170.99,106.21 247.73,123.81l277.15 212.26c115.59,43.54 293.64,39.94 384.1,93.52 -149.78,20.77 -245.96,-7.91 -388.33,-32.92l34.64 66.24c-86.37,-56.27 -11.64,-28.43 -140.44,-38.26 -75.67,-5.79 -103.72,-11.72 -183.53,-8.65 60.84,24.27 66.72,10.04 114.88,54.24l-256.13 -35.83c103.8,-35.55 128.22,-17.6 231.23,-102.22l-106.66 19.52 62.79 -45.16c-76.44,-37.76 -121.65,-93.35 -193.82,-94.21 -117.17,-1.37 -112.75,8.87 -182.69,-90.87l110.03 -8.03c51.51,107.49 -13.62,37.12 71.97,73.08 -46.18,-66.09 -19.22,-49.35 -60.63,-113.86 -151.53,-15.14 -256.26,55.69 -397.54,-9.23 108.03,1.62 150.89,21.75 232.27,-25.82 -24.3,-138.66 -89.82,-135.09 -163.16,-195.17 -58.99,-48.3 -138.14,-113.55 -179.34,-182.1 142.74,48.74 147.43,127.71 279.43,174.52z"/>
   <path class="fil8" d="M8107.76 4732.67l-4.08 53.43c-62.67,8.42 -58.38,9.87 -56.15,118.1l447.31 -28.53c86.94,1.95 81.76,-5.78 140.14,31.83 -289.76,-30.21 -553.47,74.93 -712.5,-61.75l63.68 22.26c-53.38,-443.48 -2.56,-134.07 40.37,-339.96 11.01,-52.83 -16.43,-51.21 35.18,-112.27 -10.02,84.42 -4.7,258.61 46.05,316.89z"/>
   <path class="fil8" d="M6735.61 9171.09l-14.07 122.34c35.93,19.7 73.06,40.72 104.99,54.72 -5,5.91 -17.37,22.85 -19.94,26.3 -2.53,3.45 -11.26,23.79 -13.41,18.97 -2.49,-5.5 -9.59,15.04 -15.22,22.54l100.17 -7.27 35.61 15.39c-25.01,19.7 -1.85,14.23 -49.5,22.9 -13.44,2.46 -27.44,2.13 -42.33,2 -116.12,-0.84 -151.27,-63.8 -202.32,-86.02l13.09 -195.85c49.86,30.48 18.33,-32.03 36.64,23.64l44.18 -30.81 22.11 11.15z"/>
   <path class="fil9" d="M8183.43 15246.11l61.55 178.73c50.29,99.79 74.02,40.83 173.68,281.14 16.51,39.84 22.45,49.17 39.29,80.77 34.94,65.45 4.46,29.64 40.8,58.93l-29.98 0.13c-69.66,-7.64 -187.76,-114.17 -228.33,-164.71 -44.23,-55.06 -44,-61.27 -102.35,-107.2 -51.1,-40.22 -82.88,-88.37 -105.62,-100.09 -40.78,-219.46 -168.64,-474.02 -177.75,-657.64 82.34,57.56 133.39,124.54 193.37,198.84 125.81,155.83 81.35,165.37 135.34,231.1z"/>
   <path class="fil9" d="M8855.81 15934.06c102.43,64.87 217.51,219.74 262.54,333.45 -62.76,-21.38 -15.84,12.2 -69.07,-46.21 -55.06,-60.4 -110.47,-146.12 -198.77,-186.31l5.3 94.01c-61.7,-25.72 -16.46,-2.16 -58.81,-27.39 -27.39,-16.31 -24.78,-18.79 -54.93,-38.09 -59.09,-37.84 -62.15,-20.16 -93.88,-78.62 -44.25,-85.76 -74.43,-147.38 -123.09,-237.23 -41.49,-76.61 -107.02,-146.81 -143.05,-243.35 91.29,61.7 402.32,400.07 460.8,472.32 30.1,-14.13 46.43,46.99 12.96,-42.58z"/>
   <path class="fil10" d="M7260.3 1544.57c30.18,98.49 9.28,16.78 -9.41,50.64 -111.99,-3.93 -95.6,-141.51 -279.31,-164.43 -113.66,-14.18 -337.25,-27.69 -444.22,-2.08 -22.47,109.32 -33.19,213.58 -89.85,278.8 -11.84,-0.41 -937.53,-191.16 -994.69,-246.37 741.4,-46.58 551.74,-126.34 1423.06,-74.05 292.8,17.58 213.12,11.54 394.42,157.49z"/>
   <path class="fil10" d="M6743.4 925.01l11.61 -136c-0.3,29.19 -12.58,38.67 2.39,73.01 28.55,65.6 6.03,31.62 62.76,62.41 85.39,-126.88 16.81,-2.82 36.82,-174.8 12.15,-104.49 35.07,-69.46 24.3,-169 26.04,21.12 33.47,27.52 66.36,46.18 -4.26,50.34 -12.91,99.92 -18.94,161.97 -9.94,102.02 1.44,84.78 -38.8,149.21l-146.5 -12.98z"/>
   <path class="fil11" d="M6705.71 1667.71c-7.63,112.24 10.15,175.31 45.83,270.89l40.6 -10.52 -23.26 75.92c84.3,-2.89 153.68,-29.01 199.1,-64.77l14.2 -194.76c-55.08,59.52 -34.13,43.19 -128.11,50.09l32.51 -26.17c44.68,-35.2 29.59,-11.08 42.96,-164.36l33.75 -101.1c217.63,46.07 16.94,60.33 334.64,183.9 4.41,1.73 11.87,5.56 17.58,8.78l-13.52 116.67 -132.53 23.11c-61.8,301.14 -24.17,160.37 -127.18,363.9l-12.88 21.48c-131.97,-60.83 -162.32,-75.31 -273.68,-159.48 -59.16,-44.71 -188.52,-180.94 -187.83,-284.53 -26.73,-41.75 11,-23.99 -58.71,-22.04l73.9 -285.04 149.01 -7.18c-43.47,82.5 -66.44,123.33 -72.07,234.68 12.63,-18.72 33.42,-21.33 45.69,-29.47z"/>
   <path class="fil11" d="M7026.74 9074.37l-13.14 -49.25c-40.85,4.72 -34.99,4.42 -48.94,12.81l-62.41 46 12.27 -120.15c-70.14,-33.52 -86.35,-17.62 -94.49,-86.4l-47.47 -46.91c-62.69,-38.9 -77.85,7.83 -132.6,-70.93 220.85,-34.14 513.91,49.83 653.1,162.14 -201.38,146.3 -209.8,-115.05 -342.2,-46.48 41.39,20.64 66.95,6.95 103.95,68.37 72.48,120.38 -27.87,130.63 -28.07,130.8z"/>
   <path class="fil11" d="M10214.69 8716.55l-98.75 -1.72 56.91 -42.28 -74.53 -130.29 -32.06 53.38c-44.96,86.83 -119.29,124.87 -240.28,172.21 93.43,-239.34 311.95,-372.02 568.15,-457.94 -66.36,116.81 -68.87,74.31 -136.53,170.29 20.54,110.44 -14.1,12.63 47.6,92.94 -56.48,79.53 -60.51,67.49 -142.24,105.32 29.11,50.87 -44.03,48.64 51.73,38.09z"/>
   <path class="fil12" d="M4836.7 1429.84l546.47 -21.05 -10.88 54.8c-45.95,22.85 -35.6,15.65 -66.92,28.74 -101.18,42.24 -151.24,333.27 -182.28,435.75 -118.43,12.93 -51.38,-19.73 -256.41,307.6l-44.61 64.04 -98.77 -669.24c24.7,-27.61 93.88,-88.81 133.97,-120.73l-20.57 -79.91z"/>
   <path class="fil12" d="M10214.69 8716.55c-95.76,10.55 -22.62,12.78 -51.73,-38.09 81.73,-37.83 85.76,-25.79 142.24,-105.32 -61.7,-80.31 -27.06,17.5 -47.6,-92.94 67.66,-95.98 70.17,-53.48 136.53,-170.29 -256.2,85.92 -474.72,218.6 -568.15,457.94 120.99,-47.34 195.32,-85.38 240.28,-172.21l32.06 -53.38 74.53 130.29 -56.91 42.28c-68.06,18.99 -144.04,51.3 -186.97,108.26l-139.33 52.24c-89.06,12.55 -236.12,77.24 -313.79,28.5l-72.79 25.84c-53.3,-44.99 -123.77,-42.86 -186.69,-39.1 -159.84,20.21 -302.79,-67.71 -437.17,-93.93 -46.82,-48.21 -116.68,-97.56 -177.9,-132.02l-16.02 1.37c-20.42,-36.07 -49.2,-73.27 -59.3,-107.25 -26.42,-89.04 -1.54,-74.45 16.01,-101.44 103.01,180.71 216.31,272.06 464.4,346.03 136.61,40.75 640.76,77.75 727.61,-15.11 89.04,-45.9 31.27,-65.28 123.07,-201.05 43.67,-64.57 77.02,-88.86 158.4,-143.54 402.58,-270.5 493.62,-33.32 562.72,-695.5 25.69,-246.06 13.06,-233.89 -10.07,-431.54 -13.97,-119.34 -1.11,-101.79 21.21,-120.08 31.82,266.5 60.35,436.97 14.93,725.81 -17.09,108.67 -42.09,208.99 -85.64,301.14 -58.91,124.75 -74.25,180.41 -165.75,256.74 27.72,142.4 -24.37,160.83 -138.18,236.35z"/>
   <path class="fil12" d="M7260.3 1544.57l33.65 11.89c-122.99,142.95 -10.19,111.17 -8.8,113.71 69.08,-22.82 44.89,-6.9 87.24,-51.25 -12.83,78.06 -29.17,223.72 10.5,278.85 36.13,93.6 156.16,270.05 222.27,362.92 121.37,170.57 44.81,251.49 -61.83,339.26l-217.1 70.62c-160.88,-9.96 -27.36,8.85 -70.01,-45.54 143.12,-69.21 98.97,-13.14 280.85,-142.37 13.21,-9.38 27.01,-17.57 41.82,-29.04 58.86,-45.54 5.4,-1.82 43.21,-37.73 -38.42,-80.47 -78.18,-78.95 -181.93,-275.43 -76.53,-144.95 -83.66,-247.08 -201.53,-243.55 -25.08,68.65 -19.53,101.64 -54.22,181.72l-108.51 183.15c-166.94,-10.22 -277.91,-94.31 -370.6,-172.01 -129.18,-108.31 -147.77,-205.03 -250.32,-281.47l112.9 -31.54c-0.69,103.59 128.67,239.82 187.83,284.53 111.36,84.17 141.71,98.65 273.68,159.48l12.88 -21.48c103.01,-203.53 65.38,-62.76 127.18,-363.9l132.53 -23.11 13.52 -116.67c-5.71,-3.22 -13.17,-7.05 -17.58,-8.78 -317.7,-123.57 -117.01,-137.83 -334.64,-183.9l-33.75 101.1c-0.76,-85.43 -27.8,-166.84 -129.41,-113.48 -70.81,37.23 -82.17,95.35 -94.42,177.16 -12.27,8.14 -33.06,10.75 -45.69,29.47 5.63,-111.35 28.6,-152.18 72.07,-234.68l-149.01 7.18 -73.9 285.04c-44.35,-19.78 -14.71,9.81 -71.67,-47.22 56.66,-65.22 67.38,-169.48 89.85,-278.8 106.97,-25.61 330.56,-12.1 444.22,2.08 183.71,22.92 167.32,160.5 279.31,164.43 18.69,-33.86 39.59,47.85 9.41,-50.64z"/>
   <path class="fil12" d="M4083.25 2607.3c6.97,-78.49 -108.44,-230.87 138.34,-396.87 167.9,-112.95 308.54,-70.2 493.44,-42.18l-13.19 -126.46 53.08 69.1c-61.68,228.11 4.11,186.82 -73.8,328.35 -147.51,-49.4 -228.54,-31.09 -340.83,24.12 -237.69,116.86 -154.31,6.82 -257.04,143.94z"/>
   <path class="fil12" d="M5053.14 12315.61c-78.2,-0.97 -101.15,-9.03 -173.53,-31.25 -98.72,-30.25 -77.22,-14.07 -121.37,-96.03 116.48,16.61 242.41,60.73 294.9,127.28z"/>
   <path class="fil13" d="M6639.96 8759.54c-136.21,30.17 -195.5,44.1 -254.79,138.91 35.35,86.56 102.15,89.04 202.5,102.3 93.12,-76.5 90.02,-128.11 232.36,-123.37 8.14,68.78 24.35,52.88 94.49,86.4l-12.27 120.15 -112.14 -3.01 -54.5 90.17 -22.11 -11.15c81.86,-186.07 37.07,-79.3 133.8,-168.57 -123.43,-46.18 -139.84,25.21 -217.33,82.37l2.71 93.37 -13.09 195.85c51.05,22.22 86.2,85.18 202.32,86.02 14.89,0.13 28.89,0.46 42.33,-2 47.65,-8.67 24.49,-3.2 49.5,-22.9 156.59,-18.13 334.18,-158.52 255.16,-358.81l-95.88 -11.77c85.51,191.16 9.71,292.93 -194.89,355.19l-100.17 7.27c5.63,-7.5 12.73,-28.04 15.22,-22.54 2.15,4.82 10.88,-15.52 13.41,-18.97 2.57,-3.45 14.94,-20.39 19.94,-26.3 129.84,-8.29 328.93,-125.81 200.21,-273.78 0.2,-0.17 100.55,-10.42 28.07,-130.8 -37,-61.42 -62.56,-47.73 -103.95,-68.37 132.4,-68.57 140.82,192.78 342.2,46.48 -139.19,-112.31 -432.25,-196.28 -653.1,-162.14zm2085.32 -865.75c-136.43,186.9 -93.24,267.04 -460.24,687.09 -2.74,3.14 -7.71,9.94 -11.41,15.04 -121.6,75.37 -145.36,158.49 -442.12,267.84 -172.6,63.6 -414.7,107.58 -574.47,174.1 3.91,211.34 -16.15,376.38 -320.49,453.67 -275.35,39.16 -375.24,-107.37 -374.78,-349.65l25.94 -84.57c-172.42,-18.69 -265.49,-53.74 -208.89,-238.41 206.66,-136.66 21.63,-36.9 205.49,-109.45 36.24,-14.3 32.56,-15.62 51.58,-29.39 174.32,30.53 278.7,-14.84 453.45,61.47 137.98,60.25 219.41,93.3 311.92,184.57l322.5 -107.07c325.54,-40.07 646.71,-338.95 733.44,-570.71 85.11,-87.92 174.65,-281.39 225.22,-395.56 60.84,-31.6 28.83,31.6 43.26,-29.59l19.6 70.62z"/>
   <path class="fil13" d="M7082 2988.48c-127.18,7.25 -206.38,21.73 -280.5,93.73 57.03,4.54 122.84,6.97 180,1.39 123.14,-11.99 64.28,-9.43 100.5,-95.12zm-375.02 146.37c27.49,-194.73 326.07,-231.22 523.85,-200.36 -5.55,6.59 -11.99,14.25 -17.17,19.3 -188.62,184.21 -107.04,235.33 -506.68,181.06z"/>
   <path class="fil14" d="M7684.21 4800.81l50 54.75c-89.21,25.56 -69.99,20.62 -123.44,69.59 59.06,-2.08 214.71,-40.63 243.12,23.25 -184.85,-62.03 -408.85,59.98 -489.39,139.5 85.33,50.85 27.06,13.44 90,84.2l295.26 334.08c101.94,125.71 205.51,209.52 276.9,350.65 16.74,33.09 8.49,27.97 32.56,59.89l68.88 63.25c33.24,-173.43 -56.1,-248.9 115.99,-268.58 16.31,155.71 -45.98,173 -67.2,289.07 -17.8,97.31 52.31,171.71 95.55,236.98 210.69,318.04 382.07,588.04 458.63,984.71 22.49,116.5 54.75,592.17 -5.79,671.64l-19.6 -70.62c-14.43,61.19 17.58,-2.01 -43.26,29.59 13.44,-320.11 26.52,-496.31 -46.66,-790.04 -27.97,-112.22 -57.09,-187.06 -105.42,-296.02 -26.93,-60.77 -45.95,-84.32 -75.57,-134.82 -24.96,-42.5 -45.78,-92.84 -72.02,-136.28 -52.02,-86.07 -114.88,-156.49 -152.46,-241.85 -136.54,-310.27 -649.41,-933.33 -929.88,-1112.9 -404.64,-259.04 -357.26,-141.12 -569.19,-241.19 -271.17,-128.04 -454.9,-248.29 -775.21,-183.83 -66.37,13.37 -250.93,-25.94 -501.23,76.26l-0.26 142.31 -34.53 -196.76 465.16 -72.4c-4.31,-122.05 -51.78,-181.75 -45.7,-347.02 41.04,53 90.11,238.23 117.29,325.21 132.81,19.2 255.22,-0.71 387.47,16.59 119.16,15.59 223.92,47.57 351.35,66.16 -28.48,-263.08 -348.03,-723.5 -297.13,-828.29 103.21,84.22 300.45,565.26 344.91,690.18 99.13,278.5 195.42,230.82 561.81,434.31 222.17,-118.23 156.47,-122.59 425.91,-171.54l-26.85 -50.03z"/>
   <path class="fil14" d="M6358.82 8818.9c-56.6,184.67 36.47,219.72 208.89,238.41l-25.94 84.57c-6.22,-84.22 -45.63,-15.55 -136.46,-35.73 -86.22,-19.15 -69.08,-48.69 -94.44,-70.15 -76.03,-64.31 -315.8,-52.03 -667.08,-317.62l44.18 202.01c-55.06,-66.19 -19.68,-13.79 -63,-41.36l-38.42 -143.36 -128.67 -437.85c38.78,-19.1 24.5,43.72 31.6,-46.08 70.32,80.14 59.36,194.25 97.91,300.36 71.95,198.03 473.82,352.06 718.69,385.76 24.19,-141.78 19.47,-87.59 52.74,-118.96z"/>
   <path class="fil14" d="M6544.61 17857.03c-0.51,112.55 26.19,69.16 11.99,141.59 -0.66,3.27 -30.28,69.91 -39.26,100.85l-69.05 0 46.05 -94.26c-15.92,-61.02 5.71,-11.46 -41.79,-91.62 52.98,-179.9 -14.15,-164.36 -13.19,-344.87 1.12,-114.85 -86.39,-400.04 -60.93,-458.39 156.24,86.85 126.41,382.67 109.52,547.68 4.69,4.16 10.96,9.59 14.15,12.48 3.3,2.99 10.83,9.79 14.53,13.14 3.91,3.55 11.75,10.67 15.32,13.92 3.78,3.42 13.14,19.42 16.05,14.78 2.97,-4.74 10.86,10.27 19.45,15.98l-22.84 128.72z"/>
   <path class="fil15" d="M2319.45 4649.52l542.7 304.21c143.53,83.81 379.57,240.71 483.95,351.91 138.21,147.26 251.87,249.26 379.13,459.33 123.6,204 220.52,497.86 300.61,519.47 27.69,42.6 -43.62,30.17 50.92,35.12 46.89,-35.81 59.87,-56.15 97.25,-88.18 198.11,-169.8 191.52,-249.2 323.38,-285.54 -13.39,111.63 -185.52,285.39 -213.55,289.75 28.15,-13.61 53.69,-31.39 91.52,-59.87 74.21,-55.84 48.8,-59.32 152.49,-74.33 -43.92,89.55 -90.05,119.77 -174.17,171 -61.29,37.33 -182.66,65.88 -231.91,116.68 42.71,36.41 -47.57,15.77 50.34,30.68l427.76 -90.28c-20.67,111.48 -312.91,111.1 -410.62,120.59l54.17 91.62c59.72,-12.58 458.83,-179.47 371.29,33.75 -34.92,40.73 -41.8,30.06 -154.52,13.6 -93.09,-13.62 -57.51,-15.19 -153.02,5.02 -10.06,49.73 64.57,124.59 120.74,284 44.4,126.03 50.31,281.49 54.9,420.3 44.96,-70.52 11.14,-45.19 93.83,-89.18 -101,241.32 -141.83,222.32 26.93,467.62 99.03,143.92 368.6,559.48 379.18,709.2 -108.19,-118.32 -425.66,-758.85 -534.5,-817.46 -36.47,218.07 196.61,679.91 218.93,850.99 -96.27,-64.21 -249.24,-675.93 -283.52,-802.73l-29.37 22.95c-17.72,18.97 -14.45,13.85 -32.89,39.72l-158.39 236.32c-109.76,160.68 -355.77,436.54 -543.96,503.46l-335.15 57.89c-115.29,-5.25 -75.07,4.09 -85.16,-51.45 487.59,96.21 864.55,-435.04 1023.58,-704.89 155.12,-263.25 236.58,-271.37 178.07,-665.48 -16.35,-110.16 -68.39,-233.2 -116.14,-318.44 -43.9,-78.33 -134.23,-201.78 -184.49,-241.57 -38.55,-56.05 -3.8,-12.66 -46.15,-59.6 -4.67,-5.17 -19.89,-19.34 -24.68,-24.7l-89.14 -96.59c-6.52,-7.23 -30.91,-40.65 -31.98,-42.02 -9.63,-122.28 -96.29,-235.26 -143.07,-341.36 -68.19,1.77 -25.84,-2.89 -74.92,36.24 -15.92,-164.59 19.43,-143.89 -70.09,-260.9 -53.08,-69.38 -94.31,-116.55 -143.18,-181.3 -201.88,-267.51 -948.03,-741.38 -1182.58,-805.79l-192.15 -120.13c-361.35,-235.21 -431.39,15.07 -622.47,-68.87 132.45,-128.22 631.45,-106.03 799.53,-56.71l-229.22 16.11c50.23,63.12 187.63,124.54 269.79,159.84z"/>
   <path class="fil15" d="M8093.66 15951.96l-34.59 2.94c1.47,248.07 -82.83,528.47 -71.54,706.31 66.01,76.54 169.02,173.79 277.41,224.51 -37.99,-92.84 -89.88,-118.43 -125.25,-234.37 168.99,97.63 118.35,217.73 302.53,304.49l54.73 66.77 -2.97 76.08 -172.39 -97.58c-16.33,-14.61 -16,-15.5 -42.43,-34.47l-147.74 -107.83c-48.01,-41.79 -114.37,-112.41 -172.04,-149.82 -166.03,405.55 -212.94,642.2 -523.54,1073.16 -40.3,55.89 -74.64,89.26 -123.23,158.39l-113.53 158.93 -96.75 0c57.29,-134.15 282.18,-376.26 368.2,-510.36 118.3,-184.44 209.39,-359.87 297.39,-560.11 187.83,-427.38 300.84,-1019.22 235.66,-1531.73 5.68,6.31 13.75,7.1 16.46,19.45l248.37 301.95c69.76,67.08 39.74,26.53 122,59.72 110.7,44.66 33.66,26.71 90.33,99.84 45.78,59.07 171.21,51.59 247.49,339.26 -79.96,-15.77 -123.63,-38.77 -175.03,-70.45 -112.3,-69.15 -336.55,-189.61 -387.39,-354.27 -132.35,1.85 -17.12,-11.31 -72.15,59.19z"/>
   <path class="fil15" d="M2503.28 6286.67c130.07,52.11 115.82,90.48 354.12,132.12l156.04 40.4c-475.24,16.91 -531.61,-143.74 -711.48,-216.29 -62.41,-94.24 -353.08,-300.94 -393.63,-315.14 -141.81,-49.63 -485.08,48.26 -492.81,-153.91 89.21,24.14 14.25,49.05 303.4,91.55 458.22,67.35 268.81,55.33 784.36,421.27z"/>
   <path class="fil15" d="M2269.07 11482.75c-119.24,-53.28 -28.08,-29.59 -63.99,40.55l23.31 74.38 -9.03 -5.35 -94.94 -16.71c-70.53,-17.9 -20.62,1.22 -70.1,-31.8 101.41,17.29 24.2,10.83 46.36,-19.83 -83.28,-46.66 -67.74,-16.36 -93.83,-115.59 -29.77,-113.31 -29.8,-48.08 -81.56,-148.96 67.33,18.74 92.87,21.98 137.35,94.46l43.06 72.23c12.68,13.59 27.9,17.09 57.03,45.06 -95.37,-168.24 -3.01,-84.6 7.59,-98.65l98.75 110.21z"/>
   <path class="fil15" d="M6868.45 12690.82l-26.66 -11.64c-22.06,-62.51 -21.73,-72.35 -67.53,-119.31 -115.18,-168.29 -121.8,-128.3 -162.48,-203.74 150.31,9.26 283.22,254.46 342.96,378.92 -75.16,-15.24 -19.17,11.97 -86.29,-44.23z"/>
   <path class="fil16" d="M6755.01 789.01c27.04,-110.34 44.79,-112.62 76.61,-207.21l49.66 -1.17c10.77,99.54 -12.15,64.51 -24.3,169 -20.01,171.98 48.57,47.92 -36.82,174.8 -56.73,-30.79 -34.21,3.19 -62.76,-62.41 -14.97,-34.34 -2.69,-43.82 -2.39,-73.01z"/>
   <path class="fil17" d="M10582.55 17182.7l-23.58 93.17 -38.06 -12.85c-25.11,-130.88 -37.28,-256.61 75.34,-333.35l-13.7 253.03z"/>
   <path class="fil17" d="M7082 2988.48c-36.22,85.69 22.64,83.13 -100.5,95.12 -57.16,5.58 -122.97,3.15 -180,-1.39 74.12,-72 153.32,-86.48 280.5,-93.73z"/>
   <path class="fil18" d="M10081.28 15717.72c37.73,-157.79 15.31,-247.13 -73.52,-340.83l-94.29 -112.45c-252.32,-247 -953.79,-688.71 -1307.86,-727.58 -373.77,-41.03 -584.33,155.2 -685.59,200.95 169.12,243.95 248.45,156.62 461.19,360.38 142.82,136.79 287.78,261.53 442.16,394.49 140.5,120.99 322.22,251.16 524.26,306.67 212.16,58.25 577.18,29.82 733.65,-81.63zm-1916.49 -1548.75l-68.65 362.77 230.9 -41.09c-4.84,-89.69 -50.77,-156.01 -97.51,-237.01l-64.74 -84.67zm498.31 -5226.92c-16.07,233.35 90.84,113.56 164.61,554.78 159.84,955.85 -185.98,2235.41 -452.36,3140.18 -165.22,561.13 -111.38,725.51 -98.57,1320.29l-39.89 -115.06c-50.9,144.6 -132.76,377.35 128.24,473.43 -7.18,74.71 -9.81,70.78 35.53,139.43l349.3 49.12c19.91,14.33 12.45,18.97 57.84,36.65 24.4,9.48 53.13,11.84 76.87,16.73 122.79,9.87 195.7,93.83 313.49,112.72 73.06,95.41 195.45,150.28 296.55,221.32 101.19,71.08 225.22,176.55 314.18,209.74 11.01,23.59 -8.88,8.47 31.34,49.18 21.41,21.68 28.1,22.77 51.74,41.33 68.47,53.79 45.24,46.21 128.8,68.7 121.22,211.75 64.11,-55.08 149.9,328.86l19.8 56.17c1.78,4.03 7.03,10.25 10.76,15.24 30.15,91.09 33.67,19.17 154.33,138.16l41.24 35.1c41.26,124.18 120.33,245.55 164.6,385.56 23.18,73.34 43.52,149.09 59.02,221.11 21.22,98.65 55.43,126.04 68.24,206.07 14.3,202.29 -8.78,152.03 -32.49,197.8l-49.85 -44.48c-50.06,-93.02 8.01,-106.51 -43.01,-225.67 -185.53,3.4 -284.69,104.89 -325.62,265.97l-438.28 -191.54 -17.68 -62.28c181.5,22.47 219.03,154.87 409.58,163.95 98.55,-148.1 155.53,-235.31 369.92,-257.43 -12.38,-253.26 -193.01,-575.63 -393.17,-733.44 -193.85,45.37 -232.25,137.32 -628.38,130.6 -232.6,-3.96 -420.21,-99.44 -578.55,-207.24 -136.21,-92.74 -306.24,-250.4 -413.97,-355.05 -137.63,-133.72 -246.11,-293.62 -452.36,-347.38 65.76,154.42 281.82,323.03 338.45,464.26l-4.77 34.89c-44.3,-73.26 -181.42,-193.24 -245.05,-233.71 -53.99,-65.73 -9.53,-75.27 -135.34,-231.1 -59.98,-74.3 -111.03,-141.28 -193.37,-198.84 9.11,183.62 136.97,438.18 177.75,657.64l-17.73 27.19c-34.31,-27.24 -20.62,8.95 -41.18,-38.04l-39.77 -199.05c-23.05,-78.23 -47.98,-156.29 -74.17,-228.82 -175.29,-485.27 -37.03,-193.51 -480.31,-725.73 -303.45,-364.36 -1146.14,-1505.28 -1431.06,-1658.61 78.7,937.97 201.21,1088.4 197.93,2149.36 -0.73,235.62 -33.77,542.62 -24.87,755.71 -34.29,72.51 -89.42,532.83 -86.02,646.46 -73.8,-11.48 -45.07,0.82 -98.47,-41.89 -43.01,-75.37 -40.27,-60.53 -93.71,-69.59 -22.21,-31.36 -8.95,-18.99 -35.04,-45.72l-883.45 -814.52c-46.96,-53.81 -76.61,-104.27 -136.76,-164.7l-804.86 -683.39c-107.42,-88.1 -209.77,-218.83 -309.48,-294.73 -66.27,-50.44 -94.54,-34.87 -191.67,-110.74 -73.72,-57.57 -97.2,-96.11 -181.67,-137.09 -59.98,163.92 -226.03,391.82 -300.61,607.81 -82.22,238.05 -84.07,568.41 -15.7,818.8 80.97,296.51 637.33,823.4 1046.38,785.59 16.74,-41.03 29.37,-74.18 40.4,-114.81 23.45,-86.47 1.26,-64.1 61.26,-124.81 57.24,440.56 -597.64,1034.56 10.73,1874.61 138.03,190.6 334.24,336.06 378.72,412.37l-103.37 0c-64.56,-77.5 -155.4,-152.92 -228.76,-229.15 -86.78,-90.15 -127.66,-155.04 -195.8,-267.82 -169.66,-280.83 -191.87,-418.83 -180.1,-804.07 19.65,-117.79 34.76,-226.15 68.85,-338.62 29.46,-97.25 81.73,-210.05 98.92,-305.05 -290.84,-39.03 -542.76,-289.98 -638.93,-302.66 -48.56,-88.84 -128.97,-144.86 -197.8,-212.51 -40.98,-40.3 -169.02,-201.05 -184.87,-212.26l-21.28 -59.22 -23.05 -56.95c-52.8,-358.43 -67.63,-607.11 55.69,-919.79 50.31,-127.56 101.62,-238.66 165.57,-345.47 56.25,-93.9 167.22,-191.61 88.63,-332.28 -23.2,-55.87 -61.54,-92.59 -60.55,-144.6 1.64,-84.96 41.23,-39.46 53.78,-154.85 121.17,-127.02 127.69,-64.64 218.14,-397.71 -23.45,125.66 -19.27,20.57 58.96,64.16l54.88 -62.64c-221.26,533.74 -472.01,503.06 -246.62,695.84 53.31,45.6 72.43,85.71 114.04,117.72l263.89 177.29c312.02,268.98 626.58,587.37 961.93,852.25l365 308.62c46.77,57.36 4.52,25.41 38.42,78.77 30.05,47.32 31.65,35.2 68.17,58.2 36.9,88.73 277.71,291.63 390.35,388.83 116.46,100.53 346.29,324.02 454.5,375.35l21.25 -40.83c34.71,-113.41 -10.78,57.92 11.94,-43.44 107.02,-477.39 103.39,-1102.17 87.39,-1582.73 -8.04,-241.7 -111.02,-1417.29 -184.9,-1581.94 -8.64,82.51 -34,289.57 -80.16,357.89l57.92 -637.91c-63.75,-63.48 -169.78,-113.89 -183.34,-197.7l158.19 106.56c-105.65,-607.59 -76.38,-250.28 -46.16,-924.2 14.51,-322.88 82.37,-596.15 157.49,-886.74 81.6,-315.73 101.1,-613.47 51.6,-954.17 -63.88,-439.61 -240.89,-425 -373.87,-684.66 32.53,-33.17 -33.22,-32.81 39.99,-26.68 103.31,162.79 256.74,232.58 334.92,455.21 75.78,215.65 111.68,477.92 93.7,723.5 -19.93,321.89 -95.27,533.48 -163.51,834.35 -76.33,336.31 -82.04,607.38 -81.96,954.93 33.01,153.53 -6.37,220.37 131.86,266.86l71.47 24.29c2.84,-4.99 10.7,5.94 15.85,13.04l-138.82 -4.21c-62.31,25.51 12.32,-30.05 -25.31,25.08l1.17 153.9 5.3 90.26c63.55,79.07 251.84,184.61 293.84,272.84 14.76,79.5 81.32,180.61 131.94,233.03 75.5,78.18 16.87,42.27 96.34,47.04l785.46 955.74c69.25,82.72 197.7,276.87 293.35,328.23l-88.09 -157.13c-19.25,-162.83 -22.85,-40.4 59.46,-88.07l31.3 46.46c11.64,34.28 27.36,94.38 41.46,115.61 40.75,61.39 36.34,36.82 78.06,53.96 25.13,123.45 137.37,248.45 221.31,360.44 94.26,-38.75 21.86,-54.65 176.3,-76.59 -2.46,-344.89 124.26,-658.2 138.66,-1011.18 -12.63,-36.69 -55.87,-13.77 -34.49,-116.52 46.28,-222.25 34.01,-348.29 52.09,-575.94 39.64,97.48 -11.84,41.82 52.44,58.5 16.84,-98.77 44.56,-101 27.54,-192.45 52.27,-67.25 133.42,-437.65 159.26,-530.37 48.16,-172.64 96.82,-367.55 134.15,-538.73 75.83,-347.68 189.44,-800.06 202.12,-1151.65l-40.12 95.23c1.67,-434.15 171.43,-1248.98 -123.98,-1569.44 -90.99,63.68 -172.5,173.13 -311.14,209.85 55.21,-112.57 207.92,-182.84 259.66,-246.85 44.22,-54.7 29.18,-52.82 37.73,-101.01l35 -62.69c33.45,29.93 22.19,-51.37 31.49,72.23z"/>
   <path class="fil18" d="M5068.54 3656.67c14.63,91.42 69.81,182.03 100.55,269.34 27.94,79.33 62.91,164.13 95.5,254.05 63.48,175.14 115.79,364.16 135.4,557.58l34.53 196.76c-6.03,542.87 78.77,1354.3 -89.72,1865.26 -47.75,144.83 -34.94,181.17 -35.63,356.17 -0.83,215.15 1.91,499.79 93.48,673.93l86.83 421.98c-7.1,89.8 7.18,26.98 -31.6,46.08 -55.33,-348.44 -421.83,-625.72 -628.38,-1221.54 -87.08,-251.21 -107.65,-511.09 -136.76,-783.45 -42.48,-397.38 -124.09,-670.68 -135.12,-759.74 -11.56,-93.27 -14.78,14.4 5.84,-31.7 -117.16,276.49 -38.8,432.12 -277.79,581.77 38.14,-97.03 162.55,-152.79 190.42,-466.26l-96.26 59.98c40.27,-106.59 122.03,-159.72 126.77,-287.33 5.86,-157.66 -54.7,-187.98 -168.01,-251.41 -28.15,-4.69 -72.65,-10.75 -95.35,-23.38 -91.32,-50.74 -26.5,2.28 -57.54,-73.31 66.27,-105.17 519.13,-270.36 598.36,-280.35l288.08 -137.88c-327.57,-317.02 -89.93,-128.7 -485.99,-343.75 111.08,5.68 34.16,13.9 55.13,-34.89 141.69,52.26 237.9,115.28 328.79,205.94 102.4,102.15 123.42,160.02 271.22,228.62 -34.9,46.4 -29.04,-67.54 -34.21,74.38l-85.36 -33.28c-23.28,26.35 43.72,25.49 -62.84,17.53 -144.73,33.14 -676.64,236.7 -763.55,303.68l283.24 162.65 117.59 609.89c75.8,454.93 94.44,1387.11 432.48,1713.71 40.27,112.35 202.09,340.56 212.59,381l-47.91 -277.58c-1.92,-4.44 -6.74,-11.08 -10.17,-16.58 15.04,-369.74 -49.5,-687.75 41.42,-1074.38 107.06,-455.25 84.7,-1654.27 -57.85,-2132.93 -72.42,-243.29 -201.05,-618.82 -328.07,-794.1 -57.9,-140.19 -91.6,-153.58 -206.15,-237.21 13.47,64.54 21.96,72.63 54.04,117.97 52.55,74.23 57.47,57.19 17.65,79.25l-15.85 -18.69 -47.01 -61.09c-192.2,-206.48 -79.58,-162.99 -190.28,-508.71l78.54 -34.24c5.86,276.52 61.65,240.79 142.4,279.95l40.44 30.27c-109.57,11.97 -73.34,7.13 -111.91,38.2 65.23,60.35 57.59,32.76 121.12,69.56 156.75,90.76 167.52,241.52 246.9,288.28z"/>
   <path class="fil18" d="M5381.93 1755.33c202.62,-2.31 208.43,123.09 193.95,321.63l-141.96 34.59 -3.25 113.89 77.22 59.8c26.6,21.43 24.07,20.31 40.68,37.73 -1.53,0.71 -69.29,69.79 -147.04,-45.54 -41.26,-61.22 -36.19,-135.55 -25.92,-215.13l141.18 -33.19c18.01,-130.2 15.09,-172.45 -68.34,-221.09 -82.45,38.5 -56.86,64.95 -141.51,123.86 -5.22,-149.57 3.55,-235.46 95.02,-254.51l-20.03 77.96z"/>
   <path class="fil18" d="M7967.47 12445.17c5.81,-110.34 81.05,-217.36 133.59,-291.13 182.19,-255.85 42.45,-49.83 157.16,-257.24 1.19,205.03 -150.16,294.49 -213.25,499.09 79.83,-30.53 57.46,-6.31 95.43,-85.81l55.23 -93.3c21.2,154.59 -65.99,278.88 -228.16,228.39z"/>
   <path class="fil19" d="M5533.78 2430.6c100.83,-182.41 38.75,-323.79 48.89,-549.49 4.7,-104.51 1.58,-168.06 -57.64,-239.04 -44.68,-53.51 -73.72,-96.06 -169.58,-113 -188.82,234.55 -208.91,519.94 -50,797.71 60.58,105.9 75.87,107.65 228.33,103.82zm2039.73 -1024.5c75.88,50.85 604.85,101.82 730.96,100.5 -77.19,-50.77 -513.58,-175.81 -623.43,-187.53 -106.41,-87.24 -544.52,-99.41 -721.38,-100.04 -137.77,-0.51 -281.21,-1.25 -418.05,13.74 -97.53,10.65 -278.16,17.12 -355.53,73.57 257.27,11.06 465.44,-2.31 719.72,29.44 215.12,26.86 438.87,99.99 667.71,70.32zm-393.25 -372.98c-20.79,-177.31 -54.72,-333.4 -190.24,-359.34 -10.27,254.58 -81.13,365.68 190.24,359.34zm-1523.03 -755.38c-380.97,51.98 -497.25,122.1 -667.66,354.67 -203.74,278.07 -116.65,412.14 -197.04,784.4 28.02,23.76 -36.93,36.44 44.17,13.03l20.57 79.91c-40.09,31.92 -109.27,93.12 -133.97,120.73l98.77 669.24 44.61 -64.04c205.03,-327.33 137.98,-294.67 256.41,-307.6 31.04,-102.48 81.1,-393.51 182.28,-435.75 31.32,-13.09 20.97,-5.89 66.92,-28.74l10.88 -54.8 47.7 -20.87c139.94,23.81 263.54,-70.09 431.52,-97.05 142.42,-22.87 277.63,-52.85 433.97,-77.75 705.25,-112.34 537.34,-26.81 827.81,-37 193.42,-6.77 37.02,17.73 98.82,-38.14 -61.72,-113.08 -45.77,-30.84 -177.03,-66.52 -199.02,-54.09 67.71,-97 -356.15,-90.56l0.69 -39.05 52.9 -16.84 146.5 12.98c40.24,-64.43 28.86,-47.19 38.8,-149.21 6.03,-62.05 14.68,-111.63 18.94,-161.97 -32.89,-18.66 -40.32,-25.06 -66.36,-46.18l-107.63 -62.54c-81.86,71.11 -130.45,243.07 -124.23,374.92l-41.69 -0.74c4.28,-159.74 61.8,-279 102.3,-404.86 -27.6,-30.15 10.98,-4.95 -53.74,-48.87l-155.89 -95.73c-198.81,-142.57 -647.32,-104.76 -843.17,-65.07zm1715.16 1341.18c-42.35,44.35 -18.16,28.43 -87.24,51.25 -1.39,-2.54 -114.19,29.24 8.8,-113.71l-33.65 -11.89c-181.3,-145.95 -101.62,-139.91 -394.42,-157.49 -871.32,-52.29 -681.66,27.47 -1423.06,74.05 57.16,55.21 982.85,245.96 994.69,246.37 56.96,57.03 27.32,27.44 71.67,47.22 69.71,-1.95 31.98,-19.71 58.71,22.04l-112.9 31.54c-148.76,-82.59 -342.28,-74.63 -520.35,-102.35 -65.28,19.12 -23.41,-7.81 -62.39,36.14 -15.01,178.17 -129.08,462.86 -152.99,720.23l-52.11 36.11c-47.1,66.17 0.15,371.47 23.45,443.13 46.49,142.95 272.16,351.05 412.88,444.27 71.87,47.6 95.45,80.8 156.72,123.81 120.53,84.65 196.51,153.12 350.72,214.44 4.19,-5 9.74,-11.62 12.27,-15.24 2.41,-3.5 8.47,-10.78 11.32,-15.07l111.42 -162.47c67.94,-20.85 35.89,-39.41 126.4,-55.8 57.87,-121.57 -26.12,-68.06 133.72,-82.03 -53.61,200.26 -85.47,68.16 -203.16,207.41 35.35,107.88 40.58,45.27 57.26,144.75 135.9,7.66 111.53,42.25 247.76,22.95 44.13,-115.08 99.26,-266.07 90.54,-430.19 -87.44,-8.45 -251.87,-6.8 -294.73,69.46l-66.24 -28.1c5.86,-54.53 -24.06,-42.15 57.14,-74.31 65.2,-25.81 240.15,-24.37 314.02,-32.89 15.62,-143.38 10.22,-151.7 55.26,-270.1 30.96,-81.35 33.83,-186.37 61.52,-266.73 26.12,27.06 33.86,-43.67 32.46,96.14l-45.16 259.42c-22.95,122.26 -35.74,230.67 -46.72,360.06l7.56 41c-45.34,57.8 -47.65,172.83 -96.31,257.1 -70.2,121.62 -96.88,55.23 -222.99,107.04 -4.44,142.32 302.06,438.87 413.84,567.77 97.56,112.47 380.16,392.94 554.38,421.5 159.03,136.68 422.74,31.54 712.5,61.75 114.5,10.52 405.5,161.46 412.52,299.59 5.73,112.8 -6.9,45.45 -18.66,67.26 -75.9,-117.34 -10.05,-79.76 -134.79,-166.18 -248.39,-172.09 -369.76,-175.64 -731.9,-142.85 34.82,59.01 -24.75,39.91 82.12,63.02 108.26,23.43 161.49,-1.07 324.34,77.06 359.8,172.65 818.55,595.44 976.62,638.48 82.49,-241.38 34.69,-374.11 -93.78,-544.19 -372.83,-493.67 -615.32,-676.64 -1284.35,-827.83l-66.49 67.48 7.15 293.33c-50.75,-58.28 -56.07,-232.47 -46.05,-316.89 51.78,-179.14 153.55,-122.51 350.08,-153.55 -62.41,-168.95 -97.73,-117.39 -231.53,-229.93 -73.29,-61.65 -200.08,-154.42 -290.52,-192.38 -56.27,-73.14 -374.96,-215.18 -482.97,-261.28l17.88 -49.86c193.93,40.05 320.52,158.48 491.34,225.68 -51.28,-74.71 -200.74,-142.42 -207.59,-167.12 -2.31,-8.27 -8.45,-9.38 -12.68,-14.05 233.38,54.14 715.29,449.34 794.61,701.42 -49.07,95.3 -4.54,15.44 -64.69,86.85 335.86,73.77 656.22,308.65 830.34,499.4 399.44,437.63 399.49,470.6 341.06,938.35 141.76,66.59 200.13,161.21 302.51,253.77 153.27,138.62 233.86,171.81 301.57,257.22 90.46,114.09 374.33,542.26 410.09,729.24 48.08,102.98 -22.39,79.95 -28.55,85.25 -77.32,-228.81 -27.24,-49.65 -123.53,-178.07 27.72,-87.29 124.39,-51.25 -133.21,-433.77 -82.07,-121.85 -162.25,-181.95 -260.11,-277.64 -84.32,-82.41 -181.09,-160.22 -278.8,-232.19l-478.51 -311.03c-15.5,-9.41 -193.32,-179.24 -445.59,-345.8 -226.97,-149.85 -429.87,-261.4 -787.28,-264.09 -46.66,-63.55 -132.61,-117.19 -221.74,-133.8 -28.41,-63.88 -184.06,-25.33 -243.12,-23.25 53.45,-48.97 34.23,-44.03 123.44,-69.59l-50 -54.75 -155.28 -104.38 -602.51 -666.92c-13.24,133.44 -17.88,258.36 -91.88,327.26l10.47 -144.83c18.44,-124.08 49.58,-227.14 17.32,-350.29l-325.76 -88.71c-98.5,-104.6 -365.03,-143.83 -674.49,-469.65 -200.34,-210.91 -247.28,-448.58 -295.43,-825.32 -141.03,-35.4 -174.91,79.91 -305.23,-131.03 -58.45,-94.57 -79.45,-236.3 -138.46,-325.03 -67.48,56.8 -180.08,250.22 -249.97,353.2 -46.2,68.04 -18.69,60.51 -113.84,72.73 -4.26,86.58 -25.58,213.02 -77.8,263.92 -23.08,-55.64 44.1,36.36 -26.83,-40.5 -47.85,-51.86 5.88,-9.77 -44.89,-34.06l64.62 -105.11c-158.04,-45.37 -307.56,5.73 -415.89,89.39l-50.8 41.23c-156.47,90.61 -171.68,233.76 -336.19,454.97 -296.9,399.21 -306.34,639.57 -218.72,1072.45 361.37,-73.84 115.28,-104.78 679.73,-58.73l308.9 113.18c-20.97,48.79 55.95,40.57 -55.13,34.89 -119.72,-25.41 -228.41,-68.92 -359.19,-85.94 -113.58,-14.76 -294.42,-35.96 -393.32,14.81l-151.83 -5.83c4.82,2.81 11.69,5.93 15.14,7.28 3.53,1.36 11.64,4.99 16.05,6.64l86.91 33.78c-128.32,21.98 -96.95,40.37 -191.01,-22.09 -76.15,-261.56 -89.16,-319.76 -94.46,-629.95 -99.38,17.17 -275.15,124.56 -389.98,166.91 -394.49,145.54 -1307.4,100.3 -1866.85,921.56 -124.59,182.87 -298.81,612.31 -133.47,866.1l49.83 91.22c28.89,48.74 25.89,39.74 36.32,91.98 -61.73,-35.07 -87.27,-107.96 -130.55,-162.78 -31.83,-144.35 -72.23,-329.63 -35.35,-523.98 31.39,-165.52 140.66,-277.05 176.12,-397.51 81.93,-73.62 113.68,-155.86 290.61,-314.53 146.78,-131.62 368.12,-272.97 562.91,-344.38 270.58,-99.18 48,-114.88 669.15,-215.86 508.11,-82.59 575.28,-224.68 662.59,-253.24 299.78,-98.01 133.5,-38.82 398.68,-473.08 57.82,-94.69 200.03,-259.96 206.78,-371.94 24.07,-24.45 38.55,-41.39 72.02,-71.34 102.73,-137.12 19.35,-27.08 257.04,-143.94 112.29,-55.21 193.32,-73.52 340.83,-24.12 77.91,-141.53 12.12,-100.24 73.8,-328.35l-53.08 -69.1c-13.77,-91.04 -26.09,-167.4 -47.6,-259 -39.41,-167.8 20.14,-151.44 27.11,-250.07 92.39,-73.79 30.86,-93.42 64.31,-257.75l36.22 -283.97c28.17,-211.96 89.92,-295.04 185.22,-426.57 204.22,-281.92 385.11,-342.96 853.32,-360.77 407.9,-15.49 715.54,53.11 996.9,238.18l341.49 264.09c57.69,55.51 60.05,145.59 75.06,228.69 65,360.05 40.98,204.04 383.31,291.66 96.65,24.75 180.91,56.45 282.63,88.99 92.26,29.51 184.01,54.34 287.73,81.55 267.16,70.12 222.5,64.82 228.66,136.16 -280.09,64.05 -895,-103.72 -1082.13,-46.49l38.32 132.43z"/>
   <path class="fil19" d="M2309.54 8409.55l12.93 0.36c141.28,64.92 246.01,-5.91 397.54,9.23 41.41,64.51 14.45,47.77 60.63,113.86 -85.59,-35.96 -20.46,34.41 -71.97,-73.08l-110.03 8.03 -418.28 4.19c-22.44,-23.56 -365.58,-160.25 -428.8,-199.28 -334.06,-206.32 -418.2,-304.36 -689.42,-543.78 -59.78,-52.77 -102.66,-87.74 -159.87,-142.26 -58.6,-55.79 -92.23,-98.27 -150.18,-147.09 -44.05,57.75 -40.32,113.84 -59.72,188.52 -29.44,-36.94 -29.49,-3.47 -31.34,-72.5 -1.04,-38.92 36.39,-77.8 34,-185.2 -144.39,49.15 -168.64,294.4 -200.36,479.98 -76.79,449.22 50.95,313.75 202.42,484.41 -86.43,-3.85 -78.69,6.07 -147.29,-30.38 39.31,92.87 46.54,65.63 132.58,105.88 183.25,85.66 196.28,189.13 511.45,182.87 2.31,4.08 4.46,10.9 4.94,13.18l5.18 40.25c9.86,28.7 -9.49,16.38 34.64,40.65 77.17,42.43 363.73,93.9 450.99,101.23 200.03,16.77 544.49,77.81 709.38,-15.85 181.19,19.96 356.35,-88.22 513.4,-74.58l106.66 -19.52c-103.01,84.62 -127.43,66.67 -231.23,102.22l-431.61 76.1c-577.74,27.16 -797.46,50.65 -1240.59,-182.28 -65.17,-34.26 -139.29,-33.48 -213.09,-63.91 -132.48,-54.65 -229.58,-177.51 -355.34,-200.67 -13.74,340.1 37.76,523.9 -5.7,719.35 -43.16,194.05 -43.54,-84.6 -111.76,380.85l-24.88 -36.22c-44.73,-81.12 -4.79,-50.26 -71.21,-78.69 -143.48,213.78 4.09,335.05 249.56,554.28 14.33,12.81 38.32,28.46 51.05,38.8 64.72,52.5 20.24,-5.09 63.55,71.69 -77.39,35.35 -52.77,7.38 -127.96,-18.81 178.56,285.54 -161.26,669.74 980.62,1240.91 171.35,85.69 320.85,190.83 503.89,261.53 49.48,33.02 -0.43,13.9 70.1,31.8l94.94 16.71c-218.39,41.13 -321.4,-48.41 -505.26,-143.99 -143.25,-74.46 -317.14,-185.63 -473.64,-245.83l-304.56 -224.48 -38.7 -29.95c-61.85,-98.65 -102.58,-62.34 -222.66,-298.89l-54.72 -117.13c-2.33,-3.61 -8.22,-9.54 -12.17,-14.43 -2.72,-74.59 -36.5,-156.5 -49.45,-245.33 -66.95,-459.34 98.74,-118.2 -265.04,-521.03 -35.88,-39.72 -53.07,-73.85 -83.3,-105.27 9.41,-177.67 -4.49,-168.21 84.52,-320.19 58.51,-99.89 69.38,-157.71 133.85,-261.4 55.71,-89.67 80.54,-630.64 42.32,-692.97 -6.84,-296.63 -158.82,68.77 -15.8,-673.57 75.75,-393.07 175.42,-322.12 275.84,-470.07l82.11 -281.94c1.62,-67.41 -54.39,-219.59 -60.25,-300.46 -13.21,-182.56 34.26,-658.91 101,-650.54l13.65 2.53c1.29,0.08 9.28,0.38 10.5,0.41 59.19,1.82 125.93,-182.26 209.92,-207.62 110.39,-33.32 69.59,-2.13 80.77,18.21 -99.86,86.22 -213.93,135.93 -276.01,231.4 -71.41,109.86 -98.34,544.88 -80.72,699.42 15.83,138.74 62.59,70.87 52.37,202.59 -31.52,406.49 -208.41,342 -12.45,509.95 421.39,361.2 842.51,863.21 1458.06,957.8z"/>
   <path class="fil19" d="M8468.77 15845.81c35.08,58.07 16.59,49.6 76.03,88.3 44.81,29.16 58.18,30.66 103.39,50.79 31.73,58.46 34.79,40.78 93.88,78.62 30.15,19.3 27.54,21.78 54.93,38.09 42.35,25.23 -2.89,1.67 58.81,27.39 84.95,123.45 271.57,199.12 436.81,265.36 96.22,38.57 436.19,151.67 489.11,192.3l17.68 62.28c-111.28,-38.39 -239.68,-65.35 -325.31,-103.47l-547.69 -246.49c-96.8,-58.4 -128.65,-100.55 -217.94,-166.23 88.86,97.53 57.01,132.2 115.36,200.97 31.12,36.67 41.84,16.61 162.45,157.64l532.47 443.2c334.22,217.79 265.24,262.07 636.96,222.76 30.02,180.48 -24.22,319.73 105.34,436.99 180.13,24.32 203.91,-10.55 251.46,-147.59l-115.18 -13.21c-55.28,-228.72 -147.92,-636.45 189.1,-658.31 -45.34,60.21 -2.3,60.69 -67.63,77.91 -83.33,37.2 -91.95,76.48 -102.05,199.8 -9.58,116.86 -3.67,188.5 14.51,303.05l63.07 33.73c48.54,-54.65 2.74,5.93 37.71,-59.72 7.28,-13.65 21.55,-45.14 26.93,-54.1l23.58 -93.17c3.99,-6.16 9.51,-12.9 12.2,-18.31l36.98 -132.04c-0.97,-61.98 -25.03,-107.09 -45.07,-164.2 67,48.08 67.38,-49.43 62.59,96.84l-25.39 356.2c-51.12,145.69 -53,232.42 -158.06,379.25 -69,96.42 -164.4,232.57 -321.1,259.05 -247.69,41.89 -992.08,-106.18 -1012.02,-105.65l-31.24 245.63 -57.54 0 31.39 -277.99c-82.34,-58.17 -138.64,-74.71 -202.62,-124.21 -168.08,-130.02 -371.23,-448.58 -378.69,-598.58l2.97 -76.08c116.85,172.65 127.05,546.24 555.14,725.15l34.36 -33.96c36.49,-26.27 -21.91,-1.29 35.38,-18.08l23.99 98.32c231.78,59.93 857.93,200.04 1066.28,80.39 -81.63,0.86 -139.8,9.51 -195.87,-30.53 158.75,-60.86 302,3.02 374.46,-173.23 -108.39,-4.08 -164,-26.2 -231.51,-64.59 -0.28,-62.41 -46.48,-240.84 -55.26,-369.94 -236.6,41.89 -467.52,-113.34 -618.18,-219.54 -150.46,-106.03 -355.36,-263.53 -454.75,-370.35l-56.5 -73.87c-20.08,-20.77 -24.62,-24.42 -45.29,-46.51 -56.07,-59.87 -33.37,-49.15 -125.53,-70.75 -13.26,-67.48 -121.6,-63.78 -196.89,-89.83 -74.71,-25.79 -132.63,-66.94 -200.62,-107.06 -187,-110.34 -199.25,-116.86 -312.5,-306.27 55.03,-70.5 -60.2,-57.34 72.15,-59.19 50.84,164.66 275.09,285.12 387.39,354.27 51.4,31.68 95.07,54.68 175.03,70.45 -76.28,-287.67 -201.71,-280.19 -247.49,-339.26 -56.67,-73.13 20.37,-55.18 -90.33,-99.84 -82.26,-33.19 -52.24,7.36 -122,-59.72l-248.37 -301.95c-2.71,-12.35 -10.78,-13.14 -16.46,-19.45l11.16 3.73 17.73 -27.19c22.74,11.72 54.52,59.87 105.62,100.09 58.35,45.93 58.12,52.14 102.35,107.2 40.57,50.54 158.67,157.07 228.33,164.71z"/>
   <path class="fil19" d="M4939.26 12675.23c49.29,-25.01 75.69,-41.69 124.94,-82.45 -53.3,-53.56 -75.49,-59.57 -128.98,-113.78 -132.5,-134.41 -48.66,-110.88 -34.64,-119.7 123.07,51.43 182.95,114.19 237.95,236.68 128.27,-11.08 214.46,-45.37 324.37,-5.48 59.77,233.51 118.28,222.4 190.35,678.87 81.38,515.53 16.2,811.76 25.61,875.26 1.37,9.18 7.03,13.49 8.8,17.24 60.43,128.17 40.4,784.49 26.07,813.81 -51.12,104.53 -256.33,27.03 -313.42,22.06 -91.9,-104.58 -391.87,-145.79 -504.9,-333.02 182.61,28.23 374.68,232.85 622.67,293.15 186.75,120.74 155.08,-133.89 154.06,-250.7 -1.47,-166.13 -2.05,-304.74 -24.82,-469.88l-81.28 186.8c-5.68,-269.73 127.91,-293.26 58.83,-989.76 -25.71,-259.42 -93.37,-686.55 -228.31,-832.9 -43.41,2.16 -68.19,3.86 -108.49,15.01 -88.25,24.4 -72.14,37 -80.92,48.39 -140.26,7 -201.88,88.83 -321.02,133.92 -94.19,35.66 -84.35,2.87 -155.23,10.12 -50.87,5.2 -100.04,39.16 -155.78,55.39 -221.46,64.56 -487,70.34 -725.28,129.63 -46.68,445.26 202.5,839.4 458.27,1134.1 83.05,95.68 190.93,130.83 261.56,259.65 -108.26,-47.29 -269.77,-207.28 -331.42,-283.49 -248.09,-306.72 -295.57,-250.9 -411.23,-799.3 -82.11,-389.34 -4.59,-386.17 -192,-417.67 -56.52,55.28 -51.2,64.34 -84.75,130.8l-54.88 62.64c-78.23,-43.59 -82.41,61.5 -58.96,-64.16l116.12 -214.56c-52.77,-82.98 -305.42,-259.05 -383.94,-322.85 -135.52,-110.11 -249.28,-232.75 -364.06,-306.5 -30.96,-45.92 -104.1,-108.13 -151.72,-154.56 -53.56,-52.19 -86.86,-87.82 -137.27,-141.94 -94.77,-101.72 -165.29,-188.8 -287.17,-278.37l-23.31 -74.38c35.91,-70.14 -55.25,-93.83 63.99,-40.55 57.33,48.06 63.75,80.27 123.12,145.24 643.79,704.02 576.64,572 1283.08,1180.04 223.97,192.79 151.8,94.62 377.37,54.96 183.43,-32.28 310.88,-2.28 489.46,-64.14 146.05,-50.59 242.92,-80.64 397.16,-123.62z"/>
   <path class="fil19" d="M3862.32 10595.45l86.93 172.3 85.21 145.84c4.74,56.24 -7.23,61.62 50.34,94.66 42.98,113.06 108.56,201.1 147.61,315.75l104 197.93c46.16,70.3 9.46,17.75 40.5,45.07l190.07 -282.15c87.49,-80.37 143.91,-170.92 166.79,-336.65 -0.05,-75.01 16.28,-269.42 -24.14,-302.13 -21.81,-527.68 -300.97,-787.61 -763.02,-976.13 19.07,275.05 28.05,576.21 -157.58,742.34l73.29 183.17zm-609.31 -1786.06c183.88,216.7 650.14,314.33 677.12,762.86 150.71,110.27 411.25,193.06 532.17,310.66 12.9,12.55 135.34,229.78 155.91,263.43 159.51,260.87 96.97,124.49 137.24,509.47 13.04,124.54 33.65,110.67 47.07,157.94 93.19,328.02 -414.81,706.43 -401.62,828.01l140.82 263.2c415.9,12.33 549.41,-255.55 617.17,-279.46 -41.84,194 -227.24,278.98 -473.63,316.71 -89.83,12.86 -94.52,25.21 -166.77,30.79l-178.25 -274.06c-22.49,-39.69 -17.98,-66.31 -41.66,-117.29 -61.45,-132.27 -146.94,-260.61 -207.85,-397.35 -44.66,-100.3 -247.61,-520.05 -320.21,-585.83 -74.81,-67.81 -96.34,-32.84 -160.75,-154.77 -52.19,-74.48 -66.52,-73.13 -87.37,-184.21 67.51,6.77 175.82,23.18 135.98,102.86 -0.63,-78.77 -8.9,23.1 -18.74,-59.11 -17.93,-149.57 -33.15,-54.91 41.77,-85.31l26.85 72.7c94.85,-92.81 95.61,-124.69 95.96,-300.15l73.72 -23.23 -13.36 -333.58c-7.08,-84.95 20.56,-131.48 -43.47,-173.12 0.18,-204.07 -602.23,-628.11 -777.19,-643.83 -48.16,-44.2 -54.04,-29.97 -114.88,-54.24 79.81,-3.07 107.86,2.86 183.53,8.65 128.8,9.83 54.07,-18.01 140.44,38.26z"/>
   <path class="fil20" d="M10494.33 17389.69l-63.07 -33.73c-18.18,-114.55 -24.09,-186.19 -14.51,-303.05 10.1,-123.32 18.72,-162.6 102.05,-199.8 11.87,26.12 16.13,-6.57 1.29,43.03 -68.11,227.86 -92.81,109.3 -25.76,493.55z"/>
   <path class="fil21" d="M2356.18 8856.99c-128.12,68.52 -394.98,41.34 -540.36,41.34 73.79,413.46 175.61,704.91 528.11,963.35 109.17,80.03 86.12,41.23 155.68,147.21 37.83,57.62 85.59,113.74 141.6,160.37l130.45 104.26c36.88,39.68 2.72,1.24 36.52,50.21 -299.14,23.13 -860.62,-42.66 -1075.21,-199.1 -117.49,-85.61 -38.17,-110.44 -219.41,-187.56 14.61,257.76 291.15,685.47 547.86,880.91l552.33 357.82c233.33,106.13 28.48,-72.98 296.12,214.14 409.94,439.78 651,621.63 1115.16,997.79 214.28,173.68 235.46,328.1 307.45,409.7 183.76,2.26 304.31,-74.38 460.38,-137.85 17.72,-7.2 51.78,-17.85 65.65,-24.98 74.28,-38.19 25.82,-13.06 54.78,-43.29 49.8,36.65 77.32,16.97 25.97,83.92 -154.24,42.98 -251.11,73.03 -397.16,123.62 -178.58,61.86 -306.03,31.86 -489.46,64.14 -225.57,39.66 -153.4,137.83 -377.37,-54.96 -706.44,-608.04 -639.29,-476.02 -1283.08,-1180.04 -59.37,-64.97 -65.79,-97.18 -123.12,-145.24l-98.75 -110.21c-10.6,14.05 -102.96,-69.59 -7.59,98.65 -29.13,-27.97 -44.35,-31.47 -57.03,-45.06l-43.06 -72.23c-44.48,-72.48 -70.02,-75.72 -137.35,-94.46 51.76,100.88 51.79,35.65 81.56,148.96 26.09,99.23 10.55,68.93 93.83,115.59 -22.16,30.66 55.05,37.12 -46.36,19.83 -183.04,-70.7 -332.54,-175.84 -503.89,-261.53 -1141.88,-571.17 -802.06,-955.37 -980.62,-1240.91 75.19,26.19 50.57,54.16 127.96,18.81 -43.31,-76.78 1.17,-19.19 -63.55,-71.69 -12.73,-10.34 -36.72,-25.99 -51.05,-38.8 -245.47,-219.23 -393.04,-340.5 -249.56,-554.28 66.42,28.43 26.48,-2.43 71.21,78.69l24.88 36.22c68.22,-465.45 68.6,-186.8 111.76,-380.85 43.46,-195.45 -8.04,-379.25 5.7,-719.35 125.76,23.16 222.86,146.02 355.34,200.67 73.8,30.43 147.92,29.65 213.09,63.91 443.13,232.93 662.85,209.44 1240.59,182.28z"/>
   <path class="fil21" d="M6541.77 9141.88c-0.46,242.28 99.43,388.81 374.78,349.65 9.13,132.18 57.64,100.33 133.34,70.1l110.9 -34.19c89.95,-30.07 187.53,-255.01 542.23,-280.27l348.03 7.89c46.79,18.49 23.01,12.91 46.46,38.37 -63.19,46.05 -188.39,46.02 -280.93,46.35 -210.61,236.94 -219.46,162.2 -340.55,282.03 -113.2,112.03 -38.55,139.98 -366.14,263.53 -209.09,78.84 -279.33,86.58 -521.29,115.87l-428.39 100.42c-76.79,49.22 66.09,-57.89 -25.61,22.11 -4.04,3.53 -10.66,10.76 -13.98,13.85 -3.6,3.37 -9.66,10.42 -14.71,15.42 17.98,-245.58 -17.92,-507.85 -93.7,-723.5 -78.18,-222.63 -231.61,-292.42 -334.92,-455.21 -73.21,-6.13 -7.46,-6.49 -39.99,26.68 -42.83,-26.68 -14.23,29.24 -53.79,-56.07 14.99,-35.6 17.52,-27.97 23.46,-35.98 14.3,-19.3 10.14,14.68 18,-29.9 43.32,27.57 7.94,-24.83 63,41.36l-44.18 -202.01c351.28,265.59 591.05,253.31 667.08,317.62 25.36,21.46 8.22,51 94.44,70.15 90.83,20.18 130.24,-48.49 136.46,35.73z"/>
   <path class="fil21" d="M6536.57 3772.94c-186.19,-32.05 -227.96,-11.08 -404.59,-67.86 -140.21,-45.04 -210.88,-93.5 -318.61,-167.39 -223.42,-153.28 -429.03,-418.36 -527.65,-462.2 -59.65,79.37 -71.8,172.31 -103.93,280.17 -19.07,63.98 -36.03,143.07 -83.38,193.51 -44.4,47.27 -15.44,17.02 -57.79,46.89l27.92 60.61c-79.38,-46.76 -90.15,-197.52 -246.9,-288.28 -63.53,-36.8 -55.89,-9.21 -121.12,-69.56 38.57,-31.07 2.34,-26.23 111.91,-38.2l-40.44 -30.27c-80.75,-39.16 -136.54,-3.43 -142.4,-279.95l51.76 -238.65c52.22,-50.9 73.54,-177.34 77.8,-263.92 95.15,-12.22 67.64,-4.69 113.84,-72.73 69.89,-102.98 182.49,-296.4 249.97,-353.2 59.01,88.73 80.01,230.46 138.46,325.03 130.32,210.94 164.2,95.63 305.23,131.03 48.15,376.74 95.09,614.41 295.43,825.32 309.46,325.82 575.99,365.05 674.49,469.65z"/>
   <path class="fil21" d="M7192.36 12842.52l213.88 719.5c19.12,60.23 57.67,103.49 77.02,154.41l161.82 602.79c-41.72,-17.14 -37.31,7.43 -78.06,-53.96 -14.1,-21.23 -29.82,-81.33 -41.46,-115.61 -54.6,-76.08 -237.49,-567.65 -281.87,-704.36l-184.26 -558.21c-16.74,-114.93 6.51,-161.46 -30.03,-226.79 -76.51,167.55 80.62,564.09 148.15,743.71 -4.46,-4.51 -11.31,-17.67 -13.11,-13.74l-77.42 -127.33c-57.54,-136.23 -196,-453.12 -218.57,-572.11 67.12,56.2 11.13,28.99 86.29,44.23 -59.74,-124.46 -192.65,-369.66 -342.96,-378.92 40.68,75.44 47.3,35.45 162.48,203.74 -195.62,-122.79 -311.26,-233.01 -578.32,-275.79 -95.02,-15.24 -136.36,12.18 -190.91,-2.74 -56.22,-15.34 -35.63,-14.09 -64.23,-39.07l138.82 4.21c-5.15,-7.1 -13.01,-18.03 -15.85,-13.04l-71.47 -24.29c-138.23,-46.49 -98.85,-113.33 -131.86,-266.86 115.63,21.66 257.22,-2.51 379.24,-4.29 173.31,-2.51 169.86,60.74 301.5,61.32 30.64,-38.31 72.15,-96.89 95.3,-145.61 20.24,-42.5 17.86,-63.8 36.67,-104.58l40.17 -57.04c1.9,-9 9.36,-9.18 13.85,-15.87l104.63 1.7c54.27,131.41 107.25,435.32 154.36,604.52l180.11 518.97c2.33,5.84 10.22,24.15 12.09,20.5 2.01,-3.86 9.11,13.92 14,20.61z"/>
   <path class="fil21" d="M6745.93 3531.3l-111.42 162.47c-2.85,4.29 -8.91,11.57 -11.32,15.07 -2.53,3.62 -8.08,10.24 -12.27,15.24 -154.21,-61.32 -230.19,-129.79 -350.72,-214.44 -61.27,-43.01 -84.85,-76.21 -156.72,-123.81 -140.72,-93.22 -366.39,-301.32 -412.88,-444.27 -23.3,-71.66 -70.55,-376.96 -23.45,-443.13l52.11 -36.11c23.91,-257.37 137.98,-542.06 152.99,-720.23 38.98,-43.95 -2.89,-17.02 62.39,-36.14 -40.12,316.97 -72.33,988.74 54.42,1239.97 200.31,397.11 473.66,469.25 693.32,612.41l63.55 -27.03z"/>
   <path class="fil21" d="M9734 8788.22c-86.85,92.86 -591,55.86 -727.61,15.11 -248.09,-73.97 -361.39,-165.32 -464.4,-346.03 -17.55,26.99 -42.43,12.4 -16.01,101.44 10.1,33.98 38.88,71.18 59.3,107.25 -108.7,-67.44 -196.67,-86.15 -331.65,-70.07 3.7,-5.1 8.67,-11.9 11.41,-15.04 367,-420.05 323.81,-500.19 460.24,-687.09l46.94 103.39c72.25,167.07 85.67,349.99 295.24,536.4 78.66,69.95 224.56,130.55 337.58,155.99 339.08,76.28 229.35,111.15 328.96,98.65z"/>
   <path class="fil21" d="M6615.89 8680.06c-19.02,13.77 -15.34,15.09 -51.58,29.39 -183.86,72.55 1.17,-27.21 -205.49,109.45 -33.27,31.37 -28.55,-22.82 -52.74,118.96 -244.87,-33.7 -646.74,-187.73 -718.69,-385.76 -38.55,-106.11 -27.59,-220.22 -97.91,-300.36l-86.83 -421.98c106.76,72.15 186.09,170.54 273.78,261.89 85.89,89.51 177.97,187.22 246.49,262.74 163.97,180.74 421.83,350.55 692.97,325.67z"/>
   <path class="fil21" d="M5401.96 1677.37c-91.47,19.05 -100.24,104.94 -95.02,254.51 84.65,-58.91 59.06,-85.36 141.51,-123.86 83.43,48.64 86.35,90.89 68.34,221.09l-141.18 33.19c-10.27,79.58 -15.34,153.91 25.92,215.13 77.75,115.33 145.51,46.25 147.04,45.54 -16.61,-17.42 -14.08,-16.3 -40.68,-37.73l-77.22 -59.8 3.25 -113.89 141.96 -34.59c14.48,-198.54 8.67,-323.94 -193.95,-321.63l20.03 -77.96zm131.82 753.23c-152.46,3.83 -167.75,2.08 -228.33,-103.82 -158.91,-277.77 -138.82,-563.16 50,-797.71 95.86,16.94 124.9,59.49 169.58,113 59.22,70.98 62.34,134.53 57.64,239.04 -10.14,225.7 51.94,367.08 -48.89,549.49z"/>
   <path class="fil21" d="M7528.93 4696.43c-248.67,-27.44 -416.7,-192.91 -727.69,-185.5 3.48,-155.86 -24.85,-175.69 43.77,-298.99l-10.47 144.83c74,-68.9 78.64,-193.82 91.88,-327.26l602.51 666.92z"/>
   <path class="fil21" d="M6881.28 580.63l-49.66 1.17c-31.82,94.59 -49.57,96.87 -76.61,207.21l-11.61 136 -52.9 16.84 -0.69 39.05c-85.74,-16.35 -64,-30.4 -82.08,-88.63l41.69 0.74c-6.22,-131.85 42.37,-303.81 124.23,-374.92l107.63 62.54z"/>
   <path class="fil22" d="M5843.11 16090.8c-270.58,-43.99 -496.71,-307 -741.6,-361.16 26.67,659.77 -7.97,1380.66 307.88,1945.77l312.13 424.06 -1200.16 0c-44.48,-76.31 -240.69,-221.77 -378.72,-412.37 -608.37,-840.05 46.51,-1434.05 -10.73,-1874.61 -60,60.71 -37.81,38.34 -61.26,124.81 -11.03,40.63 -23.66,73.78 -40.4,114.81 -409.05,37.81 -965.41,-489.08 -1046.38,-785.59 -68.37,-250.39 -66.52,-580.75 15.7,-818.8 74.58,-215.99 240.63,-443.89 300.61,-607.81 84.47,40.98 107.95,79.52 181.67,137.09 97.13,75.87 125.4,60.3 191.67,110.74 99.71,75.9 202.06,206.63 309.48,294.73l804.86 683.39c60.15,60.43 89.8,110.89 136.76,164.7l883.45 814.52c26.09,26.73 12.83,14.36 35.04,45.72z"/>
   <path class="fil22" d="M10081.28 15717.72c-156.47,111.45 -521.49,139.88 -733.65,81.63 -202.04,-55.51 -383.76,-185.68 -524.26,-306.67 -154.38,-132.96 -299.34,-257.7 -442.16,-394.49 -212.74,-203.76 -292.07,-116.43 -461.19,-360.38 101.26,-45.75 311.82,-241.98 685.59,-200.95 354.07,38.87 1055.54,480.58 1307.86,727.58l94.29 112.45c88.83,93.7 111.25,183.04 73.52,340.83z"/>
   <path class="fil22" d="M6544.61 17857.03l22.84 -128.72c-8.59,-5.71 -16.48,-20.72 -19.45,-15.98 -2.91,4.64 -12.27,-11.36 -16.05,-14.78 -3.57,-3.25 -11.41,-10.37 -15.32,-13.92 -3.7,-3.35 -11.23,-10.15 -14.53,-13.14 -3.19,-2.89 -9.46,-8.32 -14.15,-12.48 16.89,-165.01 46.72,-460.83 -109.52,-547.68 -25.46,58.35 62.05,343.54 60.93,458.39 -148.53,-7.73 -158.26,-485.04 -190.77,-678.74 -50.98,-303.98 -53.84,-429.59 -218.73,-639.11 -17.4,43.67 -65.15,109 -86.78,156.27 -36.79,-49.1 -18.94,22.85 -23.71,-48.06l17.45 -198.69c53.4,42.71 24.67,30.41 98.47,41.89 -3.4,-113.63 51.73,-573.95 86.02,-646.46l-4.87 127.23 110.95 81.81c31.95,21.33 64.21,43.16 98.72,66.04 418.35,277.25 382.14,247.78 330.84,666.06 -93.83,764.89 32.33,849.87 -29.27,1277.23 -100.9,63.27 -36.24,-41.06 -83.07,82.84z"/>
   <path class="fil22" d="M8321.59 17001.11c-93.12,5.32 -107.37,32.86 -160.83,76.02 -17.57,221.77 -11.72,329.45 -64.9,534.05 -56.95,219.1 -109.19,230.21 -121.62,488.29l-775.16 0 113.53 -158.93c48.59,-69.13 82.93,-102.5 123.23,-158.39 310.6,-430.96 357.51,-667.61 523.54,-1073.16 57.67,37.41 124.03,108.03 172.04,149.82l147.74 107.83c26.43,18.97 26.1,19.86 42.43,34.47z"/>
   <path class="fil22" d="M7703.76 8819.03c32,-105.83 -21.66,-11.67 67.38,-91.93 210.23,-189.51 312.98,-441.18 407.29,-479.59l-72.57 200.18c221.59,-4.03 102.42,-88.27 331.34,-199.37 -86.73,231.76 -407.9,530.64 -733.44,570.71z"/>
   <path class="fil23" d="M7532.3 16391.47c-6.67,302.89 19.66,478.83 -218.16,762.98 -66.27,79.15 -145.67,167.43 -249.26,236.02 -83.99,55.62 -245.43,117.62 -301.6,206.78 357.69,-96.49 708.64,-426.26 799.96,-758.39l19.6 -335.33c-11.13,-81.94 -24.06,-80.42 -50.54,-112.06zm-251.26 -1689.95c-0.43,-16.79 -96.49,-575.05 -158.65,-634.39 -50.87,90.17 42.48,489.74 158.65,634.39zm733.7 799.48l-11.16 -3.73c65.18,512.51 -47.83,1104.35 -235.66,1531.73 -88,200.24 -179.09,375.67 -297.39,560.11 -86.02,134.1 -310.91,376.21 -368.2,510.36l-584.99 0c8.98,-30.94 38.6,-97.58 39.26,-100.85 14.2,-72.43 -12.5,-29.04 -11.99,-141.59 46.83,-123.9 -17.83,-19.57 83.07,-82.84 61.6,-427.36 -64.56,-512.34 29.27,-1277.23 51.3,-418.28 87.51,-388.81 -330.84,-666.06 -34.51,-22.88 -66.77,-44.71 -98.72,-66.04l-110.95 -81.81 4.87 -127.23c-8.9,-213.09 24.14,-520.09 24.87,-755.71 3.28,-1060.96 -119.23,-1211.39 -197.93,-2149.36 284.92,153.33 1127.61,1294.25 1431.06,1658.61 443.28,532.22 305.02,240.46 480.31,725.73 26.19,72.53 51.12,150.59 74.17,228.82l39.77 199.05c20.56,46.99 6.87,10.8 41.18,38.04z"/>
   <path class="fil23" d="M5843.11 16090.8c53.44,9.06 50.7,-5.78 93.71,69.59l-17.45 198.69c4.77,70.91 -13.08,-1.04 23.71,48.06 21.63,-47.27 69.38,-112.6 86.78,-156.27 164.89,209.52 167.75,335.13 218.73,639.11 32.51,193.7 42.24,671.01 190.77,678.74 -0.96,180.51 66.17,164.97 13.19,344.87 47.5,80.16 25.87,30.6 41.79,91.62l-46.05 94.26 -726.77 0 -312.13 -424.06c-315.85,-565.11 -281.21,-1286 -307.88,-1945.77 244.89,54.16 471.02,317.17 741.6,361.16z"/>
   <path class="fil23" d="M8278.93 12765.48c17.02,91.45 -10.7,93.68 -27.54,192.45 -64.28,-16.68 -12.8,38.98 -52.44,-58.5 -18.08,227.65 -5.81,353.69 -52.09,575.94 -21.38,102.75 21.86,79.83 34.49,116.52 -14.4,352.98 -141.12,666.29 -138.66,1011.18 -154.44,21.94 -82.04,37.84 -176.3,76.59 -83.94,-111.99 -196.18,-236.99 -221.31,-360.44l-161.82 -602.79c-19.35,-50.92 -57.9,-94.18 -77.02,-154.41l-213.88 -719.5 27.67 -65.27c62.03,31.16 850.09,18.15 1023.78,35.17l17.04 -97.13 18.08 50.19z"/>
   <path class="fil23" d="M8493.98 17098.69c7.46,150 210.61,468.56 378.69,598.58 63.98,49.5 120.28,66.04 202.62,124.21l-31.39 277.99 -1069.66 0c12.43,-258.08 64.67,-269.19 121.62,-488.29 53.18,-204.6 47.33,-312.28 64.9,-534.05 53.46,-43.16 67.71,-70.7 160.83,-76.02l172.39 97.58z"/>
   <path class="fil23" d="M6841.79 12679.18l26.66 11.64c22.57,118.99 161.03,435.88 218.57,572.11l77.42 127.33c1.8,-3.93 8.65,9.23 13.11,13.74l213.73 592.5c-86.12,-53.79 -195.95,-224.45 -277.86,-325.03 -33.73,-41.41 -34.01,-44.18 -59.75,-79.55 -126.62,-173.87 -678.62,-731.52 -837.87,-807.57 -42,-88.23 -230.29,-193.77 -293.84,-272.84l-5.3 -90.26c108.26,41.74 60.89,104.84 148.76,129.59 -30.84,-63.2 -76.59,-103.52 -95.31,-203.69l245.36 86.15c217,56.42 428.6,141.71 626.32,245.88z"/>
   <path class="fil23" d="M8229.53 14253.64c46.74,81 92.67,147.32 97.51,237.01l-230.9 41.09 68.65 -362.77 64.74 84.67z"/>
   <path class="fil24" d="M3907.81 6272.39c-2.96,124.31 31.98,85.23 -15.34,160.17 170.49,54.85 15.19,-38.24 207.29,62.74 50.26,39.79 140.59,163.24 184.49,241.57 47.75,85.24 99.79,208.28 116.14,318.44 58.51,394.11 -22.95,402.23 -178.07,665.48 -159.03,269.85 -535.99,801.1 -1023.58,704.89l-144.78 10.68c-11.51,29.79 -1.06,-6.06 -0.1,20.31 1.04,29.47 12.78,-12.96 -0.07,21.99l-108.34 -8.37c-76.74,-17.6 -170.77,-86.22 -247.73,-123.81 -107.2,-52.34 -174.45,-95.07 -206.05,-165.14 -62.97,-106.79 -119.95,-181.01 -210.53,-275.73 -123.28,-128.9 -148.51,-258.69 -236.81,-203.56 -186.26,116.27 361.98,612.58 510.41,682.04 -81.38,47.57 -124.24,27.44 -232.27,25.82l-12.93 -0.36c-0.58,-7.73 -3.37,-42.68 -5.63,-48.74 -15.17,-40.78 -21.15,-47.09 -33.35,-66.36 -39.61,-32.44 -54.5,-60.51 -97.71,-95.46 -49.14,-39.71 -73.54,-36.62 -95.65,-90.48 -85.49,-145.23 -169.66,-209.82 -257.3,-367.96 -264.35,-476.91 -348.64,-504.88 -199.45,-878.58 36.95,-92.56 40.68,-129.61 89.09,-210.99 38.75,-65.15 66.08,-158.93 138.38,-185.55 92.59,99.61 669.24,643.01 774.28,653.46 -2.52,-5.71 -333.84,-298.97 -378.77,-337.87 -83.87,-72.52 -266.76,-287.8 -356.28,-345.59 3.4,-152.9 44.71,-120.44 108.29,-218.4 114.14,-4.39 236.42,-1.85 306.52,25.87 179.87,72.55 236.24,233.2 711.48,216.29l-156.04 -40.4c-238.3,-41.64 -224.05,-80.01 -354.12,-132.12 9.84,-62.51 -42.8,-109.73 -83.2,-191.87 -171.53,-348.87 -205.87,-251.36 -334.59,-500.49 -200.31,-387.72 118.07,-840.01 208.48,-875.03 234.55,64.41 980.7,538.28 1182.58,805.79 48.87,64.75 90.1,111.92 143.18,181.3 89.52,117.01 54.17,96.31 70.09,260.9 49.08,-39.13 6.73,-34.47 74.92,-36.24 46.78,106.1 133.44,219.08 143.07,341.36z"/>
   <path class="fil24" d="M5624.97 8879.03c-7.86,44.58 -3.7,10.6 -18,29.9 -5.94,8.01 -8.47,0.38 -23.46,35.98 39.56,85.31 10.96,29.39 53.79,56.07 132.98,259.66 309.99,245.05 373.87,684.66 49.5,340.7 30,638.44 -51.6,954.17 -75.12,290.59 -142.98,563.86 -157.49,886.74 -30.22,673.92 -59.49,316.61 46.16,924.2l-158.19 -106.56c13.56,83.81 119.59,134.22 183.34,197.7l-57.92 637.91c46.16,-68.32 71.52,-275.38 80.16,-357.89 73.88,164.65 176.86,1340.24 184.9,1581.94 16,480.56 19.63,1105.34 -87.39,1582.73 -22.72,101.36 22.77,-69.97 -11.94,43.44l-21.25 40.83c-108.21,-51.33 -338.04,-274.82 -454.5,-375.35 -112.64,-97.2 -353.45,-300.1 -390.35,-388.83 4,-86.05 73.87,-197.55 110.89,-287.55 102.43,-28.71 78.59,-37.41 174.32,-21.38 57.09,4.97 262.3,82.47 313.42,-22.06 14.33,-29.32 34.36,-685.64 -26.07,-813.81 -1.77,-3.75 -7.43,-8.06 -8.8,-17.24 -9.41,-63.5 55.77,-359.73 -25.61,-875.26 -72.07,-456.47 -130.58,-445.36 -190.35,-678.87 -66.39,-384.27 -588.92,-317.09 -635.07,-594.5 198.38,-66.67 256.94,2.56 390.76,-190.95 207.59,-300.26 526.08,-650.65 678.03,-1045.62 35.15,-91.35 33.15,-972.64 -1.9,-1100.88 -76.69,-280.68 -332.84,-445.97 -441.3,-691.8l133.13 -231.08 38.42 143.36z"/>
   <path class="fil24" d="M4788.34 3554.45l15.85 18.69c49.35,107.22 71.31,120.73 143.89,148.98 -17.27,-92.13 -18.97,-55.05 -45.29,-130.82 -15.22,39.2 -9,3.37 35.86,21.83 127.02,175.28 255.65,550.81 328.07,794.1 142.55,478.66 164.91,1677.68 57.85,2132.93 -90.92,386.63 -26.38,704.64 -41.42,1074.38l-16.83 56.06c-58.69,-69.81 -58.03,-96.18 -137.68,-142.9 -338.04,-326.6 -356.68,-1258.78 -432.48,-1713.71l-117.59 -609.89 -283.24 -162.65c86.91,-66.98 618.82,-270.54 763.55,-303.68 21.6,68.11 -2.18,28.63 48.61,63.93 24.07,16.74 35.43,14.15 61.98,21.4 31.52,-44.45 8.87,-21.1 65.68,-60.48l6.14 -83.48c-147.8,-68.6 -168.82,-126.47 -271.22,-228.62 -90.89,-90.66 -187.1,-153.68 -328.79,-205.94l-308.9 -113.18c-57.89,-97.13 -244.03,-162.86 -369.46,-181.29 23.89,-148.15 168.94,-318.87 280.3,-389.83 111.07,-70.78 381.3,-202.57 465.87,-4.72l79.25 -1.11z"/>
   <path class="fil24" d="M4784.06 4761.1c-79.23,9.99 -532.09,175.18 -598.36,280.35 31.04,75.59 -33.78,22.57 57.54,73.31 22.7,12.63 67.2,18.69 95.35,23.38 -34.21,152.99 -42.68,170.72 -41.13,345.02 1.65,184.56 -5.93,148.68 -72.63,287.01 -37.76,78.34 -184.16,493.47 -198.99,514.27 -80.09,-21.61 -177.01,-315.47 -300.61,-519.47 -127.26,-210.07 -240.92,-312.07 -379.13,-459.33 -104.38,-111.2 -340.42,-268.1 -483.95,-351.91l-542.7 -304.21c7.05,-69.69 42.56,-64.92 119.42,-105.07 270.61,-141.3 899.07,-449.95 1170.03,-316.33 94.06,62.46 62.69,44.07 191.01,22.09l-86.91 -33.78c-4.41,-1.65 -12.52,-5.28 -16.05,-6.64 -3.45,-1.35 -10.32,-4.47 -15.14,-7.28l151.83 5.83c292.26,0.18 361.85,77.78 553.95,196.97 102.58,63.65 381.68,214.31 396.47,355.79z"/>
   <path class="fil24" d="M9216.37 8890.57c51.02,30.96 87.18,12.88 135.62,54.34 -90.3,53.79 -181.8,74.94 -253.39,130.02l-30.69 -34.06c-3.27,-3.09 -14.91,-3.83 -17.59,-13.69 -2.97,-10.88 -13.37,-9.54 -19.99,-14.41 -25.38,55.01 -9.08,61.91 -23.1,116 -27.44,105.92 -30.99,5.02 -35.96,118.2l66.67 23.23c218.4,1001.62 -126.57,2108.71 -247.66,3093.28 -22.01,-33.9 -17.04,-31.42 -58.55,-50.36 -11.52,351.23 -16.46,520.53 -85.19,847.31 -54.7,260.08 -59.84,361.95 -76,617.24 -20.36,321.97 -118.17,-12.73 29.95,448.97 18.61,58.02 19.22,65.58 46.43,118.48 65.38,127.17 27.95,82.69 90.59,114.49 -22.32,-524.02 -212.74,-348.69 -29.14,-1353.05 16.64,-91.09 10.9,-106.43 62.94,-175.13 29.9,386.73 29.19,262.04 163.62,520.93 94.34,181.73 61.67,353.77 42.25,562.48l-120.91 381.65c-40.73,144.4 -11.06,91.3 -106.31,107.73l-349.3 -49.12c-45.34,-68.65 -42.71,-64.72 -35.53,-139.43l-49.42 -310.17c-18.85,-36.46 -19.71,-27.94 -38.93,-48.2 -12.81,-594.78 -66.65,-759.16 98.57,-1320.29 266.38,-904.77 612.2,-2184.33 452.36,-3140.18 -73.77,-441.22 -180.68,-321.43 -164.61,-554.78l116.1 -145.41c134.38,26.22 277.33,114.14 437.17,93.93z"/>
   <path class="fil24" d="M5518.08 14957.87l-109.95 -279.66c-56.71,-75.39 -117.85,-121.82 -199.68,-172.59 -460.58,-285.68 -273.28,-148.84 -615.6,-500.09 -63.55,-65.23 -143.03,-114.68 -146.55,-226.66 -6.29,-199.99 -25.9,-518.75 15.9,-707.83 151.16,-68.88 257.14,-100.5 406.94,-176.61 170.26,-86.5 185.12,-20.13 266.35,-143.86 69.84,-106.38 27.21,42.22 55.1,-69.05 2.72,-10.83 11.24,-10.93 16.56,-16.69 8.78,-11.39 -7.33,-23.99 80.92,-48.39 40.3,-11.15 65.08,-12.85 108.49,-15.01 134.94,146.35 202.6,573.48 228.31,832.9 69.08,696.5 -64.51,720.03 -58.83,989.76l81.28 -186.8c22.77,165.14 23.35,303.75 24.82,469.88 1.02,116.81 32.69,371.44 -154.06,250.7z"/>
   <path class="fil24" d="M6607.73 892.27c18.08,58.23 -3.66,72.28 82.08,88.63 423.86,-6.44 157.13,36.47 356.15,90.56 131.26,35.68 115.31,-46.56 177.03,66.52 -61.8,55.87 94.6,31.37 -98.82,38.14 -290.47,10.19 -122.56,-75.34 -827.81,37 -156.34,24.9 -291.55,54.88 -433.97,77.75 -167.98,26.96 -291.58,120.86 -431.52,97.05l-37.99 -18.03c6.55,-360.05 -156.08,-586.38 207.27,-1029.16l57.08 -62.99c195.85,-39.69 644.36,-77.5 843.17,65.07l155.89 95.73c64.72,43.92 26.14,18.72 53.74,48.87 -40.5,125.86 -98.02,245.12 -102.3,404.86z"/>
   <path class="fil24" d="M10159.18 17606.08l-6.19 6.87c-419.29,-7.94 -631.19,19.17 -888.31,-400.73 -78.26,-127.81 -96.49,-213.93 -176.96,-276.62l-105.67 -276.69c23.89,-26.99 -44.1,-40.12 48.94,-12.66 99.39,106.82 304.29,264.32 454.75,370.35 150.66,106.2 381.58,261.43 618.18,219.54 8.78,129.1 54.98,307.53 55.26,369.94z"/>
   <path class="fil24" d="M2598.64 8467.95c69.94,99.74 65.52,89.5 182.69,90.87 72.17,0.86 117.38,56.45 193.82,94.21l-62.79 45.16c-157.05,-13.64 -332.21,94.54 -513.4,74.58 -92.13,-18.94 -269.95,41.8 -585.96,5.96l3.91 -190.83c122.76,-51.73 159.25,-40.72 260.82,-131.71l102.63 15.95 418.28 -4.19z"/>
   <path class="fil24" d="M7681.04 1319.07l65.45 93.17 -172.98 -6.14c-228.84,29.67 -452.59,-43.46 -667.71,-70.32 -254.28,-31.75 -462.45,-18.38 -719.72,-29.44 77.37,-56.45 258,-62.92 355.53,-73.57 136.84,-14.99 280.28,-14.25 418.05,-13.74 176.86,0.63 614.97,12.8 721.38,100.04z"/>
   <path class="fil24" d="M7406.77 3578.64c108.01,46.1 426.7,188.14 482.97,261.28 35.38,66.74 -92.94,140.19 -139.6,158.42 -110.95,-103.77 -367.2,-330.31 -486.6,-397.46l10.02 -108.54 -7.56 -41c74.74,-3.48 15.75,-9.54 91.15,11.03 60.1,109.98 -51.48,-25.72 49.62,116.27z"/>
   <path class="fil25" d="M5053.14 12315.61c-52.49,-66.55 -178.42,-110.67 -294.9,-127.28 44.15,81.96 22.65,65.78 121.37,96.03 72.38,22.22 95.33,30.28 173.53,31.25zm404.74 -4017.79l128.67 437.85 -133.13 231.08c108.46,245.83 364.61,411.12 441.3,691.8 35.05,128.24 37.05,1009.53 1.9,1100.88 -151.95,394.97 -470.44,745.36 -678.03,1045.62 -133.82,193.51 -192.38,124.28 -390.76,190.95 46.15,277.41 568.68,210.23 635.07,594.5 -109.91,-39.89 -196.1,-5.6 -324.37,5.48 -55,-122.49 -114.88,-185.25 -237.95,-236.68 -19.37,-21.71 -10.83,-17.63 -39.94,-39.13 -7.02,-5.2 -34.41,-21.12 -44.1,-27.26 -41.16,-25.99 -55.33,-34.95 -98.27,-63.6 -64.03,-42.76 -131.66,-69.87 -157.55,-138.97 -15.52,-38.04 -13.19,-48.67 -42.35,-82.12l166.89 -66.01c246.39,-37.73 431.79,-122.71 473.63,-316.71 -67.76,23.91 -201.27,291.79 -617.17,279.46l-140.82 -263.2c-13.19,-121.58 494.81,-499.99 401.62,-828.01 -13.42,-47.27 -34.03,-33.4 -47.07,-157.94 -40.27,-384.98 22.27,-248.6 -137.24,-509.47 -20.57,-33.65 -143.01,-250.88 -155.91,-263.43 -120.92,-117.6 -381.46,-200.39 -532.17,-310.66 -26.98,-448.53 -493.24,-546.16 -677.12,-762.86l-34.64 -66.24c142.37,25.01 238.55,53.69 388.33,32.92 -90.46,-53.58 -268.51,-49.98 -384.1,-93.52l-277.15 -212.26 108.34 8.37c12.85,-34.95 1.11,7.48 0.07,-21.99 -0.96,-26.37 -11.41,9.48 0.1,-20.31l144.78 -10.68c10.09,55.54 -30.13,46.2 85.16,51.45l335.15 -57.89c188.19,-66.92 434.2,-342.78 543.96,-503.46l158.39 -236.32c18.44,-25.87 15.17,-20.75 32.89,-39.72l29.37 -22.95c34.28,126.8 187.25,738.52 283.52,802.73 -22.32,-171.08 -255.4,-632.92 -218.93,-850.99 108.84,58.61 426.31,699.14 534.5,817.46 -10.58,-149.72 -280.15,-565.28 -379.18,-709.2 -168.76,-245.3 -127.93,-226.3 -26.93,-467.62 -82.69,43.99 -48.87,18.66 -93.83,89.18 -4.59,-138.81 -10.5,-294.27 -54.9,-420.3 -56.17,-159.41 -130.8,-234.27 -120.74,-284 95.51,-20.21 59.93,-18.64 153.02,-5.02 112.72,16.46 119.6,27.13 154.52,-13.6 87.54,-213.22 -311.57,-46.33 -371.29,-33.75l-54.17 -91.62c97.71,-9.49 389.95,-9.11 410.62,-120.59l-427.76 90.28c-97.91,-14.91 -7.63,5.73 -50.34,-30.68 49.25,-50.8 170.62,-79.35 231.91,-116.68 84.12,-51.23 130.25,-81.45 174.17,-171 -103.69,15.01 -78.28,18.49 -152.49,74.33 -37.83,28.48 -63.37,46.26 -91.52,59.87 28.03,-4.36 200.16,-178.12 213.55,-289.75 -131.86,36.34 -125.27,115.74 -323.38,285.54 -37.38,32.03 -50.36,52.37 -97.25,88.18 -94.54,-4.95 -23.23,7.48 -50.92,-35.12 14.83,-20.8 161.23,-435.93 198.99,-514.27 66.7,-138.33 74.28,-102.45 72.63,-287.01 -1.55,-174.3 6.92,-192.03 41.13,-345.02 113.31,63.43 173.87,93.75 168.01,251.41 -4.74,127.61 -86.5,180.74 -126.77,287.33l96.26 -59.98c-27.87,313.47 -152.28,369.23 -190.42,466.26 238.99,-149.65 160.63,-305.28 277.79,-581.77 -20.62,46.1 -17.4,-61.57 -5.84,31.7 11.03,89.06 92.64,362.36 135.12,759.74 29.11,272.36 49.68,532.24 136.76,783.45 206.55,595.82 573.05,873.1 628.38,1221.54z"/>
   <path class="fil25" d="M3608.9 4228.12c-270.96,-133.62 -899.42,175.03 -1170.03,316.33 -76.86,40.15 -112.37,35.38 -119.42,105.07 -82.16,-35.3 -219.56,-96.72 -269.79,-159.84l229.22 -16.11c-168.08,-49.32 -667.08,-71.51 -799.53,56.71 191.08,83.94 261.12,-166.34 622.47,68.87l192.15 120.13c-90.41,35.02 -408.79,487.31 -208.48,875.03 128.72,249.13 163.06,151.62 334.59,500.49 40.4,82.14 93.04,129.36 83.2,191.87 -515.55,-365.94 -326.14,-353.92 -784.36,-421.27 -289.15,-42.5 -214.19,-67.41 -303.4,-91.55 7.73,202.17 351,104.28 492.81,153.91 40.55,14.2 331.22,220.9 393.63,315.14 -70.1,-27.72 -192.38,-30.26 -306.52,-25.87 -63.58,97.96 -104.89,65.5 -108.29,218.4 -55.86,-116.71 -155.53,-245.94 -246.39,-329.45l-279.33 -280.47c-33.6,-58.99 -5.68,-66.6 -35.23,-102.96 -38.9,-47.88 -48.13,-22.34 -98.97,-107.6l160.57 51.43c-64.56,-138.97 -126.41,-104.56 -263.66,-113.64 -165.34,-253.79 8.88,-683.23 133.47,-866.1 559.45,-821.26 1472.36,-776.02 1866.85,-921.56 114.83,-42.35 290.6,-149.74 389.98,-166.91 5.3,310.19 18.31,368.39 94.46,629.95z"/>
   <path class="fil25" d="M5518.08 14957.87c-247.99,-60.3 -440.06,-264.92 -622.67,-293.15 113.03,187.23 413,228.44 504.9,333.02 -95.73,-16.03 -71.89,-7.33 -174.32,21.38 -37.02,90 -106.89,201.5 -110.89,287.55 -36.52,-23 -38.12,-10.88 -68.17,-58.2 -33.9,-53.36 8.35,-21.41 -38.42,-78.77l-365 -308.62c-335.35,-264.88 -649.91,-583.27 -961.93,-852.25l-263.89 -177.29c-41.61,-32.01 -60.73,-72.12 -114.04,-117.72 -225.39,-192.78 25.36,-162.1 246.62,-695.84 33.55,-66.46 28.23,-75.52 84.75,-130.8 187.41,31.5 109.89,28.33 192,417.67 115.66,548.4 163.14,492.58 411.23,799.3 61.65,76.21 223.16,236.2 331.42,283.49 -70.63,-128.82 -178.51,-163.97 -261.56,-259.65 -255.77,-294.7 -504.95,-688.84 -458.27,-1134.1 238.28,-59.29 503.82,-65.07 725.28,-129.63 55.74,-16.23 104.91,-50.19 155.78,-55.39 70.88,-7.25 61.04,25.54 155.23,-10.12 119.14,-45.09 180.76,-126.92 321.02,-133.92 -5.32,5.76 -13.84,5.86 -16.56,16.69 -27.89,111.27 14.74,-37.33 -55.1,69.05 -81.23,123.73 -96.09,57.36 -266.35,143.86 -149.8,76.11 -255.78,107.73 -406.94,176.61 -41.8,189.08 -22.19,507.84 -15.9,707.83 3.52,111.98 83,161.43 146.55,226.66 342.32,351.25 155.02,214.41 615.6,500.09 81.83,50.77 142.97,97.2 199.68,172.59l109.95 279.66z"/>
   <path class="fil25" d="M1249.24 7553.8c-18.18,-98.34 -102.94,-182.89 -165.4,-288.49 -52.11,-88.05 -74.53,-191.31 -122.51,-292.11 -9.91,13.56 -29.46,10.52 -24.09,85.64 2.33,32.81 15.93,60.07 28.07,91.52 21.15,54.7 41.21,102.55 75.6,156.31 96.98,151.55 102.05,216.39 208.33,247.13zm598.68 -1088.37c-72.3,26.62 -99.63,120.4 -138.38,185.55 -48.41,81.38 -52.14,118.43 -89.09,210.99 -149.19,373.7 -64.9,401.67 199.45,878.58 87.64,158.14 171.81,222.73 257.3,367.96 -132.43,-56.65 -343.52,-196.97 -501.76,-197.3 245.63,116.2 318.03,163.37 522.65,316.82 68.55,51.4 104.15,66.97 134.74,149.14 54.49,-37.69 50.06,64.39 37.73,-82.72 12.2,19.27 18.18,25.58 33.35,66.36 2.26,6.06 5.05,41.01 5.63,48.74 -615.55,-94.59 -1036.67,-596.6 -1458.06,-957.8 -195.96,-167.95 -19.07,-103.46 12.45,-509.95 10.22,-131.72 -36.54,-63.85 -52.37,-202.59 -17.62,-154.54 9.31,-589.56 80.72,-699.42 62.08,-95.47 176.15,-145.18 276.01,-231.4 32.71,-18.39 20.75,10.83 32.61,-28.96 155.76,65.55 52.62,67.33 180.79,164.76 132.83,100.98 59.32,101.49 145.11,180.15l227.42 261.81c59.64,77.02 63.73,92.89 76.84,68.85 2.61,-4.79 11.38,6.75 16.86,10.43z"/>
   <path class="fil25" d="M8803.67 16455.12c15.47,129.53 191.29,495.85 308.7,571.24l-24.65 -90.76c80.47,62.69 98.7,148.81 176.96,276.62 257.12,419.9 469.02,392.79 888.31,400.73l6.19 -6.87c67.51,38.39 123.12,60.51 231.51,64.59 -72.46,176.25 -215.71,112.37 -374.46,173.23 56.07,40.04 114.24,31.39 195.87,30.53 -208.35,119.65 -834.5,-20.46 -1066.28,-80.39l-23.99 -98.32c-57.29,16.79 1.11,-8.19 -35.38,18.08l-34.36 33.96c-428.09,-178.91 -438.29,-552.5 -555.14,-725.15l-54.73 -66.77c-184.18,-86.76 -133.54,-206.86 -302.53,-304.49 35.37,115.94 87.26,141.53 125.25,234.37 -108.39,-50.72 -211.4,-147.97 -277.41,-224.51 -11.29,-177.84 73.01,-458.24 71.54,-706.31l34.59 -2.94c113.25,189.41 125.5,195.93 312.5,306.27 67.99,40.12 125.91,81.27 200.62,107.06 75.29,26.05 183.63,22.35 196.89,89.83z"/>
   <path class="fil25" d="M2180.36 8472.14l-102.63 -15.95c-101.57,90.99 -138.06,79.98 -260.82,131.71l-3.91 190.83c316.01,35.84 493.83,-24.9 585.96,-5.96 -164.89,93.66 -509.35,32.62 -709.38,15.85 -87.26,-7.33 -373.82,-58.8 -450.99,-101.23 -44.13,-24.27 -24.78,-11.95 -34.64,-40.65l-5.18 -40.25c-0.48,-2.28 -2.63,-9.1 -4.94,-13.18 -315.17,6.26 -328.2,-97.21 -511.45,-182.87 -86.04,-40.25 -93.27,-13.01 -132.58,-105.88 68.6,36.45 60.86,26.53 147.29,30.38 -151.47,-170.66 -279.21,-35.19 -202.42,-484.41 31.72,-185.58 55.97,-430.83 200.36,-479.98 2.39,107.4 -35.04,146.28 -34,185.2 1.85,69.03 1.9,35.56 31.34,72.5 19.4,-74.68 15.67,-130.77 59.72,-188.52 57.95,48.82 91.58,91.3 150.18,147.09 57.21,54.52 100.09,89.49 159.87,142.26 271.22,239.42 355.36,337.46 689.42,543.78 63.22,39.03 406.36,175.72 428.8,199.28z"/>
   <path class="fil25" d="M4609.63 2637.2c-100.37,70.52 -75.29,246.32 -58.58,347.45 110.7,345.72 -1.92,302.23 190.28,508.71l47.01 61.09 -79.25 1.11c-84.57,-197.85 -354.8,-66.06 -465.87,4.72 -111.36,70.96 -256.41,241.68 -280.3,389.83 125.43,18.43 311.57,84.16 369.46,181.29 -564.45,-46.05 -318.36,-15.11 -679.73,58.73 -87.62,-432.88 -78.18,-673.24 218.72,-1072.45 164.51,-221.21 179.72,-364.36 336.19,-454.97l50.8 -41.23c108.33,-83.66 257.85,-134.76 415.89,-89.39l-64.62 105.11z"/>
   <path class="fil25" d="M8634.98 4907.5c-58.38,-37.61 -53.2,-29.88 -140.14,-31.83l-447.31 28.53c-2.23,-108.23 -6.52,-109.68 56.15,-118.1l4.08 -53.43 -7.15 -293.33 66.49 -67.48c669.03,151.19 911.52,334.16 1284.35,827.83 128.47,170.08 176.27,302.81 93.78,544.19 -158.07,-43.04 -616.82,-465.83 -976.62,-638.48 -162.85,-78.13 -216.08,-53.63 -324.34,-77.06 -106.87,-23.11 -47.3,-4.01 -82.12,-63.02 362.14,-32.79 483.51,-29.24 731.9,142.85 124.74,86.42 58.89,48.84 134.79,166.18 11.76,-21.81 24.39,45.54 18.66,-67.26 -7.02,-138.13 -298.02,-289.07 -412.52,-299.59z"/>
   <path class="fil25" d="M7889.74 3839.92c90.44,37.96 217.23,130.73 290.52,192.38 133.8,112.54 169.12,60.98 231.53,229.93 -196.53,31.04 -298.3,-25.59 -350.08,153.55 -51.61,61.06 -24.17,59.44 -35.18,112.27 -42.93,205.89 -93.75,-103.52 -40.37,339.96l-63.68 -22.26c-174.22,-28.56 -456.82,-309.03 -554.38,-421.5 -111.78,-128.9 -418.28,-425.45 -413.84,-567.77 126.11,-51.81 152.79,14.58 222.99,-107.04 48.66,-84.27 50.97,-199.3 96.31,-257.1l-10.02 108.54c119.4,67.15 375.65,293.69 486.6,397.46 46.66,-18.23 174.98,-91.68 139.6,-158.42z"/>
   <path class="fil25" d="M5430.87 1387.92l-47.7 20.87 -546.47 21.05c-81.1,23.41 -16.15,10.73 -44.17,-13.03 80.39,-372.26 -6.7,-506.33 197.04,-784.4 170.41,-232.57 286.69,-302.69 667.66,-354.67l-57.08 62.99c-363.35,442.78 -200.72,669.11 -207.27,1029.16l37.99 18.03z"/>
   <path class="fil25" d="M4586.15 4279.47c396.06,215.05 158.42,26.73 485.99,343.75l-288.08 137.88c-14.79,-141.48 -293.89,-292.14 -396.47,-355.79 -192.1,-119.19 -261.69,-196.79 -553.95,-196.97 98.9,-50.77 279.74,-29.57 393.32,-14.81 130.78,17.02 239.47,60.53 359.19,85.94z"/>
   <path class="fil25" d="M2491.67 8181.34c-132,-46.81 -136.69,-125.78 -279.43,-174.52 41.2,68.55 120.35,133.8 179.34,182.1 73.34,60.08 138.86,56.51 163.16,195.17 -148.43,-69.46 -696.67,-565.77 -510.41,-682.04 88.3,-55.13 113.53,74.66 236.81,203.56 90.58,94.72 147.56,168.94 210.53,275.73z"/>
   <path class="fil25" d="M5283.15 7614.54c3.43,5.5 8.25,12.14 10.17,16.58l47.91 277.58c-10.5,-40.44 -172.32,-268.65 -212.59,-381 79.65,46.72 78.99,73.09 137.68,142.9l16.83 -56.06z"/>
   <path class="fil26" d="M8662.42 7852.76c-50.57,114.17 -140.11,307.64 -225.22,395.56 -228.92,111.1 -109.75,195.34 -331.34,199.37l72.57 -200.18c-94.31,38.41 -197.06,290.08 -407.29,479.59 -89.04,80.26 -35.38,-13.9 -67.38,91.93l-322.5 107.07c-92.51,-91.27 -173.94,-124.32 -311.92,-184.57 -174.75,-76.31 -279.13,-30.94 -453.45,-61.47 -271.14,24.88 -529,-144.93 -692.97,-325.67 -68.52,-75.52 -160.6,-173.23 -246.49,-262.74 -87.69,-91.35 -167.02,-189.74 -273.78,-261.89 -91.57,-174.14 -94.31,-458.78 -93.48,-673.93 0.69,-175 -12.12,-211.34 35.63,-356.17 168.49,-510.96 83.69,-1322.39 89.72,-1865.26l0.26 -142.31c250.3,-102.2 434.86,-62.89 501.23,-76.26 320.31,-64.46 504.04,55.79 775.21,183.83 211.93,100.07 164.55,-17.85 569.19,241.19 280.47,179.57 793.34,802.63 929.88,1112.9 37.58,85.36 100.44,155.78 152.46,241.85 26.24,43.44 47.06,93.78 72.02,136.28 29.62,50.5 48.64,74.05 75.57,134.82 48.33,108.96 77.45,183.8 105.42,296.02 73.18,293.73 60.1,469.93 46.66,790.04z"/>
   <path class="fil26" d="M8258.22 11896.8c-114.71,207.41 25.03,1.39 -157.16,257.24 -52.54,73.77 -127.78,180.79 -133.59,291.13 162.17,50.49 249.36,-73.8 228.16,-228.39l-55.23 93.3c-37.97,79.5 -15.6,55.28 -95.43,85.81 63.09,-204.6 214.44,-294.06 213.25,-499.09zm327.06 -3230.81l16.02 -1.37 -4.69 267.89c-8.55,48.19 6.49,46.31 -37.73,101.01 -51.74,64.01 -204.45,134.28 -259.66,246.85 138.64,-36.72 220.15,-146.17 311.14,-209.85 295.41,320.46 125.65,1135.29 123.98,1569.44l40.12 -95.23c-12.68,351.59 -126.29,803.97 -202.12,1151.65 -37.33,171.18 -85.99,366.09 -134.15,538.73 -25.84,92.72 -106.99,463.12 -159.26,530.37l-18.08 -50.19 -17.04 97.13c-173.69,-17.02 -961.75,-4.01 -1023.78,-35.17l-27.67 65.27c-4.89,-6.69 -11.99,-24.47 -14,-20.61 -1.87,3.65 -9.76,-14.66 -12.09,-20.5l-180.11 -518.97c-47.11,-169.2 -100.09,-473.11 -154.36,-604.52l-104.63 -1.7c-4.49,6.69 -11.95,6.87 -13.85,15.87l-40.17 57.04c-18.81,40.78 -16.43,62.08 -36.67,104.58 -23.15,48.72 -64.66,107.3 -95.3,145.61 -131.64,-0.58 -128.19,-63.83 -301.5,-61.32 -122.02,1.78 -263.61,25.95 -379.24,4.29 -0.08,-347.55 5.63,-618.62 81.96,-954.93 68.24,-300.87 143.58,-512.46 163.51,-834.35 5.05,-5 11.11,-12.05 14.71,-15.42 3.32,-3.09 9.94,-10.32 13.98,-13.85 91.7,-80 -51.18,27.11 25.61,-22.11l428.39 -100.42c241.96,-29.29 312.2,-37.03 521.29,-115.87 327.59,-123.55 252.94,-151.5 366.14,-263.53 121.09,-119.83 129.94,-45.09 340.55,-282.03 92.54,-0.33 217.74,-0.3 280.93,-46.35 -23.45,-25.46 0.33,-19.88 -46.46,-38.37l-348.03 -7.89c-354.7,25.26 -452.28,250.2 -542.23,280.27l-110.9 34.19c-75.7,30.23 -124.21,62.08 -133.34,-70.1 304.34,-77.29 324.4,-242.33 320.49,-453.67 159.77,-66.52 401.87,-110.5 574.47,-174.1 296.76,-109.35 320.52,-192.47 442.12,-267.84 134.98,-16.08 222.95,2.63 331.65,70.07z"/>
   <path class="fil26" d="M10582.66 7124.79l6.67 71.72c-22.32,18.29 -35.18,0.74 -21.21,120.08 23.13,197.65 35.76,185.48 10.07,431.54 -69.1,662.18 -160.14,425 -562.72,695.5 -81.38,54.68 -114.73,78.97 -158.4,143.54 -91.8,135.77 -34.03,155.15 -123.07,201.05 -99.61,12.5 10.12,-22.37 -328.96,-98.65 -113.02,-25.44 -258.92,-86.04 -337.58,-155.99 -209.57,-186.41 -222.99,-369.33 -295.24,-536.4l-46.94 -103.39c60.54,-79.47 28.28,-555.14 5.79,-671.64 -76.56,-396.67 -247.94,-666.67 -458.63,-984.71 -43.24,-65.27 -113.35,-139.67 -95.55,-236.98 21.22,-116.07 83.51,-133.36 67.2,-289.07 -172.09,19.68 -82.75,95.15 -115.99,268.58l-68.88 -63.25c-24.07,-31.92 -15.82,-26.8 -32.56,-59.89 -71.39,-141.13 -174.96,-224.94 -276.9,-350.65l-295.26 -334.08c-62.94,-70.76 -4.67,-33.35 -90,-84.2 80.54,-79.52 304.54,-201.53 489.39,-139.5 89.13,16.61 175.08,70.25 221.74,133.8 357.41,2.69 560.31,114.24 787.28,264.09 252.27,166.56 430.09,336.39 445.59,345.8l478.51 311.03c97.71,71.97 194.48,149.78 278.8,232.19 97.86,95.69 178.04,155.79 260.11,277.64 257.6,382.52 160.93,346.48 133.21,433.77 96.29,128.42 46.21,-50.74 123.53,178.07z"/>
   <path class="fil26" d="M3043.92 8816.72c174.96,15.72 777.37,439.76 777.19,643.83l15.8 66.56 -111.02 -50.36c15.74,66.21 -9.54,51.51 90.38,123.78l48.31 33.14 13.36 333.58 -73.72 23.23c-0.35,175.46 -1.11,207.34 -95.96,300.15l-26.85 -72.7c-53.82,-48.21 76,-51.89 -46.39,-33.58 -44.78,46.18 -74.58,68.4 -156.08,58.03 -82.83,-10.55 30.5,-17.25 -78.72,-19.4 -107.47,-2.16 -55.38,15.59 -72.17,26.65l166.79 40.93c-21.23,17.72 31.42,75.01 -214.95,-22.27 -223.75,-88.35 -168.82,-30.56 -184.57,-22.21 33.71,37.88 -19.42,0.73 54.45,48.76 161.24,104.86 298.51,24.86 460,148.86 64.41,121.93 85.94,86.96 160.75,154.77 72.6,65.78 275.55,485.53 320.21,585.83 60.91,136.74 146.4,265.08 207.85,397.35 23.68,50.98 19.17,77.6 41.66,117.29l178.25 274.06c72.25,-5.58 76.94,-17.93 166.77,-30.79l-166.89 66.01c29.16,33.45 26.83,44.08 42.35,82.12 -101.72,20.77 -31.75,-35.94 -73.19,37.76 99.76,102.55 132.65,136.53 250.52,201.96 230.9,128.17 67.13,82.32 175.24,261.25 -28.96,30.23 19.5,5.1 -54.78,43.29 -13.87,7.13 -47.93,17.78 -65.65,24.98 -156.07,63.47 -276.62,140.11 -460.38,137.85 -71.99,-81.6 -93.17,-236.02 -307.45,-409.7 -464.16,-376.16 -705.22,-558.01 -1115.16,-997.79 -267.64,-287.12 -62.79,-108.01 -296.12,-214.14l-552.33 -357.82c-256.71,-195.44 -533.25,-623.15 -547.86,-880.91 181.24,77.12 101.92,101.95 219.41,187.56 214.59,156.44 776.07,222.23 1075.21,199.1 -33.8,-48.97 0.36,-10.53 -36.52,-50.21l-130.45 -104.26c-56.01,-46.63 -103.77,-102.75 -141.6,-160.37 -69.56,-105.98 -46.51,-67.18 -155.68,-147.21 -352.5,-258.44 -454.32,-549.89 -528.11,-963.35 145.38,0 412.24,27.18 540.36,-41.34l431.61 -76.1 256.13 35.83z"/>
   <path class="fil26" d="M6536.57 3772.94l325.76 88.71c32.26,123.15 1.12,226.21 -17.32,350.29 -68.62,123.3 -40.29,143.13 -43.77,298.99 310.99,-7.41 479.02,158.06 727.69,185.5l155.28 104.38 26.85 50.03c-269.44,48.95 -203.74,53.31 -425.91,171.54 -366.39,-203.49 -462.68,-155.81 -561.81,-434.31 -44.46,-124.92 -241.7,-605.96 -344.91,-690.18 -50.9,104.79 268.65,565.21 297.13,828.29 -127.43,-18.59 -232.19,-50.57 -351.35,-66.16 -132.25,-17.3 -254.66,2.61 -387.47,-16.59 -27.18,-86.98 -76.25,-272.21 -117.29,-325.21 -6.08,165.27 41.39,224.97 45.7,347.02l-465.16 72.4c-19.61,-193.42 -71.92,-382.44 -135.4,-557.58 -32.59,-89.92 -67.56,-174.72 -95.5,-254.05 -30.74,-87.31 -85.92,-177.92 -100.55,-269.34l-27.92 -60.61c42.35,-29.87 13.39,0.38 57.79,-46.89 47.35,-50.44 64.31,-129.53 83.38,-193.51 32.13,-107.86 44.28,-200.8 103.93,-280.17 98.62,43.84 304.23,308.92 527.65,462.2 107.73,73.89 178.4,122.35 318.61,167.39 176.63,56.78 218.4,35.81 404.59,67.86z"/>
   <path class="fil26" d="M7230.83 2934.49c-197.78,-30.86 -496.36,5.63 -523.85,200.36 399.64,54.27 318.06,3.15 506.68,-181.06 5.18,-5.05 11.62,-12.71 17.17,-19.3zm-775.84 -1126.19c102.55,76.44 121.14,173.16 250.32,281.47 92.69,77.7 203.66,161.79 370.6,172.01l108.51 -183.15c34.69,-80.08 29.14,-113.07 54.22,-181.72 117.87,-3.53 125,98.6 201.53,243.55 103.75,196.48 143.51,194.96 181.93,275.43 -37.81,35.91 15.65,-7.81 -43.21,37.73 -14.81,11.47 -28.61,19.66 -41.82,29.04 -181.88,129.23 -137.73,73.16 -280.85,142.37 42.65,54.39 -90.87,35.58 70.01,45.54l-0.81 65.15c-27.69,80.36 -30.56,185.38 -61.52,266.73 -45.04,118.4 -39.64,126.72 -55.26,270.1 -73.87,8.52 -248.82,7.08 -314.02,32.89 -81.2,32.16 -51.28,19.78 -57.14,74.31 27.01,44.38 22.24,35.42 34.85,95.75 -90.51,16.39 -58.46,34.95 -126.4,55.8l-63.55 27.03c-219.66,-143.16 -493.01,-215.3 -693.32,-612.41 -126.75,-251.23 -94.54,-923 -54.42,-1239.97 178.07,27.72 371.59,19.76 520.35,102.35z"/>
   <path class="fil26" d="M6774.26 12559.87c45.8,46.96 45.47,56.8 67.53,119.31 -197.72,-104.17 -409.32,-189.46 -626.32,-245.88l-245.36 -86.15c18.72,100.17 64.47,140.49 95.31,203.69 -87.87,-24.75 -40.5,-87.85 -148.76,-129.59l-1.17 -153.9c37.63,-55.13 -37,0.43 25.31,-25.08 28.6,24.98 8.01,23.73 64.23,39.07 54.55,14.92 95.89,-12.5 190.91,2.74 267.06,42.78 382.7,153 578.32,275.79z"/>
   <path class="fil26" d="M7026.74 9074.37c128.72,147.97 -70.37,265.49 -200.21,273.78 -31.93,-14 -69.06,-35.02 -104.99,-54.72l14.07 -122.34 54.5 -90.17 112.14 3.01 62.41 -46c13.95,-8.39 8.09,-8.09 48.94,-12.81l13.14 49.25z"/>
   <path class="fil27" d="M9781.73 16586.66c-52.92,-40.63 -392.89,-153.73 -489.11,-192.3 -165.24,-66.24 -351.86,-141.91 -436.81,-265.36l-5.3 -94.01c88.3,40.19 143.71,125.91 198.77,186.31 53.23,58.41 6.31,24.83 69.07,46.21 -45.03,-113.71 -160.11,-268.58 -262.54,-333.45 -23,-76.33 -131.41,-184.01 -195.8,-254.2l-159.03 -187.23c-61.39,-58 -5.78,-11.24 -67.73,-47.7 -56.63,-141.23 -272.69,-309.84 -338.45,-464.26 206.25,53.76 314.73,213.66 452.36,347.38 107.73,104.65 277.76,262.31 413.97,355.05 158.34,107.8 345.95,203.28 578.55,207.24 396.13,6.72 434.53,-85.23 628.38,-130.6 200.16,157.81 380.79,480.18 393.17,733.44 -214.39,22.12 -271.37,109.33 -369.92,257.43 -190.55,-9.08 -228.08,-141.48 -409.58,-163.95z"/>
   <path class="fil28" d="M9799.41 16648.94l438.28 191.54c40.93,-161.08 140.09,-262.57 325.62,-265.97 51.02,119.16 -7.05,132.65 43.01,225.67l49.85 44.48c23.71,-45.77 46.79,4.49 32.49,-197.8 21.5,62.79 21.98,94.21 16.86,175.87 -1.06,16.66 -6.11,72.45 -10.88,86.32 -31.29,91.17 -12.6,24.65 -45.39,55.94 4.79,-146.27 4.41,-48.76 -62.59,-96.84 20.04,57.11 44.1,102.22 45.07,164.2l-36.98 132.04c-2.69,5.41 -8.21,12.15 -12.2,18.31l13.7 -253.03c-112.62,76.74 -100.45,202.47 -75.34,333.35l38.06 12.85c-5.38,8.96 -19.65,40.45 -26.93,54.1 -34.97,65.65 10.83,5.07 -37.71,59.72 -67.05,-384.25 -42.35,-265.69 25.76,-493.55 14.84,-49.6 10.58,-16.91 -1.29,-43.03 65.33,-17.22 22.29,-17.7 67.63,-77.91 -337.02,21.86 -244.38,429.59 -189.1,658.31l115.18 13.21c-47.55,137.04 -71.33,171.91 -251.46,147.59 -129.56,-117.26 -75.32,-256.51 -105.34,-436.99 -371.72,39.31 -302.74,-4.97 -636.96,-222.76l-532.47 -443.2c-120.61,-141.03 -131.33,-120.97 -162.45,-157.64 -58.35,-68.77 -26.5,-103.44 -115.36,-200.97 89.29,65.68 121.14,107.83 217.94,166.23l547.69 246.49c85.63,38.12 214.03,65.08 325.31,103.47z"/>
   <path class="fil29" d="M9112.4 9259.85c-2.74,34.26 -23.87,72.55 22.06,72.55l31.7 293.67 4.87 845c-48.59,82.95 -23.11,138.81 -57.21,288.23l-152.14 950.44 -72.12 464.72c-78.13,566.8 -120.33,330.93 -47.57,953 38.29,327.31 274.79,93.48 227.24,911.77l-43.67 203.36c-37.63,29.49 -47.06,-23.03 -31.49,37.07l-16.89 -264.82c19.42,-208.71 52.09,-380.75 -42.25,-562.48 -134.43,-258.89 -133.72,-134.2 -163.62,-520.93 -52.04,68.7 -46.3,84.04 -62.94,175.13 -183.6,1004.36 6.82,829.03 29.14,1353.05 -62.64,-31.8 -25.21,12.68 -90.59,-114.49 -27.21,-52.9 -27.82,-60.46 -46.43,-118.48 -148.12,-461.7 -50.31,-127 -29.95,-448.97 16.16,-255.29 21.3,-357.16 76,-617.24 68.73,-326.78 73.67,-496.08 85.19,-847.31 41.51,18.94 36.54,16.46 58.55,50.36 121.09,-984.57 466.06,-2091.66 247.66,-3093.28l-66.67 -23.23c4.97,-113.18 8.52,-12.28 35.96,-118.2 14.02,-54.09 -2.28,-60.99 23.1,-116l13.85 103.78c90.91,21.4 23.1,-15.09 31.39,60.38 7.38,67.27 -6.77,63.52 36.83,82.92z"/>
   <path class="fil30" d="M7525.56 14149.65l-31.3 -46.46c-82.31,47.67 -78.71,-74.76 -59.46,88.07 -4.57,-3.9 -11.47,-16.05 -13.32,-12.12l-699.43 -860.8c-78.39,-82.21 -158.25,-234.75 -277.97,-253.92 -79.47,-4.77 -20.84,31.14 -96.34,-47.04 -50.62,-52.42 -117.18,-153.53 -131.94,-233.03 159.25,76.05 711.25,633.7 837.87,807.57 25.74,35.37 26.02,38.14 59.75,79.55 81.91,100.58 191.74,271.24 277.86,325.03l-213.73 -592.5c-67.53,-179.62 -224.66,-576.16 -148.15,-743.71 36.54,65.33 13.29,111.86 30.03,226.79l184.26 558.21c44.38,136.71 227.27,628.28 281.87,704.36z"/>
   <path class="fil31" d="M8433.25 15444.93c61.95,36.46 6.34,-10.3 67.73,47.7l159.03 187.23c64.39,70.19 172.8,177.87 195.8,254.2 33.47,89.57 17.14,28.45 -12.96,42.58 -58.48,-72.25 -369.51,-410.62 -460.8,-472.32 36.03,96.54 101.56,166.74 143.05,243.35 48.66,89.85 78.84,151.47 123.09,237.23 -45.21,-20.13 -58.58,-21.63 -103.39,-50.79 -59.44,-38.7 -40.95,-30.23 -76.03,-88.3l29.98 -0.13c-36.34,-29.29 -5.86,6.52 -40.8,-58.93 -16.84,-31.6 -22.78,-40.93 -39.29,-80.77 -99.66,-240.31 -123.39,-181.35 -173.68,-281.14l-61.55 -178.73c63.63,40.47 200.75,160.45 245.05,233.71l4.77 -34.89z"/>
   <path class="fil32" d="M7434.8 14191.26l88.09 157.13c-95.65,-51.36 -224.1,-245.51 -293.35,-328.23l-785.46 -955.74c119.72,19.17 199.58,171.71 277.97,253.92l699.43 860.8c1.85,-3.93 8.75,8.22 13.32,12.12z"/>
   <path class="fil33" d="M7180.26 1033.12c-271.37,6.34 -200.51,-104.76 -190.24,-359.34 135.52,25.94 169.45,182.03 190.24,359.34z"/>
   <path class="fil34" d="M9475.85 8903.83c-64.77,80.72 -110.57,91.85 -191.14,130.17l-181.17 121.09 8.86 104.76c-43.6,-19.4 -29.45,-15.65 -36.83,-82.92 -8.29,-75.47 59.52,-38.98 -31.39,-60.38l-13.85 -103.78c6.62,4.87 17.02,3.53 19.99,14.41 2.68,9.86 14.32,10.6 17.59,13.69l30.69 34.06c71.59,-55.08 163.09,-76.23 253.39,-130.02 -48.44,-41.46 -84.6,-23.38 -135.62,-54.34 62.92,-3.76 133.39,-5.89 186.69,39.1l72.79 -25.84z"/>
   <path class="fil35" d="M6913.74 9424.08l-35.61 -15.39c204.6,-62.26 280.4,-164.03 194.89,-355.19l95.88 11.77c79.02,200.29 -98.57,340.68 -255.16,358.81z"/>
   <path class="fil36" d="M4938.65 3613.13c-44.86,-18.46 -51.08,17.37 -35.86,-21.83 26.32,75.77 28.02,38.69 45.29,130.82 -72.58,-28.25 -94.54,-41.76 -143.89,-148.98 39.82,-22.06 34.9,-5.02 -17.65,-79.25 -32.08,-45.34 -40.57,-53.43 -54.04,-117.97 114.55,83.63 148.25,97.02 206.15,237.21z"/>
  </g>
 </g>
</svg>
