<?xml version="1.0" encoding="UTF-8"?>
<!DOCTYPE svg PUBLIC "-//W3C//DTD SVG 1.1//EN" "http://www.w3.org/Graphics/SVG/1.1/DTD/svg11.dtd">
<!-- Creator: CorelDRAW 2017 -->
<svg xmlns="http://www.w3.org/2000/svg" xml:space="preserve" width="200mm" height="200mm" version="1.1" style="shape-rendering:geometricPrecision; text-rendering:geometricPrecision; image-rendering:optimizeQuality; fill-rule:evenodd; clip-rule:evenodd"
viewBox="0 0 20000 20000"
 xmlns:xlink="http://www.w3.org/1999/xlink">
 <defs>
  <style type="text/css">
   <![CDATA[
    .str0 {stroke:#FDCB73;stroke-width:7.62;stroke-miterlimit:22.9256}
    .fil0 {fill:none}
    .fil17 {fill:#FFF212}
    .fil3 {fill:#151761}
    .fil11 {fill:#162997}
    .fil18 {fill:#372846}
    .fil5 {fill:#544835}
    .fil1 {fill:#746A53}
    .fil6 {fill:#7894AA}
    .fil7 {fill:#912557}
    .fil2 {fill:#938A55}
    .fil21 {fill:#960737}
    .fil4 {fill:#A69A87}
    .fil12 {fill:#BB195A}
    .fil10 {fill:#C49A37}
    .fil20 {fill:#C95BB4}
    .fil15 {fill:#CBCBCB}
    .fil16 {fill:#D8D599}
    .fil13 {fill:#DAC65B}
    .fil19 {fill:#DBA2C9}
    .fil14 {fill:#F9D6BC}
    .fil9 {fill:#FDCB73}
    .fil8 {fill:#FDFCB3}
   ]]>
  </style>
 </defs>
 <g id="Capa_x0020_1">
  <metadata id="CorelCorpID_0Corel-Layer"/>
  <rect class="fil0" width="20000" height="20000"/>
  <path class="fil1" d="M7900.16 5702.59c40.62,22.63 -19.4,83.04 151.06,-3.57 101.16,-51.39 29.69,-47.31 159.62,-80.96 -152.05,-11.06 -214.54,-28.33 -310.68,84.53z"/>
  <path class="fil1" d="M7965.37 6149.1c-16.63,-9.87 -8.25,-24.8 -73.51,-33.56 -191.73,-25.74 -157.96,97.59 -157.96,117.29l231.47 -83.73z"/>
  <path class="fil2" d="M12214.03 15423.7c135.62,-15.4 212.79,-77.05 266.22,-187.1l-288.43 25.99 22.21 161.11z"/>
  <polygon class="fil2" points="11170.49,15047.72 11239.92,15055.59 11190.4,14961.48 "/>
  <path class="fil3" d="M8148.9 11854.77c-165.41,28.84 -762.94,526.7 -819.48,650.79l10.17 71.69 88.27 6.76c63.9,-76.74 -24.16,-34.16 103.25,-70.87 -109.76,30.29 -14.04,5.78 -44.67,-31.65l220.41 -144.56c136.26,-234.11 600.6,-362.54 788.8,-560.7 -75.6,-114.73 -213.22,35.27 -346.75,78.54z"/>
  <path class="fil3" d="M4289.45 15805.17l161.61 90.86c80.36,30.59 81.26,29.91 163.75,41.87l150.59 -133.67c57.35,-198.88 32.84,-50.16 -37.77,-110.27l-218.33 13.91c-53.39,54.12 -27.14,38.8 -103.84,71.35 -38.63,16.37 -74.75,17.27 -116.01,25.95z"/>
  <path class="fil4" d="M2708.18 9725.14l-202.41 65.17 104.35 72.28 -102.39 34.29c296.72,92.36 677.98,-10.68 985.39,-63.34 -122.78,-183.06 -134.69,-181.4 -354.8,-156.6 -140.9,15.87 -306.38,35.99 -430.14,48.2z"/>
  <path class="fil4" d="M13363.07 8042.75c-171.82,-4.55 -206.28,50.92 -383.72,1.7 -11.19,-3.06 -103.38,-29.31 -112.86,-32.46 -195.05,-65.34 -99.59,16.34 -98.27,-103.75 -430.91,-4.9 -587.08,-53.35 -988.28,-134.05 197.35,214.24 395.63,234.36 679.21,288.9 220.96,42.5 725.38,81.76 903.92,-20.34z"/>
  <path class="fil4" d="M9280.8 8770.17c-30.85,24.76 -92.79,-110.1 -12.13,55.98 552.23,224.41 1260.29,-185.22 1429.48,-651.35 -50.71,50.75 -80.7,90.78 -128.77,143.37 -275.59,301.1 -901.46,541.42 -1288.58,452z"/>
  <path class="fil4" d="M10224.71 9270.03c-112.23,39.1 -43.82,-24.63 -67.86,74.75 254.06,95.5 682.54,33.05 835.77,-190.29l-23.65 -77.98c-232.28,180.12 -448.73,264.18 -744.26,193.52z"/>
  <path class="fil4" d="M16003.62 11665.58c31.19,-214.32 -84.53,-291.15 -93.46,-578.69 -77.68,184.04 -88.91,439.63 93.46,578.69z"/>
  <path class="fil4" d="M16460.05 11718.68c-51.9,-115.42 -18.17,-25.02 -81.25,-84.45l-151.96 149.02c132.73,36.08 155.49,56.24 233.21,-64.57z"/>
  <path class="fil5" d="M7062.17 7045.32c18.34,36.38 5.87,-3.65 20.89,76.37 19.44,103.5 -9.23,205.68 170.21,227.64 203.18,24.84 230.36,-89.13 309.91,-206.2 59.82,260.18 -98.18,534.32 -387.51,445.79 -222.7,-68.11 -292.77,-386.96 -113.5,-543.6zm515.56 -10.72c-138.43,49.86 -155.27,354.12 -365.17,218.16 -108.74,-136.39 -36.72,-166.94 -13.19,-305.79 -423.63,31.22 -379.13,570.86 -93.12,705.29 386.61,181.7 704.82,-310 471.48,-617.66z"/>
  <path class="fil5" d="M16804.51 12494.29c240.66,44.07 294.77,23.95 525.73,-17.48 138.51,-63.56 197.3,-81.3 278.09,-217.65 -330.68,88.58 -140.43,170 -788.89,198.59l-14.93 36.54z"/>
  <path class="fil5" d="M1261.39 7727.01c-68.58,-140.9 -134.77,-319.36 -164.76,-475.91 -53.22,-278.01 13.74,-326.76 18.89,-556.4 -221.6,204.03 -71.86,834.7 145.87,1032.31z"/>
  <path class="fil5" d="M7126.88 13100.76l-120.01 -100.65c-15.02,145.62 -32.12,71.89 35.44,169.14l163.82 -11.35 12.43 -162.9 -91.68 105.76z"/>
  <path class="fil5" d="M7948.14 5592.45l332.59 -148.3c-57.09,-13.87 -78.06,-13.83 -171.99,11.44 -154.68,41.61 -107.25,29.61 -160.6,136.86z"/>
  <path class="fil5" d="M6894.82 14206.12l12.03 2.98 96.36 -2.86 19.95 5.15c-50.37,-135.96 23.23,-77.81 -115.54,-134.51l-12.8 129.24z"/>
  <path class="fil5" d="M7850.76 5542.33c-4.29,-190.2 -19.18,-164.89 -167.44,-242.1l167.44 242.1z"/>
  <path class="fil5" d="M7775.21 5650.73c-48.92,-132.86 -76.4,-149.62 -204.24,-192.71l204.24 192.71z"/>
  <path class="fil6" d="M11907.73 13201.46c225.98,159.4 495.99,103.5 765.07,32.29 250.31,-66.28 567.12,-154.17 555.25,-429.84 -89.85,-115.8 -192.59,-141.07 -330.8,-188.29 -29.27,278.18 -81.94,380.45 -326,476.25 -289.32,113.63 -353.6,106.06 -663.52,109.59z"/>
  <path class="fil6" d="M14023.87 10233.55c248.57,490.12 -118.6,708.83 -267.54,1074.6 149.66,-85.51 333.78,-317.36 439.24,-444.13 159.57,-191.82 286.26,-335.74 242.78,-603.33 -130.56,-62.15 -276.35,-71.89 -414.48,-27.14z"/>
  <path class="fil6" d="M13399.11 12282.99c219.21,-73.9 550.1,-259.55 530.06,-501.01 -98.4,-96.36 -325.78,-111.5 -448.04,-52.58l145.49 32.92c121.33,291.79 -131.54,335.31 -227.51,520.67z"/>
  <path class="fil6" d="M11404.64 13397.83l-10 -98.36 -432.99 -2.93c41.14,152.42 308.3,120.77 442.99,101.29z"/>
  <path class="fil6" d="M11707.28 14108.78c158.29,52.46 186.67,91.13 369.6,100.87l46.15 -83.47 -385 -88.4 -30.75 71z"/>
  <path class="fil6" d="M4927.27 4944.03l132.18 -91.59c-150.6,-85.04 -190.2,-184.59 -310.77,-293.83 24.3,93.08 37.4,126.13 92.02,208.15 75.64,113.67 76.32,69.17 86.57,177.27z"/>
  <path class="fil6" d="M5577.14 5052.68c60.32,145.2 114.86,192.59 277.96,137.67 32.67,-117.33 49.35,-58.11 -16.29,-160.26 -9.79,101.04 30.76,24.04 -37.14,98.49l-224.53 -75.9z"/>
  <path class="fil6" d="M10080.11 6358.2l35.01 115.92c169.7,8.51 181.69,-25.48 262.73,-131.28l-297.74 15.36z"/>
  <path class="fil6" d="M5473.76 5072.46c-28.88,113.89 55.6,3.11 -44.97,64.97l-166.72 -77.47c61.48,153.83 50.42,165.65 221.69,184.84 36.58,-119.84 58.79,-72.41 -10,-172.34z"/>
  <path class="fil6" d="M4204.32 13616.75l128.61 -194.08 -298.47 -37.86c49.6,40.93 70.23,57.69 112.01,104.31 100.74,112.44 53.17,12.38 57.85,127.63z"/>
  <path class="fil6" d="M16460.05 11718.68c86.83,-99.38 84.74,-121.25 96.99,-262.87 -114.22,-25.4 -115.37,-46.71 -192.75,21.95l85.81 -8.21 9.95 249.13z"/>
  <path class="fil6" d="M6652.41 13272.8c96.4,-45.69 68.67,-42.46 160.73,-70.15l124.47 59.94c-47.09,-106.01 -81.38,-116.14 -174.97,-183.1l-110.23 193.31z"/>
  <path class="fil6" d="M9763.85 6131.24c63.18,191.01 185.78,142.94 292.14,-25.27 -129.12,61.17 -132.31,62.19 -292.14,25.27z"/>
  <path class="fil6" d="M5194.94 5127.68c-72.83,91.85 13.62,48.8 -104.05,48.08 -9.7,-0.09 -78.19,-32.89 -89.42,-37.1 61.3,125.58 32.41,110.9 152.25,151.57 87.17,-91.33 85.85,-62.57 41.22,-162.55z"/>
  <path class="fil6" d="M11815.37 14230.54c-60.19,77.72 18,34.2 -154.76,23.95 55.34,131.75 22.37,103.42 184.07,94.18 21.32,-181.14 2.77,-61.34 -29.31,-118.13z"/>
  <path class="fil7" d="M7031.03 14400.96c210.2,-23.02 882.31,57 1149.13,70.23 396.11,19.57 792.68,23.36 1188.99,34.55 380.88,10.76 763.16,50.92 1151.3,61.89 406.02,11.49 834.03,12.47 1237.28,46.12 -56.5,-173.44 -948.25,-161.79 -1129.22,-156.04 -646.12,20.5 -1785.21,-36.12 -2450.39,-79.85l-901.07 -71.39c-177.35,-16.08 -200.8,-52.03 -246.02,94.49z"/>
  <path class="fil7" d="M6369.43 14281.46c-37.01,-160.6 -396.06,-140.05 -516.54,-162.21 -188.76,-34.76 -379.81,-66.58 -568.91,-102.19 -150.51,-28.33 -393.16,-74.32 -534.06,-113.24l-370.37 -158.04c-221.77,-48.16 -78.15,-36.76 -135.41,22.67 335.65,254.99 1664.35,467.96 2125.29,513.01z"/>
  <path class="fil7" d="M12331.61 10870.48c-45.43,-159.53 -349.69,-338.84 -512.79,-408.65 -173.4,-74.23 -544.7,-245.29 -687.39,-140.22 188.29,123.2 416.95,152.73 624.6,248.06 303.66,139.45 396.44,281.97 575.58,300.81z"/>
  <path class="fil7" d="M11918.28 11373.71c109.46,87.25 157.45,76.49 197.44,199.3 133.75,69.6 133.66,112.44 227,171.28l69.94 -279.54 -103.64 -21.28c25.4,138.01 52.67,76.2 48.2,147.41 -20.88,-112.52 -90.27,-121.33 -168.76,-170.29 -90.99,-56.75 -119.07,-80.24 -220.75,-115.97 0,85.93 25.06,71.17 -49.43,69.09z"/>
  <path class="fil7" d="M5455.94 15648.83c62.02,52.83 35.18,19.48 62.79,78.87 26.46,56.88 3.19,9.53 19.48,57.77l249 52.96 -208.71 -49.77c89.76,-271.07 199.73,-136.52 88.19,-352.29 -203.78,54.67 -68.96,22.17 -210.75,212.46z"/>
  <path class="fil7" d="M12331.61 10870.48c7.07,108.27 -38.79,36.89 56.84,107.97 50.2,-46.03 21.61,-7.1 39.35,-77.63 -62.03,-66.92 -2.38,-32 -96.19,-30.34z"/>
  <path class="fil8" d="M711.12 13922.62c-84.92,94.06 -114.01,63 -168.3,182.16 144.18,156.22 218.33,60.2 323.28,180.97 32.96,37.95 124.3,241.64 162.59,294.9 134,-123.84 111.97,-232.7 180.71,-317.44 84.11,-103.76 229.94,-62.67 333.49,-195.69 -57.31,-113.38 -145.2,-124.27 -244.02,-216.11l15.4 -340.29c-217.09,73.64 -133.2,140.6 -303.32,221.85 -103.46,-104.57 -139.83,-205.64 -280.39,-239.93l-19.44 429.58z"/>
  <path class="fil8" d="M1712.76 14710.32c120.3,71.6 118.86,-1.79 243.67,65.39 139.45,75.04 8.77,93.16 219.77,127.87l38.88 -199.3 224.07 -67 -198.03 -132.95 99.55 -213.81c-294.81,-12.17 -127.97,89.29 -456.9,0.51 -23.48,97.42 -17.06,191.52 -46.41,249.38 -38.59,75.93 -85.42,38.67 -124.6,169.91z"/>
  <path class="fil8" d="M1931.46 13690.9c96.1,79.89 128.01,51.39 195.65,123.62 62.88,67.13 37.18,98.49 130.56,189.23 129.71,-324.04 138.05,-164.94 328.08,-332.46 -104.61,-228.96 -145.2,49.39 -155.49,-368.03l-188.84 123.71 -184.29 -164.55c-37.52,127.11 -10.55,165.61 -34.89,259.55 -37.39,144.34 -52.83,40.28 -90.78,168.93z"/>
  <path class="fil8" d="M1524.17 3837.4c-126.77,5.49 -124.99,-13.19 -217.98,43.01 86.27,111.76 141.19,76.74 207.64,216.37 30.46,64.02 -13.91,35.09 41.22,121.88 237.81,-109.89 111.68,-124.61 407.21,-84.83 -59.98,-364.79 -87.63,100.1 -54.37,-469.53 -141.75,15.27 -110.05,55.09 -234.44,20.25 -85.43,-23.87 -55.18,-68.83 -170.81,-78.79l21.53 231.64z"/>
  <path class="fil8" d="M15205.5 5847.44l-206.45 -115.16c6.85,327.74 90.27,162.17 -51.35,404.53 119.33,88.57 97.8,18.93 209.13,91.38 62.16,40.41 75.26,90.91 153.54,153.62 79.59,-100.74 38.75,-134.14 90.95,-217.31 47.82,-76.15 104.1,-69.76 176.68,-160.85l-174.89 -99.29 -44.03 -220.02 -153.58 163.1z"/>
  <path class="fil8" d="M2576.94 3385.31l97.76 126.73 -92.61 137.97c172.97,52.7 120.61,-4.98 302.47,85.33 124.35,-171.74 -19.02,-101.8 210.07,-213.64 -79.26,-122.05 -45.86,-36.24 -137.32,-118.86 -57.39,-51.86 -45.23,-71.94 -108.78,-139.62 -154.51,112.27 -31.1,95.59 -271.59,122.09z"/>
  <g id="_2385150972400">
   <path class="fil9" d="M4996.32 16330.43c511.18,611.61 2208.58,787.1 2973.31,729.07l-177.49 -492.08c-723.88,-151.91 -1057.11,151.24 -1360.73,-245.46 -3.66,-4.81 -10.46,-15.53 -16.59,-22.59 -1081.96,165.23 -369.26,159.19 -1418.5,31.06z"/>
   <path class="fil9" d="M11610.79 16402.24c-200.79,78.7 -99.89,164.97 -368.32,168.08 -338.85,3.95 -1021.55,-379.9 -1267.14,-131.58 -74.28,124.3 -81.85,387.63 -97.38,549.25 654.76,82.87 1404.59,-93.76 1905.73,-504.88l-172.89 -80.87z"/>
  </g>
  <path class="fil10" d="M4090.06 9014.4c-27.06,-298.39 -32.38,-749.41 90.99,-1027.16l-179.27 3.74c-56.53,67.85 -53.47,91.29 -57.77,205.86 -3.87,103.29 -0.85,214.07 7.79,317.1 13.31,158.6 39.99,397.38 138.26,500.46z"/>
  <path class="fil10" d="M8161.79 8709.5l115.96 -139.66 -529.13 -170.68c41.52,94.7 36.97,121.21 156.47,184.04 108.65,57.13 153.36,40.58 256.7,126.3z"/>
  <path class="fil10" d="M10685.6 9565.4l-18.59 -114.23 -434.52 11.57 35.23 99.17c178.54,30.88 249.29,66.53 417.88,3.49z"/>
  <path class="fil10" d="M5395.87 7023.46c131.54,103.03 77.3,119.03 164.16,223.26 61.99,74.32 143.41,138.98 209.22,127.66 -82.87,-173.23 -148.55,-209.73 -219.17,-436.13l-154.21 85.21z"/>
  <path class="fil10" d="M10094.49 9014.23c132.3,-182.8 207.73,45.56 275.49,-322.47l-349.98 211.52 74.49 110.95z"/>
  <polygon class="fil10" points="12136.43,11124.97 12285.63,11242.59 12384.37,11081.62 12213.43,10922.68 "/>
  <path class="fil10" d="M4797.9 7447.77l-271.84 -298.52c-101.63,6.94 -8.04,-13.69 -45.81,68.62 80.53,155.79 130.13,224.75 317.65,229.9z"/>
  <path class="fil11" d="M11610.79 16402.24c232.36,-158 631.87,74.4 714.14,95.97 1.24,-148.73 -66.49,-296.3 -131.96,-427.46l-156.64 -238.31c-288.21,-3.75 -356.62,-150.73 -746.47,-59.56l-580.99 246.65c-326.38,159.83 -799.61,-188.16 -985.22,-235.68 -116.22,-29.73 -242.91,-17.14 -384.27,-46.41 -236.58,-48.92 -431.59,-4 -714.32,74.53 -277.5,77.05 -375.09,155.07 -699.34,134.43 -158.72,-10.08 -209.47,-57.21 -321.87,-7.53 -368.62,162.98 -11.18,61.65 -490.75,143.37 -69.6,11.87 -108.7,21.82 -195.57,21.99 -174.54,0.3 -204.71,-43.18 -379,-49.3l-8.34 327.48c262.99,105.42 924.6,68.41 1242.47,80.96 -3.36,-161.83 -37.82,-137.07 18.08,-299.88 235.59,-67.26 309.32,15.91 499.35,75.9 6.08,-8.55 11.7,-33.87 13.7,-28.38l55.56 -160.89c112.65,46.07 -13.1,-18.63 105.16,112.22l36.63 38.25c83.17,-95.59 130.86,-245.55 217.09,-287.54 303.49,-24.29 291.62,290.43 511.94,403.12 165.06,-120.26 397.34,-588.94 601.75,-262.01l93.97 239.98c3.79,8.72 8.94,22.2 15.57,32.12 346.97,-44.76 395.13,-81.17 743.33,26.33 285.33,88.06 436.94,166.97 735.46,124.05 46.33,-344.59 -225.09,-341.91 -33.91,-417.59 94.19,63.35 11.74,44.2 90.19,178.81 62.15,106.65 74.36,55.6 134.26,164.38z"/>
  <path class="fil11" d="M4765.4 15804.23c-68.96,203.73 -197.26,313.36 94.83,401.93 388.95,118.01 784.38,186.29 1186.48,76.79 186.03,-50.71 363.9,-44.71 497.1,-194.76l-276.4 -86.52c-116.09,-26.93 -142.13,-37.91 -271.07,-47.18l-50.03 -87.55 -161.49 10.08c-327.44,29.44 -265.97,-54.92 -508.15,-105.21 -145.75,-30.29 -418.02,-65.34 -511.27,32.42z"/>
  <path class="fil11" d="M4289.45 15805.17c41.26,-8.68 77.38,-9.58 116.01,-25.95 76.7,-32.55 50.45,-17.23 103.84,-71.35 -108.05,-43.13 -263.5,-38.84 -403.42,-86.65 -302.98,-103.55 -173.06,-94.15 -299.53,-245.34 -59.94,-71.64 -602.98,-356.8 -709.72,-383.98 -97.34,54.88 -6.21,1.32 -85.34,65.39l-288.56 268.9c25.23,50.5 13.74,61.09 136.35,142.69 246.01,163.65 1173.89,320.76 1430.37,336.29z"/>
  <path class="fil11" d="M8626.93 11780.23l-608.21 406.23c-5.74,155.92 87.29,111.33 216.83,78.96 219.3,-71.17 624.17,-349.99 822.03,-488.34 -54.49,-116.52 -49.99,-78.36 -231.08,-59.72 -88.92,9.14 -142.31,20.54 -199.57,62.87z"/>
  <path class="fil11" d="M9246.59 11691.24c-187.35,248.86 -604.04,421.41 -853.29,595.79 51.51,98.65 60.28,78.4 165.23,19.95 120.22,-41.43 827.85,-460.94 958.75,-603.36l-29.26 -89.85 -241.43 77.47z"/>
  <path class="fil11" d="M9695.02 11584.29c-35.48,120.52 23.36,18.93 -68.62,113.88 -31.65,32.67 -79.46,68.45 -116.56,97.34 -365.18,284.43 -465.74,307.78 -723.5,490.97 80.02,128.73 137.83,-35.7 476.5,-197.23 510.08,-243.29 567.55,-152.29 581.84,-544.4l-149.66 39.44z"/>
  <path class="fil11" d="M6925.4 11668.6c75.17,136.43 59.35,378.96 89.98,556.66 57.98,-37.48 99.76,-609.41 76.45,-678.75l-166.43 122.09z"/>
  <path class="fil11" d="M6746.22 11893.18l62.58 153.53c59.64,50.5 -17.96,42.84 115.07,23.44l-33.52 -220.23 -102.02 -21.7 -42.11 64.96z"/>
  <path class="fil12" d="M5455.94 15648.83c141.79,-190.29 6.97,-157.79 210.75,-212.46 111.54,215.77 1.57,81.22 -88.19,352.29l208.71 49.77 -2.39 38.59 161.49 -10.08c414.31,11.48 879.67,221.17 1402.76,97.03 196.25,-46.54 124.99,-148.34 185.06,-349.43l63.64 182.97c689.13,215.68 969.22,-133.24 1627.25,-164.85l69.94 -232.36c168.76,235.42 78.92,46.5 608.17,363.47 176.34,105.59 541.22,270.06 756.14,212.07 12.38,-185.31 -74.2,-312.72 -28.76,-411.63 153.57,143.24 66.45,118.52 144.64,266.52 271.71,58.16 359.3,-131.58 646.37,-166.46 398.87,-48.5 212.46,78.57 818.67,85.08 -9.44,-46.71 -160.51,-434.81 -171.99,-452.17 -159.66,10.63 -277.29,89.38 -469.06,108.82 -253.3,25.65 -273.72,106.35 -500.89,112.35 -636.38,16.72 -885.37,-315.15 -1444.45,-273.2 -150.3,11.27 -376.96,-26.55 -576.65,-12.97 -365.43,24.88 -586.39,221.08 -946.46,262.18 -343.27,39.18 -700.36,-110.74 -1068.35,-106.99 -411.2,4.12 -584.81,144.17 -978.11,-53.44 -119.97,-60.28 -338.88,0.81 -499.52,-3.82 -335.91,-9.7 -701.38,-102.83 -1017.08,-199.18 -257.97,-78.75 -265.16,-55.52 -333.23,-292.05 -148.98,-17.57 -378.87,-125.12 -545.85,-166.55 -307.66,-76.41 -241.42,-125.07 -373.64,-356.92 -146.13,-8.77 -344.03,64.87 -446.22,148.3 18.21,158.97 123.41,355.51 257.97,445.92 19.27,12.97 129.24,77.17 157.49,93.37 126.48,72.62 559.55,263.68 684.45,295.07l201.95 -147.02c-23.83,150 -151.07,168.42 -245.81,283.24 7.15,6.21 19.06,5.06 22.72,16.89 13.57,43.52 23.48,18.76 45.39,31.44l226.92 84.99c254.56,67.43 1040.52,160.77 1236.17,81.22z"/>
  <path class="fil12" d="M10592.52 4631.31c-31.01,212.88 -292.26,400.91 -232.87,701.72 580.86,-451.45 1167.12,-177.18 599.96,332.8 215.94,6.89 825.9,-152.04 819.9,187.87 -2.68,154.12 -88.06,131.87 -150.43,252.31l142.69 51.73c383.94,129.33 209.73,146.56 300.81,298 894.43,-225.76 839,-1551.14 20.63,-2028.88 -188.75,-110.19 -311.53,-158.98 -526.45,-168.04 -652.97,-27.57 -771.57,342.07 -974.24,372.49z"/>
  <path class="fil12" d="M5041.2 3836.21c83.76,-95.46 136.81,-283.5 329.82,-148.94 125.42,87.42 98.95,233.04 214.92,351.22 157.11,-22.42 294.35,-159.44 464.73,-212.7 164.93,-51.52 382.87,-62.24 515.13,-133.24 -28.21,-509.14 -559.29,-786 -1053.62,-727.63 -395.68,46.71 -1075.75,576.56 -470.98,871.29z"/>
  <path class="fil12" d="M11918.37 14479.23c258.56,198.76 1232.93,-231.72 1718.88,-320.55 310.47,-56.75 425.84,-12.5 696.15,-27.48 208.03,-625.19 -905.37,-248.53 -1149.77,-134.77 -210.53,98.02 -392.87,184.59 -602.51,294.6 -295.03,154.81 -374.54,151.02 -662.75,188.2z"/>
  <path class="fil12" d="M12470.51 14587.59c77.13,125.96 -5.49,25.82 101.85,59.43 152.29,47.69 831.81,-81.34 1380.13,126.86 299.15,113.62 124.51,112.35 307.57,264.31 93.04,-73.6 67.05,-148.18 67.09,-280.57 -224.66,-141.87 -327.02,-258.52 -816.33,-277.62 -375.98,-14.63 -679.05,66.79 -1040.31,107.59z"/>
  <path class="fil12" d="M11967.71 11304.62c101.68,35.73 129.76,59.22 220.75,115.97 78.49,48.96 147.88,57.77 168.76,170.29 4.47,-71.21 -22.8,-9.4 -48.2,-147.41 -302.34,-422.26 -1296.91,-900.81 -1519.32,-749.62 29.65,97.08 133.15,90.66 260.48,137.84 105.12,38.96 222.15,90.74 329.65,144.17 189.53,94.19 432.86,272.18 587.88,328.76z"/>
  <path class="fil12" d="M12253.17 9640.57c138.6,64.75 289.83,269.97 406.74,348.67 58.75,-104.91 5.7,-109.25 87.8,-216.54l-30.16 -50.16c-24.63,46.76 -38.84,42.84 -68.96,70.28 -103.55,-99.88 -221.26,-215.43 -339.74,-259.63l-55.68 107.38z"/>
  <path class="fil12" d="M3539.44 13486.66c174.38,12.5 292.01,177.56 445.2,261.24l111.88 -37.48c-80.02,-68.79 -124.26,-125.45 -197.13,-190.03 -79.09,-70.11 -160.21,-105.2 -223.6,-173.31 -56.84,89.04 -62.62,62.79 -136.35,139.58z"/>
  <polygon class="fil12" points="11568.12,9468.27 11826.9,9438.96 11828.6,9349.07 11602.03,9343.84 "/>
  <path class="fil9" d="M7577.73 7034.6c233.34,307.66 -84.87,799.36 -471.48,617.66 -286.01,-134.43 -330.51,-674.07 93.12,-705.29 -23.53,138.85 -95.55,169.4 13.19,305.79 209.9,135.96 226.74,-168.3 365.17,-218.16zm-228.15 4255.38l-209.47 177.57c547,250.49 1858.93,206.29 2444.43,76.58 477.83,-105.89 394.74,-308.3 754.69,-610.77 393.68,-330.85 617.44,-305.28 729.12,-650.29 -187.83,76.62 -319.79,132.94 -532.24,105.29 -199.31,-24.46 -359.65,-72.4 -456.77,-248.14 38.33,-26.59 8.08,-9.49 78.7,-36.42 263.72,-100.48 465.49,-186.8 527.56,-538.4 -168.59,63.04 -239.34,27.39 -417.88,-3.49l-35.23 -99.17 -85.89 -29.43c-269.46,1299.85 -2592.09,214.53 -1984.81,-723.81 -103.34,-85.72 -148.05,-69.17 -256.7,-126.3 -119.5,-62.83 -114.95,-89.34 -156.47,-184.04l-284.56 -203.39c114.74,-78.61 824.58,-156.72 875.38,-790.88 41.86,-522.46 -404.36,-888.87 -921.75,-647.74 -52.96,-64.66 -55.6,-106.69 -154.98,-163.45 -365.55,-208.79 -967.98,-14.37 -833.51,655.91 55.81,278.35 207.86,293.19 242.27,437.75 -448.6,65.68 -574.82,-113.63 -902.22,-312.98 -65.81,11.32 -147.23,-53.34 -209.22,-127.66 -86.86,-104.23 -32.62,-120.23 -164.16,-223.26 -72.49,172.04 -84.58,226.49 -13.74,402.23 340.8,129.2 437.11,27.65 724.52,357.94 156.94,180.34 359.31,673.14 91.38,807.06 -230.53,562.56 -1728.46,239.55 -1708.64,-538.41 8.47,-332.97 242.79,-377.17 440.01,-540.1l-131.5 -64.41c-187.52,-5.15 -237.12,-74.11 -317.65,-229.9 37.77,-82.31 -55.82,-61.68 45.81,-68.62 -106.35,-38.58 -151.61,183.44 -148.55,285.41 5.15,171.74 112.39,243.6 174.38,365.99 -95.38,129.2 -217.01,132.9 -370.84,186.59 -123.37,277.75 -118.05,728.77 -90.99,1027.16 12.25,248.87 202.03,504.2 345.01,696.36 326.59,24.84 492.12,-139.66 703.08,-341.91 346.88,-332.46 357.39,-231.89 793.1,-112.94 321.36,87.76 470.89,-211.86 843.64,-175.19 356.46,35.06 443.2,373.39 610.64,485.48 252.14,168.81 1593.14,207.95 1203.24,801.23 -147.27,224.07 -969.86,701.59 -1239.19,922.55z"/>
  <path class="fil13" d="M6894.82 14206.12l12.8 -129.24c138.77,56.7 65.17,-1.45 115.54,134.51 555.93,120.31 1630.11,139.45 2227.81,158.81 783.41,25.31 1598.33,30.12 2375.22,76.57l-111.12 -403.8c-1345.24,-39.95 -5079.32,17.74 -6278.73,-525.26 -461.07,-208.75 -333.27,-80.02 -833.65,-88.14l-105.37 200.03c209.01,193.09 798.25,284.51 1101.7,340.75l920.08 157.53c188.08,3.02 98.19,-49.81 270.4,-90.27 28.29,44.8 -1.62,-2.85 14.67,51.39l11.79 39.44c1.36,4.25 6.08,17.27 7.23,20.84 1.23,3.62 3.7,14.89 7.7,21.27l263.93 35.57z"/>
  <path class="fil13" d="M2329.14 9633.8c201.6,83 656.24,-12.84 896.3,-15.91 -78.65,-146.81 -586.6,-484.12 -827.09,-1119.35 -198.79,-525.13 -194.71,-1165.42 105.17,-1652.35 264.69,-429.84 112.77,-863 730.6,-1254.76 205.73,-130.48 312.34,-337.27 522.97,-484.8 254.86,-178.55 400.65,-215.56 669.34,-334.47l-237.21 -356.49c-534.15,322.29 -1565.48,1504.65 -1900.16,2135.24 -248.61,468.42 -424.52,1070.55 -396.44,1634.36 10.98,220.45 446.94,1442.62 436.52,1448.53z"/>
  <path class="fil13" d="M16520.5 12483.32l284.01 10.97 14.93 -36.54c648.46,-28.59 458.21,-110.01 788.89,-198.59 -80.79,136.35 -139.58,154.09 -278.09,217.65 604.64,83.25 2138.98,-1722.89 1605.64,-2353.95 -134.43,-161.57 -153.96,-318.81 -411.89,-492.55 -181.44,-122.22 -444.43,-281.96 -649.99,-341.65 109.03,171.06 480.21,251.81 665.22,469.45 199.39,234.49 309.19,530.49 288.77,852.7 -108.69,-209.09 -69.98,-809.22 -775.66,-1109.27 275.12,640.59 520.84,1317.89 71.47,1975.5 -378.49,553.89 -1275.69,785.83 -1900.92,622.85 35.14,225 167.15,268.56 361.09,355.39l-63.47 28.04z"/>
  <path class="fil13" d="M3491.24 7406.08c-90.48,213.17 -3.61,40.96 -95.71,140.26l-167.79 -563.64c-110.31,236.75 -311.83,501.4 -107.84,1015.64 133.41,336.25 379.85,585.41 755.75,644.42l1.44 -666.71c-285.79,-68.96 -428.43,-258.1 -385.85,-569.97z"/>
  <path class="fil13" d="M7329.42 12505.56c56.54,-124.09 654.07,-621.95 819.48,-650.79l84.78 -114.1 -1041.16 -136.6c-71.09,427.58 -59.86,553.34 -17.14,993.38l154.04 -91.89z"/>
  <path class="fil13" d="M7717.99 8184.63l-96.23 29.82c293.84,254.99 824.2,338.88 1189.34,217.43 429.07,-142.73 551.8,-406.74 738.56,-775.83 -256.19,80.11 -111.12,224.32 -776.26,494.33 -126.56,51.35 -385.59,111.42 -524.57,112.91 -254.11,2.72 -374.58,45.43 -530.84,-78.66z"/>
  <path class="fil13" d="M6439.24 7468.19c-60.03,49.52 -6.89,142.64 -197.52,-31.87 -121.2,-110.94 -284.18,-373.85 -341.4,-532.23 -230.36,-637.74 89.38,-592.73 130.39,-889.5 -774.85,401.04 -418.77,1560.67 486.08,1599.81l-77.55 -146.21z"/>
  <path class="fil13" d="M4395.04 7825.15l76.95 -51.09c-164.25,-67.39 -185.43,-229.3 -170.33,-394.87 17.31,-190.16 124.99,-264.01 203.98,-377.85 -50.53,-200.67 -43.6,-453.11 68.41,-631.74 -250.61,39.43 -472.34,403.03 -506.75,652.28 -48.2,348.72 110.14,638.72 327.74,803.27z"/>
  <path class="fil13" d="M12374.41 7812.48c-28.5,-155.96 -137.75,-68.75 -433.62,-423.89l-156.3 -193.94 238.44 -31.53c-365.34,37.01 -540.19,-16.29 -883.24,-73.81 220.4,460.34 742.94,670.84 1234.72,723.17z"/>
  <path class="fil13" d="M14734.4 8542.57c-128.39,-59.9 -522.58,-142.51 -698.28,-183.99 -118.73,-28.03 -230.19,-51.9 -342.84,-86.66 -103.97,-32.07 -240.36,-63.26 -322.42,-145.66l-809.61 35.27c320.68,247.76 1698.98,354.62 2173.15,381.04z"/>
  <path class="fil13" d="M5100.97 7484.27l254.91 57.94c-151.92,-322.29 -143.96,-413.04 89.8,-640.51 197.65,-192.32 -42.79,-184.84 246.23,-673.64 -250.91,29.14 -420.86,268.65 -513.81,472 -153.02,334.76 -105.97,519.17 37.31,813.35l-114.44 -29.14z"/>
  <path class="fil13" d="M12136.43 11124.97l77 -202.29c-137.92,-145.06 -394.23,-264.05 -579.11,-346.58 -547,-244.11 -545.43,-214.63 -630.17,19.01 372.96,44.8 811.14,336.76 1132.28,529.86z"/>
  <path class="fil13" d="M12152.56 8702.44l92.99 140.52 393.85 -168.89c4.85,-201.86 49.14,-339.31 -122.9,-416.4 -121.16,-54.28 -277.41,-116.86 -400.15,-167.78 -35.99,165.36 31.27,76.7 61.22,254.27 27.65,163.95 -47.13,185.14 37.48,314.59l-62.49 43.69z"/>
  <path class="fil13" d="M10410.36 10074.19c-50.67,29.57 -45.99,23.27 -95.04,44.63l-113.84 50.03c217.17,157.83 497.65,184.97 749.58,73.59 273.58,-120.94 225.72,-215.3 406.48,-556.14 -153.91,50.58 -256.27,180.63 -450.38,268.27 -105.72,47.73 -156.73,65.93 -271.93,97.59 -138.34,38.07 -148.13,71.38 -224.87,22.03z"/>
  <path class="fil13" d="M11923.85 6906.64c-156.46,-4.76 -367.17,6.08 -475.44,-82.15l404.91 -32.03c-429.41,88.57 -941.7,-191.01 -1179.16,-36.67 119.37,153.91 398.86,218.58 588.09,264.27 376.07,90.74 393,112.52 661.6,-113.42z"/>
  <path class="fil13" d="M12107.76 6907.92c51.43,82.61 35.4,54.45 -30.03,157.1 104.14,-29.31 83.25,-29.05 149.61,-119.67 23.19,9.7 43.78,64.07 152.13,53.18 45.95,-4.64 166.81,-60.96 211.6,-83.17 651.95,-323.1 685.43,-655.73 815.35,-772.08 -108.35,12.76 -175.65,117.58 -281.88,226.87 -182.54,187.86 -578.64,405.93 -811.69,453.87l-205.09 83.9z"/>
  <path class="fil13" d="M2805.18 9992.81l-7.62 88.57c171.83,63.94 122.99,16.81 194.89,137.67 110.35,-102.91 539.08,-191.27 707.33,-265.68l-200.11 -127.11c-181.19,150.94 -467.92,157.7 -694.49,166.55z"/>
  <path class="fil13" d="M10094.49 9014.23l51.73 227.47c210.62,-151.75 307.32,-270.31 269.07,-540.66 -49.64,-47.56 -1.91,-19.49 -45.31,-9.28 -67.76,368.03 -143.19,139.67 -275.49,322.47z"/>
  <path class="fil13" d="M9101.87 8404.01c81.59,17.87 96.52,24.76 165.4,39.99 113.07,25.02 58.45,30.93 144,1.15l-0.3 -283.24 -309.1 242.1z"/>
  <path class="fil13" d="M4260.65 14744.18l94.44 111.42 339.23 -296.64c-212.75,29.18 -260.53,95.16 -433.67,185.22z"/>
  <path class="fil14 str0" d="M6642.8 9875.06c67.77,-103.25 218.88,-158.81 350.92,-162.81 -48.75,162.47 -180.07,151.36 -350.92,162.81zm-5095.57 2247.08c448.85,610.43 1665.92,1038.1 2391.29,1174.99 1003.47,189.36 1829.93,-138.17 2432.4,-965.69 632.67,-869.08 906.22,-1155.47 1837.79,-1729.35 672.15,-414.1 303.49,-675.9 -281.88,-783.27 -221.26,-40.59 -496.03,-80.66 -649.18,-251.76 -171.32,-191.4 -223.9,-333.27 -501.4,-399.81 -422.6,-26.16 -521.39,274.05 -883.16,164.47 -893.11,-270.57 -425.75,135.24 -1088.72,386.61 -854.49,324 -1838.17,449.88 -2884.44,1042.52 -513.98,291.12 -911.7,826.71 -372.7,1361.29zm4368.54 -2661.35c107.97,82.19 119.58,138.26 93.29,273.24 -219.85,-246.61 -142.64,-212.07 -93.29,-273.24z"/>
  <path class="fil15" d="M6937.61 13262.59l-124.47 -59.94c-92.06,27.69 -64.33,24.46 -160.73,70.15 -266.73,207.18 -273.11,126.65 -555.2,62.71 -120.74,-27.4 -99.08,-8.55 -195.69,-94.11 1.82,-174.42 10.63,-78.48 59.72,-207.73 -124.35,-101.58 -8.55,-103.88 -404.65,104.87 -162.68,85.72 -307.58,133.37 -463.53,208.58 595.41,548.57 3687.79,525.68 4670.5,565.72 496.07,20.16 1264.92,90.74 1730.03,50.2l-88.95 -565.21c-134.69,19.48 -401.85,51.13 -442.99,-101.29 -721.16,-81.6 -1175.76,-634.55 -1166.1,-1359.12l-880.82 416.82c-178.25,108.19 -34.29,-14.5 -108.27,146.56 -99.55,216.79 -172.38,134.39 -265.29,270.05 132.09,53.95 139.28,30.46 228.32,144.09 -41.35,175.95 -188.25,272.73 -369.6,294.3 331.61,235.56 -98.74,295.5 -289.92,285.75 -83.98,176.98 -44.71,154.51 -264.48,161.11 -188.67,5.66 -123.8,147.49 -324.42,28.88 -288.09,-170.25 -142.05,-356.07 -583.46,-422.39z"/>
  <path class="fil15" d="M11907.73 13201.46c309.92,-3.53 374.2,4.04 663.52,-109.59 244.06,-95.8 296.73,-198.07 326,-476.25 -185.87,67.22 -436.61,171.44 -630.09,171.61l1131.95 -504.24c95.97,-185.36 348.84,-228.88 227.51,-520.67l-145.49 -32.92c-176.25,16.12 -256.83,123.11 -426.48,197.73 217.85,-125.24 530.41,-444.86 701.68,-618.98 148.94,-365.77 516.11,-584.48 267.54,-1074.6 -296.94,38.63 -1331.76,340.12 -1457.17,586.35 -61.69,121.07 -148.17,334.63 -214.92,474.21 62.62,122.44 218.32,190.37 204.96,323.06 -17.78,176.59 -26.88,55.43 -59.51,97.59 -89.42,115.63 -29.4,10.34 -11.79,261.5 20.93,297.96 -162.72,615.24 -338.63,836.75 -128,161.19 -267.11,203.65 -404.57,360.16l165.49 28.29z"/>
  <path class="fil15" d="M9293.69 9210.69c240.82,32.67 190.45,183.48 123.66,357.77 -213.68,-39.39 -231.51,-186.67 -123.66,-357.77zm662.54 -296.77c-290.01,51.05 -566.1,151.49 -800.85,-100.49 69.73,-148.51 110.65,-34.54 202.2,-276.43 -1692.34,-162.21 -1348.14,787.7 -782.46,1136.92 813.31,502.12 1768.91,404.23 1381.11,-760z"/>
  <path class="fil15" d="M10592.52 4631.31c496.67,-811.61 1732.37,-491.27 2102.31,346.2 188.76,427.33 166.04,923.49 -147.15,1284.24 -300.77,346.46 -826.41,357.52 -1241.44,430.01 150.93,125.42 1289.68,13.06 1714.63,-602.68 764.17,-1107.31 -859.72,-2629.75 -2027.48,-2065.6 -459.62,222.02 -1069.71,997.72 -813.86,1486.23 168.59,-124.35 86.95,-254.49 162.04,-482.08 46.92,-142.22 138.6,-328.81 250.95,-396.32z"/>
  <path class="fil15" d="M5813.92 8143.7c148.98,50.84 150.68,168.55 92.87,299.96 -187.27,-13.78 -229.26,-193.09 -92.87,-299.96zm384.11 446.99c151.74,-415.08 -1.4,-738.91 -389.51,-942.08 -273.97,-143.41 -330.89,-10.55 -595.75,-49.22 -643.4,-94.02 -989.6,657.9 -150.73,1083.19 579.12,293.62 906.99,4.68 1135.99,-91.89z"/>
  <path class="fil15" d="M4577.41 3871.77c161.15,-210.41 182.04,-889.79 944.25,-999.85 643.27,-92.87 963.18,282.52 1144.84,825.01l343.94 19.01c-117.2,-786.5 -564.48,-1244.21 -1387.44,-1202 -374.58,19.18 -617.41,120.9 -882.02,370.11 -234.95,221.25 -305.49,684.62 -163.57,987.72z"/>
  <path class="fil15" d="M12659.91 9989.24c-116.91,-78.7 -268.14,-283.92 -406.74,-348.67l-114.4 37.86c-4.93,-8 -10.72,-19.02 -13.1,-24.93l-29.06 -82.53c-20.71,-60.45 6.09,-21.78 -39.13,-95.42 -182.25,-14.89 -55.31,28.63 -214.33,80.96l-16.25 -117.55 -258.78 29.31 -377.81 734.01c272.27,105.55 432.18,92.57 714.95,246.49 227.22,123.67 381.73,252.7 590.1,380.83 56.07,-253.93 181.61,-583.92 164.55,-840.36z"/>
  <path class="fil15" d="M7652.78 12523.77c102.86,170.34 228.78,193.44 41.18,445.37 -103.25,138.6 -311.83,192.58 -428.06,305.96 78.62,147.57 225.73,321.1 393.94,376.02l-152.26 -298.85c232.02,98.35 150.64,200.92 505.61,228.79l-144.73 -288.48c166.64,15.19 194.97,206.58 560.91,93.47 -63.9,-176.42 -122.05,-45.65 -258.1,-211.35 176,-101.84 387.04,3.57 521.52,-223.77 -171.06,-140.47 -404.1,-161.91 -473.53,-203.9 163.06,-50.37 521.43,-93.21 516.96,-289.58 -53.98,-25.23 -459.32,-61.64 -590.94,-87.76 -207.48,-41.14 -377.34,-37.01 -492.5,154.08z"/>
  <path class="fil15" d="M11602.03 9343.84l226.57 5.23c111.8,-53.43 118.61,-164.46 309.54,-118.3 146.76,35.47 169.99,172.84 170.71,302.42 118.48,44.2 236.19,159.75 339.74,259.63 30.12,-27.44 44.33,-23.52 68.96,-70.28l30.16 50.16c154.17,-37.69 354.8,-407.55 362.97,-559.38 -165.49,-39.52 -225.09,-51.94 -382.45,-11.36 21.1,-193.3 97.63,-230.7 79.76,-456 -156.34,-7.87 -460.64,136.52 -602.51,211.56 -72.02,-160.08 -194.93,-307.96 -352.33,-369.68 -121.12,242.7 -154.94,582.3 -251.12,756z"/>
  <path class="fil15" d="M11660.61 14254.49c172.76,10.25 94.57,53.77 154.76,-23.95l-108.09 -121.76 30.75 -71 385 88.4c-23.35,-416.99 -62.41,-225.94 -234.78,-454.3 266.65,71.43 456.47,184.93 749.19,175.91 -23.56,-332.8 -895.79,-682.07 -1142.32,-577.2 -87.59,241.85 94.87,720.99 165.49,983.9z"/>
  <path class="fil15" d="M5949.2 12875.85c93.68,142.85 103.72,81.8 331.74,40.75 -132.22,166.47 -274.48,94.14 -306.34,286.47 194.5,108.7 251.12,-4.04 412.57,-69.98 -89.64,112.48 -95.25,54.29 -68.83,195.14 280.68,-11.31 264.09,-119.41 427.79,-254.99 -37.94,-212.2 -137.49,-274.69 -77.81,-519.39 139.58,-138.26 143.03,-85.21 268.95,-147.53 -42.03,-236.07 -105.08,-225.18 -270.77,-338.63 -102.15,73.8 -231.3,308.72 -324.51,414.52 -130.56,148.34 -268.1,264.69 -392.79,393.64z"/>
  <path class="fil15" d="M10461.96 6010.63l95.89 239.3c279.62,-43.95 1082.72,-101.29 1168.65,-395.72 -231.93,-312.64 -1006.91,-35.74 -1264.54,156.42z"/>
  <path class="fil15" d="M10205.52 5955.58c187.35,-26.16 1200.31,-496.71 871.8,-729.16 -167.91,-118.82 -517,54.37 -661.77,163.66 -243.26,183.61 -292.99,283.24 -210.03,565.5z"/>
  <path class="fil15" d="M10681.81 6374.83l87.47 237.98c306.17,-24.34 1046.09,41.98 1213.28,-217.22 -153.49,-338.29 -1028.27,-158.47 -1300.75,-20.76z"/>
  <path class="fil15" d="M5184.95 4851.8l173.35 -57.77c-327.35,-438.47 -294.55,-1129.39 -616.55,-1000.74 -201.22,80.4 -35.69,749.36 443.2,1058.51z"/>
  <path class="fil15" d="M5189.03 3734.58c-227.68,482.93 568.78,1659.16 399.72,788.5 -21.14,-108.86 -47.94,-223.21 -71.43,-329.78 -43.3,-196.03 -103.59,-477.65 -328.29,-458.72z"/>
  <path class="fil15" d="M4927.27 4944.03c-10.25,-108.1 -10.93,-63.6 -86.57,-177.27 -54.62,-82.02 -67.72,-115.07 -92.02,-208.15 -61.26,-255.81 -249.54,-454.39 -532.91,-433.84 -6.64,239.17 546.48,996.11 711.5,819.26z"/>
  <path class="fil15" d="M3984.64 13747.9c-153.19,-83.68 -270.82,-248.74 -445.2,-261.24 -130.17,75.8 -293.06,123.54 -390.44,175.01l155.06 160.64c-46.16,112.56 -121.16,153.02 -59.56,280.6l65.94 -177.31c208.88,-13.36 514.29,-37.44 674.2,-177.7z"/>
  <path class="fil15" d="M9763.85 6131.24c159.83,36.92 163.02,35.9 292.14,-25.27 70.62,-158.56 69.42,-233.3 3.61,-392.19 -229,5.66 -353.6,191.86 -295.75,417.46z"/>
  <path class="fil15" d="M10329.1 6775.78c162.64,78.87 399.85,-75.34 313.02,-323.4 -209.51,-101.2 -396.57,99.34 -313.02,323.4z"/>
  <path class="fil15" d="M9517.28 11703.62c-130.9,142.42 -838.53,561.93 -958.75,603.36 73.81,92.1 112.65,30.16 227.81,-20.5 257.76,-183.19 358.32,-206.54 723.5,-490.97 37.1,-28.89 84.91,-64.67 116.56,-97.34 91.98,-94.95 33.14,6.64 68.62,-113.88 -104.95,44.71 -88.82,66.49 -177.74,119.33z"/>
  <path class="fil15" d="M10080.11 6358.2l297.74 -15.36c258.95,-241.47 -237.67,-475.83 -297.74,15.36z"/>
  <path class="fil15" d="M4096.52 13710.42l107.8 -93.67c-4.68,-115.25 42.89,-15.19 -57.85,-127.63 -41.78,-46.62 -62.41,-63.38 -112.01,-104.31l-358.67 -37.73c63.39,68.11 144.51,103.2 223.6,173.31 72.87,64.58 117.11,121.24 197.13,190.03z"/>
  <path class="fil15" d="M9057.58 11777.08c-197.86,138.35 -602.73,417.17 -822.03,488.34l38.54 64.19 119.21 -42.58c249.25,-174.38 665.94,-346.93 853.29,-595.79l-189.01 85.84z"/>
  <path class="fil15" d="M7706.85 12336.93l311.87 -150.47 608.21 -406.23c-70.06,-37.82 13.32,-44.54 -131.28,-4 -188.2,198.16 -652.54,326.59 -788.8,560.7z"/>
  <path class="fil15" d="M5577.14 5052.68l224.53 75.9c67.9,-74.45 27.35,2.55 37.14,-98.49 -56.24,-113.2 -71.98,-146 -232.58,-122.73l-29.09 145.32z"/>
  <path class="fil15" d="M5262.07 5059.96l166.72 77.47c100.57,-61.86 16.09,48.92 44.97,-64.97 -19.65,-169.99 -40.5,-172.97 -215.47,-158.42l3.78 145.92z"/>
  <path class="fil15" d="M6890.35 11849.92l33.52 220.23c6.72,24.89 25.65,103.38 37.1,127.29 75.17,157.06 49.77,34.16 54.41,27.82 -30.63,-177.7 -14.81,-420.23 -89.98,-556.66l-35.05 181.32z"/>
  <path class="fil15" d="M5001.47 5138.66c11.23,4.21 79.72,37.01 89.42,37.1 117.67,0.72 31.22,43.77 104.05,-48.08 -38.37,-139.53 -25.44,-139.06 -174.71,-160.85l-18.76 171.83z"/>
  <path class="fil15" d="M7531.11 12513.14c110.82,-56.37 129.92,-66.58 175.74,-176.21l-220.41 144.56c30.63,37.43 -65.09,61.94 44.67,31.65z"/>
  <path class="fil15" d="M16285.25 11635.8c183.44,-72.78 49.35,21.4 123.62,-113.11 -139.02,71.25 -37.86,27.56 -123.62,113.11z"/>
  <path class="fil16" d="M4260.65 14744.18c173.14,-90.06 220.92,-156.04 433.67,-185.22l276.13 -141.03c-203.77,223.22 -415.84,248.06 -596.73,540.96 369.69,238.87 1215.54,315.7 1655.89,282.94 118.22,-118.99 126.64,-283.92 296.72,-375.43 -76.1,168.3 -172.93,190.93 -154.29,386.45 343.39,231.85 672.02,-66.75 1436.83,107.8 84.62,19.31 145.07,40.84 226.54,65.51 16.5,4.98 94.99,25.49 108.18,26.12 101.12,4.73 30.97,15.15 104.1,-18.42l56.71 -469.27c63.21,178.63 40.96,252.87 31.52,435.71 507.35,-12.04 575.63,-393.55 1561.91,-206.45l-115.71 -388.71c261.63,195.91 -87.04,172.68 713.5,459.45 378.75,135.67 626.13,177.31 1032.14,175.31l-157.27 -392.18 19.91 -86.24 49.52 94.11 120.94 251.29c422.69,37.86 658.16,-129.88 1072.3,-153.7 -94.36,-188.97 -316.64,-297.03 -477.7,-442.14l-56.28 -39.6 -141.45 -57.69c-403.25,-33.65 -831.26,-34.63 -1237.28,-46.12 -388.14,-10.97 -770.42,-51.13 -1151.3,-61.89 -396.31,-11.19 -792.88,-14.98 -1188.99,-34.55 -266.82,-13.23 -938.93,-93.25 -1149.13,-70.23 -108.65,435.75 -668.83,361.34 -661.6,-119.5 -460.94,-45.05 -1789.64,-258.02 -2125.29,-513.01 -113.8,78.75 -710.1,220.15 -878.73,240.27 10.97,531.22 136,557 895.24,735.46z"/>
  <g id="_2385150933520">
   <path class="fil17" d="M7733.9 6232.83c0,-19.7 -33.77,-143.03 157.96,-117.29 65.26,8.76 56.88,23.69 73.51,33.56l-231.47 83.73zm166.26 -530.24c96.14,-112.86 158.63,-95.59 310.68,-84.53 -129.93,33.65 -58.46,29.57 -159.62,80.96 -170.46,86.61 -110.44,26.2 -151.06,3.57zm-329.19 -244.57c127.84,43.09 155.32,59.85 204.24,192.71l-204.24 -192.71zm377.17 134.43c53.35,-107.25 5.92,-95.25 160.6,-136.86 93.93,-25.27 114.9,-25.31 171.99,-11.44l-332.59 148.3zm-97.38 -50.12l-167.44 -242.1c148.26,77.21 163.15,51.9 167.44,242.1zm-4623.02 1440.37l167.79 563.64c92.1,-99.3 5.23,72.91 95.71,-140.26 70.07,-104.32 25.83,68.96 79.26,212.62 28.59,76.87 108.99,175.44 178.46,217.47 191.39,115.71 449.37,60.32 646.08,-11.02 -217.6,-164.55 -375.94,-454.55 -327.74,-803.27 34.41,-249.25 256.14,-612.85 506.75,-652.28 57.35,-119.33 37.57,-98.87 152.73,-162.13 -122.06,274.01 -239.9,418.18 -153.75,767.02 68.32,276.52 270.65,421.38 527.94,509.78l114.44 29.14c-143.28,-294.18 -190.33,-478.59 -37.31,-813.35 92.95,-203.35 262.9,-442.86 513.81,-472 163.11,-173.99 216.75,-272.9 475.66,-304.85l-136.86 91.38c-41.01,296.77 -360.75,251.76 -130.39,889.5 57.22,158.38 220.2,421.29 341.4,532.23 190.63,174.51 137.49,81.39 197.52,31.87 -397.93,-702.53 430.01,-1406.3 983.64,-823.1 250.49,-40.54 381.22,-138 642.72,42.63 630.29,435.37 343.69,1330.27 -347.61,1496.91 156.26,124.09 276.73,81.38 530.84,78.66 138.98,-1.49 398.01,-61.56 524.57,-112.91 665.14,-270.01 520.07,-414.22 776.26,-494.33 85.08,-370.54 75.13,-458.09 -104.91,-773.15 308.68,268.27 261.33,595.28 106.1,955.44 -180.08,417.8 -66.15,106.52 -53.14,466.94 8.3,230.32 -129.75,314.42 -216.91,464.89 387.12,89.42 1012.99,-150.9 1288.58,-452 48.07,-52.59 78.06,-92.62 128.77,-143.37l136.05 -324.51c35.69,371.9 -165.91,435.84 -310.98,674.84 -154.6,254.65 171.02,279.41 -298.51,744.9 295.53,70.66 511.98,-13.4 744.26,-193.52l23.65 77.98c93.98,-79.6 48.92,-16.55 93.47,-155.75 27.05,215.52 -165.92,344.04 -359.69,403.81 61.17,341.1 -50.88,507.47 -316.04,671.64 76.74,49.35 86.53,16.04 224.87,-22.03 115.2,-31.66 166.21,-49.86 271.93,-97.59 194.11,-87.64 296.47,-217.69 450.38,-268.27 108.74,-220.24 202.12,-349.05 250.66,-588.18 30.71,-151.19 129.62,-488.59 217.21,-597.88 153.32,20.47 227.6,92.57 327.15,202.2l62.49 -43.69c-84.61,-129.45 -9.83,-150.64 -37.48,-314.59 -29.95,-177.57 -97.21,-88.91 -61.22,-254.27 -375.93,-222.96 -741.92,-470 -964.71,-812.42 -188.07,-289.11 16.68,-173.91 -462.85,-402.91 -195.09,-93.16 -566.27,244.15 -442.43,-310.38 -214.37,-2.72 -226.87,-57.69 -248.53,-262.61 -215.22,98.74 -335.82,-58.75 -328.76,-265.75 11.02,-324.77 160.68,-77.94 31.87,-508.59 -191.1,-638.97 109.11,-986.7 56.96,-1109.01 -230.87,-88.78 -238.49,9.49 -436.09,112.65l135.58 -154.64c-384.79,0.13 -697.09,57.47 -1063.24,147.11l8.46 -26.55c64.75,-268.99 -497.05,-487.95 -687.68,-556.01 -417.03,-148.81 -814.88,-167.19 -1257.1,-120.78 18.38,146 142.3,282.43 166.12,488.89l-234.91 -471.66c-137.54,21.23 -118.44,2.51 -218.88,73.09 87.3,135.62 224.5,244.1 269.21,421.33l-309.41 -415.34c-180.76,23.11 -370.7,119.46 -510.54,246.15l96.23 638.08c117.46,69.47 120.9,27.48 189.4,160.34 227.81,442.13 -316.09,298.6 -316.43,298.64 -120.99,9.91 -122.94,117.24 -310.89,6.3 -266.86,313.1 -342.54,-106.44 -347.9,-118.06 -44.2,-96.14 -369.73,-305.36 -488.25,-293.15 -270.44,27.82 -845.73,413.38 -952.63,628.51l311.95 -7.7c-548.82,-17.44 -1228.25,751.36 -1082.63,1342.52 169.31,-255.38 327.1,-624 671.38,-635.61 -313.91,254.57 -461.78,293.45 -627.74,739.54 -135.87,365.13 -83.59,775.83 228.32,1009.13 -23.31,-309.75 -90.14,-780.98 237.51,-948.3z"/>
   <path class="fil17" d="M12022.93 7163.12l-238.44 31.53 156.3 193.94c295.87,355.14 405.12,267.93 433.62,423.89 680.32,53.17 1331.76,-79.81 1978.31,-49.4 -115.29,65.82 -638.42,94.36 -772.3,104.74 -256.78,19.87 -558.27,47.73 -812.2,40.42 -1.32,120.09 -96.78,38.41 98.27,103.75 9.48,3.15 101.67,29.4 112.86,32.46 177.44,49.22 211.9,-6.25 383.72,-1.7l1067.92 -55.51 -1060.13 139.02c82.06,82.4 218.45,113.59 322.42,145.66 112.65,34.76 224.11,58.63 342.84,86.66 175.7,41.48 569.89,124.09 698.28,183.99 349.01,77.51 883.75,103.42 1261.48,154.6 376.53,50.96 828.24,143.06 1192.78,252.23 609.62,182.63 1570.97,498.62 1747.22,1173.46 533.34,631.06 -1001,2437.2 -1605.64,2353.95 -230.96,41.43 -285.07,61.55 -525.73,17.48l-284.01 -10.97c-571.46,-148.52 -454.09,-870.11 -156.21,-1005.56 77.38,-68.66 78.53,-47.35 192.75,-21.95 -159.82,-750.9 -941.18,515.05 -261.37,1195.03 469.32,469.41 1319.89,237.09 1819.33,-65.68 2628.21,-1593.22 2379.17,-4632.47 -772.94,-5266.17 -1136.15,-228.44 -2302.68,-118.05 -3336.65,-300.13 -461.49,-81.29 -524.88,-168.93 -912.3,-341.65l-191.87 153.79c-289.41,199.05 -519,286.43 -878.31,332.12z"/>
   <path class="fil17" d="M1261.39 7727.01c-217.73,-197.61 -367.47,-828.28 -145.87,-1032.31 -5.15,229.64 -72.11,278.39 -18.89,556.4 29.99,156.55 96.18,335.01 164.76,475.91zm1731.06 2492.04c-71.9,-120.86 -23.06,-73.73 -194.89,-137.67l7.62 -88.57c-198.2,-15.61 -406.66,-15.02 -570.4,-104.44l272.95 8.51 102.39 -34.29 -104.35 -72.28 202.41 -65.17c-399.25,48.71 -1004.19,-95.08 -1257.27,-409.12 348.2,157.23 449.03,294.26 878.23,317.78 10.42,-5.91 -425.54,-1228.08 -436.52,-1448.53 -28.08,-563.81 147.83,-1165.94 396.44,-1634.36 334.68,-630.59 1366.01,-1812.95 1900.16,-2135.24 -127.71,-408.57 52.71,-259.93 7.02,-458.05 -95.08,21.61 -162.34,217.43 -549.85,426.99 -228.91,123.84 -453.45,240.15 -687.21,354.92 -844.71,414.66 -1281.69,541.98 -1813.97,1284.63 -483.36,674.32 -658.46,1649.63 73.51,2195.86 -487.86,-191.6 -631.53,-853.72 -538.66,-1325.67 97.76,-496.76 410.95,-933.62 704.7,-1284.29 -924.85,523.86 -1416.29,1662.27 -1282.41,2708.57 105.8,826.84 850.83,2101.64 1449.51,2577.12 387.94,-167.95 647.1,-464.59 1440.59,-676.7z"/>
   <path class="fil17" d="M5190.14 1969.28l113.5 239.93c-117.59,-112.35 -167.96,-221.34 -314.47,-126.43 121.67,149.36 201.14,140.85 231.09,349.86l-275.03 -289.54c-432.18,88.74 -960.34,917.92 -731.38,1630.32 116.35,361.81 291.84,234.02 380.41,398.87 -20.51,-82.24 -81.6,-196.84 -110.18,-312.94 -98.44,-400.36 20.84,-201.01 -170.55,-309.19 132.56,-84.78 71,-4.81 108.18,-99.12l-150.55 12c385.76,-263.63 136.77,-459.11 524.36,-738.4 597.71,-430.69 1401.19,-392.48 1902.63,73.52 320.16,297.53 275.24,550.99 390.53,909.74 155.78,10.04 316.63,-290.51 351.52,-427.75 13.99,165.1 -87.3,322.34 -184.21,448.9 164.34,-12.3 126.61,-132.39 250.02,-259.89l-100.27 289.92 337.18 100.44c129.92,-702.95 -132.73,-1435.39 -722.52,-1755 79.51,262.86 125.11,373.89 64.66,657.39 -65.85,-107.97 -26.97,-269.46 -75.38,-453.88 -41.91,-159.53 -88.74,-285.49 -241.55,-342.24 106.44,242.36 179.52,398.31 133.92,676.83 -41.69,-131.79 -60.67,-318.89 -131.75,-489.82 -102.74,-247.04 -113.33,-262.82 -377.35,-315.1 -455.19,-90.11 -787.01,-16.38 -1202.81,131.58z"/>
   <path class="fil17" d="M11853.32 6792.46l-404.91 32.03c108.27,88.23 318.98,77.39 475.44,82.15l73.64 -73.34c-4.76,111.71 -19.31,187.78 -121.67,231.08l231.94 -156.46 205.09 -83.9c233.05,-47.94 629.15,-266.01 811.69,-453.87 106.23,-109.29 173.53,-214.11 281.88,-226.87 175.32,-577.12 94.32,-494.46 -35.65,-1049.33 118.74,100.86 93.34,187.48 185.78,302.81 0.47,-253.25 -141.45,-447.07 -262.05,-654.12l207.98 254.06c-109.97,-905.67 -1133.51,-1587.22 -2081.13,-1545.32 -315.99,13.95 -473.99,354.37 -723.12,501.82 86.83,-206.29 213.48,-270.27 359.44,-439.5 -380.88,61.69 -501.01,440.22 -677.65,726.36 8.22,-167.49 148.9,-495.1 261.04,-565.89 -386.92,49.73 -972.07,805.18 -920.22,1494.95 121.12,47.18 44.8,-56.5 204.29,11.44 122.77,52.33 -33.4,-9.74 58.03,33.61 -51.82,121.33 -99.59,125.71 -237.98,154.47l80.23 325.4c36.03,-15.23 89.55,-36.03 129.07,-47.18l153.07 -31.82c-262.23,-1081.83 1006.74,-2475.49 2474.38,-1424.12 1256.54,900.18 732.99,2457.88 -728.61,2601.54z"/>
  </g>
  <path class="fil9" d="M6198.24 17938.32c186.67,-52.66 116.65,-124.9 252.14,-244.4 189.31,123.41 243.72,455.32 505.4,507.05l174.46 -361.22c177.57,37.19 229.34,186.68 384.79,202.71 177.14,-206.49 163.91,-620.34 110.99,-873.5 -275.33,-38.03 -559.42,-17.31 -859.59,-64.75 -280.31,-44.33 -512.46,-122.64 -776.22,-181.31 -86.48,183.18 44.33,858.61 208.03,1015.42zm3600.5 -1735.69l-65.3 -190.97c-228.28,55.05 -387.47,361.56 -509.65,452.39l-379.98 -497.65c-262.31,145.23 -228.58,277.03 -386.19,500.37 -240.83,-119.8 -253.76,-245.42 -602.52,-247.21 -79.17,278.31 259.04,1102.21 471.79,1255.91 999.04,1283.48 1757.98,-769.28 1471.85,-1272.84z"/>
  <path class="fil16" d="M7006.87 13000.11l120.01 100.65 91.68 -105.76 -12.43 162.9 -163.82 11.35c-67.56,-97.25 -50.46,-23.52 -35.44,-169.14zm420.99 -416.1l-258.78 164.21c-65.51,-48.16 -231,-341.82 -395.51,-197.94 -140.51,218.19 118.99,688.27 389.3,650.58 261.08,-36.46 567.54,-258.9 527.17,-557.89l-262.18 -58.96z"/>
  <path class="fil16" d="M7175.67 7588.92c289.33,88.53 447.33,-185.61 387.51,-445.79 -79.55,117.07 -106.73,231.04 -309.91,206.2 -179.44,-21.96 -150.77,-124.14 -170.21,-227.64 -15.02,-80.02 -2.55,-39.99 -20.89,-76.37 -179.27,156.64 -109.2,475.49 113.5,543.6z"/>
  <path class="fil16" d="M7003.21 14206.24l-96.36 2.86c-11.31,179.27 -262.22,257.58 -349.47,80.02 -17.83,-36.29 -15.53,-57.27 -25.02,-79.17 -30.37,-70.28 -12.72,-37.78 -41.18,-71.01 -247.21,390.15 400.44,842.62 512.03,67.3z"/>
  <path class="fil16" d="M11938.15 9362.69c116.6,72.66 170.84,-56.84 257.54,215.34 115.29,-165.87 -64.53,-422.1 -257.54,-215.34z"/>
  <path class="fil18" d="M6955.78 18200.97c-261.68,-51.73 -316.09,-383.64 -505.4,-507.05 -135.49,119.5 -65.47,191.74 -252.14,244.4 -163.7,-156.81 -294.51,-832.24 -208.03,-1015.42 263.76,58.67 495.91,136.98 776.22,181.31 300.17,47.44 584.26,26.72 859.59,64.75 52.92,253.16 66.15,667.01 -110.99,873.5 -155.45,-16.03 -207.22,-165.52 -384.79,-202.71l-174.46 361.22zm4655.01 -1798.73l172.89 80.87c-501.14,411.12 -1250.97,587.75 -1905.73,504.88 15.53,-161.62 23.1,-424.95 97.38,-549.25 245.59,-248.32 928.29,135.53 1267.14,131.58 268.43,-3.11 167.53,-89.38 368.32,-168.08zm-1812.05 -199.61c286.13,503.56 -472.81,2556.32 -1471.85,1272.84 -212.75,-153.7 -550.96,-977.6 -471.79,-1255.91 348.76,1.79 361.69,127.41 602.52,247.21 157.61,-223.34 123.88,-355.14 386.19,-500.37l379.98 497.65c122.18,-90.83 281.37,-397.34 509.65,-452.39l65.3 190.97zm-4802.42 127.8c1049.24,128.13 336.54,134.17 1418.5,-31.06 6.13,7.06 12.93,17.78 16.59,22.59 303.62,396.7 636.85,93.55 1360.73,245.46l177.49 492.08c-764.73,58.03 -2462.13,-117.46 -2973.31,-729.07zm6614.47 71.81c-59.9,-108.78 -72.11,-57.73 -134.26,-164.38 -78.45,-134.61 4,-115.46 -90.19,-178.81 -191.18,75.68 80.24,73 33.91,417.59 -298.52,42.92 -450.13,-35.99 -735.46,-124.05 -348.2,-107.5 -396.36,-71.09 -743.33,-26.33 -6.63,-9.92 -11.78,-23.4 -15.57,-32.12l-93.97 -239.98c-204.41,-326.93 -436.69,141.75 -601.75,262.01 -220.32,-112.69 -208.45,-427.41 -511.94,-403.12 -86.23,41.99 -133.92,191.95 -217.09,287.54l-36.63 -38.25c-118.26,-130.85 7.49,-66.15 -105.16,-112.22l-55.56 160.89c-2,-5.49 -7.62,19.83 -13.7,28.38 -190.03,-59.99 -263.76,-143.16 -499.35,-75.9 -55.9,162.81 -21.44,138.05 -18.08,299.88 -317.87,-12.55 -979.48,24.46 -1242.47,-80.96l8.34 -327.48c174.29,6.12 204.46,49.6 379,49.3 86.87,-0.17 125.97,-10.12 195.57,-21.99 479.57,-81.72 122.13,19.61 490.75,-143.37 112.4,-49.68 163.15,-2.55 321.87,7.53 324.25,20.64 421.84,-57.38 699.34,-134.43 282.73,-78.53 477.74,-123.45 714.32,-74.53 141.36,29.27 268.05,16.68 384.27,46.41 185.61,47.52 658.84,395.51 985.22,235.68l580.99 -246.65c389.85,-91.17 458.26,55.81 746.47,59.56l156.64 238.31c65.47,131.16 133.2,278.73 131.96,427.46 -82.27,-21.57 -481.78,-253.97 -714.14,-95.97zm-7101.49 -694.37l218.33 -13.91c70.61,60.11 95.12,-88.61 37.77,110.27l-150.59 133.67c-82.49,-11.96 -83.39,-11.28 -163.75,-41.87l-161.61 -90.86c-256.48,-15.53 -1184.36,-172.64 -1430.37,-336.29 -122.61,-81.6 -111.12,-92.19 -136.35,-142.69l288.56 -268.9c79.13,-64.07 -12,-10.51 85.34,-65.39 106.74,27.18 649.78,312.34 709.72,383.98 126.47,151.19 -3.45,141.79 299.53,245.34 139.92,47.81 295.37,43.52 403.42,86.65zm7682.52 -445.28l288.43 -25.99c-53.43,110.05 -130.6,171.7 -266.22,187.1l-22.21 -161.11zm-6245.51 604.35l50.03 87.55c128.94,9.27 154.98,20.25 271.07,47.18l276.4 86.52c-133.2,150.05 -311.07,144.05 -497.1,194.76 -402.1,109.5 -797.53,41.22 -1186.48,-76.79 -292.09,-88.57 -163.79,-198.2 -94.83,-401.93 93.25,-97.76 365.52,-62.71 511.27,-32.42 242.18,50.29 180.71,134.65 508.15,105.21l2.39 -38.59 -249 -52.96c-16.29,-48.24 6.98,-0.89 -19.48,-57.77 -27.61,-59.39 -0.77,-26.04 -62.79,-78.87 -195.65,79.55 -981.61,-13.79 -1236.17,-81.22l-226.92 -84.99c-21.91,-12.68 -31.82,12.08 -45.39,-31.44 -3.66,-11.83 -15.57,-10.68 -22.72,-16.89 94.74,-114.82 221.98,-133.24 245.81,-283.24l-201.95 147.02c-124.9,-31.39 -557.97,-222.45 -684.45,-295.07 -28.25,-16.2 -138.22,-80.4 -157.49,-93.37 -134.56,-90.41 -239.76,-286.95 -257.97,-445.92 102.19,-83.43 300.09,-157.07 446.22,-148.3 132.22,231.85 65.98,280.51 373.64,356.92 166.98,41.43 396.87,148.98 545.85,166.55 68.07,236.53 75.26,213.3 333.23,292.05 315.7,96.35 681.17,189.48 1017.08,199.18 160.64,4.63 379.55,-56.46 499.52,3.82 393.3,197.61 566.91,57.56 978.11,53.44 367.99,-3.75 725.08,146.17 1068.35,106.99 360.07,-41.1 581.03,-237.3 946.46,-262.18 199.69,-13.58 426.35,24.24 576.65,12.97 559.08,-41.95 808.07,289.92 1444.45,273.2 227.17,-6 247.59,-86.7 500.89,-112.35 191.77,-19.44 309.4,-98.19 469.06,-108.82 11.48,17.36 162.55,405.46 171.99,452.17 -606.21,-6.51 -419.8,-133.58 -818.67,-85.08 -287.07,34.88 -374.66,224.62 -646.37,166.46 -78.19,-148 8.93,-123.28 -144.64,-266.52 -45.44,98.91 41.14,226.32 28.76,411.63 -214.92,57.99 -579.8,-106.48 -756.14,-212.07 -529.25,-316.97 -439.41,-128.05 -608.17,-363.47l-69.94 232.36c-658.03,31.61 -938.12,380.53 -1627.25,164.85l-63.64 -182.97c-60.07,201.09 11.19,302.89 -185.06,349.43 -523.09,124.14 -988.45,-85.55 -1402.76,-97.03zm-1702.17 -2098.49c57.26,-59.43 -86.36,-70.83 135.41,-22.67l370.37 158.04c140.9,38.92 383.55,84.91 534.06,113.24 189.1,35.61 380.15,67.43 568.91,102.19 120.48,22.16 479.53,1.61 516.54,162.21 -7.23,480.84 552.95,555.25 661.6,119.5 45.22,-146.52 68.67,-110.57 246.02,-94.49l901.07 71.39c665.18,43.73 1804.27,100.35 2450.39,79.85 180.97,-5.75 1072.72,-17.4 1129.22,156.04l141.45 57.69c36.71,-115.97 443.03,-62.28 571.33,-83.85 361.26,-40.8 664.33,-122.22 1040.31,-107.59 489.31,19.1 591.67,135.75 816.33,277.62 -0.04,132.39 25.95,206.97 -67.09,280.57 -85.64,156.51 -163.02,80.31 -254.06,16.37 -65.98,-46.32 -131.58,-88.18 -202.62,-126.05 -457.07,-243.46 -1388.64,-265.97 -1847.92,-217.47 161.06,145.11 383.34,253.17 477.7,442.14 -414.14,23.82 -649.61,191.56 -1072.3,153.7l-120.94 -251.29 -69.43 -7.87 157.27 392.18c-406.01,2 -653.39,-39.64 -1032.14,-175.31 -800.54,-286.77 -451.87,-263.54 -713.5,-459.45l115.71 388.71c-986.28,-187.1 -1054.56,194.41 -1561.91,206.45 9.44,-182.84 31.69,-257.08 -31.52,-435.71l-56.71 469.27c-73.13,33.57 -2.98,23.15 -104.1,18.42 -13.19,-0.63 -91.68,-21.14 -108.18,-26.12 -81.47,-24.67 -141.92,-46.2 -226.54,-65.51 -764.81,-174.55 -1093.44,124.05 -1436.83,-107.8 -18.64,-195.52 78.19,-218.15 154.29,-386.45 -170.08,91.51 -178.5,256.44 -296.72,375.43 -440.35,32.76 -1286.2,-44.07 -1655.89,-282.94 180.89,-292.9 392.96,-317.74 596.73,-540.96l-276.13 141.03 -339.23 296.64 -94.44 -111.42c-759.24,-178.46 -884.27,-204.24 -895.24,-735.46 168.63,-20.12 764.93,-161.52 878.73,-240.27zm7674.23 710.78c288.21,-37.18 367.72,-33.39 662.75,-188.2 209.64,-110.01 391.98,-196.58 602.51,-294.6 244.4,-113.76 1357.8,-490.42 1149.77,134.77 -270.31,14.98 -385.68,-29.27 -696.15,27.48 -485.95,88.83 -1460.32,519.31 -1718.88,320.55zm-4895.21 -267.84l-19.95 -5.15c-111.59,775.32 -759.24,322.85 -512.03,-67.3 28.46,33.23 10.81,0.73 41.18,71.01 9.49,21.9 7.19,42.88 25.02,79.17 87.25,177.56 338.16,99.25 349.47,-80.02l-12.03 -2.98 -263.93 -35.57c-4,-6.38 -6.47,-17.65 -7.7,-21.27 -1.15,-3.57 -5.87,-16.59 -7.23,-20.84l-11.79 -39.44c-16.29,-54.24 13.62,-6.59 -14.67,-51.39 -172.21,40.46 -82.32,93.29 -270.4,90.27l-920.08 -157.53c-303.45,-56.24 -892.69,-147.66 -1101.7,-340.75l105.37 -200.03c500.38,8.12 372.58,-120.61 833.65,88.14 1199.41,543 4933.49,485.31 6278.73,525.26l111.12 403.8c-776.89,-46.45 -1591.81,-51.26 -2375.22,-76.57 -597.7,-19.36 -1671.88,-38.5 -2227.81,-158.81zm5099.87 -85.21l-46.15 83.47c-182.93,-9.74 -211.31,-48.41 -369.6,-100.87l108.09 121.76c32.08,56.79 50.63,-63.01 29.31,118.13 -161.7,9.24 -128.73,37.57 -184.07,-94.18 -70.62,-262.91 -253.08,-742.05 -165.49,-983.9 246.53,-104.87 1118.76,244.4 1142.32,577.2 -292.72,9.02 -482.54,-104.48 -749.19,-175.91 172.37,228.36 211.43,37.31 234.78,454.3zm-7918.71 -509.43l-107.8 93.67 -111.88 37.48c-159.91,140.26 -465.32,164.34 -674.2,177.7l-65.94 177.31c-61.6,-127.58 13.4,-168.04 59.56,-280.6l-155.06 -160.64c97.38,-51.47 260.27,-99.21 390.44,-175.01 73.73,-76.79 79.51,-50.54 136.35,-139.58l358.67 37.73 298.47 37.86 -128.61 194.08zm6757.33 -320.21l432.99 2.93 10 98.36 88.95 565.21c-465.11,40.54 -1233.96,-30.04 -1730.03,-50.2 -982.71,-40.04 -4075.09,-17.15 -4670.5,-565.72 155.95,-75.21 300.85,-122.86 463.53,-208.58 396.1,-208.75 280.3,-206.45 404.65,-104.87 -49.09,129.25 -57.9,33.31 -59.72,207.73 96.61,85.56 74.95,66.71 195.69,94.11 282.09,63.94 288.47,144.47 555.2,-62.71l110.23 -193.31c93.59,66.96 127.88,77.09 174.97,183.1 441.41,66.32 295.37,252.14 583.46,422.39 200.62,118.61 135.75,-23.22 324.42,-28.88 219.77,-6.6 180.5,15.87 264.48,-161.11 191.18,9.75 621.53,-50.19 289.92,-285.75 181.35,-21.57 328.25,-118.35 369.6,-294.3 -89.04,-113.63 -96.23,-90.14 -228.32,-144.09 92.91,-135.66 165.74,-53.26 265.29,-270.05 73.98,-161.06 -69.98,-38.37 108.27,-146.56l880.82 -416.82c-9.66,724.57 444.94,1277.52 1166.1,1359.12zm-3533.79 -712.53l262.18 58.96c40.37,298.99 -266.09,521.43 -527.17,557.89 -270.31,37.69 -529.81,-432.39 -389.3,-650.58 164.51,-143.88 330,149.78 395.51,197.94l258.78 -164.21zm224.92 -60.24c115.16,-191.09 285.02,-195.22 492.5,-154.08 131.62,26.12 536.96,62.53 590.94,87.76 4.47,196.37 -353.9,239.21 -516.96,289.58 69.43,41.99 302.47,63.43 473.53,203.9 -134.48,227.34 -345.52,121.93 -521.52,223.77 136.05,165.7 194.2,34.93 258.1,211.35 -365.94,113.11 -394.27,-78.28 -560.91,-93.47l144.73 288.48c-354.97,-27.87 -273.59,-130.44 -505.61,-228.79l152.26 298.85c-168.21,-54.92 -315.32,-228.45 -393.94,-376.02 116.23,-113.38 324.81,-167.36 428.06,-305.96 187.6,-251.93 61.68,-275.03 -41.18,-445.37zm-1703.58 352.08c124.69,-128.95 262.23,-245.3 392.79,-393.64 93.21,-105.8 222.36,-340.72 324.51,-414.52 165.69,113.45 228.74,102.56 270.77,338.63 -125.92,62.32 -129.37,9.27 -268.95,147.53 -59.68,244.7 39.87,307.19 77.81,519.39 -163.7,135.58 -147.11,243.68 -427.79,254.99 -26.42,-140.85 -20.81,-82.66 68.83,-195.14 -161.45,65.94 -218.07,178.68 -412.57,69.98 31.86,-192.33 174.12,-120 306.34,-286.47 -228.02,41.05 -238.06,102.1 -331.74,-40.75zm10510.85 -1157.17c-77.72,120.81 -100.48,100.65 -233.21,64.57l151.96 -149.02c63.08,59.43 29.35,-30.97 81.25,84.45zm-8311.15 136.09c133.53,-43.27 271.15,-193.27 346.75,-78.54 144.6,-40.54 61.22,-33.82 131.28,4 57.26,-42.33 110.65,-53.73 199.57,-62.87 181.09,-18.64 176.59,-56.8 231.08,59.72l189.01 -85.84 241.43 -77.47 29.26 89.85c88.92,-52.84 72.79,-74.62 177.74,-119.33l149.66 -39.44c-14.29,392.11 -71.76,301.11 -581.84,544.4 -338.67,161.53 -396.48,325.96 -476.5,197.23 -115.16,50.66 -154,112.6 -227.81,20.5 -104.95,58.45 -113.72,78.7 -165.23,-19.95l-119.21 42.58 -38.54 -64.19c-129.54,32.37 -222.57,76.96 -216.83,-78.96l-311.87 150.47c-45.82,109.63 -64.92,119.84 -175.74,176.21 -127.41,36.71 -39.35,-5.87 -103.25,70.87l-88.27 -6.76 -10.17 -71.69 -154.04 91.89c-42.72,-440.04 -53.95,-565.8 17.14,-993.38l1041.16 136.6 -84.78 114.1zm-1133.52 370.49c-4.64,6.34 20.76,129.24 -54.41,-27.82 -11.45,-23.91 -30.38,-102.4 -37.1,-127.29 -133.03,19.4 -55.43,27.06 -115.07,-23.44l-79.3 -36.92 16.72 -116.61 42.11 -64.96 102.02 21.7 35.05 -181.32 166.43 -122.09c23.31,69.34 -18.47,641.27 -76.45,678.75zm9269.87 -589.46c85.76,-85.55 -15.4,-41.86 123.62,-113.11 -74.27,134.51 59.82,40.33 -123.62,113.11zm-281.63 29.78c-182.37,-139.06 -171.14,-394.65 -93.46,-578.69 8.93,287.54 124.65,364.37 93.46,578.69zm-3672.01 -795.1c93.81,-1.66 34.16,-36.58 96.19,30.34 -17.74,70.53 10.85,31.6 -39.35,77.63 -95.63,-71.08 -49.77,0.3 -56.84,-107.97zm-22.59 572.99l103.64 21.28 -69.94 279.54c257.25,505.13 -227.22,1063.15 -618.3,1329.37 -281.33,191.44 -477.02,207.73 -814.33,138.22 -235,-48.41 -561.29,-142.39 -669.94,-368.83 -246.95,-83.43 -369.86,-654.97 -366.37,-900.86 4.64,-324.93 186.42,-680.67 397.34,-861.51 360.2,-308.81 403.76,-333.91 826.32,-147.62 296.9,130.86 541.81,269.54 820.84,440.65 74.49,2.08 49.43,16.84 49.43,-69.09 -155.02,-56.58 -398.35,-234.57 -587.88,-328.76 -107.5,-53.43 -224.53,-105.21 -329.65,-144.17 -127.33,-47.18 -230.83,-40.76 -260.48,-137.84 222.41,-151.19 1216.98,327.36 1519.32,749.62zm-95.59 -520.79l170.94 158.94 -98.74 160.97 -149.2 -117.62c-321.14,-193.1 -759.32,-485.06 -1132.28,-529.86 84.74,-233.64 83.17,-263.12 630.17,-19.01 184.88,82.53 441.19,201.52 579.11,346.58zm1542.9 385.47c-171.27,174.12 -483.83,493.74 -701.68,618.98 169.65,-74.62 250.23,-181.61 426.48,-197.73 122.26,-58.92 349.64,-43.78 448.04,52.58 20.04,241.46 -310.85,427.11 -530.06,501.01l-1131.95 504.24c193.48,-0.17 444.22,-104.39 630.09,-171.61 138.21,47.22 240.95,72.49 330.8,188.29 11.87,275.67 -304.94,363.56 -555.25,429.84 -269.08,71.21 -539.09,127.11 -765.07,-32.29l-165.49 -28.29c137.46,-156.51 276.57,-198.97 404.57,-360.16 175.91,-221.51 359.56,-538.79 338.63,-836.75 -17.61,-251.16 -77.63,-145.87 11.79,-261.5 32.63,-42.16 41.73,79 59.51,-97.59 13.36,-132.69 -142.34,-200.62 -204.96,-323.06 66.75,-139.58 153.23,-353.14 214.92,-474.21 125.41,-246.23 1160.23,-547.72 1457.17,-586.35 138.13,-44.75 283.92,-35.01 414.48,27.14 43.48,267.59 -83.21,411.51 -242.78,603.33 -105.46,126.77 -289.58,358.62 -439.24,444.13zm-1424.72 -437.67c-179.14,-18.84 -271.92,-161.36 -575.58,-300.81 -207.65,-95.33 -436.31,-124.86 -624.6,-248.06 142.69,-105.07 513.99,65.99 687.39,140.22 163.1,69.81 467.36,249.12 512.79,408.65zm-10784.38 1251.66c-539,-534.58 -141.28,-1070.17 372.7,-1361.29 1046.27,-592.64 2029.95,-718.52 2884.44,-1042.52 662.97,-251.37 195.61,-657.18 1088.72,-386.61 361.77,109.58 460.56,-190.63 883.16,-164.47 277.5,66.54 330.08,208.41 501.4,399.81 153.15,171.1 427.92,211.17 649.18,251.76 585.37,107.37 954.03,369.17 281.88,783.27 -931.57,573.88 -1205.12,860.27 -1837.79,1729.35 -602.47,827.52 -1428.93,1155.05 -2432.4,965.69 -725.37,-136.89 -1942.44,-564.56 -2391.29,-1174.99zm8822.75 -3430.38c43.4,-10.21 -4.33,-38.28 45.31,9.28 38.25,270.35 -58.45,388.91 -269.07,540.66l-51.73 -227.47 -74.49 -110.95 349.98 -211.52zm2377.73 1080.94c-82.1,107.29 -29.05,111.63 -87.8,216.54 17.06,256.44 -108.48,586.43 -164.55,840.36 -208.37,-128.13 -362.88,-257.16 -590.1,-380.83 -282.77,-153.92 -442.68,-140.94 -714.95,-246.49l377.81 -734.01 33.91 -124.43c96.18,-173.7 130,-513.3 251.12,-756 157.4,61.72 280.31,209.6 352.33,369.68 141.87,-75.04 446.17,-219.43 602.51,-211.56 17.87,225.3 -58.66,262.7 -79.76,456 157.36,-40.58 216.96,-28.16 382.45,11.36 -8.17,151.83 -208.8,521.69 -362.97,559.38zm-2791.48 -858.78c387.8,1164.23 -567.8,1262.12 -1381.11,760 -565.68,-349.22 -909.88,-1299.13 782.46,-1136.92 -91.55,241.89 -132.47,127.92 -202.2,276.43 234.75,251.98 510.84,151.54 800.85,100.49zm-545.26 -752.01l0.3 283.24c-85.55,29.78 -30.93,23.87 -144,-1.15 -68.88,-15.23 -83.81,-22.12 -165.4,-39.99l309.1 -242.1zm-3212.94 428.78c-229,96.57 -556.87,385.51 -1135.99,91.89 -838.87,-425.29 -492.67,-1177.21 150.73,-1083.19 264.86,38.67 321.78,-94.19 595.75,49.22 388.11,203.17 541.25,527 389.51,942.08zm1550.59 -191.53l529.13 170.68 -115.96 139.66c-607.28,938.34 1715.35,2023.66 1984.81,723.81l85.89 29.43 434.52 -11.57 18.59 114.23c-62.07,351.6 -263.84,437.92 -527.56,538.4 -70.62,26.93 -40.37,9.83 -78.7,36.42 97.12,175.74 257.46,223.68 456.77,248.14 212.45,27.65 344.41,-28.67 532.24,-105.29 -111.68,345.01 -335.44,319.44 -729.12,650.29 -359.95,302.47 -276.86,504.88 -754.69,610.77 -585.5,129.71 -1897.43,173.91 -2444.43,-76.58l209.47 -177.57c269.33,-220.96 1091.92,-698.48 1239.19,-922.55 389.9,-593.28 -951.1,-632.42 -1203.24,-801.23 -167.44,-112.09 -254.18,-450.42 -610.64,-485.48 -372.75,-36.67 -522.28,262.95 -843.64,175.19 -435.71,-118.95 -446.22,-219.52 -793.1,112.94 -210.96,202.25 -376.49,366.75 -703.08,341.91 -142.98,-192.16 -332.76,-447.49 -345.01,-696.36 -98.27,-103.08 -124.95,-341.86 -138.26,-500.46 -8.64,-103.03 -11.66,-213.81 -7.79,-317.1 4.3,-114.57 1.24,-138.01 57.77,-205.86l179.27 -3.74c153.83,-53.69 275.46,-57.39 370.84,-186.59 -61.99,-122.39 -169.23,-194.25 -174.38,-365.99 -3.06,-101.97 42.2,-323.99 148.55,-285.41l271.84 298.52 131.5 64.41c-197.22,162.93 -431.54,207.13 -440.01,540.1 -19.82,777.96 1478.11,1100.97 1708.64,538.41 267.93,-133.92 65.56,-626.72 -91.38,-807.06 -287.41,-330.29 -383.72,-228.74 -724.52,-357.94 -70.84,-175.74 -58.75,-230.19 13.74,-402.23l154.21 -85.21c70.62,226.4 136.3,262.9 219.17,436.13 327.4,199.35 453.62,378.66 902.22,312.98 -34.41,-144.56 -186.46,-159.4 -242.27,-437.75 -134.47,-670.28 467.96,-864.7 833.51,-655.91 99.38,56.76 102.02,98.79 154.98,163.45 517.39,-241.13 963.61,125.28 921.75,647.74 -50.8,634.16 -760.64,712.27 -875.38,790.88l284.56 203.39zm4274.31 -1236.04c359.31,-45.69 588.9,-133.07 878.31,-332.12l191.87 -153.79c387.42,172.72 450.81,260.36 912.3,341.65 1033.97,182.08 2200.5,71.69 3336.65,300.13 3152.11,633.7 3401.15,3672.95 772.94,5266.17 -499.44,302.77 -1350.01,535.09 -1819.33,65.68 -679.81,-679.98 101.55,-1945.93 261.37,-1195.03 -12.25,141.62 -10.16,163.49 -96.99,262.87l-9.95 -249.13 -85.81 8.21c-297.88,135.45 -415.25,857.04 156.21,1005.56l63.47 -28.04c-193.94,-86.83 -325.95,-130.39 -361.09,-355.39 625.23,162.98 1522.43,-68.96 1900.92,-622.85 449.37,-657.61 203.65,-1334.91 -71.47,-1975.5 705.68,300.05 666.97,900.18 775.66,1109.27 20.42,-322.21 -89.38,-618.21 -288.77,-852.7 -185.01,-217.64 -556.19,-298.39 -665.22,-469.45 205.56,59.69 468.55,219.43 649.99,341.65 257.93,173.74 277.46,330.98 411.89,492.55 -176.25,-674.84 -1137.6,-990.83 -1747.22,-1173.46 -364.54,-109.17 -816.25,-201.27 -1192.78,-252.23 -377.73,-51.18 -912.47,-77.09 -1261.48,-154.6 -474.17,-26.42 -1852.47,-133.28 -2173.15,-381.04l809.61 -35.27 1060.13 -139.02 -1067.92 55.51c-178.54,102.1 -682.96,62.84 -903.92,20.34 -283.58,-54.54 -481.86,-74.66 -679.21,-288.9 401.2,80.7 557.37,129.15 988.28,134.05 253.93,7.31 555.42,-20.55 812.2,-40.42 133.88,-10.38 657.01,-38.92 772.3,-104.74 -646.55,-30.41 -1297.99,102.57 -1978.31,49.4 -491.78,-52.33 -1014.32,-262.83 -1234.72,-723.17 343.05,57.52 517.9,110.82 883.24,73.81zm-7658.57 2577.21c-78.4,56.49 -421.33,175.69 -539.12,168.25 -110.14,-6.98 -312.94,-191.95 -405.76,-265.16 -286.73,-226.15 -478.64,-414.65 -692.07,-713.51 -556.36,-778.97 -452.04,-1823.67 -103.5,-2098.53 167.53,303.92 -323.87,681.35 374.49,1214.05 251.34,191.74 194.2,488.29 771.87,664.59 370.16,112.94 -68.87,102.31 594.09,1030.31zm5964.74 -2964.55c-83.55,-224.06 103.51,-424.6 313.02,-323.4 86.83,248.06 -150.38,402.27 -313.02,323.4zm352.71 -400.95c272.48,-137.71 1147.26,-317.53 1300.75,20.76 -167.19,259.2 -907.11,192.88 -1213.28,217.22l-87.47 -237.98zm-303.96 -31.99c-81.04,105.8 -93.03,139.79 -262.73,131.28l-35.01 -115.92c60.07,-491.19 556.69,-256.83 297.74,-15.36zm-321.86 -236.87c-106.36,168.21 -228.96,216.28 -292.14,25.27 -57.85,-225.6 66.75,-411.8 295.75,-417.46 65.81,158.89 67.01,233.63 -3.61,392.19zm405.97 -95.34c257.63,-192.16 1032.61,-469.06 1264.54,-156.42 -85.93,294.43 -889.03,351.77 -1168.65,395.72l-95.89 -239.3zm-256.44 -55.05c-82.96,-282.26 -33.23,-381.89 210.03,-565.5 144.77,-109.29 493.86,-282.48 661.77,-163.66 328.51,232.45 -684.45,703 -871.8,729.16zm-5204.05 -816.92l18.76 -171.83c149.27,21.79 136.34,21.32 174.71,160.85 44.63,99.98 45.95,71.22 -41.22,162.55 -119.84,-40.67 -90.95,-25.99 -152.25,-151.57zm260.6 -78.7l-3.78 -145.92c174.97,-14.55 195.82,-11.57 215.47,158.42 68.79,99.93 46.58,52.5 10,172.34 -171.27,-19.19 -160.21,-31.01 -221.69,-184.84zm5330.45 -428.65c202.67,-30.42 321.27,-400.06 974.24,-372.49 214.92,9.06 337.7,57.85 526.45,168.04 818.37,477.74 873.8,1803.12 -20.63,2028.88 -91.08,-151.44 83.13,-168.67 -300.81,-298l-142.69 -51.73c62.37,-120.44 147.75,-98.19 150.43,-252.31 6,-339.91 -603.96,-180.98 -819.9,-187.87 567.16,-509.98 -19.1,-784.25 -599.96,-332.8 -59.39,-300.81 201.86,-488.84 232.87,-701.72zm-4753.71 398.78c65.64,102.15 48.96,42.93 16.29,160.26 -163.1,54.92 -217.64,7.53 -277.96,-137.67l29.09 -145.32c160.6,-23.27 176.34,9.53 232.58,122.73zm-1090.13 -471.48c120.57,109.24 160.17,208.79 310.77,293.83l-132.18 91.59c-165.02,176.85 -718.14,-580.09 -711.5,-819.26 283.37,-20.55 471.65,178.03 532.91,433.84zm5843.84 72.7c-112.35,67.51 -204.03,254.1 -250.95,396.32 -75.09,227.59 6.55,357.73 -162.04,482.08 -255.85,-488.51 354.24,-1264.21 813.86,-1486.23 1167.76,-564.15 2791.65,958.29 2027.48,2065.6 -424.95,615.74 -1563.7,728.1 -1714.63,602.68 415.03,-72.49 940.67,-83.55 1241.44,-430.01 313.19,-360.75 335.91,-856.91 147.15,-1284.24 -369.94,-837.47 -1605.64,-1157.81 -2102.31,-346.2zm-5403.49 -896.73c224.7,-18.93 284.99,262.69 328.29,458.72 23.49,106.57 50.29,220.92 71.43,329.78 169.06,870.66 -627.4,-305.57 -399.72,-788.5zm-4.08 1117.22c-478.89,-309.15 -644.42,-978.11 -443.2,-1058.51 322,-128.65 289.2,562.27 616.55,1000.74l-173.35 57.77zm-995.73 -436.13l237.21 356.49c-268.69,118.91 -414.48,155.92 -669.34,334.47 -210.63,147.53 -317.24,354.32 -522.97,484.8 -617.83,391.76 -465.91,824.92 -730.6,1254.76 -299.88,486.93 -303.96,1127.22 -105.17,1652.35 240.49,635.23 748.44,972.54 827.09,1119.35 -240.06,3.07 -694.7,98.91 -896.3,15.91 -429.2,-23.52 -530.03,-160.55 -878.23,-317.78 253.08,314.04 858.02,457.83 1257.27,409.12 123.76,-12.21 289.24,-32.33 430.14,-48.2 220.11,-24.8 232.02,-26.46 354.8,156.6 -307.41,52.66 -688.67,155.7 -985.39,63.34l-272.95 -8.51c163.74,89.42 372.2,88.83 570.4,104.44 226.57,-8.85 513.3,-15.61 694.49,-166.55l200.11 127.11c-168.25,74.41 -596.98,162.77 -707.33,265.68 -793.49,212.11 -1052.65,508.75 -1440.59,676.7 -598.68,-475.48 -1343.71,-1750.28 -1449.51,-2577.12 -133.88,-1046.3 357.56,-2184.71 1282.41,-2708.57 -293.75,350.67 -606.94,787.53 -704.7,1284.29 -92.87,471.95 50.8,1134.07 538.66,1325.67 -731.97,-546.23 -556.87,-1521.54 -73.51,-2195.86 532.28,-742.65 969.26,-869.97 1813.97,-1284.63 233.76,-114.77 458.3,-231.08 687.21,-354.92 387.51,-209.56 454.77,-405.38 549.85,-426.99 45.69,198.12 -134.73,49.48 -7.02,458.05zm7927.13 3674.22c122.74,50.92 278.99,113.5 400.15,167.78 172.04,77.09 127.75,214.54 122.9,416.4l-393.85 168.89 -92.99 -140.52c-99.55,-109.63 -173.83,-181.73 -327.15,-202.2 -87.59,109.29 -186.5,446.69 -217.21,597.88 -48.54,239.13 -141.92,367.94 -250.66,588.18 -180.76,340.84 -132.9,435.2 -406.48,556.14 -251.93,111.38 -532.41,84.24 -749.58,-73.59l113.84 -50.03c49.05,-21.36 44.37,-15.06 95.04,-44.63 265.16,-164.17 377.21,-330.54 316.04,-671.64 193.77,-59.77 386.74,-188.29 359.69,-403.81 -44.55,139.2 0.51,76.15 -93.47,155.75 -153.23,223.34 -581.71,285.79 -835.77,190.29 24.04,-99.38 -44.37,-35.65 67.86,-74.75 469.53,-465.49 143.91,-490.25 298.51,-744.9 145.07,-239 346.67,-302.94 310.98,-674.84l-136.05 324.51c-169.19,466.13 -877.25,875.76 -1429.48,651.35 -80.66,-166.08 -18.72,-31.22 12.13,-55.98 87.16,-150.47 225.21,-234.57 216.91,-464.89 -13.01,-360.42 -126.94,-49.14 53.14,-466.94 155.23,-360.16 202.58,-687.17 -106.1,-955.44 180.04,315.06 189.99,402.61 104.91,773.15 -186.76,369.09 -309.49,633.1 -738.56,775.83 -365.14,121.45 -895.5,37.56 -1189.34,-217.43l96.23 -29.82c691.3,-166.64 977.9,-1061.54 347.61,-1496.91 -261.5,-180.63 -392.23,-83.17 -642.72,-42.63 -553.63,-583.2 -1381.57,120.57 -983.64,823.1l77.55 146.21c-904.85,-39.14 -1260.93,-1198.77 -486.08,-1599.81l136.86 -91.38c-258.91,31.95 -312.55,130.86 -475.66,304.85 -289.02,488.8 -48.58,481.32 -246.23,673.64 -233.76,227.47 -241.72,318.22 -89.8,640.51l-254.91 -57.94c-257.29,-88.4 -459.62,-233.26 -527.94,-509.78 -86.15,-348.84 31.69,-493.01 153.75,-767.02 -115.16,63.26 -95.38,42.8 -152.73,162.13 -112.01,178.63 -118.94,431.07 -68.41,631.74 -78.99,113.84 -186.67,187.69 -203.98,377.85 -15.1,165.57 6.08,327.48 170.33,394.87l-76.95 51.09c-196.71,71.34 -454.69,126.73 -646.08,11.02 -69.47,-42.03 -149.87,-140.6 -178.46,-217.47 -53.43,-143.66 -9.19,-316.94 -79.26,-212.62 -42.58,311.87 100.06,501.01 385.85,569.97l-1.44 666.71c-375.9,-59.01 -622.34,-308.17 -755.75,-644.42 -203.99,-514.24 -2.47,-778.89 107.84,-1015.64 -327.65,167.32 -260.82,638.55 -237.51,948.3 -311.91,-233.3 -364.19,-644 -228.32,-1009.13 165.96,-446.09 313.83,-484.97 627.74,-739.54 -344.28,11.61 -502.07,380.23 -671.38,635.61 -145.62,-591.16 533.81,-1359.96 1082.63,-1342.52l-311.95 7.7c106.9,-215.13 682.19,-600.69 952.63,-628.51 118.52,-12.21 444.05,197.01 488.25,293.15 5.36,11.62 81.04,431.16 347.9,118.06 187.95,110.94 189.9,3.61 310.89,-6.3 0.34,-0.04 544.24,143.49 316.43,-298.64 -68.5,-132.86 -71.94,-90.87 -189.4,-160.34l-96.23 -638.08c139.84,-126.69 329.78,-223.04 510.54,-246.15l309.41 415.34c-44.71,-177.23 -181.91,-285.71 -269.21,-421.33 100.44,-70.58 81.34,-51.86 218.88,-73.09l234.91 471.66c-23.82,-206.46 -147.74,-342.89 -166.12,-488.89 442.22,-46.41 840.07,-28.03 1257.1,120.78 190.63,68.06 752.43,287.02 687.68,556.01l-8.46 26.55c366.15,-89.64 678.45,-146.98 1063.24,-147.11l-135.58 154.64c197.6,-103.16 205.22,-201.43 436.09,-112.65 52.15,122.31 -248.06,470.04 -56.96,1109.01 128.81,430.65 -20.85,183.82 -31.87,508.59 -7.06,207 113.54,364.49 328.76,265.75 21.66,204.92 34.16,259.89 248.53,262.61 -123.84,554.53 247.34,217.22 442.43,310.38 479.53,229 274.78,113.8 462.85,402.91 222.79,342.42 588.78,589.46 964.71,812.42zm-7075.15 -4253.68c-604.77,-294.73 75.3,-824.58 470.98,-871.29 494.33,-58.37 1025.41,218.49 1053.62,727.63 -132.26,71 -350.2,81.72 -515.13,133.24 -170.38,53.26 -307.62,190.28 -464.73,212.7 -115.97,-118.18 -89.5,-263.8 -214.92,-351.22 -193.01,-134.56 -246.06,53.48 -329.82,148.94zm8365.22 2307.07c-129.92,116.35 -163.4,448.98 -815.35,772.08 -44.79,22.21 -165.65,78.53 -211.6,83.17 -108.35,10.89 -128.94,-43.48 -152.13,-53.18 -66.36,90.62 -45.47,90.36 -149.61,119.67 65.43,-102.65 81.46,-74.49 30.03,-157.1l-231.94 156.46c102.36,-43.3 116.91,-119.37 121.67,-231.08l-73.64 73.34c-268.6,225.94 -285.53,204.16 -661.6,113.42 -189.23,-45.69 -468.72,-110.36 -588.09,-264.27 237.46,-154.34 749.75,125.24 1179.16,36.67 1461.6,-143.66 1985.15,-1701.36 728.61,-2601.54 -1467.64,-1051.37 -2736.61,342.29 -2474.38,1424.12l-153.07 31.82c-39.52,11.15 -93.04,31.95 -129.07,47.18l-80.23 -325.4c138.39,-28.76 186.16,-33.14 237.98,-154.47 -91.43,-43.35 64.74,18.72 -58.03,-33.61 -159.49,-67.94 -83.17,35.74 -204.29,-11.44 -51.85,-689.77 533.3,-1445.22 920.22,-1494.95 -112.14,70.79 -252.82,398.4 -261.04,565.89 176.64,-286.14 296.77,-664.67 677.65,-726.36 -145.96,169.23 -272.61,233.21 -359.44,439.5 249.13,-147.45 407.13,-487.87 723.12,-501.82 947.62,-41.9 1971.16,639.65 2081.13,1545.32l-207.98 -254.06c120.6,207.05 262.52,400.87 262.05,654.12 -92.44,-115.33 -67.04,-201.95 -185.78,-302.81 129.97,554.87 210.97,472.21 35.65,1049.33zm-8829.01 -2271.51c-141.92,-303.1 -71.38,-766.47 163.57,-987.72 264.61,-249.21 507.44,-350.93 882.02,-370.11 822.96,-42.21 1270.24,415.5 1387.44,1202l-343.94 -19.01c-181.66,-542.49 -501.57,-917.88 -1144.84,-825.01 -762.21,110.06 -783.1,789.44 -944.25,999.85zm-93.33 -12.42c28.58,116.1 89.67,230.7 110.18,312.94 -88.57,-164.85 -264.06,-37.06 -380.41,-398.87 -228.96,-712.4 299.2,-1541.58 731.38,-1630.32l275.03 289.54c-29.95,-209.01 -109.42,-200.5 -231.09,-349.86 146.51,-94.91 196.88,14.08 314.47,126.43l-113.5 -239.93c415.8,-147.96 747.62,-221.69 1202.81,-131.58 264.02,52.28 274.61,68.06 377.35,315.1 71.08,170.93 90.06,358.03 131.75,489.82 45.6,-278.52 -27.48,-434.47 -133.92,-676.83 152.81,56.75 199.64,182.71 241.55,342.24 48.41,184.42 9.53,345.91 75.38,453.88 60.45,-283.5 14.85,-394.53 -64.66,-657.39 589.79,319.61 852.44,1052.05 722.52,1755l-337.18 -100.44 100.27 -289.92c-123.41,127.5 -85.68,247.59 -250.02,259.89 96.91,-126.56 198.2,-283.8 184.21,-448.9 -34.89,137.24 -195.74,437.79 -351.52,427.75 -115.29,-358.75 -70.37,-612.21 -390.53,-909.74 -501.44,-466 -1304.92,-504.21 -1902.63,-73.52 -387.59,279.29 -138.6,474.77 -524.36,738.4l150.55 -12c-37.18,94.31 24.38,14.34 -108.18,99.12 191.39,108.18 72.11,-91.17 170.55,309.19zm-2987.01 7074.56c-198.33,343.23 -375.43,450.86 -211.47,914.81 306.55,867.55 1663.5,1200.74 2320.8,1462.41 -131.41,229.77 -412.48,189.73 -548.27,324.17 123.67,318.33 182.29,20.42 75.51,468.21l69.64 73.25c4.38,3.96 15.49,13.06 19.27,16.34 3.83,3.36 13.87,10.08 20.12,15.91l-436.9 171.66c-14.46,252.86 57.77,377.04 218.16,551.29 -124.06,192.76 -297.62,214.15 -413.42,360.16 166.55,596.38 1756.7,442.85 1950.35,742.6 90.4,140 -62.66,98.53 118.35,201.82 145.54,83.04 234.36,143.57 377.81,233.21 269.33,168.25 521.31,315.66 831.31,398.02 -13.87,304.51 6.42,1011.68 310.55,1161.72 184.93,-63.52 131.62,-93.17 251.5,-206.58 150.05,155.66 233.6,430.22 504.25,457.83 180.46,-145.19 123.75,-215.81 216.41,-353.05 727.41,646.42 476.12,-554.7 574.35,-771.7 391.34,-73.98 301.92,92.1 522.24,388.27 132.9,178.63 329.01,364.79 551.51,422.14 564.78,145.53 896.13,-429.2 1012.48,-886.65 1617.34,-19.23 1565.36,-365.81 1936.49,-474.08 267.08,-77.94 899.75,192.88 515.05,-565.85 71.68,-97.84 159.32,-78.74 139.58,-232.06 -11.57,-89.76 -116.1,-187.95 -149.28,-299.53 513.09,-377.39 250.53,-324.89 -61.56,-722.02 538.58,31.99 987.69,-83.55 1602.67,235.47 131.58,68.24 269.45,198.12 382.44,235.76 290.61,-287.32 352.72,-533.38 -67.72,-729.07 -469.57,-218.58 -735.37,-57.77 -1090.17,-117.8 275.46,-114.48 705.08,-208.41 1011.25,-219.9 113.76,-4.29 244.62,45.69 327.4,27.57 76.54,-166.12 65.64,-268.26 5.07,-439.83 -747.37,-416.32 -1993.58,785.86 -2456.82,577.24 100.74,-214.83 291.2,134.3 257.93,-489.82 204.88,73.55 331.06,137.15 524.28,13.74 57.9,-272.99 -211.47,-363.05 -367.68,-508.07 343.73,-50.67 1001.21,-146.18 955.31,-603.79 -97.42,-121.08 -178.51,-128.35 -247.59,-212.97 318.21,-172.67 951.31,-361.34 957.48,-794.25 -146.17,-160.68 -215.01,-147.36 -435.92,-145.32 211.17,-314.68 1098.8,-879.59 926.85,-1383.53 -373.69,-365.86 -1466.37,238.61 -1867.74,404.91 38.45,-208.24 87.84,-662.54 201.47,-815.1 138.09,-185.39 407.55,-448.47 338.5,-670.11l-330.58 -71.64c24.63,-326.59 203.05,-328.16 -125.42,-450.98l-12.72 -310.72c1303.26,291.7 4167.75,431.66 4918.14,885.62 567.58,343.4 829.17,1397.36 539.93,2057.1 -275.07,627.48 -1345.58,1002.78 -1969.41,746.56l9.1 -156.56c176.04,-9.74 265.97,92.49 371.18,-198.15 183.01,-505.74 -285.37,-723.93 -491.06,-205.78 -265.25,-225.3 -39.86,-846.27 158.68,-440.09 47.73,-447.41 -490.84,-148.51 -457.96,358.07 15.32,236.11 160.89,281.58 178.93,436.39 25.48,219.3 -50.67,319.79 70.96,573.42 832.41,1735.82 3927.47,-477.87 3970.78,-2448.18 30.33,-1379.91 -1206.95,-2357.64 -2439.42,-2645.23 -1517.79,-354.2 -3609.94,-43.47 -4397.29,-678.28 668.79,-607.53 714.99,-2057.26 -401.3,-2843.38 -974.66,-686.37 -2320.89,-481.61 -2928.13,573.37 -521.13,-118.26 -847.55,-10.38 -1340.99,90.44 -104.27,-266.22 -433.79,-428.3 -687.81,-535.17 260.31,-2082.15 -1689.36,-2476.12 -2699.38,-1970.82 -588.99,294.69 -1097.95,899.16 -1028.1,1594.08 51.47,512.24 84.15,484.63 -395.3,762.81 -292.17,169.48 -576.35,307.19 -880.05,452.81 -1206.86,578.73 -2325.32,1119.9 -2708.23,2512.84 -294.35,1070.68 146.72,2118.56 763.87,2982.88 215.6,301.96 403.93,454.72 639.74,711.16z"/>
  <path class="fil18" d="M11938.15 9362.69c193.01,-206.76 372.83,49.47 257.54,215.34 -86.7,-272.18 -140.94,-142.68 -257.54,-215.34zm-109.55 -13.62l-1.7 89.89 16.25 117.55c159.02,-52.33 32.08,-95.85 214.33,-80.96 45.22,73.64 18.42,34.97 39.13,95.42l29.06 82.53c2.38,5.91 8.17,16.93 13.1,24.93l114.4 -37.86 55.68 -107.38c-0.72,-129.58 -23.95,-266.95 -170.71,-302.42 -190.93,-46.16 -197.74,64.87 -309.54,118.3z"/>
  <path class="fil18" d="M9293.69 9210.69c-107.85,171.1 -90.02,318.38 123.66,357.77 66.79,-174.29 117.16,-325.1 -123.66,-357.77z"/>
  <path class="fil18" d="M5813.92 8143.7c-136.39,106.87 -94.4,286.18 92.87,299.96 57.81,-131.41 56.11,-249.12 -92.87,-299.96z"/>
  <path class="fil18" d="M6642.8 9875.06c170.85,-11.45 302.17,-0.34 350.92,-162.81 -132.04,4 -283.15,59.56 -350.92,162.81z"/>
  <path class="fil18" d="M6009.06 9734.03c26.29,-134.98 14.68,-191.05 -93.29,-273.24 -49.35,61.17 -126.56,26.63 93.29,273.24z"/>
  <path class="fil19" d="M10240.15 12843.05c382.4,103.03 1023.38,2.29 1345.8,-229.81 431.71,-310.77 452.21,-584.35 529.77,-1040.23 -39.99,-122.81 -87.98,-112.05 -197.44,-199.3 -279.03,-171.11 -523.94,-309.79 -820.84,-440.65 -422.56,-186.29 -466.12,-161.19 -826.32,147.62 -210.92,180.84 -392.7,536.58 -397.34,861.51 -3.49,245.89 119.42,817.43 366.37,900.86z"/>
  <path class="fil20" d="M10240.15 12843.05c108.65,226.44 434.94,320.42 669.94,368.83 337.31,69.51 533,53.22 814.33,-138.22 391.08,-266.22 875.55,-824.24 618.3,-1329.37 -93.34,-58.84 -93.25,-101.68 -227,-171.28 -77.56,455.88 -98.06,729.46 -529.77,1040.23 -322.42,232.1 -963.4,332.84 -1345.8,229.81z"/>
  <path class="fil21" d="M11899.18 14671.44l56.28 39.6c459.28,-48.5 1390.85,-25.99 1847.92,217.47 71.04,37.87 136.64,79.73 202.62,126.05 91.04,63.94 168.42,140.14 254.06,-16.37 -183.06,-151.96 -8.42,-150.69 -307.57,-264.31 -548.32,-208.2 -1227.84,-79.17 -1380.13,-126.86 -107.34,-33.61 -24.72,66.53 -101.85,-59.43 -128.3,21.57 -534.62,-32.12 -571.33,83.85z"/>
 </g>
</svg>
