<?xml version="1.0" encoding="UTF-8"?>
<!DOCTYPE svg PUBLIC "-//W3C//DTD SVG 1.1//EN" "http://www.w3.org/Graphics/SVG/1.1/DTD/svg11.dtd">
<!-- Creator: CorelDRAW 2017 -->
<svg xmlns="http://www.w3.org/2000/svg" xml:space="preserve" width="181mm" height="181mm" version="1.1" style="shape-rendering:geometricPrecision; text-rendering:geometricPrecision; image-rendering:optimizeQuality; fill-rule:evenodd; clip-rule:evenodd"
viewBox="0 0 18100 18100"
 xmlns:xlink="http://www.w3.org/1999/xlink">
 <defs>
  <style type="text/css">
   <![CDATA[
    .fil0 {fill:none}
    .fil1 {fill:#070707}
   ]]>
  </style>
 </defs>
 <g id="Capa_x0020_1">
  <metadata id="CorelCorpID_0Corel-Layer"/>
  <rect class="fil0" width="18100" height="18100"/>
  <path class="fil1" d="M9917.14 11517.71c-429.48,0 -1042.5,-211.31 -1384.65,-346.61 -2820.59,-1115.69 -3832.64,-5372.57 -1501.22,-7864.71l950.79 -780.46c4002.06,-2330.36 7998.46,2131.34 6246.36,6248.48 -170.19,400.08 -596.91,1040.51 -852.52,1299.73 -366.6,371.75 -693.7,662.54 -1203.72,946.62l-1193.82 421.07c-627.29,111.13 -399.17,75.88 -1061.22,75.88zm3106.72 2876.33c8.76,12.15 17.24,18.44 19.28,40.62l48.75 370.56c13.43,220.35 38.72,221.27 52.85,424.88l135.15 2737.58c33.91,172.1 10.6,74.81 46.77,132.32 220.28,-86.26 154.51,-221.34 84.35,-684.02 -74.88,-493.91 -57.15,-2246.78 -160.93,-2837.19 -2.69,-15.33 -8.27,-31.58 -11.17,-45.43 -65.21,-309.51 109.79,-447.63 241.55,-761.31 815.01,-1940.38 1879.26,-3958.89 2615.99,-5947.1 914.2,-2467.27 613.52,-3364.37 -1575.96,-4319.19 -254.2,-110.78 -1055.29,-371.69 -1203.72,-469.32 -300.4,-197.54 -572.19,-512.84 -986.26,-750.79 -1094.07,-628.71 -535.38,-28.33 -1340.21,-1170.8l-271.79 -381.43c-104.07,-91.42 6.01,-49.24 -148.64,-88.31 -82.73,206.08 165.88,417.39 297.5,591.33 85.84,113.46 121.8,161.86 198.17,280.69 88.8,138.12 149,179.94 216.54,299.69 -119.96,6.22 -791.27,-81.95 -940.76,-113.88 -261.83,-55.96 -443.33,-327.89 -603.77,-532.77 -123.28,-157.47 -902.82,-1116.68 -1079.45,-1082.41 -76.01,162.85 116.22,266.98 229.19,376.98 377.62,367.73 648.56,865.03 1085.38,1179.91 -161.08,107.25 -371.76,129.08 -632.94,157.83 -279.63,30.8 -357.91,-71.28 -581.87,-189.13l-1554.28 -841.36c-245.15,-117.2 -323.22,-178.24 -537.99,-298.49 -176.76,-98.98 -339.75,-154.58 -516.8,-258.93 -209.4,-123.35 -320.18,-290.58 -533.33,-176.55 104.99,181.57 121.03,150.84 331.56,256.88 180.01,90.64 237.38,140.95 422.27,238.58l2524.5 1354.98c-667.42,445.09 -859.94,293.05 -1262.78,193.23l-4010.46 -1020.32c-30.17,-7.27 -186.8,-37.09 -187.57,-37.09 -106.4,-4.17 -104.92,-6.78 -179.73,26.99 118.83,210.18 252.35,181.64 502.03,239.78 632.87,147.38 3825.07,906.71 4124.55,1065.11 -133.73,101.94 -270.93,206.29 -415.06,309.09 -211.87,151.19 -237.1,229.46 -418.81,382 -511.56,-104.49 -939.98,-355.23 -1413.33,-521.46 -372.04,-130.63 -850.47,-394.37 -1212.55,-466.57 -204.1,-40.69 -38.22,-61.25 -210.53,8.97 98.84,224.03 330.14,228.13 590.06,329.44 687.41,267.97 1406.76,472.85 2060.69,802.01 -69.59,103.92 -143.06,192.51 -223.6,299.55 -348.3,-192.24 -1023.07,-224.53 -1449.16,-299.84 -204.38,-36.17 -300.04,-95.09 -412.16,65.14 233,146.67 1189.94,213.64 1731.82,366.88 -59.21,214.92 -52.14,65.63 -117,289.87 -1622.38,5.51 -587.45,-18.15 -1702.29,156.92 -1389.94,218.23 -3510.69,460.56 -3122.4,2391.82 119.47,593.94 629.34,1693.03 910.31,2260.48l3034.52 5825.51c112.83,248.82 61.46,284.22 342.72,314.31 -125.19,-430.88 -1284.19,-2606.38 -1615.53,-3237.7 -781.24,-1489 -1910.35,-3284.75 -2404.68,-4890.11 -243.6,-790.99 -226.93,-1335.48 364.26,-1748.07 580.38,-404.96 2994.81,-968.6 4008.06,-878.73 -54.4,267.34 -368.43,816.14 -466.99,1192.84 -337.84,1290.9 -138.19,3050.34 587.8,4171.75 420.36,649.34 1011.41,1266.95 1715.43,1643.58 807.94,432.16 1792.93,697.16 2733.05,533.4 1741.29,-303.23 3005.2,-1316.26 3676.51,-3019.19 590.55,-1498.25 431.03,-3368.4 -418.32,-4703.88 -107.52,-168.99 -249.32,-352.18 -344.69,-550.07 821.08,203.89 2338.06,958.71 2583.28,1660.53 389.98,1116.12 -274.47,2545.56 -629.7,3400.34l-1635.59 3697.84c-222.69,539.4 -880.43,1783.25 -982.09,2251.23z"/>
  <path class="fil1" d="M10994.32 5956.22c-0.14,-412.59 153.81,-1015.09 418.25,-1199.13 646.29,178.96 658.52,2632.1 0,2818.4 -406.8,-304.71 -418.1,-1059.94 -418.25,-1619.27zm-173.51 598.18c404.54,2336.29 1425.06,858.53 1243,-770.07 -262.67,-2348.87 -1515.63,-804.27 -1243,770.07z"/>
  <path class="fil1" d="M8367.95 7036.02c-174.22,-126.18 -187.29,-243.88 -241.27,-486.28 -92.97,-417.46 -137.27,-1520.3 235.05,-1793 310.36,564.98 342.44,1749.2 6.22,2279.28zm-65.85 -2448.98c-634,390.34 -519.9,2291.85 0,2623.48 234.63,-70.86 328.59,-218.87 393.09,-499.28 120.46,-523.79 117.99,-1101.7 1.98,-1627.82 -62.24,-282.17 -157.69,-439.3 -395.07,-496.38z"/>
  <path class="fil1" d="M8797.07 10440.73c148.01,68.6 189.2,0.92 358.12,-99.33 1114.06,-661.56 1299.09,-629.13 2501.47,-381.5 544.21,112.05 356.85,41.61 416.4,4.02 -60.83,-156.13 9.19,-79.48 -160.37,-139.67 -283.3,-100.6 -1316.33,-242.75 -1701.72,-164.26 -324,65.99 -1235.51,465.72 -1413.9,780.74z"/>
  <path class="fil1" d="M9556.12 13492.84c233.43,-21.62 462.33,-232.86 711.23,-424.25l1325.44 -947.61c252.15,-174.08 509.03,-333.89 539.27,-546.4 -310.08,41.75 -1113.57,726.62 -1366.71,913.49 -297.36,219.51 -1114.27,705.85 -1209.23,1004.77z"/>
  <path class="fil1" d="M7529.56 11149.41c170.05,333.47 1502.84,2046.49 1702.92,2247.07 91.77,91.98 18.09,46.98 146.31,97.63 22.82,-38.64 121.87,4.24 18.94,-191.74l-354.24 -431.88c-169.27,-234.9 -307.67,-381.01 -478.22,-596.56l-694.62 -922.32c-96.58,-120.6 -151.75,-186.72 -341.09,-202.2z"/>
  <path class="fil1" d="M5012.26 17560.1c110.78,-154.36 753.83,-2375.5 654.35,-2563 -159.87,97.57 -132.25,124.91 -174.78,286.9 -36.95,140.6 -52.42,179.88 -97.57,327.18l-371.4 1362.96c-180.51,645.87 -179.24,472.71 -10.6,585.96z"/>
  <path class="fil1" d="M13023.86 14394.04l-181.01 -2.76c81.68,52.5 77.01,70.09 181.01,2.76z"/>
 </g>
</svg>
