<?xml version="1.0" encoding="UTF-8"?>
<!DOCTYPE svg PUBLIC "-//W3C//DTD SVG 1.1//EN" "http://www.w3.org/Graphics/SVG/1.1/DTD/svg11.dtd">
<!-- Creator: CorelDRAW 2017 -->
<svg xmlns="http://www.w3.org/2000/svg" xml:space="preserve" width="200mm" height="200mm" version="1.1" style="shape-rendering:geometricPrecision; text-rendering:geometricPrecision; image-rendering:optimizeQuality; fill-rule:evenodd; clip-rule:evenodd"
viewBox="0 0 20000 20000"
 xmlns:xlink="http://www.w3.org/1999/xlink">
 <defs>
  <style type="text/css">
   <![CDATA[
    .fil0 {fill:#283A55}
   ]]>
  </style>
 </defs>
 <g id="Capa_x0020_1">
  <metadata id="CorelCorpID_0Corel-Layer"/>
  <path class="fil0" d="M9396.66 9663.07l7.86 -912.47 2539.25 -1430.86 7.87 933.99c-520.06,228.91 -1893.68,1129.57 -2554.98,1409.34zm-5695.32 -924.62l4276.64 2372.39 6.85 -4729.06 -836.94 -475.92 -8.09 3788.35c-296.26,-104.41 -1470.36,-803.28 -1917.28,-1041.86 -198.82,-106.14 -450.89,-286.11 -645.84,-342.43l-1.55 -3827.22c-197.05,-103.62 -720.36,-374.56 -863.98,-478.67l-9.81 4734.42zm10490.38 6189.9c252.46,-194.11 923.08,-534.78 1253.03,-713.71 379.62,-205.84 904.4,-545.12 1299.93,-702.55l0.12 940c-386.12,134.44 -2303.95,1337.09 -2551.27,1375.65l-1.81 -899.39zm2342.47 613.19c247.73,-227.58 830.39,-416.73 1078.97,-638.94l-0.58 -2840.87c-138.27,25.33 -1862.98,1006.72 -2129.07,1163.89 -672.63,397.29 -1419.72,809.19 -2125.14,1176.05l3.93 4752.53 828.05 -435.47 4.31 -1886.65c237.81,-168.9 820.25,-486.3 1095.15,-610.66 207.83,58.59 956.59,512.09 1187.74,642.47 162.76,91.79 432.46,298.35 577.24,238.99 121.1,-49.64 452.33,-254.36 557.91,-326.63l-8.67 -660.13 -1069.84 -574.58zm-9116.76 -12964.3c152.55,-143.46 709.53,-467.5 853.45,-434.87l1644.8 910.06c229.08,127.41 622.62,320.7 814.06,471.41l-412.35 256.26c-149.23,80.22 -285.22,218.06 -439.42,182.45l-2460.54 -1385.31zm-3394.82 946.6c20.2,22.74 689.38,497.43 900.91,420.99 96.34,-34.8 358.58,-201.44 453.04,-252.91l896.7 -502.67c222.88,-129.56 241.43,-134.17 463.98,-3.87 200.99,117.67 777.09,376.44 876.52,544.24l0.14 1804.14c41.56,38.92 517.77,320.87 587.58,339.92 126.76,34.58 468.99,-219.04 647.66,-278.71l-39.64 -1229.08c908.51,303.59 854.79,775.16 1396.17,451.43 447.63,-267.66 2141.71,-1154.67 2271.08,-1293.48 -333,-214.31 -4149.64,-2340.32 -4225.88,-2341.64 -113.41,-1.96 -1864.42,1015.47 -2131.41,1156.83l-1583.58 885.77c-173.33,104.97 -347.91,176.52 -513.27,299.04zm5388.73 9959.36c303.56,99.95 3113.99,1789.78 3392.48,1875.05l-0.68 -913.07 -4263.76 -2404.7 14.07 4762.23 3210.02 1810.6c310.93,184.48 733.32,437.12 1040.02,568.88l-3.28 -945.77 -1701.72 -971.58c-562.31,-301.26 -1149.58,-627.15 -1684.7,-951.87l2.21 -922.91c263.77,100.2 580.11,322.77 859.6,472.33 288.75,154.54 554.09,310.58 840.07,477.34 230.41,134.35 1541.99,899.21 1689.13,927.45l-4.25 -902.5c-128.8,-119.32 -1414.25,-817.42 -1683.19,-971.57 -569.42,-326.41 -1145.39,-661.06 -1704.28,-965.91l-1.74 -944zm1185.33 -1892.69c87.17,-82.82 707.25,-446.04 816.67,-437.32 98.77,7.86 2364.75,1295.7 2508.46,1387.21 -73.63,72.86 -722.62,443.61 -813.3,443.1 -102.31,-0.59 -2415.05,-1294.16 -2511.83,-1392.99zm1683.53 -946.6c120.45,-90.91 715.43,-446.4 827.51,-445.48 100.43,0.83 712.81,370.46 860.97,448.47 284.89,149.98 1499.79,801.84 1649.09,943.61 -83.93,83.04 -703.29,450.91 -823.28,452.81 -94.13,1.5 -742.67,-381.08 -863.64,-450.89l-1627.69 -928.07c-5.05,-4.09 -15.74,-13.17 -22.96,-20.45zm-3434 946.6c208.44,172.02 4195.03,2354.45 4224.57,2355.3l3163.53 -1741.14c273.22,-162 860.24,-432.74 1074.77,-614.16 -120.27,-123.86 -4201.46,-2359.11 -4234.56,-2357.35 -11.26,0.61 -3987.62,2169.97 -4228.31,2357.35zm550.8 -3812c0.41,-798.99 -85.96,-869.87 121.2,-1015.99l473.93 -264.83c217.32,-129.72 436.97,-244.85 660.13,-368.74 250.82,-139.24 1091.08,-651.27 1296.44,-702.93l0.47 944.19 -2552.17 1408.3zm-868.26 -1428.87l2.97 4768.08c259.3,-95.85 4249.64,-2369.83 4262.07,-2408.16l-4.02 -4703.95c-195.82,81.97 -350.66,188.09 -550.73,295.52l-1586.44 883.77c-352.71,211.39 -699.37,390.79 -1056.93,589.43 -296.9,164.92 -779.59,472.87 -1066.92,575.31z"/>
 </g>
</svg>
