<?xml version="1.0" encoding="UTF-8"?>
<!DOCTYPE svg PUBLIC "-//W3C//DTD SVG 1.1//EN" "http://www.w3.org/Graphics/SVG/1.1/DTD/svg11.dtd">
<!-- Creator: CorelDRAW 2017 -->
<svg xmlns="http://www.w3.org/2000/svg" xml:space="preserve" width="200mm" height="200mm" version="1.1" style="shape-rendering:geometricPrecision; text-rendering:geometricPrecision; image-rendering:optimizeQuality; fill-rule:evenodd; clip-rule:evenodd"
viewBox="0 0 20000 20000"
 xmlns:xlink="http://www.w3.org/1999/xlink">
 <defs>
  <style type="text/css">
   <![CDATA[
    .fil0 {fill:none}
    .fil1 {fill:#FEFEFE}
    .fil2 {fill:#ED3237}
    .fil5 {fill:#00AFEF}
    .fil3 {fill:#363436}
    .fil4 {fill:#383436}
   ]]>
  </style>
 </defs>
 <g id="Capa_x0020_1">
  <metadata id="CorelCorpID_0Corel-Layer"/>
  <rect class="fil0" width="20000" height="20000"/>
  <path class="fil1" d="M10196.08 13633.34c0,161.48 -181.41,596.84 -255.63,696.62 -138.31,185.91 -290.51,345.04 -416.71,535.57 -63.76,96.27 -117.64,180.2 -180.77,286.03 -297.21,498.21 -377.08,329.44 -1051.07,310.91 -167.26,-4.6 -288.24,-23.9 -449.35,-18.71 -224.61,7.22 -123.67,39.13 -450.34,3.38 -175.23,-19.18 -165.98,7.68 -422.19,-44.66 -369.28,-75.44 -395.88,-63.08 -771.96,-180.38 -395.24,-123.28 -865.62,81.55 -1305.44,-151.12 -77.57,115.83 -323.93,432.14 -336.13,578.79 153.2,-35.69 246.09,-26.82 375.49,17.15 167.74,57.01 220.3,-35.83 354.68,-52.91 223.67,-28.42 191.33,52.12 341.31,84.82 144.82,31.57 242.43,-30.07 412.4,-1.72 664.2,110.79 684.6,274.09 1521.63,157.01 710.09,-99.32 1110.01,72.68 1632.57,-85.44 249.65,-75.53 448.48,-106.49 738.53,-139.12 374.41,-42.13 371.99,-91.82 804.53,-91.82 238.11,-355.52 359.66,-495.28 584.8,-871.61 101.74,-170.05 446.64,-798.83 572.99,-883.42 -2.88,129.55 -113.77,298.45 -171.65,388.5 -222.49,346.19 -112.97,290.46 -407.24,731.73 -61.56,92.31 -177.96,255.57 -205.42,373.41 156.16,41.69 -0.2,74.41 373.9,75.15 224,0.44 355.53,-75.15 839.92,-75.15 624.81,0.01 628.84,-55.63 1176.47,-205.37 110.61,-30.25 234.33,-71.44 336.14,-112.03 402.26,-160.36 396.3,-155.32 778.17,-360.87 183.17,-98.59 708.17,-418.64 888.34,-316.66l179.16 157.82c138.78,112.02 62.59,-14.73 248.28,218.53 132.71,166.72 262.75,391.09 445.73,487.89 -28.72,59.85 -28.72,126.86 0,186.71 -190.5,-15.85 -271.85,-156.2 -354.81,-280.06 -45.9,22.02 -80.86,35.81 -149.39,37.34 0,-362.36 85.32,-241.42 -144.73,-471.43 -259.97,-259.93 -159.64,-119.86 -320.87,-169.32 -84.18,-25.82 -30.84,-44.49 36.09,-50.06 -23.78,-49.56 -17.04,-19.98 -18.67,-93.36 -74.92,39.64 -145.14,118.63 -225.69,129.1 -276.73,35.95 -200.42,11.34 -502.54,225.71 -728.94,517.23 -529.12,324.81 -1291.17,557.46 -172.39,52.64 -358.88,172.81 -525.25,203 -178.68,32.44 -1124.91,82.24 -1377.79,80.52 -113.6,-0.78 -211.62,-37.31 -304.6,-69.12 -171.42,-58.67 -159.31,-0.02 -292.1,30.91 39.31,53.65 32.05,38.96 129.23,38.83 56.22,-0.08 113.04,-1.49 169.55,-1.49 -96.13,143.54 -519.21,113.78 -710.14,130.17 -128.49,11.02 -250.33,35.17 -359.7,51.12l-1078.28 191.53c-246.79,15.66 -586.67,8.69 -822.66,36.34 -449.65,52.68 -1060.97,181.19 -1541.29,106.55 -243.79,-37.88 -408.32,-146.81 -649.14,-191.17 -163.52,-30.13 -262.7,30.89 -399.44,7.79 -148.36,-25.06 -144.36,-113.99 -321.51,-110.19 -132.82,2.85 -213.11,69.92 -351.94,56.4 -50.22,-4.9 -123.32,-28.79 -174.06,-34.17 -83.6,-8.87 -126.63,7.64 -201.68,17.82 -165.12,22.38 -187.72,24.17 -266.28,144.52 -84.19,128.97 -255.5,362.03 -364.38,475.87 -155.71,162.82 -366.13,237.05 -603.5,255.48 -174.02,13.51 -264.05,-19.86 -394.02,-34.26 -371.51,-41.18 -724.86,228.89 -1086.77,4.16 -96.41,-59.87 -147.78,-122.84 -265.91,-163.56 -348.72,-120.21 -1134.76,-85.55 -1613.78,-85.55l0 3640.76 20000 0 0 -4704.99c-130.56,0 -182.33,21.34 -298.89,20.06 -112,-1.23 -182.37,-20.04 -317.42,-20.23 -252.93,-0.37 -438.27,101.85 -541.49,-93.18l1101.78 0 0 -298.73c-380.06,0 -374.01,205.38 -690.95,205.38 0,-223.12 214.71,-247.24 375.98,-296.24 63.63,-19.33 107.56,-44.99 165.57,-58.5 0,-235.15 -311.86,-874.58 -442.19,-1107.55 -68.23,-121.96 -125.48,-207.97 -200.43,-322.38 -201.1,-306.99 -224.87,-459.19 -491.21,-815.83 -110.21,-147.57 -262.09,-309.39 -266.73,-517.49 194.61,-130.28 130.7,-176.67 130.72,-429.42 0.07,-709.56 -159.4,-738.13 -514.83,-1202.96 -75.73,-99.05 -204.13,-181.54 -310.41,-249.76 -122.78,-78.81 -242.01,-134.56 -346.81,-232.05 -226.6,-210.81 -333.09,-458.39 -377.07,-780.58 -43.62,-319.51 -55.08,-716.38 -137.63,-1001.3 -74.07,-255.67 -221.23,-591.54 -362.17,-776.8 -96.9,-127.37 -116.15,-236.03 -192.57,-367.59 -139.09,-239.46 -312.16,-457.19 -530.16,-627.51 -270.97,-211.71 -413.98,-253.9 -709.54,-429.5 -288.28,-171.28 -626.66,-176.98 -957.72,-132.95 -243.77,32.41 -292.45,15.49 -413.98,-138.62 -357.66,-453.52 -355.62,-1234.58 -767.7,-1528.94 -147.85,-105.61 -431.73,-259.21 -714.07,-279.73l-121.83 0c-7.17,0.56 -14.32,1.18 -21.46,1.95 -196.23,21.21 -576.03,281.79 -734.83,422.91 -375.05,333.3 -378.1,793.04 -138.64,1267.97 67.11,133.11 143.21,245.5 143.21,435.62 249.02,58 176.16,144.64 318.02,242.15 83.7,57.52 118.04,56.58 152.5,146.26 16.58,43.17 0.37,30.32 35.11,58.24 17.88,14.36 105.79,43.35 142.5,62.91 95.38,50.82 127.64,125.52 210.88,181.25 135.53,-3.02 194.8,-77.41 242.76,-168.04 58.21,38.98 81.02,77.74 152.22,109.2 66.84,29.53 138.04,40.91 214.49,65.61 121.9,39.38 265.45,92.91 342.91,198.6 -131.92,249.26 -489.03,327.19 -707.16,618.59 -346.38,462.71 -163.26,676.04 -209.94,1097.04 -27.14,244.75 -170.59,518.28 -277.98,730.29l-217.64 454.54c-86.91,172.13 -346.96,474.36 -361.33,646.95l575.56 -339.41c135.24,-90.56 235.17,-229.63 360.93,-329.95 129.67,-103.44 508.9,-455.8 549.85,-607.87 78.65,-292.07 -160.47,-460.42 -160.47,-757.86 133.29,89.24 161.2,262.64 261.44,336.07 48.75,-32.64 52.99,-53.37 75.47,-111.24 85.78,-220.82 212.78,-535.42 223.18,-766.41 6.31,-140.23 30.72,-245.45 56.16,-354.61 73.41,53.78 33.47,104.47 35.81,244.26 2.33,139.53 35.22,96.05 94.9,185.17 -20.33,87.27 -81.01,169.04 -117.75,255.68 -270.84,638.66 -128.72,1036.19 -778.64,1536.65 -321.35,247.44 -277.95,353.16 -844.15,705.67 -83.5,51.99 -151.3,106.46 -234.71,157.42 -90.88,55.52 -181.76,53.61 -272.36,101.1 -223.82,117.34 -369.46,425.52 -721.57,454.81 3.7,-166.31 73.5,-171.09 -206.96,-132.28 -134.23,18.57 -231.26,46.73 -259.9,169.63 154.93,-3.45 132.95,-61.65 317.46,-18.67 24.66,105.8 7.89,145.76 -101.33,178.75 -321.11,97.01 -322.62,-104.87 -690.79,-245.63 -162.51,-62.13 -327.34,-103.86 -471.81,-181.75 -121.98,-65.77 -306.86,-199.47 -472.76,-199.47 45.25,94.29 20.26,159.39 115.23,220.86 85.2,55.14 516.42,192.42 288.25,593.3 -103.46,181.78 -315.9,390.03 -464.22,544.07 -52.85,54.89 -118.34,136.65 -126,228.77 103.5,-2.3 175.49,-52.12 261.44,-93.35 13.5,57.94 23.84,54.08 37.34,112.02 411.05,0 81.08,159.74 538.82,208.11 216.56,22.88 261.67,112.53 611.47,-28.91 206.77,-83.61 276.32,-194.8 440.36,-306.55 80.5,-54.85 149.27,-86.2 232.24,-141.22 222.41,-147.49 316.08,-285.06 687.01,-433.35 181.89,-72.72 379.04,-113.56 582.52,-164.41 602.08,-150.46 1130.53,-265.79 1552.77,-687.99 98.66,-98.65 182.06,-194.64 303.75,-256.43 271.75,-137.98 506.98,-667.7 760.66,-919.84 252.63,-251.08 444.18,-552.82 660.44,-833.34 64.25,-83.35 127.73,-92.61 179.22,-194.22 97.26,-191.95 119.65,-548.9 260.67,-768.97 42.91,-66.98 44.67,-44.23 45.15,-19.55l-45.8 283c-122.83,371.34 -258.48,715.65 -489.17,1023.24l-504.3 653.37c-195.85,252.28 -472.13,368.92 -71.99,671.81 117.26,88.76 100.86,96.85 125.07,267.03 37.08,260.54 143.72,319.34 243.85,521.69 103.58,209.31 199.12,310.8 199.12,566.41 212.21,0 602.74,-353.44 1441.91,201.38 486.52,321.66 638.36,929.77 933.26,1400.74 182.94,292.16 791.18,1007.63 1036.7,1297.32l296.44 394.43c18.53,31.03 23.77,43.85 42.13,69.9 19.22,27.3 39.37,48.95 59.09,71.62l-59.21 71.8c63.93,43.55 44.78,33.69 77.88,96.24 -95.42,0 -158.17,-19.43 -279.99,-18.8l-616.43 0.07c-129.51,-0.48 -193.83,16.22 -298.11,19.34l-916.39 0.13c-110.74,-1.37 -167.68,-19.42 -298.04,-19.42l0 -93.35c385.93,0 771.86,0 1157.79,0 401.57,0 738.48,-18.67 1139.12,-18.67 -96.61,-144.26 -310.78,-389.68 -434.22,-518.06 -74.27,-77.24 -133.79,-182.86 -197.99,-268.81l-558.36 -636.67c-205.13,-206.17 -363.45,-464.59 -489.89,-723.78 -102.18,-209.44 -205.45,-429.04 -341.47,-610.8 -287.1,-383.66 -692.79,-721.87 -1233.01,-645.81 -475.21,66.91 -402.38,243.07 -666.62,304.62 -157.33,-105.34 -59.34,-220.87 -380.5,-137.73 -153.24,39.67 -274.22,113.18 -389.21,189.67 -183.04,121.75 -253.09,321.57 -462.59,396.35l-224.29 74.48c9.7,116.5 82.53,259.84 -88.92,70.37l-222.74 -206.86c-163.38,-133.03 -315.04,-249 -476.93,-382 -159.47,-131.01 -330,-238.72 -503.61,-355.34 -186.63,-125.36 -245.39,-133.86 -470.8,-67.33 -338.4,99.89 -70.87,-85.61 -795.64,287.41 -103.5,53.27 -158.81,109.97 -250.07,179.39 -88.74,67.51 -179.79,93.76 -278.79,150.7 -225.86,129.91 -168.99,185.2 -537.51,321.43 -106.93,39.53 -243.03,65.71 -358.17,45.66 -74.19,-12.93 -102.25,-18.11 -170.25,-35.65 -70.9,-18.29 -113.1,-39.64 -178.97,-45.12 -3.96,47.6 -63.26,188.15 -86.54,230.87 -98.02,179.81 -411.1,284.97 -574.9,396.08 -264.68,179.55 -262.14,256.94 -148.1,686.55l81.25 254.83c133.25,-31.04 216.85,-106.39 318.35,-167.15 110.58,-66.21 192.62,-125.41 324.46,-179.71 203.37,-83.76 481.74,-324.43 645.71,-362.62 -22.88,274.85 -712.08,516.24 -956.23,668.29 -115.96,72.21 -210.48,144.78 -332.29,209.22 0,197.41 23.59,438.32 -9.91,624.89 -26.04,145.01 -202.63,405.31 -131.89,448.39 56.54,34.43 763.46,31.65 894.41,-3.41 95.65,-25.61 123.65,-91.57 168.5,-167.61 116.66,-197.8 213.75,-417.06 351.2,-601.07 92.48,-123.81 197.96,-239.93 278.75,-374.76 90.89,-151.68 248.92,-515.91 372.38,-598.57zm-879.88 -3347.63c89.85,-122.86 361.63,-85.14 388.14,172.34 36.44,353.92 -194.35,324.37 -243.89,444.99 54.79,68.77 259.38,159.93 349.07,167.53 120.21,-154.72 95.58,-122.72 283.14,-190.73 0.8,-175.45 -91.13,-139.23 -56.38,-370.95 92.42,-616.27 -69.4,-785.94 -488.07,-1152 -276.73,-241.97 -528.84,-365.55 -935.48,-268.01 -285.14,68.39 -343.13,185.84 -520.87,335.93 -257.99,217.87 -162.39,273.74 -309.91,547.24 -106.21,196.91 -85.58,41.33 -92.17,338.18 -2.42,109.31 -59.38,231.37 -105.62,321.09 -67.83,131.62 -136.47,171.44 -33.56,291.57 122.02,142.45 6.29,264.51 -0.76,336.43 52.27,17.98 129.75,22.01 199.61,39.61 268.03,67.51 131.99,275.86 37.21,462.97 33.09,85.29 102.22,190.22 150.52,276.96 93.59,168.07 53.94,136.54 278.72,146.52 221.89,-369.11 46,-153.91 338.43,-392.87 546.53,-446.6 478.84,-551.14 109.79,-766.25 -106.45,-62.04 -283.41,-264.6 -180.39,-470.74 145.52,-42.75 237.09,22.21 353.97,83.37 371.8,194.56 349.02,224.57 600.34,62.02 113.22,-73.22 119.65,-151.15 118.41,-327.6 -10.52,-3.48 -235.83,-84.66 -240.25,-87.6z"/>
  <path class="fil2" d="M7333.33 10763.72c50.42,-25.38 5.22,16.37 55.28,-41.9l116.77 -216.12c151.46,-238.09 25.27,-157.62 61.8,-361.42 31.47,-175.56 129.39,-64.05 -3.26,-278.38 -112.1,-181.14 -139.63,-585.97 -300.18,-986.53 -129.63,-323.39 -45.76,-478.13 -120.88,-734.29l-101.24 110.95c-107.69,152.26 -193.88,213.33 -209.81,433.44 -27.85,384.82 97.74,1129 222.66,1494 90.53,264.51 126.73,522.56 278.86,580.25zm-712.37 -6268.45c-70.74,-124.26 -34.13,-161.78 21.15,-281.7 43.05,-93.4 52.37,-210.92 98.19,-306.38 109.09,-227.27 391.64,-230.12 406.78,68.86 -123.9,-34.66 -244.63,-256.06 -317.15,116.39 -26.6,136.59 -45.17,113.94 -102.51,210 -76.07,127.43 6.39,53.91 34.97,200.57l-141.43 -7.74zm379.04 1283.52c173.34,-13.3 135.28,7.42 249.47,-77.09 127.92,-94.67 132.88,-24.12 242.84,-67.16 63.01,-24.67 89.39,-139.07 138.91,-193.99 56.52,-62.7 97.86,-85.83 166.64,-142.41 194.15,-159.73 424.36,-466.99 416.97,-869.68 -12.06,-657.32 -972.77,-1185.66 -1500.2,-952.39 -219.62,97.14 -598.77,629.25 -756.6,863.17l-307.32 311.27c-891.26,627.25 -1549.86,44.76 -2271.64,585.29 -377.98,283.07 -580.53,688.49 -842.58,1086.21 -50.93,77.31 -95.89,124.89 -145.6,188.2 -148.62,189.29 -207.29,450.93 -272.68,678.6 -48.49,168.81 -120.72,291.37 -185.43,458.21 -202.2,521.3 -195.16,473.92 -214.34,1042.46 -26.23,777.7 227.61,1443.75 420.08,2123.28 133.81,472.44 -34.57,666.48 -77.6,1110.23 -24.42,251.9 -41.86,637.72 52.26,869.22 57.24,140.79 29.59,146.65 136.47,186.28 -6.58,-163.96 -108.02,-492.69 -11.55,-616.45 139.43,195.43 -57.39,670.4 349.23,732.91 -19.42,-194.72 -140.17,-489.96 -39.71,-664.33 87.12,67.39 27.69,248.23 89.27,480.43 43.84,165.3 123.52,285.72 315.49,208.92 63.73,-140.01 -194.36,-552.01 -41.05,-774.39 69.18,110.08 29.44,275.87 49.18,409.16 19.27,130.12 86.68,231.9 131.1,313.78 283.96,-12.88 236.64,-145.92 232.19,-401.83 -3.19,-182.73 -35.72,-469.93 38.8,-610.67 107.83,210.92 -134.15,819.76 221.62,743.71 17.06,-202.17 -89.35,-354.02 -48.21,-619.58 99.01,-639.11 -126.07,-593.66 -325.32,-1033.03 -178.23,-393 -234.64,-681.8 -333.59,-1093.48 -64.3,-267.52 5.97,-401.24 20.82,-651.79 27.14,-457.57 -88.63,-890.37 -67.03,-1330.42 77.12,-41.17 142,58.12 465.94,-345.55 399.97,-498.42 326.86,-237.43 722.13,-992.3 55.03,-105.1 95.59,-168.41 160.03,-268.69 69.41,-108 49.66,-187.83 170.61,-238.54 11.9,97.78 -15.39,131.68 -66.76,199.3 -126.04,165.87 -308.39,679.67 -475.89,904.13 -510.71,684.36 -598.91,345.16 -349.02,1021.77 100.79,272.91 182.68,547.52 273.47,821.64l129.2 443.04c190.1,475.25 63.23,935.6 -104.03,1354.83 -47.47,119 -90.13,304.71 -133.61,437.42 -91.34,278.78 20.01,234.62 39.46,449.66 15.53,171.54 -31.32,344.25 -27.66,522.84 2.88,139.87 86.82,394.76 5.08,493.91 -84.9,103.36 -116.35,18.3 -219.18,21.96 -19.43,179.76 -78.61,232.35 -253.23,251.28 -269.75,29.24 -318.35,116.94 -456.85,300.72 -50.09,66.47 -75.18,73.55 -115.07,123.9 -42.69,53.89 -50.88,88.15 -95.25,141.26 -104.21,124.76 -208.58,308.36 -266.98,472.18l-143.14 332.4c-72.62,160.16 -224.55,557.83 -301.41,668.98 -62.91,-83.21 9.05,-171.13 19.68,-260.26 -529.33,-88.65 -1200.22,-134.51 -1747.5,-147.48l0 1540.11c440.31,-58.66 1505.41,-268.46 1840.94,87.74 241.61,256.5 513.01,84.74 859.2,67.62 332.01,-16.42 688.07,-16.3 1024.66,-26.7 45.24,-66.97 81.08,-155.64 132.69,-221.06l1189.21 -1857.28c45.09,-76.87 87.09,-98.86 140.9,-192.93l396.03 -628.48c67.61,-101.78 183.56,-339.76 298.72,-351.27 -40.66,235.74 -290.18,436.3 -250.87,659.56 31.8,68.16 245.44,186.5 325.72,315.58 60.53,97.3 195.14,353.3 96.02,464.79 -69.91,68.64 -251.71,10.15 -351.89,14.53 -228.02,9.96 -574.26,-112.32 -676.86,123.79 -51.39,118.28 -103.96,157.45 -131.39,272.44 285.06,7.25 621.91,19.28 903.2,11.74 391.54,-10.49 441.47,64.33 771.98,120.03 258.59,43.57 522.89,90.32 784.07,120.96 108.31,12.7 338.54,36.72 437.59,3.1 84.8,-28.78 34.73,-12.31 71.54,-48.81 2.51,-2.49 22.26,-26.51 33.18,-37.63 56.26,-57.32 79.43,-55.83 114.33,-148.59 194.6,-517.19 -148.29,-1729.26 -413.12,-2249.07 -53.78,-105.56 -100.54,-199.24 -144.23,-308.95 -66.24,-166.36 -21.31,-192.85 -131.58,-293.27 -134.12,61.55 -299.43,351.54 -305.34,543.87 -20.53,667.42 -84.42,625.38 -351.38,702.07 -78.56,22.57 -66.93,44.06 -134.67,78.63 -82.78,42.25 -265.9,37.56 -337.44,-9.42 -101.72,-66.79 -271.87,-518.61 -85.45,-598.92 3.35,4.42 5.9,11.71 6.97,15.11 1.11,3.51 5.04,11.45 6.23,16 41.77,160.65 -9.44,288.31 166.3,403.62 215.68,141.51 284.29,-103.75 364.49,-174.74 142.41,9.13 112.95,154.91 176,-67.93 34.51,-122 39.63,-208.19 31.15,-335.72 -24.51,-368.91 344.16,-630.27 571.89,-872.22 120.77,-128.32 263.27,-238.88 285.42,-476.09 -92.57,-42.94 -186.46,-62.58 -328.55,-60.69 -67.01,28.17 -438.58,454.58 -525.12,563.93 -213.13,269.28 -158.75,250.47 -432.81,400.93 -91.57,50.27 -80.41,93.99 -185.43,41.67 -88.36,-97.42 202.56,-236.29 274.43,-286.18 78.76,-54.67 82.75,-72.5 141.17,-145.06 102.09,-126.8 402.15,-315.43 434.47,-441.41 79.73,-310.7 -109.3,-918.94 -190.14,-1241.71 -24.46,-97.68 -57.73,-111.5 -87.41,-196.27 -60.98,-174.12 -145.15,-790.44 -171,-1002 -59.62,-488.07 4.3,-621.69 236.16,-896.57 210.18,-249.19 160.48,-601.59 18.78,-876.22 -181.82,-352.37 -105.33,-264.83 -338.83,-541.9 -37.26,-44.21 -75.19,-110.21 -116.13,-169.97 -70.34,-102.71 -184.34,-248.12 -233.49,-362.13 -42.7,-99.08 -41.7,-425.83 -2.1,-505.49 98.55,103.99 43.74,402.07 301.61,254.3 407.82,-233.71 202.67,75.89 429.27,-198.48z"/>
  <g>
   <path class="fil3" d="M5571.43 13954.3c107.13,43.86 306.93,328.27 315.66,530.9l-610.49 5.74c48.6,-149.03 199.71,-417.86 294.83,-536.64zm2148.56 -2045.48c70.01,84.76 61.73,203.22 157.45,308.69 139.2,153.36 189.66,52.29 359.64,117.65 353.91,136.09 90.56,-52.89 530.22,89.85 198.96,64.59 85.35,253.05 -13.39,352.56l-450.19 264.21c-109.69,58.33 -120.68,104.84 -232.29,155.25l-551.97 -1004.48c-73.92,-149.22 68.05,-263.42 200.53,-283.73zm4344.76 -371.79c679.95,-241.96 897.63,-268.46 1422.96,-763.25 101.16,-95.28 87.51,-146.51 228.53,-223.55 312.63,-170.77 198.19,-354.11 425.18,-482.36 120.09,514.03 193.42,284.27 285.67,578.62 29.98,95.65 66.37,220.92 110.96,315.82 92.13,196.05 554.39,836.82 154.86,845.08 -346.55,7.16 -421.9,60.12 -674.97,187.6 -106.42,53.61 -182.99,112.4 -247.51,180.61 -105.7,111.74 -282.2,369.41 -505.47,340.17 -53.53,-7.01 -654.2,-583.6 -938.3,-770.92 -212.7,-140.24 -126.55,-84.91 -261.91,-207.82zm-4755.23 -154.14c-62.57,-134.56 -35.97,-320.18 -32.14,-469.79 83.97,12.84 205.78,90.78 266.62,134.52 -27.56,125.54 -54.34,62.1 -99.71,181.3 -42.34,111.22 -9.23,145.04 -134.77,153.97zm2006.68 -1097.18c4.42,2.94 229.73,84.12 240.25,87.6 1.24,176.45 -5.19,254.38 -118.41,327.6 -251.32,162.55 -228.54,132.54 -600.34,-62.02 -116.88,-61.16 -208.45,-126.12 -353.97,-83.37 -103.02,206.14 73.94,408.7 180.39,470.74 369.05,215.11 436.74,319.65 -109.79,766.25 -292.43,238.96 -116.54,23.76 -338.43,392.87 -224.78,-9.98 -185.13,21.55 -278.72,-146.52 -48.3,-86.74 -117.43,-191.67 -150.52,-276.96 94.78,-187.11 230.82,-395.46 -37.21,-462.97 -69.86,-17.6 -147.34,-21.63 -199.61,-39.61 7.05,-71.92 122.78,-193.98 0.76,-336.43 -102.91,-120.13 -34.27,-159.95 33.56,-291.57 46.24,-89.72 103.2,-211.78 105.62,-321.09 6.59,-296.85 -14.04,-141.27 92.17,-338.18 147.52,-273.5 51.92,-329.37 309.91,-547.24 177.74,-150.09 235.73,-267.54 520.87,-335.93 406.64,-97.54 658.75,26.04 935.48,268.01 418.67,366.06 580.49,535.73 488.07,1152 -34.75,231.72 57.18,195.5 56.38,370.95 -187.56,68.01 -162.93,36.01 -283.14,190.73 -89.69,-7.6 -294.28,-98.76 -349.07,-167.53 49.54,-120.62 280.33,-91.07 243.89,-444.99 -26.51,-257.48 -298.29,-295.2 -388.14,-172.34zm-1982.87 478.01c-152.13,-57.69 -188.33,-315.74 -278.86,-580.25 -124.92,-365 -250.51,-1109.18 -222.66,-1494 15.93,-220.11 102.12,-281.18 209.81,-433.44l101.24 -110.95c75.12,256.16 -8.75,410.9 120.88,734.29 160.55,400.56 188.08,805.39 300.18,986.53 132.65,214.33 34.73,102.82 3.26,278.38 -36.53,203.8 89.66,123.33 -61.8,361.42l-116.77 216.12c-50.06,58.27 -4.86,16.52 -55.28,41.9zm-4119.04 -2740c80.97,104.24 415.86,1370.12 495.03,1624.18 91.46,293.48 125.32,636.89 33.12,951.84l-266.25 801.58c-4.2,-3.29 -10.15,-14.61 -11.56,-11.05 -1.41,3.58 -9.25,-9.06 -11.13,-11.65l-148.93 -324.78c-124.05,-406.77 -340.74,-840.92 -326.16,-1268.01 11.25,-329.59 42.38,-709.55 6.41,-1031.49 -37.8,-338.39 -178.3,-529.65 229.47,-730.62zm3785.71 -2244.93c-226.6,274.37 -21.45,-35.23 -429.27,198.48 -257.87,147.77 -203.06,-150.31 -301.61,-254.3 -39.6,79.66 -40.6,406.41 2.1,505.49 49.15,114.01 163.15,259.42 233.49,362.13 40.94,59.76 78.87,125.76 116.13,169.97 233.5,277.07 157.01,189.53 338.83,541.9 141.7,274.63 191.4,627.03 -18.78,876.22 -231.86,274.88 -295.78,408.5 -236.16,896.57 25.85,211.56 110.02,827.88 171,1002 29.68,84.77 62.95,98.59 87.41,196.27 80.84,322.77 269.87,931.01 190.14,1241.71 -32.32,125.98 -332.38,314.61 -434.47,441.41 -58.42,72.56 -62.41,90.39 -141.17,145.06 -71.87,49.89 -362.79,188.76 -274.43,286.18 105.02,52.32 93.86,8.6 185.43,-41.67 274.06,-150.46 219.68,-131.65 432.81,-400.93 86.54,-109.35 458.11,-535.76 525.12,-563.93 142.09,-1.89 235.98,17.75 328.55,60.69 -22.15,237.21 -164.65,347.77 -285.42,476.09 -227.73,241.95 -596.4,503.31 -571.89,872.22 8.48,127.53 3.36,213.72 -31.15,335.72 -63.05,222.84 -33.59,77.06 -176,67.93 -80.2,70.99 -148.81,316.25 -364.49,174.74 -175.74,-115.31 -124.53,-242.97 -166.3,-403.62 -1.19,-4.55 -5.12,-12.49 -6.23,-16 -1.07,-3.4 -3.62,-10.69 -6.97,-15.11 -186.42,80.31 -16.27,532.13 85.45,598.92 71.54,46.98 254.66,51.67 337.44,9.42 67.74,-34.57 56.11,-56.06 134.67,-78.63 266.96,-76.69 330.85,-34.65 351.38,-702.07 5.91,-192.33 171.22,-482.32 305.34,-543.87 110.27,100.42 65.34,126.91 131.58,293.27 43.69,109.71 90.45,203.39 144.23,308.95 264.83,519.81 607.72,1731.88 413.12,2249.07 -34.9,92.76 -58.07,91.27 -114.33,148.59 -10.92,11.12 -30.67,35.14 -33.18,37.63 -36.81,36.5 13.26,20.03 -71.54,48.81 -99.05,33.62 -329.28,9.6 -437.59,-3.1 -261.18,-30.64 -525.48,-77.39 -784.07,-120.96 -330.51,-55.7 -380.44,-130.52 -771.98,-120.03 -281.29,7.54 -618.14,-4.49 -903.2,-11.74 27.43,-114.99 80,-154.16 131.39,-272.44 102.6,-236.11 448.84,-113.83 676.86,-123.79 100.18,-4.38 281.98,54.11 351.89,-14.53 99.12,-111.49 -35.49,-367.49 -96.02,-464.79 -80.28,-129.08 -293.92,-247.42 -325.72,-315.58 -39.31,-223.26 210.21,-423.82 250.87,-659.56 -115.16,11.51 -231.11,249.49 -298.72,351.27l-396.03 628.48c-53.81,94.07 -95.81,116.06 -140.9,192.93l-1189.21 1857.28c-51.61,65.42 -87.45,154.09 -132.69,221.06 -336.59,10.4 -692.65,10.28 -1024.66,26.7 -346.19,17.12 -617.59,188.88 -859.2,-67.62 -335.53,-356.2 -1400.63,-146.4 -1840.94,-87.74l0 -1540.11c547.28,12.97 1218.17,58.83 1747.5,147.48 -10.63,89.13 -82.59,177.05 -19.68,260.26 76.86,-111.15 228.79,-508.82 301.41,-668.98l143.14 -332.4c58.4,-163.82 162.77,-347.42 266.98,-472.18 44.37,-53.11 52.56,-87.37 95.25,-141.26 39.89,-50.35 64.98,-57.43 115.07,-123.9 138.5,-183.78 187.1,-271.48 456.85,-300.72 174.62,-18.93 233.8,-71.52 253.23,-251.28 102.83,-3.66 134.28,81.4 219.18,-21.96 81.74,-99.15 -2.2,-354.04 -5.08,-493.91 -3.66,-178.59 43.19,-351.3 27.66,-522.84 -19.45,-215.04 -130.8,-170.88 -39.46,-449.66 43.48,-132.71 86.14,-318.42 133.61,-437.42 167.26,-419.23 294.13,-879.58 104.03,-1354.83l-129.2 -443.04c-90.79,-274.12 -172.68,-548.73 -273.47,-821.64 -249.89,-676.61 -161.69,-337.41 349.02,-1021.77 167.5,-224.46 349.85,-738.26 475.89,-904.13 51.37,-67.62 78.66,-101.52 66.76,-199.3 -120.95,50.71 -101.2,130.54 -170.61,238.54 -64.44,100.28 -105,163.59 -160.03,268.69 -395.27,754.87 -322.16,493.88 -722.13,992.3 -323.94,403.67 -388.82,304.38 -465.94,345.55 -21.6,440.05 94.17,872.85 67.03,1330.42 -14.85,250.55 -85.12,384.27 -20.82,651.79 98.95,411.68 155.36,700.48 333.59,1093.48 199.25,439.37 424.33,393.92 325.32,1033.03 -41.14,265.56 65.27,417.41 48.21,619.58 -355.77,76.05 -113.79,-532.79 -221.62,-743.71 -74.52,140.74 -41.99,427.94 -38.8,610.67 4.45,255.91 51.77,388.95 -232.19,401.83 -44.42,-81.88 -111.83,-183.66 -131.1,-313.78 -19.74,-133.29 20,-299.08 -49.18,-409.16 -153.31,222.38 104.78,634.38 41.05,774.39 -191.97,76.8 -271.65,-43.62 -315.49,-208.92 -61.58,-232.2 -2.15,-413.04 -89.27,-480.43 -100.46,174.37 20.29,469.61 39.71,664.33 -406.62,-62.51 -209.8,-537.48 -349.23,-732.91 -96.47,123.76 4.97,452.49 11.55,616.45 -106.88,-39.63 -79.23,-45.49 -136.47,-186.28 -94.12,-231.5 -76.68,-617.32 -52.26,-869.22 43.03,-443.75 211.41,-637.79 77.6,-1110.23 -192.47,-679.53 -446.31,-1345.58 -420.08,-2123.28 19.18,-568.54 12.14,-521.16 214.34,-1042.46 64.71,-166.84 136.94,-289.4 185.43,-458.21 65.39,-227.67 124.06,-489.31 272.68,-678.6 49.71,-63.31 94.67,-110.89 145.6,-188.2 262.05,-397.72 464.6,-803.14 842.58,-1086.21 721.78,-540.53 1380.38,41.96 2271.64,-585.29l307.32 -311.27c157.83,-233.92 536.98,-766.03 756.6,-863.17 527.43,-233.27 1488.14,295.07 1500.2,952.39 7.39,402.69 -222.82,709.95 -416.97,869.68 -68.78,56.58 -110.12,79.71 -166.64,142.41 -49.52,54.92 -75.9,169.32 -138.91,193.99 -109.96,43.04 -114.92,-27.51 -242.84,67.16 -114.19,84.51 -76.13,63.79 -249.47,77.09zm12932.7 9121.84l0 292.25 -1100.62 0.15c82.92,176.36 133.86,113.84 525.06,113.84 193,0 459.02,15.26 642.86,-8.73l0 -557.39c-158.44,-11.06 -72.25,-82.25 -116.8,-243.86 -91.63,-332.41 -382.01,-979.56 -560.04,-1272.4 -45.92,-75.53 -79.49,-155.66 -123.63,-233.67l-141.62 -239.25c-158.92,-209.97 -182.46,-319.25 -277.51,-436.94 -250.93,-310.72 -242.8,-182.32 -183.19,-500.22 150.37,-802.04 -204.14,-1325.51 -755.2,-1751.44 -76.06,-58.79 -136.71,-128.84 -210.54,-170.37 -752.76,-423.44 -394.43,-1344.04 -758.39,-2170.62 -93.81,-213.04 -112.05,-349.63 -262.51,-475.66 -261.58,-219.1 -274.33,-602.33 -585.06,-866.88 -152.31,-129.68 -198.94,-219.73 -388.5,-349.91 -211.8,-145.45 -513.25,-266.78 -777.3,-317.98 -109.73,-21.27 -183.92,-65.53 -294.04,-85.56 -627.26,-114.13 -745.15,264.07 -972.33,-480.58 -129.49,-424.46 -194.79,-732.08 -439.14,-1037.45 -115.46,-144.29 -664.76,-461.96 -948,-504.83 -219.36,-33.2 -402.93,76.88 -554.91,167.6 -475.17,283.65 -940.71,715.27 -745.52,1394.67 24.99,86.99 60.9,186.79 90.58,266.79 56.75,152.98 49.96,120.8 147.54,232.65 186.77,214.08 -148.1,306.22 312.62,429.43 40.9,182.93 41.52,129.95 180.75,220.14 139.43,90.32 5.9,102.34 212.52,192.32 166.88,72.67 114.2,299.5 483.55,327.21l67.4 -119.53c151.24,-8.2 503.08,117.35 564.51,198 -92.31,80.63 -125.56,90.77 -258.34,151.84 -185.3,85.23 -502.25,482.73 -599.19,686.77 -108.02,227.37 -51.7,521.46 -44.11,772.58 8.75,289.37 -120.3,403.36 -234.14,615.05 -102.12,189.9 -164.64,383.4 -278.61,578.66 -136.51,233.88 -307.2,615.95 -473.81,812.27 -62.46,73.61 -134.72,170.48 -198.7,229.85 -54.68,50.73 -176.16,154.53 -296.26,113.79 -142.55,-48.36 52.32,-68.82 -369.05,-60.18 -30.76,-155.57 -13.49,-399.02 -15.57,-574.36 -4.27,-358.37 19.39,-278.64 -129.04,-545.1 -77.55,-139.2 -143.97,-228.02 -294.75,-348.83 -71.62,-57.39 -318.13,-248.8 -396.19,-268.49 -557.74,-140.72 -1066.02,-225.03 -1457.81,248.07 -47.71,57.61 -102.51,116.52 -137.56,195.27 -20.53,46.12 -24.02,78.68 -41.12,124.43 -37.24,99.62 -7.78,64.63 -84.48,107.53 -120.47,-380.84 16.23,-226.34 -257.56,-936.42 -261.08,-677.13 57.35,-1059.06 -475.77,-1952.41 -77.48,-129.83 -183.01,-172.64 -282.88,-312.72 -89.64,-125.74 -188.06,-237.83 -234.18,-390.27 196.12,-18.15 247.55,-43.15 322.78,-163.98 232.16,-1.9 201.25,26.62 308.67,-114.31 189.44,8.12 163.61,36.64 264.67,-80.2 104.34,-120.63 110.23,1.44 253.95,-53.69 83.49,-32.02 86.66,-107.54 129.17,-205.72 50,-115.45 117.22,-81.75 208.96,-147.79 67.65,-48.7 84.22,-115.16 150.95,-182.07 194.2,-194.73 311,-406.79 332.85,-738.79 45.52,-691.78 -770.1,-1339.53 -1541.43,-1233.86 -450.06,61.65 -832.82,700.84 -1047.23,1026.59 -116.7,177.29 -158.76,241.84 -380.55,333.96 -468.53,194.62 -556.55,259.49 -1145.98,207.63 -316.22,-27.82 -339.08,3.86 -587.79,105.75 -108.24,44.34 -163.72,53.19 -244.63,112.52 -391.87,287.34 -576.94,480.06 -828.16,910.23 -186.38,319.15 -416.01,439.77 -531.61,872.45 -104.67,391.81 -242.84,677.21 -378.9,1026.37 -93.75,240.58 -160.02,971.17 -139.95,1258.48 67.48,966.19 609.77,1759.71 491.62,2235.49 -107.62,433.35 -197.81,746.3 -108.66,1237.44 31.17,171.71 96.09,424.51 190.5,500.2 114.27,91.61 160.59,-3.31 291.38,64.45 164.47,85.2 146.06,35.73 276.23,79.7 31.43,89.43 -158.52,230.77 -225.59,328.08l-226.2 369.53c-71.48,135.93 -125,256.72 -183.27,411.52 -56.78,150.85 -86.19,321.1 -176.95,443.19 -100.26,-6.73 -89.27,-27.82 -213.19,-25.42 -210.74,4.08 -531.07,38.63 -716.57,27.62 -195.55,-11.61 -771.05,-95.64 -915.93,-27.01 20.91,24.43 15.21,8.11 -11.45,19.84l-23.81 0 0 1611.02c399.05,13.5 1306.98,-42.43 1619.53,82.71 191.36,76.62 310.06,268.14 568.28,256.52 264.85,-11.93 453.72,-102.17 765.39,-94.98 147.7,3.41 225.61,53.65 380.58,35.27 212.23,-25.17 486.04,-88.07 618.27,-243.29l197.38 -231.79c57.89,-80.65 110.62,-156.01 166.82,-238.04 96.03,-140.15 64.03,-134.55 268.93,-164.62 184.99,-27.15 167.74,-32.22 353.25,6.41 135.79,28.28 231.12,-32.74 360.11,-48.32 172.84,-20.87 165.08,55.69 283.4,94.74 125.02,41.26 279.86,-12.69 418.92,2.73 204.19,22.65 452.92,155.19 672.65,190.35 489.53,78.34 1088.89,-49.25 1567.27,-103.33 271.95,-30.75 538.61,-4.59 805.84,-33.38 258,-27.79 473.73,-89.74 724.06,-133.53 227.28,-39.75 499.88,-82.19 723.37,-112.92 159.42,-21.92 648.7,15.36 712.95,-129.76 -139.2,-52.65 -209.89,31.59 -297.93,-26.54 217.23,-150.04 346.05,27.22 590,31.56 160.34,2.86 1282.08,-53.09 1400.65,-84.71 168.15,-44.85 353.1,-155.6 532.19,-206.94 397.88,-114.06 718.13,-130.88 1065.5,-410.17l435.09 -302.93c184.83,-112.08 88.14,-40.9 254.38,-56.73 79.45,-7.57 159.91,-98.45 234.69,-131.97 22.64,177.88 -2.28,-12.89 -61.34,127.53 115.87,51.44 158.26,-27.87 250.89,64.41 40.7,40.54 44.56,58.04 90.88,99.64 341.83,307.01 112.43,194.51 176.34,499.72l147.58 -43.37c63.51,100.69 184.97,283.1 352.8,267.52 -37.24,-85.96 -4.74,-110.66 -3.15,-183.83 -146.87,-106.69 -112.59,-68.04 -229.13,-221.96 -478.57,-632.09 -270.87,-303.69 -563.37,-579.47 -69.92,-65.91 -40.09,-69.52 -149.73,-90.94 -202.45,-39.54 -1026.12,458.45 -1253.66,567.69 -208.66,100.18 -1180.08,417.79 -1393.4,432.93 -294.64,20.92 -615.41,-10.13 -899.5,36.16 -231.12,37.66 -590.28,135.03 -768.47,-29.43 100.85,-261.12 307.72,-458.33 422.59,-720.83 34.98,-79.93 43.03,-133.06 82.86,-203.06 96.1,-168.9 268.31,-379.15 285.77,-576 -156.85,77.75 -662.5,1079.35 -865.69,1329.44l-305.74 430.14c-137.87,19.45 -259.01,4.5 -394.13,35.32 -366.68,83.64 -782.7,79.99 -1135.74,199.09 -500.32,168.79 -1042.88,-14.55 -1603.78,84.92 -807.43,143.18 -988.33,-57.44 -1558.65,-148.06 -157.35,-25 -312.25,20.99 -424.11,-1.86 -130.71,-26.71 -133.77,-126.19 -343.96,-81.72 -125.8,26.63 -211.31,107.22 -342.87,53.96 -187.08,-75.73 -187.72,-31.61 -380.5,-26.41 41.78,-138.65 258.51,-459.45 350.4,-558.82 257.46,200.51 933.53,49.5 1275.74,144.72 155.02,43.14 178.61,76.07 369.58,105.39 302.62,46.47 513.77,119.16 830.85,129.79 324.77,10.9 592.6,-14.24 932.35,14.24 1022.18,85.68 780.34,20.31 1226.38,-622.67 139.93,-201.71 273.53,-337.64 418.3,-535.17 69.07,-94.25 259.55,-586.13 255.07,-709.7 -139.88,89.85 -389.04,693.04 -567.94,873.93 -286.71,289.92 -451.93,842.41 -594.58,883.4 -214.77,61.71 -709.17,23.55 -949.64,9.72 6.17,-103.54 132.15,-226.62 166.96,-432.86 39.53,-234.25 2.61,-414.22 16.75,-629.28 252.99,-154.87 400.03,-275.06 694.25,-402.12 254.25,-109.8 533.12,-263.49 604.17,-492.84 -101.58,-1.73 -434.99,283.22 -642.61,359.43 -253.18,92.93 -474.46,306.35 -654.68,357.89 -57.49,-72.18 -208.35,-665.36 -136.16,-767.69 91.63,-129.89 459.59,-316.28 596.22,-403.84 216.74,-138.91 164.95,-167.42 271.9,-386.09 375.6,106.6 488.47,156.88 965.43,-90.97 109.59,-56.95 141.11,-113.12 245.65,-183.35 82.56,-55.46 182.66,-88.03 264.71,-139.7 91.29,-57.49 136.19,-123.82 246.25,-181.98 814.34,-430.34 481.02,-193.88 909.15,-330.26 215.73,-68.72 256.75,3.87 538.62,187.88 86.38,56.39 159.88,113.49 252.44,176.24l703.59 558.92c62.45,65.69 145.86,154.18 213.63,218.73 32.24,-80.3 -3.54,-74.93 -16.77,-168.93 92.63,-55.55 266.03,-82.39 348.11,-146.83 98.21,-77.1 145.3,-176.9 239.36,-260.4 127.94,-113.57 462.95,-322.31 715.02,-280.43 71.55,64.87 60.64,94.57 139.84,155.38 215.84,-18.43 236.23,-266.38 645.19,-303.34 851.37,-76.96 1299.16,589.01 1598.41,1259.77 188.84,423.27 524.37,745.47 816.52,1088.12 70.92,83.17 155.56,163.34 224.21,252.14 52.92,68.45 150.92,230.21 201.41,274.96l439.24 524.38 -2307.47 8.55 1.35 92.6c120.39,72.88 2192.8,-14.17 2434.86,33.82 -36,-70.38 -34.63,-61.24 -92.69,-110.55 59.75,-27.1 48.77,-0.4 61.05,-66.29 -73.33,-81.21 -92.41,-161.19 -187.47,-259.89 -87.78,-91.12 -132.41,-179.65 -204.52,-272.04l-417.12 -511.5c-317.56,-406.4 -537.34,-579.83 -789.87,-1090.81 -213.91,-432.84 -365.75,-802.59 -759.55,-1097.56 -270.8,-202.83 -709.94,-353.03 -1083.93,-305.44 -153.59,19.55 -247.51,96.65 -358.27,111.29 -0.08,-139.55 -6.38,-207.59 -70.24,-316.73 -62.68,-107.13 -72.43,-127.96 -128.43,-253.07 -95.2,-212.67 -191.98,-209.61 -246.76,-517.46 -33.58,-188.66 9.78,-165.03 -113.3,-264.88 -403.6,-327.41 -154.83,-419.3 55.19,-673.22 101.22,-122.38 229.18,-286.68 329.84,-432.43 112.09,-162.3 224.37,-260.36 322.58,-439.06 88.4,-160.85 189.64,-325.72 246.09,-515.89 36.98,-124.59 145.31,-392.63 149.41,-520.95 3.6,-112.54 16.13,-45.46 -24.62,-92.91 -149.81,192.15 -258.82,745.57 -287.89,808.19 -44,94.77 -118.04,117.27 -181.83,198.75 -140.06,178.91 -502.16,703.85 -659.95,840.07 -243.58,210.26 -478.42,705.72 -641.32,834.4 -202.17,159.7 -167.1,45.2 -412.65,325.66 -501.69,573.03 -1498.97,630.08 -2120.44,856.09 -180.06,65.48 -352.01,184.34 -493.76,268.24 -100,59.17 -115.26,103.71 -196.46,160.27 -86.36,60.14 -156.28,84.02 -238.59,142.36 -298.05,211.26 -288.52,310.73 -728.27,389.14 -196.31,35 -172.92,-15.63 -326.17,-39.38 -146.81,-22.74 -190.06,12.19 -278.53,-98.35 -115.85,-144.75 -75.1,-86.4 -267.47,-119.59l-47.62 -98.77c-120.29,29.99 -122.05,76.36 -261.59,98.16 67.1,-348.28 987.13,-801.83 535.62,-1244.1 -159.54,-156.28 -300.36,-53.26 -333.28,-353.22 135.06,22.2 330.67,138.33 454.98,208.14 76.73,43.08 368.89,151.45 461.44,181.24 271.52,87.41 333.96,191.29 404.41,239.82 100.72,69.39 521.75,26.6 405.08,-173.82 -123,-53.13 -190.31,-5.63 -318.03,17.57 26.28,-74.51 19.51,-69.77 96.93,-115.71 50.21,-29.79 87.73,-38.58 158.91,-47.86 259.33,-33.83 232.9,-35.16 190.27,138.53 370.52,-50.72 584.08,-367.33 718.53,-449.69 77.91,-47.73 215.42,-61 293.06,-111.75l227.36 -152.96c357.31,-179.02 570.96,-452.75 845.08,-702.66 69.52,-63.38 134.86,-109.63 207.42,-174.71 345.19,-309.6 395.68,-834.57 575.86,-1352.04 42.86,-123.1 100.39,-159.78 126.12,-281.24 -66.57,-122.75 -87.89,-11.43 -93.41,-189 -3.19,-102.54 28.27,-179.52 -28.1,-256.18 -112.04,131.86 -41.43,448.4 -131.28,670.84 -48.8,120.81 -67.51,163.36 -109.38,294.78 -30.17,94.65 -67.73,221.93 -116.48,291.47 -118.12,-103.23 -150.34,-296.26 -286,-355.4 -11.52,256.7 213.83,480.28 176.75,734.18 -27.32,187.13 -495.99,584.48 -662.37,728.42 -86.03,74.43 -157.51,168.49 -242.2,233.59 -84.35,64.83 -487.26,306.83 -586.62,344.58 25.88,-91.1 185.26,-339.12 240.74,-428.5 99.16,-159.76 147.35,-230.76 235.63,-430.51 94.16,-213.03 368.62,-740.43 387.8,-971.31 28.82,-346.93 -187.26,-905.77 552.38,-1398.47 71.44,-47.58 132.32,-67.18 206.94,-125.81 50.91,-39.99 134.13,-118.13 159.03,-187.64 -240.12,-257.45 -496.56,-187.35 -651.09,-322.27 -52.15,-45.54 -5.03,-34.22 -62.08,-64.35 -60.48,103.14 -91.48,159.73 -248.13,184.91 -190.96,-175.51 -57.41,-129.72 -363.64,-257.42 -38.18,-77.51 -6.42,-90.94 -68.14,-143.28 -48.09,-40.77 -82.26,-19.97 -143.75,-93.06 -116.9,-138.94 -40.71,-138.28 -269.4,-201.72 -33.76,-366.56 -238.38,-464.37 -293.64,-854.63 -89.62,-632.81 210.92,-801.81 611.03,-1081.34 101.08,-70.61 243.29,-156.67 386.95,-182.33 277.68,-49.6 691.71,146.25 857.13,266.17 173.89,126.07 343.59,420.78 420.58,721.27 65.04,253.89 184.57,629.29 341.85,801.51 127.19,139.27 124.63,189.45 420.28,158.54 191.07,-19.97 342.39,-47.93 541.02,-18.85 368.25,53.91 493.77,218.34 787.79,348.96 170.46,75.73 234.59,124.24 345.26,227.08 125.29,116.44 181.54,132.53 292.67,278.84 85.52,112.59 150.45,209.71 231.51,339.52 68.48,109.66 130.68,300.77 196.9,374.63 124.54,138.9 312.86,584.54 366.13,778.59 122.37,445.76 66.14,1017.55 259.31,1453.5 195.58,441.36 648.65,508.29 909.04,804.34 354.91,403.53 524.77,600.36 525.69,1193.02 0.75,479.84 -12.67,319.94 -140.89,452.38 9.43,204.28 252.92,482.11 373.07,644.99 146.85,199.07 236.22,457.87 380.03,667.73 141.19,206.03 262.3,426.49 365.25,658.2l427.51 929.71z"/>
  </g>
  <path class="fil4" d="M6620.96 4495.27l141.43 7.74c-28.58,-146.66 -111.04,-73.14 -34.97,-200.57 57.34,-96.06 75.91,-73.41 102.51,-210 72.52,-372.45 193.25,-151.05 317.15,-116.39 -15.14,-298.98 -297.69,-296.13 -406.78,-68.86 -45.82,95.46 -55.14,212.98 -98.19,306.38 -55.28,119.92 -91.89,157.44 -21.15,281.7z"/>
  <path class="fil5" d="M20000 15176.26c-26.3,-316.31 -642.62,-1552.64 -845.09,-1853.99 -139.69,-207.91 -232.47,-458.51 -372.45,-656.03 -150.09,-211.79 -325.51,-391.91 -387.93,-659.97 182.38,-122.19 135.79,-140.49 135.79,-427 0,-230.53 -1.82,-353.43 -55.45,-526.8 -107.13,-346.31 -457.88,-750.72 -767.46,-940.14 -416.82,-255.04 -643.92,-423.12 -725.97,-1001.06 -101.75,-716.7 -64.54,-1190.13 -502.19,-1787.83 -75.92,-103.68 -126.48,-250.27 -192.81,-369.96 -223.71,-403.66 -280.4,-380.78 -535.19,-629.07 -128.33,-125.05 -183.5,-147.97 -350.57,-231.52 -530.75,-265.4 -638.36,-428.14 -1323.62,-327.95 -261.14,38.17 -285.26,-14.42 -411.28,-148.86 -354.69,-378.36 -308.65,-1190.24 -763.4,-1526.48 -140.5,-103.88 -425.12,-250.1 -702.65,-274.07l-149.38 0c-5.61,0.54 -11.2,1.12 -16.77,1.79 -207.99,24.94 -567.7,310.26 -717.07,427.7 -377.04,296.46 -354.13,828.24 -131.81,1272.06 34.36,68.59 69.27,126.21 93.35,197.75 22.47,66.75 37.63,159.51 55.38,235.73 137.37,32.02 153.52,34.77 224.83,143.82 82.87,126.73 172.51,117.68 211.42,176.65 44.71,67.77 -2.25,77.92 68.11,125.94 155.6,106.19 164.23,4.97 329.78,252.32 124.27,-28.97 219.83,-72.87 252.18,-194.09 31.36,22.99 -5.43,-6.14 30.27,27.94 207.59,198.22 505.28,116.99 668.08,360.25 -36.26,155.74 -227.56,227.68 -353.38,306.34 -117.45,73.44 -265,209.31 -345.44,314.28 -421.3,549.79 6.71,791.89 -374.59,1585.55 -143.73,299.19 -265.69,614.69 -447.56,891.44l-244.3 434.89c97.28,-8.1 496.04,-250.57 595.96,-335.36l359.32 -339.21c51.02,-50.77 76.44,-60.15 126.43,-106.42 112.93,-104.5 380.52,-357.24 418.35,-514.66 49.35,-205.35 -175.63,-483.69 -180.96,-722.92 79.63,21.27 108.35,91.05 151.49,158.98 23.87,37.59 33.5,59.66 56.85,98.39 29.66,49.2 30.76,66.65 102.04,72.58 42.91,-184.29 131.38,-382.92 200.16,-556.69 50.05,-126.47 38.4,-178.92 57.56,-330.6l91.46 -335.49c6.18,74.32 15.65,41.65 10.25,109.21 -25.9,324.61 74.33,221.98 86.74,317.79 -20.23,86.9 -81.1,173.69 -116.39,252.32 -84.06,187.28 -123.42,399.45 -178.66,597.62 -24.49,87.87 -60.72,200.81 -95.4,292.74 -147.46,390.86 -433.17,564.52 -710.42,841.93 -197.84,197.94 -397.34,364.27 -637.05,507.75 -86.49,51.77 -146.51,104.35 -234.16,153.9 -95.3,53.87 -186.19,61.48 -279.08,108.95 -131.54,67.21 -266.61,248.1 -431.59,344.55 -77.08,45.05 -175.89,100.35 -285.24,102.78 1.9,-85.29 13.13,-60.45 19.4,-135.86 -140.85,-32.83 -444.13,-0.71 -484.97,174.68 169.19,-3.77 156.8,-83.04 329.78,0 0,256.63 -377.68,180.14 -431.11,140.21l-173.52 -136.94c-166.62,-105.86 -488.36,-180.13 -688.88,-281.2 -122.16,-61.57 -289.2,-187.89 -452.37,-187.89 25.46,109.35 29.11,156.26 112.59,217.31 113.5,83.01 512.4,194.28 282,604.5 -98.84,175.99 -195.72,229.56 -311.27,367.88 -32.81,39.26 -31.67,47.05 -68.55,86.7 -80.8,86.89 -197.65,181.69 -208.76,315.17 145.4,-3.24 126.18,-74.39 271.58,-77.63 40.2,172.64 128.51,41.13 239.05,129.59 75.22,60.2 96.76,144.42 209.02,159.65l310.94 58.58c106.82,13.62 246.25,-25.5 335.71,-48.29 212.02,-54 316.98,-173.83 468.04,-288.66 113.78,-86.5 233.27,-133.59 341.63,-221.06l327.54 -235.15c851.78,-510.67 978.2,-37.41 2159.44,-788.9 59.51,-37.86 605.73,-493.29 668.25,-535.45 142.35,-95.97 239.45,-273.17 337.07,-419.7 51.33,-77.04 94.5,-147.04 148.28,-220.42 132.81,-181.19 330.08,-355.35 526.81,-618.05 119.32,-159.33 258.8,-398.25 409.96,-521.46 125.71,-102.47 135.81,-232.88 182.99,-399.19 43.13,-152.02 123.15,-462.74 221.79,-535.05 0,349.82 -212.28,818.58 -388.61,1125.1 -116.41,202.37 -337.28,457.85 -487.12,657.76 -193.27,257.85 -498.92,492.17 -417.93,675.04 114.31,258.11 257.02,102.65 307.21,470.03 30.61,224.02 147.37,320.47 243.31,513.52 111.77,224.91 199.98,344.44 199.98,576.28 148.28,0 202.77,-76.17 366.96,-98.68 366.68,-50.27 796.27,95.24 1068.71,292.61 192.23,139.27 313.68,286.77 446.24,485.16 128.37,192.11 223.33,416.77 324.18,626.69 145,301.79 359.56,568.04 573.92,823.24 295.23,351.47 684.5,872.78 965.99,1229.89 248.05,314.7 1049.38,237.01 1254.23,102.22z"/>
 </g>
</svg>
