<?xml version="1.0" encoding="UTF-8"?>
<!DOCTYPE svg PUBLIC "-//W3C//DTD SVG 1.1//EN" "http://www.w3.org/Graphics/SVG/1.1/DTD/svg11.dtd">
<!-- Creator: CorelDRAW 2017 -->
<svg xmlns="http://www.w3.org/2000/svg" xml:space="preserve" width="181mm" height="181mm" version="1.1" style="shape-rendering:geometricPrecision; text-rendering:geometricPrecision; image-rendering:optimizeQuality; fill-rule:evenodd; clip-rule:evenodd"
viewBox="0 0 18100 18100"
 xmlns:xlink="http://www.w3.org/1999/xlink">
 <defs>
  <style type="text/css">
   <![CDATA[
    .fil6 {fill:#0C0A14}
    .fil4 {fill:#1F1F24}
    .fil2 {fill:#888887}
    .fil3 {fill:#9C9A9D}
    .fil1 {fill:#ADACB2}
    .fil5 {fill:#C5C4CA}
    .fil0 {fill:#FAF7F9}
   ]]>
  </style>
 </defs>
 <g id="Capa_x0020_1">
  <metadata id="CorelCorpID_0Corel-Layer"/>
  <g id="_1500104436784">
   <path class="fil0" d="M7693.93 7905.33c217.61,224.65 111.81,560.08 -99.93,638.7 -252.24,93.64 -558.11,139.28 -817.99,196.94 -111.56,24.76 -229.63,65.02 -331.29,89.28 -519.96,124.08 -781.1,223.16 -1237.95,460.43l-975.02 660.89c-415.47,312.97 -656,348.13 -526.82,1150.58 30.69,190.72 159.38,424.89 302.81,493.77 89.94,43.21 248.48,48.42 350.8,65.96 164.55,28.24 193,61.25 319.76,100.99 118.7,37.23 214.09,56.29 331.99,87.3 190.08,50 158.93,81.15 305.27,110.69 313.28,63.22 1043.65,187.41 1253.28,407.31 358.51,376.05 184.14,148.62 452.98,389.09 283.79,253.9 460.23,1084.05 739.55,877.17 40.22,-29.82 301.54,-714.13 -141.7,-1207.54 -504.77,-561.92 -351.96,-567.93 -624.85,-945.17 -369.37,-510.65 -817.95,-510.79 -242.22,-1191.86 123.52,-146.13 95.14,-84.85 232.09,-190.12 158.55,-121.87 207.46,-317.89 479.92,-346.16 -16.67,218.17 27.85,59.84 -71.2,181.29l-390.57 336.35c-533.82,550.7 -346.23,522.74 -138.71,846.83 294.58,460.01 253.72,104.99 632.51,850.26 294.83,580.02 658.57,470.18 535.23,1392.6 -37.45,280.2 -143.11,561.1 -487.66,448.55 -239.44,-78.2 -242.4,-367.15 -437.4,-544.65l-60.83 95.43c-79.22,323.03 -97.54,368.84 19.73,654.35 72.01,175.24 126.19,368.7 232.34,523.83 296.69,15.51 713.91,-19.76 969.4,-78.06 283.01,-64.59 158.68,-86.35 382.62,-164.2l1390.84 -311.14c96.02,-10.02 826.53,-67.16 930.36,-26.55 126.58,49.51 38.4,-33.61 104.29,91.84 -71.06,114.1 -55.8,119.52 -488.74,85.48 -807.72,-63.57 -603.4,46.73 -1399.1,173.7 -458.26,73.13 -524.68,233.75 -747.32,316.55 -299.08,111.22 -664.26,77.01 -1027.62,101.02 -106.54,253.02 -54.6,107.56 -180.37,241.66 -48.49,376.69 73.27,795.95 248.76,1003.57l450.7 504.64c97.29,128.27 73.06,107.7 231.18,155.9l-28.48 -356.71 413.46 -167.4c120.92,-59.18 338.25,-69.94 502.98,-85.97l2186.61 -143.84c332.83,-2.57 792.32,33.96 1087.01,91.84 7.35,-8.55 20.25,-30.56 25.14,-22.61l80.8 -55.27c30.83,-15.83 75.42,-26.73 113.18,-42.94 53.48,-22.99 162.69,-91.66 202.35,-136.88 126.23,-143.84 89.52,-419.33 36.36,-596.58 -197.04,-656.85 -305.69,-578.79 -466.55,-883.18 -222.19,45.22 -34.81,79.96 -275.1,75 -205.21,-317.89 -198.1,-2285.55 -527.77,-3203.54 -175.42,-488.42 -20.89,-325.41 -273.07,-649.63 -91.8,-118.04 -74.57,-158.83 -63.32,-331.22 200,0.49 224.82,37.62 309.77,199.12l478.33 984.16c219.13,543.06 123.66,434.77 422.18,986.27 70.08,129.43 79.47,234.49 119.37,382.59 73.35,272.32 204.5,443.49 282.84,655.89 174.65,473.7 244.9,1119.82 279.39,1636.23l92.79 602.1c56.58,161.88 35.41,28.24 95.43,166 451.12,7.66 839.97,54.78 1250.37,-50.49 197.74,-50.71 234.87,-51.94 224.92,-257.88l-56.29 -34.14c-263.32,-120.85 -374.26,13.47 -656.6,-118.91l-152.42 -2105.31c-32.21,-494.76 81.43,-1130.44 -72.01,-1447.56 -4.89,-10.09 -20.78,-37.76 -25.71,-47.64 -3.44,-6.82 -9.35,-16.31 -12.62,-23.24l-61.74 -237.41c-33.48,-140.57 -35.87,-97.43 -90.16,-222.5 -147.29,-339.16 -127.53,-520.14 -233.22,-887.05 -95.04,-329.95 -195.85,-485.68 -325.31,-776.43 -104.57,-234.73 -223.03,-526.61 -364.59,-744.75 -148.45,-228.72 -397.92,-482.06 -378.54,-709.27 233.08,-150.8 186.28,-45.95 409.34,-391.34 6.82,-10.55 42.79,-67.72 45.15,-71.1 75.46,-108.96 -8.72,-19.97 70.89,-90.92 17.72,-115.4 35.44,-124.44 103.54,-231.82l252.04 -441.38c46.34,-88.64 64.87,-140.93 113.54,-224.68 282.66,-486.63 214.55,-412.93 366.66,-1001.07 258.4,-999.04 274.36,-2600.14 -486.53,-3384.9 -666.94,-687.83 -629.24,-769.4 -1692.03,-1076.43 -575.55,-166.24 -562.05,-161.6 -1283.66,-126.58 -847.28,41.14 -1389.4,300.91 -2064.07,697.95 -237.16,139.56 -161.78,202.14 -316.27,366.66 -385.55,410.69 -272.36,381.71 -536.81,833.53 -351.3,600.17 -228.55,1042.64 -357.87,1529.8 -71.1,267.82 -115.79,1162.81 -72.01,1465.2 97.89,676.15 217.75,993.83 528.82,1538.48 40.44,70.81 81.51,152.18 126.62,212.58 42.54,57 50.91,57 88.57,100.6l95.18 127.07z"/>
   <path class="fil0" d="M6201.23 15389.85c59.67,-326.26 463.85,-1745.58 582.66,-1934.57 68.67,-196.94 163.99,-313.25 142.33,-552.94 -76.47,-171.98 -889.54,-679.04 -1387.6,-684.14 -329.95,444.37 -380.41,1074.88 -472.6,1318.58l-431.39 1313.98c-84,317.22 -187.98,275.63 -274.97,626.85 -161.81,653.37 -398.2,747.18 -725.12,1032.12 -286.88,250.07 -550.73,824.46 314.2,424.43 528.43,-244.37 1764.56,-187.86 1964.42,-217.78 79.71,-139.24 262.12,-1084.9 288.07,-1326.53z"/>
   <path class="fil1" d="M12324.63 15970.75l181.08 -28.52c10.72,0.21 24.89,3.9 33.43,4.57 8.58,0.64 26.83,18.22 32.95,7.67 6.15,-10.59 22.29,4.89 32.81,9.17 -8.16,7.07 -20.54,13.65 -27.39,17.3 -438.96,234.21 -644.58,31.97 -898.02,72.12 107.31,100.21 431.5,119.58 623.02,90.93 60.76,-9.07 191.84,-51.83 261.78,-77.5 221.26,-81.12 90.46,-60.55 223.2,-139.69 6.05,-8.55 16.14,-31.3 19.58,-24.62l151.69 -140.96 113.22 93.28c75.84,63.61 4.15,41.07 121.27,80.84 102.77,34.84 414.48,-23.77 798.02,-0.32 165.29,10.09 280.02,-13.64 443.66,-22.89 233.93,-112.72 587.26,-98.55 526.47,-512.61 -56.19,-382.84 -518.49,-156.08 -778.68,-328.3l-112.66 -1900.89c-10.33,-511.59 -34.28,-1427.86 -211.35,-1818.25 -206.99,-456.29 -197.33,-1139.15 -624.71,-1901.7 -193.67,-345.52 -92.44,-381.14 -354.49,-678.47 -80.95,-91.8 -48.81,-57.1 -104.57,-159.14l-137.24 -161.6 -261.14 -255.62c34.42,-83.01 68.99,-82.77 132.42,-143.81l38.85 -39.91c7.52,-8.33 26.76,-33.93 33.75,-42.43 173.98,-211.46 84.07,-52.82 175.35,-241.39 62.77,-129.64 64.98,-68.35 71.28,-207.69 -79.61,70.95 4.57,-18.04 -70.89,90.92 -2.36,3.38 -38.33,60.55 -45.15,71.1 -223.06,345.39 -176.26,240.54 -409.34,391.34 -19.38,227.21 230.09,480.55 378.54,709.27 141.56,218.14 260.02,510.02 364.59,744.75 129.46,290.75 230.27,446.48 325.31,776.43 105.69,366.91 85.93,547.89 233.22,887.05 54.29,125.07 56.68,81.93 90.16,222.5l61.74 237.41c3.27,6.93 9.18,16.42 12.62,23.24 4.93,9.88 20.82,37.55 25.71,47.64 153.44,317.12 39.8,952.8 72.01,1447.56l152.42 2105.31c282.34,132.38 393.28,-1.94 656.6,118.91l56.29 34.14c9.95,205.94 -27.18,207.17 -224.92,257.88 -410.4,105.27 -799.25,58.15 -1250.37,50.49 -60.02,-137.76 -38.85,-4.12 -95.43,-166l-92.79 -602.1c-34.49,-516.41 -104.74,-1162.53 -279.39,-1636.23 -78.34,-212.4 -209.49,-383.57 -282.84,-655.89 -39.9,-148.1 -49.29,-253.16 -119.37,-382.59 -298.52,-551.5 -203.05,-443.21 -422.18,-986.27l-478.33 -984.16c-84.95,-161.5 -109.77,-198.63 -309.77,-199.12 -11.25,172.39 -28.48,213.18 63.32,331.22 252.18,324.22 97.65,161.21 273.07,649.63 329.67,917.99 322.56,2885.65 527.77,3203.54 240.29,4.96 52.91,-29.78 275.1,-75 160.86,304.39 269.51,226.33 466.55,883.18 53.16,177.25 89.87,452.74 -36.36,596.58 -39.66,45.22 -148.87,113.89 -202.35,136.88 -37.76,16.21 -82.35,27.11 -113.18,42.94l-80.8 55.27c-4.89,-7.95 -17.79,14.06 -25.14,22.61zm427.98 -1587.21c-21.24,-360.97 -153.66,-990.35 -326.61,-1296.22 -188.22,-332.87 -95.15,-552.67 -275.14,-879.1 -108.4,-196.66 -29.68,-104.18 -118.21,-184.32 -62.73,-56.71 -0.78,-7.21 -87.62,-59.77l149.08 1454.16c17.62,118.74 9.99,251.16 45.01,340.5 70.39,179.64 57.84,59.71 188.85,195.29 156.78,162.27 168.63,329.6 424.64,429.46z"/>
   <path class="fil2" d="M7580.68 8047.59l-8.9 293c-326.4,70.68 -646.65,142.44 -982.68,230.94l-907.09 299.4c-130.03,55.27 -314.66,118.21 -431.22,184.84 -130.48,74.61 -242.37,162.45 -370.32,239.98 -131.15,79.42 -261.56,145.74 -382.83,222.25 -212.66,134.17 -890.28,614.09 -974.46,822.38 -151.76,375.49 -37.8,967.61 213.18,1227.97 269.44,279.54 657.83,297.33 1147.07,396.1l404.53 210.82c-25.18,161.5 -57.7,188.4 -116.95,318.74l-200.49 682.97c-48.8,166.73 -81.05,175.38 -126.93,322.18 -87.27,279.08 -113.01,433.19 -222.75,676.05 -92.19,203.97 -128.23,473.34 -204.11,713.03 -93,293.77 -199.54,349.22 -278.9,598.06 -64.59,202.45 -130.76,476.96 -275.63,600.8 -170.95,146.16 -774.07,451.78 -728.04,1061.55 375.8,270.67 567.78,57.56 915.73,-32.46 465.08,-120.28 1086.13,-233.96 1565.52,-208.92 526.54,27.53 452.18,83.47 596.3,-585.09 27.71,-128.41 120.67,-391.62 53.83,-494.19 23.7,-168.1 150.95,-494.72 152.6,-744.29 -176.93,72.54 -37.48,-79.89 -159.42,168.88 -27.53,56.19 10.58,65.89 -57.49,137.27 -25.95,241.63 -208.36,1187.29 -288.07,1326.53 -199.86,29.92 -1435.99,-26.59 -1964.42,217.78 -864.93,400.03 -601.08,-174.36 -314.2,-424.43 326.92,-284.94 563.31,-378.75 725.12,-1032.12 86.99,-351.22 190.97,-309.63 274.97,-626.85l431.39 -1313.98c92.19,-243.7 142.65,-874.21 472.6,-1318.58 498.06,5.1 1311.13,512.16 1387.6,684.14 21.66,239.69 -73.66,356 -142.33,552.94 -8.9,110.48 -39.98,144.69 -48.17,214.34 -37.2,316.28 -20.71,170.39 103.34,227.46 79.71,-37.83 104.32,10.69 121.37,-292.79 7.67,-136.46 -3.06,-163.71 85.55,-244.05l60.83 -95.43c195,177.5 197.96,466.45 437.4,544.65 344.55,112.55 450.21,-168.35 487.66,-448.55 123.34,-922.42 -240.4,-812.58 -535.23,-1392.6 -378.79,-745.27 -337.93,-390.25 -632.51,-850.26 -207.52,-324.09 -395.11,-296.13 138.71,-846.83l390.57 -336.35c99.05,-121.45 54.53,36.88 71.2,-181.29 -272.46,28.27 -321.37,224.29 -479.92,346.16 -136.95,105.27 -108.57,43.99 -232.09,190.12 -575.73,681.07 -127.15,681.21 242.22,1191.86 272.89,377.24 120.08,383.25 624.85,945.17 443.24,493.41 181.92,1177.72 141.7,1207.54 -279.32,206.88 -455.76,-623.27 -739.55,-877.17 -268.84,-240.47 -94.47,-13.04 -452.98,-389.09 -209.63,-219.9 -940,-344.09 -1253.28,-407.31 -146.34,-29.54 -115.19,-60.69 -305.27,-110.69 -117.9,-31.01 -213.29,-50.07 -331.99,-87.3 -126.76,-39.74 -155.21,-72.75 -319.76,-100.99 -102.32,-17.54 -260.86,-22.75 -350.8,-65.96 -143.43,-68.88 -272.12,-303.05 -302.81,-493.77 -129.18,-802.45 111.35,-837.61 526.82,-1150.58l975.02 -660.89c456.85,-237.27 717.99,-336.35 1237.95,-460.43 101.66,-24.26 219.73,-64.52 331.29,-89.28 259.88,-57.66 565.75,-103.3 817.99,-196.94 211.74,-78.62 317.54,-414.05 99.93,-638.7l-176.19 -50.7 62.94 192.96z"/>
   <path class="fil3" d="M7580.68 8047.59l-62.94 -192.96 176.19 50.7 -95.18 -127.07c-37.66,-43.6 -46.03,-43.6 -88.57,-100.6 -45.11,-60.4 -86.18,-141.77 -126.62,-212.58 -311.07,-544.65 -430.93,-862.33 -528.82,-1538.48 -43.78,-302.39 0.91,-1197.38 72.01,-1465.2 129.32,-487.16 6.57,-929.63 357.87,-1529.8 264.45,-451.82 151.26,-422.84 536.81,-833.53 154.49,-164.52 79.11,-227.1 316.27,-366.66 674.67,-397.04 1216.79,-656.81 2064.07,-697.95 721.61,-35.02 708.11,-39.66 1283.66,126.58 1062.79,307.03 1025.09,388.6 1692.03,1076.43 760.89,784.76 744.93,2385.86 486.53,3384.9 -152.11,588.14 -84,514.44 -366.66,1001.07 -48.67,83.75 -67.2,136.04 -113.54,224.68l-252.04 441.38c-68.1,107.38 -85.82,116.42 -103.54,231.82 -6.3,139.34 -8.51,78.05 -71.28,207.69 -91.28,188.57 -1.37,29.93 -175.35,241.39 -6.99,8.5 -26.23,34.1 -33.75,42.43l-38.85 39.91c-63.43,61.04 -98,60.8 -132.42,143.81l261.14 255.62c-28.02,-240.32 -191.03,-44.58 131.72,-485.96l831.21 -1456.27c301.01,-684.62 462.3,-1860.06 392.29,-2713.14 -84,-1023.51 -492.08,-1441.51 -1020.84,-2040.87 -136.77,-155.06 -216.13,-269.37 -410.99,-361.03 -181.72,-85.48 -366.6,-140.36 -528.93,-231.19 -379.32,-212.19 -700.7,-323.34 -1215.49,-340.11 -1001.71,-32.63 -1776.59,144.41 -2503.44,546.65 -142.62,78.9 -666.45,622.57 -779.18,748.83 -562.96,630.58 -722.03,1475.29 -788.56,2320.74 -75.03,953.15 -252.38,1512.57 201.62,2652.42 66.45,166.84 166.2,372.75 259.28,508.26 81.11,118.07 109.84,109.1 185.23,194.12 72.22,81.51 97.08,183.9 189.06,253.97z"/>
   <path class="fil3" d="M6783.89 13455.28c-118.81,188.99 -522.99,1608.31 -582.66,1934.57 68.07,-71.38 29.96,-81.08 57.49,-137.27 121.94,-248.77 -17.51,-96.34 159.42,-168.88 -1.65,249.57 -128.9,576.19 -152.6,744.29 112.83,-108.54 112.31,-267.5 162.87,-466.62 81.26,-319.93 258.19,-1308.74 440.57,-1379.66 64.2,131.51 152.6,409.28 220.21,575.8 123.53,304.29 -115.36,106.82 -70.46,680.97 52.39,669.54 551.72,969.22 547.25,1102.16 302.21,174.26 339.9,577.63 726.85,507.2 379.85,-69.12 -313.39,-555.12 573.2,-616.44 418.49,-66.28 964.3,-20.01 1356.1,-103.97 469.68,-100.71 963.52,-39 1457.36,-74.37 253.44,-40.15 459.06,162.09 898.02,-72.12 6.85,-3.65 19.23,-10.23 27.39,-17.3 -10.52,-4.28 -26.66,-19.76 -32.81,-9.17 -6.12,10.55 -24.37,-7.03 -32.95,-7.67 -8.54,-0.67 -22.71,-4.36 -33.43,-4.57l-181.08 28.52c-294.69,-57.88 -754.18,-94.41 -1087.01,-91.84l-2186.61 143.84c-164.73,16.03 -382.06,26.79 -502.98,85.97l-413.46 167.4 28.48 356.71c-158.12,-48.2 -133.89,-27.63 -231.18,-155.9l-450.7 -504.64c-175.49,-207.62 -297.25,-626.88 -248.76,-1003.57 125.77,-134.1 73.83,11.36 180.37,-241.66 363.36,-24.01 728.54,10.2 1027.62,-101.02 222.64,-82.8 289.06,-243.42 747.32,-316.55 795.7,-126.97 591.38,-237.27 1399.1,-173.7 432.94,34.04 417.68,28.62 488.74,-85.48 -65.89,-125.45 22.29,-42.33 -104.29,-91.84 -103.83,-40.61 -834.34,16.53 -930.36,26.55l-1390.84 311.14c-223.94,77.85 -99.61,99.61 -382.62,164.2 -255.49,58.3 -672.71,93.57 -969.4,78.06 -106.15,-155.13 -160.33,-348.59 -232.34,-523.83 -117.27,-285.51 -98.95,-331.32 -19.73,-654.35 -88.61,80.34 -77.88,107.59 -85.55,244.05 -17.05,303.48 -41.66,254.96 -121.37,292.79 -124.05,-57.07 -140.54,88.82 -103.34,-227.46 8.19,-69.65 39.27,-103.86 48.17,-214.34z"/>
   <path class="fil2" d="M11500.13 6014.36c-154.08,-98.45 -644.26,187.24 -944.92,304.32 -341.77,133.09 -729.35,246.13 -1153.46,237.13 -627.42,-13.33 -980.79,-236.25 -1517.56,-521.23 -182.95,-97.12 -287.06,-226.68 -493.07,-236 52.85,338.11 570.35,508.89 850.76,626.5l479.78 240.61c798.3,323.02 1870.22,-149.4 2598.34,-451.61 142.86,-59.28 167.9,-50.92 180.13,-199.72z"/>
   <path class="fil4" d="M11314.3 3886.09l19.87 -28.06c-6.26,10.48 -14.38,23.35 -19.97,30.63 -5.35,6.96 -13.54,20.57 -20.18,28.69 -65.51,79.99 -153.52,120.5 -188.71,277.07 -34.99,155.59 5.87,285.61 86.21,375.41 198.49,221.87 549.75,42.83 716.8,-86.11 92.37,-470.28 -179.82,-606.39 -594.02,-597.63z"/>
   <path class="fil4" d="M8347.65 3718.41c6.01,247.14 127.46,172.57 35.93,402.06 -46.94,117.72 -129.14,169.83 -269.72,216.25l-3.2 -273.91 -148.8 -36c-8.54,-3.63 -18.6,-8.16 -27.11,-12.31 -10.93,-5.35 -68.88,-40.61 -78.09,-46.55l-79.54 -58.23c129.61,-179.15 295.88,-229.78 514.16,-229.78 -65.61,-134.63 -120.04,-150.81 -305.62,-76.72 -825.69,329.53 -131.53,1172.38 451.09,678.79 181.22,-153.55 132.66,-472.99 -89.1,-563.6z"/>
   <path class="fil5" d="M11334.17 3858.03c-251.26,-31.54 -57.31,-9.35 -118.84,20.47 -10.2,4.95 -40.65,26.33 -49.97,33.82 -200.94,161.07 -218.77,555.16 8.12,751.5 285.93,247.43 643.91,-27.53 837.26,-141.84 19.55,-211.92 59.78,-428.69 -106.82,-549.11 -76.75,-55.45 -314.06,-182.66 -398.34,-181.29 -333.22,5.31 -104.43,-0.35 -191.28,94.51 414.2,-8.76 686.39,127.35 594.02,597.63 -167.05,128.94 -518.31,307.98 -716.8,86.11 -80.34,-89.8 -121.2,-219.82 -86.21,-375.41 35.19,-156.57 123.2,-197.08 188.71,-277.07 6.64,-8.12 14.83,-21.73 20.18,-28.69 5.59,-7.28 13.71,-20.15 19.97,-30.63z"/>
   <path class="fil6" d="M8347.65 3718.41c-14.63,-30.07 75.74,-38.05 -56.37,-38.47 -218.28,0 -384.55,50.63 -514.16,229.78l79.54 58.23c9.21,5.94 67.16,41.2 78.09,46.55 8.51,4.15 18.57,8.68 27.11,12.31l148.8 36 3.2 273.91c140.58,-46.42 222.78,-98.53 269.72,-216.25 91.53,-229.49 -29.92,-154.92 -35.93,-402.06z"/>
  </g>
 </g>
</svg>
