<?xml version="1.0" encoding="UTF-8"?>
<!DOCTYPE svg PUBLIC "-//W3C//DTD SVG 1.1//EN" "http://www.w3.org/Graphics/SVG/1.1/DTD/svg11.dtd">
<!-- Creator: CorelDRAW 2017 -->
<svg xmlns="http://www.w3.org/2000/svg" xml:space="preserve" width="120mm" height="120mm" version="1.1" style="shape-rendering:geometricPrecision; text-rendering:geometricPrecision; image-rendering:optimizeQuality; fill-rule:evenodd; clip-rule:evenodd"
viewBox="0 0 12000 12000"
 xmlns:xlink="http://www.w3.org/1999/xlink">
 <defs>
  <style type="text/css">
   <![CDATA[
    .fil46 {fill:#E23438}
    .fil24 {fill:#020202}
    .fil28 {fill:#040404}
    .fil21 {fill:#060606}
    .fil15 {fill:#070909}
    .fil49 {fill:#0B0B0B}
    .fil52 {fill:#10100F}
    .fil10 {fill:#131313}
    .fil2 {fill:#171818}
    .fil3 {fill:#544F4A}
    .fil60 {fill:#565D62}
    .fil64 {fill:#697C82}
    .fil0 {fill:#747474}
    .fil61 {fill:#777A78}
    .fil65 {fill:#7C9FA4}
    .fil1 {fill:#848484}
    .fil66 {fill:#888887}
    .fil63 {fill:#918874}
    .fil32 {fill:#A9DDE5}
    .fil25 {fill:#B6E3E9}
    .fil33 {fill:#BAE4EB}
    .fil30 {fill:#BCE5EB}
    .fil34 {fill:#BDE6EC}
    .fil59 {fill:#BFE7EC}
    .fil51 {fill:#C2E6ED}
    .fil23 {fill:#C4E5EB}
    .fil56 {fill:#C6E3E5}
    .fil55 {fill:#C8EAF1}
    .fil17 {fill:#CBE6EB}
    .fil38 {fill:#D27073}
    .fil7 {fill:#D4EDF2}
    .fil40 {fill:#D57275}
    .fil5 {fill:#D6B9B5}
    .fil35 {fill:#D9BBB0}
    .fil36 {fill:#DABDB2}
    .fil62 {fill:#DAC9C5}
    .fil6 {fill:#DAF2F4}
    .fil29 {fill:#DBBEB4}
    .fil48 {fill:#DCC998}
    .fil37 {fill:#E0CB93}
    .fil41 {fill:#E2CE9D}
    .fil44 {fill:#E3D3AA}
    .fil31 {fill:#E4D2A2}
    .fil50 {fill:#E4E4E4}
    .fil39 {fill:#E6D7AD}
    .fil47 {fill:#E8AFAE}
    .fil57 {fill:#E8F6F8}
    .fil14 {fill:#EBDDBA}
    .fil42 {fill:#ECE2C4}
    .fil45 {fill:#ECECEC}
    .fil19 {fill:#EDE6D9}
    .fil27 {fill:#EEE5D1}
    .fil43 {fill:#F1E6CC}
    .fil22 {fill:#F2E9D6}
    .fil4 {fill:#F2EBE5}
    .fil8 {fill:#F2F2F2}
    .fil18 {fill:#F4FCFC}
    .fil9 {fill:#F6F6F6}
    .fil58 {fill:#F7F1DD}
    .fil54 {fill:#F7F4E9}
    .fil11 {fill:#F9F7F6}
    .fil16 {fill:#F9F9F9}
    .fil20 {fill:#FBFBFB}
    .fil53 {fill:#FCFBF4}
    .fil12 {fill:#FCFCFC}
    .fil26 {fill:#FDFDFD}
    .fil13 {fill:#FEFDFA}
   ]]>
  </style>
 </defs>
 <g id="Capa_x0020_1">
  <metadata id="CorelCorpID_0Corel-Layer"/>
  <g id="_2095233193056">
   <path class="fil0" d="M3829.99 2757.33l-4.45 -25.81 -43.84 38.85c106.19,17.26 11.14,7.57 48.29,-13.04z"/>
   <path class="fil1" d="M5254.65 5162.28l52.34 -11.69c14.3,-87.56 7.03,-2.86 -19.1,-31.39 -3.65,3.91 -29.58,39.17 -33.24,43.08z"/>
   <path class="fil2" d="M2899.6 4236.5c92.8,-13.43 125.51,-22.77 165.62,-86.34 -106.09,10.04 -117.19,19.32 -165.62,86.34z"/>
   <path class="fil2" d="M2573.94 4093.3c10.93,-4.1 33.83,8.36 44.56,-51.52 19.68,-109.83 14.59,-9.51 -19.31,-54.67l-25.25 106.19z"/>
   <path class="fil3" d="M2805.55 1162.77l3.3 28.11 176.88 -70.77c-25.38,-22.91 -14.15,-12 -29.59,-60.37l1.15 -18.08 -44.22 -0.99 14.95 62.01 -122.47 60.09z"/>
   <path class="fil3" d="M5998.54 8706.62l23.13 46.43 24.73 3.84 66.84 -32.98 -39.58 -58.06c-25.4,24.57 -21.34,21.58 -75.12,40.77z"/>
   <path class="fil4" d="M5638.38 4505.08c17.94,29.48 -20.38,29.56 38.14,20.34 56.45,-62.77 89.24,-41.94 131.97,-129.77l-91.86 -8.05c-48.03,53.51 -60.09,65.8 -78.25,117.48z"/>
   <path class="fil4" d="M7713.94 5954.22l128.92 -59.09 -95.57 -21.6 -23.28 21c-26.82,37.42 -6.65,8.56 -10.07,59.69z"/>
   <path class="fil5" d="M2333.86 3663.62c-207.52,-69.39 -394.11,315.54 -85.22,157.24 107.04,-54.85 94.69,-64.74 97.51,-98.18 7.93,-93.71 -3.89,-35.72 -12.29,-59.06z"/>
   <path class="fil5" d="M2199.83 4003c103.63,13.17 221.37,-30 235.2,-99.25 18.94,-94.82 6.93,-2.93 -6.53,-44.88l-33.65 -13.71c-99.84,-11.74 -185.51,61.29 -195.02,157.84z"/>
   <path class="fil5" d="M1838.2 3774.14c29.63,13.31 49.24,20.88 87,32.14 32.31,-10.31 44.04,-13.32 74.8,-28.57 48.46,-24.02 38.34,-18.01 72.59,-55 -171.18,29.52 -53.38,14.4 -102.98,-21.87l15.92 -65.21 -43.45 18.31 -13.4 -10.63c-60.2,43.66 -46.26,60.79 -90.48,130.83z"/>
   <path class="fil6" d="M4625.02 9487.85c97.16,-46.75 52.08,-54.92 107.95,-67.6 -1.5,1.58 -34.59,-57.35 2.46,100.93 5.6,-5.11 12.58,-21.09 15.25,-16.87l25.79 -31.03c1.84,-2.45 23.86,-35.15 24.83,-36.5 29.72,-41.47 30.55,-39.68 54.9,-86.74 45.34,-87.62 74.55,-99.42 98.84,-183.03 -107.6,30.96 -138.13,70.64 -195.79,126.63 -26.3,25.55 -53.33,53.46 -78.36,85.23 -47.07,59.73 -34.82,38.71 -55.87,108.98z"/>
   <path class="fil6" d="M5531.98 4119.72c71.37,52.47 86.21,95 163.88,139.15 20.55,-20.19 2.73,21.43 36.84,-47.37 10.1,-20.35 12.12,-36.55 17.24,-52.68l-124.71 -118.96c-3.36,-3.58 -8.03,-8.6 -11.2,-11.87l-25.56 -23.71c-21.92,57.82 -33.52,57.15 -56.49,115.44z"/>
   <path class="fil6" d="M7393.7 10664.67c-32.65,-37.01 -45.75,-63.04 -227.57,-132.17 50.71,109.52 92.54,141.79 227.57,132.17z"/>
   <path class="fil7" d="M4398.44 5851.49l-62.82 26.62c80.37,185.37 262.92,68.61 327.17,38.41 10.9,28.4 -4.11,69.3 45.13,124.35l4.1 -148.33c-68.43,-0.23 -111.63,-11.19 -150.78,-48.27 -45.95,-43.53 -17.62,-39.5 -87.33,-90.03 -25.9,48.11 -46.78,66.14 -75.47,97.25z"/>
   <path class="fil7" d="M2457.26 7301.49c3.83,4.18 9.12,5.83 11.22,12.8 1.96,6.53 9.05,9.45 11.7,10.87 41,21.93 3.57,7.88 40.6,13.83 45.51,-39.3 15.15,-7.73 8.09,-75.43 -16.94,-162.52 39.3,-107.66 -151.31,-244.33 -77.81,-55.8 -60.94,-94.02 -140.43,-145.99 26.56,95.51 53.82,162.57 94.43,232 48.49,82.9 93.45,103.05 135.12,187.15l-9.42 9.1z"/>
   <path class="fil8" d="M5369.95 3921.73c194.68,33.51 235.85,-186.95 160.59,-297.87 -110.75,-16.82 -141.05,18.68 -175.19,88.04 -54.27,110.25 -38.98,137.77 14.6,209.83z"/>
   <path class="fil8" d="M1763.58 5843.43l4.23 -57.05c32.7,69.88 18.46,58.86 90.78,78.64 127.81,11.3 22.8,6.99 63.64,-21.48l-22.88 -86.46c-68.76,-13.93 -100.71,-37.56 -148.04,-58.38 -22.15,19.22 -35.76,-45.43 -33.74,60.02 3.1,161.57 -7.32,31.36 46.01,84.71z"/>
   <path class="fil9" d="M3343.63 1882.04c126.63,-60.66 111.46,-108.84 320.08,-117.21 -7.19,8.03 -24.1,35.92 -28.42,44.38 -8.25,90.53 39.44,45.34 47.71,162.69 6.72,95.54 -30.86,105.33 -28.75,204.73l42.57 -30.76c21.69,-103.57 -7.35,-156.12 50.46,-267.8 50.32,-97.24 78.12,-113.12 151.38,-169.15 -24.51,-45.72 -7.86,-25.19 -86.33,-15.76 -200.04,24.02 -112.54,26.76 -321.17,-25.99l-140.92 167.35c-41.32,73.05 -24.04,25.63 -6.61,47.52z"/>
   <path class="fil9" d="M2525.9 5207.95c-65.7,-9.16 -83.74,-32.97 -86.51,19.77 31.78,102.63 14.37,39.46 50.16,69.77l36.35 -89.54z"/>
   <path class="fil10" d="M5242.08 11633.44c-126.42,2.09 -825.83,-19.02 -882.06,23.78 214.63,-47.02 1028.33,110.49 1237.99,-21.64 72.79,-45.88 165.55,-208.05 97.85,-298.26 -27.72,22.67 -11.28,-2.55 -31.11,34.54l-26.58 98.31c-57.42,174.05 -244.61,151.4 -396.09,163.27z"/>
   <path class="fil10" d="M4297.81 2542.38l20.69 2.23c72.55,-33.78 139.39,-98.57 239.77,-143.4 102.43,-45.76 215.93,-66.33 310.13,-104.1 -210.44,-73.81 -487.58,152.13 -570.59,245.27z"/>
   <path class="fil10" d="M2188.77 3100.95l58.85 -5.01 -32.2 -29.09 -203.74 -87.43c46.35,101.65 40.59,100.78 177.09,121.53z"/>
   <path class="fil11" d="M6832.82 7986.75c78.48,-45.58 140.59,-104.69 210.38,-158.51 82.44,-63.58 128.32,-84.9 90.07,-228.76 -51.93,-195.34 -117.89,-359.97 -178.69,-539.72 -42.36,42.57 -4.87,92.56 41.3,221.16 49.06,136.67 143.05,333.29 -6.48,431.07 -188.67,123.38 -159.81,77.73 -156.58,274.76z"/>
   <path class="fil11" d="M2163.65 5021.23c-28.88,-164.87 -123.29,-181.14 -189.83,-276.58 -65.86,-94.48 -97.07,-230.15 -155.16,-324.3 -42.03,49.11 18.69,314.32 90.75,368.44 74.46,55.91 83.4,49.21 149.37,118.53 32.23,33.87 97.91,113.36 104.87,113.91z"/>
   <path class="fil11" d="M5063.96 4780.13c40.29,-39.88 53.03,-82.97 61.28,-138.83l-192.95 -101.66c10.76,102.92 33.72,198.59 131.67,240.49z"/>
   <path class="fil11" d="M4525.3 9344.29c27.23,-11.24 -13.93,27.46 22.74,-15.85l84.75 -119.62c38.5,-53.41 88.12,-98.58 116.72,-151.87 -95.54,5.51 -136.66,36.32 -174.38,115.78 -16.51,34.77 -92.38,171.34 -49.83,171.56z"/>
   <path class="fil11" d="M2565.73 2446.18c71.47,-36.46 103.38,-49.36 93.62,-160.23 -34.51,-41.76 -11.05,-19.64 -52.33,-40.86 -44.48,47.98 -1.76,-24.58 -25.97,38.77 -0.58,1.5 -14.14,56.02 -16.43,64.55 -1.7,6.36 -14.05,45.31 -14.12,46.19 -5.23,59.11 -9.83,19.59 15.23,51.58z"/>
   <path class="fil11" d="M7318.06 10236.7c18.78,-10.1 10.66,-2.38 33.94,-20.81 1.97,-1.56 33.2,-30.76 41.62,-38.47l-32.12 -117.26 -55.05 -9.54 -41.09 8.42c48.09,59.4 48.63,75.35 31.02,170.61l21.68 7.05z"/>
   <path class="fil12" d="M7016.84 6936.85c35.3,-34.05 5.56,-60.99 32.38,-133.02 29.73,-79.84 100.43,-45.09 163.32,-292.26 14.42,-56.67 24.65,-29.69 -7.19,-60.07 -68.03,5.11 -93.19,30.49 -165.98,55.46 -53.59,18.38 -114.24,27.54 -165.28,57.3l142.75 372.59z"/>
   <path class="fil12" d="M2957.29 1041.66l-1.15 18.08c94.48,-34.36 173.23,-92.14 286.15,-89.68 3.63,-4.1 10.03,-14.94 11.77,-11.49 11.23,22.2 18.89,-19.73 22.1,-23.99 39.48,-52.43 10.4,0.7 34.35,-57.84 -139.89,-37.9 -168.27,-115.61 -252.42,-184.22l-100.8 349.14z"/>
   <path class="fil12" d="M1427.98 3475.55c42.33,-35.42 14.76,-76.34 134.48,-153.85l55.75 -49.72c-126.15,-19.37 -8.65,4.18 -63.79,-37.75 -133.33,-86.47 -100.13,-106.83 -168.94,-172.87 -33.77,113.42 -50.04,340.5 42.5,414.19z"/>
   <path class="fil13" d="M7539.24 4520.94l134.68 137.88c138.59,-27.7 82.62,-81.08 226.65,-87.05l56.25 61.29c2.83,3.24 7.39,8.53 9.99,11.49l20.85 23.32c14.96,-186.59 -15.97,-391.34 -93.97,-533.58l-35.14 -20.13c-7.26,217.75 -121.08,371.52 -319.31,406.78z"/>
   <path class="fil13" d="M1192.64 3979.98l11.86 33.13 174.39 10.08c19.48,-78.14 40.97,-224.57 98.47,-280.15l29.94 -192.16c-141.1,66.36 -315.23,227.22 -314.66,429.1z"/>
   <path class="fil14" d="M7241.81 3119.09l102.4 -432.9c-34.03,-59.55 -21.5,-204.34 -36.17,-285.34 -29.29,-161.8 -155.5,-613.52 -293.37,-718.93 104.97,251.02 126.87,403 173.04,670.85 28.62,166.07 35.17,408.87 21.94,587.49 -18.04,243.51 -22.6,149.98 32.16,178.83z"/>
   <path class="fil14" d="M6516.21 5157.25c-98.75,-36.73 -216,-153.05 -251.99,-252.63 -34.72,17.94 -98.2,-36.53 -29.47,227.95 20.5,78.88 44.75,146.13 70.46,205.06 59.18,-24.38 14.27,-0.39 66.85,-32.25 250.47,-151.75 28.39,-16.03 198.55,-69.8l-54.4 -78.33z"/>
   <path class="fil14" d="M2133.69 5575.74c-52.64,97.32 -90.46,173.66 -234.34,181.34l22.88 86.46c-40.84,28.47 64.17,32.78 -63.64,21.48 89.13,46.09 208.37,-15.65 296.38,-64.34l100.13 -270.44c10.81,-72.15 43.9,-224.19 -11.19,-260.64l-9.53 172.64c-68.37,-27.71 -5.18,-45.32 -65.62,-10.54 13.22,156.75 -13.14,124.58 -35.07,144.04z"/>
   <path class="fil15" d="M5686.75 8708.09c148.17,134.13 124.53,536.14 1014.65,1113.75 47.74,30.98 28.21,19.41 49.82,41.6 105.6,10.12 204.51,105.88 307.85,36.74 -23.92,-50.71 44.56,-24.2 -135.25,-75.16 -606.53,-171.87 -1137.62,-917.94 -1346.75,-1505.1 15.91,151.76 103.05,284.6 109.68,388.17z"/>
   <path class="fil15" d="M5060.78 7282.89c18.61,126.73 54.32,280.04 95.35,397.16 47.82,136.48 107.6,252.57 151.81,373.43 55.09,71.06 98.35,126.33 158.37,174.75 -80.45,-162.12 -161.52,-341 -232.19,-522.77l-156.59 -544.33c-28.47,-79.87 -2.74,-16.06 -26.56,-51.3l9.81 173.06z"/>
   <path class="fil15" d="M1763.58 5843.43c63.27,64.81 84.56,120.71 223.67,107.15 106.22,-10.36 156.37,-53.22 184.57,-138.82l-16.85 -11.08c-88.01,48.69 -207.25,110.43 -296.38,64.34 -72.32,-19.78 -58.08,-8.76 -90.78,-78.64l-4.23 57.05z"/>
   <path class="fil15" d="M8003.49 5021.97l258.85 9.12c-35.37,-63.69 -4.8,-41.29 -73.41,-78.03 -152.38,-6.6 -275.86,8.01 -331.98,105.68l146.54 -36.77z"/>
   <path class="fil16" d="M8008.55 6811.47l16.46 33.73c1.81,5.34 4.25,11.05 5.92,17.07 32.95,119.02 -4.52,239.32 88.76,333.56 -15.68,-193.51 -84.72,-395.11 -106.42,-569.29 -35,-280.94 15.66,-286.76 196.62,-432.94 -0.73,-202.21 -6.85,-332.12 42.13,-515.93 19.44,-72.96 49.67,-154.45 72.6,-213.27 68.38,-175.42 90.27,-148.58 51.2,-170.26 -120.84,112.81 -253.05,440.95 -302.92,638.53 -73.59,291.56 -79.19,567.95 -64.35,878.8z"/>
   <path class="fil16" d="M7003.1 6398.58c-63.75,-38.1 -270.55,-0.61 -370.61,-16.44 -73.95,-11.71 -103.9,-28.17 -194.34,-23.87 -81.19,3.86 -119.92,13.61 -204.79,-2.48 -289.48,-54.89 -427.53,-253.14 -549.22,-323.16l-3.48 0.99c30.54,162.88 307.06,358.83 503.94,412.17 239.29,64.84 607.51,43.63 818.5,-47.21z"/>
   <path class="fil16" d="M2329.15 2772.84l1.42 26.4 -115.15 267.61 32.2 29.09 -58.85 5.01c-62.57,201.08 -118.41,252.47 -257.96,358.93l17.66 31.49c69.79,-44.33 165.15,-171.01 296.95,-170.29 -51.42,14.18 -40.38,12.59 -65.46,50.74 29.81,28.26 15.61,16.17 56.42,38.95 6.75,3.77 32.03,16.8 41.47,21.32 35.64,17.04 4.77,4.22 47.83,20.94 -23.42,-152.14 -31.06,-290.59 1.22,-442.66 22.11,-104.14 71.79,-278.41 139.97,-330.16 -36.03,-54.83 12.39,-15.49 -46.7,-21.27 -14.32,25.38 -12.23,16.92 -24.84,32.77 -3.38,4.26 -14.21,16.89 -17.89,21.43 -25.16,31.17 -16.41,26.85 -48.29,59.7z"/>
   <path class="fil16" d="M2457.26 7301.49l9.42 -9.1c-41.67,-84.1 -86.63,-104.25 -135.12,-187.15 -40.61,-69.43 -67.87,-136.49 -94.43,-232 -79.46,-36.3 -94.17,-168.65 -101.58,-247.85l-19.08 -110.52c-1.15,-3.41 -4.25,-9.49 -6.89,-13.96 -12.37,345.36 8.94,537.13 260.07,751.88 0.66,0.57 34.56,26.11 35.26,26.53 37.72,22.85 15.73,12.21 52.35,22.17z"/>
   <path class="fil16" d="M6824.3 6788.27l-71.38 -206.38 -461.31 -5.21c46.43,81.29 153.29,112.44 248.58,118.37 371.2,23.12 96.37,53.63 284.11,93.22z"/>
   <path class="fil16" d="M2711.91 2202.72c51.36,136.11 34.32,187.81 -43.33,283.89 107.62,-1.41 208.96,-48.41 262.71,-98.26l3.82 -128.3 -80.05 -50.73 -103.95 -53.19 -39.2 46.59z"/>
   <path class="fil16" d="M2356.3 1954.93c55.02,-4.9 24.56,-17.13 23.89,-104.94 -0.43,-56.66 -0.3,-78.63 11.83,-134.99 19.48,-90.46 37.18,-150.43 97.94,-202.18 9.99,-75.96 1.6,9.17 16.44,-52.28 11.75,-48.59 16.05,-9.1 -1.25,-38.28 -102.97,64.13 -221.85,264.53 -212.87,405.94 9.07,142.84 53.9,123.95 64.02,126.73z"/>
   <path class="fil16" d="M4339.76 4327.08l92.11 16.79 27.82 -26.84c-15.99,-22.62 -71.89,-52.87 -103.5,-79.32 -46.47,-38.89 -77.77,-69.61 -114.99,-111.81 -61.61,-69.86 -121.3,-176.66 -149.18,-285.24 -38.72,29.35 -23.3,3.09 -17.57,59.98l85.44 223.03c58.95,130.37 65.38,145.17 179.87,203.41z"/>
   <path class="fil16" d="M2243.91 5269.6c55.09,36.45 22,188.49 11.19,260.64 84.78,-102.26 49.96,-104.67 186.28,-180.81l23.82 -42.92c-80.68,-22.65 -128.41,-74.58 -177.59,-133.25l-50.8 -57.8 7.1 154.14z"/>
   <path class="fil16" d="M7167.56 7400.6c-4.94,77.99 9.29,125.56 17.51,208.39 4.54,45.8 3.75,59.16 19.66,99.35 20.31,51.31 15.81,7.71 33.19,78.14l122.03 -0.2c-58.84,-145.44 -135.21,-206.79 -180.9,-425.97l-11.49 40.29z"/>
   <path class="fil16" d="M5816.74 4362.4c64.8,8.97 43.85,-0.57 88.23,-62.93 35.74,-50.22 22.05,-40.14 64.05,-74.47 9.37,-125.46 9.03,-12.77 -38.19,-59.94 -111.88,43.79 -106.55,-21.29 -151.7,53.94 -55.35,92.23 -20.45,117.2 37.61,143.4z"/>
   <path class="fil16" d="M5965.78 4098.3l-16.49 -278.6c-118.38,52.09 -105.47,76.49 -115.8,251.51l132.29 27.09z"/>
   <path class="fil16" d="M5619.94 3970.09c36.37,50.41 91.15,64.69 163.82,82.35l34.81 -148.53 -179.41 12.97 -19.22 53.21z"/>
   <path class="fil16" d="M5957.22 3528.75l8.8 -94.48 -59.74 -37.79 -86.45 3.63 -12.53 11.95c40.73,79.88 76.25,85.41 111.15,171.81 28.14,-24.22 31.72,33.81 38.77,-55.12z"/>
   <path class="fil17" d="M4946.63 4452.12c266.13,194.63 505.87,213.64 702.65,-71.8 -78.81,-96.23 -101.46,-79.06 -167.89,-217.17 -64.99,90.39 -241.56,196.69 -374.36,226.01 -219.5,48.47 -111.38,9.36 -160.4,62.96z"/>
   <path class="fil17" d="M5654.55 3229.98c-58.41,-64.43 -64.52,-50.7 -87.94,-126.47l-42.01 -7.57c-61.55,3.27 -29.82,2.58 -62.11,31.93 82.21,32.46 86.17,66.49 192.06,102.11z"/>
   <path class="fil18" d="M8254.59 9955.81c249.85,12.9 786,-365.6 997.92,-558.04 180.94,-164.31 591.14,-738.88 596.62,-965.25 -4.07,-49.72 8.91,-9.85 -13.82,-38.21 -223.61,450.14 -318.86,652.95 -649.89,956.83 -120.76,110.86 -546.15,385.11 -717.74,474.34 -76.63,39.85 -257.07,111.07 -213.09,130.33z"/>
   <path class="fil18" d="M3530.81 2819.15c-20.86,10.56 -28.8,-8 -14.9,18.05 20.63,28.52 36.75,-36.55 37.06,91.55 121.93,-29.01 139.29,2.45 230.45,35.87l9.85 -118.38 -135.3 4.41c-31.16,-31.8 -14.3,-6.49 -34.54,-53.08 -47.25,7.66 -54.58,9.16 -92.62,21.58z"/>
   <path class="fil18" d="M8125.74 10084.95c86.3,62.69 191.69,41.81 290.68,1.84 84.91,-34.28 59.44,-28.1 67.87,-90.22l-358.55 88.38z"/>
   <path class="fil18" d="M2771.27 5400.27l47.6 56.05 33.15 -3.1c4.07,-5.52 15.4,-16.65 16.61,-25.39 1.03,-7.49 2.38,-11.81 5.62,-16.73 -49.36,-100.18 -35.28,-101.04 -128.49,-148.11l25.51 137.28z"/>
   <path class="fil18" d="M2745.13 3820.23c32.56,46.37 -33.08,5 45.88,49.04 33.27,18.55 48.17,14.82 82.01,18.14l86.23 -78.64 -6.17 -17.19 -207.95 28.65z"/>
   <path class="fil19" d="M6628.86 10612.47l73.53 7.24 15.55 -30.04c76.2,-77.76 230.12,-73.52 481.93,-236.42 73.89,-47.79 74.72,-40.07 118.19,-116.55l-21.68 -7.05c17.61,-95.26 17.07,-111.21 -31.02,-170.61l41.09 -8.42c-19.96,-18.55 0.03,-4.85 -38.72,-31.91 -5.14,-3.6 -21.33,-13.83 -26.77,-16.93 -60.65,-34.58 0.53,-10.59 -68.63,-27.51 -7.46,1.42 -97.06,22.24 -99.52,21.9 -51.78,-7.25 42.35,39.77 -32.5,-22.09l-25.74 -32.62c-54.87,0 -41.11,-13.68 -41.11,41.22 50.52,18.86 97.64,4.56 -11.07,174.23 -117.13,182.82 -308.35,409.79 -333.53,455.56z"/>
   <path class="fil19" d="M5134.1 6211.15l104.53 225.17c45.76,-23.46 21.13,3.31 28.55,-76.54 16.41,-176.66 -42.24,-500.69 224.32,-493.92l-11.34 -49.59c-171.93,45.39 -102.17,-53.38 -175.78,-81.83 -108.46,1.2 -140.95,70.57 -153.67,174.01 -14.17,115.2 2.52,168.01 1.37,232.79 -1.93,108.88 3.09,37.63 -17.98,69.91z"/>
   <path class="fil19" d="M5048.46 1894.92l50.12 -133.36 -129.93 -3.09c3.39,5.15 8.52,6.67 10.26,15.38l69.55 121.07z"/>
   <path class="fil20" d="M10681.34 7003.55c303.81,-426.3 114.95,-1390.28 -230.44,-1835 -34.48,-44.4 -44.12,-55.49 -71.35,-93.61 -37.05,-51.86 -36.47,-71.94 -88.11,-75.78 -40.19,17.29 0.87,17.46 78.7,188.13 33.95,74.46 62.37,157 87.56,242.51 107.36,364.37 233.27,450.17 290.57,1030.69 10.29,104.19 -3.97,207.88 -25.75,306.45 -22.74,102.94 -80.42,225.52 -41.18,236.61z"/>
   <path class="fil20" d="M8148.97 8275.08l-48.18 -310.66 -65.67 -19.21 -86.74 94.36 -3.03 -53.41 -43.76 1.35 -17.14 58.05c-100.78,-3.84 -317.79,-135.14 -514.49,-188.21 -25.81,-6.97 -77.56,-23.28 -100.34,-27.15l-54.59 2.25c-1.59,-3.88 -7.57,3.14 -11.09,5.2 112.88,119.03 143.29,53.51 142.84,291.77 48.23,28.27 34.21,9.36 69.26,67.37l93.88 -67.46c123.39,-114.15 285.89,-82.01 336.27,31.79 186.27,-11.66 203.88,22.19 302.78,113.96z"/>
   <path class="fil20" d="M3825.54 2731.52l4.45 25.81c123.34,-80.86 233.83,-307.16 280.76,-488.97 -103.18,-91.44 -183.4,30.69 -298.68,-237.76 -18.04,-42.03 -6.61,-27.34 -30.74,-51.33 -46.7,307.6 289.87,479.71 44.21,752.25z"/>
   <path class="fil20" d="M2611.19 2527.75l-134.9 -5.33c-18.88,59.06 -27.54,56.22 -54.26,113.77 115.24,-13.69 228.85,-44.44 367.95,-40.56 123.39,3.45 301.8,34.16 399.76,27.11l51.22 -6.25c2.29,-5.39 9.05,-4.7 13.95,-5.91 -60.07,-75.55 -84.77,-37.62 -171.86,-67.73 -48.65,-16.81 -45.49,-25.39 -77.15,-44.61 -42.34,-25.71 -15.55,-21.05 -73.05,-26.8 -95.76,11.3 -188.91,44.78 -321.66,56.31z"/>
   <path class="fil20" d="M5654.55 3229.98c50.56,68.69 223.57,87.51 326.57,89.97l8.22 -111.95 -422.73 -104.49c23.42,75.77 29.53,62.04 87.94,126.47z"/>
   <path class="fil20" d="M7604.5 6109.93c20.67,37.13 -5.88,18.54 40.3,36.99l173.3 4.96c72.57,-10.39 30.98,6.85 81.44,-30.48l30.43 -176.42c-71.12,24.96 -114.51,42.04 -177.69,79.95 -60.21,36.13 -94.63,37.31 -147.78,85z"/>
   <path class="fil20" d="M2497.21 5361.66c123.45,15.74 80.55,40.25 195,63.97l-46.6 -280.33c-63.57,65.64 -100.44,127.65 -148.4,216.36z"/>
   <path class="fil21" d="M1077.53 4104.27c-20.63,307.56 54.42,461.46 149.93,699.37 80.66,103.78 133.07,218.04 223.27,299.21 49.4,44.46 79.22,81.73 147.93,120.34 53.57,30.1 120.03,48.73 170.19,85.1 -22.17,-14.91 -6.79,-5.33 -21.68,-35.25 -62.43,-14.38 -275.53,-267.5 -320.86,-331.27 -33.09,-46.53 -58.04,-82.07 -91.64,-134.68 -113.9,-178.33 -205.48,-475.4 -173.47,-730.4 6.59,-61.15 -3.39,-64.77 31.44,-96.71 -0.57,-201.88 173.56,-362.74 314.66,-429.1l53.31 -63.53c-2.04,0.57 -59.4,20.77 -59.74,20.81 -125.91,12.6 -31.03,23.79 -72.89,-32.61 -92.54,-73.69 -76.27,-300.77 -42.5,-414.19 68.81,66.04 35.61,86.4 168.94,172.87 294.99,27.35 421.53,-239.32 476.23,-499.66 110.91,57.27 139.45,105.26 299.92,64.67l-1.42 -26.4c-45.64,-22.28 -73.68,-15.38 -138.91,-56.38 -46.1,-28.98 -68.4,-58.61 -132.39,-76.49 14.27,-111.4 49.8,-333.59 128.08,-419.74 34.29,-62.94 78.17,-103.37 132.32,-145.66 -232.58,51.67 -278.22,328.24 -341.74,589.12 -56.71,232.88 -147,528.78 -408.59,501.07 -49.65,-24.41 -188.93,-373.99 -262.87,-82.82 -14.43,56.82 -19.59,123.73 -16.96,187.34 6.16,149.55 37.19,193.25 117.27,267.95 -175.68,149.37 -309.38,251.6 -327.83,567.04z"/>
   <path class="fil21" d="M2318.25 2074.57c67.19,10.12 32.93,-6.32 82.27,36.44l195.26 121.94c2.64,2.55 7.51,8.08 11.24,12.14 41.28,21.22 17.82,-0.9 52.33,40.86 9.76,110.87 -22.15,123.77 -93.62,160.23l-32.52 56.19 77.98 25.38c132.75,-11.53 225.9,-45.01 321.66,-56.31l48.77 -41.13c7.23,-5.21 31.56,-20.25 49.07,-32.93 293.39,-212.58 118,-341.76 604.6,-588.17 4.32,-8.46 21.23,-36.35 28.42,-44.38 -208.62,8.37 -193.45,56.55 -320.08,117.21l-161.57 222.41c-20.8,52.41 -60.77,114.82 -99.56,159.19 -27.04,30.92 -41.37,46.5 -71.34,72.79 -47.64,41.79 -27.45,28.2 -79.87,51.92 -53.75,49.85 -155.09,96.85 -262.71,98.26 77.65,-96.08 94.69,-147.78 43.33,-283.89 -57.81,-31.13 -108,-74.13 -181.5,-114.39 -85.45,-46.82 -122.39,-46.36 -174.11,-133.4 -10.12,-2.78 -54.95,16.11 -64.02,-126.73 -8.98,-141.41 109.9,-341.81 212.87,-405.94 64.25,-98.52 177.77,-173.49 303.7,-231.38l-3.3 -28.11c-195.74,69.07 -372.45,223.98 -461.84,342.36 -57.55,76.21 -116.03,165.7 -125.85,285.59 -13.22,161.32 69.6,184.62 100.39,283.85z"/>
   <path class="fil21" d="M4287.97 9624.28c-125.9,-59.45 -430.2,-569.54 -523.55,-758.81 -146.81,-297.64 -258.53,-611.9 -307.58,-981.76l-18.11 -77.42c-27.09,406.99 123.92,818.22 269.58,1134.7 77.05,167.42 364.44,647.66 490.03,768.33 53.63,51.53 91.65,70.49 103.02,14.04l5.09 -41.49c-0.22,-2.67 -16.02,-49.51 -18.48,-57.59z"/>
   <path class="fil21" d="M4712.02 5892.54l-4.1 148.33 31.51 92.43 63.16 -264.64c17.22,-76.67 33.23,-125.04 62.1,-197.21 13.19,-33 20.83,-54.74 36.29,-86.74 8.75,-18.12 11.99,-25.78 21.72,-40.78 14.65,-22.55 20.04,-23.94 31.72,-36.03 33.95,-115.43 211.76,-291.55 300.23,-345.62 3.66,-3.91 29.59,-39.17 33.24,-43.08l-62.23 -2.94 -100.87 74.43c-195.06,123.99 -368.81,473.03 -412.77,701.85z"/>
   <path class="fil21" d="M6849.83 9492.52c54.15,-33.22 47.62,3.09 -1.42,-39.02l-188.51 -125.09c-252.43,-157.18 -436.04,-343.02 -613.5,-571.52l-24.73 -3.84c163.58,313.93 458.27,604.55 828.16,739.47z"/>
   <path class="fil21" d="M4274.33 7820.48c-20.56,121.03 -55.97,235.8 -36.5,369.11 0.99,-1.62 195,-508.06 197.51,-519.28 -6.32,-40.18 -4.42,-29.01 -16.97,-43.53 -131.09,83.51 -70.89,93.05 -144.04,193.7z"/>
   <path class="fil21" d="M3767.86 8635.39c118.39,-186.34 407.74,-290.84 425.94,-426.03 -152.4,9.59 -377.27,279.71 -425.94,426.03z"/>
   <path class="fil21" d="M2376.71 2638.9c-31.29,-86.4 -132.16,-253.44 -174.77,-344.24 -123.49,122.07 68.7,322.51 174.77,344.24z"/>
   <path class="fil22" d="M7650.17 5752.51l206.92 55.92c43.12,-152.05 219.63,-278.46 96.31,-432.57l-190.06 9.28c18.16,-130.63 52.9,-101.92 123.31,-194.15 43.56,-57.04 61.21,-101.46 116.84,-169.02l-146.54 36.77c56.12,-97.67 179.6,-112.28 331.98,-105.68 -32.96,-26.79 -5.27,-15.29 -61.17,-30.98 -40.7,-11.42 -1.77,-0.44 -41.62,-5.35 -68.13,-8.38 -16.08,17.91 -76.86,-6.07 -43.06,22.96 -29.97,-22.45 -45.46,22.14l23.84 -264.93 -20.85 -23.32c-2.6,-2.96 -7.16,-8.25 -9.99,-11.49l-56.25 -61.29c-144.03,5.97 -88.06,59.35 -226.65,87.05l-134.68 -137.88c-282.43,12.18 -397.84,-198.56 -423.31,-468.67 -49.78,-95.36 -45.36,-172.86 -24.22,-278.3 -3.71,5.03 -9.15,6.26 -10.8,15.32l-49.66 104.64c-45.59,149.68 53.38,420.24 137.93,555.6 37.57,60.14 40.4,61.48 112.42,78.61 148.58,35.35 102.15,73.24 254.27,118.56 191.9,57.17 240.91,275.49 169.95,486.73 -98.7,293.83 115.64,299.97 -198.02,482.99l68.24 57.98c63.85,76.32 -9.65,54.87 74.13,78.11z"/>
   <path class="fil22" d="M1161.2 4076.69c87.26,-0.39 144.71,15.36 213.99,28.98l3.7 -82.48 -174.39 -10.08 -11.86 -33.13c-34.83,31.94 -24.85,35.56 -31.44,96.71z"/>
   <path class="fil23" d="M3477.11 2281.29c101.2,95.18 117.11,172.61 81.31,371.64l-81.31 -371.64zm-544.26 190.15c57.5,5.75 30.71,1.09 73.05,26.8 31.66,19.22 28.5,27.8 77.15,44.61 87.09,30.11 111.79,-7.82 171.86,67.73 -4.9,1.21 -11.66,0.52 -13.95,5.91l-51.22 6.25c25.19,22.94 283.84,111.06 337.43,136.78l3.64 59.63c38.04,-12.42 45.37,-13.92 92.62,-21.58 73.56,-109.54 314.44,-118.45 159.57,-458.51l-86.18 -193.19 -42.57 30.76c-2.11,-99.4 35.47,-109.19 28.75,-204.73 -8.27,-117.35 -55.96,-72.16 -47.71,-162.69 -486.6,246.41 -311.21,375.59 -604.6,588.17 -17.51,12.68 -41.84,27.72 -49.07,32.93l-48.77 41.13z"/>
   <path class="fil23" d="M2255.1 5530.24l-100.13 270.44 16.85 11.08 13.35 13.24c44.81,-45.84 86.91,-151.79 127.77,-232.29 42.74,-84.24 100.44,-160.98 128.44,-243.28 -136.32,76.14 -101.5,78.55 -186.28,180.81z"/>
   <path class="fil24" d="M4946.63 4452.12c49.02,-53.6 -59.1,-14.49 160.4,-62.96 132.8,-29.32 309.37,-135.62 374.36,-226.01 66.43,138.11 89.08,120.94 167.89,217.17 -196.78,285.44 -436.52,266.43 -702.65,71.8zm786.07 -240.62c-34.11,68.8 -16.29,27.18 -36.84,47.37 -77.67,-44.15 -92.51,-86.68 -163.88,-139.15 22.97,-58.29 34.57,-57.62 56.49,-115.44l25.56 23.71c3.17,3.27 7.84,8.29 11.2,11.87l124.71 118.96c-5.12,16.13 -7.14,32.33 -17.24,52.68zm-93.54 -294.62l179.41 -12.97 -34.81 148.53c-72.67,-17.66 -127.45,-31.94 -163.82,-82.35l19.22 -53.21zm-269.21 4.85c-53.58,-72.06 -68.87,-99.58 -14.6,-209.83 34.14,-69.36 64.44,-104.86 175.19,-88.04 75.26,110.92 34.09,331.38 -160.59,297.87zm-932.57 -96.22c126.42,-92 119.16,-204.52 356.74,-166.06 -6.46,139.93 -65.41,288.99 147.23,320.7 179.78,26.8 208.58,-117.39 277.54,-190.01 119.16,137.38 -115.94,427.24 193.51,296.5 -27.92,64.26 -14.81,53.88 -158.51,141.78 -286.6,175.32 -535.13,65.28 -727.36,39.06 -4.49,-139.89 -97.18,-214.41 -89.15,-441.97zm-176.76 -892.23l341.69 66.22c11.62,3.73 80.32,21.55 82.86,22.7 65.99,29.74 34.73,-11.33 42.51,61.54 -75.76,-46.81 -10.93,-33.79 -106.72,-39.68 -66.46,29.35 -113.83,143.69 -151.87,214.75 -160.6,300.04 -161.41,538.14 -114.79,856.57 -117.39,-78.18 -216.35,-279.99 -235.62,-479 -26.98,-278.45 39.74,-361.32 90.92,-582.66l-57.08 73.09c-9.13,18.02 -28.86,62.63 -37.82,85.85 -22.52,58.31 -39.82,131.03 -52.58,196.65 -29.75,152.88 -7,285.89 29.9,431.35 27.88,108.58 87.57,215.38 149.18,285.24 37.22,42.2 68.52,72.92 114.99,111.81 31.61,26.45 87.51,56.7 103.5,79.32l103.02 44.29 236.37 54.01 61.68 -1 -10.76 47.11 24.93 220.36c173.62,236.37 26.91,119.88 289.2,273.69 27.13,15.91 23.57,15.54 39.49,30.16l39.04 -1.92c113.98,2.45 85.66,3.6 179.42,-35.03 -119.96,-39.67 -306.26,-63.4 -358.12,-168.57 -97.95,-41.9 -120.91,-137.57 -131.67,-240.49l192.95 101.66c264.86,50.12 259.04,5.17 445.32,-69.56 36.08,-56.29 10.75,-31.62 67.82,-66.66 18.16,-51.68 30.22,-63.97 78.25,-117.48l91.86 8.05 40.16 4.53 -31.91 -37.78c-58.06,-26.2 -92.96,-51.17 -37.61,-143.4 45.15,-75.23 39.82,-10.15 151.7,-53.94 54.26,-53.78 0.01,-19.68 53.35,-21.67 14.6,-40.27 6.43,-25.38 9.96,-45.67l-28.36 0.58 -132.29 -27.09c10.33,-175.02 -2.58,-199.42 115.8,-251.51l46.09 -138.5c-13.29,-24.44 8.5,-16.98 -31.96,-1.08l-97.67 57.52 -17.26 -197.82c-13.18,158.5 20.38,294.18 -197.01,324.89 24.14,-124.23 -22.5,-171.17 -73.46,-250.9 -295.21,-461.85 -963.53,-881.23 -1423.66,-703.52l106.26 22.99z"/>
   <path class="fil24" d="M2790.6 3234.69c60.86,83.54 43.41,218.93 208,141.89 140.92,-65.96 97.9,-91.34 180.38,-202.61 75.24,89.46 -20.65,21.17 121.11,176.79 -125.64,181.93 -332.77,406.35 -666.88,371.69 -60.05,-78.13 -57.64,-281.01 -57.63,-370.55 56.94,-56.39 134.7,-104.16 215.02,-117.21zm649.17 -407.43c30.98,113.91 5.95,394.83 -145.49,350.92 -139.27,-40.39 -41.14,-280.67 24.34,-366.32l121.15 15.4zm-960.04 747.97c-216.07,-220.39 -56.93,-675.8 -4.22,-930.71l334.55 3.25c-61.58,75.73 -93.91,87.59 -152.2,180.22 -175.65,279.13 -162.47,441.17 -178.13,747.24zm-57.7 -939.04l-1.86 22.75c59.09,5.78 10.67,-33.56 46.7,21.27 -68.18,51.75 -117.86,226.02 -139.97,330.16 -32.28,152.07 -24.64,290.52 -1.22,442.66 94.16,188.75 55.42,201.2 263.06,349.84 83.15,59.53 18.85,20.18 52.85,21.42 5.25,0.19 74.68,-5.95 103.54,-4.06l207.95 -28.65c3.88,-4.17 10.06,-15.92 12.21,-11.95 0.14,0.24 261.86,-153.46 387.61,-339.34 104.42,-154.35 168.98,-381.3 163.01,-603.09 -13.9,-26.05 -5.96,-7.49 14.9,-18.05l-3.64 -59.63c-53.59,-25.72 -312.24,-113.84 -337.43,-136.78 -97.96,7.05 -276.37,-23.66 -399.76,-27.11 -139.1,-3.88 -252.71,26.87 -367.95,40.56z"/>
   <path class="fil25" d="M8484.29 9996.57c-8.43,62.12 17.04,55.94 -67.87,90.22 -98.99,39.97 -204.38,60.85 -290.68,-1.84 -203.43,32.63 -414.55,42.08 -616.66,5.18l-8.78 26.08c-1.15,3.75 -2.81,10.37 -4.17,14.64l-49.43 98.42c-31.37,35.9 -61.79,55.99 -99.14,86.3 -124.26,100.82 -190.63,117.88 -234.76,164.7 353.59,83.82 782.64,454.36 722.16,593.65l-84.19 64.71c36.96,25.82 30.72,24.86 63.97,54.65l-84.34 3.23c50.93,42.89 81.35,15.34 125.11,-4.59 79.55,-36.25 8.59,44.88 160.51,17.21 63.69,-49.99 154.86,-40.63 276.21,-54.47 74.16,-8.46 234.61,-12.38 283.18,-47.67 -119.77,-56.71 97.55,-59.75 165.53,-163.23 16.98,142.61 -1.19,94.45 66.13,145.2 27,-23.75 2.02,-6.44 9.24,-52.09 -33.17,-26.75 -45.16,-18.59 -38.27,-147.78l46.96 -456.48c22.84,-192.56 37.81,-400.65 -2.03,-592.06l-338.68 156.02z"/>
   <path class="fil25" d="M10132.93 7789.04l-8.57 233.91c44.09,-49.83 52.17,-76.92 71.19,-153.17 17.8,-71.37 16.68,-110.17 13.76,-182.7l-83.15 8.05 6.77 93.91z"/>
   <path class="fil26" d="M5225.66 5116.26l62.23 2.94c26.13,28.53 33.4,-56.17 19.1,31.39l-52.34 11.69c-88.47,54.07 -266.28,230.19 -300.23,345.62 -4.58,163.62 -22.86,298.46 -151.83,360.76l-63.16 264.64 -31.51 -92.43c-49.24,-55.05 -34.23,-95.95 -45.13,-124.35 -64.25,30.2 -246.8,146.96 -327.17,-38.41 -199.01,45.83 -434.07,17.36 -631.06,-22.01 -329.12,-65.78 -358.13,-124.24 -520.91,-166.94 -33.67,231.21 183.03,172.26 659.3,232.51 825.7,104.44 1464.49,369.01 1020.91,1273.59 -33.32,67.95 -16.07,16.13 -23.09,72.28 20,9.13 162.15,0.28 220.01,15.35l-9.81 -173.06c23.82,35.24 -1.91,-28.57 26.56,51.3l156.59 544.33c70.67,181.77 151.74,360.65 232.19,522.77 -60.02,-48.42 -103.28,-103.69 -158.37,-174.75 -35.11,26.39 -32.05,3.76 -18.35,137.55 64.48,51.57 89.66,65.87 113.74,169.85 12.22,52.74 16.31,87.14 10.4,140.76 -11.55,104.84 -39.38,38.65 -6.05,93.8l175.84 -7.4c-146.82,9.37 -366.24,167.06 -486.72,260.16 -168.08,129.89 -554.33,540.76 -567.27,742.29l7.39 2.38 88.1 -105.02c21.05,-70.27 8.8,-49.25 55.87,-108.98 25.03,-31.77 52.06,-59.68 78.36,-85.23 57.66,-55.99 88.19,-95.67 195.79,-126.63l135.05 -140.03c89.09,-86.39 11.21,-36.3 161.71,-147.47 299.38,-221.16 357.33,-90.15 434.95,-171.42 -6.63,-103.57 -93.77,-236.41 -109.68,-388.17 209.13,587.16 740.22,1333.23 1346.75,1505.1 179.81,50.96 111.33,24.45 135.25,75.16 -103.34,69.14 -202.25,-26.62 -307.85,-36.74 -35.92,44.4 17.35,82.48 -37.02,190.23 -88.84,176.06 -81.18,244.32 -224.51,457.57 -65.25,97.07 -47.99,48.05 -14.66,78.61 79.12,-32.73 207.22,-188.59 271.44,-278.21 40.98,-57.18 76.28,-115.82 112.77,-175.58 50.73,-83.1 60.42,-90.57 114.22,-153.38 0,-54.9 -13.76,-41.22 41.11,-41.22l25.74 32.62c74.85,61.86 -19.28,14.84 32.5,22.09 2.46,0.34 92.06,-20.48 99.52,-21.9 -13.5,-17.87 -6.83,-25.15 -13.53,-23.68l201.87 60.83 3.06 -66.2c-104.89,-22.77 -316.91,-187.44 -20.22,-351.64 5.65,-3.12 22.81,-12.04 28.19,-15.64 29.04,-19.4 21.81,-15.32 40.8,-34.11 -157.01,-3.53 -155.08,-35.67 -253.7,-112.27 -80.16,34.84 -46.29,48.55 -164.84,59.99 -0.43,0.69 2.33,-0.35 2.35,0.64 0.08,3.5 3.51,8.51 3.48,9.92 -0.03,1.84 -0.32,9.21 -0.46,11.34l-5.37 32.67c-80.05,-15.9 -81.88,-5.56 -144.13,-53.6 -369.89,-134.92 -664.58,-425.54 -828.16,-739.47l-23.13 -46.43c-112.02,-120.24 -141.07,-179.3 -226.75,-323.85 -72.51,-122.32 -122.18,-230.68 -175.92,-359.75 -107.22,-257.5 -204.93,-560.24 -226.79,-864.97 -48.89,-66.48 -20.3,-83 -41.58,-143.48 -22.68,-64.48 10.77,24.05 -31.08,-54.29 -28.2,-52.8 -10.17,-0.15 -22.76,-58.38 -24.69,-283.66 -239.67,-585.65 -256.79,-831.56 -15.91,-228.46 153.34,-548.12 288.44,-680.02 29.68,-28.98 29.54,-22.02 58,-55.25 -121.66,220.71 -355.77,551.03 -229.21,876.08 21.07,-32.28 16.05,38.97 17.98,-69.91 1.15,-64.78 -15.54,-117.59 -1.37,-232.79 12.72,-103.44 45.21,-172.81 153.67,-174.01 73.61,28.45 3.85,127.22 175.78,81.83 -66.59,-297.71 -82.62,-488.4 -23.4,-795.94 -48.19,-6.94 -180.02,5.24 -194.04,-24.32 -4.49,-9.47 -14.65,-6.6 -20.06,-12.28l-39.04 1.92 -32.62 2.5c63.96,59.63 19.14,56.2 54.66,128.11z"/>
   <path class="fil26" d="M4881.56 6601c-53.64,-633.98 -1242.84,-512.81 -1647.62,-665.23 -84.11,-31.67 -139.83,-130.77 -191.61,-199.47 -70.47,-93.48 -59.4,-157.66 -163.14,-223.35 -77.66,-4.13 -25.48,-4.93 -46.29,20.83 146.59,142.29 22.45,370.64 261.57,500.49 162.4,88.18 1409.34,138.67 1732.38,512.12 2.89,3.34 6.29,8.39 9.25,11.69l45.46 42.92z"/>
   <path class="fil26" d="M4209.6 3053.72c-51.18,221.34 -117.9,304.21 -90.92,582.66 19.27,199.01 118.23,400.82 235.62,479 -46.62,-318.43 -45.81,-556.53 114.79,-856.57 38.04,-71.06 85.41,-185.4 151.87,-214.75l-18.65 -44.56 -341.69 -66.22c4.44,28.51 11.66,42.52 1.41,68.64 -24.46,62.26 -1.9,23.47 -52.43,51.8z"/>
   <path class="fil26" d="M2479.73 3575.23c15.66,-306.07 2.48,-468.11 178.13,-747.24 58.29,-92.63 90.62,-104.49 152.2,-180.22l-334.55 -3.25c-52.71,254.91 -211.85,710.32 4.22,930.71z"/>
   <path class="fil27" d="M3973.49 8566.53l141.48 15.2 -60.51 149.09c-10.17,-6.85 -15.37,-17.5 -16.69,-14.3 -1.29,3.14 -7.73,-8.61 -9.48,-11.07 -55.93,-78.34 -35.19,-68.87 -54.8,-138.92zm-205.63 68.86c48.67,-146.32 273.54,-416.44 425.94,-426.03 -18.2,135.19 -307.55,239.69 -425.94,426.03zm926.37 -1191.6c68.24,75.41 -208.42,210.27 -258.89,226.52 -2.51,11.22 -196.52,517.66 -197.51,519.28 -19.47,-133.31 15.94,-248.08 36.5,-369.11 -146.5,48.86 -270.44,63.85 -430.33,54.09 -181.21,-11.06 -214.28,-82.2 -387.16,9.14 49.05,369.86 160.77,684.12 307.58,981.76 93.35,189.27 397.65,699.36 523.55,758.81l100.01 -40.11c54.85,-41.78 111.4,-170.41 137.32,-239.88 -42.55,-0.22 33.32,-136.79 49.83,-171.56 37.72,-79.46 78.84,-110.27 174.38,-115.78l93.88 -90.85c-87.04,-61.47 -174.79,-85.47 -312.75,-228.67 -99.03,-102.79 -222.61,-202.9 -255.69,-320.14 40.7,27.74 105.67,84.98 143.59,123.91l474.79 389.85c115.91,-124.47 272.63,-215.62 430.6,-287.34l83.75 -48.27c-33.33,-55.15 -5.5,11.04 6.05,-93.8 5.91,-53.62 1.82,-88.02 -10.4,-140.76 -24.08,-103.98 -49.26,-118.28 -113.74,-169.85 -13.7,-133.79 -16.76,-111.16 18.35,-137.55 -44.21,-120.86 -103.99,-236.95 -151.81,-373.43 -41.03,-117.12 -76.74,-270.43 -95.35,-397.16 -57.86,-15.07 -200.01,-6.22 -220.01,-15.35 -66.83,38.25 -114.53,119.63 -146.54,176.25z"/>
   <path class="fil27" d="M1427.98 3475.55c41.86,56.4 -53.02,45.21 72.89,32.61 0.34,-0.04 57.7,-20.24 59.74,-20.81l1.85 -165.65c-119.72,77.51 -92.15,118.43 -134.48,153.85z"/>
   <path class="fil28" d="M7857.09 5808.43l-206.92 -55.92c-16.24,38.64 -11.6,14.82 -11.43,66.16l108.55 54.86 95.57 21.6 -128.92 59.09c-3.02,2.88 -7.48,7 -9.24,8.44 -1.79,1.48 -7.27,6.61 -9.57,8.43 -2.4,1.9 -7.73,6.14 -10.52,8.26 -35.73,27.13 16.48,-12.66 -23.63,16.33 -11.56,8.36 -38.52,29.23 -49.06,36.28 -127.4,85.22 -27.35,-10.18 -74.82,17.5 -79.38,92.07 -369.37,306.28 -534,349.12 -210.99,90.84 -579.21,112.05 -818.5,47.21 -196.88,-53.34 -473.4,-249.29 -503.94,-412.17 -26.04,-21.17 -16.36,-3.76 -45.41,-47.09 -11.91,-17.76 -19.19,-39.16 -26.06,-56.62 -142.11,-360.97 -136.61,-627.7 -104.19,-1002.41l-7.93 -44.44 -40.31 137.27c-59.22,307.54 -43.19,498.23 23.4,795.94l11.34 49.59c41.54,74.2 63.58,155.67 101.88,224.7 42.24,76.14 98.82,148.51 138.36,204.15 -88.73,24.9 -128.31,43.72 -200.29,84.66 -30.86,17.55 -66.54,36.51 -92.24,51.35 -76.29,44.06 -58.23,36.47 -84.41,78.44 594.83,-216.22 320.96,-177.73 660.43,-16.88 98.55,46.69 197.85,60.31 276.38,84.4l461.31 5.21 71.38 206.38c24.58,24.6 6.28,-6.19 39.77,52.43 4.35,7.62 26.55,56.37 32.75,70.05 21.62,47.7 43.8,98.45 57.76,149.01 60.8,179.75 126.76,344.38 178.69,539.72 38.25,143.86 -7.63,165.18 -90.07,228.76 -69.79,53.82 -131.9,112.93 -210.38,158.51 -237.44,220.12 -479.14,338.09 -786.68,654.75 -104.14,-91.91 -397.19,-712.81 -436.75,-817.45 -88.66,-234.52 -239.56,-762.99 -207.07,-1041l-30.52 -0.67 -2.72 375.67c21.86,304.73 119.57,607.47 226.79,864.97 53.74,129.07 103.41,237.43 175.92,359.75 85.68,144.55 114.73,203.61 226.75,323.85 53.78,-19.19 49.72,-16.2 75.12,-40.77l847.33 -609.36c45.63,-33.73 92.25,-70.73 141.38,-106.23 66.81,-48.27 69.88,-74.71 141.57,-112.61 3.52,-2.06 9.5,-9.08 11.09,-5.2l54.59 -2.25c22.78,3.87 74.53,20.18 100.34,27.15 196.7,53.07 413.71,184.37 514.49,188.21l17.14 -58.05c-117.55,-115.26 -363.5,-186.14 -541.64,-201.23l-122.03 0.2c-17.38,-70.43 -12.88,-26.83 -33.19,-78.14 -15.91,-40.19 -15.12,-53.55 -19.66,-99.35 -8.22,-82.83 -22.45,-130.4 -17.51,-208.39 -56.09,-61.18 -132.87,-369.55 -150.72,-463.75l-142.75 -372.59c51.04,-29.76 111.69,-38.92 165.28,-57.3 72.79,-24.97 97.95,-50.35 165.98,-55.46 41.33,-57.58 54.24,-47.86 108.48,-82.5 48.88,-31.22 61.62,-41.33 102.58,-82.74 83.87,-84.77 72.25,-123.02 188.09,-176.33 53.15,-47.69 87.57,-48.87 147.78,-85 63.18,-37.91 106.57,-54.99 177.69,-79.95l-30.43 176.42c-105.99,872.32 59.19,993.79 163.19,1678.38 -40.66,48.52 -44.61,32.52 -76.25,86.16 -19.76,33.52 -25.81,65.05 -41.13,100.22l3.03 53.41 86.74 -94.36c16.44,-37.5 -2.39,-8.82 16.56,-34.34 18.74,-25.25 19.23,-24.12 36.31,-40.57l12.8 94.12 48.18 310.66c0.46,118.03 9.78,330.95 -76.19,422.8l-37.36 -266.58c-45.42,199.43 80.26,196.61 32.21,372.94 -80.36,294.96 -335.6,583.99 -574.86,752.23l-202.23 112.62c-3.32,2.37 -9.09,7.28 -13.41,11.18 341.75,-45.82 603.77,-352.59 743.23,-590.85 75.33,-170.78 155.38,-269.61 201.44,-498.25 39.04,-193.86 33.98,-415.11 -3.35,-614.77 -74.54,-398.62 -192.49,-761.39 -209.9,-1164.93 -14.84,-310.85 -9.24,-587.24 64.35,-878.8 49.87,-197.58 182.08,-525.72 302.92,-638.53 82.11,-217.33 793.58,-890.66 1475.22,-617.72 86.42,34.61 169.95,80.2 239.69,131.43 98.12,72.07 132.48,84.45 200.71,191.31 51.64,3.84 51.06,23.92 88.11,75.78 27.23,38.12 36.87,49.21 71.35,93.61 345.39,444.72 534.25,1408.7 230.44,1835 -69.42,174.04 -308.72,505.49 -540.92,542.81 -308.76,49.62 -628.87,-132.68 -796.83,-262.41 -432.99,-334.44 -345.09,-1001.95 10.84,-1428.71 44.36,-53.18 21.89,-6.04 54.2,-78.44 -292.12,182.37 -636.62,657.11 -442.48,1205.37 148.2,418.53 661.45,740.36 1023.29,707.96l136.72 5 83.15 -8.05c258.97,-95.96 418.59,-283.49 553.48,-506.77 449.67,-744.34 140.36,-1831.47 -387.42,-2327.2 -1069.45,-1004.51 -2266.85,196.23 -2420.36,1024.49l-97.92 -69.17z"/>
   <path class="fil28" d="M1948.47 3491.37c-31.72,64.48 -31.74,50.05 -80.7,112.86 -9.46,12.14 -21.49,31.69 -34.19,47.77 -14.79,18.73 -18.3,22.53 -30.01,29.47 -121.92,396.73 -71.67,364.63 15.09,738.88 58.09,94.15 89.3,229.82 155.16,324.3 66.54,95.44 160.95,111.71 189.83,276.58 61.48,37.64 48.77,21.28 73.16,94.23l50.8 57.8c49.18,58.67 96.91,110.6 177.59,133.25l-23.82 42.92c-28,82.3 -85.7,159.04 -128.44,243.28 -40.86,80.5 -82.96,186.45 -127.77,232.29 0.54,117.06 -255.41,643.79 -152.65,1085.12 139.69,599.97 1138.76,891.94 1726.38,864.15 266.22,-12.59 534.72,-79.17 751.73,-211.37 75.17,-45.79 123.88,-94.37 183.6,-119.11 32.01,-56.62 79.71,-138 146.54,-176.25 7.02,-56.15 -10.23,-4.33 23.09,-72.28 443.58,-904.58 -195.21,-1169.15 -1020.91,-1273.59 -476.27,-60.25 -692.97,-1.3 -659.3,-232.51 162.78,42.7 191.79,101.16 520.91,166.94 196.99,39.37 432.05,67.84 631.06,22.01l62.82 -26.62c-528.83,-114 -837.17,11.76 -1296.79,-277.69 20.19,61.84 31.99,52.65 38.75,131.07 -127.78,-100.87 -75.95,-230.07 -288.38,-251.65l-33.15 3.1 46.1 47.87c2.97,-4.83 9.43,5.92 14.22,8.76 103.74,65.69 92.67,129.87 163.14,223.35 51.78,68.7 107.5,167.8 191.61,199.47 404.78,152.42 1593.98,31.25 1647.62,665.23 49.39,267.57 -98.33,545.93 -219.63,700.49 -116.05,147.87 -358.51,276.99 -619.01,331.43 -276.17,57.72 -579.11,45.21 -846.9,-11.01 -144.85,-30.41 -537.89,-160.74 -653.31,-257.14l-21.93 -25.78c-37.03,-5.95 0.4,8.1 -40.6,-13.83 -2.65,-1.42 -9.74,-4.34 -11.7,-10.87 -2.1,-6.97 -7.39,-8.62 -11.22,-12.8 -36.62,-9.96 -14.63,0.68 -52.35,-22.17 -0.7,-0.42 -34.6,-25.96 -35.26,-26.53 -251.13,-214.75 -272.44,-406.52 -260.07,-751.88 29.19,-366.31 210.81,-921.24 387.63,-1139.25 47.96,-88.71 84.83,-150.72 148.4,-216.36l46.6 280.33c44.01,74.46 -15.33,45.29 82.08,74.02l-3.02 -99.38 -25.51 -137.28c-45.79,-163.96 3.07,-148.23 -78.79,-210.91 -83.17,19.51 -48.99,0.05 -88.29,65.32 -23.33,38.75 -27.48,54.24 -52.78,90.55l-36.35 89.54c-35.79,-30.31 -18.38,32.86 -50.16,-69.77 -148.21,-115.69 -342.99,-394.87 -425.28,-660.25l-19.54 76.77c-103.73,-316.86 -266.35,-470.32 -156.37,-870.1 44.22,-70.04 30.28,-87.17 90.48,-130.83 38.61,-98.69 148.07,-236.73 251.28,-271.49 25.08,-38.15 14.04,-36.56 65.46,-50.74 -131.8,-0.72 -227.16,125.96 -296.95,170.29z"/>
   <path class="fil28" d="M4110.75 2268.36c-46.93,181.81 -157.42,408.11 -280.76,488.97 -37.15,20.61 57.9,30.3 -48.29,13.04l43.84 -38.85c245.66,-272.54 -90.91,-444.65 -44.21,-752.25 23.3,-100.48 63.94,-168.69 140.65,-234.99l-23.32 -35.36c-73.26,56.03 -101.06,71.91 -151.38,169.15 -57.81,111.68 -28.77,164.23 -50.46,267.8l86.18 193.19c154.87,340.06 -86.01,348.97 -159.57,458.51 20.24,46.59 3.38,21.28 34.54,53.08l135.3 -4.41c308.63,-118.47 265.26,-390.03 456.19,-671.98 142.77,-210.84 369.91,-366.12 719.19,-415.79l129.93 3.09 -50.12 133.36c-177.97,547.19 7.3,929.93 378.62,1272.81 200.61,185.25 263.45,152.43 379.49,222.63 3.2,1.94 9.02,6.27 13.26,9.75l86.45 -3.63c287.87,11.97 402.26,-76.08 541.69,-219.89 67.29,-69.4 257.42,-344.03 243.75,-469.92 -90.42,-32.43 -110.15,50.46 -253.38,58.2 -114.94,6.21 -214.48,-31.37 -278.2,-83.28 -156,-127.07 -150.45,-271.65 -134.66,-496.92 -216.85,129.68 -79.8,728.94 533.46,645.26 -69.38,255.06 -305.34,462.9 -577.82,490.02 -103,-2.46 -276.01,-21.28 -326.57,-89.97 -105.89,-35.62 -109.85,-69.65 -192.06,-102.11 32.29,-29.35 0.56,-28.66 62.11,-31.93 -93.01,-37.02 -81.09,-74.7 -156.78,-157.64 -161.81,-177.33 -282.75,-310.54 -284.46,-656.76 -1.12,-225.97 31.48,-377.8 139.27,-534.29 16.82,-24.41 26.6,-149.79 203.48,-326.86 -130.01,28.98 -201.96,154.53 -270.82,260.79 -272.14,39.46 -417.63,16.03 -641.01,160.61 -254.66,164.81 -242.21,187.82 -373.95,388.45 -28.76,43.8 -11.66,18.13 -29.58,38.12z"/>
   <path class="fil28" d="M9849.13 8432.52c-5.48,226.37 -415.68,800.94 -596.62,965.25 -211.92,192.44 -748.07,570.94 -997.92,558.04 -52.46,40.48 -103.75,43.48 -179.65,56.31 -115.5,19.53 -583.48,76.49 -616.87,2.43l-97.4 -3.13 -201.87 -60.83c6.7,-1.47 0.03,5.81 13.53,23.68 69.16,16.92 7.98,-7.07 68.63,27.51 5.44,3.1 21.63,13.33 26.77,16.93 38.75,27.06 18.76,13.36 38.72,31.91l55.05 9.54 98.23 18.99 -66.11 98.27c-8.42,7.71 -39.65,36.91 -41.62,38.47 -23.28,18.43 -15.16,10.71 -33.94,20.81 -43.47,76.48 -44.3,68.76 -118.19,116.55 -251.81,162.9 -405.73,158.66 -481.93,236.42 124.73,-32.86 351,-128.97 448.19,-57.17 181.82,69.13 194.92,95.16 227.57,132.17 104.49,30.5 308.95,256.41 353.15,368.07 -65.13,46.75 -45.08,1.75 -76.74,82.37 22.19,71.7 6,47.82 60.29,81.4l84.34 -3.23c-33.25,-29.79 -27.01,-28.83 -63.97,-54.65l84.19 -64.71c60.48,-139.29 -368.57,-509.83 -722.16,-593.65 44.13,-46.82 110.5,-63.88 234.76,-164.7 37.35,-30.31 67.77,-50.4 99.14,-86.3l49.43 -98.42c1.36,-4.27 3.02,-10.89 4.17,-14.64l8.78 -26.08c202.11,36.9 413.23,27.45 616.66,-5.18l358.55 -88.38 338.68 -156.02c39.84,191.41 24.87,399.5 2.03,592.06l-46.96 456.48c-6.89,129.19 5.1,121.03 38.27,147.78 -41.32,-319.99 211.21,-884.24 76.5,-1240.77 318.86,-186.97 579.16,-444.96 782.66,-737.14 298.81,-429.02 299.19,-659.24 448.89,-1036.01l8.57 -233.91 -52.78 -15.34c-45.84,120.58 -72.7,187.79 -111.58,341.46 -24.92,98.54 -52.36,256.49 -119.44,317.36z"/>
   <path class="fil28" d="M7344.21 2686.19l-102.4 432.9c-61.24,319.06 -161.5,572.28 -125.88,933.18 25.47,270.11 140.88,480.85 423.31,468.67 198.23,-35.26 312.05,-189.03 319.31,-406.78l19.34 -40.94 15.8 61.07c78,142.24 108.93,346.99 93.97,533.58l-23.84 264.93c15.49,-44.59 2.4,0.82 45.46,-22.14 13.6,-42.22 -4.85,4.16 16.59,-34.45 152.8,-275.2 44.11,-642.97 -87.93,-902.35 -105.37,-206.98 -76.19,-218.67 -181.6,-208.73 -18.36,46.84 82.53,428.7 -97.81,601.14 -97.1,92.85 -356.44,113.33 -442.1,-205.45 -101.33,-377.12 95.72,-962.43 172.35,-1318.66 104.09,-483.83 59.86,-873.06 -132.67,-1276.09 -141.98,-297.21 -442.02,-670.02 -849.21,-686.61l78.48 36.7c336.71,113.47 511.13,284.42 689.48,627.8 181.86,350.14 230.2,711.58 169.35,1142.23z"/>
   <path class="fil28" d="M4749.51 9056.95c-28.6,53.29 -78.22,98.46 -116.72,151.87l-84.75 119.62c-36.67,43.31 4.49,4.61 -22.74,15.85 -25.92,69.47 -82.47,198.1 -137.32,239.88 -5.73,78.31 -82.41,258.77 -110.54,359.62 -35.09,125.82 -60.24,259.3 -76.63,392.88 -38.9,317.14 -20.92,605.11 39.37,908.15l22.59 125.36 -132.76 74.94c-41.92,75.45 -112.55,20.69 -94.47,155.46 99.19,32.65 109.29,-16.87 170.13,-59.16 323.94,-270.22 43.07,-196.53 78.3,-961.7 12.51,-271.69 54.49,-524.62 138.84,-777.16 28.1,-84.12 49.92,-160.14 106.72,-212.07 12.94,-201.53 399.19,-612.4 567.27,-742.29 120.48,-93.1 339.9,-250.79 486.72,-260.16l-175.84 7.4 -83.75 48.27c-157.97,71.72 -314.69,162.87 -430.6,287.34l-474.79 -389.85c-37.92,-38.93 -102.89,-96.17 -143.59,-123.91 33.08,117.24 156.66,217.35 255.69,320.14 137.96,143.2 225.71,167.2 312.75,228.67l-93.88 90.85z"/>
   <path class="fil28" d="M2913.07 1040.67l44.22 0.99 100.8 -349.14c84.15,68.61 112.53,146.32 252.42,184.22 413.56,75.6 653.45,-230.53 929.11,-347.3 383.55,-204.68 910.43,-142.82 1320.28,13.85 149.18,57.03 239.09,114.96 361.2,169.83 -192.09,-275.32 -1010.63,-502.64 -1512.89,-357.72 -378.01,109.08 -744.44,486.32 -1061.22,426.68 -185.09,-34.85 -150.95,-171.69 -267.92,-235.89 -122.6,47.16 -207.78,355.05 -166,494.48z"/>
   <path class="fil28" d="M2428.83 4612.18c4.59,3.11 10.45,7.65 13.35,9.94l83.01 65.76c26.86,16.97 74.44,38.71 113.85,50.34 103.72,30.61 196.05,23.9 302.19,14.01 246.05,-31.33 743.27,164.88 972.52,236.44 261.23,81.53 763.98,190.25 1036.32,113.91l-4.76 -39.18c-157.7,-32.98 -342.88,-26.33 -505.97,-44.24 -489.24,-53.72 -810.88,-248.64 -1326.18,-303.07l-19.25 -51.05c-278.62,-17.69 -449.67,114.15 -615.1,-136.71l-102 -141.02c-117.83,-68.67 -268.22,-191.33 -337.99,-304.71l-76.71 -139.57c7.57,363.18 422.92,420.71 466.72,669.15z"/>
   <path class="fil28" d="M6475.03 10589.85c-78.23,125.34 -437.36,334.48 -568.26,427.32 -44.01,31.2 -66.49,45.39 -97.4,67.41 -84.93,60.47 -75.03,49.29 -85.54,96.9 168.43,-79.55 641.85,-362.34 796.35,-498.83 21.44,-18.94 28.71,-30.51 55.16,-47.5 51.82,-33.29 14.2,-11.82 53.52,-22.68 25.18,-45.77 216.4,-272.74 333.53,-455.56 108.71,-169.67 61.59,-155.37 11.07,-174.23 -53.8,62.81 -63.49,70.28 -114.22,153.38 -36.49,59.76 -71.79,118.4 -112.77,175.58 -64.22,89.62 -192.32,245.48 -271.44,278.21z"/>
   <path class="fil28" d="M5273.66 6901.9c64.92,1.76 60.33,-33.93 60.93,-109.88 0.34,-44.16 -11.61,-91.99 -22,-134.06 -20.52,-83.04 -45.62,-147.46 -73.96,-221.64l-104.53 -225.17c-126.56,-325.05 107.55,-655.37 229.21,-876.08 -28.46,33.23 -28.32,26.27 -58,55.25 -135.1,131.9 -304.35,451.56 -288.44,680.02 17.12,245.91 232.1,547.9 256.79,831.56z"/>
   <path class="fil28" d="M1894.39 5661.45c-99.78,-30.97 -40.88,-42.78 -138.6,-80.9l-4.48 118.15c47.33,20.82 79.28,44.45 148.04,58.38 143.88,-7.68 181.7,-84.02 234.34,-181.34 7.54,-121.84 -18.02,-214.99 -67.66,-305.54 -25.59,-46.68 -36.57,-58.9 -68.07,-96.58 -42.14,-50.41 -25.77,-54.22 -88.75,-67.15 28.01,104.07 115.72,180.14 144.02,299.56 33.37,140.83 -22.72,247.16 -158.84,255.42z"/>
   <path class="fil28" d="M8016.02 11209.13c120.93,-12.49 272.79,-4.43 399.77,-8.3 105.75,-3.23 244.48,9.58 281.02,-84.2l-121.4 -9.64c-48.57,35.29 -209.02,39.21 -283.18,47.67 -121.35,13.84 -212.52,4.48 -276.21,54.47z"/>
   <path class="fil29" d="M5238.63 6436.32c28.34,74.18 53.44,138.6 73.96,221.64 10.39,42.07 22.34,89.9 22,134.06 -0.6,75.95 3.99,111.64 -60.93,109.88 12.59,58.23 -5.44,5.58 22.76,58.38 41.85,78.34 8.4,-10.19 31.08,54.29 21.28,60.48 -7.31,77 41.58,143.48l2.72 -375.67 14.99 -87.17c35.22,46.69 19,15.25 15.53,87.84 -32.49,278.01 118.41,806.48 207.07,1041 39.56,104.64 332.61,725.54 436.75,817.45 307.54,-316.66 549.24,-434.63 786.68,-654.75 -3.23,-197.03 -32.09,-151.38 156.58,-274.76 149.53,-97.78 55.54,-294.4 6.48,-431.07 -46.17,-128.6 -83.66,-178.59 -41.3,-221.16 -13.96,-50.56 -36.14,-101.31 -57.76,-149.01 -6.2,-13.68 -28.4,-62.43 -32.75,-70.05 -33.49,-58.62 -15.19,-27.83 -39.77,-52.43 -187.74,-39.59 87.09,-70.1 -284.11,-93.22 -95.29,-5.93 -202.15,-37.08 -248.58,-118.37 -78.53,-24.09 -177.83,-37.71 -276.38,-84.4 -339.47,-160.85 -65.6,-199.34 -660.43,16.88 26.18,-41.97 8.12,-34.38 84.41,-78.44 25.7,-14.84 61.38,-33.8 92.24,-51.35 71.98,-40.94 111.56,-59.76 200.29,-84.66 -39.54,-55.64 -96.12,-128.01 -138.36,-204.15 -38.3,-69.03 -60.34,-150.5 -101.88,-224.7 -266.56,-6.77 -207.91,317.26 -224.32,493.92 -7.42,79.85 17.21,53.08 -28.55,76.54z"/>
   <path class="fil29" d="M4799.08 4415.33l-236.37 -54.01 -121.59 64.38 -9.25 -81.83 -92.11 -16.79c-66.81,14.63 -97.39,30.89 -152.93,70.45 -62.47,44.48 -71.2,56.73 -82.69,141.41l239.68 -53.74c-49.4,81.93 -91.27,60.57 -106.6,158.49 104.25,0.6 187.92,-38.7 279.74,-77.57 110.88,-46.94 169.85,-57.66 206.43,-145.6l75.69 -5.19z"/>
   <path class="fil29" d="M4874.93 4681.8l-24.93 -220.36c-47.84,112.52 -18.83,64.1 -121.12,127.7 -64.1,39.86 -98.1,61.72 -105.02,141.57 107.47,1.65 161.62,-25.28 251.07,-48.91z"/>
   <path class="fil30" d="M2899.6 4236.5c48.43,-67.02 59.53,-76.3 165.62,-86.34 -40.11,63.57 -72.82,72.91 -165.62,86.34zm-300.41 -249.39c33.9,45.16 38.99,-55.16 19.31,54.67 -10.73,59.88 -33.63,47.42 -44.56,51.52l25.25 -106.19zm-222.38 400.2c120.28,-183.37 244.3,-60.47 298.49,87.05 77.67,-22.3 145.51,-74.59 239.17,-30.37 62.07,29.31 107.92,88.12 107.3,186.9 83.46,16.11 59.42,25.94 72.14,34.15l19.25 51.05c515.3,54.43 836.94,249.35 1326.18,303.07 163.09,17.91 348.27,11.26 505.97,44.24l48.33 10.59 -43.57 28.59c-272.34,76.34 -775.09,-32.38 -1036.32,-113.91 -229.25,-71.56 -726.47,-267.77 -972.52,-236.44 -103.39,204.61 -497.36,215.99 -512.4,-140.05 -43.8,-248.44 -459.15,-305.97 -466.72,-669.15l76.71 139.57c69.77,113.38 220.16,236.04 337.99,304.71zm1130.1 -397.96c-47.76,26.9 -44.03,17.78 -108.23,10.14 24.53,-63.61 31.19,-57.17 85.57,-89.11l22.66 78.97zm-1307.08 13.65c9.51,-96.55 95.18,-169.58 195.02,-157.84l33.65 13.71c13.46,41.95 25.47,-49.94 6.53,44.88 -13.83,69.25 -131.57,112.42 -235.2,99.25zm134.03 -339.38c8.4,23.34 20.22,-34.65 12.29,59.06 -2.82,33.44 9.53,43.33 -97.51,98.18 -308.89,158.3 -122.3,-226.63 85.22,-157.24zm1984.64 -1119.01c-28.55,33.86 9.15,-3.53 -32.52,36.62 -14.12,13.6 -20.76,15.73 -34.06,25.56 12.09,-67.02 -3.13,-33.26 45.89,-64.41 83.01,-93.14 360.15,-319.08 570.59,-245.27 -94.2,37.77 -207.7,58.34 -310.13,104.1 -100.38,44.83 -167.22,109.62 -239.77,143.4zm-525.23 301.63l-9.85 118.38c-91.16,-33.42 -108.52,-64.88 -230.45,-35.87 -0.31,-128.1 -16.43,-63.03 -37.06,-91.55 5.97,221.79 -58.59,448.74 -163.01,603.09 -125.75,185.88 -387.47,339.58 -387.61,339.34 -2.15,-3.97 -8.33,7.78 -12.21,11.95l6.17 17.19 -86.23 78.64c-33.84,-3.32 -48.74,0.41 -82.01,-18.14 -78.96,-44.04 -13.32,-2.67 -45.88,-49.04 -28.86,-1.89 -98.29,4.25 -103.54,4.06 -34,-1.24 30.3,38.11 -52.85,-21.42 -207.64,-148.64 -168.9,-161.09 -263.06,-349.84 -43.06,-16.72 -12.19,-3.9 -47.83,-20.94 -9.44,-4.52 -34.72,-17.55 -41.47,-21.32 -40.81,-22.78 -26.61,-10.69 -56.42,-38.95 -103.21,34.76 -212.67,172.8 -251.28,271.49l13.4 10.63 43.45 -18.31c8.14,-51.41 162.86,-149.45 207.65,-153.84 148.75,-14.58 177.88,144.24 -120.59,240.92 -34.25,36.99 -24.13,30.98 -72.59,55 -30.76,15.25 -42.49,18.26 -74.8,28.57 -37.76,-11.26 -57.37,-18.83 -87,-32.14 -109.98,399.78 52.64,553.24 156.37,870.1l19.54 -76.77c82.29,265.38 277.07,544.56 425.28,660.25 2.77,-52.74 20.81,-28.93 86.51,-19.77 25.3,-36.31 29.45,-51.8 52.78,-90.55 39.3,-65.27 5.12,-45.81 88.29,-65.32 81.86,62.68 33,46.95 78.79,210.91 93.21,47.07 79.13,47.93 128.49,148.11 -3.24,4.92 -4.59,9.24 -5.62,16.73 -1.21,8.74 -12.54,19.87 -16.61,25.39 212.43,21.58 160.6,150.78 288.38,251.65 -6.76,-78.42 -18.56,-69.23 -38.75,-131.07 459.62,289.45 767.96,163.69 1296.79,277.69 28.69,-31.11 49.57,-49.14 75.47,-97.25 69.71,50.53 41.38,46.5 87.33,90.03 39.15,37.08 82.35,48.04 150.78,48.27 43.96,-228.82 217.71,-577.86 412.77,-701.85l100.87 -74.43c-35.52,-71.91 9.3,-68.48 -54.66,-128.11l32.62 -2.5c-15.92,-14.62 -12.36,-14.25 -39.49,-30.16 -262.29,-153.81 -115.58,-37.32 -289.2,-273.69 -89.45,23.63 -143.6,50.56 -251.07,48.91 6.92,-79.85 40.92,-101.71 105.02,-141.57 102.29,-63.6 73.28,-15.18 121.12,-127.7l10.76 -47.11 -61.68 1 -75.69 5.19c-36.58,87.94 -95.55,98.66 -206.43,145.6 -91.82,38.87 -175.49,78.17 -279.74,77.57 15.33,-97.92 57.2,-76.56 106.6,-158.49l-239.68 53.74c11.49,-84.68 20.22,-96.93 82.69,-141.41 55.54,-39.56 86.12,-55.82 152.93,-70.45 -114.49,-58.24 -120.92,-73.04 -179.87,-203.41l-85.44 -223.03c-5.73,-56.89 -21.15,-30.63 17.57,-59.98 -36.9,-145.46 -59.65,-278.47 -29.9,-431.35 12.76,-65.62 30.06,-138.34 52.58,-196.65 8.96,-23.22 28.69,-67.83 37.82,-85.85l57.08 -73.09c50.53,-28.33 27.97,10.46 52.43,-51.8 10.25,-26.12 3.03,-40.13 -1.41,-68.64l-106.26 -22.99c460.13,-177.71 1128.45,241.67 1423.66,703.52 50.96,79.73 97.6,126.67 73.46,250.9 217.39,-30.71 183.83,-166.39 197.01,-324.89l17.26 197.82 97.67 -57.52 -6.2 -151.37c-7.05,88.93 -10.63,30.9 -38.77,55.12 -34.9,-86.4 -70.42,-91.93 -111.15,-171.81l12.53 -11.95c-4.24,-3.48 -10.06,-7.81 -13.26,-9.75 -116.04,-70.2 -178.88,-37.38 -379.49,-222.63 -371.32,-342.88 -556.59,-725.62 -378.62,-1272.81l-69.55 -121.07c-1.74,-8.71 -6.87,-10.23 -10.26,-15.38 -349.28,49.67 -576.42,204.95 -719.19,415.79 -190.93,281.95 -147.56,553.51 -456.19,671.98z"/>
   <path class="fil30" d="M7492.77 9556.47c-16.52,-10.41 0.19,-9.54 -39.28,-17.56 -6.33,-1.29 -34.11,3.67 -40.99,4.92 -18.99,18.79 -11.76,14.71 -40.8,34.11 -5.38,3.6 -22.54,12.52 -28.19,15.64 -296.69,164.2 -84.67,328.87 20.22,351.64l-3.06 66.2 97.4 3.13 56.88 -11.31c-38.05,-43.05 -32.43,-141.44 117.76,-126.19 39.23,-58.15 12.17,-60.46 109.33,-112.57 58.21,-31.23 91.64,-48.06 145.01,-82.68 82.73,-53.68 187.28,-123.12 242.91,-193.47 -24.81,-38.07 -51.08,-81.01 -79.87,-124.7 3.48,-2.96 9.48,-6.02 11.36,-7.68l40.9 -52.94c-3.36,-2.02 -33.77,-20.92 -34.27,-21.26l-24.9 -19.93c19.12,-191.12 40.32,-142.21 -22.82,-172.4 -139.46,238.26 -401.48,545.03 -743.23,590.85 4.32,-3.9 10.09,-8.81 13.41,-11.18l202.23 -112.62z"/>
   <path class="fil31" d="M5951.97 2960.65c-116.54,77.83 -151.63,140.18 -329.87,54.39 -102.63,-49.4 -192.62,-146.07 -256.7,-239.43 -215.11,-313.39 -173.13,-511.48 -163.24,-784.41 305.89,-9.44 327,-27.27 371.72,141.79 40.64,153.56 70.48,223.09 160.87,357.19 117.38,174.13 245.4,181.1 217.22,470.47zm-397.75 -1354.05c134.49,-29.25 243.13,6.2 355.26,-59.73 149.62,-87.98 30.36,-96.21 264.1,-154.69 8.32,143.75 -66.97,294.38 -65.07,499.76l-124.18 -140.51 -103.02 -0.15c-273.25,-0.45 -212.46,196.16 -255.14,313.28 -145.84,-129.23 5.7,-333.88 -71.95,-457.96zm-1314.6 -1077.16c-275.66,116.77 -515.55,422.9 -929.11,347.3 -23.95,58.54 5.13,5.41 -34.35,57.84 -3.21,4.26 -10.87,46.19 -22.1,23.99 -1.74,-3.45 -8.14,7.39 -11.77,11.49 84.48,-14.99 158,-16.26 220.42,22.7 162.9,101.68 85.01,320.77 -121.53,397.35 -440.07,163.18 -535.26,340.61 -591.79,356.01 -141.54,-3.14 -99.74,-36.47 -223.89,-44.35 100.75,-87.47 0.12,69.84 16.5,-140.6 -30.54,20.45 -9.4,12.67 -34.41,22.3 -42.55,16.39 5.57,12.25 -27.14,-2.34l9.51 -68.31c-60.76,51.75 -78.46,111.72 -97.94,202.18 -12.13,56.36 -12.26,78.33 -11.83,134.99 0.67,87.81 31.13,100.04 -23.89,104.94 51.72,87.04 88.66,86.58 174.11,133.4 73.5,40.26 123.69,83.26 181.5,114.39l39.2 -46.59 103.95 53.19c97.05,15.37 142.23,6.38 207.93,-26.52 46.92,-23.5 37.72,-16.79 74.62,-53.02 26.23,-25.76 22.15,-64.18 44.45,-25.33l161.57 -222.41c-17.43,-21.89 -34.71,25.53 6.61,-47.52l140.92 -167.35c208.63,52.75 121.13,50.01 321.17,25.99 78.47,-9.43 61.82,-29.96 86.33,15.76l23.32 35.36c-76.71,66.3 -117.35,134.51 -140.65,234.99 24.13,23.99 12.7,9.3 30.74,51.33 115.28,268.45 195.5,146.32 298.68,237.76 17.92,-19.99 0.82,5.68 29.58,-38.12 131.74,-200.63 119.29,-223.64 373.95,-388.45 223.38,-144.58 368.87,-121.15 641.01,-160.61 68.86,-106.26 140.81,-231.81 270.82,-260.79 -176.88,177.07 -186.66,302.45 -203.48,326.86 -107.79,156.49 -140.39,308.32 -139.27,534.29 1.71,346.22 122.65,479.43 284.46,656.76 75.69,82.94 63.77,120.62 156.78,157.64l42.01 7.57 422.73 104.49 -8.22 111.95c272.48,-27.12 508.44,-234.96 577.82,-490.02 -613.26,83.68 -750.31,-515.58 -533.46,-645.26 -15.79,225.27 -21.34,369.85 134.66,496.92 63.72,51.91 163.26,89.49 278.2,83.28 143.23,-7.74 162.96,-90.63 253.38,-58.2 13.67,125.89 -176.46,400.52 -243.75,469.92 -139.43,143.81 -253.82,231.86 -541.69,219.89l59.74 37.79 -8.8 94.48 6.2 151.37c40.46,-15.9 18.67,-23.36 31.96,1.08l-46.09 138.5 16.49 278.6 28.36 -0.58c51.31,-29.33 105.97,49.25 109.61,-174.06 70.4,0 140.15,-2.07 210.38,-2.24 205.84,-0.5 208.36,12.83 274.47,144.06 28.85,57.27 78.88,269.83 201.19,457.99 46.77,71.94 159.78,162.62 188.71,242.68 40.26,111.44 -7.12,147.33 -16.21,339.22 22.15,-8.29 50.73,-15.09 77.49,-24.77 -29.6,101.52 -19.32,77.66 -101.88,97.95 12.19,-38.72 -2.18,-43.34 26.23,-76.22 -143.07,35.71 -13.11,6.95 -89.89,62.95 -24.64,17.96 -56.56,21.84 -106.01,23.51 -121.45,4.12 -150.05,-16.36 -252.02,-31.54l54.4 78.33c-170.16,53.77 51.92,-81.95 -198.55,69.8 -52.58,31.86 -7.67,7.87 -66.85,32.25 -25.71,-58.93 -49.96,-126.18 -70.46,-205.06 -68.73,-264.48 -5.25,-210.01 29.47,-227.95 -22.55,-43.72 -65.06,-103.88 -96.15,-165.83 -27.4,-54.59 -53.58,-117.38 -78.22,-187.07 -30.51,-86.24 -76.2,-374 -105.67,-408.33 -53.34,1.99 0.91,-32.11 -53.35,21.67 47.22,47.17 47.56,-65.52 38.19,59.94 -42,34.33 -28.31,24.25 -64.05,74.47 -44.38,62.36 -23.43,71.9 -88.23,62.93l31.91 37.78 -40.16 -4.53c-42.73,87.83 -75.52,67 -131.97,129.77 -58.52,9.22 -20.2,9.14 -38.14,-20.34 -57.07,35.04 -31.74,10.37 -67.82,66.66 40.32,34.39 33.77,-37.33 32.78,56.87 -0.55,98.66 -24.77,234.95 -98.34,298.89 -32.42,374.71 -37.92,641.44 104.19,1002.41 6.87,17.46 14.15,38.86 26.06,56.62 29.05,43.33 19.37,25.92 45.41,47.09l3.48 -0.99c121.69,70.02 259.74,268.27 549.22,323.16 84.87,16.09 123.6,6.34 204.79,2.48 90.44,-4.3 120.39,12.16 194.34,23.87 100.06,15.83 306.86,-21.66 370.61,16.44 164.63,-42.84 454.62,-257.05 534,-349.12 47.47,-27.68 -52.58,67.72 74.82,-17.5 10.54,-7.05 37.5,-27.92 49.06,-36.28 40.11,-28.99 -12.1,10.8 23.63,-16.33 2.79,-2.12 8.12,-6.36 10.52,-8.26 2.3,-1.82 7.78,-6.95 9.57,-8.43 1.76,-1.44 6.22,-5.56 9.24,-8.44 3.42,-51.13 -16.75,-22.27 10.07,-59.69l23.28 -21 -108.55 -54.86c-0.17,-51.34 -4.81,-27.52 11.43,-66.16 -83.78,-23.24 -10.28,-1.79 -74.13,-78.11l-68.24 -57.98c313.66,-183.02 99.32,-189.16 198.02,-482.99 70.96,-211.24 21.95,-429.56 -169.95,-486.73 -152.12,-45.32 -105.69,-83.21 -254.27,-118.56 -72.02,-17.13 -74.85,-18.47 -112.42,-78.61 -84.55,-135.36 -183.52,-405.92 -137.93,-555.6l49.66 -104.64c1.65,-9.06 7.09,-10.29 10.8,-15.32 -21.14,105.44 -25.56,182.94 24.22,278.3 -35.62,-360.9 64.64,-614.12 125.88,-933.18 -54.76,-28.85 -50.2,64.68 -32.16,-178.83 13.23,-178.62 6.68,-421.42 -21.94,-587.49 -46.17,-267.85 -68.07,-419.83 -173.04,-670.85 0.7,-8.48 -172.69,-571.19 -473.21,-604.35 -134.37,-14.83 -195.08,51.66 -289.27,80.14 -29.33,-38.82 -29.24,-50.79 -50.77,-81.29 -21.25,-30.09 -13.13,-17.6 -30.4,-35.5l-27.55 -21.18c61.45,256.71 -125.17,401.33 -441.36,250.03 -79.31,-37.95 -131.12,-154.51 -205.49,-209.65l-254.98 -157.76 38.61 -313.7 230.02 -7.65c-32.58,-32.29 -16.16,-37.28 -138.82,-60.03 -461.49,-85.61 -543.55,-6.42 -828.59,12.27 -60.69,3.98 -119.97,2.09 -181.68,6.9 -158.83,12.38 -94.89,7.29 -121.56,-10.71zm1754.52 3568.28c-3.53,20.29 4.64,5.4 -9.96,45.67 29.47,34.33 75.16,322.09 105.67,408.33 24.64,69.69 50.82,132.48 78.22,187.07 31.09,61.95 73.6,122.11 96.15,165.83 35.99,99.58 153.24,215.9 251.99,252.63 101.97,15.18 130.57,35.66 252.02,31.54 49.45,-1.67 81.37,-5.55 106.01,-23.51 76.78,-56 -53.18,-27.24 89.89,-62.95l-1.84 3.04c9.09,-191.89 56.47,-227.78 16.21,-339.22 -28.93,-80.06 -141.94,-170.74 -188.71,-242.68 -122.31,-188.16 -172.34,-400.72 -201.19,-457.99 -66.11,-131.23 -68.63,-144.56 -274.47,-144.06 -70.23,0.17 -139.98,2.24 -210.38,2.24 -3.64,223.31 -58.3,144.73 -109.61,174.06zm-3038 -3037.98c15.44,48.37 4.21,37.46 29.59,60.37l-176.88 70.77c-125.93,57.89 -239.45,132.86 -303.7,231.38 17.3,29.18 13,-10.31 1.25,38.28 -14.84,61.45 -6.45,-23.68 -16.44,52.28l-9.51 68.31c32.71,14.59 -15.41,18.73 27.14,2.34 25.01,-9.63 3.87,-1.85 34.41,-22.3 -16.38,210.44 84.25,53.13 -16.5,140.6 124.15,7.88 82.35,41.21 223.89,44.35 56.53,-15.4 151.72,-192.83 591.79,-356.01 206.54,-76.58 284.43,-295.67 121.53,-397.35 -62.42,-38.96 -135.94,-37.69 -220.42,-22.7 -112.92,-2.46 -191.67,55.32 -286.15,89.68zm3187.33 -40c-20.94,-60.79 -53.83,-77.25 -118.3,-138.62 -97.29,-92.61 -397.58,-301.23 -514.9,-300.11l-230.02 7.65 -38.61 313.7 254.98 157.76c74.37,55.14 126.18,171.7 205.49,209.65 316.19,151.3 502.81,6.68 441.36,-250.03zm-191.5 1940.91c28.18,-289.37 -99.84,-296.34 -217.22,-470.47 -90.39,-134.1 -120.23,-203.63 -160.87,-357.19 -44.72,-169.06 -65.83,-151.23 -371.72,-141.79 -9.89,272.93 -51.87,471.02 163.24,784.41 64.08,93.36 154.07,190.03 256.7,239.43 178.24,85.79 213.33,23.44 329.87,-54.39z"/>
   <path class="fil32" d="M8375.82 5294.14c39.07,21.68 17.18,-5.16 -51.2,170.26 -22.93,58.82 -53.16,140.31 -72.6,213.27 -48.98,183.81 -42.86,313.72 -42.13,515.93 -180.96,146.18 -231.62,152 -196.62,432.94 21.7,174.18 90.74,375.78 106.42,569.29 -93.28,-94.24 -55.81,-214.54 -88.76,-333.56 -1.67,-6.02 -4.11,-11.73 -5.92,-17.07l-16.46 -33.73c17.41,403.54 135.36,766.31 209.9,1164.93 37.33,199.66 42.39,420.91 3.35,614.77 -46.06,228.64 -126.11,327.47 -201.44,498.25 63.14,30.19 41.94,-18.72 22.82,172.4l24.9 19.93c0.5,0.34 30.91,19.24 34.27,21.26l-40.9 52.94c-1.88,1.66 -7.88,4.72 -11.36,7.68 28.79,43.69 55.06,86.63 79.87,124.7 -55.63,70.35 -160.18,139.79 -242.91,193.47 -53.37,34.62 -86.8,51.45 -145.01,82.68 -97.16,52.11 -70.1,54.42 -109.33,112.57 -150.19,-15.25 -155.81,83.14 -117.76,126.19l-56.88 11.31c33.39,74.06 501.37,17.1 616.87,-2.43 75.9,-12.83 127.19,-15.83 179.65,-56.31 -43.98,-19.26 136.46,-90.48 213.09,-130.33 171.59,-89.23 596.98,-363.48 717.74,-474.34 331.03,-303.88 426.28,-506.69 649.89,-956.83 22.73,28.36 9.75,-11.51 13.82,38.21 67.08,-60.87 94.52,-218.82 119.44,-317.36 38.88,-153.67 65.74,-220.88 111.58,-341.46l25.8 -68.88c-69.12,2.93 -69.99,14.39 -116.51,-14.69 -361.84,32.4 -875.09,-289.43 -1023.29,-707.96 -194.14,-548.26 150.36,-1023 442.48,-1205.37 -32.31,72.4 -9.84,25.26 -54.2,78.44 -355.93,426.76 -443.83,1094.27 -10.84,1428.71 167.96,129.73 488.07,312.03 796.83,262.41 232.2,-37.32 471.5,-368.77 540.92,-542.81 -39.24,-11.09 18.44,-133.67 41.18,-236.61 21.78,-98.57 36.04,-202.26 25.75,-306.45 -57.3,-580.52 -183.21,-666.32 -290.57,-1030.69 -25.19,-85.51 -53.61,-168.05 -87.56,-242.51 -77.83,-170.67 -118.89,-170.84 -78.7,-188.13 -68.23,-106.86 -102.59,-119.24 -200.71,-191.31 -69.74,-51.23 -153.27,-96.82 -239.69,-131.43 -681.64,-272.94 -1393.11,400.39 -1475.22,617.72z"/>
   <path class="fil33" d="M4955.04 9167.01c-24.29,83.61 -53.5,95.41 -98.84,183.03 -24.35,47.06 -25.18,45.27 -54.9,86.74 -0.97,1.35 -22.99,34.05 -24.83,36.5l-25.79 31.03c-2.67,-4.22 -9.65,11.76 -15.25,16.87 -37.05,-158.28 -3.96,-99.35 -2.46,-100.93 -55.87,12.68 -10.79,20.85 -107.95,67.6l-88.1 105.02 -7.39 -2.38c-56.8,51.93 -78.62,127.95 -106.72,212.07 -84.35,252.54 -126.33,505.47 -138.84,777.16 -35.23,765.17 245.64,691.48 -78.3,961.7 3.86,7.42 47.53,89.13 49.71,91.14 35.79,33 63.7,24.3 104.64,24.66 56.23,-42.8 755.64,-21.69 882.06,-23.78 187.64,-183.71 108.17,-181.96 175.63,-217.42 196.98,-103.55 61.46,13.13 228.12,-165.31l78 -69.23c10.51,-47.61 0.61,-36.43 85.54,-96.9 30.91,-22.02 53.39,-36.21 97.4,-67.41 130.9,-92.84 490.03,-301.98 568.26,-427.32 -33.33,-30.56 -50.59,18.46 14.66,-78.61 143.33,-213.25 135.67,-281.51 224.51,-457.57 54.37,-107.75 1.1,-145.83 37.02,-190.23 -21.61,-22.19 -2.08,-10.62 -49.82,-41.6 -890.12,-577.61 -866.48,-979.62 -1014.65,-1113.75 -77.62,81.27 -135.57,-49.74 -434.95,171.42 -150.5,111.17 -72.62,61.08 -161.71,147.47l-135.05 140.03z"/>
   <path class="fil34" d="M2109.58 6500.91c2.64,4.47 5.74,10.55 6.89,13.96l19.08 110.52c7.41,79.2 22.12,211.55 101.58,247.85 79.49,51.97 62.62,90.19 140.43,145.99 190.61,136.67 134.37,81.81 151.31,244.33 7.06,67.7 37.42,36.13 -8.09,75.43l21.93 25.78c115.42,96.4 508.46,226.73 653.31,257.14 267.79,56.22 570.73,68.73 846.9,11.01 260.5,-54.44 502.96,-183.56 619.01,-331.43 121.3,-154.56 269.02,-432.92 219.63,-700.49l-45.46 -42.92c-2.96,-3.3 -6.36,-8.35 -9.25,-11.69 -323.04,-373.45 -1569.98,-423.94 -1732.38,-512.12 -239.12,-129.85 -114.98,-358.2 -261.57,-500.49 20.81,-25.76 -31.37,-24.96 46.29,-20.83 -4.79,-2.84 -11.25,-13.59 -14.22,-8.76l-46.1 -47.87 -47.6 -56.05 3.02 99.38c-97.41,-28.73 -38.07,0.44 -82.08,-74.02 -114.45,-23.72 -71.55,-48.23 -195,-63.97 -176.82,218.01 -358.44,772.94 -387.63,1139.25z"/>
   <path class="fil35" d="M6073.66 8665.85l39.58 58.06 -66.84 32.98c177.46,228.5 361.07,414.34 613.5,571.52l188.51 125.09c49.04,42.11 55.57,5.8 1.42,39.02 62.25,48.04 64.08,37.7 144.13,53.6l5.37 -32.67c0.14,-2.13 0.43,-9.5 0.46,-11.34 0.03,-1.41 -3.4,-6.42 -3.48,-9.92 -0.02,-0.99 -2.78,0.05 -2.35,-0.64 118.55,-11.44 84.68,-25.15 164.84,-59.99 98.62,76.6 96.69,108.74 253.7,112.27 6.88,-1.25 34.66,-6.21 40.99,-4.92 39.47,8.02 22.76,7.15 39.28,17.56 239.26,-168.24 494.5,-457.27 574.86,-752.23 48.05,-176.33 -77.63,-173.51 -32.21,-372.94l37.36 266.58c85.97,-91.85 76.65,-304.77 76.19,-422.8 -98.9,-91.77 -116.51,-125.62 -302.78,-113.96 -50.38,-113.8 -212.88,-145.94 -336.27,-31.79l-93.88 67.46c-35.05,-58.01 -21.03,-39.1 -69.26,-67.37 0.45,-238.26 -29.96,-172.74 -142.84,-291.77 -71.69,37.9 -74.76,64.34 -141.57,112.61 -49.13,35.5 -95.75,72.5 -141.38,106.23l-847.33 609.36z"/>
   <path class="fil36" d="M7205.35 6451.5c31.84,30.38 21.61,3.4 7.19,60.07 -62.89,247.17 -133.59,212.42 -163.32,292.26 -26.82,72.03 2.92,98.97 -32.38,133.02 17.85,94.2 94.63,402.57 150.72,463.75l11.49 -40.29c45.69,219.18 122.06,280.53 180.9,425.97 178.14,15.09 424.09,85.97 541.64,201.23l43.76 -1.35c15.32,-35.17 21.37,-66.7 41.13,-100.22 31.64,-53.64 35.59,-37.64 76.25,-86.16 -104,-684.59 -269.18,-806.06 -163.19,-1678.38 -50.46,37.33 -8.87,20.09 -81.44,30.48l-173.3 -4.96c-46.18,-18.45 -19.63,0.14 -40.3,-36.99 -115.84,53.31 -104.22,91.56 -188.09,176.33 -40.96,41.41 -53.7,51.52 -102.58,82.74 -54.24,34.64 -67.15,24.92 -108.48,82.5z"/>
   <path class="fil37" d="M1477.36 3743.04c-57.5,55.58 -78.99,202.01 -98.47,280.15l-3.7 82.48c-69.28,-13.62 -126.73,-29.37 -213.99,-28.98 -32.01,255 59.57,552.07 173.47,730.4 33.6,52.61 58.55,88.15 91.64,134.68 45.33,63.77 258.43,316.89 320.86,331.27 59.19,-17.89 62.95,-18.81 100.53,-19.88l-56.76 -58.68c-24.19,-26.2 -31.53,-39.63 -54.77,-68.13 -41.41,-50.77 -67.55,-63 -105.68,-120.96 -56.38,-85.72 -135.64,-176.82 -129.09,-307.83 43.25,150.58 306.52,437.64 393.69,478.53l14.12 -69.62c62.98,12.93 46.61,16.74 88.75,67.15 31.5,37.68 42.48,49.9 68.07,96.58 49.64,90.55 75.2,183.7 67.66,305.54 21.93,-19.46 48.29,12.71 35.07,-144.04 60.44,-34.78 -2.75,-17.17 65.62,10.54l9.53 -172.64 -7.1 -154.14c-24.39,-72.95 -11.68,-56.59 -73.16,-94.23 -6.96,-0.55 -72.64,-80.04 -104.87,-113.91 -65.97,-69.32 -74.91,-62.62 -149.37,-118.53 -72.06,-54.12 -132.78,-319.33 -90.75,-368.44 -86.76,-374.25 -137.01,-342.15 -15.09,-738.88 -279.27,-14.24 -186.07,-37.65 -326.21,61.57z"/>
   <path class="fil38" d="M4437.38 3825.51c-8.03,227.56 84.66,302.08 89.15,441.97 192.23,26.22 440.76,136.26 727.36,-39.06 143.7,-87.9 130.59,-77.52 158.51,-141.78 -309.45,130.74 -74.35,-159.12 -193.51,-296.5 -68.96,72.62 -97.76,216.81 -277.54,190.01 -212.64,-31.71 -153.69,-180.77 -147.23,-320.7 -237.58,-38.46 -230.32,74.06 -356.74,166.06z"/>
   <path class="fil39" d="M1554.42 3234.23c55.14,41.93 -62.36,18.38 63.79,37.75l-55.75 49.72 -1.85 165.65 -53.31 63.53 -29.94 192.16c140.14,-99.22 46.94,-75.81 326.21,-61.57 11.71,-6.94 15.22,-10.74 30.01,-29.47 12.7,-16.08 24.73,-35.63 34.19,-47.77 48.96,-62.81 48.98,-48.38 80.7,-112.86l-17.66 -31.49c139.55,-106.46 195.39,-157.85 257.96,-358.93 -136.5,-20.75 -130.74,-19.88 -177.09,-121.53l203.74 87.43 115.15 -267.61c-160.47,40.59 -189.01,-7.4 -299.92,-64.67 -54.7,260.34 -181.24,527.01 -476.23,499.66z"/>
   <path class="fil40" d="M2790.6 3234.69c-80.32,13.05 -158.08,60.82 -215.02,117.21 -0.01,89.54 -2.42,292.42 57.63,370.55 334.11,34.66 541.24,-189.76 666.88,-371.69 -141.76,-155.62 -45.87,-87.33 -121.11,-176.79 -82.48,111.27 -39.46,136.65 -180.38,202.61 -164.59,77.04 -147.14,-58.35 -208,-141.89z"/>
   <path class="fil41" d="M2376.71 2638.9c-106.07,-21.73 -298.26,-222.17 -174.77,-344.24 42.61,90.8 143.48,257.84 174.77,344.24zm-190.78 -418.67c-78.28,86.15 -113.81,308.34 -128.08,419.74 63.99,17.88 86.29,47.51 132.39,76.49 65.23,41 93.27,34.1 138.91,56.38 31.88,-32.85 23.13,-28.53 48.29,-59.7 3.68,-4.54 14.51,-17.17 17.89,-21.43 12.61,-15.85 10.52,-7.39 24.84,-32.77l1.86 -22.75c26.72,-57.55 35.38,-54.71 54.26,-113.77l134.9 5.33 -77.98 -25.38 32.52 -56.19c-25.06,-31.99 -20.46,7.53 -15.23,-51.58 0.07,-0.88 12.42,-39.83 14.12,-46.19 2.29,-8.53 15.85,-63.05 16.43,-64.55 24.21,-63.35 -18.51,9.21 25.97,-38.77 -3.73,-4.06 -8.6,-9.59 -11.24,-12.14l-195.26 -121.94c-21.62,23.47 -11.3,19.26 -51.26,39.94 -15.26,7.89 -37.73,12.8 -58.74,23 -58.06,28.19 -34.27,28.54 -104.59,46.28z"/>
   <path class="fil42" d="M5554.22 1606.6c77.65,124.08 -73.89,328.73 71.95,457.96 42.68,-117.12 -18.11,-313.73 255.14,-313.28l103.02 0.15 124.18 140.51c-1.9,-205.38 73.39,-356.01 65.07,-499.76 -233.74,58.48 -114.48,66.71 -264.1,154.69 -112.13,65.93 -220.77,30.48 -355.26,59.73z"/>
   <path class="fil43" d="M5125.24 4641.3c-8.25,55.86 -20.99,98.95 -61.28,138.83 51.86,105.17 238.16,128.9 358.12,168.57 -93.76,38.63 -65.44,37.48 -179.42,35.03 5.41,5.68 15.57,2.81 20.06,12.28 14.02,29.56 145.85,17.38 194.04,24.32l40.31 -137.27 7.93 44.44c73.57,-63.94 97.79,-200.23 98.34,-298.89 0.99,-94.2 7.54,-22.48 -32.78,-56.87 -186.28,74.73 -180.46,119.68 -445.32,69.56z"/>
   <path class="fil44" d="M1895.09 5176.09l-2.05 66.88 -45.34 10.19c-37.58,1.07 -41.34,1.99 -100.53,19.88 14.89,29.92 -0.49,20.34 21.68,35.25 6.51,-2.09 14.47,-4.88 19.53,-6.26 4.99,-1.36 13.97,-4.06 19.46,-5.5l55.54 -10.99c48.11,144.08 35.46,207.4 31.01,375.91 136.12,-8.26 192.21,-114.59 158.84,-255.42 -28.3,-119.42 -116.01,-195.49 -144.02,-299.56l-14.12 69.62z"/>
   <path class="fil45" d="M3439.77 2827.26l-121.15 -15.4c-65.48,85.65 -163.61,325.93 -24.34,366.32 151.44,43.91 176.47,-237.01 145.49,-350.92z"/>
   <g>
    <path class="fil46" d="M2376.81 4387.31l102 141.02c165.43,250.86 336.48,119.02 615.1,136.71 -12.72,-8.21 11.32,-18.04 -72.14,-34.15 0.62,-98.78 -45.23,-157.59 -107.3,-186.9 -93.66,-44.22 -161.5,8.07 -239.17,30.37 -54.19,-147.52 -178.21,-270.42 -298.49,-87.05z"/>
    <path class="fil46" d="M2941.23 4752.23c-106.14,9.89 -198.47,16.6 -302.19,-14.01 -39.41,-11.63 -86.99,-33.37 -113.85,-50.34l-83.01 -65.76c-2.9,-2.29 -8.76,-6.83 -13.35,-9.94 15.04,356.04 409.01,344.66 512.4,140.05z"/>
   </g>
   <path class="fil47" d="M1985.53 3635.63l-15.92 65.21c49.6,36.27 -68.2,51.39 102.98,21.87 298.47,-96.68 269.34,-255.5 120.59,-240.92 -44.79,4.39 -199.51,102.43 -207.65,153.84z"/>
   <path class="fil48" d="M1227.46 4803.64c-95.51,-237.91 -170.56,-391.81 -149.93,-699.37 -63.85,95.57 -71.6,273.21 -35.67,396.67 16.03,55.08 54.71,135.69 76.49,171.49l109.11 131.21z"/>
   <path class="fil49" d="M1847.7 5253.16l45.34 -10.19 2.05 -66.88c-87.17,-40.89 -350.44,-327.95 -393.69,-478.53 -6.55,131.01 72.71,222.11 129.09,307.83 38.13,57.96 64.27,70.19 105.68,120.96 23.24,28.5 30.58,41.93 54.77,68.13l56.76 58.68z"/>
   <path class="fil50" d="M2855.06 2209.32l80.05 50.73 -3.82 128.3c52.42,-23.72 32.23,-10.13 79.87,-51.92 29.97,-26.29 44.3,-41.87 71.34,-72.79 38.79,-44.37 78.76,-106.78 99.56,-159.19 -22.3,-38.85 -18.22,-0.43 -44.45,25.33 -36.9,36.23 -27.7,29.52 -74.62,53.02 -65.7,32.9 -110.88,41.89 -207.93,26.52z"/>
   <path class="fil51" d="M4802.59 5868.66c128.97,-62.3 147.25,-197.14 151.83,-360.76 -11.68,12.09 -17.07,13.48 -31.72,36.03 -9.73,15 -12.97,22.66 -21.72,40.78 -15.46,32 -23.1,53.74 -36.29,86.74 -28.87,72.17 -44.88,120.54 -62.1,197.21z"/>
   <path class="fil52" d="M3558.42 2652.93c35.8,-199.03 19.89,-276.46 -81.31,-371.64l81.31 371.64z"/>
   <path class="fil53" d="M3973.49 8566.53c19.61,70.05 -1.13,60.58 54.8,138.92 1.75,2.46 8.19,14.21 9.48,11.07 1.32,-3.2 6.52,7.45 16.69,14.3l60.51 -149.09 -141.48 -15.2z"/>
   <path class="fil54" d="M2185.93 2220.23c70.32,-17.74 46.53,-18.09 104.59,-46.28 21.01,-10.2 43.48,-15.11 58.74,-23 39.96,-20.68 29.64,-16.47 51.26,-39.94 -49.34,-42.76 -15.08,-26.32 -82.27,-36.44 -54.15,42.29 -98.03,82.72 -132.32,145.66z"/>
   <path class="fil55" d="M4130.01 11445.12l132.76 -74.94 -22.59 -125.36c-80.78,53.28 -64.78,98.79 -110.17,200.3z"/>
   <polygon class="fil56" points="4431.87,4343.87 4441.12,4425.7 4562.71,4361.32 4459.69,4317.03 "/>
   <path class="fil57" d="M3398.68 3999.49c64.2,7.64 60.47,16.76 108.23,-10.14l-22.66 -78.97c-54.38,31.94 -61.04,25.5 -85.57,89.11z"/>
   <path class="fil58" d="M6962.29 5105.37l1.84 -3.04c-28.41,32.88 -14.04,37.5 -26.23,76.22 82.56,-20.29 72.28,3.57 101.88,-97.95 -26.76,9.68 -55.34,16.48 -77.49,24.77z"/>
   <polygon class="fil59" points="7393.62,10177.42 7459.73,10079.15 7361.5,10060.16 "/>
   <path class="fil60" d="M10080.15 7773.7l52.78 15.34 -6.77 -93.91 -136.72 -5c46.52,29.08 47.39,17.62 116.51,14.69l-25.8 68.88z"/>
   <path class="fil61" d="M4620.96 3044.06c95.79,5.89 30.96,-7.13 106.72,39.68 -7.78,-72.87 23.48,-31.8 -42.51,-61.54 -2.54,-1.15 -71.24,-18.97 -82.86,-22.7l18.65 44.56z"/>
   <path class="fil62" d="M8035.12 7945.21l65.67 19.21 -12.8 -94.12c-17.08,16.45 -17.57,15.32 -36.31,40.57 -18.95,25.52 -0.12,-3.16 -16.56,34.34z"/>
   <path class="fil63" d="M5371.8 6782.38l30.52 0.67c3.47,-72.59 19.69,-41.15 -15.53,-87.84l-14.99 87.17z"/>
   <path class="fil64" d="M4318.5 2544.61l-20.69 -2.23c-49.02,31.15 -33.8,-2.61 -45.89,64.41 13.3,-9.83 19.94,-11.96 34.06,-25.56 41.67,-40.15 3.97,-2.76 32.52,-36.62z"/>
   <polygon class="fil65" points="4950.07,5102.58 4993.64,5073.99 4945.31,5063.4 "/>
   <polygon class="fil66" points="7858.55,4114.16 7893.69,4134.29 7877.89,4073.22 "/>
  </g>
 </g>
</svg>
