<?xml version="1.0" encoding="UTF-8"?>
<!DOCTYPE svg PUBLIC "-//W3C//DTD SVG 1.1//EN" "http://www.w3.org/Graphics/SVG/1.1/DTD/svg11.dtd">
<!-- Creator: CorelDRAW 2017 -->
<svg xmlns="http://www.w3.org/2000/svg" xml:space="preserve" width="200mm" height="200mm" version="1.1" style="shape-rendering:geometricPrecision; text-rendering:geometricPrecision; image-rendering:optimizeQuality; fill-rule:evenodd; clip-rule:evenodd"
viewBox="0 0 20000 20000"
 xmlns:xlink="http://www.w3.org/1999/xlink">
 <defs>
  <style type="text/css">
   <![CDATA[
    .fil5 {fill:#FEFEFE}
    .fil2 {fill:#FEFEFE}
    .fil4 {fill:#201E1E}
    .fil0 {fill:#010101}
    .fil1 {fill:#91191B}
    .fil3 {fill:#91191B}
    .fil6 {fill:#F1F1F3}
   ]]>
  </style>
 </defs>
 <g id="Capa_x0020_1">
  <metadata id="CorelCorpID_0Corel-Layer"/>
  <path class="fil0" d="M5458.53 9051.65c202.09,221.43 157.43,971.3 381.61,1101.45 17.59,10.22 133.39,53.41 162.23,68.51 7.92,3495.08 200.02,3163.36 4142.95,3163.64 4176.8,0.3 4047.23,206.78 4126.38,-3163.64l332.33 -71.97c-223.79,-503.7 178.49,-529.63 165.36,-1282.42l-884.62 -3847.02c-878,192.4 -3344.4,-1091.29 -3944.87,-1087.13 -534.73,3.71 -2236.52,884.95 -3036.45,697.98l-1103.62 3068.59c2.27,769.32 190.82,1061.45 -341.3,1352.01z"/>
  <path class="fil1" d="M7233.23 19508.85c6.45,-645.33 -136.44,-2256.5 77.87,-2735.04 311.94,170.79 175.03,548.25 175.09,1364 0.03,509.54 -38.15,1037.9 37.81,1538.5 786,181.02 4372.09,218.33 5162.27,17.18 28.53,-680.45 -147.27,-2437.84 97.79,-2919.63 309.45,170.52 181.32,353.86 175.47,1266.16 -3.21,505.69 0.72,1011.14 -3.74,1516.89 1201.77,-473.48 1304.22,-1537.87 1304.22,-3080.58 0,-1518.2 -343.52,-2398.22 -1475.95,-2803.36 -618.12,371.12 -886.4,592.99 -1247.48,1261.67 -290.28,537.58 -665.68,1157.8 -884.04,1660.54l-269.64 -757.19c-70.81,-538.28 22.91,-286.15 265.34,-729.82 -134.16,-238.66 -217.55,-316.04 -388.89,-477.38 -235.07,54.99 -329.34,65.88 -467.25,235.39 -300.77,369.73 2.41,478.86 6.23,485.75 139.96,251.41 244.38,-121.67 113.64,575.29 -50.31,268.25 -110.95,381.42 -153.06,671.45 -593.26,-642.14 -1217.12,-2694.79 -2193.13,-2897.8 -342.89,-71.33 -893.57,443.26 -1029.68,633.08 -630.58,879.52 -1098.52,4423.05 697.13,5174.9z"/>
  <path class="fil2" d="M16008.39 7191.67c292.55,-941.13 -128.98,-1312.36 -154.91,-1754.92 -38.01,-648.01 -6.98,-1544.82 7.42,-2208.48 -1119.82,203.48 -225.97,814.81 -540.63,2388.33 -28.89,144.53 -869.16,2041.1 688.12,1575.07z"/>
  <path class="fil3" d="M16146.91 7080.86c292.55,-941.14 -128.99,-1312.36 -154.92,-1754.92 -38.01,-648.01 -6.98,-1544.82 7.43,-2208.48 -1119.83,203.48 -225.98,814.81 -540.63,2388.33 -28.9,144.53 -869.17,2041.09 688.12,1575.07z"/>
  <path class="fil4" d="M5412.78 5273.34c61.48,158.65 32.48,346.26 103.39,549.9 184.1,528.65 403.46,289.83 -39.87,864.52l-94.9 99.35c-169.13,-64.72 -48.21,-80.89 -219.04,-101.08 -77.19,203.02 -89.4,89.84 -240.1,381.22 -66.08,127.78 -122.11,221.87 -198.54,345.57l-445.79 683.35c180.4,-18.19 169.98,-98.29 255.92,-274.03 32.45,-66.34 51.44,-91.26 95.37,-144.77l212.46 -262.61c30.25,-54.53 56.94,-112.92 84.81,-168.56 30.05,-60.02 49.47,-96.48 78.74,-180.26 26.73,-76.51 22.55,-99.18 52.5,-144.27 130.01,13.79 79.25,-16.71 212.12,131.12 159.89,177.9 -54.99,-140.9 39.49,48.87 0,180.05 -12.55,363.09 24.54,496.71 181.86,655.22 401.53,481.62 658.39,761.95l-130.06 648.54c-31.8,71.86 -78.68,176.65 -109.43,248.54 -136.13,318.37 9.22,97.9 -193.56,356.98 -4.33,5.53 -10.92,13.81 -15.06,19.43l-496.51 763.1c-208.86,262.34 -916.27,782.5 -1221.96,1014.92l-881.88 591.93c-140.09,100.52 -141.85,61.51 -233.57,127.97 -5.54,4.02 -13.34,11.07 -18.67,15.38 -5.4,4.38 -12.59,12.23 -17.89,16.83l-912.88 844.75c-51.06,50.84 -61.9,61.67 -117.11,103.81 -308.08,235.13 -112.63,186.09 -473.22,459.95l-141.29 171.12c-98.95,166.46 -95.44,121.08 -177.96,221.71l-54.98 83.53c-3.89,6.78 -8.29,16.5 -12.15,23.42 -20.97,37.57 -46.3,81.77 -67.31,114.44 -160.14,248.99 -123.27,96.46 -268.35,380.38 -3.66,7.17 -20.98,40.35 -27.47,50.41l-143.52 -107.89c15.2,44.65 34.45,107.42 49.32,146.2 50.31,131.23 48.2,11.11 43.71,175.15 -1.24,45.19 -524.14,1225.01 -80.25,2049.02 199.97,371.22 -65.79,889.05 632.73,1368.83 554.04,380.54 870.07,168.72 1208.2,91.06 -230.91,-83.87 -286.79,28.69 -657.48,-388.03 -813.35,-914.33 -169.08,-1707.43 56.61,-2257.65 385.25,-939.24 1176.35,-1687.1 1695.55,-2369.19 159.42,-209.45 329.13,-328.73 527.31,-517.56 162.1,-154.46 269.92,-310.82 475.07,-529.84 338.09,-360.94 671.96,-616.26 996.79,-1052.41 361.22,-484.99 971.59,-1965.73 1021.18,-2511.92l34.01 -496.58c162.16,-60.1 187.29,-10.01 315.49,76.88 75.7,51.32 138.25,94.36 252.32,127.72 449.24,107.94 375.09,105.97 785.9,-1.07 -6.66,-11.05 -16.13,-22.66 -23.37,-30.86l-71.1 -75.3c-71.07,-60.33 -188.83,-81.61 -293.51,-266.35 -109.68,-193.56 -75.37,-415.62 -90.61,-645.62 -872.29,51.25 -237.1,132.79 -896.45,-264.43 13.82,-216.36 184.95,-469.98 344.64,-550.21 64.84,39.26 48.42,41.17 111.61,80.85 71.96,45.2 1.36,32.61 137.53,54.42 410.76,65.78 666.48,-151.11 831.11,-52.38l69.63 -28.67c59.26,-11.69 79.95,-6.32 143.93,-7.29 -48.49,173.8 31.08,46.44 -50.89,147.58 58.83,103.52 121.23,224.67 286.64,196.87 1060.03,-205.64 581.63,-302.51 905.46,-606.14 138.44,-129.82 421.39,-170.36 659.66,-122.7 230.64,46.15 229.87,206.49 391.89,348.9 943.3,-741.65 1049.63,-192.84 1211.41,-58.23 71.19,59.24 128.88,70.84 213.41,142.59 112.21,95.27 238.94,199.74 387.19,115.37 75.88,-43.16 66.62,-81.66 93.03,-96.9 152.74,97.42 99.28,214.59 330.49,51.9 368.39,-259.22 45.61,-210.23 892.26,-251.89 217.73,-10.72 289.43,-60.58 476.61,-82.22 192.93,-10.38 114.07,-47.55 189.6,96.09 137.24,261.03 135.49,404.53 144.3,693.99 -358.04,124.46 -689.26,64.17 -962.66,-106.42l-138.2 -2.75c9.74,273.5 136.22,449.37 106.25,791.81 -18.24,208.43 -333.42,525.92 -60.44,524.3 373.26,-38.39 442.23,-191.68 733.29,-258.67 -8.14,873.9 642.26,2292.31 1137.26,2929.9 281.87,363.08 653.82,719.31 996.17,1013.14 502.96,431.66 102.19,225.39 469.88,534.74 585.7,492.75 1895.27,2157.91 2190.29,2892.63 184.76,460.11 571.41,865.66 380.5,1580.47 -63.67,238.39 -239.51,512.28 -374.45,641.13 -490.11,467.99 -291.31,235.7 -638.94,356.09 117.96,94.19 426.85,144.76 632.6,129.34 233.47,-17.5 393.96,-92.46 572.3,-205.83 487.73,-310.06 522.11,-708.62 572.56,-1221.07 5.73,-58.17 -3.5,-39.09 15.57,-96.95l23.84 -48.63c63.11,-108.47 85.37,-41.08 134.53,-256.83 51.82,-227.39 72.5,-505.13 59.52,-746.29 -12.14,-225.68 -56.86,-474.94 -124.07,-685.2 -195.87,-612.69 -236.06,-294.08 -73.95,-561.72 -127.27,11.84 -24.15,9.94 -77.34,-76.84l-502.08 -727.68c-4.52,-5.03 -12.54,-11.94 -17.08,-16.87l-293.85 -352.05c-42.08,-55.7 -42.31,-53.55 -93.71,-91.85l-744.72 -687.88c-4.99,-4.55 -13.06,-11.52 -18.01,-16.02 -7.38,-6.7 -28.56,-24.77 -35.84,-31.52 -810.34,-750.9 -528.9,-420.45 -1080.32,-825.82l-790.12 -550.11c-4.95,-4.88 -12.26,-12.67 -16.95,-17.72 -320.65,-345.56 -87.08,-36.07 -302.9,-235.36 -308.61,-284.96 -534.47,-379.23 -784.84,-762.44l-652.66 -1032.31c-38.39,-74.85 3.65,38.81 -35.37,-81.03l-92.36 -339.75c-94.69,-309.65 -98.34,-356.01 -98.34,-674.67l186.55 -99.28c107.3,-87.77 41.23,-38.65 163.19,-117.31 91.66,-59.1 87.79,-30.28 148.65,-159.57 74.73,-158.8 -11.5,-53.4 170.11,-403.61 125.69,-242.37 158.22,-476.07 158.22,-730.62 59.94,26.39 54.84,79.62 55.62,107.7l-55.44 -215.88c-57.49,20.8 -30.43,27.49 -65.01,68.06l-83.24 93.5c-112.32,92.13 -12.38,95.05 -175.25,172.36 -41.65,-35.08 -28.29,-8.61 -78.14,-78.66 -59.57,-83.73 -47.89,-179.95 -260.97,-527.88 -148.64,-242.71 50.84,-623.4 12.47,-734.19 -326.1,-267.13 -218,-254.37 -751.51,-299.72 -31.74,-64.7 -29.89,-36.65 -72.06,-131.82 -59.42,21.32 -105.81,127.17 -102.03,173.8 8.74,107.5 85.51,37.19 45.93,316.23 -56.77,73.73 -105.35,114.85 -161.45,186.11l-536.96 509.64c-130.19,57.79 -162.68,3.35 -257.94,-25.2 -167.14,-50.09 -31.89,16.58 -209.71,40.3 -233.19,31.1 -118.99,-79.6 -316.77,-51.31 -113.95,16.3 -88.72,88.65 -247.57,68.11 -197.8,-25.56 -308.9,-226.39 -251.31,-442.58 43.1,-161.76 83.23,-370.58 151.75,-535.67 74.39,-179.25 303.16,-444.56 474.68,-574.02 211.65,-159.74 239.94,-17.29 253.58,5.1 -6.81,32.25 -9.44,16.12 13.87,29.33 64.89,45.45 89.68,-42.25 92.39,281.41 124.93,-42.64 109.84,-91.08 233.17,-111.12 145.36,-23.63 181.26,30.2 282.04,-8.94 61.8,-86.1 115.57,-250.81 69.05,-375.73 -247.87,-68.81 -261.45,231.18 -420.77,324.77 24.7,-106.72 60.8,-138.23 108.84,-242.5 66.2,-143.72 83.92,-146.54 87.04,-317.94 -106.06,-67.31 -167.6,-114.81 -305.29,-190.77 -101.8,-56.16 -238.89,-128.39 -313.27,-207.78 -184.43,-93.67 -527.02,26.58 -692.56,112.45 -131.19,68.06 -430.35,293.57 -532.72,301.76 22.3,-125.05 244.85,-240.38 352.61,-294.13 135.82,-67.76 378.82,-137 471.66,-240.11 -627.12,-39.47 -838.44,230.55 -957.34,190.12 28.13,-72.93 143.43,-148.77 215.87,-181.24 132.04,-59.19 214.7,-39.5 307.99,-152.32 -307.14,-8.8 -491.82,-31.35 -774.91,17.45 -320.14,55.19 -369.18,172.13 -602.38,219.78 -158.27,-72.06 -275.57,-199.38 -450.63,-268.61 -481.73,-190.51 -1068.9,-54.83 -1449.71,230.15 -6.44,4.83 -14.97,11.39 -21.59,16.07l-130.55 82.76c58.93,180.7 205.95,114.24 280.95,276.74 -520.78,-83.08 -283.64,-311.24 -755.32,73.78 -137.6,112.32 -118.44,105.37 -125.33,306.82 -164.34,-48.75 -251.75,-46.48 -268.65,301.49l-50.14 -49.02c-134.7,-108.38 41.68,-29.41 -267.65,-11.31l3.65 -233.53c-635.78,-36 -397.97,159.69 -621.85,27.63 -17.88,-94.32 21.8,-22.56 92.71,-153.18 -128.9,-174.53 -464.08,-420.51 -592.42,-473.5 33.74,204.4 173.2,169.43 91.41,826.86 -95.83,770.28 -98.35,413.85 -196.51,659.29z"/>
  <path class="fil4" d="M4277.93 8096.17c-31.66,18.63 -16.25,6.45 -56.61,40.86l-120.59 128.2c-1281.74,1504.44 -2674.62,2351.31 -3404.76,4025.89 -334.89,768.07 -494.08,1260.63 -418.53,2218.45l143.52 107.89c6.49,-10.06 23.81,-43.24 27.47,-50.41 145.08,-283.92 108.21,-131.39 268.35,-380.38 21.01,-32.67 46.34,-76.87 67.31,-114.44 3.86,-6.92 8.26,-16.64 12.15,-23.42l54.98 -83.53c82.52,-100.63 79.01,-55.25 177.96,-221.71l141.29 -171.12c360.59,-273.86 165.14,-224.82 473.22,-459.95 55.21,-42.14 66.05,-52.97 117.11,-103.81l912.88 -844.75c5.3,-4.6 12.49,-12.45 17.89,-16.83 5.33,-4.31 13.13,-11.36 18.67,-15.38 91.72,-66.46 93.48,-27.45 233.57,-127.97l881.88 -591.93c305.69,-232.42 1013.1,-752.58 1221.96,-1014.92l496.51 -763.1c4.14,-5.62 10.73,-13.9 15.06,-19.43 202.78,-259.08 57.43,-38.61 193.56,-356.98 30.75,-71.89 77.63,-176.68 109.43,-248.54l130.06 -648.54c-256.86,-280.33 -476.53,-106.73 -658.39,-761.95 -37.09,-133.62 -24.54,-316.66 -24.54,-496.71 -94.48,-189.77 120.4,129.03 -39.49,-48.87 -132.87,-147.83 -82.11,-117.33 -212.12,-131.12 -29.95,45.09 -25.77,67.76 -52.5,144.27 -29.27,83.78 -48.69,120.24 -78.74,180.26 -27.87,55.64 -54.56,114.03 -84.81,168.56l-212.46 262.61c-43.93,53.51 -62.92,78.43 -95.37,144.77 -85.94,175.74 -75.52,255.84 -255.92,274.03z"/>
  <path class="fil4" d="M2911.31 18135.38c-20.98,-456.89 244.3,-792.01 464.02,-1030.98 241.13,-262.28 387.85,-403.24 697.46,-544.48 187.4,-85.48 64.24,31.54 152.29,-108.24 -23.64,-53.35 23.91,-183.49 -353.31,-105.31 -307.25,63.68 -519.08,356.3 -700.74,589.29 -327.61,420.17 -456.03,626.62 -403.88,1322.24l-282.63 79.47 341.6 36.96c9.85,239.87 237.08,586.18 537.71,586.71 -173.05,-225.69 -328.84,-204.4 -377.23,-629.55 521.38,-253.58 819.52,-369.86 1212.44,-868.49 166.24,-210.97 320.91,-408 387.83,-644.71 109.18,-386.26 -7.05,-604 -407.57,-593.11 118.89,278.08 226.09,198.76 80.78,619.57 -63.56,184.07 -201.65,427.5 -306.28,551.73 -106.18,126.07 -293.27,289.44 -451.73,413.51 -171.37,134.17 -302.84,293.85 -590.76,325.39z"/>
  <path class="fil4" d="M17395.56 18142.25c-46.41,-97.87 -69.99,-49.53 -169.95,-144.22 88.68,-579.11 -91.05,-873.24 -374,-1265.35 -183.43,-254.19 -567.5,-786.56 -1065.82,-589.97 19.54,201.76 -20.22,125.98 201.33,202.48 422.13,145.77 1126.88,936.4 1120.68,1583.64 -297.33,-39.54 -812.98,-513.2 -995.96,-705.31 -135.38,-142.13 -251.98,-333.5 -335.75,-530.67 -168,-395.38 -69.2,-371.04 -10.45,-697.55 -848.24,52.59 -172.56,1289.61 782.68,1870.04 306.25,186.08 465.33,283.55 847.24,276.91z"/>
  <path class="fil4" d="M5162.36 6686.03c170.83,20.19 49.91,36.36 219.04,101.08l94.9 -99.35c443.33,-574.69 223.97,-335.87 39.87,-864.52 -70.91,-203.64 -41.91,-391.25 -103.39,-549.9 -175.95,93.4 -271.28,359.18 -293.22,570.37 -33.59,323.31 44.61,604.36 42.8,842.32z"/>
  <path class="fil4" d="M14722.38 6435.81c19.73,-252.66 7.73,-487.28 -75.17,-694.92 -33.37,-83.61 -76.97,-145.95 -134.49,-224.28 -27.3,-37.16 -45.97,-60.82 -79.31,-98.08 -33.79,-37.76 -19.78,-19.61 -54.48,-57.81 -64.07,-70.54 -8.39,-3.53 -58.39,-66.63 -107.14,2.51 -33.57,66.16 -100.05,-26.65 38.37,110.79 -161.11,491.48 -12.47,734.19 213.08,347.93 201.4,444.15 260.97,527.88 49.85,70.05 36.49,43.58 78.14,78.66 162.87,-77.31 62.93,-80.23 175.25,-172.36z"/>
  <path class="fil4" d="M4627.42 17788.72c-233.09,49.66 -911.89,635.02 -649.48,897.38 138.99,138.95 435.89,-193.4 472.69,-250.58 75.89,-117.92 183.23,-496.43 176.79,-646.8z"/>
  <path class="fil4" d="M16015.16 18488.13c219.18,-374.74 -415.58,-908.66 -602.52,-914.21 -41.26,241.54 188.16,909.66 602.52,914.21z"/>
  <path class="fil4" d="M12086.19 3687.14c74.38,79.39 211.47,151.62 313.27,207.78 137.69,75.96 199.23,123.46 305.29,190.77 -3.12,171.4 -20.84,174.22 -87.04,317.94 -48.04,104.27 -84.14,135.78 -108.84,242.5 159.32,-93.59 172.9,-393.58 420.77,-324.77 46.52,124.92 -7.25,289.63 -69.05,375.73 -100.78,39.14 -136.68,-14.69 -282.04,8.94 -123.33,20.04 -108.24,68.48 -233.17,111.12 -2.71,-323.66 -27.5,-235.96 -92.39,-281.41 -2.72,152.26 -23.97,295.67 65.61,406.97 1.25,-0.26 614.95,-349.99 428.03,101.27 -52.93,127.76 -47.13,56.55 -84.25,210.8 212.65,-35.76 279.79,-167.49 442.98,-142.77 412.67,62.5 -255.71,479.12 -394.99,730.91 -121.36,219.38 -172.46,34.36 -464.01,67.24 -283.04,31.91 -197.72,16.67 -359.09,-112.64 -71.9,75.15 -79.67,150.39 -218.43,162.59 -146.64,12.9 -338.54,-86.93 -174.84,-403.59 100.69,-194.75 21.93,-75.54 60.03,-319.29 35.63,-227.93 417.09,-701.61 685.09,-730.82 -13.64,-22.39 -41.93,-164.84 -253.58,-5.1 -171.52,129.46 -400.29,394.77 -474.68,574.02 -68.52,165.09 -108.65,373.91 -151.75,535.67 -57.59,216.19 53.51,417.02 251.31,442.58 158.85,20.54 133.62,-51.81 247.57,-68.11 197.78,-28.29 83.58,82.41 316.77,51.31 177.82,-23.72 42.57,-90.39 209.71,-40.3 95.26,28.55 127.75,82.99 257.94,25.2l536.96 -509.64c56.1,-71.26 104.68,-112.38 161.45,-186.11 39.58,-279.04 -37.19,-208.73 -45.93,-316.23 -3.78,-46.63 42.61,-152.48 102.03,-173.8 42.17,95.17 40.32,67.12 72.06,131.82 533.51,45.35 425.41,32.59 751.51,299.72 66.48,92.81 -7.09,29.16 100.05,26.65 150.89,-25.23 217.28,-1.61 262.71,117.56 -28.46,-334.95 -304.35,-1104 -128.35,-1382.97 146.21,-231.74 65.2,-219.01 84.95,-411.28 10.4,-101.31 245.12,-425.98 -9.63,-707.83 -51.72,-57.2 -43.2,-37.32 -79.5,-55.27 -123.01,-60.78 -118.21,-15.58 -178.66,-128.7 -45.66,-85.46 -6.97,-146.08 -148.71,-268.75 -184.76,-159.89 -204.76,-123 -438.88,-102.3l-41.06 -53.18c-39.44,-36.46 60.35,-79.24 -200.36,-57.51 -348.27,29.03 -327.93,113.58 -393.98,163l-136.33 59.41c-560.91,186.85 -590.8,804.19 -522.43,1326.74 -190.42,-18.97 -161.05,-30.55 -304.12,-105.87z"/>
  <path class="fil4" d="M7705.58 4857.07l-417.68 -120.85c-140.36,120.58 -125.7,81.84 -135.61,322.73 -241.47,-23.08 -277.78,-53.19 -451.38,100.78 16.34,204.48 306.52,460.46 460.38,589.2 139.39,116.64 76.57,152.47 175.16,220.01 98.4,67.4 185.16,22.49 266.4,-1.55 70.99,-21 -53.33,-46.92 141.31,-20.56 48.32,6.55 104.38,37.8 136.18,44.45 161.57,33.83 140.41,-30.48 301.47,-21.88 144.13,7.7 142.95,48.49 362.67,27.8 216.64,-269.94 103.17,-188.89 15.38,-684.69 -42.53,-240.18 -480.45,-864.49 -780.89,-845.04 -98.53,186.92 -62.51,108.46 -73.39,389.6z"/>
  <path class="fil4" d="M12252.99 4535.74c-23.31,-13.21 -20.68,2.92 -13.87,-29.33 -268,29.21 -649.46,502.89 -685.09,730.82 -38.1,243.75 40.66,124.54 -60.03,319.29 -163.7,316.66 28.2,416.49 174.84,403.59 138.76,-12.2 146.53,-87.44 218.43,-162.59 161.37,129.31 76.05,144.55 359.09,112.64 291.55,-32.88 342.65,152.14 464.01,-67.24 139.28,-251.79 807.66,-668.41 394.99,-730.91 -163.19,-24.72 -230.33,107.01 -442.98,142.77 37.12,-154.25 31.32,-83.04 84.25,-210.8 186.92,-451.26 -426.78,-101.53 -428.03,-101.27 -89.58,-111.3 -68.33,-254.71 -65.61,-406.97z"/>
  <path class="fil5" d="M13254.6 2858.37c-981.02,279.08 -601.26,1704.44 389.67,1480.12 979.37,-221.69 591.57,-1759.27 -389.67,-1480.12z"/>
  <path class="fil5" d="M6229.07 3038l81.91 44.06c93.18,45.79 147.82,38.97 173.6,172.09 23.48,121.24 -31.28,303.87 -139.65,358.51 -265.11,83.58 -183.24,-41.56 -380.94,-140.58 1.24,855.54 848.18,895.67 1171.88,419.5 385.41,-566.93 -408.44,-1301.67 -906.8,-853.58z"/>
  <path class="fil5" d="M13090.4 3061.57c217.54,200.11 -192.42,-106.58 169.62,88.27 388.19,208.94 -156.75,831.76 -345.69,346.03 -4.15,-10.66 -14.41,-44.98 -18.63,-55.6 -37.81,-95.21 4.58,-29.59 -37.94,-81.51 -304.76,669.43 575.09,1188.73 1045.44,689.41 488.45,-518.53 -176.95,-1378.97 -812.8,-986.6z"/>
  <path class="fil5" d="M6237.57 2815.61c81.85,-108.01 309.88,-114.36 439.91,-113.37 200.34,1.54 372.89,147.72 533.79,266.24 259.07,190.82 127.1,402.95 254.89,613.43 106.69,-69.53 45.06,9.58 107.9,-153.4 92.91,-240.95 70.38,-475.17 -67.92,-686.91 -249.57,-382.06 -360.13,-267.72 -613.55,-458.57 -260.32,-196.03 -433.88,-32.76 -609.51,-11.04 -128.81,15.93 -99.71,-31.31 -247.45,28.26 -335.83,135.41 -293.95,438.7 -154.17,700.13 214.22,-42.38 149.12,-150.23 356.11,-184.77z"/>
  <line class="fil5" x1="6237.57" y1="2815.61" x2="6237.57" y2= "2815.61" />
  <path class="fil5" d="M2967.03 2631.32l1714.75 605.79c934.68,275.73 5085.36,1611.66 5462.93,1606.37 422.56,-5.9 2989.35,-849.55 3586.5,-1033.77l3362.79 -1038.57c209.05,-99.51 137.8,-74.19 179.69,-105.61 -547.03,-227.25 -6878.9,-2134.71 -7127.82,-2134.32 -411.53,0.67 -2959.68,862.52 -3548.52,1028.65 -1091.04,307.84 -2598.87,908.4 -3630.32,1071.46z"/>
  <path class="fil1" d="M2967.03 2271.18l1714.75 605.78c934.68,275.73 5085.36,1611.67 5462.93,1606.38 422.56,-5.9 2989.35,-849.55 3586.5,-1033.78l3362.79 -1038.57c209.05,-99.51 137.8,-74.19 179.69,-105.6 -547.03,-227.25 -6878.9,-2134.71 -7127.82,-2134.32 -411.53,0.66 -2959.68,862.51 -3548.52,1028.65 -1091.04,307.84 -2598.87,908.39 -3630.32,1071.46z"/>
  <path class="fil6" d="M7213.39 9503.63l-753.75 399.89c-70.48,3657.7 181.71,3027.64 3685.68,3027.64 3253.78,0 3953.21,619.28 3661.38,-3049.27l-771.29 -382.06c-480.26,525.42 -354.43,648.59 -1326.77,647.34 -993.77,-1.3 -891.35,-165.19 -1367.85,-763.64l-390.95 -4.68c-312.05,364.38 -132.36,743.17 -1267.67,766.88 -941.67,19.67 -929.56,-61.72 -1416.33,-586.75 -11.34,-12.22 -34.02,-37.85 -52.45,-55.35z"/>
  <path class="fil6" d="M10775.57 9775.92c1937.68,640.72 2369.44,-512.15 1805.34,-1018.1 -0.22,-0.19 -2392.21,-899.86 -1805.34,1018.1z"/>
  <path class="fil6" d="M7572.65 9681.04c372.17,258.47 852.82,311.74 1486.25,225.31 804.34,-109.73 1120.58,-1557.73 -941.91,-1304.55 -637.2,78.23 -673.94,481.57 -544.34,1079.24z"/>
  <path class="fil0" d="M11983.9 9696.05c361.34,-485.5 121.48,-1050.67 -447.15,-838.94 -358.62,133.53 -525.09,1047.6 447.15,838.94z"/>
  <path class="fil0" d="M8958.48 9537.51l7.59 -548.86c-1166.09,-705.41 -1084.17,1390.32 -7.59,548.86z"/>
  <path class="fil6" d="M6476.1 9570.42c310.11,-106.96 601.05,-150.71 790.1,-461.51 234.78,-386.08 251.46,-636.54 743.22,-720.95 1877.7,-322.25 1689.9,698.31 2038.16,764 786.42,148.32 -60.34,-1036.38 2142.74,-771.57 1189.31,142.95 121.65,680.15 1612.34,1196.4l25.81 -803.45c-535.17,-6046.78 -8471.26,-3448.48 -7352.37,797.08z"/>
  <path class="fil4" d="M5412.78 5273.34c61.48,158.65 32.48,346.26 103.39,549.9 184.1,528.65 403.46,289.83 -39.87,864.52l-94.9 99.35c-169.13,-64.72 -48.21,-80.89 -219.04,-101.08 -77.19,203.02 -89.4,89.84 -240.1,381.22 -66.08,127.78 -122.11,221.87 -198.54,345.57l-445.79 683.35c180.4,-18.19 169.98,-98.29 255.92,-274.03 32.45,-66.34 51.44,-91.26 95.37,-144.77l212.46 -262.61c30.25,-54.53 56.94,-112.92 84.81,-168.56 30.05,-60.02 49.47,-96.48 78.74,-180.26 26.73,-76.51 22.55,-99.18 52.5,-144.27 130.01,13.79 79.25,-16.71 212.12,131.12 159.89,177.9 -54.99,-140.9 39.49,48.87 0,180.05 -12.55,363.09 24.54,496.71 181.86,655.22 401.53,481.62 658.39,761.95l-130.06 648.54c-31.8,71.86 -78.68,176.65 -109.43,248.54 -136.13,318.37 9.22,97.9 -193.56,356.98 -4.33,5.53 -10.92,13.81 -15.06,19.43l-496.51 763.1c-208.86,262.34 -916.27,782.5 -1221.96,1014.92l-881.88 591.93c-140.09,100.52 -141.85,61.51 -233.57,127.97 -5.54,4.02 -13.34,11.07 -18.67,15.38 -5.4,4.38 -12.59,12.23 -17.89,16.83l-912.88 844.75c-51.06,50.84 -61.9,61.67 -117.11,103.81 -308.08,235.13 -112.63,186.09 -473.22,459.95l-141.29 171.12c-98.95,166.46 -95.44,121.08 -177.96,221.71l-54.98 83.53c-3.89,6.78 -8.29,16.5 -12.15,23.42 -20.97,37.57 -46.3,81.77 -67.31,114.44 -160.14,248.99 -123.27,96.46 -268.35,380.38 -3.66,7.17 -20.98,40.35 -27.47,50.41l-143.52 -107.89c15.2,44.65 34.45,107.42 49.32,146.2 50.31,131.23 48.2,11.11 43.71,175.15 -1.24,45.19 -524.14,1225.01 -80.25,2049.02 199.97,371.22 -65.79,889.05 632.73,1368.83 554.04,380.54 870.07,168.72 1208.2,91.06 -230.91,-83.87 -286.79,28.69 -657.48,-388.03 -813.35,-914.33 -169.08,-1707.43 56.61,-2257.65 385.25,-939.24 1176.35,-1687.1 1695.55,-2369.19 159.42,-209.45 329.13,-328.73 527.31,-517.56 162.1,-154.46 269.92,-310.82 475.07,-529.84 338.09,-360.94 671.96,-616.26 996.79,-1052.41 361.22,-484.99 971.59,-1965.73 1021.18,-2511.92l34.01 -496.58c162.16,-60.1 187.29,-10.01 315.49,76.88 75.7,51.32 138.25,94.36 252.32,127.72 449.24,107.94 375.09,105.97 785.9,-1.07 -6.66,-11.05 -16.13,-22.66 -23.37,-30.86l-71.1 -75.3c-71.07,-60.33 -188.83,-81.61 -293.51,-266.35 -109.68,-193.56 -75.37,-415.62 -90.61,-645.62 -872.29,51.25 -237.1,132.79 -896.45,-264.43 13.82,-216.36 184.95,-469.98 344.64,-550.21 64.84,39.26 48.42,41.17 111.61,80.85 71.96,45.2 1.36,32.61 137.53,54.42 410.76,65.78 666.48,-151.11 831.11,-52.38l69.63 -28.67c59.26,-11.69 79.95,-6.32 143.93,-7.29 -48.49,173.8 31.08,46.44 -50.89,147.58 58.83,103.52 121.23,224.67 286.64,196.87 1060.03,-205.64 581.63,-302.51 905.46,-606.14 138.44,-129.82 421.39,-170.36 659.66,-122.7 230.64,46.15 229.87,206.49 391.89,348.9 943.3,-741.65 1049.63,-192.84 1211.41,-58.23 71.19,59.24 128.88,70.84 213.41,142.59 112.21,95.27 238.94,199.74 387.19,115.37 75.88,-43.16 66.62,-81.66 93.03,-96.9 152.74,97.42 99.28,214.59 330.49,51.9 368.39,-259.22 45.61,-210.23 892.26,-251.89 217.73,-10.72 289.43,-60.58 476.61,-82.22 192.93,-10.38 114.07,-47.55 189.6,96.09 137.24,261.03 135.49,404.53 144.3,693.99 -358.04,124.46 -689.26,64.17 -962.66,-106.42l-138.2 -2.75c9.74,273.5 136.22,449.37 106.25,791.81 -18.24,208.43 -333.42,525.92 -60.44,524.3 373.26,-38.39 442.23,-191.68 733.29,-258.67 -8.14,873.9 642.26,2292.31 1137.26,2929.9 281.87,363.08 653.82,719.31 996.17,1013.14 502.96,431.66 102.19,225.39 469.88,534.74 585.7,492.75 1895.27,2157.91 2190.29,2892.63 184.76,460.11 571.41,865.66 380.5,1580.47 -63.67,238.39 -239.51,512.28 -374.45,641.13 -490.11,467.99 -291.31,235.7 -638.94,356.09 117.96,94.19 426.85,144.76 632.6,129.34 233.47,-17.5 393.96,-92.46 572.3,-205.83 487.73,-310.06 522.11,-708.62 572.56,-1221.07 5.73,-58.17 -3.5,-39.09 15.57,-96.95l23.84 -48.63c63.11,-108.47 85.37,-41.08 134.53,-256.83 51.82,-227.39 72.5,-505.13 59.52,-746.29 -12.14,-225.68 -56.86,-474.94 -124.07,-685.2 -195.87,-612.69 -236.06,-294.08 -73.95,-561.72 -127.27,11.84 -24.15,9.94 -77.34,-76.84l-502.08 -727.68c-4.52,-5.03 -12.54,-11.94 -17.08,-16.87l-293.85 -352.05c-42.08,-55.7 -42.31,-53.55 -93.71,-91.85l-744.72 -687.88c-4.99,-4.55 -13.06,-11.52 -18.01,-16.02 -7.38,-6.7 -28.56,-24.77 -35.84,-31.52 -810.34,-750.9 -528.9,-420.45 -1080.32,-825.82l-790.12 -550.11c-4.95,-4.88 -12.26,-12.67 -16.95,-17.72 -320.65,-345.56 -87.08,-36.07 -302.9,-235.36 -308.61,-284.96 -534.47,-379.23 -784.84,-762.44l-652.66 -1032.31c-38.39,-74.85 3.65,38.81 -35.37,-81.03l-92.36 -339.75c-94.69,-309.65 -98.34,-356.01 -98.34,-674.67l186.55 -99.28c107.3,-87.77 41.23,-38.65 163.19,-117.31 91.66,-59.1 87.79,-30.28 148.65,-159.57 74.73,-158.8 -11.5,-53.4 170.11,-403.61 125.69,-242.37 158.22,-476.07 158.22,-730.62 59.94,26.39 54.84,79.62 55.62,107.7l-55.44 -215.88c-57.49,20.8 -30.43,27.49 -65.01,68.06l-83.24 93.5c-112.32,92.13 -12.38,95.05 -175.25,172.36 -41.65,-35.08 -28.29,-8.61 -78.14,-78.66 -59.57,-83.73 -47.89,-179.95 -260.97,-527.88 -148.64,-242.71 50.84,-623.4 12.47,-734.19 -326.1,-267.13 -218,-254.37 -751.51,-299.72 -31.74,-64.7 -29.89,-36.65 -72.06,-131.82 -59.42,21.32 -105.81,127.17 -102.03,173.8 8.74,107.5 85.51,37.19 45.93,316.23 -56.77,73.73 -105.35,114.85 -161.45,186.11l-536.96 509.64c-130.19,57.79 -162.68,3.35 -257.94,-25.2 -167.14,-50.09 -31.89,16.58 -209.71,40.3 -233.19,31.1 -118.99,-79.6 -316.77,-51.31 -113.95,16.3 -88.72,88.65 -247.57,68.11 -197.8,-25.56 -308.9,-226.39 -251.31,-442.58 43.1,-161.76 83.23,-370.58 151.75,-535.67 74.39,-179.25 303.16,-444.56 474.68,-574.02 211.65,-159.74 239.94,-17.29 253.58,5.1 -6.81,32.25 -9.44,16.12 13.87,29.33 64.89,45.45 89.68,-42.25 92.39,281.41 124.93,-42.64 109.84,-91.08 233.17,-111.12 145.36,-23.63 181.26,30.2 282.04,-8.94 61.8,-86.1 115.57,-250.81 69.05,-375.73 -247.87,-68.81 -261.45,231.18 -420.77,324.77 24.7,-106.72 60.8,-138.23 108.84,-242.5 66.2,-143.72 83.92,-146.54 87.04,-317.94 -106.06,-67.31 -167.6,-114.81 -305.29,-190.77 -101.8,-56.16 -238.89,-128.39 -313.27,-207.78 -184.43,-93.67 -527.02,26.58 -692.56,112.45 -131.19,68.06 -430.35,293.57 -532.72,301.76 22.3,-125.05 244.85,-240.38 352.61,-294.13 135.82,-67.76 378.82,-137 471.66,-240.11 -627.12,-39.47 -838.44,230.55 -957.34,190.12 28.13,-72.93 143.43,-148.77 215.87,-181.24 132.04,-59.19 214.7,-39.5 307.99,-152.32 -307.14,-8.8 -491.82,-31.35 -774.91,17.45 -320.14,55.19 -369.18,172.13 -602.38,219.78 -158.27,-72.06 -275.57,-199.38 -450.63,-268.61 -481.73,-190.51 -1068.9,-54.83 -1449.71,230.15 -6.44,4.83 -14.97,11.39 -21.59,16.07l-130.55 82.76c58.93,180.7 205.95,114.24 280.95,276.74 -520.78,-83.08 -283.64,-311.24 -755.32,73.78 -137.6,112.32 -118.44,105.37 -125.33,306.82 -164.34,-48.75 -251.75,-46.48 -268.65,301.49l-50.14 -49.02c-134.7,-108.38 41.68,-29.41 -267.65,-11.31l3.65 -233.53c-635.78,-36 -397.97,159.69 -621.85,27.63 -17.88,-94.32 21.8,-22.56 92.71,-153.18 -128.9,-174.53 -464.08,-420.51 -592.42,-473.5 33.74,204.4 173.2,169.43 91.41,826.86 -95.83,770.28 -98.35,413.85 -196.51,659.29z"/>
  <path class="fil4" d="M6848 8421.25c-114.07,-33.36 -176.62,-76.4 -252.32,-127.72 -128.19,-86.89 -153.34,-136.99 -315.49,-76.87l-34 496.56c-49.6,546.21 -659.97,2026.93 -1021.19,2511.93 -324.83,436.14 -658.71,691.47 -996.79,1052.4 -205.15,219.03 -312.98,375.4 -475.08,529.85 -198.17,188.84 -367.87,308.11 -527.3,517.56 -519.19,682.09 -1310.3,1429.95 -1695.55,2369.18 -225.69,550.24 -869.96,1343.34 -56.62,2257.66 370.7,416.72 426.58,304.16 657.49,388.03 -338.12,77.66 -654.15,289.47 -1208.19,-91.06 -698.53,-479.79 -432.77,-997.61 -632.74,-1368.83 -443.9,-824.01 79.01,-2003.84 80.24,-2049.01 4.51,-164.06 6.62,-43.93 -43.71,-175.17 -14.86,-38.77 -34.1,-101.54 -49.31,-146.18 -75.54,-957.82 83.65,-1450.39 418.53,-2218.46 730.14,-1674.58 2123.02,-2521.45 3404.76,-4025.9l120.59 -128.19c40.36,-34.41 24.95,-22.23 56.61,-40.86l445.8 -683.35c76.42,-123.7 132.46,-217.79 198.54,-345.56 150.69,-291.39 162.89,-178.21 240.09,-381.24 1.8,-237.95 -76.39,-519 -42.8,-842.31 21.94,-211.19 117.26,-476.98 293.22,-570.36 98.15,-245.45 100.68,110.99 196.5,-659.3 81.8,-657.43 -57.67,-622.45 -91.41,-826.86 128.35,53 463.53,298.96 592.44,473.51 -70.91,130.6 -110.59,58.86 -92.71,153.18 223.88,132.06 -13.93,-63.65 621.83,-27.64l-3.63 233.53c309.32,-18.09 132.94,-97.07 267.64,11.31l50.15 49.02c16.89,-347.97 104.31,-350.25 268.64,-301.49 6.89,-201.45 -12.27,-194.49 125.33,-306.82 471.68,-385.03 234.54,-156.86 755.33,-73.78 -75.02,-162.5 -222.03,-96.04 -280.96,-276.74l130.55 -82.76c6.62,-4.68 15.15,-11.23 21.59,-16.06 380.81,-284.98 967.97,-420.66 1449.71,-230.15 175.07,69.22 292.35,196.54 450.63,268.61 233.2,-47.66 282.23,-164.59 602.37,-219.79 283.11,-48.81 467.77,-26.26 774.92,-17.44 -93.29,112.82 -175.94,93.12 -307.99,152.31 -72.44,32.47 -187.74,108.3 -215.87,181.23 118.9,40.44 330.23,-229.58 957.34,-190.1 -92.84,103.09 -335.84,172.33 -471.67,240.09 -107.75,53.76 -330.3,169.09 -352.6,294.15 102.38,-8.19 401.53,-233.7 532.72,-301.76 165.55,-85.88 508.12,-206.14 692.56,-112.47 143.07,75.33 113.7,86.91 304.12,105.88 -68.37,-522.54 -38.47,-1139.89 522.44,-1326.73l136.31 -59.42c66.05,-49.42 45.72,-133.97 394,-163 260.7,-21.72 160.91,21.06 200.34,57.52l41.08 53.17c234.11,-20.69 254.12,-57.6 438.87,102.3 141.73,122.67 103.05,183.29 148.71,268.75 60.45,113.12 55.64,67.92 178.65,128.71 36.31,17.95 27.79,-1.94 79.51,55.27 254.76,281.84 20.03,606.52 9.62,707.82 -19.74,192.26 61.27,179.53 -84.94,411.29 -176,278.97 99.88,1048 128.35,1382.96 -45.43,-119.17 -111.83,-142.79 -262.72,-117.56 50.02,63.09 -5.67,-3.91 58.39,66.63 34.71,38.19 20.7,20.05 54.5,57.81 33.33,37.25 52,60.92 79.3,98.09 57.52,78.31 101.12,140.67 134.49,224.27 82.9,207.65 94.89,442.27 75.17,694.91l83.25 -93.48c34.57,-40.58 7.51,-47.27 65,-68.08l55.43 215.89c37.2,48.65 186.29,419.33 239.71,523 941.06,1826.35 3007.02,2850.84 4002.28,4811.53 303.48,597.88 802.13,1742.61 512.16,2588.08 -162.1,267.65 -121.9,-50.97 73.95,561.72 67.22,210.26 111.95,459.51 124.09,685.19 12.97,241.17 -7.72,518.91 -59.54,746.31 -49.15,215.74 -71.41,148.35 -134.52,256.83l-23.84 48.62c-19.08,57.85 -9.85,38.78 -15.58,96.95 -50.43,512.44 -84.81,911.02 -572.55,1221.07 -178.34,113.36 -338.83,188.33 -572.29,205.83 -205.75,15.42 -514.66,-35.15 -632.62,-129.35 347.64,-120.38 148.83,111.9 638.95,-356.08 134.94,-128.85 310.78,-402.74 374.46,-641.12 190.9,-714.81 -195.75,-1120.37 -380.51,-1580.48 -295.03,-734.72 -1604.59,-2399.88 -2190.28,-2892.63 -367.69,-309.35 33.07,-103.08 -469.88,-534.74 -342.37,-293.83 -714.3,-650.06 -996.18,-1013.14 -494.99,-637.58 -1145.39,-2056 -1137.26,-2929.89 -291.05,66.97 -360.03,220.27 -733.28,258.66l327.51 28.52c97.82,-39.94 199.34,-99.78 278.2,-89.49 258.51,1175.23 595.17,2072.49 1203.66,2861.78 214.36,278.06 521.37,494.33 740.34,769.3 363.19,456.08 853.37,848.65 1247.13,1305.19 693.46,804.06 1179.1,1393.69 1679.4,2382.14 261.61,516.84 519.27,901.13 229.84,1574.04 -84.95,197.54 -291.48,472.21 -417.92,583.51 -146.7,129.11 -625.05,232.73 -880.77,100.82 -60.24,-395.09 12.89,-472.33 -175.21,-827.09 -116.14,-219.07 -249.29,-444.54 -414.65,-632.38 -161.89,-183.9 -289.73,-340.42 -550.36,-459.49 -230.61,-105.37 -584.69,-219.33 -813.58,-48.46 -479.17,357.7 80.61,1053.6 295.75,1361.12 155.09,221.7 310.77,306.72 537.27,468.99 116.63,83.58 182.11,125.92 312.4,194.68 118.81,62.71 220.51,72.91 326.7,188.16 -1.5,315.49 -348.76,505.92 -704.05,400.44 -21.12,-265.94 258.92,-346.18 -187.66,-959.68 -135.9,-186.71 -541.8,-534.53 -928.92,-383.66 -259.89,615.58 413.74,1137.41 453.04,1374.44 -266.11,280.12 -917.98,113.57 -1009.88,-301.66 -35.56,-160.65 49.12,-159.96 75.01,-296.78l-5.01 -81.83c-0.85,-6.76 -4.02,-20.21 -8.5,-29.36 -519.63,58.57 -182.34,1461.13 940.23,1192.83 352.44,-84.23 340.12,-166.11 533.47,-345.22 284.9,15.04 523.01,178.36 821.92,37.33 286.48,-135.18 271.75,-288.37 436.13,-522.84 670.4,-94.34 964.28,273.82 1588.09,-3.96 204.28,-90.97 423.62,-224.58 537.72,-363.25 353.85,-430.07 199.21,-691.55 319.65,-1013.98 146.76,-392.83 265.37,-469.36 234.9,-1148.41 -46.04,-1026.49 -306.36,-635.27 -175.82,-1534.57 201.09,-1385.22 -653.73,-2919.27 -1531.88,-3825.45 -318.09,-328.24 -555.92,-625.47 -905.63,-928.26 -360.85,-312.47 -602.05,-579.26 -904.88,-891.91 -1043.22,-1077.06 -1472.45,-1971.61 -1851.06,-3540.69 -263.95,-1093.92 39.11,-747.79 116.62,-1445.75 162.08,-1459.63 -1764.48,-1963.95 -2375.45,-764.1 -143.25,281.3 -100.43,461.48 -189.86,744.42 -72.49,13.13 -297.8,-121.37 -453.05,-163.83 -1262.52,-345.28 -1658.03,106 -1813.82,98.66l-427.95 -232.99c-201.59,-76.07 -389.58,-64.12 -614.52,-61.45 -594.24,7.11 -581.95,176.94 -1035.76,291.65 -41.93,-576.64 -248.44,-985.73 -606.31,-1207.34 -876.86,-542.98 -2123.75,96.63 -1936.26,1253.61 61.96,382.35 418.54,894.96 75.03,1513.33 -128.79,231.82 -218.89,273.31 -320.25,586.9 -89.71,277.54 -34.8,523.17 -49.9,831.63 -35.1,716.86 -969.39,1709.74 -1430.58,2243.51 -81.54,94.36 -85.04,124.75 -197.17,234.39 -107.39,104.99 -151.1,140.67 -235.25,232l-471.35 463.49c-558.79,439.99 -1313.95,1266.2 -1705,1928.07 -450.82,763.01 -935.37,1664.8 -806.02,2778.27 46.87,403.41 146.45,342.03 2.85,730.36 -183.79,496.98 -193.54,1099.58 -68.32,1611.03 73.84,301.68 165.62,391.31 198.91,740.04 52.42,549.28 361.57,882.55 782.07,1052.34 606.36,244.84 960.39,-43.13 1606.26,17.89 172.09,188.29 210.84,429.4 460.65,537.43 401.44,173.6 556.37,-92.11 855.78,-52.27 144.26,214.12 147.32,277.19 483.81,369.74 1058.09,291.03 1523.2,-1218.3 912.43,-1172.67 63.08,251.37 227.23,404.37 -117.87,682.15 -178.37,143.57 -596.85,195.87 -802.01,9.24 14.07,-208.37 198.69,-320.33 324.77,-558 694.71,-1309.62 -773.77,-913.96 -1033.99,-23.42 -95.4,326.52 112.14,304.44 67.26,569.03 -353.73,96.51 -686.83,-155.84 -718.72,-440.38 210.95,-148.6 431.2,-191.12 627.79,-370.05 209.24,-190.46 355.64,-286.45 515.93,-492.57 142.72,-183.57 331.81,-359.09 419.49,-590.12 445.23,-1173.17 -1095.87,-1207.49 -1869.75,364.89 -131.31,266.84 -179.44,813.11 -198.38,837.73 -182.83,237.66 -889.95,93.99 -1284.65,-656.18 -309.49,-588.29 -6.77,-1069.16 234.67,-1614.96 267.22,-604.16 772.7,-1349.44 1199.07,-1856.05 318.09,-377.94 619.4,-738.72 987.31,-1060.59 220.45,-192.86 332.4,-296.83 525.36,-518.15 550.44,-631.36 946.23,-931.63 1373.43,-1685.82 71.76,-126.69 87.06,-207.42 155.95,-345.06 198.09,-395.88 354.13,-668.04 460.84,-1124.52 61.33,-262.32 110.38,-595.53 211.84,-821.86l386.16 -53.78zm10139.04 9325.41c-18.37,-427.78 -733.97,-1323.19 -1157.07,-1272.18 -17.78,430.6 798.66,1208.56 1157.07,1272.18zm-13986.33 224.85c258.84,-15.27 241.26,-105.11 403.68,-227.01 272.86,-204.76 809.71,-653.22 772.77,-1057.35 -421.99,-11.31 -1111.05,744.87 -1176.45,1284.36z"/>
  <path class="fil4" d="M4277.93 8096.17c-31.66,18.63 -16.25,6.45 -56.61,40.86l-120.59 128.2c-1281.74,1504.44 -2674.62,2351.31 -3404.76,4025.89 -334.89,768.07 -494.08,1260.63 -418.53,2218.45l143.52 107.89c6.49,-10.06 23.81,-43.24 27.47,-50.41 145.08,-283.92 108.21,-131.39 268.35,-380.38 21.01,-32.67 46.34,-76.87 67.31,-114.44 3.86,-6.92 8.26,-16.64 12.15,-23.42l54.98 -83.53c82.52,-100.63 79.01,-55.25 177.96,-221.71l141.29 -171.12c360.59,-273.86 165.14,-224.82 473.22,-459.95 55.21,-42.14 66.05,-52.97 117.11,-103.81l912.88 -844.75c5.3,-4.6 12.49,-12.45 17.89,-16.83 5.33,-4.31 13.13,-11.36 18.67,-15.38 91.72,-66.46 93.48,-27.45 233.57,-127.97l881.88 -591.93c305.69,-232.42 1013.1,-752.58 1221.96,-1014.92l496.51 -763.1c4.14,-5.62 10.73,-13.9 15.06,-19.43 202.78,-259.08 57.43,-38.61 193.56,-356.98 30.75,-71.89 77.63,-176.68 109.43,-248.54l130.06 -648.54c-256.86,-280.33 -476.53,-106.73 -658.39,-761.95 -37.09,-133.62 -24.54,-316.66 -24.54,-496.71 -94.48,-189.77 120.4,129.03 -39.49,-48.87 -132.87,-147.83 -82.11,-117.33 -212.12,-131.12 -29.95,45.09 -25.77,67.76 -52.5,144.27 -29.27,83.78 -48.69,120.24 -78.74,180.26 -27.87,55.64 -54.56,114.03 -84.81,168.56l-212.46 262.61c-43.93,53.51 -62.92,78.43 -95.37,144.77 -85.94,175.74 -75.52,255.84 -255.92,274.03z"/>
  <path class="fil4" d="M19680.22 14412.74c289.95,-845.47 -208.69,-1990.2 -512.18,-2588.08 -995.26,-1960.69 -3061.2,-2985.18 -4002.27,-4811.52 -53.42,-103.68 -202.51,-474.36 -239.7,-523.01 -0.78,-28.08 4.32,-81.31 -55.62,-107.7 0,254.55 -32.53,488.25 -158.22,730.62 -181.61,350.21 -95.38,244.81 -170.11,403.61 -60.86,129.29 -56.99,100.47 -148.65,159.57 -121.96,78.66 -55.89,29.54 -163.19,117.31l-186.55 99.28c0,318.66 3.65,365.02 98.34,674.67l92.36 339.75c39.02,119.84 -3.02,6.18 35.37,81.03l652.66 1032.31c250.37,383.21 476.23,477.48 784.84,762.44 215.82,199.29 -17.75,-110.2 302.9,235.36 4.69,5.05 12,12.84 16.95,17.72l790.12 550.11c551.42,405.37 269.98,74.92 1080.32,825.82 7.28,6.75 28.46,24.82 35.84,31.52 4.95,4.5 13.02,11.47 18.01,16.02l744.72 687.88c51.4,38.3 51.63,36.15 93.71,91.85l293.85 352.05c4.54,4.93 12.56,11.84 17.08,16.87l502.08 727.68c53.19,86.78 -49.93,88.68 77.34,76.84z"/>
  <path class="fil4" d="M12086.19 3687.14c74.38,79.39 211.47,151.62 313.27,207.78 137.69,75.96 199.23,123.46 305.29,190.77 -3.12,171.4 -20.84,174.22 -87.04,317.94 -48.04,104.27 -84.14,135.78 -108.84,242.5 159.32,-93.59 172.9,-393.58 420.77,-324.77 46.52,124.92 -7.25,289.63 -69.05,375.73 -100.78,39.14 -136.68,-14.69 -282.04,8.94 -123.33,20.04 -108.24,68.48 -233.17,111.12 -2.71,-323.66 -27.5,-235.96 -92.39,-281.41 -2.72,152.26 -23.97,295.67 65.61,406.97 1.25,-0.26 614.95,-349.99 428.03,101.27 -52.93,127.76 -47.13,56.55 -84.25,210.8 212.65,-35.76 279.79,-167.49 442.98,-142.77 412.67,62.5 -255.71,479.12 -394.99,730.91 -121.36,219.38 -172.46,34.36 -464.01,67.24 -283.04,31.91 -197.72,16.67 -359.09,-112.64 -71.9,75.15 -79.67,150.39 -218.43,162.59 -146.64,12.9 -338.54,-86.93 -174.84,-403.59 100.69,-194.75 21.93,-75.54 60.03,-319.29 35.63,-227.93 417.09,-701.61 685.09,-730.82 -13.64,-22.39 -41.93,-164.84 -253.58,-5.1 -171.52,129.46 -400.29,394.77 -474.68,574.02 -68.52,165.09 -108.65,373.91 -151.75,535.67 -57.59,216.19 53.51,417.02 251.31,442.58 158.85,20.54 133.62,-51.81 247.57,-68.11 197.78,-28.29 83.58,82.41 316.77,51.31 177.82,-23.72 42.57,-90.39 209.71,-40.3 95.26,28.55 127.75,82.99 257.94,25.2l536.96 -509.64c56.1,-71.26 104.68,-112.38 161.45,-186.11 39.58,-279.04 -37.19,-208.73 -45.93,-316.23 -3.78,-46.63 42.61,-152.48 102.03,-173.8 42.17,95.17 40.32,67.12 72.06,131.82 533.51,45.35 425.41,32.59 751.51,299.72 66.48,92.81 -7.09,29.16 100.05,26.65 150.89,-25.23 217.28,-1.61 262.71,117.56 -28.46,-334.95 -304.35,-1104 -128.35,-1382.97 146.21,-231.74 65.2,-219.01 84.95,-411.28 10.4,-101.31 245.12,-425.98 -9.63,-707.83 -51.72,-57.2 -43.2,-37.32 -79.5,-55.27 -123.01,-60.78 -118.21,-15.58 -178.66,-128.7 -45.66,-85.46 -6.97,-146.08 -148.71,-268.75 -184.76,-159.89 -204.76,-123 -438.88,-102.3l-41.06 -53.18c-39.44,-36.46 60.35,-79.24 -200.36,-57.51 -348.27,29.03 -327.93,113.58 -393.98,163l-136.33 59.41c-560.91,186.85 -590.8,804.19 -522.43,1326.74 -190.42,-18.97 -161.05,-30.55 -304.12,-105.87z"/>
  <path class="fil4" d="M7705.58 4857.07l-417.68 -120.85c-140.36,120.58 -125.7,81.84 -135.61,322.73 -241.47,-23.08 -277.78,-53.19 -451.38,100.78 16.34,204.48 306.52,460.46 460.38,589.2 139.39,116.64 76.57,152.47 175.16,220.01 98.4,67.4 185.16,22.49 266.4,-1.55 70.99,-21 -53.33,-46.92 141.31,-20.56 48.32,6.55 104.38,37.8 136.18,44.45 161.57,33.83 140.41,-30.48 301.47,-21.88 144.13,7.7 142.95,48.49 362.67,27.8 216.64,-269.94 103.17,-188.89 15.38,-684.69 -42.53,-240.18 -480.45,-864.49 -780.89,-845.04 -98.53,186.92 -62.51,108.46 -73.39,389.6z"/>
  <path class="fil4" d="M13254.6 2858.37c-981.02,279.08 -601.26,1704.44 389.67,1480.12 979.37,-221.69 591.57,-1759.27 -389.67,-1480.12z"/>
  <path class="fil4" d="M12252.99 4535.74c-23.31,-13.21 -20.68,2.92 -13.87,-29.33 -268,29.21 -649.46,502.89 -685.09,730.82 -38.1,243.75 40.66,124.54 -60.03,319.29 -163.7,316.66 28.2,416.49 174.84,403.59 138.76,-12.2 146.53,-87.44 218.43,-162.59 161.37,129.31 76.05,144.55 359.09,112.64 291.55,-32.88 342.65,152.14 464.01,-67.24 139.28,-251.79 807.66,-668.41 394.99,-730.91 -163.19,-24.72 -230.33,107.01 -442.98,142.77 37.12,-154.25 31.32,-83.04 84.25,-210.8 186.92,-451.26 -426.78,-101.53 -428.03,-101.27 -89.58,-111.3 -68.33,-254.71 -65.61,-406.97z"/>
  <path class="fil4" d="M2911.31 18135.38c-20.98,-456.89 244.3,-792.01 464.02,-1030.98 241.13,-262.28 387.85,-403.24 697.46,-544.48 187.4,-85.48 64.24,31.54 152.29,-108.24 -23.64,-53.35 23.91,-183.49 -353.31,-105.31 -307.25,63.68 -519.08,356.3 -700.74,589.29 -327.61,420.17 -456.03,626.62 -403.88,1322.24l-282.63 79.47 341.6 36.96c9.85,239.87 237.08,586.18 537.71,586.71 -173.05,-225.69 -328.84,-204.4 -377.23,-629.55 521.38,-253.58 819.52,-369.86 1212.44,-868.49 166.24,-210.97 320.91,-408 387.83,-644.71 109.18,-386.26 -7.05,-604 -407.57,-593.11 118.89,278.08 226.09,198.76 80.78,619.57 -63.56,184.07 -201.65,427.5 -306.28,551.73 -106.18,126.07 -293.27,289.44 -451.73,413.51 -171.37,134.17 -302.84,293.85 -590.76,325.39z"/>
  <path class="fil4" d="M17395.56 18142.25c-46.41,-97.87 -69.99,-49.53 -169.95,-144.22 88.68,-579.11 -91.05,-873.24 -374,-1265.35 -183.43,-254.19 -567.5,-786.56 -1065.82,-589.97 19.54,201.76 -20.22,125.98 201.33,202.48 422.13,145.77 1126.88,936.4 1120.68,1583.64 -297.33,-39.54 -812.98,-513.2 -995.96,-705.31 -135.38,-142.13 -251.98,-333.5 -335.75,-530.67 -168,-395.38 -69.2,-371.04 -10.45,-697.55 -848.24,52.59 -172.56,1289.61 782.68,1870.04 306.25,186.08 465.33,283.55 847.24,276.91z"/>
  <path class="fil2" d="M6229.07 3038l81.91 44.06c93.18,45.79 147.82,38.97 173.6,172.09 23.48,121.24 -31.28,303.87 -139.65,358.51 -265.11,83.58 -183.24,-41.56 -380.94,-140.58 1.24,855.54 848.18,895.67 1171.88,419.5 385.41,-566.93 -408.44,-1301.67 -906.8,-853.58z"/>
  <path class="fil2" d="M13090.4 3061.57c217.54,200.11 -192.42,-106.58 169.62,88.27 388.19,208.94 -156.75,831.76 -345.69,346.03 -4.15,-10.66 -14.41,-44.98 -18.63,-55.6 -37.81,-95.21 4.58,-29.59 -37.94,-81.51 -304.76,669.43 575.09,1188.73 1045.44,689.41 488.45,-518.53 -176.95,-1378.97 -812.8,-986.6z"/>
  <path class="fil4" d="M6237.57 2815.61c81.85,-108.01 309.88,-114.36 439.91,-113.37 200.34,1.54 372.89,147.72 533.79,266.24 259.07,190.82 127.1,402.95 254.89,613.43 106.69,-69.53 45.06,9.58 107.9,-153.4 92.91,-240.95 70.38,-475.17 -67.92,-686.91 -249.57,-382.06 -360.13,-267.72 -613.55,-458.57 -260.32,-196.03 -433.88,-32.76 -609.51,-11.04 -128.81,15.93 -99.71,-31.31 -247.45,28.26 -335.83,135.41 -293.95,438.7 -154.17,700.13 214.22,-42.38 149.12,-150.23 356.11,-184.77z"/>
  <path class="fil4" d="M5162.36 6686.03c170.83,20.19 49.91,36.36 219.04,101.08l94.9 -99.35c443.33,-574.69 223.97,-335.87 39.87,-864.52 -70.91,-203.64 -41.91,-391.25 -103.39,-549.9 -175.95,93.4 -271.28,359.18 -293.22,570.37 -33.59,323.31 44.61,604.36 42.8,842.32z"/>
  <path class="fil4" d="M14722.38 6435.81c19.73,-252.66 7.73,-487.28 -75.17,-694.92 -33.37,-83.61 -76.97,-145.95 -134.49,-224.28 -27.3,-37.16 -45.97,-60.82 -79.31,-98.08 -33.79,-37.76 -19.78,-19.61 -54.48,-57.81 -64.07,-70.54 -8.39,-3.53 -58.39,-66.63 -107.14,2.51 -33.57,66.16 -100.05,-26.65 38.37,110.79 -161.11,491.48 -12.47,734.19 213.08,347.93 201.4,444.15 260.97,527.88 49.85,70.05 36.49,43.58 78.14,78.66 162.87,-77.31 62.93,-80.23 175.25,-172.36z"/>
  <path class="fil4" d="M4627.42 17788.72c-233.09,49.66 -911.89,635.02 -649.48,897.38 138.99,138.95 435.89,-193.4 472.69,-250.58 75.89,-117.92 183.23,-496.43 176.79,-646.8z"/>
  <path class="fil4" d="M16015.16 18488.13c219.18,-374.74 -415.58,-908.66 -602.52,-914.21 -41.26,241.54 188.16,909.66 602.52,914.21z"/>
  <line class="fil4" x1="6237.57" y1="2815.61" x2="6237.57" y2= "2815.61" />
 </g>
</svg>
