<?xml version="1.0" encoding="UTF-8"?>
<!DOCTYPE svg PUBLIC "-//W3C//DTD SVG 1.1//EN" "http://www.w3.org/Graphics/SVG/1.1/DTD/svg11.dtd">
<!-- Creator: CorelDRAW 2017 -->
<svg xmlns="http://www.w3.org/2000/svg" xml:space="preserve" width="200mm" height="200mm" version="1.1" style="shape-rendering:geometricPrecision; text-rendering:geometricPrecision; image-rendering:optimizeQuality; fill-rule:evenodd; clip-rule:evenodd"
viewBox="0 0 20000 20000"
 xmlns:xlink="http://www.w3.org/1999/xlink">
 <defs>
  <style type="text/css">
   <![CDATA[
    .fil5 {fill:#FEFEFE}
    .fil4 {fill:#FEFEFE}
    .fil0 {fill:#010101}
    .fil3 {fill:#141414}
    .fil1 {fill:#91191B}
    .fil6 {fill:#91191B}
    .fil2 {fill:#F1F1F3}
   ]]>
  </style>
 </defs>
 <g id="Capa_x0020_1">
  <metadata id="CorelCorpID_0Corel-Layer"/>
  <path class="fil0" d="M6172.4 11046.06c184.29,201.92 -42.29,11.69 162.14,130.38 16.04,9.32 121.64,48.71 147.94,62.47 7.22,3187.22 182.4,2884.72 3778.02,2884.98 3808.89,0.27 3690.74,188.56 3762.91,-2884.98l303.06 -65.63c-204.08,-459.33 -294.74,39.13 -306.72,-647.34l-806.7 -3508.16c-800.66,175.45 -2406.44,-643.23 -2954.02,-639.44 -487.62,3.39 -2039.51,807.01 -2768.98,636.51l-1006.41 2798.29c2.07,701.56 174.01,967.96 -311.24,1232.92z"/>
  <path class="fil1" d="M7604.92 19708.09c5.88,-588.48 -124.42,-2057.73 71.01,-2494.12 284.47,155.74 159.62,499.95 159.67,1243.85 0.02,464.67 -34.79,946.48 34.48,1402.99 716.76,165.07 3986.97,199.1 4707.55,15.66 26.02,-620.51 -134.3,-2223.1 89.18,-2662.45 282.19,155.49 165.35,322.68 160.02,1154.62 -2.93,461.16 0.65,922.08 -3.41,1383.28 1095.91,-431.77 1189.33,-1402.4 1189.33,-2809.23 0,-1384.47 -313.26,-2186.97 -1345.94,-2556.42 -563.67,338.42 -808.32,540.75 -1137.6,1150.53 -264.7,490.23 -607.04,1055.82 -806.17,1514.27l-245.88 -690.49c-64.58,-490.86 20.89,-260.94 241.97,-665.53 -122.35,-217.64 -198.39,-288.2 -354.65,-435.34 -214.35,50.15 -300.32,60.08 -426.08,214.67 -274.29,337.16 2.19,436.67 5.68,442.96 127.63,229.26 222.85,-110.96 103.63,524.61 -45.88,244.62 -101.18,347.82 -139.58,612.3 -541.01,-585.57 -1109.91,-2457.41 -1999.95,-2642.54 -312.68,-65.05 -814.86,404.21 -938.98,577.31 -575.04,802.05 -1001.76,4033.46 635.72,4719.07z"/>
  <path class="fil2" d="M7586.83 10584.17l-687.36 364.67c-64.27,3335.52 165.7,2760.96 3361.03,2760.96 2967.18,0 3604.99,564.73 3338.87,-2780.69l-703.35 -348.4c-437.96,479.14 -323.21,591.46 -1209.9,590.32 -906.24,-1.18 -812.84,-150.64 -1247.36,-696.37l-356.52 -4.27c-284.56,332.28 -120.7,677.7 -1156.01,699.33 -858.72,17.94 -847.68,-56.29 -1291.58,-535.07 -10.33,-11.14 -31.02,-34.51 -47.82,-50.48z"/>
  <path class="fil2" d="M6914.48 10645.08c282.79,-97.54 548.11,-137.43 720.5,-420.86 214.11,-352.06 229.31,-580.47 677.76,-657.44 1712.31,-293.87 1541.05,636.8 1858.63,696.7 717.15,135.26 -55.02,-945.09 1954,-703.6 1084.55,130.36 110.93,620.23 1470.31,1091.01l23.55 -732.68c-488.03,-5514.15 -7725.08,-3144.73 -6704.75,726.87z"/>
  <path class="fil2" d="M10835.24 10832.48c1767,584.29 2160.72,-467.04 1646.32,-928.42 -0.21,-0.17 -2181.5,-820.59 -1646.32,928.42z"/>
  <path class="fil2" d="M7914.44 10745.96c339.39,235.7 777.7,284.28 1355.34,205.46 733.49,-100.07 1021.87,-1420.52 -858.94,-1189.64 -581.08,71.34 -614.58,439.15 -496.4,984.18z"/>
  <path class="fil0" d="M11937.14 10759.65c329.5,-442.74 110.78,-958.13 -407.78,-765.04 -327.03,121.76 -478.83,955.32 407.78,765.04z"/>
  <path class="fil0" d="M9178.2 10615.07l6.93 -500.51c-1063.38,-643.28 -988.68,1267.85 -6.93,500.51z"/>
  <path class="fil3" d="M8531.73 3693.04c-351.98,-132.8 -1937.98,-1925.89 -3262.04,-1712.1 -777.44,125.52 -3048.24,1177.34 -3381.96,1543.1 134.89,116.37 412.89,218.48 604.7,332.7 220.34,131.2 379.83,234.38 584.81,370.32 225.31,149.42 343.56,230.49 553.72,400.75 670.5,543.23 1869.23,1736.84 2146.97,2608.04 -116.74,78.24 -2570.45,763.35 -3578.8,1475.47 897.42,325.98 3208.68,591.69 3697.37,1291.56l-1442.22 874.52c245.72,32.66 3325.44,422.67 3495.45,282.35 -90.27,-107.06 -787.81,-301.65 -1050.01,-731.9 -190.14,-312 -295.97,-1246.62 -43.12,-1479.51 179.49,51.09 469.8,603.52 795.16,792.34l-90.27 -663.82c222.57,94.51 271.92,229.52 448.53,397.17 107.13,101.69 76.27,80.43 195,152.49 -44.12,-952.28 9.56,-1551.16 802.14,-1812.35 -21.06,299.91 -110.03,1805.72 142.18,2101.38 112.02,-344.76 632.36,-1195.45 950.22,-1451.92 297.79,-240.29 992.03,-945.92 1319.06,-1067.35 146.49,1091.49 -107.61,1677.9 -277.76,2625.54 179.05,-115.11 702.88,-824.87 808.26,-982l456.92 -869.09c130.09,-240.48 102.33,-216.74 216.61,-236.07 223.8,443.71 -103.98,1120.75 -187.3,1573.4 298.77,-155.93 256.87,-273.24 513.11,-313.19l-158.72 533.82c322.17,-164.11 610.72,-512.72 839.73,-618 104.81,260.55 -39.91,1206.91 -227.06,1436.42 -583.66,715.71 -788.42,353.36 -948.31,960.56l1992.04 -68.01c-202.04,-229.69 -569.98,-242.39 -748.33,-438.98l2562.19 -778.66c-191.19,-152.73 -532.97,-189.24 -782.13,-256.58 -287.98,-77.84 -567.56,-161.3 -845.88,-224.53 109.18,-163.67 247.65,-217.47 412.88,-309.11l2843.05 -1608.39c15.53,-9.26 91.09,-57.02 99.27,-63.52 125.13,-99.1 49.87,-28.23 125.07,-125.76l-2373.49 -130.92c112.37,-377.26 976.55,-932.53 1333.76,-1314.8l-3261.52 94.63 -114.08 -267.29c-52.84,-127.46 -95.37,-205.86 -166.23,-309.64 -394.01,-577.03 -1098.61,-1007.25 -1789.87,-1229.18 -41.77,-1057.38 -311.8,-2653.03 -870.77,-3269.21 -509.7,-561.86 -1943.75,-1057.07 -2975.49,-1207.72 132.53,550.7 408.45,1046.14 535.28,1692.09 150.04,764.04 58.25,1258.9 101.88,2000.95z"/>
  <path class="fil4" d="M15607.13 8475.86c266.78,-858.23 -117.62,-1196.76 -141.27,-1600.34 -34.66,-590.93 -6.36,-1408.74 6.77,-2013.95 -1021.18,185.56 -206.07,743.04 -493.01,2177.96 -26.35,131.8 -792.6,1861.31 627.51,1436.33z"/>
  <path class="fil5" d="M3714.5 4216.15l1563.71 552.43c852.35,251.44 4637.42,1469.71 4981.73,1464.88 385.34,-5.38 2726.04,-774.72 3270.59,-942.72l3066.59 -947.09c190.63,-90.74 125.66,-67.65 163.85,-96.3 -498.84,-207.23 -6272.98,-1946.67 -6499.96,-1946.32 -375.29,0.61 -2698.99,786.54 -3235.96,938.04 -994.93,280.73 -2369.95,828.38 -3310.55,977.08z"/>
  <path class="fil1" d="M3714.5 3912.99l1563.71 552.43c852.35,251.45 4637.42,1469.71 4981.73,1464.88 385.34,-5.38 2726.04,-774.72 3270.59,-942.72l3066.59 -947.08c190.63,-90.75 125.66,-67.66 163.85,-96.31 -498.84,-207.23 -6272.98,-1946.67 -6499.96,-1946.32 -375.29,0.61 -2698.99,786.54 -3235.96,938.05 -994.93,280.72 -2369.95,828.37 -3310.55,977.07z"/>
  <path class="fil6" d="M15733.45 8374.81c266.78,-858.24 -117.63,-1196.76 -141.27,-1600.34 -34.66,-590.93 -6.37,-1408.75 6.77,-2013.95 -1021.19,185.56 -206.07,743.04 -493.01,2177.96 -26.35,131.8 -792.61,1861.31 627.51,1436.33z"/>
 </g>
</svg>
