<?xml version="1.0" encoding="UTF-8"?>
<!DOCTYPE svg PUBLIC "-//W3C//DTD SVG 1.1//EN" "http://www.w3.org/Graphics/SVG/1.1/DTD/svg11.dtd">
<!-- Creator: CorelDRAW 2017 -->
<svg xmlns="http://www.w3.org/2000/svg" xml:space="preserve" width="200mm" height="200mm" version="1.1" style="shape-rendering:geometricPrecision; text-rendering:geometricPrecision; image-rendering:optimizeQuality; fill-rule:evenodd; clip-rule:evenodd"
viewBox="0 0 20000 20000"
 xmlns:xlink="http://www.w3.org/1999/xlink">
 <defs>
  <style type="text/css">
   <![CDATA[
    .str0 {stroke:#373435;stroke-width:20;stroke-miterlimit:22.9256}
    .fil0 {fill:none}
    .fil4 {fill:#FEFEFE}
    .fil1 {fill:#F4EA25}
    .fil2 {fill:#33594C}
    .fil3 {fill:#165344}
    .fil5 {fill:#165344;fill-rule:nonzero}
   ]]>
  </style>
 </defs>
 <g id="Capa_x0020_1">
  <metadata id="CorelCorpID_0Corel-Layer"/>
  <rect class="fil0 str0" width="20000" height="20000"/>
  <path class="fil1" d="M14100.08 9891.19c-3.67,-112.85 70.44,-213.2 117.63,-294.6 85.81,-148 378.13,-750.48 445.88,-808.59 63.93,101.08 -0.87,205.8 -20.31,316.42 -18.05,102.73 -26.35,256.67 -47.88,352.71 -110.12,491.23 46.67,456.65 -495.32,434.06zm-1519.94 1248.02l557.81 3.77c271.59,-0.05 271.3,11.6 366.22,-193.44l205.52 -358.61 632.36 -4.02c30.67,185.36 -81.34,318.55 -65.22,552.16l780.48 6.94c248.73,0.05 182.56,-23.46 259.1,-718.36 60.11,-545.78 111.85,-747.07 152.39,-1321.91 25.08,-355.12 173.5,-1024.73 148.71,-1344.86l-929.32 -8.49c-423.92,-0.67 -316.77,9.59 -481.51,305.01l-1513.53 2819.95c-53.69,93.66 -116.13,141.77 -113.01,261.86zm4166.73 -2243.16c-4.93,-75.66 -102.69,-1221.83 -157.91,-1123.2 -2.99,5.35 -12.99,-6.57 -17.29,-7.75l-39.32 -10.8c-21.33,-3.55 -72.22,-4.14 -95.49,-4.27l-645.59 3.76c-26.71,208.89 28.72,296.83 52.33,455.93 24.64,165.96 25.59,307.51 59.21,465.71l134.09 898.37c14.62,204.56 -62.02,270.43 -106.34,404.17 -77.6,234.17 -384.67,1023.4 -376.58,1163.24l955.17 3.68c107.78,-113.04 389.46,-1030.3 507.98,-1237.67 32.86,-57.47 72.51,-101.89 113.65,-179.76 33.44,-63.25 73.12,-121.84 112.03,-182.57 197.55,-308.37 538.29,-695.4 838.6,-908.06 122.52,-86.79 520.85,-303.92 392.04,22.75 -39.85,101.02 -46.56,65.6 -44.4,201.88 94.96,-16.47 954.9,-334.22 1112.61,-444.54 -18.7,-125.12 -359.34,-626.92 -466.19,-793.8 -83.5,-130.44 -59.29,-172.76 -179.4,-254.15 -229.82,397.53 113.82,363.96 -516.94,379.15 -330.21,7.93 -494.31,101.52 -698.27,239.62 -290.15,196.43 -497.7,417.51 -700.14,705.02 -101.98,144.81 -107.14,224.12 -233.85,203.29zm-5565.94 1094.33l-12.46 -72.29c-187.5,-0.2 -473.16,36.8 -540.36,-73.93l98.43 -762.65c18.79,-15.71 59.31,-19.62 74.34,-24.6l94.13 -465.66c15.23,-80.7 28.77,-82.45 41.76,-155.2 11.02,-61.86 7.71,-119.25 20.28,-182.38 12.92,-64.72 25.2,-75.55 40.69,-151.63 5.58,-27.42 53.41,-296.39 24.29,-325.76 -113.44,-64.19 -768.65,-39.71 -897,11.85l-140.42 1461.1c-9.12,62.49 -36.41,120.48 -49.5,189.21l-71.25 873.04c-17.37,274.9 -100.86,561.75 -83.25,822.56 140.72,24.41 755.17,36.07 846.78,-8.33 77.42,-36.18 40.66,-23.35 87.42,-113.29l264.99 -572.93c50.57,-99.84 193.53,-377.53 201.13,-449.11zm1275.91 -843.16c15.54,109.93 6.13,56.47 -8.03,131.16 125.58,13.68 321.2,53.18 296.99,194.36 -0.91,5.4 -3.03,13.75 -4.28,19.23 -14.09,61.59 -25.56,12.04 -18.09,78.41 6.55,58.16 34.47,136.03 1.21,231.71l-33.49 64.53c-27.35,47.44 1.75,13.12 -35.06,56.92 -91.29,3.46 -232.36,29.46 -315.22,-4.51 -97.05,-39.79 -6.15,-76.89 -211.3,-95.56l-49.62 -3.92c-25.51,-42.56 -13.06,-34.08 -1.66,-49.21 -153.57,164.43 -165.77,190.81 -448.1,212.28 24.24,64.36 24.34,89.14 9.01,181.59 -208.05,53.03 -128.19,211.45 -184.21,394 -38.75,126.3 -84.26,329.12 -80.95,503.1 132.59,34.13 621.73,28.69 754.99,-8.28 134.75,-176.58 341.76,-706.23 443.07,-790.25 0,-110.04 -15.96,-1.54 62.69,-34.21 62.96,-21.73 339.34,-617.18 424.97,-757.11l61.66 -136.52c55.15,-91.13 40.64,-22.53 97.63,-144.98l583.86 -1088.77c39.34,-82.19 141.78,-229.57 147.52,-345.5l-859.01 -2.33c-149.32,269.39 -335.64,734.59 -488.11,1041.68 -49.77,100.24 -157.8,245.35 -146.47,352.18zm-1298.77 -164.27l64.07 24.17c81.42,26.5 174.29,37.43 124.56,131.54 -2.17,4.09 -5.56,12 -8.28,16.15 -96.03,146.61 -304.49,-44.4 -359.07,197.27 36.87,29.3 21.69,21.9 75.82,32.44 177.69,34.59 -14.11,-36.72 323.38,76.76 34.41,-92.65 96.36,-262.67 164.71,-350.32l94.65 -53.11c5.6,-1.08 15.72,-2.11 23.46,-0.94 50.35,124.01 -0.02,94.56 0.03,221.47 341.11,1.36 344.89,93.96 418.42,133.88 82.36,-111.99 129.43,-590 163.31,-770.42 24.49,-130.56 37.2,-270.63 63.09,-400.91 29.25,-147.13 62.76,-267.3 54.74,-421.75l-631.82 -0.14c-168.81,274.63 -50.44,71.19 -139.37,290.56 -1.98,4.85 -58.67,70.23 -78.36,105.59l-353.34 767.76zm353.34 -767.76c19.69,-35.36 76.38,-100.74 78.36,-105.59 88.93,-219.37 -29.44,-15.93 139.37,-290.56l631.82 0.14c8.02,154.45 -25.49,274.62 -54.74,421.75 -25.89,130.28 -38.6,270.35 -63.09,400.91 -33.88,180.42 -80.95,658.43 -163.31,770.42 -73.53,-39.92 -77.31,-132.52 -418.42,-133.88 -0.05,-126.91 50.32,-97.46 -0.03,-221.47 -7.74,-1.17 -17.86,-0.14 -23.46,0.94l-94.65 53.11c-68.35,87.65 -130.3,257.67 -164.71,350.32 -337.49,-113.48 -145.69,-42.17 -323.38,-76.76 -54.13,-10.54 -38.95,-3.14 -75.82,-32.44 54.58,-241.67 263.04,-50.66 359.07,-197.27 2.72,-4.15 6.11,-12.06 8.28,-16.15 49.73,-94.11 -43.14,-105.04 -124.56,-131.54l-64.07 -24.17 353.34 -767.76zm-710.53 841.72c-15.03,4.98 -55.55,8.89 -74.34,24.6l-98.43 762.65c67.2,110.73 352.86,73.73 540.36,73.93l12.46 72.29c259.12,-197.61 137.82,-398.13 382.12,-781.49 86.66,119.15 -3.39,210.64 -3.46,210.82 -34.46,90.17 -22.55,169.51 -33.65,272.89 -13.39,124.42 -46.34,348.73 -73.89,492.15 -24.13,125.77 -85.94,327.79 -102.38,449.01l-33.91 493.31c115.75,53.61 669.5,28.54 837.88,13.27 80.31,-106.21 457.22,-783.89 481.15,-911.77 -78.65,32.67 -62.69,-75.83 -62.69,34.21 -101.31,84.02 -308.32,613.67 -443.07,790.25 -133.26,36.97 -622.4,42.41 -754.99,8.28 -3.31,-173.98 42.2,-376.8 80.95,-503.1 56.02,-182.55 -23.84,-340.97 184.21,-394 15.33,-92.45 15.23,-117.23 -9.01,-181.59 282.33,-21.47 294.53,-47.85 448.1,-212.28 -11.4,15.13 -23.85,6.65 1.66,49.21l49.62 3.92c205.15,18.67 114.25,55.77 211.3,95.56 82.86,33.97 223.93,7.97 315.22,4.51 36.81,-43.8 7.71,-9.48 35.06,-56.92l33.49 -64.53c33.26,-95.68 5.34,-173.55 -1.21,-231.71 -7.47,-66.37 4,-16.82 18.09,-78.41 1.25,-5.48 3.37,-13.83 4.28,-19.23 24.21,-141.18 -171.41,-180.68 -296.99,-194.36 14.16,-74.69 23.57,-21.23 8.03,-131.16 -166.53,92.98 -48.86,270.61 -269.66,369.39 -1.36,-130.9 2.19,-134.09 32.91,-239.46l158.74 -1088.14c18.5,-71.59 75.91,-233.69 65.55,-361.26l-12.68 -58.38c-132.9,-58.79 -567.75,-29.27 -745.59,-14.87l-217.11 391.8c-53.45,134.74 -134.18,310.87 -201.55,445.89l-201.27 435.85c-61.9,161.07 -55.25,-3.21 -124.04,198.67 -67.14,196.97 -43.77,171.61 -117.29,205.35 -122.44,-162.29 111.15,-225.84 -30.45,-271.32l6.48 -103.83zm6163.17 1807.27c-67.43,55.09 -140.89,122.56 -49.88,248.71 64.08,88.84 182.87,100.47 268.57,45.16 217.58,-140.42 -20.01,-456.2 -218.69,-293.87z"/>
  <g id="_2850304491504">
   <path class="fil2" d="M14100.08 9891.19c541.99,22.58 385.19,57.17 495.32,-434.06 21.53,-96.03 29.83,-249.98 47.87,-352.71 19.45,-110.62 84.25,-215.33 20.33,-316.42 -67.76,58.11 -360.08,660.59 -445.89,808.59 -47.19,81.4 -121.3,181.75 -117.63,294.6z"/>
   <path class="fil3" d="M16964.05 10864.18c198.68,-162.32 436.27,153.46 218.69,293.87 -85.7,55.31 -204.5,43.67 -268.57,-45.15 -91.01,-126.17 -17.55,-193.63 49.88,-248.72zm-10164.98 275.54c-35.61,-49 -34.43,-32.99 -3.73,-107.27 135.64,-328.13 165.05,-509.85 274.01,-815.74l320.41 -906.35c34.19,-91.85 39.22,-156.99 67.76,-255.41l231.79 -675.13c49.89,-148.14 106.28,-307.8 156.04,-456.79 40.87,-122.37 5.2,-153.79 148.92,-163.36l960.42 1.31c291.59,-0.31 566.93,-21.64 767.8,160.19 115.96,104.97 204.2,363.37 185.19,568.38 -16.71,180.11 -104.84,450.25 -142.89,612.87 -21.31,91.04 -53.93,207.49 -95.99,301.98 -118.49,266.15 -16.62,262.44 -175.81,533.64 -2.77,4.72 -6.62,10.74 -9.3,15.63 -120.24,219.13 -154.79,337.73 -270.47,516.74 -285.24,441.46 -621.92,694.7 -1193.61,693.02 -196.82,-0.58 -1144.58,32.15 -1220.54,-23.71zm-4106.57 -3007.23c167.1,-430.78 34.1,-378 577.87,-377.29 527.03,0.69 1502.56,-134.01 1572.72,392.74 44.95,337.62 -73.52,548.27 -212.38,767.43 -167.92,265.03 -353.65,316.44 -458.17,404.08 -75.57,63.35 -7.18,1.95 -51.2,57.24l149.71 104.81c13.5,15.3 94.96,105.64 99.96,115.82 135.12,275.94 -103.79,786.49 -273.57,1028.45 -198.3,282.54 -524.95,422.68 -838.47,507.8 -125.44,34.04 -1094.48,17.38 -1268.19,17.55 -579.37,0.55 -347.89,-28.06 -664.4,-58.87 -4.59,5.69 -8.68,14.17 -11.24,18.86 -2.51,4.58 -7.77,13.01 -10.7,18.61 -77.15,147.14 -61.7,223.6 -101.09,320.83 -84.15,-31.59 -283.67,-373.06 -380.1,-514.44 -56.59,-82.99 -107.81,-167.28 -179.74,-262.16 -68.27,-90.03 -142.15,-151.6 -175.68,-263.65 60.42,-66.14 180.33,-110.82 272.03,-166.35l881.25 -420.42c0.99,342.41 -59.76,209.57 -59.78,389.9 93.51,80.43 228.34,97.78 355.55,95.99l775.62 -2176.93zm9887.64 3006.72c-3.12,-120.1 59.33,-168.2 113.01,-261.86l1513.52 -2819.95c164.75,-295.42 57.59,-305.69 481.52,-305.01l929.31 8.5c24.8,320.12 -123.63,989.73 -148.69,1344.85 -40.56,574.84 -92.29,776.13 -152.4,1321.91 -76.55,694.9 -10.36,718.41 -259.1,718.36l-780.48 -6.93c-16.12,-233.62 95.89,-366.81 65.22,-552.17l-632.36 4.01 -205.52 358.62c-94.92,205.04 -94.63,193.39 -366.22,193.44l-557.81 -3.77zm4166.73 -2243.16c126.71,20.84 131.88,-58.48 233.85,-203.29 202.44,-287.51 409.99,-508.59 700.14,-705.02 203.97,-138.1 368.06,-231.69 698.27,-239.62 630.76,-15.2 287.12,18.39 516.94,-379.16 120.11,81.4 95.9,123.73 179.4,254.16 106.85,166.88 447.49,668.68 466.19,793.79 -157.71,110.33 -1017.65,428.08 -1112.62,444.56 -2.15,-136.29 4.56,-100.87 44.4,-201.89 128.82,-326.68 -269.51,-109.53 -392.03,-22.75 -300.31,212.67 -641.05,599.69 -838.6,908.06 -38.91,60.73 -78.59,119.33 -112.02,182.57 -41.16,77.86 -80.8,122.28 -113.66,179.77 -118.52,207.36 -400.2,1124.62 -507.98,1237.67l-955.17 -3.69c-8.1,-139.85 298.98,-929.08 376.59,-1163.24 44.31,-133.74 120.94,-199.61 106.33,-404.16l-134.08 -898.38c-33.62,-158.2 -34.57,-299.75 -59.22,-465.72 -23.6,-159.09 -79.04,-247.02 -52.34,-455.92l645.59 -3.76c23.28,0.13 74.18,0.72 95.5,4.27l39.32 10.8c4.3,1.19 14.3,13.1 17.29,7.76 55.22,-98.64 152.98,1047.52 157.91,1123.19zm-9122.05 -1116.7c-3.38,158.2 -235.82,827.39 -313.19,1041.98l-349.48 997.49c-113.21,371.18 -247.88,633.61 -456.43,897.3 -108.9,137.7 -220.06,208.73 -372.71,296.03 -327.97,187.57 -738.79,241.69 -1128.97,155.48 -252.46,-55.79 -228.5,-104.55 -324.84,-196.33 -4.96,-4.74 -20.18,-17.15 -25.43,-21.8l-51.74 -47.32c-109.93,-120.99 -108.6,-419.4 -72.51,-610.14l273.14 -938.51c1.94,-4.89 5.09,-11.1 7.17,-15.84 2.08,-4.74 5.62,-10.78 7.79,-15.47l31.38 -66.79c62.28,-147.87 117.46,-336.52 171.97,-491.65 32.17,-91.49 55.19,-180.68 80.58,-270.5 48.91,-173.09 170.93,-588.35 253.01,-728.67l900.51 5.38c5.51,174.15 -17,92.66 -64.36,252.41l-453.06 1305.38c-26.56,114.77 -59.67,209.58 -101.9,321.22 -70.93,187.48 -192.17,428.17 -138.97,675.56 361.04,144.23 418.72,-153.64 514.86,-399.66 226.87,-580.59 504.85,-1612.41 751.74,-2148.36l861.44 2.81zm5009.98 2449.22c-23.94,127.88 -400.85,805.56 -481.15,911.77 -168.38,15.27 -722.14,40.35 -837.89,-13.27l33.91 -493.31c16.44,-121.23 78.25,-323.24 102.38,-449.01 27.55,-143.42 60.49,-367.73 73.88,-492.15 11.11,-103.38 -0.8,-182.72 33.66,-272.89 0.08,-0.18 90.12,-91.67 3.47,-210.81 -244.31,383.35 -123.01,583.87 -382.13,781.48 -7.61,71.58 -150.56,349.27 -201.13,449.11l-264.99 572.93c-46.75,89.94 -10,77.11 -87.42,113.29 -91.61,44.4 -706.06,32.74 -846.78,8.33 -17.61,-260.81 65.89,-547.66 83.26,-822.56l71.23 -873.04c13.1,-68.73 40.39,-126.73 49.51,-189.21l140.42 -1461.11c128.35,-51.55 783.56,-76.03 897.01,-11.83 29.11,29.37 -18.72,298.34 -24.3,325.75 -15.49,76.08 -27.77,86.91 -40.68,151.64 -12.57,63.12 -9.27,120.51 -20.29,182.37 -12.99,72.75 -26.52,74.5 -41.76,155.21l-94.13 465.64 -6.48 103.84c141.6,45.48 -91.99,109.03 30.45,271.32 73.52,-33.75 50.15,-8.37 117.28,-205.36 68.8,-201.87 62.16,-37.6 124.05,-198.66l201.27 -435.85c67.37,-135.02 148.1,-311.15 201.55,-445.89l217.1 -391.8c177.85,-14.39 612.7,-43.92 745.6,14.87l12.68 58.38c10.36,127.57 -47.05,289.67 -65.55,361.26l-158.74 1088.13c-30.73,105.37 -34.26,108.57 -32.91,239.47 220.8,-98.78 103.12,-276.41 269.66,-369.39 -11.33,-106.83 96.7,-251.93 146.47,-352.17 152.47,-307.1 338.78,-772.31 488.12,-1041.7l859.01 2.34c-5.75,115.93 -108.18,263.31 -147.53,345.5l-583.86 1088.77c-56.99,122.45 -42.48,53.85 -97.63,144.98l-61.66 136.52c-85.63,139.92 -362.01,735.38 -424.96,757.11zm5892.17 -2822.57c-693.02,77.29 -872.49,94.37 -1380.31,617.36 -46.56,47.96 -93.13,106.43 -156.62,108.88 -62.77,-119.46 -42.41,-372.03 -60.84,-528.46 -16.21,-137.62 -11.71,-50.57 -48.43,-149.31l-6999.94 -11.39 -36.47 154.61c-88.87,-17.2 -137.4,-51.15 -212.39,-81.8 -293.98,-120.11 -511.95,-90.92 -824.94,-90.45 -401.86,0.62 -803.9,1.01 -1205.76,0.9 -804.85,-0.22 -1612.56,0.25 -2417.37,4.89 -81.22,110.47 -66.57,114.69 -117.19,252.15 -127.96,12.49 -128.27,-35.91 -221.03,-102.91 -217.63,-157.22 -626.82,-158.95 -886.3,-158.91l-1347 15.21c-108.93,25.94 -78.63,240.73 -107.61,321.38l-24.1 42.64c-2.45,4.63 -6.7,10.39 -9.14,15.25 -2.63,5.21 -6.2,11.42 -8.72,16.93l-220.98 590.56c-58.37,173.75 -107.43,329.61 -172.73,493.7 -121.14,304.4 -79.62,330.87 -256.72,429.11 -266.76,147.98 -973.64,454.73 -1345.59,645.68l-343.97 170.51c-49.85,23.64 -74.37,22.11 -122.64,50.9 -9.6,235.4 397.43,721.4 573.86,1000.3l567.09 808.8c48.38,49.26 26.07,48.51 108.56,45.08 122.13,-5.11 109.69,-83.95 127.75,-134.21 27.08,-75.29 29.87,-68.01 50.32,-146.09 33.07,-126.26 56.2,-157.32 88.67,-300.4 599.64,-77.9 1423.5,89.54 1768.87,-48.31 72.25,-28.84 328.53,-37.9 489.96,-130.39l244.17 -148.32c74.4,-61.62 162.66,-150.72 259.85,-153.4 157.03,168.23 225.61,502.9 983.79,531.26 196.46,7.35 497.9,-33.07 675.09,-84.72 151.5,-44.16 275.28,-115.14 395.15,-193.62 46.92,-30.71 56.34,-43.2 121.46,-46.5l-5.01 217.58c574.93,-0.64 1859.94,69.54 2364.88,-94.1l399.51 -151.03c68.25,-41.94 191.73,-156.36 237.25,-164.31l6.42 405.7 4132.36 3.94 101.61 -201.51c2.57,-5.15 5.77,-11.51 8.41,-16.53l54.46 -91.32c60.74,-107.72 67,-238.32 225.51,-201.25 1.84,239.87 -103.47,233.37 -63.59,505.12 965.67,24.79 2043.92,-3.16 3035.56,-2.16 230.09,0.22 347.06,-8.63 464.23,-154 103.73,-128.7 113.62,-288.2 42.45,-458.49 -82,-196.24 -199.97,-157.29 -361.04,-252.59 56.57,-315.47 627.1,-1261.97 857.55,-1372.08l1.21 189.43c164.57,4.65 890.77,-313.1 1058.8,-375.18 35.74,-13.19 82.86,-33.48 117.61,-51.54l385.6 -155.68c129.76,-54.4 394.42,-150.21 481.46,-228.32 -12.68,-168.04 -807.06,-1355.3 -1000.05,-1677.85 -47.41,-79.25 -85.83,-184.73 -177.72,-218.73 -134.1,123.67 -40.84,72.17 -153.87,369.72 -49.88,131.31 -78.48,263.95 -141.4,368.27z"/>
   <path class="fil3" d="M7868.01 10513.88c533.71,39.76 587.61,-203.91 792.59,-795.12 27.09,-78.13 20.65,-74.12 40.37,-165.72 22.75,-105.69 17.33,-43.43 62.15,-122.64l187.12 -599.44c35.72,-103.49 34.79,-253.26 13.26,-374.1 -155.88,-43.91 -231.7,-67.71 -403.27,-41.39l-266.84 769.97c-13.39,60.71 -21.4,108.01 -27.52,148.26l-67.89 173.99c-62.37,102.22 -327.52,977.48 -329.97,1006.19z"/>
   <path class="fil3" d="M2772.33 10513.17c354.51,20.05 498.13,-61.24 628.11,-291.04 107.49,-190.02 200.71,-545.51 -203.89,-542.12l-160.5 2.54c-68.4,112.9 -99.85,252.13 -148.41,392.42 -48.91,141.32 -120.31,240.27 -115.31,438.2z"/>
   <path class="fil3" d="M3286.37 9086.16c681.18,27.37 623.81,-551.56 563.97,-634.02 -61.68,-85.03 -229.47,-72.53 -358.5,-53.58 -61,110.09 -207.62,560.12 -205.47,687.6z"/>
  </g>
  <path class="fil4" d="M2772.33 10513.17c-5,-197.93 66.4,-296.88 115.31,-438.2 48.57,-140.29 80.02,-279.52 148.41,-392.42l160.49 -2.54c404.6,-3.39 311.39,352.11 203.9,542.12 -129.98,229.81 -273.6,311.09 -628.11,291.04zm4852.49 -2733.82l-861.43 -2.81c-246.91,535.95 -524.89,1567.78 -751.75,2148.37 -96.14,246.02 -153.82,543.88 -514.86,399.65 -53.19,-247.38 68.04,-488.08 138.97,-675.56 42.24,-111.64 75.34,-206.45 101.9,-321.21l453.06 -1305.39c47.36,-159.76 69.87,-78.26 64.36,-252.41l-900.51 -5.38c-82.08,140.33 -204.1,555.58 -253,728.66 -25.4,89.84 -48.43,179.02 -80.58,270.51 -54.52,155.14 -109.7,343.78 -171.98,491.65l-31.38 66.79c-2.17,4.69 -5.71,10.73 -7.79,15.47 -2.07,4.74 -5.23,10.94 -7.17,15.84l-273.15 938.5c-36.08,190.75 -37.41,489.16 72.52,610.15l51.74 47.33c5.25,4.64 20.47,17.05 25.43,21.8 96.33,91.76 72.39,140.53 324.84,196.32 390.18,86.21 801,32.09 1128.97,-155.48 152.65,-87.3 263.81,-158.33 372.71,-296.02 208.55,-263.71 343.23,-526.13 456.44,-897.31l349.47 -997.48c77.37,-214.59 309.81,-883.79 313.19,-1041.99zm243.19 2734.53c2.44,-28.71 267.6,-903.97 329.98,-1006.19l67.87 -174c6.14,-40.24 14.14,-87.54 27.53,-148.25l266.84 -769.97c171.57,-26.32 247.39,-2.51 403.27,41.39 21.53,120.85 22.46,270.61 -13.26,374.11l-187.11 599.43c-44.83,79.21 -39.41,16.95 -62.16,122.64 -19.72,91.6 -13.28,87.59 -40.37,165.72 -204.98,591.21 -258.88,834.87 -792.59,795.12zm-1068.95 625.84c75.97,55.86 1023.73,23.13 1220.55,23.71 571.68,1.68 908.37,-251.57 1193.61,-693.02 115.68,-179.01 150.23,-297.61 270.46,-516.74 2.69,-4.89 6.54,-10.91 9.31,-15.63 159.19,-271.2 57.33,-267.49 175.81,-533.64 42.06,-94.49 74.68,-210.94 95.99,-301.99 38.05,-162.61 126.19,-432.75 142.89,-612.85 19.01,-205.01 -69.23,-463.42 -185.2,-568.39 -200.87,-181.82 -476.2,-160.5 -767.8,-160.19l-960.41 -1.32c-143.71,9.58 -108.05,40.99 -148.91,163.37 -49.77,148.99 -106.16,308.64 -156.06,456.79l-231.79 675.13c-28.52,98.42 -33.56,163.57 -67.74,255.42l-320.42 906.35c-108.96,305.88 -138.37,487.6 -274,815.73 -30.71,74.29 -31.9,58.27 3.71,107.27zm-3512.68 -2053.56c-2.16,-127.48 144.46,-577.51 205.46,-687.6 129.03,-18.95 296.82,-31.45 358.5,53.58 59.84,82.46 117.21,661.39 -563.96,634.02zm-1369.5 1223.26c-127.21,1.79 -262.04,-15.56 -355.55,-95.99 0.01,-180.34 60.76,-47.48 59.78,-389.9l-881.25 420.42c-91.71,55.52 -211.61,100.21 -272.03,166.36 33.53,112.04 107.41,173.61 175.67,263.64 71.94,94.87 123.16,179.18 179.75,262.16 96.43,141.38 295.95,482.85 380.1,514.44 39.39,-97.23 23.94,-173.69 101.09,-320.83 2.93,-5.6 8.19,-14.03 10.7,-18.6 2.56,-4.7 6.65,-13.18 11.25,-18.87 316.5,30.81 85.02,59.41 664.39,58.87 173.71,-0.16 1142.75,16.49 1268.2,-17.55 313.51,-85.12 640.16,-225.26 838.46,-507.8 169.79,-241.96 408.69,-752.51 273.57,-1028.45 -5,-10.18 -86.45,-100.52 -99.96,-115.83l-149.72 -104.8c44.03,-55.29 -24.36,6.11 51.21,-57.24 104.52,-87.64 290.25,-139.05 458.17,-404.07 138.87,-219.17 257.33,-429.82 212.38,-767.43 -70.17,-526.76 -1045.68,-392.06 -1572.71,-392.75 -543.78,-0.72 -410.77,-53.5 -577.88,377.29l-775.62 2176.93z"/>
  <path class="fil5" d="M4124.57 13194.53c102.1,82.47 255.27,137.46 380.94,137.46 274.92,0 420.22,-141.39 420.22,-325.97 0,-176.72 -133.52,-251.35 -251.34,-294.55 -98.18,-35.34 -184.58,-54.99 -184.58,-106.04 0,-39.27 29.45,-54.98 86.4,-54.98 60.87,0 129.6,31.42 200.28,82.48l149.24 -200.3c-86.4,-64.8 -200.29,-129.6 -361.31,-129.6 -231.71,0 -388.8,125.68 -388.8,318.12 0,161.01 133.52,245.45 247.42,290.62 98.18,39.26 188.52,62.83 188.52,113.88 0,39.28 -27.5,58.92 -98.19,58.92 -68.73,0 -149.24,-31.42 -239.57,-98.19l-149.23 208.15zm966.11 113.89l337.75 0 0 -644.07c51.05,-51.07 98.18,-74.62 137.45,-74.62 66.77,0 98.18,31.42 98.18,157.09l0 561.6 337.76 0 0 -644.07c51.05,-51.07 98.18,-74.62 137.45,-74.62 66.76,0 98.18,31.42 98.18,157.09l0 561.6 337.75 0 0 -604.8c0,-243.49 -94.25,-400.59 -310.25,-400.59 -133.53,0 -221.9,74.62 -302.4,157.1 -53.03,-102.12 -137.47,-157.1 -270.99,-157.1 -133.53,0 -216,66.77 -294.55,143.35l-7.85 0 -23.57 -119.79 -274.91 0 0 981.83zm1653.4 -490.91c0,325.96 235.63,514.48 486.98,514.48 251.35,0 486.99,-188.52 486.99,-514.48 0,-325.97 -235.64,-514.48 -486.99,-514.48 -251.35,0 -486.98,188.51 -486.98,514.48zm345.6 0c0,-149.24 39.28,-243.5 141.38,-243.5 102.12,0 141.39,94.26 141.39,243.5 0,149.24 -39.27,243.49 -141.39,243.49 -102.1,0 -141.38,-94.25 -141.38,-243.49zm805.1 490.91l329.89 0 0 -235.64 102.11 -113.88 196.37 349.52 365.24 0 -369.17 -573.39 349.53 -408.44 -365.25 0 -270.97 341.68 -7.86 0 0 -726.55 -329.89 0 0 1366.7zm1001.46 -490.91c0,325.96 219.93,514.48 506.62,514.48 109.96,0 251.35,-39.27 357.38,-113.89l-109.96 -200.3c-70.69,39.27 -133.53,58.91 -200.29,58.91 -109.97,0 -196.37,-39.27 -227.79,-164.94l559.64 0c5.9,-23.57 13.75,-74.62 13.75,-133.54 0,-263.12 -137.45,-475.2 -428.07,-475.2 -239.57,0 -471.28,196.37 -471.28,514.48zm322.03 -109.96c19.65,-108 82.48,-149.24 157.1,-149.24 102.1,0 133.52,66.76 133.52,149.24l-290.62 0zm1830.13 -754.04c-43.2,-15.72 -117.81,-35.35 -208.15,-35.35 -290.62,0 -388.8,186.55 -388.8,396l0 13.75 -129.6 9.82 0 252 129.6 0 0 718.69 337.75 0 0 -718.69 164.95 0 0 -263.14 -164.95 0 0 -23.56c0,-92.29 39.27,-121.75 102.12,-121.75 31.41,0 66.75,7.86 98.18,19.64l58.9 -247.41zm51.06 1354.91l337.75 0 0 -545.89c47.13,-121.75 133.53,-164.95 204.22,-164.95 43.2,0 74.61,7.85 109.96,15.7l54.99 -290.62c-27.49,-11.78 -60.87,-19.63 -121.75,-19.63 -96.22,0 -206.19,58.91 -278.84,192.44l-7.85 0 -23.57 -168.88 -274.91 0 0 981.83zm750.12 -490.91c0,325.96 219.93,514.48 506.62,514.48 109.96,0 251.35,-39.27 357.38,-113.89l-109.96 -200.3c-70.69,39.27 -133.53,58.91 -200.29,58.91 -109.97,0 -196.37,-39.27 -227.79,-164.94l559.64 0c5.9,-23.57 13.75,-74.62 13.75,-133.54 0,-263.12 -137.46,-475.2 -428.08,-475.2 -239.56,0 -471.27,196.37 -471.27,514.48zm322.03 -109.96c19.64,-108 82.48,-149.24 157.1,-149.24 102.1,0 133.52,66.76 133.52,149.24l-290.62 0zm683.36 486.98c102.11,82.47 255.27,137.46 380.95,137.46 274.91,0 420.22,-141.39 420.22,-325.97 0,-176.72 -133.53,-251.35 -251.35,-294.55 -98.18,-35.34 -184.58,-54.99 -184.58,-106.04 0,-39.27 29.45,-54.98 86.4,-54.98 60.88,0 129.6,31.42 200.29,82.48l149.24 -200.3c-86.4,-64.8 -200.3,-129.6 -361.32,-129.6 -231.7,0 -388.8,125.68 -388.8,318.12 0,161.01 133.53,245.45 247.42,290.62 98.18,39.26 188.52,62.83 188.52,113.88 0,39.28 -27.5,58.92 -98.19,58.92 -68.73,0 -149.23,-31.42 -239.57,-98.19l-149.23 208.15zm966.12 113.89l337.74 0 0 -644.07c51.06,-47.14 86.4,-74.62 149.24,-74.62 66.76,0 98.18,31.42 98.18,157.09l0 561.6 337.75 0 0 -604.8c0,-243.49 -90.32,-400.59 -306.33,-400.59 -133.53,0 -227.78,66.77 -294.55,125.68l15.71 -168.88 0 -318.11 -337.74 0 0 1366.7z"/>
 </g>
</svg>
