<?xml version="1.0" encoding="UTF-8"?>
<!DOCTYPE svg PUBLIC "-//W3C//DTD SVG 1.1//EN" "http://www.w3.org/Graphics/SVG/1.1/DTD/svg11.dtd">
<!-- Creator: CorelDRAW 2017 -->
<svg xmlns="http://www.w3.org/2000/svg" xml:space="preserve" width="180.622mm" height="180.622mm" version="1.1" style="shape-rendering:geometricPrecision; text-rendering:geometricPrecision; image-rendering:optimizeQuality; fill-rule:evenodd; clip-rule:evenodd"
viewBox="0 0 18062.2 18062.2"
 xmlns:xlink="http://www.w3.org/1999/xlink">
 <defs>
  <style type="text/css">
   <![CDATA[
    .fil0 {fill:none}
    .fil5 {fill:#FFF212}
    .fil9 {fill:#F7ADAF}
    .fil1 {fill:black}
    .fil10 {fill:#010101}
    .fil6 {fill:#2033C5}
    .fil8 {fill:#4C90C7}
    .fil4 {fill:#656565}
    .fil11 {fill:#898989}
    .fil2 {fill:#B4B4B4}
    .fil3 {fill:#CE0B0B}
    .fil7 {fill:#FEFEFE}
   ]]>
  </style>
 </defs>
 <g id="Capa_x0020_1">
  <metadata id="CorelCorpID_0Corel-Layer"/>
  <rect class="fil0" width="18062.2" height="18062.2"/>
  <path class="fil1" d="M1757.81 3611.39c81.97,191.94 592.3,591.66 782.48,708.04 292.97,179.33 700.86,347.98 1056.59,387.01 -38.26,-82.91 -90.02,-151.66 -132.65,-259.03 -35.52,-89.44 -48.6,-208.11 -95.78,-284.85 -44.61,-356.7 -128.7,-553.35 65.57,-1037.72l478.4 615.73c287.05,325.73 861.55,704.43 1245.55,942.11l704.26 423.73c-32.87,-513.35 -489.38,-963.85 -469.26,-1092.61 249.65,2.13 1165.78,877.96 1399.09,1114.87 133.35,135.4 248.72,315.63 389.02,461.49 198.16,326.93 411.12,608.16 566.76,1028.15 151.79,409.49 246.47,842.06 286.8,1326.25 69.22,830.93 -139.76,1708.6 -748.91,2272.26 -4.38,4.07 -17.33,15.33 -21.65,18.68 -29.16,22.6 -9.1,9.95 -34.36,21.56l-10.94 -10.75c67.86,-164.51 576.68,-440.03 751.44,-1493.01 26.19,-157.88 48.04,-335.06 47.11,-501.9 -1.28,-225.91 -80.39,-248.76 -134.97,-416.03 -118.99,-364.78 -108.73,-514.33 -303.18,-833.77 -79.45,-130.55 -127.15,-226.38 -220.19,-337.52l-315.17 -371.4c-91.32,-98.43 -59.66,-98.66 -208.58,-220.55 -104.62,-85.66 -215.08,-163.32 -365.97,-213.43 -465.05,-154.42 -499.55,75.75 -526.06,484.44 -25.04,386.21 22.19,700.47 35.95,1085.33 -93.46,-32.41 -688.8,-487.42 -909.79,-597.23 -310.15,-154.14 -811.5,-748.32 -1683.7,-824.75 -353.57,-30.98 -562.39,26.01 -771.19,202.61 -94.46,79.91 -307.77,503.52 -344.9,663.42 -67.21,289.69 -51.06,607.99 26.35,885.23 87.28,312.7 143.76,513.47 408.98,604.54 53.55,-30.07 72.41,-48.02 134.86,-82.89l143.38 -90.48c2.85,112.65 -35.01,253.52 -37.74,384.17 -5.81,278.38 24.88,246.05 -160.41,199.95 -46,-52.94 -124.67,-77.99 -187.97,-111.79 -95.65,-51.07 -256.81,-293.35 -449.7,-436.49 -63.38,36.19 -171.76,100.39 -226.45,143.16 -72.42,56.67 -64.99,109.59 -82.27,290.68 -17.92,187.79 124.65,382.09 247.41,510.1l318.65 -136.62c105.19,199.84 87.1,536.84 170.75,763.67 20.37,55.23 322.44,471.82 408.5,540.02 41.51,45.6 118.13,118.09 171.24,157.53 -52.68,-6.96 -47.57,-20.57 -30.38,27.79 -109.64,-76.02 -319.29,-295.73 -398.7,-424.39 -137.03,-222.06 -44.58,-71.89 -244.62,-184.33 -1000.49,-562.3 -1389.31,-882.12 -1883.47,-1955.76 -145.31,-315.69 -240.62,-614.03 -333.08,-955.45 -30.41,-112.26 -44.83,-242.55 -83.2,-344.31 -20.36,-156.31 -37.08,-241.08 -3.68,-400.03l36.19 2.78c77.31,101.82 85.79,127.13 177.34,208.84l386.18 364.58c69.36,62.28 107.98,130.09 216.02,156.16 -205.97,-488.75 -161.95,-248.28 -278.21,-844.81 -140.34,-719.93 -111.77,-1382.36 -89.1,-2096.78 4.67,-147.45 -24.07,-416.17 -9.84,-528.28 16.49,-130.29 42.39,-308.83 50.32,-478.01 2.31,-177.78 26.6,-724.62 107.93,-836.27 23.35,16.42 9.99,3.53 34.01,28.96l692.14 1044.26c76.66,112.97 164.89,249.03 256.8,333.14z"/>
  <path class="fil2" d="M17583.2 13151c57.98,-27.42 62.78,-38.24 98.12,-103.55 59.43,-109.83 16.88,-107.24 3.15,-128.68l-101.27 232.23z"/>
  <path class="fil2" d="M15676.35 10573.69c-25.16,-107.67 -42.63,-141.62 -121.42,-190.14 15.57,92.98 43.04,149.22 121.42,190.14z"/>
  <path class="fil3" d="M2513.29 8651.71l91.03 160.89c33.31,-25.93 -20.51,-13.94 69.12,-28.79 115.66,-19.16 414.04,71.84 564,-188.76l-219.63 73.26c34.97,-84.56 43.42,-69.91 108.08,-125.85 46.77,-40.46 71.71,-66.66 105.68,-97.38 -329.1,120.72 -185.56,247.78 -718.28,206.63z"/>
  <path class="fil3" d="M5945.6 7291.03l102.26 -8.83c114.23,115.7 281.77,336.79 511.97,176.71 -231.7,-7.13 -301.35,-44.16 -375.32,-214.19l370.79 -51.49c-212.63,-58.16 -312.47,-53.98 -541.11,-61.51l-68.59 159.31z"/>
  <path class="fil3" d="M2327.67 8116.48c165.69,41.53 152.39,121.38 414.82,61.38 129.48,-29.6 322.59,-63.79 412.04,-129.7 -358.46,3.57 -581.87,102.56 -785.05,-44.24 -29.82,-21.55 -8.74,-8.27 -44.03,-28.58l2.22 141.14z"/>
  <path class="fil3" d="M2830.46 7438.78c308.09,-7.03 528.26,16.86 822.06,29.8 -107.72,-198.42 -428.78,-76.4 -545.42,-153.92 -69.08,23.63 -216.59,71.61 -276.64,124.12z"/>
  <path class="fil3" d="M2778.92 8961.27l220.29 125.94c87.08,-59.15 491.86,-110.53 689.16,-474.64 -292.3,151.6 -249.39,378.8 -909.45,348.7z"/>
  <path class="fil3" d="M2406.68 7679.49c377.17,-89.68 569.53,-60.85 935.63,-31.04 -323.25,-184.93 -462.81,-44.56 -743,-116.11 -98.32,32.93 -152.51,67.09 -192.63,147.15z"/>
  <path class="fil3" d="M5989.47 8048.34l-10.4 -118.75c148.51,-6.39 507.87,-8.26 587.84,-108.52l-642.69 -18.12 65.25 245.39z"/>
  <path class="fil3" d="M6264.11 8303.6c25.45,31.34 2.42,14.33 39.08,40.74 22.99,16.55 35.57,20.13 58.11,30.01 45.57,19.99 72.95,29.47 116.93,42.49 69.66,-32.83 219.82,-22.2 291.82,-68.85 90.12,-58.39 28.12,-10.9 60.23,-70.56l-566.17 26.17z"/>
  <path class="fil3" d="M6220.93 6869.53l616.79 -3.24c-100.38,-98.04 -319.2,-34.9 -443.57,-99.46 -73.85,28.01 -35.66,16.78 -89.48,52.49 -39.17,25.99 -37.11,14.37 -83.74,50.21z"/>
  <path class="fil3" d="M3511.41 7226.38l374.55 106.63c-21.56,-43.83 -42.07,-60.49 -69.5,-81.09 -75.93,-57.01 -51.81,-17.88 -96.01,-82.38 -36.57,3.51 -76.75,5.1 -112.29,12.4 -23.29,4.78 -31.49,6.12 -51.93,15.14 -28.6,12.62 -32.08,20.24 -44.82,29.3z"/>
  <path class="fil4" d="M5870.84 15966.34l-49.13 70.34c-104.55,184.38 -87.81,199.84 -251.73,419.85 -253.66,340.45 -238.45,302.62 -443.15,252.68 -587.27,-143.28 -1860.24,-507.05 -2349.3,-778.81 -597.19,-331.84 -619.43,-531.87 -842.43,-742.19 50.28,261.33 350.13,697.61 489.7,834.25 235.12,230.18 407.69,370.44 763.27,538.7 475.52,225.02 1662.43,423.81 2288.52,341.29 236.27,-482.47 324.52,-463.93 394.25,-936.11z"/>
  <path class="fil4" d="M2994.39 10613.31c-68.73,31.67 -16.79,13.12 -36.25,-4.91 49.59,-209.62 222.95,-268.55 397.21,-357.87 727.52,-372.87 876.44,-424.61 1748.54,-554.52 434.56,-64.73 850.24,-242.34 1279.87,-258.93 265.16,-10.23 465.76,-0.8 720.67,-39.01l582.49 -98.1c88.44,11.52 49.72,-17.21 85.5,49.63l35.02 -20.28c121.36,-73.33 79.29,-59.99 262.7,-73.55 -15.26,-59.53 -52.3,-110.48 -82.7,-161.95 -515.98,22.28 -2364.79,308.1 -2891.12,426.18 -706.57,158.51 -2116.01,485.13 -2351.19,958.19 53.33,72.24 144.53,112.72 210.54,180.1 77.45,-20.27 8.82,6.39 38.72,-44.98z"/>
  <path class="fil4" d="M5242.82 13605.44l-56.39 -52.81c411.15,-191.47 1858.02,-522.71 2348.29,-603.41l13.93 41.4c47.72,-66.73 53.93,-250.93 60.9,-350.03 -233.75,28.95 -548.56,122.87 -790.38,182.5l-1890.7 450.84c-97.91,23.85 -251.68,45.31 -327.02,92.41 -3.57,2.23 -11.44,16.05 -13.97,11.71 -2.56,-4.41 -9.53,7.91 -12.3,8.3l667.64 219.09z"/>
  <path class="fil4" d="M8287.9 8794.6l0.12 -77.48c138.27,0.05 185,100.22 265.56,178.16 220.87,213.69 385.91,465.68 529.3,752.2 33.04,-171.91 -583.3,-1495.47 -709.98,-1570.25 16.67,167.6 40.64,271.86 -36.64,402.56 -43.23,73.11 -155.4,217.12 -48.36,314.81z"/>
  <path class="fil4" d="M2691.58 9385.8l104.09 35.77c202.24,46.93 398.04,89.56 540.87,-37.49 24.58,-21.86 50.6,-40.33 70.85,-59.99 49.68,-48.25 20.3,-4.83 54.12,-70.26 -686.47,6.73 -875.18,-168.2 -1125.69,-629.67 -127.36,-234.61 -55.13,-314.4 -135.67,-446.23 27.18,312.34 41.45,477.48 160.4,726.32 92.03,192.53 222.94,380.35 364.45,476.29l-33.42 5.26z"/>
  <path class="fil4" d="M7701.56 12913.01c200.69,-74.24 446.99,-119.56 656.96,-199.46 94.67,-36.03 186.18,-70.76 285.32,-127.45 126.78,-72.5 169.61,-87.94 196.37,-261.21 -312.36,130.95 -766.11,151.26 -1076.55,271.07l-62.1 317.05z"/>
  <path class="fil4" d="M12479.78 12680.32c-7.01,76.88 11.96,56.33 -124.6,64.62 -298.87,18.15 -2302.86,-17.66 -2320.11,-31.47 -67.24,-108.52 -17.08,-202.62 3.81,-332.98l-24.02 31.56c-3.06,4.81 -7.14,10.43 -10.23,15.75 -2.97,5.1 -5.82,10.56 -8.57,15.85l-126.84 360.29c861.42,20.95 1798.38,15.56 2647.71,-43.62 -5.35,-133.44 -5.19,-48.27 -37.15,-80z"/>
  <path class="fil4" d="M5066.25 6070.78c-16.37,14.24 -36.68,12.83 -48.92,22.9 -61.18,-55.34 -117.38,-110.43 -240.01,-117 85.17,160.14 241.13,280.85 334.14,437.23 150.48,252.98 -81.74,416.45 -120.36,591.59 160.11,-42.7 415.54,-193.88 461.99,-303.4 6.24,-140.96 -476.71,-439.95 -386.84,-631.32z"/>
  <path class="fil4" d="M4284.17 6100.24c49.51,-86.82 326.89,226.15 354.91,349.15 63.76,279.84 -163.77,432.89 -218.71,542.18 163.25,0.95 309.7,2.32 393.98,-104.62 138.43,-374.88 -401.33,-677.45 -345.71,-970.94l-112.31 84.23c-23.74,16.66 -24.98,16.4 -57.2,30.14l-56.99 20.67c32.55,80.28 9.13,17.89 42.03,49.19z"/>
  <path class="fil4" d="M4672.93 7186.48c31.31,-29.69 -19.02,-8.67 59.75,-36.92 32.27,-11.57 50.59,-13.64 81.12,-5.32 31.46,8.57 80,55.64 148.27,84.63 -3.15,-5.7 -9.34,-19.68 -11.33,-15.93l-32.42 -44.79c-26.19,-42.15 -55.6,-58.17 19.11,-177.11 45.76,-72.85 122.23,-135.28 131.41,-245.9 12.48,-150.54 -176.43,-394.57 -264.64,-455.58 57.13,132.46 167.09,282.67 104.17,480.08 -49.46,155.18 -178.08,266.36 -331.55,315.54 28.82,47.4 2.63,14.48 42.97,56.23l53.14 45.07z"/>
  <path class="fil4" d="M16101.48 11726.89c3.14,5.72 8.6,7.14 10.36,16.6 5.31,28.68 104.11,95.63 16.18,229.35 -51.73,78.67 -104.27,150.62 -241.18,135.57l13.54 -87.28c-78.17,52.52 -203.4,166 -278.58,228.8 -82.11,68.59 -199.25,163.87 -243.49,269.09 278.35,-96.7 1124.92,-531.46 736.87,-890.95 17.15,73.37 25.12,65.28 -13.7,98.82z"/>
  <path class="fil4" d="M4258.64 8928.24c187.84,-17.17 431.03,-243.62 528.43,-335.79 35.11,-180.3 230,-388.1 216.08,-653.8 -4.7,-89.65 -17.28,-160.97 -75.43,-221.97 -10.78,477.49 -79.58,705.54 -417.45,996.11 -96.43,82.94 -212.86,155.69 -251.63,215.45z"/>
  <path class="fil4" d="M5964.15 6915.25c32.92,-16.25 182.64,-156.53 226.59,-189.75 80.46,-60.82 170.82,-100.06 270.13,-153.61 -80.66,-49.32 -445.28,-61.94 -570.4,-76.33l73.68 419.69z"/>
  <path class="fil4" d="M5423.28 5892.93l-3.65 -29.67c154.78,140.83 236.79,312.74 349.49,334.96 -18.82,-112.56 -104.31,-188.92 -154.2,-311.15 -66.18,-162.09 -14.6,-249.81 -158.16,-343.14l60.42 -4.62 -148.44 -43.24c-67.05,19.25 -62.96,70.29 -41.16,154.94 16.19,62.88 41.25,81.21 40.4,139.46 -0.61,42.36 -57.61,45.72 55.3,102.46z"/>
  <path class="fil4" d="M3054.58 7200.24l364.39 -129.21c-44.33,-24.5 -41.76,-22.06 -98.81,-35.58 -41.04,-9.73 -68.02,-13.04 -107.51,-22.6 -224.09,-54.24 -433.74,-139.55 -643.97,-223.83 59.75,125.61 78.22,77.03 218.81,233.13 78.61,87.3 142.5,111.77 288.66,147.54 -46.53,-1.9 -0.12,-6.7 -21.57,30.55z"/>
  <path class="fil4" d="M2291.95 12224.17c125.05,114.98 492.55,109.17 673.93,174.87 182.66,66.16 442.97,175.94 637.06,207.35 -56.06,-54.92 -106.69,-64.06 -169.8,-88.17l-464.4 -207.24c-426.55,-186.62 -254.02,-133.41 -476.84,-81.71 -118.33,27.45 -104.9,1.47 -199.95,-5.1z"/>
  <path class="fil4" d="M16420.41 13079.8c245.76,-158.46 376.24,-166.49 733.55,-123.73 6.16,-85.79 19.82,-123.73 57.98,-184.56 -232.84,2.94 -239.33,-41.66 -479.64,46.7 -142.11,52.25 -261.49,131.35 -311.89,261.59z"/>
  <path class="fil4" d="M5865.95 8750.11c26.34,34.28 -41.14,21.02 70.99,54.82 74.25,22.39 168.04,-25.22 245.95,-48.65 419.09,-126.02 913.14,-21.24 1072.31,-72.01 74.54,-23.77 32.96,-9.17 63.5,-39.5 -126.2,17.09 -248.85,23.27 -385.38,16.09 -112.2,-5.9 -216.18,-41.87 -331.07,-49.65 -298.74,-20.25 -476.42,8.97 -653.02,162.43l-83.28 -23.53z"/>
  <path class="fil4" d="M1652.39 11566.36c-41.9,-151.11 -18.79,-461.85 -18.79,-632.43 -0.01,-304.49 0.23,-314.96 73.06,-586.37 -38.17,26.86 -16.21,4.38 -50.57,46.33l-81.48 179.62c-34.63,119.77 -28.52,191.56 -30.01,316.87 -2.51,212 -18.98,452.18 13.83,667.74l93.96 8.24z"/>
  <path class="fil4" d="M16615.62 12155.01c-2.95,-278.34 175.85,-315.77 440.31,-360.57l39.01 -144.07c-180.76,7.99 -285.99,-4.37 -402.4,108.15 -47.02,45.46 -75.74,92.97 -96.88,161.75 -26.28,85.51 -43.12,179.77 19.96,234.74z"/>
  <path class="fil4" d="M5146.68 7159.57c103.85,48.47 660.53,150.35 639.93,-404.45 -57.27,40.38 -72.21,83.29 -119.78,140.75 -39.92,48.22 -82.41,78.04 -141.68,118.84 -115.4,79.47 -197.76,133.44 -378.47,144.86z"/>
  <path class="fil4" d="M15914.65 13342.71c152.64,-89.49 587.98,-629.34 358.22,-764.3 12.75,206.27 -55.05,273.46 -137.27,402.23 -76.38,119.62 -181.45,231.25 -220.95,362.07z"/>
  <path class="fil4" d="M5472.96 6967.7c-58,-39.93 -70.67,55.01 -43.86,-49.57 22.26,-32.95 243.74,-166.59 105.75,-327.64 -3.21,233.85 -334.44,358.43 -379.54,450.85 59.43,5.79 124.62,12.3 181.89,3.09 0.77,-0.12 61.43,-18.17 62.98,-18.93l72.78 -57.8z"/>
  <path class="fil4" d="M13926.41 11038.63c4.37,-109.01 6.36,-102.22 94.04,-151.25 55.99,-31.31 90.37,-52.03 147.97,-90.78 107.49,-72.3 198.14,-107.95 210.45,-277.68l-27.47 23.25c-16.39,15.05 -21.29,19.88 -35.62,33.91 -29.03,28.4 -42.06,44.48 -64.7,64.93 -53.4,48.24 -96.52,63.39 -154.84,105.15 -56.06,40.14 -177.36,131.87 -193.19,197.48 -20.32,84.24 -2.18,70.82 23.36,94.99z"/>
  <path class="fil4" d="M16373.6 11241.7c-3.43,-123.06 5.34,-231.87 59.08,-330.56 87.29,-160.31 85.34,-94.42 212.29,-172.7l17.19 -114.08c-242,67.15 -422.8,466.53 -288.56,617.34z"/>
  <path class="fil4" d="M6330.37 6161.26c-8.36,88.96 1.03,64.82 -54.34,109.73 -97.13,-22.72 -135.15,-112.87 -176.48,-196l-51.09 -220.82c6.63,-105.6 7.32,-58.11 35.74,-81.35l-15.82 -53.2c-80.81,77.74 -35.95,334.67 8.56,422.39 62.96,124.1 119.91,203.72 298.42,178.75 9.37,-51.46 18.3,-16.19 -0.69,-84.26 -29.38,-105.34 -18.86,-47.84 -44.3,-75.24z"/>
  <path class="fil4" d="M15179.76 11354.94l63.37 91.84c129.41,9.46 225.83,5.89 287.9,-68.46 17.07,-20.44 54.83,-87.76 64.14,-110.35 9.72,-23.58 20.9,-47.88 19.71,-73.75 -5.57,-121.5 -0.41,-47.35 -35.01,-74.69 -4.09,133.05 -70.2,213.12 -167.44,243.07l-232.67 -7.66z"/>
  <path class="fil4" d="M5681.05 7502.95c-14.52,116.56 18.53,160.18 -83.54,216.57l20.32 -229.38c-48.57,30.84 -50.6,26.29 -55.88,102.92 -12.59,182.8 0.51,289.27 141.08,250.62 25.41,-84.61 28.99,-269.04 -21.98,-340.73z"/>
  <path class="fil4" d="M4792.76 8597.44c172.1,-25.01 240.91,-246.71 249.21,-451.9 -65.92,81.54 -30.55,63.7 -120.5,240.1l-128.71 211.8z"/>
  <path class="fil4" d="M12845.08 11896.58l205.15 -156.4c76.02,-51.42 141.43,-57.07 178.75,-155.2 -22.03,-79.69 1.23,-21.28 -38.79,-43.62l0.26 52.37c-153.88,42.11 -306.97,169.58 -345.37,302.85z"/>
  <path class="fil4" d="M5726.7 7124.88c109.12,-51.83 78.84,-76.69 163.66,-116.15l-13.15 62.95 52.16 -41.03c-59.25,-72.14 -54.75,-43.78 -78.09,-121.68 -69.95,60.93 -100.42,132.26 -124.58,215.91z"/>
  <path class="fil4" d="M14834.92 10565.02l145.78 -21.8 -4.99 -103.66c-68.34,47.78 -86.16,52.65 -140.79,125.46z"/>
  <path class="fil5" d="M1652.39 11566.36l-93.96 -8.24c-32.81,-215.56 -16.34,-455.74 -13.83,-667.74 1.49,-125.31 -4.62,-197.1 30.01,-316.87l81.48 -179.62c34.36,-41.95 12.4,-19.47 50.57,-46.33 25.3,-66.8 21.31,-70.4 80.03,-111.5 -28.76,136.5 -63.37,129.03 -64.32,306.56l0.73 738.65c1.03,149.21 18.06,182.97 -70.71,285.09zm1950.55 1040.03c-194.09,-31.41 -454.4,-141.19 -637.06,-207.35 -181.38,-65.7 -548.88,-59.89 -673.93,-174.87 -194.03,1.08 -353.51,-252.17 -421.85,-422.4 -170.35,-424.32 -78.28,-1032.62 122.94,-1438.47 58.5,-117.99 235.61,-480.75 384.65,-457.31 72.92,180.68 -351.19,346.47 -445.93,1133.24 -51.81,430.27 48.98,1109.56 523.07,1060.53 -8.43,-88.18 -116.79,-263.99 -146.14,-414.22 -75.19,-384.87 146.12,-1078.87 349.88,-1330.77 638.65,-789.54 3276.99,-1132.45 4366.38,-1278.57 216.7,-29.07 846.42,-136.22 1030.61,-115.84 81.76,84.03 168.81,287.95 230.56,397.24 211.12,373.63 484.04,531.23 568.24,1362.1 137.95,1361.3 -268.5,1230.38 -1152,1423.72 -700.19,153.23 -1380.6,314.07 -2089.55,471.37 -351.65,78.02 -691.43,157.12 -1042.8,236.68 -472.76,107.04 -399.49,-68.04 -967.07,-245.08zm2014.89 -5116.25c12.13,-70.01 21.37,-91.34 73.79,-138.78l-10.57 151.59c50.97,71.69 47.39,256.12 21.98,340.73 -140.57,38.65 -153.67,-67.82 -141.08,-250.62 5.28,-76.63 7.31,-72.08 55.88,-102.92zm466.37 -1717.32c23.83,74.15 67.05,153.16 105.22,213.04 37.46,58.76 106.2,116.05 140.95,175.4 25.44,27.4 14.92,-30.1 44.3,75.24 18.99,68.07 10.06,32.8 0.69,84.26 -178.51,24.97 -235.46,-54.65 -298.42,-178.75 -44.51,-87.72 -89.37,-344.65 -8.56,-422.39l15.82 53.2zm2203.7 3021.78c-107.04,-97.69 5.13,-241.7 48.36,-314.81 77.28,-130.7 53.31,-234.96 36.64,-402.56 -48.04,-148.42 -96.56,-238.49 -167.3,-373.95 -34.28,39.15 -311.31,882.02 -886.9,941.49 -30.54,30.33 11.04,15.73 -63.5,39.5 -159.17,50.77 -653.22,-54.01 -1072.31,72.01 -77.91,23.43 -171.7,71.04 -245.95,48.65 -112.13,-33.8 -44.65,-20.54 -70.99,-54.82 -47.48,-71.1 51.99,-136.68 113.66,-173.8 121.42,-73.08 188.07,-49.72 262.49,-123.2 -226.15,-83.41 -371.1,-258.56 -435.07,-544.78 -84.45,-377.88 -20.54,-528.05 70.18,-836.65l13.15 -62.95c-84.82,39.46 -54.54,64.32 -163.66,116.15 -68.74,54.98 -206.67,175.11 -318.45,187.26 -176.99,19.23 -322.12,-11.47 -446.18,-83.27 -68.27,-28.99 -116.81,-76.06 -148.27,-84.63 -30.53,-8.32 -48.85,-6.25 -81.12,5.32 -78.77,28.25 -28.44,7.23 -59.75,36.92 91.68,76.1 104.34,163.1 150.79,202.44 48.78,41.32 71.28,-37.49 179.05,151.62 149.46,262.27 66.27,346.38 39.2,605 -8.3,205.19 -77.11,426.89 -249.21,451.9l-5.69 -4.99c-97.4,92.17 -340.59,318.62 -528.43,335.79 -136.53,25.49 -465.93,262.78 -563.76,335.78 -294.53,219.76 -300.94,332.94 -587.47,330.9 -479.91,-3.43 -1363.18,-411.43 -1207.69,-563.57 92.14,-90.16 339.31,298.78 791.86,354.45l33.42 -5.26c-141.51,-95.94 -272.42,-283.76 -364.45,-476.29 -118.95,-248.84 -133.22,-413.98 -160.4,-726.32 -28.66,-338.74 7.54,-540.75 212.07,-695.47 115.5,-87.37 485.31,-250.76 642.36,-282.22 21.45,-37.25 -24.96,-32.45 21.57,-30.55 -146.16,-35.77 -210.05,-60.24 -288.66,-147.54 -140.59,-156.1 -159.06,-107.52 -218.81,-233.13 -247.11,-69.36 -203.75,-248.68 -186.58,-380.24 37.13,24.97 73.29,87.09 98.88,116.83 41.8,48.58 74.74,72.46 128.49,109.98 103.87,72.51 206.11,116.33 342.12,158.42 194.15,60.1 588.39,160.3 806.34,167.24 240.07,7.64 701.6,7.79 781.68,-196.7 88.79,-226.73 -184.83,-493.33 -255.44,-664.31 -32.9,-31.3 -9.48,31.09 -42.03,-49.19l56.99 -20.67c32.22,-13.74 33.46,-13.48 57.2,-30.14l112.31 -84.23c42.21,41.03 53.16,67.13 108.94,87.29 45.57,-83.09 40.45,-52.34 61.69,-159.79l138.05 133.17c122.63,6.57 178.83,61.66 240.01,117 12.24,-10.07 32.55,-8.66 48.92,-22.9l39 -113.96c78.2,243.71 394.92,464.97 429.6,633.67 137.99,161.05 -83.49,294.69 -105.75,327.64 -26.81,104.58 -14.14,9.64 43.86,49.57 61.23,-61.46 178.43,-96.5 224.45,-170.66 43.94,-70.81 42.53,-273.7 10.86,-352.97 -25.65,-64.17 -131.85,-125.28 -193.84,-217.5 -124.38,-185.04 -55.51,-143.23 -91.15,-333.64 -112.91,-56.74 -55.91,-60.1 -55.3,-102.46 0.85,-58.25 -24.21,-76.58 -40.4,-139.46 -21.8,-84.65 -25.89,-135.69 41.16,-154.94l148.44 43.24c90.41,21.96 100.86,200.94 230.24,367.44 134.38,172.95 185.12,304.27 249.79,358.14 248.67,207.15 654.17,190.75 994.97,105.25l14.24 41.33c26.45,52.7 -37.55,21.31 29.17,40.75l399.54 36.86c-72.14,-262.2 -440.05,-642.18 -735.24,-796.44 -1105.35,-577.67 -2678.2,-161.27 -3731.99,262 -836.29,335.91 -1215.21,618.25 -1580.57,1457.56 -131.04,301.02 -217.87,899.9 -265.26,1256.85 -91.06,685.83 -135.1,2183.38 139.51,2808.18 150.44,342.29 414.6,670.48 658.36,861.57 232.87,182.54 744.08,334.74 1061.99,457.36 368.81,142.26 754.31,281.66 1123.32,417.26 279.23,102.61 313.49,40.5 605.99,-28.6 196.6,-46.44 404.96,-97.02 607.55,-146.84 415.13,-102.1 807.43,-188.51 1228.29,-291.37 817.71,-199.86 1659.21,-408.8 2470.53,-589.96 160.87,-487.52 292.15,-1467.04 126.12,-1983.9 -325.81,-1014.29 -812.18,-1235.15 -855.83,-1378.15z"/>
  <path class="fil6" d="M5870.84 15966.34c-69.73,472.18 -157.98,453.64 -394.25,936.11 -626.09,82.52 -1813,-116.27 -2288.52,-341.29 -355.58,-168.26 -528.15,-308.52 -763.27,-538.7 -139.57,-136.64 -439.42,-572.92 -489.7,-834.25 -95.38,-160.94 -257.99,-573.69 -321.31,-785.24 -112.24,-374.94 -108.61,-598.94 -120.58,-1009.75 -124.82,55.39 -528.76,629.28 -632.91,805.28 -180.82,305.55 -315.51,650.47 -369.75,1056.89 -86.61,649.01 -57.76,2121.37 114.83,2722.16l6835.54 -0.82c8.45,-79.41 -111.76,-585.13 -130.45,-749.18 -149.41,-1311.47 361.71,-1974.76 388.23,-2174.85l-576.31 0.79c-78.73,106.53 -103.65,166.75 -189.37,248.54 -70.92,67.68 -150.94,125.75 -255.23,178.59 -207.67,105.23 -440,140.02 -699.45,148.57l-107.5 337.15z"/>
  <path class="fil5" d="M13993.09 13611.02c-62.38,-149.74 248.12,-309.87 360.01,-373.19 154.93,-87.67 400.8,-187.86 611.12,-119.53l-3.26 98.31c-95.34,26.23 -203.75,7.69 -312.24,36.17 -402.2,105.59 -498.77,384.31 -655.63,358.24zm31.12 -702.5c-5.57,-104.01 241.25,-475.9 326.95,-392.45 66.61,64.86 -65.72,189.8 -107.44,243.93 -135.91,176.33 -94.24,171.68 -219.51,148.52zm-1249.36 -685.44c-0.65,-3.05 -3.95,11.52 -7.29,16.53 -145.7,67.58 -143.37,-197.85 -139.43,-329.11 -46.15,-29.98 -338.41,-161.71 -143.71,-208 17.26,-4.1 266.41,90.06 305.22,121.2 6.47,114.56 -34.61,100.66 -26.93,215.09 3.99,59.46 19.27,67.02 22.69,113.79 3.94,53.97 0.38,23.49 -4.43,53.74 -0.66,4.12 -5.48,19.78 -6.12,16.76zm2382.92 -1180.64c-72.22,96.23 -142.15,160.49 -243.11,148.41 -30.59,-150.49 23.82,-83.71 61.43,-187.8 -54.26,-20.92 -146.79,-30.42 -175.86,-69.01 -120.69,-160.23 315.92,-129.19 357.54,108.4zm-1354.44 172.52c-45.94,3.29 -16.47,6.84 -46.9,-10.08 -102.06,-56.76 -55.77,-258.73 -49.56,-318.02 -74.23,-0.42 -182.17,27.39 -180.14,-60.31 2.6,-112.06 390.56,-125.34 328.31,88.24 -57.81,198.32 75.88,291.02 -51.71,300.17zm-958.25 681.62c38.4,-133.27 191.49,-260.74 345.37,-302.85l-0.26 -52.37c-173.42,-204.58 -402.95,-204.2 -630.51,-53.18 -202.27,134.24 -315.48,284.05 -222.17,612.06 74.21,260.88 315.34,673.14 509.68,834.74 74.71,62.12 201.93,119.85 234.43,212.52 -117.28,250.27 -1067.68,604.46 -1423.7,718.42 -510.67,163.46 -1144.74,356.48 -1735.56,379.28 -728.02,28.1 -2281.51,-52.55 -3029.32,-161.78 -283.66,-41.44 -641.38,-118.59 -932.26,-145.2l-333.84 922.17c491.63,19.28 985.45,30.52 1473.75,45.43 1426.61,43.54 2893.58,139.05 4260.5,-147.68 818.96,-171.79 1612.75,-370.56 2398.77,-597.42 783.98,-226.28 890.48,-105.11 1720.52,-534.2 368.3,-190.39 207.19,-118.96 434.17,-283.81 39.5,-130.82 144.57,-242.45 220.95,-362.07 82.22,-128.77 150.02,-195.96 137.27,-402.23 -127.12,17.67 -165.83,106.39 -245.4,164.02 -73.42,53.16 -174.29,85.6 -279.94,110.09 -270.01,62.59 -480.01,-97.42 -369.22,-333.5 44.24,-105.22 161.38,-200.5 243.49,-269.09 75.18,-62.8 200.41,-176.28 278.58,-228.8 49.96,-77.95 75.5,-48.42 121.49,-154.03 -72.17,-164.72 -166.03,-56.83 -152.98,-217.02 102.37,-52.95 171.6,28.41 232.59,76.81 38.82,-33.54 30.85,-25.45 13.7,-98.82 -149.48,-313.49 -725.29,230.53 -805.64,288.22 -280.99,201.75 -299.11,3.4 -454.06,196.87 -44.83,55.97 -96.68,114.43 -128.27,195.97 -40.6,104.79 -0.59,164.13 -134.07,159.39 -93.52,-169.93 127.19,-416.58 211.3,-489.5 -38.23,-223.61 -78.7,-213.57 50.22,-430.96 81.27,-137.05 131.74,-235.68 325.1,-193.12l232.67 7.66c97.24,-29.95 163.35,-110.02 167.44,-243.07 -16.88,-149.56 -720.83,-691.74 -948.39,-250.53 -71.19,138.03 -511.39,952.97 -519.7,1025.61 57.34,43.22 115.58,64.85 158.1,102.7 -1.1,117.94 -81.81,128.41 -145.66,230.66 -72.27,115.73 -34.85,197.15 -88.55,278.91 -144.68,15.39 -122.1,-118.23 -85.58,-236.03 30.02,-96.84 81.99,-158.51 128.55,-214.41 -247.77,-280.43 12.92,-306.36 82.09,-591.06 -112.06,-57.81 -243.23,-230.44 -234.32,-426.75 -25.54,-24.17 -43.68,-10.75 -23.36,-94.99 15.83,-65.61 137.13,-157.34 193.19,-197.48 58.32,-41.76 101.44,-56.91 154.84,-105.15 22.64,-20.45 35.67,-36.53 64.7,-64.93 14.33,-14.03 19.23,-18.86 35.62,-33.91l27.47 -23.25c-45.03,-165.91 -223.16,-160.03 -418.38,-139.09 -184.39,19.77 -245.74,102.09 -337.97,196.55 -155.29,159.05 -340.51,530.32 -162.93,791.07 90.65,133.11 161.55,151.46 124.6,409.64 -42.9,299.77 -210.09,610.84 -573.21,494.37 -152.98,-49.06 -167.65,-190.63 -165.9,-374.88z"/>
  <path class="fil6" d="M5822 13907.06c-91.88,-54.97 -494.85,-145.05 -639.42,-187.79 -628.04,-185.62 -1191.84,-403.56 -1798.7,-631.01 -206.51,-77.4 -398.21,-150.39 -600.08,-224.42 -432,-158.42 -743.81,-441.88 -1047.3,84.44 -110.06,190.87 -115.06,457.51 -111.73,698.36 7.09,512.08 160.78,897.55 346.32,1289.09 189.74,400.41 435.05,618.7 796.9,829.05 449.02,261.04 1836.34,733.31 2432.26,816.96 -22.07,-665.26 8.74,-873.33 187.66,-1458.5 81.9,-267.86 409.59,-1080.83 434.09,-1216.18z"/>
  <path class="fil6" d="M8840.21 12324.89c-26.76,173.27 -69.59,188.71 -196.37,261.21 -99.14,56.69 -190.65,91.42 -285.32,127.45 -209.97,79.9 -456.27,125.22 -656.96,199.46 -7.6,316.47 -218.16,809.79 -222.64,1092.14 622.19,87.43 1367.56,117.44 2008.87,114.74 34.27,-312.67 -39.22,-285.49 77.84,-786.18 379.82,-1624.6 821.04,-1416.69 998.21,-1575.12l-162.53 -64.67c-52.68,-15.66 -110.07,-32.85 -153.73,-46.02 -209.07,-63.05 -790.77,-257.03 -938.35,-268.9 -13.83,194.64 -55.27,434.44 -103.32,619.94 -54.24,209.41 -126.22,353.46 -365.7,325.95z"/>
  <path class="fil5" d="M15564 11542.09c179.4,-65.8 356.93,-239.6 582.52,-83.08 113.32,78.62 249.69,300.4 175.93,515.25 -121.84,354.88 -783.67,610.37 -832.22,652.4 51.33,226.8 402.06,60.05 518.7,-54.13 379.02,-371.06 673.19,60.99 240.22,630.42 -61.65,81.08 -98.46,119.73 -184.63,205.87 -75.72,75.69 -138.18,98.02 -219.81,172.71 40.12,46.74 100.55,63.8 155.47,85.33 300.06,117.58 928.09,352.42 1176.1,44.88 -55.19,-383.1 -832.13,-265.51 -755.87,-631.94 50.4,-130.24 169.78,-209.34 311.89,-261.59 240.31,-88.36 246.8,-43.76 479.64,-46.7 231.15,28.2 -75.12,178.59 218.74,348.44 141.64,-144.1 78.53,-244.31 297.26,-406.48 -91.49,-345.38 -723.89,-179.68 -933.31,-339.6 -75.12,-57.37 -150.41,-135.74 -179.01,-218.86 -63.08,-54.97 -46.24,-149.23 -19.96,-234.74 21.14,-68.78 49.86,-116.29 96.88,-161.75 116.41,-112.52 221.64,-100.16 402.4,-108.15 5.5,-46.38 22.37,-101.64 50.36,-135.93 37.26,-45.65 27.29,-39.68 67.65,-40.43 158.21,-2.94 34.3,111.48 2.79,221.15 -132.52,461.26 227.34,549.68 338.84,426.13 55.07,-92.84 10.74,-429.62 36.84,-565.25 22.2,-115.35 53.12,-134.02 -19.86,-219.28 -316,-369.18 -963.96,58.46 -1187.34,32.29l-10.62 -127.35c-134.24,-150.81 46.56,-550.19 288.56,-617.34 9.26,-128.07 15.89,-171.65 135.76,-164.28 35.15,98.38 -21.18,155.9 -8.56,294.52 95.32,87.56 207.09,102.27 369.04,79.04 7.82,-85.59 -18.93,-154.54 -30.17,-228.37 -13.41,-88.01 0.34,-170.75 -1.37,-256.77 -97.36,-52.54 -114.95,-95.32 -271.24,-125.74 -316.43,-61.58 -656.6,56.66 -803.42,309.66 -98.59,169.88 -108.96,384.97 -202.76,556.62 -54.55,99.83 -81.64,106.77 -136.8,231.18 -47.02,106.04 -92.69,156.37 -148.64,221.87z"/>
  <path class="fil7" d="M4105.86 7737.04c462.98,-132.5 608.48,513.99 230.38,650.46 -469.41,169.41 -660.84,-527.26 -230.38,-650.46zm-594.45 -510.66c-113.67,-13.3 -293.26,59.53 -404.31,88.28 116.64,77.52 437.7,-44.5 545.42,153.92 -293.8,-12.94 -513.97,-36.83 -822.06,-29.8 -89.8,11.25 -170.33,50.07 -231.15,93.56 280.19,71.55 419.75,-68.82 743,116.11 -366.1,-29.81 -558.46,-58.64 -935.63,31.04 -64.36,74.21 -80.39,181.6 -81.23,295.85 35.29,20.31 14.21,7.03 44.03,28.58 203.18,146.8 426.59,47.81 785.05,44.24 -89.45,65.91 -282.56,100.1 -412.04,129.7 -262.43,60 -249.13,-19.85 -414.82,-61.38 31.35,206.67 76.14,402.91 185.62,535.23 532.72,41.15 389.18,-85.91 718.28,-206.63 -33.97,30.72 -58.91,56.92 -105.68,97.38 -64.66,55.94 -73.11,41.29 -108.08,125.85l219.63 -73.26c-149.96,260.6 -448.34,169.6 -564,188.76 -89.63,14.85 -35.81,2.86 -69.12,28.79 42.51,72.21 90.05,105.08 174.6,148.67 660.06,30.1 617.15,-197.1 909.45,-348.7 -197.3,364.11 -602.08,415.49 -689.16,474.64 451.02,70.04 661.06,2.7 992.99,-176.18 600.5,-323.6 1043.57,-858.49 670.2,-1529.18 -172.62,-310.07 -536.07,-198.23 -941.95,-212.31 44.2,64.5 20.08,25.37 96.01,82.38 27.43,20.6 47.94,37.26 69.5,81.09l-374.55 -106.63z"/>
  <path class="fil7" d="M7916.71 7505.07c-138.08,443.33 -797.07,245.37 -658.91,-210.2 123.89,-408.48 795.92,-229.69 658.91,210.2zm43.6 289.63c-208.53,481.86 -788.27,456.14 -1023.64,69.11 -110.69,-182.02 -103.06,-505.34 1.85,-693.13 120.45,-215.61 174.6,-349.04 488.72,-360.41 -175.84,137.61 -299.85,76.52 -409.91,329.35 -317.77,730.01 497.24,1196.42 942.98,655.08zm-1566.16 -1027.87c124.37,64.56 343.19,1.42 443.57,99.46l-616.79 3.24c-88.81,82.58 -163.92,142.78 -206.74,262.19 228.64,7.53 328.48,3.35 541.11,61.51l-370.79 51.49c73.97,170.03 143.62,207.06 375.32,214.19 -230.2,160.08 -397.74,-61.01 -511.97,-176.71l-102.26 8.83c-36.07,151.77 -55.45,348.38 -21.38,511.92l642.69 18.12c-79.97,100.26 -439.33,102.13 -587.84,108.52l10.4 118.75c52.39,102.38 158.35,233.53 274.64,255.26l566.17 -26.17c-32.11,59.66 29.89,12.17 -60.23,70.56 -72,46.65 -222.16,36.02 -291.82,68.85 331.94,138.27 811.52,180.43 1109.47,-34.24 181.84,-131.02 502.97,-515.05 486.44,-897.74 -17.82,-412.6 -278.37,-666.68 -559.09,-806.31 -295.6,-147.02 -912.07,-108.2 -1120.9,88.28z"/>
  <path class="fil5" d="M10038.88 12380.49c-20.89,130.36 -71.05,224.46 -3.81,332.98 17.25,13.81 2021.24,49.62 2320.11,31.47 136.56,-8.29 117.59,12.26 124.6,-64.62 -138.9,-179.57 -304.8,-539.05 -307.21,-839.36 -197.73,-4.51 -429.76,39.7 -644.69,42.69 -427.1,5.94 -1282.86,-157.05 -1489,496.84z"/>
  <path class="fil8" d="M5242.82 13605.44c186.5,14.49 1373.62,401.52 2101.88,378.76 44.17,-303.22 189.05,-686.03 203.95,-993.58l-13.93 -41.4c-490.27,80.7 -1937.14,411.94 -2348.29,603.41l56.39 52.81z"/>
  <path class="fil7" d="M5089.26 10000.76c4.55,85.41 443.74,945.01 492.31,1003.31l251.07 -38.53c25.27,-165.54 -99.94,-261.5 -129.65,-434.02 121.22,56.97 140.65,240.43 225.81,408.85 51.8,6.23 124.12,16.66 176.97,4.24 100.37,-23.6 73.72,-7.11 77.71,-132.59 -112.17,48.71 -122.77,99.91 -210.85,35.1 52.81,-72.83 203.78,-21.57 118.58,-159.4 -56.02,-90.61 -96.21,-120.71 -104.9,-257.79 117.46,49.55 74.9,127.14 159.51,226.06 51.45,-29.48 40.36,-23.85 69.5,-87.77l39.01 -111.86c123.48,46.65 27.56,110.59 -16.82,202.85 -72.55,150.8 25.52,11.55 11.7,274.46l223.5 -0.1c2.05,-155.29 -92.48,-693.96 -120.63,-913.88 -16.34,-127.67 10.87,-235.23 -97.06,-252.21 -418.74,-65.87 -874.28,57.06 -1165.76,233.28z"/>
  <path class="fil7" d="M4952.23 11747.58c-70,-131.07 104.49,-400.28 121.23,-510.71l-309.34 22.58c-28.62,63.11 -42.92,287.65 -26.31,350.69 30.25,114.83 37.38,19.12 3.73,155.14 -24.05,97.23 -1.6,96.67 -71.44,122.2 -45.54,-78.5 -8.19,-72.48 -2.72,-156.06 8.65,-132.14 -15.41,-30.86 -18.07,-142.31 -2.19,-91.65 20.63,-214.36 16.7,-327.01 -139.18,-17.11 -177.53,-39.37 -198.78,81.98l-82.63 717.1c-28.52,243.03 -163.09,569.32 415.71,569.32 704.29,0 572.34,-908.64 569.13,-1429.93l-221.3 37.18c-18.45,114.17 2.69,59.12 16.41,151.91 -121.92,61.86 -83.31,29.61 -120.75,180.26 -20.56,82.73 -20.93,157.23 -91.57,177.66z"/>
  <path class="fil7" d="M6471.85 9781.69c-8.04,99.7 117.26,1042.66 151.4,1148.18 163.63,26.69 122.93,38.73 125.97,-175.17 1.25,-87.8 -13.94,-186.26 47.65,-226.36 62.43,101.13 -37.94,310.55 42.8,382.01 44.09,39.01 155.57,34.36 218.99,25.34 106.36,-15.12 104.89,-52.74 134.47,-131.97 -58.26,-108.82 -213.41,-154.08 -114.14,-284 3.2,4.66 6.09,7.2 7.29,15.31 1.2,8.1 5.66,11.88 7.35,15.28l65.18 53.3 27.52 -84.81c29.92,-59.3 22.93,-47.1 88.15,-66.23 -14.14,81.85 -40.63,79.87 -42,224.93 -1.49,157.4 39.5,56.35 -18.16,232.76 187.09,1.91 137.46,-109.95 189.43,-564.67 25.41,-222.29 75.77,-496.56 75.26,-718.37 -429.11,-88.11 -734.48,-64.42 -1007.16,154.47z"/>
  <path class="fil7" d="M4298.84 11572.01l26.73 -279.59 -289.54 13.39c-51.14,169.03 9.4,177.39 -5.07,258.11 -9.28,51.71 -3.34,29.55 -35.2,54.57 17.3,99.72 28.1,73.34 1.59,117.67 -108.25,-61.58 -41.2,-124.89 -43.66,-242.17 -165.4,28.77 -178.39,235.21 -303.56,315.05 -13.89,-23.88 -49.02,52.81 -11.31,-82.13l133.45 -193.63c56.1,-78.32 187.84,-108.43 173.4,-244.02 -185.38,-43.12 -265.63,-12.45 -349.46,89.98 -148.74,181.7 -407.86,690.03 -428.13,879.6 142.31,44.01 305.96,129.38 442.45,189.57 424.67,187.29 548.31,295.41 630.03,-311.21 20.22,-150.05 63.44,-428.58 58.28,-565.19z"/>
  <path class="fil7" d="M3992.49 10168.48c25.81,91.18 509.82,852.09 590.81,949.8l255.03 5.1c13.08,-200.95 -7.81,-164.05 -143.16,-192.58 -98.56,-20.77 -32.29,-0.73 -103.82,-70.46 -54.16,-52.8 -67.45,-30.5 -83.25,-100.02 79.4,-51.09 127.99,53.83 207.37,92.44 5,-40.4 0.72,-68.91 2.39,-92.95l17.35 -86.17c148,59.01 5.68,88.27 92.04,211.33 75.47,107.54 46.96,-40.54 87.97,218.05l303.56 -21.48c3.9,-199.1 -92.76,-99.08 -162.33,-296.83 -19.16,-54.46 -23.04,-52.81 4.28,-98.48 55.67,19.21 79.78,121.1 119,171.62 103.71,133.6 55.06,-3.17 119.72,203.86l130.62 -3.22c-8.72,-94.67 -436.74,-917.5 -506.71,-1048.69 -331.66,-39.01 -667.29,67.51 -930.87,158.68z"/>
  <path class="fil7" d="M5776.89 11577.55c-36.64,-79.93 30.35,-177.73 66.81,-231.17 66.97,-98.14 -7.55,-87.92 29.38,-244.47 -346.73,25.2 -54.49,259.63 -204.7,444.06 -69.06,-89.32 -34.6,-308.19 -17.43,-403.13 -212.35,28.92 -147.46,111.33 -147.23,333.62 0.4,372.52 -91.61,1037.32 453.85,921.64 187.82,-39.83 222.15,-33.8 303.56,-177.54 128.34,-226.62 57.71,-548.82 23.37,-792.32 -21.93,-155.47 -18.45,-372.77 -116.98,-354.52 -118.41,21.94 -18.26,287.07 -65.11,376.74 -107.29,-53.18 -35.46,-265.69 -44,-365.99 -318.81,8.71 24.14,336.97 -64.5,495.56 -87.13,-27.49 -64.84,-62.86 -90.74,-141.84 -38.33,50.36 -60.07,119.8 -126.28,139.36z"/>
  <path class="fil7" d="M7486.8 10847.04c257.95,-22.5 93.56,-140.71 138.05,-301.69 12.76,-46.16 26.35,-95.95 38.46,-132.35l63.21 44.09c94.86,70.16 -72.55,-15.95 21.21,15.73l108.87 -119.39c17.04,28.17 59.77,-41.95 11.44,85.64 -20.67,54.57 -163.44,122.02 -176.45,168.39 11.28,120.45 18.57,9.59 28.89,92.09 13.63,108.93 -28.66,-27.52 -6.59,118.36l165.04 -13.71c22.66,-73.39 18.34,-169.87 58.58,-227.83 27.42,-39.49 42.61,-35.91 72.44,-77.76 73.68,-103.4 -4.39,-62.08 73.89,-89.19 58.83,182.3 -138.48,96.27 -128.33,386.7l140.91 -17.9c94.18,-217.38 138.82,-861.01 138.82,-1146.39 0,-385.94 -583.42,-255.28 -626.87,121.82 -37.93,329.15 -112.71,764.36 -121.57,1093.39z"/>
  <path class="fil7" d="M6558.15 11230.5c-79.16,-35.76 -89.6,-66.4 -70.16,-162.15l-112.95 7.91c2.08,173.97 80.61,621.21 137.83,771.52 103.11,270.87 195.12,387.85 525.75,306.74 172.07,-42.21 234.72,-22.43 283.75,-192.49 39.23,-136.06 1.15,-264.7 -52.54,-372.42 -52.5,-105.32 -102.3,-188.56 -159.32,-297.17 -78.01,-148.58 -55.88,-229.44 -254.08,-210.1 8.76,108.88 201.89,335.98 27.24,407.81 -31.3,-52.4 -13.09,-133.03 -8.3,-209.78l-228.54 70.16c-7.21,108.41 59.66,90.84 -1.87,187.93 -55.81,-27.59 -71.78,-117.94 -79.13,-208.61 103.42,-67.35 193.53,-72.49 255.6,-113.8 -34.49,-80.62 -10.47,-96.08 -68.21,-142.73l-188.16 20.97c-24.41,118.16 40.68,53.24 -6.91,136.21z"/>
  <path class="fil7" d="M7599.83 10976.22c-57.88,35.9 59.71,183.21 58.53,253 -116.28,-10.08 -102.8,-123.95 -149.09,-224.04 -80.61,-6.84 -109.48,-3.92 -164.1,37.26 24.53,40 111.74,136.44 160.43,298.78 -159.76,21.59 -82.09,-59.9 -142.15,-172.84 -76.78,-144.4 -168.97,-111.36 -212.59,-109.28 54.51,188.3 323.68,637.43 433.56,758.42 129.32,142.4 150.3,178.57 392.19,124.96 159.63,-35.38 308.15,-71.43 465.66,-102.46 12.6,-212.54 -214.02,-417.14 -308.77,-506.45 -120.95,-114.01 -337.41,-370.21 -443.62,-371.79 2.22,164.75 94.78,147.87 168.88,254.27l-85.32 154.9c-3.8,-4.65 -7.14,-11.82 -8.88,-15.69l-15.02 -32.45c-1.85,-5.49 -3.61,-11.33 -5.21,-17.18 0,0 -7.57,-49.16 -8.5,-54.76 -28,-169.64 -47.68,-78.79 -99.96,-178.44 -30.33,-57.8 12.08,-24.33 -36.04,-96.21z"/>
  <path class="fil7" d="M3090.49 10738.61c86.19,93.87 367.98,263.1 526.22,306.3 -100.47,-289.08 -135.29,-158.61 -175.71,-262.89 81.62,-47.15 50.84,36.97 177.01,11.71 -17.79,-77.66 -53.4,-41.81 -11.29,-118.81 162.4,64.92 58.99,153.41 17.48,237.31 52.43,97.33 54.9,122.95 152.56,177.56 93.74,52.42 147.12,63.38 285.44,66.96 -77.67,-234.09 -124.83,-130.43 -162.15,-364.3 146.76,53.09 19.62,-22.24 136.35,168.79 44.18,72.29 75.81,134.08 113.72,187.66l251.32 -8.84c0.68,-73.68 -496.5,-840.91 -556,-902.76 -321.93,31.14 -674.38,303.95 -754.95,501.31z"/>
  <path class="fil9" d="M2994.39 10613.31c539.2,-582.76 472.64,-335.34 957.09,-572.27 287.94,-140.82 667.77,-180.17 990.44,-154.77 203.23,16 370.37,-307.31 1269.05,-253.35 243.87,14.64 154.67,34.19 325.95,-66.8 175.2,-103.28 430.53,-119.31 672.41,-114.22 93.01,1.95 301.59,53.41 340.09,43.62 64.81,-16.47 138.58,-140.7 223,-145.92 -35.78,-66.84 2.94,-38.11 -85.5,-49.63l-582.49 98.1c-254.91,38.21 -455.51,28.78 -720.67,39.01 -429.63,16.59 -845.31,194.2 -1279.87,258.93 -872.1,129.91 -1021.02,181.65 -1748.54,554.52 -174.26,89.32 -347.62,148.25 -397.21,357.87 19.46,18.03 -32.48,36.58 36.25,4.91z"/>
  <path class="fil5" d="M14834.92 10565.02c54.63,-72.81 72.45,-77.68 140.79,-125.46 30.77,-74.21 15.21,-51.91 110.51,-47.06 67.62,172.18 7.23,179.32 179.1,276.52 146.71,82.96 191.71,144.22 280.85,155.3l66.18 -58.29c-18.46,-88.19 -104.53,-148.43 -153,-247.38 -73.5,-150.04 -36.67,-164.67 -67.85,-321.55 -321.19,-155.86 -465.63,96.06 -772.66,268.29 -214.7,120.43 -34.36,179.83 -225.58,338.69 -94.98,78.91 -210.38,135.28 -326.97,216.66 -7.43,148.06 60.28,280.9 185.52,315.77 47.04,-134.18 160.57,-325.69 230.73,-464.15 107.66,-212.43 133.76,-217.1 352.38,-307.34z"/>
  <path class="fil8" d="M6022.69 15486.58c269.25,44.31 751.32,-118.56 932.19,-429.33 -71.43,-46.5 -270.35,-36.59 -375.02,-40.6 -129.87,-4.97 -261.24,-14.32 -390.64,-11.64 -3.77,5.14 -7.94,12.13 -10.24,16.14l-83.64 224.9c-27.49,87.48 -52.37,160.43 -72.65,240.53z"/>
  <path class="fil7" d="M7937.13 10944c117.35,116.28 223.15,215.54 358.67,357.45 293.37,307.23 186.54,285.11 302.31,438.68 113.6,-88.3 135.7,-253.35 129.18,-440.43 -190.22,-111.69 -490.09,-391.34 -634.81,-391.65 65.52,151.93 156.54,73.87 201.46,202.14 -183.16,-20.2 -171.3,-146.86 -356.81,-166.19z"/>
  <path class="fil5" d="M13385.88 11989.82c62.67,-125.63 158.84,-477.52 -57.92,-514.46 14.87,112.36 41.2,100.61 17.18,237.95 -114.07,78.77 -286.17,160.45 -366.07,262.3 -54.67,159.8 258.62,311.26 406.81,14.21z"/>
  <path class="fil9" d="M4164.22 12700.13c137.62,55.22 136.08,75.08 308.27,29.83 -53.97,-40.71 -134.87,-88.78 -193.02,-131.4 -31.5,13.9 -48.41,17.91 -73.82,40.9 -51.42,46.51 -15.25,11.42 -41.43,60.67z"/>
  <path class="fil9" d="M5558.68 12474.75c-37.53,-53.59 -62.45,-66.88 -100.4,-134.99 -66.17,49.2 -23.63,-0.69 -79.81,106.18 -17.06,32.47 -33.96,57.54 -50.41,92.54l230.62 -63.73z"/>
  <path class="fil9" d="M6573.79 12257.73c-15.05,-55.6 -71.61,-112.7 -112.49,-166.79l-76.2 209.1 188.69 -42.31z"/>
  <path class="fil9" d="M7491.32 11918.61c-33.35,40.14 -32.93,65.36 -45.63,138.28l148.26 -35.34 -102.63 -102.94z"/>
  <path class="fil10" d="M1935.1 15188.21c223,210.32 245.24,410.35 842.43,742.19 489.06,271.76 1762.03,635.53 2349.3,778.81 204.7,49.94 189.49,87.77 443.15,-252.68 163.92,-220.01 147.18,-235.47 251.73,-419.85l49.13 -70.34 107.5 -337.15c259.45,-8.55 491.78,-43.34 699.45,-148.57 104.29,-52.84 184.31,-110.91 255.23,-178.59 85.72,-81.79 110.64,-142.01 189.37,-248.54l576.31 -0.79c-26.52,200.09 -537.64,863.38 -388.23,2174.85 18.69,164.05 138.9,669.77 130.45,749.18l-6835.54 0.82c-172.59,-600.79 -201.44,-2073.15 -114.83,-2722.16 54.24,-406.42 188.93,-751.34 369.75,-1056.89 104.15,-176 508.09,-749.89 632.91,-805.28 11.97,410.81 8.34,634.81 120.58,1009.75 63.32,211.55 225.93,624.3 321.31,785.24zm4087.59 298.37c20.28,-80.1 45.16,-153.05 72.65,-240.53l83.64 -224.9c2.3,-4.01 6.47,-11 10.24,-16.14 129.4,-2.68 260.77,6.67 390.64,11.64 104.67,4.01 303.59,-5.9 375.02,40.6 -180.87,310.77 -662.94,473.64 -932.19,429.33zm-200.69 -1579.52c-24.5,135.35 -352.19,948.32 -434.09,1216.18 -178.92,585.17 -209.73,793.24 -187.66,1458.5 -595.92,-83.65 -1983.24,-555.92 -2432.26,-816.96 -361.85,-210.35 -607.16,-428.64 -796.9,-829.05 -185.54,-391.54 -339.23,-777.01 -346.32,-1289.09 -3.33,-240.85 1.67,-507.49 111.73,-698.36 303.49,-526.32 615.3,-242.86 1047.3,-84.44 201.87,74.03 393.57,147.02 600.08,224.42 606.86,227.45 1170.66,445.39 1798.7,631.01 144.57,42.74 547.54,132.82 639.42,187.79zm4230.12 173.61l499.14 -1128.49c456.56,0 1385.56,26.3 1817.23,-27.41 63.62,-7.91 165.66,-35.94 244.42,-37.69 55.39,82.71 159.27,211.71 260.42,238.72l0 43.4c-69.88,18.66 -208.52,123.09 -289.24,166.49 -110.79,59.58 -210.21,97.5 -325.67,151.76 -421.93,198.31 -1766.69,593.22 -2206.3,593.22zm7531.08 -929.67l101.27 -232.23c13.73,21.44 56.28,18.85 -3.15,128.68 -35.34,65.31 -40.14,76.13 -98.12,103.55zm-10034.55 -160.38c-14.9,307.55 -159.78,690.36 -203.95,993.58 -728.26,22.76 -1915.38,-364.27 -2101.88,-378.76l-667.64 -219.09c2.77,-0.39 9.74,-12.71 12.3,-8.3 2.53,4.34 10.4,-9.48 13.97,-11.71 75.34,-47.1 229.11,-68.56 327.02,-92.41l1890.7 -450.84c241.82,-59.63 556.63,-153.55 790.38,-182.5 -6.97,99.1 -13.18,283.3 -60.9,350.03zm2490.23 -610.13c206.14,-653.89 1061.9,-490.9 1489,-496.84 214.93,-2.99 446.96,-47.2 644.69,-42.69 2.41,300.31 168.31,659.79 307.21,839.36 31.96,31.73 31.8,-53.44 37.15,80 -849.33,59.18 -1786.29,64.57 -2647.71,43.62l126.84 -360.29c2.75,-5.29 5.6,-10.75 8.57,-15.85 3.09,-5.32 7.17,-10.94 10.23,-15.75l24.02 -31.56zm-2337.32 532.52l62.1 -317.05c310.44,-119.81 764.19,-140.12 1076.55,-271.07 239.48,27.51 311.46,-116.54 365.7,-325.95 48.05,-185.5 89.49,-425.3 103.32,-619.94 147.58,11.87 729.28,205.85 938.35,268.9 43.66,13.17 101.05,30.36 153.73,46.02l162.53 64.67c-177.17,158.43 -618.39,-49.48 -998.21,1575.12 -117.06,500.69 -43.57,473.51 -77.84,786.18 -641.31,2.7 -1386.68,-27.31 -2008.87,-114.74 4.48,-282.35 215.04,-775.67 222.64,-1092.14zm7862.44 -1370.92c-159.82,126.72 -478,444.04 -621.16,318.69 -114.6,-110.41 77.07,-318.61 123.9,-380.3 13.18,6.94 143.82,210.28 497.26,61.61zm-2236.04 -66.73c216.76,36.94 120.59,388.83 57.92,514.46 -148.19,297.05 -461.48,145.59 -406.81,-14.21 79.9,-101.85 252,-183.53 366.07,-262.3 24.02,-137.34 -2.31,-125.59 -17.18,-237.95zm598.45 -436.73c-8.91,196.31 122.26,368.94 234.32,426.75 -69.17,284.7 -329.86,310.63 -82.09,591.06 -46.56,55.9 -98.53,117.57 -128.55,214.41 -36.52,117.8 -59.1,251.42 85.58,236.03 53.7,-81.76 16.28,-163.18 88.55,-278.91 63.85,-102.25 144.56,-112.72 145.66,-230.66 -42.52,-37.85 -100.76,-59.48 -158.1,-102.7 8.31,-72.64 448.51,-887.58 519.7,-1025.61 227.56,-441.21 931.51,100.97 948.39,250.53 34.6,27.34 29.44,-46.81 35.01,74.69 1.19,25.87 -9.99,50.17 -19.71,73.75 -9.31,22.59 -47.07,89.91 -64.14,110.35 -62.07,74.35 -158.49,77.92 -287.9,68.46l-63.37 -91.84c-193.36,-42.56 -243.83,56.07 -325.1,193.12 -128.92,217.39 -88.45,207.35 -50.22,430.96 -84.11,72.92 -304.82,319.57 -211.3,489.5 133.48,4.74 93.47,-54.6 134.07,-159.39 31.59,-81.54 83.44,-140 128.27,-195.97 154.95,-193.47 173.07,4.88 454.06,-196.87 80.35,-57.69 656.16,-601.71 805.64,-288.22 388.05,359.49 -458.52,794.25 -736.87,890.95 -110.79,236.08 99.21,396.09 369.22,333.5 105.65,-24.49 206.52,-56.93 279.94,-110.09 79.57,-57.63 118.28,-146.35 245.4,-164.02 229.76,134.96 -205.58,674.81 -358.22,764.3 -226.98,164.85 -65.87,93.42 -434.17,283.81 -830.04,429.09 -936.54,307.92 -1720.52,534.2 -786.02,226.86 -1579.81,425.63 -2398.77,597.42 -1366.92,286.73 -2833.89,191.22 -4260.5,147.68 -488.3,-14.91 -982.12,-26.15 -1473.75,-45.43l333.84 -922.17c290.88,26.61 648.6,103.76 932.26,145.2 747.81,109.23 2301.3,189.88 3029.32,161.78 590.82,-22.8 1224.89,-215.82 1735.56,-379.28 356.02,-113.96 1306.42,-468.15 1423.7,-718.42 -32.5,-92.67 -159.72,-150.4 -234.43,-212.52 -194.34,-161.6 -435.47,-573.86 -509.68,-834.74 -93.31,-328.01 19.9,-477.82 222.17,-612.06 227.56,-151.02 457.09,-151.4 630.51,53.18 40.02,22.34 16.76,-36.07 38.79,43.62 -37.32,98.13 -102.73,103.78 -178.75,155.2l-205.15 156.4c-1.75,184.25 12.92,325.82 165.9,374.88 363.12,116.47 530.31,-194.6 573.21,-494.37 36.95,-258.18 -33.95,-276.53 -124.6,-409.64 -177.58,-260.75 7.64,-632.02 162.93,-791.07 92.23,-94.46 153.58,-176.78 337.97,-196.55 195.22,-20.94 373.35,-26.82 418.38,139.09 -12.31,169.73 -102.96,205.38 -210.45,277.68 -57.6,38.75 -91.98,59.47 -147.97,90.78 -87.68,49.03 -89.67,42.24 -94.04,151.25zm2735.75 -414.27l-17.19 114.08c-126.95,78.28 -125,12.39 -212.29,172.7 -53.74,98.69 -62.51,207.5 -59.08,330.56l10.62 127.35c223.38,26.17 871.34,-401.47 1187.34,-32.29 72.98,85.26 42.06,103.93 19.86,219.28 -26.1,135.63 18.23,472.41 -36.84,565.25 -111.5,123.55 -471.36,35.13 -338.84,-426.13 31.51,-109.67 155.42,-224.09 -2.79,-221.15 -40.36,0.75 -30.39,-5.22 -67.65,40.43 -27.99,34.29 -44.86,89.55 -50.36,135.93l-39.01 144.07c-264.46,44.8 -443.26,82.23 -440.31,360.57 28.6,83.12 103.89,161.49 179.01,218.86 209.42,159.92 841.82,-5.78 933.31,339.6 -218.73,162.17 -155.62,262.38 -297.26,406.48 -293.86,-169.85 12.41,-320.24 -218.74,-348.44 -38.16,60.83 -51.82,98.77 -57.98,184.56 -357.31,-42.76 -487.79,-34.73 -733.55,123.73 -76.26,366.43 700.68,248.84 755.87,631.94 -248.01,307.54 -876.04,72.7 -1176.1,-44.88 -54.92,-21.53 -115.35,-38.59 -155.47,-85.33 81.63,-74.69 144.09,-97.02 219.81,-172.71 86.17,-86.14 122.98,-124.79 184.63,-205.87 432.97,-569.43 138.8,-1001.48 -240.22,-630.42 -116.64,114.18 -467.37,280.93 -518.7,54.13 48.55,-42.03 710.38,-297.52 832.22,-652.4 73.76,-214.85 -62.61,-436.63 -175.93,-515.25 -225.59,-156.52 -403.12,17.28 -582.52,83.08 55.95,-65.5 101.62,-115.83 148.64,-221.87 55.16,-124.41 82.25,-131.35 136.8,-231.18 93.8,-171.65 104.17,-386.74 202.76,-556.62 146.82,-253 486.99,-371.24 803.42,-309.66 156.29,30.42 173.88,73.2 271.24,125.74 1.71,86.02 -12.04,168.76 1.37,256.77 11.24,73.83 37.99,142.78 30.17,228.37 -161.95,23.23 -273.72,8.52 -369.04,-79.04 -12.62,-138.62 43.71,-196.14 8.56,-294.52 -119.87,-7.37 -126.5,36.21 -135.76,164.28zm-1107.23 -240.81c78.79,48.52 96.26,82.47 121.42,190.14 -78.38,-40.92 -105.85,-97.16 -121.42,-190.14zm-579.22 56.01l4.99 103.66 -145.78 21.8c-218.62,90.24 -244.72,94.91 -352.38,307.34 -70.16,138.46 -183.69,329.97 -230.73,464.15 -125.24,-34.87 -192.95,-167.71 -185.52,-315.77 116.59,-81.38 231.99,-137.75 326.97,-216.66 191.22,-158.86 10.88,-218.26 225.58,-338.69 307.03,-172.23 451.47,-424.15 772.66,-268.29 31.18,156.88 -5.65,171.51 67.85,321.55 48.47,98.95 134.54,159.19 153,247.38l-66.18 58.29c-89.14,-11.08 -134.14,-72.34 -280.85,-155.3 -171.87,-97.2 -111.48,-104.34 -179.1,-276.52 -95.3,-4.85 -79.74,-27.15 -110.51,47.06zm-11976.5 -1352.35l-220.29 -125.94c-84.55,-43.59 -132.09,-76.46 -174.6,-148.67l-91.03 -160.89c-109.48,-132.32 -154.27,-328.56 -185.62,-535.23l-2.22 -141.14c0.84,-114.25 16.87,-221.64 81.23,-295.85 40.12,-80.06 94.31,-114.22 192.63,-147.15 60.82,-43.49 141.35,-82.31 231.15,-93.56 60.05,-52.51 207.56,-100.49 276.64,-124.12 111.05,-28.75 290.64,-101.58 404.31,-88.28 12.74,-9.06 16.22,-16.68 44.82,-29.3 20.44,-9.02 28.64,-10.36 51.93,-15.14 35.54,-7.3 75.72,-8.89 112.29,-12.4 405.88,14.08 769.33,-97.76 941.95,212.31 373.37,670.69 -69.7,1205.58 -670.2,1529.18 -331.93,178.88 -541.97,246.22 -992.99,176.18zm3479.02 -670.37c-43.98,-13.02 -71.36,-22.5 -116.93,-42.49 -22.54,-9.88 -35.12,-13.46 -58.11,-30.01 -36.66,-26.41 -13.63,-9.4 -39.08,-40.74 -116.29,-21.73 -222.25,-152.88 -274.64,-255.26l-65.25 -245.39c-34.07,-163.54 -14.69,-360.15 21.38,-511.92l68.59 -159.31c42.82,-119.41 117.93,-179.61 206.74,-262.19 46.63,-35.84 44.57,-24.22 83.74,-50.21 53.82,-35.71 15.63,-24.48 89.48,-52.49 208.83,-196.48 825.3,-235.3 1120.9,-88.28 280.72,139.63 541.27,393.71 559.09,806.31 16.53,382.69 -304.6,766.72 -486.44,897.74 -297.95,214.67 -777.53,172.51 -1109.47,34.24zm-1331.55 -1257.27c180.71,-11.42 263.07,-65.39 378.47,-144.86 59.27,-40.8 101.76,-70.62 141.68,-118.84 47.57,-57.46 62.51,-100.37 119.78,-140.75 20.6,554.8 -536.08,452.92 -639.93,404.45zm743.79 -664.01c125.12,14.39 489.74,27.01 570.4,76.33 -99.31,53.55 -189.67,92.79 -270.13,153.61 -43.95,33.22 -193.67,173.5 -226.59,189.75l-73.68 -419.69zm-467.19 -602.63c35.64,190.41 -33.23,148.6 91.15,333.64 61.99,92.22 168.19,153.33 193.84,217.5 31.67,79.27 33.08,282.16 -10.86,352.97 -46.02,74.16 -163.22,109.2 -224.45,170.66l-72.78 57.8c-1.55,0.76 -62.21,18.81 -62.98,18.93 -57.27,9.21 -122.46,2.7 -181.89,-3.09 45.1,-92.42 376.33,-217 379.54,-450.85 -34.68,-168.7 -351.4,-389.96 -429.6,-633.67l-39 113.96c-89.87,191.37 393.08,490.36 386.84,631.32 -46.45,109.52 -301.88,260.7 -461.99,303.4 38.62,-175.14 270.84,-338.61 120.36,-591.59 -93.01,-156.38 -248.97,-277.09 -334.14,-437.23l-138.05 -133.17c-21.24,107.45 -16.12,76.7 -61.69,159.79 -55.78,-20.16 -66.73,-46.26 -108.94,-87.29 -55.62,293.49 484.14,596.06 345.71,970.94 -84.28,106.94 -230.73,105.57 -393.98,104.62 54.94,-109.29 282.47,-262.34 218.71,-542.18 -28.02,-123 -305.4,-435.97 -354.91,-349.15 70.61,170.98 344.23,437.58 255.44,664.31 -80.08,204.49 -541.61,204.34 -781.68,196.7 -217.95,-6.94 -612.19,-107.14 -806.34,-167.24 -136.01,-42.09 -238.25,-85.91 -342.12,-158.42 -53.75,-37.52 -86.69,-61.4 -128.49,-109.98 -25.59,-29.74 -61.75,-91.86 -98.88,-116.83 -17.17,131.56 -60.53,310.88 186.58,380.24 210.23,84.28 419.88,169.59 643.97,223.83 39.49,9.56 66.47,12.87 107.51,22.6 57.05,13.52 54.48,11.08 98.81,35.58l-364.39 129.21c-157.05,31.46 -526.86,194.85 -642.36,282.22 -204.53,154.72 -240.73,356.73 -212.07,695.47 80.54,131.83 8.31,211.62 135.67,446.23 250.51,461.47 439.22,636.4 1125.69,629.67 -33.82,65.43 -4.44,22.01 -54.12,70.26 -20.25,19.66 -46.27,38.13 -70.85,59.99 -142.83,127.05 -338.63,84.42 -540.87,37.49l-104.09 -35.77c-452.55,-55.67 -699.72,-444.61 -791.86,-354.45 -155.49,152.14 727.78,560.14 1207.69,563.57 286.53,2.04 292.94,-111.14 587.47,-330.9 97.83,-73 427.23,-310.29 563.76,-335.78 38.77,-59.76 155.2,-132.51 251.63,-215.45 337.87,-290.57 406.67,-518.62 417.45,-996.11 58.15,61 70.73,132.32 75.43,221.97 13.92,265.7 -180.97,473.5 -216.08,653.8l5.69 4.99 128.71 -211.8c89.95,-176.4 54.58,-158.56 120.5,-240.1 27.07,-258.62 110.26,-342.73 -39.2,-605 -107.77,-189.11 -130.27,-110.3 -179.05,-151.62 -46.45,-39.34 -59.11,-126.34 -150.79,-202.44l-53.14 -45.07c-40.34,-41.75 -14.15,-8.83 -42.97,-56.23 153.47,-49.18 282.09,-160.36 331.55,-315.54 62.92,-197.41 -47.04,-347.62 -104.17,-480.08 88.21,61.01 277.12,305.04 264.64,455.58 -9.18,110.62 -85.65,173.05 -131.41,245.9 -74.71,118.94 -45.3,134.96 -19.11,177.11l32.42 44.79c1.99,-3.75 8.18,10.23 11.33,15.93 124.06,71.8 269.19,102.5 446.18,83.27 111.78,-12.15 249.71,-132.28 318.45,-187.26 24.16,-83.65 54.63,-154.98 124.58,-215.91 23.34,77.9 18.84,49.54 78.09,121.68l-52.16 41.03c-90.72,308.6 -154.63,458.77 -70.18,836.65 63.97,286.22 208.92,461.37 435.07,544.78 -74.42,73.48 -141.07,50.12 -262.49,123.2 -61.67,37.12 -161.14,102.7 -113.66,173.8l83.28 23.53c176.6,-153.46 354.28,-182.68 653.02,-162.43 114.89,7.78 218.87,43.75 331.07,49.65 136.53,7.18 259.18,1 385.38,-16.09 575.59,-59.47 852.62,-902.34 886.9,-941.49 70.74,135.46 119.26,225.53 167.3,373.95 126.68,74.78 743.02,1398.34 709.98,1570.25 -143.39,-286.52 -308.43,-538.51 -529.3,-752.2 -80.56,-77.94 -127.29,-178.11 -265.56,-178.16l-0.12 77.48c43.65,143 530.02,363.86 855.83,1378.15 166.03,516.86 34.75,1496.38 -126.12,1983.9 -811.32,181.16 -1652.82,390.1 -2470.53,589.96 -420.86,102.86 -813.16,189.27 -1228.29,291.37 -202.59,49.82 -410.95,100.4 -607.55,146.84 -292.5,69.1 -326.76,131.21 -605.99,28.6 -369.01,-135.6 -754.51,-275 -1123.32,-417.26 -317.91,-122.62 -829.12,-274.82 -1061.99,-457.36 -243.76,-191.09 -507.92,-519.28 -658.36,-861.57 -274.61,-624.8 -230.57,-2122.35 -139.51,-2808.18 47.39,-356.95 134.22,-955.83 265.26,-1256.85 365.36,-839.31 744.28,-1121.65 1580.57,-1457.56 1053.79,-423.27 2626.64,-839.67 3731.99,-262 295.19,154.26 663.1,534.24 735.24,796.44l-399.54 -36.86c-66.72,-19.44 -2.72,11.95 -29.17,-40.75l-14.24 -41.33c-340.8,85.5 -746.3,101.9 -994.97,-105.25 -64.67,-53.87 -115.41,-185.19 -249.79,-358.14 -129.38,-166.5 -139.83,-345.48 -230.24,-367.44l-60.42 4.62c143.56,93.33 91.98,181.05 158.16,343.14 49.89,122.23 135.38,198.59 154.2,311.15 -112.7,-22.22 -194.71,-194.13 -349.49,-334.96l3.65 29.67zm-4507.56 3565.29c0,825.15 -59.47,1704.83 391.68,2407.83 131.3,204.58 308.7,432.48 506.9,578.18 58.56,43.04 82.45,42.47 121.39,95.62 -42.42,57.91 -107.12,78.32 -168.6,135.22 -233.48,216.12 -187.01,409.48 -346.42,565.05 -671.43,655.28 -1112.6,1496.63 -1112.6,2533.28 0,679.77 1.76,1360.23 111.52,2015.24 15.92,95.01 25.52,328.54 127.2,328.54l7009.64 0c147.91,0 13.44,-266.25 -4.57,-342.66 -21.44,-90.93 -42.11,-203.43 -62.79,-306.14 -156.66,-777.81 -40.35,-1742.46 392.88,-2389.43 321.88,0 566.16,21.7 889.77,21.7 1588.13,0 1901.09,-9.92 3402.37,-373.72l1085.26 -281.94c357.01,-92.35 730.66,-203.32 1091.36,-275.85 395.48,-79.52 675.15,-155.32 1032.79,-334.42 442.26,-221.49 262.82,-146.55 754.15,41.56 187.03,71.61 422.61,117.58 641.98,117.58 560.75,0 751.63,-372 253.68,-644.3 -107.59,-58.83 -396.54,-130.47 -448.99,-202.06 180.48,-95.5 523.75,-96.09 688.38,27.78 92.4,69.52 121.74,145.83 288.19,145.83 238.02,0 325.53,-409.09 325.53,-607.64 0,-363.22 -613.21,-385.58 -889.51,-412.59 -116.36,-11.38 -214.45,-111.48 -238.98,-216.76 51.64,-77.11 156.44,-127.41 282.12,-130.21 40.21,172.56 84.4,347.22 303.83,347.22 142.34,0 306.53,-18.41 395.72,-60.01 84.56,-39.43 79.01,-50.15 99.34,-139.37 100.95,-443.07 -56.17,-1059.31 -603.57,-1059.31 -210.44,0 -576.23,84.77 -716.16,151.91 0,-493.23 246.79,-195.32 477.44,-195.32 276.56,0 455.74,-20.43 455.74,-282.12 0,-266.41 -309.33,-651.05 -651.05,-651.05 -332.83,0 -611.91,54.47 -818.96,309.53 -58.24,71.74 -113.16,207.54 -143.59,312.15 -31.07,106.8 -73.54,281.4 -144.24,333.2 -17.14,-64.21 -8.83,-35.18 -43.4,-86.81 175.8,-262.54 296.22,-347.98 -16.39,-699.76 -51.57,-58.03 -98.03,-102.18 -156.41,-147.43 -355.75,-275.75 -693.67,132.82 -977.39,282.95 -100.24,-67.13 -208.99,-151.92 -347.23,-151.92 -359.9,0 -467.69,73.5 -645.92,265.55 -144.69,155.91 -265.55,446.03 -265.55,711.03 0,126.24 75.86,214.55 -85.37,132.59 -324.1,-164.79 -635.14,-81.94 -866.68,195.75 -65.62,78.71 -59.86,148.9 -178.13,169.1 -74.39,12.7 -140.84,21.14 -215.35,23.37 -774.37,23.21 -853.72,47.01 -1619.68,-203.2 -266.54,-87.07 -716.16,-187.98 -941.09,-295.91 89.37,-383.6 -27.77,-1295.03 -108.21,-1627.92 -71.25,-294.89 -183.03,-584.04 -318.42,-853.47l-296.5 -571.57c-94.86,-189.86 -353.63,-598.2 -400.02,-771.86 -225.77,-845.14 -505.96,-654.71 -601.99,-873.73 -36.65,-83.6 -39.03,-119.62 -84.89,-197.23 -44.77,-75.77 -76.56,-119.49 -121.16,-182.66 -437.37,-619.46 -1114.91,-889.52 -2040.21,-889.52 -497.89,0 -1326.53,177.58 -1809.67,338.8 -496,165.51 -1437.19,514.13 -1788.36,924.35 -238.69,278.84 -491.27,692.21 -586.33,1041.29 -77.91,286.11 -132.97,597.46 -176.49,908.6 -43.72,312.61 -87.99,647.36 -87.99,997.09z"/>
  <path class="fil10" d="M4279.47 12598.56c58.15,42.62 139.05,90.69 193.02,131.4 -172.19,45.25 -170.65,25.39 -308.27,-29.83 26.18,-49.25 -9.99,-14.16 41.43,-60.67 25.41,-22.99 42.32,-27 73.82,-40.9zm1048.59 -60.08c16.45,-35 33.35,-60.07 50.41,-92.54 56.18,-106.87 13.64,-56.98 79.81,-106.18 37.95,68.11 62.87,81.4 100.4,134.99l-230.62 63.73zm1057.04 -238.44l76.2 -209.1c40.88,54.09 97.44,111.19 112.49,166.79l-188.69 42.31zm1106.22 -381.43l102.63 102.94 -148.26 35.34c12.7,-72.92 12.28,-98.14 45.63,-138.28zm-3495.56 -300.12c20.25,-150.28 -32.64,-156.91 13.87,-334.94l338.6 -13.03c-6.22,88.63 -7.06,228.63 -49.39,301.49 5.16,136.61 -38.06,415.14 -58.28,565.19 -81.72,606.62 -205.36,498.5 -630.03,311.21 -136.49,-60.19 -300.14,-145.56 -442.45,-189.57 20.27,-189.57 279.39,-697.9 428.13,-879.6 83.83,-102.43 164.08,-133.1 349.46,-89.98 14.44,135.59 -117.3,165.7 -173.4,244.02l-133.45 193.63c-37.71,134.94 -2.58,58.25 11.31,82.13 125.17,-79.84 138.16,-286.28 303.56,-315.05 2.46,117.28 -64.59,180.59 43.66,242.17 26.51,-44.33 15.71,-17.95 -1.59,-117.67zm956.47 129.09c70.64,-20.43 71.01,-94.93 91.57,-177.66 37.44,-150.65 -1.17,-118.4 120.75,-180.26 -13.72,-92.79 -34.86,-37.74 -16.41,-151.91l221.3 -37.18c3.21,521.29 135.16,1429.93 -569.13,1429.93 -578.8,0 -444.23,-326.29 -415.71,-569.32l82.63 -717.1c21.25,-121.35 59.6,-99.09 198.78,-81.98 3.93,112.65 -18.89,235.36 -16.7,327.01 2.66,111.45 26.72,10.17 18.07,142.31 -5.47,83.58 -42.82,77.56 2.72,156.06 69.84,-25.53 47.39,-24.97 71.44,-122.2 33.65,-136.02 26.52,-40.31 -3.73,-155.14 -16.61,-63.04 -2.31,-287.58 26.31,-350.69l309.34 -22.58c-16.74,110.43 -191.23,379.64 -121.23,510.71zm824.66 -170.03c66.21,-19.56 87.95,-89 126.28,-139.36 25.9,78.98 3.61,114.35 90.74,141.84 88.64,-158.59 -254.31,-486.85 64.5,-495.56 8.54,100.3 -63.29,312.81 44,365.99 46.85,-89.67 -53.3,-354.8 65.11,-376.74 98.53,-18.25 95.05,199.05 116.98,354.52 34.34,243.5 104.97,565.7 -23.37,792.32 -81.41,143.74 -115.74,137.71 -303.56,177.54 -545.46,115.68 -453.45,-549.12 -453.85,-921.64 -0.23,-222.29 -65.12,-304.7 147.23,-333.62 -17.17,94.94 -51.63,313.81 17.43,403.13 150.21,-184.43 -142.03,-418.86 204.7,-444.06 -36.93,156.55 37.59,146.33 -29.38,244.47 -36.46,53.44 -103.45,151.24 -66.81,231.17zm781.26 -347.05c47.59,-82.97 -17.5,-18.05 6.91,-136.21l188.16 -20.97c57.74,46.65 33.72,62.11 68.21,142.73 -62.07,41.31 -152.18,46.45 -255.6,113.8 7.35,90.67 23.32,181.02 79.13,208.61 61.53,-97.09 -5.34,-79.52 1.87,-187.93l228.54 -70.16c-4.79,76.75 -23,157.38 8.3,209.78 174.65,-71.83 -18.48,-298.93 -27.24,-407.81 198.2,-19.34 176.07,61.52 254.08,210.1 57.02,108.61 106.82,191.85 159.32,297.17 53.69,107.72 91.77,236.36 52.54,372.42 -49.03,170.06 -111.68,150.28 -283.75,192.49 -330.63,81.11 -422.64,-35.87 -525.75,-306.74 -57.22,-150.31 -135.75,-597.55 -137.83,-771.52l112.95 -7.91c-19.44,95.75 -9,126.39 70.16,162.15zm1041.68 -254.28c48.12,71.88 5.71,38.41 36.04,96.21 52.28,99.65 71.96,8.8 99.96,178.44 0.93,5.6 8.5,54.76 8.5,54.76 1.6,5.85 3.36,11.69 5.21,17.18l15.02 32.45c1.74,3.87 5.08,11.04 8.88,15.69l85.32 -154.9c-74.1,-106.4 -166.66,-89.52 -168.88,-254.27 106.21,1.58 322.67,257.78 443.62,371.79 94.75,89.31 321.37,293.91 308.77,506.45 -157.51,31.03 -306.03,67.08 -465.66,102.46 -241.89,53.61 -262.87,17.44 -392.19,-124.96 -109.88,-120.99 -379.05,-570.12 -433.56,-758.42 43.62,-2.08 135.81,-35.12 212.59,109.28 60.06,112.94 -17.61,194.43 142.15,172.84 -48.69,-162.34 -135.9,-258.78 -160.43,-298.78 54.62,-41.18 83.49,-44.1 164.1,-37.26 46.29,100.09 32.81,213.96 149.09,224.04 1.18,-69.79 -116.41,-217.1 -58.53,-253zm337.3 -32.22c185.51,19.33 173.65,145.99 356.81,166.19 -44.92,-128.27 -135.94,-50.21 -201.46,-202.14 144.72,0.31 444.59,279.96 634.81,391.65 6.52,187.08 -15.58,352.13 -129.18,440.43 -115.77,-153.57 -8.94,-131.45 -302.31,-438.68 -135.52,-141.91 -241.32,-241.17 -358.67,-357.45zm-4846.64 -205.39c80.57,-197.36 433.02,-470.17 754.95,-501.31 59.5,61.85 556.68,829.08 556,902.76l-251.32 8.84c-37.91,-53.58 -69.54,-115.37 -113.72,-187.66 -116.73,-191.03 10.41,-115.7 -136.35,-168.79 37.32,233.87 84.48,130.21 162.15,364.3 -138.32,-3.58 -191.7,-14.54 -285.44,-66.96 -97.66,-54.61 -100.13,-80.23 -152.56,-177.56 41.51,-83.9 144.92,-172.39 -17.48,-237.31 -42.11,77 -6.5,41.15 11.29,118.81 -126.17,25.26 -95.39,-58.86 -177.01,-11.71 40.42,104.28 75.24,-26.19 175.71,262.89 -158.24,-43.2 -440.03,-212.43 -526.22,-306.3zm2089.24 119.24c-39.22,-50.52 -63.33,-152.41 -119,-171.62 -27.32,45.67 -23.44,44.02 -4.28,98.48 69.57,197.75 166.23,97.73 162.33,296.83l-303.56 21.48c-41.01,-258.59 -12.5,-110.51 -87.97,-218.05 -86.36,-123.06 55.96,-152.32 -92.04,-211.33l-17.35 86.17c-1.67,24.04 2.61,52.55 -2.39,92.95 -79.38,-38.61 -127.97,-143.53 -207.37,-92.44 15.8,69.52 29.09,47.22 83.25,100.02 71.53,69.73 5.26,49.69 103.82,70.46 135.35,28.53 156.24,-8.37 143.16,192.58l-255.03 -5.1c-80.99,-97.71 -565,-858.62 -590.81,-949.8 263.58,-91.17 599.21,-197.69 930.87,-158.68 69.97,131.19 497.99,954.02 506.71,1048.69l-130.62 3.22c-64.66,-207.03 -16.01,-70.26 -119.72,-203.86zm2307.07 -10.81c8.86,-329.03 83.64,-764.24 121.57,-1093.39 43.45,-377.1 626.87,-507.76 626.87,-121.82 0,285.38 -44.64,929.01 -138.82,1146.39l-140.91 17.9c-10.15,-290.43 187.16,-204.4 128.33,-386.7 -78.28,27.11 -0.21,-14.21 -73.89,89.19 -29.83,41.85 -45.02,38.27 -72.44,77.76 -40.24,57.96 -35.92,154.44 -58.58,227.83l-165.04 13.71c-22.07,-145.88 20.22,-9.43 6.59,-118.36 -10.32,-82.5 -17.61,28.36 -28.89,-92.09 13.01,-46.37 155.78,-113.82 176.45,-168.39 48.33,-127.59 5.6,-57.47 -11.44,-85.64l-108.87 119.39c-93.76,-31.68 73.65,54.43 -21.21,-15.73l-63.21 -44.09c-12.11,36.4 -25.7,86.19 -38.46,132.35 -44.49,160.98 119.9,279.19 -138.05,301.69zm-1237.59 86.63c13.82,-262.91 -84.25,-123.66 -11.7,-274.46 44.38,-92.26 140.3,-156.2 16.82,-202.85l-39.01 111.86c-29.14,63.92 -18.05,58.29 -69.5,87.77 -84.61,-98.92 -42.05,-176.51 -159.51,-226.06 8.69,137.08 48.88,167.18 104.9,257.79 85.2,137.83 -65.77,86.57 -118.58,159.4 88.08,64.81 98.68,13.61 210.85,-35.1 -3.99,125.48 22.66,108.99 -77.71,132.59 -52.85,12.42 -125.17,1.99 -176.97,-4.24 -85.16,-168.42 -104.59,-351.88 -225.81,-408.85 29.71,172.52 154.92,268.48 129.65,434.02l-251.07 38.53c-48.57,-58.3 -487.76,-917.9 -492.31,-1003.31 291.48,-176.22 747.02,-299.15 1165.76,-233.28 107.93,16.98 80.72,124.54 97.06,252.21 28.15,219.92 122.68,758.59 120.63,913.88l-223.5 0.1zm1025.27 -481.1c-65.22,19.13 -58.23,6.93 -88.15,66.23l-27.52 84.81 -65.18 -53.3c-1.69,-3.4 -6.15,-7.18 -7.35,-15.28 -1.2,-8.11 -4.09,-10.65 -7.29,-15.31 -99.27,129.92 55.88,175.18 114.14,284 -29.58,79.23 -28.11,116.85 -134.47,131.97 -63.42,9.02 -174.9,13.67 -218.99,-25.34 -80.74,-71.46 19.63,-280.88 -42.8,-382.01 -61.59,40.1 -46.4,138.56 -47.65,226.36 -3.04,213.9 37.66,201.86 -125.97,175.17 -34.14,-105.52 -159.44,-1048.48 -151.4,-1148.18 272.68,-218.89 578.05,-242.58 1007.16,-154.47 0.51,221.81 -49.85,496.08 -75.26,718.37 -51.97,454.72 -2.34,566.58 -189.43,564.67 57.66,-176.41 16.67,-75.36 18.16,-232.76 1.37,-145.06 27.86,-143.08 42,-224.93zm497.94 -1102.97c-84.42,5.22 -158.19,129.45 -223,145.92 -38.5,9.79 -247.08,-41.67 -340.09,-43.62 -241.88,-5.09 -497.21,10.94 -672.41,114.22 -171.28,100.99 -82.08,81.44 -325.95,66.8 -898.68,-53.96 -1065.82,269.35 -1269.05,253.35 -322.67,-25.4 -702.5,13.95 -990.44,154.77 -484.45,236.93 -417.89,-10.49 -957.09,572.27 -29.9,51.37 38.73,24.71 -38.72,44.98 -66.01,-67.38 -157.21,-107.86 -210.54,-180.1 235.18,-473.06 1644.62,-799.68 2351.19,-958.19 526.33,-118.08 2375.14,-403.9 2891.12,-426.18 30.4,51.47 67.44,102.42 82.7,161.95 -183.41,13.56 -141.34,0.22 -262.7,73.55l-35.02 20.28zm-5480.47 2874.57c95.05,6.57 81.62,32.55 199.95,5.1 222.82,-51.7 50.29,-104.91 476.84,81.71l464.4 207.24c63.11,24.11 113.74,33.25 169.8,88.17 567.58,177.04 494.31,352.12 967.07,245.08 351.37,-79.56 691.15,-158.66 1042.8,-236.68 708.95,-157.3 1389.36,-318.14 2089.55,-471.37 883.5,-193.34 1289.95,-62.42 1152,-1423.72 -84.2,-830.87 -357.12,-988.47 -568.24,-1362.1 -61.75,-109.29 -148.8,-313.21 -230.56,-397.24 -184.19,-20.38 -813.91,86.77 -1030.61,115.84 -1089.39,146.12 -3727.73,489.03 -4366.38,1278.57 -203.76,251.9 -425.07,945.9 -349.88,1330.77 29.35,150.23 137.71,326.04 146.14,414.22 -474.09,49.03 -574.88,-630.26 -523.07,-1060.53 94.74,-786.77 518.85,-952.56 445.93,-1133.24 -149.04,-23.44 -326.15,339.32 -384.65,457.31 -201.22,405.85 -293.29,1014.15 -122.94,1438.47 68.34,170.23 227.82,423.48 421.85,422.4z"/>
  <path class="fil10" d="M7916.71 7505.07c137.01,-439.89 -535.02,-618.68 -658.91,-210.2 -138.16,455.57 520.83,653.53 658.91,210.2z"/>
  <path class="fil10" d="M4105.86 7737.04c-430.46,123.2 -239.03,819.87 230.38,650.46 378.1,-136.47 232.6,-782.96 -230.38,-650.46z"/>
  <path class="fil10" d="M7960.31 7794.7c-445.74,541.34 -1260.75,74.93 -942.98,-655.08 110.06,-252.83 234.07,-191.74 409.91,-329.35 -314.12,11.37 -368.27,144.8 -488.72,360.41 -104.91,187.79 -112.54,511.11 -1.85,693.13 235.37,387.03 815.11,412.75 1023.64,-69.11z"/>
  <path class="fil10" d="M13993.09 13611.02c156.86,26.07 253.43,-252.65 655.63,-358.24 108.49,-28.48 216.9,-9.94 312.24,-36.17l3.26 -98.31c-210.32,-68.33 -456.19,31.86 -611.12,119.53 -111.89,63.32 -422.39,223.45 -360.01,373.19z"/>
  <path class="fil10" d="M1706.66 10347.56c-72.83,271.41 -73.07,281.88 -73.06,586.37 0,170.58 -23.11,481.32 18.79,632.43 88.77,-102.12 71.74,-135.88 70.71,-285.09l-0.73 -738.65c0.95,-177.53 35.56,-170.06 64.32,-306.56 -58.72,41.1 -54.73,44.7 -80.03,111.5z"/>
  <path class="fil10" d="M12628.13 11910.5c-3.94,131.26 -6.27,396.69 139.43,329.11 3.34,-5.01 6.64,-19.58 7.29,-16.53 0.64,3.02 5.46,-12.64 6.12,-16.76 4.81,-30.25 8.37,0.23 4.43,-53.74 -3.42,-46.77 -18.7,-54.33 -22.69,-113.79 -7.68,-114.43 33.4,-100.53 26.93,-215.09 -38.81,-31.14 -287.96,-125.3 -305.22,-121.2 -194.7,46.29 97.56,178.02 143.71,208z"/>
  <path class="fil10" d="M13706.87 10886.86c-6.21,59.29 -52.5,261.26 49.56,318.02 30.43,16.92 0.96,13.37 46.9,10.08 127.59,-9.15 -6.1,-101.85 51.71,-300.17 62.25,-213.58 -325.71,-200.3 -328.31,-88.24 -2.03,87.7 105.91,59.89 180.14,60.31z"/>
  <path class="fil10" d="M15900.38 12021.13l-13.54 87.28c136.91,15.05 189.45,-56.9 241.18,-135.57 87.93,-133.72 -10.87,-200.67 -16.18,-229.35 -1.76,-9.46 -7.22,-10.88 -10.36,-16.6 -60.99,-48.4 -130.22,-129.76 -232.59,-76.81 -13.05,160.19 80.81,52.3 152.98,217.02 -45.99,105.61 -71.53,76.08 -121.49,154.03z"/>
  <path class="fil10" d="M14976.09 11003.05c-37.61,104.09 -92.02,37.31 -61.43,187.8 100.96,12.08 170.89,-52.18 243.11,-148.41 -41.62,-237.59 -478.23,-268.63 -357.54,-108.4 29.07,38.59 121.6,48.09 175.86,69.01z"/>
  <path class="fil10" d="M14024.21 12908.52c125.27,23.16 83.6,27.81 219.51,-148.52 41.72,-54.13 174.05,-179.07 107.44,-243.93 -85.7,-83.45 -332.52,288.44 -326.95,392.45z"/>
  <path class="fil10" d="M6330.37 6161.26c-34.75,-59.35 -103.49,-116.64 -140.95,-175.4 -38.17,-59.88 -81.39,-138.89 -105.22,-213.04 -28.42,23.24 -29.11,-24.25 -35.74,81.35l51.09 220.82c41.33,83.13 79.35,173.28 176.48,196 55.37,-44.91 45.98,-20.77 54.34,-109.73z"/>
  <path class="fil10" d="M5617.83 7490.14l-20.32 229.38c102.07,-56.39 69.02,-100.01 83.54,-216.57l10.57 -151.59c-52.42,47.44 -61.66,68.77 -73.79,138.78z"/>
  <path class="fil11" d="M3995.76 11618.49c31.86,-25.02 25.92,-2.86 35.2,-54.57 14.47,-80.72 -46.07,-89.08 5.07,-258.11l289.54 -13.39 -26.73 279.59c42.33,-72.86 43.17,-212.86 49.39,-301.49l-338.6 13.03c-46.51,178.03 6.38,184.66 -13.87,334.94z"/>
 </g>
</svg>
