<?xml version="1.0" encoding="UTF-8"?>
<!DOCTYPE svg PUBLIC "-//W3C//DTD SVG 1.1//EN" "http://www.w3.org/Graphics/SVG/1.1/DTD/svg11.dtd">
<!-- Creator: CorelDRAW 2017 -->
<svg xmlns="http://www.w3.org/2000/svg" xml:space="preserve" width="181mm" height="181mm" version="1.1" style="shape-rendering:geometricPrecision; text-rendering:geometricPrecision; image-rendering:optimizeQuality; fill-rule:evenodd; clip-rule:evenodd"
viewBox="0 0 18100 18100"
 xmlns:xlink="http://www.w3.org/1999/xlink">
 <defs>
  <style type="text/css">
   <![CDATA[
    .fil0 {fill:none}
    .fil21 {fill:#090909}
    .fil4 {fill:#0E0E0E}
    .fil2 {fill:#121212}
    .fil15 {fill:#141414}
    .fil8 {fill:#160D11}
    .fil32 {fill:#1A1A1A}
    .fil5 {fill:#1C1C1C}
    .fil16 {fill:#370A16}
    .fil27 {fill:#703247}
    .fil26 {fill:#7A7A7A}
    .fil24 {fill:#909090}
    .fil10 {fill:#95113E}
    .fil19 {fill:#969A98}
    .fil13 {fill:#999999}
    .fil23 {fill:#9A9E9C}
    .fil18 {fill:#A3A3A3}
    .fil31 {fill:#A7A7A6}
    .fil25 {fill:#A8A7A8}
    .fil7 {fill:#AAAAAA}
    .fil20 {fill:#ACD9D7}
    .fil29 {fill:#AEB0B1}
    .fil12 {fill:#B2B2B2}
    .fil22 {fill:#B8B8B7}
    .fil14 {fill:#BEBEBE}
    .fil30 {fill:#CECECE}
    .fil28 {fill:#DBDBDD}
    .fil17 {fill:#E6F3ED}
    .fil9 {fill:#EDEDED}
    .fil3 {fill:#F0F0F0}
    .fil34 {fill:#F2F2F2}
    .fil6 {fill:#F4B3CA}
    .fil35 {fill:#F4F4F4}
    .fil11 {fill:#F6F6F6}
    .fil33 {fill:#F7F7F7}
    .fil36 {fill:#F9F9F9}
    .fil37 {fill:#FCFCFC}
    .fil1 {fill:#FDFDFD}
   ]]>
  </style>
 </defs>
 <g id="Capa_x0020_1">
  <metadata id="CorelCorpID_0Corel-Layer"/>
  <rect class="fil0" width="18100" height="18100"/>
  <g id="_1500105738080">
   <path class="fil1" d="M9063.56 15012.78l144.95 85.24 5775.64 1198.25c785.48,-901.57 1154.04,-2275.44 817.41,-3451.13 -1446.21,397.88 -1473.36,554.74 -3332.78,556.99 -1288.45,1.45 -2437.44,-190.14 -3699.82,-322.38l4.87 1935.02 289.73 -1.99z"/>
   <path class="fil2" d="M7657.13 16957.27l217.03 141.89c-267.99,28.86 -123.04,61.78 -217.03,-141.89zm-2980.09 -1336.98l208.54 -534.53 179.33 -100.04 570.25 133.5c343.31,72.97 824,127.01 1095.6,298.66 117.98,7.31 270.87,-35.72 281.61,103.64l110.13 -12.36c169.04,21.74 500.99,15.7 569.72,167.78l1199.69 187.08c408.7,66.66 1872.41,488.53 2152.58,718.82l133.4 24.71c-230.82,204.67 -490.06,160.56 -816.5,205.12 -1182.73,161.37 -1598.02,316.52 -2607.29,26.61 -962.1,-276.38 -2101.8,-706.37 -3054.15,-900.3l-22.91 -318.69zm4088.58 -4275.75c1082.16,444.96 1591.71,711.42 2832.71,449.92 1117.96,-235.69 1324.25,-683.82 2091.69,-1240.63 877.03,193.21 1889.46,1190.57 2042.53,2081.5 -1152.33,470.4 -2155.1,588.48 -3417.21,574.31 -718.91,-8.11 -3013.83,-100.57 -3547.37,-395.35l-2.35 -1469.75zm7179.27 1123.19c-159.75,-256.8 -266.19,-561.87 -415.56,-803.79 -160.02,-259.24 -399.33,-417.9 -584.15,-703.21 584.15,146.57 1228.28,559.88 1260.75,1203.65l-261.04 303.35zm-8390.05 -6798.34l3.43 75.77c420.52,-268.54 500.08,-373.89 1040.21,-340.7 812.45,1243.89 -294.78,1336.8 -644.04,1677.31 -215.23,209.81 -280.17,472.3 -451.83,706.55l0.09 227.13c185.64,-119.88 27.88,65.67 188.62,-270.79 53.04,-111.13 104.36,-221.17 153.97,-325.54l270.07 -336 310.92 -179.14c695.01,-447.58 1339.05,-130.34 1838.41,414.39l94.8 -12.54 -108.24 -247.51c-360.63,-216.58 -331.31,-373.8 -859.81,-423.77l-490.15 -37.08c-49.89,-196.1 -36.9,-42.75 74.23,-103.82 21.38,-760.76 -91.19,-608.14 -181.84,-1161.26 1018.02,-802.8 2621.81,-793.96 3744.55,-147.03 2389.99,1377.3 2239.08,4796.04 -39.06,6051.84 -1079.44,594.97 -2773.8,652.7 -3724.8,-176.89l-45.55 -1135.64 -269.61 -55.48c-332.94,-77.66 -95.89,-35.09 -191.14,112.84l287.83 120.15c106.71,77.58 111.85,-204.75 84.97,117.9l9.02 2618.92c-310.11,-29.67 -329.77,49.98 -306.23,-264.65l-323.02 -15.51c-116.72,171.02 59.18,248.86 -88.39,39.05 2.79,-349.62 103.55,-1718.62 -131.97,-1847.15l-2.25 189.42 13.08 3882.21c-1458.57,-145.59 -4750.04,-1246.87 -6566.62,-1552.11 -19.39,-64.95 -21.56,-104.45 -53.04,-172.11 -50.15,-107.88 -50.78,-77.12 -103.1,-132.95l42.94 349.26c341.68,199.16 2821.34,735.24 3387.71,877.3 4134.05,1036.79 3407.02,1199.24 3412.98,-926.55 117.53,-110.41 -206.39,-190.06 258.97,-35.72 197.36,-274.13 14.79,-248.24 448.3,-167.96l-7.49 2563.09c-200.34,1.54 -437.3,66.57 -471.84,-83.61 -405.46,0.81 -2572.83,-516.59 -3009.14,-685.81l185.99 -176.98 -215.4 -79.56c32.66,487.19 40.32,176.89 -108.78,237.06 -209.09,-15.34 -105.72,-74.24 -178.06,17.22 -103.37,470.32 -441.63,750.94 -228.3,1324.44l106.44 19.85c-70.9,-252.3 -20.84,-36 42.12,-117.36l2752.42 817.32c64.23,334.11 82.9,325.99 448.94,414.48 98.68,-215.94 56.65,-117.44 152.89,-218.92 424.4,130.61 2769.29,-123.4 3143.09,-302.9l90.92 -255.45 -2534.67 -849.61c-138.19,-220.28 -76.85,-197.36 -87.86,-500.62l104.55 -60.35c15.51,-7.67 42.03,-18.4 57.82,-25.98l180.67 -85.06 -289.73 1.99 -4.87 -1935.02c1262.38,132.24 2411.37,323.83 3699.82,322.38 1859.42,-2.25 1886.57,-159.11 3332.78,-556.99 336.63,1175.69 -31.93,2549.56 -817.41,3451.13l-5775.64 -1198.25c-192.49,7.49 -156.32,-48.62 -156.32,120.33 431.98,12.81 8409.63,1693.09 8609.51,1798.18l263.12 45.28 71.17 678.95 -753.36 345.48 314.17 0c640.52,-548.97 557.45,14.79 561.06,-1169.47l-2848.31 -556.1c18.22,-168.5 274.48,-449.93 388.14,-668.22 456.96,-877.48 572.51,-1988.95 353.05,-2945.9 130.07,-206.39 974.72,-889.94 -298.21,-1648.54 -674.89,-402.12 -1187.87,-506.93 -1914.45,-746.24 546.54,-1005.12 838.61,-1631.75 609.59,-2843.8 -369.92,-1958.82 -2197.05,-3238.52 -4231.02,-2945.45 -1121.93,161.64 -865.67,465.8 -2034.68,726.3 -271.6,60.62 -426.39,238.5 -587.13,380.57z"/>
   <path class="fil3" d="M4601.54 17858.84l0 -390.4c255.09,13.17 391.02,-46.09 692.75,-71.53 224.69,-18.85 420.97,-110.04 606.25,-58.54 367.03,-94.62 430.71,-199.89 806.04,-292.43l-1868.8 -618.7c116.27,329.87 172.46,272.59 334.56,526.33 -529.94,-24.27 -1409.5,-315.8 -1957.21,-455.07 -937.1,-238.31 -805.32,-468.69 -1723.58,-7.58l1 521.46c527.5,272.05 2449.52,713.59 3108.99,846.46z"/>
   <path class="fil4" d="M736.92 11320.27c-84.33,-340.15 -176.07,-446.32 60.89,-765.81l-60.89 765.81zm4792.08 -1863.48c-16.24,-11.01 -36.99,-27.42 -48.8,-32.84l-764.83 -162.81c-271.32,-45.91 -512.34,-61.16 -740.01,-191.14l2224.11 6.95 72.7 425.39 -743.17 -45.55zm-5509.36 3856.04l0 125.39 747.95 139.72c10.47,301.45 -30.76,195.74 96.07,398.06 285.4,95.52 1030.92,279.45 1322.54,262.04l48.53 -34.01c-388.77,-207.01 -976.8,-145.5 -1321.28,-395.54 -79.47,-351.06 -112.03,-1831.55 86.05,-2100.62 12.45,268.35 -94.98,1156.57 88.85,1257.33 124.57,-736.32 -156.59,-2954.93 161.01,-3406.39 706.55,132.86 3841.25,793.59 4264.12,739.38 -232.9,-182.84 -4192.59,-844.38 -4348.28,-837.16 -352.33,502.06 0.45,1428.26 -225.14,1839.94 -78.3,-211.25 -122.41,-2298.53 28.68,-2329.47 125.47,-170.03 668.22,-235.97 810.47,-38.7l3478.55 508.02 271.24 15.97c281.61,118.61 579.63,136.47 948.38,185.18l-121.41 -354.94 40.32 -621.95 -7.76 -121.41 -171.38 352.78c-774.84,-104.99 -1953.51,-32.65 -2719.86,62.42 -893.91,110.95 -1791.15,-405.73 -2686.94,-158.39 -81,420.7 23.99,907.97 -51.33,1252.54 -83.97,384.26 -337.26,405.64 -283.95,1008.55 86.86,983.11 314.26,-239.48 297.12,2373.4l-752.55 -122.14z"/>
   <path class="fil5" d="M5900.54 17338.37l-1299 520.47c-659.47,-132.87 -2581.49,-574.41 -3108.99,-846.46l-1 -521.46c918.26,-461.11 786.48,-230.73 1723.58,7.58 547.71,139.27 1427.27,430.8 1957.21,455.07 -162.1,-253.74 -218.29,-196.46 -334.56,-526.33l1868.8 618.7c-375.33,92.54 -439.01,197.81 -806.04,292.43zm-3972.05 -2174.68c-194.02,-115.19 -203.67,-68.46 -109.68,-398.78l454.8 -77.22c-87.05,321.57 -23.19,189.61 -157.41,304.8l5.23 182.11c0.18,-10.1 -27.42,31.49 -42.03,54.04l-150.91 -64.95zm306.24 -959.66l-48.53 34.01 244.27 148.65c-186.09,317.78 -334.56,213.33 -709.98,210.62l-50.34 588.21 294.42 176.8c57.1,489.16 159.03,246.97 197.82,661.9l-826.61 390.12c14.43,1018.56 -248.15,663.53 2899,1512.96 497.91,134.4 2568.32,-673.36 2734.56,-920.78 -543.11,-197.54 -1905.34,-550.6 -2256.67,-809.29l-106.44 -19.85 96.97 440.28 121.68 149.55c-438.38,-82.98 -826.52,-208.46 -1259.67,-322.47l-906.44 -242.55c-835.36,-262.49 -301.01,-1667.21 118.7,-2022.78l2235.12 656.31c149.1,-60.17 141.44,250.13 108.78,-237.06l-2432.57 -542.02 -207.82 186.27 -246.25 -38.88z"/>
   <path class="fil6" d="M6396.29 8665.08l-40.32 621.95 190.68 -29.86c26.25,69.46 172.65,235.25 262.49,345.29l1461.63 255.55c-74.5,-336.28 -136.02,-733.62 186.18,-974.55 326.8,-244.26 577.2,12.09 944.6,18.59 -699.7,-719.19 -1409.41,-507.21 -1775.99,-479.61l-488.35 487.81c28.77,-246.7 147.12,-349.35 351.42,-483.75l93.09 -92.91c-938.28,-109.05 -594.07,6.5 -1185.43,331.49z"/>
   <path class="fil7" d="M4677.04 15620.29l2846.59 859.36c442.35,136.2 576.03,87.22 891.65,368.56 367.3,-192.4 890.2,-99.22 1303.42,-138.91 300.46,-28.86 398.87,-6.94 684.9,-4.69 49.25,0.36 274.76,-10.37 322.02,-17.23 276.65,-39.87 161.28,-9.65 318.87,-104.54 -280.17,-230.29 -1743.88,-652.16 -2152.58,-718.82 178.23,172.56 1325.42,565.29 1480.57,544.46 -250.04,66.39 -1673.79,154.69 -1899.74,98.59 -532.92,-132.42 -1031.1,-418.27 -1606.59,-486.37l-101.75 -90.29 -1691.47 -504.32 1241.99 24.62 415.84 -32.83c-271.6,-171.65 -752.29,-225.69 -1095.6,-298.66 -177.97,73.97 -634.75,98.41 -749.58,-33.46l-208.54 534.53z"/>
   <path class="fil8" d="M6388.53 8543.67l7.76 121.41c591.36,-324.99 247.15,-440.54 1185.43,-331.49l-93.09 92.91 136.93 -4.06c366.58,-27.6 1076.29,-239.58 1775.99,479.61 -367.4,-6.5 -617.8,-262.85 -944.6,-18.59 -322.2,240.93 -260.68,638.27 -186.18,974.55l-1461.63 -255.55 -344.3 -22.46c261.77,130.35 208.73,19.13 415.47,208.64l618.34 43.03 733.16 55.02 36.26 95.34c95.25,-147.93 -141.8,-190.5 191.14,-112.84 -247.16,-203.76 -173.01,-686.71 109.32,-888.31 386.88,-113.65 1057.71,135.94 1499.79,231.28 -23.63,-521.01 86.41,-367.48 147.12,-750.39 99.22,-130.43 -99.49,-128.27 155.69,-201.78l-243.64 161.73c-212.24,-211.25 -52.4,22.91 -191.68,-261.5l-158.3 -50.87c-352.15,86.68 -263.48,262.13 -434.68,545.27l-743.54 -379.03c-356.03,-32.65 -836.89,-70.81 -1063.84,-71.53l-313.63 -19.84c48.07,-372.81 226.58,-878.57 125.29,-1220.35 -118.44,-196.37 -81.28,-22.46 -85.33,-340.51l98.77 -550.77c284.94,92.91 142.06,133.95 379.48,23.45 -20.75,-421.87 71.26,-35.18 -181.76,-350.88l-3.43 -75.77c-336.09,339.88 -463.28,607.24 -398.33,1071.51 75.59,540.49 -55.47,868.46 -144.05,1400.92 -353.5,169.13 -414.21,97.6 -623.93,401.85z"/>
   <path class="fil9" d="M15065.06 18086.24l2177.57 0 753.36 -345.48 -71.17 -678.95 -263.12 -45.28c-89.75,19.39 -514.06,192.85 -585.23,217.39 -233.71,80.28 -445.05,166.87 -670.65,249.32l-677.42 243c-274.66,108.96 -478.25,78.84 -663.34,360z"/>
   <path class="fil10" d="M8115.36 7083.12c23.72,15.24 58,5.41 74.59,40.15 153.25,320.12 -158.4,-59.91 285.23,106.24 16.95,6.33 42.75,15.98 62.59,27.07 -228.11,580.54 -460.66,54.12 -333.48,484.39 234.08,-79.12 35.64,19.66 211.98,-94.62 201.87,-130.89 62.69,8.02 80.91,-88.4l1061.05 -17.77c17.59,3.06 91.73,46.54 165.88,-38.7l347.45 285.49 -323.28 210.17 362.71 147.93c6.76,10.56 25.61,37.88 31.75,47.44 6.13,9.48 21.56,31.13 32.56,46.46l244.89 -298.57c-46.18,-341.69 37.99,-150.45 -146.85,-312.28 132.42,-52.86 58.1,17.95 118.36,-133.77l-32.21 -188.52 -94.8 12.54c-38.79,196.55 79.47,49.15 -74.23,141.07 -759.69,-568.81 -830.49,-451.28 -1764.18,-555.46l-310.92 179.14zm-270.07 336.01c318.42,635.56 -275.47,-85.15 -29.67,535.88 77.93,88.68 -127.01,282.87 439.1,-26.42 99.04,216.12 145.5,43.2 344.58,347l743.53 379.04c171.2,-283.15 82.53,-458.6 434.68,-545.28l-29.23 -112.21 323.28 -210.17 -347.45 -285.49c-74.15,85.24 -148.29,41.76 -165.88,38.7l-1061.05 17.77c-18.22,96.42 120.96,-42.49 -80.91,88.4 -176.34,114.28 22.1,15.5 -211.98,94.62 -127.18,-430.27 105.37,96.15 333.48,-484.39 -19.84,-11.09 -45.64,-20.74 -62.59,-27.07 -443.63,-166.15 -131.98,213.88 -285.23,-106.24 -16.59,-34.74 -50.87,-24.91 -74.59,-40.15l-270.07 336.01zm-342.59 596.32l32.75 188.61c226.94,0.72 707.81,38.88 1063.85,71.53 -199.08,-303.8 -245.54,-130.88 -344.58,-347 -566.11,309.29 -361.17,115.1 -439.1,26.42 -245.8,-621.03 348.09,99.68 29.67,-535.88 -49.61,104.36 -100.93,214.4 -153.97,325.53 -160.74,336.46 -2.98,150.91 -188.62,270.79z"/>
   <path class="fil11" d="M5529 9456.79l743.17 45.55 -72.7 -425.39 -2224.11 -6.95c227.67,129.98 468.69,145.23 740.01,191.14l764.83 162.81c11.81,5.42 32.56,21.83 48.8,32.84z"/>
   <path class="fil12" d="M6355.97 9287.03l121.41 354.94c-368.75,-48.71 -666.77,-66.57 -948.38,-185.18l-271.24 -15.97c-279.63,102.38 -591.64,-26.52 -961.01,-46.63 167.23,160.47 -198.18,129.35 619.59,232.36 225.78,28.5 374.43,74.78 650.72,110.68 678.77,88.21 658.56,181.3 1313.25,51.41 -206.74,-189.51 -153.7,-78.29 -415.47,-208.64l344.3 22.46c-89.84,-110.04 -236.24,-275.83 -262.49,-345.29l-190.68 29.86z"/>
   <path class="fil13" d="M8020.64 12558.84l323.02 15.51c-146.94,-143.6 112.84,-108.78 -192.58,-139.54l38.6 -2290.59c97.33,-60.89 5.6,-37.44 137.2,-46.73 57.46,-4.06 143.69,7.4 229.02,4.69l-287.83 -120.15 -36.26 -95.34 -733.16 -55.02 -287.3 90.65c-13.98,3.52 -48.17,37.62 -58.36,19.66 -9.83,-17.49 -37.16,15.25 -54.84,25.26l867.02 128.36c153.34,312.64 92.01,2069.32 55.47,2463.24z"/>
   <path class="fil14" d="M4703.2 16617.66l-96.97 -440.28c-213.33,-573.5 124.93,-854.12 228.3,-1324.44 -197.45,37.89 -382.73,297.49 -456.15,427.29 -94.8,167.6 -9.56,279.54 -122.41,288.65 28.6,496.92 62.33,728.11 447.23,1048.78z"/>
   <path class="fil15" d="M7666.42 10761.11l133.86 -10.37c-228.93,-221.9 -1899.47,-488.63 -2286.8,-452.55 239.22,180.68 1887.93,441.63 2152.94,462.92z"/>
   <path class="fil16" d="M9748.28 7997.14l29.23 112.21 158.3 50.87c139.28,284.41 -20.56,50.25 191.68,261.5l243.64 -161.73c-255.18,73.51 -56.47,71.35 -155.69,201.78 292.25,-105.81 125.83,-75.86 403.11,-104.27l-38.69 -428.19 -28.78 -210.08c-121.95,-229.3 -42.12,-100.22 -159.39,-224.88 -60.25,151.72 14.08,80.91 -118.34,133.77 184.82,161.82 100.66,-29.4 146.85,312.28l-244.9 298.57c-11.01,-15.33 -26.43,-36.98 -32.56,-46.45 -6.14,-9.56 -24.99,-36.9 -31.75,-47.45l-362.71 -147.93z"/>
   <path class="fil17" d="M7692.22 15676.94c-68.73,-152.08 -400.68,-146.04 -569.72,-167.78 195.38,425.31 -20.65,176.98 206.75,291.99 -2.17,16.14 -11.91,25.62 -12.09,47.35 -0.09,20.66 -11.01,38.07 -10.28,45.11 1.89,18.13 -29.86,78.29 68.64,151.71 200.16,149.11 243.09,120.7 509.91,131.25 -19.21,-29.59 -51.05,-101.57 -63.23,-84.97 -10.91,15.06 -44.2,-54.66 -57.19,-76.76 -165.52,-283.42 -8.39,66.39 -72.79,-337.9z"/>
   <path class="fil18" d="M1779.21 8932.8c-142.25,-197.27 -685,-131.33 -810.47,38.7l1495.19 241.38c-164.35,-202.32 95.71,-104.72 -351.88,-187.8 -156.59,-29.04 -318.32,-43.66 -477.62,-59.53l144.78 -32.75z"/>
   <path class="fil19" d="M8975.52 6493.65c-111.13,61.07 -124.12,-92.28 -74.23,103.82l490.15 37.08c-24.26,-32.75 -70.8,-124.75 -83.07,-166.43l592.26 119.34c-414.65,-489.61 -565.2,-18.13 -925.11,-93.81z"/>
   <path class="fil20" d="M6764.4 15930.41l101.75 90.29c-79.11,-149.19 -50.42,111.31 -52.5,-152.89 -1.17,-155.42 25.53,-175.08 53.22,-259.6l145.5 -86.69c-10.74,-139.36 -163.63,-96.33 -281.61,-103.64l-415.84 32.83 288.11 17.77c44.56,270.16 40.68,286.94 161.37,461.93z"/>
   <path class="fil21" d="M12067.11 6839.04c63.77,325.44 70.71,325.44 359.99,205.39l33.11 -179.42c-243.37,-179.23 -141.71,-161.28 -393.1,-25.97z"/>
   <path class="fil22" d="M1928.49 15163.69l-109.77 -208.28c26.88,-12.8 100.57,-253.19 297.48,37.08 134.22,-115.19 70.36,16.77 157.41,-304.8l-454.8 77.22c-93.99,330.32 -84.34,283.59 109.68,398.78z"/>
   <path class="fil23" d="M7347.11 6963.87c-42.85,-386.78 -32.66,-101.83 75.59,-197.09l494.84 136.93c-209.26,-226.59 -322.56,-247.51 -655.76,-280.35 4.05,318.05 -33.11,144.14 85.33,340.51z"/>
   <path class="fil24" d="M12777.27 7161.06c-15.79,176.25 36.62,141.79 -120.69,141.79 8.84,-268.44 57.91,-246.07 -57.28,-410.23l-11.73 375.78c183.56,0 123.13,-39.42 129.98,168.85l201.33 -141.25 -42.48 -489.17 -99.13 354.23z"/>
   <path class="fil25" d="M10618.55 8357.5l422.24 -16.96c-145.77,-162.73 -17.95,-73.07 -213.06,-156.32 -4.69,-1.99 -128.63,-21.29 -140.44,-37.08l-107.43 -217.83 38.69 428.19z"/>
   <path class="fil26" d="M8808.38 15684.79l-20.03 -539.86 263.84 73.42c0,-168.95 -36.17,-112.84 156.32,-120.33l-144.95 -85.24 -180.67 85.06c-15.79,7.58 -42.31,18.31 -57.82,25.98l-104.55 60.35c11.01,303.26 -50.33,280.34 87.86,500.62z"/>
   <path class="fil27" d="M7625.56 8422.44l-136.93 4.06c-204.3,134.4 -322.65,237.05 -351.42,483.75l488.35 -487.81z"/>
   <path class="fil28" d="M736.92 11320.27l60.89 -765.81c-236.96,319.49 -145.22,425.66 -60.89,765.81z"/>
   <polygon class="fil29" points="7798.03,10940.16 7800.28,10750.74 7666.42,10761.11 7471.59,11005.2 "/>
   <path class="fil30" d="M7657.13 16957.27c93.99,203.67 -50.96,170.75 217.03,141.89l-217.03 -141.89z"/>
   <path class="fil31" d="M10251.25 7058.32l108.24 247.51 32.2 188.52c117.27,124.66 37.44,-4.42 159.39,224.88 180.5,-452.46 1528.83,-195.74 1838.59,-81.37 103.28,38.07 316.88,145.95 483.12,235.34l-152.8 -305.24 -79.65 87.04c-275.03,5.6 -6.13,44.2 -110.05,-183.92 -263.57,74.15 -127.72,31.03 -485.1,-43.21 -168.14,-34.99 -289.1,-57.36 -463.19,-69.99 -330.05,-24 -618.7,26.16 -939.27,-15.79 -11.37,17.14 -28.6,433.51 -127.55,-97.33 -28.05,-150.27 -18.76,-205.3 -19.03,-351.42 -217.93,82.53 -176.26,48.98 -244.9,164.98z"/>
   <path class="fil31" d="M7502.7 8015.45l-0.09 -227.13 -143.87 143.51c52.77,94.44 -167.59,63.41 143.96,83.62z"/>
   <path class="fil32" d="M10496.15 6893.34c0.27,146.12 -9.02,201.15 19.03,351.42 98.95,530.84 116.18,114.47 127.55,97.33 -501.62,-1250.02 1773.01,-1868.98 1956.57,-449.47 115.19,164.16 66.12,141.79 57.28,410.23 157.31,0 104.9,34.46 120.69,-141.79 60.7,-1558.69 -2139.32,-1652.69 -2281.12,-267.72z"/>
   <path class="fil32" d="M12530.29 7471.08c103.92,228.12 -164.98,189.52 110.05,183.92l79.65 -87.04 -2.44 -130.71c-6.85,-208.27 53.58,-168.85 -129.98,-168.85l-57.28 202.68z"/>
   <path class="fil33" d="M6866.15 16020.7c575.49,68.1 1073.67,353.95 1606.59,486.37 225.95,56.1 1649.7,-32.2 1899.74,-98.59 -155.15,20.83 -1302.34,-371.9 -1480.57,-544.46l-1199.69 -187.08c64.4,404.29 -92.73,54.48 72.79,337.9 12.99,22.1 46.28,91.82 57.19,76.76 12.18,-16.6 44.02,55.38 63.23,84.97 -266.82,-10.55 -309.75,17.86 -509.91,-131.25 -98.5,-73.42 -66.75,-133.58 -68.64,-151.71 -0.73,-7.04 10.19,-24.45 10.28,-45.11 0.18,-21.73 9.92,-31.21 12.09,-47.35 -227.4,-115.01 -11.37,133.32 -206.75,-291.99l-110.13 12.36 -145.5 86.69c-27.69,84.52 -54.39,104.18 -53.22,259.6 2.08,264.2 -26.61,3.7 52.5,152.89z"/>
   <path class="fil33" d="M6764.4 15930.41c-120.69,-174.99 -116.81,-191.77 -161.37,-461.93l-288.11 -17.77 -1241.99 -24.62 1691.47 504.32z"/>
   <path class="fil33" d="M4601.54 17858.84l1299 -520.47c-185.28,-51.5 -381.56,39.69 -606.25,58.54 -301.73,25.44 -437.66,84.7 -692.75,71.53l0 390.4z"/>
   <path class="fil34" d="M2234.73 14204.03l246.25 38.88 207.82 -186.27 2432.57 542.02 215.4 79.56 -185.99 176.98c436.31,169.22 2603.68,686.62 3009.14,685.81l31.03 -2311.52c-465.36,-154.34 -141.44,-74.69 -258.97,35.72 -5.96,2125.79 721.07,1963.34 -3412.98,926.55 -566.37,-142.06 -3046.03,-678.14 -3387.71,-877.3l-42.94 -349.26c-183.83,-100.76 -76.4,-988.98 -88.85,-1257.33 -198.08,269.07 -165.52,1749.56 -86.05,2100.62 344.48,250.04 932.51,188.53 1321.28,395.54z"/>
   <path class="fil34" d="M8426.28 6903.98c933.68,104.18 1004.49,-13.35 1764.17,555.46 153.71,-91.91 35.45,55.48 74.24,-141.07 -499.36,-544.73 -1143.4,-861.97 -1838.41,-414.39z"/>
   <path class="fil35" d="M5513.48 10298.19c387.33,-36.08 2057.87,230.65 2286.8,452.55 235.52,128.53 134.76,1497.53 131.97,1847.15 147.57,209.81 -28.33,131.97 88.39,-39.05 36.54,-393.92 97.87,-2150.6 -55.47,-2463.24l-867.02 -128.36c17.68,-10.01 45.01,-42.75 54.84,-25.26 10.19,17.96 44.38,-16.14 58.36,-19.66l287.3 -90.65 -618.34 -43.03c-654.69,129.89 -634.48,36.8 -1313.25,-51.41 -276.29,-35.9 -424.94,-82.18 -650.72,-110.68 -817.77,-103.01 -452.36,-71.89 -619.59,-232.36 369.37,20.11 681.38,149.01 961.01,46.63l-3478.55 -508.02 -144.78 32.75c159.3,15.87 321.03,30.49 477.62,59.53 447.59,83.08 187.53,-14.52 351.88,187.8l-1495.19 -241.38c-151.09,30.94 -106.98,2118.22 -28.68,2329.47 225.59,-411.68 -127.19,-1337.88 225.14,-1839.94 155.69,-7.22 4115.38,654.32 4348.28,837.16z"/>
   <path class="fil35" d="M4885.58 15085.76c114.83,131.87 571.61,107.43 749.58,33.46l-570.25 -133.5 -179.33 100.04z"/>
   <path class="fil36" d="M1088.35 12965.2c52.32,55.83 52.95,25.07 103.1,132.95 31.48,67.66 33.65,107.16 53.04,172.11 1816.58,305.24 5108.05,1406.52 6566.62,1552.11l-13.08 -3882.21 -326.44 65.04 194.83 -244.09c-265.01,-21.29 -1913.72,-282.24 -2152.94,-462.92 -422.87,54.21 -3557.57,-606.52 -4264.12,-739.38 -317.6,451.46 -36.44,2670.07 -161.01,3406.39z"/>
   <path class="fil36" d="M7558.27 5745.16c253.02,315.7 161.01,-70.99 181.76,350.88 -237.42,110.5 -94.54,69.46 -379.48,-23.45l-98.77 550.77c333.2,32.84 446.5,53.76 655.76,280.35l-494.84 -136.93c-108.25,95.26 -118.44,-189.69 -75.59,197.09 101.29,341.78 -77.22,847.54 -125.29,1220.35l313.63 19.84 -32.75 -188.61c-311.55,-20.21 -91.19,10.82 -143.96,-83.62l143.87 -143.51c171.66,-234.25 236.6,-496.74 451.83,-706.55 349.26,-340.51 1456.49,-433.42 644.04,-1677.31 -540.13,-33.19 -619.69,72.16 -1040.21,340.7z"/>
   <path class="fil36" d="M12067.11 6839.04c251.39,-135.31 149.73,-153.26 393.1,25.97l-33.11 179.42c-289.28,120.05 -296.22,120.05 -359.99,-205.39zm-1424.38 503.05c320.57,41.95 609.22,-8.21 939.27,15.79 174.09,12.63 295.05,35 463.19,69.99 357.38,74.24 221.53,117.36 485.1,43.21l57.28 -202.68 11.73 -375.78c-183.56,-1419.51 -2458.19,-800.55 -1956.57,449.47z"/>
   <path class="fil36" d="M11044.49 16582.84c-157.59,94.89 -42.22,64.67 -318.87,104.54 -47.26,6.86 -272.77,17.59 -322.02,17.23 -286.03,-2.25 -384.44,-24.17 -684.9,4.69 -413.22,39.69 -936.12,-53.49 -1303.42,138.91 -315.62,-281.34 -449.3,-232.36 -891.65,-368.56l-2846.59 -859.36 22.91 318.69c952.35,193.93 2092.05,623.92 3054.15,900.3 1009.27,289.91 1424.56,134.76 2607.29,-26.61 326.44,-44.56 585.68,-0.45 816.5,-205.12l-133.4 -24.71z"/>
   <path class="fil36" d="M8343.66 12574.35c-23.54,314.63 -3.88,234.98 306.23,264.65l-9.02 -2618.92c26.88,-322.65 21.74,-40.32 -84.97,-117.9 -85.33,2.71 -171.56,-8.75 -229.02,-4.69 -131.6,9.29 -39.87,-14.16 -137.2,46.73l-38.6 2290.59c305.42,30.76 45.64,-4.06 192.58,139.54z"/>
   <path class="fil36" d="M8190.95 13229.49l-31.03 2311.52c34.54,150.18 271.5,85.15 471.84,83.61l7.49 -2563.09c-433.51,-80.28 -250.94,-106.17 -448.3,167.96z"/>
   <path class="fil36" d="M15944.89 12467.73l261.04 -303.35c-32.47,-643.77 -676.6,-1057.08 -1260.75,-1203.65 184.82,285.31 424.13,443.97 584.15,703.21 149.37,241.92 255.81,546.99 415.56,803.79z"/>
   <path class="fil36" d="M1928.49 15163.69l150.91 64.95c14.61,-22.55 42.21,-64.14 42.03,-54.04l-5.23 -182.11c-196.91,-290.27 -270.6,-49.88 -297.48,-37.08l109.77 208.28z"/>
   <path class="fil37" d="M19.64 18086.24l15045.42 0c185.09,-281.16 388.68,-251.04 663.34,-360l677.42 -243c225.6,-82.45 436.94,-169.04 670.65,-249.32 71.17,-24.54 495.48,-198 585.23,-217.39 -199.88,-105.09 -8177.53,-1785.37 -8609.51,-1798.18l-263.84 -73.42 20.03 539.86 2534.67 849.61 -90.92 255.45c-373.8,179.5 -2718.69,433.51 -3143.09,302.9 -96.24,101.48 -54.21,2.98 -152.89,218.92 -366.04,-88.49 -384.71,-80.37 -448.94,-414.48l-2752.42 -817.32c-62.96,81.36 -113.02,-134.94 -42.12,117.36 351.33,258.69 1713.56,611.75 2256.67,809.29 -166.24,247.42 -2236.65,1055.18 -2734.56,920.78 -3147.15,-849.43 -2884.57,-494.4 -2899,-1512.96l826.61 -390.12c-38.79,-414.93 -140.72,-172.74 -197.82,-661.9l-294.42 -176.8 50.34 -588.21c375.42,2.71 523.89,107.16 709.98,-210.62l-244.27 -148.65c-291.62,17.41 -1037.14,-166.52 -1322.54,-262.04 -126.83,-202.32 -85.6,-96.61 -96.07,-398.06l-747.95 -139.72 0 4648.02z"/>
   <path class="fil37" d="M8975.52 6493.65c359.91,75.68 510.46,-395.8 925.11,93.81l-592.26 -119.34c12.27,41.68 58.81,133.68 83.07,166.43 528.5,49.97 499.18,207.19 859.81,423.77 68.64,-116 26.97,-82.45 244.9,-164.98 141.8,-1384.97 2341.82,-1290.97 2281.12,267.72l99.13 -354.23 42.48 489.17 -201.33 141.25 2.44 130.71 152.8 305.24c-166.24,-89.39 -379.84,-197.27 -483.12,-235.34 -309.76,-114.37 -1658.09,-371.09 -1838.59,81.37l28.78 210.08 107.43 217.83c11.81,15.79 135.75,35.09 140.44,37.08 195.11,83.25 67.29,-6.41 213.06,156.32l-422.24 16.96c-277.28,28.41 -110.86,-1.54 -403.11,104.27 -60.71,382.91 -170.75,229.38 -147.12,750.39 -442.08,-95.34 -1112.91,-344.93 -1499.79,-231.28 -282.33,201.6 -356.48,684.55 -109.32,888.31l269.61 55.48 45.55 1135.64c951,829.59 2645.36,771.86 3724.8,176.89 2278.14,-1255.8 2429.05,-4674.54 39.06,-6051.84 -1122.74,-646.93 -2726.53,-655.77 -3744.55,147.03 90.65,553.12 203.22,400.5 181.84,1161.26z"/>
   <path class="fil37" d="M8765.62 11344.54l2.35 1469.75c533.54,294.78 2828.46,387.24 3547.37,395.35 1262.11,14.17 2264.88,-103.91 3417.21,-574.31 -153.07,-890.93 -1165.5,-1888.29 -2042.53,-2081.5 -767.44,556.81 -973.73,1004.94 -2091.69,1240.63 -1241,261.5 -1750.55,-4.96 -2832.71,-449.92z"/>
   <path class="fil37" d="M4703.2 16617.66c-384.9,-320.67 -418.63,-551.86 -447.23,-1048.78 112.85,-9.11 27.61,-121.05 122.41,-288.65 73.42,-129.8 258.7,-389.4 456.15,-427.29 72.34,-91.46 -31.03,-32.56 178.06,-17.22l-2235.12 -656.31c-419.71,355.57 -954.06,1760.29 -118.7,2022.78l906.44 242.55c433.15,114.01 821.29,239.49 1259.67,322.47l-121.68 -149.55z"/>
  </g>
 </g>
</svg>
