<?xml version="1.0" encoding="UTF-8"?>
<!DOCTYPE svg PUBLIC "-//W3C//DTD SVG 1.1//EN" "http://www.w3.org/Graphics/SVG/1.1/DTD/svg11.dtd">
<!-- Creator: CorelDRAW 2017 -->
<svg xmlns="http://www.w3.org/2000/svg" xml:space="preserve" width="30mm" height="30mm" version="1.1" style="shape-rendering:geometricPrecision; text-rendering:geometricPrecision; image-rendering:optimizeQuality; fill-rule:evenodd; clip-rule:evenodd"
viewBox="0 0 3000 3000"
 xmlns:xlink="http://www.w3.org/1999/xlink">
 <defs>
  <style type="text/css">
   <![CDATA[
    .fil5 {fill:#FEFEFE}
    .fil7 {fill:#FFF212}
    .fil4 {fill:#070707}
    .fil2 {fill:#2D2D2D}
    .fil1 {fill:#3F524B}
    .fil0 {fill:#616B5E}
    .fil3 {fill:#6F9575}
    .fil6 {fill:#FDFDFD}
   ]]>
  </style>
 </defs>
 <g id="Capa_x0020_1">
  <metadata id="CorelCorpID_0Corel-Layer"/>
  <g id="_2095176369680">
   <path class="fil0" d="M2450.92 1435.47c23.05,19.63 59.17,18.42 83.95,-7.84 -31.54,-13.8 -59.51,-6.13 -83.95,7.84z"/>
   <path class="fil0" d="M626.05 799.69l0.62 -13.42 -18.74 -39.81c-0.91,-1.85 -2.56,-4.65 -4.2,-6.71 -13.83,29.26 -9.9,13.7 -13.12,68.64l35.44 -8.7z"/>
   <path class="fil0" d="M2468.84 1755.86c15.04,-4.17 6.17,2.91 21.09,-7.66 12.14,-8.59 8,-7.36 15.27,-15.9 -35.55,-26.21 -17.14,-23.36 -39.49,-49.3l3.13 72.86z"/>
   <path class="fil1" d="M2574.23 1507.47c23.73,-11.91 27.67,-11.55 49.51,-44.82l-7.91 -13.26 -21.32 -1.63c-1.09,-3 -4.3,-10.09 -5.26,-11.56 -13.32,-20.39 -1.8,-4.13 -12.22,-16.56l11.45 43.01 -14.25 44.82z"/>
   <path class="fil1" d="M2396.16 1704.87l7 -13.63c-30.29,-38 -23.92,-7.72 -31.92,-48.45l-20.5 1.85c1.97,2.14 4.58,2.45 5.39,6.85l40.03 53.38z"/>
   <path class="fil2" d="M2297.16 1491.04c21.91,-7.3 41.33,-20.78 50.55,-48.33 8.23,-24.56 -1.29,-54.61 -15.63,-74.39 -15.18,8.17 -14.3,-9.38 -24.89,52.69 -4.92,28.86 -9.9,39.95 -10.03,70.03zm-50.27 -130.03c-12.74,10.1 -31.79,46.92 -39.96,67.09 35.13,-9.28 24.62,-19.18 46.5,-43.75 13.37,-15.02 39.99,-26.75 29.75,-47.74l-2.03 24.4 -34.26 0zm0 0l34.26 0 2.03 -24.4c4.07,-40.88 12.68,-12.01 0.17,-45.4 -14.15,9.17 -12.85,2.33 -24.57,22.94 -8.42,14.81 -9.88,26.72 -11.89,46.86z"/>
   <path class="fil2" d="M2454.95 1830.8c19.42,-29.6 14.32,-27.8 -4.34,-47.21 -27.3,33.26 -9.96,25.72 4.34,47.21z"/>
   <path class="fil2" d="M695.95 919.45l55.65 -4.4c-9.6,-7.33 17.22,-14.09 -25.52,-9.55 -10.55,1.12 -25.8,11.11 -30.13,13.95z"/>
   <path class="fil3" d="M2434.31 1433.47c16.66,-14.37 106.79,-54.91 108.58,-4.83 1.05,29.73 -21.39,33.3 -49.59,34.43 -36.34,1.46 -56.2,4.82 -58.99,-29.6zm-10.69 54.61c13.67,4.53 3.47,-21.21 21.16,13.79l5.83 12.7c6.4,-8.5 4.27,-0.51 10.09,-16.41 4.83,-13.17 1.55,-11.76 1.56,-12 7.13,48.04 -2.78,17.81 13.75,37.21 49.2,-6.16 17.32,9.07 24.79,-22.3l8.71 19.17c9.88,10.7 -6.46,2.94 17.63,12 6.44,-33.5 0.06,-6.43 12.92,-31.26l37.01 -113.76c-26.08,1.5 -46.4,9.24 -74.17,6.23 -36.5,-3.96 -32.73,-11.3 -78.76,-5.07l-0.52 99.7z"/>
   <path class="fil3" d="M2396.16 1704.87l-40.03 -53.38c-0.81,-4.4 -3.42,-4.71 -5.39,-6.85l-14.72 21.21c41.35,49.84 51.4,76.38 115.71,77.03 -1.31,-40.54 1.41,-39.17 7.5,-68.88 -27.85,12.06 -3.7,-11.4 -25.1,25.33 -0.29,-11.48 0.18,-11.9 -2.35,-23.37l-6.57 -11.16c-21.68,27.59 -11.47,13.38 -8.05,50.16 -18.07,-3.36 -11.07,2.37 -21,-10.09z"/>
   <path class="fil3" d="M2483.59 1670.31l8.87 -28.16c-6.8,5.82 -34.54,28.16 -8.87,28.16z"/>
   <path class="fil3" d="M871.76 894.09l-20.78 -21.7c7.51,14.38 -0.65,9.66 20.78,21.7z"/>
   <path class="fil3" d="M760.38 932.13l16.9 -18.63c-16.38,10.51 -3.51,-13.03 -16.9,18.63z"/>
   <polygon class="fil3" points="1663.37,2133.18 1641.57,2115.71 "/>
   <path class="fil4" d="M422.01 1197.91l18.47 -52.37c9.88,-18.91 6.37,-9.95 12.01,-17.51 31.05,28.76 -5.01,58.02 -30.48,69.88zm1241.36 935.27l-21.8 -17.47 -47.26 -50.13c16.93,-78.25 39.98,-165.6 56.57,-251.38 16.4,-84.88 33,-163.71 48.75,-256.11 28.94,-169.71 61.53,-352.54 75.33,-535.75l142.36 74.77c-3.97,79.11 -144.17,796.08 -168.38,942.02l-17.57 101.47c-3.84,19.43 -6.08,72.29 -68,-7.42zm7.32 -620.15c-254.94,6.61 -358.76,12.2 -601.37,49.8 -62.25,9.65 -117.09,21.4 -184.1,33.56 17.67,-29.29 88.13,-48.46 136.66,-198.65 23.93,-74.04 17.17,-56.66 82.56,-87.55 139.65,-65.96 506.85,-208.82 635.09,-210.97 -16.16,60.88 -22.19,137.94 -31.78,205.18 -9.8,68.78 -19.61,146.36 -37.06,208.63zm-1131.14 -497.23c17.79,30.72 31.6,60.5 55.67,83.84 -16.12,22.2 -26.45,26.8 -40.62,58.04 -79.87,-17.17 -74.3,-34.92 -91.83,-50.43 32.08,-55.14 37.59,-54.09 76.78,-91.45zm18.1 -8.64c28.77,-24.81 70.74,-28.02 123.44,-26.49 47.18,58.68 30.47,52.43 6.82,107.67 -29.07,-16.59 1.58,-10.92 -32.26,-14.09 -22.52,-2.1 -26.08,4.56 -52.51,6.44 -7.57,-11.87 -35.51,-62.01 -45.49,-73.53zm146.44 -28.09c39.99,-1.78 49.38,-10.32 78.59,-24.3l25.21 50.33c-5.26,3.99 -6.93,3.52 -13.63,11.23 -7.56,8.69 -4.28,5.35 -11.23,15.72 -25.69,-7.46 -32.99,-13.06 -58.31,-3.12l-20.63 -49.86zm-48.4 -130.5c-13.1,-30.29 34.19,-60.68 59.1,-71.82 214.06,-95.7 90.26,113.93 -59.1,71.82zm-29.02 -62.3l-0.62 13.42c-8.72,68.95 1.63,84.08 71.73,87.39 31.2,1.47 87.35,7.14 104.22,-20.32l6.08 -21.7 30.15 13.6 -15.5 16.51c-22.45,23.14 -20.44,27.79 -45.45,38.33l-16.9 18.63c-114.07,18.33 -200.05,0.31 -269.45,86.53 -41.06,51.01 -108.38,166.12 -104.53,247.51 23.39,-5.52 7.57,2.96 27.78,-19.32 45.04,-49.65 9.66,-35.46 89.11,-80.45 43.58,25.94 55.18,40.82 65.44,94.62 9.62,50.43 -11.03,28.71 19.43,40.93 0,-72.81 -6.18,-75.31 -31.71,-126.45 33.22,-30.29 38.68,-65.5 99.24,-76.2 44.58,31.69 34.95,51.79 50.59,108.66 13.24,-22.33 8.59,-34.65 9.12,-66.46l21.94 42.53c5.74,-77.32 -17.48,-44.89 -30.6,-93.91 11.41,-17.32 26.41,-31.98 50.54,-42.18 49.51,34.31 28.43,54.15 59.27,90.61 21.6,-40.8 -64.39,-115.85 34.69,-115.88 34.99,-0.01 22.45,8.8 56.7,22.85 -6.17,-35.07 -22.82,-40.42 -51.97,-57 18.06,-34.71 6.04,2.36 20.75,-35.76 -33.19,9.32 -33.07,15.56 -58.25,35.38 -4.37,-31.3 -5.57,-21.64 -13.24,-50.42 39.61,-45.95 24.6,-58.6 45.75,-65.33l20.78 21.7c283.9,321.25 94.65,698.73 -181.77,712.45 -463.48,23 -577.44,-432.52 -457.41,-643.21 23.49,-94.58 191.88,-258.01 304.6,-262.68 58.76,-2.43 98.94,28.54 142.02,50.19 -14.95,25.53 -14.5,31.08 -52.53,35.43zm223.73 1565.37l50.54 0c0.82,-60.1 8.58,-132.95 15.08,-179.98 27.53,-199.28 -42.99,-514.93 -39.46,-537.42 184.35,-20.42 365.33,-59.4 574.87,-69.95 35.92,-1.81 74.42,1.76 110.54,0.43 37.52,-1.39 56.58,-7.74 100.11,-8.21 -5.61,99.84 -116.64,485.36 -68.44,551.43 105.57,144.68 158.65,117.89 374.64,117 55.45,-0.23 107.91,-18.47 152.79,-15.22 20.03,40.91 14.62,69.15 14.1,71.92l-4.72 14.08c-65.45,19.2 -476.97,31.62 -519.47,55.92l225.4 0c11.49,-6.95 268.23,-28.88 309.16,-33.88l0 33.88 25.85 0c-0.4,-113.25 -1.66,-109.68 -39.29,-206.79 -12.51,-32.27 -4.96,-38.77 -28.62,-55.25l-4.76 11.8c-0.22,1.36 -1.31,4.51 -1.47,6.21 -2.35,25.51 13.37,64.2 24.41,82.21 -56.55,2.18 -331.29,12.51 -360.73,-8.49 -14.77,-15.42 -7.1,4.5 -7.13,-19.8l49 -229.59c19.68,-87.94 33.22,-183.02 49.32,-272.15 17.48,-96.75 82.99,-482.9 82.37,-552.74 144.28,16.08 315.53,-4.99 451.27,13.61l454.32 19.64 0 -12.69c-187.13,-20.42 -357.45,-45.25 -550.68,-45.99 -50.26,-0.2 -81.49,-9.22 -135.04,-8.89 -142.29,0.87 -174.99,37.32 -264.23,-22.85 -14.82,-9.99 -80.07,-46.7 -90.28,-60.03l218.92 9.58c29.76,31.99 43.57,56.95 102.47,64.35 84.6,10.63 82.53,-31.19 126.17,-50.07l296.37 17.38c96.01,5.26 192.35,24.76 296.3,25.22l0 -25.53c-90.63,0.45 -416.36,-49.17 -567.29,-50.52 -109.42,-0.98 -55.58,-23.63 -112.31,-40.27 -44.99,-13.19 -82.23,-5.64 -124.73,6.01 -135.89,37.26 -155.9,-1.67 -282.48,30.37l-9.57 66.44c-69.91,18.88 -126.89,31.84 -187.61,50.4 -57.01,17.43 -115.29,36.28 -179,57.57 -111.12,37.13 -235.56,94.34 -331.74,150.8 -0.54,-247.47 -31.26,-324.69 -177.37,-482.77 -33.74,-36.51 -6.19,-36.97 -26.03,-78.97 -36.33,-36.25 -55.98,-9.42 -100.41,-14.22 50.23,-76.1 132.2,-36.76 141.17,-35.69 -40.17,-102.88 -158.37,17.5 -167.76,18.92 -30.43,4.58 -217.94,-126.65 -413.38,86.53 -160.35,174.9 -186.68,448.1 -68.14,639.95 36.85,59.65 83.56,112.58 141.06,148.31 243.09,151.03 419.17,45.25 441.76,54.21 30.15,16.95 25.26,29.85 32.08,63.75 6.49,32.27 9.33,54.29 14.25,88.07 8.66,59.49 13.2,128.76 13.01,189.41 -0.41,129.94 -7.41,251.44 -25.19,372.56z"/>
   <path class="fil4" d="M2350.74 1644.64l20.5 -1.85c8,40.73 1.63,10.45 31.92,48.45l-7 13.63c9.93,12.46 2.93,6.73 21,10.09 -3.42,-36.78 -13.63,-22.57 8.05,-50.16l6.57 11.16c2.53,11.47 2.06,11.89 2.35,23.37 21.4,-36.73 -2.75,-13.27 25.1,-25.33 -6.09,29.71 -8.81,28.34 -7.5,68.88 -64.31,-0.65 -74.36,-27.19 -115.71,-77.03l14.72 -21.21zm73.4 -256.26c46.03,-6.23 42.26,1.11 78.76,5.07 27.77,3.01 48.09,-4.73 74.17,-6.23l-37.01 113.76c-12.86,24.83 -6.48,-2.24 -12.92,31.26 -24.09,-9.06 -7.75,-1.3 -17.63,-12l-8.71 -19.17c-7.47,31.37 24.41,16.14 -24.79,22.3 -16.53,-19.4 -6.62,10.83 -13.75,-37.21 -0.01,0.24 3.27,-1.17 -1.56,12 -5.82,15.9 -3.69,7.91 -10.09,16.41l-5.83 -12.7c-17.69,-35 -7.49,-9.26 -21.16,-13.79l0.52 -99.7zm-181.09 216.33l9.42 -19.61c0.71,-1.12 3.95,-1.44 4.52,-4.34 0.55,-2.82 3.25,-2.46 4.83,-3.74l85.57 10.12c7.41,95.2 -25.38,19.09 -21.91,97.83l6.95 32.63c15.69,25.42 102.77,49.38 136.41,38.26l-3.13 -72.86c22.35,25.94 3.94,23.09 39.49,49.3 7.23,-26.92 -12.8,-15.89 -21.61,-61.99 -25.67,0 2.07,-22.34 8.87,-28.16 20.71,-14.41 30.46,-46.71 37.79,-65.27 19.03,-48.24 -3.08,-10.15 22.52,-38.28 18.56,-20.39 6.11,8.4 21.46,-31.13l14.25 -44.82 -11.45 -43.01c10.42,12.43 -1.1,-3.83 12.22,16.56 0.96,1.47 4.17,8.56 5.26,11.56l21.32 1.63c-1.17,-17.16 -9.38,-11.01 -17.37,-40.05 -8.38,-30.48 2.75,-30.11 -11.28,-57.14 -40.72,-21.81 -40.67,-1.05 -74.52,11.1 -40.25,14.45 -102.09,-10.99 -118.82,51.24 -6.12,22.76 0.37,41.98 -3.48,64.47 -7.02,41.02 -3.99,6.92 -22.19,44.99 -20.58,43.05 4.5,35.39 -36.09,39.77 -14.35,-25.17 -2.88,-0.79 9.15,-43.36l-43.91 5.35c-18.18,3.14 -3.23,-3.43 -15.52,4.62 11.97,29.84 -7.17,4.73 32.8,23.21 -92.54,8.43 -28.3,-38.27 -75.07,-107.43 -1.08,42.11 4.53,55.63 -11.07,90.63l-17.95 10.11c-26.36,-62.02 -13.76,-49.17 -63.5,-84.46 7.32,41.77 29.59,38.53 39.11,112.71 10.45,81.44 -34.02,56.98 -31.87,124.01 50.65,-32.93 39.36,-62.23 67.11,-108.21 14.3,39.02 25.73,49.98 26.23,101.25 20.56,-29.79 16.61,-50.82 -4.54,-87.49zm0 0c3.33,1.41 19.01,10.52 19.43,10.7 14.99,6.23 5.8,5.98 29.98,7.59 -13.25,-21.07 -20.11,-27.15 -30.64,-45.98 -1.58,1.28 -4.28,0.92 -4.83,3.74 -0.57,2.9 -3.81,3.22 -4.52,4.34l-9.42 19.61z"/>
   <path class="fil4" d="M265.58 1098.05c-5.95,-94.61 73.75,-153.31 161.09,-151.49 -6.7,30.67 -32.62,78.13 -56.26,104.25 -30.59,33.82 -54.73,47.57 -104.83,47.24zm-33 -134.72l7.62 18.44c1.56,-1.14 8.79,-6.5 10.81,-8.06 22.67,-17.46 48.44,-43.94 74.37,-27.53 -10.44,6.64 -9.89,5.32 -20.56,13.19 -23.11,17.06 -30.56,29.59 -46.83,62.72 -23.53,47.92 -26.16,63.64 7.54,109.23 78.38,4.11 47.84,-13.72 101.57,-36.74 -11.81,29.72 -19.03,22.58 -23.65,53.91 44.13,-13.53 91.74,-134.7 98.99,-179.13 7.22,-44.31 3.71,-42.76 -22.42,-63.93l7.15 -43.91c5.83,-4.13 9.94,-1.09 16.4,-18.03 -22.95,-14.85 -10.88,-15.83 -41.58,-25.42l0.14 55.94c4.56,38.92 -29.32,29.26 -42.18,30.64 -33.12,3.55 -65.52,4.62 -91.78,25.93l-30.77 29.01c-0.95,0.8 -3.17,2.56 -4.82,3.74z"/>
   <path class="fil4" d="M2670.54 2351.64l17.35 0 -2.9 -80.37 155.09 -21.13 0 -25.55c-30.92,1.07 -80.31,11.63 -103.57,15.19 -60.88,9.33 -63.54,15.32 -67.92,-40.32l171.49 -16.86 0 -32.86c-63.07,7.51 -125.23,16.42 -186.58,23.47l-58.95 -105.55c-14.36,18.27 -9.77,3.88 -0.87,29.48 31.2,89.78 75.72,110.64 76.86,254.5z"/>
   <path class="fil4" d="M2159.15 1758.13l24.41 -17.98 -12.26 18.05c0.58,11.15 1.9,14.24 0.12,25.27 -2.86,17.73 -2.14,7.87 -8.67,16.09 -14.18,-25.31 -8.71,-15.16 -3.6,-41.43zm-67.64 106.05c5.58,-0.31 72.12,-17.25 83.42,-42.27 10.18,-22.54 13.46,-88.33 12.29,-121.41 -34.92,23.36 -28.6,50.91 -47.8,86.04 -13.79,25.24 -46.79,54.58 -47.91,77.64zm79.79 -105.98l-12.15 -0.07c-5.11,26.27 -10.58,16.12 3.6,41.43 6.53,-8.22 5.81,1.64 8.67,-16.09 1.78,-11.03 0.46,-14.12 -0.12,-25.27zm160.78 109.12c0.15,-0.19 32.21,3.29 -8.47,-50.94 -5.39,8.6 -14.95,-18.13 -6.95,25.16 0.29,1.56 13.63,23.3 15.42,25.78zm-172.93 -109.19l12.15 0.07 12.26 -18.05 -24.41 17.98z"/>
   <path class="fil4" d="M782.68 1412.43c5.31,-7.87 9.36,-3.84 15.88,-43.96 3.74,-23.06 5.33,-29.72 8.6,-47.74 24.51,22.45 26.2,18.84 53.03,32.91 -17.09,-42.5 -38.03,-24.03 -55.34,-74.73 -10.57,-30.97 -6.33,-66.9 -21.04,-103.68 -8.97,12.12 -14.71,-21.53 -1.25,50.23 26.45,141.04 -22.14,149.11 0.12,186.97z"/>
   <path class="fil4" d="M2375.29 1809.73c45.78,52.84 17.54,48.41 16.06,50.89 -8.29,-5.68 -21.16,7.73 -16.06,-50.89zm-1.46 67.64l50.6 0.39c1.05,-49.26 -37.42,-103.71 -68.79,-110.54 5.58,62.34 -6.31,61.72 18.19,110.15zm17.52 -16.75c1.48,-2.48 29.72,1.95 -16.06,-50.89 -5.1,58.62 7.77,45.21 16.06,50.89z"/>
   <path class="fil4" d="M367.82 1315.68c43.44,4.1 54.77,-11.9 57.62,-47.08 -1.41,0.85 -54.63,60.91 -58.37,-8.78 -1.78,-33.16 16.62,-60.18 18.5,-101.66 -31.48,31.62 -48.51,107.79 -17.75,157.52z"/>
   <path class="fil4" d="M2243.82 1784.38c8.41,-5.01 0.13,-17.95 30.76,-1.59 1.43,0.76 3.75,3.55 4.88,4.32 1.17,0.79 2.98,3.38 4.74,4.75 -16.94,8.77 20.63,13.36 -19.13,7.08 -31.55,-4.98 -7.31,-6.04 -21.25,-14.56zm20.53 93.23c18.2,-30.84 -0.69,-16.59 14.22,-54.01 0.73,-1.82 2.49,-3.45 3.24,-5.24l8.21 -44.3c-20.48,-9.18 -24.19,-15.53 -52.34,-16.32 -11.25,30.34 -1.43,50.15 18.24,102.73 6.27,16.77 3.23,8.9 8.43,17.14zm10.23 -94.82c-30.63,-16.36 -22.35,-3.42 -30.76,1.59 13.94,8.52 -10.3,9.58 21.25,14.56 39.76,6.28 2.19,1.69 19.13,-7.08 -1.76,-1.37 -3.57,-3.96 -4.74,-4.75 -1.13,-0.77 -3.45,-3.56 -4.88,-4.32z"/>
   <path class="fil4" d="M2450.92 1435.47c24.44,-13.97 52.41,-21.64 83.95,-7.84 -24.78,26.26 -60.9,27.47 -83.95,7.84zm-16.61 -2c2.79,34.42 22.65,31.06 58.99,29.6 28.2,-1.13 50.64,-4.7 49.59,-34.43 -1.79,-50.08 -91.92,-9.54 -108.58,4.83z"/>
   <path class="fil4" d="M2539.39 1620.7c57.22,-9.39 90.87,6.13 97.87,-46.17 -39,-1.14 -23.45,-1.87 -54.71,12.08 -48.21,21.53 -27.02,-0.71 -43.16,34.09z"/>
   <path class="fil4" d="M334.91 1021.56c-25.07,-12.77 -21.25,-17.7 -36.01,8.09 -19.73,34.46 -0.28,67.78 31.19,31.15 18.25,-21.25 12.74,-23.13 4.82,-39.24z"/>
   <path class="fil4" d="M805.86 1469.37c18.19,-39.26 43.22,-73.45 10.69,-109.13l-6.03 11.36c-7.93,30.6 1.29,-19.47 -2.42,14.62l-2.24 83.15z"/>
   <path class="fil4" d="M750.43 1429.36c16.36,-30.79 26.44,-106.05 9.49,-143.91l-9.49 143.91z"/>
   <path class="fil4" d="M773.85 801.89c36.54,-3.5 46.09,-14.14 33.58,-41.32 -27.54,6.78 -30.34,7.28 -33.58,41.32z"/>
   <path class="fil4" d="M2211.87 1724.39c15.1,-37.92 9.76,-46.58 10.35,-92.69 -11.17,18.2 -18.48,74.09 -10.35,92.69z"/>
   <path class="fil5" d="M422.01 1197.91c25.47,-11.86 61.53,-41.12 30.48,-69.88 -5.64,7.56 -2.13,-1.4 -12.01,17.51l-18.47 52.37z"/>
   <path class="fil6" d="M2373.83 1877.37c-24.5,-48.43 -12.61,-47.81 -18.19,-110.15 31.37,6.83 69.84,61.28 68.79,110.54l-50.6 -0.39zm-50.22 -60.99c40.68,54.23 8.62,50.75 8.47,50.94 -1.79,-2.48 -15.13,-24.22 -15.42,-25.78 -8,-43.29 1.56,-16.56 6.95,-25.16zm127 -32.79c18.66,19.41 23.76,17.61 4.34,47.21 -14.3,-21.49 -31.64,-13.95 -4.34,-47.21zm-172.04 40.01c-14.91,37.42 3.98,23.17 -14.22,54.01 -5.2,-8.24 -2.16,-0.37 -8.43,-17.14 -19.67,-52.58 -29.49,-72.39 -18.24,-102.73 28.15,0.79 31.86,7.14 52.34,16.32l-8.21 44.3c-0.75,1.79 -2.51,3.42 -3.24,5.24zm-187.06 40.58c1.12,-23.06 34.12,-52.4 47.91,-77.64 19.2,-35.13 12.88,-62.68 47.8,-86.04 1.17,33.08 -2.11,98.87 -12.29,121.41 -11.3,25.02 -77.84,41.96 -83.42,42.27zm120.36 -139.79c-8.13,-18.6 -0.82,-74.49 10.35,-92.69 -0.59,46.11 4.75,54.77 -10.35,92.69zm327.52 -103.69c16.14,-34.8 -5.05,-12.56 43.16,-34.09 31.26,-13.95 15.71,-13.22 54.71,-12.08 -7,52.3 -40.65,36.78 -97.87,46.17zm34.84 -113.23c-15.35,39.53 -2.9,10.74 -21.46,31.13 -25.6,28.13 -3.49,-9.96 -22.52,38.28 -7.33,18.56 -17.08,50.86 -37.79,65.27l-8.87 28.16c8.81,46.1 28.84,35.07 21.61,61.99 -7.27,8.54 -3.13,7.31 -15.27,15.9 -14.92,10.57 -6.05,3.49 -21.09,7.66 -33.64,11.12 -120.72,-12.84 -136.41,-38.26l-6.95 -32.63c-3.47,-78.74 29.32,-2.63 21.91,-97.83l-85.57 -10.12c10.53,18.83 17.39,24.91 30.64,45.98 -24.18,-1.61 -14.99,-1.36 -29.98,-7.59 -0.42,-0.18 -16.1,-9.29 -19.43,-10.7 21.15,36.67 25.1,57.7 4.54,87.49 -0.5,-51.27 -11.93,-62.23 -26.23,-101.25 -27.75,45.98 -16.46,75.28 -67.11,108.21 -2.15,-67.03 42.32,-42.57 31.87,-124.01 -9.52,-74.18 -31.79,-70.94 -39.11,-112.71 49.74,35.29 37.14,22.44 63.5,84.46l17.95 -10.11c15.6,-35 9.99,-48.52 11.07,-90.63 46.77,69.16 -17.47,115.86 75.07,107.43 -39.97,-18.48 -20.83,6.63 -32.8,-23.21 12.29,-8.05 -2.66,-1.48 15.52,-4.62l43.91 -5.35c-12.03,42.57 -23.5,18.19 -9.15,43.36 40.59,-4.38 15.51,3.28 36.09,-39.77 18.2,-38.07 15.17,-3.97 22.19,-44.99 3.85,-22.49 -2.64,-41.71 3.48,-64.47 16.73,-62.23 78.57,-36.79 118.82,-51.24 33.85,-12.15 33.8,-32.91 74.52,-11.1 14.03,27.03 2.9,26.66 11.28,57.14 7.99,29.04 16.2,22.89 17.37,40.05l7.91 13.26c-21.84,33.27 -25.78,32.91 -49.51,44.82zm-277.07 -16.43c0.13,-30.08 5.11,-41.17 10.03,-70.03 10.59,-62.07 9.71,-44.52 24.89,-52.69 14.34,19.78 23.86,49.83 15.63,74.39 -9.22,27.55 -28.64,41.03 -50.55,48.33zm-13.98 -154.43c10.24,20.99 -16.38,32.72 -29.75,47.74 -21.88,24.57 -11.37,34.47 -46.5,43.75 8.17,-20.17 27.22,-56.99 39.96,-67.09 2.01,-20.14 3.47,-32.05 11.89,-46.86 11.72,-20.61 10.42,-13.77 24.57,-22.94 12.51,33.39 3.9,4.52 -0.17,45.4zm-111.79 1015.03l499.15 0c-1.14,-143.86 -45.66,-164.72 -76.86,-254.5 -8.9,-25.6 -13.49,-11.21 0.87,-29.48l58.95 105.55c61.35,-7.05 123.51,-15.96 186.58,-23.47l0 -1009.44 -454.32 -19.64c-135.74,-18.6 -306.99,2.47 -451.27,-13.61 0.62,69.84 -64.89,455.99 -82.37,552.74 -16.1,89.13 -29.64,184.21 -49.32,272.15l-49 229.59c0.03,24.3 -7.64,4.38 7.13,19.8 29.44,21 304.18,10.67 360.73,8.49 -11.04,-18.01 -26.76,-56.7 -24.41,-82.21 0.16,-1.7 1.25,-4.85 1.47,-6.21l4.76 -11.8c23.66,16.48 16.11,22.98 28.62,55.25 37.63,97.11 38.89,93.54 39.29,206.79z"/>
   <path class="fil7" d="M805.86 1469.37l2.24 -83.15c3.71,-34.09 -5.51,15.98 2.42,-14.62l6.03 -11.36c32.53,35.68 7.5,69.87 -10.69,109.13zm-55.43 -40.01l9.49 -143.91c16.95,37.86 6.87,113.12 -9.49,143.91zm48.13 -60.89c-6.52,40.12 -10.57,36.09 -15.88,43.96 -22.26,-37.86 26.33,-45.93 -0.12,-186.97 -13.46,-71.76 -7.72,-38.11 1.25,-50.23 14.71,36.78 10.47,72.71 21.04,103.68 17.31,50.7 38.25,32.23 55.34,74.73 -26.83,-14.07 -28.52,-10.46 -53.03,-32.91 -3.27,18.02 -4.86,24.68 -8.6,47.74zm-430.74 -52.79c-30.76,-49.73 -13.73,-125.9 17.75,-157.52 -1.88,41.48 -20.28,68.5 -18.5,101.66 3.74,69.69 56.96,9.63 58.37,8.78 -2.85,35.18 -14.18,51.18 -57.62,47.08zm328.13 -396.23c4.33,-2.84 19.58,-12.83 30.13,-13.95 42.74,-4.54 15.92,2.22 25.52,9.55l-55.65 4.4zm-463.37 43.88c1.65,-1.18 3.87,-2.94 4.82,-3.74l30.77 -29.01c26.26,-21.31 58.66,-22.38 91.78,-25.93 12.86,-1.38 46.74,8.28 42.18,-30.64l-0.14 -55.94c30.7,9.59 18.63,10.57 41.58,25.42 -6.46,16.94 -10.57,13.9 -16.4,18.03l-7.15 43.91c26.13,21.17 29.64,19.62 22.42,63.93 -7.25,44.43 -54.86,165.6 -98.99,179.13 4.62,-31.33 11.84,-24.19 23.65,-53.91 -53.73,23.02 -23.19,40.85 -101.57,36.74 -33.7,-45.59 -31.07,-61.31 -7.54,-109.23 16.27,-33.13 23.72,-45.66 46.83,-62.72 10.67,-7.87 10.12,-6.55 20.56,-13.19 -25.93,-16.41 -51.7,10.07 -74.37,27.53 -2.02,1.56 -9.25,6.92 -10.81,8.06l-7.62 -18.44zm0 0c-120.03,210.69 -6.07,666.21 457.41,643.21 276.42,-13.72 465.67,-391.2 181.77,-712.45 -21.43,-12.04 -13.27,-7.32 -20.78,-21.7 -21.15,6.73 -6.14,19.38 -45.75,65.33 7.67,28.78 8.87,19.12 13.24,50.42 25.18,-19.82 25.06,-26.06 58.25,-35.38 -14.71,38.12 -2.69,1.05 -20.75,35.76 29.15,16.58 45.8,21.93 51.97,57 -34.25,-14.05 -21.71,-22.86 -56.7,-22.85 -99.08,0.03 -13.09,75.08 -34.69,115.88 -30.84,-36.46 -9.76,-56.3 -59.27,-90.61 -24.13,10.2 -39.13,24.86 -50.54,42.18 13.12,49.02 36.34,16.59 30.6,93.91l-21.94 -42.53c-0.53,31.81 4.12,44.13 -9.12,66.46 -15.64,-56.87 -6.01,-76.97 -50.59,-108.66 -60.56,10.7 -66.02,45.91 -99.24,76.2 25.53,51.14 31.71,53.64 31.71,126.45 -30.46,-12.22 -9.81,9.5 -19.43,-40.93 -10.26,-53.8 -21.86,-68.68 -65.44,-94.62 -79.45,44.99 -44.07,30.8 -89.11,80.45 -20.21,22.28 -4.39,13.8 -27.78,19.32 -3.85,-81.39 63.47,-196.5 104.53,-247.51 69.4,-86.22 155.38,-68.2 269.45,-86.53 13.39,-31.66 0.52,-8.12 16.9,-18.63 25.01,-10.54 23,-15.19 45.45,-38.33l15.5 -16.51 -30.15 -13.6 -6.08 21.7c-16.87,27.46 -73.02,21.79 -104.22,20.32 -70.1,-3.31 -80.45,-18.44 -71.73,-87.39l-35.44 8.7c3.22,-54.94 -0.71,-39.38 13.12,-68.64 1.64,2.06 3.29,4.86 4.2,6.71l18.74 39.81c38.03,-4.35 37.58,-9.9 52.53,-35.43 -43.08,-21.65 -83.26,-52.62 -142.02,-50.19 -112.72,4.67 -281.11,168.1 -304.6,262.68z"/>
   <path class="fil6" d="M1641.57 2115.71l21.8 17.47c61.92,79.71 64.16,26.85 68,7.42l17.57 -101.47c24.21,-145.94 164.41,-862.91 168.38,-942.02l-142.36 -74.77c-13.8,183.21 -46.39,366.04 -75.33,535.75 -15.75,92.4 -32.35,171.23 -48.75,256.11 -16.59,85.78 -39.64,173.13 -56.57,251.38l47.26 50.13z"/>
   <path class="fil6" d="M2840.08 1127.61l0 -71.3c-103.95,-0.46 -200.29,-19.96 -296.3,-25.22l-296.37 -17.38c-43.64,18.88 -41.57,60.7 -126.17,50.07 -58.9,-7.4 -72.71,-32.36 -102.47,-64.35l-218.92 -9.58c10.21,13.33 75.46,50.04 90.28,60.03 89.24,60.17 121.94,23.72 264.23,22.85 53.55,-0.33 84.78,8.69 135.04,8.89 193.23,0.74 363.55,25.57 550.68,45.99z"/>
   <polygon class="fil6" points="2687.89,2351.64 2840.08,2351.64 2840.08,2250.14 2684.99,2271.27 "/>
   <path class="fil6" d="M655.65 1074.25c33.84,3.17 3.19,-2.5 32.26,14.09 23.65,-55.24 40.36,-48.99 -6.82,-107.67 -52.7,-1.53 -94.67,1.68 -123.44,26.49 9.98,11.52 37.92,61.66 45.49,73.53 26.43,-1.88 29.99,-8.54 52.51,-6.44z"/>
   <path class="fil6" d="M334.91 1021.56c7.92,16.11 13.43,17.99 -4.82,39.24 -31.47,36.63 -50.92,3.31 -31.19,-31.15 14.76,-25.79 10.94,-20.86 36.01,-8.09zm-69.33 76.49c50.1,0.33 74.24,-13.42 104.83,-47.24 23.64,-26.12 49.56,-73.58 56.26,-104.25 -87.34,-1.82 -167.04,56.88 -161.09,151.49z"/>
   <path class="fil6" d="M539.55 1015.8c-39.19,37.36 -44.7,36.31 -76.78,91.45 17.53,15.51 11.96,33.26 91.83,50.43 14.17,-31.24 24.5,-35.84 40.62,-58.04 -24.07,-23.34 -37.88,-53.12 -55.67,-83.84z"/>
   <path class="fil6" d="M773.85 801.89c3.24,-34.04 6.04,-34.54 33.58,-41.32 12.51,27.18 2.96,37.82 -33.58,41.32zm-118.16 46.68c149.36,42.11 273.16,-167.52 59.1,-71.82 -24.91,11.14 -72.2,41.53 -59.1,71.82z"/>
   <path class="fil6" d="M1836.38 2351.64l309.16 0 0 -33.88c-40.93,5 -297.67,26.93 -309.16,33.88z"/>
   <path class="fil6" d="M724.72 1028.93c25.32,-9.94 32.62,-4.34 58.31,3.12 6.95,-10.37 3.67,-7.03 11.23,-15.72 6.7,-7.71 8.37,-7.24 13.63,-11.23l-25.21 -50.33c-29.21,13.98 -38.6,22.52 -78.59,24.3l20.63 49.86z"/>
  </g>
 </g>
</svg>
