<?xml version="1.0" encoding="UTF-8"?>
<!DOCTYPE svg PUBLIC "-//W3C//DTD SVG 1.1//EN" "http://www.w3.org/Graphics/SVG/1.1/DTD/svg11.dtd">
<!-- Creator: CorelDRAW 2017 -->
<svg xmlns="http://www.w3.org/2000/svg" xml:space="preserve" width="200mm" height="200mm" version="1.1" style="shape-rendering:geometricPrecision; text-rendering:geometricPrecision; image-rendering:optimizeQuality; fill-rule:evenodd; clip-rule:evenodd"
viewBox="0 0 20000 20000"
 xmlns:xlink="http://www.w3.org/1999/xlink">
 <defs>
  <style type="text/css">
   <![CDATA[
    .fil9 {fill:#02FD04}
    .fil7 {fill:#040305}
    .fil11 {fill:#095009}
    .fil8 {fill:#381705}
    .fil13 {fill:#6D6D6C}
    .fil3 {fill:#720304}
    .fil10 {fill:#8B8B8B}
    .fil17 {fill:#9B0AE7}
    .fil14 {fill:#A101FF}
    .fil2 {fill:#A302FA}
    .fil16 {fill:#ACACAC}
    .fil12 {fill:#CCCCCC}
    .fil15 {fill:#E9E9E9}
    .fil5 {fill:#EAEAEA}
    .fil6 {fill:#F8B485}
    .fil1 {fill:#FDA901}
    .fil0 {fill:#FEA905}
    .fil4 {fill:#FEFEFE}
   ]]>
  </style>
 </defs>
 <g id="Capa_x0020_1">
  <metadata id="CorelCorpID_0Corel-Layer"/>
  <path class="fil0" d="M3.53 10087.87c183.44,232.38 142.83,716.79 214.31,1032.07 51.4,-127.95 392.03,-243.01 515.53,-275.39l-136.05 -687.75c-45.28,-214.23 -5.24,-155.83 -128.11,-174.62l-465.68 105.69z"/>
  <path class="fil0" d="M1561.57 13451.91c115.93,-85.7 352.54,-244.9 424.5,-343.03 -43.58,-209.58 -97.12,-644.99 -216.75,-803.53l-423.68 271.73c24.09,167.3 137.57,783.36 215.93,874.83z"/>
  <path class="fil0" d="M791.93 12905.26c-0.1,243.16 176.44,637.77 183.57,1013.34l375.15 -331.9 -204.79 -909.35 -353.93 227.91z"/>
  <path class="fil0" d="M2110.61 9353.45l98.29 405.58c153.24,-58.33 181.8,-151.16 372.31,-216.36 190.01,-65.02 319.22,-25.32 508.54,-42.35l-111.5 -390.79 -867.64 243.92z"/>
  <path class="fil1" d="M4697.26 10476.05l-352.64 -869.66 -918.5 331.2 286.43 1067.8 883.18 -405.17c141.63,-87.06 66.56,16.17 101.53,-124.17z"/>
  <path class="fil1" d="M1433.42 10667.6l375.47 1258.68 680.85 -317.48 -310.36 -1205.91c-223.08,50.61 -538.89,182.13 -745.96,264.71z"/>
  <path class="fil1" d="M2390.64 10384.61c23.46,162.1 252.37,1027.87 319.41,1112.98l810.16 -380.58 -250.2 -974.28c-288.2,215.89 -388.31,321.68 -879.37,241.88z"/>
  <path class="fil1" d="M249.47 11301.18c41.87,252.78 341.19,1226.71 453.73,1358.89 138.04,-75.74 250.29,-166.58 390.41,-209.81l-297.18 -1368.38 -546.96 219.3z"/>
  <path class="fil1" d="M1855.12 12129.81c60.6,160.43 112.56,331.74 162.23,502.99 52.08,179.6 48.17,406.65 125.71,552.01 97.84,-55.5 390.98,-342.84 636.42,-491.73 -2.77,-173.83 -157.43,-702.29 -225.32,-890.62l-699.04 327.35z"/>
  <path class="fil1" d="M2981.18 12528.56c202.37,-97.09 583.2,-368.48 791.81,-514.37l-171.94 -692.55c-144.88,35.67 -753.3,326.85 -849.73,406l229.86 800.92z"/>
  <path class="fil1" d="M3988.66 11870.09c291.35,-187.29 627.41,-413.34 948.49,-564.53l-147.13 -560.62c-165.09,58.84 -898.57,387.39 -1006.69,484.92 22.99,130.72 106.8,548.67 205.33,640.23z"/>
  <path class="fil1" d="M3185.03 9038.86l168.44 688.36 918.75 -315.12c-79.24,-192.85 -215.77,-559.68 -332.46,-684.07l-754.73 310.83z"/>
  <path class="fil1" d="M1386.76 10455.65l724.74 -254.9c-23.49,-145.71 -131.52,-701.09 -234.09,-777.33l-621.38 142.07c-14.38,307.62 79.77,608.68 130.73,890.16z"/>
  <path class="fil1" d="M1717.9 12070.22c-91.35,-255.53 -317.24,-984.9 -341.07,-1244.75l-383.52 147.85 284.7 1327.17 439.89 -230.27z"/>
  <polygon class="fil1" points="764.05,9888.09 927.7,10732.93 1293.14,10588.9 1129.81,9792.23 "/>
  <path class="fil2" d="M12163.63 8322.7c73.6,128.46 154.41,134.07 159.17,318.72 3.66,141.03 -71.89,282.36 -93.52,439.44 225.48,-78.54 816.4,-519.41 988.91,-668.33 224.34,-193.63 524.33,-638.4 590.04,-1047.05 -124.17,-132.43 -380.58,-378.81 -608.71,-417.56 -364.97,680.6 -174.3,480.82 -729.78,1070.51 -110.99,117.8 -204.48,183.95 -306.11,304.27z"/>
  <path class="fil2" d="M10821.64 8206.86c-223.93,-198.96 -415.2,-404.17 -821.09,-384.46 -211.07,904.88 318.46,1389.19 617.94,895.48 89.36,-147.28 189.53,-310.86 203.15,-511.02z"/>
  <path class="fil2" d="M10644.69 11672.87c-163.58,-10.79 -141.07,-20.21 -297.78,39.06 96.36,-87.37 91.13,-51.86 88.51,-92.26l-135.14 -8.79c-10,-1.89 -21.06,-4.92 -30.33,-7.03l-61.27 -19.46c-30.24,-131.73 -37.55,-294.4 -12.52,-460.89 116.54,-48.05 32.39,-66.53 168.38,-54.42 -7.76,48.65 -9.46,90.9 -76.94,92.42 263.1,81.63 125.75,1.39 160.28,-25.86 145.51,-114.74 5.48,-15.29 190.76,-88.91 -48.34,56.47 -107.9,-81.8 -19.14,127.03 48.46,113.96 18.1,63.92 111.18,97.43 -86.93,109.92 -51.34,216.18 -26.96,354.79 107.05,-52.88 84.09,-41.4 165.03,-140.41 41.56,-50.89 71.17,-92.76 106.61,-149.33 -67.29,-268.55 -438.5,-612.8 -788.02,-634.37 -158.48,159.58 -322.12,605.05 -217.82,882.52 128.49,341.77 494.12,373.77 675.17,88.48z"/>
  <path class="fil3" d="M1877.41 9423.42c102.57,76.24 210.6,631.62 234.09,777.33l-724.74 254.9 46.66 211.95c207.07,-82.58 522.88,-214.1 745.96,-264.71l310.36 1205.91 -680.85 317.48 46.23 203.53 699.04 -327.35c67.89,188.33 222.55,716.79 225.32,890.62 87.53,-56.15 132.75,-77.28 201.7,-164.52l-229.86 -800.92c96.43,-79.15 704.85,-370.33 849.73,-406l171.94 692.55 215.67 -144.1c-98.53,-91.56 -182.34,-509.51 -205.33,-640.23 108.12,-97.53 841.6,-426.08 1006.69,-484.92l-92.76 -268.89c-34.97,140.34 40.1,37.11 -101.53,124.17l-883.18 405.17 -286.43 -1067.8 918.5 -331.2 -72.4 -194.29 -918.75 315.12c8.29,177.39 -31.91,284.22 -83.46,415.51l250.2 974.28 -810.16 380.58c-67.04,-85.11 -295.95,-950.88 -319.41,-1112.98 -126.69,-61.65 -223.27,-105.06 -251.87,-258.21 -39.29,-210.28 57.04,-222.77 70.13,-367.37l-98.29 -405.58 -233.2 69.97z"/>
  <path class="fil3" d="M469.21 9982.18c122.87,18.79 82.83,-39.61 128.11,174.62l136.05 687.75c-123.5,32.38 -464.13,147.44 -515.53,275.39l31.63 181.24 546.96 -219.3 297.18 1368.38c-140.12,43.23 -252.37,134.07 -390.41,209.81 17.94,126.12 18.19,155.16 88.73,245.19l353.93 -227.91 204.79 909.35c128.24,-46.35 102.8,-39.19 210.92,-134.79 -78.36,-91.47 -191.84,-707.53 -215.93,-874.83l423.68 -271.73 -51.42 -235.13 -439.89 230.27 -284.7 -1327.17 383.52 -147.85 -83.69 -236.57 -365.44 144.03 -163.65 -844.84 -294.84 94.09z"/>
  <path class="fil3" d="M2978.25 9109.53l111.5 390.79c65.3,68.3 67.98,51.4 142.11,108.69 73.56,56.88 62.74,65.68 121.61,118.21l-168.44 -688.36 -206.78 70.67z"/>
  <path class="fil4" d="M16181.56 10370.17c-165.25,79.36 -380.48,524.77 -399.9,755.38 -46.04,546.69 1190.64,1809.16 1545.96,1935.53 550.37,195.75 314.74,-423.43 182.15,-611.7 -84.28,-119.66 -295.6,-270.66 -550.69,-620.62 -138.29,-189.79 -321.39,-480.76 -349.39,-780.52 -24.15,-258.37 -173.86,-800.16 -428.13,-678.07z"/>
  <path class="fil4" d="M12701.65 10669.68c216.36,121.74 1251.15,235.53 1455.56,28.41 -54.07,-280.98 -514.52,-276.15 -753.75,-379.45 -416.27,-179.72 -463.57,-943.37 -746.15,-983.89 -370.3,-53.07 -71.95,696.02 -43.07,807.45 49.29,190.13 45.25,377.45 87.41,527.48z"/>
  <path class="fil5" d="M16181.56 10370.17c254.27,-122.09 403.98,419.7 428.13,678.07 28,299.76 211.1,590.73 349.39,780.52 255.09,349.96 466.41,500.96 550.69,620.62 132.59,188.27 368.22,807.45 -182.15,611.7 -355.32,-126.37 -1592,-1388.84 -1545.96,-1935.53 19.42,-230.61 234.65,-676.02 399.9,-755.38zm1670.17 3589.42l36.51 -58.9c203.06,-359.04 292.2,-460.04 578.94,-804.07 145.36,-174.4 191.27,-202.59 362.54,-347.1 795.37,-671.2 659.73,-1640.62 1055.28,-2476.88 -125.11,-254.96 -154.85,36.8 -89.96,-94.97 -219.55,-187.11 -2144.01,-641.81 -2346.12,-681.89 -510.9,-101.31 -893.05,-157.78 -1187.49,152.77 -184.68,194.8 -442.35,579.35 -584.84,904.78 -221.88,506.86 -309.69,635.22 -12.8,1082.05 190.01,285.92 774.12,1014.57 1002.09,1232.01l376.64 367.43c134.25,116.19 254.23,222.39 400.57,344.03 124.83,103.77 341.98,220.31 408.64,380.74z"/>
  <path class="fil5" d="M12614.24 10142.2c-28.88,-111.43 -327.23,-860.52 43.07,-807.45 282.58,40.52 329.88,804.17 746.15,983.89 239.23,103.3 699.68,98.47 753.75,379.45 -204.41,207.12 -1239.2,93.33 -1455.56,-28.41 -42.16,-150.03 -38.12,-337.35 -87.41,-527.48zm1462.5 -2207.83c418.74,-73.12 663.64,453.38 730.29,837.05 234.56,1350.47 -1692.74,961 -1308.12,134.51 65.49,-140.72 213.94,-297.4 313.48,-466.88 98.53,-167.74 185.62,-380.93 264.35,-504.68zm-1945.93 1381.02c98.85,413.69 315.47,63.28 320.23,1558.26 429.23,29.83 2169.99,271.96 2466.35,53.32 203.94,-150.43 860.86,-1467.39 806.78,-1895.2 -149.89,-153.71 -293.3,-224.85 -463.91,-360.34l-1307.65 -1203.44c-60.04,48.37 -16.18,0.22 -56.16,62.65 -114.21,178.28 -153.49,624.28 -671.48,1030.25 -185.09,145.04 -342.71,252.5 -538.02,382.85 -140.91,94.02 -452.81,269.36 -556.14,371.65z"/>
  <path class="fil5" d="M10063.86 7665.38c537.04,18.38 562.89,240.73 796.79,343.24 255.75,-197 232,-351.29 605.74,-149.96 194.2,104.62 470.95,343.72 606.5,390.04 59.06,-49.41 121.42,-132.34 182.59,-196.53 82.43,-86.46 119.41,-118.4 220.09,-205.21 87.56,-75.48 290.02,-324.99 355.7,-440.04 -121.24,-95.57 -1316.2,-738.87 -1476.09,-757.06 -424.44,-48.34 -707.08,381.74 -1054.62,651.43 -140.37,108.97 -184.26,160.49 -236.7,364.09z"/>
  <path class="fil5" d="M10303.87 10526.28c291.76,243.79 180.46,-89.49 695.04,529.4l109.82 114.93c373.24,-185.34 439.86,-262.31 953.88,-300.93 38.66,-377.96 -46.48,-858.75 -218.29,-1115.5 -157.18,63.63 -225.54,198.83 -753.28,392.94 -404.29,148.66 -495.88,141.54 -787.17,379.16z"/>
  <path class="fil5" d="M10408.71 6787.96c314.37,98.57 281.13,-111.52 592.31,-240.61 267.7,-111.05 489.52,-51.55 714.97,69.65l1200.04 635.04c82.58,-93.97 124.29,-223.78 160.11,-347.44 -98.47,-109.01 -1182.7,-535.78 -1413.15,-625.86 -251.46,-98.32 -569.52,-270.82 -801.52,-81.51 -69.87,57.01 -434.94,546.9 -452.76,590.73z"/>
  <path class="fil6" d="M4168.7 8863.05c235.54,607.41 681.83,1479.68 813.25,2121.91 136.53,3.09 448.56,-21.73 571.72,41.08 168.12,-43.54 876.78,-45.69 1157.19,-84.25 643.64,-88.6 1560.87,-197.29 2045.95,372.16 163.58,192.02 392.12,565.1 721.8,569.7 272.37,-186.88 257.99,-774.18 122.28,-1094.09 -151.1,-356.18 -412.77,-445.25 -797.7,-584.62 -830.09,-300.61 -1180.33,-503.7 -1371,-1434.03 -8.76,4.99 -20.84,4.2 -24.62,17.57l-154.29 173.29c84.85,-628.85 979.7,-1144.48 1217.26,-1188.4 110.42,-20.43 129.72,-2.68 192.75,51.55 315.9,271.89 218.98,307.49 300.08,622.93 93.61,364.09 403.37,550.94 715.81,290.3 66.79,-250.7 36.29,-1033.49 -72.24,-1252.69l-718.4 -663.89c-418.98,-303.1 -583.54,-147.21 -1002.21,12.84 -270.57,103.45 -756.52,298.91 -1012.3,334.73 133.34,-37.96 962.55,-534.76 1396.88,-656.66 588.5,-165.19 991.37,534.76 1300.94,695.79 -42.09,-315.5 -298.91,-472.87 -437.71,-668.42 -187.04,-263.45 -255.88,-531.65 -727.01,-388.18 -538.46,163.99 -1113.33,451.24 -1630.5,671.8 -357.12,152.32 -468.27,188.58 -720.96,413.87 -557.05,496.61 -941.51,892.49 -1524.42,1382.35 -97.56,81.98 -229.2,173.67 -362.55,243.36z"/>
  <path class="fil7" d="M10703.72 11625.98c-10.79,58.52 33.86,36.89 -59.03,46.89 -181.05,285.29 -546.68,253.29 -675.17,-88.48 -104.3,-277.47 59.34,-722.94 217.82,-882.52 349.52,21.57 720.73,365.82 788.02,634.37 -35.44,56.57 -65.05,98.44 -106.61,149.33 -80.94,99.01 -57.98,87.53 -165.03,140.41zm-399.85 -1099.7c291.29,-237.62 382.88,-230.5 787.17,-379.16 527.74,-194.11 596.1,-329.31 753.28,-392.94 171.81,256.75 256.95,737.54 218.29,1115.5 -514.02,38.62 -580.64,115.59 -953.88,300.93l-109.82 -114.93c-514.58,-618.89 -403.28,-285.61 -695.04,-529.4zm2048.98 67.53c-2.74,197.64 19.93,266.13 -145.58,263.95 -41.71,-104.78 -52.09,-521.4 -79.05,-681.6 -44.71,-265.59 -125.55,-358.45 -202.2,-543.82 45.5,-42.88 97.17,-105.57 139.52,-149.33 162.64,176.67 295,559.8 287.31,1110.8zm2961.83 348.55c-149.39,-146.27 -64.79,-230.43 35.38,-395.87 82.52,-136.31 141.48,-275.17 216.9,-421.45 250.04,-484.97 221.95,-847.83 449.82,-792.87 260.48,62.77 59.53,273.31 -20.49,370.01 -462.94,559.58 -566.62,1133.7 -681.61,1240.18zm-3183.87 -1626.97c103.33,-102.29 415.23,-277.63 556.14,-371.65 195.31,-130.35 352.93,-237.81 538.02,-382.85 517.99,-405.97 557.27,-851.97 671.48,-1030.25 39.98,-62.43 -3.88,-14.28 56.16,-62.65l1307.65 1203.44c170.61,135.49 314.02,206.63 463.91,360.34 54.08,427.81 -602.84,1744.77 -806.78,1895.2 -296.36,218.64 -2037.12,-23.49 -2466.35,-53.32 -4.76,-1494.98 -221.38,-1144.57 -320.23,-1558.26zm-2297.85 1691.8c-118.21,-230.75 -65.68,-318.81 -260.51,-543.82 -407.57,-470.73 -990.61,-353.56 -1532.88,-806.18 -150.31,-125.43 -242.79,-249.29 -324.67,-491.22 -52.82,-156.02 -197.17,-452.76 -125.62,-603.35 64.61,-136.02 679.68,-576.57 932.5,-636.55 414.78,293.75 154.53,531.08 454.55,899.14 110.13,135.14 253.76,201.11 500.33,170.61 292.98,-36.22 263.85,-127.22 391.74,-272.68 208.92,307.75 536.15,533.6 847.93,128.78 295.13,-383.23 227.28,-643.36 305.09,-760.69 40.4,-60.88 98.22,-91.47 146.72,-164.75 277.5,42.22 936.09,513.33 985.37,664.2 39.89,122.19 -110.8,498.29 -154.97,622.33 -222.26,624.12 -842.23,718.24 -1425.93,949.59 -494.97,196.18 -565.73,583.67 -739.65,844.59zm988.68 -2800.33c-13.62,200.16 -113.79,363.74 -203.15,511.02 -299.48,493.71 -829.01,9.4 -617.94,-895.48 405.89,-19.71 597.16,185.5 821.09,384.46zm1341.99 115.84c101.63,-120.32 195.12,-186.47 306.11,-304.27 555.48,-589.69 364.81,-389.91 729.78,-1070.51 228.13,38.75 484.54,285.13 608.71,417.56 -65.71,408.65 -365.7,853.42 -590.04,1047.05 -172.51,148.92 -763.43,589.79 -988.91,668.33 21.63,-157.08 97.18,-298.41 93.52,-439.44 -4.76,-184.65 -85.57,-190.26 -159.17,-318.72zm-2099.77 -657.32c52.44,-203.6 96.33,-255.12 236.7,-364.09 347.54,-269.69 630.18,-699.77 1054.62,-651.43 159.89,18.19 1354.85,661.49 1476.09,757.06 -65.68,115.05 -268.14,364.56 -355.7,440.04 -100.68,86.81 -137.66,118.75 -220.09,205.21 -61.17,64.19 -123.53,147.12 -182.59,196.53 -135.55,-46.32 -412.3,-285.42 -606.5,-390.04 -373.74,-201.33 -349.99,-47.04 -605.74,149.96 -233.9,-102.51 -259.75,-324.86 -796.79,-343.24zm101.44 -459.29c3.4,-134.25 47.29,-198.67 129.78,-286.11l129.31 34.12c-26.68,106.79 -165.1,193.91 -259.09,251.99zm243.41 -418.13c17.82,-43.83 382.89,-533.72 452.76,-590.73 232,-189.31 550.06,-16.81 801.52,81.51 230.45,90.08 1314.68,516.85 1413.15,625.86 -35.82,123.66 -77.53,253.47 -160.11,347.44l-1200.04 -635.04c-225.45,-121.2 -447.27,-180.7 -714.97,-69.65 -311.18,129.09 -277.94,339.18 -592.31,240.61zm-6245.9 1923.87c-25.13,104.9 -28.48,58.17 5.89,151.22 133.35,-69.69 264.99,-161.38 362.55,-243.36 582.91,-489.86 967.37,-885.74 1524.42,-1382.35 252.69,-225.29 363.84,-261.55 720.96,-413.87 517.17,-220.56 1092.04,-507.81 1630.5,-671.8 471.13,-143.47 539.97,124.73 727.01,388.18 138.8,195.55 395.62,352.92 437.71,668.42 -309.57,-161.03 -712.44,-860.98 -1300.94,-695.79 -434.33,121.9 -1263.54,618.7 -1396.88,656.66 255.78,-35.82 741.73,-231.28 1012.3,-334.73 418.67,-160.05 583.23,-315.94 1002.21,-12.84l718.4 663.89c108.53,219.2 139.03,1001.99 72.24,1252.69 -312.44,260.64 -622.2,73.79 -715.81,-290.3 -81.1,-315.44 15.82,-351.04 -300.08,-622.93 -63.03,-54.23 -82.33,-71.98 -192.75,-51.55 -237.56,43.92 -1132.41,559.55 -1217.26,1188.4l154.29 -173.29c3.78,-13.37 15.86,-12.58 24.62,-17.57 190.67,930.33 540.91,1133.42 1371,1434.03 384.93,139.37 646.6,228.44 797.7,584.62 135.71,319.91 150.09,907.21 -122.28,1094.09 -329.68,-4.6 -558.22,-377.68 -721.8,-569.7 -485.08,-569.45 -1402.31,-460.76 -2045.95,-372.16 -280.41,38.56 -989.07,40.71 -1157.19,84.25l-538.93 13.75c58.18,84.97 74.32,44.87 208.33,49.88 145.8,5.46 185.21,10.72 300.36,65.87 846.99,31.75 1974.72,-275.8 2674.9,-27.18 420.43,149.3 521.27,434.84 777.18,676.18 620.27,584.96 779.41,-48.46 855.9,-158.22 213.59,538.01 707.69,437.71 1068.3,48.3 250.17,-270.15 270.51,-583.19 1066.54,-661.8 534.54,-52.75 1056.38,86.21 1586.26,122.59 314.11,21.6 577.62,-1.95 887.57,-10.47 437.87,-12.01 394.42,37.97 673.09,-191.58 297.52,221.1 113.29,180.96 228.72,473.6 52.5,133.15 200.85,334.67 272.46,436.7 98.66,140.6 201.23,272.65 301.82,407.19 113.44,151.79 224.78,258.68 345.26,397.61l691.79 726c196.91,179.35 559.17,500.49 817.76,646.29l80.75 -81.16c-66.66,-160.43 -283.81,-276.97 -408.64,-380.74 -146.34,-121.64 -266.32,-227.84 -400.57,-344.03l-376.64 -367.43c-227.97,-217.44 -812.08,-946.09 -1002.09,-1232.01 -296.89,-446.83 -209.08,-575.19 12.8,-1082.05 142.49,-325.43 400.16,-709.98 584.84,-904.78 294.44,-310.55 676.59,-254.08 1187.49,-152.77 202.11,40.08 2126.57,494.78 2346.12,681.89 243.3,-23.93 62.06,39.1 208.49,-124.3l0 -27.3c-704.19,-255.28 -1953.88,-630.53 -2725.54,-746.75 -482.99,-72.74 -623.34,-79.21 -996.85,100.02 -81.13,-160.69 -163.46,-207.07 -387.05,-203.41 -9.96,-284.19 -75.8,-287 -253.47,-423.97 -739.03,-569.7 -842.04,-708.78 -1485.3,-1279.9 -531.68,-472.08 -459.12,-507.49 -1250.05,-840.33 -365.53,-153.84 -1656.7,-813.16 -2026.24,-631.38 -147.47,72.52 -527.61,564.31 -655.12,727.45 -317.07,405.65 -177.11,629.61 -369.73,1013.88 -139.18,-402.34 -47.93,-583.64 -299.29,-948.67 -91.88,-133.44 -202.37,-228.44 -292.93,-346.12 -105.75,-137.41 -168.12,-249.12 -279.45,-357.4 -269.44,-261.96 -642.38,-87.97 -955.68,35.12 -298.03,117.11 -1607.48,655.44 -1804.2,784.24 -267.51,175.13 -477.16,405.68 -704.78,606.85 -133.56,118.02 -187.23,164.08 -326.31,311.49l-1028.73 884.64z"/>
  <path class="fil8" d="M1877.41 9423.42l233.2 -69.97 867.64 -243.92 206.78 -70.67 754.73 -310.83c116.69,124.39 253.22,491.22 332.46,684.07l72.4 194.29 352.64 869.66 92.76 268.89 147.13 560.62c-321.08,151.19 -657.14,377.24 -948.49,564.53l-215.67 144.1c-208.61,145.89 -589.44,417.28 -791.81,514.37 -68.95,87.24 -114.17,108.37 -201.7,164.52 -245.44,148.89 -538.58,436.23 -636.42,491.73 -77.54,-145.36 -73.63,-372.41 -125.71,-552.01 -49.67,-171.25 -101.63,-342.56 -162.23,-502.99l-46.23 -203.53 -375.47 -1258.68 -46.66 -211.95c-50.96,-281.48 -145.11,-582.54 -130.73,-890.16l621.38 -142.07zm-1873.88 664.45l465.68 -105.69 294.84 -94.09 365.76 -95.86 163.33 796.67 83.69 236.57c23.83,259.85 249.72,989.22 341.07,1244.75l51.42 235.13c119.63,158.54 173.17,593.95 216.75,803.53 -71.96,98.13 -308.57,257.33 -424.5,343.03 -108.12,95.6 -82.68,88.44 -210.92,134.79l-375.15 331.9c18.13,164.09 -0.1,63.66 41.59,113.42 295,-318.85 840.39,-653.3 937,-787.49 108.63,28 79.68,51.43 188.97,93.65 132.37,-76.37 246.1,-204.73 378.5,-310.84 365.38,-292.79 1901.35,-1319.25 2298.95,-1529.19 570.65,-301.27 -169.95,-370.77 702.92,-342.61 -115.15,-55.15 -154.56,-60.41 -300.36,-65.87 -134.01,-5.01 -150.15,35.09 -208.33,-49.88l538.93 -13.75c-123.16,-62.81 -435.19,-37.99 -571.72,-41.08 -131.42,-642.23 -577.71,-1514.5 -813.25,-2121.91 -34.37,-93.05 -31.02,-46.32 -5.89,-151.22 -168.6,-45.5 -181.59,-147.32 -378.69,-61.62 -124.45,54.11 -201.64,113.14 -331.55,165.67 -601.17,243.23 -1663.63,464.67 -2295.17,655.27l-40.74 227.97c-197.32,52.41 -393.72,112.19 -580.64,170.55 -428.47,133.82 -490.5,49.98 -532.49,218.2z"/>
  <path class="fil9" d="M14142.74 8034.86c-103.52,315.21 -293.11,592.37 -476.5,824.75 -269.93,342.08 115.63,662.91 459.76,689.11 874.66,66.66 612.64,-1425.7 16.74,-1513.86z"/>
  <path class="fil10" d="M2835.51 10250.47l0 0zm-626.61 -491.44c-13.09,144.6 -109.42,157.09 -70.13,367.37 28.6,153.15 125.18,196.56 251.87,258.21 491.06,79.8 591.17,-25.99 879.37,-241.88 51.55,-131.29 91.75,-238.12 83.46,-415.51 -58.87,-52.53 -48.05,-61.33 -121.61,-118.21 -74.13,-57.29 -76.81,-40.39 -142.11,-108.69 -189.32,17.03 -318.53,-22.67 -508.54,42.35 -190.51,65.2 -219.07,158.03 -372.31,216.36z"/>
  <path class="fil11" d="M14142.74 8034.86c595.9,88.16 857.92,1580.52 -16.74,1513.86 -344.13,-26.2 -729.69,-347.03 -459.76,-689.11 183.39,-232.38 372.98,-509.54 476.5,-824.75zm-66 -100.49c-78.73,123.75 -165.82,336.94 -264.35,504.68 -99.54,169.48 -247.99,326.16 -313.48,466.88 -384.62,826.49 1542.68,1215.96 1308.12,-134.51 -66.65,-383.67 -311.55,-910.17 -730.29,-837.05z"/>
  <path class="fil12" d="M15314.68 10942.36c114.99,-106.48 218.67,-680.6 681.61,-1240.18 80.02,-96.7 280.97,-307.24 20.49,-370.01 -227.87,-54.96 -199.78,307.9 -449.82,792.87 -75.42,146.28 -134.38,285.14 -216.9,421.45 -100.17,165.44 -184.77,249.6 -35.38,395.87z"/>
  <path class="fil13" d="M11926.02 9632.34c76.65,185.37 157.49,278.23 202.2,543.82 26.96,160.2 37.34,576.82 79.05,681.6 165.51,2.18 142.84,-66.31 145.58,-263.95 7.69,-551 -124.67,-934.13 -287.31,-1110.8 -42.35,43.76 -94.02,106.45 -139.52,149.33z"/>
  <path class="fil14" d="M10644.69 11672.87c92.89,-10 48.24,11.63 59.03,-46.89 -24.38,-138.61 -59.97,-244.87 26.96,-354.79 -93.08,-33.51 -62.72,16.53 -111.18,-97.43 -88.76,-208.83 -29.2,-70.56 19.14,-127.03 -185.28,73.62 -45.25,-25.83 -190.76,88.91 -34.53,27.25 102.82,107.49 -160.28,25.86 67.48,-1.52 69.18,-43.77 76.94,-92.42 -135.99,-12.11 -51.84,6.37 -168.38,54.42 -25.03,166.49 -17.72,329.16 12.52,460.89l61.27 19.46c9.27,2.11 20.33,5.14 30.33,7.03l135.14 8.79c2.62,40.4 7.85,4.89 -88.51,92.26 156.71,-59.27 134.2,-49.85 297.78,-39.06z"/>
  <path class="fil15" d="M2835.51 10250.47l71.45 -62.68c126.03,-89.3 112.72,-39.92 127.98,-202.05 -144.91,-24.28 -206.27,-17.59 -327.67,36.58 -110.51,49.31 -142.89,66.08 -136.97,219.07l265.21 9.08z"/>
  <path class="fil16" d="M2835.51 10250.47l-265.21 -9.08c-5.92,-152.99 26.46,-169.76 136.97,-219.07 121.4,-54.17 182.76,-60.86 327.67,-36.58 -15.26,162.13 -1.95,112.75 -127.98,202.05l-71.45 62.68zm0 0l0 0z"/>
  <path class="fil17" d="M10165.3 7206.09c93.99,-58.08 232.41,-145.2 259.09,-251.99l-129.31 -34.12c-82.49,87.44 -126.38,151.86 -129.78,286.11z"/>
 </g>
</svg>
