<?xml version="1.0" encoding="UTF-8"?>
<!DOCTYPE svg PUBLIC "-//W3C//DTD SVG 1.1//EN" "http://www.w3.org/Graphics/SVG/1.1/DTD/svg11.dtd">
<!-- Creator: CorelDRAW 2017 -->
<svg xmlns="http://www.w3.org/2000/svg" xml:space="preserve" width="200mm" height="200mm" version="1.1" style="shape-rendering:geometricPrecision; text-rendering:geometricPrecision; image-rendering:optimizeQuality; fill-rule:evenodd; clip-rule:evenodd"
viewBox="0 0 20000 20000"
 xmlns:xlink="http://www.w3.org/1999/xlink">
 <defs>
  <style type="text/css">
   <![CDATA[
    .str0 {stroke:#082C5C;stroke-width:7.62;stroke-miterlimit:22.9256}
    .str1 {stroke:#316DA9;stroke-width:7.62;stroke-miterlimit:22.9256}
    .fil1 {fill:#010206}
    .fil7 {fill:#082C5C}
    .fil2 {fill:#082C5C}
    .fil11 {fill:#0B2443}
    .fil9 {fill:#124175}
    .fil0 {fill:#1D5B98}
    .fil4 {fill:#316DA9}
    .fil8 {fill:#316DA9}
    .fil5 {fill:#A2A1A6}
    .fil12 {fill:#C39B30}
    .fil6 {fill:#F1D75E}
    .fil3 {fill:#F8F8F6}
    .fil10 {fill:#FCFBC9}
   ]]>
  </style>
 </defs>
 <g id="Capa_x0020_1">
  <metadata id="CorelCorpID_0Corel-Layer"/>
  <path class="fil0" d="M4302.45 4277.91c-35.87,143.44 -797.67,1016.51 -904.73,1123.02 76.22,58.18 31.1,-9.21 57.27,90.39 15.42,58.63 -2.53,61.36 -11.55,93.68 -28.19,187.97 52.18,434.26 147.11,563.79 141.2,192.61 245.53,139.23 427.32,254.57 -343.47,222.16 -450.07,-88.08 -611.33,934.77 -80.45,-140.88 -59.69,-837.96 -461.28,-851.87l-86.83 -4.69c-9.93,88.65 -150.1,327.71 -196.33,423.1 -33.29,68.68 -87.03,157.79 -110.5,206.12 -36.87,75.91 -56.9,146.23 -89.19,215.02 -105.04,223.68 -335.05,677 -324.41,915.66 109.64,-39.4 33.2,-119.86 361.62,-170.53 184.36,-28.45 61.08,-41.73 192.83,-57.86 40.12,-4.93 13.94,10.29 83.62,-8.28 197.81,-52.78 306.06,-35.82 610.93,-10.81 161.79,13.28 25.97,10.61 203.47,70.38 64.15,21.59 36.02,7 90.95,33l64.3 36.19c2.47,-4.78 10.67,6.23 15.93,9.47 4.13,24.13 5.24,13.55 -3.04,34.09 -1.08,2.7 -14.54,10.92 -21.57,15.13 90.96,0 180,85.24 348.88,165.52 31.75,15.11 18.35,4.98 50.47,23.93 19.95,11.72 12.55,7.42 29.93,20.2 5.92,4.35 21.59,18.04 27.06,22.79 3.87,3.38 9.16,8.33 12.91,11.86 66.38,61.74 84.95,95.25 94.17,201.23 55.54,-15.03 33.32,-11.01 98.47,-24.59 28.3,125.41 34.39,70.56 0,196.82 7.51,-3.1 36.78,-20.09 40.96,-21.45 39.81,-12.89 -8.22,-14.48 34.51,1.39 2.39,105.52 24.61,111.47 24.61,239.86 78.35,-82.76 32.89,-102.22 73.83,-67.62 65.55,126.4 22.25,758.3 23.39,964.93 -93.69,1.53 -80.89,-17.04 -112.55,56.41 -16.13,37.33 -4.07,37.64 -18.1,79.89 -57.21,172.43 -131.75,83.16 -91.26,281.14 -24.27,11.07 -72.21,22.56 -75.85,24.24l-67.03 53.23c-31.26,47.37 -29.41,94.03 -29.41,143.96 -64.56,-13.18 -43.08,-9.02 -98.47,-24.61 -13.88,57.78 -23.02,72.06 -24.61,148.05 -150.47,-0.85 -123.38,31.83 -334.94,133.86 -52.6,25.34 -45.52,26.31 -78.72,44.06 -35.96,19.24 -49.27,22.28 -82.9,40.26 -245.98,131.61 -179.52,126.46 -567.12,126.8l-532.15 -67.79c-84.01,-34.26 -11.58,-47.57 -134.28,-80.12 -249.17,-66.09 44.49,25.61 -258.18,-161.54l-30.45 -18.46c-408.73,-238.13 -94.9,-186.15 -332.66,-356.82l-44.07 -28.73c-115.39,-70.44 -104.32,-21.51 -137.35,-236.53l-25.27 -140.35c-0.68,-8.13 -2.95,-11.06 -6.14,-15.67 -98.72,284.78 -166.83,1181.92 -201.11,1415.69 -6.94,-84.24 -18.67,-38.81 -46.55,-68.99 54.57,596.99 312.87,1399.33 526.3,1862.09 122.3,265.15 272.32,533.4 435.65,745.18 118.49,153.69 420.48,555.51 560.4,622.46 161.99,132.12 -169.11,88.28 449.22,260.68 200.17,55.82 385.72,96.82 530.36,200.09l4.55 122.96c-364.41,260.83 -947.86,-46.69 -1115.23,-87.03 -29.93,211.5 53.4,1435.06 77.33,1710.34 45.49,522.88 165.15,1062.6 255.71,1575.61 72.17,179.49 1462.8,669.28 1778.42,756.79 490.19,135.93 1840.1,271.18 2342.41,137.01 52.26,-123.9 734.77,-746.01 929.14,-914.88 334.63,-290.76 593.15,-590.39 896.51,-949.37 247.45,-292.84 202.62,-294.23 148.19,-687.38 -79.2,-571.84 -185.89,-961.57 -320,-1506.87 -66.77,-271.44 -100.74,-503.44 -157.75,-802.11 -25.81,-45.66 -1562.95,-1072.64 -1676.23,-1444.14l472.46 384.02c185.95,142.05 333.06,248.36 512.58,374.6 137.92,96.98 955.68,658.69 1053.47,677.7 614.91,53.2 305.46,-46.32 739.92,-60.34 524.3,-16.96 951.5,95.87 1598.33,-30.73 782.4,-153.17 1171.48,-310.44 1912.51,-597.47 258.12,-99.98 977.67,-454.74 1218.25,-457.93 15.27,60.03 30.64,103.58 51.46,155.68 -319.46,284.35 -1190.39,700.74 -1660.47,852.95l33.15 41.93 191.29 -16.61c-203.02,136.5 -1518.99,361.2 -1843.06,370.02 -93.46,88.87 -242.85,31.58 -336.62,75.39 354.91,5.69 1005.19,15.22 1350.06,55.19l333.29 37.53c96.38,28.62 49.7,13 99,54.9 -8.59,144.44 25.15,49.08 -46.06,118.95 -23.44,23.02 -99.34,51.1 -121.42,58.47 -80.83,27.02 -188.88,54.76 -259.18,67.48 -305.78,55.31 -970.08,72.4 -1274.52,32.97 -106.71,-13.8 -181.03,-20.2 -285.95,-26.66 -190.47,-11.74 -243.87,-58.69 -294.62,8.06 185.06,70.55 1061,476.02 1206.66,454.37 184.39,62.67 286.32,114.56 455.14,161.14 119.35,32.94 421.54,81.68 488.91,121.59 38.35,357.53 -889.31,-41.17 -1280.69,-141.42 -172.72,-44.21 -303.48,-114.51 -457.19,-142.79 305.61,230.5 1127.18,419.29 1487.21,522.36 97.58,27.94 191.1,69.71 315.54,98.7 151.18,35.25 437.75,112.26 525.32,252.12 -270.81,180.31 -682.51,86.85 -999.07,13.74l-689.16 -190.98c-85.21,-29.99 -129.59,-59.72 -239.07,-75.34 15.02,100.71 104.5,121.79 170.33,193.94 217.53,44.07 213.77,37.41 378.89,121.77l-122.95 98.43c71.8,145.98 178.29,122.94 153,337.16 -264.98,69.65 -465.98,-86.88 -603.93,-288.96l-18.87 -40.12c-53.74,-28.99 -177.38,-149.04 -227.25,-160.23l-1040.58 -752.69c-97.01,-98.69 -157.07,-274.97 -339.75,-255.25 -35.36,58.35 -16.64,-12.46 -22.07,91.72 11.46,103.67 224.95,644.59 270.75,770.59 49.42,135.99 249.31,707.35 244.21,816.11 539.3,295.39 1104.34,1414.95 1753.62,2082.98l563.3 542.76c5.3,4.53 36.45,28.62 42,33.2l44.75 38.67c3.55,3.15 10.27,9.16 15.13,14.02 389.56,3.96 830.28,63.42 1247.81,74.82 408.96,11.19 933.83,13.46 1336.34,-30.18 714.12,-77.44 1700.56,-119.03 2314.22,-343.9 62.1,-102.96 173,-939.58 202.1,-1161.97 47.4,-362.4 83.33,-1568.18 42.08,-1983.38 -56.7,-570.59 -127.74,-1253.55 -254.4,-1808.47 -80.94,-354.68 -199.57,-685.38 -276.93,-1072.12 -218.69,-1093.64 -480.8,-2507 -497.35,-3621.69l-106.18 -61.08 -112.83 11.32c-120.88,3.02 -264.19,22.76 -365.81,-43.38l-139.29 -181.85 -83.18 13.11c-32.07,-18.38 -3.31,22.73 -17.47,-20.71 -0.66,-1.99 -4.19,-9.04 -4.41,-11.38 -6.23,-58.15 87.39,-129.59 129.05,-173.46 58.06,-61.11 132.88,-136.75 181.33,-187.79 112.3,-118.27 266.83,-236.08 373.01,-346.38 35.62,-137.98 9.87,-348.34 7.45,-525.18 -1.99,-146.74 -79.83,-293.18 -139.8,-423.76 -312.32,-680.38 -254.82,-1364.85 -1276.82,-2090.74 -244.9,-173.95 -455.26,-281.03 -718.65,-413.52 -237.21,-119.32 -533.37,-252.58 -758.98,-375.25 -267.4,-145.38 -447.26,-281.77 -732.64,-403.02 -201.65,-85.67 -533.88,-282.17 -678.81,-422.97 -175.33,-170.38 -617.07,-175.13 -916.39,-226.68 -310.82,-53.49 -656.71,-90.42 -981.29,-143.08 -331.24,-53.74 -1788.75,2.73 -2182.98,44.16 -211.75,22.24 -1690.14,247 -1949.23,313.77 -161.68,41.65 -1182.66,165.21 -1464.2,240.91 -60.54,16.28 -166.15,47.66 -233.71,37.44 -112.61,-17.01 -62.39,-19.49 -58.81,-56.95 4.72,-49.45 21.88,29.53 30.87,-98.7l-61.74 -0.25z"/>
  <path class="fil1" d="M4192.3 4139.04l105.12 11.9 10.1 -98.84c0.08,-157.92 -92.46,-325.44 -129.62,-476.08 758.44,-311.81 2100.82,-530.7 2990.72,-693.86 1157.08,-212.18 2183.81,-307.26 3427.32,-255.14 1181.15,49.48 2035.52,316.99 2973.59,706.18 881.18,365.58 1700.62,718.99 2614.37,1033.56 306.94,59.06 677.98,222.33 1084.39,284.75 177.64,27.28 230.24,27.4 409.25,39.54 33.45,154.49 -119.58,449.08 -167.52,578.16 -31.49,84.75 -74.59,175.82 -112.37,256.16l-84.95 208.62c-16.87,45.95 -2.85,23.05 -21.37,49.54 -363.08,-117.22 -544.24,-200.97 -867.94,-356.99 -47.32,-22.79 -92.64,-43.99 -135.26,-63.36l-131.35 -75.53 -1257.56 -527.41c-424.87,-183.35 -851.13,-359.71 -1278.33,-518.63 -849.86,-316.2 -1820.25,-635.2 -2824.44,-770.71 -1035.57,-139.74 -2347.3,-141.02 -3376.62,29.79 -971.27,161.17 -2048.95,365.52 -2948.44,633.29l-90.3 52.63c-6.43,3.47 -13.4,6.49 -19.23,9.65 -5.98,3.18 -14.29,8.02 -19.15,10.69 -5.01,2.71 -15.65,17.16 -19.23,11.67 -3.67,-5.58 -13.6,7.25 -19.46,12.17 284.52,-76.78 608.99,-102.67 902.28,-168.53 791.79,-177.87 1761.04,-380.49 2541.13,-486.44 1577.71,-214.25 3058.24,-98.15 4523.43,363.51 972.35,306.34 1275.52,463.22 2208.38,823.42 500.89,193.4 946.64,394.08 1413.07,598.98 543.08,238.58 693.07,327.65 1252.3,520.46l185.01 78.29c-19.14,137.53 -88.79,315.51 -128.56,447.94 -220.23,733.38 -227.57,1694.73 -110.27,2463.75l173.54 896.28c-161.82,-1.16 -432.46,-36.04 -602.11,-53.03 -374.17,-37.46 -524.98,22.56 -591.87,18.5l210.25 18c75.36,15.94 44.46,11.78 64.35,21.65l112.83 -11.32 849.54 59.66c61.48,404.36 600.17,1893.96 759.27,2368.56 575.45,1716.57 849.33,3594.03 567.2,5422.29l-167.57 988.23c-46.49,239.95 36.53,174.34 -79.94,315.26 -241.63,292.37 -661.97,469.27 -1037.82,554.71 -613.66,224.87 -1600.1,266.46 -2314.22,343.9 -402.51,43.64 -927.38,41.37 -1336.34,30.18 -417.53,-11.4 -858.25,-70.86 -1247.81,-74.82l-1207.15 -98.58c-79.15,-43.27 -60.31,-42.42 -96.73,-134.54 -33.71,-85.29 -41.22,-97.61 -79.34,-168.9 -56.08,-104.78 -111.19,-186.89 -179.21,-289.91 -679.89,-1029.93 -477.78,-1154.94 -856.37,-2019.7 5.1,-108.76 -194.79,-680.12 -244.21,-816.11 -45.8,-126 -259.29,-666.92 -270.75,-770.59 -29.96,-33.66 -16.53,-8.34 -47.17,-71.15l-97.1 -249.54c-34.94,-79.46 -78.78,-244.95 -183.45,-239.94l502.4 1752.67c62.96,170.48 -2.96,211.98 -83.08,341.06 -131.66,212.12 -243.18,381.65 -366.6,568.85l-401.62 508.2c-483.57,526.07 -889.26,1008 -1727.53,1099.24 -502.31,134.17 -1852.22,-1.08 -2342.41,-137.01 -315.62,-87.51 -1706.25,-577.3 -1778.42,-756.79 -470.82,-145.81 -1092.13,-1084.59 -1169.4,-1673.9 -91.44,-697.48 230.1,-1887.41 261.14,-2557.58 106.6,43.19 346.86,364.33 594.28,464.45 121.57,49.18 79.12,29.98 112.04,-15.62 -139.92,-66.95 -441.91,-468.77 -560.4,-622.46 -163.33,-211.78 -313.35,-480.03 -435.65,-745.18 -213.43,-462.76 -471.73,-1265.1 -526.3,-1862.09 -223.21,-1116.51 82.93,-2543.47 487.77,-3425.38 329.37,-717.53 712.36,-1302.63 1188.66,-1888.21 154.57,-190.02 308.43,-367.74 454.23,-560.58 107.06,-106.51 868.86,-979.58 904.73,-1123.02l-45.54 -9.39 -551.65 560.09c-1126.18,1204.68 -2215.66,2558.06 -2579.59,4236.54 -34.85,160.65 -128.85,943.36 -152.44,997.65l0 750.5 173.78 1101.92c143.04,637.64 386.91,1292.3 727.14,1830.37 273.4,432.41 129.73,-19.6 -66.83,894.97 -127.51,593.43 -311.29,1685.99 -138.92,2265.03 196.51,660.12 632.3,1167.29 1107.21,1474.26 1138.59,735.88 2793.54,1043.68 4196.2,921.69 366.49,-31.86 717.61,-133.23 994.86,-272.32 621.28,-311.64 1188.26,-1047.09 1580.72,-1618.79 132.95,-193.66 191.47,-384.36 237.3,-424.59 294.6,972.13 350.93,1411.17 895.94,2201.59 133.86,194.11 249.68,489.19 432.98,610.87 75.22,18.81 59.23,-45.21 148.05,-55.56l519.47 87.08c237.72,38.07 488.19,64.36 722.99,89.68 1588.63,171.12 4357.53,92.89 5732.6,-638.76 271.83,-144.64 263.78,-150.55 387.62,-424.27 88.43,-195.39 122.34,-426.12 163.62,-644.67 190.55,-1008.74 299.35,-1902.52 186.46,-2988.59 -258.58,-2488.1 -760.64,-3063.61 -1361.72,-5127.64 -267.71,-919.27 -455.06,-1787.98 -355.2,-2865.26 23.79,-256.3 138.98,-1239.59 222.28,-1401.24 108.94,-211.32 142.53,-216.73 266.43,-547 265.61,-707.97 158.5,-679.32 -94.91,-714.26 -92.26,-320.26 -77.01,-1276.26 -84.15,-1707.44 -3.58,-216.53 27.43,-416.62 -115.93,-503.36 -194.09,-117.47 -453.86,-214.31 -784.96,-421.88 -256.05,-160.52 -482.71,-314.03 -729.11,-476.62 -727.52,-480.03 -2000.3,-1105.3 -2904.8,-1327.15 -368.17,-90.3 -3.76,-120.55 -510.11,-91.19l92.15 81.03c-200.91,1.88 -252.21,-154.28 -1057.88,-120.74 -383.41,15.93 -720.09,66.94 -1082.51,124.49 -1621.46,257.5 -4255.74,1256.74 -5522.47,1396.4 -398.06,43.9 -231.29,11.67 -303.64,676.51 -23.27,213.86 -158.07,925.9 -236.62,1094.89 -42.67,91.89 -101.7,83.61 -203.38,119.29 -116.76,40.94 -158.75,52.97 -234.2,105.72 2.07,160.06 135.7,530.59 218.61,621.28z"/>
  <path class="fil2 str0" d="M17348.46 19470.96c375.85,-85.44 796.19,-262.34 1037.82,-554.71 116.47,-140.92 33.45,-75.31 79.94,-315.26l167.57 -988.23c282.13,-1828.26 8.25,-3705.72 -567.2,-5422.29 -159.1,-474.6 -697.79,-1964.2 -759.27,-2368.56l-849.54 -59.66 106.18 61.08c16.55,1114.69 278.66,2528.05 497.35,3621.69 77.36,386.74 195.99,717.44 276.93,1072.12 126.66,554.92 197.7,1237.88 254.4,1808.47 41.25,415.2 5.32,1620.98 -42.08,1983.38 -29.1,222.39 -140,1059.01 -202.1,1161.97z"/>
  <path class="fil3" d="M4307.52 4052.1c22.53,27.54 0.88,0.68 26.74,44.3 3.04,5.12 7.54,13.2 10.7,18.52l126.43 19.06c899.49,-267.77 1977.17,-472.12 2948.44,-633.29 1029.32,-170.81 2341.05,-169.53 3376.62,-29.79 1004.19,135.51 1974.58,454.51 2824.44,770.71 427.2,158.92 853.46,335.28 1278.33,518.63l1257.56 527.41 56.53 -4.78c-12.69,-215.77 47.48,-776 -29.41,-916.11 -913.75,-314.57 -1733.19,-667.98 -2614.37,-1033.56 -938.07,-389.19 -1792.44,-656.7 -2973.59,-706.18 -1243.51,-52.12 -2270.24,42.96 -3427.32,255.14 -889.9,163.16 -2232.28,382.05 -2990.72,693.86 37.16,150.64 129.7,318.16 129.62,476.08z"/>
  <path class="fil4 str1" d="M1267.06 11275.1c27.88,30.18 39.61,-15.25 46.55,68.99 34.28,-233.77 102.39,-1130.91 201.11,-1415.69 3.19,4.61 5.46,7.54 6.14,15.67l25.27 140.35c33.03,215.02 21.96,166.09 137.35,236.53l44.07 28.73c237.76,170.67 -76.07,118.69 332.66,356.82l30.45 18.46c302.67,187.15 9.01,95.45 258.18,161.54 122.7,32.55 50.27,45.86 134.28,80.12l532.15 67.79c387.6,-0.34 321.14,4.81 567.12,-126.8 33.63,-17.98 46.94,-21.02 82.9,-40.26 33.2,-17.75 26.12,-18.72 78.72,-44.06 211.56,-102.03 184.47,-134.71 334.94,-133.86 1.59,-75.99 10.73,-90.27 24.61,-148.05 55.39,15.59 33.91,11.43 98.47,24.61 0,-49.93 -1.85,-96.59 29.41,-143.96l67.03 -53.23c3.64,-1.68 51.58,-13.17 75.85,-24.24 -40.49,-197.98 34.05,-108.71 91.26,-281.14 14.03,-42.25 1.97,-42.56 18.1,-79.89 31.66,-73.45 18.86,-54.88 112.55,-56.41 -1.14,-206.63 42.16,-838.53 -23.39,-964.93 -40.94,-34.6 4.52,-15.14 -73.83,67.62 0,-128.39 -22.22,-134.34 -24.61,-239.86 -42.73,-15.87 5.3,-14.28 -34.51,-1.39 -4.18,1.36 -33.45,18.35 -40.96,21.45 34.39,-126.26 28.3,-71.41 0,-196.82 -65.15,13.58 -42.93,9.56 -98.47,24.59 -9.22,-105.98 -27.79,-139.49 -94.17,-201.23 -3.75,-3.53 -9.04,-8.48 -12.91,-11.86 -5.47,-4.75 -21.14,-18.44 -27.06,-22.79 -17.38,-12.78 -9.98,-8.48 -29.93,-20.2 -32.12,-18.95 -18.72,-8.82 -50.47,-23.93 -168.88,-80.28 -257.92,-165.52 -348.88,-165.52 7.03,-4.21 20.49,-12.43 21.57,-15.13 8.28,-20.54 7.17,-9.96 3.04,-34.09 -5.26,-3.24 -13.46,-14.25 -15.93,-9.47l-64.3 -36.19c-54.93,-26 -26.8,-11.41 -90.95,-33 -177.5,-59.77 -41.68,-57.1 -203.47,-70.38 -304.87,-25.01 -413.12,-41.97 -610.93,10.81 -69.68,18.57 -43.5,3.35 -83.62,8.28 -131.75,16.13 -8.47,29.41 -192.83,57.86 -328.42,50.67 -251.98,131.13 -361.62,170.53 -10.64,-238.66 219.37,-691.98 324.41,-915.66 32.29,-68.79 52.32,-139.11 89.19,-215.02 23.47,-48.33 77.21,-137.44 110.5,-206.12 46.23,-95.39 186.4,-334.45 196.33,-423.1l86.83 4.69c-49.45,-45.52 -103.9,-50.13 -151.61,-82.9 245.32,-168.56 499.04,8.62 591.13,-893.01 4.27,5.58 10.15,13.09 12.94,16.64 2.68,3.42 9.62,12.27 12.52,15.99l33.2 42.02c9.02,-32.32 26.97,-35.05 11.55,-93.68 -26.17,-99.6 18.95,-32.21 -57.27,-90.39 -145.8,192.84 -299.66,370.56 -454.23,560.58 -476.3,585.58 -859.29,1170.68 -1188.66,1888.21 -404.84,881.91 -710.98,2308.87 -487.77,3425.38z"/>
  <path class="fil2 str0" d="M4471.39 4133.98l-126.43 -19.06c-3.16,-5.32 -7.66,-13.4 -10.7,-18.52 -25.86,-43.62 -4.21,-16.76 -26.74,-44.3l-10.1 98.84 -105.12 -11.9c42.19,38.5 -61,18.7 69.84,38.44 -48.65,74.37 -66.57,11.75 -5.23,91.04l45.54 9.39 61.74 0.25c-8.99,128.23 -26.15,49.25 -30.87,98.7 -3.58,37.46 -53.8,39.94 58.81,56.95 67.56,10.22 173.17,-21.16 233.71,-37.44 281.54,-75.7 1302.52,-199.26 1464.2,-240.91 259.09,-66.77 1737.48,-291.53 1949.23,-313.77 394.23,-41.43 1851.74,-97.9 2182.98,-44.16 324.58,52.66 670.47,89.59 981.29,143.08 299.32,51.55 741.06,56.3 916.39,226.68 144.93,140.8 477.16,337.3 678.81,422.97 285.38,121.25 465.24,257.64 732.64,403.02 225.61,122.67 521.77,255.93 758.98,375.25 263.39,132.49 473.75,239.57 718.65,413.52 1022,725.89 964.5,1410.36 1276.82,2090.74 59.97,130.58 137.81,277.02 139.8,423.76 2.42,176.84 28.17,387.2 -7.45,525.18 114.45,-63.73 390.76,-355.19 463.08,-327.03 -43.22,144.7 -794.26,807.21 -1032.82,989.85l-91.77 76.9 83.18 -13.11 139.29 181.85c101.62,66.14 244.93,46.4 365.81,43.38 -19.89,-9.87 11.01,-5.71 -64.35,-21.65l-210.25 -18c66.89,4.06 217.7,-55.96 591.87,-18.5 169.65,16.99 440.29,51.87 602.11,53.03l-173.54 -896.28c-117.3,-769.02 -109.96,-1730.37 110.27,-2463.75 39.77,-132.43 109.42,-310.41 128.56,-447.94l-185.01 -78.29c-559.23,-192.81 -709.22,-281.88 -1252.3,-520.46 -466.43,-204.9 -912.18,-405.58 -1413.07,-598.98 -932.86,-360.2 -1236.03,-517.08 -2208.38,-823.42 -1465.19,-461.66 -2945.72,-577.76 -4523.43,-363.51 -780.09,105.95 -1749.34,308.57 -2541.13,486.44 -293.29,65.86 -617.76,91.75 -902.28,168.53 5.86,-4.92 15.79,-17.75 19.46,-12.17 3.58,5.49 14.22,-8.96 19.23,-11.67 4.86,-2.67 13.17,-7.51 19.15,-10.69 5.83,-3.16 12.8,-6.18 19.23,-9.65l90.3 -52.63z"/>
  <path class="fil3" d="M13202.79 2740.6c572.63,23.44 1053.86,310.7 1557.62,535.05 190.53,84.87 1381.46,586.92 1510.09,582.14 34.25,-216.39 245.77,-1723.6 233.37,-1779.87 -147.09,-158.5 -1494.35,-950.91 -1685.53,-1050.48 -492.04,-256.31 -912.79,-437.02 -1438.77,-629.71 -142.64,-52.23 -379.54,-162.73 -516.24,-188.82 -53.06,643.13 123.21,2012.14 339.46,2531.69z"/>
  <path class="fil2 str0" d="M7112.18 19181.28c838.27,-91.24 1243.96,-573.17 1727.53,-1099.24l401.62 -508.2c123.42,-187.2 234.94,-356.73 366.6,-568.85 80.12,-129.08 146.04,-170.58 83.08,-341.06l-502.4 -1752.67c104.67,-5.01 148.51,160.48 183.45,239.94l97.1 249.54c30.64,62.81 17.21,37.49 47.17,71.15 5.43,-104.18 -13.29,-33.37 22.07,-91.72 182.68,-19.72 242.74,156.56 339.75,255.25l1040.58 752.69c-65.55,-136.27 -207.63,-209.7 -327.32,-310.18l-994.88 -817.08c157.18,-53.46 764.07,447.37 877.84,541.26 231.35,190.84 538.55,478.27 704.27,749.7l-32.66 -3.47 18.87 40.12 54.93 -45.81c140,-163.81 -119.17,25.86 41.48,-61.28 91.3,52.89 59.06,54.77 111.5,144.78l3.24 -93.8 160.88 -5.54 -177.04 -206.75c-65.83,-72.15 -155.31,-93.23 -170.33,-193.94 109.48,15.62 153.86,45.35 239.07,75.34l689.16 190.98c316.56,73.11 728.26,166.57 999.07,-13.74 -87.57,-139.86 -374.14,-216.87 -525.32,-252.12 -124.44,-28.99 -217.96,-70.76 -315.54,-98.7 -360.03,-103.07 -1181.6,-291.86 -1487.21,-522.36 153.71,28.28 284.47,98.58 457.19,142.79 391.38,100.25 1319.04,498.95 1280.69,141.42 -67.37,-39.91 -369.56,-88.65 -488.91,-121.59 -168.82,-46.58 -270.75,-98.47 -455.14,-161.14 96.36,114.39 119.52,34.05 163.9,110.78 -619.52,-133.77 -1111.59,-325.78 -1662.88,-533.89 -251.07,-94.76 -532.5,-231.24 -753.07,-351.21l-722.25 -412.01c57.01,298.67 90.98,530.67 157.75,802.11 134.11,545.3 240.8,935.03 320,1506.87 54.43,393.15 99.26,394.54 -148.19,687.38 -303.36,358.98 -561.88,658.61 -896.51,949.37 -194.37,168.87 -876.88,790.98 -929.14,914.88zm4052.67 -2592.82c137.95,202.08 338.95,358.61 603.93,288.96 25.29,-214.22 -81.2,-191.18 -153,-337.16l122.95 -98.43c-165.12,-84.36 -161.36,-77.7 -378.89,-121.77l177.04 206.75 -160.88 5.54 -3.24 93.8c-52.44,-90.01 -20.2,-91.89 -111.5,-144.78 -160.65,87.14 98.52,-102.53 -41.48,61.28l-54.93 45.81z"/>
  <path class="fil2 str0" d="M2991.35 18287.48c-90.56,-513.01 -210.22,-1052.73 -255.71,-1575.61 -23.93,-275.28 -107.26,-1498.84 -77.33,-1710.34 167.37,40.34 750.82,347.86 1115.23,87.03l-4.55 -122.96c-144.64,-103.27 -330.19,-144.27 -530.36,-200.09 -618.33,-172.4 -287.23,-128.56 -449.22,-260.68 -32.92,45.6 9.53,64.8 -112.04,15.62 -247.42,-100.12 -487.68,-421.26 -594.28,-464.45 -31.04,670.17 -352.58,1860.1 -261.14,2557.58 77.27,589.31 698.58,1528.09 1169.4,1673.9z"/>
  <path class="fil5" d="M13202.79 2740.6c3.33,39.26 19.71,133.43 16.67,168.82 -11.32,130.61 -13.88,7.99 -57.1,114.85 419.21,99.4 2231.63,965.13 3073.88,1211.05 272.3,79.51 853.89,291.64 1131.93,302.45 -84.29,-632.36 -56.61,-1374.35 -68.53,-2033.68 -54.94,-61.33 -706.78,-398.46 -795.77,-426.17 12.4,56.27 -199.12,1563.48 -233.37,1779.87 -128.63,4.78 -1319.56,-497.27 -1510.09,-582.14 -503.76,-224.35 -984.99,-511.61 -1557.62,-535.05z"/>
  <path class="fil6" d="M6872.95 1236.4c32.74,50.67 47.82,-33.14 -15.77,98.49l-17.72 32.64c-2.85,5.46 -6.06,11.4 -8.99,17.04l-48.56 95.28c413.11,-57.36 877.56,-183.59 1290.99,-259.78 1034.49,-190.64 2479.14,-358.32 3537.07,-234.43 220.43,25.81 478.98,126.01 647.52,137.7l58.92 -10.87c-55.62,-122.47 -56.7,-314.85 -79.15,-464.24 -37.3,-248.25 -61.22,-250.53 0.28,-474.88 -859.58,-311.47 -3629.93,553.34 -4716.22,866.55 -169.71,48.9 -512.73,112.6 -648.37,196.5z"/>
  <path class="fil6" d="M6494.56 1713.3l173.23 -24.41c-84.98,86.86 -61.87,68.77 -125.69,169.74 -64.69,102.3 -91.86,79.37 -85.4,225.91 220.48,-33.2 474.54,-109.41 694.71,-157.15 1340.5,-290.59 3236.96,-627.38 4569.29,-262.59 197.92,54.19 462.22,175.3 645.01,209.53 94.8,4.21 27.23,5.06 49.5,-22.73l-84.24 -518.53c-780.52,-374.74 -2068.24,-271.35 -2983.24,-162.19 -372.49,44.44 -2712.06,425.67 -2853.17,542.42z"/>
  <path class="fil6" d="M6214.02 2320.51l46.86 15.25c-84.81,60.17 -113.8,150.87 -137.98,235.79 506.32,-85.18 995.05,-203.47 1500.92,-293.09 955.94,-169.36 2401.1,-319.01 3350.9,-165.41 327.77,53 1459.64,339.58 1476.57,340.06 48.36,-16.56 26.03,-28.19 11.92,-123.39 -12.29,-82.76 -14.45,-158.2 -24.64,-240.71 -1082.06,-457.58 -1843.03,-521.08 -3146.37,-383.67 -531.13,55.99 -1073.18,151.78 -1585.79,257.41 -265.92,54.82 -1346.98,271.92 -1492.39,357.76z"/>
  <path class="fil6" d="M5953.14 2749.16l38.35 10.04c-95.48,61.94 -119.55,165.95 -179.52,249.62 1191.87,-219.6 2283.94,-469.62 3578.18,-501.77 656.76,-16.3 1319.5,-15.08 1961.27,64.47 633.89,78.58 1100.49,195.73 1682.55,383.93l-78.41 -165.58c-253.94,19.75 -350.87,-117.89 -753.66,-252.46 -2036.12,-680.35 -3781.77,-301.97 -5828.82,107 -123.53,24.69 -343.95,40.37 -419.94,104.75z"/>
  <path class="fil7" d="M12450.09 19770.22c-4.86,-4.86 -11.58,-10.87 -15.13,-14.02l-44.75 -38.67c-5.55,-4.58 -36.7,-28.67 -42,-33.2l-563.3 -542.76c-649.28,-668.03 -1214.32,-1787.59 -1753.62,-2082.98 378.59,864.76 176.48,989.77 856.37,2019.7 68.02,103.02 123.13,185.13 179.21,289.91 38.12,71.29 45.63,83.61 79.34,168.9 36.42,92.12 17.58,91.27 96.73,134.54l1207.15 98.58z"/>
  <path class="fil8 str1" d="M8970.55 14312.85c59.88,73.03 106.88,90.33 196.18,116.33 85.47,24.86 141.17,24.86 241.83,36.21 939.78,105.92 1591.85,45.64 2537.55,-70.81 36.52,-4.49 879.69,-114.34 899.49,-165.77 3.44,-8.94 12.72,-7.03 18.1,-11.87l-33.15 -41.93c470.08,-152.21 1341.01,-568.6 1660.47,-852.95 -20.82,-52.1 -36.19,-95.65 -51.46,-155.68 -240.58,3.19 -960.13,357.95 -1218.25,457.93 -741.03,287.03 -1130.11,444.3 -1912.51,597.47 -646.83,126.6 -1074.03,13.77 -1598.33,30.73 -434.46,14.02 -125.01,113.54 -739.92,60.34z"/>
  <path class="fil5" d="M16156.78 5287.65l131.35 75.53c42.62,19.37 87.94,40.57 135.26,63.36 323.7,156.02 504.86,239.77 867.94,356.99 18.52,-26.49 4.5,-3.59 21.37,-49.54l84.95 -208.62c37.78,-80.34 80.88,-171.41 112.37,-256.16 47.94,-129.08 200.97,-423.67 167.52,-578.16 -179.01,-12.14 -231.61,-12.26 -409.25,-39.54 -406.41,-62.42 -777.45,-225.69 -1084.39,-284.75 76.89,140.11 16.72,700.34 29.41,916.11l-56.53 4.78z"/>
  <path class="fil8 str1" d="M10375.91 15052.63c50.75,-66.75 104.15,-19.8 294.62,-8.06 104.92,6.46 179.24,12.86 285.95,26.66 304.44,39.43 968.74,22.34 1274.52,-32.97 70.3,-12.72 178.35,-40.46 259.18,-67.48 22.08,-7.37 97.98,-35.45 121.42,-58.47 71.21,-69.87 37.47,25.49 46.06,-118.95 -49.3,-41.9 -2.62,-26.28 -99,-54.9l-333.29 -37.53c-344.87,-39.97 -995.15,-49.5 -1350.06,-55.19 93.77,-43.81 243.16,13.48 336.62,-75.39 -317.19,9.07 -634.06,38.55 -959.78,32.68 -403.22,-7.25 -688.48,-60.05 -893.18,-63.47 4.07,5.52 10.44,11.9 13.85,15.14 3.39,3.18 9.88,10.72 14.12,14.45l988.97 483.48z"/>
  <path class="fil1" d="M6830.33 12873c-31.96,-163.61 -198.36,-446.23 -261.57,-622.96 -79.83,-223.19 -151.49,-435.51 -220.88,-667.68 -139.06,-465.19 -252.07,-995.47 -269.76,-1512.48 -29.82,-873.15 54.79,-1963.26 317.78,-2803.27 37.29,-119.18 94.57,-207.97 111.21,-342.64 -177.13,122.55 -449.88,1066.69 -515.31,1373.14 -223.19,1045.59 -185.01,2336.07 147.8,3345.78 101.79,308.82 449.05,1151.68 690.73,1230.11zm1777.94 1447.67l722.25 412.01c220.57,119.97 502,256.44 753.07,351.21 551.3,208.11 1043.36,400.12 1662.88,533.89 -44.38,-76.72 -67.54,3.61 -163.89,-110.78 -145.67,21.65 -1021.6,-383.82 -1206.68,-454.38l-988.96 -483.47c-4.24,-3.72 -10.73,-11.27 -14.11,-14.45 -3.42,-3.24 -9.79,-9.62 -13.86,-15.13 204.69,3.41 489.96,56.21 893.18,63.47 325.72,5.85 642.59,-23.62 959.78,-32.69 324.07,-8.82 1640.04,-233.52 1843.06,-370.02l-191.3 16.61c-5.37,4.84 -14.65,2.93 -18.09,11.87 -19.8,51.43 -862.97,161.28 -899.49,165.78 -945.7,116.43 -1597.77,176.72 -2537.55,70.8 -100.66,-11.35 -156.36,-11.35 -241.82,-36.21 -89.31,-26 -136.31,-43.3 -196.2,-116.33 -97.78,-19.01 -915.54,-580.72 -1053.46,-677.71 -179.52,-126.23 -326.63,-232.54 -512.58,-374.59l-472.46 -384.02c113.28,371.5 1650.42,1398.48 1676.23,1444.14z"/>
  <path class="fil9" d="M4772.64 14817.97c38.58,111.81 222.59,117.53 335.54,139.41 377.38,73.03 1004.87,76.36 1402.88,74.9 509.97,-1.87 835.6,-55.73 1292.59,-176.04 216.76,-57.04 302.54,-51.75 337.22,-191.41 -196.22,-85.1 -1390.26,65.12 -1669.92,93 -269.65,26.88 -585.52,29.96 -870.56,34.05 -181.57,2.59 -743.57,-48.16 -827.75,26.09z"/>
  <path class="fil3" d="M2945.26 6486.26c401.59,13.91 380.83,710.99 461.28,851.87 161.26,-1022.85 267.86,-712.61 611.33,-934.77 -181.79,-115.34 -286.12,-61.96 -427.32,-254.57 -94.93,-129.53 -175.3,-375.82 -147.11,-563.79l-33.2 -42.02c-2.9,-3.72 -9.84,-12.57 -12.52,-15.99 -2.79,-3.55 -8.67,-11.06 -12.94,-16.64 -92.09,901.63 -345.81,724.45 -591.13,893.01 47.71,32.77 102.16,37.38 151.61,82.9z"/>
  <path class="fil10" d="M6781.91 1479.85l48.56 -95.28c2.93,-5.64 6.14,-11.58 8.99,-17.04l17.72 -32.64c63.59,-131.63 48.51,-47.82 15.77,-98.49 -208.46,15.36 -702.09,187.51 -956.66,243.56 -172.46,37.95 -940.32,164.55 -1008.74,196.87l-27.79 331.1 943.87 -277.13c137.76,-39.35 896.48,-214.25 958.28,-250.95z"/>
  <path class="fil11" d="M7003.3 13600.75c-10.52,36.9 63.13,-10.58 -34.56,44.61 -465.64,263.1 -537.22,279.75 -992.36,510.93 -222.53,113.03 -402.05,140.08 -663.33,190.16 -262,50.24 -672.13,57.61 -762.29,109.07 12.24,42.39 -8.53,103.42 160.77,110.62 69.99,2.95 179.66,-0.23 250.05,-6.09 404.15,-33.6 772.55,-119.44 1134.83,-274.37l489.93 -204.19c186.38,-123.16 634.69,-302.45 649.4,-551.98 -129.54,13 -105.61,39.83 -232.44,71.24z"/>
  <path class="fil10" d="M5892.65 1858.97c-91.29,-10.81 -859.72,157.89 -995.45,226.08 -3.82,1.94 -11.22,6.09 -16.48,9.68l-74.4 473.92 1102.24 -335.51 548.14 -148.59c-6.46,-146.55 20.71,-123.62 85.41,-225.92 63.8,-100.98 40.7,-82.87 125.69,-169.73l-173.24 24.4c-184.35,2.4 -560.4,113.29 -601.91,145.67z"/>
  <path class="fil12" d="M12257.49 1123.34c65.35,71.13 300.14,128.25 392.09,145.12l-38.49 -996.39 -373.55 -98.72c-61.5,224.35 -37.58,226.63 -0.28,474.88 22.45,149.39 23.53,341.77 79.15,464.24l-58.92 10.87z"/>
  <path class="fil10" d="M5811.97 3008.82c59.97,-83.67 84.04,-187.68 179.52,-249.62l-38.35 -10.04c-114.94,-11.38 -1089.69,173.29 -1254.98,217.55 -47.62,140.69 -127.31,222.31 -168.65,346.12l1282.46 -304.01z"/>
  <path class="fil10" d="M6122.9 2571.55c24.18,-84.92 53.17,-175.62 137.98,-235.79l-46.86 -15.25c-43.3,1.05 -1164.76,239.46 -1338.11,301.42 -23.32,8.37 -7.02,0.2 -36.21,15.19 -74.45,38.24 -63.36,80.52 -113.97,254.83l1397.17 -320.4z"/>
  <path class="fil1" d="M10918.73 16388.11c49.87,11.19 173.51,131.24 227.25,160.23l32.66 3.47c-165.72,-271.43 -472.92,-558.86 -704.27,-749.7 -113.77,-93.89 -720.66,-594.72 -877.84,-541.26l994.88 817.08c119.69,100.48 261.77,173.91 327.32,310.18z"/>
  <path class="fil12" d="M12365.71 1874.33c76.79,57.87 276.45,142.11 386.92,142.87l-92.75 -607.14c-183.76,-17.53 -167.4,-25.89 -328.91,-76.99l84.24 518.53c-22.27,27.79 45.3,26.94 -49.5,22.73z"/>
  <path class="fil1" d="M16418.18 8821.73c-106.18,110.3 -260.71,228.11 -373.01,346.38 -48.45,51.04 -123.27,126.68 -181.33,187.79 -41.66,43.87 -135.28,115.31 -129.05,173.46 0.22,2.34 3.75,9.39 4.41,11.38 14.16,43.44 -14.6,2.33 17.47,20.71l91.77 -76.9c238.56,-182.64 989.6,-845.15 1032.82,-989.85 -72.32,-28.16 -348.63,263.3 -463.08,327.03z"/>
  <path class="fil12" d="M12451.29 2453.11l466 216.36 -144.78 -510.56c-200.2,-26.06 -152.52,-6.2 -333.94,-69.9 10.19,82.51 12.35,157.95 24.64,240.71 14.11,95.2 36.44,106.83 -11.92,123.39z"/>
  <path class="fil7" d="M6594.02 14465.59c207.54,-3.95 316.85,-97.04 476.45,-168.39 129.9,-58.07 326.38,-140.26 367.83,-266.57 -102.9,-45.81 -470.08,165.09 -653.66,250.27 -21,9.76 -99.72,43.13 -115.31,53.83 -77.64,53.2 -54.96,27.62 -75.31,130.86z"/>
 </g>
</svg>
