<?xml version="1.0" encoding="UTF-8"?>
<!DOCTYPE svg PUBLIC "-//W3C//DTD SVG 1.1//EN" "http://www.w3.org/Graphics/SVG/1.1/DTD/svg11.dtd">
<!-- Creator: CorelDRAW 2017 -->
<svg xmlns="http://www.w3.org/2000/svg" xml:space="preserve" width="181mm" height="181mm" version="1.1" style="shape-rendering:geometricPrecision; text-rendering:geometricPrecision; image-rendering:optimizeQuality; fill-rule:evenodd; clip-rule:evenodd"
viewBox="0 0 18100 18100"
 xmlns:xlink="http://www.w3.org/1999/xlink">
 <defs>
  <style type="text/css">
   <![CDATA[
    .fil0 {fill:none}
    .fil22 {fill:#0A0507}
    .fil14 {fill:#0C1623}
    .fil20 {fill:#2C1410}
    .fil3 {fill:#2C1A27}
    .fil24 {fill:#394A53}
    .fil15 {fill:#4A5A62}
    .fil6 {fill:#4E3130}
    .fil9 {fill:#516D74}
    .fil1 {fill:#6A110F}
    .fil11 {fill:#712E2E}
    .fil8 {fill:#766C6E}
    .fil5 {fill:#777B85}
    .fil2 {fill:#951E26}
    .fil25 {fill:#A5CDCE}
    .fil13 {fill:#B37169}
    .fil7 {fill:#B5ADAD}
    .fil12 {fill:#B7BBC5}
    .fil18 {fill:#BA6748}
    .fil23 {fill:#D66738}
    .fil4 {fill:#D6CCAE}
    .fil10 {fill:#D6CECD}
    .fil16 {fill:#D8CA8D}
    .fil17 {fill:#E5CC6E}
    .fil19 {fill:#E6E6E8}
    .fil21 {fill:#FDFDFE}
   ]]>
  </style>
 </defs>
 <g id="Capa_x0020_1">
  <metadata id="CorelCorpID_0Corel-Layer"/>
  <rect class="fil0" width="18100" height="18100"/>
  <g id="_1500056510016">
   <path class="fil1" d="M2227.45 10628.55c93.59,212.21 887.78,774.81 898.86,895.63 -29.07,116.12 -121.81,245.66 -181.72,345.44 -76.55,127.5 -105.2,201.21 -175.83,330.67 -113.47,273.38 -210.83,524.81 -281.42,847.3 55.56,-49.3 32.45,-22.96 109.27,-51.1 91.36,-33.42 44.11,24.87 99.01,-32.57l-62.94 6.77 123.96 -364.36c55.57,-206.64 216.94,-555.04 324.57,-730.14 225.12,-366.36 156.18,-300.11 786.23,-299.57l1826.21 3.5c153.34,3 194.14,-23.22 211.17,74.44 100.74,25.69 66.75,-41.79 180.6,218.63 48.99,112.08 76.98,169.76 118.01,272.46 64.79,162.3 197.21,412.61 207.17,587.99l-275.96 8.11c71.44,-2.5 167.88,-2.19 236.78,-10.07 211.32,-24.07 -8.31,-51.68 161.68,-35.72 -220.89,-929.51 -638.62,-1051.97 -345.28,-1325.62l404.84 -448.49c44.99,-41.41 88.75,-94.94 109.24,-114.01 109.47,-101.97 -32.68,-51.91 133.27,-65.71 -8.57,-4.92 -78.02,-42.56 -91.55,-52.14 -42.03,-29.84 -34.34,-32.84 -77.09,-70.98 -18.69,101.2 16.65,25.92 -67.91,119.97l-286.03 299.95c-67.13,71.21 -299.49,358.82 -369.97,388.35 -178.45,74.63 -1803.41,21.07 -2237.98,16.34 -371.74,-4.04 -366.47,58.87 -603.21,-163.37 -155.38,-145.89 -691.57,-661.24 -818.5,-702.11 -6.88,51.71 13.08,32.91 -55.48,50.41z"/>
   <path class="fil2" d="M11843.89 5448.8l16.27 -65.41c28.41,36.61 -39.22,52.41 40.33,28 236.28,3.69 287.34,-46.34 497.51,-70.79 -58.71,-47.72 -64.55,-25.3 -91.51,-92.13 191.49,-26.11 178.07,32.49 229.09,-137.61 -49.1,-93.55 28.49,-29.92 -78.32,-75.29 -200.95,53.79 57.21,43.91 -135.7,91.51 -62.09,15.31 -127,-6.23 -172.49,-29.34 -254.11,-129 -270.76,-552.76 -290.6,-617.43 -25.42,-82.71 -46.8,-94.98 -109.67,-118.28 -115.69,-42.91 -57.44,123.7 -86.09,-1.46 -0.73,-3.27 -6.88,2.96 -11.88,1.42l8.69 -143.88c-56.94,64.94 -63.63,212.63 -68.25,306.22 -5.5,112.16 -8.53,271.46 10.88,380.01l241.74 544.46z"/>
   <path class="fil3" d="M12459.99 4768.8l63.71 -155.19c67.44,87.33 76.94,160.11 86.01,268.43 43.41,516.39 98.67,399.46 -314.1,539.73 -100.7,34.22 -222.86,114.27 -312.76,74.28 -136.53,-60.71 -24.53,13.88 -82.36,-84.66 -79.55,24.41 -11.92,8.61 -40.33,-28l-16.27 65.41 1.39 73.36c41.75,98.9 37.06,62.98 193.25,68.98 266.38,-72.75 458.71,-103.47 662.31,-236.66 34.8,-177.45 -9.15,-464.79 -40.37,-648.74l-216.33 -535.81c-21.53,197.83 -16.3,-8.42 -39.83,139.16 -20.84,130.88 -7.61,56.44 19.96,156.22 28.26,102.47 22.87,179.41 35.72,303.49z"/>
   <path class="fil4" d="M7481.18 14093.29l-83.4 -6.89c-60.94,194.91 -219.17,325.3 -251.81,531.93 102.16,-58.33 432.33,-387.7 473.21,-528.43l-138 3.39z"/>
   <path class="fil5" d="M5268 9182.92l-158.57 13.73 -8.11 -441.72c109.66,5.92 125.04,20.03 230.51,12.65 131.73,-9.23 46.72,-31.3 206.56,5.73 -67.29,-114.85 -103.43,-61.21 -202.56,-53.72 -106.12,8 -146.73,-12.22 -270.42,-8.76 -23.61,163.41 -31.07,363.43 15.07,520.77 17.88,1.42 77.32,10.69 90.86,7.73 96.05,-20.84 40.56,2 96.66,-56.41z"/>
   <path class="fil6" d="M15007.1 5116.09c13.88,36.29 46.53,138.38 77.33,172.14 41.76,45.75 10.65,43.02 80.05,41.49 100.09,-2.23 84.55,-58.79 91.28,-69.44 -78.4,-92.44 -5.19,-3.62 3.12,-177.8 -26.88,8.65 -65.25,29.34 -72.79,30.18 -66.48,7.69 -5.27,-1.84 -49.64,-9.11 -76.13,-12.5 -62.67,-22.57 -129.35,12.54z"/>
   <path class="fil7" d="M9610.72 8957.45c171.26,-1.62 51.41,6.92 96.21,-33.42l15.26 -166.87 -66.33 15.3 -11.11 85.52c-44.83,-3.5 -145.15,-20.19 -147.92,-19.96 -104.7,8.08 -55.48,-0.96 -109.97,49.22l223.86 70.21z"/>
   <path class="fil7" d="M7165.46 9115.1c107.7,44.25 143.34,2.57 172.99,-88.98 -110.2,-27.72 -82.86,-42.91 -177.41,23.96l4.42 65.02z"/>
   <path class="fil7" d="M11884.15 9090.1c108.24,60.06 112.85,43.3 177.33,-40.1 -6.99,-5.65 46.15,-51.22 -88.09,-33.41 -126.73,16.76 -66.98,58.13 -89.24,73.51z"/>
   <path class="fil8" d="M4030.36 8947.72c37.64,84.63 12.96,50.95 64.94,91.21 176.49,-187.8 -48.14,-250.01 265.54,-286.69 -34.11,98.39 -150.34,310.76 -204.17,446.75l-122.77 -4.22c47.29,59.36 -25.07,34.45 66.63,48.83 170.26,26.72 289.42,-473.33 284.84,-516.43l-200.79 -12.81c-74.13,147.73 -8.49,204.64 -154.22,233.36z"/>
   <path class="fil8" d="M1233.66 13740.73c13.3,1.39 31.6,-11.53 39.87,4.73 7.61,14.96 26.3,4.5 35.99,8.27 8.54,3.35 47.45,22.65 56.21,29.07l-30.83 -145.81 -80.25 -2.11 -20.99 105.85z"/>
   <path class="fil9" d="M12685.27 8876.51c120.62,-46.33 34.26,-21.96 70.48,10.73l7.11 340.36 207.02 9.38c60.71,-172.06 -24.38,-272.3 78.01,-335.48 98.78,81.9 45.88,166.03 58.6,316.57l186.6 18.22c39.72,-85.32 47.11,-251.39 25.19,-350.82 -38.57,-174.91 13.84,-37.91 -61.1,-107.12l26.69 427.84 -155.11 -2.39 -22.46 -329.79 -126 0.73 -27.72 327.91 -146.81 -9.65 -14.53 -436.22 152.53 -7.04c-81.75,-43.03 -146.03,-34.91 -254.2,-31.42 -161.37,5.2 -113.12,10.5 -291.87,-15.22 27.76,38.83 30.87,49.6 126.42,60.6 110.47,12.72 60.95,-19.34 203.71,-8.58 -29.03,62.91 -19.88,58.95 -42.56,121.39z"/>
   <path class="fil9" d="M14453.65 5664.31c70.17,77.71 65.36,73.41 202.59,102.55 -33.41,-135.11 -77.17,-176.22 -202.59,-102.55z"/>
   <path class="fil9" d="M15167.14 5559.96c32.45,98.36 -86.4,69.79 66.75,78.36 48.9,2.73 38.25,-7.5 80.74,-71.67 -63.71,-42.68 -80.78,-60.56 -147.49,-6.69z"/>
   <path class="fil10" d="M9066.49 9196.07l172.53 2.54 -18.22 -125.19c99.85,8.92 143.11,30.91 193.44,38.6 148.38,22.69 86.55,-3.65 121.81,-29.45 -106.12,-103.86 -105.01,-28.26 -307.83,-115.62 -4.85,-117.93 9.23,-158.57 49.06,-242.32 -198.6,0 -41.45,4.77 -108.58,94.82l-156.77 -94.82c66.56,101.47 114.97,144.84 105.63,291.49 -123.35,4.69 -263.54,-21.8 -356.09,33.88 73.24,126.04 134.61,40.72 314.29,43.14l-9.27 102.93z"/>
   <path class="fil10" d="M15033.56 4334.96c-8.96,-69.02 -45.34,63.91 -2.58,-46.21 17.73,-45.72 19.19,-40.8 39.61,-65.72l75.63 169.42c44.18,-19.81 82.55,47.56 44.83,-114.47 -24.07,-103.39 -116.31,-84.82 -198.6,-202.6 -77.78,-111.31 27.8,-44.75 -101.97,-112.27l9.69 417.99c96.21,-11.8 62.75,-2.73 133.39,-46.14z"/>
   <path class="fil10" d="M13736.24 9082.41c44.18,-114.77 60.48,-244.93 -128.27,-206.98l-1.27 206.41 129.54 0.57z"/>
   <path class="fil10" d="M11366.61 9090.06c53.33,-110.46 50.87,-104.85 10.07,-223.47 -98.82,25.68 -128.89,-15.3 -127.42,118 1.19,108.44 35.1,86.86 117.35,105.47z"/>
   <path class="fil10" d="M7122.74 14158.12c-11.3,169.22 -32.03,63.09 -99.78,204.17l115.93 -34.07c74.21,-139.15 96.32,-86.9 108.62,-248.16l-129.34 13.73 4.57 64.33z"/>
   <path class="fil10" d="M4615.19 9082.57c17.42,13.34 46.26,134.96 161.22,-32.57 -13.68,-9.88 52.07,-55.56 -91.62,-31.95 -90.63,14.88 -54.1,38.91 -69.6,64.52z"/>
   <path class="fil11" d="M12459.99 4768.8l9.84 10.19c41.37,111.08 8.07,118.43 -12.57,256.58 106.81,45.37 29.22,-18.26 78.32,75.29 -51.02,170.1 -37.6,111.5 -229.09,137.61 26.96,66.83 32.8,44.41 91.51,92.13 -210.17,24.45 -261.23,74.48 -497.51,70.79 57.83,98.54 -54.17,23.95 82.36,84.66 89.9,39.99 212.06,-40.06 312.76,-74.28 412.77,-140.27 357.51,-23.34 314.1,-539.73 -9.07,-108.32 -18.57,-181.1 -86.01,-268.43l-63.71 155.19z"/>
   <path class="fil11" d="M14934.89 4850.58l72.21 265.51c66.68,-35.11 53.22,-25.04 129.35,-12.54 44.37,7.27 -16.84,16.8 49.64,9.11 7.54,-0.84 45.91,-21.53 72.79,-30.18 10.15,-219.63 41.1,-499.86 -136.04,-571.22 -3.88,76.9 -0.85,139.5 -2.38,213.51l-38.19 182.34c-3.03,3.92 -9.61,12.38 -13.07,15.15 -53.18,42.22 -111.54,-44.3 -111.54,-44.34 -4.69,-15.84 -15.5,-17.95 -22.77,-27.34z"/>
   <path class="fil12" d="M11420.32 9217.22c57.72,50.1 -6.27,16.92 81.13,52.95 34.38,14.15 45.6,11.84 84.71,18.3 96.2,15.84 33.95,-20.61 108.97,16.11l78.86 -26.8 15.61 -84.86c-112.04,-18.8 -99.01,-31.88 -72.56,-175.49 35.19,-54.41 251.05,-74.94 327.83,-130.19 -120,-91.94 -184.1,52.79 -319.06,-32.57 35.11,-211.05 373.82,-119.16 508.05,-81.9 -85.82,-184.56 -66.41,-22.57 -195.18,-202.9 -55.21,46.68 -27.14,22.34 -66.86,37.14l-72.9 19.65c-131.04,31.49 -13.15,43.26 -239.82,-78.52l-51.45 -26.99c-210.24,-72.83 -219.59,43.37 -219.9,43.64l216.25 -16.8 -18.76 669.92 -164.92 -0.69z"/>
   <path class="fil12" d="M8761.85 8919.77c84.4,37.64 101.16,37.02 176.64,0 -10.38,-32.69 33.45,-88.32 -89.78,-84.13 -118.66,4.03 -81.13,76.74 -86.86,84.13z"/>
   <path class="fil13" d="M1790.96 13002.18c55.6,164.68 140.38,266.77 316.68,255.5 71.44,-4.58 171.03,-45.49 238.05,-74.02 103.12,-43.91 112.08,-22.76 141.65,-136.07 70.59,-322.49 167.95,-573.92 281.42,-847.3 -141.12,64.83 -178.07,204.63 -231.74,358.32 -70.37,201.6 -62.56,116.74 -106.28,198.71 -113.01,211.83 148.38,263.62 -381.7,280.58 -179.56,5.73 -78.36,-3.5 -258.08,-35.72z"/>
   <path class="fil13" d="M2695.62 12963.92l336.6 -125.62 -18.15 -107.58 -188.41 32.91c-4.19,-7.27 -7.49,-18.11 -9.53,-23.26 -2.04,-5.16 -6.96,-17.11 -9.42,-23.38l-50.07 -110.66 -123.96 364.36 62.94 -6.77z"/>
   <path class="fil14" d="M11366.61 9090.06c-82.25,-18.61 -116.16,2.97 -117.35,-105.47 -1.47,-133.3 28.6,-92.32 127.42,-118 40.8,118.62 43.26,113.01 -10.07,223.47zm53.71 127.16l164.92 0.69 18.76 -669.92 -216.25 16.8 14.65 171.45c-237.66,-15.38 -393.38,28.88 -336.98,307.07 54.68,269.54 274.81,159.07 354.9,173.91z"/>
   <path class="fil14" d="M4615.19 9082.57c15.5,-25.61 -21.03,-49.64 69.6,-64.52 143.69,-23.61 77.94,22.07 91.62,31.95 -114.96,167.53 -143.8,45.91 -161.22,32.57zm-158.61 -227.9c182.76,113.35 134.08,-50.37 309.26,0 -69.1,180.72 -238.28,-17.42 -349.21,227.9 -19.57,208.67 349.56,147.03 548,145.11 29.76,-210.71 24.15,-359.82 -69.21,-486.36 -167.95,-27.22 -412.27,-53.83 -438.84,113.35z"/>
   <path class="fil14" d="M13736.24 9082.41l-129.54 -0.57 1.27 -206.41c188.75,-37.95 172.45,92.21 128.27,206.98zm-226.67 -325.4c-319.79,197.75 30.49,639.43 330.91,433.79 328.29,-224.7 -44.57,-610.9 -330.91,-433.79z"/>
   <path class="fil14" d="M10963.84 9213.26l-7.65 -481.67c-158.42,-11.15 -161.77,-43.06 -183.57,90.01 -25.49,155.73 60.45,151.42 -68.67,250.78 -103.59,-65.52 -55.14,45.91 -72.6,-152.31 -5.49,-62.05 15.15,-82.28 -5.42,-153.87 -22.68,-78.91 -92.12,-49.95 -181.14,-9.19 -24.45,397.73 -83.4,513.23 519.05,456.25z"/>
   <path class="fil14" d="M11884.15 9090.1c22.26,-15.38 -37.49,-56.75 89.24,-73.51 134.24,-17.81 81.1,27.76 88.09,33.41 -64.48,83.4 -69.09,100.16 -177.33,40.1zm-94.55 102.82c113.81,16.23 99.13,6.46 204.71,-3.58l248.85 33.92c-0.04,-127.04 -36.87,-367.51 -9.3,-450.49 -134.23,-37.26 -472.94,-129.15 -508.05,81.9 134.96,85.36 199.06,-59.37 319.06,32.57 -76.78,55.25 -292.64,75.78 -327.83,130.19 -26.45,143.61 -39.48,156.69 72.56,175.49z"/>
   <path class="fil14" d="M12943.77 8749.74l-152.53 7.04 14.53 436.22 146.81 9.65 27.72 -327.91 126 -0.73 22.46 329.79 155.11 2.39 -26.69 -427.84c-106.31,-102.21 -173.83,-19.15 -313.41,-28.61z"/>
   <path class="fil14" d="M12388.66 9219.49l71.63 -6.54c77.71,79.98 49.6,12.69 63.6,-92.47 2.77,-20.73 2.35,-88.55 5.08,-103.24 19.3,-103.66 1.92,-51.26 45.6,-104.51l110.7 -36.22c22.68,-62.44 13.53,-58.48 42.56,-121.39 -142.76,-10.76 -93.24,21.3 -203.71,8.58 -95.55,-11 -98.66,-21.77 -126.42,-60.6l-7.66 21.18 -1.38 495.21z"/>
   <path class="fil15" d="M12038.53 5591.14c-156.19,-6 -151.5,29.92 -193.25,-68.98l-132.16 -5.54c-191.94,-306.64 -304.87,-1049.58 -166.83,-1419.78 53.83,-144.38 67.55,-115.66 114.54,-140.62l-1.31 261.89c36.72,12.73 62.56,28.8 99.01,51.79 -134,-396.38 65.95,-601.63 446.57,-349.9 26.99,-52.37 -31.84,-58.86 65.59,-24.87 -178.87,-296.96 -604.86,-229.67 -754.01,75.78 -300.26,615.06 74.63,1591.93 142.92,1627.73l378.93 -7.5z"/>
   <path class="fil15" d="M11695.13 9304.58c-29.11,116.85 -82.06,204.44 -93.86,388.58 119.47,-77.28 56.98,-35.8 118.16,-183.37 134.11,-323.48 291.53,-45.72 412.11,93.32 105.82,122 6.27,49.52 142.19,87.86 -54.37,-218.9 -192.14,-339.06 -375.24,-418.42l79.52 -67.29c2.69,-9.92 10.8,-10.65 16.3,-15.92 -105.58,10.04 -90.9,19.81 -204.71,3.58l-15.61 84.86 -78.86 26.8z"/>
   <path class="fil16" d="M5572.92 14682.16c-60.29,83.55 -4.35,36.68 -103.4,109.97 -38.72,28.64 -53.29,28.95 -106.66,54.13 -83.94,39.65 -142.3,72.68 -219.9,124.16 115.82,51.6 204.83,-33.87 352.21,-75.48 65.63,74.14 34.53,55.18 65.1,151.54 116.31,-33.26 -49.11,-134.89 32.56,-219.25 27.65,-28.57 -185.21,-28.3 389.05,-10.3 172.49,5.38 375,-17.54 464.44,60.36 -213.52,136.66 -511.39,138.12 -611.21,182.26 -135.5,59.91 -116.35,189.37 -422.88,87.59 -129.12,-42.83 -100.55,-13.27 -275.15,-2.42l-20.88 -48.14c-1.58,-7.96 -9.69,-68.87 -10.88,-79.63 -164.18,30.45 -376.59,112.89 -386.77,311.75 511.58,56.87 1619.8,-170.95 2076.06,-454.67 133.38,-82.94 293.6,-398.01 344.28,-545.81l-115.93 34.07c67.75,-141.08 88.48,-34.95 99.78,-204.17 -248.2,179.21 -299.49,351.66 -627.82,479.13 -214.09,83.13 -706.64,137.53 -922,44.91z"/>
   <path class="fil16" d="M4413.86 15047.05l-114.12 -29.41c29.65,131.42 -0.69,55.25 43.99,126.04 59.17,93.7 15.76,34.1 44.76,26.8 -121.58,19.07 -164.73,15.34 -232.17,-51.87 -11.07,2.92 -24.8,0.42 -31.03,14.69 -6.03,13.8 -21.91,10.53 -30.14,14.15 -96.59,42.06 0.04,10.73 -81.86,35.1l-781.13 -12.15c-90.51,-25.72 2.92,-22.11 -113.5,-147.99 -27.69,-0.27 -519.89,125 -782.05,-10.46 -79.17,-40.91 -122.31,-8.81 -117.43,-255.43 3.39,-169.99 11.12,-116.7 -34.29,-165.91 -48.18,77.74 -189.53,361.51 -191.49,473.9 371.93,94.9 833.03,151.19 1223.15,187.87 459.37,43.22 896.48,84.44 1362.07,78.55 61.49,-197.9 46.22,-175.41 -164.76,-283.88z"/>
   <path class="fil16" d="M1001.95 14045.57c-0.57,387.24 620.75,948.77 879.64,945.77 50.18,-89.13 97.2,-232.67 154.22,-350.32 59.37,-122.55 136.89,-228.59 121.58,-388.05 -99.05,-45.52 -34.37,-66.71 -176.98,-141.23 -37.49,42.8 47.6,43.57 -129.7,63.52 -32.26,3.66 -128.81,-6.88 -161.14,-15.8 -89.02,-24.53 -126.31,-77.09 -172.8,-138.19 -127.39,17.76 -52.91,-49.06 -67.75,74.71 123.46,150.34 366.62,188.14 552.61,204.52 -4.54,257.69 -23.72,113.7 -62.83,180.45l-35.3 57.86c-48.94,114.24 21,234.36 -412.57,148.54 -4.58,-7.77 -7.84,-30.11 -9.42,-25.34 -18.53,55.87 -15.07,-41.99 -18.46,-50.41 -16.61,-41.49 -8.19,-34.57 -29.33,-69.83l-99.36 -88.97 6.11 -259.27c-105.39,-27.8 -60.13,6.88 -135.07,-56.95 -1.43,-145.84 61.67,-149.42 -14.77,-243.62 -114.81,99.16 -27.49,116.62 -188.68,152.61z"/>
   <path class="fil16" d="M5103.59 14483.68l106.62 174.18c-108.54,122.92 -65.79,37.45 -263.58,38.37 -113.39,237.59 -244.89,261.89 -472.71,122.81l-203.52 -177.14c-78.47,-75.48 -56.9,-4.04 -44.87,-62.02l456.56 -66.6c157.69,-18.53 291.54,27.19 421.5,-29.6zm-1200.16 21.26l-18.3 119.58c208.02,56.37 627.71,387.12 774.39,412.46 163.07,28.14 376.01,-161.65 597.29,-267.66 13.42,-6.42 102.74,-49.94 108.74,-55.09 72.17,-61.72 50.14,-11.69 71.17,-115.97 -169.87,-21.15 -153.07,-112.66 -333.13,-114.58 -28.19,-138.39 -59.79,-131.2 -214.32,-93.05 -507.13,125.27 -311.3,83.74 -793.97,-11.46 -78.82,61.13 -95.36,110.93 -191.87,125.77z"/>
   <path class="fil17" d="M2184.89 14590.61c45.41,49.21 37.68,-4.08 34.29,165.91 -4.88,246.62 38.26,214.52 117.43,255.43 262.16,135.46 754.36,10.19 782.05,10.46 116.42,125.88 22.99,122.27 113.5,147.99l781.13 12.15c81.9,-24.37 -14.73,6.96 81.86,-35.1 8.23,-3.62 24.11,-0.35 30.14,-14.15 6.23,-14.27 19.96,-11.77 31.03,-14.69 67.44,67.21 110.59,70.94 232.17,51.87 -29,7.3 14.41,66.9 -44.76,-26.8 -44.68,-70.79 -14.34,5.38 -43.99,-126.04l114.12 29.41c-102.97,-68.71 -247.85,-144.69 -353.4,-203.44 -140.57,-78.25 -246.43,-173.26 -420.76,-159.76 -349.59,200.48 -809.23,114.24 -1107.18,-74.75 -184.22,-69.52 -75.37,-93.86 -260.28,-144.26 -61.48,62.48 10.77,-39.46 -57.56,64.13 -19.18,29.07 -10.26,15.8 -29.79,61.64z"/>
   <path class="fil17" d="M1190.63 13892.96c76.44,94.2 13.34,97.78 14.77,243.62 74.94,63.83 29.68,29.15 135.07,56.95l-6.11 259.27 99.36 88.97c21.14,35.26 12.72,28.34 29.33,69.83 3.39,8.42 -0.07,106.28 18.46,50.41 1.58,-4.77 4.84,17.57 9.42,25.34 433.57,85.82 363.63,-34.3 412.57,-148.54l35.3 -57.86c39.11,-66.75 58.29,77.24 62.83,-180.45 -185.99,-16.38 -429.15,-54.18 -552.61,-204.52 14.84,-123.77 -59.64,-56.95 67.75,-74.71 -107.05,-61.98 -114.39,-127.54 -151.04,-238.47 -8.76,-6.42 -47.67,-25.72 -56.21,-29.07 -9.69,-3.77 -28.38,6.69 -35.99,-8.27 -8.27,-16.26 -26.57,-3.34 -39.87,-4.73l-43.03 152.23z"/>
   <path class="fil17" d="M5142.96 14970.42c-49.1,23.57 -54.06,-9.11 -37.64,46.53 1.19,10.76 9.3,71.67 10.88,79.63l20.88 48.14c174.6,-10.85 146.03,-40.41 275.15,2.42 306.53,101.78 287.38,-27.68 422.88,-87.59 99.82,-44.14 397.69,-45.6 611.21,-182.26 -89.44,-77.9 -291.95,-54.98 -464.44,-60.36 -574.26,-18 -361.4,-18.27 -389.05,10.3 -81.67,84.36 83.75,185.99 -32.56,219.25 -30.57,-96.36 0.53,-77.4 -65.1,-151.54 -147.38,41.61 -236.39,127.08 -352.21,75.48z"/>
   <path class="fil17" d="M5103.59 14483.68c-129.96,56.79 -263.81,11.07 -421.5,29.6l-456.56 66.6c-12.03,57.98 -33.6,-13.46 44.87,62.02l203.52 177.14c227.82,139.08 359.32,114.78 472.71,-122.81 197.79,-0.92 155.04,84.55 263.58,-38.37l-106.62 -174.18z"/>
   <path class="fil18" d="M2632.41 10413.8c67.25,-190.79 -125.54,-53.98 30.34,-222.09 117.96,-127.19 163.99,11.46 386.43,-176.79 30.95,-26.19 9.11,-12.16 58.63,-42.65 218.21,-134.3 227.48,-54.4 480.9,-117.85 293.5,-73.48 514.2,-8.65 770.25,-53.48 298.37,-52.18 448.29,23.76 712.98,40.99l37.99 82.2c40.42,58.14 223.94,125.31 291.92,148.04 173.87,58.14 270.23,-6.62 424.03,84.67l141.89 107.39c56.67,53.52 5.53,44.33 119,73.13 188.95,47.95 68.17,8.85 165.99,94.32 63.37,55.37 47.33,18.76 141.5,61.83 -78.02,3.77 -80.59,16.99 -125.08,54.02 69.75,160.42 46.29,39.11 71.59,224.67l-183.44 36.18 10.88 307.03c-485.09,100.24 -74.37,94.01 -349.56,155.22l-126.58 21.5c-27.68,2.27 -100.47,1.88 -131.77,2.07l-1985.85 -10.8c-37.41,-41.84 -18.96,34.8 -65.14,-89.32 -164.72,84.09 50.41,137.19 -260.42,131.35 -140.46,-178.38 53.48,-223.98 -32.15,-224.63 -27.76,-47.22 39.76,-5.66 -70.98,-27.34 -323.48,-63.37 -95.7,-35.15 -482.7,-265.66 0,-202.98 -50.76,-222.62 130.23,-260.27 -168.65,-1.15 -172.34,-46.95 -194.6,-65.13l33.72 -68.6zm-349.48 164.34c126.93,40.87 663.12,556.22 818.5,702.11 236.74,222.24 231.47,159.33 603.21,163.37 434.57,4.73 2059.53,58.29 2237.98,-16.34 70.48,-29.53 302.84,-317.14 369.97,-388.35l286.03 -299.95c84.56,-94.05 49.22,-18.77 67.91,-119.97 -800.7,-838.37 -2349.41,-1152.28 -3504.16,-742.63 -298.87,106.04 -832.83,348.44 -994.86,540.92 43.87,103.59 69.21,78.55 115.42,160.84z"/>
   <path class="fil18" d="M6592.66 10921.85l95.55 43.22c130.35,16.76 -89.93,33.22 60.26,-17.34 12.11,-4.08 -50.22,-26.23 114,-32.73 179.26,164.38 110.28,326.87 352.94,353.48 -85.59,120.39 102.85,87.17 -92.67,93.09 226.55,56.37 33.92,-23.49 107.24,133.88l85.98 135.73c174.1,255.62 -17.88,161.88 2.11,316.37 461.87,39.8 88.75,114.66 401.23,357.94 15.61,217.59 -19.95,247.01 32.92,449.53 37.64,144.11 -40.38,191.21 -45.07,404.61 -810.27,-13.19 -495.32,12.31 -693.68,-160.22 -37.8,-32.88 -143.54,-70.9 -212.56,-93.74l333.25 365.24c439.57,481.78 981.68,-260.27 756.32,-857.6 -469.36,-1243.96 -884.01,-1401.76 -1055.31,-1671.18 -165.95,13.8 -23.8,-36.26 -133.27,65.71 -20.49,19.07 -64.25,72.6 -109.24,114.01z"/>
   <path class="fil18" d="M4225.42 13428.17c71.98,153.96 289.57,337.33 520.66,319.83 516.12,-39.06 658.58,-829.76 1388.56,-1006.25l275.96 -8.11c-9.96,-175.38 -142.38,-425.69 -207.17,-587.99 -41.03,-102.7 -69.02,-160.38 -118.01,-272.46 -113.85,-260.42 -79.86,-192.94 -180.6,-218.63 3.12,9.08 8.88,19.88 11.84,26.23l23.38 50.6c0.89,1.92 22.27,46.25 22.61,46.98 19.23,42.57 28.61,66.91 47.87,115.74 56.79,144.15 36.61,106.81 63.02,273.69 48.22,304.6 54.64,229.66 -68.94,511.78 -186.33,35.6 -434.03,-21.73 -467.67,143.72 -18.04,88.75 -12.81,316.26 -399.85,230.78 -2.15,319.41 -16.73,119.32 -88.59,205.6 -79.63,95.59 -27.99,115.93 -74.06,244.97 -339.25,124.46 -205.94,-24.57 -423.34,108.24 -120.58,-122.35 59.37,-93.32 -325.67,-184.72z"/>
   <path class="fil19" d="M4551.25 13853.93c89.93,101.55 -15.15,16.46 97.01,63.18 93.32,38.83 135.34,11.76 228.36,18.72l0.3 43.22c-0.96,3.73 -4.88,14.38 -6.11,18.11 -1.46,4.38 -7.84,16.57 -9.31,20.38 -1.69,4.23 -10.26,27.38 -11.68,22.22 -1.5,-5.49 -10,14.96 -12.96,23.34l181.1 153.88c382.97,-134.54 846.91,-929.85 1515.64,-671.96 304.92,117.62 671.5,661.66 1178.09,361.17 144.57,-85.75 193.98,-193.91 309.95,-271.5 48.75,-164.38 138.31,-256.97 163.72,-450.95 23.65,-180.53 10.04,-397.77 -85.82,-516.04 -77.21,116.19 -110.51,865.98 -651.54,869.21 -285.38,1.69 -338.79,-142.77 -483.02,-291.57 -507.62,-523.7 -968.45,-535.93 -1455.05,49.79 -257.23,309.64 -417.15,603.17 -958.68,558.8z"/>
   <path class="fil19" d="M11758.53 4269.9c94.21,112.63 176.8,100.78 330.18,83.33 133.54,-120.01 190.44,-184.72 116.39,-433.23 -380.62,-251.73 -580.57,-46.48 -446.57,349.9z"/>
   <path class="fil19" d="M8262.49 8560.52l162.42 -10.72c5.19,11.57 11.19,14.53 12.61,28.33 25.3,245.66 48.83,298.96 16.65,635.21l-159.11 -0.23c51.22,42.25 0.46,64.59 222.32,64.59 -134.84,175.84 145,-84.55 -42.18,39.34 -63.94,42.33 -9.5,11.73 -17.53,4.5 89.93,1.5 380.47,-44.61 520.85,-26.57 44.6,-34.69 29.72,-17.34 64.94,-83.67 -345.17,35.03 -496.32,15.3 -457.9,-366.47 130.5,-109.36 155.8,-118.39 392.81,-108.01 -53.41,-76.09 11.3,-70.02 -261.74,-73.13l-19.76 -212.1 -76.44 119.43c-146.54,-50.98 -54.41,-54.79 -162.34,-69.36 -57.83,-7.77 -42.6,-9.46 -97.74,5.92 -86.82,24.26 -55.21,20.38 -97.86,52.94z"/>
   <path class="fil19" d="M11845.28 5522.16l-1.39 -73.36 -241.74 -544.46c-19.41,-108.55 -16.38,-267.85 -10.88,-380.01 4.62,-93.59 11.31,-241.28 68.25,-306.22l1.31 -261.89c-46.99,24.96 -60.71,-3.76 -114.54,140.62 -138.04,370.2 -25.11,1113.14 166.83,1419.78l132.16 5.54z"/>
   <path class="fil20" d="M965.27 11571.66c86.52,-46.56 67.52,96.97 70.06,-52.91 0,262.54 -13.73,44.34 72.06,135.47 -15,-238.67 359.12,-605.41 487.2,-742.64 102.2,-109.51 173.22,-159.07 302.8,-283.96 235.74,-227.2 155.88,-39.6 330.06,0.93 68.56,-17.5 48.6,1.3 55.48,-50.41 -46.21,-82.29 -71.55,-57.25 -115.42,-160.84 162.03,-192.48 695.99,-434.88 994.86,-540.92 1154.75,-409.65 2703.46,-95.74 3504.16,742.63 42.75,38.14 35.06,41.14 77.09,70.98 13.53,9.58 82.98,47.22 91.55,52.14 171.3,269.42 585.95,427.22 1055.31,1671.18 225.36,597.33 -316.75,1339.38 -756.32,857.6l-333.25 -365.24c-110.81,-27.42 -214.44,-117.09 -267.81,-209.71 -169.99,-15.96 49.64,11.65 -161.68,35.72 -68.9,7.88 -165.34,7.57 -236.78,10.07 -729.98,176.49 -872.44,967.19 -1388.56,1006.25 -231.09,17.5 -448.68,-165.87 -520.66,-319.83 -28.99,-9.8 -337.75,-345.79 -465.41,-432.07 -247.24,-167.07 -376.04,-194.75 -727.79,-157.8l-336.6 125.62c-54.9,57.44 -7.65,-0.85 -99.01,32.57 -76.82,28.14 -53.71,1.8 -109.27,51.1 -29.57,113.31 -38.53,92.16 -141.65,136.07 -67.02,28.53 -166.61,69.44 -238.05,74.02 -176.3,11.27 -261.08,-90.82 -316.68,-255.5 -154.34,-205.41 -74.33,-1035.21 -515.89,-1249.61 53.06,191.14 -34.72,-21.15 28.03,71.1 71.17,104.74 2.5,4.73 25.22,-6.35 -74.01,-17.38 7.77,0.5 -95.2,-17.18 38.99,100.35 101.24,147.91 157.99,246.85 365.09,635.85 46.14,1806.37 1202.54,1134.67 418.19,-242.85 705.72,-365.97 1156.63,-41.02 420.92,303.37 143.62,324.17 800.97,713.29 541.53,44.37 701.45,-249.16 958.68,-558.8 486.6,-585.72 947.43,-573.49 1455.05,-49.79 144.23,148.8 197.64,293.26 483.02,291.57 541.03,-3.23 574.33,-753.02 651.54,-869.21 95.86,118.27 109.47,335.51 85.82,516.04 -25.41,193.98 -114.97,286.57 -163.72,450.95 57.64,6 37.41,-8.73 50.52,55.1 6.58,-5.5 15.58,-23.69 18.19,-18.15l167.95 -328.83c49.22,-156.53 60.06,-329.48 26.92,-502.13 -68.64,-357.32 -245.97,-338.05 -384.47,-691.14 -322.75,-822.77 -669.65,-1065.93 -816.27,-1321.9 -76.13,-64.48 -4.07,0.27 -52.67,-54.52 -5.66,-6.34 -14.5,-17.11 -19.38,-22.76l-41.8 -51.06c-80.47,-27.65 -209.78,-180.72 -303.3,-252.12 -119.23,-91.05 -185.13,-142.54 -318.79,-235.86 -706.14,-493.2 -1883.5,-780.97 -2767.59,-566.45 -585.91,142.19 -1151.9,377.7 -1555.6,719.48 -260.77,220.83 -983.02,886.75 -1060.08,1207.31z"/>
   <path class="fil20" d="M900.48 14142.54c72.98,377.32 478.52,771.47 838.65,941.31 324.1,152.88 701.22,193.79 1064,238.7 136.5,16.92 257.66,9.54 360.74,75.63l2470.64 0c113.82,-59.02 490.06,-119.89 658.28,-173.6 1086.88,-347.06 1282.21,-982.18 1476.04,-1019.17l-16.5 -168.76 -16.84 54.56c-89.44,-73.17 104.43,-49.48 -124.96,-53.83 -242.05,-4.58 -55.03,-29.38 -129.35,55.91l138 -3.39c-40.88,140.73 -371.05,470.1 -473.21,528.43 32.64,-206.63 190.87,-337.02 251.81,-531.93 -130.81,23.19 -25.99,29.46 -150.27,-6.34 -12.3,161.26 -34.41,109.01 -108.62,248.16 -50.68,147.8 -210.9,462.87 -344.28,545.81 -456.26,283.72 -1564.48,511.54 -2076.06,454.67 10.18,-198.86 222.59,-281.3 386.77,-311.75 -16.42,-55.64 -11.46,-22.96 37.64,-46.53 77.6,-51.48 135.96,-84.51 219.9,-124.16 53.37,-25.18 67.94,-25.49 106.66,-54.13 99.05,-73.29 43.11,-26.42 103.4,-109.97l-90.55 23.14c32.52,-230.35 10.42,-49.83 -45.65,-107.04 -21.03,104.28 1,54.25 -71.17,115.97 -6,5.15 -95.32,48.67 -108.74,55.09 -221.28,106.01 -434.22,295.8 -597.29,267.66 -146.68,-25.34 -566.37,-356.09 -774.39,-412.46l18.3 -119.58c-164.87,60.25 -13.72,22.99 -147.49,110.2l-116.24 68.71c174.33,-13.5 280.19,81.51 420.76,159.76 105.55,58.75 250.43,134.73 353.4,203.44 210.98,108.47 226.25,85.98 164.76,283.88 -465.59,5.89 -902.7,-35.33 -1362.07,-78.55 -390.12,-36.68 -851.22,-92.97 -1223.15,-187.87 1.96,-112.39 143.31,-396.16 191.49,-473.9 19.53,-45.84 10.61,-32.57 29.79,-61.64 68.33,-103.59 -3.92,-1.65 57.56,-64.13 184.91,50.4 76.06,74.74 260.28,144.26 -30.61,-78.17 -32.76,-66.63 -56.06,-99.89 -142.54,-203.56 -218.36,-96.67 -281.77,-67.48 72.36,-226.17 5.65,-157.77 -37.3,-188.76 15.31,159.46 -62.21,265.5 -121.58,388.05 -57.02,117.65 -104.04,261.19 -154.22,350.32 -258.89,3 -880.21,-558.53 -879.64,-945.77 -79.51,26.99 -55.6,16.38 -101.47,96.97z"/>
   <path class="fil20" d="M12457.26 5035.57c20.64,-138.15 53.94,-145.5 12.57,-256.58 -41.33,-50.41 -33.15,86.47 -39.14,-101.05 -106.05,127.2 -110.28,144.11 -392.01,114.2l-72.51 -166.99c-3.85,-8.19 -15.5,-28.99 -18.58,-36.49 -29.6,-71.4 -3.53,-54.45 -39.29,-161.45 107.54,-0.7 127.73,-15.65 180.41,-73.98 -153.38,17.45 -235.97,29.3 -330.18,-83.33 -36.45,-22.99 -62.29,-39.06 -99.01,-51.79l-8.69 143.88c5,1.54 11.15,-4.69 11.88,-1.42 28.65,125.16 -29.6,-41.45 86.09,1.46 62.87,23.3 84.25,35.57 109.67,118.28 19.84,64.67 36.49,488.43 290.6,617.43 45.49,23.11 110.4,44.65 172.49,29.34 192.91,-47.6 -65.25,-37.72 135.7,-91.51z"/>
   <path class="fil20" d="M15033.56 4334.96c-83.4,214.52 -7.23,15.15 -133.04,155.73l35.37 291.45 -1 68.44c7.27,9.39 18.08,11.5 22.77,27.34 0,0.04 58.36,86.56 111.54,44.34 3.46,-2.77 10.04,-11.23 13.07,-15.15l38.19 -182.34c1.53,-74.01 -1.5,-136.61 2.38,-213.51 177.14,71.36 146.19,351.59 136.04,571.22 -8.31,174.18 -81.52,85.36 -3.12,177.8l81.94 -51.8c-80.21,-200.83 -43.37,-459.71 -43.37,-680.53l6.65 -35.8c-166.07,-17.11 -168.18,41.45 -154.76,-99.7l-75.63 -169.42c-20.42,24.92 -21.88,20 -39.61,65.72 -42.76,110.12 -6.38,-22.81 2.58,46.21z"/>
   <path class="fil20" d="M1365.73 13782.8c36.65,110.93 43.99,176.49 151.04,238.47 46.49,61.1 83.78,113.66 172.8,138.19 32.33,8.92 128.88,19.46 161.14,15.8 177.3,-19.95 92.21,-20.72 129.7,-63.52l-247.4 -6.61c139.89,-7.96 161.61,53.18 278.62,-81.59 -525.28,84.47 -405.58,-132.16 -607.06,-398.93l-69.67 12.38 30.83 145.81z"/>
   <path class="fil21" d="M1404.57 13624.61c201.48,266.77 81.78,483.4 607.06,398.93 145.92,-227.21 671.84,-547.04 1113.91,-397.2l218.44 83.02c7.11,3.19 15.53,7.04 22.45,10.3 438.99,207.67 782.55,920.47 1651.53,497.32l-181.1 -153.88c2.96,-8.38 11.46,-28.83 12.96,-23.34 1.42,5.16 9.99,-17.99 11.68,-22.22 1.47,-3.81 7.85,-16 9.31,-20.38 1.23,-3.73 5.15,-14.38 6.11,-18.11l-0.3 -43.22c-93.02,-6.96 -135.04,20.11 -228.36,-18.72 -112.16,-46.72 -7.08,38.37 -97.01,-63.18 -657.35,-389.12 -380.05,-409.92 -800.97,-713.29 -450.91,-324.95 -738.44,-201.83 -1156.63,41.02 -1156.4,671.7 -837.45,-498.82 -1202.54,-1134.67 -56.75,-98.94 -119,-146.5 -157.99,-246.85 -136.62,-31.15 -210.83,-154.04 -438.3,-85.63 -161.76,48.64 -216.28,204.48 -178.68,395.65 50.68,97.74 645.12,132.62 788.43,1514.45z"/>
   <path class="fil21" d="M6208.73 8982.94c8.12,152.15 189.57,161.72 168.38,-102.93l-153.23 -11c-8.72,39.95 -17.91,62.1 -15.15,113.93z"/>
   <path class="fil21" d="M8241.92 9089.33c107.97,-243.2 -48.41,-225.28 -83.74,-233.51 -112.78,231.09 21.53,221.21 83.74,233.51z"/>
   <path class="fil22" d="M5017.96 14216.98c-868.98,423.15 -1212.54,-289.65 -1651.53,-497.32 -6.92,-3.26 -15.34,-7.11 -22.45,-10.3l-218.44 -83.02c-442.07,-149.84 -967.99,169.99 -1113.91,397.2 -117.01,134.77 -138.73,73.63 -278.62,81.59l247.4 6.61c142.61,74.52 77.93,95.71 176.98,141.23 42.95,30.99 109.66,-37.41 37.3,188.76 63.41,-29.19 139.23,-136.08 281.77,67.48 23.3,33.26 25.45,21.72 56.06,99.89 297.95,188.99 757.59,275.23 1107.18,74.75l116.24 -68.71c133.77,-87.21 -17.38,-49.95 147.49,-110.2 96.51,-14.84 113.05,-64.64 191.87,-125.77 482.67,95.2 286.84,136.73 793.97,11.46 154.53,-38.15 186.13,-45.34 214.32,93.05 180.06,1.92 163.26,93.43 333.13,114.58 56.07,57.21 78.17,-123.31 45.65,107.04l90.55 -23.14c215.36,92.62 707.91,38.22 922,-44.91 328.33,-127.47 379.62,-299.92 627.82,-479.13l-4.57 -64.33 129.34 -13.73c124.28,35.8 19.46,29.53 150.27,6.34l83.4 6.89c74.32,-85.29 -112.7,-60.49 129.35,-55.91 229.39,4.35 35.52,-19.34 124.96,53.83l16.84 -54.56 58.1 -21.38c66.14,-76.82 71.1,-93.05 142.27,-163.99 72.21,-72.02 83.82,-68.25 119.46,-161.49 -13.11,-63.83 7.12,-49.1 -50.52,-55.1 -115.97,77.59 -165.38,185.75 -309.95,271.5 -506.59,300.49 -873.17,-243.55 -1178.09,-361.17 -668.73,-257.89 -1132.67,537.42 -1515.64,671.96z"/>
   <path class="fil22" d="M965.27 11571.66c-45.52,10.23 -200.48,26.49 -276.23,65.75 -55.06,28.61 -63.29,46.57 -102.12,87.94l-58.25 61.06c-1.89,-4.88 -9.39,9.84 -14.92,13.73 -65.95,434.6 13.92,294.26 170.83,537.88 5.12,357.21 -17.95,627.28 17.27,977.57 27.61,274.3 63.13,656.5 198.63,826.95 45.87,-80.59 21.96,-69.98 101.47,-96.97 161.19,-35.99 73.87,-53.45 188.68,-152.61l43.03 -152.23 20.99 -105.85 80.25 2.11 69.67 -12.38c-143.31,-1381.83 -737.75,-1416.71 -788.43,-1514.45 -37.6,-191.17 16.92,-347.01 178.68,-395.65 227.47,-68.41 301.68,54.48 438.3,85.63 102.97,17.68 21.19,-0.2 95.2,17.18 -22.72,11.08 45.95,111.09 -25.22,6.35 -62.75,-92.25 25.03,120.04 -28.03,-71.1 -29.95,-63.63 -62.83,-117.89 -167.68,-98.35 -85.79,-91.13 -72.06,127.07 -72.06,-135.47 -2.54,149.88 16.46,6.35 -70.06,52.91z"/>
   <path class="fil22" d="M12088.71 4353.23c-52.68,58.33 -72.87,73.28 -180.41,73.98 35.76,107 9.69,90.05 39.29,161.45 3.08,7.5 14.73,28.3 18.58,36.49l72.51 166.99c281.73,29.91 285.96,13 392.01,-114.2 5.99,187.52 -2.19,50.64 39.14,101.05l-9.84 -10.19c-12.85,-124.08 -7.46,-201.02 -35.72,-303.49 -27.57,-99.78 -40.8,-25.34 -19.96,-156.22 23.53,-147.58 18.3,58.67 39.83,-139.16 -9.11,-98.47 -74.21,-207.71 -173.45,-274.8 -97.43,-33.99 -38.6,-27.5 -65.59,24.87 74.05,248.51 17.15,313.22 -116.39,433.23z"/>
   <path class="fil22" d="M5538.39 8773.31c-159.84,-37.03 -74.83,-14.96 -206.56,-5.73 -105.47,7.38 -120.85,-6.73 -230.51,-12.65l8.11 441.72 158.57 -13.73c7.42,-110.81 -15.88,-198.4 31.84,-288.03 155.38,4.46 101.32,15.19 111.32,156.38 14.76,208.94 -54.8,170.68 149.11,170.45 53.25,-85.98 20.64,-93.59 34.37,-205.25 21.42,-174.07 -8.8,-106.32 108.93,-134.15l36.38 342.09 172.56 -1.38c106.39,-692.31 -244.2,-438.96 -374.12,-449.72z"/>
   <path class="fil22" d="M8241.92 9089.33c-62.21,-12.3 -196.52,-2.42 -83.74,-233.51 35.33,8.23 191.71,-9.69 83.74,233.51zm53.14 123.78l159.11 0.23c32.18,-336.25 8.65,-389.55 -16.65,-635.21 -1.42,-13.8 -7.42,-16.76 -12.61,-28.33l-162.42 10.72 15.19 176.03c-556.34,-41.45 -302.87,412.92 -291.34,425.76 81.86,90.71 201.06,38.99 308.72,50.8z"/>
   <path class="fil22" d="M7165.46 9115.1l-4.42 -65.02c94.55,-66.87 67.21,-51.68 177.41,-23.96 -29.65,91.55 -65.29,133.23 -172.99,88.98zm-162.07 -260.43c114.47,71.52 134.46,7.5 221.94,6 7.69,-0.12 17.49,-0.58 24.61,0.08l65.98 26.49c-158.96,120.5 -416.11,-2.85 -306.84,310.45 140.39,41.64 244.74,10.53 506.82,18.45 0,-291.14 85.17,-550.68 -352.98,-485.09 -109.31,16.34 -141.73,17.65 -159.53,123.62z"/>
   <path class="fil22" d="M6223.88 8869.01l153.23 11c21.19,264.65 -160.26,255.08 -168.38,102.93 -2.76,-51.83 6.43,-73.98 15.15,-113.93zm-69.55 -108.27c-299.61,157.22 -62.02,616.47 298.26,434.45 313.95,-158.65 21.84,-602.41 -298.26,-434.45z"/>
   <path class="fil22" d="M8938.49 8919.77c-75.48,37.02 -92.24,37.64 -176.64,0 5.73,-7.39 -31.8,-80.1 86.86,-84.13 123.23,-4.19 79.4,51.44 89.78,84.13zm104.97 291.53l23.03 -15.23 9.27 -102.93c-179.68,-2.42 -241.05,82.9 -314.29,-43.14 92.55,-55.68 232.74,-29.19 356.09,-33.88 9.34,-146.65 -39.07,-190.02 -105.63,-291.49l-33.56 12.19c-237.01,-10.38 -262.31,-1.35 -392.81,108.01 -38.42,381.77 112.73,401.5 457.9,366.47z"/>
   <path class="fil22" d="M10052.67 9236.02l-2.26 46.3 2.61 -73.6c6.15,-122.15 -86.78,-202.21 -0.19,-328.6 126.69,37.11 74.59,-10.22 86.82,135.77 4.31,50.87 -3.73,69.48 8.54,126.16 17.72,81.78 -4.27,21.65 34.87,76.79l97.66 -0.27 28.3 -392.2c-33.22,-101.32 -137.8,-116.2 -245.39,-74.44l-145.3 17.19c-67.6,5.03 20.45,-28.8 -82.94,13.99l9.88 397.16c115.66,8.96 81.02,7.23 110.09,-25.76 182.67,93.24 12.68,-43.11 97.31,81.51z"/>
   <path class="fil22" d="M9239.02 9198.61l65.21 15.96c224.25,21.49 236.28,-15.88 422.27,-32.15l-3.73 -116.35c-85.17,-138.31 36.41,12.5 -112.05,-108.62l-223.86 -70.21c54.49,-50.18 5.27,-41.14 109.97,-49.22 2.77,-0.23 103.09,16.46 147.92,19.96l11.11 -85.52c-133.5,-59.75 -258.84,-17.8 -378.58,-47.83 -39.83,83.75 -53.91,124.39 -49.06,242.32 202.82,87.36 201.71,11.76 307.83,115.62 -35.26,25.8 26.57,52.14 -121.81,29.45 -50.33,-7.69 -93.59,-29.68 -193.44,-38.6l18.22 125.19z"/>
   <path class="fil22" d="M4033.9 9194.77l122.77 4.22c53.83,-135.99 170.06,-348.36 204.17,-446.75 -313.68,36.68 -89.05,98.89 -265.54,286.69 -51.98,-40.26 -27.3,-6.58 -64.94,-91.21 47.45,-192.33 -26.34,-218.28 -203.33,-200.02 25.92,114.89 123.54,387.85 206.87,447.07z"/>
   <path class="fil23" d="M2756.64 12606.33l50.07 110.66c2.46,6.27 7.38,18.22 9.42,23.38 2.04,5.15 5.34,15.99 9.53,23.26l188.41 -32.91 18.15 107.58c351.75,-36.95 480.55,-9.27 727.79,157.8 127.66,86.28 436.42,422.27 465.41,432.07 385.04,91.4 205.09,62.37 325.67,184.72 217.4,-132.81 84.09,16.22 423.34,-108.24 46.07,-129.04 -5.57,-149.38 74.06,-244.97 71.86,-86.28 86.44,113.81 88.59,-205.6 387.04,85.48 381.81,-142.03 399.85,-230.78 33.64,-165.45 281.34,-108.12 467.67,-143.72 123.58,-282.12 117.16,-207.18 68.94,-511.78 -26.41,-166.88 -6.23,-129.54 -63.02,-273.69 -19.26,-48.83 -28.64,-73.17 -47.87,-115.74 -0.34,-0.73 -21.72,-45.06 -22.61,-46.98l-23.38 -50.6c-2.96,-6.35 -8.72,-17.15 -11.84,-26.23 -17.03,-97.66 -57.83,-71.44 -211.17,-74.44l-1826.21 -3.5c-630.05,-0.54 -561.11,-66.79 -786.23,299.57 -107.63,175.1 -269,523.5 -324.57,730.14z"/>
   <path class="fil23" d="M2598.69 10482.4c22.26,18.18 25.95,63.98 194.6,65.13 -180.99,37.65 -130.23,57.29 -130.23,260.27 387,230.51 159.22,202.29 482.7,265.66 110.74,21.68 43.22,-19.88 70.98,27.34 85.63,0.65 -108.31,46.25 32.15,224.63 310.83,5.84 95.7,-47.26 260.42,-131.35 46.18,124.12 27.73,47.48 65.14,89.32l1985.85 10.8c31.3,-0.19 104.09,0.2 131.77,-2.07l126.58 -21.5c275.19,-61.21 -135.53,-54.98 349.56,-155.22l-10.88 -307.03 183.44 -36.18c-25.3,-185.56 -1.84,-64.25 -71.59,-224.67 44.49,-37.03 47.06,-50.25 125.08,-54.02 -94.17,-43.07 -78.13,-6.46 -141.5,-61.83 -97.82,-85.47 22.96,-46.37 -165.99,-94.32 -113.47,-28.8 -62.33,-19.61 -119,-73.13l-141.89 -107.39c-153.8,-91.29 -250.16,-26.53 -424.03,-84.67 -67.98,-22.73 -251.5,-89.9 -291.92,-148.04l-37.99 -82.2c-264.69,-17.23 -414.61,-93.17 -712.98,-40.99 -256.05,44.83 -476.75,-20 -770.25,53.48 -253.42,63.45 -262.69,-16.45 -480.9,117.85 -49.52,30.49 -27.68,16.46 -58.63,42.65 -222.44,188.25 -268.47,49.6 -386.43,176.79 -155.88,168.11 36.91,31.3 -30.34,222.09l-33.72 68.6z"/>
   <path class="fil23" d="M1107.39 11654.22c104.85,-19.54 137.73,34.72 167.68,98.35 441.56,214.4 361.55,1044.2 515.89,1249.61 179.72,32.22 78.52,41.45 258.08,35.72 530.08,-16.96 268.69,-68.75 381.7,-280.58 43.72,-81.97 35.91,2.89 106.28,-198.71 53.67,-153.69 90.62,-293.49 231.74,-358.32 70.63,-129.46 99.28,-203.17 175.83,-330.67 59.91,-99.78 152.65,-229.32 181.72,-345.44 -11.08,-120.82 -805.27,-683.42 -898.86,-895.63 -174.18,-40.53 -94.32,-228.13 -330.06,-0.93 -129.58,124.89 -200.6,174.45 -302.8,283.96 -128.08,137.23 -502.2,503.97 -487.2,742.64z"/>
   <path class="fil23" d="M6533.1 12695.96c53.37,92.62 157,182.29 267.81,209.71 69.02,22.84 174.76,60.86 212.56,93.74 198.36,172.53 -116.59,147.03 693.68,160.22 4.69,-213.4 82.71,-260.5 45.07,-404.61 -52.87,-202.52 -17.31,-231.94 -32.92,-449.53 -312.48,-243.28 60.64,-318.14 -401.23,-357.94 -19.99,-154.49 171.99,-60.75 -2.11,-316.37l-85.98 -135.73c-73.32,-157.37 119.31,-77.51 -107.24,-133.88 195.52,-5.92 7.08,27.3 92.67,-93.09 -242.66,-26.61 -173.68,-189.1 -352.94,-353.48 -164.22,6.5 -101.89,28.65 -114,32.73 -150.19,50.56 70.09,34.1 -60.26,17.34l-95.55 -43.22 -404.84 448.49c-293.34,273.65 124.39,396.11 345.28,1325.62z"/>
   <path class="fil24" d="M13813.79 13151.9c289.42,-291.84 1139.18,-442.33 1182.97,-2063.18 324.79,102.32 681.69,585.3 823.88,944.54 275,694.88 156.99,840.68 208.59,1574.4 124.66,113.89 328.72,171.49 354.56,332.86l-265.54 58.76c-62.56,-140 -50.37,-56.83 -125.66,-152.27 -11.65,129.04 118.43,203.87 157.26,415.96 -105.47,-4.31 -194.63,-21.34 -304.79,-28.76 -52.57,-3.54 -91.94,-2.46 -130.08,-15.96l-107.89 -65.25 73.21 381.2c-135.62,-8.81 -1035.71,-345.52 -1218.31,-418.84 -376.16,-151 -228.86,-211.48 -475.21,-691.57 -61.33,-119.51 -112.93,-162.61 -172.99,-271.89zm1027.52 -3716.67c-181.65,-101.27 -145.62,-83.66 -201.02,-315.37 -118.32,-494.85 -391.51,-1165.86 -449.84,-1671.9 539.46,-306.18 2055.42,647.81 2539.08,1013.36 242.94,183.6 444.07,-2.19 658.7,165.45 9.96,209.75 -164.53,274.77 -129.89,511.36 29.73,203.02 208.37,158.03 290.54,367.62 -92.82,192.06 -376.97,176.8 -624.79,194.18 -629.12,44.1 -975.37,174.14 -1710.47,-82.13 -162.11,-56.49 -224.55,-100.17 -372.31,-182.57zm-5119.12 -678.07l-15.26 166.87c-44.8,40.34 75.05,31.8 -96.21,33.42 148.46,121.12 26.88,-29.69 112.05,108.62 160.8,-74.25 11.92,40.8 102.2,164.92l227.7 5.03c-84.63,-124.62 85.36,11.73 -97.31,-81.51 -29.07,32.99 5.57,34.72 -110.09,25.76l-9.88 -397.16c103.39,-42.79 15.34,-8.96 82.94,-13.99l145.3 -17.19c-84.43,-19.3 -48.68,3.04 -89.89,-33.07 -4.04,-108.39 -11.23,-214.21 -55.8,-280.99 -71.86,96.28 -21.11,14.53 -41.87,154.14 -11.23,75.37 13.11,37.34 -18.57,117.32 -55.41,-18.31 -36.49,68.79 -36.99,-68.68 -0.73,-209.24 413.73,-1492.07 720.64,-1659.48 149.76,82.9 300.03,395.92 933.62,655 223.05,91.21 97.93,36.49 222.51,191.18 114.39,142 167.41,133.42 255.39,266.85 111.01,168.37 336.4,452.37 376.66,666.61 35.95,191.52 -31.11,346.44 59.33,458.68l1.38 -495.21c-85.28,-282.95 -250.39,-546.65 -439.22,-757.86 -82.01,-91.74 -142.96,-123.92 -204.25,-216.36 381.05,-1.73 731.72,245.05 1817.06,-70.02 187.79,-54.48 336.1,-121.65 526.01,-177.91 4.96,8.39 11.22,11.46 13.26,26.03l248.16 897.67c470.37,1573.13 1154.71,3539.84 -402.42,4520.25 -514.47,323.87 -1221.15,454.48 -1955.44,348.9 1.88,-102.7 26.18,-42.18 64.67,-185.07 -117.93,59.3 -107.74,59.18 -178.76,176.38 -492.66,813.11 -481.74,1673.48 -520.23,1758.15 -879.02,-132.62 -435.72,-128.43 -876.6,138.65 -160.45,97.2 -228.82,29.88 -328.98,-48.1 -386.51,-300.76 -483.59,-26.84 -800.04,-116.43 -34.72,-125.54 80.05,-227.93 108.74,-372.12 49.56,-249.05 -0.43,-1182.28 16.76,-1555.75 13.96,-303.64 80.63,-594.45 202.98,-833.38 234.2,-457.44 416.81,-456.56 478.56,-620.44 -131.62,44.72 -66.29,49.41 -205.71,60.22 -189.53,-1200.89 -238.36,-1228.27 -217.71,-2502.52 -182.06,170.45 -72.94,851.3 -68.17,1073.58 37.06,114.51 43.45,493.63 67.48,667.31 28.11,203.25 84.7,429.45 119.12,624.82 59.21,335.79 -61.75,324.83 -198.75,547 -97.67,158.3 -141.54,387.31 -211.29,500.28 -23.26,-41.72 -197.52,-166.8 -265.54,-244.12l-750.01 -909.17c-368.78,-426.61 -691.92,-723.67 -1459.09,-754.97l41.8 51.06c4.88,5.65 13.72,16.42 19.38,22.76 48.6,54.79 -23.46,-9.96 52.67,54.52 -89.51,-169.95 709.61,173.76 738.87,190.83 655.16,381.9 992.33,1291.83 1614.69,1669.1l-72.48 1049.74c-368.35,239.28 -1027.36,315.03 -1526.45,384.58 -44.79,-54.4 -22.87,-3.49 -28.68,-106.62l-58.1 21.38 16.5 168.76c854.29,-2.46 1218.26,-275.08 1608.61,-345.33 21.34,117.59 17.04,555.65 7.12,691.65 -19.96,273.16 -190.1,304.99 -131,539.43 292.26,83.4 338.59,-33.03 600.59,-4.39 194.14,21.27 350.33,238.74 490.13,238.59 214.13,-0.27 340.41,-244.2 490.94,-260.89 61.14,-6.77 267.31,40.76 345.25,55.06 383.85,70.37 264.5,74.63 309.75,-500.7 30.03,-382.16 261.93,-898.94 422.31,-1234.26 318.56,34.22 664.77,77.47 996.9,25.57 140.77,-22 288.58,-63.6 419.65,-95.71 130.12,-31.83 101.78,-34.22 200.14,-71.25 262.46,-98.89 284.8,8.81 512.28,537.16 132.57,307.95 75.05,312.91 426.53,427.8 246.66,80.63 1089.11,444.14 1270.1,422.61l-3.77 -291.46c170.6,-0.53 356.63,46.68 521.5,-0.92l-41.1 -263.04c103.01,-18.53 204.17,-22.42 285.49,-77.02 -24.03,-226.12 -216.4,-301.91 -385.96,-455.75 -94.78,-199.06 283.53,-1303.7 -763.82,-2335.33 -436.99,-430.38 -295.65,67.02 -392.47,-612.83l-205.28 -1105.87c401.53,250.31 745.36,354.59 1355.3,356.09 473.4,1.19 1135.83,-13.69 1499.53,-209.83l1.93 -234.81 -251.93 -219.75c-63.91,-302.72 148.88,-320.91 110.2,-603.67 -108.32,-135.43 -246.63,-109.89 -450.68,-118.51 -205.48,-8.69 -229.51,-82.93 -351.09,-163.68 -239.74,-159.26 -444.45,-282.92 -653.36,-418.38 -191.25,-124.04 -462.44,-248.7 -718.87,-353.48 -263.61,-107.7 -786.43,-218.24 -810.11,-230.47 124.62,-166.53 675.23,-352.25 998.56,-1151.48 124.89,-308.68 229.28,-466.29 41.49,-770.89 -211.21,-342.52 -163.57,-115.78 -174.22,-618.86 -3.66,-173.3 -4.54,-169.99 -55.14,-222.86 0,220.82 -36.84,479.7 43.37,680.53l-81.94 51.8c153,35.29 149.27,61.86 219.06,189.67 223.55,409.5 -51.99,288.53 -179.11,410.77 -25.91,24.91 -110.89,138.73 -150.07,178.41 -348.36,352.59 -774.32,-69.21 -944.19,-129.46 -131.12,-46.49 -454.68,5.65 -605.17,21.84l-1883.08 200.48c-244.24,20.49 -333.83,-102.17 -409.27,-121.93 -232.16,-60.75 -57.48,-20.65 -115.89,12.34 370.17,308.88 564.26,179.61 1079.15,134.08 389.28,-34.41 799.66,-94.4 1172.25,-112.24 182.68,-8.76 500.05,-79.7 652.35,-72.86 191.48,8.61 582.64,452.87 989.02,227.63 215.6,-119.47 183.99,-252.97 343.56,-322.49 107.85,146.23 -133.23,501.86 -224.09,634.86 -57.71,84.55 -144.11,160.18 -213.79,244.97 -597.94,727.71 -2014.65,1121.91 -3022.67,942.57 -523.2,-93.05 -897.97,-372.39 -1184.01,-612.97 -918.62,-772.55 -944.07,-2367.67 -232.89,-3303.87l206.17 -249.89c697.99,-719.68 1119.64,-674.88 1367.84,-830.38l-309.8 0c-148.22,124.35 -411.07,103.94 -1001.06,658.97 -281.53,264.81 -494.43,578.95 -655,973.91 -251.08,617.67 -276.19,1389.11 16.49,2023.89l284.88 542.8c-0.61,8.42 -677.8,961.46 -734.25,1855.78z"/>
   <path class="fil24" d="M12460.29 9212.95c62.45,460.1 -28.64,439.88 140.31,607.1 142.5,141.03 239.66,254.31 261.08,440.37 -264.39,4.15 -261.58,-48.21 -483.17,71.56 -126.62,68.4 -261.93,126.08 -396.04,159.38 -777.55,193.09 -1382.8,-271.43 -1731.62,-922.59 -78.06,-145.72 -85.4,-265.65 -197.83,-360.05l-2.61 73.6c70.74,271.77 230.12,554.95 396.77,740.21 547.46,608.52 1197.81,797.31 2010.92,358.86 234.09,-126.24 217.79,40.72 459.56,-66.52 97.21,-246.89 -175.41,-424.19 -273.07,-562.69 -131.62,-186.6 -78.17,-602.71 -70.02,-839.45 -43.68,53.25 -26.3,0.85 -45.6,104.51 -2.73,14.69 -2.31,82.51 -5.08,103.24 -14,105.16 14.11,172.45 -63.6,92.47z"/>
   <path class="fil24" d="M14993.99 3659.46c-305.26,-274.34 -465.75,-512.77 -953.46,-777.85 -128.77,-69.94 -271,-110.24 -395.42,-179.8l-275.31 0c89.13,49.18 357.52,136.04 472.94,184.49 309.38,129.81 736.79,460.1 977.26,710.3l177.76 190.6 -3.77 -127.74z"/>
   <path class="fil24" d="M14935.89 4782.14l-35.37 -291.45c125.81,-140.58 49.64,58.79 133.04,-155.73 -70.64,43.41 -37.18,34.34 -133.39,46.14l-9.69 -417.99c129.77,67.52 24.19,0.96 101.97,112.27 82.29,117.78 174.53,99.21 198.6,202.6 37.72,162.03 -0.65,94.66 -44.83,114.47 -13.42,141.15 -11.31,82.59 154.76,99.7 -41.68,-345.29 -180.29,-345.29 -253.81,-557.92l-206.25 -163.38c-36.99,163.34 -38.64,866.68 94.97,1011.29z"/>
   <path class="fil24" d="M16648.06 8677.99c19.99,30.45 21.41,74.25 77.55,147.19 78.75,102.35 133.85,188.6 99.51,365.12l-379.27 76.91c296.18,195.79 741.44,-129.77 318.02,-515.93 -94.93,-86.52 -27.41,-33.99 -115.81,-73.29z"/>
   <path class="fil24" d="M11024.17 10290.26c-56.53,-180.83 -147.65,-132.08 -90.82,-372.89l427.83 14.57c-102.35,-171.95 -679.69,-185.33 -499.93,198.75 67.87,144.96 11.73,123.39 162.92,159.57z"/>
   <path class="fil25" d="M13509.57 8757.01c286.34,-177.11 659.2,209.09 330.91,433.79 -300.42,205.64 -650.7,-236.04 -330.91,-433.79zm-1119.53 -32.73l7.66 -21.18c178.75,25.72 130.5,20.42 291.87,15.22 108.17,-3.49 172.45,-11.61 254.2,31.42 139.58,9.46 207.1,-73.6 313.41,28.61 74.94,69.21 22.53,-67.79 61.1,107.12 21.92,99.43 14.53,265.5 -25.19,350.82l-186.6 -18.22c-12.72,-150.54 40.18,-234.67 -58.6,-316.57 -102.39,63.18 -17.3,163.42 -78.01,335.48l-207.02 -9.38 -7.11 -340.36c-36.22,-32.69 50.14,-57.06 -70.48,-10.73l-110.7 36.22c-8.15,236.74 -61.6,652.85 70.02,839.45 97.66,138.5 370.28,315.8 273.07,562.69 -241.77,107.24 -225.47,-59.72 -459.56,66.52 -813.11,438.45 -1463.46,249.66 -2010.92,-358.86 -166.65,-185.26 -326.03,-468.44 -396.77,-740.21l2.26 -46.3 -227.7 -5.03c-90.28,-124.12 58.6,-239.17 -102.2,-164.92l3.73 116.35c-185.99,16.27 -198.02,53.64 -422.27,32.15 83.1,74.86 -107.58,47.06 161.04,64.71 78.55,5.19 97.35,-13.69 163.37,-35.91 -5.73,166.53 -60.79,867.02 40.07,1024.78 -4.77,-222.28 -113.89,-903.13 68.17,-1073.58 -20.65,1274.25 28.18,1301.63 217.71,2502.52 139.42,-10.81 74.09,-15.5 205.71,-60.22 -61.75,163.88 -244.36,163 -478.56,620.44 -122.35,238.93 -189.02,529.74 -202.98,833.38 -17.19,373.47 32.8,1306.7 -16.76,1555.75 -28.69,144.19 -143.46,246.58 -108.74,372.12 316.45,89.59 413.53,-184.33 800.04,116.43 100.16,77.98 168.53,145.3 328.98,48.1 440.88,-267.08 -2.42,-271.27 876.6,-138.65 38.49,-84.67 27.57,-945.04 520.23,-1758.15 71.02,-117.2 60.83,-117.08 178.76,-176.38 -38.49,142.89 -62.79,82.37 -64.67,185.07 734.29,105.58 1440.97,-25.03 1955.44,-348.9 1557.13,-980.41 872.79,-2947.12 402.42,-4520.25l-248.16 -897.67c-2.04,-14.57 -8.3,-17.64 -13.26,-26.03 -189.91,56.26 -338.22,123.43 -526.01,177.91 -1085.34,315.07 -1436.01,68.29 -1817.06,70.02 61.29,92.44 122.24,124.62 204.25,216.36 188.83,211.21 353.94,474.91 439.22,757.86z"/>
   <path class="fil25" d="M14453.65 5664.31c125.42,-73.67 169.18,-32.56 202.59,102.55 -137.23,-29.14 -132.42,-24.84 -202.59,-102.55zm860.98 -97.66c-42.49,64.17 -31.84,74.4 -80.74,71.67 -153.15,-8.57 -34.3,20 -66.75,-78.36 66.71,-53.87 83.78,-35.99 147.49,6.69zm-3043.94 -1671.52c99.24,67.09 164.34,176.33 173.45,274.8l216.33 535.81c31.22,183.95 75.17,471.29 40.37,648.74 -203.6,133.19 -395.93,163.91 -662.31,236.66l-378.93 7.5c-68.29,-35.8 -443.18,-1012.67 -142.92,-1627.73 149.15,-305.45 575.14,-372.74 754.01,-75.78zm2985.07 1365.15c-6.73,10.65 8.81,67.21 -91.28,69.44 -69.4,1.53 -38.29,4.26 -80.05,-41.49 -30.8,-33.76 -63.45,-135.85 -77.33,-172.14l-72.21 -265.51 1 -68.44c-133.61,-144.61 -131.96,-847.95 -94.97,-1011.29l206.25 163.38c-2.12,-31.45 -0.58,-115.39 -2.31,-127.23 -12.07,-81.9 11.46,21.34 -12.07,-61.75 -17.19,-60.64 -14.54,-51.57 -38.8,-85.79l3.77 127.74 -177.76 -190.6c-240.47,-250.2 -667.88,-580.49 -977.26,-710.3 -115.42,-48.45 -383.81,-135.31 -472.94,-184.49l-1248.87 0c-248.2,155.5 -669.85,110.7 -1367.84,830.38l-206.17 249.89c-711.18,936.2 -685.73,2531.32 232.89,3303.87 286.04,240.58 660.81,519.92 1184.01,612.97 1008.02,179.34 2424.73,-214.86 3022.67,-942.57 69.68,-84.79 156.08,-160.42 213.79,-244.97 90.86,-133 331.94,-488.63 224.09,-634.86 -159.57,69.52 -127.96,203.02 -343.56,322.49 -406.38,225.24 -797.54,-219.02 -989.02,-227.63 -152.3,-6.84 -469.67,64.1 -652.35,72.86 -372.59,17.84 -782.97,77.83 -1172.25,112.24 -514.89,45.53 -708.98,174.8 -1079.15,-134.08 58.41,-32.99 -116.27,-73.09 115.89,-12.34 75.44,19.76 165.03,142.42 409.27,121.93l1883.08 -200.48c150.49,-16.19 474.05,-68.33 605.17,-21.84 169.87,60.25 595.83,482.05 944.19,129.46 39.18,-39.68 124.16,-153.5 150.07,-178.41 127.12,-122.24 402.66,-1.27 179.11,-410.77 -69.79,-127.81 -66.06,-154.38 -219.06,-189.67z"/>
   <path class="fil25" d="M11024.17 10290.26c-151.19,-36.18 -95.05,-14.61 -162.92,-159.57 -179.76,-384.08 397.58,-370.7 499.93,-198.75l-427.83 -14.57c-56.83,240.81 34.29,192.06 90.82,372.89zm-579.38 -1533.25c89.02,-40.76 158.46,-69.72 181.14,9.19 20.57,71.59 -0.07,91.82 5.42,153.87 17.46,198.22 -30.99,86.79 72.6,152.31 129.12,-99.36 43.18,-95.05 68.67,-250.78 21.8,-133.07 25.15,-101.16 183.57,-90.01l7.65 481.67c-602.45,56.98 -543.5,-58.52 -519.05,-456.25zm942.96 -192.22c0.31,-0.27 9.66,-116.47 219.9,-43.64l51.45 26.99c226.67,121.78 108.78,110.01 239.82,78.52l72.9 -19.65c39.72,-14.8 11.65,9.54 66.86,-37.14 128.77,180.33 109.36,18.34 195.18,202.9 -27.57,82.98 9.26,323.45 9.3,450.49l-248.85 -33.92c-5.5,5.27 -13.61,6 -16.3,15.92l-79.52 67.29c183.1,79.36 320.87,199.52 375.24,418.42 -135.92,-38.34 -36.37,34.14 -142.19,-87.86 -120.58,-139.04 -278,-416.8 -412.11,-93.32 -61.18,147.57 1.31,106.09 -118.16,183.37 11.8,-184.14 64.75,-271.73 93.86,-388.58 -75.02,-36.72 -12.77,-0.27 -108.97,-16.11 -39.11,-6.46 -50.33,-4.15 -84.71,-18.3 -87.4,-36.03 -23.41,-2.85 -81.13,-52.95 -80.09,-14.84 -300.22,95.63 -354.9,-173.91 -56.4,-278.19 99.32,-322.45 336.98,-307.07l-14.65 -171.45zm-1324.12 187.14c107.59,-41.76 212.17,-26.88 245.39,74.44l-28.3 392.2 -97.66 0.27c-39.14,-55.14 -17.15,4.99 -34.87,-76.79 -12.27,-56.68 -4.23,-75.29 -8.54,-126.16 -12.23,-145.99 39.87,-98.66 -86.82,-135.77 -86.59,126.39 6.34,206.45 0.19,328.6 112.43,94.4 119.77,214.33 197.83,360.05 348.82,651.16 954.07,1115.68 1731.62,922.59 134.11,-33.3 269.42,-90.98 396.04,-159.38 221.59,-119.77 218.78,-67.41 483.17,-71.56 -21.42,-186.06 -118.58,-299.34 -261.08,-440.37 -168.95,-167.22 -77.86,-147 -140.31,-607.1l-71.63 6.54c-90.44,-112.24 -23.38,-267.16 -59.33,-458.68 -40.26,-214.24 -265.65,-498.24 -376.66,-666.61 -87.98,-133.43 -141,-124.85 -255.39,-266.85 -124.58,-154.69 0.54,-99.97 -222.51,-191.18 -633.59,-259.08 -783.86,-572.1 -933.62,-655 -306.91,167.41 -721.37,1450.24 -720.64,1659.48 0.5,137.47 -18.42,50.37 36.99,68.68 31.68,-79.98 7.34,-41.95 18.57,-117.32 20.76,-139.61 -29.99,-57.86 41.87,-154.14 44.57,66.78 51.76,172.6 55.8,280.99 41.21,36.11 5.46,13.77 89.89,33.07z"/>
   <path class="fil25" d="M16648.06 8677.99c88.4,39.3 20.88,-13.23 115.81,73.29 423.42,386.16 -21.84,711.72 -318.02,515.93l379.27 -76.91c34.34,-176.52 -20.76,-262.77 -99.51,-365.12 -56.14,-72.94 -57.56,-116.74 -77.55,-147.19zm-2457.61 -1230.03c58.33,506.04 331.52,1177.05 449.84,1671.9 55.4,231.71 19.37,214.1 201.02,315.37 147.76,82.4 210.2,126.08 372.31,182.57 735.1,256.27 1081.35,126.23 1710.47,82.13 247.82,-17.38 531.97,-2.12 624.79,-194.18 -82.17,-209.59 -260.81,-164.6 -290.54,-367.62 -34.64,-236.59 139.85,-301.61 129.89,-511.36 -214.63,-167.64 -415.76,18.15 -658.7,-165.45 -483.66,-365.55 -1999.62,-1319.54 -2539.08,-1013.36z"/>
   <path class="fil25" d="M13813.79 13151.9c60.06,109.28 111.66,152.38 172.99,271.89 246.35,480.09 99.05,540.57 475.21,691.57 182.6,73.32 1082.69,410.03 1218.31,418.84l-73.21 -381.2 107.89 65.25c38.14,13.5 77.51,12.42 130.08,15.96 110.16,7.42 199.32,24.45 304.79,28.76 -38.83,-212.09 -168.91,-286.92 -157.26,-415.96 75.29,95.44 63.1,12.27 125.66,152.27l265.54 -58.76c-25.84,-161.37 -229.9,-218.97 -354.56,-332.86 -51.6,-733.72 66.41,-879.52 -208.59,-1574.4 -142.19,-359.24 -499.09,-842.22 -823.88,-944.54 -43.79,1620.85 -893.55,1771.34 -1182.97,2063.18z"/>
   <path class="fil25" d="M7084.48 10827.64c146.62,255.97 493.52,499.13 816.27,1321.9 138.5,353.09 315.83,333.82 384.47,691.14 33.14,172.65 22.3,345.6 -26.92,502.13l-167.95 328.83c-2.61,-5.54 -11.61,12.65 -18.19,18.15 -35.64,93.24 -47.25,89.47 -119.46,161.49 -71.17,70.94 -76.13,87.17 -142.27,163.99 5.81,103.13 -16.11,52.22 28.68,106.62 499.09,-69.55 1158.1,-145.3 1526.45,-384.58l72.48 -1049.74c-622.36,-377.27 -959.53,-1287.2 -1614.69,-1669.1 -29.26,-17.07 -828.38,-360.78 -738.87,-190.83z"/>
  </g>
 </g>
</svg>
