<?xml version="1.0" encoding="UTF-8"?>
<!DOCTYPE svg PUBLIC "-//W3C//DTD SVG 1.1//EN" "http://www.w3.org/Graphics/SVG/1.1/DTD/svg11.dtd">
<!-- Creator: CorelDRAW 2017 -->
<svg xmlns="http://www.w3.org/2000/svg" xml:space="preserve" width="181mm" height="181mm" version="1.1" style="shape-rendering:geometricPrecision; text-rendering:geometricPrecision; image-rendering:optimizeQuality; fill-rule:evenodd; clip-rule:evenodd"
viewBox="0 0 18100 18100"
 xmlns:xlink="http://www.w3.org/1999/xlink">
 <defs>
  <style type="text/css">
   <![CDATA[
    .fil0 {fill:none}
    .fil13 {fill:#060708}
    .fil15 {fill:#385957}
    .fil12 {fill:#4F6A35}
    .fil20 {fill:#5CC5C3}
    .fil10 {fill:#698885}
    .fil4 {fill:#6E6E50}
    .fil14 {fill:#724C2E}
    .fil7 {fill:#731111}
    .fil1 {fill:#8F8F6F}
    .fil3 {fill:#91B4B0}
    .fil21 {fill:#A9EEE6}
    .fil22 {fill:#AF938B}
    .fil2 {fill:#B45448}
    .fil16 {fill:#C65318}
    .fil19 {fill:#CB1D27}
    .fil8 {fill:#D2D38E}
    .fil9 {fill:#D78533}
    .fil6 {fill:#D8E9E7}
    .fil17 {fill:#E5DC5B}
    .fil11 {fill:#EE8210}
    .fil5 {fill:#FAFBC6}
    .fil18 {fill:#FBF993}
   ]]>
  </style>
 </defs>
 <g id="Capa_x0020_1">
  <metadata id="CorelCorpID_0Corel-Layer"/>
  <rect class="fil0" width="18100" height="18100"/>
  <g id="_1500081848752">
   <g>
    <path class="fil1" d="M10723.89 10849.29l-267.63 10.22 3.97 -229.08 255.66 -1.4c38.24,34.76 13.81,-2.5 30.08,83.65 36.76,-49.4 72.65,79.72 28.87,-97.66 -113.81,-36.6 -219.09,-38.75 -344.38,-9.4 -23.84,125.32 -29.3,155.6 11.87,280.42 258.22,21.43 207.81,30.59 281.56,-36.75z"/>
    <path class="fil1" d="M10693.65 11415.41c6.75,-159.35 -21.19,-151.74 14.78,-325.45l24.94 8.15 -74.53 -5.97 19.82 293.46 -230.17 -8.23 28.05 -285.35c-65.51,52.41 -50.37,-74.33 -62.35,96.93l9.76 226.03 269.7 0.43z"/>
    <path class="fil1" d="M5005.66 11447.49c49.63,33.79 65.67,50.8 129.47,104.65 -46.12,-85.34 -36.37,-89.94 -129.08,-167.79l-0.39 63.14z"/>
    <path class="fil1" d="M2259.94 10713.03c13.23,-8.81 75.54,-38.94 86.97,-46.23 -37.61,-135.24 -2.85,-40.82 -51.62,-64.38l-35.35 110.61z"/>
    <path class="fil1" d="M17225.3 11399.18c91.57,-47.52 61.61,-22.67 122.63,-116.51 -131.22,57.59 -68.16,12.06 -122.63,116.51z"/>
    <polygon class="fil1" points="17604.64,10601.13 17483.91,10473.89 "/>
   </g>
   <g>
    <path class="fil2" d="M11260.12 12196.49l-215.07 2.74c-41.83,-62.71 -30.16,-23.03 -66.41,-123.85 -5.38,-15.02 -27.98,-109.45 -31.29,-129.46 -27.63,-166.26 -17.01,-208.95 63.29,-322.46l336.38 30.24 -1.06 -14.63 -214.37 -61.34c-46.58,-270.01 -5.26,-199.35 13.54,-239.61 169.89,3.59 66.22,-14.75 137.74,60.4 160.72,11.47 319.33,84.24 458.2,-44.09l7.49 -105c-66.33,-71.88 -160.09,-105.59 -247.18,-139.03 23.8,118.15 30.98,82.61 42.02,112.92 2.03,5.54 7.34,14.75 8.86,19.36l-1.84 50.06c-55.4,76.94 -218.46,31.56 -308.13,37.26 -253.5,16.16 -128.37,176.76 -413.87,-26.73l-49.24 -213.31 1.09 262.71 185.18 53.11c-4.45,181.4 20.21,232.59 -117.05,249.21 0,155.8 118.46,506 180.3,670.97 139.1,-5.62 136.14,-38.16 231.42,-129.47z"/>
    <path class="fil2" d="M11695.22 10903.45c-81.82,-129.04 -91.61,-108.2 -81.62,-278.79l191.7 17.36c-38.63,-62.24 -342.04,-148.58 -358.78,117.41 82.4,98.6 128.25,104.22 248.7,144.02z"/>
    <path class="fil2" d="M11437.15 11644.45c38.55,98.29 11.24,54.79 105.16,133.64 134.77,-5.97 133.68,-35.15 239.81,-107.73 73.94,20.14 15.02,-33.71 27,50.42l44.36 -112.69 -416.33 36.36z"/>
    <path class="fil2" d="M10905.21 10876.33c4.64,-71.17 -15.61,-275.83 41.32,-249.92l-32.97 -13.77 -91.58 7.22 -40.85 252.02 124.08 4.45z"/>
   </g>
   <g>
    <path class="fil3" d="M4090.82 5909.26l390.19 416.6c79.8,69.42 141.68,204.15 361.9,348.56l-24.23 -158.11c238.53,-14.9 394.21,62.86 645.03,39.3 203.79,-19.12 390.18,-45.58 593.36,-40.43 -100.2,-6.2 -239.85,-16.35 -300.29,-87.52 -398.78,92.79 -614.71,81.28 -988.16,-61.02 -332.32,-126.66 -416.95,-293.46 -632.96,-536.51 30.7,146.12 27.74,51.62 -44.84,79.13z"/>
    <path class="fil3" d="M8194.64 14871.59l175.86 279.57c50.8,-22.12 25.4,68.56 47.41,-89.9l26.26 -44.2c-81.44,-104.93 -107.19,-232.87 -164.31,-374.94 -79.09,-196.65 -100.28,-184.6 -260.65,-281.6 34.42,117.72 171.41,418.91 175.43,511.07z"/>
    <path class="fil3" d="M8160.19 7855.01c164.19,-32.03 268.17,-87.98 392.21,-173.2l13.78 -268.61c-133.99,65.83 -319.61,306.46 -405.99,441.81z"/>
    <path class="fil3" d="M9500.53 10698.71c-52.95,-36.24 62.82,-61.33 -89.98,-27.35 -6.64,1.48 -41.91,42.3 -48.15,49.63 -3.83,-6.59 -5.82,-17.4 -8.08,-21.38 -2.34,-4.06 -5.73,-16.66 -9.13,-21.42 -3.47,-4.84 -7.37,-15.57 -12.06,-20.48 -4.91,-5.16 -10.45,-13.7 -16.62,-18.3l-169.81 -35.86 -15.84 276.91c131.38,-26.84 283.86,-80.88 369.67,-181.75z"/>
    <path class="fil3" d="M5577.64 14661.13c86.35,-50.89 35.59,-30.83 97.2,-92.13 142.84,-142.14 96.88,-57.79 121.5,-28.13l96.96 -20.99c-60.32,-64.85 5.35,6.24 -96.57,-49.48 -1.87,-1.01 -79.36,-53.65 -86.11,-58.72 -78.2,-58.69 -83.7,-74.57 -177.34,-104.5l44.36 353.95z"/>
    <polygon class="fil3" points="4250.92,13091.39 4367.43,13234.98 4490.07,13238.61 4263.6,12904.65 "/>
    <path class="fil3" d="M3469.1 16109.86c-214.37,-57.63 -74.14,-67.39 -219.37,-128.1l-44.52 207.5 263.89 -79.4z"/>
    <path class="fil3" d="M15378.65 10547.2l-14.67 -77.06 -60.75 -18.61c32.93,108.94 -20.88,43.43 75.42,95.67z"/>
   </g>
   <g>
    <path class="fil4" d="M13101.54 11552.45c67.31,129.58 114.87,87.01 284.96,89 -400.88,340.67 -694.46,532.61 -996.78,994.16 -219.87,335.64 -598.16,915.08 -1021.75,917.65l-0.97 92.12c586.02,-142.34 808.27,-553.4 1111.8,-1024.91 145,-225.17 332.25,-404.54 518.68,-571.97 150.96,-135.59 442.47,-458.4 652.36,-437.17l-26.46 -94.04 -166.84 62.35 -97.08 -91.92 7.88 91.07c0.2,-4.22 -6.13,15.68 -8.15,23.84 -149.88,5.65 -123.89,18.06 -257.65,-50.18z"/>
    <path class="fil4" d="M8607.85 2675.99l12.53 -95.98c191.19,304.19 234.5,756.73 240.39,1109.27 15.3,918.5 -67.74,884.05 -371.77,1002.55l-54.63 -76.91c-93.45,88.18 10.97,37.85 -85.64,93.76 -39.37,22.83 -93.53,24.55 -140.08,25.99 -101.53,3.12 -185.19,-17.01 -281.87,-7.65 55.95,97.82 677.21,20.53 805.97,-48.5 199.78,-107.03 193.61,-546.14 197.79,-756.57 9.09,-458.75 -8.08,-1247.48 -396.55,-1533.92 -4.96,150.54 -17.95,177.27 73.86,287.96z"/>
    <path class="fil4" d="M4274.56 10796.38c79.56,56.34 44.6,-44.25 59.55,125.64 1.52,17.17 -5.93,138.59 -6.64,165.91 -79.83,-65.51 -62.27,-58.34 -54.35,-160.41 -55.52,55.33 -12.02,4.06 -53.65,68.67 -4.84,7.5 -8.86,16 -13.54,23.77 -4.53,7.53 -7.96,16.03 -12.25,23.6l-136.33 356.09 66.52 48.15c119.87,-95.64 67.55,-171.8 180.19,-263.5 43.39,109.57 16.39,321.36 24.9,447.98 141.79,17.36 168.83,31.61 302.04,-18.61l4.41 -352.54c145.11,12.49 273.88,28.53 370.64,123.22 -31.1,-140.35 -153.34,-344.14 -13.5,-698.51 -136.92,132.9 -98.6,304.11 -79.91,550.16l-271.69 -51.46c-24.62,-183.82 75.74,-703.51 -69.06,-798.17 -68.75,-27.08 -112.02,-25.29 -198.65,-20.8 -133.32,6.87 -125.21,-26.14 -178.7,57.71l373.95 -2.19c57.67,178.28 52.41,1034.9 1.41,1188.33l-204.93 -5.27c-0.47,-94.31 5.39,-193.11 2.46,-285.19 -7.18,-225.61 18.53,-582.05 -22.05,-652.28l-70.82 129.7z"/>
    <path class="fil4" d="M14402.01 11213.18c8.58,12.76 17.87,37.3 41.63,70.27 53.81,74.49 2.11,16.51 71.56,79.8 -13.03,-102.62 -9.29,-69.15 128.18,-85.38 66.41,-7.84 170.94,-0.7 238.25,5.15l5.11 327.06 52.91 5.81c-34.89,-193.65 -32.39,-1010.78 5.19,-1217.43 -112.65,76.87 -58.02,53.38 -59.7,394.02 -0.67,138.9 -1.91,271.8 3.51,409.23l-486.64 11.47z"/>
    <path class="fil4" d="M15110.35 11605.36c88.19,-36.13 49.09,-182.42 51,-298.15 109.76,17.48 184.56,37.81 287.14,73.16 118.58,40.86 141.17,46.94 215.66,133.76 -4.76,-8.82 -11.98,-19.39 -15.96,-25.4l-67.74 -110.54c-24.34,-55.17 7.07,-130.87 -84.47,-130.87 -5.74,90.91 32.46,29.97 -22.94,71.05 -111.17,-56.34 -239.54,-75.93 -324.68,-114.44l-38.01 401.43z"/>
    <path class="fil4" d="M7348.12 11017.65l95.56 -189.78 145.62 41.04 -69.26 -256.47c-120.53,83.19 -51.93,63.49 -91.15,159.43 -50.68,124.01 -60.28,90.37 -80.77,245.78z"/>
    <path class="fil4" d="M1299.88 10500.07c38.71,-33.32 67.74,-57.16 98.95,-82.88l199 -1.4 -47.29 174.41c78.5,-78.39 73.04,-81.39 88.33,-215.81l-308.24 16.23 -30.75 109.45z"/>
    <polygon class="fil4" points="3613.43,4249.98 3671.29,4265.43 3759.75,4087.85 3839.7,4087.89 3758.73,3993.19 "/>
    <path class="fil4" d="M5023.14 10599.02c67.97,-31.53 39.57,21.46 82.25,-88.61l-82.25 88.61z"/>
   </g>
   <g>
    <path class="fil5" d="M4123.87 11447.8c-17.98,383.56 -292.33,296.74 -76.55,828.92 74.8,184.4 267.94,602.33 397.25,730.39l-0.12 -40.46c11.86,-417.27 -492.85,-725.36 -347.97,-1154.57 21.19,-62.82 41.79,-109.72 60.17,-179.96l547.08 10.93c14.25,-62.78 3.28,-59.07 9.88,-95.87 11.58,-64.97 20.25,-66.8 38.16,-145.81l253.89 46.12 0.39 -63.14c-96.76,-94.69 -225.53,-110.73 -370.64,-123.22l-4.41 352.54c-133.21,50.22 -160.25,35.97 -302.04,18.61 -8.51,-126.62 18.49,-338.41 -24.9,-447.98 -112.64,91.7 -60.32,167.86 -180.19,263.5z"/>
    <path class="fil5" d="M4229.11 8400.07c-40.47,252.22 -260.57,771.64 -338.3,1080.32 -155.45,617.24 57.32,554.96 177.85,1094.83l106.45 19.04 19.43 -170.98c53.49,-83.85 45.38,-50.84 178.7,-57.71 86.63,-4.49 129.9,-6.28 198.65,20.8l-33.21 -70.31c-119.67,1.13 -234.07,9.28 -345.55,15.41 -168.75,9.28 -263.92,-136.26 -268.1,-362.45 -10.49,-563.08 30.44,-395.53 64.07,-453.28 3.4,-5.82 8.78,-13.5 11.82,-19.36l206.34 -748.07c146.32,-442.47 136.52,-164.97 180.85,-300.13 4.14,-12.64 18.3,-7.92 25.71,-14.4 -25.79,-15.45 -55.4,-36.17 -87.4,-41.67 -77.65,-13.31 -41.59,-15.92 -97.31,7.96z"/>
    <path class="fil5" d="M7974.18 11155.7l166.73 408.45 123.22 16.31 168.45 -465.53 -429.76 -55.99c-57.94,40.5 -18.96,-25.6 -28.64,96.76z"/>
    <path class="fil5" d="M7216.16 11424.74c-24.66,203.21 -17.83,59.31 29.38,113.78l541.31 28.21 -6.51 -101.53 -42.42 -135.98 -486.25 1.09 -35.51 94.43z"/>
    <polygon class="fil5" points="7348.12,11017.65 7336.07,11117.47 7665.97,11111.34 7589.3,10868.91 7443.68,10827.87 "/>
    <path class="fil5" d="M4307.61 8307.05l70.16 39.45c8.12,-7.42 35.35,-38.83 38.47,-44.21l36.95 -82.92c38.71,-71.52 19.59,-150.61 15.26,-280.5l-160.84 368.18z"/>
    <path class="fil5" d="M5938.68 11684.29c94.12,-17.71 100.13,4.49 127.95,-69.45 71.09,-189.16 -2.23,-68.01 -51.12,-114.44l-53.65 19.04 -23.18 164.85z"/>
    <path class="fil5" d="M3910.99 11847.51c46.94,-113.31 69.8,-127.05 34.57,-218.39 -0.47,0.08 -229.86,-64.69 -34.57,218.39z"/>
    <path class="fil5" d="M5687.95 11638.68c85.68,181.4 31.02,46.51 140.89,145.89l28.57 -164.58 -86.86 -1.13 -82.6 19.82z"/>
   </g>
   <g>
    <path class="fil6" d="M3980.63 4802.8c207.59,-81.86 404.9,-285.11 632.07,-380.67 410.21,-172.54 479.82,75.89 740.7,173.83 243.44,91.42 320.11,-295.65 743,-86.12 189.2,93.73 400.53,321.25 494.76,505.03l24.93 16.23c46.39,48.89 89.16,101.76 144.18,136.49 122.36,77.14 106.09,3.82 149.48,98.25l97.47 19.78c38.31,-87.91 -15.07,-83.89 98.32,-92.36 -399.47,-38.86 -475.83,-425.54 -799.73,-665.55l-253.7 -133.67c-6.36,-3.44 -13.97,-9.21 -20.76,-12.33 -114.24,-52.64 -267.9,-26.58 -377.04,28.83 -233.88,118.74 -167.82,127.24 -430.65,-16.23 -163.25,-89.16 -331.5,-129.23 -519.42,-95.01 -208.4,37.92 -419.26,189.9 -586.14,322.65 -125.92,100.2 -112.3,53.14 -137.47,180.85z"/>
    <path class="fil6" d="M4380.7 3223.7l-34.65 127.98c14.16,163.3 -36.52,404.79 -98.8,546.74 -41.36,248.7 -228.3,399.82 -407.55,189.47l-79.95 -0.04 -88.46 177.58 -53.53 119.98c168.56,-19.27 35.97,-4.87 161.5,-120.96l477.04 -94.42c99.15,-127.55 35.04,-107.26 66.53,-238.29 45.18,-187.92 56.07,-75.85 131.07,-113.27 20.91,-277.47 13.54,-607.41 -27.79,-824 -0.23,10.49 -1.32,101.76 -1.4,102.23l-44.01 127z"/>
    <path class="fil6" d="M3660.48 5309.3l430.34 599.96c72.58,-27.51 75.54,66.99 44.84,-79.13 -82.53,-192.83 -160.25,-303.06 -224.01,-519.11 -35.98,-121.74 -25.6,-213.94 -108.9,-286.28 -73.51,-63.88 -105.51,-81.12 -184.52,-162.55 -52.83,-34.81 -45.54,13.38 -65.36,-46.32 37.11,451.72 247.61,127.08 259.63,458.43 -31.56,16.86 1.37,8.7 -68.36,26.26 -0.86,0.24 -74.95,7.88 -83.66,8.74z"/>
    <path class="fil6" d="M14515.2 11363.25l165.87 235.47c-0.43,-79.95 -14.05,-14.47 65.71,-34.18 2.53,7.46 1.91,12.84 3.08,23.34 21.42,189.28 136.21,22.82 136.88,22.2l-5.11 -327.06c-67.31,-5.85 -171.84,-12.99 -238.25,-5.15 -137.47,16.23 -141.21,-17.24 -128.18,85.38z"/>
    <path class="fil6" d="M7231.73 10629.61l75.66 -225.72c27.98,-64.19 -52.05,-40.11 57.63,-57.79 -22.28,-111.83 7.92,57.63 -18.81,-49.48 -14.75,-58.99 -3.94,0.51 -7.26,-52.09 -4.21,-65.47 11.71,-40.42 -8.74,-136.52 -80.41,136.95 -380.47,362.33 -291.19,556.72 104.8,30.9 114.99,14.59 192.71,-35.12z"/>
    <path class="fil6" d="M4208.51 2660.5l-35.16 236.54 -7.38 314.96c215.58,-111.32 159.55,-376.22 151.55,-592.78 -6.24,2.69 -76.36,26.3 -109.01,41.28z"/>
    <path class="fil6" d="M9432.05 10364.83l40.62 -19.9 -27.24 -102.93 -377.86 1.56c-145.34,107.73 -149.95,-11.63 -259.67,123.45l624.15 -2.18z"/>
    <path class="fil6" d="M6260.59 6112.86c93.37,-9.76 147.45,-45.46 208.24,-133.84l304.16 -637.21c-160.33,36.52 -103.13,31.72 -160.57,190.37 -23.37,64.58 -56.03,138.63 -92.9,203.09 -77.92,136.18 -194.98,245.12 -258.93,377.59z"/>
    <path class="fil6" d="M9316.24 6993.36l344.19 -6.59 46.04 -261.67c-96.15,50.81 -295.77,194.55 -390.23,268.26z"/>
    <path class="fil6" d="M2114.52 15485.4c61.41,-40.5 17.48,15.72 93.56,-86.86 8.59,-11.58 37.38,-59.03 51.43,-79.71 45.5,-66.76 85.8,-120.34 126.89,-186.98l-109.96 -16.93c-7.21,-0.67 -67.93,-3.56 -103.04,-15.77 49.82,286.44 -108.17,139.14 -58.88,386.25z"/>
    <path class="fil6" d="M3621.97 12181.28l313.25 -15.49 -86.16 -219.99c-115.1,58.45 -162.98,119.28 -227.09,235.48z"/>
    <path class="fil6" d="M945.27 8756.08c91.11,-3.98 65.32,-17.52 93.61,-110.54 15.37,-50.45 21.42,-68.4 31.57,-98.84 9.56,-28.75 12.17,2.38 15.02,-61.41 -117.56,57.36 -218.58,58.84 -230.99,215.23l90.79 55.56z"/>
    <path class="fil6" d="M14099.14 11217.86l-17.83 -50.14 -149.95 -14.08 -12.06 205.31c22.48,-4.37 123.07,-32.85 133.45,-39.52 104.14,-66.65 57,22.75 46.39,-101.57z"/>
    <path class="fil6" d="M4273.12 10927.52c-7.92,102.07 -25.48,94.9 54.35,160.41 0.71,-27.32 8.16,-148.74 6.64,-165.91 -14.95,-169.89 20.01,-69.3 -59.55,-125.64l-1.44 131.14z"/>
   </g>
   <g>
    <path class="fil7" d="M7643.03 4169.6l88.57 88.81c111.56,36.01 354.88,85.33 435.88,0l39.33 -40.31c87.25,-102.85 176.76,-342.47 179.96,-473.34l16.7 -136.8c123.73,47.37 77.33,9.05 113.74,134.3l8.9 -10.84c4.13,175.43 112.96,224.82 15.49,496.01 -37.74,104.92 -118.54,322.21 -202.59,389.09 -180.42,143.63 -805.23,34.14 -952.06,-137.11 -27.04,-147.1 37.18,-440.29 154.71,-537.88l101.37 228.07zm-426.98 332.13c146.75,134.54 507.36,236.3 710.73,225.29 96.68,-9.36 180.34,10.77 281.87,7.65 46.55,-1.44 100.71,-3.16 140.08,-25.99 96.61,-55.91 -7.81,-5.58 85.64,-93.76 191.35,-188.65 259.13,-618.92 249.14,-885.22l-157.4 1.72c-1.41,-109.49 -18.27,-157.17 -140.51,-156.66 -66.02,73.7 -11.86,10.76 -45.65,83.54 -177.5,382.46 -31.92,309.57 -257.1,409.65 -116.74,51.9 -20.02,25.09 -145.03,97.75 -159.55,-80.89 -130.6,-130.52 -284.33,-140.12l-62.94 -190.18 -185.5 7.06c-20.4,359.13 -109.56,46.2 -109.29,643.27 -49.98,35.51 69.45,74.41 -79.71,16z"/>
    <path class="fil7" d="M5949.76 5284.06c-355.97,-203.84 -390.73,3.31 -612.32,-39.88 -161.27,-31.41 -341.69,-209.73 -588.02,-29.34 86.7,104.33 108.2,93.96 246.53,195.95 410.09,302.24 798.4,-38.51 953.81,-126.73z"/>
    <path class="fil7" d="M11345.96 11639.07l-94.5 -69.84c-78.12,-47.8 3.67,22.71 -77.49,-43.31l1.68 -120.07 107.22 -7.33c-71.52,-75.15 32.15,-56.81 -137.74,-60.4 -18.8,40.26 -60.12,-30.4 -13.54,239.61l214.37 61.34z"/>
   </g>
   <g>
    <path class="fil8" d="M4928.52 7116.27c135.36,91.85 216.6,328.85 343.99,425.93 -112.92,-102.66 -209.02,-195.68 -171.95,-382.15 254.36,-64.23 431.58,109.68 649.47,158.61 749.9,168.56 2202.93,94.97 2255.29,106.76 254.44,57.2 46.2,118.81 -104.96,509.97 -120.65,312.19 -236.46,235.95 -255.69,550.21 -173.87,8.93 -232.83,63.05 -396.36,54.24 -72.34,-3.94 -294.59,-38.48 -374.27,-51.82 223,58.1 597.74,15.26 751.43,105.23 103.79,-75.81 137.35,-242.5 196.7,-362.76 50.95,-103.16 151.19,-216.28 223.14,-340.59 122.52,-211.72 359.25,-481.11 581.46,-582.91 -169.57,-101.72 -684.62,44.06 -915.11,58.38 -316.17,19.66 -708.58,15.6 -1024.44,-10.46 -995.84,-82.1 -1161.4,-311.45 -1669.89,-444.97l-88.81 206.33z"/>
    <path class="fil8" d="M9788.76 10571.08c66.14,118.97 52.44,284.33 -84.67,349.5 0.08,93.52 -11.36,60.63 37.96,136.02 238.95,74.95 151.2,473.76 -214.76,544.39 113.94,127.55 122.68,48.03 331.86,44.64l49.16 501.47c-361.86,16.19 -788.61,-10.58 -1045.94,234.73l20.29 81.24c166.42,-37.85 340.79,-173.63 542.05,-223.73 322.49,-80.26 382.04,3.24 632.42,1.36 -14.71,-114.6 -77.02,-242.89 -100.04,-358.15 -61.38,-307.16 -162.56,-1075.13 -21.89,-1299.29 -9.02,192.4 -51.47,677.44 19.74,812.64l26.69 -847.29c-42.96,-35.78 -65.47,-32.23 -86.12,-79.91l-106.75 102.38z"/>
    <path class="fil8" d="M5395.62 14063.2c225.25,337.24 1314.54,717.17 1736.81,748.3l-12.76 -94.54 -235.48 -53.45c-461.91,-105.16 -597.69,-113.98 -1010.67,-356.52l-58.37 -39.64c-63.64,-57.6 -46,-83.93 -225.06,-227.76l-34.69 -27.78c-3.36,-2.65 -11.98,-8.74 -17.36,-13.77l162.63 -67.9c31.45,64.39 -53.3,85.18 67.93,143.17 -30.44,-100.21 45.57,-170.79 -133.95,-173.01l-239.03 162.9z"/>
    <path class="fil8" d="M9126.26 11393.64c235.71,40.78 474.47,61.34 405.75,-237.78 -122.98,-100.63 -235.51,-77.3 -396.58,-59.58l-9.17 297.36z"/>
    <path class="fil8" d="M4444.57 13007.11c73.82,224.52 327.06,519.07 526.17,708.12 117.6,-97.24 1.09,-52.91 -199.19,-347.62 -1.76,-2.58 -7.38,-9.17 -9.17,-11.86 -103.21,-153.43 0.23,-51.63 -116.39,-151.67l97.58 -108.16c119.17,47.45 123.18,33.24 249.33,100.01 -27.7,-24.66 -194.51,-86.39 -256.55,-104.81 -59.15,-17.52 -66.52,-8.43 -115.69,-32.7 -79.28,-39.09 -54.12,-50.02 -176.21,-91.77l0.12 40.46z"/>
    <path class="fil8" d="M5364.4 14018.17c19.86,-67.38 214.06,-163.64 314.46,-214.17 -167.75,-106.64 -175.94,19.86 -251.21,91.5 -155.49,-20.49 -97.12,-38.55 -170.12,-89.24 -199.43,-138.44 -202.98,-16.35 -202.98,-16.35 122.48,118.77 156.74,192.64 309.85,228.26z"/>
    <path class="fil8" d="M7909.33 14835.89l202.36 -25.44 -172.94 -399.08 -65.78 24.97c64.18,203.75 35.74,195.44 36.36,399.55z"/>
    <path class="fil8" d="M8692.13 12666.32l187.18 -108.51 -78.32 -130.01c-142.06,-18.61 -55.56,-7.77 -91.22,17.79l-17.64 220.73z"/>
   </g>
   <g>
    <path class="fil9" d="M11703.1 10784.32c67.35,-59.81 -8.46,-32.34 99.19,-36.48 308.45,-11.9 195.17,-74.33 301.81,19.66l-40.38 174.54c-141.6,-12.18 -105.82,-22.09 -201.61,-77.85 -16.16,-9.36 -155.06,-78.42 -159.01,-79.87zm-482.62 -2481.72c118.77,5.74 52.36,-4.37 93.18,127.05 16.23,52.32 26.18,103.94 11.78,159.08l-13.77 -267.4c387.65,57.75 250.77,118.97 408.33,346.29 51.08,73.71 168.72,62.08 227.29,472.91 28.91,202.55 86.27,388.28 94.46,593.68 4.29,107.26 -1.4,212.22 18.77,310.74 26.73,130.87 43.62,153.03 23.53,302.98 -140.51,2.93 -27.55,-46.55 -212.89,-81.23 -145.46,-27.2 -167,-21.89 -313.52,-71.33l-5.11 134.46 325.26 76.28c107.11,51.08 62.32,-8.19 122.13,88.96 -27.12,149.17 -62.08,128.57 -194.62,146.95l-191.7 -17.36c-9.99,170.59 -0.2,149.75 81.62,278.79 90.49,80.06 264.28,108.12 306.69,262.87 124.28,11.62 31.96,76.51 112.45,-63.25 151.51,-263.11 56.07,-1928.47 -256.58,-2491.13 -141.37,-74.72 -368.5,-489.88 -781.05,-717.24 14.56,51.19 48.62,125.36 76.99,191.31 28.72,66.8 45.61,130.87 66.76,216.59z"/>
    <path class="fil9" d="M11873.89 8498.63c-68.4,-147.65 -98.8,-299.39 -165.99,-453.24 -58.56,-134.07 -126.89,-262.17 -193.45,-398.11 -87.6,-178.9 -295.53,-619.39 -471.04,-729.77 115.22,333.02 -62.58,679.12 -47.37,736.56 24.7,93.1 175.55,106.83 327.02,287.45 139.1,165.87 125.88,-2.03 409.31,415.36l27.62 37.03c23.45,27.04 69.61,52.98 113.9,104.72z"/>
    <path class="fil9" d="M11991.92 11432.07l-138.44 176.02 -44.36 112.69 -13.19 76.71c128.1,-37.34 81.08,-9.33 115.65,-117.45l61.07 2.93c-72.27,1.91 -1.49,-9.8 -29.03,61.76l64.14 73.36 115.93 -590.44c-52.44,112.46 -42.73,120.81 -131.77,204.42z"/>
   </g>
   <g>
    <path class="fil10" d="M4175.46 2336.72c20.87,9.91 87.95,33.17 109.76,44.1 142.3,-866.89 3292.57,-2561.75 5498.86,-368.85 152.17,151.28 426.63,483.52 487.73,686.54l35.82 -22.4 48.89 -14.51c-128.49,-386.76 -796.76,-975.95 -1135.02,-1210.22 -518.29,-358.93 -1167.13,-560.42 -1775.44,-603.66 -1013.36,-72.07 -2924.74,502.84 -3270.6,1489z"/>
    <path class="fil10" d="M7315.11 2467.83c120.53,-17.64 373.49,-296.12 370.14,-369.36 -101.57,-16.15 -364.56,236.03 -370.14,369.36z"/>
    <path class="fil10" d="M13874.59 11618.16c61.29,-64.7 15.45,20.56 44.95,-68.76 0.74,-2.18 15.84,-97.23 19.7,-115.61 146.59,-50.33 175.35,-74.25 296.62,-42.84 -23.76,-32.89 -37.49,-54.16 -62.62,-87.48 -51.2,-67.93 -2.58,-18.22 -74.1,-85.61 10.61,124.32 57.75,34.92 -46.39,101.57 -10.38,6.67 -110.97,35.15 -133.45,39.52l12.06 -205.31c-89,86.42 -42.26,93.02 -38.08,232.98 2.26,75.46 -8.98,154.71 -18.69,231.54z"/>
    <path class="fil10" d="M2417.22 15879.84l51.35 -52.09 36.06 75.7c75.69,-89.28 125.4,-175 131.49,-269.11 -64.77,-89.08 -15.61,-113.39 -198.41,-69.22 111.32,92.51 -130.01,-91.66 55.68,36.13 45.57,31.33 32.23,19.39 54.24,42.64l-130.41 235.95z"/>
    <path class="fil10" d="M14174.64 10891.74l-250.34 26.1 7.8 -301.57 214.25 24.62c-86.31,-78.27 -129.73,-69.49 -249.29,-36.6l-13.85 345.16c128.14,28.02 226.19,36.56 291.43,-57.71z"/>
    <path class="fil10" d="M4667.68 2347.96c3.86,-7.1 125.52,-0.78 -35.27,-217.88 -5.08,6.63 -183.39,-29.11 35.27,217.88z"/>
    <path class="fil10" d="M7632.85 2671.55l189.71 -187.45c-110.9,57.51 -129.35,83.89 -189.71,187.45z"/>
    <path class="fil10" d="M14331.46 11529.93c-39.22,-116.35 19.31,-41.36 -70.47,-103.36 37.26,173.17 -2.3,57.28 70.47,103.36z"/>
    <polygon class="fil10" points="3919.34,11258.75 3828.89,11263.2 3886.87,11324.42 "/>
   </g>
   <g>
    <path class="fil11" d="M11557.64 10195.37c146.52,49.44 168.06,44.13 313.52,71.33 185.34,34.68 72.38,84.16 212.89,81.23 20.09,-149.95 3.2,-172.11 -23.53,-302.98 -20.17,-98.52 -14.48,-203.48 -18.77,-310.74 -8.19,-205.4 -65.55,-391.13 -94.46,-593.68 -58.57,-410.83 -176.21,-399.2 -227.29,-472.91 -157.56,-227.32 -20.68,-288.54 -408.33,-346.29l13.77 267.4c14.4,-55.14 4.45,-106.76 -11.78,-159.08 -40.82,-131.42 25.59,-121.31 -93.18,-127.05 22.51,270.68 170.67,610.92 210.31,908.36 39.45,296.04 119.32,699.18 126.85,984.41z"/>
    <path class="fil11" d="M11703.1 10784.32c3.95,1.45 142.85,70.51 159.01,79.87 95.79,55.76 60.01,65.67 201.61,77.85l40.38 -174.54c-106.64,-93.99 6.64,-31.56 -301.81,-19.66 -107.65,4.14 -31.84,-23.33 -99.19,36.48z"/>
   </g>
   <g>
    <path class="fil12" d="M7945.23 10962.29c-44.09,92.98 -102.74,99.03 28.95,193.41 9.68,-122.36 -29.3,-56.26 28.64,-96.76l429.76 55.99 -168.45 465.53 -123.22 -16.31c-80.5,66.88 31.8,9.25 -70.7,38.67 -5.15,1.48 -91.23,3.24 -99.93,3.36 180.19,121.35 294.36,-55.84 357.49,171.76 103.32,73.43 169.31,193.45 243.36,302.4 42.77,62.93 63.18,90.29 110.58,148.42 85.26,104.57 56.66,70.94 119.28,199.04l78.32 130.01 -187.18 108.51c-100.98,197.36 -696.53,503.42 -775.73,1644.3l-142.35 -22.94 -29.69 41.75 194.39 81.94 172.94 399.08 -202.36 25.44 -776.9 -24.39c-422.27,-31.13 -1511.56,-411.06 -1736.81,-748.3l-31.22 -45.03c-153.11,-35.62 -187.37,-109.49 -309.85,-228.26l-85.72 -24.89c39.06,237.19 448.01,356.43 564.45,542.16 93.64,29.93 99.14,45.81 177.34,104.5 6.75,5.07 84.24,57.71 86.11,58.72 101.92,55.72 36.25,-15.37 96.57,49.48 144.45,29.34 323.43,136.99 479.35,189.28 173.32,58.14 342,107.07 521.37,145.34 359.52,76.71 903.21,104.26 1274.17,14.83l26.45 2.26c-4.02,-92.16 -141.01,-393.35 -175.43,-511.07 -93.61,-300.75 214.49,-1192.73 456.8,-1288.71 126.38,-298.89 662.58,-706.44 1004.03,-763.68 238.6,-40.04 554.93,-39.18 776.48,66.49 136.84,65.24 489.33,319.33 568.27,332.71 -91.27,-245.58 -475.41,-284.37 -645.41,-453.01 -139.26,-138.13 -204.11,-655.52 -224.44,-858.42 -71.21,-135.2 -28.76,-620.24 -19.74,-812.64 -140.67,224.16 -39.49,992.13 21.89,1299.29 23.02,115.26 85.33,243.55 100.04,358.15 -250.38,1.88 -309.93,-81.62 -632.42,-1.36 -201.26,50.1 -375.63,185.88 -542.05,223.73l-20.29 -81.24 -464.01 -671.47 -74.1 -43.74c24.23,-147.14 88.26,-283.4 135.67,-422.85 41.55,-122.25 7.73,-111.13 117.13,-144.68 59.12,-18.11 193.07,-18.65 251.68,-16.66l-0.28 536.51 70.78 1.91c-49.67,-164.27 -64.53,-1070.17 0,-1214.27 -165.51,87.68 -10.22,281.01 -92.94,601.91 -148.93,5.11 -306.3,49.9 -433.23,42.99 -137.19,-7.49 -285.73,-68.59 -427.84,-89.19z"/>
    <path class="fil12" d="M7625.47 8593.25c-11.67,126.74 -68.79,309.46 -147.76,406.46 -1043.45,-2.03 -1503.48,-126.73 -2423,-376.37 -220.38,-59.86 -476.66,-193.07 -676.94,-276.84l-70.16 -39.45c-122.09,75.31 -30.94,-11.86 -78.5,93.02 55.72,-23.88 19.66,-21.27 97.31,-7.96 32,5.5 61.61,26.22 87.4,41.67 97.94,31.84 269.31,126.19 396.55,173.6 347.35,129.5 1208.07,322.61 1272.92,373.17 -88.26,375.87 -177.66,1025.66 -160.72,1416.63l-145.58 -6.99c110.66,104.65 73.86,47.72 200.24,104.81 -23.68,-451.88 95.05,-1069.9 170.59,-1522.6l1309.05 101.49c-2.89,123.45 -131.38,732.81 -162.28,893.84 -50.88,264.9 -392.3,410.05 -347.39,725.09 161.54,118.74 151.09,-1.25 182.61,198.61l101.92 -261.82c-77.72,49.71 -87.91,66.02 -192.71,35.12 -89.28,-194.39 210.78,-419.77 291.19,-556.72 53.46,-155.03 84.36,-494.33 129.78,-691.73 50.84,-220.85 103.48,-376.77 175.39,-587.31 122.37,-358.24 314.53,-671.95 524.81,-973.96 86.38,-135.35 272,-375.98 405.99,-441.81l74.13 -94.42 -13.54 -11.79c-222.21,101.8 -458.94,371.19 -581.46,582.91 -71.95,124.31 -172.19,237.43 -223.14,340.59 -59.35,120.26 -92.91,286.95 -196.7,362.76z"/>
    <path class="fil12" d="M9742.05 11056.6c-49.32,-75.39 -37.88,-42.5 -37.96,-136.02l-83 28.25c47.8,98.67 -6.04,57.24 120.96,107.77z"/>
   </g>
   <g>
    <path class="fil13" d="M8088.27 2485.15c436.86,-143.59 180.12,784.36 -183.7,810.23 -362.13,25.79 -286.47,-655.71 183.7,-810.23zm-265.71 -1.05l-189.71 187.45 -416.8 1830.18c149.16,58.41 29.73,19.51 79.71,-16 -0.27,-597.07 88.89,-284.14 109.29,-643.27l185.5 -7.06 62.94 190.18c153.73,9.6 124.78,59.23 284.33,140.12 125.01,-72.66 28.29,-45.85 145.03,-97.75 225.18,-100.08 79.6,-27.19 257.1,-409.65 33.79,-72.78 -20.37,-9.84 45.65,-83.54 122.24,-0.51 139.1,47.17 140.51,156.66l157.4 -1.72c-6.71,-412.31 -32.27,-654.74 -75.66,-1053.71 -91.81,-110.69 -78.82,-137.42 -73.86,-287.96l-711.43 96.07z"/>
    <path class="fil13" d="M3751.28 11596.46l250.93 -54.74 55.14 -142.07 136.33 -356.09c4.29,-7.57 7.72,-16.07 12.25,-23.6 4.68,-7.77 8.7,-16.27 13.54,-23.77 41.63,-64.61 -1.87,-13.34 53.65,-68.67l1.44 -131.14 70.82 -129.7c40.58,70.23 14.87,426.67 22.05,652.28 2.93,92.08 -2.93,190.88 -2.46,285.19l204.93 5.27c51,-153.43 56.26,-1010.05 -1.41,-1188.33l-373.95 2.19 -19.43 170.98 -104.15 216.56 -151.62 447.93 -32.47 65.67 -57.98 -61.22 -42.1 -190.26c-85.88,-90.25 -74.8,-95.28 -102.04,-223.73 -37.45,-176.6 -24.58,-61.84 -68.86,-208.44l-69.81 -230.87 -408.18 -2.58 8.71 1213.65 270.05 -9.17 -14.95 -903.06c122.83,202.08 198.96,791.23 349.57,887.72z"/>
    <path class="fil13" d="M17347.93 11282.67c-61.02,93.84 -31.06,68.99 -122.63,116.51 -673.47,108.16 -583.84,-594.8 -400.65,-740.93 137.93,-110.03 403.77,-92.12 505.92,62.31 113,170.79 51.9,387.97 17.36,562.11zm256.71 -681.54l-120.73 -127.24c-1065.09,-389.53 -1354.34,588.25 -919.63,1011.33 213.39,207.66 715.18,210.19 943.59,19.59 312.78,-261.04 186.4,-600.62 96.77,-903.68z"/>
    <path class="fil13" d="M14939.65 11615.89l170.7 -10.53 38.01 -401.43 -7.1 -475.52 354.72 518.91c91.54,0 60.13,75.7 84.47,130.87l67.74 110.54c3.98,6.01 11.2,16.58 15.96,25.4l71.91 100.36 164.31 -8.59 114.05 9.72 94.27 -30.43 -12.72 -1192.58 -249.25 14.59 1.99 832.9c-108.63,-59.11 -438.1,-559.26 -470.06,-692.9 -96.3,-52.24 -42.49,13.27 -75.42,-95.67 -55.53,-92.75 -252.07,-65.44 -358.39,-53.07 -37.58,206.65 -40.08,1023.78 -5.19,1217.43z"/>
    <path class="fil13" d="M5810.27 11357.63c-61.06,58.56 -182.06,80.22 -254.48,86.23 -126.3,10.49 -166.03,-53.5 -247.11,-125.68 -175.5,-163.8 -153.97,-696.68 221.9,-727.24 473.19,-38.43 402.99,488.33 279.69,766.69zm-704.88 -847.22c-42.68,110.07 -14.28,57.08 -82.25,88.61l-30.59 86.82c-139.84,354.37 -17.6,558.16 13.5,698.51 92.71,77.85 82.96,82.45 129.08,167.79 190.49,15.21 243.75,96.53 552.82,86.54l82.6 -19.82 191.31 -99.42 53.65 -19.04 2.03 -3.9c5.93,-6.87 14.09,-26.77 17.05,-21.23l90.88 -103.52c149.63,-206.6 133.79,-768.87 -148.24,-876.75 -126.38,-57.09 -89.58,-0.16 -200.24,-104.81 -247.46,-45.69 -463.43,-24.35 -671.6,120.22z"/>
    <path class="fil13" d="M9135.43 11096.28c161.07,-17.72 273.6,-41.05 396.58,59.58 68.72,299.12 -170.04,278.56 -405.75,237.78l9.17 -297.36zm-16.47 -506.12c150.03,-21.89 429.87,-19.39 418.4,145.54 -10.93,156.9 -96.57,176.45 -434.32,162.13l15.92 -307.67zm-219.72 1030.69l628.05 -19.86c365.96,-70.63 453.71,-469.44 214.76,-544.39 -127,-50.53 -73.16,-9.1 -120.96,-107.77l83 -28.25c137.11,-65.17 150.81,-230.53 84.67,-349.5 -73.86,-60.01 -17.21,-7.02 -50.02,-78.62l-95.64 -36.83c-133.52,-4.61 -95.95,-33.48 -211.05,-39.73l-532.81 -9.32c-64.53,144.1 -49.67,1050 0,1214.27z"/>
    <path class="fil13" d="M14146.35 10640.89l105.9 24.19 -1.72 201.88 -75.89 24.78c-65.24,94.27 -163.29,85.73 -291.43,57.71l13.85 -345.16c119.56,-32.89 162.98,-41.67 249.29,36.6zm-522.97 876.4l26.46 94.04 224.75 6.83c9.71,-76.83 20.95,-156.08 18.69,-231.54 -4.18,-139.96 -50.92,-146.56 38.08,-232.98l149.95 14.08 17.83 50.14c71.52,67.39 22.9,17.68 74.1,85.61 25.13,33.32 38.86,54.59 62.62,87.48l25.13 35.62c89.78,62 31.25,-12.99 70.47,103.36 77.33,132.98 208.59,101.92 349.61,68.79l-165.87 -235.47c-69.45,-63.29 -17.75,-5.31 -71.56,-79.8 -23.76,-32.97 -33.05,-57.51 -41.63,-70.27l-61.07 -115.89c92.67,-114.71 188.19,-96.37 218.31,-273.25 25.05,-147.22 -9.48,-269.19 -128.76,-346.76 -190.69,-124 -574.87,-92.47 -813.39,-78.39l6.28 1118.4z"/>
    <path class="fil13" d="M2259.94 10713.03l35.35 -110.61c48.77,23.56 14.01,-70.86 51.62,64.38l122.01 451.17 -327.99 -7.49 119.01 -397.45zm-193.5 616.03l486.73 7.73 105.15 277.39 296.23 6.82c-22.47,-158.69 -211.36,-586.88 -285.97,-774.91 -182.1,-458.98 -58.06,-481.61 -549.85,-453.83l-455.62 1228.55 293.65 -6.95 109.68 -284.8z"/>
    <path class="fil13" d="M12761.26 10624.97c85.41,100.28 162.04,353 174.53,488.44l-317.77 1.68 143.24 -490.12zm-513.29 652.28l-25.17 117.09 -95.6 212.42 311.02 -35.82 88.26 -240.86 502.45 0.51 72.61 221.86c133.76,68.24 107.77,55.83 257.65,50.18 2.02,-8.16 8.35,-28.06 8.15,-23.84l-7.88 -91.07c7.29,-96.93 -351.37,-1002.36 -420.47,-1104.63l-346.21 7.53 -344.81 886.63z"/>
    <path class="fil13" d="M7348.12 11017.65c20.49,-155.41 30.09,-121.77 80.77,-245.78 39.22,-95.94 -29.38,-76.24 91.15,-159.43l69.26 256.47 76.67 242.43 -329.9 6.13 12.05 -99.82zm-116.39 -388.04l-101.92 261.82 -216.16 589.54 -51.51 106.28 241.8 37.46c26.58,-39.56 38.48,-73.98 46.83,-90.52l65.39 -109.45 35.51 -94.43 486.25 -1.09 42.42 135.98c90.01,37.3 58.64,60.72 51.81,165.72l138.13 -24.74c8.7,-0.12 94.78,-1.88 99.93,-3.36 102.5,-29.42 -9.8,28.21 70.7,-38.67l-166.73 -408.45c-131.69,-94.38 -73.04,-100.43 -28.95,-193.41 -106.99,-54.79 -189.83,-430.15 -294.4,-578.38l-343.44 19.98 -75.66 225.72z"/>
    <path class="fil13" d="M1550.54 10590.2l47.29 -174.41 -199 1.4c-31.21,25.72 -60.24,49.56 -98.95,82.88l-300.68 794.35 -323.86 -900.87 -282.69 11.04 457.38 1209.16 329.51 0.15 371 -1023.7z"/>
    <path class="fil13" d="M10723.89 10849.29c-73.75,67.34 -23.34,58.18 -281.56,36.75 -41.17,-124.82 -35.71,-155.1 -11.87,-280.42 125.29,-29.35 230.57,-27.2 344.38,9.4 43.78,177.38 7.89,48.26 -28.87,97.66l-22.08 136.61zm-6.6 755.79l151.43 -23.21c-65.7,-186.2 -90.29,-101.92 -93.41,-106.37 -17.17,-24.54 -22,16.82 58.14,-57.75l-139.8 -2.34 -269.7 -0.43 -9.76 -226.03c11.98,-171.26 -3.16,-44.52 62.35,-96.93l182.3 0.12 74.53 5.97 165.55 -22.32 6.29 -199.46 -124.08 -4.45 40.85 -252.02 91.58 -7.22c9.28,-176.95 46.62,-179.41 -93.57,-227.64l-665.47 9.99 -13.23 1229.41 576 -19.32z"/>
    <path class="fil13" d="M11501.38 11110.4c87.09,33.44 180.85,67.15 247.18,139.03l-7.49 105c-138.87,128.33 -297.48,55.56 -458.2,44.09l-107.22 7.33 -1.68 120.07c81.16,66.02 -0.63,-4.49 77.49,43.31l94.5 69.84 1.06 14.63 90.13 -9.25 416.33 -36.36 138.44 -176.02 9.99 -265.75c-42.41,-154.75 -216.2,-182.81 -306.69,-262.87 -120.45,-39.8 -166.3,-45.42 -248.7,-144.02 16.74,-265.99 320.15,-179.65 358.78,-117.41 132.54,-18.38 167.5,2.22 194.62,-146.95 -59.81,-97.15 -15.02,-37.88 -122.13,-88.96 -245.74,-16.7 -623.44,-78.35 -710.02,206.8 -93.53,307.78 138.43,377.28 333.61,497.49z"/>
    <path class="fil13" d="M3803.18 3708.94l112.41 -0.7 58.02 204.26 273.64 -14.08c62.28,-141.95 112.96,-383.44 98.8,-546.74l-37.38 -115.88c-132.59,36.83 -59.43,42.57 -135.79,28.56 -36.79,-23.45 -149.75,-250.66 0.47,-367.32l35.16 -236.54c77.41,-202.15 79.4,-33.55 66.05,-255.92l10.66 -23.76c-21.81,-10.93 -88.89,-34.19 -109.76,-44.1 -5.58,79.41 -180.11,502.65 -219.25,635.04 -69.69,235.44 -129.11,490.62 -153.03,737.18z"/>
   </g>
   <g>
    <path class="fil14" d="M10381.18 7323.11l11.24 117.99c119.87,221.71 215.35,315.67 323.47,574.01 158.8,379.58 60.79,506.82 110.97,833.68l26.06 16.31c212.97,373.02 99.5,1114.46 -32.93,1519.9 140.19,48.23 102.85,50.69 93.57,227.64l32.97 13.77c28.75,-141.13 -10.5,-152.8 42.45,-525.43 161.5,-1136.7 -40.19,-846.94 -74.84,-1655.76 -18.96,-442.64 -213.78,-641.05 -318.35,-908.83 -71.45,-182.81 -156.27,-199.12 -139.93,-476.39 10.46,-177.49 91.66,-322.92 117.33,-501l190.53 -31.96 279.69 390.47c175.51,110.38 383.44,550.87 471.04,729.77 66.56,135.94 134.89,264.04 193.45,398.11 67.19,153.85 97.59,305.59 165.99,453.24l-16.11 113.31c312.65,562.66 408.09,2228.02 256.58,2491.13 -80.49,139.76 11.83,74.87 -112.45,63.25l-9.99 265.75c89.04,-83.61 79.33,-91.96 131.77,-204.42l-115.93 590.44c-45.92,132.31 -77.96,264.82 -118.69,384.53 -85.3,250.7 -118.31,111.05 -172.46,301.19 -149.56,525.23 -265.37,515.32 -236.3,734.69l-204.23 19.82c-150.77,-196.07 -137.89,-355.7 -175.97,-597.77 -42.53,-270.44 -3.24,-303.73 231.89,-447.55l-71.88 -16.51c-95.28,91.31 -92.32,123.85 -231.42,129.47 -61.84,-164.97 -180.3,-515.17 -180.3,-670.97 137.26,-16.62 112.6,-67.81 117.05,-249.21l-185.18 -53.11 -1.09 -262.71 -70.75 0c-35.97,173.71 -8.03,166.1 -14.78,325.45l139.8 2.34c-80.14,74.57 -75.31,33.21 -58.14,57.75 3.12,4.45 27.71,-79.83 93.41,106.37l-151.43 23.21c53.3,218.43 119.4,436.63 184.52,647.95 56.23,182.53 107.3,515.37 151.55,636.87 -133.6,-70.98 -88.34,-155.18 -228.57,-182.57 21.77,71.17 165.44,245.86 222.95,362.88 51.35,104.49 138.33,323.46 189.01,406.73l127.9 55.48c272.16,-139.68 647.17,-1564.42 781.67,-1895.46 164.7,-10.18 251.91,47.45 291.9,-66.02l-311.02 35.82 95.6 -212.42c-124.63,-52.2 -80.54,-77.37 -11.43,-157.48 20.21,-1171.19 91.92,-1710.16 -297.68,-2862.07 -231.89,-685.53 -695.08,-1528.53 -1210.91,-2036.79l-121.9 -34.07c-152.33,242.78 -226.7,719.08 -199.7,1019.18z"/>
    <path class="fil14" d="M3980.63 4802.8c-9.48,91.34 -271.06,13.93 -331.7,-24.12 -66.72,50.38 -17.71,-15.29 -30.7,83.51 79.01,81.43 111.01,98.67 184.52,162.55 83.3,72.34 72.92,164.54 108.9,286.28 63.76,216.05 141.48,326.28 224.01,519.11 216.01,243.05 300.64,409.85 632.96,536.51 373.45,142.3 589.38,153.81 988.16,61.02 84.16,-47.79 177.14,-82.17 261.62,-133.91 102.5,-62.78 139.45,-131.38 242.19,-180.89 63.95,-132.47 181.01,-241.41 258.93,-377.59 36.87,-64.46 69.53,-138.51 92.9,-203.09 57.44,-158.65 0.24,-153.85 160.57,-190.37l78.38 -31.41 58.38 -44.56c-43.39,-94.43 -27.12,-21.11 -149.48,-98.25 -55.02,-34.73 -97.79,-87.6 -144.18,-136.49 -88.96,75.42 15.49,171.29 69.88,244.49l-38.78 28.72c-92.59,96.22 -177.42,595.86 -576.19,848.82l-114.84 54.54c-149.4,64.23 -176.17,274.5 -807.73,186.59 -195.21,-27.19 -317.61,-70.74 -487.89,-182.37 -37.58,-24.62 -66.88,-39.14 -102.5,-58.57 -207.51,-113.08 -246.41,-246.75 -296.43,-299.66 -5.23,-5.54 -14.2,-10.31 -19.63,-15.88 -84.82,-87.02 -154.82,-258.54 -195.56,-372.75 -83.81,-234.94 -65.04,-69.14 -101.14,-223.74 -70.35,-301.26 -71.67,-97.39 -69.41,-297.67 144.76,-66.72 65.16,67.7 211.91,-83.11 235.28,-241.69 278.48,-195.76 366.04,-265.29 243.94,-193.73 411.18,-200.6 631.09,-96.54 180.62,85.5 245.86,320.47 683.77,46.59 200.67,-125.48 463.82,147.42 554.03,236.03 137.62,135.12 73.35,196.65 268.45,233.57 -94.23,-183.78 -305.56,-411.3 -494.76,-505.03 -422.89,-209.53 -499.56,177.54 -743,86.12 -260.88,-97.94 -330.49,-346.37 -740.7,-173.83 -227.17,95.56 -424.48,298.81 -632.07,380.67z"/>
    <path class="fil14" d="M5770.55 11618.86l86.86 1.13c59.58,138.09 37.49,681.35 51.7,887.99 17.24,250.23 60.75,552.67 119.43,797.86l50.84 220.73c-96.37,119.44 -303.33,175.31 -400.52,277.43 -100.4,50.53 -294.6,146.79 -314.46,214.17l31.22 45.03 239.03 -162.9 484.07 -319.76c233.49,99.81 532.76,286.98 783.07,401.85 271.84,124.74 564.48,245.23 842.57,347.04l29.69 -41.75c-171.95,-110.78 -710.84,-309.62 -934.23,-409.78 -149.63,-67.08 -319.72,-150.22 -466.74,-229.2 -249.84,-134.18 -225.29,-126.62 -292.17,-405.56 -123.03,-533.43 -106.72,-1021.01 -142.23,-1558.85l23.18 -164.85 -191.31 99.42z"/>
    <path class="fil14" d="M3758.73 3993.19l80.97 94.7c179.25,210.35 366.19,59.23 407.55,-189.47l-273.64 14.08 -58.02 -204.26 -112.41 0.7c-43.12,88.57 -44.52,171.76 -44.45,284.25z"/>
    <path class="fil14" d="M6017.54 11496.5l844.6 90.75 51.51 -106.28c-191.9,39.13 -257.29,3.27 -448.21,-13.7 -114.8,-10.18 -297.56,7.57 -339.97,-95.52l-90.88 103.52c-2.96,-5.54 -11.12,14.36 -17.05,21.23z"/>
    <path class="fil14" d="M7103.94 11624.71c235.25,-48.97 487.31,11 728.21,6.21 6.83,-105 38.2,-128.42 -51.81,-165.72l6.51 101.53 -541.31 -28.21c-47.21,-54.47 -54.04,89.43 -29.38,-113.78l-65.39 109.45c-8.35,16.54 -20.25,50.96 -46.83,90.52z"/>
    <path class="fil14" d="M5810.27 11357.63l-501.59 -39.45c81.08,72.18 120.81,136.17 247.11,125.68 72.42,-6.01 193.42,-27.67 254.48,-86.23z"/>
    <path class="fil14" d="M8386.77 3744.76l130.44 -2.5c-36.41,-125.25 9.99,-86.93 -113.74,-134.3l-16.7 136.8z"/>
    <path class="fil14" d="M7731.6 4258.41l-88.57 -88.81c40.74,105.66 -14.24,50.02 88.57,88.81z"/>
   </g>
   <g>
    <path class="fil15" d="M4699.75 7414.53l-68.2 9.25c-0.2,0.54 -441.46,883.23 -542.01,1170.25 -78.12,222.88 -148.24,415.91 -217.18,649.82 -54.86,186.24 -102,552.71 -161.46,690.76 -143.83,47.33 -1310.84,66.13 -1550.81,74.21 -442.87,14.91 -977.07,5.89 -1363.63,-201.57 21.92,-171.53 386.91,-508.57 510.17,-632.97 -144.92,-245.74 -227.91,-163.68 -339.43,-364.39l-21.93 -53.81 -90.79 -55.56c12.41,-156.39 113.43,-157.87 230.99,-215.23 406.07,-101.1 735.55,-104.1 1044.85,-364.79 670.89,-565.58 1992.42,-1139.35 2844.52,-1218.33 -82.14,158.26 -266.42,341.77 -275.09,512.36zm4616.49 -421.17c94.46,-73.71 294.08,-217.45 390.23,-268.26l-46.04 261.67 -344.19 6.59zm-4473.33 -318.94c-220.22,-144.41 -282.1,-279.14 -361.9,-348.56l-390.19 -416.6 -430.34 -599.96c-319.87,-286.86 -291.31,-617.67 -42.72,-923.89l53.53 -119.98 -57.86 -15.45c-470.18,620.75 -164.15,948.78 250.07,1468.59 401.19,503.46 607.91,680.49 1063.07,1109.58 -947.93,202.24 -1295.08,315.9 -2151.5,779.91 -280.78,152.14 -691.81,519.97 -879.02,610.14 -317.81,153.07 -682.75,108.12 -1098.5,345.4 -25.52,312.27 228.06,387.22 400.65,577.09 -68.76,167.08 -419.15,405.6 -499.53,661.06 343.92,427.45 2436.23,223.97 3018.82,224.98 -14.08,120.8 -13.97,606.47 -101.6,614.04 44.28,146.6 31.41,31.84 68.86,208.44 27.24,128.45 16.16,133.48 102.04,223.73 -55.99,-219.36 -98.17,-697.93 -13.15,-939.26 21.97,-62.27 15.22,-45.46 35.66,-72.03 93.41,167.71 261.51,564.53 261.66,749.17l104.15 -216.56 -106.45 -19.04c-120.53,-539.87 -333.3,-477.59 -177.85,-1094.83 77.73,-308.68 297.83,-828.1 338.3,-1080.32 47.56,-104.88 -43.59,-17.71 78.5,-93.02l160.84 -368.18c63.41,-158.38 214.06,-375.17 231.3,-524.34 112.77,-53.69 147.77,-213.36 228.77,-298.26l88.81 -206.33c508.49,133.52 674.05,362.87 1669.89,444.97 315.86,26.06 708.27,30.12 1024.44,10.46 230.49,-14.32 745.54,-160.1 915.11,-58.38l13.54 11.79c415.95,-185.97 423.98,-250.89 920.81,-249.92 592.43,1.17 489.69,182.14 831.3,372.24l-11.24 -117.99c-310.63,-161.97 -223.61,-194.98 -647.91,-333.93 37.15,-429.28 93.49,-387.06 336.97,-677.32 135.98,-162.05 284.84,-511.78 381.88,-600.43 205.67,162.36 192.87,360.19 128.76,592.5l121.9 34.07c-49.25,-204.5 50.25,-209.18 -39.88,-447.59 -52.64,-139.18 -121.58,-169.96 -182.34,-284.56 -0.31,-2.77 677.61,-1702.13 -124.04,-2944.25l-48.89 14.51c177.81,420.66 291.01,642.84 348.05,1112.04 50.49,415.4 25.95,914.6 -79.36,1283.18 -210.12,735.35 -535.58,1304.79 -1129.76,1740.36 -839.53,615.33 -2715.56,556.37 -3647.92,305.63 -210.15,-56.54 -823.8,-291.94 -955.73,-442.9z"/>
    <path class="fil15" d="M16530.37 12592.58c271.06,827.98 -4.37,1879.85 -750.68,2369.42 -866.3,568.27 -2088.14,25.25 -1971.4,-994.48 3.4,-270.83 97.32,-280.15 113.67,-466.7 -137.35,74.76 -181.05,342.43 -189.4,503.3 45.84,749.21 542.59,1249.74 1306.47,1268.31 -348.28,415.44 -1250.79,360.23 -1727.96,258.39 -666.91,-142.3 -1218.95,-165.72 -1891.67,-215.15l5.5 -688.88 -57.9 -981.41 0.97 -92.12 -3.32 -20.84 -127.9 -55.48c75.15,643.85 162.48,1004.19 116.32,1686.63 -21.97,324.56 -10.5,543.34 6,865.52 12.37,241.02 77.3,625.16 57.05,842.34 -582.32,1.52 -634.41,-237.23 -899,96.61 -367.59,463.78 -468.42,-23.29 -756.88,-30.63 61.29,116.94 346.76,290.69 493.66,320.93 185.58,-88.73 427.34,-378.99 476.74,-396.47 90.83,-32.19 236.61,37.73 334.62,58.84 157.68,33.99 279.61,20.25 435.45,24.74l-101.25 -1567.47c427.1,41.09 802.23,40.31 1231.87,113.31 317.14,53.89 791.26,161.93 1092.41,180.11 1126.63,68.09 1242.4,-333.49 1545.15,-424.44 189.71,-57.01 278.24,-56.27 458.86,-166.34 544.16,-331.7 946.87,-987.45 989.91,-1620.61 53.5,-786.27 -213.2,-1278.3 -703.24,-1844.39l-114.05 -9.72c119.75,171.02 240.12,238.53 377.43,432.41 119.4,168.6 217.96,358.12 252.57,554.27z"/>
    <path class="fil15" d="M3945.56 11629.12c35.23,91.34 12.37,105.08 -34.57,218.39 -195.29,-283.08 34.1,-218.31 34.57,-218.39zm-194.28 -32.66c75.27,229.43 104.1,216.79 -65.82,391.32 -266.5,273.72 -491.37,657.59 -644.52,1009.5 -333.3,765.86 -216.36,1275.88 -305.52,1903.89l-349.02 230.68c-41.09,66.64 -81.39,120.22 -126.89,186.98 -14.05,20.68 -42.84,68.13 -51.43,79.71 -76.08,102.58 -32.15,46.36 -93.56,86.86 47.75,132.39 176.36,92.94 323.19,79.72 182.8,-44.17 133.64,-19.86 198.41,69.22 116.28,-79.56 150.3,-168.37 224.94,-290.5 -101.64,43.62 -142.57,79.09 -191.54,187.25l-438.69 -40.54c94.23,-281.05 550.25,-515.75 568.19,-561.91l3.09 -211.02c15.68,-470.84 57.16,-1032.12 214.09,-1479.12 61.34,-174.65 174.46,-401.9 266,-562.66 90.44,-158.92 211.32,-407.98 339.77,-494.56 64.11,-116.2 111.99,-177.03 227.09,-235.48l86.16 219.99 328.38 738.86 226.47 333.96c70.15,96.57 125.56,176.52 202.97,272.9 40.97,51 72.11,92.83 118.89,144.64 91,100.75 59.27,89.71 156.9,108.87l1.91 -49.79c-199.11,-189.05 -452.35,-483.6 -526.17,-708.12 -129.31,-128.06 -322.45,-545.99 -397.25,-730.39 -215.78,-532.18 58.57,-445.36 76.55,-828.92l-66.52 -48.15 -55.14 142.07 -250.93 54.74z"/>
    <path class="fil15" d="M5577.64 14661.13c-117.06,184.91 -253,360.41 -334.12,571.08 -141.17,366.58 -29.54,344.42 -445.44,447.43 -425.07,105.27 -621.88,176.91 -993.11,321.08 -112.84,43.82 -217.1,83.19 -335.87,109.14l-263.89 79.4 44.52 -207.5 61.89 -335.25 -99.38 189.9c-79.17,11.48 -685.33,144.92 -707.61,67.04l-36.06 -75.7 -51.35 52.09c29.58,178.24 204.93,137.86 371.07,113.78 131.03,-19 264.47,-59.85 392.14,-86.74l-50.29 393.94c269.54,-47.22 1124.41,-412.16 1701.03,-555.71 484.73,-120.69 297.56,-117.06 514.82,-577.87 95.98,-203.52 281.05,-502.1 450.35,-626.37 -24.62,-29.66 21.34,-114.01 -121.5,28.13 -61.61,61.3 -10.85,41.24 -97.2,92.13z"/>
    <path class="fil15" d="M8168.19 14869.33c70.35,256.78 189.98,401.35 339.58,1015.51 94.81,389.25 95.32,919.09 146.59,996.74 117.29,177.57 422.77,119.16 623.41,80.06 530.42,-103.4 236.3,-20.76 482.47,-24.23 -102.62,-201.88 -337.17,-56.85 -642.57,-29.18 -432.29,39.21 -410.13,5.57 -435.37,-369.05 -12.92,-191.46 -66.76,-507.2 -118.07,-718.8 -54.67,-225.3 -146.67,-466.28 -193.73,-669.22l-175.86 -279.57 -26.45 -2.26z"/>
    <path class="fil15" d="M9738.74 10492.46c32.81,71.6 -23.84,18.61 50.02,78.62l106.75 -102.38c20.65,47.68 43.16,44.13 86.12,79.91 18.34,-250.11 355.31,-520.12 499.48,-754.32 178.39,-289.71 313.95,-588.99 371.81,-929.19l-26.06 -16.31c-73.71,75.93 -135.36,380.35 -187.29,510.13 -118.89,297.13 -598.01,999.24 -900.83,1133.54z"/>
    <path class="fil15" d="M6851.37 5310.4c139.38,55.48 966.85,114.56 1188.21,138.47 306.38,33.13 856.23,149.29 1085.19,-69.22 -188.65,8.51 -317.61,80.97 -523.86,68.64l-1593.69 -162.67 -97.47 -19.78 -58.38 44.56z"/>
    <path class="fil15" d="M4208.51 2660.5c32.65,-14.98 102.77,-38.59 109.01,-41.28 8,216.56 64.03,481.46 -151.55,592.78l7.38 -314.96c-150.22,116.66 -37.26,343.87 -0.47,367.32 76.36,14.01 3.2,8.27 135.79,-28.56l37.38 115.88 34.65 -127.98c6.55,-146.98 6.12,-312.23 -2.62,-459.29 -3.82,-64.69 -11.43,-129.04 -22.4,-192.83 -22.27,-129.54 -9.09,-98.84 -81.12,-167 13.35,222.37 11.36,53.77 -66.05,255.92z"/>
    <path class="fil15" d="M13921.96 13500.82c153.81,-70.59 219.94,-349.38 566.78,-424.25 414.23,-89.43 497.65,138.05 761.03,198.88 -452.93,-539.79 -1270.93,-161.58 -1327.81,225.37z"/>
    <path class="fil15" d="M8439.13 9806.2l85.02 239.57 7.89 -152.95c-43.16,-175.9 -60.25,-353.55 -194.24,-482.47 -170.82,-1.99 -521.92,292.72 -552.04,448.25 144.88,-44.95 125.64,-162.59 364.98,-308.95 6.4,-3.95 14.6,-9.06 21.03,-13.04l133.02 -68.59c99.69,87.17 112.77,204.26 134.34,338.18z"/>
    <path class="fil15" d="M9130.86 10880.46l15.84 -276.91 169.81 35.86c6.17,4.6 11.71,13.14 16.62,18.3 4.69,4.91 8.59,15.64 12.06,20.48 3.4,4.76 6.79,17.36 9.13,21.42 2.26,3.98 4.25,14.79 8.08,21.38 6.24,-7.33 41.51,-48.15 48.15,-49.63 152.8,-33.98 37.03,-8.89 89.98,27.35 -85.81,100.87 -238.29,154.91 -369.67,181.75zm-27.82 17.37c337.75,14.32 423.39,-5.23 434.32,-162.13 11.47,-164.93 -268.37,-167.43 -418.4,-145.54l-15.92 307.67z"/>
    <path class="fil15" d="M9067.57 10243.56l377.86 -1.56 27.24 102.93 -40.62 19.9 0 51.07c115.1,6.25 77.53,35.12 211.05,39.73 -135.75,-169.11 -62.12,33.63 -145.7,-262.41 -189.71,-9.28 -425.34,-45.77 -593.43,36.29 23.72,15.49 -0.04,17.4 63.99,25.52 22.9,2.93 74.72,-7.61 99.61,-11.47z"/>
    <path class="fil15" d="M1828.9 9014.62l-58.26 26.96c13,149.21 84.59,147.37 219.95,203.6 221.47,92.01 200.44,145 296.74,56.62l-445.4 -187.76 -13.03 -99.42z"/>
    <path class="fil15" d="M1907.48 8839.46c-82.76,144.06 -61.34,19.43 -78.58,175.16l115.53 -71.72c46.16,-130.56 89.94,-135.75 180.82,-229.16 37.06,-130.32 30.47,-44.75 -42.18,-76.01l-175.59 201.73z"/>
   </g>
   <g>
    <path class="fil16" d="M10946.53 10626.41c-56.93,-25.91 -36.68,178.75 -41.32,249.92l-6.29 199.46 -165.55 22.32 -24.94 -8.15 70.75 0 49.24 213.31c285.5,203.49 160.37,42.89 413.87,26.73 89.67,-5.7 252.73,39.68 308.13,-37.26l1.84 -50.06c-1.52,-4.61 -6.83,-13.82 -8.86,-19.36 -11.04,-30.31 -18.22,5.23 -42.02,-112.92 -195.18,-120.21 -427.14,-189.71 -333.61,-497.49 86.58,-285.15 464.28,-223.5 710.02,-206.8l-325.26 -76.28 5.11 -134.46c-7.53,-285.23 -87.4,-688.37 -126.85,-984.41 -39.64,-297.44 -187.8,-637.68 -210.31,-908.36 -21.15,-85.72 -38.04,-149.79 -66.76,-216.59 -28.37,-65.95 -62.43,-140.12 -76.99,-191.31 412.55,227.36 639.68,642.52 781.05,717.24l16.11 -113.31c-44.29,-51.74 -90.45,-77.68 -113.9,-104.72l-27.62 -37.03c-283.43,-417.39 -270.21,-249.49 -409.31,-415.36 -151.47,-180.62 -302.32,-194.35 -327.02,-287.45 -15.21,-57.44 162.59,-403.54 47.37,-736.56l-279.69 -390.47 -190.53 31.96c-25.67,178.08 -106.87,323.51 -117.33,501 -16.34,277.27 68.48,293.58 139.93,476.39 104.57,267.78 299.39,466.19 318.35,908.83 34.65,808.82 236.34,519.06 74.84,1655.76 -52.95,372.63 -13.7,384.3 -42.45,525.43z"/>
    <path class="fil16" d="M11260.12 12196.49l71.88 16.51c-235.13,143.82 -274.42,177.11 -231.89,447.55 38.08,242.07 25.2,401.7 175.97,597.77l204.23 -19.82c-29.07,-219.37 86.74,-209.46 236.3,-734.69 54.15,-190.14 87.16,-50.49 172.46,-301.19 40.73,-119.71 72.77,-252.22 118.69,-384.53l-64.14 -73.36c27.54,-71.56 -43.24,-59.85 29.03,-61.76l-61.07 -2.93c-34.57,108.12 12.45,80.11 -115.65,117.45l13.19 -76.71c-11.98,-84.13 46.94,-30.28 -27,-50.42 -106.13,72.58 -105.04,101.76 -239.81,107.73 -93.92,-78.85 -66.61,-35.35 -105.16,-133.64l-90.13 9.25 -336.38 -30.24c-80.3,113.51 -90.92,156.2 -63.29,322.46 3.31,20.01 25.91,114.44 31.29,129.46 36.25,100.82 24.58,61.14 66.41,123.85l215.07 -2.74z"/>
   </g>
   <g>
    <path class="fil17" d="M6080.91 13243.14c66.88,278.94 42.33,271.38 292.17,405.56 147.02,78.98 317.11,162.12 466.74,229.2 223.39,100.16 762.28,299 934.23,409.78l142.35 22.94c79.2,-1140.88 674.75,-1446.94 775.73,-1644.3l17.64 -220.73c35.66,-25.56 -50.84,-36.4 91.22,-17.79 -62.62,-128.1 -34.02,-94.47 -119.28,-199.04 -47.4,-58.13 -67.81,-85.49 -110.58,-148.42 -74.05,-108.95 -140.04,-228.97 -243.36,-302.4l-818.38 763.87c-95.09,85.18 -66.68,109.06 -192.52,171.92 -323.15,161.5 -739.41,541.62 -1235.96,529.41z"/>
    <path class="fil17" d="M5272.51 7542.2l136.06 133.44c4.64,5.27 10.58,13.27 15.38,18.38 59.3,63.45 106.48,80.58 177.69,151.2 337.24,334.55 777.06,573.15 1272.4,642.8 79.68,13.34 301.93,47.88 374.27,51.82 163.53,8.81 222.49,-45.31 396.36,-54.24 19.23,-314.26 135.04,-238.02 255.69,-550.21 151.16,-391.16 359.4,-452.77 104.96,-509.97 -52.36,-11.79 -1505.39,61.8 -2255.29,-106.76 -217.89,-48.93 -395.11,-222.84 -649.47,-158.61 -37.07,186.47 59.03,279.49 171.95,382.15z"/>
    <path class="fil17" d="M5634.65 13900.3c179.52,2.22 103.51,72.8 133.95,173.01 -121.23,-57.99 -36.48,-78.78 -67.93,-143.17l-162.63 67.9c5.38,5.03 14,11.12 17.36,13.77l34.69 27.78c179.06,143.83 161.42,170.16 225.06,227.76l58.37 39.64c412.98,242.54 548.76,251.36 1010.67,356.52l235.48 53.45 12.76 94.54 776.9 24.39c-0.62,-204.11 27.82,-195.8 -36.36,-399.55l65.78 -24.97 -194.39 -81.94c-278.09,-101.81 -570.73,-222.3 -842.57,-347.04 -250.31,-114.87 -549.58,-302.04 -783.07,-401.85l-484.07 319.76z"/>
    <path class="fil17" d="M8398.36 11710.36l464.01 671.47c257.33,-245.31 684.08,-218.54 1045.94,-234.73l-49.16 -501.47c-209.18,3.39 -217.92,82.91 -331.86,-44.64l-628.05 19.86 -70.78 -1.91c-46.23,40.73 49.13,53.88 -56.85,28.6 -7.41,-217.85 -26.61,-0.98 -58.72,-230.18 -18.92,-135.16 28.01,-105.66 -55.95,-213.39 -34.69,61.61 -102.82,166.77 -152.37,249.64 -157.37,263.03 -19.98,153.54 -106.21,256.75z"/>
    <path class="fil17" d="M4970.74 13715.23l-1.91 49.79 85.72 24.89c0,0 3.55,-122.09 202.98,16.35 73,50.69 14.63,68.75 170.12,89.24 75.27,-71.64 83.46,-198.14 251.21,-91.5 97.19,-102.12 304.15,-157.99 400.52,-277.43l-50.84 -220.73c-94.42,37.58 -50.02,-55.41 -77.18,123.69 -147.37,-289.83 -126.11,-45.1 -958.46,-233.6 -126.15,-66.77 -130.16,-52.56 -249.33,-100.01l-97.58 108.16c116.62,100.04 13.18,-1.76 116.39,151.67 1.79,2.69 7.41,9.28 9.17,11.86 200.28,294.71 316.79,250.38 199.19,347.62z"/>
   </g>
   <g>
    <path class="fil18" d="M4571.89 10386.37c144.8,94.66 44.44,614.35 69.06,798.17l271.69 51.46c-18.69,-246.05 -57.01,-417.26 79.91,-550.16l30.59 -86.82 82.25 -88.61c208.17,-144.57 424.14,-165.91 671.6,-120.22l145.58 6.99c-16.94,-390.97 72.46,-1040.76 160.72,-1416.63 -64.85,-50.56 -925.57,-243.67 -1272.92,-373.17 -127.24,-47.41 -298.61,-141.76 -396.55,-173.6 -7.41,6.48 -21.57,1.76 -25.71,14.4 -44.33,135.16 -34.53,-142.34 -180.85,300.13l-206.34 748.07c-3.04,5.86 -8.42,13.54 -11.82,19.36 -33.63,57.75 -74.56,-109.8 -64.07,453.28 4.18,226.19 99.35,371.73 268.1,362.45 111.48,-6.13 225.88,-14.28 345.55,-15.41l33.21 70.31z"/>
    <path class="fil18" d="M5977.23 10495c282.03,107.88 297.87,670.15 148.24,876.75 42.41,103.09 225.17,85.34 339.97,95.52 190.92,16.97 256.31,52.83 448.21,13.7l216.16 -589.54c-31.52,-199.86 -21.07,-79.87 -182.61,-198.61 -44.91,-315.04 296.51,-460.19 347.39,-725.09 30.9,-161.03 159.39,-770.39 162.28,-893.84l-1309.05 -101.49c-75.54,452.7 -194.27,1070.72 -170.59,1522.6z"/>
    <path class="fil18" d="M4444.45 12966.65c122.09,41.75 96.93,52.68 176.21,91.77 49.17,24.27 56.54,15.18 115.69,32.7 62.04,18.42 228.85,80.15 256.55,104.81 832.35,188.5 811.09,-56.23 958.46,233.6 27.16,-179.1 -17.24,-86.11 77.18,-123.69 -58.68,-245.19 -102.19,-547.63 -119.43,-797.86 -14.21,-206.64 7.88,-749.9 -51.7,-887.99l-28.57 164.58c-109.87,-99.38 -55.21,35.51 -140.89,-145.89 -309.07,9.99 -362.33,-71.33 -552.82,-86.54 -63.8,-53.85 -79.84,-70.86 -129.47,-104.65l-253.89 -46.12c-17.91,79.01 -26.58,80.84 -38.16,145.81 -6.6,36.8 4.37,33.09 -9.88,95.87l-547.08 -10.93c-18.38,70.24 -38.98,117.14 -60.17,179.96 -144.88,429.21 359.83,737.3 347.97,1154.57z"/>
    <path class="fil18" d="M5938.68 11684.29c35.51,537.84 19.2,1025.42 142.23,1558.85 496.55,12.21 912.81,-367.91 1235.96,-529.41 125.84,-62.86 97.43,-86.74 192.52,-171.92l818.38 -763.87c-63.13,-227.6 -177.3,-50.41 -357.49,-171.76l-138.13 24.74c-240.9,4.79 -492.96,-55.18 -728.21,-6.21l-241.8 -37.46 -844.6 -90.75 -2.03 3.9c48.89,46.43 122.21,-74.72 51.12,114.44 -27.82,73.94 -33.83,51.74 -127.95,69.45z"/>
    <path class="fil18" d="M4699.75 7414.53c-17.24,149.17 -167.89,365.96 -231.3,524.34 4.33,129.89 23.45,208.98 -15.26,280.5l-36.95 82.92c-3.12,5.38 -30.35,36.79 -38.47,44.21 200.28,83.77 456.56,216.98 676.94,276.84 919.52,249.64 1379.55,374.34 2423,376.37 78.97,-97 136.09,-279.72 147.76,-406.46 -153.69,-89.97 -528.43,-47.13 -751.43,-105.23 -495.34,-69.65 -935.16,-308.25 -1272.4,-642.8 -71.21,-70.62 -118.39,-87.75 -177.69,-151.2 -4.8,-5.11 -10.74,-13.11 -15.38,-18.38l-136.06 -133.44c-127.39,-97.08 -208.63,-334.08 -343.99,-425.93 -81,84.9 -116,244.57 -228.77,298.26z"/>
    <path class="fil18" d="M5308.68 11318.18l501.59 39.45c123.3,-278.36 193.5,-805.12 -279.69,-766.69 -375.87,30.56 -397.4,563.44 -221.9,727.24z"/>
    <path class="fil18" d="M3786.79 11072.94l42.1 190.26 90.45 -4.45 151.62 -447.93c-0.15,-184.64 -168.25,-581.46 -261.66,-749.17 -20.44,26.57 -13.69,9.76 -35.66,72.03 -85.02,241.33 -42.84,719.9 13.15,939.26z"/>
    <path class="fil18" d="M8398.36 11710.36c86.23,-103.21 -51.16,6.28 106.21,-256.75 49.55,-82.87 117.68,-188.03 152.37,-249.64 83.96,107.73 37.03,78.23 55.95,213.39 32.11,229.2 51.31,12.33 58.72,230.18 105.98,25.28 10.62,12.13 56.85,-28.6l0.28 -536.51c-58.61,-1.99 -192.56,-1.45 -251.68,16.66 -109.4,33.55 -75.58,22.43 -117.13,144.68 -47.41,139.45 -111.44,275.71 -135.67,422.85l74.1 43.74z"/>
   </g>
   <g>
    <path class="fil19" d="M4749.42 5214.84c246.33,-180.39 426.75,-2.07 588.02,29.34 221.59,43.19 256.35,-163.96 612.32,39.88 -155.41,88.22 -543.72,428.97 -953.81,126.73 -138.33,-101.99 -159.83,-91.62 -246.53,-195.95zm1866.67 -183.74l-24.93 -16.23c-195.1,-36.92 -130.83,-98.45 -268.45,-233.57 -90.21,-88.61 -353.36,-361.51 -554.03,-236.03 -437.91,273.88 -503.15,38.91 -683.77,-46.59 -219.91,-104.06 -387.15,-97.19 -631.09,96.54 -87.56,69.53 -130.76,23.6 -366.04,265.29 -146.75,150.81 -67.15,16.39 -211.91,83.11 -2.26,200.28 -0.94,-3.59 69.41,297.67 36.1,154.6 17.33,-11.2 101.14,223.74 40.74,114.21 110.74,285.73 195.56,372.75 5.43,5.57 14.4,10.34 19.63,15.88 50.02,52.91 88.92,186.58 296.43,299.66 35.62,19.43 64.92,33.95 102.5,58.57 170.28,111.63 292.68,155.18 487.89,182.37 631.56,87.91 658.33,-122.36 807.73,-186.59l114.84 -54.54c398.77,-252.96 483.6,-752.6 576.19,-848.82l38.78 -28.72c-54.39,-73.2 -158.84,-169.07 -69.88,-244.49z"/>
    <path class="fil19" d="M7731.6 4258.41c-102.81,-38.79 -47.83,16.85 -88.57,-88.81l-101.37 -228.07c-117.53,97.59 -181.75,390.78 -154.71,537.88 146.83,171.25 771.64,280.74 952.06,137.11 84.05,-66.88 164.85,-284.17 202.59,-389.09 97.47,-271.19 -11.36,-320.58 -15.49,-496.01l-8.9 10.84 -130.44 2.5c-3.2,130.87 -92.71,370.49 -179.96,473.34l-39.33 40.31c-81,85.33 -324.32,36.01 -435.88,0z"/>
   </g>
   <g>
    <path class="fil20" d="M6057.07 6515.18c-203.18,-5.15 -389.57,21.31 -593.36,40.43 -250.82,23.56 -406.5,-54.2 -645.03,-39.3l24.23 158.11c131.93,150.96 745.58,386.36 955.73,442.9 932.36,250.74 2808.39,309.7 3647.92,-305.63 594.18,-435.57 919.64,-1005.01 1129.76,-1740.36 105.31,-368.58 129.85,-867.78 79.36,-1283.18 -57.04,-469.2 -170.24,-691.38 -348.05,-1112.04l-35.82 22.4c-463.43,233.64 -469.12,951.24 -558.55,1452.09 -59.12,331.03 -392.96,1209.51 -561.68,1409.4 -780.85,925.14 -1915.75,1037.12 -3094.51,955.18z"/>
    <path class="fil20" d="M8476.01 13071.81c1106.46,-620.79 2490.11,-693.1 2092.31,1197.02 -457.07,2171.99 -1135.96,1549.71 -2150.41,792.43 -22.01,158.46 3.39,67.78 -47.41,89.9 47.06,202.94 139.06,443.92 193.73,669.22 51.31,211.6 105.15,527.34 118.07,718.8 25.24,374.62 3.08,408.26 435.37,369.05 305.4,-27.67 539.95,-172.7 642.57,29.18 288.46,7.34 389.29,494.41 756.88,30.63 264.59,-333.84 316.68,-95.09 899,-96.61 20.25,-217.18 -44.68,-601.32 -57.05,-842.34 -16.5,-322.18 -27.97,-540.96 -6,-865.52 46.16,-682.44 -41.17,-1042.78 -116.32,-1686.63 -50.68,-83.27 -137.66,-302.24 -189.01,-406.73 -57.51,-117.02 -201.18,-291.71 -222.95,-362.88 -78.94,-13.38 -431.43,-267.47 -568.27,-332.71 -221.55,-105.67 -537.88,-106.53 -776.48,-66.49 -341.45,57.24 -877.65,464.79 -1004.03,763.68z"/>
    <path class="fil20" d="M8640.31 7318.78l-74.13 94.42 -13.78 268.61 1246.15 -176.72 302.59 264.04 -1569.1 2123.69 -7.89 152.95 -85.02 -239.57 -1074.11 539.9c-109.68,17.68 -29.65,-6.4 -57.63,57.79l343.44 -19.98c104.57,148.23 187.41,523.59 294.4,578.38 142.11,20.6 290.65,81.7 427.84,89.19 126.93,6.91 284.3,-37.88 433.23,-42.99 82.72,-320.9 -72.57,-514.23 92.94,-601.91l532.81 9.32 0 -51.07 -624.15 2.18c109.72,-135.08 114.33,-15.72 259.67,-123.45 -24.89,3.86 -76.71,14.4 -99.61,11.47 -64.03,-8.12 -40.27,-10.03 -63.99,-25.52 168.09,-82.06 403.72,-45.57 593.43,-36.29 83.58,296.04 9.95,93.3 145.7,262.41l95.64 36.83c302.82,-134.3 781.94,-836.41 900.83,-1133.54 51.93,-129.78 113.58,-434.2 187.29,-510.13 -50.18,-326.86 47.83,-454.1 -110.97,-833.68 -108.12,-258.34 -203.6,-352.3 -323.47,-574.01 -341.61,-190.1 -238.87,-371.07 -831.3,-372.24 -496.83,-0.97 -504.86,63.95 -920.81,249.92z"/>
    <path class="fil20" d="M2802.11 14717.62l-3.09 211.02c-17.94,46.16 -473.96,280.86 -568.19,561.91l438.69 40.54c48.97,-108.16 89.9,-143.63 191.54,-187.25 -74.64,122.13 -108.66,210.94 -224.94,290.5 -6.09,94.11 -55.8,179.83 -131.49,269.11 22.28,77.88 628.44,-55.56 707.61,-67.04l99.38 -189.9 -61.89 335.25c145.23,60.71 5,70.47 219.37,128.1 118.77,-25.95 223.03,-65.32 335.87,-109.14 371.23,-144.17 568.04,-215.81 993.11,-321.08 415.9,-103.01 304.27,-80.85 445.44,-447.43 81.12,-210.67 217.06,-386.17 334.12,-571.08l-44.36 -353.95c-116.44,-185.73 -525.39,-304.97 -564.45,-542.16 -97.63,-19.16 -65.9,-8.12 -156.9,-108.87 -46.78,-51.81 -77.92,-93.64 -118.89,-144.64 -77.41,-96.38 -132.82,-176.33 -202.97,-272.9l-122.64 -3.63 -116.51 -143.59c-120.41,95.33 -183.43,343.37 -264.32,486.1 -82.91,146.28 -196.26,319.84 -277.73,471.08 -334.9,621.65 -462.18,546.42 -906.76,669.05z"/>
    <path class="fil20" d="M1828.9 9014.62l13.03 99.42 445.4 187.76c-96.3,88.38 -75.27,35.39 -296.74,-56.62 -135.36,-56.23 -206.95,-54.39 -219.95,-203.6l58.26 -26.96zm115.53 -71.72l-115.53 71.72c17.24,-155.73 -4.18,-31.1 78.58,-175.16 -358.04,-1.21 -580.95,5.11 -940.28,-29.57 111.52,200.71 194.51,118.65 339.43,364.39 -123.26,124.4 -488.25,461.44 -510.17,632.97 386.56,207.46 920.76,216.48 1363.63,201.57 239.97,-8.08 1406.98,-26.88 1550.81,-74.21 59.46,-138.05 106.6,-504.52 161.46,-690.76 68.94,-233.91 139.06,-426.94 217.18,-649.82 100.55,-287.02 541.81,-1169.71 542.01,-1170.25 -224.05,62.97 -298.3,113.35 -469.95,187.68 -1282.9,555.55 -940,474.31 -1950.16,1118.67 -79.17,50.49 -79.4,40.97 -155.14,110.97 -40.39,37.3 -87.52,104.18 -111.87,101.8z"/>
    <path class="fil20" d="M13808.29 13967.52c-116.74,1019.73 1105.1,1562.75 1971.4,994.48 746.31,-489.57 1021.74,-1541.44 750.68,-2369.42l-2722.08 1374.94z"/>
    <path class="fil20" d="M11424.9 14626.79l-5.5 688.88c672.72,49.43 1224.76,72.85 1891.67,215.15 477.17,101.84 1379.68,157.05 1727.96,-258.39 -763.88,-18.57 -1260.63,-519.1 -1306.47,-1268.31l-2307.66 622.67z"/>
    <path class="fil20" d="M2125.25 8713.74l57.7 -106.32 -99.88 30.31c72.65,31.26 79.24,-54.31 42.18,76.01z"/>
   </g>
   <g>
    <path class="fil21" d="M7926.78 4727.02c-203.37,11.01 -563.98,-90.75 -710.73,-225.29l416.8 -1830.18c60.36,-103.56 78.81,-129.94 189.71,-187.45l711.43 -96.07c388.47,286.44 405.64,1075.17 396.55,1533.92 -4.18,210.43 1.99,649.54 -197.79,756.57 -128.76,69.03 -750.02,146.32 -805.97,48.5zm-3294.37 -2596.94c160.79,217.1 39.13,210.78 35.27,217.88 -218.66,-246.99 -40.35,-211.25 -35.27,-217.88zm2682.7 337.75c5.58,-133.33 268.57,-385.51 370.14,-369.36 3.35,73.24 -249.61,351.72 -370.14,369.36zm-3029.89 -87.01l-10.66 23.76c72.03,68.16 58.85,37.46 81.12,167 10.97,63.79 18.58,128.14 22.4,192.83 8.74,147.06 9.17,312.31 2.62,459.29l44.01 -127c0.08,-0.47 1.17,-91.74 1.4,-102.23 41.33,216.59 48.7,546.53 27.79,824 -75,37.42 -85.89,-74.65 -131.07,113.27 -31.49,131.03 32.62,110.74 -66.53,238.29l-477.04 94.42c-125.53,116.09 7.06,101.69 -161.5,120.96 -248.59,306.22 -277.15,637.03 42.72,923.89 8.71,-0.86 82.8,-8.5 83.66,-8.74 69.73,-17.56 36.8,-9.4 68.36,-26.26 -12.02,-331.35 -222.52,-6.71 -259.63,-458.43 19.82,59.7 12.53,11.51 65.36,46.32 12.99,-98.8 -36.02,-33.13 30.7,-83.51 60.64,38.05 322.22,115.46 331.7,24.12 25.17,-127.71 11.55,-80.65 137.47,-180.85 166.88,-132.75 377.74,-284.73 586.14,-322.65 187.92,-34.22 356.17,5.85 519.42,95.01 262.83,143.47 196.77,134.97 430.65,16.23 109.14,-55.41 262.8,-81.47 377.04,-28.83 6.79,3.12 14.4,8.89 20.76,12.33l253.7 133.67c323.9,240.01 400.26,626.69 799.73,665.55 -113.39,8.47 -60.01,4.45 -98.32,92.36l1593.69 162.67c206.25,12.33 335.21,-60.13 523.86,-68.64 -228.96,218.51 -778.81,102.35 -1085.19,69.22 -221.36,-23.91 -1048.83,-82.99 -1188.21,-138.47l-78.38 31.41 -304.16 637.21c-60.79,88.38 -114.87,124.08 -208.24,133.84 -102.74,49.51 -139.69,118.11 -242.19,180.89 -84.48,51.74 -177.46,86.12 -261.62,133.91 60.44,71.17 200.09,81.32 300.29,87.52 1178.76,81.94 2313.66,-30.04 3094.51,-955.18 168.72,-199.89 502.56,-1078.37 561.68,-1409.4 89.43,-500.85 95.12,-1218.45 558.55,-1452.09 -61.1,-203.02 -335.56,-535.26 -487.73,-686.54 -2206.29,-2192.9 -5356.56,-498.04 -5498.86,368.85z"/>
    <path class="fil21" d="M13921.96 13500.82c56.88,-386.95 874.88,-765.16 1327.81,-225.37 -263.38,-60.83 -346.8,-288.31 -761.03,-198.88 -346.84,74.87 -412.97,353.66 -566.78,424.25zm1188.39 -1895.46l-170.7 10.53 -52.91 -5.81c-0.67,0.62 -115.46,167.08 -136.88,-22.2 -1.17,-10.5 -0.55,-15.88 -3.08,-23.34 -79.76,19.71 -66.14,-45.77 -65.71,34.18 -141.02,33.13 -272.28,64.19 -349.61,-68.79 -72.77,-46.08 -33.21,69.81 -70.47,-103.36l-25.13 -35.62c-121.27,-31.41 -150.03,-7.49 -296.62,42.84 -3.86,18.38 -18.96,113.43 -19.7,115.61 -29.5,89.32 16.34,4.06 -44.95,68.76l-224.75 -6.83c-209.89,-21.23 -501.4,301.58 -652.36,437.17 -186.43,167.43 -373.68,346.8 -518.68,571.97 -303.53,471.51 -525.78,882.57 -1111.8,1024.91l57.9 981.41 2307.66 -622.67c8.35,-160.87 52.05,-428.54 189.4,-503.3 -16.35,186.55 -110.27,195.87 -113.67,466.7l2722.08 -1374.94c-34.61,-196.15 -133.17,-385.67 -252.57,-554.27 -137.31,-193.88 -257.68,-261.39 -377.43,-432.41l-164.31 8.59 -71.91 -100.36c-74.49,-86.82 -97.08,-92.9 -215.66,-133.76 -102.58,-35.35 -177.38,-55.68 -287.14,-73.16 -1.91,115.73 37.19,262.02 -51,298.15z"/>
    <path class="fil21" d="M8476.01 13071.81c-242.31,95.98 -550.41,987.96 -456.8,1288.71 160.37,97 181.56,84.95 260.65,281.6 57.12,142.07 82.87,270.01 164.31,374.94l-26.26 44.2c1014.45,757.28 1693.34,1379.56 2150.41,-792.43 397.8,-1890.12 -985.85,-1817.81 -2092.31,-1197.02z"/>
    <path class="fil21" d="M8552.4 7681.81c-124.04,85.22 -228.02,141.17 -392.21,173.2 -210.28,302.01 -402.44,615.72 -524.81,973.96 -71.91,210.54 -124.55,366.46 -175.39,587.31 -45.42,197.4 -76.32,536.7 -129.78,691.73 20.45,96.1 4.53,71.05 8.74,136.52 3.32,52.6 -7.49,-6.9 7.26,52.09 26.73,107.11 -3.47,-62.35 18.81,49.48l1074.11 -539.9c-21.57,-133.92 -34.65,-251.01 -134.34,-338.18l-133.02 68.59c-6.43,3.98 -14.63,9.09 -21.03,13.04 -239.34,146.36 -220.1,264 -364.98,308.95 30.12,-155.53 381.22,-450.24 552.04,-448.25 133.99,128.92 151.08,306.57 194.24,482.47l1569.1 -2123.69 -302.59 -264.04 -1246.15 176.72z"/>
    <path class="fil21" d="M2802.11 14717.62c444.58,-122.63 571.86,-47.4 906.76,-669.05 81.47,-151.24 194.82,-324.8 277.73,-471.08 80.89,-142.73 143.91,-390.77 264.32,-486.1l12.68 -186.74 -328.38 -738.86 -313.25 15.49c-128.45,86.58 -249.33,335.64 -339.77,494.56 -91.54,160.76 -204.66,388.01 -266,562.66 -156.93,447 -198.41,1008.28 -214.09,1479.12z"/>
    <path class="fil21" d="M1085.47 8485.29c-2.85,63.79 -5.46,32.66 -15.02,61.41 -10.15,30.44 -16.2,48.39 -31.57,98.84 -28.29,93.02 -2.5,106.56 -93.61,110.54l21.93 53.81c359.33,34.68 582.24,28.36 940.28,29.57l175.59 -201.73 99.88 -30.31 -57.7 106.32c-90.88,93.41 -134.66,98.6 -180.82,229.16 24.35,2.38 71.48,-64.5 111.87,-101.8 75.74,-70 75.97,-60.48 155.14,-110.97 1010.16,-644.36 667.26,-563.12 1950.16,-1118.67 171.65,-74.33 245.9,-124.71 469.95,-187.68l68.2 -9.25c8.67,-170.59 192.95,-354.1 275.09,-512.36 -852.1,78.98 -2173.63,652.75 -2844.52,1218.33 -309.3,260.69 -638.78,263.69 -1044.85,364.79z"/>
   </g>
   <path class="fil22" d="M12222.8 11394.34l25.17 -117.09 -36.6 -40.39c-69.11,80.11 -113.2,105.28 11.43,157.48z"/>
  </g>
 </g>
</svg>
