<?xml version="1.0" encoding="UTF-8"?>
<!DOCTYPE svg PUBLIC "-//W3C//DTD SVG 1.1//EN" "http://www.w3.org/Graphics/SVG/1.1/DTD/svg11.dtd">
<!-- Creator: CorelDRAW 2017 -->
<svg xmlns="http://www.w3.org/2000/svg" xml:space="preserve" width="200mm" height="200mm" version="1.1" style="shape-rendering:geometricPrecision; text-rendering:geometricPrecision; image-rendering:optimizeQuality; fill-rule:evenodd; clip-rule:evenodd"
viewBox="0 0 20000 20000"
 xmlns:xlink="http://www.w3.org/1999/xlink">
 <defs>
  <style type="text/css">
   <![CDATA[
    .fil20 {fill:#161410}
    .fil14 {fill:#28293E}
    .fil3 {fill:#321D14}
    .fil16 {fill:#332C2B}
    .fil4 {fill:#463A35}
    .fil12 {fill:#4A4E73}
    .fil2 {fill:#4E2F16}
    .fil18 {fill:#4F4E4C}
    .fil10 {fill:#675939}
    .fil8 {fill:#68442A}
    .fil5 {fill:#775947}
    .fil19 {fill:#89654B}
    .fil9 {fill:#8A7566}
    .fil15 {fill:#9E765D}
    .fil6 {fill:#B09888}
    .fil11 {fill:#BAA466}
    .fil7 {fill:#E9D5C7}
    .fil13 {fill:#EBEBEB}
    .fil17 {fill:#F4C7AA}
    .fil1 {fill:url(#id0);fill-rule:nonzero;fill-opacity:0.501961}
    .fil0 {fill:url(#id1);fill-rule:nonzero;fill-opacity:0.501961}
   ]]>
  </style>
  <linearGradient id="id0" gradientUnits="userSpaceOnUse" x1="1008.62" y1="17136.6" x2="2310.62" y2="11806.51">
   <stop offset="0" style="stop-opacity:1; stop-color:#419EE1"/>
   <stop offset="1" style="stop-opacity:1; stop-color:#2A344B"/>
  </linearGradient>
  <linearGradient id="id1" gradientUnits="userSpaceOnUse" xlink:href="#id0" x1="18894.71" y1="10949.18" x2="17378.61" y2="17155.76">
  </linearGradient>
 </defs>
 <g id="Capa_x0020_1">
  <metadata id="CorelCorpID_0Corel-Layer"/>
  <path class="fil0" d="M18035.93 16979.93c0,285.65 -72.32,491.75 -216.95,620.11 -144.63,128.36 -379.65,193.44 -705.07,193.44 -325.42,0 -560.45,-65.08 -705.08,-193.44 -144.63,-128.36 -216.94,-334.46 -216.94,-620.11 0,-285.64 74.12,-493.55 220.56,-625.52 146.44,-131.98 379.65,-198.87 701.46,-198.87 321.8,0 555.02,66.89 701.46,198.87 146.43,131.97 220.56,339.88 220.56,625.52zm-1562.01 -1269.13l0 -864.17c0,-285.65 50.62,-538.75 151.86,-755.7 99.43,-216.94 285.64,-453.78 553.21,-712.3 103.05,-95.82 244.06,-224.18 423.05,-386.89 513.43,-462.82 770.15,-826.2 770.15,-1088.35 0,-225.98 -84.97,-395.92 -253.1,-511.63 -169.94,-113.89 -419.43,-171.75 -746.66,-171.75 -381.46,0 -735.81,77.74 -1061.22,233.22 -327.23,155.48 -656.27,406.77 -987.11,753.89l0 -1760.88c307.34,-345.31 645.42,-602.03 1014.22,-766.55 368.81,-166.32 782.82,-249.48 1242.02,-249.48 726.77,0 1317.95,206.1 1771.73,620.1 453.78,414.01 679.76,949.14 679.76,1605.4 0,791.86 -549.59,1630.72 -1646.98,2518.39 -88.59,70.5 -153.67,122.93 -197.06,159.09 -216.95,178.98 -354.35,339.88 -412.2,479.09 -57.85,139.21 -86.78,323.61 -86.78,553.21l0 345.31 -1214.89 0z"/>
  <path class="fil1" d="M1746.12 11957.51c0,-245.3 62.1,-422.3 186.31,-532.53 124.21,-110.23 326.04,-166.13 605.51,-166.13 279.46,0 481.29,55.9 605.5,166.13 124.21,110.23 186.31,287.23 186.31,532.53 0,245.31 -63.66,423.86 -189.42,537.19 -125.75,113.34 -326.04,170.79 -602.39,170.79 -276.36,0 -476.65,-57.45 -602.4,-170.79 -125.76,-113.33 -189.42,-291.88 -189.42,-537.19zm1341.43 1089.91l0 742.13c0,245.31 -43.47,462.67 -130.42,648.98 -85.39,186.31 -245.31,389.7 -475.09,611.72 -88.49,82.28 -209.6,192.52 -363.3,332.25 -440.93,397.46 -661.4,709.52 -661.4,934.65 0,194.07 72.97,340.01 217.36,439.38 145.94,97.81 360.2,147.49 641.22,147.49 327.59,0 631.9,-66.76 911.36,-200.28 281.02,-133.52 563.58,-349.33 847.71,-647.42l0 1512.21c-263.94,296.54 -554.27,517 -871,658.29 -316.73,142.83 -672.27,214.25 -1066.62,214.25 -624.14,0 -1131.83,-176.99 -1521.52,-532.53 -389.7,-355.54 -583.77,-815.1 -583.77,-1378.69 0,-680.03 471.98,-1400.42 1414.39,-2162.74 76.08,-60.55 131.97,-105.57 169.23,-136.62 186.31,-153.71 304.31,-291.89 353.99,-411.44 49.68,-119.55 74.53,-277.91 74.53,-475.09l0 -296.54 1043.33 0z"/>
  <path class="fil2" d="M16413.78 20000l149.45 0c36.54,-187.56 66.14,-202.44 228.66,-326.38l50.08 326.38 127.48 0 -60.71 -333.7 -42.12 -227.71 -157.33 24.48c-48.58,294.26 -192.36,185.35 -295.51,536.93z"/>
  <path class="fil2" d="M7414.1 14133.78l-448.43 77.8c-62.29,177.56 -83.7,43.3 14.56,183.23l707.25 -52.84 -273.38 -208.19z"/>
  <path class="fil3" d="M17046.3 20000l252.92 0c177.23,-326.07 337.4,-441.73 730,-426.77l-195.6 -168.04c293.54,-161.64 154.8,31.03 321.65,-207.63 76.31,-109.22 120.72,-203.46 47.25,-262.37 -285.9,97.56 -1045.59,769.54 -1156.22,1064.81z"/>
  <path class="fil3" d="M6444.1 6762.12c-162.99,327.17 -37.4,47.25 -48.98,380.87l137.09 76.38 422.91 -669.29 -19.37 -59.45c-101.19,-248.74 -132.91,-79.85 50,-310.71 -26.93,-119.44 8.26,-78.51 -139.22,-78.81l-402.43 661.01z"/>
  <path class="fil3" d="M4314.01 5267.25c-54.01,-175.59 -242.2,-361.81 -392.04,-428.98l-89.05 48.58c26.37,57.56 37.31,64.73 140.55,189.05l0.31 53.32c20.15,14.79 51.03,9.6 60.55,44.33l146.62 168.57c227.79,36.62 33.15,21.81 133.06,-74.87z"/>
  <path class="fil4" d="M14263.23 7032.67c188.89,-261.33 89.84,-447.63 -161.65,-920.31 -132.53,-248.98 -272.61,-574.65 -496.94,-733.85 -12.28,291.26 183.47,536.37 310.24,842.52 108.9,263.07 207.41,596.61 348.35,811.64z"/>
  <path class="fil4" d="M4808.27 8312.6c164.72,-67.72 200.7,-21.74 56.61,-210 -155.59,87.8 -184.1,-1.42 -56.61,210z"/>
  <path class="fil5" d="M4109.14 10346.53c456.13,-159.37 405.04,-26.85 606.76,-305.12 -289.52,-30.07 -67.39,-72.04 -542.35,95.52 194.72,-145.67 443.85,-124.81 562.52,-284.49l-130.08 -27.25c-360.17,-18.89 -1164.5,303.23 -1403.39,571.19 152.21,68.66 289.44,51.02 444.48,46.61 222.77,-6.29 177.25,-64.48 462.06,-96.46z"/>
  <path class="fil5" d="M6575.04 13515.9c195.19,-258.57 975.99,-244.41 1284.56,13.62 -211.89,-7.16 -1207.71,2.37 -1284.56,-13.62zm-107.64 77.88c119.13,87.63 1352.68,68.74 1587.24,54.01 -60.15,-617.64 -1600.54,-547.64 -1587.24,-54.01z"/>
  <path class="fil5" d="M3201.49 9356.62c-1.41,695.59 1921.26,166.45 2149.62,-237.02 -688.82,232.06 -1106.93,467.65 -1898.27,447.02 -184.73,-163.07 -57.4,-135.28 -251.35,-210z"/>
  <path class="fil6" d="M16908.74 19666.3l60.71 333.7 76.85 0c110.63,-295.27 870.32,-967.25 1156.22,-1064.81l117 -91.64 38.59 -89.45 62.75 -215.76 -150.23 -178.42c-323.47,281.26 -1203.93,957.72 -1361.89,1306.38z"/>
  <path class="fil6" d="M2161.73 18917.96c-210.32,394.64 -574.65,667.16 -679.44,1082.04l285.19 0 234.64 -426.93c194.96,-276.14 488.28,-560.95 584.65,-835.51 -239.61,34.56 -241.5,97.25 -425.04,180.4z"/>
  <path class="fil6" d="M6575.04 13515.9c76.85,15.99 1072.67,6.46 1284.56,13.62 -308.57,-258.03 -1089.37,-272.19 -1284.56,-13.62z"/>
  <path class="fil6" d="M16563.23 20000l278.74 0 -50.08 -326.38c-162.52,123.94 -192.12,138.82 -228.66,326.38z"/>
  <path class="fil7" d="M1926.53 9063.3c-125.58,-277.08 -177.79,-700.94 -372.52,-928.97 -70.15,785.35 215.99,2643.94 843.55,3141.11 15.51,-488.36 -388.42,-1614.18 -471.03,-2212.14z"/>
  <polygon class="fil7" points="6047.08,16439.05 5989.6,15434.1 5690.32,15272.99 5645.44,16477.16 "/>
  <path class="fil8" d="M8493.55 15795.19c-972.14,382.92 -1578.67,191.11 -2397.96,-350.23l-105.99 -10.86 57.48 1004.95 162.92 -30.31 -100.71 -843.86c916.22,680.79 928.04,394.34 1896.3,578.59 292.83,-133.07 587.4,-195.51 915.99,-357.02l2507.71 -1282.52c1497.16,-714.96 1324.96,-1375.66 2254.33,-2867.79l365.67 47.01c67.56,-106.22 -115.04,-62.92 174.33,-95.51 -507,-197.49 -567.48,-182.28 -794.65,249.84 -406.13,772.44 -789.37,1784.64 -1540.94,2244.96 -502.28,307.64 -2811.5,1578.66 -3394.48,1712.75z"/>
  <path class="fil8" d="M14312.36 10591.97c230.63,-176.53 111.11,-255.98 377.79,-367.09 168.59,-70.24 458.12,-62.36 645.99,-78.5l82.52 -162.28c166.61,-389.61 254.64,-1015.05 71.02,-1402.61 -273.61,-210.78 -339.45,-71.72 -584.56,-232.52 3.22,-197.71 235.51,-717.48 416.54,-816.68 128.97,197.86 45.5,317.23 285.67,428.42 131.89,-241.11 -341.03,-383.46 -35.21,-780.48 89.14,-115.74 512.76,-528.5 622.52,-508.26 66.31,320.32 -77.24,436.06 108.59,732.76 192.44,-158.11 121.89,-743.15 -1.57,-947.4 -463.47,-88.51 -2154.73,1925.9 -1350.4,2370 79.69,-101.97 -36.38,-146.62 101.97,-207.73 641.1,-283.07 318.35,1286.3 251.1,1352.44 -286.54,142.69 -407.63,31.19 -650.78,141.34 -247.88,112.29 -189.62,309.37 -419.37,307.72 -248.36,-845.11 552.83,-663.14 745.67,-926.22 -62.84,-48.66 -1078.27,-164.48 -901.11,1029.22l233.62 67.87z"/>
  <path class="fil8" d="M8395.75 10000.4c801.58,-126.39 689.29,-245.99 1600.39,-125.13 563.71,74.73 973.38,67.88 1549.13,217.57 194.25,-10.48 103.24,54.87 205.59,-68.98l-561.01 -156.15c-300.4,-39.75 -260.48,-292.98 -928.19,-248.26 -545.76,64.02 -1218.04,-143 -2295.28,209.84l110.95 33.78c16.92,2.68 37.48,7.56 56.29,9.29 21.97,2.05 90.63,0.48 113.54,-0.47 65.13,-2.67 201.89,-30.94 272.84,-53.78l-124.25 182.29z"/>
  <path class="fil8" d="M7846.14 3279.77l-471.41 655.5c-6.39,-32.52 -21.81,-25.67 27.39,-233.3l-122.27 41.73c-126.23,411.97 -483.63,603.38 -586.47,821.42 -122.27,259.06 -352.75,768.5 -349.2,1026.22l144.33 -96.7c239.45,-368.89 491.26,-820.46 743.38,-1192.91 233.7,-345.35 644.49,-833.22 818.26,-1157.55 -168.49,24.16 -124.16,-20.95 -204.01,135.59z"/>
  <path class="fil8" d="M11178.27 15790.23c228.74,146.39 830,117.65 1067.09,-5.67l-893.07 17.96c72.35,-267.4 55.11,-22.44 266.53,-321.81l613.22 -978.74c-162.36,31.89 -940.78,1082.52 -1053.77,1288.26z"/>
  <path class="fil8" d="M1284.73 20000l197.56 0c104.79,-414.88 469.12,-687.4 679.44,-1082.04 -208.89,71.81 -97.24,-21.11 -289.21,219.44 -61.81,77.41 -138.03,178.9 -201.26,272.68 -110.94,164.73 -310.48,421.02 -386.53,589.92z"/>
  <path class="fil9" d="M6955.12 6550.08l-422.91 669.29c523.38,82.21 492.91,860.86 610.54,1302.44 182.76,685.98 861.58,545.83 1457.25,545.27 552.12,-0.63 1329.77,-21.01 1869.68,-95.5 1260.8,-173.94 1018.35,-167.8 1273.31,-724.65 214.34,85.82 42.05,83.3 229.22,127.56 221.72,-513.78 474.87,-1162.28 349.13,-1707.48 0.87,-4.34 -72.52,-561.19 -87.79,-628.59 -309.54,391.98 -220.63,2505.59 -1155.76,2709.92 -672.52,147.02 -3002.75,238.67 -3645.9,81.89 -294.33,-419.52 -455.44,-1749.28 -476.77,-2280.15z"/>
  <path class="fil9" d="M1957.33 6224.1c758.11,276.38 343.15,2515.5 980.94,2823.23 53.46,-260.56 -469.68,-1726.07 -446.86,-2299.93l539.3 2533.94 170.78 75.28c-11.8,-378.03 -337.87,-1372.06 -427.39,-1860.72 -120.09,-654.87 -181.66,-1286.22 -280.24,-1939.68 -276.78,112.2 -427.79,400.4 -536.53,667.88z"/>
  <path class="fil10" d="M17708.11 17833.62l1118.42 24.8c-154.41,170.09 -270.78,184.65 -492.2,290.55 -237.17,-124.96 -435.67,-151.96 -626.22,-315.35zm-432.92 5.67l886.62 403.38c-144.02,195.92 -685.11,588.28 -885.11,766.22 -595.67,530.16 -252.37,417.81 -1101.26,216.3 -737.8,-175.04 -2097.56,-476.37 -2823.71,-499.92l-147.55 84.41 3505.11 653.39 157.33 -24.48 42.12 227.71c157.96,-348.66 1038.42,-1025.12 1361.89,-1306.38l150.23 178.42 39.37 -72.04c-34.96,-259.92 -13.46,-205.04 256.85,-350.79 132.77,-71.58 283.23,-125.99 389.85,-194.41l-62.6 -23.77 379.92 -158.59 -172.04 -63.47c-92.92,55.28 156.13,212.44 -410.72,-125.19 -494.01,-294.18 -2027.08,-997.41 -2633.15,-874.33 -342.9,69.69 -775.19,277.17 -953.61,540.63 698.5,222.67 1453.54,340.24 2193.69,614.25l-173.23 8.66z"/>
  <path class="fil10" d="M13823.78 17993.23c-102.68,222.36 -211.03,144.65 -343.55,442.04 1341.11,-318.5 2303.24,-637 3758.82,-567.56 -267.71,-155.42 -1427.64,-451.81 -1800.31,-511.01 -557.79,-88.51 -449.6,-16.62 -878.19,207.23 -311.03,162.45 -386.54,296.93 -736.77,429.3z"/>
  <path class="fil10" d="M12244.41 4951.49l-10.86 1086.93c15.27,67.4 88.66,624.25 87.79,628.59l90.07 -355.9c-222.82,-566.78 23.86,-615.92 -87.79,-1137.33l611.19 -80.86c71.33,-397.33 186.68,-817.65 72.59,-1161.19 -145.11,285.35 -160.87,598.82 -208.51,920.16 -8.41,-391.34 162.21,-808.97 39.93,-1227.64l-69.77 256.7c-16.3,-324.33 42.53,-172.84 -126.61,-356.39 91.74,256.7 23.15,1231.82 -9.29,1560.71l-246.22 -65.19c-36.22,-13 54.41,-8.67 -142.52,-68.59z"/>
  <path class="fil10" d="M5459.29 11162.92c326.15,-66.93 582.92,-162.69 847.48,-26.15 -10.78,14.81 -28.81,17.72 -34.56,42.83l-275.76 295.84 -537.16 -312.52zm-136.77 -136.78c72.44,-398.11 315.04,-476.46 413.15,-798.18 -191.34,124.48 -485.67,551.09 -510,833.7 169.45,273.38 558.97,476.68 878.74,525.82 194.96,-183.47 281.26,-251.03 336.3,-514.33 -351.11,-257.33 -733.46,-91.03 -1118.19,-47.01z"/>
  <path class="fil10" d="M6395.12 7142.99c11.58,-333.62 -114.01,-53.7 48.98,-380.87l-119.92 -581.97c-118.91,225.12 -173.7,776.47 70.94,962.84z"/>
  <path class="fil11" d="M13480.23 18435.27c-209.45,46.7 -138.11,138.66 -128.5,290 726.15,23.55 2085.91,324.88 2823.71,499.92 848.89,201.51 505.59,313.86 1101.26,-216.3 200,-177.94 741.09,-570.3 885.11,-766.22l-886.62 -403.38 -36.14 28.42c-1455.58,-69.44 -2417.71,249.06 -3758.82,567.56z"/>
  <path class="fil11" d="M12196.85 20000l4216.93 0c103.15,-351.58 246.93,-242.67 295.51,-536.93l-3505.11 -653.39c-296.85,92.92 -888.67,904.5 -1007.33,1190.32z"/>
  <path class="fil11" d="M-0 19854.56l0 145.44 1284.73 0c76.05,-168.9 275.59,-425.19 386.53,-589.92 63.23,-93.78 139.45,-195.27 201.26,-272.68 191.97,-240.55 80.32,-147.63 289.21,-219.44l30.94 -159.77c-420.23,136.14 -762.82,293.39 -1142.27,491.18 -326.3,170.15 -735.59,491.03 -1050.4,605.19z"/>
  <path class="fil11" d="M17708.11 17833.62c190.55,163.39 389.05,190.39 626.22,315.35 221.42,-105.9 337.79,-120.46 492.2,-290.55l-1118.42 -24.8z"/>
  <path class="fil12" d="M7485.44 19735.59l888.42 -1095.82c211.1,-281.11 725.11,-917.8 765.36,-1111.03 -134.58,-22.67 -775.04,452.84 -980.95,565.19 -763.15,416.55 -615.12,272.52 -1285.67,18.19 -87.72,377.56 -56.7,1360 126.85,1711.5 380.23,-23.07 113.47,-97 485.99,-88.03zm-1935.44 264.41l843.23 0c-6.15,-535.59 -164.96,-1067.71 -199.61,-1654.64 -24.02,-407.8 -84.02,-1421.66 -169.21,-1759.37l-397.25 17.63c-38.65,293.54 9.54,865.35 -190.39,992.2 19.76,-363.93 157.48,-817.08 18.04,-1159.2 -257.17,46.13 -639.54,395.27 -839.45,580.15 -180.4,166.85 -659.85,473.15 -785.28,615.04 -245.9,278.27 -12.05,108.34 -251.34,278.9 -304.73,217 -887.48,796.45 -988.11,1119.37 828.34,424.1 979.52,954.88 2419.69,784.17 154.64,-202.28 660.08,-1185.2 675.9,-1543.47 8.97,-202.67 -36.37,-467.48 44.81,-636.29l40.31 1891.02c-34.26,204.8 -119.53,187.16 -221.34,474.49z"/>
  <path class="fil12" d="M7485.44 19735.59c-187.02,209.77 -95.21,-17.63 -272.84,264.41l2953.15 0c94.57,-226.14 807.72,-428.66 1044.33,-591.58 -232.92,-114.87 -1716.46,-149.68 -2060.08,-126.38 -519.52,35.21 -1362.75,484.73 -1664.56,453.55z"/>
  <path class="fil12" d="M8576.77 19262.04c971.82,-47.31 922.28,-291.33 1434.96,-984.08 438.67,-592.6 823.08,-936.78 722.91,-1708.99 -443.86,345.52 -1790.63,2164.65 -2157.87,2693.07z"/>
  <path class="fil12" d="M18358.11 18754.1l-38.59 89.45c145.52,255.34 591.26,312.44 851.26,455.34 269.37,148.04 553,364.97 829.22,445.36l0 -1306.61c-855.99,-191.65 -915.36,-7.01 -1523.93,489.61 -244.34,-147.25 -103.71,-34.41 -117.96,-173.15z"/>
  <path class="fil12" d="M2165.12 19545.51c330.47,63.78 768.58,187.41 1071.58,-7.63 -262.84,-386.22 -849.62,-569.54 -1071.58,7.63z"/>
  <path class="fil13" d="M7896.77 7733.3c135.12,-212.35 102.6,-259.92 243.31,1.82 -256.61,174.4 -131.57,62.52 -243.31,-1.82zm-961.02 -1242.67l19.37 59.45c21.33,530.87 182.44,1860.63 476.77,2280.15 643.15,156.78 2973.38,65.13 3645.9,-81.89 935.13,-204.33 846.22,-2317.94 1155.76,-2709.92l10.86 -1086.93c-73.93,-375.74 -936.14,-791.97 -1310.86,-844.72 -701.43,-98.74 -1087.1,168.19 -1650.8,507.24 -1716.68,1032.76 -1579.6,1311.03 -2347,1876.62z"/>
  <path class="fil13" d="M4864.88 8102.6c144.09,188.26 108.11,142.28 -56.61,210 -127.49,-211.42 -98.98,-122.2 56.61,-210zm-2371.02 -2546.38c98.58,653.46 160.15,1284.81 280.24,1939.68 89.52,488.66 415.59,1482.69 427.39,1860.72 193.95,74.72 66.62,46.93 251.35,210 791.34,20.63 1209.45,-214.96 1898.27,-447.02 101.56,-533.7 82.12,-1168.19 41.56,-1722.75 -32.19,-440.4 -405.97,-738.43 -689.29,-1033.62 -343.78,-358.19 -1797.63,-1530 -2209.52,-807.01z"/>
  <path class="fil14" d="M17299.22 20000l2700.78 0 0 -255.75c-276.22,-80.39 -559.85,-297.32 -829.22,-445.36 -260,-142.9 -705.74,-200 -851.26,-455.34l-117 91.64c73.47,58.91 29.06,153.15 -47.25,262.37 -166.85,238.66 -28.11,45.99 -321.65,207.63l195.6 168.04c-392.6,-14.96 -552.77,100.7 -730,426.77z"/>
  <path class="fil15" d="M15418.66 9984.1l448.04 -51.98c-48.67,674.33 -1325.36,1025.13 -1902.21,1170 27.63,-294.87 171.02,-345.98 347.87,-510.15l-233.62 -67.87c-177.16,-1193.7 838.27,-1077.88 901.11,-1029.22 -192.84,263.08 -994.03,81.11 -745.67,926.22 229.75,1.65 171.49,-195.43 419.37,-307.72 243.15,-110.15 364.24,1.35 650.78,-141.34 67.25,-66.14 390,-1635.51 -251.1,-1352.44 -138.35,61.11 -22.28,105.76 -101.97,207.73 -804.33,-444.1 886.93,-2458.51 1350.4,-2370 123.46,204.25 194.01,789.29 1.57,947.4 -185.83,-296.7 -42.28,-412.44 -108.59,-732.76 -109.76,-20.24 -533.38,392.52 -622.52,508.26 -305.82,397.02 167.1,539.37 35.21,780.48 -240.17,-111.19 -156.7,-230.56 -285.67,-428.42 -181.03,99.2 -413.32,618.97 -416.54,816.68 245.11,160.8 310.95,21.74 584.56,232.52 183.62,387.56 95.59,1013 -71.02,1402.61zm-1317.08 -3871.74c251.49,472.68 350.54,658.98 161.65,920.31 -140.94,-215.03 -239.45,-548.57 -348.35,-811.64 -126.77,-306.15 -322.52,-551.26 -310.24,-842.52 224.33,159.2 364.41,484.87 496.94,733.85zm-1842.68 -2915.91c203.14,235.44 248.89,60.25 383.54,328.11 169.14,183.55 110.31,32.06 126.61,356.39l69.77 -256.7c122.28,418.67 -48.34,836.3 -39.93,1227.64 47.64,-321.34 63.4,-634.81 208.51,-920.16 114.09,343.54 -1.26,763.86 -72.59,1161.19l-611.19 80.86c111.65,521.41 -135.03,570.55 87.79,1137.33l287.56 -109.53c27.73,576.61 -197.48,1731.72 -287,2353.93 -216.07,1500.79 -396.38,662.91 -1222.12,1312.2l561.01 156.15c-102.35,123.85 -11.34,58.5 -205.59,68.98l423.7 143.3c59.54,843 -439.2,2870.08 -830.63,3635.52 -457.56,894.48 -2276.85,1596.22 -2644.79,1923.53 582.98,-134.09 2892.2,-1405.11 3394.48,-1712.75 751.57,-460.32 1134.81,-1472.52 1540.94,-2244.96 227.17,-432.12 287.65,-447.33 794.65,-249.84 551.74,-121.19 1045.52,-438.74 1524.8,-710.56 586.39,-332.44 690.63,-631.41 943.62,-1253.7 415.04,-1021.26 837.88,-2655.35 387.81,-3698.34 -526.86,-0.63 -818.44,92.12 -1226.78,395.44 -146.85,109.04 -297.25,253.3 -443.55,357.86 -212.82,152.21 -403.77,205.04 -504.79,-74.33l-306.62 418.11c-177.16,-162.44 -243.07,-366.93 -240.08,-615.98 -164.56,-133.07 -810.78,-1304.56 -841.5,-1494.33l845.2 -91.89c112.76,-389.77 -77.09,-2147.95 -137.8,-2655.74 -155.59,-1300.63 -535.9,-1710.32 -626.68,-2164.18l-728.11 0c-79.46,538.27 -106.93,1250 -140.63,1806.38 -23.7,390.63 11.49,1403.07 -469.61,1390.07z"/>
  <path class="fil15" d="M8005.59 16143.47c341.97,32.12 1208.9,-105.28 1613.31,-140.24 405.66,-35.2 1266.22,-0.94 1559.37,-213 112.99,-205.74 891.41,-1256.37 1053.77,-1288.26l-613.22 978.74c-211.42,299.37 -194.18,54.41 -266.53,321.81l893.07 -17.96 2115.12 57.48 28.57 -656.77 -51.72 -2712.52 -24.41 -777 -263.63 -12.6 -365.67 -47.01c-929.37,1492.13 -757.17,2152.83 -2254.33,2867.79l-2507.71 1282.52c-328.59,161.51 -623.16,223.95 -915.99,357.02z"/>
  <path class="fil15" d="M8395.75 10000.4l124.25 -182.29c-70.95,22.84 -207.71,51.11 -272.84,53.78 -22.91,0.95 -91.57,2.52 -113.54,0.47 -18.81,-1.73 -39.37,-6.61 -56.29,-9.29l-110.95 -33.78c1077.24,-352.84 1749.52,-145.82 2295.28,-209.84 -316.07,-251.81 -152.14,-220.4 -659.3,-211.42 -550.15,9.68 -1028.03,-1.89 -1559.13,150.24 -378.35,108.43 -278.04,157.63 -550.16,314.57 244.49,297.08 593.46,346.76 902.68,127.56z"/>
  <path class="fil15" d="M6210 16408.74l151.49 -51.97 55.21 -348.5c61.89,216.61 -17.18,138.18 105.74,348.03l1483.15 -212.83c-968.26,-184.25 -980.08,102.2 -1896.3,-578.59l100.71 843.86z"/>
  <path class="fil15" d="M6488.51 5494.64l-144.33 96.7c-3.55,-257.72 226.93,-767.16 349.2,-1026.22 102.84,-218.04 460.24,-409.45 586.47,-821.42 -346.15,206.93 -543.08,490.31 -801.74,800 -233.47,279.45 -417.33,950.63 -184.73,1272.37l195.13 -321.43z"/>
  <path class="fil15" d="M1957.33 6224.1c-167.33,-160.8 -132.37,-335.91 -123.71,-624.1 6.86,-228.66 33.78,-448.27 35.98,-667.96 -528.49,247.41 -251.01,1089.22 -273.93,1563.15 160.78,20.08 -31.11,131.34 230.23,-82.9 164.33,-134.65 62.06,-15.91 131.43,-188.19z"/>
  <path class="fil15" d="M6965.67 14211.58l-172.75 111.49c111.33,449.85 1029.29,654.64 1230,8.74 -223.4,-142.84 -342.14,-150.4 -608.82,-198.03l273.38 208.19 -707.25 52.84c-98.26,-139.93 -76.85,-5.67 -14.56,-183.23z"/>
  <path class="fil15" d="M4109.14 10346.53l640.46 205.91 604.26 -613.54c-179.93,-94.89 -125.27,-7.8 -366.22,-49.61l-88.12 -24.25c-79.6,-30 -159.04,-223.38 -293.53,-39.85l130.08 27.25c-118.67,159.68 -367.8,138.82 -562.52,284.49 474.96,-167.56 252.83,-125.59 542.35,-95.52 -201.72,278.27 -150.63,145.75 -606.76,305.12z"/>
  <path class="fil15" d="M6306.77 11136.77c-264.56,-136.54 -521.33,-40.78 -847.48,26.15l537.16 312.52 275.76 -295.84c5.75,-25.11 23.78,-28.02 34.56,-42.83z"/>
  <path class="fil15" d="M7279.85 3743.7l122.27 -41.73c-49.2,207.63 -33.78,200.78 -27.39,233.3l471.41 -655.5c-239.29,38.89 -461.1,249.2 -566.29,463.93z"/>
  <path class="fil16" d="M15167.33 6417.96c635.66,-472.37 1063.15,-1315.75 1912.52,-492.92 450.07,1042.99 27.23,2677.08 -387.81,3698.34 -252.99,622.29 -357.23,921.26 -943.62,1253.7 -479.28,271.82 -973.06,589.37 -1524.8,710.56 -289.37,32.59 -106.77,-10.71 -174.33,95.51l263.63 12.6 24.41 777c71.33,-63.3 49.52,-28.57 140.94,-73.93 75.11,-130.55 752.68,-526.46 894.17,-566.7l796.22 -467.08 1219.05 -548.11c209.93,-125.83 758.51,-385.35 963.15,-350.63 -100.74,-409.46 -1194.51,-213.25 -1585.5,-228.19 360.61,-1691.29 3234.64,-212.5 3234.64,-4859.37l0 -868.34 0 -4510.4 -6402.75 0c90.78,453.86 471.09,863.55 626.68,2164.18 60.71,507.79 250.56,2265.97 137.8,2655.74l-845.2 91.89c30.72,189.77 676.94,1361.26 841.5,1494.33 -2.99,249.05 62.92,453.54 240.08,615.98l306.62 -418.11 262.6 -186.05z"/>
  <path class="fil16" d="M6846.53 6101.11c147.48,0.3 112.29,-40.63 139.22,78.81 -182.91,230.86 -151.19,61.97 -50,310.71 767.4,-565.59 630.32,-843.86 2347,-1876.62 563.7,-339.05 949.37,-605.98 1650.8,-507.24 374.72,52.75 1236.93,468.98 1310.86,844.72 196.93,59.92 106.3,55.59 142.52,68.59l246.22 65.19c32.44,-328.89 101.03,-1304.01 9.29,-1560.71 -134.65,-267.86 -180.4,-92.67 -383.54,-328.11 -582.76,-329.6 -990.48,-750.7 -1762.6,-559.44 -435.67,107.87 -1134.26,628.18 -1462.44,931.41 -1011.89,934.88 -1365.44,1418.35 -2187.33,2532.69z"/>
  <path class="fil16" d="M8233.62 0l-2831.41 0c1.09,754.25 91.34,3789.37 400.31,4290.08 154.88,-204.96 421.73,-1250 1041.81,-2306.15 205.75,-350.46 437.16,-697.23 665.67,-1011.57 201.49,-277.17 611.26,-701.18 723.62,-972.36zm-7105.66 5800.32c142.59,-344.25 294.08,-1192.92 396.92,-1608.03 774.72,-3127.56 1824.72,-3757.88 1973.71,-4192.29l-2509.85 0c-27.16,1087.08 -56.93,1883.15 61.89,2951.34 44.1,397 59.29,954.41 76.07,1381.96 15.59,398.19 37.23,1105.84 1.26,1467.02zm1037.16 13745.19c221.96,-577.17 808.74,-393.85 1071.58,-7.63 -303,195.04 -741.11,71.41 -1071.58,7.63zm5320.32 190.08c-372.52,-8.97 -105.76,64.96 -485.99,88.03 -183.55,-351.5 -214.57,-1333.94 -126.85,-1711.5 670.55,254.33 522.52,398.36 1285.67,-18.19 205.91,-112.35 846.37,-587.86 980.95,-565.19 -40.25,193.23 -554.26,829.92 -765.36,1111.03l-888.42 1095.82zm1091.33 -473.55c367.24,-528.42 1714.01,-2347.55 2157.87,-2693.07 100.17,772.21 -284.24,1116.39 -722.91,1708.99 -512.68,692.75 -463.14,936.77 -1434.96,984.08zm-6650.24 -10198.74c82.61,597.96 486.54,1723.78 471.03,2212.14 -627.56,-497.17 -913.7,-2355.76 -843.55,-3141.11 194.73,228.03 246.94,651.89 372.52,928.97zm-185.9 1259.62l398.59 865.59c860.55,753.15 -222.77,886.3 1851.81,2752.83 382.04,343.7 842.27,701.96 1260,1003.7 381.41,275.59 381.49,286.54 359.29,788.66 -19.92,450.16 -39.21,514.72 -409.69,750.79l-305.9 203.47 -254.81 134.01c-38.03,148.89 -181.65,226.22 -339.52,318.43l-1087.48 945.5c-233.87,327.48 -379.3,517.96 -784.73,561.66 -453.63,48.89 -537.24,92.21 -938.9,293.47l-192.13 53.53c-141.65,139.06 -1091.97,694.89 -1297.16,717.8l0 142.2c314.81,-114.16 724.1,-435.04 1050.4,-605.19 379.45,-197.79 722.04,-355.04 1142.27,-491.18l-30.94 159.77c183.54,-83.15 185.43,-145.84 425.04,-180.4 -96.37,274.56 -389.69,559.37 -584.65,835.51 172.06,100.23 65.44,-126.62 140.4,160.71 6.93,26.45 -15.12,218.26 -18.9,266.22l3426.38 0c101.81,-287.33 187.08,-269.69 221.34,-474.49l-40.31 -1891.02c-81.18,168.81 -35.84,433.62 -44.81,636.29 -15.82,358.27 -521.26,1341.19 -675.9,1543.47 -1440.17,170.71 -1591.35,-360.07 -2419.69,-784.17 100.63,-322.92 683.38,-902.37 988.11,-1119.37 239.29,-170.56 5.44,-0.63 251.34,-278.9 125.43,-141.89 604.88,-448.19 785.28,-615.04 199.91,-184.88 582.28,-534.02 839.45,-580.15 139.44,342.12 1.72,795.27 -18.04,1159.2 199.93,-126.85 151.74,-698.66 190.39,-992.2l397.25 -17.63c85.19,337.71 145.19,1351.57 169.21,1759.37 34.65,586.93 193.46,1119.05 199.61,1654.64l819.37 0c177.63,-282.04 85.82,-54.64 272.84,-264.41 301.81,31.18 1145.04,-418.34 1664.56,-453.55 343.62,-23.3 1827.16,11.51 2060.08,126.38 -236.61,162.92 -949.76,365.44 -1044.33,591.58l2031.1 0c118.66,-285.82 710.48,-1097.4 1007.33,-1190.32l147.55 -84.41c-9.61,-151.34 -80.95,-243.3 128.5,-290 132.52,-297.39 240.87,-219.68 343.55,-442.04 79.06,-571.74 269.21,-143.38 590.32,-652.13 110.71,-175.43 12.98,-18.89 318.5,-97.09 264.33,-67.63 292.84,-213.06 576.92,-415.98 240.16,-171.5 504.34,-201.89 631.51,-299.69 9.6,-176.37 25.67,-22.44 -52.06,-94.01l-58.89 -39.92c-424.41,-260.86 -278.35,-277.25 -536.15,-556.14 -82.59,-89.3 -232.12,-176.15 -351.01,-256.61l75.19 -138.43 0 -23.31 -629.06 -234.65 -28.57 656.77 -2115.12 -57.48c-237.09,123.32 -838.35,152.06 -1067.09,5.67 -293.15,212.06 -1153.71,177.8 -1559.37,213 -404.41,34.96 -1271.34,172.36 -1613.31,140.24l-1483.15 212.83c-122.92,-209.85 -43.85,-131.42 -105.74,-348.03l-55.21 348.5 -151.49 51.97 -162.92 30.31 -401.64 38.11 44.88 -1204.17 299.28 161.11 105.99 10.86c-317.95,-186.3 -1737.88,-1178.74 -1807.63,-1407.08 -251.66,-119.85 -520.08,-333.78 -660.48,-577.33 -203.47,-28.51 -577.96,-583.85 -700.55,-791.81 -435.44,-738.19 -659.14,-2999.92 -1000.4,-3605.44 -130.46,-968.49 -915.42,-2280.46 -798.57,-3262.98 35.97,-361.18 14.33,-1068.83 -1.26,-1467.02 -16.78,-427.55 -31.97,-984.96 -76.07,-1381.96 -118.82,-1068.19 -89.05,-1864.26 -61.89,-2951.34l-266.93 0c-23.15,1927.71 -21.89,3507.16 261.03,5417.71 73.38,496.15 -8.59,759.3 134.01,1278.04 89.22,324.96 269.45,760.39 333.15,1063.7 77.48,369.14 2.12,926.14 49.92,1368.19 44.01,406.37 173.7,800.78 240.71,1195.28z"/>
  <path class="fil16" d="M1869.6 4932.04c-2.2,219.69 -29.12,439.3 -35.98,667.96 -8.66,288.19 -43.62,463.3 123.71,624.1 108.74,-267.48 259.75,-555.68 536.53,-667.88 411.89,-722.99 1865.74,448.82 2209.52,807.01 283.32,295.19 657.1,593.22 689.29,1033.62 40.56,554.56 60,1189.05 -41.56,1722.75 222.99,-296.68 30.15,-973.7 141.41,-1356.61 157,-540.55 235.44,-137.09 138.43,-1329.52 -0.24,191.65 6.06,228.26 -79.84,364.49 -325.12,-415.92 -844.89,-1257.33 -1237.1,-1530.71 -99.91,96.68 94.73,111.49 -133.06,74.87l-146.62 -168.57c-9.52,-34.73 -40.4,-29.54 -60.55,-44.33l-0.31 -53.32c-103.24,-124.32 -114.18,-131.49 -140.55,-189.05l89.05 -48.58c-128.27,-325.04 -735.98,-893.08 -1128.04,-909.37 -486.77,-20.31 -942.04,561.18 -924.33,1003.14z"/>
  <path class="fil16" d="M13823.78 17993.23c350.23,-132.37 425.74,-266.85 736.77,-429.3 428.59,-223.85 320.4,-295.74 878.19,-207.23 372.67,59.2 1532.6,355.59 1800.31,511.01l36.14 -28.42 173.23 -8.66c-740.15,-274.01 -1495.19,-391.58 -2193.69,-614.25 178.42,-263.46 610.71,-470.94 953.61,-540.63 606.07,-123.08 2139.14,580.15 2633.15,874.33 566.85,337.63 317.8,180.47 410.72,125.19l-45.28 -55.67 -635.75 -391.64c-371.33,-12.77 -202.76,-137.81 -572.36,-199.37l-338.9 -171.19 -876.22 -234.41 -271.34 -90.7 -278.5 -28.59c-222.45,-153.7 -626.07,-539.06 -731.19,-731.66l-484.56 -328.81 -75.19 138.43c118.89,80.46 268.42,167.31 351.01,256.61 257.8,278.89 111.74,295.28 536.15,556.14l58.89 39.92c77.73,71.57 61.66,-82.36 52.06,94.01 -127.17,97.8 -391.35,128.19 -631.51,299.69 -284.08,202.92 -312.59,348.35 -576.92,415.98 -305.52,78.2 -207.79,-78.34 -318.5,97.09 -321.11,508.75 -511.26,80.39 -590.32,652.13z"/>
  <path class="fil16" d="M1767.48 20000l356.14 0c3.78,-47.96 25.83,-239.77 18.9,-266.22 -74.96,-287.33 31.66,-60.48 -140.4,-160.71l-234.64 426.93z"/>
  <path class="fil17" d="M6965.67 14211.58l448.43 -77.8c266.68,47.63 385.42,55.19 608.82,198.03 -200.71,645.9 -1118.67,441.11 -1230,-8.74l172.75 -111.49zm-3338.19 -751.03c140.4,243.55 408.82,457.48 660.48,577.33 69.75,228.34 1489.68,1220.78 1807.63,1407.08 819.29,541.34 1425.82,733.15 2397.96,350.23 367.94,-327.31 2187.23,-1029.05 2644.79,-1923.53 391.43,-765.44 890.17,-2792.52 830.63,-3635.52l-423.7 -143.3c-575.75,-149.69 -985.42,-142.84 -1549.13,-217.57 -911.1,-120.86 -798.81,-1.26 -1600.39,125.13 -309.22,219.2 -658.19,169.52 -902.68,-127.56 272.12,-156.94 171.81,-206.14 550.16,-314.57 531.1,-152.13 1008.98,-140.56 1559.13,-150.24 507.16,-8.98 343.23,-40.39 659.3,211.42 667.71,-44.72 627.79,208.51 928.19,248.26 825.74,-649.29 1006.05,188.59 1222.12,-1312.2 89.52,-622.21 314.73,-1777.32 287,-2353.93l-287.56 109.53 -90.07 355.9c125.74,545.2 -127.41,1193.7 -349.13,1707.48 -187.17,-44.26 -14.88,-41.74 -229.22,-127.56 -254.96,556.85 -12.51,550.71 -1273.31,724.65 -539.91,74.49 -1317.56,94.87 -1869.68,95.5 -595.67,0.56 -1274.49,140.71 -1457.25,-545.27 -117.63,-441.58 -87.16,-1220.23 -610.54,-1302.44l-137.09 -76.38c-244.64,-186.37 -189.85,-737.72 -70.94,-962.84l119.92 581.97 402.43 -661.01c821.89,-1114.34 1175.44,-1597.81 2187.33,-2532.69 328.18,-303.23 1026.77,-823.54 1462.44,-931.41 772.12,-191.26 1179.84,229.84 1762.6,559.44 481.1,13 445.91,-999.44 469.61,-1390.07 33.7,-556.38 61.17,-1268.11 140.63,-1806.38l-4635.52 0c-112.36,271.18 -522.13,695.19 -723.62,972.36 -228.51,314.34 -459.92,661.11 -665.67,1011.57 -620.08,1056.15 -886.93,2101.19 -1041.81,2306.15 -308.97,-500.71 -399.22,-3535.83 -400.31,-4290.08l-1903.62 0c-148.99,434.41 -1198.99,1064.73 -1973.71,4192.29 -102.84,415.11 -254.33,1263.78 -396.92,1608.03 -116.85,982.52 668.11,2294.49 798.57,3262.98 341.26,605.52 564.96,2867.25 1000.4,3605.44 122.59,207.96 497.08,763.3 700.55,791.81zm2839.92 133.23c-13.3,-493.63 1527.09,-563.63 1587.24,54.01 -234.56,14.73 -1468.11,33.62 -1587.24,-54.01zm-1144.88 -2567.64c384.73,-44.02 767.08,-210.32 1118.19,47.01 -55.04,263.3 -141.34,330.86 -336.3,514.33 -319.77,-49.14 -709.29,-252.44 -878.74,-525.82 24.33,-282.61 318.66,-709.22 510,-833.7 -98.11,321.72 -340.71,400.07 -413.15,798.18zm-1213.38 -679.61c-284.81,31.98 -239.29,90.17 -462.06,96.46 -155.04,4.41 -292.27,22.05 -444.48,-46.61 238.89,-267.96 1043.22,-590.08 1403.39,-571.19 134.49,-183.53 213.93,9.85 293.53,39.85l88.12 24.25c240.95,41.81 186.29,-45.28 366.22,49.61l-604.26 613.54 -640.46 -205.91zm-2239.54 -5414.49c-17.71,-441.96 437.56,-1023.45 924.33,-1003.14 392.06,16.29 999.77,584.33 1128.04,909.37 149.84,67.17 338.03,253.39 392.04,428.98 392.21,273.38 911.98,1114.79 1237.1,1530.71 85.9,-136.23 79.6,-172.84 79.84,-364.49 97.01,1192.43 18.57,788.97 -138.43,1329.52 -111.26,382.91 81.58,1059.93 -141.41,1356.61 -228.36,403.47 -2151.03,932.61 -2149.62,237.02l-170.78 -75.28 -539.3 -2533.94c-22.82,573.86 500.32,2039.37 446.86,2299.93 -637.79,-307.73 -222.83,-2546.85 -980.94,-2823.23 -69.37,172.28 32.9,53.54 -131.43,188.19 -261.34,214.24 -69.45,102.98 -230.23,82.9 22.92,-473.93 -254.56,-1315.74 273.93,-1563.15zm3980.72 -271.49c81.72,324.33 90.94,630.08 -6.22,947.16 -198.91,-283.46 -186.14,-700.94 6.22,-947.16zm638.19 834.09l-195.13 321.43c-232.6,-321.74 -48.74,-992.92 184.73,-1272.37 258.66,-309.69 455.59,-593.07 801.74,-800 105.19,-214.73 327,-425.04 566.29,-463.93 79.85,-156.54 35.52,-111.43 204.01,-135.59 -173.77,324.33 -584.56,812.2 -818.26,1157.55 -252.12,372.45 -503.93,824.02 -743.38,1192.91z"/>
  <path class="fil17" d="M15418.66 9984.1l-82.52 162.28c-187.87,16.14 -477.4,8.26 -645.99,78.5 -266.68,111.11 -147.16,190.56 -377.79,367.09 -176.85,164.17 -320.24,215.28 -347.87,510.15 576.85,-144.87 1853.54,-495.67 1902.21,-1170l-448.04 51.98z"/>
  <path class="fil17" d="M15167.33 6417.96l-262.6 186.05c101.02,279.37 291.97,226.54 504.79,74.33 146.3,-104.56 296.7,-248.82 443.55,-357.86 408.34,-303.32 699.92,-396.07 1226.78,-395.44 -849.37,-822.83 -1276.86,20.55 -1912.52,492.92z"/>
  <path class="fil18" d="M19424.25 17738.74l-379.92 158.59 62.6 23.77c363.85,110.71 364.41,7.49 622.36,258.19 -520.4,-51.73 -822.44,94.81 -1210.15,459.68l-58.91 -172.67 -39.37 72.04 -62.75 215.76c14.25,138.74 -126.38,25.9 117.96,173.15 608.57,-496.62 667.94,-681.26 1523.93,-489.61l0 -214.65 -356.93 -318.18 -218.82 -166.07z"/>
  <path class="fil19" d="M5850.32 4660.55c-192.36,246.22 -205.13,663.7 -6.22,947.16 97.16,-317.08 87.94,-622.83 6.22,-947.16z"/>
  <path class="fil20" d="M8312.65 7796.01c-340.32,-633.03 -261.67,-517.98 -588.46,-4.38 270.24,155.6 -32.18,426.21 588.46,4.38z"/>
  <path class="fil20" d="M5121.28 8193.07c-296.56,-551.63 -228.02,-451.37 -512.79,-3.82 235.49,135.59 -28.04,371.41 512.79,3.82z"/>
 </g>
</svg>
