<?xml version="1.0" encoding="UTF-8"?>
<!DOCTYPE svg PUBLIC "-//W3C//DTD SVG 1.1//EN" "http://www.w3.org/Graphics/SVG/1.1/DTD/svg11.dtd">
<!-- Creator: CorelDRAW 2017 -->
<svg xmlns="http://www.w3.org/2000/svg" xml:space="preserve" width="200mm" height="200mm" version="1.1" style="shape-rendering:geometricPrecision; text-rendering:geometricPrecision; image-rendering:optimizeQuality; fill-rule:evenodd; clip-rule:evenodd"
viewBox="0 0 20000 20000"
 xmlns:xlink="http://www.w3.org/1999/xlink">
 <defs>
  <style type="text/css">
   <![CDATA[
    .str1 {stroke:#373435;stroke-width:7.62;stroke-miterlimit:22.9256}
    .str0 {stroke:#3E4095;stroke-width:7.62;stroke-miterlimit:22.9256}
    .str2 {stroke:#010101;stroke-width:7.62;stroke-miterlimit:22.9256}
    .fil3 {fill:#373435}
    .fil11 {fill:#373435}
    .fil0 {fill:#FCD3C2}
    .fil17 {fill:#010101}
    .fil18 {fill:#010101}
    .fil8 {fill:#4A4E73}
    .fil7 {fill:#4A4E73}
    .fil4 {fill:#9E765D}
    .fil9 {fill:#E1E2E2}
    .fil16 {fill:#E2E3DD}
    .fil10 {fill:#EBF0F0}
    .fil1 {fill:#F4C7AA}
    .fil2 {fill:#F4C7AA}
    .fil14 {fill:#F5C11A}
    .fil5 {fill:#F5F9F9}
    .fil15 {fill:#FDCD02}
    .fil6 {fill:#FDFDFD}
    .fil19 {fill:#FEFEFE}
    .fil13 {fill:url(#id0)}
    .fil12 {fill:url(#id1)}
   ]]>
  </style>
  <linearGradient id="id0" gradientUnits="userSpaceOnUse" x1="16092.97" y1="14161.89" x2="15993.39" y2="19654.9">
   <stop offset="0" style="stop-opacity:1; stop-color:#FDCD02"/>
   <stop offset="0.501961" style="stop-opacity:1; stop-color:#F5C11A"/>
   <stop offset="1" style="stop-opacity:1; stop-color:#FFF212"/>
  </linearGradient>
  <linearGradient id="id1" gradientUnits="userSpaceOnUse" xlink:href="#id0" x1="16092.98" y1="14161.88" x2="15993.4" y2="19654.89">
  </linearGradient>
 </defs>
 <g id="Capa_x0020_1">
  <metadata id="CorelCorpID_0Corel-Layer"/>
  <g id="_1775466462976">
   <g>
    <g>
     <path class="fil0" d="M7451.85 17587.91c-74.55,165.71 -27.36,223.45 82.27,326.42 239.01,224.52 277.15,384.67 571.12,374.08 83.54,-3.01 340.01,-32.36 402.59,-71.96 96.1,-60.85 57.98,-272.36 -26.85,-305.02 -109.68,-42.25 -311.66,31.92 -441.03,18.05 -243.41,-26.09 -375.82,-257.41 -588.1,-341.57z"/>
     <path class="fil1" d="M14093.36 13300.64c-76.55,228.78 -418.34,270.38 -631.78,293.56 -124.58,13.53 -314.24,65.66 -427.91,12.99 -96.03,-44.5 -130.51,-257.23 -74.36,-347.57 52.48,-84.43 872.56,-406.72 1059.7,-320.46 97.03,44.72 104.19,272.28 74.35,361.48zm-996.48 -363.6c29.53,-83.34 85.11,-143.95 134.66,-216.14 51.3,-74.74 28.44,-209.25 117.86,-221.54 79.78,82.64 50.03,392.76 37.44,509.67 -88.47,-2.9 -224.11,-23.54 -289.96,-71.99zm-1291.52 -468.04c226.39,-204.44 1095.7,-298.2 1210.16,-253.65 87.65,34.12 36.97,18.4 47.97,58.01 -86.21,44.11 -541.97,40.84 -685.06,62.93 -133.62,20.62 -472.03,177.56 -573.07,132.71zm-691.26 -3200.74c127.35,115.66 27.23,476.35 70.87,638.63 86.33,-33.14 107.71,-202.79 331.26,-128.42 211.37,70.31 226.83,174.05 283.45,231.09 166.15,167.39 328.58,345.65 470.57,533.35 102.21,135.13 825.98,1075.98 893.09,1097.67 106.69,-123.88 31.69,-423.51 153.2,-463.59 48.99,93.21 -34,264.71 -54.74,378.85 -22.53,124.04 -8.97,328.87 -75.45,425.36l-134.48 -57.92c-214.07,188.85 -62.7,239.93 -646.6,165.82 -625.96,-79.46 -840.54,-302.21 -898.99,-841.53 -22,-202.99 1.6,-718.79 -33.48,-846.47 -159.13,-42.01 -192.23,163.61 -369,151.87 -97.73,-310.69 -14.87,-458.93 -10.61,-609.37 3.47,-123.3 -18.08,-600.57 20.91,-675.34zm2081.57 1694.71c-101.29,-54.27 -172.17,-255.18 -233.85,-363.12 -56.75,-99.3 -174.63,-275.83 -200.05,-375.53 149.81,27.53 303.57,374.33 381.23,515.61 55.5,100.95 113.32,111.84 52.67,223.04zm-2435.76 -157.46c1.68,267.41 527.76,1581.82 679.17,1852.93 258.69,463.17 900.37,903.01 1330.09,1214.17 283.03,204.93 539.44,396.72 888.68,194.32 302.87,-175.51 1093.54,-858.26 1371.68,-1172.33 143.02,-161.5 403.25,-672.57 394.35,-884.46l44.51 -208.34 -112.7 -69.83c-95.49,10.44 -74.92,20.44 -155.87,49.23 -96.74,34.42 -56.64,-2.01 -142.45,13.65 -64.91,10.27 -131.43,67.73 -242.13,93.72 -224.3,52.65 -925.94,286.38 -1083,143.24 -122.74,-111.87 -123.36,-61.18 -200.5,-120.23 -107.31,-82.13 -103.44,-441.5 -47.01,-535.72 43.02,102.25 26.58,165.24 36.58,272.53 115.46,7.6 782.01,-434.23 838.61,-525.34l44.77 -76.9c1.36,-3.65 47.61,-69.77 -93.51,-87.77l479.44 -188.89 25.31 -194.57 593.28 -16.47 140.22 -209.36c-5.27,-5.08 -14.13,-18.4 -17.75,-12.91l-51.95 -26.24c-11.93,-4.1 -24.93,0.51 -46.29,-7.29 38.43,-136.33 78.5,-72.73 36.28,-284.6 -45.09,-226.37 -58.51,-407.07 -16.14,-639.58 34.81,-191.05 -11.87,-191.02 -12.36,-343.05 198.16,17.73 267.78,-0.25 312.31,-100.69 10.5,120.2 -28.11,276.93 16.34,379.55l128.48 10.3 -2.04 -618.91c66.73,-305.41 -182.27,-1017.46 -467.58,-1173.81 -609.33,-333.91 -1406.05,1189.25 -1591.22,1603.37 -81.64,182.56 -424.25,1042.16 -512.23,1117.34 -50.65,-71.6 -390.95,-1114.37 -531.95,-1430.68 -473.53,-1062.21 -1316.79,-1915.3 -1878.72,-323.26 -150.12,425.32 -97.45,441.44 -140.64,605.08 -19.02,72.07 -40.47,74.36 -54.22,183.36 -31.86,252.33 -78.36,673.68 -74.63,922.99l258.94 -13 -144.15 608.45zm3600.01 317.54c279.74,-76.13 532.01,-425.06 855.67,-422.99 105.29,97.7 247.71,328.67 239.37,481.36 -223.85,101.48 -155.62,2.33 -255.46,258.27 -46.2,118.44 -112.54,230.65 -142.13,355.16 85.81,-15.66 45.71,20.77 142.45,-13.65 80.95,-28.79 60.38,-38.79 155.87,-49.23l112.7 69.83 -44.51 208.34c110.64,-65 217.49,-491.31 270.27,-631.53 41.37,-109.92 74.39,-223.16 117.08,-332.01 64.2,-163.7 101.13,-180.95 55.32,-368.96 -3.29,-12.08 -136.67,-296.06 -148.22,-312.95 -97.79,-142.74 -134.4,-31.54 -184.66,-262.72 -39.48,-181.5 -68.46,-651.61 0.46,-813.14 96.66,229.95 -59.89,652.21 95.1,867.1 104.66,48.56 246.85,66.17 359.59,43.82 25.64,-215.74 25.09,-1376.22 -92.51,-1494.08l2.04 618.91 -128.48 -10.3c-44.45,-102.62 -5.84,-259.35 -16.34,-379.55 -44.53,100.44 -114.15,118.42 -312.31,100.69 0.49,152.03 47.17,152 12.36,343.05 -42.37,232.51 -28.95,413.21 16.14,639.58 42.22,211.87 2.15,148.27 -36.28,284.6 21.36,7.8 34.36,3.19 46.29,7.29l51.95 26.24c3.62,-5.49 12.48,7.83 17.75,12.91l-140.22 209.36 -593.28 16.47 -25.31 194.57 -479.44 188.89c141.12,18 94.87,84.12 93.51,87.77l-44.77 76.9z"/>
     <path class="fil2" d="M7874.66 15914.94c150.2,23.19 112.12,85.14 197.29,115.26l-42.09 -320.12c-302.9,-103.99 -605.98,84.11 -592.93,413.95 10,252.47 499.77,734.11 876.52,656.11 157.24,-32.57 107.76,-238.08 43.83,-332.02 -116.54,-171.25 -436.23,-283.24 -482.62,-533.18z"/>
    </g>
    <path class="fil2" d="M16004.72 10742.99l-52.27 167.61c156.77,-49.38 328.01,-413.29 536.84,-352.06 56.58,97.49 80.04,360.76 -44.93,406.82 -38.37,-130.73 14.41,-203.84 -10.24,-328.69 -80.32,16.91 -183.83,114.11 -226.02,185.81 35.73,113.68 203.38,289.54 63.72,400.07 -102.59,-85.65 13.04,-170.41 -114.5,-295.95 -163.22,13.15 -343.53,248.28 -337.05,405.26 119.25,-13.95 211.34,-140.38 316.61,-43.28 -171.44,149.35 -263.3,35.72 -437.13,352.27 -73.92,134.65 -219.52,438.46 -216.81,583.61 253.17,40.6 384.78,-188.98 568.02,-196.9 -27.03,214.28 -494.62,259.21 -645.48,324.65 -36.01,89.76 -44.18,96.66 -38.25,199.04 125.01,290.7 829.56,-377.71 926.14,-508.82 79.66,-108.14 142.16,-274.8 212.76,-353.68 20.88,-380.44 228.51,-943.64 81.22,-1297.75 -310.51,-49.75 -416.15,315.35 -582.63,351.99z"/>
    <path class="fil2" d="M8557.55 17319.86c75.95,-129.1 98.57,-229.66 -3.69,-361.73 -95.07,-122.77 -245.93,-88.24 -389.22,-100.66 -413.81,-35.86 -371.14,-222.79 -635.21,-348.3 -320.56,299.59 -66.64,451.66 183.86,626.61 312.87,218.51 457.11,271.22 844.26,184.08z"/>
    <path class="fil0" d="M8595.75 17428.73c-244.15,-44.05 -474.74,73.89 -711.54,-78.3 -138.65,-89.1 -331.5,-257.85 -483.17,-300.74 -111.65,153.07 -18.77,343.09 104.72,443.14 84.51,68.46 266.9,236.63 358.01,283.52 71.63,36.86 954.74,237.44 731.98,-347.62z"/>
    <g>
     <path class="fil2" d="M18552.85 16026.01c94.94,-59.04 57.23,-83.72 176.55,-113.56 -61.44,369.1 -753.37,484.56 -472.95,872.98 260.81,78.51 707.71,-230.53 835.88,-444.67 88.85,-148.45 105.74,-357.52 5.95,-504.31 -110.08,-161.95 -346.14,-147.77 -525.94,-135.82l-19.49 325.38z"/>
     <path class="fil2" d="M19206.88 17031.1c-217.4,94.54 -431.35,358.62 -658.01,390.34 -132.29,18.52 -390.62,-36.74 -497.58,-2.92 -128.83,40.73 -106.36,281.04 -9.54,353.02 72.8,54.11 372.45,70.07 471.03,70.58 159.21,0.81 259.09,-75.18 373.17,-167.89 201.1,-163.45 486.79,-328.81 320.93,-643.13z"/>
     <path class="fil2" d="M18366.04 18272.77c309.47,17.59 360.07,13.73 560.59,-194.2 115.12,-119.38 343.78,-272.06 243.87,-471.68l-95.65 -17.37c-36.15,102.94 -250.99,244.17 -361.19,297.18 -199.61,96 -393.4,-11.33 -602.52,21.6 -70.38,99.15 -66,173.94 -43.2,289.95 80.76,62.32 195.95,63 298.1,74.52z"/>
     <path class="fil2" d="M19065.61 16507.19c-122.9,70.52 -131.01,160.44 -292.64,241.95 -472.63,238.38 -639.82,-16.45 -770.4,298.86 -68.58,165.57 -4.98,270.15 163.55,300.77 356.2,64.73 517.71,-70.04 788.83,-246.91 224.86,-146.69 455.09,-402.43 110.66,-594.67z"/>
    </g>
   </g>
   <path class="fil3" d="M13308.5 13342.19c48.86,24.76 0.87,15.78 74.51,19.93 81.98,4.64 457.41,-90.04 613.14,-97.28 -21.46,187.44 -213.54,189.77 -381.53,223.56 -154.85,31.16 -414.33,102.21 -553.17,24.55 -39.16,-118.19 2.66,-23.4 45.73,-126.79 -83.91,-44.91 -48.52,3.9 -85.02,-66.61 57.7,-102.38 381.54,-176.49 506.03,-216.07 159.7,-50.75 509.96,-241.09 493.71,46.56 -188.15,78.62 -584.34,68.28 -713.4,192.15zm784.86 -41.55c29.84,-89.2 22.68,-316.76 -74.35,-361.48 -187.14,-86.26 -1007.22,236.03 -1059.7,320.46 -56.15,90.34 -21.67,303.07 74.36,347.57 113.67,52.67 303.33,0.54 427.91,-12.99 213.44,-23.18 555.23,-64.78 631.78,-293.56z"/>
   <path class="fil4" d="M13096.88 12937.04c65.85,48.45 201.49,69.09 289.96,71.99 12.59,-116.91 42.34,-427.03 -37.44,-509.67 -89.42,12.29 -66.56,146.8 -117.86,221.54 -49.55,72.19 -105.13,132.8 -134.66,216.14z"/>
   <path class="fil5" d="M13830.59 12011.84c53.77,-42.61 103.43,-119.68 159.65,-135.67 114.9,-32.69 115.58,26.3 201.5,58.93 103.77,39.43 710.87,-73.47 827.76,-248.25 60.9,-91.05 139.6,-286 153.71,-393.87 -161.04,-8.27 -586.31,209.52 -758.16,281.33 -137.43,57.44 -627.6,242.86 -684.34,350.9l99.88 86.63z"/>
   <path class="fil6" d="M12611.78 12034.34c41.71,-83.55 31.12,-138.36 151.32,-135.47 159.46,3.81 65.36,98.39 203.52,23.63 90.25,-102.64 -165.07,-301.43 -275.92,-409.62l-908.69 -887.34c-75.71,-73.99 -111.17,-144.62 -218.51,-145.03 -44.61,249.37 0.78,960.69 122.15,1180.78 140.59,254.93 648.88,402.6 926.13,373.05z"/>
   <path class="fil6" d="M13308.5 13342.19c129.06,-123.87 525.25,-113.53 713.4,-192.15 16.25,-287.65 -334.01,-97.31 -493.71,-46.56 -124.49,39.58 -448.33,113.69 -506.03,216.07 36.5,70.51 1.11,21.7 85.02,66.61 -43.07,103.39 -84.89,8.6 -45.73,126.79 138.84,77.66 398.32,6.61 553.17,-24.55 167.99,-33.79 360.07,-36.12 381.53,-223.56 -155.73,7.24 -531.16,101.92 -613.14,97.28 -73.64,-4.15 -25.65,4.83 -74.51,-19.93z"/>
   <path class="fil7 str0" d="M14835.71 14169.24c271.77,-117.02 872.39,-247.02 1177.37,-292.58 412.12,-61.56 978.59,-108.54 1389.93,-69.16l443.32 6.16c-39.59,-320.67 -1057.56,-419.48 -1325.29,-486.86 -237.48,-59.77 -1308.13,-389.46 -1461.38,-336.62 -63.66,104.74 -56.57,476.66 -91.54,634.8 -40.87,184.78 -127.41,346.68 -176.9,535.9l44.49 8.36z"/>
   <path class="fil8 str0" d="M9270.6 13756.28c34.61,62.64 45.44,43.1 137.85,48.35 49.25,2.81 103.81,2.68 154.15,4.84 99,4.24 243.58,-10.23 320.33,31.13 188.87,-52.11 821.1,60.51 1040.82,105.7 156.55,32.2 312.66,64.73 466.66,108.54 148.12,42.15 304.05,112.45 456.79,122.52 -29.89,-161.12 -151.39,-363.21 -195.26,-554.2 -40.3,-175.49 -28.3,-547.9 -95.62,-654.15 -92.64,-67.55 -1495.52,455.9 -1752.95,555.67 -115.95,44.94 -456.15,214.55 -532.77,231.6z"/>
   <path class="fil3" d="M12730.34 19857.71c-3.74,-167.61 0.2,-336.27 0.37,-504.21 0.24,-248.83 -61.08,-268.1 190.43,-285.17 184.06,-12.49 810.1,-43.75 947.45,32.36 28.88,84.28 21.19,651.91 7.19,768.16l-1145.44 -11.14zm-0.31 -988.19c191.8,-80.07 903.7,-43.67 1141.32,-19.94l2.07 138.42c-149.56,12.92 -1032.32,20.11 -1142.58,-7.24l-0.81 -111.24zm4.56 -2458.45c193.8,-125.17 945.25,-116.79 1137.07,-7.05 20.15,208.77 25.37,2237.48 -4.54,2341.39l-1092.49 -2.36c-102.95,-123.55 -47.65,-387.53 -46.77,-544.5 2.23,-393.28 -26.73,-1564.26 6.73,-1787.48zm-4226.76 1805.38c-62.58,39.6 -319.05,68.95 -402.59,71.96 -293.97,10.59 -332.11,-149.56 -571.12,-374.08 -109.63,-102.97 -156.82,-160.71 -82.27,-326.42 212.28,84.16 344.69,315.48 588.1,341.57 129.37,13.87 331.35,-60.3 441.03,-18.05 84.83,32.66 122.95,244.17 26.85,305.02zm-644.06 -440.1c-91.11,-46.89 -273.5,-215.06 -358.01,-283.52 -123.49,-100.05 -216.37,-290.07 -104.72,-443.14 151.67,42.89 344.52,211.64 483.17,300.74 236.8,152.19 467.39,34.25 711.54,78.3 222.76,585.06 -660.35,384.48 -731.98,347.62zm693.78 -456.49c-387.15,87.14 -531.39,34.43 -844.26,-184.08 -250.5,-174.95 -504.42,-327.02 -183.86,-626.61 264.07,125.51 221.4,312.44 635.21,348.3 143.29,12.42 294.15,-22.11 389.22,100.66 102.26,132.07 79.64,232.63 3.69,361.73zm4182.07 -1068.61c43.94,-181.21 424.07,-159.04 579.52,-160.7 145.38,-1.54 552.19,-28.34 547.74,177.45 -84.2,38.09 -418.57,-41.86 -547.74,-42.93 -168.77,-1.39 -444.65,91.89 -579.52,26.18zm-13.67 -1090.25c110.97,-86.49 425.33,-160.49 571.84,-159.41 192.11,1.41 400.84,74.53 586.81,140.36l-8.03 921.44c-188.94,10.04 -385.4,-52.34 -578.82,-52.21 -179.32,0.12 -412.41,70.83 -574.06,49.48l2.26 -899.66zm-4851.29 753.94c46.39,249.94 366.08,361.93 482.62,533.18 63.93,93.94 113.41,299.45 -43.83,332.02 -376.75,78 -866.52,-403.64 -876.52,-656.11 -13.05,-329.84 290.03,-517.94 592.93,-413.95l42.09 320.12c-85.17,-30.12 -47.09,-92.07 -197.29,-115.26zm126.52 -1538.46c116.99,-96.24 942.42,-195.72 1129.54,-201.05 1064.17,-30.4 2301.74,146.84 3202.53,753.35 171.57,115.52 297.15,148.04 301.64,359.64l20.36 1947.65c2.1,545.63 19.53,2153.04 -26.71,2602.28 -72.55,-5.86 -676.17,-146.75 -936.37,-181.59 -326.95,-43.77 -689.16,-82.91 -1018.14,-94.46 -518.7,-18.21 -1818.67,24.42 -2157.77,-22.97 -47.83,-161.99 -137.03,-1040.7 -99.49,-1178.9 220.27,-176.25 268.5,16.81 197.01,-411.74 -27.61,-165.43 161.79,-158.57 82.16,-469.62 -60.61,-236.79 88.18,-324.46 -52.47,-546.04 -47.94,-75.53 -132.92,-120.38 -152.2,-167.93 -18.06,-44.53 -19.68,-219.42 -34.2,-289.74 -46.86,-227.13 -255.49,-218.14 -291.76,-349.78 -28.02,-101.69 -45.44,-449.98 -57.85,-579.12 -18.61,-193.78 -130.27,-1049.3 -106.28,-1169.98zm275.96 -193.83c57.62,-71.24 114.46,-104.12 188.85,-157.3 88.83,-63.53 107.07,-111.83 212.94,-57.69 -2.97,93.45 -28.13,64.58 -103.57,137.51l98.55 39.9c-109.32,14.07 -304.73,63.98 -396.77,37.58zm7504.47 -197.81c87.41,-15.96 177.74,-8.57 286.65,-29.55 146.65,-28.24 727.87,-132.78 770.57,5.16 -39.68,59.32 -86.07,49.43 -162.62,69.68 -90.78,24 -98.42,47.4 -163.66,71.34 -73.3,26.92 -332.9,53.39 -419.57,60.41 -147.96,-36.73 -9.25,-147.03 -628.83,46.09 -1460.79,455.31 -704.66,411.89 -1524.46,854l-401.8 -126.07 151.29 -106.37c-79.36,48.81 -23.11,60.59 -8.73,91.15 138.04,-29.95 554.27,-487.29 2062.48,-817.68l38.68 -118.16zm-7183.88 -134.94c-254.34,96.63 -466.95,333.56 -513.24,353.46 -77,33.12 -110.97,37.77 -176.56,99.74 -30.17,61.13 108.31,962.04 100.55,1299.42 -201.51,68.34 -622.88,-94.59 -660.47,499.42 -12.17,192.36 27.84,164.27 101.71,300.08 -94.93,277.75 -304.02,347.92 -104.61,559.3l-41.77 29.59 -54.05 248.56c70.69,275.03 128.27,106.09 94.23,454.9 -16.76,171.74 91.52,257.61 196.86,362.94 92.87,92.84 188.41,204.43 291.3,286.57 129.02,103 341.85,-1.33 477.82,45.62l32.64 436.73 12.89 103.86 84.49 686.9c695.11,45.98 1503.72,27.76 2208.37,29.25 206.99,0.43 336.03,39.73 533.64,48.37 319.33,13.95 1218.99,111.72 1415.81,263.26l1402.43 -0.55c404.2,-287.31 2962.32,-365.02 3678.85,-332.73 153.42,6.92 390.14,61.12 510.22,-37.58 63.83,-144.43 1,-458.22 76.84,-668.34l-1.01 -120.02 54.85 -396.31c128.11,-28.99 268.28,0.69 405.91,4.03 94.9,-103.74 106.26,-116 221.37,-200.57 84.59,-62.17 125.94,-163.37 204.99,-209.07 26.38,-49.57 104.6,-155.55 136.29,-204.62l-42.96 -257.84 -170.27 55.25 95.65 17.37c99.91,199.62 -128.75,352.3 -243.87,471.68 -200.52,207.93 -251.12,211.79 -560.59,194.2 -43.08,54.2 -34.62,51.3 -131.47,36.42 -82.92,-12.76 -33.82,-39.57 -136.91,-14.09l98.34 49.42c8.54,231.08 -38.79,989.13 -102.49,1193.18 -368.8,31.53 -729.82,5.06 -1098.72,2.75 -699.47,-4.39 -1398.61,29.97 -2093.23,113.97 -306.54,37.07 -641.63,147.5 -922.96,175.21 -58.08,-506.62 -11.58,-3711.73 -8.22,-4519.43 0.57,-136.43 -19.42,-136.34 90.65,-218.92 933.44,-700.4 2115.37,-958.08 3275.71,-913.12 415.65,16.11 762.08,110.44 1153.84,146.6l-176.33 -86.39c95.54,-48.88 73.02,-8.07 123.04,-23.62 -3.28,-103.92 -98.35,-98.28 -193.17,-154.22 -90.15,-53.21 -113.71,-113.37 -216.8,-147.43 -148.33,-49.02 -537.75,-56.29 -624.31,-105.6 -411.34,-39.38 -977.81,7.6 -1389.93,69.16 -304.98,45.56 -905.6,175.56 -1177.37,292.58 -58.69,69.73 -92.05,121.22 -177.71,59.35 -529.66,168.22 -1218.85,668.5 -1305.16,689.76 -141.13,34.77 -503.09,-260.22 -650.17,-338.07 -198.43,-105.03 -456.46,-236.48 -660.77,-321.7 -86.49,76.96 -119.66,39.12 -213.29,-28.34l-11.63 118.98c100.85,88.3 393.89,182.15 531.65,244.31 167.26,75.46 307.63,210.34 481.28,271.37l83.81 -61.81 143.3 125.81c-71.87,53.54 -183.72,76.3 -270.91,106.33 -130.62,44.99 -147.98,13 -264.21,-59.63 -89.3,-55.79 -378.51,-243.26 -438.32,-300.91 190.19,56.97 381.19,243.24 569.46,277.46 -23.58,-120.32 -229.39,-198.26 -338.91,-261.89 -103.34,-60.03 -280.97,-171.79 -395.51,-166.38 3.03,69.02 -11.08,15.26 30.07,81.46 -179.43,-34.82 -479.18,-203.61 -697.29,-261.02 -308.35,-81.17 -55.28,-286.37 -1586.53,-336.14 -159.72,-5.18 -800.74,45.92 -889.11,-9.15 135.73,-61.16 598.04,-36.77 783.18,-35.74 144.55,0.81 113.66,11.25 196.32,-80.03l111.72 8.24c-19.26,-28.78 8.43,-29.55 -48.05,-33.23l64 -17.67c-76.75,-41.36 -221.33,-26.89 -320.33,-31.13 -50.34,-2.16 -104.9,-2.03 -154.15,-4.84 -92.41,-5.25 -103.24,14.29 -137.85,-48.35 -29.92,48.05 -36.47,-62.89 -22.55,76.96l272.76 -0.74c-250.95,-1.49 -912.82,168.15 -923.08,17.4z"/>
   <path class="fil9" d="M11828.61 14230.24c-230.47,18.49 -544.79,-181.67 -805.13,-169.84 97.59,15.23 615.07,205.7 670.57,278.47 -139.76,-1.07 -722.43,-191.94 -867.92,-257.16 56.05,-58.84 36.98,-2.09 54.47,-69.49 -359.49,-46.93 -643.61,-97.18 -1013.62,-120.72l-111.72 -8.24c-82.66,91.28 -51.77,80.84 -196.32,80.03 -185.14,-1.03 -647.45,-25.42 -783.18,35.74 88.37,55.07 729.39,3.97 889.11,9.15 1531.25,49.77 1278.18,254.97 1586.53,336.14 218.11,57.41 517.86,226.2 697.29,261.02 -41.15,-66.2 -27.04,-12.44 -30.07,-81.46 114.54,-5.41 292.17,106.35 395.51,166.38 109.52,63.63 315.33,141.57 338.91,261.89 -188.27,-34.22 -379.27,-220.49 -569.46,-277.46 59.81,57.65 349.02,245.12 438.32,300.91 116.23,72.63 133.59,104.62 264.21,59.63 87.19,-30.03 199.04,-52.79 270.91,-106.33l-143.3 -125.81 -83.81 61.81c-173.65,-61.03 -314.02,-195.91 -481.28,-271.37 -137.76,-62.16 -430.8,-156.01 -531.65,-244.31l11.63 -118.98z"/>
   <path class="fil10" d="M15781.61 13984.84l-38.68 118.16c-1508.21,330.39 -1924.44,787.73 -2062.48,817.68 -14.38,-30.56 -70.63,-42.34 8.73,-91.15l-151.29 106.37 401.8 126.07c819.8,-442.11 63.67,-398.69 1524.46,-854 619.58,-193.12 480.87,-82.82 628.83,-46.09 86.67,-7.02 346.27,-33.49 419.57,-60.41 65.24,-23.94 72.88,-47.34 163.66,-71.34 76.55,-20.25 122.94,-10.36 162.62,-69.68 -42.7,-137.94 -623.92,-33.4 -770.57,-5.16 -108.91,20.98 -199.24,13.59 -286.65,29.55z"/>
   <path class="fil11 str1" d="M13221.76 17985.63c43.61,62.28 96.62,89.23 150.7,20.11 43.03,-101.35 46.04,-172.42 79.04,-252.18 44.66,-108 88.47,-91.46 23.36,-217.82 56.38,-70.95 31.87,-5.2 59.58,-95.88 -68.97,-40.16 -63.29,-32.36 -65.77,-108.96 -60.96,-60.36 -100.99,-150.07 -205.7,-112.13 -72.84,26.4 -95.86,139.86 -112.37,210.23 -46.59,198.72 34.46,365.86 71.16,556.63z"/>
   <path class="fil12" d="M8001.18 14376.48c-23.99,120.68 87.67,976.2 106.28,1169.98 12.41,129.14 29.83,477.43 57.85,579.12 36.27,131.64 244.9,122.65 291.76,349.78 14.52,70.32 16.14,245.21 34.2,289.74 19.28,47.55 104.26,92.4 152.2,167.93 140.65,221.58 -8.14,309.25 52.47,546.04 79.63,311.05 -109.77,304.19 -82.16,469.62 71.49,428.55 23.26,235.49 -197.01,411.74 -37.54,138.2 51.66,1016.91 99.49,1178.9 339.1,47.39 1639.07,4.76 2157.77,22.97 328.98,11.55 691.19,50.69 1018.14,94.46 260.2,34.84 863.82,175.73 936.37,181.59 46.24,-449.24 28.81,-2056.65 26.71,-2602.28l-20.36 -1947.65c-4.49,-211.6 -130.07,-244.12 -301.64,-359.64 -900.79,-606.51 -2138.36,-783.75 -3202.53,-753.35 -187.12,5.33 -1012.55,104.81 -1129.54,201.05z"/>
   <path class="fil13" d="M18097.66 18295.1c-217.34,-18.5 -92.63,-253.48 -90.42,-381.12 1.51,-86.48 -142.6,-162.92 -107.68,-371.19 14.71,-87.69 41.54,-122.08 33.91,-219.22 -11.98,-152.36 -108.24,-344.51 194.49,-533.64 11.54,-113.1 8.73,-233.86 42.77,-345.1 42.38,-138.54 61.69,-127.52 173.25,-190.09 148.01,-83.02 131.51,-417.85 147.82,-578.87 26.44,-261.23 154.25,-1106.75 115.37,-1317.46l-116.59 -33.65c-391.76,-36.16 -738.19,-130.49 -1153.84,-146.6 -1160.34,-44.96 -2342.27,212.72 -3275.71,913.12 -110.07,82.58 -90.08,82.49 -90.65,218.92 -3.36,807.7 -49.86,4012.81 8.22,4519.43 281.33,-27.71 616.42,-138.14 922.96,-175.21 694.62,-84 1393.76,-118.36 2093.23,-113.97 368.9,2.31 729.92,28.78 1098.72,-2.75 63.7,-204.05 111.03,-962.1 102.49,-1193.18l-98.34 -49.42z"/>
   <path class="fil14" d="M13468.67 17330.9c2.48,76.6 -3.2,68.8 65.77,108.96l202.43 88.39c-71.56,53.2 -96.33,30.44 -183.95,31.41 -28.14,288.29 94.36,281.5 99.6,417.85 -77.12,-21.09 -106.72,-70.9 -161.08,-121.39 -43.25,95.25 -5.64,119.47 -118.98,149.62 -54.08,69.12 -107.09,42.17 -150.7,-20.11l-67.03 -8.57c-7.97,-77.27 11.68,-79.35 -27.48,-139.07 -67.94,76.46 -46.7,110.45 -166.1,141.11 11.84,-149.74 128.58,-93.65 107.41,-425.08l-178.53 8.83c35.08,-188.28 358.84,-16.2 187.58,-306.36l82.98 -41.22c-65.72,-87.35 -172.8,-100.3 -175.67,-227.91 154.43,47.19 227.59,190.13 333.36,185.25 113.13,-5.22 148.64,-148.85 314.99,-183.99 -8.67,108.36 -88.96,151.28 -169.06,208.13 6.58,2.73 41.44,16.38 45.83,19.59 51.22,37.21 5.52,-19.29 35.59,49.7l-76.96 64.86zm-734.08 -919.83c-33.46,223.22 -4.5,1394.2 -6.73,1787.48 -0.88,156.97 -56.18,420.95 46.77,544.5l1092.49 2.36c29.91,-103.91 24.69,-2132.62 4.54,-2341.39 -191.82,-109.74 -943.27,-118.12 -1137.07,7.05z"/>
   <path class="fil15" d="M12725.95 15161l-2.26 899.66c161.65,21.35 394.74,-49.36 574.06,-49.48 193.42,-0.13 389.88,62.25 578.82,52.21l8.03 -921.44c-185.97,-65.83 -394.7,-138.95 -586.81,-140.36 -146.51,-1.08 -460.87,72.92 -571.84,159.41z"/>
   <path class="fil15" d="M12730.34 19857.71l1145.44 11.14c14,-116.25 21.69,-683.88 -7.19,-768.16 -137.35,-76.11 -763.39,-44.85 -947.45,-32.36 -251.51,17.07 -190.19,36.34 -190.43,285.17 -0.17,167.94 -4.11,336.6 -0.37,504.21z"/>
   <path class="fil14" d="M12730.03 18869.52l0.81 111.24c110.26,27.35 993.02,20.16 1142.58,7.24l-2.07 -138.42c-237.62,-23.73 -949.52,-60.13 -1141.32,19.94z"/>
   <path class="fil14" d="M12739.62 16251.25c134.87,65.71 410.75,-27.57 579.52,-26.18 129.17,1.07 463.54,81.02 547.74,42.93 4.45,-205.79 -402.36,-178.99 -547.74,-177.45 -155.45,1.66 -535.58,-20.51 -579.52,160.7z"/>
   <path class="fil11 str1" d="M13221.76 17985.63c-36.7,-190.77 -117.75,-357.91 -71.16,-556.63 16.51,-70.37 39.53,-183.83 112.37,-210.23 104.71,-37.94 144.74,51.77 205.7,112.13l76.96 -64.86c-30.07,-68.99 15.63,-12.49 -35.59,-49.7 -4.39,-3.21 -39.25,-16.86 -45.83,-19.59 80.1,-56.85 160.39,-99.77 169.06,-208.13 -166.35,35.14 -201.86,178.77 -314.99,183.99 -105.77,4.88 -178.93,-138.06 -333.36,-185.25 2.87,127.61 109.95,140.56 175.67,227.91l-82.98 41.22c171.26,290.16 -152.5,118.08 -187.58,306.36l178.53 -8.83c21.17,331.43 -95.57,275.34 -107.41,425.08 119.4,-30.66 98.16,-64.65 166.1,-141.11 39.16,59.72 19.51,61.8 27.48,139.07l67.03 8.57z"/>
   <path class="fil11 str1" d="M13372.46 18005.74c113.34,-30.15 75.73,-54.37 118.98,-149.62 54.36,50.49 83.96,100.3 161.08,121.39 -5.24,-136.35 -127.74,-129.56 -99.6,-417.85 87.62,-0.97 112.39,21.79 183.95,-31.41l-202.43 -88.39c-27.71,90.68 -3.2,24.93 -59.58,95.88 65.11,126.36 21.3,109.82 -23.36,217.82 -33,79.76 -36.01,150.83 -79.04,252.18z"/>
   <path class="fil16" d="M8277.14 14182.65c92.04,26.4 287.45,-23.51 396.77,-37.58l-98.55 -39.9c75.44,-72.93 100.6,-44.06 103.57,-137.51 -105.87,-54.14 -124.11,-5.84 -212.94,57.69 -74.39,53.18 -131.23,86.06 -188.85,157.3z"/>
   <path class="fil3" d="M19206.88 17031.1c165.86,314.32 -119.83,479.68 -320.93,643.13 -114.08,92.71 -213.96,168.7 -373.17,167.89 -98.58,-0.51 -398.23,-16.47 -471.03,-70.58 -96.82,-71.98 -119.29,-312.29 9.54,-353.02 106.96,-33.82 365.29,21.44 497.58,2.92 226.66,-31.72 440.61,-295.8 658.01,-390.34zm-141.27 -523.91c344.43,192.24 114.2,447.98 -110.66,594.67 -271.12,176.87 -432.63,311.64 -788.83,246.91 -168.53,-30.62 -232.13,-135.2 -163.55,-300.77 130.58,-315.31 297.77,-60.48 770.4,-298.86 161.63,-81.51 169.74,-171.43 292.64,-241.95zm-512.76 -481.18l19.49 -325.38c179.8,-11.95 415.86,-26.13 525.94,135.82 99.79,146.79 82.9,355.86 -5.95,504.31 -128.17,214.14 -575.07,523.18 -835.88,444.67 -280.42,-388.42 411.51,-503.88 472.95,-872.98 -119.32,29.84 -81.61,54.52 -176.55,113.56zm-2548.13 -5283.02l-52.31 8.71c-37.54,-65.8 -16.23,-45.91 -85.86,-74.06 45.81,188.01 8.88,205.26 -55.32,368.96 -42.69,108.85 -75.71,222.09 -117.08,332.01 -52.78,140.22 -159.63,566.53 -270.27,631.53 8.9,211.89 -251.33,722.96 -394.35,884.46 -278.14,314.07 -1068.81,996.82 -1371.68,1172.33 -349.24,202.4 -605.65,10.61 -888.68,-194.32 -429.72,-311.16 -1071.4,-751 -1330.09,-1214.17 -151.41,-271.11 -677.49,-1585.52 -679.17,-1852.93l-84.76 86.49 76.76 301.03c-160.23,-70.16 -480.62,-455.74 -689.05,-420.04 -75.44,94.98 -77.78,348.43 24.85,425.01 75.31,-101.22 -26.09,-190.58 12.33,-346.89 89.68,10.65 251.84,116.51 313.34,181.89 -10.36,140.51 -145.63,315.21 -50.45,445.78 94.4,-58.94 30.75,-189.12 93.63,-319.18 174.8,-28.16 441.08,266.15 444.01,438.57 -114.73,-36.9 -220.35,-179.19 -353.82,-91.69 70.8,82.82 256.03,61.69 422.5,317.54 84.26,129.51 219.37,349.1 205.53,504.33 -304.99,10.58 -399.59,-190.51 -588.63,-214.39 33.41,262.23 514.57,244.47 665.03,343.56 26.08,87.14 2.39,173.76 -97.19,199.71 -141.47,36.86 -465.63,-235.81 -572.65,-316.48 -786.65,-592.91 -445.21,-422.24 -621.27,-608.89l3.35 95.43 -190.32 -87.89c22.36,64.43 165.19,130.51 329.47,332.33 85.87,105.49 242.73,192.92 362.01,279.07 455.44,328.89 523.03,460.1 842.21,309.03 75.39,76.68 101.54,76.88 126.28,191.65 -74.37,57.34 -757.73,281.6 -902.78,331.47 -153.67,52.85 -302.93,106.76 -454.28,165.53 -150.25,58.33 -309.15,83.35 -449.54,160.87 -94.89,38.79 -171.01,55.75 -264.11,86.79 -82.1,27.36 -133.52,92.96 -201.12,141.6 -151.5,109.02 -389.27,81.13 -563.51,112.16 10.26,150.75 672.13,-18.89 923.08,-17.4l-272.76 0.74c-13.92,-139.85 -7.37,-28.91 22.55,-76.96 76.62,-17.05 416.82,-186.66 532.77,-231.6 257.43,-99.77 1660.31,-623.22 1752.95,-555.67 67.32,106.25 55.32,478.66 95.62,654.15 43.87,190.99 165.37,393.08 195.26,554.2 -152.74,-10.07 -308.67,-80.37 -456.79,-122.52 -154,-43.81 -310.11,-76.34 -466.66,-108.54 -219.72,-45.19 -851.95,-157.81 -1040.82,-105.7l-64 17.67c56.48,3.68 28.79,4.45 48.05,33.23 370.01,23.54 654.13,73.79 1013.62,120.72 -17.49,67.4 1.58,10.65 -54.47,69.49 145.49,65.22 728.16,256.09 867.92,257.16 -55.5,-72.77 -572.98,-263.24 -670.57,-278.47 260.34,-11.83 574.66,188.33 805.13,169.84 93.63,67.46 126.8,105.3 213.29,28.34 -222.42,-348.93 -406.02,-666.16 -356.46,-1117.74 161.27,75.96 577,455.75 750.13,594.77 919.39,738.25 1081.46,569.97 1760.45,36.87 133.74,-105.01 237.73,-205.07 361.82,-322.38l270.41 -242.99c15.11,-11.72 34.18,-27.26 48.47,-37.68 58.61,-42.68 13.89,-18.38 64.95,-38.3 28.78,239.65 -77.59,618.72 -169.39,853.95 -30.94,79.3 -98.71,172.26 -114.28,243.51 85.66,61.87 119.02,10.38 177.71,-59.35l-44.49 -8.36c49.49,-189.22 136.03,-351.12 176.9,-535.9 34.97,-158.14 27.88,-530.06 91.54,-634.8 153.25,-52.84 1223.9,276.85 1461.38,336.62 267.73,67.38 1247.04,252.12 1325.29,486.86l-443.32 -6.16c86.56,49.31 475.98,56.58 624.31,105.6 103.09,34.06 126.65,94.22 216.8,147.43 94.82,55.94 189.89,50.3 193.17,154.22 -50.02,15.55 -27.5,-25.26 -123.04,23.62l176.33 86.39 116.59 33.65c38.88,210.71 -88.93,1056.23 -115.37,1317.46 -16.31,161.02 0.19,495.85 -147.82,578.87 -111.56,62.57 -130.87,51.55 -173.25,190.09 -34.04,111.24 -31.23,232 -42.77,345.1 -302.73,189.13 -206.47,381.28 -194.49,533.64 7.63,97.14 -19.2,131.53 -33.91,219.22 -34.92,208.27 109.19,284.71 107.68,371.19 -2.21,127.64 -126.92,362.62 90.42,381.12 103.09,-25.48 53.99,1.33 136.91,14.09 96.85,14.88 88.39,17.78 131.47,-36.42 -102.15,-11.52 -217.34,-12.2 -298.1,-74.52 -22.8,-116.01 -27.18,-190.8 43.2,-289.95 209.12,-32.93 402.91,74.4 602.52,-21.6 110.2,-53.01 325.04,-194.24 361.19,-297.18l170.27 -55.25c-1.39,-176.17 79.74,-97.58 100.83,-255.87 12.7,-95.27 -6.81,-220.29 -62.04,-297.4 17.49,-62.1 88.06,-152.14 3.4,-327.77l-123.16 -262.58c69.06,-130.46 175.15,-227.87 21.97,-577.5 -92.56,-211.31 -381.95,-175.47 -574.92,-195.13 -66.18,-266.89 115.19,-1184.58 108.1,-1244.48 -18.28,-154.46 -693.88,-452.48 -783.83,-624.35 -103.27,-88.43 -98.37,-131.95 -253.13,-195.07 -165.22,-67.38 -2222.47,-589.01 -2498.77,-666.11l111.73 -267.39c184.73,123.5 208.27,145.98 395.72,16.56 73.64,-50.84 114.75,-38.85 180.28,-96.77 61.68,-54.49 95.37,-83.31 167.1,-132.64 93.97,-64.64 203.23,-202.56 291.24,-286.02 82.95,-78.67 74.62,-47.72 121.72,-156.41 38.76,-89.45 86.21,-115.46 115.1,-189.29l-53.72 -0.05 -6.61 -87.25c-70.6,78.88 -133.1,245.54 -212.76,353.68 -96.58,131.11 -801.13,799.52 -926.14,508.82 -5.93,-102.38 2.24,-109.28 38.25,-199.04 150.86,-65.44 618.45,-110.37 645.48,-324.65 -183.24,7.92 -314.85,237.5 -568.02,196.9 -2.71,-145.15 142.89,-448.96 216.81,-583.61 173.83,-316.55 265.69,-202.92 437.13,-352.27 -105.27,-97.1 -197.36,29.33 -316.61,43.28 -6.48,-156.98 173.83,-392.11 337.05,-405.26 127.54,125.54 11.91,210.3 114.5,295.95 139.66,-110.53 -27.99,-286.39 -63.72,-400.07 42.19,-71.7 145.7,-168.9 226.02,-185.81 24.65,124.85 -28.13,197.96 10.24,328.69 124.97,-46.06 101.51,-309.33 44.93,-406.82 -208.83,-61.23 -380.07,302.68 -536.84,352.06l52.27 -167.61z"/>
   <g>
    <path class="fil11" d="M13830.59 12011.84l-99.88 -86.63c56.74,-108.04 546.91,-293.46 684.34,-350.9 171.85,-71.81 597.12,-289.6 758.16,-281.33 -14.11,107.87 -92.81,302.82 -153.71,393.87 -116.89,174.78 -723.99,287.68 -827.76,248.25 -85.92,-32.63 -86.6,-91.62 -201.5,-58.93 -56.22,15.99 -105.88,93.06 -159.65,135.67zm529.33 -888.79c-56.6,91.11 -723.15,532.94 -838.61,525.34 -10,-107.29 6.44,-170.28 -36.58,-272.53 -56.43,94.22 -60.3,453.59 47.01,535.72 77.14,59.05 77.76,8.36 200.5,120.23 157.06,143.14 858.7,-90.59 1083,-143.24 110.7,-25.99 177.22,-83.45 242.13,-93.72 29.59,-124.51 95.93,-236.72 142.13,-355.16 99.84,-255.94 31.61,-156.79 255.46,-258.27 8.34,-152.69 -134.08,-383.66 -239.37,-481.36 -323.66,-2.07 -575.93,346.86 -855.67,422.99z"/>
    <g>
     <path class="fil11" d="M12611.78 12034.34c-277.25,29.55 -785.54,-118.12 -926.13,-373.05 -121.37,-220.09 -166.76,-931.41 -122.15,-1180.78 107.34,0.41 142.8,71.04 218.51,145.03l908.69 887.34c110.85,108.19 366.17,306.98 275.92,409.62 -138.16,74.76 -44.06,-19.82 -203.52,-23.63 -120.2,-2.89 -109.61,51.92 -151.32,135.47zm-1497.68 -2766.08c-38.99,74.77 -17.44,552.04 -20.91,675.34 -4.26,150.44 -87.12,298.68 10.61,609.37 176.77,11.74 209.87,-193.88 369,-151.87 35.08,127.68 11.48,643.48 33.48,846.47 58.45,539.32 273.03,762.07 898.99,841.53 583.9,74.11 432.53,23.03 646.6,-165.82l134.48 57.92c66.48,-96.49 52.92,-301.32 75.45,-425.36 20.74,-114.14 103.73,-285.64 54.74,-378.85 -121.51,40.08 -46.51,339.71 -153.2,463.59 -67.11,-21.69 -790.88,-962.54 -893.09,-1097.67 -141.99,-187.7 -304.42,-365.96 -470.57,-533.35 -56.62,-57.04 -72.08,-160.78 -283.45,-231.09 -223.55,-74.37 -244.93,95.28 -331.26,128.42 -43.64,-162.28 56.48,-522.97 -70.87,-638.63z"/>
     <path class="fil17" d="M13671.69 647.85c-69.94,437.16 -178.59,767.37 -370.24,1151.15 -75.29,150.76 -163.81,383.94 -345.51,426.26 -25.41,-109.08 -62.7,-215.6 -86.78,-332.15 -41.28,-199.79 -97.77,-987.95 -221.96,-1078.92 -33.87,126.81 -271.84,429.72 -352.85,551.2 -123.77,185.59 -247.39,360.35 -365.68,560.42 -306.59,518.5 -746.83,1888.17 -895.1,501.62l-40.36 -841.56c-1887.08,1263.23 -2228.65,4508.05 -1923.92,6510.92 -178.23,9.08 -863.59,-248.42 -971.39,-92.29 -84.05,121.77 221.98,836.87 252.89,963.42 97.68,400.04 352.84,717.43 600.76,1030.92 31.58,39.95 41.47,45.87 72.08,82.28 103.68,123.32 318.91,325.59 359.68,478.23 -402.12,0 -969.36,-389.48 -1323.2,-418.91 9.28,111.39 92.7,218.92 151.07,289.92 68.82,83.73 129.4,156.62 207.25,233.77l696.91 648.17c188.25,151.57 618.68,498.32 863.41,503.78 -29.34,-352.51 -486.65,-1524.13 294.3,-1132.05 82.35,41.33 121.95,65.03 197.82,110.9 83.49,50.49 115.87,92.47 235.64,95.14 81.16,-121.18 194.78,-539.43 198.47,-705.53 -111.8,0 -120.15,22.04 -242.58,22.04 0,-405.25 10.46,-752.06 113.44,-1099.22 58.56,-197.39 69.2,-397.45 142.65,-607.01 333.58,-951.66 918.31,-1216.85 1508.27,-322.27 341.22,517.4 548.98,1103.2 746.76,1700.75 39.62,119.7 109.12,259.6 135.28,371.85l44.1 0c18.32,-78.6 46.46,-93.36 81.02,-161.53 34.02,-67.1 45.4,-114.2 80.61,-183.98 58.95,-116.86 103.97,-228.75 153.39,-353.75 196.63,-497.32 547.03,-1236.87 914.44,-1621.3 170.26,-178.15 331.82,-399.91 603.57,-433.99 89.3,-11.2 152.1,-3.43 212.38,26.15l114.18 84.3c187.14,178.7 293.48,454.46 359.84,742.64 29.46,127.98 -3.9,282.33 43.67,418.31 89.11,254.73 84.47,883.73 84.06,1197.28 -0.16,120.82 -20.69,146.45 -22.81,241.77 -475.38,0 -443.77,-204.32 -400.04,-576.61 17.51,-149.02 -18.97,-204.69 -18.97,-327.35l-44.11 0c-21.01,252.38 -53.59,649.71 30.71,873.26 33.56,89 53.81,75.92 113.52,129.04 96.27,85.66 112.99,206.04 170.83,314.26 67.05,125.44 73.07,23 103.96,138.6 215.92,-4.81 422.6,-448.17 617.48,-352.76 215.27,105.38 -44.1,1034.13 -44.1,1366.96 154.3,0 190.03,-25.26 280.9,-93.98 88.84,-67.19 121.65,-98.73 198.77,-176.09 74.17,-74.43 109.27,-112.77 195.1,-179.75 122.63,-95.69 395.81,-451.91 532.24,-592.34 89.6,-92.22 302.79,-314.4 314.67,-457.1 -366.61,8.17 -665.25,242.54 -1036.51,242.54 33.37,-143.22 190.56,-289.9 273.87,-409.68 97.55,-140.26 177.91,-268.74 268.15,-415.4 87.96,-142.93 178.04,-288.94 252.19,-431.36 166.16,-319.17 263.41,-655.9 371.86,-995.2 56.67,-177.32 103.88,-355.42 154.53,-529 52.33,-179.35 100.97,-347.24 148.04,-535.46 41.79,-167.01 119.2,-377.43 119.2,-564.33 -94.76,2.11 -114.49,28.79 -172.65,69.92 -332.77,235.31 -680.14,467.14 -1040.28,657.66 63.82,-273.91 117.69,-827.76 151.15,-1127.66 61.68,-552.88 -7.39,-1271.5 -91.13,-1820.61 -25.85,-169.46 -72.39,-349.83 -112.93,-526.49l-129.99 -509.44c-70.36,-196.12 -47.16,-286.13 -169.96,-469.47 -137.27,100.56 -530.5,953.26 -638.81,1169.27 -35.71,71.21 -48.44,108.97 -133.06,131.56 -13.27,-595.64 -403.41,-1667.69 -603.42,-2240.9 -41.5,-118.91 -90.29,-181.67 -145.12,-273.82 -104.82,-176.24 -215.17,-318 -327.36,-488.5l-827.2 -804.54c-819.15,-689.77 -539.51,-551.34 -667.09,246.04z"/>
    </g>
   </g>
   <g>
    <path class="fil4" d="M13195.67 10962.97c60.65,-111.2 2.83,-122.09 -52.67,-223.04 -77.66,-141.28 -231.42,-488.08 -381.23,-515.61 25.42,99.7 143.3,276.23 200.05,375.53 61.68,107.94 132.56,308.85 233.85,363.12z"/>
    <path class="fil4" d="M11805.36 12469c101.04,44.85 439.45,-112.09 573.07,-132.71 143.09,-22.09 598.85,-18.82 685.06,-62.93 -11,-39.61 39.68,-23.89 -47.97,-58.01 -114.46,-44.55 -983.77,49.21 -1210.16,253.65z"/>
    <path class="fil4" d="M13378.59 11990.15c64.46,-101.04 24.38,-40.58 18.81,-233.8 -3.62,-126.29 22.63,-146.11 -13.94,-252.76 -35.92,27.6 -67.35,-11.76 -62.59,224.96 2.06,102.37 -7.21,199.98 57.72,261.6z"/>
   </g>
   <path class="fil11" d="M16510.04 17270.64c-16.69,36.78 -22.82,57.87 -14.84,114.08l145.62 -8.69 6.64 409.81 79.69 3.42 -16.94 -446.85 161.27 -13.96 1.96 -78.37c-189.86,-17.88 -212.74,12.4 -363.4,20.56zm-2267.56 504.6l70.05 -0.77 6.54 -515.95 -91.18 12.25 14.59 504.47zm2771.11 -210.07c-53.63,-294.14 347.68,-352.66 389.72,-85.8 45.21,287 -343.1,341.53 -389.72,85.8zm82.83 -326.33l-19.93 24.6c-15.64,16.28 -8.72,10.3 -30.62,29.8 -42.1,37.48 -102.7,82.4 -122.59,165.64 -36.38,152.21 31.89,223.23 88.34,303.49 112.3,9.77 136.06,83.21 300.99,11.58 221.03,-95.98 262.8,-358.81 95.39,-494.47 -89.69,-72.68 -209.78,-29.83 -311.58,-40.64zm528.13 344.79c100.08,-22.37 7.4,1.81 87.78,-184.46 32.76,-75.91 75.73,-110.41 74.13,-209.49 -128.54,-10.13 -120.98,12.18 -170.07,260.66 -12.52,63.4 -23.79,88.56 8.16,133.29zm-3105.78 -286.88l-89.65 -4.03c-39.25,68.59 -32.21,440.65 -0.03,514.35 92.09,-1.14 67.47,-40.9 61.42,-133.21 -4.54,-69.23 -5.29,-125.96 -2.41,-195.46 71.91,9.66 198.82,178.51 233.37,248.1l7.14 11.7c37.58,19.04 58.72,30.8 117.01,28.8 4.95,-58.45 23.57,-517.24 19.07,-533.55 -84.75,-3.86 -73.35,50.17 -77.21,133.18 -3.9,83.41 -4.65,142.19 -17.78,217.62 -50.08,-24.39 -240.74,-247.82 -250.93,-287.5zm599.48 -36.53c-51.78,68.92 -178.65,100.41 -164.16,247.31 126.4,49.74 302.58,-6.57 385.78,75.58 -14.6,77.58 -78.45,124.52 -174.8,129.66 -162.74,8.66 -110.07,-67.63 -221.55,-100.8 0.13,115.74 42.6,187.08 167.14,182.76 119.83,-4.16 165.66,-66.76 240.56,-85.17 26.19,-52.19 -3.07,-1.91 33.11,-49.58 14.49,-19.08 46.52,-42.4 53.92,-95.97 6.9,-49.94 3.93,15.52 0.92,-32.95 -8.65,-139.58 -250.21,-46.71 -366.88,-109.36 21.48,-43.53 57.08,-78.91 115.19,-88.78 156.58,-26.58 34.54,51.22 148.8,28.58 2.79,-5.46 6.12,-19.65 6.82,-17.08 0.47,1.72 20.61,-25.75 8.25,-66.73 -25.64,-85.02 -91.34,-40.54 -233.1,-17.47zm456.89 0.15c-30.55,31.11 -14.19,19.77 -55.55,44.86 -1.6,64.09 -11.67,202.04 -8.88,237.92 4.83,61.97 17.07,159.41 22.33,241.43 55.04,17.06 148.06,12.65 231.5,4.38l134.81 -36.5c27.55,-64.97 13.13,-9.14 24.24,-84.44 -122.95,-3.07 -209.12,51.36 -319.86,32.32 -11.99,-143.22 -27.44,-147.87 110.7,-175.29 165.25,-32.78 189.44,0.86 229.12,-67.49 -77.69,-89.32 -254.88,-2.26 -347.38,-1.05 0.16,-82.34 19.61,-96.98 99.93,-112.26 149.63,-28.47 118.39,9.18 161.77,-48.1 -24.73,-52.57 -1.91,-48.93 -80.26,-58.7 -33.3,-4.15 -101.78,6.05 -136.86,9.85l-65.61 13.07zm608.66 17.93c-81.22,95.94 -173.14,110.5 -192.6,290.45 -20.65,190.93 87.36,231.64 262.4,210.69l134.5 -52.94c62.12,-81.98 53.41,-12.52 76.79,-115.23 -152.67,20.48 -265.47,180.82 -398.78,25.65 -53.23,-117.75 135,-282.69 239.44,-289.8 121.31,-8.25 -31.84,49.48 116.22,41.88 27.92,-57.65 12.92,-88.18 -17.96,-136.01l-179.42 10.1c-17.41,19.86 -7.39,13.73 -40.59,15.21zm1404.86 483.74c77.8,-12.55 62.79,-22.8 59.73,-111.22 -81.9,7.4 -104.52,27.25 -59.73,111.22z"/>
   <path class="fil11" d="M10246.49 17753.73l197.67 -2.02 25.39 -14.26c91.37,-42.35 141.57,-25.78 151.59,-117.99 -60.67,-27.36 -206.13,31.25 -318.89,26.07l-7.96 -418.66 -65.75 5.69c-30.72,70.3 -18.29,424.5 17.95,521.17zm1054.26 -16.07c15.1,-58.59 -4.37,-255.77 5.17,-387.66 0.85,-11.65 5.08,-63.65 4.13,-71.66 -10.97,-92.88 3.17,-21.24 -22.34,-55.1 -86.13,14.87 -66.78,-6.8 -60.92,252.74 6.46,285.16 -24.94,244.22 73.96,261.68zm-1404.99 -321.72c49.61,-89.92 -0.29,-21.22 53.76,-55.98 25.36,67.53 64.19,130.08 70.65,214.77l-186.18 41.79 61.77 -200.58zm-710.41 -119.22c-32.73,277.2 -174.43,371.19 -87.79,463.7 94.38,-39.27 78.16,-240.1 143.62,-306.16l37.1 74.98c10.2,31.46 14.96,52.99 24.47,83.2 12.27,38.91 28.88,112.79 46.14,143.17 121.51,-9.23 49.04,-186.37 160.78,-332.49 20.88,52.26 44.08,141.73 62.49,205.48 37.27,129.06 110.75,130.78 110.86,130.6 2.88,-4.41 10.93,4.87 15.3,8.81 97.46,-18.43 29.95,-11.03 94.42,-45.43 35.05,-18.7 78.22,-25.81 123.78,-35.08 272.63,-55.48 104.56,54.3 249.57,40.43 22.69,-93.03 -70.15,-197.98 -106.46,-281.85 -19.5,-45.06 -37.04,-86.33 -55.36,-140.17 -30.74,-90.29 -18.57,-101.16 -116.73,-94.27 -0.37,73.49 -139.13,387.86 -197.56,447.85 -60.55,-55.47 -69.52,-129.96 -97.86,-229.15 -23.04,-80.63 -32.93,-185.85 -81.66,-241.86 -59.44,31.67 -37.78,1.49 -76.21,175.19 -14.6,65.96 -31.84,142.78 -67.4,192.08l-108.13 -323.7c-69.69,0.8 -39.84,-11.67 -73.37,64.67zm1568.38 355.75c-8.77,-85.76 -36.18,-241.53 11.69,-302.35 56.05,-71.21 214.58,-57.86 266.35,5.08 138.95,168.89 -113,313.3 -278.04,297.27zm-85.78 -313.42c-4.01,118.17 -13.04,299.06 19.29,396.06l29.53 7.97c126.88,14.12 464.79,-92.25 441.28,-337.99 -10.78,-112.79 -100.51,-192.4 -211.3,-195.54 -132.3,-3.76 -211.23,78.52 -278.8,129.5zm1094.55 -49.78c-12.17,-68.73 1.37,-78.37 -96.75,-85.03 -109.61,-7.45 -322.77,-9.01 -296.52,136.28 199.79,43.76 131.62,-150.16 151.34,316.84 3.89,92 -3.15,88.86 72.33,88 26.89,-50.8 -5.21,-258.47 8.95,-439.03l160.65 -17.06zm129.8 258.45c-67.91,-284.89 309.18,-391.25 385.73,-130.84 34.51,117.42 -35.13,234.2 -121.12,265.54 -119.86,43.67 -242,-39.87 -264.61,-134.7zm257.02 210.61c17.2,-12.81 64.17,-25.82 102.85,-53.95 36.25,-26.36 67.86,-60.18 88.8,-91.22 56.86,-84.34 32.59,-201.79 30.22,-294.91 -4.3,-2.8 -10.58,-12.46 -12.57,-8.9l-43.42 -35.76c-403.84,-368.01 -860.51,524.97 -165.88,484.74zm-3201.91 -374.31c6.7,72.39 -29.44,158.79 -66.2,199.66 -22.8,69.67 -34.97,66.69 -38.76,145.78l100.6 0.47c28.97,-60.78 105.53,-312.64 64.75,-390.79l-60.39 44.88zm122.72 -238.93c-89.99,11.23 -113.29,52.23 -62.33,121.06 80.58,-17.53 53.68,-24.71 62.33,-121.06z"/>
   <path class="fil2" d="M9960.07 11731.86c176.06,186.65 -165.38,15.98 621.27,608.89 107.02,80.67 431.18,353.34 572.65,316.48 99.58,-25.95 123.27,-112.57 97.19,-199.71 -150.46,-99.09 -631.62,-81.33 -665.03,-343.56 189.04,23.88 283.64,224.97 588.63,214.39 13.84,-155.23 -121.27,-374.82 -205.53,-504.33 -166.47,-255.85 -351.7,-234.72 -422.5,-317.54 133.47,-87.5 239.09,54.79 353.82,91.69 -2.93,-172.42 -269.21,-466.73 -444.01,-438.57 -62.88,130.06 0.77,260.24 -93.63,319.18 -95.18,-130.57 40.09,-305.27 50.45,-445.78 -61.5,-65.38 -223.66,-171.24 -313.34,-181.89 -38.42,156.31 62.98,245.67 -12.33,346.89 -102.63,-76.58 -100.29,-330.03 -24.85,-425.01 208.43,-35.7 528.82,349.88 689.05,420.04l-76.76 -301.03c-133.25,-23.45 -702.1,-507.21 -833.99,-194.94 -51.01,120.8 3,381.69 23.98,540.82 20.51,155.64 68.93,338.03 94.93,493.98z"/>
   <path class="fil2" d="M12041.9 14258.58c204.31,85.22 462.34,216.67 660.77,321.7 147.08,77.85 509.04,372.84 650.17,338.07 86.31,-21.26 775.5,-521.54 1305.16,-689.76 15.57,-71.25 83.34,-164.21 114.28,-243.51 91.8,-235.23 198.17,-614.3 169.39,-853.95 -51.06,19.92 -6.34,-4.38 -64.95,38.3 -14.29,10.42 -33.36,25.96 -48.47,37.68l-270.41 242.99c-124.09,117.31 -228.08,217.37 -361.82,322.38 -678.99,533.1 -841.06,701.38 -1760.45,-36.87 -173.13,-139.02 -588.86,-518.81 -750.13,-594.77 -49.56,451.58 134.04,768.81 356.46,1117.74z"/>
  </g>
  <path class="fil18 str2" d="M-22.1 1635.51l2160.3 5568.83 2393.52 -433.41c79.1,141.84 1602.36,2302.23 1772.7,2378.89l217.84 -2719.35c224.1,-106 850.48,-189.36 1134.07,-241.99l1185.43 -264.47 -215.55 -5957.59 -8648.31 1669.09z"/>
  <path class="fil19" d="M394.15 1832.88l1944.94 5003.84 2166.95 -373.75c279.07,364.14 510.28,727.3 783.25,1087.8 207.01,273.38 603.58,887.78 816.26,1074.43 35.29,-412.66 68.15,-823.04 102.75,-1239.91 26.25,-316.22 -23.32,-1018.72 147.5,-1226.27 283.72,-254.7 1583.45,-238.82 2037.05,-447.28l-177.34 -5377.46 -7821.36 1498.6z"/>
  <path class="fil18" d="M5785.26 3790.06c-19.27,65.94 -24.53,102.93 2.41,195.66l243.14 -49.64 109.67 688.51 135.03 -13.4 -135.93 -748.4 268.2 -62.26 -15.52 -132.45c-324.01,15.53 -355.27,72.02 -607,121.98zm-3697.18 1394.74l117.77 -18.13 -113 -870.4 -150.6 42.54 145.83 845.99zm4615.91 -1019.81c-161,-482.42 500.72,-677.43 635.65,-238.16 145.12,472.44 -495.68,657.6 -635.65,238.16zm61.04 -569.43l-27.64 46.21c-22.41,31.18 -12.2,19.44 -44.4,57.55 -61.88,73.22 -153.14,163.43 -166.62,308.38 -24.68,265.07 107.35,368.25 221.71,489.84 191.45,-10.54 249.11,107.41 509.63,-52.84 349.14,-214.76 356.3,-667.4 41.79,-855.6 -168.51,-100.84 -360.43,0.18 -534.47,6.46zm972.24 453.67c163.13,-61.73 12.88,1.27 103.47,-331.73 36.93,-135.7 100.99,-204.12 74.48,-370.59 -218.89,13.84 -200.81,49.6 -223.74,479.81 -5.85,109.78 -18.77,154.87 45.79,222.51zm-5298.95 263.41l-151.92 14.75c-49.62,124.95 51.67,749.78 123.57,866.16 154.81,-24.05 103.79,-85.1 71.42,-239.08 -24.28,-115.5 -39.19,-210.84 -51.05,-328.57 123.42,-1.01 377.72,252.8 452.62,361.69l14.83 17.99c67.87,23.03 106.29,37.76 203.96,20.37 -5.71,-99.62 -84.62,-876.68 -96.13,-903.04 -143.64,13.87 -111.45,102.11 -98,242.81 13.49,141.4 26.35,240.57 22.36,370.74 -90.19,-29.04 -464.95,-359.44 -491.66,-423.82zm1000.73 -205.61c-70.64,128.51 -276.71,212.03 -217,455.92 224.81,53.37 507.94,-83.79 667.79,34.54 -5.93,134.15 -102.17,228.54 -263.18,260.35 -271.97,53.71 -201.6,-87.42 -397.3,-116.48 28.03,194.87 116.7,304.79 325.37,267.58 200.8,-35.8 262.92,-152.23 384.63,-201.24 31.56,-94.18 -5.63,-2.48 43.84,-91.45 19.81,-35.62 68.14,-82.58 67.73,-174.57 -0.39,-85.75 10.34,25.19 -6.37,-55.7 -48.13,-232.97 -432.58,-18.51 -644.1,-95.98 25.71,-78.45 77.15,-146.6 172.63,-177.19 257.29,-82.39 70.48,77.96 257.45,12.36 3.38,-9.86 5.58,-34.55 7.38,-30.39 1.2,2.77 28.52,-48.32 -2.15,-114.35 -63.62,-137.01 -163.55,-46.31 -396.72,26.6zm769.4 -109.57c-43.95,59.74 -19.13,36.71 -82.75,88.91 12.71,108.3 28.9,343.02 42.23,402.78 23.03,103.18 67.06,264.33 95.63,401.19 96.8,15.48 252.37,-14.3 390.88,-48.28l218.25 -93.86c30.78,-116.03 19.92,-18.55 20.53,-148.02 -207.79,24.38 -339.82,136.75 -530.87,131.3 -54.6,-238.3 -81.74,-242.41 144.28,-321.78 270.39,-94.92 319.22,-44.09 369.61,-168.72 -152.29,-131.75 -429.75,57.45 -585.22,81.73 -19.52,-138.7 9.71,-168.03 141.29,-213.06 245.13,-83.92 201.56,-13 260.85,-119.89 -54.27,-82.57 -14.98,-81.94 -149.26,-79.55 -57.08,1.01 -169.94,34.65 -228.09,49.48l-107.36 37.77zm1029.27 -116.09c-113.71,181.07 -265,227.69 -254.52,535.38 11.12,326.5 202.79,369.08 492.52,291.73l213.76 -121.48c84.91,-152.97 86.93,-33.92 101.61,-212.5 -252.16,71.19 -403.58,368.31 -665.35,139.04 -117.95,-185.47 159.38,-508.48 333.54,-545.55 202.29,-43.04 -41.72,90.97 205.78,42.58 33.16,-103.78 0.56,-151.59 -62.93,-224.7l-299.72 60.13c-24.53,37.62 -9.15,24.89 -64.69,35.37zm2481.97 476.91c128,-39.83 100.27,-53.48 73.86,-201.63 -136.14,32.14 -169.46,71 -73.86,201.63z"/>
  <path class="fil18" d="M4029.03 3212.49l332.38 -50.92 39.32 -30.1c143.69,-93.29 232.2,-77.45 226.91,-235.14 -108.74,-31.48 -339.6,102.18 -530.72,120.55l-114.04 -703.08 -109.35 25.38c-34.84,125.77 71.24,719.24 155.5,873.31zm1771.45 -280.46c11.34,-102.29 -68.84,-429.65 -84.48,-654.04 -1.36,-19.82 -6.74,-108.41 -10.26,-121.66 -40.79,-153.78 0.23,-36.53 -50.87,-87.42 -141.46,45.74 -114.08,4.59 -41.83,440.24 79.42,478.64 16.7,417.25 187.44,422.88zm-2443.26 -204.05c61.94,-163.36 -5.58,-35.67 77.08,-107.2 58.94,107.62 139.36,203.62 170.59,344.69l-303.47 115.11 55.8 -352.6zm-1224.95 -30.01c11.51,474.65 -204.5,666.98 -36.37,801.94 149.48,-88.81 73.89,-423.1 168.25,-550.08l80.5 117.35c24.74,50.53 37.94,85.63 61.21,134.22 30,62.58 75.74,183 112.1,230 202.4,-44.74 37.79,-325.61 190.84,-598.53 47.71,82.98 108.28,228.07 154.62,330.99 93.77,208.37 217.91,193.6 218.06,193.28 3.8,-8.11 19.58,5.58 27.89,11.15 159.68,-54.45 47.78,-25.76 148.07,-99.19 54.54,-39.92 125.52,-62.27 200.02,-88.83 445.76,-158.96 189.12,66.3 429.97,8.11 15.86,-162.12 -165.71,-316.54 -247.01,-449.05 -43.68,-71.18 -83.13,-136.46 -126.93,-222.72 -73.46,-144.66 -55.57,-165.88 -219.21,-130.69 17.03,123.84 -141.07,686.57 -225.04,801.64 -115.29,-78.86 -148.31,-202.14 -219.87,-362.35 -58.18,-130.25 -100.13,-305.05 -195.64,-387.66 -92.49,67.63 -63.28,11.59 -86.24,313.33 -8.72,114.59 -19.29,248.08 -67.33,339.66l-259.88 -519.11c-117.16,18.09 -69.89,-10.07 -108.01,126.54zm2726.58 222.08c-35.39,-142.31 -118.99,-398.02 -52.98,-511.95 77.27,-133.38 347.42,-149.01 449.74,-55.47 274.57,251.01 -114.99,554.76 -396.76,567.42zm-219.79 -507.16c21.65,199.95 49.93,506.73 127.69,662.31l51.65 6.32c217.04,-6.71 760.5,-267.05 661.85,-675.21 -45.26,-187.35 -215.51,-299.84 -402.82,-278.5 -223.69,25.47 -336.83,182.99 -438.37,285.08zm1831.2 -346.91c-37.01,-112.82 -16.53,-132.3 -183.36,-119.93 -186.36,13.8 -545.69,62.4 -466.56,300.75 346.96,25.68 185.54,-284.49 331,497.18 28.67,153.97 16.06,150.39 142.95,130.8 33.08,-92.01 -70.9,-434 -90.44,-741.47l266.41 -67.33zm280.71 404.01c-182.84,-463.41 426.6,-733.16 618.09,-313.04 86.34,189.44 -2.86,402.83 -140.12,476.27 -191.35,102.35 -417.1,-8.96 -477.97,-163.23zm483.43 292.88c25.88,-25.7 101.85,-58.9 160.22,-115.57 54.7,-53.1 99.8,-117.64 127.61,-174.95 75.47,-155.69 6.37,-347.64 -19.99,-503.88 -7.93,-3.68 -20.81,-18.43 -23.31,-11.96l-81.72 -49.78c-768.49,-522.64 -1322.87,1090.85 -162.81,856.14zm-5481.83 139.29c28.69,120.3 -11.4,274.47 -63.47,352.13 -21.66,122.81 -42.86,120.71 -30.23,254.81l169.51 -23.4c34.17,-109.31 102.56,-551.83 15.11,-673.63l-90.92 90.09zm149.24 -431.83c-148.85,40.53 -178.22,115.18 -75.87,218.83 131.47,-48.88 84.45,-54.51 75.87,-218.83z"/>
 </g>
</svg>
