<?xml version="1.0" encoding="UTF-8"?>
<!DOCTYPE svg PUBLIC "-//W3C//DTD SVG 1.1//EN" "http://www.w3.org/Graphics/SVG/1.1/DTD/svg11.dtd">
<!-- Creator: CorelDRAW 2017 -->
<svg xmlns="http://www.w3.org/2000/svg" xml:space="preserve" width="180.622mm" height="180.622mm" version="1.1" style="shape-rendering:geometricPrecision; text-rendering:geometricPrecision; image-rendering:optimizeQuality; fill-rule:evenodd; clip-rule:evenodd"
viewBox="0 0 18062.2 18062.2"
 xmlns:xlink="http://www.w3.org/1999/xlink">
 <defs>
  <style type="text/css">
   <![CDATA[
    .fil0 {fill:none}
    .fil13 {fill:black}
    .fil14 {fill:#091B24}
    .fil1 {fill:#100D52}
    .fil5 {fill:#112E36}
    .fil10 {fill:#2033C5}
    .fil12 {fill:#20B8C6}
    .fil19 {fill:#281917}
    .fil3 {fill:#292B2A}
    .fil18 {fill:#2F2605}
    .fil9 {fill:#4C90C7}
    .fil16 {fill:#594601}
    .fil20 {fill:#767879}
    .fil2 {fill:#835F00}
    .fil17 {fill:#A33D4D}
    .fil6 {fill:#ACB1B3}
    .fil7 {fill:#D38642}
    .fil4 {fill:#DFBE00}
    .fil15 {fill:#E88796}
    .fil8 {fill:#EFEDED}
    .fil11 {fill:#FDD8A3}
   ]]>
  </style>
 </defs>
 <g id="Capa_x0020_1">
  <metadata id="CorelCorpID_0Corel-Layer"/>
  <rect class="fil0" width="18062.2" height="18062.2"/>
  <path class="fil1" d="M10136.46 13962.34c298.37,123.43 216.66,117.25 601.12,163.8 -29.97,-158.29 -41.48,-319.23 -222.22,-303.67 -22.02,1.9 -369.57,133.07 -378.9,139.87z"/>
  <path class="fil1" d="M7614.49 15877.79c56.78,-13.04 39.97,37.57 70.45,-138.26 38.63,-222.8 124.01,-327.16 129.9,-435.56 -230.71,45.6 -267.77,379.77 -200.35,573.82z"/>
  <path class="fil1" d="M10508.11 16317.29c-4.67,-252.56 34.86,-356.25 96.19,-571.63l-180.79 43.29c-7.81,158.42 35.24,387.15 84.6,528.34z"/>
  <path class="fil2" d="M8852.34 13388.29l-65.35 28.71c110.5,7.46 37.7,-6.9 64.92,31.6 23.63,40.9 24.04,-11.26 9.54,97.72 -5.56,41.76 -20.1,94.37 -28.44,138.32l612.34 -91.67 -74.36 -168.45 -64.69 -81.22c-57.64,18.12 -327.14,89.19 -392.41,75.89 -66.34,-13.53 -20.1,26.85 -61.55,-30.9z"/>
  <path class="fil2" d="M10467.09 11095.22l14.37 44.11c382.11,-49.67 55.11,-81.44 294.84,-560.31 69.12,-138.01 170.34,-254.54 294.14,-335.07 90.68,-58.96 92.97,-43.62 139.87,3.47 -33.19,-103.75 -31.54,-155.73 -120.8,-178.37 -38.28,106.64 -28.3,8.41 -94,96.02 -44.04,58.74 -1.7,49.33 -66.92,137.95 -85.49,8.08 -81.32,-25.75 -125.08,24 -68.39,77.81 -127.11,196.2 -166.58,291.04l-32.92 89.87c-3.02,-1.14 -6.24,-6.63 -6.34,-7.33 -0.09,-0.58 -4.01,-6.24 -3.82,-6.84 0.51,-1.8 -36.38,11.13 7.47,-9.56 35.42,-16.73 -15.16,-20.7 49.06,0.53 -6.59,167.74 -14.15,80.87 -44.08,114.72 -48.04,54.32 -12.68,-81.77 -58.91,73.92 -11.58,39.01 -3.63,88.05 -11.13,115 -39.2,141.07 49.14,50.73 -69.17,106.85z"/>
  <polygon class="fil2" points="8887.06,13118.94 8878.57,13388.97 9289.12,13289.94 9220.25,13034.22 "/>
  <path class="fil2" d="M10344.73 10265.68l112.88 -0.66 -26.69 298.95 126.84 5.21 171.27 -296c53.78,-63.68 34.88,-58.95 60.52,-28.98 -160.98,0 -280.1,25.16 -444.82,21.48z"/>
  <path class="fil2" d="M8883.12 13074.95l320.72 -94.72 -5.85 -121.62c-306.3,20.1 -429.42,-20.61 -588.58,-1.03l-90.95 20.98 347.41 -3.88 17.25 200.27z"/>
  <path class="fil2" d="M8844.66 12646.25c9.54,84.12 27.31,105.31 -1.74,177.75l338.59 -10.45 -12.48 -189.2 -324.37 21.9z"/>
  <path class="fil2" d="M8417.34 10442.27c5.08,5.27 12.29,6.04 15.1,15.97l85.34 68.84c66.04,-164.86 223.69,-229.34 271.63,-344.49 -135.31,11.07 -271.75,202.26 -372.07,259.68z"/>
  <path class="fil2" d="M8484.61 10330.64l203.55 -148.67c-48,-37.78 -51.24,-41.5 -147.18,-54.26 -65.89,-8.78 -122.17,-10.41 -187.46,-9.29 18.11,21.95 13.14,18.77 39.74,40.99 29.23,24.4 22.41,9.44 55.29,40.32 39.16,36.79 44.27,62.66 36.06,130.91z"/>
  <path class="fil3" d="M9867.89 12436.79c-174.9,21.77 -358.52,-20.32 -538.87,-10.57 -182.23,9.83 -323.92,46.84 -495.35,70.24 25.01,-341.25 44.24,-642.31 213.81,-890.55 167.59,-61.2 257.83,-44.24 428.18,-148.09 200.97,-122.52 64.82,-104.45 193.74,-95.05 74.13,5.39 153.24,32.92 246.51,37.63l595.52 -25.3c78.8,164.62 20.1,183.55 207.16,561.36 -52.46,128.45 -253.79,396.13 -285.45,528.38l-456.75 -2.68c-18.67,-1.04 -44.57,-2.63 -62.59,-6.14 -62.14,-12.11 -10.07,6.51 -45.91,-19.23zm272.84 64.32l301.22 -0.13c52.4,-63.11 265.6,-453.02 294.08,-529.61l2.29 -80.63c-101.1,-157.56 -143.13,-365.61 -183.12,-562.29l-343.91 44.44c-110.52,-5.78 -219.58,5.56 -333.61,-9.89 -481.65,-65.29 -203.01,-9.15 -552.81,127.7 -273.55,107.01 -350.73,-70.12 -479.78,518.3 -41.58,189.56 -32.38,391.53 -59.96,539.49 212.39,-22.49 379.86,-86.17 637.04,-85.34 237.09,0.78 482.69,39.26 718.56,37.96z"/>
  <path class="fil3" d="M7129.55 17986.44l504.23 0c-254.83,-224.43 -329.81,184.55 -303.2,-717.63 14.02,-476 -31.25,-425.62 -41.74,-673.16 58.57,-49.41 70.69,-48.25 122.97,-86.63 3.74,-2.75 49.84,-38.44 51.31,-40.11 61.67,-69.66 21.99,-10.53 54.01,-104.45l-103.52 11.75c-12.52,98.75 -122.9,156.63 -197.74,191.49 56.28,402.47 99.24,843.89 51.44,1279.66 -72.39,53.92 -83.17,67.84 -137.76,139.08z"/>
  <path class="fil4" d="M7724.31 11021.91c147.06,37.35 307.89,27.35 469.91,25.04 -0.25,-195.95 22.51,-227.63 67.06,-385.39 -110.17,-67.5 -350.5,-63.51 -487.73,-89.27 -4.4,81.86 -28.91,148.09 -31.54,231.33 -1.49,47.24 8.41,91.68 8.12,123.47 -1.3,149.54 14.1,35.59 -25.82,94.82z"/>
  <path class="fil4" d="M9979.65 11108.6c143.81,46.62 346.14,43.02 501.81,30.73l-14.37 -44.11c-4.23,-65.25 -5.6,-129.32 -9.13,-194.22l-39.14 -175.97 -447.72 1.05c-9.33,285.32 -47.94,66.35 13.43,325.5l-4.88 57.02z"/>
  <path class="fil4" d="M7867.57 10380.7l511.42 81.55 105.62 -131.61c8.21,-68.25 3.1,-94.12 -36.06,-130.91 -32.88,-30.88 -26.06,-15.92 -55.29,-40.32 -26.6,-22.22 -21.63,-19.04 -39.74,-40.99l-275.88 -15.89c-46.05,118.87 -134.6,179.08 -210.07,278.17z"/>
  <polygon class="fil4" points="8350.9,13225.43 8340.69,13440.59 8786.99,13417 8852.34,13388.29 8878.57,13388.97 8887.06,13118.94 "/>
  <path class="fil4" d="M8347.24 13180.72l535.88 -105.77 -17.25 -200.27 -347.41 3.88 -154.72 25.64c4.24,11.19 10.31,15.14 11.22,51.12 0.1,3.88 -6.15,67.58 -7.15,75.76 -6.23,51.22 -11.67,98.83 -20.57,149.64z"/>
  <path class="fil4" d="M9947.57 10529.68c46.02,99.8 -25.07,31.25 98.94,41.95 6.96,0.6 113.18,-6.63 140.51,-6.13 96.19,1.77 148.11,21.02 243.9,-1.53l26.69 -298.95 -112.88 0.66 -152.86 4.9c-117.21,35.21 -140.61,171.22 -244.3,259.1z"/>
  <path class="fil4" d="M8341.44 13480.97c9.98,115.93 57.79,168.66 78.38,259.12l413.19 -55.45c8.34,-43.95 22.88,-96.56 28.44,-138.32 14.5,-108.98 14.09,-56.82 -9.54,-97.72l-510.47 32.37z"/>
  <path class="fil4" d="M7794.16 10539.47l497.4 77.72 56.71 -112.46c-157.42,-65.39 -334.24,-86.5 -511.25,-93.7l-42.86 128.44z"/>
  <path class="fil4" d="M8473.17 12709.69c-9.69,112.78 -6.13,44.7 -46.1,144.3l415.85 -29.99c29.05,-72.44 11.28,-93.63 1.74,-177.75l-371.49 63.44z"/>
  <path class="fil4" d="M8240.23 11037.01c101.75,-22.04 56.3,-22.45 94.75,-270.22 24.47,-157.8 1.6,-74.62 -34.25,-105.08 -42.07,92.73 -111.33,273.52 -60.5,375.3z"/>
  <path class="fil5" d="M10456.35 7986.96c-350.42,-173.52 -1052.71,0.62 -1334.24,191.94 -63.77,-270.67 75.86,-1372.39 175.23,-1627.58 261.23,-67.82 1038.95,-146.17 1292.19,-94.65l-133.18 1530.29zm-1535.66 -1316.69c92.03,-6.56 175.29,-81.17 318.94,-104.22 -62.04,492.56 -278.03,1217.3 -133.47,1699.74 86.64,-155.77 618.95,-277.78 814.13,-298.85 742.07,-80.09 521.5,239.12 720.9,370.93 -16.51,-147.65 -119.74,-233.22 -130.85,-364.71 -14.35,-170.02 98.95,-1310.72 122.81,-1490.74 63.35,-27.53 -84.15,28.47 45.77,-11.91l74.27 -26.32c-360.23,-77.51 -1655.5,-46.22 -1832.5,226.08z"/>
  <path class="fil5" d="M7243.68 6492.3c310.52,-78.35 374.57,77.12 558.1,149.49 11.92,494.98 -60.57,907.24 -92.92,1385.18 -299.65,-122.83 -336.13,-77.13 -649.97,-30.84 0.23,-299.01 4.86,-523.98 45.94,-813.63 21.93,-154.64 145.84,-599.02 138.85,-690.2zm-481.46 164.24c130.65,-10.54 253.73,-133.57 431.61,-146.75 0.35,127.4 -146.05,661.54 -175.34,1103.08 -10.02,151.06 10.18,280.86 -11.67,426.88 183.39,-2.15 422.78,-105.31 617.79,-6.67 107.07,54.16 39.95,64.11 148.05,83.03 -51.34,-131.75 25.01,-493.7 38.69,-669.47 19.04,-244.54 33.4,-479.2 36.1,-725.68 33.79,-19.66 -0.76,-1.67 40.63,-13.14l31.48 -7.8c1.09,-0.28 6.19,-0.61 8.71,-2.23 -137.43,-103.13 -331.25,-271.28 -544.92,-268.7 -179.34,2.15 -539.14,111.27 -621.13,227.45z"/>
  <path class="fil6" d="M10932 17184.66l47.83 13.66c-143.22,237.6 -185.29,458.71 -139.56,788.12l499.94 0c-32.2,-358.12 222.94,-1114.01 195.14,-1256.94l-162.84 -9.83c2.4,121.68 -36.33,168.07 -110.94,232.43 -27.59,23.79 -14.39,8.86 -37.46,32.05 -223.71,224.91 -177.77,91.85 -292.11,200.51z"/>
  <path class="fil6" d="M8288.15 16845.87c-28.96,198.66 -333.42,244.82 -260.94,1140.57l414.4 0c42.84,-291.62 148.59,-989.81 247.83,-1184.31l-104.61 -82.5 -52.53 122.73c-4.4,0.35 -10.92,-2.23 -12.95,-2.64l-89 -8.3c-59.42,6.19 -71.75,14.78 -142.2,14.45z"/>
  <path class="fil6" d="M9915.91 11400.4c94.37,41.73 220.86,2.33 340.59,21.71 132.29,132 208.69,273.34 177.21,531.21 -39.82,326.23 -182.68,375.82 -233.39,492.93 -109.36,-4.27 -230.15,-31.27 -332.43,-9.46 35.84,25.74 -16.23,7.12 45.91,19.23 18.02,3.51 43.92,5.1 62.59,6.14l456.75 2.68c31.66,-132.25 232.99,-399.93 285.45,-528.38 -187.06,-377.81 -128.36,-396.74 -207.16,-561.36l-595.52 25.3z"/>
  <path class="fil6" d="M10282.26 13409.15c69.85,-28.34 59.3,-34.9 139.21,-58.04 54.42,-15.72 77.47,-16.09 139.33,-44.26l24.35 -663.45 -398.05 -28.36c113.93,149.95 153.4,581.62 95.16,794.11z"/>
  <path class="fil6" d="M7083.76 12912.25c72.15,327.87 -348.46,240.42 -663.41,567.13 -3.89,4.02 -8.91,9.91 -12.4,13.71l-24.37 29.89c267.89,-80.04 787.22,-264.02 910.22,-541.14 62.37,-140.53 -21.7,-244.38 -108.61,-287.67 -65.02,34.65 -89.95,114.69 -133.03,131.37l238.49 84.48c-86.87,44.08 -115.02,16.11 -206.89,2.23z"/>
  <path class="fil6" d="M10211.29 11372.89l343.91 -44.44c39.99,196.68 82.02,404.73 183.12,562.29 69.07,-28.07 31.46,26.52 46.66,-92 25.05,-195.45 -142.8,-542.52 -250.37,-608.06 -116.82,-22.35 -253.22,22.53 -344.1,-22.16l-49.2 -1.95c22.37,57.63 50.46,147.97 69.98,206.32z"/>
  <path class="fil6" d="M10299.21 13474.05c100.88,85.46 87.06,256.44 36.83,343.41 348.08,-98.58 290.42,-58.32 391.85,-374.29 -16.34,-15.78 -46.45,-54.76 -72.16,-65.8 -77.48,-33.3 -0.19,-6.63 -58.25,0.33 -3.39,0.41 -10.23,1.79 -13.86,2.21 -115.52,13.11 -96.74,-1.04 -218.07,58.45l-66.34 35.69z"/>
  <path class="fil6" d="M10140.73 12501.11l33.77 61.8 -135.18 -2.03c70.72,36.83 477.8,35.9 579.33,39.14 24.79,-220.71 103.11,-372.6 147.61,-568.67 22.66,-106.97 18.86,-33.01 -30.23,-59.98 -28.48,76.59 -241.68,466.5 -294.08,529.61l-301.22 0.13z"/>
  <path class="fil6" d="M5729.11 13173.47l-24.25 21.15 -7.7 62.99c205.96,-39.8 312.95,164.29 483.93,192.62 -52.96,-76.48 -160.98,-113 -216.09,-303.05 -46.2,-159.42 -2.79,-323.14 8.41,-471.05 -81.44,143.34 -96.64,404.62 -203.61,522.1 -47.73,2.91 -17.06,16.65 -40.69,-24.76z"/>
  <path class="fil6" d="M8399.12 12572.02l226.77 -63.47 43.35 -411.19c-28.17,23.24 -16.5,6.32 -41.1,38.81l-148.55 317.21c-43.49,69.58 -43.27,37.46 -80.47,118.64z"/>
  <path class="fil6" d="M11792.12 13701.35l104.7 -10.41c-74.89,-127.48 -10.83,-131.07 9.42,-150.01l56.57 194.62c-89.7,17.31 -79.61,0.97 -121.18,78.38 114.55,-36.82 206.96,-35.67 193.34,-182.66 -11.27,-121.88 -108.45,-162.84 -214.84,-108.06l-28.01 178.14z"/>
  <path class="fil6" d="M6177.31 13787.83l7.74 36.47c-91.89,54.9 -87.94,14.52 -95.21,96.25 126.84,120.73 244.61,-41.78 221.06,-129.69 -54.43,-86.46 -29.41,-0.9 -65.76,-115.78l-67.83 112.75z"/>
  <path class="fil7" d="M11838.57 7608.99c59.22,-0.97 31.27,141.68 27.33,195.06l-60.99 692.66c-20.74,210.63 -208.49,691.23 -181.31,801.11 93.01,-73.71 419.45,-523.91 441.47,-583.6 90.4,-245.13 70.84,-609.33 184.52,-825.29l344.37 147.64c132.66,-138.34 286.74,-348.31 267.37,-551.26 -18.67,-195.7 -10.64,-252.89 -88.91,-314.13 -59.1,-46.23 -176.23,-115.6 -244.72,-154.72 -208.46,154.7 -382.62,416.53 -485.99,471.72 -68.41,36.52 -153.42,63.59 -203.14,120.81z"/>
  <path class="fil7" d="M11577.27 6611.47c462.41,15.92 494.3,-1103.48 112.82,-1311.07 11.25,118.27 46.84,214.12 44.24,330.14 -18.36,818.49 -99.97,579.33 -157.06,980.93z"/>
  <path class="fil7" d="M7058.29 8491.03c114.59,-37.76 149.54,-86.09 313.93,-111.21 140.16,-21.39 273.03,13.63 305.55,-105.81 -141.82,-68.38 -451.95,-49.44 -621.07,-64.38 -111.67,-9.87 -267.16,-48.49 -190.26,111.31 31.33,65.16 116.55,140.03 191.85,170.09z"/>
  <path class="fil7" d="M9895.48 8403.37c166.25,-4.32 251.55,-127.19 355.09,36.76 55.5,87.87 22.25,60.36 84.23,95.96 29.89,-464.39 -326.75,-379.47 -439.32,-132.72z"/>
  <path class="fil7" d="M9524.68 9867.22c127.71,79.31 280.67,-46.12 319.33,-135.8 -128.26,9.21 -259.91,54.52 -319.33,135.8z"/>
  <path class="fil8" d="M8399.12 12572.02c37.2,-81.18 36.98,-49.06 80.47,-118.64l148.55 -317.21c24.6,-32.49 12.93,-15.57 41.1,-38.81l102.63 -537.65c-217.57,-49.86 -455.24,-112.07 -504.75,-364.26l-539.77 63.54c-20.58,2.99 -61.88,7.35 -76.71,11 -2.46,0.6 -30.99,8.39 -38.54,11.18 -47.94,17.68 -26.36,6.21 -58.41,29.43 -64.82,314.48 -115.23,771.41 -37.7,1099.65 91.96,389.23 560.18,248.76 883.13,161.77z"/>
  <path class="fil8" d="M9867.89 12436.79c102.28,-21.81 223.07,5.19 332.43,9.46 50.71,-117.11 193.57,-166.7 233.39,-492.93 31.48,-257.87 -44.92,-399.21 -177.21,-531.21 -119.73,-19.38 -246.22,20.02 -340.59,-21.71 -93.27,-4.71 -172.38,-32.24 -246.51,-37.63 -128.92,-9.4 7.23,-27.47 -193.74,95.05 -170.35,103.85 -260.59,86.89 -428.18,148.09 -169.57,248.24 -188.8,549.3 -213.81,890.55 171.43,-23.4 313.12,-60.41 495.35,-70.24 180.35,-9.75 363.97,32.34 538.87,10.57z"/>
  <path class="fil8" d="M8030.24 13721.42l89.31 2.75 42.57 -970.85c182.29,-68.16 857.94,-238.02 1026.06,-120.19 56.86,87.1 52.96,286.97 82.35,407.47 34.2,140.22 77.22,253.96 132.45,378.69l81.82 166.16 122.84 -12.3c2.48,-70.79 -90.48,-345.96 -111.78,-458.26 -35.97,-189.75 -56.61,-335.55 -77.51,-531.68l620.97 -22.33 135.18 2.03 -33.77 -61.8c-235.87,1.3 -481.47,-37.18 -718.56,-37.96 -257.18,-0.83 -424.65,62.85 -637.04,85.34 27.58,-147.96 18.38,-349.93 59.96,-539.49 129.05,-588.42 206.23,-411.29 479.78,-518.3 349.8,-136.85 71.16,-192.99 552.81,-127.7 114.03,15.45 223.09,4.11 333.61,9.89 -19.52,-58.35 -47.61,-148.69 -69.98,-206.32l-299.49 -48.45 -207.45 10.14c-156.31,29.83 -351.32,19.03 -530.69,51.78 -272.01,49.68 -251.58,-10.51 -481.84,-87.45 -239.03,-79.89 -253.82,-18.94 -497.25,-10.92 -239.36,7.89 -341.64,-24.73 -558.61,-54.2l3.59 219.2 753.82 -100.58c-103.15,253.32 320.28,326.48 489.07,399.99 -30.78,150.48 -66.96,295.81 -93.21,451.85 -96.79,575.57 143,535.11 -559.57,666.55 -222.2,41.58 -385.47,38.5 -581.81,-16.64 35.61,218.71 84.17,94.43 417.61,181.84 -27.59,216.6 -95.65,652.34 -57.38,868.47l92.14 23.27z"/>
  <path class="fil8" d="M5973.41 12676.13c-11.2,147.91 -54.61,311.63 -8.41,471.05 55.11,190.05 163.13,226.57 216.09,303.05 -170.98,-28.33 -277.97,-232.42 -483.93,-192.62 -65.83,32.08 -125.43,135.93 -164.66,211.99 -53.59,103.98 -81.7,212.11 -71.33,271.28 8.32,47.44 3.11,28.9 21.18,56.76l63.33 -82.74c44.55,-72.77 2.52,-48.56 75.74,-89.97 21.13,67.15 -54.82,224.53 -53.93,338.38l122.48 29.45c42.36,-117.28 44.9,-211.46 116.84,-299.22 3.14,5.1 5.95,8.06 6.45,16.77 12.62,222.55 -81.36,166.68 -41.77,372.58 179.92,112.03 301,-43.27 272.43,-131.67 -32.98,-102.11 -0.93,-23.17 -38.72,-54.11l-49.7 -28.28c-4.21,-2.27 -12.84,-4.52 -18.3,-8.43l240.11 -72.57 67.83 -112.75c67.06,-9.44 14.62,15.75 70.34,-69.92 44.22,-67.99 1.06,-36.18 68.1,-82.18l24.37 -29.89c3.49,-3.8 8.51,-9.69 12.4,-13.71 314.95,-326.71 735.56,-239.26 663.41,-567.13 -94.02,-47.17 -203.77,-63.45 -306.74,-113.6 -558.63,-272.1 -245.66,-750.12 -668.92,-701.64 -44.91,72.79 -129.88,473.99 -134.69,579.12z"/>
  <path class="fil8" d="M7413.61 16376.21l103.52 -11.75c-32.02,93.92 7.66,34.79 -54.01,104.45 -1.47,1.67 -47.57,37.36 -51.31,40.11 -52.28,38.38 -64.4,37.22 -122.97,86.63 10.49,247.54 55.76,197.16 41.74,673.16 -26.61,902.18 48.37,493.2 303.2,717.63l393.43 0c-72.48,-895.75 231.98,-941.91 260.94,-1140.57 -155.14,0.25 -373.3,-103.12 -512.16,-155.73 -412.84,-156.4 -167.92,-167.28 -287.41,-362.81l-74.97 48.88z"/>
  <path class="fil8" d="M10336.04 13817.46c50.23,-86.97 64.05,-257.95 -36.83,-343.41 -167.67,-6.65 -448.44,106.7 -633.94,141.21 -234.63,43.64 -478.33,62.71 -709.16,103.31 -658.87,115.89 -797.96,108.36 -1392.86,-78.32 -36.58,135.08 -97.93,202.23 17.89,299.16 72.25,60.45 185.9,110.29 311.44,129.64 263.24,40.59 622.29,-4.27 894.47,-17.59 513.97,-25.12 1124.98,5.02 1548.99,-234z"/>
  <path class="fil8" d="M11792.12 13701.35l28.01 -178.14c106.39,-54.78 203.57,-13.82 214.84,108.06 13.62,146.99 -78.79,145.84 -193.34,182.66 -28.28,147.97 217.3,102.41 277.08,54.26 41.63,-33.56 49.46,-82.76 49.55,-146.33 0.02,-21.54 -5.39,-103.69 -3.6,-116.85 17.27,-125.68 -13.82,-43.99 45.15,-99.67 20.04,94.26 46.18,263.53 7.11,345.36l142.8 -14.81c32.97,-191.22 -45.15,-226.93 -66.71,-368.21 93.27,32.8 120.68,132.81 137.72,259.05 2.25,-36.68 98.04,-90.61 96.02,-167.67 -3.39,-128.59 -291.7,-75.2 -93.95,-1017.74 21.81,-103.99 86.13,-284.7 16.19,-343.21 -75.2,-45.91 -52.69,4.21 -70.35,42.26 -25.77,55.58 4.01,45.23 -98.38,121.22 -77.72,57.71 -155.89,113.37 -259.5,157.61 -114.38,48.85 -355.27,130 -485.33,103.62 -100.31,-20.32 -45.05,-20.84 -97.36,-101.78 -55.42,91.25 72.97,181.61 211.2,410.65l244.8 418.74c-0.1,0.04 -100.63,5.58 -170.33,124.69 -55.61,94.99 -1.39,186.08 68.38,226.23z"/>
  <path class="fil8" d="M10282.26 13409.15c58.24,-212.49 18.77,-644.16 -95.16,-794.11l-717.2 -7.58c-26.78,197.6 106.17,833.19 207.21,946.6l605.15 -144.91z"/>
  <path class="fil8" d="M10194.17 17970.81l-7.07 15.63 653.17 0c-45.73,-329.41 -3.66,-550.52 139.56,-788.12l-47.83 -13.66c-186.74,-4.58 -349.1,64.88 -583.86,45.07 -393.4,-33.23 -328.07,-119.79 -377.6,-227.57 -92.67,75.25 -95.56,109.92 -56.39,235.19l217.12 504.05c138.86,246.24 147.47,187.87 62.9,229.41z"/>
  <path class="fil8" d="M7881.82 13686.6l32.47 -818.05 -332.45 -65.47c6.48,204.1 7.06,392.07 -2.62,595.33 -5.52,115.91 -31.75,257.44 302.6,288.19z"/>
  <path class="fil9" d="M10589.53 6456.67c-253.24,-51.52 -1030.96,26.83 -1292.19,94.65 -99.37,255.19 -239,1356.91 -175.23,1627.58 281.53,-191.32 983.82,-365.46 1334.24,-191.94l133.18 -1530.29z"/>
  <path class="fil9" d="M7801.78 6641.79c-183.53,-72.37 -247.58,-227.84 -558.1,-149.49 6.99,91.18 -116.92,535.56 -138.85,690.2 -41.08,289.65 -45.71,514.62 -45.94,813.63 313.84,-46.29 350.32,-91.99 649.97,30.84 32.35,-477.94 104.84,-890.2 92.92,-1385.18z"/>
  <path class="fil10" d="M10508.11 16317.29c-49.36,-141.19 -92.41,-369.92 -84.6,-528.34l180.79 -43.29c-61.33,215.38 -100.86,319.07 -96.19,571.63zm-2893.62 -439.5c-67.42,-194.05 -30.36,-528.22 200.35,-573.82 -5.89,108.4 -91.27,212.76 -129.9,435.56 -30.48,175.83 -13.67,125.22 -70.45,138.26zm3123.09 -1751.65c-384.46,-46.55 -302.75,-40.37 -601.12,-163.8 -207.93,31.6 -361.89,105.72 -606.5,118.03 -231.36,11.63 -471.96,17 -704.16,23.9 -459.7,13.65 -873.28,114.76 -1258.28,-99.28 4.86,394.22 -80.73,850.21 -92.34,1269.38 -12.97,468.36 54.65,815.64 109.32,1258.63 142.37,115.17 538.99,274.91 713.67,167.94 270.11,-165.46 298.72,-410.42 344.61,-626.87 55.75,-263.1 120.69,-523.07 160.32,-787.92 32.74,-218.75 -39.63,-164.72 -122.91,-333.92 -28.42,-57.73 -41.58,-111.35 -67.56,-164.66 -53.52,-109.87 -67.35,-37.15 -92.33,-161.33 130.44,26.88 15.12,91.5 531,229.56 185.66,49.67 466.19,82.22 625.81,132.7 17.37,69.77 34.16,-37.24 -14.25,26.91 -45.4,60.17 -12.09,-10.66 -33.44,42.45 -42.9,106.76 102.44,934.62 125.59,1044.88 37.92,180.55 83.47,400.56 165.88,527.34 193.94,298.39 229.09,605.64 805.86,525.88 234.45,-32.43 330.27,-113.99 471.42,-221.56 166.24,-126.67 105.66,-256.65 78.11,-576.55 -18.32,-212.53 -55.85,-397.53 -98.41,-602.09 -40.07,73.88 -17.08,63.99 -24.63,160.69 -64.73,-45.83 -68.32,-78.46 -136.25,-128.16 -79.91,-58.43 -108.15,-32.67 -166.78,-127.12l317.39 63.59 -430.02 -1598.62z"/>
  <path class="fil10" d="M11183.52 11990.43c203.74,-116.05 58.43,-599.28 -64.81,-800.14 -76.38,-124.5 -44.18,-114.63 -219.6,-126.86 348.63,59.75 287.12,135.86 458.24,603.21 52.77,144.08 81.75,278.99 162.44,396.02 44.56,64.63 215.26,284.37 232.37,328.55 -186.95,-32.9 -163.61,-341.77 -512.23,-346.02 7.37,149.62 83.26,227.28 153.54,331.58 81.3,120.64 85.2,209.6 276.19,193.16 245.21,-21.07 518.74,-192.62 650.08,-308.95 -164.21,-349.1 -71.84,-62.83 -195.03,-526.39 -98.66,-371.39 -107.19,-316.48 -307.24,-423.99 66.21,-413.77 115.93,-561.3 -162.21,-818.76 -92.79,-85.9 -218.66,-133.05 -382.2,-167.17 -223.44,-46.62 -248.35,-4.86 -357.85,137.76 -80.1,104.33 -142.75,218.42 -169.97,380.95 -50.13,299.34 102.51,550.79 202.52,861.55 32.92,102.32 97.11,240.91 235.76,285.5z"/>
  <path class="fil10" d="M7911.89 10130.02c-87.96,-69.44 -240.25,-36.93 -364.83,-36.51 168.95,-13.98 265.4,-33.01 343.52,54.87 -320.45,-1.92 -374.82,-39.49 -632.62,180.48 -62.48,53.33 -276.19,348.46 -299.08,501.16l-51.55 188.8c-22.08,75.2 -11.38,181.13 -34.45,237.27 -116.61,-74.52 -33.01,-105.5 -92.05,-194.13 -219.15,144.6 -504.96,597.8 -553.83,971.23 163.56,61.94 208.53,286.41 296.78,462.69 61.35,122.54 280.3,341.42 452.89,298.23 132.66,-272.43 131.36,-422.3 36.64,-626.46 -11.88,-25.62 -35.94,-75 -43.44,-98.48l68.78 45.46c138.02,17.08 208.22,-7.11 303.89,-78.51 108.8,-81.23 80.57,-128.55 93.97,-301.69 16.98,-218.88 110.71,-483.11 56.58,-698.53 -183.64,-18.08 -242.61,55.27 -311.47,152.82 188.24,-259.01 165.29,-242.9 343.54,-287.22 45.48,-256.96 227.8,-689.46 386.73,-771.48z"/>
  <path class="fil10" d="M9634.37 11128.26l207.45 -10.14 -106.63 -39.32c33.13,-519.01 241.12,-612.3 371.63,-842.39 -122.29,6.14 -215.38,9.28 -328.84,36.4 -76.05,18.15 -187.37,80.24 -241.86,59.71 -343.13,-129.2 -230.23,-43.56 -579.17,-106.62 -204.24,-36.93 -216.66,56.63 -369.17,272.49 -90.2,127.68 -177.15,309.48 -216.13,494.61 227.84,6.26 488.73,160.71 628.04,150.48 243.35,-17.86 487.58,-74 743.67,-78.33 -52.02,55.59 36.5,37.89 -108.99,63.11z"/>
  <path class="fil11" d="M9524.68 9867.22c59.42,-81.28 191.07,-126.59 319.33,-135.8 -38.66,89.68 -191.62,215.11 -319.33,135.8zm-439.79 -170.98c-74.34,-81.09 -83.96,-619.31 25.11,-690.38 14.5,-9.44 249.34,-91.47 302.36,-116.47 403.63,-190.5 647.01,-517.75 794.96,-171.04 85.28,199.8 40.77,531.06 14.44,751.75 -212.04,-6.69 -34.74,-15.12 -272.78,51.04 -99.91,27.75 -204.75,43.72 -303.64,65.01 -73.08,15.77 -514.52,180.09 -560.45,110.09zm810.59 -1292.87c112.57,-246.75 469.21,-331.67 439.32,132.72 -61.98,-35.6 -28.73,-8.09 -84.23,-95.96 -103.54,-163.95 -188.84,-41.08 -355.09,-36.76zm-2217.71 -129.36c-32.52,119.44 -165.39,84.42 -305.55,105.81 -164.39,25.12 -199.34,73.45 -313.93,111.21 -75.3,-30.06 -160.52,-104.93 -191.85,-170.09 -76.9,-159.8 78.59,-121.18 190.26,-111.31 169.12,14.94 479.25,-4 621.07,64.38zm-915.55 -1617.47c81.99,-116.18 441.79,-225.3 621.13,-227.45 213.67,-2.58 407.49,165.57 544.92,268.7 -2.52,1.62 -7.62,1.95 -8.71,2.23l-31.48 7.8c-41.39,11.47 -6.84,-6.52 -40.63,13.14 -2.7,246.48 -17.06,481.14 -36.1,725.68 -13.68,175.77 -90.03,537.72 -38.69,669.47 -108.1,-18.92 -40.98,-28.87 -148.05,-83.03 -195.01,-98.64 -434.4,4.52 -617.79,6.67 21.85,-146.02 1.65,-275.82 11.67,-426.88 29.29,-441.54 175.69,-975.68 175.34,-1103.08 -177.88,13.18 -300.96,136.21 -431.61,146.75zm2158.47 13.73c177,-272.3 1472.27,-303.59 1832.5,-226.08l-74.27 26.32c-129.92,40.38 17.58,-15.62 -45.77,11.91 -23.86,180.02 -137.16,1320.72 -122.81,1490.74 11.11,131.49 114.34,217.06 130.85,364.71 -199.4,-131.81 21.17,-451.02 -720.9,-370.93 -195.18,21.07 -727.49,143.08 -814.13,298.85 -144.56,-482.44 71.43,-1207.18 133.47,-1699.74 -143.65,23.05 -226.91,97.66 -318.94,104.22zm2769.4 -1369.87c381.48,207.59 349.59,1326.99 -112.82,1311.07 57.09,-401.6 138.7,-162.44 157.06,-980.93 2.6,-116.02 -32.99,-211.87 -44.24,-330.14zm-4643.07 3900.74c105.69,47.52 120,94.21 209.51,172.15 63.82,55.54 149.77,116.84 220.1,174.55 104.9,86.07 21.72,62.94 211.76,158.13 94.31,47.21 156.05,94.7 254.61,140.22 314.13,145.02 793.76,305 1177.47,348.83 601.54,68.7 1299.18,-166.43 1820.88,-425.52 211.3,-104.92 323.37,-191.11 497.19,-301.44 57.4,-42.62 140.2,-120.96 185.06,-170.24 -27.18,-109.88 160.57,-590.48 181.31,-801.11l60.99 -692.66c3.94,-53.38 31.89,-196.03 -27.33,-195.06 -200.24,49.82 -167.07,84.76 -173.35,-216.09 -2.95,-141.19 -43.87,-293.43 -40.79,-415.17l154.95 97.78c67.49,37.69 87.88,57.09 145.75,89.58 286.62,-98.42 347.66,-315.39 441.98,-653.32 83.65,-299.61 101.11,-643.6 28.47,-956.66 -40.12,-172.8 -270.64,-630.6 -372.73,-716.95 -225.65,-190.85 -451.32,-252.44 -833.42,-218.96 -942.58,82.6 -1484.38,724.72 -1819.56,891.3 -238.82,118.67 -882.2,610.39 -983.2,645.42 14.87,-415.92 65.91,-755.53 38.85,-1172.91 -28.65,-441.67 -65.93,-690.41 -568.51,-523.53 -163.06,54.16 -282.44,138.08 -395.5,230.65 -160.94,131.73 -126.72,131.98 -225.41,238.35l-340.6 401.37c-100.55,120.11 -152.1,223.67 -237.96,364.76 -210.14,345.21 -199.05,506.83 -327.64,901.04 -58.99,180.77 -144.48,205.47 -145.86,449.6 -1.01,180.31 22.6,371.78 50.91,542.4 188.86,1137.95 738.74,1435.7 812.07,1613.49z"/>
  <path class="fil11" d="M7724.31 11021.91c39.92,-59.23 24.52,54.72 25.82,-94.82 0.29,-31.79 -9.61,-76.23 -8.12,-123.47 2.63,-83.24 27.14,-149.47 31.54,-231.33l-88.73 -22.74c-52.9,98.42 -138.4,315.52 -93.5,440.82l132.99 31.54z"/>
  <path class="fil11" d="M9979.65 11108.6l4.88 -57.02c-61.37,-259.15 -22.76,-40.18 -13.43,-325.5l-108.04 9.69c-59.74,83.05 -72.06,223.56 -67.01,340.32l183.6 32.51z"/>
  <path class="fil11" d="M8157 13736.3l262.82 3.79c-20.59,-90.46 -68.4,-143.19 -78.38,-259.12l-181.7 22.4 -2.74 232.93z"/>
  <path class="fil11" d="M8347.24 13180.72c8.9,-50.81 14.34,-98.42 20.57,-149.64 1,-8.18 7.25,-71.88 7.15,-75.76 -0.91,-35.98 -6.98,-39.93 -11.22,-51.12l-171.01 27.38 -17.64 274.85 172.15 -25.71z"/>
  <polygon class="fil11" points="8340.69,13440.59 8350.9,13225.43 8178.89,13245.92 8161.71,13454.49 "/>
  <path class="fil11" d="M8427.07 12853.99c39.97,-99.6 36.41,-31.52 46.1,-144.3 -62,11.92 -126.86,23.99 -185.93,39.12 -114.28,29.29 -91.46,24.91 -94.88,146.18l234.71 -41z"/>
  <path class="fil11" d="M7867.57 10380.7c75.47,-99.09 164.02,-159.3 210.07,-278.17l-69.35 -0.76c-72.63,100.19 -156.02,132.48 -208.06,258.44l67.34 20.49z"/>
  <polygon class="fil11" points="7794.16,10539.47 7837.02,10411.03 7752.22,10405.14 7700.45,10520.26 "/>
  <path class="fil12" d="M14706.18 14512.69l120.53 387.49c88.99,-27.02 -1.61,11.97 60.45,-85.27 46.48,59.14 41.68,61.13 124.26,23.57 59.54,-27.08 110.52,-60.53 142.59,-90.59 71.4,-66.94 186.15,-177.95 288.04,-187.63 -25.21,87.47 -35.2,81.22 -119.38,107.96l27.89 28.48c2.74,3.49 9.33,10.18 12.46,14.55 57.21,79.88 55.14,172.55 -44.7,204.26 -66.22,-56.48 -68.99,-63.1 -31.17,-162.25 -147.64,55.56 -177.7,133.77 -297.9,180.83l-46.72 15.75 61.32 284.61c-53.66,-22.35 -56.44,-7.41 -104.67,-110.11 -34.44,-73.34 -23.92,-81.89 -77.12,-128.83 -58.17,39.27 -36.4,44.1 -100.5,81.42l-352.62 236.98c67.46,-178.22 50.31,-40.43 -23.52,-192.42 60.08,38.62 58.14,53.25 114.73,60.29 78.35,-90.91 79.04,-125.34 92.18,-278.27 -23.91,-7.23 -38.07,-7.57 -38.19,-7.61 -38.72,-12.19 -5.98,4.11 -35.72,-14.78l90.98 -58.45 56.4 167.81c4.46,-3.18 18.91,-4.36 22.53,-4.98l25.52 -4.04c27.63,-4.43 21.5,6.59 51.54,-8.4 16.38,-77.2 -50.75,-444.78 -19.21,-460.37zm-3234.8 -5014.61c-171.74,185.86 -508.63,301.84 -750.01,438.54 164.34,13.16 216.99,-11.03 362.71,58.39 128.32,61.15 144.11,98.09 187.66,249.31 63,83.92 462.87,81.02 620.88,474.34 61.87,154 18.26,213.22 42.23,330.73 14.32,70.28 165.6,363.95 208.62,531.92 123.14,480.79 56.27,208.59 185.24,553.29 306.54,-74.87 222.51,127.45 147.52,489.06 -51.25,247.15 -126.01,420.35 -31.52,671.42 40.28,107.03 138.54,115.64 132.81,262.51 -4.88,124.37 -90.9,188.16 -143.76,253.01 -113.62,139.43 -113.11,82.36 -285.28,116.53 -57.49,11.39 -108.23,34.34 -177.43,37.19 -198.35,8.16 -179.77,-103.95 -185.71,-129.47 -42.16,-181.75 -83.29,-75.33 -128.51,-219.58 -46.27,-147.77 74.82,-251.74 157.15,-283.72 -70.17,-128.5 -145.99,-265.24 -220.15,-392.07 -35.66,-61 -81.7,-133.87 -123.61,-176.97 -64.38,-66.22 -102.21,-66.42 -103.4,-200.76 -2.15,-245.36 -38.06,-95.2 -161.97,-392.75 -81.24,-195.07 -198,-198.43 -282.54,-337.38 -203.96,317.92 -318.94,998.25 -308.31,1426.09 12.61,32.9 142.99,85.93 162.44,171.4 18.5,81.31 -58.06,194.73 -55.38,267.44 12.03,329.83 348.66,1330.55 397.49,1632.58 171.84,-39.08 3094.9,4.23 3518.11,12.91 347.62,7.1 870.23,34.53 1200.98,4.77 -79.24,-821.16 -199.63,-1666.41 -295.64,-2483.18 -77.63,-660.46 -898.15,-7222.83 -890.07,-7541.59 -41.47,109.97 -57.05,250.76 -89.91,372.08 -99.92,368.97 -202.92,691.39 -359.96,1032.56 -534.04,1160.27 -954.24,1505.9 -2035.45,2113.57 -216.19,121.5 -116.26,-40.78 -264.35,199.2 -85.83,139.06 -312.41,376.49 -430.88,458.63zm3234.8 5014.61c-31.54,15.59 35.59,383.17 19.21,460.37 -30.04,14.99 -23.91,3.97 -51.54,8.4l-25.52 4.04c-3.62,0.62 -18.07,1.8 -22.53,4.98l-56.4 -167.81 -90.98 58.45c29.74,18.89 -3,2.59 35.72,14.78 0.12,0.04 14.28,0.38 38.19,7.61 -13.14,152.93 -13.83,187.36 -92.18,278.27 -56.59,-7.04 -54.65,-21.67 -114.73,-60.29 73.83,151.99 90.98,14.2 23.52,192.42l352.62 -236.98c64.1,-37.32 42.33,-42.15 100.5,-81.42 53.2,46.94 42.68,55.49 77.12,128.83 48.23,102.7 51.01,87.76 104.67,110.11l-61.32 -284.61 46.72 -15.75c120.2,-47.06 150.26,-125.27 297.9,-180.83 -37.82,99.15 -35.05,105.77 31.17,162.25 99.84,-31.71 101.91,-124.38 44.7,-204.26 -3.13,-4.37 -9.72,-11.06 -12.46,-14.55l-27.89 -28.48c84.18,-26.74 94.17,-20.49 119.38,-107.96 -101.89,9.68 -216.64,120.69 -288.04,187.63 -32.07,30.06 -83.05,63.51 -142.59,90.59 -82.58,37.56 -77.78,35.57 -124.26,-23.57 -62.06,97.24 28.54,58.25 -60.45,85.27l-120.53 -387.49z"/>
  <path class="fil12" d="M7420.3 15291.45c8.12,-278.04 26.09,-554.77 59.3,-828.06 75.35,-620.13 -65.87,-496.51 -18.51,-731.12 32.22,-159.54 62.17,-133.45 66.98,-347.57 15.82,-703.57 -11.91,-528.79 -96.63,-1168.99 -154.64,70.51 -161.11,113.14 -227.14,416.16 252.52,213.98 208.69,404.47 -62.32,617.71 -172.4,135.63 -501.81,189.73 -711.74,331.17 -210.57,141.87 -4.77,131.92 -81.63,332.08 -36.8,95.85 -83.09,82.98 -168.57,99.36 -136.8,26.24 -47.65,27.43 -155.39,112.71 -197.43,156.27 -233.6,9.55 -331.15,-57.25 -76.89,-52.65 -103.89,1.18 -162.79,-98.91 -78.7,-133.7 24.91,-35.46 -119.1,-145.8 -65.53,-109.28 103.92,-485.46 211.34,-586.23 68.78,-64.52 -9.54,-25.8 81.91,-42.09l24.25 -21.15c88.89,-219.1 264.25,-688.04 283.87,-936.24 13.49,-170.5 -62.31,-171.22 115.93,-326.69 150,-130.8 59.9,-87.12 160.43,-301.63 37.13,-79.25 73.67,-139.48 119.56,-205.53 252.34,-363.06 308.41,-333.53 437.52,-466.56 72,-74.21 55.4,-290.32 311.45,-593.42 50.99,-60.37 273.96,-226.7 389.19,-249.89 124.58,-0.42 276.87,-32.93 364.83,36.51l152.83 -163.87c-68.66,-68.78 -416.56,-189.44 -555.96,-311.15l-365.37 -306.47c-39.47,-41.31 -81.13,-83.28 -108.19,-135.78 -27.3,-12.54 -5.62,1.13 -37.13,-23.3 -4.67,-3.62 -18.67,-15.78 -23.4,-20.18 -658.3,-609.15 -884.15,-1557.64 -809.34,-2455.62 43.58,-523.26 145.9,-990.73 309.94,-1433.26 168.2,-453.88 398.34,-757.81 612.5,-1111.12l-4532.43 1650.81c13.49,142.72 136.38,447.15 188.68,603.66l1391.04 4124.1c389.06,1153.87 822.99,2381.26 1193.88,3535.9 117.87,366.92 261.46,847.77 402.52,1187.08l1688.84 20.63z"/>
  <path class="fil12" d="M14616.79 4892.73l-20.61 -28.11c-27.82,-59.57 -4.87,10.84 -19.7,-50.42l-303.87 -2550.31c-17.62,-146.58 -34.84,-288.47 -52.19,-434.35 -8.92,-74.91 -11.11,-152.14 -35.07,-218.63 -1.92,-5.37 -5.04,-10.94 -7.11,-16.29 -2.1,-5.44 -5.3,-10.91 -7.45,-16.42 -2.17,-5.64 -5.15,-11.22 -7.25,-17.02 -2.17,-5.97 -4.63,-11.71 -6.63,-17.87l-29.35 -128.57c8.57,182.83 36.56,375.78 54.38,516.58 15.37,121.16 -15.69,411.56 -10.64,570.91 24.5,772.07 55.38,1487.95 -96.29,2265.97 -125.64,644.67 -78.07,384.79 -300.66,912.98 116.76,-28.17 158.5,-101.45 233.45,-168.76l417.35 -394c98.93,-88.3 108.1,-115.65 191.64,-225.69z"/>
  <path class="fil12" d="M11208.04 2626.48c-50.98,82.93 -65.12,211.17 -103.5,307.83 -46.08,116.04 -102.01,190.33 -143.36,279.93 384.44,-42.18 825.24,-224.43 1141.85,-418.23 205.53,-125.78 757.04,-557.75 845.62,-765.18l-1719.15 621.72 -21.46 -26.07z"/>
  <path class="fil12" d="M8857.2 15315.93c96.43,-42.28 628.11,-27.82 728.01,-0.72l-24.6 -296 -674.52 -145.73 -28.89 442.45z"/>
  <path class="fil13" d="M12948.65 2030.83c-88.58,207.43 -640.09,639.4 -845.62,765.18 -316.61,193.8 -757.41,376.05 -1141.85,418.23 41.35,-89.6 97.28,-163.89 143.36,-279.93 38.38,-96.66 52.52,-224.9 103.5,-307.83 48.21,-385.49 139.09,-598 -70.86,-1121.46l-517 665.42c-310.21,352.01 -931.07,761.27 -1346.06,1018.13l-761.09 457.92c35.53,-554.77 528.87,-1041.63 507.13,-1180.78 -269.79,2.31 -1259.85,948.81 -1511.98,1204.83 -144.12,146.33 -268.79,341.1 -420.41,498.73 -214.16,353.31 -444.3,657.24 -612.5,1111.12 -164.04,442.53 -266.36,910 -309.94,1433.26 -74.81,897.98 151.04,1846.47 809.34,2455.62 4.73,4.4 18.73,16.56 23.4,20.18 31.51,24.43 9.83,10.76 37.13,23.3l11.82 -11.61c-73.33,-177.79 -623.21,-475.54 -812.07,-1613.49 -28.31,-170.62 -51.92,-362.09 -50.91,-542.4 1.38,-244.13 86.87,-268.83 145.86,-449.6 128.59,-394.21 117.5,-555.83 327.64,-901.04 85.86,-141.09 137.41,-244.65 237.96,-364.76l340.6 -401.37c98.69,-106.37 64.47,-106.62 225.41,-238.35 113.06,-92.57 232.44,-176.49 395.5,-230.65 502.58,-166.88 539.86,81.86 568.51,523.53 27.06,417.38 -23.98,756.99 -38.85,1172.91 101,-35.03 744.38,-526.75 983.2,-645.42 335.18,-166.58 876.98,-808.7 1819.56,-891.3 382.1,-33.48 607.77,28.11 833.42,218.96 102.09,86.35 332.61,544.15 372.73,716.95 72.64,313.06 55.18,657.05 -28.47,956.66 -94.32,337.93 -155.36,554.9 -441.98,653.32 -57.87,-32.49 -78.26,-51.89 -145.75,-89.58l-154.95 -97.78c-3.08,121.74 37.84,273.98 40.79,415.17 6.28,300.85 -26.89,265.91 173.35,216.09 49.72,-57.22 134.73,-84.29 203.14,-120.81 103.37,-55.19 277.53,-317.02 485.99,-471.72 68.49,39.12 185.62,108.49 244.72,154.72 78.27,61.24 70.24,118.43 88.91,314.13 19.37,202.95 -134.71,412.92 -267.37,551.26l-344.37 -147.64c-113.68,215.96 -94.12,580.16 -184.52,825.29 -22.02,59.69 -348.46,509.89 -441.47,583.6 -44.86,49.28 -127.66,127.62 -185.06,170.24 56.93,-7.52 51.41,-22.23 32.84,30.03 118.48,-82.15 345.05,-319.59 430.87,-458.63 148.09,-239.98 48.17,-77.7 264.36,-199.21 1081.22,-607.67 1501.41,-953.3 2035.45,-2113.57 157.03,-341.17 260.03,-663.58 359.96,-1032.55 32.86,-121.32 48.44,-262.12 89.91,-372.09 22,-168.93 40.07,-260.54 3.98,-432.31l-39.12 3c-83.54,110.04 -92.71,137.39 -191.64,225.69l-417.35 394c-74.95,67.31 -116.69,140.59 -233.45,168.76 222.59,-528.19 175.02,-268.31 300.66,-912.98 151.67,-778.02 120.79,-1493.9 96.29,-2265.97 -5.05,-159.35 26.01,-449.75 10.64,-570.91 -17.82,-140.8 -45.81,-333.75 -54.38,-516.58 -2.5,-192.13 -28.75,-783.09 -116.64,-903.75 -25.24,17.74 -10.8,3.82 -36.76,31.3l-747.99 1128.52c-82.85,122.09 -178.19,269.13 -277.52,360.02z"/>
  <path class="fil14" d="M10136.46 13962.34c9.33,-6.8 356.88,-137.97 378.9,-139.87 180.74,-15.56 192.25,145.38 222.22,303.67l430.02 1598.62 -317.39 -63.59c58.63,94.45 86.87,68.69 166.78,127.12 67.93,49.7 71.52,82.33 136.25,128.16 7.55,-96.7 -15.44,-86.81 24.63,-160.69 42.56,204.56 80.09,389.56 98.41,602.09 27.55,319.9 88.13,449.88 -78.11,576.55 -141.15,107.57 -236.97,189.13 -471.42,221.56 -576.77,79.76 -611.92,-227.49 -805.86,-525.88 -82.41,-126.78 -127.96,-346.79 -165.88,-527.34 -23.15,-110.26 -168.49,-938.12 -125.59,-1044.88 21.35,-53.11 -11.96,17.72 33.44,-42.45 48.41,-64.15 31.62,42.86 14.25,-26.91 -159.62,-50.48 -440.15,-83.03 -625.81,-132.7 -515.88,-138.06 -400.56,-202.68 -531,-229.56 24.98,124.18 38.81,51.46 92.33,161.33 25.98,53.31 39.14,106.93 67.56,164.66 83.28,169.2 155.65,115.17 122.91,333.92 -39.63,264.85 -104.57,524.82 -160.32,787.92 -45.89,216.45 -74.5,461.41 -344.61,626.87 -174.68,106.97 -571.3,-52.77 -713.67,-167.94 -54.67,-442.99 -122.29,-790.27 -109.32,-1258.63 11.61,-419.17 97.2,-875.16 92.34,-1269.38 385,214.04 798.58,112.93 1258.28,99.28 232.2,-6.9 472.8,-12.27 704.16,-23.9 244.61,-12.31 398.57,-86.43 606.5,-118.03zm199.58 -144.88c-424.01,239.02 -1035.02,208.88 -1548.99,234 -272.18,13.32 -631.23,58.18 -894.47,17.59 -125.54,-19.35 -239.19,-69.19 -311.44,-129.64 -115.82,-96.93 -54.47,-164.08 -17.89,-299.16 594.9,186.68 733.99,194.21 1392.86,78.32 230.83,-40.6 474.53,-59.67 709.16,-103.31 185.5,-34.51 466.27,-147.86 633.94,-141.21l66.34 -35.69c121.33,-59.49 102.55,-45.34 218.07,-58.45 3.63,-0.42 10.47,-1.8 13.86,-2.21 58.06,-6.96 -19.23,-33.63 58.25,-0.33 25.71,11.04 55.82,50.02 72.16,65.8 -101.43,315.97 -43.77,275.71 -391.85,374.29zm-2454.22 -130.86c-334.35,-30.75 -308.12,-172.28 -302.6,-288.19 9.68,-203.26 9.1,-391.23 2.62,-595.33l332.45 65.47 -32.47 818.05zm2400.44 -277.45l-605.15 144.91c-101.04,-113.41 -233.99,-749 -207.21,-946.6l717.2 7.58 398.05 28.36 -24.35 663.45c-61.86,28.17 -84.91,28.54 -139.33,44.26 -79.91,23.14 -69.36,29.7 -139.21,58.04zm1559.37 404.78c41.57,-77.41 31.48,-61.07 121.18,-78.38l-56.57 -194.62c-20.25,18.94 -84.31,22.53 -9.42,150.01l-104.7 10.41c-69.77,-40.15 -123.99,-131.24 -68.38,-226.23 69.7,-119.11 170.23,-124.65 170.33,-124.69l-244.8 -418.74c-138.23,-229.04 -266.62,-319.4 -211.2,-410.65 52.31,80.94 -2.95,81.46 97.36,101.78 130.06,26.38 370.95,-54.77 485.33,-103.62 103.61,-44.24 181.78,-99.9 259.5,-157.61 102.39,-75.99 72.61,-65.64 98.38,-121.22 17.66,-38.05 -4.85,-88.17 70.35,-42.26 69.94,58.51 5.62,239.22 -16.19,343.21 -197.75,942.54 90.56,889.15 93.95,1017.74 2.02,77.06 -93.77,130.99 -96.02,167.67 -17.04,-126.24 -44.45,-226.25 -137.72,-259.05 21.56,141.28 99.68,176.99 66.71,368.21l-142.8 14.81c39.07,-81.83 12.93,-251.1 -7.11,-345.36 -58.97,55.68 -27.88,-26.01 -45.15,99.67 -1.79,13.16 3.62,95.31 3.6,116.85 -0.09,63.57 -7.92,112.77 -49.55,146.33 -59.78,48.15 -305.36,93.71 -277.08,-54.26zm-3172.39 -1716.57l-43.35 411.19 -226.77 63.47c-322.95,86.99 -791.17,227.46 -883.13,-161.77 -77.53,-328.24 -27.12,-785.17 37.7,-1099.65 32.05,-23.22 10.47,-11.75 58.41,-29.43 7.55,-2.79 36.08,-10.58 38.54,-11.18 14.83,-3.65 56.13,-8.01 76.71,-11l539.77 -63.54c49.51,252.19 287.18,314.4 504.75,364.26l-102.63 537.65zm2514.28 -106.93c-138.65,-44.59 -202.84,-183.18 -235.76,-285.5 -100.01,-310.76 -252.65,-562.21 -202.52,-861.55 27.22,-162.53 89.87,-276.62 169.97,-380.95 109.5,-142.62 134.41,-184.38 357.85,-137.76 163.54,34.12 289.41,81.27 382.2,167.17 278.14,257.46 228.42,404.99 162.21,818.76 200.05,107.51 208.58,52.6 307.24,423.99 123.19,463.56 30.82,177.29 195.03,526.39 -131.34,116.33 -404.87,287.88 -650.08,308.95 -190.99,16.44 -194.89,-72.52 -276.19,-193.16 -70.28,-104.3 -146.17,-181.96 -153.54,-331.58 348.62,4.25 325.28,313.12 512.23,346.02 -17.11,-44.18 -187.81,-263.92 -232.37,-328.55 -80.69,-117.03 -109.67,-251.94 -162.44,-396.02 -171.12,-467.35 -109.61,-543.46 -458.24,-603.21 175.42,12.23 143.22,2.36 219.6,126.86 123.24,200.86 268.55,684.09 64.81,800.14zm-2943.29 -953.42c-50.83,-101.78 18.43,-282.57 60.5,-375.3 35.85,30.46 58.72,-52.72 34.25,105.08 -38.45,247.77 7,248.18 -94.75,270.22zm-515.92 -15.1l-132.99 -31.54c-44.9,-125.3 40.6,-342.4 93.5,-440.82l88.73 22.74c137.23,25.76 377.56,21.77 487.73,89.27 -44.55,157.76 -67.31,189.44 -67.06,385.39 -162.02,2.31 -322.85,12.31 -469.91,-25.04zm112.71 -610.88c177.01,7.2 353.83,28.31 511.25,93.7l-56.71 112.46 -497.4 -77.72 -93.71 -19.21 51.77 -115.12 84.8 5.89zm2004.8 707.09l299.49 48.45 49.2 1.95 503.78 -21.69c50.23,136.23 226.08,538.91 166,674.71 -29.15,65.85 -51.62,152.95 -94.03,209.81 -44.5,196.07 -122.82,347.96 -147.61,568.67 -101.53,-3.24 -508.61,-2.31 -579.33,-39.14l-620.97 22.33c20.9,196.13 41.54,341.93 77.51,531.68 21.3,112.3 114.26,387.47 111.78,458.26l-122.84 12.3 -81.82 -166.16 -31.99 5.23 74.36 168.45 -612.34 91.67 -413.19 55.45 -262.82 -3.79c-7.19,-0.13 -70.83,-0.38 -76.43,-0.89 -85.85,-8.04 -14.64,2.35 -50.33,-13.99l-92.14 -23.27c-38.27,-216.13 29.79,-651.87 57.38,-868.47 -333.44,-87.41 -382,36.87 -417.61,-181.84 196.34,55.14 359.61,58.22 581.81,16.64 702.57,-131.44 462.78,-90.98 559.57,-666.55 26.25,-156.04 62.43,-301.37 93.21,-451.85 -168.79,-73.51 -592.22,-146.67 -489.07,-399.99l-753.82 100.58 -3.59 -219.2c216.97,29.47 319.25,62.09 558.61,54.2 243.43,-8.02 258.22,-68.97 497.25,10.92 230.26,76.94 209.83,137.13 481.84,87.45 179.37,-32.75 374.38,-21.95 530.69,-51.78 145.49,-25.22 56.97,-7.52 108.99,-63.11 -256.09,4.33 -500.32,60.47 -743.67,78.33 -139.31,10.23 -400.2,-144.22 -628.04,-150.48 38.98,-185.13 125.93,-366.93 216.13,-494.61 152.51,-215.86 164.93,-309.42 369.17,-272.49 348.94,63.06 236.04,-22.58 579.17,106.62 54.49,20.53 165.81,-41.56 241.86,-59.71 113.46,-27.12 206.55,-30.26 328.84,-36.4 -130.51,230.09 -338.5,323.38 -371.63,842.39l106.63 39.32zm-1424.48 -675.85c100.32,-57.42 236.76,-248.61 372.07,-259.68 -47.94,115.15 -205.59,179.63 -271.63,344.49l-85.34 -68.84c-2.81,-9.93 -10.02,-10.7 -15.1,-15.97zm67.27 -111.63l-105.62 131.61 -511.42 -81.55 -67.34 -20.49c52.04,-125.96 135.43,-158.25 208.06,-258.44l69.35 0.76 275.88 15.89c65.29,-1.12 121.57,0.51 187.46,9.29 95.94,12.76 99.18,16.48 147.18,54.26l-203.55 148.67zm2604.9 -261.59c89.26,22.64 87.61,74.62 120.8,178.37 -46.9,-47.09 -49.19,-62.43 -139.87,-3.47 -123.8,80.53 -225.02,197.06 -294.14,335.07 -239.73,478.87 87.27,510.64 -294.84,560.31 -155.67,12.29 -358,15.89 -501.81,-30.73l-183.6 -32.51c-5.05,-116.76 7.27,-257.27 67.01,-340.32 0.35,-7.19 4.17,-57.87 5.99,-65.62l78.52 -140.47c103.69,-87.88 127.09,-223.89 244.3,-259.1 87.72,-159 85.28,-112.86 294.3,-134.61l-175.15 11.09c3.99,-7.6 9.22,-15.88 13.41,-22.03 4.03,-5.91 8.41,-14.05 13.32,-20.89l123.56 -100.34c86.97,-34.82 520.32,-73.32 628.2,65.25zm-4054.31 -856.3c27.06,52.5 68.72,94.47 108.19,135.78l365.37 306.47c139.4,121.71 487.3,242.37 555.96,311.15l-152.83 163.87c-158.93,82.02 -341.25,514.52 -386.73,771.48 -178.25,44.32 -155.3,28.21 -343.54,287.22 68.86,-97.55 127.83,-170.9 311.47,-152.82 54.13,215.42 -39.6,479.65 -56.58,698.53 -13.4,173.14 14.83,220.46 -93.97,301.69 -95.67,71.4 -165.87,95.59 -303.89,78.51l-68.78 -45.46c7.5,23.48 31.56,72.86 43.44,98.48 94.72,204.16 96.02,354.03 -36.64,626.46 -172.59,43.19 -391.54,-175.69 -452.89,-298.23 -88.25,-176.28 -133.22,-400.75 -296.78,-462.69 48.87,-373.43 334.68,-826.63 553.83,-971.23 59.04,88.63 -24.56,119.61 92.05,194.13 23.07,-56.14 12.37,-162.07 34.45,-237.27l51.55 -188.8c22.89,-152.7 236.6,-447.83 299.08,-501.16 257.8,-219.97 312.17,-182.4 632.62,-180.48 -78.12,-87.88 -174.57,-68.85 -343.52,-54.87 -115.23,23.19 -338.2,189.52 -389.19,249.89 -256.05,303.1 -239.45,519.21 -311.45,593.42 -129.11,133.03 -185.18,103.5 -437.52,466.56 -45.89,66.05 -82.43,126.28 -119.56,205.53 -100.53,214.51 -10.43,170.83 -160.43,301.63 -178.24,155.47 -102.44,156.19 -115.93,326.69 -19.62,248.2 -194.98,717.14 -283.87,936.24 23.63,41.41 -7.04,27.67 40.69,24.76 106.97,-117.48 122.17,-378.76 203.61,-522.1 4.81,-105.13 89.78,-506.33 134.69,-579.12 423.26,-48.48 110.29,429.54 668.92,701.64 102.97,50.15 212.72,66.43 306.74,113.6 91.87,13.88 120.02,41.85 206.89,-2.23l-238.49 -84.48c43.08,-16.68 68.01,-96.72 133.03,-131.37 86.91,43.29 170.98,147.14 108.61,287.67 -123,277.12 -642.33,461.1 -910.22,541.14 -67.04,46 -23.88,14.19 -68.1,82.18 -55.72,85.67 -3.28,60.48 -70.34,69.92 36.35,114.88 11.33,29.32 65.76,115.78 23.55,87.91 -94.22,250.42 -221.06,129.69 7.27,-81.73 3.32,-41.35 95.21,-96.25l-7.74 -36.47 -240.11 72.57c5.46,3.91 14.09,6.16 18.3,8.43l49.7 28.28c37.79,30.94 5.74,-48 38.72,54.11 28.57,88.4 -92.51,243.7 -272.43,131.67 -39.59,-205.9 54.39,-150.03 41.77,-372.58 -0.5,-8.71 -3.31,-11.67 -6.45,-16.77 -71.94,87.76 -74.48,181.94 -116.84,299.22l-122.48 -29.45c-0.89,-113.85 75.06,-271.23 53.93,-338.38 -73.22,41.41 -31.19,17.2 -75.74,89.97l-63.33 82.74c-18.07,-27.86 -12.86,-9.32 -21.18,-56.76 -10.37,-59.17 17.74,-167.3 71.33,-271.28 39.23,-76.06 98.83,-179.91 164.66,-211.99l7.7 -62.99c-91.45,16.29 -13.13,-22.43 -81.91,42.09 -107.42,100.77 -276.87,476.95 -211.34,586.23 144.01,110.34 40.4,12.1 119.1,145.8 58.9,100.09 85.9,46.26 162.79,98.91 97.55,66.8 133.72,213.52 331.15,57.25 107.74,-85.28 18.59,-86.47 155.39,-112.71 85.48,-16.38 131.77,-3.51 168.57,-99.36 76.86,-200.16 -128.94,-190.21 81.63,-332.08 209.93,-141.44 539.34,-195.54 711.74,-331.17 271.01,-213.24 314.84,-403.73 62.32,-617.71 66.03,-303.02 72.5,-345.65 227.14,-416.16 84.72,640.2 112.45,465.42 96.63,1168.99 -4.81,214.12 -34.76,188.03 -66.98,347.57 -47.36,234.61 93.86,110.99 18.51,731.12 -33.21,273.29 -51.18,550.02 -59.3,828.06 5.7,179.35 1.67,350.22 15.62,530.84 13.27,172.11 61.92,341.19 52.66,505.04 119.49,195.53 -125.43,206.41 287.41,362.81 138.86,52.61 357.02,155.98 512.16,155.73 70.45,0.33 82.78,-8.26 142.2,-14.45l89 8.3c2.03,0.41 8.55,2.99 12.95,2.64l52.53 -122.73 104.61 82.5c-99.24,194.5 -204.99,892.69 -247.83,1184.31l52.11 0c55.71,-412.88 156.89,-834.16 259.25,-1205.36 -145.73,-165.34 -211.04,12.12 -58.7,-686.03 54.99,-252.02 101.83,-523.34 162.93,-779.12l28.89 -442.45 674.52 145.73 24.6 296c43.77,588.06 136.61,981.42 333.59,1504.58 87.72,233 -120.86,157.82 -117.89,417.46l51.16 -23.77c49.82,140.75 95.57,280.69 150.84,399.41 60.58,130.06 164.96,251.34 191.26,357.92 84.57,-41.54 75.96,16.83 -62.9,-229.41l-217.12 -504.05c-39.17,-125.27 -36.28,-159.94 56.39,-235.19 49.53,107.78 -15.8,194.34 377.6,227.57 234.76,19.81 397.12,-49.65 583.86,-45.07 114.34,-108.66 68.4,24.4 292.11,-200.51 23.07,-23.19 9.87,-8.26 37.46,-32.05 74.61,-64.36 113.34,-110.75 110.94,-232.43l162.84 9.83c27.8,142.93 -227.34,898.82 -195.14,1256.94l43.76 0c12.15,-257.7 52.98,-472.55 105.9,-712.99 90.36,-410.58 166.43,-456.64 67.5,-631.89 -89.35,16.61 -81.59,22.18 -198.87,11.53 -67.31,-445.43 -80.27,-920.25 -239.95,-1323.96 -48.83,-302.03 -385.45,-1302.75 -397.5,-1632.57 -2.66,-72.73 73.88,-186.14 55.38,-267.46 -19.44,-85.46 -149.83,-138.48 -162.43,-171.39 -10.63,-427.85 104.35,-1108.16 308.31,-1426.09 84.54,138.94 201.3,142.31 282.53,337.39 123.93,297.55 159.82,147.39 161.99,392.74 1.18,134.34 39.01,134.54 103.4,200.76 41.9,43.11 87.94,115.97 123.59,176.96 74.17,126.84 149.99,263.57 220.15,392.08 -82.32,31.98 -203.42,135.95 -157.13,283.73 45.21,144.25 86.33,37.82 128.51,219.58 5.93,25.51 -12.65,137.62 185.7,129.46 69.19,-2.85 119.94,-25.8 177.44,-37.2 172.15,-34.16 171.66,22.93 285.28,-116.51 52.85,-64.86 138.88,-128.66 143.75,-253.02 5.72,-146.87 -92.53,-155.48 -132.81,-262.51 -94.49,-251.07 -19.72,-424.28 31.52,-671.43 74.99,-361.59 159.02,-563.92 -147.51,-489.05 -128.99,-344.7 -62.11,-72.5 -185.25,-553.29 -43.02,-167.98 -194.29,-461.64 -208.63,-531.93 -23.96,-117.5 19.64,-176.71 -42.22,-330.71 -158,-393.34 -557.89,-390.43 -620.88,-474.35 -43.56,-151.23 -59.34,-188.16 -187.67,-249.31 -145.71,-69.42 -198.36,-45.24 -362.7,-58.39 241.38,-136.69 578.27,-252.69 750.01,-438.53 18.57,-52.26 24.09,-37.55 -32.84,-30.03 -173.82,110.33 -285.89,196.52 -497.19,301.44 -521.7,259.09 -1219.34,494.22 -1820.88,425.52 -383.71,-43.83 -863.34,-203.81 -1177.47,-348.83 -98.56,-45.52 -160.3,-93.01 -254.61,-140.22 -190.04,-95.19 -106.86,-72.06 -211.76,-158.13 -70.33,-57.71 -156.28,-119.01 -220.1,-174.55 -89.51,-77.94 -103.82,-124.63 -209.51,-172.15l-11.82 11.61z"/>
  <path class="fil15" d="M9459.37 9278.28c-159.91,-8.51 -407.9,163.4 -357.59,382.73 163.21,-3.68 981.39,-201.16 1087.37,-274.35 20.42,-112.45 42.19,-267.66 9.76,-381.03 -591.14,-104.86 -720.04,416.28 -801.77,488.24l62.23 -215.59z"/>
  <path class="fil16" d="M10191.87 10270.58l152.86 -4.9c164.72,3.68 283.84,-21.48 444.82,-21.48 -25.64,-29.97 -6.74,-34.7 -60.52,28.98l-171.27 296 -126.84 -5.21c-95.79,22.55 -147.71,3.3 -243.9,1.53 -27.33,-0.5 -133.55,6.73 -140.51,6.13 -124.01,-10.7 -52.92,57.85 -98.94,-41.95l-78.52 140.47c-1.82,7.75 -5.64,58.43 -5.99,65.62l108.04 -9.69 447.72 -1.05 39.14 175.97c3.53,64.9 4.9,128.97 9.13,194.22 118.31,-56.12 29.97,34.22 69.17,-106.85 7.5,-26.95 -0.45,-75.99 11.13,-115 46.23,-155.69 10.87,-19.6 58.91,-73.92 29.93,-33.85 37.49,53.02 44.08,-114.72 -64.22,-21.23 -13.64,-17.26 -49.06,-0.53 -43.85,20.69 -6.96,7.76 -7.47,9.56 -0.19,0.6 3.73,6.26 3.82,6.84 0.1,0.7 3.32,6.19 6.34,7.33l32.92 -89.87c39.47,-94.84 98.19,-213.23 166.58,-291.04 43.76,-49.75 39.59,-15.92 125.08,-24 65.22,-88.62 22.88,-79.21 66.92,-137.95 65.7,-87.61 55.72,10.62 94,-96.02 -107.88,-138.57 -541.23,-100.07 -628.2,-65.25l-123.56 100.34c-4.91,6.84 -9.29,14.98 -13.32,20.89 -4.19,6.15 -9.42,14.43 -13.41,22.03l175.15 -11.09c-209.02,21.75 -206.58,-24.39 -294.3,134.61z"/>
  <path class="fil17" d="M9139.06 9404.96c44.93,-47.08 94.56,-110.07 161.79,-140.68 142.49,-64.89 170.6,14.85 286.06,-106.68 60.41,-63.57 28.85,-52.89 109.22,-100.77 42.01,-25.03 96.66,-52.46 140.98,-66.69 118.68,-38.05 244.26,-22.95 368.21,-25.84 -1.86,-514.21 -261.59,-338.69 -454.79,-221.21 -432.43,262.97 -272.06,151.46 -608.97,296.06 -3.86,1.65 -13.65,13.44 -16.4,8.53 -28.31,-50.52 -60.68,266.89 -52.39,415.83l66.29 -58.55z"/>
  <path class="fil18" d="M8883.12 13074.95l-535.88 105.77 -172.15 25.71 17.64 -274.85 171.01 -27.38 154.72 -25.64 90.95 -20.98c159.16,-19.58 282.28,21.13 588.58,1.03l5.85 121.62 -320.72 94.72zm-40.2 -250.95l-415.85 29.99 -234.71 41c3.42,-121.27 -19.4,-116.89 94.88,-146.18 59.07,-15.13 123.93,-27.2 185.93,-39.12l371.49 -63.44 324.37 -21.9 12.48 189.2 -338.59 10.45zm-812.68 897.42c35.69,16.34 -35.52,5.95 50.33,13.99 5.6,0.51 69.24,0.76 76.43,0.89l2.74 -232.93 181.7 -22.4 510.47 -32.37c-27.22,-38.5 45.58,-24.14 -64.92,-31.6l-446.3 23.59 -178.98 13.9 17.18 -208.57 172.01 -20.49 536.16 -106.49 333.19 -84.72 68.87 255.72 -410.55 99.03 -26.23 -0.68c41.45,57.75 -4.79,17.37 61.55,30.9 65.27,13.3 334.77,-57.77 392.41,-75.89l64.69 81.22 31.99 -5.23c-55.23,-124.73 -98.25,-238.47 -132.45,-378.69 -29.39,-120.5 -25.49,-320.37 -82.35,-407.47 -168.12,-117.83 -843.77,52.03 -1026.06,120.19l-42.57 970.85 -89.31 -2.75z"/>
  <path class="fil19" d="M9397.14 9493.87c81.73,-71.96 210.63,-593.1 801.77,-488.24 32.43,113.37 10.66,268.58 -9.76,381.03 -105.98,73.19 -924.16,270.67 -1087.37,274.35 -50.31,-219.33 197.68,-391.24 357.59,-382.73l-62.23 215.59zm-324.37 -30.36c-8.29,-148.94 24.08,-466.35 52.39,-415.83 2.75,4.91 12.54,-6.88 16.4,-8.53 336.91,-144.6 176.54,-33.09 608.97,-296.06 193.2,-117.48 452.93,-293 454.79,221.21 -123.95,2.89 -249.53,-12.21 -368.21,25.84 -44.32,14.23 -98.97,41.66 -140.98,66.69 -80.37,47.88 -48.81,37.2 -109.22,100.77 -115.46,121.53 -143.57,41.79 -286.06,106.68 -67.23,30.61 -116.86,93.6 -161.79,140.68l-66.29 58.55zm12.12 232.73c45.93,70 487.37,-94.32 560.45,-110.09 98.89,-21.29 203.73,-37.26 303.64,-65.01 238.04,-66.16 60.74,-57.73 272.78,-51.04 26.33,-220.69 70.84,-551.95 -14.44,-751.75 -147.95,-346.71 -391.33,-19.46 -794.96,171.04 -53.02,25 -287.86,107.03 -302.36,116.47 -109.07,71.07 -99.45,609.29 -25.11,690.38z"/>
  <path class="fil20" d="M10190.51 11168.52c90.88,44.69 227.28,-0.19 344.1,22.16 107.57,65.54 275.42,412.61 250.37,608.06 -15.2,118.52 22.41,63.93 -46.66,92l-2.29 80.63c49.09,26.97 52.89,-46.99 30.23,59.98 42.41,-56.86 64.88,-143.96 94.03,-209.81 60.08,-135.8 -115.77,-538.48 -166,-674.71l-503.78 21.69z"/>
 </g>
</svg>
