<?xml version="1.0" encoding="UTF-8"?>
<!DOCTYPE svg PUBLIC "-//W3C//DTD SVG 1.1//EN" "http://www.w3.org/Graphics/SVG/1.1/DTD/svg11.dtd">
<!-- Creator: CorelDRAW 2017 -->
<svg xmlns="http://www.w3.org/2000/svg" xml:space="preserve" width="215.9mm" height="279.4mm" version="1.1" style="shape-rendering:geometricPrecision; text-rendering:geometricPrecision; image-rendering:optimizeQuality; fill-rule:evenodd; clip-rule:evenodd"
viewBox="0 0 21590 27940"
 xmlns:xlink="http://www.w3.org/1999/xlink">
 <defs>
  <style type="text/css">
   <![CDATA[
    .str0 {stroke:#3E4095;stroke-width:7.62;stroke-miterlimit:22.9256;stroke-opacity:0.501961}
    .str1 {stroke:#373435;stroke-width:7.62;stroke-miterlimit:22.9256}
    .fil1 {fill:#0070DE}
    .fil6 {fill:#373435}
    .fil5 {fill:#383838}
    .fil12 {fill:#419EE1}
    .fil7 {fill:#9E765D}
    .fil4 {fill:#B4B4B4}
    .fil2 {fill:lightgrey}
    .fil10 {fill:#E1E2E2}
    .fil13 {fill:#E2E3DD}
    .fil11 {fill:#EBF0F0}
    .fil0 {fill:#ECECEC}
    .fil8 {fill:#F5F9F9}
    .fil9 {fill:#FDFDFD}
    .fil3 {fill:#848688;fill-opacity:0.501961}
   ]]>
  </style>
 </defs>
 <g id="Capa_x0020_1">
  <metadata id="CorelCorpID_0Corel-Layer"/>
  <path class="fil0" d="M17299.68 8276.41c2772.1,3169.8 2870.18,7833.94 279.92,11056.38 -235.89,293.48 -465.07,496.3 -644.88,731.58 -1466.13,1421.43 -3700.27,2725 -6712.04,2525.15 -1301.34,-86.36 -2602.12,-495.83 -3580.69,-1055.29 -762.38,-435.83 -2102.46,-1421.77 -2517.74,-2126.56 -691.56,-651.59 -1459.94,-2358.86 -1699.8,-3367.76 -349.47,-1469.77 -332.17,-3078.57 94.87,-4493.96 363.78,-1205.77 1004.79,-2382.72 1805.62,-3273.09 4336.93,-4072.97 8567.7,-4514.42 12974.74,3.55zm-7233.38 15693.59l1388.27 0c318.76,-112.91 1705.19,-25.84 3630.11,-951.4 2036.7,-979.28 3639.41,-2529.7 4670.75,-4559.83 980.27,-1929.64 888.72,-3170.56 1037.96,-3583.85l0 -1913.49c-157.04,-330.99 -53.15,-1525.89 -1066.4,-3534.96 -996.28,-1975.37 -2667.55,-3575.44 -4669.62,-4518.34 -1993.09,-938.6 -3262.73,-812.84 -3637.43,-938.13l-1353.12 0c-200.46,83.15 -771.97,104.74 -1029.69,151.94 -357.49,65.48 -658.63,137.86 -988.39,231.02 -2867.68,810.48 -5215.44,2915.59 -6397.44,5595.37 -2597.02,5887.77 972.52,12636.99 7351.67,13864.11 273.97,52.68 855.74,69.83 1063.33,157.56z"/>
  <circle class="fil1" cx="10795" cy="13970" r="8899.69"/>
  <path class="fil2" d="M5285.3 20802.75c-70.59,156.9 -25.91,211.57 77.9,309.07 226.3,212.58 262.41,364.22 540.76,354.2 79.1,-2.85 321.94,-30.64 381.19,-68.14 90.99,-57.62 54.9,-257.88 -25.42,-288.81 -103.85,-40 -295.1,30.23 -417.59,17.09 -230.47,-24.7 -355.84,-243.72 -556.84,-323.41z"/>
  <path class="fil2" d="M11573.8 16743.35c-72.48,216.62 -396.1,256.01 -598.2,277.96 -117.96,12.81 -297.54,62.17 -405.17,12.3 -90.92,-42.13 -123.57,-243.56 -70.4,-329.1 49.69,-79.94 826.18,-385.1 1003.37,-303.42 91.87,42.34 98.65,257.81 70.4,342.26zm-943.52 -344.27c27.97,-78.91 80.59,-136.3 127.51,-204.65 48.57,-70.77 26.93,-198.13 111.59,-209.77 75.54,78.25 47.37,371.89 35.45,482.58 -83.76,-2.74 -212.2,-22.28 -274.55,-68.16zm-1222.87 -443.16c214.36,-193.58 1037.46,-282.35 1145.84,-240.17 82.99,32.31 35,17.42 45.42,54.93 -81.63,41.76 -513.16,38.67 -648.65,59.58 -126.52,19.53 -446.94,168.12 -542.61,125.66zm-654.52 -3030.62c120.58,109.52 25.79,451.03 67.11,604.69 81.74,-31.38 101.98,-192.01 313.65,-121.6 200.13,66.58 214.77,164.8 268.38,218.81 157.32,158.49 311.12,327.28 445.56,505 96.78,127.95 782.08,1018.79 845.62,1039.33 101.02,-117.3 30.01,-401 145.06,-438.95 46.39,88.26 -32.19,250.64 -51.83,358.71 -21.33,117.45 -8.49,311.39 -71.44,402.76l-127.33 -54.85c-202.69,178.82 -59.37,227.18 -612.23,157.01 -592.69,-75.24 -795.87,-286.15 -851.21,-796.8 -20.83,-192.2 1.51,-680.59 -31.7,-801.48 -150.67,-39.78 -182.02,154.91 -349.39,143.8 -92.53,-294.18 -14.08,-434.54 -10.05,-576.98 3.29,-116.75 -17.11,-568.65 19.8,-639.45zm1970.93 1604.64c-95.9,-51.39 -163.02,-241.62 -221.42,-343.82 -53.73,-94.03 -165.34,-261.17 -189.41,-355.57 141.84,26.06 287.43,354.43 360.96,488.2 52.55,95.59 107.3,105.9 49.87,211.19zm-2306.29 -149.09c1.59,253.19 499.71,1497.74 643.07,1754.44 244.94,438.55 852.51,855.01 1259.39,1149.63 267.99,194.04 510.77,375.64 841.45,183.99 286.77,-166.18 1035.41,-812.64 1298.77,-1110.01 135.42,-152.92 381.82,-636.83 373.39,-837.45l42.14 -197.27 -106.71 -66.12c-90.41,9.89 -70.93,19.36 -147.58,46.62 -91.6,32.59 -53.63,-1.91 -134.88,12.92 -61.46,9.72 -124.44,64.13 -229.26,88.74 -212.38,49.85 -876.72,271.16 -1025.44,135.63 -116.21,-105.93 -116.8,-57.93 -189.84,-113.84 -101.61,-77.77 -97.94,-418.04 -44.51,-507.25 40.73,96.82 25.17,156.46 34.64,258.04 109.32,7.2 740.44,-411.15 794.03,-497.41l42.39 -72.82c1.29,-3.45 45.08,-66.06 -88.54,-83.1l453.96 -178.85 23.96 -184.23 561.75 -15.59 132.77 -198.24c-4.99,-4.81 -13.38,-17.42 -16.81,-12.22l-49.19 -24.84c-11.29,-3.89 -23.6,0.48 -43.83,-6.91 36.39,-129.08 74.33,-68.86 34.35,-269.47 -42.69,-214.34 -55.4,-385.43 -15.28,-605.58 32.96,-180.9 -11.24,-180.87 -11.7,-324.82 187.63,16.79 253.55,-0.24 295.71,-95.34 9.94,113.81 -26.62,262.21 15.47,359.38l121.65 9.75 -1.93 -586.01c63.18,-289.18 -172.58,-963.38 -442.73,-1111.42 -576.94,-316.17 -1331.31,1126.04 -1506.64,1518.14 -77.3,172.86 -401.7,986.77 -485.01,1057.96 -47.95,-67.8 -370.17,-1055.14 -503.67,-1354.64 -448.36,-1005.75 -1246.8,-1813.5 -1778.86,-306.08 -142.14,402.71 -92.27,417.98 -133.17,572.92 -18.01,68.24 -38.32,70.41 -51.34,173.61 -30.16,238.92 -74.19,637.88 -70.66,873.93l245.18 -12.3 -136.49 576.11zm3408.66 300.66c264.87,-72.09 503.73,-402.47 810.19,-400.51 99.69,92.51 234.55,311.2 226.65,455.78 -211.95,96.08 -147.35,2.2 -241.88,244.54 -43.75,112.14 -106.56,218.39 -134.58,336.28 81.25,-14.83 43.28,19.67 134.88,-12.92 76.65,-27.26 57.17,-36.73 147.58,-46.62l106.71 66.12 -42.14 197.27c104.76,-61.55 205.93,-465.2 255.9,-597.97 39.18,-104.07 70.44,-211.29 110.86,-314.36 60.79,-155 95.76,-171.33 52.38,-349.35 -3.11,-11.44 -129.4,-280.32 -140.34,-296.31 -92.59,-135.16 -127.26,-29.87 -174.85,-248.76 -37.38,-171.85 -64.82,-616.98 0.44,-769.92 91.52,217.73 -56.71,617.54 90.05,821.01 99.09,45.98 233.73,62.65 340.47,41.49 24.28,-204.27 23.76,-1303.07 -87.59,-1414.66l1.93 586.01 -121.65 -9.75c-42.09,-97.17 -5.53,-245.57 -15.47,-359.38 -42.16,95.1 -108.08,112.13 -295.71,95.34 0.46,143.95 44.66,143.92 11.7,324.82 -40.12,220.15 -27.41,391.24 15.28,605.58 39.98,200.61 2.04,140.39 -34.35,269.47 20.23,7.39 32.54,3.02 43.83,6.91l49.19 24.84c3.43,-5.2 11.82,7.41 16.81,12.22l-132.77 198.24 -561.75 15.59 -23.96 184.23 -453.96 178.85c133.62,17.04 89.83,79.65 88.54,83.1l-42.39 72.82z"/>
  <path class="fil2" d="M5685.64 19218.7c142.21,21.96 106.16,80.61 186.8,109.13l-39.85 -303.1c-286.8,-98.46 -573.77,79.64 -561.42,391.95 9.47,239.05 473.21,695.09 829.93,621.23 148.89,-30.84 102.04,-225.42 41.5,-314.37 -110.34,-162.15 -413.04,-268.19 -456.96,-504.84z"/>
  <path class="fil2" d="M13383.57 14321.65l-49.49 158.7c148.43,-46.76 310.57,-391.32 508.3,-333.35 53.57,92.31 75.79,341.59 -42.54,385.2 -36.33,-123.78 13.64,-193.01 -9.7,-311.22 -76.05,16.01 -174.05,108.04 -214,175.93 33.83,107.64 192.57,274.15 60.33,378.81 -97.14,-81.1 12.35,-161.35 -108.41,-280.22 -154.55,12.45 -325.27,235.08 -319.14,383.72 112.91,-13.21 200.11,-132.92 299.78,-40.98 -162.32,141.41 -249.3,33.82 -413.89,333.55 -69.99,127.49 -207.85,415.15 -205.29,552.59 239.71,38.44 364.33,-178.94 537.83,-186.44 -25.59,202.89 -468.33,245.43 -611.17,307.4 -34.1,84.98 -41.83,91.52 -36.22,188.46 118.37,275.24 785.47,-357.64 876.92,-481.78 75.42,-102.39 134.6,-260.19 201.45,-334.88 19.77,-360.22 216.36,-893.48 76.9,-1228.77 -294.01,-47.11 -394.03,298.59 -551.66,333.28z"/>
  <path class="fil2" d="M6332.23 20548.95c71.91,-122.24 93.33,-217.46 -3.5,-342.51 -90.01,-116.24 -232.85,-83.55 -368.53,-95.31 -391.81,-33.95 -351.41,-210.95 -601.45,-329.78 -303.52,283.66 -63.09,427.65 174.09,593.3 296.24,206.9 432.82,256.8 799.39,174.3z"/>
  <path class="fil2" d="M6368.4 20652.03c-231.17,-41.71 -449.51,69.96 -673.72,-74.14 -131.28,-84.36 -313.88,-244.14 -457.49,-284.75 -105.72,144.93 -17.77,324.85 99.15,419.58 80.02,64.82 252.72,224.05 338.98,268.45 67.83,34.9 904,224.82 693.08,-329.14z"/>
  <path class="fil2" d="M15796.26 19323.87c89.89,-55.91 54.19,-79.27 167.17,-107.53 -58.18,349.48 -713.33,458.81 -447.82,826.58 246.95,74.34 670.1,-218.28 791.46,-421.03 84.12,-140.56 100.12,-338.52 5.63,-477.51 -104.23,-153.34 -327.74,-139.91 -497.99,-128.6l-18.45 308.09z"/>
  <path class="fil2" d="M16415.53 20275.53c-205.85,89.52 -408.43,339.56 -623.04,369.6 -125.26,17.53 -369.86,-34.79 -471.13,-2.77 -121.98,38.57 -100.71,266.1 -9.03,334.26 68.93,51.23 352.65,66.34 445.99,66.83 150.75,0.76 245.32,-71.19 353.33,-158.97 190.42,-154.76 460.92,-311.33 303.88,-608.95z"/>
  <path class="fil2" d="M15619.38 21451.21c293.02,16.65 340.93,13 530.79,-183.88 109,-113.04 325.51,-257.6 230.91,-446.61l-90.57 -16.45c-34.22,97.47 -237.64,231.19 -341.99,281.39 -189,90.89 -372.49,-10.73 -570.49,20.45 -66.64,93.88 -62.49,164.69 -40.91,274.54 76.47,59.01 185.54,59.65 282.26,70.56z"/>
  <path class="fil2" d="M16281.77 19779.47c-116.37,66.77 -124.05,151.91 -277.09,229.09 -447.51,225.71 -605.81,-15.58 -729.45,282.98 -64.94,156.77 -4.72,255.79 154.86,284.78 337.26,61.29 490.19,-66.32 746.9,-233.79 212.91,-138.89 430.9,-381.04 104.78,-563.06z"/>
  <path class="fil2" d="M7660.2 15257.96c166.7,176.73 -156.59,15.13 588.25,576.52 101.33,76.39 408.26,334.56 542.21,299.66 94.29,-24.57 116.72,-106.58 92.03,-189.09 -142.47,-93.83 -598.05,-77.01 -629.69,-325.3 179,22.61 268.57,213.01 557.35,202.99 13.1,-146.98 -114.83,-354.89 -194.61,-477.52 -157.62,-242.25 -333,-222.24 -400.04,-300.66 126.37,-82.85 226.38,51.88 335.01,86.81 -2.77,-163.25 -254.9,-441.92 -420.41,-415.26 -59.54,123.15 0.73,246.41 -88.65,302.22 -90.12,-123.63 37.96,-289.04 47.77,-422.09 -58.23,-61.9 -211.77,-162.13 -296.69,-172.22 -36.38,148 59.63,232.61 -11.67,328.45 -97.18,-72.51 -94.96,-312.48 -23.53,-402.42 197.35,-33.8 500.71,331.29 652.42,397.72l-72.68 -285.03c-126.16,-22.21 -664.78,-480.25 -789.66,-184.58 -48.3,114.38 2.84,361.4 22.71,512.07 19.42,147.37 65.26,320.07 89.88,467.73z"/>
  <path class="fil2" d="M9631.38 17650.38c193.45,80.69 437.76,205.15 625.65,304.6 139.26,73.71 481.98,353.02 615.61,320.1 81.72,-20.13 734.28,-493.82 1235.79,-653.1 14.74,-67.46 78.91,-155.48 108.2,-230.56 86.92,-222.73 187.64,-581.65 160.39,-808.57 -48.35,18.87 -6,-4.14 -61.5,36.27 -13.53,9.86 -31.58,24.58 -45.89,35.68l-256.04 230.07c-117.49,111.08 -215.96,205.82 -342.59,305.25 -642.9,504.76 -796.35,664.1 -1666.88,-34.91 -163.92,-131.64 -557.56,-491.24 -710.25,-563.16 -46.93,427.58 126.91,727.94 337.51,1058.33z"/>
  <path class="fil3 str0" d="M12276.69 17565.79c257.33,-110.8 826.02,-233.89 1114.79,-277.03 390.22,-58.29 926.58,-102.77 1316.06,-65.49l419.75 5.84c-37.48,-303.63 -1001.35,-397.19 -1254.85,-460.99 -224.85,-56.59 -1238.6,-368.76 -1383.7,-318.72 -60.28,99.17 -53.56,451.32 -86.68,601.06 -38.69,174.95 -120.63,328.25 -167.49,507.41l42.12 7.92z"/>
  <path class="fil3 str0" d="M7007.38 17174.78c32.77,59.31 43.02,40.81 130.52,45.78 46.63,2.66 98.29,2.53 145.96,4.58 93.74,4.01 230.63,-9.69 303.3,29.47 178.83,-49.34 777.46,57.3 985.5,100.09 148.23,30.49 296.04,61.29 441.86,102.77 140.24,39.91 287.89,106.47 432.51,116.01 -28.3,-152.56 -143.35,-343.91 -184.88,-524.75 -38.16,-166.16 -26.8,-518.78 -90.54,-619.38 -87.72,-63.96 -1416.03,431.67 -1659.78,526.14 -109.79,42.55 -431.9,203.14 -504.45,219.29z"/>
  <path class="fil4" d="M10170.97 15544.36c-262.52,27.98 -743.79,-111.84 -876.91,-353.22 -114.91,-208.39 -157.89,-881.9 -115.65,-1118.02 101.63,0.39 135.21,67.26 206.89,137.32l860.39 840.18c104.96,102.44 346.71,290.66 261.26,387.85 -130.82,70.78 -41.72,-18.77 -192.7,-22.38 -113.82,-2.74 -103.79,49.16 -143.28,128.27zm-1418.08 -2619.06c-36.91,70.8 -16.51,522.7 -19.8,639.45 -4.03,142.44 -82.48,282.8 10.05,576.98 167.37,11.11 198.72,-183.58 349.39,-143.8 33.21,120.89 10.87,609.28 31.7,801.48 55.34,510.65 258.52,721.56 851.21,796.8 552.86,70.17 409.54,21.81 612.23,-157.01l127.33 54.85c62.95,-91.37 50.11,-285.31 71.44,-402.76 19.64,-108.07 98.22,-270.45 51.83,-358.71 -115.05,37.95 -44.04,321.65 -145.06,438.95 -63.54,-20.54 -748.84,-911.38 -845.62,-1039.33 -134.44,-177.72 -288.24,-346.51 -445.56,-505 -53.61,-54.01 -68.25,-152.23 -268.38,-218.81 -211.67,-70.41 -231.91,90.22 -313.65,121.6 -41.32,-153.66 53.47,-495.17 -67.11,-604.69z"/>
  <path class="fil5" d="M11174.54 4763.08c-66.22,413.93 -169.1,726.59 -350.56,1089.97 -71.29,142.74 -155.1,363.53 -327.14,403.6 -24.06,-103.28 -59.37,-204.14 -82.17,-314.49 -39.09,-189.17 -92.57,-935.44 -210.16,-1021.58 -32.07,120.07 -257.4,406.88 -334.1,521.91 -117.19,175.72 -234.24,341.19 -346.24,530.63 -290.3,490.94 -707.14,1787.81 -847.53,474.96l-38.21 -796.83c-1786.78,1196.08 -2110.19,4268.44 -1821.66,6164.85 -168.76,8.6 -817.69,-235.22 -919.76,-87.39 -79.58,115.3 210.18,792.39 239.45,912.22 92.49,378.77 334.08,679.29 568.83,976.12 29.9,37.83 39.26,43.43 68.25,77.91 98.16,116.76 301.95,308.28 340.56,452.81 -380.75,0 -917.84,-368.78 -1252.87,-396.64 8.79,105.46 87.77,207.28 143.04,274.51 65.16,79.27 122.52,148.29 196.23,221.34l659.87 613.72c178.25,143.51 585.8,471.83 817.52,477 -27.78,-333.77 -460.78,-1443.12 278.66,-1071.88 77.97,39.14 115.46,61.58 187.3,105.01 79.05,47.8 109.71,87.55 223.12,90.08 76.84,-114.74 184.42,-510.76 187.92,-668.03 -105.86,0 -113.77,20.87 -229.69,20.87 0,-383.71 9.91,-712.09 107.41,-1040.79 55.45,-186.9 65.52,-376.33 135.07,-574.75 315.85,-901.08 869.5,-1152.17 1428.1,-305.14 323.09,489.9 519.8,1044.56 707.07,1610.35 37.52,113.34 103.32,245.8 128.09,352.09l41.76 0c17.34,-74.43 43.99,-88.4 76.71,-152.95 32.21,-63.53 42.99,-108.13 76.33,-174.2 55.81,-110.65 98.44,-216.59 145.23,-334.95 186.18,-470.88 517.96,-1171.13 865.84,-1535.12 161.21,-168.68 314.18,-378.66 571.49,-410.93 84.55,-10.6 144.01,-3.24 201.09,24.77l108.11 79.81c177.19,169.21 277.88,430.31 340.71,703.17 27.9,121.18 -3.69,267.33 41.35,396.08 84.38,241.19 79.98,836.76 79.6,1133.64 -0.16,114.4 -19.59,138.67 -21.6,228.92 -450.11,0 -420.19,-193.46 -378.78,-545.96 16.58,-141.1 -17.96,-193.81 -17.96,-309.95l-41.77 0c-19.89,238.96 -50.74,615.17 29.08,826.84 31.78,84.27 50.95,71.89 107.49,122.18 91.15,81.11 106.98,195.09 161.75,297.56 63.48,118.77 69.18,21.78 98.43,131.23 204.45,-4.55 400.14,-424.35 584.66,-334.01 203.83,99.78 -41.75,979.17 -41.75,1294.31 146.09,0 179.93,-23.92 265.97,-88.99 84.11,-63.62 115.18,-93.48 188.2,-166.73 70.23,-70.47 103.46,-106.78 184.73,-170.2 116.11,-90.6 374.77,-427.89 503.95,-560.85 84.84,-87.32 286.7,-297.69 297.95,-432.81 -347.13,7.74 -629.9,229.65 -981.42,229.65 31.59,-135.6 180.43,-274.49 259.31,-387.9 92.37,-132.81 168.45,-254.46 253.9,-393.32 83.28,-135.34 168.58,-273.59 238.78,-408.44 157.33,-302.2 249.41,-621.03 352.1,-942.3 53.66,-167.89 98.36,-336.53 146.32,-500.88 49.54,-169.82 95.6,-328.78 140.17,-507 39.57,-158.13 112.86,-357.37 112.86,-534.34 -89.72,2 -108.4,27.26 -163.47,66.21 -315.08,222.8 -643.99,442.31 -984.99,622.7 60.43,-259.35 111.44,-783.76 143.12,-1067.72 58.4,-523.49 -7,-1203.92 -86.29,-1723.84 -24.48,-160.45 -68.54,-331.24 -106.93,-498.51l-123.08 -482.36c-66.62,-185.7 -44.65,-270.92 -160.92,-444.52 -129.98,95.22 -502.31,902.6 -604.86,1107.12 -33.81,67.43 -45.87,103.18 -125.99,124.57 -12.56,-563.98 -381.97,-1579.05 -571.35,-2121.79 -39.29,-112.59 -85.49,-172.01 -137.4,-259.27 -99.25,-166.87 -203.73,-301.09 -309.96,-462.53l-783.23 -761.78c-775.62,-653.11 -510.84,-522.03 -631.64,232.96z"/>
  <path class="fil6" d="M10830.66 16782.7c46.26,23.44 0.82,14.94 70.55,18.87 77.62,4.39 433.09,-85.26 580.55,-92.11 -20.32,177.47 -202.19,179.68 -361.25,211.67 -146.62,29.51 -392.31,96.78 -523.77,23.25 -37.08,-111.91 2.52,-22.16 43.3,-120.05 -79.45,-42.52 -45.94,3.69 -80.5,-63.07 54.63,-96.94 361.26,-167.11 479.13,-204.59 151.21,-48.05 482.85,-228.27 467.47,44.09 -178.15,74.44 -553.28,64.65 -675.48,181.94zm743.14 -39.35c28.25,-84.45 21.47,-299.92 -70.4,-342.26 -177.19,-81.68 -953.68,223.48 -1003.37,303.42 -53.17,85.54 -20.52,286.97 70.4,329.1 107.63,49.87 287.21,0.51 405.17,-12.3 202.1,-21.95 525.72,-61.34 598.2,-277.96z"/>
  <path class="fil7" d="M10630.28 16399.08c62.35,45.88 190.79,65.42 274.55,68.16 11.92,-110.69 40.09,-404.33 -35.45,-482.58 -84.66,11.64 -63.02,139 -111.59,209.77 -46.92,68.35 -99.54,125.74 -127.51,204.65z"/>
  <path class="fil8" d="M11325 15523.06c50.91,-40.35 97.93,-113.32 151.16,-128.46 108.79,-30.95 109.44,24.9 190.79,55.8 98.26,37.33 673.09,-69.57 783.76,-235.06 57.67,-86.21 132.18,-270.8 145.54,-372.93 -152.48,-7.84 -555.14,198.38 -717.86,266.37 -130.12,54.39 -594.24,229.95 -647.96,332.25l94.57 82.03z"/>
  <path class="fil9" d="M10170.97 15544.36c39.49,-79.11 29.46,-131.01 143.28,-128.27 150.98,3.61 61.88,93.16 192.7,22.38 85.45,-97.19 -156.3,-285.41 -261.26,-387.85l-860.39 -840.18c-71.68,-70.06 -105.26,-136.93 -206.89,-137.32 -42.24,236.12 0.74,909.63 115.65,1118.02 133.12,241.38 614.39,381.2 876.91,353.22z"/>
  <path class="fil9" d="M10830.66 16782.7c122.2,-117.29 497.33,-107.5 675.48,-181.94 15.38,-272.36 -316.26,-92.14 -467.47,-44.09 -117.87,37.48 -424.5,107.65 -479.13,204.59 34.56,66.76 1.05,20.55 80.5,63.07 -40.78,97.89 -80.38,8.14 -43.3,120.05 131.46,73.53 377.15,6.26 523.77,-23.25 159.06,-31.99 340.93,-34.2 361.25,-211.67 -147.46,6.85 -502.93,96.5 -580.55,92.11 -69.73,-3.93 -24.29,4.57 -70.55,-18.87z"/>
  <path class="fil6" d="M10283.23 22951.9c-3.54,-158.7 0.19,-318.39 0.35,-477.41 0.22,-235.6 -57.84,-253.85 180.31,-270.01 174.27,-11.82 767.04,-41.42 897.09,30.64 27.34,79.8 20.06,617.26 6.8,727.33l-1084.55 -10.55zm-0.3 -935.66c181.61,-75.82 855.67,-41.35 1080.66,-18.88l1.96 131.06c-141.61,12.23 -977.45,19.04 -1081.85,-6.85l-0.77 -105.33zm4.32 -2327.78c183.5,-118.52 895.01,-110.58 1076.63,-6.68 19.08,197.68 24.03,2118.56 -4.3,2216.95l-1034.42 -2.24c-97.48,-116.98 -45.11,-366.93 -44.28,-515.56 2.11,-372.37 -25.31,-1481.12 6.37,-1692.47zm-4002.1 1709.42c-59.25,37.5 -302.09,65.29 -381.19,68.14 -278.35,10.02 -314.46,-141.62 -540.76,-354.2 -103.81,-97.5 -148.49,-152.17 -77.9,-309.07 201,79.69 326.37,298.71 556.84,323.41 122.49,13.14 313.74,-57.09 417.59,-17.09 80.32,30.93 116.41,231.19 25.42,288.81zm-609.83 -416.71c-86.26,-44.4 -258.96,-203.63 -338.98,-268.45 -116.92,-94.73 -204.87,-274.65 -99.15,-419.58 143.61,40.61 326.21,200.39 457.49,284.75 224.21,144.1 442.55,32.43 673.72,74.14 210.92,553.96 -625.25,364.04 -693.08,329.14zm656.91 -432.22c-366.57,82.5 -503.15,32.6 -799.39,-174.3 -237.18,-165.65 -477.61,-309.64 -174.09,-593.3 250.04,118.83 209.64,295.83 601.45,329.78 135.68,11.76 278.52,-20.93 368.53,95.31 96.83,125.05 75.41,220.27 3.5,342.51zm3959.78 -1011.82c41.61,-171.57 401.53,-150.58 548.72,-152.15 137.65,-1.46 522.84,-26.84 518.63,168.01 -79.73,36.07 -396.32,-39.63 -518.63,-40.64 -159.8,-1.32 -421.01,87 -548.72,24.78zm-12.94 -1032.3c105.07,-81.89 402.72,-151.96 541.45,-150.93 181.89,1.33 379.53,70.56 555.62,132.9l-7.61 872.46c-178.89,9.51 -364.91,-49.56 -548.05,-49.44 -169.79,0.12 -390.49,67.07 -543.55,46.85l2.14 -851.84zm-4593.43 713.87c43.92,236.65 346.62,342.69 456.96,504.84 60.54,88.95 107.39,283.53 -41.5,314.37 -356.72,73.86 -820.46,-382.18 -829.93,-621.23 -12.35,-312.31 274.62,-490.41 561.42,-391.95l39.85 303.1c-80.64,-28.52 -44.59,-87.17 -186.8,-109.13zm119.79 -1456.69c110.77,-91.12 892.33,-185.32 1069.5,-190.36 1007.61,-28.79 2179.4,139.03 3032.31,713.31 162.45,109.38 281.36,140.17 285.61,340.52l19.28 1844.13c1.99,516.63 18.49,2038.6 -25.29,2463.96 -68.7,-5.55 -640.23,-138.95 -886.6,-171.93 -309.57,-41.45 -652.53,-78.51 -964.03,-89.44 -491.13,-17.25 -1722,23.12 -2043.08,-21.75 -45.28,-153.38 -129.74,-985.39 -94.2,-1116.24 208.56,-166.88 254.23,15.91 186.54,-389.86 -26.14,-156.63 153.19,-150.14 77.79,-444.66 -57.39,-224.2 83.5,-307.21 -49.68,-517.01 -45.39,-71.52 -125.85,-113.99 -144.11,-159.01 -17.1,-42.16 -18.63,-207.76 -32.38,-274.34 -44.37,-215.06 -241.91,-206.54 -276.25,-331.19 -26.53,-96.28 -43.03,-426.06 -54.78,-548.33 -17.62,-183.49 -123.34,-993.53 -100.63,-1107.8zm261.29 -183.53c54.56,-67.45 108.38,-98.58 178.82,-148.94 84.1,-60.15 101.37,-105.88 201.62,-54.62 -2.82,88.48 -26.64,61.15 -98.07,130.2l93.31 37.78c-103.51,13.32 -288.53,60.58 -375.68,35.58zm7105.6 -187.29c82.76,-15.11 168.29,-8.12 271.41,-27.98 138.86,-26.74 689.18,-125.72 729.61,4.88 -37.57,56.17 -81.49,46.81 -153.97,65.98 -85.96,22.73 -93.19,44.88 -154.96,67.55 -69.41,25.49 -315.21,50.55 -397.27,57.2 -140.1,-34.78 -8.76,-139.22 -595.41,43.64 -1383.15,431.11 -667.21,390 -1443.43,808.61l-380.45 -119.37 143.25 -100.72c-75.14,46.22 -21.88,57.37 -8.26,86.31 130.7,-28.36 524.81,-461.39 1952.85,-774.22l36.63 -111.88zm-6802.05 -127.77c-240.82,91.49 -442.13,315.83 -485.96,334.67 -72.9,31.36 -105.07,35.77 -167.17,94.44 -28.57,57.88 102.55,910.91 95.2,1230.36 -190.8,64.7 -589.77,-89.57 -625.36,472.87 -11.53,182.14 26.36,155.54 96.3,284.13 -89.88,262.99 -287.86,329.43 -99.05,529.57l-39.55 28.02 -51.18 235.35c66.94,260.41 121.46,100.45 89.23,430.72 -15.87,162.61 86.65,243.92 186.39,343.65 87.94,87.9 178.4,193.56 275.82,271.34 122.16,97.52 323.68,-1.26 452.42,43.19l30.91 413.52 12.2 98.34 80 650.39c658.17,43.54 1423.8,26.28 2090.99,27.69 195.99,0.41 318.17,37.62 505.28,45.8 302.36,13.21 1154.2,105.79 1340.56,249.27l1327.88 -0.52c382.72,-272.04 2804.87,-345.62 3483.32,-315.05 145.26,6.56 369.4,57.88 483.1,-35.58 60.43,-136.75 0.94,-433.86 72.75,-632.81l-0.95 -113.64 51.93 -375.25c121.3,-27.45 254.02,0.65 384.34,3.82 89.85,-98.23 100.61,-109.84 209.6,-189.91 80.09,-58.87 119.25,-154.69 194.1,-197.96 24.97,-46.94 99.04,-147.28 129.04,-193.75l-40.68 -244.13 -161.22 52.31 90.57 16.45c94.6,189.01 -121.91,333.57 -230.91,446.61 -189.86,196.88 -237.77,200.53 -530.79,183.88 -40.79,51.32 -32.78,48.57 -124.48,34.48 -78.52,-12.08 -32.03,-37.47 -129.64,-13.34l93.12 46.79c8.08,218.8 -36.73,936.56 -97.05,1129.76 -349.19,29.86 -691.02,4.79 -1040.32,2.61 -662.29,-4.16 -1324.27,28.37 -1981.97,107.91 -290.24,35.1 -607.52,139.66 -873.9,165.9 -54.99,-479.7 -10.96,-3514.45 -7.78,-4279.22 0.54,-129.18 -18.39,-129.09 85.83,-207.28 883.82,-663.17 2002.93,-907.16 3101.6,-864.59 393.56,15.26 721.57,104.57 1092.51,138.81l-166.96 -81.8c90.46,-46.28 69.14,-7.64 116.5,-22.36 -3.1,-98.4 -93.12,-93.06 -182.9,-146.02 -85.36,-50.39 -107.67,-107.35 -205.28,-139.6 -140.44,-46.41 -509.16,-53.3 -591.12,-99.99 -389.48,-37.28 -925.84,7.2 -1316.06,65.49 -288.77,43.14 -857.46,166.23 -1114.79,277.03 -55.57,66.02 -87.15,114.77 -168.26,56.19 -501.51,159.28 -1154.07,632.97 -1235.79,653.1 -133.63,32.92 -476.35,-246.39 -615.61,-320.1 -187.89,-99.45 -432.2,-223.91 -625.65,-304.6 -81.89,72.87 -113.3,37.04 -201.95,-26.84l-11.02 112.66c95.49,83.61 372.96,172.47 503.4,231.33 158.37,71.44 291.27,199.16 455.69,256.94l79.36 -58.52 135.68 119.12c-68.05,50.69 -173.95,72.24 -256.51,100.68 -123.67,42.6 -140.11,12.31 -250.16,-56.46 -84.56,-52.83 -358.4,-230.33 -415.03,-284.92 180.08,53.94 360.93,230.31 539.2,262.71 -22.33,-113.92 -217.2,-187.72 -320.9,-247.97 -97.85,-56.84 -266.04,-162.66 -374.49,-157.53 2.87,65.35 -10.49,14.45 28.47,77.13 -169.89,-32.97 -453.71,-192.79 -660.22,-247.15 -291.97,-76.85 -52.35,-271.15 -1502.21,-318.27 -151.23,-4.91 -758.18,43.48 -841.85,-8.67 128.52,-57.91 566.25,-34.81 741.55,-33.84 136.87,0.77 107.62,10.66 185.89,-75.77l105.78 7.8c-18.24,-27.25 7.98,-27.98 -45.5,-31.46l60.6 -16.74c-72.67,-39.16 -209.56,-25.46 -303.3,-29.47 -47.67,-2.05 -99.33,-1.92 -145.96,-4.58 -87.5,-4.97 -97.75,13.53 -130.52,-45.78 -28.33,45.49 -34.53,-59.55 -21.35,72.87l258.26 -0.7c-237.61,-1.42 -864.3,159.21 -874.02,16.47z"/>
  <path class="fil10" d="M9429.43 17623.54c-218.22,17.51 -515.84,-172.01 -762.34,-160.81 92.4,14.42 582.38,194.77 634.93,263.67 -132.33,-1.01 -684.03,-181.74 -821.79,-243.49 53.07,-55.71 35.01,-1.98 51.57,-65.8 -340.38,-44.43 -609.4,-92.01 -959.74,-114.3l-105.78 -7.8c-78.27,86.43 -49.02,76.54 -185.89,75.77 -175.3,-0.97 -613.03,-24.07 -741.55,33.84 83.67,52.15 690.62,3.76 841.85,8.67 1449.86,47.12 1210.24,241.42 1502.21,318.27 206.51,54.36 490.33,214.18 660.22,247.15 -38.96,-62.68 -25.6,-11.78 -28.47,-77.13 108.45,-5.13 276.64,100.69 374.49,157.53 103.7,60.25 298.57,134.05 320.9,247.97 -178.27,-32.4 -359.12,-208.77 -539.2,-262.71 56.63,54.59 330.47,232.09 415.03,284.92 110.05,68.77 126.49,99.06 250.16,56.46 82.56,-28.44 188.46,-49.99 256.51,-100.68l-135.68 -119.12 -79.36 58.52c-164.42,-57.78 -297.32,-185.5 -455.69,-256.94 -130.44,-58.86 -407.91,-147.72 -503.4,-231.33l11.02 -112.66z"/>
  <path class="fil11" d="M13172.32 17391.19l-36.63 111.88c-1428.04,312.83 -1822.15,745.86 -1952.85,774.22 -13.62,-28.94 -66.88,-40.09 8.26,-86.31l-143.25 100.72 380.45 119.37c776.22,-418.61 60.28,-377.5 1443.43,-808.61 586.65,-182.86 455.31,-78.42 595.41,-43.64 82.06,-6.65 327.86,-31.71 397.27,-57.2 61.77,-22.67 69,-44.82 154.96,-67.55 72.48,-19.17 116.4,-9.81 153.97,-65.98 -40.43,-130.6 -590.75,-31.62 -729.61,-4.88 -103.12,19.86 -188.65,12.87 -271.41,27.98z"/>
  <path class="fil6 str1" d="M10748.53 21179.33c41.29,58.97 91.48,84.49 142.69,19.04 40.74,-95.96 43.59,-163.26 74.84,-238.78 42.28,-102.26 83.76,-86.6 22.11,-206.24 53.39,-67.18 30.18,-4.92 56.42,-90.78 -65.31,-38.03 -59.93,-30.64 -62.28,-103.17 -57.72,-57.15 -95.62,-142.09 -194.76,-106.17 -68.97,25 -90.77,132.42 -106.4,199.05 -44.11,188.16 32.63,346.42 67.38,527.05z"/>
  <path class="fil12" d="M5805.43 17762.01c-22.71,114.27 83.01,924.31 100.63,1107.8 11.75,122.27 28.25,452.05 54.78,548.33 34.34,124.65 231.88,116.13 276.25,331.19 13.75,66.58 15.28,232.18 32.38,274.34 18.26,45.02 98.72,87.49 144.11,159.01 133.18,209.8 -7.71,292.81 49.68,517.01 75.4,294.52 -103.93,288.03 -77.79,444.66 67.69,405.77 22.02,222.98 -186.54,389.86 -35.54,130.85 48.92,962.86 94.2,1116.24 321.08,44.87 1551.95,4.5 2043.08,21.75 311.5,10.93 654.46,47.99 964.03,89.44 246.37,32.98 817.9,166.38 886.6,171.93 43.78,-425.36 27.28,-1947.33 25.29,-2463.96l-19.28 -1844.13c-4.25,-200.35 -123.16,-231.14 -285.61,-340.52 -852.91,-574.28 -2024.7,-742.1 -3032.31,-713.31 -177.17,5.04 -958.73,99.24 -1069.5,190.36z"/>
  <path class="fil12" d="M15365.26 21472.35c-205.78,-17.52 -87.7,-240.01 -85.61,-360.86 1.43,-81.89 -135.02,-154.26 -101.96,-351.46 13.93,-83.03 39.34,-115.59 32.11,-207.57 -11.34,-144.26 -102.49,-326.2 184.15,-505.28 10.93,-107.09 8.27,-221.43 40.5,-326.75 40.13,-131.18 58.41,-120.75 164.04,-179.99 140.14,-78.61 124.52,-395.64 139.96,-548.1 25.04,-247.35 146.06,-1047.93 109.24,-1247.44l-110.39 -31.86c-370.94,-34.24 -698.95,-123.55 -1092.51,-138.81 -1098.67,-42.57 -2217.78,201.42 -3101.6,864.59 -104.22,78.19 -85.29,78.1 -85.83,207.28 -3.18,764.77 -47.21,3799.52 7.78,4279.22 266.38,-26.24 583.66,-130.8 873.9,-165.9 657.7,-79.54 1319.68,-112.07 1981.97,-107.91 349.3,2.18 691.13,27.25 1040.32,-2.61 60.32,-193.2 105.13,-910.96 97.05,-1129.76l-93.12 -46.79z"/>
  <path class="fil12" d="M10982.31 20559.4c2.35,72.53 -3.03,65.14 62.28,103.17l191.67 83.69c-67.76,50.37 -91.21,28.82 -174.17,29.74 -26.65,272.97 89.34,266.54 94.3,395.64 -73.02,-19.97 -101.05,-67.13 -152.52,-114.94 -40.95,90.19 -5.34,113.12 -112.65,141.67 -51.21,65.45 -101.4,39.93 -142.69,-19.04l-63.47 -8.12c-7.55,-73.16 11.06,-75.13 -26.02,-131.67 -64.33,72.39 -44.22,104.58 -157.27,133.61 11.21,-141.79 121.74,-88.68 101.7,-402.49l-169.04 8.36c33.21,-178.27 339.77,-15.34 177.61,-290.08l78.57 -39.03c-62.23,-82.7 -163.62,-94.96 -166.33,-215.79 146.22,44.68 215.49,180.02 315.64,175.4 107.11,-4.94 140.74,-140.94 298.24,-174.21 -8.2,102.6 -84.23,143.24 -160.07,197.07 6.23,2.58 39.24,15.51 43.39,18.55 48.5,35.23 5.23,-18.27 33.7,47.06l-72.87 61.41zm-695.06 -870.94c-31.68,211.35 -4.26,1320.1 -6.37,1692.47 -0.83,148.63 -53.2,398.58 44.28,515.56l1034.42 2.24c28.33,-98.39 23.38,-2019.27 4.3,-2216.95 -181.62,-103.9 -893.13,-111.84 -1076.63,6.68z"/>
  <path class="fil12" d="M10279.07 18504.83l-2.14 851.84c153.06,20.22 373.76,-46.73 543.55,-46.85 183.14,-0.12 369.16,58.95 548.05,49.44l7.61 -872.46c-176.09,-62.34 -373.73,-131.57 -555.62,-132.9 -138.73,-1.03 -436.38,69.04 -541.45,150.93z"/>
  <path class="fil12" d="M10283.23 22951.9l1084.55 10.55c13.26,-110.07 20.54,-647.53 -6.8,-727.33 -130.05,-72.06 -722.82,-42.46 -897.09,-30.64 -238.15,16.16 -180.09,34.41 -180.31,270.01 -0.16,159.02 -3.89,318.71 -0.35,477.41z"/>
  <path class="fil12" d="M10282.93 22016.24l0.77 105.33c104.4,25.89 940.24,19.08 1081.85,6.85l-1.96 -131.06c-224.99,-22.47 -899.05,-56.94 -1080.66,18.88z"/>
  <path class="fil12" d="M10292.01 19537.13c127.71,62.22 388.92,-26.1 548.72,-24.78 122.31,1.01 438.9,76.71 518.63,40.64 4.21,-194.85 -380.98,-169.47 -518.63,-168.01 -147.19,1.57 -507.11,-19.42 -548.72,152.15z"/>
  <path class="fil6 str1" d="M10748.53 21179.33c-34.75,-180.63 -111.49,-338.89 -67.38,-527.05 15.63,-66.63 37.43,-174.05 106.4,-199.05 99.14,-35.92 137.04,49.02 194.76,106.17l72.87 -61.41c-28.47,-65.33 14.8,-11.83 -33.7,-47.06 -4.15,-3.04 -37.16,-15.97 -43.39,-18.55 75.84,-53.83 151.87,-94.47 160.07,-197.07 -157.5,33.27 -191.13,169.27 -298.24,174.21 -100.15,4.62 -169.42,-130.72 -315.64,-175.4 2.71,120.83 104.1,133.09 166.33,215.79l-78.57 39.03c162.16,274.74 -144.4,111.81 -177.61,290.08l169.04 -8.36c20.04,313.81 -90.49,260.7 -101.7,402.49 113.05,-29.03 92.94,-61.22 157.27,-133.61 37.08,56.54 18.47,58.51 26.02,131.67l63.47 8.12z"/>
  <path class="fil6 str1" d="M10891.22 21198.37c107.31,-28.55 71.7,-51.48 112.65,-141.67 51.47,47.81 79.5,94.97 152.52,114.94 -4.96,-129.1 -120.95,-122.67 -94.3,-395.64 82.96,-0.92 106.41,20.63 174.17,-29.74l-191.67 -83.69c-26.24,85.86 -3.03,23.6 -56.42,90.78 61.65,119.64 20.17,103.98 -22.11,206.24 -31.25,75.52 -34.1,142.82 -74.84,238.78z"/>
  <path class="fil13" d="M6066.72 17578.48c87.15,25 272.17,-22.26 375.68,-35.58l-93.31 -37.78c71.43,-69.05 95.25,-41.72 98.07,-130.2 -100.25,-51.26 -117.52,-5.53 -201.62,54.62 -70.44,50.36 -124.26,81.49 -178.82,148.94z"/>
  <path class="fil6" d="M16415.53 20275.53c157.04,297.62 -113.46,454.19 -303.88,608.95 -108.01,87.78 -202.58,159.73 -353.33,158.97 -93.34,-0.49 -377.06,-15.6 -445.99,-66.83 -91.68,-68.16 -112.95,-295.69 9.03,-334.26 101.27,-32.02 345.87,20.3 471.13,2.77 214.61,-30.04 417.19,-280.08 623.04,-369.6zm-133.76 -496.06c326.12,182.02 108.13,424.17 -104.78,563.06 -256.71,167.47 -409.64,295.08 -746.9,233.79 -159.58,-28.99 -219.8,-128.01 -154.86,-284.78 123.64,-298.56 281.94,-57.27 729.45,-282.98 153.04,-77.18 160.72,-162.32 277.09,-229.09zm-485.51 -455.6l18.45 -308.09c170.25,-11.31 393.76,-24.74 497.99,128.6 94.49,138.99 78.49,336.95 -5.63,477.51 -121.36,202.75 -544.51,495.37 -791.46,421.03 -265.51,-367.77 389.64,-477.1 447.82,-826.58 -112.98,28.26 -77.28,51.62 -167.17,107.53zm-2412.69 -5002.22l-49.53 8.25c-35.55,-62.31 -15.37,-43.47 -81.3,-70.13 43.38,178.02 8.41,194.35 -52.38,349.35 -40.42,103.07 -71.68,210.29 -110.86,314.36 -49.97,132.77 -151.14,536.42 -255.9,597.97 8.43,200.62 -237.97,684.53 -373.39,837.45 -263.36,297.37 -1012,943.83 -1298.77,1110.01 -330.68,191.65 -573.46,10.05 -841.45,-183.99 -406.88,-294.62 -1014.45,-711.08 -1259.39,-1149.63 -143.36,-256.7 -641.48,-1501.25 -643.07,-1754.44l-80.26 81.89 72.68 285.03c-151.71,-66.43 -455.07,-431.52 -652.42,-397.72 -71.43,89.94 -73.65,329.91 23.53,402.42 71.3,-95.84 -24.71,-180.45 11.67,-328.45 84.92,10.09 238.46,110.32 296.69,172.22 -9.81,133.05 -137.89,298.46 -47.77,422.09 89.38,-55.81 29.11,-179.07 88.65,-302.22 165.51,-26.66 417.64,252.01 420.41,415.26 -108.63,-34.93 -208.64,-169.66 -335.01,-86.81 67.04,78.42 242.42,58.41 400.04,300.66 79.78,122.63 207.71,330.54 194.61,477.52 -288.78,10.02 -378.35,-180.38 -557.35,-202.99 31.64,248.29 487.22,231.47 629.69,325.3 24.69,82.51 2.26,164.52 -92.03,189.09 -133.95,34.9 -440.88,-223.27 -542.21,-299.66 -744.84,-561.39 -421.55,-399.79 -588.25,-576.52l3.17 90.36 -180.2 -83.22c21.17,61 156.41,123.57 311.96,314.66 81.3,99.89 229.83,182.67 342.77,264.24 431.23,311.41 495.23,435.65 797.44,292.6 71.38,72.61 96.14,72.8 119.57,181.47 -70.42,54.29 -717.46,266.63 -854.8,313.85 -145.5,50.04 -286.83,101.09 -430.13,156.73 -142.26,55.23 -292.72,78.92 -425.65,152.32 -89.84,36.73 -161.92,52.79 -250.07,82.18 -77.73,25.9 -126.42,88.02 -190.43,134.07 -143.45,103.23 -368.58,76.82 -533.56,106.2 9.72,142.74 636.41,-17.89 874.02,-16.47l-258.26 0.7c-13.18,-132.42 -6.98,-27.38 21.35,-72.87 72.55,-16.15 394.66,-176.74 504.45,-219.29 243.75,-94.47 1572.06,-590.1 1659.78,-526.14 63.74,100.6 52.38,453.22 90.54,619.38 41.53,180.84 156.58,372.19 184.88,524.75 -144.62,-9.54 -292.27,-76.1 -432.51,-116.01 -145.82,-41.48 -293.63,-72.28 -441.86,-102.77 -208.04,-42.79 -806.67,-149.43 -985.5,-100.09l-60.6 16.74c53.48,3.48 27.26,4.21 45.5,31.46 350.34,22.29 619.36,69.87 959.74,114.3 -16.56,63.82 1.5,10.09 -51.57,65.8 137.76,61.75 689.46,242.48 821.79,243.49 -52.55,-68.9 -542.53,-249.25 -634.93,-263.67 246.5,-11.2 544.12,178.32 762.34,160.81 88.65,63.88 120.06,99.71 201.95,26.84 -210.6,-330.39 -384.44,-630.75 -337.51,-1058.33 152.69,71.92 546.33,431.52 710.25,563.16 870.53,699.01 1023.98,539.67 1666.88,34.91 126.63,-99.43 225.1,-194.17 342.59,-305.25l256.04 -230.07c14.31,-11.1 32.36,-25.82 45.89,-35.68 55.5,-40.41 13.15,-17.4 61.5,-36.27 27.25,226.92 -73.47,585.84 -160.39,808.57 -29.29,75.08 -93.46,163.1 -108.2,230.56 81.11,58.58 112.69,9.83 168.26,-56.19l-42.12 -7.92c46.86,-179.16 128.8,-332.46 167.49,-507.41 33.12,-149.74 26.4,-501.89 86.68,-601.06 145.1,-50.04 1158.85,262.13 1383.7,318.72 253.5,63.8 1180.76,238.72 1254.85,460.99l-419.75 -5.84c81.96,46.69 450.68,53.58 591.12,99.99 97.61,32.25 119.92,89.21 205.28,139.6 89.78,52.96 179.8,47.62 182.9,146.02 -47.36,14.72 -26.04,-23.92 -116.5,22.36l166.96 81.8 110.39 31.86c36.82,199.51 -84.2,1000.09 -109.24,1247.44 -15.44,152.46 0.18,469.49 -139.96,548.1 -105.63,59.24 -123.91,48.81 -164.04,179.99 -32.23,105.32 -29.57,219.66 -40.5,326.75 -286.64,179.08 -195.49,361.02 -184.15,505.28 7.23,91.98 -18.18,124.54 -32.11,207.57 -33.06,197.2 103.39,269.57 101.96,351.46 -2.09,120.85 -120.17,343.34 85.61,360.86 97.61,-24.13 51.12,1.26 129.64,13.34 91.7,14.09 83.69,16.84 124.48,-34.48 -96.72,-10.91 -205.79,-11.55 -282.26,-70.56 -21.58,-109.85 -25.73,-180.66 40.91,-274.54 198,-31.18 381.49,70.44 570.49,-20.45 104.35,-50.2 307.77,-183.92 341.99,-281.39l161.22 -52.31c-1.31,-166.81 75.51,-92.39 95.48,-242.27 12.02,-90.21 -6.45,-208.58 -58.75,-281.59 16.56,-58.8 83.38,-144.06 3.22,-310.35l-116.61 -248.63c65.39,-123.52 165.84,-215.75 20.8,-546.8 -87.64,-200.08 -361.65,-166.14 -544.36,-184.76 -62.66,-252.7 109.07,-1121.62 102.35,-1178.33 -17.31,-146.25 -657,-428.43 -742.17,-591.17 -97.78,-83.73 -93.14,-124.93 -239.67,-184.7 -156.44,-63.8 -2104.34,-557.7 -2365.96,-630.7l105.79 -253.18c174.92,116.93 197.2,138.22 374.69,15.68 69.73,-48.14 108.65,-36.79 170.7,-91.63 58.4,-51.59 90.3,-78.88 158.22,-125.59 88.97,-61.2 192.43,-191.79 275.76,-270.82 78.54,-74.48 70.65,-45.18 115.25,-148.09 36.7,-84.7 81.63,-109.32 108.98,-179.23l-50.86 -0.05 -6.26 -82.61c-66.85,74.69 -126.03,232.49 -201.45,334.88 -91.45,124.14 -758.55,757.02 -876.92,481.78 -5.61,-96.94 2.12,-103.48 36.22,-188.46 142.84,-61.97 585.58,-104.51 611.17,-307.4 -173.5,7.5 -298.12,224.88 -537.83,186.44 -2.56,-137.44 135.3,-425.1 205.29,-552.59 164.59,-299.73 251.57,-192.14 413.89,-333.55 -99.67,-91.94 -186.87,27.77 -299.78,40.98 -6.13,-148.64 164.59,-371.27 319.14,-383.72 120.76,118.87 11.27,199.12 108.41,280.22 132.24,-104.66 -26.5,-271.17 -60.33,-378.81 39.95,-67.89 137.95,-159.92 214,-175.93 23.34,118.21 -26.63,187.44 9.7,311.22 118.33,-43.61 96.11,-292.89 42.54,-385.2 -197.73,-57.97 -359.87,286.59 -508.3,333.35l49.49 -158.7z"/>
  <path class="fil6" d="M11325 15523.06l-94.57 -82.03c53.72,-102.3 517.84,-277.86 647.96,-332.25 162.72,-67.99 565.38,-274.21 717.86,-266.37 -13.36,102.13 -87.87,286.72 -145.54,372.93 -110.67,165.49 -685.5,272.39 -783.76,235.06 -81.35,-30.9 -82,-86.75 -190.79,-55.8 -53.23,15.14 -100.25,88.11 -151.16,128.46zm501.19 -841.55c-53.59,86.26 -684.71,504.61 -794.03,497.41 -9.47,-101.58 6.09,-161.22 -34.64,-258.04 -53.43,89.21 -57.1,429.48 44.51,507.25 73.04,55.91 73.63,7.91 189.84,113.84 148.72,135.53 813.06,-85.78 1025.44,-135.63 104.82,-24.61 167.8,-79.02 229.26,-88.74 28.02,-117.89 90.83,-224.14 134.58,-336.28 94.53,-242.34 29.93,-148.46 241.88,-244.54 7.9,-144.58 -126.96,-363.27 -226.65,-455.78 -306.46,-1.96 -545.32,328.42 -810.19,400.51z"/>
  <path class="fil6" d="M10170.97 15544.36c-262.52,27.98 -743.79,-111.84 -876.91,-353.22 -114.91,-208.39 -157.89,-881.9 -115.65,-1118.02 101.63,0.39 135.21,67.26 206.89,137.32l860.39 840.18c104.96,102.44 346.71,290.66 261.26,387.85 -130.82,70.78 -41.72,-18.77 -192.7,-22.38 -113.82,-2.74 -103.79,49.16 -143.28,128.27zm-1418.08 -2619.06c-36.91,70.8 -16.51,522.7 -19.8,639.45 -4.03,142.44 -82.48,282.8 10.05,576.98 167.37,11.11 198.72,-183.58 349.39,-143.8 33.21,120.89 10.87,609.28 31.7,801.48 55.34,510.65 258.52,721.56 851.21,796.8 552.86,70.17 409.54,21.81 612.23,-157.01l127.33 54.85c62.95,-91.37 50.11,-285.31 71.44,-402.76 19.64,-108.07 98.22,-270.45 51.83,-358.71 -115.05,37.95 -44.04,321.65 -145.06,438.95 -63.54,-20.54 -748.84,-911.38 -845.62,-1039.33 -134.44,-177.72 -288.24,-346.51 -445.56,-505 -53.61,-54.01 -68.25,-152.23 -268.38,-218.81 -211.67,-70.41 -231.91,90.22 -313.65,121.6 -41.32,-153.66 53.47,-495.17 -67.11,-604.69z"/>
  <path class="fil5" d="M11174.54 4763.08c-66.22,413.93 -169.1,726.59 -350.56,1089.97 -71.29,142.74 -155.1,363.53 -327.14,403.6 -24.06,-103.28 -59.37,-204.14 -82.17,-314.49 -39.09,-189.17 -92.57,-935.44 -210.16,-1021.58 -32.07,120.07 -257.4,406.88 -334.1,521.91 -117.19,175.72 -234.24,341.19 -346.24,530.63 -290.3,490.94 -707.14,1787.81 -847.53,474.96l-38.21 -796.83c-1786.78,1196.08 -2110.19,4268.44 -1821.66,6164.85 -168.76,8.6 -817.69,-235.22 -919.76,-87.39 -79.58,115.3 210.18,792.39 239.45,912.22 92.49,378.77 334.08,679.29 568.83,976.12 29.9,37.83 39.26,43.43 68.25,77.91 98.16,116.76 301.95,308.28 340.56,452.81 -380.75,0 -917.84,-368.78 -1252.87,-396.64 8.79,105.46 87.77,207.28 143.04,274.51 65.16,79.27 122.52,148.29 196.23,221.34l659.87 613.72c178.25,143.51 585.8,471.83 817.52,477 -27.78,-333.77 -460.78,-1443.12 278.66,-1071.88 77.97,39.14 115.46,61.58 187.3,105.01 79.05,47.8 109.71,87.55 223.12,90.08 76.84,-114.74 184.42,-510.76 187.92,-668.03 -105.86,0 -113.77,20.87 -229.69,20.87 0,-383.71 9.91,-712.09 107.41,-1040.79 55.45,-186.9 65.52,-376.33 135.07,-574.75 315.85,-901.08 869.5,-1152.17 1428.1,-305.14 323.09,489.9 519.8,1044.56 707.07,1610.35 37.52,113.34 103.32,245.8 128.09,352.09l41.76 0c17.34,-74.43 43.99,-88.4 76.71,-152.95 32.21,-63.53 42.99,-108.13 76.33,-174.2 55.81,-110.65 98.44,-216.59 145.23,-334.95 186.18,-470.88 517.96,-1171.13 865.84,-1535.12 161.21,-168.68 314.18,-378.66 571.49,-410.93 84.55,-10.6 144.01,-3.24 201.09,24.77l108.11 79.81c177.19,169.21 277.88,430.31 340.71,703.17 27.9,121.18 -3.69,267.33 41.35,396.08 84.38,241.19 79.98,836.76 79.6,1133.64 -0.16,114.4 -19.59,138.67 -21.6,228.92 -450.11,0 -420.19,-193.46 -378.78,-545.96 16.58,-141.1 -17.96,-193.81 -17.96,-309.95l-41.77 0c-19.89,238.96 -50.74,615.17 29.08,826.84 31.78,84.27 50.95,71.89 107.49,122.18 91.15,81.11 106.98,195.09 161.75,297.56 63.48,118.77 69.18,21.78 98.43,131.23 204.45,-4.55 400.14,-424.35 584.66,-334.01 203.83,99.78 -41.75,979.17 -41.75,1294.31 146.09,0 179.93,-23.92 265.97,-88.99 84.11,-63.62 115.18,-93.48 188.2,-166.73 70.23,-70.47 103.46,-106.78 184.73,-170.2 116.11,-90.6 374.77,-427.89 503.95,-560.85 84.84,-87.32 286.7,-297.69 297.95,-432.81 -347.13,7.74 -629.9,229.65 -981.42,229.65 31.59,-135.6 180.43,-274.49 259.31,-387.9 92.37,-132.81 168.45,-254.46 253.9,-393.32 83.28,-135.34 168.58,-273.59 238.78,-408.44 157.33,-302.2 249.41,-621.03 352.1,-942.3 53.66,-167.89 98.36,-336.53 146.32,-500.88 49.54,-169.82 95.6,-328.78 140.17,-507 39.57,-158.13 112.86,-357.37 112.86,-534.34 -89.72,2 -108.4,27.26 -163.47,66.21 -315.08,222.8 -643.99,442.31 -984.99,622.7 60.43,-259.35 111.44,-783.76 143.12,-1067.72 58.4,-523.49 -7,-1203.92 -86.29,-1723.84 -24.48,-160.45 -68.54,-331.24 -106.93,-498.51l-123.08 -482.36c-66.62,-185.7 -44.65,-270.92 -160.92,-444.52 -129.98,95.22 -502.31,902.6 -604.86,1107.12 -33.81,67.43 -45.87,103.18 -125.99,124.57 -12.56,-563.98 -381.97,-1579.05 -571.35,-2121.79 -39.29,-112.59 -85.49,-172.01 -137.4,-259.27 -99.25,-166.87 -203.73,-301.09 -309.96,-462.53l-783.23 -761.78c-775.62,-653.11 -510.84,-522.03 -631.64,232.96z"/>
  <path class="fil7" d="M10723.82 14529.94c57.43,-105.29 2.68,-115.6 -49.87,-211.19 -73.53,-133.77 -219.12,-462.14 -360.96,-488.2 24.07,94.4 135.68,261.54 189.41,355.57 58.4,102.2 125.52,292.43 221.42,343.82z"/>
  <path class="fil7" d="M9407.41 15955.92c95.67,42.46 416.09,-106.13 542.61,-125.66 135.49,-20.91 567.02,-17.82 648.65,-59.58 -10.42,-37.51 37.57,-22.62 -45.42,-54.93 -108.38,-42.18 -931.48,46.59 -1145.84,240.17z"/>
  <path class="fil7" d="M10897.02 15502.52c61.04,-95.67 23.09,-38.42 17.81,-221.37 -3.43,-119.58 21.43,-138.35 -13.2,-239.33 -34.01,26.13 -63.77,-11.13 -59.26,213 1.95,96.93 -6.83,189.35 54.65,247.7z"/>
  <path class="fil6" d="M13862.03 20502.34c-15.8,34.83 -21.61,54.8 -14.05,108.02l137.88 -8.23 6.28 388.03 75.46 3.24 -16.04 -423.1 152.7 -13.22 1.85 -74.21c-179.77,-16.93 -201.43,11.75 -344.08,19.47zm-2147.04 477.78l66.33 -0.73 6.19 -488.52 -86.33 11.59 13.81 477.66zm2623.82 -198.9c-50.78,-278.51 329.2,-333.92 369.01,-81.24 42.81,271.74 -324.86,323.37 -369.01,81.24zm78.43 -308.99l-18.87 23.29c-14.81,15.42 -8.26,9.76 -28.99,28.22 -39.86,35.49 -97.24,78.02 -116.08,156.84 -34.44,144.12 30.2,211.36 83.65,287.36 106.33,9.25 128.83,78.78 284.99,10.96 209.28,-90.88 248.83,-339.74 90.32,-468.19 -84.92,-68.82 -198.63,-28.24 -295.02,-38.48zm500.06 326.47c94.76,-21.19 7.01,1.71 83.11,-174.66 31.02,-71.88 71.71,-104.54 70.19,-198.36 -121.7,-9.59 -114.54,11.54 -161.03,246.81 -11.85,60.03 -22.52,83.85 7.73,126.21zm-2940.7 -271.64l-84.89 -3.81c-37.16,64.94 -30.49,417.23 -0.02,487.01 87.19,-1.08 63.88,-38.73 58.15,-126.13 -4.3,-65.55 -5.01,-119.27 -2.28,-185.07 68.09,9.15 188.25,169.02 220.96,234.91l6.77 11.08c35.58,18.03 55.59,29.16 110.79,27.27 4.68,-55.34 22.31,-489.75 18.05,-505.19 -80.24,-3.66 -69.45,47.5 -73.1,126.1 -3.7,78.98 -4.41,134.63 -16.84,206.05 -47.42,-23.09 -227.94,-234.65 -237.59,-272.22zm567.62 -34.58c-49.03,65.25 -169.16,95.07 -155.44,234.16 119.68,47.1 286.5,-6.22 365.28,71.56 -13.83,73.46 -74.28,117.9 -165.51,122.77 -154.09,8.2 -104.22,-64.03 -209.78,-95.44 0.13,109.59 40.34,177.14 158.26,173.05 113.46,-3.94 156.85,-63.22 227.77,-80.65 24.8,-49.41 -2.9,-1.81 31.35,-46.94 13.72,-18.07 44.05,-40.15 51.06,-90.87 6.53,-47.29 3.72,14.69 0.87,-31.2 -8.19,-132.16 -236.91,-44.23 -347.38,-103.55 20.34,-41.21 54.04,-74.71 109.07,-84.06 148.25,-25.17 32.7,48.5 140.89,27.06 2.64,-5.17 5.79,-18.6 6.45,-16.17 0.45,1.63 19.52,-24.38 7.82,-63.18 -24.28,-80.5 -86.49,-38.39 -220.71,-16.54zm432.6 0.14c-28.93,29.45 -13.44,18.72 -52.6,42.47 -1.51,60.69 -11.05,191.3 -8.4,225.28 4.57,58.67 16.16,150.93 21.14,228.59 52.11,16.16 140.19,11.98 219.19,4.15l127.65 -34.56c26.08,-61.51 12.43,-8.65 22.95,-79.95 -116.42,-2.91 -198.01,48.63 -302.86,30.6 -11.35,-135.61 -25.98,-140.01 104.82,-165.97 156.46,-31.04 179.37,0.81 216.94,-63.9 -73.56,-84.58 -241.33,-2.14 -328.92,-1 0.15,-77.96 18.57,-91.82 94.62,-106.29 141.68,-26.96 112.1,8.69 153.17,-45.54 -23.41,-49.78 -1.81,-46.33 -75.99,-55.58 -31.53,-3.93 -96.37,5.72 -129.59,9.32l-62.12 12.38zm576.31 16.97c-76.9,90.85 -163.94,104.63 -182.36,275.02 -19.56,180.78 82.71,219.32 248.45,199.49l127.35 -50.13c58.82,-77.62 50.57,-11.85 72.71,-109.1 -144.56,19.39 -251.36,171.21 -377.59,24.28 -50.4,-111.49 127.83,-267.66 226.72,-274.39 114.86,-7.81 -30.15,46.85 110.04,39.65 26.44,-54.59 12.23,-83.49 -17,-128.78l-169.89 9.56c-16.48,18.81 -7,13 -38.43,14.4zm1330.19 458.03c73.66,-11.88 59.45,-21.59 56.55,-105.31 -77.54,7.01 -98.96,25.81 -56.55,105.31z"/>
  <path class="fil6" d="M7931.4 20959.75l187.16 -1.91 24.04 -13.5c86.52,-40.1 134.05,-24.41 143.53,-111.72 -57.44,-25.9 -195.17,29.59 -301.94,24.69l-7.53 -396.41 -62.26 5.39c-29.08,66.56 -17.32,401.93 17,493.46zm998.22 -15.21c14.3,-55.48 -4.14,-242.18 4.9,-367.06 0.8,-11.03 4.81,-60.26 3.91,-67.85 -10.39,-87.94 3,-20.11 -21.15,-52.17 -81.56,14.08 -63.24,-6.44 -57.69,239.31 6.12,270 -23.61,231.24 70.03,247.77zm-1330.31 -304.62c46.97,-85.14 -0.27,-20.09 50.9,-53.01 24.01,63.94 60.78,123.17 66.9,203.36l-176.29 39.57 58.49 -189.92zm-672.65 -112.88c-30.99,262.46 -165.16,351.46 -83.12,439.05 89.36,-37.18 74,-227.34 135.98,-289.89l35.13 71c9.66,29.78 14.17,50.17 23.17,78.77 11.62,36.85 27.34,106.8 43.69,135.56 115.05,-8.73 46.43,-176.46 152.23,-314.81 19.77,49.48 41.74,134.19 59.17,194.56 35.29,122.2 104.86,123.82 104.97,123.65 2.72,-4.17 10.35,4.62 14.48,8.35 92.28,-17.45 28.36,-10.45 89.41,-43.02 33.18,-17.71 74.06,-24.44 117.2,-33.22 258.14,-52.53 99,51.42 236.3,38.29 21.49,-88.09 -66.42,-187.46 -100.8,-266.87 -18.46,-42.67 -35.07,-81.74 -52.42,-132.72 -29.1,-85.49 -17.58,-95.79 -110.52,-89.26 -0.35,69.58 -131.74,367.24 -187.06,424.04 -57.33,-52.52 -65.83,-123.05 -92.66,-216.97 -21.82,-76.34 -31.18,-175.97 -77.32,-229 -56.28,29.99 -35.77,1.41 -72.16,165.88 -13.82,62.45 -30.15,135.19 -63.82,181.87l-102.38 -306.5c-65.99,0.76 -37.72,-11.05 -69.47,61.24zm1485.02 336.84c-8.31,-81.2 -34.26,-228.7 11.07,-286.28 53.07,-67.43 203.17,-54.79 252.19,4.81 131.56,159.91 -106.99,296.64 -263.26,281.47zm-81.22 -296.76c-3.8,111.88 -12.35,283.16 18.26,375l27.96 7.55c120.14,13.37 440.09,-87.35 417.83,-320.02 -10.21,-106.8 -95.17,-182.18 -200.07,-185.15 -125.27,-3.56 -200,74.35 -263.98,122.62zm1036.37 -47.14c-11.52,-65.08 1.3,-74.2 -91.61,-80.51 -103.78,-7.05 -305.61,-8.53 -280.76,129.04 189.17,41.43 124.63,-142.18 143.3,300 3.68,87.11 -2.98,84.13 68.48,83.32 25.46,-48.1 -4.93,-244.73 8.48,-415.7l152.11 -16.15zm122.9 244.71c-64.3,-269.74 292.75,-370.45 365.23,-123.88 32.67,111.18 -33.26,221.75 -114.68,251.42 -113.49,41.35 -229.14,-37.75 -250.55,-127.54zm243.36 199.42c16.29,-12.13 60.76,-24.45 97.38,-51.08 34.33,-24.96 64.26,-56.98 84.08,-86.37 53.84,-79.86 30.86,-191.07 28.62,-279.24 -4.08,-2.65 -10.02,-11.8 -11.91,-8.43l-41.11 -33.86c-382.37,-348.44 -814.77,497.07 -157.06,458.98zm-3031.72 -354.41c6.34,68.54 -27.88,150.35 -62.68,189.04 -21.59,65.97 -33.12,63.15 -36.7,138.03l95.25 0.45c27.43,-57.55 99.92,-296.02 61.31,-370.02l-57.18 42.5zm116.19 -226.24c-85.2,10.64 -107.26,49.46 -59.01,114.63 76.29,-16.6 50.82,-23.4 59.01,-114.63z"/>
 </g>
</svg>
