<?xml version="1.0" encoding="UTF-8"?>
<!DOCTYPE svg PUBLIC "-//W3C//DTD SVG 1.1//EN" "http://www.w3.org/Graphics/SVG/1.1/DTD/svg11.dtd">
<!-- Creator: CorelDRAW 2017 -->
<svg xmlns="http://www.w3.org/2000/svg" xml:space="preserve" width="200mm" height="200mm" version="1.1" style="shape-rendering:geometricPrecision; text-rendering:geometricPrecision; image-rendering:optimizeQuality; fill-rule:evenodd; clip-rule:evenodd"
viewBox="0 0 20000 20000"
 xmlns:xlink="http://www.w3.org/1999/xlink">
 <defs>
  <style type="text/css">
   <![CDATA[
    .fil37 {fill:#0B284B}
    .fil54 {fill:#0C0C0C}
    .fil32 {fill:#0E0E0E}
    .fil49 {fill:#122535}
    .fil45 {fill:#18365A}
    .fil42 {fill:#1A3A64}
    .fil46 {fill:#1B1C1B}
    .fil56 {fill:#1D345D}
    .fil51 {fill:#2F4D71}
    .fil55 {fill:#343434}
    .fil36 {fill:#383837}
    .fil40 {fill:#3A3B3A}
    .fil53 {fill:#3D3D3D}
    .fil57 {fill:#434243}
    .fil31 {fill:#483830}
    .fil50 {fill:#4A2C5B}
    .fil28 {fill:#4A3354}
    .fil23 {fill:#4A494A}
    .fil26 {fill:#4E4535}
    .fil33 {fill:#564711}
    .fil29 {fill:#575354}
    .fil64 {fill:#62321D}
    .fil8 {fill:#69594C}
    .fil24 {fill:#6D532E}
    .fil19 {fill:#72706F}
    .fil21 {fill:#776624}
    .fil61 {fill:#77674F}
    .fil44 {fill:#8A6899}
    .fil13 {fill:#8B8889}
    .fil22 {fill:#8F724D}
    .fil30 {fill:#906D33}
    .fil18 {fill:#95755C}
    .fil17 {fill:#96876F}
    .fil3 {fill:#996930}
    .fil34 {fill:#999798}
    .fil5 {fill:#A59C94}
    .fil39 {fill:#A7A5A6}
    .fil9 {fill:#AE8D35}
    .fil62 {fill:#AE985F}
    .fil20 {fill:#AF946E}
    .fil16 {fill:#B18C50}
    .fil6 {fill:#B2AFAF}
    .fil67 {fill:#B9B7B7}
    .fil58 {fill:#C44C37}
    .fil14 {fill:#C69C69}
    .fil12 {fill:#C6C5C4}
    .fil7 {fill:#CA984E}
    .fil4 {fill:#CDB58F}
    .fil41 {fill:#CDCCCD}
    .fil48 {fill:#D1CECE}
    .fil66 {fill:#D2AD71}
    .fil11 {fill:#D3D2D2}
    .fil2 {fill:#D4AB51}
    .fil65 {fill:#DBDADA}
    .fil63 {fill:#E8E8E7}
    .fil10 {fill:#EAB970}
    .fil15 {fill:#EBB559}
    .fil35 {fill:#EEB04D}
    .fil38 {fill:#F0C372}
    .fil25 {fill:#F4C57B}
    .fil1 {fill:#F4D5A3}
    .fil43 {fill:#F6C678}
    .fil59 {fill:#F6D39A}
    .fil60 {fill:#F7C988}
    .fil27 {fill:#F7F5F6}
    .fil47 {fill:#FBFBFB}
    .fil52 {fill:#FEFEFE}
    .fil0 {fill:#2F4D71;fill-rule:nonzero;fill-opacity:0.501961}
   ]]>
  </style>
 </defs>
 <g id="Capa_x0020_1">
  <metadata id="CorelCorpID_0Corel-Layer"/>
  <path class="fil0" d="M8940.21 12071.8l-8566.63 0 0 -5707.24 2133.01 0 0 3493.53 1337.45 0 0 -3493.53 2040.78 0 0 3493.53 3055.39 0 0 2213.71zm0 -6011.03l-8566.63 0 0 -5707.24 2133.01 0 0 3493.53 1337.45 0 0 -3493.53 2040.78 0 0 3493.53 3055.39 0 0 2213.71z"/>
  <g id="_1995031394032">
   <polygon class="fil1" points="15921.92,11105.72 17873.33,11369.43 18072.91,12074.19 18234.31,13134.28 15921.92,13134.28 "/>
   <path class="fil2" d="M11670.71 11201.81c45.76,-63.12 61.23,103.89 70.05,-124.08 17.63,-455.58 34.97,-48.16 -70.05,-219.48 -0.6,1.01 -212.21,28.35 0,343.56z"/>
   <polygon class="fil2" points="13714.19,12138 13818.16,12153.08 14060.35,11906.21 13984.41,11825.29 "/>
   <path class="fil2" d="M14683.22 10979.04l128.89 -90.52c-57.79,-198.63 24.82,-30.51 -89.28,-189.53 -1.48,-2.06 -109.06,-110.04 -101.89,-113.92l62.28 393.97z"/>
   <path class="fil3" d="M12003.5 10447.02c0.66,175.19 -42.03,134.07 134.75,115.87l104.36 -159.52c74.65,-155.26 144.73,-217.16 -93.81,-196.03 -50.29,148.99 -53.86,119.12 -145.3,239.68z"/>
   <path class="fil4" d="M9512.92 12723.97c-119.85,-276.74 -41.13,-33.83 76.73,-138.17l203.08 142.18c0,-129.69 -27.19,-87.01 121.36,-85.31 -141.77,-184.3 -129.11,-129.47 -489.06,-113.01 17.59,-252.41 -35.45,-143.3 -45.19,-239.27 -3.87,-37.94 -25.06,-42.16 -37.21,-63.46 21.08,230.46 -1.19,399.87 170.29,497.04z"/>
   <path class="fil5" d="M6244.41 17408.46l887.41 -332.22 -206.71 -91.31 -138.11 -17.69c-60.41,140.39 -89.33,173.98 -220.12,251.09 -73.64,43.41 -72.02,28.09 -136.33,62.93 -197.81,107.14 -52.25,10.05 -186.14,127.2z"/>
   <path class="fil5" d="M14986.21 14731.41l37.93 -107.68 12.56 -279.1 -183.83 85.66 -92.55 384.28c42.36,-10.55 89.27,-49.88 101.76,-25.3 9.19,18.04 67.65,-28.62 124.13,-57.86z"/>
   <path class="fil6" d="M15530.53 15025.28l41.08 181.34 103.68 -35.93c143.76,-35.92 149.87,-86.22 260.06,-173.3l-172.22 -200.27 -232.6 228.16z"/>
   <path class="fil6" d="M17638.37 16891.66c77.4,103.97 -2.04,67.9 65.79,-18.77 2.75,-3.54 95.86,-151.56 108.29,-175.14 196.88,-372.9 -36.89,-248.41 -163.43,-322.8l-10.65 516.71z"/>
   <path class="fil6" d="M12475 11349.86c-296.51,-4.6 -83.16,26.57 -165.87,-78.69l-101.82 65.94c62.65,101.42 -137.42,87.93 130.92,76.12 147.67,-6.51 62.14,-2.79 136.77,-63.37z"/>
   <path class="fil7" d="M9459.46 10947.4l-137.37 -605.69c-218.29,142.26 -98.73,-231.2 -160.99,214.78 -29.25,209.52 190.27,270.08 298.36,390.91z"/>
   <path class="fil7" d="M11408.76 13832.29c126.52,75.31 145.47,17.12 250.51,-124.08 -453.14,-42.74 -200.53,-66.81 -250.51,124.08z"/>
   <path class="fil8" d="M8808.46 9746.43c163.78,169.09 67.42,10.75 167.14,233.78 150.16,265.05 -41.34,148.13 222.7,206.49 2.68,-100.17 20.04,-267.05 1.65,-358.62 -72.34,-360.46 -5.87,-86.24 -119.72,-210.39 -114.89,210.6 -21.96,68.32 -271.77,128.74z"/>
   <path class="fil8" d="M13689.77 13214.9l120.11 30.01c0,-146.53 -31.87,-98.43 132.9,-107.25 -189.46,-86.61 -180.4,-80.06 -276.53,45.37l23.52 31.87z"/>
   <path class="fil9" d="M14172.24 10237.1l-24.58 316.57 209.73 -134.98 -40.91 268.89c92.1,-96.16 43.48,25.37 116.37,-187.12 16.77,-48.89 10.37,-113.91 28.66,-159.43 96.98,-241.33 118.55,-28.22 164.55,-209.97 7.02,-27.76 27.81,-29.08 40.01,-45.04 -145.72,30.93 -47.94,-5.93 -171.98,56.03l-321.85 95.05z"/>
   <path class="fil9" d="M14889.09 10410.25c381,-47.75 126.55,-42.76 189.76,76.85l-42.27 191.43 137.3 -34.4 -24.57 -358.69c-104.07,-2.09 -40.03,-22.73 -136.35,2.24 -139.94,36.29 -104.5,34 -160.53,64.51l36.66 58.06z"/>
   <path class="fil9" d="M14344.4 9802.73l118.36 15.14 38.91 -138.57c-164.62,0 -108.37,35.18 -121.4,-153.86l-35.87 277.29z"/>
   <polygon class="fil9" points="13664.74,12224.56 13639.94,12382.47 13818.16,12153.08 13714.19,12138 "/>
   <path class="fil10" d="M9360.76 12071.81l37.22 -254.72c167.25,85.4 79.15,8.8 202.51,149.7 184.38,210.58 -36.95,80.01 215.7,198.25 -70.6,-249.58 -69.31,-479.46 -272.79,-611 -133.91,71.14 -36.8,17.52 -128.81,80.35 -9.73,6.65 -37.15,48.16 -44.57,34.57 -7.66,-14.05 -29.9,24.88 -44.65,37.39l-32.69 -244.89 -6.72 -45.88c-26.4,191.48 -15.78,538.63 74.8,656.23z"/>
   <path class="fil10" d="M8639.62 9926.9c29.19,228.23 5.74,262.3 107.25,420.46 17.54,-317.96 -2.44,-60.8 107.7,-174.91l126.7 131.94c-3.27,-132.15 -16.04,-142.68 -5.67,-324.18 -99.72,-223.03 -3.36,-64.69 -167.14,-233.78l-168.84 180.47z"/>
   <path class="fil11" d="M13710.32 15709.43c142.11,-137.13 164.99,-73.62 165.46,-528.08 111.99,59.48 126.79,8.55 144.37,10.24 164.9,86.67 20.62,-38.66 74.3,179.13 104.32,-98.46 70.97,-35.33 140.61,-185.59 0.64,-1.37 56.12,-192.62 67.57,-240.87l-458.9 53.74 -133.41 711.43z"/>
   <path class="fil11" d="M15657.42 15325.19l17.87 -154.5 -103.68 35.93 -41.08 -181.34c-34.45,33.5 -139.25,116.04 -171.96,157.05 -80.59,101.05 -48.21,41.71 -80.65,188.72 223.53,104.45 183.67,19.58 379.5,-45.86z"/>
   <path class="fil11" d="M7259.72 12082.49c262.72,-79.98 281.3,-48.99 330.29,-342.6l-63.61 -59.74 -119.88 -13.52 15.93 225.09 -162.73 190.77z"/>
   <path class="fil12" d="M17354.07 16081.28c107.42,-129.64 -87.57,-107.82 131.25,-108.43 -83.86,-143.28 -39.77,-153.89 -133.67,-244.48 -274.35,84.24 -100.63,-82.25 -282.44,175.83 -66.31,94.13 -69.28,163.72 -57.56,335.35 191.01,-19.66 229.74,-14.71 342.42,-158.27z"/>
   <path class="fil12" d="M6134.28 12248.69l63.35 513.29 143.79 80.23 36.42 -78.71c-146.7,-61.59 -177.24,158.9 -71.11,-263.14 27.06,-107.6 64.89,-233.09 95.62,-358.8l-268.07 107.13z"/>
   <path class="fil12" d="M14699.79 14998.05c246.14,-33.55 229.13,11.34 286.42,-266.64 -56.48,29.24 -114.94,75.9 -124.13,57.86 -12.49,-24.58 -59.4,14.75 -101.76,25.3l92.55 -384.28c-112.29,91.24 -64.74,-138.77 -147.28,233.16 -24.37,109.81 -8.61,222.47 -5.8,334.6z"/>
   <path class="fil13" d="M6402.35 12141.56c-30.73,125.71 -68.56,251.2 -95.62,358.8 -106.13,422.04 -75.59,201.55 71.11,263.14 26.11,-219.11 131.29,-476.45 308.85,-614.73l371.84 67.15c-251.6,-160.75 -224.82,-157.21 -534.05,-123.47 136.34,-238.6 -213.18,-220.32 250.89,-178.31l-283.91 -92.56 -89.11 319.98z"/>
   <path class="fil13" d="M16595.37 14159.92c168.37,279.69 111.26,119.18 274.41,288.95 18,18.74 98.91,158.24 98.91,158.28 16.27,66.72 249.07,105.89 -41.74,102l152.18 134.65 150 -17.52 2.39 -144.5c-103.26,-6.68 -65.89,14.07 -96.91,-32.66 -84.63,-127.48 -148.49,26.86 5.73,-69.2 -80.93,-187.52 -166.98,-316.51 -272.15,-470.22l-195.87 -27.28c0,100.8 24.84,74.16 -76.95,77.5z"/>
   <path class="fil13" d="M16549.58 15646.03l124.52 -399.2c-107.03,-106.21 155.32,-113.38 -145.93,-84.39 -23.48,44.89 -103.89,170.91 -111.82,221.07 -74.05,468.33 -54.8,196.44 133.23,262.52z"/>
   <path class="fil13" d="M7916.11 12364.69l201.17 62.29 -17.78 -206.57c-259.31,-89.1 -101.77,-72.19 -183.39,144.28z"/>
   <path class="fil14" d="M12148.8 10207.34c238.54,-21.13 168.46,40.77 93.81,196.03 265.1,-109.8 61.84,-11.01 238.19,-173.04 99.73,-91.62 117.82,-93.37 231.9,-170.46 162.69,-109.95 299.85,-257.58 555.67,-312.42 -59.06,-72.04 111.47,-90.02 -162.18,-74.52 -291.05,51.09 -755.27,295.87 -957.39,534.41z"/>
   <path class="fil14" d="M8981.27 10304.39c16.38,228.07 -40.15,-15.26 13.48,188.48 27.92,106.15 46.09,118.38 69.84,161.77l117.29 -431.32 16.42 -36.62c-264.04,-58.36 -72.54,58.56 -222.7,-206.49 -10.37,181.5 2.4,192.03 5.67,324.18z"/>
   <path class="fil15" d="M11330.65 10600.78l6.12 287.74c-69.46,98.56 128.28,62.03 -164.69,87.06l27.3 -19.82 276.46 116.23c-36.27,-321.28 74.12,-319.78 -14.68,-706.14l-132.44 -99.2c57.86,172.64 143.58,256.14 1.93,334.13z"/>
   <path class="fil15" d="M11921.29 10803.91c192.93,6.86 139.58,21.13 216.96,-241.02 -176.78,18.2 -134.09,59.32 -134.75,-115.87l-74.63 6.8 -7.58 350.09z"/>
   <path class="fil16" d="M11214.84 11205.58l39.72 58.75 14.79 128.81 19.08 -73.42c171.21,368.87 70.51,-54.67 189.13,369.62l81.44 -28.1 -15.28 96.2c213.94,-182.95 18.55,-152.77 416.15,-330.27l-67.35 -137.23c-16.23,-128.83 -39.08,-92.7 98.65,-76.87l6.7 -123.51c-293.86,205 -110.49,99.2 -310,343.89 -32.29,-145.62 172.67,-41.14 -202.82,-172.68l-9.21 -188.78 -276.46 -116.23c3.76,5.62 126.4,196.58 136.83,232.08l-121.37 17.74z"/>
   <path class="fil16" d="M10471.52 11460.53c324,27.52 371.86,144.99 590.26,30.12 -254.81,-162.68 -782.91,-269.49 -1030.66,-133.8l440.4 103.68z"/>
   <path class="fil16" d="M17322.44 13350.88c95.16,165.82 100.14,136.42 245.37,235.84l199.81 -140.68 -338.09 -20.36c372.21,-94.67 184.84,-4.83 258.61,-201.57l-365.7 126.77z"/>
   <path class="fil17" d="M11036.72 12404.52l139.56 0 293.27 20.58 -141.91 -195.99 -78.01 25.36c-11.3,2.67 -41.74,8.42 -52.47,10.76 -13.38,2.92 -109.13,15.29 -131.78,18.06l-28.66 121.23z"/>
   <path class="fil18" d="M11269.35 11393.14l-14.79 -128.81 -199.93 -57.35 -277.55 -123.84c-70.23,121.51 -386.21,-2.05 -624.53,-82.76 -16.51,-74.41 -57.26,-215.02 -67.82,-279.32 -80.8,-491.45 -33.43,-210.69 95.32,-306.86 -15.39,-14.3 -36.45,-29.58 -52.78,-34.4 -17.04,-5.05 -45.35,-14.77 -62.96,-18.9 -122.58,-28.68 -3.64,-58.71 -163.27,21.7l172.79 714.81c342.49,127.13 818.56,303.78 1195.52,295.73z"/>
   <polygon class="fil18" points="9729.43,10258.29 9681.84,9791.23 9556.63,9823.11 "/>
   <path class="fil19" d="M13271.64 14143.92c-0.68,-22.27 -4,-101.18 -7.71,-114 -27.35,-94.58 -34.32,-95.22 -55.94,-132.92 -133.6,222.76 -98.74,219.58 -65.16,491.66l128.81 -244.74z"/>
   <path class="fil20" d="M11469.55 12425.1l753.5 61.48c15.63,-100.81 -10.59,-67.66 110.56,-55.53 -290.35,-283.09 -490.48,106.55 -655.26,-136.88l-208.8 130.93z"/>
   <path class="fil21" d="M9064.59 10654.64c76.29,198.31 179.78,347.36 374.84,452.85l20.03 -160.09c-108.09,-120.83 -327.61,-181.39 -298.36,-390.91 62.26,-445.98 -57.3,-72.52 160.99,-214.78l-38.51 -68.08 -101.7 -50.31 -117.29 431.32z"/>
   <path class="fil21" d="M9543.4 11554.04c-68.23,-38.9 20.44,-5.1 -146.61,-70.45 -168.36,-65.85 85.35,14.6 -104.11,-22.13l32.69 244.89c14.75,-12.51 36.99,-51.44 44.65,-37.39 7.42,13.59 34.84,-27.92 44.57,-34.57 92.01,-62.83 -5.1,-9.21 128.81,-80.35z"/>
   <path class="fil22" d="M14277.07 13264.82l114.94 116.53c203.3,-156.11 188.07,-432.84 1026.28,-736.55 232.52,-84.24 299.67,-84.24 470.68,-228.3 -1037.91,76.21 -1291.02,657.22 -1611.9,848.32z"/>
   <path class="fil22" d="M9732.4 9244.69c47.81,-75.41 89.02,-66.29 108.94,-261.29 54.18,-530.6 153.38,-600.75 139.22,-960.71 -134.04,206.31 -134.26,298.26 -206.68,573.03l-86.33 521.99c11.17,100.54 21.19,73.24 44.85,126.98z"/>
   <path class="fil23" d="M14137.24 18290.16l2.51 83.92c-17.54,285.98 -29.1,94.26 73.84,163.03 34.22,-233.52 136.96,-207.74 330.84,-280.12 41.63,-231.86 572.19,-926.84 707.97,-1134.83 408.41,-860.99 646.16,-628.71 504.77,-1021.49l-783.63 1175.43c-297.34,425.53 -492.24,925.89 -836.3,1014.06z"/>
   <path class="fil23" d="M5996.9 12168.82l41.46 325.05 -10.35 84.79c89.75,88.84 31.5,-38.1 72.16,123.44 31.26,124.2 3.96,108.96 -6.77,199.86 160.71,89.59 141.93,71.96 142.88,240.16 14.04,13.35 36.4,13.3 42.77,39.33 6.12,25.06 32.69,30.18 40.51,38.58 34.4,37.01 65.58,72.42 96.96,112.41 229.31,72.29 359.66,-20.01 400,119.62l289.49 140.94c86.19,-7.96 62.84,122.73 69.94,-121.03 -156,-6.59 -117.6,-24.22 -161.58,-148.68 -87.02,19.17 -72.43,35.55 -43.99,-48.95l-463.38 19.65c-66.3,-42.69 -18.69,-48.99 -68.52,-130.66l-97.06 -321.12 -143.79 -80.23 -63.35 -513.29 -25.19 -101.42 -127.62 -255.38 15.43 276.93z"/>
   <path class="fil23" d="M15683.67 18682.56l81.83 12.98c251.54,-256.39 446.22,-333.17 670.33,-562.44 76.44,-78.19 211.52,-222.69 293.29,-309.61 159.78,-169.91 98.85,-188.18 372.8,-207.63l-13.62 -238.81c-277.65,114.64 -1037.67,885.39 -1301.63,1178.02 -67.33,74.63 -45.67,47.92 -103,127.49z"/>
   <path class="fil24" d="M17772.44 13908.19c97.93,97.78 46.45,66.21 138.68,168.69 238.45,264.96 966.27,766.04 1179.64,1484.15l236.96 268.83 87.56 -352.03c0.32,-4.97 17.58,-214.3 12.55,-241.33 -51.51,-275.96 -37.84,-158.73 -122.79,-266.52l-56.95 646.59c-18.76,-224.01 -88.9,-313.12 -202.59,-466.11 -129.51,-174.31 -213.19,-269.35 -293.38,-438.41 -340.6,-314.01 -461.87,-661.13 -949,-871.5l-30.68 67.64z"/>
   <path class="fil24" d="M15835.6 11249.25l459.63 53.92 254.85 21.32c180.36,164.44 434.09,398.79 512.96,727.43l197.76 18c-185.45,-502.27 -295.56,-770.14 -839.5,-903.06l256.85 10.84c-198.43,-191.06 -517.25,-94.63 -805.11,-66.65l-37.44 138.2z"/>
   <path class="fil24" d="M12119.87 13047.36l-80.63 -7.4c-201.3,222.69 -609.71,90.51 -846.93,1.12 59.85,-318.05 28.26,-292.4 277.9,-385.56l66.83 257.29 168.24 -298.98 -241.38 -28.12 -127.51 -33.94c-94.08,308.35 54.73,142.04 -228.27,208.85 69.19,-162.69 53.67,-115.49 108.47,-283.78l-40.31 -72.32 -139.56 0c6.7,108.81 31.08,455.1 55.9,548.43 45.7,171.76 60.29,160.16 247.9,209.9 271.71,72.06 683.2,169.28 779.35,-115.49z"/>
   <path class="fil24" d="M12673.62 13928.22l-73.09 104.43 146.25 19.1c89.64,-72.1 47.81,-46.14 114.15,-95.6 54.15,-40.37 22.24,-24.55 89.43,-57.3l262.38 -350.69 -19.94 -46.18c-304.18,147.34 -222.19,235.17 -519.18,426.24z"/>
   <polygon class="fil24" points="13984.41,11825.29 14060.35,11906.21 14200.04,11695.32 13980.36,11705.16 "/>
   <path class="fil24" d="M11397.08 13294.04c78.14,98.54 -0.85,88.19 199.39,129.03 -68.23,-181.81 93.14,-100.88 -199.39,-129.03z"/>
   <path class="fil25" d="M10686.56 13862.29c20.64,24.54 27.34,82.41 140.17,137.8 116.7,57.29 142.05,46.93 266.22,70.24l-75.68 -656.26c-137.49,-116.82 -146.48,-80.51 -275.95,-252.82l-254.88 -60.98c85.99,246.52 246.41,463.3 200.12,762.02z"/>
   <path class="fil25" d="M12606.78 13003.57l465.41 -231.76 42.37 -210.7c236.08,-141.55 325.48,-524.53 442.14,-786.6l-376.23 -32.81c90.98,669.13 -327.11,823.37 -573.69,1261.87z"/>
   <path class="fil26" d="M11327.64 12229.11l141.91 195.99 208.8 -130.93c-96.51,-200.8 123.67,-63.89 -176.35,-157.62l41.72 -379.11 15.28 -96.2 -81.44 28.1c-16.4,178.84 -89.71,270.39 -182.47,404.39l32.55 135.38z"/>
   <path class="fil27" d="M7636.24 13273.04l-79.4 173.76 -9.67 49.27 622.53 -37.04 42.74 -118.97c-67.18,-322.06 -42.78,-569.47 -95.16,-913.08l-201.17 -62.29c-119.85,245.58 -272.97,603.08 -279.87,908.35z"/>
   <path class="fil27" d="M5900.69 17237.43c252.32,-50.21 115.25,23.25 312.16,-167.5 134.92,-130.7 160.3,-82.41 111.13,-276.85 -167.58,-369.48 -302.63,-119.42 -286.48,-796.89 -177.76,241.31 -183.19,836.34 -136.81,1241.24z"/>
   <path class="fil27" d="M7658.64 11691.03l2.11 1.23 496.62 -9.83 -55.92 -660.36 -90.4 -74.6c-115.5,370.63 -350.25,329.21 -352.41,743.56z"/>
   <path class="fil28" d="M5813.1 16146.35l-52.25 1097.68c5.14,21.67 15.16,118.14 22.29,134.34 60.64,137.83 45.98,98.87 139.47,189.33l333.85 -14.79 802.07 -296.69 159.21 -110.78 474.4 -201.28 -165.08 -41.81c-196.22,3.21 -357.63,80.29 -601.95,82.58l206.71 91.31 -887.41 332.22 -289.89 -7.97 -53.83 -163.06c-46.38,-404.9 -40.95,-999.93 136.81,-1241.24l100.89 -1.45 21.92 -217.75 -80.43 -18.52 -86.45 -26.27c-27.26,151.34 -17.85,168.04 -80.94,299.31l-99.39 114.84z"/>
   <path class="fil28" d="M7760.02 11179.79l-135.29 336.77c-252.24,-136.13 -386.44,-166.96 -705.49,-230.76l-306.44 -40.66 130.21 106.46 663.51 315.03 119.88 13.52c-138.7,-326.42 -39.7,-75.75 0.33,-118.76 56.91,246.47 -1.54,27.52 131.91,129.64 2.16,-414.35 236.91,-372.93 352.41,-743.56 -226.61,52.01 -45.93,-28.35 -181.37,114.28 -25.43,26.79 -42.3,93.95 -47.86,79.59 -3.69,-9.51 -13.3,26.41 -21.8,38.45z"/>
   <path class="fil29" d="M15216.74 13958.51c127.47,-5.81 536.54,-62.41 531.45,88.08 197.03,164.83 410.69,444.3 507.04,753.03 382.97,-36.71 900.22,-8.75 1086.82,243.68 72.64,98.26 313.8,723.69 375.83,904.97l356.25 42.12c-14.81,-317.79 -35.08,-106.94 102.28,-183.68 -236.04,-32.38 -84.32,88.56 -354.03,-25.89 -281.25,-439.23 -0.55,-651.97 -593.25,-954.54l-150 17.52 -152.18 -134.65 -571.82 -6.75c-121.84,-304.86 -232.39,-566.64 -345.08,-794.17 -146.86,-25.16 -450.36,-51.83 -601.35,-60.16 -550.58,-30.42 -523,110.81 -574.74,159.96l382.78 -49.52z"/>
   <path class="fil29" d="M7590.01 11739.89c-48.99,293.61 -67.57,262.62 -330.29,342.6l-484.35 -168.35c-464.07,-42.01 -114.55,-60.29 -250.89,178.31 309.23,-33.74 282.45,-37.28 534.05,123.47l-35.41 31.28 202.65 69.77c96.45,-150.59 23.38,-95.27 199.21,-158.24l289.67 -204.41c50.71,133.91 110.37,231.07 145.95,369.48l-145.64 183.94 -200.23 597.1c-6.62,208.23 -64.54,168.2 121.51,168.2 6.9,-305.27 160.02,-662.77 279.87,-908.35 81.62,-216.47 -75.92,-233.38 183.39,-144.28l39.7 -219.97c-384.68,-34.18 54.99,-17.19 -355.64,-174.47l343.15 21.02 30.66 -164.56 -496.62 9.83 -70.74 47.63z"/>
   <path class="fil29" d="M17231.52 14681.78l-91.18 -101.86c-154.22,96.06 -90.36,-58.28 -5.73,69.2 31.02,46.73 -6.35,25.98 96.91,32.66z"/>
   <path class="fil30" d="M14683.22 10979.04l-62.28 -393.97c-7.17,3.88 100.41,111.86 101.89,113.92 114.1,159.02 31.49,-9.1 89.28,189.53l-128.89 90.52zm-203.62 -181.15l203.62 181.15c-206.91,144.15 -217.51,96.62 -337.04,342.16l7.82 12.11c372.32,-123.43 380.12,-151.61 575.78,-491l-143.67 -370.98 102.98 -61.08 -36.66 -58.06c-150.93,-26.11 -41.73,21.22 -92.63,-81.11 -65.15,66.72 -33.75,9.65 -100.44,120.11 -25.62,42.42 -34.4,79.9 -60.93,137.89 -59.32,129.67 -72.87,155.93 -118.83,268.81z"/>
   <path class="fil30" d="M14380.27 9525.44c13.03,189.04 -43.22,153.86 121.4,153.86 21.56,-165.4 56.23,-347.15 68.36,-530.18 5.02,-75.97 16.18,-205.35 1.08,-277.14 -70.49,-335.02 -9.56,-158.64 -162.86,-179.13l-27.98 832.59z"/>
   <path class="fil30" d="M11330.65 10600.78c141.65,-77.99 55.93,-161.49 -1.93,-334.13 -116.9,-190.69 -202.32,-457 -471.3,-548.39l473.23 882.52z"/>
   <path class="fil31" d="M18240 11978.1c170.89,332.17 411.16,539.86 439.19,1095.35 -245,-127.75 -292.22,-309.01 -615.26,-393.57l-118.52 -99.44 -322.42 -137.01 -64.58 72.03 158.31 106.39c214.49,74.54 364.34,198.45 540.41,306.02 227.19,138.81 277.13,192.6 378.54,413.09 212.99,97.6 378.86,439.87 452.3,664.08 26.8,35.63 112.86,109.88 124.28,234.96 11.57,127.01 -8.65,67.04 -28.07,155.82 -3.33,15.22 -33.08,94.5 -39.27,115.89l160.13 458.27c84.95,107.79 71.28,-9.44 122.79,266.52 5.03,27.03 -12.23,236.36 -12.55,241.33l-48.78 -842.37 -75.09 -602.13c-126.35,-53.59 -99.77,-64.1 -172.29,-227.92 -74.3,-167.85 -94.56,-215.38 -153.34,-374.21l-59.44 -123.21 -57.85 -278.23 -131.23 -615.55c-188.38,-98.69 -113.1,-52.82 -120.72,-213.66 -206.54,-107.92 -102.68,-16.92 -148.75,-163.69l-193.57 -58.56 -14.22 -0.2z"/>
   <path class="fil32" d="M9729.43 10258.29c19.63,10.47 68.25,37.19 77.18,43.86 81.3,60.84 48.77,36.55 94.43,80.45 159.63,-80.41 40.69,-50.38 163.27,-21.7 17.61,4.13 45.92,13.85 62.96,18.9 16.33,4.82 37.39,20.1 52.78,34.4 328.62,242.57 452.32,241.93 597.03,668.94l277.55 123.84 160.21 -1.4 121.37 -17.74c-10.43,-35.5 -133.07,-226.46 -136.83,-232.08l-27.3 19.82c-226.3,-162.63 -508.34,-512.22 -699.68,-693.66 -241.91,-229.42 -407.12,-621.39 -790.56,-490.69l47.59 467.06z"/>
   <path class="fil33" d="M11408.76 13832.29c49.98,-190.89 -202.63,-166.82 250.51,-124.08 -105.04,141.2 -123.99,199.39 -250.51,124.08zm1663.43 -1060.48l-465.41 231.76c-209.88,275.41 -838.88,576.46 -1272.9,538.04 -192.72,-210.21 -327.16,-302.64 -534.25,-437.49l-58.31 57.13c129.47,172.31 138.46,136 275.95,252.82 207.57,163.77 358.16,309.11 322.31,724.29 41.5,73.35 238.6,71.13 327.13,71.06 61.36,-0.06 150.96,-7.1 210.22,-21.72 143.72,-35.43 158.86,-69.54 182.09,-81.54l-600.83 21.71c221.09,-467.25 744,-659.7 1210.99,-773.04l558.06 -135.58 -12.62 278.18c105.87,-112.42 41.7,-9.43 83.34,-198.47 14.99,-68.05 -2.73,-81.71 -22.09,-160.59l-798.87 143.9c840.41,-400.76 854.67,-758.09 865.55,-407.77l297.39 -492.03 24.8 -157.91 -20.4 -55.85c-296.09,196.59 -205.86,429.14 -572.15,603.1z"/>
   <path class="fil34" d="M17018.13 18906.29c-99.97,446.31 -1489.8,869.12 -1863.99,219.02 -491.43,10.38 -1073.32,-166.61 -1035.8,-642.69l-321.98 47.04c72.89,160.88 83.55,107.08 191.96,205.46 9.83,8.91 23.9,22.89 33.59,32.09l498.05 443.02c388.98,377.9 1456.13,353.92 1819.45,292.68 683.56,-115.21 790.93,-377.9 1107.4,-692.08 223.64,-222.01 617.39,-605.01 753.62,-958.48 -112.98,241.6 -954.44,942.56 -1182.3,1053.94z"/>
   <path class="fil34" d="M7547.17 13496.07c113.65,150.44 -88.49,55.65 120.77,107.24 52.78,13.02 196.36,-9.8 245.31,-15.47l458.92 20.64c-20.5,-193.13 -42.07,-183.68 -159.73,-268.42l-42.74 118.97 -622.53 37.04z"/>
   <path class="fil34" d="M7424.98 12158.73l298.81 85.61 -8.83 263.4 145.64 -183.94c-35.58,-138.41 -95.24,-235.57 -145.95,-369.48l-289.67 204.41z"/>
   <polygon class="fil34" points="11968.71,17525.38 12236.37,17523.25 12066.06,17089.58 12071.12,17396.95 "/>
   <path class="fil34" d="M11336.39 12551.77l-119.8 -74.93c-54.8,168.29 -39.28,121.09 -108.47,283.78 283,-66.81 134.19,99.5 228.27,-208.85z"/>
   <path class="fil34" d="M8139.2 12000.44l-12.49 -153.45 -343.15 -21.02c410.63,157.28 -29.04,140.29 355.64,174.47z"/>
   <path class="fil34" d="M13624.99 10955.1c89.62,-95.91 108.11,160.22 57.68,-201.04 -280.33,28.24 -135.18,16.66 -192.6,100.06 269.71,-33.39 70.6,-50.71 134.92,100.98z"/>
   <path class="fil35" d="M14147.66 10553.67c-125.38,173.52 -44.84,155.77 -308.4,208.81 -168.2,230.67 -341.56,549.46 -471.84,753.91l-38.6 25.58 61.44 195 -237.62 -2.95 27.83 7.68 376.23 32.81c-116.66,262.07 -206.06,645.05 -442.14,786.6l-42.37 210.7c366.29,-173.96 276.06,-406.51 572.15,-603.1 69.68,-398.13 610.9,-1012.94 672.14,-1481.13l40.91 -268.89 -209.73 134.98z"/>
   <path class="fil35" d="M18752.12 14712.05c80.19,169.06 163.87,264.1 293.38,438.41 113.69,152.99 183.83,242.1 202.59,466.11l56.95 -646.59 -160.13 -458.27c-151.13,-218.5 -111.17,-261.33 -56.94,-506.67 -73.44,-224.21 -239.31,-566.48 -452.3,-664.08 163.67,420.86 -17.33,303.19 14.3,688.57 22.53,274.57 118.75,296.64 102.15,682.52z"/>
   <path class="fil35" d="M14408.25 8692.85c153.3,20.49 92.37,-155.89 162.86,179.13 15.1,71.79 3.94,201.17 -1.08,277.14 -12.13,183.03 -46.8,364.78 -68.36,530.18l-38.91 138.57 -118.36 -15.14 -57.03 222.96c-140.34,54.64 -116.93,20.09 -211.87,48.11 -231.57,68.32 -43.77,-33.28 -196.01,96.55l197.22 -13.96 95.53 80.71 321.85 -95.05c124.04,-61.96 26.26,-25.1 171.98,-56.03 201.87,-168.26 78.17,-864.25 71.44,-1137.75 -7.04,-285.56 -7.8,-596.96 -122.53,-882.76 -93.61,-233.11 -16.74,-67.93 -107.17,-160.49 -40.91,268.33 54.6,349.22 -17.22,596.35l-82.34 191.48z"/>
   <path class="fil35" d="M18027.73 12286.46c112.9,123.58 62.64,195.28 36.2,393.42 323.04,84.56 370.26,265.82 615.26,393.57 -28.03,-555.49 -268.3,-763.18 -439.19,-1095.35l-321.45 -209.94 109.18 518.3z"/>
   <path class="fil35" d="M9627.81 10884.17l-17.83 -396.86c201.28,-71.83 -207.23,73.14 138.02,-32.37 120.51,-36.84 99.65,-18.97 153.04,-72.34 -45.66,-43.9 -13.13,-19.61 -94.43,-80.45 -8.93,-6.67 -57.55,-33.39 -77.18,-43.86l-172.8 -435.18c-86.4,-39.97 -58.82,-1.89 -159.07,-84.17 12.77,459.03 -43.39,801.64 230.25,1145.23z"/>
   <path class="fil35" d="M12669.18 13354.83l4.44 573.39c296.99,-191.07 215,-278.9 519.18,-426.24l21.82 -4.55 12.62 -278.18 -558.06 135.58z"/>
   <path class="fil35" d="M13275.87 13138.37l66.68 -263.87c-10.88,-350.32 -25.14,7.01 -865.55,407.77l798.87 -143.9z"/>
   <path class="fil35" d="M11092.95 14070.33l16.27 26.72 230.36 41.31c35.85,-415.18 -114.74,-560.52 -322.31,-724.29l75.68 656.26z"/>
   <path class="fil35" d="M14346.18 11321.2c119.53,-245.54 130.13,-198.01 337.04,-342.16l-203.62 -181.15 -261.49 425.16c63.48,98.94 -102.06,52.56 128.07,98.15z"/>
   <path class="fil35" d="M14929.78 10842.31l106.8 -163.78 42.27 -191.43c-63.21,-119.61 191.24,-124.6 -189.76,-76.85l-102.98 61.08 143.67 370.98z"/>
   <path class="fil36" d="M9376.57 3674.84l9.84 255.38c29.59,394.25 -23.74,988.73 -190.6,1289.24 4.07,103.6 17.23,185.94 -12.39,304.66 -60.04,240.83 -31.39,148.48 -147.56,211.33 334.2,343.63 -122.53,167.96 327.82,1651.72l108.17 -1912.75c69.36,-865.36 381.33,-993.16 36.18,-1931.12 -101.13,196.74 -37.96,45.59 -131.46,131.54z"/>
   <path class="fil37" d="M6889.1 15025.78c102.1,-201.59 251.71,-325.89 378.25,-520.88 146.86,-226.32 283.36,-347.73 346.08,-554.96 -143.96,51.63 -790.54,863.62 -816.89,939.69 9.01,285.01 -16.38,34.53 92.56,136.15z"/>
   <path class="fil38" d="M17688.14 13224.11c-73.77,196.74 113.6,106.9 -258.61,201.57l338.09 20.36 -199.81 140.68c118.75,88.78 127.58,68.62 235.31,253.83 487.13,210.37 608.4,557.49 949,871.5 16.6,-385.88 -79.62,-407.95 -102.15,-682.52 -31.63,-385.38 149.37,-267.71 -14.3,-688.57 -101.41,-220.49 -151.35,-274.28 -378.54,-413.09 -176.07,-107.57 -325.92,-231.48 -540.41,-306.02 164.13,226.4 167.1,217.66 165.36,542.72l-193.94 59.54z"/>
   <path class="fil38" d="M14759.8 10271.08c50.9,102.33 -58.3,55 92.63,81.11 56.03,-30.51 20.59,-28.22 160.53,-64.51 96.32,-24.97 32.28,-4.33 136.35,-2.24l24.57 358.69 -137.3 34.4 -106.8 163.78c-195.66,339.39 -203.46,367.57 -575.78,491l-211.33 18.9 -162.31 352.95 219.68 -9.84c282.79,-244.5 689.49,-349.61 918.38,-635.96 243.29,-304.4 365.09,-850.51 301.43,-1313.98 -308.26,8.6 -558.59,319.41 -660.05,525.7z"/>
   <path class="fil38" d="M17260.8 12069.92c-6.37,12.97 -18.46,16.66 -21.3,37.72 -3.98,29.57 -39.26,78.85 -43.39,90.06 -50.91,138 -20.9,30.66 -59.39,200.64l263.49 51.57c-22.64,-286.3 -33.88,-86.52 99.16,-159.85l123.62 153.37 322.42 137.01 18.29 -172.1c-157.89,-748.06 -215.05,-493.63 -497.35,-845.46 -258.45,-135.95 -435.58,-327.17 -788.2,-385.18l-256.85 -10.84c543.94,132.92 654.05,400.79 839.5,903.06z"/>
   <path class="fil38" d="M11061.78 11490.65c-218.4,114.87 -266.26,-2.6 -590.26,-30.12 167.95,160.82 341.87,341.42 542.91,433.48 51.72,-232.74 27.76,-14.21 57.92,-217.95 29.72,-200.77 6.22,-168.13 -10.57,-185.41z"/>
   <path class="fil39" d="M18464.76 17110.53c-7.56,1062.99 -418.21,1185.78 -730.63,1585.97 -113.32,145.14 -205.18,317.41 -340.74,386.12 262.75,3.68 539.34,-163.6 709.51,-287.55l591.35 -542.35c355.24,-367.86 404.39,-1243.5 411.13,-1902.48l-185.15 195.29c-47.94,65.08 -85.99,134.43 -131.82,198l-323.65 367z"/>
   <path class="fil39" d="M16920.64 18865.73l111.73 25.44c142.68,-299.39 137.01,-170.36 353.55,-343.24 113.18,-90.36 216.38,-245.95 317.23,-348.86 336.16,-343 375.51,-253.29 534.59,-846.15 -72.25,55.43 -61.75,28.27 -136.06,117.8 -53.38,64.33 -16.12,33.65 -72.22,125.46 -325.96,533.36 -985.39,1068.18 -1108.82,1269.55z"/>
   <path class="fil39" d="M6802.51 13021.95l67.49 51.94c133.23,-228.27 220.73,-496.51 355.77,-756.92l-202.65 -69.77 -220.61 774.75z"/>
   <path class="fil39" d="M11867.17 16610.64l178.6 80.09c-43.9,-147.18 81.84,-97.17 -114.67,-123.64 164,-96.02 92.65,-112.72 278.34,-151.27l23.98 -308.03c-73.61,51.72 -30.75,3.01 -135.31,91.07 -74.85,63.02 -50.49,37.89 -107.82,104.96 -95.71,111.97 -122.83,162.6 -123.12,306.82z"/>
   <path class="fil39" d="M13823.26 14221.29l114.72 137.1c162.88,-148.72 158.88,-96.52 162.14,-403.64l-76.34 4.06c-205.86,68.39 -89.99,27.39 -200.52,262.48z"/>
   <path class="fil40" d="M14814.88 2391.44l4.38 66.91c63.61,828.81 -52.93,1291.62 -136.79,2054.85 -38.43,195.42 8.72,213.24 -176.01,272.9 150.33,241.46 144.02,671.42 177.52,1018.68 64.98,673.85 44.98,500.36 -80.51,1097.77 906.28,-577.47 417.84,-2422.38 314.09,-3280.36 -18.8,-155.47 13.08,-439.03 9.12,-628.37 -2.53,-121.16 -16.88,-222.28 -23.79,-339.09 -18.81,-317.71 -5.23,-251.79 56.7,-315.85l-178.65 -247.48 33.94 300.04z"/>
   <path class="fil40" d="M16777.43 7340.57l-385.19 242.4 -149.43 128.4 50.79 -337.41 -143.91 439.38 158.18 -47.31c-215.2,93.49 -1253.13,1505.99 -1297.62,1614.38 775,-261.34 1526.82,-1161.8 1767.18,-2039.84z"/>
   <path class="fil41" d="M13271.64 14143.92l-128.81 244.74c-33.58,-272.08 -68.44,-268.9 65.16,-491.66 21.62,37.7 28.59,38.34 55.94,132.92 3.71,12.82 7.03,91.73 7.71,114zm-58.9 -595.76l-262.38 350.69c198.91,-126.55 55.69,-50.84 104.62,0.33 -29.62,335.83 -123.74,347.35 86.18,599.49 201.68,-131.44 134.09,-110.5 130.48,-354.75l94.7 -502.71c224.71,-140.38 379.77,-322.23 649.7,-76.54l7.74 394.14 76.34 -4.06c-3.26,307.12 0.74,254.92 -162.14,403.64l-114.72 -137.1c-77.26,84.41 -90.89,-143.16 -79.59,214.54 295.98,64.58 410.59,-50.16 627.78,-173.61 355.18,-201.9 174.36,-180.75 641.18,-168.51l204.11 -135.2 -382.78 49.52c51.74,-49.15 24.16,-190.38 574.74,-159.96 150.99,8.33 454.49,35 601.35,60.16 112.69,227.53 223.24,489.31 345.08,794.17l571.82 6.75c290.81,3.89 58.01,-35.28 41.74,-102 0,-0.04 -80.91,-139.54 -98.91,-158.28 -163.15,-169.77 -106.04,-9.26 -274.41,-288.95 -316.32,-161.36 -1551.64,-655.28 -1854.74,-390.34l-62.19 56.27c-145.66,-128.19 -248.74,-185.45 -413.44,-309.74 -148.62,-112.17 -252.72,-187.54 -455.12,-271.2l-120.11 -30.01 -477.03 333.26z"/>
   <path class="fil41" d="M12313.96 17691.34c0,-170.99 -242.52,-117.69 -389.31,-119.25l44.06 -46.71 102.41 -128.43 -5.06 -307.37c7.01,-34.07 50.53,-196.88 52.71,-224.58 24.79,-313.82 0.51,-135.58 -73,-174.27l-178.6 -80.09c29.96,427.44 -139.88,834.07 -62.44,1015.16l509.23 65.54z"/>
   <path class="fil41" d="M5900.69 17237.43l53.83 163.06 289.89 7.97c133.89,-117.15 -11.67,-20.06 186.14,-127.2 64.31,-34.84 62.69,-19.52 136.33,-62.93 130.79,-77.11 159.71,-110.7 220.12,-251.09l-463.02 -174.16c49.17,194.44 23.79,146.15 -111.13,276.85 -196.91,190.75 -59.84,117.29 -312.16,167.5z"/>
   <path class="fil41" d="M13558.02 18223.73l47.63 -34.1c-120.02,-131.42 -235.9,-197.25 -119.51,-312.92 -130.79,-261 -94.59,-215.52 -109.32,-552.63 -68.6,73 -53.72,-36.91 -132.23,218.82 -37.4,121.85 -48.25,172.58 -33.61,297.14 26.62,226.63 150.54,326.89 347.04,383.69z"/>
   <path class="fil41" d="M12449.79 17484.1c69.76,130.73 -16.33,127.63 239.68,207.92 213.51,66.96 177.94,39.88 387.79,15.26l93.21 -341.85c-355.68,128.41 -287.59,144.7 -720.68,118.67z"/>
   <path class="fil41" d="M7014.37 13323.29c43.98,124.46 5.58,142.09 161.58,148.68 257.36,-66.69 111.98,-58.51 380.89,-25.17l79.4 -173.76c-186.05,0 -128.13,40.03 -121.51,-168.2l-75.42 96.08c-10.86,11.89 -23.49,30.16 -35.8,42.1 -183.95,178.35 -192.08,145.01 -389.14,80.27z"/>
   <path class="fil41" d="M6521.71 11456.16c-132.33,-9.01 -102.15,-39.1 -86.61,93.97 -26.6,509.97 -30.86,107.49 147.91,272.37 6.62,-56.16 24.46,-133.38 13.34,-188.09 -27.98,-137.45 -32.35,-104.44 -74.64,-178.25z"/>
   <path class="fil42" d="M6773.48 16752.77c94.72,122.91 -139.96,53.26 154.46,98.1 134.94,20.57 113.29,1.12 230.98,-37.33 1111.48,-363.19 723.95,264.09 1841.72,-289.1 100.01,-49.5 163.14,-92.51 248.01,-168.66l241.47 -223.72c241.38,-202.85 808.63,-630.67 907.93,-894.81l-533.37 -138.22 -1301.34 1041.62c-461.51,419.08 -1171.81,210.91 -1789.86,612.12z"/>
   <path class="fil42" d="M8086.93 10410.64c171.97,179.09 -84.22,-10.04 79.74,44.65l108.76 663.35c71.14,-53.99 54.26,-27.76 118.66,-101.05 3.56,-4.05 81.55,-111.05 85.48,-116.17 136.58,-178.36 95.47,-153.39 250.17,-191.04 -49.69,-123.32 -99.37,-241.68 -171.71,-395.77 -19.85,-42.3 -68.94,-142.42 -89,-174.4 -52.7,-84.04 -42.96,-58.38 -92.9,-110.32l-21.72 256.51c-15.89,10.14 -36.38,24.93 -47.36,30.95l-220.12 93.29z"/>
   <path class="fil43" d="M13106.19 9672.93c273.65,-15.5 103.12,2.48 162.18,74.52l303.17 51.56 68.16 445.39 239.79 -74.05c152.24,-129.83 -35.56,-28.23 196.01,-96.55 94.94,-28.02 71.53,6.53 211.87,-48.11l57.03 -222.96 35.87 -277.29 27.98 -832.59 82.34 -191.48c71.82,-247.13 -23.69,-328.02 17.22,-596.35 -7.19,-452.96 -189.44,-562.28 -564.26,-678.01 259.37,333.5 13.43,1032.31 -46.65,1478.44 -48.21,357.9 -41,366.6 -285.98,579.33 -173.27,150.44 -304.11,267.54 -504.73,388.15z"/>
   <path class="fil43" d="M12059.02 14106.16c210.26,-42.94 379.69,-118.83 541.51,-73.51l73.09 -104.43 -4.44 -573.39c-466.99,113.34 -989.9,305.79 -1210.99,773.04l600.83 -21.71z"/>
   <path class="fil44" d="M6463.65 11316.64c-67.63,261.34 81.58,-35.27 -52.16,123.54 -0.5,0.59 -129.27,104.32 -131.23,106.08 -147.29,116.98 -46.66,21.9 -164.13,153.43l-105.01 143.76c-6.31,9.56 -19.58,32.42 -29.65,48.44l127.62 255.38 -10.75 -255.13c109.12,-146.93 49.55,-67.09 173.81,-188.05 79.05,-76.94 81.31,-84.92 162.95,-153.96 -15.54,-133.07 -45.72,-102.98 86.61,-93.97l43.96 -98.45 177.34 -6.11 -130.21 -106.46c-81.4,64.01 -52.03,29.76 -149.15,71.5z"/>
   <path class="fil45" d="M10667.81 15055.39c0.83,142.77 581.75,168.56 732.92,165.9 323.65,-5.72 477.78,-83.99 705.18,-218.28 -83.64,-104.65 92.89,-93.61 -237.72,-181.96 -46.8,-12.51 -329.28,-29.52 -397.98,-35.74l-159.03 126.79c-260.15,-106.9 -775.39,-408.7 -922.53,-606.86 326,130.11 413.18,236.96 724.41,361.2 -228.84,-534.37 -391.72,-389.78 -741.47,-730.49l-397.07 -336.86c-165.41,-113.77 -256.32,-249.48 -275.31,-480.68 -61.4,-211.51 -116.4,-193.2 -186.29,-394.44 -171.48,-97.17 -149.21,-266.58 -170.29,-497.04l18.13 -155.12c-90.58,-117.6 -101.2,-464.75 -74.8,-656.23l-21.76 195.11c-295.45,-263.84 64.36,-424.13 -444.6,-725.56 332.05,1046.11 -243.55,1667.81 566.66,2486.41 369.04,372.85 756.15,962.06 1073.41,1206.77 176.38,136.05 267.86,153.48 322.86,447.63l-114.72 29.45z"/>
   <path class="fil45" d="M15873.04 11111.05c40.53,-38.02 25.58,-51.56 142.06,-97.04 78.08,-30.49 117.69,-31.13 196.98,-42.78l1017.8 -6.17c-30.27,-376.06 -54.25,-96.19 -78.76,-392.72 -330.97,27.15 -546.76,-46.96 -840.41,-17.98l-701.93 544.94 264.26 11.75z"/>
   <path class="fil46" d="M14118.34 18482.62c-37.52,476.08 544.37,653.07 1035.8,642.69 374.19,650.1 1764.02,227.29 1863.99,-219.02l14.24 -15.12 -111.73 -25.44c-456.72,499 -1071.38,670.83 -1639.34,251.93l336.56 -285.64 147.64 -136.48 -81.83 -12.98c-280.75,56.7 -395.09,357.07 -803.2,314.64 -337.34,-35.08 -546.17,-226.78 -666.88,-460.09 -102.94,-68.77 -91.38,122.95 -73.84,-163.03l-14.09 5.65 -7.32 102.89z"/>
   <path class="fil46" d="M7526.4 11680.15l63.61 59.74 70.74 -47.63 -2.11 -1.23c-133.45,-102.12 -75,116.83 -131.91,-129.64 -40.03,43.01 -139.03,-207.66 -0.33,118.76z"/>
   <path class="fil47" d="M12216.72 15536.19c-118.15,415.44 -138.22,349.9 -421.8,559.82 -107.57,79.62 -441.01,370.73 -486.78,452.81 -121.16,217.24 -145.88,1373.68 -161.47,1695.31 14.44,6.55 37.41,0.3 43.22,19.85l1667.67 850.49 230.65 9.52c204.91,-513.17 243.38,-931.94 -306.26,-1144.76l-241.86 -134.04 -226.13 -153.85 -509.23 -65.54c-77.44,-181.09 92.4,-587.72 62.44,-1015.16 0.29,-144.22 27.41,-194.85 123.12,-306.82 57.33,-67.07 32.97,-41.94 107.82,-104.96 104.56,-88.06 61.7,-39.35 135.31,-91.07 14.38,-172.58 39.7,-303.65 83.6,-490.12 8.59,-36.44 54.84,-212.75 55.15,-215.32 48.58,-403.16 34.27,-129.89 -60.54,-233.99l-94.91 367.83z"/>
   <path class="fil47" d="M16674.1 15246.83l-124.52 399.2c-133.5,161.8 184.47,118.92 -129.96,120.76l-103.68 1.85 501 740.11c15.98,-41.96 45.26,-114.59 121.6,-113.77 321.54,3.49 97.9,-29.22 279.44,180.02 -250.34,168.42 171.46,131.45 -345.28,134.13 -0.02,0.07 -143.32,164.44 140.24,-0.99l-64.34 242.57c116.04,-52.6 109.08,-55.48 254.53,-83.53 108.18,190.73 65.24,126.46 33.19,381.57 -30.1,239.59 35.6,410.46 -134.4,367.11 -273.95,19.45 -213.02,37.72 -372.8,207.63 -81.77,86.92 -216.85,231.42 -293.29,309.61 -224.11,229.27 -418.79,306.05 -670.33,562.44l-147.64 136.48c64.47,76.32 49.23,92.74 85.64,159.67l313.38 151.62c1109.93,-754.19 1205.15,-1297.73 1804.88,-1879.81l-252.27 -152.95c-4.95,-338.37 14.17,-141.86 68.88,-218.89l10.65 -516.71c155.12,-113.42 153.88,-24.86 81.37,-299.89l-376.32 6.22c-112.68,143.56 -151.41,138.61 -342.42,158.27 -11.72,-171.63 -8.75,-241.22 57.56,-335.35 181.81,-258.08 8.09,-91.59 282.44,-175.83l114.41 -296.64c-554.94,-551.17 -281.22,-471.78 -791.96,-184.9z"/>
   <path class="fil47" d="M16672.32 14082.42l195.87 27.28 145.7 67.7c150.66,-141.43 331.78,-275.43 417.47,-451.94 -129.61,-282.98 -977.78,-678.67 -1364.34,-736.11 -312.59,-46.46 -602.26,65.02 -848.98,182.54 -356.69,169.91 -545.31,194.82 -692.63,397.83 1172.22,81.05 1239.15,65.77 2146.91,512.7z"/>
   <path class="fil47" d="M13271.64 14143.92c3.61,244.25 71.2,223.31 -130.48,354.75 -209.92,-252.14 -115.8,-263.66 -86.18,-599.49 -48.93,-51.17 94.29,-126.88 -104.62,-0.33 -67.19,32.75 -35.28,16.93 -89.43,57.3 -66.34,49.46 -24.51,23.5 -114.15,95.6 -29.68,72.72 20.59,86.65 -57.95,48.49l-142.41 1069.77c154.92,-136.47 126.54,214.22 126.54,-259.54 68.54,-14.42 15.74,125.85 67.51,-126.41 32.68,29.43 301.98,104.17 110.83,252.82 -19.11,-171.32 31.85,-151.25 268.41,-201.12l408.28 -25.61c17.8,2.17 60.58,17.26 81.04,26.02 -186.05,-13.78 -154.08,-184.51 -200.18,-334.51l177.72 59.33c319.91,151.65 -79.37,35.26 429.97,69.09l594.73 72.29c-12.29,20.71 -31.02,29.72 -27.65,66.78 28.4,312.29 -106.98,123.12 116.17,228.9 -2.81,-112.13 -18.57,-224.79 5.8,-334.6 82.54,-371.93 34.99,-141.92 147.28,-233.16l183.83 -85.66 -12.56 279.1c127.91,-105.43 108.75,169.05 147.32,-200.1 12.24,-117.01 -17.76,-101.2 -69.48,-256.83l-89.35 -73.09c-466.82,-12.24 -286,-33.39 -641.18,168.51 -217.19,123.45 -331.8,238.19 -627.78,173.61 -11.3,-357.7 2.33,-130.13 79.59,-214.54 110.53,-235.09 -5.34,-194.09 200.52,-262.48l-7.74 -394.14c-269.93,-245.69 -424.99,-63.84 -649.7,76.54l-94.7 502.71z"/>
   <path class="fil47" d="M7225.77 12316.97c-135.04,260.41 -222.54,528.65 -355.77,756.92 2.39,15.19 4.11,22.8 7.98,45.44 4.35,25.41 12.06,37.52 18.42,48.44l73.98 106.57c-28.44,84.5 -43.03,68.12 43.99,48.95 197.06,64.74 205.19,98.08 389.14,-80.27 12.31,-11.94 24.94,-30.21 35.8,-42.1l75.42 -96.08 200.23 -597.1 8.83 -263.4 -298.81 -85.61c-175.83,62.97 -102.76,7.65 -199.21,158.24z"/>
   <path class="fil47" d="M12191.15 16709.46c1.41,360.01 115.83,613.92 258.64,774.64 433.09,26.03 365,9.74 720.68,-118.67l485.32 -1458.81 -180.1 0c-22,117.22 -42.11,245.15 -66.84,333.85 -236.27,-257.69 117.75,70.3 -323.45,267.95 50.24,129.67 14.75,290.09 -59.62,480.86 -108.1,277.28 -190.77,187.85 -552.67,187.85 -10.2,-34.02 -68.89,-197.28 -76.56,-208.47 -5.41,-7.87 -21.89,-22.59 -27.06,-28.44 -4.22,-4.75 -23.41,-14.07 -26.91,-17.17 -5.51,-4.86 -33.32,-5.97 -48.14,-13.54 0,-231.92 71.99,-200.05 -103.29,-200.05z"/>
   <path class="fil47" d="M6521.71 11456.16c42.29,73.81 46.66,40.8 74.64,178.25 11.12,54.71 -6.72,131.93 -13.34,188.09 -178.77,-164.88 -174.51,237.6 -147.91,-272.37 -81.64,69.04 -83.9,77.02 -162.95,153.96 -124.26,120.96 -64.69,41.12 -173.81,188.05l10.75 255.13 25.19 101.42 268.07 -107.13 89.11 -319.98 283.91 92.56 484.35 168.35 162.73 -190.77 -15.93 -225.09 -663.51 -315.03 -177.34 6.11 -43.96 98.45z"/>
   <path class="fil47" d="M6377.84 12763.5l-36.42 78.71 97.06 321.12 239.33 -3.71c63.4,-123.58 84.94,-101.82 124.7,-137.67l220.61 -774.75 35.41 -31.28 -371.84 -67.15c-177.56,138.28 -282.74,395.62 -308.85,614.73z"/>
   <path class="fil47" d="M15935.35 14997.39c-110.19,87.08 -116.3,137.38 -260.06,173.3l-17.87 154.5c17.77,13.39 80.13,63.48 90.32,72.82l66.5 201.03c335.35,-71 308.95,-2.25 318.95,306.92 253.83,0 114.67,29.02 156.09,-166.88 -33.72,-368.5 114.45,-544.68 -15.32,-867.29l-338.61 125.6z"/>
   <path class="fil47" d="M10777.08 11083.14c-144.71,-427.01 -268.41,-426.37 -597.03,-668.94 -128.75,96.17 -176.12,-184.59 -95.32,306.86 10.56,64.3 51.31,204.91 67.82,279.32 238.32,80.71 554.3,204.27 624.53,82.76z"/>
   <path class="fil47" d="M12309.13 11271.17c82.71,105.26 -130.64,74.09 165.87,78.69l892.57 -1.36 257.42 -393.4c-64.32,-151.69 134.79,-134.37 -134.92,-100.98l-215.24 43.45c-144,246.52 -63.74,188.67 -267.34,374.41 -188.79,-12.82 -207.8,-47.15 -336.64,-126.2l-361.72 125.39z"/>
   <path class="fil48" d="M16868.19 14109.7c105.17,153.71 191.22,282.7 272.15,470.22l91.18 101.86 -2.39 144.5c592.7,302.57 312,515.31 593.25,954.54 269.71,114.45 117.99,-6.49 354.03,25.89 363.75,486.16 315.74,582.38 288.35,1303.82l323.65 -367c45.83,-63.57 83.88,-132.92 131.82,-198l185.15 -195.29 -14.62 -789.21c-213.37,-718.11 -941.19,-1219.19 -1179.64,-1484.15 -92.23,-102.48 -40.75,-70.91 -138.68,-168.69 -161.43,-88.36 -178.67,-112.04 -341.08,-182.73 -85.69,176.51 -266.81,310.51 -417.47,451.94l-145.7 -67.7z"/>
   <path class="fil48" d="M15763.13 14797.12l172.22 200.27 338.61 -125.6c129.77,322.61 -18.4,498.79 15.32,867.29l26.66 29.56 103.68 -1.85c314.43,-1.84 -3.54,41.04 129.96,-120.76 -188.03,-66.08 -207.28,205.81 -133.23,-262.52 7.93,-50.16 88.34,-176.18 111.82,-221.07 301.25,-28.99 38.9,-21.82 145.93,84.39 510.74,-286.88 237.02,-366.27 791.96,184.9l-114.41 296.64c93.9,90.59 49.81,101.2 133.67,244.48 -218.82,0.61 -23.83,-21.21 -131.25,108.43l376.32 -6.22c72.51,275.03 73.75,186.47 -81.37,299.89 126.54,74.39 360.31,-50.1 163.43,322.8 -12.43,23.58 -105.54,171.6 -108.29,175.14 -67.83,86.67 11.61,122.74 -65.79,18.77 -54.71,77.03 -73.83,-119.48 -68.88,218.89l252.27 152.95c-599.73,582.08 -694.95,1125.62 -1804.88,1879.81 43.72,77.09 -103.16,21.33 48.76,96.64 -110.55,-9.77 -388.28,-36.52 -425.62,-144.73 -58.56,-169.81 -52.92,-7.72 63.48,-103.53 -36.41,-66.93 -21.17,-83.35 -85.64,-159.67l-336.56 285.64c567.96,418.9 1182.62,247.07 1639.34,-251.93 123.43,-201.37 782.86,-736.19 1108.82,-1269.55 56.1,-91.81 18.84,-61.13 72.22,-125.46 74.31,-89.53 63.81,-62.37 136.06,-117.8 184.51,-461.5 283.34,-1085.41 -163.61,-1362.53l-356.25 -42.12c-62.03,-181.28 -303.19,-806.71 -375.83,-904.97 -186.6,-252.43 -703.85,-280.39 -1086.82,-243.68 -96.35,-308.73 -310.01,-588.2 -507.04,-753.03 215.54,292.99 133.16,511.67 14.94,750.53z"/>
   <path class="fil48" d="M13943.24 18162.23l194 127.93c344.06,-88.17 538.96,-588.53 836.3,-1014.06l783.63 -1175.43c141.39,392.78 -96.36,160.5 -504.77,1021.49 159.14,-72.84 79.85,-8.88 191.28,-121.91 245.79,-249.35 655.43,-738.59 689.51,-1094.29 -10,-309.17 16.4,-377.92 -318.95,-306.92l-934.54 1313.22c-106.43,131.58 -157.05,223.22 -248.34,351.28l-688.12 898.69z"/>
   <path class="fil48" d="M16948.6 16950.71c-30.81,315.29 -630.71,715.97 -901.07,995.9 -287.89,298.09 -586.18,621.83 -1039.59,871.19l-145.86 -67.93c54.18,123.27 25.65,95.53 66.84,198.93 -402.01,-76.58 -461.45,-108.61 -565.89,-433.27 49.71,-88.87 -109.79,-54.89 144.4,-78.69l37 -179.85c-193.88,72.38 -296.62,46.6 -330.84,280.12 120.71,233.31 329.54,425.01 666.88,460.09 408.11,42.43 522.45,-257.94 803.2,-314.64 57.33,-79.57 35.67,-52.86 103,-127.49 263.96,-292.63 1023.98,-1063.38 1301.63,-1178.02l13.62 238.81c170,43.35 104.3,-127.52 134.4,-367.11 32.05,-255.11 74.99,-190.84 -33.19,-381.57 -145.45,28.05 -138.49,30.93 -254.53,83.53z"/>
   <path class="fil49" d="M8011.05 10947.47l90.4 74.6 55.92 660.36 -30.66 164.56 12.49 153.45 -39.7 219.97 17.78 206.57c52.38,343.61 27.98,591.02 95.16,913.08 117.66,84.74 139.23,75.29 159.73,268.42l-458.92 -20.64 133.95 124.61 415.27 -12.71c212.47,332.75 347.61,504.39 586.75,812.56 266.74,343.72 262.3,425.12 815.46,586.73l533.37 138.22c-99.3,264.14 -666.55,691.96 -907.93,894.81l-241.47 223.72c-84.87,76.15 -148,119.16 -248.01,168.66 -1117.77,553.19 -730.24,-74.09 -1841.72,289.1 -117.69,38.45 -96.04,57.9 -230.98,37.33 -294.42,-44.84 -59.74,24.81 -154.46,-98.1 -430.97,-40.39 -659.9,-284.68 -635.09,-758.03l-100.89 1.45c-16.15,677.47 118.9,427.41 286.48,796.89l463.02 174.16 138.11 17.69c244.32,-2.29 405.73,-79.37 601.95,-82.58l165.08 41.81 285.18 -57.15 618.49 37.72c175.08,-122.57 195.74,-117.27 412.75,-118.95 158.22,-179.69 342.97,-175.45 571.73,-314.7 110.81,-67.46 161.3,-97.91 250.36,-150.18 207.75,-121.99 125.38,-103.55 315.57,-133.1 132.46,-207.56 189.61,-172.64 400.87,-362.24 112.59,-101.03 227.04,-236.74 377.97,-349.66 349.83,-261.69 713.75,36.16 1161.29,46.97l130.37 -6.68 94.91 -367.83c42.87,-389.03 17.33,-181.96 187.55,-497.62 132.37,-245.46 -16.47,-153.07 56.12,-371.04 65.74,-197.35 23.08,-86.45 133.53,-199.46 78.54,38.16 28.27,24.23 57.95,-48.49l-146.25 -19.1c-161.82,-45.32 -331.25,30.57 -541.51,73.51 -23.23,12 -38.37,46.11 -182.09,81.54 -59.26,14.62 -148.86,21.66 -210.22,21.72 -88.53,0.07 -285.63,2.29 -327.13,-71.06l-230.36 -41.31 -16.27 -26.72c-124.17,-23.31 -149.52,-12.95 -266.22,-70.24 -112.83,-55.39 -119.53,-113.26 -140.17,-137.8 -155.78,-29.03 -153.16,-22.07 -306.42,-143.69 -89.02,-70.62 -123.75,-119.36 -201.54,-198.16 -146.36,-148.28 -263.5,-310.31 -479.39,-402.03 18.99,231.2 109.9,366.91 275.31,480.68l397.07 336.86c349.75,340.71 512.63,196.12 741.47,730.49 -311.23,-124.24 -398.41,-231.09 -724.41,-361.2 147.14,198.16 662.38,499.96 922.53,606.86l159.03 -126.79c68.7,6.22 351.18,23.23 397.98,35.74 330.61,88.35 154.08,77.31 237.72,181.96 -227.4,134.29 -381.53,212.56 -705.18,218.28 -151.17,2.66 -732.09,-23.13 -732.92,-165.9 -1422.5,-83.48 -1324.13,-450.59 -1771.29,-1050.13l-477.68 -724.46c-302.83,-450.74 -204.75,-1622.68 -143.41,-2162.16l-108.76 -663.35c-163.96,-54.69 92.23,134.44 -79.74,-44.65l-75.88 536.83z"/>
   <path class="fil49" d="M16310.71 10554.36c293.65,-28.98 509.44,45.13 840.41,17.98 24.51,296.53 48.49,16.66 78.76,392.72l-1017.8 6.17c-79.29,11.65 -118.9,12.29 -196.98,42.78 -116.48,45.48 -101.53,59.02 -142.06,97.04 287.86,-27.98 606.68,-124.41 805.11,66.65 352.62,58.01 529.75,249.23 788.2,385.18 130.11,-7.12 180.18,-29.23 270.17,0.17 344.65,112.55 117.62,23.39 182.03,205.11l321.45 209.94 14.22 0.2c-175.87,-326.68 -197.45,-158.04 -302.39,-676.78 -227.51,-1124.6 -169.21,-718.81 -1199.67,-891.8l12.61 -204.47 -454.06 349.11z"/>
   <path class="fil49" d="M16813.26 10168.57c105.73,-64.78 41.97,-11.63 131.81,-90.44 41.47,-36.38 62.86,-70.71 112.61,-118.12l-56.14 -58.59 -128.66 23.64c-73.48,76.53 125.86,67.5 -187.15,86.05 -302.42,17.92 -72.34,-10.09 -161.87,-55.81 -240.78,-66.56 -200.87,13.45 -243.05,-175.25l-163.76 164.88c-338.07,289.21 -185.65,-16.23 -368.86,404.65 232.69,-26.64 431.18,-55.86 639.87,-156.88 508.67,-246.23 372.63,-132.39 425.2,-24.13z"/>
   <path class="fil50" d="M11032.3 17177.79c-4.39,212.26 -7.95,391.14 1.78,603.26 1.06,23.23 13.72,268.83 14.27,271.49 77.09,381.68 -4.09,95.37 98.32,191.59 15.59,-321.63 40.31,-1478.07 161.47,-1695.31 45.77,-82.08 379.21,-373.19 486.78,-452.81 283.58,-209.92 303.65,-144.38 421.8,-559.82l-130.37 6.68c-134.61,388.01 -347.59,453.13 -652.4,729.16 -345.57,312.93 -288.18,385.53 -401.65,905.76z"/>
   <path class="fil51" d="M6138.39 15994.74c-24.81,473.35 204.12,717.64 635.09,758.03 618.05,-401.21 1328.35,-193.04 1789.86,-612.12l1301.34 -1041.62c-553.16,-161.61 -548.72,-243.01 -815.46,-586.73 -239.14,-308.17 -374.28,-479.81 -586.75,-812.56l-415.27 12.71c-174.7,73.06 -277.55,157.69 -433.77,237.49 -62.72,207.23 -199.22,328.64 -346.08,554.96 -126.54,194.99 -276.15,319.29 -378.25,520.88 -166.07,351.22 -13.25,158.69 -231.27,238.94 -55.37,-77.11 -263,155.47 59.82,-508.73 85.2,-175.32 142.48,-297.04 228.97,-436.07 203.33,-326.88 478.71,-575.44 446.77,-688.69 -3.2,37.96 44.08,-20.6 -52.91,82.8 -62.55,66.67 -33.78,31.85 -99.57,95.71 -1096.86,1064.62 -775.63,1456.13 -1102.52,2185z"/>
   <path class="fil51" d="M8275.43 11118.64c-61.34,539.48 -159.42,1711.42 143.41,2162.16l477.68 724.46c447.16,599.54 348.79,966.65 1771.29,1050.13l114.72 -29.45c-55,-294.15 -146.48,-311.58 -322.86,-447.63 -317.26,-244.71 -704.37,-833.92 -1073.41,-1206.77 -810.21,-818.6 -234.61,-1440.3 -566.66,-2486.41l-89.86 -174.75c-154.7,37.65 -113.59,12.68 -250.17,191.04 -3.93,5.12 -81.92,112.12 -85.48,116.17 -64.4,73.29 -47.52,47.06 -118.66,101.05z"/>
   <path class="fil52" d="M15012.63 14093.71l89.35 73.09c51.72,155.63 81.72,139.82 69.48,256.83 -38.57,369.15 -19.41,94.67 -147.32,200.1l-37.93 107.68c-57.29,277.98 -40.28,233.09 -286.42,266.64 -223.15,-105.78 -87.77,83.39 -116.17,-228.9 -3.37,-37.06 15.36,-46.07 27.65,-66.78l-594.73 -72.29c-509.34,-33.83 -110.06,82.56 -429.97,-69.09l-177.72 -59.33c46.1,150 14.13,320.73 200.18,334.51 -20.46,-8.76 -63.24,-23.85 -81.04,-26.02l-408.28 25.61c-236.56,49.87 -287.52,29.8 -268.41,201.12 191.15,-148.65 -78.15,-223.39 -110.83,-252.82 -51.77,252.26 1.03,111.99 -67.51,126.41 0,473.76 28.38,123.07 -126.54,259.54l-355.27 1539.45c175.28,0 103.29,-31.87 103.29,200.05 14.82,7.57 42.63,8.68 48.14,13.54 3.5,3.1 22.69,12.42 26.91,17.17 5.17,5.85 21.65,20.57 27.06,28.44 7.67,11.19 66.36,174.45 76.56,208.47 361.9,0 444.57,89.43 552.67,-187.85 74.37,-190.77 109.86,-351.19 59.62,-480.86 441.2,-197.65 87.18,-525.64 323.45,-267.95 24.73,-88.7 44.84,-216.63 66.84,-333.85l180.1 0 54.53 -197.19 133.41 -711.43 458.9 -53.74c-11.45,48.25 -66.93,239.5 -67.57,240.87 -69.64,150.26 -36.29,87.13 -140.61,185.59 -202.27,121 -717.52,1654.81 -717.63,1953.36 14.73,337.11 -21.47,291.63 109.32,552.63 180.53,212.19 68.82,184.31 327.28,285.93l129.82 -0.41 688.12 -898.69c91.29,-128.06 141.91,-219.7 248.34,-351.28l934.54 -1313.22 -66.5 -201.03c-10.19,-9.34 -72.55,-59.43 -90.32,-72.82 -195.83,65.44 -155.97,150.31 -379.5,45.86 32.44,-147.01 0.06,-87.67 80.65,-188.72 32.71,-41.01 137.51,-123.55 171.96,-157.05l232.6 -228.16c118.22,-238.86 200.6,-457.54 -14.94,-750.53 5.09,-150.49 -403.98,-93.89 -531.45,-88.08l-204.11 135.2z"/>
   <path class="fil52" d="M16133.19 15905.96c-34.08,355.7 -443.72,844.94 -689.51,1094.29 -111.43,113.03 -32.14,49.07 -191.28,121.91 -135.78,207.99 -666.34,902.97 -707.97,1134.83l-37 179.85c77.2,225.46 106.85,269.33 354.65,313.03l145.86 67.93c453.41,-249.36 751.7,-573.1 1039.59,-871.19 270.36,-279.93 870.26,-680.61 901.07,-995.9l64.34 -242.57c-283.56,165.43 -140.26,1.06 -140.24,0.99 516.74,-2.68 94.94,34.29 345.28,-134.13 -181.54,-209.24 42.1,-176.53 -279.44,-180.02 -76.34,-0.82 -105.62,71.81 -121.6,113.77l-501 -740.11 -26.66 -29.56c-41.42,195.9 97.74,166.88 -156.09,166.88z"/>
   <path class="fil1" d="M9732.4 9244.69c-23.66,-53.74 -33.68,-26.44 -44.85,-126.98l86.33 -521.99c72.42,-274.77 72.64,-366.72 206.68,-573.03 14.16,359.96 -85.04,430.11 -139.22,960.71 -19.92,195 -61.13,185.88 -108.94,261.29zm39.54 -1442.06c-48.58,568.95 -509.52,952.32 -536.23,1827.88l108.65 92.16 53.2 16.27c100.25,82.28 72.67,44.2 159.07,84.17l125.21 -31.88c383.44,-130.7 548.65,261.27 790.56,490.69 191.34,181.44 473.38,531.03 699.68,693.66 292.97,-25.03 95.23,11.5 164.69,-87.06l-6.12 -287.74 -473.23 -882.52c268.98,91.39 354.4,357.7 471.3,548.39l132.44 99.2c174.93,185.39 38.35,1.69 108.85,197.48l63.44 185.58c8.08,18.66 23.98,41.18 37.26,60.94 183.83,-92.99 56.75,25.08 167.18,-171.06 133.26,-236.76 -107.46,48.71 90.98,-184.97l74.63 -6.8c91.44,-120.56 95.01,-90.69 145.3,-239.68 202.12,-238.54 666.34,-483.32 957.39,-534.41 200.62,-120.61 331.46,-237.71 504.73,-388.15 244.98,-212.73 237.77,-221.43 285.98,-579.33 60.08,-446.13 306.02,-1144.94 46.65,-1478.44 -604.82,-136.86 -1432.87,1107.13 -1695.7,1563.2 -204.5,354.84 -184.14,553.57 -394.63,692.87l-31.81 -390.96 -104.41 -341.65c-13.61,-101.95 -21.52,-189.02 -37.17,-286.03 -37.86,-234.76 -67.73,-442.43 -97.78,-682.01 -86.78,-339.01 -102.98,-619.85 -455.16,-739.53 -264.52,-3.21 -605.61,90.65 -821.79,208.13 -290.24,157.74 -288.26,326.96 -533.16,551.6z"/>
   <path class="fil1" d="M13666.25 13183.03c96.13,-125.43 87.07,-131.98 276.53,-45.37 192.16,52.73 138.32,48.98 334.29,127.16 320.88,-191.1 573.99,-772.11 1611.9,-848.32 -171.01,144.06 -238.16,144.06 -470.68,228.3 -838.21,303.71 -822.98,580.44 -1026.28,736.55 202.27,8.7 344.69,-159.98 592.61,-254.72 184.49,-70.5 611.56,-171.39 777.92,-201.95 629.69,-115.71 1071.78,263.95 1559.9,426.2l365.7 -126.77 193.94 -59.54c1.74,-325.06 -1.23,-316.32 -165.36,-542.72l-158.31 -106.39 -158.2 -65.55 -263.49 -51.57 -118.57 37.68 -590.44 -98.87c24.07,-227.8 86.67,-189.9 220.72,-378.17 -81.07,-394.87 -170.86,-354.88 -353.2,-655.81l-459.63 -53.92c-712.91,-41.89 -1142.28,389.8 -1575.7,691.91 -328.23,228.78 -801.81,811.83 -855.16,1332.45l261.51 -90.58z"/>
   <path class="fil1" d="M11397.08 13294.04c292.53,28.15 131.16,-52.78 199.39,129.03 -200.24,-40.84 -121.25,-30.49 -199.39,-129.03zm-335.3 -1803.39c16.79,17.28 40.29,-15.36 10.57,185.41 -30.16,203.74 -6.2,-14.79 -57.92,217.95 -201.04,-92.06 -374.96,-272.66 -542.91,-433.48l-440.4 -103.68c247.75,-135.69 775.85,-28.88 1030.66,133.8zm-1433.97 -606.48c-2.99,322.96 212.12,1091.8 344.42,1372.31 114.26,242.29 259.51,251.42 437.63,429.4 137.25,137.14 275.45,294.86 389.77,418.24 207.09,134.85 341.53,227.28 534.25,437.49 434.02,38.42 1063.02,-262.63 1272.9,-538.04 246.58,-438.5 664.67,-592.74 573.69,-1261.87l-27.83 -7.68c-261.51,-89.76 -263.27,-86.95 -548.77,-43.58 -503.43,76.49 -238.49,90.43 -443.58,0.92 131.41,-116.28 -158.75,-68.45 273.05,-137.1l895.48 -12.29 38.6 -25.58c-509.09,-93 -900.31,-21.37 -1377.52,-92.63l-30.03 3.41c-397.6,177.5 -202.21,147.32 -416.15,330.27l-41.72 379.11c300.02,93.73 79.84,-43.18 176.35,157.62 164.78,243.43 364.91,-146.21 655.26,136.88 -32.46,259.69 -8.08,483.87 -213.74,616.31 -96.15,284.77 -507.64,187.55 -779.35,115.49 -187.61,-49.74 -202.2,-38.14 -247.9,-209.9 -24.82,-93.33 -49.2,-439.62 -55.9,-548.43l28.66 -121.23c22.65,-2.77 118.4,-15.14 131.78,-18.06 10.73,-2.34 41.17,-8.09 52.47,-10.76l78.01 -25.36 -32.55 -135.38c92.76,-134 166.07,-225.55 182.47,-404.39 -118.62,-424.29 -17.92,-0.75 -189.13,-369.62l-19.08 73.42c-376.96,8.05 -853.03,-168.6 -1195.52,-295.73l-172.79 -714.81c-53.39,53.37 -32.53,35.5 -153.04,72.34 -345.25,105.51 63.26,-39.46 -138.02,32.37l17.83 396.86z"/>
   <path class="fil1" d="M12242.61 10403.37l-104.36 159.52c-77.38,262.15 -24.03,247.88 -216.96,241.02 -139.16,126.81 -122.74,-197.76 -111.23,218.41l187.81 67.24 -6.7 123.51c154.2,-27.74 1511.39,-827.07 1648.53,-968.67l-68.16 -445.39 -303.17 -51.56c-255.82,54.84 -392.98,202.47 -555.67,312.42 -114.08,77.09 -132.17,78.84 -231.9,170.46 -176.35,162.03 26.91,63.24 -238.19,173.04z"/>
   <path class="fil1" d="M9512.92 12723.97c69.89,201.24 124.89,182.93 186.29,394.44 215.89,91.72 333.03,253.75 479.39,402.03 77.79,78.8 112.52,127.54 201.54,198.16 153.26,121.62 150.64,114.66 306.42,143.69 46.29,-298.72 -114.13,-515.5 -200.12,-762.02 -92.5,-103.93 -198.53,-137.84 -338.64,-219.17 -216.41,-125.63 -145.27,-123.03 -355.07,-153.12l-203.08 -142.18c-117.86,104.34 -196.58,-138.57 -76.73,138.17z"/>
   <path class="fil1" d="M9360.76 12071.81l-18.13 155.12c12.15,21.3 33.34,25.52 37.21,63.46 9.74,95.97 62.78,-13.14 45.19,239.27 359.95,-16.46 347.29,-71.29 489.06,113.01l8.67 -34.82 82.05 -91.14 -188.62 -351.67c-252.65,-118.24 -31.32,12.33 -215.7,-198.25 -123.36,-140.9 -35.26,-64.3 -202.51,-149.7l-37.22 254.72z"/>
   <path class="fil1" d="M8639.62 9926.9l168.84 -180.47c249.81,-60.42 156.88,81.86 271.77,-128.74l-210.4 -420.45 -197.32 -0.47 -32.89 730.13z"/>
   <path class="fil53" d="M10118.78 2117.36c66.32,347.37 373.58,1450.54 223.11,1705.06 67.99,94.41 -32.07,49.74 132.97,142.88 -16.24,593.58 -238.23,1311.45 -411.4,1839.17 -237.22,723.01 -254.09,1202.13 -291.52,1998.16 244.9,-224.64 242.92,-393.86 533.16,-551.6 216.18,-117.48 557.27,-211.34 821.79,-208.13 -266.26,-177.41 -6.46,2.43 -137.01,-168.58 694.19,-1563.59 493.68,-1956.68 539.02,-3227.68l182.16 441.97c247.89,820.35 178.89,644.38 265.3,1578.72 53.78,581.6 137.79,643.98 -69,1184.24 -82.06,214.4 -205.7,772.9 -325.31,930.86 30.05,239.58 59.92,447.25 97.78,682.01 15.65,97.01 23.56,184.08 37.17,286.03l104.41 341.65 38.6 -158.29c81.02,360.78 -41.85,96.02 136.3,170.95 269.52,-1864.23 1168.44,-2382.92 515.66,-5027.95 -277.44,-1124.23 -233.53,-893.93 -1033.76,-1826.99l-1614.39 -1347.15c48.06,253.21 130.15,393.88 204.58,619.88 222.83,676.67 124.94,522.09 50.38,594.79z"/>
   <path class="fil53" d="M12311.63 15168.36c94.81,104.1 109.12,-169.17 60.54,233.99 -0.31,2.57 -46.56,178.88 -55.15,215.32 -43.9,186.47 -69.22,317.54 -83.6,490.12l-23.98 308.03c-185.69,38.55 -114.34,55.25 -278.34,151.27 196.51,26.47 70.77,-23.54 114.67,123.64 73.51,38.69 97.79,-139.55 73,174.27 -2.18,27.7 -45.7,190.51 -52.71,224.58l170.31 433.67 -267.66 2.13 -44.06 46.71c146.79,1.56 389.31,-51.74 389.31,119.25l226.13 153.85 552.34 22.97c101.2,234.37 264.52,395.64 316.42,530.5l217.33 99.83c131.16,688.99 -454.71,919.02 -636.8,646.5l-131.82 -30.52 -1667.67 -850.49c-5.81,-19.55 -28.78,-13.3 -43.22,-19.85 41.26,275.56 139.28,259.38 418.79,379.63 208.89,89.86 350.49,141.12 517.79,222.26 305.74,148.28 698.15,348.2 894.13,524.67l278.99 5.25 106.34 -5.32 104.81 -70.6 141.18 -49.24 -20.26 -65.13c9.58,-6.11 151.14,-70.01 167.61,-78.8l25.27 -151.58 34.19 -167.22 553.17 539.45c179.09,75.52 157.98,7.31 271.76,181.85l190.89 29.96 -7.92 19.8 212.71 24.71 114.4 15.87 387.21 38.12c664.56,0.08 1009.17,-28.56 1554.81,-310.34 531.68,-274.57 317.96,116.09 1293.29,-579.51 615.51,-438.97 500.31,-402.94 718.17,-1154.52 164.83,-568.59 104.78,-1159.21 223.72,-1763.58l-236.96 -268.83 14.62 789.21c-6.74,658.98 -55.89,1534.62 -411.13,1902.48l-591.35 542.35c-170.17,123.95 -446.76,291.23 -709.51,287.55 135.56,-68.71 227.42,-240.98 340.74,-386.12 312.42,-400.19 723.07,-522.98 730.63,-1585.97 27.39,-721.44 75.4,-817.66 -288.35,-1303.82 -137.36,76.74 -117.09,-134.11 -102.28,183.68 446.95,277.12 348.12,901.03 163.61,1362.53 -159.08,592.86 -198.43,503.15 -534.59,846.15 -100.85,102.91 -204.05,258.5 -317.23,348.86 -216.54,172.88 -210.87,43.85 -353.55,343.24l-14.24 15.12c227.86,-111.38 1069.32,-812.34 1182.3,-1053.94 -136.23,353.47 -529.98,736.47 -753.62,958.48 -316.47,314.18 -423.84,576.87 -1107.4,692.08 -363.32,61.24 -1430.47,85.22 -1819.45,-292.68l-498.05 -443.02c-9.69,-9.2 -23.76,-23.18 -33.59,-32.09 -108.41,-98.38 -119.07,-44.58 -191.96,-205.46l321.98 -47.04 7.32 -102.89c-281.19,24.02 -378.74,-3.34 -567.64,-156 -196.5,-56.8 -320.42,-157.06 -347.04,-383.69 -14.64,-124.56 -3.79,-175.29 33.61,-297.14 78.51,-255.73 63.63,-145.82 132.23,-218.82 0.11,-298.55 515.36,-1832.36 717.63,-1953.36 -53.68,-217.79 90.6,-92.46 -74.3,-179.13 -17.58,-1.69 -32.38,49.24 -144.37,-10.24 -0.47,454.46 -23.35,390.95 -165.46,528.08l-54.53 197.19 -485.32 1458.81 -93.21 341.85c-209.85,24.62 -174.28,51.7 -387.79,-15.26 -256.01,-80.29 -169.92,-77.19 -239.68,-207.92 -142.81,-160.72 -257.23,-414.63 -258.64,-774.64l355.27 -1539.45 142.41 -1069.77c-110.45,113.01 -67.79,2.11 -133.53,199.46 -72.59,217.97 76.25,125.58 -56.12,371.04 -170.22,315.66 -144.68,108.59 -187.55,497.62z"/>
   <path class="fil54" d="M16777.43 7340.57l0 0c-240.36,878.04 -992.18,1778.5 -1767.18,2039.84 44.49,-108.39 1082.42,-1520.89 1297.62,-1614.38l-158.18 47.31c119.67,-365.37 369.53,-1063.72 320.18,-1389.5 -146,-963.38 -784.57,-2497.95 -1123.37,-3432.25 -206.69,-181.32 -249.09,-410.85 -386.91,-652.71 -61.93,64.06 -75.51,-1.86 -56.7,315.85 6.91,116.81 21.26,217.93 23.79,339.09 3.96,189.34 -27.92,472.9 -9.12,628.37 103.75,857.98 592.19,2702.89 -314.09,3280.36 125.49,-597.41 145.49,-423.92 80.51,-1097.77 -33.5,-347.26 -27.19,-777.22 -177.52,-1018.68l4.71 -162.62c-12.29,-307.47 -118.5,-607.07 -216.08,-915.01 -54.84,-173.08 -105.27,-296.55 -173.48,-421.03 -121.71,-222.17 -121.16,-149.28 -147.62,-365.06 -255,-172.25 -390.87,-292.6 -697.75,-467.83 -183.19,-104.57 -593.93,-313.52 -647.31,-362.69l-758.04 -306.62 -735.21 -329.91c-281.32,-84.32 -494.84,-195.11 -728.57,-341.7 -264.9,-166.14 -325.03,-305.74 -611.03,-362.32 -209.97,-79.66 -68.04,-61.75 -124.97,48.03l185.9 521.64 245.53 629.17 16.24 167.21c74.56,-72.7 172.45,81.88 -50.38,-594.79 -74.43,-226 -156.52,-366.67 -204.58,-619.88l1614.39 1347.15c800.23,933.06 756.32,702.76 1033.76,1826.99 652.78,2645.03 -246.14,3163.72 -515.66,5027.95 -178.15,-74.93 -55.28,189.83 -136.3,-170.95l-38.6 158.29 31.81 390.96c210.49,-139.3 190.13,-338.03 394.63,-692.87 262.83,-456.07 1090.88,-1700.06 1695.7,-1563.2 374.82,115.73 557.07,225.05 564.26,678.01 90.43,92.56 13.56,-72.62 107.17,160.49 114.73,285.8 115.49,597.2 122.53,882.76 6.73,273.5 130.43,969.49 -71.44,1137.75 -12.2,15.96 -32.99,17.28 -40.01,45.04 -46,181.75 -67.57,-31.36 -164.55,209.97 -18.29,45.52 -11.89,110.54 -28.66,159.43 -72.89,212.49 -24.27,90.96 -116.37,187.12 -61.24,468.19 -602.46,1083 -672.14,1481.13l20.4 55.85 49.45 -86.56 270.22 -312.71 -4.05 -120.13 162.31 -352.95 211.33 -18.9 -7.82 -12.11c-230.13,-45.59 -64.59,0.79 -128.07,-98.15l261.49 -425.16c45.96,-112.88 59.51,-139.14 118.83,-268.81 26.53,-57.99 35.31,-95.47 60.93,-137.89 66.69,-110.46 35.29,-53.39 100.44,-120.11 101.46,-206.29 351.79,-517.1 660.05,-525.7 63.66,463.47 -58.14,1009.58 -301.43,1313.98 -228.89,286.35 -635.59,391.46 -918.38,635.96l-139.69 210.89 -242.19 246.87 -178.22 229.39 -297.39 492.03 -66.68 263.87c19.36,78.88 37.08,92.54 22.09,160.59 -41.64,189.04 22.53,86.05 -83.34,198.47l-21.82 4.55 19.94 46.18 477.03 -333.26 -23.52 -31.87 -261.51 90.58c53.35,-520.62 526.93,-1103.67 855.16,-1332.45 433.42,-302.11 862.79,-733.8 1575.7,-691.91l37.44 -138.2 -264.26 -11.75 701.93 -544.94 454.06 -349.11 48.49 -36.68c-52.57,-108.26 83.47,-222.1 -425.2,24.13 -208.69,101.02 -407.18,130.24 -639.87,156.88 183.21,-420.88 30.79,-115.44 368.86,-404.65l163.76 -164.88c117.12,-39.68 143.41,-52.54 267.84,-163.61 151.08,-134.88 120.77,-144.77 270.2,-243.58 94.3,-101.06 110.91,-108.36 213.17,-174.88 126.02,-231.22 400.96,-374.34 495.5,-607.01 92.02,-226.41 136.77,-754.9 118.42,-996.39 63.72,-229.64 432.39,-1494.37 316.57,-1869.86l-1185.08 1615.85z"/>
   <path class="fil54" d="M8887.77 2215.37l252.87 687.27 235.93 772.2c93.5,-85.95 30.33,65.2 131.46,-131.54 345.15,937.96 33.18,1065.76 -36.18,1931.12l-108.17 1912.75c-63.66,-209.73 -517.76,-3160.45 -633.85,-3308.62 -245.16,479.65 -326.55,2449.41 -343.74,3048.45 117.05,217.19 174.66,761.49 76.38,953.78l-171.87 -133.38c-670.34,-724.5 -387.84,-346.34 -657.5,-986.06l-65.77 444.88c257.78,-39.45 187.94,283.83 502.74,938.38 151.95,315.94 351.39,613.21 480.29,924.38 -14.45,-172.86 -23.26,-4.07 122.15,-72.21l197.32 0.47 210.4 420.45c113.85,124.15 47.38,-150.07 119.72,210.39 18.39,91.57 1.03,258.45 -1.65,358.62l-16.42 36.62 101.7 50.31 60.78 -550.96 -108.65 -92.16c26.71,-875.56 487.65,-1258.93 536.23,-1827.88 37.43,-796.03 54.3,-1275.15 291.52,-1998.16 173.17,-527.72 395.16,-1245.59 411.4,-1839.17 -165.04,-93.14 -64.98,-48.47 -132.97,-142.88 -143.54,-171.41 -1060.86,-1339.34 -1118.53,-1549.61 -172.53,-94.08 -137.04,-19.48 -237.27,-218.56 -159.21,48.47 -161.76,-133.5 -98.32,161.12z"/>
   <path class="fil54" d="M11126.89 7042.9c352.18,119.68 368.38,400.52 455.16,739.53 119.61,-157.96 243.25,-716.46 325.31,-930.86 206.79,-540.26 122.78,-602.64 69,-1184.24 -86.41,-934.34 -17.41,-758.37 -265.3,-1578.72l-182.16 -441.97c-45.34,1271 155.17,1664.09 -539.02,3227.68 130.55,171.01 -129.25,-8.83 137.01,168.58z"/>
   <path class="fil54" d="M13639.7 10244.4c-137.14,141.6 -1494.33,940.93 -1648.53,968.67 -137.73,-15.83 -114.88,-51.96 -98.65,76.87l67.35 137.23 30.03 -3.41 217.41 -86.65 101.82 -65.94 361.72 -125.39c128.84,79.05 147.85,113.38 336.64,126.2 203.6,-185.74 123.34,-127.89 267.34,-374.41l215.24 -43.45c57.42,-83.4 -87.73,-71.82 192.6,-100.06l156.59 8.42c263.56,-53.04 183.02,-35.29 308.4,-208.81l24.58 -316.57 -95.53 -80.71 -197.22 13.96 -239.79 74.05z"/>
   <path class="fil55" d="M7664.6 8078.24l310.11 921.93 58.18 192.12c2.9,11.8 11.22,32.14 13.26,43.9l105.66 232.01 224.32 561.69c49.94,51.94 40.2,26.28 92.9,110.32 20.06,31.98 69.15,132.1 89,174.4 72.34,154.09 122.02,272.45 171.71,395.77l89.86 174.75c508.96,301.43 149.15,461.72 444.6,725.56l21.76 -195.11 6.72 45.88c189.46,36.73 -64.25,-43.72 104.11,22.13 167.05,65.35 78.38,31.55 146.61,70.45 203.48,131.54 202.19,361.42 272.79,611l188.62 351.67c164.82,197.92 195.11,185.35 323.46,323.52l-286.8 -117c-85.35,-61.82 -63.85,-57.51 -118.71,-115.38l-8.67 34.82c-148.55,-1.7 -121.36,-44.38 -121.36,85.31 209.8,30.09 138.66,27.49 355.07,153.12 140.11,81.33 246.14,115.24 338.64,219.17l254.88 60.98 58.31 -57.13c-114.32,-123.38 -252.52,-281.1 -389.77,-418.24 -178.12,-177.98 -323.37,-187.11 -437.63,-429.4 -132.3,-280.51 -347.41,-1049.35 -344.42,-1372.31 -273.64,-343.59 -217.48,-686.2 -230.25,-1145.23l-53.2 -16.27 -60.78 550.96 38.51 68.08 137.37 605.69 -20.03 160.09c149.14,137.54 114.43,114.77 157.78,349.86 -329.87,-177.44 -304.53,-223.81 -487.21,-478.91 -124.97,-174.51 -315.61,-423.01 -363.13,-631.08 -101.51,-158.16 -78.06,-192.23 -107.25,-420.46l32.89 -730.13c-145.41,68.14 -136.6,-100.65 -122.15,72.21 -128.9,-311.17 -328.34,-608.44 -480.29,-924.38 -314.8,-654.55 -244.96,-977.83 -502.74,-938.38l97.27 672.02z"/>
   <path class="fil56" d="M7175.95 13471.97c-7.1,243.76 16.25,113.07 -69.94,121.03 -316.33,506.45 -1107.55,1274.28 -1026.13,2165.47l80.43 18.52 -21.92 217.75c326.89,-728.87 5.66,-1120.38 1102.52,-2185 65.79,-63.86 37.02,-29.04 99.57,-95.71 96.99,-103.4 49.71,-44.84 52.91,-82.8 31.94,113.25 -243.44,361.81 -446.77,688.69 -86.49,139.03 -143.77,260.75 -228.97,436.07 -322.82,664.2 -115.19,431.62 -59.82,508.73 218.02,-80.25 65.2,112.28 231.27,-238.94 -108.94,-101.62 -83.55,148.86 -92.56,-136.15 26.35,-76.07 672.93,-888.06 816.89,-939.69 156.22,-79.8 259.07,-164.43 433.77,-237.49l-133.95 -124.61c-48.95,5.67 -192.53,28.49 -245.31,15.47 -209.26,-51.59 -7.12,43.2 -120.77,-107.24l9.67 -49.27c-268.91,-33.34 -123.53,-41.52 -380.89,25.17z"/>
   <path class="fil57" d="M14392.01 13381.35l-114.94 -116.53c-195.97,-78.18 -142.13,-74.43 -334.29,-127.16 -164.77,8.82 -132.9,-39.28 -132.9,107.25 202.4,83.66 306.5,159.03 455.12,271.2 164.7,124.29 267.78,181.55 413.44,309.74l62.19 -56.27c303.1,-264.94 1538.42,228.98 1854.74,390.34 101.79,-3.34 76.95,23.3 76.95,-77.5 -907.76,-446.93 -974.69,-431.65 -2146.91,-512.7 147.32,-203.01 335.94,-227.92 692.63,-397.83 246.72,-117.52 536.39,-229 848.98,-182.54 386.56,57.44 1234.73,453.13 1364.34,736.11 162.41,70.69 179.65,94.37 341.08,182.73l30.68 -67.64c-107.73,-185.21 -116.56,-165.05 -235.31,-253.83 -145.23,-99.42 -150.21,-70.02 -245.37,-235.84 -488.12,-162.25 -930.21,-541.91 -1559.9,-426.2 -166.36,30.56 -593.43,131.45 -777.92,201.95 -247.92,94.74 -390.34,263.42 -592.61,254.72z"/>
   <path class="fil58" d="M12039.24 13039.96l99.91 -150.84 -99.78 -234.06 150.51 -81.66 -725.98 12.31 241.38 28.12 -168.24 298.98 -66.83 -257.29c-249.64,93.16 -218.05,67.51 -277.9,385.56 237.22,89.39 645.63,221.57 846.93,-1.12z"/>
   <path class="fil59" d="M8746.87 10347.36c47.52,208.07 238.16,456.57 363.13,631.08 182.68,255.1 157.34,301.47 487.21,478.91 -43.35,-235.09 -8.64,-212.32 -157.78,-349.86 -195.06,-105.49 -298.55,-254.54 -374.84,-452.85 -23.75,-43.39 -41.92,-55.62 -69.84,-161.77 -53.63,-203.74 2.9,39.59 -13.48,-188.48l-126.7 -131.94c-110.14,114.11 -90.16,-143.05 -107.7,174.91z"/>
   <path class="fil60" d="M11740.76 11077.73c-8.82,227.97 -24.29,60.96 -70.05,124.08 -212.21,-315.21 -0.6,-342.55 0,-343.56 105.02,171.32 87.68,-236.1 70.05,219.48zm-264.92 -5.74l9.21 188.78c375.49,131.54 170.53,27.06 202.82,172.68 199.51,-244.69 16.14,-138.89 310,-343.89l-187.81 -67.24c-11.51,-416.17 -27.93,-91.6 111.23,-218.41l7.58 -350.09c-198.44,233.68 42.28,-51.79 -90.98,184.97 -110.43,196.14 16.65,78.07 -167.18,171.06 -13.28,-19.76 -29.18,-42.28 -37.26,-60.94l-63.44 -185.58c-70.5,-195.79 66.08,-12.09 -108.85,-197.48 88.8,386.36 -21.59,384.86 14.68,706.14z"/>
   <path class="fil61" d="M13624.99 10955.1l-257.42 393.4 -892.57 1.36c-74.63,60.58 10.9,56.86 -136.77,63.37 -268.34,11.81 -68.27,25.3 -130.92,-76.12l-217.41 86.65c477.21,71.26 868.43,-0.37 1377.52,92.63 130.28,-204.45 303.64,-523.24 471.84,-753.91l-156.59 -8.42c50.43,361.26 31.94,105.13 -57.68,201.04z"/>
   <path class="fil62" d="M13152.64 11734.02l237.62 2.95 -61.44 -195 -895.48 12.29c-431.8,68.65 -141.64,20.82 -273.05,137.1 205.09,89.51 -59.85,75.57 443.58,-0.92 285.5,-43.37 287.26,-46.18 548.77,43.58z"/>
   <polygon class="fil63" points="11216.59,12476.84 11336.39,12551.77 11463.9,12585.71 12189.88,12573.4 12223.05,12486.58 11469.55,12425.1 11176.28,12404.52 "/>
   <path class="fil64" d="M12189.88 12573.4l-150.51 81.66 99.78 234.06 -99.91 150.84 80.63 7.4c205.66,-132.44 181.28,-356.62 213.74,-616.31 -121.15,-12.13 -94.93,-45.28 -110.56,55.53l-33.17 86.82z"/>
   <path class="fil65" d="M6438.48 13163.33c49.83,81.67 2.22,87.97 68.52,130.66l463.38 -19.65 -73.98 -106.57c-6.36,-10.92 -14.07,-23.03 -18.42,-48.44 -3.87,-22.64 -5.59,-30.25 -7.98,-45.44l-67.49 -51.94c-39.76,35.85 -61.3,14.09 -124.7,137.67l-239.33 3.71z"/>
   <path class="fil66" d="M9922.76 12607.85c54.86,57.87 33.36,53.56 118.71,115.38l286.8 117c-128.35,-138.17 -158.64,-125.6 -323.46,-323.52l-82.05 91.14z"/>
   <polygon class="fil67" points="11054.63,11206.98 11254.56,11264.33 11214.84,11205.58 "/>
  </g>
 </g>
</svg>
