<?xml version="1.0" encoding="UTF-8"?>
<!DOCTYPE svg PUBLIC "-//W3C//DTD SVG 1.1//EN" "http://www.w3.org/Graphics/SVG/1.1/DTD/svg11.dtd">
<!-- Creator: CorelDRAW 2017 -->
<svg xmlns="http://www.w3.org/2000/svg" xml:space="preserve" width="180.622mm" height="180.622mm" version="1.1" style="shape-rendering:geometricPrecision; text-rendering:geometricPrecision; image-rendering:optimizeQuality; fill-rule:evenodd; clip-rule:evenodd"
viewBox="0 0 18062.2 18062.2"
 xmlns:xlink="http://www.w3.org/1999/xlink">
 <defs>
  <style type="text/css">
   <![CDATA[
    .str0 {stroke:black;stroke-width:20;stroke-miterlimit:22.9256}
    .str1 {stroke:#373435;stroke-width:7.62;stroke-miterlimit:22.9256}
    .fil0 {fill:none}
    .fil8 {fill:#373435}
    .fil2 {fill:black}
    .fil31 {fill:black}
    .fil37 {fill:#050101}
    .fil30 {fill:#05498A}
    .fil27 {fill:#0868B2}
    .fil15 {fill:#133352}
    .fil32 {fill:#31290F}
    .fil7 {fill:#483737}
    .fil6 {fill:#645C1F}
    .fil26 {fill:#6C518F}
    .fil11 {fill:#6C5350}
    .fil9 {fill:#6CBF44}
    .fil10 {fill:#6E2D14}
    .fil41 {fill:#6F332E}
    .fil12 {fill:#70995B}
    .fil39 {fill:#87FBD4}
    .fil13 {fill:#906D32}
    .fil28 {fill:#92F262}
    .fil23 {fill:#92F262}
    .fil19 {fill:#93ABA6}
    .fil18 {fill:#A21C5A}
    .fil33 {fill:#A8898B}
    .fil38 {fill:#AAE7EE}
    .fil5 {fill:#AED89C}
    .fil16 {fill:#AF8D51}
    .fil21 {fill:#B3AD6E}
    .fil34 {fill:#BABCCB}
    .fil14 {fill:#D4CF8C}
    .fil29 {fill:#D6E9E7}
    .fil24 {fill:#D81690}
    .fil25 {fill:#E88577}
    .fil17 {fill:#F2AF97}
    .fil22 {fill:#F2AF97}
    .fil36 {fill:#F7D6B6}
    .fil20 {fill:#F8FCC8}
    .fil40 {fill:#FEFEF9}
    .fil35 {fill:#FEFEFA}
    .fil1 {fill:#FCF462;fill-opacity:0.501961}
    .fil3 {fill:#FEFEFE;fill-rule:nonzero;fill-opacity:0.501961}
    .fil4 {fill:#6C518F;fill-rule:nonzero;fill-opacity:0.501961}
   ]]>
  </style>
 </defs>
 <g id="Capa_x0020_1">
  <metadata id="CorelCorpID_0Corel-Layer"/>
  <rect class="fil0" width="18062.2" height="18062.2"/>
  <path class="fil1" d="M6845.71 2466.36c3528.58,0 6389.05,2860.47 6389.05,6389.04 0,3528.58 -2860.47,6389.05 -6389.05,6389.05 -3528.58,0 -6389.04,-2860.47 -6389.04,-6389.05 0,-3528.57 2860.46,-6389.04 6389.04,-6389.04zm-1705.1 8354.33c-70.75,-1106.59 1222.33,-1058.04 1251.8,430.06 -354.53,588.48 -1438.41,238.05 -1251.8,-430.06z"/>
  <ellipse class="fil2 str0" cx="12339.1" cy="13031.21" rx="511.08" ry="245.03"/>
  <g>
   <path class="fil3" d="M2449.01 10242.39l820.34 0 0 438.24 -820.34 0 -135.67 -395.99 135.67 -42.25zm0 438.24c-126.93,0 -229.84,-98.11 -229.84,-219.12 0,-121.01 102.91,-219.12 229.84,-219.12l0 438.24zm122.71 -695.55l415.4 187.68 -0.19 0.37 -8.86 17.41 -9.09 17.23 -9.37 17.11 -9.59 16.9 -9.82 16.72 -10.1 16.6 -10.35 16.42 -10.58 16.22 -10.79 15.99 -11.05 15.85 -11.33 15.7 -11.55 15.49 -11.82 15.33 -12.03 15.09 -12.26 14.91 -12.52 14.72 -12.75 14.52 -12.99 14.32 -13.21 14.12 -13.45 13.92 -13.65 13.68 -13.94 13.55 -14.18 13.34 -14.33 13.06 -14.54 12.85 -14.81 12.68 -15.02 12.46 -15.27 12.27 -15.47 12.03 -15.58 11.76 -15.86 11.6 -16.09 11.4 -271.34 -353.74 10.45 -7.4 10.28 -7.52 10.18 -7.68 9.93 -7.73 9.73 -7.83 9.6 -7.96 9.43 -8.08 9.32 -8.23 9.15 -8.34 8.94 -8.4 8.78 -8.53 8.69 -8.72 8.51 -8.8 8.37 -8.94 8.23 -9.08 8.07 -9.2 7.94 -9.34 7.8 -9.47 7.67 -9.63 7.5 -9.73 7.39 -9.91 7.23 -10.02 7.13 -10.23 7.03 -10.41 6.86 -10.52 6.71 -10.64 6.58 -10.82 6.48 -11.02 6.35 -11.2 6.19 -11.31 6.09 -11.55 5.96 -11.69 -0.19 0.37zm94.14 -429.34l459.68 0 0 0 -0.13 20.74 -0.4 20.66 -0.65 20.51 -0.93 20.44 -1.18 20.41 -1.46 20.34 -1.72 20.19 -1.99 20.16 -2.26 20.02 -2.53 19.99 -2.82 19.9 -3.06 19.7 -3.34 19.66 -3.62 19.65 -3.91 19.53 -4.17 19.38 -4.44 19.3 -4.73 19.23 -5 19.09 -5.26 18.94 -5.55 18.93 -5.85 18.83 -6.09 18.63 -6.37 18.55 -6.65 18.42 -6.94 18.35 -7.23 18.29 -7.46 18.01 -7.75 17.98 -8.07 17.92 -8.29 17.67 -8.57 17.6 -415.4 -187.68 5.69 -11.66 5.53 -11.81 5.31 -11.78 5.15 -11.96 5.02 -12.13 4.79 -12.07 4.62 -12.25 4.47 -12.4 4.29 -12.47 4.13 -12.63 3.93 -12.65 3.75 -12.77 3.6 -12.98 3.42 -13.07 3.23 -13.13 3.06 -13.28 2.89 -13.44 2.69 -13.49 2.52 -13.61 2.34 -13.82 2.18 -14 1.98 -14.02 1.79 -14.15 1.62 -14.34 1.43 -14.42 1.24 -14.61 1.06 -14.7 0.86 -14.83 0.67 -15.04 0.49 -15.17 0.3 -15.26 0.09 -15.4 0 0zm-33.65 -178.7l390.84 -230.7 0.32 0.51 7.14 11.37 6.87 11.59 6.46 11.56 6.18 11.67 5.93 11.9 5.61 11.95 5.3 11.99 5.08 12.2 4.74 12.13 4.55 12.36 4.27 12.45 3.98 12.39 3.77 12.57 3.52 12.57 3.3 12.73 3.08 12.8 2.83 12.78 2.63 12.84 2.44 13.03 2.23 13.1 2.03 13.19 1.81 13.13 1.64 13.24 1.47 13.5 1.25 13.38 1.1 13.47 0.92 13.65 0.74 13.74 0.57 13.81 0.4 13.81 0.25 13.9 0.08 14.09 -459.68 0 -0.06 -9.21 -0.15 -9.08 -0.26 -8.85 -0.35 -8.55 -0.46 -8.32 -0.54 -8.09 -0.64 -7.95 -0.73 -7.72 -0.79 -7.3 -0.9 -7.24 -0.97 -7.03 -1.03 -6.67 -1.09 -6.42 -1.16 -6.19 -1.23 -6.04 -1.29 -5.8 -1.3 -5.44 -1.36 -5.21 -1.4 -5.03 -1.41 -4.71 -1.48 -4.57 -1.43 -4.19 -1.45 -3.94 -1.5 -3.85 -1.44 -3.46 -1.48 -3.33 -1.43 -3.05 -1.39 -2.78 -1.4 -2.67 -1.38 -2.46 -1.23 -2.09 -1.24 -1.97 0.32 0.51zm8.24 -2.35l0 -438.24 0 0 14.11 0.2 14.36 0.61 14.22 1.04 14.26 1.46 14.3 1.91 14.28 2.36 14.42 2.86 14.4 3.35 14.12 3.78 13.95 4.23 13.88 4.72 13.92 5.26 13.66 5.72 13.29 6.09 13.18 6.6 12.77 6.95 12.49 7.34 12.41 7.87 11.92 8.15 11.5 8.42 11.35 8.9 10.79 9.04 10.44 9.3 10.23 9.72 9.7 9.78 9.42 10.08 9.12 10.36 8.63 10.37 8.36 10.62 8.08 10.87 7.69 10.92 7.35 11.01 -390.84 230.7 -1.39 -2.09 -1.23 -1.76 -1.04 -1.39 -0.96 -1.22 -0.87 -1.05 -0.56 -0.64 -0.48 -0.5 -0.36 -0.38 -0.05 -0.04 -0.02 -0.02 0.15 0.12 0.51 0.4 0.48 0.36 0.7 0.47 0.99 0.63 0.89 0.52 0.97 0.53 1.2 0.6 1.11 0.51 1.3 0.54 1.36 0.52 1.12 0.38 1.01 0.31 1 0.26 1.08 0.25 0.9 0.18 0.58 0.1 0.4 0.05 0.16 0.02 -0.04 0 -0.12 -0.01 -0.55 0 0 0zm-45.97 203.65l-438.42 -131.74 -0.34 1.05 8.08 -24.39 8.25 -23.89 8.4 -23.27 8.55 -22.74 8.76 -22.26 8.92 -21.62 9.13 -21.18 9.4 -20.74 9.64 -20.22 9.88 -19.68 10.23 -19.33 10.58 -18.88 10.9 -18.37 11.4 -18.09 11.88 -17.67 12.39 -17.24 13 -16.88 13.71 -16.51 14.51 -16.16 15.36 -15.69 16.32 -15.25 17.4 -14.72 18.57 -14.12 19.86 -13.4 21.12 -12.48 22.39 -11.39 23.78 -10.18 25.02 -8.69 25.82 -6.92 26.81 -5.12 27.32 -3.09 27.35 -1.03 0 438.24 8.79 -0.33 8.9 -1.01 8.51 -1.62 7.64 -2.04 6.98 -2.43 5.86 -2.5 4.59 -2.33 3.44 -2.02 2.32 -1.56 1.17 -0.88 0.1 -0.08 -0.84 0.79 -1.68 1.73 -2.39 2.66 -3.07 3.71 -3.64 4.72 -4.13 5.76 -4.52 6.73 -4.86 7.71 -5.22 8.81 -5.44 9.7 -5.63 10.65 -5.86 11.68 -5.98 12.54 -6.08 13.42 -6.21 14.38 -6.3 15.32 -6.34 16.08 -6.39 17 -6.44 17.85 -6.43 18.63 -6.48 19.53 -0.34 1.05zm-51.31 151.57l-435.06 -141.5 -0.11 0.3 1.06 -2.97 1.1 -3.14 1.23 -3.48 1.16 -3.31 1.27 -3.64 1.22 -3.48 1.2 -3.49 1.27 -3.66 1.28 -3.74 1.44 -4.19 1.35 -3.92 1.36 -3.99 1.36 -4.01 1.48 -4.37 1.51 -4.45 1.44 -4.26 1.55 -4.6 1.51 -4.49 1.58 -4.7 1.61 -4.78 1.56 -4.68 1.67 -5.01 1.7 -5.08 1.65 -4.93 1.72 -5.18 1.75 -5.27 1.79 -5.4 1.82 -5.47 1.75 -5.29 1.85 -5.59 1.94 -5.88 1.88 -5.66 438.42 131.74 -1.96 5.92 -1.84 5.54 -1.87 5.69 -1.93 5.81 -1.82 5.47 -1.79 5.4 -1.79 5.37 -1.76 5.3 -1.79 5.39 -1.7 5.08 -1.67 5.01 -1.74 5.18 -1.65 4.92 -1.62 4.84 -1.65 4.89 -1.57 4.64 -1.62 4.82 -1.53 4.47 -1.48 4.41 -1.58 4.61 -1.52 4.47 -1.51 4.4 -1.36 3.97 -1.46 4.26 -1.45 4.2 -1.46 4.21 -1.42 4.06 -1.31 3.76 -1.38 3.93 -1.27 3.62 -1.34 3.8 -1.36 3.83 -0.11 0.3zm-461.59 800.87l-315.92 -318.34 0.44 -0.39 8.97 -8.28 9.2 -8.96 9.44 -9.69 9.67 -10.42 9.86 -11.16 10.04 -11.88 10.21 -12.65 10.35 -13.36 10.47 -14.1 10.59 -14.83 10.66 -15.55 10.81 -16.37 10.88 -17.07 10.9 -17.74 10.99 -18.53 11.04 -19.25 11.07 -19.94 11.11 -20.7 11.13 -21.39 11.13 -22.08 11.17 -22.83 11.17 -23.52 11.18 -24.24 11.17 -24.91 11.15 -25.62 11.16 -26.32 11.14 -27 11.11 -27.67 11.09 -28.36 11.08 -29.07 11.05 -29.74 11.02 -30.41 435.06 141.5 -12.18 33.61 -12.27 33.02 -12.36 32.43 -12.47 31.9 -12.59 31.33 -12.68 30.74 -12.78 30.16 -12.91 29.62 -13.03 29.07 -13.14 28.5 -13.27 27.94 -13.39 27.39 -13.55 26.86 -13.69 26.31 -13.83 25.74 -13.99 25.24 -14.16 24.67 -14.31 24.13 -14.54 23.66 -14.7 23.07 -14.87 22.51 -15.14 22.07 -15.35 21.51 -15.59 21 -15.85 20.46 -16.09 19.91 -16.4 19.42 -16.7 18.88 -17.01 18.34 -17.36 17.81 -17.74 17.28 -18.09 16.68 0.44 -0.39zm-735.11 255.3l0 -438.24 0 0 18.2 -0.15 17.84 -0.46 17.45 -0.77 17.03 -1.05 16.71 -1.35 16.4 -1.64 15.92 -1.9 15.62 -2.19 15.24 -2.44 14.85 -2.71 14.56 -2.98 14.2 -3.22 13.8 -3.45 13.52 -3.72 13.22 -3.95 12.86 -4.18 12.51 -4.39 12.29 -4.66 12.05 -4.9 11.69 -5.09 11.46 -5.33 11.17 -5.55 10.93 -5.79 10.76 -6.05 10.5 -6.27 10.3 -6.51 10.15 -6.8 9.92 -7.03 9.76 -7.3 9.6 -7.58 9.4 -7.83 9.28 -8.16 315.92 318.34 -18.12 15.92 -18.56 15.47 -18.94 14.96 -19.34 14.48 -19.74 13.97 -20.07 13.44 -20.48 12.97 -20.84 12.43 -21.14 11.89 -21.53 11.39 -21.85 10.85 -22.12 10.31 -22.47 9.79 -22.65 9.2 -22.95 8.7 -23.31 8.19 -23.52 7.64 -23.7 7.09 -23.96 6.58 -24.24 6.07 -24.4 5.54 -24.6 5.02 -24.85 4.53 -25 4.02 -25.2 3.53 -25.44 3.04 -25.5 2.54 -25.75 2.09 -25.99 1.61 -26.11 1.13 -26.28 0.68 -26.46 0.23 0 0zm-907.73 -378.98l342.12 -292.7 0.01 0.01 14.38 14.91 14.53 14.35 14.64 13.75 14.8 13.2 14.97 12.68 15.06 12.1 15.22 11.58 15.42 11.09 15.56 10.59 15.74 10.09 15.95 9.64 16.09 9.13 16.33 8.69 16.52 8.22 16.75 7.77 17.05 7.36 17.25 6.9 17.57 6.49 17.82 6.05 18.11 5.61 18.48 5.21 18.77 4.76 19.11 4.33 19.51 3.91 19.88 3.47 20.18 3.02 20.64 2.57 21.05 2.14 21.37 1.65 21.88 1.2 22.29 0.73 22.68 0.24 0 438.24 -33.1 -0.36 -32.87 -1.07 -32.64 -1.78 -32.53 -2.53 -32.21 -3.26 -31.98 -3.99 -31.82 -4.76 -31.5 -5.51 -31.23 -6.25 -31.01 -7.03 -30.71 -7.8 -30.38 -8.55 -30.11 -9.33 -29.78 -10.11 -29.41 -10.85 -29.09 -11.64 -28.67 -12.38 -28.35 -13.15 -27.94 -13.92 -27.51 -14.63 -27.11 -15.39 -26.63 -16.08 -26.22 -16.81 -25.78 -17.53 -25.3 -18.21 -24.86 -18.92 -24.4 -19.6 -23.85 -20.22 -23.42 -20.88 -22.94 -21.55 -22.43 -22.13 -21.96 -22.77 0.01 0.01zm-346.65 -935.86l459.68 0 0 0 0.24 26.14 0.73 25.7 1.2 25.24 1.69 24.82 2.14 24.41 2.62 23.93 3.07 23.54 3.52 23.13 3.98 22.71 4.4 22.25 4.85 21.86 5.29 21.48 5.72 21.09 6.14 20.66 6.56 20.3 7 19.94 7.4 19.55 7.84 19.24 8.22 18.85 8.67 18.52 9.1 18.25 9.49 17.88 9.91 17.55 10.36 17.31 10.81 17.04 11.2 16.71 11.67 16.45 12.13 16.23 12.58 15.96 13.03 15.69 13.52 15.47 14.01 15.26 -342.12 292.7 -21.45 -23.36 -20.82 -23.83 -20.17 -24.31 -19.5 -24.74 -18.81 -25.15 -18.15 -25.61 -17.48 -26.05 -16.75 -26.42 -16.08 -26.83 -15.39 -27.27 -14.69 -27.66 -13.94 -27.97 -13.27 -28.38 -12.56 -28.75 -11.84 -29.06 -11.14 -29.43 -10.42 -29.74 -9.74 -30.08 -9.02 -30.4 -8.32 -30.67 -7.63 -30.98 -6.95 -31.3 -6.26 -31.59 -5.56 -31.83 -4.9 -32.11 -4.23 -32.38 -3.56 -32.69 -2.9 -32.93 -2.25 -33.18 -1.6 -33.48 -0.95 -33.72 -0.32 -33.96 0 0zm84.21 -603.67l441.58 121.76 -0.25 0.81 -3.98 13.21 -3.89 13.39 -3.73 13.37 -3.61 13.54 -3.52 13.71 -3.38 13.79 -3.26 13.89 -3.13 14 -3.01 14.18 -2.9 14.24 -2.75 14.36 -2.65 14.54 -2.52 14.64 -2.4 14.71 -2.25 14.82 -2.15 15 -2.01 15.06 -1.88 15.18 -1.75 15.36 -1.64 15.47 -1.5 15.59 -1.38 15.64 -1.24 15.83 -1.12 15.93 -0.98 16.01 -0.86 16.18 -0.72 16.29 -0.6 16.36 -0.45 16.52 -0.34 16.7 -0.2 16.71 -0.06 16.88 -459.68 0 0.08 -20.16 0.24 -20.13 0.4 -19.94 0.55 -19.92 0.72 -19.88 0.88 -19.75 1.04 -19.66 1.2 -19.65 1.38 -19.51 1.52 -19.41 1.7 -19.4 1.86 -19.25 2.02 -19.17 2.19 -19.08 2.36 -19.06 2.53 -18.98 2.69 -18.84 2.87 -18.8 3.04 -18.73 3.2 -18.58 3.37 -18.48 3.55 -18.46 3.72 -18.38 3.89 -18.24 4.07 -18.2 4.24 -18.11 4.42 -18.01 4.58 -17.89 4.77 -17.84 4.97 -17.81 5.11 -17.59 5.3 -17.57 -0.25 0.81zm443.42 -588.15l0 438.24 182.66 -86.12 -7.49 9.46 -7.32 9.5 -7.24 9.64 -7.14 9.76 -6.99 9.81 -6.95 10 -6.77 10.02 -6.7 10.19 -6.63 10.33 -6.43 10.33 -6.35 10.48 -6.29 10.67 -6.19 10.79 -6.02 10.8 -5.92 10.94 -5.81 11.05 -5.74 11.24 -5.61 11.32 -5.49 11.41 -5.41 11.59 -5.27 11.67 -5.16 11.79 -5.09 11.97 -4.93 12.01 -4.84 12.18 -4.74 12.33 -4.61 12.43 -4.51 12.57 -4.37 12.63 -4.27 12.83 -4.18 13 -4.04 13.05 -441.58 -121.76 5.42 -17.51 5.56 -17.3 5.75 -17.25 5.95 -17.21 6.11 -17.03 6.29 -16.95 6.46 -16.79 6.62 -16.7 6.85 -16.65 6.97 -16.45 7.18 -16.39 7.37 -16.27 7.51 -16.11 7.71 -16.05 7.89 -15.9 8.04 -15.76 8.25 -15.69 8.44 -15.58 8.62 -15.46 8.75 -15.25 8.91 -15.13 9.15 -15.1 9.35 -14.99 9.45 -14.75 9.64 -14.67 9.87 -14.58 9.97 -14.38 10.21 -14.33 10.36 -14.14 10.52 -14.02 10.74 -13.92 10.85 -13.72 182.66 -86.12zm-182.66 86.12c77.04,-96.17 221.28,-114.59 322.16,-41.14 100.88,73.45 120.2,210.97 43.16,307.14l-365.32 -266zm1054.76 352.12l-872.1 0 0 -438.24 872.1 0 149.11 385.87 -149.11 52.37zm0 -438.24c126.93,0 229.84,98.11 229.84,219.12 0,121.01 -102.91,219.12 -229.84,219.12l0 -438.24zm-91.34 696.19l-419.98 -178.14 -0.2 0.41 7.98 -16.89 8.23 -16.8 8.4 -16.59 8.63 -16.48 8.89 -16.42 9.1 -16.22 9.28 -16.03 9.51 -15.92 9.74 -15.79 9.96 -15.65 10.2 -15.52 10.4 -15.35 10.61 -15.17 10.82 -15.02 11.04 -14.88 11.25 -14.71 11.49 -14.58 11.69 -14.4 11.85 -14.18 12.16 -14.13 12.34 -13.92 12.48 -13.69 12.72 -13.55 12.92 -13.38 13.16 -13.24 13.37 -13.07 13.52 -12.84 13.73 -12.68 13.95 -12.53 14.16 -12.35 14.3 -12.13 14.53 -11.98 298.22 333.5 -9.63 7.94 -9.52 8.07 -9.32 8.13 -9.17 8.23 -9.07 8.38 -8.92 8.48 -8.75 8.55 -8.6 8.66 -8.5 8.8 -8.36 8.91 -8.26 9.05 -8.06 9.08 -7.88 9.17 -7.85 9.4 -7.69 9.46 -7.51 9.54 -7.43 9.71 -7.28 9.8 -7.16 9.94 -7.03 10.07 -6.9 10.17 -6.74 10.26 -6.64 10.43 -6.5 10.53 -6.39 10.7 -6.28 10.85 -6.12 10.94 -5.97 11 -5.87 11.22 -5.78 11.39 -5.59 11.44 -5.48 11.61 -0.2 0.41zm-87.21 402.35l-459.68 0 0 0 0.12 -19.01 0.37 -18.97 0.6 -18.8 0.85 -18.87 1.1 -18.83 1.34 -18.79 1.59 -18.73 1.83 -18.62 2.09 -18.64 2.34 -18.58 2.57 -18.46 2.83 -18.46 3.1 -18.49 3.32 -18.28 3.58 -18.3 3.84 -18.25 4.08 -18.17 4.34 -18.1 4.59 -18.04 4.84 -18 5.09 -17.9 5.34 -17.84 5.59 -17.75 5.86 -17.76 6.09 -17.62 6.34 -17.54 6.6 -17.49 6.83 -17.36 7.1 -17.37 7.34 -17.23 7.57 -17.15 7.84 -17.09 419.98 178.14 -5.38 11.73 -5.21 11.81 -5.04 11.83 -4.84 11.83 -4.69 11.94 -4.5 11.93 -4.34 12.02 -4.17 12.04 -3.98 12.04 -3.81 12.15 -3.66 12.2 -3.47 12.24 -3.32 12.28 -3.13 12.36 -2.98 12.42 -2.8 12.47 -2.64 12.51 -2.46 12.6 -2.32 12.72 -2.12 12.65 -1.95 12.8 -1.81 12.92 -1.62 12.92 -1.45 13 -1.29 13.14 -1.13 13.15 -0.94 13.21 -0.78 13.31 -0.59 13.37 -0.44 13.6 -0.27 13.53 -0.08 13.63 0 0zm37.13 184.2l-393.56 226.42 -0.77 -1.21 -6.9 -11.36 -6.6 -11.43 -6.42 -11.71 -6.13 -11.83 -5.76 -11.75 -5.57 -11.96 -5.31 -12.1 -5.04 -12.15 -4.78 -12.23 -4.57 -12.4 -4.29 -12.44 -4.02 -12.38 -3.86 -12.68 -3.6 -12.73 -3.31 -12.56 -3.17 -12.86 -2.93 -12.97 -2.71 -12.92 -2.51 -13.08 -2.28 -13.08 -2.09 -13.13 -1.9 -13.29 -1.7 -13.37 -1.5 -13.34 -1.31 -13.41 -1.13 -13.49 -0.96 -13.65 -0.77 -13.72 -0.59 -13.62 -0.44 -13.88 -0.25 -13.96 -0.08 -13.93 459.68 0 0.06 8.99 0.15 8.7 0.26 8.5 0.37 8.48 0.45 8.08 0.56 7.89 0.65 7.77 0.75 7.57 0.82 7.36 0.9 7.05 0.98 6.85 1.07 6.75 1.14 6.5 1.19 6.22 1.27 6.1 1.31 5.77 1.37 5.58 1.49 5.62 1.46 5.17 1.5 4.94 1.6 4.94 1.59 4.6 1.61 4.38 1.66 4.25 1.68 4.05 1.67 3.8 1.71 3.68 1.78 3.61 1.67 3.23 1.68 3.07 1.76 3.05 1.74 2.86 -0.77 -1.21zm-15.98 6.98l0 438.24 0 0 -14.63 -0.24 -14.89 -0.72 -14.77 -1.23 -14.78 -1.73 -14.96 -2.28 -14.78 -2.79 -14.66 -3.31 -14.56 -3.83 -14.42 -4.36 -14.24 -4.87 -13.96 -5.35 -13.94 -5.91 -13.5 -6.33 -13 -6.65 -12.89 -7.17 -12.6 -7.6 -12.2 -7.95 -11.63 -8.15 -11.39 -8.53 -11.19 -8.97 -10.55 -9.03 -10.18 -9.25 -9.82 -9.47 -9.55 -9.75 -9.2 -9.94 -8.81 -10.04 -8.47 -10.21 -8.22 -10.41 -7.93 -10.58 -7.48 -10.49 -7.31 -10.74 -7.07 -10.92 393.56 -226.42 1.91 2.94 1.81 2.66 1.78 2.49 1.47 1.98 1.34 1.69 1.21 1.45 1.05 1.2 0.78 0.86 0.59 0.59 0.46 0.45 0.26 0.23 0.03 0.03 -0.47 -0.37 -0.49 -0.37 -0.61 -0.43 -1 -0.65 -1.26 -0.76 -1.39 -0.77 -1.34 -0.69 -1.7 -0.79 -1.96 -0.83 -1.84 -0.71 -1.96 -0.67 -1.98 -0.6 -1.96 -0.51 -1.9 -0.43 -1.86 -0.35 -1.86 -0.28 -1.54 -0.19 -1.35 -0.11 -1.31 -0.06 -0.89 -0.02 0 0zm53.69 -238.57l438.58 131.28 0.87 -2.72 -8.47 26.41 -8.57 25.73 -8.73 25.16 -8.87 24.53 -9.03 23.91 -9.2 23.32 -9.34 22.64 -9.56 22.14 -9.83 21.67 -10.02 21 -10.3 20.53 -10.62 20.03 -10.92 19.5 -11.35 19.1 -11.79 18.65 -12.31 18.25 -12.82 17.74 -13.5 17.4 -14.26 16.99 -15.11 16.58 -16.14 16.2 -17.14 15.61 -18.42 15.11 -19.8 14.43 -21.14 13.53 -22.77 12.56 -24.34 11.3 -25.64 9.68 -27.05 7.92 -28.15 5.85 -28.83 3.58 -29.12 1.2 0 -438.24 -10.56 0.44 -10.35 1.28 -9.77 2.03 -8.77 2.56 -7.44 2.8 -6.24 2.9 -4.75 2.6 -3.24 2.07 -1.98 1.43 -0.7 0.57 0.48 -0.45 1.4 -1.4 2.31 -2.56 3.08 -3.67 3.72 -4.8 4.32 -5.98 4.73 -7.01 5.13 -8.13 5.49 -9.24 5.8 -10.36 6.02 -11.35 6.22 -12.41 6.42 -13.46 6.49 -14.31 6.64 -15.4 6.78 -16.42 6.82 -17.28 6.87 -18.23 6.93 -19.13 6.95 -20.06 7.01 -21.01 7.01 -21.87 0.87 -2.72zm121.75 -352.11l431.88 150.08 0.4 -1.05 -2.95 7.87 -3.01 8.09 -3.04 8.23 -3.1 8.43 -3.14 8.6 -3.17 8.75 -3.22 8.92 -3.22 8.98 -3.29 9.24 -3.36 9.49 -3.4 9.61 -3.39 9.64 -3.45 9.91 -3.52 10.09 -3.56 10.28 -3.58 10.35 -3.6 10.51 -3.69 10.75 -3.69 10.83 -3.76 11.05 -3.79 11.19 -3.85 11.37 -3.88 11.53 -3.91 11.63 -3.96 11.83 -4 11.96 -4.04 12.15 -4.12 12.36 -4.1 12.36 -4.16 12.61 -4.25 12.85 -4.25 12.9 -438.58 -131.28 4.35 -13.18 4.27 -12.93 4.26 -12.89 4.26 -12.82 4.16 -12.52 4.14 -12.43 4.12 -12.32 4.06 -12.13 4.05 -12.05 4 -11.85 3.95 -11.71 3.93 -11.59 3.88 -11.41 3.87 -11.35 3.81 -11.11 3.8 -11.07 3.78 -10.91 3.7 -10.7 3.68 -10.57 3.65 -10.45 3.67 -10.44 3.58 -10.15 3.54 -9.97 3.53 -9.92 3.54 -9.88 3.48 -9.64 3.45 -9.51 3.42 -9.36 3.38 -9.23 3.38 -9.13 3.33 -8.95 3.33 -8.89 0.4 -1.05zm412.66 -580.81l281.56 346.42 0.02 -0.02 -9.22 6.97 -9.09 7.19 -9.06 7.51 -9.09 7.85 -8.9 8.02 -8.9 8.39 -8.93 8.77 -8.78 8.97 -8.72 9.3 -8.73 9.69 -8.68 10.01 -8.54 10.25 -8.53 10.67 -8.51 11.04 -8.41 11.34 -8.32 11.66 -8.25 12.04 -8.24 12.46 -8.1 12.72 -8.03 13.12 -7.99 13.53 -7.88 13.87 -7.82 14.28 -7.69 14.57 -7.59 14.94 -7.51 15.36 -7.43 15.76 -7.31 16.08 -7.18 16.46 -7.11 16.88 -6.95 17.17 -6.87 17.62 -431.88 -150.08 8.85 -22.74 9.13 -22.53 9.33 -22.16 9.58 -21.92 9.83 -21.64 10.03 -21.3 10.31 -21.06 10.57 -20.82 10.83 -20.51 11.04 -20.16 11.32 -19.91 11.57 -19.61 11.85 -19.34 12.14 -19.08 12.36 -18.7 12.67 -18.46 12.96 -18.16 13.21 -17.84 13.47 -17.48 13.77 -17.21 14.12 -16.95 14.32 -16.53 14.61 -16.21 14.96 -15.94 15.24 -15.59 15.45 -15.15 15.8 -14.89 16.16 -14.58 16.31 -14.09 16.66 -13.79 16.99 -13.43 17.2 -13.01 0.02 -0.02zm669.71 -203.4l0 438.24 0 0 -15.82 0.12 -15.54 0.38 -15.34 0.61 -14.99 0.85 -14.72 1.09 -14.53 1.32 -14.18 1.54 -13.92 1.77 -13.74 1.99 -13.48 2.22 -13.14 2.4 -12.9 2.63 -12.71 2.84 -12.44 3.03 -12.24 3.25 -12.02 3.45 -11.74 3.63 -11.57 3.84 -11.37 4.04 -11.1 4.2 -10.97 4.43 -10.8 4.63 -10.52 4.78 -10.44 5.03 -10.3 5.23 -10.05 5.39 -9.89 5.59 -9.83 5.85 -9.68 6.04 -9.51 6.25 -9.42 6.48 -9.25 6.68 -281.56 -346.42 17.55 -12.66 17.78 -12.24 18.09 -11.87 18.34 -11.46 18.57 -11.05 18.95 -10.71 19.17 -10.27 19.34 -9.83 19.6 -9.43 19.92 -9.06 20.06 -8.59 20.27 -8.19 20.56 -7.8 20.69 -7.34 20.89 -6.94 21.14 -6.53 21.24 -6.09 21.44 -5.69 21.64 -5.29 21.75 -4.86 21.98 -4.47 22.14 -4.06 22.22 -3.64 22.34 -3.25 22.56 -2.87 22.7 -2.46 22.77 -2.08 22.96 -1.69 23.09 -1.31 23.16 -0.93 23.34 -0.56 23.46 -0.18 0 0zm904.36 386.29l-348.12 286.18 -0.25 -0.27 -13.83 -14.96 -14 -14.38 -14.12 -13.8 -14.26 -13.2 -14.46 -12.69 -14.61 -12.16 -14.75 -11.6 -14.92 -11.09 -15.07 -10.57 -15.29 -10.09 -15.51 -9.63 -15.68 -9.14 -15.92 -8.69 -16.17 -8.25 -16.39 -7.79 -16.62 -7.34 -16.9 -6.91 -17.24 -6.49 -17.59 -6.08 -17.86 -5.65 -18.2 -5.21 -18.57 -4.79 -18.96 -4.37 -19.28 -3.92 -19.73 -3.49 -20.2 -3.06 -20.51 -2.6 -20.94 -2.13 -21.48 -1.69 -21.87 -1.22 -22.28 -0.73 -22.78 -0.24 0 -438.24 33.26 0.36 33.08 1.09 32.81 1.82 32.54 2.55 32.4 3.31 32.15 4.08 31.8 4.82 31.61 5.59 31.36 6.38 31.04 7.15 30.73 7.93 30.46 8.73 30.12 9.51 29.71 10.28 29.4 11.07 29.06 11.87 28.68 12.66 28.23 13.43 27.79 14.17 27.38 14.95 26.94 15.7 26.45 16.43 26.01 17.17 25.55 17.91 25.04 18.61 24.53 19.3 24.01 19.96 23.5 20.63 23.04 21.34 22.5 21.96 21.96 22.58 21.47 23.22 -0.25 -0.27zm335.14 959.65l-459.68 0 0 0 -0.24 -27.85 -0.72 -27.39 -1.19 -26.92 -1.67 -26.44 -2.12 -26 -2.58 -25.5 -3.03 -25.01 -3.49 -24.57 -3.94 -24.14 -4.35 -23.64 -4.79 -23.14 -5.23 -22.74 -5.65 -22.28 -6.06 -21.81 -6.49 -21.41 -6.89 -20.98 -7.3 -20.54 -7.7 -20.13 -8.09 -19.7 -8.5 -19.31 -8.9 -18.94 -9.29 -18.52 -9.68 -18.14 -10.11 -17.82 -10.51 -17.48 -10.88 -17.09 -11.29 -16.75 -11.75 -16.47 -12.16 -16.17 -12.55 -15.81 -12.98 -15.52 -13.45 -15.26 348.12 -286.18 20.97 23.78 20.34 24.3 19.67 24.79 18.96 25.21 18.29 25.67 17.65 26.17 16.96 26.61 16.23 27 15.55 27.42 14.88 27.88 14.17 28.28 13.46 28.62 12.78 29.03 12.09 29.42 11.38 29.75 10.7 30.12 10.01 30.46 9.33 30.79 8.66 31.17 7.97 31.46 7.31 31.78 6.65 32.14 5.99 32.42 5.32 32.7 4.69 33.03 4.05 33.37 3.4 33.64 2.78 33.9 2.15 34.24 1.53 34.54 0.92 34.83 0.3 35.13 0 0zm-96.94 584.51l-434.56 -142.92 0.11 -0.29 4.31 -12.07 4.19 -12.24 4.05 -12.25 3.91 -12.36 3.8 -12.54 3.67 -12.62 3.53 -12.69 3.4 -12.8 3.27 -12.9 3.14 -13.08 3.03 -13.2 2.85 -13.17 2.73 -13.34 2.62 -13.55 2.48 -13.65 2.34 -13.68 2.19 -13.76 2.07 -14 1.93 -14.04 1.78 -14.16 1.66 -14.29 1.5 -14.39 1.37 -14.52 1.23 -14.64 1.09 -14.76 0.94 -14.87 0.8 -14.99 0.65 -15.07 0.52 -15.3 0.37 -15.35 0.22 -15.42 0.07 -15.6 459.68 0 -0.09 19.54 -0.28 19.52 -0.47 19.37 -0.64 19.24 -0.83 19.29 -1.04 19.15 -1.2 19.07 -1.41 19 -1.57 18.9 -1.79 18.84 -1.96 18.75 -2.16 18.67 -2.34 18.6 -2.55 18.52 -2.71 18.36 -2.93 18.42 -3.12 18.28 -3.3 18.11 -3.48 18.03 -3.69 18.04 -3.91 17.99 -4.07 17.78 -4.26 17.7 -4.47 17.68 -4.66 17.58 -4.87 17.51 -5.05 17.36 -5.24 17.24 -5.45 17.24 -5.65 17.13 -5.83 16.96 -6.03 16.93 0.11 -0.29zm-465.44 555.93l0 -438.24 -171.62 73.36 8.28 -8.97 8.19 -9.11 8.06 -9.18 7.88 -9.24 7.72 -9.27 7.64 -9.43 7.52 -9.52 7.34 -9.56 7.23 -9.65 7.09 -9.75 7.03 -9.91 6.87 -9.95 6.68 -9.96 6.62 -10.16 6.51 -10.25 6.3 -10.25 6.25 -10.45 6.15 -10.58 5.98 -10.59 5.88 -10.75 5.77 -10.85 5.62 -10.91 5.54 -11.09 5.39 -11.14 5.29 -11.29 5.17 -11.39 5.02 -11.46 4.94 -11.64 4.82 -11.76 4.7 -11.86 4.57 -11.96 4.45 -12.09 434.56 142.92 -6.21 16.83 -6.39 16.72 -6.58 16.62 -6.76 16.48 -6.94 16.38 -7.18 16.36 -7.35 16.19 -7.53 16.09 -7.75 16 -7.9 15.83 -8.14 15.81 -8.31 15.63 -8.5 15.53 -8.72 15.45 -8.87 15.26 -9.07 15.17 -9.34 15.15 -9.47 14.93 -9.64 14.8 -9.92 14.78 -10.05 14.57 -10.21 14.41 -10.45 14.35 -10.65 14.23 -10.84 14.1 -11 13.92 -11.18 13.81 -11.44 13.75 -11.6 13.56 -11.74 13.4 -11.93 13.27 -12.16 13.19 -171.62 73.36zm171.62 -73.36c-84.43,90.35 -229.73,98.35 -324.51,17.85 -94.78,-80.5 -103.16,-219.02 -18.73,-309.37l343.24 291.52zm-3059.48 -2564.92l3160.84 0 0 438.24 -3160.84 0 -229.84 -219.12 229.84 -219.12zm0 438.24c-126.93,0 -229.84,-98.11 -229.84,-219.12 0,-121.01 102.91,-219.12 229.84,-219.12l0 438.24zm229.84 -997.81l0 778.69 -459.68 0 0 -778.69 229.84 -219.12 229.84 219.12zm-459.68 0c0,-121.01 102.91,-219.12 229.84,-219.12 126.93,0 229.84,98.11 229.84,219.12l-459.68 0zm2603.66 219.12l-2373.82 0 0 -438.24 2373.82 0 229.84 219.12 -229.84 219.12zm0 -438.24c126.93,0 229.84,98.11 229.84,219.12 0,121.01 -102.91,219.12 -229.84,219.12l0 -438.24zm229.84 -843.49l0 1062.61 -459.68 0 0 -1062.61 229.84 -219.12 229.84 219.12zm-459.68 0c0,-121.01 102.91,-219.12 229.84,-219.12 126.93,0 229.84,98.11 229.84,219.12l-459.68 0zm1016.86 219.12l-787.02 0 0 -438.24 787.02 0 229.84 219.12 -229.84 219.12zm0 -438.24c126.93,0 229.84,98.11 229.84,219.12 0,121.01 -102.91,219.12 -229.84,219.12l0 -438.24zm-229.84 2060.42l0 -1841.3 459.68 0 0 1841.3 -229.84 219.12 -229.84 -219.12zm459.68 0c0,121.01 -102.91,219.12 -229.84,219.12 -126.93,0 -229.84,-98.11 -229.84,-219.12l459.68 0zm-1386.86 -3472.87l0 554.96 -459.68 0 0 -554.96 174.31 -212.63 285.37 212.63zm-459.68 0c0,-121.01 102.91,-219.12 229.84,-219.12 126.93,0 229.84,98.11 229.84,219.12l-459.68 0zm-517.7 -48.38l692.01 -164.25 111.06 425.26 -692.01 164.25 -115.86 -424.07 4.8 -1.19zm-150.88 482.61l-93.42 -429.1 1.64 -0.31 8.63 -1.66 8.55 -1.64 8.48 -1.65 8.28 -1.62 8.35 -1.65 8.37 -1.67 8.04 -1.61 8.12 -1.65 8.05 -1.63 7.85 -1.62 8.05 -1.67 7.81 -1.63 7.48 -1.58 7.7 -1.65 7.59 -1.63 7.54 -1.64 7.48 -1.63 7.08 -1.57 7.32 -1.65 7.25 -1.63 7 -1.6 7.1 -1.64 6.89 -1.6 6.95 -1.65 6.7 -1.58 6.65 -1.61 6.74 -1.63 6.46 -1.6 6.42 -1.59 6.35 -1.61 6.43 -1.63 6.15 -1.59 120.66 422.88 -7.61 1.95 -7.47 1.91 -7.67 1.93 -7.74 1.93 -7.82 1.92 -7.7 1.87 -7.89 1.91 -8 1.9 -7.87 1.85 -8.07 1.88 -7.98 1.84 -8.22 1.88 -8.11 1.83 -8.16 1.83 -8.54 1.89 -8.28 1.81 -8.34 1.82 -8.43 1.81 -8.46 1.81 -8.8 1.86 -8.61 1.79 -8.51 1.77 -8.83 1.82 -8.77 1.79 -8.82 1.79 -9.04 1.81 -8.85 1.75 -9.01 1.79 -9.2 1.8 -9.14 1.77 -9.19 1.78 -9.25 1.76 1.64 -0.31zm-342.27 -376.12l-52.68 435.36 -11.45 -433.82 10.99 -1.74 10.84 -1.74 10.87 -1.75 10.77 -1.73 10.71 -1.74 10.54 -1.71 10.46 -1.72 10.5 -1.73 10.32 -1.71 10.37 -1.73 10.18 -1.69 10.08 -1.71 10.04 -1.69 9.98 -1.71 9.99 -1.71 9.8 -1.69 9.67 -1.68 9.68 -1.7 9.68 -1.71 9.43 -1.67 9.36 -1.68 9.5 -1.72 9.3 -1.68 9.02 -1.66 9.19 -1.7 9.09 -1.69 8.9 -1.68 8.97 -1.7 8.78 -1.68 8.68 -1.68 8.75 -1.71 8.54 -1.68 93.42 429.1 -9.48 1.86 -9.39 1.83 -9.6 1.86 -9.64 1.84 -9.57 1.82 -9.78 1.84 -9.73 1.81 -9.77 1.82 -10.06 1.84 -9.92 1.8 -9.86 1.78 -10.14 1.82 -10.19 1.81 -10.08 1.77 -10.24 1.8 -10.37 1.8 -10.36 1.79 -10.33 1.77 -10.48 1.79 -10.54 1.79 -10.64 1.79 -10.7 1.79 -10.63 1.77 -10.82 1.79 -10.78 1.77 -10.96 1.8 -11.02 1.79 -10.99 1.78 -11.07 1.79 -11.13 1.79 -11.28 1.8 -11.27 1.8 -11.45 -433.82zm11.45 433.82c-125.2,19.89 -243.63,-60.74 -264.5,-180.11 -20.87,-119.37 63.72,-232.28 188.92,-252.17l75.58 432.28zm566.32 -325.32l-131.92 419.8 7.14 1.92 -17.22 -4.31 -17.16 -4.24 -17 -4.13 -16.94 -4.04 -16.89 -3.98 -16.82 -3.89 -16.65 -3.79 -16.56 -3.69 -16.54 -3.63 -16.39 -3.53 -16.3 -3.44 -16.26 -3.36 -16.13 -3.27 -16.02 -3.18 -16.01 -3.11 -15.84 -3 -15.68 -2.91 -15.67 -2.82 -15.64 -2.76 -15.48 -2.66 -15.44 -2.58 -15.31 -2.49 -15.13 -2.39 -15.12 -2.31 -15.01 -2.22 -14.92 -2.14 -14.84 -2.05 -14.74 -1.96 -14.65 -1.88 -14.47 -1.78 -14.47 -1.7 -14.37 -1.62 52.68 -435.36 16.81 1.9 16.89 1.98 17.03 2.1 17.01 2.18 17.08 2.28 17.14 2.37 17.22 2.46 17.27 2.56 17.34 2.65 17.47 2.75 17.47 2.85 17.48 2.92 17.6 3.02 17.6 3.1 17.73 3.2 17.88 3.31 17.86 3.4 17.87 3.47 18 3.56 18.07 3.67 18.08 3.74 18.2 3.84 18.27 3.93 18.28 4.01 18.42 4.11 18.47 4.21 18.48 4.27 18.55 4.36 18.68 4.46 18.76 4.57 18.76 4.62 18.86 4.73 7.14 1.92zm-117.74 423.85l-14.18 -4.05 131.92 -419.8 14.18 4.05 -122.95 422.18 -8.97 -2.38zm131.92 -419.8c121.59,34.72 190.63,156.86 154.21,272.78 -36.42,115.92 -164.54,181.74 -286.13,147.02l131.92 -419.8zm591.75 596.58l-714.7 -174.4 113.98 -424.56 714.7 174.4 172.85 212.28 -286.83 212.28zm113.98 -424.56c122.97,30 197.14,149.38 165.67,266.61 -31.47,117.23 -156.68,187.95 -279.65,157.95l113.98 -424.56zm-1770.39 301.71l3160.84 823.31 -121.16 422.74 -3160.84 -823.31 -169.26 -211.37 290.42 -211.37zm-121.16 422.74c-122.44,-31.89 -194.58,-152.39 -161.13,-269.12 33.45,-116.73 159.85,-185.51 282.29,-153.62l-121.16 422.74zm290.42 -1399.7l0 1188.33 -459.68 0 0 -1188.33 171.21 -211.87 288.47 211.87zm-459.68 0c0,-121.01 102.91,-219.12 229.84,-219.12 126.93,0 229.84,98.11 229.84,219.12l-459.68 0zm3449.31 -583.06l-3160.84 794.93 -117.26 -423.74 3160.84 -794.93 288.47 211.87 -171.21 211.87zm-117.26 -423.74c122.73,-30.86 248.49,38.97 280.87,155.98 32.38,117.01 -40.88,236.9 -163.61,267.76l-117.26 -423.74zm-171.21 1034.51l0 -822.64 459.68 0 0 822.64 -173.75 212.5 -285.93 -212.5zm459.68 0c0,121.01 -102.91,219.12 -229.84,219.12 -126.93,0 -229.84,-98.11 -229.84,-219.12l459.68 0zm-945.32 -54.32l659.39 -158.18 112.18 425 -659.39 158.18 -285.93 -212.5 173.75 -212.5zm112.18 425c-123.09,29.53 -248.01,-41.67 -278.98,-159.03 -30.97,-117.36 43.71,-236.44 166.8,-265.97l112.18 425zm-285.93 666.92l0 -879.42 459.68 0 0 879.42 -287.49 212.11 -172.19 -212.11zm459.68 0c0,121.01 -102.91,219.12 -229.84,219.12 -126.93,0 -229.84,-98.11 -229.84,-219.12l459.68 0zm371.9 375.01l-659.39 -162.9 115.3 -424.22 659.39 162.9 172.19 212.11 -287.49 212.11zm115.3 -424.22c122.87,30.35 196.67,149.94 164.84,267.08 -31.83,117.14 -157.27,187.49 -280.14,157.14l115.3 -424.22zm-287.49 995.54l0 -783.43 459.68 0 0 783.43 -290.42 211.37 -169.26 -211.37zm459.68 0c0,121.01 -102.91,219.12 -229.84,219.12 -126.93,0 -229.84,-98.11 -229.84,-219.12l459.68 0zm-1983.55 -3729.77l11.92 438.1 0.03 0 -20.55 0.51 -20.74 0.51 -20.96 0.52 -21.19 0.52 -21.39 0.53 -21.63 0.53 -21.83 0.54 -22.06 0.54 -22.22 0.55 -22.5 0.56 -22.72 0.56 -22.88 0.56 -23.15 0.58 -23.38 0.58 -23.54 0.59 -23.8 0.6 -23.98 0.6 -24.19 0.62 -24.47 0.62 -24.64 0.63 -24.84 0.64 -25.07 0.65 -25.29 0.66 -25.55 0.67 -25.73 0.67 -25.89 0.68 -26.15 0.7 -26.37 0.71 -26.6 0.72 -26.76 0.73 -27.03 0.75 -27.24 0.75 -13.38 -438.06 27.32 -0.75 27.09 -0.75 26.94 -0.73 26.66 -0.72 26.45 -0.71 26.23 -0.7 26.07 -0.7 25.81 -0.67 25.53 -0.67 25.37 -0.66 25.15 -0.65 24.94 -0.64 24.72 -0.63 24.45 -0.62 24.29 -0.62 24.06 -0.6 23.8 -0.6 23.64 -0.59 23.36 -0.58 23.13 -0.58 22.98 -0.58 22.72 -0.56 22.48 -0.56 22.32 -0.55 22.06 -0.54 21.83 -0.54 21.61 -0.53 21.39 -0.53 21.17 -0.52 20.96 -0.52 20.72 -0.51 20.49 -0.51 0.03 0zm463.99 -8.18l0 438.24 0 0 -7.95 0.01 -8.36 0.02 -8.65 0.04 -9.19 0.05 -9.6 0.07 -10 0.09 -10.41 0.1 -10.81 0.11 -11.21 0.13 -11.5 0.15 -12.01 0.17 -12.39 0.17 -12.79 0.2 -13.19 0.21 -13.5 0.22 -13.97 0.25 -14.37 0.26 -14.75 0.28 -15.15 0.28 -15.46 0.31 -15.94 0.33 -16.4 0.34 -16.7 0.35 -17.03 0.36 -17.42 0.39 -17.88 0.41 -18.34 0.42 -18.66 0.42 -18.98 0.45 -19.44 0.47 -19.82 0.48 -20.2 0.5 -11.92 -438.1 20.36 -0.5 19.96 -0.48 19.58 -0.47 19.26 -0.45 18.82 -0.44 18.36 -0.42 18.04 -0.41 17.74 -0.39 17.37 -0.38 16.9 -0.35 16.46 -0.34 16.14 -0.33 15.84 -0.31 15.39 -0.3 15.01 -0.28 14.63 -0.26 14.27 -0.25 13.96 -0.24 13.51 -0.21 13.13 -0.2 12.77 -0.19 12.39 -0.17 12.12 -0.15 11.65 -0.13 11.29 -0.13 10.91 -0.1 10.56 -0.09 10.2 -0.07 9.83 -0.07 9.61 -0.04 9.14 -0.02 8.79 -0.01 0 0zm1289.72 438.24l-1289.72 0 0 -438.24 1289.72 0 229.84 219.12 -229.84 219.12zm0 -438.24c126.93,0 229.84,98.11 229.84,219.12 0,121.01 -102.91,219.12 -229.84,219.12l0 -438.24zm-229.84 924.81l0 -705.69 459.68 0 0 705.69 -229.84 219.12 -229.84 -219.12zm459.68 0c0,121.01 -102.91,219.12 -229.84,219.12 -126.93,0 -229.84,-98.11 -229.84,-219.12l459.68 0zm-3390.68 -219.12l3160.84 0 0 438.24 -3160.84 0 -229.84 -219.12 229.84 -219.12zm0 438.24c-126.93,0 -229.84,-98.11 -229.84,-219.12 0,-121.01 102.91,-219.12 229.84,-219.12l0 438.24zm229.84 -1391.9l0 1172.78 -459.68 0 0 -1172.78 179.3 -213.76 280.38 213.76zm-459.68 0c0,-121.01 102.91,-219.12 229.84,-219.12 126.93,0 229.84,98.11 229.84,219.12l-459.68 0zm1642.42 -78.93l-1362.04 292.69 -101.08 -427.52 1362.04 -292.69 10.24 -1.97 90.84 429.49zm0.9 -449.11l101.32 427.46 1.96 -0.43 -4.45 0.99 -4.5 1.02 -4.63 1.03 -4.01 0.89 -4.26 0.96 -4.4 0.97 -4.11 0.91 -3.68 0.81 -3.88 0.87 -4.47 0.98 -3.81 0.82 -3.35 0.73 -3.9 0.86 -3.5 0.75 -3.5 0.76 -3.71 0.79 -3.27 0.7 -3.67 0.77 -3.14 0.66 -3.16 0.66 -3.41 0.7 -2.94 0.61 -3.4 0.69 -3.37 0.67 -2.78 0.55 -3.2 0.62 -2.68 0.51 -2.62 0.51 -3.75 0.69 -3.25 0.58 -2.57 0.46 -3.05 0.53 -80.6 -431.46 0.75 -0.13 1.41 -0.24 0.89 -0.16 0.55 -0.11 1.84 -0.35 1.96 -0.37 1.6 -0.32 2.2 -0.43 1.77 -0.35 1.9 -0.39 2.52 -0.51 2.23 -0.46 2.64 -0.56 2.82 -0.58 2.47 -0.53 3.01 -0.64 2.77 -0.59 3.12 -0.68 3.3 -0.71 3.06 -0.66 3.79 -0.83 3.49 -0.76 2.99 -0.66 3.74 -0.83 4.12 -0.91 3.85 -0.85 3.72 -0.83 4.04 -0.9 4.43 -0.99 4.01 -0.89 4.28 -0.96 4.51 -1.01 1.96 -0.43zm1009.29 295.92l26.88 -437.48 -1.24 437.55 -26.17 1.4 -26.27 1.57 -26.58 1.76 -26.76 1.91 -26.89 2.09 -27.16 2.27 -27.32 2.43 -27.51 2.61 -27.71 2.78 -27.92 2.96 -28.14 3.13 -28.31 3.3 -28.5 3.48 -28.66 3.65 -28.89 3.84 -29.13 4.01 -29.28 4.18 -29.45 4.35 -29.67 4.54 -29.91 4.72 -30.02 4.88 -30.23 5.07 -30.48 5.26 -30.64 5.42 -30.81 5.6 -31.03 5.79 -31.23 5.96 -31.38 6.14 -31.61 6.33 -31.8 6.49 -31.96 6.68 -32.19 6.87 -101.32 -427.46 34.11 -7.27 33.96 -7.1 33.78 -6.91 33.61 -6.73 33.48 -6.54 33.29 -6.36 33.11 -6.17 32.99 -6 32.78 -5.8 32.6 -5.62 32.49 -5.45 32.34 -5.26 32.11 -5.06 31.97 -4.9 31.85 -4.71 31.64 -4.52 31.45 -4.33 31.33 -4.16 31.2 -3.97 31 -3.78 30.85 -3.6 30.64 -3.41 30.52 -3.24 30.35 -3.04 30.21 -2.87 30.04 -2.67 29.84 -2.49 29.77 -2.31 29.52 -2.11 29.36 -1.94 29.29 -1.75 29.05 -1.56 -1.24 437.55zm1.24 -437.55c126.76,-6.42 234.99,86.34 241.72,207.18 6.73,120.84 -90.56,224.02 -217.32,230.44l-24.4 -437.62zm-515.37 391.46l59.68 -434.52 -0.11 -0.02 14.79 1.83 14.74 1.78 14.83 1.76 14.86 1.74 14.86 1.7 14.8 1.67 14.88 1.63 14.92 1.62 14.84 1.57 14.93 1.55 14.88 1.51 14.98 1.49 14.99 1.46 14.92 1.41 15.02 1.4 15.05 1.37 15.06 1.33 15.01 1.3 15.1 1.27 15.13 1.25 15.06 1.21 15.08 1.17 15.2 1.15 15.27 1.13 15.16 1.09 15.18 1.05 15.27 1.03 15.3 1 15.25 0.96 15.35 0.93 15.38 0.91 15.35 0.88 -26.88 437.48 -16.39 -0.92 -16.32 -0.97 -16.31 -0.99 -16.35 -1.04 -16.26 -1.06 -16.23 -1.09 -16.28 -1.13 -16.28 -1.17 -16.09 -1.19 -16.14 -1.21 -16.22 -1.27 -16.18 -1.29 -16.09 -1.33 -16.06 -1.35 -16.13 -1.4 -16.04 -1.43 -16.01 -1.45 -16 -1.48 -16.06 -1.53 -15.95 -1.56 -15.94 -1.57 -16 -1.63 -15.93 -1.65 -15.96 -1.69 -15.88 -1.72 -15.86 -1.75 -15.94 -1.79 -15.82 -1.82 -15.82 -1.84 -15.81 -1.88 -15.88 -1.92 -15.79 -1.95 -0.11 -0.02zm-496.05 -79.21l94.6 -428.86 -1.45 -0.29 14.25 2.76 14.2 2.71 14.21 2.68 14.31 2.67 14.26 2.64 14.28 2.59 14.37 2.6 14.3 2.55 14.39 2.53 14.35 2.5 14.36 2.47 14.36 2.44 14.38 2.4 14.5 2.4 14.36 2.35 14.43 2.32 14.53 2.31 14.48 2.27 14.43 2.23 14.51 2.2 14.59 2.2 14.48 2.14 14.56 2.12 14.65 2.11 14.51 2.06 14.55 2.02 14.72 2.01 14.64 1.98 14.59 1.93 14.61 1.91 14.7 1.88 14.72 1.86 -59.68 434.52 -15.7 -1.98 -15.7 -2 -15.75 -2.05 -15.75 -2.09 -15.64 -2.12 -15.54 -2.13 -15.69 -2.18 -15.69 -2.22 -15.51 -2.23 -15.56 -2.26 -15.62 -2.32 -15.47 -2.32 -15.51 -2.36 -15.57 -2.41 -15.48 -2.43 -15.41 -2.45 -15.45 -2.48 -15.5 -2.53 -15.34 -2.54 -15.42 -2.58 -15.4 -2.62 -15.36 -2.63 -15.35 -2.68 -15.27 -2.69 -15.32 -2.73 -15.23 -2.74 -15.28 -2.79 -15.28 -2.82 -15.19 -2.83 -15.25 -2.88 -15.22 -2.91 -15.15 -2.92 -1.45 -0.29zm-1365.29 -721.55l1459.89 292.69 -94.6 428.86 -1459.89 -292.69 -182.54 -214.43 277.14 -214.43zm-94.6 428.86c-124.21,-24.9 -203.74,-141.1 -177.62,-259.52 26.12,-118.42 148.01,-194.24 272.22,-169.34l-94.6 428.86zm277.14 -1397.35l0 1182.92 -459.68 0 0 -1182.92 229.84 -219.12 229.84 219.12zm-459.68 0c0,-121.01 102.91,-219.12 229.84,-219.12 126.93,0 229.84,98.11 229.84,219.12l-459.68 0zm3390.68 219.12l-3160.84 0 0 -438.24 3160.84 0 229.84 219.12 -229.84 219.12zm0 -438.24c126.93,0 229.84,98.11 229.84,219.12 0,121.01 -102.91,219.12 -229.84,219.12l0 -438.24zm-229.84 924.82l0 -705.7 459.68 0 0 705.7 -229.84 219.12 -229.84 -219.12zm459.68 0c0,121.01 -102.91,219.12 -229.84,219.12 -126.93,0 -229.84,-98.11 -229.84,-219.12l459.68 0zm-1564.94 -219.12l1335.1 0 0 438.24 -1335.1 0 0 0 0 -438.24zm-413.06 435.52l5.08 -438.22 -0.01 0 17.89 0.19 17.61 0.17 17.29 0.18 16.88 0.16 16.53 0.16 16.27 0.14 15.94 0.15 15.53 0.13 15.26 0.13 14.84 0.12 14.6 0.11 14.26 0.11 13.93 0.1 13.5 0.1 13.26 0.08 12.92 0.09 12.49 0.06 12.36 0.07 11.93 0.07 11.47 0.06 11.26 0.05 10.93 0.05 10.59 0.04 10.38 0.04 9.79 0.04 9.6 0.02 9.39 0.03 8.79 0.02 8.59 0.01 8.4 0.01 7.92 0.01 7.59 0 0 438.24 -7.89 0 -8.2 -0.01 -8.38 -0.01 -8.85 -0.01 -9.29 -0.02 -9.33 -0.03 -9.8 -0.02 -10.23 -0.04 -10.32 -0.04 -10.75 -0.04 -11.09 -0.05 -11.4 -0.05 -11.83 -0.06 -12.05 -0.07 -12.28 -0.07 -12.81 -0.08 -13.02 -0.09 -13.36 -0.08 -13.78 -0.1 -14.01 -0.1 -14.34 -0.11 -14.68 -0.11 -15.08 -0.12 -15.34 -0.13 -15.75 -0.13 -16 -0.15 -16.33 -0.14 -16.73 -0.16 -17.06 -0.16 -17.33 -0.18 -17.67 -0.17 -18.07 -0.19 -0.01 0zm-534.79 -228.58l-459.68 0 232.92 -219.1 29.65 0.38 29.33 0.37 28.93 0.38 28.53 0.36 28.23 0.36 27.84 0.36 27.45 0.35 27.1 0.35 26.74 0.34 26.35 0.34 26 0.33 25.64 0.33 25.26 0.32 24.89 0.32 24.48 0.31 24.16 0.3 23.79 0.3 23.43 0.29 23 0.29 22.69 0.27 22.31 0.28 21.9 0.26 21.64 0.26 21.15 0.26 20.78 0.24 20.48 0.24 20.1 0.23 19.67 0.23 19.3 0.2 19.06 0.22 18.55 0.2 18.2 0.19 -5.08 438.22 -18.34 -0.19 -18.71 -0.22 -18.96 -0.2 -19.44 -0.22 -19.81 -0.23 -20.12 -0.23 -20.5 -0.24 -20.92 -0.24 -21.27 -0.26 -21.54 -0.26 -22.02 -0.26 -22.33 -0.28 -22.69 -0.27 -23.12 -0.29 -23.43 -0.29 -23.81 -0.3 -24.16 -0.3 -24.58 -0.31 -24.91 -0.32 -25.26 -0.32 -25.64 -0.33 -26 -0.33 -26.37 -0.34 -26.74 -0.34 -27.1 -0.35 -27.47 -0.35 -27.84 -0.36 -28.15 -0.36 -28.61 -0.36 -28.93 -0.38 -29.27 -0.37 -29.67 -0.38 232.92 -219.1zm-232.92 219.1c-126.92,-1.62 -228.44,-101.04 -226.74,-222.04 1.7,-121 105.98,-217.78 232.9,-216.16l-6.16 438.2zm-226.76 -187.32l0 -31.78 459.68 0 0 31.78 -248.17 218.42 -211.51 -218.42zm459.68 0c0,121.01 -102.91,219.12 -229.84,219.12 -126.93,0 -229.84,-98.11 -229.84,-219.12l459.68 0zm342.51 -155.64l-71.24 432.94 0.01 0 -16.42 -2.43 -16.42 -2.4 -16.39 -2.36 -16.44 -2.33 -16.3 -2.28 -16.36 -2.24 -16.4 -2.21 -16.26 -2.16 -16.31 -2.12 -16.38 -2.1 -16.27 -2.06 -16.28 -2.01 -16.26 -1.97 -16.26 -1.94 -16.24 -1.9 -16.22 -1.85 -16.21 -1.82 -16.28 -1.79 -16.2 -1.75 -16.1 -1.69 -16.17 -1.67 -16.22 -1.63 -16.16 -1.59 -16.14 -1.55 -16.12 -1.52 -16.12 -1.47 -16.1 -1.44 -16.09 -1.39 -16.17 -1.37 -16 -1.31 -16.07 -1.28 -16.09 -1.25 36.66 -436.84 17.15 1.33 17.19 1.36 17.28 1.43 17.13 1.45 17.23 1.49 17.22 1.54 17.24 1.57 17.24 1.62 17.24 1.65 17.26 1.71 17.2 1.73 17.27 1.77 17.36 1.83 17.28 1.87 17.24 1.89 17.31 1.94 17.32 1.99 17.32 2.02 17.34 2.06 17.34 2.11 17.36 2.15 17.37 2.18 17.3 2.22 17.39 2.26 17.46 2.32 17.34 2.35 17.4 2.38 17.5 2.44 17.38 2.47 17.43 2.5 17.46 2.56 17.46 2.59 0.01 0zm584.49 108.52l-104.36 426.8 0.79 0.17 -18.1 -3.94 -17.99 -3.88 -17.95 -3.83 -17.95 -3.8 -17.88 -3.75 -17.85 -3.71 -17.68 -3.64 -17.74 -3.6 -17.69 -3.58 -17.55 -3.49 -17.59 -3.48 -17.48 -3.41 -17.41 -3.36 -17.42 -3.33 -17.35 -3.28 -17.26 -3.22 -17.21 -3.18 -17.19 -3.13 -17.16 -3.09 -17.05 -3.04 -16.97 -2.98 -17 -2.95 -16.95 -2.91 -16.81 -2.85 -16.78 -2.79 -16.78 -2.76 -16.73 -2.72 -16.61 -2.66 -16.56 -2.61 -16.56 -2.57 -16.52 -2.54 -16.39 -2.47 71.24 -432.94 17.55 2.65 17.54 2.68 17.58 2.73 17.7 2.79 17.73 2.84 17.73 2.88 17.76 2.92 17.88 2.99 17.93 3.03 17.89 3.07 17.96 3.11 18.07 3.18 18.09 3.22 18.1 3.27 18.15 3.31 18.23 3.36 18.3 3.42 18.29 3.46 18.32 3.49 18.43 3.56 18.46 3.61 18.47 3.64 18.59 3.71 18.55 3.74 18.6 3.78 18.76 3.86 18.71 3.89 18.76 3.93 18.79 3.98 18.89 4.03 18.95 4.1 18.94 4.12 0.79 0.17zm1303.77 739.77l-1408.13 -312.97 104.36 -426.8 1408.13 312.97 177.66 213.4 -282.02 213.4zm104.36 -426.8c123.62,27.47 200.47,145.3 171.66,263.15 -28.81,117.85 -152.4,191.12 -276.02,163.65l104.36 -426.8zm-282.02 971.83l0 -758.43 459.68 0 0 758.43 -173.44 212.42 -286.24 -212.42zm459.68 0c0,121.01 -102.91,219.12 -229.84,219.12 -126.93,0 -229.84,-98.11 -229.84,-219.12l459.68 0zm-1804.27 153.94l1518.03 -366.36 112.8 424.84 -1518.03 366.36 -119.46 -423.13 6.66 -1.71zm112.8 424.84c-123.05,29.69 -248.07,-41.34 -279.21,-158.65 -31.14,-117.31 43.36,-236.5 166.41,-266.19l112.8 424.84zm-134.35 -419.08l14.89 -4.05 126.12 421.42 -14.89 4.05 -5.99 1.55 -120.13 -422.97zm-686.97 395.92l-459.68 0 201.2 -217.41 25.96 -3.17 26.21 -3.33 26.45 -3.48 26.74 -3.65 26.96 -3.79 27.19 -3.96 27.48 -4.11 27.65 -4.26 27.92 -4.43 28.22 -4.59 28.43 -4.74 28.66 -4.9 28.87 -5.05 29.15 -5.23 29.44 -5.38 29.63 -5.54 29.84 -5.69 30.12 -5.86 30.39 -6.02 30.57 -6.17 30.8 -6.34 31.07 -6.5 31.34 -6.67 31.52 -6.81 31.76 -6.98 32.06 -7.15 32.23 -7.3 32.49 -7.47 32.73 -7.63 32.91 -7.78 33.21 -7.96 33.44 -8.12 114.14 424.52 -34.8 8.44 -34.59 8.3 -34.43 8.14 -34.15 7.95 -33.95 7.81 -33.77 7.64 -33.48 7.47 -33.34 7.34 -33.12 7.15 -32.84 6.99 -32.67 6.84 -32.5 6.68 -32.27 6.51 -31.99 6.34 -31.82 6.2 -31.64 6.03 -31.39 5.86 -31.14 5.7 -30.97 5.55 -30.79 5.39 -30.56 5.22 -30.33 5.06 -30.08 4.89 -29.92 4.75 -29.75 4.58 -29.46 4.41 -29.29 4.26 -29.08 4.09 -28.82 3.93 -28.67 3.78 -28.45 3.61 -28.24 3.45 201.2 -217.41zm-201.2 217.41c-125.94,15.08 -240.88,-70.03 -256.69,-190.1 -15.81,-120.07 73.47,-229.64 199.41,-244.72l57.28 434.82zm-258.48 -193.75l0 -23.66 459.68 0 0 23.66 -223.15 219.03 -236.53 -219.03zm459.68 0c0,121.01 -102.91,219.12 -229.84,219.12 -126.93,0 -229.84,-98.11 -229.84,-219.12l459.68 0z"/>
  </g>
  <path id="1" class="fil4" d="M3269.35 10461.51l-820.34 0c142.52,-99.36 252.41,-226.44 330.41,-382.59 77.28,-155.46 116.28,-329.86 116.28,-523.18 0,-125.05 -22.69,-223.75 -68.07,-294.05 -46.09,-70.97 -108.48,-106.12 -187.18,-106.12 -99.27,0 -187.89,118.96 -265.18,356.9 -20.56,62.19 -36.87,110.86 -49.63,146.69 -123.37,344.73 -257.38,582.67 -402.02,712.45 -144.64,130.46 -337.49,195.35 -577.15,195.35 -299.2,0 -544.53,-102.06 -736.67,-306.21 -192.15,-204.13 -287.87,-467.08 -287.87,-789.51 0,-198.06 24.82,-379.22 75.16,-542.79 49.63,-163.58 124.08,-306.89 222.63,-429.91l872.1 0c-129.75,105.45 -230.43,235.23 -301.33,388 -71.61,153.44 -107.06,317.02 -107.06,491.42 0,123.03 23.39,222.38 70.19,297.41 47.5,75.04 107.06,112.89 180.8,112.89 99.26,0 190.73,-130.46 272.98,-392.05 46.08,-139.92 85.08,-254.16 118.4,-342.71 82.96,-216.98 195.7,-377.86 337.5,-482.64 141.81,-104.76 318.35,-157.49 528.93,-157.49 300.63,0 543.83,103.42 730.3,310.26 186.48,206.17 279.36,478.58 279.36,816.56 0,187.91 -28.36,358.93 -84.38,513.05 -56.01,154.79 -138.26,290.66 -248.16,408.27zm272.98 -2200.04l-3160.84 0 0 -778.69 2373.82 0 0 -1062.61 787.02 0 0 1841.3zm-1386.86 -2917.91l0 -554.96 -692.01 164.25c-73.03,18.94 -157.4,37.18 -253.12,55.43 -95.72,18.94 -202.78,37.18 -321.9,56.11 165.92,18.25 345.3,52.05 538.15,100.72l14.18 4.05 714.7 174.4zm1386.86 1124.11l-3160.84 -823.31 0 -1188.33 3160.84 -794.93 0 822.64 -659.39 158.18 0 879.42 659.39 162.9 0 783.43zm-2512.79 -3491.12c292.12,-8.11 547.37,-14.19 765.04,-19.6 218.38,-5.4 370.82,-8.11 458.03,-8.11l1289.72 0 0 705.69 -3160.84 0 0 -1172.78 1362.04 -292.69c19.85,-3.37 53.89,-10.81 102.1,-21.62 354.51,-76.38 678.54,-121.68 972.07,-136.55 -169.45,-9.46 -334.66,-24.33 -497.73,-44.61 -162.37,-20.27 -321.9,-45.97 -478.59,-76.38l-1459.89 -292.69 0 -1182.92 3160.84 0 0 705.7 -1335.1 0c-80.83,0 -216.96,-0.68 -410.52,-2.71 -192.86,-2.03 -448.82,-5.4 -767.17,-9.47l0 31.78c177.26,13.52 355.93,33.8 536.73,60.83 180.8,27.04 370.11,62.19 567.93,105.45l1408.13 312.97 0 758.43 -1518.03 366.36 -14.89 4.05c-365.14,89.23 -692.01,150.74 -979.87,185.21l0 23.66z"/>
  <g>
   <path class="fil2" d="M5954.5 12010.22c-116.28,-7.94 -95.03,26.86 -95.03,-73.6 -421.75,260.02 -288.51,773.08 -436.35,1174.73l10.64 -1230.97 -133.68 -234.05c-357.89,0 -126.92,-44.07 -207.76,155.65 529.48,468.74 23.65,1232.75 282.98,1670.15 228.27,47.47 106.24,-1084.11 579.2,-1461.91zm-1444.6 -1412.44l-7.2 23.69 -61.22 22.67c-231.2,59.06 -425.62,113.58 -664.09,156.42l102.06 106.59c383.67,-12.83 463.59,32.2 835.36,107.58l37.37 -60.39 75.09 63.6c-174.03,-335.63 -321.34,-104.98 -522.65,-243.39 54.46,-49.41 114.63,-67.73 175.75,-79.51l29.53 -97.26zm219.42 377.55c103.45,372.24 146.25,509.06 363,826.65 80.84,-199.72 -150.13,-155.65 207.76,-155.65l-211.73 -69.48 -195.82 -326.83 -63.35 -340.8c0,100.46 20.26,64.65 -99.86,66.11zm-256.19 -256.47c454.07,-98.09 391.49,-192.3 659.73,-487.95 209.64,-231.03 432.64,-235.16 574.76,-581.4 34.01,-82.87 161.72,-736.63 183,-702.69 21.56,34.39 -8.58,825.7 -12.45,926.2 245.16,12.26 328.64,66.18 447.24,283.4 258.76,273.8 145.18,308.76 276.92,552.09 138.63,256.08 354.23,122.78 518.3,271.61 -201.31,138.41 -348.61,-92.24 -522.65,243.39l-94.05 162.51c-69.29,247.89 -207.7,361.73 -439.97,470.9l-204.49 79.7c0,100.46 -21.25,65.66 95.03,73.6 267.21,-86.21 374.24,-292.26 617.44,-250.63l-31.15 -111.45c6.16,-174.99 -19.34,-64.65 78.97,-102.47l37.02 -32.64 53.67 -292.73 -37.38 -60.39 -75.09 63.6 75.09 -63.6 37.38 60.39c371.76,-75.38 451.68,-120.41 835.35,-107.58l102.06 -106.59c-238.47,-42.84 -432.89,-97.36 -664.08,-156.42 -392.44,-100.24 -327.69,-90.94 -385.29,-504.9l-41.6 -105.58c-350.74,-350.49 -584.16,-475.12 -571.59,-1039.08 0.26,-11.69 93.36,-1178.67 -127.93,-627.6 -329.37,820.34 57.03,1140.98 -1347.47,2025.23l-36.77 121.08z"/>
  </g>
  <path class="fil5" d="M12173.4 15718.55l113.67 188.75 -117.96 2.21 21.58 55.62c351.94,1.87 438.12,-44.21 601.27,-350.47l-618.56 103.89z"/>
  <path class="fil5" d="M8084.41 13606.25l85.13 179.82c494.31,149.37 249.45,140.75 562.7,316.18 -142.66,-324.34 -279.44,-266.93 -500.63,-493.81l-29.19 -336.95 -87.8 59.91 -30.21 274.85z"/>
  <path class="fil5" d="M12732.86 14666.84l-487.84 574.39 13.78 41.23c281.25,-190.01 292.88,-440.42 585.55,-511.6l189.08 243.72 15.78 -353.34 -316.35 5.6z"/>
  <path class="fil5" d="M8251.67 12548.61c170.02,-12.5 134.19,10.75 273.34,107.81l98.55 -177.64 29.28 -90.62 -198.34 -43.55 -98.88 -125.61 -103.95 329.61z"/>
  <path class="fil5" d="M7748.81 12611.81l-85.23 188.65 106.93 100.35 174.81 -118.89c59.61,-281.22 79.98,-68.16 216.72,-324.89l-145.33 -32.59 -53.92 178.46 -213.98 8.91z"/>
  <path class="fil5" d="M10758.43 15217.14c173.31,166.11 390.9,261.25 620,329.88l-3.34 -44.86 -283.88 -172.02 -299.06 -241.16 27.71 136.42 -61.43 -8.26z"/>
  <path class="fil5" d="M7749.81 12923.16l217.87 57.56 38.06 293.01 144.57 -146.1c-14.31,-174.75 -42.27,-172.67 -163.59,-292.96l-236.91 88.49z"/>
  <path class="fil5" d="M12780.89 15602.57c192.95,-104.93 205.58,-164.17 257.76,-374.63 -178.8,126.05 -206.52,160.85 -257.76,374.63z"/>
  <path class="fil6" d="M11384.35 13788.45l109.59 103 37.57 -33.49c37.06,-307.91 39.87,-103.76 -94.02,-176.63l-53.14 107.12z"/>
  <path class="fil2" d="M11771.91 13257.95c-45.23,56.72 22.48,41.8 140.63,92.61l11.92 50.05c418.74,-43.12 323.66,4.82 673.56,160.27l-49.59 -188.41c-223.69,-223.5 -253.47,-91.3 -498.59,-230.21l-277.93 115.69z"/>
  <polygon class="fil7" points="14692.6,6545.7 14783.78,6512.95 14653.46,6403.3 14310.88,6379.82 14310.88,6464.18 "/>
  <polygon class="fil7" points="8520.67,14340.92 8631.68,14435.57 8797.65,14410.14 8737.36,14225.52 8585.36,14137.37 8664.97,14328.45 "/>
  <path class="fil8 str1" d="M15299.37 11759.97c165.43,2.35 58.14,-16.54 100.21,53.16l177.5 -119.49c-141.05,-69.25 -168.7,-20.92 -277.71,66.33zm-249.77 145.18l-66.55 -64.68 -29.41 95.57 95.96 -30.89zm-133.74 -247.2c142.6,90.43 469.5,-10.67 543.89,-168.42 -168.51,-9.01 -427.39,54.81 -543.89,168.42zm67.19 182.52l66.55 64.68 349.98 -92.02c-42.07,-69.7 65.22,-50.81 -100.21,-53.16l-316.32 80.5z"/>
  <path class="fil9" d="M10348.79 14933.86l409.64 283.28 61.43 8.26 -27.71 -136.42 -8.78 -187.63c153.3,-182.93 199.17,-140.79 382.1,-407.25 110.71,-161.25 180.3,-312.29 316.33,-444.59l12.14 -158.06 -109.59 -103c-118.57,-226.1 -130.83,-282.06 -393.44,-272.68l-24.63 26.57c517.88,371.03 282.96,1034.79 -231.94,1134.9 -536.84,104.36 -1089.4,-499.24 -385.55,256.62z"/>
  <path class="fil9" d="M8525.01 12656.42l-308.95 499.4c294.24,-74.5 357.08,-436.57 520.41,-689.79l-112.91 12.75 -98.55 177.64z"/>
  <polygon class="fil9" points="12170.22,15633.05 12290.58,15496.85 12258.8,15282.46 12245.02,15241.23 12179.56,15268.37 12056.44,15557.83 "/>
  <path class="fil9" d="M9620.61 13832.62c86.79,106.36 107.29,161.3 233.71,87.95 -65.2,-155.98 -90.35,-145.91 -233.71,-87.95z"/>
  <polygon class="fil10" points="13972.45,12131.67 13946.68,12099.56 13850.07,12227.34 "/>
  <path class="fil11" d="M13487.91 14320.66l68.33 134.99 -65.94 71.14 31.23 125.96c-45.42,664.43 -537.54,1970.74 -1409.65,1485.58l-145.66 -63.87 13.52 101.57c129.99,35.44 344.1,138.71 431.92,155.27 225.85,42.6 182.12,-117.68 406.6,-62.99l-116.95 164.74 78.8 2.25c512.58,-543.27 727.08,-862.42 857.35,-1619.23l-14.34 -471.05 -135.21 -24.36z"/>
  <path class="fil8 str1" d="M12746.84 6075.27c-40.55,43.06 -111.04,113.33 -188.16,194.27 -184.14,151.3 -352.34,389.7 -431.5,548.15 26.84,-15.85 56.02,-34.45 86.75,-55.28 172.99,-38.23 562.32,-418.57 611.09,-571.59l-15.46 -22.83c6.47,-12.73 12.35,-25.27 17.43,-37.63 -12.39,1.97 -24.83,4.7 -37.34,8.16l-42.81 -63.25z"/>
  <path class="fil11" d="M9811.22 10044.99c-54.99,305.09 -115.61,505.39 -75.08,819.98l56.42 -38.86 52.47 -675.73 123.48 -77.42 -135.36 -105.08 -21.93 77.11z"/>
  <path class="fil11" d="M13336.08 11752.87l62.85 31.75c197.9,-214.95 242.19,-367.59 329.46,-634.39l-113.12 8.42c-43.34,258.58 -114.38,393.75 -279.19,594.22z"/>
  <path class="fil11" d="M13828.49 15515.36l-79.12 274.79 111.51 -132.76 167.64 -230.87 94.85 -120.77c-111.68,-56.23 -146.59,82.48 -54.02,-109.61l-240.86 319.22z"/>
  <polygon class="fil11" points="14585.25,15599.31 14524.37,15435.6 14359.54,15383.92 "/>
  <polygon class="fil11" points="7807.88,12238.06 7891.65,12301.41 7975.11,12155.63 "/>
  <path class="fil11" d="M9151.01 12004.51l76 18.57 -15.93 -104.05c5.09,105.84 34.48,85.79 -60.07,85.48z"/>
  <path class="fil12" d="M8048.67 13893.51l114.82 112.92 33.36 -115.14c202.72,70.07 246.38,64.59 342.85,241.3l45.66 4.78 152 88.15c323.09,242.82 696.76,407.22 1059.31,580.12 401.47,191.44 671.86,388.29 1029.55,639.23l3.12 29.63 190.53 128.95 36.27 7.71c178.43,-71.45 195.45,-3.88 404.63,23.95l-82.34 -88.09c-229.1,-68.63 -446.69,-163.77 -620,-329.88l-409.64 -283.28c-418.68,-159.96 -1411.51,-809.41 -1616.55,-831.61 -313.25,-175.43 -68.39,-166.81 -562.7,-316.18l-120.87 107.44z"/>
  <path class="fil12" d="M10792.15 15088.98l299.06 241.16 45.76 -14.88 -138.34 -287.9 -124.43 -59.41 101.13 -80.54 192.63 -164.4 85.99 -175.49c5.4,-5.25 83.77,-99.66 85.62,-101.45l142.76 -323.66 -0.53 -72.9c-136.03,132.3 -205.62,283.34 -316.33,444.59 -182.93,266.46 -228.8,224.32 -382.1,407.25l8.78 187.63z"/>
  <path class="fil12" d="M8240.48 12062.56l71.62 90.26 -150.06 304.21c-136.74,256.73 -157.11,43.67 -216.72,324.89 150.19,-48.32 223.44,-95.14 306.35,-233.31l103.95 -329.61 74.82 -142.09c192.31,69.77 232.81,106.87 222.4,311.25l-29.28 90.62 112.91 -12.75 9.78 -35.18 -79.76 -361.79 142.92 8.65c-183.51,-113.49 -385.64,-113.91 -568.93,-15.15z"/>
  <path class="fil12" d="M11375.09 15502.16l3.34 44.86c466.95,0.05 403.15,38.89 785.23,178.55l6.56 -92.52 -113.78 -75.22 123.12 -289.46c-415.55,262.66 -241.82,282.21 -804.47,233.79z"/>
  <path class="fil12" d="M10990.91 13515.77c262.61,-9.38 274.87,46.58 393.44,272.68l53.14 -107.12 60.04 -67.15c-140.14,-90.99 -335.85,-187.99 -414.73,-330.18l-28.33 -25.08 -63.56 256.85z"/>
  <polygon class="fil12" points="7757.53,12365.34 7861.05,12517.2 7725.17,12452.03 7748.81,12611.81 7962.79,12602.9 8016.71,12424.44 8004.68,12291.54 "/>
  <path class="fil12" d="M8005.74 13273.73l-245.15 -33.44 -19.56 126.22 373.59 -35.11 87.8 -59.91c114.24,-33.98 31.45,37.04 13.64,-115.67l-65.75 -28.19 -144.57 146.1z"/>
  <polygon class="fil12" points="7663.58,12800.46 7629.48,12945.55 7749.81,12923.16 7986.72,12834.67 7945.32,12781.92 7770.51,12900.81 "/>
  <polygon class="fil12" points="8763.29,14549 8845.18,14444.2 8718.6,14509.36 "/>
  <path class="fil13" d="M9166.75 17201.24c231.14,5.02 308.68,137.83 353.1,346.26l171.87 -73.37c-97.02,-58.21 -474.21,-414.98 -480.72,-512.26l-44.25 239.37z"/>
  <path class="fil13" d="M9130.66 17463.82l197.99 31.06c-19.7,-138.72 -57.34,-123.81 -183.26,-192.23l-14.73 161.17z"/>
  <polygon class="fil13" points="8625.92,10383.15 8538.51,10101.83 "/>
  <path class="fil14" d="M9145.39 17302.65c125.92,68.42 163.56,53.51 183.26,192.23l-197.99 -31.06 86.63 118.37 302.56 -34.69c-44.42,-208.43 -121.96,-341.24 -353.1,-346.26l-21.36 101.41z"/>
  <path class="fil14" d="M11082.8 13284c78.88,142.19 274.59,239.19 414.73,330.18l22.33 -197.79c-159.3,-59.39 -321.77,-104.53 -374.98,-252.67l-62.08 120.28z"/>
  <path class="fil14" d="M10284.47 13213.2l163.52 -47.52c-72.43,-227.33 -55.91,-79.18 76.69,-131.72l-117.14 -130.34 -63.27 0 -59.8 309.58z"/>
  <path class="fil15" d="M9217.95 15634.93c-25.17,-213.46 -50.78,-213.72 22.82,-413.29 279.67,-99.49 587.29,-58.34 876.81,-20.92l711.76 273.78 -3.12 -29.63 -1883.34 -942.66c-114.56,506.12 -220.41,828.15 275.07,1132.72z"/>
  <path class="fil15" d="M10981.4 16351.15c-441.14,711.05 -743.03,123.55 -1102.5,40.91 319.31,271.35 393.15,304.85 365.62,772.73 77.82,-310.51 103.31,-181.31 319.97,-260.91 111.08,-40.81 309.85,-229.52 410.14,-316.67 290.67,-252.54 416.8,-587.15 814.64,-595.14l-733.13 -380.91 -36.27 -7.71c-22,213.88 207.48,455.74 -38.47,747.7z"/>
  <polygon class="fil15" points="9380.1,16308.37 9878.9,16392.06 9597.73,16201.66 9589.24,16043.87 "/>
  <polygon class="fil16" points="11531.51,13857.96 11493.94,13891.45 11481.8,14049.51 11482.33,14122.41 11658.55,13982.25 11727.4,13718.16 11659.35,13696.3 "/>
  <polygon class="fil16" points="11243.16,6357.18 11499.54,6220.55 "/>
  <polygon class="fil17" points="11659.35,13696.3 11727.4,13718.16 11924.46,13400.61 11912.54,13350.56 11757.54,13405.47 "/>
  <polygon class="fil17" points="10140.34,12796.18 10269.81,12848.35 10267.7,12843.77 10283.11,12644.48 10106.33,12548.56 "/>
  <path class="fil18" d="M11198.38 12114.62c38.32,-341.21 344.74,-209.54 315.81,23.44 -169.27,48.32 -145.9,42.23 -315.81,-23.44zm586.19 -45.63l-292.7 -325.27 -500.08 124.91c-57.28,282.19 487.06,683.29 792.78,200.36zm0 0c22.48,-175.15 35.47,-152.16 -51.82,-300.13l-240.88 -25.14 292.7 325.27z"/>
  <path class="fil19" d="M11460.77 15635.11c159.65,146.96 491.69,229.46 708.34,274.4l117.96 -2.21 -113.67 -188.75 -9.74 7.02c-382.08,-139.66 -318.28,-178.5 -785.23,-178.55l82.34 88.09z"/>
  <polygon class="fil20" points="11064.95,16701.1 11359.56,16765.71 11248.26,16569.48 "/>
  <polygon class="fil21" points="12732.86,14666.84 13049.21,14661.24 13033.43,15014.58 13057.83,15123.91 13147.18,14747.16 13120.21,14546.91 12840.99,14434.94 "/>
  <path class="fil22" d="M14328.75 9095.09c-88.38,202.42 -359.03,820.85 -276.16,1017.94 43.89,-83.2 299.43,-958.47 276.16,-1017.94z"/>
  <path class="fil23" d="M9783.66 12785l182.06 15.43c160.23,70.6 143.99,36.01 207.15,184.44l96.94 -136.52 -129.47 -52.17 -300.91 -195.28 -32.63 -1.38 -23.14 185.48z"/>
  <path class="fil24" d="M11198.38 12114.61c169.91,65.67 146.52,71.76 315.81,23.46 28.93,-233 -277.5,-364.66 -315.81,-23.46z"/>
  <path class="fil25" d="M11924.46 13400.61l-197.06 317.55 -68.85 264.09c460.82,-57.32 828.71,219.24 959.53,656.6 183.64,-319.09 205.03,-375.08 169.86,-757.78l-189.92 -320.19c-349.9,-155.45 -254.82,-203.39 -673.56,-160.27z"/>
  <path class="fil25" d="M13751.53 12937.53l554.07 52.99c72.49,-178.13 122.33,-403.35 28.74,-570.43 -173.68,-58.51 -462.46,91.22 -597.34,232.91l14.53 284.53z"/>
  <polygon class="fil26" points="12701.31,16433.05 12561.76,16487.36 "/>
  <path class="fil27" d="M10014.51 15432.65c-232.47,215.56 -133.11,287.1 -337.09,482.12l-88.17 129.1 8.47 157.8 281.18 190.39c359.47,82.66 661.36,670.14 1102.51,-40.91 15.77,-390.39 119.42,-571.87 -275.06,-745.69 -323.42,-142.54 -286.87,-294.09 -691.84,-172.81zm0 0c404.97,-121.28 368.42,30.27 691.84,172.81 394.48,173.82 290.83,355.3 275.06,745.69 245.94,-291.97 16.45,-533.82 38.45,-747.71l-190.52 -128.95 -711.75 -273.78 -103.08 231.94z"/>
  <path class="fil27" d="M9350.41 15664.44l-1.91 -32.25c211.06,-20.23 568.34,-27.51 480.21,-342.48 -267.76,-70.45 -495.52,76.05 -478.3,374.73z"/>
  <path class="fil23" d="M9854.31 13920.57c-126.41,73.35 -146.92,18.42 -233.7,-87.95 143.36,-57.95 168.51,-68.02 233.7,87.95zm330.86 -857.01l-12.32 -78.68c-63.15,-148.45 -46.9,-113.84 -207.12,-184.46l-182.07 -15.43c-115.01,183.47 -68.75,279.81 -233.55,440.07l-146.35 -102.92c-52.17,-188.83 5.09,-209.69 65.73,-381.51l-197.31 -261.61 1.62 -62.24c-259.23,-92.68 -284.89,-143.2 -527.54,14.07l-9.78 35.18c-163.34,253.23 -226.18,615.28 -520.4,689.8 17.78,152.7 100.59,81.67 -13.66,115.65l29.18 336.96c221.2,226.88 357.99,169.47 500.65,493.82 205.03,22.2 1197.85,671.64 1616.55,831.61 -703.87,-755.88 -151.31,-152.28 385.54,-256.62 514.91,-100.12 749.82,-763.89 231.96,-1134.92 -77.83,133.55 -56.62,194.01 -211.13,200.11l11.84 -184.11c-13.65,-279.2 -50.39,-320.83 -319.02,-392.65l-163.53 47.53c-66.45,152.16 -15.68,114.38 -142.72,187.5 -81.23,-139.62 -8.8,-162.67 43.43,-337.15zm498.78 483.47l-254.25 -140.92 188.81 -93.64 65.44 234.56zm-1280.19 -424.89l198.56 -540.94 0 -64.87c-199.25,-85.61 -124.41,-85.83 -330.14,-37.31l197.31 261.61c-60.64,171.82 -117.9,192.68 -65.73,381.51zm1025.94 283.97l254.25 140.92 -65.44 -234.56 -188.81 93.64zm18.29 -240.43c268.63,71.82 305.37,113.45 319.02,392.65l152.99 -353.47 -395.32 -170.89c-132.6,52.52 -149.12,-95.61 -76.69,131.71z"/>
  <path class="fil28" d="M12258.8 15282.46l31.78 214.39 -120.36 136.2 -6.56 92.52 9.74 -7.02 618.56 -103.89 -11.07 -12.09c51.24,-213.78 78.96,-248.58 257.76,-374.63l19.18 -104.03 -24.4 -109.33 -189.08 -243.72c-292.67,71.18 -304.3,321.59 -585.55,511.6z"/>
  <path class="fil28" d="M8251.67 12548.61c-82.91,138.17 -156.16,184.99 -306.35,233.31l41.4 52.75c121.32,120.29 149.28,118.21 163.59,292.96l65.75 28.19 308.95 -499.4c-139.15,-97.06 -103.32,-120.31 -273.34,-107.81z"/>
  <path class="fil29" d="M13147.18 14747.16l-89.35 376.75 -19.18 104.03c-52.18,210.46 -64.81,269.7 -257.76,374.63l11.07 12.09c-163.15,306.26 -249.33,352.34 -601.27,350.47l-78.81 173.2c872.11,485.16 1364.23,-821.15 1409.65,-1485.58 -219.02,2.49 -192.41,-19.11 -374.35,94.41z"/>
  <path class="fil29" d="M8746.25 12430.85c242.66,-157.26 268.3,-106.75 527.56,-14.05l41.71 -76.53 -153.73 -171.44 -352.38 -91.12 -142.92 -8.65 79.76 361.79z"/>
  <path class="fil29" d="M7741.03 13366.51l30.28 225.83c180.37,74.51 144.68,91.32 313.1,13.91l30.21 -274.85 -373.59 35.11z"/>
  <polygon class="fil29" points="7760.59,13240.29 8005.74,13273.73 7967.68,12980.72 7749.81,12923.16 7629.48,12945.55 "/>
  <path class="fil29" d="M8163.49 14006.43l149.83 179.16 154.41 27.09 71.97 -80.09c-96.47,-176.71 -140.13,-171.23 -342.85,-241.3l-33.36 115.14z"/>
  <polygon class="fil29" points="8004.68,12291.54 8016.71,12424.44 8162.04,12457.03 8312.1,12152.82 8240.48,12062.56 "/>
  <polygon class="fil29" points="10998.63,15027.36 10975.33,14887.41 10874.2,14967.95 "/>
  <path class="fil30" d="M9217.95 15634.93l132.46 29.51c-17.22,-298.68 210.54,-445.18 478.3,-374.73 88.13,314.97 -269.15,322.25 -480.21,342.48l309.66 107.12 19.26 175.47c203.99,-195.03 104.62,-266.58 337.09,-482.13l103.07 -231.93c-289.52,-37.42 -597.14,-78.57 -876.81,20.92 -73.6,199.57 -47.99,199.83 -22.82,413.29z"/>
  <path class="fil2" d="M12787.94 13881.07c35.17,382.7 13.78,438.69 -169.86,757.78 -182.61,169.23 -171.13,265.71 -417.78,356.37l-126.54 156.1c-165.75,158.46 -250.1,220.87 -473.1,279.49l-463.69 -115.55 -45.76 14.88 283.88 172.02c562.65,48.42 388.92,28.87 804.47,-233.79l65.46 -27.14 487.84 -574.39 108.13 -231.9 87.16 -334.49c165.42,6.71 434.28,303.62 562.15,426.34l65.94 -71.14 -68.33 -134.99 -124.92 -177.97c224,-175.47 503.65,-2.42 647.09,195.05 182.52,251.25 90.95,569.34 59.27,858.4 -92.57,192.09 -57.66,53.38 54.02,109.61l236.17 78.17 164.83 51.68 60.88 163.71c95.41,258.55 48.59,489.03 -124.45,697.93 -213.68,458.85 -915.42,806.53 -1057.87,259.6l-84.02 26.74 6.32 171.84c313.03,404.94 732.28,66.76 1044.12,-29.38l127.05 -191.56c124.02,-245.33 269.58,-473.8 247.83,-760.93 -28.88,-381.19 -233.84,-367 -423.11,-575.88 -312.71,-345.12 277.5,-674.95 -622.14,-1249.58l-305.11 0.28 -190.18 80.66 -178.61 -88.14 -237.14 -59.82z"/>
  <path class="fil2" d="M6571.94 11759.59l88.24 97.96 47.43 -1.08 350.16 320.76c747.81,547.14 341.97,556.38 583.01,1291.32 162.47,495.39 590.77,884.82 1077.82,1040.8l126.58 -65.15 -47.54 -34.07 -165.97 25.44 -111.01 -94.65 -207.35 -155.34 -149.82 -179.15 -114.83 -112.92 -277.34 -301.16 -30.28 -225.85 19.56 -126.21 -131.12 -294.74 34.1 -145.09 85.23 -188.63 -23.64 -159.8c-440.29,-186.07 -756.82,-578.52 -1184.38,-803.88l31.15 111.44zm2191.36 2789.41c-156.09,551.18 -111.91,1016.72 478.04,1235.85 289.83,107.67 268.98,137.18 129.58,397.67 -112.7,210.62 -204.76,405.58 -328.94,612.89 -248.21,1881.96 1418.87,340.51 2022.96,-94.31l183.32 -131.61c108.15,-165.1 354.81,-507.89 562.68,-448.18 98.23,280.96 -201.76,379.58 153.62,622.14 579.69,250.48 773.43,445.19 1224.8,-96.62 67.22,-90.08 -91.6,-71.02 129.54,-63.25l-78.36 -181.56c-175.19,200.5 -448.93,491.79 -735.07,426.83 -387.46,-87.92 -660.27,-215.3 -525.73,-652.81l-13.53 -101.57 -40.24 -63.88 -136.71 -18.53c-397.84,7.99 -523.95,342.61 -814.63,595.14 -100.29,87.16 -299.06,275.86 -410.15,316.67 -216.64,79.61 -242.14,-49.58 -319.96,260.91l-466.2 247.63 -86.6 61.72 -171.88 73.38 -302.55 34.68 -86.62 -118.37 14.72 -161.16 21.35 -101.43 44.26 -239.36 15.88 -112.27 153.22 -541.23 209.15 -264.5 88.17 -129.1 -19.27 -175.45 -309.64 -107.14 1.9 32.27 -132.46 -29.52c-495.48,-304.58 -389.63,-626.59 -275.06,-1132.73l-97.71 -58 -81.88 104.8z"/>
  <path class="fil31" d="M8741.18 8886.58l-4.64 73.04 88.24 135.23c40.49,-342.42 411.93,-1487.62 680.88,-1679.95l-76.91 211.92 144.13 58.42 24.86 214.84 85.48 -74.08c-93.45,-165.71 -63.38,-328.07 -3.81,-505.82l-7.62 -333.69 -47.09 -28.83c-412.6,679.64 -713.71,1128.15 -883.52,1928.92zm4083.84 -2695.76c-50.11,157.21 -459.78,554.47 -624.87,574 11.53,-164.64 421.56,-556.69 546.69,-689.55l78.18 115.55zm-1325.5 29.72l-256.37 136.64 -424 178.35 3.91 37.66c352.3,-105.77 2175.01,-679.83 727.46,-26.19 -839.36,379 -1262.18,575.01 -1572.98,1474.35l40.68 204.68 206.84 -24.61c293.39,-282.38 474.86,-416.69 865.9,-554.44 500.3,-176.26 768.83,-284.76 796.24,367.67l157.52 -48.01 210.65 -950.81 149.11 -132.7 8.58 182.99c462.64,-614.38 1163.01,-776.74 1897.81,-601.94l0 -84.36 -62.3 -44.17 -253.64 -67.41 -77.13 29.34c-252.66,-6.64 -822.59,103.76 -896.61,93.41 3.84,-165.65 285.81,-347.82 418.06,-428.28 -117.3,-128 -155.75,-82.02 -335.12,-66.65l-1604.61 324.48zm3900.06 5592.59l-349.98 92.02 -95.96 30.89 29.41 -95.57 316.32 -80.5c109.01,-87.25 136.66,-135.58 277.71,-66.33l-177.5 119.49zm-3512.38 -3798.48l-54.97 743.62 -8.19 217.22 -53.38 387.48 235.89 -248.84 -4.28 -64.14 -12.29 -133.24c-55.63,-485.31 57.22,-551.17 54.74,-950.11l-157.52 48.01zm3028.66 3643.3c116.5,-113.61 375.38,-177.43 543.89,-168.42 -74.39,157.75 -401.29,258.85 -543.89,168.42zm1551.29 -3603.86l-238.98 193.82 199.1 -249.07c115.23,-127.46 873.52,-807.99 695.13,-912.27 -53.18,-31.05 -1553.99,-147.14 -1742.51,-161.65 -1461.62,-112.57 -2263.82,-33.47 -2920,1347.75l46.42 80.15 266.09 -62.97c674.82,-223.54 1278.32,-565.8 1719.74,270.25 506.31,1116.53 113.52,1391.23 -361.63,2356.48 274.38,257.93 104.09,539.93 50.46,845.3l-29.15 136.5 77.6 104.06c221.73,-4.76 242.31,-88.75 434.19,34.2 705.04,356.46 -117.74,1469.59 -1084.93,900.13l-259.81 -44.99 -691.04 186.96c92.37,180.86 397.36,356.2 564.95,480.2l87.77 6.95 -13.66 -41.31 -43.75 -120.53 1067.95 20.7c229.85,-155.15 533.32,-157.21 800.9,-223.83 416.69,-153.01 399.83,-67.44 459.27,-417.87 14.61,-86.24 596.17,-415.93 743.79,-555.64 370.55,-350.78 1044.38,-1916.2 321.34,-1677.64 -96.02,110.03 -111.55,152.23 -259.11,169.82l211.29 -217.99 36.23 -78.74 -173.18 25.11c59.02,-179.97 174.38,-369.41 336.23,-458.16l53.34 136.06 182.39 -337.12c-43.72,-89.99 17.53,-98.94 -81.03,-47.5l-75.92 -66.37 85.7 -128.85 183.02 -538.56 -101.35 -93.55c-501.73,300.93 -1046.55,938.15 -1600.26,1317.66l-141.49 45.37 13.43 -175.75c191.6,-297.59 382.05,-613.85 580.83,-903.75 442.76,-645.7 398.59,-261.71 888.76,-570.13 84.34,-148.73 71.45,-39.4 40.27,-190.8l-63.38 -54.97c425.42,-625.56 773.5,-748.86 909.12,-1609.52l-155.82 -56.24c-887.43,88.56 -1368.36,143.15 -2240.64,-130.63l-171.47 -37.05 -289.55 -35.15 -91.2 32.73c1011.11,277.08 1386.56,331.41 2436.47,340.01 836.15,6.83 -488.46,1018.73 -661.92,1168.39zm137.65 2368.77l216.39 -296.99 -53.34 -136.06c-161.85,88.75 -277.21,278.19 -336.23,458.16l173.18 -25.11zm317.75 -681.61l144.6 -179.91 -134.82 -15.31 -85.7 128.85 75.92 66.37zm192.8 -733.78l-183.02 538.56 134.82 15.31 244.02 -774.78c-96.08,-92.27 -36.96,-78.11 -124.98,-45.09l-70.84 266zm-101.35 -93.55l101.35 93.55 70.84 -266 -172.19 172.45zm-1600.26 1317.66l-128.06 -130.38 -13.43 175.75 141.49 -45.37zm-3423.76 -1314.83l12.29 133.24 430.92 -465.44c-143.84,-36.23 -150.96,119.84 -97.67,-113.17 -15.09,15.66 -337.38,430.89 -345.54,445.37zm345.54 -445.37c-53.29,233.01 -46.17,76.94 97.67,113.17l339.21 -294.7 -266.09 62.97 -46.42 -80.15 -124.37 198.71zm4460.02 -34.86c31.18,151.4 44.07,42.07 -40.27,190.8l586.51 -336.67 -30.61 495.91 -244.02 774.78 -144.6 179.91c98.56,-51.44 37.31,-42.49 81.03,47.5 266.5,-402.85 617.6,-1173.34 448.67,-1654.3 -125.71,-84.3 -508.65,224.27 -656.71,302.07zm-7970.76 658.33l-88.24 -135.23 4.64 -73.04 7.24 268.41 72.87 422.09 69.98 139.18 -128.06 -95.01 -3.43 -5.84 -193.47 13.84 -21.02 258.79 -6.79 213.79 87.41 281.3 116.19 321.28 283.26 413.93c240.03,-118.94 101.14,-101.45 279.34,-293.17 179.4,-175.41 106.3,-448.42 108.84,-689.9 2.86,-272.85 67.61,-516.84 80.24,-787.7l85.64 -491.06c5.37,-446.41 179.12,-787.28 179.28,-1102.49l-20.74 -37.82 -54.74 109.8 -85.48 74.08 -24.86 -214.84 -144.13 -58.42c-130.98,286.25 -348.04,714.03 -415.04,1009.27 -89.1,392.59 101.64,869.23 41.85,1088.36 -104.24,-26.7 -202.14,-514.84 -230.78,-629.6zm974.47 -457.46l25.75 -10.58 400.06 -425.39 -206.84 24.61 -40.68 -204.68c-120.79,180.55 -173.62,397.45 -178.29,616.04zm-219.83 219.12l-85.64 491.06 331.22 -720.76 -25.75 10.58 -195.06 266.44 -24.77 -47.32zm4367.27 3243.06l25.75 32.1 256.98 -129.23 -77.6 -104.06 29.15 -136.5 -234.28 337.69zm-627.82 792.21l259.81 44.99 -101.71 -134.25 -158.1 89.26zm-4293.51 -1773.44c204.94,379.51 51.51,452.1 185.73,800.68l15.94 104.06 -76.02 -18.58c-337.02,-96.81 -622.01,-217.54 -975.67,-94.68l-165.02 159.08 -35.22 86.72 -83.44 145.77 -83.77 -63.34 -40.55 0.31c-217.57,-162.76 -896,-663.41 -1110.56,-725.33l-37.02 32.64 1137.77 819.67 247.14 -73.79 235.79 -229c183.31,-98.75 385.45,-98.34 568.95,15.14l352.37 91.13 280.82 64.37 4.38 -62.71 -112.12 -336.93c-99.32,-149.88 -82.18,-168.49 -40.8,-344.84l10.64 -663.54c-178.2,191.72 -39.31,174.23 -279.34,293.17zm3747.04 -2828.49l-339.21 294.7 -430.92 465.44 4.28 64.14c379.93,-67.76 741.79,-254.38 1127.74,-367.1 553.81,-161.78 773.31,-193.44 1357.85,-186.93 -441.42,-836.05 -1044.92,-493.79 -1719.74,-270.25z"/>
  <path class="fil32" d="M10141.67 6946.82l-249.01 376.96 -154.68 392.41 20.72 37.83c207.53,-228.42 262.63,-447.65 447.34,-678.26 175.92,-219.65 411.15,-300.59 617.02,-502.58l-3.92 -37.66c-250.14,80.58 -476.97,244.46 -677.47,411.3z"/>
  <path class="fil8 str1" d="M12413.06 7066.12c-170.64,-59.75 -44.43,85.8 -110.66,-32.57 -11.28,-20.14 -32.17,-10.01 -47.03,-17.72l-210.65 950.81c2.48,398.94 -110.37,464.8 -54.74,950.11 8.16,-14.48 330.45,-429.71 345.54,-445.37l124.37 -198.71c656.18,-1381.22 1458.38,-1460.32 2920,-1347.75 188.52,14.51 1689.33,130.6 1742.51,161.65 178.39,104.28 -579.9,784.81 -695.13,912.27l39.88 55.25c173.46,-149.66 1498.07,-1161.56 661.92,-1168.39 -1049.91,-8.6 -1425.36,-62.93 -2436.47,-340.01l-381.73 -81.51c-734.8,-174.8 -1435.17,-12.44 -1897.81,601.94zm-157.69 -50.29c14.86,7.71 35.75,-2.42 47.03,17.72 66.23,118.37 -59.98,-27.18 110.66,32.57l-8.58 -182.99 -149.11 132.7zm4211.78 1038.26l-39.88 -55.25 -199.1 249.07 238.98 -193.82z"/>
  <path class="fil8 str1" d="M16755.27 8627.32c-490.16,308.42 -445.99,-75.56 -888.76,570.14 -198.79,289.88 -389.22,606.14 -580.84,903.74l128.09 130.39c553.69,-379.52 1098.52,-1016.75 1600.25,-1317.67l172.2 -172.45c87.99,-33.01 28.89,-47.2 124.96,45.1l30.63 -495.92 -586.53 336.67z"/>
  <path class="fil8 str1" d="M10823.06 6573.18c-205.87,201.99 -441.1,282.93 -617.02,502.58 -184.71,230.61 -239.81,449.84 -447.34,678.26 -0.16,315.21 -173.92,656.09 -179.26,1102.49l24.75 47.3 195.06 -266.43c4.67,-218.59 57.5,-435.49 178.28,-616.03 310.81,-899.34 733.63,-1095.34 1572.98,-1474.35 1447.55,-653.65 -375.15,-79.58 -727.45,26.18z"/>
  <path class="fil33" d="M14044.03 15911.68c-96.52,179.41 -333.16,608.3 -592.63,446.74 29.69,-142.86 217.23,-286.97 297.97,-568.27 -212.46,91 -342.06,345.94 -508.82,520.44l0 91.44 78.36 181.55 84.02 -26.74c269.57,-212.06 631.81,-20.63 769.47,-742.72l37.31 -321.62 -181.19 -65.98c65.56,236.69 104.56,242.44 15.51,485.16z"/>
  <path class="fil8 str1" d="M8824.78 9094.85c28.64,114.76 126.54,602.9 230.78,629.6 59.79,-219.13 -130.95,-695.77 -41.85,-1088.36 67,-295.24 284.06,-723.02 415.04,-1009.27l76.91 -211.92c-268.95,192.33 -640.39,1337.53 -680.88,1679.95z"/>
  <path class="fil33" d="M6540.8 11648.15c427.55,225.35 744.08,617.81 1184.37,803.88l135.88 65.17 -103.52 -151.86 -1137.78 -819.67c-98.29,37.83 -72.81,-72.51 -78.95,102.48z"/>
  <path class="fil33" d="M13014.39 11937.8c170.48,23.44 56.53,25.18 97.9,-51.96 -348.76,-204.84 -641.53,-210.89 -1010.57,-323.95l-271.8 -31.59 -100.01 107.04c192.65,98.6 447.6,93.02 646.57,121.29 258.2,36.68 398.6,104.61 637.91,179.17z"/>
  <path class="fil33" d="M10174.6 11322.06c314.74,38.7 458.84,166.76 815.2,72.96l-37.11 -188.75 -77.64 -9.5c-204.04,124.37 -511.64,32.62 -752.44,28l-212.82 15.49 264.81 81.8z"/>
  <path class="fil33" d="M11253.95 14547.52c487.69,-23.54 770.8,89.2 819.81,603.8l126.54 -156.1c-221.85,-388.43 -419.58,-500.13 -860.73,-549.15 -1.85,1.79 -80.22,96.2 -85.62,101.45z"/>
  <path class="fil33" d="M13325.23 16755.42l-6.32 -171.84c-221.15,-7.77 -62.34,-26.83 -129.55,63.25l135.87 108.59z"/>
  <path class="fil34" d="M9226.88 16849.6c371.95,7.08 699.73,123.63 551.45,562.82l466.19 -247.63c27.53,-467.88 -46.31,-501.38 -365.62,-772.73l-498.8 -83.69 -153.22 541.23z"/>
  <path class="fil34" d="M12701.31 16433.05l-139.55 54.31 139.55 -54.31zm539.24 -31.02l0 -91.44 -406.42 225.63 -54.02 -100.92 -78.8 -2.25 116.95 -164.74c-224.48,-54.69 -180.75,105.59 -406.6,62.99 -87.82,-16.56 -301.93,-119.83 -431.92,-155.27 -134.55,437.53 138.27,564.91 525.73,652.83 286.14,64.94 559.88,-226.35 735.08,-426.83z"/>
  <path class="fil34" d="M13487.91 14320.66l135.21 24.36 14.34 471.05c352.49,-71.28 205.43,486.59 191.03,699.29l240.86 -319.22c31.68,-289.06 123.25,-607.15 -59.27,-858.4 -143.44,-197.47 -423.09,-370.52 -647.09,-195.05l124.92 177.97z"/>
  <path class="fil34" d="M11167.96 14723.01c459.52,60.66 637.27,273 432.7,707.8 223,-58.62 307.35,-121.03 473.1,-279.49 -49.01,-514.6 -332.12,-627.34 -819.81,-603.8l-85.99 175.49z"/>
  <path class="fil34" d="M14028.52 15426.52l181.19 65.98 -37.31 321.62c347.5,43.28 306.88,152.08 288.4,483.12 173.04,-208.9 219.86,-439.38 124.45,-697.93l-225.71 -215.39 -236.17 -78.17 -94.85 120.77z"/>
  <path class="fil34" d="M8797.65 14410.14l47.53 34.06 97.7 58.01 1883.34 942.66c-357.69,-250.94 -628.08,-447.79 -1029.55,-639.23 -362.55,-172.9 -736.22,-337.3 -1059.31,-580.12l60.29 184.62z"/>
  <path class="fil34" d="M12840.99 14434.94l279.22 111.97 26.97 200.25c181.94,-113.52 155.33,-91.92 374.35,-94.41l-31.23 -125.96c-127.87,-122.72 -396.73,-419.63 -562.15,-426.34l-87.16 334.49z"/>
  <path class="fil34" d="M11789.27 15992.07l136.7 18.52 40.25 63.87 145.66 63.87 78.81 -173.2 -21.58 -55.62c-216.65,-44.94 -548.69,-127.44 -708.34,-274.4 -209.18,-27.83 -226.2,-95.4 -404.63,-23.95l733.13 380.91z"/>
  <polygon class="fil34" points="10407.54,12903.62 10524.68,13033.96 10920.01,13204.87 10942.43,12962.88 10459.78,12760.5 "/>
  <path class="fil34" d="M9273.81 12416.8l-1.63 62.23c205.71,-48.53 130.9,-48.3 330.13,37.3l46.73 -116.11 -206.44 -167.03 -280.81 -64.36 153.73 171.44 -41.71 76.53z"/>
  <path class="fil34" d="M13860.88 15657.39c147.51,109.82 135.33,76.27 183.15,254.29 89.05,-242.72 50.05,-248.47 -15.51,-485.16l-167.64 230.87z"/>
  <path class="fil34" d="M8048.67 13893.51l120.87 -107.44 -85.13 -179.82c-168.42,77.41 -132.73,60.6 -313.1,-13.91l277.36 301.17z"/>
  <polygon class="fil34" points="9839.43,12600.9 10140.34,12796.18 10106.33,12548.56 9893.31,12483.36 "/>
  <polygon class="fil34" points="8313.32,14185.59 8520.67,14340.92 8664.97,14328.45 8585.36,14137.37 8539.7,14132.59 8467.73,14212.68 "/>
  <path class="fil35" d="M12065 11471.73l36.72 90.16c369.04,113.06 661.81,119.11 1010.57,323.95l154.85 0.39 68.94 -133.36c164.81,-200.47 235.85,-335.64 279.19,-594.22 -300.48,15.23 -603.23,20.5 -902.71,47.99 -388.99,35.72 -383.75,-0.1 -647.56,265.09z"/>
  <path class="fil35" d="M9792.56 10826.11l79.59 308.72 250.46 89.94c240.8,4.62 548.4,96.37 752.44,-28 -142.27,-496.57 -681.62,-617.49 -906.54,-1123.81l-123.48 77.42 -52.47 675.73z"/>
  <path class="fil35" d="M12780.11 16435.3l54.02 100.92 406.42 -225.63c166.76,-174.5 296.36,-429.44 508.82,-520.44l79.12 -274.79c14.4,-212.7 161.46,-770.57 -191.03,-699.29 -130.27,756.81 -344.77,1075.96 -857.35,1619.23z"/>
  <path class="fil35" d="M13402.93 16556.84c142.45,546.93 844.19,199.25 1057.87,-259.6 18.48,-331.04 59.1,-439.84 -288.4,-483.12 -137.66,722.09 -499.9,530.66 -769.47,742.72z"/>
  <path class="fil35" d="M10975.33 14887.41l23.3 139.95 138.34 287.9 463.69 115.55c204.57,-434.8 26.82,-647.14 -432.7,-707.8l-192.63 164.4z"/>
  <path class="fil35" d="M9211 16961.87c6.51,97.28 383.7,454.05 480.72,512.26l86.61 -61.71c148.28,-439.19 -179.5,-555.74 -551.45,-562.82l-15.88 112.27z"/>
  <path class="fil35" d="M13749.37 15790.15c-80.74,281.3 -268.28,425.41 -297.97,568.27 259.47,161.56 496.11,-267.33 592.63,-446.74 -47.82,-178.02 -35.64,-144.47 -183.15,-254.29l-111.51 132.76z"/>
  <path class="fil35" d="M8355.62 12219l98.88 125.61 198.34 43.55c10.41,-204.38 -30.09,-241.48 -222.4,-311.25l-74.82 142.09z"/>
  <path class="fil36" d="M11491.87 11743.72l240.88 25.14c87.29,147.97 74.3,124.98 51.82,300.13 -305.72,482.93 -850.06,81.83 -792.78,-200.36l500.08 -124.91zm-2197.81 -255.01c-41.38,176.35 -58.52,194.96 40.8,344.84l112.12 336.93 2141.77 1037.02 183.15 50.45 277.93 -115.71 578 -63.5 691.04 -186.96 158.1 -89.26 101.71 134.25c967.19,569.46 1789.97,-543.67 1084.93,-900.13l-175.85 27.94c-42.61,99.55 89.77,-75.6 17.75,45.06 -88.02,147.49 -85.16,-2.61 -87.06,252.78 -2.1,285.37 129.71,398.69 -112.85,628.11l-554.06 -53c-245.8,-417.99 81.38,-250.31 -457.02,-543.8 -433.72,-236.37 -102.75,-173.97 -280.13,-455.94 -239.32,-74.56 -379.7,-142.48 -637.91,-179.15 -198.97,-28.29 -453.91,-22.7 -646.59,-121.3l100.02 -107.04 -190.86 -136.69 29.27 -106.28 -19.97 -103.29 -45.47 -236.72 91.58 245.99 379.67 -44.49c443.52,-22.86 1566.02,-377.44 1866.75,-283.39l151.65 153.97 37.98 -102.82c475.15,-965.25 867.94,-1239.95 361.63,-2356.48 -584.54,-6.51 -804.04,25.15 -1357.85,186.93 -385.95,112.72 -747.81,299.34 -1127.74,367.1l-235.89 248.84 53.38 -387.48 8.19 -217.22 54.97 -743.62c-27.41,-652.43 -295.94,-543.93 -796.24,-367.67 -391.04,137.75 -572.51,272.06 -865.9,554.44l-400.06 425.39 -331.22 720.76c-12.63,270.86 -77.38,514.85 -80.24,787.7 -2.54,241.48 70.56,514.49 -108.84,689.9l-10.64 663.54zm880.54 -166.64l-264.82 -81.8 212.84 -15.49 -250.47 -89.96 -79.6 -308.7 -56.4 38.86c-40.54,-314.6 20.07,-514.9 75.07,-819.98l-134.73 21.24 -106.66 -98.4c49.7,-197.86 48.87,-462.74 308.1,-381.58l304.2 -8.73c155.17,530.91 389.13,1052.48 899.65,1326.13l47.6 139.87 -176.71 162.74 37.12 188.77c-356.36,93.8 -500.46,-34.3 -815.19,-72.97zm4154.14 -2226.96c23.28,59.44 -232.27,934.71 -276.15,1017.93 -82.88,-197.09 187.79,-815.54 276.15,-1017.93zm-4652.25 971.13l134.73 -21.24 21.94 -77.13 -10.16 12 -253.17 -12.03 106.66 98.4zm-106.66 -98.4l253.17 12.03 -119.61 -153.75 174.54 -239.86c-259.23,-81.16 -258.4,183.72 -308.1,381.58zm4158.56 1182.38c-87.26,266.79 -131.55,419.46 -329.47,634.39l-62.84 -31.75 -68.93 133.36 -154.86 -0.38c-41.38,77.13 72.59,75.38 -97.9,51.95 177.38,281.97 -153.59,219.57 280.13,455.94 538.4,293.49 211.22,125.81 457.02,543.8l-14.54 -284.54c134.88,-141.68 423.68,-291.39 597.33,-232.9 93.61,167.08 43.76,392.3 -28.73,570.44 242.56,-229.42 110.75,-342.74 112.85,-628.11 1.9,-255.39 -0.96,-105.29 87.06,-252.78 72.02,-120.66 -60.36,54.49 -17.75,-45.06l175.85 -27.94c-191.88,-122.95 -212.46,-38.96 -434.19,-34.2l-256.98 129.23 -122.37 95.68 96.62 -127.78 234.28 -337.69c53.63,-305.37 223.92,-587.37 -50.46,-845.3l-37.98 102.82 -151.65 -153.97c49.73,202.17 81.54,193.66 11.08,405.39l-223.57 -120.6z"/>
  <path class="fil36" d="M11482.33 14122.41l-142.76 323.66c441.15,49.02 638.88,160.72 860.73,549.15 246.65,-90.66 235.17,-187.14 417.78,-356.37 -130.82,-437.36 -498.71,-713.92 -959.53,-656.6l-176.22 140.16z"/>
  <path class="fil36" d="M11144.88 13163.72c53.21,148.14 215.68,193.28 374.98,252.67l68.88 -208.9 -418.69 -115.43 -25.17 71.66z"/>
  <path class="fil37" d="M9877.93 9586.26l-174.54 239.86 119.61 153.75 10.16 -12 135.36 105.1c200.12,450.45 713.05,619.71 1023.41,912.83l98.53 93.07c11.98,11.29 25.25,-22.75 38.92,-35.34l-47.6 -139.87c-510.52,-273.65 -744.48,-795.22 -899.65,-1326.13l-304.2 8.73z"/>
  <path class="fil37" d="M12074.13 11148.82l-109.81 157.31 -148 -9.4c141.91,150.89 177.37,283.9 326.14,98.59 164.57,-204.99 223.47,-156.83 570.09,-188.67 299.49,-27.5 602.26,-32.77 902.74,-47.98l113.1 -8.45 223.57 120.6c70.46,-211.73 38.65,-203.22 -11.08,-405.39 -300.73,-94.05 -1423.23,260.53 -1866.75,283.39zm-405.81 138.51l296 18.8 109.81 -157.31 -379.67 44.49 -91.58 -245.99 45.47 236.72 19.97 103.29zm-538.94 -243.8l-47.6 -139.87 47.6 139.87z"/>
  <path class="fil37" d="M11128.16 11044.42l-272.45 -117.21 -26.72 -189.96 318.44 211.49 192.99 -177.91 -147.67 190.51 -64.59 83.08zm-299.17 -307.17l26.72 189.96 136.23 58.6c-194.83,70.33 -286.66,172.94 -335.47,-59.66 -53.98,-257.27 29.25,-272.47 -265.45,-457.74l30.43 35.03c97,111.75 264.56,151.75 407.54,233.81z"/>
  <path class="fil38" d="M17586.72 4051.77l0 -119.38c-165.68,45.81 -256.53,115.41 -330.42,233.75 -156.54,250.7 27.4,45.51 -280.15,364.24 -589.68,611.12 -676.31,716 -1714.6,791.07 -199.15,14.38 -348.2,-12.89 -551.26,188.19 -147.81,146.36 -24.8,124.54 -173.21,310.55 -283.91,-121.87 -83.87,-340.49 -625.15,-427.4 -425.82,-68.39 -426.89,-48.58 -802.75,-266.24 -196.46,-113.77 -1003.12,-909.72 -1100.18,-1046.33 12.41,-246.75 260.73,-1113.79 336.27,-1398.56 129.92,-489.94 103.96,-1002.88 328.82,-1478.13 663.42,-331.66 2609.15,-683.8 3273.04,-467.11 219.19,180.36 345.22,433 476.7,609.11 99.71,133.59 146.61,93.73 268.95,267.11 23.06,32.67 94.98,160.32 105.29,170.35 253.37,246.25 197.35,42.89 211.19,33.78 -274.15,-403.76 -736,-1065.18 -1096.08,-1309.61 -737.33,-18 -2663.28,173.72 -3278.87,554.5 -189.46,117.2 -780.2,2743.74 -792.67,3110.99 319.71,278.57 1163,1240.25 1637.65,1314.99 171.5,26.99 349.09,1.55 517.38,53.79 371.07,115.2 320.67,523.06 439.91,715.58 236.75,-258.15 264.22,-643.97 563.01,-722.57 378.75,-99.61 793.69,-111.86 1170.47,-192.04 575.97,-122.6 1003.68,-953.96 1416.66,-1290.63z"/>
  <path class="fil38" d="M13774.59 1031.88c234.4,97.6 177.85,204.83 300.8,435.07 224.39,-45.12 161.47,-97 435.33,-97.48l816.78 1943.16 423.02 -72.3 -44.75 448.92 -380.14 162 107.19 330.78 452.71 -113.74 60.01 430.18c-49.59,36.45 -45.69,41.63 -119.08,82.72 -25.11,14.1 -79.31,35.84 -109.45,50.84 -263.1,130.94 -401.35,276.95 -723.26,322.06l-275.59 -340.29c161.43,-99.26 149.31,-112.22 302.39,-225.29l-85.58 -308.7c-314.51,82.02 -352.4,241.61 -720.86,274.34l-77.63 -499.16 251.45 -169.21 -811.79 -1764.92c80.67,-85.83 7.58,-20.16 99.22,-91.98l267.02 -246.48 -167.79 -550.52zm384.82 200.17c-192.01,-62.9 -59.76,-64.08 -194.27,-228.66l-258.72 -5.4c-24.74,253.84 91.42,256.95 6.06,491.7l-208.61 381.28c-98.19,303.6 605.46,1443.41 629.88,1606.96 55.57,372.21 -287.65,453.62 51.47,977.42l460.42 -42.42 4.82 407.29c349.13,419.97 463.41,294.2 916.46,74.98 410.82,-198.75 565.58,-318.64 535.26,-779.55l-307.75 -198.1c67.37,-327.4 40.45,-6.54 57.03,-294.95 16.67,-290.35 -10.35,-18.67 75.63,-222.75 -107.48,-315.75 -255.55,-231.1 -545.7,-309.91 -68.34,-154.47 -183.79,-514.62 -240.19,-692.37 -75.34,-237.58 -195.05,-318.68 -285.23,-607.59 -234.4,-751.03 -486.96,-489.25 -696.56,-557.93z"/>
  <path class="fil26" d="M12024.34 2636.35l-311.06 1249.82 -70.07 336.95c194.23,206.99 522.65,428.91 736.13,672.68 288.85,329.82 509.79,461.14 598.95,588.44 68.71,98.12 -10.38,57.6 83.2,124.16l867.93 80.65c299.59,110.72 338.8,477.51 311.02,762.7l280.44 66.18c64.05,-207.16 112.03,-345.79 279.3,-469.37 50.27,-402.82 263.75,-407.36 628.64,-472.68 307.12,-54.96 675.86,-62.07 966.28,-163.62 362.37,-126.66 888.82,-926.24 1191.62,-1147.36l0 -213.13c-412.98,336.67 -840.69,1168.03 -1416.66,1290.63 -376.78,80.18 -791.72,92.43 -1170.47,192.04 -298.79,78.6 -326.26,464.42 -563.01,722.57 -119.24,-192.52 -68.84,-600.38 -439.91,-715.58 -168.29,-52.24 -345.88,-26.8 -517.38,-53.79 -474.65,-74.74 -1317.94,-1036.42 -1637.65,-1314.99 12.47,-367.25 603.21,-2993.79 792.67,-3110.99 615.59,-380.78 2541.54,-572.5 3278.87,-554.5 360.08,244.43 821.93,905.85 1096.08,1309.61l577.46 840.69 0 -275.64c-179.93,-181.15 -633.31,-897.88 -825.79,-1161.05 -152.04,-207.82 -276.54,-340.57 -450.39,-522.49 -287.27,-300.64 -138.15,-344.11 -610.77,-344.33 -1038.86,-0.42 -2304.44,217.82 -3286.78,607.59l-388.65 1674.81z"/>
  <path class="fil26" d="M15481.15 4605.01c-142.41,80.49 -300.86,173.18 -458.64,185.75l-89.79 -145.62 260.5 -211.61c-52.93,-202.92 -213,-274.21 -91.45,-463.11 212.59,21.49 19.27,-183.34 281.52,380.28l419.97 -121.78c-7.69,304.35 -32.52,212.37 -322.11,376.09zm-1070.45 -2234.28c417.01,-128.05 479.18,-214.23 236.52,254.92 280.8,-84.91 228.37,-65.31 552.63,815.48l418.47 -20.01c-28.09,250.63 -318.89,281.97 -580.57,413.05 -228.46,114.44 -457.58,263.14 -699.77,337.66 -57.4,-377.45 -84.96,-207.73 208.72,-430.89 -49.82,-383.22 -651.74,-1310.98 -799.26,-1780.77 127.84,-154.45 452.51,-396.66 672.12,-454l231 615.88c-128.82,160.36 -176.17,67.44 -239.86,248.68zm-335.31 -903.78c-122.95,-230.24 -66.4,-337.47 -300.8,-435.07l167.79 550.52 -267.02 246.48c-91.64,71.82 -18.55,6.15 -99.22,91.98l811.79 1764.92 -251.45 169.21 77.63 499.16c368.46,-32.73 406.35,-192.32 720.86,-274.34l85.58 308.7c-153.08,113.07 -140.96,126.03 -302.39,225.29l275.59 340.29c321.91,-45.11 460.16,-191.12 723.26,-322.06 30.14,-15 84.34,-36.74 109.45,-50.84 73.39,-41.09 69.49,-46.27 119.08,-82.72l-60.01 -430.18 -452.71 113.74 -107.19 -330.78 380.14 -162 44.75 -448.92 -423.02 72.3 -816.78 -1943.16c-273.86,0.48 -210.94,52.36 -435.33,97.48z"/>
  <path class="fil26" d="M8495.53 7002.21c-70.26,137.39 -60.17,206.71 -215.92,144.03l-55.59 84.97c-13.09,207.38 -6.9,154.35 -117.43,330.26l-94.62 164.48c-112.53,-31.21 -45.66,20.04 -141.24,-63.38l-62.93 86.69c145.52,400.28 -271.55,758.39 -202.08,1280.4l-12.79 -45.31 157.36 -17.87 168.07 -557.97 89.45 -260.31 154.67 180.8c223.7,2.51 76.55,19.34 128.5,-59.76 -207.66,-409.64 -234.59,-239.67 31.91,-670.81l214.62 66.02c-11.75,-244.5 -136.69,-198.02 31.47,-408 100.82,-125.84 246.94,-211.89 354.78,-328.39l-71.35 -105 -356.88 179.15zm-399.48 -77.13l127.97 306.13 55.59 -84.97 12.32 -95.23 -155.97 -179.56c-48.74,40.2 -62.04,-21.91 -39.91,53.63zm-288.25 824.18l62.93 -86.69 -74.27 -147.43 -204.49 -134.57c45.47,189.06 91.96,238.4 215.83,368.69zm-202.08 1280.4l5.56 131.65 113.32 -26.73 25.69 -168.1 -157.36 17.87 12.79 45.31zm1318.04 -2101.6l153.01 -55.76 -82.81 -107.99 -141.55 58.75 71.35 105z"/>
  <path class="fil26" d="M15858.06 13943.45l-205.34 -278.92c-39.34,60.02 -73.74,12.26 -11.94,215.1 52.01,170.74 56.87,52.11 49.37,266.22l-452.79 319.63c236.77,129.74 373.06,-33.98 566.68,-178.9l228.63 176.48c-45,-324.08 -170.58,-251.64 41.47,-468.93 162.39,113.27 129.49,211.83 313.4,266.38l-150.73 -418.79c90.66,-297.91 276.89,-309.66 247.93,-637.22 -223.77,86.21 -419.46,560.06 -626.68,738.95z"/>
  <path class="fil39" d="M13706.42 997.99l258.72 5.4c134.51,164.58 2.26,165.76 194.27,228.66 209.6,68.68 462.16,-193.1 696.56,557.93 90.18,288.91 209.89,370.01 285.23,607.59 56.4,177.75 171.85,537.9 240.19,692.37 290.15,78.81 438.22,-5.84 545.7,309.91 -85.98,204.08 -58.96,-67.6 -75.63,222.75 -16.58,288.41 10.34,-32.45 -57.03,294.95l307.75 198.1c30.32,460.91 -124.44,580.8 -535.26,779.55 -453.05,219.22 -567.33,344.99 -916.46,-74.98l-4.82 -407.29 -460.42 42.42c-339.12,-523.8 4.1,-605.21 -51.47,-977.42 -24.42,-163.55 -728.07,-1303.36 -629.88,-1606.96l208.61 -381.28c85.36,-234.75 -30.8,-237.86 -6.06,-491.7zm3880.3 2934.4l0 -1274.93 -577.46 -840.69c-13.84,9.11 42.18,212.47 -211.19,-33.78 -10.31,-10.03 -82.23,-137.68 -105.29,-170.35 -122.34,-173.38 -169.24,-133.52 -268.95,-267.11 -131.48,-176.11 -257.51,-428.75 -476.7,-609.11 -663.89,-216.69 -2609.62,135.45 -3273.04,467.11 -224.86,475.25 -198.9,988.19 -328.82,1478.13 -75.54,284.77 -323.86,1151.81 -336.27,1398.56 97.06,136.61 903.72,932.56 1100.18,1046.33 375.86,217.66 376.93,197.85 802.75,266.24 541.28,86.91 341.24,305.53 625.15,427.4 148.41,-186.01 25.4,-164.19 173.21,-310.55 203.06,-201.08 352.11,-173.81 551.26,-188.19 1038.29,-75.07 1124.92,-179.95 1714.6,-791.07 307.55,-318.73 123.61,-113.54 280.15,-364.24 73.89,-118.34 164.74,-187.94 330.42,-233.75z"/>
  <path class="fil40" d="M13747.44 1960.17c147.52,469.79 749.44,1397.55 799.26,1780.77 -293.68,223.16 -266.12,53.44 -208.72,430.89 242.19,-74.52 471.31,-223.22 699.77,-337.66 261.68,-131.08 552.48,-162.42 580.57,-413.05l-418.47 20.01c-324.26,-880.79 -271.83,-900.39 -552.63,-815.48 242.66,-469.15 180.49,-382.97 -236.52,-254.92 63.69,-181.24 111.04,-88.32 239.86,-248.68l-231 -615.88c-219.61,57.34 -544.28,299.55 -672.12,454z"/>
  <path class="fil40" d="M15193.22 4433.53l-260.5 211.61 89.79 145.62c157.78,-12.57 316.23,-105.26 458.64,-185.75 289.59,-163.72 314.42,-71.74 322.11,-376.09l-419.97 121.78c-262.25,-563.62 -68.93,-358.79 -281.52,-380.28 -121.55,188.9 38.52,260.19 91.45,463.11z"/>
  <polygon class="fil26" points="17471.87,2490.33 17586.72,2381.83 17586.72,4283.49 17374.84,4259.7 17504.99,3511.16 "/>
  <path class="fil41" d="M9364.77 12202.64c92.82,69.73 234.85,78.97 315.88,229.58l-94.15 133.42 -5.08 72.53 -177.66 483.97 146.35 102.92c164.8,-160.26 118.54,-256.6 233.55,-440.07l21.68 -173.75 32.17 -97.07c138.76,-85.1 220.56,-50.17 478.83,153.3l-70.8 233.96c-28.42,95.19 -60.56,181.18 -90.98,272.69 -60.52,181.98 -76.04,133.37 -19.59,236.69 143.08,-79.51 202.2,-342.07 253.49,-511l64.68 -187.76 526.14 279.21 -48.07 173.27c-30.9,117.43 -59.09,197.6 -98.82,310.8 -3.36,9.62 -41.05,113.39 -42.55,122.98 -43.53,280.86 -29.02,38.99 21.76,151.72l140.06 -179.41c36.58,-162.73 -24.29,-87.95 87.41,-199.6l106.85 -309.4c199.79,56.84 318.42,90.28 440.99,213.89l-85.93 311.56 -76.68 277.39 128.19 6.64 94.56 -162.96 131.23 -408.56 -12.51 -20c-152.41,-144.54 -945.57,-443.94 -1215.5,-593.28 -409.11,-226.3 -803.76,-319.11 -1174.54,-614.42l-10.96 130.76z"/>
  <path class="fil2" d="M5789.04 10655.51l-20.45 126.35c173.75,93.6 437.14,153.97 617.02,94.81 71.32,-189.82 -34.48,-372.11 -108.34,-559.55 -162.03,-131.33 -178.61,-213.95 -408.72,-191.79l-79.51 530.18zm492.71 115.71c-415.87,178.74 -399.55,-343.25 -320.1,-570.48 228.4,17.75 408.31,375.2 320.1,570.48z"/>
  <path class="fil2" d="M5761.86 11128.82l22.99 -125.9c195.02,-30.1 463.43,1.11 613.18,117.04 3.71,202.74 -156.99,339.15 -289.27,491.06 -196.65,69.57 -239.86,141.9 -449.34,44.04l102.44 -526.24zm503.03 55.79c-332.14,-307.56 -491.35,189.79 -492.49,430.51 221.16,59.69 510.3,-216.97 492.49,-430.51z"/>
  <path class="fil2" d="M5663.42 10634.39l-31.37 124.1c-196.58,16.95 -462.32,-32.14 -603.97,-157.82 9.88,-202.52 179.34,-327.88 321.47,-470.61 200.87,-56.26 248.84,-125.52 451.27,-13.87l-137.4 518.2zm-498.17 -89.32c310.83,329.12 502.94,-156.51 520.18,-396.59 -216.65,-74.37 -523.67,182.36 -520.18,396.59z"/>
  <path class="fil2" d="M5701.43 11089.51l20.45 -126.35c-173.75,-93.6 -437.14,-153.97 -617.02,-94.81 -71.32,189.82 34.48,372.11 108.34,559.55 162.03,131.33 178.61,213.95 408.72,191.79l79.51 -530.18zm-492.71 -115.71c415.87,-178.74 399.55,343.25 320.1,570.48 -228.39,-17.75 -408.31,-375.2 -320.1,-570.48z"/>
  <polygon class="fil11" points="6031.68,11267.84 6467.7,11535.84 6550.95,11437.76 6145.11,11146.63 6037.86,11159.65 "/>
  <path class="fil31" d="M6077.22 11390.34c173.76,38.85 187.4,92.99 313.24,222.23 151.99,-4.39 72.49,19.65 77.24,-76.73l-436.02 -268 45.54 122.5z"/>
  <polygon class="fil31" points="6470.3,11437.76 6540.31,11448.6 6522.65,11384.24 6064.46,11146.63 "/>
 </g>
</svg>
