<?xml version="1.0" encoding="UTF-8"?>
<!DOCTYPE svg PUBLIC "-//W3C//DTD SVG 1.1//EN" "http://www.w3.org/Graphics/SVG/1.1/DTD/svg11.dtd">
<!-- Creator: CorelDRAW 2017 -->
<svg xmlns="http://www.w3.org/2000/svg" xml:space="preserve" width="200mm" height="200mm" version="1.1" style="shape-rendering:geometricPrecision; text-rendering:geometricPrecision; image-rendering:optimizeQuality; fill-rule:evenodd; clip-rule:evenodd"
viewBox="0 0 20000 20000"
 xmlns:xlink="http://www.w3.org/1999/xlink">
 <defs>
  <style type="text/css">
   <![CDATA[
    .str0 {stroke:#ED3237;stroke-width:7.62;stroke-miterlimit:22.9256}
    .fil0 {fill:none}
    .fil1 {fill:#ED3237}
   ]]>
  </style>
 </defs>
 <g id="Capa_x0020_1">
  <metadata id="CorelCorpID_0Corel-Layer"/>
  <rect class="fil0" width="20000" height="20000"/>
  <g id="_1775673304304">
   <path class="fil1 str0" d="M11524.05 7805.84c174.83,321.03 21.47,160.69 124.35,383.57 65.38,-122.9 45.89,-233.85 32.46,-395.13l-156.81 11.56z"/>
   <path class="fil1 str0" d="M1987.11 8678.54c-70.76,113.53 -67.42,276.86 -1.39,390.23 58.83,-131 68.11,-264.35 1.39,-390.23z"/>
   <path class="fil1 str0" d="M16441.6 7857.59c-198.29,39.56 -163.84,233.5 -22.34,288.95 131.83,-94.06 127.53,-165.98 22.34,-288.95z"/>
   <path class="fil1 str0" d="M8681.23 8992.47l133.55 7.1c53.1,-112.28 60.88,-81.59 1.88,-228.7 -187.26,-10.64 -219.58,35.37 -135.43,221.6z"/>
   <path class="fil1 str0" d="M2809.77 9005.08c255.02,19.29 248.1,-256.56 -25.69,-230.82l25.69 230.82z"/>
   <path class="fil1 str0" d="M4531.29 8756.37c-269.62,-77.68 -278.44,233.65 -57.64,289.35 114.13,-93.42 104.59,-145.29 57.64,-289.35z"/>
   <path class="fil1 str0" d="M17184.29 8999.23c58.85,-155.49 76.52,-123.9 -49.34,-240.91 -187.71,23.46 -204.67,287.42 49.34,240.91z"/>
   <path class="fil1 str0" d="M2584.69 8133.85c137.34,-78.75 141.65,-180.24 34.73,-279.06 -119.66,60.89 -154.09,147.89 -34.73,279.06z"/>
   <path class="fil1 str0" d="M17037.48 13097.1c140.09,-104.08 101.32,-172.98 -0.19,-270.31 -33.98,54.1 -68.59,-59.53 -59.23,154.68 6.24,142.9 37.1,89.55 59.42,115.63z"/>
   <path class="fil1 str0" d="M1577.27 8878.31c169.55,-9.86 150.55,2.06 152.5,-141.11l-146.41 -11.76 -6.09 152.87z"/>
   <path class="fil1 str0" d="M6807.2 8211.93c111.07,-78.77 69.74,-322.46 28.17,-458.54l-155.63 13.29c4.91,243.89 10.5,25.83 53.04,210.33 38.68,167.77 -54.14,95.86 74.42,234.92z"/>
   <path class="fil1" d="M7668.93 8004.55c-119.13,-63.18 -102.26,-95.12 -229.91,5.29 15.05,12.79 -38.5,94.19 115.55,79.8 172.83,-16.16 71.99,-27.73 114.36,-85.09z"/>
   <path class="fil1" d="M12244.78 8044.18c110.14,87.87 124.03,74.61 224.15,-7.71 -110.37,-119.87 -176.15,-92.93 -224.15,7.71z"/>
   <path class="fil1" d="M16922.39 8041.51c-90.46,-106.1 -151.39,-114 -226.93,9.77 125,75.23 97.51,67.74 226.93,-9.77z"/>
   <path class="fil1 str0" d="M12237.38 9067.21c75.57,-132.94 125.33,-263 5.29,-392.61 -90.96,198.6 32.84,172.32 -91.65,350.77 -253.29,-56.76 -69.65,-126.4 -177.36,-358.11 -130.62,206.6 -61.49,524.28 263.72,399.95z"/>
   <path class="fil1 str0" d="M17258.63 19075.5l-241.16 40.27 -3.7 141.15c172.54,146.33 86.44,-48.71 201.92,137.78 -149.45,112.12 -17.08,26.52 -204.12,63.41 150.35,166.28 242.62,45.72 297.28,-135.58l-208.65 -127.34 158.43 -119.69z"/>
   <path class="fil1 str0" d="M12747.54 8658.19l-289.19 33.54c-11.8,146.28 -32.18,270.29 37.89,398.35 159.39,42.23 107.99,57.6 253.05,-51.2l-189.3 -79.74 144.46 -80.56 -135.12 -103.31 178.21 -117.08z"/>
   <path class="fil1 str0" d="M6561.58 9052.89c169.72,9.66 -21.17,-75.69 187.36,-58.65 157.18,12.84 -16.64,26.56 159.26,58.15 -18.92,-169.68 -37.43,-250.74 -149.34,-381.82 -153.34,75.28 -180.16,206.74 -197.28,382.32z"/>
   <path class="fil1 str0" d="M7274.76 13176.7c134.93,18.34 123.7,37.19 235.51,-25.19 24.28,-26.29 149.11,-491.1 -217.19,-393.28 -84.67,160.58 -71.39,246.74 -18.32,418.47z"/>
   <path class="fil1 str0" d="M13868.07 8802.28c161.06,-119.54 94.95,12.59 217.25,-113.3 -125.06,-75.78 -159.1,-64.39 -315.58,-19.77l28.72 418.28c142.72,31.86 156.83,53.95 287.83,-44.92l-191.79 -69.43 132.85 -101.11 -159.28 -69.75z"/>
   <path class="fil1 str0" d="M15951.6 9060.31c159.35,-3.2 98.83,-154.21 318.34,5.02 10.64,-160.75 -13.3,-282.52 -112.18,-412.45 -126.58,69.59 -174.65,163.55 -206.16,407.43z"/>
   <path class="fil1 str0" d="M17037.48 13097.1c-22.32,-26.08 -53.18,27.27 -59.42,-115.63 -9.36,-214.21 25.25,-100.58 59.23,-154.68 101.51,97.33 140.28,166.23 0.19,270.31zm-164.41 88.62c519.58,91.42 515.4,-503.24 1.59,-446.78 -49.42,183.96 -43.7,262.17 -1.59,446.78z"/>
   <path class="fil1 str0" d="M4531.29 8756.37c46.95,144.06 56.49,195.93 -57.64,289.35 -220.8,-55.7 -211.98,-367.03 57.64,-289.35zm-174.14 339.81c423.64,37.68 348.45,-383.22 145.47,-433.38 -201.19,-49.72 -418.54,208.38 -145.47,433.38z"/>
   <path class="fil1 str0" d="M17184.29 8999.23c-254.01,46.51 -237.05,-217.45 -49.34,-240.91 125.86,117.01 108.19,85.42 49.34,240.91zm119.76 79.38c66.02,-311.89 -22.91,-580.76 -370.38,-371.56 -78.42,202.42 -72.12,239.79 63.42,419.72l306.96 -48.16z"/>
   <path class="fil1 str0" d="M2584.69 8133.85c-119.36,-131.17 -84.93,-218.17 34.73,-279.06 106.92,98.82 102.61,200.31 -34.73,279.06zm124.84 -374.46c-317.18,-26.7 -399.81,157.27 -259.63,425.63 141.48,75.48 128.18,63.49 284.61,16.19 110.8,-184.96 96.34,-274.66 -24.98,-441.82z"/>
   <path class="fil1 str0" d="M12734.99 8233.98c87.41,-131.66 73.41,-290.31 23.26,-472.32l-170.08 49.5c138.73,250.5 -11.26,292.08 146.82,422.82z"/>
   <path class="fil1 str0" d="M2269.19 7761.44l-177.03 11.45c10.97,191.36 35.07,5.72 70.9,238.82 23.14,150.42 -65.09,119.19 76.99,196.84 81.73,-109.74 53.64,-287.86 29.14,-447.11z"/>
   <path class="fil1 str0" d="M6142.67 9087c387.93,113.4 372.4,-211.58 221.54,-448.34l-243.83 17.58 22.29 430.76z"/>
   <path class="fil1 str0" d="M10784.47 9088.03c68.56,-162.08 57.14,-270.81 -23.93,-428.31l-256.56 -5.79 10.23 462.09 270.26 -27.99z"/>
   <path class="fil1 str0" d="M8239.1 7886.78c159.38,-78.59 106.69,80.75 195.15,-87.4 -395.27,-267.66 -490.63,569.84 -7.29,398.35 65.83,-118.31 63.99,-108.55 16.54,-245.97l-204.4 -64.98z"/>
   <path class="fil1 str0" d="M2784.08 8774.26c273.79,-25.74 280.71,250.11 25.69,230.82l-25.69 -230.82zm244.48 310.25c412.16,-561.07 -663.81,-601.94 -301.6,2.37 168.36,55.97 133.83,54.79 301.6,-2.37z"/>
   <path class="fil1 str0" d="M8816.66 8770.87c59,147.11 51.22,116.42 -1.88,228.7l-133.55 -7.1c-84.15,-186.23 -51.83,-232.24 135.43,-221.6zm117.3 -75.13c-528.21,-206.41 -562.16,461.82 -68.26,416.56 149.21,-150.66 140.27,-221.41 68.26,-416.56z"/>
   <path class="fil1 str0" d="M11597.4 9023.07c-135.45,-77.42 -129.82,-133.18 -62.92,-276.74 155.16,13.57 110.93,58.3 234.84,-10.99 -216.51,-246.11 -486.11,-19.16 -372.29,275.82 72.45,187.74 462.6,189.46 398.45,-141.79l-134.11 2.52c-129.06,141.46 28.55,-10.2 -63.97,151.18z"/>
   <path class="fil1 str0" d="M7520.33 9093.58c199.69,-19.51 15.4,-4.67 205.85,-86.32 166.87,90.18 14.31,73.87 195.4,85.59 -2.45,-164.58 -50.77,-390.25 -196.9,-454.32 -116.24,52.32 -92.58,42.05 -145.16,195.99 -36.92,108.14 -51.11,148.48 -59.19,259.06z"/>
   <path class="fil1 str0" d="M14943.68 9090.49c118.01,-2.93 33.22,0.77 161.37,-98.05l193.26 98.17c20.05,-156.85 -34.09,-401.98 -206.83,-452.12 -122.71,88.8 -157.09,299.44 -147.8,452z"/>
   <path class="fil1 str0" d="M2586.18 13185.64c119.74,-33.42 57.11,-7.85 162.88,-108.23l199.49 102.1c26.92,-160.42 -22.2,-342.38 -148.52,-453.93 -165.44,61.01 -206.82,283.29 -213.85,460.06z"/>
   <path class="fil1 str0" d="M10928.14 9094.3c125.8,-12.78 33.54,-7.99 171.85,-97.9l185.77 87.39c19.24,-155.69 -43.02,-376.81 -191.18,-446.17 -124.38,77.32 -170.49,307.74 -166.44,456.68z"/>
   <path class="fil1 str0" d="M17234.76 8087.31c114.99,-163.33 133.58,-82.16 89.3,-283.43 -146.51,-84.6 -217.63,-96.18 -280.04,88.42l180.29 10.83c-131.39,144.03 -191.58,111.87 -179.62,308.2 142.79,56.25 131.34,57.66 276.46,2.81 -13.95,-104.28 3.04,-39.08 -50.72,-103.56l-35.67 -23.27z"/>
   <path class="fil1 str0" d="M16012.65 8080.01c256.09,-255.79 -5.13,-455.02 -200.85,-239.44l183.8 79.56c-151.05,141.19 -176.66,72.78 -178.8,301.02 138.77,36.29 140.31,49.68 267.65,-19.95 -19.57,-178.85 -6.36,32.62 -71.8,-121.19z"/>
   <path class="fil1 str0" d="M9848.29 19070.41l23.01 74.75c1.87,5.47 7.51,17.69 9.39,23.22l118.83 238.59 -175.74 20.99c65.45,138.25 129.61,144.24 285.21,67.09 36.5,-142.89 11.26,-189.99 -2.95,-439.7l-257.75 15.06z"/>
   <path class="fil1 str0" d="M3350.99 8767.71c164.35,-50.31 109.31,63.16 244.17,-38.59 -206.95,-245.34 -433.87,-11.77 -377.81,291.05 141.31,129.68 279.49,178.79 384.04,-5.01 -154.72,-83.72 -22.18,8.84 -239.01,-15.49 -64.69,-132.24 -66.07,-97.52 -11.39,-231.96z"/>
   <path class="fil1 str0" d="M2997.11 19530.86c107.66,-163.86 80.7,-272 33.29,-475.91l-183.95 45.94c138.89,179.71 14.27,304.48 150.66,429.97z"/>
   <path class="fil1 str0" d="M7930.79 8208.12c89.84,-118.01 59.12,-301.55 42.75,-468.67l-177.71 46.44c-0.07,1.42 40.61,328.08 134.96,422.23z"/>
   <path class="fil1 str0" d="M3522.96 17310.62c297.22,65.32 498.87,-7.79 700.57,267.6 366.78,500.79 -81.49,1128.77 -663.72,1001.28 -327.12,-71.63 -312.41,-305.81 -506.71,-467.76 -201.4,103.42 -185.89,345.77 -498.48,443.81 -648.19,203.27 -1027.63,-464.89 -720.34,-970.73 167.59,-275.88 419.11,-226.6 705.62,-262.58 78.88,-516.59 -117.23,-1258.33 -439.11,-1667.27 -183.76,-233.47 -452.17,-214.17 -517.64,-536.99 -57.01,-281.18 161.58,-571.22 453.23,-577.84 434.25,-9.84 952.44,617.73 1127.93,977.94 331.58,680.6 246.4,1111.44 358.65,1792.54zm-2044.96 -2305.96c-7.12,404.22 212.75,419.4 449.46,613.89 390.98,321.26 561.87,1107.38 515.62,1605.72 -335.39,37.62 -516.47,50.47 -708.83,344.79 -292.45,447.48 15.65,1183.38 722.89,1104.34 416.46,-46.55 365.17,-247.76 581.12,-410.39 208.01,204.14 231.6,413.8 640.71,418.16 264.66,2.82 526.44,-126.37 667.21,-354.64 145.23,-235.5 135.06,-571.07 -37.25,-791.59 -232.77,-297.91 -374.42,-224.47 -684.09,-326.66 -54.78,-181.07 -67.92,-695.37 -126,-969.22 -160.31,-755.77 -754.14,-1774.26 -1463.36,-1789.78 -306.7,-6.71 -552.14,251.63 -557.48,555.38z"/>
   <path class="fil1 str0" d="M6995.85 17295.4c333.23,147.43 359.63,-91.19 705.26,260.96 405.89,413.51 -12.24,1134.48 -607.51,1033.54 -380.51,-64.52 -357.7,-305.2 -543,-477.74 -207.89,116.96 -160.05,367.49 -521.68,464.45 -634.41,170.1 -1024.57,-539.8 -679.89,-1017.58 182.18,-252.52 452.66,-194.58 725.35,-243.86 199.67,-985.61 -373.68,-2842.78 470.24,-2827.42 573.85,10.44 459.51,805.78 452.65,1192.1 -9.32,523.93 -50.3,1098.21 -1.42,1615.55zm-457.46 960.35c225.28,227.75 237.49,393.59 637.55,422.06 274.91,19.57 537.17,-115.17 669.96,-348.49 135.63,-238.31 134.69,-573.29 -39.23,-794.34 -218.84,-278.15 -376.6,-258.91 -703.82,-311.87 -235.91,-1061.73 413.39,-2792.52 -557.73,-2820.16 -899.21,-25.6 -424.2,1540.13 -562.03,2821.8 -346.39,51.78 -497.9,40.91 -726.87,326.32 -367.53,458.11 79.69,1204.85 698.54,1123.59 379.53,-49.83 392.12,-256.62 583.63,-418.91z"/>
   <path class="fil1 str0" d="M11111.24 11084.22c111.32,-487.7 411.67,-700.4 911.11,-709.67 536.98,-9.98 600.69,289.08 579.29,1007.06 -43.38,1454.9 -1417.14,651.13 -1485.52,-42.76 89.5,-158.37 -37.1,-25.31 170.38,-133.53l-175.26 -121.1zm1420.8 1052.23c-12.94,-184.68 153.56,-501.81 153.57,-796.44 0.01,-259.96 -90.86,-622.93 -71.21,-827.07 226.14,-17.64 514.66,45.84 703.3,-59.87 -239.79,-115.85 -579.82,15.4 -849.76,-68.38 -289.84,-89.96 -362,-143.17 -700.34,-59.27 -1023.56,253.84 -1023.46,1471.21 34.24,1867.15 427.35,159.96 281.96,93.26 642.88,25.92 251.68,-46.97 586.47,77.03 801.77,-44.05 -121.61,-92.33 -542.41,-56.05 -714.45,-37.99z"/>
   <path class="fil1 str0" d="M15559.17 8848.07c122.46,171.11 29.04,192.2 212.19,213.25 47.61,-130.42 48.26,-269.61 -7.21,-385.7 -105.66,141.86 -17.05,59.12 -80.28,211.96 -145.85,-131.92 -19.42,-125.49 -207.98,-224.28 -64.04,133.08 -70.77,282.93 16.32,414.15l66.96 -229.38z"/>
   <path class="fil1 str0" d="M17576.05 8860.03c119.04,151.36 38.4,176.53 216.88,198.72 41.46,-119.87 44.14,-262.63 -4.02,-375.25 -81,119.8 -20.25,81.64 -79.72,223.47 -102.09,-137.87 -63.66,-155.6 -211.5,-247.37 -64.18,132.69 -72.58,285.84 12.68,416.83l65.68 -216.4z"/>
   <path class="fil1 str0" d="M3639.99 7773.51c0.5,0.78 49.53,169.25 55.53,179.95 52.6,93.73 40.85,13.33 98.59,137.83 -135.5,101.19 -51.48,0.35 -187.49,69.85 127.24,77.8 103.75,78.92 234.45,9.69 101.82,-101.95 -2.48,-52.44 -3.9,-406.52l-197.18 9.2z"/>
   <path class="fil1 str0" d="M6403.74 19410.81c83.24,-114.28 121.13,-118.75 115.4,-256.7 -128.56,-98.64 -137.28,-110.61 -259.3,2.86l178.11 33.01c-38.22,198.48 -141.44,64.09 -182.05,324.66l252.38 -5.55c-45.33,-89.44 18.79,-42.63 -104.54,-98.28z"/>
   <path class="fil1 str0" d="M3369.83 7751.25l-112.36 51.63c10.18,9.66 52,114.52 56.42,134.05 40.27,177.44 -51.29,97.55 59.7,247.12 83.34,-147.74 63.87,-256.72 -3.76,-432.8z"/>
   <path class="fil1 str0" d="M17595.35 15553.72c-34.5,352.77 -68.68,1487.37 -0.07,1795.64 293.79,23.31 531.71,7.56 720.43,254.51 163.14,213.5 151.8,550.43 0.49,746.55 -159.71,206.99 -394.71,311.72 -662.17,250.37 -399.41,-91.64 -298.93,-304.14 -532.14,-481.11 -227.31,176.69 -77.9,324.3 -502.14,473.07 -263.55,92.41 -525.74,5.92 -681.38,-212.19 -153.91,-215.69 -167.35,-505.42 -30.25,-754.58 172.12,-312.82 465.88,-225.39 736.68,-265.94 55.67,-426.19 69.51,-1434.74 11.57,-1854.36 -120.8,-82.65 -207.54,-85.5 -240.14,-255.26 -136.36,-710.04 920.04,-1205.66 1344.74,-420.33 266.88,493.5 -108.57,662.83 -165.62,723.63zm101.12 1698.64c-51.68,-220.36 -20,-729.71 -19.67,-983.27 1.21,-910.62 -45.29,-596.6 168.87,-834.95 337.19,-375.28 -194.99,-1117.38 -723.5,-1100.94 -526.03,16.35 -1068.07,658.15 -733.37,1109.25 111.86,150.76 167.6,78.31 187.84,318.43l-10.82 1474.37c-354.79,42.47 -505.43,30.34 -718.6,330.64 -380.54,536.05 43.17,1162.27 639.65,1137.57 331.63,-13.73 444.28,-185.38 634.61,-405.28 208.78,219.38 237.63,389.33 635.69,404.65 693.08,26.65 956.99,-674.51 644.14,-1142.42 -180.59,-270.11 -386.62,-284.08 -704.84,-308.05z"/>
   <path class="fil1 str0" d="M1531.86 11441.53c-92.58,145.05 13.24,85.86 -113.17,137.05 -71.69,-427.97 312.53,-559.91 612.6,-749.32 185.02,-116.78 787.26,-447.69 975.79,-459.17 136.96,40.62 745.68,734.03 -271.71,1457.65 -244.52,173.91 -460.81,431.44 -796.85,281.99 -489.38,-217.66 -316.9,-507.97 -406.66,-668.2zm1776.5 -951.37c225.9,-17.61 538.5,63.62 736.05,-42.81 -216.05,-143.96 -643.56,43.27 -897.57,-94.99 -297.28,-161.83 -348.39,-53.32 -637.9,110.74 -285.8,161.96 -1061.11,514.96 -1174.65,807.47 -145.67,375.33 411.52,1084.63 930,972.05 391.62,-85.04 1593.16,50.73 1787.64,-102.05 -296.41,-152.15 -1086.56,30 -1451.42,-57.04 77.77,-123.74 496.25,-316.67 656.93,-620.11 338.65,-639.53 74.6,-706.31 50.92,-973.26z"/>
   <path class="fil1 str0" d="M6277.67 11129.02c5.1,-18.42 891.53,-1446.76 1412.71,-474.66 94.51,176.27 241.7,445.74 250.8,640.84 19.42,416.95 -300.1,1021.27 -786.57,905.84 -277.52,-65.85 -812.2,-567.05 -861.73,-865.39 56.99,-96.76 -41.19,-29.16 120.01,-91.62l-97.94 -64.65c-7.1,-7 -25.67,-42.49 -37.28,-50.36zm1486.63 -723.59c220.2,-25.16 849.81,61.96 980.69,-72.28 -199.54,-93.23 -682.17,-26.56 -936.59,-36.4 -548.08,-21.17 -515.64,-312.61 -1289.53,382.82 -734.5,660.02 138.05,1500.23 632.54,1609.53 329.02,72.72 453.09,-104.19 782.38,-102.4 258.77,1.41 682.27,86.24 889.74,-47.62 -179.66,-108.34 -716.95,-40.34 -963.01,-54.49 31.51,-253.13 256.84,-502.72 228.49,-865.89 -25.86,-331.35 -301.89,-493.79 -324.71,-813.27z"/>
   <path class="fil1 str0" d="M7177.44 8841.04c95.99,161.61 30.52,184.47 222.09,226.57l-12.93 -387.07c-114.16,147.47 -10.21,71.43 -71.31,238.14 -137.08,-143.86 -63.23,-218.13 -251.64,-227.88 -18.71,142.83 -32.99,260.62 38.65,378.97l75.14 -228.73z"/>
   <path class="fil1 str0" d="M4022.23 9016.03c74.8,56.79 -16.5,16.88 64.25,41.56 38.04,-178.85 62.8,-239.39 -28.29,-390.38 -102.49,213.57 47.2,99.86 -126.3,204.28 -227.42,-69.8 -21.38,-13.45 -158.08,-210.6 -52.91,161.23 -29.19,245.95 0.65,409.56 63.83,-69.52 59.97,-121.91 155.71,-113.64 146.2,12.63 35.74,16.48 92.06,59.22z"/>
   <path class="fil1 str0" d="M13335.55 8660.49l37.01 65.03c5.43,6.46 53.65,40.78 65.09,49.59l25.52 297.05c180.44,-232.88 -82.79,-127.04 164.89,-407.81l-292.51 -3.86z"/>
   <path class="fil1 str0" d="M9486.73 17318.31c75.6,-203.8 62.3,-2701.65 554.57,-2850.7 349.7,427.79 464.25,1427.32 507.77,2010.04 18.99,254.36 -12.21,638.02 17.62,838.23 319.65,109.05 345.73,-52.26 635.8,279.28 179.92,205.64 159.35,508.1 1.11,720.04 -156.28,209.32 -360.41,314.8 -636.97,250.27 -377.32,-88.04 -316.71,-292.13 -513.73,-458.84 -261.36,76.17 -153.74,315.91 -507.91,445.19 -272.96,99.65 -508.71,-24.79 -682.36,-218.47 -199.02,-221.97 -187.48,-458.79 -25.56,-699.02 230.49,-341.99 323.55,-211.63 649.66,-316.02zm-111.8 -123.11c-316.4,139.73 -404.06,-14.93 -668.7,394.03 -169.1,261.31 -148.65,539.37 31.14,785.98 176.69,242.37 383.34,358.6 698.87,315.09 423.51,-58.38 356.23,-252.7 600.58,-403.22 182.73,247.71 273.91,391.12 640.72,410.15 513.86,26.64 1011.76,-505.33 650.67,-1143.24 -160.74,-283.97 -365.83,-266.41 -637.09,-359.82 -68.32,-482.56 -36.42,-2861.11 -729.47,-2854.66 -312.09,223.25 -376.63,901.21 -446.94,1271.71 -49.22,259.35 -73.78,520.97 -101.06,783.62 -27.25,262.46 -0.55,558.8 -38.72,800.36z"/>
   <path class="fil1 str0" d="M8068.29 9107.65c154.28,-105.96 4.44,-34.12 103.29,-208.94 102.99,163.59 42.58,191.17 223.41,194.02 52.66,-168.07 81.32,-321.19 -41.49,-454.81 -85.64,124.7 -23.56,76.16 -77.47,197.94 -143.56,-170.04 -23.01,-162.98 -216.45,-193.68 -61.9,122.17 -69.08,350.01 8.71,465.47z"/>
   <path class="fil1 str0" d="M12391.92 12861.04c85.61,-2.22 30.09,42.31 117.72,-20.53 -87.74,-240.07 -401.62,-83.32 -399.98,141.34 1.63,223.1 234.54,320.04 406.13,127.71 -172.93,-106.52 -50.75,45.98 -259.16,-43.68l-0.95 -184.15 136.24 -20.69z"/>
   <path class="fil1 str0" d="M16542.2 8769.84c210.48,-23.28 112.58,49.25 240.77,-39.96 -167.62,-200.49 -412.47,-47.54 -405.05,162.87 6.85,194.64 234.41,344.14 401.25,128.19 -156.95,-87.39 -42.54,52.99 -263,-43.39l26.03 -207.71z"/>
   <path class="fil1 str0" d="M7185.24 7976.37c58.61,-84.68 33.84,-157.52 -6.51,-222.66 -141.59,126.61 -155.41,151.72 -175.14,341.57 451.76,273.04 407.7,-241.39 181.65,-118.91z"/>
   <path class="fil1 str0" d="M13094.29 8802.81c118.29,-131.35 88.2,26.84 129.18,-140.63 -159.65,-39.69 -242.72,-50.03 -387.44,33.83l140.08 116.13c1.29,192.61 -37.82,166.36 60.83,310.74 99.69,-123.93 68.9,-146.44 57.35,-320.07z"/>
   <path class="fil1 str0" d="M12123.11 7778.3c-149.41,-39.08 -143.75,-55.33 -266.59,20.98 0.18,0.08 138.62,115.61 143.49,119.31 -30.01,54.87 -63.91,103.21 -79.08,165.04 -49.59,202.16 -3.51,100.52 22.59,151.62 127.22,-78.94 220.19,-298.77 179.59,-456.95z"/>
   <path class="fil1" d="M3109.48 8005.47c-151.28,-87.7 -85.36,-71.82 -217.35,-3.08 56.94,33.79 60.94,205.34 217.35,3.08z"/>
   <path class="fil1 str0" d="M13619.78 14263.59c449.8,253.82 608.32,1719.32 537.76,2330.21 -33.59,290.94 -202.1,558.1 -195.45,764.39 382.12,35.89 484.32,-117.02 777.31,198.03 432.8,465.38 -6.5,1128.8 -589.65,1006.82 -414.97,-86.79 -299.39,-373.87 -574.12,-458.27 -182.64,187.21 -158.95,388.66 -519.9,461.91 -588.47,119.41 -977.88,-591.14 -585.48,-1007.75 287.63,-305.37 396.81,-180.85 759.66,-206.92 0.22,-328.7 -292.46,-460.1 -155.63,-1673.96 46.27,-410.61 179.87,-1212.16 545.5,-1414.46zm510.47 2963.73c19.88,-257.95 156.72,-499.28 166.87,-830.12 15.7,-511.68 -162.78,-2279.94 -715.77,-2251.91 -317.79,16.11 -579.14,1091.73 -617.07,1374.86 -153.73,1147.59 42.42,1103.14 95.39,1701.68 -343.62,14.61 -520.13,24.01 -742.2,310.41 -339.47,437.81 -10.62,1216.84 670.4,1164.58 426.16,-32.69 395.77,-219.26 628.83,-416.73 688.84,996.9 1853.74,13.29 1259.61,-776.62 -213.03,-283.23 -394.74,-278.79 -746.06,-276.15z"/>
   <path class="fil1 str0" d="M15610.05 11342.21l-96.11 -175.15c156.26,-370.32 464.11,-465.78 849.47,-475.33 215.77,-5.33 335.5,0.74 540.07,-74.59 198.32,-73.02 298.57,-167.94 482.55,-43.11 183.97,255.65 -895.98,1855.54 -1544.8,1454.61 -268.99,-166.21 -413.65,-395.15 -231.18,-686.43zm1950.14 -660.28c230.13,-39.06 587.48,57.5 776.08,-59.17 -44.64,-95.35 33.1,-69.8 -156.63,-83.23 -210.03,-14.87 -581.63,53.13 -725.66,-40.22 -409.4,-265.29 -300.28,-5.32 -770.16,51.1 -545.53,65.49 -1134.14,-10.35 -1311.67,680.39 -72.7,282.86 50.26,535.68 230.62,743.62 263.04,303.28 366.89,268.53 723.41,215.34 415.81,-62.03 1677.75,85.12 1942.02,-51.07 -123.95,-185.62 -1160.6,24.12 -1726.81,-92.3 633.62,-604.03 643.65,-457.7 1018.8,-1364.46z"/>
   <path class="fil1 str0" d="M13569.44 19094.06c-129,65.6 -136.55,154.32 -175.47,299.3 75.24,42.26 205.4,104.28 299.73,94.16l-10.89 -155.6c-133.35,-48.43 19.14,-35.32 -178.21,2.76l64.84 -240.62z"/>
   <path class="fil1" d="M17405.67 4468.96c-241.67,-102.21 -243.89,38.27 -392.98,-104.29 245.91,-140.61 273.64,55.86 364.95,-153.99 -185.38,-121.23 -227.18,41.08 -332.4,-110.42 122.31,-96.7 167.87,-57.52 335.48,-73.19l-2.98 -139.95c-149.77,-4.41 -148.27,21.42 -254.09,-45.45 234.47,-92.36 270.91,86.72 277.89,-204.18 -229.9,-55.49 -440.33,27.79 -622.12,-53.96 298.63,-152.81 477.29,114.38 612.8,-123.78 -68.3,-159.96 70.35,-59.12 -140.78,-106.88 -67.6,-15.28 -56.02,19.08 -171.93,-24.93 122.47,-71.97 155.99,-31.95 310.87,-65.53l-1.21 -160.54 -311.67 -29.82c122.4,-77.09 149.82,-39.11 318.84,-62.54l-3.41 -160.14c-185.04,-16.07 -196.53,28.92 -320.65,-74.52l337.44 -7.65 -7.13 -199.34 -601.56 -24.62c219.71,-112.23 417.28,47.58 613.17,-94.48l-3.82 -104.86 -336.12 -68.18c173.6,-89.71 176.55,24.75 335.99,-79.24l-6.19 -83.35c-144.95,-110.58 -183.86,16.31 -351.87,-87.38 203.26,-141.6 210.89,82.13 337.42,-125.81 -49.43,-109.85 -1.01,-62.9 -137.64,-93.13 -110.93,-24.55 -41.29,28.83 -182.32,-38.19 164.04,-79.49 191.28,18.94 334.78,-82.67l4.52 -86.08c-192.03,-146.45 -469.98,34.33 -640.09,-119.52l607.77 -13.2c163.13,-989.13 -1440.36,-1823.54 -1438.16,389.18 0.63,646.01 -7.78,1292.41 -8.39,1938.56 -0.48,501.1 69.54,1455.86 17.05,1885.83 -450.2,38.81 -715.85,29.97 -965.22,441.36 -445.99,735.78 455.88,1614.98 1189.54,1189.3 170.67,-99.02 233.84,-173.99 329.57,-345.12 139.65,-249.68 71.34,-362.17 157.27,-543.6 148.27,355.48 -0.44,644.86 509.55,907.46 699.6,360.24 1601.44,-421.72 1141.5,-1224.78 -218.19,-380.96 -522.36,-387.4 -928.6,-424.77l2.95 -489.36 -322.25 -29.68c173.32,-98.86 166.07,-16.16 337.81,-97.24 -54.87,-307.45 -64.36,-86.74 -282.01,-210.41l290.43 -18.15 -16.86 -175.06c-191.27,-22.98 -458.09,40.46 -604.86,-61.47l617.47 -17.68 2.25 -112.56z"/>
   <path class="fil1" d="M12797.64 5104.09l11.81 -140.05 -358.98 -108.6 377.58 -53.31c-49.81,-249.13 -321.13,-73.97 -620.66,-164.11l55.76 -36.05 588.84 -19.77 -3.14 -180.85 -291.52 -23.09c148.2,-87.61 104.33,-14.82 283.31,-69.69l12.3 -241.78 -5.34 -178.53 -301.68 -35.98c183.84,-87.01 166.3,29.97 310.78,-97.29l-3.89 -85.35c-174.96,-138.34 -365.02,17.78 -585.97,-83.67 330.98,-137.97 445.78,130.57 583.16,-129.05 -116.22,-203.12 -59.7,-19.79 -292.19,-142.47l294.84 -30.39 -3.57 -157.84 -311.81 -55.49 317.3 -75.25 -4.9 -131.1 -321.06 -43.05c155.66,-71.15 142.24,14.09 327.17,-74.35 -49.02,-378.07 -313.78,-49.44 -612.84,-214.79l599.62 -23.45c30.48,-393.83 -225.73,-928.34 -653.55,-988.3 -1265.01,-177.31 -686.35,2910.41 -794.19,4172.58 -417.44,28.25 -761.96,3.89 -970.17,422.21 -434.11,872.18 546.03,1580.83 1198.59,1198.99 473.17,-276.87 339.25,-683.05 483.79,-895.86 138,274.04 -39.88,654.65 514.33,907.64 866.4,395.5 1546.07,-556.6 1137.69,-1221.4 -237.05,-385.9 -549.12,-382.29 -926.32,-456.76l-35.09 -543.75z"/>
   <path class="fil1" d="M8097.61 3896.4c-144.39,17.95 -13.8,66.8 -182.62,-37.79 79.64,-159.2 121.37,4.61 366.38,-145.36 -114.48,-67.36 42.09,-15.32 -132.45,-57 -185.11,-44.2 88.46,24.47 -87.13,-6.46 -172.21,-30.34 -34.26,53.91 -178.33,-92l131.44 -33.62c161.65,30.77 139.91,48.32 274.97,-19.9 -32.74,-199.48 -15.13,-159.04 -269.62,-150.3 -144.16,4.95 -194.96,28.92 -326.92,-50.62l577.3 -19.32c96.81,-826.55 -960.52,-1537.08 -1375.9,-445.44 -234.44,616.13 2.89,2143.33 -82.73,2859.22 -370.92,-0.51 -772.91,66.39 -964.35,433.09 -402.01,770.03 425.99,1578.15 1180.36,1182.93 141.84,-74.31 276.39,-219.28 354.53,-363.42 134.28,-247.68 60.41,-393.66 134.6,-533.51 147.22,138.77 -49.36,580.05 492.97,885.57 757.41,426.69 1604.56,-411.84 1183.17,-1183.12 -209.48,-383.42 -532.46,-412.34 -934.93,-440.74l5.87 -494.65 -305.56 -24.96c210.6,-151.31 210.31,76.78 331.95,-141.72 -69.9,-133.59 52.03,-74.5 -186.62,-100.45 -44.22,-4.81 -111.37,-2.26 -147.37,-11.74 133.51,-98.32 154.9,-24.44 328.33,-84.38l0.78 -154.39c-197.51,-18.72 -473.05,27.01 -615.5,-71.88l592.13 -12.61 10.95 -446.66 -302.66 -14.44c214.27,-119.52 348.98,92.67 302.3,-243.41l-175.34 19.08z"/>
   <path class="fil1" d="M3729.06 4944.54l-333.8 -24.28c52.99,-123.57 31.45,-71.93 161.02,-91.97 238.89,-36.97 104.68,67.61 177.64,-109.05 -204.63,-77.74 -249.62,53.59 -354.23,-124.49 119.83,-56.06 190.8,-21.67 351.1,-36.55l-19.78 -147.45c-155.08,-12.09 -172.62,18.52 -287.19,-51.2 47.11,-6.65 198.75,-12.39 217.03,-17.11 152.56,-39.45 37.33,26.92 105.17,-82.52 -35.74,-76.91 104.2,-122.04 -320.43,-103.97 -142.41,6.06 -174.49,27.3 -295.94,-27.92 162.19,-105.6 397.14,-28.43 611.26,-59.75 13.76,-718.77 -681.65,-1446.14 -1238.41,-690.84 -451.92,613.07 -69.96,1671.47 -243.35,2283.41 -404.99,112.76 -642.69,-8.8 -929.56,461.99 -211.76,347.53 -123.53,771.34 158.25,1043.81 275.79,266.65 680.63,314.38 1019.17,135.3 565.33,-299.03 285.48,-589.37 496.12,-880.63 120.53,193.47 -17.31,651.47 485.62,892.67 334.47,160.41 778.39,121.39 1035.15,-145.77 245.38,-255.31 344.93,-715.75 152.88,-1041.05 -235.97,-399.69 -529.31,-408.65 -940.95,-447.04l9.05 -557.07c22.08,-136.02 32.97,-95.9 -15.82,-178.52z"/>
   <path class="fil1 str0" d="M17980.06 9090.82c462,149.84 553.06,-500.11 -22.46,-440.36l22.46 440.36z"/>
   <path class="fil1 str0" d="M12956.68 8042.91c35.25,115.05 -10.83,90.28 39.24,170.34 322.05,54.31 362.29,-254.24 162.62,-464.31l-208.55 41.74c-83.51,161.07 -34.69,117.2 6.69,252.23z"/>
   <path class="fil1 str0" d="M2207.45 9062.71c86.42,-113.6 23.87,-75.85 83.13,-217.61 90.18,115.89 100.94,208.9 233.54,239.79 59.84,-174.65 69.98,-279.58 -40.46,-428.23l-62.27 234.24c-112.23,-151.9 -33.9,-174.01 -215.89,-204.61 -47.48,126.61 -40.49,245.92 1.95,376.42z"/>
   <path class="fil1 str0" d="M17499.7 7763.66l170.26 342.47 -200.1 63.25c123.51,122.96 181.39,101.39 300.76,-15.13l-29.91 -393.53 -241.01 2.94z"/>
   <path class="fil1 str0" d="M18438.3 9060.9c195.3,10.84 -44.51,-84.12 195.04,-69.06 160.57,10.08 -19.32,25.02 154.36,58.31 -20.81,-136.05 -63.64,-294.12 -142.03,-397.06 -155.29,71.12 -197.02,226.95 -207.37,407.81z"/>
   <path class="fil1 str0" d="M16441.6 7857.59c105.19,122.97 109.49,194.89 -22.34,288.95 -141.5,-55.45 -175.95,-249.39 22.34,-288.95zm77.76 -44.21c-289.55,-98.67 -364.15,169.4 -219.18,399.11l218.45 -6.42c86.8,-159.06 114.17,-240.23 0.73,-392.69z"/>
   <path class="fil1" d="M17405.67 4468.96l3.54 -337.51 -281.51 -16.56c197.12,-74.58 90.61,53.1 253.02,-87.82 -167.61,15.67 -213.17,-23.51 -335.48,73.19 105.22,151.5 147.02,-10.81 332.4,110.42 -91.31,209.85 -119.04,13.38 -364.95,153.99 149.09,142.56 151.31,2.08 392.98,104.29z"/>
   <path class="fil1" d="M3729.06 4944.54c-120.24,-96.19 -134.52,-44.78 -256.1,-71.77l297.14 -17.86 -14.15 -225.5 -308.02 -10.2c185.88,-8.22 194.7,35 328.14,-57.74 -16.98,-206.26 -11.4,-89.28 -65.06,-150.72l19.78 147.45c-160.3,14.88 -231.27,-19.51 -351.1,36.55 104.61,178.08 149.6,46.75 354.23,124.49 -72.96,176.66 61.25,72.08 -177.64,109.05 -129.57,20.04 -108.03,-31.6 -161.02,91.97l333.8 24.28z"/>
   <path class="fil1" d="M12797.64 5104.09c144.38,-107.95 68.3,1.78 70.92,-211.35 1.05,-84.08 -0.62,-163.38 -15.12,-248.54 -149.8,-33.78 -540.15,21.38 -590.29,-42.23l-55.76 36.05c299.53,90.14 570.85,-85.02 620.66,164.11l-377.58 53.31 358.98 108.6 -11.81 140.05z"/>
   <path class="fil1 str0" d="M1583.36 8725.44l146.41 11.76c-1.95,143.17 17.05,131.25 -152.5,141.11l6.09 -152.87zm117.89 219.84c192.42,-102.16 176.3,-311.87 -203.28,-278.73l3.69 394.45 199.59 -115.72z"/>
   <path class="fil1" d="M8097.61 3896.4c193.42,-144.67 166.84,51.35 204.5,-235.11 -138.07,-78.57 -82.08,-50.7 -256.97,-62.13l-30.24 -74.99 -131.44 33.62c144.07,145.91 6.12,61.66 178.33,92 175.59,30.93 -97.98,-37.74 87.13,6.46 174.54,41.68 17.97,-10.36 132.45,57 -245.01,149.97 -286.74,-13.84 -366.38,145.36 168.82,104.59 38.23,55.74 182.62,37.79z"/>
  </g>
 </g>
</svg>
