<?xml version="1.0" encoding="UTF-8"?>
<!DOCTYPE svg PUBLIC "-//W3C//DTD SVG 1.1//EN" "http://www.w3.org/Graphics/SVG/1.1/DTD/svg11.dtd">
<!-- Creator: CorelDRAW 2017 -->
<svg xmlns="http://www.w3.org/2000/svg" xml:space="preserve" width="181mm" height="181mm" version="1.1" style="shape-rendering:geometricPrecision; text-rendering:geometricPrecision; image-rendering:optimizeQuality; fill-rule:evenodd; clip-rule:evenodd"
viewBox="0 0 18100 18100"
 xmlns:xlink="http://www.w3.org/1999/xlink">
 <defs>
  <style type="text/css">
   <![CDATA[
    .fil0 {fill:none}
    .fil63 {fill:#2E2B2B}
    .fil20 {fill:#4A362D}
    .fil47 {fill:#4C4C52}
    .fil37 {fill:#564631}
    .fil23 {fill:#585558}
    .fil13 {fill:#5D5C62}
    .fil38 {fill:#613D2F}
    .fil12 {fill:#63402F}
    .fil60 {fill:#64412F}
    .fil32 {fill:#685551}
    .fil48 {fill:#68676A}
    .fil61 {fill:#69462F}
    .fil39 {fill:#736455}
    .fil8 {fill:#7D5432}
    .fil59 {fill:#865736}
    .fil11 {fill:#8A5D3A}
    .fil10 {fill:#8C5435}
    .fil54 {fill:#8C603B}
    .fil21 {fill:#935B35}
    .fil24 {fill:#93623C}
    .fil43 {fill:#976742}
    .fil19 {fill:#986337}
    .fil25 {fill:#996843}
    .fil45 {fill:#9A643A}
    .fil44 {fill:#A19CA2}
    .fil18 {fill:#A57249}
    .fil55 {fill:#A9734A}
    .fil3 {fill:#AA6638}
    .fil56 {fill:#AA8565}
    .fil9 {fill:#B46D40}
    .fil26 {fill:#B47B53}
    .fil28 {fill:#B77449}
    .fil35 {fill:#B98359}
    .fil40 {fill:#BC7A4C}
    .fil15 {fill:#BC8B61}
    .fil1 {fill:#BE7E51}
    .fil42 {fill:#BFC0C5}
    .fil46 {fill:#C27D4C}
    .fil22 {fill:#C28559}
    .fil50 {fill:#C49269}
    .fil2 {fill:#C98E60}
    .fil17 {fill:#C99667}
    .fil57 {fill:#CA9263}
    .fil51 {fill:#CAA785}
    .fil27 {fill:#CC8B5C}
    .fil41 {fill:#D0CCCB}
    .fil30 {fill:#D19268}
    .fil49 {fill:#D9A478}
    .fil33 {fill:#D9A983}
    .fil14 {fill:#DA9F72}
    .fil53 {fill:#DB9A6C}
    .fil36 {fill:#DBB189}
    .fil16 {fill:#DBB28A}
    .fil6 {fill:#E2AE80}
    .fil31 {fill:#E59B6F}
    .fil62 {fill:#E5B185}
    .fil4 {fill:#ECB98C}
    .fil58 {fill:#EDC49A}
    .fil29 {fill:#F0CCA9}
    .fil34 {fill:#F1C79B}
    .fil5 {fill:#F3D1B1}
    .fil7 {fill:#F4D1AA}
    .fil52 {fill:#F8D7B6}
   ]]>
  </style>
 </defs>
 <g id="Capa_x0020_1">
  <metadata id="CorelCorpID_0Corel-Layer"/>
  <rect class="fil0" width="18100" height="18100"/>
  <g id="_1500083827856">
   <path class="fil1" d="M10117.92 16821.59c9.46,-112.66 -21.82,-160.79 55.58,-239.23 220.22,-223.17 221.33,-482.09 399.38,-180.27 99.8,169.18 183.23,187.93 265.22,304.73 63.52,90.49 120.86,332.18 100.5,457.4 -84.28,143.82 -585.41,-1.73 -747.67,-13.99 -214.06,-16.18 -436.28,93 -618.25,69.7 -2.84,-154.46 17.17,-283.1 160.6,-306 136.92,-21.86 254.01,-52.14 384.64,-92.34zm-48.93 -7480.3l-15.8 105.65c216.62,56.61 289.95,-12.79 486.76,124.5 19.73,140.42 -1.16,203.58 39.85,349.11 23.07,81.86 83.87,216.17 84.4,289.38 -142.87,14.89 -136.3,-9.01 -141.34,135.09 -5.35,153.36 -2.8,117.26 37.97,238.22 33.37,98.98 -13.3,356.21 -34.61,462.16l-156.41 29.86c-59.71,259.81 135.77,448.2 -275.23,536.37 -9.56,100.87 -0.45,206.27 -14.32,300.15 -12.76,86.31 -39.18,161.7 -39.39,255.46 68.75,59.69 63.39,1.32 73.09,108.86l2.03 516.43c-8.31,547.99 52.54,345.69 195.35,496.55 -35.37,207.22 -100.9,396.7 -172.23,592.39 -81.43,223.39 -25.62,424.39 -115.26,654.64 -252.82,-26.84 59.98,-85.04 -500.76,-295.38l135.35 367.98c106.27,60.98 174.34,444.61 196.69,578.38 41.76,249.82 21.85,448.38 -104.26,622.78 -111.8,154.61 -203.12,290.52 -403.8,370.16 -300.92,119.42 -213.65,191.63 -583.06,98.85 -489.53,-122.94 -731.82,257.68 -1223.08,260.35 -591.08,3.22 -739.56,-359.57 -1164.34,-389.53 172.05,286.57 550.06,422.3 860.87,533.5 321.66,115.09 293.04,-2.64 572.57,-34.5 112.1,-12.77 226.61,-7.29 339.44,-6.27 117.51,1.07 132.25,-1.06 170.11,78.91 2.5,5.28 8.97,21.91 11.46,27.11l13.96 26.64c50.96,98.16 751.48,-96.65 970.12,-90.57 54.63,386.24 -502.84,397.78 -449.26,940.24l320.53 -47.97c260.18,-60.45 437.56,-203.01 685.3,-266.86 304.43,-78.45 575.05,42.54 867.01,-15.44l317.13 13.03c69.82,-56.85 54.41,-222.22 89.18,-307.12 54.4,-132.82 111.53,-40.61 140.7,-247.92 -103.45,19.78 -134.1,64.84 -229.88,69.08 -50.35,-70.09 -15.22,-86.01 -85.56,-173.34 -213.08,-264.6 27.59,-119.89 -43.94,-321.07 -33.98,-95.59 -52.04,-97.33 -62.66,-212.7 125.11,-64.83 110.27,-166.87 368.52,-95.24 167.06,46.34 169.64,174.34 182.2,333.32 108.95,30.91 176.17,20.57 288.92,60.34 348.14,122.83 422.15,270.35 806.83,226.13 205.79,-23.65 411.75,-119.1 577.79,7.9 94.83,72.53 113.8,73.72 243.53,106.29 144.78,36.36 125.08,71.13 208.65,126.72 169.52,-10.34 183.63,-103.07 368.04,-25.77 92.54,-73.38 78.51,-104.15 234,-167.6 115.56,-47.16 167.47,-75.92 208.73,-178.4 42.93,-106.63 23.28,-51.07 91.14,-110.69 127.17,-111.71 183.53,-282.51 297.46,-288.5 16.2,-172.31 53.32,-261.75 23.07,-455.35 -95.42,-5.36 -87.69,75 -141.74,149.85 -38.96,53.99 -95.97,92.26 -145.56,142.57 -40.05,330.9 -116.52,340.44 -405.36,429 -479.49,147.03 -951.02,51.63 -1423.12,-41.92 -648.09,-128.42 -337.53,-12.99 -710.53,-25.04 -240.96,-391.36 -894.88,-487.55 -1056.41,-746.81 -82.25,-132.01 -142.81,-249.61 -289.5,-297.15 14.55,-51.73 106.49,-257.36 144.61,-290.58 145.66,-126.97 39.82,61.32 169.99,-235.18 75.09,-171.01 113.5,-481.22 118.7,-695.07 4.37,-179.82 -73.38,-273.05 -75.07,-348.15 -2.32,-102.89 73.82,-191.65 42.73,-339.65 -55.19,-262.79 -363.15,-287.49 -413.31,-397.43 -1.36,-136.64 -26.6,-270.73 -5.59,-410.56 18.41,-122.59 70.87,-226.66 72.54,-355.8 -150.4,-69.05 -322.18,-172.43 -343.62,-355.47 98.56,-82.27 249.56,-101.59 367.86,-147.34 -46.51,-65.03 -47.93,-10.76 -99.46,-98.95 251.74,-29.8 99.5,-187.74 158.7,-649.74 13.68,-106.75 45.76,-242.46 84.78,-320.54 29.25,-58.54 43.48,-73.43 120.3,-83.95 111.29,-15.24 81.77,-16.7 117.72,44.5 84.25,-134.5 153.58,-235.25 129.57,-452.04 -29.95,-270.39 -183.58,-141.7 -253.03,-316.29 -128.96,-324.19 -85.4,-167.11 -735.27,-423.51l22.63 -27.32c23.4,-37 4.75,29.72 15.31,-30.82 1.67,-9.57 5.3,-11.93 7.23,-18.16l-168.66 29.24z"/>
   <path class="fil2" d="M10648.11 9212.02c-195.97,-23.79 -213.15,49.59 -356.61,68.19l-53.85 31.84c-1.93,6.23 -5.56,8.59 -7.23,18.16 -10.56,60.54 8.09,-6.18 -15.31,30.82l-22.63 27.32c649.87,256.4 606.31,99.32 735.27,423.51 69.45,174.59 223.08,45.9 253.03,316.29 24.01,216.79 -45.32,317.54 -129.57,452.04 -35.95,-61.2 -6.43,-59.74 -117.72,-44.5 -76.82,10.52 -91.05,25.41 -120.3,83.95 -39.02,78.08 -71.1,213.79 -84.78,320.54 -59.2,462 93.04,619.94 -158.7,649.74 51.53,88.19 52.95,33.92 99.46,98.95 -118.3,45.75 -269.3,65.07 -367.86,147.34 21.44,183.04 193.22,286.42 343.62,355.47 -1.67,129.14 -54.13,233.21 -72.54,355.8 -21.01,139.83 4.23,273.92 5.59,410.56 50.16,109.94 358.12,134.64 413.31,397.43 31.09,148 -45.05,236.76 -42.73,339.65 1.69,75.1 79.44,168.33 75.07,348.15 -5.2,213.85 -43.61,524.06 -118.7,695.07 -130.17,296.5 -24.33,108.21 -169.99,235.18 -38.12,33.22 -130.06,238.85 -144.61,290.58 146.69,47.54 207.25,165.14 289.5,297.15 161.53,259.26 815.45,355.45 1056.41,746.81 373,12.05 62.44,-103.38 710.53,25.04 472.1,93.55 943.63,188.95 1423.12,41.92 288.84,-88.56 365.31,-98.1 405.36,-429 -201.36,21.78 -503.25,-4.72 -714.6,-10.75 -224.63,-6.4 -413.18,-81.94 -631.57,-99.11 -220.89,-17.36 -480.84,54.98 -675.74,-25.41 -275.74,-113.72 -136.6,-258.76 -476.7,-267.76 -454.19,-12.03 -798.32,-195.81 -922.91,-542.93 -80.99,-225.64 82.9,-339.35 104.02,-567.9 21.34,-231.03 -32.69,-450.05 71.71,-657.21l271.2 9.97c51.36,-108.59 134.51,-81.87 164.82,-244.29l-169.09 27.98c-41.13,-92.53 -152.67,-184.81 -129.85,-261.8 24.73,-83.42 138.8,-209.7 186.15,-239.81 50.43,13.04 214.11,137.49 266.54,185.47l-49.14 173.52c187.74,-65.56 260.21,-252.74 337.9,-467.41l-98.77 3.6c0,-452.71 130.65,-3511.17 62.72,-3669.87l-119.83 -11.89c-31.82,52.03 -67.9,161.2 -62.53,239.19 5.68,82.7 64.77,81.09 99.83,183.27 -48.13,75.93 -97.17,88.63 -216.03,93.69 -194.81,8.3 -82.22,47.65 -202.29,95.83 -104.93,-57.3 -99.84,-120.24 -119.65,-249.36 -17.55,-114.43 -53.95,-190.52 -67.04,-297.72 -19.68,-42.19 -15.94,-86.13 -23.51,-151.61 -119.81,-29.73 -194.44,54.59 -341.17,58.73 -134.66,3.79 -241.37,-34.07 -371.61,-40.42z"/>
   <path class="fil3" d="M8106.54 12810.92l-51.1 0c26.56,61.56 59.96,67.26 97.37,124.33 30.91,47.17 48.51,94.26 76.21,145.35 60.66,51.29 94.83,35.3 127.8,73.7 58.19,67.77 -17.6,74.81 82.96,137.68 298.3,186.46 213.92,187.5 474.17,372.19 189.83,134.71 216.38,66.76 232.1,207.45 154.05,8.55 103.88,-2.69 149.05,118.31 100.4,44.22 161.81,157.43 227.99,250.8 560.74,210.34 247.94,268.54 500.76,295.38 89.64,-230.25 33.83,-431.25 115.26,-654.64 71.33,-195.69 136.86,-385.17 172.23,-592.39 -142.81,-150.86 -203.66,51.44 -195.35,-496.55l-2.03 -516.43c-9.7,-107.54 -4.34,-49.17 -73.09,-108.86 0.21,-93.76 26.63,-169.15 39.39,-255.46 13.87,-93.88 4.76,-199.28 14.32,-300.15 411,-88.17 215.52,-276.56 275.23,-536.37l156.41 -29.86c21.31,-105.95 67.98,-363.18 34.61,-462.16 -40.77,-120.96 -43.32,-84.86 -37.97,-238.22 5.04,-144.1 -1.53,-120.2 141.34,-135.09 -0.53,-73.21 -61.33,-207.52 -84.4,-289.38 -41.01,-145.53 -20.12,-208.69 -39.85,-349.11 -196.81,-137.29 -270.14,-67.89 -486.76,-124.5 -8.07,242.18 64.88,540.49 41.14,807.66 -179.33,156.75 -144.4,64.91 -157.04,368.35 -9.42,226.45 -16.65,257.77 -206.28,309.3 -26.52,150.95 -5.71,475.49 -165.75,532.22 -81.71,-157.92 -22.71,-582.82 -145.65,-733.4 -66.62,-81.6 -274.88,-75.38 -334.82,-0.1 -155.12,194.81 -158.03,747.86 -318.97,986.75 -206.9,307.11 -90.49,484.26 -193.56,664.11 -92.87,-30.54 -69.01,-99.62 -117.99,-206.57 -33.05,51.51 -91.48,670.9 -92.5,780.65 -107.87,26.46 -101.87,-8.6 -138.25,-73.04 -64.2,-113.66 -32.11,-4.8 -116.98,-71.95z"/>
   <path class="fil4" d="M7375.32 525.87c-123.72,1.97 -162.76,17.97 -203.29,91 -85.22,153.55 -180.47,211.87 -146.35,313.6 15.55,34.36 89.07,2.52 137.26,-9.51 69.2,-17.28 94.01,-26.47 157.76,-29.12l43.59 676.23c71.43,42.38 100.96,52.14 153.53,121.27 107.94,141.92 159,-2.12 154.28,102.38l15.34 303.49c94.53,66.28 157.74,146.27 257.69,233.41 63.58,55.43 202.12,181.25 277.97,219.05 190.52,94.96 1213.09,118.17 1733.43,254.07 436.34,113.96 460.87,35.75 849.87,-37.1 40.71,-46.22 174.72,-136.61 242.29,-186.15 56.58,-41.48 70.14,-49.21 118.01,-102.6 53.88,-60.09 52.03,-74.4 165.16,-78 47.47,-78.54 93.65,-142.48 144.59,-219.48 60.87,-92.04 39.43,-202.47 39.43,-346.7 -25.94,31.8 -13.88,4.36 -33.51,54 -4.85,12.27 -3.27,40.93 -3.29,50.86 -146.63,-19.23 -137.77,-21.95 -166.47,-158.74 -18.14,-86.53 -31.86,-180.49 -95.31,-217.39 -54.57,-31.74 -168.14,-39.25 -238.54,-74.15 -62.54,-31 -118.13,-99.42 -175.14,-138.16 -60.19,-40.91 -130.2,-74.71 -206.13,-106.91 -276.93,-117.43 -49.84,-235.13 -573.56,-367.95 -58.96,208.89 -52.64,153.87 -289.97,163.38l30.32 259.23c-90.72,39.71 -149.83,45.72 -205.91,106 -195.83,210.5 -115.94,428.5 -146.37,775.5 -143.23,38.3 -586.09,60.53 -724.17,15.81 -207.08,-67.06 -294.02,-252.06 -369.81,-420.74 -66.49,-147.97 -182.74,-417.45 -205.13,-585.42 -21.73,-162.98 -9.74,-220.47 91.89,-310.2 103.01,-90.93 121.58,-95.19 116.55,-283.82 -266.01,36.55 -160.99,56.94 -418.29,-42.5 -126.7,-48.97 -341.25,-133.76 -390.56,18.1l-137.16 -42.74z"/>
   <path class="fil5" d="M11560.25 4662.86l38.61 30.65 88.74 7.64c40.64,98.76 107.27,222.91 85.47,350.17 -159.88,53.98 -514.87,49.61 -626.34,126.72 -132.61,91.71 -61.24,397.98 -282.04,495.46 -49.12,40.08 -89.21,40.36 -144.77,70.69 -35.71,19.5 -81.15,56.46 -113.74,83.38l-35.91 150.99 405.33 -38.61c-10.88,119.14 -38.95,197.46 25.35,276.35 466.5,41.52 605.49,79.1 1064.19,-27.33l15.76 -141.08c-155.46,-51.11 -342.53,-128.57 -509.89,-130.75 -204.46,-2.67 -377.59,70.27 -567.23,-0.73 50.97,-90.86 222.91,-158.79 328.34,-222.27 125.94,-75.83 219.19,-158.52 326.7,-243.82 398.57,-316.25 274.14,-449.63 437.87,-669.76 118.68,465.16 -544.86,875.25 -608.96,1103.67l819.49 -60.13c38.97,-56.95 10.43,-42.01 36.76,-103.88l209.66 -19.63c1.02,-180.08 -95.9,-252.66 -218.46,-402.61 -127,-155.37 -139.67,-213.27 -77.54,-448.21 72.17,6.77 146.05,46.76 195.96,89.89l-4.51 91.53c176.66,37.26 281.89,28.03 457.27,-6.38 114.35,-22.43 344.14,-36 405.08,-93.21 96.74,-90.81 81.78,-286.44 132.25,-364.17 29.49,-45.42 310.14,-130.2 372.46,-137.07 124.72,147.69 69.44,180.88 193.2,199.18l-24.94 -134.9c75.75,-25.39 84.41,-67.59 52.65,-180.27 33.57,-61.88 -50.25,-82.35 -149.76,-163.07 -184.31,-149.53 -162.52,-43.29 -433.49,-247.23 -95.34,-71.75 -127.68,-67.86 -281.74,-67.86 0,-106.79 22.57,-126.61 -89.73,-131.02 -334.79,-13.12 -201.35,27.01 -507.07,-173.69 -280.92,-184.42 -403.68,-173.45 -741.06,-173.45 -42.41,79.46 -240.31,2.7 -324.11,-3.84 5.26,232.11 35.74,473.5 61.24,702.19 25.66,230.13 -0.03,160.08 -58.34,312.56 -32.01,83.69 28.03,187.37 47.25,293.9z"/>
   <path class="fil6" d="M14475.25 15946.02c49.59,-50.31 106.6,-88.58 145.56,-142.57 54.05,-74.85 46.32,-155.21 141.74,-149.85 30.25,193.6 -6.87,283.04 -23.07,455.35 27.59,71.35 -4.01,70.26 51.98,109.36 186.05,-449.17 -28.3,-1502.41 -289.61,-1757.04l-98.74 -121.32c-41.73,-64.08 10.9,-17.5 -53.21,-57.77l0 39.69c-260.14,0 -342.51,-227.8 -395.2,-288.79 -69.61,-80.58 -444.14,-123.93 -585.35,-114.84l-1.68 241.15 133.27 -21.96c57.01,453.7 120.94,618.17 -136.67,888.51 -72.04,75.6 -80.06,130.6 -136.99,215.15 -144.78,23.18 -293.37,-40.96 -437.98,-60.28 -128.63,-17.18 -373.16,10.22 -463.11,-11.09 -200.86,-47.58 -209.4,-426.55 -498.85,-480.04 -45.9,46.87 -43.21,32.06 -73.66,87.05 -27.7,50.02 -21.89,56.31 -53.78,98.05 -87.03,-12.16 -146.35,-61.51 -212.12,-104.75 -38.11,-269.66 -33.51,-150.47 -163.44,-296.31 -76,-85.31 -61.18,-219.11 -6.42,-317.44 9.42,-16.89 3.99,42.91 16.85,-26.18 1.44,-7.74 5.9,-9.02 9.12,-13.34 15.52,-151.11 70.15,-194.66 98.48,-301.89l58.29 -29.95 -271.2 -9.97c-104.4,207.16 -50.37,426.18 -71.71,657.21 -21.12,228.55 -185.01,342.26 -104.02,567.9 124.59,347.12 468.72,530.9 922.91,542.93 340.1,9 200.96,154.04 476.7,267.76 194.9,80.39 454.85,8.05 675.74,25.41 218.39,17.17 406.94,92.71 631.57,99.11 211.35,6.03 513.24,32.53 714.6,10.75z"/>
   <path class="fil7" d="M7375.32 525.87l137.16 42.74c49.31,-151.86 263.86,-67.07 390.56,-18.1 257.3,99.44 152.28,79.05 418.29,42.5 5.03,188.63 -13.54,192.89 -116.55,283.82 -101.63,89.73 -113.62,147.22 -91.89,310.2 22.39,167.97 138.64,437.45 205.13,585.42 75.79,168.68 162.73,353.68 369.81,420.74 138.08,44.72 580.94,22.49 724.17,-15.81 30.43,-347 -49.46,-565 146.37,-775.5 56.08,-60.28 115.19,-66.29 205.91,-106l-30.32 -259.23c237.33,-9.51 231.01,45.51 289.97,-163.38 523.72,132.82 296.63,250.52 573.56,367.95 75.93,32.2 145.94,66 206.13,106.91 57.01,38.74 112.6,107.16 175.14,138.16 70.4,34.9 183.97,42.41 238.54,74.15 63.45,36.9 77.17,130.86 95.31,217.39 28.7,136.79 19.84,139.51 166.47,158.74 0.02,-9.93 -1.56,-38.59 3.29,-50.86 19.63,-49.64 7.57,-22.2 33.51,-54 42.89,-1.06 -5.18,25.5 30.94,-9.1 25.3,-24.24 14.04,-7.86 24.27,-46.17 -44.53,-60.74 -20.03,-20.65 -92.01,-55.17 4.19,-188.09 43.42,-152.27 -147.21,-294.26l-1259.12 -874.99c-275.66,-167.96 -539.9,-325.35 -919.32,-386.99 -202.2,-32.86 -455.33,36.24 -642.17,-20.29 -38.54,-11.67 -86.42,-19.01 -139.21,-23.47l-499.79 0c-27.64,118.61 -96.62,103.53 -263.53,196.4 -82.45,45.86 -219.07,110.83 -233.41,208.2z"/>
   <path class="fil8" d="M7117.78 5601.64l37.94 0.04c0.56,134.36 79.18,179.28 156.97,246.16 102.64,88.25 201.82,42.74 355.8,53.49 108.37,7.56 466.65,29.37 568.84,-8.21 93.16,-34.26 54.32,-55.17 101.64,-116.09 203.21,-8.54 437.46,-12.34 635.03,20.88 -139.09,-319.53 -669.09,99.05 -833.85,-242.77 -30.59,-63.45 -66.13,-90.33 -58.38,-149.44 13.04,-99.37 94.89,-88.42 75.11,-392.8 -17.66,-271.8 -111.14,-489.3 -143.09,-749.61 -11.97,-97.55 -13.85,-307.06 -52.09,-387.51 -53.92,-113.44 -139.29,-100.15 -116.19,-323.32 102.83,-8.85 381.34,256.95 606.41,385.11 318.86,181.57 485.53,131.59 872.05,82.5 228.75,-29.05 902.47,-469.43 1146.93,-639.66 143.48,-99.92 54.82,-105.8 157.82,-97.38 -34.31,73.41 -92.03,105.61 -145.13,173.57l196.93 -13.62 110.21 -343.85c-157.15,19.6 -149.07,16.55 -210.1,127.76 -117.24,-5.18 -80.56,-41.61 -200.33,-26.73l-145.07 9.42c-49.25,101.93 -104.85,146.36 -221.5,192.2 -150.74,59.23 -131.13,60.29 -209.24,189.46 -227.12,25.83 -1547.04,-61.6 -1826.28,-173.92 -96.17,-38.68 -88.84,-83.7 -184.7,-113.58l-102.61 201.46c-156.24,9.17 -461.62,-35.53 -598.91,-84.33 -377.03,-134.01 -434.98,-515.64 -477.51,-905.19 -32.06,-293.68 34.41,-575.06 6.44,-624.45 -55.86,184.26 -135.33,68.93 -110.34,694.32 5.12,128.1 44.83,244.78 70.04,353.01 76.51,328.45 81.36,498.38 279.93,805.3 29.98,46.36 63.51,73.56 105.38,115.37 87.26,87.16 125.94,126.44 243.9,179.24 75.44,33.76 243.81,92 349.6,92l-21.19 109.73c110.79,-24.54 128.98,-114.41 206.62,-108.83 90.99,6.54 58.73,185.07 29.52,232.29 -74.31,120.17 -216.19,39.82 -337.94,287.57 -322.49,656.21 -62.46,577.93 -271.64,886.46l-47.02 63.95z"/>
   <path class="fil9" d="M6694.53 5652.19c-14.6,21.92 -9.43,4.83 -18.02,44.06 -7.22,32.98 -2.47,-2 -4.45,33.56 -1.69,30.43 5.27,60.84 9.79,90.15 -5.26,168.83 -149.57,554.49 -244.03,625.7l-43.25 157.4c129.35,-21.95 167.16,60.43 248.31,116.92 82.12,57.17 141.25,94.85 253.98,129.4l-39.81 -107.46c143.52,-5.82 782.06,273.92 887.45,348.2 251.96,177.59 472.99,358.09 717.27,533.94 126.16,90.82 240.98,159.48 372.65,253.06 115.48,82.06 232.57,219.34 373.43,252.65 368.57,87.15 788.09,35.18 1153.8,-4.5l56.54 -338.56c-93.94,88.17 -4.78,175.35 -114.7,274.02 -73.75,-147.34 -85.87,-125.95 -178,-222.02 62.4,-198.29 211.75,-186.38 26.83,-359.21 -100.2,-93.67 -271.25,-123.81 -399.93,-188.97 -166.21,-84.15 -323.75,-48.69 -501.37,-88.16 -208.98,-46.44 -125.86,-170.11 -450.22,-101.66 -99.71,21.05 -437.76,72.15 -538.94,46.57 -93.03,-23.51 -279.42,-167.87 -371.22,-221.09 -196.47,-113.91 -559.29,-315.33 -586.98,-570.44 195.13,-189.84 597.87,-221.89 889.02,-287.43 336.05,-75.66 270.75,-141.48 413.36,-174.77 151.13,-35.27 376.87,-11.72 492.95,-16.79 -39.76,0.96 -30.5,11.07 -30.5,-27.5l-94.49 -51.35c-197.57,-33.22 -431.82,-29.42 -635.03,-20.88 -47.32,60.92 -8.48,81.83 -101.64,116.09 -102.19,37.58 -460.47,15.77 -568.84,8.21 -153.98,-10.75 -253.16,34.76 -355.8,-53.49 -77.79,-66.88 -156.41,-111.8 -156.97,-246.16l-37.94 -0.04c-37.04,-45.57 -25.62,-43.85 -107.48,-37.18 -28.6,2.33 -68.74,18.69 -103.12,29.04 -75.37,22.68 -152.54,38.7 -212.65,58.69z"/>
   <path class="fil10" d="M8185.1 11707.38c-2.59,70.35 -11.69,36 -17.43,110.35 -3.72,48.14 1.46,99.23 -0.94,147.25l-22.81 584.1c-10.49,77.07 -57.89,185.3 -37.38,261.84 84.87,67.15 52.78,-41.71 116.98,71.95 36.38,64.44 30.38,99.5 138.25,73.04 1.02,-109.75 59.45,-729.14 92.5,-780.65 48.98,106.95 25.12,176.03 117.99,206.57 103.07,-179.85 -13.34,-357 193.56,-664.11 160.94,-238.89 163.85,-791.94 318.97,-986.75 59.94,-75.28 268.2,-81.5 334.82,0.1 122.94,150.58 63.94,575.48 145.65,733.4 160.04,-56.73 139.23,-381.27 165.75,-532.22 189.63,-51.53 196.86,-82.85 206.28,-309.3 12.64,-303.44 -22.29,-211.6 157.04,-368.35 23.74,-267.17 -49.21,-565.48 -41.14,-807.66l15.8 -105.65c-81.85,11.42 -102.92,24.96 -176.79,45.97 -158.02,44.96 -123.38,-29.38 -129.08,421.4 -216.13,-6.82 -378.37,-88.43 -627.29,-71.2l-22.91 370.01 -488.17 341.99c-1.84,178.36 33.29,352.03 -117.54,417.11 15.35,-191.65 92.77,-477.89 3.86,-643.49 -40.74,86.23 -29.75,275.8 -58.95,389.86 -32.55,127.11 -73.88,229.17 -101.53,355.5 -58.81,268.65 -34.77,572.9 -62.97,850.85l-47.74 -114.98 -54.78 3.07z"/>
   <path class="fil11" d="M10963.82 17365.51c72.65,77.38 204.84,37.39 171.61,117.03 -53.94,129.26 -610.46,-104.11 -669.69,18.03 96.91,62.18 84.67,103.86 258.61,110.58 475.47,18.38 546.67,118.06 918.71,203.7 60.32,13.88 81.04,23.94 148.27,35.73 327.1,57.36 556.01,38.02 883.88,17.81 65.99,-4.07 310.6,-14.13 363.97,-36.78 113.67,-7.64 93.9,2.67 131.1,-35.86 129.88,-134.49 -26.41,-14.52 192.49,-141.16 110.66,-64.02 69.72,-127.1 174.28,-193.79 74.34,-47.42 164.59,-71.09 251.84,-116.1 169.62,-87.48 550.29,-354.93 653.69,-468.67 149.4,-164.33 212.56,-352.57 330.47,-423.64l0 -203.39c-116.56,24.11 -202.1,164.76 -245.55,288.05 -51.99,147.54 -142.46,183.72 -266.67,267.76 -546.15,369.52 -397.32,181.28 -804.3,264.29 -372.43,75.95 -306.61,209.1 -800.79,-82.45 -223.19,-131.68 -521.36,-249.35 -845.42,-223.24 -69.78,30.7 -50.69,167.48 -287.39,321.65 -71.96,46.87 -154.66,62.23 -201.58,110.78 -51.45,53.24 -68.7,128.2 -118.48,185.64l-239.05 -15.97z"/>
   <path class="fil12" d="M12885.41 6536.38c-11.21,141.92 -99.59,460.3 -152.02,576.16 -60.23,133.07 -211.68,343.95 -237.24,479.4 -40.79,154.2 -57.4,341.2 -93.25,496.21 -53.63,231.9 -32.64,305.21 -40.43,529.67 24.76,-10.36 36.25,28.81 39.19,-109.23 3.04,-142.96 -9.26,-210.04 70.81,-369.25 141.12,-280.61 85.4,-273.54 147.1,-423.11 18.4,-44.6 77.14,-126.43 108.05,-167.87 194.46,-260.7 132.02,-355.05 260.43,-622.49 161.74,37.65 370.61,356.2 463.57,493.03 119.98,176.59 163.08,173.64 290.49,426.93 54.6,108.53 72.52,125.71 129.24,110.01l41.06 0.28c-60.23,-177.41 -159.1,-243.7 -145.72,-475.54 802.52,-102.32 577.82,130.89 673.99,623.5 75.4,386.24 194.36,154.78 292.06,388.3 33.76,80.73 50.04,176.63 70.37,260.72 31.4,129.83 24.62,39.76 62.88,115.59l16.85 60.37c11.76,50.41 -6.41,26.25 20.03,71.2l-4.29 -124.94c66.72,-134.64 261.61,-81.92 243.34,-326.52 -271.61,-24.99 -183.61,-45.34 -315.89,-204.94 -641.67,-774.17 -145.13,-899.21 -218.6,-1104.28 -207.88,-89.81 21.19,91.95 -487.64,-231.29 -150.07,-95.34 -88.88,10.8 -361.04,-172.21 -47.46,-31.91 -80.57,-30.96 -123.64,-57.34 27.17,-216.24 230.34,-275.71 440.13,-336.55 152.36,-72.05 240.84,-146.41 231.37,-374.31 -336.61,25.3 -542.94,-52.37 -872.19,53.14 -346.52,111.05 -484.98,2.6 -502.73,234.94 -12.77,167.09 -46.31,56.9 -46.28,180.42z"/>
   <path class="fil13" d="M3048.52 6705.18c-31.05,-31.42 46.35,-31.05 -52.81,-24.45 -259.43,10.02 -266.15,150.08 -704.24,-7.75 -465.5,-167.7 -517.52,-593.65 -625.95,-1010.68 -89.82,-345.46 18.2,-411.02 -10.61,-716.59 58.68,-456.97 204.21,-447.79 420.69,-664.02 50.45,53.6 90.6,134.57 129.3,197.24 50.74,82.18 83.79,147.64 170.07,170.22 29.94,-66.65 417.4,-723.27 484.55,-783.99 104.33,-94.33 83.01,-132.67 167.19,-255.26 166.47,-242.42 258.41,-194 488.15,-358.39 189.5,-135.59 412.95,150.9 584.97,181 -7.54,-344.81 -310.68,-233.54 -528.63,-263.39 -71.31,-9.77 -162.09,-18.96 -262.74,-13.47 -160.22,8.74 -319.46,39.05 -456.37,77.27 -159.46,44.52 -229.76,111.53 -360.68,191.25 -60.8,37.02 -113.38,58.7 -178.58,79.01 -69.21,21.54 -148.48,37.02 -202.99,72.99 -156.09,102.99 -506.33,813 -579.62,1039.13 -36.58,112.84 -78.72,312.11 -98.69,523l0 432.54c10.34,80.66 28.1,154.1 55.4,214.6 35.26,78.12 49.95,116.93 68.72,207.18 89.79,431.62 269.79,789.7 719.49,917.74 281.92,80.28 608.26,76.85 773.38,-205.18z"/>
   <path class="fil14" d="M11000.95 6216.3c-64.3,-78.89 -36.23,-157.21 -25.35,-276.35l-405.33 38.61 35.91 -150.99c-88.16,22.19 -81.38,22.7 -128.81,78.05 -35.16,41.03 -4.71,17.01 -48.87,45.27 -7.59,4.86 -58.42,29.13 -67.67,35.44l-1.7 262.92 333.22 103.05c1.51,116.49 -20.31,199.11 -122.53,224.34 -24.78,47.05 -32.3,90.68 -25.69,164.37 123.1,88.68 259.31,101.37 445.29,75.09 130.65,-18.47 597.98,-69.23 725.68,21.09 67.22,47.55 42.12,84.23 169.64,105.72 162.38,27.37 381.09,-11.42 562.51,0.59 37.77,-29.11 70.49,-139.51 178.03,-288.06 183.82,-253.91 163.62,-165.15 247.78,-226.13 2.89,-203.07 -36.31,-101.22 50.81,-284.26 43.11,-90.57 21.74,-239.8 65.65,-302.92 66.27,-95.27 435.35,-147.86 587.4,-152.84 2.99,3.6 6.77,5.04 7.85,11.64l54.8 114.47c86.61,19.07 443.64,44.23 514.61,13.82 27.71,-120.83 2.78,-167.39 1.18,-278.39 88.22,-1.06 150.81,49.43 305.88,49.48l0.73 131.95c39.01,-95.65 -9.74,-312.07 -10.73,-438.05 -41.95,16.53 -108.14,120.95 -177.34,170.9l-180.68 -64.15 -55.78 258.93c-283.69,-32.18 -768.51,-400.12 -1330.07,-267.27 17.03,275.47 128.59,512.21 141.97,804.4 -45.12,17.44 -92.42,47.4 -125.82,78.2 -177.21,163.45 48.09,91.44 -527.38,58.43 -304.04,-17.43 -555.25,57.71 -857.83,12.61 -237.24,-35.36 -323.92,16.97 -337.36,-129.96z"/>
   <path class="fil15" d="M10806.4 2764.64c-37.29,85.19 -126.35,176.92 -192.13,240.73 310.75,-60.6 206.61,-144.79 405.63,-172.07 -63.51,451.93 -156.18,422.97 -209.94,536.44 -32.06,67.69 -38.56,136.48 -42.01,217.19 -344.57,-52.18 -189.33,88.54 -419.33,315.15 -201.96,198.96 -226.04,142.63 -183.72,602.4 15.43,167.68 37.34,301.56 175.21,353.8 -10.02,183.58 -81.57,521.69 -8.27,675.72 41.21,86.57 70.36,68.32 126.46,126.83 -49.55,58.89 -67.56,25.34 -89.71,97.78 -9.72,31.8 -4.03,176.15 -7.76,227.72 9.25,-6.31 60.08,-30.58 67.67,-35.44 44.16,-28.26 13.71,-4.24 48.87,-45.27 47.43,-55.35 40.65,-55.86 128.81,-78.05 32.59,-26.92 78.03,-63.88 113.74,-83.38 55.56,-30.33 95.65,-30.61 144.77,-70.69 41.11,-141.21 -1.78,-252.12 -6.37,-393.07l-152.88 39.83c-41.89,-165.26 -4.23,-213.72 -2.15,-363.27 2.45,-177.19 -72.26,-202.46 -87.91,-296.17 -18.4,-110.13 64.92,-263.43 85.9,-480.05 5.85,-60.4 5.2,-115.72 41.71,-164.9 88.91,27.41 103.89,155.64 138.31,233.76 40.15,91.14 79.47,174.19 122.58,263.99 72.48,150.96 162.57,384.62 246.92,525.26 132.48,13.48 303.99,-63.57 392.41,-115.57l-44.35 -229.8 -38.61 -30.65c-253.64,-79.46 -235.42,-168.97 -337.01,-405.81 -56.8,-132.41 -73.87,-135.71 -40.15,-292.2 111.18,-515.95 -121.85,-266.04 -82.54,-541.6 14.7,-103.1 44.1,-187.59 60.95,-289.67 29.54,-178.91 -61.38,-474.72 86.55,-601.3l28.61 66.36 0 -68.17c72.31,-1.61 43.16,5.03 92.01,-18.4 -4.85,-58.24 -17.46,-73.1 -36.81,-114.18 -113.13,3.6 -111.28,17.91 -165.16,78 -47.87,53.39 -61.43,61.12 -118.01,102.6 -67.57,49.54 -201.58,139.93 -242.29,186.15z"/>
   <path class="fil16" d="M12449.09 5031.19l4.51 -91.53c-49.91,-43.13 -123.79,-83.12 -195.96,-89.89 -62.13,234.94 -49.46,292.84 77.54,448.21 122.56,149.95 219.48,222.53 218.46,402.61l-209.66 19.63c-26.33,61.87 2.21,46.93 -36.76,103.88l-819.49 60.13c64.1,-228.42 727.64,-638.51 608.96,-1103.67 -163.73,220.13 -39.3,353.51 -437.87,669.76 -107.51,85.3 -200.76,167.99 -326.7,243.82 -105.43,63.48 -277.37,131.41 -328.34,222.27 189.64,71 362.77,-1.94 567.23,0.73 167.36,2.18 354.43,79.64 509.89,130.75l-15.76 141.08c-458.7,106.43 -597.69,68.85 -1064.19,27.33 13.44,146.93 100.12,94.6 337.36,129.96 302.58,45.1 553.79,-30.04 857.83,-12.61 575.47,33.01 350.17,105.02 527.38,-58.43 33.4,-30.8 80.7,-60.76 125.82,-78.2 -13.38,-292.19 -124.94,-528.93 -141.97,-804.4 561.56,-132.85 1046.38,235.09 1330.07,267.27l55.78 -258.93 180.68 64.15c69.2,-49.95 135.39,-154.37 177.34,-170.9 0.99,125.98 49.74,342.4 10.73,438.05l-2.42 313.91c67.15,-18.61 108.09,-47.88 179.44,-61.06 80.33,-14.84 168.28,-6.17 250.42,-6.59 -36.15,-246.01 -111.25,-415.4 -134.67,-689.43 3.75,-60.92 9.55,-17.64 -77.31,-143.49l-212.88 -302.22c-25.96,-28.14 -41.88,-36.48 -60.08,-67.34 -32.75,-55.52 -5.28,-54.93 -54.57,-93.85 1.25,80.09 16.61,83.22 15.46,160.9 -7.18,483.87 -74.39,379.06 -283.88,452.89 -130.04,45.83 -44.84,70.12 -173.33,123.64 -182.49,-162.09 109.24,-267.05 -699.28,-242.26 -479.66,14.7 -677.63,103.08 -759.78,-146.17z"/>
   <path class="fil17" d="M7561.62 2584.64l180.9 -81.64c114.67,70.6 125.57,137.12 195.2,256.37 151.74,259.86 519.27,429.01 820.54,503.74 471.16,116.87 347.72,181.56 686.61,66.78 194.31,-65.81 572.32,-100.34 790.36,-120.31l145.07 -9.42c136.84,-129.47 20.12,-55.22 93.21,-130.8 23.44,-24.24 108.16,-43.6 140.76,-63.99 65.78,-63.81 154.84,-155.54 192.13,-240.73 -389,72.85 -413.53,151.06 -849.87,37.1 -520.34,-135.9 -1542.91,-159.11 -1733.43,-254.07 -75.85,-37.8 -214.39,-163.62 -277.97,-219.05 -99.95,-87.14 -163.16,-167.13 -257.69,-233.41l-15.34 -303.49c-41.67,-25.65 5.77,-4.54 -57.46,-22.29 -127.33,46.01 -135.78,256.76 -120.02,386.8 17.2,141.98 101.42,277.35 67,428.41z"/>
   <path class="fil18" d="M6620.92 1891.23c27.97,49.39 -38.5,330.77 -6.44,624.45 42.53,389.55 100.48,771.18 477.51,905.19 137.29,48.8 442.67,93.5 598.91,84.33l102.61 -201.46c95.86,29.88 88.53,74.9 184.7,113.58 279.24,112.32 1599.16,199.75 1826.28,173.92 78.11,-129.17 58.5,-130.23 209.24,-189.46 116.65,-45.84 172.25,-90.27 221.5,-192.2 -218.04,19.97 -596.05,54.5 -790.36,120.31 -338.89,114.78 -215.45,50.09 -686.61,-66.78 -301.27,-74.73 -668.8,-243.88 -820.54,-503.74 -69.63,-119.25 -80.53,-185.77 -195.2,-256.37l-180.9 81.64c-62.47,-1.27 -85.6,-21.94 -112.87,-67.02 -57.23,-107.45 36.66,-73.12 -73.34,-81.14 -25.19,30.74 -30.06,-43.04 -18.96,72.32 8.19,85.03 147.16,261.06 204.93,313.89 148.18,135.52 110.87,245.06 95.85,470.64 -123.42,-40.88 -324.35,-194.41 -415.3,-261.84 -647.91,-480.34 -293.98,-749.9 -425.64,-1230.45 -33.87,-123.62 -97.18,-130.46 -115.76,-208.5 -52.99,23.47 -54.04,25.74 -98.01,55.17 0,94.26 -10.3,175.45 18.4,243.52z"/>
   <path class="fil19" d="M4378.75 7243.21c-14.6,-78.83 -119.06,-181.23 -156.84,-365.21 -31.52,-153.52 -50.83,-306.09 -51.34,-467.08 -1.06,-330.83 86.2,-595.31 150.75,-889.53 -119.31,18.8 -108.71,1.95 -210.99,-19.52 -12.75,55.55 -8.02,71.76 -47.3,112.08l-389.88 -376.32c-43.6,-60.37 -54.41,-112.28 -106.88,-162.35l-239.23 -7.83c122.8,246.15 113.44,-9.86 167.5,402 77.87,593.28 328.3,668.51 306.53,1346.77 -11.85,369.23 -47.35,656.7 86.85,982.65 112.37,272.89 181.62,324.43 300.29,527.66l69.29 134.38c20.45,31.35 7.93,14.95 26.35,31.39 95.19,-50.11 77.6,-135.8 78.11,-260.64 0.67,-166.85 6.34,-515.02 -13.87,-662.12l8.82 -293.04c2.17,-5.32 8.58,-6.39 10.37,-16.74 1.83,-10.58 6.28,-12.3 11.47,-16.55z"/>
   <path class="fil20" d="M13871.35 7955.84c3.11,5.28 14.68,24.48 16.05,28.41 29.6,85.54 -16.05,118.12 -16.05,241.36l182.37 26.04c27.59,67.99 318.78,533.51 351.36,677.14 61.82,272.48 62.09,643.54 -293.86,683 -27.71,118.03 -99.04,241.79 -38.31,368.1 47.35,98.44 142.24,116.99 174.75,246.75 -41.2,-7.58 -34.35,-33.17 -63.44,-75.1l-196.51 2.29c35.77,98.25 29.2,91.23 118.53,138.27 11.97,300.35 -133.99,153.96 -223.8,429.07 -88.24,-43.23 -52.63,-66.32 -151.91,-111.73 23.52,60.29 16.54,120.54 47.57,160.5 60.71,78.15 49.9,1.37 125.55,54.77 -53.23,224.14 -1.55,169.64 190.4,167.43 66.71,-103.85 197.28,-261.06 254.5,-378.82l-131.29 11.52c-60.13,-549.65 318.35,-314.6 398.82,-590.93 -27.45,-26.63 45.2,-23.5 -52.61,-21.6 -114.17,23.79 -34.08,103.79 -218.71,76.79l-33.11 -108.69c-252.96,-42.63 -216.7,-140.33 -98.49,-285.6 101.25,-124.42 325.03,-33.9 452.81,-120.67 40.73,-148.89 37.96,-183.05 126.17,-275.27 89.98,-94.07 103.05,-139.35 110.73,-298.61 -26.44,-44.95 -8.27,-20.79 -20.03,-71.2l-16.85 -60.37c-38.26,-75.83 -31.48,14.24 -62.88,-115.59 -20.33,-84.09 -36.61,-179.99 -70.37,-260.72 -97.7,-233.52 -216.66,-2.06 -292.06,-388.3 -96.17,-492.61 128.53,-725.82 -673.99,-623.5 -13.38,231.84 85.49,298.13 145.72,475.54l-41.06 -0.28z"/>
   <path class="fil21" d="M6896.86 6849.38c5.72,82.2 138.27,213.77 190.53,241.51l-25.95 -125.99c301.27,34.75 44.26,-33.07 470.79,319.07 359.78,297.03 854.64,594.52 1250.82,865.1 126.39,86.32 173.83,74.51 346.39,84.87 50.87,131.24 39.31,84.36 188.96,134.43 86.2,28.83 153.48,62.39 243.23,87.53 87.34,24.46 181.18,41.94 279.55,54.79 178.86,23.36 217.98,14.66 220.94,109.85 86.93,-45.27 154.52,-153.26 268.18,-178.17 131.49,-28.81 276.31,25.25 404.76,44.38l-78.65 -42.79c-186.75,-61.56 -591.43,-45.41 -713.86,-113.41 129.44,-86.43 258.15,-67.26 432.4,-80.87l120.66 -229.68c120.84,33.91 270.88,141.3 326.79,224.19 112.95,167.46 160.49,150.96 415.4,130.35 307.84,-24.88 671.38,-98.35 756.68,-346.93 -166.47,26.52 -287.9,58.34 -433.36,120.66 -261.25,111.93 -198.66,-25.63 -347.27,-92.53 -115.01,-51.77 -322.67,-34.97 -461.55,-90.01 -178.48,-70.74 -132.98,-175.55 -322.92,-208.26l-11.19 29.24 -56.54 338.56c-365.71,39.68 -785.23,91.65 -1153.8,4.5 -140.86,-33.31 -257.95,-170.59 -373.43,-252.65 -131.67,-93.58 -246.49,-162.24 -372.65,-253.06 -244.28,-175.85 -465.31,-356.35 -717.27,-533.94 -105.39,-74.28 -743.93,-354.02 -887.45,-348.2l39.81 107.46z"/>
   <path class="fil22" d="M10418.19 7786.71l11.19 -29.24c31.4,-86.82 46.67,-175.35 0.87,-278.02 -6.14,-35.81 -29.51,-83.67 -39.25,-130.69l-18.08 -29.65c-2.3,-4.62 -5.34,-9.58 -7.58,-14.67 -3.17,-7.17 -8.74,-23.48 -10.4,-28.75 -0.46,-1.46 -8.71,-50.53 -9.5,-54.97 -15.69,11.03 -26.82,17.15 -44.38,33.21 -66,44.94 -279.42,11.08 -342.7,-3.62 -155.67,-36.18 -140.94,-94.12 -240.06,-164.44 -96.68,-68.6 -497.33,-138.52 -638.53,-169.18 -719.18,-156.17 -535.88,-266.17 -832.13,-384.19 -63.35,-25.24 -96.46,-25.24 -151.23,-50.53 -96.46,-44.52 -94.17,-53.78 -116.63,-93.68 34.92,-19.21 98.07,-38.57 139.07,-62.26 53.45,-30.9 56.71,-63.41 93.36,-108.38 66.65,-81.78 191.43,-76.99 292.81,-113.38 139.79,-50.19 116.63,-116.46 260.31,-143.35 91.2,-17.06 304.75,-35.62 391.8,-24.98 -33.7,-61.57 -0.29,-43.44 -58.14,-59.18 -116.08,5.07 -341.82,-18.48 -492.95,16.79 -142.61,33.29 -77.31,99.11 -413.36,174.77 -291.15,65.54 -693.89,97.59 -889.02,287.43 27.69,255.11 390.51,456.53 586.98,570.44 91.8,53.22 278.19,197.58 371.22,221.09 101.18,25.58 439.23,-25.52 538.94,-46.57 324.36,-68.45 241.24,55.22 450.22,101.66 177.62,39.47 335.16,4.01 501.37,88.16 128.68,65.16 299.73,95.3 399.93,188.97 184.92,172.83 35.57,160.92 -26.83,359.21 92.13,96.07 104.25,74.68 178,222.02 109.92,-98.67 20.76,-185.85 114.7,-274.02z"/>
   <path class="fil23" d="M4228.65 4236.96l-5.1 132.59c-99.73,56.78 -59.21,50.59 -123.62,108.71 172.69,-10.8 436.97,74.36 543.74,152.76 -29.81,202.42 -41.61,189.7 -134.3,331.75 -70.27,107.69 -69.18,228.02 -115.12,336.12l-70.18 224.08c91.89,-10.3 215.24,168.59 327.83,226.31 45.25,-40.87 75.01,-134.81 101.13,-193.77 34.37,-77.6 60.26,-135.93 96.3,-216.4 64.32,-143.63 122.24,-281.71 186.24,-420.93 82.13,-178.68 85.54,-270.47 232.14,-374.92 166.38,-118.55 -9.62,-126.43 284.83,-340.41 100.36,-72.93 259.1,-176.87 423.95,-185.03 442.36,-21.92 414.24,315.09 487.61,416.77 44.67,61.89 75.05,111.28 112.57,199.78 73.49,173.31 88.74,304.4 125.87,489.2l120.8 0c0,-322.41 -76.51,-627.74 -224.78,-805.24 -149.39,-178.85 -283.51,-423.25 -543.47,-486.75 -420.33,-102.67 -847.34,74.7 -1132.14,349.08 -115.72,111.48 -158.22,167.74 -197.44,336.01 -205.22,-17.06 -269.18,-72.52 -391.03,-197.86l-74.46 -69.69c-40.93,-24.23 11.28,-5.46 -31.37,-12.16z"/>
   <path class="fil24" d="M14902.87 9000.26c-7.68,159.26 -20.75,204.54 -110.73,298.61 -88.21,92.22 -85.44,126.38 -126.17,275.27 -127.78,86.77 -351.56,-3.75 -452.81,120.67 -118.21,145.27 -154.47,242.97 98.49,285.6l33.11 108.69c184.63,27 104.54,-53 218.71,-76.79l0 -17.5 -138.13 5.5 58.79 -292.15 381.66 30.62c56.13,-52.17 29.18,-40.78 69.45,-107.85 -52.86,-211.05 161.55,-366.56 365.7,-337.42 10.52,-181.62 10.56,-234.13 71.47,-369.74 33.63,32.52 14.11,-0.41 44.72,55.61 2.07,-80.57 31.26,-180.3 47.32,-259.09 18.7,-91.77 33.77,-184.5 43.24,-269.43 22.33,-200.22 19.85,-399.24 19.85,-623.75 -66.54,88.05 -24.54,165.82 -33.58,267.43 -8.83,99.14 -108.82,516.79 -258.63,588.13l106.62 -722.39c-131.65,48.9 -98.69,162.55 -119.55,114.15 -1.27,-2.97 -5.42,7.77 -8.75,11.11 -89.65,-120.04 -212.15,-60.37 -386.57,-68.97 0,-159.66 6.21,-291.83 -55.06,-427.83 -93.15,-206.77 -40.33,-195.19 -33.37,-405.4 -201.99,-203.67 -140,-71.38 -404.19,-92.81 -83.47,-175.8 -139.15,-162.84 -236.39,-298.98 -143.81,-201.36 -113.85,-157.39 -22.83,-349.36 -209.79,60.84 -412.96,120.31 -440.13,336.55 43.07,26.38 76.18,25.43 123.64,57.34 272.16,183.01 210.97,76.87 361.04,172.21 508.83,323.24 279.76,141.48 487.64,231.29 73.47,205.07 -423.07,330.11 218.6,1104.28 132.28,159.6 44.28,179.95 315.89,204.94 18.27,244.6 -176.62,191.88 -243.34,326.52l4.29 124.94z"/>
   <path class="fil25" d="M10614.27 3005.37c-32.6,20.39 -117.32,39.75 -140.76,63.99 -73.09,75.58 43.63,1.33 -93.21,130.8 119.77,-14.88 83.09,21.55 200.33,26.73 61.03,-111.21 52.95,-108.16 210.1,-127.76l-110.21 343.85 -196.93 13.62c-91.67,116.48 -3.69,116.2 -195.74,187.15l13.54 40.96c25.97,33.3 32.58,-43.12 7.91,65.76 -19.68,86.87 -137.76,146.16 -229.07,306.48 -82.31,144.52 -105.55,324.92 -111.18,514.04 -6.24,209.72 21.98,404.66 -15.69,609.61 -60.36,328.5 1.3,262.42 112.29,457.91 -23.39,59.76 -122.77,162.53 -158.44,194.48 -68.94,61.75 -185.06,52.09 -289.43,49.76 -201.2,-48.48 -340.16,-25.17 -549.29,-33.49 0,38.57 -9.26,28.46 30.5,27.5 57.85,15.74 24.44,-2.39 58.14,59.18 36.4,-0.89 66.41,-2.61 104.69,4.75 22.52,4.33 22.48,4.07 43.11,13.25 38.58,17.14 13.95,1.63 38.05,24.08 167.91,-5.51 406.03,3.2 539.65,78.46 100.12,56.4 148.41,15.58 207.41,106.33 92.48,142.23 50.39,49.3 185.57,127.65 12.19,96.69 -50.26,96.13 1.83,282.36 220.04,74.09 61.49,70.61 292.38,3.82 102.22,-25.23 124.04,-107.85 122.53,-224.34l-333.22 -103.05 1.7 -262.92c3.73,-51.57 -1.96,-195.92 7.76,-227.72 22.15,-72.44 40.16,-38.89 89.71,-97.78 -56.1,-58.51 -85.25,-40.26 -126.46,-126.83 -73.3,-154.03 -1.75,-492.14 8.27,-675.72 -137.87,-52.24 -159.78,-186.12 -175.21,-353.8 -42.32,-459.77 -18.24,-403.44 183.72,-602.4 230,-226.61 74.76,-367.33 419.33,-315.15 3.45,-80.71 9.95,-149.5 42.01,-217.19 53.76,-113.47 146.43,-84.51 209.94,-536.44 -199.02,27.28 -94.88,111.47 -405.63,172.07z"/>
   <path class="fil26" d="M12082.12 7355.99l-249.29 70.59c-103.61,34.68 -208.65,21.61 -322.46,20.31l-12.06 369.5c-435.5,0.77 -310.09,26.83 -421.67,-139.28 -52.95,-78.83 -65.16,-51.36 -65.8,-180 -0.83,-169.16 37.18,-306.68 31.12,-477.35l-648.41 -58.97 -57.06 72.67 8.95 187.26c0.79,4.44 9.04,53.51 9.5,54.97 1.66,5.27 7.23,21.58 10.4,28.75 2.24,5.09 5.28,10.05 7.58,14.67l18.08 29.65 -25.99 -302.87 561.59 66.25c15.03,157.92 -32.91,213.36 -156.71,263.84 -99.28,40.49 -227.57,94.13 -339.64,103.47 45.8,102.67 30.53,191.2 -0.87,278.02 189.94,32.71 144.44,137.52 322.92,208.26 138.88,55.04 346.54,38.24 461.55,90.01 148.61,66.9 86.02,204.46 347.27,92.53 145.46,-62.32 266.89,-94.14 433.36,-120.66l55.96 -3.61c80.47,-100.52 155.52,-151.78 215.47,-219.9 31.88,-36.23 72.74,-84.1 107.18,-113.68 61.22,-52.58 66.79,-36.9 123.06,-98.48 25.56,-135.45 177.01,-346.33 237.24,-479.4 52.43,-115.86 140.81,-434.24 152.02,-576.16 -105.36,52.85 -94.3,113.38 -130.9,246.27 -31.6,114.73 -138.2,473.29 -196.04,559.79l-177.69 211.47c-140.64,-13.36 -154.3,-11.87 -303.24,-8.44l4.58 -189.48z"/>
   <path class="fil27" d="M10336.49 7033.46l57.06 -72.67 648.41 58.97c6.06,170.67 -31.95,308.19 -31.12,477.35 0.64,128.64 12.85,101.17 65.8,180 111.58,166.11 -13.83,140.05 421.67,139.28l12.06 -369.5c113.81,1.3 218.85,14.37 322.46,-20.31l249.29 -70.59c58.27,-103.98 59.21,-160.2 154.54,-224.99 104.85,-71.26 171.7,-56.62 210.59,-187.5 -181.42,-12.01 -400.13,26.78 -562.51,-0.59 -127.52,-21.49 -102.42,-58.17 -169.64,-105.72 -127.7,-90.32 -595.03,-39.56 -725.68,-21.09 -185.98,26.28 -322.19,13.59 -445.29,-75.09 -6.61,-73.69 0.91,-117.32 25.69,-164.37 -230.89,66.79 -72.34,70.27 -292.38,-3.82l59.05 460.64z"/>
   <path class="fil28" d="M10062.12 8620.54c-620.43,180.35 -218.96,485.49 97.17,543.87l120.21 21.35c42.8,15.8 12.92,-2.19 37.92,20.56l-25.92 73.89c143.46,-18.6 160.64,-91.98 356.61,-68.19 -24.14,-58.14 -42.29,-66.51 -56.62,-150.88 215.94,9.08 352.9,66.09 566.46,-9.28 266.59,-94.07 139.1,-219.4 85.39,-422.56 -231.47,-1.9 -324.01,-64.25 -508.28,-142.55 -128.45,-19.13 -273.27,-73.19 -404.76,-44.38 -113.66,24.91 -181.25,132.9 -268.18,178.17z"/>
   <path class="fil29" d="M3152.57 4972.58c127.1,20.7 114.31,5.55 174.47,94.87l239.23 7.83c164.85,8.97 106.11,29.69 198.05,89.74 59.63,38.95 144.04,39.02 219.51,55.02 181.61,38.48 259.92,194.2 410.42,78.85 45.94,-108.1 44.85,-228.43 115.12,-336.12 92.69,-142.05 104.49,-129.33 134.3,-331.75 -106.77,-78.4 -371.05,-163.56 -543.74,-152.76 -98.94,12.95 -233.94,-126.55 -441.92,-17.08 -106.19,55.88 -194.16,195.46 -238.9,329.06l-228.23 11.26c-22.42,51.15 -45.36,96.37 -38.31,171.08z"/>
   <path class="fil30" d="M10117.92 16821.59c-130.63,40.2 -247.72,70.48 -384.64,92.34 -143.43,22.9 -163.44,151.54 -160.6,306 181.97,23.3 404.19,-85.88 618.25,-69.7 162.26,12.26 663.39,157.81 747.67,13.99 20.36,-125.22 -36.98,-366.91 -100.5,-457.4 -81.99,-116.8 -165.42,-135.55 -265.22,-304.73 -178.05,-301.82 -179.16,-42.9 -399.38,180.27 -77.4,78.44 -46.12,126.57 -55.58,239.23z"/>
   <path class="fil31" d="M8230.83 15845.56c1.75,0.86 475.94,40.07 487.93,38.69 39.99,-81.09 31.21,-112.34 119.01,-140.44 229.4,-73.41 254.88,58.52 201.47,-387.49l10.76 -98.04c60.29,29.17 29.27,0.78 62.82,82.61 17.35,42.32 34.59,83.33 48.69,118.25l343.71 -16.58c46.04,-201.21 173.25,-637.94 153.22,-833.85l-135.35 -367.98c-66.18,-93.37 -127.59,-206.58 -227.99,-250.8 177.39,435.42 185.77,292.27 61.49,781.73 -291.07,40.48 -135.15,-48.02 -224.15,181.42l-154.43 5.51c-44.41,396.86 -171.31,300.31 -310.35,504.57 -57.72,84.81 -108.19,424.17 -436.83,382.4z"/>
   <path class="fil32" d="M15300.94 9293.51c14.69,144.38 11.3,225 -68.09,298.95 -88.61,82.56 -168.51,43.04 -297.61,38.47 -40.27,67.07 -13.32,55.68 -69.45,107.85 -29.39,63.93 -69.54,81.59 -127.53,149.9 -61.77,72.76 -54.29,84.35 -174.79,106.13l0 17.5c97.81,-1.9 25.16,-5.03 52.61,21.6 -80.47,276.33 -458.95,41.28 -398.82,590.93l131.29 -11.52c198.6,-95.15 865.16,-779.24 1538.15,-830.53 72.45,-5.52 229.39,29.1 272.15,-6.35 -50.84,-17.72 -78.59,-15.24 -126.56,-44.42 -60.28,-36.68 -37.52,-47.13 -129.35,-73.28 -217.34,-61.9 -401.33,60.2 -473.29,-299.42 -18.79,-93.91 -12.52,-255.7 -12.52,-379.94 -30.61,-56.02 -11.09,-23.09 -44.72,-55.61 -60.91,135.61 -60.95,188.12 -71.47,369.74z"/>
   <path class="fil33" d="M10864.69 5673.5c220.8,-97.48 149.43,-403.75 282.04,-495.46 111.47,-77.11 466.46,-72.74 626.34,-126.72 21.8,-127.26 -44.83,-251.41 -85.47,-350.17l-88.74 -7.64 44.35 229.8c-88.42,52 -259.93,129.05 -392.41,115.57 -84.35,-140.64 -174.44,-374.3 -246.92,-525.26 -43.11,-89.8 -82.43,-172.85 -122.58,-263.99 -34.42,-78.12 -49.4,-206.35 -138.31,-233.76 -36.51,49.18 -35.86,104.5 -41.71,164.9 -20.98,216.62 -104.3,369.92 -85.9,480.05 15.65,93.71 90.36,118.98 87.91,296.17 -2.08,149.55 -39.74,198.01 2.15,363.27l152.88 -39.83c4.59,140.95 47.48,251.86 6.37,393.07z"/>
   <path class="fil34" d="M8755.57 14480.83c-47.3,-105.74 -79.74,-260.98 -17.76,-363.08 41.93,-69.08 88.7,-53.23 183.47,-59.99 67.38,-4.81 128.73,-17.35 190.75,-3.08 6.09,80.65 10.3,165.91 14.49,246.8 12.43,239.88 89.02,189.66 -370.95,179.35zm-631.42 -51.52c68.24,140.76 213.74,447.58 363.26,485.27 12.51,-50.18 -0.36,-87.21 -0.93,-128.34 220.62,-162.26 175.27,-121.87 526.71,-121.87 134.58,0 142.64,1 197.82,-93.27 36.33,-62.06 79.79,-141.69 91.11,-221.12 25.69,-180.28 -94.15,-310.19 -141.15,-454.36 -172.46,-0.5 -537.23,34.24 -672.53,100.59 -85.11,41.74 -121.14,116.68 -173.66,213.18 -73.89,135.76 -130.92,120.91 -190.63,219.92z"/>
   <path class="fil35" d="M6435.24 8146.28l23.79 48.64 105.71 34.94c45.25,4.31 90.65,3.81 137.7,0.86 -19.34,163.08 -125.64,217.73 -293.75,377.44 -122.51,116.39 -215.88,189.89 -441.84,217.17 -15.38,384.89 242.74,99.61 396.44,165.58 77.21,-15.73 104.26,-28.01 158.19,-67.9 271.16,-200.6 165.92,-14.77 375.32,-305.34 224.61,-311.66 221.79,-168.06 303,-625.14l-0.3 -86.15c-148.36,44.71 -227.19,154.34 -345.16,227.11 -210.24,129.68 -218.32,70.43 -419.1,12.79z"/>
   <path class="fil36" d="M15490.83 7330.46c56.46,-104.08 -143.18,-465.94 -190.45,-563.78 -35.35,-73.16 -37.54,-115.86 -85.68,-172.4 -304.51,21.37 -571.45,214.53 -414.11,433.03 119.85,166.45 53.8,3.37 160.49,280.21 49.57,128.64 85.67,204.12 235.22,232.88 35.38,-39 17.01,-19.92 47.54,-71.51 26.57,-44.91 12.33,-28.45 44.47,-64.02 70.03,5.87 76.41,20.57 121.73,63.72 17.35,-41.81 23.44,-72.11 42.87,-106.03 52.54,-91.76 36.9,5.81 37.92,-32.1z"/>
   <path class="fil37" d="M13039.18 17831.61c215.57,0 507.23,12.56 659.03,-99.47 84.04,-62.02 140.23,-111.67 231.7,-154.65 303.52,-142.63 392.57,-238.65 604.14,-554.85 143.16,-213.95 171.36,-348.81 239,-570.25 -117.91,71.07 -181.07,259.31 -330.47,423.64 -103.4,113.74 -484.07,381.19 -653.69,468.67 -87.25,45.01 -177.5,68.68 -251.84,116.1 -104.56,66.69 -63.62,129.77 -174.28,193.79 -218.9,126.64 -62.61,6.67 -192.49,141.16 -37.2,38.53 -17.43,28.22 -131.1,35.86z"/>
   <path class="fil38" d="M5418.02 7548.11c-200,14.37 -425.57,70.06 -617.64,1.88 -143.1,-50.79 -282.95,-195.82 -432.75,-257.28 -12.84,427.05 0.44,135.67 96.24,501.52 83.85,24.79 182.37,27.34 281.86,32.71l67.39 203.94c81.71,6.54 169.77,-2.37 244.26,-18.93 123.26,-27.4 75.44,-59.67 143.13,-133.11 135.3,-146.8 164.31,-1.18 217.51,-330.73z"/>
   <path class="fil39" d="M6241.34 5894.42c-44.82,114.01 -127.17,231.52 -165.48,359.45l-152.58 -13.39c46.34,61.87 62.91,39.31 131.93,73.32 177.54,87.44 106.14,229.37 363.29,75.07 18.27,23.54 21.14,-47.38 19.32,56.79 94.46,-71.21 238.77,-456.87 244.03,-625.7 -165.13,-37.42 -130.67,-180.1 -271.5,-239.83 15.66,251.54 -114.47,144.66 -169.01,314.29z"/>
   <path class="fil40" d="M7283.31 7623.96c-17.98,-110.94 21.95,-224.44 -105.04,-285.21l54.93 166.28c-152.59,47.61 -200.6,170.43 -273.24,200.88 -64.65,27.1 -551.96,60.96 -635.05,-24.61 -173.41,-178.56 -105.38,-380.49 -288.02,-433.16l114.46 670.05c24.15,2.93 122.97,52.99 322.4,53.93 454.58,2.14 654.74,-261.61 809.56,-348.16z"/>
   <path class="fil41" d="M15166.34 11298.93l5.2 92.54 145.82 -44.61c-78.91,60.34 -105,145.03 -105.91,291.1 226.86,88.81 144.66,105.18 336.14,-57.23 209.65,-177.83 246.47,-85.72 321.16,-190.76l-145.32 -136.12c-49.6,-30.61 -168.64,-5.3 -240.15,-0.94l58.68 -46.44c70.54,-54.39 68.92,-66.65 91.23,-161.07 -23.58,-25.34 44.43,-29.6 -53.97,-16.96 -210.24,43.13 -300.52,162.44 -412.88,270.49z"/>
   <path class="fil42" d="M5766.06 5719.4l-6.31 66.06c60.68,33.43 -71.21,-43.68 38.75,13.17 37.06,19.17 19.51,1.11 42.03,31.41 15.73,21.15 11.8,28.03 22.02,51.76 1.76,4.1 3.47,9.39 5.23,13.29 1.72,3.81 4.46,9.2 6.1,12.58l14.23 23.82c28.74,-78.74 48.29,-91.41 125.54,-130.08 107.58,35.01 66.7,91.99 227.69,93.01 54.54,-169.63 184.67,-62.75 169.01,-314.29 -214.09,-78.61 -68.06,-35.77 -181.35,-101.7 -264.42,-153.89 -478.93,30.74 -462.94,240.97z"/>
   <path class="fil43" d="M13730.53 10609.44c99.28,45.41 63.67,68.5 151.91,111.73 89.81,-275.11 235.77,-128.72 223.8,-429.07 -89.33,-47.04 -82.76,-40.02 -118.53,-138.27 -181.26,6.92 -326.51,-110.22 -410.54,102.02 -80.76,203.98 126.96,287.33 153.36,353.59z"/>
   <path class="fil44" d="M5923.28 6240.48l152.58 13.39c38.31,-127.93 120.66,-245.44 165.48,-359.45 -160.99,-1.02 -120.11,-58 -227.69,-93.01 -77.25,38.67 -96.8,51.34 -125.54,130.08l-14.23 -23.82c-1.64,-3.38 -4.38,-8.77 -6.1,-12.58 -1.76,-3.9 -3.47,-9.19 -5.23,-13.29 -10.22,-23.73 -6.29,-30.61 -22.02,-51.76 -22.52,-30.3 -4.97,-12.24 -42.03,-31.41 -109.96,-56.85 21.93,20.26 -38.75,-13.17l6.31 -66.06c-46.75,39.49 -102.38,157.46 -103.97,231.25 -1.36,63.6 41.09,189.86 64.39,249.83l196.8 40z"/>
   <path class="fil45" d="M10391 7348.76c9.74,47.02 33.11,94.88 39.25,130.69 112.07,-9.34 240.36,-62.98 339.64,-103.47 123.8,-50.48 171.74,-105.92 156.71,-263.84l-561.59 -66.25 25.99 302.87z"/>
   <path class="fil46" d="M11665.48 13540.63c76.27,-46.42 56.45,-48.24 104.61,-114.64l49.14 -173.52c-52.43,-47.98 -216.11,-172.43 -266.54,-185.47 -47.35,30.11 -161.42,156.39 -186.15,239.81 -22.82,76.99 88.72,169.27 129.85,261.8l169.09 -27.98z"/>
   <g>
    <path class="fil47" d="M5106.86 5329.26c232.69,-25.07 344.1,-159.08 441.75,-284.7 67.98,-87.43 312.55,-333.86 333.23,-399.15 -89.54,-160.73 -127.49,-12.8 -257.59,32.59l10.84 -242.88c-191.37,32.27 -277.32,208.39 -375.9,338.98 -72.49,96.03 -88.18,80.94 -107.46,241.39 -13.49,112.19 -38.81,196.05 -44.87,313.77z"/>
    <path class="fil47" d="M1654.91 4945.71c170.83,-91.97 151.54,-59.1 255.08,-225.17 47.19,55.66 47.3,268.09 319.94,208.92 148.62,-32.25 71.48,-129.22 145.04,-280.31 -86.28,-22.58 -119.33,-88.04 -170.07,-170.22 -38.7,-62.67 -78.85,-143.64 -129.3,-197.24 -216.48,216.23 -362.01,207.05 -420.69,664.02z"/>
   </g>
   <g>
    <path class="fil48" d="M15166.34 11298.93c-122.09,50.58 -63.95,53.9 -118.94,149.59 -23.4,40.71 -84.6,74.69 -130.72,111.83 2.09,50.5 56.34,277.15 74.46,314.11 54.51,111.16 793.43,440.79 959.61,-185.9 14.4,-54.33 22.35,-105.18 25.49,-165.01 14.21,-270.73 -68.21,-28.55 -104.44,-273.12 -12.22,-82.51 -63.78,-190.69 -138.02,-227.76 -54.88,-27.4 -121.25,-35.93 -154.56,5.77 98.4,-12.64 30.39,-8.38 53.97,16.96 -22.31,94.42 -20.69,106.68 -91.23,161.07l-58.68 46.44c71.51,-4.36 190.55,-29.67 240.15,0.94l145.32 136.12c-74.69,105.04 -111.51,12.93 -321.16,190.76 -191.48,162.41 -109.28,146.04 -336.14,57.23 0.91,-146.07 27,-230.76 105.91,-291.1l-145.82 44.61 -5.2 -92.54z"/>
    <path class="fil48" d="M14618.05 11089.26c162.54,23.61 77.45,-175.12 470.79,-389.93 166.42,-90.89 -3.36,-84.13 151.75,-142.29 166.56,-62.46 253.72,-139.44 395.74,-193.41 188.68,-71.71 316.68,0.85 480.7,-90.34 -65.03,-330.06 -597.3,-225.53 -848.58,-111.9 -142.95,64.65 -252.31,144.85 -362.22,226.33 -280.31,207.79 -60.31,265.94 -74.49,363.43 -50.48,88.22 -244.12,194.65 -213.69,338.11z"/>
   </g>
   <g>
    <path class="fil49" d="M6933.67 930.47l-23.51 52.21 139.18 50.41c-24.85,241.1 -124.08,886.39 -24.07,1092.33 21.96,45.21 52.07,77.67 74.74,127.88 28.08,62.2 25.77,106.11 54.57,144.57 86.11,-45.16 117.06,-105.08 207.64,-146.76 35.62,98.02 80.2,152.86 86.53,266.51 27.27,45.08 50.4,65.75 112.87,67.02 34.42,-151.06 -49.8,-286.43 -67,-428.41 -15.76,-130.04 -7.31,-340.79 120.02,-386.8 63.23,17.75 15.79,-3.36 57.46,22.29 4.72,-104.5 -46.34,39.54 -154.28,-102.38 -52.57,-69.13 -82.1,-78.89 -153.53,-121.27l-43.59 -676.23c-63.75,2.65 -88.56,11.84 -157.76,29.12 -48.19,12.03 -121.71,43.87 -137.26,9.51 -86.53,-13.9 -29.21,26.94 -73.52,-36.79 -69.65,18.47 -25.55,-4.89 -18.49,36.79z"/>
    <path class="fil49" d="M14563.47 9994.81c120.5,-21.78 113.02,-33.37 174.79,-106.13 57.99,-68.31 98.14,-85.97 127.53,-149.9l-381.66 -30.62 -58.79 292.15 138.13 -5.5z"/>
   </g>
   <g>
    <path class="fil50" d="M6700.53 1592.54c18.58,78.04 81.89,84.88 115.76,208.5 131.66,480.55 -222.27,750.11 425.64,1230.45 90.95,67.43 291.88,220.96 415.3,261.84 15.02,-225.58 52.33,-335.12 -95.85,-470.64 -57.77,-52.83 -196.74,-228.86 -204.93,-313.89 -11.1,-115.36 -6.23,-41.58 18.96,-72.32 110,8.02 16.11,-26.31 73.34,81.14 -6.33,-113.65 -50.91,-168.49 -86.53,-266.51 -90.58,41.68 -121.53,101.6 -207.64,146.76 -28.8,-38.46 -26.49,-82.37 -54.57,-144.57 -22.67,-50.21 -52.78,-82.67 -74.74,-127.88 -100.01,-205.94 -0.78,-851.23 24.07,-1092.33l-139.18 -50.41 23.51 -52.21c-44.62,33.04 -51.81,57.23 -79.19,123.43 -55.63,134.5 -104.74,289.08 -104.74,446.68 -29.29,14.54 33.84,18.85 -55.21,0l6 91.96z"/>
    <path class="fil50" d="M14935.24 9630.93c129.1,4.57 209,44.09 297.61,-38.47 79.39,-73.95 82.78,-154.57 68.09,-298.95 -204.15,-29.14 -418.56,126.37 -365.7,337.42z"/>
   </g>
   <g>
    <path class="fil51" d="M5774.33 14907.47l-0.51 36.2c22.21,-68.57 -53.43,-29.38 169.38,-52.7 12.96,-35.73 72.75,-212.58 88.86,-237.74 42.06,39.8 49.97,80.08 74.38,143.75l222.49 -531.11c48.6,-98.77 42.12,-76.35 161.65,-95.71 178.85,-228.86 128.68,-182.26 358.63,-340.09 166.43,-114.23 188.14,-234.64 358.45,-340.96 135.81,-84.79 325.64,-164.32 452.68,-246.79 101.22,-65.7 97.26,-95.45 248.35,-98.75 175.36,-3.85 183.09,-49.27 320.33,-62.97 -27.7,-51.09 -45.3,-98.18 -76.21,-145.35 -37.41,-57.07 -70.81,-62.77 -97.37,-124.33 -114.31,-74.66 -429.59,184.18 -536.14,254.14 -209.14,137.32 -317.84,149.45 -519.96,307.95 -303.45,237.96 -641.74,494.35 -856.82,798.88 -72.17,102.17 -148.06,223.02 -208.88,342.97 -155.89,307.46 -214.63,249.46 -159.31,392.61z"/>
    <path class="fil51" d="M11560.25 4662.86c-19.22,-106.53 -79.26,-210.21 -47.25,-293.9 58.31,-152.48 84,-82.43 58.34,-312.56 -25.5,-228.69 -55.98,-470.08 -61.24,-702.19 83.8,6.54 281.7,83.3 324.11,3.84 -97.06,-234.42 -224.72,26.43 -373.79,-275.61 -116.58,-236.21 -116.66,-320.52 -183.76,-483.8l-28.61 -66.36c-147.93,126.58 -57.01,422.39 -86.55,601.3 -16.85,102.08 -46.25,186.57 -60.95,289.67 -39.31,275.56 193.72,25.65 82.54,541.6 -33.72,156.49 -16.65,159.79 40.15,292.2 101.59,236.84 83.37,326.35 337.01,405.81z"/>
   </g>
   <g>
    <path class="fil52" d="M11343.89 14116.76l-3.7 244.43c144.07,27.6 299.15,82.82 432.53,93.45 212.45,16.93 267.75,-15.37 470.58,56.89 20.89,226.45 43.68,183.52 238.17,259.18 106.67,41.5 283.29,116.87 411.46,96.95 258.53,-40.17 93.09,-628.82 71.35,-820.44 -257.61,-39.22 -65.35,-14.07 -315.9,-106.25 -116.53,-42.86 -208.51,-88.17 -341.21,-102.33 -131.61,-14.04 -289.5,0.55 -423.25,7.62 -191.52,10.12 -277.97,-21.52 -441.55,-31.39 -28.33,107.23 -82.96,150.78 -98.48,301.89z"/>
    <path class="fil52" d="M8755.57 14480.83c459.97,10.31 383.38,60.53 370.95,-179.35 -4.19,-80.89 -8.4,-166.15 -14.49,-246.8 -62.02,-14.27 -123.37,-1.73 -190.75,3.08 -94.77,6.76 -141.54,-9.09 -183.47,59.99 -61.98,102.1 -29.54,257.34 17.76,363.08z"/>
   </g>
   <g>
    <path class="fil53" d="M10301.06 7253.93l-136.44 14.53c-22.66,-95.95 -75.63,-177.32 -51.51,-293.68 79.56,-383.89 83.65,-318.52 -197.26,-359.6l50.03 -268.5c-153.36,-28.12 -313.4,-29.47 -465.28,-53.06 -210.79,-32.73 -237.31,-73.84 -381.71,-134.24 8.92,-166.67 77.9,-173.67 224.09,-181.36 -24.1,-22.45 0.53,-6.94 -38.05,-24.08 -20.63,-9.18 -20.59,-8.92 -43.11,-13.25 -38.28,-7.36 -68.29,-5.64 -104.69,-4.75 -87.05,-10.64 -300.6,7.92 -391.8,24.98 -143.68,26.89 -120.52,93.16 -260.31,143.35 -101.38,36.39 -226.16,31.6 -292.81,113.38 -36.65,44.97 -39.91,77.48 -93.36,108.38 -41,23.69 -104.15,43.05 -139.07,62.26 22.46,39.9 20.17,49.16 116.63,93.68 54.77,25.29 87.88,25.29 151.23,50.53 296.25,118.02 112.95,228.02 832.13,384.19 141.2,30.66 541.85,100.58 638.53,169.18 99.12,70.32 84.39,128.26 240.06,164.44 63.28,14.7 276.7,48.56 342.7,3.62z"/>
    <path class="fil53" d="M6147.05 7030.02c-44.08,20.66 -66.16,23.48 -85.77,55.58l-24.39 162.54c182.64,52.67 114.61,254.6 288.02,433.16 83.09,85.57 570.4,51.71 635.05,24.61 72.64,-30.45 120.65,-153.27 273.24,-200.88l-54.93 -166.28 -90.88 -247.86c-52.26,-27.74 -184.81,-159.31 -190.53,-241.51 -112.73,-34.55 -171.86,-72.23 -253.98,-129.4 -81.15,-56.49 -118.96,-138.87 -248.31,-116.92l-0.51 16.9c110.54,3.46 49.37,99.52 102.02,192.6 23.43,41.42 116.98,104.23 160.12,133.06 115.68,77.31 214.44,142.68 265.07,311.28 -3.2,41.01 -156.84,158.18 -182.2,173.58 -167.33,101.64 -571.77,-37.32 -592.02,-400.46z"/>
   </g>
   <g>
    <path class="fil54" d="M5714.32 15555.5l-13.5 5.04c0,101.34 -37.74,199.83 -38.26,303.49 -0.41,81.51 42.19,209.53 62.92,287.76 43.29,163.33 56.36,426.74 110.09,515.03l30.87 38.15c38.34,-40.35 3.94,26.39 18.94,-36.87l-1.74 -181.55c89.59,48.9 217.78,376.38 605.83,556.98 558.54,259.96 496.46,307.25 743.83,433.81 141.77,72.53 728.24,186.19 926.54,231.93 318.71,73.5 577.92,210.37 833.93,48.15 9.59,-6.08 38.26,-26.89 42.89,-31.46 37.94,-37.41 11.07,-0.85 36.02,-47.59 -310.15,84.67 -319.88,36.63 -522.04,-120 -115.39,-89.41 -305.2,-169.67 -455.23,-243.99 -354.15,-175.44 -137.57,-183.82 -408.7,-290.76 -100.09,-39.48 -170.99,-116.42 -214.84,-132.94 -58.86,-22.17 -185.86,38.03 -280.48,35.94 -95.67,-97.77 -68.33,-87.65 -223.34,-141.94 -245.24,-85.88 -549.15,-195.84 -715.4,-369.06 -318.98,-332.35 -265.82,-455.98 -369.78,-715.45 -38.17,-95.28 -91.94,-143.04 -128.01,-225.02l-40.54 80.35z"/>
    <path class="fil54" d="M12050.44 8024l109.51 -0.02 5.14 64.56c-2.68,12.68 -21.15,50.81 -28.4,63.89 -111.87,202 -122.22,58.01 -221.78,330.91 -42.73,117.14 -42.6,167.98 -154.03,213.71 -133.02,54.58 -109.12,86.34 -208.19,143.17 -149.62,-88.54 18.11,-79.5 -309.35,-210.92 53.71,203.16 181.2,328.49 -85.39,422.56 -213.56,75.37 -350.52,18.36 -566.46,9.28 14.33,84.37 32.48,92.74 56.62,150.88 130.24,6.35 236.95,44.21 371.61,40.42 146.73,-4.14 221.36,-88.46 341.17,-58.73 7.57,65.48 3.83,109.42 23.51,151.61 135.1,44.34 189.92,135.89 304.1,33.44 161.89,-145.24 71.28,-229.49 140.69,-299.94 36.33,-36.87 89.51,-34.94 112.72,-86.89 44.68,-100.06 -27.22,-64.74 76.23,-148.36 129.03,-104.3 31.42,-212.27 197.02,-241.24 93.67,77.89 27.52,153.24 147.22,192.34 2.67,-101.65 42.02,-68.37 0.09,-176.85 7.79,-224.46 -13.2,-297.77 40.43,-529.67 35.85,-155.01 52.46,-342.01 93.25,-496.21 -56.27,61.58 -61.84,45.9 -123.06,98.48 -34.44,29.58 -75.3,77.45 -107.18,113.68 -59.95,68.12 -135,119.38 -215.47,219.9z"/>
    <path class="fil54" d="M14559.56 6252.73l15.72 263.7c78.93,12.61 206.49,24.06 265.83,-14.32 25.84,-23.22 31.17,-113.72 34.35,-149.7 5.83,-65.93 14.24,-129.99 12.05,-196.4 -126.94,8 -238.46,46.9 -327.95,96.72z"/>
   </g>
   <g>
    <path class="fil55" d="M5714.32 15555.5l40.54 -80.35c36.07,81.98 89.84,129.74 128.01,225.02 103.96,259.47 50.8,383.1 369.78,715.45 166.25,173.22 470.16,283.18 715.4,369.06 155.01,54.29 127.67,44.17 223.34,141.94 94.62,2.09 221.62,-58.11 280.48,-35.94 43.85,16.52 114.75,93.46 214.84,132.94 271.13,106.94 54.55,115.32 408.7,290.76 150.03,74.32 339.84,154.58 455.23,243.99 202.16,156.63 211.89,204.67 522.04,120 38.36,-34.35 77.66,-43.26 113.71,-101.58l-320.53 47.97c-53.58,-542.46 503.89,-554 449.26,-940.24 -218.64,-6.08 -919.16,188.73 -970.12,90.57l-13.96 -26.64c-2.49,-5.2 -8.96,-21.83 -11.46,-27.11 -37.86,-79.97 -52.6,-77.84 -170.11,-78.91 -112.83,-1.02 -227.34,-6.5 -339.44,6.27 -279.53,31.86 -250.91,149.59 -572.57,34.5 -310.81,-111.2 -688.82,-246.93 -860.87,-533.5 -37.66,-15.26 -161.3,-182 -188.08,-221.62 -132.03,-195.37 -130.04,-792.97 -266.87,-964.01l-47.63 61.41c-11.16,20.95 -19.25,43.38 -27.68,64.11 -81.28,199.8 -93.88,250.65 -132.01,465.91z"/>
    <path class="fil55" d="M10738.7 17294.49l225.12 71.02 239.05 15.97c49.78,-57.44 67.03,-132.4 118.48,-185.64 46.92,-48.55 129.62,-63.91 201.58,-110.78 236.7,-154.17 217.61,-290.95 287.39,-321.65 324.06,-26.11 622.23,91.56 845.42,223.24 494.18,291.55 428.36,158.4 800.79,82.45 406.98,-83.01 258.15,105.23 804.3,-264.29 124.21,-84.04 214.68,-120.22 266.67,-267.76 43.45,-123.29 128.99,-263.94 245.55,-288.05l18.41 -30.69c-55.99,-39.1 -24.39,-38.01 -51.98,-109.36 -113.93,5.99 -170.29,176.79 -297.46,288.5 -67.86,59.62 -48.21,4.06 -91.14,110.69 -41.26,102.48 -93.17,131.24 -208.73,178.4 -155.49,63.45 -141.46,94.22 -234,167.6 -184.41,-77.3 -198.52,15.43 -368.04,25.77 -83.57,-55.59 -63.87,-90.36 -208.65,-126.72 -129.73,-32.57 -148.7,-33.76 -243.53,-106.29 -166.04,-127 -372,-31.55 -577.79,-7.9 -384.68,44.22 -458.69,-103.3 -806.83,-226.13 -112.75,-39.77 -179.97,-29.43 -288.92,-60.34 -12.56,-158.98 -15.14,-286.98 -182.2,-333.32 -258.25,-71.63 -243.41,30.41 -368.52,95.24 10.62,115.37 28.68,117.11 62.66,212.7 71.53,201.18 -169.14,56.47 43.94,321.07 70.34,87.33 35.21,103.25 85.56,173.34 95.78,-4.24 126.43,-49.3 229.88,-69.08 -29.17,207.31 -86.3,115.1 -140.7,247.92 -34.77,84.9 -19.36,250.27 -89.18,307.12l-317.13 -13.03z"/>
    <path class="fil55" d="M5418.66 9164.16c146.78,-143.95 182.21,-162.94 166.08,-434.26l-209.5 9.84c-112.09,-192.2 -75.09,-279.71 -34.34,-499.02 40.71,-219.12 147.12,-267.64 219.38,-434.36 -245.4,56.01 -195.18,117.65 -340,239.12 -168.72,141.51 -70.9,73.56 -139,155.62 -59.88,72.17 -87.14,25.69 -121.44,154.33 -43.01,161.33 47.59,315.59 100.36,442.83 84.63,204.09 190.4,135.73 401.72,149.6l-43.26 216.3z"/>
   </g>
   <g>
    <path class="fil56" d="M14559.56 6252.73c89.49,-49.82 201.01,-88.72 327.95,-96.72 2.19,66.41 -6.22,130.47 -12.05,196.4 -3.18,35.98 -8.51,126.48 -34.35,149.7 -59.34,38.38 -186.9,26.93 -265.83,14.32l-15.72 -263.7zm-97.59 -520.47l-0.73 -131.95c-155.07,-0.05 -217.66,-50.54 -305.88,-49.48 1.6,111 26.53,157.56 -1.18,278.39 -70.97,30.41 -428,5.25 -514.61,-13.82l-54.8 -114.47c-1.08,-6.6 -4.86,-8.04 -7.85,-11.64 -152.05,4.98 -521.13,57.57 -587.4,152.84 -43.91,63.12 -22.54,212.35 -65.65,302.92 -87.12,183.04 -47.92,81.19 -50.81,284.26 -84.16,60.98 -63.96,-27.78 -247.78,226.13 -107.54,148.55 -140.26,258.95 -178.03,288.06 -38.89,130.88 -105.74,116.24 -210.59,187.5 -95.33,64.79 -96.27,121.01 -154.54,224.99l-4.58 189.48c148.94,-3.43 162.6,-4.92 303.24,8.44l177.69 -211.47c57.84,-86.5 164.44,-445.06 196.04,-559.79 36.6,-132.89 25.54,-193.42 130.9,-246.27 -0.03,-123.52 33.51,-13.33 46.28,-180.42 17.75,-232.34 156.21,-123.89 502.73,-234.94 329.25,-105.51 535.58,-27.84 872.19,-53.14 9.47,227.9 -79.01,302.26 -231.37,374.31 -91.02,191.97 -120.98,148 22.83,349.36 97.24,136.14 152.92,123.18 236.39,298.98 264.19,21.43 202.2,-110.86 404.19,92.81 -6.96,210.21 -59.78,198.63 33.37,405.4 61.27,136 55.06,268.17 55.06,427.83 174.42,8.6 296.92,-51.07 386.57,68.97 3.33,-3.34 7.48,-14.08 8.75,-11.11 20.86,48.4 -12.1,-65.25 119.55,-114.15l-106.62 722.39c149.81,-71.34 249.8,-488.99 258.63,-588.13 9.04,-101.61 -32.96,-179.38 33.58,-267.43 0,-211.68 28.76,-37.78 3.09,-369.94 -10.73,-138.82 -0.46,-100.65 -39.8,-126.71 -1.02,37.91 14.62,-59.66 -37.92,32.1 -19.43,33.92 -25.52,64.22 -42.87,106.03 -45.32,-43.15 -51.7,-57.85 -121.73,-63.72 -32.14,35.57 -17.9,19.11 -44.47,64.02 -30.53,51.59 -12.16,32.51 -47.54,71.51 -149.55,-28.76 -185.65,-104.24 -235.22,-232.88 -106.69,-276.84 -40.64,-113.76 -160.49,-280.21 -157.34,-218.5 109.6,-411.66 414.11,-433.03 -20.65,-42.28 -37.03,-100.93 -55.22,-146.55 -106.89,-268.06 -95.79,-554.53 -177.49,-834.12 -14.56,-49.82 -28.15,-126.4 -41.06,-161.26 -29.05,-78.46 -42.63,-52.92 -149.47,-52.92 0,-110.99 -7.35,-87.16 -36.72,-110.34 23.42,274.03 98.52,443.42 134.67,689.43 -82.14,0.42 -170.09,-8.25 -250.42,6.59 -71.35,13.18 -112.29,42.45 -179.44,61.06l2.42 -313.91z"/>
    <path class="fil56" d="M11384.4 9345.32c13.09,107.2 49.49,183.29 67.04,297.72 19.81,129.12 14.72,192.06 119.65,249.36 120.07,-48.18 7.48,-87.53 202.29,-95.83 118.86,-5.06 167.9,-17.76 216.03,-93.69 -35.06,-102.18 -94.15,-100.57 -99.83,-183.27 -5.37,-77.99 30.71,-187.16 62.53,-239.19l119.83 11.89c67.93,158.7 -62.72,3217.16 -62.72,3669.87l98.77 -3.6 32.64 -77.84 313.76 11.67c-9.54,-49.36 -17.08,-59.15 -18.4,-118.27 -105.48,0 -131.61,29.36 -220.83,36.78l41.96 -730.49c9.6,-73.58 6.86,-151.15 14.24,-243.23 8.36,-104.39 46.64,-370.3 29.02,-471.88 -21.54,-124.2 -59.07,-341.58 -15.98,-467.04 -46.12,-254.96 8.36,-664.14 20.01,-937.34 6.69,-156.72 6.41,-325.72 23.44,-476.89 16.71,-148.41 65.53,-263.76 84.66,-388.07 3.35,-101.96 -43.09,-203.03 -50.13,-301.31 -119.7,-39.1 -53.55,-114.45 -147.22,-192.34 -165.6,28.97 -67.99,136.94 -197.02,241.24 -103.45,83.62 -31.55,48.3 -76.23,148.36 -23.21,51.95 -76.39,50.02 -112.72,86.89 -69.41,70.45 21.2,154.7 -140.69,299.94 -114.18,102.45 -169,10.9 -304.1,-33.44z"/>
   </g>
   <g>
    <path class="fil57" d="M5774.33 14907.47c-52.7,41.61 -21.19,30.98 -60.4,142.2 -19.37,54.95 -40.98,96.21 -48.21,154 -21.08,168.33 35.1,200.65 35.1,356.87l13.5 -5.04c38.13,-215.26 50.73,-266.11 132.01,-465.91 8.43,-20.73 16.52,-43.16 27.68,-64.11l47.63 -61.41c136.83,171.04 134.84,768.64 266.87,964.01 26.78,39.62 150.42,206.36 188.08,221.62 424.78,29.96 573.26,392.75 1164.34,389.53 491.26,-2.67 733.55,-383.29 1223.08,-260.35 369.41,92.78 282.14,20.57 583.06,-98.85 200.68,-79.64 292,-215.55 403.8,-370.16 126.11,-174.4 146.02,-372.96 104.26,-622.78 -22.35,-133.77 -90.42,-517.4 -196.69,-578.38 20.03,195.91 -107.18,632.64 -153.22,833.85l-343.71 16.58c-14.1,-34.92 -31.34,-75.93 -48.69,-118.25 -33.55,-81.83 -2.53,-53.44 -62.82,-82.61l-10.76 98.04c53.41,446.01 27.93,314.08 -201.47,387.49 -87.8,28.1 -79.02,59.35 -119.01,140.44 -11.99,1.38 -486.18,-37.83 -487.93,-38.69 -280.16,-13.85 -598.59,-66.49 -883.11,-100.04 -390.62,-46.06 -264.6,-11.28 -366.97,-131.17 -46.29,-54.2 -225.73,-122.5 -307.74,-169.87 -826.51,-477.45 -225.37,-1024.67 -182.43,-1274.32 -119.53,19.36 -113.05,-3.06 -161.65,95.71l-222.49 531.11c-24.41,-63.67 -32.32,-103.95 -74.38,-143.75 -16.11,25.16 -75.9,202.01 -88.86,237.74 -222.81,23.32 -147.17,-15.87 -169.38,52.7l0.51 -36.2z"/>
    <path class="fil57" d="M5560.28 7806.36c-72.26,166.72 -178.67,215.24 -219.38,434.36 -40.75,219.31 -77.75,306.82 34.34,499.02l209.5 -9.84c16.13,271.32 -19.3,290.31 -166.08,434.26 -2.43,108.31 6.73,118.11 -64.53,174.5 -54.73,43.32 -95.86,59.31 -76.65,143.52l39.23 53.34c200.95,1.84 457.52,-116.64 590.22,-196.77 140.82,-85.04 371.43,-214.73 456.36,-347.84 -153.7,-65.97 -411.82,219.31 -396.44,-165.58 225.96,-27.28 319.33,-100.78 441.84,-217.17 168.11,-159.71 274.41,-214.36 293.75,-377.44 -47.05,2.95 -92.45,3.45 -137.7,-0.86l-105.71 -34.94c-36.97,220.05 -200.63,103.43 -393.32,164.5l-33.26 158.5 -217.84 -15.82c-27.79,-147.41 -127.65,-531.64 -57.09,-653.79l167.84 59.83 -13.25 -52.59c-109.22,-15.25 -243.79,-135.75 -351.83,-49.19z"/>
    <path class="fil57" d="M4321.32 5521.39l2.75 1.58 70.18 -224.08c-150.5,115.35 -228.81,-40.37 -410.42,-78.85 -75.47,-16 -159.88,-16.07 -219.51,-55.02 -91.94,-60.05 -33.2,-80.77 -198.05,-89.74 52.47,50.07 63.28,101.98 106.88,162.35l389.88 376.32c39.28,-40.32 34.55,-56.53 47.3,-112.08 102.28,21.47 91.68,38.32 210.99,19.52z"/>
   </g>
   <g>
    <path class="fil58" d="M12107.99 12958.58c-77.69,214.67 -150.16,401.85 -337.9,467.41 -48.16,66.4 -28.34,68.22 -104.61,114.64 -30.31,162.42 -113.46,135.7 -164.82,244.29l-58.29 29.95c163.58,9.87 250.03,41.51 441.55,31.39 133.75,-7.07 291.64,-21.66 423.25,-7.62 132.7,14.16 224.68,59.47 341.21,102.33 250.55,92.18 58.29,67.03 315.9,106.25 21.74,191.62 187.18,780.27 -71.35,820.44 -128.17,19.92 -304.79,-55.45 -411.46,-96.95 -194.49,-75.66 -217.28,-32.73 -238.17,-259.18 -202.83,-72.26 -258.13,-39.96 -470.58,-56.89 -133.38,-10.63 -288.46,-65.85 -432.53,-93.45l3.7 -244.43c-3.22,4.32 -7.68,5.6 -9.12,13.34 -12.86,69.09 -7.43,9.29 -16.85,26.18 -54.76,98.33 -69.58,232.13 6.42,317.44 129.93,145.84 125.33,26.65 163.44,296.31 65.77,43.24 125.09,92.59 212.12,104.75 31.89,-41.74 26.08,-48.03 53.78,-98.05 30.45,-54.99 27.76,-40.18 73.66,-87.05 289.45,53.49 297.99,432.46 498.85,480.04 89.95,21.31 334.48,-6.09 463.11,11.09 144.61,19.32 293.2,83.46 437.98,60.28 56.93,-84.55 64.95,-139.55 136.99,-215.15 257.61,-270.34 193.68,-434.81 136.67,-888.51l-133.27 21.96 1.68 -241.15c141.21,-9.09 515.74,34.26 585.35,114.84 52.69,60.99 135.06,288.79 395.2,288.79l0 -39.69c18.09,-53.93 20.12,-38.86 -40.44,-143.41 -69.53,-120.05 -170.33,-259 -282.71,-342.92l-347.99 -259.13c-310.84,-261.04 -167.32,-170.01 -641.64,-407.03 -101.42,-50.68 -167.64,-83.32 -275.18,-129.58 -79.19,-34.07 -219.19,-116.36 -307.55,-107.7l-313.76 -11.67 -32.64 77.84z"/>
    <path class="fil58" d="M12449.09 5031.19c82.15,249.25 280.12,160.87 759.78,146.17 808.52,-24.79 516.79,80.17 699.28,242.26 128.49,-53.52 43.29,-77.81 173.33,-123.64 209.49,-73.83 276.7,30.98 283.88,-452.89 1.15,-77.68 -14.21,-80.81 -15.46,-160.9l22.07 -53.99c-40.12,-27.81 -116.33,-125.34 -145.03,-172.65 -55.68,-91.77 -86.21,-106.71 -189.88,-141.18 31.76,112.68 23.1,154.88 -52.65,180.27l24.94 134.9c-123.76,-18.3 -68.48,-51.49 -193.2,-199.18 -62.32,6.87 -342.97,91.65 -372.46,137.07 -50.47,77.73 -35.51,273.36 -132.25,364.17 -60.94,57.21 -290.73,70.78 -405.08,93.21 -175.38,34.41 -280.61,43.64 -457.27,6.38z"/>
   </g>
   <g>
    <path class="fil59" d="M3481.78 6484.49c56.21,109.37 84.43,360.7 110.93,506.81 81.76,450.88 44.96,505.3 187.91,1044.39 44.67,168.49 95.35,323 120.08,505.28 21.71,159.99 31.16,386.42 122.33,484.65l147.32 165.4c41.8,53.12 104.26,107.06 154.9,157.84 61.49,61.65 96.92,93.53 164.64,148.11 184.39,148.65 341.4,40.12 511.16,39.9 284.8,-0.37 124.07,-27.39 276.43,-54.69 -19.21,-84.21 21.92,-100.2 76.65,-143.52 71.26,-56.39 62.1,-66.19 64.53,-174.5l43.26 -216.3c-211.32,-13.87 -317.09,54.49 -401.72,-149.6 -52.77,-127.24 -143.37,-281.5 -100.36,-442.83 34.3,-128.64 61.56,-82.16 121.44,-154.33 68.1,-82.06 -29.72,-14.11 139,-155.62 144.82,-121.47 94.6,-183.11 340,-239.12 108.04,-86.56 242.61,33.94 351.83,49.19l13.25 52.59c48.56,29.15 62.87,23.13 108.85,63.64 50.72,44.69 39.99,52.53 109.1,93.62 68.37,40.65 194.59,87.55 291.93,80.88 200.78,57.64 208.86,116.89 419.1,-12.79 117.97,-72.77 196.8,-182.4 345.16,-227.11l0.3 86.15c12.69,-36.82 4.57,-40.02 23.9,-77.44 17.78,-34.43 20.68,7.46 41.29,-69.69l-18.39 -0.09 -28.01 -47.92c-19.19,-64.19 29.09,-119.82 64.72,-173.43 -154.82,86.55 -354.98,350.3 -809.56,348.16 -199.43,-0.94 -298.25,-51 -322.4,-53.93l-114.46 -670.05 24.39 -162.54c-120.43,31.03 -232.62,168.06 -329.25,239.33 -70.94,52.31 -285.07,183.71 -314.01,223.18 -53.2,329.55 -82.21,183.93 -217.51,330.73 -67.69,73.44 -19.87,105.71 -143.13,133.11 -74.49,16.56 -162.55,25.47 -244.26,18.93l-67.39 -203.94c-99.49,-5.37 -198.01,-7.92 -281.86,-32.71 -95.8,-365.85 -109.08,-74.47 -96.24,-501.52l11.12 -49.5c-5.19,4.25 -9.64,5.97 -11.47,16.55 -1.79,10.35 -8.2,11.42 -10.37,16.74l-8.82 293.04c20.21,147.1 14.54,495.27 13.87,662.12 -0.51,124.84 17.08,210.53 -78.11,260.64 -18.42,-16.44 -5.9,-0.04 -26.35,-31.39l-69.29 -134.38c-118.67,-203.23 -187.92,-254.77 -300.29,-527.66 -134.2,-325.95 -98.7,-613.42 -86.85,-982.65 21.77,-678.26 -228.66,-753.49 -306.53,-1346.77 -54.06,-411.86 -44.7,-155.85 -167.5,-402 -60.16,-89.32 -47.37,-74.17 -174.47,-94.87 85.22,176.2 121.32,126.46 142.39,370.68 66.33,768.66 392.27,555.73 103.7,1104.45l51.24 26.2c84.13,36.27 -6.12,-9.55 31.88,10.58z"/>
    <path class="fil59" d="M9617.78 5882.75c104.37,2.33 220.49,11.99 289.43,-49.76 35.67,-31.95 135.05,-134.72 158.44,-194.48 -110.99,-195.49 -172.65,-129.41 -112.29,-457.91 37.67,-204.95 9.45,-399.89 15.69,-609.61 5.63,-189.12 28.87,-369.52 111.18,-514.04 91.31,-160.32 209.39,-219.61 229.07,-306.48 24.67,-108.88 18.06,-32.46 -7.91,-65.76 -28.76,60.22 31.62,9.71 -64.29,50.27 -150.9,63.81 -66.04,13.75 -174.61,138.75 -64.78,74.57 -94.56,68.58 -198.71,205.58 -133.98,176.24 -268.17,198.18 -315.9,512.14 -72.49,476.82 208.69,908.35 216.6,1031.04 8.02,124.4 -102.9,175.27 -146.7,260.26z"/>
   </g>
   <g>
    <path class="fil60" d="M8974 5797.91l94.49 51.35c209.13,8.32 348.09,-14.99 549.29,33.49 43.8,-84.99 154.72,-135.86 146.7,-260.26 -7.91,-122.69 -289.09,-554.22 -216.6,-1031.04 47.73,-313.96 181.92,-335.9 315.9,-512.14 104.15,-137 133.93,-131.01 198.71,-205.58 108.57,-125 23.71,-74.94 174.61,-138.75 95.91,-40.56 35.53,9.95 64.29,-50.27l-13.54 -40.96c192.05,-70.95 104.07,-70.67 195.74,-187.15 53.1,-67.96 110.82,-100.16 145.13,-173.57 -103,-8.42 -14.34,-2.54 -157.82,97.38 -244.46,170.23 -918.18,610.61 -1146.93,639.66 -386.52,49.09 -553.19,99.07 -872.05,-82.5 -225.07,-128.16 -503.58,-393.96 -606.41,-385.11 -23.1,223.17 62.27,209.88 116.19,323.32 38.24,80.45 40.12,289.96 52.09,387.51 31.95,260.31 125.43,477.81 143.09,749.61 19.78,304.38 -62.07,293.43 -75.11,392.8 -7.75,59.11 27.79,85.99 58.38,149.44 164.76,341.82 694.76,-76.76 833.85,242.77z"/>
    <path class="fil60" d="M10735.06 8486.75c184.27,78.3 276.81,140.65 508.28,142.55 327.46,131.42 159.73,122.38 309.35,210.92 99.07,-56.83 75.17,-88.59 208.19,-143.17 111.43,-45.73 111.3,-96.57 154.03,-213.71 99.56,-272.9 109.91,-128.91 221.78,-330.91 7.25,-13.08 25.72,-51.21 28.4,-63.89l-5.14 -64.56 -109.51 0.02 -55.96 3.61c-85.3,248.58 -448.84,322.05 -756.68,346.93 -254.91,20.61 -302.45,37.11 -415.4,-130.35 -55.91,-82.89 -205.95,-190.28 -326.79,-224.19l-120.66 229.68c-174.25,13.61 -302.96,-5.56 -432.4,80.87 122.43,68 527.11,51.85 713.86,113.41l78.65 42.79z"/>
   </g>
   <g>
    <path class="fil61" d="M7087.39 7090.89l90.88 247.86c126.99,60.77 87.06,174.27 105.04,285.21 -35.63,53.61 -83.91,109.24 -64.72,173.43l28.01 47.92c21.88,-83.57 -4.67,-55.08 128.81,-55.08 10.21,-43.82 19.4,-92.48 36.8,-128.73 163.61,0 153.33,-23.57 229.27,83.51 100.98,142.41 184.1,198.92 366.31,259.21 324.81,107.46 263.94,155.76 250.34,649.8 -5.88,213.48 -17.82,380.89 -17.82,607.48l5.66 933.53c13.82,101.82 -6.64,146.84 -5.91,280.01 0.56,101.33 8.45,208.38 -4.73,307.92 -9.04,68.35 -30.37,200.23 -32.31,280.35 -5.21,215.6 -17.92,407.94 -17.92,644.07l54.78 -3.07 47.74 114.98c28.2,-277.95 4.16,-582.2 62.97,-850.85 27.65,-126.33 68.98,-228.39 101.53,-355.5 29.2,-114.06 18.21,-303.63 58.95,-389.86 88.91,165.6 11.49,451.84 -3.86,643.49 150.83,-65.08 115.7,-238.75 117.54,-417.11l488.17 -341.99 22.91 -370.01c248.92,-17.23 411.16,64.38 627.29,71.2 5.7,-450.78 -28.94,-376.44 129.08,-421.4 73.87,-21.01 94.94,-34.55 176.79,-45.97l168.66 -29.24 53.85 -31.84 25.92 -73.89c-25,-22.75 4.88,-4.76 -37.92,-20.56l-120.21 -21.35c-316.13,-58.38 -717.6,-363.52 -97.17,-543.87 -2.96,-95.19 -42.08,-86.49 -220.94,-109.85 -98.37,-12.85 -192.21,-30.33 -279.55,-54.79 -89.75,-25.14 -157.03,-58.7 -243.23,-87.53 -149.65,-50.07 -138.09,-3.19 -188.96,-134.43 -172.56,-10.36 -220,1.45 -346.39,-84.87 -396.18,-270.58 -891.04,-568.07 -1250.82,-865.1 -426.53,-352.14 -169.52,-284.32 -470.79,-319.07l25.95 125.99z"/>
    <path class="fil61" d="M5866.44 16704.97c19.4,46.46 23.63,89.05 44.28,144.55l144.9 259.68c153.08,128.72 123.95,174.81 237.44,351.22 270.63,420.64 641.43,379.89 1148.16,452.54l728.16 63.09c9.43,1.05 19.25,1.93 29.41,2.68l372.75 0c349.66,0.02 437.82,-8.64 658.95,-150.65 164.35,-105.54 332.32,-250.58 487.92,-303.19 142.01,-48.01 228.94,-18 363.07,-6.89 150.29,12.44 267.91,-17.43 384.26,-17.43 59.23,-122.14 615.75,111.23 669.69,-18.03 33.23,-79.64 -98.96,-39.65 -171.61,-117.03l-225.12 -71.02c-291.96,57.98 -562.58,-63.01 -867.01,15.44 -247.74,63.85 -425.12,206.41 -685.3,266.86 -36.05,58.32 -75.35,67.23 -113.71,101.58 -24.95,46.74 1.92,10.18 -36.02,47.59 -4.63,4.57 -33.3,25.38 -42.89,31.46 -256.01,162.22 -515.22,25.35 -833.93,-48.15 -198.3,-45.74 -784.77,-159.4 -926.54,-231.93 -247.37,-126.56 -185.29,-173.85 -743.83,-433.81 -388.05,-180.6 -516.24,-508.08 -605.83,-556.98l1.74 181.55c-15,63.26 19.4,-3.48 -18.94,36.87z"/>
   </g>
   <g>
    <path class="fil62" d="M8124.15 14429.31c59.71,-99.01 116.74,-84.16 190.63,-219.92 52.52,-96.5 88.55,-171.44 173.66,-213.18 135.3,-66.35 500.07,-101.09 672.53,-100.59 47,144.17 166.84,274.08 141.15,454.36 -11.32,79.43 -54.78,159.06 -91.11,221.12 -55.18,94.27 -63.24,93.27 -197.82,93.27 -351.44,0 -306.09,-40.39 -526.71,121.87 0.57,41.13 13.44,78.16 0.93,128.34 -149.52,-37.69 -295.02,-344.51 -363.26,-485.27zm-1633.57 -259.15c-42.94,249.65 -644.08,796.87 182.43,1274.32 82.01,47.37 261.45,115.67 307.74,169.87 102.37,119.89 -23.65,85.11 366.97,131.17 284.52,33.55 602.95,86.19 883.11,100.04 328.64,41.77 379.11,-297.59 436.83,-382.4 139.04,-204.26 265.94,-107.71 310.35,-504.57l154.43 -5.51c89,-229.44 -66.92,-140.94 224.15,-181.42 124.28,-489.46 115.9,-346.31 -61.49,-781.73 -45.17,-121 5,-109.76 -149.05,-118.31 -15.72,-140.69 -42.27,-72.74 -232.1,-207.45 -260.25,-184.69 -175.87,-185.73 -474.17,-372.19 -100.56,-62.87 -24.77,-69.91 -82.96,-137.68 -32.97,-38.4 -67.14,-22.41 -127.8,-73.7 -137.24,13.7 -144.97,59.12 -320.33,62.97 -151.09,3.3 -147.13,33.05 -248.35,98.75 -127.04,82.47 -316.87,162 -452.68,246.79 -170.31,106.32 -192.02,226.73 -358.45,340.96 -229.95,157.83 -179.78,111.23 -358.63,340.09z"/>
    <path class="fil62" d="M10301.06 7253.93c17.56,-16.06 28.69,-22.18 44.38,-33.21l-8.95 -187.26 -59.05 -460.64c-52.09,-186.23 10.36,-185.67 -1.83,-282.36 -135.18,-78.35 -93.09,14.58 -185.57,-127.65 -59,-90.75 -107.29,-49.93 -207.41,-106.33 -133.62,-75.26 -371.74,-83.97 -539.65,-78.46 -146.19,7.69 -215.17,14.69 -224.09,181.36 144.4,60.4 170.92,101.51 381.71,134.24 151.88,23.59 311.92,24.94 465.28,53.06l-50.03 268.5c280.91,41.08 276.82,-24.29 197.26,359.6 -24.12,116.36 28.85,197.73 51.51,293.68l136.44 -14.53z"/>
    <path class="fil62" d="M6147.05 7030.02c20.25,363.14 424.69,502.1 592.02,400.46 25.36,-15.4 179,-132.57 182.2,-173.58 -50.63,-168.6 -149.39,-233.97 -265.07,-311.28 -43.14,-28.83 -136.69,-91.64 -160.12,-133.06 -52.65,-93.08 8.52,-189.14 -102.02,-192.6 -1.14,0.92 -6.68,4.45 -21.82,22.93 -37.72,46.03 -215.97,266.21 -225.19,387.13z"/>
    <path class="fil62" d="M6459.03 8194.92l-23.79 -48.64c-97.34,6.67 -223.56,-40.23 -291.93,-80.88 -69.11,-41.09 -58.38,-48.93 -109.1,-93.62 -45.98,-40.51 -60.29,-34.49 -108.85,-63.64l-167.84 -59.83c-70.56,122.15 29.3,506.38 57.09,653.79l217.84 15.82 33.26 -158.5c192.69,-61.07 356.35,55.55 393.32,-164.5z"/>
   </g>
   <g>
    <path class="fil63" d="M15166.34 11298.93c112.36,-108.05 202.64,-227.36 412.88,-270.49 33.31,-41.7 99.68,-33.17 154.56,-5.77 74.24,37.07 125.8,145.25 138.02,227.76 36.23,244.57 118.65,2.39 104.44,273.12 -3.14,59.83 -11.09,110.68 -25.49,165.01 -166.18,626.69 -905.1,297.06 -959.61,185.9 -18.12,-36.96 -72.37,-263.61 -74.46,-314.11 46.12,-37.14 107.32,-71.12 130.72,-111.83 54.99,-95.69 -3.15,-99.01 118.94,-149.59zm-548.29 -209.67c-30.43,-143.46 163.21,-249.89 213.69,-338.11 14.18,-97.49 -205.82,-155.64 74.49,-363.43 109.91,-81.48 219.27,-161.68 362.22,-226.33 251.28,-113.63 783.55,-218.16 848.58,111.9 -164.02,91.19 -292.02,18.63 -480.7,90.34 -142.02,53.97 -229.18,130.95 -395.74,193.41 -155.11,58.16 14.67,51.4 -151.75,142.29 -393.34,214.81 -308.25,413.54 -470.79,389.93zm-2205.54 -1993.28c-19.13,124.31 -67.95,239.66 -84.66,388.07 -17.03,151.17 -16.75,320.17 -23.44,476.89 -11.65,273.2 -66.13,682.38 -20.01,937.34 120.45,-50.83 190.86,2.09 251.9,102.05 28.06,45.95 49.28,89.41 84.95,117.39 78.97,61.93 428.48,90.1 514.78,94.15 148.83,6.98 204.42,-64.03 330.47,-74.51 33.91,145.46 64.19,149.73 128.82,183.9 0,241.04 -213.78,299.61 76.17,861.81 59.27,114.92 62.47,91.79 120.65,136.9 76.83,59.58 13.68,70.08 123.5,152.43 223.53,167.6 110.97,190.05 342.16,136.22 230.78,344.43 580.32,68.89 821.48,11.79 138.23,-32.73 105.44,22.33 169.39,-107.79 42.84,-87.18 2.14,-32.14 48.68,-39.23 65.51,-9.98 220.34,-35.15 280.8,-71.66l20.82 -15.98c39.51,-33.04 14.26,-32.18 81.15,-66.02 50.8,-25.71 100.71,-32.04 141.71,-60.68 39.27,-27.43 46.83,-54.41 87,-96.96 130.64,-138.38 100.22,-12.73 170.24,-216.07 26.43,-76.75 24.13,-73.01 90.82,-111.53 160.04,-92.44 236.46,-261.64 309.47,-444.74 258.8,-648.99 175.83,-513.13 170.61,-932.76 -1.63,-131.29 -14.67,-232.78 -78.16,-308.08 -22.45,-26.62 -79.01,-70.4 -92.51,-91.46 -56.68,-88.45 -58.12,-191.05 -320.45,-281.01 -42.76,35.45 -199.7,0.83 -272.15,6.35 -672.99,51.29 -1339.55,735.38 -1538.15,830.53 -57.22,117.76 -187.79,274.97 -254.5,378.82 -191.95,2.21 -243.63,56.71 -190.4,-167.43 -75.65,-53.4 -64.84,23.38 -125.55,-54.77 -31.03,-39.96 -24.05,-100.21 -47.57,-160.5 -26.4,-66.26 -234.12,-149.61 -153.36,-353.59 84.03,-212.24 229.28,-95.1 410.54,-102.02l196.51 -2.29c29.09,41.93 22.24,67.52 63.44,75.1 -32.51,-129.76 -127.4,-148.31 -174.75,-246.75 -60.73,-126.31 10.6,-250.07 38.31,-368.1 355.95,-39.46 355.68,-410.52 293.86,-683 -32.58,-143.63 -323.77,-609.15 -351.36,-677.14l-182.37 -26.04c-198.03,-57.87 -206.42,-20.35 -330.84,24.78 -340.07,123.36 -202.34,-59.72 -615.21,267.94 -116.33,92.32 -165.49,90.46 -286.89,154.66 25.84,48.8 47.77,79.94 73.61,128.74 -145.49,167.27 -103.26,205.08 -299.51,294.25z"/>
    <path class="fil63" d="M5106.86 5329.26c6.06,-117.72 31.38,-201.58 44.87,-313.77 19.28,-160.45 34.97,-145.36 107.46,-241.39 98.58,-130.59 184.53,-306.71 375.9,-338.98l-10.84 242.88c130.1,-45.39 168.05,-193.32 257.59,-32.59 -20.68,65.29 -265.25,311.72 -333.23,399.15 -97.65,125.62 -209.06,259.63 -441.75,284.7zm-782.79 193.71l-2.75 -1.58c-64.55,294.22 -151.81,558.7 -150.75,889.53 0.51,160.99 19.82,313.56 51.34,467.08 37.78,183.98 142.24,286.38 156.84,365.21l-11.12 49.5c149.8,61.46 289.65,206.49 432.75,257.28 192.07,68.18 417.64,12.49 617.64,-1.88 28.94,-39.47 243.07,-170.87 314.01,-223.18 96.63,-71.27 208.82,-208.3 329.25,-239.33 19.61,-32.1 41.69,-34.92 85.77,-55.58 9.22,-120.92 187.47,-341.1 225.19,-387.13 15.14,-18.48 20.68,-22.01 21.82,-22.93l0.51 -16.9 43.25 -157.4c1.82,-104.17 -1.05,-33.25 -19.32,-56.79 -257.15,154.3 -185.75,12.37 -363.29,-75.07 -69.02,-34.01 -85.59,-11.45 -131.93,-73.32l-196.8 -40c-23.3,-59.97 -65.75,-186.23 -64.39,-249.83 1.59,-73.79 57.22,-191.76 103.97,-231.25 -15.99,-210.23 198.52,-394.86 462.94,-240.97 113.29,65.93 -32.74,23.09 181.35,101.7 140.83,59.73 106.37,202.41 271.5,239.83 -4.52,-29.31 -11.48,-59.72 -9.79,-90.15 1.98,-35.56 -2.77,-0.58 4.45,-33.56 8.59,-39.23 3.42,-22.14 18.02,-44.06 0,-160.67 44.58,-361.95 8.01,-528.62 -37.13,-184.8 -52.38,-315.89 -125.87,-489.2 -37.52,-88.5 -67.9,-137.89 -112.57,-199.78 -73.37,-101.68 -45.25,-438.69 -487.61,-416.77 -164.85,8.16 -323.59,112.1 -423.95,185.03 -294.45,213.98 -118.45,221.86 -284.83,340.41 -146.6,104.45 -150.01,196.24 -232.14,374.92 -64,139.22 -121.92,277.3 -186.24,420.93 -36.04,80.47 -61.93,138.8 -96.3,216.4 -26.12,58.96 -55.88,152.9 -101.13,193.77 -112.59,-57.72 -235.94,-236.61 -327.83,-226.31z"/>
    <path class="fil63" d="M2374.97 4649.15c-73.56,151.09 3.58,248.06 -145.04,280.31 -272.64,59.17 -272.75,-153.26 -319.94,-208.92 -103.54,166.07 -84.25,133.2 -255.08,225.17 28.81,305.57 -79.21,371.13 10.61,716.59 108.43,417.03 160.45,842.98 625.95,1010.68 438.09,157.83 444.81,17.77 704.24,7.75 99.16,-6.6 21.76,-6.97 52.81,24.45 72.55,-44.78 137.45,-68.91 210.46,-123.1 103.49,-76.81 64.45,-97.59 222.8,-97.59 -38,-20.13 52.25,25.69 -31.88,-10.58l-51.24 -26.2c288.57,-548.72 -37.37,-335.79 -103.7,-1104.45 -21.07,-244.22 -57.17,-194.48 -142.39,-370.68 -7.05,-74.71 15.89,-119.93 38.31,-171.08l228.23 -11.26c44.74,-133.6 132.71,-273.18 238.9,-329.06 207.98,-109.47 342.98,30.03 441.92,17.08 64.41,-58.12 23.89,-51.93 123.62,-108.71l5.1 -132.59c26.96,-159.43 1.68,-268.55 0.98,-456.9 -0.35,-93.35 -13.1,-127.05 -46.92,-192.2 -28.67,-55.23 -55.35,-104.86 -82.88,-155.35 -172.02,-30.1 -395.47,-316.59 -584.97,-181 -229.74,164.39 -321.68,115.97 -488.15,358.39 -84.18,122.59 -62.86,160.93 -167.19,255.26 -67.15,60.72 -454.61,717.34 -484.55,783.99z"/>
   </g>
  </g>
 </g>
</svg>
