<?xml version="1.0" encoding="UTF-8"?>
<!DOCTYPE svg PUBLIC "-//W3C//DTD SVG 1.1//EN" "http://www.w3.org/Graphics/SVG/1.1/DTD/svg11.dtd">
<!-- Creator: CorelDRAW 2017 -->
<svg xmlns="http://www.w3.org/2000/svg" xml:space="preserve" width="200mm" height="200mm" version="1.1" style="shape-rendering:geometricPrecision; text-rendering:geometricPrecision; image-rendering:optimizeQuality; fill-rule:evenodd; clip-rule:evenodd"
viewBox="0 0 20000 20000"
 xmlns:xlink="http://www.w3.org/1999/xlink">
 <defs>
  <style type="text/css">
   <![CDATA[
    .fil0 {fill:none}
    .fil1 {fill:#FEFEFE}
    .fil3 {fill:#FEFEFE}
    .fil2 {fill:#433D30}
   ]]>
  </style>
 </defs>
 <g id="Capa_x0020_1">
  <metadata id="CorelCorpID_0Corel-Layer"/>
  <rect class="fil0" width="20000" height="20000"/>
  <g id="_2713312134512">
   <path class="fil1" d="M1721.14 4934.64c60.1,303.79 -52.41,347.58 -190.92,553.28 -71.25,105.82 -201.81,139.92 -311.83,200.5l-35.23 449.34c-3.5,10.44 -9.53,20.06 -13.03,29.94 -3.23,9.35 -9.31,19.06 -12.28,28.15 -40.52,123.96 -9.96,229.65 -37.41,370.22l-101.5 214.4c-115.35,183.88 15.43,282.27 -232.01,646.6l-276.73 497.06c-25.26,89.83 -2.58,38.64 -39.73,138.96l-137.73 331.49c-125.8,206.92 -93.01,294.87 -121.56,563.99 -30.16,284.11 -146.16,435.96 -165.09,835.64l-43.79 583.05c-19.85,541.35 93.4,1019.66 198.09,1492.43l223.88 749.53c63.34,169.34 82.44,397.81 184.85,566 98.26,161.33 81.04,321.18 187.86,561.72 76.19,171.47 -8.08,266.41 212.04,272.61 0,100.45 -10.4,108.58 21.72,202.38l462.41 672.74c6.91,7.12 16.96,14.2 24.26,21.11 101.14,95.07 198.62,136.16 203.73,317.68l167.32 0.09c2.45,119.9 53.41,156.26 137.91,226.42 137.77,114.39 124.39,108.4 322.75,108.49 81.34,429.31 316.9,80.95 335.25,418.56 427.84,30.16 1064.6,93.54 1502.14,-22.73 759.85,-201.94 280.48,-120.16 752.98,-356.19 6.82,-3.37 17.4,-10.45 24.09,-13.11 6.16,-2.45 17.44,-7.13 23.6,-8.79 63.38,-17.13 262.09,-14.25 407.86,-102.58l474.03 -317.69c89.74,-58.31 54.16,-29.24 117.23,-118.98 478.06,-679.95 139.13,-210.63 464.11,-745.69l127.29 -260.07c3.71,-8.52 7.47,-20.37 11.36,-28.41l61.85 -90.48c208.58,-251.55 98.26,-345.96 207.27,-690.66 5.47,-17.31 33.88,-138.69 34.31,-141.01 82.05,-447.02 21.38,-999.03 21.42,-1457.37 0,-911.04 -10.45,-416.12 -146.25,-1010.4 -51.49,-225.28 -56.34,-435.21 -103.77,-485.09 -129.38,-136.02 -105.78,75.14 -157.7,-120.42 -39.34,-148.13 20.71,-15.51 72.9,-142.62 207.93,0 382.12,-14.34 535.97,30.29 237.35,68.89 725.63,56.47 963.98,120.64 233.59,62.94 252.95,34.66 513.72,63.38 335.74,36.98 564.65,146.25 962.01,162.86l757.23 94.89c339.45,90.4 -150.62,124.71 790.32,112.91 260.42,-3.28 314.67,33.35 529.15,121.51 110.41,45.37 110.59,33.35 212.43,90.61 74.26,41.79 132.09,85.19 209.54,114.69 9.79,3.72 21.55,6.65 31.61,10.36l64.56 22.25c10.31,4.11 21.37,8.26 31.51,12.63 2.75,1.23 93.32,48.57 112.55,59.67l617.27 337.04c72.17,31.17 633.01,85.19 900.25,190.84l362.36 122.78c333.37,35.58 544.53,234.16 694.94,233.24 721.17,-4.46 558.17,314.4 851.64,357.54 239.84,35.28 362.84,-4.8 613.64,66.44 418.52,118.85 1057.21,11.15 1445.31,-54.59 83.23,-14.07 67.1,-2.49 148.96,-33.57l111.16 -63.99c188.69,-96.34 387.36,29.24 433.38,-204.78l1079.42 -507.12c8.56,-6.56 17.7,-14.6 25.83,-21.55l150.93 -141.18c-131.22,-284.82 38.11,-188.66 103.68,-509.14 33.22,-162.25 46.72,-476.96 81.25,-675.23 23.3,-133.75 141.45,-461.66 55.21,-656.52 -74.74,-168.89 -48.87,290.11 -74.31,-157.83 -6.6,-116.75 1.66,-266.63 1.66,-387.36 -9.39,-39.91 -125.97,-103.64 -194.85,-285.86 -67.1,-177.42 -163.87,-258.81 -263.49,-403.62l-36.32 -52.93c-103.2,-130.61 -232.27,-203.99 -323.76,-336.52 -129.55,-187.61 -275.06,-310.25 -478.23,-404.01 -61.19,-28.2 -99.13,-36.54 -154.21,-92.54 -115.35,-117.23 -76.97,-212.43 -188.3,-312.83l-588.11 -712.69c-100.58,-83.26 -238.83,-97.73 -355.45,-151.71 -223.97,-103.77 -331.89,-199.89 -594.41,-221.7 -385.39,-32.04 -120.86,-82.17 -968.66,-81.95 -1047.76,0.21 -346.31,-125.63 -921.31,-125.63 -144.86,-168.63 -1.71,-130.43 -281.89,-169.63 -166.79,-23.39 -431.15,-229.79 -617.57,-325.69l-247.92 -139.17c-7.65,-4.68 -18.01,-11.14 -25.57,-15.65 -10.63,-6.29 -39.69,-23.51 -50.45,-29.41l-335.34 -126.67c-50.92,-20.77 -81.95,-54.69 -148.79,-90.7 -36.54,-19.67 -34.57,-22.21 -95.98,-41.18 -77.37,-23.91 -74.13,-12.06 -115.66,-23.43 -221.91,-60.75 -69.54,-129.2 -380.49,-130.82 -327.52,-1.66 -495.15,-64.6 -800.98,-145.86l-398.33 -110.41c-551.23,-80.91 -2281.17,-74.79 -2908.45,-74.79 -470.63,0 -931.85,14.47 -1391.77,-61.19 -439.5,-72.3 -1004.36,-15.12 -1457.59,-20.85 -194.03,-2.49 -263.92,-39.82 -456.37,-44.85 -640.4,-16.74 -496.68,-86.24 -883.99,-85.71 -310.04,0.48 -373.5,84.18 -923.72,84.14 -295.61,0 -873.59,358.86 -1048.43,612.99 -74.57,108.4 -156.3,185.68 -294.29,236.42 -125.71,46.2 -101.94,32.65 -244.43,32.65z"/>
   <path class="fil2" d="M6091.55 11717.01c-0.21,-426.43 -78.85,-654.91 -246.69,-937.66 -41.7,-70.29 -61.28,-113.56 -105.61,-188.39 -43.58,-73.61 -83.05,-110.02 -117.62,-171.39 -16.83,-29.9 -79.16,-168.02 -93.58,-198.66 -44.72,-94.81 -49.53,-91.44 -62.38,-219.51 -88.12,-877.74 481.69,-741.19 842.51,-899.59 433.73,-190.36 1019.44,69.23 1821.39,76.53l1262.34 190.45c263.31,75.79 309.2,70.11 615.96,92.49 472.76,34.44 257.75,154.51 1262.21,178.59 456.59,10.93 762.69,158.15 1102.97,342.51 948.81,514.08 491.08,272.58 1649.35,532.57 332.8,74.7 101.23,163.25 481.37,207.57l1219.59 266.94c139.88,53.85 321.75,224.27 464.51,291.15 77.28,36.24 492.22,146.34 567,151.54 312.13,21.73 335.48,-71.99 627.11,-92.53 390.94,-27.45 357.76,-27.89 692.71,-191.06 514.29,-250.45 947.89,-431.28 984.39,-1021.67 36.54,-591.44 199.67,-665.96 -117.58,-1180.21 -353.22,-572.51 -445.18,-601.27 -816.59,-943.78 -8.74,-8.04 -31.86,-32.65 -40.47,-41.05 -198.75,-194.55 -361.09,-273.84 -533.52,-513.98 -812.7,-1131.34 -1157.79,-929.18 -2009.83,-933.73 -956.8,-5.16 -610.45,18.36 -1661.93,-469.05 -304.44,-141.14 -1061.97,-552.84 -1344.95,-624.96 -287.61,-73.3 -496.15,-288.62 -885.43,-313.05 -112.42,-7.04 -260.64,-8.74 -368.3,-31.34 -127.85,-26.79 -149.4,-66.09 -319.17,-94.81 -316.2,-53.59 -2962.78,-29.85 -3460.9,-30.16 -374.37,-0.26 -536.93,-125.88 -1298.23,-125.79l-1924.93 -82.66c-373.33,-33.61 -663.96,35.71 -958.73,190.44 -245.04,128.56 -452.36,296.58 -647.22,491.22 -175.53,175.32 -550.21,647.12 -649.35,857.49l-476.22 1410.21c-29.5,60.37 -92.49,160.03 -134.84,236.91l-273.84 473.51c-114.39,285.56 -394.09,1658.31 -408.87,1850.19 -56.25,730 264.4,1387.7 376.56,1860.42 31.34,132.1 15.74,197.14 62.64,326.65l277.56 851.29c159.93,423.55 499.64,641.27 664.69,842.38 277.87,338.48 630.17,985.61 1286.38,1000.38 168.81,3.8 439.9,-77.23 671.78,-106.52 250.72,-31.64 129.51,-24.91 284.38,-95.9 109.88,-50.35 185.72,-41.61 280.35,-98.35l439.85 -310.73c329.09,-249.28 503.41,-447.41 688.78,-824.54 149.53,-304.22 108.18,-181.05 176.24,-588.03 19.71,-117.8 53.68,-143.06 82.66,-276.68l71.5 -1115.65z"/>
   <path class="fil3" d="M5293.89 9030.08l-855.22 55.55c71.2,-305.09 173.96,-240.75 507.95,-268.94 281.05,-23.78 244.6,-98.09 627.28,-94.94 257.62,2.14 474.16,57.09 697.04,18.31 722.35,-125.66 792.85,63.56 1353.21,84.01 700.8,25.53 1407.68,109.59 2075.26,239.1 929.4,180.26 2262.07,265.93 3034.68,729.38 317.51,190.49 715.36,358.34 1094.37,401 141.75,15.95 198.79,10.88 327.47,54.46 127.55,43.18 152.9,79.33 339.32,85.54 -62.42,-243.64 -116.05,-197.09 -120.99,-540.38 -6.42,-446.54 -87.24,-1598.87 77.98,-1906.15 169.11,63.08 108.92,339.19 104.51,564.43 -8.74,446.71 -60.54,1434.38 95.77,1811.11 56.08,135.2 26.09,167.11 176.63,203.56 6.73,-9.31 14.07,-36.32 16,-30.6l-23.96 -678.24c-23.03,-76.23 -239.13,-467.13 -87.55,-774.67 33.92,-68.76 16.88,-32.74 58.4,-75.05 85.63,186.82 63.33,213.7 83.49,463.89l372.4 1253.51 255.75 11.67c-26.84,-306.49 -109.49,-611.28 -136.99,-927.3 -69.37,-796.35 -51.14,-1668.05 72.17,-2459.68 39.9,-256.32 118.45,-202.03 136.37,-384.04l-255.79 -26.53c-203.86,522.03 -112.94,1619.36 -197.13,1803.25 -259.15,-91.44 -19.8,-1064.29 -174.36,-1781.7 -109.4,-46.38 -277.99,-110.67 -383.29,-139.52 -198,-54.25 -334.42,-126.89 -448.86,-149.62 1.27,240.01 42.62,194.33 82,371.23l-288.57 -2.32 -65.26 256.58c-74.96,-232.54 -128.24,-813.36 -334.29,-942.47 -483.74,-303.09 -1061.97,-487.37 -1596.68,-662.3 -439.67,-143.8 -561.32,-119.54 -773.18,-189 -799.54,-262.21 -3338.47,75.8 -4330.2,-188.25 -228.3,-60.76 -968.74,-111.07 -1166.79,-2.89l1171.77 576.4c170.08,84.36 155.26,60.36 331.28,129.03 81.69,31.91 61.02,34.18 132.31,74.09l776.9 389.94c258.06,124.61 851.38,186.68 1188.99,112.2 211.82,-46.73 98.35,-88.56 313.62,-143.89 307.94,-79.12 353.09,-234.81 626.45,-281.06 200.8,-33.92 658.53,-49.08 846.31,80.12 -10.05,6.17 -26.36,0.4 -32.56,13.9 -25.57,55.95 -259.34,36.89 -314.5,40.57 -128.15,8.48 -218.41,22.42 -338.97,35.66 -56.34,6.21 -90.3,4.5 -139.69,23.56 -8.53,3.28 -18.97,9.01 -26.8,13.03l-328.83 219.38c-123.35,58.04 -203.73,44.41 -294.38,87.42 -121.21,57.48 -42.44,88.03 -250.68,123.74 -247.83,42.53 -517.13,-34.01 -781.49,6.16 17.75,245.26 359.3,251.86 632.09,418.35 148.79,90.83 201.29,115.35 350.82,194.07 54.68,28.76 131.08,67.31 191.23,100.49 446.76,246.35 420.97,271.87 676.32,718.41 160.37,280.49 459.22,336.66 447.5,692.89 -383.99,-43.53 -610.89,-497.9 -806.93,-764.26 -69.28,-94.2 -153.59,-215.19 -248.05,-292.07 -312.66,-254.66 -1116.87,-589.56 -1364.14,-773.32 -362.14,-269.12 -377.08,-475.91 -935.39,-651.62l-378.83 -172.35c-218.9,-100.36 -513.16,-159.59 -760.38,-288.66 -240.18,-125.4 -485.13,-200.37 -714.52,-367.95 -215.14,-157.14 -285.6,-161.33 -499.04,-257.49 -581.69,-262.13 -1370.08,-368.04 -1873.31,55.24 -323.63,272.19 -810.65,789.01 -947.85,1180.56 -55.56,158.5 -30.6,294.39 -92.97,461.67 -65.65,175.97 -72.78,216.53 -124.62,415.06 -109.01,417.7 -343.17,698.84 -501.74,1092.75 -68.06,169.03 -85.37,136.11 -142.32,395.66l-200.54 850.9c-126.5,431.77 -77.55,1002.18 49.82,1418.78l193.46 913.53c32.52,347.41 228.65,930.41 387.36,1199.71 187.43,317.98 321.09,337.26 496.28,594.23 138.17,202.64 261.82,412.49 469.97,567.62 302.69,225.54 295.87,344.78 816.94,276.59 527.62,-69.06 1133.66,-443.87 1425.11,-716.62 375.73,-351.6 551.49,-835.38 606.69,-1507.2 21.34,-259.55 83.88,-718.15 33.22,-987.63 -110.19,-586.23 -575.79,-953.18 -603.02,-1519.17 -6.38,-133.06 -9.35,-411.75 23.3,-534.23 40,-149.83 120.38,-175.27 164.87,-396.18z"/>
   <path class="fil3" d="M18564.46 9665.58c99.44,-71.16 120.25,-53.99 217.67,-83.71 -5.46,-403.05 -561.49,-1063.46 -886.39,-1305.22 -91.66,-68.18 -22.9,-15.82 -94.72,-77.58l-376.82 -332.98c-88.34,-81.96 -139.21,-89.48 -201.28,-141.14 -63.51,-52.85 -85.98,-123 -124.92,-189.53 -64.35,-109.84 -2.67,-26.27 -71.03,-105.51 -160.07,-185.46 -45.81,40.6 -245.87,-292.03 -54.73,-91 -84.49,-116.62 -162.3,-183.89 -181.48,-156.74 -317.72,-154.77 -617.05,-120.72l-56.38 106.43c-281.8,558.87 -102.94,410.61 -203.08,767.76 -55.77,198.8 -85.67,148.09 -91.4,449.3 -9.7,511.31 -33.13,1193.93 7.26,1679.85l288.31 851.43c103.68,141.22 528.63,307.98 767.15,328.13 652.41,55.16 1285.24,-145.43 1756.92,-518.32 405.84,-320.87 112.55,-447.54 93.93,-832.27z"/>
  </g>
 </g>
</svg>
