<?xml version="1.0" encoding="UTF-8"?>
<!DOCTYPE svg PUBLIC "-//W3C//DTD SVG 1.1//EN" "http://www.w3.org/Graphics/SVG/1.1/DTD/svg11.dtd">
<!-- Creator: CorelDRAW 2017 -->
<svg xmlns="http://www.w3.org/2000/svg" xml:space="preserve" width="200mm" height="200mm" version="1.1" style="shape-rendering:geometricPrecision; text-rendering:geometricPrecision; image-rendering:optimizeQuality; fill-rule:evenodd; clip-rule:evenodd"
viewBox="0 0 20000 20000"
 xmlns:xlink="http://www.w3.org/1999/xlink">
 <defs>
  <style type="text/css">
   <![CDATA[
    .fil0 {fill:none}
    .fil1 {fill:#FEFEFE}
    .fil2 {fill:#312D2F}
   ]]>
  </style>
 </defs>
 <g id="Capa_x0020_1">
  <metadata id="CorelCorpID_0Corel-Layer"/>
  <rect class="fil0" width="20000" height="20000"/>
  <g id="_2713138867296">
   <path class="fil1" d="M8253 930.25c-57.93,141.23 -180.57,134.75 -237.8,147.95 -144.82,33.44 -172.24,55.95 -236.48,207.49 -311.33,0 -350.59,-79.7 -434.58,118.47 -234.01,0 -272.44,-11.91 -443.9,113.52 -7.71,5.65 -16.9,12.74 -25.15,18.06 -173.68,111.59 2.35,1.36 -56.21,30.06l-394.24 187.95c-6.81,4.91 -15.71,12.46 -22.77,17.36 -124.28,86.47 -304.56,123.96 -404.27,223.7l-391.4 348.32c-4.7,6.64 -10.31,17.23 -15.09,24.12 -100.9,145.15 -275.66,155.46 -378.66,261.97l-112 93.93c-98.18,66.72 -114.59,153.89 -204.61,260.77 -5.48,6.52 -13.23,14.68 -18.8,20.99 -5.53,6.19 -12.7,14.6 -18.43,20.66 -5.82,6.14 -12.41,15.13 -18.6,21.11 -6.56,6.31 -13.36,15.47 -20.49,21.44l-113.19 64.99c-41.94,12.54 -84.7,8.83 -127.71,8.83 -33.19,117.89 -135.29,173.76 -181.02,276.23l-37.9 118.47c-72.53,187.33 -220.32,341.71 -339.07,503.52 -115.5,157.35 -36.74,159 -271.66,207.83l0 355.28c-10.8,7.54 -40.78,29.48 -47.63,34.18 -178.92,123.09 -157.72,206.92 -276.64,350.21l-40.08 41.48c-129.32,140.57 -97.4,281.06 -307.29,324.73l-125.56 341.92c-4.7,6.97 -10.31,17.12 -14.97,24.13 -176.57,265.34 -254.54,213.06 -254.54,581.62 -88,33.03 -56,34.88 -197.56,39.5l-137.89 475.36c-52.33,141.77 -222.75,215.08 -336.19,275.24l-131.99 479.28c-3.51,10.43 -6.02,21.44 -9.78,31.87l-51.21 113.24c-28.33,52.45 -35.96,57.85 -76.04,123.83l-159.62 248.64c-86.1,97.73 -86.8,-44.12 -90.22,124.78 -0.25,12.41 -5.24,31.01 -5.36,36.91 -0.66,31.83 11.96,38.14 3.38,114.01 -23.63,208.16 -138.1,305.43 -236.24,488.68 -92.53,172.77 -11.5,203.54 -65.56,362.42l-141.56 449.38c-70.31,197.43 -210.47,413.58 -250.55,608.67l-169.06 1002.22c4.21,367.2 24.33,747.22 -61.52,1100.65 -17.94,73.97 -21.32,154.96 -20.41,244.11 3.46,337.51 86.92,293.92 81.97,829.98 -0.74,79.01 -5.4,208.24 9.24,281.64 20.04,100.57 71,119.74 98.22,211.04l126.51 480.76c102.06,270.91 36.57,206.05 95.09,491.07l163.58 435.85c92.82,250.18 -4.87,344.48 219.49,350.87 0,534.2 157.36,60.82 158.26,473.71l157.81 0.13c0,133.31 27.96,248.89 30.43,255.69l75.96 181.48c44.82,122.84 19.29,22.64 98.71,90.8l97.28 132.32c5.19,7.06 12.04,16.58 17.65,23.43l930.51 939c155.45,100.2 9.11,114.47 329.75,115.13 28.17,192.82 35.26,102.8 191.01,184.49l95.99 67.87c345.22,244.44 310.17,109.85 573.87,203.99l150.67 85.73c176.08,53.89 304.24,-34.64 514.37,83l48.25 30.56c156.4,86.35 325.47,89.27 490.9,144.08l584.63 209.18c301.47,132.9 247.12,166.96 591.56,174.05 41.11,0.83 82.31,0.79 123.09,6.89 242.26,36.21 326.25,145.56 1019.7,154.39 1310.17,16.61 879.42,44.24 1947.17,197.02l118.8 -16.5c143.95,-23.62 132.77,76.16 473.83,57.28 159.87,-8.87 194.22,47.09 148.24,-81.4 223.41,0 604.55,64.04 781.16,-42.93 210.59,-127.54 -63.55,-29.89 388.85,-188.73l455.73 -126.8c382.41,-71.95 311.77,-530.32 784,-312.97 -25.28,-127.29 -71.21,-246.71 32.2,-365.18l80.91 -64c7.05,-4.16 18.02,-8.7 25.4,-12.82l167.33 -126.51c279.62,-390.13 62.76,-93.07 363.94,-420.43 95.67,-104 85.28,-253.56 154.72,-367.2l104.12 -137.77c207.04,-367.28 74.63,-169.89 138.09,-520.14 56.29,-150.18 62.6,101.6 137.93,-243.04 58.89,-269.31 90.35,-775.18 217.85,-1020.98 110.92,0 418.99,26.55 557.5,44.49l503.11 91.17c504.84,68.82 1173.59,113.89 1683.38,29.36 454.58,-75.42 586.41,-276.23 838.43,-351.53 143.34,-42.84 81.77,21.65 222.96,-72.16 70.02,-46.51 94.76,-14.68 105.85,-175.79 241.23,-4.94 271.37,-94.71 384.56,-254.42l31.05 -39.42c7.84,-7.05 52.04,-24.12 96.99,-51.34l130.26 -126.88c5.2,-7.21 10.84,-17.19 15.83,-24.37l407.2 -582.36c11.22,-20.95 50.31,-85.07 56.99,-94.3 175.25,-242.34 142.05,-439.41 182.83,-753.16 25.61,-197.23 47.1,-8.42 76.08,-278.71 24.99,-232.98 45.86,-789.04 -32.82,-1016.45 -100.9,-291.57 -45.4,-731.47 -45.4,-1043.83 -187.5,-99.37 -179.91,-263.61 -195.21,-472.84 -10.51,-143.74 -4.2,-130.63 -58.8,-233.55 -158.05,-298.09 -92.36,-249.39 -148.24,-541.05 -36.78,-192.24 -69.89,33.56 -55.62,-258.96 29.89,-613.08 -105.48,-570.57 -134.64,-1021.47l-31.67 -156.16c-3.05,-8.41 -8.41,-18.31 -11.62,-26.6l-102.18 -287.9c-73.44,-372.97 91.12,-177.52 -254.01,-676.92l-66.68 -98.59c-62.14,-77.85 4.25,-14.43 -98.59,-92.58l-113.52 -85.27c-6.23,-6.31 -14.35,-14.8 -20.13,-21.57l-169.14 -259.86c-163.71,-192.11 -345.31,-365.59 -578.24,-460.84 -257.23,-105.19 -314.13,-302.59 -450.33,-576.35l-98.43 -133.93c-5.65,-6.8 -14.02,-15.13 -19.38,-22.22 -207.54,-272.49 -0.83,-110.02 -329.88,-345.84 -109.32,-78.39 -117.28,-112.86 -180.2,-248.4l-90.68 -275.87c-88.49,-275.24 -15.01,-7.96 -129.97,-216.94l-176.61 -311.16c-51.25,-137.97 -137.35,-201.1 -226.79,-343.53l-260.28 -381.01c-34.22,-56.12 -17.07,-28.12 -69.81,-85.73l-319.12 -350.04c-64.49,-58.31 -25.52,-21.98 -93.27,-67.5l-340.36 -363.78c-47.29,-41.24 -28.2,-18.18 -82.26,-77.89 -83.42,-92.12 -99.3,-192.37 -157.27,-287.12l-49.28 -67.38c-4.45,-7.26 -10.8,-17.03 -14.97,-24.58 -5.77,-10.35 -19.71,-42.88 -24.9,-53.73 -130.55,-271.16 -276.73,-83.29 -549.46,-342.17l-335.7 -309.75c-6.76,-5.12 -16.24,-11.88 -23.25,-16.75l-223.37 -138.92c-56.78,-30.8 -43.55,-14.88 -108.7,-49.6 -252.36,-134.47 236.28,145.39 -113.77,-79.01l-249.51 -79.54c-316.44,-43.18 -328.32,-104.29 -639.48,-183.79 -8.86,-2.27 -18.76,-5.94 -27.5,-8.49 -8.87,-2.6 -18.31,-7.38 -27.34,-10.19 -584.92,-181.1 -1208.97,-130.34 -1873.43,-16.82 -315,53.77 -595.89,12.91 -922.72,101.31l-572.06 214.92c-104.12,26.06 1.44,3.71 -78.26,12.08 -50.43,5.32 -149.15,-0.53 -204.82,-0.53z"/>
   <path class="fil2" d="M13468.01 13724.11c184.28,56 311.9,282.42 449.55,423.9 7.91,8.12 30.8,30.18 38.01,38.72 96.17,113.89 174.1,300.23 305.56,406.37 140.73,113.64 243.74,71.91 448.64,109.11 181.51,32.99 277.47,65.77 468.84,86.47 524.51,56.82 992.08,124.36 1521.37,0.16 342.75,-80.4 620.63,-307.2 905.73,-476.18 10.31,-6.1 149.06,-110.8 157.35,-118.67 112.95,-107.59 171.17,-226.96 263.33,-334.05 79.38,-92.28 180.2,-215.91 263.16,-291.9 203.54,-186.47 186.84,-268.65 312.81,-512.47 106.39,-205.93 77.48,-534.33 70.97,-790.11 -10.27,-404.6 -18.31,-648.79 -141.03,-957.15 -215,-540.14 -307.94,-1300.52 -384.31,-1871.38 -16.12,-120.73 -16.41,-354.58 -55.5,-492.18 -46.43,-163.62 -88.94,-304.19 -112.49,-476.76 -41.65,-304.77 -51.96,-430.82 -150.42,-688.96 -108.04,-283.32 -687.19,-844.29 -956.41,-1009.1 -391.45,-239.66 -551.85,-529.71 -825.16,-875.88 -78.47,-99.38 -152.57,-227.33 -221.18,-332.35l-1579.72 -2328.63c-207.87,-190.84 -344.4,-364.85 -516.68,-588.47 -101.31,-131.5 -186.55,-178.84 -280.27,-274.42l-784.79 -642.45c-323.74,-178.5 -684.67,-320.27 -1095.45,-345.05 -328.03,-19.84 -411,-169.44 -1265.63,-111.38 -171.09,11.59 -120.66,12.62 -231.66,50.97 -186.84,64.49 -299.08,48 -502.58,78.26 -306.95,45.65 -592.34,184.86 -845.19,274.3 -182.02,64.37 -185.27,114.55 -392.73,145.85 -260.77,39.34 -251.78,84.37 -448.97,149.31 -272.73,89.77 -547.56,191.54 -783.09,335 -99.05,60.36 -211.91,149.43 -337.47,212.93 -254.26,128.66 -469.96,303.37 -688.22,461.55 -757.53,549 -1268.97,1375.97 -1774.34,2138.08 -240.4,362.5 -1065.97,1580.46 -1194.42,1895.13l-135.79 246.42c-35.46,52.7 -28,45.23 -60.41,98.22 -40.33,65.98 -65.64,104.37 -102.8,175.29 -81.89,156.37 -114.01,224.4 -198.83,394.17 -49.32,98.59 -153.85,259.16 -199.13,351.9 -173.02,354.46 -350.99,813.28 -557.37,1137.43 -104.41,163.99 -34.93,259.7 -110.39,448.84 -163.29,409.18 -303.04,858.44 -377.09,1312.6 -53.12,325.68 -16.95,689.17 -72.04,1029.31 -64.45,398.01 11.67,732.92 45.73,1053.23 57.19,537.71 171.66,648.26 271.12,1106.18 18.02,83.13 14.35,183.66 32.29,258.83 28.94,121.15 72.57,116.41 121.68,219.21 243.12,508.71 565.75,1125.3 954.72,1534.48 111.5,117.23 160.32,186.88 262.42,290.13 328.35,331.98 364.23,363.65 779.22,609.99l90.84 65.11c652.88,435.28 1051.5,362.33 1733.48,632.01 734.57,290.46 1042.14,338.75 1919.09,347.41 538.73,5.28 831.42,-58.64 1307.48,69.31 94.35,25.36 149.81,27.22 236.36,40.5 374.17,57.44 581.46,322.17 1437.5,130.67l871.05 -275.86c221.6,-78.55 476.93,-302.46 665.08,-441.3 70.64,-52.12 86.88,-66.27 159.54,-119.38 143.29,-104.82 576.51,-605.66 660.34,-765.4 182.88,-348.36 130.67,-401.3 220.69,-613.99 68.12,-160.82 45.69,-4.29 99.75,-151.25 28.12,-76.45 15.05,-155.5 35.21,-249.23 64.33,-299.24 207.75,-386.74 204.16,-1233.96 -1.57,-372.03 -161.35,-743.35 68.49,-989.44z"/>
   <path class="fil1" d="M11018.56 12399.23c7.71,9.6 17.81,12.41 21.32,30.22 3.38,17.28 15.92,22.1 20.37,29.44l92.94 1621.58c-18.22,293.59 30.85,661.94 -50.59,911.25 -279.7,856.37 -248.94,901.36 -693.99,1677.49 -119.25,207.95 -292.56,364.6 -563.35,852.16 -102.39,184.41 -404.89,302.59 -426.79,510.37 385.92,212.24 756.54,-20.41 1007.67,-46.76l613.62 -131.79c387.44,-126.51 579.23,-368.64 883.83,-578.28 287.57,-197.97 508.22,-502.16 633.58,-852.21 102.8,-286.99 76.9,-534.44 198.05,-797.32 249.72,-541.79 15.67,-2095.32 90.26,-2843.7 33.32,-334.33 98.8,-508.18 -142.55,-777.03l-603.14 -892.58c-169.73,-455.85 -385.3,-667.18 -526.37,-974.1 -94.18,-204.98 -48,-140.94 -159.66,-317.05 -42.97,-67.79 -35.79,-74.06 -72.29,-159.67 -46.39,-108.86 -52.94,-105.31 -96.65,-181.6 -100.24,-174.96 -173.27,-312.19 -330.09,-434.9 -9.2,-7.18 -36.78,-25.98 -45.32,-33.28l-167.12 -217.1c-105.03,-138.8 -268.4,-324.28 -438,-365.06 22.47,525.46 437.71,1451.56 240.65,1876.2 -386.13,6.89 -373.1,-594.2 -468.93,-843.5 -59.17,-153.94 -75.17,-146.47 -109.93,-355.86 -48.12,-289.68 -96.04,-496.68 -161.65,-757.58l-150.3 -561.08c-59.29,-149.44 16.17,-84.91 -136.36,-121.48 -77.9,115.87 -60.74,305.51 -30.8,439.65 37.4,167.74 65.02,221.02 85.64,410.37l469.83 1769.65c28.87,145.56 34.52,89.48 70.68,192.57 50.27,143.33 33.2,314.5 20.82,471.81 -336.02,25.85 -410.2,-608.92 -571.35,-1141.56 -78.43,-259.2 -132.45,-403.77 -205.35,-662.6 -72,-255.62 -99.25,-477.63 -184.36,-683.81 -102.14,-247.41 -124.2,-429.54 -126.72,-738.64 -2.35,-290.96 -76.57,-491.36 -122.88,-754.19 -45.65,-259.33 -147,-441.67 -259.53,-606.28 -130.76,-191.25 -296.81,-340.03 -108.16,-625.09 157.35,44.7 212.48,246.59 383.65,476.72 257.97,346.79 538.45,577.21 855.71,876.62 274.17,258.79 529.62,611.77 862.56,833.61 889.73,592.92 1090.13,1008.04 1537.94,1910.38 101.69,204.86 214.51,297.31 335.74,525.71 112.9,212.77 157.44,397.51 289.43,578.2 67.38,92.24 128.7,127.99 193.85,239.12 80.61,137.52 106.42,220.45 217.84,337.84l112.9 153.03c50.48,117.23 92.58,208.77 133.36,306.41 146.3,350.38 171.33,987.92 454.41,1287.86 82.18,87.05 109.23,115.91 181.43,248.44 27.43,50.31 39.92,77.73 77.77,122.47 194.02,229.39 219.58,59.42 500.39,-225.02 136.37,-138.05 208.32,-204.53 391.98,-268.4 338.75,-117.77 417.14,-324.81 919.01,-429.83 209.68,-43.88 370.58,-70.02 553.79,-117.24 398,-102.55 828.91,-92.98 1219.78,-51.5 305.59,32.45 321.05,161.27 496.8,144.28 80.24,-759.71 -196.82,-1265.63 -317.02,-1916.94 -30.68,-166.26 -81.15,-202.01 -130.43,-424.97 -41.73,-188.81 -41.44,-326.95 -75.5,-513.46 -81.02,-443.97 -118.14,-1523.47 -386.58,-1896.85 -52.78,-73.4 -205.97,-213.97 -268.4,-281.31 -119.54,-128.94 -172.48,-148.08 -390.99,-211.7 -231.04,-67.26 -844.78,-76.49 -1063.49,5.85 -248.45,93.57 -624.84,235.91 -900.37,229.68 19.05,-460.55 1054.42,-639.72 1439.39,-678.03 -59.71,-76.24 -65.89,-106.22 -139.29,-187.33 -554.61,-613.08 -675.97,-893.64 -1112.85,-1614.43 -165.15,-272.49 -253.68,-564.84 -466.5,-803.18 -5.52,-6.19 -14.14,-14.31 -19.71,-20.29 -5.32,-5.81 -14.26,-13.44 -19.54,-19.09 -72.95,-78.64 -477.09,-653.21 -787.22,-985.69 -257.06,-275.61 -418.66,-534.32 -777.9,-767.22 -190.3,-123.37 -307.29,-266.01 -545.71,-397.09 -358.75,-197.19 -402.5,-132.57 -759.96,-202.76 -53.53,-10.51 -210.72,-68.86 -293.85,-89.19 -213.51,-52.33 -505.25,-51.46 -745.53,-28.7 -361.59,34.23 -693.98,31.34 -1038.13,142.96 -116.08,37.69 -145.44,77.24 -281.02,114.02 -153.39,41.61 -147.33,35.09 -272.77,86.8 -100.86,41.56 -211.62,53.56 -311.7,87.09 -136.49,45.69 -144.15,86.47 -261.35,125.02 -274.5,90.35 -566.28,181.07 -815.67,333.97l-359.16 228.81c-63.58,30.8 -72.24,20.87 -143.16,60.41 -106.02,59.13 -337.35,233.6 -431.9,320.4 -5.82,5.36 -13.57,14.22 -19.38,19.54 -317.1,291.54 -323.53,164.32 -812.17,727.84 -116.12,133.94 -70.39,130.84 -146.51,252.57l-300.11 446.33c-49.6,56 -30.47,23.26 -99.99,97.52 -380.68,406.62 -1025.11,1504.79 -1315.65,2001.51 -85.56,146.3 -68.95,87.17 -177.27,218.67 -182.42,221.35 -771.22,1464.47 -939.21,1789.44l-344.73 798.65c-48.41,134.42 -92.41,173.22 -114.34,284.56 -46.06,233.64 23.58,128.49 -93.15,336.44 -4.25,7.5 -10.73,16.86 -14.64,24.78 -86.35,172.65 -75.55,382.21 -113.48,569.91 -24.99,123.58 -65.4,142.67 -84.16,291.9 -31.26,247.91 3.63,519.11 -22.76,771.1 -59.09,563.81 -83.63,1252.64 126.38,1762.8 52.08,126.6 48.41,189.6 76.91,328.07 68.61,333.39 436.92,1008.28 619.18,1346.29 251.99,467.27 860.29,1143.65 1350.25,1368.34 99.37,45.57 169.72,72.37 283.24,115.54 111.25,42.31 146.55,82.72 264.94,125.61 103.83,37.56 204.15,50.72 297.96,66.3 351.53,58.35 523.89,184.98 870.85,301.93 153.93,51.87 562.57,89.06 630.69,125.89 262.42,141.89 188.57,162.71 587.43,184.9 300.36,16.7 1209.18,122.88 1463.23,8.04 655.11,-296.11 830.64,-407.16 1243.74,-1076.9 54.51,-88.37 88.24,-185.35 136.98,-258.09 211.08,-314.96 387.69,-216.69 628.42,-957.56 41.36,-127.3 70.43,-154.64 125.48,-261.85 183.21,-356.85 89.48,-886.18 184.2,-1347.27 94.14,-458.17 -45.73,-1188.32 168.61,-1446.94z"/>
   <path class="fil1" d="M14890.29 14289.07c120.99,74.8 187.25,35.22 357.26,36.62 347.53,2.89 391.66,242.75 1140.82,141.15 402.29,-560.02 123.99,-611.15 248.4,-821.69 55.83,-94.43 257.88,-81.77 309.51,30.1 44.12,95.54 11.91,426.99 13.27,554.49 291.25,-101.15 133.44,-109.4 366.83,-186.22 211.54,-69.65 222.55,-44.99 358.05,-209.02 162.67,-196.86 291.28,-464.15 234.75,-812.05 -62.6,-101.81 -1127.16,-234.91 -1475.89,19.22 -3.01,2.18 -9.98,10.18 -13.03,12 -91.87,55.25 -365.67,3.22 -512.92,29.89 -345.6,62.6 -457.3,331.29 -729.16,462.46 -207.71,100.2 -592.92,458.49 -297.89,743.05z"/>
  </g>
 </g>
</svg>
