<?xml version="1.0" encoding="UTF-8"?>
<!DOCTYPE svg PUBLIC "-//W3C//DTD SVG 1.1//EN" "http://www.w3.org/Graphics/SVG/1.1/DTD/svg11.dtd">
<!-- Creator: CorelDRAW 2017 -->
<svg xmlns="http://www.w3.org/2000/svg" xml:space="preserve" width="200mm" height="200mm" version="1.1" style="shape-rendering:geometricPrecision; text-rendering:geometricPrecision; image-rendering:optimizeQuality; fill-rule:evenodd; clip-rule:evenodd"
viewBox="0 0 20000 20000"
 xmlns:xlink="http://www.w3.org/1999/xlink">
 <defs>
  <style type="text/css">
   <![CDATA[
    .fil0 {fill:none}
    .fil3 {fill:#FEFEFE}
    .fil2 {fill:#2D2D2E}
    .fil1 {fill:#353546}
   ]]>
  </style>
 </defs>
 <g id="Capa_x0020_1">
  <metadata id="CorelCorpID_0Corel-Layer"/>
  <rect class="fil0" width="20000" height="20000"/>
  <g id="_2713135837920">
   <path class="fil1" d="M9931.59 11300.73c26.73,-432.34 -711.5,-1181.85 -1139.4,-1744.19 -272.87,-358.61 -709.47,-818.4 -893.32,-1263.75 -236.94,-573.89 -158.9,-398.37 -295.24,-439.36 -252.02,470.53 903.24,1866.04 1226.42,2292.49l673.91 852.47c194.41,248.4 110.11,303.61 427.63,302.34z"/>
   <path class="fil2" d="M6871.84 18474.42c217.55,-130.05 659.09,-188.21 927.65,-304.57 335.64,-145.4 549.43,-247.4 877.69,-392.26 1055.2,-465.59 1934.71,-1771.83 2186.33,-2887.09 173.75,-770.21 179.23,-1530 177.92,-2358.5 231.09,38.55 136.97,42.54 383.51,414.09l759.25 1690.89c79.99,293.74 39.86,1266.37 -17.85,1554.77 -436.65,2181.25 -4169.18,3288.18 -5294.5,2282.67zm3948.54 -15286.57c308.83,0.54 201.93,178.15 365.4,426.14 624.9,948.13 1700.76,1475.86 2845.15,1674.35 642.16,111.43 1051.99,-187.16 1503.54,-190.56l22.97 451.46c-315.4,158.35 -1296.45,1161.92 -1507.3,1371.64 -911.62,906.82 -2175.41,1681.01 -3046.63,2791.11 -630.1,802.87 -404.12,1404.66 -442.53,2553.49 -65.64,1963.66 277.39,3472.72 -1218.77,4651.81 -663.72,523.03 -2185.01,1421.24 -3078.97,1044.02l-1088.63 -419.03c-546.35,-172.8 -529.87,-290.44 -874.97,-583.77 -865.42,-735.51 -1323,-2935.74 -1071.97,-3860.4 61.33,-225.89 30.98,-445.62 86.56,-685.87 92.63,-400.23 228.34,-767.53 306.02,-1165.54 424.15,-2173.65 -434.79,-3515.8 1291.83,-4584.68 850.42,-526.52 875.88,-507.22 1722.41,-871.99 580.78,-250.3 1119.84,-549.39 1584.57,-955.69 140.28,-122.66 261.67,-200.48 423.56,-338.08l716.98 -553.97c11.24,-7.79 27.18,-17.98 38.37,-25.77l520.44 -360.55c131.77,-88.06 108.85,-106.63 236.54,-142.28 444.62,-124.15 280.78,195.09 912.97,827.73 250.26,250.49 513.93,541.42 890.24,587.85 -87.69,-338.9 -236.12,-337.41 -657.69,-815.91 -251.52,-285.5 -535.71,-559.17 -480.09,-825.51zm5975.44 500.79c-256.24,86.96 -409.43,864.37 -1344.6,1086.55 -1240.06,294.6 -1665.61,-1.36 -2457.1,-292.57 -374.37,-137.7 -797.16,-406.16 -1093.71,-694.29 -527.47,-512.61 -982.28,-964.25 -507.72,-1421.69 262.9,-253.43 1085.38,-733.02 1487.96,-913.38 785.38,-351.91 885.98,-451.78 1950.88,-445.17 552.47,3.4 1270.09,446.84 1580.27,807.03 533.99,620.14 878.06,1579.37 713.95,2449.9 -58.57,310.82 29.13,-71.61 -42.85,123.48l-151.74 351.99c-141.55,187.52 -633,479.63 -948.9,479.81 10.56,-609.85 1045.56,-1089.22 813.56,-1531.66zm735.42 -229.74c-0.73,-1554 -1287.44,-2954.5 -2827.44,-2958.8 -1342.79,-3.76 -2222.34,505.32 -3215.35,1141.31 -199.03,127.46 -441.09,294.2 -538.07,472.39 -180.86,332.33 3.04,457.21 -413.14,590.02 -1327.25,423.51 -1593.72,799.47 -2544.75,1517.04 -1546.16,1166.63 -2616.31,942.83 -3851.48,2304.55 -914.74,1008.41 -962.35,1911.83 -908.99,3142.42 41.9,966.83 -459.93,2026.34 -659.77,3421.26 -37.19,259.55 -150.52,263.58 -82.08,872.62 131.36,1168.54 405.53,2941.36 1453.22,3616.99 465.59,300.22 854.91,556.91 1440.08,661.77 450.33,80.76 310.45,184.94 546.81,449.55 918,1027.8 2672.43,964.07 3910.77,436.65 122.07,-51.95 267.38,-82.98 373.37,-137.97 1375.49,-713.4 2386.71,-1437.68 2552,-3045.13 126.82,-1233.76 -147.4,-2381.64 -790.27,-3361.42 -591.16,-900.89 -1374.95,-1696.28 -321.38,-2729.29 988.4,-969.1 2143.93,-1778.66 3251.91,-2836.72 1129.12,-1078.26 436.78,-1024.81 1248.48,-1271.9 1249.2,-380.3 1376.85,-709.56 1376.08,-2285.34z"/>
   <path class="fil3" d="M7603.63 7853.43c136.34,40.99 58.3,-134.53 295.24,439.36 183.85,445.35 620.45,905.14 893.32,1263.75 427.9,562.34 1166.13,1311.85 1139.4,1744.19 -317.52,1.27 -233.22,-53.94 -427.63,-302.34l-673.91 -852.47c-323.18,-426.45 -1478.44,-1821.96 -1226.42,-2292.49zm3582.15 -4239.44c-163.47,-247.99 -56.57,-425.6 -365.4,-426.14 -55.62,266.34 228.57,540.01 480.09,825.51 421.57,478.5 570,477.01 657.69,815.91 -376.31,-46.43 -639.98,-337.36 -890.24,-587.85 -632.19,-632.64 -468.35,-951.88 -912.97,-827.73 -127.69,35.65 -104.77,54.22 -236.54,142.28l-520.44 360.55c-11.19,7.79 -27.13,17.98 -38.37,25.77l-716.98 553.97c-161.89,137.6 -283.28,215.42 -423.56,338.08 -464.73,406.3 -1003.79,705.39 -1584.57,955.69 -846.53,364.77 -871.99,345.47 -1722.41,871.99 -1726.62,1068.88 -867.68,2411.03 -1291.83,4584.68 -77.68,398.01 -213.39,765.31 -306.02,1165.54 -55.58,240.25 -25.23,459.98 -86.56,685.87 -251.03,924.66 206.55,3124.89 1071.97,3860.4 345.1,293.33 328.62,410.97 874.97,583.77l1088.63 419.03c893.96,377.22 2415.25,-520.99 3078.97,-1044.02 1496.16,-1179.09 1153.13,-2688.15 1218.77,-4651.81 38.41,-1148.83 -187.57,-1750.62 442.53,-2553.49 871.22,-1110.1 2135.01,-1884.29 3046.63,-2791.11 210.85,-209.72 1191.9,-1213.29 1507.3,-1371.64l-22.97 -451.46c-451.55,3.4 -861.38,301.99 -1503.54,190.56 -1144.39,-198.49 -2220.25,-726.22 -2845.15,-1674.35z"/>
   <path class="fil3" d="M16795.82 3688.64c232,442.44 -803,921.81 -813.56,1531.66 315.9,-0.18 807.35,-292.29 948.9,-479.81l151.74 -351.99c71.98,-195.09 -15.72,187.34 42.85,-123.48 164.11,-870.53 -179.96,-1829.76 -713.95,-2449.9 -310.18,-360.19 -1027.8,-803.63 -1580.27,-807.03 -1064.9,-6.61 -1165.5,93.26 -1950.88,445.17 -402.58,180.36 -1225.06,659.95 -1487.96,913.38 -474.56,457.44 -19.75,909.08 507.72,1421.69 296.55,288.13 719.34,556.59 1093.71,694.29 791.49,291.21 1217.04,587.17 2457.1,292.57 935.17,-222.18 1088.36,-999.59 1344.6,-1086.55z"/>
   <path class="fil3" d="M6871.84 18474.42c1125.32,1005.51 4857.85,-101.42 5294.5,-2282.67 57.71,-288.4 97.84,-1261.03 17.85,-1554.77l-759.25 -1690.89c-246.54,-371.55 -152.42,-375.54 -383.51,-414.09 1.31,828.5 -4.17,1588.29 -177.92,2358.5 -251.62,1115.26 -1131.13,2421.5 -2186.33,2887.09 -328.26,144.86 -542.05,246.86 -877.69,392.26 -268.56,116.36 -710.1,174.52 -927.65,304.57z"/>
  </g>
 </g>
</svg>
