<svg xmlns="http://www.w3.org/2000/svg" xmlns:xlink="http://www.w3.org/1999/xlink"><symbol viewBox="0 0 24 24" id="icon-arrow-right" xmlns="http://www.w3.org/2000/svg"><path d="M12 4l-1.41 1.41L16.17 11H4v2h12.17l-5.58 5.59L12 20l8-8z"/></symbol><symbol viewBox="0 0 24 24" id="icon-check" xmlns="http://www.w3.org/2000/svg"><path fill="none" d="M9.999 13.587L7.7 11.292l-1.412 1.416 3.713 3.705 7.206-7.206-1.414-1.414z"/><path d="M12 2C6.486 2 2 6.486 2 12s4.486 10 10 10 10-4.486 10-10S17.514 2 12 2zm-1.999 14.413l-3.713-3.705L7.7 11.292l2.299 2.295 5.794-5.794 1.414 1.414-7.206 7.206z"/></symbol><symbol viewBox="0 0 24 24" id="icon-close" xmlns="http://www.w3.org/2000/svg"><path d="M6.707 18.707L12 13.414l5.293 5.293 1.414-1.414L13.414 12l5.293-5.293-1.414-1.414L12 10.586 6.707 5.293 5.293 6.707 10.586 12l-5.293 5.293z"/></symbol><symbol viewBox="0 0 1792 1792" id="icon-codepen" xmlns="http://www.w3.org/2000/svg"><path d="M216 1169l603 402v-359L485 989zm-62-144l193-129-193-129v258zm819 546l603-402-269-180-334 223v359zm-77-493l272-182-272-182-272 182zM485 803l334-223V221L216 623zm960 93l193 129V767zm-138-93l269-180-603-402v359zm485-180v546q0 41-34 64l-819 546q-21 13-43 13t-43-13L34 1233q-34-23-34-64V623q0-41 34-64L853 13q21-13 43-13t43 13l819 546q34 23 34 64z"/></symbol><symbol viewBox="0 0 24 24" id="icon-external" xmlns="http://www.w3.org/2000/svg"><path d="M16.793 5.793l-6.5 6.5 1.414 1.414 6.5-6.5L21 10V3h-7z"/><path d="M19 19H5V5h8l-2-2H5c-1.103 0-2 .897-2 2v14c0 1.103.897 2 2 2h14c1.103 0 2-.897 2-2v-6l-2-2v8z"/></symbol><symbol viewBox="0 0 24 24" id="icon-feed" xmlns="http://www.w3.org/2000/svg"><circle cx="6.18" cy="17.82" r="2.18"/><path d="M4 4.44v2.83c7.03 0 12.73 5.7 12.73 12.73h2.83c0-8.59-6.97-15.56-15.56-15.56zm0 5.66v2.83c3.9 0 7.07 3.17 7.07 7.07h2.83c0-5.47-4.43-9.9-9.9-9.9z"/></symbol><symbol viewBox="0 0 16 16" fill-rule="evenodd" clip-rule="evenodd" stroke-linejoin="round" stroke-miterlimit="1.414" id="icon-github" xmlns="http://www.w3.org/2000/svg"><path d="M8 0a8 8 0 00-8 8 8 8 0 005.47 7.59c.4.075.547-.172.547-.385 0-.19-.007-.693-.01-1.36-2.226.483-2.695-1.073-2.695-1.073-.364-.924-.89-1.17-.89-1.17-.725-.496.056-.486.056-.486.803.056 1.225.824 1.225.824.714 1.223 1.873.87 2.33.665.072-.517.278-.87.507-1.07-1.777-.2-3.644-.888-3.644-3.953 0-.873.31-1.587.823-2.147-.09-.202-.36-1.015.07-2.117 0 0 .67-.215 2.2.82a7.67 7.67 0 012-.27 7.67 7.67 0 012 .27c1.52-1.035 2.19-.82 2.19-.82.43 1.102.16 1.915.08 2.117a3.1 3.1 0 01.82 2.147c0 3.073-1.87 3.75-3.65 3.947.28.24.54.73.54 1.48 0 1.07-.01 1.93-.01 2.19 0 .21.14.46.55.38A7.972 7.972 0 0016 8a8 8 0 00-8-8"/></symbol><symbol viewBox="0 0 24 24" id="icon-heart" xmlns="http://www.w3.org/2000/svg"><path d="M16.5 3c-1.74 0-3.41.81-4.5 2.09C10.91 3.81 9.24 3 7.5 3 4.42 3 2 5.42 2 8.5c0 3.78 3.4 6.86 8.55 11.54L12 21.35l1.45-1.32C18.6 15.36 22 12.28 22 8.5 22 5.42 19.58 3 16.5 3zm-4.4 15.55l-.1.1-.1-.1C7.14 14.24 4 11.39 4 8.5 4 6.5 5.5 5 7.5 5c1.54 0 3.04.99 3.57 2.36h1.87C13.46 5.99 14.96 5 16.5 5c2 0 3.5 1.5 3.5 3.5 0 2.89-3.14 5.74-7.9 10.05z"/></symbol><symbol viewBox="0 0 24 24" id="icon-info" xmlns="http://www.w3.org/2000/svg"><path d="M12 2C6.486 2 2 6.486 2 12s4.486 10 10 10 10-4.486 10-10S17.514 2 12 2zm0 18c-4.411 0-8-3.589-8-8s3.589-8 8-8 8 3.589 8 8-3.589 8-8 8z"/><path d="M11 11h2v6h-2zm0-4h2v2h-2z"/></symbol><symbol viewBox="0 0 24 24" id="icon-keybase" xmlns="http://www.w3.org/2000/svg"><path d="M12.65 10A5.99 5.99 0 007 6c-3.31 0-6 2.69-6 6s2.69 6 6 6a5.99 5.99 0 005.65-4H17v4h4v-4h2v-4H12.65zM7 14c-1.1 0-2-.9-2-2s.9-2 2-2 2 .9 2 2-.9 2-2 2z"/></symbol><symbol viewBox="0 0 24 24" id="icon-lightbulb" xmlns="http://www.w3.org/2000/svg"><path d="M9 20h6v2H9zm7.906-6.288C17.936 12.506 19 11.259 19 9c0-3.859-3.141-7-7-7S5 5.141 5 9c0 2.285 1.067 3.528 2.101 4.73.358.418.729.851 1.084 1.349.144.206.38.996.591 1.921H8v2h8v-2h-.774c.213-.927.45-1.719.593-1.925.352-.503.726-.94 1.087-1.363zm-2.724.213c-.434.617-.796 2.075-1.006 3.075h-2.351c-.209-1.002-.572-2.463-1.011-3.08a20.502 20.502 0 00-1.196-1.492C7.644 11.294 7 10.544 7 9c0-2.757 2.243-5 5-5s5 2.243 5 5c0 1.521-.643 2.274-1.615 3.413-.373.438-.796.933-1.203 1.512z"/></symbol><symbol viewBox="0 0 24 24" id="icon-message" xmlns="http://www.w3.org/2000/svg"><path d="M20 2H4c-1.1 0-2 .9-2 2v18l4-4h14c1.1 0 2-.9 2-2V4c0-1.1-.9-2-2-2zm0 14H6l-2 2V4h16v12z"/></symbol><symbol viewBox="0 0 24 24" id="icon-notist" xmlns="http://www.w3.org/2000/svg"><path d="M22.736 13.947c-.291 0-.531.194-.871.485-.455.371-.982.837-1.533 1.16a2.09 2.09 0 01-.832.156c-.871 0-1.547-.483-1.547-1.741 0-1.982 1.354-4.401 1.354-6.627 0-1.838-1.064-3.048-3.723-3.048-2.855 0-5.71 2.371-6.581 3.435 0 0 .387-1.402.387-2.177 0-.822-.581-1.258-1.645-1.258-2.806 0-5.418.726-5.418 1.79 0 .629.339.726.339 1.548 0 2.612-2.032 9.143-2.032 10.933 0 .823.387 1.063 1.016 1.063.726 0 2.612-.24 4.063-.24.726 0 1.064-.194 1.064-1.017 0-1.886 1.257-5.998 2.08-7.644 1.064-2.128 2.225-2.95 3.048-2.95.677 0 1.113.58 1.113 1.354 0 1.887-1.549 3.82-1.549 6.772 0 2.08 1.694 3.724 4.452 3.724 2.824 0 4.805-1.615 5.889-2.894.477-.454.877-.896 1.168-1.277.289-.388.387-.726.387-.969 0-.287-.24-.578-.629-.578z"/></symbol><symbol viewBox="0 0 40 40" id="icon-offline" xmlns="http://www.w3.org/2000/svg"><path fill-rule="evenodd" clip-rule="evenodd" d="M36.664 11.157h-8.367l-.005 1.57 5.172.024.007 1.78-6.76.02-.004 3.195 3.36.01.014 3.582-2 .008-.013-1.777-1.36-.01-.02 5.755-1.573.03-.022 2.59-1.58.014-.02 1.567-1.777.027-.02 6.555 1.776.03.014 1.8h-3.57l-.03-4.98-1.57-.04-.017-1.54-1.567-.005-.02 1.542-1.59.044-.02 1.57-1.774.02-.01 1.573 1.772.02.005 1.792-3.568.01-.016-6.763-1.16-.038-.055-1.592-1.97-.014-.01-1.557-1.762-.02-.032-1.778-1.574-.023-.03-1.588-1.573-.036V14.36l1.765.005.015 3.36 1.567.03.033 1.57 1.762.02.03 1.78 2.98.005.02-1.755 1.57-.03.033-1.573 2.558-.018.047-1.59 2.55-.018.03-1.76 1.578-.045.02-10.744 1.595-.04.01-1.566 13.556-.016.038 1.57 1.56.02.013 7.596zM25.074 6.15l.008-1.786-1.78.008L23.3 6.15h1.776z"/></symbol><symbol viewBox="0 0 24 24" id="icon-question" xmlns="http://www.w3.org/2000/svg"><path d="M11 18h2v-2h-2v2zm1-16C6.48 2 2 6.48 2 12s4.48 10 10 10 10-4.48 10-10S17.52 2 12 2zm0 18c-4.41 0-8-3.59-8-8s3.59-8 8-8 8 3.59 8 8-3.59 8-8 8zm0-14c-2.21 0-4 1.79-4 4h2c0-1.1.9-2 2-2s2 .9 2 2c0 2-3 1.75-3 5h2c0-2.25 3-2.5 3-5 0-2.21-1.79-4-4-4z"/></symbol><symbol viewBox="0 0 24 24" id="icon-repost" xmlns="http://www.w3.org/2000/svg"><path d="M7 7h10v3l4-4-4-4v3H5v6h2V7zm10 10H7v-3l-4 4 4 4v-3h12v-6h-2v4z"/></symbol><symbol viewBox="0 0 24 24" id="icon-theme" xmlns="http://www.w3.org/2000/svg"><path d="M18 4V3c0-.55-.45-1-1-1H5c-.55 0-1 .45-1 1v4c0 .55.45 1 1 1h12c.55 0 1-.45 1-1V6h1v4H9v11c0 .55.45 1 1 1h2c.55 0 1-.45 1-1v-9h8V4h-3z"/></symbol><symbol viewBox="0 0 24 24" id="icon-twitter" xmlns="http://www.w3.org/2000/svg"><path d="M23.44 4.83c-.8.37-1.5.38-2.22.02.93-.56.98-.96 1.32-2.02-.88.52-1.86.9-2.9 1.1-.82-.88-2-1.43-3.3-1.43-2.5 0-4.55 2.04-4.55 4.54 0 .36.03.7.1 1.04-3.77-.2-7.12-2-9.36-4.75-.4.67-.6 1.45-.6 2.3 0 1.56.8 2.95 2 3.77-.74-.03-1.44-.23-2.05-.57v.06c0 2.2 1.56 4.03 3.64 4.44-.67.2-1.37.2-2.06.08a4.57 4.57 0 004.25 3.16A9.05 9.05 0 011 18.46c2 1.3 4.4 2.04 6.97 2.04 8.35 0 12.92-6.92 12.92-12.93 0-.2 0-.4-.02-.6.9-.63 1.96-1.22 2.56-2.14z"/></symbol><symbol viewBox="0 0 24 24" id="icon-warning" xmlns="http://www.w3.org/2000/svg"><path d="M12.884 2.532c-.346-.654-1.422-.654-1.768 0l-9 17A.999.999 0 003 21h18a.998.998 0 00.883-1.467L12.884 2.532zM13 18h-2v-2h2v2zm-2-4V9h2l.001 5H11z"/></symbol></svg>