<?xml version="1.0" encoding="UTF-8"?>
<!DOCTYPE svg PUBLIC "-//W3C//DTD SVG 1.1//EN" "http://www.w3.org/Graphics/SVG/1.1/DTD/svg11.dtd">
<!-- Creator: CorelDRAW 2017 -->
<svg xmlns="http://www.w3.org/2000/svg" xml:space="preserve" width="16.999mm" height="18.246mm" version="1.1" style="shape-rendering:geometricPrecision; text-rendering:geometricPrecision; image-rendering:optimizeQuality; fill-rule:evenodd; clip-rule:evenodd"
viewBox="0 0 1699.9 1824.6"
 xmlns:xlink="http://www.w3.org/1999/xlink">
 <defs>
  <style type="text/css">
   <![CDATA[
    .fil0 {fill:black}
   ]]>
  </style>
 </defs>
 <g id="Capa_x0020_1">
  <metadata id="CorelCorpID_0Corel-Layer"/>
  <path class="fil0" d="M75.26 1118.4c25.5,0 44.91,-12.94 57.6,-27.34 16.76,-19.02 16.87,-37.89 16.74,-71.75l-0.13 -392.98c0.03,-20.47 3.23,-24.11 3.77,-42.23 1.08,-36.08 -7.81,-77.98 10.5,-77.98 17.35,0 10.62,40.19 10.62,74.32l0 962.66c0,68.59 -14.86,193.74 22.16,239.74 14.72,18.29 36.16,27.59 58.41,29.24l14.59 0c41.71,-3.04 81.8,-31.82 81.8,-77.86l0 -697.22 35.39 0 0 690.14c0,51.6 38.13,80.96 78.72,84.94l19.03 0c20.12,-1.99 39.48,-10.36 53.7,-25.51 41.48,-44.19 25.51,-161.04 25.51,-236.39 0,-117.79 -3.54,-227.03 -3.54,-346.84 0,-233.58 0,-467.17 0,-700.76 11.88,8.7 15.79,26.03 23.64,40.07 8.98,16.04 14.97,26.52 23.55,43.69 16.18,32.36 98.46,200.64 116.5,216.19 30.51,26.29 66.84,23 97.28,-0.05 14.3,-10.82 26.3,-20.49 39.9,-30.88l172.93 -138.52c94.25,-74.28 -1.16,-190.8 -94.04,-115.28l-117.85 94.5c-10.6,8.33 -11.9,10.88 -24.78,17.69 -4.65,-19.95 -30.95,-64.91 -41.45,-89.5 -12.59,-29.51 -29.48,-59.28 -43.49,-87.46 -29.04,-58.41 -68.35,-109.71 -155.73,-109.71l-360.99 0c-49.68,0 -69.84,6.4 -103.91,23.5 -23.97,12.04 -35.92,26.04 -51.06,44.5 -50.16,61.18 -36.15,161.13 -36.15,261.14 0,43.65 -0.05,87.3 0,130.95 0.06,49.43 -9.69,218.45 -0.95,255.78 8.4,35.91 36.96,59.21 71.73,59.21zm1027.78 -459.13l-251.21 211.01c-58.45,36.4 -116.9,32.33 -175.37,-8.44l-5.96 962.74 1029.51 -11.54 -0.26 -1352.93 0 -417.62c0,-21.97 -17.19,-42.47 -38.42,-42.47l-528.28 0 -38.34 0.26 0.03 1.76c-2.39,-1.25 -4.87,-2.02 -7.27,-2.02l-382.23 0c-47.06,0 -31.85,94.81 -31.85,141.56 0,58.99 0,117.98 0,176.96 45.99,12.28 98.8,121.8 119.12,164.02 13.82,28.68 3.81,23.56 64.92,23.56 7.05,0 23.41,-15.23 29.42,-20.12 159.4,-100.77 282.21,-3.58 216.19,173.27zm456.63 390.3c38.19,0 69.15,31.68 69.15,70.75 0,39.07 -30.96,70.75 -69.15,70.75 -38.19,0 -69.15,-31.68 -69.15,-70.75 0,-39.07 30.96,-70.75 69.15,-70.75zm-236.15 -626.94l43.87 -6.02c1.2,28.29 6.45,47.64 15.82,58.13 9.38,10.41 22.45,15.66 39.05,15.66 12.21,0 22.79,-2.84 31.65,-8.43 8.85,-5.68 15.05,-13.33 18.4,-22.96 3.35,-9.64 4.99,-25.12 4.99,-46.27l0 -254.66 49.02 0 0 251.73c0,30.88 -3.7,54.79 -11.18,71.81 -7.48,16.95 -19.26,29.85 -35.52,38.79 -16.17,8.86 -35.17,13.33 -56.93,13.33 -32.43,0 -57.2,-9.29 -74.4,-27.95 -17.2,-18.66 -25.45,-46.35 -24.77,-83.16zm-1103.15 -284.59c0,69.62 24.71,121.46 90.93,149.74 14.59,6.22 42.95,12.86 60.94,12.39 46.26,-1.19 78.66,-19.21 103.87,-44.42 58.45,-58.45 58.88,-148.33 7.07,-207.09 -24.95,-28.29 -61.23,-44.67 -98.16,-48.64l-35.15 0c-17.96,1.97 -35.25,7.02 -50.56,15.23 -17.82,9.55 -23.92,16.54 -37.37,29.87 -21.26,21.06 -41.57,52.52 -41.57,92.92z"/>
 </g>
</svg>
