<!-- Generated by IcoMoon.io -->
<svg version="1.1" xmlns="http://www.w3.org/2000/svg" width="32" height="32" viewBox="0 0 32 32">
<title>sor-juana-ines-de-la-cruz</title>
<path fill="#000" stroke="#000" stroke-linejoin="miter" stroke-linecap="butt" stroke-miterlimit="4" stroke-width="0.5332" d="M29.333 16c0 7.364-5.97 13.333-13.333 13.333s-13.333-5.97-13.333-13.333c0-7.364 5.97-13.333 13.333-13.333s13.333 5.97 13.333 13.333z"></path>
<path fill="#000" stroke="#000" stroke-linejoin="miter" stroke-linecap="butt" stroke-miterlimit="4" stroke-width="0.5332" d="M28.746 16c0 7.039-5.707 12.746-12.746 12.746s-12.746-5.707-12.746-12.746c0-7.039 5.707-12.746 12.746-12.746s12.746 5.707 12.746 12.746z"></path>
<path fill="#fff" d="M3.946 20.038c0.35-0.986 0.581-1.653 1.106-2.484 0.51-0.809 0.907-1.477 1.448-2.151 1.378-1.717 2.052-2.478 2.451-4.745 0.364-2.066 0.875-3.899 1.94-5.25 1.086-1.379 3.243-2.105 4.992-2.16-2.273-0.064-4.326 0.633-5.984 1.518-3.248 1.733-5.666 5-6.404 8.674-0.341 1.694-0.342 3.46 0.013 5.149 0.053 0.254 0.252 1.241 0.439 1.451zM15.463 22.98c0.205 0.13-0.023 0.128 0.535 0.346 0.192 0.075 0.421 0.154 0.429 0.369-0.499 0.061-1.020-0.252-0.964-0.716zM22.919 14.374c0.159-0.306 0.73-0.6 0.464-1.199-0.357 0.055-0.222 0.365-0.408 0.688-0.383 0.078-0.921-0.072-1.243 0.062 0.059 0.105 0.060 0.114 0.184 0.165l0.194 0.067c0.007-0.011 0.026 0.009 0.038 0.018-0.465 0.913 0.719 2.99 0.646 4.34l0.34 0.049c0.111-0.215 0.259-0.761 0.362-1.028 0.123-0.32 0.265-0.65 0.385-1.015 0.307-0.934 0.34-1.33 0.222-2.371-0.512 0.119-0.512 0.287-1.183 0.224zM22.69 12.068c0.161 0.328 0.985 0.511 1.382 0.358 0.143-0.822-1.013-0.577-1.382-0.358zM16.191 13.366c0.906-0.518 2.84-1.044 3.002 0.517l-0.694-0.012c-0.026-0.316 0.221-0.237 0.041-0.537-0.087-0.145-0.224-0.247-0.442-0.258-0.085 0.291-0.133 0.724-0.379 0.827-0.413 0.173-0.588-0.159-1.018-0.028 0.088 0.367 0.324 0.106 0.457 0.45-0.517 0.237-0.905-0.476-1.174-0.8l0.206-0.16zM15.893 11.934c0.272-0.495 1.232-0.63 1.98-0.531 0.709 0.094 1.37 0.339 1.909 0.632 0.231 0.125 0.238 0.107 0.268 0.374 0.059 0.517 0.082 1.292-0.704 1.014-0.254-0.090-0.599-0.446-0.724-0.576-0.34-0.352-0.457-0.235-0.814-0.422 0.654-0.387 1.442 0.341 1.807 0.15-0.18-0.144-1.381-0.524-1.704-0.612-0.863-0.235-1.176-0.225-2.018-0.030zM14.484 8.248c0.371 0.211 0.999 0.383 1.21 0.728-0.409 0.273-0.563 0.342-0.811 0.831-0.112 0.22-0.42 0.904-0.557 0.999-0.018-0.565-0.003-0.893-0.102-1.454-0.085-0.482-0.186-0.866-0.174-1.386 0.17 0.083 0.244 0.172 0.434 0.281zM23.142 8.119c0.098-0.255 0.242-0.439 0.331-0.702 0.406 0.012 0.47 0.138 0.599 0.414 0.053-0.075 0.053 0.076 0.040-0.141-0.003-0.042-0.026-0.089-0.054-0.134-0.124-0.194-0.447-0.412-0.675-0.472-0.373 0.713-0.731 1.077-1.465 1.425-1.861 0.883-5.11 0.378-6.991-0.357-0.463-0.181-0.827-0.413-1.228-0.577-0.257 2.639-0.65 5.702-0.228 8.375 0.069 0.439 0.143 0.834 0.255 1.249 0.082 0.3 0.342 0.889 0.291 1.088-0.335-0.117-0.001-0.384-0.424-0.474-0.125 1.717 0.597 1.995 0.553 2.403-0.281 0.008-0.14-0.097-0.422-0.126 0.034 0.372 0.172 0.67 0.171 1.131-0.001 0.964-0.168 1.535-0.584 2.357-0.262 0.518-0.973 1.573-0.999 1.642 0.712 0.461 0.972 0.26 2.070 1.473l0.492 0.611c0.004-0.009 0.019 0.016 0.029 0.024 0.216-0.264 0.41-0.583 0.621-0.885 0.222-0.318 0.397-0.559 0.65-0.848 0.928-1.061 1.427-1.010 1.659-1.323-0.066-0.294-0.197-0.115-0.308-0.466 0.313 0.085 0.881 0.224 1.15-0.034-0.286-0.224-0.578 0.041-0.914-0.164 0.272-0.661 3.187 0.209 3.588-0.486-0.097-0.391-0.455-0.302-0.837-0.22-0.92 0.197-1.638 0.179-2.499-0.151 0.022-0.236 0.235-0.084 0.027-0.215-0.166-0.104-0.436-0.163-0.981-0.525-1.208-0.802-2.196-2.204-2.172-3.843 0.181 0.026 0.199 0.067 0.403 0.059 0.078 0.425 0.241 1.028 0.614 1.248 0.166 0.098 0.266 0.070 0.431 0.201l-0.121 0.384c0.434-0.078 0.334 0.057 0.696 0.152l-0.153 0.17c-0.087 0.139-0.048 0.010-0.062 0.205 0.191 0.096 0.258 0.1 0.448 0.001-0.054 0.363 0.049 0.484 0.14 0.8 0.068 0.235 0.098 0.216 0.621 0.426 0.994 0.399 2.592 0.52 3.424-0.049 0.22-0.151 0.3-0.404 0.376-0.676 0.082-0.289 0.246-0.591 0.291-0.764-0.473-0.269-1.12-0.214-1.704-0.214 0.084-0.507 0.754-0.435 1.094-0.736-0.536-0.359-1.578-0.055-2.341-0.2l-0.406-0.15c0.361-0.209 1.959-0.502 2.553-0.505 0.302-0.001 0.644 0.104 0.876 0.090-0.020-0.277-0.147-0.429-0.386-0.526-0.427-0.173-0.448-0.017-0.744 0.089-0.114-0.312-0.066-0.687-0.252-0.898-0.244-0.094-0.65 0.026-0.956-0.084-0.274-0.099-0.353-0.321-0.31-0.646 0.158 0.048 0.228 0.309 0.491 0.369 0.351 0.079 0.374-0.164 0.481-0.392 0.817 0.016 0.122 0.883 1.744 0.103-0.024-0.181-0.22-0.576-0.295-0.798-0.417-1.226-0.818-3.261 0.357-4.19 0.543-0.429 0.933-0.348 1.688-0.41 0.289-0.586 0.38-0.768 0.346-1.601-0.022-0.526-0.116-1.239-0.384-1.569-0.256-0.087-0.475-0.014-0.704 0.063zM15.371 28.738c1.958 0.083 3.569-0.229 5.203-0.834 0.695-0.257 1.428-0.629 2.012-0.98 0.293-0.176 1.579-0.999 1.714-1.323-0.189-0.092-0.331-0.233-0.535-0.362-1.488-0.94-3.462-1.055-5.056-0.399-1.563 0.643-2.864 2.406-3.339 3.898zM21.861 4.663c0.108 0.147 0.359 0.289 0.496 0.393 0.179 0.135 0.303 0.25 0.456 0.393 2.347 2.195 1.843 3.701 2.278 6.071 0.552 3.008 1.755 4.88 0.574 8.343-0.298 0.874-0.688 1.538-1.025 2.326-0.112 0.263 0.007 0.343 0.128 0.597l0.759 1.67c0.534-0.523 1.121-1.381 1.571-2.159 2.615-4.523 2.107-10.181-1.117-14.273-0.58-0.735-1.14-1.275-1.854-1.892-0.348-0.3-1.743-1.328-2.266-1.468zM22.236 19.956c0.069-0.072 0.323-0.505 0.321-0.633-0.007-0.306-0.338-0.329-0.598-0.282-0.020 0.464-0.102 0.371-0.22 0.633 0.16 0.194 0.206 0.22 0.498 0.282zM23.474 12.812c-0.089-0.392-0.954-0.237-1.142-0.089 0.396 0.113 0.747 0.031 1.142 0.089z"></path>
<path fill="#093" d="M21.86 4.705c0.108 0.147 0.359 0.289 0.496 0.393 0.179 0.135 0.303 0.25 0.456 0.393 2.346 2.195 1.842 3.701 2.277 6.071 0.552 3.008 1.755 4.88 0.574 8.343-0.298 0.874-0.688 1.538-1.025 2.326-0.112 0.263 0.007 0.343 0.128 0.597l0.759 1.67c0.534-0.523 1.121-1.381 1.571-2.159 2.615-4.523 2.107-10.181-1.117-14.273-0.58-0.736-1.14-1.275-1.854-1.892-0.348-0.301-1.743-1.328-2.266-1.468z"></path>
<path fill="#093" d="M3.944 20.080c0.35-0.986 0.581-1.653 1.106-2.484 0.51-0.809 0.907-1.477 1.448-2.152 1.378-1.717 2.052-2.478 2.451-4.745 0.364-2.066 0.875-3.899 1.94-5.25 1.086-1.379 3.243-2.105 4.992-2.161-2.273-0.063-4.326 0.633-5.984 1.518-3.248 1.733-5.666 4.999-6.404 8.673-0.341 1.694-0.342 3.46 0.013 5.15 0.053 0.254 0.252 1.241 0.439 1.45z"></path>
</svg>
