<!-- Generated by IcoMoon.io -->
<svg version="1.1" xmlns="http://www.w3.org/2000/svg" width="32" height="32" viewBox="0 0 32 32">
<title>lamp-2</title>
<path d="M10.943 23.102c-0.237-0.010-2.198 1.094-2.253 1.239-0.061 0.159 0.012 0.304 0.15 0.339 0.189 0.047 1.12-0.537 1.34-0.658 0.894-0.492 1.141-0.546 0.763-0.919z"></path>
<path d="M15.657 2.9l0.829-0.070-0.008 9.564c-0.315-0.122-0.597-0.134-0.833 0.011l0.011-9.504z"></path>
<path d="M13.094 22.501c2.641 2.477 5.957 0.518 6.208-0.131l-1.549 0.007c-0.279 0.014-0.463 0.003-0.757 0.017-0.918 0.040-2.265-0.004-3.139 0.040-0.283 0.014-0.657-0.022-0.763 0.067z"></path>
<path d="M16.69 26.46c-0.533-0.078-0.398 0.46-0.406 1.34-0.009 1.050-0.154 1.446 0.401 1.356 0.188-0.283 0.11-0.931 0.115-1.352 0.003-0.453 0.079-1.103-0.109-1.344z"></path>
<path d="M20.285 27.082c0.074 0.132 0.622 1.412 0.908 0.819 0.102-0.213-0.493-1.111-0.622-1.343-0.482-0.859-0.508-1.111-0.93-0.88-0.052 0.304 0.134 0.527 0.27 0.756 0.128 0.216 0.255 0.435 0.374 0.648z"></path>
<path d="M24.477 24.518c-0.040-0.192-1.032-0.698-1.238-0.824-0.183-0.111-0.808-0.557-1.013-0.487-0.103 0.034-0.197 0.146-0.168 0.308 0.026 0.149 0.977 0.648 1.236 0.802 0.187 0.112 1.33 0.912 1.183 0.202z"></path>
<path d="M13.443 25.974c0.185-0.34-0.139-0.606-0.386-0.353l-1.129 1.901c-0.2 0.384 0.18 0.567 0.386 0.342l0.771-1.283c0.126-0.2 0.255-0.417 0.358-0.608z"></path>
<path d="M13.717 15.844c1.169-0.146 0.992-0.228 2.373-0.246 0.888-0.011 1.518 0.102 2.357 0.178-0.008-1.022-0.020-1.539-0.55-2.211-0.332-0.422-1.023-0.857-1.848-0.848-0.835 0.010-1.459 0.425-1.832 0.891-0.487 0.608-0.523 1.252-0.5 2.236z"></path>
<path d="M13.9 16.114c-0.075 0.216-0.349 0.206-0.934 0.688-0.597 0.492-1.113 1.075-1.556 1.73-0.592 0.878-1.449 2.76-1.519 3.606 0.422 0.075 1.122-0.021 1.596-0.005 0.268 0.009 0.524-0.019 0.793-0.009l9.483-0.165c0.248 0.010 0.498-0.005 0.737-0.025-0.622-2.154-1.698-4.397-4.214-5.823-0.015-0.017-0.025-0.042-0.033-0.072-1.616-0.179-2.742-0.176-4.353 0.077z"></path>
</svg>
