<!-- Generated by IcoMoon.io -->
<svg version="1.1" xmlns="http://www.w3.org/2000/svg" width="32" height="32" viewBox="0 0 32 32">
<title>lamp-3</title>
<path d="M10.996 26.99c-0.671 0.434-1.277 1.345-1.307 2.113h12.846c0.002-0.532-0.433-1.329-0.795-1.682-0.988-0.961-1.572-0.748-3.299-0.748-1.331 0-6.563-0.254-7.445 0.317z"></path>
<path d="M22.337 21.125c0.198 0.701 0.516 0.928 1.169 0.639 0.64-0.283 0.748-0.707 0.298-1.305l-1.466 0.666z"></path>
<path d="M18.65 9.175c-2.487-2.333-5.609-0.488-5.845 0.123l1.459-0.006c0.261-0.013 0.436-0.003 0.713-0.016 0.864-0.038 2.132 0.004 2.955-0.038 0.267-0.013 0.619 0.021 0.718-0.063z"></path>
<path d="M15.265 5.446c0.501 0.074 0.374-0.432 0.381-1.261 0.009-0.989 0.145-1.362-0.377-1.277-0.177 0.267-0.104 0.877-0.108 1.273-0.003 0.427-0.074 1.039 0.103 1.265z"></path>
<path d="M11.878 4.862c-0.069-0.124-0.585-1.33-0.855-0.771-0.097 0.2 0.464 1.047 0.585 1.264 0.454 0.809 0.478 1.047 0.876 0.83 0.049-0.286-0.126-0.496-0.255-0.712-0.121-0.203-0.241-0.409-0.352-0.611z"></path>
<path d="M7.932 7.276c0.038 0.18 0.972 0.658 1.165 0.776 0.173 0.105 0.761 0.524 0.954 0.459 0.098-0.032 0.185-0.137 0.158-0.289-0.025-0.14-0.92-0.611-1.163-0.755-0.177-0.105-1.253-0.859-1.114-0.191z"></path>
<path d="M18.322 5.906c-0.173 0.319 0.131 0.57 0.364 0.332l1.062-1.791c0.189-0.361-0.17-0.533-0.363-0.321l-0.725 1.207c-0.119 0.188-0.24 0.393-0.338 0.573z"></path>
<path d="M20.676 8.609c0.223 0.010 2.069-1.030 2.122-1.166 0.058-0.15-0.012-0.286-0.143-0.319-0.177-0.044-1.053 0.505-1.26 0.619-0.841 0.465-1.075 0.515-0.718 0.866z"></path>
<path d="M18.063 15.445c-1.1 0.137-0.934 0.214-2.235 0.231-0.836 0.011-1.43-0.096-2.22-0.167 0.008 0.962 0.019 1.449 0.518 2.082 0.312 0.397 0.963 0.808 1.74 0.798 0.785-0.010 1.375-0.401 1.725-0.839 0.459-0.573 0.493-1.18 0.471-2.105z"></path>
<path d="M17.891 15.19c0.071-0.203 0.329-0.193 0.88-0.648 0.563-0.463 1.048-1.011 1.465-1.629 0.557-0.826 1.364-2.599 1.43-3.395-0.397-0.071-1.056 0.019-1.502 0.004-0.253-0.008-0.494 0.019-0.748 0.010l-8.929 0.155c-0.234-0.009-0.469 0.005-0.694 0.024 0.585 2.028 1.599 4.141 3.969 5.483 0.013 0.016 0.023 0.040 0.031 0.069 1.521 0.168 2.583 0.164 4.099-0.073z"></path>
<path d="M16.233 27.675l-0.78 0.066 0.007-9.006c0.297 0.115 0.563 0.127 0.784-0.011l-0.010 8.951z"></path>
<path d="M19.826 13.043l-0.413 0.185 0.065 0.169 3.124 6.893 0.492 1.090 0.425-0.179z"></path>
</svg>
