<!-- Generated by IcoMoon.io -->
<svg version="1.1" xmlns="http://www.w3.org/2000/svg" width="32" height="32" viewBox="0 0 32 32">
<title>lamp-circle</title>
<path fill="none" stroke="#373435" stroke-linejoin="miter" stroke-linecap="butt" stroke-miterlimit="4" stroke-width="0.6299" d="M29.332 16c0 7.364-5.969 13.333-13.332 13.333s-13.332-5.969-13.332-13.333c0-7.364 5.969-13.333 13.332-13.333s13.332 5.969 13.332 13.333z"></path>
<path d="M5.486 15.425c0.681-0.229 1.070 0.9 0.297 1.119-0.683 0.194-1.106-0.848-0.297-1.119zM14.517 14.493c0.076 0.161 0.153 0.297 0.227 0.399 0.299-0.178 0.678-0.61 0.978-0.854 0.169-0.138 0.312-0.291 0.483-0.429l5.74-5.161c0.158-0.127 0.303-0.27 0.439-0.409-1.283-0.831-2.796-1.53-4.609-1.461-0.486-0.019-0.995 0.018-1.529 0.126-0.009-0.002-0.019-0.005-0.030-0.010 0.126-0.087 0.255-0.178 0.392-0.276-0.55-0.624-0.833-0.935-1.517-1.066-0.429-0.082-1.086 0.019-1.588 0.465-0.507 0.452-0.669 1.040-0.65 1.525 0.025 0.613 0.326 1.021 0.831 1.581l-0.033 0.040c0.067 0.167-0.101 0.302-0.2 0.888-0.101 0.599-0.106 1.21-0.031 1.826 0.101 0.824 0.561 2.38 0.955 2.917 0.046-0.028 0.095-0.061 0.144-0.1zM15.906 14.924c-0.151 0.121-0.766 1.845-0.723 1.963 0.048 0.131 0.17 0.18 0.273 0.128 0.141-0.072 0.402-0.927 0.472-1.119 0.287-0.779 0.41-0.945-0.022-0.973zM18.975 15.355c-0.068-0.307-0.41-0.299-0.426-0.011l0.322 1.771c0.082 0.342 0.413 0.252 0.42 0.004l-0.211-1.2c-0.029-0.19-0.066-0.392-0.104-0.564zM24.979 8.572c-0.126-0.096-1.007 0.122-1.201 0.154-0.171 0.030-0.793 0.090-0.882 0.241-0.045 0.076-0.043 0.194 0.061 0.278 0.095 0.078 0.947-0.123 1.187-0.166 0.175-0.031 1.304-0.15 0.835-0.508zM23.771 12.385c0.115 0.042 1.136 0.535 0.995 0.019-0.050-0.186-0.896-0.42-1.1-0.494-0.755-0.27-0.905-0.411-1.042-0.044 0.131 0.214 0.365 0.252 0.57 0.319 0.194 0.064 0.389 0.132 0.576 0.2zM21.23 13.922c-0.369 0.236 0.001 0.495 0.466 1.039 0.555 0.651 0.677 0.972 0.97 0.62-0.037-0.274-0.429-0.631-0.651-0.892-0.24-0.281-0.541-0.72-0.785-0.768zM16.907 13.408c2.946 0.112 3.937-2.86 3.745-3.394l-0.948 0.831c-0.164 0.156-0.283 0.248-0.457 0.414-0.542 0.514-1.393 1.206-1.907 1.7-0.166 0.159-0.415 0.336-0.433 0.449zM4.53 15.472c-0.057 0.055-0.015-0.013-0.067 0.094-0.013 0.026-0.034 0.101-0.036 0.111-0.028 0.114-0.034 0.191-0.040 0.307-0.003 0.793 0.655 1.383 1.616 1.21l1.625 1.612c0.535 0.547 1.075 1.052 1.608 1.603l1.605 1.606c0.205 0.198 3.41 3.037 3.465 3.167-0.82 0.001-2.016-0.122-2.612 0.264-0.559 0.361-1.063 1.121-1.089 1.76h10.704c0.002-0.443-0.361-1.107-0.662-1.401-0.823-0.801-1.311-0.624-2.749-0.624-0.374 0-2.52 0.049-2.672-0.034-0.034-0.020-0.298-0.288-0.347-0.34l-7.636-7.298c-0.209-0.214-0.484-0.435-0.652-0.67 0.117-0.255 0.288-0.373 0.303-0.802 0.015-0.418-0.126-0.578-0.263-0.841 0.541-0.593 1.113-1.113 1.648-1.661l3.321-3.328c0.345-0.34 0.938-0.957 1.361-1.372-0.147-0.18-0.271-0.353-0.369-0.527-0.051 0.049-0.104 0.098-0.156 0.15l-1.294 1.292c-0.299 0.288-0.519 0.547-0.839 0.843-0.304 0.281-0.509 0.517-0.842 0.838l-3.383 3.373c-0.561-0.102-0.524-0.102-1.032 0.075-0.058 0.031-0.055 0.017-0.127 0.077-0.1 0.084-0.045 0.033-0.092 0.113-0.058 0.028-0.042 0.013-0.106 0.070-0.047 0.043-0.060 0.061-0.092 0.1-0.075 0.096-0.089 0.11-0.101 0.232z"></path>
</svg>
