<!-- Generated by IcoMoon.io -->
<svg version="1.1" xmlns="http://www.w3.org/2000/svg" width="32" height="32" viewBox="0 0 32 32">
<title>lamp-circle-2</title>
<path d="M15.543 4.618l0.963-0.023-0.009 3.108c-0.366-0.039-0.694-0.044-0.967 0.003l0.013-3.088z"></path>
<path d="M12.564 19.437c3.070 2.877 6.921 0.602 7.212-0.152l-1.799 0.008c-0.323 0.016-0.538 0.004-0.88 0.020-1.066 0.046-2.631-0.005-3.647 0.046-0.329 0.017-0.762-0.026-0.886 0.079z"></path>
<path d="M16.129 24.257c-0.62-0.092-0.463 0.534-0.472 1.555-0.011 1.22-0.179 1.681 0.466 1.576 0.218-0.328 0.128-1.081 0.132-1.571 0.005-0.526 0.093-1.281-0.126-1.56z"></path>
<path d="M20.305 24.978c0.086 0.154 0.723 1.641 1.056 0.951 0.119-0.246-0.572-1.291-0.723-1.56-0.56-0.998-0.59-1.291-1.080-1.023-0.061 0.354 0.156 0.613 0.314 0.879 0.15 0.251 0.296 0.505 0.433 0.753z"></path>
<path d="M25.175 22c-0.046-0.223-1.2-0.812-1.438-0.957-0.213-0.13-0.939-0.647-1.177-0.567-0.12 0.041-0.229 0.17-0.195 0.359 0.031 0.172 1.135 0.753 1.436 0.932 0.218 0.129 1.545 1.060 1.374 0.234z"></path>
<path d="M12.357 23.691c0.214-0.394-0.161-0.704-0.449-0.41l-1.311 2.21c-0.232 0.445 0.209 0.658 0.448 0.396l0.895-1.49c0.147-0.232 0.295-0.485 0.416-0.706z"></path>
<path d="M9.453 20.355c-0.276-0.012-2.554 1.271-2.619 1.439-0.071 0.185 0.015 0.353 0.175 0.394 0.22 0.054 1.301-0.624 1.556-0.764 1.038-0.573 1.325-0.634 0.887-1.069z"></path>
<path d="M13.289 11.702c1.358-0.169 1.152-0.265 2.757-0.286 1.032-0.013 1.764 0.119 2.739 0.207-0.010-1.188-0.024-1.788-0.639-2.569-0.386-0.489-1.188-0.996-2.146-0.984-0.969 0.012-1.696 0.494-2.129 1.035-0.565 0.706-0.608 1.455-0.581 2.597z"></path>
<path d="M13.501 12.017c-0.088 0.251-0.406 0.238-1.085 0.798-0.694 0.571-1.293 1.249-1.807 2.010-0.688 1.020-1.683 3.207-1.765 4.189 0.49 0.088 1.302-0.024 1.854-0.006 0.312 0.010 0.61-0.022 0.923-0.011l11.017-0.191c0.288 0.011 0.578-0.007 0.855-0.030-0.722-2.502-1.972-5.108-4.895-6.765-0.017-0.020-0.030-0.049-0.038-0.085-1.877-0.207-3.186-0.204-5.057 0.091z"></path>
<path fill="none" stroke="#373435" stroke-linejoin="miter" stroke-linecap="butt" stroke-miterlimit="4" stroke-width="0.6299" d="M29.341 16c0 7.369-5.973 13.342-13.341 13.342s-13.341-5.973-13.341-13.342c0-7.369 5.973-13.342 13.341-13.342s13.341 5.973 13.341 13.342z"></path>
</svg>
