<!-- Generated by IcoMoon.io -->
<svg version="1.1" xmlns="http://www.w3.org/2000/svg" width="32" height="32" viewBox="0 0 32 32">
<title>lamp-circle-3</title>
<path d="M22.45 22.643c0.217 0.767 0.566 1.016 1.28 0.699 0.7-0.31 0.819-0.774 0.325-1.428l-1.605 0.729z"></path>
<path d="M19.297 11.62c-2.725-2.553-6.142-0.534-6.401 0.135l1.597-0.007c0.287-0.014 0.477-0.004 0.781-0.017 0.946-0.041 2.335 0.004 3.237-0.042 0.292-0.015 0.677 0.024 0.787-0.070z"></path>
<path d="M15.588 7.537c0.55 0.080 0.411-0.474 0.419-1.381 0.009-1.083 0.159-1.492-0.413-1.399-0.194 0.292-0.115 0.961-0.118 1.394-0.004 0.467-0.082 1.138 0.112 1.386z"></path>
<path d="M11.882 6.897c-0.076-0.136-0.642-1.456-0.937-0.845-0.106 0.219 0.508 1.146 0.642 1.385 0.497 0.886 0.523 1.146 0.959 0.907 0.054-0.313-0.138-0.543-0.278-0.779-0.132-0.222-0.264-0.449-0.385-0.668z"></path>
<path d="M7.559 9.54c0.041 0.198 1.064 0.72 1.277 0.851 0.188 0.115 0.832 0.573 1.044 0.503 0.107-0.035 0.203-0.151 0.173-0.317-0.027-0.154-1.008-0.669-1.275-0.827-0.193-0.115-1.371-0.94-1.219-0.209z"></path>
<path d="M18.936 8.039c-0.189 0.35 0.143 0.626 0.399 0.364l1.163-1.961c0.206-0.396-0.186-0.584-0.398-0.352l-0.795 1.322c-0.13 0.206-0.263 0.43-0.369 0.627z"></path>
<path d="M21.514 11c0.245 0.010 2.267-1.128 2.324-1.277 0.063-0.165-0.013-0.314-0.156-0.349-0.194-0.049-1.154 0.553-1.381 0.678-0.921 0.508-1.176 0.563-0.787 0.948z"></path>
<path d="M18.654 18.485c-1.206 0.15-1.023 0.235-2.447 0.254-0.916 0.011-1.565-0.106-2.431-0.183 0.009 1.054 0.022 1.587 0.568 2.28 0.342 0.435 1.054 0.884 1.904 0.874 0.861-0.011 1.506-0.439 1.89-0.919 0.503-0.627 0.54-1.292 0.517-2.305z"></path>
<path d="M18.465 18.206c0.078-0.223 0.36-0.212 0.963-0.709 0.617-0.507 1.148-1.109 1.604-1.784 0.611-0.905 1.494-2.846 1.566-3.717-0.435-0.078-1.157 0.020-1.646 0.005-0.276-0.009-0.541 0.020-0.818 0.010l-9.779 0.169c-0.255-0.010-0.514 0.006-0.759 0.026 0.64 2.221 1.751 4.534 4.345 6.004 0.015 0.018 0.025 0.044 0.033 0.076 1.667 0.183 2.829 0.18 4.489-0.080z"></path>
<path d="M16.654 29.242l-0.855 0.073 0.003-7.226c0.326 0.125 0.618 0.139 0.86-0.011l-0.008 7.164z"></path>
<path d="M20.584 15.857l-0.453 0.202 0.072 0.185 2.968 6.55 0.465-0.196z"></path>
<path fill="none" stroke="#373435" stroke-linejoin="miter" stroke-linecap="butt" stroke-miterlimit="4" stroke-width="0.6299" d="M29.277 15.963c0 7.333-5.944 13.278-13.277 13.278s-13.277-5.945-13.277-13.278c0-7.333 5.944-13.278 13.277-13.278s13.277 5.945 13.277 13.278z"></path>
</svg>
