<?xml version="1.0" encoding="UTF-8"?>
<!DOCTYPE svg PUBLIC "-//W3C//DTD SVG 1.1//EN" "http://www.w3.org/Graphics/SVG/1.1/DTD/svg11.dtd">
<!-- Creator: CorelDRAW 2017 -->
<svg xmlns="http://www.w3.org/2000/svg" xml:space="preserve" width="109.83mm" height="109.21mm" version="1.1" style="shape-rendering:geometricPrecision; text-rendering:geometricPrecision; image-rendering:optimizeQuality; fill-rule:evenodd; clip-rule:evenodd"
viewBox="0 0 10983 10921"
 xmlns:xlink="http://www.w3.org/1999/xlink">
 <defs>
  <style type="text/css">
   <![CDATA[
    .str0 {stroke:#EAC9B5;stroke-width:152.39;stroke-miterlimit:22.9256}
    .str1 {stroke:#161616;stroke-width:20;stroke-miterlimit:22.9256}
    .str2 {stroke:#B06066;stroke-width:20;stroke-miterlimit:22.9256}
    .fil9 {fill:none}
    .fil3 {fill:black}
    .fil5 {fill:#161616}
    .fil6 {fill:#6E4245}
    .fil2 {fill:#887568}
    .fil8 {fill:#B06066}
    .fil7 {fill:#C8977F}
    .fil4 {fill:#E1E1E1}
    .fil1 {fill:#E1E1E1}
    .fil0 {fill:#EAC9B5}
   ]]>
  </style>
 </defs>
 <g id="Capa_x0020_1">
  <metadata id="CorelCorpID_0Corel-Layer"/>
  <g id="_2651477652640">
   <path class="fil0" d="M7222.1 9094.75c139.7,-75.26 533.88,30.22 656.37,165.6 131.31,24.44 157.94,10.4 166.69,11.79l97.57 29.86c7.11,2.79 22.13,13.49 33.25,20.06 -114.4,257.09 21.16,-215.14 -106.75,102.85 -9.3,162.5 76.54,122.5 40.5,352.42 -12.77,5.35 -32.29,0.73 -38.73,15.02l-294.23 -24.08c-465.73,-24.44 -824.29,80.98 -1234.57,86.44 2.38,-238.18 63.11,-249.85 226.39,-335.45 101.34,-153.07 247.43,-199.15 399.04,-270.95l-0.18 -55.99c-198.19,61.77 -378.73,154.97 -528.59,254.36l-488.64 314.36c-11.49,6.99 -29.72,17.38 -44.68,25.83 136.47,-270.83 789.99,-603.78 1116.56,-692.12zm71.74 -7075.75c43.1,210.1 22.31,82.56 152.46,246.27 102.38,128.88 25.89,125.11 194.78,195.2l120.98 248.03 86.93 -190.65c35.56,222.87 -6.45,325.92 -124.92,451.26 -187.3,-74.64 -606.59,-672.72 -666.23,-728.83 -82.01,-77.08 -95.02,-50.09 -176.36,-130.82 -43.71,-43.41 -244.32,-324.39 -428.46,-448.15 -164.5,-110.59 -5.95,-15.93 -130.94,-55.27 -299.83,-131.13 -906.35,-294.59 -1265.57,-125.89 -320.13,150.27 -359.58,818.43 -369.67,1173.89l801.6 91.3c217.45,54.29 139.21,6.32 172.9,115.32l159.93 -0.24c-82,103.1 -77.08,114.23 -241.04,128.39 190.46,17.75 360.44,1.1 546.28,-8.15 269,-13.43 475.57,-45.04 557.22,92.23l255.56 136.35c-774.18,243.05 -386.32,166.82 -745.79,1.34 -110.45,-50.88 -159.4,-36.47 -290.89,-139.81 -392.47,31.18 -857.47,35.62 -1164.1,227.17 -579.84,850.05 -475.69,3130.05 -314.24,4197.38 106.58,704.21 237.15,1298.26 524.03,1848.93 208.58,400.37 812.79,1124.65 942.46,1444.6 389.79,70.08 765.43,106.19 1156.81,121.02 212.17,8.02 239.82,28.41 467.25,-20.24 199.22,-42.55 325.65,-108.94 527.06,-152.27 101.83,-136.61 569.56,-360.45 763.06,-410.42 150.71,-37.99 61.52,14.84 172.53,-104.26 124.8,-76.17 81.64,-23.65 128.02,-132.21 59.77,-350.96 681.36,-903.49 898.93,-1813.49l274.59 -865.92c35.46,-136.42 61.66,-333.87 89.62,-477.95 228.46,-1178.38 466.52,-1782.95 -319.39,-2793.81 -9.68,-12.4 -55.76,-68.94 -70.96,-86.14 -7.9,-8.93 -67.29,-70.88 -74.71,-78.42 -34.59,-35.38 -81.46,-82.98 -129.37,-124.32 -87.23,-75.45 -162.06,-31.86 -80.61,-101.89 -189.12,-243.47 -198.91,-176.84 -477.94,-197.15l-218.43 -64.43c438.99,-47.61 428.22,5.53 785.37,90.46 19.21,-406.04 -58.48,-720.94 -21.33,-790.79 -329.44,-162.38 -186.52,-300.8 -553.21,-369.98 -128.15,102.73 -221.58,164.08 -335.51,303.89l-239.77 278.86c-58.97,57.76 -27.84,43.66 -87.23,69.19 -96.35,187.97 -250.76,103.46 -434.6,56.77 121.41,-505.42 6.56,-391.81 47.35,-611.75 2.01,-11 12.34,-27.6 14.65,-36.05 2.31,-8.32 11.32,-23.1 18.86,-33.43 22,-30.7 58.05,-21.4 98.42,-50.4l39.39 73.25c80.73,94.6 45.83,53.99 82.37,117.88l60.43 112.95c5.47,9.73 15.26,26.87 23.71,39.82l621.47 -890.24 201.77 -20.12c0,-131.55 31.98,-96.96 -102.68,-96.96 -42.79,55.87 62.38,67.36 -13.37,-37.93l-296.6 -316.13 31.92 -160.42c-703.79,-463.72 -1137.55,-814.13 -2022.25,-1040.34 -286.87,-73.37 -661.79,-43.46 -896.5,-143.94l-474.79 0 -87.05 52.39c-246.39,83.22 -225.78,-24.67 -863,211.92 -1145.69,425.43 -2323.22,1002.22 -2992.12,2005.53 -84.01,126.02 -62.55,77.33 -142.5,165.29 -355.87,391.62 -823,1614.09 -783.85,2248.7l47.73 10.45c132.94,-189.3 233.63,-1007.5 345.54,-1313.53 117.33,-320.97 444.21,-800.32 624.51,-1001.24l302.8 -335.39c732.98,-916.99 1796.9,-1281.79 2943.07,-1544.24 1135.65,-280.8 1098.45,118.79 1396.51,425.73 23.04,23.71 83.29,73.62 105.29,99.21l341.05 431.14c123.28,189.43 149.29,132.58 254.72,258.73 146.44,175.21 3.58,110.09 256.05,272.77zm429 112.95c-98.18,-165.66 -62.68,-87.18 -160.3,-189.85 -104.63,-109.98 -48.15,-102.44 -147.3,-177.76 46.32,-124.07 -133.43,-133.61 102.92,-85.47l235.2 369.49 -30.52 83.59zm1994.71 2143.89c-52.41,110.64 -60.55,90.39 46.2,37.75 144.62,-24.74 103.41,43.34 112.04,115.21 -50.94,99.39 -75.94,93.55 32.46,52.57 126.45,32.65 35.62,-55.19 64.74,86.7l-287.35 2497.21 -53.87 235.93c11.8,114.4 -45.77,1020.75 -106.27,1119.24 -74.16,120.73 1.64,55.01 -128.26,90.39 -105,-51.42 -90.46,-61.94 -35.32,39.46 25.22,137.09 5.23,113.56 -93.32,128.7 -27.6,133.25 58.54,25.77 -45.9,106.32 -60.79,46.81 -75.68,35.74 -158.97,46.69 -29.18,36.73 94.84,47.91 -153.92,56.78 -169.25,6.03 -326.82,-111.32 -478.19,-148.15 -1904.8,-464.14 -3600.71,1174.25 -3250.84,-2790.84 49.78,-564.69 137.07,-999.35 256.53,-1514.56 88.57,-381.78 77.14,-341.48 356.11,-520.63 149.62,-96.05 366.28,-259.39 561.73,-308.75 331.55,-83.78 1041.06,219.2 1406.36,303.82 968.9,224.51 777.71,113.45 1303.62,162.57 398.49,37.2 96.97,-34.95 229.12,95.56l205.3 9.54 -210.4 -117.02c267.23,-18.23 394.66,-16.71 428.4,215.51zm-189.67 -898.74c-128.69,102.61 -373.32,36.52 -707.74,76.71 175.93,-141.58 473.14,-119.15 707.74,-76.71zm-629.75 -459.17c-27.66,56.59 52.29,48.39 -41.7,83.35 424.08,-21.16 669.98,-18.55 868.17,275.51 -417.46,-76.48 -131.86,-367.55 -1089.51,-129.13 62.68,-175.33 45.96,-189.12 263.04,-229.73zm0 0l227.67 -146.88c146.69,-26.08 192.28,-8.26 298.61,39.89l-253.74 41.82c-138.19,26.81 -126.82,44.26 -272.54,65.17zm-846.4 196.84l-125.54 -15.5c-41.58,-82.07 -51.37,-26.68 -36.05,-161.7 0.54,-4.81 37.63,-118.55 45.05,-176.55 23.96,-186.44 -39.76,-204.43 46.21,-343.35 47.17,100.43 47.77,247 27.23,378.31 -51.86,330.53 -89.43,42.44 43.1,318.79zm-916.69 -506.57l32.59 168.93 101.59 121.65c-299.23,-72.58 -104.81,-24.68 -167.97,-97.51 -242.69,-29.18 -474.66,-189 -725.79,-286.7 -514.79,-200.25 -467.44,-10.34 -859.97,39.27 320.12,-445.23 1165.63,-39.15 1539.32,175.76l17.32 -118.6c-140.61,-35.57 -46.27,-1.89 -163.84,-114.84 -58.6,-56.3 -41.76,-30.95 -82.79,-74.96 -122.07,-130.83 -34.83,-8.94 -82.44,-122.31 217.75,112.53 212.83,226.93 391.98,309.31zm1175.78 -258.19c-6.81,-195.08 48.15,-283.96 168.09,-342.56l-168.09 342.56zm-1567.76 -51.12c-121.03,-49.24 -224.69,-112.29 -352.71,-162.98 -182.81,-72.35 -234.05,-41.71 -375.82,-170.95l605.13 201.34c152.15,95.93 84.07,62.92 123.4,132.59zm375.33 -922.65l290.34 254.06c-135.25,-45.12 -85.84,11.31 -202.01,-109.97 -47.29,-49.36 -58.42,-80.97 -88.33,-144.09zm-279.7 -896.98c-161.96,-20.01 -166.51,-49 -217.51,-190.03l217.51 190.03zm1518.03 2383.42l-59.88 -332.73 -67.6 18.11c9.42,226.88 -28.38,401.18 60.98,541.61 75.19,-82.86 89.47,170.35 66.5,-226.99zm-1672.99 210.21l-781.12 -2.12c131.49,103.34 180.44,88.93 290.89,139.81 359.47,165.48 -28.39,241.71 745.79,-1.34l-255.56 -136.35zm2635.63 -1245.63c55.93,142.5 177.09,225 272.66,402.14 91.48,169.61 105.77,349.32 169.24,557.22 -37.15,69.85 40.54,384.75 21.33,790.79 37.82,127.71 53.88,88.25 181.23,235.62l-270.23 -64.5c-81.45,70.03 -6.62,26.44 80.61,101.89 47.91,41.34 94.78,88.94 129.37,124.32 7.42,7.54 66.81,69.49 74.71,78.42 15.2,17.2 61.28,73.74 70.96,86.14 785.91,1010.86 547.85,1615.43 319.39,2793.81 -27.96,144.08 -54.16,341.53 -89.62,477.95l-274.59 865.92c-217.57,910 -839.16,1462.53 -898.93,1813.49 176.97,-144.21 330.05,-275.51 458.79,-497.29 117.83,-203.1 252.91,-402.99 358.26,-575.21 395.82,-687.32 1332.14,-3533.22 825.19,-4288.62 -794.31,-1183.43 -613.88,-762.45 -789.51,-1903.4 -136.84,-888.65 -971.75,-1423.92 -1019.59,-1610.13l-31.92 160.42 296.6 316.13c75.75,105.29 -29.42,93.8 13.37,37.93 134.66,0 102.68,-34.59 102.68,96.96z"/>
   <path class="fil1" d="M5306.12 5651.87l118.73 -26.27c182.19,-70.28 160.67,-90.82 228.45,-292.59 -14.46,-9.18 -57.51,-18.43 -62.98,-22.25 -121.58,-85.29 -61.04,53.93 -42.67,-57.26 559.16,-91.5 46.5,34.22 565.31,-462.45 113.25,-108.45 -9.61,57.2 97.19,-107.6 -184.93,-26.26 -176.17,0.37 -272.83,-132.41 -207.54,-89.48 -224.13,-163.59 -324.01,-366.99 -157.76,232.47 -125.72,501.23 -185,725.13 -58.6,221.64 -167.96,357.63 -122.19,742.69zm3218.82 393.08c579.46,2.55 498.97,-249.19 919.35,-408.77 8.39,-11.55 21.77,-42.85 26.2,-33.86l102.8 -120.06c106.56,-141.48 280.07,-397.89 295.76,-553.45 -194.61,140.24 -38.3,154.1 -167.18,164.25 -142.81,11.19 33.12,112.84 -77.15,-68.63l-150.71 -211.62c-121.27,24.01 -107.96,43.11 -226.14,27.54 -154.11,140.25 86.44,55.14 -103.1,50.83 -197.76,-4.44 -53.39,-47.06 -81.77,-75.45l-182.86 -26.68c-13.44,347.18 -60.31,236.72 -118.85,411.49 -75.56,225.48 6.93,210.35 44.8,443.24 -181.1,-149.3 -19.88,-132.29 -186.57,-188.64 -94.83,188.82 -19.45,235.33 33.08,444.63 -106.33,-76.17 -88.03,-116.35 -195.08,-156.05 -10.7,204.08 -19.76,121.71 67.42,301.23zm22.36 1449.83l10.46 29.42c156.67,174.59 243.59,280 266.57,604.99 145.36,-19.33 -28.32,-25.71 124.81,-28.44 130.94,-2.32 22.5,-45.91 106.62,41.46l304.7 -133.99 -130.46 -300.13 -369.62 16.42 78.67 -167.91 -204.57 -86.63c-114.41,-45.3 -71.3,-33.56 -187.06,-42.07l-0.12 66.88zm-3117.16 339.82c167.11,27.23 125.17,50.94 171.67,-33.32l-70.52 -27.96c163.6,-72.4 82.62,-28.75 127.49,-124.14 -94.72,-314.35 -121.71,-447.73 -430.53,-504.45 -14.53,250.22 40.42,186.15 52.7,293.39l-8.75 311.07c83.22,53.37 75.8,28.63 157.94,85.41z"/>
   <path class="fil2" d="M1588.63 6663.81c-35.01,119.4 14.53,44.31 -73.73,129.12 -253.39,243.53 -299.83,183.54 -86.02,1059.23 443.97,55.94 469.19,-309.24 712.67,215.02l267.35 -59.38c-87.18,-329.06 -134.84,-154.72 -312.84,-295.15 -126.01,-99.46 -9.6,-134.48 -233.44,-317.94 302.51,-19.64 164.99,5.28 276.37,311.37l157.93 -11.91c-69.12,-164.38 -98.54,-278.25 -162.55,-429.13 -96.6,-227.49 -145.6,-176.12 -350.41,-284.99l72.22 -209.3c-117.57,-92.29 -17.08,18.77 -67.29,-99.16 -72.28,-169.92 39.39,38.97 -20.5,-73.74l-179.76 65.96zm-1203.67 -270.77l98.36 199.52c28.94,-218.49 113.86,-394.66 432.29,-284.74 266.94,92.02 91.19,27.53 185.48,132.88l250.15 -855.46c-335.81,-143.72 -254.35,-156.11 -472.78,-264.7 -600.62,248.46 -227.54,798.33 -493.5,1072.5zm339.34 -1667.22c500.44,-20.91 578.37,146.33 999.29,277.09 -90.94,-502.87 -666.7,-589.56 -205.77,-2010.81 51.73,-159.39 243.95,-486.16 176.53,-581.05 -180.3,200.92 -507.18,680.27 -624.51,1001.24 -111.91,306.03 -212.6,1124.23 -345.54,1313.53z"/>
   <path class="fil2" d="M1200.18 6446.05c135.08,21.4 280.61,87.24 299.94,217.27l88.52 0.49c104.74,-168.64 8.02,-17.63 175.14,-139.7 298.67,-218.19 -18.3,-465.06 -107.12,-703.18l-35.68 -33.44c-126.57,-41.34 -41.52,-6.26 -194.05,-74.1l-226.75 732.66z"/>
   <path class="fil3" d="M7878.47 9260.35c-29.67,205.23 -75.93,96 0.24,168.09l190.52 -3.53c127.91,-317.99 -7.65,154.24 106.75,-102.85 -11.12,-6.57 -26.14,-17.27 -33.25,-20.06l-97.57 -29.86c-8.75,-1.39 -35.38,12.65 -166.69,-11.79zm-711.02 -68.03l107 -68.57 -52.35 -29c-326.57,88.34 -980.09,421.29 -1116.56,692.12 14.96,-8.45 33.19,-18.84 44.68,-25.83l488.64 -314.36c149.86,-99.39 330.4,-192.59 528.59,-254.36zm0.18 55.99c-151.61,71.8 -297.7,117.88 -399.04,270.95 101.34,27.55 168.63,-52.88 317.28,-84.25 100,-178.49 211.37,-164.81 227.97,-217.94 6.87,-22.07 24.13,-22.74 33.98,-39.46l-180.19 70.7zm-0.18 -55.99l0.18 55.99 180.19 -70.7c-9.85,16.72 -27.11,17.39 -33.98,39.46 -16.6,53.13 -127.97,39.45 -227.97,217.94l792.84 -6.57c-76.17,-72.09 -29.91,37.14 -0.24,-168.09 -122.49,-135.38 -516.67,-240.86 -656.37,-165.6l52.35 29 -107 68.57z"/>
   <path class="fil4" d="M5613.3 4184.04c99.89,203.41 116.48,277.52 324.02,367l148.34 9.67c184.93,-55.44 341.83,-114.41 545.42,69.36 1056.57,-67.84 1042.28,-160.36 2186.99,71.8 204.32,41.46 190.71,53.31 244.93,113.86l184.87 24.62c118.18,15.57 104.87,-3.52 226.15,-27.54l150.7 211.62c119.76,48.63 303.65,-321.83 283.53,-543.05 -108.39,40.97 -83.4,46.81 -32.46,-52.59l-112.04 -115.2c-106.75,52.65 -98.6,72.89 -46.2,-37.75 -164.38,-150.52 -30.76,-78.91 -218,-98.48l-205.3 -9.55c-775.76,-128.09 -964.46,-4.5 -2072.15,-342.07 -741.9,-226.15 -657.34,-270.04 -1290.55,73.55 -175.26,95.08 -265.11,125.97 -318.25,284.75zm472.36 376.67c195.8,164.02 372.23,129.37 545.42,69.36 -203.59,-183.77 -360.5,-124.8 -545.42,-69.36z"/>
   <path class="fil4" d="M5430.14 7834.6l-108.58 71.92c160.07,788.77 839.05,718.74 1681.87,704.15 1808.93,-31.25 1202.04,133.92 2060.3,221.34 12.22,-12.52 -11.85,-9.42 75.75,-75.93 77.26,-58.66 54.65,-38.48 129.12,-77.08 -38.06,-94.17 -66.99,-80 22.92,-80l70.4 -48.7c-55.14,-101.4 -69.67,-90.88 35.32,-39.45 89.85,-173.38 101.15,-360.86 -36.78,-502.63l-304.69 133.99c-304.08,186.5 -1356.21,-11.43 -1793.61,-28.46 -273.62,-10.63 -670.65,-4.8 -927.68,-39.27 -323.17,-43.34 -391.62,-263.35 -732.67,-273.2 -46.5,84.26 -4.56,60.55 -171.67,33.32z"/>
   <path class="fil5" d="M9063.73 8832.01c-858.26,-87.42 -251.37,-252.59 -2060.3,-221.34 -842.82,14.59 -1521.8,84.62 -1681.87,-704.15l108.58 -71.92c-82.13,-56.78 -74.72,-32.04 -157.94,-85.41l8.75 -311.08c-12.28,-107.23 -67.23,-43.16 -52.7,-293.38 308.82,56.72 335.81,190.1 430.53,504.45 -44.87,95.39 36.11,51.74 -127.48,124.14l70.51 27.96c341.05,9.85 409.5,229.86 732.67,273.2 257.03,34.47 654.06,28.64 927.68,39.27 437.4,17.03 1489.53,214.96 1793.61,28.46 -84.14,-87.36 24.31,-43.77 -106.63,-41.46 -153.14,2.73 20.55,9.11 -124.81,28.45 -22.98,-325 -109.91,-430.41 -266.57,-605.01l61.04 223.96c137.38,170.83 114.1,161.28 152.4,423.42l-1409.1 -112.35 -424.69 -35.92c-202.43,25.83 -439.52,10.03 -645.3,-28.88 -237.03,-44.8 -297.58,-156.72 -518.56,-228.15 -209.31,-385.36 -7.29,-590.78 -569.74,-702.21 51.06,-414.78 570.41,-431.56 788.71,-360.92 361.65,117.08 805.44,428.46 884.95,371.07 209.25,-151.25 602.94,-110.46 819.11,-58.05 313.44,75.99 507.68,272.04 680.14,397.15 35.63,-132.83 -46.44,-24.99 64.32,-137.57l-348.52 -110.95 11.31 -1042.34c-143.17,173.81 -77.03,688.47 -86.33,941.73 -473.14,-135.32 -104.13,-1130.06 -663.54,-1567.94 -543.78,-425.67 -1154.01,-231.5 -1670.93,13.68 100.92,-296.61 134.05,-85.54 314.36,-408.1 224.14,-400.92 389.13,-336.18 917.83,-422.99 537.89,-88.27 1486.3,-104.26 1908.57,139.46 -66.75,556.97 -747.87,1042.7 -298.86,1226.66 -87.17,-179.52 -78.12,-97.15 -67.42,-301.23 107.06,39.7 88.76,79.88 195.09,156.05 -52.53,-209.3 -127.91,-255.81 -33.08,-444.63 166.7,56.36 5.48,39.33 186.58,188.64 -37.88,-232.89 -120.37,-217.76 -44.81,-443.23 58.54,-174.78 105.41,-64.32 118.85,-411.5l182.86 26.68c-54.22,-60.55 -40.61,-72.4 -244.93,-113.86 -1144.71,-232.16 -1130.42,-139.64 -2186.99,-71.8 -173.19,60.01 -349.61,94.66 -545.42,-69.36l-148.34 -9.67c96.66,132.77 87.91,106.15 272.84,132.41 -106.81,164.81 16.05,-0.85 -97.21,107.6 -518.8,496.67 -6.14,370.95 -565.3,462.45 -18.36,111.18 -78.91,-28.03 42.67,57.26 5.48,3.83 48.52,13.07 62.99,22.25 -67.79,201.77 -46.27,222.32 -228.46,292.59l-124.62 148.15 5.89 -121.89c-45.77,-385.05 63.59,-521.04 122.19,-742.69 59.28,-223.9 27.24,-492.66 184.99,-725.13 53.14,-158.78 142.99,-189.67 318.25,-284.75 633.21,-343.59 548.65,-299.7 1290.55,-73.55 1107.69,337.57 1296.39,213.98 2072.15,342.07 -132.16,-130.52 169.37,-58.36 -229.12,-95.56 -525.91,-49.12 -334.72,61.94 -1303.62,-162.56 -365.3,-84.62 -1074.8,-387.61 -1406.36,-303.84 -195.45,49.37 -412.11,212.71 -561.72,308.76 -278.97,179.16 -267.54,138.85 -356.12,520.63 -119.45,515.21 -206.75,949.87 -256.54,1514.57 -349.86,3965.09 1346.05,2326.68 3250.85,2790.83 151.37,36.84 308.94,154.17 478.19,148.15 248.76,-8.87 124.74,-20.06 153.92,-56.78z"/>
   <path class="fil5" d="M4940.22 531.42c-77.95,107.61 -347.91,428.28 -460.74,476.62 -129.55,245.84 -235.51,300.85 -338.68,545.91 310.16,-36.24 536.8,-435.95 1062.65,-494.8 535.15,-59.87 925.62,272.23 1118.63,546.89 124.99,39.34 -33.56,-55.32 130.94,55.27 184.14,123.76 384.75,404.74 428.46,448.15 81.34,80.73 94.35,53.74 176.36,130.82 59.64,56.11 478.93,654.19 666.23,728.83 118.47,-125.34 160.48,-228.39 124.92,-451.26l-86.93 190.65 -120.98 -248.03c-168.89,-70.09 -92.4,-66.32 -194.78,-195.2 -130.15,-163.71 -109.36,-36.17 -152.46,-246.27 -252.47,-162.68 -109.61,-97.56 -256.05,-272.77 -105.43,-126.15 -131.44,-69.3 -254.72,-258.73l-341.05 -431.14c-22,-25.59 -82.25,-75.5 -105.29,-99.21 -298.06,-306.94 -260.86,-706.53 -1396.51,-425.73zm2161.03 2269.85c-7.24,1.4 -20.98,-5.46 -22.19,-1.03 -1.52,5.66 -13.67,-18.73 -15.5,-23.9 -2.98,-8.69 -4.44,-31.49 -8.75,-46.74 -373.69,-214.91 -1219.2,-620.99 -1539.32,-175.76 392.53,-49.61 345.18,-239.52 859.97,-39.27 251.13,97.7 483.1,257.52 725.79,286.7zm0 0l66.38 -24.14 -32.59 -168.93 -62.91 2.8 -17.32 118.6c4.31,15.25 5.77,38.05 8.75,46.74 1.83,5.17 13.98,29.56 15.5,23.9 1.21,-4.43 14.95,2.43 22.19,1.03zm1444.29 267.31l-101.16 -40.24c0,-335.88 16.61,-33.82 -87.66,-165.66 22.97,397.34 8.69,144.13 -66.5,226.99 -89.36,-140.43 -51.56,-314.73 -60.98,-541.61l-37.44 -103.94c-7.54,10.33 -16.55,25.11 -18.86,33.43 -2.31,8.45 -12.64,25.05 -14.65,36.05 -40.79,219.94 74.06,106.33 -47.35,611.75 183.84,46.69 338.25,131.2 434.6,-56.77zm-493.81 46.19c-132.53,-276.35 -94.96,11.74 -43.1,-318.79 20.54,-131.31 19.94,-277.88 -27.23,-378.31 -85.97,138.92 -22.25,156.91 -46.21,343.35 -7.42,58 -44.51,171.74 -45.05,176.55 -15.32,135.02 -5.53,79.63 36.05,161.7l125.54 15.5zm277.88 -647.8l-32.77 62.98 59.88 332.73c104.27,131.84 87.66,-170.22 87.66,165.66l101.16 40.24c59.39,-25.53 28.26,-11.43 87.23,-69.19l239.77 -278.86c113.93,-139.81 207.36,-201.16 335.51,-303.89 366.69,69.18 223.77,207.6 553.21,369.98 -63.47,-207.9 -77.76,-387.61 -169.24,-557.22 -95.57,-177.14 -216.73,-259.64 -272.66,-402.14l-201.77 20.12 -621.47 890.24c-8.45,-12.95 -18.24,-30.09 -23.71,-39.82l-60.43 -112.95c-36.54,-63.89 -1.64,-23.28 -82.37,-117.88zm490.53 986.84c334.42,-40.19 579.05,25.9 707.74,-76.71 -234.6,-42.44 -531.81,-64.87 -707.74,76.71zm77.99 -535.88c145.72,-20.91 134.35,-38.36 272.54,-65.17l253.74 -41.82c-106.33,-48.15 -151.92,-65.97 -298.61,-39.89l-227.67 146.88zm-1730.5 -140.8l-66.38 24.14c63.16,72.83 -131.26,24.93 167.97,97.51l-101.59 -121.65zm1730.5 140.8c-217.08,40.61 -200.36,54.4 -263.04,229.73 957.65,-238.42 672.05,52.65 1089.51,129.13 -198.19,-294.06 -444.09,-296.67 -868.17,-275.51 93.99,-34.96 14.04,-26.76 41.7,-83.35zm-1175.29 -785.98l30.52 -83.59 -235.2 -369.49c-236.35,-48.14 -56.6,-38.6 -102.92,85.47 99.15,75.32 42.67,67.78 147.3,177.76 97.62,102.67 62.12,24.19 160.3,189.85zm-650.71 479.05l62.91 -2.8c-179.15,-82.38 -174.23,-196.78 -391.98,-309.31 47.61,113.37 -39.63,-8.52 82.44,122.31 41.03,44.01 24.19,18.66 82.79,74.96 117.57,112.95 23.23,79.27 163.84,114.84zm1406.78 -603.55c-119.94,58.6 -174.9,147.48 -168.09,342.56l168.09 -342.56zm-1360.52 -631.21c29.91,63.12 41.04,94.73 88.33,144.09 116.17,121.28 66.76,64.85 202.01,109.97l-290.34 -254.06zm-1098.51 -1344.7c234.71,100.48 609.63,70.57 896.5,143.94 884.7,226.21 1318.46,576.62 2022.25,1040.34 47.84,186.21 882.75,721.48 1019.59,1610.13 175.63,1140.95 -4.8,719.97 789.51,1903.4 506.95,755.4 -429.37,3601.3 -825.19,4288.62 241.76,-93.25 365.3,-675.46 462.62,-920.94 52.16,-131.61 80.06,-201.95 125.36,-337.87 158.48,-475.7 278.25,-951.7 375.14,-1529.23 117.4,-699.17 176.48,-1064.64 -106.93,-1584 -120.61,-220.9 -210.64,-373.07 -347.85,-578.61 -665.98,-997.41 -54.9,-1286.66 -944.53,-2349.54 -87.23,-104.27 -119.14,-160.86 -205.29,-257.94 -340.55,-383.79 -651.02,-557.53 -1083.97,-820.45 -578.45,-351.32 -1506.55,-756.31 -2177.21,-607.85zm-5610.24 7772.06c-0.98,-324.63 -118.18,-128.7 -259.04,-611.22 -221.22,-757.76 99.77,-2062.77 353.33,-2212.39 51.37,-77.86 -47.36,-57.33 142.73,-132.28 155.57,-61.41 416.43,-11.74 570.9,46.33 137.57,51.73 509.63,226.2 621.11,287.35 -28.26,-142.01 49.56,-57.19 -115.08,-178.48 -420.92,-130.76 -498.85,-298 -999.29,-277.09l-47.73 -10.45c-39.15,-634.61 427.98,-1857.08 783.85,-2248.7 79.95,-87.96 58.49,-39.27 142.5,-165.29 668.9,-1003.31 1846.43,-1580.1 2992.12,-2005.53 637.22,-236.59 616.61,-128.7 863,-211.92l87.05 -52.39c-678.31,0 -877.17,165.22 -1378.95,353.86 -578.12,217.45 -302.67,32.89 -866.51,368.83l-783.67 503.05c-145.53,115.01 -301.29,294.47 -440.93,434.05 -868.95,869.03 -1305.62,1451.89 -1492.13,2779.96 -61.28,436.67 43.16,149.42 -261.71,613.2 -302.81,460.56 -407.61,1606.85 -244.93,2183.05 66.38,235.14 208.82,378.42 333.38,536.06zm8695.85 2286.87c-46.38,108.56 -3.22,56.04 -128.02,132.21 201.77,-65.16 452.96,-311.61 579.83,-482.87 89.85,-121.33 113.98,-187.83 195.08,-319.63 105.6,-171.69 152.47,-182.51 170.16,-402.21 -105.35,172.22 -240.43,372.11 -358.26,575.21 -128.74,221.78 -281.82,353.08 -458.79,497.29zm-1063.61 646.89c140.55,-12.58 450.17,-191.32 589.19,-276.85l173.87 -133.57c-193.5,49.97 -661.23,273.81 -763.06,410.42z"/>
   <path class="fil5" d="M1293.67 7680.13l70.34 242.74c510.35,76.78 466.58,-313.08 723.42,199.03l488.89 -32.34c111.07,169.12 188.09,195.75 138.91,445.85l58.85 88.57c-98.97,133.56 -111.86,93.07 -174.29,241.47 130.34,-38.42 114.53,-66.08 215.51,-148.21 26.44,-455.52 -36.48,-518.38 -248.7,-692.36 -182.56,-149.73 -11.43,-95.51 -269.68,-330.71l-157.93 11.91c-111.38,-306.08 26.14,-331.01 -276.36,-311.37 223.83,183.47 107.41,218.48 233.44,317.94 178,140.43 225.66,-33.92 312.83,295.14l-267.36 59.4c-243.47,-524.27 -268.7,-159.09 -712.66,-215.02 -213.81,-875.71 -167.36,-815.71 86.02,-1059.24 88.27,-84.81 38.72,-9.73 73.74,-129.12l-88.52 -0.49c-44.5,111.31 4.75,18.66 -129.3,138.36 -91.37,81.59 -110.03,69.55 -131.86,229.31 -25.47,186.02 40.43,451.02 54.71,649.14z"/>
   <path class="fil5" d="M9624.72 5024.43c110.28,181.47 -65.66,79.82 77.14,68.64 128.88,-10.16 -27.41,-24.02 167.18,-164.26 -15.68,155.56 -189.18,411.98 -295.75,553.45l-102.8 120.06c-4.44,-9 -17.81,22.31 -26.2,33.86 232.47,-13.68 226.69,-194.96 367.61,-385.36 11.37,236.3 -53.5,592.11 -85.29,853.7 -20.13,165.66 -35.93,287.12 -58.42,458.19l-44.38 366.39c19.75,127.12 9.24,67.42 61.82,136.18l287.37 -2497.21c-29.12,-141.89 61.7,-54.05 -64.75,-86.69 20.12,221.22 -163.77,591.68 -283.53,543.05z"/>
   <path class="fil5" d="M8939.05 7556.6l-78.67 167.9 369.62 -16.41 130.46 300.13c137.93,141.77 126.63,329.25 36.78,502.63 129.91,-35.38 54.1,30.33 128.27,-90.4 60.48,-98.48 118.05,-1004.83 106.26,-1119.24 -0.79,-17.14 -6.69,-102.98 -8.45,-115.02l-117.69 909.39c-339.34,-773.64 -461.78,-381.59 -522.63,-527.01 -7.36,-17.57 -29.18,-8.51 -43.95,-11.97z"/>
   <path class="fil5" d="M384.96 6393.04c265.96,-274.17 -107.12,-824.03 493.51,-1072.49 218.42,108.57 136.96,120.97 472.77,264.69 -83.58,-183.66 -19.69,-69.37 -221.95,-196.42 -99.94,-62.74 -159.27,-121.22 -302.25,-136.84 -472.11,175.81 -359.71,637.28 -442.08,1141.06z"/>
   <path class="fil5" d="M1101.09 6440.7l10.51 72.22 88.58 -66.87 226.75 -732.66c152.53,67.84 67.48,32.76 194.05,74.1 -79.88,-138.54 -86.14,-156.66 -269.74,-202.25l-250.15 855.46z"/>
   <path class="fil5" d="M2130.54 8781.49l-123.78 -172.16c-398.85,-58.42 -1044.16,-368.4 -1201.85,-599.04 -149.19,-55.2 -182.62,-93.62 -338.19,-160.8 116.36,185.84 143.41,167.18 330.1,293.08l1333.72 638.92z"/>
   <path class="fil5" d="M1588.64 6663.81l179.76 -65.96c59.88,112.71 -51.8,-96.18 20.48,73.74 50.22,117.93 -50.27,6.87 67.3,99.15 -2.98,-178.49 112.22,-339.04 97.69,-505.91 -6.62,-76.11 -71.61,-201.46 -104.74,-253.56 -83.1,-130.65 -81.95,-118.73 -192.47,-190.34 88.82,238.12 405.79,484.99 107.12,703.18 -167.12,122.07 -70.4,-28.94 -175.14,139.7z"/>
   <path class="fil5" d="M9693.59 3748.53l270.23 64.5c-127.36,-147.36 -143.41,-107.91 -181.23,-235.62 -357.15,-84.94 -346.38,-138.07 -785.37,-90.47l218.43 64.44c279.03,20.31 288.82,-46.32 477.94,197.15zm-1501.79 -1304.41l37.44 103.95 67.6 -18.12 32.77 -62.98 -39.4 -73.25c-40.36,29 -76.41,19.7 -98.41,50.4zm-3453.3 853.82c306.64,-191.55 771.64,-195.99 1164.11,-227.18l781.12 2.13c-81.65,-137.27 -288.22,-105.66 -557.22,-92.22 -185.84,9.24 -355.82,25.9 -546.27,8.15 163.95,-14.17 159.03,-25.3 241.03,-128.4l-159.94 0.24c-290.95,145.41 -114.23,-11 -716.68,137.39 -31.42,-21.57 9.49,-12.34 0,-106.32 -197.45,56.05 -655.09,262.86 -845.55,357.82 -337.7,168.34 -596.25,230.83 -711.02,495.52 158.18,-47.48 149.18,-83.96 309.31,-173.5l1041.11 -273.63zm-259.02 -2289.9l9.85 -109.43c-118.07,-4.93 -221.41,-60.98 -431.94,364.87l-39.2 -168.21c-153.57,196.36 -482.88,616.92 -482.39,806.83 264.81,46.08 145.96,-1.16 262.81,-138 225.29,-264.08 -85.54,224.93 430.64,-490.35 38.3,-53.06 71.01,-112.59 105.3,-155.38 121.28,-151.38 54.58,-72.95 144.93,-110.33z"/>
   <path class="fil5" d="M6743.06 2298.89c-39.33,-69.67 28.76,-36.66 -123.41,-132.59l-605.12 -201.34c141.77,129.24 193.01,98.6 375.82,170.94 128.02,50.7 231.67,113.75 352.71,162.99z"/>
   <path class="fil5" d="M9499.55 4177.36c187.24,19.57 53.62,-52.04 218,98.48 -33.74,-232.23 -161.16,-233.75 -428.4,-215.51l210.4 117.03z"/>
   <path class="fil5" d="M4489.32 898.61c117.03,-37.82 -10.03,92.22 120.74,-67.54 64.43,-78.73 41.39,-76.18 71.36,-150.95 -125.35,79.94 -134.1,93.07 -192.1,218.49z"/>
   <path class="fil5" d="M9063.73 8832.01c83.29,-10.94 98.18,0.12 158.97,-46.69 104.44,-80.55 18.3,26.93 45.9,-106.32 -74.47,38.6 -51.86,18.42 -129.12,77.08 -87.6,66.51 -63.53,63.41 -75.75,75.93z"/>
   <path class="fil5" d="M9268.6 8679c98.54,-15.14 118.54,8.39 93.32,-128.7l-70.4 48.7c-89.91,0 -60.98,-14.17 -22.92,80z"/>
   <path class="fil5" d="M9247.87 4840.35l-184.87 -24.62c28.39,28.39 -115.99,71.01 81.77,75.45 189.55,4.31 -51.01,89.42 103.1,-50.83z"/>
   <path class="fil5" d="M9875.79 4428.79c-8.63,-71.85 32.58,-139.94 -112.04,-115.2l112.04 115.2z"/>
   <path class="fil6" d="M8376.72 7413.31c7.36,176.6 -50.27,97.45 170.58,81.46l0.13 -66.87c115.74,8.51 72.64,-3.22 187.05,42.07l204.57 86.63c14.77,3.46 36.59,-5.6 43.95,11.97 60.85,145.42 183.29,-246.63 522.63,527.01l117.69 -909.39c1.76,12.04 7.66,97.88 8.45,115.02l53.86 -235.93c-52.58,-68.76 -42.07,-9.06 -61.82,-136.18l44.38 -366.39c22.49,-171.07 38.29,-292.53 58.42,-458.19 31.79,-261.59 96.66,-617.4 85.29,-853.7 -140.92,190.4 -135.14,371.68 -367.61,385.36 -420.38,159.58 -339.89,411.32 -919.36,408.77 -449.01,-183.96 232.11,-669.69 298.86,-1226.66 -422.27,-243.72 -1370.68,-227.73 -1908.57,-139.46 -528.7,86.81 -693.69,22.07 -917.83,422.99 -180.31,322.56 -213.44,111.49 -314.36,408.1 516.92,-245.18 1127.15,-439.35 1670.93,-13.68 559.41,437.88 190.4,1432.62 663.54,1567.94 9.3,-253.26 -56.84,-767.92 86.33,-941.73l-11.31 1042.34 348.52 110.95 -9.91 9.97c-89.42,89.42 -23.22,11.24 -54.41,127.6z"/>
   <polygon class="fil6" points="5424.85,5625.6 5306.12,5651.86 5300.23,5773.75 "/>
   <path class="fil7" d="M2937.3 3540.75c73.13,183.96 111.08,419.15 -211.92,324.2 28.69,-172.9 -4.37,-63.83 39.03,-105.65 6.63,-6.33 71.37,5.41 88.52,8.32l84.37 -226.87zm1552.03 -2642.15l-9.85 109.44c-90.35,37.38 -23.65,-41.04 -144.93,110.32 -34.29,42.8 -67,102.33 -105.29,155.39 -516.2,715.28 -205.36,226.27 -430.65,490.35 -116.85,136.84 2,184.08 -262.81,138 -0.48,-189.91 328.82,-610.48 482.39,-806.83l39.2 168.21c210.53,-425.85 313.87,-369.8 431.94,-364.88zm0 0c57.99,-125.4 66.74,-138.54 192.1,-218.49 -29.98,74.78 -6.93,72.23 -71.37,150.95 -130.77,159.77 -3.72,29.73 -120.73,67.54zm-2794.98 1512.45c67.42,94.89 -124.8,421.66 -176.53,581.05 -460.93,1421.25 114.83,1507.94 205.77,2010.81 164.64,121.29 86.82,36.47 115.08,178.48l-4.93 243.36c-459.16,-48.63 -641.64,-459.41 -1329.81,-444.76 -253.56,149.62 -574.55,1454.63 -353.33,2212.39 140.86,482.52 258.06,286.59 259.04,611.22l57.07 45.89c155.58,67.18 189.01,105.6 338.2,160.8l-62.98 -191.07 530.9 12.46 20.84 -151.55c-14.29,-198.12 -80.18,-463.11 -54.7,-649.14 21.82,-159.77 40.48,-147.72 131.84,-229.3 134.06,-119.7 84.82,-27.05 129.31,-138.37 -19.32,-130.03 -164.86,-195.87 -299.94,-217.27l-88.58 66.87 -10.51 -72.22c-94.29,-105.35 81.46,-40.86 -185.48,-132.88 -318.43,-109.92 -403.35,66.25 -432.29,284.74l-98.36 -199.52c82.36,-503.78 -30.04,-965.26 442.07,-1141.06 142.99,15.62 202.32,74.09 302.26,136.84 202.25,127.05 138.37,12.76 221.95,196.42 183.59,45.6 189.86,63.71 269.73,202.24l35.7 33.45c110.51,71.61 109.36,59.7 192.45,190.33 33.15,52.11 98.13,177.45 104.75,253.57 14.54,166.87 -100.67,327.42 -97.69,505.92l-72.22 209.3c204.81,108.87 253.81,57.5 350.41,284.99 64.01,150.88 93.43,264.75 162.55,429.13 258.24,235.21 87.12,180.97 269.67,330.7 212.23,173.99 275.15,236.85 248.71,692.37 -100.98,82.13 -85.17,109.78 -215.51,148.21 62.43,-148.4 75.32,-107.91 174.28,-241.46l-58.84 -88.59c-84.38,185.85 -70.34,119.89 -342.74,91.38 -139.09,-14.59 -247.97,-35.88 -365.73,-17.45l123.78 172.16c426.5,251.74 161.88,-164.38 870.59,553.82 503.54,510.29 2356.05,1453.54 2889.63,1453.54 -129.67,-319.95 -733.88,-1044.23 -942.46,-1444.6 -286.88,-550.67 -417.45,-1144.72 -524.03,-1848.93 -161.45,-1067.33 -265.6,-3347.33 314.24,-4197.38l-1041.13 273.63c-160.11,89.54 -151.12,126.01 -309.3,173.5 114.77,-264.7 373.32,-327.18 711.02,-495.52 190.46,-94.96 648.1,-301.77 845.56,-357.82 9.48,93.98 -31.43,84.74 0,106.32 602.44,-148.39 425.72,8.02 716.68,-137.39 -33.69,-109 44.55,-61.03 -172.9,-115.32l-801.6 -91.3c10.09,-355.46 49.54,-1023.62 369.67,-1173.89 359.22,-168.7 965.74,-5.24 1265.57,125.89 -193.01,-274.66 -583.48,-606.76 -1118.63,-546.89 -525.85,58.85 -752.49,458.56 -1062.65,494.8 103.17,-245.06 209.13,-300.07 338.68,-545.91 112.83,-48.34 382.79,-369.01 460.74,-476.62 -1146.17,262.45 -2210.09,627.25 -2943.07,1544.24l-302.8 335.39zm-889.44 5599.24c157.7,230.64 802.99,540.62 1201.85,599.04 117.76,-18.43 226.64,2.86 365.73,17.45 272.4,28.51 258.36,94.47 342.74,-91.38 49.18,-250.09 -27.84,-276.72 -138.9,-445.85l-488.9 32.35c-256.85,-512.11 -213.06,-122.25 -723.43,-199.03l-70.33 -242.74 -20.84 151.55 -530.9 -12.46 62.98 191.07z"/>
   <path class="fil7" d="M6768.59 9519.26c-163.28,85.6 -224.01,97.27 -226.39,335.45 410.29,-5.47 768.84,-110.88 1234.57,-86.44l294.23 24.07c6.44,-14.29 25.96,-9.66 38.72,-15.01 36.05,-229.92 -49.78,-189.92 -40.48,-352.42l-190.53 3.53 -792.84 6.57c-148.64,31.36 -215.94,111.79 -317.28,84.25z"/>
   <path class="fil7" d="M6838.69 479.26l-217.52 -190.03c51.01,141.03 55.57,170.03 217.52,190.03z"/>
   <path class="fil0" d="M503.93 4979.99c688.16,-14.65 870.66,396.12 1329.82,444.76l4.92 -243.35c-111.49,-61.16 -483.54,-235.63 -621.11,-287.37 -154.47,-58.05 -415.33,-107.72 -570.89,-46.32 -190.1,74.96 -91.37,54.41 -142.74,132.28z"/>
   <path class="fil0" d="M2852.93 3767.62c-17.15,-2.92 -100.68,-101.64 -107.36,-95.32 -43.35,41.82 8.51,19.76 -20.19,192.65 322.99,94.95 285.06,-140.25 211.92,-324.21l-49.54 -444.99 -55.32 118.48 62.68 439.95 -42.19 113.44z"/>
   <path class="fil8" d="M5773.55 7766.27c70.22,-75.5 114.47,-152.29 332.23,-202.68 436.97,-101.22 220.49,189.12 1020.52,417.58l-188.89 42.13 424.7 35.92c83.27,-112.94 74.22,-73.19 257.69,-160.79 130.77,-62.5 147.91,-75.51 285.35,-117.58 339.54,-104.06 383.49,-53.55 713.64,-32.7l-61.03 -223.95 -10.46 -29.42c-220.86,15.98 -163.23,95.13 -170.58,-81.47 -172.46,-125.11 -366.7,-321.16 -680.14,-397.15 -216.17,-52.42 -609.86,-93.2 -819.11,58.05 -79.51,57.39 -523.29,-253.98 -884.95,-371.08 -218.3,-70.63 -737.65,-53.86 -788.7,360.93 562.43,111.43 360.42,316.84 569.73,702.21zm0 0c220.98,71.43 281.53,183.35 518.56,228.15 205.78,38.91 442.87,54.71 645.3,28.88l188.88 -42.13c-800.02,-228.46 -583.54,-518.8 -1020.51,-417.58 -217.76,50.39 -262.01,127.17 -332.23,202.68zm1588.55 292.95l1409.1 112.35c-38.3,-262.14 -15.02,-252.59 -152.4,-423.42 -330.17,-20.85 -374.12,-71.37 -713.64,32.71 -137.45,42.07 -154.59,55.08 -285.36,117.57 -183.47,87.6 -174.41,47.84 -257.7,160.79z"/>
   <path class="fil9 str0" d="M3420.53 7592.44c196.51,620.86 422.5,190.02 302.21,-365.04"/>
   <path class="fil9 str0" d="M3165.27 5590.83c46.57,167.7 128.96,1030.74 370.1,111.16 15.8,-60.29 -35.35,-281.76 -63.38,-326.72"/>
   <polygon class="fil5 str1" points="8431.13,7285.71 8668.77,7443.75 8574.67,7543.09 8376.72,7413.31 8352.96,7328.92 "/>
   <polygon class="fil8 str2" points="8372.71,7419.74 8487.23,7501.42 8487.23,7557.95 8376.72,7557.95 "/>
   <polygon class="fil3" points="5538.42,31.55 6034.51,28.4 6306.89,99 5379.66,106.47 "/>
  </g>
 </g>
</svg>
