<?xml version="1.0" standalone="no"?>
<!DOCTYPE svg PUBLIC "-//W3C//DTD SVG 1.1//EN" "http://www.w3.org/Graphics/SVG/1.1/DTD/svg11.dtd" >
<svg xmlns="http://www.w3.org/2000/svg" xmlns:xlink="http://www.w3.org/1999/xlink" version="1.1">
<metadata>
Created by FontForge 20170812 at Thu Mar 10 12:48:11 2022
 By www-data
</metadata>
<defs>
<font id="EverydayRegular" horiz-adv-x="0" >
  <font-face 
    font-family="Everyday"
    font-weight="400"
    font-stretch="normal"
    units-per-em="1000"
    panose-1="0 0 0 0 0 0 0 0 0 0"
    ascent="800"
    descent="-200"
    x-height="247.279"
    cap-height="690.694"
    bbox="-287.999 -445.818 1342.69 859.449"
    underline-thickness="50"
    underline-position="-100"
    unicode-range="U+000A-20AC"
  />
<missing-glyph horiz-adv-x="527" 
d="M50 700h427v-700h-427v700zM78 680l185 -309l186 309h-371zM251 350l-180 300v-601zM264 329l-185 -308h370zM276 350l181 -303v605z" />
    <glyph glyph-name=".notdef" horiz-adv-x="527" 
d="M50 700h427v-700h-427v700zM78 680l185 -309l186 309h-371zM251 350l-180 300v-601zM264 329l-185 -308h370zM276 350l181 -303v605z" />
    <glyph glyph-name=".null" 
 />
    <glyph glyph-name=".null" 
 />
    <glyph glyph-name="LF" unicode="&#xa;" 
 />
    <glyph glyph-name="controlCR" unicode="&#xd;" 
 />
    <glyph glyph-name="space" unicode=" " horiz-adv-x="409" 
 />
    <glyph glyph-name="exclam" unicode="!" horiz-adv-x="197" 
d="M142.905 20.4707c2.19238 -29.1777 -73.0947 -30.0576 -76.1641 0.000976562c-10.8887 106.503 -8.57129 214.092 -9.38086 321.014c-0.40918 53.4805 -0.515625 106.983 -2.1748 160.441c-1.64551 53.0088 -1.65039 106.729 -5.16406 159.597
c-0.920898 13.8857 32.0283 12.9473 34.8174 0c11.791 -54.7305 21.8428 -108.047 27.1934 -163.925c4.97754 -51.9551 8.54883 -103.99 11.2002 -156.114c5.44824 -107.117 11.6396 -214.057 19.6729 -321.014zM146.914 -114.24
c1.93457 -15.5811 -25.5078 -19.8721 -35.3018 -20.1211c-13.0947 -0.337891 -33.3906 4.70117 -35.3076 20.1221c-1.86816 15.0156 -4.53223 31.3477 -2.07715 46.4121c2.14844 13.1611 16.7861 17.4395 28.3906 18.3291c9.8916 0.760742 32.002 -1.00488 35.9248 -13.3652
c5.21289 -16.4307 6.25391 -34.3467 8.37109 -51.377z" />
    <glyph glyph-name="quotedbl" unicode="&#x22;" horiz-adv-x="311" 
d="M78.9258 637.834c8.98047 23.0127 74.7998 17.1328 64.7393 -10.1729c-9.60742 -26.0645 -18.3164 -52.2617 -24.3877 -79.3936c-4.91504 -21.9727 -13.4639 -47.1514 -10.4082 -69.7637c2.55762 -18.9482 -38.3135 -15.1895 -46.3643 -7.15625
c-19.0547 19.0098 -11.6807 52.9736 -7.82422 76.9209c4.91504 30.4941 13.0186 60.8057 24.2451 89.5654zM192.217 636.882c8.84668 24.334 78.1582 17.9639 67.7588 -10.6533c-9.38965 -25.8105 -19.0107 -51.4482 -25.6465 -78.1396
c-3.57129 -14.3662 -6.24902 -28.8613 -9.06055 -43.3877c-1.04102 -5.38184 -1.64551 -10.8701 -3.2998 -16.1279c-1.08105 -3.42969 -0.59668 -8.4375 -2.34961 -5.29688c3.99902 -7.1748 -7.43164 -11.2715 -12.1602 -12.2051
c-74.8037 -14.7627 -26.1709 135.766 -15.2422 165.811z" />
    <glyph glyph-name="quotedbl" unicode="&#x201d;" horiz-adv-x="311" 
d="M78.9258 637.834c8.98047 23.0127 74.7998 17.1328 64.7393 -10.1729c-9.60742 -26.0645 -18.3164 -52.2617 -24.3877 -79.3936c-4.91504 -21.9727 -13.4639 -47.1514 -10.4082 -69.7637c2.55762 -18.9482 -38.3135 -15.1895 -46.3643 -7.15625
c-19.0547 19.0098 -11.6807 52.9736 -7.82422 76.9209c4.91504 30.4941 13.0186 60.8057 24.2451 89.5654zM192.217 636.882c8.84668 24.334 78.1582 17.9639 67.7588 -10.6533c-9.38965 -25.8105 -19.0107 -51.4482 -25.6465 -78.1396
c-3.57129 -14.3662 -6.24902 -28.8613 -9.06055 -43.3877c-1.04102 -5.38184 -1.64551 -10.8701 -3.2998 -16.1279c-1.08105 -3.42969 -0.59668 -8.4375 -2.34961 -5.29688c3.99902 -7.1748 -7.43164 -11.2715 -12.1602 -12.2051
c-74.8037 -14.7627 -26.1709 135.766 -15.2422 165.811z" />
    <glyph glyph-name="quotedbl" unicode="&#x201c;" horiz-adv-x="311" 
d="M78.9258 637.834c8.98047 23.0127 74.7998 17.1328 64.7393 -10.1729c-9.60742 -26.0645 -18.3164 -52.2617 -24.3877 -79.3936c-4.91504 -21.9727 -13.4639 -47.1514 -10.4082 -69.7637c2.55762 -18.9482 -38.3135 -15.1895 -46.3643 -7.15625
c-19.0547 19.0098 -11.6807 52.9736 -7.82422 76.9209c4.91504 30.4941 13.0186 60.8057 24.2451 89.5654zM192.217 636.882c8.84668 24.334 78.1582 17.9639 67.7588 -10.6533c-9.38965 -25.8105 -19.0107 -51.4482 -25.6465 -78.1396
c-3.57129 -14.3662 -6.24902 -28.8613 -9.06055 -43.3877c-1.04102 -5.38184 -1.64551 -10.8701 -3.2998 -16.1279c-1.08105 -3.42969 -0.59668 -8.4375 -2.34961 -5.29688c3.99902 -7.1748 -7.43164 -11.2715 -12.1602 -12.2051
c-74.8037 -14.7627 -26.1709 135.766 -15.2422 165.811z" />
    <glyph glyph-name="numbersign" unicode="#" horiz-adv-x="503" 
d="M437.396 324.15c-15.1006 0.186523 -30.1953 0.112305 -45.2686 -0.248047c-2.21094 -16.3145 -4.2793 -32.6562 -6.1875 -49.0332c15.8965 1.07617 31.8066 1.9834 47.7295 2.71289c22.6035 1.03613 22.1191 -20.0332 0 -21.0342
c-16.7236 -0.755859 -33.4248 -1.74316 -50.1084 -2.92188c-1.30762 -12.1826 -2.54883 -24.374 -3.65625 -36.5967c-5.57324 -61.5361 -9.99902 -123.205 -12.7168 -184.932c-1.39258 -31.6416 -2.59375 -63.1992 -2.90918 -94.8721
c-0.160156 -15.7725 0.128906 -31.5 0.311523 -47.2676c0.0849609 -7.13867 0.0361328 -14.2773 -0.279297 -21.416c0.0449219 1.02344 1.18848 -18.418 -3.6377 -11.9287c2.53125 -3.40234 3.94531 -7.53418 0 -10.8164
c-0.302734 -0.249023 -0.605469 -0.50293 -0.908203 -0.756836c-7.76562 -6.4541 -20.9805 -8.37598 -30.4277 -4.54688c-27.6699 11.2178 -28.1279 44.5547 -31.8994 70.9307c-4.49707 31.4551 -6.72949 63.0527 -8.07227 94.7881
c-2.78906 65.7881 -0.160156 132.314 4.70605 197.946c1.02344 13.8418 2.14844 27.6924 3.34082 41.5518c-21.2783 -2.41504 -42.5166 -5.17285 -63.7148 -8.2334c-0.458008 -3.04688 -0.938477 -6.09375 -1.38281 -9.14941
c-9.04199 -62.2158 -15.3936 -124.921 -19.9082 -187.626c-2.30859 -32.0557 -3.99414 -64.1865 -5.71094 -96.2822c-0.823242 -15.3809 -1.99316 -30.6992 -3.12695 -46.0625c-0.618164 -8.3623 -1.03613 -16.7559 -1.71191 -25.1182
c-0.391602 -4.18555 -0.795898 -8.37109 -1.20508 -12.5566c0.0224609 -0.609375 0.0273438 -1.12109 0.0273438 -1.59668c3.38477 -4.53223 4.26562 -10.0967 -1.41016 -15.043c-0.404297 -0.351562 -0.808594 -0.707031 -1.21289 -1.05859
c-12.0225 -10.4746 -34.8174 -11.9199 -48.3828 -3.55371c-22.751 14.0283 -19.2773 56.1719 -21.4834 79.8613c-3.10938 33.3633 -3.4248 67.0107 -3.03809 100.489c0.77832 67.0244 5.42188 133.702 13.4189 200.246
c0.0664062 0.542969 0.137695 1.08105 0.204102 1.62402c-22.7285 -4.30566 -45.3945 -8.95801 -67.998 -13.957c-17.3291 -3.8291 -31.7227 13.873 -9.25684 19.1396c26.5713 6.22656 53.2627 11.8398 80.0391 16.9238c2.22852 16.9951 4.66113 33.9678 7.30273 50.918
c-23.1689 -5.10645 -46.2178 -10.8438 -69.1201 -17.2705c-6.15625 -1.73047 -19.1348 -2.85547 -23.583 3.52246c-4.18066 5.99121 -0.689453 11.5068 6.18262 13.4414c29.792 8.375 59.8193 15.6914 90.0332 21.9717c16.875 101.232 41.2803 201.406 74.3896 298.378
c11.1504 32.6602 103.318 25.335 91.207 -14.3311c-26.9268 -88.1689 -50.0469 -177.21 -67.7451 -267.487c18.8281 2.46387 37.7178 4.4873 56.6436 6.1416c10.1006 85.7588 24.334 171.171 45.0029 254.661c6.81445 27.5322 90.2783 23.1289 84.7051 -6.5332
c-15.2383 -81.0977 -30.0898 -161.941 -41.6895 -243.381c14.1572 0.289062 28.3281 0.382812 42.5078 0.208984c21.1631 -0.253906 21.1143 -20.1133 0 -19.8467zM299.332 267.229c1.59668 17.2217 3.33301 34.4424 5.23633 51.6514
c-19.4951 -1.79199 -38.9326 -4.06445 -58.3164 -6.75977c-3.26074 -17.4932 -6.31641 -35.0352 -9.14551 -52.6309c20.7002 2.89551 41.4453 5.47559 62.2256 7.73926z" />
    <glyph glyph-name="dollar" unicode="$" horiz-adv-x="412" 
d="M263.771 232.739c50.3896 -56.9678 126.035 -154.388 87.0859 -234.857c-18.4805 -38.1846 -57.9238 -59.5742 -99.502 -63.9727c1.69434 -14.6553 3.4248 -29.3105 5.32422 -43.9619c1.65918 -12.7969 -32.7139 -13.7666 -34.4707 -0.000976562
c-1.87695 14.7139 -3.60742 29.4541 -5.29785 44.1982c-20.5137 2.47754 -40.2754 9.14941 -56.9814 20.0645c-64.3779 42.0547 -79.6738 150.248 -55.8379 218.131c3.81152 10.8574 34.6748 8.14453 30.2227 -4.75c-16.5283 -47.8633 -9.16309 -111.557 12.6094 -156.965
c12.832 -26.7578 38.8115 -49.3574 67.6602 -55.5352c-8.9668 82.5205 -15.0117 165.495 -17.9209 248.616c-55.2646 58.5332 -123.619 114.829 -141.824 196.305c-8.77148 39.252 -6.73438 84.3574 15.4111 119.229c18.8809 29.7334 52.1729 51.4746 85.207 62.2031
c16.6172 5.39551 33.8262 7.82812 50.79 7.47266c4.73242 54.25 10.9287 108.34 18.6631 162.186c1.76562 12.2939 32.3672 11.5869 30.9971 0c-6.56934 -55.5049 -11.9248 -111.062 -16.0742 -166.647c38.9678 -9.70508 73.3672 -34.9238 91.79 -73.6826
c6.41406 -13.4902 -28.1631 -16.9375 -33.9102 -5.3291c-12.2139 24.668 -33.9326 46.0752 -59.4678 55.9805c-6.66699 -97.3145 -9.59375 -194.709 -8.2998 -292.081c11.6582 -12.3828 23.1514 -24.5342 33.8262 -36.6016zM194.688 307.864
c-0.275391 86.5723 2.95898 173.137 9.85742 259.354c-7.30371 -0.311523 -14.7051 -1.65918 -22.1016 -4.19922c-44.9189 -15.4121 -64.1162 -65.9219 -60.7051 -110.124c4.32812 -56.1318 36.0674 -102.665 72.9492 -145.03zM262.639 -38.3809
c80.123 42.6543 19.0068 140.517 -29.5723 200.566c3.09082 -68.7549 8.36133 -137.47 15.8154 -206.122c4.62598 1.3252 9.22461 3.14453 13.7568 5.55566z" />
    <glyph glyph-name="percent" unicode="%" horiz-adv-x="726" 
d="M654.235 615.132c16.3906 -5.5957 29.8418 -20.0098 16.4668 -35.7949c-49.3887 -58.3154 -103.835 -112.321 -154.007 -170.019c-48.7705 -56.083 -96.2773 -113.3 -141.943 -171.944c-45.9727 -59.0361 -90.1846 -119.394 -133.84 -180.155
c-22.8125 -31.7578 -44.7627 -64.1064 -67.5 -95.9082c-22.6436 -31.6729 -44.54 -66.1299 -74.0293 -91.8965c-6.62305 -5.78711 -39.5322 -10.1367 -37.6201 5.80859c4.30078 35.8535 24.7695 69.5059 41.6846 100.783c17.3379 32.0557 36.6768 63.0967 55.9355 94.0273
c40.2578 64.6582 84.1934 126.981 129.842 187.921c45.9326 61.3174 93.707 121.247 143.763 179.256c50.1758 58.1416 100.975 117.427 158.445 168.537c16.1631 14.375 43.0547 16.123 62.8027 9.38477zM208.71 314.063
c-53.0186 -17.6357 -123.725 3.17773 -142.614 55.4443c-2.70898 0.635742 -4.94141 1.64062 -6.2002 3.05469c-21.1318 23.7246 -4.11035 54.2236 11.1104 76.4492c17.751 25.918 40.6309 49.0732 68.6299 63.8311c52.6494 27.75 140.512 29.5957 158.348 -41.1475
c15.9229 -63.168 -28.8672 -137.536 -89.2734 -157.632zM108.488 433.823c-1.23242 -1.87695 -2.6582 -3.94531 -4.16602 -6.14258c18.2539 -0.827148 35.1865 -8.4375 34.0791 -22.3457c-1.4541 -18.2715 3.10449 -36.2539 16.8838 -49.1396
c13.9258 -13.0234 28.5898 -8.42871 43.3701 1.79688c31.1211 21.5322 60.1074 69.5068 51.8701 108.137c-11.8047 55.3662 -69.3154 38.3311 -101.883 12.3555c-15.665 -12.4941 -29.1904 -27.9463 -40.1543 -44.6611zM492.743 141.059
c59.4189 3.8916 120.291 -31.7109 120.518 -97.041c0.235352 -67.5 -70.5781 -107.655 -131.117 -107.188c-37.5977 0.289062 -74.5371 15.4609 -93.627 49.1621c-18.3604 32.4072 -12.7695 70.1562 -3.8252 104.453c2.2998 8.81543 12.3828 14.3525 24.8594 16.8652
c20.7627 21.7139 54.126 31.8457 83.1924 33.749zM553.415 22.2275c14.8428 26.0332 14.6211 66.3379 -9.97559 87.0293c-18.5518 15.6123 -48.4453 14.6738 -70.3643 7.89551c-8.26855 -2.55762 -16.7598 -6.28516 -24.21 -11.2129
c13.6104 -3.81641 23.3643 -11.2842 21.2158 -22.084c-5.25781 -26.4287 -19.5889 -85.7002 13.5518 -102.011c24.6592 -12.1377 59.2412 21.8975 69.7822 40.3828z" />
    <glyph glyph-name="ampersand" unicode="&#x26;" horiz-adv-x="647" 
d="M556.205 226.25c43.5889 -22.0615 49.0156 -69.166 31.2461 -110.931c-19.1523 -45.0205 -59.9922 -81.0215 -100.054 -107.286c-40.1729 -26.3359 -87.7998 -49.4023 -137.651 -63.7559c1.14746 -39.292 2.39746 -78.6016 3.58984 -117.947
c0.431641 -14.2246 -35.5605 -14.3672 -36.5566 -0.000976562c-2.50391 36.1611 -4.29199 72.4336 -5.51074 108.759c-48.2236 -9.08203 -97.2656 -8.98438 -142.625 5.08398c-48.7041 15.1045 -84.5625 51.7725 -87.0752 104.199
c-2.57129 53.7031 29.4131 101.887 61.0371 142.371c14.8291 18.9834 31.166 36.6592 48.6328 53.1426c-4.80859 0.400391 -9.61621 0.832031 -14.4062 1.43262c-35.4268 4.45703 -73.8467 16.9336 -99.4883 42.958c-27.0342 27.4346 -32.2783 64.9473 -23.3115 101.192
c18.6055 75.2041 86.2656 135.063 151.138 171.9c37.0371 21.0293 81.1689 39.8438 126.363 49.0596c3.18066 37.4951 6.70801 74.9639 10.5996 112.401c1.34277 12.9561 33.6025 12.1514 32.3838 0c-3.59375 -35.8008 -6.86328 -71.6328 -9.8252 -107.496
c28.0928 2.53516 56.0293 0.71582 82.3691 -7.27734c33.5811 -10.1855 55.874 -33.7461 53.4766 -70.0674c-2.95801 -44.8477 -19.5176 -90.4111 -37.4199 -131.153c-7.74414 -17.6221 -57.7959 -14.6377 -51.333 8.06445c11.7598 41.3154 33.0781 86.6787 30.5781 130.503
c-2.33496 41.0088 -48.3076 38.6426 -80.5762 32.7764c-5.94238 -77.7969 -10.3594 -155.71 -13.0947 -233.685c22.6309 7.73047 46.1777 12.4189 70.5693 12.4277c22.8223 0.00878906 57.751 -18.748 28.8574 -39.7109
c-30.832 -22.3682 -65.3027 -40.1777 -101.615 -52.8359c-0.417969 -21.5234 -0.640625 -43.0332 -0.729492 -64.5293c23.04 14.6777 49.1797 26.1797 59.4189 29.8398c46.1289 16.4971 105.752 23.4756 151.013 0.564453zM309.955 164.316
c0.480469 28.6172 1.14355 57.2021 1.93066 85.7393c-6.56934 -1.63672 -13.1699 -3.09961 -19.8105 -4.38965c-30.8545 -23.3516 -58.707 -51.0166 -82.8857 -81.1152c-38.2646 -47.627 -94.4854 -155.389 -9.81152 -190.638
c33.9014 -14.1133 72.6816 -13.3213 110.915 -4.86621c-1.34766 55.918 -1.43652 111.93 -0.738281 167.87c-6.81836 8.65137 -5.62598 18.041 0.400391 27.3994zM314.354 326.288c3.05566 79.9805 7.71484 159.881 13.9326 239.666
c-62.9502 -19.4902 -122.244 -61.6777 -159.353 -115.132c-32.1309 -46.2881 -60.8506 -139.328 15.6611 -159.312c21.207 -5.54199 43.6729 -6.16504 66.2236 -3.25195c2.88184 2.01465 5.73242 4.07422 8.6543 6.03613c17.4932 11.7383 35.8135 22.7471 54.8809 31.9941z
M524.213 87.2705c27.5674 28.2441 56.6611 76.5205 23.2314 112.485c-26.3174 28.3105 -77.3076 22.2656 -110.64 12.8896c-9.29199 -2.61523 -70.1387 -29.3291 -91.1191 -50.2559c0.168945 -60.833 1.42285 -121.604 3.06445 -182.392
c30.3076 10.4346 59.041 24.334 83.2773 37.8105c33.9102 18.8584 65.0498 41.6582 92.1855 69.4619z" />
    <glyph glyph-name="quotesingle" unicode="'" horiz-adv-x="178" 
d="M62.5986 614.87c5.55566 23.3379 73.4072 17.6895 64.0664 -10.0654c-6.83594 -20.3262 -11.6885 -40.7637 -14.8242 -61.9795c-2.33496 -15.7988 0.0664062 -34.542 -12.1738 -45.9863c-7.20508 -6.73438 -19.3877 -5.84082 -27.6162 -2.0293
c-38.0469 17.6182 -16.8975 88.7969 -9.45215 120.061z" />
    <glyph glyph-name="quotesingle" unicode="&#x2019;" horiz-adv-x="178" 
d="M62.5986 614.87c5.55566 23.3379 73.4072 17.6895 64.0664 -10.0654c-6.83594 -20.3262 -11.6885 -40.7637 -14.8242 -61.9795c-2.33496 -15.7988 0.0664062 -34.542 -12.1738 -45.9863c-7.20508 -6.73438 -19.3877 -5.84082 -27.6162 -2.0293
c-38.0469 17.6182 -16.8975 88.7969 -9.45215 120.061z" />
    <glyph glyph-name="quotesingle" unicode="&#x2018;" horiz-adv-x="178" 
d="M62.5986 614.87c5.55566 23.3379 73.4072 17.6895 64.0664 -10.0654c-6.83594 -20.3262 -11.6885 -40.7637 -14.8242 -61.9795c-2.33496 -15.7988 0.0664062 -34.542 -12.1738 -45.9863c-7.20508 -6.73438 -19.3877 -5.84082 -27.6162 -2.0293
c-38.0469 17.6182 -16.8975 88.7969 -9.45215 120.061z" />
    <glyph glyph-name="parenleft" unicode="(" horiz-adv-x="423" 
d="M367.258 -119.458c7.15625 -6.28516 7.6123 -15.6709 -2.11914 -20.3096c-81.9561 -39.0742 -182.597 -25.5439 -245.022 42.8018c-56.3496 61.6963 -70.6006 146.579 -70.1064 227.423c0.515625 84.8242 13.8818 169.707 38.4473 250.857
c24.6543 81.4355 59.8594 162.608 108.323 232.857c22.7422 32.958 48.3799 60.6592 83.1221 81.1504c25.2686 14.9004 55.0957 30.4414 83.0234 12.5615c15.9854 -10.2305 -12.9258 -18.6055 -22.6533 -12.9121c-24.8457 14.5352 -65.6592 -59.5215 -74.7812 -74.9287
c-18.1025 -30.5654 -32.7051 -63.6348 -46.3604 -96.375c-52.3291 -125.469 -85.2832 -260.754 -83.8867 -397.213c0.666992 -65.2676 5.60449 -135.174 43.2158 -190.919c14.3047 -21.2031 34.249 -41.1074 57.9199 -51.5771
c30.4102 -13.4453 64.9297 -8.26367 95.8691 0.569336c10.417 2.9707 26.1309 3.81543 35.0088 -3.98633z" />
    <glyph glyph-name="parenright" unicode=")" horiz-adv-x="434" 
d="M351.649 412.507c20.0195 -85.7188 32.4688 -174.729 32.4424 -262.84c-0.0175781 -75.4707 -4.11816 -166.847 -44.6465 -233.293c-41.3066 -67.7275 -122.391 -80.7773 -195.011 -64.8008c-29.7822 6.55176 -10.2031 28.0664 12.0273 24.8682
c35.8447 -5.15527 68.0732 -0.0175781 94.4932 26.4199c21.5762 21.5898 33.9854 51.6396 42.1875 80.5459c19.0234 67.0195 20.5537 140.315 17.5918 209.426c-2.99805 69.9199 -11.9199 139.938 -26.4736 208.398c-13.8418 65.0986 -34.2979 129.468 -63.9248 189.176
c-24.5479 49.4736 -71.0498 142.896 -141.268 106.672c-10.541 -5.43945 -41.1826 4.21191 -23.8809 13.6143c76.9434 41.8145 154.883 -19.4014 200.852 -78.2324c49.7002 -63.6084 77.4453 -142.171 95.6104 -219.954z" />
    <glyph glyph-name="asterisk" unicode="*" horiz-adv-x="368" 
d="M302.006 438.691c20.9717 -0.168945 20.8818 -19.793 -0.000976562 -19.6465c-36.6631 0.249023 -73.2061 -1.88184 -109.487 -6.20996c0.00488281 -0.151367 0.0136719 -0.306641 0.0136719 -0.461914c23.4092 -26.0557 49.1885 -49.7666 79.0508 -68.9814
c16.7598 -10.7812 -13.6855 -20.5039 -24.1289 -13.752c-19.9619 12.8984 -38.1221 27.6426 -55.0459 43.624c-0.675781 -33.5371 -2.76172 -67.0645 -6.29297 -100.539c-1.44531 -13.6855 -35.502 -12.7383 -34.123 0c3.93652 36.4277 6.09863 72.9307 6.65918 109.434
c-21.3447 -20.2822 -42.0713 -41.2627 -62.6777 -62.1943c-8.13086 -8.25977 -39.4346 -2.26855 -28.2656 9.41602c24.748 25.8955 49.6875 51.6709 75.7344 76.1426c-23.1816 -4.10059 -46.2344 -9.02441 -69.0781 -14.9844
c-5.96484 -1.55664 -18.3125 -2.81055 -22.6309 3.38086c-3.99902 5.72852 -0.676758 11.0791 5.93262 12.8984c28.4932 7.8418 57.2305 14.207 86.1641 19.1484c-22.0215 26.9629 -42.2637 55.5938 -62.2168 84.2471c-7.49023 10.75 25.0986 15.2559 32.2334 5.06543
c14.1846 -20.2598 28.542 -40.6357 43.6514 -60.3975c-1.38281 30.0186 -3.80273 60.0107 -7.47656 89.9355c-1.53027 12.4717 31.7617 13.3213 33.4297 0c4.05176 -32.3135 6.70703 -64.707 8.08984 -97.1318c23.2617 18.8281 47.6807 36.2373 73.8779 51.4307
c11.2793 6.53809 43.3486 -4.11914 25.3574 -14.4561c-25.2012 -14.4824 -48.7969 -31.1172 -71.3389 -49.0996c27.3809 2.29102 54.9131 3.35449 82.5693 3.13184z" />
    <glyph glyph-name="plus" unicode="+" horiz-adv-x="318" 
d="M246.767 299.43c17.0889 2.5127 31.9434 -15.6221 9.16113 -18.9492c-17.627 -2.57129 -35.209 -5.39551 -52.7646 -8.35742c-0.200195 -6.84961 -0.400391 -13.6953 -0.529297 -20.5498c-0.680664 -36.6104 -0.47168 -73.2734 -0.1875 -109.888
c0.275391 -35.4893 5.44336 -75.1777 -6.3252 -109.234c-5.9248 -17.1465 -43.4512 -13.5703 -50.999 0c-17.5957 31.6328 -18.8857 73.8779 -22.1367 109.233c-3.36719 36.583 -4.88867 73.1572 -5.3916 109.888c-0.0175781 1.5127 -0.0126953 3.03418 -0.0302734 4.54688
c-15.7627 -3.25098 -31.499 -6.65332 -47.2002 -10.2207c-16.9502 -3.85156 -31.1211 13.7178 -9.06836 18.7568c18.6631 4.26562 37.3799 8.22852 56.1279 12.04c-0.0976562 66.3887 3.21582 133.155 13.4414 198.686c5.03516 32.251 85.3809 32.4912 83.4688 0
c-3.58984 -60.9395 -8.15332 -121.724 -10.4746 -182.694c14.2822 2.36621 28.582 4.63477 42.9082 6.74316z" />
    <glyph glyph-name="comma" unicode="," horiz-adv-x="203" 
d="M88.9287 15.0088c10.5234 22.208 74.1426 13.7373 62.0576 -9.75586c-9.80762 -19.0723 -19.8555 -38.0557 -29.1113 -57.4033c-8.8291 -18.458 -15.0869 -39.8076 -30.917 -53.3955c-8.33984 -7.15625 -33.4297 -10.2471 -38.4873 2.86914
c-7.03223 18.2451 2.49902 38.6475 9.29492 56.0654c8.1709 20.9453 17.5381 41.3115 27.1631 61.6201z" />
    <glyph glyph-name="hyphen" unicode="-" horiz-adv-x="316" 
d="M265.563 281.99c1.78809 -10.2881 -10.9297 -16.2607 -19.5674 -17.0791c-32.834 -3.12207 -65.8945 -2.92676 -98.7949 -5.51562c-28.542 -2.24609 -60.6064 -9.86035 -88.6416 -2.62402c-5.30664 1.37012 -12.2988 8.43359 -6.18262 13.4414
c20.9453 17.1641 58.543 17.209 84.416 19.9795c33.5371 3.58984 68.2217 7.44629 101.945 5.29785c8.41113 -0.53418 24.9219 -2.55371 26.8252 -13.5z" />
    <glyph glyph-name="period" unicode="." horiz-adv-x="153" 
d="M102.832 -40.8428c1.34766 -9.8916 -0.771484 -21.3525 -1.96387 -31.2441c-1.37891 -11.4531 -16.0127 -14.2373 -25.4023 -14.4775c-5.74219 -0.142578 -12.9346 1.28027 -17.9609 4.24219c-2.90039 1.70801 -8.13965 6.05371 -7.44141 10.2393
c1.86816 11.2041 3.32227 24.2627 7.83203 34.7061c6.2002 14.3486 42.6504 13.3252 44.9365 -3.46582z" />
    <glyph glyph-name="slash" unicode="/" horiz-adv-x="521" 
d="M436.479 614.652c12.8369 -2.05078 42.2314 -13.7383 31.9395 -32.0586c-65.7207 -116.978 -135.036 -230.922 -193.712 -351.823c-29.3379 -60.4502 -57.7197 -121.435 -84.3174 -183.14c-13.0811 -30.3428 -26.4561 -60.5479 -39.1729 -91.0469
c-13.1162 -31.46 -25.1836 -66.6465 -44.4873 -94.8633c-9.0957 -13.2949 -57.4307 -20.0293 -56.7236 4.37598c0.947266 32.7402 14.6064 67.5449 24.8057 98.4307c10.208 30.9033 20.9805 61.7178 32.6787 92.0918c23.9785 62.2559 49.8291 123.756 78.1309 184.171
c56.9502 121.581 118.393 244.853 194.606 355.657c12.1074 17.6045 36.2412 21.4072 56.252 18.2051z" />
    <glyph glyph-name="zero" unicode="0" horiz-adv-x="440" 
d="M244.699 -42.1318c-54.2773 -6.5918 -107.596 17.9766 -140.604 60.8711c-29.6357 38.5186 -42.9121 86.9062 -48.7607 134.543c-11.6357 94.7969 -4.37207 194.063 23.1826 286.16c1.66797 19.0811 7.95703 36.6592 17.8486 51.666
c0.0351562 0.0888672 0.0664062 0.182617 0.101562 0.271484c1.40527 3.53613 3.80664 6.57422 6.87109 9.18066c15.0293 18.1475 35.916 31.3887 60.5791 37.042c48.166 11.0352 94.0186 -7.14746 126.599 -42.9395c69.1768 -75.9961 100.263 -186.862 99.4355 -287.966
c-0.795898 -97.6475 -28.1455 -234.601 -145.253 -248.829zM170.747 71.0195c7.13477 -17.0801 16.3398 -33.0449 29.3721 -46.2998c7.42383 -7.55273 22.4268 -19.3525 29.917 -19.1836c11.3506 0.253906 30.3252 17.9521 39.0654 29.2139
c11.8398 15.2607 19.6992 34.0127 26.1846 52.0615c14.2861 39.75 22.1006 81.666 24.5869 123.782c4.76855 80.7949 -7.2002 169.218 -41.5684 243.052c-16.3945 35.2178 -47.0312 70.0928 -89.415 68.5225c-13.459 -0.498047 -25.6553 -4.5498 -36.2676 -11.0527
c22.6621 -2.80664 41.9883 -14.4287 35.7256 -34.1729c-30.5615 -96.3359 -46.5068 -195.207 -39.1055 -296.404c2.71289 -37.1035 7.0498 -74.9326 21.5049 -109.519z" />
    <glyph glyph-name="one" unicode="1" horiz-adv-x="432" 
d="M54.2002 401.041c-21.5674 62.4834 44.2539 137.168 98.6465 159.67c70.9834 29.3643 121.751 -32.3721 136.687 -95.5049c20.7402 -87.6846 18.5605 -179.003 13.2012 -268.333c-5.37305 -89.4902 -9.25586 -178.927 -13.8818 -268.417
c-0.0537109 -1.01855 -0.191406 -2.00195 -0.37793 -2.96289c21.1719 -6.37402 41.1475 -9.36719 64.1113 3.25977c10.875 5.98242 41.3828 -4.4834 24.1299 -13.7529c-30.499 -16.3906 -63.667 -19.1221 -96.7676 -9.16797
c-2.16211 0.649414 -4.29688 1.35645 -6.43164 2.06348c-24.6406 -12.6094 -70.7695 -6.7207 -76.0176 17.4268c-8.59766 -0.484375 -17.1064 -2.09473 -25.2236 -5.14551c-2.95801 -1.1123 -34.3281 -15.6074 -26.4639 -21.4961
c11.0527 -8.28223 -16.5283 -16.457 -24.3428 -10.7061c-35.0088 25.7529 50.2207 53.2715 67.1094 55.0146c2.56641 0.266602 5.13281 0.417969 7.7041 0.542969c-2.56152 66.9307 6.77051 135.236 14.416 201.429c8.13477 70.4629 15.7227 140.97 20.3398 211.757
c2.30371 35.3027 3.09082 70.9746 2.49023 106.353c-0.466797 27.5898 -2.11719 66.918 -30.6191 81.1865c-31.4551 15.7451 -69.6396 -25.6602 -87.3691 -47.4814c-19.9131 -24.5078 -40.3242 -58.3066 -30.4453 -90.8779
c4.10059 -13.5215 -27.1094 -15.8252 -30.8945 -4.85645z" />
    <glyph glyph-name="two" unicode="2" horiz-adv-x="527" 
d="M67.001 -130.332c-41.6094 28.1191 2.11816 95.9092 35.6279 111.69c36.6543 17.2705 80.2568 6.10156 119.5 -8.39844c45.4521 63.5732 67.6338 147.206 81.7871 220.876c9.73633 50.6826 14.7842 102.451 14.6016 154.082
c-0.165039 47.707 -0.720703 103.193 -17.6709 148.393c-8.21484 21.9014 -23.5195 50.3359 -49.1523 54.5078c-24.8369 4.04297 -50.5498 -15.6123 -66.4912 -32.6162c-17.1152 -18.2627 -29.418 -42.1123 -31.5977 -67.2783
c-1.52148 -17.5107 2.5752 -49.9395 25.1699 -52.5947c21.4648 -2.52148 7.08008 -19.21 -8.51855 -17.6084c-62.8613 6.46289 -57.2793 86.5459 -31.6416 126.327c33.0029 51.2168 91.9102 77.2051 150.297 55.9492c60.8594 -22.1592 86.7588 -80.6797 100.796 -139.489
c15.7588 -66.0059 17.8223 -134.169 10.1631 -201.447c-10.5195 -92.377 -36.3389 -203.746 -99.5693 -278.973c49.6514 -16.7197 104.796 -26.2646 147.584 9.90527c8.38867 7.09473 37.9893 0.569336 26.7627 -8.91797
c-56.332 -47.6182 -123.61 -36.8232 -187.908 -16.0029c-16.457 -16.8125 -35.1377 -31.3438 -56.3984 -42.7744c-44.291 -23.8184 -117.053 -46.916 -163.341 -15.6299zM120.522 -34.7295c-16.4219 -10.5898 -28.9678 -36.2305 -28.9326 -55.8096
c0.09375 -48.2725 79.1182 8.40625 93.916 21.8828c8.35254 7.60547 16.083 15.834 23.3418 24.498c-1.19629 0.417969 -2.39746 0.844727 -3.58496 1.25391c-23.8311 8.21973 -61.1621 23.3779 -84.7402 8.1748z" />
    <glyph glyph-name="three" unicode="3" horiz-adv-x="447" 
d="M62.248 491.719c24.6406 51.2168 82.0977 79.0898 137.78 68.8691c27.332 -5.0127 53.9258 -16.5811 71.5879 -38.7227c19.2324 -24.1162 20.8066 -56.083 14.749 -85.292c-8.41504 -40.5557 -29.7246 -75.9697 -58.8975 -103.911
c53.7383 -15.7764 100.134 -51.541 129.77 -102.646c66.6729 -114.972 58.0889 -343.47 -97.4248 -381.752c-64.3066 -15.8301 -145.938 2.08984 -180.76 63.0693c-35.5244 62.207 -7.5166 141.409 21.8438 200.01c7.23633 14.4463 50.5586 11.457 43.291 -6.80566
c-23.9111 -60.1084 -65.6182 -147.771 -7.74316 -203.622c23.5732 -22.7461 65.6494 -30.957 95.4365 -17.1289c28.7148 13.335 44.6426 45.7422 55.6729 73.5146c27.4385 69.0703 30.8369 149.696 5.02637 219.905c-22.0342 59.9395 -69.5371 118.148 -138.545 115.64
c-12.6094 -0.458008 -31.4951 3.66992 -39.1006 14.9941c-6.87598 10.2393 -1.62305 21.2432 8.84668 26.6426c31.6865 16.3418 58.4355 40.6357 77.0322 71.2188c17.8135 29.2979 36.8857 72.4727 21.2871 106.379c-20.0732 43.6289 -74.9199 31.8818 -103.284 4.10547
c-13.6504 -13.3701 -22.9775 -30.583 -28.5732 -48.7432c-1.5791 -5.11523 -7.06738 -61.1709 -4.42578 -60.4902c6.28516 1.61914 19.2637 2.97559 23.8184 -3.55859c4.18945 -6.00488 0.729492 -11.6982 -6.24512 -13.5752
c-65.0049 -17.502 -59.6143 63.5068 -41.1426 101.9z" />
    <glyph glyph-name="four" unicode="4" horiz-adv-x="566" 
d="M196.289 140.43c-50.123 -12.3115 -148.792 0.50293 -146.239 70.8984c2.62012 72.2949 88.3926 97.3584 147.171 89.8057c24.4053 -3.13574 49.7314 -12.6318 75.3994 -22.7822c10.4434 28.7461 16.8613 59.2539 21.2109 90.3838
c4.85742 34.751 7.55273 70.0664 7.95703 105.151c0.395508 34.4707 2.73535 70.6934 -1.54395 104.919c-1.7168 13.7617 33.5498 13.957 36.21 0c4.81738 -25.2812 12.4629 -49.7266 15.2295 -75.4219c2.7002 -25.0547 2.88672 -50.7139 2.22852 -75.875
c-1.19238 -45.3721 -7.62402 -91.5674 -19.335 -135.437c-3.02051 -11.3193 -6.72559 -22.3281 -10.9863 -32.9893c27.9414 -9.2334 55.834 -14.8242 82.957 -9.64648c-4.01172 99.6406 -1.96582 199.401 8.2373 298.642c3.79883 36.9346 95.7803 35.5469 93.1963 0
c-7.56543 -104.07 -11.542 -208.487 -8.66895 -312.829c1.43262 -52.0928 4.41699 -104.213 8.27734 -156.182c3.79883 -51.123 12.2139 -103.954 7.22754 -155.197c-0.0849609 0.0263672 -0.165039 0.0527344 -0.25 0.0791016
c-1.37012 -16.2344 -49.6377 -27.8613 -59.5967 -4.69727c-20.8291 48.4551 -27.665 103.568 -34.2793 155.488c-6.60938 51.8975 -10.9102 103.91 -13.4102 156.163l-0.0263672 0.694336c-30.1426 -3.43848 -60.8506 2.17871 -90.749 11.2881
c-23.8496 -49.5137 -62.8438 -88.3652 -120.217 -102.456zM138.131 156.927c32.376 -4.70117 61.1035 11.6045 82.5381 34.5244c19.6416 21.0029 34.1553 44.4961 45.084 69.5996c-59.1562 22.6621 -148.478 47.6719 -179.341 -29.4131
c-15.541 -38.8076 13.9521 -69.2266 51.7188 -74.7109z" />
    <glyph glyph-name="five" unicode="5" horiz-adv-x="454" 
d="M180.478 529.868c-16.2969 -45.5459 -38.4756 -88.0654 -51.0449 -135.333c-4.79492 -18.0537 -11.6182 -42.2764 9.71387 -51.4385c19.1211 -8.21094 40.3643 -12.6006 60.0684 -19.3564c74.2344 -25.4463 146.743 -65.0986 179.262 -140.569
c31.2148 -72.4463 17.9688 -159.504 -34.2754 -218.94c-51.6123 -58.7158 -144.475 -67.6826 -211.063 -29.792c-68.2256 38.8252 -81.1641 121.332 -69.5244 192.688c5.23047 32.0508 85.2734 30.8057 81.7285 0c-6.52051 -56.6338 -5.42676 -163.168 73.7578 -168.741
c62.1943 -4.38086 96.3447 83.0186 99.2754 132.362c4.23926 71.4014 -34.0117 135.041 -95.8496 169.28c-30.2012 16.7236 -63.3066 27.1982 -96.1045 37.5352c-27.4209 8.64258 -62.5186 18.4102 -72.8154 48.873c-10.6123 31.3926 13.1572 72.0635 25.7539 99.7783
c11.6084 25.5439 24.04 51.9775 39.4473 75.9736c-34.7949 -0.689453 -68.3496 7.08105 -68.8037 40.1729c-0.177734 12.9385 32.1133 12.9561 33.083 0c1.46289 -19.4863 26.8643 -20.3711 52.7236 -16.4521c0.0175781 0.0224609 0.03125 0.0449219 0.0488281 0.0673828
c4.79883 5.93359 19.0449 8.29492 30.6494 6.29785c8.54395 2.13086 15.7314 4.13281 20.1973 5.21777c30.3828 7.37012 60.25 17.1201 91.4023 20.8203c36.8594 4.37695 118.824 12.6104 125.816 -40.7012c2.19238 -16.6973 -37.3135 -15.1582 -43.0693 -3.32227
c-14.9629 30.7568 -54.7217 22.3018 -82.3027 17.1064c-31.3262 -5.89746 -62.123 -13.9834 -93.2979 -20.5439c-1.4541 -0.302734 -3.07715 -0.640625 -4.77637 -0.983398z" />
    <glyph glyph-name="six" unicode="6" horiz-adv-x="393" 
d="M183.784 352.76c-23.3779 -71.6143 -37.7949 -144.549 -40.1035 -219.936c-0.0224609 -0.827148 -0.0488281 -1.67676 -0.0751953 -2.51758c72.1084 28.1455 176.851 25.2764 195.843 -61.6338c19.2373 -88.0273 -53.5029 -160.643 -138.945 -159.824
c-99.7871 0.956055 -139.662 94.4004 -148.362 180.177c-10.3105 101.642 17.6396 207.402 61.4463 298.517c21.3896 44.4785 47.1963 86.1055 78.874 124.046c25.1572 30.1299 63.5869 72.8115 106.353 71.7354c20.9453 -0.524414 20.8965 -19.3789 0.000976562 -19.6455
c-20.7539 -0.266602 -36.3838 -37.2773 -45.8174 -52.3018c-9.7627 -15.5498 -18.3604 -31.8203 -26.1309 -48.4512c-16.6484 -35.6318 -30.8818 -72.7939 -43.082 -110.165zM304.372 49.7305c-3.25098 88.7168 -102.473 86.2793 -161.442 52.8672
c-0.623047 -52.5781 3.70898 -116.787 42.7256 -150.114c25.9307 -22.1504 58.6709 -14.9541 82.916 6.57812c25.0322 22.2344 37.0059 57.7861 35.8008 90.6689z" />
    <glyph glyph-name="seven" unicode="7" horiz-adv-x="412" 
d="M79.0791 541.962c-10.4746 -6.60938 -40.9141 2.92871 -24.1279 13.7588c52.5508 33.8877 121.274 53.5918 178.58 17.7646c61.918 -38.7139 66.7393 -121.809 72.0586 -187.299c4.01172 -49.3574 3.4873 -99.0127 0.337891 -148.499
c11.8086 0.480469 23.5596 1.44531 35.1328 4.08691c17.4893 3.99414 32.0156 -13.9707 9.34961 -19.3301c-15.2783 -3.61133 -30.5166 -4.2832 -45.8662 -4.58594c-1.9834 -25.6416 -4.60742 -51.2168 -7.61816 -76.667
c-9.38477 -79.3047 -20.7139 -159.997 -40.6445 -237.398c-7.52539 -29.2314 -95.833 -26.0645 -91.5322 7.05859c8.91309 68.6348 25.7256 136.451 37.6855 204.641c5.28418 30.125 10.0518 60.3965 14.1797 90.7578c-6.02637 -1.8418 -12.0176 -3.87012 -17.96 -6.08984
c-13.1787 -4.92383 -38.1133 8.83301 -17.2217 16.7949c12.4717 4.75488 25.2012 8.78027 38.1309 11.9648c3.48242 27.9727 6.39551 56.0078 8.52148 84.0732c2.60156 34.3457 4.26953 68.9053 4.60352 103.35c0.306641 31.5039 1.43164 65.6406 -7.97949 96.0459
c-7.76562 25.0947 -24.1113 53.8584 -52.1992 59.0713c-33.2119 6.16504 -66.4238 -12.458 -93.4307 -29.498z" />
    <glyph glyph-name="eight" unicode="8" horiz-adv-x="370" 
d="M294.976 522.111c10.7061 -57.6436 2.65234 -119.866 -8.07129 -176.945c-10.2393 -54.5215 -26.416 -107.602 -47.7881 -158.747c42.0586 -61.8604 82.4541 -126.007 80.6084 -199.81c-1.25 -50.0645 -30.6104 -95.957 -80.0303 -109.861
c-44.0117 -12.3828 -95.5527 4.21191 -125.269 38.7891c-65.1475 75.8135 -31.4014 199.25 22.9199 274.387c-5.13281 7.43652 -10.2344 14.9004 -15.2295 22.4395c-31.4502 47.4766 -58.8135 97.0879 -68.9639 153.731c-9.69141 54.0898 3.38965 112.943 33.5059 158.77
c27.5986 41.9922 67.1221 75.249 119.655 75.3516c49.8867 0.0976562 79.8291 -30.5527 88.6621 -78.1045zM231.199 -85.8643c40.9248 44.042 10.5195 111.401 -13.9883 155.119c-18.6055 33.1895 -40.3818 64.2217 -62.167 95.2764
c-27.8477 -46.1289 -43.2998 -102.096 -40.5732 -154.976c1.55273 -30.0322 10.6973 -60.7129 30.7305 -83.7705c21.7139 -24.9883 60.0361 -39.5859 85.998 -11.6494zM258.051 385.745c4.4209 34.5059 7.54395 70.0596 4.97754 104.833
c-2.04199 27.6035 -8.68262 76.8184 -42.7393 83.3564c-26.665 5.11523 -49.3848 -26.6689 -60.2021 -46.5508c-11.9287 -21.9365 -19.9082 -46.1465 -23.1104 -70.9072c-7.52148 -58.1416 10.8789 -115.074 36.792 -166.456
c11.9424 -23.6807 27.0156 -47.085 42.9082 -70.6367c19.9131 53.7295 34.0664 109.367 41.374 166.361z" />
    <glyph glyph-name="nine" unicode="9" horiz-adv-x="477" 
d="M421.299 142.396c-14.2246 -95.3838 -51.6943 -226.532 -162.437 -244.92c-52.2129 -8.66406 -103.27 12.5479 -132.51 56.5098c-31.4375 47.2676 -23.2803 105.48 -12.9395 157.92c5.39062 27.3359 74.2344 28.4922 72.3486 -0.000976562
c-3.41992 -51.7549 -11.4971 -123.587 34.9111 -160.246c4.06934 -3.21094 8.4502 -6.15137 13.4277 -7.70801c0.863281 -0.271484 1.45508 -0.494141 1.87793 -0.680664c0.213867 0.03125 0.414062 0.0664062 0.689453 0.0976562
c11.0752 1.3125 21.4121 9.58594 29.2539 16.8223c20.376 18.8057 32.6738 44.7725 43.5264 69.8271c42.4902 98.0703 55.4512 206.518 38.2422 312.033c-4.16309 25.5264 -9.47363 50.6123 -18.5156 74.8975c-4.16309 11.1904 -8.71289 22.3193 -14.4014 32.834
c-2.44141 4.50586 -5.91113 13.1348 -10.2744 16.1953c-5.80469 4.07422 -0.142578 5.83105 -8.41113 -6.21387c-26.8604 -39.1367 -47.3604 -82.6719 -79.2383 -118.268c-29.6807 -33.1455 -73.2207 -60.291 -119.26 -45.8174
c-38.1357 11.9912 -51.8311 51.2168 -46.4756 88.1025c13.5078 93.0439 103.327 152.801 193.801 146.374c20.416 -1.4502 20.8252 -20.8203 0 -19.4502c-64.7607 4.24805 -122.493 -32.46 -147.525 -92.1768c-10.0791 -24.0361 -15.71 -53.4453 -6.39648 -78.6553
c16.1367 -43.6826 59.7881 -22.3867 84.2422 1.57812c38.1582 37.4014 58.5117 87.3906 89.7617 129.89c30.1074 40.9424 69.791 13.5039 94.6992 -17.8447c66.3174 -83.4639 76.7695 -209.382 61.6025 -311.1z" />
    <glyph glyph-name="colon" unicode=":" horiz-adv-x="179" 
d="M127.195 379.73c0.996094 -11.0664 2.63574 -21.6738 0.616211 -32.6602c-2.17969 -11.876 -14.9805 -15.7363 -25.6416 -16.5547c-6.41406 -0.489258 -12.6992 0.0976562 -18.8555 2.00098c-4.33691 1.34277 -11.876 5.22559 -13.5889 10.0742
c-4.34082 12.2803 -4.87012 24.2676 -5.83984 37.1396c-1.06348 14.0947 22.3008 17.8047 31.6543 18.0449c11.3818 0.289062 30.4102 -4.19434 31.6553 -18.0449zM62.0645 49.3066c9.02441 16.5947 59.459 15.041 52.0049 -8.17188
c-4.20801 -13.0898 -5.16016 -26.7754 -9.59863 -39.8076c-3.54004 -10.3945 -21.4072 -11.8887 -30.1562 -11.2217c-9.59863 0.734375 -22.1416 4.38184 -23.832 15.3857c-2.35742 15.3184 4.37695 30.5654 11.582 43.8154z" />
    <glyph glyph-name="semicolon" unicode=";" horiz-adv-x="200" 
d="M97.5732 332.722c-8.83789 -0.222656 -31.3096 4.13379 -29.917 17.0498c0.889648 8.32617 1.03613 16.6787 1.71191 25.0137c0.680664 8.35352 0.0224609 16.9561 3.92773 24.5889c6.36523 12.4365 31.6338 12.0625 40.3965 3.01074
c12.7832 -13.2061 14.1533 -35.1426 13.8018 -52.6094c-0.275391 -13.4639 -20.002 -16.7998 -29.9209 -17.0537zM135.935 39.9053c26.1084 -53.8896 13.0059 -123.576 -9.88281 -176.105c-11.6045 -26.6426 -87.9824 -17.8096 -74.4521 11.6973
c12.9385 28.2168 22.6348 57.0029 28.8213 87.4482c5.42676 26.7139 4.0127 57.6484 21.7861 79.4736c6.66699 8.18359 28.9639 7.32031 33.7275 -2.51367z" />
    <glyph glyph-name="less" unicode="&#x3c;" horiz-adv-x="387" 
d="M304.953 419.116c8.19727 5.05273 43.1709 -0.742188 29.2578 -12.8623c-27.0967 -23.6133 -52.707 -48.4854 -80.6621 -71.2451c-26.6064 -21.6611 -53.9521 -42.3564 -80.6035 -63.9551c-13.4365 -10.8887 -25.8193 -23.1914 -39.332 -33.9287
c-3.37598 -2.68652 -9.60742 -7.20508 -9.58984 -7.22754c1.66309 -2.07715 22.626 -3.14062 25.3613 -3.47461c36.0986 -4.38965 72.3711 -5.11426 108.684 -3.61133c12.1025 0.498047 39.7061 -5.41309 39.3018 -22.4033
c-0.422852 -17.7822 -26.0068 -21.8701 -39.3018 -22.3994c-50.0605 -1.99219 -101.095 0.0400391 -150.563 8.38379c-34.4883 5.81738 -79.4688 30.0889 -45.3408 67.7666c29.8672 32.9766 74.1318 58.876 111.022 83.1924
c43.2998 28.5459 87.7021 54.5703 131.767 81.7646z" />
    <glyph glyph-name="equal" unicode="=" horiz-adv-x="449" 
d="M372.769 337.231c11.3154 -1.20117 31.4639 -10.5039 25.1436 -25.248c-6.52051 -15.1982 -30.7344 -15.8428 -44.2822 -14.3301c-81.8711 9.14062 -164.437 11.8096 -246.73 7.86914c-27.3184 -1.30762 -39.0469 28.2441 -7.48926 31.5537
c91.2246 9.57129 182.12 9.8291 273.358 0.155273zM346.535 259.655c10.75 -0.0537109 33.915 -4.30078 33.9199 -19.3301c0 -15.0693 -22.7148 -19.2461 -33.9141 -19.3311c-44.9717 -0.342773 -89.8545 -1.3877 -134.777 -3.52246
c-44.5498 -2.11719 -89.7979 -8.85547 -134.348 -8.1084c-8.19336 0.133789 -23.1826 2.34863 -26.6738 11.5732c-3.26074 8.62012 4.8252 15.8213 12.7109 17.8047c45.1143 11.3418 93.3467 12.9434 139.622 16.2617c47.6895 3.4248 95.6455 4.875 143.46 4.65234z" />
    <glyph glyph-name="greater" unicode="&#x3e;" horiz-adv-x="374" 
d="M301.294 326.459c12.1689 -6.77441 25.8809 -16.2568 21.6953 -32.082c-4.07422 -15.3809 -25.1748 -24.748 -37.4238 -32.4336c-37.7842 -23.7021 -77.0938 -45.1719 -116.403 -66.2148c-16.4121 -8.78418 -41.3066 -10.0029 -57.5459 0
c-13.8057 8.50879 -15.625 24.7168 0 32.8027c25.1885 13.041 50.2871 26.2646 75.3418 39.5547c12.583 6.67578 25.0596 13.5479 37.6338 20.2422c4.34082 2.3125 17.9863 6.9873 25.7256 11.7598c-6.52539 4.43457 -17.1377 8.39746 -21.4922 10.6699
c-8.90918 4.65723 -17.8535 9.23828 -26.7627 13.8867c-18.8721 9.84277 -37.7178 19.7568 -56.167 30.374c-35.1152 20.2109 -71.2939 42.7617 -94.0488 77.0811c-11.2793 17.0088 32.4873 18.5078 40.4219 13.415c34.5771 -22.1904 67.9268 -45.7949 104.11 -65.4365
c34.5107 -18.7344 70.6094 -34.5244 104.915 -53.6191z" />
    <glyph glyph-name="question" unicode="?" horiz-adv-x="416" 
d="M297.593 674.742c76.2354 -37.0684 74.4229 -136.046 60.3408 -207.185c-15.1406 -76.5068 -48.8906 -147.085 -80.6885 -217.689c-16.2432 -36.0723 -31.9707 -72.4375 -45.1182 -109.772c-13.1074 -37.2373 -19.917 -74.6572 -27.7412 -113.171
c-7.59277 -37.375 -100.521 -40.4443 -100.147 0c0.658203 70.6533 33.1006 143.166 62.5449 206.014c26.9541 57.5283 56.8301 113.798 81.3506 172.447c23.9609 57.3057 50.2207 127.929 42.0859 191.088c-4.10938 31.918 -22.0254 62.0166 -57.4121 61.4736
c-33.4434 -0.511719 -64.7471 -15.6299 -89.1748 -37.8691c-26.0508 -23.7207 -46.1152 -54.3037 -50.7236 -89.7578c-4.10059 -31.54 9.50977 -70.7783 45.2305 -76.1602c24.9834 -3.7627 8.48145 -23.2441 -9.99512 -20.6641
c-37.5439 5.24414 -66.4326 32.0693 -75.4844 68.9014c-10.3232 42.0146 10.8525 85.377 38.6338 116.058c46.7686 51.6436 139.769 88.6406 206.299 56.2871zM149.02 -52.3271c8.0332 0.707031 22.8506 -0.418945 28.5977 -7.80664
c12.2363 -15.75 11.1914 -37.9004 10.3643 -57.0352c-0.680664 -15.7539 -23.0576 -19.623 -34.9561 -19.9258c-7.90332 -0.200195 -17.8037 1.76172 -24.7158 5.83594c-4.26562 2.5127 -10.9111 8.17969 -10.2393 14.0908c0.987305 8.74902 1.36133 17.498 2.00586 26.2695
c0.654297 8.91797 0.50293 19.001 5.08008 26.8516c4.81738 8.26855 14.9854 10.9414 23.8633 11.7197z" />
    <glyph glyph-name="at" unicode="@" horiz-adv-x="706" 
d="M591.024 26.666c12.4053 -4.23438 30.5137 -20.2832 15.0889 -32.8125c-76.4092 -62.0742 -158.014 -123.036 -259.224 -133.377c-100.019 -10.2168 -189.336 28.7148 -242.385 115.078c-85.8164 139.715 -64.0977 330.625 21.8564 464.603
c82.1074 127.986 252.838 249.973 411.63 194.887c181.343 -62.9102 115.666 -301.301 49.9756 -427.304c-36.7119 -70.418 -107.356 -167.861 -199.662 -130.842c-39.4385 15.8164 -47.9561 59.0449 -48.085 97.3809
c-0.0175781 4.89258 0.0888672 9.93164 0.280273 15.0508c-20.3662 -21.8877 -44.46 -45.0254 -71.8271 -51.7012c-27.2471 -6.64941 -57.208 3.18945 -67.709 30.8594c-11.9111 31.3799 -2.43262 69.4404 8.74902 99.7217c20.4512 55.3799 62.875 107.58 118.229 130.544
c25.2588 10.4795 58.3281 16.4756 83.1074 1.12598c25.9883 -16.1016 23.5732 -47.7344 18.5068 -73.9678c-0.120117 -0.626953 -0.369141 -1.20117 -0.626953 -1.76562c6.56543 -3.39844 10.9248 -8.71387 10.8984 -16.2393
c-0.0888672 -22.0703 -7.1875 -44.665 -10.6523 -66.4502c-3.31348 -20.8154 -5.35938 -41.8848 -4.74121 -62.9766c0.538086 -18.5566 4.65723 -34.6709 8.78516 -52.3203c4.18066 3.4248 8.2998 6.86719 12.1914 10.8525c52.3291 53.6006 84.749 129.623 105.601 200.579
c17.5732 59.7969 29.1113 134.04 4.36816 193.543c-23.9209 57.5283 -79.8213 76.4316 -137.318 60.1484c-117.503 -33.2744 -207.914 -138.314 -250.688 -249.092c-45.208 -117.076 -45.626 -273.849 36.6504 -375.899c39.3896 -48.8594 93.0176 -68.0781 154.113 -52.1553
c66.0234 17.2041 122.355 62.9941 175.315 103.923c16.0215 12.3828 38.3809 15.1582 57.5732 8.60645zM397.158 328.17c3.05566 20.5889 6.95703 59.0986 -22.4121 60.042c-20.3359 0.654297 -43.9268 -15.1396 -58.9248 -27.4873
c-31.7891 -26.167 -51.6533 -64.1338 -63.2754 -103.093c-6.88477 -23.0889 -12.3955 -52.1914 -5.20801 -75.9648c1.16992 -3.87402 5.37793 -8.88184 6.44531 -12.5518c0.195312 0.09375 0.350586 0.182617 0.564453 0.280273
c4.07422 8.36621 22.2256 20.2021 29.0264 27.2871c32.7002 34.0752 64.5781 74.1279 85.3359 116.702c3.84277 7.88184 15.585 13.0684 28.4482 14.7852z" />
    <glyph glyph-name="A" unicode="A" horiz-adv-x="1006" 
d="M1013.83 129.126c4.61719 10.4883 35.0127 7.55859 29.875 -4.68164c-42.4102 -101.45 -62.666 -210.778 -107.305 -311.361c-31.126 -70.1338 -82.0537 -156.025 -172.656 -127.853c-75.5771 23.502 -104.332 109.519 -118.36 186.986
c-38.167 82.9033 -91.4473 157.191 -174.938 202.262c-9.63867 5.19922 -19.4414 9.92773 -29.3818 14.1885c-33.8213 -73.1982 -68.4873 -146.009 -104.079 -218.366c-40.0479 -81.4268 -85.3086 -160.856 -118.134 -245.459
c-7.56543 -19.4951 -56.834 -7.29004 -46.9775 7.38379c51.417 76.5557 90.3936 160.789 131.176 243.407c33.5371 67.9404 66.2549 136.29 98.2344 204.978c-31.29 -11.9336 -62.3223 -24.5518 -93.1191 -37.6777c-63.5684 -27.0869 -126.003 -56.8828 -190.247 -82.3867
c-32.2334 -12.7969 -65.165 -25.7842 -99.5381 -31.4951c-20.5938 -3.4248 -48.4688 -7.10352 -67.1055 5.35059c-47.2852 31.6016 36.0225 96.375 60.0811 113.521c50.6162 36.0762 108.358 62.4961 168.688 77.3916c78.6377 19.415 162.386 18.2012 239.453 -5.46094
c36.4014 79.0781 71.7842 158.628 106.1 238.631c32.3447 75.4043 62.5898 151.787 101.762 223.949c0.0712891 0.992188 0.125 1.98438 0.196289 2.97656c2.75293 37.9805 97.4824 37.0107 95.9746 0c-4.50977 -110.697 -8.42871 -221.226 -9.44238 -332.025
c-0.213867 -23.6094 -0.338867 -47.2451 -0.347656 -70.8857c24.8145 0.524414 49.2998 -2.8916 72.3438 -14.042c7.57031 -3.66016 5.39062 -10.3008 0 -14.3125c-6.73828 -5.0127 -18.1338 -3.37988 -25.1123 0c-14.5713 7.05859 -30.6943 9.14941 -47.1865 8.71777
c0.168945 -65.2363 1.29395 -130.53 4.08691 -195.611c1.95703 -45.6973 5.00781 -91.5898 13.8457 -136.54c7.65918 -38.9453 17.2266 -88.752 48.1348 -116.617c69.0127 -62.2158 134.992 125.896 150.017 168.645c28.8037 81.9512 48.8682 166.683 83.9619 246.388z
M558.764 353.267c-32.7539 -76.667 -66.5088 -152.899 -101.18 -228.717c53.5029 17.916 107.979 33.0742 163.275 44.3584c-0.733398 28.1992 -1.25781 56.3721 -1.71582 84.4688c-1.35254 82.8408 -0.445312 166.033 3.45996 248.94
c-22.2705 -49.2422 -42.624 -99.3955 -63.8398 -149.051zM115.622 -16.0381c95.0859 38.9404 187.566 83.2988 283.568 119.695c-85.9629 25.0684 -178.936 18.3428 -263.359 -15.083c-52.4795 -20.7754 -109.51 -51.9502 -145.706 -96.3486
c-8.86426 -10.875 -30.8145 -39.043 -7.28125 -46.1104c12.2852 -3.6875 34.2578 3.30859 46.583 6.60449c29.4316 7.87305 58.0449 19.709 86.1953 31.2422zM519.411 73.4521c47.6855 -30.9258 84.7432 -71.249 114.41 -116.884
c-6.9248 63.3057 -10.376 127.168 -12.333 190.994c-31.9795 -6.80566 -63.6572 -14.9404 -95.0098 -24.2275c-20.9941 -6.22266 -41.8232 -12.9521 -62.5322 -20.0371c19.1572 -8.41992 37.7178 -18.3389 55.4648 -29.8457z" />
    <glyph glyph-name="A" unicode="&#xc5;" horiz-adv-x="1006" 
d="M1013.83 129.126c4.61719 10.4883 35.0127 7.55859 29.875 -4.68164c-42.4102 -101.45 -62.666 -210.778 -107.305 -311.361c-31.126 -70.1338 -82.0537 -156.025 -172.656 -127.853c-75.5771 23.502 -104.332 109.519 -118.36 186.986
c-38.167 82.9033 -91.4473 157.191 -174.938 202.262c-9.63867 5.19922 -19.4414 9.92773 -29.3818 14.1885c-33.8213 -73.1982 -68.4873 -146.009 -104.079 -218.366c-40.0479 -81.4268 -85.3086 -160.856 -118.134 -245.459
c-7.56543 -19.4951 -56.834 -7.29004 -46.9775 7.38379c51.417 76.5557 90.3936 160.789 131.176 243.407c33.5371 67.9404 66.2549 136.29 98.2344 204.978c-31.29 -11.9336 -62.3223 -24.5518 -93.1191 -37.6777c-63.5684 -27.0869 -126.003 -56.8828 -190.247 -82.3867
c-32.2334 -12.7969 -65.165 -25.7842 -99.5381 -31.4951c-20.5938 -3.4248 -48.4688 -7.10352 -67.1055 5.35059c-47.2852 31.6016 36.0225 96.375 60.0811 113.521c50.6162 36.0762 108.358 62.4961 168.688 77.3916c78.6377 19.415 162.386 18.2012 239.453 -5.46094
c36.4014 79.0781 71.7842 158.628 106.1 238.631c32.3447 75.4043 62.5898 151.787 101.762 223.949c0.0712891 0.992188 0.125 1.98438 0.196289 2.97656c2.75293 37.9805 97.4824 37.0107 95.9746 0c-4.50977 -110.697 -8.42871 -221.226 -9.44238 -332.025
c-0.213867 -23.6094 -0.338867 -47.2451 -0.347656 -70.8857c24.8145 0.524414 49.2998 -2.8916 72.3438 -14.042c7.57031 -3.66016 5.39062 -10.3008 0 -14.3125c-6.73828 -5.0127 -18.1338 -3.37988 -25.1123 0c-14.5713 7.05859 -30.6943 9.14941 -47.1865 8.71777
c0.168945 -65.2363 1.29395 -130.53 4.08691 -195.611c1.95703 -45.6973 5.00781 -91.5898 13.8457 -136.54c7.65918 -38.9453 17.2266 -88.752 48.1348 -116.617c69.0127 -62.2158 134.992 125.896 150.017 168.645c28.8037 81.9512 48.8682 166.683 83.9619 246.388z
M558.764 353.267c-32.7539 -76.667 -66.5088 -152.899 -101.18 -228.717c53.5029 17.916 107.979 33.0742 163.275 44.3584c-0.733398 28.1992 -1.25781 56.3721 -1.71582 84.4688c-1.35254 82.8408 -0.445312 166.033 3.45996 248.94
c-22.2705 -49.2422 -42.624 -99.3955 -63.8398 -149.051zM115.622 -16.0381c95.0859 38.9404 187.566 83.2988 283.568 119.695c-85.9629 25.0684 -178.936 18.3428 -263.359 -15.083c-52.4795 -20.7754 -109.51 -51.9502 -145.706 -96.3486
c-8.86426 -10.875 -30.8145 -39.043 -7.28125 -46.1104c12.2852 -3.6875 34.2578 3.30859 46.583 6.60449c29.4316 7.87305 58.0449 19.709 86.1953 31.2422zM519.411 73.4521c47.6855 -30.9258 84.7432 -71.249 114.41 -116.884
c-6.9248 63.3057 -10.376 127.168 -12.333 190.994c-31.9795 -6.80566 -63.6572 -14.9404 -95.0098 -24.2275c-20.9941 -6.22266 -41.8232 -12.9521 -62.5322 -20.0371c19.1572 -8.41992 37.7178 -18.3389 55.4648 -29.8457z" />
    <glyph glyph-name="A" unicode="&#xc4;" horiz-adv-x="1006" 
d="M1013.83 129.126c4.61719 10.4883 35.0127 7.55859 29.875 -4.68164c-42.4102 -101.45 -62.666 -210.778 -107.305 -311.361c-31.126 -70.1338 -82.0537 -156.025 -172.656 -127.853c-75.5771 23.502 -104.332 109.519 -118.36 186.986
c-38.167 82.9033 -91.4473 157.191 -174.938 202.262c-9.63867 5.19922 -19.4414 9.92773 -29.3818 14.1885c-33.8213 -73.1982 -68.4873 -146.009 -104.079 -218.366c-40.0479 -81.4268 -85.3086 -160.856 -118.134 -245.459
c-7.56543 -19.4951 -56.834 -7.29004 -46.9775 7.38379c51.417 76.5557 90.3936 160.789 131.176 243.407c33.5371 67.9404 66.2549 136.29 98.2344 204.978c-31.29 -11.9336 -62.3223 -24.5518 -93.1191 -37.6777c-63.5684 -27.0869 -126.003 -56.8828 -190.247 -82.3867
c-32.2334 -12.7969 -65.165 -25.7842 -99.5381 -31.4951c-20.5938 -3.4248 -48.4688 -7.10352 -67.1055 5.35059c-47.2852 31.6016 36.0225 96.375 60.0811 113.521c50.6162 36.0762 108.358 62.4961 168.688 77.3916c78.6377 19.415 162.386 18.2012 239.453 -5.46094
c36.4014 79.0781 71.7842 158.628 106.1 238.631c32.3447 75.4043 62.5898 151.787 101.762 223.949c0.0712891 0.992188 0.125 1.98438 0.196289 2.97656c2.75293 37.9805 97.4824 37.0107 95.9746 0c-4.50977 -110.697 -8.42871 -221.226 -9.44238 -332.025
c-0.213867 -23.6094 -0.338867 -47.2451 -0.347656 -70.8857c24.8145 0.524414 49.2998 -2.8916 72.3438 -14.042c7.57031 -3.66016 5.39062 -10.3008 0 -14.3125c-6.73828 -5.0127 -18.1338 -3.37988 -25.1123 0c-14.5713 7.05859 -30.6943 9.14941 -47.1865 8.71777
c0.168945 -65.2363 1.29395 -130.53 4.08691 -195.611c1.95703 -45.6973 5.00781 -91.5898 13.8457 -136.54c7.65918 -38.9453 17.2266 -88.752 48.1348 -116.617c69.0127 -62.2158 134.992 125.896 150.017 168.645c28.8037 81.9512 48.8682 166.683 83.9619 246.388z
M558.764 353.267c-32.7539 -76.667 -66.5088 -152.899 -101.18 -228.717c53.5029 17.916 107.979 33.0742 163.275 44.3584c-0.733398 28.1992 -1.25781 56.3721 -1.71582 84.4688c-1.35254 82.8408 -0.445312 166.033 3.45996 248.94
c-22.2705 -49.2422 -42.624 -99.3955 -63.8398 -149.051zM115.622 -16.0381c95.0859 38.9404 187.566 83.2988 283.568 119.695c-85.9629 25.0684 -178.936 18.3428 -263.359 -15.083c-52.4795 -20.7754 -109.51 -51.9502 -145.706 -96.3486
c-8.86426 -10.875 -30.8145 -39.043 -7.28125 -46.1104c12.2852 -3.6875 34.2578 3.30859 46.583 6.60449c29.4316 7.87305 58.0449 19.709 86.1953 31.2422zM519.411 73.4521c47.6855 -30.9258 84.7432 -71.249 114.41 -116.884
c-6.9248 63.3057 -10.376 127.168 -12.333 190.994c-31.9795 -6.80566 -63.6572 -14.9404 -95.0098 -24.2275c-20.9941 -6.22266 -41.8232 -12.9521 -62.5322 -20.0371c19.1572 -8.41992 37.7178 -18.3389 55.4648 -29.8457z" />
    <glyph glyph-name="A" unicode="&#xc3;" horiz-adv-x="1006" 
d="M1013.83 129.126c4.61719 10.4883 35.0127 7.55859 29.875 -4.68164c-42.4102 -101.45 -62.666 -210.778 -107.305 -311.361c-31.126 -70.1338 -82.0537 -156.025 -172.656 -127.853c-75.5771 23.502 -104.332 109.519 -118.36 186.986
c-38.167 82.9033 -91.4473 157.191 -174.938 202.262c-9.63867 5.19922 -19.4414 9.92773 -29.3818 14.1885c-33.8213 -73.1982 -68.4873 -146.009 -104.079 -218.366c-40.0479 -81.4268 -85.3086 -160.856 -118.134 -245.459
c-7.56543 -19.4951 -56.834 -7.29004 -46.9775 7.38379c51.417 76.5557 90.3936 160.789 131.176 243.407c33.5371 67.9404 66.2549 136.29 98.2344 204.978c-31.29 -11.9336 -62.3223 -24.5518 -93.1191 -37.6777c-63.5684 -27.0869 -126.003 -56.8828 -190.247 -82.3867
c-32.2334 -12.7969 -65.165 -25.7842 -99.5381 -31.4951c-20.5938 -3.4248 -48.4688 -7.10352 -67.1055 5.35059c-47.2852 31.6016 36.0225 96.375 60.0811 113.521c50.6162 36.0762 108.358 62.4961 168.688 77.3916c78.6377 19.415 162.386 18.2012 239.453 -5.46094
c36.4014 79.0781 71.7842 158.628 106.1 238.631c32.3447 75.4043 62.5898 151.787 101.762 223.949c0.0712891 0.992188 0.125 1.98438 0.196289 2.97656c2.75293 37.9805 97.4824 37.0107 95.9746 0c-4.50977 -110.697 -8.42871 -221.226 -9.44238 -332.025
c-0.213867 -23.6094 -0.338867 -47.2451 -0.347656 -70.8857c24.8145 0.524414 49.2998 -2.8916 72.3438 -14.042c7.57031 -3.66016 5.39062 -10.3008 0 -14.3125c-6.73828 -5.0127 -18.1338 -3.37988 -25.1123 0c-14.5713 7.05859 -30.6943 9.14941 -47.1865 8.71777
c0.168945 -65.2363 1.29395 -130.53 4.08691 -195.611c1.95703 -45.6973 5.00781 -91.5898 13.8457 -136.54c7.65918 -38.9453 17.2266 -88.752 48.1348 -116.617c69.0127 -62.2158 134.992 125.896 150.017 168.645c28.8037 81.9512 48.8682 166.683 83.9619 246.388z
M558.764 353.267c-32.7539 -76.667 -66.5088 -152.899 -101.18 -228.717c53.5029 17.916 107.979 33.0742 163.275 44.3584c-0.733398 28.1992 -1.25781 56.3721 -1.71582 84.4688c-1.35254 82.8408 -0.445312 166.033 3.45996 248.94
c-22.2705 -49.2422 -42.624 -99.3955 -63.8398 -149.051zM115.622 -16.0381c95.0859 38.9404 187.566 83.2988 283.568 119.695c-85.9629 25.0684 -178.936 18.3428 -263.359 -15.083c-52.4795 -20.7754 -109.51 -51.9502 -145.706 -96.3486
c-8.86426 -10.875 -30.8145 -39.043 -7.28125 -46.1104c12.2852 -3.6875 34.2578 3.30859 46.583 6.60449c29.4316 7.87305 58.0449 19.709 86.1953 31.2422zM519.411 73.4521c47.6855 -30.9258 84.7432 -71.249 114.41 -116.884
c-6.9248 63.3057 -10.376 127.168 -12.333 190.994c-31.9795 -6.80566 -63.6572 -14.9404 -95.0098 -24.2275c-20.9941 -6.22266 -41.8232 -12.9521 -62.5322 -20.0371c19.1572 -8.41992 37.7178 -18.3389 55.4648 -29.8457z" />
    <glyph glyph-name="A" unicode="&#xc2;" horiz-adv-x="1006" 
d="M1013.83 129.126c4.61719 10.4883 35.0127 7.55859 29.875 -4.68164c-42.4102 -101.45 -62.666 -210.778 -107.305 -311.361c-31.126 -70.1338 -82.0537 -156.025 -172.656 -127.853c-75.5771 23.502 -104.332 109.519 -118.36 186.986
c-38.167 82.9033 -91.4473 157.191 -174.938 202.262c-9.63867 5.19922 -19.4414 9.92773 -29.3818 14.1885c-33.8213 -73.1982 -68.4873 -146.009 -104.079 -218.366c-40.0479 -81.4268 -85.3086 -160.856 -118.134 -245.459
c-7.56543 -19.4951 -56.834 -7.29004 -46.9775 7.38379c51.417 76.5557 90.3936 160.789 131.176 243.407c33.5371 67.9404 66.2549 136.29 98.2344 204.978c-31.29 -11.9336 -62.3223 -24.5518 -93.1191 -37.6777c-63.5684 -27.0869 -126.003 -56.8828 -190.247 -82.3867
c-32.2334 -12.7969 -65.165 -25.7842 -99.5381 -31.4951c-20.5938 -3.4248 -48.4688 -7.10352 -67.1055 5.35059c-47.2852 31.6016 36.0225 96.375 60.0811 113.521c50.6162 36.0762 108.358 62.4961 168.688 77.3916c78.6377 19.415 162.386 18.2012 239.453 -5.46094
c36.4014 79.0781 71.7842 158.628 106.1 238.631c32.3447 75.4043 62.5898 151.787 101.762 223.949c0.0712891 0.992188 0.125 1.98438 0.196289 2.97656c2.75293 37.9805 97.4824 37.0107 95.9746 0c-4.50977 -110.697 -8.42871 -221.226 -9.44238 -332.025
c-0.213867 -23.6094 -0.338867 -47.2451 -0.347656 -70.8857c24.8145 0.524414 49.2998 -2.8916 72.3438 -14.042c7.57031 -3.66016 5.39062 -10.3008 0 -14.3125c-6.73828 -5.0127 -18.1338 -3.37988 -25.1123 0c-14.5713 7.05859 -30.6943 9.14941 -47.1865 8.71777
c0.168945 -65.2363 1.29395 -130.53 4.08691 -195.611c1.95703 -45.6973 5.00781 -91.5898 13.8457 -136.54c7.65918 -38.9453 17.2266 -88.752 48.1348 -116.617c69.0127 -62.2158 134.992 125.896 150.017 168.645c28.8037 81.9512 48.8682 166.683 83.9619 246.388z
M558.764 353.267c-32.7539 -76.667 -66.5088 -152.899 -101.18 -228.717c53.5029 17.916 107.979 33.0742 163.275 44.3584c-0.733398 28.1992 -1.25781 56.3721 -1.71582 84.4688c-1.35254 82.8408 -0.445312 166.033 3.45996 248.94
c-22.2705 -49.2422 -42.624 -99.3955 -63.8398 -149.051zM115.622 -16.0381c95.0859 38.9404 187.566 83.2988 283.568 119.695c-85.9629 25.0684 -178.936 18.3428 -263.359 -15.083c-52.4795 -20.7754 -109.51 -51.9502 -145.706 -96.3486
c-8.86426 -10.875 -30.8145 -39.043 -7.28125 -46.1104c12.2852 -3.6875 34.2578 3.30859 46.583 6.60449c29.4316 7.87305 58.0449 19.709 86.1953 31.2422zM519.411 73.4521c47.6855 -30.9258 84.7432 -71.249 114.41 -116.884
c-6.9248 63.3057 -10.376 127.168 -12.333 190.994c-31.9795 -6.80566 -63.6572 -14.9404 -95.0098 -24.2275c-20.9941 -6.22266 -41.8232 -12.9521 -62.5322 -20.0371c19.1572 -8.41992 37.7178 -18.3389 55.4648 -29.8457z" />
    <glyph glyph-name="A" unicode="&#xc1;" horiz-adv-x="1006" 
d="M1013.83 129.126c4.61719 10.4883 35.0127 7.55859 29.875 -4.68164c-42.4102 -101.45 -62.666 -210.778 -107.305 -311.361c-31.126 -70.1338 -82.0537 -156.025 -172.656 -127.853c-75.5771 23.502 -104.332 109.519 -118.36 186.986
c-38.167 82.9033 -91.4473 157.191 -174.938 202.262c-9.63867 5.19922 -19.4414 9.92773 -29.3818 14.1885c-33.8213 -73.1982 -68.4873 -146.009 -104.079 -218.366c-40.0479 -81.4268 -85.3086 -160.856 -118.134 -245.459
c-7.56543 -19.4951 -56.834 -7.29004 -46.9775 7.38379c51.417 76.5557 90.3936 160.789 131.176 243.407c33.5371 67.9404 66.2549 136.29 98.2344 204.978c-31.29 -11.9336 -62.3223 -24.5518 -93.1191 -37.6777c-63.5684 -27.0869 -126.003 -56.8828 -190.247 -82.3867
c-32.2334 -12.7969 -65.165 -25.7842 -99.5381 -31.4951c-20.5938 -3.4248 -48.4688 -7.10352 -67.1055 5.35059c-47.2852 31.6016 36.0225 96.375 60.0811 113.521c50.6162 36.0762 108.358 62.4961 168.688 77.3916c78.6377 19.415 162.386 18.2012 239.453 -5.46094
c36.4014 79.0781 71.7842 158.628 106.1 238.631c32.3447 75.4043 62.5898 151.787 101.762 223.949c0.0712891 0.992188 0.125 1.98438 0.196289 2.97656c2.75293 37.9805 97.4824 37.0107 95.9746 0c-4.50977 -110.697 -8.42871 -221.226 -9.44238 -332.025
c-0.213867 -23.6094 -0.338867 -47.2451 -0.347656 -70.8857c24.8145 0.524414 49.2998 -2.8916 72.3438 -14.042c7.57031 -3.66016 5.39062 -10.3008 0 -14.3125c-6.73828 -5.0127 -18.1338 -3.37988 -25.1123 0c-14.5713 7.05859 -30.6943 9.14941 -47.1865 8.71777
c0.168945 -65.2363 1.29395 -130.53 4.08691 -195.611c1.95703 -45.6973 5.00781 -91.5898 13.8457 -136.54c7.65918 -38.9453 17.2266 -88.752 48.1348 -116.617c69.0127 -62.2158 134.992 125.896 150.017 168.645c28.8037 81.9512 48.8682 166.683 83.9619 246.388z
M558.764 353.267c-32.7539 -76.667 -66.5088 -152.899 -101.18 -228.717c53.5029 17.916 107.979 33.0742 163.275 44.3584c-0.733398 28.1992 -1.25781 56.3721 -1.71582 84.4688c-1.35254 82.8408 -0.445312 166.033 3.45996 248.94
c-22.2705 -49.2422 -42.624 -99.3955 -63.8398 -149.051zM115.622 -16.0381c95.0859 38.9404 187.566 83.2988 283.568 119.695c-85.9629 25.0684 -178.936 18.3428 -263.359 -15.083c-52.4795 -20.7754 -109.51 -51.9502 -145.706 -96.3486
c-8.86426 -10.875 -30.8145 -39.043 -7.28125 -46.1104c12.2852 -3.6875 34.2578 3.30859 46.583 6.60449c29.4316 7.87305 58.0449 19.709 86.1953 31.2422zM519.411 73.4521c47.6855 -30.9258 84.7432 -71.249 114.41 -116.884
c-6.9248 63.3057 -10.376 127.168 -12.333 190.994c-31.9795 -6.80566 -63.6572 -14.9404 -95.0098 -24.2275c-20.9941 -6.22266 -41.8232 -12.9521 -62.5322 -20.0371c19.1572 -8.41992 37.7178 -18.3389 55.4648 -29.8457z" />
    <glyph glyph-name="B" unicode="B" horiz-adv-x="564" 
d="M590.893 109.938c6.16016 -0.569336 14.6494 -5.04688 12.2832 -12.3281c-2.47754 -7.60547 -15.5234 -7.55664 -21.6299 -7.00098c-46.5957 4.22559 -93.0137 0.542969 -138.773 -7.63184c2.45996 -19.7881 2.97559 -39.8438 1.60547 -59.6143
c-9.52246 -137.3 -90.1484 -270.41 -211.921 -336.113c-63.1279 -34.0615 -135.348 -50.6562 -206.993 -45.2207c-62.1006 4.71484 -133.053 30.3652 -153.37 95.9043c-21.2959 68.7012 27.9014 129.774 78.002 170.014c16.3193 13.1035 33.3682 25.1396 50.9463 36.3262
c-9.58496 57.7998 -14.8555 116.742 -18.0449 175.089c-7.5127 137.527 -5.60938 276.068 11.3633 412.839c4.46094 35.9736 94.0225 34.6748 91.1094 0c-10.9238 -130.055 -17.9336 -260.305 -14.793 -390.862c0.205078 -8.55273 0.499023 -17.1016 0.75293 -25.6504
c0.969727 6.10254 1.9707 12.2002 3.03418 18.2891c15.9814 91.5938 42.6465 181.564 82.4541 265.699c19.2412 40.6621 41.249 80.1943 68.501 116.079c23.0352 30.334 51.5547 65.1113 89.8643 75.7324c30.0938 8.34375 72.3086 -0.00488281 83.0234 -33.2344
c11.7998 -36.5928 -10.3594 -87.0752 -25.8516 -119.709c-26.3848 -55.585 -66.0908 -109.6 -113.94 -151.569c41.1689 -7.75684 80.0879 -26.6152 112.219 -55.9395c37.1748 -33.9277 59.2188 -79.4199 68.7598 -127.795c49.9268 8.21484 100.374 11.3857 151.399 6.69727z
M313.92 193.709c-27.9951 31.1035 -73.7461 61.2129 -117.619 49.8135c-16.5059 -4.2832 -37.7979 -5.38184 -52.084 5.92871c-2.48633 1.96582 -4.33203 4.06934 -5.63965 6.22656c-25.3301 -85.3096 -39.0469 -173.083 -44.6025 -261.6
c14.749 6.70703 29.6582 13.0625 44.6787 19.0938c72.2686 29.0225 147.356 53.8633 222.743 73.3848c0.244141 0.0664062 0.488281 0.124023 0.733398 0.186523c-6.82715 39.2744 -21.6787 77.4854 -48.21 106.966zM256.439 505.419
c-48.2012 -63.8887 -81.748 -140.271 -107.163 -215.737c-1.24121 -3.68262 -2.34473 -7.39648 -3.54102 -11.0879c0.53418 0.364258 1.06348 0.728516 1.6377 1.0752c39.1143 23.4131 75.707 46.2656 108.95 77.9873c31.2598 29.832 59.5791 63.5332 81.7559 100.69
c14.918 24.9922 48.6904 91.9502 11.4932 112.286c-32.9717 18.0186 -76.6406 -43.3525 -93.1328 -65.2139zM366.803 34.3506c-0.102539 10.1592 -0.666992 20.4863 -1.7168 30.832c-6.13379 -1.67676 -12.2539 -3.37988 -18.3516 -5.14551
c-66.5527 -19.2637 -132.981 -41.209 -197.084 -67.5488c-19.2588 -7.91309 -38.3486 -16.502 -57.1182 -25.7627c-2.04199 -46.1328 -1.98438 -92.4121 -0.302734 -138.603c2.05469 -15.7139 5.1416 -31.1074 12.7256 -45.3623
c7.34375 -13.8018 -22.8926 -15.9727 -29.9111 -13.1084c-25.1973 10.2793 -35.7832 32.2822 -45.0928 56.7852c-10.9414 28.7998 -18.0137 59.1514 -23.8223 89.3877c-8.33496 -5.90625 -16.5547 -11.9688 -24.5166 -18.3779
c-45.4834 -36.623 -95.5078 -97.1582 -65.9873 -158.979c25.668 -53.752 92.6523 -67.3535 146.773 -63.7422c58.5645 3.90918 116.288 27.251 162.715 62.8828c89.8281 68.9414 142.842 184.064 141.689 296.741z" />
    <glyph glyph-name="C" unicode="C" horiz-adv-x="474" 
d="M67.2246 -230.717c-52.3779 47.6982 -71.2812 122.877 -84.1396 189.816c-28.1367 146.476 -9.27344 301.562 41.1738 441.185c23.1289 64.0176 53.6318 129.832 103.216 177.891c45.1143 43.7266 119.842 90.7402 181.275 49.7227
c56.4297 -37.6777 52.6709 -121.831 39.3008 -179.946c-15.9365 -69.2969 -52.9072 -131.349 -91.4521 -190.238c-7.62793 -11.6533 -43.9443 -6.82324 -35.9209 5.64355c38.0244 59.085 75.5059 122.213 89.4277 191.99c6.53809 32.7803 8.69531 68.4346 -0.142578 100.983
c-3.98535 14.6738 -10.3506 29.4805 -21.3857 40.2129c-15.3633 14.9443 -27.3594 15.9629 -44.6699 4.34082c-43.7178 -29.3604 -75.5156 -79.4697 -98.333 -125.745c-27.1719 -55.1045 -47.8008 -113.18 -63.3818 -172.576
c-31.8691 -121.488 -36.8818 -251.592 -12.5791 -374.926c10.6748 -54.1572 26.0781 -115.226 69.2979 -153.055c54.8369 -48.001 116.542 -10.8174 163.19 30.0713c95.1348 83.3926 136.61 204.155 177.526 319.87c4.27441 12.0938 38.3223 9.46484 33.9102 -5.3291
c-42.9482 -144.017 -113.322 -316.993 -262.858 -379.677c-64.3115 -26.958 -131.131 -17.8799 -183.455 29.7656z" />
    <glyph glyph-name="D" unicode="D" horiz-adv-x="586" 
d="M87.3301 -360.963c-88.209 -8.54883 -188.707 27.127 -217.591 118.383c-28.4258 89.8281 15.123 188.743 92.6797 238.372c14.9092 9.53613 30.8232 17.1201 47.3154 23.2979c-1.62793 11.3193 -2.98438 22.4297 -4.38086 32.8906
c-7.01855 52.5781 -10.3896 105.285 -10.9814 158.308c-1.19629 107.384 6.02246 215.337 20.2646 321.765c4.82129 36.0049 94.4893 34.8311 91.46 0c-9.06445 -104.319 -20.2021 -208.363 -21.7188 -313.181c-0.133789 -9.38086 -0.142578 -18.7793 -0.160156 -28.1777
c9.01172 47.2676 19.0996 94.25 29.6631 140.717c13.4414 59.125 29.0312 117.992 52.418 174.057c17.8047 42.6855 40.8223 98.6436 90.8154 110.706c98.0791 23.667 147.663 -111.881 164.298 -183.735c24.3604 -105.244 24.1338 -219.883 6.16895 -326.065
c-2.05469 -12.165 -4.35449 -24.6504 -6.90723 -37.3535c61.0596 7.41016 121.354 19.2188 179.496 41.0928c13.877 5.22168 40.0527 -9.38965 18.0986 -17.6494c-65.2627 -24.5518 -133.297 -37.0986 -202.092 -44.7803
c-39.123 -177.829 -129.339 -389.319 -328.847 -408.646zM130.915 244.596c-13.6055 -67.7578 -23.8369 -135.864 -33.8174 -204.067c3.06055 0.47168 6.12109 0.925781 9.17188 1.36133c53.6455 7.66406 107.82 11.2041 161.87 14.6377
c23.7471 1.5127 47.5518 3.01172 71.3301 4.78223c8.46875 36.0938 15.0957 72.6465 20.0107 109.443c12.6055 94.374 15.0693 193.178 1.10742 287.561c-6 40.5596 -16.3896 89.4014 -46.457 119.38c-20.5176 20.46 -43.6689 26.8203 -65.9658 4.97656
c-15.0469 -14.7441 -24.7168 -34.2607 -33.7725 -53.0127c-43.1973 -89.4766 -64.0312 -188.236 -83.4775 -285.062zM-78.334 -248.181c40.5957 -69.9912 128.401 -89.5078 198.219 -55.0859c81.0176 39.9551 130.58 118.793 165.349 199.116
c20.2822 46.8623 36.4678 95.2412 49.0996 144.559c-8.53125 -0.604492 -17.0625 -1.19141 -25.5889 -1.74707c-55.166 -3.59375 -110.408 -6.48047 -165.339 -12.9121c-16.3906 -1.92188 -33.0117 -4.08789 -49.5039 -7.02832
c-0.569336 -3.89648 -1.14746 -7.79297 -1.7168 -11.6895c0.623047 -7.68164 1.25488 -15.3633 1.85547 -23.0488c1.73926 -22.2031 0.236328 -46.3145 4.61328 -68.0469c3.70996 -18.4316 -37.5566 -13.9971 -45.0693 -6.95605
c-22.9199 21.4785 -33.5371 53.3027 -39.8311 85.7715c-8.62402 -4.06055 -17.0166 -8.64648 -25.085 -13.9258c-72.4375 -47.374 -112.886 -149.896 -67.002 -229.006z" />
    <glyph glyph-name="E" unicode="E" horiz-adv-x="589" 
d="M417.469 -196.166c-84.3535 -83.2764 -210.09 -149.242 -331.258 -111.898c-117.627 36.2539 -122.368 169.516 -98.9727 270.206c15.6025 67.1484 43.0098 131.309 80.5273 188.988c-19.3877 8.26855 -37.6553 18.8896 -53.7383 32.7979
c-39.959 34.5596 -52.5645 87.2705 -40.8223 137.82c22.5283 96.998 118.161 173.665 204.658 213.144c45.4121 20.7314 94.125 34.2041 143.874 38.8027c41.9521 3.88281 111.049 -1.06738 112.539 -57.4795c0.484375 -18.3203 -47.2988 -17.2217 -45.5908 0
c6.14648 61.9268 -102.661 31.1523 -134.948 21.376c-46.7959 -14.1709 -91.332 -36.7217 -130.104 -66.5801c-70.667 -54.4238 -160.852 -165.859 -93.418 -255.945c13.6855 -18.2852 32.0771 -31.7002 53.0127 -41.2764c14.5889 20.2822 30.459 39.666 47.5967 57.9375
c71.3564 76.085 171.988 146.975 281.151 139.89c44.9805 -2.91797 107.455 -25.1348 107.309 -79.7188c-0.137695 -49.8828 -51.5098 -91.4697 -89.3701 -116.311c-83.4727 -54.7666 -191.351 -63.333 -287.548 -45.7949
c-1.91211 0.351562 -3.82422 0.729492 -5.73633 1.09863c-9.9541 -15.2119 -19.2188 -30.8506 -27.665 -46.876c-38.7715 -73.5713 -68.2383 -162.901 -63.7324 -246.947c2.1748 -40.5195 15.8604 -85.5137 49.873 -110.817
c38.207 -28.4219 92.208 -24.3877 135.268 -11.2754c91.8252 27.9639 160.887 99.5029 220.724 171.162c59.2002 70.8984 108.98 146.587 142.526 232.95c4.4082 11.3555 36.5928 8.94922 32.2344 -5.06543c-18.7695 -60.3438 -51.3408 -115.56 -87.9375 -166.745
c-36.1924 -50.6162 -76.1387 -99.6982 -120.452 -143.442zM268.372 272.088c-43.7754 -32.6963 -82.4307 -72.4102 -114.753 -116.644c34.5459 -3.83398 69.8438 -1.73047 99.4795 3.41992c35.6406 6.19629 71.4053 17.9746 102.78 36.1035
c31.0947 17.9648 70.6445 46.0439 81.9512 81.9873c12.6807 40.2969 -24.001 53.5732 -56.2031 48.9697c-41.4805 -5.92871 -80.2168 -29.1602 -113.255 -53.8369z" />
    <glyph glyph-name="E" unicode="&#xcb;" horiz-adv-x="589" 
d="M417.469 -196.166c-84.3535 -83.2764 -210.09 -149.242 -331.258 -111.898c-117.627 36.2539 -122.368 169.516 -98.9727 270.206c15.6025 67.1484 43.0098 131.309 80.5273 188.988c-19.3877 8.26855 -37.6553 18.8896 -53.7383 32.7979
c-39.959 34.5596 -52.5645 87.2705 -40.8223 137.82c22.5283 96.998 118.161 173.665 204.658 213.144c45.4121 20.7314 94.125 34.2041 143.874 38.8027c41.9521 3.88281 111.049 -1.06738 112.539 -57.4795c0.484375 -18.3203 -47.2988 -17.2217 -45.5908 0
c6.14648 61.9268 -102.661 31.1523 -134.948 21.376c-46.7959 -14.1709 -91.332 -36.7217 -130.104 -66.5801c-70.667 -54.4238 -160.852 -165.859 -93.418 -255.945c13.6855 -18.2852 32.0771 -31.7002 53.0127 -41.2764c14.5889 20.2822 30.459 39.666 47.5967 57.9375
c71.3564 76.085 171.988 146.975 281.151 139.89c44.9805 -2.91797 107.455 -25.1348 107.309 -79.7188c-0.137695 -49.8828 -51.5098 -91.4697 -89.3701 -116.311c-83.4727 -54.7666 -191.351 -63.333 -287.548 -45.7949
c-1.91211 0.351562 -3.82422 0.729492 -5.73633 1.09863c-9.9541 -15.2119 -19.2188 -30.8506 -27.665 -46.876c-38.7715 -73.5713 -68.2383 -162.901 -63.7324 -246.947c2.1748 -40.5195 15.8604 -85.5137 49.873 -110.817
c38.207 -28.4219 92.208 -24.3877 135.268 -11.2754c91.8252 27.9639 160.887 99.5029 220.724 171.162c59.2002 70.8984 108.98 146.587 142.526 232.95c4.4082 11.3555 36.5928 8.94922 32.2344 -5.06543c-18.7695 -60.3438 -51.3408 -115.56 -87.9375 -166.745
c-36.1924 -50.6162 -76.1387 -99.6982 -120.452 -143.442zM268.372 272.088c-43.7754 -32.6963 -82.4307 -72.4102 -114.753 -116.644c34.5459 -3.83398 69.8438 -1.73047 99.4795 3.41992c35.6406 6.19629 71.4053 17.9746 102.78 36.1035
c31.0947 17.9648 70.6445 46.0439 81.9512 81.9873c12.6807 40.2969 -24.001 53.5732 -56.2031 48.9697c-41.4805 -5.92871 -80.2168 -29.1602 -113.255 -53.8369z" />
    <glyph glyph-name="E" unicode="&#xca;" horiz-adv-x="589" 
d="M417.469 -196.166c-84.3535 -83.2764 -210.09 -149.242 -331.258 -111.898c-117.627 36.2539 -122.368 169.516 -98.9727 270.206c15.6025 67.1484 43.0098 131.309 80.5273 188.988c-19.3877 8.26855 -37.6553 18.8896 -53.7383 32.7979
c-39.959 34.5596 -52.5645 87.2705 -40.8223 137.82c22.5283 96.998 118.161 173.665 204.658 213.144c45.4121 20.7314 94.125 34.2041 143.874 38.8027c41.9521 3.88281 111.049 -1.06738 112.539 -57.4795c0.484375 -18.3203 -47.2988 -17.2217 -45.5908 0
c6.14648 61.9268 -102.661 31.1523 -134.948 21.376c-46.7959 -14.1709 -91.332 -36.7217 -130.104 -66.5801c-70.667 -54.4238 -160.852 -165.859 -93.418 -255.945c13.6855 -18.2852 32.0771 -31.7002 53.0127 -41.2764c14.5889 20.2822 30.459 39.666 47.5967 57.9375
c71.3564 76.085 171.988 146.975 281.151 139.89c44.9805 -2.91797 107.455 -25.1348 107.309 -79.7188c-0.137695 -49.8828 -51.5098 -91.4697 -89.3701 -116.311c-83.4727 -54.7666 -191.351 -63.333 -287.548 -45.7949
c-1.91211 0.351562 -3.82422 0.729492 -5.73633 1.09863c-9.9541 -15.2119 -19.2188 -30.8506 -27.665 -46.876c-38.7715 -73.5713 -68.2383 -162.901 -63.7324 -246.947c2.1748 -40.5195 15.8604 -85.5137 49.873 -110.817
c38.207 -28.4219 92.208 -24.3877 135.268 -11.2754c91.8252 27.9639 160.887 99.5029 220.724 171.162c59.2002 70.8984 108.98 146.587 142.526 232.95c4.4082 11.3555 36.5928 8.94922 32.2344 -5.06543c-18.7695 -60.3438 -51.3408 -115.56 -87.9375 -166.745
c-36.1924 -50.6162 -76.1387 -99.6982 -120.452 -143.442zM268.372 272.088c-43.7754 -32.6963 -82.4307 -72.4102 -114.753 -116.644c34.5459 -3.83398 69.8438 -1.73047 99.4795 3.41992c35.6406 6.19629 71.4053 17.9746 102.78 36.1035
c31.0947 17.9648 70.6445 46.0439 81.9512 81.9873c12.6807 40.2969 -24.001 53.5732 -56.2031 48.9697c-41.4805 -5.92871 -80.2168 -29.1602 -113.255 -53.8369z" />
    <glyph glyph-name="E" unicode="&#xc9;" horiz-adv-x="589" 
d="M417.469 -196.166c-84.3535 -83.2764 -210.09 -149.242 -331.258 -111.898c-117.627 36.2539 -122.368 169.516 -98.9727 270.206c15.6025 67.1484 43.0098 131.309 80.5273 188.988c-19.3877 8.26855 -37.6553 18.8896 -53.7383 32.7979
c-39.959 34.5596 -52.5645 87.2705 -40.8223 137.82c22.5283 96.998 118.161 173.665 204.658 213.144c45.4121 20.7314 94.125 34.2041 143.874 38.8027c41.9521 3.88281 111.049 -1.06738 112.539 -57.4795c0.484375 -18.3203 -47.2988 -17.2217 -45.5908 0
c6.14648 61.9268 -102.661 31.1523 -134.948 21.376c-46.7959 -14.1709 -91.332 -36.7217 -130.104 -66.5801c-70.667 -54.4238 -160.852 -165.859 -93.418 -255.945c13.6855 -18.2852 32.0771 -31.7002 53.0127 -41.2764c14.5889 20.2822 30.459 39.666 47.5967 57.9375
c71.3564 76.085 171.988 146.975 281.151 139.89c44.9805 -2.91797 107.455 -25.1348 107.309 -79.7188c-0.137695 -49.8828 -51.5098 -91.4697 -89.3701 -116.311c-83.4727 -54.7666 -191.351 -63.333 -287.548 -45.7949
c-1.91211 0.351562 -3.82422 0.729492 -5.73633 1.09863c-9.9541 -15.2119 -19.2188 -30.8506 -27.665 -46.876c-38.7715 -73.5713 -68.2383 -162.901 -63.7324 -246.947c2.1748 -40.5195 15.8604 -85.5137 49.873 -110.817
c38.207 -28.4219 92.208 -24.3877 135.268 -11.2754c91.8252 27.9639 160.887 99.5029 220.724 171.162c59.2002 70.8984 108.98 146.587 142.526 232.95c4.4082 11.3555 36.5928 8.94922 32.2344 -5.06543c-18.7695 -60.3438 -51.3408 -115.56 -87.9375 -166.745
c-36.1924 -50.6162 -76.1387 -99.6982 -120.452 -143.442zM268.372 272.088c-43.7754 -32.6963 -82.4307 -72.4102 -114.753 -116.644c34.5459 -3.83398 69.8438 -1.73047 99.4795 3.41992c35.6406 6.19629 71.4053 17.9746 102.78 36.1035
c31.0947 17.9648 70.6445 46.0439 81.9512 81.9873c12.6807 40.2969 -24.001 53.5732 -56.2031 48.9697c-41.4805 -5.92871 -80.2168 -29.1602 -113.255 -53.8369z" />
    <glyph glyph-name="F" unicode="F" horiz-adv-x="708" 
d="M747.965 582.604c-0.907227 -14.1484 -36.3623 -13.5586 -35.5215 -0.00585938c10.3545 165.939 -181.28 126.496 -311.544 80.4785c28.2256 9.18066 71.0049 0.992188 69.8613 -23.8086c-7.66797 -166.336 -20.7354 -332.4 -19.5566 -499.034
c0.213867 -30.2363 0.783203 -60.499 1.75293 -90.7666c0.102539 0.0224609 0.257812 0.0673828 0.351562 0.0898438c29.6494 6.53418 82.5566 13.8467 96.9717 -22.3672c5.50684 -13.833 -28.5947 -17.0264 -33.2383 -5.22168
c-8.41504 21.3945 -40.9463 13.8379 -63.3369 7.01074c4.89258 -127.715 17.3193 -255.318 42.1201 -380.623c4.94629 -24.9697 -58.0352 -23.7959 -66.957 -5.16406c-35.4268 73.9717 -45.3896 163.738 -55.3887 244.338
c-4.67871 37.7002 -8.30371 75.4668 -11.0615 113.291c-19.6641 -4.72363 -40.124 -7.57422 -60.041 -2.67676c-10.4209 2.55762 -30.2227 9.26953 -28.5898 22.9424c0.675781 5.65723 6.76074 7.68945 11.5908 8.67676
c0.586914 0.120117 1.16992 0.240234 1.75684 0.360352c8.7627 1.79199 21.5947 -5.62695 19.2422 -11.5518c4.83008 -5.75098 27.9102 -2.1748 54.5391 4.31934c-0.849609 13.3838 -1.59277 26.7676 -2.22461 40.1641c-6.48535 43.8604 -14.002 87.543 -23.792 130.847
c-13.8643 61.3271 -32.5322 122.026 -59.5439 178.914c-25.7041 54.1348 -60.2197 111.062 -111.179 144.83c-9.53613 6.32031 -19.9531 11.4883 -30.8057 15.4648c-5.03906 -3.03809 -10.0918 -6.0625 -15.1045 -9.14453
c-28.7686 -17.6982 -57.8525 -35.4541 -89.917 -46.6094c-18.4453 -6.41406 -47.4805 -14.7627 -63.8486 1.20898c-19.4189 18.9521 9.46094 46.4307 24.0762 57.8037c20.1484 15.6738 44.8203 25.3125 70.0889 28.5547c24.0537 3.08691 47.8232 1.52539 70.5693 -4.03418
c2.93066 1.73438 5.83496 3.51367 8.78418 5.21289c112.521 64.9023 237.105 126.509 366.168 148.802c55.7451 9.63379 120.701 14.7803 174.524 -6.57812c54.1074 -21.4746 72.793 -70.3916 69.2529 -125.723zM55.3252 516.708
c14.042 7.82812 27.7793 16.1787 41.4922 24.5713c-27.9102 2.37109 -56.1406 -4.06445 -79.1533 -22.376c-6.96094 -5.53711 -14.7266 -12.7871 -18.916 -20.7002c-7.24512 -13.6768 2.25098 -5.6084 10.9824 -2.69922c15.9326 5.30664 30.9658 13.0508 45.5947 21.2041z
M376.875 639.27c1.06738 11.2178 10.2783 18.9414 22.5322 23.2871c-33.7725 -11.9873 -63.3281 -24.3701 -84.0107 -33.6396c-52.6221 -23.5957 -103.781 -50.1406 -153.646 -79.0205c17.9199 -7.77051 34.8926 -18.0811 50.4424 -30.6729
c48.3838 -39.1768 78.749 -95.2148 103.168 -151.369c16.3281 -37.5439 29.5244 -76.2139 40.4395 -115.555c1.37012 129.205 8.86035 258.445 21.0742 386.97z" />
    <glyph glyph-name="G" unicode="G" horiz-adv-x="699" 
d="M519.579 -384.256c-32.4873 -42.334 -88.4795 -72.9365 -142.507 -57.5029c-51.5908 14.7441 -80.9023 61.8242 -88.5967 112.618c-17.6221 116.293 50.0254 231.67 129.495 310.623c24.4678 24.3076 51.1016 46.5332 79.3145 66.499
c-12.9072 100.143 -34.5684 199.561 -58.209 297.84c-10.7324 -64.9336 -26.8691 -128.907 -53.2363 -189.3c-35.5918 -81.5283 -96.7803 -178.566 -196.372 -181.857c-81.9023 -2.7041 -137.073 60.1836 -160.108 132.034
c-2.50391 -5.52441 -4.94141 -11.0801 -7.28516 -16.6758c-19.2773 -46.0703 -36.3877 -97.4209 -22.1055 -147.264c4.24805 -14.8203 -30.0938 -17.3066 -33.5723 -5.27539c-21.1543 73.207 13.8457 154.157 51.5322 220.612
c-12.2314 80.4658 -2.28613 163.396 20.0596 241.246c24.9658 86.9688 66.3711 168.946 120.528 241.344c49.7266 66.4688 120.74 129.899 205.022 145.169c34.3906 6.23145 79.71 3.10449 100.948 -29c22.8662 -34.5684 13.2236 -76.3203 -5.35059 -110.182
c-44.5273 -81.1729 -121.382 -144.092 -184.443 -210.324c-64.7559 -68.0078 -128.244 -138.497 -180.991 -216.423c-0.0449219 -26.5225 1.80078 -52.9873 5.82129 -79.0469c10.4922 -68.0479 53.0488 -174.778 141.658 -128.646
c36.9922 19.2588 62.7715 56.3896 83.4805 91.332c20.8516 35.1826 37.4023 72.7578 50.5186 111.458c23.3467 68.9014 35.6357 140.792 43.7666 212.94c-2.09473 8.46387 -4.19434 16.9238 -6.28906 25.3701c-10.0254 40.4355 81.5195 46.6807 90.5352 14.2295
c33.5146 -120.612 62.6572 -244.582 77.3525 -369.544c46.8711 23.9824 98.6973 44.1797 151.52 35.3994c21.8564 -3.63379 7.53906 -20.8516 -8.79297 -18.1826c-36.6367 5.98633 -72.0195 -8.90527 -104.622 -24.1172c-12 -5.59961 -23.7822 -11.666 -35.3867 -18.0527
c2.36133 -23.2129 4.26465 -46.457 5.51465 -69.7148c3.8252 -71.1836 2.37109 -142.691 -6.89355 -213.43c-7.93066 -60.5352 -24.4854 -124.904 -62.3057 -174.178zM216.062 596.312c-43.0508 -67.0684 -78.0928 -140.156 -99.7314 -216.966
c-9.31348 -33.0605 -15.9678 -67.2334 -19.5664 -101.735c33.4521 44.0869 69.875 86.0166 107.095 126.736c57.0615 62.4209 120.074 119.932 174.667 184.519c25.9707 30.7305 57.9463 69.5107 60.957 111.387c1.50293 20.9092 -5.09766 44.4297 -25.4736 54.1172
c-14.9717 7.12109 -31.0195 -0.0224609 -44.7949 -6.94727c-64.9697 -32.6602 -114.479 -90.8604 -153.152 -151.11zM330.445 -355.739c17.6758 -52.5957 78.0957 -97.667 124.335 -45.6143c35.1738 39.5947 42.8594 99.9922 48.4277 150.391
c9.96777 90.2021 7.55273 180.146 -2.36621 269.548c-32.7627 -25.7529 -62.9326 -54.9658 -89.1924 -87.1855c-61.2109 -75.1016 -114.167 -189.042 -81.2041 -287.139z" />
    <glyph glyph-name="H" unicode="H" horiz-adv-x="814" 
d="M186.775 195.221c-1.35645 36.0234 -1.89453 72.0811 -1.64551 108.145c-83.708 -26.5576 -176.214 -34.7812 -228.089 41.5342c-7.09473 10.4395 24.1689 14.7275 30.8945 4.85352c45.4121 -66.6377 132.901 -46.9561 197.431 -24.6143
c1.42773 91.1006 8.00195 182.144 19.9756 272.443c4.92773 37.166 97.4111 35.0664 93.542 0c-8.54004 -77.4141 -13.9307 -154.904 -16.4795 -232.398c30.4541 14.0645 60.6016 28.8447 91.0381 42.8818c39.4346 18.1875 79.625 35.4854 121.114 48.5088
c10.7148 95.8643 27.0566 190.919 49.4561 284.817c7.09863 29.7607 97.0693 24.1738 90.5088 -6.9834c-17.9785 -85.3984 -32.6738 -171.473 -42.8906 -258.116c39.0029 1.92578 78.1924 -5.64844 108.518 -32.1084c11.9473 -10.4258 -19.7969 -17.1865 -28.5635 -9.51855
c-22.8975 20.0195 -51.8799 25.459 -81.9922 23.5107c-2.16211 -19.5752 -4.17676 -39.168 -5.85352 -58.8008c-8.32227 -97.4297 -11.4531 -195.669 -7.69434 -293.41c3.54492 -92.2432 12.8633 -191.203 46.2578 -278.007
c12.8896 -33.5098 28.4619 -71.5479 60.4463 -91.2646c49.6777 -30.623 73.0293 54.6064 84.7451 88.1738c31.8418 91.2207 43.4502 187.618 56.9453 282.815c1.77441 12.5254 32.9717 11.9336 31.6904 0c-12.498 -116.476 -26.8203 -240.13 -78.5928 -346.869
c-44.8164 -92.3994 -159.415 -51.4346 -209.653 14.0371c-29.0576 37.8643 -44.5225 84.4824 -56.7051 130.148c-13.9482 52.2891 -22.5146 105.308 -27.083 159.206c-9.55371 112.722 -5.04785 226.924 5.05273 339.454c0.916016 10.2119 1.96973 20.4062 3.01465 30.6006
c-4.6123 -1.6543 -9.10938 -3.29102 -13.4277 -4.87402c-64.4629 -23.6094 -125.313 -55.6689 -187.788 -83.877c-3.01074 -1.36133 -6.09766 -2.75391 -9.24219 -4.15918c-4.41211 -174.671 5.78711 -349.342 28.7471 -523.212
c2.98438 -22.5996 -49.082 -21.3271 -58.667 -9.05566c-20.3975 26.1172 -26.6865 56.3623 -32.7441 88.293c-6.23633 32.8564 -11.4941 65.7656 -15.7549 98.9336c-8.49121 66.0996 -14.002 132.314 -16.5107 198.912z" />
    <glyph glyph-name="I" unicode="I" horiz-adv-x="415" 
d="M249.924 -254.673c-36.543 3.19824 -71.3828 32.7852 -92.5273 60.8379c-54.7217 72.5488 -75.8047 171.322 -86.6172 259.736c-12.4668 101.927 -10.9541 205.713 -5.97656 308.111c4.39844 90.4512 11.3945 181.116 20.877 271.273
c-4.68359 -1.01855 -9.37207 -2.03223 -14.0557 -3.0459c-35.627 -7.72168 -81.8574 -23.2754 -110.471 8.39746c-10.3281 11.4307 19.3838 17.084 26.7627 8.91797c19.1172 -21.1631 63.9873 -2.7666 88.2812 2.49512c3.85645 0.835938 7.70801 1.66797 11.5645 2.50391
c0.952148 8.71289 1.89062 17.4307 2.8916 26.1396c4.11914 35.8896 93.4492 34.6045 90.7627 0c-0.200195 -2.56641 -0.422852 -5.13281 -0.62793 -7.69922c23.3418 2.12207 46.2793 -0.662109 65.9521 -16.3096c11.4307 -9.0918 -18.2988 -15.6523 -26.7627 -8.91797
c-11.4219 9.08691 -25.9619 9.80273 -40.6084 7.7793c-8.00586 -97.1943 -18.3252 -194.121 -23.7822 -291.542c-5.13281 -91.665 -7.61035 -183.459 -3.72266 -275.231c3.53613 -83.499 11.8584 -171.939 40.2754 -251.075
c8.25977 -23.0039 38.4561 -95.041 71.9395 -80.4297c18.5566 8.09961 34.2617 32.9453 44.4922 49.2471c10.7998 17.2041 19.833 35.4932 28.4707 53.8535c37.7979 80.3721 63.6445 165.619 89.4023 250.408c3.27832 10.7861 33.8125 8.34473 29.8896 -4.69629
c-31.3301 -104.164 -60.3701 -218.812 -120.945 -310.605c-19.375 -29.3604 -46.5244 -63.5557 -85.4648 -60.1484z" />
    <glyph glyph-name="I" unicode="&#xcf;" horiz-adv-x="415" 
d="M249.924 -254.673c-36.543 3.19824 -71.3828 32.7852 -92.5273 60.8379c-54.7217 72.5488 -75.8047 171.322 -86.6172 259.736c-12.4668 101.927 -10.9541 205.713 -5.97656 308.111c4.39844 90.4512 11.3945 181.116 20.877 271.273
c-4.68359 -1.01855 -9.37207 -2.03223 -14.0557 -3.0459c-35.627 -7.72168 -81.8574 -23.2754 -110.471 8.39746c-10.3281 11.4307 19.3838 17.084 26.7627 8.91797c19.1172 -21.1631 63.9873 -2.7666 88.2812 2.49512c3.85645 0.835938 7.70801 1.66797 11.5645 2.50391
c0.952148 8.71289 1.89062 17.4307 2.8916 26.1396c4.11914 35.8896 93.4492 34.6045 90.7627 0c-0.200195 -2.56641 -0.422852 -5.13281 -0.62793 -7.69922c23.3418 2.12207 46.2793 -0.662109 65.9521 -16.3096c11.4307 -9.0918 -18.2988 -15.6523 -26.7627 -8.91797
c-11.4219 9.08691 -25.9619 9.80273 -40.6084 7.7793c-8.00586 -97.1943 -18.3252 -194.121 -23.7822 -291.542c-5.13281 -91.665 -7.61035 -183.459 -3.72266 -275.231c3.53613 -83.499 11.8584 -171.939 40.2754 -251.075
c8.25977 -23.0039 38.4561 -95.041 71.9395 -80.4297c18.5566 8.09961 34.2617 32.9453 44.4922 49.2471c10.7998 17.2041 19.833 35.4932 28.4707 53.8535c37.7979 80.3721 63.6445 165.619 89.4023 250.408c3.27832 10.7861 33.8125 8.34473 29.8896 -4.69629
c-31.3301 -104.164 -60.3701 -218.812 -120.945 -310.605c-19.375 -29.3604 -46.5244 -63.5557 -85.4648 -60.1484z" />
    <glyph glyph-name="I" unicode="&#xce;" horiz-adv-x="415" 
d="M249.924 -254.673c-36.543 3.19824 -71.3828 32.7852 -92.5273 60.8379c-54.7217 72.5488 -75.8047 171.322 -86.6172 259.736c-12.4668 101.927 -10.9541 205.713 -5.97656 308.111c4.39844 90.4512 11.3945 181.116 20.877 271.273
c-4.68359 -1.01855 -9.37207 -2.03223 -14.0557 -3.0459c-35.627 -7.72168 -81.8574 -23.2754 -110.471 8.39746c-10.3281 11.4307 19.3838 17.084 26.7627 8.91797c19.1172 -21.1631 63.9873 -2.7666 88.2812 2.49512c3.85645 0.835938 7.70801 1.66797 11.5645 2.50391
c0.952148 8.71289 1.89062 17.4307 2.8916 26.1396c4.11914 35.8896 93.4492 34.6045 90.7627 0c-0.200195 -2.56641 -0.422852 -5.13281 -0.62793 -7.69922c23.3418 2.12207 46.2793 -0.662109 65.9521 -16.3096c11.4307 -9.0918 -18.2988 -15.6523 -26.7627 -8.91797
c-11.4219 9.08691 -25.9619 9.80273 -40.6084 7.7793c-8.00586 -97.1943 -18.3252 -194.121 -23.7822 -291.542c-5.13281 -91.665 -7.61035 -183.459 -3.72266 -275.231c3.53613 -83.499 11.8584 -171.939 40.2754 -251.075
c8.25977 -23.0039 38.4561 -95.041 71.9395 -80.4297c18.5566 8.09961 34.2617 32.9453 44.4922 49.2471c10.7998 17.2041 19.833 35.4932 28.4707 53.8535c37.7979 80.3721 63.6445 165.619 89.4023 250.408c3.27832 10.7861 33.8125 8.34473 29.8896 -4.69629
c-31.3301 -104.164 -60.3701 -218.812 -120.945 -310.605c-19.375 -29.3604 -46.5244 -63.5557 -85.4648 -60.1484z" />
    <glyph glyph-name="I" unicode="&#xcd;" horiz-adv-x="415" 
d="M249.924 -254.673c-36.543 3.19824 -71.3828 32.7852 -92.5273 60.8379c-54.7217 72.5488 -75.8047 171.322 -86.6172 259.736c-12.4668 101.927 -10.9541 205.713 -5.97656 308.111c4.39844 90.4512 11.3945 181.116 20.877 271.273
c-4.68359 -1.01855 -9.37207 -2.03223 -14.0557 -3.0459c-35.627 -7.72168 -81.8574 -23.2754 -110.471 8.39746c-10.3281 11.4307 19.3838 17.084 26.7627 8.91797c19.1172 -21.1631 63.9873 -2.7666 88.2812 2.49512c3.85645 0.835938 7.70801 1.66797 11.5645 2.50391
c0.952148 8.71289 1.89062 17.4307 2.8916 26.1396c4.11914 35.8896 93.4492 34.6045 90.7627 0c-0.200195 -2.56641 -0.422852 -5.13281 -0.62793 -7.69922c23.3418 2.12207 46.2793 -0.662109 65.9521 -16.3096c11.4307 -9.0918 -18.2988 -15.6523 -26.7627 -8.91797
c-11.4219 9.08691 -25.9619 9.80273 -40.6084 7.7793c-8.00586 -97.1943 -18.3252 -194.121 -23.7822 -291.542c-5.13281 -91.665 -7.61035 -183.459 -3.72266 -275.231c3.53613 -83.499 11.8584 -171.939 40.2754 -251.075
c8.25977 -23.0039 38.4561 -95.041 71.9395 -80.4297c18.5566 8.09961 34.2617 32.9453 44.4922 49.2471c10.7998 17.2041 19.833 35.4932 28.4707 53.8535c37.7979 80.3721 63.6445 165.619 89.4023 250.408c3.27832 10.7861 33.8125 8.34473 29.8896 -4.69629
c-31.3301 -104.164 -60.3701 -218.812 -120.945 -310.605c-19.375 -29.3604 -46.5244 -63.5557 -85.4648 -60.1484z" />
    <glyph glyph-name="J" unicode="J" horiz-adv-x="582" 
d="M148.012 -210.56c-28.1416 117.32 60.5537 240.395 150.716 305.889c21.2031 15.4033 45.3057 29.4316 70.9072 40.7695c-3.52246 178.158 -27.7324 355.854 -51.9824 532.272c-0.120117 0.863281 -0.0712891 1.65918 -0.0537109 2.46875
c-31.8506 -10.626 -63.5684 -21.6562 -95.4238 -32.2461c-55.7451 -18.5293 -112.722 -37.0498 -170.757 -47.0264c-34.9424 -6.00488 -104.765 1.34766 -93.125 53.9121c2.72656 12.3076 33.3184 10.8799 30.9961 0.000976562
c-4.73242 -22.1768 11.5645 -38.0195 33.71 -38.7627c14.4736 -0.480469 30.0186 4.24805 44.0205 7.4502c30.8232 7.05469 61.2373 15.8789 91.3936 25.3662c55.1172 17.3379 109.372 37.2861 164.259 55.3311c55.291 18.1738 112.401 36.8682 170.53 43.0059
c35.8633 3.78516 92.9736 7.10742 110.503 -33.1895c6.07617 -13.9707 -28.2656 -16.7549 -33.9102 -5.32812c-14.54 29.4404 -57.9727 21.0742 -84.2373 17.165c-30.6768 -4.57227 -60.7266 -12.6143 -90.4736 -21.2471
c-2.93066 -0.853516 -5.84863 -1.75195 -8.77539 -2.61914c12.707 -3.52734 24.1152 -10.8311 26.2812 -24.2764c26.8066 -166.491 47.4219 -335.526 47.6445 -504.384c0 -0.631836 -0.0136719 -1.25879 -0.0136719 -1.88574
c57.5635 7.17871 115.025 -4.73242 159.588 -48.7969c11.249 -11.124 -19.5967 -16.9062 -27.665 -9.21582c-38.5801 36.7393 -85.1309 46.1416 -132.06 39.0068c-0.773438 -68.7988 -5.8125 -137.202 -15.6377 -205.396
c-9.17578 -63.6973 -22.3232 -133.777 -61.4512 -186.702c-30.5479 -41.3154 -78.166 -79.4824 -132.71 -69.417c-52.9785 9.77637 -90.2334 57.666 -102.273 107.855zM362.611 -77.998c5.77734 63.0479 7.93457 126.078 7.3916 189.051
c-41.498 -22.666 -78.9668 -53.7432 -106.116 -84.3311c-65.2939 -73.5674 -125.157 -202.368 -53.3252 -291.191c18.3789 -22.7236 48.3926 -43.9482 78.1846 -30.3291c22.2656 10.1768 34.1328 35.3916 42.3877 57.0566c19.3789 50.8564 26.5312 105.818 31.4775 159.744z
" />
    <glyph glyph-name="K" unicode="K" horiz-adv-x="753" 
d="M696.086 -110.35c-58.6533 -44.0068 -136.347 -40.2246 -201.129 -11.8203c-114.482 50.1846 -176.592 171.57 -234.569 275.876c1.56543 -34.3457 3.45996 -68.6787 5.48828 -102.989c2.25098 -38.127 5.45801 -76.3291 10.4258 -114.202
c4.74121 -36.165 9.18945 -72.873 22.417 -107.086c10.6523 -27.5498 -49.5361 -26.8604 -61.0518 -9.59375c-42.3477 63.4971 -53.4668 143.847 -62.4072 218.13c-8.61133 71.543 -12.6279 143.749 -15.0566 215.777c-22.6123 -4.24316 -45.6436 -6.00879 -68.6299 -4.75
c-56.7363 3.11328 -122.208 28.7812 -131.638 92.1055c-9.5625 64.2227 56.208 94.7617 110.97 83.3135c31.6328 -6.61426 60.8682 -22.1279 87.2617 -42.0635c0.835938 116.658 10.417 234.445 41.2803 346.1c7.62402 27.5859 90.8916 25.0283 87.0928 -6.71582
c-9.06934 -75.8359 -19.5039 -151.556 -24.748 -227.787c-4.06934 -59.1699 -5.52832 -118.504 -5.43066 -177.812c12.5205 7.93457 24.5381 16.5986 35.8936 25.8906c106.583 87.2178 163.76 224.998 162.421 361.368c-0.128906 13.2236 33.6123 13.2324 33.7773 0
c1.96582 -159.086 -75.3994 -321.472 -213.643 -405.197c-5.97363 -3.61621 -12.085 -7.04102 -18.2852 -10.3281c0.0400391 -3.91895 0.0712891 -7.83789 0.120117 -11.7568c70.7559 -99.7158 117.298 -215.685 198.6 -308.15
c49.5752 -56.3848 122.319 -118.601 200.019 -72.4541c66.7891 39.666 88.9658 122.164 106.353 192.462c3.05566 12.3516 37.8604 9.94043 34.2441 -5.38281c-16.8398 -71.2939 -38.3896 -146.876 -99.7744 -192.934zM19.2334 296.873
c24.6768 -22.9287 59.875 -28.8604 92.4238 -28.002c16.1768 0.426758 32.1797 2.55273 47.8721 6.08398c-0.404297 13.7793 -0.728516 27.6123 -0.96875 41.4766c-1.23633 1.59668 -2.41016 3.23828 -3.66016 4.82617c-18.6582 23.7383 -39.3672 45.9814 -62.5713 65.3428
c-27.6787 23.0977 -74.1543 30.5918 -92.3418 -8.63379c-12.5254 -27.0166 -1.78809 -61.5498 19.2461 -81.0938z" />
    <glyph glyph-name="L" unicode="L" horiz-adv-x="266" 
d="M65.0303 -87.71c-12.5469 -36.8682 -29.5312 -71.958 -54.1768 -102.857c-38.8965 -48.7705 -98.8135 -78.0059 -160.679 -78.709c-48.9307 -0.555664 -101.455 19.8955 -126.527 64.3779c-11.6982 20.7539 -16.6357 48.6777 -5.04883 70.5166
c12.7256 23.9824 40.7998 33.2832 65.5342 39.3232c60.2148 14.7139 121.84 6.20996 182.944 9.35449c0.494141 1.58301 1.00098 3.17969 1.47656 4.75391c36.8945 122.218 38.6602 254.821 34.6172 381.371c-4.22559 132.243 -18.8809 263.062 -29.1953 394.794
c-2.1084 26.8965 65.0801 28.1328 72.4189 5.58691c25.7881 -79.2471 37.6592 -162.84 46.1318 -245.498c8.28223 -80.7725 12.6631 -162.234 12.957 -243.438c0.257812 -71.6416 -4.11914 -142.998 -18.1338 -213.367
c-4.11914 -20.6553 -8.83789 -41.3291 -14.6465 -61.6338c83.6455 33.0566 154.001 98.6885 203.599 173.172c6.75195 10.1406 38.2783 5.69238 31.2285 -4.91113c-58.1201 -87.4531 -141.419 -161.202 -242.5 -192.835zM-114.385 -219.731
c37.8291 27.1582 60.2021 71.8428 75.4629 115.738c-30.6504 -0.992188 -61.4424 0.0263672 -92.3594 -0.489258c-30.5703 -0.511719 -62.9775 -2.43359 -91.7197 -13.8604c-32.6025 -12.9609 -39.4082 -46.4844 -23.8496 -75.9688
c13.6367 -25.8555 40.0127 -41.9658 68.5771 -45.8311c22.9912 -3.11328 45.3994 7.13867 63.8887 20.4111z" />
    <glyph glyph-name="M" unicode="M" horiz-adv-x="723" 
d="M213.783 566.014c-38.2295 -96.2998 -59.5527 -200.873 -78.3623 -302.426c-18.1826 -98.1416 -29.8008 -197.182 -45.3594 -295.701c2.74023 -16.9902 5.77832 -37.3076 -0.662109 -50.0732c-6.2002 -12.2891 -28.1504 -13.2051 -39.0605 -9.05957
c-23.4268 8.90039 -29.5029 37.9316 -35.5029 60.126c-6.89844 25.5215 -11.9775 51.9639 -16.4033 78.0146c-9.20215 54.1699 -15.4424 108.847 -18.4717 163.702c-6.11621 110.773 -3.10938 222.454 12.3154 332.382c5.29297 37.7129 99.1201 35.458 94.9346 0
c-12.5205 -106.085 -19.5215 -212.553 -16.5459 -319.412c0.969727 -34.915 2.62012 -69.8838 4.96875 -104.781c8.27734 55.4551 17.7422 110.741 28.1768 165.637c17.4395 91.7539 37.708 184.789 69.6211 272.736c12.9922 35.8008 30.957 85.1455 62.75 108.888
c24.6055 18.374 58.9336 8.41113 71.4541 -18.8271c39.4346 -85.79 32.002 -193.672 27.7451 -285.697c-2.27246 -49.1846 -4.75879 -98.3955 -4.90527 -147.642c-0.0751953 -25.2012 0.499023 -50.4785 1.68262 -75.6533
c0.133789 -2.81055 0.333984 -5.6123 0.511719 -8.41895c4.41211 11.6182 8.18848 23.543 11.8887 35.3789c8.88184 28.3994 16.0918 57.1416 22.7236 86.1416c12.0713 52.7822 22.915 105.947 38.625 157.817c7.65918 25.29 16.4707 50.2598 27.1543 74.4424
c7.94824 17.9873 16.0791 38.4385 29.8945 52.9072c11.5732 12.1201 28.1543 19.6992 45.127 16.6299c19.3838 -3.50977 25.2725 -16.2441 31.2412 -32.9102c9.01562 -25.166 19.4053 -47.8145 22.2432 -74.6748c2.78027 -26.2959 4.13672 -52.4443 4.00293 -78.8867
c-0.275391 -54.3701 -4.62109 -108.265 -10.2383 -162.302c-5.74707 -55.3047 -10.3506 -110.867 -10.3682 -166.51c-0.00878906 -26.7939 -2.55273 -53.917 -1.41406 -80.6572c0.898438 -21.1631 2.03711 -47.6055 17.1016 -64.04
c39.5947 -43.1885 96.5762 57.4619 112.121 84.918c25.6504 45.3145 43.8594 94.2852 60.5566 143.46c3.65625 10.7598 34.1992 8.11328 29.8896 -4.69629c-17.3418 -51.5635 -36.5078 -102.918 -63.4619 -150.345c-21.2959 -37.4775 -50.9492 -87.0977 -94.1602 -101.922
c-42.4902 -14.5752 -87.5068 7.7041 -114.296 40.8096c-33.2031 41.0225 -37.8818 102.599 -37.5039 153.269c0.774414 103.635 22.9287 205.517 35.1777 308.013c3.12695 26.1758 6.10254 52.5645 7.57031 78.8867c1.30371 23.3779 11.4043 49.0107 10.0518 72.1484
c-2.47754 42.3613 -34.9688 -20.6553 -40.124 -31.9707c-8.86426 -19.4551 -16.4609 -39.4609 -23.1816 -59.752c-29.5518 -89.2373 -42.3613 -182.936 -68.0742 -273.231c-6.60938 -23.209 -13.9131 -46.1465 -20.167 -69.4443
c-4.30566 -16.0254 -14.4775 -26.749 -30.6543 -31.335c-22.5947 -6.40918 -56.2559 -0.618164 -68.9453 21.6211c-10.168 17.8223 -10.333 44.749 -11.9746 64.6484c-8.7041 105.467 8.9668 211.294 17.9561 316.143c4.32812 50.4609 6.07617 100.891 9.29688 151.355
c0.586914 9.16211 8.79785 39.7051 -3.3584 45.0293c-8.39258 3.68262 -19.5029 -18.1426 -22.9189 -23.4443c-12.3965 -19.2373 -22.2354 -40.0527 -30.668 -61.291zM335.214 81.4131c1.08496 -1.39648 2.62012 -1.14746 0 0z" />
    <glyph glyph-name="N" unicode="N" horiz-adv-x="478" 
d="M138.154 406.351c-16.9062 -65.7344 -29.3828 -132.579 -38.5947 -199.799c-7.33887 -53.4941 -11.0889 -107.242 -16.3818 -160.86c0.635742 -13.2363 1.2002 -26.4727 1.5918 -39.7051c0.694336 -23.249 2.04199 -45.3545 -5.6709 -67.6113
c-5.7373 -16.5635 -40.5771 -13.7568 -50.2383 -3.74512c-16.5547 17.1553 -19.7041 44.6162 -24.1738 67.002c-5.18652 25.9668 -9.05176 52.1777 -12.3125 78.4551c-6.4668 52.1064 -10.4258 104.965 -12.3516 157.427c-3.91895 106.557 -2.61621 213.416 8.17383 319.537
c3.8291 37.6465 97.5049 36.5566 95.2812 0c-5.68457 -93.3242 -9.86133 -186.737 -8.98535 -280.23c9.40723 54.5703 21.1895 108.771 35.9873 162.114c15.4561 55.7178 34.9287 111.111 66.0596 160.188c22.5332 35.5156 57.0977 74.6211 100.749 42.5654
c44.625 -32.7715 47.5068 -106.423 50.8467 -156.416c4.23926 -63.5195 1.73926 -127.363 -2.91797 -190.78c-9.2334 -125.824 -16.1768 -250.266 -2.62891 -376.09c1.9834 -18.4492 10.7012 -63.2793 35.7734 -61.5c9.50098 0.675781 22.4756 17.2881 28.2891 24.0889
c10.7812 12.6182 20.3623 26.4111 29.4092 40.3066c32.6201 50.1094 55.3486 105.885 67.8203 164.329c2.95801 13.8594 37.3662 12.249 34.8174 0c-13.0186 -62.625 -36.6191 -122.377 -71.2949 -176.24c-14.4551 -22.4531 -30.6719 -49.1582 -52.4971 -65.1836
c-22.3018 -16.3721 -48.7217 -16.9365 -74.7549 -10.8477c-56.8965 13.3125 -76.9961 71.9307 -87.7686 122.934c-13.1787 62.4121 -13.2539 125.598 -9.84277 189.032c6.85449 127.431 30.3213 253.535 32.0781 381.299c0.40918 29.7471 5.78223 64.6045 -5.02148 93.2529
c-3.67871 9.75 -4.46191 15.0742 -14.083 5.86719c-5.94238 -5.68457 -10.8613 -12.917 -15.5049 -19.5889c-7.16504 -10.3008 -13.7656 -20.998 -19.8906 -31.9443c-29.2578 -52.293 -47.1074 -110.093 -61.9629 -167.856z" />
    <glyph glyph-name="O" unicode="O" horiz-adv-x="446" 
d="M463.771 139.066c12.2314 4.24316 35.748 -7.53027 16.1777 -15.7764c-45.6572 -19.2148 -97.915 -17.5557 -146.592 -17.0527c-3.37109 0.0351562 -6.75098 0.0888672 -10.1309 0.160156c-2.50391 -12.627 -5.2041 -25.21 -8.10449 -37.7129
c-9.02051 -38.8691 -20.4873 -78.6191 -42.3926 -112.4c-44.8428 -69.1592 -140.773 -100.548 -211.356 -48.459c-68.3096 50.4072 -86.2207 143.7 -85.3398 223.432c0.663086 60.3262 9.8125 121.146 25.8555 179.835c-26.4824 77.0186 -25.9043 165.459 4.3584 241.063
c27.9902 69.9375 96.9941 125.077 175.463 105.818c80.4297 -19.7393 121.937 -104.328 139.799 -178.113c21.3984 -88.3877 24.1514 -184.287 16.1807 -274.573c-2.31738 -26.2734 -6 -52.5068 -10.6484 -78.5537c5.98633 -0.133789 11.9727 -0.231445 17.9551 -0.262695
c40.0127 -0.213867 80.5195 -0.676758 118.775 12.5957zM22.9961 466.672c-3.40723 -29.1865 -3.11719 -58.7842 0.819336 -87.8418c3.45996 9.22949 7.05371 18.3916 10.8477 27.4434c13.2988 31.7266 104.751 24.0137 90.5361 -14.2285
c-19.1299 -51.4658 -34.3457 -104.337 -44.3174 -158.205c37.46 -50.6826 90.665 -84.7305 153.544 -97.8164c18.0586 -3.75879 36.3301 -6.08496 54.6816 -7.50781c9.21191 45.3193 13.2812 91.7148 14.1748 138.128c1.46289 75.9824 -2.4248 156.542 -24.1885 229.784
c-17.2402 58.0264 -63.5195 153.424 -138.438 142.998c-78.0107 -10.8574 -109.889 -106.17 -117.659 -172.754zM261.699 35.835c9.49609 23.6006 17.0059 47.752 22.9082 72.2686c-33.083 2.35254 -65.9795 7.29395 -97.6924 17.1152
c-43.4062 13.4414 -81.3867 37.291 -112.428 68.3369c-2.61133 -19.459 -4.54199 -39.0254 -5.6543 -58.6934c-3.86523 -68.3672 2.89062 -160.958 63.2295 -205.717c26.9092 -19.9619 59.4541 3.28711 79.3047 23.5732c22.835 23.3379 38.2471 53.0801 50.332 83.1162z" />
    <glyph glyph-name="O" unicode="&#xd6;" horiz-adv-x="446" 
d="M463.771 139.066c12.2314 4.24316 35.748 -7.53027 16.1777 -15.7764c-45.6572 -19.2148 -97.915 -17.5557 -146.592 -17.0527c-3.37109 0.0351562 -6.75098 0.0888672 -10.1309 0.160156c-2.50391 -12.627 -5.2041 -25.21 -8.10449 -37.7129
c-9.02051 -38.8691 -20.4873 -78.6191 -42.3926 -112.4c-44.8428 -69.1592 -140.773 -100.548 -211.356 -48.459c-68.3096 50.4072 -86.2207 143.7 -85.3398 223.432c0.663086 60.3262 9.8125 121.146 25.8555 179.835c-26.4824 77.0186 -25.9043 165.459 4.3584 241.063
c27.9902 69.9375 96.9941 125.077 175.463 105.818c80.4297 -19.7393 121.937 -104.328 139.799 -178.113c21.3984 -88.3877 24.1514 -184.287 16.1807 -274.573c-2.31738 -26.2734 -6 -52.5068 -10.6484 -78.5537c5.98633 -0.133789 11.9727 -0.231445 17.9551 -0.262695
c40.0127 -0.213867 80.5195 -0.676758 118.775 12.5957zM22.9961 466.672c-3.40723 -29.1865 -3.11719 -58.7842 0.819336 -87.8418c3.45996 9.22949 7.05371 18.3916 10.8477 27.4434c13.2988 31.7266 104.751 24.0137 90.5361 -14.2285
c-19.1299 -51.4658 -34.3457 -104.337 -44.3174 -158.205c37.46 -50.6826 90.665 -84.7305 153.544 -97.8164c18.0586 -3.75879 36.3301 -6.08496 54.6816 -7.50781c9.21191 45.3193 13.2812 91.7148 14.1748 138.128c1.46289 75.9824 -2.4248 156.542 -24.1885 229.784
c-17.2402 58.0264 -63.5195 153.424 -138.438 142.998c-78.0107 -10.8574 -109.889 -106.17 -117.659 -172.754zM261.699 35.835c9.49609 23.6006 17.0059 47.752 22.9082 72.2686c-33.083 2.35254 -65.9795 7.29395 -97.6924 17.1152
c-43.4062 13.4414 -81.3867 37.291 -112.428 68.3369c-2.61133 -19.459 -4.54199 -39.0254 -5.6543 -58.6934c-3.86523 -68.3672 2.89062 -160.958 63.2295 -205.717c26.9092 -19.9619 59.4541 3.28711 79.3047 23.5732c22.835 23.3379 38.2471 53.0801 50.332 83.1162z" />
    <glyph glyph-name="O" unicode="&#xd5;" horiz-adv-x="446" 
d="M463.771 139.066c12.2314 4.24316 35.748 -7.53027 16.1777 -15.7764c-45.6572 -19.2148 -97.915 -17.5557 -146.592 -17.0527c-3.37109 0.0351562 -6.75098 0.0888672 -10.1309 0.160156c-2.50391 -12.627 -5.2041 -25.21 -8.10449 -37.7129
c-9.02051 -38.8691 -20.4873 -78.6191 -42.3926 -112.4c-44.8428 -69.1592 -140.773 -100.548 -211.356 -48.459c-68.3096 50.4072 -86.2207 143.7 -85.3398 223.432c0.663086 60.3262 9.8125 121.146 25.8555 179.835c-26.4824 77.0186 -25.9043 165.459 4.3584 241.063
c27.9902 69.9375 96.9941 125.077 175.463 105.818c80.4297 -19.7393 121.937 -104.328 139.799 -178.113c21.3984 -88.3877 24.1514 -184.287 16.1807 -274.573c-2.31738 -26.2734 -6 -52.5068 -10.6484 -78.5537c5.98633 -0.133789 11.9727 -0.231445 17.9551 -0.262695
c40.0127 -0.213867 80.5195 -0.676758 118.775 12.5957zM22.9961 466.672c-3.40723 -29.1865 -3.11719 -58.7842 0.819336 -87.8418c3.45996 9.22949 7.05371 18.3916 10.8477 27.4434c13.2988 31.7266 104.751 24.0137 90.5361 -14.2285
c-19.1299 -51.4658 -34.3457 -104.337 -44.3174 -158.205c37.46 -50.6826 90.665 -84.7305 153.544 -97.8164c18.0586 -3.75879 36.3301 -6.08496 54.6816 -7.50781c9.21191 45.3193 13.2812 91.7148 14.1748 138.128c1.46289 75.9824 -2.4248 156.542 -24.1885 229.784
c-17.2402 58.0264 -63.5195 153.424 -138.438 142.998c-78.0107 -10.8574 -109.889 -106.17 -117.659 -172.754zM261.699 35.835c9.49609 23.6006 17.0059 47.752 22.9082 72.2686c-33.083 2.35254 -65.9795 7.29395 -97.6924 17.1152
c-43.4062 13.4414 -81.3867 37.291 -112.428 68.3369c-2.61133 -19.459 -4.54199 -39.0254 -5.6543 -58.6934c-3.86523 -68.3672 2.89062 -160.958 63.2295 -205.717c26.9092 -19.9619 59.4541 3.28711 79.3047 23.5732c22.835 23.3379 38.2471 53.0801 50.332 83.1162z" />
    <glyph glyph-name="O" unicode="&#xd4;" horiz-adv-x="446" 
d="M463.771 139.066c12.2314 4.24316 35.748 -7.53027 16.1777 -15.7764c-45.6572 -19.2148 -97.915 -17.5557 -146.592 -17.0527c-3.37109 0.0351562 -6.75098 0.0888672 -10.1309 0.160156c-2.50391 -12.627 -5.2041 -25.21 -8.10449 -37.7129
c-9.02051 -38.8691 -20.4873 -78.6191 -42.3926 -112.4c-44.8428 -69.1592 -140.773 -100.548 -211.356 -48.459c-68.3096 50.4072 -86.2207 143.7 -85.3398 223.432c0.663086 60.3262 9.8125 121.146 25.8555 179.835c-26.4824 77.0186 -25.9043 165.459 4.3584 241.063
c27.9902 69.9375 96.9941 125.077 175.463 105.818c80.4297 -19.7393 121.937 -104.328 139.799 -178.113c21.3984 -88.3877 24.1514 -184.287 16.1807 -274.573c-2.31738 -26.2734 -6 -52.5068 -10.6484 -78.5537c5.98633 -0.133789 11.9727 -0.231445 17.9551 -0.262695
c40.0127 -0.213867 80.5195 -0.676758 118.775 12.5957zM22.9961 466.672c-3.40723 -29.1865 -3.11719 -58.7842 0.819336 -87.8418c3.45996 9.22949 7.05371 18.3916 10.8477 27.4434c13.2988 31.7266 104.751 24.0137 90.5361 -14.2285
c-19.1299 -51.4658 -34.3457 -104.337 -44.3174 -158.205c37.46 -50.6826 90.665 -84.7305 153.544 -97.8164c18.0586 -3.75879 36.3301 -6.08496 54.6816 -7.50781c9.21191 45.3193 13.2812 91.7148 14.1748 138.128c1.46289 75.9824 -2.4248 156.542 -24.1885 229.784
c-17.2402 58.0264 -63.5195 153.424 -138.438 142.998c-78.0107 -10.8574 -109.889 -106.17 -117.659 -172.754zM261.699 35.835c9.49609 23.6006 17.0059 47.752 22.9082 72.2686c-33.083 2.35254 -65.9795 7.29395 -97.6924 17.1152
c-43.4062 13.4414 -81.3867 37.291 -112.428 68.3369c-2.61133 -19.459 -4.54199 -39.0254 -5.6543 -58.6934c-3.86523 -68.3672 2.89062 -160.958 63.2295 -205.717c26.9092 -19.9619 59.4541 3.28711 79.3047 23.5732c22.835 23.3379 38.2471 53.0801 50.332 83.1162z" />
    <glyph glyph-name="O" unicode="&#xd3;" horiz-adv-x="446" 
d="M463.771 139.066c12.2314 4.24316 35.748 -7.53027 16.1777 -15.7764c-45.6572 -19.2148 -97.915 -17.5557 -146.592 -17.0527c-3.37109 0.0351562 -6.75098 0.0888672 -10.1309 0.160156c-2.50391 -12.627 -5.2041 -25.21 -8.10449 -37.7129
c-9.02051 -38.8691 -20.4873 -78.6191 -42.3926 -112.4c-44.8428 -69.1592 -140.773 -100.548 -211.356 -48.459c-68.3096 50.4072 -86.2207 143.7 -85.3398 223.432c0.663086 60.3262 9.8125 121.146 25.8555 179.835c-26.4824 77.0186 -25.9043 165.459 4.3584 241.063
c27.9902 69.9375 96.9941 125.077 175.463 105.818c80.4297 -19.7393 121.937 -104.328 139.799 -178.113c21.3984 -88.3877 24.1514 -184.287 16.1807 -274.573c-2.31738 -26.2734 -6 -52.5068 -10.6484 -78.5537c5.98633 -0.133789 11.9727 -0.231445 17.9551 -0.262695
c40.0127 -0.213867 80.5195 -0.676758 118.775 12.5957zM22.9961 466.672c-3.40723 -29.1865 -3.11719 -58.7842 0.819336 -87.8418c3.45996 9.22949 7.05371 18.3916 10.8477 27.4434c13.2988 31.7266 104.751 24.0137 90.5361 -14.2285
c-19.1299 -51.4658 -34.3457 -104.337 -44.3174 -158.205c37.46 -50.6826 90.665 -84.7305 153.544 -97.8164c18.0586 -3.75879 36.3301 -6.08496 54.6816 -7.50781c9.21191 45.3193 13.2812 91.7148 14.1748 138.128c1.46289 75.9824 -2.4248 156.542 -24.1885 229.784
c-17.2402 58.0264 -63.5195 153.424 -138.438 142.998c-78.0107 -10.8574 -109.889 -106.17 -117.659 -172.754zM261.699 35.835c9.49609 23.6006 17.0059 47.752 22.9082 72.2686c-33.083 2.35254 -65.9795 7.29395 -97.6924 17.1152
c-43.4062 13.4414 -81.3867 37.291 -112.428 68.3369c-2.61133 -19.459 -4.54199 -39.0254 -5.6543 -58.6934c-3.86523 -68.3672 2.89062 -160.958 63.2295 -205.717c26.9092 -19.9619 59.4541 3.28711 79.3047 23.5732c22.835 23.3379 38.2471 53.0801 50.332 83.1162z" />
    <glyph glyph-name="P" unicode="P" horiz-adv-x="586" 
d="M200.672 206.749c-4.26562 -38.2383 -6.44336 -76.7041 -6.30078 -115.138c0.0175781 -3.99414 0.0664062 -8.00586 0.128906 -12.0176c1.67676 -17.4307 3.55371 -34.8574 5.74609 -52.2793c4.92773 -39.1006 11.457 -78.3086 21.0244 -116.569
c4.24316 -16.9727 8.71289 -34.1279 14.0234 -50.834c0.44043 -0.996094 0.84082 -2.00977 1.29492 -3.00195c0.475586 -1.04102 0.649414 -2.00195 0.694336 -2.91797c5.04785 -13.7441 13.0537 -24.334 19.6455 -37.3262
c8.3623 -16.4707 -23.9287 -19.8154 -32.5264 -18.5391c-40.4883 6.00879 -59.8984 41.5693 -74.7227 76.2441c-16.3994 38.3584 -26.7939 79.1143 -35.418 119.816c-16.083 75.9062 -24.3115 153.939 -26.1748 231.63c-32.7451 14.9141 -62.0605 39.0654 -85.6211 74.8574
c-20.0244 30.4189 -35.3604 67.8965 -42.5928 103.59c-6.47168 31.9531 24.4316 45.3594 49.8291 28.3555c16.332 -10.9326 28.3896 -31.6465 39.5537 -47.5518c13.4502 -19.1572 25.9531 -38.9678 39.6348 -57.96c5.52832 150.786 29.8486 301.403 69.915 446.54
c7.90332 28.6348 94.9297 24.1689 88.8008 -6.85059c-24.7344 -125.126 -46.916 -250.84 -56.5059 -377.879c8.93555 30.2852 19.2812 60.1436 31.1035 89.3877c31.6689 78.3223 71.6641 156.706 132.537 216.556c52.502 51.6211 137.855 103.999 208.745 55.1836
c68.123 -46.9111 66.1035 -151.417 48.957 -223.16c-20.46 -85.6025 -73.127 -157.159 -142.14 -210.622c-70.1953 -54.3789 -173.221 -104.346 -269.632 -109.514zM224.358 338.96c-7.02344 -28.0791 -12.75 -56.4961 -17.3223 -85.1045
c34.6533 3.30957 69.3682 15.8525 102.949 30.5303c67.0957 29.3291 129.65 72.1885 177.237 128.155c48.9131 57.5234 86.084 128.809 92.9297 204.84c3.40234 37.8066 -5.03027 78.7666 -32.2686 106.783c-33.3584 34.3154 -72.584 22.7559 -108.949 -0.25293
c-60.4014 -38.2158 -102.011 -99.3242 -133.626 -162.119c-35.4893 -70.498 -61.8066 -146.343 -80.9502 -222.832zM30.7646 350.235c11.498 -15.1631 24.6045 -30.1348 38.958 -43.6787c-20.042 25.6865 -37.9316 53.7344 -56.959 79.9102
c-2.59277 3.56738 -6.84961 8.05566 -11.2266 12.7529c8.24219 -17.2041 17.6895 -33.7725 29.2275 -48.9844z" />
    <glyph glyph-name="Q" unicode="Q" horiz-adv-x="446" 
d="M272.825 -43.7129c-28.248 -43.5664 -76.7598 -72.1133 -126.438 -74.2881c11.0576 -2.71777 22.333 -4.46094 33.9414 -4.51465c31.749 -0.151367 61.1582 10.9502 87.0088 28.8525c10.0967 6.99609 39.7285 -2.32617 23.6367 -13.4727
c-45.5771 -31.5664 -102.394 -41.6182 -156.243 -28.7812c-60.5215 14.4287 -117.627 54.25 -181.187 41.5957c-1.81055 -1.5791 -4.59473 -2.79297 -8.6377 -3.22461c-2.54883 -0.271484 -5.09766 -0.546875 -7.64648 -0.818359
c-11.5068 -1.23242 -33.123 10.7275 -13.0459 17.6396c42.4326 14.6025 86.2656 8.78516 128.035 -4.07812c-60.6816 51.7598 -76.9561 140.054 -76.1152 216.054c0.663086 60.3262 9.8125 121.146 25.8555 179.835c-26.4824 77.0186 -25.9043 165.459 4.3584 241.063
c27.9902 69.9375 96.9941 125.077 175.463 105.818c80.4297 -19.7393 121.937 -104.328 139.799 -178.113c21.3984 -88.3877 24.1514 -184.287 16.1807 -274.573c-2.31738 -26.2734 -6 -52.5068 -10.6484 -78.5537c5.98633 -0.133789 11.9727 -0.231445 17.9551 -0.262695
c40.0127 -0.213867 80.5195 -0.676758 118.775 12.5957c12.2314 4.24805 35.7471 -7.52539 16.1719 -15.7676c-45.6572 -19.2148 -97.915 -17.5557 -146.592 -17.0527c-3.37109 0.0351562 -6.75098 0.0888672 -10.1309 0.160156
c-2.50391 -12.627 -5.2041 -25.21 -8.10449 -37.7129c-9.02051 -38.8691 -20.4873 -78.6191 -42.3926 -112.4zM23.0986 466.67c-3.40723 -29.1865 -3.11621 -58.7842 0.820312 -87.8418c3.45996 9.22949 7.05371 18.3916 10.8477 27.4434
c13.2988 31.7266 104.751 24.0137 90.5361 -14.2285c-19.1299 -51.4658 -34.3506 -104.337 -44.3184 -158.205c37.46 -50.6826 90.665 -84.7305 153.544 -97.8164c18.0586 -3.75879 36.3301 -6.08496 54.6816 -7.50781c9.21191 45.3193 13.2812 91.7148 14.1748 138.128
c1.46289 75.9824 -2.4248 156.542 -24.1885 229.784c-17.2402 58.0264 -63.5195 153.424 -138.438 142.998c-78.0107 -10.8574 -109.889 -106.17 -117.659 -172.754zM132.166 -70.8564c26.9092 -19.957 59.4561 3.29102 79.3115 23.5732
c22.835 23.3379 38.2471 53.0801 50.332 83.1162c9.49609 23.6006 17.0039 47.752 22.9014 72.2686c-33.083 2.35254 -65.9795 7.29395 -97.6924 17.1152c-43.4062 13.4414 -81.3867 37.291 -112.428 68.3369c-2.61133 -19.459 -4.54199 -39.0254 -5.6543 -58.6934
c-3.86523 -68.3672 2.89062 -160.958 63.2295 -205.717z" />
    <glyph glyph-name="R" unicode="R" horiz-adv-x="660" 
d="M602.627 -105.039c-33.6172 -49.624 -79.5293 -78.4219 -140.736 -73.623c-65.3076 5.10645 -116.653 47.8809 -156.186 97.1094c-42.1387 52.4707 -73.2295 112.93 -116.115 164.77c-19.2324 23.2529 -40.8574 45.5947 -65.9297 62.5898
c-7.26367 4.91895 -14.8291 9.46875 -22.6436 13.5205c-3.30469 -26.7715 -5.92871 -53.6279 -7.92578 -80.5244c-1.30762 -17.5693 -2.54004 -35.2764 -3.27344 -53.0059c4.90137 -38.5938 11.377 -77.2812 20.8193 -115.043
c4.50977 -18.0449 9.23828 -36.3125 15.0068 -54.0059c4.9375 -15.1406 13.624 -26.2158 20.6562 -40.0752c8.3623 -16.4707 -23.9287 -19.8154 -32.5264 -18.5391c-40.4883 6.00879 -59.8984 41.5693 -74.7227 76.2451c-16.3994 38.3584 -26.7939 79.1143 -35.418 119.816
c-18.0801 85.3359 -26.2822 173.363 -26.6162 260.567c-0.666992 174.813 24.6855 350.538 71.1611 518.889c7.90332 28.6348 94.9297 24.1689 88.8008 -6.85059c-32.042 -162.119 -59.8945 -325.203 -61.4873 -490.898
c-0.165039 -16.875 -0.0498047 -33.7188 0.230469 -50.5498c1.30762 7.86816 2.67285 15.7227 4.12305 23.5684c20.2773 109.808 53.627 221.68 112.578 317.353c41.7295 67.7227 110.56 146.636 195.504 154.152c40.6533 3.59863 78.4424 -15.9717 90.7588 -56.3584
c13.4014 -43.9316 1.57422 -90.2383 -13.1348 -132.053c-54.6016 -155.229 -172.878 -278.252 -320.812 -346.789c66.5488 -36.3525 113.465 -99.9385 154.923 -163.48c27.123 -41.5742 53.6406 -84.0156 88.8584 -119.38
c29.084 -29.2041 80.6523 -68.2471 124.067 -48.8408c44.4248 19.8555 72.1523 77.3701 92.6699 118.433c23.916 47.8633 42.6016 98.0791 61.2197 148.171c4.82129 12.9746 41.8008 9.63867 36.2539 -5.69727c-27.2656 -75.373 -54.8379 -152.646 -100.104 -219.47z
M230.488 566.771c-60.3975 -95.1885 -94.7715 -207.849 -115.592 -317.856c-0.875977 -4.63477 -1.68945 -9.2832 -2.5166 -13.9268c19.5352 9.83887 38.5137 20.6787 57.0391 32.3457c44.4609 27.9951 84.6602 61.6475 121.479 99.085
c66.9756 68.1006 124.602 155.438 151.796 247.758c8.09082 27.4697 3.50098 64.1641 -23.3643 80.5674c-25.0498 15.2959 -57.5322 -1.83691 -79.6465 -15.2559c-45.2305 -27.4434 -81.0713 -68.3945 -109.195 -112.717z" />
    <glyph glyph-name="S" unicode="S" horiz-adv-x="586" 
d="M460.524 -308.656c-33.0117 -16.8711 -74.6396 -10.9512 -108.061 1.41406c-77.3838 28.6621 -133.462 99.7646 -115.729 184.754c9.77148 46.8184 34.7598 90.1133 66.8105 127.586c-18.4854 19.5752 -37.2549 38.8125 -55.7002 58.04
c-62.75 65.4053 -127.382 129.703 -181.147 202.945c-53.3428 72.6689 -106.45 161.941 -102.491 255.368c7.60156 179.457 211.891 286.649 370.607 219.745c69.7061 -29.3867 126.728 -89.3076 145.938 -163.297c24.8496 -95.7129 -13.3262 -193.752 -53.4365 -279.573
c-6.03125 -12.9121 -43.8379 -9.32227 -37.2598 5.85352c43.7891 100.971 81.8447 222.722 19.2861 324.568c-49.7139 80.9326 -148.229 124.325 -238.466 86.4785c-85.4961 -35.8633 -133.319 -126.688 -120.501 -217.575
c13.5879 -96.3623 78.0059 -184.251 138.536 -257.347c52.8271 -63.7949 111.895 -121.941 167.506 -183.232c11.1641 9.32715 22.5947 18.0312 34.0742 26.0283c60.8779 42.3965 163.129 95.375 234.597 49.002c16.9062 -10.9688 -13.7568 -20.0205 -24.1289 -13.7539
c-46.1465 27.8838 -110.92 -5.92383 -152.458 -29.6396c-26.2197 -14.9668 -50.6787 -32.8252 -72.9619 -53.1074c1.95703 -2.22363 3.95898 -4.41211 5.90723 -6.64453c60.3525 -69.3555 119.882 -144.631 124.979 -240.201
c2.05078 -38.3936 -9.30469 -78.709 -45.9014 -97.4121zM270.054 -144.185c-4.03418 -50.0781 20.0332 -94.7725 60.4814 -123.47c28.3594 -20.126 97.1982 -52.875 121.657 -10.4512c22.168 38.4561 -6.53809 91.1318 -25.3438 124.735
c-27.5186 49.166 -63.2119 93.0127 -101.276 134.756c-28.1729 -36.4229 -51.8086 -79.5664 -55.5186 -125.57z" />
    <glyph glyph-name="T" unicode="T" horiz-adv-x="573" 
d="M776.512 657.99c-3.26465 -12.2402 -37.917 -9.69824 -33.9092 5.32227c19.5303 73.2598 -25.3301 141.85 -95.9482 162.781c-73.2422 21.7012 -156.078 15.625 -230.015 0.929688c-119.344 -23.7246 -228.613 -77.9746 -333.19 -139.154
c54.4062 -0.729492 108.047 -25.4102 141.722 -73.5576c9.51855 -13.6152 17.2441 -28.3818 23.6797 -43.8115c2.21484 45.9814 5.09668 91.9277 8.91309 137.794c3.04688 36.6279 93.7158 36.2939 93.1953 0c-1.66797 -115.853 -9.06934 -231.527 -12.0312 -347.357
c-2.58008 -100.926 -2.91797 -202.198 0.889648 -303.102c1.96191 -51.8975 4.77246 -103.675 10.0479 -155.358c4.26562 -41.8096 9.40332 -85.2334 26.0742 -124.21c7.7168 -18.0488 16.4395 -36.6543 30.5039 -50.6826c10.5723 -10.541 17.1377 -11.3506 26.8389 1.60547
c5.63086 7.5166 9.70508 16.0791 13.7969 24.4941c19.6104 40.3193 33.5498 83.0723 45.6748 126.154c24.001 85.2822 39.3994 177.704 84.2383 255.274c5.76855 9.98535 37.4014 8.19336 31.5615 -4.95898c-22.9824 -51.7598 -41.0674 -103.946 -55.3623 -158.771
c-14.2373 -54.6064 -26.4912 -109.835 -44.9277 -163.244c-11.9473 -34.6084 -26.5713 -90.3711 -62.6611 -107.784c-37.4814 -18.0889 -79.7764 10.2354 -104.729 37.042c-31.0107 33.3145 -45.5596 78.1484 -57.1377 121.243
c-14.54 54.126 -23.4492 108.853 -29.3779 164.535c-12.085 113.495 -12.8682 228.16 -11.4355 342.167c0.374023 29.8184 0.929688 59.6455 1.69434 89.4727c-5.71582 35.3115 -13.8594 69.9648 -26.3535 103.097c-17.2002 45.6123 -46.792 86.248 -94.1035 103.412
c-28.6172 10.3809 -58.1992 9.4873 -85.2598 -0.0224609c-18.0088 -10.9238 -35.9023 -21.9502 -53.6982 -32.9678c-7.53418 -4.66113 -40.0479 0.173828 -27.251 11.9873c17.0752 15.7627 36.5742 27.5811 57.2607 35.5029
c51.4521 31.2061 103.585 61.3135 157.622 87.8447c123.686 60.7305 260.452 103.616 399.691 94.5781c57.8975 -3.75879 123.276 -13.9268 166.451 -56.4883c37.998 -37.4639 51.1104 -92.8398 37.5352 -143.768z" />
    <glyph glyph-name="U" unicode="U" horiz-adv-x="958" 
d="M999.406 106.06c-4.25684 -50.6963 -12.7812 -100.84 -25.9736 -149.993c-11.876 -44.3223 -25.1572 -94.0664 -50.9277 -132.629c-40.8975 -61.1934 -120.278 -65.2812 -175.738 -20.8203c-63.9639 51.2832 -73.625 154.735 -80.3506 230.322
c-7.3252 82.3467 -8.41895 166.032 -5.03418 249.718c-2.90918 -9.50098 -5.81836 -19.0059 -8.80273 -28.4844c-29.0176 -92.1816 -60.1973 -187.254 -107.153 -272.132c-16.9111 -30.5703 -40.502 -65.6016 -74.1592 -78.9404
c-35.627 -14.1221 -80.2607 -8.85547 -107.299 19.873c-59.3027 63.0039 -47.0537 164.646 -34.6846 242.162c14.7314 92.2969 36.9883 183.971 42.7256 277.5c4.47852 73.0244 6.09277 161.981 -37.5361 225.087c-54.1348 78.2998 -157.484 38.541 -217.962 -10.5098
c-58.8496 -47.7344 -102.181 -117.943 -114.154 -193.205c-11.5684 -72.7217 14.3584 -165.743 102.443 -166.984c88.4453 -1.25 147.525 81.1641 191.154 146.975c6.39551 9.64746 36.6055 5.63574 29.8896 -4.69629c-48.5039 -74.626 -108.056 -151.649 -203.475 -160.621
c-84.7578 -7.9707 -150.212 46.2441 -157.511 130.976c-12.8457 149.158 120.398 311.54 270.562 323.068c78.8555 6.05371 146.609 -38.8916 182.014 -107.762c41.6543 -81.0176 40.4092 -178.029 32.0117 -266.438c-9.18457 -96.7002 -35.0264 -192.03 -38.3799 -289.277
c-1.34766 -39.0791 -4.45703 -93.4766 18.4404 -127.476c7.61035 -11.3018 10.3105 -9.46973 21.9414 -4.43945c11.1289 4.80859 20.9541 11.8135 29.4805 20.4561c13.9043 14.0908 24.0811 31.9043 33.542 49.1445c75.5508 137.709 115.408 292.556 159.295 443.693
c5.0791 48.7969 11.2842 97.292 18.3252 145.204c5.05762 34.417 90.834 32.9092 87.2891 0c-9.82129 -91.1357 -20.1006 -182.179 -26.3584 -273.648c-5.55566 -81.1992 -8.625 -162.519 -7.03223 -243.918c1.43652 -73.5273 1.94336 -152.392 28.4209 -222.058
c10.0605 -26.4648 34.0342 -66.4326 67.958 -62.1533c37.3574 4.71484 59.6191 50.3096 72.1572 80.6348c30.3027 73.3096 47.0312 152.548 53.8857 231.372c1.07617 12.3828 31.9795 11.7197 30.9961 0z" />
    <glyph glyph-name="U" unicode="&#xdc;" horiz-adv-x="958" 
d="M999.406 106.06c-4.25684 -50.6963 -12.7812 -100.84 -25.9736 -149.993c-11.876 -44.3223 -25.1572 -94.0664 -50.9277 -132.629c-40.8975 -61.1934 -120.278 -65.2812 -175.738 -20.8203c-63.9639 51.2832 -73.625 154.735 -80.3506 230.322
c-7.3252 82.3467 -8.41895 166.032 -5.03418 249.718c-2.90918 -9.50098 -5.81836 -19.0059 -8.80273 -28.4844c-29.0176 -92.1816 -60.1973 -187.254 -107.153 -272.132c-16.9111 -30.5703 -40.502 -65.6016 -74.1592 -78.9404
c-35.627 -14.1221 -80.2607 -8.85547 -107.299 19.873c-59.3027 63.0039 -47.0537 164.646 -34.6846 242.162c14.7314 92.2969 36.9883 183.971 42.7256 277.5c4.47852 73.0244 6.09277 161.981 -37.5361 225.087c-54.1348 78.2998 -157.484 38.541 -217.962 -10.5098
c-58.8496 -47.7344 -102.181 -117.943 -114.154 -193.205c-11.5684 -72.7217 14.3584 -165.743 102.443 -166.984c88.4453 -1.25 147.525 81.1641 191.154 146.975c6.39551 9.64746 36.6055 5.63574 29.8896 -4.69629c-48.5039 -74.626 -108.056 -151.649 -203.475 -160.621
c-84.7578 -7.9707 -150.212 46.2441 -157.511 130.976c-12.8457 149.158 120.398 311.54 270.562 323.068c78.8555 6.05371 146.609 -38.8916 182.014 -107.762c41.6543 -81.0176 40.4092 -178.029 32.0117 -266.438c-9.18457 -96.7002 -35.0264 -192.03 -38.3799 -289.277
c-1.34766 -39.0791 -4.45703 -93.4766 18.4404 -127.476c7.61035 -11.3018 10.3105 -9.46973 21.9414 -4.43945c11.1289 4.80859 20.9541 11.8135 29.4805 20.4561c13.9043 14.0908 24.0811 31.9043 33.542 49.1445c75.5508 137.709 115.408 292.556 159.295 443.693
c5.0791 48.7969 11.2842 97.292 18.3252 145.204c5.05762 34.417 90.834 32.9092 87.2891 0c-9.82129 -91.1357 -20.1006 -182.179 -26.3584 -273.648c-5.55566 -81.1992 -8.625 -162.519 -7.03223 -243.918c1.43652 -73.5273 1.94336 -152.392 28.4209 -222.058
c10.0605 -26.4648 34.0342 -66.4326 67.958 -62.1533c37.3574 4.71484 59.6191 50.3096 72.1572 80.6348c30.3027 73.3096 47.0312 152.548 53.8857 231.372c1.07617 12.3828 31.9795 11.7197 30.9961 0z" />
    <glyph glyph-name="U" unicode="&#xdb;" horiz-adv-x="958" 
d="M999.406 106.06c-4.25684 -50.6963 -12.7812 -100.84 -25.9736 -149.993c-11.876 -44.3223 -25.1572 -94.0664 -50.9277 -132.629c-40.8975 -61.1934 -120.278 -65.2812 -175.738 -20.8203c-63.9639 51.2832 -73.625 154.735 -80.3506 230.322
c-7.3252 82.3467 -8.41895 166.032 -5.03418 249.718c-2.90918 -9.50098 -5.81836 -19.0059 -8.80273 -28.4844c-29.0176 -92.1816 -60.1973 -187.254 -107.153 -272.132c-16.9111 -30.5703 -40.502 -65.6016 -74.1592 -78.9404
c-35.627 -14.1221 -80.2607 -8.85547 -107.299 19.873c-59.3027 63.0039 -47.0537 164.646 -34.6846 242.162c14.7314 92.2969 36.9883 183.971 42.7256 277.5c4.47852 73.0244 6.09277 161.981 -37.5361 225.087c-54.1348 78.2998 -157.484 38.541 -217.962 -10.5098
c-58.8496 -47.7344 -102.181 -117.943 -114.154 -193.205c-11.5684 -72.7217 14.3584 -165.743 102.443 -166.984c88.4453 -1.25 147.525 81.1641 191.154 146.975c6.39551 9.64746 36.6055 5.63574 29.8896 -4.69629c-48.5039 -74.626 -108.056 -151.649 -203.475 -160.621
c-84.7578 -7.9707 -150.212 46.2441 -157.511 130.976c-12.8457 149.158 120.398 311.54 270.562 323.068c78.8555 6.05371 146.609 -38.8916 182.014 -107.762c41.6543 -81.0176 40.4092 -178.029 32.0117 -266.438c-9.18457 -96.7002 -35.0264 -192.03 -38.3799 -289.277
c-1.34766 -39.0791 -4.45703 -93.4766 18.4404 -127.476c7.61035 -11.3018 10.3105 -9.46973 21.9414 -4.43945c11.1289 4.80859 20.9541 11.8135 29.4805 20.4561c13.9043 14.0908 24.0811 31.9043 33.542 49.1445c75.5508 137.709 115.408 292.556 159.295 443.693
c5.0791 48.7969 11.2842 97.292 18.3252 145.204c5.05762 34.417 90.834 32.9092 87.2891 0c-9.82129 -91.1357 -20.1006 -182.179 -26.3584 -273.648c-5.55566 -81.1992 -8.625 -162.519 -7.03223 -243.918c1.43652 -73.5273 1.94336 -152.392 28.4209 -222.058
c10.0605 -26.4648 34.0342 -66.4326 67.958 -62.1533c37.3574 4.71484 59.6191 50.3096 72.1572 80.6348c30.3027 73.3096 47.0312 152.548 53.8857 231.372c1.07617 12.3828 31.9795 11.7197 30.9961 0z" />
    <glyph glyph-name="U" unicode="&#xda;" horiz-adv-x="958" 
d="M999.406 106.06c-4.25684 -50.6963 -12.7812 -100.84 -25.9736 -149.993c-11.876 -44.3223 -25.1572 -94.0664 -50.9277 -132.629c-40.8975 -61.1934 -120.278 -65.2812 -175.738 -20.8203c-63.9639 51.2832 -73.625 154.735 -80.3506 230.322
c-7.3252 82.3467 -8.41895 166.032 -5.03418 249.718c-2.90918 -9.50098 -5.81836 -19.0059 -8.80273 -28.4844c-29.0176 -92.1816 -60.1973 -187.254 -107.153 -272.132c-16.9111 -30.5703 -40.502 -65.6016 -74.1592 -78.9404
c-35.627 -14.1221 -80.2607 -8.85547 -107.299 19.873c-59.3027 63.0039 -47.0537 164.646 -34.6846 242.162c14.7314 92.2969 36.9883 183.971 42.7256 277.5c4.47852 73.0244 6.09277 161.981 -37.5361 225.087c-54.1348 78.2998 -157.484 38.541 -217.962 -10.5098
c-58.8496 -47.7344 -102.181 -117.943 -114.154 -193.205c-11.5684 -72.7217 14.3584 -165.743 102.443 -166.984c88.4453 -1.25 147.525 81.1641 191.154 146.975c6.39551 9.64746 36.6055 5.63574 29.8896 -4.69629c-48.5039 -74.626 -108.056 -151.649 -203.475 -160.621
c-84.7578 -7.9707 -150.212 46.2441 -157.511 130.976c-12.8457 149.158 120.398 311.54 270.562 323.068c78.8555 6.05371 146.609 -38.8916 182.014 -107.762c41.6543 -81.0176 40.4092 -178.029 32.0117 -266.438c-9.18457 -96.7002 -35.0264 -192.03 -38.3799 -289.277
c-1.34766 -39.0791 -4.45703 -93.4766 18.4404 -127.476c7.61035 -11.3018 10.3105 -9.46973 21.9414 -4.43945c11.1289 4.80859 20.9541 11.8135 29.4805 20.4561c13.9043 14.0908 24.0811 31.9043 33.542 49.1445c75.5508 137.709 115.408 292.556 159.295 443.693
c5.0791 48.7969 11.2842 97.292 18.3252 145.204c5.05762 34.417 90.834 32.9092 87.2891 0c-9.82129 -91.1357 -20.1006 -182.179 -26.3584 -273.648c-5.55566 -81.1992 -8.625 -162.519 -7.03223 -243.918c1.43652 -73.5273 1.94336 -152.392 28.4209 -222.058
c10.0605 -26.4648 34.0342 -66.4326 67.958 -62.1533c37.3574 4.71484 59.6191 50.3096 72.1572 80.6348c30.3027 73.3096 47.0312 152.548 53.8857 231.372c1.07617 12.3828 31.9795 11.7197 30.9961 0z" />
    <glyph glyph-name="V" unicode="V" horiz-adv-x="659" 
d="M544.069 184.83c-19.8193 -67.3936 -43.0684 -134.705 -78.3438 -194.671c-36.9434 -62.7725 -95.0498 -116.511 -172.998 -105.982c-92.3594 12.4717 -149.113 91.4609 -191.679 166.803c-94.9697 168.093 -116.608 368.903 -132.972 557.745
c-3.03809 35.0977 87.2754 36.0811 91.8076 0c22.8887 -182.241 43.2148 -364.803 119.66 -533.932c15.3232 -33.9014 32.9053 -67.416 53.5791 -98.3906c18.6494 -27.9453 44.8867 -59.5117 79.3262 -67.0059c76.2178 -16.5859 126.731 87.4268 151.039 142.584
c22.8926 51.9551 40.835 106.628 56.6689 161.599c-12.2002 16.377 -23.1689 33.8701 -32.8789 52.1592c-42.9219 80.8486 -71.3389 177.98 -59.9834 269.903c4.875 39.4785 15.7236 78.9395 32.6611 114.98c13.5566 28.8398 32.5039 63.4795 68.3311 65.3652
c34.4482 1.81055 53.5293 -26.7539 63.7598 -55.8516c14.1045 -40.1328 19.3525 -83.1162 19.2461 -125.5c-0.240234 -94.7607 -22.4482 -189.7 -47.6455 -280.556c-1.5166 -5.4668 -3.0332 -10.9512 -4.56348 -16.4482c32.0107 -50.2783 75.1816 -97.0742 132.305 -116.721
c20.5137 -7.05469 -4.44336 -18.6943 -16.1719 -15.7676c-52.5332 13.1162 -96.0107 41.8848 -131.148 79.6865zM481.817 451.328c7.77441 -60.8555 26.9238 -121.256 55.4209 -175.889c0.738281 2.76172 1.49414 5.53711 2.22363 8.29883
c20.9004 78.9756 38.4785 161.029 39.9287 243.025c0.698242 39.4971 -2.80176 79.4922 -14.3213 117.419c-4.50098 14.8242 -10.4473 37.1699 -23.4346 47.124c-18.209 13.9531 -30.6318 -12.1201 -37.6279 -26.4062
c-33.0205 -67.4385 -31.4814 -140.823 -22.1895 -213.572z" />
    <glyph glyph-name="W" unicode="W" horiz-adv-x="761" 
d="M133.664 -50.8916c-74.1895 1.29883 -119.828 62.1172 -140.354 127.318c-24.8457 78.9355 -21.4072 163.733 -13.3701 245.084c8.35742 84.5488 25.25 167.567 48.165 249.323c8.44629 30.1426 93.707 23.6934 83.499 -13.1211
c-21.8252 -78.7402 -38.3135 -159.246 -47.6318 -240.45c-7.74414 -67.4785 -12.832 -136.562 -4.94141 -204.228c5.00781 -42.9346 27.8203 -153.846 92.0029 -142.419c31.4414 5.59961 47.3203 46.4971 58.6494 72.041c13.1348 29.6133 23.3115 60.4541 31.665 91.7354
c17.0527 63.8486 26.54 129.485 40.0391 194.13c0.280273 2.66895 0.542969 5.33301 0.84082 8.00195c4.00293 35.6631 92.7773 34.293 90.0684 0c-6.06641 -76.8184 -9.58496 -155.362 0.663086 -231.977c8.12598 -60.7578 23.7422 -140.099 81.5107 -173.88
c72.2861 -42.2764 131.914 20.2646 158.699 83.3975c16.4707 38.8203 24.8369 80.7451 28.9688 123.058c-91.585 41.1738 -165.445 117.289 -191.736 219.104c-17.2891 66.958 -13.918 139.359 13.4404 203.226c21.2344 49.5664 73.5322 103.554 129.144 61.9707
c27.1318 -20.2861 39.7236 -55.9219 49.5664 -86.9229c12.2002 -38.4248 19.1611 -78.3623 23.8398 -118.33c10.0254 -85.5762 16.0479 -173.585 9.67871 -259.642c-0.253906 -3.37598 -0.547852 -6.7832 -0.836914 -10.1904
c35.4756 -14.6289 73.3623 -23.4492 111.658 -25.4727c19.0635 -1.00488 19.3301 -18.8984 0 -18.0625c-38.9453 1.68555 -77.4326 9.20215 -113.815 21.9492c-7.42383 -64.6982 -24.4854 -131.731 -68.0879 -180.817c-48.2676 -54.3389 -129.507 -62.5322 -193.773 -33.875
c-70.4541 31.4199 -102.185 100.535 -118.971 171.754c-5.42676 23.0225 -9.30078 46.1553 -11.9424 69.3594c-5.99121 -24.9883 -12.9346 -49.7402 -21.4258 -74.0703c-21.6123 -61.958 -49.6562 -129.32 -125.212 -127.995zM505.086 302.451
c29.6895 -61.0156 79.6689 -109.754 138.963 -141.4c1.17871 18.7119 1.69434 37.4014 1.82812 55.8291c0.484375 67.7314 -4.30176 136.148 -12.5615 203.368c-4.54102 36.9434 -11.0303 73.7715 -22.3682 109.287c-8.375 26.2373 -18.623 59.1025 -40.4482 77.6055
c-54.9482 46.582 -91.251 -98.3594 -94.9912 -130.61c-6.88086 -59.3652 3.42969 -120.336 29.5781 -174.079z" />
    <glyph glyph-name="X" unicode="X" horiz-adv-x="436" 
d="M45.6426 105.17c-14.8955 -31.2412 -29.1592 -62.7861 -42.9033 -94.5439c-16.2793 -37.6289 -33.9814 -75.4795 -32.5889 -117.404c0.414062 -12.4453 -31.5439 -12.623 -32.0381 0c-1.56152 39.8125 13.4854 76.1338 28.6885 112.17
c14.3887 34.1064 29.3604 67.9629 45.0527 101.486c11.8584 25.335 24.1299 50.4834 36.8682 75.3916c-12.2451 58.7607 -17.6582 119.22 -19.9219 178.874c-3.19824 84.2598 0.862305 168.266 14.5928 251.502c5.6709 34.3994 91.6611 33.2959 87.9824 -0.000976562
c-10.1768 -92.0879 -15.5811 -184.937 -11.3867 -277.567c0.351562 -7.67676 0.755859 -15.3711 1.19141 -23.0654c74.8789 122.582 165.152 235.673 275.312 328.437c9.72266 8.18848 43.9619 0.626953 30.9658 -10.3145
c-111.275 -93.707 -202.567 -208.221 -278.149 -332.11c-8.21484 -13.4678 -16.2207 -27.0645 -24.0938 -40.7373c5.38672 -57.7549 14.709 -115.266 31.7217 -170.57c17.2803 -56.1846 57.9688 -181.831 138.461 -158.489c79.8789 23.1641 119.869 125.157 145.925 195.549
c4.37207 11.8086 38.0469 8.65527 32.9053 -5.17285c-26.2734 -70.6582 -62.6875 -155.447 -131.575 -194.455c-58.2979 -33.0117 -126.692 -26.5625 -177.394 16.8799c-53.7832 46.084 -84.54 123.08 -103.741 189.397c-0.458008 1.57031 -0.87207 3.14941 -1.3125 4.72363
c-4.91016 -9.96289 -9.78027 -19.9482 -14.5615 -29.9785z" />
    <glyph glyph-name="Y" unicode="Y" horiz-adv-x="478" 
d="M486.447 126.76c-22.0391 67.4336 -49.8838 144.852 -116.054 180.955c-4.10059 2.2373 -8.24121 4.21191 -12.418 5.96484c0.0664062 -0.916016 0.146484 -1.83203 0.208984 -2.75293c6.22266 -89.1436 8.7041 -180.284 -1.0498 -269.241
c-8.3623 -76.2266 -25.3311 -156.426 -64.8496 -223.085c-33.541 -56.5723 -93.2178 -104.596 -161.59 -106.072c-59.2588 -1.28125 -113.153 35.8271 -139.982 87.4795c-32.5225 62.5986 -28.7285 139.025 -12.7119 205.712
c17.2266 71.7305 51.7373 138.217 95.2725 197.427c39.377 53.5518 88.374 102.394 151.778 126.012c12.4941 4.65234 25.4287 8.18359 38.541 10.625c-4.0293 43.3623 -8.87695 86.6533 -14.2764 129.877c-7.69434 -26.5625 -18.0352 -52.3906 -30.6895 -76.9961
c-25.0859 -48.7842 -66.4287 -89.1836 -125.073 -85.0469c-61.0068 4.30078 -98.4883 62.127 -112.45 116.226c-17.4404 67.5762 -9.29688 137.216 2.64551 205.036c5.89355 33.4609 88.7393 29.9424 83.4688 0c-9.70117 -55.0908 -20.9004 -109.532 -18.7568 -165.793
c1.46777 -38.5762 8.55273 -100.473 42.2402 -126.141c25.9932 -19.8105 57.7197 6.43164 73.9453 27.0029c15.3848 19.5127 26.2061 43.0947 35.7559 65.8809c21.0029 50.1006 32.0781 103.149 30.3613 157.528c-0.0625 1.9834 0.724609 3.6377 1.99219 5.03027
c-0.0751953 0.506836 -0.146484 1.01367 -0.217773 1.52051c-2.89062 20.2021 33.8311 26.46 46.4277 26.46c17.7998 0 43.1436 -5.9375 46.4258 -26.46c13.6328 -85.2031 24.0723 -171.077 30.833 -257.129c19.917 -5.42676 38.9668 -14.1445 56.2422 -26.5723
c58.9336 -42.3838 85.3535 -111.316 103.87 -178.75c3.625 -13.2148 -26.4111 -15.3457 -29.8896 -4.69727zM267.92 -23.6885c8.25488 65.3652 8.70215 131.672 6.4873 197.438c-1.63281 48.4951 -4.76367 96.8701 -8.94434 145.156
c-35.8809 -9.03809 -69.9912 -29.0889 -97.4121 -53.249c-92.2432 -81.2793 -159.512 -211.525 -166.086 -334.557c-3.21582 -60.2188 8.73145 -126.479 55.7314 -168.417c25.0371 -22.3369 58.418 -35.876 91.9326 -26.998
c27.6299 7.32129 49.3086 29.2002 64.1025 52.8311c34.4932 55.0859 46.1865 124.428 54.1885 187.796z" />
    <glyph glyph-name="Y" unicode="&#x178;" horiz-adv-x="478" 
d="M486.447 126.76c-22.0391 67.4336 -49.8838 144.852 -116.054 180.955c-4.10059 2.2373 -8.24121 4.21191 -12.418 5.96484c0.0664062 -0.916016 0.146484 -1.83203 0.208984 -2.75293c6.22266 -89.1436 8.7041 -180.284 -1.0498 -269.241
c-8.3623 -76.2266 -25.3311 -156.426 -64.8496 -223.085c-33.541 -56.5723 -93.2178 -104.596 -161.59 -106.072c-59.2588 -1.28125 -113.153 35.8271 -139.982 87.4795c-32.5225 62.5986 -28.7285 139.025 -12.7119 205.712
c17.2266 71.7305 51.7373 138.217 95.2725 197.427c39.377 53.5518 88.374 102.394 151.778 126.012c12.4941 4.65234 25.4287 8.18359 38.541 10.625c-4.0293 43.3623 -8.87695 86.6533 -14.2764 129.877c-7.69434 -26.5625 -18.0352 -52.3906 -30.6895 -76.9961
c-25.0859 -48.7842 -66.4287 -89.1836 -125.073 -85.0469c-61.0068 4.30078 -98.4883 62.127 -112.45 116.226c-17.4404 67.5762 -9.29688 137.216 2.64551 205.036c5.89355 33.4609 88.7393 29.9424 83.4688 0c-9.70117 -55.0908 -20.9004 -109.532 -18.7568 -165.793
c1.46777 -38.5762 8.55273 -100.473 42.2402 -126.141c25.9932 -19.8105 57.7197 6.43164 73.9453 27.0029c15.3848 19.5127 26.2061 43.0947 35.7559 65.8809c21.0029 50.1006 32.0781 103.149 30.3613 157.528c-0.0625 1.9834 0.724609 3.6377 1.99219 5.03027
c-0.0751953 0.506836 -0.146484 1.01367 -0.217773 1.52051c-2.89062 20.2021 33.8311 26.46 46.4277 26.46c17.7998 0 43.1436 -5.9375 46.4258 -26.46c13.6328 -85.2031 24.0723 -171.077 30.833 -257.129c19.917 -5.42676 38.9668 -14.1445 56.2422 -26.5723
c58.9336 -42.3838 85.3535 -111.316 103.87 -178.75c3.625 -13.2148 -26.4111 -15.3457 -29.8896 -4.69727zM267.92 -23.6885c8.25488 65.3652 8.70215 131.672 6.4873 197.438c-1.63281 48.4951 -4.76367 96.8701 -8.94434 145.156
c-35.8809 -9.03809 -69.9912 -29.0889 -97.4121 -53.249c-92.2432 -81.2793 -159.512 -211.525 -166.086 -334.557c-3.21582 -60.2188 8.73145 -126.479 55.7314 -168.417c25.0371 -22.3369 58.418 -35.876 91.9326 -26.998
c27.6299 7.32129 49.3086 29.2002 64.1025 52.8311c34.4932 55.0859 46.1865 124.428 54.1885 187.796z" />
    <glyph glyph-name="Y" unicode="&#xdd;" horiz-adv-x="478" 
d="M486.447 126.76c-22.0391 67.4336 -49.8838 144.852 -116.054 180.955c-4.10059 2.2373 -8.24121 4.21191 -12.418 5.96484c0.0664062 -0.916016 0.146484 -1.83203 0.208984 -2.75293c6.22266 -89.1436 8.7041 -180.284 -1.0498 -269.241
c-8.3623 -76.2266 -25.3311 -156.426 -64.8496 -223.085c-33.541 -56.5723 -93.2178 -104.596 -161.59 -106.072c-59.2588 -1.28125 -113.153 35.8271 -139.982 87.4795c-32.5225 62.5986 -28.7285 139.025 -12.7119 205.712
c17.2266 71.7305 51.7373 138.217 95.2725 197.427c39.377 53.5518 88.374 102.394 151.778 126.012c12.4941 4.65234 25.4287 8.18359 38.541 10.625c-4.0293 43.3623 -8.87695 86.6533 -14.2764 129.877c-7.69434 -26.5625 -18.0352 -52.3906 -30.6895 -76.9961
c-25.0859 -48.7842 -66.4287 -89.1836 -125.073 -85.0469c-61.0068 4.30078 -98.4883 62.127 -112.45 116.226c-17.4404 67.5762 -9.29688 137.216 2.64551 205.036c5.89355 33.4609 88.7393 29.9424 83.4688 0c-9.70117 -55.0908 -20.9004 -109.532 -18.7568 -165.793
c1.46777 -38.5762 8.55273 -100.473 42.2402 -126.141c25.9932 -19.8105 57.7197 6.43164 73.9453 27.0029c15.3848 19.5127 26.2061 43.0947 35.7559 65.8809c21.0029 50.1006 32.0781 103.149 30.3613 157.528c-0.0625 1.9834 0.724609 3.6377 1.99219 5.03027
c-0.0751953 0.506836 -0.146484 1.01367 -0.217773 1.52051c-2.89062 20.2021 33.8311 26.46 46.4277 26.46c17.7998 0 43.1436 -5.9375 46.4258 -26.46c13.6328 -85.2031 24.0723 -171.077 30.833 -257.129c19.917 -5.42676 38.9668 -14.1445 56.2422 -26.5723
c58.9336 -42.3838 85.3535 -111.316 103.87 -178.75c3.625 -13.2148 -26.4111 -15.3457 -29.8896 -4.69727zM267.92 -23.6885c8.25488 65.3652 8.70215 131.672 6.4873 197.438c-1.63281 48.4951 -4.76367 96.8701 -8.94434 145.156
c-35.8809 -9.03809 -69.9912 -29.0889 -97.4121 -53.249c-92.2432 -81.2793 -159.512 -211.525 -166.086 -334.557c-3.21582 -60.2188 8.73145 -126.479 55.7314 -168.417c25.0371 -22.3369 58.418 -35.876 91.9326 -26.998
c27.6299 7.32129 49.3086 29.2002 64.1025 52.8311c34.4932 55.0859 46.1865 124.428 54.1885 187.796z" />
    <glyph glyph-name="Z" unicode="Z" horiz-adv-x="677" 
d="M690.166 97.7109c10.8789 7.09473 42.4785 -2.94824 25.0967 -14.3076c-99.3115 -64.9648 -211.868 -76.792 -326.311 -76.2803c-72.3486 -99.9609 -172.402 -179.612 -293.33 -207.665c-50.6523 -11.751 -109.671 -16.8389 -156.648 10.2881
c-32.709 18.8896 -51.3232 52.3994 -49.9004 89.8857c3.53613 93.1914 100.356 120.772 178.069 128.93c77.2051 8.10352 158.472 2.83301 239.658 -0.449219c43.5928 58.1641 78.0586 123.698 103.629 188.059c11.0176 27.7236 20.6113 56.2168 28.6934 85.1807
c-20.9404 -2.12207 -41.876 -4.31055 -62.7939 -6.66309c-15.2646 -1.7168 -28.8613 14.6426 -8.24121 17.0352c25.3174 2.93555 50.6523 5.65723 76.001 8.24609c12.7744 50.2607 20.8652 101.784 23.3066 153.201c3.79883 79.9629 -12.373 167.51 -98.7051 194.704
c-80.8301 25.459 -160.02 -17.3154 -213.598 -76.4053c-55.1709 -60.8418 -105.813 -153.419 -77.2314 -236.972c5.03516 -14.7178 -30.0449 -17.6133 -34.2441 -5.38184c-33.9014 98.7637 31.2949 209.417 102.643 274.956c69.0479 63.4258 169.164 93.0479 258.29 54.9473
c82.8672 -35.4268 114.847 -121.435 119.917 -205.854c2.93555 -48.9082 0.454102 -97.9014 -6.81836 -146.191c9.34961 0.832031 18.6943 1.67676 28.0479 2.45996c5.43066 0.454102 17.3105 0.511719 19.7031 -6.37793
c2.26855 -6.53809 -5.62598 -10.7812 -11.1904 -11.2305c-13.1963 -1.05859 -26.3926 -2.18359 -39.585 -3.33594c-7.80176 -44.1982 -19.5801 -87.7207 -34.9561 -129.944c-19.1924 -52.7021 -45.2744 -104.568 -77.4727 -152.44
c101.469 0.832031 200.229 14.4248 287.971 71.6064zM104.002 -136.921c74.6387 30.2676 137.295 83.1406 188.405 146.469c-52.7021 1.95215 -105.133 4.10059 -156.181 2.48145c-63.084 -1.99707 -202.639 -6.62305 -195.603 -101.042
c2.27734 -30.5391 27.7676 -68.5234 60.126 -71.3037c33.8662 -2.90918 72.3799 10.8789 103.252 23.3955z" />
    <glyph glyph-name="bracketleft" unicode="[" horiz-adv-x="410" 
d="M360.239 -183.89c1.8457 -11.333 -11.9971 -18.127 -21.6797 -18.9316c-47.4092 -3.93652 -95.29 -8.16211 -141.365 7.04102c-41.5068 13.6953 -74.625 42.166 -95.1875 80.6357c-37.9531 71.0098 -45.1006 162.431 -49.6152 241.237
c-5.35938 93.6934 -1.44043 188.014 9.13184 281.214c10.3896 91.5762 26.4863 187.765 67.1797 271.33c27.5059 56.4785 97.8838 144.47 169.267 94.667c16.3418 -11.4043 -13.7207 -20.3262 -23.8838 -13.6143c-65.8506 43.4912 -107.571 -162.003 -114.47 -199.094
c-14.1748 -76.1865 -21.0732 -153.33 -23.835 -230.718c-2.78027 -77.8945 -3.77246 -155.691 3.58008 -233.391c6.17773 -65.2676 12.7383 -136.629 43.0498 -195.932c12.752 -24.9434 30.6143 -49.0996 57.1016 -60.4727
c27.9326 -11.9961 61.2998 -10.4971 91.002 -9.01562c9.07324 0.454102 27.8652 -3.51758 29.7246 -14.957z" />
    <glyph glyph-name="backslash" unicode="\" horiz-adv-x="403" 
d="M352.48 -81.9316c6.05371 -26.8867 -73.0342 -32.6328 -79.5859 -6.13281c-32.0596 129.628 -62.9404 259.277 -100.302 387.53c-37.2061 127.715 -84.4336 252.188 -122.075 379.658c-5.51562 18.6719 34.7725 20.1621 41.6133 6.53809
c60.7529 -120.95 104.929 -251.792 148.171 -379.832c42.9971 -127.314 82.6631 -256.604 112.179 -387.762z" />
    <glyph glyph-name="bracketright" unicode="]" horiz-adv-x="372" 
d="M236.315 694.335c77.5078 -157.836 86.9551 -343.513 85.5361 -516.298c-0.734375 -89.584 -4.13672 -180.19 -29.9033 -266.625c-10.8887 -36.5254 -26.2822 -74.4346 -59.125 -96.5488c-34.124 -22.9775 -83.0586 -27.4561 -118.766 -5.69727
c-12.8984 7.85938 -12.6846 20.2998 0.000976562 28.1768c14.6777 9.11816 34.5059 6.7207 49.4375 0c9.11328 -4.10059 24.3691 14.0781 29.1553 20.416c10.9102 14.4551 17.6172 32.0596 23.4131 49.0811c13.1074 38.5312 20.5928 78.6553 25.2051 119.02
c7.87305 68.9189 8.15332 138.834 7.68652 208.122c-0.458008 67.9893 -3.625 136.055 -12.2402 203.533c-8.77148 68.6875 -23.2051 137.206 -45.5996 202.798c-11.3867 33.3545 -50.7676 175.996 -107.535 129.743c-9.5625 -7.79297 -43.6641 -0.716797 -30.6631 10.2158
c28.5371 24.001 66.4102 22.3066 99.3867 8.54492c41.6982 -17.4004 64.9473 -55.6611 84.0107 -94.4814z" />
    <glyph glyph-name="asciicircum" unicode="^" horiz-adv-x="304" 
d="M247.182 492.768c2.31738 -17.8711 6.78125 -35.4775 6.28711 -53.5537c-0.671875 -24.9658 -55.6738 -24.041 -64.2266 -4.95508c-8.84668 19.7305 -10.9414 41.3154 -13.0811 62.6602c-0.414062 4.13672 0.0576172 26.0469 -1.61914 41.125
c-11.4131 -11.0176 -21.8428 -26.5 -28.8838 -34.7734c-15.9277 -18.7168 -30.5967 -37.7539 -49.4463 -53.6816c-9.27344 -7.83301 -53.5557 -10.9199 -45.1582 10.8525c11.2979 29.2803 32.4521 57.2793 52.8369 81.0127c20.4951 23.8623 45.6699 45.9639 78.6553 47.2002
c30.7881 1.15625 55.2871 -15.1719 59.9258 -46.1729c2.45508 -16.4082 2.57031 -33.2344 4.70996 -49.7139z" />
    <glyph glyph-name="underscore" unicode="_" horiz-adv-x="443" 
d="M362.548 -21.9258c9.65137 -0.324219 30.4395 -3.65332 30.4395 -17.3525c0 -13.5752 -20.3887 -17.209 -30.4404 -17.3516c-53.1963 -0.764648 -106.405 0.09375 -159.605 -0.609375c-26.5938 -0.351562 -53.1914 -0.631836 -79.7852 -1.06738
c-21.0693 -0.34668 -48.6816 -4.61621 -67.3271 7.18848c-4.60352 2.91309 -8.72266 9.26953 -3.13184 13.8242c17.5693 14.3135 44.4258 11.8721 66.0293 12.7305c26.5889 1.05859 53.1777 1.97949 79.7852 2.44629c54.624 0.956055 109.426 2.0459 164.036 0.191406z" />
    <glyph glyph-name="grave" unicode="`" horiz-adv-x="180" 
d="M129.771 510.226c6.4668 -23.1729 -41.8086 -23.9424 -50.6602 -7.96094c-13.4189 24.2275 -24.2588 54.2461 -28.9473 81.6221c-3.2959 19.2275 44.2246 18.1514 50.9189 3.92676c11.3955 -24.2275 21.4961 -51.8037 28.6885 -77.5879z" />
    <glyph glyph-name="a" unicode="a" horiz-adv-x="435" 
d="M427.574 125.646c6.16895 11.3379 39.9697 7.31055 33.2539 -5.22754c-29.6221 -55.2422 -47.5605 -116.2 -79.8965 -170.037c-13.3262 -22.1816 -29.3379 -43.5938 -55.1533 -51.5557c-21.1182 -6.50684 -47.2891 -2.62793 -66.6729 7.5127
c-52.2217 27.3271 -66.8555 105.742 -73.0918 158.721c-2.13477 18.1387 -3.38867 36.4863 -3.83789 54.9004c-2.48633 -8.06348 -5.02637 -16.1055 -7.71777 -24.1025c-10.1279 -30.085 -21.9502 -66.7266 -48.9619 -86.0967
c-54.3213 -38.9629 -121.657 2.21973 -139.76 59.6328c-19.0459 60.4014 -3.98145 137.376 57.2432 167.172c52.9072 25.748 104.102 24.0889 145.657 -12.0986c2.03223 13.6328 4.50488 27.1631 7.4668 40.5244c7.63672 34.4443 95.1162 37.0645 92.8477 0.000976562
c-3.2334 -52.8623 -9.90527 -105.342 -10.6348 -158.36c-0.671875 -48.957 3.32715 -98.1104 10.626 -146.48c1.70312 -11.2842 3.56641 -22.5996 9.06836 -32.7676c8.00586 -14.7979 20.1748 -7.68555 30.6357 3.50977c16.4922 17.6533 27.8252 41.2402 38.2773 62.8076
c21.127 43.5977 37.4688 89.3174 60.6504 131.945zM133.538 78.0693c15.8164 40.1465 26.8135 82.207 39.1338 123.55c-14.6426 16.2568 -35.0586 35.4141 -58.0361 31.4062c-20.3047 -3.54492 -29.4229 -26.0371 -36.7393 -43.1211
c-15.7324 -36.7344 -21.1279 -79.5674 -10.791 -118.396c2.9043 -10.9102 12.2578 -48.9434 25.6992 -50.8467c18.0986 -2.55762 35.8633 45.0479 40.7334 57.4082z" />
    <glyph glyph-name="a" unicode="&#xe5;" horiz-adv-x="435" 
d="M427.574 125.646c6.16895 11.3379 39.9697 7.31055 33.2539 -5.22754c-29.6221 -55.2422 -47.5605 -116.2 -79.8965 -170.037c-13.3262 -22.1816 -29.3379 -43.5938 -55.1533 -51.5557c-21.1182 -6.50684 -47.2891 -2.62793 -66.6729 7.5127
c-52.2217 27.3271 -66.8555 105.742 -73.0918 158.721c-2.13477 18.1387 -3.38867 36.4863 -3.83789 54.9004c-2.48633 -8.06348 -5.02637 -16.1055 -7.71777 -24.1025c-10.1279 -30.085 -21.9502 -66.7266 -48.9619 -86.0967
c-54.3213 -38.9629 -121.657 2.21973 -139.76 59.6328c-19.0459 60.4014 -3.98145 137.376 57.2432 167.172c52.9072 25.748 104.102 24.0889 145.657 -12.0986c2.03223 13.6328 4.50488 27.1631 7.4668 40.5244c7.63672 34.4443 95.1162 37.0645 92.8477 0.000976562
c-3.2334 -52.8623 -9.90527 -105.342 -10.6348 -158.36c-0.671875 -48.957 3.32715 -98.1104 10.626 -146.48c1.70312 -11.2842 3.56641 -22.5996 9.06836 -32.7676c8.00586 -14.7979 20.1748 -7.68555 30.6357 3.50977c16.4922 17.6533 27.8252 41.2402 38.2773 62.8076
c21.127 43.5977 37.4688 89.3174 60.6504 131.945zM133.538 78.0693c15.8164 40.1465 26.8135 82.207 39.1338 123.55c-14.6426 16.2568 -35.0586 35.4141 -58.0361 31.4062c-20.3047 -3.54492 -29.4229 -26.0371 -36.7393 -43.1211
c-15.7324 -36.7344 -21.1279 -79.5674 -10.791 -118.396c2.9043 -10.9102 12.2578 -48.9434 25.6992 -50.8467c18.0986 -2.55762 35.8633 45.0479 40.7334 57.4082z" />
    <glyph glyph-name="a" unicode="&#xe4;" horiz-adv-x="435" 
d="M427.574 125.646c6.16895 11.3379 39.9697 7.31055 33.2539 -5.22754c-29.6221 -55.2422 -47.5605 -116.2 -79.8965 -170.037c-13.3262 -22.1816 -29.3379 -43.5938 -55.1533 -51.5557c-21.1182 -6.50684 -47.2891 -2.62793 -66.6729 7.5127
c-52.2217 27.3271 -66.8555 105.742 -73.0918 158.721c-2.13477 18.1387 -3.38867 36.4863 -3.83789 54.9004c-2.48633 -8.06348 -5.02637 -16.1055 -7.71777 -24.1025c-10.1279 -30.085 -21.9502 -66.7266 -48.9619 -86.0967
c-54.3213 -38.9629 -121.657 2.21973 -139.76 59.6328c-19.0459 60.4014 -3.98145 137.376 57.2432 167.172c52.9072 25.748 104.102 24.0889 145.657 -12.0986c2.03223 13.6328 4.50488 27.1631 7.4668 40.5244c7.63672 34.4443 95.1162 37.0645 92.8477 0.000976562
c-3.2334 -52.8623 -9.90527 -105.342 -10.6348 -158.36c-0.671875 -48.957 3.32715 -98.1104 10.626 -146.48c1.70312 -11.2842 3.56641 -22.5996 9.06836 -32.7676c8.00586 -14.7979 20.1748 -7.68555 30.6357 3.50977c16.4922 17.6533 27.8252 41.2402 38.2773 62.8076
c21.127 43.5977 37.4688 89.3174 60.6504 131.945zM133.538 78.0693c15.8164 40.1465 26.8135 82.207 39.1338 123.55c-14.6426 16.2568 -35.0586 35.4141 -58.0361 31.4062c-20.3047 -3.54492 -29.4229 -26.0371 -36.7393 -43.1211
c-15.7324 -36.7344 -21.1279 -79.5674 -10.791 -118.396c2.9043 -10.9102 12.2578 -48.9434 25.6992 -50.8467c18.0986 -2.55762 35.8633 45.0479 40.7334 57.4082z" />
    <glyph glyph-name="a" unicode="&#xe3;" horiz-adv-x="435" 
d="M427.574 125.646c6.16895 11.3379 39.9697 7.31055 33.2539 -5.22754c-29.6221 -55.2422 -47.5605 -116.2 -79.8965 -170.037c-13.3262 -22.1816 -29.3379 -43.5938 -55.1533 -51.5557c-21.1182 -6.50684 -47.2891 -2.62793 -66.6729 7.5127
c-52.2217 27.3271 -66.8555 105.742 -73.0918 158.721c-2.13477 18.1387 -3.38867 36.4863 -3.83789 54.9004c-2.48633 -8.06348 -5.02637 -16.1055 -7.71777 -24.1025c-10.1279 -30.085 -21.9502 -66.7266 -48.9619 -86.0967
c-54.3213 -38.9629 -121.657 2.21973 -139.76 59.6328c-19.0459 60.4014 -3.98145 137.376 57.2432 167.172c52.9072 25.748 104.102 24.0889 145.657 -12.0986c2.03223 13.6328 4.50488 27.1631 7.4668 40.5244c7.63672 34.4443 95.1162 37.0645 92.8477 0.000976562
c-3.2334 -52.8623 -9.90527 -105.342 -10.6348 -158.36c-0.671875 -48.957 3.32715 -98.1104 10.626 -146.48c1.70312 -11.2842 3.56641 -22.5996 9.06836 -32.7676c8.00586 -14.7979 20.1748 -7.68555 30.6357 3.50977c16.4922 17.6533 27.8252 41.2402 38.2773 62.8076
c21.127 43.5977 37.4688 89.3174 60.6504 131.945zM133.538 78.0693c15.8164 40.1465 26.8135 82.207 39.1338 123.55c-14.6426 16.2568 -35.0586 35.4141 -58.0361 31.4062c-20.3047 -3.54492 -29.4229 -26.0371 -36.7393 -43.1211
c-15.7324 -36.7344 -21.1279 -79.5674 -10.791 -118.396c2.9043 -10.9102 12.2578 -48.9434 25.6992 -50.8467c18.0986 -2.55762 35.8633 45.0479 40.7334 57.4082z" />
    <glyph glyph-name="a" unicode="&#xe2;" horiz-adv-x="435" 
d="M427.574 125.646c6.16895 11.3379 39.9697 7.31055 33.2539 -5.22754c-29.6221 -55.2422 -47.5605 -116.2 -79.8965 -170.037c-13.3262 -22.1816 -29.3379 -43.5938 -55.1533 -51.5557c-21.1182 -6.50684 -47.2891 -2.62793 -66.6729 7.5127
c-52.2217 27.3271 -66.8555 105.742 -73.0918 158.721c-2.13477 18.1387 -3.38867 36.4863 -3.83789 54.9004c-2.48633 -8.06348 -5.02637 -16.1055 -7.71777 -24.1025c-10.1279 -30.085 -21.9502 -66.7266 -48.9619 -86.0967
c-54.3213 -38.9629 -121.657 2.21973 -139.76 59.6328c-19.0459 60.4014 -3.98145 137.376 57.2432 167.172c52.9072 25.748 104.102 24.0889 145.657 -12.0986c2.03223 13.6328 4.50488 27.1631 7.4668 40.5244c7.63672 34.4443 95.1162 37.0645 92.8477 0.000976562
c-3.2334 -52.8623 -9.90527 -105.342 -10.6348 -158.36c-0.671875 -48.957 3.32715 -98.1104 10.626 -146.48c1.70312 -11.2842 3.56641 -22.5996 9.06836 -32.7676c8.00586 -14.7979 20.1748 -7.68555 30.6357 3.50977c16.4922 17.6533 27.8252 41.2402 38.2773 62.8076
c21.127 43.5977 37.4688 89.3174 60.6504 131.945zM133.538 78.0693c15.8164 40.1465 26.8135 82.207 39.1338 123.55c-14.6426 16.2568 -35.0586 35.4141 -58.0361 31.4062c-20.3047 -3.54492 -29.4229 -26.0371 -36.7393 -43.1211
c-15.7324 -36.7344 -21.1279 -79.5674 -10.791 -118.396c2.9043 -10.9102 12.2578 -48.9434 25.6992 -50.8467c18.0986 -2.55762 35.8633 45.0479 40.7334 57.4082z" />
    <glyph glyph-name="a" unicode="&#xe1;" horiz-adv-x="435" 
d="M427.574 125.646c6.16895 11.3379 39.9697 7.31055 33.2539 -5.22754c-29.6221 -55.2422 -47.5605 -116.2 -79.8965 -170.037c-13.3262 -22.1816 -29.3379 -43.5938 -55.1533 -51.5557c-21.1182 -6.50684 -47.2891 -2.62793 -66.6729 7.5127
c-52.2217 27.3271 -66.8555 105.742 -73.0918 158.721c-2.13477 18.1387 -3.38867 36.4863 -3.83789 54.9004c-2.48633 -8.06348 -5.02637 -16.1055 -7.71777 -24.1025c-10.1279 -30.085 -21.9502 -66.7266 -48.9619 -86.0967
c-54.3213 -38.9629 -121.657 2.21973 -139.76 59.6328c-19.0459 60.4014 -3.98145 137.376 57.2432 167.172c52.9072 25.748 104.102 24.0889 145.657 -12.0986c2.03223 13.6328 4.50488 27.1631 7.4668 40.5244c7.63672 34.4443 95.1162 37.0645 92.8477 0.000976562
c-3.2334 -52.8623 -9.90527 -105.342 -10.6348 -158.36c-0.671875 -48.957 3.32715 -98.1104 10.626 -146.48c1.70312 -11.2842 3.56641 -22.5996 9.06836 -32.7676c8.00586 -14.7979 20.1748 -7.68555 30.6357 3.50977c16.4922 17.6533 27.8252 41.2402 38.2773 62.8076
c21.127 43.5977 37.4688 89.3174 60.6504 131.945zM133.538 78.0693c15.8164 40.1465 26.8135 82.207 39.1338 123.55c-14.6426 16.2568 -35.0586 35.4141 -58.0361 31.4062c-20.3047 -3.54492 -29.4229 -26.0371 -36.7393 -43.1211
c-15.7324 -36.7344 -21.1279 -79.5674 -10.791 -118.396c2.9043 -10.9102 12.2578 -48.9434 25.6992 -50.8467c18.0986 -2.55762 35.8633 45.0479 40.7334 57.4082z" />
    <glyph glyph-name="b" unicode="b" horiz-adv-x="455" 
d="M466.763 123.377c15.71 2.3125 29.3604 -14.3691 8.4248 -17.4248c-34.2393 -4.99023 -69.3643 -12.0049 -104.11 -21.4961c4.30078 -49.3887 -0.586914 -99.3779 -11.9375 -147.722c-14.7578 -62.8564 -40.2129 -124.677 -82.5117 -174.168
c-39.0342 -45.6748 -104.946 -78.9355 -166.02 -64.9697c-59.5742 13.6279 -84.3438 71.0312 -77.4893 127.776c3.81152 31.5703 15.9092 61.4111 32.8291 88.4277c-14.0146 -1.57031 -30.8672 1.69043 -35.7109 7.69043c-13.459 16.6797 -20.0459 30.748 -24.3916 51.7109
c-4.31836 20.834 -6.72461 42.3926 -8.97559 63.5469c-4.75 44.6426 -8.07227 89.3652 -9.19336 134.248c-3.41992 136.904 3.34082 295.87 86.0752 411.803c35.2402 49.3799 90.1445 99.2754 152.36 108.487c63.6934 9.42969 110.77 -29.3018 122.409 -90.6992
c2.27246 -12 -30.2363 -12.8809 -33.083 0c-9.0957 41.1562 -39.8389 81.1377 -86.5322 64.7783c-32.7227 -11.4668 -55.2373 -42.1748 -72.2461 -70.6592c-34.1641 -57.2129 -52.1152 -120.563 -61.4463 -186.227c-11.333 -79.7627 -15.0918 -161.318 -14.4248 -241.819
c0.155273 -18.6895 0.458008 -37.3838 0.884766 -56.082c9.81152 25.6016 21.6426 50.4512 35.5771 74.2119c29.1777 49.7539 84.8916 116.347 150.72 91.0742c56.1494 -21.5537 83.7617 -88.2354 95.6592 -142.361c2.1709 -9.87402 3.87891 -19.8057 5.24414 -29.7734
c32.7363 8.45996 65.6729 14.9053 97.8887 19.6465zM286.118 -25.3779c5.00391 27.8037 8.43848 56.3193 10.0352 84.9014c-56.6924 -22.6572 -109.675 -53.4678 -152.814 -94.8682c-35.0801 -33.6611 -65.4902 -76.4492 -73.0869 -125.455
c-6.52539 -42.085 10.9365 -118.899 67.8066 -103.457c41.3555 11.2305 73.082 54.6631 93.4268 89.6455c26.7539 46.0039 45.208 96.8779 54.6328 149.233zM296.972 81.4912c0.355469 17.4219 0.0390625 34.8154 -1.19336 52.0156
c-1.86328 25.9355 -6.21289 50.8965 -15.5488 75.2568c-9.71387 25.3486 -20.3223 61.2119 -55.1934 48.7539c-49.3174 -17.6182 -80.1943 -81.9961 -100.28 -126.332c-19.4766 -42.9883 -32.4688 -88.2451 -39.4961 -134.716
c0.0800781 -3.85645 0.208984 -7.71289 0.257812 -11.5732c0.182617 -14.3174 -1.41895 -29.6133 -0.435547 -44.1533c10.168 12.7344 21.2607 24.6504 32.9141 35.5342c50.3359 47.0225 112.752 81.0352 178.976 105.214z" />
    <glyph glyph-name="c" unicode="c" horiz-adv-x="307" 
d="M300.11 122.896c5.45703 10.9727 38.2734 8.83496 32.9053 -5.1582c-18.1914 -47.458 -39.3096 -94.4756 -61.5889 -140.159c-17.8096 -36.5166 -38.1094 -76.5205 -68.9902 -103.924c-54.8682 -48.6904 -133.978 -33.1455 -176.014 23.7197
c-47.9922 64.9209 -52.8047 162.857 -40.9775 239.867c10.501 68.3633 53.4893 157.858 132.759 163.143c84.6338 5.63574 86.8262 -100.627 80.248 -161.108c-1.37402 -12.6318 -32.8291 -11.9424 -31.6904 0c3.53613 37.126 3.22949 83.25 -15.7275 116.733
c-5.31055 9.38086 -7.13867 14.7451 -16.5684 11.4316c-7.69043 -2.7041 -14.082 -11.6357 -19.0723 -17.6094c-10.0391 -12.0137 -17.6406 -25.3037 -23.8369 -39.6787c-28.96 -67.2197 -30.9971 -146.761 -20.042 -218.188
c5.0791 -33.123 11.8535 -74.7324 33.0918 -102.051c11.9512 -15.3721 28.2256 -27.2607 47.6182 -18.2402c14.54 6.76074 26.5449 19.7129 36.4365 31.9531c51.3594 63.542 75.502 147.001 111.449 219.27z" />
    <glyph glyph-name="d" unicode="d" horiz-adv-x="468" 
d="M375.88 611.634c-23.7471 -30.4141 -41.0078 -61.7324 -54.4893 -97.9424c-54.4326 -146.089 -60.499 -312.687 -38.0332 -465.647c5.53711 -37.6865 12.3203 -75.5869 25.0098 -111.632c4.2832 -12.165 11.5156 -38.4824 22.0752 -47.0977
c14.5088 -11.8359 33.8965 14.5713 42.0713 25.8242c43.9219 60.459 69.2568 133.648 92.248 204.009c3.50977 10.7412 33.8574 8.30371 29.8896 -4.69727c-16.5508 -54.2324 -34.6045 -108.216 -61.416 -158.374c-19.5879 -36.6367 -45.4658 -85.0518 -90.7539 -92.4932
c-100.588 -16.5371 -137.625 123.089 -150.612 196.843c-3.77637 21.4521 -6.7832 43.0645 -9.08301 64.7695c-2.97559 -9.82129 -6.05762 -19.6113 -9.33105 -29.3428c-10.1279 -30.085 -21.9502 -66.7266 -48.9619 -86.0967
c-54.3213 -38.9629 -121.657 2.21973 -139.76 59.6328c-19.0459 60.4014 -3.98145 137.376 57.2432 167.172c48.7656 23.7295 96.0732 24.1738 135.722 -4.23926c0.560547 47.04 4.83008 94.0176 13.1924 140.267c16.4121 90.7715 48.4365 192.996 122.368 254.092
c31.9619 26.416 77.2139 47.4189 119.468 42.5312c34.2041 -3.9541 66.7002 -25.6279 71.335 -61.5576c1.77051 -13.7217 -34.1855 -14.3311 -36.5566 0c-3.40723 20.5889 -22.168 38.9805 -43.9219 37.6016c-20.9756 -1.3252 -35.7559 -18.3203 -47.7031 -33.6211z
M132.535 78.0713c15.8164 40.1465 26.8135 82.207 39.1338 123.55c-14.6426 16.2568 -35.0586 35.4141 -58.0361 31.4062c-20.3047 -3.54492 -29.4229 -26.0371 -36.7393 -43.1211c-15.7324 -36.7344 -21.1279 -79.5674 -10.791 -118.396
c2.9043 -10.9102 12.2578 -48.9434 25.6992 -50.8467c18.0986 -2.55762 35.8633 45.0479 40.7334 57.4082z" />
    <glyph glyph-name="e" unicode="e" horiz-adv-x="226" 
d="M221.291 115.691c4.02051 8.56641 32.917 9.2373 30.7861 -2.3623c-7.21875 -39.3545 -24.0137 -80.5059 -43.3174 -115.426c-17.5195 -31.6865 -41.2666 -63.9062 -78.6152 -72.2725c-33.3232 -7.46387 -69.4482 1.29395 -95.8555 22.7324
c-28.9424 23.498 -43.2373 62.1006 -49.5264 97.8164c-13.0859 74.2969 0.19043 159.575 47.5371 219.799c22.2168 28.2617 53.9834 49.6738 90.5449 52.5645c27.332 2.16211 54.1123 -8.3877 61.0957 -36.9609c14.0459 -57.4619 -60.6865 -93.0176 -110.24 -109.981
c-3.96289 -18.2002 -6.3916 -36.752 -7.74805 -55.3037c-2.37109 -32.4512 -1.47754 -64.8223 4.85156 -96.8291c4.69238 -23.7246 20.5488 -85.541 55.4951 -71.5615c28.4746 11.3867 46.4434 49.7139 58.7148 75.542c14.2197 29.9385 22.2529 62.3896 36.2773 92.2432z
M84.167 208.303c-1.37012 -3.78027 -2.64551 -7.58887 -3.83789 -11.4229c17.2441 7.41895 33.5361 16.7949 47.3115 29.7246c10.7725 10.1055 20.918 22.7324 22.2031 38.0508c0.489258 5.85742 0.168945 14.5176 -3.69629 19.4551
c-7.12109 9.0918 -8.45508 6.61914 -15.9893 1.26855c-23.1689 -16.4434 -36.7305 -51.5498 -45.9912 -77.0762z" />
    <glyph glyph-name="e" unicode="&#xeb;" horiz-adv-x="226" 
d="M221.291 115.691c4.02051 8.56641 32.917 9.2373 30.7861 -2.3623c-7.21875 -39.3545 -24.0137 -80.5059 -43.3174 -115.426c-17.5195 -31.6865 -41.2666 -63.9062 -78.6152 -72.2725c-33.3232 -7.46387 -69.4482 1.29395 -95.8555 22.7324
c-28.9424 23.498 -43.2373 62.1006 -49.5264 97.8164c-13.0859 74.2969 0.19043 159.575 47.5371 219.799c22.2168 28.2617 53.9834 49.6738 90.5449 52.5645c27.332 2.16211 54.1123 -8.3877 61.0957 -36.9609c14.0459 -57.4619 -60.6865 -93.0176 -110.24 -109.981
c-3.96289 -18.2002 -6.3916 -36.752 -7.74805 -55.3037c-2.37109 -32.4512 -1.47754 -64.8223 4.85156 -96.8291c4.69238 -23.7246 20.5488 -85.541 55.4951 -71.5615c28.4746 11.3867 46.4434 49.7139 58.7148 75.542c14.2197 29.9385 22.2529 62.3896 36.2773 92.2432z
M84.167 208.303c-1.37012 -3.78027 -2.64551 -7.58887 -3.83789 -11.4229c17.2441 7.41895 33.5361 16.7949 47.3115 29.7246c10.7725 10.1055 20.918 22.7324 22.2031 38.0508c0.489258 5.85742 0.168945 14.5176 -3.69629 19.4551
c-7.12109 9.0918 -8.45508 6.61914 -15.9893 1.26855c-23.1689 -16.4434 -36.7305 -51.5498 -45.9912 -77.0762z" />
    <glyph glyph-name="e" unicode="&#xea;" horiz-adv-x="226" 
d="M221.291 115.691c4.02051 8.56641 32.917 9.2373 30.7861 -2.3623c-7.21875 -39.3545 -24.0137 -80.5059 -43.3174 -115.426c-17.5195 -31.6865 -41.2666 -63.9062 -78.6152 -72.2725c-33.3232 -7.46387 -69.4482 1.29395 -95.8555 22.7324
c-28.9424 23.498 -43.2373 62.1006 -49.5264 97.8164c-13.0859 74.2969 0.19043 159.575 47.5371 219.799c22.2168 28.2617 53.9834 49.6738 90.5449 52.5645c27.332 2.16211 54.1123 -8.3877 61.0957 -36.9609c14.0459 -57.4619 -60.6865 -93.0176 -110.24 -109.981
c-3.96289 -18.2002 -6.3916 -36.752 -7.74805 -55.3037c-2.37109 -32.4512 -1.47754 -64.8223 4.85156 -96.8291c4.69238 -23.7246 20.5488 -85.541 55.4951 -71.5615c28.4746 11.3867 46.4434 49.7139 58.7148 75.542c14.2197 29.9385 22.2529 62.3896 36.2773 92.2432z
M84.167 208.303c-1.37012 -3.78027 -2.64551 -7.58887 -3.83789 -11.4229c17.2441 7.41895 33.5361 16.7949 47.3115 29.7246c10.7725 10.1055 20.918 22.7324 22.2031 38.0508c0.489258 5.85742 0.168945 14.5176 -3.69629 19.4551
c-7.12109 9.0918 -8.45508 6.61914 -15.9893 1.26855c-23.1689 -16.4434 -36.7305 -51.5498 -45.9912 -77.0762z" />
    <glyph glyph-name="e" unicode="&#xe9;" horiz-adv-x="226" 
d="M221.291 115.691c4.02051 8.56641 32.917 9.2373 30.7861 -2.3623c-7.21875 -39.3545 -24.0137 -80.5059 -43.3174 -115.426c-17.5195 -31.6865 -41.2666 -63.9062 -78.6152 -72.2725c-33.3232 -7.46387 -69.4482 1.29395 -95.8555 22.7324
c-28.9424 23.498 -43.2373 62.1006 -49.5264 97.8164c-13.0859 74.2969 0.19043 159.575 47.5371 219.799c22.2168 28.2617 53.9834 49.6738 90.5449 52.5645c27.332 2.16211 54.1123 -8.3877 61.0957 -36.9609c14.0459 -57.4619 -60.6865 -93.0176 -110.24 -109.981
c-3.96289 -18.2002 -6.3916 -36.752 -7.74805 -55.3037c-2.37109 -32.4512 -1.47754 -64.8223 4.85156 -96.8291c4.69238 -23.7246 20.5488 -85.541 55.4951 -71.5615c28.4746 11.3867 46.4434 49.7139 58.7148 75.542c14.2197 29.9385 22.2529 62.3896 36.2773 92.2432z
M84.167 208.303c-1.37012 -3.78027 -2.64551 -7.58887 -3.83789 -11.4229c17.2441 7.41895 33.5361 16.7949 47.3115 29.7246c10.7725 10.1055 20.918 22.7324 22.2031 38.0508c0.489258 5.85742 0.168945 14.5176 -3.69629 19.4551
c-7.12109 9.0918 -8.45508 6.61914 -15.9893 1.26855c-23.1689 -16.4434 -36.7305 -51.5498 -45.9912 -77.0762z" />
    <glyph glyph-name="f" unicode="f" horiz-adv-x="305" 
d="M327.771 138.646c20.7627 -7.52539 -4.41602 -19.3682 -16.5273 -16.1123c-16.248 4.36816 -36.3652 -1.99707 -52.6045 -4.92773c-14.1484 -2.55762 -28.2969 -5.11035 -42.4453 -7.66309c-16.2568 -2.93555 -32.5137 -5.86621 -48.7705 -8.80176
c33.9189 -18.1475 61.8828 -46.6533 76.5293 -82.8857c16.8174 -41.6006 16.6885 -89.4414 -0.0927734 -131.024c-17.0039 -42.1299 -51.9062 -78.0684 -100.557 -67.7051c-44.8389 9.54492 -91.3545 49.7402 -107.883 91.7588
c-20.7314 52.707 -29.752 111.814 -35.3291 168.351c-5.88867 1.37012 -11.6309 3.27344 -17.1777 5.83496c-6.6582 3.07324 -6.44043 11.2705 0 14.2998c4.94141 2.32129 9.90039 4.45215 14.873 6.47168c-9.02051 118.246 4.1582 242.843 39.3535 355.786
c16.8711 54.1436 41.7793 105.022 79.2744 147.944c31.8506 36.459 91.5098 59.9482 136.001 31.9531c18.4941 -11.6396 -12.6006 -22.043 -23.4131 -17.2969c-41.085 18.0449 -66.3174 -69.9551 -76.0488 -96.8516c-17.0303 -47.0762 -30.1914 -96.4209 -40.2256 -145.436
c-17.5557 -85.7363 -24.5166 -172.033 -22.9424 -259.291c13.7754 -0.773438 27.6924 -3.14844 41.7471 -7.27148c16.6035 2.98926 33.207 5.97852 49.8105 8.96289c26.8916 4.83887 53.7783 9.70508 80.6748 14.5127c22.4883 4.0166 43.7715 7.35742 65.7529 -0.608398z
M205.495 21.6162c-15.8027 33.207 -44.3086 58.9756 -78.5654 72.1416c-11.4482 -2.22363 -23.542 -5.10547 -35.9512 -7.89844c1.54297 -38.8916 4.06055 -77.7744 8.01465 -116.497c2.43262 -23.8311 7.56543 -45.6924 13.1826 -68.8125
c4.27441 -17.5957 6.36035 -33.0693 19.1611 -47.2666c38.3311 -42.5215 73.3174 21.1758 83.0586 54.5527c10.8613 37.2148 7.75684 78.7803 -8.90039 113.78z" />
    <glyph glyph-name="g" unicode="g" horiz-adv-x="361" 
d="M356.96 129.23c4.65723 10.5195 35.123 7.44043 29.9014 -4.69336c-17.9512 -41.6631 -49.6602 -76.3691 -80.0254 -109.421c-10.8662 -11.8311 -22.0039 -23.4043 -33.2217 -34.8975c-0.435547 -38.6338 -1.37402 -77.29 -4.18945 -115.72
c-6.48047 -88.4854 -21.1182 -212.504 -105.934 -262.897c-33.083 -19.6553 -74.6523 -29.5742 -111.436 -14.7539c-38.6074 15.5498 -53.5654 53.8457 -48.1572 93.4893c5.9248 43.4639 30.5703 80.8926 56.6348 114.999c29.667 38.8252 63.4258 74.3232 97.9629 108.812
c7.00977 7.00098 14.0771 13.9443 21.1494 20.8877c-0.0664062 9.46094 -0.137695 18.8945 -0.182617 28.2617c-0.226562 49.5264 -0.987305 99.0088 -2.1123 148.482c-0.649414 -1.9707 -1.23242 -3.95898 -1.89551 -5.9209
c-10.1279 -30.085 -21.9502 -66.7266 -48.9619 -86.0967c-54.3213 -38.9629 -121.657 2.21973 -139.76 59.6328c-19.0459 60.4014 -3.98145 137.376 57.2432 167.172c46.2305 22.4922 91.1445 24.0449 129.472 -0.0576172
c-0.125 3.58984 -0.222656 7.17969 -0.347656 10.7695c-1.27246 36.8018 90.2598 36.7666 94.2402 0.000976562c6.93848 -64.1377 7.41406 -128.645 6.83984 -193.107c-0.106445 -11.6621 -0.177734 -23.3379 -0.25293 -35.0176
c31.7529 33.0479 64.4268 68.0615 83.0322 110.076zM134.545 78.0654c15.8125 40.1465 26.8086 82.207 39.1338 123.55c-14.6426 16.2568 -35.0586 35.4141 -58.0361 31.4062c-20.3047 -3.54492 -29.4229 -26.0371 -36.7393 -43.1211
c-15.7324 -36.7344 -21.1279 -79.5674 -10.791 -118.396c2.9043 -10.9102 12.2578 -48.9434 25.6992 -50.8467c18.0986 -2.55762 35.8633 45.0479 40.7334 57.4082zM157.639 -322.5c19.1699 66.873 22.0654 138.189 22.1592 208.35
c-22.2881 -22.8662 -44.0781 -46.2178 -64.5518 -70.7344c-26.7852 -32.0781 -53.9307 -66.4062 -68.1592 -106.201c-12.9072 -36.0938 -15.0293 -97.3623 33.4346 -107.588c43.4287 -9.16699 67.4072 42.2988 77.1172 76.1738z" />
    <glyph glyph-name="h" unicode="h" horiz-adv-x="366" 
d="M363.524 98.4248c3.18945 10.79 33.75 8.375 29.8896 -4.69727c-12.4277 -42.0547 -24.5039 -84.5088 -42.6826 -124.526c-13.7793 -30.3252 -33.0029 -67.6826 -67.9678 -77.1035c-31.998 -8.62012 -61.7314 9.21582 -82.8672 32.0596
c-28.7949 31.126 -29.5684 75.9688 -25.8184 115.95c4.14551 44.2158 11.7021 88.3779 13.4053 132.785c0.654297 17.0439 4.55957 42.0234 -0.421875 58.5957c-11.1504 37.082 -41.3818 -11.9023 -48.209 -24.8145c-35.6357 -67.3984 -48.1299 -143.265 -53.3965 -218.638
c0.0175781 -1.0498 0.0576172 -2.09473 0.0712891 -3.13965c0.226562 -17.8447 -2.39746 -37.2236 0.787109 -54.7432c3.90918 -21.5273 -47.0361 -19.8643 -56.0781 -8.65527c-13.459 16.6797 -20.0459 30.748 -24.3916 51.7109
c-4.31836 20.834 -6.72461 42.3926 -8.97559 63.5469c-4.75 44.6426 -8.07227 89.3652 -9.19336 134.248c-3.41992 136.904 3.34082 295.87 86.0752 411.803c35.2402 49.3799 90.1396 99.2754 152.36 108.487c63.6885 9.43359 110.765 -29.2979 122.404 -90.6953
c2.27246 -12 -30.2363 -12.8809 -33.083 0c-9.0957 41.1562 -39.8389 81.1377 -86.5322 64.7783c-32.7227 -11.4668 -55.2373 -42.1748 -72.2461 -70.6592c-34.1641 -57.2129 -52.1152 -120.563 -61.4473 -186.227c-11.333 -79.7627 -15.0918 -161.318 -14.4248 -241.819
c0.0224609 -2.85547 0.0712891 -5.71094 0.102539 -8.56641c2.1709 6.28027 4.43457 12.5342 6.90723 18.7256c17.3379 43.46 47.5078 104.725 105.219 88.7793c64.9922 -17.9561 72.874 -101.366 73.0879 -156.804c0.137695 -35.2803 -3.72754 -70.6045 -4.57227 -105.894
c-0.422852 -17.4492 -0.271484 -34.6621 0.191406 -52.0801c0.257812 -9.85156 -4.77246 -30.6055 6.29785 -36.5879c23.1553 -12.5166 56.0469 69.5459 62.8525 86.3457c12.9297 31.9131 22.9062 64.8447 32.6562 97.834z" />
    <glyph glyph-name="i" unicode="i" horiz-adv-x="236" 
d="M229.616 125.646c6.16895 11.3379 39.9678 7.3125 33.2471 -5.22168c-29.6221 -55.2422 -47.5605 -116.2 -79.8965 -170.037c-13.3262 -22.1816 -29.3379 -43.5938 -55.1533 -51.5557c-21.1182 -6.50684 -47.2891 -2.62793 -66.6729 7.5127
c-52.2217 27.3271 -66.8555 105.742 -73.0918 158.721c-7.7793 66.126 -4.30078 134.97 10.0967 199.926c7.63672 34.4443 95.1162 37.0645 92.8477 0.000976562c-3.2334 -52.8623 -9.90527 -105.342 -10.6348 -158.36c-0.671875 -48.957 3.32715 -98.1104 10.626 -146.48
c1.70312 -11.2842 3.56641 -22.5996 9.06836 -32.7676c8.00586 -14.7979 20.1748 -7.68555 30.6357 3.50977c16.4922 17.6533 27.8252 41.2402 38.2773 62.8076c21.127 43.5977 37.4688 89.3174 60.6504 131.945zM28.0889 338.604
c-26.1084 17.124 -27.5039 53.6191 -24.0391 82.0537c3.33984 27.3496 71.4229 26.3398 69.2207 0c-2.03223 -24.2939 -0.257812 -62.874 -20.0244 -80.2031c-6.09375 -5.34668 -18.2852 -6.35645 -25.1572 -1.85059z" />
    <glyph glyph-name="i" unicode="&#xef;" horiz-adv-x="236" 
d="M229.616 125.646c6.16895 11.3379 39.9678 7.3125 33.2471 -5.22168c-29.6221 -55.2422 -47.5605 -116.2 -79.8965 -170.037c-13.3262 -22.1816 -29.3379 -43.5938 -55.1533 -51.5557c-21.1182 -6.50684 -47.2891 -2.62793 -66.6729 7.5127
c-52.2217 27.3271 -66.8555 105.742 -73.0918 158.721c-7.7793 66.126 -4.30078 134.97 10.0967 199.926c7.63672 34.4443 95.1162 37.0645 92.8477 0.000976562c-3.2334 -52.8623 -9.90527 -105.342 -10.6348 -158.36c-0.671875 -48.957 3.32715 -98.1104 10.626 -146.48
c1.70312 -11.2842 3.56641 -22.5996 9.06836 -32.7676c8.00586 -14.7979 20.1748 -7.68555 30.6357 3.50977c16.4922 17.6533 27.8252 41.2402 38.2773 62.8076c21.127 43.5977 37.4688 89.3174 60.6504 131.945zM28.0889 338.604
c-26.1084 17.124 -27.5039 53.6191 -24.0391 82.0537c3.33984 27.3496 71.4229 26.3398 69.2207 0c-2.03223 -24.2939 -0.257812 -62.874 -20.0244 -80.2031c-6.09375 -5.34668 -18.2852 -6.35645 -25.1572 -1.85059z" />
    <glyph glyph-name="i" unicode="&#xee;" horiz-adv-x="236" 
d="M229.616 125.646c6.16895 11.3379 39.9678 7.3125 33.2471 -5.22168c-29.6221 -55.2422 -47.5605 -116.2 -79.8965 -170.037c-13.3262 -22.1816 -29.3379 -43.5938 -55.1533 -51.5557c-21.1182 -6.50684 -47.2891 -2.62793 -66.6729 7.5127
c-52.2217 27.3271 -66.8555 105.742 -73.0918 158.721c-7.7793 66.126 -4.30078 134.97 10.0967 199.926c7.63672 34.4443 95.1162 37.0645 92.8477 0.000976562c-3.2334 -52.8623 -9.90527 -105.342 -10.6348 -158.36c-0.671875 -48.957 3.32715 -98.1104 10.626 -146.48
c1.70312 -11.2842 3.56641 -22.5996 9.06836 -32.7676c8.00586 -14.7979 20.1748 -7.68555 30.6357 3.50977c16.4922 17.6533 27.8252 41.2402 38.2773 62.8076c21.127 43.5977 37.4688 89.3174 60.6504 131.945zM28.0889 338.604
c-26.1084 17.124 -27.5039 53.6191 -24.0391 82.0537c3.33984 27.3496 71.4229 26.3398 69.2207 0c-2.03223 -24.2939 -0.257812 -62.874 -20.0244 -80.2031c-6.09375 -5.34668 -18.2852 -6.35645 -25.1572 -1.85059z" />
    <glyph glyph-name="i" unicode="&#xed;" horiz-adv-x="236" 
d="M229.616 125.646c6.16895 11.3379 39.9678 7.3125 33.2471 -5.22168c-29.6221 -55.2422 -47.5605 -116.2 -79.8965 -170.037c-13.3262 -22.1816 -29.3379 -43.5938 -55.1533 -51.5557c-21.1182 -6.50684 -47.2891 -2.62793 -66.6729 7.5127
c-52.2217 27.3271 -66.8555 105.742 -73.0918 158.721c-7.7793 66.126 -4.30078 134.97 10.0967 199.926c7.63672 34.4443 95.1162 37.0645 92.8477 0.000976562c-3.2334 -52.8623 -9.90527 -105.342 -10.6348 -158.36c-0.671875 -48.957 3.32715 -98.1104 10.626 -146.48
c1.70312 -11.2842 3.56641 -22.5996 9.06836 -32.7676c8.00586 -14.7979 20.1748 -7.68555 30.6357 3.50977c16.4922 17.6533 27.8252 41.2402 38.2773 62.8076c21.127 43.5977 37.4688 89.3174 60.6504 131.945zM28.0889 338.604
c-26.1084 17.124 -27.5039 53.6191 -24.0391 82.0537c3.33984 27.3496 71.4229 26.3398 69.2207 0c-2.03223 -24.2939 -0.257812 -62.874 -20.0244 -80.2031c-6.09375 -5.34668 -18.2852 -6.35645 -25.1572 -1.85059z" />
    <glyph glyph-name="j" unicode="j" horiz-adv-x="171" 
d="M169.137 129.23c4.65723 10.5195 35.1201 7.44238 29.8936 -4.69141c-17.9512 -41.6631 -49.6602 -76.3691 -80.0254 -109.421c-10.8662 -11.8311 -22.0039 -23.4043 -33.2217 -34.8975c-0.435547 -38.6338 -1.37402 -77.29 -4.18945 -115.72
c-6.48047 -88.4854 -21.1182 -212.504 -105.934 -262.897c-33.083 -19.6553 -74.6523 -29.5742 -111.436 -14.7539c-38.6074 15.5498 -53.5605 53.8457 -48.1562 93.4893c5.9248 43.4639 30.5703 80.8926 56.6348 114.999c29.667 38.8252 63.4307 74.3232 97.9639 108.812
c7.00977 7.00098 14.0771 13.9443 21.1494 20.8877c-0.0625 9.46094 -0.133789 18.8945 -0.178711 28.2617c-0.449219 98.0742 -2.96191 195.976 -6.36035 293.979c-1.27246 36.8018 90.2598 36.7666 94.2402 0.000976562
c6.93848 -64.1377 7.41406 -128.645 6.83984 -193.107c-0.106445 -11.6621 -0.177734 -23.3379 -0.25293 -35.0176c31.7529 33.0479 64.4268 68.0615 83.0322 110.076zM-30.1885 -322.495c19.1699 66.873 22.0664 138.189 22.1553 208.35
c-22.2881 -22.8662 -44.0781 -46.2178 -64.5518 -70.7344c-26.7852 -32.0781 -53.9307 -66.4062 -68.1592 -106.201c-12.9072 -36.0938 -15.0293 -97.3623 33.4346 -107.588c43.4326 -9.16699 67.4111 42.2988 77.1211 76.1738zM55.2646 320.377
c-6.55176 -20.5137 -50.0156 -14.9092 -59.0449 0c-17.1016 28.2744 -17.2617 71.4092 -12.752 103.238c4.23438 29.8809 76.9922 30.8057 77.5615 0c0.600586 -32.416 4.17188 -72.126 -5.76465 -103.238z" />
    <glyph glyph-name="k" unicode="k" horiz-adv-x="373" 
d="M370.066 97.7803c7.76172 9.84766 41.168 3.89746 30.3779 -10.1172c-25.5127 -33.0879 -46.8623 -69.6221 -82.6455 -92.8799c-31.415 -20.416 -69.9824 -27.1592 -106.245 -18.2637c-39.4971 9.6875 -65.8506 35.0264 -87.8184 68.0693
c-10.1855 15.3184 -19.21 31.335 -28.4795 47.209c-4.38086 7.49902 -9.06934 14.8242 -13.6504 22.208c0.506836 -22.875 1.19629 -45.7461 2.14844 -68.5947c0.835938 -20.1572 1.5166 -40.333 1.77441 -60.5088c0.226562 -17.8447 -2.39746 -37.2236 0.787109 -54.7432
c3.90918 -21.5273 -47.0361 -19.8643 -56.0781 -8.65527c-13.459 16.6797 -20.0459 30.748 -24.3916 51.7109c-4.31445 20.834 -6.72559 42.3926 -8.97656 63.5469c-4.75 44.6426 -8.07227 89.3652 -9.19336 134.248c-3.41992 136.904 3.34082 295.87 86.0752 411.803
c35.2354 49.3799 90.1396 99.2754 152.355 108.487c63.6934 9.42969 110.77 -29.3018 122.409 -90.6992c2.27246 -12 -30.2363 -12.8809 -33.083 0c-9.0957 41.1562 -39.8389 81.1377 -86.5322 64.7783c-32.7227 -11.4668 -55.2373 -42.1748 -72.2461 -70.6592
c-34.1641 -57.2129 -52.1152 -120.563 -61.4473 -186.227c-9.53125 -67.0869 -13.6592 -135.441 -14.3486 -203.364c12.6582 19.8018 26.9844 38.7402 43.3037 55.4326c31.1123 31.8193 100.254 78.2637 145.991 48.3877
c48.9395 -31.9756 -23.7559 -102.46 -50.9814 -121.83c-30.9883 -22.0479 -68.1592 -40.5195 -106.13 -43.9043c2.20215 -1.0498 3.8877 -1.92578 4.80859 -2.48633c31.749 -19.3525 49.0693 -53.459 69.4453 -83.1611c19.8994 -29.0088 57.4795 -68.7861 96.2383 -51.3281
c38.625 17.4004 61.3936 59.6367 86.5322 91.541zM91.8799 163.044c36.8018 -4.40332 73.8564 16.2139 103.479 37.6572c17.1104 12.3867 33.1094 27.5674 43.9307 45.8477c10.5098 17.7646 22.3408 56.8652 -12.7256 49.3574
c-46.293 -9.91016 -81.4531 -49.3984 -107.175 -86.627c-10.1992 -14.7627 -19.3262 -30.2676 -27.5098 -46.2354z" />
    <glyph glyph-name="l" unicode="l" horiz-adv-x="275" 
d="M183.28 611.634c-23.751 -30.4141 -41.0078 -61.7324 -54.4893 -97.9375c-54.4326 -146.089 -60.499 -312.687 -38.0332 -465.647c5.53711 -37.6865 12.3203 -75.5869 25.0098 -111.632c4.2832 -12.165 11.5156 -38.4824 22.0752 -47.0977
c14.5088 -11.8359 33.8965 14.5713 42.0713 25.8242c43.9219 60.459 69.2568 133.648 92.248 204.009c3.50977 10.7412 33.8574 8.30371 29.8896 -4.69727c-16.5508 -54.2324 -34.6045 -108.216 -61.416 -158.374c-19.5879 -36.6367 -45.4658 -85.0518 -90.7539 -92.4932
c-100.588 -16.5371 -137.625 123.089 -150.612 196.843c-18.0986 102.78 -19.584 209.274 -0.978516 312.157c16.4121 90.7715 48.4365 192.996 122.368 254.092c31.9619 26.416 77.2139 47.4189 119.468 42.5312c34.2041 -3.9541 66.7002 -25.6279 71.335 -61.5576
c1.77051 -13.7217 -34.1855 -14.3311 -36.5566 0c-3.40723 20.5889 -22.168 38.9805 -43.9219 37.6016c-20.9756 -1.3252 -35.7559 -18.3203 -47.7031 -33.6211z" />
    <glyph glyph-name="m" unicode="m" horiz-adv-x="529" 
d="M526.261 93.7461c3.91895 10.7236 34.4736 7.93848 29.8965 -4.70703c-21.3096 -58.8223 -39.8613 -127.435 -101.41 -156.501c-58.2178 -27.4873 -121.297 7.97559 -131.527 70.832c-5.99121 36.8145 -4.14062 76.458 -4.57227 113.682
c-0.414062 35.7559 2.85059 71.9082 0.764648 107.598c-0.414062 7.11621 0.426758 21.2295 -10.3193 18.2852c-5.98633 -1.63672 -14.415 -14.8203 -17.2393 -19.3574c-9.26074 -14.8643 -16.5996 -31.3389 -23.4805 -47.418
c-10.3906 -24.29 -18.6816 -49.2871 -25.1133 -74.8047c1.21875 -21.1895 1.1875 -39.7676 0.832031 -51.8564c-0.84082 -28.3242 -71.5254 -28.1289 -72.001 -0.000976562c-0.663086 39.3281 2.20996 78.6064 2.0498 117.935
c-0.0625 16.0391 3.69141 42.8018 -3.30469 57.3682c-9.91406 20.6338 -27.6299 -3.51758 -35.7383 -14.4277c-20.5137 -27.5898 -33.3369 -62.0918 -43.5938 -94.6279c-6.30664 -20.0068 -13.9033 -43.5049 -17.8574 -66.7666
c-0.0449219 -4.0166 -0.0986328 -8.0332 -0.138672 -12.0537c-0.205078 -20.8828 4.62988 -45.6885 -2.91797 -65.3076c-6.80078 -17.6758 -39.8262 -12.6543 -50.875 -3.79004c-20.2061 16.1992 -25.4238 44.5898 -29.2041 69.0977
c-4.11426 26.6738 -5.51562 54.29 -5.50684 81.2617c0.0224609 55.251 3.5625 112.201 18.3467 165.624c7.48145 27.0342 87.6846 24.9395 85.3896 -6.58691c-2.24219 -30.792 -5.97363 -61.3174 -9.05566 -91.9229c12.8984 27.2344 30.2939 53.334 56.1934 65.7393
c56.1543 26.8916 83.6729 -17.1016 96.8691 -72.2676c9.97168 26.0156 22.1006 55.3047 42.8545 72.8779c17.1416 14.5176 44.5713 19.4951 64.0879 6.69824c24.8896 -16.3232 36.498 -49.4814 43.1738 -76.8135c17.2842 -70.7432 17.5996 -141.459 26.2236 -213.202
c1.44531 -11.9961 1.15625 -24.2188 18.7158 -22.5283c6.49414 0.626953 14.6377 5.91504 19.9844 9.33496c14.6465 9.37109 26.9004 23.1152 36.3027 37.6104c19.9043 30.6807 29.7344 66.9619 42.1709 100.997z" />
    <glyph glyph-name="n" unicode="n" horiz-adv-x="333" 
d="M329.182 93.1855c3.67871 11.1064 35.1338 8.50879 30.8945 -4.84766c-13.9258 -43.8818 -43.0498 -117.601 -97.0469 -119.815c-28.3105 -1.16113 -62.292 2.84668 -81.9785 25.6289c-18.7168 21.6523 -21.9238 56.835 -23.8633 84.0693
c-2.47754 34.7646 -0.262695 69.5957 2.30859 104.289c1.26758 17.0928 6.1377 38.7227 3.05566 55.7529c-5.00391 27.6299 -26.1445 -6.01367 -32.2734 -16.1904c-17.6533 -29.3154 -29.5332 -62.123 -39.9941 -94.5654
c-5.25293 -16.2881 -10.0703 -32.7188 -14.4336 -49.2695c-0.863281 -3.27832 -2.35352 -7.85938 -4.00781 -13.0947c-0.262695 -10.4346 -0.511719 -20.8604 -0.649414 -31.3086c-0.306641 -22.8486 2.8291 -46.4795 -11.6748 -65.1514
c-9.06445 -11.667 -33.501 -8.22852 -43.2686 0c-20.0957 16.9326 -23.1201 48.6592 -26.999 73.4736c-3.85156 24.6455 -5.49707 50.0742 -5.22168 75.0137c0.583008 52.4756 6.35156 105.049 22.0566 155.238c8.45117 26.998 91.083 24.6768 86.4131 -6.66699
c-3.18945 -21.3848 -6.56543 -42.668 -9.62598 -63.9824c0.773438 1.63281 1.50781 3.27832 2.30371 4.89258c11.8359 24.0586 26.9092 52.7607 52.9648 63.7695c20.3975 8.61523 43.749 3.99805 54.8418 -15.9287c34.4756 -61.9365 24.4551 -138.079 39.1641 -205.006
c3.35352 -15.2432 7.41406 -32.7012 19.6416 -43.5273c11.0527 -9.78125 17.2578 -12.8457 27.5459 -1.59668c23.2842 25.459 39.0693 56.2959 49.8467 88.8232z" />
    <glyph glyph-name="o" unicode="o" horiz-adv-x="252" 
d="M263.518 120.22c11.8086 -0.249023 27.9727 -13.71 9.13184 -19.2344c-25.1836 -7.37891 -52.627 -11.2217 -80.1816 -11.96c-10.0303 -68.127 -48.1436 -162.692 -130.211 -140.916c-41.4805 11.0039 -64.0752 55.3359 -73.4336 93.9922
c-11.1865 46.2041 -4.9375 92.5283 7.57422 137.639c-26.1846 65.8633 9.57617 162.426 92.9111 144.274c84.7041 -18.4453 108.709 -130.184 105.916 -205.205c24.21 0.44043 47.7881 1.8457 68.293 1.41016zM120.721 -9.00098
c21.9639 26.7539 31.918 64.2119 36.335 98.7939c-14.6914 1.00977 -29.1553 2.84668 -43.0459 5.50684c-18.9971 3.63867 -37.3262 9.46094 -54.001 17.9834c-3.91406 -21.7412 -5.87988 -43.7402 -4.00781 -65.9932c1.64551 -19.5615 6.06641 -38.9277 15.3398 -56.3633
c5.7959 -10.9062 11.3691 -23.0576 26.8164 -19.1924c8.49121 2.12207 17.1953 12.7217 22.5635 19.2646zM159.577 119.201c1.54785 37.6152 -3.49902 76.2217 -16.9268 111.267c-12.165 31.749 -55.0469 102.639 -94.8018 63.6133
c-21.4121 -21.0205 -25.166 -57.7725 -18.3389 -88.1201c23.876 1.93457 51.8037 -8.27344 45.9414 -29.2139c-2.8418 -10.1631 -5.65723 -20.3838 -8.25 -30.6719c25.0898 -18.8945 58.168 -25.2148 92.376 -26.874z" />
    <glyph glyph-name="o" unicode="&#xf6;" horiz-adv-x="252" 
d="M263.518 120.22c11.8086 -0.249023 27.9727 -13.71 9.13184 -19.2344c-25.1836 -7.37891 -52.627 -11.2217 -80.1816 -11.96c-10.0303 -68.127 -48.1436 -162.692 -130.211 -140.916c-41.4805 11.0039 -64.0752 55.3359 -73.4336 93.9922
c-11.1865 46.2041 -4.9375 92.5283 7.57422 137.639c-26.1846 65.8633 9.57617 162.426 92.9111 144.274c84.7041 -18.4453 108.709 -130.184 105.916 -205.205c24.21 0.44043 47.7881 1.8457 68.293 1.41016zM120.721 -9.00098
c21.9639 26.7539 31.918 64.2119 36.335 98.7939c-14.6914 1.00977 -29.1553 2.84668 -43.0459 5.50684c-18.9971 3.63867 -37.3262 9.46094 -54.001 17.9834c-3.91406 -21.7412 -5.87988 -43.7402 -4.00781 -65.9932c1.64551 -19.5615 6.06641 -38.9277 15.3398 -56.3633
c5.7959 -10.9062 11.3691 -23.0576 26.8164 -19.1924c8.49121 2.12207 17.1953 12.7217 22.5635 19.2646zM159.577 119.201c1.54785 37.6152 -3.49902 76.2217 -16.9268 111.267c-12.165 31.749 -55.0469 102.639 -94.8018 63.6133
c-21.4121 -21.0205 -25.166 -57.7725 -18.3389 -88.1201c23.876 1.93457 51.8037 -8.27344 45.9414 -29.2139c-2.8418 -10.1631 -5.65723 -20.3838 -8.25 -30.6719c25.0898 -18.8945 58.168 -25.2148 92.376 -26.874z" />
    <glyph glyph-name="o" unicode="&#xf5;" horiz-adv-x="252" 
d="M263.518 120.22c11.8086 -0.249023 27.9727 -13.71 9.13184 -19.2344c-25.1836 -7.37891 -52.627 -11.2217 -80.1816 -11.96c-10.0303 -68.127 -48.1436 -162.692 -130.211 -140.916c-41.4805 11.0039 -64.0752 55.3359 -73.4336 93.9922
c-11.1865 46.2041 -4.9375 92.5283 7.57422 137.639c-26.1846 65.8633 9.57617 162.426 92.9111 144.274c84.7041 -18.4453 108.709 -130.184 105.916 -205.205c24.21 0.44043 47.7881 1.8457 68.293 1.41016zM120.721 -9.00098
c21.9639 26.7539 31.918 64.2119 36.335 98.7939c-14.6914 1.00977 -29.1553 2.84668 -43.0459 5.50684c-18.9971 3.63867 -37.3262 9.46094 -54.001 17.9834c-3.91406 -21.7412 -5.87988 -43.7402 -4.00781 -65.9932c1.64551 -19.5615 6.06641 -38.9277 15.3398 -56.3633
c5.7959 -10.9062 11.3691 -23.0576 26.8164 -19.1924c8.49121 2.12207 17.1953 12.7217 22.5635 19.2646zM159.577 119.201c1.54785 37.6152 -3.49902 76.2217 -16.9268 111.267c-12.165 31.749 -55.0469 102.639 -94.8018 63.6133
c-21.4121 -21.0205 -25.166 -57.7725 -18.3389 -88.1201c23.876 1.93457 51.8037 -8.27344 45.9414 -29.2139c-2.8418 -10.1631 -5.65723 -20.3838 -8.25 -30.6719c25.0898 -18.8945 58.168 -25.2148 92.376 -26.874z" />
    <glyph glyph-name="o" unicode="&#xf4;" horiz-adv-x="252" 
d="M263.518 120.22c11.8086 -0.249023 27.9727 -13.71 9.13184 -19.2344c-25.1836 -7.37891 -52.627 -11.2217 -80.1816 -11.96c-10.0303 -68.127 -48.1436 -162.692 -130.211 -140.916c-41.4805 11.0039 -64.0752 55.3359 -73.4336 93.9922
c-11.1865 46.2041 -4.9375 92.5283 7.57422 137.639c-26.1846 65.8633 9.57617 162.426 92.9111 144.274c84.7041 -18.4453 108.709 -130.184 105.916 -205.205c24.21 0.44043 47.7881 1.8457 68.293 1.41016zM120.721 -9.00098
c21.9639 26.7539 31.918 64.2119 36.335 98.7939c-14.6914 1.00977 -29.1553 2.84668 -43.0459 5.50684c-18.9971 3.63867 -37.3262 9.46094 -54.001 17.9834c-3.91406 -21.7412 -5.87988 -43.7402 -4.00781 -65.9932c1.64551 -19.5615 6.06641 -38.9277 15.3398 -56.3633
c5.7959 -10.9062 11.3691 -23.0576 26.8164 -19.1924c8.49121 2.12207 17.1953 12.7217 22.5635 19.2646zM159.577 119.201c1.54785 37.6152 -3.49902 76.2217 -16.9268 111.267c-12.165 31.749 -55.0469 102.639 -94.8018 63.6133
c-21.4121 -21.0205 -25.166 -57.7725 -18.3389 -88.1201c23.876 1.93457 51.8037 -8.27344 45.9414 -29.2139c-2.8418 -10.1631 -5.65723 -20.3838 -8.25 -30.6719c25.0898 -18.8945 58.168 -25.2148 92.376 -26.874z" />
    <glyph glyph-name="o" unicode="&#xf3;" horiz-adv-x="252" 
d="M263.518 120.22c11.8086 -0.249023 27.9727 -13.71 9.13184 -19.2344c-25.1836 -7.37891 -52.627 -11.2217 -80.1816 -11.96c-10.0303 -68.127 -48.1436 -162.692 -130.211 -140.916c-41.4805 11.0039 -64.0752 55.3359 -73.4336 93.9922
c-11.1865 46.2041 -4.9375 92.5283 7.57422 137.639c-26.1846 65.8633 9.57617 162.426 92.9111 144.274c84.7041 -18.4453 108.709 -130.184 105.916 -205.205c24.21 0.44043 47.7881 1.8457 68.293 1.41016zM120.721 -9.00098
c21.9639 26.7539 31.918 64.2119 36.335 98.7939c-14.6914 1.00977 -29.1553 2.84668 -43.0459 5.50684c-18.9971 3.63867 -37.3262 9.46094 -54.001 17.9834c-3.91406 -21.7412 -5.87988 -43.7402 -4.00781 -65.9932c1.64551 -19.5615 6.06641 -38.9277 15.3398 -56.3633
c5.7959 -10.9062 11.3691 -23.0576 26.8164 -19.1924c8.49121 2.12207 17.1953 12.7217 22.5635 19.2646zM159.577 119.201c1.54785 37.6152 -3.49902 76.2217 -16.9268 111.267c-12.165 31.749 -55.0469 102.639 -94.8018 63.6133
c-21.4121 -21.0205 -25.166 -57.7725 -18.3389 -88.1201c23.876 1.93457 51.8037 -8.27344 45.9414 -29.2139c-2.8418 -10.1631 -5.65723 -20.3838 -8.25 -30.6719c25.0898 -18.8945 58.168 -25.2148 92.376 -26.874z" />
    <glyph glyph-name="p" unicode="p" horiz-adv-x="365" 
d="M364.308 114.659c10.8789 6.64551 42.3105 -3.34863 24.8574 -14.1699c-26.2646 -16.2881 -55.5977 -22.9424 -85.6201 -27.1318c-3.29102 -21.9414 -9.06445 -42.9268 -17.2266 -61.7148c-18.9697 -43.6465 -54.1436 -81.1904 -105.054 -79.665
c-47.2314 1.41406 -73.0957 40.6709 -54.1299 84.335c20.5352 47.2852 62.1445 60.8418 107.57 68.1582c0.960938 5.37305 1.83301 10.7549 2.51758 16.123c4.30957 33.7012 4.9502 67.709 2.16602 101.553c-1.42773 17.3818 -4.01172 35.1953 -11.6709 51.0693
c-6.21387 12.8809 -13.3887 18.7783 -26.9541 10.0029c-7.26367 -4.70117 -12.6943 -15.8701 -17 -23.1602c-38.6738 -65.4941 -52.5869 -147.428 -65.2188 -221.337c-11.6582 -68.2256 -18.4365 -137.394 -16.9238 -206.598
c2.21973 -12.5742 4.70117 -25.1035 7.43262 -37.6016c1.59277 -1.19238 2.9541 -2.61523 3.9502 -4.37207c5.78223 -10.168 -2.55273 -15.9414 -11.3857 -19.8105c-19.166 -8.39258 -47.2314 -5.75977 -61.2861 10.9287
c-13.9531 16.5684 -20.4023 42.4727 -25.4102 63.0352c-11.7959 48.4502 -17.0977 99.1465 -21.4434 148.727c-9.18066 104.751 -12.7256 212.562 6.09277 316.405c6.08887 33.5898 89.5391 35.333 88.6807 -0.000976562
c-2.04199 -84.1934 -5.94238 -169.503 -4.99023 -254.532c6.72559 35.7246 14.999 71.04 24.5127 105.577c12.0938 43.9131 26.5 92.9551 56.7227 128.239c27.3896 31.9756 68.3145 31.0371 94.6504 -0.987305c36.7168 -44.6475 51.4395 -111.027 46.7822 -173.074
c21.2207 3.90039 41.3027 9.57617 58.3779 20.002zM205.746 3.88184c10.9727 17.8896 18.7295 37.7275 24.085 58.1611c-22.3369 -6.0625 -42.7568 -16.5508 -55.709 -37.0957c-5.51074 -8.74023 -9.04199 -19.1748 -8.39258 -29.627
c0.320312 -5.1416 4.03906 -21.0293 10.5059 -22.9775c8.19727 -2.46875 25.4102 24.8496 29.5107 31.5391z" />
    <glyph glyph-name="q" unicode="q" horiz-adv-x="399" 
d="M333.529 -54.3223c75.8223 -21.9053 138.203 -80.6846 115.52 -165.491c-9.47852 -35.4541 -34.8311 -68.292 -70.5469 -80.1592c-40.8447 -13.5752 -86.9199 3.62012 -117.632 31.3301c-64.7734 58.4492 -79.5088 162.653 -86.2119 244.693
c-2.98438 36.5029 -3.65625 73.2061 -3.5625 109.865c-9.50488 -27.8613 -21.5049 -58.876 -45.6035 -76.1602c-54.3213 -38.9629 -121.657 2.21973 -139.76 59.6328c-19.0459 60.4014 -3.98145 137.376 57.2432 167.172c46.8086 22.7773 92.2695 24.0938 130.912 -0.960938
c1.23242 14.6426 3.10059 29.1289 6.00488 43.2734c6.7959 33.1006 83.2539 35.373 87.2881 -0.000976562c5.96875 -52.2705 -1.45508 -107.255 -2.74902 -159.757c-0.609375 -24.7695 -0.956055 -49.5703 -0.911133 -74.3711
c7.15234 5.6709 14.3574 11.2705 21.6963 16.6699c36.4053 26.7764 74.7588 50.5547 113.718 73.4297c10.4883 6.15625 41.4854 -2.72168 24.375 -13.8945c-47.0625 -30.7256 -93.3604 -64.582 -136.74 -100.355c-7.70801 -6.36035 -15.3623 -13.0498 -22.4658 -20.1709
c0.217773 -9.47852 0.44043 -18.9609 0.804688 -28.4346c0.155273 -4.11914 0.360352 -8.24707 0.569336 -12.375c9.97168 -2.37988 21.8965 -3.01172 30.6992 -4.89355c12.5166 -2.67285 25.0547 -5.48828 37.3525 -9.04199zM171.962 199.238
c0.0263672 1.02344 0.0498047 2.04883 0.0849609 3.07617c-14.5977 16.1016 -34.7549 34.667 -57.4072 30.7129c-20.3047 -3.54492 -29.4229 -26.0381 -36.7393 -43.1221c-15.7324 -36.7344 -21.1279 -79.5674 -10.791 -118.396
c2.9043 -10.9102 12.2627 -48.9434 25.6992 -50.8467c18.0986 -2.55762 35.8633 45.0479 40.7334 57.4082c15.5098 39.3721 26.3799 80.5947 38.4199 121.168zM403.953 -216.195c11.3291 38.6914 1.18262 80.0566 -29.3916 106.873
c-29.8096 26.1445 -69.4443 34.4883 -107.331 42.125c2.38867 -29.9248 6.35156 -59.8096 12.7871 -88.9961c7.37891 -33.4473 19.0723 -72.1787 43.1035 -97.6826c16.0566 -17.0439 34.4707 -27.4346 53.957 -8.73633c12.957 12.4316 21.8574 29.2842 26.875 46.417z" />
    <glyph glyph-name="r" unicode="r" horiz-adv-x="382" 
d="M407.064 110.121c-5.63086 -65.9307 -18.1611 -130.748 -37.2285 -194.121c-14.6777 -48.8154 -31.6592 -110.169 -95.6455 -100.908c-61.9268 8.96191 -83.1426 80.5674 -93.4834 132.985c-10.8125 54.8281 -14.0459 115.67 -7.56543 172.326
c-14.9316 -9.97656 -30.9307 -18.1338 -48.8867 -22.8662c-32.2021 -8.48633 -71.9795 -13.085 -101.9 4.92871c-59.708 35.9434 -36.6992 146.93 3.48242 188.846c41.667 43.4688 141.08 45.0391 141.898 -31.335c0.626953 -58.7734 -56.376 -145.471 -116.978 -136.575
c56.71 -25.5752 107.549 14.4375 130.873 33.6299c18.0225 22.3281 78.9492 20.3311 80.5283 -10.0078c2.73145 -52.542 -2.68555 -105.178 -0.0166016 -157.845c1.3125 -25.9395 3.93262 -51.9814 7.54004 -77.6992c2.82031 -20.1045 3.11426 -43.0508 13.7891 -61.0107
c8.33984 -14.0283 12.4805 -15.7314 23.2578 -2.01855c6.82715 8.69141 10.5586 19.2285 14.3701 29.4941c9.17578 24.6992 16.9951 49.9805 23.9736 75.3818c14.1045 51.3457 23.8457 103.959 30.2998 156.795c1.53027 12.5293 32.7188 12.0488 31.6914 0zM77.124 266.29
c-38.042 -60.6016 -35.4404 -104.146 -33.6875 -106.562c16.123 -47.2578 73.3887 18.9521 84.4238 54.0986c6.29785 20.0596 11.1416 47.4629 2.79785 67.5361c-15.1846 36.5254 -42.3652 2.71777 -53.5342 -15.0732z" />
    <glyph glyph-name="s" unicode="s" horiz-adv-x="288" 
d="M292.461 129.377c12.9072 3.78516 38.8877 -8.28516 17.3955 -16.9678c-48.6992 -19.6816 -90.8027 -59.5117 -123.637 -99.791c-1.69922 -2.08203 -3.3623 -4.22559 -5.02148 -6.37793c3.74023 -4.56348 7.4541 -9.14453 11.0879 -13.7744
c24.1475 -30.7568 48.8994 -64.4229 58.2979 -103.074c9.38086 -38.5586 -2.75293 -86.8574 -42.8545 -103.724c-32.6914 -13.748 -73.9941 -2.22363 -94.7432 26.4336c-26.1133 36.0723 -21.0156 86.5146 -7.5791 126.421c3.75879 11.1592 8.41602 21.9316 13.8027 32.3262
c-56.3096 59.8008 -118.899 114.531 -135.957 199.04c-8.66016 42.9219 -4.73242 96.9678 17.7734 135.438c20.3047 34.7021 45.7285 69.7646 84.3799 84.9941c30.9609 12.1963 70.7822 12.0586 98.6973 -7.75684c32.4248 -23.0127 34.2441 -64.6084 33.5859 -100.796
c-0.245117 -13.4414 -34.1914 -13.29 -34.125 0c0.128906 24.6279 0.555664 52.6445 -13.4902 74.0791c-16.6572 25.4189 -49.1885 27.3809 -71.7305 8.48242c-39.6885 -33.2695 -35.3965 -99.0439 -30.5215 -145.577c4.85254 -46.2754 21.6836 -90.2773 47.3477 -128.956
c13.7393 -20.709 29.6045 -39.9365 45.6074 -59.0312c7.02734 8.06348 14.3623 15.8428 21.915 23.3154c31.1924 30.8633 66.8467 62.7139 109.769 75.2969zM192.426 -136.361c-11.1416 28.9336 -28.335 54.9521 -47.999 78.8232
c-10.4297 -26.6162 -15.5176 -55.0156 -11.5986 -83.29c3.04688 -21.9854 14.3975 -50.874 38.6338 -56.8115c39.1592 -9.59375 28.2979 42.2324 20.9639 61.2783z" />
    <glyph glyph-name="t" unicode="t" horiz-adv-x="239" 
d="M232.984 114.708c2.16211 12.4141 33.2695 12.248 32.0371 -0.000976562c-7.72559 -76.6357 -26.4238 -154.584 -59.8359 -224.25c-10.1768 -21.2246 -23.1777 -42.8945 -46.5244 -51.2881c-24.6143 -8.85156 -55.8154 -2.55762 -78.5615 9.12207
c-54.9268 28.2041 -71.9131 101.606 -82.5342 156.809c-14.0107 72.8066 -14.7002 148.371 -13.6152 222.254c0.542969 36.8857 2.03711 73.749 4.35449 110.555c-13.8193 -0.844727 -27.5449 -2.10352 -41.0928 -4.05176
c-17.418 -2.5127 -32.6074 15.9463 -9.34961 19.3262c17.084 2.48145 34.4043 3.91406 51.8174 4.85254c2.15723 30.3252 4.83008 60.6104 8.01465 90.8467c3.77148 35.8271 92.9014 34.835 90.7617 0c-1.81445 -29.5117 -3.81641 -59.0811 -5.75098 -88.6816
c7.79297 0.133789 15.5635 0.293945 23.2939 0.542969c21.7236 0.698242 21.3633 -19.584 0 -20.2422c-8.14844 -0.249023 -16.3594 -0.391602 -24.5928 -0.498047c-7.55664 -118.379 -13.0811 -237.216 0.0976562 -355.239
c3.59375 -32.1582 8.73145 -66.4238 22.2793 -96.0859c5.7959 -12.7031 19.9268 -39.4033 39.2969 -31.1748c14.9541 6.35156 23.8184 28.2656 30.25 41.8809c32.2422 68.2656 46.7773 141.464 59.6543 215.324z" />
    <glyph glyph-name="u" unicode="u" horiz-adv-x="402" 
d="M393.821 116.563c1.7793 13.2324 34.6484 12.2441 33.0781 0.00390625c-8.33984 -65.1211 -25.6465 -130.491 -55.0293 -189.43c-11.916 -23.9023 -28.3906 -51.2031 -54.668 -61.2285c-22.417 -8.55273 -48.4941 -3.62012 -67.7041 10.0439
c-49.2197 35.0176 -59.5791 110.551 -66.0645 165.824c-1.27246 10.8662 -2.25098 21.8164 -3.01172 32.8115c-12.4053 -44.0957 -30.708 -97.5635 -82.3516 -103.866c-60.8867 -7.42773 -93.3379 53.2051 -104.608 103.546
c-14.0283 62.6787 -12.0449 127.929 -5.12402 191.403c3.66504 33.626 87.3867 31.9443 84.5088 0c-4.51855 -50.1406 -7.68945 -100.005 -5.09668 -150.341c1.28125 -24.8857 2.71777 -50.8613 9.43359 -74.9951c2.89062 -10.3945 15.2783 -48.5742 27.835 -43.5527
c16.1191 6.44043 26.8789 43.958 32.0918 58.3115c8.59277 23.6621 14.918 48.0537 20.3311 72.6104c9.50977 43.1572 15.7725 87.2441 29.0713 129.468c0.226562 0.711914 0.604492 1.35645 1.07129 1.96094c10.9238 27.8613 84.1035 25.8818 82.5557 -4.84375
c-2.85547 -56.7451 -9.4248 -113.215 -9.62012 -170.094c-0.168945 -49.2285 -1.81934 -103.728 12.5381 -151.359c3.2959 -10.9287 7.67676 -22.1104 12.9521 -32.2295c6.80078 -13.0498 11.1953 -21.8965 24.6016 -9.46484
c18.7881 17.4219 29.7744 43.2148 39.7109 66.3525c21.834 50.8477 36.125 104.262 43.499 159.068z" />
    <glyph glyph-name="u" unicode="&#xfc;" horiz-adv-x="402" 
d="M393.821 116.563c1.7793 13.2324 34.6484 12.2441 33.0781 0.00390625c-8.33984 -65.1211 -25.6465 -130.491 -55.0293 -189.43c-11.916 -23.9023 -28.3906 -51.2031 -54.668 -61.2285c-22.417 -8.55273 -48.4941 -3.62012 -67.7041 10.0439
c-49.2197 35.0176 -59.5791 110.551 -66.0645 165.824c-1.27246 10.8662 -2.25098 21.8164 -3.01172 32.8115c-12.4053 -44.0957 -30.708 -97.5635 -82.3516 -103.866c-60.8867 -7.42773 -93.3379 53.2051 -104.608 103.546
c-14.0283 62.6787 -12.0449 127.929 -5.12402 191.403c3.66504 33.626 87.3867 31.9443 84.5088 0c-4.51855 -50.1406 -7.68945 -100.005 -5.09668 -150.341c1.28125 -24.8857 2.71777 -50.8613 9.43359 -74.9951c2.89062 -10.3945 15.2783 -48.5742 27.835 -43.5527
c16.1191 6.44043 26.8789 43.958 32.0918 58.3115c8.59277 23.6621 14.918 48.0537 20.3311 72.6104c9.50977 43.1572 15.7725 87.2441 29.0713 129.468c0.226562 0.711914 0.604492 1.35645 1.07129 1.96094c10.9238 27.8613 84.1035 25.8818 82.5557 -4.84375
c-2.85547 -56.7451 -9.4248 -113.215 -9.62012 -170.094c-0.168945 -49.2285 -1.81934 -103.728 12.5381 -151.359c3.2959 -10.9287 7.67676 -22.1104 12.9521 -32.2295c6.80078 -13.0498 11.1953 -21.8965 24.6016 -9.46484
c18.7881 17.4219 29.7744 43.2148 39.7109 66.3525c21.834 50.8477 36.125 104.262 43.499 159.068z" />
    <glyph glyph-name="u" unicode="&#xfb;" horiz-adv-x="402" 
d="M393.821 116.563c1.7793 13.2324 34.6484 12.2441 33.0781 0.00390625c-8.33984 -65.1211 -25.6465 -130.491 -55.0293 -189.43c-11.916 -23.9023 -28.3906 -51.2031 -54.668 -61.2285c-22.417 -8.55273 -48.4941 -3.62012 -67.7041 10.0439
c-49.2197 35.0176 -59.5791 110.551 -66.0645 165.824c-1.27246 10.8662 -2.25098 21.8164 -3.01172 32.8115c-12.4053 -44.0957 -30.708 -97.5635 -82.3516 -103.866c-60.8867 -7.42773 -93.3379 53.2051 -104.608 103.546
c-14.0283 62.6787 -12.0449 127.929 -5.12402 191.403c3.66504 33.626 87.3867 31.9443 84.5088 0c-4.51855 -50.1406 -7.68945 -100.005 -5.09668 -150.341c1.28125 -24.8857 2.71777 -50.8613 9.43359 -74.9951c2.89062 -10.3945 15.2783 -48.5742 27.835 -43.5527
c16.1191 6.44043 26.8789 43.958 32.0918 58.3115c8.59277 23.6621 14.918 48.0537 20.3311 72.6104c9.50977 43.1572 15.7725 87.2441 29.0713 129.468c0.226562 0.711914 0.604492 1.35645 1.07129 1.96094c10.9238 27.8613 84.1035 25.8818 82.5557 -4.84375
c-2.85547 -56.7451 -9.4248 -113.215 -9.62012 -170.094c-0.168945 -49.2285 -1.81934 -103.728 12.5381 -151.359c3.2959 -10.9287 7.67676 -22.1104 12.9521 -32.2295c6.80078 -13.0498 11.1953 -21.8965 24.6016 -9.46484
c18.7881 17.4219 29.7744 43.2148 39.7109 66.3525c21.834 50.8477 36.125 104.262 43.499 159.068z" />
    <glyph glyph-name="u" unicode="&#xfa;" horiz-adv-x="402" 
d="M393.821 116.563c1.7793 13.2324 34.6484 12.2441 33.0781 0.00390625c-8.33984 -65.1211 -25.6465 -130.491 -55.0293 -189.43c-11.916 -23.9023 -28.3906 -51.2031 -54.668 -61.2285c-22.417 -8.55273 -48.4941 -3.62012 -67.7041 10.0439
c-49.2197 35.0176 -59.5791 110.551 -66.0645 165.824c-1.27246 10.8662 -2.25098 21.8164 -3.01172 32.8115c-12.4053 -44.0957 -30.708 -97.5635 -82.3516 -103.866c-60.8867 -7.42773 -93.3379 53.2051 -104.608 103.546
c-14.0283 62.6787 -12.0449 127.929 -5.12402 191.403c3.66504 33.626 87.3867 31.9443 84.5088 0c-4.51855 -50.1406 -7.68945 -100.005 -5.09668 -150.341c1.28125 -24.8857 2.71777 -50.8613 9.43359 -74.9951c2.89062 -10.3945 15.2783 -48.5742 27.835 -43.5527
c16.1191 6.44043 26.8789 43.958 32.0918 58.3115c8.59277 23.6621 14.918 48.0537 20.3311 72.6104c9.50977 43.1572 15.7725 87.2441 29.0713 129.468c0.226562 0.711914 0.604492 1.35645 1.07129 1.96094c10.9238 27.8613 84.1035 25.8818 82.5557 -4.84375
c-2.85547 -56.7451 -9.4248 -113.215 -9.62012 -170.094c-0.168945 -49.2285 -1.81934 -103.728 12.5381 -151.359c3.2959 -10.9287 7.67676 -22.1104 12.9521 -32.2295c6.80078 -13.0498 11.1953 -21.8965 24.6016 -9.46484
c18.7881 17.4219 29.7744 43.2148 39.7109 66.3525c21.834 50.8477 36.125 104.262 43.499 159.068z" />
    <glyph glyph-name="v" unicode="v" horiz-adv-x="364" 
d="M371.105 117.938c12.0273 3.81641 34.9482 -9.06641 15.6406 -15.2529c-38.3711 -12.2939 -76.1064 -9.56348 -110.093 3.53125c-28.7148 -90.2197 -98.5059 -244.323 -213.171 -162.172c-47.6855 34.1641 -63.5283 105.352 -72.3926 159.767
c-10.4082 63.8799 -7.8418 128.979 -1.93555 193.121c2.95801 32.1309 82.8896 31.3564 81.3818 -0.000976562c-2.58008 -53.5566 -5.98242 -107.655 -2.74902 -161.243c3.01562 -49.918 8.41113 -107.406 33.6396 -151.756
c10.7061 -18.8145 26.9893 -39.0391 50.2246 -29.0137c21.6836 9.35352 36.3662 31.0234 48.3535 50.4248c21.7764 35.2441 35.627 75.457 47.3955 115.212c-56.6123 34.0078 -97.9814 97.3447 -105.587 163.697c-6.37402 55.6152 7.82812 117.622 41.6406 162.785
c25.2188 33.6787 78.8242 61.5889 114.309 24.6807c37.2949 -38.7891 25.7305 -115.038 20.7266 -162.515c-6.56543 -62.2207 -18.6416 -123.903 -36.1309 -183.984c27.127 -13.0273 57.4609 -17.2041 88.7471 -7.28125zM253.812 142.978
c12.8232 46.2979 22.2725 93.4932 28.4639 141.134c6.20898 47.7471 14.3887 102.313 1.14258 149.531c-2.70898 9.64746 -6.87695 21.4346 -14.2871 28.5469c-13.2676 12.7344 -30.8008 2.85547 -42.1875 -7.68555c-15.9814 -14.7939 -26.8877 -34.6445 -35.3564 -54.4814
c-17.9297 -42.001 -23.4941 -89.5127 -14.4424 -134.383c9.01172 -44.6826 37.6777 -92.5459 76.667 -122.662z" />
    <glyph glyph-name="w" unicode="w" horiz-adv-x="566" 
d="M573.663 117.938c12.0273 3.81641 34.9482 -9.06641 15.6494 -15.2627c-38.3711 -12.2939 -76.1064 -9.56348 -110.093 3.53125c-28.7148 -90.2197 -98.501 -244.324 -213.171 -162.173c-43.082 30.8682 -60.1484 91.9238 -69.582 143.559
c-12.3379 -47.3252 -33.8301 -106.895 -88.6943 -113.899c-68.6963 -8.77148 -107.152 49.9043 -119.558 109.181c-14.0244 66.998 -2.54492 140.2 16.8877 204.912c9.04199 30.1113 92.6748 23.9023 83.499 -13.1211c-12.7744 -51.5146 -21.999 -105.645 -22.6035 -158.818
c-0.293945 -25.7393 0.292969 -52.2529 8.17871 -77.0098c6.16016 -19.335 24.5117 -57.1553 49.2324 -35.3213c34.8447 30.7793 45.6797 94.4678 52.5781 137.679c5.58691 34.9912 8.42871 70.3203 11.9736 105.564c0.916016 16.7598 2.21484 33.4971 3.74902 50.168
c2.95801 32.1309 82.8945 31.3574 81.3818 0c-2.58008 -53.5566 -5.97852 -107.655 -2.74512 -161.243c3.01562 -49.918 8.41113 -107.406 33.6396 -151.756c10.7012 -18.8145 26.9893 -39.0391 50.2246 -29.0137c21.6836 9.35352 36.3662 31.0234 48.3535 50.4248
c21.7764 35.249 35.6318 75.4619 47.3965 115.217c-56.6123 34.0078 -97.9814 97.3447 -105.587 163.697c-6.37402 55.6152 7.82812 117.622 41.6406 162.785c25.2148 33.6787 78.8203 61.5889 114.305 24.6807c37.2949 -38.7891 25.7354 -115.038 20.7275 -162.515
c-6.56543 -62.2207 -18.6416 -123.903 -36.1309 -183.984c27.127 -13.0273 57.4658 -17.2041 88.7471 -7.28125zM456.375 142.978c12.8184 46.2979 22.2725 93.4932 28.4639 141.134c6.20898 47.7471 14.3887 102.313 1.14258 149.531
c-2.70898 9.64746 -6.87695 21.4346 -14.2871 28.5469c-13.2676 12.7344 -30.8008 2.85547 -42.1875 -7.68555c-15.9814 -14.7939 -26.8877 -34.6445 -35.3564 -54.4814c-17.9297 -42.001 -23.4941 -89.5127 -14.4424 -134.383
c9.01172 -44.6826 37.6777 -92.5459 76.667 -122.662z" />
    <glyph glyph-name="x" unicode="x" horiz-adv-x="331" 
d="M329.356 133.567c4.5459 10.5771 35.0479 7.49023 29.8887 -4.6875c-21.1943 -50.0645 -42.8906 -114.016 -88.3115 -147.743c-41.9297 -31.1309 -100.21 -25.7842 -142.126 2.53027c-29.9785 20.251 -51.8223 48.0635 -67.5762 79.9766
c-13.5967 -24.4365 -26.584 -49.2109 -38.9268 -74.3232c-5.39551 -10.9814 -37.5625 -7.37891 -31.5625 4.95898c17.3379 35.6631 35.9609 70.6582 55.8516 104.929c-23.3203 69.1367 -24.6855 150.074 -19.7793 215.466c2.73145 36.3525 92.5283 36.1074 92.502 0
c-0.0263672 -33.5146 -0.257812 -67.1357 1.27246 -100.49c25.2285 34.5996 53.25 66.7178 88.3076 92.4043c10.2568 7.5127 40.7158 -2.00586 24.374 -13.8945c-45.2568 -32.9316 -78.5352 -79.0205 -109.074 -125.456c4.90137 -43.9355 14.6426 -87.0615 34.1592 -128.431
c8.61133 -18.249 19.7217 -37.3389 37.3438 -48.2451c24.7119 -15.2871 47.2578 -4.1543 65.1201 15.6738c31.8867 35.3955 49.9854 84.166 68.5371 127.332z" />
    <glyph glyph-name="y" unicode="y" horiz-adv-x="384" 
d="M379.731 129.23c4.66113 10.5195 35.1191 7.44336 29.9062 -4.69043c-17.9512 -41.6631 -49.6602 -76.3691 -80.0254 -109.421c-10.8701 -11.8311 -22.0029 -23.4043 -33.2207 -34.8975c-0.435547 -38.6338 -1.37402 -77.29 -4.18945 -115.72
c-6.48047 -88.4854 -21.1182 -212.504 -105.934 -262.897c-33.083 -19.6553 -74.6523 -29.5742 -111.436 -14.7539c-38.6074 15.5498 -53.5654 53.8457 -48.1572 93.4893c5.9248 43.4639 30.5703 80.8926 56.6348 114.999c29.667 38.8252 63.4258 74.3232 97.9629 108.812
c7.00977 7.00098 14.0771 13.9443 21.1494 20.8877c-0.0712891 9.46094 -0.137695 18.8945 -0.182617 28.2617c-0.235352 51.4883 -1.0625 102.932 -2.26758 154.366c-3.55859 -10.0967 -7.29492 -20.127 -11.4443 -30.0186
c-17.3018 -41.2051 -43.749 -83.4238 -92.6533 -88.6855c-54.7842 -5.89355 -91.0117 36.9746 -104.355 85.4385c-14.8555 53.9434 -10.7588 112.811 1.57031 166.888c7.40527 32.4648 90.415 33.9814 86.9414 0c-4.29199 -42.0322 -12.9873 -83.4727 -11.2393 -125.958
c0.760742 -18.5879 2.54004 -37.1484 7.28613 -55.167c3.05566 -11.6133 8.80664 -36.877 21.3135 -42.5127c32.0693 -14.4463 61.8164 76.0361 68.9463 95.9844c13.0723 36.5791 22.3594 74.2744 30.2227 112.268c-0.240234 7.125 -0.445312 14.2461 -0.689453 21.376
c-1.27637 36.8018 90.2598 36.7666 94.2402 0.000976562c6.93848 -64.1377 7.41406 -128.645 6.83984 -193.107c-0.106445 -11.6621 -0.177734 -23.3379 -0.25293 -35.0176c31.749 33.0479 64.4277 68.0615 83.0332 110.076zM180.41 -322.494
c19.166 66.873 22.0605 138.189 22.1582 208.35c-22.2881 -22.8662 -44.082 -46.2178 -64.5508 -70.7344c-26.7852 -32.0781 -53.9307 -66.4062 -68.1592 -106.201c-12.9072 -36.0938 -15.0293 -97.3623 33.4346 -107.588c43.4287 -9.16699 67.4072 42.2988 77.1172 76.1738
z" />
    <glyph glyph-name="y" unicode="&#xff;" horiz-adv-x="384" 
d="M379.731 129.23c4.66113 10.5195 35.1191 7.44336 29.9062 -4.69043c-17.9512 -41.6631 -49.6602 -76.3691 -80.0254 -109.421c-10.8701 -11.8311 -22.0029 -23.4043 -33.2207 -34.8975c-0.435547 -38.6338 -1.37402 -77.29 -4.18945 -115.72
c-6.48047 -88.4854 -21.1182 -212.504 -105.934 -262.897c-33.083 -19.6553 -74.6523 -29.5742 -111.436 -14.7539c-38.6074 15.5498 -53.5654 53.8457 -48.1572 93.4893c5.9248 43.4639 30.5703 80.8926 56.6348 114.999c29.667 38.8252 63.4258 74.3232 97.9629 108.812
c7.00977 7.00098 14.0771 13.9443 21.1494 20.8877c-0.0712891 9.46094 -0.137695 18.8945 -0.182617 28.2617c-0.235352 51.4883 -1.0625 102.932 -2.26758 154.366c-3.55859 -10.0967 -7.29492 -20.127 -11.4443 -30.0186
c-17.3018 -41.2051 -43.749 -83.4238 -92.6533 -88.6855c-54.7842 -5.89355 -91.0117 36.9746 -104.355 85.4385c-14.8555 53.9434 -10.7588 112.811 1.57031 166.888c7.40527 32.4648 90.415 33.9814 86.9414 0c-4.29199 -42.0322 -12.9873 -83.4727 -11.2393 -125.958
c0.760742 -18.5879 2.54004 -37.1484 7.28613 -55.167c3.05566 -11.6133 8.80664 -36.877 21.3135 -42.5127c32.0693 -14.4463 61.8164 76.0361 68.9463 95.9844c13.0723 36.5791 22.3594 74.2744 30.2227 112.268c-0.240234 7.125 -0.445312 14.2461 -0.689453 21.376
c-1.27637 36.8018 90.2598 36.7666 94.2402 0.000976562c6.93848 -64.1377 7.41406 -128.645 6.83984 -193.107c-0.106445 -11.6621 -0.177734 -23.3379 -0.25293 -35.0176c31.749 33.0479 64.4277 68.0615 83.0332 110.076zM180.41 -322.494
c19.166 66.873 22.0605 138.189 22.1582 208.35c-22.2881 -22.8662 -44.082 -46.2178 -64.5508 -70.7344c-26.7852 -32.0781 -53.9307 -66.4062 -68.1592 -106.201c-12.9072 -36.0938 -15.0293 -97.3623 33.4346 -107.588c43.4287 -9.16699 67.4072 42.2988 77.1172 76.1738
z" />
    <glyph glyph-name="y" unicode="&#xfd;" horiz-adv-x="384" 
d="M379.731 129.23c4.66113 10.5195 35.1191 7.44336 29.9062 -4.69043c-17.9512 -41.6631 -49.6602 -76.3691 -80.0254 -109.421c-10.8701 -11.8311 -22.0029 -23.4043 -33.2207 -34.8975c-0.435547 -38.6338 -1.37402 -77.29 -4.18945 -115.72
c-6.48047 -88.4854 -21.1182 -212.504 -105.934 -262.897c-33.083 -19.6553 -74.6523 -29.5742 -111.436 -14.7539c-38.6074 15.5498 -53.5654 53.8457 -48.1572 93.4893c5.9248 43.4639 30.5703 80.8926 56.6348 114.999c29.667 38.8252 63.4258 74.3232 97.9629 108.812
c7.00977 7.00098 14.0771 13.9443 21.1494 20.8877c-0.0712891 9.46094 -0.137695 18.8945 -0.182617 28.2617c-0.235352 51.4883 -1.0625 102.932 -2.26758 154.366c-3.55859 -10.0967 -7.29492 -20.127 -11.4443 -30.0186
c-17.3018 -41.2051 -43.749 -83.4238 -92.6533 -88.6855c-54.7842 -5.89355 -91.0117 36.9746 -104.355 85.4385c-14.8555 53.9434 -10.7588 112.811 1.57031 166.888c7.40527 32.4648 90.415 33.9814 86.9414 0c-4.29199 -42.0322 -12.9873 -83.4727 -11.2393 -125.958
c0.760742 -18.5879 2.54004 -37.1484 7.28613 -55.167c3.05566 -11.6133 8.80664 -36.877 21.3135 -42.5127c32.0693 -14.4463 61.8164 76.0361 68.9463 95.9844c13.0723 36.5791 22.3594 74.2744 30.2227 112.268c-0.240234 7.125 -0.445312 14.2461 -0.689453 21.376
c-1.27637 36.8018 90.2598 36.7666 94.2402 0.000976562c6.93848 -64.1377 7.41406 -128.645 6.83984 -193.107c-0.106445 -11.6621 -0.177734 -23.3379 -0.25293 -35.0176c31.749 33.0479 64.4277 68.0615 83.0332 110.076zM180.41 -322.494
c19.166 66.873 22.0605 138.189 22.1582 208.35c-22.2881 -22.8662 -44.082 -46.2178 -64.5508 -70.7344c-26.7852 -32.0781 -53.9307 -66.4062 -68.1592 -106.201c-12.9072 -36.0938 -15.0293 -97.3623 33.4346 -107.588c43.4287 -9.16699 67.4072 42.2988 77.1172 76.1738
z" />
    <glyph glyph-name="z" unicode="z" horiz-adv-x="367" 
d="M381.341 102.276c19.4551 -0.337891 19.4414 -18.5977 0 -18.2637c-34.9199 0.604492 -73.8428 -15.3984 -108.029 -31.6641c7.39258 -23.1201 10.4746 -47.9883 11.1592 -70.9971c2.99316 -100.779 -47.7256 -190.776 -129.41 -247.735
c-36.2236 -25.2588 -84.3584 -50.9268 -130.051 -44.1611c-42.3613 6.27148 -67.4424 36.5879 -67.0068 78.9932c0.956055 92.8838 87.3369 167.47 155.847 217.343c27.7725 20.2197 56.9365 38.4824 87.2178 54.6641c-2.36621 7.95703 -5.29688 15.7188 -8.92188 23.1777
c-5.96875 12.2852 -15.6562 28.9248 -29.4492 33.7148c-12.458 4.32324 -25.6328 -4.06055 -36.1338 -9.98047c-14.2549 -8.04199 -37.4502 -8.96289 -51.5361 -0.000976562c-13.5791 8.6377 -12.4492 20.5352 0 29.373c26.9453 19.126 51.5332 43.3223 70.5918 70.3428
c11.4932 16.292 45.6035 63.292 20.918 79.5537c-22.1367 14.584 -67.0107 -15.79 -84.8242 -29.418c-24.3203 -18.6094 -42.2764 -42.6279 -57.6484 -68.8477c-5.70215 -9.73145 -36.8105 -8.39258 -31.2285 4.90625c16.1143 38.3936 47.3428 70.04 82.8857 91.1494
c30.0811 17.8672 70.3291 33.6699 105.578 23.1553c71.0361 -21.1895 36.125 -95.1299 -4.44336 -147.899c21.083 -3.12207 41.1689 -11.3369 57.7373 -25.4541c13.7041 -11.6797 23.8584 -26.4199 31.3223 -42.6943c36.5303 16.1455 76.3379 31.415 115.426 30.7432z
M209.143 -37.8672c0.77832 18.3564 0.144531 37.3428 -2.93359 55.8193c-23.5645 -13.4365 -46.3682 -28.1943 -68.1982 -44.2959c-56.1494 -41.4141 -118.33 -94.7617 -138.029 -164.464c-8.5127 -30.1338 -10.2959 -91.1045 35.6191 -88.3066
c32.2422 1.96191 65.4678 28.4268 87.9297 49.7275c51.9463 49.2646 82.5918 120.226 85.6123 191.52z" />
    <glyph glyph-name="braceleft" unicode="{" horiz-adv-x="589" 
d="M489.989 -153.07c12.6406 10.2393 63.6963 6.00879 45.376 -15.1094c-47.623 -54.8955 -112.126 -93.3652 -187.01 -85.4258c-72.7441 7.71289 -112.433 60.8818 -125.447 128.729c-15.1719 79.0957 -6.00977 160.723 -11.1562 240.637
c-2.20605 34.2393 -4.39453 73.0156 -23.04 103.088c-19.9131 32.1133 -48.3389 21.252 -79.3896 11.9248c-14.8516 -4.46094 -34.2705 -4.98145 -47.9658 3.52734c-9.71875 6.03613 -16.5332 17.8584 -6.19238 27.3408c78.5928 72.0371 127.323 166.585 180.391 257.423
c26.4023 45.1992 54.5664 89.7754 88.1562 130.046c30.1514 36.1475 64.1016 72.041 114.02 73.9404c20.9492 0.795898 20.4062 -18.4316 0 -19.4502c-51.7637 -2.58008 -82.1826 -70.5654 -101.108 -110.155c-19.6416 -41.0889 -39.377 -82.1553 -59.7744 -122.884
c-32.3223 -64.5381 -66.9307 -127.951 -111.564 -184.31c40.3682 -1.3252 78.0234 -15.9365 101.224 -55.1797c15.8125 -26.7451 20.6787 -59.4814 23.8232 -89.9043c4.08301 -39.5283 4.14941 -79.3184 4.2832 -119.016
c0.137695 -39.6748 0.160156 -79.5098 3.52246 -119.073c2.58887 -30.4453 7.27734 -63.2031 24.6377 -89.2275c44.7451 -67.0781 124.908 -1.19238 167.216 33.0781z" />
    <glyph glyph-name="verticalbar" unicode="|" horiz-adv-x="191" 
d="M124.9 270.799c5.38184 -139.866 16.7227 -280.44 15.6465 -420.418c-0.244141 -31.8418 -78.6592 -31.6729 -81.0342 0c-10.457 139.435 -7.12988 280.653 -8.09961 420.418c-0.969727 139.925 -4.29688 280.81 4.64355 420.524
c1.25879 19.6367 48.0635 19.4414 49.7627 0c12.2178 -139.645 13.6943 -280.489 19.0811 -420.524z" />
    <glyph glyph-name="braceright" unicode="}" horiz-adv-x="486" 
d="M429.608 263.869c24.3516 -25.5527 -22.6426 -37.4463 -48.2891 -35.9834c-2.79785 -3.08203 -8.13965 -7.76562 -9.4248 -9.66895c-6.50684 -9.62988 -10.8477 -21.3281 -13.5029 -32.5723c-6.80078 -28.8037 -5.2666 -60.1211 -4.49219 -89.459
c1.77051 -67.1621 9.32715 -133.635 1.25391 -200.726c-6.35156 -52.7822 -21.6875 -113.429 -67.0371 -146.418c-38.2822 -27.8477 -98.8926 -36.4277 -136.793 -3.69141c-8.5127 7.35254 -0.292969 15.7549 6.72168 19.1885
c10.0879 4.94141 24.4814 4.30566 34.2666 -1.16113c53.0186 -29.6182 78.1084 51.875 80.7812 89.5703c4.51465 63.626 -4.23828 128.422 -7.7832 191.937c-3.10059 55.4551 -11.0352 120.14 11.3105 172.855c10.1406 23.9248 30.4492 43.5264 54.3877 54.7617
c-45.2207 69.417 -74.0645 144.194 -95.3652 225.812c-11.8623 45.4521 -19.6953 92.1318 -38.7051 135.392c-9.71387 22.1055 -22.4746 40.1543 -43.1035 53.2041c-8.99316 5.68457 -18.7695 10.4883 -29.1152 13.1436
c-8.27734 2.12598 -34.5645 6.49414 -39.6709 -3.63379c-5.92871 -11.7646 -40.7373 -8.1084 -34.2432 5.38184c8.22852 17.0889 34.6172 20.4512 51.4521 21.2031c24.0586 1.07227 48.0771 -4.94141 69.3867 -16.0166c48.3877 -25.1611 80.4873 -72.3037 100.28 -121.63
c44.5186 -110.946 72.5312 -232.137 157.685 -321.489z" />
    <glyph glyph-name="nonbreakingspace" unicode="&#xa0;" horiz-adv-x="409" 
 />
    </font>
</defs>
</svg>
