<?xml version="1.0" encoding="UTF-8"?>
<!DOCTYPE svg PUBLIC "-//W3C//DTD SVG 1.1//EN" "http://www.w3.org/Graphics/SVG/1.1/DTD/svg11.dtd">
<!-- Creator: CorelDRAW Standard 2021 (64-Bit Versión de evaluación) -->
<svg xmlns="http://www.w3.org/2000/svg" xml:space="preserve" width="90.517mm" height="90.3392mm" version="1.1" style="shape-rendering:geometricPrecision; text-rendering:geometricPrecision; image-rendering:optimizeQuality; fill-rule:evenodd; clip-rule:evenodd"
viewBox="0 0 9051.7 9033.92"
 xmlns:xlink="http://www.w3.org/1999/xlink"
 xmlns:xodm="http://www.corel.com/coreldraw/odm/2003">
 <defs>
  <style type="text/css">
   <![CDATA[
    .str0 {stroke:black;stroke-width:67.73;stroke-linecap:round;stroke-linejoin:round;stroke-miterlimit:22.9256}
    .str1 {stroke:black;stroke-width:69.01;stroke-linecap:round;stroke-linejoin:round;stroke-miterlimit:22.9256}
    .fil0 {fill:none;fill-rule:nonzero}
    .fil2 {fill:#010101}
    .fil4 {fill:#303030}
    .fil6 {fill:#505050}
    .fil7 {fill:#767676}
    .fil5 {fill:#9D9D9D}
    .fil8 {fill:#D0D0D0}
    .fil3 {fill:#FEFEFE}
    .fil1 {fill:black;fill-rule:nonzero}
   ]]>
  </style>
 </defs>
 <g id="Capa_x0020_1">
  <metadata id="CorelCorpID_0Corel-Layer"/>
  <g>
   <path class="fil0 str0" d="M1173.61 3616.23l567.33 -1677.76 460.02 0 567.33 1677.76 -433.48 0 -104.24 -339.25 -531.56 0 -103.85 339.25 -421.55 0zm963.88 -646.18l-172.7 -556.56 -172.7 556.56 345.4 0zm2058.43 -502.33c0,78.08 -12.31,152.31 -37.31,223.09 -24.62,70.38 -60.39,129.62 -106.93,176.93 -28.46,29.23 -60,56.15 -94.23,81.15 -34.24,24.62 -71.93,45.78 -113.09,63.08 -41.54,16.93 -86.15,30.77 -134.62,40.39 -48.46,9.62 -102.69,14.62 -163.08,14.62l-220.78 0 0 549.25 -422.33 0 0 -1677.76 651.95 0c96.93,0 180.4,8.84 250.78,26.54 70.39,17.69 133.86,45.38 191.17,83.85 63.08,41.92 111.92,98.08 146.54,168.46 34.62,70.01 51.93,153.47 51.93,250.4zm-433.87 10.38c0,-47.3 -11.15,-87.69 -33.85,-121.92 -22.3,-33.85 -49.23,-57.31 -80.77,-70.01 -39.62,-17.3 -77.69,-27.31 -114.23,-30 -36.16,-2.69 -85.39,-3.84 -147.7,-3.84l-59.62 0 0 500.79 29.23 0c39.62,0 77.31,-0.39 112.31,-1.16 35.39,-0.77 66.16,-3.46 92.32,-7.69 22.3,-3.85 46.15,-11.15 71.54,-21.92 25,-11.16 44.23,-23.08 57.69,-36.54 28.46,-27.7 47.7,-56.54 58.08,-86.55 10,-30 15,-70.38 15,-121.16zm1920.73 -10.38c0,78.08 -12.31,152.31 -37.31,223.09 -24.62,70.38 -60.39,129.62 -106.93,176.93 -28.46,29.23 -60,56.15 -94.23,81.15 -34.24,24.62 -71.93,45.78 -113.09,63.08 -41.54,16.93 -86.15,30.77 -134.62,40.39 -48.46,9.62 -102.69,14.62 -163.08,14.62l-220.78 0 0 549.25 -422.33 0 0 -1677.76 651.95 0c96.93,0 180.4,8.84 250.78,26.54 70.39,17.69 133.86,45.38 191.17,83.85 63.08,41.92 111.92,98.08 146.54,168.46 34.62,70.01 51.93,153.47 51.93,250.4zm-433.87 10.38c0,-47.3 -11.15,-87.69 -33.85,-121.92 -22.3,-33.85 -49.23,-57.31 -80.77,-70.01 -39.62,-17.3 -77.69,-27.31 -114.23,-30 -36.16,-2.69 -85.39,-3.84 -147.7,-3.84l-59.62 0 0 500.79 29.23 0c39.62,0 77.31,-0.39 112.31,-1.16 35.39,-0.77 66.16,-3.46 92.32,-7.69 22.3,-3.85 46.15,-11.15 71.54,-21.92 25,-11.16 44.23,-23.08 57.69,-36.54 28.46,-27.7 47.7,-56.54 58.08,-86.55 10,-30 15,-70.38 15,-121.16z"/>
   <path id="_1" class="fil1" d="M1173.61 3616.23l567.33 -1677.76 460.02 0 567.33 1677.76 -433.48 0 -104.24 -339.25 -531.56 0 -103.85 339.25 -421.55 0zm963.88 -646.18l-172.7 -556.56 -172.7 556.56 345.4 0zm2058.43 -502.33c0,78.08 -12.31,152.31 -37.31,223.09 -24.62,70.38 -60.39,129.62 -106.93,176.93 -28.46,29.23 -60,56.15 -94.23,81.15 -34.24,24.62 -71.93,45.78 -113.09,63.08 -41.54,16.93 -86.15,30.77 -134.62,40.39 -48.46,9.62 -102.69,14.62 -163.08,14.62l-220.78 0 0 549.25 -422.33 0 0 -1677.76 651.95 0c96.93,0 180.4,8.84 250.78,26.54 70.39,17.69 133.86,45.38 191.17,83.85 63.08,41.92 111.92,98.08 146.54,168.46 34.62,70.01 51.93,153.47 51.93,250.4zm-433.87 10.38c0,-47.3 -11.15,-87.69 -33.85,-121.92 -22.3,-33.85 -49.23,-57.31 -80.77,-70.01 -39.62,-17.3 -77.69,-27.31 -114.23,-30 -36.16,-2.69 -85.39,-3.84 -147.7,-3.84l-59.62 0 0 500.79 29.23 0c39.62,0 77.31,-0.39 112.31,-1.16 35.39,-0.77 66.16,-3.46 92.32,-7.69 22.3,-3.85 46.15,-11.15 71.54,-21.92 25,-11.16 44.23,-23.08 57.69,-36.54 28.46,-27.7 47.7,-56.54 58.08,-86.55 10,-30 15,-70.38 15,-121.16zm1920.73 -10.38c0,78.08 -12.31,152.31 -37.31,223.09 -24.62,70.38 -60.39,129.62 -106.93,176.93 -28.46,29.23 -60,56.15 -94.23,81.15 -34.24,24.62 -71.93,45.78 -113.09,63.08 -41.54,16.93 -86.15,30.77 -134.62,40.39 -48.46,9.62 -102.69,14.62 -163.08,14.62l-220.78 0 0 549.25 -422.33 0 0 -1677.76 651.95 0c96.93,0 180.4,8.84 250.78,26.54 70.39,17.69 133.86,45.38 191.17,83.85 63.08,41.92 111.92,98.08 146.54,168.46 34.62,70.01 51.93,153.47 51.93,250.4zm-433.87 10.38c0,-47.3 -11.15,-87.69 -33.85,-121.92 -22.3,-33.85 -49.23,-57.31 -80.77,-70.01 -39.62,-17.3 -77.69,-27.31 -114.23,-30 -36.16,-2.69 -85.39,-3.84 -147.7,-3.84l-59.62 0 0 500.79 29.23 0c39.62,0 77.31,-0.39 112.31,-1.16 35.39,-0.77 66.16,-3.46 92.32,-7.69 22.3,-3.85 46.15,-11.15 71.54,-21.92 25,-11.16 44.23,-23.08 57.69,-36.54 28.46,-27.7 47.7,-56.54 58.08,-86.55 10,-30 15,-70.38 15,-121.16z"/>
  </g>
  <g>
   <path class="fil0 str1" d="M2232.08 5689.66l-1128.75 0 0 -298.65 359.79 0 0 -903 -359.79 0 0 -279.84c52.91,0 105.04,-3.53 157.16,-10.19 51.74,-7.05 93.28,-18.03 124.64,-33.31 36.84,-18.42 65.06,-43.12 85.44,-74.08 20.38,-30.96 31.74,-69.37 34.88,-115.22l373.9 0 0 1415.64 352.73 0 0 298.65zm1482.8 -578.49c0,88.58 -15.29,170.88 -45.46,246.53 -30.18,75.64 -75.65,141.09 -136,196.35 -59.97,54.09 -130.91,96.42 -213.21,126.2 -82.31,29.79 -183.42,44.68 -303.75,44.68 -127.37,-0.78 -236.72,-11.75 -328.04,-32.92 -91.71,-20.77 -167.35,-44.68 -226.93,-70.55l0 -373.9 39.2 0c21.55,12.55 45.46,26.66 72.5,42.33 26.65,15.68 61.93,32.14 105.82,49.39 40.76,16.46 81.92,29.78 123.85,40.36 41.94,10.59 88.19,16.07 139.92,16.07 44.29,0 92.5,-5.48 143.84,-16.85 51.34,-10.97 92.89,-31.35 124.24,-60.36 23.12,-23.12 41.15,-48.99 54.09,-77.6 12.93,-28.22 19.59,-66.23 19.59,-114.05 0,-39.98 -8.23,-74.47 -24.69,-103.47 -16.46,-28.61 -38.41,-52.12 -65.06,-69.76 -39.19,-26.26 -86.62,-42.72 -141.88,-50.17 -55.26,-7.44 -103.07,-10.97 -142.66,-10.97 -63.1,0 -124.63,5.09 -183.81,14.89 -59.58,9.8 -111.31,20.77 -155.21,32.14l-36.84 0 0 -959.44 1133.46 0 0 322.16 -728.99 0 0 285.72c23.13,-1.57 50.56,-3.14 82.31,-4.31 31.74,-1.18 56.83,-1.57 74.46,-1.57 81.92,0 157.95,8.23 227.71,24.69 69.77,16.46 131.69,41.94 185.39,76.43 65.45,41.93 116.01,98.37 152.06,168.92 36.06,70.94 54.09,157.16 54.09,259.06zm1501.61 181.07l-230.46 0 0 402.12 -416.22 0 0 -402.12 -750.16 0 0 -319.42 736.44 -992.75 429.94 0 0 1004.12 230.46 0 0 308.05zm-646.68 -308.05l0 -581.23 -431.13 581.23 431.13 0z"/>
   <path id="_1_0" class="fil1" d="M2232.08 5689.66l-1128.75 0 0 -298.65 359.79 0 0 -903 -359.79 0 0 -279.84c52.91,0 105.04,-3.53 157.16,-10.19 51.74,-7.05 93.28,-18.03 124.64,-33.31 36.84,-18.42 65.06,-43.12 85.44,-74.08 20.38,-30.96 31.74,-69.37 34.88,-115.22l373.9 0 0 1415.64 352.73 0 0 298.65zm1482.8 -578.49c0,88.58 -15.29,170.88 -45.46,246.53 -30.18,75.64 -75.65,141.09 -136,196.35 -59.97,54.09 -130.91,96.42 -213.21,126.2 -82.31,29.79 -183.42,44.68 -303.75,44.68 -127.37,-0.78 -236.72,-11.75 -328.04,-32.92 -91.71,-20.77 -167.35,-44.68 -226.93,-70.55l0 -373.9 39.2 0c21.55,12.55 45.46,26.66 72.5,42.33 26.65,15.68 61.93,32.14 105.82,49.39 40.76,16.46 81.92,29.78 123.85,40.36 41.94,10.59 88.19,16.07 139.92,16.07 44.29,0 92.5,-5.48 143.84,-16.85 51.34,-10.97 92.89,-31.35 124.24,-60.36 23.12,-23.12 41.15,-48.99 54.09,-77.6 12.93,-28.22 19.59,-66.23 19.59,-114.05 0,-39.98 -8.23,-74.47 -24.69,-103.47 -16.46,-28.61 -38.41,-52.12 -65.06,-69.76 -39.19,-26.26 -86.62,-42.72 -141.88,-50.17 -55.26,-7.44 -103.07,-10.97 -142.66,-10.97 -63.1,0 -124.63,5.09 -183.81,14.89 -59.58,9.8 -111.31,20.77 -155.21,32.14l-36.84 0 0 -959.44 1133.46 0 0 322.16 -728.99 0 0 285.72c23.13,-1.57 50.56,-3.14 82.31,-4.31 31.74,-1.18 56.83,-1.57 74.46,-1.57 81.92,0 157.95,8.23 227.71,24.69 69.77,16.46 131.69,41.94 185.39,76.43 65.45,41.93 116.01,98.37 152.06,168.92 36.06,70.94 54.09,157.16 54.09,259.06zm1501.61 181.07l-230.46 0 0 402.12 -416.22 0 0 -402.12 -750.16 0 0 -319.42 736.44 -992.75 429.94 0 0 1004.12 230.46 0 0 308.05zm-646.68 -308.05l0 -581.23 -431.13 581.23 431.13 0z"/>
  </g>
  <path class="fil2" d="M7550.81 5878.51c6.9,-78.41 22.41,-105.49 66.04,-99.04 -3.83,38.64 -18.51,92.75 -66.04,99.04zm-12.89 -90.5c-20.28,29.56 -24.06,56.96 -77.11,57.31 0.39,-40.66 47.39,-90.81 116.03,-75.77 -27.19,48.2 -0.29,5.3 -38.92,18.46zm-428.57 -326.21c26.85,75.12 13.61,183.5 63.05,264.94l-14.25 18.39c-41,70.95 114.99,119.66 148.54,180.47 -47.73,-13.52 -23.39,-10.45 -75.02,-15.36 -108.95,-10.39 -128.02,-197.98 -129.96,-285.29 -0.6,-27.31 -1.05,-54.77 -2.99,-82.1 -0.66,-9.26 -3.92,-34.83 -3.72,-41.77 2.02,-70.79 0.33,-24.66 14.35,-39.28zm335.9 217.31c-1.21,-2.2 -4.9,4.48 -7.29,6.78 4.14,35.5 11.19,54.21 13.04,81.95l-31.93 27.05c5.57,-96.66 -56.49,-165.91 -80.75,-246.45 -16.03,-53.23 -8.36,-77.35 -29.82,-132.62 -20.45,-52.67 -31.51,-65.11 -27.34,-130.12 57.82,65.94 56.72,125.6 92.25,196.75l98.83 172.8c-27.94,25.15 -20.81,35.15 -26.99,23.86zm-1364.23 -905.14c-2.11,-40.63 -9.69,-73.6 -11.1,-109.32 -1.5,-37.72 2.98,-71.18 1.47,-96.99 -2.59,-44.35 -6.48,-52.49 7.03,-97.8 18.22,-61.09 -7.07,-26.06 3.25,-87.4 92.82,-19.89 44.96,-25.06 144.46,-25.81 4.34,89.06 6.47,196.67 -4.34,266.46 -11.28,72.84 -28.74,59.27 -51.65,102.27 -29.75,55.86 -14.24,49.65 -89.12,48.59zm150.03 -660.25c32.1,50.54 21.19,110.71 -6.1,159.77l6.1 -159.77zm176.36 -237.62c29.08,-22.1 82.47,-46.93 125.57,-42.05l-10.19 35.84 -65.54 20.72 17.97 37.29c-25.3,-30.24 -34.51,-23.35 -67.81,-51.8zm37.62 -191.57c19.65,32.78 57.26,70.77 82.51,92.71 -40.32,36.54 -174.91,109.58 -204.58,112.55 -45.39,-41.41 -46.01,-89.84 -136.42,-85.05l23.83 -40.15c73.34,-88.9 142.05,-137.93 234.66,-80.06zm-1205.09 81.34c12.23,-14.44 200.02,-166.28 224.78,-173.1 6.82,77.39 3.03,87.38 -39.63,133.29 -24.58,26.45 -37.33,69.53 -59.09,103.73 -38.88,-4.96 -106.86,-45.56 -126.06,-63.92zm936.6 11.04c-12.15,-18.73 -21.08,-170.98 -20.86,-212.66l59.8 12.68 -38.94 199.98zm-149.39 -226.44c-3.74,-49.36 12.45,-526.81 40.49,-572.28l22.69 429c1.82,108.78 19.26,92.31 14.76,143.38l-77.94 -0.1zm-2019.96 -497.17c0.32,-4.66 2.06,-5.64 3.33,-8.36l16.53 -1.1c202.97,-13.15 62.92,54.5 215.06,36.68 -5,-20 0.04,-15.73 -11.95,-29.74l-62.87 -50.45c-31.81,-21.95 -82.65,-23.77 -132.01,-21.01l-2.91 14.17c-11.12,31.47 -29.33,32.84 -48.12,49.34l-20.42 -54.31 -24.54 -37.07 1134.64 -127.99c-3,1.14 -6.67,2.4 -9.13,3.03l-18.45 4.65c-47.03,9.87 -76.67,21.86 -112.18,16.02 -54.18,-8.93 -26.83,-36.66 -103.92,-48.66 -52.81,-8.22 -85.4,8.48 -118,31.05 -81.6,56.5 -72.91,20.68 -79.65,62.28 41.56,-22.92 69.43,-42.07 108.38,-64.78 53.25,-31.06 79.03,-27.07 127.4,2.99 58.55,36.41 36.81,42.91 129.21,28.03 55.17,-8.89 113.11,-5.97 150.89,16.42l4.06 -15.52c0.55,-1.18 1.68,-4.25 2.39,-5.51 17.12,-30.27 53.39,-47.57 87.63,-56.11 192.01,-47.88 139.41,-39.5 234.35,-132.78 31.83,-31.27 68.9,-52.52 106.95,-69.81 -35.7,72.85 -97.78,171.52 -118.9,254.24 34.84,-15.22 15.28,-17.82 41.45,-54.64 -19.7,116.91 -53.62,250.62 -41.26,389.8 17.81,200.64 75.86,215.52 19.11,345.89 -136.34,8.56 -225.45,-16.21 -345.43,-40.21 50.35,53.27 50.59,59.9 27.1,81.98 -42.61,26.6 -109.32,-33.49 -142.09,-49.94 26.15,43.91 18.98,70.73 52.06,78.3 6.44,1.47 46.07,-6.02 85.05,-1.28 97.98,11.92 99.64,-63.8 179.57,-36.53 -36.71,53.76 -59.39,60.9 -151.32,62.32 -184,2.83 -159.44,-1.12 -241.43,-158.25 -30.56,-58.56 -26.36,-90.48 -64.38,-139.53 20.74,32.23 42.49,68.65 19.98,102.72 -61.3,-52.06 -17.42,-75.49 -71.82,-123.52 -80.91,-71.42 -6.97,-21.39 -106.67,-75.86 -63.22,-34.55 -122.35,-144.99 -156.55,-215.36l17.12 54.25c-38.41,10.62 -39.73,10.91 -60.02,56.23l-51 -4.5c-0.89,-1.24 -2.05,-3.45 -2.37,-3.93l-18.06 -21.83c-32.71,3.04 -56.75,15.19 -91.58,17.16 -31.4,1.77 -69.76,-3.15 -102.64,-2.47 -31.28,0.66 -64.19,12.11 -89.37,8.41 -41.88,-6.16 -40.69,-28.32 -86.52,4.25 8.49,7.54 1.33,5.85 18.67,13.82 2.23,1.02 5.19,1.85 7.64,2.74 41.65,15.26 109.26,11.54 149.76,12.33 151.87,2.96 286.38,-10.86 423.88,68.14 32.81,18.85 33.26,9.4 57.55,35.73 -240.43,370.7 -165.96,56.15 48.11,49.54 -398.76,264.76 -667.05,17.57 -782.31,-251.46zm1648.57 -819.41c-11.69,-15.12 -9.55,-0.73 -14.86,-29.43 -0.64,-3.49 0.04,-16.01 0.21,-21.05 0.57,-18.02 6.25,-22.21 6.17,-52.59l1.6 -39.85 53.02 -4.71 -1.87 -3.85 -47.49 -22.09c8.05,-150.01 12.33,-77.44 25.2,-143.75l30.52 33.32c84.84,93.05 296.12,-5.58 321.5,-12.25 1.71,124.34 10.54,223.53 -2.07,329.84 -16.56,139.57 -32.73,207.75 35.41,295.44 -81.94,57.32 -2.89,58.98 -116.47,100.74 -181.81,66.85 -203.98,59.37 -246.27,-62.06l37.83 -40.85c-4.59,-24.46 -10.52,-30.98 -11.15,-63.89 73.4,0.57 68.55,8.64 144.15,-20.2 38.38,-14.64 73.42,-45.56 82.66,-83.59 -29.03,24.38 -14.43,35.52 -72.01,53.61 -133.58,41.97 -173.45,-17.85 -226.08,-212.79zm-867.91 3440.96c-12.58,-54.8 11.15,-16.63 -17.9,-61.62 -1.45,-2.24 -3.8,-4.05 -5.28,-6.24l-12.79 -20.18c-3.2,-6.22 -10.33,-25.56 -11.86,-28.67 3.3,10.09 8.49,19.33 12.49,44.64l-22.76 40.52c-38.15,-11.44 -25.03,-6.38 -34.6,-36.43 -8.13,-44.9 -57.54,-106.65 -47.15,-155.13l-21.08 20.66c-8.64,12.84 3.22,4.51 -8.67,21.8l139.48 -1206.53c17.44,13.39 20.81,16.52 35.28,27.07 -1.5,25.62 -47.58,83.52 -62.61,103.08 13.03,17.55 -11.74,5.67 10.34,15.45l24.88 6.72c177.25,-79.29 405.85,-94.55 572.59,-157.26l135.34 -59.35c14.59,-9.72 59.29,-34.34 77.7,-43.21 -9.86,65.79 -50.64,100.51 -70.21,164.67 -39.79,130.41 -55.61,59.18 -50.86,168.28 3.68,84.68 -99.47,265.05 -88.16,385.37 3.13,33.23 9.6,28.94 -2.61,79.68l-4.97 17.19c-6.17,40.16 0.54,19.73 7.74,44.38 20.28,69.37 -1.87,91.63 63.56,194.68l7.9 12.74c51.79,81.64 121.3,111.85 215.99,102.71 88.61,-8.55 28.22,14.28 90.77,14.48 35.67,-28.28 40.41,-29.03 26.85,-71.81 -43.76,-19.66 -43.13,1.58 -74.65,18.14 -1.34,0.71 -3.96,1.98 -5.34,2.46 -0.42,0.15 -71.12,4.01 -79.61,3.94 -56.18,-0.46 -49.97,-0.89 -81.97,-29.21 -28.78,-25.48 -58.85,-49.97 -78.2,-85.71 -8.97,-16.57 -8.8,-16.29 -17.08,-33.73 -42.65,-89.87 -29.61,-101.92 -21.38,-150.57 7.96,-47.04 -4.82,-22.05 -12.66,-67.22 -4.85,-27.95 -1.05,3.89 -4.95,-17.68 -12.35,-68.21 52.34,-240.19 70.94,-301.25 7.78,-25.54 17.58,-62.84 23.04,-91.64 8.07,-42.57 7.65,-38.9 18.76,-79.18 23.6,-85.54 53.98,-153.73 88.19,-229.42 11.85,-26.21 4.39,7.14 10.28,-31.81 10.32,-68.15 71.53,-100.58 106.36,-148.58 31.02,-42.74 25.72,-29.11 54.85,-57.48 16.02,-15.61 27.97,-41.81 42.7,-59.53l136.66 -180.15c61.49,-89.54 51.56,-175.08 124.15,-180.82 61.4,-4.85 63.22,-7.75 72.46,37.8 5.59,27.53 7.92,56.94 9.75,91.56 5.01,95.19 -13.7,44.15 3.67,167.9 -26.5,18.07 -42.76,34.76 -53.72,67.24 30.11,-37.23 88.04,-91.17 103.42,-136.79 174.31,33.67 70.83,96.29 65.81,158.6 -9.26,115.18 -17.12,81.74 -50.65,171.97 -15.75,42.4 -0.25,44.7 -29.84,81.38l5.38 -113.52c-24.65,14.02 -30.22,13.42 -34.8,54.4l-30.33 216.01c-12.43,-21.34 -8.73,-42.85 -11.64,-69.39 -3.64,-33 0.61,-27.32 -2.17,-62.33 -4.15,-52.47 7.93,-78.86 10.16,-132.83 -31.03,13.79 -33.85,25.46 -47.38,59.29 -14,35.01 -18.18,55.84 -43.42,76.13 -0.58,-50.26 8.49,-106.44 27.55,-143.83 -24.5,12.58 -7.82,28.92 -35.36,57.86 -27.43,28.83 -23.61,-5.32 -35.28,56.5 -5.67,30.07 -2.17,64.68 -6.71,96.06 -6.26,43.31 -20.64,28.81 -17.15,67.91l10.22 187.48c-0.34,134.21 -23.91,247.45 -24.16,347.56 -0.15,58.05 -21.87,102.56 -41.01,151.65 -19.49,49.97 -22.28,99.55 -49.57,143.71 -33.77,54.62 -78.76,49.69 -84.13,106.65 34.12,8.91 19.77,10.34 48.22,-9.1 8.23,-5.62 29.71,-21.85 39.2,-32.92 80.84,-94.27 97.19,-249.89 127.02,-362.4 17.88,-67.47 5.08,-128.87 12.95,-202.15l20.39 -224.74c4.76,-30.51 -1.99,-3.56 4.93,-25.64 23.58,25.56 12.59,-4.75 21.5,43.03 12.79,68.61 9.05,207.69 12.75,280.69l42.66 29.2c57.8,0.49 89.07,-6.11 119.82,-44.23 91.85,-113.86 42.12,-354.93 64.68,-405.6 23.92,-23.33 38.48,-33.04 51,-71.93 172.99,5.98 91.5,-2.75 168.88,-58.02 2,59.53 6.93,273.95 -3.46,317.19 -21.34,88.73 -92.38,150.76 -70.27,236.93 42.05,163.9 63.69,226.47 135.36,354.95l229.05 415.01c22.06,42.04 40.38,53.44 63.03,90.88 51.24,84.67 112.86,126.28 65.42,202.93 -42.18,68.16 -98.37,-64.09 -186.41,-40.88l14.92 111.4c-39.45,44.84 -70.04,70.23 -151.69,82.57 -52.44,7.93 -129.66,-26.94 -192.49,-32.64 -77.68,240.06 -220.5,123.34 -322.14,213.67 38.76,1.94 145.75,8.68 179.06,0.28 23.94,-6.04 47,-29.75 66.9,-44.15l35.73 -25.08c33.93,-28.06 61.71,-61.15 97.62,-76.6 39.41,-16.96 83.56,7.57 121.35,-11.57 62.5,-31.64 104.67,27.01 187.07,-67.96 34.47,-39.72 13.34,140.77 63.86,111.33 107.94,-62.9 87.69,-5 136.42,6.21 4.23,0.97 36.3,-0.88 49.78,-3.63 95.03,-19.37 54.86,-8.33 87.59,-63.54l138.2 64.24c31.22,17.02 -9.24,3.66 34,18.22 39.23,10.79 34.7,6.77 59.59,25.29 22.17,12.03 6.43,-18.03 23.48,21.94 0.01,0 99.76,-13.61 29.61,12.21 30.88,19.1 17.48,-11.09 29.99,38.86l-21.02 14.32c-2.73,34.06 16.69,25.6 46.61,71.76 141.47,16.29 153.6,33.49 218.86,3.39 32.43,-14.96 11.14,-11.15 43.12,-36.76 15.18,2.09 19.82,5.24 22.35,6.09 2.25,0.75 -2.48,1.54 18.62,7.77 15.56,-16.66 4.92,-7.83 24.81,-20.28l0.83 -141.22c-33.22,-146.42 -48.81,-60.73 -71.99,-100.84 -97.77,0.06 -124.82,40.42 -202.9,46.47 -0.58,-46.82 13.15,-70.08 37.69,-102.23 26.2,-34.32 49.16,-28.23 68.63,-54.52 0,-38.13 5.69,-24.22 60.63,-7.7 0.77,0.23 2.77,1.58 4.27,1.47 23.81,-40 -10.53,-39.92 30.32,-75.76l32.48 84.04 -539.8 -830.31c-3.68,186.18 45.94,36.83 66.79,159.82 17.98,106.08 -2.07,240.55 14.02,354.36 41.44,293.09 106.27,270.13 165.19,387.86 9.89,19.77 19.88,41.69 31.89,59.8 9.75,14.71 8.36,8.77 18.22,22.51 13.31,18.54 8.13,5.63 16.42,31.62 -63.73,-7.16 -42.59,-23.17 -103.14,-118.53 -32.58,-51.32 -59.02,-60.83 -92.78,-121.42 -77.92,-139.83 -114.93,-372.21 -236.66,-621.61 -22.97,-47.05 -51.19,-91.58 -76.5,-137.77 -17.86,-32.59 -47.07,-109.74 -85.88,-122.25 -4.3,8.34 -21.45,-8.87 1.68,51.91 7.85,20.66 12.05,31.53 19.44,53.32 29.42,86.64 116.98,240.09 112.05,286.58 -46.18,-4.74 -38.12,-16.36 -61.29,-51.49 -49.3,-74.73 -71.49,-95.64 -111.66,-205.23 -20.45,-55.79 -36.52,-102.67 -60.14,-153.35 -24.17,-51.88 -48.06,-93.7 -67.39,-148.48 -119.35,-338.29 -182,-216.01 -226.02,-626.44l-26.31 -27.76c-64.81,-66.33 -56.5,-27.59 -65.49,-73.63 33.04,-23.92 48.52,-12.14 50.66,5.91 20.24,-27.62 13.34,9.71 8.95,-30.41l-11.1 -18.31c-4.13,-27.05 -7,-29.97 -14.68,-54.51l42.84 9.58 32.87 -6.39 26.31 3.33c13.51,122.88 45,229.79 55.43,345.81 3.77,42.05 39.26,98.07 52.07,139.05 20.91,66.93 -7.83,102.71 34.51,155.79l23.79 -90.95c0.54,-0.02 1.51,22.44 5.34,0.47 0.13,-0.77 1.6,0.49 2.32,0.21 -46.79,-147.75 -112.82,-336.71 -123.22,-510.65l-18.65 -3.28c-21.16,-8.76 -8,5.59 -16.4,-17.14 15.12,-29.9 -5.73,10.62 37.34,-30.64 -12.12,-80.33 -10.31,-106.44 -57.13,-156.69 -70.28,-75.43 -54.76,-87.2 -106.18,-108.48l-50.58 -58.67c-74.55,2.67 -51.47,23.63 -116.6,45.11 10.58,-50.51 16.8,-40.25 33.28,-78 -56.46,-7.63 -51.97,-7.02 -79.15,-46.32l-44.77 -4.8 -43.42 -5.43c-7.76,-61.36 7.74,-58.83 4.25,-107.41 -26.14,-8.58 -15.33,0.1 -23.28,-45.38l-18.88 -283.97c1.46,-36.72 13.36,-91.32 -16.05,-111.82 28.31,-20.19 26.84,2.16 17.51,-100.71l-38.38 -7.58c59.77,-1.4 33.95,20.25 49.45,-94.49 6.97,-51.61 16.27,-63.33 46.68,-96.55 104.96,-114.63 95.92,-21.27 168.08,-87.47 71.4,4.1 158.47,47.73 201.79,84.48 56.25,47.7 151.28,173.61 180.84,248.18 13.82,34.87 16.58,70.54 37.21,105.46 29.12,49.29 85.77,94.6 111.55,168.98 -78.63,-21.54 -181.59,-233.15 -190.02,-264.61 4.12,53.82 73.06,166.39 102.1,205.26 48.76,65.24 76.94,59.03 92.81,72.15 14.92,12.33 28.71,49.45 56.1,64.97l0.02 -60.31 10.11 -2.48 -35.24 -25.28c-30.64,-31.05 -40.19,-56.25 -58.85,-95.15 -30.52,-63.65 -62.92,-56.04 -74.02,-138.47l-559.61 -825.28 -27.98 -41.25c-36.89,-90.82 10.97,-129.4 -67.79,-225.6 -32.13,-39.24 -145.58,-78.61 -199.2,-87.12 -95.16,-15.11 -229.55,71.83 -275.72,162.74 -19.74,38.88 -22.87,69.6 -39.42,100.09l-437.91 1897.84 -499.73 382.05 -289.19 443.57 -759 1164.17c270.75,161.29 579.2,209.06 969.24,202.83 19.54,-181.57 186.91,-377.55 206.59,-463.41z"/>
  <path class="fil3" d="M5230.3 3315.4c51.72,44.32 77.3,-3.48 77.8,-5.45 1.08,-4.2 4.46,-4.53 6.88,-6.58 28.96,34.44 31.48,20.3 56.03,76.8l-80.51 -25.85c-54.74,0.46 7.45,4.38 -19.46,47.15 -33.04,-29.83 -41.15,-17.81 -43.91,-41.42 -7.23,-61.74 -18.79,-34.9 -40.54,-91.71 -6.71,-6.4 -5.65,-0.95 -16.15,-18.54l-21.91 -55.86 42.48 -35.45c18.83,39.22 -3.59,-1 14.17,21 37.83,46.88 10.13,17.75 26.55,64.54 20.89,59.51 41.11,-2.16 39.25,68.02 -18.77,6.64 30.07,24.42 -40.68,3.35zm157.61 95.97c1.68,-2.89 6.11,3.01 9.24,4.34 -14.59,-96.36 -69.07,-169.39 -75.93,-261.51l74.37 180.71c15.59,37.95 70.05,140.7 3.78,150.83 37.77,7 44.35,23.76 55.61,36.94 -73.2,-9.43 -108.84,-61.61 -159.61,-88.93l75.47 -28.82c5.24,0.8 15.39,9.33 17.07,6.44zm6.77 -268.93c-10.31,-19.87 -9.86,-28.14 -18.36,-50.97l-11.02 20.66c-1.25,2.28 -1.26,30.28 -7.9,13.67 -0.62,-1.54 -2.68,4.53 -4.27,6.62 -11.74,-72.84 -22.63,-92.73 -26.74,-176.38 21.45,14.81 6.36,-6.45 27.41,24.72 0.12,0.17 8.22,19.77 8.97,21.73 12.95,33.91 40.7,115.4 31.91,139.95zm-126.26 -182.7c-60.6,-63.65 -46.82,-20.59 -101.73,-85.11 59.71,-15.55 69.8,4.05 117.62,22.7 -15.28,32.12 -12.47,60.37 -12.68,56.82 -0.1,-1.52 -1.97,3.84 -3.21,5.59zm-1329.13 -8.29c44.25,-7.73 12.98,1.79 41.73,-16l30.39 -19.16c22.14,-13.74 87.41,-55.31 96.46,-76.88 21.42,-22.94 -6.23,-10.31 28.61,-21.14 23.83,-7.4 107.34,9.28 144.34,47.81 52.23,54.39 11.08,14.46 65.1,47.36 45.52,27.73 -1.36,27.67 67.23,35.55 15.76,-18.61 28.19,-46.51 35.74,-64.61l60.16 -3.42c-2.26,2.63 -4.98,5.86 -6.96,7.73 -1.87,1.78 -4.52,5.07 -6.8,7.11l-25.84 18.89c-36.56,29.3 -14.48,76.47 -12.97,73.42 0.76,-1.55 3.32,7.79 4.86,11.74 -48.9,-15.86 -40.87,-12.68 -77.12,-43.25 -23.81,-20.09 -53.46,-21.64 -110.8,-50.22 -26.86,-13.39 -27.55,-8.65 -44.11,-43.41l-69.91 -2.49 -23.32 4.76c9.74,5.78 2.9,4.57 20.64,7.62 21.98,3.78 59.34,-6.94 112.81,55.15 -87.61,-48.71 -205.02,28.68 -271.64,40.21 24.37,15.43 13.28,1.44 22.41,36.29 -40.01,-9.26 -22.48,-8.88 -56.47,-15.99l20.42 54.31c18.79,-16.5 37,-17.87 48.12,-49.34l2.91 -14.17c49.36,-2.76 100.2,-0.94 132.01,21.01l62.87 50.45c11.99,14.01 6.95,9.74 11.95,29.74 -152.14,17.82 -12.09,-49.83 -215.06,-36.68l-16.53 1.1c-1.27,2.72 -3.01,3.7 -3.33,8.36 -7.81,113.92 13.02,153.69 -54.61,221.15 -23.42,23.36 -31.11,22.46 -42.62,57.28l-6.45 78.66 87.62 8.24c-8.46,5.51 3.57,4.41 -18.51,7.68l-54.53 -5.86c-2.44,-0.7 -12.68,-6.1 -16.44,-7.57l6.2 35.13c94.99,-7.43 63.31,-15.73 96.94,20.02l-107.36 -12.23 3.14 95.96c81.86,18.62 228.07,2.54 320.65,17.34 90.12,14.4 229.04,40.46 315.82,44.13l252.46 -308.47c-66.09,2.04 -98.18,-5.38 -173.32,92.22 -12.18,15.81 -22.63,39.67 -36.81,59.89 12.73,-66.46 123.81,-142.74 162.02,-201.65 -24.29,-26.33 -24.74,-16.88 -57.55,-35.73 -137.5,-79 -272.01,-65.18 -423.88,-68.14 -40.5,-0.79 -108.11,2.93 -149.76,-12.33 -2.45,-0.89 -5.41,-1.72 -7.64,-2.74 -17.34,-7.97 -10.18,-6.28 -18.67,-13.82 45.83,-32.57 44.64,-10.41 86.52,-4.25 25.18,3.7 58.09,-7.75 89.37,-8.41 32.88,-0.68 71.24,4.24 102.64,2.47 34.83,-1.97 58.87,-14.12 91.58,-17.16l18.06 21.83c0.32,0.48 1.48,2.69 2.37,3.93l51 4.5c20.29,-45.32 21.61,-45.61 60.02,-56.23l-17.12 -54.25c34.2,70.37 93.33,180.81 156.55,215.36 99.7,54.47 25.76,4.44 106.67,75.86 54.4,48.03 10.52,71.46 71.82,123.52 22.51,-34.07 0.76,-70.49 -19.98,-102.72 38.02,49.05 33.82,80.97 64.38,139.53 81.99,157.13 57.43,161.08 241.43,158.25 91.93,-1.42 114.61,-8.56 151.32,-62.32 -79.93,-27.27 -81.59,48.45 -179.57,36.53 -38.98,-4.74 -78.61,2.75 -85.05,1.28 -33.08,-7.57 -25.91,-34.39 -52.06,-78.3 32.77,16.45 99.48,76.54 142.09,49.94 23.49,-22.08 23.25,-28.71 -27.1,-81.98 119.98,24 209.09,48.77 345.43,40.21 56.75,-130.37 -1.3,-145.25 -19.11,-345.89 -12.36,-139.18 21.56,-272.89 41.26,-389.8 -26.17,36.82 -6.61,39.42 -41.45,54.64 21.12,-82.72 83.2,-181.39 118.9,-254.24 -38.05,17.29 -75.12,38.54 -106.95,69.81 -94.94,93.28 -42.34,84.9 -234.35,132.78 -34.24,8.54 -70.51,25.84 -87.63,56.11 -0.71,1.26 -1.84,4.33 -2.39,5.51l-4.06 15.52c-37.78,-22.39 -95.72,-25.31 -150.89,-16.42 -92.4,14.88 -70.66,8.38 -129.21,-28.03 -48.37,-30.06 -74.15,-34.05 -127.4,-2.99 -38.95,22.71 -66.82,41.86 -108.38,64.78 6.74,-41.6 -1.95,-5.78 79.65,-62.28 32.6,-22.57 65.19,-39.27 118,-31.05 77.09,12 49.74,39.73 103.92,48.66 35.51,5.84 65.15,-6.15 112.18,-16.02l18.45 -4.65c2.46,-0.63 6.13,-1.89 9.13,-3.03l-1134.64 127.99z"/>
  <path class="fil3" d="M6759.65 3608.79c47.6,16.04 19.62,21.45 62.94,34.65 -2.95,2.78 -6.11,5.95 -9.03,8.14l-17.44 13.22c-11.2,7.18 -11.11,3.53 -24.24,9.97 14.65,38.95 34.28,55.44 39.28,90.35 -31.52,-34.75 -69.19,-90.02 -92.59,-135.08 -22.99,-21.06 -38.23,-34.13 -59.44,-57.71 -49.55,-55.09 15.14,-29.93 -48.56,-70.19 37.87,7.38 11.06,-0.23 31.62,14.08 1.57,1.09 3.57,3.38 5.18,4.53 66.84,47.82 87.14,27.95 99.26,66.2l13.02 21.84zm-448.52 -15.82l-38.69 -72.02c53.59,-30.15 6.3,-19.44 58.11,-74.05l27.14 -22.5c-1.69,72.57 -24.49,93.81 -14.3,118.78 24.29,-67.21 25.26,-62.31 87.86,-97.84 175.39,-99.54 216.57,-89.81 394.85,-30.71 1.2,2.62 2.22,6.13 2.74,8.18 24.71,97.25 11.47,32.57 52.28,96.86 -40.23,-19.82 -30.14,-45.07 -89.85,-67.56 -51.05,-19.22 -75.38,-21.3 -131.29,-22.38 -14.32,-5.72 -18.55,-67.45 -143.68,-11.13 -132.11,59.46 -116.94,132.55 -205.17,174.37zm-25.86 -884.15l-40.28 10.39c1.79,-34.04 -6.95,-13.33 29.16,-34.49 24.63,-14.42 -0.55,-14.97 38.65,-11.66l57.44 3.28c-0.35,32 4.44,13.81 -15.36,28.89 -59.24,45.12 -7.12,48.15 -10.6,131.81 -1.83,43.94 -6.33,26.92 -11.11,36.14 -36.96,-20.92 -14.09,18.33 -27.94,-36.34 -4.64,-18.32 2.41,-82.06 -19.96,-128.02zm-137.23 720.19c1,-54.83 11.77,-99.13 16.94,-145.82 6.35,-57.42 1.91,-113.74 5.86,-170.95 20.25,-7.83 -9.62,0.49 12.81,0.76 11.22,0.14 -2.54,5.39 14.19,-2.04 -6.1,-25.71 -4.24,-125.07 19.98,-158.08 9.16,42.3 -6.23,108.25 -2.45,159.37 14.16,191.17 15.16,68.64 4.3,286.11 -2.18,43.82 6.64,101 12.31,148.29 27.18,39.3 22.69,38.69 79.15,46.32 -16.48,37.75 -22.7,27.49 -33.28,78 65.13,-21.48 42.05,-42.44 116.6,-45.11l50.58 58.67c51.42,21.28 35.9,33.05 106.18,108.48 46.82,50.25 45.01,76.36 57.13,156.69 -43.07,41.26 -22.22,0.74 -37.34,30.64 8.4,22.73 -4.76,8.38 16.4,17.14l18.65 3.28c10.4,173.94 76.43,362.9 123.22,510.65 -0.72,0.28 -2.19,-0.98 -2.32,-0.21 -3.83,21.97 -4.8,-0.49 -5.34,-0.47l-23.79 90.95c-42.34,-53.08 -13.6,-88.86 -34.51,-155.79 -12.81,-40.98 -48.3,-97 -52.07,-139.05 -10.43,-116.02 -41.92,-222.93 -55.43,-345.81l-26.31 -3.33 42.37 272.3c-56.37,-63.01 -3.25,-98.49 -57.89,-147.89l-2.22 71.11c44.02,410.43 106.67,288.15 226.02,626.44 19.33,54.78 43.22,96.6 67.39,148.48 23.62,50.68 39.69,97.56 60.14,153.35 40.17,109.59 62.36,130.5 111.66,205.23 23.17,35.13 15.11,46.75 61.29,51.49 4.93,-46.49 -82.63,-199.94 -112.05,-286.58 -7.39,-21.79 -11.59,-32.66 -19.44,-53.32 -23.13,-60.78 -5.98,-43.57 -1.68,-51.91 38.81,12.51 68.02,89.66 85.88,122.25 25.31,46.19 53.53,90.72 76.5,137.77 121.73,249.4 158.74,481.78 236.66,621.61 33.76,60.59 60.2,70.1 92.78,121.42 60.55,95.36 39.41,111.37 103.14,118.53 -8.29,-25.99 -3.11,-13.08 -16.42,-31.62 -9.86,-13.74 -8.47,-7.8 -18.22,-22.51 -12.01,-18.11 -22,-40.03 -31.89,-59.8 -58.92,-117.73 -123.75,-94.77 -165.19,-387.86 -16.09,-113.81 3.96,-248.28 -14.02,-354.36 -20.85,-122.99 -62.2,-105.86 -58.52,-292.04 -10,-57.99 -1.72,-121.38 10.47,-171.21 14.03,-116.55 -19.28,-309.79 -1.14,-421.84 -9.39,-11.32 -4.81,6.87 -15.45,-29.46l-47.44 -241.47c-17.48,-78.73 -72.99,-172.72 -81.25,-242.31 -6.64,-55.99 1.86,-90.02 -16.21,-147.49 -47.08,-149.74 59.67,-56.3 -119.22,-380.1 -27.39,-15.52 -41.18,-52.64 -56.1,-64.97 -15.87,-13.12 -44.05,-6.91 -92.81,-72.15 -29.04,-38.87 -97.98,-151.44 -102.1,-205.26 8.43,31.46 111.39,243.07 190.02,264.61 -25.78,-74.38 -82.43,-119.69 -111.55,-168.98 -20.63,-34.92 -23.39,-70.59 -37.21,-105.46 -29.56,-74.57 -124.59,-200.48 -180.84,-248.18 -43.32,-36.75 -130.39,-80.38 -201.79,-84.48 -72.16,66.2 -63.12,-27.16 -168.08,87.47 -30.41,33.22 -39.71,44.94 -46.68,96.55 -15.5,114.74 10.32,93.09 -49.45,94.49l38.38 7.58c9.33,102.87 10.8,80.52 -17.51,100.71 29.41,20.5 17.51,75.1 16.05,111.82l18.88 283.97c7.95,45.48 -2.86,36.8 23.28,45.38z"/>
  <path class="fil3" d="M5846.16 2135.9l76.2 -0.34c-3.18,10.67 -1.25,56.15 -40.71,30.08 -32.46,-21.44 19.56,-12.48 -35.49,-29.74zm-31.8 -20.08l35.53 52.74c1.45,2.13 3.78,5.55 5.61,8.36 -29.3,-8.78 -51.88,-35.97 -60.75,-64.2 25.62,-34.17 87.45,-47.47 119.35,-37.28 29.31,9.37 26.11,18.64 33.96,29.12 -54.16,-12.05 -84.01,-6.59 -133.7,11.26zm145.09 -133.69c-1.03,-3.49 -4.84,-2.58 -6.55,-2.34l61.17 -19.41 -1.72 65.91c-2.94,-1.98 -6.28,-4.61 -8.45,-6.47l-37.72 -33.52c-1.35,-1.05 -5.73,-0.81 -6.73,-4.17zm-259.42 100.28l40.86 8.7c29.33,51.74 20.49,137.91 -25.22,179.95l24.84 -97.36c-84.99,-24.83 -36.5,-24.44 -82.03,-11.95l-2.72 72.14c52.63,194.94 92.5,254.76 226.08,212.79 57.58,-18.09 42.98,-29.23 72.01,-53.61 -9.24,38.03 -44.28,68.95 -82.66,83.59 -75.6,28.84 -70.75,20.77 -144.15,20.2 0.63,32.91 6.56,39.43 11.15,63.89l-37.83 40.85c42.29,121.43 64.46,128.91 246.27,62.06 113.58,-41.76 34.53,-43.42 116.47,-100.74 -68.14,-87.69 -51.97,-155.87 -35.41,-295.44 12.61,-106.31 3.78,-205.5 2.07,-329.84 -25.38,6.67 -236.66,105.3 -321.5,12.25l-30.52 -33.32c-12.87,66.31 -17.15,-6.26 -25.2,143.75l47.49 22.09z"/>
  <path class="fil3" d="M6081.67 4382.46c-10.32,61.34 14.97,26.31 -3.25,87.4 -13.51,45.31 -9.62,53.45 -7.03,97.8 1.51,25.81 -2.97,59.27 -1.47,96.99 1.41,35.72 8.99,68.69 11.1,109.32 74.88,1.06 59.37,7.27 89.12,-48.59 22.91,-43 40.37,-29.43 51.65,-102.27 10.81,-69.79 8.68,-177.4 4.34,-266.46 -99.5,0.75 -51.64,5.92 -144.46,25.81z"/>
  <path class="fil4" d="M6925.55 3285.91c178.89,323.8 72.14,230.36 119.22,380.1 18.07,57.47 9.57,91.5 16.21,147.49 8.26,69.59 63.77,163.58 81.25,242.31l47.44 241.47c10.64,36.33 6.06,18.14 15.45,29.46l0.26 -32.71 68.91 13.07c-29.69,-28.38 -21.63,-10.37 -51.49,-30.59 -30.23,-257.47 -96.21,-376.35 -118.22,-542.71 -7.18,-54.22 -11.43,-100.34 -17.45,-151.28 -6.98,-58.98 -66.75,-148.92 -101.55,-232.62l-36.13 -86.37c-16.9,-42.86 2.53,-15.15 -23.88,-37.93l-0.02 60.31z"/>
  <path class="fil3" d="M6445.03 3684.53c-92.61,-57.87 -161.32,-8.84 -234.66,80.06l-23.83 40.15c90.41,-4.79 91.03,43.64 136.42,85.05 29.67,-2.97 164.26,-76.01 204.58,-112.55 -25.25,-21.94 -62.86,-59.93 -82.51,-92.71z"/>
  <path class="fil4" d="M4973.58 4721.63c6.96,6.07 15.59,31.03 79.93,13.08l-16.35 52.96c-3,0.2 -5.86,-1.07 -6.38,0.78 -10.48,36.85 5.73,-3.09 -20.71,6.56 -0.87,0.32 -3.78,1.32 -5.48,2.35 15.29,26.6 14.34,20.93 3.2,53.38 -14.02,40.81 -4.69,11.28 -6.29,59.12l-31.18 10.06 -4.21 120.64c-43.69,-5.95 -53.16,-40.82 -65.76,-75.62 -20.42,-56.36 -26.5,-57.07 -55.99,-94.9 -12.63,61.3 -6.72,93.94 20.59,148.29 69.93,139.18 83.38,88.45 63.02,172.5l-66.01 14.81c-6.61,21.77 -9.54,43.19 -20.31,65.41 61.07,33.62 8.76,59.61 31.08,106.01l18.04 -29.12c102.52,-195.47 129.59,-561.77 223.97,-693.55l-34.12 -8.59c-23.98,0.49 -94.56,49.23 -96.27,51.15 -0.33,0.36 -9.49,21.88 -10.77,24.68z"/>
  <path class="fil5" d="M4275.65 5484.91c35.6,39.84 310.72,55.64 342.6,9.29 11.89,-17.29 0.03,-8.96 8.67,-21.8l21.08 -20.66c-24.88,-96.09 -38.5,-94.68 -44.7,-204.52 -13.61,-241.22 -4.67,-208.41 22.21,-460.51l11.52 -180.22c8.55,-47.67 5.96,-35.28 -18.31,-63.24 -24.38,63.9 -14.69,45.89 -10.43,121.35 10.06,178.32 -75.15,418.53 -47.42,599.35 5.2,33.87 12.44,75.05 17.99,112.18 8.64,57.69 -1.4,67.05 -1.88,123.41 -112.57,23.72 -203.93,-14.24 -301.33,-14.63z"/>
  <path class="fil4" d="M4798.18 5574.79l54.08 -5.69c4.26,-34.34 28.23,-51.37 47.7,-90.96 16.58,-33.71 31.35,-65.61 45.77,-97.16 30.51,-66.79 187.11,-334.66 193.82,-390.13 7.95,-65.71 -12.21,-50.77 18.77,-123.13 16.72,-39.07 40.88,-65.46 42.95,-112.54l-25.81 30.44c-42.12,68.37 -47.5,131.84 -91.27,203.34 -23.5,38.39 -16.54,47.38 -32.37,91.06l-139.57 334.31c-14.36,-8.87 -23.24,-13 -36.41,-23.58 -10.79,114.83 -63.71,32.81 -77.66,184.04z"/>
  <path class="fil2" d="M6346.84 4903.63c-28.56,312.11 -5.16,313.58 2.89,577.82 3.65,119.47 13.3,12.83 -2.68,145.07 -1.77,14.71 17.05,98.6 19.87,131.12 4.51,51.84 2.62,91.19 5.03,142.73 1.13,24.08 3.21,56.44 5.71,80.26l14.54 55.71c8.72,-44.21 18.82,-85.16 21.65,-135.92 2.94,-52.86 -14.51,-86.47 -17.22,-133.37l-16.69 -294.22c-16.06,-128.6 -17.77,-490.27 -33.1,-569.2z"/>
  <path class="fil4" d="M6148.04 3429.01c23.05,17.48 9.13,30 10.28,71.32l17.89 11.65c5.14,6.75 8.05,20.99 11,29.87l44.77 4.8c-5.67,-47.29 -14.49,-104.47 -12.31,-148.29 10.86,-217.47 9.86,-94.94 -4.3,-286.11 -3.78,-51.12 11.61,-117.07 2.45,-159.37 -24.22,33.01 -26.08,132.37 -19.98,158.08 -16.73,7.43 -2.97,2.18 -14.19,2.04 -22.43,-0.27 7.44,-8.59 -12.81,-0.76 -3.95,57.21 0.49,113.53 -5.86,170.95 -5.17,46.69 -15.94,90.99 -16.94,145.82z"/>
  <path class="fil4" d="M6311.13 3592.97c88.23,-41.82 73.06,-114.91 205.17,-174.37 125.13,-56.32 129.36,5.41 143.68,11.13 55.91,1.08 80.24,3.16 131.29,22.38 59.71,22.49 49.62,47.74 89.85,67.56 -40.81,-64.29 -27.57,0.39 -52.28,-96.86 -0.52,-2.05 -1.54,-5.56 -2.74,-8.18 -178.28,-59.1 -219.46,-68.83 -394.85,30.71 -62.6,35.53 -63.57,30.63 -87.86,97.84 -10.19,-24.97 12.61,-46.21 14.3,-118.78l-27.14 22.5c-51.81,54.61 -4.52,43.9 -58.11,74.05l38.69 72.02z"/>
  <path class="fil3" d="M6027.15 3550.47l77.94 0.1c4.5,-51.07 -12.94,-34.6 -14.76,-143.38l-22.69 -429c-28.04,45.47 -44.23,522.92 -40.49,572.28z"/>
  <path class="fil3" d="M7419.07 5794.89l31.93 -27.05c-1.85,-27.74 -8.9,-46.45 -13.04,-81.95 2.39,-2.3 6.08,-8.98 7.29,-6.78 6.18,11.29 -0.95,1.29 26.99,-23.86l-98.83 -172.8c-35.53,-71.15 -34.43,-130.81 -92.25,-196.75 -4.17,65.01 6.89,77.45 27.34,130.12 21.46,55.27 13.79,79.39 29.82,132.62 24.26,80.54 86.32,149.79 80.75,246.45z"/>
  <path class="fil3" d="M5239.94 3765.87c19.2,18.36 87.18,58.96 126.06,63.92 21.76,-34.2 34.51,-77.28 59.09,-103.73 42.66,-45.91 46.45,-55.9 39.63,-133.29 -24.76,6.82 -212.55,158.66 -224.78,173.1z"/>
  <path class="fil3" d="M7095 5501.08c-0.2,6.94 3.06,32.51 3.72,41.77 1.94,27.33 2.39,54.79 2.99,82.1 1.94,87.31 21.01,274.9 129.96,285.29 51.63,4.91 27.29,1.84 75.02,15.36 -33.55,-60.81 -189.54,-109.52 -148.54,-180.47l14.25 -18.39c-49.44,-81.44 -36.2,-189.82 -63.05,-264.94 -14.02,14.62 -12.33,-31.51 -14.35,39.28z"/>
  <path class="fil4" d="M7599.62 5880.27l42.48 0.15c-6.91,11.58 -14.61,32.4 -18.46,43.67 36.73,5.92 26.04,-13.2 63.19,43.39l9.37 23.07c23.18,40.11 38.77,-45.58 71.99,100.84 28.23,-30.56 5.19,-85.45 -3.64,-122.68 -46.32,-195.17 -70.32,-102.15 -69.71,-170.43 -40.85,35.84 -6.51,35.76 -30.32,75.76 -1.5,0.11 -3.5,-1.24 -4.27,-1.47 -54.94,-16.52 -60.63,-30.43 -60.63,7.7z"/>
  <path class="fil2" d="M4011.41 2916.29l-13.52 51.93c66.62,-11.53 184.03,-88.92 271.64,-40.21 -53.47,-62.09 -90.83,-51.37 -112.81,-55.15 -17.74,-3.05 -10.9,-1.84 -20.64,-7.62l23.32 -4.76c-6.69,-25.67 5.1,-11.03 -11.83,-25.35l-39.7 4.28c-9.05,21.57 -74.32,63.14 -96.46,76.88z"/>
  <path class="fil6" d="M6468.47 4009.02l11.1 18.31c4.39,40.12 11.29,2.79 -8.95,30.41 -2.14,-18.05 -17.62,-29.83 -50.66,-5.91 8.99,46.04 0.68,7.3 65.49,73.63l26.31 27.76 2.22 -71.11c54.64,49.4 1.52,84.88 57.89,147.89l-42.37 -272.3 -32.87 6.39 14.45 43.07 -42.61 1.86z"/>
  <path class="fil5" d="M4159.4 2860.48l69.91 2.49c16.56,34.76 17.25,30.02 44.11,43.41 57.34,28.58 86.99,30.13 110.8,50.22 36.25,30.57 28.22,27.39 77.12,43.25 -1.54,-3.95 -4.1,-13.29 -4.86,-11.74 -1.51,3.05 -23.59,-44.12 12.97,-73.42l25.84 -18.89c2.28,-2.04 4.93,-5.33 6.8,-7.11 1.98,-1.87 4.7,-5.1 6.96,-7.73l-60.16 3.42c-7.55,18.1 -19.98,46 -35.74,64.61 -68.59,-7.88 -21.71,-7.82 -67.23,-35.55 -54.02,-32.9 -12.87,7.03 -65.1,-47.36 -37,-38.53 -120.51,-55.21 -144.34,-47.81 -34.84,10.83 -7.19,-1.8 -28.61,21.14l39.7 -4.28c16.93,14.32 5.14,-0.32 11.83,25.35z"/>
  <path class="fil6" d="M5397.15 3415.71c-3.13,-1.33 -7.56,-7.23 -9.24,-4.34 -1.68,2.89 -11.83,-5.64 -17.07,-6.44l-75.47 28.82c50.77,27.32 86.41,79.5 159.61,88.93 -11.26,-13.18 -17.84,-29.94 -55.61,-36.94 66.27,-10.13 11.81,-112.88 -3.78,-150.83l-74.37 -180.71c6.86,92.12 61.34,165.15 75.93,261.51z"/>
  <path class="fil4" d="M6238.08 4838.22c1.66,0.45 4.53,-1.3 5.13,0.49 9.68,28.51 3.96,-0.91 11.39,0.73 26.77,5.93 2.84,-8.06 25.29,10.67 4.41,-121.67 41.89,-169.53 83.81,-235.36 13.96,-21.91 22.35,-51.76 43.97,-55.64 -87.47,-1.29 -153.64,183.27 -169.59,279.11z"/>
  <path class="fil4" d="M6606.37 5554.45c-12.09,-29.11 -16.33,-53.4 -28.09,-84.27 -11.48,10.91 -6.82,-8.74 -7.66,19.56 -0.06,2.08 3.84,18.97 5.13,23.84l38.18 135.18c17.75,54.94 25.57,127.37 56.27,172.73 9.18,-11.38 17.2,-0.87 9.27,-48.88 -32.05,-194.14 -39.71,-137.83 -73.1,-218.16z"/>
  <path class="fil5" d="M5186.59 3268.34l17.21 21.81c1.65,1.81 3.66,4.13 5.45,5.99l21.05 19.26c70.75,21.07 21.91,3.29 40.68,-3.35 1.86,-70.18 -18.36,-8.51 -39.25,-68.02 -16.42,-46.79 11.28,-17.66 -26.55,-64.54 -17.76,-22 4.66,18.22 -14.17,-21l-42.48 35.45 21.91 55.86c10.5,17.59 9.44,12.14 16.15,18.54z"/>
  <path class="fil7" d="M4740.02 5558.14c1.53,3.11 8.66,22.45 11.86,28.67l12.79 20.18c1.48,2.19 3.83,4 5.28,6.24 29.05,44.99 5.32,6.82 17.9,61.62 13.16,-11.71 1.49,5.08 21.44,-24.46 2.78,-4.11 11.39,-20.23 14.4,-26.12 10.03,-19.64 14,-35.88 28.57,-55.17l-54.08 5.69c-5.58,-33.99 -20.3,-55.72 -39.48,-81.15l-19.48 -22.82c7.06,84.21 50.27,59.78 0.8,87.32z"/>
  <path class="fil4" d="M6285.27 2708.82c22.37,45.96 15.32,109.7 19.96,128.02 13.85,54.67 -9.02,15.42 27.94,36.34 4.78,-9.22 9.28,7.8 11.11,-36.14 3.48,-83.66 -48.64,-86.69 10.6,-131.81 19.8,-15.08 15.01,3.11 15.36,-28.89l-57.44 -3.28 0.08 32.63 -27.61 3.13z"/>
  <path class="fil4" d="M5215.73 4470.56l8.67 55 -35.23 32.62c5.31,-2.44 145.36,-102.3 158.34,-128.48 -1.88,-1.49 15.71,-20.17 -36.38,-17.51 -12.48,0.64 -15.87,6.39 -30.98,15.73 -28.55,17.64 -43.73,25.42 -64.42,42.64z"/>
  <path class="fil6" d="M5701.9 2086.26c24.01,29.98 29.45,15.31 35.19,51.44 -23.55,-7.08 -39.11,-6.01 -52.81,-19.54 -23.59,20.13 -4.22,0.11 -21.77,32.14 -4.94,-36.97 1.85,-7.84 -15.23,-19.48 0.08,30.38 -5.6,34.57 -6.17,52.59 -0.17,5.04 -0.85,17.56 -0.21,21.05 5.31,28.7 3.17,14.31 14.86,29.43l2.72 -72.14c45.53,-12.49 -2.96,-12.88 82.03,11.95l-24.84 97.36c45.71,-42.04 54.55,-128.21 25.22,-179.95l-40.86 -8.7 1.87 3.85z"/>
  <path class="fil8" d="M6176.54 3776.91l38.94 -199.98 -59.8 -12.68c-0.22,41.68 8.71,193.93 20.86,212.66z"/>
  <path class="fil6" d="M5230.3 3315.4l-21.05 -19.26c-1.79,-1.86 -3.8,-4.18 -5.45,-5.99l-17.21 -21.81c21.75,56.81 33.31,29.97 40.54,91.71 2.76,23.61 10.87,11.59 43.91,41.42 26.91,-42.77 -35.28,-46.69 19.46,-47.15l80.51 25.85c-24.55,-56.5 -27.07,-42.36 -56.03,-76.8 -2.42,2.05 -5.8,2.38 -6.88,6.58 -0.5,1.97 -26.08,49.77 -77.8,5.45z"/>
  <path class="fil5" d="M6935.68 3223.12c-10.02,-33.65 -18.61,-48.17 -38.63,-72.64 -29.85,-36.48 -17.35,-15.14 -37.23,-61.85 -17.53,-41.16 -19.83,-32 -43.53,-62.2 -33.05,-42.12 2.72,-31.93 -48.72,-62.21 11.1,82.43 43.5,74.82 74.02,138.47 18.66,38.9 28.21,64.1 58.85,95.15l35.24 25.28z"/>
  <path class="fil2" d="M6718.57 3630.04c45.81,4.19 21.58,-5.55 47.5,14.23l-6.42 -35.48 -13.02 -21.84c-12.12,-38.25 -32.42,-18.38 -99.26,-66.2 -1.61,-1.15 -3.61,-3.44 -5.18,-4.53 -20.56,-14.31 6.25,-6.7 -31.62,-14.08 63.7,40.26 -0.99,15.1 48.56,70.19 21.21,23.58 36.45,36.65 59.44,57.71z"/>
  <path class="fil5" d="M3900.57 3551.76l-3.14 -95.96 107.36 12.23c-33.63,-35.75 -1.95,-27.45 -96.94,-20.02l-6.2 -35.13c3.76,1.47 14,6.87 16.44,7.57l54.53 5.86c22.08,-3.27 10.05,-2.17 18.51,-7.68l-87.62 -8.24 6.45 -78.66c-20.43,19.06 0.21,-13.78 -13.46,17.35 -1.46,3.32 -7.09,23.24 -7.16,23.57 -4.42,20.05 -3.61,35.96 -5.64,56.18 -4.55,45.33 -12.58,60.02 -13.1,112.35l29.97 10.58z"/>
  <path class="fil4" d="M5353.13 3132.42c1.59,-2.09 3.65,-8.16 4.27,-6.62 6.64,16.61 6.65,-11.39 7.9,-13.67l11.02 -20.66c8.5,22.83 8.05,31.1 18.36,50.97 8.79,-24.55 -18.96,-106.04 -31.91,-139.95 -0.75,-1.96 -8.85,-21.56 -8.97,-21.73 -21.05,-31.17 -5.96,-9.91 -27.41,-24.72 4.11,83.65 15,103.54 26.74,176.38z"/>
  <path class="fil7" d="M6718.57 3630.04c23.4,45.06 61.07,100.33 92.59,135.08 -5,-34.91 -24.63,-51.4 -39.28,-90.35 13.13,-6.44 13.04,-2.79 24.24,-9.97l17.44 -13.22c2.92,-2.19 6.08,-5.36 9.03,-8.14 -43.32,-13.2 -15.34,-18.61 -62.94,-34.65l6.42 35.48c-25.92,-19.78 -1.69,-10.04 -47.5,-14.23z"/>
  <path class="fil6" d="M4723.06 4384.14c-20.21,39.07 -12.61,13.29 -23.7,61.74l41.38 -12.61c-22.08,-9.78 2.69,2.1 -10.34,-15.45 15.03,-19.56 61.11,-77.46 62.61,-103.08 -14.47,-10.55 -17.84,-13.68 -35.28,-27.07 2.33,48.82 -28.49,49.4 -34.67,96.47z"/>
  <path class="fil4" d="M5166.69 2874.63c54.91,64.52 41.13,21.46 101.73,85.11 1.24,-1.75 3.11,-7.11 3.21,-5.59 0.21,3.55 -2.6,-24.7 12.68,-56.82 -47.82,-18.65 -57.91,-38.25 -117.62,-22.7z"/>
  <path class="fil8" d="M6407.41 3876.1c33.3,28.45 42.51,21.56 67.81,51.8l-17.97 -37.29 65.54 -20.72 10.19 -35.84c-43.1,-4.88 -96.49,19.95 -125.57,42.05z"/>
  <path class="fil6" d="M5814.36 2115.82c49.69,-17.85 79.54,-23.31 133.7,-11.26 -7.85,-10.48 -4.65,-19.75 -33.96,-29.12 -31.9,-10.19 -93.73,3.11 -119.35,37.28 8.87,28.23 31.45,55.42 60.75,64.2 -1.83,-2.81 -4.16,-6.23 -5.61,-8.36l-35.53 -52.74z"/>
  <path class="fil4" d="M5111.18 4744.77c53.2,-39.29 107.67,-68.22 141.01,-133.11 -34.94,18.06 -52.76,25.61 -83.58,52.36 -39.12,33.96 -42.31,27.51 -57.43,80.75z"/>
  <path class="fil5" d="M3939.29 2951.45l24.54 37.07c33.99,7.11 16.46,6.73 56.47,15.99 -9.13,-34.85 1.96,-20.86 -22.41,-36.29l13.52 -51.93 -30.39 19.16c-28.75,17.79 2.52,8.27 -41.73,16z"/>
  <path class="fil7" d="M4765.62 4439.99l-24.88 -6.72 -41.38 12.61c11.09,-48.45 3.49,-22.67 23.7,-61.74 -44.99,7.77 -52.94,59 -53.91,96.55l88.14 -37.53c2.2,-0.62 5.63,-1.94 8.33,-3.17z"/>
  <path class="fil3" d="M5647.28 2130.82c17.08,11.64 10.29,-17.49 15.23,19.48 17.55,-32.03 -1.82,-12.01 21.77,-32.14 13.7,13.53 29.26,12.46 52.81,19.54 -5.74,-36.13 -11.18,-21.46 -35.19,-51.44l-53.02 4.71 -1.6 39.85z"/>
  <path class="fil8" d="M6224.95 4273.49c27.29,-49.06 38.2,-109.23 6.1,-159.77l-6.1 159.77z"/>
  <path class="fil8" d="M6187.21 3541.85c-2.95,-8.88 -5.86,-23.12 -11,-29.87l-17.89 -11.65c-1.15,-41.32 12.77,-53.84 -10.28,-71.32 3.49,48.58 -12.01,46.05 -4.25,107.41l43.42 5.43z"/>
  <path class="fil8" d="M6468.47 4009.02l42.61 -1.86 -14.45 -43.07 -42.84 -9.58c7.68,24.54 10.55,27.46 14.68,54.51z"/>
  <path class="fil2" d="M6285.27 2708.82l27.61 -3.13 -0.08 -32.63c-39.2,-3.31 -14.02,-2.76 -38.65,11.66 -36.11,21.16 -27.37,0.45 -29.16,34.49l40.28 -10.39z"/>
  <path class="fil2" d="M5952.9 1979.79c1.71,-0.24 5.52,-1.15 6.55,2.34 1,3.36 5.38,3.12 6.73,4.17l37.72 33.52c2.17,1.86 5.51,4.49 8.45,6.47l1.72 -65.91 -61.17 19.41z"/>
  <path class="fil6" d="M4695.15 5606.87c9.57,30.05 -3.55,24.99 34.6,36.43l22.76 -40.52c-3.28,-1.99 -22.57,-11.07 -22.76,-11.2 -16.9,11 -22.96,10.19 -34.6,15.29z"/>
  <path class="fil6" d="M4892.81 5156.63c-13.38,-38.69 -16.38,-14.62 -11.79,-53.29 -1.9,1.18 -9.09,30.16 -64.77,-14.58 5.72,28.68 39.04,57.07 76.56,67.87z"/>
  <path class="fil4" d="M5846.16 2135.9c55.05,17.26 3.03,8.3 35.49,29.74 39.46,26.07 37.53,-19.41 40.71,-30.08l-76.2 0.34z"/>
  <path class="fil1" d="M1127.73 1600.82l0 -256.46 173.55 0 0 49.04 -109.35 0 0 44.8 100.89 0 0 49.03 -100.89 0 0 64.56 109.35 0 0 49.03 -173.55 0zm272.63 5.29c-14.23,0 -27.7,-1.53 -40.4,-4.64 -12.69,-3.06 -23.16,-6.71 -31.45,-10.82l0 -50.86 5 0c2.88,2.18 6.17,4.59 9.82,7.23 3.7,2.59 8.81,5.35 15.34,8.24 5.65,2.58 11.99,4.88 19.05,6.76 7.06,1.88 14.7,2.82 22.99,2.82 8.52,0 15.99,-1.29 22.46,-3.94 6.52,-2.65 9.76,-6.88 9.76,-12.58 0,-4.47 -1.47,-7.88 -4.47,-10.17 -3,-2.3 -8.82,-4.47 -17.46,-6.53 -4.59,-1.18 -10.41,-2.41 -17.41,-3.7 -7.05,-1.36 -13.22,-2.83 -18.63,-4.59 -15.17,-4.7 -26.64,-11.64 -34.28,-20.87 -7.64,-9.23 -11.46,-21.4 -11.46,-36.39 0,-8.65 1.99,-16.76 5.93,-24.34 4,-7.65 9.82,-14.47 17.52,-20.41 7.71,-5.88 17.23,-10.52 28.58,-13.93 11.29,-3.47 24.1,-5.17 38.33,-5.17 13.58,0 26.05,1.35 37.45,4.05 11.41,2.71 20.99,5.94 28.81,9.76l0 48.98 -4.82 0c-2.06,-1.65 -5.35,-3.77 -9.82,-6.53 -4.53,-2.7 -8.88,-5.05 -13.11,-7 -5.11,-2.35 -10.76,-4.23 -17.05,-5.76 -6.23,-1.47 -12.64,-2.23 -19.22,-2.23 -8.71,0 -16.11,1.47 -22.17,4.47 -6.06,3 -9.05,6.93 -9.05,11.87 0,4.41 1.47,7.82 4.46,10.35 3,2.53 9.53,5 19.52,7.41 5.18,1.23 11.12,2.47 17.88,3.7 6.7,1.18 13.17,2.83 19.4,4.88 13.93,4.47 24.46,11.06 31.69,19.7 7.17,8.7 10.76,20.16 10.76,34.51 0,9.05 -2.12,17.7 -6.35,25.87 -4.29,8.23 -10.29,15.17 -18.11,20.75 -8.29,6.12 -18.05,10.82 -29.22,14.11 -11.23,3.36 -24.64,5 -40.27,5zm217.23 0c-15.93,0 -30.51,-2 -43.8,-6.05 -13.23,-4 -24.75,-10.18 -34.51,-18.58 -9.64,-8.35 -17.17,-18.93 -22.52,-31.58 -5.41,-12.69 -8.11,-27.63 -8.11,-44.85 0,-18.52 2.94,-34.22 8.76,-47.22 5.88,-12.99 13.82,-23.63 23.75,-32.04 9.64,-7.99 20.99,-13.93 34.04,-17.81 13,-3.82 26.58,-5.76 40.69,-5.76 10.7,0 21.34,1.23 32.04,3.7 10.64,2.47 21.4,6.35 32.16,11.76l0 51.56 -7.76 0c-2.41,-2.29 -5.35,-4.82 -8.88,-7.53 -3.47,-2.76 -7.29,-5.29 -11.4,-7.52 -4.41,-2.41 -9.35,-4.47 -14.82,-6.12 -5.53,-1.64 -11.7,-2.46 -18.46,-2.46 -15.4,0 -27.28,5.35 -35.75,16.1 -8.4,10.71 -12.64,25.17 -12.64,43.34 0,19.4 4.53,33.86 13.52,43.39 9,9.52 20.99,14.28 35.93,14.28 7.58,0 14.23,-0.88 19.99,-2.58 5.7,-1.71 10.64,-3.83 14.81,-6.24 4,-2.41 7.41,-4.88 10.29,-7.46 2.88,-2.59 5.35,-4.94 7.41,-7l7.76 0 0 51.68c-3.47,1.47 -7.41,3.23 -11.93,5.17 -4.59,1.94 -9.18,3.59 -13.88,4.82 -5.88,1.59 -11.35,2.83 -16.46,3.71 -5.12,0.88 -11.82,1.29 -20.23,1.29zm271.1 -5.29l-60.32 0 0 -21.4c-10.47,8.76 -20.05,15.34 -28.81,19.87 -8.71,4.53 -19.11,6.82 -31.16,6.82 -19.23,0 -34.16,-6.05 -44.92,-18.17 -10.76,-12.11 -16.11,-30.33 -16.11,-54.61l0 -125.82 60.32 0 0 95.83c0,10 0.24,18.17 0.76,24.46 0.53,6.29 1.77,11.64 3.77,15.99 1.82,4 4.7,7.06 8.58,9.11 3.82,2.06 9.23,3.12 16.17,3.12 4.29,0 9.35,-1.06 15.17,-3.12 5.88,-2.05 11.29,-4.88 16.23,-8.4l0 -136.99 60.32 0 0 193.31zm145.16 5.29c-36.57,0 -64.61,-8.7 -84.13,-26.16 -19.46,-17.46 -29.22,-42.33 -29.22,-74.61 0,-31.57 9.11,-56.74 27.28,-75.61 18.17,-18.81 43.62,-28.22 76.25,-28.22 29.69,0 52.04,8 66.97,23.99 14.99,15.93 22.46,38.8 22.46,68.61l0 21.69 -132.64 0c0.59,9 2.47,16.47 5.7,22.52 3.24,6.06 7.47,10.82 12.82,14.41 5.17,3.52 11.23,6.11 18.11,7.64 6.94,1.59 14.46,2.35 22.63,2.35 7.06,0 13.94,-0.76 20.76,-2.35 6.82,-1.59 13.05,-3.65 18.69,-6.23 4.94,-2.24 9.53,-4.59 13.7,-7.17 4.24,-2.59 7.65,-4.83 10.29,-6.82l6.41 0 0 49.91c-4.94,1.94 -9.46,3.76 -13.52,5.41 -4.12,1.7 -9.7,3.41 -16.82,5.11 -6.58,1.71 -13.34,3.06 -20.28,4.06 -7,1 -15.46,1.47 -25.46,1.47zm20.35 -126.64c-0.36,-12.88 -3.36,-22.69 -8.94,-29.4 -5.65,-6.76 -14.23,-10.11 -25.81,-10.11 -11.88,0 -21.11,3.53 -27.75,10.64 -6.65,7.06 -10.35,16.7 -11.06,28.87l73.56 0zm150.21 121.35l-60.32 0 0 -268.1 60.32 0 0 268.1zm152.68 -50.5l0 -40.51c-10.11,1.06 -18.34,1.94 -24.57,2.7 -6.29,0.71 -12.41,2.18 -18.46,4.41 -5.24,1.82 -9.29,4.65 -12.23,8.35 -2.88,3.76 -4.35,8.76 -4.35,14.99 0,9.12 2.41,15.35 7.23,18.76 4.88,3.41 11.99,5.11 21.46,5.11 5.23,0 10.58,-1.23 16.05,-3.64 5.47,-2.41 10.4,-5.82 14.87,-10.17zm0 29.98c-4.11,3.47 -7.82,6.59 -11.05,9.35 -3.29,2.7 -7.64,5.47 -13.17,8.23 -5.35,2.65 -10.58,4.7 -15.7,6.11 -5.05,1.42 -12.17,2.12 -21.34,2.12 -17.05,0 -31.22,-5.76 -42.45,-17.28 -11.29,-11.53 -16.93,-25.99 -16.93,-43.51 0,-14.41 2.88,-26.05 8.58,-34.87 5.71,-8.87 13.94,-15.93 24.7,-21.1 10.87,-5.29 23.87,-9 38.98,-11.06 15.11,-2.05 31.33,-3.64 48.74,-4.82l0 -1.05c0,-10.65 -3.94,-18.05 -11.76,-22.11 -7.82,-4.06 -19.58,-6.12 -35.22,-6.12 -7.11,0 -15.4,1.3 -24.87,3.88 -9.47,2.59 -18.75,5.88 -27.81,9.88l-5.11 0 0 -46.8c5.99,-1.7 15.58,-3.76 28.92,-6.11 13.29,-2.35 26.75,-3.53 40.28,-3.53 33.27,0 57.5,5.53 72.72,16.64 15.23,11.11 22.81,28.04 22.81,50.86l0 131.81 -60.32 0 0 -20.52zm290.86 25.11c-19.58,0 -36.81,-1.89 -51.68,-5.71 -14.87,-3.76 -28.63,-8.46 -41.39,-14.11l0 -60.97 5.82 0c12.88,10.88 26.99,19.23 42.45,25.11 15.46,5.82 30.45,8.76 45.03,8.76 3.65,0 8.47,-0.41 14.47,-1.18 6.05,-0.82 10.87,-2.05 14.52,-3.82 4.47,-1.94 8.29,-4.64 11.35,-8.11 3.11,-3.53 4.64,-8.12 4.64,-13.82 0,-6.41 -2.53,-11.64 -7.58,-15.7 -5,-3.99 -11.06,-6.93 -18.05,-8.76 -8.7,-2.29 -17.99,-4.46 -27.93,-6.52 -9.94,-2.06 -19.17,-4.59 -27.75,-7.59 -19.87,-6.99 -34.04,-16.4 -42.68,-28.22 -8.59,-11.82 -12.88,-26.63 -12.88,-44.45 0,-23.98 10.17,-43.39 30.46,-58.26 20.34,-14.87 45.68,-22.28 76.07,-22.28 15.29,0 30.46,1.53 45.57,4.64 15.05,3.12 28.57,7.29 40.51,12.58l0 58.62 -5.65 0c-9.52,-8.11 -21.1,-14.93 -34.8,-20.52 -13.7,-5.58 -27.75,-8.41 -42.22,-8.41 -5.58,0 -10.64,0.42 -15.11,1.18 -4.46,0.82 -9.17,2.35 -14.11,4.65 -3.99,1.76 -7.46,4.46 -10.34,8.05 -2.94,3.59 -4.41,7.58 -4.41,12.05 0,6.53 2.29,11.7 6.93,15.58 4.65,3.82 13.64,7.29 26.93,10.41 8.59,1.94 16.88,3.82 24.87,5.64 7.94,1.88 16.46,4.35 25.52,7.59 17.75,6.41 30.98,15.05 39.62,25.93 8.65,10.81 13,25.16 13,42.91 0,25.52 -10,45.98 -30.05,61.5 -19.99,15.47 -47.03,23.23 -81.13,23.23zm239.81 0.7c-36.57,0 -64.61,-8.7 -84.13,-26.16 -19.46,-17.46 -29.22,-42.33 -29.22,-74.61 0,-31.57 9.11,-56.74 27.28,-75.61 18.17,-18.81 43.62,-28.22 76.25,-28.22 29.69,0 52.04,8 66.97,23.99 14.99,15.93 22.46,38.8 22.46,68.61l0 21.69 -132.64 0c0.59,9 2.47,16.47 5.7,22.52 3.24,6.06 7.47,10.82 12.82,14.41 5.17,3.52 11.23,6.11 18.11,7.64 6.94,1.59 14.46,2.35 22.63,2.35 7.06,0 13.94,-0.76 20.76,-2.35 6.82,-1.59 13.05,-3.65 18.69,-6.23 4.94,-2.24 9.53,-4.59 13.7,-7.17 4.24,-2.59 7.65,-4.83 10.29,-6.82l6.41 0 0 49.91c-4.94,1.94 -9.46,3.76 -13.52,5.41 -4.12,1.7 -9.7,3.41 -16.82,5.11 -6.58,1.71 -13.34,3.06 -20.28,4.06 -7,1 -15.46,1.47 -25.46,1.47zm20.35 -126.64c-0.36,-12.88 -3.36,-22.69 -8.94,-29.4 -5.65,-6.76 -14.23,-10.11 -25.81,-10.11 -11.88,0 -21.11,3.53 -27.75,10.64 -6.65,7.06 -10.35,16.7 -11.06,28.87l73.56 0zm184.72 126.64c-15.93,0 -30.51,-2 -43.8,-6.05 -13.23,-4 -24.75,-10.18 -34.51,-18.58 -9.64,-8.35 -17.17,-18.93 -22.52,-31.58 -5.41,-12.69 -8.11,-27.63 -8.11,-44.85 0,-18.52 2.94,-34.22 8.76,-47.22 5.88,-12.99 13.82,-23.63 23.75,-32.04 9.64,-7.99 20.99,-13.93 34.04,-17.81 13,-3.82 26.58,-5.76 40.69,-5.76 10.7,0 21.34,1.23 32.04,3.7 10.64,2.47 21.4,6.35 32.16,11.76l0 51.56 -7.76 0c-2.41,-2.29 -5.35,-4.82 -8.88,-7.53 -3.47,-2.76 -7.29,-5.29 -11.4,-7.52 -4.41,-2.41 -9.35,-4.47 -14.82,-6.12 -5.53,-1.64 -11.7,-2.46 -18.46,-2.46 -15.4,0 -27.28,5.35 -35.75,16.1 -8.4,10.71 -12.64,25.17 -12.64,43.34 0,19.4 4.53,33.86 13.52,43.39 9,9.52 20.99,14.28 35.93,14.28 7.58,0 14.23,-0.88 19.99,-2.58 5.7,-1.71 10.64,-3.83 14.81,-6.24 4,-2.41 7.41,-4.88 10.29,-7.46 2.88,-2.59 5.35,-4.94 7.41,-7l7.76 0 0 51.68c-3.47,1.47 -7.41,3.23 -11.93,5.17 -4.59,1.94 -9.18,3.59 -13.88,4.82 -5.88,1.59 -11.35,2.83 -16.46,3.71 -5.12,0.88 -11.82,1.29 -20.23,1.29zm271.1 -5.29l-60.32 0 0 -21.4c-10.47,8.76 -20.05,15.34 -28.81,19.87 -8.71,4.53 -19.11,6.82 -31.16,6.82 -19.23,0 -34.16,-6.05 -44.92,-18.17 -10.76,-12.11 -16.11,-30.33 -16.11,-54.61l0 -125.82 60.32 0 0 95.83c0,10 0.24,18.17 0.76,24.46 0.53,6.29 1.77,11.64 3.77,15.99 1.82,4 4.7,7.06 8.58,9.11 3.82,2.06 9.23,3.12 16.17,3.12 4.29,0 9.35,-1.06 15.17,-3.12 5.88,-2.05 11.29,-4.88 16.23,-8.4l0 -136.99 60.32 0 0 193.31zm227.24 0l-60.32 0 0 -95.83c0,-7.82 -0.3,-15.58 -0.94,-23.34 -0.65,-7.76 -1.83,-13.47 -3.59,-17.11 -2.06,-4.35 -5.06,-7.53 -9,-9.41 -3.94,-1.88 -9.17,-2.82 -15.75,-2.82 -5,0 -10,0.94 -15.11,2.76 -5.06,1.82 -10.53,4.76 -16.29,8.76l0 136.99 -60.32 0 0 -193.31 60.32 0 0 21.4c9.88,-8.41 19.52,-14.94 28.87,-19.64 9.35,-4.7 19.75,-7.05 31.1,-7.05 19.76,0 34.87,6.23 45.33,18.69 10.47,12.41 15.7,30.46 15.7,54.09l0 125.82zm220.54 0l-60.33 0 0 -20.17c-3.93,3.24 -8.4,6.71 -13.4,10.35 -5,3.71 -9.41,6.41 -13.23,8.29 -4.82,2.29 -9.58,4 -14.34,5.12 -4.71,1.11 -10.35,1.7 -16.94,1.7 -22.1,0 -39.62,-9.11 -52.56,-27.34 -12.87,-18.28 -19.34,-42.62 -19.34,-73.14 0,-16.87 2.17,-31.51 6.58,-43.86 4.35,-12.4 10.41,-23.22 18.11,-32.39 7.06,-8.35 15.58,-14.99 25.64,-19.87 9.99,-4.88 20.57,-7.29 31.8,-7.29 10.12,0 18.46,1.05 24.93,3.17 6.53,2.12 14.11,5.47 22.75,9.94l0 -82.61 60.33 0 0 268.1zm-60.33 -53.21l0 -95.42c-2.99,-1.47 -6.93,-2.7 -11.75,-3.7 -4.88,-1 -9.06,-1.47 -12.47,-1.47 -14.58,0 -25.51,5.05 -32.86,15.22 -7.35,10.18 -11,24.34 -11,42.57 0,19.17 2.94,33.04 8.76,41.57 5.82,8.52 15.29,12.81 28.34,12.81 5.29,0 10.64,-1.05 16.11,-3.11 5.41,-2.06 10.35,-4.88 14.87,-8.47zm212.83 2.71l0 -40.51c-10.11,1.06 -18.34,1.94 -24.57,2.7 -6.29,0.71 -12.41,2.18 -18.46,4.41 -5.24,1.82 -9.29,4.65 -12.23,8.35 -2.88,3.76 -4.35,8.76 -4.35,14.99 0,9.12 2.41,15.35 7.23,18.76 4.88,3.41 11.99,5.11 21.46,5.11 5.23,0 10.58,-1.23 16.05,-3.64 5.47,-2.41 10.4,-5.82 14.87,-10.17zm0 29.98c-4.11,3.47 -7.82,6.59 -11.05,9.35 -3.29,2.7 -7.64,5.47 -13.17,8.23 -5.35,2.65 -10.58,4.7 -15.7,6.11 -5.05,1.42 -12.17,2.12 -21.34,2.12 -17.05,0 -31.22,-5.76 -42.45,-17.28 -11.29,-11.53 -16.93,-25.99 -16.93,-43.51 0,-14.41 2.88,-26.05 8.58,-34.87 5.71,-8.87 13.94,-15.93 24.7,-21.1 10.87,-5.29 23.87,-9 38.98,-11.06 15.11,-2.05 31.33,-3.64 48.74,-4.82l0 -1.05c0,-10.65 -3.94,-18.05 -11.76,-22.11 -7.82,-4.06 -19.58,-6.12 -35.22,-6.12 -7.11,0 -15.4,1.3 -24.87,3.88 -9.47,2.59 -18.75,5.88 -27.81,9.88l-5.11 0 0 -46.8c5.99,-1.7 15.58,-3.76 28.92,-6.11 13.29,-2.35 26.75,-3.53 40.28,-3.53 33.27,0 57.5,5.53 72.72,16.64 15.23,11.11 22.81,28.04 22.81,50.86l0 131.81 -60.32 0 0 -20.52zm234.83 -115.65l-5 0c-2.29,-0.82 -5.64,-1.47 -10.05,-1.88 -4.35,-0.41 -9.23,-0.58 -14.53,-0.58 -6.34,0 -12.99,0.94 -19.93,2.76 -6.99,1.82 -13.75,4 -20.34,6.52l0 129.35 -60.32 0 0 -193.31 60.32 0 0 27.69c2.76,-2.53 6.59,-5.7 11.52,-9.53 4.88,-3.88 9.35,-6.93 13.35,-9.23 4.41,-2.64 9.53,-4.88 15.35,-6.82 5.82,-1.88 11.28,-2.82 16.52,-2.82 1.94,0 4.11,0.06 6.52,0.18 2.41,0.12 4.65,0.29 6.59,0.53l0 57.14zm83.13 136.17l-60.32 0 0 -193.31 60.32 0 0 193.31zm1.77 -220.83l-63.85 0 0 -46.91 63.85 0 0 46.91zm150.91 170.33l0 -40.51c-10.11,1.06 -18.34,1.94 -24.57,2.7 -6.29,0.71 -12.41,2.18 -18.46,4.41 -5.24,1.82 -9.29,4.65 -12.23,8.35 -2.88,3.76 -4.35,8.76 -4.35,14.99 0,9.12 2.41,15.35 7.23,18.76 4.88,3.41 11.99,5.11 21.46,5.11 5.23,0 10.58,-1.23 16.05,-3.64 5.47,-2.41 10.4,-5.82 14.87,-10.17zm0 29.98c-4.11,3.47 -7.82,6.59 -11.05,9.35 -3.29,2.7 -7.64,5.47 -13.17,8.23 -5.35,2.65 -10.58,4.7 -15.7,6.11 -5.05,1.42 -12.17,2.12 -21.34,2.12 -17.05,0 -31.22,-5.76 -42.45,-17.28 -11.29,-11.53 -16.93,-25.99 -16.93,-43.51 0,-14.41 2.88,-26.05 8.58,-34.87 5.71,-8.87 13.94,-15.93 24.7,-21.1 10.87,-5.29 23.87,-9 38.98,-11.06 15.11,-2.05 31.33,-3.64 48.74,-4.82l0 -1.05c0,-10.65 -3.94,-18.05 -11.76,-22.11 -7.82,-4.06 -19.58,-6.12 -35.22,-6.12 -7.11,0 -15.4,1.3 -24.87,3.88 -9.47,2.59 -18.75,5.88 -27.81,9.88l-5.11 0 0 -46.8c5.99,-1.7 15.58,-3.76 28.92,-6.11 13.29,-2.35 26.75,-3.53 40.28,-3.53 33.27,0 57.5,5.53 72.72,16.64 15.23,11.11 22.81,28.04 22.81,50.86l0 131.81 -60.32 0 0 -20.52zm445.07 -107.65c0,41.45 -11.05,74.08 -33.21,97.83 -22.17,23.76 -52.51,35.63 -91.02,35.63 -38.68,0 -69.02,-12.05 -91.07,-36.1 -22.04,-24.04 -33.04,-56.5 -33.04,-97.36 0,-41.15 11,-73.73 33.04,-97.66 22.05,-23.92 52.39,-35.92 91.07,-35.92 38.51,0 68.85,11.94 91.02,35.75 22.16,23.81 33.21,56.44 33.21,97.83zm-66.31 -0.18c0,-15.22 -1.59,-28.28 -4.77,-38.98 -3.11,-10.76 -7.35,-19.57 -12.64,-26.45 -5.52,-7 -11.76,-12.06 -18.69,-15.05 -7,-3.06 -14.17,-4.59 -21.64,-4.59 -7.94,0 -15.17,1.41 -21.58,4.23 -6.46,2.83 -12.64,7.82 -18.63,15.05 -5.3,6.65 -9.59,15.53 -12.82,26.52 -3.29,11.05 -4.94,24.22 -4.94,39.45 0,15.76 1.53,28.81 4.64,39.22 3.12,10.4 7.35,19.1 12.76,26.1 5.53,7.11 11.82,12.23 18.82,15.23 6.99,3.05 14.22,4.58 21.75,4.58 7.58,0 14.93,-1.64 22.05,-4.94 7.11,-3.23 13.28,-8.34 18.46,-15.22 5.53,-7.47 9.76,-16.17 12.76,-26.11 3,-9.93 4.47,-22.93 4.47,-39.04zm293.5 128.35l-60.33 0 0 -152.57 -67.02 0 0 152.57 -60.32 0 0 -151.33 -23.99 0 0 -41.98 23.99 0 0 -5.35c0,-23.64 6.05,-41.39 18.22,-53.33 12.12,-11.93 30.46,-17.87 54.98,-17.87 8.4,0 16.22,0.35 23.45,1.06 7.29,0.64 13.29,1.47 18,2.35l0 43.15 -4.47 0c-2.18,-0.7 -5.35,-1.47 -9.53,-2.47 -4.17,-0.94 -8.41,-1.41 -12.76,-1.41 -11.46,0 -19.34,2.35 -23.63,7.12 -4.29,4.76 -6.41,13.17 -6.41,25.16l0 1.59 129.82 0 0 193.31zm1.76 -220.83l-58.56 0 0 -46.91 58.56 0 0 46.91zm139.34 226.12c-15.93,0 -30.51,-2 -43.8,-6.05 -13.23,-4 -24.75,-10.18 -34.51,-18.58 -9.64,-8.35 -17.17,-18.93 -22.52,-31.58 -5.41,-12.69 -8.11,-27.63 -8.11,-44.85 0,-18.52 2.94,-34.22 8.76,-47.22 5.88,-12.99 13.82,-23.63 23.75,-32.04 9.64,-7.99 20.99,-13.93 34.04,-17.81 13,-3.82 26.58,-5.76 40.69,-5.76 10.7,0 21.34,1.23 32.04,3.7 10.64,2.47 21.4,6.35 32.16,11.76l0 51.56 -7.76 0c-2.41,-2.29 -5.35,-4.82 -8.88,-7.53 -3.47,-2.76 -7.29,-5.29 -11.4,-7.52 -4.41,-2.41 -9.35,-4.47 -14.82,-6.12 -5.53,-1.64 -11.7,-2.46 -18.46,-2.46 -15.4,0 -27.28,5.35 -35.75,16.1 -8.4,10.71 -12.64,25.17 -12.64,43.34 0,19.4 4.53,33.86 13.52,43.39 9,9.52 20.99,14.28 35.93,14.28 7.58,0 14.23,-0.88 19.99,-2.58 5.7,-1.71 10.64,-3.83 14.81,-6.24 4,-2.41 7.41,-4.88 10.29,-7.46 2.88,-2.59 5.35,-4.94 7.41,-7l7.76 0 0 51.68c-3.47,1.47 -7.41,3.23 -11.93,5.17 -4.59,1.94 -9.18,3.59 -13.88,4.82 -5.88,1.59 -11.35,2.83 -16.46,3.71 -5.12,0.88 -11.82,1.29 -20.23,1.29zm151.51 -5.29l-60.32 0 0 -193.31 60.32 0 0 193.31zm1.77 -220.83l-63.85 0 0 -46.91 63.85 0 0 46.91zm150.91 170.33l0 -40.51c-10.11,1.06 -18.34,1.94 -24.57,2.7 -6.29,0.71 -12.41,2.18 -18.46,4.41 -5.24,1.82 -9.29,4.65 -12.23,8.35 -2.88,3.76 -4.35,8.76 -4.35,14.99 0,9.12 2.41,15.35 7.23,18.76 4.88,3.41 11.99,5.11 21.46,5.11 5.23,0 10.58,-1.23 16.05,-3.64 5.47,-2.41 10.4,-5.82 14.87,-10.17zm0 29.98c-4.11,3.47 -7.82,6.59 -11.05,9.35 -3.29,2.7 -7.64,5.47 -13.17,8.23 -5.35,2.65 -10.58,4.7 -15.7,6.11 -5.05,1.42 -12.17,2.12 -21.34,2.12 -17.05,0 -31.22,-5.76 -42.45,-17.28 -11.29,-11.53 -16.93,-25.99 -16.93,-43.51 0,-14.41 2.88,-26.05 8.58,-34.87 5.71,-8.87 13.94,-15.93 24.7,-21.1 10.87,-5.29 23.87,-9 38.98,-11.06 15.11,-2.05 31.33,-3.64 48.74,-4.82l0 -1.05c0,-10.65 -3.94,-18.05 -11.76,-22.11 -7.82,-4.06 -19.58,-6.12 -35.22,-6.12 -7.11,0 -15.4,1.3 -24.87,3.88 -9.47,2.59 -18.75,5.88 -27.81,9.88l-5.11 0 0 -46.8c5.99,-1.7 15.58,-3.76 28.92,-6.11 13.29,-2.35 26.75,-3.53 40.28,-3.53 33.27,0 57.5,5.53 72.72,16.64 15.23,11.11 22.81,28.04 22.81,50.86l0 131.81 -60.32 0 0 -20.52zm164.98 20.52l-60.32 0 0 -268.1 60.32 0 0 268.1zm373.16 0l-62.03 0 -99.18 -178.79 0 178.79 -58.91 0 0 -256.46 79.13 0 82.08 146.93 0 -146.93 58.91 0 0 256.46zm234.05 -96.6c0,31.81 -8.7,56.86 -26.1,75.14 -17.46,18.29 -42.04,27.46 -73.9,27.46 -31.63,0 -56.21,-9.17 -73.73,-27.46 -17.52,-18.28 -26.28,-43.33 -26.28,-75.14 0,-32.1 8.76,-57.26 26.28,-75.43 17.52,-18.17 42.1,-27.28 73.73,-27.28 31.74,0 56.32,9.17 73.78,27.46 17.46,18.28 26.22,43.39 26.22,75.25zm-61.73 0.36c0,-11.41 -0.94,-20.94 -2.88,-28.52 -1.88,-7.64 -4.53,-13.7 -7.88,-18.28 -3.53,-4.83 -7.58,-8.18 -12.11,-10.06 -4.47,-1.88 -9.64,-2.82 -15.4,-2.82 -5.41,0 -10.35,0.82 -14.7,2.47 -4.41,1.65 -8.47,4.82 -12.17,9.52 -3.41,4.47 -6.23,10.59 -8.29,18.35 -2.06,7.82 -3.12,17.58 -3.12,29.34 0,11.81 1,21.34 2.94,28.57 1.94,7.29 4.53,13.05 7.64,17.4 3.24,4.47 7.24,7.7 12.12,9.76 4.82,2.06 10.23,3.12 16.11,3.12 4.82,0 9.76,-1.06 14.81,-3.12 5,-2.06 9,-5.11 12,-9.23 3.58,-4.94 6.29,-10.82 8.17,-17.75 1.82,-6.94 2.76,-16.53 2.76,-28.75zm156.33 96.24l-61.03 0 0 -67.73 61.03 0 0 67.73zm331.07 0l-169.33 0 0 -44.8 53.98 0 0 -135.46 -53.98 0 0 -41.98c7.94,0 15.76,-0.53 23.58,-1.53 7.76,-1.06 13.99,-2.7 18.7,-4.99 5.52,-2.77 9.76,-6.47 12.81,-11.12 3.06,-4.64 4.77,-10.4 5.24,-17.28l56.09 0 0 212.36 52.91 0 0 44.8zm230.23 -86.78c0,13.29 -2.29,25.63 -6.82,36.98 -4.52,11.35 -11.34,21.17 -20.4,29.46 -8.99,8.11 -19.63,14.46 -31.98,18.93 -12.35,4.47 -27.52,6.7 -45.57,6.7 -19.1,-0.12 -35.51,-1.76 -49.21,-4.94 -13.75,-3.11 -25.1,-6.7 -34.04,-10.58l0 -56.09 5.88 0c3.24,1.88 6.82,4 10.88,6.35 4,2.35 9.29,4.82 15.87,7.41 6.12,2.47 12.29,4.47 18.58,6.05 6.29,1.59 13.23,2.41 20.99,2.41 6.64,0 13.88,-0.82 21.58,-2.52 7.7,-1.65 13.93,-4.71 18.64,-9.06 3.46,-3.47 6.17,-7.35 8.11,-11.64 1.94,-4.23 2.94,-9.93 2.94,-17.11 0,-5.99 -1.24,-11.17 -3.71,-15.52 -2.46,-4.29 -5.76,-7.82 -9.75,-10.46 -5.88,-3.94 -13,-6.41 -21.29,-7.53 -8.29,-1.12 -15.46,-1.65 -21.4,-1.65 -9.46,0 -18.7,0.77 -27.57,2.24 -8.94,1.47 -16.7,3.11 -23.29,4.82l-5.52 0 0 -143.93 170.03 0 0 48.33 -109.36 0 0 42.86c3.47,-0.23 7.59,-0.47 12.35,-0.64 4.76,-0.18 8.52,-0.24 11.17,-0.24 12.29,0 23.69,1.23 34.16,3.7 10.46,2.47 19.75,6.29 27.81,11.47 9.82,6.29 17.4,14.76 22.81,25.34 5.41,10.64 8.11,23.57 8.11,38.86zm233.06 27.16l-34.57 0 0 60.33 -62.44 0 0 -60.33 -112.53 0 0 -47.91 110.47 -148.93 64.5 0 0 150.63 34.57 0 0 46.21zm-97.01 -46.21l0 -87.19 -64.67 87.19 64.67 0z"/>
  <path class="fil1" d="M1258.17 6552.73c-28.62,0 -53.8,-2.75 -75.55,-8.33 -21.75,-5.5 -41.86,-12.38 -60.51,-20.63l0 -89.14 8.51 0c18.82,15.9 39.45,28.11 62.06,36.71 22.6,8.5 44.52,12.8 65.84,12.8 5.33,0 12.37,-0.6 21.14,-1.72 8.86,-1.2 15.9,-3.01 21.23,-5.58 6.54,-2.84 12.12,-6.79 16.59,-11.87 4.56,-5.15 6.79,-11.86 6.79,-20.19 0,-9.37 -3.69,-17.02 -11.09,-22.95 -7.3,-5.85 -16.16,-10.15 -26.38,-12.81 -12.73,-3.35 -26.31,-6.53 -40.83,-9.54 -14.53,-3.01 -28.02,-6.71 -40.57,-11.09 -29.06,-10.23 -49.77,-23.98 -62.41,-41.26 -12.55,-17.28 -18.82,-38.94 -18.82,-64.98 0,-35.07 14.87,-63.43 44.52,-85.17 29.74,-21.75 66.79,-32.58 111.23,-32.58 22.35,0 44.52,2.23 66.61,6.79 22.01,4.56 41.78,10.66 59.23,18.39l0 85.69 -8.25 0c-13.93,-11.86 -30.86,-21.83 -50.89,-30 -20.03,-8.16 -40.57,-12.29 -61.71,-12.29 -8.17,0 -15.56,0.6 -22.1,1.72 -6.53,1.2 -13.4,3.44 -20.62,6.79 -5.85,2.58 -10.92,6.53 -15.13,11.78 -4.3,5.24 -6.45,11.09 -6.45,17.62 0,9.54 3.35,17.1 10.14,22.78 6.79,5.58 19.94,10.65 39.37,15.21 12.55,2.84 24.67,5.59 36.36,8.25 11.6,2.75 24.07,6.36 37.3,11.09 25.96,9.37 45.3,22 57.94,37.91 12.63,15.81 18.99,36.78 18.99,62.74 0,37.31 -14.61,67.22 -43.92,89.91 -29.22,22.61 -68.76,33.95 -118.62,33.95zm477.3 -147.92c0,46.5 -12.72,83.11 -38.16,109.85 -25.53,26.73 -61.46,40.14 -108.05,40.14 -46.23,0 -82.16,-13.41 -107.77,-40.14 -25.62,-26.74 -38.43,-63.35 -38.43,-109.85 0,-46.94 12.81,-83.72 38.43,-110.28 25.61,-26.56 61.54,-39.89 107.77,-39.89 46.42,0 82.35,13.41 107.88,40.14 25.52,26.74 38.33,63.44 38.33,110.03zm-90.25 0.51c0,-16.67 -1.38,-30.6 -4.21,-41.69 -2.75,-11.17 -6.62,-20.02 -11.52,-26.73 -5.16,-7.05 -11.09,-11.95 -17.71,-14.7 -6.53,-2.75 -14.09,-4.12 -22.52,-4.12 -7.91,0 -15.12,1.2 -21.48,3.61 -6.44,2.4 -12.37,7.05 -17.79,13.92 -4.98,6.53 -9.11,15.47 -12.12,26.82 -3.01,11.43 -4.55,25.7 -4.55,42.89 0,17.28 1.46,31.2 4.29,41.78 2.84,10.65 6.62,19.08 11.18,25.44 4.73,6.53 10.57,11.26 17.7,14.27 7.05,3.01 14.95,4.55 23.55,4.55 7.04,0 14.26,-1.54 21.66,-4.55 7.3,-3.01 13.15,-7.48 17.53,-13.5 5.25,-7.22 9.2,-15.81 11.95,-25.96 2.66,-10.14 4.04,-24.15 4.04,-42.03zm327.06 -58.36l-7.31 0c-3.35,-1.21 -8.25,-2.15 -14.7,-2.75 -6.36,-0.6 -13.49,-0.86 -21.23,-0.86 -9.28,0 -18.99,1.37 -29.14,4.04 -10.23,2.66 -20.11,5.84 -29.74,9.54l0 189.1 -88.19 0 0 -282.62 88.19 0 0 40.48c4.04,-3.69 9.63,-8.33 16.85,-13.92 7.13,-5.67 13.67,-10.14 19.51,-13.49 6.45,-3.87 13.93,-7.14 22.44,-9.98 8.51,-2.75 16.5,-4.12 24.15,-4.12 2.84,0 6.02,0.08 9.54,0.26 3.52,0.17 6.79,0.43 9.63,0.77l0 83.55zm374.75 88.96c0,16.25 -2.75,31.55 -8.34,45.9 -5.5,14.36 -13.84,26.56 -25.1,36.62 -12.55,11.43 -27.42,19.85 -44.52,25.18 -17.11,5.42 -36.79,8.08 -59.06,8.08 -16.58,0 -32.23,-0.6 -46.75,-1.89 -14.62,-1.2 -27.42,-3.01 -38.51,-5.41l0 -75.73 8.51 0c7.56,3.01 15.38,5.85 23.63,8.42 8.17,2.67 18.66,3.96 31.55,3.96 16.59,0 29.31,-2.32 38.25,-7.05 8.94,-4.64 15.3,-11.26 18.91,-19.6 3.87,-8.25 6.02,-17.7 6.45,-28.54 0.43,-10.83 0.6,-22.86 0.6,-36.1l0 -150.07 -85.61 0 0 -68.59 179.99 0 0 264.82zm330.82 110.11l-88.19 0 0 -31.29c-15.3,12.81 -29.31,22.44 -42.11,29.06 -12.72,6.61 -27.94,9.97 -45.56,9.97 -28.1,0 -49.93,-8.86 -65.66,-26.56 -15.73,-17.71 -23.55,-44.36 -23.55,-79.86l0 -183.94 88.18 0 0 140.11c0,14.61 0.34,26.56 1.12,35.75 0.77,9.2 2.58,17.02 5.5,23.38 2.66,5.85 6.87,10.32 12.55,13.33 5.58,3.01 13.49,4.55 23.63,4.55 6.28,0 13.67,-1.54 22.18,-4.55 8.6,-3.01 16.5,-7.14 23.72,-12.29l0 -200.28 88.19 0 0 282.62zm222.88 -73.84l0 -59.22c-14.78,1.55 -26.82,2.84 -35.93,3.96 -9.19,1.03 -18.13,3.18 -26.99,6.44 -7.65,2.67 -13.58,6.79 -17.87,12.21 -4.22,5.5 -6.37,12.81 -6.37,21.92 0,13.32 3.53,22.43 10.58,27.42 7.13,4.98 17.53,7.47 31.37,7.47 7.65,0 15.47,-1.8 23.47,-5.33 7.99,-3.52 15.21,-8.5 21.74,-14.87zm0 43.84c-6.01,5.07 -11.43,9.63 -16.16,13.67 -4.81,3.95 -11.17,7.99 -19.25,12.03 -7.82,3.87 -15.47,6.88 -22.95,8.94 -7.39,2.06 -17.79,3.1 -31.2,3.1 -24.93,0 -45.64,-8.43 -62.06,-25.27 -16.51,-16.85 -24.76,-38 -24.76,-63.61 0,-21.06 4.22,-38.08 12.55,-50.97 8.34,-12.98 20.37,-23.3 36.1,-30.86 15.91,-7.74 34.9,-13.15 56.99,-16.16 22.09,-3.01 45.82,-5.33 71.26,-7.05l0 -1.55c0,-15.55 -5.76,-26.38 -17.19,-32.31 -11.43,-5.94 -28.63,-8.94 -51.49,-8.94 -10.4,0 -22.52,1.89 -36.36,5.67 -13.84,3.78 -27.42,8.59 -40.66,14.44l-7.47 0 0 -68.42c8.76,-2.49 22.77,-5.5 42.29,-8.94 19.42,-3.44 39.11,-5.16 58.88,-5.16 48.65,0 84.06,8.08 106.31,24.33 22.26,16.24 33.35,41 33.35,74.35l0 192.71 -88.18 0 0 -30zm418.08 30l-88.19 0 0 -140.11c0,-11.43 -0.43,-22.77 -1.38,-34.12 -0.94,-11.35 -2.66,-19.68 -5.24,-25.01 -3.01,-6.36 -7.39,-11.01 -13.15,-13.76 -5.76,-2.75 -13.41,-4.12 -23.04,-4.12 -7.3,0 -14.61,1.37 -22.09,4.04 -7.39,2.66 -15.38,6.96 -23.81,12.8l0 200.28 -88.19 0 0 -282.62 88.19 0 0 31.29c14.44,-12.29 28.54,-21.83 42.21,-28.71 13.66,-6.88 28.88,-10.32 45.47,-10.32 28.88,0 50.97,9.12 66.27,27.34 15.3,18.13 22.95,44.52 22.95,79.08l0 183.94zm220.8 -73.84l0 -59.22c-14.78,1.55 -26.82,2.84 -35.93,3.96 -9.19,1.03 -18.13,3.18 -26.99,6.44 -7.65,2.67 -13.58,6.79 -17.87,12.21 -4.22,5.5 -6.37,12.81 -6.37,21.92 0,13.32 3.53,22.43 10.58,27.42 7.13,4.98 17.53,7.47 31.37,7.47 7.65,0 15.47,-1.8 23.47,-5.33 7.99,-3.52 15.21,-8.5 21.74,-14.87zm0 43.84c-6.01,5.07 -11.43,9.63 -16.16,13.67 -4.81,3.95 -11.17,7.99 -19.25,12.03 -7.82,3.87 -15.47,6.88 -22.95,8.94 -7.39,2.06 -17.79,3.1 -31.2,3.1 -24.93,0 -45.63,-8.43 -62.05,-25.27 -16.51,-16.85 -24.76,-38 -24.76,-63.61 0,-21.06 4.22,-38.08 12.55,-50.97 8.34,-12.98 20.37,-23.3 36.09,-30.86 15.91,-7.74 34.9,-13.15 56.99,-16.16 22.09,-3.01 45.82,-5.33 71.26,-7.05l0 -1.55c0,-15.55 -5.76,-26.38 -17.19,-32.31 -11.43,-5.94 -28.63,-8.94 -51.49,-8.94 -10.4,0 -22.52,1.89 -36.36,5.67 -13.84,3.78 -27.41,8.59 -40.65,14.44l-7.47 0 0 -68.42c8.76,-2.49 22.76,-5.5 42.28,-8.94 19.42,-3.44 39.11,-5.16 58.88,-5.16 48.65,0 84.06,8.08 106.32,24.33 22.26,16.24 33.35,41 33.35,74.35l0 192.71 -88.19 0 0 -30zm496.47 30l-202.67 0 0 -65.5 54.14 0 0 -243.94 -54.14 0 0 -65.49 202.67 0 0 65.49 -54.15 0 0 243.94 54.15 0 0 65.5zm321.98 0l-88.18 0 0 -140.11c0,-11.43 -0.43,-22.77 -1.38,-34.12 -0.94,-11.35 -2.66,-19.68 -5.24,-25.01 -3.01,-6.36 -7.39,-11.01 -13.15,-13.76 -5.76,-2.75 -13.41,-4.12 -23.04,-4.12 -7.3,0 -14.61,1.37 -22.09,4.04 -7.39,2.66 -15.38,6.96 -23.81,12.8l0 200.28 -88.19 0 0 -282.62 88.19 0 0 31.29c14.44,-12.29 28.54,-21.83 42.21,-28.71 13.66,-6.88 28.88,-10.32 45.47,-10.32 28.88,0 50.97,9.12 66.26,27.34 15.3,18.13 22.95,44.52 22.95,79.08l0 183.94zm210.15 7.74c-53.46,0 -94.46,-12.73 -123,-38.25 -28.45,-25.53 -42.72,-61.89 -42.72,-109.08 0,-46.16 13.33,-82.95 39.89,-110.54 26.56,-27.5 63.77,-41.26 111.48,-41.26 43.41,0 76.07,11.69 97.9,35.07 21.92,23.3 32.84,56.73 32.84,100.31l0 31.72 -193.92 0c0.86,13.15 3.61,24.07 8.34,32.92 4.73,8.85 10.92,15.82 18.74,21.06 7.56,5.16 16.42,8.94 26.47,11.17 10.15,2.32 21.15,3.44 33.1,3.44 10.31,0 20.37,-1.12 30.34,-3.44 9.97,-2.32 19.08,-5.33 27.33,-9.11 7.22,-3.26 13.93,-6.7 20.03,-10.48 6.19,-3.79 11.17,-7.05 15.04,-9.98l9.37 0 0 72.98c-7.22,2.84 -13.84,5.5 -19.77,7.91 -6.02,2.49 -14.18,4.98 -24.58,7.48 -9.63,2.49 -19.51,4.47 -29.66,5.93 -10.23,1.46 -22.6,2.15 -37.22,2.15zm29.74 -185.15c-0.51,-18.83 -4.89,-33.18 -13.06,-42.98 -8.25,-9.88 -20.8,-14.78 -37.73,-14.78 -17.37,0 -30.86,5.15 -40.58,15.55 -9.71,10.32 -15.12,24.42 -16.15,42.21l107.52 0zm217.89 185.15c-20.8,0 -40.47,-2.24 -59.04,-6.79 -18.56,-4.47 -33.86,-9.8 -45.98,-15.82l0 -74.35 7.3 0c4.21,3.18 9.03,6.7 14.36,10.57 5.41,3.78 12.89,7.82 22.43,12.03 8.25,3.79 17.54,7.14 27.85,9.89 10.31,2.75 21.48,4.13 33.6,4.13 12.46,0 23.38,-1.9 32.83,-5.76 9.54,-3.87 14.27,-10.06 14.27,-18.4 0,-6.53 -2.15,-11.52 -6.53,-14.87 -4.38,-3.35 -12.89,-6.53 -25.53,-9.54 -6.7,-1.72 -15.21,-3.52 -25.44,-5.41 -10.32,-1.98 -19.34,-4.13 -27.24,-6.71 -22.18,-6.88 -38.94,-17.02 -50.11,-30.51 -11.18,-13.5 -16.76,-31.29 -16.76,-53.21 0,-12.63 2.92,-24.5 8.68,-35.58 5.84,-11.18 14.35,-21.15 25.61,-29.83 11.26,-8.6 25.19,-15.39 41.77,-20.37 16.5,-5.07 35.24,-7.57 56.04,-7.57 19.86,0 38.08,1.98 54.75,5.93 16.68,3.96 30.69,8.69 42.12,14.27l0 71.6 -7.05 0c-3,-2.4 -7.82,-5.5 -14.35,-9.54 -6.62,-3.95 -12.98,-7.39 -19.17,-10.23 -7.48,-3.43 -15.73,-6.18 -24.93,-8.42 -9.11,-2.15 -18.48,-3.27 -28.1,-3.27 -12.72,0 -23.55,2.15 -32.41,6.54 -8.85,4.38 -13.24,10.14 -13.24,17.36 0,6.45 2.15,11.43 6.54,15.13 4.38,3.69 13.92,7.3 28.53,10.83 7.57,1.8 16.25,3.61 26.13,5.41 9.8,1.72 19.26,4.13 28.37,7.14 20.37,6.53 35.76,16.16 46.33,28.79 10.49,12.72 15.73,29.49 15.73,50.46 0,13.24 -3.1,25.87 -9.28,37.82 -6.28,12.03 -15.05,22.17 -26.48,30.34 -12.12,8.94 -26.39,15.82 -42.72,20.63 -16.42,4.9 -36.01,7.31 -58.88,7.31zm587.41 -7.74l-88.19 0 0 -29.48c-5.76,4.72 -12.29,9.8 -19.6,15.13 -7.3,5.41 -13.75,9.36 -19.34,12.12 -7.04,3.35 -14.01,5.84 -20.97,7.47 -6.88,1.64 -15.12,2.5 -24.74,2.5 -32.32,0 -57.94,-13.33 -76.85,-39.97 -18.82,-26.74 -28.28,-62.32 -28.28,-106.93 0,-24.67 3.18,-46.07 9.63,-64.12 6.36,-18.14 15.21,-33.96 26.47,-47.36 10.32,-12.21 22.78,-21.92 37.48,-29.06 14.61,-7.13 30.08,-10.66 46.49,-10.66 14.79,0 26.99,1.55 36.45,4.65 9.54,3.09 20.63,7.99 33.26,14.52l0 -120.75 88.19 0 0 391.94zm-88.19 -77.79l0 -139.5c-4.38,-2.15 -10.14,-3.96 -17.19,-5.42 -7.13,-1.46 -13.24,-2.15 -18.22,-2.15 -21.32,0 -37.31,7.39 -48.04,22.26 -10.74,14.87 -16.07,35.59 -16.07,62.24 0,28.02 4.29,48.3 12.8,60.77 8.51,12.46 22.34,18.73 41.42,18.73 7.74,0 15.56,-1.54 23.56,-4.55 7.9,-3.01 15.12,-7.14 21.74,-12.38zm300.5 85.53c-53.46,0 -94.46,-12.73 -123,-38.25 -28.45,-25.53 -42.72,-61.89 -42.72,-109.08 0,-46.16 13.33,-82.95 39.89,-110.54 26.56,-27.5 63.77,-41.26 111.48,-41.26 43.41,0 76.07,11.69 97.9,35.07 21.91,23.3 32.83,56.73 32.83,100.31l0 31.72 -193.91 0c0.86,13.15 3.61,24.07 8.34,32.92 4.73,8.85 10.92,15.82 18.74,21.06 7.56,5.16 16.42,8.94 26.47,11.17 10.15,2.32 21.15,3.44 33.1,3.44 10.31,0 20.37,-1.12 30.34,-3.44 9.97,-2.32 19.08,-5.33 27.33,-9.11 7.22,-3.26 13.93,-6.7 20.02,-10.48 6.19,-3.79 11.17,-7.05 15.04,-9.98l9.37 0 0 72.98c-7.22,2.84 -13.84,5.5 -19.77,7.91 -6.02,2.49 -14.17,4.98 -24.57,7.48 -9.63,2.49 -19.51,4.47 -29.66,5.93 -10.23,1.46 -22.6,2.15 -37.22,2.15zm29.74 -185.15c-0.51,-18.83 -4.89,-33.18 -13.06,-42.98 -8.25,-9.88 -20.8,-14.78 -37.73,-14.78 -17.37,0 -30.86,5.15 -40.58,15.55 -9.71,10.32 -15.12,24.42 -16.15,42.21l107.52 0zm370.72 177.41l-88.19 0 0 -391.94 88.19 0 0 391.94zm223.21 -73.84l0 -59.22c-14.78,1.55 -26.82,2.84 -35.93,3.96 -9.19,1.03 -18.13,3.18 -26.99,6.44 -7.65,2.67 -13.58,6.79 -17.86,12.21 -4.22,5.5 -6.37,12.81 -6.37,21.92 0,13.32 3.53,22.43 10.57,27.42 7.13,4.98 17.53,7.47 31.37,7.47 7.65,0 15.47,-1.8 23.47,-5.33 7.99,-3.52 15.21,-8.5 21.74,-14.87zm0 43.84c-6.01,5.07 -11.43,9.63 -16.16,13.67 -4.81,3.95 -11.17,7.99 -19.25,12.03 -7.82,3.87 -15.47,6.88 -22.95,8.94 -7.39,2.06 -17.79,3.1 -31.19,3.1 -24.93,0 -45.64,-8.43 -62.06,-25.27 -16.51,-16.85 -24.76,-38 -24.76,-63.61 0,-21.06 4.22,-38.08 12.55,-50.97 8.34,-12.98 20.37,-23.3 36.1,-30.86 15.91,-7.74 34.9,-13.15 56.98,-16.16 22.09,-3.01 45.82,-5.33 71.26,-7.05l0 -1.55c0,-15.55 -5.76,-26.38 -17.19,-32.31 -11.43,-5.94 -28.63,-8.94 -51.49,-8.94 -10.4,0 -22.51,1.89 -36.35,5.67 -13.84,3.78 -27.42,8.59 -40.66,14.44l-7.47 0 0 -68.42c8.76,-2.49 22.77,-5.5 42.29,-8.94 19.42,-3.44 39.1,-5.16 58.87,-5.16 48.65,0 84.06,8.08 106.32,24.33 22.26,16.24 33.35,41 33.35,74.35l0 192.71 -88.19 0 0 -30zm471.03 37.22c-56.22,0 -100.82,-17.02 -133.82,-51.06 -33.1,-34.04 -49.6,-81.83 -49.6,-143.54 0,-59.48 16.59,-106.84 49.68,-142.25 33.18,-35.32 77.78,-53.03 133.99,-53.03 14.88,0 28.37,0.86 40.23,2.49 11.95,1.72 23.3,4.04 34.21,7.05 8.6,2.58 17.88,6.02 27.94,10.4 10.05,4.3 18.22,8.08 24.41,11.26l0 89.47 -9.54 0c-4.56,-4.04 -10.23,-8.77 -17.11,-14.36 -6.96,-5.58 -14.7,-11.08 -23.46,-16.41 -8.68,-5.33 -18.31,-9.89 -28.8,-13.67 -10.48,-3.7 -21.49,-5.59 -32.92,-5.59 -13.58,0 -26.04,2.15 -37.39,6.45 -11.26,4.21 -22.09,11.69 -32.32,22.18 -9.37,9.54 -17.1,22.52 -23.03,38.76 -5.94,16.25 -8.94,35.42 -8.94,57.51 0,23.29 3.09,42.89 9.28,58.7 6.27,15.82 14.35,28.63 24.5,38.34 9.71,9.37 20.54,16.16 32.57,20.37 11.95,4.21 23.99,6.28 35.85,6.28 12.46,0 24.24,-2.07 35.5,-6.11 11.26,-4.04 20.8,-8.59 28.45,-13.58 8.42,-5.07 15.81,-10.31 22.17,-15.64 6.36,-5.33 11.95,-10.06 16.59,-14.18l8.6 0 0 88.01c-6.88,3.18 -14.87,6.79 -23.9,10.92 -9.02,4.13 -18.39,7.56 -27.93,10.4 -11.78,3.52 -22.69,6.19 -32.92,8.08 -10.23,1.8 -24.33,2.75 -42.29,2.75zm367.62 -206.29l-7.3 0c-3.35,-1.21 -8.25,-2.15 -14.7,-2.75 -6.36,-0.6 -13.49,-0.86 -21.23,-0.86 -9.28,0 -18.99,1.37 -29.14,4.04 -10.23,2.66 -20.11,5.84 -29.74,9.54l0 189.1 -88.19 0 0 -282.62 88.19 0 0 40.48c4.04,-3.69 9.63,-8.33 16.85,-13.92 7.13,-5.67 13.67,-10.14 19.51,-13.49 6.45,-3.87 13.93,-7.14 22.44,-9.98 8.51,-2.75 16.5,-4.12 24.15,-4.12 2.84,0 6.02,0.08 9.54,0.26 3.52,0.17 6.79,0.43 9.62,0.77l0 83.55zm296.36 199.07l-88.19 0 0 -31.29c-15.3,12.81 -29.31,22.44 -42.11,29.06 -12.72,6.61 -27.94,9.97 -45.56,9.97 -28.11,0 -49.94,-8.86 -65.67,-26.56 -15.73,-17.71 -23.55,-44.36 -23.55,-79.86l0 -183.94 88.19 0 0 140.11c0,14.61 0.34,26.56 1.12,35.75 0.77,9.2 2.58,17.02 5.5,23.38 2.66,5.85 6.87,10.32 12.55,13.33 5.58,3.01 13.49,4.55 23.63,4.55 6.28,0 13.67,-1.54 22.18,-4.55 8.6,-3.01 16.5,-7.14 23.72,-12.29l0 -200.28 88.19 0 0 282.62zm293.01 0l-247.54 0 0 -58.28 136.14 -158.84 -129.95 0 0 -65.5 238.77 0 0 56.56 -135.8 158.5 138.38 0 0 67.56z"/>
 </g>
</svg>
