<?xml version="1.0" encoding="UTF-8"?>
<!DOCTYPE svg PUBLIC "-//W3C//DTD SVG 1.1//EN" "http://www.w3.org/Graphics/SVG/1.1/DTD/svg11.dtd">
<!-- Creator: CorelDRAW Standard 2021 (64-Bit Versión de evaluación) -->
<svg xmlns="http://www.w3.org/2000/svg" xml:space="preserve" width="39.844mm" height="40.6398mm" version="1.1" style="shape-rendering:geometricPrecision; text-rendering:geometricPrecision; image-rendering:optimizeQuality; fill-rule:evenodd; clip-rule:evenodd"
viewBox="0 0 3984.4 4063.98"
 xmlns:xlink="http://www.w3.org/1999/xlink"
 xmlns:xodm="http://www.corel.com/coreldraw/odm/2003">
 <defs>
  <style type="text/css">
   <![CDATA[
    .fil2 {fill:black}
    .fil11 {fill:#012AAA}
    .fil3 {fill:#0185B5}
    .fil1 {fill:#092555}
    .fil12 {fill:#CBF4EC}
    .fil9 {fill:#E6AC55}
    .fil10 {fill:#E6DA62}
    .fil8 {fill:#F64EC8}
    .fil7 {fill:#F66160}
    .fil6 {fill:#F9CB36}
    .fil0 {fill:#FAFAFA}
    .fil4 {fill:#FBC3ED}
    .fil5 {fill:#FC2322}
   ]]>
  </style>
 </defs>
 <g id="Capa_x0020_1">
  <metadata id="CorelCorpID_0Corel-Layer"/>
  <g id="_2585760277280">
   <path class="fil0" d="M3312.57 4063.29l665.93 0 0 -1946.93c-33.91,-0.74 -55.68,-7.96 -89.82,-7.82 -73.37,0.32 -1.56,-10.53 -90.34,5.08l-156.74 47.93c-81.12,39.05 -56.77,10.37 -136.5,64.5 -24.03,16.32 -94.45,68.68 -114.47,90.94 -33.79,37.55 -18.79,4.73 -70.86,78.88 -4.83,6.88 -18.14,24.65 -21.06,29.82 -2.08,3.7 -15.77,31.25 -17.35,34.82l-39.4 113.77c-10.69,40.01 -29.11,82.2 -40.12,114.01 -21.96,63.4 -59.97,141.33 -67.24,193.18 8.58,5.02 17.04,16.53 24.95,25.68 14.73,17.05 7.56,12.79 26.5,24.97 13.46,8.65 17.49,14.84 29.92,21.46 52.47,27.93 127.27,77.68 197.09,51.08 -20.21,29.96 -48.15,34.57 -95.53,26.45 -41.42,-7.1 -151.32,-63.6 -171.64,-84.62 -32.4,-33.51 -36.13,-59.06 -104.03,-92.53 -12.3,-6.06 -27.92,-13.01 -41.97,-22.4 -26.84,-17.95 -47.73,-36.32 -76.62,-55.74 -5.55,-3.73 -11.35,-7.5 -17.6,-12.06 -11.45,-8.35 -7.89,-7.5 -18.77,-15.69 -28.72,-21.61 -66.09,-43.64 -93.65,-68.6l-264.07 -158.94c-16.45,-8.12 -26.22,-13.04 -42.44,-22.06 -66.52,-37.02 -85.71,-68.57 -111.15,-85.21l-92.34 -70.48c-35.87,-25.15 -106.67,-85.34 -134.39,-95.31 -32.6,36.77 -3.22,90.43 -4.81,144.07 -0.44,14.91 -12.17,57.12 -18.57,70.96 -14.19,30.65 -19.13,29.61 -45.67,43.88 -1.8,40.23 5.85,39.94 -5.5,85.13 -9.75,38.85 -11.19,112.51 -38.73,157.42 -11.88,19.37 -23.05,46.54 -32.99,70.38 14.07,27.09 21.97,32.31 46.45,48.38 41.43,27.18 94.26,62.48 145.54,77.32 19.71,5.7 36.87,0.81 59.83,7.1 75.25,20.62 228.37,101.15 282.11,159.06 10.54,11.36 10.21,17.74 16.16,26.63 13.59,20.31 1.91,5.81 24.35,14.66 11.77,4.65 17.88,7.44 30.33,11.81l249.92 147.91 123.37 120.24c4.84,5.48 12.14,13.61 18.2,20.16l66.78 91.44c3.29,6.67 3.16,8.86 6.11,15.36 1.11,2.43 6.04,11.09 7.76,13.59 44.19,64.1 100.37,218.85 131.97,270.36 20.05,32.67 33.19,72.21 51.05,106.86l50.05 113.1z"/>
   <path class="fil1" d="M267.79 3666.08l48.26 -165.92c5.52,-15.7 14.12,-34.24 22.03,-50.56 9.56,-19.7 13.03,-31.96 24.26,-48.49 9.55,-14.08 21.8,-30.63 29.99,-42.84 9.72,-14.5 16.51,-29.49 30.8,-41.91 17.97,-15.61 37.68,-11.04 63.21,-10.27 -9.46,24.89 -29.22,35.14 -57.53,84.63 -10.69,18.72 -16.28,31.58 -26.93,45.72 -9.35,12.43 -6.36,9.68 -13.01,20.94l-77.16 140.73c-5.68,11.09 -9.01,12.02 -15.43,23.74 -12.46,22.78 -4.48,30.36 -28.49,44.23zm-186.91 -400.72c31.81,31.7 39.65,23.16 71.62,6.27 23.74,38.4 32.97,23.48 51.46,59.87 5.49,10.81 14.36,31.34 13.4,43.87 -1.79,23.31 -14.24,11.8 -30.68,4.37 -24.82,-11.2 -63.48,-30.16 -82.28,-46.08l-13.25 -12.28c-18.15,-17.32 -19.48,-18.97 -10.27,-56.02zm-45.18 -177.63c17.72,14.08 61.36,24.78 85.44,27.35 11.21,31.3 25.5,105.91 0.81,135.86 -25.27,-6.31 -36.85,-54.39 -50.17,-73.14 -18.58,-26.16 -40.59,-50.52 -36.08,-90.07zm715.09 -190.18c42.48,-3.44 96.62,10.75 131.54,6.22 92.9,-12.05 156.04,7.09 330.31,-23.32 17.04,-2.98 40.67,-10.41 59.88,-14.56l16.88 17.86c51.93,50.16 14.61,21.48 63.93,38.16 -16.1,11.97 -48.29,15.44 -71.85,18.16 -29.12,3.36 -47.44,10.4 -75.92,16.86 -49.36,11.2 -164.36,40.95 -198.87,75.33 -10.88,10.84 -13.46,19.43 -22.14,24.67 -18.39,11.12 -103.19,30.57 -108.11,32.56 -24.29,9.82 -42.15,18.26 -69.22,25.19 3.47,-27.94 15.16,-34.5 14.27,-59.15 -2.74,-75.73 -8.92,-110.51 -70.7,-157.98zm-691.74 -69.69c8.65,-6.02 7.7,-3.29 17.28,-8.32 5.4,-2.84 12.37,-7.42 18.46,-11.05 30.2,-18.01 77.78,-33.96 122.6,-56.98 23.35,-11.99 68.07,-6.13 99.34,-8.26 71.1,-4.85 73.87,34.27 144,88.63 78.07,60.51 38.61,24.87 108.06,92.54l17.87 16.41c11.46,11.04 51.36,54.02 68.35,39.24 21.81,-20.05 -13.27,-40.09 -26.13,-51.45 -17.63,-15.59 -34.1,-20.54 -45.99,-44.92 32.82,3.83 32.95,2.34 56.18,13.32 27.02,12.77 104.66,18.14 131.81,77.61 11.06,24.22 25.85,81.43 7.87,111.86 -18.68,31.63 -34.17,56.6 -66.1,72.78l3.88 -35.43c1.01,-40.63 -4.47,-28.9 -12.57,-32.76 -31.53,25.02 -7.17,81.83 -91.76,123.86 -8.16,4.05 -19.02,10.15 -26.52,15.88 -10.97,8.38 -36.03,29.17 -49.94,31.07 -87.62,12.01 -229.59,5.01 -310.56,32.86l-6.97 -6.64c-6.47,-5.84 -0.84,-1.17 -6.99,-6.09 -22.07,-17.65 -23.75,-17.17 -48.47,-25.39 -0.91,-0.31 -2.48,-0.68 -3.6,-1.29 5.54,-33.86 22.32,-82.04 7.26,-124.62 -7.21,-20.39 -14.32,-10.08 -16.76,-33.55 37.79,-15.36 57.93,-46.61 69.62,-86.48 4.85,-16.53 34.87,-116.72 1.63,-115.84 -38.07,1 -9.44,111.49 -75.11,161.37l-4.65 3.77c-30.76,26.44 -65.48,29.62 -58.77,-6.78l15.42 -71.43c13.1,-70.16 0.4,-69.03 4.32,-100.56 46.44,-2.29 77.76,-6.71 105.97,-28.84 7.22,9.79 -0.48,20.47 36.4,23.79 35.91,3.23 132.53,-11.33 123.7,-54.45 -52.86,-1.69 -58.91,31.1 -140.37,16.03 13.66,-35.14 35.14,-27.79 17.82,-55.16 -28.91,-0.69 -46.73,39.36 -77.12,52.28 -33.56,14.25 -87.09,18.09 -109.46,-7.01zm1755.74 -247.52c-8.5,37.23 -25.78,81.8 38.52,59.21 27.36,-9.61 47.25,-34.48 65.79,-58.67 9.49,-12.39 16.55,-26.16 24.43,-39.34 9.6,-16.04 11.45,-24.03 18.92,-40.71 8.37,-18.73 32.16,-64.08 49.61,-72.98 5.48,17.44 2.95,32.96 6.96,46.24 6.56,21.68 20.5,27.29 26.35,38.34 11.5,21.71 -20.2,179.35 -34.5,211.95l-14.24 28.15c-0.66,1.06 -2.79,3.85 -3.46,4.9 -4.83,7.67 -0.86,0.14 -4.65,7.95 -11.57,23.82 -7.03,29.65 -24.06,37.37 3.55,-23.38 -2.67,-51.14 1.49,-80.17 2.63,-18.36 8.48,-51.25 -0.91,-65.79 -41.31,11.17 -38.6,107.79 -37.14,137.58 -74.25,-8.56 -146.92,-10.63 -227.57,-2.58 -19.11,1.91 -32.72,6.72 -50.4,7.64 -41.46,2.16 -63.96,8.6 -102,26.08 -31.66,14.55 -18.9,14.24 -36.14,22.64 -26.52,-33.18 -11.47,-66.18 -31.45,-91.42 -53.64,0.18 -2.43,108.14 7.49,110.99l-20.86 13.21c-52.97,26.96 -42.21,28.05 -82.05,14.58 -16.05,-5.43 -41.1,-10.84 -52.5,-20.61 -47.19,-40.42 -52.6,-69.79 -71.07,-112.6 -22.53,-52.19 -12.26,-35.89 -21.64,-86.65l-14.89 -56.85c5.29,4.64 29.37,40.64 67.32,32.55 23.47,-5.01 42.42,-31.94 52,-47.87l41.58 72.25c6.98,15.92 15.08,23.97 22.1,37.95 10.39,20.66 2.82,19.5 27.14,28.39 75.12,-34.64 62.75,-90.42 100.9,-118.32 -1.66,46.77 -13.01,98.76 -12.81,107.25 28.48,9.35 27.6,4.62 51.92,-15.25 31.65,-25.85 50.52,-59.05 66.39,-96.34 7.87,-18.51 7.38,-48.15 17.85,-58.37 -0.74,109.04 -16.48,161.05 43.61,132.87 26.46,-12.41 61.83,-52.71 79.23,-74.73 7.22,-9.15 28.13,-31.78 32.74,-38.84zm645.95 -145.77c18.93,-51.36 66.15,-118.98 102.34,-162.74 5.59,-6.75 6.39,-8.76 11.03,-14.57 3.69,-4.62 8.85,-9.79 12.36,-13.49 31.51,-33.09 79.7,-74.19 124.18,-84.06 94.33,-20.94 254.73,22.34 308.58,101.08l42.21 69.3c0.47,0.91 1.09,1.96 1.54,2.89 0.45,0.93 0.99,2.02 1.41,2.97l9.83 27.89c5.49,16.35 8.64,24.37 13.85,37.57 10.75,27.27 32.09,147.11 33.48,174.02 2,38.84 4.77,61.77 9.19,95.8 10.81,83.39 -1.78,90.82 -15.71,135.77 -4.34,13.99 -7.37,26.02 -12.88,38.79 -29.24,-12.7 -101.65,-56.7 -125.65,-75.88l-74.39 -58.36c-70.23,-60.89 -164.08,-98.89 -240.5,-152.57l-144.2 -86.72c-23.32,-13.86 -39.36,-16.59 -56.67,-37.69zm-1166.9 178.8c-38.93,6.12 -38.13,-14.61 -58.05,-35.46 -37.41,-39.16 -67.57,-46.51 -97.51,-86.1 -22.33,-29.52 -14.38,-29.53 -27.46,-61.83 11.51,8.96 1.51,5.9 26.26,24.62 9.82,7.43 16.62,12.82 26.53,20.5 8.68,6.72 16.61,12.74 29.58,21.88 13.52,9.53 15.9,9.61 29.02,18.08 31.37,20.25 24.31,9.77 65.17,33.28 28.83,16.59 21.98,42.22 6.46,65.03zm759.05 -138.06c-5.78,-34.1 -4.09,-45.6 -5.57,-79.5 -2,-45.68 -6.6,-19.25 15.4,-60.11 20.28,-37.67 26.13,-78.94 51.94,-113.25 10.8,20.57 -8.43,46.33 -10.72,68.24 -5.24,49.97 29.29,132.19 -20.26,177.52 -11.01,10.07 -15.29,8.61 -30.79,7.1zm343.17 -92.04c0.41,-16.72 26.21,-69.11 33.88,-82.01 29.08,-48.9 32.31,-46.35 56.61,-84.47 3.01,-4.73 7.18,-9.42 11.26,-14.54 6.58,-8.26 7.22,-9.97 13.69,-16.48 5.18,-5.22 7.01,-6.44 12.9,-12.57 35.06,-36.54 50.4,-40.92 78.96,-62.36 40.6,-30.47 81.14,-46.64 137.76,-54.94 79.42,-11.65 156.54,0.7 223.25,42.08 39.37,24.41 58.22,38.96 91.25,75.32 70.89,78.04 80.04,126.66 115.86,217.88 18.93,48.21 28.68,144.46 24.33,197.53 -1.08,13.12 -20.13,72.19 -25.33,84.9l-19.94 -172.08c-12.51,-52.63 -20.22,-109.94 -41.95,-158.98 -46.45,-104.82 -87.11,-161.36 -199.43,-202.12 -126,-45.71 -218.55,-32.84 -309.9,39.21l-40.15 36.86c-29.78,33.74 -73.98,92.7 -95.54,130.97 -15.3,27.16 -21.8,46.65 -37.29,60.46l-30.22 -24.66zm-413.47 -706.33c24.04,14.74 24.3,25.59 37.99,44.69 25.21,28.45 101.38,192.09 107.63,219.73 10.45,46.24 -8.31,144.71 -20.74,192.08 -3.9,14.87 -7.81,25.41 -14.14,40.57 -5.26,12.58 -6.97,25.68 -13.67,37.79 -16.32,29.54 -26.51,38.98 -37.52,73.35 -6.23,19.48 -18.73,60.6 -36.17,69.52 -6.43,16.73 -28.62,59.23 -40.38,67.97 -29.16,50.49 -31.48,65.25 -48.82,96.55 -10.13,18.3 -41.86,73.63 -65.54,72.58l-4.25 -75.97c-10.32,-6.23 -19.07,-12.75 -27.28,-16.14 -19.97,9.64 -15.81,22.72 -26.91,40.85 -12.16,19.85 -70.94,100.3 -94.94,109.45 -15.9,-55.87 13.5,-84.24 -27.79,-146.03l-38.46 2.12c-12.65,26.83 -26.11,147.57 -60.37,156.21 -0.58,-20.78 2.44,-39.22 -0.06,-60.42 -1.83,-15.55 -5.94,-33.42 -6.7,-51.85 -18.12,-12.26 -14.81,-14.34 -44.24,-12.18 -7.91,14.99 -14.9,51.89 -31.08,83.42l-19.05 41.48c-5.95,11.66 -14.82,22.75 -22.81,30.28 -23.41,-12.95 -47.92,-69.42 -64.79,-99.27 -41.49,-73.41 -73.15,-70.42 -116.65,-92.41l-73.33 -50.72c-84.75,-68.61 -102.09,-88.64 -146.8,-187.1 -35.42,-77.97 -60.45,-184.67 -32.78,-272.84 8.46,-26.96 30.46,-101.86 49.08,-117.68 14.17,-31.8 26.8,-40.1 51.62,-67.58 15.48,-17.13 32.65,-44.14 58.81,-57.88 7.19,-12.62 11.03,-11.29 24.44,-21.5 26.22,-19.95 45.12,-34.02 77.88,-42.04 24.09,-5.91 44.64,-7.41 65.57,-14.85 77.15,-27.41 92.37,-43.71 111.95,-50.64 88.24,-31.18 48.95,-33.12 94.87,-67.86 14.27,-10.8 33.53,-23.52 40.09,-37.97 0.27,68.51 -22.2,43.8 -9.31,81.69 22.68,0.08 23.34,-9.15 37.97,-13.83 20.47,-6.53 22.09,0.67 40.9,-10 18.2,-10.32 56.61,-20.55 80.16,-19.21 -4.89,12.24 -7.55,4.88 -17.42,18.2 -8.05,10.87 -7.14,8.82 -4.1,24.3 30.93,13.06 133.55,-6.53 177.09,-6.19l-20.55 14.29c-47.65,27.49 -52.51,6.48 -56.36,33.41 20.05,10.13 28.35,2 50.79,3.75 17.4,1.36 21.88,6.05 47.53,6.06 25.72,0 58.95,15.32 68.64,31.82zm-1182.41 -189.59c26.67,6.47 41.07,18.3 64.76,29.73 15,7.24 113.7,46.48 133.13,44.49 0.72,-0.07 2.63,0.16 3.14,-1.03 0.53,-1.22 2.2,-0.65 3.13,-1.28 0.21,-0.31 10.94,4.77 2.91,-16.6 -2.31,-6.16 -5.11,-6.2 -9.16,-8.56 -32.35,-18.85 -76.23,-28.9 -110.06,-44.33l-113.91 -44.38c-20.25,-8.89 -22.74,-26.17 -35.88,-49.59 -30.16,-53.76 -30.25,-52.49 -8.25,-84.9 59.53,1.26 90.35,44.29 131.21,77.33l148.37 112.49c59.91,40.12 49.42,42.11 82.5,71.21 52.78,46.42 50.28,78 74.35,131.64 -25.63,22.01 -50.97,41.97 -73.45,68.48 -51.78,61.03 -54.34,62.8 -92.57,142.47 -36.53,76.11 -38.38,153.37 -28.36,237.66l16.21 70.77c-24.86,1.51 -84.71,-27.22 -115.21,-34.74 -17.78,-4.39 -45.36,-9.66 -60.96,-15.63l-107.79 -54.6c-1.06,-0.74 -3.74,-3.15 -4.71,-3.94 -1.31,-1.07 -7.03,-6.06 -9.29,-7.72 -35.33,-25.95 -76.66,-43.36 -115.75,-67.81 -7.68,-4.81 -16.79,-8.67 -25,-13.29 -16.57,-9.33 -6.36,-7.37 -22.35,-16.84 -17.74,-10.53 -31.49,-16.98 -48.73,-27.77l-88.05 -61.83c-10.45,-8.8 -8.62,-9.53 -19.55,-18.92 -47.44,-40.75 -117.1,-76.87 -111.85,-150.64l167.82 99.16c5.53,3.03 18.46,8.86 22.69,11.35l19.85 14.73c40.48,24.11 81.83,61.35 131.2,58.73 0.9,-31.13 -25.84,-29.83 -48.07,-43.52 -18.81,-11.58 -30.38,-23.5 -53.91,-36.59 -25.16,-14 -26.89,-20.55 -58.41,-35.3 -27.21,-12.75 -71.85,-48.3 -116.16,-67.88 -32.94,-14.57 -31.3,-13.56 -53.64,-36.11 -32.47,-32.78 -50.38,-29.25 -63.09,-78.95 -4.2,-16.44 -6.4,-21.12 -5.66,-40.88 20.38,3.93 21.55,8.91 38.24,17.92 44.65,24.07 101.48,30.33 147.99,48.96 29.9,11.98 74.04,37.56 101.46,25.63 1.18,-20.28 -16.27,-23.88 -34.54,-29.02l-88.86 -30.55c-16.25,-8.99 -25.11,-9.19 -45.02,-15.18 -54.51,-16.42 -91.36,-44.84 -138.01,-70.24 -22.65,-12.33 -23.58,-33.02 -9.9,-53.03l23.96 -18.13c0.72,-0.59 8.53,-8.41 8.59,-8.46 22.06,-18.99 52.04,3.33 76.2,14.02 49.91,22.09 119.65,35.11 166.61,56.15 57.84,25.93 75.54,47.22 103.14,30.71 -3.47,-26.11 -34.53,-36.53 -54.11,-45.72 -64.93,-30.49 -140.93,-50.76 -207.49,-74.49 -27.98,-9.98 -50.2,-15.08 -43.68,-49.58 4.2,-22.2 20.8,-42.18 44.24,-47.62 58.73,-13.64 100.07,10.49 155.09,22.7 21.19,4.7 20.42,2.72 39.93,10.55l91.18 28.99c19.06,6.07 0.4,-0.45 14.14,7.02 42.95,23.36 99.51,28.16 139.11,49.47 18.52,9.97 46.54,17.53 70.28,23.29zm1863.58 -463.48c12.23,-4.84 5.37,0.02 13.83,-7.47 -10.71,32.39 -8.18,37.35 3.38,69.64l-19.12 -4.15c-1,-2.14 -9.56,-4.65 -3.35,-31.01 3.01,-12.76 4.02,-11.33 5.26,-27.01zm129.34 57.21c8.11,-40.65 9.84,-29.61 -1.18,-71.38 34.52,16.55 63.41,33.73 77.39,73.06l-76.21 -1.68zm-125.56 -162.66c29.42,-16.02 48.22,-27.67 73.51,-3.63l48.27 58.26c-22.59,-0.13 -44.18,-4.33 -67.75,-2.15 -20.57,1.91 -38.27,8.09 -57.03,11.65 -0.38,-12.19 1.28,-55.32 3,-64.13zm-0.07 -39.75c-10.92,-79.28 12.93,-250.15 54.22,-310.52 11.91,12.43 14.19,27.69 25.22,41.25l69.17 59.37c8.57,4.86 15.09,5.98 23.47,10.54 83.55,45.47 48.27,23.18 120.33,42.24 42.5,11.25 69.77,11.28 114.01,14.22 92.4,6.15 260.36,-18.58 344.01,-41.21 38.63,-10.44 66.08,-17.82 105.37,-25.86 -7.41,30.81 -5.79,0.76 -7.51,30.46 -0.58,9.93 -4.16,23.03 -6.72,36.3l-51.75 455.28c-1.3,18.2 -18.5,100.25 -20.39,140.68 -0.98,21.2 -20.36,117.76 -29.17,139.47 -8.79,21.66 -9.38,46.16 -17.99,62.59 -17.13,32.69 -49.84,104.75 -82.91,126.9 -10.9,7.3 -14.54,9.28 -24.48,18.19 -22.02,19.71 -107.99,57.94 -141.16,68.26 -17.03,5.3 -13.48,7.01 -29.91,13.21 -100.62,38 -196.01,6.37 -273.04,-57.64l-22.03 -20.69c-24.4,-30.3 -71.85,-132.38 -84.32,-168.08 -15.21,-43.56 -27.03,-82.16 -41.49,-125.07l-20.41 -64.87c-23.12,-61.24 -38.87,-207.32 -3.28,-212.66l223.48 9.33c1.7,19.95 -7.5,44.79 -11.22,69.49 -3.98,26.37 -7.18,50.95 -1.47,76.48 26.31,7.14 68.3,12.57 98.51,17.21 36.89,5.65 64.44,8.95 87.04,-16 -6.86,-47.14 -43.15,8.36 -157.26,-34.66l31.22 -168.48c8.62,-44.58 22.83,-132.27 20.86,-181.6 -0.94,-0.64 -2.19,-1.45 -2.88,-1.82l-19.56 -8.23c-4.96,6.09 -1.27,-3.2 -7.05,12.35 -2.14,5.73 -1.46,5.04 -2.61,10.81 -1.17,5.86 -2.64,15.62 -3.71,21.92 -2.17,12.9 -13.38,159.11 -20.36,142.49 -0.28,-0.66 -1.03,2.3 -1.73,3.34 -12.41,-29.85 -41.11,-60.99 -71.03,-71.1 3.06,-29.96 -3.6,-31.92 -20.03,-51.79 -12.05,-14.59 -18.84,-27.85 -34.45,-42.48 -72.36,-67.8 -58.37,-17.44 -106.99,-19.62zm883.02 1118.95c14.4,9.93 -1.71,-7 10.91,5.24 13.18,12.78 -3.83,23.2 -9.79,30.53 -0.57,0.7 -1.27,1.76 -1.83,2.46 -24.75,31.14 -101.12,106.18 -135.65,111.64 -13.1,8.03 -16.09,13.56 -28.65,22.98l-74.85 53.64c-6.65,5.46 -5.6,5.69 -11.14,10.32l-58.12 44.36c-12.68,11.46 -8.99,13.31 -25.05,26.26 -9.64,7.77 -16.35,14.4 -24.39,20.68 -26.41,-44.48 -31.74,-72.02 -65.23,-120.73 -36.88,-53.65 -84.13,-103.54 -140.1,-137.84 -79.65,-48.79 -130.97,-48.09 -222.56,-55.01 -1.3,-35.43 8.18,-49.35 13.69,-75.76 1.23,-5.96 -2.61,-80.15 9.7,-153.15 3.41,-20.28 0.67,-49.05 3.14,-74.37 15.43,7.64 23.98,23 34.09,32.79 11.35,10.98 22.39,14.43 38.89,25.32 45.23,29.87 149.7,57.68 212.32,42.72 28.87,-6.91 70.76,-20.01 94.45,-33.75 33.32,-19.33 116.09,-40.33 166.25,-94.55 12.2,-13.2 20.55,-21.96 31.87,-36.24 16.67,-20.99 38.81,-54.96 48.86,-78.92 6.11,-14.54 10.57,-28.63 17.79,-46.77l26.88 -104.95c5.24,-38.55 10.81,-75.48 17.3,-111.77 7.13,-39.81 8.47,-76.67 14.65,-118.37l29.57 -289.65c0.89,-15.31 7.83,-23.35 9.15,-50.39 1.1,-22.31 1.4,-39.33 5.03,-56.02 4.42,-20.34 6.93,-28.87 10.62,-54.15 17.81,-122.21 42.12,-126.29 -85.65,-89.11 -102.69,29.89 -202.85,43.1 -311.61,52.18 -82.76,6.91 -231.98,-3.91 -305.78,-57.69 -8.02,-5.85 0.66,0 -10.1,-7.01 -17.97,-11.72 -43.21,-29.49 -53.42,-47.96 9.24,5.69 30.53,16.7 39.38,23.5 17.62,13.54 20.6,12.82 41.25,23.15 26.94,13.47 53.99,25.38 90.78,34.76 174.93,44.62 473.15,-16.91 639.7,-81.07 1.33,31.04 -7.23,63.27 -9.93,96.12l-7.74 71.94c-3.19,18.12 -0.65,8.53 -0.45,19.98 0.42,23.25 -8.02,58.12 -3.73,85.54 4.75,30.42 10.05,64.12 10.99,95.75 3.12,103.83 -24.07,293.25 -56.31,390.04 -14.3,42.94 -38.04,281.44 -40.84,326.44l-0.98 82.05c-9.91,213.46 47.9,192.51 66.64,244.84zm-2714.25 -676.62c-8.21,-5.34 -17.26,-12.34 -26.19,-18.42 -8.62,-5.87 -19.59,-10.67 -28.11,-14.5 -21.89,-9.82 -46.71,-14.47 -68.27,-8.15 -11.87,5.92 -36.88,42.36 -37.03,43.18 3.92,40.59 35.06,69.99 40.77,98.19 -81.12,-18.66 -79.52,-29.48 -112.11,-38.41 -14.03,-3.85 -20.47,-6.79 -35.97,-11.34l-230.15 -64.63c-30.2,-3.91 -68.97,-3.95 -85.33,10.63l-40.84 49.6c-12.64,22.98 7.98,45.18 10.55,70.8 -30.84,8.86 -64.46,16.25 -78.68,49.6 -6.41,15.02 -1.84,46.76 0.48,53.89 5.49,16.88 20.39,22.99 29.04,29.61 -4.61,43.8 -2.39,86 23.95,120.74 4.44,5.86 18.5,17.72 23.29,24.13 16.24,21.74 -20.99,89.69 45.14,138.43 17.4,12.82 15.26,23.67 49.2,49.15l103.38 85.1 180.22 105.76c3.43,1.64 14.91,7.69 17.07,8.94 26.13,15.1 14.64,14.16 60.75,37.33l107.74 59.1c36.2,18.31 31.23,13.95 70.48,23.96 51.13,13.05 94.97,33.18 149.34,37.43l42.27 90.69c37.32,59.52 38.76,33.48 34.94,62.4 -6.87,52.06 2.82,71.88 44.48,114.82 21.13,21.77 44.47,40.98 71.48,56.33 0.83,14.92 -1.94,21.52 0.54,37.12l51.46 206.17c-77.38,52.38 -474.37,38.29 -563.33,34.21l-140.43 -11.43c-27.66,-6.26 -100.44,-92.94 -160.91,-120.46 -0.91,-0.41 -2.05,-0.9 -2.92,-1.34 -71.05,-36.12 -70.38,-15.29 -149.51,-19.52 -9.18,11.32 -2.52,5.62 -16.96,9.08 -33.44,7.99 -10.34,4.28 -36.65,15.81 -5.58,2.44 -13.24,5.37 -18.23,7.59 -20.72,9.19 -124.93,51.24 -134.61,71.38 -19.22,40.03 26.93,52.2 39.73,57.2 3.89,18.38 2.27,74.23 0.11,88.29l-14.55 71.72 -20.73 4.26c-8.93,8.71 -4.46,12.04 -16.62,19.01 -9.03,25.89 -28.05,23.64 -17.23,56.97l25.8 55.06c34.4,62.83 35.8,42.39 21.96,124.13 -7.02,41.41 37.75,73.59 69.71,92.18 22.85,13.29 87.03,52.49 118.96,35.45 12.21,-7.58 23.69,-39.83 15.7,-62.89l-14.3 -42.91c24.67,5.01 -9.7,7.97 28.24,8.13l116.02 -10.59c-8.99,18.85 -12.23,23.45 -22.71,38.29 -9.11,12.91 -18.03,23.83 -26.07,38.14l-40.76 83.84c-8.99,21.13 -6.53,28.81 -12.19,47.87 -2.12,7.15 -5.19,9.27 -8.52,20.56 -3.42,11.58 -1.76,14.42 -6.39,27.38 -12.31,34.44 -25.78,53.63 -29.99,99.41 -3.82,41.61 -11.57,62.15 -24.75,98.15 -10.53,28.77 -2.35,44.89 -18.49,71.97 -33.59,56.34 -36.2,89.84 -46.89,111.24l-39.15 89.12 -10.51 27.34 40.88 0c3.31,-15.77 9.21,-27.87 15.42,-41.64l182.39 -381.86c3.17,-6.31 5.52,-13.79 9.32,-20.37 4.95,-8.58 7.2,-8.85 12,-17.89l65.84 -118.2c37.81,-58.26 41.56,-93.57 110.57,-158.96 38.33,-36.33 51.5,-46.74 93.91,-72.63 15.23,-9.3 20.5,-14.59 36.28,-23.48 64.47,-36.38 265.11,-123.12 319.86,-128.77 12.02,21.78 36.68,115.04 57.3,156.25l34.95 72.14c14.25,37.38 43.96,76.65 55.84,102.13 10.13,21.72 9.55,15.59 22.19,33.43 23.18,32.75 37.93,61.64 65.76,92.67l124.34 144.86c0.91,1 6.24,6.44 6.36,6.55l20.55 17.9c4.75,5.05 6.34,7.75 12.15,13.61 10,10.09 6.38,5.43 16.82,13.44 17.51,13.44 33.8,37.88 53.55,53.15l55.5 51.19c33.34,34.46 93.95,80.62 113.4,100.43 10.78,10.98 16.79,14.55 25.79,24.89 23.39,26.88 61.02,48.6 80.05,81.16l48.55 0c-10,-20.89 -55.51,-68.93 -77.97,-88.32l-225.1 -202.47c-16.24,-14.88 -29.85,-24.93 -45.22,-40.41 -10.94,-11.03 -7.04,-10.34 -21.04,-22.15l-103.53 -110.02c-17.28,-19.79 -23.18,-28.54 -38.09,-47.49l-165.73 -257.3c-30.97,-60.74 -39.12,-98.69 -50.17,-120.59 -12.02,-23.8 -8.21,-30.34 -21.2,-64.23 -10.47,-27.29 -21.75,-44.14 41.98,-69.57 64.76,-25.87 97.89,-32.12 161.58,-52.48 28.57,-9.14 167.31,-23.76 204.77,-51.2 11.96,-8.76 41.79,-20.21 57.24,-28.44 57.1,-30.4 50.47,-47.31 108.13,-62.51 47.9,-12.63 101.01,-20.55 153.12,-19.57 50.62,0.95 186.73,-3.71 223.01,21.97 4.24,3.01 40.03,47.07 93.11,77.87 42.08,24.42 100.88,58.32 151.69,58.14l152.69 57.07 104.17 66c43.49,37.88 45.5,36.02 49.32,79.17 1.94,21.86 1.71,14.08 -0.74,34.59 -13.57,113.71 -10.46,71.71 -45.37,163.48 -3.46,9.09 -8.49,21.05 -12.68,30.3 -21.86,48.24 -87.95,132.96 -124.66,174.41l-125.99 130.2c-5.81,5.61 -5.81,6.04 -11.31,10.01 -5.22,3.77 -7.26,4.13 -13.01,8.36 -25.01,18.44 -38.5,40.09 -69.49,58.53l-251.64 218.9c-10.32,12.04 -25.54,32.09 -37.55,47.75l50.48 0c9.15,-14.29 8.63,-13.9 20.98,-26.37l58.71 -61.29c14.37,-13.83 3.45,-7.8 24.28,-22.57l283.07 -229.87c16.47,-21 51.39,-49.8 72.08,-73.39l46.45 -51.8c43.01,-44.37 123.56,-186.73 145.32,-247.6 29.16,-81.62 21.8,-81.94 31.98,-165.06l162.64 84.04 165.31 129.89c56.54,51.87 49.77,43.96 95.71,105.16 58.01,77.26 35.1,46.42 77.62,118.87l123.96 269.37c4.82,8.35 0.69,0.21 5.08,7.91 0.48,0.85 1.13,1.91 1.59,2.77l74.79 159.94 39.67 0 -50.05 -113.1c-17.86,-34.65 -31,-74.19 -51.05,-106.86 -31.6,-51.51 -87.78,-206.26 -131.97,-270.36 -1.72,-2.5 -6.65,-11.16 -7.76,-13.59 -2.95,-6.5 -2.82,-8.69 -6.11,-15.36l-66.78 -91.44c-6.06,-6.55 -13.36,-14.68 -18.2,-20.16l-123.37 -120.24 -249.92 -147.91c-12.45,-4.37 -18.56,-7.16 -30.33,-11.81 -22.44,-8.85 -10.76,5.65 -24.35,-14.66 -5.95,-8.89 -5.62,-15.27 -16.16,-26.63 -53.74,-57.91 -206.86,-138.44 -282.11,-159.06 -22.96,-6.29 -40.12,-1.4 -59.83,-7.1 -51.28,-14.84 -104.11,-50.14 -145.54,-77.32 -24.48,-16.07 -32.38,-21.29 -46.45,-48.38 9.94,-23.84 21.11,-51.01 32.99,-70.38 27.54,-44.91 28.98,-118.57 38.73,-157.42 11.35,-45.19 3.7,-44.9 5.5,-85.13 26.54,-14.27 31.48,-13.23 45.67,-43.88 6.4,-13.84 18.13,-56.05 18.57,-70.96 1.59,-53.64 -27.79,-107.3 4.81,-144.07 27.72,9.97 98.52,70.16 134.39,95.31l92.34 70.48c25.44,16.64 44.63,48.19 111.15,85.21 16.22,9.02 25.99,13.94 42.44,22.06l264.07 158.94c27.56,24.96 64.93,46.99 93.65,68.6 10.88,8.19 7.32,7.34 18.77,15.69 6.25,4.56 12.05,8.33 17.6,12.06 28.89,19.42 49.78,37.79 76.62,55.74 14.05,9.39 29.67,16.34 41.97,22.4 67.9,33.47 71.63,59.02 104.03,92.53 20.32,21.02 130.22,77.52 171.64,84.62 47.38,8.12 75.32,3.51 95.53,-26.45 -69.82,26.6 -144.62,-23.15 -197.09,-51.08 -12.43,-6.62 -16.46,-12.81 -29.92,-21.46 -18.94,-12.18 -11.77,-7.92 -26.5,-24.97 -7.91,-9.15 -16.37,-20.66 -24.95,-25.68 7.27,-51.85 45.28,-129.78 67.24,-193.18 11.01,-31.81 29.43,-74 40.12,-114.01l39.4 -113.77c1.58,-3.57 15.27,-31.12 17.35,-34.82 2.92,-5.17 16.23,-22.94 21.06,-29.82 52.07,-74.15 37.07,-41.33 70.86,-78.88 20.02,-22.26 90.44,-74.62 114.47,-90.94 79.73,-54.13 55.38,-25.45 136.5,-64.5l156.74 -47.93c88.78,-15.61 16.97,-4.76 90.34,-5.08 34.14,-0.14 55.91,7.08 89.82,7.82l0 -36.34c-68.77,-0.71 -151.47,-23.66 -217.72,2.96 -20.92,8.4 -43.61,10.5 -62,16.94l-168.07 66.29c-43.12,13.68 -30.72,28.3 -30.75,28.44 -8.93,4.81 -8.98,-7.39 -40.09,15.86 -14.98,11.18 -25.99,18.91 -38.72,29.84 -12.26,10.53 -31.13,20.93 -40.49,32.86 -22.61,28.85 -60.35,55.14 -71.48,78.14 -12.26,25.35 5.84,-0.65 -5.82,11.99l-16.19 17.18c-11.64,14.9 -21.47,23.09 -29.55,43.12 -5.42,13.47 -5.86,25.91 -13.7,37.93 -7.51,11.5 -1.52,3.89 -9.24,9.52 -15.95,-9 -13.1,-20.32 -15.5,-44.97 -3.04,-31.38 -22.94,-49.44 -4.2,-73.54 0.28,-0.36 1.04,-1.26 1.34,-1.57l11.75 -8.83c31.77,-19.98 12.25,-16.62 34.27,-33.86l216.53 -150.95c28.94,-25.92 57.45,-45.75 81.92,-75.86 10.86,-13.36 8.47,-22.55 21.11,-35.07 5.96,-5.91 2.02,-1.77 6.44,-6.78 48.6,-55.11 -13.67,-55.79 -28.85,-96.64 -9.67,-26.03 -32.57,-38.21 -36.96,-69.44 -4.17,-29.61 0.42,-269.4 8.91,-305.13 10.17,-42.77 7.06,-94.39 20.1,-137.47 5.13,-16.96 1.27,-35.07 14.59,-88.69 4.1,-16.49 3.97,-27.59 8.84,-42.47 13.21,-40.33 30.47,-129.33 36,-172.54 6.52,-51.06 17.17,-145.52 9.66,-196.31 -4.98,-33.73 -12.03,-51.9 -11.1,-95.19 0.79,-36.74 3.48,-63.16 3.87,-98.28 0.75,-68.72 30.11,-117.08 20.24,-188.14 -29.29,-21.04 -28.44,-10.44 -55.6,-0.32 -2.97,1.11 -6.22,2.17 -9.58,3.37 -1.33,0.47 -5.24,1.89 -6.59,2.37 -7.03,2.52 -10.46,3.56 -16.14,5.79 -45.92,18.08 -109.26,35.74 -156.99,43.95 -6.57,1.13 -8.44,0.99 -15.86,3.13 -2.93,0.85 -4.21,1.56 -6.51,2.45 -34.74,13.61 -222.07,31.2 -255.64,32.15 -114.71,3.24 -170.27,-16.5 -264.44,-63.65l-49.83 -31.87c-30.77,-18.7 -34.39,-30.55 -49.18,-32.97 -24.9,-4.06 -44.8,11.91 -55.23,26.57 -5.54,7.81 -11.73,18.72 -16.02,27.95l-31.15 92.87c-16.34,62.1 -19.66,206.79 -13.55,273.14 5.22,56.54 -24.18,179.54 -22.99,252.02 1.91,117.46 0.94,54.72 21.86,143.48l37.25 125.31c5.75,16.1 7.78,14.33 11.71,30.81 5.99,25.06 14.61,34.28 23.57,57.54 5.93,15.36 6.38,12.45 13.1,24.46 4.63,8.27 15.44,43.63 39.41,84.86 24.31,41.79 4.46,23.15 0.43,63.87 -1.81,18.31 0.64,29.5 -2.94,48.71 -6.51,35 -7.76,55.25 -8.3,92.16l-27.01 161.53c-1.3,1.03 -58.52,16.57 -79.3,28.48 -5.84,3.34 -9.08,4.24 -14.78,6.68 -47.34,20.18 -90.24,56.98 -125.34,92.76 -53.37,54.43 -56.5,73.18 -90.87,118.73l-3.71 4.82c-11.77,17.36 -28.2,77.91 -45.09,81.32 -19.6,3.95 -34.45,-22.92 -46.82,-32.8 -55.6,-44.44 -47.15,-17.21 -31.29,-94 14.47,-70.03 33.24,-122.06 64.49,-184.55l24.02 -44.36c7.88,-11.45 5.8,-9.47 12.24,-21.8l95.75 -165.33c0.45,-0.79 1.21,-1.79 1.65,-2.57 19.67,-34.6 10.39,-96.84 22.61,-134.87 11.03,-34.31 7.72,-86.84 10.41,-130.39 1.43,-23.16 7.15,-37.72 8.36,-64 3.15,-68.93 6.6,-58.8 10.74,-94.83l11.92 -166.27c0.41,-38.31 11.88,-83.45 17.59,-122.35 15.09,-103.02 18.54,-196.37 44.59,-304.96 11.08,-46.16 -2.61,-32.27 18.64,-89.53l40.35 -137.5c6.1,-25.62 12.1,-22.97 23.42,-47.63l87.4 -121.48c69.6,-71.38 194.42,-117.85 292.58,-131.69 81.1,-11.42 174.23,-18.75 263.29,-12.05 54.1,4.07 184.34,9.59 235.9,34.04l5.66 2.85c22.18,9.92 46.56,14.63 65.7,27.89 6.43,4.45 4.8,3.24 10.68,6.86 40.79,25.11 87.58,54.78 119.77,92.92l43.89 59.18c16.33,24.82 17.89,10.63 30.28,42.29 1.71,4.4 52.28,81.9 68.99,139.88 11.37,39.47 16.87,76.63 26.56,115.57l20.83 112.59c0.54,27.21 6.75,26.95 9.83,55.28l10.14 62.27 0 -260.03c-0.71,-1.15 -1.42,-2.66 -1.87,-3.59l-4.69 -10.2c-0.97,-2.64 -2.6,-9.86 -3.21,-12.78l-25.19 -79.56c-33.3,-79.99 -42.44,-108.07 -91.41,-181.28 -32.75,-48.95 -46.16,-53.75 -79.83,-90.71l-99.1 -71.8c-16.44,-7.99 -31.54,-15.3 -45.59,-22.99 -109.52,-59.98 -349.4,-65.12 -474.32,-56.67 -35.26,2.38 -84.76,10.47 -119.74,16.65 -38.77,6.84 -76.1,18.53 -107.43,29.83l-95.05 42.2c-22.98,11.2 -68,49.32 -88.09,70.07l-4.29 4.42c-0.61,0.66 -1.47,1.59 -2.08,2.26 -5.98,6.6 -10.9,12.72 -15.82,18.38 -38.69,44.6 -82.59,121.87 -99.03,175.5 -12.15,39.65 -21.57,57.15 -32.6,103.6 -19.13,80.6 -40.31,199.51 -51.53,281.89 -21.96,161.27 -35.92,318.41 -54.32,482.99l-27.89 299.24c-0.58,29.22 -3.3,32.23 -12.67,54.74l-24.17 44.18c-8.7,16.98 -19.26,28.14 -26.95,41.85 -27.17,48.43 -91.98,150.72 -104.94,201.87 -3.99,15.75 2.1,3.28 -7.86,18.08 -20.56,30.54 -33.32,141.11 -44.47,160.4 -11.5,-6.52 -12.33,-11.21 -23.09,-19.34l-81.6 -47.6c3.98,-47.77 57.51,-139.32 26.06,-276.56 -12.22,-53.34 -15.64,-45.64 -29.65,-73.77 -11.45,-22.99 -18.49,-51.2 -32.38,-74.72 -24.96,-42.29 -51.58,-89.64 -87.43,-121.86 -15.65,-14.05 -43.05,-24.65 -63.71,-39.93l11.47 -11.32c2.74,-2.42 6.63,-5.41 9.28,-7.75l36.15 -36.73c2.92,-4.61 3.86,-4.4 5.02,-10.55 6.35,-33.77 -38.32,-8.4 -53.38,-3.5 -16.13,5.26 -38.5,8.91 -51.91,12.38 -20.96,5.43 -95.4,15.31 -115.92,14.97 12.74,-26.17 100.91,-101.17 48.15,-110.12 -15.56,-2.64 -27.61,13.07 -37.45,19.83 -15.13,10.39 -23.17,13.9 -38.98,25.3 -23.25,16.76 -118.38,49.46 -137.26,51.91 4.81,-25.22 9.46,-47.76 12.74,-72.73 10.86,-82.56 -22.89,-81.88 -36.05,-44.78l-2.62 10.83c-0.15,0.54 -0.42,1.72 -0.58,2.25l-5.5 11.74c-26.03,43.88 -84.44,109.3 -134.09,126.5 -43.08,14.92 -28.18,18.87 -56.79,32.57 -11.88,5.69 -23.1,6.1 -33.91,9.55 -85.07,27.13 -79.27,11.85 -161.09,56.13 -29.02,-28.19 2.65,-35.69 -63,-120.53 -14.62,-18.9 -31.07,-29.75 -46.34,-43.21 -16.51,-14.55 -32.88,-28.91 -49.98,-39.7l-27.1 -19.88c-13,-7.4 -17.22,-9.75 -28.17,-18.93 -10.01,-8.4 -14.63,-11.46 -27.35,-19.69 -63,-40.82 -71.28,-62.09 -121.66,-98.79z"/>
   <path class="fil2" d="M3978.5 2080.02l0 -1079.53 -10.14 -62.27c-3.08,-28.33 -9.29,-28.07 -9.83,-55.28l-20.83 -112.59c-9.69,-38.94 -15.19,-76.1 -26.56,-115.57 -16.71,-57.98 -67.28,-135.48 -68.99,-139.88 -12.39,-31.66 -13.95,-17.47 -30.28,-42.29l-43.89 -59.18c-32.19,-38.14 -78.98,-67.81 -119.77,-92.92 -5.88,-3.62 -4.25,-2.41 -10.68,-6.86 -19.14,-13.26 -43.52,-17.97 -65.7,-27.89l-5.66 -2.85c-51.56,-24.45 -181.8,-29.97 -235.9,-34.04 -89.06,-6.7 -182.19,0.63 -263.29,12.05 -98.16,13.84 -222.98,60.31 -292.58,131.69l-87.4 121.48c-11.32,24.66 -17.32,22.01 -23.42,47.63l-40.35 137.5c-21.25,57.26 -7.56,43.37 -18.64,89.53 -26.05,108.59 -29.5,201.94 -44.59,304.96 -5.71,38.9 -17.18,84.04 -17.59,122.35l-11.92 166.27c-4.14,36.03 -7.59,25.9 -10.74,94.83 -1.21,26.28 -6.93,40.84 -8.36,64 -2.69,43.55 0.62,96.08 -10.41,130.39 -12.22,38.03 -2.94,100.27 -22.61,134.87 -0.44,0.78 -1.2,1.78 -1.65,2.57l-95.75 165.33c-6.44,12.33 -4.36,10.35 -12.24,21.8l-24.02 44.36c-31.25,62.49 -50.02,114.52 -64.49,184.55 -15.86,76.79 -24.31,49.56 31.29,94 12.37,9.88 27.22,36.75 46.82,32.8 16.89,-3.41 33.32,-63.96 45.09,-81.32l3.71 -4.82c34.37,-45.55 37.5,-64.3 90.87,-118.73 35.1,-35.78 78,-72.58 125.34,-92.76 5.7,-2.44 8.94,-3.34 14.78,-6.68 20.78,-11.91 78,-27.45 79.3,-28.48l27.01 -161.53c0.54,-36.91 1.79,-57.16 8.3,-92.16 3.58,-19.21 1.13,-30.4 2.94,-48.71 4.03,-40.72 23.88,-22.08 -0.43,-63.87 -23.97,-41.23 -34.78,-76.59 -39.41,-84.86 -6.72,-12.01 -7.17,-9.1 -13.1,-24.46 -8.96,-23.26 -17.58,-32.48 -23.57,-57.54 -3.93,-16.48 -5.96,-14.71 -11.71,-30.81l-37.25 -125.31c-20.92,-88.76 -19.95,-26.02 -21.86,-143.48 -1.19,-72.48 28.21,-195.48 22.99,-252.02 -6.11,-66.35 -2.79,-211.04 13.55,-273.14l31.15 -92.87c4.29,-9.23 10.48,-20.14 16.02,-27.95 10.43,-14.66 30.33,-30.63 55.23,-26.57 14.79,2.42 18.41,14.27 49.18,32.97l49.83 31.87c94.17,47.15 149.73,66.89 264.44,63.65 33.57,-0.95 220.9,-18.54 255.64,-32.15 2.3,-0.89 3.58,-1.6 6.51,-2.45 7.42,-2.14 9.29,-2 15.86,-3.13 47.73,-8.21 111.07,-25.87 156.99,-43.95 5.68,-2.23 9.11,-3.27 16.14,-5.79 1.35,-0.48 5.26,-1.9 6.59,-2.37 3.36,-1.2 6.61,-2.26 9.58,-3.37 27.16,-10.12 26.31,-20.72 55.6,0.32 9.87,71.06 -19.49,119.42 -20.24,188.14 -0.39,35.12 -3.08,61.54 -3.87,98.28 -0.93,43.29 6.12,61.46 11.1,95.19 7.51,50.79 -3.14,145.25 -9.66,196.31 -5.53,43.21 -22.79,132.21 -36,172.54 -4.87,14.88 -4.74,25.98 -8.84,42.47 -13.32,53.62 -9.46,71.73 -14.59,88.69 -13.04,43.08 -9.93,94.7 -20.1,137.47 -8.49,35.73 -13.08,275.52 -8.91,305.13 4.39,31.23 27.29,43.41 36.96,69.44 15.18,40.85 77.45,41.53 28.85,96.64 -4.42,5.01 -0.48,0.87 -6.44,6.78 -12.64,12.52 -10.25,21.71 -21.11,35.07 -24.47,30.11 -52.98,49.94 -81.92,75.86l-216.53 150.95c-22.02,17.24 -2.5,13.88 -34.27,33.86l-11.75 8.83c-0.3,0.31 -1.06,1.21 -1.34,1.57 -18.74,24.1 1.16,42.16 4.2,73.54 2.4,24.65 -0.45,35.97 15.5,44.97 7.72,-5.63 1.73,1.98 9.24,-9.52 7.84,-12.02 8.28,-24.46 13.7,-37.93 8.08,-20.03 17.91,-28.22 29.55,-43.12l16.19 -17.18c11.66,-12.64 -6.44,13.36 5.82,-11.99 11.13,-23 48.87,-49.29 71.48,-78.14 9.36,-11.93 28.23,-22.33 40.49,-32.86 12.73,-10.93 23.74,-18.66 38.72,-29.84 31.11,-23.25 31.16,-11.05 40.09,-15.86 0.03,-0.14 -12.37,-14.76 30.75,-28.44l168.07 -66.29c18.39,-6.44 41.08,-8.54 62,-16.94 66.25,-26.62 148.95,-3.67 217.72,-2.96z"/>
   <path class="fil3" d="M1883.33 4063.29l1251.79 0c-2.22,-5.93 -9.26,-23.55 -12.67,-29.64 -10.54,-18.78 -7.34,-7.43 -19.71,-13.11 0.52,-1.33 2.67,-4.13 2.94,-4.84 7.17,-19.25 -8.03,-28.63 -5.56,-62.02l-16.76 -0.78c-0.44,-0.08 -1.71,-0.34 -2.46,-0.75 11.64,-18.96 16.77,8.23 13.4,-24.83 -2.07,-20.27 -10.54,-12.27 -15.67,-26.47 3.47,-1.49 -0.14,-0.05 5.95,-0.92 18.71,-2.68 13.25,-5.07 30.06,-1.72 15.52,25.42 20.98,54.45 25.59,88.27 3.79,27.82 24.27,43.55 37.83,76.81l94.84 0 -74.8 -159.93c-0.45,-0.87 -1.1,-1.94 -1.58,-2.78 -4.39,-7.71 -0.26,0.44 -5.08,-7.91l-123.96 -269.37c-42.52,-72.45 -19.61,-41.61 -77.62,-118.87 -45.94,-61.2 -39.17,-53.29 -95.72,-105.16l-165.3 -129.89 -162.64 -84.03c-10.18,83.12 -2.81,83.42 -31.98,165.06 -21.75,60.86 -102.31,203.22 -145.32,247.59l-46.44 51.8c-20.7,23.58 -55.63,52.39 -72.09,73.39l-283.07 229.87c-20.83,14.77 -9.91,8.73 -24.28,22.57l-58.71 61.28c-12.36,12.48 -11.84,12.09 -20.98,26.38zm-1749.49 0l151.2 0 47.84 -122.05c10.45,-30.52 34.38,-97.56 50.49,-120.58 42.01,-4.47 15.95,24.99 9.71,42.84 -7.67,21.89 -15.15,48.57 -23.8,66.85 -4.45,9.39 -3.73,7.13 -5.83,14.54 -19.53,68.71 -35.83,69.75 -42.35,118.4l1402.88 0c-19.03,-32.56 -56.67,-54.28 -80.04,-81.15 -9.01,-10.35 -15.02,-13.92 -25.8,-24.9 -19.45,-19.82 -80.05,-65.97 -113.4,-100.43l-55.49 -51.19c-19.75,-15.27 -36.05,-39.71 -53.57,-53.14 -10.44,-8.02 -6.82,-3.37 -16.81,-13.45 -5.81,-5.86 -7.4,-8.56 -12.15,-13.61l-20.55 -17.9c-0.12,-0.11 -5.45,-5.54 -6.36,-6.55l-124.34 -144.86c-27.83,-31.03 -42.57,-59.92 -65.76,-92.67 -12.64,-17.85 -12.06,-11.71 -22.2,-33.44 -11.87,-25.47 -41.58,-64.74 -55.83,-102.12l-34.94 -72.14c-20.62,-41.21 -45.28,-134.47 -57.31,-156.25 -54.76,5.65 -255.39,92.39 -319.86,128.77 -15.78,8.89 -21.05,14.19 -36.28,23.48 -42.41,25.89 -55.58,36.31 -93.92,72.63 -69,65.39 -72.75,100.7 -110.56,158.96l-65.84 118.2c-4.8,9.04 -7.05,9.32 -12,17.88 -3.8,6.59 -6.16,14.07 -9.32,20.38l-182.39 381.86c-6.21,13.78 -12.11,25.87 -15.42,41.64zm1638.69 0l60.32 0c12.01,-15.66 27.23,-35.71 37.55,-47.75l251.64 -218.9c31,-18.44 44.49,-40.09 69.49,-58.53 5.75,-4.23 7.79,-4.59 13.01,-8.36 5.49,-3.97 5.5,-4.4 11.31,-10.01l125.98 -130.2c36.72,-41.44 102.8,-126.17 124.67,-174.41 4.19,-9.25 9.23,-21.22 12.67,-30.31 34.91,-91.77 31.8,-49.76 45.38,-163.46 2.45,-20.52 2.68,-12.74 0.74,-34.6 -3.82,-43.15 -5.83,-41.28 -49.32,-79.17l-104.17 -66 -152.7 -57.07c-50.81,0.18 -109.6,-33.73 -151.68,-58.14 -53.09,-30.81 -88.86,-74.86 -93.11,-77.87 -36.28,-25.68 -172.39,-21.02 -223.01,-21.97 -52.11,-0.98 -105.22,6.94 -153.12,19.57 -57.66,15.2 -51.03,32.11 -108.12,62.52 -15.46,8.22 -45.29,19.67 -57.25,28.43 -37.46,27.44 -176.2,42.06 -204.77,51.19 -63.69,20.37 -96.82,26.62 -161.58,52.48 -63.72,25.45 -52.44,42.28 -41.98,69.57 12.99,33.89 9.18,40.43 21.21,64.24 11.04,21.9 19.19,59.85 50.15,120.6l165.74 257.29c14.91,18.95 20.81,27.71 38.1,47.49l103.52 110.02c14,11.81 10.1,11.12 21.04,22.14 15.37,15.49 28.97,25.55 45.22,40.42l225.11 202.47c22.46,19.39 67.96,67.43 77.96,88.32z"/>
   <path class="fil4" d="M2852.94 1409.18c12.72,-8.74 33.11,-7.37 48.16,-5.21 14.66,2.09 27.1,6.61 39.64,12.06 71.3,30.97 68.59,-43.68 132.9,46.51 39.96,56.04 50.6,51.89 25.24,79.6 -30.25,33.05 -71.76,115.05 -128.28,108.82l-6.1 -11.88c-40.21,-0.98 -55.66,-19.25 -81.03,-37.4 -13.06,-9.33 -20.03,-15.68 -29.27,-30.42 -13.63,-21.74 -15.87,-13.83 -13.51,-45.08 -10.83,-7.99 -2.99,0.07 -7.47,-11.99 -8.7,-11.56 -17.06,-40.9 -9.2,-58.57 1.39,-3.14 10.69,-19.64 13.66,-24.83 4.09,-7.15 9.35,-12.81 15.26,-21.61zm236.64 -295.54c-23.48,-33.77 51.07,-116.81 166.58,-111.47 21.04,0.97 54.16,9.05 71.6,18.28 56.25,29.77 77.18,41.97 87.72,106.01l-18.49 9.22c-8.48,3.06 -12.38,4.31 -21.11,5.4l-132.57 5.81c-63.06,0.25 -146.03,15.63 -171.99,-7.6 3.57,-16.73 8.35,-17.34 18.26,-25.65zm-62.85 -98.32c4.28,-11.83 32.79,-38.95 44.04,-48.67l50.36 -35.16c46.35,-28.13 94.09,-62.71 143.64,-83.15 12.68,-5.23 39.38,-7.8 31.68,10.76 -3.03,7.29 -133.85,88.2 -156.86,103.44 -74.02,49.01 -85.48,97.23 -112.86,52.78zm431.42 -293.72c-15.7,2.23 -19.28,-1.15 -14.8,-14.09 0.09,-0.04 3.02,-9.86 13.14,-0.12 5.74,5.53 3.57,2.45 1.66,14.21zm-790.68 157.07c48.62,2.18 34.63,-48.18 106.99,19.62 15.61,14.63 22.4,27.89 34.45,42.48 16.43,19.87 23.09,21.83 20.03,51.79 29.92,10.11 58.62,41.25 71.03,71.1 0.7,-1.04 1.45,-4 1.73,-3.34 6.98,16.62 18.19,-129.59 20.36,-142.49 1.07,-6.3 2.54,-16.06 3.71,-21.92 1.15,-5.77 0.47,-5.08 2.61,-10.81 5.78,-15.55 2.09,-6.26 7.05,-12.35l19.56 8.23c0.69,0.37 1.94,1.18 2.88,1.82 1.97,49.33 -12.24,137.02 -20.86,181.6l-31.22 168.48c114.11,43.02 150.4,-12.48 157.26,34.66 -22.6,24.95 -50.15,21.65 -87.04,16 -30.21,-4.64 -72.2,-10.07 -98.51,-17.21 -5.71,-25.53 -2.51,-50.11 1.47,-76.48 3.72,-24.7 12.92,-49.54 11.22,-69.49l-223.48 -9.33c-35.59,5.34 -19.84,151.42 3.28,212.66l20.41 64.87c14.46,42.91 26.28,81.51 41.49,125.07 12.47,35.7 59.92,137.78 84.32,168.08l22.03 20.69c77.03,64.01 172.42,95.64 273.04,57.64 16.43,-6.2 12.88,-7.91 29.91,-13.21 33.17,-10.32 119.14,-48.55 141.16,-68.26 9.94,-8.91 13.58,-10.89 24.48,-18.19 33.07,-22.15 65.78,-94.21 82.91,-126.9 8.61,-16.43 9.2,-40.93 17.99,-62.59 8.81,-21.71 28.19,-118.27 29.17,-139.47 1.89,-40.43 19.09,-122.48 20.39,-140.68l51.75 -455.28c2.56,-13.27 6.14,-26.37 6.72,-36.3 1.72,-29.7 0.1,0.35 7.51,-30.46 -39.29,8.04 -66.74,15.42 -105.37,25.86 -83.65,22.63 -251.61,47.36 -344.01,41.21 -44.24,-2.94 -71.51,-2.97 -114.01,-14.22 -72.06,-19.06 -36.78,3.23 -120.33,-42.24 -8.38,-4.56 -14.9,-5.68 -23.47,-10.54l-69.17 -59.37c-11.03,-13.56 -13.31,-28.82 -25.22,-41.25 -41.29,60.37 -65.14,231.24 -54.22,310.52z"/>
   <path class="fil5" d="M1619.27 2386.82l-38.98 3.38c-18.43,25.58 11.42,12.9 -59.62,31.89 -27.02,7.22 -44.1,36.61 -62.95,13.72l-3.35 33.51c-18.6,2.62 -23.14,0.13 -36.51,-3.91 -13.29,19.75 1.08,16.03 -14.17,24.27 -12.31,6.65 -20.31,-1.35 -36.72,-3.69 6.32,14.87 19.23,41.26 -12.64,39.51 -20.06,-1.11 -66.6,-38.85 -84.17,-58.73 -9.73,-11 -25.34,-30.89 -19.69,-43.57l-21.4 4.16 14.38 -25.6c11.88,-3.42 19.09,-6 28.25,13.37l3.54 17.07c3.52,-3.83 -4.74,-4.88 9.29,-1.82 6.4,1.4 6.54,2.91 12.43,7.29 -5.96,-18.04 -13.5,-21.05 -5.86,-48.77 30.04,-11.54 27.44,-1.49 42.11,19.55 17.45,25.01 31.41,18.83 35.33,36.45 4.55,-34.03 -11.27,-48.95 0.44,-76.1 17.49,-2.72 37.49,1.3 37.46,15.64 12.54,-78.21 67.36,-5.73 79.09,-0.38 4.34,-32.37 -7.01,-23.97 12.12,-53.24 30.84,0.59 14.82,4.23 35.38,14.01 20.09,-36.42 38.52,-8.29 81.39,-12.57 22.62,-2.27 14.46,-24.86 40.37,-15.99l41.05 24.25c12.43,24.16 -8.37,21.17 11.27,38.48 -29.58,19.62 -8.03,23.69 -36.82,26.66 -28.05,2.88 -43.26,3.98 -51.02,-18.84zm-512.13 -135.35c-49,0.63 -51,-55.87 -50.89,-99.04 0.12,-43.07 -2.81,-100.93 18.29,-128.55 39.06,4.53 -2.99,6.94 41.11,24.22l18.99 7.41c-0.45,20.34 0.84,19.8 9.63,32.77 16.61,-21.75 0.18,-27.58 21.41,-39.16 25.92,-12.49 28.18,20.12 32.08,12.16 0.36,-0.75 1.31,1.85 2.08,2.67 24.66,-35.54 38.08,-44.83 51.12,11.55 -3.03,-4.38 -2.42,-0.13 0.65,-7.59 5.26,-12.8 0.84,-1.45 6.77,-10.24 21.26,-3.55 18.6,-3.37 35.51,5.11 10.29,-10.56 8.54,-15.88 39.22,-13.02 21.42,27.63 -4.35,25.86 34.3,41.67 0.77,20.59 10.74,52.16 3.43,65.49 -18.89,15.56 -23.29,0.37 -50.69,13.16 -19.48,9.09 -26.58,16.16 -37.57,-5.84 -1.06,0.59 -2.29,1.56 -3,2.04l-19.89 12.66c-9.41,-4.15 -21.3,-10.9 -28.84,-13.25 14.02,64.84 -41.55,47.77 -46.47,49.09 -16.9,4.53 -4.13,13.53 -35.83,8.49l-34.11 -58.76c-5.62,49.13 17.09,49.91 -7.3,86.96zm507.36 -227.57c6.7,-15.45 17.74,-37.59 34.3,-44 23.69,-9.18 33.26,3.36 46.93,18.55 19.74,-8.53 21.1,-8.43 38.47,5.03 0.74,-0.79 1.6,-1.98 2.03,-2.52l4.04 -4.96c0.78,-0.95 3.1,-3.89 3.89,-4.81 2.97,-3.42 7.34,-7.53 9.85,-9.9 27.25,4.65 23.15,7.79 25.88,29.72 1.98,15.89 8.78,32.17 9.46,48.02 1,23.11 -5.22,24.65 -20.04,34.6 -11.16,7.49 -17.71,22.6 -31.88,24.88 -32.52,5.22 -10.81,-18.07 -33.18,-20.01 -10.56,-0.91 -25.84,14.69 -34.95,19.01 -6.1,2.89 -39.33,8.26 -46.37,8.3 -24.06,0.12 -19.76,-10.03 -38.35,-16.7 -3.61,4.83 -10.05,16.69 -13.87,21.11 -16.1,18.58 -6.82,2.52 -26.12,7.83 -22.13,6.07 -16.5,14.77 -45.51,0.57l-7.45 6.09c-20.19,15 -24.54,13.78 -39.57,8.93 -5.42,13.82 -8.08,18.82 -21.37,24.86 -21.79,-11.14 -20.96,-20.39 -27.32,-45.66 -8.05,-31.94 -8.13,-37.05 -2.56,-69.62 8.82,-4.3 14.96,-5.58 20.5,-10.21 7.21,-6.02 3.85,-8.88 14.36,-15.61 19.73,-12.62 25.02,6.6 37.76,12.11 22.98,-37.21 25.01,-12.67 57.09,-15.61 11.47,-1.05 13.35,-1.51 28.91,-0.95 8.92,-15.56 7.78,-18.61 20.87,-30.7 29.18,7.27 16.89,15.38 34.2,21.65zm290.7 -37.84c0.64,-0.88 1.33,-2.18 1.68,-2.8 0.35,-0.61 1.23,-2.04 1.65,-2.8 8.78,-16 26.01,-63.62 37.34,-69.85 15.49,-8.51 35.83,2 44.75,-10.2 10.19,-13.95 2.38,-56.6 34.22,-53.51 30.81,3 13.38,32.29 33.72,49.32 9.62,8.06 21.7,2.85 31.04,24.84 13.68,32.22 -3.52,7.17 21.14,32.22 0.78,18.32 -2.14,36.87 -9.04,53.42 -6.97,16.71 -38.53,41.92 -42.64,43.96 -38.06,18.91 -33.06,-34.16 -34.17,-39.3 -17.08,8.19 2.31,6.52 -15.83,30.9 -6.13,8.25 -16.46,13.22 -25.15,16.82 -30.6,12.68 -16.4,13.62 -29.62,17.82 -6.68,2.11 -9.01,0.63 -14.28,-1.62l-11.93 -7.3c-0.54,-1.59 -2.01,-1.47 -3.07,-2.13 -4.53,11.65 -7.27,22.74 -19.81,31.86 -19.84,-3.41 -18.97,-12.27 -56.4,-37.55 0.06,-31.35 8.99,-37.44 7.55,-65.67 -1.37,-26.84 -0.15,-44.39 3.48,-71.13 10.09,-5.8 15.59,-9.86 32,-8.7 17.02,28.89 1.34,47.55 13.37,71.4zm-732.75 -238.55c27.38,-3.51 23.84,-1.34 37.88,14.17 23.56,26.02 23.06,-29.74 42.54,55.41 49.07,-24.33 25.39,47.51 14.41,64.91 -20.4,3.39 -25.36,-6.24 -52.74,-5.11 -13.76,18.92 -9.69,36.58 -48.37,26.61 -17.33,-38.08 6.85,-79.24 10.25,-112.42 -4.51,5.53 -9.33,9.81 -14.44,15.53 -53.81,60.08 -23.93,113.03 -86.11,131.83 -25.04,-20.56 -12.28,-35.4 -11.02,-49.71l-2.83 -15.76c-18.62,15.82 -40.62,90.72 -49.08,117.68 -27.67,88.17 -2.64,194.87 32.78,272.84 44.71,98.46 62.05,118.49 146.8,187.1l73.33 50.72c43.5,21.99 75.16,19 116.65,92.41 16.87,29.85 41.38,86.32 64.79,99.27 7.99,-7.53 16.86,-18.62 22.81,-30.28l19.05 -41.48c16.18,-31.53 23.17,-68.43 31.08,-83.42 29.43,-2.16 26.12,-0.08 44.24,12.18 0.76,18.43 4.87,36.3 6.7,51.85 2.5,21.2 -0.52,39.64 0.06,60.42 34.26,-8.64 47.72,-129.38 60.37,-156.21l38.46 -2.12c41.29,61.79 11.89,90.16 27.79,146.03 24,-9.15 82.78,-89.6 94.94,-109.45 11.1,-18.13 6.94,-31.21 26.91,-40.85 8.21,3.39 16.96,9.91 27.28,16.14l4.25 75.97c23.68,1.05 55.41,-54.28 65.54,-72.58 17.34,-31.3 19.66,-46.06 48.82,-96.55l-24.94 -2.12c-11.81,-35.8 -3.12,-25.95 -6.18,-40.25 -3.98,-18.52 13.31,8.73 -2.01,-3.88 -7.01,-6.84 -8.79,0.98 -19.75,5.15 -15.46,5.88 -16.06,0.84 -26.24,5 -24.38,9.97 -11.08,24.19 -53.95,22.57 -0.01,-0.03 -3.27,-41.88 -37.3,-21.05 -13.79,8.44 -23.16,26.68 -35.37,33.98 -22.39,2.43 -40.69,-10.43 -37.06,-32.75 4.46,-27.44 18.64,-6.17 22.57,-48.9 2.65,-28.92 19.02,-76.2 46.37,-63.9 11.44,5.15 5.34,2.08 12.35,19.78l2.79 6.89c11.45,-10.85 29.07,-24.38 47.03,-7.73 10.78,-8.28 11.24,-17.24 25.84,-18.3 17.32,-1.26 10.46,6.99 36.04,4.65 33.88,-3.09 17.89,6.14 36.66,-1.26 30.69,-12.1 42.48,-26.65 43.07,34.43 0.01,1.3 -0.22,20.85 -0.16,21.34 2.16,18.05 -2.59,8.46 10.62,18.38 17.44,-8.92 29.94,-50.04 36.17,-69.52 11.01,-34.37 21.2,-43.81 37.52,-73.35 6.7,-12.11 8.41,-25.21 13.67,-37.79 6.33,-15.16 10.24,-25.7 14.14,-40.57 12.43,-47.37 31.19,-145.84 20.74,-192.08 -6.25,-27.64 -82.42,-191.28 -107.63,-219.73 -4.28,10.03 -6.22,14.6 -20.29,21.25 -43.39,20.53 -51.46,35.87 -77.06,9.14 -31.05,41.83 -41.37,9.42 -65.06,-0.75 -9.35,5.77 -10.75,13.53 -15.12,21.89 -25.36,1.59 -46.78,-1.23 -64.93,-25.46 -2.14,21.55 -2.08,37.33 -9.13,55.1 -49,11.65 -43.61,-59.94 -57.24,-77.88 23.3,90.21 -118.85,112.85 -187.32,128.27 -47.27,10.66 -146.95,41.98 -208.66,30.23 -46.7,-8.89 -52.92,-85.08 25.51,-149.6 22.12,-18.21 73.83,-39.41 106.18,-51.68 43.29,-16.41 93.27,-13.81 142.97,-9.26 128.89,11.81 66.69,10.46 117.13,40.62 13.08,-35.47 -27.35,-30.03 35.19,-40.51 11.04,-19.43 11.35,-31.51 38.47,-21.23 14.49,24.42 1.39,58.52 37.8,77.24 -0.32,-18.46 -5.33,-54.05 0.68,-66.58 35.83,-24.09 47.3,20.34 59.85,39.04 9.12,-15.53 0.04,-23.74 20.36,-34.32 27.25,-4.85 32.17,26.86 43.76,47.51 1.49,-3.16 1.92,-46.54 38.92,-37.71 -9.69,-16.5 -42.92,-31.82 -68.64,-31.82 -25.65,-0.01 -30.13,-4.7 -47.53,-6.06 -22.44,-1.75 -30.74,6.38 -50.79,-3.75 3.85,-26.93 8.71,-5.92 56.36,-33.41l20.55 -14.29c-43.54,-0.34 -146.16,19.25 -177.09,6.19 -3.04,-15.48 -3.95,-13.43 4.1,-24.3 9.87,-13.32 12.53,-5.96 17.42,-18.2 -23.55,-1.34 -61.96,8.89 -80.16,19.21 -18.81,10.67 -20.43,3.47 -40.9,10 -14.63,4.68 -15.29,13.91 -37.97,13.83 -12.89,-37.89 9.58,-13.18 9.31,-81.69 -6.56,14.45 -25.82,27.17 -40.09,37.97 -45.92,34.74 -6.63,36.68 -94.87,67.86 -19.58,6.93 -34.8,23.23 -111.95,50.64 -20.93,7.44 -41.48,8.94 -65.57,14.85 -32.76,8.02 -51.66,22.09 -77.88,42.04 -13.41,10.21 -17.25,8.88 -24.44,21.5z"/>
   <path class="fil4" d="M678.31 1890.01l21.3 18.56c8.01,7.79 13.22,14.81 21.16,21.86 5.39,4.8 19.63,12.76 22.13,16.54 19.35,29.24 -22.44,33.96 -57.88,-6.23 -12.51,-14.18 -27.67,-34.87 -6.71,-50.73zm111.15 -58.49c-46.16,26.47 -95.61,-64.91 -77.17,-80.53 17.73,-15.01 32.51,26.27 39.47,36.71 13.32,19.99 43.84,24.25 37.7,43.82zm214.88 -272.26c-0.93,0.63 -2.6,0.06 -3.13,1.28 -0.51,1.19 -2.42,0.96 -3.14,1.03 -19.43,1.99 -118.13,-37.25 -133.13,-44.49 -23.69,-11.43 -38.09,-23.26 -64.76,-29.73 -23.74,-5.76 -51.76,-13.32 -70.28,-23.29 -39.6,-21.31 -96.16,-26.11 -139.11,-49.47 -13.74,-7.47 4.92,-0.95 -14.14,-7.02l-91.18 -28.99c-19.51,-7.83 -18.74,-5.85 -39.93,-10.55 -55.02,-12.21 -96.36,-36.34 -155.09,-22.7 -23.44,5.44 -40.04,25.42 -44.24,47.62 -6.52,34.5 15.7,39.6 43.68,49.58 66.56,23.73 142.56,44 207.49,74.49 19.58,9.19 50.64,19.61 54.11,45.72 -27.6,16.51 -45.3,-4.78 -103.14,-30.71 -46.96,-21.04 -116.7,-34.06 -166.61,-56.15 -24.16,-10.69 -54.14,-33.01 -76.2,-14.02 -0.06,0.05 -7.87,7.87 -8.59,8.46l-23.96 18.13c-13.68,20.01 -12.75,40.7 9.9,53.03 46.65,25.4 83.5,53.82 138.01,70.24 19.91,5.99 28.77,6.19 45.02,15.18l88.86 30.55c18.27,5.14 35.72,8.74 34.54,29.02 -27.42,11.93 -71.56,-13.65 -101.46,-25.63 -46.51,-18.63 -103.34,-24.89 -147.99,-48.96 -16.69,-9.01 -17.86,-13.99 -38.24,-17.92 -0.74,19.76 1.46,24.44 5.66,40.88 12.71,49.7 30.62,46.17 63.09,78.95 22.34,22.55 20.7,21.54 53.64,36.11 44.31,19.58 88.95,55.13 116.16,67.88 31.52,14.75 33.25,21.3 58.41,35.3 23.53,13.09 35.1,25.01 53.91,36.59 22.23,13.69 48.97,12.39 48.07,43.52 -49.37,2.62 -90.72,-34.62 -131.2,-58.73l-19.85 -14.73c-4.23,-2.49 -17.16,-8.32 -22.69,-11.35l-167.82 -99.16c-5.25,73.77 64.41,109.89 111.85,150.64 10.93,9.39 9.1,10.12 19.55,18.92l88.05 61.83c17.24,10.79 30.99,17.24 48.73,27.77 15.99,9.47 5.78,7.51 22.35,16.84 8.21,4.62 17.32,8.48 25,13.29 39.09,24.45 80.42,41.86 115.75,67.81 2.26,1.66 7.98,6.65 9.29,7.72 0.97,0.79 3.65,3.2 4.71,3.94l107.79 54.6c15.6,5.97 43.18,11.24 60.96,15.63 30.5,7.52 90.35,36.25 115.21,34.74l-16.21 -70.77c-10.02,-84.29 -8.17,-161.55 28.36,-237.66 38.23,-79.67 40.79,-81.44 92.57,-142.47 22.48,-26.51 47.82,-46.47 73.45,-68.48 -24.07,-53.64 -21.57,-85.22 -74.35,-131.64 -33.08,-29.1 -22.59,-31.09 -82.5,-71.21l-148.37 -112.49c-40.86,-33.04 -71.68,-76.07 -131.21,-77.33 -22,32.41 -21.91,31.14 8.25,84.9 13.14,23.42 15.63,40.7 35.88,49.59l113.91 44.38c33.83,15.43 77.71,25.48 110.06,44.33 4.05,2.36 6.85,2.4 9.16,8.56 8.03,21.37 -2.7,16.29 -2.91,16.6z"/>
   <path class="fil0" d="M3120.86 2095.74c-2.4,-22.97 12.55,-19.98 32.39,-20.57 24.17,-0.71 40.04,-6.37 52.31,8.86 -2.32,4.93 -0.59,14.88 -34.7,17.97 -16.21,1.47 -39.78,-0.89 -50,-6.26zm153.83 -263.92c15.64,-21.93 23.8,-4.7 58.42,-25.69 19.4,-11.76 34.45,-20.88 55.21,-10.07 -1.19,27.62 -30.52,33.61 -52.18,43.18 -26.92,11.88 -41.69,14.08 -61.45,-7.42zm139.44 315.67c19.86,-25.58 68.04,-57.57 105.88,-107.3 10.23,-13.43 19.04,-30.05 30.48,-42.57 -18.74,-52.33 -76.55,-31.38 -66.64,-244.84l0.98 -82.05c2.8,-45 26.54,-283.5 40.84,-326.44 32.24,-96.79 59.43,-286.21 56.31,-390.04 -0.94,-31.63 -6.24,-65.33 -10.99,-95.75 -4.29,-27.42 4.15,-62.29 3.73,-85.54 -0.2,-11.45 -2.74,-1.86 0.45,-19.98l7.74 -71.94c2.7,-32.85 11.26,-65.08 9.93,-96.12 -166.55,64.16 -464.77,125.69 -639.7,81.07 -36.79,-9.38 -63.84,-21.29 -90.78,-34.76 -20.65,-10.33 -23.63,-9.61 -41.25,-23.15 -8.85,-6.8 -30.14,-17.81 -39.38,-23.5 10.21,18.47 35.45,36.24 53.42,47.96 10.76,7.01 2.08,1.16 10.1,7.01 73.8,53.78 223.02,64.6 305.78,57.69 108.76,-9.08 208.92,-22.29 311.61,-52.18 127.77,-37.18 103.46,-33.1 85.65,89.11 -3.69,25.28 -6.2,33.81 -10.62,54.15 -3.63,16.69 -3.93,33.71 -5.03,56.02 -1.32,27.04 -8.26,35.08 -9.15,50.39l-29.57 289.65c-6.18,41.7 -7.52,78.56 -14.65,118.37 -6.49,36.29 -12.06,73.22 -17.3,111.77l-26.88 104.95c-7.22,18.14 -11.68,32.23 -17.79,46.77 -10.05,23.96 -32.19,57.93 -48.86,78.92 -11.32,14.28 -19.67,23.04 -31.87,36.24 -50.16,54.22 -132.93,75.22 -166.25,94.55 -23.69,13.74 -65.58,26.84 -94.45,33.75 -62.62,14.96 -167.09,-12.85 -212.32,-42.72 -16.5,-10.89 -27.54,-14.34 -38.89,-25.32 -10.11,-9.79 -18.66,-25.15 -34.09,-32.79 -2.47,25.32 0.27,54.09 -3.14,74.37 -12.31,73 -8.47,147.19 -9.7,153.15 -5.51,26.41 -14.99,40.33 -13.69,75.76 91.59,6.92 142.91,6.22 222.56,55.01 55.97,34.3 103.22,84.19 140.1,137.84 33.49,48.71 38.82,76.25 65.23,120.73 8.04,-6.28 14.75,-12.91 24.39,-20.68 16.06,-12.95 12.37,-14.8 25.05,-26.26l58.12 -44.36c5.54,-4.63 4.49,-4.86 11.14,-10.32l74.85 -53.64c12.56,-9.42 15.55,-14.95 28.65,-22.98z"/>
   <path class="fil6" d="M2460.74 2434.57c17.31,21.1 33.35,23.83 56.67,37.69l144.2 86.72c76.42,53.68 170.27,91.68 240.5,152.57l74.39 58.36c24,19.18 96.41,63.18 125.65,75.88 5.51,-12.77 8.54,-24.8 12.88,-38.79 13.93,-44.95 26.52,-52.38 15.71,-135.77 -4.42,-34.03 -7.19,-56.96 -9.19,-95.8 -1.39,-26.91 -22.73,-146.75 -33.48,-174.02 -5.21,-13.2 -8.36,-21.22 -13.85,-37.57l-9.83 -27.89c-0.42,-0.95 -0.96,-2.04 -1.41,-2.97 -0.45,-0.93 -1.07,-1.98 -1.54,-2.89l-42.21 -69.3c-53.85,-78.74 -214.25,-122.02 -308.58,-101.08 -44.48,9.87 -92.67,50.97 -124.18,84.06 -3.51,3.7 -8.67,8.87 -12.36,13.49 -4.64,5.81 -5.44,7.82 -11.03,14.57 -36.19,43.76 -83.41,111.38 -102.34,162.74z"/>
   <path class="fil4" d="M624.93 3020.23c-33.94,33.23 -109.29,-21.77 -205.93,-40.45 -13.01,-2.52 -24.58,4.5 -39.17,10.78 -33.44,14.38 -52.75,13.9 -85.65,25.39 -0.95,23.14 3.76,22.21 22.71,32.58 54.35,29.73 24.39,31.12 134,45.44 44.56,5.82 27.06,-14.05 53.97,22.53 4.15,5.64 10.81,12 14.78,15.37 30.94,26.18 64.83,20.09 56.43,55.62 -57.36,13.07 -102.63,-57.09 -102.96,-57.22 -32.65,-12.75 -73.09,24.52 -190.35,-60.68 -29.18,-21.21 -28.75,-33.93 -14.51,-61.67 10.09,-19.66 14.36,-27.37 73.37,-42.78 30.95,-8.09 44.48,-16.08 65.21,2.72 -33.8,-47.03 94.96,-7.06 106.91,-1.14 58.74,29.04 103.94,28.5 111.19,53.51zm-565.88 -192.37c22.37,25.1 75.9,21.26 109.46,7.01 30.39,-12.92 48.21,-52.97 77.12,-52.28 17.32,27.37 -4.16,20.02 -17.82,55.16 81.46,15.07 87.51,-17.72 140.37,-16.03 8.83,43.12 -87.79,57.68 -123.7,54.45 -36.88,-3.32 -29.18,-14 -36.4,-23.79 -28.21,22.13 -59.53,26.55 -105.97,28.84 -3.92,31.53 8.78,30.4 -4.32,100.56l-15.42 71.43c-6.71,36.4 28.01,33.22 58.77,6.78l4.65 -3.77c65.67,-49.88 37.04,-160.37 75.11,-161.37 33.24,-0.88 3.22,99.31 -1.63,115.84 -11.69,39.87 -31.83,71.12 -69.62,86.48 2.44,23.47 9.55,13.16 16.76,33.55 15.06,42.58 -1.72,90.76 -7.26,124.62 1.12,0.61 2.69,0.98 3.6,1.29 24.72,8.22 26.4,7.74 48.47,25.39 6.15,4.92 0.52,0.25 6.99,6.09l6.97 6.64c80.97,-27.85 222.94,-20.85 310.56,-32.86 13.91,-1.9 38.97,-22.69 49.94,-31.07 7.5,-5.73 18.36,-11.83 26.52,-15.88 84.59,-42.03 60.23,-98.84 91.76,-123.86 8.1,3.86 13.58,-7.87 12.57,32.76l-3.88 35.43c31.93,-16.18 47.42,-41.15 66.1,-72.78 17.98,-30.43 3.19,-87.64 -7.87,-111.86 -27.15,-59.47 -104.79,-64.84 -131.81,-77.61 -23.23,-10.98 -23.36,-9.49 -56.18,-13.32 11.89,24.38 28.36,29.33 45.99,44.92 12.86,11.36 47.94,31.4 26.13,51.45 -16.99,14.78 -56.89,-28.2 -68.35,-39.24l-17.87 -16.41c-69.45,-67.67 -29.99,-32.03 -108.06,-92.54 -70.13,-54.36 -72.9,-93.48 -144,-88.63 -31.27,2.13 -75.99,-3.73 -99.34,8.26 -44.82,23.02 -92.4,38.97 -122.6,56.98 -6.09,3.63 -13.06,8.21 -18.46,11.05 -9.58,5.03 -8.63,2.3 -17.28,8.32z"/>
   <path class="fil4" d="M1814.79 2580.34c-4.61,7.06 -25.52,29.69 -32.74,38.84 -17.4,22.02 -52.77,62.32 -79.23,74.73 -60.09,28.18 -44.35,-23.83 -43.61,-132.87 -10.47,10.22 -9.98,39.86 -17.85,58.37 -15.87,37.29 -34.74,70.49 -66.39,96.34 -24.32,19.87 -23.44,24.6 -51.92,15.25 -0.2,-8.49 11.15,-60.48 12.81,-107.25 -38.15,27.9 -25.78,83.68 -100.9,118.32 -24.32,-8.89 -16.75,-7.73 -27.14,-28.39 -7.02,-13.98 -15.12,-22.03 -22.1,-37.95l-41.58 -72.25c-9.58,15.93 -28.53,42.86 -52,47.87 -37.95,8.09 -62.03,-27.91 -67.32,-32.55l14.89 56.85c9.38,50.76 -0.89,34.46 21.64,86.65 18.47,42.81 23.88,72.18 71.07,112.6 11.4,9.77 36.45,15.18 52.5,20.61 39.84,13.47 29.08,12.38 82.05,-14.58l20.86 -13.21c-9.92,-2.85 -61.13,-110.81 -7.49,-110.99 19.98,25.24 4.93,58.24 31.45,91.42 17.24,-8.4 4.48,-8.09 36.14,-22.64 38.04,-17.48 60.54,-23.92 102,-26.08 17.68,-0.92 31.29,-5.73 50.4,-7.64 80.65,-8.05 153.32,-5.98 227.57,2.58 -1.46,-29.79 -4.17,-126.41 37.14,-137.58 9.39,14.54 3.54,47.43 0.91,65.79 -4.16,29.03 2.06,56.79 -1.49,80.17 17.03,-7.72 12.49,-13.55 24.06,-37.37 3.79,-7.81 -0.18,-0.28 4.65,-7.95 0.67,-1.05 2.8,-3.84 3.46,-4.9l14.24 -28.15c14.3,-32.6 46,-190.24 34.5,-211.95 -5.85,-11.05 -19.79,-16.66 -26.35,-38.34 -4.01,-13.28 -1.48,-28.8 -6.96,-46.24 -17.45,8.9 -41.24,54.25 -49.61,72.98 -7.47,16.68 -9.32,24.67 -18.92,40.71 -7.88,13.18 -14.94,26.95 -24.43,39.34 -18.54,24.19 -38.43,49.06 -65.79,58.67 -64.3,22.59 -47.02,-21.98 -38.52,-59.21z"/>
   <path class="fil6" d="M2396.06 2383.27l30.22 24.66c15.49,-13.81 21.99,-33.3 37.29,-60.46 21.56,-38.27 65.76,-97.23 95.54,-130.97l40.15 -36.86c91.35,-72.05 183.9,-84.92 309.9,-39.21 112.32,40.76 152.98,97.3 199.43,202.12 21.73,49.04 29.44,106.35 41.95,158.98l19.94 172.08c5.2,-12.71 24.25,-71.78 25.33,-84.9 4.35,-53.07 -5.4,-149.32 -24.33,-197.53 -35.82,-91.22 -44.97,-139.84 -115.86,-217.88 -33.03,-36.36 -51.88,-50.91 -91.25,-75.32 -66.71,-41.38 -143.83,-53.73 -223.25,-42.08 -56.62,8.3 -97.16,24.47 -137.76,54.94 -28.56,21.44 -43.9,25.82 -78.96,62.36 -5.89,6.13 -7.72,7.35 -12.9,12.57 -6.47,6.51 -7.11,8.22 -13.69,16.48 -4.08,5.12 -8.25,9.81 -11.26,14.54 -24.3,38.12 -27.53,35.57 -56.61,84.47 -7.67,12.9 -33.47,65.29 -33.88,82.01z"/>
   <path class="fil0" d="M750.79 2897.55c61.78,47.47 67.96,82.25 70.7,157.98 0.89,24.65 -10.8,31.21 -14.27,59.15 27.07,-6.93 44.93,-15.37 69.22,-25.19 4.92,-1.99 89.72,-21.44 108.11,-32.56 8.68,-5.24 11.26,-13.83 22.14,-24.67 34.51,-34.38 149.51,-64.13 198.87,-75.33 28.48,-6.46 46.8,-13.5 75.92,-16.86 23.56,-2.72 55.75,-6.19 71.85,-18.16 -49.32,-16.68 -12,12 -63.93,-38.16l-16.88 -17.86c-19.21,4.15 -42.84,11.58 -59.88,14.56 -174.27,30.41 -237.41,11.27 -330.31,23.32 -34.92,4.53 -89.06,-9.66 -131.54,-6.22z"/>
   <path class="fil7" d="M1107.14 2251.47c24.39,-37.05 1.68,-37.83 7.3,-86.96l34.11 58.76c31.7,5.04 18.93,-3.96 35.83,-8.49 4.92,-1.32 60.49,15.75 46.47,-49.09 7.54,2.35 19.43,9.1 28.84,13.25l19.89 -12.66c0.71,-0.48 1.94,-1.45 3,-2.04 10.99,22 18.09,14.93 37.57,5.84 27.4,-12.79 31.8,2.4 50.69,-13.16 7.31,-13.33 -2.66,-44.9 -3.43,-65.49 -38.65,-15.81 -12.88,-14.04 -34.3,-41.67 -30.68,-2.86 -28.93,2.46 -39.22,13.02 -16.91,-8.48 -14.25,-8.66 -35.51,-5.11 -5.93,8.79 -1.51,-2.56 -6.77,10.24 -3.07,7.46 -3.68,3.21 -0.65,7.59 -13.04,-56.38 -26.46,-47.09 -51.12,-11.55 -0.77,-0.82 -1.72,-3.42 -2.08,-2.67 -3.9,7.96 -6.16,-24.65 -32.08,-12.16 -21.23,11.58 -4.8,17.41 -21.41,39.16 -8.79,-12.97 -10.08,-12.43 -9.63,-32.77l-18.99 -7.41c-44.1,-17.28 -2.05,-19.69 -41.11,-24.22 -21.1,27.62 -18.17,85.48 -18.29,128.55 -0.11,43.17 1.89,99.67 50.89,99.04z"/>
   <path class="fil7" d="M1614.5 2023.9c-17.31,-6.27 -5.02,-14.38 -34.2,-21.65 -13.09,12.09 -11.95,15.14 -20.87,30.7 -15.56,-0.56 -17.44,-0.1 -28.91,0.95 -32.08,2.94 -34.11,-21.6 -57.09,15.61 -12.74,-5.51 -18.03,-24.73 -37.76,-12.11 -10.51,6.73 -7.15,9.59 -14.36,15.61 -5.54,4.63 -11.68,5.91 -20.5,10.21 -5.57,32.57 -5.49,37.68 2.56,69.62 6.36,25.27 5.53,34.52 27.32,45.66 13.29,-6.04 15.95,-11.04 21.37,-24.86 15.03,4.85 19.38,6.07 39.57,-8.93l7.45 -6.09c29.01,14.2 23.38,5.5 45.51,-0.57 19.3,-5.31 10.02,10.75 26.12,-7.83 3.82,-4.42 10.26,-16.28 13.87,-21.11 18.59,6.67 14.29,16.82 38.35,16.7 7.04,-0.04 40.27,-5.41 46.37,-8.3 9.11,-4.32 24.39,-19.92 34.95,-19.01 22.37,1.94 0.66,25.23 33.18,20.01 14.17,-2.28 20.72,-17.39 31.88,-24.88 14.82,-9.95 21.04,-11.49 20.04,-34.6 -0.68,-15.85 -7.48,-32.13 -9.46,-48.02 -2.73,-21.93 1.37,-25.07 -25.88,-29.72 -2.51,2.37 -6.88,6.48 -9.85,9.9 -0.79,0.92 -3.11,3.86 -3.89,4.81l-4.04 4.96c-0.43,0.54 -1.29,1.73 -2.03,2.52 -17.37,-13.46 -18.73,-13.56 -38.47,-5.03 -13.67,-15.19 -23.24,-27.73 -46.93,-18.55 -16.56,6.41 -27.6,28.55 -34.3,44z"/>
   <path class="fil7" d="M1619.27 2386.82c7.76,22.82 22.97,21.72 51.02,18.84 28.79,-2.97 7.24,-7.04 36.82,-26.66 -19.64,-17.31 1.16,-14.32 -11.27,-38.48l-41.05 -24.25c-25.91,-8.87 -17.75,13.72 -40.37,15.99 -42.87,4.28 -61.3,-23.85 -81.39,12.57 -20.56,-9.78 -4.54,-13.42 -35.38,-14.01 -19.13,29.27 -7.78,20.87 -12.12,53.24 -11.73,-5.35 -66.55,-77.83 -79.09,0.38 0.03,-14.34 -19.97,-18.36 -37.46,-15.64 -11.71,27.15 4.11,42.07 -0.44,76.1 -3.92,-17.62 -17.88,-11.44 -35.33,-36.45 -14.67,-21.04 -12.07,-31.09 -42.11,-19.55 -7.64,27.72 -0.1,30.73 5.86,48.77 -5.89,-4.38 -6.03,-5.89 -12.43,-7.29 -14.03,-3.06 -5.77,-2.01 -9.29,1.82l-3.54 -17.07c-9.16,-19.37 -16.37,-16.79 -28.25,-13.37l-14.38 25.6 21.4 -4.16c-5.65,12.68 9.96,32.57 19.69,43.57 17.57,19.88 64.11,57.62 84.17,58.73 31.87,1.75 18.96,-24.64 12.64,-39.51 16.41,2.34 24.41,10.34 36.72,3.69 15.25,-8.24 0.88,-4.52 14.17,-24.27 13.37,4.04 17.91,6.53 36.51,3.91l3.35 -33.51c18.85,22.89 35.93,-6.5 62.95,-13.72 71.04,-18.99 41.19,-6.31 59.62,-31.89l38.98 -3.38z"/>
   <path class="fil7" d="M1905.2 1986.06c-12.03,-23.85 3.65,-42.51 -13.37,-71.4 -16.41,-1.16 -21.91,2.9 -32,8.7 -3.63,26.74 -4.85,44.29 -3.48,71.13 1.44,28.23 -7.49,34.32 -7.55,65.67 37.43,25.28 36.56,34.14 56.4,37.55 12.54,-9.12 15.28,-20.21 19.81,-31.86 1.06,0.66 2.53,0.54 3.07,2.13l11.93 7.3c5.27,2.25 7.6,3.73 14.28,1.62 13.22,-4.2 -0.98,-5.14 29.62,-17.82 8.69,-3.6 19.02,-8.57 25.15,-16.82 18.14,-24.38 -1.25,-22.71 15.83,-30.9 1.11,5.14 -3.89,58.21 34.17,39.3 4.11,-2.04 35.67,-27.25 42.64,-43.96 6.9,-16.55 9.82,-35.1 9.04,-53.42 -24.66,-25.05 -7.46,0 -21.14,-32.22 -9.34,-21.99 -21.42,-16.78 -31.04,-24.84 -20.34,-17.03 -2.91,-46.32 -33.72,-49.32 -31.84,-3.09 -24.03,39.56 -34.22,53.51 -8.92,12.2 -29.26,1.69 -44.75,10.2 -11.33,6.23 -28.56,53.85 -37.34,69.85 -0.42,0.76 -1.3,2.19 -1.65,2.8 -0.35,0.62 -1.04,1.92 -1.68,2.8z"/>
   <path class="fil1" d="M1516.09 1706.32c54.64,-9.66 64.76,6.27 111.46,7.59 49.48,1.4 63.85,28.38 30.92,54.95l-53.96 27.42c-66.61,24.47 -27.78,8.87 -89.94,20.76 -17.75,3.4 -27.7,9.29 -46.15,14.36 -42.87,11.76 -67.42,9.19 -112.3,16.61 -80.05,13.23 -41.46,-106.06 159.97,-141.69zm195.66 18.6l-4.19 -11.42c-50.44,-30.16 11.76,-28.81 -117.13,-40.62 -49.7,-4.55 -99.68,-7.15 -142.97,9.26 -32.35,12.27 -84.06,33.47 -106.18,51.68 -78.43,64.52 -72.21,140.71 -25.51,149.6 61.71,11.75 161.39,-19.57 208.66,-30.23 68.47,-15.42 210.62,-38.06 187.32,-128.27z"/>
   <path class="fil1" d="M3303.67 1116.43c6.5,-30.03 11.24,-23.91 6.03,-62.97 10,1.85 74.47,29.1 72.28,54.44l-78.31 8.53zm-190.25 -1.94c13.36,-38.77 40.52,-56.67 79.14,-73.16 -14.09,41.83 -10.99,30.09 -2.4,71.86l-76.74 1.3zm-23.84 -0.85c-9.91,8.31 -14.69,8.92 -18.26,25.65 25.96,23.23 108.93,7.85 171.99,7.6l132.57 -5.81c8.73,-1.09 12.63,-2.34 21.11,-5.4l18.49 -9.22c-10.54,-64.04 -31.47,-76.24 -87.72,-106.01 -17.44,-9.23 -50.56,-17.31 -71.6,-18.28 -115.51,-5.34 -190.06,77.7 -166.58,111.47z"/>
   <path class="fil4" d="M1516.09 1706.32c-201.43,35.63 -240.02,154.92 -159.97,141.69 44.88,-7.42 69.43,-4.85 112.3,-16.61 18.45,-5.07 28.4,-10.96 46.15,-14.36 62.16,-11.89 23.33,3.71 89.94,-20.76l53.96 -27.42c32.93,-26.57 18.56,-53.55 -30.92,-54.95 -46.7,-1.32 -56.82,-17.25 -111.46,-7.59z"/>
   <path class="fil7" d="M1965.59 2422.64c11.76,-8.74 33.95,-51.24 40.38,-67.97 -13.21,-9.92 -8.46,-0.33 -10.62,-18.38 -0.06,-0.49 0.17,-20.04 0.16,-21.34 -0.59,-61.08 -12.38,-46.53 -43.07,-34.43 -18.77,7.4 -2.78,-1.83 -36.66,1.26 -25.58,2.34 -18.72,-5.91 -36.04,-4.65 -14.6,1.06 -15.06,10.02 -25.84,18.3 -17.96,-16.65 -35.58,-3.12 -47.03,7.73l-2.79 -6.89c-7.01,-17.7 -0.91,-14.63 -12.35,-19.78 -27.35,-12.3 -43.72,34.98 -46.37,63.9 -3.93,42.73 -18.11,21.46 -22.57,48.9 -3.63,22.32 14.67,35.18 37.06,32.75 12.21,-7.3 21.58,-25.54 35.37,-33.98 34.03,-20.83 37.29,21.02 37.3,21.05 42.87,1.62 29.57,-12.6 53.95,-22.57 10.18,-4.16 10.78,0.88 26.24,-5 10.96,-4.17 12.74,-11.99 19.75,-5.15 15.32,12.61 -1.97,-14.64 2.01,3.88 3.06,14.3 -5.63,4.45 6.18,40.25l24.94 2.12z"/>
   <path class="fil0" d="M2038.83 74.85c11.57,-35.88 53.28,-6.48 130.74,3.77 -1.5,-53.49 -61.47,-79.03 -114.8,-77.9 -53.5,1.13 -83.43,59.52 -76.42,112.82 11.44,19.9 100.82,25.94 118.94,42.53 -10.07,40.42 -71.82,2.23 -129.85,-7.18 2.64,34.63 12.78,49.95 35.7,63.27 73.31,42.64 169.27,9.64 154.15,-95.27 -19.72,-14.56 -30.49,-13.17 -58.77,-21.74 -18.7,-5.67 -46.96,-8 -59.69,-20.3z"/>
   <path class="fil7" d="M1707.56 1713.5l4.19 11.42c13.63,17.94 8.24,89.53 57.24,77.88 7.05,-17.77 6.99,-33.55 9.13,-55.1 18.15,24.23 39.57,27.05 64.93,25.46 4.37,-8.36 5.77,-16.12 15.12,-21.89 23.69,10.17 34.01,42.58 65.06,0.75 25.6,26.73 33.67,11.39 77.06,-9.14 14.07,-6.65 16.01,-11.22 20.29,-21.25 -13.69,-19.1 -13.95,-29.95 -37.99,-44.69 -37,-8.83 -37.43,34.55 -38.92,37.71 -11.59,-20.65 -16.51,-52.36 -43.76,-47.51 -20.32,10.58 -11.24,18.79 -20.36,34.32 -12.55,-18.7 -24.02,-63.13 -59.85,-39.04 -6.01,12.53 -1,48.12 -0.68,66.58 -36.41,-18.72 -23.31,-52.82 -37.8,-77.24 -27.12,-10.28 -27.43,1.8 -38.47,21.23 -62.54,10.48 -22.11,5.04 -35.19,40.51z"/>
   <path class="fil1" d="M379.83 2990.56c14.59,-6.28 26.16,-13.3 39.17,-10.78 96.64,18.68 171.99,73.68 205.93,40.45 -7.25,-25.01 -52.45,-24.47 -111.19,-53.51 -11.95,-5.92 -140.71,-45.89 -106.91,1.14 -20.73,-18.8 -34.26,-10.81 -65.21,-2.72 -59.01,15.41 -63.28,23.12 -73.37,42.78 -14.24,27.74 -14.67,40.46 14.51,61.67 117.26,85.2 157.7,47.93 190.35,60.68 0.33,0.13 45.6,70.29 102.96,57.22 8.4,-35.53 -25.49,-29.44 -56.43,-55.62 -3.97,-3.37 -10.63,-9.73 -14.78,-15.37 -26.91,-36.58 -9.41,-16.71 -53.97,-22.53 -109.61,-14.32 -79.65,-15.71 -134,-45.44 -18.95,-10.37 -23.66,-9.44 -22.71,-32.58 32.9,-11.49 52.21,-11.01 85.65,-25.39z"/>
   <path class="fil1" d="M2151.07 639.46l8.92 187.93c0.97,29.64 2.54,59.85 6.79,89.45 4.17,29.02 3.43,60.71 6.58,92.56 12.04,121.83 15.66,243.84 28.23,358.19 3.53,21.66 10.84,99.2 18.5,116.8 5.96,-134.56 -4.88,-415.59 -23.85,-559.23l-13.39 -217.78c-0.32,-14.06 1.75,-12.73 -1.98,-27.47 -0.02,-0.08 -4.12,-11.95 -4.4,-13.1 -0.32,-1.24 -0.58,-2.28 -0.85,-3.57 -0.27,-1.34 -0.41,-2.38 -0.65,-3.76 -5.14,-29.71 -3.5,-29.06 -23.9,-20.02z"/>
   <path class="fil1" d="M2833.22 1514.19c4.48,12.06 -3.36,4 7.47,11.99 38.75,0.86 71.8,-3.76 116.01,-0.65 16.43,1.15 31,6.11 48.14,9.53l41.42 10.08c1.2,0.42 2.42,0.94 3.51,1.35l-12.04 28.54c-32.32,32.11 -63.33,36.96 -73.23,64.05l6.1 11.88c56.52,6.23 98.03,-75.77 128.28,-108.82 25.36,-27.71 14.72,-23.56 -25.24,-79.6 -64.31,-90.19 -61.6,-15.54 -132.9,-46.51 -12.54,-5.45 -24.98,-9.97 -39.64,-12.06 -15.05,-2.16 -35.44,-3.53 -48.16,5.21 0.01,30.71 23.42,18.34 58.02,28.63 24.07,7.16 37.42,25.31 64.49,15.56 20.94,-7.55 40.95,-19.91 60.4,4.14 10.24,12.66 25.08,41.25 29.47,59.33 -10.57,-2.81 -21.44,-5.2 -31.88,-9.85 -13.47,-6 -3.85,-5.07 -23.9,-9.05 -20.04,-3.98 -45.58,-5.91 -65.31,-8.1 -28.65,-3.17 -93.8,-5.05 -111.01,24.35z"/>
   <path class="fil7" d="M1062.02 1872.97l2.83 15.76c-1.26,14.31 -14.02,29.15 11.02,49.71 62.18,-18.8 32.3,-71.75 86.11,-131.83 5.11,-5.72 9.93,-10 14.44,-15.53 -3.4,33.18 -27.58,74.34 -10.25,112.42 38.68,9.97 34.61,-7.69 48.37,-26.61 27.38,-1.13 32.34,8.5 52.74,5.11 10.98,-17.4 34.66,-89.24 -14.41,-64.91 -19.48,-85.15 -18.98,-29.39 -42.54,-55.41 -14.04,-15.51 -10.5,-17.68 -37.88,-14.17 -26.16,13.74 -43.33,40.75 -58.81,57.88 -24.82,27.48 -37.45,35.78 -51.62,67.58z"/>
   <path class="fil8" d="M448.09 2401.58c-3.39,-19.35 8.48,-92.72 14.39,-105.99 2.86,12.21 12.12,34.16 17.35,50.61 5.61,17.62 13.93,37.49 14.41,58.4l-46.15 -3.02zm-53.01 -9.76c0.94,25.93 13.12,10.6 9.87,55.64 -1.54,21.19 -9.45,38.15 -0.23,51.35 29.12,0.12 28.13,-36.16 30.5,-68.53 38.47,-4.93 73.06,0.45 81.84,39.99 7.97,35.89 7.43,73.04 25.64,99.65 11.89,1.08 15.49,-0.3 22.76,-4.56 -1.83,-15.18 -6.19,-18.84 -8.61,-45.02 -2.03,-22.08 -8.58,-13.52 -11.74,-38.76 -8.56,-68.4 -17.26,-101.8 -42.75,-165.76 -11.02,-27.66 -7.34,-35.07 -42.07,-61.88 -9.91,4.84 -15.95,9.65 -20.62,23.86l-21.44 102.94c-7.52,5.96 -2.38,1.1 -10.26,4.76 -0.88,0.4 -2.22,0.98 -3.05,1.37 -0.88,0.42 -2.47,1.18 -3.2,1.53l-6.64 3.42z"/>
   <path class="fil1" d="M2045.88 917.7c10.75,10.19 10.98,47.13 13.65,61.94 4.54,25.3 9.63,39.04 14.26,63.64l27.06 186.76c10.06,52.47 15.64,104.19 39.63,152.53 7.11,14.33 8.74,18.77 17.95,24.04 -0.93,-29.04 -3.5,-46.78 -7.33,-74.26l-48.64 -335.07 -32.02 -120.4 -24.48 2.93 -0.08 37.89z"/>
   <path class="fil9" d="M2201.59 1367.59c-12.57,-114.35 -16.19,-236.36 -28.23,-358.19 -3.15,-31.85 -2.41,-63.54 -6.58,-92.56 -4.25,-29.6 -5.82,-59.81 -6.79,-89.45l-8.92 -187.93 -18.85 -2.1c0.96,73.22 11.54,147.42 14.23,219.64 4.26,114.37 16.4,224.94 19.61,329.34 2.65,86.24 16.02,198.78 16.69,273.72 0.24,26.57 -4.48,33.37 22.8,35.21 10.05,-28.46 0.7,-98.69 -3.96,-127.68z"/>
   <path class="fil8" d="M911.75 2609.84l57.25 -69.33c17.58,5.43 13.89,9 29.67,17.77 3.65,53.29 9.47,106.75 -54.43,76.44l-23.53 -15.12c-7.97,-7.59 -2.51,-1.1 -8.96,-9.76zm-100.27 83.68c28.05,-1.23 10.51,1.23 28.59,-15.98 28.66,-27.29 32.41,-43.99 50.82,-41.09 5.67,0.89 24.69,13.78 29.84,17.4 18.43,12.97 37.59,30.04 67.38,21.74 15.01,-4.18 18.26,-13.37 25.53,-21.19l4.3 -4.18c31.72,-29.97 11.48,-95.21 4.79,-107.16 -10.63,-19.02 -27.18,-16.93 -46,-27.05 -38.46,-20.68 -37.59,24.94 -57.92,38.65l-27.63 20.01c-15.59,14.44 -8.98,7.29 -33.02,10 -1.34,23.83 3.33,16.81 -9,33.96 -15.54,21.59 -41.67,45.09 -37.68,74.89z"/>
   <path class="fil5" d="M2840.69 1526.18c-2.36,31.25 -0.12,23.34 13.51,45.08 9.24,14.74 16.21,21.09 29.27,30.42 25.37,18.15 40.82,36.42 81.03,37.4 9.9,-27.09 40.91,-31.94 73.23,-64.05l12.04 -28.54c-1.09,-0.41 -2.31,-0.93 -3.51,-1.35l-41.42 -10.08c-17.14,-3.42 -31.71,-8.38 -48.14,-9.53 -44.21,-3.11 -77.26,1.51 -116.01,0.65z"/>
   <path class="fil0" d="M267.79 3666.08c24.01,-13.87 16.03,-21.45 28.49,-44.23 6.42,-11.72 9.75,-12.65 15.43,-23.74l77.16 -140.73c6.65,-11.26 3.66,-8.51 13.01,-20.94 10.65,-14.14 16.24,-27 26.93,-45.72 28.31,-49.49 48.07,-59.74 57.53,-84.63 -25.53,-0.77 -45.24,-5.34 -63.21,10.27 -14.29,12.42 -21.08,27.41 -30.8,41.91 -8.19,12.21 -20.44,28.76 -29.99,42.84 -11.23,16.53 -14.7,28.79 -24.26,48.49 -7.91,16.32 -16.51,34.86 -22.03,50.56l-48.26 165.92z"/>
   <path class="fil8" d="M684.55 2468.77c1.16,-12.28 30.65,-66.35 41.04,-72.68l9.86 40.79c2.98,11.61 2.91,35.46 2.02,48.1 -10.16,-0.27 -21.57,0.21 -30.83,-2.53l-19.08 -11.27c-0.52,-1.66 -2.05,-1.56 -3.01,-2.41zm77.56 -19.79c-6.14,-21.94 -6.7,-51.82 -11.22,-78.53l-29.83 -7.71c-39.49,54.79 -50.3,78.74 -77.67,118.03 -17.12,24.56 -34.14,39.97 -38.33,77.91 24.43,0.06 16.62,4.2 35,-25.29 10.17,-16.33 11.57,-20.88 21.88,-33.56 19.88,-1.43 59.26,13.67 74.67,21.5 2.29,30.82 -19.78,127.43 31.47,103.72 6.94,-21.49 -10.76,-56 -2.15,-92.04l34.5 -3.37 -1.25 -27.57c-51.05,-11.05 -23.23,-3.61 -37.07,-53.09z"/>
   <path class="fil8" d="M82.43 2333.94c-1.55,-3.32 -2.21,1.25 -2.82,-11.04 -0.83,-16.8 -2.22,8.54 0.47,-7.07 1.91,-11.05 9.1,-31.41 25.48,-36.67 29.63,-9.51 45.58,9.33 65.2,-2.76 3.65,-43.92 -99.82,-49.77 -117.33,26.27 -3.8,16.52 -1.93,30.67 4.11,46.31 0.41,1.05 0.96,2.3 1.36,3.21l3.37 5.85c0.25,-0.62 1.09,1.97 1.87,2.77 19.89,15.13 61.85,0.26 88.36,7.78 33.43,34.09 8.36,64.09 -22.18,86.67 -46.2,34.15 -70.52,-8.13 -93.32,-8.1 -29.32,0.03 -19.73,19.69 2.72,36.21 44.35,32.63 80.13,21.89 115.45,-7.85 16.58,-13.96 19.12,-8.03 24.89,-28.15 2.45,-8.5 -0.82,-1.94 2.83,-9.13 3.43,-6.77 0.35,1.48 4.48,-6.78 17.11,-34.22 1.59,-66.26 -22.05,-92.3 -24.4,-0.34 -64.17,3.22 -82.89,-5.22z"/>
   <path class="fil5" d="M2833.22 1514.19c17.21,-29.4 82.36,-27.52 111.01,-24.35 19.73,2.19 45.27,4.12 65.31,8.1 20.05,3.98 10.43,3.05 23.9,9.05 10.44,4.65 21.31,7.04 31.88,9.85 -4.39,-18.08 -19.23,-46.67 -29.47,-59.33 -19.45,-24.05 -39.46,-11.69 -60.4,-4.14 -27.07,9.75 -40.42,-8.4 -64.49,-15.56 -34.6,-10.29 -58.01,2.08 -58.02,-28.63 -5.91,8.8 -11.17,14.46 -15.26,21.61 -2.97,5.19 -12.27,21.69 -13.66,24.83 -7.86,17.67 0.5,47.01 9.2,58.57z"/>
   <path class="fil6" d="M2045.88 917.7c-11.53,-9.11 -1.72,-2.93 -8.48,-8.96 -5.64,-5.03 1.74,-1.84 -8.23,-5.88 -6.99,10.89 -5.73,21.39 -3.47,39.38 1.51,12.1 3.08,20.15 5.13,33.76 9.26,61.48 2.95,43.54 17.78,97.13 7.93,28.67 13.6,128.46 16.29,141.43 2.82,13.63 3.78,12.39 5.49,31.52l17.8 99.47c4.16,12.68 6.03,13.9 8.28,29.44 7.22,49.64 0.92,52.87 22.77,55.03 13.12,-32.67 -23.03,-152.5 -30.71,-185.87 0,0 -10.83,-144.3 -22.5,-200.19 -7.71,-36.93 -20.48,-87.56 -20.15,-126.26z"/>
   <path class="fil0" d="M1892.04 420.99c6.16,1.44 16.08,4.46 22.2,4.87l17.97 -3.04c17.02,-6.46 -9.54,-6.83 19.21,-5.57 36.02,1.57 40.69,21.8 43.96,25.08 6.15,6.17 3.62,5.92 17.46,8.89 8.11,1.73 12.33,1.52 20.29,1.76 -2.01,-20.6 -23.52,-139.66 -29.61,-151.41 -22.39,-4.09 -28,9.95 -37.87,21.93 -21.7,26.36 -69.69,78.1 -73.61,97.49z"/>
   <path class="fil1" d="M3026.73 1015.32c27.38,44.45 38.84,-3.77 112.86,-52.78 23.01,-15.24 153.83,-96.15 156.86,-103.44 7.7,-18.56 -19,-15.99 -31.68,-10.76 -49.55,20.44 -97.29,55.02 -143.64,83.15l-50.36 35.16c-11.25,9.72 -39.76,36.84 -44.04,48.67z"/>
   <path class="fil1" d="M2359.27 938.81c2.41,38.97 -21.68,122.55 -32.37,160.16 -7.94,27.97 -13.65,52.95 -18.84,79.64 -6.49,33.44 -7.02,55.49 -11.11,92.01 8.53,2.13 6.89,7.37 15.08,-10.84l22.09 -67.54c12.91,-31.98 55.84,-200.73 58.51,-237.06 1.1,-14.86 0.03,-25.03 -6.3,-35.47 -5.13,-8.47 0.81,-1 -6.62,-7.42 -25.35,9.32 -9.51,7.22 -20.44,26.52z"/>
   <path class="fil4" d="M2052.89 2475.31c15.5,1.51 19.78,2.97 30.79,-7.1 49.55,-45.33 15.02,-127.55 20.26,-177.52 2.29,-21.91 21.52,-47.67 10.72,-68.24 -25.81,34.31 -31.66,75.58 -51.94,113.25 -22,40.86 -17.4,14.43 -15.4,60.11 1.48,33.9 -0.21,45.4 5.57,79.5z"/>
   <path class="fil4" d="M1293.84 2613.37c15.52,-22.81 22.37,-48.44 -6.46,-65.03 -40.86,-23.51 -33.8,-13.03 -65.17,-33.28 -13.12,-8.47 -15.5,-8.55 -29.02,-18.08 -12.97,-9.14 -20.9,-15.16 -29.58,-21.88 -9.91,-7.68 -16.71,-13.07 -26.53,-20.5 -24.75,-18.72 -14.75,-15.66 -26.26,-24.62 13.08,32.3 5.13,32.31 27.46,61.83 29.94,39.59 60.1,46.94 97.51,86.1 19.92,20.85 19.12,41.58 58.05,35.46z"/>
   <path class="fil4" d="M217.36 3375.37c0.96,-12.53 -7.91,-33.06 -13.4,-43.87 -18.49,-36.39 -27.72,-21.47 -51.46,-59.87 -31.97,16.89 -39.81,25.43 -71.62,-6.27 -9.21,37.05 -7.88,38.7 10.27,56.02l13.25 12.28c18.8,15.92 57.46,34.88 82.28,46.08 16.44,7.43 28.89,18.94 30.68,-4.37z"/>
   <path class="fil4" d="M121.95 3250.94c24.69,-29.95 10.4,-104.56 -0.81,-135.86 -24.08,-2.57 -67.72,-13.27 -85.44,-27.35 -4.51,39.55 17.5,63.91 36.08,90.07 13.32,18.75 24.9,66.83 50.17,73.14z"/>
   <path class="fil1" d="M2308.5 603.23c-1.91,20.74 -9.44,35.91 -12.88,58.56 -3,19.78 -7.63,37 -10.57,57.22 -5.48,37.57 -12.59,90.45 -12.94,127.28 1.24,13.01 2.46,22.52 4.61,32.3 0.85,3.86 2.21,9.18 4.11,13.3 4.17,8.98 0.2,2.88 6.37,9.49l51.29 -305c-19.34,-11.5 -17.61,-5.75 -29.99,6.85z"/>
   <path class="fil1" d="M285.04 4063.29l36.06 0c6.52,-48.65 22.82,-49.69 42.35,-118.4 2.1,-7.41 1.38,-5.15 5.83,-14.54 8.65,-18.28 16.13,-44.95 23.79,-66.85 6.25,-17.85 32.31,-47.32 -9.71,-42.84 -16.09,23.02 -40.02,90.05 -50.48,120.58l-47.84 122.05z"/>
   <path class="fil9" d="M2272.11 846.29c0.35,-36.83 7.46,-89.71 12.94,-127.28 2.94,-20.22 7.57,-37.44 10.57,-57.22 3.44,-22.65 10.97,-37.82 12.88,-58.56 -10.53,-12.98 1.79,-5.56 -14.3,-12.01 -16.29,13.57 -21.43,47.92 -25.47,69.9 -9.72,52.91 -5.94,54.42 -10.82,83.06 -4.83,28.33 -6.92,54.28 -12.26,81.04 -2.6,13.03 -3.03,31.37 -3.3,45.19 -0.44,23.2 -2.71,24.37 19.11,26.3 8.1,-18.51 -0.32,-34.7 10.65,-50.42z"/>
   <path class="fil8" d="M263.65 2260.83c-18.7,26.3 -12.87,115.18 -10.09,152.5 1.84,24.7 2.35,57.36 21.17,65.01 8.45,3.43 63.67,5.73 76.32,5.05l1.87 -22.99c-58.53,-23.56 -66.52,12.31 -70.02,-77.42 -1.43,-36.69 -8.47,-20.07 -8.91,-63.84 -0.2,-19.07 0.55,-47.35 -10.34,-58.31z"/>
   <path class="fil9" d="M2296.95 1270.62c4.09,-36.52 4.62,-58.57 11.11,-92.01 5.19,-26.69 10.9,-51.67 18.84,-79.64 10.69,-37.61 34.78,-121.19 32.37,-160.16l-9.49 -4.78c-19.38,31.26 -35.73,139.72 -44.81,182.44l-29.51 143.18c-0.21,23.53 17.76,28.11 21.49,10.97z"/>
   <path class="fil4" d="M2667.54 918.42c-1.72,8.81 -3.38,51.94 -3,64.13 18.76,-3.56 36.46,-9.74 57.03,-11.65 23.57,-2.18 45.16,2.02 67.75,2.15l-48.27 -58.26c-25.29,-24.04 -44.09,-12.39 -73.51,3.63z"/>
   <path class="fil1" d="M3135.12 4063.29l42.94 0c-13.56,-33.26 -34.04,-48.99 -37.83,-76.81 -4.61,-33.82 -10.07,-62.85 -25.6,-88.27 -16.8,-3.35 -11.34,-0.95 -30.05,1.72 -6.09,0.87 -2.49,-0.57 -5.95,0.92 5.13,14.21 13.6,6.21 15.67,26.47 3.37,33.06 -1.76,5.87 -13.4,24.83 0.75,0.41 2.02,0.67 2.47,0.76l16.75 0.77c-2.47,33.39 12.72,42.77 5.56,62.02 -0.27,0.72 -2.43,3.52 -2.93,4.84 12.36,5.67 9.16,-5.67 19.7,13.12 3.41,6.08 10.45,23.7 12.67,29.63z"/>
   <path class="fil10" d="M2194.05 1768.99c12.89,13 1,8.8 25.7,10.24 2.94,-47.8 -19.45,-71.29 -36.17,-105.13 -24.63,-49.81 -32.83,-72.63 -63.73,-55.34 -1.22,25.13 9.2,19.14 18.34,42.91 7.05,18.32 10.39,26.15 19.61,45.14l22.54 42.24c2.9,5.28 9.39,15.58 13.71,19.94z"/>
   <path class="fil10" d="M2001.34 1240.84c5.88,25.23 19.01,60.12 18.3,85.62 24.17,-1.75 21.68,-8.91 16.19,-35.16 -2.69,-12.85 -4.08,-13.81 -3.6,-28.1l4.91 -23.73c-14.55,-14.18 -16.17,-54.92 -22.93,-77.03 -5.03,-16.47 -18.67,-64.91 -19.39,-79.82l-20.79 9.71c-1.95,37.84 10.06,44.62 13.84,73.12 4.24,31.89 9.58,44.85 13.47,75.39z"/>
   <path class="fil1" d="M1994.82 1082.62c0.72,14.91 14.36,63.35 19.39,79.82 6.76,22.11 8.38,62.85 22.93,77.03 2.36,17.38 11.26,38.07 23.54,47.68 -2.08,-60.27 5.08,-54.86 -13.47,-128.51 -20.23,-80.37 -12.68,-41.35 -30.11,-76.2 -7.76,-15.53 4.42,-13.1 -17.86,-14.8 -5.44,7.67 -3.78,-2.26 -4.42,14.98z"/>
   <path class="fil10" d="M2404.72 1514.54c11.08,-29 8.99,-105.19 -0.7,-138.68 -7.31,-25.25 -11.11,-25.29 -20.04,-29.39 -12.07,12.91 -10.32,24.38 -9.7,44.96 2.49,81.98 -16.22,122.36 30.44,123.11z"/>
   <path class="fil1" d="M1976.42 1284.88l18.87 64.95c15.39,15.37 3.72,31.45 25.33,41.06l-0.58 -4.77c7.23,-49.95 -0.83,-26.38 -0.4,-59.66 0.71,-25.5 -12.42,-60.39 -18.3,-85.62 -9.45,-8.16 -12.1,-14.89 -30.82,-10.57 -3.33,25.99 3.67,30.32 5.9,54.61z"/>
   <path class="fil10" d="M1995.29 1349.83l-18.87 -64.95c-13.65,-26.39 5.9,-29.58 -28.48,-28.71 -0.61,1.11 -1.15,2.67 -1.36,3.56l28.82 129.21c5.2,26.57 4.04,23.31 23.84,32.09 14.65,-24.58 -1.37,-38.54 -3.95,-71.2z"/>
   <path class="fil11" d="M3414.13 2147.49c34.53,-5.46 110.9,-80.5 135.65,-111.64 0.56,-0.7 1.26,-1.76 1.83,-2.46 5.96,-7.33 22.97,-17.75 9.79,-30.53 -12.62,-12.24 3.49,4.69 -10.91,-5.24 -11.44,12.52 -20.25,29.14 -30.48,42.57 -37.84,49.73 -86.02,81.72 -105.88,107.3z"/>
   <path class="fil1" d="M3274.69 1831.82c19.76,21.5 34.53,19.3 61.45,7.42 21.66,-9.57 50.99,-15.56 52.18,-43.18 -20.76,-10.81 -35.81,-1.69 -55.21,10.07 -34.62,20.99 -42.78,3.76 -58.42,25.69z"/>
   <path class="fil0" d="M3113.42 1114.49l76.74 -1.3c-8.59,-41.77 -11.69,-30.03 2.4,-71.86 -38.62,16.49 -65.78,34.39 -79.14,73.16z"/>
   <path class="fil1" d="M751.76 1787.7c-6.96,-10.44 -21.74,-51.72 -39.47,-36.71 -18.44,15.62 31.01,107 77.17,80.53 6.14,-19.57 -24.38,-23.83 -37.7,-43.82z"/>
   <path class="fil0" d="M2793.1 1081.08l76.21 1.68c-13.98,-39.33 -42.87,-56.51 -77.39,-73.06 11.02,41.77 9.29,30.73 1.18,71.38z"/>
   <path class="fil0" d="M3303.67 1116.43l78.31 -8.53c2.19,-25.34 -62.28,-52.59 -72.28,-54.44 5.21,39.06 0.47,32.94 -6.03,62.97z"/>
   <path class="fil1" d="M720.77 1930.43c-7.94,-7.05 -13.15,-14.07 -21.16,-21.86l-21.3 -18.56c-20.96,15.86 -5.8,36.55 6.71,50.73 35.44,40.19 77.23,35.47 57.88,6.23 -2.5,-3.78 -16.74,-11.74 -22.13,-16.54z"/>
   <path class="fil1" d="M3120.86 2095.74c10.22,5.37 33.79,7.73 50,6.26 34.11,-3.09 32.38,-13.04 34.7,-17.97 -12.27,-15.23 -28.14,-9.57 -52.31,-8.86 -19.84,0.59 -34.79,-2.4 -32.39,20.57z"/>
   <path class="fil12" d="M2663.76 1023.87c-1.24,15.68 -2.25,14.25 -5.26,27.01 -6.21,26.36 2.35,28.87 3.35,31.01l19.12 4.15c-11.56,-32.29 -14.09,-37.25 -3.38,-69.64 -8.46,7.49 -1.6,2.63 -13.83,7.47z"/>
   <path class="fil8" d="M3443.35 707.51c-4.48,12.94 -0.9,16.32 14.8,14.09 1.91,-11.76 4.08,-8.68 -1.66,-14.21 -10.12,-9.74 -13.05,0.08 -13.14,0.12z"/>
  </g>
 </g>
</svg>
