<?xml version="1.0" encoding="UTF-8"?>
<!DOCTYPE svg PUBLIC "-//W3C//DTD SVG 1.1//EN" "http://www.w3.org/Graphics/SVG/1.1/DTD/svg11.dtd">
<!-- Creator: CorelDRAW -->
<svg xmlns="http://www.w3.org/2000/svg" xml:space="preserve" width="55.372mm" height="12.7mm" style="shape-rendering:geometricPrecision; text-rendering:geometricPrecision; image-rendering:optimizeQuality; fill-rule:evenodd; clip-rule:evenodd"
viewBox="0 0 55.372 12.7"
 xmlns:xlink="http://www.w3.org/1999/xlink">
 <defs>
  <style type="text/css">
   <![CDATA[
    .fil8 {fill:#050505}
    .fil0 {fill:#1B1B1B}
    .fil1 {fill:#2B2B2B}
    .fil7 {fill:#3C3C3C}
    .fil4 {fill:#535353}
    .fil6 {fill:#686868}
    .fil9 {fill:#7C7C7C}
    .fil3 {fill:#979797}
    .fil2 {fill:#ACACAC}
    .fil5 {fill:#C5C5C5}
    .fil10 {fill:#D6D6D6}
    .fil11 {fill:#EDEDED}
   ]]>
  </style>
 </defs>
 <g id="Capa_x0020_1">
  <metadata id="CorelCorpID_0Corel-Layer"/>
  <g id="_530347664">
   <path id="_638689640" class="fil0" d="M26.4544 1.8629c0.0884,-0.4889 0.0671,-0.9221 0.7409,-1.2526l0.1566 -0.0633c0.0361,-0.0178 0.0483,-0.0334 0.0494,-0.0343 0.2577,0.0142 0.3528,-0.0631 0.6601,0.0226 0.2019,0.0563 0.3505,0.1547 0.4825,0.2575 0.275,0.214 0.4256,0.5671 0.442,1.0569 0.0259,0.1371 0.0142,0.0499 -0.0186,0.0656 -0.0737,0.5906 -0.5923,1.0881 -1.2402,1.0886 -0.6663,0.0006 -1.1463,-0.4891 -1.2428,-1.0835 -0.0088,-0.0029 -0.0253,-0.0137 -0.0261,-0.0094 -0.0007,0.0034 -0.0096,-0.0141 -0.01,-0.0192 -0.0005,-0.0068 0.0032,-0.0195 0.0062,-0.0289zm0.9469 -1.3502l0 0z"/>
   <path id="_638689520" class="fil1" d="M22.8065 3.4545l0.138 0.0934c0.0061,0.0028 0.0163,0.0073 0.0244,0.0113l0.1506 0.2456c-0.0259,0.0626 -0.1553,0.2299 -0.2227,0.2689 -0.6315,0.1334 -0.6333,-0.8397 -0.0903,-0.6192zm4.9183 8.9131l-0.0711 0c-0.0546,-0.5262 -0.4065,-0.4892 -0.9146,-0.4892 -0.4165,0 -0.9737,0.0312 -1.3733,-0.0096 -0.7485,-0.0764 -1.3536,-0.6001 -1.5997,-1.1691 -0.1961,-0.4535 -0.1645,-0.7041 -0.1645,-1.2412l0 -2.7445c0,-0.6782 0.0696,-0.6383 -0.3876,-0.9716l-0.0702 -1.8314c-0.1171,0.1402 -0.1637,0.287 -0.459,0.2383 -0.2478,-0.0409 -0.2285,-0.1778 -0.3369,-0.3415l0 -0.2522c0.056,-0.0584 0.1694,-0.2357 0.3107,-0.3716 0.5079,-0.4884 0.4724,-0.9607 0.7225,-0.9789 0.4076,-0.0296 0.1245,0.1295 0.587,-0.1586l-0.0398 -0.2c0.1462,-0.0044 0.1786,0.0476 0.2859,0.1342 0.2189,-0.142 0.7002,-0.497 0.9073,-0.5577 0.482,-0.1414 0.3645,-0.0109 0.4773,-0.1856 0.0523,-0.081 0.1703,-0.1276 0.2562,-0.1771 0.0025,-0.2043 0.0411,-0.3483 0.2318,-0.3752l0.4297 0.1828 0.0147 0.089 0.0826 -0.1011c0,-0.0694 -0.0077,-0.0035 0.0452,-0.0165 -0.1317,0.2964 -0.512,0.6722 -0.2246,1.4054 0.0698,0.1782 0.1789,0.2835 0.2252,0.4092 -0.0532,-0.0124 -0.0457,0.0518 -0.0457,-0.0158l-2.6183 -0.0016 0.0503 -0.0661c0.1653,-0.0419 0.1041,0.0224 0.2951,-0.0457l0.036 0.0284 1.3506 0.0256c-0.1315,-0.1359 -0.1514,-0.0204 -0.2458,-0.1822l-0.1372 -0.26c0.0009,-0.1378 0.1054,-0.3541 0.2037,-0.4026l0.4419 0.1223c0.0094,0.1589 -0.0038,0.2878 -0.1378,0.3443 -0.0694,0.0293 -0.0203,-0.0162 -0.1113,0.0674 0.1802,0.1427 0.2577,0.0433 0.3868,-0.051l0.0388 -0.3607c-0.1029,-0.1477 -0.1418,-0.251 -0.3878,-0.2555 -0.1527,-0.0027 -0.1436,0.0367 -0.4683,0.0401 -0.0948,0.0009 -0.0651,-0.0056 -0.141,0.0339l0.1802 0.0353c0.007,0.1194 -0.0818,0.1541 -0.1906,0.2288l0.0879 0.0548 -0.0452 0.3824 -0.3375 -0.0662 0.0097 -0.2889 -0.2195 -0.0545 0.0519 -0.1325c-0.2265,0.0072 -0.2123,0.0515 -0.3649,0.1499 -0.2887,0.1862 -0.0893,0.1525 -0.2467,0.2675 -0.0033,0.0076 -0.0082,0.0106 -0.0099,0.0226l-0.0385 0.0818 -0.1578 0.0323 0.2438 -0.2229 -0.0978 -0.2115 -0.0013 0.1567 -0.3351 0.1889 0.0833 0.3195c-0.2865,-0.2526 -0.0628,-0.1309 -0.1654,-0.3293 -0.2987,-0.0166 -0.2887,-0.0451 -0.3649,0.1112 -0.3346,0.6857 -0.5328,0.7802 -0.5982,0.9102l0.0705 0.0402c0.3757,0.1336 0.5456,0.472 0.5443,0.8655 -0.0018,0.4907 0.0068,0.985 -0.0018,1.4751 0.4548,0.3396 0.422,0.3873 0.422,0.94l0 2.7171c0,0.4435 -0.0467,0.8504 0.1083,1.245 0.2306,0.5869 0.7646,1.077 1.5069,1.2032 0.3068,0.0522 1.0058,0.0134 1.3535,0.0134 0.6984,0 0.7369,-0.0656 1.0154,0.3196l0.1598 -0.1789c0.2968,-0.3054 1.5474,-0.035 2.2341,-0.1534 0.7578,-0.1307 1.2769,-0.6099 1.5123,-1.2021 0.1974,-0.4967 0.11,-1.9826 0.11,-2.6191 0,-0.4574 0,-0.9148 0,-1.3722 0,-0.2748 -0.0407,-0.4011 0.08,-0.5951 0.1326,-0.2132 0.2353,-0.2306 0.337,-0.3182l-0.0014 -1.5018c-0.0004,-0.3164 0.1381,-0.5919 0.3773,-0.7654 0.1022,-0.0741 0.1274,-0.061 0.2584,-0.0927 -0.1495,-0.1805 -0.3425,-0.3837 -0.4404,-0.5849 -0.245,-0.5029 -0.2267,-0.5047 -0.5274,-0.4654l-0.1905 0.3714c-0.0268,0.1102 0.0356,7.1786 -0.0053,7.4383 -0.0537,0.3404 -0.1902,0.5109 -0.2943,0.7267 -0.076,0.1577 -0.3316,0.4118 -0.4868,0.5062 -0.2619,0.1593 -0.1825,0.2035 -0.5514,0.2926 -0.046,0.0111 -0.0449,0.006 -0.0738,0.012l-0.044 0.0091c-0.0059,0.0017 -0.0122,0.0058 -0.0178,0.0076 -0.0537,0.0174 -0.084,0.018 -0.1275,0.0324 -0.0686,0.0227 -0.0373,0.0253 -0.1127,0.0684l-1.8937 -0.0348 -0.2744 0.265c-0.127,-0.1807 -0.1697,-0.1996 -0.2154,-0.2633l-1.1569 -0.0018c-0.561,-0.0005 -1.0059,0.0421 -1.499,-0.2321l-0.3621 -0.2124c-0.1835,-0.1251 -0.2763,-0.3165 -0.3811,-0.4994 -0.1076,-0.1877 -0.088,-0.039 -0.0816,-0.1764 0.1469,0.1865 0.3872,0.5582 0.5746,0.6723 0.0804,0.049 0.127,0.0627 0.2089,0.1222l0.4219 0.1769c1.0205,0.2802 2.3449,-0.1722 2.4907,0.3101l0.1864 -0.218 1.5975 -0.0057c0.2568,-0.0004 0.4072,0.0134 0.6502,-0.0511 0.2832,-0.0752 0.7053,-0.3393 0.9002,-0.5856 0.03,-0.0379 0.0605,-0.0622 0.0961,-0.0992 0.0599,-0.0623 0.2045,-0.3434 0.2547,-0.4511 0.0039,-0.0082 0.0258,-0.0427 0.0322,-0.0582 0.032,-0.0781 0.0137,-0.107 0.0388,-0.1769 0.03,-0.0838 0.0447,-0.0524 0.0579,-0.1366 0.0129,-0.0816 0.0013,-0.2892 0.0014,-0.3838 0,-0.7018 0.0322,-6.7679 -0.0091,-7.0749l-0.4853 -0.0013 0.0963 -0.1342 0.487 0.0761 0.108 -0.1936c-0.0392,-0.0735 -0.0327,-0.0918 -0.1099,-0.1423 -0.0234,-0.0153 -0.0561,-0.028 -0.0872,-0.0475 -0.0731,-0.0459 -0.0441,-0.0276 -0.0794,-0.0696l0.0342 -0.0156c0.1215,0.0281 0.1902,0.1064 0.2652,0.112 0.0858,0.0063 0.1838,-0.048 0.3214,0.0075 0.1164,0.0471 0.2183,0.3516 0.2893,0.4767 0.1403,0.2476 0.3194,0.4509 0.5086,0.6445 0.0715,0.0732 0.1038,0.1426 0.1698,0.2123l0 0.2654 -0.0437 0.0777c-0.0115,0.0237 -0.0112,0.0298 -0.0252,0.0553 -0.0699,0.1277 -0.1521,0.1841 -0.2913,0.1979 -0.3068,0.0305 -0.3003,-0.1102 -0.4357,-0.2404l-0.0693 1.83 -0.3655 0.3442c-0.0618,0.0828 -0.0232,3.1015 -0.0232,3.4277 0,0.5149 0.0292,0.7689 -0.1726,1.2047 -0.2645,0.5714 -0.8329,1.0725 -1.6254,1.1539 -1.1573,0.1189 -2.1807,-0.2954 -2.2473,0.4956zm4.7503 -8.2935l-0.09 -0.2571 -0.0472 0.1257c-0.1584,-0.1522 -0.0045,-0.3236 0.1409,-0.409 0.1175,-0.069 0.047,-0.0734 0.1407,-0.1004 0.4879,-0.1403 0.4756,0.7676 -0.1444,0.6408zm-6.3112 -1.5575c0.0968,-0.0564 0.1002,-0.1062 0.2487,-0.1593l0.138 0.2214 -0.5038 -0.0008 0.1171 -0.0613zm-1.2133 -0.5232c-0.17,-0.1347 -0.1166,0.0134 -0.1956,-0.1517 0.4236,0.1094 0.2089,0.0206 0.4293,0.2341l-0.0099 0.2343 -0.2504 -0.0378c-0.0063,-0.2421 -0.0175,-0.1582 0.0266,-0.2789zm0.3032 -0.2361l-0.134 0.1463c-0.2146,-0.087 -0.1481,-0.0671 -0.1673,-0.1405l0.3013 -0.0058zm-0.5038 0.0242c0.0546,-0.2683 0.6523,-0.3779 0.9463,-0.379 0.2627,-0.001 0.3137,-0.0088 0.4591,0.1866 0.056,0.0751 0.1032,0.0793 0.1251,0.2117 0.0639,0.385 -0.0665,0.1892 0.0836,0.4077 -0.1158,0.1764 -0.3029,0.3842 -0.5478,0.3179 -0.2902,-0.0785 -0.2803,-0.1977 -0.4057,-0.4506l0.0761 -0.1844c0.059,-0.1341 0.2846,-0.16 0.446,-0.0053 -0.0714,0.2424 -0.0408,0.2332 -0.1688,0.2808l-0.0876 0.0336c-0.0043,-0.0068 -0.015,0.0082 -0.0224,0.0125 0.0775,0.1307 0.0757,0.1895 0.2623,0.1835 0.1348,-0.0043 0.2063,-0.0864 0.2703,-0.1561l0.0392 -0.4503 -0.1699 -0.1851c-0.1752,-0.1313 -0.8319,-0.0391 -0.9085,-0.0192l-0.3973 0.1957zm1.55 -0.4784c0.0646,0.126 0.0315,0.0534 0,0.0866 -0.0363,-0.0336 -0.0171,0.0091 -0.0227,-0.0509 -0.0003,-0.0033 0.0086,-0.0087 0.0087,-0.0178 0.0001,-0.0105 0.0094,-0.0118 0.014,-0.0179zm-0.5494 -0.0383c0.0464,0.0899 -0.0227,0.0727 -0.027,0.0785 -0.0668,-0.0427 -0.0613,-0.013 -0.0357,-0.0975 0.0368,0.0004 0.0427,-0.0196 0.0627,0.019zm0.5454 0.2858c-0.1369,0.0075 -0.042,0.0284 -0.1307,-0.0796 -0.1074,-0.1308 -0.1433,-0.1123 -0.254,-0.1853 -0.0375,-0.0247 -0.0445,-0.0195 -0.068,-0.0398 -0.056,-0.0483 -0.0268,-0.0159 -0.0571,-0.0888 0.3445,0.1447 0.29,0.084 0.4303,0.2609 0.081,0.1022 0.0674,0.0101 0.0795,0.1326zm-0.3419 -0.6636c0.0371,-0.0836 0.0234,-0.0624 0.0989,-0.1188 0.3025,-0.0174 0.2501,0.1555 0.4151,0.155 0.0674,0.0219 0.0384,-0.0141 0.0631,0.0337 -0.0196,0.0884 0.0339,0.0757 -0.0272,0.076 -0.0513,0.0935 -0.0209,0.0797 -0.1051,0.0634l0.0067 0.1433 -0.0728 0.0127c-0.0564,0.0315 -0.0127,0.0147 -0.0877,0.0342l-0.1186 -0.1164 0.1172 -0.0824 -0.1842 -0.0069 -0.1415 -0.1303 0.0361 -0.0635z"/>
   <path id="_638689688" class="fil0" d="M25.3916 6.5767c0.1474,-0.0603 0.4206,-0.0001 0.5798,0.0275 -0.0538,0.0205 -0.3753,0.0213 -0.4697,0.0175 -0.1747,-0.0068 -0.0724,-0.0283 -0.1101,-0.045zm3.9284 -0.2227l0.0697 -0.0098c-0.0179,0.0535 0.002,0.0301 -0.0281,0.0775 -0.0252,0.0396 -0.0163,0.0203 -0.0536,0.0451l-0.0071 -0.0618 -0.0601 0.1556 -0.2259 0.0083 -0.0055 -0.1152 -0.1001 0.0395 -0.0036 -0.0946 -0.0741 0.0093 0.0437 -0.0482c0.0351,-0.0328 0.0344,-0.0291 0.0557,-0.0884l-0.0472 -0.016c-0.0482,0.0756 0.0091,0.0374 -0.0837,0.0525l0.028 -0.1122 0.0736 -0.0013 0.0535 -0.0436 -0.0743 -0.0405c0.1273,-0.1188 0.0653,-0.0818 0.3008,-0.1371 0.0061,0.0086 0.014,0.011 0.0169,0.0266l0.0546 0.0913c-0.0446,0.0955 -0.0006,0.0028 -0.0001,0.0025l0.0855 -0.0381 0.0625 0.192 -0.0811 0.1066zm-2.5934 0.4263l-1.807 0.0009 0.0146 -0.6626 0.2784 0.0082c0.0655,0.2878 0.08,0.177 -0.0637,0.4556 0.2151,0.1482 0.6971,0.0849 1.0388,0.0744 0.0027,-0.3735 -0.0212,-0.0237 -0.1075,-0.5375l0.9087 -0.0056c-0.0512,0.1284 -0.042,0.026 -0.1119,0.1063 -0.1132,0.1299 -0.1467,0.3774 -0.1504,0.5603zm3.5329 -0.3406c0.0518,0.0501 0.059,-0.0685 0.03,0.078 -0.0192,0.0969 -0.0228,0.0423 -0.0431,0.0615l-0.3511 0.0881c-0.0609,-0.0676 -0.1323,-0.1098 -0.2524,-0.1542l-0.0768 -0.0188c-0.0009,-0.0079 -0.0006,-0.0277 -0.0015,-0.0238 -0.013,0.0576 0.0014,-0.0295 -0.0139,-0.0697 -0.039,-0.1023 -0.0473,-0.0114 -0.0077,-0.1908 -0.0058,-0.1504 -0.0707,-0.2244 0.1038,-0.2477 0.0078,0.004 0.0199,-0.0003 0.0241,0.0104 0.0317,0.0816 -0.0119,-0.0131 0.0451,0.0196 0.1598,0.0917 0.0521,0.212 0.1156,0.119 0.1365,-0.0759 0.4873,-0.0227 0.6552,-0.0176l-0.0023 0.6656 -1.8371 0.0016c-0.0061,-0.1758 -0.0408,-0.3959 -0.1335,-0.5306l-0.1089 -0.1628c0.1756,0.0577 0.0677,0.0402 0.3039,0.0502 0.013,0.1434 -0.0214,0.2116 0.0511,0.3263 0.0383,0.0605 0.0504,0.0543 0.091,0.1054 0.0619,0.0779 -0.0179,0.0484 0.0931,0.1 0.2255,0.1049 0.4671,-0.0518 0.6218,-0.1333 0.3692,0.3197 0.4085,0.1939 0.7696,-0.052l-0.076 -0.0244zm-0.7759 -0.5066c0.0125,0.0166 0.1007,-0.0344 0,0.1254 -0.0031,-0.0069 -0.0241,-0.0244 -0.0223,-0.0605 0.0034,-0.0656 -0.0013,-0.0264 0.0223,-0.0649zm-1.2899 -0.1386c0.0737,0.0618 0.0495,0.0278 0.0594,0.1493 -0.0192,-0.0091 -0.0666,-0.0301 -0.0748,-0.0439 -0.0505,-0.0854 0.0046,-0.0891 0.0154,-0.1054zm-2.1354 0.6199l0.0657 0.2033c-0.2244,-0.1656 -0.1705,-0.1174 -0.6474,-0.1174 -0.1229,0 -0.105,0.0085 -0.2416,0.0727 0.1446,-0.2487 0.0496,-0.1247 0.0779,-0.5288 0.1418,-0.0327 0.0416,-0.0157 0.1433,-0.1471 0.1888,-0.244 0.0969,-0.2337 0.4214,-0.2909 0.1495,0.2284 -0.0052,0.2736 0.0302,0.4059 0.0473,0.176 0.1429,0.0803 0.1505,0.4023zm2.7201 -0.4703l-0.0084 0.0797c-0.1164,0.0246 -0.0974,0.0051 -0.2025,-0.0116 -0.0075,0.0053 -0.0275,0.0144 -0.0317,0.0169l-0.0402 0.0243c-0.0054,-0.0077 -0.0124,-0.0291 -0.016,-0.0232l-0.1112 -0.0784 -0.0377 -0.0612c0.0038,-0.01 0.0191,-0.0621 0.0195,-0.0632l0.0356 -0.0688c0.2436,0.0148 0.2947,-0.0114 0.4117,0.0732l0.1517 0.0211c-0.0667,0.0414 -0.0607,0.0689 -0.1708,0.0912zm-3.5488 0.1216l-0.3092 -0.0012c0.0009,-0.2831 -0.0238,-0.2398 0.0613,-0.3135 0.0916,-0.0793 0.1088,-0.0789 0.2205,-0.1405 0.1219,0.2191 -0.0324,-0.0299 0.2166,0.2593l-0.1892 0.1959zm4.4907 -0.1306l-0.0746 -0.257c0.1276,0.0592 0.0412,0.0335 0.0746,0.257zm-1.9381 -0.1817l-0.0138 -0.1172c0.0902,0.0296 0.113,0.0765 0.1746,0.1394 -0.1059,0.0228 -0.0701,0.0378 -0.1608,-0.0222zm0.176 -0.1647c0.124,-0.0821 0.2502,0.0883 0.327,0.1688 -0.2571,-0.1757 -0.1489,-0.047 -0.2801,-0.0924 -0.0808,-0.0279 -0.0456,-0.0745 -0.0469,-0.0764zm-0.1612 0.0098c0.0622,-0.0733 0.0024,-0.0343 0.1675,-0.1276 -0.0466,0.0886 -0.0597,0.1113 -0.1675,0.1276zm-1.8 -0.6136c0.1949,-0.105 0.1673,-0.0356 0.1864,-0.0274 -0.2202,0.1373 -0.1824,0.0304 -0.1864,0.0274zm0.3494 0.0141c0.0234,-0.0171 -0.032,-0.1184 0.1818,-0.0141 -0.0427,0.0298 0.0633,0.0262 -0.0898,0.034 -0.0369,0.0019 -0.065,-0.0126 -0.092,-0.0199zm2.8885 -0.1838l0.2646 0.0149 0.016 0.4224c0.0377,0.0294 -0.0735,0.0363 0.1873,0.0341 0.3156,-0.0028 0.1862,-0.0392 0.5643,0.2127l-0.2399 -0.2198 0.0008 -0.4701 0.458 0.0183 0.0084 0.7933c-0.0359,-0.0247 -0.0126,-0.0071 -0.0439,-0.0372 -0.0723,-0.0696 -0.0646,-0.0535 -0.1788,-0.1079l0.2142 0.5394 -0.6713 -0.0149 -0.2332 -0.3659 0.0003 0.2225c-0.2558,0.0564 -0.1858,-0.0732 -0.3234,-0.1001 -0.097,-0.019 -0.2275,0.0837 -0.4222,0.0144 -0.3681,-0.1309 -0.0899,-0.0215 -0.3693,-0.0632 -0.1385,-0.0206 -0.2228,-0.1611 -0.2731,-0.1901 -0.1451,-0.0835 -0.1011,0.0462 -0.1931,-0.1164l-0.0265 -0.0365 -0.1999 0.1199 -0.0035 -0.6753 0.4648 0.0188c-0.0158,0.656 0.0292,0.2335 -0.1989,0.5575 0.449,-0.1266 0.279,-0.0969 0.7609,-0.1077 0.1953,-0.2891 0.0224,-0.0976 0.3567,-0.4292 0.1309,0.0539 0.0245,0.0572 0.2354,0.173 -0.0339,-0.1504 -0.0057,-0.0526 -0.1547,-0.2069zm-0.4724 0.0002l0.3429 -0.0043 -0.0577 0.0683c-0.1876,0.1782 -0.2239,0.2728 -0.2861,0.3078l0.0009 -0.3718zm0.7735 -0.509l0.0244 -0.4037 0.4084 0.0028 0.0187 0.3981c0.1685,0.0557 0.3344,-0.0065 0.4963,0.0398l0.0099 0.406 -0.498 0.0211c-0.0547,0.109 -0.0208,0.3191 -0.0233,0.4616l-0.4194 0.0021c0.0001,-0.1073 0.0428,-0.3961 -0.0262,-0.4511l-0.3318 -0.0208 -0.0028 -0.4137c0.1087,-0.0479 0.2146,-0.0147 0.3438,-0.0422zm-1.2703 0.0086l0.0188 -0.4133 0.4176 -0.009 0.0257 0.4301 0.0094 0.0018 0.4009 0.0078 0.0112 0.4228 -0.4309 0.0237 -0.0122 0.4486 -0.4215 0.0049 -0.0119 -0.4485 -0.5034 -0.0226 -0.0056 -0.4177c0.1562,-0.0506 0.3428,-0.0135 0.5019,-0.0286zm-1.6513 0.7137l-0.0019 -0.0097c-0.0265,-0.0614 0.0422,0.0168 -0.038,-0.0609 -0.0137,-0.0132 -0.0488,-0.0344 -0.0658,-0.0429 -0.0651,-0.0324 -0.0642,-0.0166 -0.1251,-0.0612 0.6832,-0.0844 0.2794,0.0274 0.6017,0.0386 0.1473,0.0052 0.1977,-0.0511 0.3309,-0.0455 0.1121,0.0046 0.1313,0.04 0.284,0.0436l0.0002 0.8528 -0.1907 -0.1879 -0.1749 0.0055c-0.0791,-0.0158 -0.0044,-0.0507 -0.0378,-0.0077l-0.0095 0.0352c0.0245,-0.0117 -0.049,-0.038 0.0735,-0.0286 0.1608,0.0123 0.06,-0.0022 0.1092,0.0496 0.0528,0.1021 0.0113,0.0685 0.0914,0.1339l0.0478 0.0373c-0.0948,0.0533 -0.1438,0.0381 -0.2724,0.116 -0.1198,0.0725 -0.2108,0.2173 -0.4156,0.1677 -0.0784,-0.0411 -0.0352,0.0138 -0.0636,-0.0697 -0.0852,0.0745 -0.069,0.0627 -0.1892,0.0643l-0.4907 0.004c-0.0197,-0.0222 -0.0182,-0.0057 -0.0414,-0.0553 -0.0006,-0.0013 -0.0257,-0.0795 -0.0293,-0.0897 0.0463,-0.0529 0.0766,-0.0781 0.104,-0.1085l-0.0581 -0.0289c0.0098,0.0221 0.0073,0.0157 -0.0276,0.0649 -0.0046,-0.0069 -0.0117,-0.0253 -0.0139,-0.0208l-0.0449 -0.0814 0.0279 -0.1786 -0.063 -0.0104c-0.1449,-0.0241 -0.1201,-0.1144 -0.1699,-0.216l-0.0546 -0.0626 -0.0366 -0.064 -0.31 -0.0007c0.0748,0.0647 0.1223,0.0451 0.2839,0.0441 0.017,0.0377 0.0364,0.0782 0.0674,0.1259 0.039,0.06 0.0651,0.0174 -0.0156,0.1484 -0.0622,-0.0462 -0.0069,0.022 -0.0562,-0.049 -0.2022,-0.2914 -0.1777,-0.0892 -0.4984,-0.0393 0.0414,-0.1157 0.0029,-0.0545 0.197,-0.2088l-0.1186 0.0266c-0.0794,0.0247 -0.1014,-0.0065 -0.1404,0.0698 -0.0512,0.0997 0.0378,0.1459 0.1129,0.1654 0.1253,0.0324 0.0076,-0.0238 0.1892,0.0277l0.1078 -0.1095c0.0551,0.0187 0.115,0.103 0.1378,0.1763l-0.1781 0.1568c-0.1198,-0.132 -0.0994,-0.1064 -0.17,-0.0695l-0.0134 -0.1212c-0.2201,-0.0019 -0.1355,-0.0359 -0.3453,0.1538l0.0005 -0.8645c0.1582,-0.0036 0.6241,0.0207 0.6995,-0.0238l-0.6974 -0.019c0.0849,-0.1152 0.0915,-0.1409 0.1987,-0.2265 0.0954,-0.0761 0.3341,-0.1501 0.4097,-0.2757l0.3647 0.1053c0.1921,0.0491 0.1594,0.0242 0.3215,0.1247l0.4706 -0.0408 0.1255 -0.1198 0.3919 -0.1544 0.206 0.1805c0.1738,0.1355 0.0129,0.057 0.1848,0.171l-0.3368 0.2299c-0.2784,0.0915 -0.4135,-0.0336 -0.5193,-0.0405l-0.9904 0.0817c-0.2255,0.0149 -0.0419,-0.0218 -0.1212,0.0519l0.4673 -0.0281 -0.2001 0.1519c0.0753,0.0339 0.1004,0.0246 0.1844,0.0241l0.534 -0.0078zm-1.6938 -1.368l2.6815 0 -0.002 0.8156 -0.3944 -0.3489 -0.2704 0.172c-0.1733,0.058 -0.1672,-0.0192 -0.2745,0.1351l-0.5883 -0.0469c-0.081,-0.019 -0.5097,-0.1588 -0.5684,-0.1401l-0.4287 0.2805c-0.0667,0.0519 -0.0633,0.0517 -0.1541,0.0755l-0.0007 -0.9428zm2.8508 0.0022c0.3592,-0.0006 2.5465,-0.0293 2.716,0.0142l-0.0001 0.589 -0.4606 0.0173 -0.0003 -0.4195 -0.5262 -0.0155 -0.0028 0.4139 -0.7388 0.0165 0.0043 -0.4118c-0.3066,-0.0348 -0.2269,-0.0229 -0.5273,-0.0207l-0.0028 0.4168c-0.2188,0.0322 -0.246,0.0188 -0.4646,0.0171l0.0052 -0.3931 -0.002 -0.2242zm-2.903 3.1571l1.9407 0.0102c-0.0955,-0.3662 0.2288,-0.7865 0.4746,-0.8867l0.3612 -0.11 0.0657 -0.3096 0.0159 0.3104c0.2846,0.0182 0.4702,0.1503 0.6139,0.2942l0.2532 0.6804 1.9494 -0.0008 -0.0078 -3.176 -2.8072 -0.0171c-0.0924,0.5549 0.0801,1.3031 -0.0558,1.85l-0.028 -1.8568 -2.7758 0.0121 0 3.1997z"/>
   <path id="_638688272" class="fil1" d="M29.4714 7.225l1.0103 0.2535 -0.005 0.2272c-0.0744,-0.0287 -0.1479,-0.0417 -0.2399,-0.0736 -0.1416,-0.049 -0.262,-0.1261 -0.3862,-0.1899 -0.0938,-0.0482 -0.1956,-0.0505 -0.2874,-0.0959 -0.1071,-0.053 -0.0584,-0.0575 -0.0918,-0.1213zm-0.9403 -0.2091c0.0385,-0.0275 -0.0606,-0.0122 0.0496,-0.0254 0.0787,-0.0094 0.289,0.0788 0.3754,0.1154 0.0782,0.0331 0.0517,0.0202 0.1243,0.0843 -0.0917,-0.0091 -0.2569,-0.0525 -0.3067,-0.0454 -0.0795,0.0115 -0.1163,0.073 -0.2849,0.0083l0.2238 -0.0046c-0.0973,-0.1462 -0.0473,-0.0317 -0.1815,-0.1326zm0.9795 -0.0206l0.9717 0.0134 -0.0016 0.1541 -0.4482 -0.0018c-0.1293,-0.1316 -0.0961,-0.03 -0.2608,-0.0814 -0.0277,-0.0086 -0.0758,-0.0426 -0.1055,-0.0501 -0.0948,-0.0242 -0.067,0.0152 -0.1556,-0.0342zm-0.6699 -0.0079c0.3316,0.0086 0.5363,0.0381 0.8359,0.1164l0.8121 0.1403 0.0071 0.1587c-0.3976,-0.0939 -0.2695,-0.0282 -0.7057,-0.1745 -0.1013,-0.0339 -0.7189,-0.0952 -0.9494,-0.2409zm-1.13 -0.3123c0.2443,0.1159 0.2372,0.0873 0.2535,0.1761l-0.2552 0.0396 0.0017 -0.2157zm-0.0476 0.1904c-0.1294,-0.0579 -0.0063,-0.0105 -0.1087,-0.0623 -0.1073,-0.0542 -0.083,-0.0069 -0.1058,-0.1292l0.2114 0.0098c0.0199,0.1277 -0.0012,0.0774 0.0031,0.1817zm0.3841 -0.5684c0.0162,0.1442 0.245,0.2335 0.1191,0.4285l-0.0775 -0.1837c-0.0296,-0.0578 -0.0558,-0.1006 -0.0795,-0.147l-0.0956 0.0062 0.0216 -0.1352c0.2208,-0.0367 0.0547,-0.0131 0.1119,0.0312zm-0.7601 0.5845l0.0042 0.0026 0.079 0.0267 0.0824 -0.0858c0.0082,0.0648 0.0203,0.0087 0.0018,0.0766l-0.0313 0.0593 0.1708 0.0939c-0.003,0.1348 0.0074,0.0067 -0.0408,0.0644l0.2563 0.0199c0.1039,-0.112 0.104,-0.0024 0.2079,-0.1334 0.1231,-0.1554 -0.014,-0.046 0.2037,-0.2118 0.0662,0.1964 -0.4391,0.4918 -0.4391,0.4918 -0.1272,-0.0064 -0.2805,-0.0746 -0.3775,-0.1383 -0.0374,-0.0246 -0.1048,-0.0764 -0.1416,-0.1062 -0.0945,-0.0764 -0.0715,-0.0608 -0.1239,-0.1353 -0.0505,-0.0851 -0.043,0.111 -0.043,-0.1095l0.0667 -0.0681c0.0282,-0.1908 0.0454,-0.2882 0.1854,-0.3907l0 -0.0919 0.1432 0.0039c-0.0644,0.1834 -0.0378,0.1347 -0.1511,0.2996 0.0437,0.17 0.093,0.2329 -0.0531,0.3323zm-0.4535 0.0506c-0.129,0.0155 -0.1304,0.0116 -0.2569,0.0102l-0.0427 0.0612 -0.234 0.0144c-0.1248,0.0027 -0.0115,-0.0053 -0.0611,0.03l0.0378 0.0208 0.3129 -0.0084c-0.0053,0.0067 -0.0137,0.0087 -0.0159,0.0203l-0.0401 0.0678 0.1988 0.0265c0.1541,0.0002 0.0145,-0.0369 0.2012,0.0089 -0.1904,0.0804 -0.3864,-0.0402 -0.4964,-0.0131 -0.0005,0.0001 -0.0605,0.071 -0.3032,0.0506 -0.2127,-0.0178 -0.0682,0.0273 -0.129,-0.0562 -0.1173,-0.0267 -0.0241,-0.0071 -0.0617,0.0155 -0.1332,0 0.0059,-0.0183 -0.0549,0.0558l0.087 0.0538c-0.0355,0.0895 0.0358,0.0383 -0.1122,0.0854 -0.1221,0.0388 -0.3352,0.0936 -0.4341,0.1733l0.092 0.0089 0.3338 -0.1076c-0.0776,0.129 -0.0973,0.076 -0.1832,0.1692l0.0795 -0.0046c0.1664,-0.1757 0.1159,-0.1562 0.263,-0.1901l0.0624 -0.1498c0.1967,-0.0184 0.5884,-0.006 0.8281,-0.0075 0.1326,-0.0009 0.0709,0.0302 0.404,0.0228 0.0197,0.1264 -0.0783,0.2224 0.0384,0.2376 0.1101,0.0145 -0.004,-0.0846 0.1876,-0.1406l0.0538 0.0491c0.0681,-0.0508 0.0397,-0.0385 0.2428,-0.017l0.0058 -0.0477 0.0724 0.0103c0.1061,-0.0451 -0.0089,-0.0241 0.1222,-0.0421 0.1411,-0.0193 0.0422,-0.0995 0.5462,-0.1099 0.1276,-0.0026 0.7946,0.0188 0.8392,0.0717 0.1128,0.0804 0.0224,0.1029 0.175,0.173l0.0032 0.0433 0.0641 0.0406 0.0478 -0.0042c0.0161,-0.0449 -0.0481,-0.0771 0.0968,-0.0431l0.686 0.285 -0.0061 0.1623c-0.0799,0.0086 -0.1593,-0.0425 -0.298,-0.107 -0.1019,-0.0474 -0.0834,-0.0629 -0.3004,-0.1455l0.0237 0.0848 0.5734 0.2835 -0.0014 0.2379 -0.3076 -0.1131 -0.0268 0.0267c0.0045,0.0043 0.0112,0.0053 0.0133,0.013 0.0021,0.0077 0.011,0.0101 0.014,0.0121l0.3137 0.192 0.007 0.1929c-0.0812,-0.0326 -0.1448,-0.1833 -0.4205,-0.2841 0.0177,0.0754 0.0311,0.0572 -0.0472,0.0482 0.1915,0.0841 0.3103,0.21 0.4565,0.3516 0.0012,0.0814 0.0277,0.2371 -0.0209,0.2989 -0.0803,0.009 -0.0093,0.0594 -0.0923,-0.0219 0.0382,0.0646 0.0678,0.0832 0.1153,0.1279l0.0107 0.178 -0.055 0.0103c-0.023,0.0631 0.0012,0.0587 -0.0572,0.0284 0.006,0.0047 0.0156,0.0035 0.0184,0.0133 0.0068,0.0234 0.0241,0.015 0.0353,0.0254 0.0536,0.0502 0.0368,0.0371 0.0464,0.201 -0.1196,0.0335 -0.2142,0.0237 -0.2976,-0.0123l-0.0563 0.0132 -0.2226 0.0177c0.0013,-0.041 -0.0033,-0.1145 -0.0011,-0.1483 0.0098,-0.1519 -0.0251,-0.0722 0.0439,-0.1069l-0.0896 -0.0545 0.0344 0.3694 0.5815 0.0109c0.0132,0.092 0.0131,0.3148 0.0063,0.4133 -0.0062,0.0905 -0.0853,0.2017 -0.1392,0.2838 -0.1073,0.1634 -0.4409,0.1841 -0.6957,0.1842l-1.7929 0.0012c-0.1377,0.15 -0.1001,0.1376 -0.1966,0.1436l-0.0082 0.0074 0.0448 0.0868 0.1913 -0.1826 1.542 -0.0006c1.1906,-0.0001 0.8427,-0.1749 1.1141,-0.4204l-0.0004 -3.2687 -2.0195 -0.0173 -0.1974 -0.7332 -0.2624 -0.2078c-0.128,-0.0616 -0.219,-0.075 -0.3911,-0.0744 -0.3135,0.0011 -0.4839,0.1388 -0.6348,0.3003 -0.2389,0.2557 -0.1521,0.5642 -0.2036,0.7145z"/>
   <path id="_638689016" class="fil0" d="M27.5466 10.0292l0.208 -0.1017 0.1892 0.1092c-0.0438,0.0491 -0.1057,0.0977 -0.1788,0.0903 -0.0789,-0.008 -0.1587,-0.0459 -0.2184,-0.0978zm-2.2675 -0.3991c0.0039,-0.0523 0.0844,-0.1521 0.1257,-0.1856 0.0518,-0.0421 0.1139,-0.1208 0.1828,-0.1527l-0.0111 0.3375 -0.2974 0.0008zm-0.1707 -0.3737c0.3068,-0.2143 0.1074,-0.1822 0.3161,-0.3169 0.0966,-0.0624 0.0771,-0.1063 0.1475,-0.1209l-0.1162 0.4818c-0.036,0.0327 -0.0549,0.0487 -0.0867,0.0762 -0.0766,0.0662 -0.1325,0.1628 -0.1944,0.2524l-0.2545 0.0086 0.0007 -0.234 0.1875 -0.1472zm-0.1826 -0.1353c0.1275,-0.0629 0.4542,-0.3371 0.5637,-0.4471l0.0242 -0.031c0.0574,-0.0664 -0.0083,-0.0244 0.0772,-0.0642 -0.0942,0.1952 -0.0861,0.2368 -0.2271,0.3313 -0.2363,0.1585 -0.0713,0.1404 -0.2559,0.2617 -0.0493,0.0324 -0.0531,0.0209 -0.0973,0.067 -0.0794,0.0829 0.0192,0.0328 -0.0805,0.0771l-0.0043 -0.1948zm0.012 -0.7518c0.0608,-0.0325 0.1054,-0.034 0.1922,-0.082 0.0684,-0.0378 0.0959,-0.0424 0.1757,-0.0741 0.1213,-0.0481 0.1534,-0.1791 0.2678,-0.1944l0.0106 0.1453c-0.0979,0.0739 -0.2686,0.1801 -0.3251,0.2525 -0.0885,0.1136 -0.279,0.1134 -0.3071,0.2756l0.3468 -0.2098c0.0484,-0.0334 0.2342,-0.2104 0.2777,-0.2214l0.002 0.2369c-0.0964,0.0903 -0.5876,0.5174 -0.6448,0.5411l0.0042 -0.6697zm-0.0027 -0.3105c0.0677,-0.0349 0.5724,-0.267 0.6422,-0.2698l-0.0029 0.1601c-0.3643,0.2272 -0.1614,0.1531 -0.6514,0.3635l0.0121 -0.2538zm-0.0115 -1.0695l0.8533 -0.0018c-0.0646,0.0424 -0.2973,0.0703 -0.397,0.0933 -0.1741,0.0403 -0.2459,-0.0143 -0.4592,0.059l0.0029 -0.1505zm2.727 3.7463l0.0082 -0.0074c-0.0199,-0.0715 0.0378,-0.0033 -0.0498,-0.0816l-0.074 -0.0555c-0.1604,-0.0605 -2.0414,0.0465 -2.2319,-0.0296 -0.1734,-0.0693 -0.3657,-0.3304 -0.3832,-0.3895l0.0144 -0.4588 0.6388 0.0096 0.025 0.3533c0.382,0.0356 0.9083,0.0069 1.3057,0.0065 0.1097,-0.0001 0.2195,0.0003 0.3293,-0.0001 0.5076,-0.0017 0.4514,0.2268 0.7151,0.0371l0.0534 -0.037 1.8848 -0.0043c0.0101,-0.1278 0.0385,-0.2618 0.009,-0.3871l-0.0344 -0.3694 0.0896 0.0545c0.0233,0.0408 0.0496,0.0893 0.0819,0.1347 0.0295,0.0415 0.0619,0.0673 0.0979,0.1028l0.0563 -0.0132c-0.0206,-0.1527 0.0038,-0.0573 -0.159,-0.2199 -0.1549,-0.1546 -0.1166,-0.0334 -0.1199,-0.4848 0.0945,0.1192 0.3683,0.4307 0.4764,0.4773 0.0584,0.0303 0.0342,0.0347 0.0572,-0.0284l-0.1119 -0.1527c-0.0448,-0.0514 -0.0953,-0.0721 -0.1588,-0.1206 -0.1132,-0.0865 -0.0755,-0.1582 -0.2578,-0.2443l-0.0061 -0.1262 0.2201 0.1695c0.0596,0.0446 0.0634,0.0575 0.1272,0.0933l0.1163 0.0648c0.083,0.0813 0.012,0.0309 0.0923,0.0219 -0.1072,-0.1657 -0.154,-0.1356 -0.2905,-0.2258 -0.0903,-0.0596 -0.2064,-0.1572 -0.2635,-0.217l-0.0003 -0.2629 0.1187 0.0552c0.0783,0.009 0.0649,0.0272 0.0472,-0.0482l-0.1634 -0.0839 -0.0012 -0.1635c0.1098,0.0476 0.0938,0.0875 0.2371,0.1215l0.0268 -0.0267c-0.0535,-0.083 -0.0169,-0.0397 -0.1267,-0.0993 -0.0581,-0.0315 -0.0731,-0.0402 -0.1332,-0.0686l-0.0045 -0.2404 -0.0237 -0.0848 0.0065 -0.0472c-0.1617,-0.0302 -0.0434,-0.0311 -0.1848,-0.1045l-0.0478 0.0042c0.0208,0.0391 0.009,0.0209 0.036,0.0453l0.0455 0.0359c0.0039,0.0039 0.008,0.0111 0.0118,0.015 0.0039,0.0039 0.0074,0.0118 0.0113,0.0155l0.0949 0.0591 -0.0078 2.3008 -1.8221 -0.0063c-0.0777,-0.0281 -0.068,-0.1402 -0.2194,-0.1572l-0.0932 0.0016c-0.1063,0.0577 -0.052,0.0549 -0.1983,0.1078 -0.1879,0.1158 -0.6252,0.0529 -0.8888,0.0529l-0.9891 0.002c-0.0421,-0.1667 -0.0168,-1.9706 -0.0172,-2.3016 0.0075,-0.0041 0.0193,-0.0176 0.0229,-0.0114 0.0141,0.0242 0.1053,-0.1031 0.1053,-0.1031l-0.0795 0.0046c-0.0771,0.0749 -0.6237,0.3223 -0.7466,0.3558l-0.006 -0.2302c0.1412,-0.0063 0.5058,-0.1298 0.602,-0.1872l-0.092 -0.0089c-0.1692,-0.0001 -0.3258,0.121 -0.5089,0.1383l0.0036 -0.205c0.4958,-0.1901 0.3128,-0.0616 0.7331,-0.199 0.0744,-0.0243 0.2485,-0.0011 0.2315,-0.0468 0.0608,-0.0741 -0.0783,-0.0558 0.0549,-0.0558 0.0376,-0.0226 -0.0556,-0.0422 0.0617,-0.0155 0.1006,-0.0114 0.1783,-0.032 0.2717,-0.0964l-0.0378 -0.0208c-0.1278,0.012 -0.2159,0.068 -0.3152,0.1055 -0.2353,0.0891 -0.5108,0.0722 -1.0049,0.2573l0.0061 -0.1755c0.3507,-0.0763 1.3659,-0.3072 1.6091,-0.2317l0.0427 -0.0612c0.1265,0.0014 0.1279,0.0053 0.2569,-0.0102l-1.9491 0.007c-0.0085,0.8092 -0.0537,2.4627 -0.018,3.1795 0.0068,0.1356 0.1329,0.2997 0.2323,0.3768 0.0416,0.0323 0.0593,0.0618 0.1034,0.0889 0.2265,0.1395 2.1355,-0.0232 2.3054,0.0591 0.0539,0.0261 0.0153,0.073 0.143,0.0921z"/>
   <path id="_638688920" class="fil2" d="M25.7512 7.6149c0,0 -0.0912,0.1273 -0.1053,0.1031 -0.0036,-0.0062 -0.0154,0.0073 -0.0229,0.0114 0.0004,0.331 -0.0249,2.1349 0.0172,2.3016l0.9891 -0.002c0.2636,0 0.7009,0.0629 0.8888,-0.0529l0.0588 -0.1212c-0.2269,0.1079 0.0972,0.0812 -0.3006,0.1186 0.1648,-0.1051 0.0679,-0.02 0.2316,-0.1711l0.0732 0.0073 -0.1577 -0.07c-0.2926,-0.1259 -0.2743,-0.0689 -0.5265,-0.1375 -0.3031,-0.0825 -0.6582,0.0424 -0.8489,0.0093l0.0286 -2.3365 -0.0624 0.1498c-0.1471,0.0339 -0.0966,0.0144 -0.263,0.1901z"/>
   <path id="_638688680" class="fil0" d="M27.619 11.2306l0.1818 0.0393 0.0022 0.1542 -0.1931 -0.0175 0.0091 -0.176zm-0.0584 -0.2694c0.161,0.0073 0.0352,0.0417 0.2407,-0.005l0.0024 0.1804c-0.0247,0.0033 -0.082,0.014 -0.1055,0.0131 -0.0666,-0.0024 -0.05,-0.003 -0.1286,-0.0392l-0.009 -0.1493zm2.6634 -0.2917c-0.0487,0.0014 -0.1943,0.029 -0.2562,0.0456 -0.2928,0.0783 -1.9446,-0.0184 -2.082,0.0316l-0.2136 0.16 -0.1857 -0.1601 -1.9005 -0.0045c-0.2969,0.0014 -0.6455,-0.1956 -0.7623,-0.4647 -0.1048,-0.2414 -0.0602,-1.4692 -0.0605,-1.7795 -0.0002,-0.2919 -0.0282,-4.7846 0.0139,-4.9539l5.8169 -0.0007 0.016 3.747c-0.0006,0.879 0.0204,1.9698 0.0008,2.8283 -0.0068,0.2968 -0.3368,0.4625 -0.3868,0.5509zm0 0c0.1694,0.0183 0.315,-0.2241 0.3822,-0.3619 0.12,-0.2456 0.0538,-0.8255 0.0536,-1.1236l0.0003 -3.7874c0,-0.597 0.0347,-1.3062 -0.0052,-1.8895l-5.9377 -0.0012 -0.0054 6.3917c-0.0002,0.4732 0.0908,0.6119 0.4667,0.7933 0.2475,0.1195 0.1901,0.1028 0.5177,0.1029l1.2624 0c0.3319,0 0.4656,-0.0484 0.5565,0.0918l-0.1113 0.0549c-0.0036,0.203 -0.0273,0.1376 0.0925,0.2707l-0.0527 0.2084 0.5222 0.0619 0.0146 -0.541c-0.1108,-0.0653 -0.0867,-0.0041 -0.1037,-0.0471 -0.0034,-0.0085 -0.0135,-0.0048 -0.0199,-0.0078l0.2544 -0.0923c0.1701,-0.0296 1.5153,0.0443 1.9027,-0.0299 0.197,-0.0378 0.1868,0.0334 0.2101,-0.0939z"/>
   <path id="_638688464" class="fil0" d="M29.4591 2.1032c-0.0454,-0.1703 -0.0217,-0.3268 0.138,-0.3438 0.1693,-0.018 0.2487,0.0824 0.3332,0.1401l-0.0711 0.4469c-0.0572,0.0908 -0.1823,0.1474 -0.3207,0.1513l-0.471 -0.1942 0.073 -0.2886 0.5158 0.3374 0.0868 -0.1523 -0.284 -0.0968zm0.7419 -0.0549c0.135,-0.057 0.0991,-0.0749 0.2031,-0.1499 0.0644,-0.0465 0.1667,-0.1262 0.2408,-0.0148l-0.1993 0.0811 0.078 0.2209 -0.0794 0.1064 -0.2206 0.0106 -0.0226 -0.2543zm0.5722 -0.0563c-0.0413,-0.1141 -0.0543,-0.0338 -0.0861,-0.1637 0.1731,0.0713 0.4627,0.1563 0.5214,0.2792 0.0046,0.0097 0.041,0.0998 0.0414,0.1011 0.0015,0.0051 0.005,0.0137 0.0059,0.0182l-0.2774 0.059 0.0651 -0.1208c0.0035,-0.0136 0.0132,-0.0145 0.0195,-0.022l-0.3927 0.0411 0.1959 -0.1632 -0.093 -0.0289zm-0.5211 -0.0891c-0.0695,-0.0531 -0.0947,-0.1027 -0.1445,-0.1861 0.2262,-0.0058 0.2752,-0.0343 0.3666,0.0571l-0.2221 0.129zm0.5211 0.0891c-0.0101,0.0826 -0.0583,0.118 -0.1364,0.2175 0.1359,0.0556 0.0405,-0.0103 0.2682,0.0141l0.0279 0.1221 0.1754 0.0077 -0.0823 0.2154 -2.1229 0.0081 0.1414 -0.24 0.2542 0.1999c0.1069,0.0272 0.3134,0.0255 0.4139,-0.0128 0.1122,-0.0427 0.1929,-0.0819 0.2314,-0.2086 0.0405,-0.1337 0.0495,-0.2598 0.0469,-0.4043l-0.5298 -0.1848 -0.0763 0.4043c0.2077,0.1857 0.1017,0.0407 0.2425,0.1373 -0.0749,0.0306 -0.0954,0.0494 -0.1965,0.0283 -0.2171,-0.0452 -0.2157,-0.2775 -0.2055,-0.4674 0.1303,-0.0984 0.2551,-0.1987 0.4125,-0.2518 0.1759,-0.0595 0.4142,-0.001 0.5343,0.0545 -0.0568,0.0524 -0.0504,0.0338 -0.0927,0.0539l-0.0584 0.0336 0.1988 0.2091 -0.0853 0.0928 0.0823 0.3327 0.255 0.0061 0.1077 -0.1166 -0.0625 -0.2497 0.2562 -0.0014zm-1.0419 -0.7121c-0.0661,0.0499 -0.0114,0.0438 -0.097,0.0182 -0.0037,-0.071 0.0414,-0.0956 0.097,-0.0182zm-3.0723 -0.4406c0.0774,-0.024 -0.0125,0.0457 0.0844,-0.0486 0.6791,-0.6606 1.6654,-0.4421 2.0793,0.1068 0.0622,0.0825 0.1245,0.1745 0.1623,0.2867 0.0305,-0.0707 -0.0021,-0.0607 0.0145,-0.1566 -0.0709,-0.0122 -0.0422,-0.008 -0.0836,-0.0771l0.1176 -0.0924c0.2635,-0.1857 0.2464,-0.1155 0.4202,-0.0123 0.0687,0.0703 0.0745,0.0566 0.0352,0.1481 -0.0279,0.0651 -0.0201,-0.0467 -0.0601,0.1213l0.0821 0.0001 0.1106 0.0176c-0.0326,0.0958 -0.0518,0.0938 -0.1383,0.1331l-0.0059 0.1361c0.255,-0.0205 0.4841,-0.0205 0.7081,0.0548 0.1752,0.0589 0.4142,0.1565 0.4946,0.3054 -0.4635,-0.1683 -0.7949,-0.3856 -1.244,-0.176 -0.11,0.0513 -0.2199,0.1136 -0.2665,0.2051l0.1706 -0.333 -0.0364 -0.0133c-0.0032,-0.0011 -0.0148,0.0019 -0.0172,-0.0049 -0.0023,-0.0064 -0.0112,-0.0025 -0.0167,-0.0038 -0.0593,0.0282 -0.0975,0.0955 -0.1042,0.0834 -0.0032,-0.0057 -0.0144,0.0088 -0.0216,0.0131l-0.0282 -0.1005 -0.0464 -0.1094c0.0443,-0.0009 0.0332,-0.0078 0.0136,0.032 -0.0081,0.165 0.051,0.3126 0.0305,0.5099 -0.0827,0.7948 -0.7885,1.3285 -1.5588,1.2346 -0.4399,-0.0536 -0.5822,-0.2441 -0.7879,-0.3367 0.0153,0.0718 0.0436,0.0755 0.1896,0.1675 0.0812,0.0511 0.1683,0.0932 0.2564,0.1277 0.1997,0.0783 0.4218,0.1058 0.6525,0.0871l0.9871 -0.5118 2.1683 -0.004 0.0963 -0.1342 0.0878 -0.1611 0.2854 0.0261c-0.0502,-0.0613 -0.1835,-0.1641 -0.2489,-0.2031l0.0811 -0.2056c0.0844,0.1916 0.019,0.1608 0.1131,0.1668l0.0342 -0.0156 -0.0578 -0.0824 0.0605 -0.1762 -0.2872 0.1368c-0.2068,-0.0988 -0.6882,-0.5043 -0.9454,-0.5766l-0.4188 -0.1004c-0.0745,-0.0527 0.0984,-0.0581 -0.2861,-0.2452 0.002,-0.1895 -0.0265,-0.3444 -0.2184,-0.3783l-0.4367 0.1844c-0.0919,-0.0411 -0.7635,-0.854 -1.7631,-0.3891 -0.1674,0.0779 -0.4026,0.2323 -0.4577,0.3637z"/>
   <path id="_638688824" class="fil3" d="M27.8919 9.7975c-0.0148,0.0095 -0.0283,0.0197 -0.0429,0.0317 -0.004,0.0032 -0.0157,0.0236 -0.0188,0.0176 -0.0035,-0.0066 -0.0137,0.0133 -0.0206,0.0199 0.1514,0.017 0.1417,0.1291 0.2194,0.1572l1.8221 0.0063 0.0078 -2.3008 -0.0949 -0.0591c-0.0039,-0.0037 -0.0074,-0.0116 -0.0113,-0.0155 -0.0038,-0.0039 -0.0079,-0.0111 -0.0118,-0.015l-0.0455 -0.0359c-0.027,-0.0244 -0.0152,-0.0062 -0.036,-0.0453l-0.0641 -0.0406 -0.0175 2.2425c-0.6537,0.1843 -0.5291,0.1591 -1.1562,0.0358 -0.3281,-0.0645 -0.1112,-0.1055 -0.2541,-0.0825 -0.1294,0.0209 0.0005,-0.0216 -0.0835,0.0679 0.9704,0.3004 0.4878,0.1133 1.5367,0.1774l-0.1075 0.0777 -0.5785 -0.0045c-0.2098,0 -0.4856,0.0175 -0.6861,-0.0065l-0.0254 -0.0491c-0.1221,-0.1948 -0.1627,-0.011 -0.1943,-0.1887l-0.137 0.0095z"/>
   <path id="_638688344" class="fil3" d="M28.2456 1.472c-0.0005,0.0014 -0.0965,0.0288 0.0432,0l0.0253 0.0538c-0.0023,0.0074 0.0018,0.1008 -0.0174,0.0541 -0.0018,-0.0045 -0.007,0.0195 -0.0109,0.0292l-0.0402 -0.1371zm-1.1105 -0.2246l0.0573 0 0.0148 -0.0412c0.0263,0.0376 0.0299,0.0074 0.0744,0.0152l-0.0354 0.0851c-0.0855,0.0519 -0.1374,0.0405 -0.1837,0.1961l-0.0217 -0.0798c-0.1089,0.0517 -0.0305,0.0016 -0.0922,0.0428l0.0007 0.0273c-0.037,0.3284 -0.0027,0.11 0.1071,0.3627l0.0531 0.0951c0.1667,0.0061 0.0892,-0.0441 0.2597,-0.035 0.1723,0.0091 0.1447,0.0187 0.1932,0.0747 0.1481,-0.0415 0.0873,-0.0022 0.1866,-0.0601 0.0329,0.071 -0.019,0.013 0.0512,0.066 0.0637,0.0024 0.0767,0.0184 0.1384,-0.0111 0.0847,-0.0405 0.0306,-0.0161 0.0856,-0.0736l0.0323 -0.0305c0.0741,0.0891 0.169,0.1482 0.2743,0.1945 -0.0676,-0.0903 -0.0706,-0.0551 -0.1117,-0.0894 -0.0298,-0.0249 -0.0218,-0.0108 -0.0316,-0.0842l-0.1309 -0.0732c0.0215,-0.1701 -0.0102,-0.0125 0.0691,-0.0742 -0.0917,-0.0542 -0.0605,-0.0177 -0.122,-0.1885 -0.0418,0.0506 -0.0372,0.0387 -0.057,0.1115l0.023 -0.1428c0.0024,0.0043 -0.1249,0.0315 0.0337,0.0256l0.0033 0.0436 0.1882 0.1697 0.0633 -0.108 0.0458 0.1383c0.0648,-0.022 -0.0049,0.032 0.0391,-0.0135l0.0154 -0.0267c0.0359,0.123 0.0082,0.0787 0.0892,0.1727l0.0322 -0.1455c-0.0845,-0.1241 -0.0335,-0.0493 -0.0391,-0.1568 -0.0069,-0.1333 0.0423,0.018 -0.0275,-0.0525l0.021 -0.0043c0.0031,0.0012 0.0113,0.0061 0.0147,0.0078l0.0739 0.0513 -0.0273 -0.1095c0.0109,-0.0032 0.0206,0.0078 0.0238,0.0052 0.0035,-0.003 -0.0319,0.0631 0.0224,-0.0225l-0.0175 -0.0548 0.0265 -0.1186c-0.0673,0.0396 -0.0639,0.0426 -0.1374,0.026l-0.0229 0.0761c-0.0016,0.0067 -0.004,0.042 -0.0046,0.0511l0.0054 -0.1548 -0.1152 -0.055c-0.0267,0.0773 -0.0202,0.1048 -0.2469,0.1647l0.0989 -0.205 -0.1265 -0.0128 -0.1296 0.1357 -0.0898 -0.0823 0.0359 0.0966c0.0316,0.0966 0.0099,0.0118 -0.0034,0.0132 0.0152,0.0346 0.0183,0.0447 -0.0325,0.0822l0.088 0.0823c-0.0289,0.1084 -0.0108,0.0732 -0.0606,0.1371l-0.033 -0.0702c-0.0025,-0.0044 -0.0049,-0.0121 -0.0076,-0.0163l-0.1157 0.0054c0.0202,-0.1824 0.0786,-0.1412 0.0189,-0.248l-0.0591 0.1598c-0.026,0.1106 -0.0219,0.0801 -0.0507,0.1111 -0.0194,-0.0403 -0.0305,-0.0473 -0.0157,-0.1032 0.0165,-0.0623 0.0345,-0.0778 0.0705,-0.1251l-0.1362 0.0135 -0.0266 -0.1098 -0.0325 0.0858c-0.0753,0.1892 0.094,0.1833 0.0481,0.3722l-0.0151 -0.13c-0.0757,0.1009 -0.0671,0.07 -0.0847,0.1596l0.0274 -0.1278 -0.1446 -0.148c0.1124,-0.1057 0.1204,-0.1106 0.1324,-0.2781l0.0814 -0.0396 -0.0103 -0.0629c-0.0599,0.0052 -0.0449,0.0285 -0.0717,0.0413l-0.0911 0.002c-0.0018,-0.0003 -0.0544,-0.0182 -0.0657,-0.021l-0.0854 -0.0026 -0.0573 -0.0478 -0.0212 0.1061 0.071 0.0296z"/>
   <path id="_638688008" class="fil4" d="M27.4656 7.6801l-0.0074 0.431c0.0154,-0.0505 0.0061,0.0634 0.0182,-0.077l-0.0003 -0.2498c-0.0162,-0.205 -0.0026,-0.0453 -0.0538,-0.1096 0.0156,0.1109 0.0163,0.2172 0.0138,0.3306 -0.0016,0.0683 -0.0002,0.0687 -0.0128,0.1271 -0.0407,0.1875 0.03,0.0824 -0.0803,0.1218 0.0001,0 -0.0113,0.1172 0.1622,0.0584 0.0329,-0.0112 0.0336,-0.0408 0.12,-0.06 0.2523,-0.001 0.0968,0.1339 0.4622,-0.0219 -0.0694,0.1705 -0.0317,-0.0049 -0.2374,0.2122 0.0293,-0.1043 0.0859,-0.1613 -0.0624,-0.1773 -0.071,-0.0076 -0.2115,0.0251 -0.2799,0.0403 0.0316,0.1191 0.0132,0.0944 0.1096,0.1919 0.0192,-0.0075 0.0512,-0.0209 0.071,-0.0288l0.0663 -0.026 -0.0049 0.0764c0.041,0.0332 0.0559,0.0613 0.07,0.0879 0.0218,-0.0875 0.0055,-0.0616 0.0558,-0.0966l0.0712 0.0813 0.0549 -0.126 0.0329 0.2079 -0.0777 0.012 -0.0057 0.0324c0.1205,0.1318 0.0558,0.0257 0.2084,0.1472 0.091,0.0725 0.0496,0.062 0.0548,0.0889l0.1266 0.073c-0.0137,-0.0857 -0.0784,-0.192 -0.1312,-0.2388l-0.0522 -0.0711 0.0791 -0.1098 -0.0813 -0.1124 0.0556 -0.08 -0.0416 -0.1132c0.3156,-0.2158 0.1696,-0.0683 0.4234,-0.3675l-0.5114 0.2749 0.0142 -0.5349c0.0929,-0.0146 0.1596,-0.0576 0.2372,-0.0826l0.5745 -0.0877 0.3483 0.0051 -0.0092 1.8731c-0.1571,-0.0039 -0.5022,-0.0226 -0.6378,0.0145 -0.0971,0.0265 -0.1768,0.0625 -0.2773,0.0698 -0.1251,0.0092 -0.1704,-0.0226 -0.2147,0.0922 0.1689,0.0069 0.3952,-0.0632 0.5471,-0.0938l0.6351 -0.0342 0.014 -1.9707 -1.2735 0.1659c-0.0214,0.3865 0.0304,0.1447 -0.0651,0.5712 -0.0463,-0.0824 0.0099,-0.0274 -0.0833,-0.1334l-0.1088 0.059 -0.1098 -0.0804 -0.1345 0.095c-0.0992,-0.194 0.0215,-0.366 -0.0721,-0.4575z"/>
   <path id="_638687792" class="fil5" d="M29.4128 9.5987c-0.0912,0.0218 -0.2681,-0.0306 -0.3958,-0.0306 -0.4701,0.0001 -0.6728,0.0372 -1.0786,0.2062 -0.0054,0.0023 -0.0186,0.0177 -0.0226,0.0111 -0.0042,-0.0071 -0.0159,0.0081 -0.0239,0.0121l0.137 -0.0095c0.0316,0.1777 0.0722,-0.0061 0.1943,0.1887l0.0254 0.0491c0.2005,0.024 0.4763,0.0065 0.6861,0.0065l0.5785 0.0045 0.1075 -0.0777c-1.0489,-0.0641 -0.5663,0.123 -1.5367,-0.1774 0.084,-0.0895 -0.0459,-0.047 0.0835,-0.0679 0.1429,-0.023 -0.074,0.018 0.2541,0.0825 0.6271,0.1233 0.5025,0.1485 1.1562,-0.0358l0.0175 -2.2425 -0.0032 -0.0433 -0.0607 -0.0151 0.0215 1.7793c0.0005,0.1704 0.0429,0.4204 -0.042,0.5488l-1.2896 -0.0549c0.1527,-0.0903 0.102,-0.0742 0.1869,-0.0292 0.124,0.0659 0.3487,0.0693 0.4988,0.0961 0.102,0.0182 0.5991,-0.0001 0.5766,-0.1723l-0.1025 0.0967c-0.0827,0.0508 -0.6263,0.0119 -0.7393,0.0062 -0.2132,-0.0107 -0.1857,0.0147 -0.2786,-0.1035 0.2298,0.0227 0.8663,0.1186 1.0496,-0.0281z"/>
   <path id="_638688056" class="fil6" d="M27.5125 1.1749c0.0893,-0.0376 0.0401,0.0091 0.1037,-0.0925l0.0742 0.0148c0.0023,0.0021 0.0087,0.0054 0.011,0.007 0.002,0.0013 0.0089,0.0015 0.0107,0.0025 0.0292,0.0175 0.0058,-0.0236 0.0447,0.0359l-0.0706 0.0331c-0.0901,0.0694 -0.0325,-0.0315 -0.0346,0.0819l0.1579 -0.097 0.0105 0.1345 -0.0831 -0.0766c-0.1045,0.0785 -0.0781,0.0363 -0.1039,0.167l-0.0311 -0.0312c-0.004,-0.0043 -0.0094,-0.0117 -0.0136,-0.0162 -0.0041,-0.0043 -0.0094,-0.0119 -0.0132,-0.0158l-0.0499 -0.0424 0.0809 -0.0275 -0.0936 -0.0775zm-0.2845 -0.0128c0.0113,0.0028 0.0639,0.0207 0.0657,0.021l0.0911 -0.002c0.0268,-0.0128 0.0118,-0.0361 0.0717,-0.0413 0.0174,0.0487 0.0064,0.0877 0.0376,0.1576l-0.0609 0.0218 -0.0113 0.0752 0.0325 -0.0858 0.0266 0.1098 0.1362 -0.0135c-0.036,0.0473 -0.054,0.0628 -0.0705,0.1251 -0.0148,0.0559 -0.0037,0.0629 0.0157,0.1032 0.0288,-0.031 0.0247,-0.0005 0.0507,-0.1111l0.0591 -0.1598c0.0597,0.1068 0.0013,0.0656 -0.0189,0.248l0.1157 -0.0054c0.0027,0.0042 0.0051,0.0119 0.0076,0.0163l0.033 0.0702c0.0498,-0.0639 0.0317,-0.0287 0.0606,-0.1371l-0.088 -0.0823c0.0508,-0.0375 0.0477,-0.0476 0.0325,-0.0822 0.0133,-0.0014 0.035,0.0834 0.0034,-0.0132l-0.0359 -0.0966 0.0898 0.0823 0.1296 -0.1357 0.1265 0.0128 -0.0989 0.205c0.2267,-0.0599 0.2202,-0.0874 0.2469,-0.1647l0.1152 0.055 -0.0054 0.1548c0.0006,-0.0091 0.003,-0.0444 0.0046,-0.0511l0.0229 -0.0761c0.0735,0.0166 0.0701,0.0136 0.1374,-0.026l-0.0265 0.1186 0.1072 -0.0047c-0.0242,-0.0704 -0.0863,-0.1669 -0.1357,-0.2474 -0.0593,-0.0964 -0.1295,-0.1501 -0.167,-0.2088l-0.048 0.0492c-0.0008,-0.0027 -0.0032,0.0063 -0.0048,0.0095l-0.1076 -0.0076 -0.0138 -0.0396c-0.1344,0.0923 -0.1225,0.0016 -0.1285,-0.0063l-0.0759 0.0971c-0.004,0.0042 -0.0149,0.023 -0.018,0.0177 -0.0033,-0.0056 -0.0131,0.0125 -0.0191,0.0191l-0.2014 -0.2488c0.1085,-0.0403 0.1594,-0.0017 0.2156,0.1213l0.0194 0.0437c0.0296,-0.1563 -0.074,-0.1522 -0.085,-0.1878 -0.0037,-0.012 -0.0151,-0.0096 -0.0223,-0.0149l0.269 0.0558c-0.143,0.0761 0.0101,0.1383 0.0845,0.1169 0.1533,-0.0439 0.0275,0.0328 0.083,-0.0953 -0.2501,-0.0411 -0.3491,-0.2459 -0.7073,-0.0578l0.152 0.1669c-0.0018,-0.0008 -0.046,-0.019 -0.0531,-0.0213 -0.0976,-0.0311 -0.0429,0.0009 -0.1599,-0.0987 -0.112,0.054 -0.1121,0.0117 -0.1763,0.0864 -0.0323,0.0378 -0.0829,0.1225 -0.1033,0.1626z"/>
   <path id="_638688248" class="fil1" d="M23.8299 2.6044c-0.055,0.0905 -0.0372,0.1124 -0.0358,0.2399 0.0241,2.1717 -0.0003,4.4572 -0.0003,6.6416 0,0.2147 -0.0399,0.6536 0.1185,0.8629 -0.0744,-0.5222 -0.0551,-0.361 -0.0551,-0.8903 0,-2.1642 -0.0312,-4.499 -0.0001,-6.6416 0.0004,-0.0243 0.0044,-0.0934 0.003,-0.112 -0.0121,-0.1631 -0.003,-0.0472 -0.0302,-0.1005z"/>
   <path id="_638687600" class="fil3" d="M29.4128 9.5987c-0.1833,0.1467 -0.8198,0.0508 -1.0496,0.0281 0.0929,0.1182 0.0654,0.0928 0.2786,0.1035 0.113,0.0057 0.6566,0.0446 0.7393,-0.0062l0.1025 -0.0967c0.0225,0.1722 -0.4746,0.1905 -0.5766,0.1723 -0.1501,-0.0268 -0.3748,-0.0302 -0.4988,-0.0961 -0.0849,-0.045 -0.0342,-0.0611 -0.1869,0.0292l1.2896 0.0549c0.0849,-0.1284 0.0425,-0.3784 0.042,-0.5488l-0.0215 -1.7793 0.0607 0.0151c-0.1526,-0.0701 -0.0622,-0.0926 -0.175,-0.173l-0.0043 2.297z"/>
   <path id="_638688152" class="fil7" d="M26.1568 5.6162c0.0609,-0.0441 0.2001,-0.0275 0.2559,0 -0.0782,0.0402 -0.1966,0.0639 -0.2559,0zm0.0325 -0.4863l0.1735 0.0008 0.0102 0.4133 -0.1824 0.0045 -0.0013 -0.4186zm0.5224 -0.0034c0.0577,0.0642 0.0972,0.0673 0.1242,0.1525l-0.3742 -0.0023 -0.0041 -0.1481 0.2541 -0.0021zm-0.0973 -0.0978c-0.0281,0.0396 0.0312,0.0544 -0.2046,0.0503 -0.0653,-0.0012 -0.1267,-0.0021 -0.1921,-0.0014 -0.0701,0.0008 -0.1514,0.0034 -0.2208,0 -0.1112,-0.0055 -0.0941,-0.0104 -0.1635,-0.0408 -0.1196,0.0761 -0.1358,0.0657 -0.1681,0.1267l0.0052 0.0483c0.1725,-0.0647 0.1552,-0.1183 0.426,-0.0788l0.0063 0.1406 -0.3957 0.0022 0.0546 0.0626 0.0714 -0.0191 0.2613 0.0045 0.0096 0.2225 -0.1724 0.0081 0.063 0.0104 -0.0279 0.1786 0.0449 0.0814c0.0022,-0.0045 0.0093,0.0139 0.0139,0.0208 0.0349,-0.0492 0.0374,-0.0428 0.0276,-0.0649l0.0581 0.0289c0.0088,-0.0486 0.0078,-0.0407 0.0198,-0.0698 0.0011,-0.0026 0.0292,-0.0588 0.0318,-0.0736l0.2561 0.01 -0.0007 0.0587 0.0739 0.0165c0.0208,0.0808 0.0055,0.0454 0.0321,0.0746 0.0412,0.0453 0.0294,0.0302 0.1064,0.0465l-0.0265 -0.0918c-0.0068,-0.016 -0.0231,-0.0556 -0.0361,-0.0738 -0.0681,-0.0957 -0.0249,0.0186 -0.068,-0.103l0.8702 0.0057c-0.0492,-0.0518 0.0516,-0.0373 -0.1092,-0.0496 -0.1225,-0.0094 -0.049,0.0169 -0.0735,0.0286l0.0095 -0.0352c0.0334,-0.043 -0.0413,-0.0081 0.0378,0.0077 -0.0885,-0.1379 -0.116,-0.1072 -0.194,-0.2593 -0.0537,0.039 -0.23,-0.0868 0.1103,0.2572l-0.6873 -0.0107 -0.0049 -0.2007 0.1133 -0.0272c0.3606,-0.016 0.3907,0.0757 0.3758,-0.0609 -0.1085,-0.0473 -0.0519,-0.0718 -0.1534,-0.1367 -0.0738,-0.0472 -0.1206,-0.0647 -0.1821,-0.1038l0.0019 0.0097z"/>
   <path id="_638687168" class="fil0" d="M27.3156 9.5515c0.1879,0.0221 0.0531,0.023 0.104,-0.0483 -0.0493,-0.0046 -0.0835,-0.0095 -0.1336,-0.0151 -0.0996,-0.011 -0.0656,0.0078 -0.1405,-0.0321 -0.2365,-0.0757 -0.5723,-0.0673 -0.8692,-0.061l-0.0106 -1.8872 0.6673 0.0339 0.4893 0.133c0.0512,0.0643 0.0376,-0.0954 0.0538,0.1096l0.0003 0.2498c-0.0121,0.1404 -0.0028,0.0265 -0.0182,0.077l0.0074 -0.431 -0.0141 -0.0601c-0.5358,-0.1941 -0.6752,-0.1538 -1.2313,-0.1598l-0.0148 1.988c0.1798,0.0043 0.4136,-0.0157 0.5848,0.002 0.0964,0.0123 0.4725,0.0475 0.5254,0.1013z"/>
   <path id="_638686952" class="fil8" d="M25.6497 10.931l0.0193 0.2565 -0.2747 0.2213c-0.0019,-0.3572 -0.0738,-0.5867 0.2554,-0.4778zm-0.4531 0.3114c0.101,0.3864 0.7213,0.3405 0.6659,-0.1096 -0.0207,-0.168 -0.1898,-0.2971 -0.3866,-0.2749 -0.1499,0.0169 -0.3265,0.2039 -0.2793,0.3845z"/>
   <path id="_638687240" class="fil8" d="M31.315 4.961l-0.0521 0.0527 -0.0629 -0.0506c-0.044,-0.0492 -0.0431,0.0204 -0.0408,-0.1763l0.1858 0.012c0.0307,0.1935 -0.0126,0.1401 -0.03,0.1622zm-0.4773 -0.1578l0.2277 0.0018c0.0119,0.1544 0.0043,0.1935 -0.1547,0.1847 -0.0654,-0.0577 -0.0858,-0.0655 -0.073,-0.1865zm0.2652 0.3114l0.1372 0.0882 0.1887 -0.6038 -0.6457 0.0087c-0.0162,0.6741 0.0312,0.6471 0.3198,0.5069z"/>
   <path id="_638687192" class="fil8" d="M24.0512 4.6413l0.1742 -0.0024 0.0589 0.1195 -0.0002 0.0784c-0.0002,-0.0036 -0.0052,0.011 -0.0075,0.0166 -0.0693,0.029 -0.0467,0.0262 -0.1154,0.0293 -0.0318,0.0015 -0.0807,-0.003 -0.1166,-0.004l0.0066 -0.2374zm-0.0771 0.3939l0.6233 -0.025 0.0022 -0.1193 -0.1835 -0.0253 0.1859 -0.2923 -0.1192 -0.1441 0.0249 0.1346c-0.0538,0.0105 -0.0697,0.0136 -0.1037,0.0354l-0.0807 0.0832 -0.0866 -0.2382 -0.157 0.002c-0.1414,0.1215 -0.1384,0.3616 -0.1056,0.589z"/>
   <path id="_638687264" class="fil9" d="M27.8676 8.7612c0.0046,0.0056 0.0113,0.0128 0.0137,0.0168 0.0024,0.0041 0.0096,0.0139 0.0122,0.0185l0.0243 0.0675 -0.063 0.1168 0.1559 -0.003c-0.0252,-0.1732 -0.0423,-0.1079 -0.0521,-0.16 -0.003,-0.0158 -0.0083,-0.0195 -0.0118,-0.0295l0.1795 0.0802c-0.1063,0.1868 -0.0068,0.0502 -0.0219,0.1944 -0.0007,0.0062 -0.0198,0.0389 -0.0243,0.0469l-0.0555 -0.0746 0.0319 0.5215c0.0275,-0.0285 0.0374,0.0806 0.0339,-0.1804l-0.0036 -0.2568 0.4165 0.2099 0.1595 -0.2552 -0.3098 -0.3189c-0.0479,0.0107 -0.07,0.0203 -0.0893,0.0248 -0.0179,0.0043 -0.0198,0.0083 -0.054,0.0085 0.0528,0.0468 0.1175,0.1531 0.1312,0.2388l-0.1266 -0.073c-0.0052,-0.0269 0.0362,-0.0164 -0.0548,-0.0889 -0.1526,-0.1215 -0.0879,-0.0154 -0.2084,-0.1472 -0.0183,0.0705 0.0334,0.0592 -0.0835,0.0429z"/>
   <path id="_638687456" class="fil8" d="M29.0531 11.2409c0.0208,-0.0246 0.1732,-0.1353 0.1861,-0.0518l-0.0151 0.2401 -0.1938 -0.0076c-0.0101,-0.0383 -0.0228,-0.0511 -0.0173,-0.0977 0.0157,-0.1341 0.0097,-0.0508 0.0401,-0.083zm-0.0551 -0.2511l0.0549 0.1695 -0.2202 0.1654 0.2212 0.2078c0.0485,0.0268 0.3152,-0.0273 0.3431,-0.0756 0.0431,-0.0747 0.0321,-0.51 0.0248,-0.5901l-0.1818 -0.0007 -0.0147 0.2293c-0.3115,-0.0792 -0.0643,-0.1382 -0.318,-0.2291l-0.1089 0.1551c0.1086,0.0536 0.0931,0.0125 0.1996,-0.0316z"/>
   <path id="_638686160" class="fil4" d="M27.478 8.8322c0.0196,-0.0545 0.0052,-0.0539 0.0691,-0.1034 0.0452,-0.0349 0.0364,-0.0257 0.0954,-0.0401l-0.0027 0.2179 -0.1618 -0.0744zm-0.2213 -0.2095c0.0439,-0.0223 0.1109,-0.108 0.0589,-0.0438l0.149 -0.0475 0.0164 0.1035 0.0057 -0.0114c-0.0264,0.0185 -0.0172,0.0109 -0.0322,0.0282 -0.0409,0.0469 -0.0421,0.0476 -0.0569,0.1205 -0.1406,0.0045 -0.0879,0.0069 -0.1096,0.0217 -0.0185,-0.0526 -0.0145,0.0235 -0.0226,-0.029 -0.0024,-0.0154 -0.0228,-0.0112 -0.0317,-0.0199 -0.0221,0.0939 0.0338,0.0313 -0.0605,0.1079 -0.0014,0.0012 -0.0714,0.0334 -0.0774,0.0361l0 0.0479 0.0823 0.0157c-0.0937,0.0765 -0.0695,0.0095 -0.0851,0.1521l0.0755 0.067 -0.0193 -0.1347 0.0873 -0.093 0.1428 -0.0009 0.0089 0.1074 0.0182 0.0532 0.087 -0.0214 0.0416 -0.0377c0.0053,0.0075 0.0265,0.0275 0.0305,0.0311 0.0034,0.0031 0.0143,0.0127 0.0178,0.0158 0.0036,0.0032 0.013,0.0102 0.019,0.0158l0.0078 -0.0866c0.0077,0.0453 0.0047,0.0524 0.0621,0.0535l0.0585 -0.4116 -0.123 -0.0002 0.037 -0.1095c-0.0583,-0.0832 -0.1062,-0.0597 -0.1647,-0.0467 -0.0516,-0.0795 -0.1079,-0.1201 -0.1852,-0.1728l0.0012 0.0849c-0.0791,0.0116 -0.0681,0.0072 -0.1155,0.0458 0.037,0.129 0.0364,0.0147 0.0762,0.1586z"/>
   <path id="_638686496" class="fil8" d="M31.1306 6.1928l0.2206 -0.0031c0.0057,0.0889 -0.0049,0.135 -0.0357,0.1875 -0.1796,0.0326 -0.1862,-0.0161 -0.1849,-0.1844zm-0.1261 0.005l-0.0389 0.1294 -0.1776 0.0849 0.0229 0.1541c0.1411,-0.1706 0.0873,-0.1365 0.2371,-0.2022l0.1075 0.1823 0.2813 -0.1342 -0.0037 -0.4111 -0.6258 -0.0078 -0.0109 0.1629c0.0249,-0.0013 0.1164,-0.0093 0.1353,-0.0058 0.1414,0.0265 0.0213,0.0025 0.0728,0.0475z"/>
   <path id="_638686664" class="fil7" d="M27.224 8.2447c0.0215,0.0596 -0.0026,0.046 0.0708,0.0887 0.0773,0.0527 0.1336,0.0933 0.1852,0.1728 0.0585,-0.013 0.1064,-0.0365 0.1647,0.0467l-0.037 0.1095 0.123 0.0002 -0.0585 0.4116c-0.0574,-0.0011 -0.0544,-0.0082 -0.0621,-0.0535l-0.0078 0.0866c0.0028,0.0039 0.0076,0.0055 0.0085,0.0117 0.0008,0.0046 0.0146,0.0199 0.0178,0.0248 0.0081,0.0125 0.0189,0.0304 0.0236,0.0403l0.0937 0.0432 0.0669 -0.0432c0.0666,-0.0699 0.0608,-0.0439 0.1037,-0.1152l0.0311 -0.063 0.077 0.0293 0.0555 0.0746c0.0045,-0.008 0.0236,-0.0407 0.0243,-0.0469 0.0151,-0.1442 -0.0844,-0.0076 0.0219,-0.1944l-0.1795 -0.0802c0.0035,0.01 0.0088,0.0137 0.0118,0.0295 0.0098,0.0521 0.0269,-0.0132 0.0521,0.16l-0.1559 0.003 0.063 -0.1168c-0.0547,0.0127 -0.0746,0.0257 -0.1414,0.0443l-0.0064 -0.2245c0.0818,0.03 0.0569,-0.002 0.0976,0.0774 0.1169,0.0163 0.0652,0.0276 0.0835,-0.0429l0.0057 -0.0324 -0.1371 -0.0786c-0.0141,-0.0266 -0.029,-0.0547 -0.07,-0.0879l0.0049 -0.0764 -0.0663 0.026c-0.0198,0.0079 -0.0518,0.0213 -0.071,0.0288 -0.0964,-0.0975 -0.078,-0.0728 -0.1096,-0.1919 0.0684,-0.0152 0.2089,-0.0479 0.2799,-0.0403 0.1483,0.016 0.0917,0.073 0.0624,0.1773 0.2057,-0.2171 0.168,-0.0417 0.2374,-0.2122 -0.3654,0.1558 -0.2099,0.0209 -0.4622,0.0219 -0.0864,0.0192 -0.0871,0.0488 -0.12,0.06 -0.1735,0.0588 -0.1621,-0.0584 -0.1622,-0.0584 -0.0654,-0.0553 -0.0256,-0.0276 -0.0914,-0.0411l-0.0233 -0.0154 -0.0043 0.047z"/>
   <path id="_638686040" class="fil6" d="M27.1933 2.6421l-0.0419 0.0722c-0.002,-0.0049 -0.0092,0.0135 -0.0139,0.0201l0.2427 0.082c0.1695,0.0214 0.1255,-0.0146 0.2097,-0.0694l0.0191 0.0503c0.031,0.0879 0.0384,0.0694 0.102,0.118l0.0282 -0.0313c0.0467,-0.0639 0.0368,-0.0524 0.0492,-0.1288 0.3293,0.1254 0.2068,0.1202 0.5065,0.0312l-0.0711 -0.0399 0.0593 -0.079c-0.1815,-0.0737 -0.1718,-0.0388 -0.5011,0.0135 -0.04,0.0756 -0.0394,0.1174 -0.0474,0.0958 -0.0016,-0.0041 -0.0062,0.0133 -0.0097,0.0198 -0.0034,-0.0748 0.0048,-0.0754 -0.0252,-0.1197 -0.2573,-0.0231 -0.1645,0.0028 -0.3454,-0.0888l0.1281 -0.0183 -0.0849 -0.0811c-0.0372,0.0726 0.0436,0.0396 -0.1159,0.0556l0.0136 0.113 -0.1019 -0.0152z"/>
   <path id="_638686424" class="fil8" d="M24.1956 4.0518c0.0369,-0.0899 0.0838,-0.103 0.1971,-0.1228l-0.0044 0.2138c-0.111,-0.0103 -0.1325,-0.0176 -0.1927,-0.091zm-0.1934 0c0.0756,0.0681 0.3552,0.1607 0.4462,0.2078l0.1608 0.1113 -0.0024 -0.1679 -0.1603 -0.0011 0.014 -0.3444 0.1418 -0.0726 -0.0034 -0.1707c-0.0863,0.0157 -0.393,0.1958 -0.5035,0.2641 -0.0815,0.0504 -0.1032,0.0598 -0.0932,0.1735z"/>
   <path id="_638686376" class="fil8" d="M23.965 7.5262l0.0845 -0.0643 0.3112 0.1577c-0.0053,0.0056 -0.0129,0.007 -0.0157,0.0171 -0.007,0.0244 -0.3419,0.1985 -0.3822,0.2213l-0.002 0.2145c0.1873,-0.0539 0.4785,-0.279 0.641,-0.3979 -0.0657,-0.1006 -0.3597,-0.174 -0.6351,-0.374l-0.0017 0.2256z"/>
   <path id="_638686352" class="fil8" d="M30.8662 5.9262c0.07,0.0137 0.02,-0.0472 0.016,-0.0792 -0.0246,-0.1983 -0.0182,-0.1053 -0.0097,-0.3349l0.2731 -0.012 0.0513 0.0192 0.0426 0.1269 0.0829 -0.1532c0.0703,0.1223 0.0159,0.144 0.0458,0.2828l0.0564 -0.0159 -0.0073 -0.4136 -0.6209 -0.0096 -0.0105 0.499c0.0329,0.0281 0.051,0.0474 0.0803,0.0905z"/>
   <path id="_638685872" class="fil8" d="M23.966 5.2638l0.1109 -0.0589 0.3129 0.1643 -0.0858 0.0662 -0.3056 0.1569 -0.0069 0.1941c0.1143,-0.014 0.5093,-0.2364 0.5114,-0.2384l0.0976 -0.1514 -0.6416 -0.3136 0.0071 0.1808z"/>
   <path id="_638685440" class="fil9" d="M29.2676 6.3365l-0.0351 0.0661 -0.2662 -0.1827c0.1069,-0.1502 0.072,-0.1688 0.3158,-0.0228l-0.0145 0.1394zm-0.3659 -0.1422l-0.0179 0.061 0.0472 0.016c-0.0213,0.0593 -0.0206,0.0556 -0.0557,0.0884 0.026,0.0146 0.0445,-0.0358 0.0626,0.0688 0.0162,0.0934 -0.0122,0.057 -0.0286,0.0647l0.1001 -0.0395 0.0055 0.1152 0.2259 -0.0083 0.0601 -0.1556c-0.0051,-0.0075 -0.0187,-0.0313 -0.0208,-0.0359 -0.0352,-0.0784 0.0189,0.0645 -0.0125,-0.0326l0.0524 0.0175 0.0811 -0.1066 -0.0625 -0.192 -0.0855 0.0381c-0.0005,0.0003 -0.0445,0.093 0.0001,-0.0025l-0.0546 -0.0913c-0.0029,-0.0156 -0.0108,-0.018 -0.0169,-0.0266 -0.2355,0.0553 -0.1735,0.0183 -0.3008,0.1371l0.0743 0.0405 -0.0535 0.0436z"/>
   <path id="_638685320" class="fil9" d="M27.984 2.0483c0.0341,-0.0454 0.064,-0.0269 0.116,0.0162l-0.0157 0.035c-0.001,0.0018 -0.0063,0.0096 -0.0073,0.0114l-0.0104 0.0199c-0.0121,-0.0048 -0.0285,0.0189 -0.0747,-0.05 -0.0033,-0.0049 -0.0007,-0.0268 -0.0079,-0.0325zm-0.1838 -0.052l0.0317 0.086 -0.153 0.0288 0.1207 0.0556c-0.0393,0.0498 -0.0298,0.0474 -0.0268,0.1068 0.0078,-0.0029 0.0197,-0.0159 0.0234,-0.0093 0.0034,0.0061 0.0165,-0.0073 0.0212,-0.0096l0.1428 -0.0394 0.0433 -0.045c-0.0038,0.0816 -0.0129,0.0151 0.053,0.0426 0.0871,-0.0158 0.049,-0.0035 0.102,-0.0543l0.0078 -0.0603c0.1344,0.0008 0.1815,-0.0162 0.3094,-0.0442 -0.0595,-0.1752 -0.1698,-0.1354 -0.35,-0.2994 -0.0793,0.0617 -0.0476,-0.0959 -0.0691,0.0742l0.1309 0.0732c0.0098,0.0734 0.0018,0.0593 0.0316,0.0842 0.0411,0.0343 0.0441,-0.0009 0.1117,0.0894 -0.1053,-0.0463 -0.2002,-0.1054 -0.2743,-0.1945l-0.0323 0.0305c-0.055,0.0575 -0.0009,0.0331 -0.0856,0.0736 -0.0617,0.0295 -0.0747,0.0135 -0.1384,0.0111z"/>
   <path id="_638685608" class="fil8" d="M28.5124 11.3122c-0.0545,-0.03 -0.0505,-0.0075 -0.1039,-0.0948 -0.037,-0.0602 -0.0305,-0.0489 -0.0404,-0.1033l0.1767 -0.002 -0.0324 0.2001zm-0.4696 -0.4401c0.0613,0.1488 0.2751,0.5576 0.3979,0.6193l0.1658 -0.3022c0.0428,-0.0969 0.0572,-0.1888 0.1055,-0.2499l0.0594 -0.0537 -0.1285 -0.0154 -0.0531 0.1899 -0.2749 -0.0006 -0.1026 -0.1877 -0.1695 0.0003z"/>
   <path id="_638685368" class="fil4" d="M29.543 6.21c-0.0396,0.1794 -0.0313,0.0885 0.0077,0.1908 0.0153,0.0402 0.0009,0.1273 0.0139,0.0697 0.0009,-0.0039 0.0006,0.0159 0.0015,0.0238l0.0768 0.0188 -0.0194 -0.0961c0.1091,0.0192 0.2321,0.1427 0.4356,0.1455 0.173,0.0024 0.1537,-0.0603 0.1873,0.0167 0.0203,-0.0192 0.0239,0.0354 0.0431,-0.0615 0.029,-0.1465 0.0218,-0.0279 -0.03,-0.078 0.0052,0.1097 -0.0144,0.0601 -0.144,0.061 -0.1837,0.0012 -0.2643,-0.0513 -0.3992,-0.171l0.2455 -0.0653 -0.0192 -0.1512 -0.111 -0.0019c-0.0635,0.093 0.0442,-0.0273 -0.1156,-0.119 -0.057,-0.0327 -0.0134,0.062 -0.0451,-0.0196 -0.0042,-0.0107 -0.0163,-0.0064 -0.0241,-0.0104 0.0383,0.126 0.035,0.071 -0.0283,0.2729l0.0634 -0.0799 0.0279 0.0659 -0.1668 -0.0112z"/>
   <path id="_638685344" class="fil8" d="M26.9765 11.1209l0.1871 -0.0021c0.0065,0.0934 -0.0097,0.1258 -0.0677,0.21 -0.068,-0.0692 -0.0922,-0.1094 -0.1194,-0.2079zm-0.3124 -0.2546c0.0576,0.1536 0.2679,0.5293 0.3769,0.6239 0.1007,-0.1201 0.1309,-0.1443 0.1836,-0.3151 0.105,-0.3399 0.1047,-0.2152 0.1362,-0.3066l-0.1442 -0.002 -0.0115 0.1885 -0.291 0.0074 -0.0887 -0.1937 -0.1613 -0.0024z"/>
   <path id="_530404272" class="fil8" d="M29.882 11.4236c-0.0267,-0.0627 -0.0241,-0.0497 -0.0251,-0.1531 -0.0013,-0.1536 -0.0055,-0.265 0.0281,-0.3996l-0.2018 0.0216 -0.0238 0.5533 -0.1835 -0.0606 0.044 0.1164 0.5126 0.0029 0.0726 -0.1125c-0.1513,0.0763 -0.1336,0.0813 -0.2231,0.0316z"/>
   <path id="_530399784" class="fil8" d="M24.0566 6.584l-0.004 -0.2227c0.4378,-0.0034 0.2866,0.0527 0.5766,-0.1704l-0.5772 -0.027 -0.0086 -0.2694c-0.1221,0.0459 -0.0803,0.1701 -0.0801,0.3254 0.0005,0.2595 -0.0379,0.3104 0.0933,0.3641z"/>
   <path id="_530399616" class="fil8" d="M30.8284 4.1705c0.0569,-0.0816 0.04,-0.1564 0.0452,-0.3212l0.5588 -0.0506 -0.0095 -0.1552 -0.6371 0.0063 -0.0093 0.4042c0.0008,0.1371 -0.0212,0.0707 0.0519,0.1165z"/>
   <path id="_530399472" class="fil5" d="M27.5532 7.1193c-0.0516,-0.1751 0.0051,0.1722 -0.2619,-0.2351l-0.0042 -0.0026 -0.0784 -0.059c-0.1386,0.0118 -0.0303,-0.0118 -0.0697,0.0834 0.0524,0.0745 0.0294,0.0589 0.1239,0.1353 0.0368,0.0298 0.1042,0.0816 0.1416,0.1062 0.097,0.0637 0.2503,0.1319 0.3775,0.1383 0,0 0.5053,-0.2954 0.4391,-0.4918 -0.2177,0.1658 -0.0806,0.0564 -0.2037,0.2118 -0.1039,0.131 -0.104,0.0214 -0.2079,0.1334l-0.2563 -0.0199z"/>
   <path id="_530399520" class="fil9" d="M27.222 2.06c0.0319,0.0467 0.006,0.0416 0.0111,0.0686l0.1232 0.0146 0.0104 0.0341c-0.0376,0.0301 0.0124,0.0099 -0.0622,0.0107 -0.0453,0.0005 -0.0614,0.0047 -0.129,-0.0361l0.0465 -0.0919zm0.1755 0.4287c0.0446,-0.0912 -0.0136,-0.0006 -0.1385,-0.0836l0.0592 -0.02c0.0692,-0.021 0.0701,-0.0068 0.0852,-0.0889l0.0061 -0.0659c0.0183,-0.0781 0.0205,-0.0299 -0.0116,-0.1174l0.0768 0.0054c0.2049,0.0456 0.0539,0.1325 0.2248,-0.015l-0.0405 -0.0119c-0.0048,-0.0016 -0.0158,-0.0041 -0.0216,-0.0062l-0.0808 -0.0484 -0.1638 0.066c-0.0341,-0.0508 -0.0233,0.0106 -0.0294,-0.1108 -0.0408,-0.0234 0.0012,-0.0474 -0.0977,0.0005l-0.1024 0.0647c-0.0097,-0.1571 0.0201,-0.0548 -0.0674,-0.1185l-0.0318 0.1083 0.0706 0.0848c-0.088,-0.0367 -0.0447,-0.0329 -0.1738,-0.0678l-0.0297 -0.1211 -0.0633 0.0402 0.1065 0.1682 0.1215 0.0023c0.0799,0.099 0.1038,0.0866 0.2485,0.107 -0.0843,0.0755 0.0147,-0.111 -0.0236,0.0497 -0.0005,0.0021 -0.0009,0.0108 -0.0012,0.0126l-0.0042 0.0181c-0.1635,-0.0716 -0.1489,-0.059 -0.2929,-0.0457 0.0628,0.0528 0.0674,0.043 0.1844,0.0826l-0.07 0.0836 0.2606 0.0272z"/>
   <path id="_530399760" class="fil4" d="M26.8036 2.3099c-0.061,-0.0443 -0.0735,-0.0219 -0.0842,-0.1045 0.1112,0.069 0.0538,0.0313 0.0842,0.1045zm-0.3492 -0.447c-0.003,0.0094 -0.0067,0.0221 -0.0062,0.0289 0.0004,0.0051 0.0093,0.0226 0.01,0.0192 0.0008,-0.0043 0.0173,0.0065 0.0261,0.0094l0.0861 0.0209 -0.0489 0.0743c0.0112,0.0059 0.0559,0.0242 0.0586,0.0259 0.0056,0.0035 0.0143,0.0089 0.0199,0.0127l0.0324 0.0278 -0.0615 0.0782c0.1038,0.0966 -0.0084,0.0291 0.1905,0.1699l-0.0397 0.0654 0.1453 0.0744c0.0315,0.0741 0.0205,-0.0152 0.0304,0.1294 0.0712,0.0158 0.1438,0.0198 0.1563,0.0517 0.0008,0.0019 0.0046,0.011 0.0054,0.0132l0.0145 0.0417 0.1197 -0.0638c0.011,-0.0551 0.0089,-0.0405 -0.0136,-0.102 -0.0282,-0.0035 0.0162,-0.0596 -0.0548,0.0533l-0.029 -0.087c-0.0139,0.0159 -0.0528,0.0168 -0.0275,0.0819 -0.085,-0.0412 -0.0218,-0.0007 -0.0983,-0.1108l-0.0299 -0.037 0.0445 -0.0876 -0.1007 0.0377 -0.0841 -0.2986c-0.0704,0.0015 -0.0122,0.0393 -0.1469,-0.0437 0.0062,-0.0044 0.0167,-0.0172 0.0194,-0.0121 0.0151,0.0293 0.0626,-0.1013 0.0643,-0.1058l-0.0997 0.0697 0.0529 -0.1571 -0.0578 -0.0161c-0.0202,0.0221 -0.029,-0.0154 -0.0302,0.0836 -0.0023,-0.0051 -0.0048,-0.019 -0.0054,-0.016 -0.0075,0.0385 0.0149,0.0122 -0.0495,-0.1381 -0.018,0.0462 -0.0148,0.0319 -0.0047,0.0861l-0.0879 0.0204z"/>
   <path id="_530399736" class="fil8" d="M31.3223 7.6202l-0.0816 -0.004c-0.0051,0.0893 0.0718,0.0716 -0.1936,0.1253 0.0003,-0.1663 -0.0136,-0.1069 0.0575,-0.1784 0.0061,-0.0062 0.0143,-0.015 0.0197,-0.0206 0.0059,-0.006 0.0141,-0.0151 0.0208,-0.023 -0.1525,-0.0099 -0.2076,-0.0683 -0.3674,-0.1672l0.009 0.1434 0.1911 0.0363 -0.0116 0.2521 -0.1811 0.0705 -0.0031 0.1723 0.6347 -0.2975c-0.0464,-0.1422 0.0008,-0.0221 -0.0944,-0.1092z"/>
   <path id="_530398824" class="fil10" d="M27.0408 5.3018c-0.0604,-0.0509 0.0862,-0.0423 -0.0928,-0.0423 0.0149,0.1366 -0.0152,0.0449 -0.3758,0.0609l-0.1133 0.0272 0.0049 0.2007 0.6873 0.0107c-0.3403,-0.344 -0.164,-0.2182 -0.1103,-0.2572z"/>
   <path id="_530398680" class="fil4" d="M27.9095 7.382l-0.0724 -0.0103 -0.0058 0.0477c-0.2031,-0.0215 -0.1747,-0.0338 -0.2428,0.017l-0.0538 -0.0491c0.0048,0.3315 -0.0233,0.2715 0.0786,0.3446 0.1805,0.1294 -0.1039,0.0181 0.3173,0.2031l-0.0974 -0.167c-0.0013,-0.0065 0.0299,-0.2969 0.0763,-0.386z"/>
   <path id="_530398920" class="fil8" d="M24.5511 7.0254l-0.584 0.0012 0.0018 0.1808 0.6346 -0.0261 -0.0056 -0.4967 -0.11 -0.101c0.03,0.1798 0.0761,-0.0096 0.0632,0.4418z"/>
   <path id="_530398464" class="fil6" d="M27.533 2.6002l0.0294 -0.202c0.1017,0.0353 0.01,-0.0655 0.1588,0.1982l0.0344 -0.1385c0.1569,0.0056 0.0654,-0.0412 0.1891,-0.0481l0.0001 0.1717c-0.2833,0.0833 -0.2645,-0.0734 -0.4118,0.0187zm-0.1235 -0.3699l0.0195 0.0923c0.0959,-0.003 0.0938,0.0033 0.1622,0.0082 0.094,0.0067 0.0306,-0.0128 0.1356,0.0194 -0.0057,0.0021 -0.0142,-0.0001 -0.0171,0.0065 -0.0031,0.007 -0.0144,0.0048 -0.0189,0.0054l-0.1747 -0.0044c-0.0933,0.2861 0.0148,0.2405 0.0169,0.2425 0.1186,0.092 0.3152,0.0855 0.4582,-0.003 -0.004,-0.1536 0.0312,-0.0552 -0.0549,-0.2297 0.1143,-0.0251 0.0757,-0.0136 0.1124,-0.0556 0.1325,-0.0925 -0.0643,0.1323 0.0538,-0.0713 -0.1093,0.0959 0.029,0.0374 -0.136,0.0704 -0.1757,0.0592 -0.0766,0.0643 -0.1638,0.1113l-0.0299 -0.1488 -0.1555 -0.0003c-0.0544,-0.0223 0.0558,-0.0358 -0.157,-0.0349l0.0144 -0.12 -0.0768 -0.0054c0.0321,0.0875 0.0299,0.0393 0.0116,0.1174z"/>
   <path id="_530398848" class="fil8" d="M31.3468 6.9449l-0.5637 -0.0019 -0.0013 0.1491 0.5895 0.0122 -0.0465 0.24c0.0953,-0.0174 0.1051,-0.0296 0.1138,-0.1623 0.0058,-0.0879 0.0063,-0.2139 -0.0168,-0.2768 -0.0498,0.0533 -0.0177,0.0167 -0.075,0.0397z"/>
   <path id="_530398656" class="fil9" d="M26.1112 5.8096c-0.0274,0.0304 -0.0577,0.0556 -0.104,0.1085 0.0036,0.0102 0.0287,0.0884 0.0293,0.0897 0.0232,0.0496 0.0217,0.0331 0.0414,0.0553 -0.0028,-0.1355 0.0365,-0.122 0.1661,-0.1222 0.0943,-0.0002 0.1854,-0.0017 0.2748,0.0111l0.0498 0.1071c0.1202,-0.0016 0.104,0.0102 0.1892,-0.0643 -0.0275,-0.0579 -0.0263,-0.0504 -0.0622,-0.1072 -0.0711,-0.1124 0.015,-0.0638 -0.0915,-0.1069l0.0265 0.0918c-0.077,-0.0163 -0.0652,-0.0012 -0.1064,-0.0465 -0.0266,-0.0292 -0.0113,0.0062 -0.0321,-0.0746l-0.0739 -0.0165c0.1247,0.0585 0.0257,0.0116 0.061,0.0459 -0.1354,0.0038 -0.2498,-0.0211 -0.368,0.0288z"/>
   <path id="_530398608" class="fil8" d="M24.0107 8.4979c-0.0008,-0.2109 0.0798,-0.2432 0.157,-0.2915 0.0402,-0.0252 0.0111,-0.0027 0.0495,-0.0351 0.0035,-0.0029 0.0113,-0.0072 0.0138,-0.0167 0.0025,-0.0099 0.0086,-0.0123 0.0132,-0.0183l-0.221 0.0282 0.1495 0.5933c0.1304,0.0472 0.2477,0.01 0.3275,-0.0561 0.072,-0.0596 0.0553,-0.064 0.0895,-0.1274 0.0648,-0.12 0.1028,-0.0765 -0.0015,-0.3143 -0.0359,-0.0818 -0.051,-0.0836 -0.1472,-0.0815l0.1179 0.3194c-0.1037,0.0772 -0.0755,0.0715 -0.1801,0.0716 -0.2379,0.0001 -0.1487,0.0179 -0.3681,-0.0716z"/>
   <path id="_530406120" class="fil8" d="M30.7837 4.507c0.1721,0.0104 0.5159,0.0269 0.6511,-0.019l-0.0039 -0.1632 -0.6497 0.0104 0.0025 0.1718z"/>
   <path id="_530406096" class="fil8" d="M26.2158 11.4869c0.015,-0.1179 0.0038,-0.2357 0.0045,-0.3556 0.0017,-0.2938 0.1586,-0.185 0.2756,-0.081l-0.0276 -0.1144c-0.1355,-0.0985 -0.2706,-0.0538 -0.3936,-0.0003 -0.0292,0.2809 -0.0227,0.2572 -0.0167,0.545l0.1578 0.0063z"/>
   <path id="_530406168" class="fil3" d="M28.1585 2.1585c-0.053,0.0508 -0.0149,0.0385 -0.102,0.0543 -0.0659,-0.0275 -0.0568,0.039 -0.053,-0.0426l-0.0567 -0.0069c0.0296,0.1381 0.0388,0.0115 -0.0071,0.1489l0.0268 -0.0012c0.165,-0.033 0.0267,0.0255 0.136,-0.0704 -0.1181,0.2036 0.0787,-0.0212 -0.0538,0.0713l0.0415 0.0324c0.056,0.0345 0.0137,0.0249 0.133,0.0285l-0.2215 0.2243 0.1736 -0.0051c0.0073,-0.0153 0.0991,0.0256 -0.0302,-0.1322l0.1309 0.003 0.0031 -0.0812 0.1614 -0.059c-0.055,-0.0574 0.0041,-0.133 -0.128,-0.0225l-0.0464 -0.0871c0.099,-0.0116 0.0666,0.0087 0.0809,0.0186l0.0388 0.0334 0.1373 -0.1125 -0.0332 -0.0473c-0.0669,0.0052 -0.0574,0.0071 -0.0906,0.0556 -0.0086,-0.0031 -0.0439,-0.0153 -0.0514,-0.0177l-0.0808 -0.021 -0.0899 0.0404c-0.0025,-0.001 -0.0123,-0.0031 -0.0187,-0.004z"/>
   <path id="_530405616" class="fil4" d="M29.0438 1.0817c-0.0183,-0.1646 0.3393,-0.1849 0.3761,0.0103l-0.2905 -0.0043c0.1052,0.0987 0.0378,0.0314 0.1372,0.0824l-0.1663 0.0823 -0.0565 -0.1707zm-0.0443 -0.0541c-0.0166,0.0959 0.016,0.0859 -0.0145,0.1566 0.0336,0.0934 0.024,0.1071 0.098,0.1708 0.0196,-0.0398 0.0307,-0.0329 -0.0136,-0.032l0.0464 0.1094 0.0088 -0.0793c0.1614,0.0038 0.0677,-0.0551 0.2694,-0.161 0.1065,-0.056 0.0473,-0.0049 0.1169,-0.0768l-0.0821 -0.0001c0.04,-0.168 0.0322,-0.0562 0.0601,-0.1213 0.0393,-0.0915 0.0335,-0.0778 -0.0352,-0.1481l0.0126 0.1638c-0.1394,-0.1083 -0.3366,-0.2223 -0.4668,0.018z"/>
   <path id="_530405400" class="fil6" d="M31.3893 8.3348c-0.0981,-0.0876 -0.448,-0.0647 -0.5864,-0.0257l-0.0071 -0.1582 0.5815 0.0081 0.012 0.1758zm-0.5561 0.2807c0.0009,-0.0477 -0.0114,-0.0361 0.0358,-0.0361l-0.0482 -0.1091c-0.0044,-0.035 0.0043,-0.103 0.0072,-0.1393l0.5261 0.0022 -0.0092 0.2087c-0.2248,0.0245 -0.3683,-0.0032 -0.4045,0.0656l0.3937 -0.0139 -0.0116 0.0407c0.0678,-0.0521 0.0989,-0.0464 0.1036,-0.2173 0.0025,-0.0894 0.0004,-0.1801 -0.0023,-0.2691l-0.657 -0.017c-0.0052,0.2852 -0.0418,0.3352 0.0664,0.4846z"/>
   <path id="_530405880" class="fil4" d="M27.0708 8.0313c0.0078,0.0715 0.0124,0.0542 -0.0154,0.0988 -0.0012,0.0003 0.0151,0.0896 -0.0793,-0.0054 -0.0302,-0.0303 -0.0365,0.0386 -0.0123,-0.056 0.0155,-0.0608 0.0676,-0.0482 0.107,-0.0374zm0.1532 0.2134l0.0043 -0.047 0.0233 0.0154c-0.1347,-0.2403 0.0213,-0.2552 -0.293,-0.3276l-0.1378 0.1957 0.1653 0.171 0.2379 -0.0075z"/>
   <path id="_530405520" class="fil3" d="M25.22 5.259l0.1186 -0.0266c-0.1941,0.1543 -0.1556,0.0931 -0.197,0.2088 0.3207,-0.0499 0.2962,-0.2521 0.4984,0.0393 0.0493,0.071 -0.006,0.0028 0.0562,0.049 0.0807,-0.131 0.0546,-0.0884 0.0156,-0.1484 -0.031,-0.0477 -0.0504,-0.0882 -0.0674,-0.1259 -0.1616,0.001 -0.2091,0.0206 -0.2839,-0.0441l0.31 0.0007 -0.0052 -0.0483c-0.1819,0.047 -0.2935,-0.0222 -0.4453,0.0955z"/>
   <path id="_530405808" class="fil10" d="M28.3684 5.9518l0.0716 -0.0029c-0.0024,-0.1188 0.0103,-0.1353 0.1209,-0.1535 0.0078,0.0936 -0.0093,0.1161 -0.0424,0.181l0.049 0.0358c0.1051,0.0167 0.0861,0.0362 0.2025,0.0116l0.0084 -0.0797 0.0191 -0.1123c-0.117,-0.0846 -0.1681,-0.0584 -0.4117,-0.0732l-0.0356 0.0688c-0.0004,0.0011 -0.0157,0.0532 -0.0195,0.0632l0.0377 0.0612z"/>
   <path id="_530405424" class="fil6" d="M27.3481 6.3377l0.0391 -0.042c0.0115,0.0771 -0.0453,0.1422 -0.0775,0.1923 -0.0736,0.1147 -0.0584,0.0875 -0.0699,0.2461l-0.0771 -0.0057 -0.0667 0.0681c0,0.2205 -0.0075,0.0244 0.043,0.1095 0.0394,-0.0952 -0.0689,-0.0716 0.0697,-0.0834l0.0784 0.059c0.1461,-0.0994 0.0968,-0.1623 0.0531,-0.3323 0.1133,-0.1649 0.0867,-0.1162 0.1511,-0.2996l-0.1432 -0.0039 0 0.0919z"/>
   <path id="_530405688" class="fil8" d="M30.8029 8.3091c0.1384,-0.039 0.4883,-0.0619 0.5864,0.0257l-0.012 -0.1758 -0.5815 -0.0081 0.0071 0.1582z"/>
   <path id="_530404824" class="fil11" d="M26.005 7.1652c0.0608,0.0835 -0.0837,0.0384 0.129,0.0562 0.2427,0.0204 0.3027,-0.0505 0.3032,-0.0506 0.11,-0.0271 0.306,0.0935 0.4964,0.0131 -0.1867,-0.0458 -0.0471,-0.0087 -0.2012,-0.0089l-0.1988 -0.0265 0.0401 -0.0678c0.0022,-0.0116 0.0106,-0.0136 0.0159,-0.0203l-0.3129 0.0084c-0.0934,0.0644 -0.1711,0.085 -0.2717,0.0964z"/>
   <path id="_530404680" class="fil8" d="M31.3225 8.6343l0.0116 -0.0407 -0.3937 0.0139 -0.0714 -0.0281c-0.0472,0 -0.0349,-0.0116 -0.0358,0.0361 0.0929,0.1991 0.4467,0.2016 0.4893,0.0188z"/>
   <path id="_530404560" class="fil9" d="M28.2761 2.6794c0.3078,-0.0325 0.222,0.0077 0.3728,-0.1484l-0.058 -0.1209 -0.078 0.0427 -0.0492 -0.0785c-0.1694,0.2014 -0.064,0.0849 -0.1228,0.2015l-0.0458 0.0713c-0.0063,0.0103 -0.013,0.0213 -0.019,0.0323z"/>
   <path id="_530404800" class="fil0" d="M24.3296 2.3188l0.0957 0.0192c0.0835,-0.0105 0.2911,-0.1295 0.3712,-0.1799l-0.1717 -0.1562 -0.1365 0.0464 0.2177 0.1382 -0.4586 -0.0284 0.2259 0.0905c-0.0722,0.0866 -0.0529,0.0297 -0.1437,0.0702z"/>
   <path id="_530405040" class="fil5" d="M28.3288 0.994c-0.0213,-0.0565 -0.0063,-0.0421 -0.0529,-0.07 -0.0555,0.1281 0.0703,0.0514 -0.083,0.0953 -0.0744,0.0214 -0.2275,-0.0408 -0.0845,-0.1169l-0.269 -0.0558c0.0072,0.0053 0.0186,0.0029 0.0223,0.0149 0.011,0.0356 0.1146,0.0315 0.085,0.1878l-0.0194 -0.0437c-0.0562,-0.123 -0.1071,-0.1616 -0.2156,-0.1213l0.2014 0.2488c0.006,-0.0066 0.0158,-0.0247 0.0191,-0.0191 0.0031,0.0053 0.014,-0.0135 0.018,-0.0177l0.0759 -0.0971c0.006,0.0079 -0.0059,0.0986 0.1285,0.0063l0.0138 0.0396 0.1076 0.0076c0.0016,-0.0032 0.004,-0.0122 0.0048,-0.0095l0.048 -0.0492z"/>
   <path id="_530404632" class="fil7" d="M27.0265 9.1849c0.0893,0.0994 0.2049,0.1757 0.3148,0.2449 0.0221,-0.0098 0.0692,0.0046 0.0562,-0.0738 -0.0053,-0.0315 -0.0503,-0.0708 -0.0687,-0.0925 -0.0261,-0.029 -0.0184,-0.0253 -0.0656,-0.0544 -0.0757,-0.0466 -0.0343,-0.0233 -0.0947,-0.0374l-0.0755 -0.067c0.0156,-0.1426 -0.0086,-0.0756 0.0851,-0.1521l-0.0823 -0.0157c-0.057,0.0235 -0.0404,-0.035 -0.045,0.0374l0.0513 0.0968c-0.0302,0.0363 -0.0508,0.0622 -0.0756,0.1138z"/>
   <path id="_530404368" class="fil9" d="M27.0265 9.1849c0.0248,-0.0516 0.0454,-0.0775 0.0756,-0.1138l-0.0513 -0.0968c0.0046,-0.0724 -0.012,-0.0139 0.045,-0.0374l0 -0.0479 -0.1071 -0.0214c-0.0111,0.0918 0.0323,0.0294 -0.0301,0.0814l-0.1414 -0.1024c-0.0036,-0.0119 -0.0155,-0.0092 -0.0231,-0.014 0.0268,0.178 0.108,0.3066 0.2324,0.3523z"/>
   <path id="_530403864" class="fil11" d="M25.6705 5.2118l0.0366 0.064 0.3957 -0.0022 -0.0063 -0.1406c-0.2708,-0.0395 -0.2535,0.0141 -0.426,0.0788z"/>
   <path id="_530404080" class="fil11" d="M27.533 2.6002c0.1473,-0.0921 0.1285,0.0646 0.4118,-0.0187l-0.0001 -0.1717c-0.1237,0.0069 -0.0322,0.0537 -0.1891,0.0481l-0.0344 0.1385c-0.1488,-0.2637 -0.0571,-0.1629 -0.1588,-0.1982l-0.0294 0.202z"/>
   <path id="_530403912" class="fil9" d="M30.8662 5.9262c-0.0293,-0.0431 -0.0474,-0.0624 -0.0803,-0.0905l0.0105 -0.499 0.6209 0.0096 0.0073 0.4136c0.0649,0 0.0276,-0.1237 0.025,-0.1985 -0.0028,-0.0807 0.0022,-0.1556 -0.0029,-0.249l-0.6782 0.0001 -0.0222 0.5291 0.1199 0.0846z"/>
   <path id="_530404008" class="fil9" d="M28.8509 1.993c0.0585,-0.0569 0.0306,-0.0283 0.1164,-0.0777 0.0328,-0.0157 0.0445,0.0715 0.0186,-0.0656 -0.0285,-0.0923 -0.0504,-0.0891 -0.1455,-0.1529l-0.0539 0.1548 -0.0414 -0.1098c-0.0207,0.1414 -0.0242,0.0869 0.025,0.1678 0.003,0.0049 0.0084,0.0129 0.0112,0.0176l0.0195 0.0388c-0.0031,0.0004 -0.0077,-0.0068 -0.0089,-0.0033 -0.0318,0.0939 0.0602,-0.0437 -0.0286,0.0013l-0.0736 0.0568c0.0577,0.0047 0.0137,0.015 0.098,-0.0046l0.0632 -0.0232z"/>
   <path id="_530404440" class="fil11" d="M29.6429 6.5131c0.1201,0.0444 0.1915,0.0866 0.2524,0.1542l0.3511 -0.0881c-0.0336,-0.077 -0.0143,-0.0143 -0.1873,-0.0167 -0.2035,-0.0028 -0.3265,-0.1263 -0.4356,-0.1455l0.0194 0.0961z"/>
   <path id="_530403504" class="fil3" d="M27.3288 9.2635c0.0184,0.0217 0.0634,0.061 0.0687,0.0925 0.013,0.0784 -0.0341,0.064 -0.0562,0.0738 -0.0559,0.0417 -0.0863,0.0239 -0.1958,0.0262 0.0749,0.0399 0.0409,0.0211 0.1405,0.0321 0.0501,0.0056 0.0843,0.0105 0.1336,0.0151 -0.0509,0.0713 0.0839,0.0704 -0.104,0.0483 0.0081,0.0046 0.0186,0.0048 0.0239,0.0147 0.0086,0.0161 0.0854,0.0044 0.0857,0.0043 0.1018,-0.1175 0.0135,-0.3096 0.0682,-0.4882l-0.087 0.0214 -0.0182 -0.0532 0.0138 0.1883c-0.0326,0.0411 0.0532,0.0458 -0.0732,0.0247z"/>
   <path id="_530403408" class="fil9" d="M28.4956 1.527l0.0273 0.1095 -0.0739 -0.0513c-0.0034,-0.0017 -0.0116,-0.0066 -0.0147,-0.0078l-0.021 0.0043c0.0698,0.0705 0.0206,-0.0808 0.0275,0.0525 0.0056,0.1075 -0.0454,0.0327 0.0391,0.1568l0.0531 0.0213 0.0434 0.232 0.0422 -0.5996c-0.0523,0.0692 -0.0427,0.0115 -0.051,0.2088 -0.0118,-0.1791 -0.0123,-0.0906 -0.072,-0.1265z"/>
   <path id="_530403240" class="fil6" d="M26.0595 1.0808c-0.1297,0.0282 -0.0335,0.0156 -0.0685,-0.0205 0.0769,-0.1314 0.1177,-0.0934 0.2815,-0.0861 0.0936,0.1112 0.1162,0.1069 0.0603,0.2781l0.0728 -0.0127 -0.0067 -0.1433c0.0842,0.0163 0.0538,0.0301 0.1051,-0.0634 0.0611,-0.0003 0.0076,0.0124 0.0272,-0.076 -0.0247,-0.0478 0.0043,-0.0118 -0.0631,-0.0337 0,0.0002 0.023,0.148 -0.0512,0.1217 -0.1217,-0.043 0.0767,0.0798 -0.0244,-0.0166 -0.081,-0.0773 -0.0865,-0.2266 -0.4524,-0.0394l0.014 -0.1019 -0.0361 0.0635 0.1415 0.1303z"/>
   <path id="_530403096" class="fil11" d="M28.5311 7.0159c0.1342,0.1009 0.0842,-0.0136 0.1815,0.1326l-0.2238 0.0046c0.1686,0.0647 0.2054,0.0032 0.2849,-0.0083 0.0498,-0.0071 0.215,0.0363 0.3067,0.0454 -0.0726,-0.0641 -0.0461,-0.0512 -0.1243,-0.0843 -0.0864,-0.0366 -0.2967,-0.1248 -0.3754,-0.1154 -0.1102,0.0132 -0.0111,-0.0021 -0.0496,0.0254z"/>
   <path id="_530402928" class="fil7" d="M27.2567 8.6227l-0.065 0.0229c-0.0022,0.072 -0.0088,0.0711 0.042,0.0994 0.0089,0.0087 0.0293,0.0045 0.0317,0.0199 0.0081,0.0525 0.0041,-0.0236 0.0226,0.029 0.0217,-0.0148 -0.031,-0.0172 0.1096,-0.0217 0.0148,-0.0729 0.016,-0.0736 0.0569,-0.1205 0.015,-0.0173 0.0058,-0.0097 0.0322,-0.0282l-0.0057 0.0114 -0.0164 -0.1035 -0.149 0.0475c0.052,-0.0642 -0.015,0.0215 -0.0589,0.0438z"/>
   <path id="_530403600" class="fil4" d="M29.1078 6.2092c0.034,-0.0064 0.0473,0.0147 0.0686,0.0295l-0.0432 0.0997 -0.0917 -0.0635c0.0005,-0.0008 -0.0056,-0.052 0.0663,-0.0657zm0.1598 0.1273l0.0145 -0.1394c-0.2438,-0.146 -0.2089,-0.1274 -0.3158,0.0228l0.2662 0.1827 0.0351 -0.0661z"/>
   <path id="_530403624" class="fil11" d="M27.4219 1.3944l0.0113 -0.0752 0.0609 -0.0218c-0.0312,-0.0699 -0.0202,-0.1089 -0.0376,-0.1576l0.0103 0.0629 -0.0814 0.0396c-0.012,0.1675 -0.02,0.1724 -0.1324,0.2781l0.1446 0.148 -0.0274 0.1278c0.0176,-0.0896 0.009,-0.0587 0.0847,-0.1596l0.0151 0.13c0.0459,-0.1889 -0.1234,-0.183 -0.0481,-0.3722z"/>
   <path id="_530402232" class="fil4" d="M27.6386 9.2965l-0.0757 0.076 0.0026 0.1155c0.1856,0.1699 0.3165,0.0387 0.3174,0.0163 0.0018,-0.0447 -0.0686,-0.1034 -0.0701,-0.3202l-0.0669 0.0432c0.0491,0.1462 0.1478,0.1264 0.0637,0.2628l-0.1909 0.0065 0.083 -0.2469 -0.0631 0.0468z"/>
   <path id="_530402184" class="fil3" d="M28.2728 4.7839c-0.0571,-0.0897 -0.3718,-0.0379 -0.4797,-0.0457l-0.006 -0.3848c0.1253,-0.0093 0.404,0.0379 0.4786,-0.0384 -0.1591,0.0151 -0.3457,-0.022 -0.5019,0.0286l0.0056 0.4177 0.5034 0.0226z"/>
   <path id="_530402784" class="fil9" d="M27.6386 9.2965l0.0631 -0.0468 -0.083 0.2469 0.1909 -0.0065c0.0841,-0.1364 -0.0146,-0.1166 -0.0637,-0.2628l-0.0937 -0.0432 -0.0136 0.1124z"/>
   <path id="_530402688" class="fil9" d="M24.0465 2.3557l0.1427 0.0062 0.1134 0.1306c-0.1241,0.0145 -0.1704,0.0042 -0.2567,0.0779 0.1653,-0.0419 0.1041,0.0224 0.2951,-0.0457l0.036 0.0284c-0.0768,-0.0917 -0.057,-0.0218 -0.0447,-0.148 0.0384,-0.0402 -0.0013,-0.0041 0.0465,-0.0382 0.0493,-0.035 -0.0071,0.0119 0.0465,-0.0289l-0.0957 -0.0192c-0.0306,-0.0045 -0.0957,-0.0094 -0.1225,-0.0139 -0.1085,-0.0182 -0.1122,0.0414 -0.1122,-0.0536 -0.0033,0.0076 -0.0082,0.0106 -0.0099,0.0226l-0.0385 0.0818z"/>
   <path id="_530402808" class="fil1" d="M26.7941 8.8326c0.0076,0.0048 0.0195,0.0021 0.0231,0.014l0.1414 0.1024c0.0624,-0.052 0.019,0.0104 0.0301,-0.0814 -0.0865,-0.0507 -0.116,-0.1097 -0.1529,-0.1916 -0.0511,-0.1129 -0.0587,-0.1331 -0.1161,-0.2246 -0.0022,0.1735 0.0377,0.2386 0.0744,0.3812z"/>
   <path id="_530402904" class="fil10" d="M31.3223 7.6202c0,-0.0735 0.0184,-0.0553 -0.0548,-0.0553 -0.0877,-0.0559 -0.033,-0.037 -0.1224,-0.0454 -0.0067,0.0079 -0.0149,0.017 -0.0208,0.023 -0.0054,0.0056 -0.0136,0.0144 -0.0197,0.0206 -0.0711,0.0715 -0.0572,0.0121 -0.0575,0.1784 0.2654,-0.0537 0.1885,-0.036 0.1936,-0.1253l0.0816 0.004z"/>
   <path id="_530401536" class="fil9" d="M27.9195 10.3717c0.0028,0.1576 0.0099,0.0348 -0.0277,0.0961 -0.1039,-0.0672 -0.0659,-0.0752 0.0277,-0.0961zm0.0207 0.1678l0.0546 -0.2212c-0.0815,-0.0254 -0.2013,-0.077 -0.2162,0.0398 -0.0026,0.0202 0.0128,0.0837 0.0285,0.1147 0.0578,0.1134 0.0074,0.0562 0.1331,0.0667z"/>
   <path id="_530401728" class="fil2" d="M27.5125 1.1749l0.0936 0.0775 -0.0809 0.0275 0.0499 0.0424c0.0038,0.0039 0.0091,0.0115 0.0132,0.0158 0.0042,0.0045 0.0096,0.0119 0.0136,0.0162l0.0311 0.0312c0.0258,-0.1307 -0.0006,-0.0885 0.1039,-0.167l0.0831 0.0766 -0.0105 -0.1345 -0.1579 0.097c0.0021,-0.1134 -0.0555,-0.0125 0.0346,-0.0819l0.0706 -0.0331c-0.0389,-0.0595 -0.0155,-0.0184 -0.0447,-0.0359 -0.0018,-0.001 -0.0087,-0.0012 -0.0107,-0.0025 -0.0023,-0.0016 -0.0087,-0.0049 -0.011,-0.007l-0.0742 -0.0148c-0.0636,0.1016 -0.0144,0.0549 -0.1037,0.0925z"/>
   <path id="_530401512" class="fil3" d="M30.2521 10.0539l0.0773 -0.2294 -0.2156 -0.0024c-0.0034,0.1001 0.0092,0.2181 0.1383,0.2318z"/>
   <path id="_530401776" class="fil5" d="M26.1112 5.8096c0.1182,-0.0499 0.2326,-0.025 0.368,-0.0288 -0.0353,-0.0343 0.0637,0.0126 -0.061,-0.0459l0.0007 -0.0587 -0.2561 -0.01c-0.0026,0.0148 -0.0307,0.071 -0.0318,0.0736 -0.012,0.0291 -0.011,0.0212 -0.0198,0.0698z"/>
   <path id="_530401968" class="fil6" d="M27.4458 10.4465c0.0061,-0.1325 -0.0023,-0.0447 0.0343,-0.0803 0.1174,0.0938 0.0316,0.0837 0.0316,0.0838l-0.0659 -0.0035zm-0.0744 -0.134c0.0425,0.1575 0.0185,0.2124 0.1705,0.218 0.0239,-0.065 0.0437,-0.134 0.0647,-0.2098 -0.1558,-0.0396 -0.0779,-0.0249 -0.2352,-0.0082z"/>
   <path id="_530401608" class="fil6" d="M28.6174 2.2822c0.035,0.0628 0.0224,0.0371 0.0703,0.0711 0.1239,-0.0259 0.1251,-0.0419 0.1645,-0.167l-0.0244 -0.1311 -0.0547 0.0433 -0.0224 0.1017 -0.0382 -0.0421 -0.0398 0.0524 0.0172 0.0047c0.0529,0.0144 0.0322,-0.0748 0.0254,0.0254l-0.0979 0.0416z"/>
   <path id="_530401176" class="fil6" d="M27.5181 9.9761c0.1463,-0.0529 0.092,-0.0501 0.1983,-0.1078l-0.1353 -0.0586 -0.0732 -0.0073c-0.1637,0.1511 -0.0668,0.066 -0.2316,0.1711 0.3978,-0.0374 0.0737,-0.0107 0.3006,-0.1186l-0.0588 0.1212z"/>
   <path id="_530400624" class="fil10" d="M28.0093 6.3949c0.0237,0.0464 0.0499,0.0892 0.0795,0.147l0.0775 0.1837c0.1259,-0.195 -0.1029,-0.2843 -0.1191,-0.4285 -0.0699,0.0327 -0.0606,-0.0584 -0.0379,0.0978z"/>
   <path id="_530400792" class="fil2" d="M28.7184 4.7789l0.4309 -0.0237 -0.0112 -0.4228 -0.4009 -0.0078c0.0882,0.0489 0.2607,0.0285 0.3822,0.0284l0.0004 0.3896c-0.1174,-0.012 -0.3261,-0.0374 -0.4014,0.0363z"/>
   <path id="_530400768" class="fil10" d="M27.3481 6.3377c-0.14,0.1025 -0.1572,0.1999 -0.1854,0.3907l0.0771 0.0057c0.0115,-0.1586 -0.0037,-0.1314 0.0699,-0.2461 0.0322,-0.0501 0.089,-0.1152 0.0775,-0.1923l-0.0391 0.042z"/>
   <path id="_530400744" class="fil2" d="M28.9745 10.3103l0.0222 0.1569 0.1546 -0.0013 0.0239 -0.161c-0.096,-0.0286 -0.0075,0.0403 -0.1033,-0.0465 -0.0882,0.0845 -0.0141,0.0222 -0.0974,0.0519z"/>
   <path id="_530400888" class="fil5" d="M26.9521 1.91c-0.0851,0.0028 -0.0345,-0.0075 -0.0209,0.0329l0.0297 0.1211c0.1291,0.0349 0.0858,0.0311 0.1738,0.0678l-0.0706 -0.0848 0.0318 -0.1083c0.0056,-0.0524 0.0899,-0.022 -0.0286,-0.0629 -0.1373,-0.0474 -0.0311,-0.0293 -0.1152,0.0342z"/>
   <path id="_530401368" class="fil10" d="M29.543 6.21l0.1668 0.0112 -0.0279 -0.0659 -0.0634 0.0799c0.0633,-0.2019 0.0666,-0.1469 0.0283,-0.2729 -0.1745,0.0233 -0.1096,0.0973 -0.1038,0.2477z"/>
   <path id="_530400480" class="fil2" d="M29.9957 4.7705l0.498 -0.0211 -0.0099 -0.406c-0.1619,-0.0463 -0.3278,0.0159 -0.4963,-0.0398 0.1203,0.0826 0.224,0.049 0.4808,0.0478l0.0006 0.3865 -0.3277 -0.0025c-0.011,0.0002 -0.0742,0.0018 -0.0816,0.0034 -0.0546,0.0119 -0.0369,0.0142 -0.0639,0.0317z"/>
   <path id="_530400408" class="fil2" d="M26.9902 10.3058l0.0318 0.1597 0.1519 -0.0033 0.0141 -0.1538c-0.0704,-0.029 -0.008,0.0266 -0.0921,-0.0503 -0.089,0.0865 -0.0105,0.0239 -0.1057,0.0477z"/>
   <path id="_530400000" class="fil2" d="M28.1848 10.3061l0.023 0.1497c0.1556,0.0191 0.1494,0.0075 0.1762,-0.1494 -0.1055,-0.0327 -0.007,0.0404 -0.108,-0.0475 -0.0207,0.0156 -0.0702,0.0365 -0.0912,0.0472z"/>
   <path id="_530399952" class="fil11" d="M25.9714 6.6042c-0.1592,-0.0276 -0.4324,-0.0878 -0.5798,-0.0275 0.0377,0.0167 -0.0646,0.0382 0.1101,0.045 0.0944,0.0038 0.4159,0.003 0.4697,-0.0175z"/>
   <path id="_530400552" class="fil2" d="M28.2657 4.315c0.0654,-0.0266 0.0364,-0.2649 0.0348,-0.3971l0.3879 -0.004c0.0057,0.1189 -0.0343,0.3329 0.0394,0.4089l-0.0257 -0.4301 -0.4176 0.009 -0.0188 0.4133z"/>
   <path id="_530400288" class="fil2" d="M29.3733 10.2959c0.0133,0.1189 0.0041,0.1321 0.1103,0.1776 0.1024,-0.0808 0.0712,-0.0299 0.0822,-0.164 -0.034,-0.0171 -0.0462,0.0015 -0.0822,-0.0441 -0.1166,0.0493 -0.0197,0.0225 -0.1103,0.0305z"/>
   <path id="_639698832" class="fil4" d="M27.2913 6.8842c0.267,0.4073 0.2103,0.06 0.2619,0.2351 0.0482,-0.0577 0.0378,0.0704 0.0408,-0.0644l-0.1708 -0.0939 0.0313 -0.0593c0.0185,-0.0679 0.0064,-0.0118 -0.0018,-0.0766l-0.0824 0.0858 -0.079 -0.0267z"/>
   <path id="_639698976" class="fil6" d="M27.6631 6.8655c-0.0043,-0.1043 0.0168,-0.054 -0.0031,-0.1817l-0.2114 -0.0098c0.0228,0.1223 -0.0015,0.075 0.1058,0.1292 0.1024,0.0518 -0.0207,0.0044 0.1087,0.0623z"/>
   <path id="_639698640" class="fil2" d="M25.2569 9.9043c-0.0088,-0.0023 -0.0522,-0.0144 -0.062,-0.0166l-0.0529 -0.0109c-0.0006,-0.0001 -0.0737,-0.003 -0.0764,-0.003l0.0262 -0.0699 -0.0616 0.0388c0.0005,0.0014 0.0234,0.0649 0.0235,0.0651 0.0257,0.0912 -0.0264,0.0458 0.1485,0.1412 0.0647,-0.088 0.0403,-0.026 0.0547,-0.1447z"/>
   <path id="_639699000" class="fil11" d="M26.9765 11.1209c0.0272,0.0985 0.0514,0.1387 0.1194,0.2079 0.058,-0.0842 0.0742,-0.1166 0.0677,-0.21l-0.1871 0.0021z"/>
   <path id="_639698328" class="fil6" d="M28.3684 5.9518l0.1112 0.0784c0.0036,-0.0059 0.0106,0.0155 0.016,0.0232l0.0402 -0.0243c0.0042,-0.0025 0.0242,-0.0116 0.0317,-0.0169l-0.049 -0.0358c0.0331,-0.0649 0.0502,-0.0874 0.0424,-0.181 -0.1106,0.0182 -0.1233,0.0347 -0.1209,0.1535l-0.0716 0.0029z"/>
   <path id="_639698304" class="fil11" d="M27.8197 8.6073l0.1371 0.0786 0.0777 -0.012 -0.0329 -0.2079 -0.0549 0.126 -0.0712 -0.0813c-0.0503,0.035 -0.034,0.0091 -0.0558,0.0966z"/>
   <path id="_639698472" class="fil11" d="M28.5124 11.3122l0.0324 -0.2001 -0.1767 0.002c0.0099,0.0544 0.0034,0.0431 0.0404,0.1033 0.0534,0.0873 0.0494,0.0648 0.1039,0.0948z"/>
   <path id="_639706200" class="fil3" d="M29.5268 4.7831l-0.3092 -0.0372 -0.0018 -0.3978c0.1963,0.0012 0.2535,0.0311 0.3202,-0.0417 -0.1292,0.0275 -0.2351,-0.0057 -0.3438,0.0422l0.0028 0.4137 0.3318 0.0208z"/>
   <path id="_639706248" class="fil4" d="M29.2698 1.4364c0.0055,0.0013 0.0144,-0.0026 0.0167,0.0038 0.0024,0.0068 0.014,0.0038 0.0172,0.0049l0.0364 0.0133 0.1372 -0.0563 0.0059 -0.1361c-0.0074,0.0042 -0.017,0.009 -0.0223,0.0122l-0.1047 0.0668c-0.0903,0.0635 -0.0476,0.0254 -0.0864,0.0914z"/>
   <path id="_639706008" class="fil11" d="M28.2852 5.7575c-0.0768,-0.0805 -0.203,-0.2509 -0.327,-0.1688 0.0013,0.0019 -0.0339,0.0485 0.0469,0.0764 0.1312,0.0454 0.023,-0.0833 0.2801,0.0924z"/>
   <path id="_639705672" class="fil11" d="M27.7728 2.2735l0.0299 0.1488c0.0872,-0.047 -0.0119,-0.0521 0.1638,-0.1113l-0.0268 0.0012c0.0459,-0.1374 0.0367,-0.0108 0.0071,-0.1489l0.0567 0.0069 -0.0433 0.045 -0.1428 0.0394c-0.0047,0.0023 -0.0178,0.0157 -0.0212,0.0096 -0.0037,-0.0066 -0.0156,0.0064 -0.0234,0.0093z"/>
   <path id="_639705816" class="fil3" d="M26.7891 10.3082l-0.0582 -0.0005 -0.0023 0.0638c-0.1048,-0.0199 -0.0557,0.0158 -0.0662,-0.0655l-0.0576 -0.0165c0.0151,0.1405 0.0012,0.1715 0.1343,0.1639 0.0621,-0.0875 0.0355,-0.031 0.05,-0.1452z"/>
   <path id="_639705504" class="fil3" d="M28.7696 10.288l-0.0599 0.0175c-0.0146,0.0736 0.0166,0.0498 -0.0494,0.0588l-0.0189 -0.0583 -0.0549 0.0012 0.0463 0.1433c0.1405,0.0189 0.123,-0.0185 0.1368,-0.1625z"/>
   <path id="_639705408" class="fil2" d="M28.6174 2.2822l0.0979 -0.0416c0.0068,-0.1002 0.0275,-0.011 -0.0254,-0.0254l-0.0172 -0.0047 0.0398 -0.0524 0.0382 0.0421 0.0224 -0.1017c-0.1287,0.002 -0.2002,0.0065 -0.1557,0.1837z"/>
   <path id="_639705936" class="fil1" d="M29.8585 10.2718l0.0397 0.0027 0.0248 -0.0341 0.0424 0.0175 0.0815 0.0069 0.0155 -0.0723c-0.1142,-0.0186 -0.0292,-0.0186 -0.1407,-0.0403l-0.0859 0.0468 0.0227 0.0728z"/>
   <path id="_639705888" class="fil3" d="M25.9957 10.2903l-0.0556 0.0144c-0.0172,0.0836 0.0308,0.0477 -0.0607,0.0655l-0.0082 -0.0609 -0.0569 -0.0019 0.0466 0.142c0.1389,0.0134 0.123,-0.0157 0.1348,-0.1591z"/>
   <path id="_639704832" class="fil1" d="M25.3318 10.2556l0.0775 0.0058 0.044 -0.0227 0.0172 0.0363 0.0433 0 0.0379 -0.0896 -0.13 -0.0382c-0.0626,0.0511 -0.0581,0.0286 -0.0899,0.1084z"/>
   <path id="_639704616" class="fil6" d="M26.9521 1.91l0.0231 -0.0478 -0.0686 -0.0984c-0.0015,-0.0015 -0.0078,-0.0037 -0.0094,-0.0051 -0.0016,-0.0015 -0.0066,-0.0047 -0.0084,-0.0063l-0.0947 -0.0851c0.0043,0.0119 0.0101,0.0152 0.0136,0.0353 0.0108,0.0625 0.0462,0.0167 0.0623,0.2147 0.1221,0.0387 0.0113,0.0092 0.0821,-0.0073z"/>
   <path id="_639705072" class="fil7" d="M27.1351 1.2474l-0.071 -0.0296 0.0212 -0.1061 0.0573 0.0478c0.0327,-0.0414 0.029,-0.114 0.037,-0.167 -0.0804,0.0351 -0.0973,0.0613 -0.1645,0.1227l0.0808 0.1556c0.099,0.0019 0.0133,0.0054 0.0392,-0.0234z"/>
   <path id="_639705192" class="fil3" d="M25.5138 10.275l-0.0433 0c-0.0266,0.0781 0.0339,0.0276 -0.0488,0.0596 -0.0325,-0.0372 -0.0631,0.0505 -0.0124,-0.0732l-0.0775 -0.0058c0.0265,0.1225 0.0086,0.1586 0.1448,0.1496 0.0529,-0.0827 0.0317,-0.013 0.0372,-0.1302z"/>
   <path id="_639705144" class="fil3" d="M31.3682 5.7758c-0.0299,-0.1388 0.0245,-0.1605 -0.0458,-0.2828l-0.0829 0.1532 -0.0426 -0.1269 -0.0513 -0.0192 0.0262 0.2136 0.1232 -0.1873c0.0267,0.0411 0.063,-0.0858 0.0123,0.2053l0.0609 0.0441z"/>
   <path id="_639705024" class="fil10" d="M25.4941 2.9626l0.101 0.0084 0.0428 -0.1268c-0.0852,-0.0487 -0.0637,-0.0424 -0.0791,0.037 -0.0114,-0.1879 0.0064,-0.0172 -0.045,-0.0849l-0.0197 0.1663z"/>
   <path id="_639704688" class="fil9" d="M28.7204 2.9504l0.1875 -0.0002c-0.0191,-0.0644 -0.0436,-0.0748 -0.1104,-0.1487 -0.0452,0.0611 -0.0637,0.0794 -0.0771,0.1489z"/>
   <path id="_639704400" class="fil4" d="M31.3468 6.9449c0.0573,-0.023 0.0252,0.0136 0.075,-0.0397l0.0242 -0.1247c-0.0699,-0.0582 -0.0418,-0.0466 -0.1287,-0.0723 0.0313,0.128 0.0619,0.0779 0.0295,0.2367z"/>
   <path id="_639704304" class="fil3" d="M29.8982 10.2745l-0.0397 -0.0027 0.0192 0.1176 0.1034 0.0141c0.0049,-0.0052 0.0134,-0.0193 0.0151,-0.0151 0.0022,0.0054 0.017,-0.0193 0.024,-0.0346 0.0047,-0.0103 0.0207,-0.07 0.0267,-0.089l-0.0815 -0.0069c0.0172,0.1164 0.0201,0.0321 -0.0152,0.0763 -0.0877,-0.0239 -0.0323,0.0312 -0.052,-0.0597z"/>
   <path id="_639704208" class="fil1" d="M26.9902 10.3058c0.0952,-0.0238 0.0167,0.0388 0.1057,-0.0477 0.0841,0.0769 0.0217,0.0213 0.0921,0.0503l0.0169 -0.0766c-0.0152,-0.0048 0.0405,0.035 -0.109,-0.0466 -0.078,0.0452 -0.0904,0.0349 -0.1057,0.1206z"/>
   <path id="_639704040" class="fil1" d="M28.5865 10.3072l0.0549 -0.0012c0.0381,-0.0568 0.0423,-0.0382 0.0683,-0.0005l0.0599 -0.0175c-0.009,-0.0723 -0.0305,-0.0615 -0.0842,-0.1051l-0.106 0.0548 0.0071 0.0695z"/>
   <path id="_639703944" class="fil1" d="M26.6048 10.2895l0.0576 0.0165c0.0383,-0.0524 0.0404,-0.0468 0.0685,0.0017l0.0582 0.0005 0.0001 -0.0727 -0.0776 -0.0461c-0.0734,0.0275 -0.091,0.0078 -0.1068,0.1001z"/>
   <path id="_639703896" class="fil1" d="M29.3733 10.2959c0.0906,-0.008 -0.0063,0.0188 0.1103,-0.0305 0.036,0.0456 0.0482,0.027 0.0822,0.0441l0.0183 -0.0748c-0.0606,-0.0158 -0.0615,-0.0185 -0.1003,-0.0414l-0.1102 0.0405 -0.0003 0.0621z"/>
   <path id="_639703512" class="fil1" d="M25.8143 10.3074l0.0569 0.0019c0.0323,-0.0609 0.0373,-0.0453 0.0689,-0.0046l0.0556 -0.0144c-0.0024,-0.0788 -0.0226,-0.0615 -0.08,-0.1031 -0.0684,0.0303 -0.1093,0.0321 -0.1014,0.1202z"/>
   <path id="_639703392" class="fil1" d="M28.1848 10.3061c0.021,-0.0107 0.0705,-0.0316 0.0912,-0.0472 0.101,0.0879 0.0025,0.0148 0.108,0.0475 -0.006,-0.0285 0.0002,-0.0373 -0.017,-0.0608 -0.0492,-0.0668 -0.0575,-0.0439 -0.091,-0.0593 -0.1109,0.0564 -0.0797,0.0391 -0.0912,0.1198z"/>
   <path id="_639703560" class="fil11" d="M27.943 5.7756c-0.0616,-0.0629 -0.0844,-0.1098 -0.1746,-0.1394l0.0138 0.1172c0.0907,0.06 0.0549,0.045 0.1608,0.0222z"/>
   <path id="_639703248" class="fil1" d="M25.0918 9.8039l-0.0262 0.0699c0.0027,0 0.0758,0.0029 0.0764,0.003l0.0529 0.0109c0.0098,0.0022 0.0532,0.0143 0.062,0.0166l0.0149 -0.0766c-0.1022,-0.0167 -0.0752,-0.0397 -0.18,-0.0238z"/>
   <path id="_639703032" class="fil1" d="M28.9745 10.3103c0.0833,-0.0297 0.0092,0.0326 0.0974,-0.0519 0.0958,0.0868 0.0073,0.0179 0.1033,0.0465 -0.0053,-0.0341 0.0045,-0.0326 -0.0158,-0.0584 -0.0157,-0.0198 -0.1449,-0.1406 -0.1849,0.0638z"/>
   <path id="_639703224" class="fil3" d="M29.0203 3.1473l0.0791 0.1006c0.0898,-0.1117 0.0929,-0.084 -0.0048,-0.1815l-0.0743 0.0809z"/>
   <path id="_639702840" class="fil9" d="M26.3859 10.2966l-0.0669 -0.0162 0.0141 0.0838c-0.1607,0.0452 -0.0737,-0.0037 -0.0839,0.0777 0.1035,0.0253 0.0067,0.0375 0.122,-0.0111l0.0147 -0.1342z"/>
   <path id="_639702720" class="fil3" d="M29.0531 11.2409c-0.0304,0.0322 -0.0244,-0.0511 -0.0401,0.083 -0.0055,0.0466 0.0072,0.0594 0.0173,0.0977l0.1938 0.0076 0.0151 -0.2401c-0.0456,0.0765 -0.0252,0.1076 -0.0285,0.2119l-0.1617 0.0025 0.0041 -0.1626z"/>
   <path id="_639702288" class="fil6" d="M31.0045 6.1978c-0.0515,-0.045 0.0686,-0.021 -0.0728,-0.0475 -0.0189,-0.0035 -0.1104,0.0045 -0.1353,0.0058l0.0109 -0.1629c-0.0595,0.0421 -0.0302,-0.0731 -0.0415,0.0881 -0.0029,0.0418 0.0093,0.067 0.0165,0.1023l0.2222 0.0142z"/>
   <path id="_639702504" class="fil1" d="M26.319 10.2804l0.0669 0.0162 0.0186 -0.0467 -0.1179 -0.0625 -0.0827 0.0944c0.043,0.024 -0.0091,0.0415 0.1151,-0.0014z"/>
   <path id="_639702168" class="fil3" d="M31.2 4.9631l-0.0154 -0.147 0.1432 0.0019 -0.0128 0.143c0.0174,-0.0221 0.0607,0.0313 0.03,-0.1622l-0.1858 -0.012c-0.0023,0.1967 -0.0032,0.1271 0.0408,0.1763z"/>
   <path id="_639702432" class="fil10" d="M27.0554 8.1301c0.0278,-0.0446 0.0232,-0.0273 0.0154,-0.0988 -0.0394,-0.0108 -0.0915,-0.0234 -0.107,0.0374 -0.0242,0.0946 -0.0179,0.0257 0.0123,0.056 0.0944,0.095 0.0781,0.0057 0.0793,0.0054z"/>
   <path id="_639702360" class="fil6" d="M28.0093 6.3949c-0.0227,-0.1562 -0.032,-0.0651 0.0379,-0.0978 -0.0572,-0.0443 0.1089,-0.0679 -0.1119,-0.0312l-0.0216 0.1352 0.0956 -0.0062z"/>
   <path id="_639701856" class="fil6" d="M24.8454 2.9485l0.1076 0.0064 0.0091 -0.1472c-0.0509,0.0153 -0.0852,-0.0072 -0.1167,0.1408z"/>
   <path id="_639701808" class="fil6" d="M30.3775 2.9382l0.1163 0.0176c0.0121,-0.0977 0.015,-0.0687 -0.0222,-0.1478 -0.0457,0.0258 -0.0752,0.048 -0.0941,0.1302z"/>
   <path id="_639701736" class="fil6" d="M29.8268 2.9409l0.117 0.0116c0.0102,-0.0936 0.0137,-0.0638 -0.0211,-0.144 -0.0571,0.0289 -0.031,0.0045 -0.0649,0.0546l-0.031 0.0778z"/>
   <path id="_639701472" class="fil9" d="M22.9689 3.5592c-0.0081,-0.004 -0.0183,-0.0085 -0.0244,-0.0113l-0.138 -0.0934 0.0127 0.0822c-0.0992,0.1099 -0.1386,0.1293 -0.1709,0.2474l0.1779 -0.2393 0.1427 0.0144z"/>
   <path id="_639702072" class="fil5" d="M26.1568 5.6162c0.0593,0.0639 0.1777,0.0402 0.2559,0 -0.0558,-0.0275 -0.195,-0.0441 -0.2559,0z"/>
   <polygon id="_639701592" class="fil6" points="25.4941,2.9626 25.5138,2.7963 25.4296,2.8442 25.3986,2.9496 "/>
   <path id="_639700968" class="fil4" d="M26.0255 2.9586c0.0294,-0.0384 0.0337,0.0629 0.039,-0.1489 -0.0708,0.0259 -0.0722,-0.0116 -0.0946,0.0746 -0.0237,0.0913 -0.0064,0.0452 0.0556,0.0743z"/>
   <path id="_639700632" class="fil6" d="M26.9493 1.4929l-0.0007 -0.0273c0.0463,-0.0826 -0.0475,-0.0703 -0.1201,-0.0736 -0.0046,0.0993 -0.0112,0.091 0.1208,0.1009z"/>
   <path id="_639700824" class="fil6" d="M25.2022 3.2315c0.0643,-0.0821 0.0451,-0.0365 0.0332,-0.1472 -0.057,0.0189 -0.0781,0.0058 -0.0888,0.0668 -0.0151,0.0861 0.0311,0.0663 0.0556,0.0804z"/>
   <path id="_639700608" class="fil6" d="M30.7461 3.2331c0.0003,-0.0004 0.041,0.0041 0.0384,-0.062 -0.0073,-0.1818 0.0181,-0.0241 -0.0544,-0.0913 -0.0447,0.0963 -0.0893,0.0942 0.016,0.1533z"/>
   <path id="_639701328" class="fil4" d="M26.5208 2.9486c0.0657,0.0036 0.117,0.0761 0.0811,-0.1324 -0.0597,0.0206 -0.0714,-0.0255 -0.0811,0.1324z"/>
   <path id="_639700680" class="fil8" d="M29.0415 6.2749l0.0917 0.0635 0.0432 -0.0997c-0.0213,-0.0148 -0.0346,-0.0359 -0.0686,-0.0295 -0.0719,0.0137 -0.0658,0.0649 -0.0663,0.0657z"/>
   <path id="_639700056" class="fil11" d="M27.1755 2.1519c0.0676,0.0408 0.0837,0.0366 0.129,0.0361 0.0746,-0.0008 0.0246,0.0194 0.0622,-0.0107l-0.0104 -0.0341 -0.1232 -0.0146c-0.0051,-0.027 0.0208,-0.0219 -0.0111,-0.0686l-0.0465 0.0919z"/>
   <path id="_639700248" class="fil9" d="M29.6483 3.2452c0.0507,-0.0683 0.0502,-0.0396 0,-0.169 -0.0007,0.0006 -0.1381,0.0222 0,0.169z"/>
   <path id="_639700584" class="fil6" d="M25.7236 3.2263c0.0292,-0.0065 0.0893,0.0741 0.0549,-0.1321l-0.0549 0.0039c-0.0415,0.0781 -0.0413,0.0535 0,0.1282z"/>
   <path id="_639700536" class="fil9" d="M28.7784 5.9441c0.1101,-0.0223 0.1041,-0.0498 0.1708,-0.0912l-0.1517 -0.0211 -0.0191 0.1123z"/>
   <path id="_639700368" class="fil6" d="M24.5877 3.1736c0.0439,0.0694 -0.035,0.0285 0.0843,0.0694l0.0134 -0.1618c-0.0957,0.0386 -0.0406,-0.0064 -0.0977,0.0924z"/>
   <path id="_639700464" class="fil10" d="M26.3464 4.999c0.027,0.0073 0.0551,0.0218 0.092,0.0199 0.1531,-0.0078 0.0471,-0.0042 0.0898,-0.034 -0.2138,-0.1043 -0.1584,-0.003 -0.1818,0.0141z"/>
   <path id="_639700440" class="fil10" d="M25.997 4.9849c0.004,0.003 -0.0338,0.1099 0.1864,-0.0274 -0.0191,-0.0082 0.0085,-0.0776 -0.1864,0.0274z"/>
   <path id="_639699336" class="fil6" d="M26.3274 3.2271l0.016 -0.1253c-0.1402,-0.0086 -0.1462,0.105 -0.016,0.1253z"/>
   <path id="_639699072" class="fil4" d="M29.3189 2.9521c0.0575,-0.0182 0.0448,0.062 0.0722,-0.1446 -0.0279,0.0119 -0.1501,0.0357 -0.0722,0.1446z"/>
   <path id="_639699408" class="fil6" d="M30.1697 3.23c0.0256,-0.0165 0.0977,0.0299 0.0275,-0.1481 -0.0116,0.012 -0.0511,0.0389 -0.057,0.071 -0.0192,0.105 0.015,0.0578 0.0295,0.0771z"/>
   <path id="_639699096" class="fil4" d="M26.8489 3.2306c0.079,-0.0502 0.085,-0.0869 0,-0.1371 -0.0615,0.0711 -0.0651,0.0561 0,0.1371z"/>
   <path id="_639699624" class="fil4" d="M28.5505 3.228c0.028,-0.0169 0.0656,0.0006 0.0458,-0.0687 -0.017,-0.0595 -0.0783,-0.0739 -0.0822,-0.0765 -0.0048,0.1046 -0.0254,0.0713 0.0364,0.1452z"/>
   <path id="_639699528" class="fil9" d="M28.2531 5.9438c-0.0099,-0.1215 0.0143,-0.0875 -0.0594,-0.1493 -0.0108,0.0163 -0.0659,0.02 -0.0154,0.1054 0.0082,0.0138 0.0556,0.0348 0.0748,0.0439z"/>
   <path id="_636042848" class="fil7" d="M26.6321 1.8269l0.0676 -0.0095c-0.0366,-0.0855 -0.0099,-0.1024 -0.1296,-0.1112l0.062 0.1207z"/>
   <path id="_636042080" class="fil5" d="M28.1 2.0645c-0.052,-0.0431 -0.0819,-0.0616 -0.116,-0.0162 0.0072,0.0057 0.0046,0.0276 0.0079,0.0325 0.0462,0.0689 0.0626,0.0452 0.0747,0.05l0.0104 -0.0199c0.001,-0.0018 0.0063,-0.0096 0.0073,-0.0114l0.0157 -0.035z"/>
   <path id="_530346896" class="fil10" d="M29.3009 6.405l0.0071 0.0618c0.0373,-0.0248 0.0284,-0.0055 0.0536,-0.0451 0.0301,-0.0474 0.0102,-0.024 0.0281,-0.0775l-0.0697 0.0098 -0.0524 -0.0175c0.0314,0.0971 -0.0227,-0.0458 0.0125,0.0326 0.0021,0.0046 0.0157,0.0284 0.0208,0.0359z"/>
   <path id="_530346488" class="fil7" d="M23.9538 10.4046c-0.0019,-0.0097 -0.0095,-0.0105 -0.0141,-0.0159 -0.0377,0.0561 -0.0317,0.0162 -0.0062,0.0878 0.0394,0.1104 0.0405,0.0596 0.0611,0.0776 0.0083,-0.1596 -0.0336,-0.1125 -0.0408,-0.1495z"/>
   <path id="_530346632" class="fil11" d="M28.8838 6.2553l0.0179 -0.061 -0.0736 0.0013 -0.028 0.1122c0.0928,-0.0151 0.0355,0.0231 0.0837,-0.0525z"/>
   <path id="_530342264" class="fil11" d="M25.7236 1.3433c0.0043,-0.0058 0.0734,0.0114 0.027,-0.0785 -0.02,-0.0386 -0.0259,-0.0186 -0.0627,-0.019 -0.0256,0.0845 -0.0311,0.0548 0.0357,0.0975z"/>
   <path id="_530342120" class="fil5" d="M29.7203 5.9351c-0.0334,-0.2235 0.053,-0.1978 -0.0746,-0.257l0.0746 0.257z"/>
   <path id="_530342048" class="fil10" d="M27.797 5.5985c0.1078,-0.0163 0.1209,-0.039 0.1675,-0.1276 -0.1651,0.0933 -0.1053,0.0543 -0.1675,0.1276z"/>
   <path id="_530342552" class="fil11" d="M27.8918 10.4678c0.0376,-0.0613 0.0305,0.0615 0.0277,-0.0961 -0.0936,0.0209 -0.1316,0.0289 -0.0277,0.0961z"/>
   <path id="_530342408" class="fil10" d="M28.9093 6.4932c0.0164,-0.0077 0.0448,0.0287 0.0286,-0.0647 -0.0181,-0.1046 -0.0366,-0.0542 -0.0626,-0.0688l-0.0437 0.0482 0.0741 -0.0093 0.0036 0.0946z"/>
   <path id="_530342432" class="fil11" d="M27.4458 10.4465l0.0659 0.0035c0,-0.0001 0.0858,0.01 -0.0316,-0.0838 -0.0366,0.0356 -0.0282,-0.0522 -0.0343,0.0803z"/>
   <path id="_530341256" class="fil5" d="M29.4836 6.0585c0.1007,-0.1598 0.0125,-0.1088 0,-0.1254 -0.0236,0.0385 -0.0189,-0.0007 -0.0223,0.0649 -0.0018,0.0361 0.0192,0.0536 0.0223,0.0605z"/>
   <path id="_530341592" class="fil0" d="M26.7668 2.7628c-0.0178,-0.0531 0.029,-0.0079 -0.0347,-0.0775 -0.0407,-0.0445 -0.0196,-0.0229 -0.0725,-0.0314 0.0293,0.076 0.0306,0.0768 0.1072,0.1089z"/>
   <path id="_530341784" class="fil11" d="M26.7309 10.3077c-0.0281,-0.0485 -0.0302,-0.0541 -0.0685,-0.0017 0.0105,0.0813 -0.0386,0.0456 0.0662,0.0655l0.0023 -0.0638z"/>
   <path id="_530341208" class="fil6" d="M29.6343 1.2981c0.0856,0.0256 0.0309,0.0317 0.097,-0.0182 -0.0556,-0.0774 -0.1007,-0.0528 -0.097,0.0182z"/>
   <path id="_530341424" class="fil4" d="M27.1924 1.2474c0.0127,0.0319 -0.0391,0.0202 0.0538,0.0591l0.0354 -0.0851c-0.0445,-0.0078 -0.0481,0.0224 -0.0744,-0.0152l-0.0148 0.0412z"/>
   <path id="_530341376" class="fil11" d="M29.8982 10.2745c0.0197,0.0909 -0.0357,0.0358 0.052,0.0597 0.0353,-0.0442 0.0324,0.0401 0.0152,-0.0763l-0.0424 -0.0175 -0.0248 0.0341z"/>
   <path id="_530341328" class="fil11" d="M25.9401 10.3047c-0.0316,-0.0407 -0.0366,-0.0563 -0.0689,0.0046l0.0082 0.0609c0.0915,-0.0178 0.0435,0.0181 0.0607,-0.0655z"/>
   <path id="_530348768" class="fil11" d="M25.4705 10.275l-0.0172 -0.0363 -0.044 0.0227c-0.0507,0.1237 -0.0201,0.036 0.0124,0.0732 0.0827,-0.032 0.0222,0.0185 0.0488,-0.0596z"/>
   <path id="_530349152" class="fil0" d="M29.4678 5.1426c-0.0349,-0.097 -0.0104,-0.0752 -0.104,-0.1131 0.0341,0.0889 0.0072,0.0624 0.104,0.1131z"/>
   <path id="_530348792" class="fil4" d="M28.2456 1.472l0.0402 0.1371c0.0039,-0.0097 0.0091,-0.0337 0.0109,-0.0292 0.0192,0.0467 0.0151,-0.0467 0.0174,-0.0541l-0.0253 -0.0538c-0.1397,0.0288 -0.0437,0.0014 -0.0432,0z"/>
   <path id="_530348744" class="fil11" d="M28.7097 10.3055c-0.026,-0.0377 -0.0302,-0.0563 -0.0683,0.0005l0.0189 0.0583c0.066,-0.009 0.0348,0.0148 0.0494,-0.0588z"/>
   <path id="_530348312" class="fil10" d="M26.8036 2.3099c-0.0304,-0.0732 0.027,-0.0355 -0.0842,-0.1045 0.0107,0.0826 0.0232,0.0602 0.0842,0.1045z"/>
   <path id="_530348288" class="fil1" d="M26.9732 2.4439c0.0454,0.0481 0.0285,0.0423 0.0912,0.0161 -0.0134,-0.0101 0.0053,-0.0682 -0.0912,-0.0161z"/>
   <path id="_530348024" class="fil11" d="M26.3 1.3897c0.0315,-0.0332 0.0646,0.0394 0,-0.0866 -0.0046,0.0061 -0.0139,0.0074 -0.014,0.0179 -0.0001,0.0091 -0.009,0.0145 -0.0087,0.0178 0.0056,0.06 -0.0136,0.0173 0.0227,0.0509z"/>
   <path id="_530348000" class="fil4" d="M28.8509 1.993c0.0091,0.0318 -0.021,0.0287 0.0155,0.0381 0.0576,0.0148 0.0124,0.01 0.0508,-0.0102 -0.0327,-0.0283 -0.0033,-0.0151 -0.0663,-0.0279z"/>
   <path id="_530348120" class="fil7" d="M26.8763 2.329l0 -0.0796c-0.0774,0.0845 -0.0215,0.0632 0,0.0796z"/>
   <path id="_530348096" class="fil7" d="M28.5969 2.3654c-0.0143,-0.1123 0.0282,-0.0393 -0.0603,-0.0774l0.0603 0.0774z"/>
  </g>
 </g>
</svg>
