<?xml version="1.0" encoding="UTF-8"?>
<!DOCTYPE svg PUBLIC "-//W3C//DTD SVG 1.1//EN" "http://www.w3.org/Graphics/SVG/1.1/DTD/svg11.dtd">
<!-- Creator: CorelDRAW Standard 2021 (64-Bit Versión de evaluación) -->
<svg xmlns="http://www.w3.org/2000/svg" xml:space="preserve" width="37.221mm" height="31.1556mm" version="1.1" style="shape-rendering:geometricPrecision; text-rendering:geometricPrecision; image-rendering:optimizeQuality; fill-rule:evenodd; clip-rule:evenodd"
viewBox="0 0 3722.1 3115.56"
 xmlns:xlink="http://www.w3.org/1999/xlink"
 xmlns:xodm="http://www.corel.com/coreldraw/odm/2003">
 <defs>
  <style type="text/css">
   <![CDATA[
    .fil4 {fill:#0C1302}
    .fil6 {fill:#2C321C}
    .fil1 {fill:#4E5E39}
    .fil5 {fill:#6C7663}
    .fil3 {fill:#879B6C}
    .fil7 {fill:#A1A48E}
    .fil0 {fill:#CCE2B1}
    .fil2 {fill:#F9FCE7}
   ]]>
  </style>
 </defs>
 <g id="Capa_x0020_1">
  <metadata id="CorelCorpID_0Corel-Layer"/>
  <g id="_2586547905984">
   <path class="fil0" d="M983.47 913.73c42.95,-17.04 16.67,-3.02 28.9,-21.9l-24.68 -65.54c69.79,-23.32 67.04,-10.9 113.63,-54.74l28.14 -29.86c-22.34,65.11 -37.57,73.09 -117.68,93.48l39.01 102.62c-49.01,-7.13 -66.64,-23.54 -67.32,-24.06zm145.99 -172.04l11.28 -24.33 -11.28 24.33zm434.75 -546.05c8.91,57.1 -2.01,60.03 -46.72,80.18 27.45,-69.67 -42.18,-73.66 46.72,-80.18zm-73.39 -30.01l-24.61 0 -35.38 4.68c-37.01,63.2 -22.77,20.54 18.01,39.9 41.17,4.88 13.82,-5.22 34.34,13.59 -22.27,20.56 11.44,14.05 -44.98,28.31 -16.01,4.05 -54.19,1.99 -73.68,2.3l5.54 -121.75c-9.83,-21.74 -5.78,-17.81 -14.29,-40.91 -1.81,-4.9 -11.46,-22.77 -12.69,-32.16 -1.22,-9.29 -4.68,-11.33 -7.48,-16.78 0.13,77.32 5.21,193.11 -45.94,227.35l-12.05 -55.33 -22.67 -3.11 -15.57 38.7 -14.42 3.37c-3.04,5.87 -6.26,15.27 -7.64,18.29 -1.29,2.87 -7.08,20.63 -8.27,16.96l17.24 64.6 54.74 20.52 -47.26 174.1 -3.39 16.71c-5.44,59 23.32,21.5 -16.97,57.67 -46.62,-27.02 -15.18,9.71 -22.08,-50.89 2.52,-19.97 10.81,-58.56 9.7,-71.32 -7.77,-88.14 -0.73,-41.5 -31.14,-70.55 17.13,270.59 -189.36,271.49 -164.62,83.28l-30.17 0c-14.41,35.99 -1.9,8.45 -18.13,39.47 -1.34,2.54 -6.57,14.57 -7.62,11.79 -1.02,-2.75 -5.38,7.57 -12.07,13.41l45.15 87.47c-82.89,-5.12 -39.33,15.51 -78.6,-43.28 -38.09,14.22 -33.76,-19.42 -32.16,20.09 -38.74,41.1 51.39,30.08 -50.91,35.09l3.02 -119.91c-14.94,21.99 -13.85,8.62 -25.9,53.38 -7.22,26.75 -2.34,33.91 0.13,58.56l-47.91 19.76c-6.67,58.1 -31.28,62.72 -36.25,127.52 21.53,14.55 -0.57,3.67 14.96,49.46 67.3,0.44 106.44,-14.63 159.31,-16.95 38.24,-1.69 26.58,-12.14 63.9,11.44 68.74,43.49 16.91,2.97 31.46,53.27 -129.44,-49.71 -95.05,-31.63 -256.98,-21.09 -16.87,36.75 -12.15,24.28 2.49,83.44 46.38,187.7 -8.09,96.34 85.32,210.87 110.32,135.2 104.33,418.39 74.66,464.22 -41.89,64.69 -326.07,121.33 -378.66,143.93 -49.9,21.42 -82.43,31.55 -134.43,46.53l17.78 74.52 -14.28 -73.2c-85.04,54.38 -26.87,63.72 -79.35,31.26 2.23,39.03 -3.54,15.88 8.86,42.59l31.5 35.2c-70.86,5.08 -43.93,13.98 -103.23,-18.83 -38.27,-21.18 -16.08,-39.51 -75.06,-5.32 -32.71,105.16 -15.16,22.8 19.6,55.48 16.1,-33.21 -26.78,-66.05 40.47,-20.39 62.02,42.09 3.26,50.34 2.3,51.83 -25.4,77.72 11.96,60.79 -35.2,114.52l-10.53 35.73c77.34,42.52 -18.13,59.26 68.59,144.23 -21.13,30.56 25.83,43.82 -31.57,31.63 49.68,32.71 11.81,-0.11 48.09,44.94 13.08,16.27 16.32,20.87 28.72,41.54 19.56,32.62 26.97,30.94 31.59,76.09 8.58,83.96 -10.3,37.76 -17.06,43.29 23.75,-9.38 22.66,-22.22 59.83,-10.12l144.1 128.76c24.55,-30.73 -36.84,-33.58 41.48,-21.5l-135.18 -134.83c-52.04,-42.05 -38.17,-41.06 -47.34,-67.69 -29.95,11.6 -23.8,15.84 -16.03,-15.4l-24.55 -15.31c-65.89,-70.47 -70.6,-195.51 -50.01,-275.52 25.35,-98.55 135.35,-149.63 235.18,-77.94l40.34 8.59c54.84,3.92 -0.53,-3.06 17.37,31.7 30.89,-7.85 30.16,-16.76 17.34,12.28 16.46,7.48 53.87,-20.18 20.24,68.58l7.5 11.64c33.19,4.11 23.61,-3.92 14.64,33.1l52.22 55.21c60.47,62.46 23.5,48.24 36.14,168.08l56.64 37.52c77.57,2.85 27.54,-0.68 35.44,19.67 67.95,2.89 75.19,23.01 143.29,13.83 37.98,-5.12 90.07,-25.12 133.74,-32.47 3.56,-3.06 8.83,-12.82 10.5,-9.43 1.64,3.31 7.98,-7.46 10.26,-9.14l70 -38.97c-5.01,-31.5 -9.95,-22.94 23.17,-16.45 -7.83,-30.65 -11.18,-21.48 21.85,-15.44 14.03,-48.17 4.07,-27.94 30.94,-33.52l-52.64 -416.6c-45.79,-300.02 -87.15,-932.06 113.74,-1195.65 38.31,-50.27 20.48,-35.09 46.4,-86.79 34.44,-68.69 232.68,-166.39 314.22,-189.49 143.47,-40.65 298.86,-57.45 458.49,-18.23 71.84,17.64 111.51,21.99 182.67,55.94l165.13 97.18c1.66,1.55 18.81,21.77 26.27,29.45 11.71,12.07 27.72,27.54 38.35,36.73 159.99,138.32 68.35,154.27 163.82,224.65l-23.74 -76.37c50.54,-44.94 -22.66,30.08 28.26,-29.06 39.49,-45.87 113.2,-342 -42.55,-524.19 -54.23,-63.44 9.83,-25.15 -128.87,-126.71l-108.42 -59.5c-71.82,-34.22 -46.95,-6.83 -87.03,-68.39 -307.11,-17.46 -445.04,-36.88 -703.86,51.43l-24.9 -20.76c-2.56,-2.34 -7.7,-7.24 -10.08,-9.49 -16.06,-15.1 -9.98,-11.16 -24.53,-22.88l-1.94 87.85 -94.16 64.54z"/>
   <path class="fil1" d="M2520.21 2228.87l57.88 9.7c-30.08,16.43 37.3,31.37 -34.1,11.57 -35.44,-9.82 -14.66,-9.76 -23.78,-21.27zm-1212.3 -36.35c-9.43,-51.07 -9.65,-69.27 -7.05,-132.14l51.48 234.91c-38,-36.71 -32.36,-37.41 -44.43,-102.77zm594.63 -1357.48c-2.47,-50.14 23.78,-14.9 30.14,2.21 10.94,29.44 -28.89,23.38 -30.14,-2.21zm-379.89 -9.39c54.19,2.96 109.51,16.67 166.87,21.05 75.63,5.75 132.53,-14.29 178.87,6.85 -103.46,49.96 -257.84,10.37 -345.74,-27.9zm-266.46 1536.32c51.02,-13.82 38.13,3.04 64.97,60.25l-11.4 47.1c98.56,-0.57 65.92,-21.55 126.87,-47.16 119.97,-50.45 278.4,-29.82 402.12,0.67 117.56,28.97 22.86,11.95 102.62,5.12l-120.39 -55.63 113.02 -21.07c0.08,-57.34 7.81,-0.17 -46.69,-26.58 -102.99,41.44 -12.2,41.31 -125.64,40.3 -51.95,-0.46 -129.55,2.52 -159.89,-25.53l189.97 0.37 -47.64 -26.25 -131.24 -35.83c-23.21,-67.8 4.94,20.12 -8.77,-28.58 -9.63,-34.17 -6.26,-37.43 -22.41,-80.48 182.48,51.8 294.31,34.76 442.22,-53.31l-5.07 -35.01c-252.48,127.83 -323.65,103.68 -539,-3.23 -12.26,19.53 13.08,61.4 -61.61,-50.04l-25.68 -38.37c-39.88,-68.28 -36.32,-41.59 -2.87,-68.5 -75.58,-192.23 -105.38,-335.21 -117.74,-553.87l26.19 20.61c77,50.03 -24.4,-8.27 25.83,16.14 71.63,34.81 113.06,11.03 158.26,-9.47l-79.46 -13.65c-38.68,0.13 -95.58,5.66 -94.11,-48.48l-17.06 0.61c-36.34,-44.82 -9.43,-227.8 -4.93,-284.59 8.86,-111.31 39.12,-142.36 105.82,-189 59.42,61.61 3.11,51.96 104.66,75.67 -23.96,-48.21 38.04,-12.93 -22.99,-42.57 279.21,29.12 163.5,86.83 591.74,17.9 -0.65,0.19 -44.23,16.21 -48.45,18.26l126.14 -0.48c-8.38,-4.39 -57.36,-31.19 -79,-18.79l155.11 -46.84c-80.49,3.13 -17.81,-7.17 -38.35,36.14 80.13,-25.94 66.76,-47.51 150.42,-33.93 126.03,255.61 31.15,461.95 31.9,716.73l-40.21 -304.88 -20.24 9.52c-0.24,93.31 17.59,155.81 18.75,253.29 1.38,114.66 -15.07,148.13 -36.86,242.2l49.48 54.34 47.78 -219.34c-5.95,137.41 -14.63,281.32 -33.62,408.22 44.91,-12.07 21.42,-5.03 34.21,32.54 9.59,28.17 7.29,51.54 9.87,76.98 18.29,-69.74 2.12,-8.47 40.71,-38.83 -19.86,109.51 -5.77,18.29 15.53,56.9l71.15 77.33 -36.78 -18.28c-41.17,-7.57 -23.03,-11.97 -32.37,42.24l22.03 45.7c317.76,160.38 434.23,-169.61 655.82,-162.06 -2.1,-4.86 -5.78,-17.29 -6.94,-14.29 -0.98,2.56 -9.71,-19.08 -13.58,-26.82 -15.75,-31.44 -1.31,6.98 -17.31,-35.51l-55.52 -8.16c-33.19,-15.94 -38.59,-16.43 -67.84,-39.88 -4.13,-3.32 -23.74,-21.74 -25.81,-24.65 -30.24,-42.38 -3.2,-16.32 0.15,-20.52 -28.66,-131 -80.22,-14.07 -131.98,-384.03 -15.69,-112.14 -26.45,-382.84 -57.45,-453.68l-39.99 -229.77c-95.47,-70.38 -3.83,-86.33 -163.82,-224.65 -10.63,-9.19 -26.64,-24.66 -38.35,-36.73 -7.46,-7.68 -24.61,-27.9 -26.27,-29.45l-165.13 -97.18c-71.16,-33.95 -110.83,-38.3 -182.67,-55.94 -159.63,-39.22 -315.02,-22.42 -458.49,18.23 -81.54,23.1 -279.78,120.8 -314.22,189.49 -25.92,51.7 -8.09,36.52 -46.4,86.79 -200.89,263.59 -159.53,895.63 -113.74,1195.65l52.64 416.6z"/>
   <path class="fil2" d="M1745.03 1968.96c-64.65,0.15 -84.76,13.08 -128.33,-20.87 27.08,-1.97 35,-6.22 67.49,-2.1 64.88,8.22 39.99,10.32 60.84,22.97zm54.53 -55.07l71.96 -8.4c-28.31,20.83 6.89,11.47 -39.21,20 -26.42,4.9 -27.39,-8.58 -32.75,-11.6zm-263.85 -5.75c-23.39,34.94 63.29,23.84 -23.63,23.84 0,-38.98 -11,-35.02 23.63,-23.84zm17.13 -19.34c-9.69,-30.93 -14.2,-22.93 18.88,-19.41 51.61,5.41 75.87,12.82 126.88,12.23 17.09,-0.19 37.87,-5.25 53.14,-1.53 51.65,12.58 28.9,4.33 47.82,33.8l-161.42 -8.07 -78.35 13.61 -24.08 -11.29c-10.92,-27.7 -13.98,-19.34 17.13,-19.34zm35.92 -147.23c66.96,-12.51 120.43,-35.24 161.01,1.05 -38.43,13.65 -135.44,38.39 -161.01,-1.05zm0 0l-12.95 -10.41 12.95 10.41zm646.83 -91.56c129.91,-79.69 50.73,-14.48 77.55,0 -15.55,9.15 40.17,90.44 -77.55,0zm-456.92 44.46c-35.24,-30.94 -1.22,16.8 -41.39,-44.96 -11.37,-17.5 -4.37,-13.65 -9.47,-28.81 69.26,12.62 43.36,3.61 50.86,73.77zm-202.86 36.69c-19.01,-14.62 -38.35,55.3 -34.94,-77.78 0.5,-19.58 11.95,-70.77 15.69,-90.17 14.06,-73.14 23.89,-114.66 26.21,-190.94 37.93,-15.84 -54.43,-24.2 49.24,-11.14l-16.8 44.06c-15.34,129.62 -46.42,187.51 -39.4,325.97zm479.71 -394.9l57.69 25.11c-24.85,44.21 -1.46,26.06 -38.48,51.3 -26.91,18.31 -43.01,14.38 -68.41,21.49 -44.52,25.11 -146.75,5.38 -211.04,3.47l-2.45 -50.77c108.05,-28.27 23.36,-9.71 57.25,3.94l24.59 -5.12 -53.32 -27.46c22.87,-32.35 44.85,-57.75 102.04,-67.49 141.58,-24.13 131.56,44.72 132.13,45.53zm-459.69 -54.54c-5.06,-83.64 -3.66,-3.79 22.44,-34.24l-8.88 71.95c-8.49,-14.15 -10.11,19.3 -13.56,-37.71zm166.85 21.33c-8.77,13.41 13.56,16.69 -23.6,34.5l-41.96 -5.84 0.02 -87.47c26.12,29.1 19.77,-36.95 26.8,60.25l28.98 -31.61c76.03,-62.79 251.02,-147.95 390.39,-106.39l-52.15 22.3c-174.47,42.74 -110.28,1.61 -328.48,114.26zm-206.39 -9.21c-116.23,-83.77 -73.63,-64.98 -204.7,-111l-57.51 -33.24c105.34,-6.19 236.33,26.63 262.21,144.24zm659.68 -257.43c-56.62,-12.64 -13.85,15.32 -41.85,-44.21 61.03,32.73 31.35,-18.07 41.85,44.21zm-924.38 295.69c72.43,-88.69 210.76,-77.22 276.96,31.88l-86.33 29.64c-45.2,20.5 -86.63,44.28 -158.26,9.47 -50.23,-24.41 51.17,33.89 -25.83,-16.14l-26.19 -20.61c12.36,218.66 42.16,361.64 117.74,553.87 16.45,37.79 27.43,61.92 48.2,88.32 34.41,43.84 35.24,9.56 41.96,68.59 215.35,106.91 286.52,131.06 539,3.23 37.14,-21.7 93.85,-73.48 142.79,-100.63 9.99,-20.63 11.63,-28.59 27.17,-44.91 23.69,-24.92 9.47,-8.1 35.48,-21.88l8.2 -17.44c-12.97,-99.78 -7.04,-36.27 20.63,-49.9l1.75 -14.02 30.24 -50.84c21.79,-94.07 38.24,-127.54 36.86,-242.2 -1.16,-97.48 -18.99,-159.98 -18.75,-253.29l-2.56 -302.12 4.62 -59 -64.71 8.6c-13.57,9.78 21.74,-4.01 -33.89,21.11 -15.73,7.11 -23.41,8.53 -39.88,13.3 -27.81,8.09 -56.95,13.32 -85.63,19.47 -14.76,13.17 -13.85,13.72 -40.4,26.25 -25.62,12.12 -23.76,15.69 -23.98,0.92 -88.12,-0.02 -157.43,10.48 -240.69,12.6 -85.01,2.17 -147.47,-20.04 -222.18,-26.64 -34.17,3.52 -20.3,6.25 -4.92,-31.13l-51.85 -34.42c-101.55,-23.71 -45.24,-14.06 -104.66,-75.67 -66.7,46.64 -96.96,77.69 -105.82,189 -4.5,56.79 -31.41,239.77 4.93,284.59z"/>
   <path class="fil0" d="M2942.06 1966.64c39.25,42.92 53.22,52.65 93.5,85.05l55.52 8.16c16,42.49 1.56,4.07 17.31,35.51 3.87,7.74 12.6,29.38 13.58,26.82 1.16,-3 4.84,9.43 6.94,14.29 29.25,-9.52 25.7,-16.39 17.57,12.86 67.4,23.8 38.21,20.39 51.76,43.05 32.44,-6.84 28.81,-15.09 19.9,15.76 33.17,-7.4 31.31,-17.2 21.07,13.62l108.09 79.37 270.6 -392.33c38.87,-224.26 77.44,-349.18 -51.26,-548.5l-97.9 -105.14c-30.41,-25.62 -13.08,-10.85 -39.46,-36.14l-141.48 -70.49c-102.14,-18.88 -260.64,23.98 -420.36,13.76 -146.36,-9.34 -30.11,-22.9 -114.81,-33.36 31,70.84 41.76,341.54 57.45,453.68 51.76,369.96 103.32,253.03 131.98,384.03z"/>
   <path class="fil2" d="M2977.98 2657.94c14.35,28.27 16.23,21.64 -13.69,12.78 -9.13,-30.45 -14.77,-27.46 13.69,-12.78zm0 0l-2.78 -101.37c13.48,5.23 51.63,-44.39 41.41,53.35 -11.17,106.68 -5.92,21.53 -38.63,48.02zm106.58 -47.42c-52.61,35 -16.36,17.56 -46,2.64 4.77,-3.5 -21.4,-50.23 46,-2.64zm-109.36 -53.95c-31.13,-12.76 -20.82,5.29 -30.32,-29.32 81.54,10.37 15.71,-5.47 30.32,29.32zm-192.65 -85.21c-29.7,55.24 43.5,25.02 -54.99,44.08l54.99 -44.08zm-194.11 -27.31c3.55,51.35 -12.31,29.08 -15.88,34.22 -62.61,-70.14 -3.3,-69.85 0,-75.34 8.51,14.76 13.45,5.99 15.88,41.12zm109.87 -29.31c-3.24,62.87 12.18,33.23 -42.25,62.26l42.25 -62.26zm-225.22 -116.21c-10.75,28.27 42.15,22.21 -10.22,27.89l-37.45 11.01c10.85,30.73 14.11,23.34 -17.57,14.55 -31.11,68.01 -83.7,89.58 -84.1,88.86 -2.01,-3.81 -9.23,4.33 -13.87,6.43l-32.29 56.99c-16.82,133.43 -37.67,140.82 5.82,281.47 20.28,27.45 -5.03,-41.02 32.45,52.19 2.21,5.47 12.75,45.64 16.05,59.47 15.43,64.66 15.62,67.57 16.11,132.18 16.1,29.66 2.53,16.27 39.31,24.32l518.41 9.87c-48.76,-40.17 -82.93,-48.96 -152.96,-56.9 -31.17,23.86 -38.37,25.66 -83.35,0.48 -48.85,-20.26 -58.08,-34.52 -80.22,-78.67 -31.64,10.65 -21.97,12.88 -14.7,-21.11 -34.53,7.52 -30.13,16.12 -21.71,-17 -22.57,0.46 -150.33,0.83 -159.67,-26.43 -1.91,-5.53 -7.07,-5.84 -10.75,-8.57 -2.75,-3.04 -6.89,-7.13 -8.51,-8.93 -99.08,-110.15 -67.53,-231.67 -14.63,-261.73 32.35,-18.38 -3.09,-0.4 45.35,-10.07 19.45,-23.62 -46.6,-11.46 57.84,-33.82 18.79,-4.02 52.92,-5.29 72.72,-5.86 65.98,-1.9 85.08,-3.83 127.24,23.47 36.2,2.56 48.32,0.18 76.59,16.61 65.19,37.91 16.51,13.76 34.85,40.54 33.88,-10.53 27.43,-16.35 18.77,18.11 3.72,2.56 8.62,6.43 10.85,8.07l103.89 52.29 27.89 -31.79 29.06 8.27c10.67,31.61 13.45,20.78 -23.13,20.78l-28.44 12.12 -57.71 -1.07c10.15,45.61 22.47,96.7 20.52,152 -4.42,126.65 -38.46,106.83 -44.47,112.8 38.96,74.09 44.27,17.37 104.89,79.43l268.13 25.86 183.54 -12.1c40.08,-101.7 13.02,-18.26 84.03,-82.04l27.02 -42.35c48.5,8.97 34.26,8.03 71.87,10.5l20.97 -37.21c-3.45,-130.1 -39.26,-191.47 -41.34,-281.36l-13.89 -36.05c-22.25,-8.6 -20.46,35.24 -17.57,-36.86 -24.77,-8.38 -20.08,35.79 -21.48,-32.97 -11.25,-10.9 -8.21,-3.41 -25.64,-30.76 -24.07,-37.72 8.05,33.65 -8.82,-27.48 -18.14,-12.77 -8.49,-1.07 -29.56,-26.69 -36.4,-44.23 7.35,26.39 -10.17,-25.72 -104.42,-34.72 -8.27,-4.73 -92.45,-93.4l-91.38 -96.39c-32.99,8.49 -30.43,17.81 -21.07,-13.62 -31.54,7.83 -26.84,15.18 -19.9,-15.76 -87.95,-32.59 -32.54,-12.12 -51.76,-43.05 -30.35,7.07 -28.88,15.53 -17.57,-12.86 -221.59,-7.55 -338.06,322.44 -655.82,162.06z"/>
   <path class="fil0" d="M2110.46 2892.77c4.37,6.87 18.09,1.03 18.88,52.72 1.44,93.59 5.05,3.44 -17.75,44.5l-1.13 -97.22zm-751.06 63.33c20.92,-36.49 -30.82,3.63 38,-46.49 -30.97,72.77 17.13,45.86 -38,46.49zm-136.51 -90.68l-31.96 174.08c-20.94,-126.78 18.46,-139.53 21.86,-161.04 1.24,-8.05 6.69,-8.73 10.1,-13.04zm849.72 -65.74c12.84,13.61 12.14,-3.28 30.1,42.77 17.11,43.78 3.98,19.04 7.75,50.32 -8.36,-10.87 -6.57,11.11 -29.84,-48.28 -16.39,-41.79 -3.9,-16.67 -8.01,-44.81zm-849.72 65.74c2.63,-27.6 -13.32,11.03 7.31,-40.42 12.84,-31.99 16.78,-25.01 31.02,-39.54l-38.33 79.96zm816.16 -122.59c15.05,11.35 15.53,-30.96 33.56,56.85l-33.56 -56.85zm-763.35 14.08c-15.62,33.39 20.72,28.12 -19.31,27.42l19.31 -27.42zm0 0c21.9,-87.13 12.58,-34.47 40.74,-52.24 -16.26,23.85 -27.79,37.3 -40.74,52.24zm58.63 -67.75c2.85,26.93 8.62,21.57 -17.89,15.51 -6.94,-25.7 -10.22,-18.13 17.89,-15.51zm16.54 -19.75c2.19,27.65 9.41,22.77 -16.54,19.75 -2.69,-27.43 -9.6,-22.18 16.54,-19.75zm20.48 -16.26c2.51,25.84 7.39,18.42 -20.48,16.26 -2.45,-26.32 -7.52,-19.08 20.48,-16.26zm667.7 89.68c-55.92,-24.07 -99.87,-68.54 -118.68,-115.69 59.59,34.06 94,49.47 118.68,115.69zm-667.7 -89.68l58.78 -41.98c-12.03,11.95 -13.5,14.7 -33.71,29.84 -27.17,20.33 11.46,-3.85 -25.07,12.14zm549.02 -26.01c-24.74,-3.94 -3.39,6.65 -37.65,-8.97 -24,-10.94 -19.65,-15.84 -27.83,-24.35 40.3,5.84 -15.25,-15.94 40.49,9.21 27.57,12.45 20.07,18.38 24.99,24.11zm-461.34 -30.76l-28.9 14.79 28.9 -14.79zm395.86 -2.56c-84.2,4.68 -32.31,4.99 -40.43,-15.59 78.61,-9.94 27.98,-5.08 40.43,15.59zm-395.86 2.56l77.2 -42.5c77.91,-23.48 168.5,-30.57 242.95,-0.9 32.96,13.15 26.07,17.19 35.28,25.25 -69.89,2.64 -105.97,-15.8 -185.56,-13.26 -68.27,2.16 -104.37,22.31 -169.87,31.41zm27.19 -104.81c-32.77,33.89 70.53,28.9 -43.53,28.9 -31.11,26.6 9.34,10.83 -43.84,6.26 -12.28,8.38 -10.92,9.67 -40.02,23.25 -43.6,20.35 45.53,-9.03 -30.51,7.66 -12.93,20.59 1.55,6.56 -25.01,29.84 -26.16,22.9 13.13,-3.81 -27.5,12.62l-17.13 13.28c3.46,31.7 12.21,28.77 -16.47,19.8 -28.75,48.15 -68.06,93.87 -66.42,164.67l-31.81 20.67 -42.31 236.4 1142.06 0.18 -2.8 -50.23c-34.7,-38.88 1.9,40.64 -35.24,-53.45 -12.26,-31.06 -4.2,-19.14 -9.67,-48.15l-21.07 -95.56 -24.74 -17.72c-28.99,-39.38 -33.65,30.85 -11.99,-57.51l-6.54 -27.26c-44.44,-20.19 -4.86,3.94 -37.44,-21.61l-77.88 -90.29c-29.49,6.76 -24.76,14.7 -22.73,-12.97 -23.03,-8.64 -31.76,-10.42 -49.94,-21.14l-45.68 -37.71c-184.38,-18.14 -162.44,-78.32 -411.79,-29.93z"/>
   <path class="fil2" d="M1225.25 2395.49c7.33,30.78 11.01,21.85 -21.85,15.44 8.07,30.32 11,20.28 -23.17,16.45 -5.64,6.46 -3.61,14.62 -36.18,35.99 -23.91,15.69 -23.67,12.19 -54.58,21.55 -18.64,17.13 -24.13,39.05 -131.31,49.55 -28.11,2.74 -56.64,4.03 -84.82,-1.07l-60.9 -29.84c-76.28,3.24 -27.54,3.59 -35.44,-19.67l-56.68 -16.84c-5.95,9.84 -18.62,37.19 -24.66,45.19 -31.63,41.96 -0.57,6.5 -33.03,28.42 12.53,32.07 16.38,24.7 -17.37,16.83 -13.22,18.55 20.34,16.29 -54.32,37.56 -12.69,27.3 -13.06,26.8 -19.71,75.67 3.41,2.78 8.99,2.45 10.23,8.31l65.44 121.94c18.97,12.28 8.14,-3.76 30.1,23.15 4.66,5.69 22.62,38.07 27.85,47.67 33.27,-9.78 24.3,-12.95 14.22,21.07 43.95,9.27 6.23,-38.18 42.53,29.68 48.85,-2.53 18.81,-15.79 51.23,7.9 18.93,15.6 19.01,14.24 34.81,37.1 39.86,-69.85 -21.24,10.88 18.86,-30.36 -33.98,-0.42 -25.86,7.13 -17.64,-27.65l34.99 -20.83c-0.95,-54.41 12.01,-24.46 -23.3,-60.14 59.68,-10.83 3.69,41.11 60.86,-29.16 15.42,58.32 -0.37,29.4 37.95,56.44 10.11,-163.16 17.64,-59.81 75.54,-150.77 16.85,27.56 17.55,9.8 33.96,18.26 -4.79,-39.81 -17.04,-41.61 16.86,-21.13l-0.39 -21.18c-0.57,-28.61 -6.06,-21.74 22.45,-11.77l16.25 -18.98c10.06,-35.18 1.05,-14.31 18.53,-40.96 1.58,-2.4 9.47,-2.6 10.76,-8.99 1.32,-6.52 8.19,-4.9 12.17,-7.52 -7.53,-29.17 -14.38,-24.7 14.33,-18.99 -4.73,-31 -11.71,-25.25 18.64,-19.65 -5.34,-32.22 -12.47,-27.08 18.57,-18.46 -9.32,-30.85 -12.56,-21.84 20.85,-16.54 -5.82,-31.66 -12.17,-27.15 17.63,-15.18 23.91,-34.64 -55.48,-25.1 20.72,-32.1l33.53 -2.56 11.4 -47.1c-26.84,-57.21 -13.95,-74.07 -64.97,-60.25l-30.94 33.52z"/>
   <path class="fil2" d="M2404.59 2574.83l-3.26 75.28 177.07 0.66c-4.44,2.65 -9.78,6.54 -13.39,7.79l-174.42 40.12 5.2 67.16c42.77,-0.61 76.88,-5.32 120.68,-3.59 66.37,2.63 77.75,16.26 111.55,50.84 -64.56,-13.73 -156.29,-50.86 -209.74,-6.1l-10.02 45.59c55.48,17.04 26.39,5.71 74.78,13 43.23,6.49 -15.01,-9.34 32.46,3.96 34.61,9.71 25.34,11.15 37.3,21.02 34.64,-7.37 30.39,-16.08 21.71,17 32.29,-8.88 23.49,-12.3 14.7,21.11 4.22,2.27 10.72,1.09 12.47,7.11 1.73,5.93 9.73,5.73 12.03,7.44l20.83 16.23c10.08,8.14 24.35,21.55 31.37,27.19l82.82 -7.35c87.99,-26.8 21.9,2.43 82.33,-11.94 7.19,-67.93 31.65,-109.41 17.26,-186.46 -9.89,-52.92 -40.41,-84.38 -55.72,-147.01 -34.5,8.07 -29.56,15.34 -18.77,-18.11l-111.44 -57.15 -257.8 16.21z"/>
   <path class="fil0" d="M2170.29 2427.17c-17.2,32.24 36.64,38.96 -39.93,18.15l39.93 -18.15zm35.46 -15.8c-13.54,22.07 35.07,25.07 -35.46,15.8l35.46 -15.8zm-153.27 -21.15l4.29 17.5 -25.46 -10.22 21.17 -7.28zm153.27 21.15c12.47,-15.71 4.42,-9.8 27.24,-27.32 36.55,-28.05 -40.76,13.67 26.21,-10.85 -14.18,21.39 28.37,16.71 -53.45,38.17zm-153.27 -21.15l60.91 -34.9c-9.28,8.05 -12.21,12.01 -33.45,24.9 -39.03,23.67 40.25,-12.19 -27.46,10zm93.37 -56.18c-11,26.12 32.4,21.68 -32.46,21.28l32.46 -21.28zm0 0c10.88,-11.01 6,-9.3 29.78,-25.21 34.34,-22.99 -25.1,6.74 24.78,-8.97l-54.56 34.18zm113.35 39.16c13.45,-24.94 -1.47,-7.16 22.11,-32.03l85.98 -73.35c-17.98,53.88 -51.54,86.56 -108.09,105.38zm-58.79 -73.34c13.19,-16.01 4.29,-9.6 29.3,-29.9 29.57,-24.04 -12.58,3.67 24.8,-11.31 -13.25,17.65 -3.17,9.08 -27.01,28.55 -34.59,28.2 33.97,-13.15 -27.09,12.66zm75.04 -55.12c13.5,30.67 13.56,19.82 -20.94,13.91 -6.51,-32.16 -10.98,-24.5 20.94,-13.91zm36.23 -169.99c-28.62,52.38 -56.84,80.12 -109.95,113.61 9.42,29.95 12.6,21.42 -19.67,16.03 6.43,30.98 10.59,21.57 -23.32,17.27l-29.23 19.38c-7.77,8.05 -1.73,10.76 -42.55,36.36 -118.73,74.44 -134.98,55.96 -162.59,27.82 -68.41,-20.78 -17.78,-3.15 -37.06,19.45 54.5,26.41 46.77,-30.76 46.69,26.58l-113.02 21.07 120.39 55.63c39.62,-3.74 42.7,-2.97 63.84,32.69l44.67 5.25 80.48 -20.57c-3.8,3.18 -9.14,3.72 -11.33,9.65l-56.88 19.14 65.7 90.77c28.31,-9.95 27.63,-17.39 14.17,10.46 38.18,19.14 10.09,-11.2 38.84,23.14 19.57,23.37 14.24,21.73 23.14,52.7 27.54,11.42 18.33,-23.71 30.98,14.07 -0.53,-78.45 -8.27,-112.6 42.61,-160.99 7.64,-39.71 -7.94,-6.19 7.38,-30.43 19.49,-30.89 8.7,-14.64 24.91,-26.56 32.45,-52.11 45.64,-67.95 97.97,-95.29 -9.15,-31 -13.41,-24.46 17.57,-14.55 14.94,-25.14 -38.79,-15.14 47.67,-38.9l-22.03 -45.7 -47.13 -102.03 -128.48 93.94c2.82,-3.75 6.59,-8.95 8.64,-11.1l108.73 -100.17c-2.58,-25.44 -0.28,-48.81 -9.87,-76.98 -12.79,-37.57 10.7,-44.61 -34.21,-32.54 -25.88,96.37 -14.64,34.92 -37.06,50.8z"/>
   <path class="fil2" d="M535.94 2147.19c-70.47,5.36 -27.87,3.41 -34.87,-13.94 77.83,-10.13 26.56,-4.55 34.87,13.94zm-34.87 -13.94c-110.87,31.74 -22.54,77.49 -84.08,128.02l11.16 -172.32c58.87,15.69 45.75,4.4 72.92,44.3zm-147.12 292.71c31.17,-7.26 27.78,-14.17 16.03,15.4 59.29,37.81 127.17,103.63 157.54,158.06l63.42 -4.37c2.86,-3.63 6.67,-14.57 8.29,-11.12 1.57,3.37 7.04,-8.46 9.19,-9.82 25.64,-16.27 6.06,-7.61 36.84,-16.62 -8.03,-33.58 -14.79,-29.06 17.37,-16.83l30.06 -112.71c-4.36,-3.48 -10,-7.94 -13.46,-9.95 -3.28,-1.93 -9.25,-6.59 -13.28,-8.8l-40.19 -16.56c-36.38,-22.09 -14.67,-0.78 -38.56,-43.88 56.11,26.6 35.15,32.92 110.45,15.71l-13.43 -86.18c-29.01,-14.48 -5.4,7.05 -33.71,-20.17 -20.98,-20.17 -4.44,-3.76 -18.51,-35.04l-81.38 -3.88c-5.84,23.79 -7.42,45.31 -19.14,73.14 -35.51,84.14 2.99,8.53 -35.97,51.87 28.16,-172.43 43.8,-139.53 82.94,-160.84l-12.12 -0.83c-69.46,-24.61 -19.5,3.52 -30.39,-35.35l67.29 16.32 -13.61 -53.75c-30.01,11.17 -26.9,18.28 -17.34,-12.28 -33.52,-12.93 -2.3,4.07 -38.68,-19.75 -2.36,-1.53 -8.21,-3.9 -9.93,-9.8 -1.73,-5.95 -5.98,-7.24 -9.1,-10.74 -90.77,-4.86 -71.98,-32.01 -163.64,8.61l87.39 30.46 -106.56 15.81c-63.42,161.37 -46.57,180.44 22.19,313.89z"/>
   <path class="fil3" d="M2091.95 2631.3c17.65,-51.13 -12.62,-23.04 40.43,-43.21 -23.26,51.48 12.12,22.21 -40.43,43.21zm-888.2 -25.84c-0.02,-3.76 -5.6,10.2 -8.4,7.66l8.4 -7.66zm106.01 -136.14c-10.89,16.1 39.21,9.54 -54.25,34.66 11.11,28.65 13.5,20.49 -17.63,15.18 6.17,31.92 11.46,24.57 -20.85,16.54 8.64,31 13.67,23.78 -18.57,18.46 5.38,31.11 12.12,25.09 -18.64,19.65 4.39,29.51 12.64,26.8 -14.33,18.99 -15.34,39.05 5.77,0.32 -20.28,38.96 -1.6,2.38 -8.82,12.66 -10.09,9.71 -1.31,-2.97 -7.46,5.78 -11.09,8.8 7.96,33.93 16.1,30.45 -16.25,18.98 -28.51,-9.97 -23.02,-16.84 -22.45,11.77 4.27,3.46 11.33,8.21 12.89,10.26 0.65,0.88 -0.29,8.73 0.13,7.07 0.74,-3.15 -8.43,2.54 -12.63,3.85 -33.9,-20.48 -21.65,-18.68 -16.86,21.13 17.26,24.99 27.74,-48.67 9.8,33.58l-4.84 -14.39 -42.39 67.12c23.45,52.55 2.01,68.08 -2.5,154.64l-2.4 18.73c-13.28,30.83 -7.29,45.96 -6.83,76.92 125.92,-18.42 44.61,14.9 102.56,-198.97 23.76,-87.68 9.71,-55.24 21.72,-42.44l31.81 -20.67c-35.37,-62.75 -5.36,-108.97 66.42,-164.67 -8.03,-30.04 -14.07,-23.91 16.47,-19.8l17.13 -13.28c22.03,-27.17 -28,-8.64 52.51,-42.46 14.04,-16.43 -6.41,-6.3 34.78,-26.87 31.74,-15.83 -55.33,-24.85 35.75,-4.04 53.18,4.57 12.73,20.34 43.84,-6.26 114.06,0 10.76,4.99 43.53,-28.9l131.18 -88.14c3.43,47.56 -37.02,34.02 117.04,57.86 91.57,14.18 36.93,20.59 97.22,-18.99 17.63,54.3 -54.41,-23.14 66.35,79.2 37.54,15.09 40.54,26.89 94.9,-13.02l-3.54 36.62c-0.72,35.47 -7.99,-4.87 4.26,35.25l22.73 12.97c5.74,3.83 26.85,19.1 33.98,22.93 38.63,20.69 -2.61,2.78 41.61,15.05 13.23,41.8 -3.06,2.51 16.36,39.77 2.36,4.55 20.28,29.4 23.37,34.15l6.54 27.26c-21.66,88.36 -17,18.13 11.99,57.51l24.74 17.72 16.06 -9.1 57.62 -33.86 -44.63 -113.57c-32.53,-19.77 -13.19,0.29 -41.78,-37.25 -15.54,-20.43 -14.44,-29.05 -20.2,-38.59 -24.94,9.21 -22.18,14.87 -14.17,-10.46 -38.83,-28.26 -46.84,-31.76 -85.41,-53.66 -4.33,-4.6 -23.32,-26.82 -25.05,-29.08 -1.35,-1.79 -5.36,-5.16 -6.36,-10.65 -0.99,-5.47 -3.85,-7.24 -5.82,-10.85 -21.14,-35.66 -24.22,-36.43 -63.84,-32.69 -79.76,6.83 14.94,23.85 -102.62,-5.12 -123.72,-30.49 -282.15,-51.12 -402.12,-0.67 -60.95,25.61 -28.31,46.59 -126.87,47.16z"/>
   <path class="fil3" d="M-2.06 3055.16c154.72,0 797.33,21.88 891.4,-12.29 -4.25,-2.21 -10.99,-10.05 -12.78,-6.61 -1.77,3.46 -10.08,-5.51 -12.38,-7.39 -18.18,-14.88 -22.25,-20.46 -31.15,-30.13 -36.67,8.29 -31.57,14.44 -14.51,-19.05 2.45,-50.41 15.49,-18.69 -5.69,-49.25 -32.42,-23.69 -2.38,-10.43 -51.23,-7.9l-763.66 6.02 0 126.6z"/>
   <path class="fil2" d="M1946.25 2204.88c-11.82,10.17 3.48,11.48 -47.98,31.91l-220.21 27.42c31.02,-23.96 -24.41,-11.73 59.57,-27.61l208.62 -31.72zm0 0c8.79,-9.37 4.29,-11.88 27.98,-24.66 46.31,-24.96 3.15,-3.35 45.57,-11 -13.39,13.56 2.58,8.83 -31.24,27.21 -48.77,26.49 -10.74,4.57 -42.31,8.45zm73.55 -35.66c12.05,-16.48 0.76,-8.51 26.78,-27.07 41.61,-29.68 -40.61,8.1 27.49,-8.05 -17.34,31.09 47.94,23.26 -16.21,27.98l-38.06 7.14zm54.27 -35.12c2.26,-4.22 5.23,-10.1 7.05,-12.53 1.77,-2.34 5.34,-8.95 7.63,-11.71 2.19,-2.64 6.2,-7.48 8.75,-10.23l99.61 -101.14c42.18,-44.39 13.98,-16.32 44.8,-34.3 -36.95,87.99 -81.68,130.25 -167.84,169.91zm167.84 -169.91l27.61 -48.09c-3.98,85.15 -15.42,39.69 -27.61,48.09zm92.67 -129.12c-3.47,7.83 -12.01,35.86 -14.04,38.92 -31.5,47.08 -7.66,20.96 -51.02,42.11l-6.95 -42.77c18.55,59.62 10.15,5.58 -30.09,22.16 14.2,27.79 22.49,26.06 -8.2,17.44 -7.63,24.02 -7.52,32.97 -23.43,49.7 -32.97,34.72 9.54,5.1 -39.22,17.09 -6.96,47.06 6.23,17.61 -25.1,49.75 -11.83,12.14 -24.17,15.33 -45.15,30.41 -30.96,22.24 -47.91,35.52 -67.47,55.48 -147.91,88.07 -259.74,105.11 -442.22,53.31 16.15,43.05 12.78,46.31 22.41,80.48 13.71,48.7 -14.44,-39.22 8.77,28.58l131.24 35.83 61.84 -17.2c119.36,-8.35 157.17,-49.02 248.28,-93.52 -20.76,48.81 -26.73,47.54 -94.29,77.6 -45.5,20.26 -89.93,34.26 -144.23,43.93l-23.96 15.44 -189.97 -0.37c30.34,28.05 107.94,25.07 159.89,25.53 113.44,1.01 22.65,1.14 125.64,-40.3 19.28,-22.6 -31.35,-40.23 37.06,-19.45 104.49,-2.62 115.84,-42.28 205.14,-64.18 7.35,-23.48 -41.48,-22.56 29.23,-19.38 -3.52,-30.89 -9.12,-22.73 23.32,-17.27 -5.93,-31.19 -11.4,-24.63 19.67,-16.03l109.95 -113.61c9.91,-30.19 -3.44,-5.05 17.32,-36.09 1.25,-1.86 8.34,-2.54 9.35,-7.97 1,-5.47 7,-4.37 10.39,-6.74 18.99,-126.9 27.67,-270.81 33.62,-408.22l-47.78 219.34z"/>
   <path class="fil4" d="M1031.43 2809.64l-28.6 248.91 -113.49 -15.68c-94.07,34.17 -736.68,12.29 -891.4,12.29l0 23.34 2759.83 -0.85c124.59,-0.2 291.46,15.31 395.66,9.98l50.65 -14.99 -268.13 -25.86c15.43,48.94 12.12,18.27 -30.21,16.98l-518.41 -9.87c-36.78,-8.05 -23.21,5.34 -39.31,-24.32 -37.33,53.11 22.64,24.98 -91.6,31.43l-10.18 -77.64 -5.31 21.51 2.8 50.23 -1142.06 -0.18 42.31 -236.4c-12.01,-12.8 2.04,-45.24 -21.72,42.44 -57.95,213.87 23.36,180.55 -102.56,198.97 -0.46,-30.96 -6.45,-46.09 6.83,-76.92l2.4 -18.73c4.51,-86.56 25.95,-102.09 2.5,-154.64z"/>
   <path class="fil0" d="M2181.34 897.8l-44.54 12.67c25.55,-21.22 -39.16,-29.51 44.54,-12.67zm-684.2 36.38c106.23,28.09 33.23,10.68 51.85,34.42 -15.38,37.38 -29.25,34.65 4.92,31.13 55.79,-93.22 102.19,-65.31 203.59,-57.39 81.55,6.37 151.51,-10.45 237.88,-7.92 -28.17,28.47 -21.02,65.18 -115.11,34.88 4.57,-0.14 60.38,-4.36 63.57,-3.46 70.73,19.62 30.17,3.74 72.94,47.93 0.22,14.77 -1.64,11.2 23.98,-0.92 26.55,-12.53 25.64,-13.08 40.4,-26.25l-56.16 -9.32 215.56 -44.56c10.41,-33.34 -39.56,-3.5 38.89,-39.18l57.52 -17.7 -13.63 51.89 -2.39 55.39 13.48 0.05 -2.14 37.12c2.18,129.91 68.69,211.16 -8.84,255.43l40.21 304.88c-0.75,-254.78 94.13,-461.12 -31.9,-716.73 -83.66,-13.58 -70.29,7.99 -150.42,33.93 20.54,-43.31 -42.14,-33.01 38.35,-36.14l-155.11 46.84c21.64,-12.4 70.62,14.4 79,18.79l-126.14 0.48c4.22,-2.05 47.8,-18.07 48.45,-18.26 -428.24,68.93 -312.53,11.22 -591.74,-17.9 61.03,29.64 -0.97,-5.64 22.99,42.57z"/>
   <path class="fil0" d="M883.85 2888.7c5.29,83.44 8.4,25.12 -17.35,48.48 -40.1,41.24 21,-39.49 -18.86,30.36 -15.8,-22.86 -15.88,-21.5 -34.81,-37.1 21.18,30.56 8.14,-1.16 5.69,49.25 27.19,0 22.73,-6.63 14.51,19.05 38.13,13.52 8.66,-1.14 37.73,19.93 2.48,1.79 7.88,14.9 9.69,11.4 1.89,-3.68 5.8,8.62 8.89,12.8l113.49 15.68 28.6 -248.91 42.39 -67.12 -4.96 -19.19c-16.41,-8.46 -17.11,9.3 -33.96,-18.26 -57.9,90.96 -65.43,-12.39 -75.54,150.77 -38.32,-27.04 -22.53,1.88 -37.95,-56.44 -57.17,70.27 -1.18,18.33 -60.86,29.16 35.31,35.68 22.35,5.73 23.3,60.14z"/>
   <path class="fil5" d="M1553.91 999.73c74.71,6.6 137.17,28.81 222.18,26.64 83.26,-2.12 152.57,-12.62 240.69,-12.6 -42.77,-44.19 -2.21,-28.31 -72.94,-47.93 -3.19,-0.9 -59,3.32 -63.57,3.46 94.09,30.3 86.94,-6.41 115.11,-34.88 -86.37,-2.53 -156.33,14.29 -237.88,7.92 -101.4,-7.92 -147.8,-35.83 -203.59,57.39z"/>
   <path class="fil5" d="M2264.18 2944.71c0,-3.55 -4.59,10.96 -6.89,8.22l6.89 -8.22zm-73.17 -146.1c1.75,9.1 16.64,66.11 16.71,66.94 2.45,36.65 9.65,13.83 -11.7,37.72 5.47,29.01 -2.59,17.09 9.67,48.15 37.14,94.09 0.54,14.57 35.24,53.45l5.31 -21.51 10.18 77.64c114.24,-6.45 54.27,21.68 91.6,-31.43 -0.49,-64.61 -0.68,-67.52 -16.11,-132.18 -3.3,-13.83 -13.84,-54 -16.05,-59.47 -37.48,-93.21 -12.17,-24.74 -32.45,-52.19l-34.78 -20.98 -57.62 33.86z"/>
   <path class="fil6" d="M738.85 474.95c42.04,49.28 35.15,24.06 0,78.88 -23.13,-22.79 -23.7,10.75 -20.87,-48.06 2.53,-53.55 16.36,-26.08 20.87,-30.82zm-79.92 37.08c-5.03,64.8 6.52,33.8 -20.56,57.42 11.9,102.17 -5.6,76.81 29.86,124.2 34.54,-10.48 23.43,-17.63 40.71,-71.91l41.15 67.25 47.91 -19.76c-8.16,-33.23 -16.98,-42.24 -29.14,-74.99 59.4,-70.71 58.11,-60.49 37.41,-161.89l-124.85 -1.66 -22.49 81.34z"/>
   <path class="fil6" d="M823.77 557.29l-3.02 119.91c102.3,-5.01 12.17,6.01 50.91,-35.09l9.21 -47.34 22.95 27.25c39.27,58.79 -4.29,38.16 78.6,43.28l-45.15 -87.47c6.69,-5.84 11.05,-16.16 12.07,-13.41 1.05,2.78 6.28,-9.25 7.62,-11.79 16.23,-31.02 3.72,-3.48 18.13,-39.47 -13.23,-38.67 14.99,-29.97 -40.47,-29.97l-37.98 51.35 3.04 -77.77c37.83,-0.48 14.53,-5.34 35.23,15.09 68.95,20.63 29.29,22.71 47.47,-28.33 -12.47,-31.7 25.46,-16.91 -39.18,-37.1 -37.48,-11.71 -40.76,-2.47 -74.71,2.73 -39.51,48.42 -35.9,82.04 -44.72,148.13z"/>
   <path class="fil6" d="M1187.82 247.43l21.95 -77.97 10.56 73.05 4.62 11.28 14.42 -3.37 15.57 -38.7 32.05 -63.31 -9.38 66.42 12.05 55.33c51.15,-34.24 46.07,-150.03 45.94,-227.35l-47.73 2.39 -38.99 97.48c-32.7,-83.44 6.83,-55.83 -74.73,-93.92 -15.88,71.28 -55.81,193 -9.3,243.89l22.97 -45.22z"/>
   <path class="fil6" d="M1068.51 583.48c-25.99,-49.16 -31.13,-26.32 -8.97,-93.64l31.22 -60.2c43.9,54.71 40.42,145.17 -22.25,153.84zm-46.14 -113.89c-7.92,47.12 11.33,18.79 -17.11,43.57 -24.74,188.21 181.75,187.31 164.62,-83.28 -54.82,-77.07 -171.73,-66.94 -147.51,39.71z"/>
   <path class="fil6" d="M479.87 301.13l32.11 3.13 -31.85 23.06 -22.01 20.5 21.75 -46.69zm18.18 -102.93c12.62,16.65 30.95,-14.28 -8.53,40.24l8.53 -40.24zm-72.13 187.86c114.85,3.76 136.38,-39.09 136.84,-142.09l-13.02 -70.99c-2.84,-29.1 -164.51,-75.58 -123.82,213.08z"/>
   <path class="fil6" d="M553.62 496.91c55.3,43.36 26.4,64.1 -17.57,88.49l17.57 -88.49zm79.28 51.78l1.35 -58.93 -136.2 -29.21c-15.67,44.02 -23.83,86.26 -28.92,133.8 -0.44,4.16 -3.68,74.34 -3.59,74.88 16.28,98.84 0.26,23.43 40.14,52.9l127.22 -173.44z"/>
   <path class="fil6" d="M331.35 217.57c37.14,56.07 35.5,100.52 -18.53,135.68 -62.37,-95.58 30.52,-109.45 18.53,-135.68zm8.94 192.69c136.71,-170.42 42.42,-250.69 -22.27,-236.6 -53.53,11.66 -177.77,204.85 22.27,236.6z"/>
   <path class="fil6" d="M968.29 242.22c-2.82,-5.47 -20.63,-105.64 -73.64,-15.9 -11.48,19.44 12.3,23.91 -7.63,50.38l-6.46 -141.96c49.12,45.48 5.8,30.43 55.68,40.34 30.8,-32.4 33.45,-2.65 13.08,-65.26 -0.78,-0.37 14.84,-47.3 -70.44,-6.5 -42.22,20.2 -60.53,92.7 -56.16,139.62 8.05,86.53 18.58,51.96 36.67,66.95 62.98,58.71 84.64,-23.72 108.9,-67.67z"/>
   <path class="fil6" d="M1038.19 205.27c0.39,-56.97 2.03,-1.71 12.31,-2.95 0.07,0 1.8,0.24 1.82,0.24 24.15,1.95 -14.44,49.48 -14.13,2.71zm-45.24 -12.14c-6.26,63.66 2.9,32.77 -22.17,41.78l-2.27 75.33c67.27,3.21 34.19,11.02 66.68,-41.83 47.49,9.6 26.78,9.91 90.96,37.1 -9.93,-74.93 -11.83,-172.5 -53.9,-228.02 -75.3,19.84 -43.97,33.97 -79.3,115.64z"/>
   <path class="fil3" d="M3515.82 3041.14c36.84,44.25 143.95,16.87 205.12,15.53l0 -131.96 -112.1 -1.99c-21.39,66.33 -33.34,90.92 -93.02,118.42z"/>
   <path class="fil1" d="M726.49 892.64c161.93,-10.54 127.54,-28.62 256.98,21.09 -14.55,-50.3 37.28,-9.78 -31.46,-53.27 -37.32,-23.58 -25.66,-13.13 -63.9,-11.44 -52.87,2.32 -92.01,17.39 -159.31,16.95 -136.86,-3.04 -269.85,-31.68 -383.98,-33.34 17.68,18.53 -9.38,7.59 34.26,30.1 49.77,25.71 294.22,30.41 347.41,29.91z"/>
   <path class="fil6" d="M1408.14 1308.01c48.66,67.14 -0.32,34.24 -8.94,43.56 -5.54,-64.56 10.15,-23.08 8.94,-43.56zm-116.55 24.09l17.06 -0.61c66.81,-7.22 14.15,0.92 94.11,48.48l79.46 13.65 86.33 -29.64c-66.2,-109.1 -204.53,-120.57 -276.96,-31.88z"/>
   <path class="fil4" d="M1370.06 132.66l-5.54 121.75c19.49,-0.31 57.67,1.75 73.68,-2.3 56.42,-14.26 22.71,-7.75 44.98,-28.31 -20.52,-18.81 6.83,-8.71 -34.34,-13.59 -4.2,1.23 -10.07,5.04 -12.04,5.23l-37.23 -10.17c4.16,-66.15 -6.98,-18.11 31.26,-34.96l35.38 -4.68c2.91,-38.96 12.93,-30.06 -23.19,-32.53 -24.16,-21.22 -23.48,28.85 -17.46,-38.96l78.1 -55.57c-27.98,-14.61 28.29,-14.66 -56.88,-14.83 -0.09,0 -59.18,7.37 -67.14,7.98l-9.58 100.94z"/>
   <path class="fil6" d="M1905.56 1389.16l-30.85 -66.75 30.85 66.75zm-30.89 -3.48c38.48,6.89 69.54,18 111.88,-4.55l68.97 -44.87c-0.57,-0.81 9.45,-69.66 -132.13,-45.53 -57.19,9.74 -79.17,35.14 -102.04,67.49l53.32 27.46z"/>
   <path class="fil0" d="M3387.62 3060.54c69.62,3.31 55.4,-16.54 55.4,46.93l111.19 6.41c145.88,-3.52 18.84,6.56 74.01,-33.87l-194.96 3.18c12.64,-10.16 15.18,-15.36 40.4,-29.06 33.02,-17.89 17.7,-6.34 42.16,-12.99l32.49 -46.56c26.03,-44.16 0.92,4.38 22.23,-47.93 -37.61,-2.47 -23.37,-1.53 -71.87,-10.5l-27.02 42.35c-71.01,63.78 -43.95,-19.66 -84.03,82.04z"/>
   <path class="fil6" d="M589.1 353.46c59.46,25.58 102.05,21.53 139.68,-37.06 -4.9,-1.99 -34.39,-8.61 -38.81,-9.36l-49.7 -9.14c16.8,-90.99 35.05,-129.73 -12.56,-188.87 -16.01,19.8 -12.03,1.03 -24.17,37.87l-14.44 206.56z"/>
   <path class="fil6" d="M353.95 2425.96c-68.76,-133.45 -85.61,-152.52 -22.19,-313.89l106.56 -15.81 -87.39 -30.46c91.66,-40.62 72.87,-13.47 163.64,-8.61 -99.83,-71.69 -209.83,-20.61 -235.18,77.94 -20.59,80.01 -15.88,205.05 50.01,275.52l24.55 15.31z"/>
   <path class="fil4" d="M1752.92 1272.88l9.76 30.17c218.2,-112.65 154.01,-71.52 328.48,-114.26l52.15 -22.3c-139.37,-41.56 -314.36,43.6 -390.39,106.39z"/>
   <path class="fil4" d="M-2.06 2905.02l0 23.54 763.66 -6.02c-36.3,-67.86 1.42,-20.41 -42.53,-29.68 -86.46,29.42 -590.46,12.16 -721.13,12.16z"/>
   <path class="fil5" d="M3153.43 3087.63c31.33,46.42 224.24,21.24 289.59,19.84 0,-63.47 14.22,-43.62 -55.4,-46.93l-183.54 12.1 -50.65 14.99z"/>
   <path class="fil6" d="M1486.22 2491.57c249.35,-48.39 227.41,11.79 411.79,29.93 -120.76,-102.34 -48.72,-24.9 -66.35,-79.2 -60.29,39.58 -5.65,33.17 -97.22,18.99 -154.06,-23.84 -113.61,-10.3 -117.04,-57.86l-131.18 88.14z"/>
   <path class="fil6" d="M755.1 127.83c-3.83,41.72 -9.47,83.48 -13.69,124.78 -10.13,99.1 -22.56,66.57 35.74,94.93 21.29,-52.42 45.16,-180.9 13.85,-233.78 -36.27,8.69 -17.89,-8.71 -35.9,14.07z"/>
   <path class="fil1" d="M1575.81 1731.16c-7.02,-138.46 24.06,-196.35 39.4,-325.97 -1.75,-43.16 9.76,-32.92 -32.44,-32.92 -2.32,76.28 -12.15,117.8 -26.21,190.94 -3.74,19.4 -15.19,70.59 -15.69,90.17 -3.41,133.08 15.93,63.16 34.94,77.78z"/>
   <path class="fil5" d="M1850.08 1390.8c-69.96,0 -54.8,-18.82 -54.8,46.83 64.29,1.91 166.52,21.64 211.04,-3.47l-7.87 -30.83 -11.9 -22.2c-42.34,22.55 -73.4,11.44 -111.88,4.55l-24.59 5.12z"/>
   <path class="fil6" d="M2831.06 2967.35c6.01,-5.97 40.05,13.85 44.47,-112.8 1.95,-55.3 -10.37,-106.39 -20.52,-152l57.71 1.07 -5.38 -9.38 -103.89 -52.29c-2.23,-1.64 -7.13,-5.51 -10.85,-8.07 15.31,62.63 45.83,94.09 55.72,147.01 14.39,77.05 -10.07,118.53 -17.26,186.46z"/>
   <path class="fil6" d="M662.63 2540.66c32.46,-21.92 1.4,13.54 33.03,-28.42 6.04,-8 18.71,-35.35 24.66,-45.19l56.68 16.84 -56.64 -37.52c-12.64,-119.84 24.33,-105.62 -36.14,-168.08l13.43 86.18c-75.3,17.21 -54.34,10.89 -110.45,-15.71 23.89,43.1 2.18,21.79 38.56,43.88l40.19 16.56c4.03,2.21 10,6.87 13.28,8.8 3.46,2.01 9.1,6.47 13.46,9.95l-30.06 112.71z"/>
   <path class="fil3" d="M2303.21 1285.24l20.24 -9.52c77.53,-44.27 11.02,-125.52 8.84,-255.43l2.14 -37.12 -13.48 -0.05 -17.74 302.12z"/>
   <path class="fil1" d="M3591.51 2909.44l28.82 -5.58c0.13,-63.59 0.65,-95.99 -11.31,-155.91 -2.67,-13.39 -14.09,-64.85 -18.01,-73.4 -21.46,-46.84 -8.92,-28.99 -40.84,-46.47 2.08,89.89 37.89,151.26 41.34,281.36z"/>
   <path class="fil4" d="M1556.29 1293.84c-25.88,-117.61 -156.87,-150.43 -262.21,-144.24l57.51 33.24c131.07,46.02 88.47,27.23 204.7,111z"/>
   <path class="fil6" d="M1233.76 548.26l47.26 -174.1 -54.74 -20.52 -31.87 166.53c26.64,33.05 -36.75,24.23 39.35,28.09z"/>
   <path class="fil1" d="M1459.03 2596.38c65.5,-9.1 101.6,-29.25 169.87,-31.41 79.59,-2.54 115.67,15.9 185.56,13.26 -9.21,-8.06 -2.32,-12.1 -35.28,-25.25 -74.45,-29.67 -165.04,-22.58 -242.95,0.9l-77.2 42.5z"/>
   <path class="fil1" d="M2383.78 2806.36l34.5 0.63c53.45,-44.76 145.18,-7.63 209.74,6.1 -33.8,-34.58 -45.18,-48.21 -111.55,-50.84 -43.8,-1.73 -77.91,2.98 -120.68,3.59l-5.2 -67.16c-22.86,21.28 -25.25,-1.05 -26.36,59.74 -0.51,26.93 7.92,25.18 19.55,47.94z"/>
   <path class="fil6" d="M2382.38 2855.56l1.4 -49.2c-45.89,-33.98 -50.73,-32.08 -49.87,-100.88 1.2,-97.22 -0.51,-99.93 63.72,-64.51l3.7 9.14 3.26 -75.28c-48.44,9.67 -13,-8.31 -45.35,10.07 -52.9,30.06 -84.45,151.58 14.63,261.73 1.62,1.8 5.76,5.89 8.51,8.93z"/>
   <path class="fil5" d="M2254.86 1831.57l-1.75 14.02c-27.67,13.63 -33.6,-49.88 -20.63,49.9 40.24,-16.58 48.64,37.46 30.09,-22.16l6.95 42.77c43.36,-21.15 19.52,4.97 51.02,-42.11 2.03,-3.06 10.57,-31.09 14.04,-38.92l-49.48 -54.34 -30.24 50.84z"/>
   <path class="fil6" d="M2204 2651.18l44.63 113.57 34.78 20.98c-43.49,-140.65 -22.64,-148.04 -5.82,-281.47 -50.88,48.39 -43.14,82.54 -42.61,160.99 -12.65,-37.78 -3.44,-2.65 -30.98,-14.07z"/>
   <path class="fil6" d="M552.5 2643.88c0.2,39.94 -12.89,39.88 18.73,26.84 6.65,-48.87 7.02,-48.37 19.71,-75.67l-63.42 4.37c-30.37,-54.43 -98.25,-120.25 -157.54,-158.06 9.17,26.63 -4.7,25.64 47.34,67.69l135.18 134.83z"/>
   <path class="fil4" d="M146.12 424.04c28.72,-36.21 58.67,-131.83 37.06,-180.66 -39.93,22.75 -28.23,10.37 -48.16,81.84 -20.91,74.93 -28.11,51.52 11.1,98.82z"/>
   <path class="fil0" d="M1522.65 825.65c87.9,38.27 242.28,77.86 345.74,27.9 -46.34,-21.14 -103.24,-1.1 -178.87,-6.85 -57.36,-4.38 -112.68,-18.09 -166.87,-21.05z"/>
   <path class="fil2" d="M1068.51 583.48c62.67,-8.67 66.15,-99.13 22.25,-153.84l-31.22 60.2c-22.16,67.32 -17.02,44.48 8.97,93.64z"/>
   <path class="fil2" d="M2383.78 2806.36c-11.63,-22.76 -20.06,-21.01 -19.55,-47.94 1.11,-60.79 3.5,-38.46 26.36,-59.74l7.04 -57.71c-64.23,-35.42 -62.52,-32.71 -63.72,64.51 -0.86,68.8 3.98,66.9 49.87,100.88z"/>
   <path class="fil6" d="M2748.73 2979.29l4.05 27.57c70.03,7.94 104.2,16.73 152.96,56.9 42.33,1.29 45.64,31.96 30.21,-16.98 -60.62,-62.06 -65.93,-5.34 -104.89,-79.43 -60.43,14.37 5.66,-14.86 -82.33,11.94z"/>
   <path class="fil6" d="M2404.59 2574.83l257.8 -16.21c-42.16,-27.3 -61.26,-25.37 -127.24,-23.47 -19.8,0.57 -53.93,1.84 -72.72,5.86 -104.44,22.36 -38.39,10.2 -57.84,33.82z"/>
   <path class="fil6" d="M2392.82 2133.47l-108.73 100.17c-2.05,2.15 -5.82,7.35 -8.64,11.1l128.48 -93.94 47.13 102.03c9.34,-54.21 -8.8,-49.81 32.37,-42.24 -29.25,-32.21 -16.82,-15.58 -34.37,-59.05 -21.3,-38.61 -35.39,52.61 -15.53,-56.9 -38.59,30.36 -22.42,-30.91 -40.71,38.83z"/>
   <path class="fil6" d="M1805.95 2296.36l9.76 28.01c54.3,-9.67 98.73,-23.67 144.23,-43.93 67.56,-30.06 73.53,-28.79 94.29,-77.6 -91.11,44.5 -128.92,85.17 -248.28,93.52z"/>
   <path class="fil6" d="M632 2223.08c8.97,-37.02 18.55,-28.99 -14.64,-33.1l-38.91 -6.61c-39.14,21.31 -54.78,-11.59 -82.94,160.84 38.96,-43.34 0.46,32.27 35.97,-51.87 11.72,-27.83 13.3,-49.35 19.14,-73.14l81.38 3.88z"/>
   <path class="fil4" d="M3628.22 3080.01l92.72 0.31 0 -23.65c-61.17,1.34 -168.28,28.72 -205.12,-15.53 -24.46,6.65 -9.14,-4.9 -42.16,12.99 -25.22,13.7 -27.76,18.9 -40.4,29.06l194.96 -3.18z"/>
   <path class="fil6" d="M3570.54 2946.65c-21.31,52.31 3.8,3.77 -22.23,47.93l-32.49 46.56c59.68,-27.5 71.63,-52.09 93.02,-118.42l112.1 1.99 0 -26.41 -100.61 5.56 -28.82 5.58 -20.97 37.21z"/>
   <path class="fil6" d="M2074.07 2134.1c86.16,-39.66 130.89,-81.92 167.84,-169.91 -30.82,17.98 -2.62,-10.09 -44.8,34.3l-99.61 101.14c-2.55,2.75 -6.56,7.59 -8.75,10.23 -2.29,2.76 -5.86,9.37 -7.63,11.71 -1.82,2.43 -4.79,8.31 -7.05,12.53z"/>
   <path class="fil2" d="M331.35 217.57c11.99,26.23 -80.9,40.1 -18.53,135.68 54.03,-35.16 55.67,-79.61 18.53,-135.68z"/>
   <path class="fil6" d="M1479.84 2077.12c-6.72,-59.03 -7.55,-24.75 -41.96,-68.59 -20.77,-26.4 -31.75,-50.53 -48.2,-88.32 -33.45,26.91 -37.01,0.22 2.87,68.5l25.68 38.37c74.69,111.44 49.35,69.57 61.61,50.04z"/>
   <path class="fil6" d="M501.07 2133.25c-27.17,-39.9 -14.05,-28.61 -72.92,-44.3l-11.16 172.32c61.54,-50.53 -26.79,-96.28 84.08,-128.02z"/>
   <path class="fil6" d="M983.47 913.73c0.68,0.52 18.31,16.93 67.32,24.06l-39.01 -102.62c80.11,-20.39 95.34,-28.37 117.68,-93.48l-28.14 29.86c-46.59,43.84 -43.84,31.42 -113.63,54.74l24.68 65.54c-12.23,18.88 14.05,4.86 -28.9,21.9z"/>
   <path class="fil1" d="M1638.14 1905.82l161.42 8.07c-18.92,-29.47 3.83,-21.22 -47.82,-33.8 -15.27,-3.72 -36.05,1.34 -53.14,1.53 -51.01,0.59 -75.27,-6.82 -126.88,-12.23l37.91 22.17c3.39,1.81 10.92,5.57 14.02,7.19 3.18,1.67 9.65,4.75 14.49,7.07z"/>
   <path class="fil6" d="M1946.25 2204.88l-208.62 31.72c-83.98,15.88 -28.55,3.65 -59.57,27.61l220.21 -27.42c51.46,-20.43 36.16,-21.74 47.98,-31.91z"/>
   <path class="fil5" d="M262.35 768.75c-26.74,-98.25 -44.06,-99.1 -50.76,-219.77 -8.97,48.83 -15.99,83.52 -9.01,132.75 16.3,115.18 56.11,85.49 59.77,87.02z"/>
   <path class="fil4" d="M2390.59 2698.68l174.42 -40.12c3.61,-1.25 8.95,-5.14 13.39,-7.79l-177.07 -0.66 -3.7 -9.14 -7.04 57.71z"/>
   <path class="fil6" d="M1924.37 2305.22c27.61,28.14 43.86,46.62 162.59,-27.82 40.82,-25.6 34.78,-28.31 42.55,-36.36 -89.3,21.9 -100.65,61.56 -205.14,64.18z"/>
   <path class="fil6" d="M812.44 2503.56l60.9 29.84c28.18,5.1 56.71,3.81 84.82,1.07 107.18,-10.5 112.67,-32.42 131.31,-49.55 -43.67,7.35 -95.76,27.35 -133.74,32.47 -68.1,9.18 -75.34,-10.94 -143.29,-13.83z"/>
   <path class="fil0" d="M968.29 242.22l2.49 -7.31c25.07,-9.01 15.91,21.88 22.17,-41.78l-56.71 -18.05c-49.88,-9.91 -6.56,5.14 -55.68,-40.34l6.46 141.96c19.93,-26.47 -3.85,-30.94 7.63,-50.38 53.01,-89.74 70.82,10.43 73.64,15.9z"/>
   <path class="fil6" d="M2018.84 2080.35l5.07 35.01c19.56,-19.96 36.51,-33.24 67.47,-55.48 20.98,-15.08 33.32,-18.27 45.15,-30.41 31.33,-32.14 18.14,-2.69 25.1,-49.75 -48.94,27.15 -105.65,78.93 -142.79,100.63z"/>
   <path class="fil6" d="M3423.04 2411.55l-75.74 -110.42 -108.09 -79.37 91.38 96.39c84.18,88.67 -11.97,58.68 92.45,93.4z"/>
   <path class="fil1" d="M1588.76 1741.57c25.57,39.44 122.58,14.7 161.01,1.05 -40.58,-36.29 -94.05,-13.56 -161.01,-1.05z"/>
   <path class="fil1" d="M2977.98 2657.94c32.71,-26.49 27.46,58.66 38.63,-48.02 10.22,-97.74 -27.93,-48.12 -41.41,-53.35l2.78 101.37z"/>
   <path class="fil0" d="M1352.34 2295.29l-51.48 -234.91c-2.6,62.87 -2.38,81.07 7.05,132.14 12.07,65.36 6.43,66.06 44.43,102.77z"/>
   <path class="fil6" d="M1998.45 1403.33l7.87 30.83c25.4,-7.11 41.5,-3.18 68.41,-21.49 37.02,-25.24 13.63,-7.09 38.48,-51.3l-57.69 -25.11c4.27,14 57.71,75.1 -57.07,67.07z"/>
   <path class="fil1" d="M2039.05 2742.83c-24.68,-66.22 -59.09,-81.63 -118.68,-115.69 18.81,47.15 62.76,91.62 118.68,115.69z"/>
   <path class="fil2" d="M1986.55 1381.13l11.9 22.2c114.78,8.03 61.34,-53.07 57.07,-67.07l-68.97 44.87z"/>
   <path class="fil0" d="M2235.59 1650.01c117.72,90.44 62,9.15 77.55,0 -26.82,-14.48 52.36,-79.69 -77.55,0z"/>
   <path class="fil6" d="M2081.16 986.6c28.68,-6.15 57.82,-11.38 85.63,-19.47 16.47,-4.77 24.15,-6.19 39.88,-13.3 55.63,-25.12 20.32,-11.33 33.89,-21.11l-215.56 44.56 56.16 9.32z"/>
   <path class="fil1" d="M2300.65 983.12l20.3 0 2.39 -55.39 8.33 -0.04c-37.43,-44.85 9.37,-13.94 -52.22,-34.15 -78.45,35.68 -28.48,5.84 -38.89,39.18l64.71 -8.6 -4.62 59z"/>
   <path class="fil6" d="M2552.8 2890.56c-11.96,-9.87 -2.69,-11.31 -37.3,-21.02 -47.47,-13.3 10.77,2.53 -32.46,-3.96 -48.39,-7.29 -19.3,4.04 -74.78,-13l-25.88 2.98c3.68,2.73 8.84,3.04 10.75,8.57 9.34,27.26 137.1,26.89 159.67,26.43z"/>
   <path class="fil6" d="M156.42 215.4c75.21,-3.48 38.02,6.06 55.61,-59.59 -61.84,15.81 -72.35,-33.43 -55.61,59.59z"/>
   <polygon class="fil6" points="2303.21,1285.24 2320.95,983.12 2300.65,983.12 "/>
   <path class="fil6" d="M535.94 2147.19c10.89,38.87 -39.07,10.74 30.39,35.35l43.53 -4.2c33.63,-88.76 -3.78,-61.1 -20.24,-68.58l13.61 53.75 -67.29 -16.32z"/>
   <path class="fil5" d="M2752.78 3006.86l-4.05 -27.57 -82.82 7.35 3.52 20.7c44.98,25.18 52.18,23.38 83.35,-0.48z"/>
   <path class="fil6" d="M2042.44 2511.22c38.57,21.9 46.58,25.4 85.41,53.66l-65.7 -90.77 56.88 -19.14c2.19,-5.93 7.53,-6.47 11.33,-9.65l-80.48 20.57 -7.44 45.33z"/>
   <path class="fil6" d="M1517.49 275.82c44.71,-20.15 55.63,-23.08 46.72,-80.18 -88.9,6.52 -19.27,10.51 -46.72,80.18z"/>
   <path class="fil6" d="M1175.79 2797.85c-1.64,-70.8 37.67,-116.52 66.42,-164.67 -71.78,55.7 -101.79,101.92 -66.42,164.67z"/>
   <path class="fil2" d="M738.85 553.83c35.15,-54.82 42.04,-29.6 0,-78.88 -4.51,4.74 -18.34,-22.73 -20.87,30.82 -2.83,58.81 -2.26,25.27 20.87,48.06z"/>
   <path class="fil1" d="M934.91 471.86l-0.29 11.33c55.46,0 27.24,-8.7 40.47,29.97l30.17 0c28.44,-24.78 9.19,3.55 17.11,-43.57 -4.66,-3.09 -25.68,-12.04 -39.99,-26.06 -18.18,51.04 21.48,48.96 -47.47,28.33z"/>
   <path class="fil4" d="M224.46 2014.77c0.96,-1.49 59.72,-9.74 -2.3,-51.83 -67.25,-45.66 -24.37,-12.82 -40.47,20.39 35.42,11.18 3.13,-12.27 42.77,31.44z"/>
   <path class="fil1" d="M178.73 2165.02l10.53 -35.73c-26.78,-0.28 -33.06,-3.19 -59.88,1.49 -38.66,6.76 -20.63,7.48 -36.6,25.94l85.95 8.3z"/>
   <path class="fil2" d="M1308.65 1331.49c-1.47,54.14 55.43,48.61 94.11,48.48 -79.96,-47.56 -27.3,-55.7 -94.11,-48.48z"/>
   <path class="fil6" d="M2259.2 2373.2c56.55,-18.82 90.11,-51.5 108.09,-105.38l-85.98 73.35c-23.58,24.87 -8.66,7.09 -22.11,32.03z"/>
   <path class="fil6" d="M1898.01 2521.5l45.68 37.71c18.18,10.72 26.91,12.5 49.94,21.14 -12.25,-40.12 -4.98,0.22 -4.26,-35.25l3.54 -36.62c-54.36,39.91 -57.36,28.11 -94.9,13.02z"/>
   <path class="fil7" d="M1559.79 1919.43l78.35 -13.61c-4.84,-2.32 -11.31,-5.4 -14.49,-7.07 -3.1,-1.62 -10.63,-5.38 -14.02,-7.19l-37.91 -22.17c-33.08,-3.52 -28.57,-11.52 -18.88,19.41l6.95 30.63z"/>
   <path class="fil1" d="M1222.89 2865.42c-3.41,4.31 -8.86,4.99 -10.1,13.04 -3.4,21.51 -42.8,34.26 -21.86,161.04l31.96 -174.08z"/>
   <path class="fil6" d="M2131.68 2705.22c-3.09,-4.75 -21.01,-29.6 -23.37,-34.15 -19.42,-37.26 -3.13,2.03 -16.36,-39.77 -44.22,-12.27 -2.98,5.64 -41.61,-15.05 -7.13,-3.83 -28.24,-19.1 -33.98,-22.93l77.88 90.29c32.58,25.55 -7,1.42 37.44,21.61z"/>
   <path class="fil5" d="M2572.56 2478.27c3.57,-5.14 19.43,17.13 15.88,-34.22 -2.43,-35.13 -7.37,-26.36 -15.88,-41.12 -3.3,5.49 -62.61,5.2 0,75.34z"/>
   <path class="fil6" d="M1745.03 1968.96c-20.85,-12.65 4.04,-14.75 -60.84,-22.97 -32.49,-4.12 -40.41,0.13 -67.49,2.1 43.57,33.95 63.68,21.02 128.33,20.87z"/>
   <path class="fil4" d="M755.14 74.03c15.73,27.26 -27.21,27.19 35.86,18.49l41.37 -11.05c-34.24,-45.9 24.96,-52.09 -77.23,-7.44z"/>
   <path class="fil1" d="M1697.12 1331.71c46.2,0 42.68,13.1 26.82,-27.22 -7.03,-97.2 -0.68,-31.15 -26.8,-60.25l-0.02 87.47z"/>
   <path class="fil6" d="M2309.88 2447.27c4.64,-2.1 11.86,-10.24 13.87,-6.43 0.4,0.72 52.99,-20.85 84.1,-88.86 -52.33,27.34 -65.52,43.18 -97.97,95.29z"/>
   <path class="fil2" d="M536.05 585.4c43.97,-24.39 72.87,-45.13 17.57,-88.49l-17.57 88.49z"/>
   <path class="fil1" d="M1778.67 1694.47c-7.5,-70.16 18.4,-61.15 -50.86,-73.77 5.1,15.16 -1.9,11.31 9.47,28.81 40.17,61.76 6.15,14.02 41.39,44.96z"/>
   <path class="fil6" d="M646.9 2800.97l-65.44 -121.94c-1.24,-5.86 -6.82,-5.53 -10.23,-8.31 5.36,39.01 3.61,42.55 26.88,80.48l48.79 49.77z"/>
   <path class="fil4" d="M1230.37 564.97l-39.05 6.78c6.9,60.6 -24.54,23.87 22.08,50.89 40.29,-36.17 11.53,1.33 16.97,-57.67z"/>
   <path class="fil4" d="M2773.83 2615.77c-18.34,-26.78 30.34,-2.63 -34.85,-40.54 -28.27,-16.43 -40.39,-14.05 -76.59,-16.61l111.44 57.15z"/>
   <path class="fil6" d="M2669.43 3007.34l-3.52 -20.7c-7.02,-5.64 -21.29,-19.05 -31.37,-27.19l-20.83 -16.23c-2.3,-1.71 -10.3,-1.51 -12.03,-7.44 -1.75,-6.02 -8.25,-4.84 -12.47,-7.11 22.14,44.15 31.37,58.41 80.22,78.67z"/>
   <path class="fil2" d="M934.62 483.19l0.29 -11.33c-20.7,-20.43 2.6,-15.57 -35.23,-15.09l-3.04 77.77 37.98 -51.35z"/>
   <path class="fil6" d="M2196.02 2903.27c21.35,-23.89 14.15,-1.07 11.7,-37.72 -0.07,-0.83 -14.96,-57.84 -16.71,-66.94l-16.06 9.1 21.07 95.56z"/>
   <path class="fil6" d="M2161.63 1979.72c48.76,-11.99 6.25,17.63 39.22,-17.09 15.91,-16.73 15.8,-25.68 23.43,-49.7 -26.01,13.78 -11.79,-3.04 -35.48,21.88 -15.54,16.32 -17.18,24.28 -27.17,44.91z"/>
   <path class="fil6" d="M2204 2651.18c-8.9,-30.97 -3.57,-29.33 -23.14,-52.7 -28.75,-34.34 -0.66,-4 -38.84,-23.14 5.76,9.54 4.66,18.16 20.2,38.59 28.59,37.54 9.25,17.48 41.78,37.25z"/>
   <path class="fil7" d="M632.9 548.69l5.47 20.76c27.08,-23.62 15.53,7.38 20.56,-57.42 -5.62,-45.75 7.7,-3.26 -24.68,-22.27l-1.35 58.93z"/>
   <polygon class="fil3" points="1791.75,2339.81 1815.71,2324.37 1805.95,2296.36 1744.11,2313.56 "/>
   <path class="fil6" d="M2110.46 2892.77c-3.77,-31.28 9.36,-6.54 -7.75,-50.32 -17.96,-46.05 -17.26,-29.16 -30.1,-42.77 4.11,28.14 -8.38,3.02 8.01,44.81 23.27,59.39 21.48,37.41 29.84,48.28z"/>
   <path class="fil3" d="M1723.94 1304.49c15.86,40.32 19.38,27.22 -26.82,27.22l41.96 5.84c37.16,-17.81 14.83,-21.09 23.6,-34.5l-9.76 -30.17 -28.98 31.61z"/>
   <path class="fil7" d="M755.1 127.83c18.01,-22.78 -0.37,-5.38 35.9,-14.07l0 -21.24c-63.07,8.7 -20.13,8.77 -35.86,-18.49l-21.35 18.03c23.8,38.22 -6.47,-0.85 21.31,35.77z"/>
   <path class="fil7" d="M866.5 2937.18c25.75,-23.36 22.64,34.96 17.35,-48.48l-34.99 20.83c-8.22,34.78 -16.34,27.23 17.64,27.65z"/>
   <path class="fil6" d="M2110.46 2892.77l1.13 97.22c22.8,-41.06 19.19,49.09 17.75,-44.5 -0.79,-51.69 -14.51,-45.85 -18.88,-52.72z"/>
   <polygon class="fil7" points="2382.38,2855.56 2408.26,2852.58 2418.28,2806.99 2383.78,2806.36 "/>
   <path class="fil6" d="M704.85 2871.79c-5.23,-9.6 -23.19,-41.98 -27.85,-47.67 -21.96,-26.91 -11.13,-10.87 -30.1,-23.15 4.59,14.9 10.83,36.82 20.76,48.94 30.21,36.87 -12.41,4.36 37.19,21.88z"/>
   <path class="fil4" d="M3035.56 2051.69c-40.28,-32.4 -54.25,-42.13 -93.5,-85.05 -3.35,4.2 -30.39,-21.86 -0.15,20.52 2.07,2.91 21.68,21.33 25.81,24.65 29.25,23.45 34.65,23.94 67.84,39.88z"/>
   <path class="fil6" d="M1255.51 2503.98c93.46,-25.12 43.36,-18.56 54.25,-34.66l-33.53 2.56c-76.2,7 3.19,-2.54 -20.72,32.1z"/>
   <path class="fil6" d="M1946.25 2204.88c31.57,-3.88 -6.46,18.04 42.31,-8.45 33.82,-18.38 17.85,-13.65 31.24,-27.21 -42.42,7.65 0.74,-13.96 -45.57,11 -23.69,12.78 -19.19,15.29 -27.98,24.66z"/>
   <path class="fil6" d="M2425.42 2337.43l37.45 -11.01c52.37,-5.68 -0.53,0.38 10.22,-27.89 -86.46,23.76 -32.73,13.76 -47.67,38.9z"/>
   <polygon class="fil3" points="1187.82,247.43 1220.33,242.51 1209.77,169.46 "/>
   <path class="fil6" d="M2201.73 2188.36c53.11,-33.49 81.33,-61.23 109.95,-113.61l-109.95 113.61z"/>
   <path class="fil1" d="M1609.39 1319.43l8.88 -71.95c-26.1,30.45 -27.5,-49.4 -22.44,34.24 3.45,57.01 5.07,23.56 13.56,37.71z"/>
   <path class="fil4" d="M2042.44 2511.22l7.44 -45.33 -44.67 -5.25c1.97,3.61 4.83,5.38 5.82,10.85 1,5.49 5.01,8.86 6.36,10.65 1.73,2.26 20.72,24.48 25.05,29.08z"/>
   <path class="fil3" d="M1902.54 835.04c1.25,25.59 41.08,31.65 30.14,2.21 -6.36,-17.11 -32.61,-52.35 -30.14,-2.21z"/>
   <path class="fil6" d="M572.28 2097.48c-17.9,-34.76 37.47,-27.78 -17.37,-31.7l-40.34 -8.59c3.12,3.5 7.37,4.79 9.1,10.74 1.72,5.9 7.57,8.27 9.93,9.8 36.38,23.82 5.16,6.82 38.68,19.75z"/>
   <path class="fil7" d="M3038.56 2613.16c29.64,14.92 -6.61,32.36 46,-2.64 -67.4,-47.59 -41.23,-0.86 -46,2.64z"/>
   <path class="fil4" d="M1089.47 2484.92c30.91,-9.36 30.67,-5.86 54.58,-21.55 32.57,-21.37 30.54,-29.53 36.18,-35.99l-70 38.97c-2.28,1.68 -8.62,12.45 -10.26,9.14 -1.67,-3.39 -6.94,6.37 -10.5,9.43z"/>
   <path class="fil6" d="M3198.24 2192.38c-13.55,-22.66 15.64,-19.25 -51.76,-43.05 19.22,30.93 -36.19,10.46 51.76,43.05z"/>
   <path class="fil6" d="M1920.37 2627.14c-4.92,-5.73 2.58,-11.66 -24.99,-24.11 -55.74,-25.15 -0.19,-3.37 -40.49,-9.21 8.18,8.51 3.83,13.41 27.83,24.35 34.26,15.62 12.91,5.03 37.65,8.97z"/>
   <path class="fil7" d="M2215.97 1036.41c-10.5,-62.28 19.18,-11.48 -41.85,-44.21 28,59.53 -14.77,31.57 41.85,44.21z"/>
   <path class="fil3" d="M1466.21 165.63l24.61 0 -11.14 -51.28 -36.66 18.75c36.12,2.47 26.1,-6.43 23.19,32.53z"/>
   <path class="fil6" d="M2019.8 2169.22l38.06 -7.14c64.15,-4.72 -1.13,3.11 16.21,-27.98 -68.1,16.15 14.12,-21.63 -27.49,8.05 -26.02,18.56 -14.73,10.59 -26.78,27.07z"/>
   <path class="fil0" d="M2449.06 2151.54c17.55,43.47 5.12,26.84 34.37,59.05l36.78 18.28 -71.15 -77.33z"/>
   <path class="fil6" d="M3462.77 2463.96l-15.1 -34.1c0,-37.22 9.13,-32.45 -24.63,-18.31 17.52,52.11 -26.23,-18.51 10.17,25.72 21.07,25.62 11.42,13.92 29.56,26.69z"/>
   <path class="fil0" d="M1399.2 1351.57c8.62,-9.32 57.6,23.58 8.94,-43.56 1.21,20.48 -14.48,-21 -8.94,43.56z"/>
   <path class="fil6" d="M1328.32 2557.64c76.04,-16.69 -13.09,12.69 30.51,-7.66 29.1,-13.58 27.74,-14.87 40.02,-23.25 -91.08,-20.81 -4.01,-11.79 -35.75,4.04 -41.19,20.57 -20.74,10.44 -34.78,26.87z"/>
   <path class="fil6" d="M2091.95 2631.3c52.55,-21 17.17,8.27 40.43,-43.21 -53.05,20.17 -22.78,-7.92 -40.43,43.21z"/>
   <path class="fil6" d="M2323.34 927.73l13.63 -51.89 -57.52 17.7c61.59,20.21 14.79,-10.7 52.22,34.15l-8.33 0.04z"/>
   <path class="fil6" d="M2656.06 2477c54.43,-29.03 39.01,0.61 42.25,-62.26l-42.25 62.26z"/>
   <path class="fil6" d="M2311.68 2074.75c22.42,-15.88 11.18,45.57 37.06,-50.8 -3.39,2.37 -9.39,1.27 -10.39,6.74 -1.01,5.43 -8.1,6.11 -9.35,7.97 -20.76,31.04 -7.41,5.9 -17.32,36.09z"/>
   <path class="fil2" d="M2520.21 2228.87c9.12,11.51 -11.66,11.45 23.78,21.27 71.4,19.8 4.02,4.86 34.1,-11.57l-57.88 -9.7z"/>
   <path class="fil5" d="M1448.84 210.21c-40.78,-19.36 -55.02,23.3 -18.01,-39.9 -38.24,16.85 -27.1,-31.19 -31.26,34.96l37.23 10.17c1.97,-0.19 7.84,-4 12.04,-5.23z"/>
   <path class="fil7" d="M1359.4 2956.1c55.13,-0.63 7.03,26.28 38,-46.49 -68.82,50.12 -17.08,10 -38,46.49z"/>
   <path class="fil4" d="M1799.56 1913.89c5.36,3.02 6.33,16.5 32.75,11.6 46.1,-8.53 10.9,0.83 39.21,-20l-71.96 8.4z"/>
   <path class="fil6" d="M1854.89 2593.82c-12.45,-20.67 38.18,-25.53 -40.43,-15.59 8.12,20.58 -43.77,20.27 40.43,15.59z"/>
   <path class="fil4" d="M3497.23 2522.2c-13.72,-75.48 -17.24,-45.48 -34.46,-58.24 16.87,61.13 -15.25,-10.24 8.82,27.48 17.43,27.35 14.39,19.86 25.64,30.76z"/>
   <path class="fil4" d="M590.94 2595.05c74.66,-21.27 41.1,-19.01 54.32,-37.56 -30.78,9.01 -11.2,0.35 -36.84,16.62 -2.15,1.36 -7.62,13.19 -9.19,9.82 -1.62,-3.45 -5.43,7.49 -8.29,11.12z"/>
   <path class="fil4" d="M2205.75 2411.37c81.82,-21.46 39.27,-16.78 53.45,-38.17 -66.97,24.52 10.34,-17.2 -26.21,10.85 -22.82,17.52 -14.77,11.61 -27.24,27.32z"/>
   <path class="fil6" d="M812.44 2503.56c-7.9,-20.35 42.13,-16.82 -35.44,-19.67 7.9,23.26 -40.84,22.91 35.44,19.67z"/>
   <path class="fil6" d="M2727.56 2515.44c98.49,-19.06 25.29,11.16 54.99,-44.08l-54.99 44.08z"/>
   <path class="fil6" d="M1275.81 2600.1c40.63,-16.43 1.34,10.28 27.5,-12.62 26.56,-23.28 12.08,-9.25 25.01,-29.84 -80.51,33.82 -30.48,15.29 -52.51,42.46z"/>
   <path class="fil7" d="M1615.21 1405.19l16.8 -44.06c-103.67,-13.06 -11.31,-4.7 -49.24,11.14 42.2,0 30.69,-10.24 32.44,32.92z"/>
   <polygon class="fil5" points="1254.94,211.72 1277.61,214.83 1286.99,148.41 "/>
   <path class="fil4" d="M3518.71 2555.17c0.48,-68.08 3.94,-23.89 -21.48,-32.97 1.4,68.76 -3.29,24.59 21.48,32.97z"/>
   <path class="fil4" d="M2964.29 2670.72l-29.06 -8.27 5.93 29.05c36.58,0 33.8,10.83 23.13,-20.78z"/>
   <path class="fil4" d="M3536.28 2592.03c3.61,-76.37 3.67,-25.71 -17.57,-36.86 -2.89,72.1 -4.68,28.26 17.57,36.86z"/>
   <path class="fil6" d="M1124.03 2650.27c3.63,-3.02 9.78,-11.77 11.09,-8.8 1.27,2.95 8.49,-7.33 10.09,-9.71 26.05,-38.64 4.94,0.09 20.28,-38.96 -3.98,2.62 -10.85,1 -12.17,7.52 -1.29,6.39 -9.18,6.59 -10.76,8.99 -17.48,26.65 -8.47,5.78 -18.53,40.96z"/>
   <path class="fil6" d="M1222.89 2865.42l38.33 -79.96c-14.24,14.53 -18.18,7.55 -31.02,39.54 -20.63,51.45 -4.68,12.82 -7.31,40.42z"/>
   <path class="fil6" d="M1275.7 2756.91c12.95,-14.94 24.48,-28.39 40.74,-52.24 -28.16,17.77 -18.84,-34.89 -40.74,52.24z"/>
   <path class="fil4" d="M535.94 2147.19c-8.31,-18.49 42.96,-24.07 -34.87,-13.94 7,17.35 -35.6,19.3 34.87,13.94z"/>
   <polygon class="fil3" points="2912.72,2703.62 2941.16,2691.5 2935.23,2662.45 2907.34,2694.24 "/>
   <path class="fil6" d="M2975.2 2556.57c-14.61,-34.79 51.22,-18.95 -30.32,-29.32 9.5,34.61 -0.81,16.56 30.32,29.32z"/>
   <path class="fil4" d="M1535.71 1908.14c-34.63,-11.18 -23.63,-15.14 -23.63,23.84 86.92,0 0.24,11.1 23.63,-23.84z"/>
   <path class="fil4" d="M2574.51 2907.56c8.68,-33.08 12.93,-24.37 -21.71,-17 -8.42,33.12 -12.82,24.52 21.71,17z"/>
   <path class="fil4" d="M2792.6 2633.88c8.66,-34.46 15.11,-28.64 -18.77,-18.11 -10.79,33.45 -15.73,26.18 18.77,18.11z"/>
   <path class="fil4" d="M719.07 2892.86c10.08,-34.02 19.05,-30.85 -14.22,-21.07 -8.23,35.13 -18.53,33.8 14.22,21.07z"/>
   <path class="fil4" d="M2241.91 1964.19c12.19,-8.4 23.63,37.06 27.61,-48.09l-27.61 48.09z"/>
   <path class="fil4" d="M1203.4 2410.93c-33.12,-6.49 -28.18,-15.05 -23.17,16.45 34.17,3.83 31.24,13.87 23.17,-16.45z"/>
   <path class="fil4" d="M2182.06 2204.39c-32.44,-5.46 -26.84,-13.62 -23.32,17.27 33.91,4.3 29.75,13.71 23.32,-17.27z"/>
   <path class="fil4" d="M2589.21 2928.67c8.79,-33.41 17.59,-29.99 -14.7,-21.11 -7.27,33.99 -16.94,31.76 14.7,21.11z"/>
   <path class="fil4" d="M662.63 2540.66c-32.16,-12.23 -25.4,-16.75 -17.37,16.83 33.75,7.87 29.9,15.24 17.37,-16.83z"/>
   <path class="fil6" d="M344.82 832.63c-4.63,-18.07 40.63,-16.91 -29.81,-15.53 7.89,19.19 -31.68,22.42 29.81,15.53z"/>
   <path class="fil4" d="M1559.79 1919.43l-6.95 -30.63c-31.11,0 -28.05,-8.36 -17.13,19.34l24.08 11.29z"/>
   <path class="fil4" d="M1237.88 2519.16c-33.41,-5.3 -30.17,-14.31 -20.85,16.54 32.31,8.03 27.02,15.38 20.85,-16.54z"/>
   <path class="fil4" d="M1217.03 2535.7c-31.04,-8.62 -23.91,-13.76 -18.57,18.46 32.24,5.32 27.21,12.54 18.57,-18.46z"/>
   <path class="fil4" d="M1225.25 2395.49c-33.03,-6.04 -29.68,-15.21 -21.85,15.44 32.86,6.41 29.18,15.34 21.85,-15.44z"/>
   <path class="fil4" d="M2275.45 2244.74c-31.92,-10.59 -27.45,-18.25 -20.94,13.91 34.5,5.91 34.44,16.76 20.94,-13.91z"/>
   <path class="fil6" d="M889.34 3042.87c-3.09,-4.18 -7,-16.48 -8.89,-12.8 -1.81,3.5 -7.21,-9.61 -9.69,-11.4 -29.07,-21.07 0.4,-6.41 -37.73,-19.93 8.9,9.67 12.97,15.25 31.15,30.13 2.3,1.88 10.61,10.85 12.38,7.39 1.79,-3.44 8.53,4.4 12.78,6.61z"/>
   <path class="fil4" d="M3239.21 2221.76c10.24,-30.82 12.1,-21.02 -21.07,-13.62 -9.36,31.43 -11.92,22.11 21.07,13.62z"/>
   <path class="fil6" d="M684.22 2278.29l-52.22 -55.21c14.07,31.28 -2.47,14.87 18.51,35.04 28.31,27.22 4.7,5.69 33.71,20.17z"/>
   <path class="fil4" d="M3218.14 2208.14c8.91,-30.85 12.54,-22.6 -19.9,-15.76 -6.94,30.94 -11.64,23.59 19.9,15.76z"/>
   <path class="fil4" d="M1198.46 2554.16c-30.35,-5.6 -23.37,-11.35 -18.64,19.65 30.76,5.44 24.02,11.46 18.64,-19.65z"/>
   <path class="fil6" d="M2072.61 2799.68c-18.03,-87.81 -18.51,-45.5 -33.56,-56.85l33.56 56.85z"/>
   <path class="fil4" d="M2201.73 2188.36c-31.07,-8.6 -25.6,-15.16 -19.67,16.03 32.27,5.39 29.09,13.92 19.67,-16.03z"/>
   <path class="fil6" d="M2200.41 2299.86c61.06,-25.81 -7.5,15.54 27.09,-12.66 23.84,-19.47 13.76,-10.9 27.01,-28.55 -37.38,14.98 4.77,-12.73 -24.8,11.31 -25.01,20.3 -16.11,13.89 -29.3,29.9z"/>
   <path class="fil4" d="M1548.99 968.6c-18.62,-23.74 54.38,-6.33 -51.85,-34.42l51.85 34.42z"/>
   <path class="fil4" d="M833.03 2998.74c8.22,-25.68 12.68,-19.05 -14.51,-19.05 -17.06,33.49 -22.16,27.34 14.51,19.05z"/>
   <path class="fil4" d="M2170.29 2427.17l-39.93 18.15c76.57,20.81 22.73,14.09 39.93,-18.15z"/>
   <path class="fil0" d="M1038.19 205.27c-0.31,46.77 38.28,-0.76 14.13,-2.71 -0.02,0 -1.75,-0.24 -1.82,-0.24 -10.28,1.24 -11.92,-54.02 -12.31,2.95z"/>
   <path class="fil4" d="M1258.68 2613.38c-30.54,-4.11 -24.5,-10.24 -16.47,19.8 28.68,8.97 19.93,11.9 16.47,-19.8z"/>
   <path class="fil4" d="M2425.42 2337.43c-30.98,-9.91 -26.72,-16.45 -17.57,14.55 31.68,8.79 28.42,16.18 17.57,-14.55z"/>
   <path class="fil0" d="M1795.28 1437.63c0,-65.65 -15.16,-46.83 54.8,-46.83 -33.89,-13.65 50.8,-32.21 -57.25,-3.94l2.45 50.77z"/>
   <path class="fil4" d="M1255.51 2503.98c-29.8,-11.97 -23.45,-16.48 -17.63,15.18 31.13,5.31 28.74,13.47 17.63,-15.18z"/>
   <path class="fil6" d="M315.01 817.1c-12.87,-21.48 -3.53,-15.14 -23,-34.85 -25.77,-26.08 -1.59,-4.68 -29.66,-13.5l52.66 48.35z"/>
   <path class="fil4" d="M369.98 2441.36c11.75,-29.57 15.14,-22.66 -16.03,-15.4 -7.77,31.24 -13.92,27 16.03,15.4z"/>
   <path class="fil4" d="M589.62 2109.76c12.82,-29.04 13.55,-20.13 -17.34,-12.28 -9.56,30.56 -12.67,23.45 17.34,12.28z"/>
   <path class="fil4" d="M3146.48 2149.33c8.13,-29.25 11.68,-22.38 -17.57,-12.86 -11.31,28.39 -12.78,19.93 17.57,12.86z"/>
   <path class="fil4" d="M1179.82 2573.81c-28.71,-5.71 -21.86,-10.18 -14.33,18.99 26.97,7.81 18.72,10.52 14.33,-18.99z"/>
   <path class="fil4" d="M2977.98 2657.94c-28.46,-14.68 -22.82,-17.67 -13.69,12.78 29.92,8.86 28.04,15.49 13.69,-12.78z"/>
   <path class="fil4" d="M1371.35 2653.15c-28,-2.82 -22.93,-10.06 -20.48,16.26 27.87,2.16 22.99,9.58 20.48,-16.26z"/>
   <path class="fil4" d="M1350.87 2669.41c-26.14,-2.43 -19.23,-7.68 -16.54,19.75 25.95,3.02 18.73,7.9 16.54,-19.75z"/>
   <polygon class="fil0" points="480.13,327.32 511.98,304.26 479.87,301.13 "/>
   <path class="fil4" d="M1334.33 2689.16c-28.11,-2.62 -24.83,-10.19 -17.89,15.51 26.51,6.06 20.74,11.42 17.89,-15.51z"/>
   <path class="fil7" d="M871.66 642.11c-1.6,-39.51 -5.93,-5.87 32.16,-20.09l-22.95 -27.25 -9.21 47.34z"/>
   <path class="fil4" d="M2181.34 897.8c-83.7,-16.84 -18.99,-8.55 -44.54,12.67l44.54 -12.67z"/>
   <path class="fil4" d="M2277.59 2504.26l32.29 -56.99c-16.21,11.92 -5.42,-4.33 -24.91,26.56 -15.32,24.24 0.26,-9.28 -7.38,30.43z"/>
   <path class="fil4" d="M3550.17 2628.08c11.18,-72.74 4.46,-25.81 -13.89,-36.05l13.89 36.05z"/>
   <path class="fil4" d="M2142.02 2575.34c13.46,-27.85 14.14,-20.41 -14.17,-10.46 -8.01,25.33 -10.77,19.67 14.17,10.46z"/>
   <path class="fil4" d="M2205.75 2411.37l-35.46 15.8c70.53,9.27 21.92,6.27 35.46,-15.8z"/>
   <path class="fil6" d="M2158.74 2221.66c-70.71,-3.18 -21.88,-4.1 -29.23,19.38l29.23 -19.38z"/>
   <path class="fil6" d="M2145.85 2334.04l-32.46 21.28c64.86,0.4 21.46,4.84 32.46,-21.28z"/>
   <path class="fil4" d="M1225.25 2395.49l30.94 -33.52c-26.87,5.58 -16.91,-14.65 -30.94,33.52z"/>
   <path class="fil0" d="M489.52 238.44c39.48,-54.52 21.15,-23.59 8.53,-40.24l-8.53 40.24z"/>
   <path class="fil4" d="M1124.03 2650.27l-16.25 18.98c32.35,11.47 24.21,14.95 16.25,-18.98z"/>
   <polygon class="fil5" points="480.13,327.32 479.87,301.13 458.12,347.82 "/>
   <path class="fil4" d="M1068.86 2723.33l4.96 19.19 4.84 14.39c17.94,-82.25 7.46,-8.59 -9.8,-33.58z"/>
   <polygon class="fil4" points="617.36,2189.98 609.86,2178.34 566.33,2182.54 578.45,2183.37 "/>
   <path class="fil4" d="M2016.36 2593.32l-22.73 -12.97c-2.03,27.67 -6.76,19.73 22.73,12.97z"/>
   <path class="fil4" d="M2145.85 2334.04l54.56 -34.18c-49.88,15.71 9.56,-14.02 -24.78,8.97 -23.78,15.91 -18.9,14.2 -29.78,25.21z"/>
   <path class="fil6" d="M1371.35 2653.15c36.53,-15.99 -2.1,8.19 25.07,-12.14 20.21,-15.14 21.68,-17.89 33.71,-29.84l-58.78 41.98z"/>
   <path class="fil4" d="M2232.48 1895.49l-8.2 17.44c30.69,8.62 22.4,10.35 8.2,-17.44z"/>
   <polygon class="fil6" points="2052.48,2390.22 2031.31,2397.5 2056.77,2407.72 "/>
   <path class="fil4" d="M1275.7 2756.91l-19.31 27.42c40.03,0.7 3.69,5.97 19.31,-27.42z"/>
   <path class="fil4" d="M2052.48 2390.22c67.71,-22.19 -11.57,13.67 27.46,-10 21.24,-12.89 24.17,-16.85 33.45,-24.9l-60.91 34.9z"/>
   <path class="fil4" d="M1085.33 2681.02l0.39 21.18c4.2,-1.31 13.37,-7 12.63,-3.85 -0.42,1.66 0.52,-6.19 -0.13,-7.07 -1.56,-2.05 -8.62,-6.8 -12.89,-10.26z"/>
   <polygon class="fil6" points="375.87,1841.63 379.37,1842.95 393.65,1916.15 "/>
   <path class="fil4" d="M1195.35 2613.12c2.8,2.54 8.38,-11.42 8.4,-7.66l0 0.02c-0.81,0.73 -11.2,5.08 -8.4,7.64z"/>
   <path class="fil4" d="M2257.29 2952.93c2.3,2.74 6.89,-11.77 6.89,-8.22l0.03 0.02c-0.64,0.72 -9.21,5.47 -6.92,8.2z"/>
   <polygon class="fil4" points="1275.81,2600.1 1258.68,2613.38 "/>
   <polygon class="fil4" points="2138.22,2732.48 2131.68,2705.22 "/>
   <polygon class="fil6" points="1129.46,741.69 1140.74,717.36 "/>
   <polygon class="fil4" points="1588.76,1741.57 1575.81,1731.16 "/>
   <polygon class="fil4" points="2254.86,1831.57 2253.11,1845.59 "/>
   <polygon class="fil0" points="1905.56,1389.16 1874.71,1322.41 "/>
   <polygon class="fil6" points="1459.03,2596.38 1430.13,2611.17 "/>
  </g>
 </g>
</svg>
