<?xml version="1.0" encoding="UTF-8"?>
<!DOCTYPE svg PUBLIC "-//W3C//DTD SVG 1.1//EN" "http://www.w3.org/Graphics/SVG/1.1/DTD/svg11.dtd">
<!-- Creator: CorelDRAW Standard 2021 (64-Bit Versión de evaluación) -->
<svg xmlns="http://www.w3.org/2000/svg" xml:space="preserve" width="90.517mm" height="90.3392mm" version="1.1" style="shape-rendering:geometricPrecision; text-rendering:geometricPrecision; image-rendering:optimizeQuality; fill-rule:evenodd; clip-rule:evenodd"
viewBox="0 0 9051.7 9033.92"
 xmlns:xlink="http://www.w3.org/1999/xlink"
 xmlns:xodm="http://www.corel.com/coreldraw/odm/2003">
 <defs>
  <style type="text/css">
   <![CDATA[
    .str0 {stroke:black;stroke-width:16.93;stroke-miterlimit:22.9256}
    .fil1 {fill:black}
    .fil2 {fill:white}
    .fil0 {fill:url(#id2)}
    .fil3 {fill:url(#id3)}
   ]]>
  </style>
   <mask id="id0">
  <linearGradient id="id1" gradientUnits="userSpaceOnUse" x1="1575.22" y1="1534.99" x2="6227.41" y2="8300.83">
   <stop offset="0" style="stop-opacity:1; stop-color:white"/>
   <stop offset="0.921569" style="stop-opacity:0.403922; stop-color:white"/>
   <stop offset="1" style="stop-opacity:0.403922; stop-color:white"/>
  </linearGradient>
    <rect style="fill:url(#id1)" x="181.29" y="213.41" width="8667.46" height="7186.69"/>
   </mask>
  <linearGradient id="id2" gradientUnits="userSpaceOnUse" x1="2576.65" y1="547.08" x2="5936.3" y2="8849.13">
   <stop offset="0" style="stop-opacity:1; stop-color:#E0412C"/>
   <stop offset="0.141176" style="stop-opacity:1; stop-color:#F18A2E"/>
   <stop offset="0.301961" style="stop-opacity:1; stop-color:#FFF935"/>
   <stop offset="0.490196" style="stop-opacity:1; stop-color:#347241"/>
   <stop offset="0.741176" style="stop-opacity:1; stop-color:#2A5FFB"/>
   <stop offset="1" style="stop-opacity:1; stop-color:#9243C0"/>
  </linearGradient>
  <linearGradient id="id3" gradientUnits="userSpaceOnUse" x1="1031.29" y1="1943.96" x2="6066.37" y2="8553.96">
   <stop offset="0" style="stop-opacity:1; stop-color:#E0412C"/>
   <stop offset="0.219608" style="stop-opacity:1; stop-color:#F18A2E"/>
   <stop offset="0.411765" style="stop-opacity:1; stop-color:#FFF935"/>
   <stop offset="0.639216" style="stop-opacity:1; stop-color:#347241"/>
   <stop offset="0.811765" style="stop-opacity:1; stop-color:#2A5FFB"/>
   <stop offset="1" style="stop-opacity:1; stop-color:#9243C0"/>
  </linearGradient>
 </defs>
 <g id="Capa_x0020_1">
  <metadata id="CorelCorpID_0Corel-Layer"/>
  <ellipse class="fil0" cx="4513.58" cy="4521.18" rx="4525.82" ry="4516.96"/>
  <ellipse class="fil1 str0" cx="4513.58" cy="4521.19" rx="4326.47" ry="4318"/>
  <path class="fil2" d="M422 5889.29c118.67,-334.09 197.29,-559.9 375.4,-841.63 173.14,-274.04 307.94,-500.29 491.58,-728.77 467.77,-581.84 696.42,-839.51 831.89,-1607.5 123.52,-699.81 297,-1320.86 658.52,-1778.71 368.74,-466.99 1100.59,-713.07 1694.36,-731.9 -771.77,-21.5 -1468.31,214.45 -2031.29,514.22 -1102.39,586.97 -1923.45,1693.72 -2173.98,2938.39 -115.62,574.04 -115.96,1172.25 4.4,1744.51 18.05,86 85.39,420.43 149.12,491.39zm3909.4 996.69c69.6,44.22 -7.78,43.22 181.61,117.41 65.08,25.4 142.91,52.14 145.51,124.99 -169.31,20.84 -346.18,-85.44 -327.12,-242.4zm2530.88 -2915.44c53.92,-103.49 247.82,-203.41 157.47,-406.27 -121.38,18.49 -75.47,123.65 -138.3,233.05 -130.05,26.62 -312.79,-24.29 -422.09,21.16 19.85,35.76 20.41,38.55 62.38,55.92l65.87 22.84c2.26,-3.9 9.03,3.23 12.97,5.91 -157.92,309.35 244.21,1012.95 219.17,1470.13l115.28 16.83c37.57,-73.08 87.99,-257.78 122.95,-348.24 41.74,-108.39 89.79,-220.35 130.51,-343.89 104.34,-316.48 115.28,-450.5 75.35,-803.3 -173.82,40.21 -173.93,97.03 -401.56,75.86zm-77.83 -781.47c54.59,111.07 334.45,172.9 469.02,121.32 48.39,-278.5 -343.93,-195.62 -469.02,-121.32zm-2206.02 439.81c307.72,-175.68 964.21,-353.69 1019.03,175.12l-235.41 -4.01c-8.69,-106.94 75.12,-80.43 13.87,-182.03 -29.67,-49.12 -75.91,-83.77 -149.91,-87.45 -28.99,98.48 -45.12,245.31 -128.48,280.29 -140.09,58.7 -199.54,-53.81 -345.39,-9.36 29.67,124.21 110.09,35.98 155.1,152.5 -175.63,80.32 -307.38,-161.3 -398.63,-270.92l69.82 -54.14zm-101.29 -484.92c92.38,-167.88 418.03,-213.44 672.28,-179.91 240.6,31.75 465.07,114.85 648.03,214 78.28,42.33 80.77,36.2 91.14,126.77 19.97,175.23 27.75,437.58 -239.02,343.56 -86.29,-30.53 -203.15,-150.95 -245.9,-195.07 -115.51,-119.3 -155.21,-79.53 -276.47,-142.92 221.99,-131.01 489.32,115.52 613.4,50.91 -61.14,-48.79 -468.68,-177.46 -578.43,-207.2 -292.83,-79.54 -399.31,-76.31 -685.03,-10.14zm-478.27 -1248.9c125.99,71.63 339.3,129.78 410.7,246.75 -138.86,92.57 -190.97,115.97 -275.34,281.62 -38.13,74.63 -142.36,306.23 -189.06,338.54 -6.09,-191.5 -1.12,-302.45 -34.51,-492.61 -28.77,-163.31 -63.17,-293.2 -59.22,-469.33 57.86,27.97 82.79,58.27 147.43,95.03zm2939.1 -43.67c33.38,-86.22 82.11,-148.72 112.34,-237.73 137.73,4.13 159.61,46.57 203.27,140.03 17.93,-25.29 17.93,25.85 13.65,-47.68 -0.79,-14.14 -8.58,-30.19 -18.28,-45.45 -41.96,-65.72 -151.71,-139.58 -229.09,-159.86 -126.45,241.74 -248.27,364.95 -497.11,482.7 -631.67,298.99 -1734.4,128.22 -2373.07,-120.76 -157.13,-61.27 -280.87,-139.81 -416.79,-195.39 -87.31,894.2 -220.53,1931.78 -77.38,2837.45 23.57,148.83 48.39,282.62 86.4,423.21 27.64,101.71 116.18,301.11 98.7,368.84 -113.93,-39.77 -0.45,-130 -144.05,-160.52 -42.3,581.72 202.7,675.86 187.7,813.99 -95.31,2.68 -47.26,-32.75 -143.25,-42.66 11.5,126.1 58.31,227.03 58.09,383.21 -0.23,326.4 -57.08,520.01 -198.19,798.51 -89,175.46 -330.28,532.71 -339.19,556.11 241.51,156.07 330.05,88.23 702.52,498.96l167.05 206.87c1.36,-3.01 6.32,5.57 9.7,8.02 73.21,-89.46 139.09,-197.4 210.83,-299.89 75.35,-107.61 134.57,-189.27 220.63,-287.3 314.94,-359.38 484.59,-342.33 563.1,-448.38 -22.45,-99.48 -66.67,-38.99 -104.46,-157.86 106.37,28.63 299.15,75.98 390.29,-11.47 -97.01,-75.86 -196.16,13.81 -310.42,-55.59 92.38,-223.91 1081.74,70.63 1218,-164.54 -32.82,-132.34 -154.65,-102.26 -284.25,-74.52 -312.12,66.84 -556.1,60.6 -848.14,-51.36 7.33,-79.98 79.86,-28.4 9.02,-72.74 -56.17,-35.09 -148.1,-55.37 -332.87,-177.79 -409.91,-271.71 -745.37,-746.83 -737.14,-1301.82 61.48,8.91 67.68,22.84 136.71,19.83 26.4,143.93 81.78,348.35 208.34,422.65 56.4,33.2 90.24,23.51 146.53,67.95l-41.06 129.9c147.2,-26.3 113.48,19.49 236.09,51.46l-52 57.71c-29.67,47.01 -16.13,3.34 -21.21,69.51 64.86,32.42 87.53,33.98 152.28,0.22 -18.39,123.1 16.58,164.09 47.49,270.93 23.01,79.54 33.16,73.19 210.82,144.37 337.38,135.02 879.72,176.23 1162.17,-16.71 74.79,-51.02 101.75,-136.8 127.69,-228.93 27.64,-98.14 83.59,-200.18 98.81,-258.89 -160.4,-91.23 -380.02,-72.3 -578.32,-72.3 28.54,-171.77 255.83,-147.49 371.22,-249.53 -182.05,-121.54 -535.57,-18.61 -794.78,-67.73l-137.73 -50.8c122.5,-70.74 664.84,-170.22 866.53,-170.89 102.53,-0.33 218.49,35.21 297.45,30.64 -6.88,-93.69 -50.08,-145.49 -131.07,-178.35 -145.06,-58.6 -152.17,-5.68 -252.56,30.07 -38.8,-105.71 -22.22,-232.71 -85.39,-304.12 -83.02,-31.86 -220.86,8.8 -324.64,-28.51 -93.06,-33.42 -119.9,-108.73 -105.24,-218.79 53.58,16.15 77.49,104.82 166.72,124.88 119.11,26.73 126.78,-55.59 163.22,-132.68 277.37,5.46 41.4,299.22 591.86,34.98 -8.24,-61.16 -74.56,-195.06 -100.17,-270.37 -141.56,-415.18 -277.71,-1104.75 121.37,-1419.45 184.2,-145.26 316.52,-117.86 573.02,-139.03 98.25,-198.62 129.05,-260.23 117.43,-542.4 -7.45,-178.35 -39.37,-419.87 -130.4,-531.49 -86.85,-29.3 -161.3,-4.68 -238.79,21.28zm-2637.82 6985.08c664.62,28.3 1211.69,-77.64 1766.22,-282.51 235.97,-87.11 484.81,-213.1 683,-331.97 99.37,-59.49 535.9,-338.43 581.81,-448.16 -64.29,-31.19 -112.23,-78.87 -181.6,-122.54 -505.23,-318.38 -1175.26,-357.59 -1716.13,-135.35 -530.5,217.9 -972.11,815 -1133.3,1320.53zm2202.97 -8155.89c36.66,49.8 121.94,98.03 168.53,133.01 60.68,45.56 102.98,84.67 154.87,133.12 796.48,743.71 625.36,1253.92 773.13,2056.66 187.47,1018.97 595.69,1653.17 194.69,2826.32 -101.18,296.1 -233.38,521.01 -347.76,787.93 -38.24,89.12 2.37,116.3 43.54,202.19l257.74 565.79c181.05,-177.34 380.48,-467.98 533.21,-731.56 887.73,-1532.07 715.26,-3449.03 -379.23,-4835.18 -196.73,-249.2 -386.91,-432.01 -629.31,-640.88 -118.1,-101.82 -591.63,-449.83 -769.41,-497.4zm127.13 5180.63c23.35,-24.5 109.87,-170.88 108.85,-214.33 -2.48,-103.71 -114.72,-111.4 -203.15,-95.36 -6.54,157.08 -34.74,125.77 -74.56,214.34 54.14,65.72 69.82,74.52 168.86,95.35zm420.29 -2420.15c-30.23,-132.56 -323.96,-80.43 -387.69,-30.19 134.57,38.43 253.68,10.7 387.69,30.19z"/>
  <path class="fil3" style="mask:url(#id0)" d="M421.36 5903.54c118.67,-334.09 197.29,-559.9 375.4,-841.63 173.14,-274.04 307.94,-500.29 491.58,-728.77 467.77,-581.84 696.42,-839.51 831.89,-1607.5 123.52,-699.81 297,-1320.86 658.52,-1778.71 368.74,-466.99 1100.59,-713.07 1694.36,-731.9 -771.77,-21.5 -1468.31,214.45 -2031.29,514.22 -1102.39,586.97 -1923.45,1693.72 -2173.98,2938.39 -115.62,574.04 -115.96,1172.25 4.4,1744.51 18.05,86 85.39,420.43 149.12,491.39zm6081.12 -5208.71c36.66,49.8 121.94,98.03 168.53,133.01 60.68,45.56 102.98,84.67 154.87,133.12 796.48,743.71 625.36,1253.92 773.13,2056.66 187.47,1018.97 595.69,1653.17 194.69,2826.32 -101.18,296.1 -233.38,521.01 -347.76,787.93 -38.24,89.12 2.37,116.3 43.54,202.19l257.74 565.79c181.05,-177.34 380.48,-467.98 533.21,-731.56 887.73,-1532.07 715.26,-3449.03 -379.23,-4835.18 -196.73,-249.2 -386.91,-432.01 -629.31,-640.88 -118.1,-101.82 -591.63,-449.83 -769.41,-497.4z"/>
 </g>
</svg>
