<?xml version="1.0" encoding="UTF-8"?>
<!DOCTYPE svg PUBLIC "-//W3C//DTD SVG 1.1//EN" "http://www.w3.org/Graphics/SVG/1.1/DTD/svg11.dtd">
<!-- Creator: CorelDRAW Standard 2021 (64-Bit Versión de evaluación) -->
<svg xmlns="http://www.w3.org/2000/svg" xml:space="preserve" width="32.5746mm" height="40.6398mm" version="1.1" style="shape-rendering:geometricPrecision; text-rendering:geometricPrecision; image-rendering:optimizeQuality; fill-rule:evenodd; clip-rule:evenodd"
viewBox="0 0 3257.46 4063.98"
 xmlns:xlink="http://www.w3.org/1999/xlink"
 xmlns:xodm="http://www.corel.com/coreldraw/odm/2003">
 <defs>
  <style type="text/css">
   <![CDATA[
    .fil3 {fill:black}
    .fil1 {fill:#0185B5}
    .fil2 {fill:#072449}
    .fil10 {fill:#293767}
    .fil11 {fill:#4C5172}
    .fil7 {fill:#98EDE5}
    .fil8 {fill:#9900CC}
    .fil6 {fill:#D8A826}
    .fil9 {fill:#E23F3B}
    .fil4 {fill:#F5C3EC}
    .fil5 {fill:#FAD135}
    .fil0 {fill:#FAFAFA}
   ]]>
  </style>
 </defs>
 <g id="Capa_x0020_1">
  <metadata id="CorelCorpID_0Corel-Layer"/>
  <path class="fil0" d="M-37.94 3214.36l0 625.35c26.72,17.95 117.88,134.41 134.18,160.5 21.09,33.75 22.14,52.9 31.01,69.42l68.64 0c7.9,-9.25 17.42,-12.91 25.47,-18.78 39.08,-28.53 73.64,-42.46 118.11,-58.13 63.72,-22.46 46.14,-12.64 117.94,-19.49 51.64,-4.92 37.4,-10.2 64.86,-21.54 25.47,-10.52 82.57,-49.93 104.78,-72.21 8.36,-8.38 12.95,-14.1 21.62,-22.38 41.24,-39.36 63.84,-82.3 90.19,-133.91 18.17,-35.59 31.3,-107.32 40.51,-139.47 21.33,-74.35 35.84,-162.84 84.22,-227.72 9.66,-12.95 19.04,-11.56 25.36,-22.19l-96.01 2.83c-0.51,0.07 -1.48,0.38 -1.99,0.47l-20.49 0.57c-13.61,-1.55 -29.78,-1.79 -45.21,-3.49 -16.33,-1.8 -25.94,-6.71 -36.65,-12.09 -17.37,-8.71 -13.1,-10.75 -34.39,-9.4 -33.3,2.12 -66.79,0.38 -98.45,-1.81 -62.28,-4.32 -57.53,-47.32 -162.18,-21.68 -13.45,3.3 -30.43,2.28 -41.27,6.84 -7.25,3.05 -5.84,4.12 -15.99,7.97 -21.77,8.24 -32.11,-0.77 -58.8,19.04 -12.08,8.96 -16.47,11.48 -34.18,16.71 49.91,-61.26 88.64,-56.9 155.82,-78.64 70.77,-22.9 125.99,26.51 194.45,26.33 39.46,-0.1 64.55,-4.05 101.32,8.65 38.79,13.4 55.43,17.78 101.77,14.93 108.9,-6.69 112.3,-13.94 175.12,33.91 6.28,4.79 3.6,3.93 12.15,6.54 8.16,-22.96 9.32,-19.17 14.47,-30.57 41.68,-92.18 39.64,-225.5 26.61,-321.55 -5.79,-42.66 1.41,-27.18 -11.86,-82.97 -6.29,-26.41 -6.38,-52.38 -14.47,-80.4 -10.57,-36.65 -5.78,-57.55 -26.9,-115.75 -7.33,-20.19 -13.49,-44.77 -19.01,-65.12 -6.58,-24.23 -15.08,-47.76 -21.7,-73.66 -7.83,-30.68 -39.59,-106.96 -53.54,-133.15 -18.17,-34.09 -45.89,-85.76 -73.54,-113.03 -11.62,-11.46 -41.38,-34.28 -55.03,-40.07 -33.48,-14.19 -40.59,-15.25 -79.56,-5.26 -16.26,4.17 -18.25,4.31 -33.04,11.16l-85.7 56.67c-16.47,11.41 -35.41,29.32 -49.16,42.38 -8.03,7.64 -17.32,12.81 -25.68,21.68l-75.9 87.14c-5.57,10.3 -2.47,5.58 -9.22,14.3 -15.61,20.19 -43.88,65.16 -53.78,89.05 -6.09,14.7 -11.13,20.47 -16.13,31.96 -4.2,9.62 -7.18,23.39 -12.02,35.18l-24.81 66.55c-4.53,9.79 -11.06,23.54 -14.84,32.7l-15.38 32c-31.99,66.21 -63.86,92.13 -94.97,139.03 -11.67,17.58 -19.51,18.6 -33.83,37.4l-5.92 7.73c-0.45,0.56 -1.04,1.37 -1.49,1.93l-24.65 29.6c-16.41,18.26 -64.24,87.62 -61.55,125.59 51.13,7.65 49.11,-6.86 106.56,15.58l-1.73 16.37c-18.58,7.22 -99.74,-20.21 -158.9,18.71 -10.76,7.08 -3.89,5.45 -15.24,11.69z"/>
  <path class="fil1" d="M2968.42 637.31c-7.72,13.27 2.2,26.76 -44.52,28.59 -1.84,0.07 -15.13,-0.32 -15.39,-0.29 -16.06,1.48 -11.67,20.84 -28.89,4.8 -7.59,-7.08 -32.99,-84.25 -35.31,-100.06 -10.76,-73.2 -27.43,-73.11 -35.01,-101.72 -5.01,-18.94 -8.32,-37.39 -13.78,-53.97 -12.58,-38.25 -2.54,-22.34 -6.37,-37.99 -3.96,-16.18 -3.04,-5.05 -5.78,-11.66 -11.38,-27.45 18.93,-18.11 38.87,-24.29l105.88 -29.94c31.51,-8.28 32.42,-5.13 37.65,21.8l73.91 198.59c17.96,1.37 26.69,0.6 43.73,2.9 39.75,5.34 88.62,-1.95 110.57,17.36 0.36,39.92 -66.95,52.58 -99.5,64.65 -51.74,19.19 -89.8,39.84 -126.06,21.23zm-776.25 -356.6c-6.07,-4.53 -0.18,-2.47 -8.81,-2.26 -0.29,0.01 -9.7,2.18 -10.48,2.37 -8.03,2.02 -15.36,3.66 -23.19,5.67 -19.54,5 -8.47,2.27 -22.07,10.4l-88.19 34.28c-12.9,4.42 -25.36,12.4 -37.16,16.98 -41.13,15.94 -39.63,13.53 -77.88,24.56 -6.49,1.86 -31.49,15.28 -25.81,-2.51 6.34,-19.86 129.54,-56.51 147.52,-63.43 47.3,-18.21 104.74,-48.98 148.68,-53.33l11.18 15c3.85,4.12 9.26,7.18 13.28,10.35 24.43,19.26 81.06,103.08 93.36,133.55 15.95,39.51 2.6,33.53 14.43,50.2 25.44,35.82 59.98,80.99 91.78,112.08 80.6,78.81 110.59,67.33 45.46,147.51 -38.45,47.33 -56.86,82.91 -117.08,-14.97 -8.42,-13.67 -9.99,-8.3 -21.09,-22.96 -6.13,-8.09 -13.89,-20 -19.62,-27.83 -9.2,-12.57 -7.44,-14.73 -17.38,-26.71 -15.94,-19.22 -26.05,-22.9 -42.12,-49.74 -18.02,-30.1 -33.57,-28.3 -65.2,-73.61 -0.41,-0.59 -0.99,-1.4 -1.41,-1.98 -0.42,-0.59 -1.06,-1.35 -1.49,-1.94l-5.91 -8c-2.46,-4.35 -3.79,-10.25 -5.18,-14.53 -9.02,10.38 -14.35,17.54 -28.82,22.04 2.33,25.53 10.7,29.77 22.05,48.53l23.64 40.94c22.68,51.13 58.21,72.65 93.68,140.72l34.5 60.25c4.57,10.21 15.75,37.04 15.63,46.98 -6.25,4.78 -13.21,5.14 -21.3,10.34 -10.11,6.49 -25.22,26.5 -55.81,35.79 -50.66,15.4 -39.66,7.84 -74.97,-44.54l-22.85 -31.71c-10.31,-12.08 -12.64,-24.96 -22.05,-38.94l-49.55 -75.6c-5.44,-9.48 -3.3,-11.94 -12.49,-22.13 -18.01,-19.99 -21.41,-35.36 -41.27,-66.94 -0.9,-1.44 -3.75,-6.27 -3.85,-6.42l-16.81 -20.43c-30,-36.11 -26.22,-28.29 -53.24,-72.72 -21.2,-34.88 -59.32,-78.7 -65.32,-119.22 12.79,0.61 14.35,4.06 28.75,2.4 35.06,-4.05 53.6,-4.54 61.92,-29.07 17.85,5.55 0.66,1.25 12.23,6.9 4.76,2.32 2.04,2.44 8.7,2.51 2.74,0.03 20.19,-4.55 24.18,-5.96 16.45,-5.83 108.43,-47.17 111.22,-65.63 0.22,-1.42 0.6,-1.89 1.13,-2.71 17.12,1.15 15.73,7.66 30.38,-2.22 12.73,-8.58 8.23,-6.85 24.7,-12.31zm387.7 -111.74c0.7,-18.89 -5.1,-44.43 29.04,-69.25 85.77,-62.35 165.21,-3.12 189.51,0.59 25.7,3.92 12.64,-3.87 29.9,-12.24 16.96,-8.23 30.09,-0.58 29.31,15.36 -0.29,5.88 -11.41,21.18 -16.88,28.06 -6.42,8.07 -15.56,15.97 -25.14,25.66 -53.99,54.56 -69.47,68.5 -154.99,86.32 -5.81,16.35 -3.31,22.21 -10.25,37.19 -5.38,11.61 -8.03,20.3 -12.73,31.12 -7.46,17.16 -7.85,17.09 -17.97,29.63 -21.12,26.17 -18.04,60.74 -50.82,85.06 -3.82,2.83 -27.55,19.54 -27.6,19.56 -14.66,6.04 -0.04,-0.7 -25.09,-12.62 0.92,-33.1 9.32,-20.87 11.09,-42.04 1.42,-16.94 -10.75,-51.76 -21.86,-66.2l-6 -7.92c-14.5,-27.58 -21.85,-99.31 7.11,-119.62 38.89,-27.28 48.16,-19.89 73.37,-28.66zm639.65 629.04l0 -137.74c-5.44,-3.26 -6.46,-3.68 -10.3,-7.56 -8.97,-9.08 -2.6,0.07 -6.22,-10.19 3.96,-12.13 2.85,-10.97 16.52,-13.35l0 -430.75c-17.63,-4.01 -15.75,-6.12 -37.4,-5.75 -72.11,1.21 -13.9,-65.58 -51.5,-133.38 -4.66,-8.4 -23.43,-33.32 -33.99,-40.12 -33.79,-21.76 -35.77,-9.82 -49.86,-21.36l-1218.12 0c-25.95,24.37 -47.14,31.48 -55.7,74.55 -11.87,59.76 21.72,92.58 12.86,110.94 -7.48,15.52 -89.74,11.87 -84.95,106.93 2.07,41.14 28.31,84.15 66.61,97.32 4.16,1.43 7.46,2.09 10.14,3.04 62.17,21.87 -97.74,62.12 -31.19,269.03 3.62,11.26 12.36,23.85 17.44,33.53 19.55,37.29 37.38,58.02 71.33,81.62 10.34,7.19 17.98,15.71 29.67,21.2 58.45,27.46 84.25,35.44 159.35,44.74 27.45,35.23 29.72,43.22 66.52,75.52 16.95,14.88 13.27,8.91 30.29,20.46 122.47,83.1 292.28,86.36 429.86,27.84 52.81,-22.47 16.97,-23.56 65.23,3.21 36.83,20.44 92.15,19.98 125.53,4.15 12.84,-6.09 19.43,-16.27 29.8,-21.02 15.52,-7.11 25.21,3.23 34.51,10.13 31.11,23.07 22.14,24.31 69.34,36.47 62.38,16.08 81.91,17.12 126.28,-3.1 29.6,-13.5 42.48,-27.24 56.12,-48.79 19.84,-31.36 33.45,-42.29 39.15,-89.59l3.24 -24.52c15.03,-13.36 45.41,-2.23 67.58,-3.8 37.54,-2.66 32.15,-17.6 51.86,-29.66z"/>
  <path class="fil2" d="M820.08 3550.47c0.68,-14.69 0.24,-7.87 4.52,-19.61 2.45,-6.73 3.8,-10.56 5.45,-18.48 3.06,-14.7 4.17,-22.37 9.38,-34.53 9.66,-22.56 28.71,-104.75 67.56,-115.38 23.55,-6.44 49.27,8.87 62.85,24.65 29.78,-2.48 25.4,-8.93 37.32,-19.75l74.8 33.65c8.08,3.99 8.04,4.64 18.58,8.48l75.12 29.95c20.01,5.96 61.83,28.95 92.46,39.93 42.8,15.35 143.64,54.31 177.89,83.69 40.96,35.11 63.87,95.38 59.41,150.78 -8.35,-4.8 -4.54,-2.58 -8.29,-8.44l-4.65 -9.23c-12.77,-23.82 -21.84,-33.92 -38.92,-52.73 -39.89,-43.95 -48.6,-45.19 -68.39,-25.11 8.72,7.26 18.54,16.02 28.4,24.44l28.9 25.74c0.51,0.52 1.15,1.29 1.63,1.83l36.32 63.35c-0.04,0.77 -13.22,38.74 -45.72,44.7 -10.22,-16.4 -12.2,-27.05 -27.13,-41.18l-15.6 -18.63c-6.36,-7.61 -11.44,-9.99 -21.91,-11.11l-9.07 9.26c2.74,14.72 19.03,25.02 30.55,39.89 8.97,11.58 33.89,63.26 -13.92,60.88 -9.16,-15.39 -8.47,-26.39 -35.09,-17.43 -4.58,21.99 11.15,16.72 8.44,44.17 -25.2,19.54 -77.47,-16.23 -109.36,-32.84l-97.34 -58.66c-18.86,-13.03 -43.48,-28.66 -64.46,-40.99l-259.73 -161.29zm601.5 -1245.95c59.45,-11.15 127.15,2.59 173.28,23.69 66.38,30.35 119.95,84.93 159.88,145.45 37.12,56.26 23.17,41.78 26.03,75.03 3.83,44.56 16.5,104.15 38.67,141.64 3.43,5.79 7.35,9.73 9.86,14.23 12.78,22.93 -1.27,156.75 -9.74,182.13 -24.29,72.74 -53.7,142.12 -106.56,199.05 -17.52,18.88 -61.11,55.86 -83.56,69.21 -24.86,14.78 -78.17,33.7 -110.93,38.71 -26.15,4 -74.64,4.24 -100.19,0.14 -9.76,-1.57 -29.34,-7.38 -40.78,-10.38 -53.79,-14.08 -115.52,-62.29 -152.12,-102.35 -22.38,-24.51 -26,-32.36 -43.94,-57.94 -48.86,-69.66 -62.99,-143.94 -77.52,-227.09 -5.59,-31.92 -0.56,-66.82 1.17,-97.23 5.41,-94.98 40.87,-184.41 95.89,-260.89 51.67,-71.84 129.78,-116.39 220.56,-133.4zm430.37 99.11c25.03,2.34 72.82,-3.65 92.66,-12.7 27.07,-12.35 38.57,-27.47 56.75,-48.35l58.87 56.32c13.53,18.07 38.15,45.72 46.52,65.55 13.09,30.98 31.43,44.43 45.84,69.47 6.88,11.96 8.48,27.59 14.69,43.19 5.25,13.22 10.85,22.14 15.91,38.2 28.6,90.87 77.31,286.52 64.33,380.59 -4.86,-12.56 -14.76,-27.97 -21.61,-39.91 -20.67,-36.08 -9.2,-20.72 -36.18,-58.62 -31.62,-44.44 -54.58,-52.25 -80.49,-75.68 -53.94,-48.78 -51.93,-28.07 -73.36,-48.83l-126.09 -124.86c-5.52,-7.39 -15.68,-32.07 -20.31,-41.34 -27.03,-54.08 -36.69,-141.36 -37.53,-203.03zm519.27 662.48c-13.67,6.28 -39.98,25.06 -49.61,25.17 -30.11,0.34 -30.77,-16.07 -40.3,-34.7 -12.91,-25.22 -12.3,-24.63 -5.32,-56.05 11.65,-52.47 -5.62,-147.48 -16.19,-193.31 -4.47,-19.38 -8.54,-44.57 -12.34,-63.55 -2.69,-13.42 -8.66,-45.77 -14.15,-60.15 -8.09,-21.2 -11.93,-35.5 -17.75,-56.05l-18.5 -56.82c-4.34,-19 -10.34,-16.14 -12.32,-22.07 -4.1,-12.27 0.18,5.2 0.19,-4.41 0.05,-26.58 -21.65,-41.23 -34.46,-62.21 -11.09,-18.16 -15.66,-29.33 -27.89,-46.99l-33.26 -41.49c-31.98,-49.67 -68.71,-59.99 -69.53,-76.4 30.71,1.67 69.18,5.83 94.9,20.64 9.95,5.72 0.31,0.99 11.43,5.97 3.33,1.5 4.67,1.72 9.46,4.1l114.7 85.1c25.68,24.78 52.72,58.15 70.82,88.5l4.68 9.02c5.24,8.64 17.39,21.82 23.6,34.04l15.88 28.52c26.2,38.82 46.37,85.03 54.38,131.64 5.8,33.72 15.8,64.71 19.02,96.59 5.67,56.19 38.45,176.09 58.06,230.7 26.29,73.23 31.72,173.43 28.54,251.39 -1.28,31.27 -11.23,63.87 -20.07,93.05 -10.89,35.99 -30.13,90.01 -52.84,120.04 -25.99,34.34 -52.51,70.22 -98.32,78.67 -42.61,7.87 -95.71,-23.01 -127.23,-46.03l-78.59 -67.37c-36.03,-32.17 -66.9,-66.61 -96.76,-103.58l-66.32 -82.71c-0.43,-0.55 -1.06,-1.33 -1.5,-1.89 -0.43,-0.57 -1.02,-1.39 -1.45,-1.96l-31.5 -43.29c-28.58,-33.66 -40.89,-75.38 -56.54,-116.71 -31.17,-82.33 6.62,-248.58 -4.95,-326.75 -9.67,-65.28 -12.81,-76.57 -42.6,-131.1l-18.77 -35.9c-0.25,-0.88 -0.42,-1.79 -0.65,-2.67 -8.54,-31.69 -16.89,-62.16 -15.99,-98.98 1.3,-53.07 6.5,-42.59 13.44,-75.63 1.8,-8.57 0.67,-14.42 3.69,-21.15 15.18,43.9 -15.13,131.62 92.66,261.74 19.65,23.72 75.83,74.39 102.48,94.32 15.84,11.86 30.75,17.17 47.22,30.79 7.84,6.49 16.05,12.17 22.74,18.05 8.8,7.75 11.99,11.32 22.29,18.51l79.77 96.54c10.74,15.19 9.57,23.56 18.71,38.81 11.3,18.87 23.9,30.02 31.69,49.61l28.07 50.42c26,35.31 71.73,17.83 99.3,-3.88 15.37,-12.09 4.42,-10.05 0.69,-16.65l-1.33 -6.05c-1.14,-5.81 3.13,0.18 -1.38,-5.43zm-673.66 -792.31c-1.67,-9.5 -0.41,-63.59 4.29,-82.63 5.07,2.92 46.34,40.31 50.18,47.98l27.2 70.36c5.07,12.12 9.01,25.38 13.77,37.01 22.61,55.25 9.98,45.49 2.37,75.07 -3.02,11.73 -4.02,32.28 -7.78,38.76l-16.87 -12.82c-7.27,-7.32 -5.5,-6.84 -10.2,-16.15 -3.54,-7.03 -7.34,-12.96 -12.74,-18.63 -42.14,-44.3 4.68,-20.37 0.86,-99.05 -5.13,-2.68 -2.63,-1.56 -8.22,-5.36l-29.66 -21.46c-0.62,-0.48 -1.5,-0.97 -2.15,-1.42 -8.41,-6.01 -7.91,6.12 -11.05,-11.66zm-650.02 191.24c-25.68,-29.18 -52.88,-61.57 -71.16,-95.36 -6.38,-11.81 -13.65,-24.41 -13.55,-37.7 18.65,-16.82 30.78,-20.02 47.95,-43.56 24.97,-34.21 16.28,-38.91 32.96,-71.81l2.42 -4.5c0.37,-0.71 0.88,-1.53 1.25,-2.25 4.24,-8.25 4.21,-7.85 6.66,-17.5l13.2 -117.87c-0.24,-8.46 -17.75,-54.97 -21.97,-68.76 -7.05,-23.06 -12.84,-50.58 -17.68,-74.33 -5.69,-27.9 -19.91,-134.09 -13.67,-152.17 7.97,15.98 7.01,134.9 67.28,248.1l26.67 54.88c5.82,6.84 13.71,9.97 20.8,19.9 10.68,14.95 8.38,24.13 33.36,44.76 11.99,9.91 32.48,34.24 59.88,55.55 22.25,17.31 23.42,19.12 49.49,31.8 21.15,10.28 32.02,16.04 57.62,20.23 23.23,3.8 61.85,6.19 82.69,-3.12l84.35 -48.25c0.69,-0.36 1.61,-0.75 2.3,-1.1 16.64,-8.41 33.65,-17.47 46.83,-30.62 57.46,-57.37 45.86,-45.48 103.94,-52.66 9.13,22.16 22.9,33.84 34.52,54.14 -14.41,25.27 -18.62,41.28 -12.19,70.22 1.28,5.79 0.03,1.02 1.16,11.02 7.5,66.19 67.95,70.21 33.51,111.76 -25.26,-14.61 -37.06,-32.29 -70.06,-48.24 -47.78,-23.08 -14.29,-13.01 -80.92,-34.59 -97.13,-31.45 -226.44,-1.23 -299.5,60.29l-45.04 39.7c-25.76,21.48 -69.89,84.44 -84.21,122.83 -4.09,10.98 -4.26,41.57 -57.22,-18.42l-21.67 -22.37zm626.15 -647.92c26.12,-11.9 2.29,9.12 34.76,-5.17 0.01,-6.16 0.45,-6.9 -0.85,-12.67l-1.17 -3.85c-19.16,-63.7 9.88,-85 -7.31,-104.02 -18.25,-20.2 -67.11,-49.62 -72.9,-79.79 15.23,5.73 101.67,68.62 108.57,94.17 6.79,25.16 10.07,93.21 16.09,116.86l35.37 45.98c24.04,26.76 23.52,32.62 50.98,64.53 24.49,28.47 29.87,46.84 43.52,88.8 12.69,38.98 82.59,273.62 102.4,293.39 -9.49,11.4 -17.61,21.58 -26.1,30.34 -32.55,33.55 -110.76,35.06 -125.33,23.95l-11.68 -32.81c-7.25,-22.89 -36.34,-116 -48.83,-126.97 -7.81,-6.86 -20.05,-9.46 -28.14,-16.29 -21.82,-18.42 -68.3,-76.16 -75.81,-101.1 -4.55,-15.1 26.07,-81.33 41.82,-87.3 4.08,-1.54 14.37,-2.13 19.85,-3.09 5.33,-0.93 8.48,-2.29 16.33,-3.88 25.79,-5.19 49.85,-5.29 64.01,-22.34l-10.57 -13.31c-26.15,-2.44 -47.19,4.67 -69.43,9.07 -41.99,8.31 -46.92,7.44 -67.21,45.23 -2.79,5.2 -4.7,8.81 -7.14,13.35l-26.81 65.73c-32.05,-14.47 -3.26,-28.22 -5.37,-106.68 -0.25,-9.43 4.37,-22.37 4.19,-32.67 -34.92,9.03 -24.85,75.59 -33.18,106.94 -2.19,8.22 -4.57,10.16 -6.67,18.52 -2.56,10.13 0.18,10.72 -3.08,18.58 -11.44,-1.23 -15.94,-7.3 -18.78,-17.64 -5.84,-21.21 3.49,-9.36 -10.06,-27.22 -9.65,-12.73 -17.45,-36.43 -18.71,-55.92 -2.16,-33.6 -3.28,-113.67 8.96,-140.57 5.13,-5.31 100.65,-29.57 128.28,-42.15zm-594.78 -363.44c11.56,4.74 14.73,11.08 28.68,18.13 64.99,32.85 109.79,43.18 182.49,51.21 21.09,2.33 68.83,3.73 88.71,0.36 29.4,-4.99 55.83,-5.91 84.69,-10.53 42.88,-6.88 140.35,-35.99 176.98,-57.22 4.4,-2.55 11.43,-6.65 15.77,-8.35 6.89,-2.7 11.53,-2.93 17.1,-4.92l25.52 187.5c-11.4,-7.15 -16.63,-4.49 -30.14,-16.62 -20.69,-18.57 -18.48,-20.02 -37.71,-29.7 -12.62,-6.35 -7.76,-8.65 -26.08,-10.15 -19.04,19.7 -12.32,34.36 -0.83,60.27 13.38,30.19 36.15,38.9 50.49,51.41 24.23,21.14 21.9,19.37 20.83,33.27 -1.65,21.4 -2.56,51.87 1.98,75.84 -36.08,-3.57 -78.93,18.11 -111.33,27.83 -8.56,2.57 -17.69,4.66 -27.36,7.35 -13.98,3.91 -12.99,1.62 -19.95,13.73 -16.51,28.73 -15.79,145.72 -7.41,185.21 7.44,35.12 12.63,30.19 22.11,45.79 10.74,17.67 -6.79,2.23 20.65,47.85 -9.7,8.79 -10.15,12.99 -19.76,21.53l-44.8 33.2c-10.58,6.98 -9.44,7.92 -22.5,14.73 -45.58,23.76 -38.38,20.39 -84.34,34.79 -17.65,5.53 -13.41,2.13 -29.98,1.18 -23.39,-1.35 -35.22,-4.74 -61.35,-15.93 -24.78,-10.61 -45.82,-28.25 -66.14,-42.72 -26.8,-19.08 -42.5,-42.68 -60.24,-62.28 -70.15,-77.53 -115.11,-233.27 -122.85,-341.08 -3.6,-50.18 9.79,-93.11 12.37,-139.82l79.97 29.52c43.57,16.33 53.14,33.89 72.78,15.59 -1.21,-19.28 -8.75,-20.84 -36.08,-31.74 -37.23,-14.86 -71.09,-29.84 -114.05,-34.48l21.78 -150.75zm24.01 -34.46c96.33,44.24 160.23,62.5 277.62,60.11 52.47,-1.06 138.01,-15 175.66,-33.47 43.49,-21.33 30.84,-5.82 108.35,-50.96 19.47,-11.33 11.33,-12.76 39.04,-13.41 25.09,63.9 13.26,11.95 33.44,94.87 8.06,33.16 12.38,71.83 19.16,106.6 3.49,17.88 8.75,34.82 12.28,52.63 3.11,15.78 3.92,35.34 7.23,53.16 6.19,33.27 5.46,85.13 5.85,121.67 -3.51,-3.93 -1.65,-0.35 -4.34,-6.3l-6.5 -46.35c-2.59,-17.81 -5.5,-33.52 -9.13,-47.97 -14.68,-58.43 -14.26,2.03 -31.69,-87.5 -6.3,-32.41 -11.06,-70.03 -15.78,-102.15 -5.94,-40.46 -5.63,-71.32 -18.86,-95.93 -12.91,-1 -8.28,-3.78 -15.28,5.9l-7.24 -8.05c-6.69,-4.51 -1.13,-2.85 -10.65,-3.56 -9.02,-0.67 -115.34,41.91 -130.97,46.78 -95.78,29.81 -208.73,40.9 -309.76,18.31l-16.23 -3.86c-0.82,-0.25 -1.7,-0.56 -2.5,-0.83l-20.66 -7.24c-18.06,-6.27 -88.8,-37.82 -103.28,-49.14 -13.28,-10.38 -14.56,-12.53 -28.99,2.08 0.42,17.04 8,-0.12 -2.16,36.05 -4.55,16.18 -3.44,27.23 -6.41,43.65 -2.97,16.37 -0.04,23.81 -4.36,39.98l-22.25 180.65c-0.12,10.37 3.01,28.92 -0.33,41.05 -5.65,-12.71 -3.41,-103.44 -1.61,-120.82l8.78 -69.41c7.17,-37.91 12.71,-132.36 23.1,-181.66l58.47 25.12zm-197.69 162.01l-1.63 25.5c-0.57,20.31 -5.88,30.5 -5.89,53.68 -0.01,19.36 -1.06,33.58 -2.19,51.96l0.11 15 1.29 32.74 0.38 14.36 4.48 27.87 4.35 27.45c4.54,19.7 6.31,45.93 8.28,69.94l1.81 19.55 4.93 83.14 -1.99 13.84c2.79,10.1 -1.13,25.61 -2.35,36.66 -1.43,12.87 -5.65,27.08 -13.98,36.66l-20.05 5.18 -36.75 7.03 -0.81 0.79 -67.12 26.2 -3.26 1.14c-8.39,11.17 -26.06,16.35 -39.68,25.32 -12.23,8.06 -26.19,18.93 -39.33,26.32 -0.26,4.56 3.66,3.32 -5.16,2.84 -6.6,11.02 -3.69,11.42 -18.28,14.83 -3.91,8.75 -3.77,7.3 -13.37,12.77l-11.75 12.35c-0.02,0.02 -7.02,7.67 -7.74,8.32 -4.51,4.08 -2.18,2.75 -8.41,5.37 -9,12.18 -15.89,16.64 -27.05,30.54 -32,39.85 -7.4,19.91 -49.85,52.15 -4.69,3.56 -3.49,2.49 -8.08,5.39 -13.42,8.45 -23.54,18.57 -35.63,23.51 -1.42,1.64 0.01,0.35 -4.36,4.35l-10.38 9.63c-8.44,7.98 -7.13,3.69 -14.18,13.7 -6.94,6.92 -1.95,3.46 -11.51,8.06l-14.16 15.07c-3.77,3.15 -6.71,6.28 -10.47,9.79l-15.12 18.3 -8.19 4.14 -36.23 44.68c-6.89,9.88 -14.24,20.54 -21.18,30.22 -4.72,6.58 -8.28,9.68 -10.71,13.12 -4.54,6.42 -5.05,10.32 -8.81,18.6 -6.5,3.64 5.52,-8.34 -3.44,3.4 -0.07,0.1 -2.33,4.31 -2.92,5.28l-10.38 14.91 -15.27 31.67c-1.74,6.33 -14.75,35.33 -17.81,40.83 -7.69,13.79 -12.38,30.83 -18.76,39.57l-2.23 6.65c-5.74,24.33 -26.98,83.58 -40.51,95.36l-0.91 5.75c-3.92,15.34 -18.58,35.28 -27.24,50.99l-44.17 68.1c-4.24,5.61 -12.96,14.58 -17.48,19.7 -6.17,6.99 -5.53,5.29 -10.14,10.26l-69.26 83.63c-2.61,3.41 -2.05,2.24 -4.38,5.81 -0.41,0.62 -0.92,1.48 -1.31,2.12 -13.94,22.76 -7.84,9.15 -17.8,22.76 -20.92,28.6 -36.55,65.71 -38.63,110.78 -13.53,8.69 -23.09,13.68 -40.51,20.3l0 37.2c11.35,-6.24 4.48,-4.61 15.24,-11.69 59.16,-38.92 140.32,-11.49 158.9,-18.71l1.73 -16.37c-57.45,-22.44 -55.43,-7.93 -106.56,-15.58 -2.69,-37.97 45.14,-107.33 61.55,-125.59l24.65 -29.6c0.45,-0.56 1.04,-1.37 1.49,-1.93l5.92 -7.73c14.32,-18.8 22.16,-19.82 33.83,-37.4 31.11,-46.9 62.98,-72.82 94.97,-139.03l15.38 -32c3.78,-9.16 10.31,-22.91 14.84,-32.7l24.81 -66.55c4.84,-11.79 7.82,-25.56 12.02,-35.18 5,-11.49 10.04,-17.26 16.13,-31.96 9.9,-23.89 38.17,-68.86 53.78,-89.05 6.75,-8.72 3.65,-4 9.22,-14.3l75.9 -87.14c8.36,-8.87 17.65,-14.04 25.68,-21.68 13.75,-13.06 32.69,-30.97 49.16,-42.38l85.7 -56.67c14.79,-6.85 16.78,-6.99 33.04,-11.16 38.97,-9.99 46.08,-8.93 79.56,5.26 13.65,5.79 43.41,28.61 55.03,40.07 27.65,27.27 55.37,78.94 73.54,113.03 13.95,26.19 45.71,102.47 53.54,133.15 6.62,25.9 15.12,49.43 21.7,73.66 5.52,20.35 11.68,44.93 19.01,65.12 21.12,58.2 16.33,79.1 26.9,115.75 8.09,28.02 8.18,53.99 14.47,80.4 13.27,55.79 6.07,40.31 11.86,82.97 13.03,96.05 15.07,229.37 -26.61,321.55 -5.15,11.4 -6.31,7.61 -14.47,30.57 -8.55,-2.61 -5.87,-1.75 -12.15,-6.54 -62.82,-47.85 -66.22,-40.6 -175.12,-33.91 -46.34,2.85 -62.98,-1.53 -101.77,-14.93 -36.77,-12.7 -61.86,-8.75 -101.32,-8.65 -68.46,0.18 -123.68,-49.23 -194.45,-26.33 -67.18,21.74 -105.91,17.38 -155.82,78.64 17.71,-5.23 22.1,-7.75 34.18,-16.71 26.69,-19.81 37.03,-10.8 58.8,-19.04 10.15,-3.85 8.74,-4.92 15.99,-7.97 10.84,-4.56 27.82,-3.54 41.27,-6.84 104.65,-25.64 99.9,17.36 162.18,21.68 31.66,2.19 65.15,3.93 98.45,1.81 21.29,-1.35 17.02,0.69 34.39,9.4 10.71,5.38 20.32,10.29 36.65,12.09 15.43,1.7 31.6,1.94 45.21,3.49l20.49 -0.57c0.51,-0.09 1.48,-0.4 1.99,-0.47l96.01 -2.83c-6.32,10.63 -15.7,9.24 -25.36,22.19 -48.38,64.88 -62.89,153.37 -84.22,227.72 -9.21,32.15 -22.34,103.88 -40.51,139.47 -26.35,51.61 -48.95,94.55 -90.19,133.91 -8.67,8.28 -13.26,14 -21.62,22.38 -22.21,22.28 -79.31,61.69 -104.78,72.21 -27.46,11.34 -13.22,16.62 -64.86,21.54 -71.8,6.85 -54.22,-2.97 -117.94,19.49 -44.47,15.67 -79.03,29.6 -118.11,58.13 -8.05,5.87 -17.57,9.53 -25.47,18.78l56.16 0 37.43 -25.74c3.7,-1.9 11.09,-3.58 15.32,-5.23 37.3,-30.52 114.88,-32.71 155.91,-37.2 19.37,-2.13 56,-15.19 72.59,-22.5 67.69,-29.79 111.74,-72.07 157.92,-126.81 15.58,-18.47 27.95,-31.07 41.05,-53.84 11.52,-20.01 23.01,-40.56 33.04,-61.15 5.47,-15.17 9.98,-20.81 15.34,-40.03l36.49 -122.14c4.2,3.9 1.59,2.15 4.21,5.34l140.29 93.72c9.23,6.11 9.85,10.6 16.6,14.51 27.03,10.29 65.09,38.9 87.42,51.22 10.54,5.8 18.4,10.47 27.96,16.27 10.79,6.54 15.9,12.41 25.68,18.11 50.08,29.19 159.44,100.96 210.19,102.94 49.58,1.93 33.87,-23.11 59.27,-30.23 15.92,-4.46 20.75,-4.18 31.09,-12.71 8.75,-7.21 9.1,-11.17 13.78,-20.01 10.96,-20.74 44.69,-6.62 61.61,-43.51 14.85,-32.37 35.33,-28.6 37.59,-53.8 8.15,-91.2 -31.83,-123.14 -38.53,-147.39 13.8,-1.39 32.19,-3.29 42.64,-8.7 -49.54,-0.47 -29.95,22.96 -69.12,-19.81 -21.48,-23.45 -68.67,-41.63 -98.75,-53.96 -6.81,-2.79 -7.69,-2.2 -14.62,-5.52l-36.49 -14.83c-32.06,-14.98 -112.44,-43.13 -130.69,-55.69 -10.3,-7.08 -0.19,-3.98 -11.67,-7.34 -40.53,-11.87 -27.93,-11.8 -62.78,-22.61 -10.47,-3.25 -18.33,-8.39 -28.13,-12.57 -22.2,-9.46 -43.76,-11.77 -59.6,-28.32 1.24,-20.9 31.94,-84.15 34.8,-159.47 3.17,-83.64 -5.8,-276.31 -31.97,-349.33l-18.08 -77.9c-6.93,-38.5 -21.05,-75.01 -31.35,-111.94 -2.45,-8.79 -6.75,-30.39 -9.88,-36.82 -2.7,-5.55 -5.13,-6.28 -8.13,-14.62 -2.18,-6.04 -2.28,-11.61 -5.44,-18.63 -4.49,-9.99 -3.44,-3.34 -8.91,-15.29 -2.14,-4.68 -3.88,-11.06 -5.1,-17.32 -11.24,-57.58 -33.91,-91.45 -53.59,-137.9 -10.51,-24.79 -32.07,-48.96 -50.26,-68.14l-9.56 -14.33c-6.21,-9.36 -16.53,-16.27 -24.47,-22.66 -9.62,-7.75 -19.8,-13.23 -28.79,-18.87 -8.72,-5.47 -20.27,-12.47 -31.36,-15.85 -18.79,-5.74 -78.29,-3.5 -83.64,-6.75 10.45,-14.49 18.48,-14.41 29.28,-26.63 11.36,-12.84 1.08,-2.8 15.2,-12.14 9.55,-6.3 5.34,-4.49 12.26,-11.63 14.05,-14.51 42.62,-29 62.21,-39.92l37.93 -16.37c8,-4.34 3.33,-5.83 18.08,-9.6l57.86 -14.75c19.95,-1.9 24.72,-2.95 35.46,-16.48 27.72,-34.94 26.69,-128.84 18.2,-181.23 -4.1,-25.31 -3.59,-72.75 -9.76,-96.72l-4.27 -22.29c-0.3,-8.83 -0.36,-13.59 -1.69,-22.17l-4.66 -100.1c1.54,-42.34 8.37,-95.68 16.85,-134.94 1.39,-6.44 3.89,-15.13 5.82,-21.5 15.15,-50.1 14.78,-88.54 35.69,-145.83 7.76,-21.24 40.19,-76.37 55.43,-86.45 15.18,-10.05 2.02,3.96 9.2,-10.48 9.54,-19.15 28.05,-32.08 44,-44.92l8.99 -8.25c21.37,-16.32 17.95,-11.17 54.26,-29.98 38.59,-19.99 124.23,-40.4 166.77,-41.94 50.39,-1.83 100.38,4.39 148.39,9.34 23.99,2.47 105.28,21.15 124.98,31.58 11.34,6 22.98,11.13 33.96,16.7 45.74,23.23 47,30.52 62.44,38.95 41.13,22.42 79.26,63.41 102.08,101.79 6,10.1 5.27,8.59 11.03,16.25 30.71,40.79 43.25,93.33 65.08,141.38l9.9 17.48c2.31,7.34 0.67,17.16 1.34,25.34l22.12 103.49 17 184.68c2.09,42.91 10.71,147.74 2.07,189.74 -1.35,6.55 -0.69,4.4 -2.93,8.16 -7.06,-12.69 -9.56,-30.18 -16.86,-45.37 -7.5,-15.62 -8.47,-27.68 -14.69,-43.24 -12.84,-32.09 -32.03,-43.94 -49.44,-69.26 -8.96,-13.03 -0.65,-8.68 -11.62,-17.89 -5.98,-5.02 -1.24,1.24 -9.62,-7.83 -13.73,-14.85 -12.23,-39.94 -10.92,-56.03 1.44,-17.88 2.05,-38.36 0.64,-56.71 -1.27,-16.56 -11.1,-31.9 -6.16,-44.25l-11.44 -1.06c25.11,-21.36 -2.27,-110.94 -8.27,-138.38l-29.14 -133.42c-1.17,-20.4 -14.5,-40.39 -21.64,-59.36 -4.61,-12.22 -8.68,-17.53 -23.42,-22.03 -13.76,-4.2 -22.99,-0.24 -32.87,3.59 -19.36,7.49 -34.94,24.24 -54.33,31.2l-54.7 26.59c-13.99,9.09 -14.47,7.59 -31.86,11.75 -14.7,3.52 -9.61,5.66 -30.34,10 -76.19,15.94 -150.82,20.67 -227.72,10.73 -70.61,-9.13 -130.99,-35.05 -191.55,-64.52 -25.98,-12.65 -30.18,-13.38 -66.47,-7.49 -2.98,21.61 -5.76,43.79 -9.48,67.11 -3.2,20.1 -3.8,42.59 -7.33,63.57 -2.29,13.64 -4.11,16.1 -5.52,32.26 -1.12,12.79 -2.22,21.01 -3.25,33.99 -3.3,41.33 -12.18,89.53 -12.59,132.26 -0.66,67.89 5.96,135.24 14.45,203.81l17.17 94.43c4.73,27.74 25.6,57.59 27.76,81.98 2,22.48 -1.15,48.63 -5.74,66.99 -7.62,30.52 -20.89,84.15 -35.99,109.29 -11.99,19.97 -65.01,65.11 -66.94,74.77 -3.4,16.96 21.09,51.06 30.68,66.32l19.83 31.4c4.85,11.18 12.2,16.69 20.33,27.16 26.75,34.5 65.03,68 101.16,95.68 -0.27,26.26 -13.26,54.03 -18.88,79 -13.99,62.13 -14.51,210.52 9.04,270.6 4.39,11.23 4.63,5.71 9.36,17.25 6.87,16.76 10.76,38.67 18.15,53.34l34.37 63.77c19.24,41.38 42.78,50.1 66.67,82.51l67.88 54.4c7.72,7.2 3.25,4.35 14.78,9.49 83.86,37.37 146.39,51.71 243.09,37.22 20.6,-3.09 85.85,-30.52 98.38,-39.92l51.99 -39.97c0.53,-0.49 1.22,-1.23 1.74,-1.72l6.5 -6.78c6.76,-6.1 19.78,-12.72 26.76,-20.68 7.96,-9.1 11.92,-18.62 22.12,-29.15l23.61 -24.27c1.64,75.57 -0.12,158.04 -2.97,231.26 -1.39,35.65 -0.83,77.82 -3.13,115.46 -1.94,31.64 -2.06,78.66 -6.12,111.85 -14.36,3.19 -7.04,0.65 -13.82,6.1l34.05 2.02c4.67,-5.7 6.95,-7.37 7.29,-17.03 8.32,-61.05 15.56,-200.95 12.28,-262.62 -0.84,-15.78 2.83,-25.76 2.54,-43.95l-5.17 -195.07c6.4,-22.29 24.15,-39.82 30.82,-64.73 3.35,-12.51 8.43,-25.36 10.99,-36.47 5.42,-23.51 -2.27,-21.26 11.8,-33.64 5.21,24.21 -7.53,143.62 -2.37,189.61 3.61,32.18 12.02,94.73 26.77,125.11 6.04,12.45 10.54,22.67 16.63,34.41 17.88,34.47 26.02,36.31 43.52,61.74 7.38,10.72 12.4,16.75 21.1,29.87 6.06,9.13 15.45,20.06 21.87,28.97 23.99,33.33 29.49,42.18 57.06,68.27l35.08 43.68c10.83,8.5 15.28,17.39 27.4,29.59 45.03,45.35 52.67,49.62 100.7,86.2 20.97,15.97 35.11,26.85 62.64,39.15 73.48,32.83 110.42,22.78 167.63,-24.84 9.88,-8.22 21.69,-18.21 29.23,-28.49 4.47,-6.08 5.53,-9.19 10.15,-16.59 4.48,-7.18 7.36,-10.56 11.12,-16.26 32.93,-49.93 48,-104.97 60.36,-166.05 4.89,-19.06 9.17,-57.53 10.67,-77.64 7.03,-94.42 -7.98,-147.39 -30.52,-230.79 -6.78,-25.09 -13.68,-46.64 -19.42,-69.48 -18.22,-72.48 -40.61,-136.26 -48.55,-213.26 -3.51,-19.15 -3.38,-34.75 -8.37,-51.41 -13.64,-45.53 -29.98,-85.26 -52.94,-127.15 -41.39,-75.52 -78.69,-113.63 -96.95,-144.44 -6.12,-3.27 0.29,1.36 -5.44,-4.39l-23.41 -23.89c-45.63,-42.76 -34.22,-34.19 -96.21,-76.73 -43.38,-29.76 -109.25,-49.03 -175.95,-49.97 -3.53,-5.12 -0.41,1.04 -4.04,-8.24l-5.91 -21.09c-38.54,-123.45 -35.39,-81.45 -34.98,-219.93 0.14,-48.53 1.04,-96.82 0.18,-146.02l-7.13 -135.29c-5.91,-16.55 -4.31,-41.59 -7.74,-59.26 -14.94,-76.97 -10.3,-71.65 -34.34,-166.18 -7.92,-31.19 -20.72,-65.79 -34.28,-98.21 -7.08,-16.92 -14.77,-29.1 -22.83,-44.98 -26.14,-51.48 -44.4,-74.02 -83.37,-113.26l-34.94 -32.89c-10.71,-9.94 -24.3,-17.89 -38.12,-26.21 -27.8,-16.72 -59.35,-32.49 -89.95,-42.24 -50.68,-16.15 -104.64,-32.9 -162.61,-37.22 -20.78,-1.54 -42.06,-2.28 -64.29,-3.92 -73.86,-5.44 -184.42,11.32 -247.46,50.81 -11.29,7.08 -7.69,6.45 -20.96,12.84 -24.35,11.74 -80.9,64.22 -88.63,78.01 -17.31,30.9 -10.17,9.5 -37.36,61.03 -31.27,59.25 -33.44,82.28 -50.44,145.98l-23.54 101.13z"/>
  <path class="fil3" d="M1536.94 3560.75c16.34,0.39 207.54,-31.71 214.63,-38.11 6.78,-5.45 -0.54,-2.91 13.82,-6.1 4.06,-33.19 4.18,-80.21 6.12,-111.85 2.3,-37.64 1.74,-79.81 3.13,-115.46 2.85,-73.22 4.61,-155.69 2.97,-231.26l-23.61 24.27c-10.2,10.53 -14.16,20.05 -22.12,29.15 -6.98,7.96 -20,14.58 -26.76,20.68l-6.5 6.78c-0.52,0.49 -1.21,1.23 -1.74,1.72l-51.99 39.97c-12.53,9.4 -77.78,36.83 -98.38,39.92 -96.7,14.49 -159.23,0.15 -243.09,-37.22 -11.53,-5.14 -7.06,-2.29 -14.78,-9.49l-67.88 -54.4c-23.89,-32.41 -47.43,-41.13 -66.67,-82.51l-34.37 -63.77c-7.39,-14.67 -11.28,-36.58 -18.15,-53.34 -4.73,-11.54 -4.97,-6.02 -9.36,-17.25 -23.55,-60.08 -23.03,-208.47 -9.04,-270.6 5.62,-24.97 18.61,-52.74 18.88,-79 -36.13,-27.68 -74.41,-61.18 -101.16,-95.68 -8.13,-10.47 -15.48,-15.98 -20.33,-27.16l-19.83 -31.4c-9.59,-15.26 -34.08,-49.36 -30.68,-66.32 1.93,-9.66 54.95,-54.8 66.94,-74.77 15.1,-25.14 28.37,-78.77 35.99,-109.29 4.59,-18.36 7.74,-44.51 5.74,-66.99 -2.16,-24.39 -23.03,-54.24 -27.76,-81.98l-17.17 -94.43c-8.49,-68.57 -15.11,-135.92 -14.45,-203.81 0.41,-42.73 9.29,-90.93 12.59,-132.26 1.03,-12.98 2.13,-21.2 3.25,-33.99 1.41,-16.16 3.23,-18.62 5.52,-32.26 3.53,-20.98 4.13,-43.47 7.33,-63.57 3.72,-23.32 6.5,-45.5 9.48,-67.11 36.29,-5.89 40.49,-5.16 66.47,7.49 60.56,29.47 120.94,55.39 191.55,64.52 76.9,9.94 151.53,5.21 227.72,-10.73 20.73,-4.34 15.64,-6.48 30.34,-10 17.39,-4.16 17.87,-2.66 31.86,-11.75l54.7 -26.59c19.39,-6.96 34.97,-23.71 54.33,-31.2 9.88,-3.83 19.11,-7.79 32.87,-3.59 14.74,4.5 18.81,9.81 23.42,22.03 7.14,18.97 20.47,38.96 21.64,59.36l29.14 133.42c6,27.44 33.38,117.02 8.27,138.38l11.44 1.06c-4.94,12.35 4.89,27.69 6.16,44.25 1.41,18.35 0.8,38.83 -0.64,56.71 -1.31,16.09 -2.81,41.18 10.92,56.03 8.38,9.07 3.64,2.81 9.62,7.83 10.97,9.21 2.66,4.86 11.62,17.89 17.41,25.32 36.6,37.17 49.44,69.26 6.22,15.56 7.19,27.62 14.69,43.24 7.3,15.19 9.8,32.68 16.86,45.37 2.24,-3.76 1.58,-1.61 2.93,-8.16 8.64,-42 0.02,-146.83 -2.07,-189.74l-17 -184.68 -22.12 -103.49c-0.67,-8.18 0.97,-18 -1.34,-25.34l-9.9 -17.48c-21.83,-48.05 -34.37,-100.59 -65.08,-141.38 -5.76,-7.66 -5.03,-6.15 -11.03,-16.25 -22.82,-38.38 -60.95,-79.37 -102.08,-101.79 -15.44,-8.43 -16.7,-15.72 -62.44,-38.95 -10.98,-5.57 -22.62,-10.7 -33.96,-16.7 -19.7,-10.43 -100.99,-29.11 -124.98,-31.58 -48.01,-4.95 -98,-11.17 -148.39,-9.34 -42.54,1.54 -128.18,21.95 -166.77,41.94 -36.31,18.81 -32.89,13.66 -54.26,29.98l-8.99 8.25c-15.95,12.84 -34.46,25.77 -44,44.92 -7.18,14.44 5.98,0.43 -9.2,10.48 -15.24,10.08 -47.67,65.21 -55.43,86.45 -20.91,57.29 -20.54,95.73 -35.69,145.83 -1.93,6.37 -4.43,15.06 -5.82,21.5 -8.48,39.26 -15.31,92.6 -16.85,134.94l4.66 100.1c1.33,8.58 1.39,13.34 1.69,22.17l4.27 22.29c6.17,23.97 5.66,71.41 9.76,96.72 8.49,52.39 9.52,146.29 -18.2,181.23 -10.74,13.53 -15.51,14.58 -35.46,16.48l-57.86 14.75c-14.75,3.77 -10.08,5.26 -18.08,9.6l-37.93 16.37c-19.59,10.92 -48.16,25.41 -62.21,39.92 -6.92,7.14 -2.71,5.33 -12.26,11.63 -14.12,9.34 -3.84,-0.7 -15.2,12.14 -10.8,12.22 -18.83,12.14 -29.28,26.63 5.35,3.25 64.85,1.01 83.64,6.75 11.09,3.38 22.64,10.38 31.36,15.85 8.99,5.64 19.17,11.12 28.79,18.87 7.94,6.39 18.26,13.3 24.47,22.66l9.56 14.33c18.19,19.18 39.75,43.35 50.26,68.14 19.68,46.45 42.35,80.32 53.59,137.9 1.22,6.26 2.96,12.64 5.1,17.32 5.47,11.95 4.42,5.3 8.91,15.29 3.16,7.02 3.26,12.59 5.44,18.63 3,8.34 5.43,9.07 8.13,14.62 3.13,6.43 7.43,28.03 9.88,36.82 10.3,36.93 24.42,73.44 31.35,111.94l18.08 77.9c26.17,73.02 35.14,265.69 31.97,349.33 -2.86,75.32 -33.56,138.57 -34.8,159.47 15.84,16.55 37.4,18.86 59.6,28.32 9.8,4.18 17.66,9.32 28.13,12.57 34.85,10.81 22.25,10.74 62.78,22.61 11.48,3.36 1.37,0.26 11.67,7.34 18.25,12.56 98.63,40.71 130.69,55.69l36.49 14.83c6.93,3.32 7.81,2.73 14.62,5.52 30.08,12.33 77.27,30.51 98.75,53.96 39.17,42.77 19.58,19.34 69.12,19.81z"/>
  <path class="fil0" d="M2371.22 3066.11c4.51,5.61 0.24,-0.38 1.38,5.43l1.33 6.05c3.73,6.6 14.68,4.56 -0.69,16.65 -27.57,21.71 -73.3,39.19 -99.3,3.88l-28.07 -50.42c-7.79,-19.59 -20.39,-30.74 -31.69,-49.61 -9.14,-15.25 -7.97,-23.62 -18.71,-38.81l-79.77 -96.54c-10.3,-7.19 -13.49,-10.76 -22.29,-18.51 -6.69,-5.88 -14.9,-11.56 -22.74,-18.05 -16.47,-13.62 -31.38,-18.93 -47.22,-30.79 -26.65,-19.93 -82.83,-70.6 -102.48,-94.32 -107.79,-130.12 -77.48,-217.84 -92.66,-261.74 -3.02,6.73 -1.89,12.58 -3.69,21.15 -6.94,33.04 -12.14,22.56 -13.44,75.63 -0.9,36.82 7.45,67.29 15.99,98.98 0.23,0.88 0.4,1.79 0.65,2.67l18.77 35.9c29.79,54.53 32.93,65.82 42.6,131.1 11.57,78.17 -26.22,244.42 4.95,326.75 15.65,41.33 27.96,83.05 56.54,116.71l31.5 43.29c0.43,0.57 1.02,1.39 1.45,1.96 0.44,0.56 1.07,1.34 1.5,1.89l66.32 82.71c29.86,36.97 60.73,71.41 96.76,103.58l78.59 67.37c31.52,23.02 84.62,53.9 127.23,46.03 45.81,-8.45 72.33,-44.33 98.32,-78.67 22.71,-30.03 41.95,-84.05 52.84,-120.04 8.84,-29.18 18.79,-61.78 20.07,-93.05 3.18,-77.96 -2.25,-178.16 -28.54,-251.39 -19.61,-54.61 -52.39,-174.51 -58.06,-230.7 -3.22,-31.88 -13.22,-62.87 -19.02,-96.59 -8.01,-46.61 -28.18,-92.82 -54.38,-131.64l-15.88 -28.52c-6.21,-12.22 -18.36,-25.4 -23.6,-34.04l-4.68 -9.02c-18.1,-30.35 -45.14,-63.72 -70.82,-88.5l-114.7 -85.1c-4.79,-2.38 -6.13,-2.6 -9.46,-4.1 -11.12,-4.98 -1.48,-0.25 -11.43,-5.97 -25.72,-14.81 -64.19,-18.97 -94.9,-20.64 0.82,16.41 37.55,26.73 69.53,76.4l33.26 41.49c12.23,17.66 16.8,28.83 27.89,46.99 12.81,20.98 34.51,35.63 34.46,62.21 -0.01,9.61 -4.29,-7.86 -0.19,4.41 1.98,5.93 7.98,3.07 12.32,22.07l18.5 56.82c5.82,20.55 9.66,34.85 17.75,56.05 5.49,14.38 11.46,46.73 14.15,60.15 3.8,18.98 7.87,44.17 12.34,63.55 10.57,45.83 27.84,140.84 16.19,193.31 -6.98,31.42 -7.59,30.83 5.32,56.05 9.53,18.63 10.19,35.04 40.3,34.7 9.63,-0.11 35.94,-18.89 49.61,-25.17z"/>
  <path class="fil4" d="M1432.79 2072.62c-16.5,21.29 -95.56,29.68 -127.13,27.58 -116.37,-7.72 -129.88,-71.11 -23.28,-72.99 23.88,-0.42 12.09,5.64 27.88,9.19 26.16,5.89 13.23,-25.19 91.08,0.17 13.9,4.53 47.83,14.92 31.45,36.05zm151.07 -286.9c-18.64,10.11 -105.54,12.48 -135.73,13.17 -15.33,0.36 -54.62,8.83 -58.54,-7.1 -3.01,-12.23 -1.07,2.77 4.48,-11.69 3.16,-8.23 1.15,-5.41 3.45,-13.78 16.1,-58.56 119.96,-90.5 168.35,-29.92 6.89,8.62 8.64,14.59 9.72,25.11 2.1,20.25 5.6,5.31 8.27,24.21zm-447.91 -82.65c71,-3.46 96.57,52.95 108.24,59.73 -0.2,-13.56 0.73,-27.72 1.87,-40.82 1.57,-18.04 -0.49,-16.45 6.74,-25.97 6.43,1.12 13.02,2.69 18.56,5 -0.22,42.6 -6.53,79.8 -8.34,118.89l-1.22 57.44c-0.41,6.17 -2.64,18.57 -4.13,27.23 -0.35,2.04 -2.49,14.67 -2.49,14.75 -0.01,0.85 0.07,1.93 0.12,2.67l2.29 7.71c37.5,12.84 73.64,-12.7 97.52,-6.57 4,43.75 -87.03,40.48 -115.63,24.21 -21.89,-12.45 -7.02,-39.94 -5.28,-66.23 1.55,-23.58 5.15,-56.56 4.6,-79.82 -26.51,0.75 -167.73,-4.71 -183.85,-15.27 0.29,-9.89 4.86,-10.66 6.9,-16.15 4.41,-11.86 -0.8,1.78 0.95,-13.6 3.06,-26.73 40.52,-51.62 73.15,-53.2zm456.26 -32.42c-23.98,12.06 -82.77,-6.81 -121.93,-1.3 -19.06,2.69 -38.55,9.91 -53.52,17.06 -9.47,4.52 -45.4,27.57 -38.81,-0.59 3.11,-13.27 25.46,-24.39 41.06,-30.83 20,-8.26 35.97,-10.93 59.67,-12.61 20.22,-1.43 50.35,0.91 68.6,3.16 26.2,3.23 44.92,7.1 44.93,25.11zm-513.3 -216.97l-21.78 150.75c42.96,4.64 76.82,19.62 114.05,34.48 27.33,10.9 34.87,12.46 36.08,31.74 -19.64,18.3 -29.21,0.74 -72.78,-15.59l-79.97 -29.52c-2.58,46.71 -15.97,89.64 -12.37,139.82 7.74,107.81 52.7,263.55 122.85,341.08 17.74,19.6 33.44,43.2 60.24,62.28 20.32,14.47 41.36,32.11 66.14,42.72 26.13,11.19 37.96,14.58 61.35,15.93 16.57,0.95 12.33,4.35 29.98,-1.18 45.96,-14.4 38.76,-11.03 84.34,-34.79 13.06,-6.81 11.92,-7.75 22.5,-14.73l44.8 -33.2c9.61,-8.54 10.06,-12.74 19.76,-21.53 -27.44,-45.62 -9.91,-30.18 -20.65,-47.85 -9.48,-15.6 -14.67,-10.67 -22.11,-45.79 -8.38,-39.49 -9.1,-156.48 7.41,-185.21 6.96,-12.11 5.97,-9.82 19.95,-13.73 9.67,-2.69 18.8,-4.78 27.36,-7.35 32.4,-9.72 75.25,-31.4 111.33,-27.83 -4.54,-23.97 -3.63,-54.44 -1.98,-75.84 1.07,-13.9 3.4,-12.13 -20.83,-33.27 -14.34,-12.51 -37.11,-21.22 -50.49,-51.41 -11.49,-25.91 -18.21,-40.57 0.83,-60.27 18.32,1.5 13.46,3.8 26.08,10.15 19.23,9.68 17.02,11.13 37.71,29.7 13.51,12.13 18.74,9.47 30.14,16.62l-25.52 -187.5c-5.57,1.99 -10.21,2.22 -17.1,4.92 -4.34,1.7 -11.37,5.8 -15.77,8.35 -36.63,21.23 -134.1,50.34 -176.98,57.22 -28.86,4.62 -55.29,5.54 -84.69,10.53 -19.88,3.37 -67.62,1.97 -88.71,-0.36 -72.7,-8.03 -117.5,-18.36 -182.49,-51.21 -13.95,-7.05 -17.12,-13.39 -28.68,-18.13z"/>
  <path class="fil5" d="M1451.67 2485.16l9.84 6.93c4.59,1.94 10.07,2.82 17.3,3.6 3.64,-3.83 5.36,-9.77 12.01,-12.15 10.44,-3.74 13.17,2.22 23.16,2.79 4.31,0.24 4.4,-0.67 10.36,0.93l18.26 8.42c0.07,7.56 -1.45,15.75 0.59,22.58 2.54,8.48 3.97,4.56 9.58,14.26l-8.94 7c-5.34,0.62 -5.78,-3.68 -11.75,-0.22l17.99 32.99c21.98,-1.96 9.4,-4.93 17.67,-5.57 9.01,-0.71 -2.1,-0.95 5.28,1.16l35.03 2.85c20.86,-3.04 3.34,-0.77 16.67,-5.68 -8.21,-5.81 -2.96,8.47 -2.57,10.86l8.21 -0.9c9.25,-1.87 17.89,-5.63 19.58,31.6 0.03,0.68 -0.52,4.31 -0.4,5.06 1.87,12.3 3.28,3.35 5.92,22.09l4.38 12.49 -10.69 12.08 3.5 19.23c1.38,4.97 4,3.76 0.37,11.84 -5.25,11.65 -10.38,3.15 -14.34,17.18 -5.27,18.7 3.97,7.73 5.72,26.13l-8.14 12.13c5.92,3.87 2.61,0.4 4.81,3.65l3.31 16.03c0.13,0.47 0.45,1.42 0.59,1.88l2.77 7.78c0.22,0.52 2.82,5.42 3.14,6.04 -6.75,17.78 7.67,-12.75 -4.18,4.94 -5.23,7.81 -0.49,-4.83 -3.04,5.33 -0.22,0.86 -0.39,6.31 -0.19,7.35 2.81,14.82 7.45,12.08 11.88,17.44l11.43 9.05c-4.09,8.04 -8.13,17.01 -9.56,27.15 0.72,0.4 2.03,-0.11 2.33,0.8l4.25 1.32c5.82,1.52 -3.1,-4.43 6.12,1.27 -16.88,9.88 -12.82,-2.93 -29.35,5.97 -4.85,16.43 -3.16,1.9 3.97,14.39 -0.67,0.43 -1.8,0.19 -2.06,1.2 -1.13,4.23 -0.6,-0.39 -3.87,2.74 -14.1,13.53 -18.14,34.3 -17.52,53.74l-15.04 11.9c-0.4,0.42 -1.13,1.19 -1.48,1.63 -0.32,0.43 -0.92,1.28 -1.2,1.72l-2.68 7.41c-1.23,3.66 -1.16,3.36 -2.02,5.66l-34.87 37.6c-0.16,0.58 0.04,2.2 -0.16,3.32 -6.91,-6.29 -33.66,-9.41 -42.65,-9.44 3.72,8.44 2.46,2.94 5.49,7.18 7.99,11.19 -8.97,-8.44 -44.44,0.06l-20.36 -2.4c-19.45,-2.72 -3.2,4.55 -24.55,-10.21 -0.54,-0.37 -1.56,-1.09 -2.43,-1.5l-0.56 12.73c0.05,0.14 0.48,0.85 0.55,0.98 0.06,0.12 0.53,0.79 0.6,0.9 4.16,6.59 5.6,-3.14 2.2,2.88 -3.02,3.07 -23.77,-2.25 -29.83,-4.08 -9.38,-2.85 -19.24,-1.47 -28.41,-5.8l-16.66 -15.06c-6.75,-8.43 -0.61,-10.99 -5.86,-24.34 -4.85,-12.33 -1.97,-8.39 -11.41,-16.09 1.92,-5.95 -0.69,1.24 3.1,-3.93 6.58,-8.96 -0.31,5.2 7.14,-10.3 -1.11,0.23 -6.04,1.8 -6.8,1.89 -24.3,2.58 7.71,3.75 -7.29,0.21 -3.1,-0.73 1.85,-3.37 -11.47,-6.87 6.21,-4.87 9.62,-2.94 4.2,-13.98 -6.39,-13 0.8,-2.8 -10.94,-6 4.02,-11.57 0.82,-14.11 -0.68,-27.19 -9.37,7.06 -6.31,6.3 -22.47,5.59l-4.13 -24.41c1.27,-11.26 -11.52,-26.39 -18.21,-35.28 -7.36,-9.77 -3.14,-11.56 2.68,-14.88l4.7 -1.98c-3.31,-1.7 -4.05,-1.08 -6.77,-2.99l-13.83 -40.69c-9.9,-15.66 1.35,8.13 -5.13,-4.87l19.95 -9.39c-7.9,-5.31 -20.74,-2.19 -25.3,0.7 -0.71,-19.82 2.81,-21.6 -9.62,-30.89 8.97,5.61 15.22,-9.25 15.85,-13.94 1.62,-12.09 -0.64,-2.56 -0.49,-5.42 0.62,-12.29 -3.84,13.04 0.94,-4.57l1.33 -10.87c1.97,31.07 -0.85,11.36 8.83,20.19 -0.22,-9.1 -2.45,-20.09 4.17,-26.71l9.35 -6.53c-5.62,-4.79 9.23,-8.7 -10.51,-4.6 14.31,-0.87 10.85,-0.44 14.88,-13.28 18.19,4.92 11.35,0.03 32.77,-0.77 -5.99,-17.76 -0.98,-3.43 -7.05,-13.11 7.35,3.3 10.14,-1.87 11.01,-2.6l7.6 -5.58c12.65,-8.98 16.19,-21.43 31.85,-27.58 -2.63,-6.07 -2.34,-4.23 -4.4,-7.23 -14.4,-20.95 6.67,14.36 -4.3,-5.84 19.56,-6.69 11.57,-26.26 12.76,-39.02 3.51,-37.75 19.85,-24.26 22,-46.01 0.7,0.23 1.51,0.52 1.71,1.41 0.19,0.85 1.37,1.17 1.63,1.35l10.74 2.51c14.48,-0.95 12.29,3.44 22.17,-9.19 4.12,10.4 3.35,8.13 11.13,13.68 5.75,-12.95 -1.56,-5.72 8.04,-14.75 6.91,-6.51 -2.19,-3.83 5.21,-9.08zm-10.67 -116.77c-25.14,2.87 -44.08,11.69 -66.32,18.83l-53.08 32.06c-32.15,25.94 -54.84,59.16 -78.64,91.36 -40.98,55.41 -71.99,193.62 -60.81,274.2 4.29,30.94 2.48,46.24 9.84,74.52l21.51 63.69c9.24,20.26 15.33,37.16 28.37,56.65 9.69,14.46 23.1,37.36 34.92,50.12 19.56,21.13 9.88,13.52 31.1,29.95l35.64 28.64c30.71,21.13 54.44,28.53 94.53,35.24 26.34,4.4 41.96,4.22 71.59,-0.33 80.08,-12.28 160.14,-70.66 197.87,-141.35 21.56,-40.38 38.22,-71.9 49.34,-120.77 13.72,-60.33 19.49,-77.96 12.63,-155.39 -2.36,-26.67 -5.37,-46.14 -11.08,-73.12 -3.92,-18.49 -1.84,-15.68 -8.9,-31.76 -14.3,-32.55 -20.04,-56.45 -39.88,-88.97 -5.91,-9.69 -11.19,-13.62 -17.95,-22.75 -63.8,-86.26 -137.75,-133.72 -250.68,-120.82z"/>
  <path class="fil4" d="M1193.92 3709.97l2.26 -7.5c16.06,-1.22 58.21,24.07 74.25,33.13 14.39,8.14 11.28,4.99 16.09,19.81 -11.36,9.99 -10.87,12.66 -26.84,4.14 -11.87,-6.34 -15.05,-8.55 -26.96,-14.04 -10.07,-4.65 -33.39,-20.99 -38.23,-31.46l-0.57 -4.08zm34.5 -90.74c17.2,-2.12 8.99,-1 24.88,7.36l70.77 38.14c12.4,7.2 20.85,13.7 15.42,28.26 -15.58,6.22 -31.11,-11.29 -62.15,-25.95 -19.37,-9.14 -49.32,-25.08 -48.92,-47.81zm40.83 -51.79c0.56,-16.36 4.51,-31.32 16.37,-43.09l14.58 4.73c3.22,18.52 1.31,39.62 -14.8,50.89 -6.63,-2.02 -4.36,-0.68 -8.74,-3.98 -5.82,-4.4 -3.37,-3.1 -7.41,-8.55zm-449.17 -16.97l259.73 161.29c20.98,12.33 45.6,27.96 64.46,40.99l97.34 58.66c31.89,16.61 84.16,52.38 109.36,32.84 2.71,-27.45 -13.02,-22.18 -8.44,-44.17 26.62,-8.96 25.93,2.04 35.09,17.43 47.81,2.38 22.89,-49.3 13.92,-60.88 -11.52,-14.87 -27.81,-25.17 -30.55,-39.89l9.07 -9.26c10.47,1.12 15.55,3.5 21.91,11.11l15.6 18.63c14.93,14.13 16.91,24.78 27.13,41.18 32.5,-5.96 45.68,-43.93 45.72,-44.7l-36.32 -63.35c-0.48,-0.54 -1.12,-1.31 -1.63,-1.83l-28.9 -25.74c-9.86,-8.42 -19.68,-17.18 -28.4,-24.44 19.79,-20.08 28.5,-18.84 68.39,25.11 17.08,18.81 26.15,28.91 38.92,52.73l4.65 9.23c3.75,5.86 -0.06,3.64 8.29,8.44 4.46,-55.4 -18.45,-115.67 -59.41,-150.78 -34.25,-29.38 -135.09,-68.34 -177.89,-83.69 -30.63,-10.98 -72.45,-33.97 -92.46,-39.93l-75.12 -29.95c-10.54,-3.84 -10.5,-4.49 -18.58,-8.48l-74.8 -33.65c-11.92,10.82 -7.54,17.27 -37.32,19.75 -13.58,-15.78 -39.3,-31.09 -62.85,-24.65 -38.85,10.63 -57.9,92.82 -67.56,115.38 -5.21,12.16 -6.32,19.83 -9.38,34.53 -1.65,7.92 -3,11.75 -5.45,18.48 -4.28,11.74 -3.84,4.92 -4.52,19.61z"/>
  <path class="fil6" d="M1552.77 2532.52c-5.61,-9.7 -7.04,-5.78 -9.58,-14.26 -2.04,-6.83 -0.52,-15.02 -0.59,-22.58l-18.26 -8.42c-5.96,-1.6 -6.05,-0.69 -10.36,-0.93 -9.99,-0.57 -12.72,-6.53 -23.16,-2.79 -6.65,2.38 -8.37,8.32 -12.01,12.15 -7.23,-0.78 -12.71,-1.66 -17.3,-3.6l-9.84 -6.93c-7.4,5.25 1.7,2.57 -5.21,9.08 -9.6,9.03 -2.29,1.8 -8.04,14.75 -7.78,-5.55 -7.01,-3.28 -11.13,-13.68 -9.88,12.63 -7.69,8.24 -22.17,9.19l-10.74 -2.51c-0.26,-0.18 -1.44,-0.5 -1.63,-1.35 -0.2,-0.89 -1.01,-1.18 -1.71,-1.41 -2.15,21.75 -18.49,8.26 -22,46.01 -1.19,12.76 6.8,32.33 -12.76,39.02 10.97,20.2 -10.1,-15.11 4.3,5.84 2.06,3 1.77,1.16 4.4,7.23 -15.66,6.15 -19.2,18.6 -31.85,27.58l-7.6 5.58c-0.87,0.73 -3.66,5.9 -11.01,2.6 6.07,9.68 1.06,-4.65 7.05,13.11 -21.42,0.8 -14.58,5.69 -32.77,0.77 -4.03,12.84 -0.57,12.41 -14.88,13.28 19.74,-4.1 4.89,-0.19 10.51,4.6l-9.35 6.53c-6.62,6.62 -4.39,17.61 -4.17,26.71 -9.68,-8.83 -6.86,10.88 -8.83,-20.19l-1.33 10.87c-4.78,17.61 -0.32,-7.72 -0.94,4.57 -0.15,2.86 2.11,-6.67 0.49,5.42 -0.63,4.69 -6.88,19.55 -15.85,13.94 12.43,9.29 8.91,11.07 9.62,30.89 4.56,-2.89 17.4,-6.01 25.3,-0.7l-19.95 9.39c6.48,13 -4.77,-10.79 5.13,4.87l13.83 40.69c2.72,1.91 3.46,1.29 6.77,2.99l-4.7 1.98c-5.82,3.32 -10.04,5.11 -2.68,14.88 6.69,8.89 19.48,24.02 18.21,35.28l4.13 24.41c16.16,0.71 13.1,1.47 22.47,-5.59 1.5,13.08 4.7,15.62 0.68,27.19 11.74,3.2 4.55,-7 10.94,6 5.42,11.04 2.01,9.11 -4.2,13.98 13.32,3.5 8.37,6.14 11.47,6.87 15,3.54 -17.01,2.37 7.29,-0.21 0.76,-0.09 5.69,-1.66 6.8,-1.89 -7.45,15.5 -0.56,1.34 -7.14,10.3 -3.79,5.17 -1.18,-2.02 -3.1,3.93 9.44,7.7 6.56,3.76 11.41,16.09 5.25,13.35 -0.89,15.91 5.86,24.34l16.66 15.06c9.17,4.33 19.03,2.95 28.41,5.8 6.06,1.83 26.81,7.15 29.83,4.08 3.4,-6.02 1.96,3.71 -2.2,-2.88 -0.07,-0.11 -0.54,-0.78 -0.6,-0.9 -0.07,-0.13 -0.5,-0.84 -0.55,-0.98l0.56 -12.73c0.87,0.41 1.89,1.13 2.43,1.5 21.35,14.76 5.1,7.49 24.55,10.21l20.36 2.4c35.47,-8.5 52.43,11.13 44.44,-0.06 -3.03,-4.24 -1.77,1.26 -5.49,-7.18 8.99,0.03 35.74,3.15 42.65,9.44 0.2,-1.12 0,-2.74 0.16,-3.32l34.87 -37.6c0.86,-2.3 0.79,-2 2.02,-5.66l2.68 -7.41c0.28,-0.44 0.88,-1.29 1.2,-1.72 0.35,-0.44 1.08,-1.21 1.48,-1.63l15.04 -11.9c-0.62,-19.44 3.42,-40.21 17.52,-53.74 3.27,-3.13 2.74,1.49 3.87,-2.74 0.26,-1.01 1.39,-0.77 2.06,-1.2 -7.13,-12.49 -8.82,2.04 -3.97,-14.39 16.53,-8.9 12.47,3.91 29.35,-5.97 -9.22,-5.7 -0.3,0.25 -6.12,-1.27l-4.25 -1.32c-0.3,-0.91 -1.61,-0.4 -2.33,-0.8 1.43,-10.14 5.47,-19.11 9.56,-27.15l-11.43 -9.05c-4.43,-5.36 -9.07,-2.62 -11.88,-17.44 -0.2,-1.04 -0.03,-6.49 0.19,-7.35 2.55,-10.16 -2.19,2.48 3.04,-5.33 11.85,-17.69 -2.57,12.84 4.18,-4.94 -0.32,-0.62 -2.92,-5.52 -3.14,-6.04l-2.77 -7.78c-0.14,-0.46 -0.46,-1.41 -0.59,-1.88l-3.31 -16.03c-2.2,-3.25 1.11,0.22 -4.81,-3.65l8.14 -12.13c-1.75,-18.4 -10.99,-7.43 -5.72,-26.13 3.96,-14.03 9.09,-5.53 14.34,-17.18 3.63,-8.08 1.01,-6.87 -0.37,-11.84l-3.5 -19.23 10.69 -12.08 -4.38 -12.49c-2.64,-18.74 -4.05,-9.79 -5.92,-22.09 -0.12,-0.75 0.43,-4.38 0.4,-5.06 -1.69,-37.23 -10.33,-33.47 -19.58,-31.6l-8.21 0.9c-0.39,-2.39 -5.64,-16.67 2.57,-10.86 -13.33,4.91 4.19,2.64 -16.67,5.68l-35.03 -2.85c-7.38,-2.11 3.73,-1.87 -5.28,-1.16 -8.27,0.64 4.31,3.61 -17.67,5.57l-17.99 -32.99c5.97,-3.46 6.41,0.84 11.75,0.22l8.94 -7z"/>
  <path class="fil4" d="M1628.1 1935.2c-2.12,-37.75 63.42,-30.18 76.66,-35.3 7.29,14.91 -10.88,20.77 -26.83,26.63 -14.84,5.45 -32.45,15.91 -49.83,8.67zm-65.75 17.44c3.15,-57.69 -10.72,-83.02 75.1,-97.86 -1.15,11.35 -0.81,9.94 -21.04,21.1 -42.01,23.16 -26.9,10.06 -36.01,52.02 -0.87,4.01 -2.36,13.14 -3.96,16.18 -6.41,12.13 -2.84,6.45 -14.09,8.56zm146.1 -140.69c-32.47,14.29 -8.64,-6.73 -34.76,5.17 -27.63,12.58 -123.15,36.84 -128.28,42.15 -12.24,26.9 -11.12,106.97 -8.96,140.57 1.26,19.49 9.06,43.19 18.71,55.92 13.55,17.86 4.22,6.01 10.06,27.22 2.84,10.34 7.34,16.41 18.78,17.64 3.26,-7.86 0.52,-8.45 3.08,-18.58 2.1,-8.36 4.48,-10.3 6.67,-18.52 8.33,-31.35 -1.74,-97.91 33.18,-106.94 0.18,10.3 -4.44,23.24 -4.19,32.67 2.11,78.46 -26.68,92.21 5.37,106.68l26.81 -65.73c2.44,-4.54 4.35,-8.15 7.14,-13.35 20.29,-37.79 25.22,-36.92 67.21,-45.23 22.24,-4.4 43.28,-11.51 69.43,-9.07l10.57 13.31c-14.16,17.05 -38.22,17.15 -64.01,22.34 -7.85,1.59 -11,2.95 -16.33,3.88 -5.48,0.96 -15.77,1.55 -19.85,3.09 -15.75,5.97 -46.37,72.2 -41.82,87.3 7.51,24.94 53.99,82.68 75.81,101.1 8.09,6.83 20.33,9.43 28.14,16.29 12.49,10.97 41.58,104.08 48.83,126.97l11.68 32.81c14.57,11.11 92.78,9.6 125.33,-23.95 8.49,-8.76 16.61,-18.94 26.1,-30.34 -19.81,-19.77 -89.71,-254.41 -102.4,-293.39 -13.65,-41.96 -19.03,-60.33 -43.52,-88.8 -27.46,-31.91 -26.94,-37.77 -50.98,-64.53l-35.37 -45.98c-6.02,-23.65 -9.3,-91.7 -16.09,-116.86 -6.9,-25.55 -93.34,-88.44 -108.57,-94.17 5.79,30.17 54.65,59.59 72.9,79.79 17.19,19.02 -11.85,40.32 7.31,104.02l1.17 3.85c1.3,5.77 0.86,6.51 0.85,12.67z"/>
  <path class="fil0" d="M1851.95 2403.63c0.84,61.67 10.5,148.95 37.53,203.03 4.63,9.27 14.79,33.95 20.31,41.34l126.09 124.86c21.43,20.76 19.42,0.05 73.36,48.83 25.91,23.43 48.87,31.24 80.49,75.68 26.98,37.9 15.51,22.54 36.18,58.62 6.85,11.94 16.75,27.35 21.61,39.91 12.98,-94.07 -35.73,-289.72 -64.33,-380.59 -5.06,-16.06 -10.66,-24.98 -15.91,-38.2 -6.21,-15.6 -7.81,-31.23 -14.69,-43.19 -14.41,-25.04 -32.75,-38.49 -45.84,-69.47 -8.37,-19.83 -32.99,-47.48 -46.52,-65.55l-58.87 -56.32c-18.18,20.88 -29.68,36 -56.75,48.35 -19.84,9.05 -67.63,15.04 -92.66,12.7z"/>
  <path class="fil0" d="M1590.79 2260.43c-26.38,-25.6 7.77,-43.71 28.38,-52.09l7.94 12.01c-9.13,16.15 -14.63,14.32 -22.75,27.55 -9.82,15.99 -0.74,9.7 -13.57,12.53zm-483.66 -51.92c-12.93,-12.27 -23.62,-15.04 -24.25,-41.01 14.21,-5.33 20.18,-0.29 27.47,7.43 8.56,9.07 5.82,8.58 17.05,16.76 8.49,6.18 10.87,5.84 18.54,15.35 16.14,19.99 15.39,13.98 8.4,21.33 -2.49,2.6 -3.33,4.49 -16.19,1.76 -16.33,-3.46 -20.22,-11.37 -31.02,-21.62zm-144.3 123.47c-0.1,13.29 7.17,25.89 13.55,37.7 18.28,33.79 45.48,66.18 71.16,95.36l21.67 22.37c52.96,59.99 53.13,29.4 57.22,18.42 14.32,-38.39 58.45,-101.35 84.21,-122.83l45.04 -39.7c73.06,-61.52 202.37,-91.74 299.5,-60.29 66.63,21.58 33.14,11.51 80.92,34.59 33,15.95 44.8,33.63 70.06,48.24 34.44,-41.55 -26.01,-45.57 -33.51,-111.76 -1.13,-10 0.12,-5.23 -1.16,-11.02 -6.43,-28.94 -2.22,-44.95 12.19,-70.22 -11.62,-20.3 -25.39,-31.98 -34.52,-54.14 -58.08,7.18 -46.48,-4.71 -103.94,52.66 -13.18,13.15 -30.19,22.21 -46.83,30.62 -0.69,0.35 -1.61,0.74 -2.3,1.1l-84.35 48.25c-20.84,9.31 -59.46,6.92 -82.69,3.12 -25.6,-4.19 -36.47,-9.95 -57.62,-20.23 -26.07,-12.68 -27.24,-14.49 -49.49,-31.8 -27.4,-21.31 -47.89,-45.64 -59.88,-55.55 -24.98,-20.63 -22.68,-29.81 -33.36,-44.76 -7.09,-9.93 -14.98,-13.06 -20.8,-19.9l-26.67 -54.88c-60.27,-113.2 -59.31,-232.12 -67.28,-248.1 -6.24,18.08 7.98,124.27 13.67,152.17 4.84,23.75 10.63,51.27 17.68,74.33 4.22,13.79 21.73,60.3 21.97,68.76l-13.2 117.87c-2.45,9.65 -2.42,9.25 -6.66,17.5 -0.37,0.72 -0.88,1.54 -1.25,2.25l-2.42 4.5c-16.68,32.9 -7.99,37.6 -32.96,71.81 -17.17,23.54 -29.3,26.74 -47.95,43.56z"/>
  <path class="fil7" d="M1947.93 452.49c3.62,12.48 10.29,15.53 15.87,23.88l37.12 51.08c6.68,8.52 12.64,15.3 19.02,24.92 5.04,7.61 11.46,17.65 16.14,24.58 7.35,10.88 13.33,15.63 19.88,24.42 9.21,12.39 6.49,16.21 14.35,29.7l52.29 76.59c5.59,9.35 10.93,18.82 16.63,27.69 6.4,9.99 13.44,17.93 18.1,25.94 5.69,9.78 7.18,18.11 12.98,27.76 7.93,13.2 22.15,23.11 28.51,35.84 4.57,9.15 0.92,5.64 7.6,16.19 4.03,6.34 13.44,19.14 18.9,24.44 28.02,-2.01 42.84,-28.01 70.77,-36.38 1.57,-12.05 -8.1,-34.68 -13.43,-46.66 -6.44,-14.46 -3.71,-5.54 -13.41,-17.57 -21.12,-26.17 -9.69,-30.75 -62.76,-93.47 -45.88,-54.23 -25.83,-40.63 -60.84,-94.89l-34.2 -60.57c-15.18,4.72 -34.51,3.95 -38.11,-15.98 3.29,-20.62 30.26,1.25 61.32,-26.22 10,-8.85 14.63,-24.71 19.27,-38.89 1.93,-5.92 0.3,-16.62 22.96,-15.19 4.56,10.2 6.51,10.02 4.12,22.64 -2.42,12.78 -4.2,8.13 4.71,26.07 6.74,13.56 18.93,30 29.3,42.11 14.15,16.53 23.19,13.71 38.63,32.39l44.18 60.91c5.69,7.97 10.41,10.09 17.65,19.86 14.05,18.95 80.72,106.28 96.46,115.51l59.83 -72.92c-9.35,-19.25 -26.56,-26.61 -49.64,-50.9 -36.03,-37.93 -49.41,-44.16 -80.47,-92.42 -6.07,-9.43 -46.42,-72.02 -50.7,-85.63 -22.01,-69.94 -23.1,-46.33 -48.98,-89.47 -52.78,29.72 -63.17,-45.4 -121.13,-3.27 -15.12,10.98 -20.1,11.47 -37.05,20.67 -75.34,40.9 -91.2,19.68 -109.76,56.65 -7.87,15.68 -8.68,18 -20.63,26.67l-5.48 3.92z"/>
  <path class="fil5" d="M1149.81 2732.71c-1.59,-35.47 16.29,-124.49 28.68,-154.43 9.98,-24.13 14.79,-40.94 28.4,-63.04 27.59,-44.75 43.04,-68.58 79.76,-103.73 10.52,-10.07 17.03,-8.88 26.57,-17.54 14.83,-13.46 0,-4.43 27,-20.55 93.79,-55.98 194.32,-47.6 285.54,8.54 30.4,18.71 82.43,68.27 101.16,102.54l25.03 46.34c11.32,24.17 17.85,30.4 27.34,64.49 13.69,49.13 23.95,109.51 22.06,164.65 -1.88,54.76 -13.88,108.22 -29.74,153.62 -13.96,39.95 -6.32,23.35 -27.1,64.51 -11.65,23.06 -23.78,35.63 -37.58,53.98 -4.71,6.26 -3.82,6.3 -8.13,12.41l-58.92 56.27c-16.14,11.6 -7.18,-0.37 -29.31,18.25 -25.71,21.62 -104.4,42.14 -148.61,37.56 -69.99,-7.25 -139.68,-36.04 -186.96,-87.8 -4.33,-4.74 -6.86,-7 -9.97,-10.25 -6.86,-7.17 -5.31,-6.81 -10.68,-13.09 -12.85,-15.06 -27.27,-31.69 -38.81,-52.87l-29.2 -62.77c-27.93,-74.59 -12.42,-30.79 -28.45,-110.6 -5.45,-27.14 -6.78,-57.68 -8.08,-86.49zm271.77 -428.19c-90.78,17.01 -168.89,61.56 -220.56,133.4 -55.02,76.48 -90.48,165.91 -95.89,260.89 -1.73,30.41 -6.76,65.31 -1.17,97.23 14.53,83.15 28.66,157.43 77.52,227.09 17.94,25.58 21.56,33.43 43.94,57.94 36.6,40.06 98.33,88.27 152.12,102.35 11.44,3 31.02,8.81 40.78,10.38 25.55,4.1 74.04,3.86 100.19,-0.14 32.76,-5.01 86.07,-23.93 110.93,-38.71 22.45,-13.35 66.04,-50.33 83.56,-69.21 52.86,-56.93 82.27,-126.31 106.56,-199.05 8.47,-25.38 22.52,-159.2 9.74,-182.13 -2.51,-4.5 -6.43,-8.44 -9.86,-14.23 -22.17,-37.49 -34.84,-97.08 -38.67,-141.64 -2.86,-33.25 11.09,-18.77 -26.03,-75.03 -39.93,-60.52 -93.5,-115.1 -159.88,-145.45 -46.13,-21.1 -113.83,-34.84 -173.28,-23.69z"/>
  <path class="fil2" d="M1953.41 448.57c11.95,-8.67 12.76,-10.99 20.63,-26.67 18.56,-36.97 34.42,-15.75 109.76,-56.65 16.95,-9.2 21.93,-9.69 37.05,-20.67 57.96,-42.13 68.35,32.99 121.13,3.27 25.88,43.14 26.97,19.53 48.98,89.47 4.28,13.61 44.63,76.2 50.7,85.63 31.06,48.26 44.44,54.49 80.47,92.42 23.08,24.29 40.29,31.65 49.64,50.9l-59.83 72.92c-15.74,-9.23 -82.41,-96.56 -96.46,-115.51 -7.24,-9.77 -11.96,-11.89 -17.65,-19.86l-44.18 -60.91c-15.44,-18.68 -24.48,-15.86 -38.63,-32.39 -10.37,-12.11 -22.56,-28.55 -29.3,-42.11 -8.91,-17.94 -7.13,-13.29 -4.71,-26.07 2.39,-12.62 0.44,-12.44 -4.12,-22.64 -22.66,-1.43 -21.03,9.27 -22.96,15.19 -4.64,14.18 -9.27,30.04 -19.27,38.89 -31.06,27.47 -58.03,5.6 -61.32,26.22 3.6,19.93 22.93,20.7 38.11,15.98l34.2 60.57c35.01,54.26 14.96,40.66 60.84,94.89 53.07,62.72 41.64,67.3 62.76,93.47 9.7,12.03 6.97,3.11 13.41,17.57 5.33,11.98 15,34.61 13.43,46.66 -27.93,8.37 -42.75,34.37 -70.77,36.38 -5.46,-5.3 -14.87,-18.1 -18.9,-24.44 -6.68,-10.55 -3.03,-7.04 -7.6,-16.19 -6.36,-12.73 -20.58,-22.64 -28.51,-35.84 -5.8,-9.65 -7.29,-17.98 -12.98,-27.76 -4.66,-8.01 -11.7,-15.95 -18.1,-25.94 -5.7,-8.87 -11.04,-18.34 -16.63,-27.69l-52.29 -76.59c-7.86,-13.49 -5.14,-17.31 -14.35,-29.7 -6.55,-8.79 -12.53,-13.54 -19.88,-24.42 -4.68,-6.93 -11.1,-16.97 -16.14,-24.58 -6.38,-9.62 -12.34,-16.4 -19.02,-24.92l-37.12 -51.08c-5.58,-8.35 -12.25,-11.4 -15.87,-23.88l5.48 -3.92zm-21.87 -13.81c-9.46,-4.17 -8.55,-14.47 -8.28,-23.02l33.92 0.57 -9.56 23.22 -16.08 -0.77zm297.45 -107.3c-9.32,0.14 -17.47,1.28 -25.73,-2.21 -0.21,-0.08 -7.51,-4.96 -7.69,-5.09 -0.76,-0.56 -3.44,-2.56 -4,-3.01l-4.06 -3.77c9.9,-7.13 16.86,-9.7 28.57,-11.25 3.57,7.9 8.72,16.2 12.91,25.33zm-36.82 -46.75c-16.47,5.46 -11.97,3.73 -24.7,12.31 -14.65,9.88 -13.26,3.37 -30.38,2.22 -0.53,0.82 -0.91,1.29 -1.13,2.71 -2.79,18.46 -94.77,59.8 -111.22,65.63 -3.99,1.41 -21.44,5.99 -24.18,5.96 -6.66,-0.07 -3.94,-0.19 -8.7,-2.51 -11.57,-5.65 5.62,-1.35 -12.23,-6.9 -8.32,24.53 -26.86,25.02 -61.92,29.07 -14.4,1.66 -15.96,-1.79 -28.75,-2.4 6,40.52 44.12,84.34 65.32,119.22 27.02,44.43 23.24,36.61 53.24,72.72l16.81 20.43c0.1,0.15 2.95,4.98 3.85,6.42 19.86,31.58 23.26,46.95 41.27,66.94 9.19,10.19 7.05,12.65 12.49,22.13l49.55 75.6c9.41,13.98 11.74,26.86 22.05,38.94l22.85 31.71c35.31,52.38 24.31,59.94 74.97,44.54 30.59,-9.29 45.7,-29.3 55.81,-35.79 8.09,-5.2 15.05,-5.56 21.3,-10.34 0.12,-9.94 -11.06,-36.77 -15.63,-46.98l-34.5 -60.25c-35.47,-68.07 -71,-89.59 -93.68,-140.72l-23.64 -40.94c-11.35,-18.76 -19.72,-23 -22.05,-48.53 14.47,-4.5 19.8,-11.66 28.82,-22.04 1.39,4.28 2.72,10.18 5.18,14.53l5.91 8c0.43,0.59 1.07,1.35 1.49,1.94 0.42,0.58 1,1.39 1.41,1.98 31.63,45.31 47.18,43.51 65.2,73.61 16.07,26.84 26.18,30.52 42.12,49.74 9.94,11.98 8.18,14.14 17.38,26.71 5.73,7.83 13.49,19.74 19.62,27.83 11.1,14.66 12.67,9.29 21.09,22.96 60.22,97.88 78.63,62.3 117.08,14.97 65.13,-80.18 35.14,-68.7 -45.46,-147.51 -31.8,-31.09 -66.34,-76.26 -91.78,-112.08 -11.83,-16.67 1.52,-10.69 -14.43,-50.2 -12.3,-30.47 -68.93,-114.29 -93.36,-133.55 -4.02,-3.17 -9.43,-6.23 -13.28,-10.35l-11.18 -15c-43.94,4.35 -101.38,35.12 -148.68,53.33 -17.98,6.92 -141.18,43.57 -147.52,63.43 -5.68,17.79 19.32,4.37 25.81,2.51 38.25,-11.03 36.75,-8.62 77.88,-24.56 11.8,-4.58 24.26,-12.56 37.16,-16.98l88.19 -34.28c13.6,-8.13 2.53,-5.4 22.07,-10.4 7.83,-2.01 15.16,-3.65 23.19,-5.67 0.78,-0.19 10.19,-2.36 10.48,-2.37 8.63,-0.21 2.74,-2.27 8.81,2.26z"/>
  <path class="fil0" d="M1792.91 3507.63l282.92 -54.82 -35.08 -43.68c-27.57,-26.09 -33.07,-34.94 -57.06,-68.27 -6.42,-8.91 -15.81,-19.84 -21.87,-28.97 -8.7,-13.12 -13.72,-19.15 -21.1,-29.87 -17.5,-25.43 -25.64,-27.27 -43.52,-61.74 -6.09,-11.74 -10.59,-21.96 -16.63,-34.41 -14.75,-30.38 -23.16,-92.93 -26.77,-125.11 -5.16,-45.99 7.58,-165.4 2.37,-189.61 -14.07,12.38 -6.38,10.13 -11.8,33.64 -2.56,11.11 -7.64,23.96 -10.99,36.47 -6.67,24.91 -24.42,42.44 -30.82,64.73l5.17 195.07c0.29,18.19 -3.38,28.17 -2.54,43.95 3.28,61.67 -3.96,201.57 -12.28,262.62z"/>
  <path class="fil2" d="M1441 2368.39c112.93,-12.9 186.88,34.56 250.68,120.82 6.76,9.13 12.04,13.06 17.95,22.75 19.84,32.52 25.58,56.42 39.88,88.97 7.06,16.08 4.98,13.27 8.9,31.76 5.71,26.98 8.72,46.45 11.08,73.12 6.86,77.43 1.09,95.06 -12.63,155.39 -11.12,48.87 -27.78,80.39 -49.34,120.77 -37.73,70.69 -117.79,129.07 -197.87,141.35 -29.63,4.55 -45.25,4.73 -71.59,0.33 -40.09,-6.71 -63.82,-14.11 -94.53,-35.24l-35.64 -28.64c-21.22,-16.43 -11.54,-8.82 -31.1,-29.95 -11.82,-12.76 -25.23,-35.66 -34.92,-50.12 -13.04,-19.49 -19.13,-36.39 -28.37,-56.65l-21.51 -63.69c-7.36,-28.28 -5.55,-43.58 -9.84,-74.52 -11.18,-80.58 19.83,-218.79 60.81,-274.2 23.8,-32.2 46.49,-65.42 78.64,-91.36l53.08 -32.06c22.24,-7.14 41.18,-15.96 66.32,-18.83zm-291.19 364.32c1.3,28.81 2.63,59.35 8.08,86.49 16.03,79.81 0.52,36.01 28.45,110.6l29.2 62.77c11.54,21.18 25.96,37.81 38.81,52.87 5.37,6.28 3.82,5.92 10.68,13.09 3.11,3.25 5.64,5.51 9.97,10.25 47.28,51.76 116.97,80.55 186.96,87.8 44.21,4.58 122.9,-15.94 148.61,-37.56 22.13,-18.62 13.17,-6.65 29.31,-18.25l58.92 -56.27c4.31,-6.11 3.42,-6.15 8.13,-12.41 13.8,-18.35 25.93,-30.92 37.58,-53.98 20.78,-41.16 13.14,-24.56 27.1,-64.51 15.86,-45.4 27.86,-98.86 29.74,-153.62 1.89,-55.14 -8.37,-115.52 -22.06,-164.65 -9.49,-34.09 -16.02,-40.32 -27.34,-64.49l-25.03 -46.34c-18.73,-34.27 -70.76,-83.83 -101.16,-102.54 -91.22,-56.14 -191.75,-64.52 -285.54,-8.54 -27,16.12 -12.17,7.09 -27,20.55 -9.54,8.66 -16.05,7.47 -26.57,17.54 -36.72,35.15 -52.17,58.98 -79.76,103.73 -13.61,22.1 -18.42,38.91 -28.4,63.04 -12.39,29.94 -30.27,118.96 -28.68,154.43z"/>
  <path class="fil2" d="M1754.68 38.46c-19.33,66.58 -7.66,68.84 2.8,129.67 -20.16,9.93 -41.78,15.82 -60.11,41.46 -40.5,56.67 -18.31,144.42 27.8,183.16 8.18,6.87 22.52,15.86 28.23,22.42 -13.89,29.49 -29.58,43.19 -37.72,76.91 -7.81,32.36 -15.8,66.55 -10.56,100.25 12.09,77.73 30.73,115.41 71.24,163.18 33.05,38.98 57.33,52.18 98.95,74.25 45.97,24.38 126.92,32.27 134.84,37.95 7.61,5.45 20.61,23.95 26.54,31.32 88.9,110.43 259.34,140.51 391.58,126.79 33.7,-3.5 108.07,-21.04 135.35,-38.19 20.97,-13.16 16.95,-13.94 37.87,-2.05 63.4,36.04 124.84,25.8 183.7,-9.14l39.74 30.18c22.65,14.96 128.47,40.65 178.89,14.11 48.25,-25.39 36.93,-11.57 77.57,-64.91l26.4 -44.82c8.3,-18.87 9.78,-41.54 16.34,-58.27 84.29,5.31 57.55,-8.11 95.39,-17.51l0 -37.21c-19.71,12.06 -14.32,27 -51.86,29.66 -22.17,1.57 -52.55,-9.56 -67.58,3.8l-3.24 24.52c-5.7,47.3 -19.31,58.23 -39.15,89.59 -13.64,21.55 -26.52,35.29 -56.12,48.79 -44.37,20.22 -63.9,19.18 -126.28,3.1 -47.2,-12.16 -38.23,-13.4 -69.34,-36.47 -9.3,-6.9 -18.99,-17.24 -34.51,-10.13 -10.37,4.75 -16.96,14.93 -29.8,21.02 -33.38,15.83 -88.7,16.29 -125.53,-4.15 -48.26,-26.77 -12.42,-25.68 -65.23,-3.21 -137.58,58.52 -307.39,55.26 -429.86,-27.84 -17.02,-11.55 -13.34,-5.58 -30.29,-20.46 -36.8,-32.3 -39.07,-40.29 -66.52,-75.52 -75.1,-9.3 -100.9,-17.28 -159.35,-44.74 -11.69,-5.49 -19.33,-14.01 -29.67,-21.2 -33.95,-23.6 -51.78,-44.33 -71.33,-81.62 -5.08,-9.68 -13.82,-22.27 -17.44,-33.53 -66.55,-206.91 93.36,-247.16 31.19,-269.03 -2.68,-0.95 -5.98,-1.61 -10.14,-3.04 -38.3,-13.17 -64.54,-56.18 -66.61,-97.32 -4.79,-95.06 77.47,-91.41 84.95,-106.93 8.86,-18.36 -24.73,-51.18 -12.86,-110.94 8.56,-43.07 29.75,-50.18 55.7,-74.55l-44.95 0c-7.23,13.02 -18.7,26.94 -29.02,40.65z"/>
  <path class="fil1" d="M2065.83 1246.23c-21.13,15.37 -63.89,-1.13 -66.93,51.64 -1.36,23.78 6.96,31.16 20.12,39.7 20.74,13.46 27.52,2.22 47.05,10.51 16.17,6.86 10.23,13.62 29.6,31.39 10.24,9.4 20.46,19.47 33.57,24.39 60.36,22.69 106.13,-27.72 91.14,-74.3 -4.09,-12.69 -22.66,-28.11 -24.6,-33.62 -9.39,-26.67 41.74,-43.08 51.37,-64.97 6.78,-15.43 7.84,-37.53 -0.81,-49.27 -42.69,-57.87 -109.33,6.52 -115.01,8.67 -16.07,-13.1 -0.53,-20.93 -28.43,-24.7 -57.78,-7.79 -57.31,31.55 -49.32,48.63 5.79,12.39 20.93,10.82 12.25,31.93z"/>
  <path class="fil2" d="M2818.27 408.39c8.36,-6.33 22.45,-7.86 32.8,-9.42l66.28 -10.48c13.33,-1.33 25.88,-5.78 35.92,-6.29l33.34 89.51c18.39,38.94 28.75,85.03 33.3,91.73 25.38,1.15 5.2,-4.99 23.72,-8.95 7.15,-1.52 22.46,3.78 31.56,5.73 24.16,5.18 42.56,1.43 65.52,5.54 -7.64,10.86 -140.32,56 -149.17,56.52 -3.64,0.22 -6.95,-0.48 -12.64,-3.76 -5.17,-2.98 -47.13,-50.46 -50.96,-16.21 -1.92,17.25 7.36,14.32 0.64,34.31l-31.26 3.29c-31.83,-71.91 -15.78,-47.84 -35.54,-118.09l-43.51 -113.43zm-15.43 -30.54c5.42,-11.68 -1.32,-8.52 33.28,-13.77 27.76,-4.21 77.94,-27.88 103.1,-25.31 4.55,9.54 3.7,3.82 3.96,15.32 -18.5,17.02 -51.7,16.86 -69.93,18.35 -17.8,1.46 -55.52,15.77 -70.41,5.41zm165.58 259.46c36.26,18.61 74.32,-2.04 126.06,-21.23 32.55,-12.07 99.86,-24.73 99.5,-64.65 -21.95,-19.31 -70.82,-12.02 -110.57,-17.36 -17.04,-2.3 -25.77,-1.53 -43.73,-2.9l-73.91 -198.59c-5.23,-26.93 -6.14,-30.08 -37.65,-21.8l-105.88 29.94c-19.94,6.18 -50.25,-3.16 -38.87,24.29 2.74,6.61 1.82,-4.52 5.78,11.66 3.83,15.65 -6.21,-0.26 6.37,37.99 5.46,16.58 8.77,35.03 13.78,53.97 7.58,28.61 24.25,28.52 35.01,101.72 2.32,15.81 27.72,92.98 35.31,100.06 17.22,16.04 12.83,-3.32 28.89,-4.8 0.26,-0.03 13.55,0.36 15.39,0.29 46.72,-1.83 36.8,-15.32 44.52,-28.59z"/>
  <path class="fil5" d="M2861.78 521.82c19.76,70.25 3.71,46.18 35.54,118.09l31.26 -3.29c6.72,-19.99 -2.56,-17.06 -0.64,-34.31 3.83,-34.25 45.79,13.23 50.96,16.21 5.69,3.28 9,3.98 12.64,3.76 8.85,-0.52 141.53,-45.66 149.17,-56.52 -22.96,-4.11 -41.36,-0.36 -65.52,-5.54 -9.1,-1.95 -24.41,-7.25 -31.56,-5.73 -18.52,3.96 1.66,10.1 -23.72,8.95 -4.55,-6.7 -14.91,-52.79 -33.3,-91.73l-33.34 -89.51c-10.04,0.51 -22.59,4.96 -35.92,6.29l-66.28 10.48c-10.35,1.56 -24.44,3.09 -32.8,9.42l43.51 113.43z"/>
  <path class="fil2" d="M2561.24 398.39c-5.53,-9.69 -13.12,-53.41 -17.53,-60.78 -15.71,-26.24 -30.09,-54.42 -28.37,-88.95 0.66,-13.07 5.38,-24.08 14.11,-31.51l37.82 -17.36c28.6,-9.36 47.83,11.76 57.72,36.26 7.42,18.35 3.79,12.56 -0.91,28.03 -5.61,18.42 -3.1,14.14 -10.96,30.08 -27.45,55.61 -10.83,6.55 -26.72,51.2 -4.22,11.86 -2.71,4.88 -5.98,10.83l-7 16.66c-0.32,0.79 -0.72,1.64 -1.03,2.43 -3.9,9.89 -5.06,18.14 -11.15,23.11zm88.22 -183.63c-19.47,-23.34 -67.41,-56.58 -24.59,-91.83 63.25,-52.08 163.43,2.43 165.43,11.96 1.27,6.04 -30.23,38.32 -32,39.66 -32.02,24.24 -65.44,41.01 -108.84,40.21zm-69.59 -45.79c-25.21,8.77 -34.48,1.38 -73.37,28.66 -28.96,20.31 -21.61,92.04 -7.11,119.62l6 7.92c11.11,14.44 23.28,49.26 21.86,66.2 -1.77,21.17 -10.17,8.94 -11.09,42.04 25.05,11.92 10.43,18.66 25.09,12.62 0.05,-0.02 23.78,-16.73 27.6,-19.56 32.78,-24.32 29.7,-58.89 50.82,-85.06 10.12,-12.54 10.51,-12.47 17.97,-29.63 4.7,-10.82 7.35,-19.51 12.73,-31.12 6.94,-14.98 4.44,-20.84 10.25,-37.19 85.52,-17.82 101,-31.76 154.99,-86.32 9.58,-9.69 18.72,-17.59 25.14,-25.66 5.47,-6.88 16.59,-22.18 16.88,-28.06 0.78,-15.94 -12.35,-23.59 -29.31,-15.36 -17.26,8.37 -4.2,16.16 -29.9,12.24 -24.3,-3.71 -103.74,-62.94 -189.51,-0.59 -34.14,24.82 -28.34,50.36 -29.04,69.25z"/>
  <path class="fil0" d="M1044.45 1394.1c-10.39,49.3 -15.93,143.75 -23.1,181.66l-8.78 69.41c-1.8,17.38 -4.04,108.11 1.61,120.82 3.34,-12.13 0.21,-30.68 0.33,-41.05l22.25 -180.65c4.32,-16.17 1.39,-23.61 4.36,-39.98 2.97,-16.42 1.86,-27.47 6.41,-43.65 10.16,-36.17 2.58,-19.01 2.16,-36.05 14.43,-14.61 15.71,-12.46 28.99,-2.08 14.48,11.32 85.22,42.87 103.28,49.14l20.66 7.24c0.8,0.27 1.68,0.58 2.5,0.83l16.23 3.86c101.03,22.59 213.98,11.5 309.76,-18.31 15.63,-4.87 121.95,-47.45 130.97,-46.78 9.52,0.71 3.96,-0.95 10.65,3.56l7.24 8.05c7,-9.68 2.37,-6.9 15.28,-5.9 13.23,24.61 12.92,55.47 18.86,95.93 4.72,32.12 9.48,69.74 15.78,102.15 17.43,89.53 17.01,29.07 31.69,87.5 3.63,14.45 6.54,30.16 9.13,47.97l6.5 46.35c2.69,5.95 0.83,2.37 4.34,6.3 -0.39,-36.54 0.34,-88.4 -5.85,-121.67 -3.31,-17.82 -4.12,-37.38 -7.23,-53.16 -3.53,-17.81 -8.79,-34.75 -12.28,-52.63 -6.78,-34.77 -11.1,-73.44 -19.16,-106.6 -20.18,-82.92 -8.35,-30.97 -33.44,-94.87 -27.71,0.65 -19.57,2.08 -39.04,13.41 -77.51,45.14 -64.86,29.63 -108.35,50.96 -37.65,18.47 -123.19,32.41 -175.66,33.47 -117.39,2.39 -181.29,-15.87 -277.62,-60.11l-58.47 -25.12z"/>
  <path class="fil2" d="M2065.83 1246.23c8.68,-21.11 -6.46,-19.54 -12.25,-31.93 -7.99,-17.08 -8.46,-56.42 49.32,-48.63 27.9,3.77 12.36,11.6 28.43,24.7 5.68,-2.15 72.32,-66.54 115.01,-8.67 8.65,11.74 7.59,33.84 0.81,49.27 -9.63,21.89 -60.76,38.3 -51.37,64.97 1.94,5.51 20.51,20.93 24.6,33.62 14.99,46.58 -30.78,96.99 -91.14,74.3 -13.11,-4.92 -23.33,-14.99 -33.57,-24.39 -19.37,-17.77 -13.43,-24.53 -29.6,-31.39 -19.53,-8.29 -26.31,2.95 -47.05,-10.51 -13.16,-8.54 -21.48,-15.92 -20.12,-39.7 3.04,-52.77 45.8,-36.27 66.93,-51.64zm70.61 -78.71c-18.67,-29.85 -60.75,-28.83 -82.53,-21.22 -29.67,10.38 -28.77,48.53 -28.18,83.23 -16.46,8.47 -32.29,13.15 -40.31,28.06 -6.75,12.56 -13.07,42.3 -10.8,59.39 4.84,36.29 44.66,58.04 86.46,55.67 42.75,96.75 174.44,67.38 184.89,-3.56 5.42,-36.81 -7.53,-50.82 -17.92,-81.87 12.92,-16.87 35.93,-26.96 42.86,-49.05 36.45,-116.22 -117.08,-123.36 -134.47,-70.65z"/>
  <path class="fil2" d="M1183.9 1781.13c1.37,-13.76 6.22,-19.66 5.45,-40.03 12.11,3.91 35.68,24.82 41.62,37.87l-47.07 2.16zm-106.56 -15.47c15.25,-26.24 19.9,-25.82 45.83,-40 -5.96,23.99 -6.5,19.27 -3.76,46.36 -6.54,0 -17.38,0.21 -23.49,-0.29l-18.58 -6.07zm166.85 -2.86c-11.67,-6.78 -37.24,-63.19 -108.24,-59.73 -32.63,1.58 -70.09,26.47 -73.15,53.2 -1.75,15.38 3.46,1.74 -0.95,13.6 -2.04,5.49 -6.61,6.26 -6.9,16.15 16.12,10.56 157.34,16.02 183.85,15.27 0.55,23.26 -3.05,56.24 -4.6,79.82 -1.74,26.29 -16.61,53.78 5.28,66.23 28.6,16.27 119.63,19.54 115.63,-24.21 -23.88,-6.13 -60.02,19.41 -97.52,6.57l-2.29 -7.71c-0.05,-0.74 -0.13,-1.82 -0.12,-2.67 0,-0.08 2.14,-12.71 2.49,-14.75 1.49,-8.66 3.72,-21.06 4.13,-27.23l1.22 -57.44c1.81,-39.09 8.12,-76.29 8.34,-118.89 -5.54,-2.31 -12.13,-3.88 -18.56,-5 -7.23,9.52 -5.17,7.93 -6.74,25.97 -1.14,13.1 -2.07,27.26 -1.87,40.82z"/>
  <path class="fil0" d="M765.31 3737.16c0.68,0.4 1.92,-0.1 2.26,0.72 0.34,0.82 1.8,0.54 2.29,0.57l45.96 -9.88c33.85,-7.99 146.4,-40.87 162.42,-40.01 -6.75,-3.91 -7.37,-8.4 -16.6,-14.51l-140.29 -93.72c-2.62,-3.19 -0.01,-1.44 -4.21,-5.34l-36.49 122.14c-5.36,19.22 -9.87,24.86 -15.34,40.03z"/>
  <path class="fil8" d="M2649.46 214.76c43.4,0.8 76.82,-15.97 108.84,-40.21 1.77,-1.34 33.27,-33.62 32,-39.66 -2,-9.53 -102.18,-64.04 -165.43,-11.96 -42.82,35.25 5.12,68.49 24.59,91.83z"/>
  <path class="fil8" d="M2561.24 398.39c6.09,-4.97 7.25,-13.22 11.15,-23.11 0.31,-0.79 0.71,-1.64 1.03,-2.43l7 -16.66c3.27,-5.95 1.76,1.03 5.98,-10.83 15.89,-44.65 -0.73,4.41 26.72,-51.2 7.86,-15.94 5.35,-11.66 10.96,-30.08 4.7,-15.47 8.33,-9.68 0.91,-28.03 -9.89,-24.5 -29.12,-45.62 -57.72,-36.26l-37.82 17.36c-8.73,7.43 -13.45,18.44 -14.11,31.51 -1.72,34.53 12.66,62.71 28.37,88.95 4.41,7.37 12,51.09 17.53,60.78z"/>
  <path class="fil9" d="M1432.79 2072.62c16.38,-21.13 -17.55,-31.52 -31.45,-36.05 -77.85,-25.36 -64.92,5.72 -91.08,-0.17 -15.79,-3.55 -4,-9.61 -27.88,-9.19 -106.6,1.88 -93.09,65.27 23.28,72.99 31.57,2.1 110.63,-6.29 127.13,-27.58z"/>
  <path class="fil3" d="M1748.64 2313.7c3.82,78.68 -43,54.75 -0.86,99.05 5.4,5.67 9.2,11.6 12.74,18.63 4.7,9.31 2.93,8.83 10.2,16.15l16.87 12.82c3.76,-6.48 4.76,-27.03 7.78,-38.76 7.61,-29.58 20.24,-19.82 -2.37,-75.07 -4.76,-11.63 -8.7,-24.89 -13.77,-37.01l-27.2 -70.36c-3.84,-7.67 -45.11,-45.06 -50.18,-47.98 -4.7,19.04 -5.96,73.13 -4.29,82.63 3.14,17.78 2.64,5.65 11.05,11.66 0.65,0.45 1.53,0.94 2.15,1.42l29.66 21.46c5.59,3.8 3.09,2.68 8.22,5.36z"/>
  <path class="fil2" d="M1449.5 1741.13c-2.27,19.75 -0.45,20.87 3.68,39.22l-45.71 -0.69c5.19,-13.41 25.9,-33.5 42.03,-38.53zm65.49 -14.38c22.42,7.68 37.95,22.92 46.38,42.69l-42.74 3.59c1.07,-17.02 2.72,-31.72 -3.64,-46.28zm68.87 58.97c-2.67,-18.9 -6.17,-3.96 -8.27,-24.21 -1.08,-10.52 -2.83,-16.49 -9.72,-25.11 -48.39,-60.58 -152.25,-28.64 -168.35,29.92 -2.3,8.37 -0.29,5.55 -3.45,13.78 -5.55,14.46 -7.49,-0.54 -4.48,11.69 3.92,15.93 43.21,7.46 58.54,7.1 30.19,-0.69 117.09,-3.06 135.73,-13.17z"/>
  <path class="fil2" d="M1592.21 1670.65c-0.01,-18.01 -18.73,-21.88 -44.93,-25.11 -18.25,-2.25 -48.38,-4.59 -68.6,-3.16 -23.7,1.68 -39.67,4.35 -59.67,12.61 -15.6,6.44 -37.95,17.56 -41.06,30.83 -6.59,28.16 29.34,5.11 38.81,0.59 14.97,-7.15 34.46,-14.37 53.52,-17.06 39.16,-5.51 97.95,13.36 121.93,1.3z"/>
  <path class="fil2" d="M1253.3 3626.59c-15.89,-8.36 -7.68,-9.48 -24.88,-7.36 -0.4,22.73 29.55,38.67 48.92,47.81 31.04,14.66 46.57,32.17 62.15,25.95 5.43,-14.56 -3.02,-21.06 -15.42,-28.26l-70.77 -38.14z"/>
  <path class="fil5" d="M2802.84 377.85c14.89,10.36 52.61,-3.95 70.41,-5.41 18.23,-1.49 51.43,-1.33 69.93,-18.35 -0.26,-11.5 0.59,-5.78 -3.96,-15.32 -25.16,-2.57 -75.34,21.1 -103.1,25.31 -34.6,5.25 -27.86,2.09 -33.28,13.77z"/>
  <path class="fil2" d="M1270.43 3735.6c-16.04,-9.06 -58.19,-34.35 -74.25,-33.13l-2.26 7.5 0.57 4.08c4.84,10.47 28.16,26.81 38.23,31.46 11.91,5.49 15.09,7.7 26.96,14.04 15.97,8.52 15.48,5.85 26.84,-4.14 -4.81,-14.82 -1.7,-11.67 -16.09,-19.81z"/>
  <path class="fil10" d="M1082.88 2167.5c0.63,25.97 11.32,28.74 24.25,41.01 10.8,10.25 14.69,18.16 31.02,21.62 12.86,2.73 13.7,0.84 16.19,-1.76 6.99,-7.35 7.74,-1.34 -8.4,-21.33 -7.67,-9.51 -10.05,-9.17 -18.54,-15.35 -11.23,-8.18 -8.49,-7.69 -17.05,-16.76 -7.29,-7.72 -13.26,-12.76 -27.47,-7.43z"/>
  <path class="fil10" d="M1562.35 1952.64c11.25,-2.11 7.68,3.57 14.09,-8.56 1.6,-3.04 3.09,-12.17 3.96,-16.18 9.11,-41.96 -6,-28.86 36.01,-52.02 20.23,-11.16 19.89,-9.75 21.04,-21.1 -85.82,14.84 -71.95,40.17 -75.1,97.86z"/>
  <path class="fil10" d="M1628.1 1935.2c17.38,7.24 34.99,-3.22 49.83,-8.67 15.95,-5.86 34.12,-11.72 26.83,-26.63 -13.24,5.12 -78.78,-2.45 -76.66,35.3z"/>
  <path class="fil11" d="M1269.25 3567.44c4.04,5.45 1.59,4.15 7.41,8.55 4.38,3.3 2.11,1.96 8.74,3.98 16.11,-11.27 18.02,-32.37 14.8,-50.89l-14.58 -4.73c-11.86,11.77 -15.81,26.73 -16.37,43.09z"/>
  <path class="fil10" d="M1590.79 2260.43c12.83,-2.83 3.75,3.46 13.57,-12.53 8.12,-13.23 13.62,-11.4 22.75,-27.55l-7.94 -12.01c-20.61,8.38 -54.76,26.49 -28.38,52.09z"/>
  <path class="fil0" d="M1514.99 1726.75c6.36,14.56 4.71,29.26 3.64,46.28l42.74 -3.59c-8.43,-19.77 -23.96,-35.01 -46.38,-42.69z"/>
  <path class="fil0" d="M1077.34 1765.66l18.58 6.07c6.11,0.5 16.95,0.29 23.49,0.29 -2.74,-27.09 -2.2,-22.37 3.76,-46.36 -25.93,14.18 -30.58,13.76 -45.83,40z"/>
  <path class="fil0" d="M1230.97 1778.97c-5.94,-13.05 -29.51,-33.96 -41.62,-37.87 0.77,20.37 -4.08,26.27 -5.45,40.03l47.07 -2.16z"/>
  <path class="fil0" d="M1449.5 1741.13c-16.13,5.03 -36.84,25.12 -42.03,38.53l45.71 0.69c-4.13,-18.35 -5.95,-19.47 -3.68,-39.22z"/>
  <path class="fil7" d="M2187.51 313.38l4.06 3.77c0.56,0.45 3.24,2.45 4,3.01 0.18,0.13 7.48,5.01 7.69,5.09 8.26,3.49 16.41,2.35 25.73,2.21 -4.19,-9.13 -9.34,-17.43 -12.91,-25.33 -11.71,1.55 -18.67,4.12 -28.57,11.25z"/>
  <path class="fil2" d="M3219.52 660.27l0 -31.1c-13.67,2.38 -12.56,1.22 -16.52,13.35 3.62,10.26 -2.75,1.11 6.22,10.19 3.84,3.88 4.86,4.3 10.3,7.56z"/>
 </g>
</svg>
