<?xml version="1.0" encoding="UTF-8"?>
<!DOCTYPE svg PUBLIC "-//W3C//DTD SVG 1.1//EN" "http://www.w3.org/Graphics/SVG/1.1/DTD/svg11.dtd">
<!-- Creator: CorelDRAW Standard 2021 (64-Bit Versión de evaluación) -->
<svg xmlns="http://www.w3.org/2000/svg" xml:space="preserve" width="39.844mm" height="40.6398mm" version="1.1" style="shape-rendering:geometricPrecision; text-rendering:geometricPrecision; image-rendering:optimizeQuality; fill-rule:evenodd; clip-rule:evenodd"
viewBox="0 0 3984.4 4063.98"
 xmlns:xlink="http://www.w3.org/1999/xlink"
 xmlns:xodm="http://www.corel.com/coreldraw/odm/2003">
 <defs>
  <style type="text/css">
   <![CDATA[
    .fil3 {fill:#532A3D}
    .fil2 {fill:#775768}
    .fil0 {fill:#7B2B54}
    .fil4 {fill:#977788}
    .fil5 {fill:#BAA9B4}
    .fil6 {fill:#E9DAE4}
    .fil1 {fill:white}
   ]]>
  </style>
 </defs>
 <g id="Capa_x0020_1">
  <metadata id="CorelCorpID_0Corel-Layer"/>
  <g id="_2586013167232">
   <path class="fil0" d="M2546.38 3698.22c-20.1,10.18 -26.06,29.13 -29.96,53.24 -13.95,-70.16 14.22,-59.72 32.9,-111.07 -16.85,9.85 -8.51,2.62 -22.12,20.66l-16.98 23.08c-0.56,0.69 -1.77,2.17 -2.71,3.2 26.5,-47.59 47.1,-93.95 79.08,-132.17l22.44 23.14c75.7,-31.37 59.06,42.4 0.1,42.96 -20.56,0.2 -21.87,-8.96 -38.81,-15.65 2.4,78.33 86.52,-0.98 94.28,47.02 -3.36,19.12 0.8,13.57 -16.9,22.07 -24.23,11.65 -40.9,12.99 -60.57,0.4 -12.4,-7.93 -13.31,-10.57 -27.56,-15.09 -7.44,12.23 -12.98,19.18 -13.19,38.21zm53.47 -163.46c30.87,-54.45 69.97,-39.49 73.92,-16.76 6.04,34.8 -48.22,53.69 -73.92,16.76zm34.36 -48.18c9.57,-11.6 7.51,-15.61 16.25,-28.33 16.62,-24.2 20.78,-21.97 31.55,-25.08 24.83,51.05 -34.1,45.15 -47.8,53.41zm172.25 -1409.88c13.5,12.65 24.26,16.41 15.88,44.54 -8.99,-2.95 -12.39,5.25 -18.89,-15.45 -3.44,-10.97 0.81,-21.1 3.01,-29.09zm-1662.5 -669.47l55.57 0.85 -0.16 54.72 -54.68 0.22 -0.73 -55.79zm-107.56 1.25l53.29 -0.55 -0.91 54.67 -51.93 0.2 -0.45 -54.32zm841.37 1.86l48.47 0.12 0.64 50.26 -49.21 -0.37 0.1 -50.01zm697.59 31.35c-26.96,-9.46 -20.8,-12.69 -16.82,-46.52 24.51,5.81 34.68,19.74 16.82,46.52zm-852.74 -96.41l44.26 -0.05 2.96 -52.98 49.81 1.16 1.77 51.62 54.07 -0.21 -0.47 63.22 -42.96 -0.31 -3.23 -53.22 -53.43 -0.43 -0.28 47.64c15.02,8.14 15.11,6.22 45.27,6.15l-0.36 54.94 -51.89 0.18 -1.71 -55.11 -43.55 -0.33 -0.26 -62.27zm-686.22 63.2l-54.47 -0.76 0.39 -62.95 54.05 -0.09 0.35 -52.22 52.65 0.01 0.68 51.69 54.73 0.93 -0.82 62.14 -51.56 0.65 -2.61 -53.54 -51.85 -0.54 -1.54 54.68zm686.22 -63.2l-53.66 -2.77 1.12 -49.48 50.18 -0.63 2.36 52.88zm-740.3 -0.51l-53.27 0.36 -0.03 -52.72 7.28 -0.1 45.44 0.28 0.58 52.18zm1889.98 -56.88l28.43 17.68 -1.86 36.5 -26.45 -18.92 -0.12 -35.26zm107.34 -247.02c30.83,5.25 37.57,10.11 31.03,43.73 -14.11,-14.23 -24.51,-20.53 -31.03,-43.73zm-154.23 -84.89c22.79,-2.76 28.24,6.75 31.41,31.51 -21.75,-8.46 -31.01,-7.02 -31.41,-31.51zm-231.37 -7.25c29.37,-1.26 24.67,6.44 25.81,14.04l-3.26 8.42c-0.06,0.02 -8.87,7.69 -18.58,-1.32 -12.19,-11.32 -5.34,-9.62 -3.97,-21.14zm175.76 -26.44c25.43,6.01 27.78,10.25 31.63,36.71 -21.86,-8.49 -26.72,-12.88 -31.63,-36.71zm67.45 -12.91c12.55,12.17 7.49,7.34 9.32,29.59 -31.77,-9.7 -32.64,-10.33 -36.31,-44.07 4.35,1.93 26.81,14.3 26.99,14.48zm-76.27 -42.57c27.93,8.42 24.35,9.93 28.36,40.88l-27.13 -12.51 -1.23 -28.37zm42.23 -15.46c15.09,5.14 15.86,6.51 29.38,13.47l5.11 25.27c-21.95,-9.72 -31.16,-12.21 -34.49,-38.74zm-229.27 -115.52c19.34,4.36 28.54,3.95 18.26,23.34 -22.97,-9.31 -12.78,-0.25 -18.26,-23.34zm238.28 65.63c-31.33,-12 -32.96,-21.9 -43.14,-55.29 32.81,9.71 32.59,21.14 43.14,55.29zm-132.84 -98.43c23.81,6.06 33.29,4.9 29.29,34.32 -21.35,-4.77 -30.29,-8.51 -29.29,-34.32zm-193.83 -19.49c-21.17,-5.87 -13.39,1.17 -16.17,-19.06l18.14 -2.69 -1.97 21.75zm-1234.94 44.76l44.9 16.71c0.37,12.65 3.04,9.05 -5.12,13.5l21.96 -11.79c9.21,22.54 44.98,32 72.98,31.97 -4.33,29.2 3.8,24.61 -14.12,24.68 34.3,-27.55 33.32,-10.74 42.18,-2.29 -12.95,7.72 -19.89,13.8 -37.86,13.67 -24.2,15.86 -21.42,4.47 -31.96,27.59 22.36,-8.05 21.11,-12.28 39.29,-22.23 17.58,-9.64 9.11,-2.62 24.47,2.18 20.1,-17.37 22.87,-16.1 30.99,-15.75l8.68 1.4c21.99,1.41 32.21,4.2 58.61,7.62 37.47,4.85 241.86,3.77 277.95,-2.87 28.31,-5.22 94.65,-23.18 115.5,-22.13 5.04,-4.23 2.45,-3.52 11.59,-8.44l66.97 -24.33c12.49,-2.08 10.23,0.51 24.54,-3.84 22.51,-6.85 20.28,-15.78 46.84,-2.95l12.25 6.07c-11.32,-10.65 -31.34,-10.33 -0.9,-28.33 11.9,-7.03 20.95,7.37 24.64,14.17 6.11,-35.5 -0.74,-14.24 13.25,-20.75l32.15 12.14c-8.27,-8.12 -15.88,-17.57 -22.04,-19.78 6.38,-7.07 0.47,-0.21 6.88,-2.67l8.62 -3.34c2.27,-0.75 5.49,-10.59 37.71,11.12l55.67 40.63c38.34,27.29 17.48,26.06 41.5,18.43 -35.07,-19.55 -3.86,14.98 -24.11,-22.46 2.38,0.91 17.43,7.85 17.55,7.89l9.04 1.71c0.73,-1.19 2.76,0.17 4.14,0.03 -3.07,-11.75 13.28,-9.23 -21.15,-9.68 32.7,-29.47 6.61,5.13 20.99,-21.45l4.72 -11.95c0.36,-0.59 1.35,-2.03 1.73,-2.57 0.69,-0.99 3.03,-3.42 3.77,-4.25 0.34,-0.37 1.51,-1.4 1.84,-1.76l12.31 -11.87c0.3,-1.46 1.71,-1.69 2.76,-2.23 0.23,1.35 0.14,3.2 -0.04,4.09l-12.91 27.8c16.55,2.04 6.95,-2.77 13.99,4.94 9.98,10.94 2.75,1.16 -2.83,6.2 11.46,35.53 13.91,9.03 -13.48,29.92 8.93,6.25 12.27,7.42 19.6,22.15l-17.37 19.67c17.85,9.96 12.76,3.95 10.6,17.81 -6.37,40.94 0.73,134.46 7.53,180.92l9.13 65.86c0.8,20.82 1.76,30.94 5.98,51.78l-8.29 0.64 7.17 22.76c1.7,6.82 3.46,21.04 4.12,28.55 24.96,284.53 17.19,393.86 -31.9,679.35 -21.54,125.28 -84.05,272.57 -166.02,366.87 -22.6,26.01 -38.93,47.49 -63.88,70.78 -38.33,35.81 -62.8,42.97 -102.29,60.92 -6.24,2.84 -6.5,3.82 -10.42,6.23 -0.97,0.6 -2.21,1.68 -3.19,2.28 -0.98,0.6 -2.27,1.59 -3.28,2.17l-127.7 44.15c-10.13,0.98 -29.69,1.5 -39.26,1.85 -22.25,0.81 -42.77,10.66 -59.69,12.3l-16.68 0.23c-1.44,0.06 -4.36,18.47 -31.93,-16.6l-2.66 15.13 -35.51 -14.95 -3.94 11.53c-0.15,-0.83 -1,2.12 -1.68,3.07 -18.82,-10.49 -18.06,-14.7 -28.39,-15.68l-10.85 -1.66c-14.72,-4.27 -5.14,-6.04 -16.67,7.6 -6,-15.92 -14.6,-16.45 -32,-21.13l3.81 22.57c0,-0.6 -0.09,1.79 -0.47,2.59 -11.29,-10 -10.6,-9.07 -17.37,-27.52l-25.57 -5.22c1.28,4.47 2.5,6.23 2.69,11.4 0.51,13.33 1.08,2.45 -3.36,10.35l-12.14 -32.42 -5.51 24.79c-0.08,-0.72 -0.15,2.37 -0.64,3.43 -13.46,-37.58 -16.56,-23.47 -16.65,-23.47 -0.83,-0.02 1.01,22.76 -5.36,1.36 -0.28,-0.96 -1.86,1.01 -2.88,0.96 -8.91,-28.79 -0.13,-34.11 -20.48,-21.47l5.25 -37.6c-13.18,12.66 -6.57,0.76 -12.55,22.98 -2.36,-31.06 2.79,-19.44 5.82,-43.77l-18.02 28.61c0.83,-18.83 11.12,-30.82 10,-48.5 -2.19,-34.97 -4.02,20.5 -1.56,-8.89 0.5,-6.1 0.7,-5.55 2.94,-9.25 4.1,-6.77 7.73,-7.91 12.9,-11.55 -14.39,1.25 -7.36,-0.51 -17.42,6.6l5.3 -16.57c-19.82,11.49 -30.8,27.34 -45.04,45.21l-8.92 9.88c1.79,-32.49 15.22,-36.72 30.35,-59.79 -27.93,14.94 -22.2,20.68 -42.97,39.7l13.14 -27.1 -19.11 8.08c5.79,-21.45 4.17,-12.69 12.26,-28.42l-24.5 20.27 13.46 -26.66c-6.82,3.03 -11.84,12.12 -26.37,16.09 1.38,-16.87 5.72,-20.56 5.74,-28.11 0.02,-7.76 -3.48,-2.3 -4.07,-25.15l-12.19 14.36c-0.94,1.25 -0.58,16.43 -4.77,7.19 -0.39,-0.85 -1.31,2.53 -2.22,3.61 -2.6,-28.71 0.95,-27.72 9.68,-50.19 -21.96,10.65 -3.94,14.72 -26.46,26.19l12.09 -42.81c-13.43,12.04 -6.78,12.49 -23.37,21.75l-5.56 -19.04c-9.37,-20.04 -10.49,-21.73 2.48,-56.31 -13.43,-1.88 -2.29,-3.28 -14.52,7.54l7.99 -31.81 -16.82 20.13c4.95,-36.82 0.91,-22.82 -0.65,-46.58 -0.1,-1.51 -0.3,-2.35 -1.81,-3.75l-15.97 27.77c-12.38,-21.47 -2.68,-13.71 5.72,-32.92 5.16,-11.81 3.14,-14.88 1.06,-36.19 -14.93,9.62 -13.83,10.52 -23.53,23.18l14.58 -38.43c-22.33,-10.14 2.14,19.81 -18.65,-6.64 -8.99,-11.45 -5.9,-2.46 -2.28,-22.55l-20.99 21.52 -1.16 -44.85c-0.04,-0.55 -0.16,-2.17 -0.22,-2.73 -0.06,-0.59 -0.35,-2.22 -0.42,-2.81l-1.26 -8.89c0.26,-8.84 -1.6,-4.87 5,-13.83 -16.14,0.66 -10.24,7.66 -19.87,2.99l14.52 -25.32c-21.49,1 -6.31,0.29 -26.9,18.44l16.03 -39.97 -23.57 24c-6.15,-38.19 2.74,-23.58 15.21,-50.24 -20.03,7.56 -10.72,9.85 -25.56,14.93 2.13,-17.71 8.09,-16.45 0.43,-27.36 -20.18,-28.75 0.65,26.97 -7.27,-8.14l21.2 -13.08c-1.08,-0.54 -2.89,-0.63 -3.54,-0.79 -27.76,-6.64 -1.55,7.4 -20.93,-6.3l16.13 -18.23c-16.01,10.31 -10.37,11.35 -21.87,8.55 7.08,-20.71 2.69,-8.99 21.86,-21.41l-15.41 -7.2c11.21,-5.34 0.52,0.8 10.99,-4.73 -4.3,-10.35 -0.58,-2.66 -5.94,-13.53 -6.72,-13.66 5.26,3.7 -4.26,-7.66 -8.28,-9.87 -4.62,-4.4 -16.98,-10.58 -5.21,-15.77 -1.63,3.2 2.89,-8.86 3.11,-8.33 6.35,6.91 2.27,-6.09 -24.96,-11.47 -15.12,-1.22 -18.94,-27.53l-0.91 -20.46c0.09,-0.36 0.53,-1.82 0.64,-2.17l3.91 -8.34c0.18,-0.51 0.99,-1.98 1.15,-2.54 5.88,-21.85 7.66,-11.98 -6.34,-23.71l14.42 -1.62c1.04,-2.37 5.08,-14.3 6.63,-17.89l-29.37 -10.37c-1.32,-0.74 -3.32,-3.22 -4.02,-2.15 -0.72,1.12 -3.21,-1.66 -4.18,-2.31 -1.02,-0.69 -3.11,-2.01 -4.25,-2.8 -1.22,-0.84 -3.22,-2.49 -4.33,-3.28 -7.08,-5.04 -5.98,-14.01 -8.4,-30.68l6.26 -1.36c2.87,-0.99 8.34,-3.04 11.48,-4.82 -21.77,-5.28 -16.26,5.26 -22.86,-20.03 25.74,-3.28 8.92,8.64 31.5,-6.32 20,6.48 13.58,-0.52 26.49,11.41 44.06,10.51 -18.84,-5.29 40.01,-8.59 62.77,-3.52 138.71,8.59 199.74,-1.78l1.03 -51.51 53.79 -1.72c-1.09,-14.87 -0.72,-35.41 5.79,-44.93 -7.3,51.56 -9.89,98.16 -23.04,147.31 -22.43,83.83 -67.51,155.43 -31.96,193.48 31.92,34.16 41.51,61.08 65.44,60.77l19.15 -5.17c1.37,-0.43 2.94,-0.85 4.32,-1.29l58.66 -25.32c-11.18,-10.9 -31.94,-20.24 -47.11,-22.61l-51.97 0.4c-3.97,-3.43 -10.62,-10.5 -17.62,-15.49 -17.28,-12.35 -35.76,-17.79 -28.07,-45.44 7.74,-27.83 25.04,-53.09 34.42,-83.54 25.71,-83.51 30.02,-108.77 32.27,-202.41 1.29,-1.08 3.31,-1.91 4.43,-2.43 1.1,-0.52 3.07,-1.68 4.41,-2.26l8.58 -3.4c4.16,-1.43 6.44,0.02 15.54,-3.13l0.12 -113.91 104.1 0.03 2.24 116.46 42.91 0.17 0.06 52.89 53.35 1.97 3.11 53.03 370.97 -1.87 0.59 -51.88 52.99 -0.41 2.77 -53.42 52.57 -1.72 0.73 -57.47 23.72 -2.65c14.8,-1.86 31.87,-27.39 42.12,-41.16 -8.39,-4.74 -4.49,-1.89 -9.77,-6.85l-7.74 -9.15c-5.68,-11.02 -2.54,-31.16 -5.72,-56.08 -111.86,-2.89 -190.45,10.46 -292.82,-21.21 -42.87,-13.26 -97.02,-13.32 -139.83,-0.05 -82.07,25.45 -32.97,22.33 -134.28,20.49 10.77,-18.38 12.79,-24.67 30.45,-37.05l0 17.94c20.39,-17.2 29.08,-37.88 71.5,-45.55 -7,-16.07 -12.48,-15.92 22.53,-32.53 21.49,-10.2 36.01,-11.2 59.35,-13.28 178.28,-15.86 195.15,60.82 301.21,67.41l50.13 -9.68c8.78,-3.47 4.03,-0.83 10.94,-4.61 -17.32,-7.94 -6.25,-0.38 -13.47,-1.19l-46.92 -9.97c-66.36,-10.8 -117.15,-46.06 -184.58,-62.74 -142.82,-35.32 -192.29,23.66 -230.36,35.39 -8.3,2.56 -11.3,0.48 -12.24,0.35 -33.53,-4.62 25.5,-8.83 -6.7,-2.22 -19.14,12.93 -74.19,69.86 -81.33,83.21 17.75,-11.39 13.73,-16.16 32.52,-27.35l-21.3 42.28 -181.42 0.08c-26.59,-6.41 -35.88,-96 -99.95,-106.97 11.39,14.69 23.45,20.34 20.18,36.65l-2.39 6.86c19.53,10.94 24.13,7.24 33.79,28.59 -24.88,-8.82 -43.08,-26.54 -58.29,-31.72 -8.34,15.15 0.27,-0.12 5.16,10.55 3.13,6.81 -2.47,5.2 3.3,12.27 7.05,-5.94 17.08,-2.38 27.82,1.25l-8.21 36.19c-77.62,-40.79 -141.26,-32.14 -229.68,-18.29 11.86,-26.4 13.62,-18.5 44.45,-27.98 -6.07,-3.6 -22.07,-9.63 -37.41,0.22 -18.25,21.79 -10.29,9.26 -35.84,19.92 -2.96,1.23 -12.08,10.35 -24.36,2.68 5.11,-22.77 -4.25,-15.68 26.99,-22l-5.91 -0.96c-0.86,-0.18 -2.95,-0.47 -3.86,-0.67l-15.01 -4.43c19.41,-23.89 5.24,-21.67 5.23,-21.69 -14.02,-41.76 1.98,-18.07 -4.06,-76.58l71.81 -3.9c150.73,16.34 95.94,48.06 149.35,55.1 8.95,-30.98 -29.68,-48.96 -57.93,-61.48 -55.2,-24.46 -96.3,-16.36 -90.59,-26.68l-6.51 11.71c-26.62,0.76 -41.36,2.47 -67.3,5.62 4.07,-16.88 7.98,-16.29 8.99,-18.05 18.69,-32.51 21.97,-17.31 -0.5,-28.67 -8.63,-33.34 -3.46,-36.89 -4.48,-56.95 -1.04,-20.27 -5.09,-12.98 -7.24,-34.05 -1.49,-14.55 0.22,-7.56 0.77,-16.59l0.3 -19.89c-0.01,-0.9 -0.05,-3.01 -0.05,-3.74 -0.02,-0.88 -15.25,-10.76 35.9,-19.09 58.16,-9.47 44.41,8.14 45.76,17.22 3.94,-28.46 2.01,-9.59 1.58,-16.46l-2.5 -20.53c-8.09,26.45 19.54,16.61 -78.53,24.56 -2.36,-24.33 1.3,-2.85 -11.7,-26.65 17.54,-13.42 34.24,-15.06 55.43,-13.36 -1.8,-0.37 -4.1,-0.51 -5.5,-0.62 -1.34,-0.11 -3.7,-0.46 -5.27,-0.56l-28.98 3.34c-1.29,-0.03 -3.22,-0.21 -4.47,-0.35 -18.27,-2.03 -3.89,2.89 -16.35,-5.29 9.38,-11.23 3.45,-6.1 16.83,-13.77 5.88,-3.39 10,-3.26 15.11,-4.37l-31.94 6.88c9.99,-26.65 3.56,-24.65 5.67,-32.69 8.51,-32.36 9.77,13.02 3.57,-11.74l-5.82 -15.8c-0.51,-3.92 -2.15,-4.6 -2.36,-7.07 63.03,3.51 24.63,-6.59 73.69,-0.64 -10.72,-12.45 -7.65,-5.64 -20.69,-2.97l-34.18 1.93c-18.71,-7.87 -3.35,6.51 -14.27,-15.16 60.51,-12.5 43.89,6.45 100.53,0 -5.52,2.15 0.62,1.9 -12.32,2.15l-93.82 -2.21 16.71 -17.44c11.29,-5.37 16.44,4.33 32.57,0.03 15.01,-4.01 3.94,1.9 13.73,-5.48l-57.4 6.05c0.28,-0.88 5.69,-18.88 5.8,-19.25 1.33,-4.6 2.79,-9.71 4.19,-15.01l11.01 -42.63c11.03,-19.59 -4.15,-8.86 18.26,-15.9 0.31,-8.94 -11.49,-1.89 0,-16.24 13.14,10.58 13.63,12.44 28.04,19.28 -18.05,21.91 2.43,6.95 -20.86,14.5 -28.32,9.17 -6.77,-2.55 -7.2,-4.37 2.58,1.97 12.3,1.57 16.9,2.22l28 4.49c-1.17,2.37 -2.09,4.79 -3.6,7.07l-11.51 15.48c-1.07,0.83 -2.77,1.54 -3.76,1.96 -28.58,12.29 -7.46,-2.92 -7.6,-3.02l-1.59 -6.41c0.65,13.78 -3.43,6.89 19.59,13.27 -17.91,-24.45 9.69,-13.89 19.7,-17.13 3.65,30.98 -13.7,5.9 21.01,28.22l80.03 50.5zm-22.46 -185.37c-3.17,29.8 -9.28,24.65 -7.35,53.65 12.06,-18.41 2.86,-14.11 18.16,-23.43l1.05 37.12 -16.87 15c-0.12,-0.7 -0.18,1.95 -0.57,2.84 -23.14,-7.75 -13.32,-10.04 -34.21,-16.63 1.29,-16.28 2.72,-31.62 3.68,-47.81 2.41,-40.73 9.64,-29.64 15.88,-35.16 2.76,23.96 2.71,16.66 -4.2,39.67 14.82,-38.35 2.44,-12.77 24.43,-25.25zm326.31 22.43c-11.6,17.86 -5.23,12.11 -29.78,11.43 7.58,-17.17 11.69,-35.61 29.78,-11.43zm-118.59 -56.66c-9.5,-7.97 -14.57,-1.95 -7.33,-17.99 7.88,-17.48 4.13,-11.12 19.05,-5.92 2.46,8.22 11.88,-12 0.08,13.33 -9.5,20.42 -4.98,6.19 -11.8,10.58zm120.66 -62.78c10.35,-26.01 7,-33.41 35.45,-29.81 -3.38,22.6 -6.33,36.46 -35.45,29.81zm-99.55 3.06c-1.45,-9.17 0.57,-14.16 8.97,-27.39 10.3,-16.24 3.52,-11.62 28.19,-13.5 -24.04,55.01 -18.49,47.01 -37.16,40.89zm364.66 -91.74c5.7,-33.23 12.56,-27.13 47.55,-32.67 -15.52,26.11 -10.2,30.55 -47.55,32.67zm-419.41 -15.67c9.03,-29.57 12.67,-30.77 42.31,-40.9 -3.88,34.49 -6.49,39.68 -42.31,40.9zm26.42 -57.23c11.15,-30.55 4.33,-30.49 37.33,-34.32 -8.32,28.62 -6.79,33.12 -37.33,34.32zm492.6 -56.97c15.59,-48.88 32.91,-45.01 55.12,-43.78 -7.4,9.26 2.79,-1.2 -8.79,9.68 -1.18,1.12 -5.12,3.95 -6.34,5.07 -24.78,22.82 -12.19,28.41 -39.99,29.03zm-330.99 -124.96c8.87,-33.08 3.68,-26.46 42.72,-31.71 -9.44,23.74 -14.26,23.89 -42.72,31.71zm-1128.25 3042.84l13.39 -26.21c0.02,-0.02 26.95,-19.66 38.42,-6.39l1.76 44.76c5.21,-6.97 2.53,8.38 4.34,-14.93l-0.34 -39.96c9.74,-3.67 19.66,-7.59 32.99,-14.71l0.13 34.06c-0.16,-29.54 -4.36,-24.33 7.51,-41.02 0.77,1.14 27.7,-2.02 -3.22,40.7l-12.6 21.43c-9.77,12.73 3.06,-0.28 -10.63,9.57 -24.95,25.09 -31.69,36.15 -50.19,64.46 -13.92,21.29 -31.92,54.58 -45.75,72.11 -30.79,39.02 -89.29,77.69 -108.01,127.68 -30.33,81 -32.49,218.26 -64.83,289.02 -11.45,25.06 -29.19,53.22 -28.11,84.89 100.82,-135.44 83.51,-360.37 139.63,-417.38 57.54,-58.46 81.34,-77.4 126.86,-153.9 52.1,-87.59 124.57,-143.99 127.77,-148.57l4.35 22.26 -2.46 44.38c-0.45,1.94 -0.76,3.23 -1.27,5.14l-3.59 10.59c-0.51,1.56 -1.21,3.69 -2.11,5.41 7.86,3.97 -9.97,12.29 7.25,-0.14 15,-10.83 1.2,-1.75 1.3,-2.17l-1.39 -3.28c-6.41,32.78 16.74,30 2.65,72.75 -0.12,0.38 -4.75,12.96 -4.75,12.96 -0.65,1.57 -1.26,2.95 -1.96,4.5 -0.7,1.55 -1.42,2.9 -2.13,4.42l-9.09 19.25c-9.28,31.94 7.59,1 -14.32,40.3 -6.77,12.16 -3.86,15.82 -4.76,36.67l-8.58 3.25c-0.23,0.21 -1.42,1.1 -1.61,1.37 -6.88,9.62 1,30.85 -15.5,46.77 -13.97,92.22 -27.69,41.33 -34.67,116.53 -1.83,19.71 8.43,-2.7 0.76,57.3 -14.26,111.44 -8.93,262.5 -8.71,366.31 10.94,-8.69 9.54,-9.54 26.96,-10.19l-9.34 -16.23c-2.82,-9.26 -2.05,-0.94 -0.66,-15.01 8.15,-3.75 6.72,4.52 17.59,0 -3.14,-27.16 -14.49,-18.57 -16.76,-50.57 -1.26,-17.72 3.71,-47.49 5.04,-67.09 3.82,-56.09 -2.49,-84.7 29.43,-112.48 -0.94,-0.54 -2.87,-1.56 -3.23,-0.49l-17.38 0.49 18.89 -22.47c0.01,0.03 -10.6,-0.62 -15.22,-17.61 -2.28,-8.4 -0.24,-23.79 0.68,-32.81 11.06,-108.15 66.99,-315.22 109.35,-401.56 16.89,-1.23 18.72,9.16 36.51,-2.68 -4.27,-1.79 -11.22,2.64 -18.3,-11.22 8.31,-15.33 13.24,-16.94 23.22,-27.56 -13.24,1.92 -19.67,5.91 -28.73,10.53 51.25,-179.78 137.61,-225.19 212.81,-320.99 14.53,-18.52 20.43,-29.37 38.92,-36.08 14.81,-5.36 0.69,9.09 16.34,-9.85 6.33,-7.65 9.62,-15.05 16.31,-22.58 47.58,-53.65 279.19,-163.38 356.28,-182.88 3.08,-1.96 30.84,-10.21 33.65,-17.76 22.49,-4.51 7.87,13.73 11.81,-23.16l26.24 3.25c10.76,2.13 4.47,9.67 15.88,-3.5 -6.15,-14.94 -8.01,14.12 -7.39,-11.14l4.81 -12.55c0.61,-1.27 1.85,-3.49 3.32,-4.75 18.97,17.17 13.05,0.68 1.7,32.93 1.77,-0.59 9.53,-4 10.62,-4.29 22.11,-5.85 11.11,-7.31 11.9,3.34 0.01,0.13 -0.57,1.17 -0.3,1.67 7.4,-16.3 33.47,-3.5 33.59,-3.51 14.93,-1.09 13.02,-4.02 5.73,-39.07l50.49 1.98 5.64 -30.5c-0.98,5.36 -9.44,7.15 -17.95,4.61l-26.96 -15.41 21.03 -6.34c32.61,2.52 6.83,1.5 18.21,8.12l-0.39 -5.64c7.75,-16.73 -2.53,-11.59 28.45,-16.18 -0.78,1.87 -2.42,2.35 -2.91,5.35 -4.25,26.19 -19.6,-10.25 -8.29,20.11 1.7,0.66 4.41,1.44 5.22,1.51 14.08,1.32 23.95,-2.3 37.26,7.91 3,8.27 -7.3,10.6 6.85,2.72 54.8,17.65 205.94,-15.67 262.41,-31.1 29.35,-8.01 182.99,-78.42 186.17,-114.12 -24.12,8.5 -136.99,107.94 -250.97,117.36 -20.34,1.68 -82.5,8.58 -100.57,4.35 -11.61,-2.72 -7.72,-1.46 -14.28,-5.83 94.76,-7.51 185.36,-25.27 260.81,-61.13 64.82,-30.8 129.47,-93.7 179.07,-141.26 13.21,-12.67 20.89,-25.64 35.39,-43.19 34.56,-41.84 30.64,-54.52 58.54,-98.42 49.49,-77.87 83.9,-212.63 98.61,-310.83 36.15,-241.2 52.02,-342.07 22.35,-602.86 -5.85,-51.49 -9.43,-91.81 -12.04,-145.38 -6.18,-127.04 -15.53,-156.88 -1.21,-302.79 5.14,-52.46 25.16,-95.22 27.43,-144.6 -27.03,2.04 -194.4,57.83 -223.42,72.29 -65.62,32.7 -154.72,59.94 -219.27,81.21 -135.94,44.78 -390.81,55.47 -520.19,-9.75 -96.09,-48.44 -219.61,-73.96 -261.53,-146.71 27.76,7.26 47.58,21.04 74.42,30.58 57.71,20.51 92.34,57.2 224.94,83.43 178.96,35.42 563.19,-0.26 725.95,-71.8 93.15,-40.94 198.24,-84.47 290.67,-124.57 -53.24,164.4 -1.42,269.37 -14.99,338.99 -9.2,47.26 -16,59.31 -19.27,116.28 14.57,-28.62 13.51,-79.64 26.26,-111.87 16.79,69.73 -35.06,181.39 -22.57,242.55 6.44,-38.54 19.05,-137.47 30.22,-165.82 32.56,67.79 -37.5,246 -36.82,261.76 15.57,-22.78 56.38,-148.88 49.57,-178.92 15.26,243.52 -122.03,409.97 -82.1,509.35 0.71,1.79 3.33,6.87 4.07,8.33l4.75 7.95c3.52,-55.78 -8.49,-48.49 14.3,-132.33l30.43 -93.13c10.31,-11.28 -4.3,-10.65 8.68,-1.79 19.98,-4.14 12.25,37.59 12.25,37.63 -1.62,35.34 10.72,12.91 1.42,47.71 -12.87,48.13 -31.67,104.41 -29.94,158.87 1.07,34.11 -27.7,127.4 -40.93,152.69 16.98,-7.16 27.71,-71.69 42.13,-94.68 -3.17,45.29 -38.97,136.96 -57.79,171.16 27.24,-15.17 31.76,-74.42 56.69,-122.96 3.54,55.22 -43.29,120.29 -40.06,133.92 6.1,25.81 -4.49,-20.37 3.32,5.06 7.15,23.24 -78.49,211.05 -90.34,246.45 26.85,-29.26 83.62,-191.02 100.34,-245.85l9.62 -24.96c4.33,-7.14 4.02,-6.11 8.17,-10.32 -9.28,51.26 -36.93,136.66 -54.28,183.49 -16.9,45.64 -45.73,126.73 -79.41,152.92 29.94,-2.73 44.03,-52.34 55.81,-80.79l44.2 -100.24c-14.52,67.52 -75.86,247.79 -121.77,303.38 -10.54,12.76 -65.76,59.28 -78.13,66.24l25.68 -4.33c20.56,2.4 11.19,-0.02 41.22,-16.52l21.59 -13.3c7.29,-4.55 0.86,-1.36 10.55,-6.26 6.32,-3.19 10.41,-4.01 15.39,-6.18 1.35,-7.42 8.64,2.83 -2.11,-5.08 -0.09,-0.07 -8.81,-4.42 -9.94,-4.96 7.34,-0.48 10.09,0.2 17.53,-1.52 30.18,-6.99 -14.26,5.35 9.86,-2.89l-30.74 -3.88c14.53,-8.01 36.25,-9.2 59.03,-11.21 -4.85,-13.79 -14.42,-5.48 -2.5,-17.89 -25.36,-7.13 -18.37,7.84 -41.02,-14.51 34.5,-11.12 -1.48,0.18 14.04,-17.55 16.68,-19.06 -10.74,-20.54 28.39,-6.12 -1.49,-1.18 -3.69,-4.86 -4.3,-3.78 -0.1,0.15 -14.46,-8.09 -6.84,-33.09 23.38,-76.73 64.92,-164.33 82.27,-240.3 5.5,-24.06 12.6,-19.87 9.93,-47.18 16.81,12.08 11.6,-14.42 22.87,24.55l-14.69 70.02c-0.22,0.16 -1.5,0.43 -2.17,0.82 17.71,29.48 -2.68,36.17 -2.03,66.61 0.5,23.59 5.77,10.66 4.05,37.47 -1.59,24.81 -8.82,26.33 -3.28,69.55 2.78,21.68 1.37,-2.89 2.62,18.02l-0.37 26.37c0.63,23.18 10.18,55.18 11.56,77.45 -3.2,24.38 6.43,50.86 3.37,60.74 -1.38,4.41 -23.16,32.89 -29.77,46.12 -56.54,113.36 -203.1,175.04 -221.82,239.68 20.88,-10.33 15.79,-16.53 31.21,-32.14 9.97,-10.09 24.84,-18.63 38.21,-28.94 14.17,-10.92 22.65,-15 39.37,-28.19 115.74,-91.3 120.98,-156.17 146.66,-182.09 4.02,40.34 17.03,116.95 -0.13,149.1 -14.86,27.84 -49.34,81.41 -47.67,113.29 19.55,-18.84 43.72,-78.03 52.77,-110.04 15.26,100.04 -29.31,119.63 -95.02,187.33 -25.27,26.05 -91.16,76.12 -125.87,93.1 -14.94,7.31 -38.81,13.48 -43.68,16.11 12.43,14.86 18.34,10.43 61.34,-15.33 42.39,-25.38 150.27,-110.52 165.37,-143.92l3.59 11.21c0.35,1.29 1.45,6.15 1.77,7.42l42.59 -60.56c22.51,24.67 40.8,62.43 80.17,63.37 34.3,0.81 94.58,8.25 104.59,47.57 -22.09,-3.72 -9.06,-0.29 -24.4,-20.11 -15.79,18.46 -0.56,14.94 -15.84,4 -12.27,-8.77 -9.28,-19.68 -32.16,-5.92 10.43,6.79 41.87,24.57 40.71,56.94 -0.77,21.48 1.91,1.09 -10.2,21.11 6.37,8.66 -0.76,-5.99 7.19,12.05 0.37,0.84 4.67,13.19 5.5,15.42 -8.22,-34.26 1.05,-26.79 26.66,-31.5 0.24,41.87 0.83,20.46 -15.73,44.99 -10.83,16.06 -3.7,21.97 -19.09,35.19 -46.92,40.32 -9.39,42.51 -56.27,57.17l-0.81 -27.88c-14.2,7.93 -1.5,-6.35 -16.11,10.2 -23.16,26.23 7.87,36.19 -27.37,55.62 -23.4,38.28 -23.49,40.74 -43.85,48.2l18.11 6.29 -23.64 14.9c-0.7,0.84 -1.71,2.16 -2.35,3.08 -20.45,29.84 6.35,25.7 -30.37,37.44l0 -31.53c-0.38,1.43 -1.39,2.02 -1.84,4.03l-21.72 16.31c3.54,14.99 21.31,12.43 9.76,25.74 -9.43,10.88 -18.39,8.01 -35.94,20.33l-34.63 21.95c-25.19,8.78 17.89,1.4 -21.08,10.17l-1.43 -27.68c0.29,0.06 10.5,-2.36 4.48,17.51 -7.49,24.73 6.18,4.31 -15.45,21.76 -4.89,-36.69 -3.99,2.24 -9.24,-19.85 -10.17,-42.79 -9.8,-11.88 6.81,-26.82l-43.5 7.41c6.63,-6.97 20.23,2.98 31.24,-18.03l-35.74 7.2 4.66 -24.3c-14.81,-4.5 -7.01,9.42 -12.24,-18.02 40.82,-6.49 32.97,-4.25 62.87,7.26l1.81 -32.17 -40.24 -4.74c-0.02,0.72 0.09,1.65 0.05,1.81 -3.58,16.48 -15.31,7.84 -39.22,20.08 -12.38,8.27 -5.08,3.05 -11.52,17.43 -85.02,1.91 -34.19,-18.41 -97.58,-59.72 -25.4,-16.55 -4.16,-16.18 -27.09,-37.02 -23.27,-21.14 -16.26,1 -10.01,-9.24 5.96,5.36 4.76,3.94 16.19,5.27 2.52,0.29 15.75,-0.3 24.12,0.54 3.63,19.39 4.04,1.5 -4.36,25.04l27.15 -29.65c14.5,0.93 3.98,-3.92 9.86,5.5l8.48 -14.74c1,-1.43 2.73,-3.53 4.13,-5.26l12.01 0.79c17.66,-16.36 61.8,-29.86 83.97,-43.78 102.8,-64.53 159.14,-142.19 262.6,-143.33 -8.28,21.34 -17.19,13.21 -32.21,29.12 12.01,5.13 52,-4.49 36.61,-39.29 -37.85,-14.76 -109.74,23.79 -133.34,40.03 -18.83,12.96 -31.51,26.76 -50.08,39.79 -38.02,26.65 -146.57,107.81 -187.15,96.56 -22.34,-6.2 5.26,10.26 -47.55,-8.54l-3.03 -1.28c-0.16,-0.02 -1.3,-0.23 -1.46,-0.24l-2.85 0.79c-8.11,0.31 -3.3,21.58 -7.39,-14.09l-1.3 10.55 2.82 32.87 -12.72 -1.97c-13.54,-19.53 0.78,-15.12 1.08,-15.65l0 28.83c-2.34,-0.87 -5.41,-4.61 -6.98,-2.67 -3.4,4.21 -7.59,-4.33 -24.65,-8.49 -1.54,4.9 -3.24,1.06 1.52,15.25 7.12,23.71 125.89,128.29 164.09,243.94l-43.41 0.17c13.21,28.29 8.34,17.23 46.6,20.85 -21.64,13.32 -12.62,2.37 -29.54,11.65 13.68,18.79 20.76,16.96 29.87,23.88 -32.46,11.84 -28.64,13.2 -30.15,21.98 -5.78,33.72 -2.35,6.63 3.97,17.71 10.28,-0.97 -3.59,-8.27 17.81,-18.71 23.08,13.28 7.75,18.31 25.71,25.79 -4.26,-7.11 -4.76,-12.81 -8.85,-19.61 -13.18,-21.87 1.05,-8.37 -18.78,-17.93l25.63 -11.38c-10.96,-7.03 -10.18,-6.5 -18.79,-17.09 22.65,2.92 15.81,-9.46 35.23,50.98 2.37,7.39 7.36,25.59 7.63,27.45 4.72,32.15 5.66,3.24 -8.11,28.09 15.75,-4.87 12.29,-9.9 17.77,3.9 6.46,16.27 7.31,5.07 -9.83,11.65 25.2,4.84 13.25,-4.41 20.69,17.57 3.05,9.05 4.37,24.68 8.34,35.25l-14.82 6.97c-9.04,2.93 -14.12,2.94 -21.54,5l38.39 4.1c39.01,79.17 35.27,198.33 62.48,267.74 35.63,90.87 6.14,272.11 15.22,311.92l16.13 -23.84c2.19,-24.89 -1.78,-38 7.07,-42.73 0.21,-0.11 1.6,-0.5 1.82,-0.58 0.24,-0.09 1.92,-0.4 2.14,-0.46 5.86,-1.7 11.61,-44.08 23.14,-67.26l35.07 -57.1c1.13,-1.5 2.56,-3.37 4.02,-4.9 -10.8,20.96 -17.57,22.7 -16.9,44.7 35.08,-81.17 41.99,-35.28 40.6,-95.42l36.64 71.16 -0.27 -9.15c4.39,6.44 -4.86,14.26 44.7,19.17 -1.02,-1.39 -2.94,-4.81 -3.51,-3.78 -0.09,0.17 -17.54,-13.76 -11.67,-32.25 -9.15,-5.37 4.01,-0.57 -7.01,-0.61 -15.21,-0.06 5.25,6.64 -8.99,0.34 -3.24,-33.54 1.91,-28.95 10.92,-49.84l12 10.65c3.6,2.82 10.59,7.56 12.93,9.07 27.44,-8.36 61.97,-43.68 91,-10.34 38.47,44.19 -58.52,52.38 -79.81,68.52 16.3,11.42 2.36,5.93 40.42,-3.3 23.58,-5.71 33.13,0.79 47.01,8.62l0.93 23.7c-31.36,24.01 -60.35,12.13 -85.17,21.5 13.58,8.11 36.84,3.53 53.02,2.82 11.81,45.61 18.78,15.19 9.9,82.4l-61.47 -24.03c-25.93,-13.2 -15.03,-28.06 -21.52,-49.21l-4.01 -8.98c-0.5,-1.15 -1.43,-3.09 -2.51,-4.37 -6.33,86.18 15.41,71.65 77.59,98.58l-10.99 44.6c-75.35,-7.95 -45.01,-24.22 -61.57,-56.03 -13.52,15.4 -10,27.55 -7.01,51.42 22.62,11.73 14.76,9.74 40.86,15.84 17.26,4.04 13.83,-7.25 24.96,24.14l2.93 8.76c5.51,-10.42 15.4,-28.95 18.84,-39.36l3.34 -9.26c13.73,-35.56 5.76,-35.31 9.82,-52.35 7.84,-32.91 3.18,-11.99 13.35,-21.87 10.39,-23.11 -0.33,-44.57 -1.46,-70.31 47.8,-28.49 10.8,-42.18 14.5,-80.55 16.43,-169.91 -10.55,-62.8 -3.52,-171.22 1.14,-17.58 14.99,-31.85 15.14,-54.9 0.42,-66.36 6.91,-27.46 12.4,-64.15 5.39,-36.04 -15.15,-36.13 1.8,-59.36 9.27,-12.7 26.77,-25.28 42.03,-41.74 -12.14,-20.16 3.5,-6.25 -8.53,-2.22 -7.33,2.45 -4.75,3.14 -10.13,8.74 -17.59,18.3 -8.38,12.45 -28.96,20.59l31.81 -49.07c15.3,-16.75 11.42,-8.58 21.16,-13 25.7,-11.65 13.76,8.46 23.33,-24.75l-71.5 64.01c-1.6,1.08 -3.67,2.01 -5.06,2.87 -1.44,0.91 -3.48,2.09 -5.35,2.82 15.24,-34.06 51.42,-54.67 62.43,-64.05 16.95,-14.41 4.51,-6.08 15.57,-22.99l129.45 -112.65c95.08,-74.21 159.72,-96.61 265.32,-140.15 38.67,-15.93 77.52,-37.33 116.84,-47.21 52.97,-13.32 164.68,-18.85 221.2,-1.6l61.98 26.76c-10.22,16.98 -5.86,-5.7 -8.41,5.92 22.05,0.71 12.91,-1.15 25.47,6.6l5.81 5.12c24.52,19.63 -20.38,-1.98 11.75,7.17 31.09,8.84 142.26,49.65 122.28,101.12 12.89,8.76 19.38,18.93 29.57,24.31 -2.52,-70.47 -44.34,-95.03 -75.45,-145.6l-33.27 -51.44c-8.25,-11.47 -5.71,-17.35 -15.29,-26.05l-19.81 -11.62c-11.93,-7.11 -23.61,-12.81 -37.55,-24.31 -39.89,-32.93 -78.53,-72.7 -130.4,-99.95 -112.76,-59.22 -157.06,-47.48 -159.21,-183.99l-3.87 -91.07c-11.4,-80.16 -32.17,-107.86 -57.68,-171.48 -21.38,-53.27 -51.6,-106.81 -60.33,-165.06l-15.03 -34.79c-16.24,-47.89 -18.92,-97.8 -24.08,-149.71l-3.8 -221.76c0.22,-1.77 0.47,-3.07 0.69,-4.84l2.52 -30.21c9.66,-126.37 -43.26,-306.22 -61.28,-434.29l-10.11 -95.2c-29.27,-73.74 -13.18,-138.16 -24.71,-199.63 -8.4,-44.71 -31.28,-131.94 -43.45,-175.22 -4.02,-14.28 -23.49,-54.75 -27.9,-75.7 -0.19,-0.87 -0.39,-2.51 -0.59,-3.36l-4.44 -13.44c-2.7,-7.79 -4.62,-14.01 -6.36,-21.55 -5.34,-23.08 -6.14,-27.25 -13.9,-47.34 -11.03,-28.58 -16.74,-55.53 -26.55,-85.77 -8.34,-25.69 -31.76,-56.28 -17.45,-80.64 -35.2,-11.29 -19.67,-12.19 -48.17,-61.31 -41.27,-71.13 -95.7,-140.34 -164.03,-189.69 -26.29,-18.99 -49.15,-24.3 -72.44,-40.66 -0.97,-0.68 -2.18,-1.88 -3.09,-2.56l-11.24 -8.48c-11.82,-4.76 0.22,0.78 -18.21,-2.04 -18.02,-2.75 -28.13,-10.7 -42.31,-17.85 -29.55,-14.93 -49.37,-23.39 -81.96,-36.28 -93.14,-36.86 -160.89,-65.23 -262.32,-86.04l-43.22 -11.98c-121.87,-19.59 -247.37,-39.06 -371.26,-20.18 -66.33,10.11 -222,25.39 -276.51,59.9l-107.31 66.86c-35.96,19.81 -82.58,40.84 -111.45,67.98l-169.73 178.51c-50.18,72.7 -108.11,126.22 -134.4,213.56 -79.78,265 -9.84,315.24 -37.71,523.07 -2.14,15.95 -5.96,41.57 -6.85,49.74 -1.07,9.86 -0.79,31.13 -1.11,50.24l-98.17 0.84 -0.59 107.31 54.9 3.88c0.1,57.55 -12.66,42.91 22.75,71.91 -2.59,114.61 7.28,231.42 8.59,348.03 1.32,117.39 2.78,238.37 -10.57,353.17 -12.67,108.87 -35.2,199.5 -60.73,298.93 -23.57,91.81 -65.45,181.29 -91.37,273.7 -27.57,98.31 -56,177.91 -85.94,273.32 -13.85,44.14 -36.39,47.8 -63.82,70.07 -140.58,114.14 -380.91,87.38 -422.73,352.46 -4.01,25.41 -5.47,50.87 -12.44,77.63 -2.61,10.06 -6.45,24.78 -9.93,35.04 -6.78,19.91 -9.68,17.42 -16.03,33.08 66.28,-27.84 36.84,-88.75 76.48,-203.68 24.56,-71.17 70.59,-113.24 130.99,-148.47l14.46 18.75c0.2,-0.92 0.98,-2.87 1.16,-4.05 0.2,-1.28 0.55,-3.03 0.68,-4.52 0.73,-8.05 -0.37,-13.58 -1.11,-21.42l8.27 9.43c0.58,0.7 2.14,2.59 2.66,3.22 0.52,0.63 1.72,2.17 2.63,3.22l3.41 -26.03 10 22.97c0.43,0.98 1.14,2.96 2.06,4.23l10.11 -26.92 7.95 20.75 8.37 -37.64 5.56 34.94c19.58,-23.34 -7.03,-29.79 19.21,-43.48 8.63,17.91 6.03,30.56 1.74,49.92 22.79,-9.46 4.23,-41.43 15.1,-57.63l2.84 17.67z"/>
   <path class="fil1" d="M1540.29 2176.35c-31.91,26.98 -11.24,18.99 -37.06,22.49 -10.92,-17.56 -5.4,-17.94 -9.32,-27.99 -0.26,-0.66 -1.13,-1.91 -1.43,-2.58 -0.57,-1.26 -3.54,-4.45 -4.09,-5.97 -4.09,-11.34 -4.05,-6.84 -1.68,-19.63 18.04,-9.54 53.48,4 75.06,7.62 -13.38,11.24 11.62,2.54 -19.01,9.98 -5.17,1.25 -19.63,2.03 -27.16,3.34 7.68,2.1 15.48,5.74 24.69,12.74zm-259.71 -136.51c-4.17,-25.15 -3.78,-26.21 5.65,-47.46 17.87,4.07 -4.59,-4.08 7.96,6.13 7.25,5.9 1.7,4.33 8.77,6.64 9.84,3.21 64.42,-14 105.05,-14.06 52.55,-0.07 83.43,56.04 125.75,24.74 31.95,-23.62 26.71,-52.08 119.3,-34 20.63,4.03 46.95,9.16 70.48,13.82l65.58 -4.46 -5.23 54.44c-14.27,-10.89 -9.87,-9.98 -22.45,-23.19 -52.8,0.07 -86.82,-6.73 -136.31,-13.25 -69.78,-9.2 -65.31,22.91 -106.64,38.25 -41.46,15.39 -68.46,-19.63 -123.09,-18.23 -21.42,0.55 -34.77,3.21 -54.75,2.92 -66.8,-1.01 -38.94,8.4 -60.07,7.71zm242.96 -169.33c12.03,8.33 8.94,-8.15 16.27,30.37 10.52,-20.89 -1.33,-4.05 17.14,-12.71 1.93,37.61 16.4,59.39 -14.42,62.98 -16.32,-23.15 -25.2,-52.91 -18.99,-80.64zm125.63 -159.29c0.09,0.09 11.69,-2.89 11.33,32.9 -0.16,16.04 -5.18,28.21 -9.35,40.68 -24.37,5.1 -51.83,2.04 -76.15,8.95 -28.1,7.98 -46.43,18.44 -51.2,-17.7 52.16,-13.82 87.07,11.53 123.66,-5.88 6.02,-30.88 -8.27,-41.61 1.71,-58.95zm249.89 -920.66c-20.85,-1.05 -87.19,16.91 -115.5,22.13 -36.09,6.64 -240.48,7.72 -277.95,2.87 -26.4,-3.42 -36.62,-6.21 -58.61,-7.62l-8.68 -1.4c-8.12,-0.35 -10.89,-1.62 -30.99,15.75 -15.36,-4.8 -6.89,-11.82 -24.47,-2.18 -18.18,9.95 -16.93,14.18 -39.29,22.23 10.54,-23.12 7.76,-11.73 31.96,-27.59 -21.89,2.76 -62.51,30.1 -68.79,44.92 -30.35,-11.12 -8.22,6.92 -20.64,-19.79 -1.29,5.85 -2.49,13.18 -19.9,12.61 -23.99,-0.79 -9.98,5.64 -16.53,-16 -7.58,10.87 -2.24,-7.51 -3.99,10.72 -0.2,2.07 2.11,18.8 2.24,19.78l-8.07 -8.05c-22.83,-15.4 8.58,-7.49 -10.26,-4.32 -12.53,2.11 -5.31,5.8 -13.99,16.89 -3.44,-19.97 2.61,-10.78 -9.87,-19.16 -5.73,9.54 -4.21,10.96 -1.25,26.87l-16.21 -11.17c-9,8.74 -33.41,30.72 -43.75,36.43 50.47,5.12 36.52,-10.6 71.04,-23.57 -2.89,13.92 -0.47,6.87 -10.13,15.94l-81.73 66.51c29.96,5.07 14.93,-2.97 42.74,-12.46 4.02,8.11 8.89,1.91 -7.19,18.71 40.44,-17.15 18.17,-5.33 26.75,1.06 -17.2,5.95 -9.9,4.86 -26.01,11.58l22.47 17.15 -24.54 8.92c42,-5.78 15.91,2.29 25.33,9.43 -25.97,8.52 -9.71,2.8 -21.47,10.62l-22.54 13.6c-5.71,10.32 35.39,2.22 90.59,26.68 28.25,12.52 66.88,30.5 57.93,61.48 -53.41,-7.04 1.38,-38.76 -149.35,-55.1 1.29,0.75 3.29,1.33 4.14,1.75l33.84 33.9 -33.81 20.24c-0.48,-1 -2.22,1.38 -3.32,2.09 2.93,-0.03 21.08,-0.92 21.53,-0.86l13.42 4.48c0.76,-1.29 2.78,1.43 3.96,2.45 -25.26,7.76 -41.85,0.84 -60.21,16.09 9.51,5.44 -6.92,2.66 8.9,1.23 10.27,-0.94 -7.76,1.18 5.69,-1.58 5.37,-1.11 -3.32,-2.17 6.36,-1.56l32.41 7.1c-6.73,5.11 4.85,-0.24 -11.57,5.71 -5.41,1.97 -8.79,2.03 -13.14,3.44l-19.63 10.01c-0.66,-1.16 -2.42,2.06 -3.56,3.14 15.34,-9.85 31.34,-3.82 37.41,-0.22 -30.83,9.48 -32.59,1.58 -44.45,27.98 88.42,-13.85 152.06,-22.5 229.68,18.29l8.21 -36.19c-10.74,-3.63 -20.77,-7.19 -27.82,-1.25 -5.77,-7.07 -0.17,-5.46 -3.3,-12.27 -4.89,-10.67 -13.5,4.6 -5.16,-10.55 15.21,5.18 33.41,22.9 58.29,31.72 -9.66,-21.35 -14.26,-17.65 -33.79,-28.59l2.39 -6.86c3.27,-16.31 -8.79,-21.96 -20.18,-36.65 64.07,10.97 73.36,100.56 99.95,106.97l181.42 -0.08 21.3 -42.28c-18.79,11.19 -14.77,15.96 -32.52,27.35 7.14,-13.35 62.19,-70.28 81.33,-83.21 32.2,-6.61 -26.83,-2.4 6.7,2.22 0.94,0.13 3.94,2.21 12.24,-0.35 38.07,-11.73 87.54,-70.71 230.36,-35.39 67.43,16.68 118.22,51.94 184.58,62.74l46.92 9.97c7.22,0.81 -3.85,-6.75 13.47,1.19 -6.91,3.78 -2.16,1.14 -10.94,4.61l-50.13 9.68c-106.06,-6.59 -122.93,-83.27 -301.21,-67.41 -23.34,2.08 -37.86,3.08 -59.35,13.28 -35.01,16.61 -29.53,16.46 -22.53,32.53 -42.42,7.67 -51.11,28.35 -71.5,45.55l0 -17.94c-17.66,12.38 -19.68,18.67 -30.45,37.05 101.31,1.84 52.21,4.96 134.28,-20.49 42.81,-13.27 96.96,-13.21 139.83,0.05 102.37,31.67 180.96,18.32 292.82,21.21 3.18,24.92 0.04,45.06 5.72,56.08l7.74 9.15c5.28,4.96 1.38,2.11 9.77,6.85 -10.25,13.77 -27.32,39.3 -42.12,41.16l-23.72 2.65 -0.73 57.47 -52.57 1.72 -2.77 53.42 -52.99 0.41 -0.59 51.88 -370.97 1.87 -3.11 -53.03 -53.35 -1.97 -0.06 -52.89 -42.91 -0.17 -2.24 -116.46 -104.1 -0.03 -0.12 113.91c-9.1,3.15 -11.38,1.7 -15.54,3.13l-8.58 3.4c-1.34,0.58 -3.31,1.74 -4.41,2.26 -1.12,0.52 -3.14,1.35 -4.43,2.43 -2.25,93.64 -6.56,118.9 -32.27,202.41 -9.38,30.45 -26.68,55.71 -34.42,83.54 -7.69,27.65 10.79,33.09 28.07,45.44 7,4.99 13.65,12.06 17.62,15.49l51.97 -0.4c15.17,2.37 35.93,11.71 47.11,22.61l-58.66 25.32c-1.38,0.44 -2.95,0.86 -4.32,1.29l-19.15 5.17c-23.93,0.31 -33.52,-26.61 -65.44,-60.77 -35.55,-38.05 9.53,-109.65 31.96,-193.48 13.15,-49.15 15.74,-95.75 23.04,-147.31 -6.51,9.52 -6.88,30.06 -5.79,44.93l-53.79 1.72 -1.03 51.51c-61.03,10.37 -136.97,-1.74 -199.74,1.78 -58.85,3.3 4.05,19.1 -40.01,8.59l-11.56 1.52c19.38,13 13.11,0.7 30.67,19.75 -14.71,10.24 -18.05,2.12 -26.16,5.61 17.92,12.4 13.48,3.95 27.01,22.46 -1.23,0.73 -3.43,0.3 -3.87,1.89l-8.37 2.64c-0.19,0.09 -1.26,0.21 -1.42,0.32l-33.99 8.15 29.37 10.37c-1.55,3.59 -5.59,15.52 -6.63,17.89l-14.42 1.62c14,11.73 12.22,1.86 6.34,23.71 -0.16,0.56 -0.97,2.03 -1.15,2.54l-3.91 8.34c-0.11,0.35 -0.55,1.81 -0.64,2.17l0.91 20.46c3.82,26.31 -6.02,16.06 18.94,27.53 4.08,13 0.84,-2.24 -2.27,6.09 -4.52,12.06 -8.1,-6.91 -2.89,8.86 12.36,6.18 8.7,0.71 16.98,10.58 9.52,11.36 -2.46,-6 4.26,7.66 5.36,10.87 1.64,3.18 5.94,13.53 -10.47,5.53 0.22,-0.61 -10.99,4.73l15.41 7.2c-19.17,12.42 -14.78,0.7 -21.86,21.41 11.5,2.8 5.86,1.76 21.87,-8.55l-16.13 18.23c19.38,13.7 -6.83,-0.34 20.93,6.3 0.65,0.16 2.46,0.25 3.54,0.79l-21.2 13.08c7.92,35.11 -12.91,-20.61 7.27,8.14 7.66,10.91 1.7,9.65 -0.43,27.36 14.84,-5.08 5.53,-7.37 25.56,-14.93 -12.47,26.66 -21.36,12.05 -15.21,50.24l23.57 -24 -16.03 39.97c20.59,-18.15 5.41,-17.44 26.9,-18.44l-14.52 25.32c9.63,4.67 3.73,-2.33 19.87,-2.99 -6.6,8.96 -4.74,4.99 -5,13.83l1.26 8.89c0.07,0.59 0.36,2.22 0.42,2.81 0.06,0.56 0.18,2.18 0.22,2.73l1.16 44.85 20.99 -21.52c-3.62,20.09 -6.71,11.1 2.28,22.55 20.79,26.45 -3.68,-3.5 18.65,6.64l-14.58 38.43c9.7,-12.66 8.6,-13.56 23.53,-23.18 2.08,21.31 4.1,24.38 -1.06,36.19 -8.4,19.21 -18.1,11.45 -5.72,32.92l15.97 -27.77c1.51,1.4 1.71,2.24 1.81,3.75 1.56,23.76 5.6,9.76 0.65,46.58l16.82 -20.13 -7.99 31.81c12.23,-10.82 1.09,-9.42 14.52,-7.54 -12.97,34.58 -11.85,36.27 -2.48,56.31l5.56 19.04c16.59,-9.26 9.94,-9.71 23.37,-21.75l-12.09 42.81c22.52,-11.47 4.5,-15.54 26.46,-26.19 -8.73,22.47 -12.28,21.48 -9.68,50.19 0.91,-1.08 1.83,-4.46 2.22,-3.61 4.19,9.24 3.83,-5.94 4.77,-7.19l12.19 -14.36c0.59,22.85 4.09,17.39 4.07,25.15 -0.02,7.55 -4.36,11.24 -5.74,28.11 14.53,-3.97 19.55,-13.06 26.37,-16.09l-13.46 26.66 24.5 -20.27c-8.09,15.73 -6.47,6.97 -12.26,28.42l19.11 -8.08 -13.14 27.1c20.77,-19.02 15.04,-24.76 42.97,-39.7 -15.13,23.07 -28.56,27.3 -30.35,59.79l8.92 -9.88c14.24,-17.87 25.22,-33.72 45.04,-45.21l-5.3 16.57c10.06,-7.11 3.03,-5.35 17.42,-6.6 -5.17,3.64 -8.8,4.78 -12.9,11.55 -2.24,3.7 -2.44,3.15 -2.94,9.25 -2.46,29.39 -0.63,-26.08 1.56,8.89 1.12,17.68 -9.17,29.67 -10,48.5l18.02 -28.61c-3.03,24.33 -8.18,12.71 -5.82,43.77 5.98,-22.22 -0.63,-10.32 12.55,-22.98l-5.25 37.6c20.35,-12.64 11.57,-7.32 20.48,21.47 1.02,0.05 2.6,-1.92 2.88,-0.96 6.37,21.4 4.53,-1.38 5.36,-1.36 0.09,0 3.19,-14.11 16.65,23.47 0.49,-1.06 0.56,-4.15 0.64,-3.43l5.51 -24.79 12.14 32.42c4.44,-7.9 3.87,2.98 3.36,-10.35 -0.19,-5.17 -1.41,-6.93 -2.69,-11.4l25.57 5.22c6.77,18.45 6.08,17.52 17.37,27.52 0.38,-0.8 0.47,-3.19 0.47,-2.59l-3.81 -22.57c17.4,4.68 26,5.21 32,21.13 11.53,-13.64 1.95,-11.87 16.67,-7.6l10.85 1.66c10.33,0.98 9.57,5.19 28.39,15.68 0.68,-0.95 1.53,-3.9 1.68,-3.07l3.94 -11.53 35.51 14.95 2.66 -15.13c27.57,35.07 30.49,16.66 31.93,16.6l16.68 -0.23c16.92,-1.64 37.44,-11.49 59.69,-12.3 9.57,-0.35 29.13,-0.87 39.26,-1.85l127.7 -44.15c1.01,-0.58 2.3,-1.57 3.28,-2.17 0.98,-0.6 2.22,-1.68 3.19,-2.28 3.92,-2.41 4.18,-3.39 10.42,-6.23 39.49,-17.95 63.96,-25.11 102.29,-60.92 24.95,-23.29 41.28,-44.77 63.88,-70.78 81.97,-94.3 144.48,-241.59 166.02,-366.87 49.09,-285.49 56.86,-394.82 31.9,-679.35 -0.66,-7.51 -2.42,-21.73 -4.12,-28.55l-7.17 -22.76c-28.39,-6.98 -17.35,-2.47 -19.68,-37.5 -0.08,-1.13 -0.57,-4.25 -0.63,-5.32 -0.02,-0.47 -0.04,-2.07 -0.06,-2.54 -0.02,-0.45 0.14,-2.02 0.12,-2.47l-5.27 -17.72c-10.37,-26.92 7.06,-10.87 -15.07,-31.96 19.12,-3.9 8.42,6.55 13.39,-8.73 -10.45,-11.55 -15.95,-12.87 -20.32,-31.62 -8.9,-38.2 -5.63,4.47 -14.83,-45.74 -5.11,-27.89 -10.84,2.75 -11.27,-26.33 -0.45,-31.75 10.04,17.92 1.61,-7.99 -8.44,-2.56 -11.4,7.45 -12.77,4.13 -0.55,-1.35 -2.71,1.74 -4.14,2.5 2.63,-24.4 7.04,-19.61 -10.43,-31.47l-5.27 6.55c-1.02,1.2 -4.55,5.55 -5.78,6.92 -1.07,1.2 -2.25,2.54 -3.28,3.64 -1.1,1.18 -2.74,2.73 -3.67,3.7 -0.97,1.02 -3.25,4.84 -3.99,3.75 -0.74,-1.12 -2.64,2.66 -4.13,3.78 6.29,-26.08 10.38,-22.27 16.47,-45.72 -20.4,13.18 -2.96,2.61 -16.61,15.84l-15.29 13.36c5.51,-19.1 16.78,-41.84 27.14,-51.88 -9.94,-4.39 -11.7,-4.03 -23.44,8.12l-18.14 19.26c-0.92,0.83 -3.36,4.2 -4.05,3.09 -0.7,-1.13 -2.72,2.19 -4.22,3.07 9.91,-30.52 8.61,-24.66 30.23,-41.66 -9.57,-18.55 2.5,3.6 -8.78,-12.12 -6.45,-8.96 -2.63,0.2 -3.55,-5.28 -24.25,12.85 -8.67,13.56 -43.42,22.45l18.01 -22.09c4.41,-4.17 6.42,-3.24 14.23,-11 -1.84,-1.37 -19.04,-13.27 -19.63,-13.88 -7.51,-7.74 -4.5,-9.36 -12.63,-18.7l-8.46 18.01c-0.51,0.63 -1.88,1.98 -2.42,2.53l-10.19 7.4c-0.75,-0.98 -1.31,-2.75 -1.6,-3.36 -0.29,-0.58 -1.22,-2.56 -1.57,-3.27 -0.33,-0.66 -1.12,-2.4 -1.49,-3.11l-11.39 -14.92 -30.99 33.52c-14.01,-19.93 2.29,-10.71 -15.86,-13.18 -23.27,-3.15 20.24,0.65 -9.45,1.43l-5.44 -0.01c-4.93,-0.81 0.69,-7.72 -21.34,-3.13 -19.71,4.1 -91.03,-9.68 -91.12,-9.87 -0.92,-1.9 -3.21,-1.03 -4.7,-1.8z"/>
   <path class="fil1" d="M2330.13 2207.73c-11.92,12.41 -2.35,4.1 2.5,17.89 -22.78,2.01 -44.5,3.2 -59.03,11.21l30.74 3.88c-24.12,8.24 20.32,-4.1 -9.86,2.89 -7.44,1.72 -10.19,1.04 -17.53,1.52 1.13,0.54 9.85,4.89 9.94,4.96 10.75,7.91 3.46,-2.34 2.11,5.08 -4.98,2.17 -9.07,2.99 -15.39,6.18 -9.69,4.9 -3.26,1.71 -10.55,6.26l-21.59 13.3c-30.03,16.5 -20.66,18.92 -41.22,16.52l12.25 13.99c-20.31,4.86 -42.97,11.63 -38.16,30.91l-34.63 4.42c22.55,14.18 16.08,0.16 10.34,11.46 -10.84,21.32 0.91,-2.05 -21.96,12.83 -0.52,0.34 -1.72,1.32 -2.19,1.68 -48.34,37.96 -18.82,42.6 -111.09,90.86 -33.98,17.76 -64.39,30.39 -99.04,47.09 -53.46,25.77 -67.38,16.68 -92.39,50.91 44.92,-3.7 106.88,-27.61 144.69,-41.28 -20.6,51.51 -282.61,64.37 -294.69,70.98 30.06,12.7 106.45,6.82 142.18,2.01 40.24,-5.43 85.66,-31.45 121.35,-37.11 -17.71,19.11 -106.19,44.92 -125.34,47.96l6.82 9.09c32.1,-5.26 64.3,-21.08 89.32,-21.82 -9.39,17.89 -15.8,21.44 -40.38,28.37 11.79,-4.82 -7.71,-4.29 5.94,0.79 19.76,7.37 -4.5,1.7 7.03,3.38 6.62,0.96 11.78,-3.15 21.47,-2.24 13.74,1.3 0.71,0.1 10.73,3.39 24.1,7.92 20.12,3.78 33.77,14.58l39.78 -31.74c49.11,-5.87 20.85,22.04 71.35,-28.87 11.15,-11.23 21.2,-20.93 28.65,-27.58 34.95,-31.18 78.69,-80.14 102.82,-83.33l-139.81 141.69c-26.56,23.9 -51.46,39.28 -86.08,54.64l-62.79 27.64c-28.36,15.73 -20.55,7.02 -30.59,10.97l31.41 25.95c37.6,-14.33 55.02,-26.97 83.3,-44.01 33.13,-19.95 46.52,-38.27 68.64,-53.39 -11.21,23.46 -35.14,43.88 -60.53,62.18 -12.05,8.68 -23.35,14.59 -37.41,24.64 -9.47,6.77 -9.75,7.49 -20.17,13.33l-21.55 11.94 19.11 12.55 54.94 -17.36c-18.66,18.54 -28.34,18.18 -42.54,26.82l43.07 47.05c47.16,-39.11 85.95,-54.43 131.45,-87.86l31.91 -24.47c24.45,-16.93 -25.85,16.1 8.13,-5.31 1.4,-0.88 3.4,-1.96 4.58,-2.68 1.22,-0.74 3.11,-1.91 4.74,-2.69 -13.4,22.29 -22.15,25.46 -39.74,39.59 -64.4,51.76 -78.53,43.64 -130.9,86.89 17.34,24.66 32.33,33.43 48.05,51.46 -11.73,-17.06 -3.19,-10.32 40.06,-30.31 0.81,26.89 -1.72,2.9 9.65,13.32l1.3 -10.55c4.09,35.67 -0.72,14.4 7.39,14.09l2.85 -0.79c0.16,0.01 1.3,0.22 1.46,0.24l3.03 1.28c52.81,18.8 25.21,2.34 47.55,8.54 40.58,11.25 149.13,-69.91 187.15,-96.56 18.57,-13.03 31.25,-26.83 50.08,-39.79 23.6,-16.24 95.49,-54.79 133.34,-40.03 15.39,34.8 -24.6,44.42 -36.61,39.29 15.02,-15.91 23.93,-7.78 32.21,-29.12 -103.46,1.14 -159.8,78.8 -262.6,143.33 -22.17,13.92 -66.31,27.42 -83.97,43.78l-0.92 15.33c1.03,-1.61 3.18,-5.22 3.81,-5.41 7.54,-2.36 -0.54,-2.62 7.86,0.49 4.24,10.23 3.85,7.87 3.03,21.66 0.77,-0.44 1.73,-2.56 1.95,-1.79 4.32,15.25 -2.7,-7.81 12.25,-3.03l3.83 31 60.51 3.07c-14.25,9.76 -17.68,5.62 -38.35,5.16l-5.35 34.58c23.91,-12.24 35.64,-3.6 39.22,-20.08 0.04,-0.16 -0.07,-1.09 -0.05,-1.81l40.24 4.74 -1.81 32.17c-29.9,-11.51 -22.05,-13.75 -62.87,-7.26 5.23,27.44 -2.57,13.52 12.24,18.02 67.12,-2.1 43.65,18.38 93.21,-23.47l6.43 -5.36c0.98,-0.78 2.3,-1.78 3.26,-2.54l15.8 -11.92c47.27,-34.49 43.27,-34.34 82.41,-47.54 14.92,-5.02 16.2,-11.34 23.4,-25.21 4.76,-9.18 -0.55,-3.01 8.12,-13.94l20.58 -20.11 -7.49 35.98c35.24,-19.43 4.21,-29.39 27.37,-55.62 14.61,-16.55 1.91,-2.27 16.11,-10.2l0.81 27.88c-7.49,-25.28 19.89,-74.41 29.5,-82.35l24.11 -22.37 -1.87 -28.6c12.11,-20.02 9.43,0.37 10.2,-21.11 1.16,-32.37 -30.28,-50.15 -40.71,-56.94 22.88,-13.76 19.89,-2.85 32.16,5.92 15.28,10.94 0.05,14.46 15.84,-4 15.34,19.82 2.31,16.39 24.4,20.11 -10.01,-39.32 -70.29,-46.76 -104.59,-47.57 -39.37,-0.94 -57.66,-38.7 -80.17,-63.37l-42.59 60.56c-0.32,-1.27 -1.42,-6.13 -1.77,-7.42l-3.59 -11.21c-15.1,33.4 -122.98,118.54 -165.37,143.92 -43,25.76 -48.91,30.19 -61.34,15.33 4.87,-2.63 28.74,-8.8 43.68,-16.11 34.71,-16.98 100.6,-67.05 125.87,-93.1 65.71,-67.7 110.28,-87.29 95.02,-187.33 -9.05,32.01 -33.22,91.2 -52.77,110.04 -1.67,-31.88 32.81,-85.45 47.67,-113.29 17.16,-32.15 4.15,-108.76 0.13,-149.1 -25.68,25.92 -30.92,90.79 -146.66,182.09 -16.72,13.19 -25.2,17.27 -39.37,28.19 -13.37,10.31 -28.24,18.85 -38.21,28.94 -15.42,15.61 -10.33,21.81 -31.21,32.14 18.72,-64.64 165.28,-126.32 221.82,-239.68 6.61,-13.23 28.39,-41.71 29.77,-46.12 3.06,-9.88 -6.57,-36.36 -3.37,-60.74 -14.6,-1.1 -14.47,5.72 -20.58,16.35l-26.73 52.42c-0.29,2.82 -3.79,-3.3 -0.1,14.88l-15.69 -10.72c-6.17,-3.68 -0.85,-7.85 -2.25,0 -58.44,33.94 -43.98,74.21 -93.18,82.79l76.89 -93.51c23.97,-21.89 19.81,-13.9 15.66,-20.16l-46.15 40.91c-0.9,0.75 -2.28,1.69 -3.2,2.4l-31.15 30.16c-19.59,19.44 -23.76,12.43 -42.57,41.6 -13.24,20.54 -16.99,31.62 -36.94,42.45 6.42,-19.82 15.45,-28.01 25.89,-47.26 21.5,-39.67 80.89,-79.41 102.98,-104.78 -14.81,9.56 -20.26,13.06 -37.47,21.4 9.63,-30.14 -1.79,-11.73 24.27,-30.58l62.27 -64.38c-2.01,-6.99 -1.02,-10.99 -7.24,-16.7l-15.66 -5.75c17.24,-22.62 29.21,-58.24 24.3,-73.62 -20.84,58.82 -16.7,79.97 -54.38,93.77z"/>
   <path class="fil1" d="M1590.61 2483.08c-15.03,5.59 -8.66,-4.21 -15.47,10.37 105.14,9.16 173.83,14.86 266.37,-18.54 35.1,-12.67 75.64,-21.55 105.77,-39.83 17.52,-10.63 81.25,-53.3 91.69,-54.25 -27.3,16.27 -73.44,64.07 -140.33,84.35 -67.74,20.54 -101.54,39.67 -181.09,46.13 106.35,7.08 204.92,-37.79 279.94,-77.19 -23.26,27.77 -120.48,63.98 -171.15,76.86 -92.24,23.43 -143.87,7.96 -234.65,6.95 8.8,7.01 -2.66,1.54 15.83,8.19 30.77,11.08 19.86,-2.71 55.1,6.21 45.82,11.6 106.15,0.29 149.72,-8.72 48.04,-9.92 -0.33,7.63 36.96,3.64 13.9,-1.48 182.63,-76.95 216.18,-113.69l47.34 -59.64c16.1,-17.21 37.27,-37.96 61.75,-52.17 12.37,-6.96 67.59,-53.48 78.13,-66.24 45.91,-55.59 107.25,-235.86 121.77,-303.38l-44.2 100.24c-11.78,28.45 -25.87,78.06 -55.81,80.79 33.68,-26.19 62.51,-107.28 79.41,-152.92 17.35,-46.83 45,-132.23 54.28,-183.49 -4.15,4.21 -3.84,3.18 -8.17,10.32l-9.62 24.96c-16.72,54.83 -73.49,216.59 -100.34,245.85 11.85,-35.4 97.49,-223.21 90.34,-246.45 -7.81,-25.43 2.78,20.75 -3.32,-5.06 -3.23,-13.63 43.6,-78.7 40.06,-133.92 -24.93,48.54 -29.45,107.79 -56.69,122.96 18.82,-34.2 54.62,-125.87 57.79,-171.16 -14.42,22.99 -25.15,87.52 -42.13,94.68 13.23,-25.29 42,-118.58 40.93,-152.69 -1.73,-54.46 17.07,-110.74 29.94,-158.87 9.3,-34.8 -3.04,-12.37 -1.42,-47.71 0,-0.04 7.73,-41.77 -12.25,-37.63 -12.98,-8.86 1.63,-9.49 -8.68,1.79l-30.43 93.13c-22.79,83.84 -10.78,76.55 -14.3,132.33l-4.75 -7.95c-0.74,-1.46 -3.36,-6.54 -4.07,-8.33 -39.93,-99.38 97.36,-265.83 82.1,-509.35 6.81,30.04 -34,156.14 -49.57,178.92 -0.68,-15.76 69.38,-193.97 36.82,-261.76 -11.17,28.35 -23.78,127.28 -30.22,165.82 -12.49,-61.16 39.36,-172.82 22.57,-242.55 -12.75,32.23 -11.69,83.25 -26.26,111.87 3.27,-56.97 10.07,-69.02 19.27,-116.28 13.57,-69.62 -38.25,-174.59 14.99,-338.99 -92.43,40.1 -197.52,83.63 -290.67,124.57 -162.76,71.54 -546.99,107.22 -725.95,71.8 -132.6,-26.23 -167.23,-62.92 -224.94,-83.43 -26.84,-9.54 -46.66,-23.32 -74.42,-30.58 41.92,72.75 165.44,98.27 261.53,146.71 129.38,65.22 384.25,54.53 520.19,9.75 64.55,-21.27 153.65,-48.51 219.27,-81.21 29.02,-14.46 196.39,-70.25 223.42,-72.29 -2.27,49.38 -22.29,92.14 -27.43,144.6 -14.32,145.91 -4.97,175.75 1.21,302.79 2.61,53.57 6.19,93.89 12.04,145.38 29.67,260.79 13.8,361.66 -22.35,602.86 -14.71,98.2 -49.12,232.96 -98.61,310.83 -27.9,43.9 -23.98,56.58 -58.54,98.42 -14.5,17.55 -22.18,30.52 -35.39,43.19 -49.6,47.56 -114.25,110.46 -179.07,141.26 -75.45,35.86 -166.05,53.62 -260.81,61.13 6.56,4.37 2.67,3.11 14.28,5.83 18.07,4.23 80.23,-2.67 100.57,-4.35 113.98,-9.42 226.85,-108.86 250.97,-117.36 -3.18,35.7 -156.82,106.11 -186.17,114.12 -56.47,15.43 -207.61,48.75 -262.41,31.1 -14.15,7.88 -3.85,5.55 -6.85,-2.72z"/>
   <path class="fil2" d="M2752.11 3347.51l169.41 -130.12c-29.68,9.25 -162.43,198.06 -170.6,214.65 23.21,-7.76 98.21,-116.9 120.35,-145.95 39.64,-52 57.43,-55.28 66.5,-67.87 0.76,-1.05 2.17,-4.19 2.58,-5.16l1.63 -7.85c1.08,-1.76 11.53,-9.08 15.4,-11.23 14.08,-7.79 29.03,-12.07 41.43,-21.12 -26.87,11.76 -127.75,169.87 -160.74,203.68 -32.83,33.64 -50.28,40.77 -54.81,62.94 62.51,-27.55 63.22,-57.5 89.2,-78.31 10.35,26.95 16.86,22.57 5.11,44.05 -13.29,-11.97 -3.71,-9.25 -21.29,-19.25 22.45,72.1 -28.34,29.4 -56.59,100.25 17.29,-4.93 56.83,-40.42 73.17,-54.48 20.09,33.59 -4.73,27.91 -11.76,35.19 -8,8.3 4.57,3.57 -12.88,25.83 -18.76,23.94 -27.65,22.5 -36.13,46.44 31.96,-9.62 26.16,-14.42 48.31,-33.12 0.17,1.79 12,32.17 -32.73,37.82 11.27,26.94 15.13,12.78 32.85,1.01 20.58,-13.67 10.52,-8.8 29.55,1.18 -6.53,-27.34 -11.98,-15.82 -1.12,-20.49l11.02 8.16c-5.08,-25.76 -9.77,-19.01 7.76,-31.48l20.94 33.1c-5.06,-45.06 -18.36,-19.71 -5.28,-63.95 13.79,6.49 17.82,19.93 19.24,17.21 0.5,-0.99 1.87,2.37 2.99,3.36 -5.31,-58.04 -14.39,-10.55 19.32,-78.68l49.37 -74.16c16.88,-16.7 25.3,-26.48 51.75,-33.23 -6.93,-4.42 9.41,-8.87 -22.46,-5.19 -34.91,4.03 -70.76,73.58 -81.38,88.31l-7.93 9.34c-0.4,-0.9 -1.85,2.01 -2.85,2.93 -13.98,-29.99 71.04,-120.77 104.4,-150.42l10.54 -10.89c-37.16,11.41 -57.95,36.37 -76.82,58.09 -9.04,10.42 -5.69,6.83 -13.98,19.66l-38.35 56.59c-3.35,-29.43 51.31,-98.55 72.1,-124.42 43.16,-53.73 60.88,-63.5 112.71,-93.4 -84.2,-9.47 -163.13,148.77 -200.24,191.36 -5.01,-9.12 -12.35,-16.58 -20.09,-25.02 8.48,-22.2 27.58,-39.22 39.76,-56.19 79.55,-110.94 129.25,-121.9 143.12,-138.07l-19.35 -1.37c48.36,-29.53 95.33,-53.52 149.9,-74.32 124.25,-47.37 242.73,-58.05 373.65,-14.8 60.06,19.85 92.61,42.53 139.78,83.42 19.98,-51.47 -91.19,-92.28 -122.28,-101.12 -32.13,-9.15 12.77,12.46 -11.75,-7.17l-5.81 -5.12c-12.56,-7.75 -3.42,-5.89 -25.47,-6.6 2.55,-11.62 -1.81,11.06 8.41,-5.92l-61.98 -26.76c-56.52,-17.25 -168.23,-11.72 -221.2,1.6 -39.32,9.88 -78.17,31.28 -116.84,47.21 -105.6,43.54 -170.24,65.94 -265.32,140.15l-129.45 112.65c-11.06,16.91 1.38,8.58 -15.57,22.99 -11.01,9.38 -47.19,29.99 -62.43,64.05 1.87,-0.73 3.91,-1.91 5.35,-2.82 1.39,-0.86 3.46,-1.79 5.06,-2.87l71.5 -64.01c-9.57,33.21 2.37,13.1 -23.33,24.75 -9.74,4.42 -5.86,-3.75 -21.16,13l-31.81 49.07c20.58,-8.14 11.37,-2.29 28.96,-20.59 5.38,-5.6 2.8,-6.29 10.13,-8.74 12.03,-4.03 -3.61,-17.94 8.53,2.22z"/>
   <path class="fil2" d="M2174.57 2301.75c-24.48,14.21 -45.65,34.96 -61.75,52.17l-47.34 59.64c-33.55,36.74 -202.28,112.21 -216.18,113.69 -37.29,3.99 11.08,-13.56 -36.96,-3.64 -43.57,9.01 -103.9,20.32 -149.72,8.72 -35.24,-8.92 -24.33,4.87 -55.1,-6.21 -18.49,-6.65 -7.03,-1.18 -15.83,-8.19 90.78,1.01 142.41,16.48 234.65,-6.95 50.67,-12.88 147.89,-49.09 171.15,-76.86 -75.02,39.4 -173.59,84.27 -279.94,77.19 79.55,-6.46 113.35,-25.59 181.09,-46.13 66.89,-20.28 113.03,-68.08 140.33,-84.35 -10.44,0.95 -74.17,43.62 -91.69,54.25 -30.13,18.28 -70.67,27.16 -105.77,39.83 -92.54,33.4 -161.23,27.7 -266.37,18.54 6.81,-14.58 0.44,-4.78 15.47,-10.37 -13.31,-10.21 -23.18,-6.59 -37.26,-7.91 -0.81,-0.07 -3.52,-0.85 -5.22,-1.51 -11.31,-30.36 4.04,6.08 8.29,-20.11 0.49,-3 2.13,-3.48 2.91,-5.35 -30.98,4.59 -20.7,-0.55 -28.45,16.18l0.39 5.64c-11.38,-6.62 14.4,-5.6 -18.21,-8.12l-21.03 6.34 26.96 15.41c8.51,2.54 16.97,0.75 17.95,-4.61l-5.64 30.5 -50.49 -1.98c7.29,35.05 9.2,37.98 -5.73,39.07 -0.12,0.01 -26.19,-12.79 -33.59,3.51 -0.27,-0.5 0.31,-1.54 0.3,-1.67 -0.79,-10.65 10.21,-9.19 -11.9,-3.34 -1.09,0.29 -8.85,3.7 -10.62,4.29 11.35,-32.25 17.27,-15.76 -1.7,-32.93 -1.47,1.26 -2.71,3.48 -3.32,4.75l-4.81 12.55c-0.62,25.26 1.24,-3.8 7.39,11.14 -11.41,13.17 -5.12,5.63 -15.88,3.5l-26.24 -3.25c-3.94,36.89 10.68,18.65 -11.81,23.16 -2.81,7.55 -30.57,15.8 -33.65,17.76 34.4,4.65 7.08,-3.69 27.18,27.2 4.97,-16.2 4.31,-15.63 -0.97,-28.91 26.17,4.01 7.09,-3.99 24.28,14.87l5.61 -19.77c115.99,-9.91 222.59,0.93 315.94,55.91 113.2,66.66 129.19,53.74 220.85,149.28l64.3 59.07c25.54,22.05 33.13,40.09 70.43,55.15 -4.76,-14.19 -3.06,-10.35 -1.52,-15.25 17.06,4.16 21.25,12.7 24.65,8.49 1.57,-1.94 4.64,1.8 6.98,2.67l0 -28.83c-0.3,0.53 -14.62,-3.88 -1.08,15.65l12.72 1.97 -2.82 -32.87c-11.37,-10.42 -8.84,13.57 -9.65,-13.32 -43.25,19.99 -51.79,13.25 -40.06,30.31 -15.72,-18.03 -30.71,-26.8 -48.05,-51.46 52.37,-43.25 66.5,-35.13 130.9,-86.89 17.59,-14.13 26.34,-17.3 39.74,-39.59 -1.63,0.78 -3.52,1.95 -4.74,2.69 -1.18,0.72 -3.18,1.8 -4.58,2.68 -33.98,21.41 16.32,-11.62 -8.13,5.31l-31.91 24.47c-45.5,33.43 -84.29,48.75 -131.45,87.86l-43.07 -47.05c14.2,-8.64 23.88,-8.28 42.54,-26.82l-54.94 17.36 -19.11 -12.55 21.55 -11.94c10.42,-5.84 10.7,-6.56 20.17,-13.33 14.06,-10.05 25.36,-15.96 37.41,-24.64 25.39,-18.3 49.32,-38.72 60.53,-62.18 -22.12,15.12 -35.51,33.44 -68.64,53.39 -28.28,17.04 -45.7,29.68 -83.3,44.01l-31.41 -25.95c10.04,-3.95 2.23,4.76 30.59,-10.97l62.79 -27.64c34.62,-15.36 59.52,-30.74 86.08,-54.64l139.81 -141.69c-24.13,3.19 -67.87,52.15 -102.82,83.33 -7.45,6.65 -17.5,16.35 -28.65,27.58 -50.5,50.91 -22.24,23 -71.35,28.87l-39.78 31.74 1.37 6.37c-3.53,13.4 -89.12,40.84 -90.75,40.94 3.33,-12.22 9,-10.72 17.29,-17.65l-22.9 -11.42c0.45,-1.18 0.92,-2.8 1.38,-3.5l15.4 -17.75c-28.36,9.25 -11.82,7.96 -32.37,5.31 -15.12,-21.22 0.93,0.44 -8.06,-16.48 -4.62,-8.68 0.88,-4.83 -9.24,-12.27l-6.82 -9.09c19.15,-3.04 107.63,-28.85 125.34,-47.96 -35.69,5.66 -81.11,31.68 -121.35,37.11 -35.73,4.81 -112.12,10.69 -142.18,-2.01 12.08,-6.61 274.09,-19.47 294.69,-70.98 -37.81,13.67 -99.77,37.58 -144.69,41.28 25.01,-34.23 38.93,-25.14 92.39,-50.91 34.65,-16.7 65.06,-29.33 99.04,-47.09 92.27,-48.26 62.75,-52.9 111.09,-90.86 0.47,-0.36 1.67,-1.34 2.19,-1.68 22.87,-14.88 11.12,8.49 21.96,-12.83 5.74,-11.3 12.21,2.72 -10.34,-11.46l34.63 -4.42c-4.81,-19.28 17.85,-26.05 38.16,-30.91l-12.25 -13.99 -25.68 4.33z"/>
   <path class="fil3" d="M920.56 2962.52c47.54,-78.57 276.83,-193.15 354.45,-217.76 85.36,-27.07 152.38,-44.88 239.46,-44.38 109.79,0.62 146.26,4.64 223.6,59.34 -54.28,-17.26 -75.94,-24.46 -140.74,-28.61l8.45 3.76c29.78,10.63 90.99,4.6 117.6,32.75 -38.17,-3.44 -80.71,-18.92 -118.41,-7.24 8.47,4.19 93.73,9.9 117.2,16.07 71.39,18.74 53.47,22.6 92.4,42.44 -9.13,6.66 12.32,13.01 -25.09,3.96 -40.05,-9.67 -100.85,-41.37 -190.41,-38.34 85.65,20.56 88.75,6.87 192.83,45.85 28.68,10.74 59.37,23.58 82.31,41.48l163.91 195.48c50.85,76.93 41.57,81.72 79.8,155.75 53.34,103.29 96.13,245.35 114.66,362.44 10.02,63.34 21.52,97.54 16.2,149.98l2.88 26.46c7.79,48.15 5.56,175.84 -7.81,224.67 29.31,-17.06 37.31,-117.74 36.1,-154.51 -2.63,-79.89 33.21,-70.64 60.58,-124.91 -27.75,11.25 -41.18,41.7 -61.73,62.68l-1.13 -34.39c15.18,-7.86 27.36,-17.69 37.78,-31.05 -19.08,2.35 -23.17,11.24 -40.13,18.57l17.14 -27.74c-22.42,-7 -0.12,-0.45 -10.8,0.99 -15.04,2.03 3.38,6.46 -9.37,1.28 -35.62,-201.38 -16.8,-144.39 -77.09,-337.82 -11.9,-38.18 -27.13,-61.77 -38.91,-95.9l-89.85 -185.44c-30,-44.17 -64.57,-68.81 -72.86,-94.84 -14.31,-44.92 -0.78,21.63 -17.21,-27.96 -5.54,-16.7 -6.13,-1.69 -3.72,-31.3 -1.66,1.14 -3.17,3.11 -4.35,4.19 -21.57,19.63 -0.6,13.63 -15.84,11.9 -16.41,-1.86 12.78,-33.26 5.44,-49.29 -18.41,8.18 -11.31,13.04 -20.95,30.11 -46.66,-67.63 -104.31,-142.83 -188.8,-173.85l18.79 -25.94c-36.1,13.13 -10.7,31.3 -56,5.61 -163.34,-92.65 -414.15,-19.56 -567.09,61.01 -34.53,18.19 -68.78,33.65 -103.88,52.5 -79.8,42.82 -88.11,71.43 -130.13,106.5 -74.28,62.01 -121.74,123.37 -167.29,231.13 -26.26,62.12 -94.79,314.57 -87.49,390.28 7.9,81.83 -31.09,334.23 32.81,414.82 8.56,-32.53 -0.66,-70.97 -6.18,-104.53 -11.41,-69.3 -4.94,-237.3 -5.17,-316.04 -0.14,-44.61 70.89,-372.52 105.85,-412.11l32.78 -40.03c92.55,-132.51 120.9,-149.64 248.55,-234.25 82.01,-54.37 90.29,-43.4 143.39,-71.55 -46.69,4.92 -125.24,47.56 -156.86,69.18 -21.12,14.45 -47.19,28.6 -67.93,44.39 -17.78,13.55 -43.2,37.71 -61.74,44.21z"/>
   <path class="fil4" d="M1899.06 790.56c1.49,0.77 3.78,-0.1 4.7,1.8 0.09,0.19 71.41,13.97 91.12,9.87 22.03,-4.59 16.41,2.32 21.34,3.13l5.44 0.01c29.69,-0.78 -13.82,-4.58 9.45,-1.43 18.15,2.47 1.85,-6.75 15.86,13.18l30.99 -33.52 11.39 14.92c0.37,0.71 1.16,2.45 1.49,3.11 0.35,0.71 1.28,2.69 1.57,3.27 0.29,0.61 0.85,2.38 1.6,3.36l10.19 -7.4c0.54,-0.55 1.91,-1.9 2.42,-2.53l8.46 -18.01c8.13,9.34 5.12,10.96 12.63,18.7 0.59,0.61 17.79,12.51 19.63,13.88 -7.81,7.76 -9.82,6.83 -14.23,11l-18.01 22.09c34.75,-8.89 19.17,-9.6 43.42,-22.45 0.92,5.48 -2.9,-3.68 3.55,5.28 11.28,15.72 -0.79,-6.43 8.78,12.12 -21.62,17 -20.32,11.14 -30.23,41.66 1.5,-0.88 3.52,-4.2 4.22,-3.07 0.69,1.11 3.13,-2.26 4.05,-3.09l18.14 -19.26c11.74,-12.15 13.5,-12.51 23.44,-8.12 -10.36,10.04 -21.63,32.78 -27.14,51.88l15.29 -13.36c13.65,-13.23 -3.79,-2.66 16.61,-15.84 -6.09,23.45 -10.18,19.64 -16.47,45.72 1.49,-1.12 3.39,-4.9 4.13,-3.78 0.74,1.09 3.02,-2.73 3.99,-3.75 0.93,-0.97 2.57,-2.52 3.67,-3.7 1.03,-1.1 2.21,-2.44 3.28,-3.64 1.23,-1.37 4.76,-5.72 5.78,-6.92l5.27 -6.55c17.47,11.86 13.06,7.07 10.43,31.47 1.43,-0.76 3.59,-3.85 4.14,-2.5 1.37,3.32 4.33,-6.69 12.77,-4.13 8.43,25.91 -2.06,-23.76 -1.61,7.99 0.43,29.08 6.16,-1.56 11.27,26.33 9.2,50.21 5.93,7.54 14.83,45.74 4.37,18.75 9.87,20.07 20.32,31.62 -4.97,15.28 5.73,4.83 -13.39,8.73 22.13,21.09 4.7,5.04 15.07,31.96l5.27 17.72c0.02,0.45 -0.14,2.02 -0.12,2.47 0.02,0.47 0.04,2.07 0.06,2.54 0.06,1.07 0.55,4.19 0.63,5.32 2.33,35.03 -8.71,30.52 19.68,37.5l8.29 -0.64c-4.22,-20.84 -5.18,-30.96 -5.98,-51.78l-9.13 -65.86c-6.8,-46.46 -13.9,-139.98 -7.53,-180.92 2.16,-13.86 7.25,-7.85 -10.6,-17.81l17.37 -19.67c-7.33,-14.73 -10.67,-15.9 -19.6,-22.15 27.39,-20.89 24.94,5.61 13.48,-29.92 5.58,-5.04 12.81,4.74 2.83,-6.2 -7.04,-7.71 2.56,-2.9 -13.99,-4.94l12.91 -27.8c0.18,-0.89 0.27,-2.74 0.04,-4.09 -1.05,0.54 -2.46,0.77 -2.76,2.23l-12.31 11.87c-0.33,0.36 -1.5,1.39 -1.84,1.76 -0.74,0.83 -3.08,3.26 -3.77,4.25 -0.38,0.54 -1.37,1.98 -1.73,2.57l-4.72 11.95c-14.38,26.58 11.71,-8.02 -20.99,21.45 34.43,0.45 18.08,-2.07 21.15,9.68 -1.38,0.14 -3.41,-1.22 -4.14,-0.03l-9.04 -1.71c-0.12,-0.04 -15.17,-6.98 -17.55,-7.89 20.25,37.44 -10.96,2.91 24.11,22.46 -24.02,7.63 -3.16,8.86 -41.5,-18.43l-55.67 -40.63c-32.22,-21.71 -35.44,-11.87 -37.71,-11.12l-8.62 3.34c-6.41,2.46 -0.5,-4.4 -6.88,2.67 6.16,2.21 13.77,11.66 22.04,19.78l-32.15 -12.14c-13.99,6.51 -7.14,-14.75 -13.25,20.75 -3.69,-6.8 -12.74,-21.2 -24.64,-14.17 -30.44,18 -10.42,17.68 0.9,28.33l-12.25 -6.07c-26.56,-12.83 -24.33,-3.9 -46.84,2.95 -14.31,4.35 -12.05,1.76 -24.54,3.84l-66.97 24.33c-9.14,4.92 -6.55,4.21 -11.59,8.44z"/>
   <path class="fil4" d="M1143.96 842.5l2.5 20.53c0.43,6.87 2.36,-12 -1.58,16.46 -1.35,-9.08 12.4,-26.69 -45.76,-17.22 -51.15,8.33 -35.92,18.21 -35.9,19.09 0,0.73 0.04,2.84 0.05,3.74l-0.3 19.89c-0.55,9.03 -2.26,2.04 -0.77,16.59 2.15,21.07 6.2,13.78 7.24,34.05 1.02,20.06 -4.15,23.61 4.48,56.95 22.47,11.36 19.19,-3.84 0.5,28.67 -1.01,1.76 -4.92,1.17 -8.99,18.05 25.94,-3.15 40.68,-4.86 67.3,-5.62l6.51 -11.71 22.54 -13.6c11.76,-7.82 -4.5,-2.1 21.47,-10.62 -9.42,-7.14 16.67,-15.21 -25.33,-9.43l24.54 -8.92 -22.47 -17.15c16.11,-6.72 8.81,-5.63 26.01,-11.58 -8.58,-6.39 13.69,-18.21 -26.75,-1.06 16.08,-16.8 11.21,-10.6 7.19,-18.71 -27.81,9.49 -12.78,17.53 -42.74,12.46l81.73 -66.51c9.66,-9.07 7.24,-2.02 10.13,-15.94 -34.52,12.97 -20.57,28.69 -71.04,23.57 10.34,-5.71 34.75,-27.69 43.75,-36.43l16.21 11.17c-2.96,-15.91 -4.48,-17.33 1.25,-26.87 12.48,8.38 6.43,-0.81 9.87,19.16 8.68,-11.09 1.46,-14.78 13.99,-16.89 18.84,-3.17 -12.57,-11.08 10.26,4.32l8.07 8.05c-0.13,-0.98 -2.44,-17.71 -2.24,-19.78 1.75,-18.23 -3.59,0.15 3.99,-10.72 6.55,21.64 -7.46,15.21 16.53,16 17.41,0.57 18.61,-6.76 19.9,-12.61 12.42,26.71 -9.71,8.67 20.64,19.79 6.28,-14.82 46.9,-42.16 68.79,-44.92 17.97,0.13 24.91,-5.95 37.86,-13.67 -8.86,-8.45 -7.88,-25.26 -42.18,2.29 17.92,-0.07 9.79,4.52 14.12,-24.68 -28,0.03 -63.77,-9.43 -72.98,-31.97l-21.96 11.79c8.16,-4.45 5.49,-0.85 5.12,-13.5l-44.9 -16.71c-28.74,11.24 -6.23,-12.35 -22.4,16.65l-2.35 -10.75c-0.37,-0.45 -1.39,-1.75 -1.92,-2.13 -0.59,-0.44 -1.97,-1.39 -2.74,-1.74 -1.47,-0.65 -21.36,-1.81 -26.67,-2.16 10.48,14.88 10.06,21.08 5.61,39.24 16.22,-13.6 2.96,-8.98 30.56,-8.39 5.23,0.12 25.62,1.16 27.69,-4.98 0.58,-1.72 2.44,-1.55 3.47,-2.55l10.04 19.52c7.81,26.85 2.36,23.9 -20.36,34.7 -58.54,27.83 -41.83,9.99 -40.23,40.22l-14.28 -34.81c-0.37,-2.4 -1.57,-2.99 -2.53,-4.37 -25.7,17.19 -8.03,9.8 -29.23,13.6l-33.17 0.46c-0.85,-0.21 -2.5,-0.49 -3.36,-0.86l-7.07 -4.92c-1.26,-1.04 -6.74,-6.16 -7.5,-8.83 -0.86,-3.02 -2.39,-3.51 -3.83,-5.06 14.38,25.93 11.06,12.63 5.6,42.81l28.02 -1.45z"/>
   <path class="fil4" d="M1492.86 3453.73c-8.03,3.01 -11.37,5.84 -11.6,5.96 -0.66,0.34 -1.54,3.34 -6.46,3.46l-13.96 -8.83c16.01,64.82 -9.24,17.64 -29.54,29.92 2.04,11.97 -1.41,3.98 8.15,14.29l7.75 5.27c0.31,0.21 1.74,0.77 1.98,0.94 5.81,4.21 3.6,2.88 -6.96,6.76 -23.46,8.62 -11.23,7.64 -24.24,20.84 -20.72,21.01 -12.01,-10.84 -21.12,19.26 19.83,10.89 20.04,-10.63 30.13,11.22 -18.99,9.61 -6.94,-7.43 -29.68,10.73 16.39,26.54 0.01,-0.59 19.52,11.72 -15.97,33.18 -32.78,54.45 -32.33,98.66 38.23,30.31 6.41,22.22 31.11,46.84 3.03,-25.42 5.12,-39.95 14,-63.45 7.11,-18.8 11.63,-35.23 23.1,-48.79 4.72,11.46 -2.57,19.23 -8.8,37.92 -13.98,41.93 -18.43,62.79 -7.51,96.19 0.41,1.28 1.04,2.66 1.41,3.97l2.02 8.71c0.62,3.19 0.76,12.89 2.35,20.67 31.46,-6.46 26.4,4.5 31.43,37.6l9.33 -11.88c13.99,-19.08 3.32,-14.2 26.34,-11.04 -8.54,-16.85 -10.44,-9.75 -6.37,-27.92l3.14 2.47c7.15,4.81 7.1,16.54 12.75,7.98 1.11,-1.66 4.02,2.45 6.13,3.49 -9.85,-30.91 -24.03,-32.42 6.88,-43.94l-8.6 -9.12c-5.72,-8.65 -1.74,7.31 -3.99,-9.2 -1.9,-13.92 11.44,-34.03 11.45,-34.06 5.98,-11.69 1.39,5.98 5.18,-11.25 2.52,-11.49 0.62,-13.85 -4.58,-20.88 12.82,17.74 14.21,-3.68 17.55,-6.55 -36.49,-21.68 33.13,-7.87 -30.69,-22.89l14.87 -32.19c4.83,-13.17 10.1,-24.28 14.35,-36.28 9.07,-25.69 5.29,-10.03 -5.71,-29.05 -8.08,-13.96 -3.93,-5.61 0.85,-35.03l-17.55 7.29c-1.41,0.68 0.05,14.27 -4.7,3.12 -0.18,-0.41 -0.58,0.89 -1.03,1.13 -7.61,-8.35 -8.98,-16.76 -13.25,-20.56 -19.26,-17.18 -2.89,-1.65 -13.12,-3.67 -0.57,-1.03 -1.09,-2.65 -1.21,-3.31l-1.43 -11.6c0.02,-1.22 2.63,-14.75 2.66,-14.92z"/>
   <path class="fil4" d="M2330.13 2207.73c37.68,-13.8 33.54,-34.95 54.38,-93.77 4.91,15.38 -7.06,51 -24.3,73.62l15.66 5.75c6.22,5.71 5.23,9.71 7.24,16.7l-62.27 64.38c-26.06,18.85 -14.64,0.44 -24.27,30.58 17.21,-8.34 22.66,-11.84 37.47,-21.4 -22.09,25.37 -81.48,65.11 -102.98,104.78 -10.44,19.25 -19.47,27.44 -25.89,47.26 19.95,-10.83 23.7,-21.91 36.94,-42.45 18.81,-29.17 22.98,-22.16 42.57,-41.6l31.15 -30.16c0.92,-0.71 2.3,-1.65 3.2,-2.4l46.15 -40.91c4.15,6.26 8.31,-1.73 -15.66,20.16l-76.89 93.51c49.2,-8.58 34.74,-48.85 93.18,-82.79 1.4,-7.85 -3.92,-3.68 2.25,0l15.69 10.72c-3.69,-18.18 -0.19,-12.06 0.1,-14.88l26.73 -52.42c6.11,-10.63 5.98,-17.45 20.58,-16.35 -1.38,-22.27 -10.93,-54.27 -11.56,-77.45l0.37 -26.37c-1.25,-20.91 0.16,3.66 -2.62,-18.02 -5.54,-43.22 1.69,-44.74 3.28,-69.55 1.72,-26.81 -3.55,-13.88 -4.05,-37.47 -0.65,-30.44 19.74,-37.13 2.03,-66.61 0.67,-0.39 1.95,-0.66 2.17,-0.82l14.69 -70.02c-11.27,-38.97 -6.06,-12.47 -22.87,-24.55 2.67,27.31 -4.43,23.12 -9.93,47.18 -17.35,75.97 -58.89,163.57 -82.27,240.3 -7.62,25 6.74,33.24 6.84,33.09 0.61,-1.08 2.81,2.6 4.3,3.78 -39.13,-14.42 -11.71,-12.94 -28.39,6.12 -15.52,17.73 20.46,6.43 -14.04,17.55 22.65,22.35 15.66,7.38 41.02,14.51z"/>
   <path class="fil2" d="M1143.96 842.5l-28.02 1.45c5.46,-30.18 8.78,-16.88 -5.6,-42.81 1.44,1.55 2.97,2.04 3.83,5.06 0.76,2.67 6.24,7.79 7.5,8.83l7.07 4.92c0.86,0.37 2.51,0.65 3.36,0.86l33.17 -0.46c21.2,-3.8 3.53,3.59 29.23,-13.6 0.96,1.38 2.16,1.97 2.53,4.37l14.28 34.81c-1.6,-30.23 -18.31,-12.39 40.23,-40.22 22.72,-10.8 28.17,-7.85 20.36,-34.7l-10.04 -19.52c-1.03,1 -2.89,0.83 -3.47,2.55 -2.07,6.14 -22.46,5.1 -27.69,4.98 -27.6,-0.59 -14.34,-5.21 -30.56,8.39 4.45,-18.16 4.87,-24.36 -5.61,-39.24 5.31,0.35 25.2,1.51 26.67,2.16 0.77,0.35 2.15,1.3 2.74,1.74 0.53,0.38 1.55,1.68 1.92,2.13l2.35 10.75c16.17,-29 -6.34,-5.41 22.4,-16.65l-80.03 -50.5c-34.71,-22.32 -17.36,2.76 -21.01,-28.22 -10.01,3.24 -37.61,-7.32 -19.7,17.13 -23.02,-6.38 -18.94,0.51 -19.59,-13.27l1.59 6.41c0.14,0.1 -20.98,15.31 7.6,3.02 0.99,-0.42 2.69,-1.13 3.76,-1.96l11.51 -15.48c1.51,-2.28 2.43,-4.7 3.6,-7.07l-28 -4.49c-4.6,-0.65 -14.32,-0.25 -16.9,-2.22 0.43,1.82 -21.12,13.54 7.2,4.37 23.29,-7.55 2.81,7.41 20.86,-14.5 -14.41,-6.84 -14.9,-8.7 -28.04,-19.28 -11.49,14.35 0.31,7.3 0,16.24 -22.41,7.04 -7.23,-3.69 -18.26,15.9l-11.01 42.63c-1.4,5.3 -2.86,10.41 -4.19,15.01 -0.11,0.37 -5.52,18.37 -5.8,19.25l57.4 -6.05c-9.79,7.38 1.28,1.47 -13.73,5.48 -16.13,4.3 -21.28,-5.4 -32.57,-0.03l-16.71 17.44 93.82 2.21c12.94,-0.25 6.8,0 12.32,-2.15 -56.64,6.45 -40.02,-12.5 -100.53,0 10.92,21.67 -4.44,7.29 14.27,15.16l34.18 -1.93c13.04,-2.67 9.97,-9.48 20.69,2.97 -49.06,-5.95 -10.66,4.15 -73.69,0.64 0.21,2.47 1.85,3.15 2.36,7.07l5.82 15.8c6.2,24.76 4.94,-20.62 -3.57,11.74 -2.11,8.04 4.32,6.04 -5.67,32.69l31.94 -6.88c-5.11,1.11 -9.23,0.98 -15.11,4.37 -13.38,7.67 -7.45,2.54 -16.83,13.77 12.46,8.18 -1.92,3.26 16.35,5.29 1.25,0.14 3.18,0.32 4.47,0.35l28.98 -3.34c1.57,0.1 3.93,0.45 5.27,0.56 1.4,0.11 3.7,0.25 5.5,0.62 -21.19,-1.7 -37.89,-0.06 -55.43,13.36 13,23.8 9.34,2.32 11.7,26.65 98.07,-7.95 70.44,1.89 78.53,-24.56z"/>
   <path class="fil4" d="M2388.61 3926.93c13.09,5.61 -3.46,5.18 9.08,-0.34l12.15 -12.65c0.34,-1.76 1.31,-2.35 2.26,-3.27 10.6,28.02 37.63,66.95 65.44,82.16 -8.49,-27.78 -46.9,-70.22 -64.25,-93.22 7.66,-22.41 15.32,-26.03 20.32,-49.16 5.66,7.75 10.64,11.86 7.65,23.47 -6.12,23.82 -27.76,-6.54 12.47,62.46 0.35,0.61 5.6,9.16 6.55,10.53l28.46 39.54c5.88,6.92 3.16,4.18 9.64,9.14 -10.94,-55.47 -42.52,-45.71 -27.22,-81.84 2.59,11.42 10.35,17.98 18.52,31.36 10.35,16.96 8.58,20.42 24.51,33.31 -3.65,-26.86 -37.78,-74.17 -32.65,-86.52 3.86,3.8 4.68,6.15 7.95,9.41l14.75 12.64c-8.97,-33.24 -18.86,-16.28 -12.74,-49.54 9.48,15.92 12.85,23.65 31.23,32.8 -10.49,-25.61 -25.7,-38.14 -21.08,-66.63 8.93,16.86 3.85,17.5 18.2,35.57l6.54 6.02c-7.59,-34.86 -22.62,-51.4 -9.63,-87.74 0.01,0.23 -4.59,0.08 4.85,12.24 9.13,11.73 -1.06,1.19 12.26,9.12l-11.66 -31.45 -36.64 -71.16c1.39,60.14 -5.52,14.25 -40.6,95.42 -0.67,-22 6.1,-23.74 16.9,-44.7 -1.46,1.53 -2.89,3.4 -4.02,4.9l-35.07 57.1c-11.53,23.18 -17.28,65.56 -23.14,67.26 -0.22,0.06 -1.9,0.37 -2.14,0.46 -0.22,0.08 -1.61,0.47 -1.82,0.58 -8.85,4.73 -4.88,17.84 -7.07,42.73z"/>
   <path class="fil0" d="M2227.72 3849.09c26.77,-79.27 -5.48,-219.9 -45.44,-273.33l-20.36 8.28c30.46,45.17 57.47,134.71 53.68,203.9 -21.56,-57.84 -5.22,-140.41 -66.07,-166.67 17.43,46.88 31.62,56.78 32.75,116.38 -13.54,-16.03 -22.46,-40.92 -33.67,-62.1 -25.62,-48.4 -18.88,-49.22 -50.35,-55.86 8.57,26.29 40.93,83.12 56.28,127.74 36.92,107.3 -1.05,139.19 -1.06,139.16 -0.54,-0.96 -2.05,3.07 -2.91,4.7 34.66,-5.95 15.22,-0.99 34.08,-18.84l5.91 -5.42c41.01,-36.72 -21.09,-35.11 21.42,-31.32 19.05,1.7 0.83,15.31 15.74,13.38z"/>
   <path class="fil0" d="M1280.58 2039.84c21.13,0.69 -6.73,-8.72 60.07,-7.71 19.98,0.29 33.33,-2.37 54.75,-2.92 54.63,-1.4 81.63,33.62 123.09,18.23 41.33,-15.34 36.86,-47.45 106.64,-38.25 49.49,6.52 83.51,13.32 136.31,13.25 12.58,13.21 8.18,12.3 22.45,23.19l5.23 -54.44 -65.58 4.46c-23.53,-4.66 -49.85,-9.79 -70.48,-13.82 -92.59,-18.08 -87.35,10.38 -119.3,34 -42.32,31.3 -73.2,-24.81 -125.75,-24.74 -40.63,0.06 -95.21,17.27 -105.05,14.06 -7.07,-2.31 -1.52,-0.74 -8.77,-6.64 -12.55,-10.21 9.91,-2.06 -7.96,-6.13 -9.43,21.25 -9.82,22.31 -5.65,47.46z"/>
   <path class="fil2" d="M573.16 3395.29c16.5,-15.92 8.62,-37.15 15.5,-46.77 0.19,-0.27 1.38,-1.16 1.61,-1.37l8.58 -3.25c0.9,-20.85 -2.01,-24.51 4.76,-36.67 21.91,-39.3 5.04,-8.36 14.32,-40.3l9.09 -19.25c0.71,-1.52 1.43,-2.87 2.13,-4.42 0.7,-1.55 1.31,-2.93 1.96,-4.5 0,0 4.63,-12.58 4.75,-12.96 14.09,-42.75 -9.06,-39.97 -2.65,-72.75l1.39 3.28c-0.1,0.42 13.7,-8.66 -1.3,2.17 -17.22,12.43 0.61,4.11 -7.25,0.14 0.9,-1.72 1.6,-3.85 2.11,-5.41l3.59 -10.59c0.51,-1.91 0.82,-3.2 1.27,-5.14l2.46 -44.38c-18.47,7.3 -31.24,6.81 -33.36,59.89 -1.83,-30.26 -0.77,-17.43 -18,-26.9l12.12 74.32c-0.93,-1.41 -1.34,-3.54 -1.91,-4.71 -0.57,-1.17 -1.29,-3.22 -2.04,-4.63 -0.84,-1.57 -3.69,-7.23 -4.8,-8.83 -12.03,-17.41 11.58,-0.97 -16.76,-14.28l11.29 65.43c-12.62,-26.78 2.1,-10.01 -19.36,-23.13 1.74,12.54 8.26,37.02 4.78,46.63 -6.3,17.38 3.24,2.39 -17.7,-7.62 -1.06,35.92 10.95,10.66 0.01,61.63 -0.43,2.01 -1.71,7.94 -2.1,9.95 -6.08,31.02 -16.78,77.61 -12.89,104.43 25.71,-11.98 16.64,-4.61 28.38,-35.39 3.1,7.89 0.96,0.45 10.02,5.38z"/>
   <path class="fil0" d="M3350.23 3278.76c-37.05,-14.14 -38.44,-9.08 -73.22,-1.66 -13.89,-22.23 0.43,-16.13 -16.66,-22.45 -0.8,-0.3 -3.19,-0.69 -4.05,-0.99l-13.77 -5.72c-12.19,30.36 4.89,34.48 -3.59,56.87 -16.11,-19.91 -7.8,-19.53 -18.06,-39.73 -4.4,5.48 -3.68,0.8 -6.11,12.98 -11.65,58.4 72.21,9.94 114.14,9.05 2.8,56.48 8.66,165.69 26.3,219.37 9.12,27.78 16.54,32.15 45.4,33.18 -10.9,-13.88 -0.49,-3.82 -18.88,-14.92 18.75,0.61 24.05,4.61 36.39,9.66 -7.28,-30.15 -8.98,-20.95 -40.99,-22.63 -5.47,-45.27 -25.37,-108.22 -18.11,-154.16 2.8,19.1 11.47,49.03 14.15,70.94 3.28,26.71 1.61,43.54 23.95,60.78 6.37,-127.38 -23.15,-66 -37.22,-231.01l-21.14 1.97 11.47 18.47z"/>
   <path class="fil4" d="M2254.57 3011.28l-4.66 24.3 35.74 -7.2c-11.01,21.01 -24.61,11.06 -31.24,18.03l43.5 -7.41c-16.61,14.94 -16.98,-15.97 -6.81,26.82 5.25,22.09 4.35,-16.84 9.24,19.85 21.63,-17.45 7.96,2.97 15.45,-21.76 6.02,-19.87 -4.19,-17.45 -4.48,-17.51l1.43 27.68c38.97,-8.77 -4.11,-1.39 21.08,-10.17l34.63 -21.95c17.55,-12.32 26.51,-9.45 35.94,-20.33 11.55,-13.31 -6.22,-10.75 -9.76,-25.74l21.72 -16.31c0.45,-2.01 1.46,-2.6 1.84,-4.03l0 31.53c36.72,-11.74 9.92,-7.6 30.37,-37.44 0.64,-0.92 1.65,-2.24 2.35,-3.08l23.64 -14.9 -18.11 -6.29c20.36,-7.46 20.45,-9.92 43.85,-48.2l7.49 -35.98 -20.58 20.11c-8.67,10.93 -3.36,4.76 -8.12,13.94 -7.2,13.87 -8.48,20.19 -23.4,25.21 -39.14,13.2 -35.14,13.05 -82.41,47.54l-15.8 11.92c-0.96,0.76 -2.28,1.76 -3.26,2.54l-6.43 5.36c-49.56,41.85 -26.09,21.37 -93.21,23.47z"/>
   <path class="fil3" d="M358.13 3768.47c12.71,-29.93 43.53,-177.2 50.23,-212.51 13.38,-70.42 53.69,-121.87 61.88,-194.12 -28.78,5.51 -18.53,-0.41 -36.31,18.67 -8.25,8.85 -17.12,17.3 -24.23,26.14 -47.07,58.58 -82.36,179.19 -77.36,238.16 18.28,-43.41 19.72,-99.37 37.4,-137.67 19.04,-41.25 43.66,-88.62 73.01,-108.65 -11.38,56.94 -49.15,100.63 -61.6,175.79 -7.04,42.51 -46.46,160.64 -23.02,194.19z"/>
   <path class="fil1" d="M1722.62 1345.28l0.26 62.27 43.55 0.33 1.71 55.11 51.89 -0.18 0.36 -54.94c-30.16,0.07 -30.25,1.99 -45.27,-6.15l0.28 -47.64 53.43 0.43 3.23 53.22 42.96 0.31 0.47 -63.22 -54.07 0.21 -1.77 -51.62 -49.81 -1.16 -2.96 52.98 -44.26 0.05z"/>
   <path class="fil3" d="M1048.56 3946.59c18.17,-7.87 5.58,4.38 16.36,-19.91 37.53,-84.61 24.83,-63.74 83.03,-146.62 84.37,-120.15 97.4,-45.32 143.81,-29.08l-16.34 27.69c-27.28,38.81 -92.93,149.96 -64.08,190.92 5.01,-8.67 9.28,-46.23 14.28,-61.68 31.21,-96.61 49.63,-98.3 73.53,-148.03 38.84,10.32 53.11,56.46 25.95,102.13 -18.21,30.6 -23.5,9.44 -26.78,45.65 -2.26,25.06 -16.4,30.84 -2.78,56.16l17.97 -64.74c4.92,-24.73 15.72,-11.75 32.34,-55.71 21.94,-58.03 3.17,-75.86 -46.56,-104.79 -29.77,-17.32 -30.82,-31.03 -71.11,-45.15 -45.82,26.89 -215.69,199.02 -179.62,253.16z"/>
   <path class="fil0" d="M3312.08 3080.95c-2.61,20.24 3.5,30.77 7.99,51.72 4.8,22.35 3.57,37.33 3.41,60.54l-36.46 -0.15c6.48,-10.41 19.48,-21.63 12.44,-34.8l-12.52 26.49c-6.43,12.61 -2.24,9.47 -16.32,17.53 -21.9,12.53 -28.14,6.21 -40.33,29.36 27.94,13.17 39.73,-22.23 100.19,-24.84 -1.14,1.3 -2.83,2.72 -3.75,3.59l-10.23 9.68c-5.67,5.46 -4.08,1.51 -9.41,9.67 24.67,-4.03 13,-8.66 40.2,-6.46l0.58 -46.66c-21.19,9.22 -5.65,8.13 -16.2,4.5 1.86,-40.98 -1.75,-52.28 -8.69,-89.17l39.25 -14.3c4.85,29.78 18.29,40.76 29.13,67.59 11.55,28.56 8.52,45.14 23.97,71.35 22.2,0.25 68.59,-13.24 95.95,-32.7 -23.63,-2.19 -66.76,7.97 -87.81,13.79l-4.76 -27.79c7.05,-5.14 9.75,-1.18 13.74,-9.33 -17.88,-13.75 -10.26,-0.38 -19.55,-20.38l-34.85 -80.62c-43.11,-11.63 -79.52,-6.72 -121.25,6.16 -16.79,5.19 -38.44,14.32 -51.9,20.88 -21.52,10.49 -23.26,13.39 -34.51,32.03 51.72,-30.48 105.2,-56.34 184.83,-53.07 -11.6,3.62 -33.13,9.79 -43.14,15.39z"/>
   <path class="fil3" d="M1321.93 3406.22c27.48,-1.49 45.95,-3.75 73.12,-7.87 69.99,-10.62 55.16,-7.59 64.12,7.3 -1.03,0.36 -2.65,0.47 -3.23,0.49l-25.07 -1.83c-17.51,-1.23 -20.51,-0.67 -37.9,1.41 11.27,7.26 34.47,8.59 50.05,11.06 60.45,9.6 28.73,22.44 82.22,67.97 14.54,12.37 59.44,52.47 79.57,52.25l55.2 -12.43c-15.77,-1.16 -41.37,0.95 -54.58,-2.26 -11.75,-2.86 -5.9,0.07 -18.45,-9.8 -26.34,-20.73 17.19,15.35 -6.27,-5.75l-6.34 -6.19c30.19,2.8 66.75,16.9 78.28,-14.31 -34.2,14.92 -42.86,12.34 -87.89,5.46l15.03 -10.56c1.43,-0.99 3.47,-1.7 4.72,-2.23 35.56,-15.18 22.17,-1.38 34.64,-17.15 -8.56,-3.38 -62.02,16.09 -100.52,-10.01 10.91,-5.99 60.47,3.11 74.42,5.05 3.11,-10.1 8.88,6.82 -1.88,-5.1l-10.57 -7.59c17.81,-2.32 14.44,2.45 20.96,-7.59 -101.68,25.73 -110.92,-52.63 -137.62,-58.11l-142.12 19.68c-23.52,3.87 -27.43,4.37 -36.64,13.15 6.4,4.1 103.03,35.92 135.38,9.09 -35.34,-1.67 -71.76,-0.34 -98.63,-14.13z"/>
   <path class="fil3" d="M1597.27 3098.45c64.51,21.48 74.43,92.03 85.88,164.92l-0.3 18.76c53.34,8.7 90.15,-9.77 126.72,36.03 25.04,31.37 86.93,159.99 101.28,213.39 11.62,43.19 19.96,85.93 -7.4,117.88 -6.63,7.74 -2.76,0.96 -8.73,10.48 44.34,-24.63 52.08,-49.22 32.49,-123.08 -11.04,-41.57 -23.21,-91.44 -43.81,-124.02 -66.9,-105.85 -36.53,-133.78 -189.03,-142.15 -2.63,-79.65 -10.68,-195.93 -131.55,-184.87l34.45 12.66z"/>
   <path class="fil1" d="M2546.38 3698.22c0.21,-19.03 5.75,-25.98 13.19,-38.21 14.25,4.52 15.16,7.16 27.56,15.09 19.67,12.59 36.34,11.25 60.57,-0.4 17.7,-8.5 13.54,-2.95 16.9,-22.07 -7.76,-48 -91.88,31.31 -94.28,-47.02 16.94,6.69 18.25,15.85 38.81,15.65 58.96,-0.56 75.6,-74.33 -0.1,-42.96l-22.44 -23.14c-31.98,38.22 -52.58,84.58 -79.08,132.17 0.94,-1.03 2.15,-2.51 2.71,-3.2l16.98 -23.08c13.61,-18.04 5.27,-10.81 22.12,-20.66 -18.68,51.35 -46.85,40.91 -32.9,111.07 3.9,-24.11 9.86,-43.06 29.96,-53.24z"/>
   <path class="fil3" d="M1245.65 3114.65c48.58,-14.76 87.34,-34.7 137.29,-46.98 37.79,-9.29 385.59,-124.38 399.52,-150.43 -34.23,-3.58 -106.92,32.18 -139.94,43.71 -45.38,15.84 -95.47,28.6 -138.8,46.76 -46.92,19.66 -86.01,32.74 -139.27,46.23 -45.02,11.39 -102.27,27.86 -118.8,60.71z"/>
   <polygon class="fil1" points="982.32,1344.77 981.93,1407.72 1036.4,1408.48 1037.94,1353.8 1089.79,1354.34 1092.4,1407.88 1143.96,1407.23 1144.78,1345.09 1090.05,1344.16 1089.37,1292.47 1036.72,1292.46 1036.37,1344.68 "/>
   <path class="fil4" d="M1123.42 1182.66c1.14,-1.08 2.9,-4.3 3.56,-3.14l19.63 -10.01c4.35,-1.41 7.73,-1.47 13.14,-3.44 16.42,-5.95 4.84,-0.6 11.57,-5.71l-32.41 -7.1c-9.68,-0.61 -0.99,0.45 -6.36,1.56 -13.45,2.76 4.58,0.64 -5.69,1.58 -15.82,1.43 0.61,4.21 -8.9,-1.23 18.36,-15.25 34.95,-8.33 60.21,-16.09 -1.18,-1.02 -3.2,-3.74 -3.96,-2.45l-13.42 -4.48c-0.45,-0.06 -18.6,0.83 -21.53,0.86 1.1,-0.71 2.84,-3.09 3.32,-2.09l33.81 -20.24 -33.84 -33.9c-0.85,-0.42 -2.85,-1 -4.14,-1.75l-71.81 3.9c6.04,58.51 -9.96,34.82 4.06,76.58 0.01,0.02 14.18,-2.2 -5.23,21.69l15.01 4.43c0.91,0.2 3,0.49 3.86,0.67l5.91 0.96c-31.24,6.32 -21.88,-0.77 -26.99,22 12.28,7.67 21.4,-1.45 24.36,-2.68 25.55,-10.66 17.59,1.87 35.84,-19.92z"/>
   <path class="fil3" d="M863.32 3457.19c-9.76,-13.18 -7.58,16.87 -5.53,-22.23 1,-19.12 27.46,-109.9 16.76,-127.75 -18.04,27.15 -25.87,112.37 -36,151.42l-2.75 9.98c-1.48,41.9 -41.27,147.24 -28.61,178.23 12.39,-12.34 21.38,-74.82 25.02,-92.04 4.97,-23.59 7.33,-78.53 31.11,-89.92 3.72,8.09 3.85,-6.45 3.3,17.57l-42.97 193.77c-1.67,10.93 -1.72,5.22 -0.25,14.42 2.43,15.22 -1.65,3.3 6.24,11.9 20.86,-12.19 4.54,2.2 6.08,-21.88 1.2,-18.73 1.63,-12.04 8.26,-30.88 6.2,-17.61 11.45,-37.01 15.81,-56.98 29.66,-135.79 5.12,-127.25 62.72,-133.86l-35.76 -3.48 13.33 -69.72c-13.21,12.43 -12.07,9.28 -18.16,32.88 -12.25,47.47 -4.77,31.44 -18.6,38.57z"/>
   <path class="fil4" d="M2227.6 2985.5l5.35 -34.58c20.67,0.46 24.1,4.6 38.35,-5.16l-60.51 -3.07 -3.83 -31c-14.95,-4.78 -7.93,18.28 -12.25,3.03 -0.22,-0.77 -1.18,1.35 -1.95,1.79 0.82,-13.79 1.21,-11.43 -3.03,-21.66 -8.4,-3.11 -0.32,-2.85 -7.86,-0.49 -0.63,0.19 -2.78,3.8 -3.81,5.41l0.92 -15.33 -12.01 -0.79c-1.4,1.73 -3.13,3.83 -4.13,5.26l-8.48 14.74c-5.88,-9.42 4.64,-4.57 -9.86,-5.5l-27.15 29.65c8.4,-23.54 7.99,-5.65 4.36,-25.04 -8.37,-0.84 -21.6,-0.25 -24.12,-0.54 -11.43,-1.33 -10.23,0.09 -16.19,-5.27 -6.25,10.24 -13.26,-11.9 10.01,9.24 22.93,20.84 1.69,20.47 27.09,37.02 63.39,41.31 12.56,61.63 97.58,59.72 6.44,-14.38 -0.86,-9.16 11.52,-17.43z"/>
   <path class="fil2" d="M2644.71 3973.22c5.92,12.14 8.04,23.54 0.37,40.9 -11.12,25.17 -13.49,5.49 -23.57,29.75 16.6,-3 20.46,-7.46 38.04,-14.77 28.84,17.87 7.86,7.46 27.83,9.73 0.59,0.06 2.21,0.29 2.81,0.45 0.7,0.18 2.39,1.09 3.05,1.36 2.3,0.9 6.54,6.04 7.25,4.57 0.61,-1.28 2.56,2 3.23,1.67l20.41 -9.63 -3.31 -21.81 18.59 7.67c-7.06,-12.73 -0.36,-1.26 -9.47,-14.5l-17.14 -19.18c0.51,-27.83 5.1,-24.76 -11.26,-43.16l-0.68 31.67c-10.05,-22.61 0.16,-16.29 -16.3,-41.04 -12.41,-18.68 -13.12,-24.48 -13.34,-47.16 -10.17,9.88 -5.51,-11.04 -13.35,21.87 -4.06,17.04 3.91,16.79 -9.82,52.35l-3.34 9.26z"/>
   <path class="fil2" d="M1254.36 3226.03c0.89,-1.15 2.22,-2.62 2.91,-3.27 19.16,-18.06 30.43,-18.92 45.07,-29.18 14.95,-10.49 27.1,-30.95 31.29,-44.95 -13.37,3.31 -32.34,21.7 -43.55,32.5 -27.8,26.79 -20.88,14.07 -45.67,34.23 -4.14,-18.51 -14.82,-34.22 -27.45,-49.16 -6.3,9.54 -19.02,-20.81 -4.42,22.68l28.05 47.08c14.53,28.86 19.62,32.51 36.81,58.41 53.32,80.32 79.02,51.79 132.79,33.47 -11.41,-6.61 16.96,-13.12 -19.73,-2.46 -0.05,0.02 -37.04,19.98 -55.86,11.51 -26.69,-27.82 -44.8,-45.16 -65.18,-82.8 17.79,-24.4 21.88,-15.51 37.35,-32.59l5.61 16.78c26.51,-23.91 33.98,-24.69 38.3,-38.88 -18.74,2.92 -13.22,1.4 -27.67,10.83 12.1,-18.48 23.15,-21.54 33.25,-44.85 -19.11,4.78 -32.74,26.83 -47.17,40.39 -11.38,10.68 -13.8,10.54 -25.07,19.84l-21.23 18.59 -8.43 -18.17z"/>
   <path class="fil3" d="M239.84 3607.01c18.28,-17.59 37.67,-122.24 58.45,-177.16 12.34,-32.64 17.21,-53.12 34.22,-83.43 14.48,-25.79 30.71,-59.65 35.33,-90.49 -43,22.45 -104.69,202.62 -116.86,246.05 -9.11,32.47 -8.55,69.8 -11.14,105.03z"/>
   <path class="fil0" d="M3439.05 3287.31c47.29,-4.06 87.32,-9.12 91.22,-50.6 3.5,-37.24 -10.67,-33.32 -11.89,-34.14 -11.27,18.92 -5.21,23.58 -3.21,48.7l-73 19.75c-1.13,-1.11 -2.36,-2.84 -3.03,-3.66 -0.65,-0.78 -2.17,-2.6 -2.93,-3.51l-11.5 -13.33c-1.95,23.38 4.07,14.81 1.33,35.43 -6.57,49.53 0.89,108.35 7.77,159.65 3.62,26.97 -3.21,44.82 17.21,55.43 9.39,-12.72 5.51,-38.45 4.21,-55.09l-16.18 -158.63z"/>
   <path class="fil2" d="M1789.51 3453.58c-11.81,11.5 11.28,53.14 16.82,71.77 -15.84,-10.54 -25.87,-29.85 -44.42,-52.57 19.98,53.24 59.76,70.66 51.41,109.11l-6.09 14.61c0.79,1 2.26,2.33 2.56,2.83 0.25,0.44 1.79,2.17 2.01,2.71 8.51,21.2 10.94,-14.75 0.39,7 -11.71,24.13 -48.92,23.16 -48.92,23.16l-68.15 27.47c15.93,10.89 8.53,4.07 33.01,-1.69 -2.54,1.79 -7.43,4.55 -9.06,8.05l1.04 6.4c-0.05,-0.91 1.3,2.41 2.04,3.57 17.79,-11.74 46.09,-24.61 65.47,-36.23 58.4,-35.02 -9.52,-25.83 68.57,-32.55 -16.28,-25.63 -3.92,-23.21 -27.46,-82.79 -8.57,-21.7 -16.61,-58.88 -39.22,-70.85z"/>
   <path class="fil3" d="M214.09 3432.14c16.03,-84.5 62.27,-141.04 98.34,-204.37 -34.88,17.29 -57.74,70.18 -79.06,109.29 -28.86,52.97 -35.1,88.44 -23.86,149.87 6.08,-14.28 11.72,-37.49 18.91,-54.03l77.73 -154.94c-31.55,14.65 -79.73,119.33 -92.06,154.18z"/>
   <path class="fil5" d="M1818.39 2613.22c10.12,7.44 4.62,3.59 9.24,12.27 8.99,16.92 -7.06,-4.74 8.06,16.48 20.55,2.65 4.01,3.94 32.37,-5.31l-15.4 17.75c-0.46,0.7 -0.93,2.32 -1.38,3.5l22.9 11.42c-8.29,6.93 -13.96,5.43 -17.29,17.65 1.63,-0.1 87.22,-27.54 90.75,-40.94l-1.37 -6.37c-13.65,-10.8 -9.67,-6.66 -33.77,-14.58 -10.02,-3.29 3.01,-2.09 -10.73,-3.39 -9.69,-0.91 -14.85,3.2 -21.47,2.24 -11.53,-1.68 12.73,3.99 -7.03,-3.38 -13.65,-5.08 5.85,-5.61 -5.94,-0.79 24.58,-6.93 30.99,-10.48 40.38,-28.37 -25.02,0.74 -57.22,16.56 -89.32,21.82z"/>
   <path class="fil3" d="M1475.43 3215.52c-4.73,-65.55 48.65,-110.27 61.45,-135.66 -51.34,2.89 -87.62,81.51 -90.37,141.64 15.44,11.31 36.02,22.2 58.7,29.71 8.38,35.35 0.57,38.85 41.4,34.74 -28.13,-15.07 -19.39,-7.44 -26.98,-43.08 -26.69,-12.59 -26.01,-8.95 -44.2,-27.35z"/>
   <path class="fil4" d="M2544.58 2859.23c46.88,-14.66 9.35,-16.85 56.27,-57.17 15.39,-13.22 8.26,-19.13 19.09,-35.19 16.56,-24.53 15.97,-3.12 15.73,-44.99 -25.61,4.71 -34.88,-2.76 -26.66,31.5 -0.83,-2.23 -5.13,-14.58 -5.5,-15.42 -7.95,-18.04 -0.82,-3.39 -7.19,-12.05l1.87 28.6 -24.11 22.37c-9.61,7.94 -36.99,57.07 -29.5,82.35z"/>
   <path class="fil3" d="M2031.42 3107.26c-29.59,-13.85 -46.96,-13.86 -69.76,-42.08 -28.33,-35.06 -11.56,-44.42 -63.15,-35.34 -7.73,-21.91 -5.76,-23.1 -30.67,-18.42 0.01,-23.26 4.54,-16.55 -5.36,-33.16 -27.06,4.82 -32.06,6.14 -46.97,24.53 4.34,-1.42 17.91,-7.18 18.55,-7.36 21.75,-5.66 -7.49,0.69 7.31,-1.01l6.7 1.47c8.79,18.2 4.96,10.02 -0.73,28.11l34.29 -6.84 3.3 27.35c58.04,-14.98 26.52,-4.54 62.31,35.06 21.9,24.23 45.29,28.88 84.18,27.69z"/>
   <path class="fil3" d="M1217.79 3303.95c-14.26,-27.39 -31.3,-93.24 -51.35,-110.24 -15.85,24.86 56.76,188.04 109.84,209.86 -1.98,-25.06 -19.11,-25.3 -32.13,-47.37 -10.99,-18.61 -16.33,-32.98 -26.36,-52.25z"/>
   <path class="fil2" d="M1086.65 1588.74l33.99 -8.15c0.16,-0.11 1.23,-0.23 1.42,-0.32l8.37 -2.64c0.44,-1.59 2.64,-1.16 3.87,-1.89 -13.53,-18.51 -9.09,-10.06 -27.01,-22.46 8.11,-3.49 11.45,4.63 26.16,-5.61 -17.56,-19.05 -11.29,-6.75 -30.67,-19.75l11.56 -1.52c-12.91,-11.93 -6.49,-4.93 -26.49,-11.41 -22.58,14.96 -5.76,3.04 -31.5,6.32 6.6,25.29 1.09,14.75 22.86,20.03 -3.14,1.78 -8.61,3.83 -11.48,4.82l-6.26 1.36c2.42,16.67 1.32,25.64 8.4,30.68 1.11,0.79 3.11,2.44 4.33,3.28 1.14,0.79 3.23,2.11 4.25,2.8 0.97,0.65 3.46,3.43 4.18,2.31 0.7,-1.07 2.7,1.41 4.02,2.15z"/>
   <path class="fil2" d="M1492.78 2801.41c-0.64,-2.55 -2.24,-2.71 -2.89,-5.33l34.5 12.92c-15.13,-29.54 -37.85,-32.82 -66.06,-31.25 -15.9,19.47 -3.17,7.86 -26.3,20.02 26.43,8.4 9.81,5.35 26.38,23.87 11.23,12.54 14.6,10.72 33.36,17.66 48.25,17.87 40.49,33.41 64.92,21.87 -17.1,-16.74 -50.28,-35.48 -75.69,-44.16 5.11,-3.72 -3.82,-8.08 25.35,1.21l-13.57 -16.81z"/>
   <path class="fil2" d="M3783.7 3512.12c5.62,-5.51 3.45,-7.28 5.16,-10.7l4.15 -7.97c0.35,-2.24 1.51,-2.76 2.33,-4.09 -16.54,2.35 -15.91,3.44 -30,5.09l-27.84 9.97c-8.96,5.19 -3,-0.02 -10.03,13.08 -0.92,-1.08 -2,-2.81 -2.54,-3.42l-12.76 -10.39c-1.26,13.27 0.69,28.16 5.42,41.21 6.24,17.2 5.31,9.45 14.1,-4.74l10.49 13.17c0.41,-0.93 1.87,2.21 2.78,3.32 14.97,-14.14 0.86,-4.54 18.22,-13.43 12.05,-6.17 1.45,2.13 12.79,-12.42l11.6 14.08c-4.28,-46.47 9.17,-14.47 45.54,-50.66l-49.41 17.9z"/>
   <path class="fil5" d="M462.01 3145.25l-6.76 50.95 36.03 -16.64c20.51,-16.68 26.94,-39.16 16.68,-67.4l5.86 0.49c-11.47,-13.27 -38.4,6.37 -38.42,6.39l-13.39 26.21z"/>
   <path class="fil4" d="M1188.36 611.48c20.89,6.59 11.07,8.88 34.21,16.63 0.39,-0.89 0.45,-3.54 0.57,-2.84l16.87 -15 -1.05 -37.12c-15.3,9.32 -6.1,5.02 -18.16,23.43 -1.93,-29 4.18,-23.85 7.35,-53.65 -21.99,12.48 -9.61,-13.1 -24.43,25.25 6.91,-23.01 6.96,-15.71 4.2,-39.67 -6.24,5.52 -13.47,-5.57 -15.88,35.16 -0.96,16.19 -2.39,31.53 -3.68,47.81z"/>
   <path class="fil6" d="M2599.85 3534.76c25.7,36.93 79.96,18.04 73.92,-16.76 -3.95,-22.73 -43.05,-37.69 -73.92,16.76z"/>
   <path class="fil0" d="M1660.5 1744.12c0.36,-35.79 -11.24,-32.81 -11.33,-32.9 -9.98,17.34 4.31,28.07 -1.71,58.95 -36.59,17.41 -71.5,-7.94 -123.66,5.88 4.77,36.14 23.1,25.68 51.2,17.7 24.32,-6.91 51.78,-3.85 76.15,-8.95 4.17,-12.47 9.19,-24.64 9.35,-40.68z"/>
   <polygon class="fil1" points="1143.96,1407.23 1144.69,1463.02 1199.37,1462.8 1199.53,1408.08 "/>
   <polygon class="fil1" points="1036.4,1408.48 1036.85,1462.8 1088.78,1462.6 1089.69,1407.93 "/>
   <polygon class="fil1" points="982.32,1344.77 981.74,1292.59 936.3,1292.31 929.02,1292.41 929.05,1345.13 "/>
   <polygon class="fil1" points="1722.62,1345.28 1720.26,1292.4 1670.08,1293.03 1668.96,1342.51 "/>
   <path class="fil2" d="M1540.29 2176.35c-9.21,-7 -17.01,-10.64 -24.69,-12.74 7.53,-1.31 21.99,-2.09 27.16,-3.34 30.63,-7.44 5.63,1.26 19.01,-9.98 -21.58,-3.62 -57.02,-17.16 -75.06,-7.62 -2.37,12.79 -2.41,8.29 1.68,19.63 0.55,1.52 3.52,4.71 4.09,5.97 0.3,0.67 1.17,1.92 1.43,2.58 3.92,10.05 -1.6,10.43 9.32,27.99 25.82,-3.5 5.15,4.49 37.06,-22.49z"/>
   <polygon class="fil1" points="1877.67,1460.35 1926.88,1460.72 1926.24,1410.46 1877.77,1410.34 "/>
   <path class="fil3" d="M1511.12 3285.36c-23.69,-40.45 -3.67,-23.48 -28.36,-32.3 -5.43,27.38 20.24,53.47 34.47,65.61 17.37,14.81 17.84,10.99 42.12,11.46 37.79,0.75 18.88,8.54 43.52,7.69 -10.95,-24.84 -31.34,-20.08 -65.96,-20.26 -1.02,-1.08 -2.44,-2.5 -3.1,-3.21l-5.84 -6.24c-1.07,-1.22 -4.14,-4.85 -5.18,-6.15 -4.69,-5.82 -7.47,-9.44 -11.67,-16.6z"/>
   <path class="fil5" d="M519.92 3142.48c3.25,18.45 -3.73,1.45 13.84,10.07 13.69,-9.85 0.86,3.16 10.63,-9.57l12.6 -21.43c30.92,-42.72 3.99,-39.56 3.22,-40.7 -11.87,16.69 -7.67,11.48 -7.51,41.02l-0.13 -34.06c-13.33,7.12 -23.25,11.04 -32.99,14.71l0.34 39.96z"/>
   <path class="fil4" d="M1534.3 2879.07c-13.26,-23.93 -44.09,-35.38 -71,-39.91 -0.88,29.49 -6.73,18.26 16.5,24.79 -21.38,9.46 -8.46,-0.87 -14.07,12.26 32.03,9.88 27.3,20.25 55.47,29.15l-2.5 -8.86c-0.41,-1.23 -0.92,-3 -1.4,-4.34l-18.89 -29.79c16.75,7.35 19.46,11.08 35.89,16.7z"/>
   <path class="fil2" d="M1556.95 1888.17c-18.47,8.66 -6.62,-8.18 -17.14,12.71 -7.33,-38.52 -4.24,-22.04 -16.27,-30.37 -6.21,27.73 2.67,57.49 18.99,80.64 30.82,-3.59 16.35,-25.37 14.42,-62.98z"/>
   <path class="fil2" d="M2328.85 3607.8l5.71 38.93c-17.83,-1.83 -17.76,-3.57 -24.79,-14.88 -6.28,-10.12 -6.3,-10.89 -7.31,-24.39l26.39 0.34zm-31.73 -13.25c-25.82,78.77 82.89,84.23 37.22,7.11 -14.62,-24.68 -28.22,-13.12 -37.22,-7.11z"/>
   <path class="fil2" d="M1444.51 2656.04l-15.92 -35.58c17.14,-23 38.42,-28.3 67.59,-19.55 -0.28,-1.35 8.2,-15.48 -32.22,-15.4 -74.14,0.15 -55.32,65.26 -19.45,70.53z"/>
   <path class="fil2" d="M1002.58 2799.49c-2.01,-37.44 6.82,-25.77 28.76,-39.36 -6.25,-3.79 -3.15,-6.03 -19.84,-3.87 -5.23,0.68 -17.05,5.04 -22.4,6.43l-1.83 36.34c14.8,7.62 28.8,11.39 50.95,10.7 8.03,-14.91 26.34,-31.78 4.72,-43.35 -9.74,12.17 -1.03,1.08 -3.38,15.21 -1.85,11.07 -1.95,9.34 -7.89,20.07l-29.09 -2.17z"/>
   <path class="fil2" d="M851.86 2939.69c-2.99,-42.09 7.76,-10.97 22.19,-37.12 -30.05,1.6 -39.79,7.45 -38.34,38.56 23.11,12.66 16.52,8 38.57,4.22 33.05,-5.67 -5.95,18.96 27.54,-5.6l-9.12 -27.8c-7.69,7.24 -1.06,0.22 -8.42,9.95 -7.41,9.79 -3.55,15.06 -32.42,17.79z"/>
   <path class="fil6" d="M2634.21 3486.58c13.7,-8.26 72.63,-2.36 47.8,-53.41 -10.77,3.11 -14.93,0.88 -31.55,25.08 -8.74,12.72 -6.68,16.73 -16.25,28.33z"/>
   <path class="fil3" d="M2611.49 4045.83c-5.73,-31.3 3.86,-23.85 -5.67,-47.56l-1.86 37.92c-34.9,-9.56 -43.4,-21.24 -49.22,-48.46l-4.56 -16.45c-0.19,-1.85 -1.29,-2.24 -2.6,-3.33 -0.53,37.33 -10.64,77.98 63.91,77.88z"/>
   <path class="fil3" d="M772 3035.17c6.24,-17.75 4.56,-13.54 18.35,-22.77 7.11,8.84 1.97,-2.58 7.47,15.98 0.39,1.3 0.11,5.28 1.52,10.03 4.92,-7.41 8.39,-10.17 10.27,-17.66 9.79,-39.1 -46.01,-10.84 -56.86,14.42 11.36,16.84 12.37,17 39.56,18.17l-11.79 -8.25c-9.38,-7.93 -1.09,1.53 -8.52,-9.92z"/>
   <path class="fil2" d="M2032.02 2916.53l15.7 27.17c8.61,-15.37 -14.43,-47 -39.46,-45.56 -33.24,1.91 -24.47,39.33 2.79,56.24l-4.52 -11.34c-15.92,-39.06 -5.95,-20.87 -3.7,-28.74l29.19 2.23z"/>
   <path class="fil2" d="M1168.98 3290.39c-5.4,-41.12 16.31,2.37 -1.99,-28.84 -22.42,12.86 -38.05,26.36 -46.9,52.69 52.39,-16.96 13.99,-3.18 48.89,-23.85z"/>
   <path class="fil3" d="M605.66 3794.56c-24.3,7.89 -25.47,19.81 -31.92,43.31 13.5,17.66 16.49,18.78 39.87,31.62 -7.79,-20.75 -9.91,-19.38 -21.49,-37.58l13.54 -37.35z"/>
   <path class="fil2" d="M924.12 2855.55c11.93,-16.82 0.03,-3.76 19.59,-14.75 18,-10.12 7.86,-2.17 15.35,-13.66 -35.15,3.81 -57.02,5.64 -49.08,43.61 20.77,8.94 15.14,10.27 35.72,-0.13 -26.16,-17.27 -9.76,12.12 -21.58,-15.07z"/>
   <path class="fil3" d="M642.48 3465.24c-18.38,-44.23 -27.03,-21.56 0.07,-69.23 -31.05,4.72 -59.04,46.53 -0.07,69.23z"/>
   <path class="fil6" d="M1921.25 227.37c27.8,-0.62 15.21,-6.21 39.99,-29.03 1.22,-1.12 5.16,-3.95 6.34,-5.07 11.58,-10.88 1.39,-0.42 8.79,-9.68 -22.21,-1.23 -39.53,-5.1 -55.12,43.78z"/>
   <path class="fil1" d="M2812.22 801.46c-10.55,-34.15 -10.33,-45.58 -43.14,-55.29 10.18,33.39 11.81,43.29 43.14,55.29z"/>
   <path class="fil1" d="M1402.23 341.57c35.82,-1.22 38.43,-6.41 42.31,-40.9 -29.64,10.13 -33.28,11.33 -42.31,40.9z"/>
   <polygon class="fil1" points="2872.42,1323.15 2898.87,1342.07 2900.73,1305.57 2872.3,1287.89 "/>
   <path class="fil1" d="M2575.36 1441.69c17.86,-26.78 7.69,-40.71 -16.82,-46.52 -3.98,33.83 -10.14,37.06 16.82,46.52z"/>
   <path class="fil1" d="M1456.98 448.98c18.67,6.12 13.12,14.12 37.16,-40.89 -24.67,1.88 -17.89,-2.74 -28.19,13.5 -8.4,13.23 -10.42,18.22 -8.97,27.39z"/>
   <path class="fil1" d="M1821.64 357.24c37.35,-2.12 32.03,-6.56 47.55,-32.67 -34.99,5.54 -41.85,-0.56 -47.55,32.67z"/>
   <path class="fil1" d="M2846.57 938.97c-1.83,-22.25 3.23,-17.42 -9.32,-29.59 -0.18,-0.18 -22.64,-12.55 -26.99,-14.48 3.67,33.74 4.54,34.37 36.31,44.07z"/>
   <path class="fil1" d="M2334.56 3646.73l-5.71 -38.93 -26.39 -0.34c1.01,13.5 1.03,14.27 7.31,24.39 7.03,11.31 6.96,13.05 24.79,14.88z"/>
   <path class="fil1" d="M1556.53 445.92c29.12,6.65 32.07,-7.21 35.45,-29.81 -28.45,-3.6 -25.1,3.8 -35.45,29.81z"/>
   <path class="fil1" d="M1428.65 284.34c30.54,-1.2 29.01,-5.7 37.33,-34.32 -33,3.83 -26.18,3.77 -37.33,34.32z"/>
   <path class="fil6" d="M1590.26 102.41c28.46,-7.82 33.28,-7.97 42.72,-31.71 -39.04,5.25 -33.85,-1.37 -42.72,31.71z"/>
   <path class="fil1" d="M3010.67 1084.6c6.54,-33.62 -0.2,-38.48 -31.03,-43.73 6.52,23.2 16.92,29.5 31.03,43.73z"/>
   <path class="fil1" d="M2762.21 895.18l27.13 12.51c-4.01,-30.95 -0.43,-32.46 -28.36,-40.88l1.23 28.37z"/>
   <path class="fil6" d="M2803.45 2105.79c6.5,20.7 9.9,12.5 18.89,15.45 8.38,-28.13 -2.38,-31.89 -15.88,-44.54 -2.2,7.99 -6.45,18.12 -3.01,29.09z"/>
   <path class="fil1" d="M2708.67 737.35c4,-29.42 -5.48,-28.26 -29.29,-34.32 -1,25.81 7.94,29.55 29.29,34.32z"/>
   <path class="fil6" d="M2837.7 890.09l-5.11 -25.27c-13.52,-6.96 -14.29,-8.33 -29.38,-13.47 3.33,26.53 12.54,29.02 34.49,38.74z"/>
   <path class="fil1" d="M2856.82 987.49c-3.17,-24.76 -8.62,-34.27 -31.41,-31.51 0.4,24.49 9.66,23.05 31.41,31.51z"/>
   <path class="fil1" d="M2801.43 959c-3.85,-26.46 -6.2,-30.7 -31.63,-36.71 4.91,23.83 9.77,28.22 31.63,36.71z"/>
   <path class="fil1" d="M2616.59 971.19l3.26 -8.42c-1.14,-7.6 3.56,-15.3 -25.81,-14.04 -1.37,11.52 -8.22,9.82 3.97,21.14 9.71,9.01 18.52,1.34 18.58,1.32z"/>
   <path class="fil1" d="M1435.87 508.7c6.82,-4.39 2.3,9.84 11.8,-10.58 11.8,-25.33 2.38,-5.11 -0.08,-13.33 -14.92,-5.2 -11.17,-11.56 -19.05,5.92 -7.24,16.04 -2.17,10.02 7.33,17.99z"/>
   <path class="fil1" d="M1524.68 576.79c24.55,0.68 18.18,6.43 29.78,-11.43 -18.09,-24.18 -22.2,-5.74 -29.78,11.43z"/>
   <path class="fil6" d="M2592.2 759.17c10.28,-19.39 1.08,-18.98 -18.26,-23.34 5.48,23.09 -4.71,14.03 18.26,23.34z"/>
   <path class="fil5" d="M2469.38 664.48c2.78,20.23 -5,13.19 16.17,19.06l1.97 -21.75 -18.14 2.69z"/>
  </g>
 </g>
</svg>
