<?xml version="1.0" encoding="UTF-8"?>
<!DOCTYPE svg PUBLIC "-//W3C//DTD SVG 1.1//EN" "http://www.w3.org/Graphics/SVG/1.1/DTD/svg11.dtd">
<!-- Creator: CorelDRAW 2017 -->
<svg xmlns="http://www.w3.org/2000/svg" xml:space="preserve" width="215.9mm" height="279.4mm" version="1.1" style="shape-rendering:geometricPrecision; text-rendering:geometricPrecision; image-rendering:optimizeQuality; fill-rule:evenodd; clip-rule:evenodd"
viewBox="0 0 21590 27940"
 xmlns:xlink="http://www.w3.org/1999/xlink">
 <defs>
  <style type="text/css">
   <![CDATA[
    .fil12 {fill:#020202}
    .fil13 {fill:#261914}
    .fil5 {fill:#363B44}
    .fil16 {fill:#4B5866}
    .fil4 {fill:#723A17}
    .fil15 {fill:#73736A}
    .fil8 {fill:#A9C3CA}
    .fil1 {fill:#AA9A92}
    .fil11 {fill:#C2DFF1}
    .fil6 {fill:#CD7148}
    .fil0 {fill:#CED6AE}
    .fil7 {fill:#D38A72}
    .fil9 {fill:#DAA945}
    .fil3 {fill:#E64A2C}
    .fil2 {fill:#E7D785}
    .fil14 {fill:#F6D952}
    .fil10 {fill:#F8F9F8}
   ]]>
  </style>
 </defs>
 <g id="Capa_x0020_1">
  <metadata id="CorelCorpID_0Corel-Layer"/>
  <path class="fil0" d="M5249.2 11111.3l104.88 20.68c-133.63,149.58 -324.63,323.48 -361.86,508.29 10.92,107.65 -5.2,10.24 149.41,136.76 108.89,89.11 111.33,109.81 148.5,244.87 44.32,-151.88 36.55,-122.74 -34.43,-263.21 179.79,77.48 198.71,-149.68 191.15,-276.39l82.02 208.12c317.3,-153.6 -49.25,-75.79 213.5,-193.11 -94.05,-203.74 -217.4,-370.37 -396.57,-484.51l-96.6 98.5z"/>
  <path class="fil0" d="M16735.07 18308.23l2.27 24.48 -55.2 -64.32c-4.33,-7.17 -29.96,-60.5 -33.77,-74.07 -219.66,160.17 -471.41,295.2 -561.32,563.05 221.57,-97.03 532.77,-318.19 648.02,-449.14z"/>
  <path class="fil1" d="M4618.43 12283.16l-47.09 26.78c180.93,284.44 937.06,190.44 1253.24,196.17 -133.66,-76.45 -320.59,-45.34 -485.73,-43.64 29.16,-160.86 40.29,-352.35 -48.72,-440.57 -37.17,-135.06 -39.61,-155.76 -148.5,-244.87 -154.61,-126.52 -138.49,-29.11 -149.41,-136.76 -213.47,145.41 -268.02,610.36 -373.79,642.89z"/>
  <path class="fil1" d="M16255.05 16741.51c101.61,110.11 214.72,97.29 388.33,76.5l-168.56 -155.25 10.5 -164.48c-40.29,32.69 -113.9,86.41 -152.34,119.67 -78.77,68.17 -58.95,28.37 -77.93,123.56z"/>
  <path class="fil2" d="M5290.13 12021.9c89.01,88.22 77.88,279.71 48.72,440.57 165.14,-1.7 352.07,-32.81 485.73,43.64l585.58 207.02 -667.79 -1215.82c-262.75,117.32 103.8,39.51 -213.5,193.11l-82.02 -208.12c7.56,126.71 -11.36,353.87 -191.15,276.39 70.98,140.47 78.75,111.33 34.43,263.21z"/>
  <path class="fil2" d="M6149.24 12059.08l94.77 -95.63c-189.33,-357.23 -427.28,-526.56 -189.75,-977.71l-114.91 18.81c-94.29,204.58 10.23,147.15 -185.97,234.26 -100.94,-173.64 -68.29,-182.34 -25.16,-391.09l-214.8 180.42c105.22,169.31 237.25,322.28 340.01,504.11 93.87,166.08 169.88,398.81 295.81,526.83z"/>
  <path class="fil3" d="M10331.38 11699.44c-843.31,325.56 -350.59,1484.17 389.54,1189.25 755.75,-301.14 338.81,-1470.43 -389.54,-1189.25z"/>
  <path class="fil3" d="M4680.97 12845.59c213.32,24.04 383.57,-55.55 445.61,-257.31l-456.8 -65.18 11.19 322.49z"/>
  <path class="fil4" d="M15316.4 9051.43c23.02,209.04 122.96,181.59 92.98,508.86l-543.21 131.31c84.32,201.56 240.47,436.63 351.12,636.6 151.66,274.08 258.21,340.9 162.9,608.79 -1.05,2.95 -10.61,22.36 -11.46,17.41 -0.88,-5.11 -8.43,11.74 -13.67,16.65l89.32 110.83c100.12,-98.82 -4.71,-55.85 180.42,111.86l280.92 -250.64c-85.44,-264.8 -274.18,-563.29 -280.76,-853.3l331.43 -62.94c33.92,-194.61 -7.82,-620.87 -88.57,-818.97l125.71 -154.06c-121.41,-71.61 -116.88,-47.92 -184.91,-230.51l-76.25 154.76c-93.31,-266.6 -45.9,-121.74 -100.97,-112.17l-69.86 257.44 -102.78 -242.21 -142.36 170.29z"/>
  <path class="fil4" d="M10331.38 11699.44c728.35,-281.18 1145.29,888.11 389.54,1189.25 -740.13,294.92 -1232.85,-863.69 -389.54,-1189.25zm4.26 -96.64c-892.09,273.76 -520.14,1747.08 402.94,1409.1 926.55,-339.25 446.89,-1669.9 -402.94,-1409.1z"/>
  <path class="fil5" d="M9734.71 4533.55l382.34 102.28c-41.09,260.64 -306.88,504.26 -348.49,779.99l1050.79 10.04 -1.32 2187.97 -2276.51 -2.67 -540.85 975.3 -401.41 -107.88c45.72,-275.36 395.85,-619.95 396.45,-862.69l-1228.27 -13.47 -31.01 -405.1 -568.09 -6.88 -1.5 -1416.5 577.64 -12.4 19.47 -342.65 2474.91 -11.68 495.85 -873.66zm-3030.08 830.01l-24.15 307.73 -569.92 24.76c-46.59,242.13 -58.63,1344.47 9.65,1549.21l554.73 33.91 28.1 383.53 1202.29 25c-94.85,253.87 -387.68,584.46 -388.56,827.85l515.15 143.68 551.57 -980.18 2272.3 0.97c69.03,-210.36 56.49,-2050.4 19.45,-2326.05l-990.53 -19.69c7.38,-219.17 287.21,-459.09 315.67,-736.85 -145.68,-82.92 -330.38,-117.23 -506.24,-131.07 -684.78,924.58 -149.98,873.46 -1054.68,871.07 -406.83,-1.07 -1621.58,-53.36 -1934.83,26.13z"/>
  <path class="fil5" d="M16065.68 18573.1c-11.77,342.06 -445.94,398.51 -722.96,346.53l722.96 -346.53zm669.39 -264.87c-115.25,130.95 -426.45,352.11 -648.02,449.14 89.91,-267.85 341.66,-402.88 561.32,-563.05 3.81,13.57 29.44,66.9 33.77,74.07l55.2 64.32c9.91,-138.22 48.6,-237.23 138.53,-350.72 -111.67,27.88 -670.59,422.83 -812.42,522.7 -250.63,176.47 -733.46,351.47 -875.69,469.91 918.84,303.72 2445.43,-1110.31 2654.22,-1893.71 -180.47,76.66 -220.97,167.93 -356.77,308.16 -238.99,246.79 -69.8,123.7 -160.32,345.92 -64.94,159.42 -166.11,157.3 -286.33,308.55 -124.02,156.03 -106.96,190.64 -303.49,264.71z"/>
  <path class="fil5" d="M16428.34 16061.23l178.6 16.68c-59.97,146.18 -203.93,250.21 -339.26,344.23 28.27,82.06 47.89,47.03 27.26,111.78 -223.53,86.26 -548.83,101.05 -742.85,-4.93 -331.77,53.9 -1016.64,-109.2 -1417.9,-115.55l-163.28 13.23c73.5,48.96 965.29,170.63 1167.43,212.24 309.69,63.76 767.22,260.95 1035.1,275.84 -149.5,-151.97 -466.93,-216.22 -674.63,-304.19l756.24 130.95c18.98,-95.19 -0.84,-55.39 77.93,-123.56 38.44,-33.26 112.05,-86.98 152.34,-119.67 128.73,-92.4 243.46,-347.88 193.97,-502.38l-263.35 -22.01c67.57,-164.42 70.07,-54.75 52.77,-247.08 -440.78,-77.09 -387.23,229.57 -485.13,-42.55l-73.19 8.23 -1.33 154.25 476.77 -73.82 -104.59 248.33 147.1 39.98z"/>
  <path class="fil6" d="M2949.33 7845.05c172.02,-104.16 349.54,-240.63 534.87,-285.2 -90.21,390.02 -440.53,556.94 -150.2,1033.02 72.03,-21.24 495.92,-325.44 651.83,-404.97 212.98,-108.64 186.35,-79.93 239.77,-311.68 32.88,-142.63 82.59,-280.2 86.64,-423.15l-770.03 531.31c60.25,-515.91 508.94,-279.69 494.25,-1323.61 -246.45,37.74 -546.86,236.19 -790.59,363.13 -191.68,99.83 -212.27,82.67 -251.02,298.13 -33.2,184.58 -58.63,338.41 -45.52,523.02z"/>
  <path class="fil6" d="M2173.59 9503.1l32.67 398.98c84.54,-5.48 444.84,-382.16 538.77,-463.97 -35.32,524.94 -341.27,452.11 -150.01,1130.42 181.25,-79.03 364.16,-317.84 515.65,-463.11 204.22,-195.85 255.22,-496.78 237.68,-774.61l-396.05 340.3c21.55,-312.32 276.54,-448.37 22.6,-896.58 -248.45,148.63 -596.42,514.95 -801.31,728.57z"/>
  <path class="fil6" d="M4153.49 9674.09l147.31 -119.22 5.65 76.62c203.81,-123.52 273.93,-340.62 261.79,-579.47 -158.35,34.52 -285.62,134.22 -437.1,212.07 -250.35,128.67 -285.71,135.39 -245.02,426.5 61.53,-18.28 66.93,-34.49 115.98,-52.55 227.04,-83.56 95.4,-51.95 151.39,36.05z"/>
  <path class="fil7" d="M6091.41 11057.15c-212.67,465.82 1408.84,1387.08 2185.53,622.08 302.86,-298.3 461.04,-178.78 753.43,-395.25 28.77,-704.47 -259.5,-365.13 -1214.7,-234.41 -333.69,45.67 -1640.83,-24.96 -1724.26,7.58z"/>
  <path class="fil7" d="M8419.91 14084.04c170.25,-88.01 121.77,-134.89 343.18,-213.81 691.09,-246.37 958.99,176.42 1261.05,270.01l-129.22 -207.63c-337.63,-369.44 -1345.55,-459.26 -1475.01,151.43z"/>
  <path class="fil8" d="M7488.23 18434.78c268.8,-258.16 624.97,-491.46 982.14,-640.03 252.09,-104.86 825.61,-344.1 1105.01,-328.34 -145.1,577.56 -96.82,1684.46 23.02,2327.49 36.33,194.89 67.29,168.64 -9.08,319.49 -187.74,162.44 -3296.85,-175.5 -3978,-324.57l-984.07 -269.31c-167.06,-29.45 -81,-13.09 -196.07,-4.59 76.91,159.39 171.14,169.95 519.61,266.64 432.6,120.03 1444.18,323.82 1829.07,345.18 550.28,30.53 2196.46,260.48 2668.19,38.04l60.31 162.81 182.79 -18.47 222.38 751.77c-434.43,120.64 -826.73,-97.73 -1152.85,-15.15 259.01,171.17 1322.09,72.54 1685.34,46.98 -79.84,-497.54 -650.61,-1576.91 -568.46,-2050.09 -242.78,-341.95 -204.17,-1584.7 -254.26,-2047.8 -600.36,9.34 -1911.46,893.62 -2135.07,1439.95z"/>
  <path class="fil8" d="M14566.53 20407.05l-7.85 -54.13c-94.54,276.42 10.56,631.57 -33.52,920.98 -532.66,-57.88 -1046.12,-270.08 -1494.38,-550.44 -713.65,-446.34 -865.02,-860.89 -1068.89,-991.69l104.68 1153.85c471.17,360.82 1977.89,814.29 2508.15,512.84l-8.19 -991.41z"/>
  <path class="fil8" d="M14930.62 19493.14c-17.54,205.93 -91.4,491.89 -262.85,595.83l-11.01 202.66c691.49,-234.46 1441.3,-730.47 2007.7,-1184.81 381.47,-305.99 1398.18,-1253.54 1581.52,-1666.07 -151.97,12.89 -116.7,-3.93 -233.47,144.04 -398.74,505.23 -2445.38,2133.02 -3081.89,1908.35z"/>
  <path class="fil8" d="M2443.78 17494.11l-23.15 77.95c154.35,-40.46 415.35,-227.82 540.78,-97.94 195.35,-26.05 151.31,-83.53 472,-149.26l1228.51 -249.95c186.85,-18.7 135.21,39.09 267.83,-85.84 331.33,-202.1 1014.63,-132.22 1419.07,-132.48 -393.61,-218.24 -658.21,-227.62 -1043.81,-383.32 209.79,-115.57 125.64,63.48 278.54,-39.83 -442.47,-12.83 -329.74,-203.19 -879,47.08 -255.91,116.61 -499.57,233.26 -758.38,344.33 -645.63,277.05 -913.24,353.3 -1502.39,669.26z"/>
  <path class="fil8" d="M18603.8 16799.57c247.45,-88.32 -195.75,218.69 558.79,-141.22 188.58,-89.95 351.64,-205.94 498.11,-348.93 128.59,-125.53 863.78,-593.13 1037.65,-667.91l-10.79 -129.37 -86.54 -13.57 -57.97 42.75c-144.65,74.07 -354.3,28.14 -916.65,316.11 -419.44,214.79 -472.05,344.77 -998.82,298.24 34.3,285.33 31.99,369.85 -23.78,643.9z"/>
  <path class="fil8" d="M3398.33 19439.92l452.43 -119.22 -367.96 -79c-496.47,35.71 -1767.91,48.5 -2127.73,-156.24 -138.34,77.41 -165.5,143.03 -139.61,307.34 338.8,151.22 761.1,112.8 1123.86,87.19 180.06,-12.71 362.08,-32.09 540.65,-52.05 265.1,-29.63 297.89,-98.96 518.36,11.98z"/>
  <path class="fil8" d="M4517.54 17810.31c203.98,-66.21 629.93,-357.61 910.63,-475.69 322.52,-135.66 782.47,-219.2 1034.99,-337.92 -194.24,-86.62 -803.71,-127.75 -966.56,-33.8l149.51 31.97c-409.57,145.46 -863.42,475.4 -1128.57,815.44z"/>
  <path class="fil8" d="M8174.75 17550.97c224.04,-104.17 358.77,-256.75 555.24,-379.27 -153.98,-81.31 -344.7,-87.21 -518.65,-116.94 -194.85,216.17 -550.34,528.41 -615.44,769.42 170.27,-4.4 60.04,30.39 218.48,-42.04 18.57,-8.48 115.55,-76.53 150.71,-97.54 66.46,-39.7 181.94,-111.93 209.66,-133.63z"/>
  <path class="fil8" d="M3212.73 19817.19c314.96,58.82 740.5,341.04 1140.57,406.11 -80.34,-161.87 49.27,-38.84 -133.5,-120.88l-368.49 -180.14c-156.57,-85.98 -331.06,-169.29 -435.81,-296.56 149.8,-118.77 124.02,-31.6 220.5,-160.08l-707.64 35.47c35.44,218.39 159.01,135.22 284.37,316.08z"/>
  <path class="fil8" d="M16014.23 14672.98l-98.44 293.41c210.86,-47.44 587.11,-215.23 725.88,-354.07l-627.44 60.66z"/>
  <path class="fil8" d="M15342.72 18919.63c277.02,51.98 711.19,-4.47 722.96,-346.53l-722.96 346.53z"/>
  <path class="fil8" d="M14533 19574.61c-0.12,-112.93 -18.93,-46.81 65.68,-63.07 -77.5,-182.38 -271.74,-596.44 -512.03,-473.21 26.95,49.48 151.14,117.12 222.58,235.74 80.06,132.95 105.81,217.36 223.77,300.54z"/>
  <path class="fil8" d="M7433.87 18514.08c-79.13,0 -51.64,15.94 -49.52,-77.89 -140.61,92.33 -167.57,231.5 -156.65,399.35 235.3,-31.1 230.28,-114.37 206.17,-321.46z"/>
  <path class="fil8" d="M6649.25 13017.75c99.96,66.66 43.86,80.18 188.14,2.9 -164.23,-98.55 -87.79,-74.19 -188.14,-2.9z"/>
  <path class="fil9" d="M15176 7751.7c-42.85,-55.25 44.04,-46.02 -98.62,-55.88l239.02 1355.61 142.36 -170.29 102.78 242.21 69.86 -257.44c55.07,-9.57 7.66,-154.43 100.97,112.17l76.25 -154.76c68.03,182.59 63.5,158.9 184.91,230.51 191.3,31.58 517.37,422.66 678.97,564.86 119.11,-104.68 354.84,-659.43 485.28,-851.03 137.22,-201.56 425.2,-713.44 601.04,-798.28 379.37,439.96 994.71,2455.41 1200.98,3178.32 82.45,288.97 171.58,1023.18 300.83,1209.43 136.81,-1053.07 -780.23,-4581.64 -1155.44,-5681.07 -318.53,101.14 -957.05,1616.25 -1145.64,2024.74 -98.61,213.58 -183.3,589.51 -285.93,731.76 -175.78,-42.36 -577.93,-613.12 -772.53,-848.64l-557.01 -669.27c-130.84,-177.45 -33.93,-164.03 -236.4,-144.94l68.32 -18.01z"/>
  <path class="fil9" d="M4582.18 14697.19c-67.6,31.29 -10.04,-5.37 -44.51,71.74l66.94 18.41c-160.63,256.97 -270.44,550.54 -369.51,845.2 -147.99,440.17 -119.49,664.1 -198.33,1083.31 229.69,-101.51 1083.88,-497.92 1260.84,-503.58 -20.94,-226.19 -245.04,-509.3 -328.32,-749.95 -76.14,-220.02 -115.6,-638.38 -223.48,-791.87l-163.63 26.74z"/>
  <path class="fil9" d="M14388.86 14945.89c26.6,29.83 985.57,653.12 1062.66,685.25 289.42,-340.97 581.09,-1228.19 629,-1682.09 -146.33,134.27 -148.74,253.6 -274.56,404.98 -73.06,87.92 -251.89,268.89 -344.61,332.62 -313.1,215.19 -692,303.51 -1072.49,259.24z"/>
  <path class="fil9" d="M5101.47 14184.99c-16.65,-256.37 288.8,-589.85 547.09,-650.43 277.93,-65.19 760.98,67.65 875.08,327.44 -287.5,-49.08 -323.69,-334.36 -849.6,-177.7 -440.93,131.35 -335.25,313.8 -572.57,500.69zm960.22 -704.88c-313.88,-69.52 -693.35,34.55 -707.35,46.76 -116.94,102.02 -119.37,243.77 -298.77,294.22 -3.05,189.63 -108.66,322.48 76.36,395.36 240.47,-114.39 20.31,-400.61 650.14,-358.17l195.77 13.2c290.81,38.92 217.99,124 558.13,118.64 98.04,144.68 3.6,80.79 158.1,182.75 127.41,-279.25 -67.18,-83.85 -35.71,-392.27 345.17,-18.81 453.18,108.58 881.8,-120.95 -230.16,-77.62 -655.11,-233.15 -868.72,-198.44 -95.88,15.58 -82.95,31.11 -286.86,-48.21 -285.81,-111.18 -196.45,-64.12 -322.89,67.11z"/>
  <path class="fil9" d="M4153.49 9674.09c-172.72,132.08 -278.15,447.02 -234.97,663.06l671.26 -321.81 104.18 -469.44 -411.53 249.73 24.02 -164.14 -5.65 -76.62 -147.31 119.22z"/>
  <path class="fil9" d="M9077.3 10076.52c81.71,73.06 246.73,86.14 383.94,131.15 507.43,166.44 129.11,-70.34 1251.94,-159.71l15.65 -107.88c-70.77,-102.66 49.39,-87.66 -68.7,-86.45 -23.8,93.92 -57.09,126.45 -6.61,92.44 -470.79,-22.94 -1118.38,25.69 -1576.22,130.45z"/>
  <path class="fil9" d="M10880.96 16041.22c133.53,75.49 187.04,302.58 249.83,452.06 172.29,19.94 368.53,-17.25 551.79,-19.47 151.89,-1.85 445.96,49.89 530.39,-52.01 -649.41,-130.26 -700.6,-47.11 -1231.45,-464.8 -44.76,-35.22 -62.22,-73.56 -193.54,-39.16 38.98,251 -13.2,35.43 92.98,123.38z"/>
  <path class="fil9" d="M16234.05 13652.29l-52.11 479.42c309.87,-193.47 852.56,-489.32 997.01,-817.49 -108.3,31.35 -307.65,143.93 -461.19,203.34 -169.49,65.58 -306.55,93.43 -483.71,134.73z"/>
  <path class="fil9" d="M8537.49 17033.58c231.59,171.93 294.09,130.12 554.4,32.66 218.48,-81.8 325.64,-84.08 542.52,-130.22l41.54 -445.99c-172.53,71.16 -315.12,249.34 -512.94,353.06 -192.32,100.84 -410.73,174.05 -625.52,190.49z"/>
  <path class="fil9" d="M15552.09 16528.99c194.02,105.98 519.32,91.19 742.85,4.93 20.63,-64.75 1.01,-29.72 -27.26,-111.78 135.33,-94.02 279.29,-198.05 339.26,-344.23l-178.6 -16.68c-78.4,280.62 -605.04,417.07 -876.25,467.76z"/>
  <path class="fil10" d="M8702.35 7306.68l902.95 -1680.18c119.33,-107.71 843.87,-64.12 1001.65,-39.56 52.59,191.94 53.84,1639.33 -2.22,1831.12l-1956.23 -5.9c-9.81,-150.54 -12.35,-51.23 53.85,-105.48zm-2363.92 -1334.82l434.81 2.5 -3.77 1038.64 -448.55 -14.65 17.51 -1026.49zm611.08 -374.72l2166.29 10.03c-41.52,214.39 -780.73,1535.38 -938.33,1797.02l-1240.29 -14.29 12.33 -1792.76zm2289.35 -189.93l-2474.91 11.68 -19.47 342.65 -577.64 12.4 1.5 1416.5 568.09 6.88 31.01 405.1 1228.27 13.47c-0.6,242.74 -350.73,587.33 -396.45,862.69l401.41 107.88 540.85 -975.3 2276.51 2.67 1.32 -2187.97 -1050.79 -10.04c41.61,-275.73 307.4,-519.35 348.49,-779.99l-382.34 -102.28 -495.85 873.66z"/>
  <path class="fil10" d="M10513.52 7342.06c59.03,-220.77 67.1,-928.18 -33.43,-1101.96 -93.34,310.22 -506.48,812.38 -530.17,1099.23l563.6 2.73z"/>
  <path class="fil11" d="M4346.69 11562.77c247.52,36.58 282.89,-203.39 176.33,-307.65 -133.99,-131.11 -248.51,100.58 -176.33,307.65z"/>
  <path class="fil12" d="M20698.35 15641.51c-173.87,74.78 -909.06,542.38 -1037.65,667.91 -146.47,142.99 -309.53,258.98 -498.11,348.93 -754.54,359.91 -311.34,52.9 -558.79,141.22 20.41,173.95 -199.52,538.38 -357.82,641.18 -183.34,412.53 -1200.05,1360.08 -1581.52,1666.07 -566.4,454.34 -1316.21,950.35 -2007.7,1184.81l11.01 -202.66c-129.25,-258.06 90.27,-140.87 -29.15,-282.55 5.31,219.58 33.05,424.86 -72.09,600.63l8.19 991.41c-530.26,301.45 -2036.98,-152.02 -2508.15,-512.84l-104.68 -1153.85c-155,-1193.64 -661.96,-2627.18 -675.64,-3116.23l167.89 -59.33c51.72,-9.08 92.77,-8.21 144.97,-10.4l749.55 -18.55c130.6,-41.27 -10.74,-51.4 255.32,-87.19 419.76,-56.47 1025,46.81 1366.93,-13.4l163.28 -13.23c-307.73,-25.99 -668.31,-68.17 -972.32,-71.88 -348.53,-4.26 -677.09,81.4 -948.9,80.24 -84.43,101.9 -378.5,50.16 -530.39,52.01 -183.26,2.22 -379.5,39.41 -551.79,19.47 -62.79,-149.48 -116.3,-376.57 -249.83,-452.06 78.81,278.05 256.08,635.07 355.57,936.98 372.52,1130.47 589.02,2027.46 684.51,3243.56 70.01,891.68 -508.13,1511.08 -1207.66,707.54 -743.78,-854.36 -500.97,-1202.44 -770.08,-1775.05 -93.42,-74.04 -54.46,67.05 -81.52,-123.16l15.78 11.54c-82.15,473.18 488.62,1552.55 568.46,2050.09 -363.25,25.56 -1426.33,124.19 -1685.34,-46.98 -502.95,112.46 -3950.8,-564.37 -4407.38,-822.44 -400.07,-65.07 -825.61,-347.29 -1140.57,-406.11l16.53 13.15c343.46,518.65 4161.9,1219.92 5193.88,1315.67 335.94,31.17 678.05,56.39 1017.63,64.24 344.29,7.97 732.61,-64.9 1057.66,-23.64 162.17,431.17 906.83,1874.34 1306.1,2017.8 196.35,-352.45 220.84,-1766.29 259.95,-2233.14 205.01,63.54 379.8,255.45 1091.84,466.38 316.62,93.8 1184.1,148.58 1473.8,32.27l12.06 -1125.95c966.45,-413.79 1431.26,-534.17 2339.84,-1384.66 590.82,-553.05 1317.12,-1227.82 1684.11,-2038.45 966.23,-198.76 778.87,-494.66 1613.34,-924.15 236.08,-121.5 293.33,-186.4 487.48,-352.07l-20.82 -84.11c29.47,102.34 53.27,80.98 -47.78,80.98z"/>
  <path class="fil12" d="M6937.18 7389.9l1240.29 14.29c157.6,-261.64 896.81,-1582.63 938.33,-1797.02l-2166.29 -10.03 -12.33 1792.76z"/>
  <path class="fil12" d="M2173.05 17544.16l95.95 -116.29c171.42,19.29 63.4,-25.55 174.78,66.24 589.15,-315.96 856.76,-392.21 1502.39,-669.26 258.81,-111.07 502.47,-227.72 758.38,-344.33 549.26,-250.27 436.53,-59.91 879,-47.08l36.11 -43.12 -232.56 -257.81c-12.81,145.31 6.69,34.53 -89.49,79.76 -176.96,5.66 -1031.15,402.07 -1260.84,503.58 -420.96,163.58 -1813.29,864.54 -2126.87,319.72 -175.35,-486.28 682.43,-1168.63 1017.76,-1399.08 314.41,-216.08 1275.34,-867.78 1610.01,-867.56 34.47,-77.11 -23.09,-40.45 44.51,-71.74l-20.5 -2.81c-944.73,36.71 -4249.62,2719.82 -4451.54,3610.43 186.26,-24.51 1928.5,-663.9 2062.91,-760.65z"/>
  <path class="fil12" d="M8702.35 7306.68l13.95 70.09 1783.28 -22.36 13.94 -12.35 -563.6 -2.73c23.69,-286.85 436.83,-789.01 530.17,-1099.23l108.88 -113.33 -16.85 -498.23 -966.82 -2.04 -902.95 1680.18z"/>
  <polygon class="fil12" points="6320.92,6998.35 6769.47,7013 6773.24,5974.36 6338.43,5971.86 "/>
  <path class="fil13" d="M6649.25 13017.75c100.35,-71.29 23.91,-95.65 188.14,2.9 -144.28,77.28 -88.18,63.76 -188.14,-2.9zm10529.7 296.47c-144.45,328.17 -687.14,624.02 -997.01,817.49l52.11 -479.42 24.16 -460.64c243.14,-185.31 500.25,-311.53 792.08,-404.38l28.23 84.76c47.05,187.43 -30.54,-49.19 12.54,65.6l274.85 -78.98c-22.6,165.45 -196.41,276.68 -296.23,391.99 14.06,0.56 44.64,-8.23 52.97,-7.45l56.3 71.03zm-12497.98 -468.63l-11.19 -322.49 456.8 65.18c-62.04,201.76 -232.29,281.35 -445.61,257.31zm664.83 -1832.79c179.17,114.14 302.52,280.77 396.57,484.51l667.79 1215.82 -585.58 -207.02c-316.18,-5.73 -1072.31,88.27 -1253.24,-196.17 -456.43,-79.84 -551.16,-826.23 -344.07,-1169.49 258.19,-427.95 757.44,-484.41 1118.53,-127.65zm5383.03 -1072.72l-15.65 107.88c-1122.83,89.37 -744.51,326.15 -1251.94,159.71 -137.21,-45.01 -302.23,-58.09 -383.94,-131.15 -217.4,17.24 -603.37,-81.32 -858.79,-97.97 -326.43,-21.27 -606.69,55.34 -893.01,30.31 1051.25,-793.45 4120.2,-1355.5 4305.68,-295.21 -179.93,55.82 63.25,-78.11 -110.34,3.13l10.87 231.99c-140.55,36.28 -298.99,-10.41 -416.65,-99.26 -56.99,142.1 23.32,60.1 -67.6,251.64l-318.63 -161.07zm-6167.15 4754.3l20.5 2.81 163.63 -26.74c107.88,153.49 147.34,571.85 223.48,791.87 83.28,240.65 307.38,523.76 328.32,749.95 96.18,-45.23 76.68,65.55 89.49,-79.76 -116.21,-352.73 -438.37,-647.89 -527.68,-1493.43 -32.71,-309.61 -36.8,-595.32 20.06,-897.7 45.75,-243.32 -140.86,-521.26 -195.58,-772.97 357.46,-196.17 248.67,-13.91 590.15,-392.79 161.75,-80.97 849.72,-1.76 1164.43,233.34 263.08,196.51 24.07,137.89 162.14,263.31 157.92,42.55 326.52,52.72 472.6,-14.97 -34.75,-120.84 -105.22,-170.67 -211.41,-249.51 -188.9,28.76 -58.68,61.25 -245.97,75.5 -138.08,-192.98 -431.31,-603.55 -466.6,-824.21 -125.93,-128.02 -201.94,-360.75 -295.81,-526.83 -102.76,-181.83 -234.79,-334.8 -340.01,-504.11l214.8 -180.42c191.83,-236.64 857.19,-537.69 1168.9,-635.1 2072.92,-647.84 3746.06,741.42 4214.96,886.71 -152.82,-76.63 -372.03,-286.11 -545.34,-393.67 -214.64,-133.21 -471.16,-224.22 -671.88,-356.16 166.3,-135.16 437.22,-183.41 666.9,-228.54 425.78,-83.65 399.56,192.36 697.17,-105.3l319.68 -9.67c292,-417.54 -32.21,-467.41 -94.4,-693.59 1215.7,-74.73 2246.01,259.05 3186.15,966.96 294.27,221.58 543.02,565.24 684.7,691.69 5.24,-4.91 12.79,-21.76 13.67,-16.65 0.85,4.95 10.41,-14.46 11.46,-17.41 95.31,-267.89 -11.24,-334.71 -162.9,-608.79 -110.65,-199.97 -266.8,-435.04 -351.12,-636.6l543.21 -131.31c29.98,-327.27 -69.96,-299.82 -92.98,-508.86l-239.02 -1355.61c142.66,9.86 55.77,0.63 98.62,55.88 339.94,47.11 1092.11,619.62 1451.64,700.9 299.59,-414.17 818.98,-2076.41 1437.26,-2761.7 562.95,268.15 3124.83,3166.84 3342.55,4031.04 -387.2,561.59 -737.81,1117.03 -1093.49,1698.27 -138.86,226.91 -939.45,1704.36 -998.66,1749.5 -35.69,-220.71 -104.78,-609.05 -54.67,-812.58 -129.25,-186.25 -218.38,-920.46 -300.83,-1209.43 -206.27,-722.91 -821.61,-2738.36 -1200.98,-3178.32 -175.84,84.84 -463.82,596.72 -601.04,798.28 -130.44,191.6 -366.17,746.35 -485.28,851.03 -161.6,-142.2 -487.67,-533.28 -678.97,-564.86l-125.71 154.06c80.75,198.1 122.49,624.36 88.57,818.97l-331.43 62.94c6.58,290.01 195.32,588.5 280.76,853.3l-280.92 250.64c-185.13,-167.71 -80.3,-210.68 -180.42,-111.86 209.55,467.8 435.13,702.05 585.54,1266.36 127.21,477.27 179.54,1121.88 50.6,1600.81 -47.91,453.9 -339.58,1341.12 -629,1682.09 -77.09,-32.13 -1036.06,-655.42 -1062.66,-685.25 -564.79,-65.29 -941.79,-568.86 -1312.02,-370.74 831.79,252.94 1788.16,685.62 2452.59,1232.9 158.68,-72.17 120.89,-125.52 341.57,-189.98l39.39 74.42 73.19 -8.23 -28.33 -122.76c-342.37,-66.56 -212.98,149.97 -455.55,153.32 78.42,-577.21 1100.51,-1035.55 1618.64,-1112.1l-476.67 9.6c-138.77,138.84 -515.02,306.63 -725.88,354.07l98.44 -293.41c146.59,-532.18 70.35,-337.32 482.56,-643.12 292.9,-217.29 479.65,-79.45 811.44,42.58 498.83,183.48 1093.53,432.06 1531.46,727.87l-210.25 76.34c45.36,21.31 652.95,69.47 1092.07,208.83 259.69,82.41 671.52,246.05 879.51,413.09l86.54 13.57 10.79 129.37c101.05,0 77.25,21.36 47.78,-80.98 -589.13,-659.28 -1322.83,-493.94 -1930.62,-882.05 -966.94,-617.44 -1693.23,-690.44 -1975.35,-857.02 104.76,-124.12 306.28,-279.3 398.52,-404.75 130.58,-177.61 2.42,-148.9 99.88,-320.65 87.19,-153.64 142.06,-43.83 117.06,-279.77 -110.81,-39.69 -122.49,-19.42 -178.29,-39 -131.65,-46.19 -86.28,-164.54 -446.25,-24.05 -180.73,70.54 -427.35,266.4 -566.6,298.26 -252.03,-1345.3 -120.97,-676.45 -559.39,-1726.87l330.14 -347.07c-56.16,-259.63 -304.61,-524.62 -299.78,-804.36l332.7 -72.18 -39.54 -914.76 668.7 553.63c134.31,-155.57 369.85,-644.32 499.3,-850.55 127.48,-203.08 402.62,-649.03 570.01,-783.89 428.52,674.31 1054.79,2924.25 1257.47,3856.74 113.53,522.31 151.68,999.23 244.04,1505.48 113.21,-46.64 985.58,-1737.88 1078.59,-1890.83l1146.89 -1900.88c-134.16,-607.82 -1084.19,-1751.76 -1497.19,-2231.84 -358.92,-417.23 -1493.1,-1600.66 -1932.47,-1841.05 -481.87,337.17 -1158.8,2146.8 -1481.33,2713.63l-1594.02 -768.61c-34.99,611.39 304.41,1382.5 334.91,1919.76 -186.97,44.51 -445.94,61.8 -600.51,164.94 94.59,340.9 537.65,827.15 601.65,1138.51 -234.79,-88.61 -1089.25,-1571.76 -3515.28,-1558.13 -783.3,4.4 -543.17,-189.08 -1521.56,-184.42 -1162.41,5.55 -2267.6,383.59 -3230.13,1007.79 -193.33,125.38 -560.56,143.63 -1151.57,539.29 -142.52,95.41 -342.63,281.34 -476.63,345.94 -925.24,-638.04 -1621.12,195.93 -1325.46,1012.18 144.17,398.02 234.74,324.97 450,552.37 15.67,456.75 46.45,599.82 240.61,1000.2 84.33,173.91 9.06,278.43 -16.34,478.21 -26.5,208.42 -2.52,410.85 -19.99,619.08 -125.13,68.08 -109.81,18.63 -196.62,110.57z"/>
  <path class="fil13" d="M6091.41 11057.15c83.43,-32.54 1390.57,38.09 1724.26,-7.58 955.2,-130.72 1243.47,-470.06 1214.7,234.41 -292.39,216.47 -450.57,96.95 -753.43,395.25 -776.69,765 -2398.2,-156.26 -2185.53,-622.08zm-37.15 -71.41c-237.53,451.15 0.42,620.48 189.75,977.71 174.77,101.41 305.02,338.02 610.28,483.18 895.27,-468.67 432.94,-284.38 1360.58,-617.57 360.37,-129.43 485.31,-419.38 736.44,75.41l34.54 -57.67c-50.28,-395.42 -421,-226.87 -633.07,-188.82 90.92,-138.84 425.26,-229.52 582.53,-256.38 179.73,231.72 130.13,317.87 178.72,597.08 49.07,281.94 169.06,325.15 122.77,641.89l-132.98 42.16c246.65,174.55 150.69,-324.16 107.64,-452.66 -86.49,-258.14 -37.44,-401.59 -86.87,-642.31 -22.74,-110.81 -64.02,-144.16 -66.49,-262 -1.33,-63.09 185.77,-635.3 -445.37,-530.83 -409.75,67.82 -207.86,143.66 -1198.89,194.15 -318.15,16.21 -1156.84,-59.84 -1359.58,-3.34z"/>
  <path class="fil13" d="M9675.95 16490.03l-41.54 445.99c-216.88,46.14 -324.04,48.42 -542.52,130.22 -260.31,97.46 -322.81,139.27 -554.4,-32.66 -315.33,16.64 -560.77,-168.45 -1630.11,-73.29 -307.95,27.4 -392.25,-132.3 -683.62,-256.3 -102.68,-43.7 -255.5,-81.14 -336.35,-125.29 -127.07,-69.4 -118.64,-119.84 -267.75,-188.38l-36.11 43.12c-152.9,103.31 -68.75,-75.74 -278.54,39.83 385.6,155.7 650.2,165.08 1043.81,383.32 -404.44,0.26 -1087.74,-69.62 -1419.07,132.48 202.45,-7.14 376.99,-71.81 566.85,-26.17 162.85,-93.95 772.32,-52.82 966.56,33.8 -252.52,118.72 -712.47,202.26 -1034.99,337.92 -280.7,118.08 -706.65,409.48 -910.63,475.69l-0.34 75.16c1035.76,-767.54 2447.69,-955.76 3694.14,-830.71 173.95,29.73 364.67,35.63 518.65,116.94 -196.47,122.52 -331.2,275.1 -555.24,379.27 -58.92,134.59 -325.93,277.35 -439.76,401.21 -100.03,108.85 -299.75,437.08 -350.64,484.01 -2.12,93.83 -29.61,77.89 49.52,77.89 13.32,-91.01 -14.06,-64.13 54.36,-79.3 223.61,-546.33 1534.71,-1430.61 2135.07,-1439.95 50.09,463.1 11.48,1705.85 254.26,2047.8l-15.78 -11.54c27.06,190.21 -11.9,49.12 81.52,123.16 -48.68,-450.1 -163.6,-883.92 -199.23,-1352.38 -39.48,-519.14 16.47,-1014.44 -26.14,-1492.05l-41.98 180.21z"/>
  <path class="fil13" d="M2949.33 7845.05c-13.11,-184.61 12.32,-338.44 45.52,-523.02 38.75,-215.46 59.34,-198.3 251.02,-298.13 243.73,-126.94 544.14,-325.39 790.59,-363.13 14.69,1043.92 -434,807.7 -494.25,1323.61l770.03 -531.31c-4.05,142.95 -53.76,280.52 -86.64,423.15 -53.42,231.75 -26.79,203.04 -239.77,311.68 -155.91,79.53 -579.8,383.73 -651.83,404.97 -290.33,-476.08 59.99,-643 150.2,-1033.02 -185.33,44.57 -362.85,181.04 -534.87,285.2zm-83.33 120.01l439.28 -251.95c-51.91,193.31 -165.38,286.95 -165.4,479.21 -0.01,172.35 50.07,391.14 154.19,524.39 44.83,-16.98 349,-229.03 431.18,-280.18 668.87,-416.32 449.2,7.56 699.9,-1122.46l-566.02 336.6c38.35,-166.26 133.7,-236.77 242.75,-352.82l30.14 -793.73c-322.03,82.68 -631.45,279.78 -919.95,442.06 -235.67,132.57 -239.28,114.91 -293.39,387.66 -40.78,205.55 -83.36,422.52 -52.68,631.22z"/>
  <path class="fil13" d="M2173.59 9503.1c204.89,-213.62 552.86,-579.94 801.31,-728.57 253.94,448.21 -1.05,584.26 -22.6,896.58l396.05 -340.3c17.54,277.83 -33.46,578.76 -237.68,774.61 -151.49,145.27 -334.4,384.08 -515.65,463.11 -191.26,-678.31 114.69,-605.48 150.01,-1130.42 -93.93,81.81 -454.23,458.49 -538.77,463.97l-32.67 -398.98zm-31.55 590.85c176.46,-50.47 281.38,-308.39 437.03,-422.64 -80.45,525.38 -271.3,402.14 -22.59,1059.85 156.5,-58.58 462.81,-440.17 629.78,-591.24 251.98,-227.99 232.95,-237.21 293.48,-982.76 -199.3,47.46 -226.33,146.97 -360.74,209.65 50.68,-198.62 -2.14,-510.74 -96.21,-685.5 -239.68,87.79 -480.68,333.14 -659.58,506.53 -331.26,321.07 -291.54,418.64 -221.17,906.11z"/>
  <path class="fil13" d="M2443.78 17494.11c-111.38,-91.79 -3.36,-46.95 -174.78,-66.24l-95.95 116.29c152.68,-5.2 61.51,-53.81 127.66,34.41 -264.4,299.28 -438.09,544.73 -645.15,890.21 -168.24,280.72 -608.4,614.32 -571.55,939.62 248.83,337.82 1335.59,165.12 1733.48,134.55 166.18,128.07 188.45,207.68 411.77,287.39l-16.53 -13.15c-125.36,-180.86 -248.93,-97.69 -284.37,-316.08l707.64 -35.47 -237.67 -25.72c-220.47,-110.94 -253.26,-41.61 -518.36,-11.98 -178.57,19.96 -360.59,39.34 -540.65,52.05 -362.76,25.61 -785.06,64.03 -1123.86,-87.19 -25.89,-164.31 1.27,-229.93 139.61,-307.34 1.51,-4.88 564.01,-886.94 637.46,-1000.22 169.26,-261.06 640.19,-658.22 968.88,-611.12 -125.43,-129.88 -386.43,57.48 -540.78,97.94l23.15 -77.95z"/>
  <path class="fil13" d="M4306.45 9631.49l-24.02 164.14 411.53 -249.73 -104.18 469.44 -671.26 321.81c-43.18,-216.04 62.25,-530.98 234.97,-663.06 -55.99,-88 75.65,-119.61 -151.39,-36.05 -49.05,18.06 -54.45,34.27 -115.98,52.55 -40.69,-291.11 -5.33,-297.83 245.02,-426.5 151.48,-77.85 278.75,-177.55 437.1,-212.07 12.14,238.85 -57.98,455.95 -261.79,579.47zm-474.03 -247.87l-43.42 445.45 187.98 -63c-101.21,291.97 -208.76,320.96 -138.03,694.4l799.2 -353.09 202.26 -711.74 -327.79 147.02c39.21,-248.58 108.24,-15.96 142.14,-590.9 -210.2,18.44 -643.02,293.12 -822.34,431.86z"/>
  <path class="fil13" d="M8419.91 14084.04c129.46,-610.69 1137.38,-520.87 1475.01,-151.43l209.89 180.61c-109.1,-329.49 -640.47,-576.98 -1000.2,-584.82 -347.5,-7.58 -1036.21,245.4 -846.86,687.07 131.19,-57.36 62.11,-17.68 162.16,-131.43z"/>
  <path class="fil13" d="M5101.47 14184.99c237.32,-186.89 131.64,-369.34 572.57,-500.69 525.91,-156.66 562.1,128.62 849.6,177.7 -114.1,-259.79 -597.15,-392.63 -875.08,-327.44 -258.29,60.58 -563.74,394.06 -547.09,650.43z"/>
  <path class="fil13" d="M4618.43 12283.16c105.77,-32.53 160.32,-497.48 373.79,-642.89 37.23,-184.81 228.23,-358.71 361.86,-508.29l-104.88 -20.68c-257.85,409.47 -569.76,586.5 -630.77,1171.86z"/>
  <path class="fil13" d="M7059.51 10618.86c203.17,40.27 442.25,30.23 623.85,-60.44 -123.8,-93.65 -173.16,-78.75 -356.41,-60.98 -105.65,10.24 -262.96,18.5 -267.44,121.42z"/>
  <path class="fil11" d="M16737.34 18332.71l-2.27 -24.48c196.53,-74.07 179.47,-108.68 303.49,-264.71 120.22,-151.25 221.39,-149.13 286.33,-308.55 90.52,-222.22 -78.67,-99.13 160.32,-345.92 135.8,-140.23 176.3,-231.5 356.77,-308.16 -208.79,783.4 -1735.38,2197.43 -2654.22,1893.71 142.23,-118.44 625.06,-293.44 875.69,-469.91 141.83,-99.87 700.75,-494.82 812.42,-522.7 -89.93,113.49 -128.62,212.5 -138.53,350.72zm-723.11 -3659.73l627.44 -60.66 476.67 -9.6c-518.13,76.55 -1540.22,534.89 -1618.64,1112.1 242.57,-3.35 113.18,-219.88 455.55,-153.32l28.33 122.76c97.9,272.12 44.35,-34.54 485.13,42.55 17.3,192.33 14.8,82.66 -52.77,247.08l263.35 22.01c49.49,154.5 -65.24,409.98 -193.97,502.38l-10.5 164.48 168.56 155.25c-173.61,20.79 -286.72,33.61 -388.33,-76.5l-756.24 -130.95c207.7,87.97 525.13,152.22 674.63,304.19 -267.88,-14.89 -725.41,-212.08 -1035.1,-275.84 -202.14,-41.61 -1093.93,-163.28 -1167.43,-212.24 -341.93,60.21 -947.17,-43.07 -1366.93,13.4 -266.06,35.79 -124.72,45.92 -255.32,87.19l-749.55 18.55c-52.2,2.19 -93.25,1.32 -144.97,10.4l-167.89 59.33c13.68,489.05 520.64,1922.59 675.64,3116.23 203.87,130.8 355.24,545.35 1068.89,991.69 448.26,280.36 961.72,492.56 1494.38,550.44 44.08,-289.41 -61.02,-644.56 33.52,-920.98l-25.68 -778.31c-117.96,-83.18 -143.71,-167.59 -223.77,-300.54 -71.44,-118.62 -195.63,-186.26 -222.58,-235.74 240.29,-123.23 434.53,290.83 512.03,473.21l50.5 181.06c5.71,-302.92 -70.47,-467.96 -132.11,-718.87 240.68,137.95 217.74,429.75 261.4,694.32l131.2 -290.77 20.95 115.86c636.51,224.67 2683.15,-1403.12 3081.89,-1908.35 116.77,-147.97 81.5,-131.15 233.47,-144.04 158.3,-102.8 378.23,-467.23 357.82,-641.18 55.77,-274.05 58.08,-358.57 23.78,-643.9 526.77,46.53 579.38,-83.45 998.82,-298.24 562.35,-287.97 772,-242.04 916.65,-316.11l57.97 -42.75c-207.99,-167.04 -619.82,-330.68 -879.51,-413.09 -439.12,-139.36 -1046.71,-187.52 -1092.07,-208.83l210.25 -76.34c-437.93,-295.81 -1032.63,-544.39 -1531.46,-727.87 -331.79,-122.03 -518.54,-259.87 -811.44,-42.58 -412.21,305.8 -335.97,110.94 -482.56,643.12z"/>
  <path class="fil11" d="M4929.75 16989.07c-132.62,124.93 -80.98,67.14 -267.83,85.84l-1228.51 249.95c-320.69,65.73 -276.65,123.21 -472,149.26 -328.69,-47.1 -799.62,350.06 -968.88,611.12 -73.45,113.28 -635.95,995.34 -637.46,1000.22 359.82,204.74 1631.26,191.95 2127.73,156.24l367.96 79 -452.43 119.22 237.67 25.72c-96.48,128.48 -70.7,41.31 -220.5,160.08 104.75,127.27 279.24,210.58 435.81,296.56l368.49 180.14c182.77,82.04 53.16,-40.99 133.5,120.88 456.58,258.07 3904.43,934.9 4407.38,822.44 326.12,-82.58 718.42,135.79 1152.85,15.15l-222.38 -751.77 -182.79 18.47 -60.31 -162.81c-471.73,222.44 -2117.91,-7.51 -2668.19,-38.04 -384.89,-21.36 -1396.47,-225.15 -1829.07,-345.18 -348.47,-96.69 -442.7,-107.25 -519.61,-266.64 115.07,-8.5 29.01,-24.86 196.07,4.59l984.07 269.31c681.15,149.07 3790.26,487.01 3978,324.57 76.37,-150.85 45.41,-124.6 9.08,-319.49 -119.84,-643.03 -168.12,-1749.93 -23.02,-2327.49 -279.4,-15.76 -852.92,223.48 -1105.01,328.34 -357.17,148.57 -713.34,381.87 -982.14,640.03 -68.42,15.17 -41.04,-11.71 -54.36,79.3 24.11,207.09 29.13,290.36 -206.17,321.46 -10.92,-167.85 16.04,-307.02 156.65,-399.35 50.89,-46.93 250.61,-375.16 350.64,-484.01 113.83,-123.86 380.84,-266.62 439.76,-401.21 -27.72,21.7 -143.2,93.93 -209.66,133.63 -35.16,21.01 -132.14,89.06 -150.71,97.54 -158.44,72.43 -48.21,37.64 -218.48,42.04 65.1,-241.01 420.59,-553.25 615.44,-769.42 -1246.45,-125.05 -2658.38,63.17 -3694.14,830.71l0.34 -75.16c265.15,-340.04 719,-669.98 1128.57,-815.44l-149.51 -31.97c-189.86,-45.64 -364.4,19.03 -566.85,26.17z"/>
  <path class="fil11" d="M8985.85 11846.8c130.66,343.51 0.57,496.8 117.97,835.93l132.98 -42.16c46.29,-316.74 -73.7,-359.95 -122.77,-641.89 -48.59,-279.21 1.01,-365.36 -178.72,-597.08 -157.27,26.86 -491.61,117.54 -582.53,256.38 212.07,-38.05 582.79,-206.6 633.07,188.82z"/>
  <path class="fil14" d="M8419.91 14084.04c-100.05,113.75 -30.97,74.07 -162.16,131.43 -189.35,-441.67 499.36,-694.65 846.86,-687.07 359.73,7.84 891.1,255.33 1000.2,584.82l-209.89 -180.61 129.22 207.63c-302.06,-93.59 -569.96,-516.38 -1261.05,-270.01 -221.41,78.92 -172.93,125.8 -343.18,213.81zm-2358.22 -603.93c126.44,-131.23 37.08,-178.29 322.89,-67.11 203.91,79.32 190.98,63.79 286.86,48.21 213.61,-34.71 638.56,120.82 868.72,198.44 -428.62,229.53 -536.63,102.14 -881.8,120.95 -31.47,308.42 163.12,113.02 35.71,392.27 -154.5,-101.96 -60.06,-38.07 -158.1,-182.75 -340.14,5.36 -267.32,-79.72 -558.13,-118.64l-195.77 -13.2c-629.83,-42.44 -409.67,243.78 -650.14,358.17 -185.02,-72.88 -79.41,-205.73 -76.36,-395.36 179.4,-50.45 181.83,-192.2 298.77,-294.22 14,-12.21 393.47,-116.28 707.35,-46.76zm4273.95 -1877.31c849.83,-260.8 1329.49,1069.85 402.94,1409.1 -923.08,337.98 -1295.03,-1135.34 -402.94,-1409.1zm-3276.13 -983.94c4.48,-102.92 161.79,-111.18 267.44,-121.42 183.25,-17.77 232.61,-32.67 356.41,60.98 -181.6,90.67 -420.68,100.71 -623.85,60.44zm-1331.29 228.86c-43.13,208.75 -75.78,217.45 25.16,391.09 196.2,-87.11 91.68,-29.68 185.97,-234.26l114.91 -18.81c202.74,-56.5 1041.43,19.55 1359.58,3.34 991.03,-50.49 789.14,-126.33 1198.89,-194.15 631.14,-104.47 444.04,467.74 445.37,530.83 2.47,117.84 43.75,151.19 66.49,262 49.43,240.72 0.38,384.17 86.87,642.31 43.05,128.5 139.01,627.21 -107.64,452.66 -117.4,-339.13 12.69,-492.42 -117.97,-835.93l-34.54 57.67c-251.13,-494.79 -376.07,-204.84 -736.44,-75.41 -927.64,333.19 -465.31,148.9 -1360.58,617.57 -305.26,-145.16 -435.51,-381.77 -610.28,-483.18l-94.77 95.63c35.29,220.66 328.52,631.23 466.6,824.21 187.29,-14.25 57.07,-46.74 245.97,-75.5 106.19,78.84 176.66,128.67 211.41,249.51 -146.08,67.69 -314.68,57.52 -472.6,14.97 -138.07,-125.42 100.94,-66.8 -162.14,-263.31 -314.71,-235.1 -1002.68,-314.31 -1164.43,-233.34 -341.48,378.88 -232.69,196.62 -590.15,392.79 54.72,251.71 241.33,529.65 195.58,772.97 -56.86,302.38 -52.77,588.09 -20.06,897.7 89.31,845.54 411.47,1140.7 527.68,1493.43l232.56 257.81c149.11,68.54 140.68,118.98 267.75,188.38 80.85,44.15 233.67,81.59 336.35,125.29 291.37,124 375.67,283.7 683.62,256.3 1069.34,-95.16 1314.78,89.93 1630.11,73.29 214.79,-16.44 433.2,-89.65 625.52,-190.49 197.82,-103.72 340.41,-281.9 512.94,-353.06l41.98 -180.21c42.61,477.61 -13.34,972.91 26.14,1492.05 35.63,468.46 150.55,902.28 199.23,1352.38 269.11,572.61 26.3,920.69 770.08,1775.05 699.53,803.54 1277.67,184.14 1207.66,-707.54 -95.49,-1216.1 -311.99,-2113.09 -684.51,-3243.56 -99.49,-301.91 -276.76,-658.93 -355.57,-936.98 -106.18,-87.95 -54,127.62 -92.98,-123.38 131.32,-34.4 148.78,3.94 193.54,39.16 530.85,417.69 582.04,334.54 1231.45,464.8 271.81,1.16 600.37,-84.5 948.9,-80.24 304.01,3.71 664.59,45.89 972.32,71.88 401.26,6.35 1086.13,169.45 1417.9,115.55 271.21,-50.69 797.85,-187.14 876.25,-467.76l-147.1 -39.98 104.59 -248.33 -476.77 73.82 1.33 -154.25 -39.39 -74.42c-220.68,64.46 -182.89,117.81 -341.57,189.98 -664.43,-547.28 -1620.8,-979.96 -2452.59,-1232.9 370.23,-198.12 747.23,305.45 1312.02,370.74 380.49,44.27 759.39,-44.05 1072.49,-259.24 92.72,-63.73 271.55,-244.7 344.61,-332.62 125.82,-151.38 128.23,-270.71 274.56,-404.98 128.94,-478.93 76.61,-1123.54 -50.6,-1600.81 -150.41,-564.31 -375.99,-798.56 -585.54,-1266.36l-89.32 -110.83c-141.68,-126.45 -390.43,-470.11 -684.7,-691.69 -940.14,-707.91 -1970.45,-1041.69 -3186.15,-966.96 62.19,226.18 386.4,276.05 94.4,693.59l-319.68 9.67c-297.61,297.66 -271.39,21.65 -697.17,105.3 -229.68,45.13 -500.6,93.38 -666.9,228.54 200.72,131.94 457.24,222.95 671.88,356.16 173.31,107.56 392.52,317.04 545.34,393.67 -468.9,-145.29 -2142.04,-1534.55 -4214.96,-886.71 -311.71,97.41 -977.07,398.46 -1168.9,635.1z"/>
  <path class="fil14" d="M15176 7751.7l-68.32 18.01c202.47,-19.09 105.56,-32.51 236.4,144.94l557.01 669.27c194.6,235.52 596.75,806.28 772.53,848.64 102.63,-142.25 187.32,-518.18 285.93,-731.76 188.59,-408.49 827.11,-1923.6 1145.64,-2024.74 375.21,1099.43 1292.25,4628 1155.44,5681.07 -50.11,203.53 18.98,591.87 54.67,812.58 59.21,-45.14 859.8,-1522.59 998.66,-1749.5 355.68,-581.24 706.29,-1136.68 1093.49,-1698.27 -217.72,-864.2 -2779.6,-3762.89 -3342.55,-4031.04 -618.28,685.29 -1137.67,2347.53 -1437.26,2761.7 -359.53,-81.28 -1111.7,-653.79 -1451.64,-700.9z"/>
  <path class="fil14" d="M4036.77 16715.85c78.84,-419.21 50.34,-643.14 198.33,-1083.31 99.07,-294.66 208.88,-588.23 369.51,-845.2l-66.94 -18.41c-334.67,-0.22 -1295.6,651.48 -1610.01,867.56 -335.33,230.45 -1193.11,912.8 -1017.76,1399.08 313.58,544.82 1705.91,-156.14 2126.87,-319.72z"/>
  <path class="fil14" d="M9077.3 10076.52c457.84,-104.76 1105.43,-153.39 1576.22,-130.45 -50.48,34.01 -17.19,1.48 6.61,-92.44 118.09,-1.21 -2.07,-16.21 68.7,86.45l318.63 161.07c90.92,-191.54 10.61,-109.54 67.6,-251.64 117.66,88.85 276.1,135.54 416.65,99.26l-10.87 -231.99c173.59,-81.24 -69.59,52.69 110.34,-3.13 -185.48,-1060.29 -3254.43,-498.24 -4305.68,295.21 286.32,25.03 566.58,-51.58 893.01,-30.31 255.42,16.65 641.39,115.21 858.79,97.97z"/>
  <path class="fil14" d="M16234.05 13652.29c177.16,-41.3 314.22,-69.15 483.71,-134.73 153.54,-59.41 352.89,-171.99 461.19,-203.34l-56.3 -71.03c-8.33,-0.78 -38.91,8.01 -52.97,7.45 99.82,-115.31 273.63,-226.54 296.23,-391.99l-274.85 78.98c-43.08,-114.79 34.51,121.83 -12.54,-65.6l-28.23 -84.76c-291.83,92.85 -548.94,219.07 -792.08,404.38l-24.16 460.64z"/>
  <path class="fil15" d="M10480.09 6240.1c100.53,173.78 92.46,881.19 33.43,1101.96l-13.94 12.35 -1783.28 22.36 -13.95 -70.09c-66.2,54.25 -63.66,-45.06 -53.85,105.48l1956.23 5.9c56.06,-191.79 54.81,-1639.18 2.22,-1831.12 -157.78,-24.56 -882.32,-68.15 -1001.65,39.56l966.82 2.04 16.85 498.23 -108.88 113.33z"/>
  <path class="fil16" d="M14598.68 19511.54c-84.61,16.26 -65.8,-49.86 -65.68,63.07l25.68 778.31 7.85 54.13c105.14,-175.77 77.4,-381.05 72.09,-600.63 119.42,141.68 -100.1,24.49 29.15,282.55 171.45,-103.94 245.31,-389.9 262.85,-595.83l-20.95 -115.86 -131.2 290.77c-43.66,-264.57 -20.72,-556.37 -261.4,-694.32 61.64,250.91 137.82,415.95 132.11,718.87l-50.5 -181.06z"/>
 </g>
</svg>
