<svg xmlns="http://www.w3.org/2000/svg" viewBox="0 0 500 500"><g id="freepik--background-simple--inject-315"><path d="M456.6,355c-21.54,36.17-58.77,72.78-102.68,77.64C287.58,440,270.84,489.39,159,464.2a231.3,231.3,0,0,1-47.44-16A192.86,192.86,0,0,1,90,436.4C29,397.76,5.33,332.82,13.65,270.88c10.92-81.46,74.28-109.72,115-125.6S229.41,50.06,339.57,74a224.08,224.08,0,0,1,48.77,16.43c35.46,16.87,69.31,46.09,85.41,82.73,1.21,2.76,2.33,5.55,3.38,8.38C497.52,236.88,486,305.74,456.6,355Z" style="fill:#407BFF"></path><path d="M456.6,355c-21.54,36.17-58.77,72.78-102.68,77.64C287.58,440,270.84,489.39,159,464.2a231.3,231.3,0,0,1-47.44-16A192.86,192.86,0,0,1,90,436.4C29,397.76,5.33,332.82,13.65,270.88c10.92-81.46,74.28-109.72,115-125.6S229.41,50.06,339.57,74a224.08,224.08,0,0,1,48.77,16.43c35.46,16.87,69.31,46.09,85.41,82.73,1.21,2.76,2.33,5.55,3.38,8.38C497.52,236.88,486,305.74,456.6,355Z" style="fill:#fff;opacity:0.7000000000000001"></path></g><g id="freepik--Bricks--inject-315"><g style="opacity:0.30000000000000004"><rect x="423.78" y="171.45" width="29.29" height="12.26" style="fill:none;stroke:#000;stroke-linecap:round;stroke-linejoin:round"></rect><rect x="408.11" y="187.12" width="29.29" height="12.26" style="fill:none;stroke:#000;stroke-linecap:round;stroke-linejoin:round"></rect><polyline points="462.71 187.12 470.09 187.12 470.09 199.38 440.8 199.38 440.8 187.12 455.44 187.12" style="fill:none;stroke:#000;stroke-linecap:round;stroke-linejoin:round"></polyline></g><g style="opacity:0.30000000000000004"><rect x="278.07" y="345.84" width="29.29" height="12.26" style="fill:none;stroke:#000;stroke-linecap:round;stroke-linejoin:round"></rect><rect x="262.41" y="361.51" width="29.29" height="12.26" style="fill:none;stroke:#000;stroke-linecap:round;stroke-linejoin:round"></rect><polyline points="317 361.5 324.38 361.5 324.38 373.76 295.1 373.76 295.1 361.5 309.73 361.5" style="fill:none;stroke:#000;stroke-linecap:round;stroke-linejoin:round"></polyline></g><g style="opacity:0.30000000000000004"><rect x="46.97" y="201.92" width="29.29" height="12.26" style="fill:none;stroke:#000;stroke-linecap:round;stroke-linejoin:round"></rect><rect x="31.31" y="217.58" width="29.29" height="12.26" style="fill:none;stroke:#000;stroke-linecap:round;stroke-linejoin:round"></rect><polyline points="85.91 217.58 93.29 217.58 93.29 229.84 64 229.84 64 217.58 78.63 217.58" style="fill:none;stroke:#000;stroke-linecap:round;stroke-linejoin:round"></polyline></g><g style="opacity:0.30000000000000004"><rect x="423.78" y="202.85" width="29.29" height="12.26" style="fill:none;stroke:#000;stroke-linecap:round;stroke-linejoin:round"></rect><rect x="408.11" y="218.52" width="29.29" height="12.26" style="fill:none;stroke:#000;stroke-linecap:round;stroke-linejoin:round"></rect><polyline points="455.03 230.78 440.8 230.78 440.8 218.52 470.09 218.52 470.09 230.78 459.88 230.78" style="fill:none;stroke:#000;stroke-linecap:round;stroke-linejoin:round"></polyline></g><g style="opacity:0.30000000000000004"><rect x="255.49" y="65.24" width="29.29" height="12.26" style="fill:none;stroke:#000;stroke-linecap:round;stroke-linejoin:round"></rect><rect x="239.82" y="80.9" width="29.29" height="12.26" style="fill:none;stroke:#000;stroke-linecap:round;stroke-linejoin:round"></rect><polyline points="294.42 80.9 301.8 80.9 301.8 93.16 272.51 93.16 272.51 80.9 287.15 80.9" style="fill:none;stroke:#000;stroke-linecap:round;stroke-linejoin:round"></polyline></g><g style="opacity:0.30000000000000004"><rect x="121.85" y="318.03" width="29.29" height="12.26" style="fill:none;stroke:#000;stroke-linecap:round;stroke-linejoin:round"></rect><rect x="106.18" y="333.69" width="29.29" height="12.26" style="fill:none;stroke:#000;stroke-linecap:round;stroke-linejoin:round"></rect><polyline points="160.78 333.69 168.16 333.69 168.16 345.95 138.87 345.95 138.87 333.69 153.5 333.69" style="fill:none;stroke:#000;stroke-linecap:round;stroke-linejoin:round"></polyline></g><g style="opacity:0.30000000000000004"><rect x="129.09" y="99.85" width="29.29" height="12.26" style="fill:none;stroke:#000;stroke-linecap:round;stroke-linejoin:round"></rect><rect x="113.43" y="115.52" width="29.29" height="12.26" style="fill:none;stroke:#000;stroke-linecap:round;stroke-linejoin:round"></rect><polyline points="168.02 115.52 175.4 115.52 175.4 127.78 146.12 127.78 146.12 115.52 160.75 115.52" style="fill:none;stroke:#000;stroke-linecap:round;stroke-linejoin:round"></polyline></g><g style="opacity:0.30000000000000004"><rect x="309.43" y="379.84" width="29.29" height="12.26" style="fill:none;stroke:#000;stroke-linecap:round;stroke-linejoin:round"></rect><rect x="293.76" y="395.5" width="29.29" height="12.26" style="fill:none;stroke:#000;stroke-linecap:round;stroke-linejoin:round"></rect><polyline points="340.68 407.76 326.45 407.76 326.45 395.5 355.74 395.5 355.74 407.76 345.53 407.76" style="fill:none;stroke:#000;stroke-linecap:round;stroke-linejoin:round"></polyline></g></g><g id="freepik--Books--inject-315"><path d="M142.2,429.87v-7.81a4.58,4.58,0,0,1,4.58-4.58H85.91a4.58,4.58,0,0,0-4.58,4.58v7.81a4.59,4.59,0,0,0,4.58,4.59h60.87A4.59,4.59,0,0,1,142.2,429.87Z" style="fill:#8c8c8c;stroke:#263238;stroke-linecap:round;stroke-linejoin:round"></path><path d="M185.24,418.1l.52-.34a.15.15,0,0,0-.09-.28H146.78a4.58,4.58,0,0,0-4.58,4.58v7.81a4.59,4.59,0,0,0,4.58,4.59h38.89a.16.16,0,0,0,.09-.29l-.52-.33Z" style="fill:#fff;stroke:#263238;stroke-linecap:round;stroke-linejoin:round;stroke-width:0.5px"></path><path d="M147.38,418.1h37.86a0,0,0,0,1,0,0v15.74a0,0,0,0,1,0,0H147.38A4.34,4.34,0,0,1,143,429.5v-7.07A4.34,4.34,0,0,1,147.38,418.1Z" style="fill:#fff;stroke:#263238;stroke-linecap:round;stroke-linejoin:round;stroke-width:0.5px"></path><line x1="144.37" y1="420.99" x2="159.54" y2="420.99" style="fill:#fff;stroke:#263238;stroke-linecap:round;stroke-linejoin:round;stroke-width:0.5px"></line><line x1="155.56" y1="422.43" x2="169.72" y2="422.43" style="fill:#fff;stroke:#263238;stroke-linecap:round;stroke-linejoin:round;stroke-width:0.5px"></line><line x1="164.12" y1="424.21" x2="150.56" y2="424.21" style="fill:#fff;stroke:#263238;stroke-linecap:round;stroke-linejoin:round;stroke-width:0.5px"></line><line x1="144.71" y1="429.64" x2="153.61" y2="429.64" style="fill:#fff;stroke:#263238;stroke-linecap:round;stroke-linejoin:round;stroke-width:0.5px"></line><line x1="151.32" y1="430.91" x2="164.63" y2="430.91" style="fill:#fff;stroke:#263238;stroke-linecap:round;stroke-linejoin:round;stroke-width:0.5px"></line><line x1="149.71" y1="432.1" x2="153.27" y2="432.1" style="fill:#fff;stroke:#263238;stroke-linecap:round;stroke-linejoin:round;stroke-width:0.5px"></line><line x1="159.71" y1="428.45" x2="182.35" y2="428.45" style="fill:#fff;stroke:#263238;stroke-linecap:round;stroke-linejoin:round;stroke-width:0.5px"></line><line x1="184.98" y1="424.81" x2="180.31" y2="424.81" style="fill:#fff;stroke:#263238;stroke-linecap:round;stroke-linejoin:round;stroke-width:0.5px"></line><line x1="184.21" y1="423.62" x2="179.47" y2="423.62" style="fill:#fff;stroke:#263238;stroke-linecap:round;stroke-linejoin:round;stroke-width:0.5px"></line><line x1="184.21" y1="431.25" x2="172.34" y2="431.25" style="fill:#fff;stroke:#263238;stroke-linecap:round;stroke-linejoin:round;stroke-width:0.5px"></line><path d="M145.48,412.48v-7.82a4.58,4.58,0,0,1,4.58-4.58H89.19a4.58,4.58,0,0,0-4.58,4.58v7.82a4.58,4.58,0,0,0,4.58,4.58h60.87A4.58,4.58,0,0,1,145.48,412.48Z" style="fill:#407BFF;stroke:#263238;stroke-linecap:round;stroke-linejoin:round"></path><path d="M188.52,400.7l.52-.34a.15.15,0,0,0-.09-.28H150.06a4.58,4.58,0,0,0-4.58,4.58v7.82a4.58,4.58,0,0,0,4.58,4.58H189a.15.15,0,0,0,.09-.28l-.52-.34Z" style="fill:#8c8c8c;stroke:#263238;stroke-linecap:round;stroke-linejoin:round"></path><path d="M150.67,400.7h37.86a0,0,0,0,1,0,0v15.74a0,0,0,0,1,0,0H150.67a4.34,4.34,0,0,1-4.34-4.34V405A4.34,4.34,0,0,1,150.67,400.7Z" style="fill:#fff;stroke:#263238;stroke-linecap:round;stroke-linejoin:round;stroke-width:0.5px"></path><line x1="147.65" y1="403.6" x2="162.82" y2="403.6" style="fill:none;stroke:#263238;stroke-linecap:round;stroke-linejoin:round;stroke-width:0.5px"></line><line x1="158.84" y1="405.04" x2="173" y2="405.04" style="fill:none;stroke:#263238;stroke-linecap:round;stroke-linejoin:round;stroke-width:0.5px"></line><line x1="167.4" y1="406.82" x2="153.84" y2="406.82" style="fill:none;stroke:#263238;stroke-linecap:round;stroke-linejoin:round;stroke-width:0.5px"></line><line x1="147.99" y1="412.25" x2="156.89" y2="412.25" style="fill:none;stroke:#263238;stroke-linecap:round;stroke-linejoin:round;stroke-width:0.5px"></line><line x1="154.6" y1="413.52" x2="167.91" y2="413.52" style="fill:none;stroke:#263238;stroke-linecap:round;stroke-linejoin:round;stroke-width:0.5px"></line><line x1="152.99" y1="414.7" x2="156.55" y2="414.7" style="fill:none;stroke:#263238;stroke-linecap:round;stroke-linejoin:round;stroke-width:0.5px"></line><line x1="162.99" y1="411.06" x2="185.63" y2="411.06" style="fill:none;stroke:#263238;stroke-linecap:round;stroke-linejoin:round;stroke-width:0.5px"></line><line x1="188.26" y1="407.41" x2="183.59" y2="407.41" style="fill:none;stroke:#263238;stroke-linecap:round;stroke-linejoin:round;stroke-width:0.5px"></line><line x1="187.49" y1="406.23" x2="182.75" y2="406.23" style="fill:none;stroke:#263238;stroke-linecap:round;stroke-linejoin:round;stroke-width:0.5px"></line><line x1="187.49" y1="413.86" x2="175.63" y2="413.86" style="fill:none;stroke:#263238;stroke-linecap:round;stroke-linejoin:round;stroke-width:0.5px"></line><path d="M95.12,412.6v-8.47H98.4V405H96.3v2.8H98v.84H96.3v3.1h2.13v.85Z" style="fill:#263238"></path><path d="M99.38,412.6v-8.47h.8l2.41,5.63v-5.63h1v8.47h-.75l-2.44-5.78v5.78Z" style="fill:#263238"></path><path d="M106.92,412.7a2.1,2.1,0,0,1-1.27-.34,1.83,1.83,0,0,1-.69-1,4.81,4.81,0,0,1-.22-1.56V407a6,6,0,0,1,.19-1.58,1.78,1.78,0,0,1,.69-1,2.44,2.44,0,0,1,1.39-.34,2.74,2.74,0,0,1,1.28.26,1.55,1.55,0,0,1,.71.82,3.87,3.87,0,0,1,.22,1.38v.32h-1.11v-.26a4.51,4.51,0,0,0-.08-.91.79.79,0,0,0-.29-.52A1.14,1.14,0,0,0,107,405a1,1,0,0,0-.76.24,1.19,1.19,0,0,0-.29.65,6.65,6.65,0,0,0-.06.94v3.13a4.82,4.82,0,0,0,.09,1,1,1,0,0,0,.34.6,1.09,1.09,0,0,0,.71.2,1,1,0,0,0,.71-.22,1.11,1.11,0,0,0,.35-.64,5.41,5.41,0,0,0,.09-1.07v-.59h-1.07v-.83h2.14v4.19h-.74l-.12-1a1.73,1.73,0,0,1-.52.77A1.49,1.49,0,0,1,106.92,412.7Z" style="fill:#263238"></path><path d="M110.49,412.6v-8.47h1.18v7.62h2.17v.85Z" style="fill:#263238"></path><path d="M114.71,412.6v-8.47h1.16v8.47Z" style="fill:#263238"></path><path d="M119.23,412.69a2.18,2.18,0,0,1-1.21-.31,2,2,0,0,1-.74-.87,3.39,3.39,0,0,1-.29-1.28l1-.29a4.94,4.94,0,0,0,.14.87,1.74,1.74,0,0,0,.36.69.94.94,0,0,0,.7.26.91.91,0,0,0,.7-.25,1,1,0,0,0,.24-.74,1.51,1.51,0,0,0-.27-.93,4.68,4.68,0,0,0-.66-.7l-1.42-1.26a2.28,2.28,0,0,1-.61-.8A2.43,2.43,0,0,1,117,406a1.88,1.88,0,0,1,.53-1.44,2,2,0,0,1,1.45-.51,2.69,2.69,0,0,1,.89.13,1.58,1.58,0,0,1,.64.4,2,2,0,0,1,.4.68,4.23,4.23,0,0,1,.21,1l-1,.27a4.17,4.17,0,0,0-.12-.76,1.08,1.08,0,0,0-.33-.57A1,1,0,0,0,119,405a.92.92,0,0,0-.68.23,1,1,0,0,0-.25.7,1.44,1.44,0,0,0,.13.63,1.94,1.94,0,0,0,.43.52l1.43,1.25a4.63,4.63,0,0,1,.85,1,2.58,2.58,0,0,1,.36,1.38,2.11,2.11,0,0,1-.26,1.08,1.75,1.75,0,0,1-.71.69A2.27,2.27,0,0,1,119.23,412.69Z" style="fill:#263238"></path><path d="M122.18,412.6v-8.47h1.19v3.66h2.17v-3.66h1.18v8.47h-1.18v-4h-2.17v4Z" style="fill:#263238"></path></g><g id="freepik--Flag--inject-315"><rect x="60.52" y="272.1" width="2.37" height="145.6" style="fill:#fff;stroke:#263238;stroke-linecap:round;stroke-linejoin:round"></rect><polygon points="60.52 272.1 58.86 268.55 61.46 262.87 63.98 268.75 62.88 272.1 60.52 272.1" style="fill:#fff;stroke:#263238;stroke-linecap:round;stroke-linejoin:round"></polygon><path d="M75,428.78l-3.66-1.63a11.88,11.88,0,0,1-7.08-10.89v-.85H59.12v.85A11.88,11.88,0,0,1,52,427.15l-3.66,1.63a7,7,0,0,0-4.14,6.37H79.18A7,7,0,0,0,75,428.78Z" style="fill:#fff;stroke:#263238;stroke-linecap:round;stroke-linejoin:round"></path><path d="M85.31,386.41c-.26,2.53-.67,4.67-1.33,5.7a11.88,11.88,0,0,1-2.71,2.46c-6.79,5.05-23.22,13.95-23.22,13.95L33.1,368l-5.94-9.65-2.24-3.63a11.55,11.55,0,0,1-1.32-3.61c-.15-.91,8-17.52,16.78-35.19,1.79-3.6,3.62-7.25,5.4-10.81C54.29,288.15,62,273,62,273S72.82,298,75.12,306.8a140.35,140.35,0,0,1,2.43,14.83c.58,4.53,1.11,9.3,1.55,13.45.59,5.37,1,9.69,1.27,11.1.65,3.94,5.25,25.26,5.25,25.26A132.14,132.14,0,0,1,85.31,386.41Z" style="fill:#fff;stroke:#263238;stroke-linecap:round;stroke-linejoin:round"></path><path d="M85.31,386.41c-.74-2.68-1.6-5.62-2.32-7.54C81.36,374.51,67.35,346,67.35,346s7.79-5.88,11.75-10.88c-.44-4.15-1-8.92-1.55-13.45C74.78,324.5,67.29,332,62.62,334.5c0,0-10.54-19.64-13.64-24.37-1.14-1.74-2.25-3.5-3.2-5-1.78,3.56-3.61,7.21-5.4,10.81l13.33,24.23s-21.17,13.43-26.55,18.2L33.1,368l25.16-16,23,42.61" style="fill:#407BFF;stroke:#263238;stroke-linecap:round;stroke-linejoin:round"></path><polygon points="61.99 273 61.94 274.1 60.07 316.31 62.26 320.49 64.62 278.3 61.99 273" style="fill:#407BFF;stroke:#263238;stroke-linecap:round;stroke-linejoin:round"></polygon><polygon points="80.26 352.14 82.26 359.59 75.9 352.5 73.9 347.59 80.26 352.14" style="fill:#407BFF;stroke:#263238;stroke-linecap:round;stroke-linejoin:round"></polygon><polygon points="41.34 333.04 44.07 336.13 32.43 332.13 33.89 329.77 41.34 333.04" style="fill:#407BFF;stroke:#263238;stroke-linecap:round;stroke-linejoin:round"></polygon><polygon points="59.35 366.68 59.53 407.97 62.08 406.51 62.08 369.23 59.35 366.68" style="fill:#407BFF;stroke:#263238;stroke-linecap:round;stroke-linejoin:round"></polygon><polygon points="49.71 297.76 57.53 311.58 58.26 280.48 49.71 297.76" style="fill:#263238;stroke:#263238;stroke-linecap:round;stroke-linejoin:round"></polygon><path d="M67.89,287.39l-1.09,37.1L77,315.58l-1.87-8.78S71,291.76,67.89,287.39Z" style="fill:#263238;stroke:#263238;stroke-linecap:round;stroke-linejoin:round"></path><polygon points="80.08 342.5 76.26 345.77 81.53 349.95 80.08 342.5" style="fill:#263238;stroke:#263238;stroke-linecap:round;stroke-linejoin:round"></polygon><polygon points="85.35 384.32 81.35 363.41 86.08 375.96 85.35 384.32" style="fill:#263238;stroke:#263238;stroke-linecap:round;stroke-linejoin:round"></polygon><polygon points="76.26 397.6 64.98 377.05 64.44 404.88 76.26 397.6" style="fill:#263238;stroke:#263238;stroke-linecap:round;stroke-linejoin:round"></polygon><polygon points="53.71 400.87 54.26 362.14 36.8 373.78 53.71 400.87" style="fill:#263238;stroke:#263238;stroke-linecap:round;stroke-linejoin:round"></polygon><path d="M25.16,353.59s10.18-10.73,16.73-12.91l-11.82-4L23.6,351.1Z" style="fill:#263238;stroke:#263238;stroke-linecap:round;stroke-linejoin:round"></path></g><g id="freepik--Plant--inject-315"><path d="M194.23,358.68c1.68.74,5.79.65,5.79.65s-.88-2.69-1-2.86c-.9-1.88-3.75-5-6.07-4.68a2.77,2.77,0,0,0-2.23,3.47C191.15,356.87,192.8,358.06,194.23,358.68Z" style="fill:#263238"></path><path d="M195.65,370.59c1.74.25,5.41-.81,5.7-.9a50.08,50.08,0,0,0,2.22,6.16c.51,1.16,1.05,2.33,1.61,3.48-.33-.49-.63-.92-.68-1-1.37-1.58-4.94-3.83-7.1-2.92a2.78,2.78,0,0,0-1.23,3.94c.8,1.45,2.71,2.16,4.25,2.39s4.71-.62,5.54-.85l.66,1.32c1.06,2.12,2.13,4.22,3.12,6.32.34.74.66,1.48,1,2.22l-.6-.85c-1.37-1.58-4.94-3.83-7.1-2.92a2.77,2.77,0,0,0-1.22,3.94c.79,1.45,2.7,2.17,4.24,2.39a17.48,17.48,0,0,0,5.4-.81c.3.77.6,1.54.86,2.29.17.53.36,1,.5,1.55s.29,1,.43,1.56c.24,1,.5,2,.71,3,.15.68.28,1.33.41,2-.33-.74-1-2.17-1.1-2.29-1.11-1.77-4.3-4.53-6.57-4a2.78,2.78,0,0,0-1.81,3.71c.57,1.55,2.35,2.55,3.84,3s5.28.05,5.74,0c.21,1.09.42,2.15.59,3.15.39,2.21.69,4.2.91,5.88h1.53c-.26-1.74-.61-3.81-1.08-6.14-.21-1.1-.47-2.28-.74-3.48a29.42,29.42,0,0,0,3.2-1.51,20.09,20.09,0,0,0,4.67,3c-.42,1-.84,2-1.24,3-.85,1.95-1.66,3.68-2.37,5.16h1.66c.61-1.36,1.28-2.91,2-4.62.43-1,.87-2.17,1.31-3.32.44.09,4,.82,5.72.44,1.52-.34,3.37-1.2,4-2.71a2.77,2.77,0,0,0-1.53-3.83c-2.22-.75-5.6,1.78-6.85,3.46-.07.1-.74,1.26-1.16,2,.18-.47.36-.93.53-1.42.36-1,.68-1.93,1-3,.15-.51.3-1,.46-1.55s.27-1.08.42-1.62c.3-1.27.54-2.57.76-3.88.85.31,3.87,1.36,5.43,1.25s3.51-.69,4.41-2.07a2.77,2.77,0,0,0-.93-4c-2.08-1.07-5.81.91-7.29,2.38-.09.09-1,1.27-1.54,1.93.12-.79.25-1.58.35-2.38.29-2.33.51-4.68.74-7,.07-.72.14-1.43.22-2.15.3.11,3.86,1.44,5.62,1.31,1.55-.1,3.51-.68,4.41-2.06a2.77,2.77,0,0,0-.93-4c-2.08-1.07-5.81.91-7.3,2.38-.11.11-1.46,1.81-1.79,2.26.17-1.58.35-3.16.59-4.7a49.86,49.86,0,0,1,1.35-6.19c.14.06,3.85,1.46,5.65,1.33,1.56-.11,3.51-.68,4.41-2.06a2.77,2.77,0,0,0-.93-4c-2.08-1.07-5.81.9-7.29,2.38-.12.11-1.58,1.94-1.82,2.29,0-.12.06-.24.1-.36a35.53,35.53,0,0,1,2.45-5.85c.53-1,1.1-2,1.67-2.94.66.34,3.72,1.82,5.35,1.88s3.56-.29,4.61-1.56a2.78,2.78,0,0,0-.48-4.1c-2-1.29-5.88.26-7.51,1.57-.09.07-.92.89-1.51,1.49.27-.41.53-.85.79-1.24,1-1.47,2-2.76,2.86-3.9.5-.64,1-1.21,1.42-1.74.82,0,4.14-.11,5.59-.79s3-1.91,3.37-3.52a2.77,2.77,0,0,0-2.32-3.41c-2.33-.25-5.09,2.94-5.94,4.85-.08.16-.93,2.87-.89,2.87h.05c-.44.5-.9,1-1.4,1.65-.91,1.12-1.93,2.39-2.95,3.85a48,48,0,0,0-3.05,4.86,36.18,36.18,0,0,0-2.61,5.87s0,.05,0,.07c0-.68,0-2.6,0-2.75-.26-2.07-2-5.92-4.3-6.34a2.77,2.77,0,0,0-3.2,2.6c-.13,1.65,1.06,3.3,2.22,4.34,1.32,1.17,5,2.31,5.25,2.4a49.21,49.21,0,0,0-1.54,6.36c-.22,1.25-.41,2.52-.58,3.79,0-.59,0-1.12,0-1.2-.27-2.07-2-5.92-4.31-6.34a2.76,2.76,0,0,0-3.19,2.6c-.14,1.65,1.06,3.3,2.22,4.34s4.27,2.09,5.09,2.35l-.18,1.47c-.28,2.34-.55,4.69-.89,7-.11.81-.26,1.6-.4,2.4,0-.53,0-1,0-1-.27-2.08-2-5.92-4.31-6.35a2.77,2.77,0,0,0-3.2,2.61c-.13,1.64,1.06,3.29,2.23,4.33a17.5,17.5,0,0,0,4.94,2.3c-.17.81-.34,1.62-.54,2.39-.15.53-.26,1-.44,1.56s-.33,1-.49,1.54c-.36,1-.71,2-1.08,2.9-.25.66-.5,1.27-.75,1.89.13-.8.34-2.38.34-2.51a10.65,10.65,0,0,0-1.44-5.23,3.23,3.23,0,0,0,0-.62,2.78,2.78,0,0,0-3.39-2.35c-2.26.61-3.69,4.58-3.8,6.66,0,.13.07,1.47.14,2.32-.11-.49-.22-1-.34-1.48-.24-1-.51-2-.79-3.06-.15-.51-.31-1-.47-1.55s-.36-1-.54-1.58c-.45-1.22-1-2.44-1.51-3.65.88-.21,4-1,5.22-2s2.55-2.51,2.54-4.16a2.76,2.76,0,0,0-3-2.83c-2.33.25-4.35,4-4.77,6,0,.13-.16,1.63-.22,2.46-.34-.73-.67-1.45-1-2.18-1-2.1-2.15-4.18-3.26-6.27-.34-.64-.67-1.28-1-1.92.31-.07,4-.93,5.41-2,1.24-.95,2.55-2.51,2.54-4.16a2.77,2.77,0,0,0-3-2.84c-2.33.25-4.35,4-4.77,6,0,.15-.23,2.32-.25,2.87-.74-1.41-1.45-2.82-2.11-4.25a48.7,48.7,0,0,1-2.28-5.9c.15,0,4-.91,5.44-2,1.24-1,2.56-2.5,2.54-4.15a2.77,2.77,0,0,0-3-2.84c-2.33.25-4.35,4-4.77,6,0,.16-.24,2.49-.25,2.91,0-.12-.09-.23-.12-.35a36,36,0,0,1-1.18-6.23c-.13-1.16-.19-2.28-.23-3.37.74-.09,4.11-.54,5.5-1.38s2.81-2.21,3-3.86a2.77,2.77,0,0,0-2.66-3.15c-2.34,0-4.76,3.46-5.4,5.45,0,.11-.27,1.25-.43,2.08,0-.49,0-1,0-1.47,0-1.77.11-3.39.22-4.83.07-.81.15-1.55.23-2.24.68-.46,3.39-2.37,4.22-3.74s1.48-3.26.87-4.79a2.76,2.76,0,0,0-3.81-1.57c-2.08,1.07-2.63,5.26-2.29,7.32,0,.18.82,2.91.86,2.89l0,0c-.1.66-.19,1.37-.27,2.15-.14,1.43-.29,3.06-.33,4.83a47,47,0,0,0,.14,5.74,35.87,35.87,0,0,0,1.06,6.34.19.19,0,0,1,0,.07c-.36-.58-1.45-2.16-1.55-2.27-1.36-1.58-4.94-3.83-7.09-2.92a2.78,2.78,0,0,0-1.23,3.94C192.2,369.65,194.1,370.36,195.65,370.59Z" style="fill:#263238"></path><path d="M235.79,359.59s.75-2.73.78-2.91c.29-2.07-.37-6.24-2.48-7.26a2.77,2.77,0,0,0-3.77,1.67c-.57,1.55.15,3.46,1,4.77C232.31,357.4,235.79,359.59,235.79,359.59Z" style="fill:#263238"></path><polygon points="230.47 434.61 208.01 434.61 205.2 409.67 233.28 409.67 230.47 434.61" style="fill:#fff;stroke:#263238;stroke-linecap:round;stroke-linejoin:round"></polygon><polygon points="205.72 414.24 205.99 416.65 232.49 416.65 232.77 414.24 205.72 414.24" style="fill:#263238"></polygon><polygon points="231.9 421.97 232.17 419.55 206.32 419.55 206.59 421.97 231.9 421.97" style="fill:#263238"></polygon></g><g id="freepik--Lamp--inject-315"><polygon points="99.06 71.24 99.06 57.43 87.01 57.43 87.01 71.24 49.77 87.82 136.31 87.82 99.06 71.24" style="fill:#263238;stroke:#263238;stroke-linecap:round;stroke-linejoin:round"></polygon><line x1="93.35" y1="57.38" x2="93.35" y2="30.74" style="fill:none;stroke:#263238;stroke-linecap:round;stroke-linejoin:round"></line></g><g id="freepik--Blackboard--inject-315"><rect x="82.88" y="122.67" width="259.94" height="194.79" style="fill:#fff;stroke:#263238;stroke-linecap:round;stroke-linejoin:round"></rect><rect x="72.95" y="316.93" width="279.8" height="10.34" style="fill:#fff;stroke:#263238;stroke-linecap:round;stroke-linejoin:round"></rect><rect x="91.51" y="129.14" width="242.68" height="181.86" style="fill:#263238;stroke:#263238;stroke-linecap:round;stroke-linejoin:round"></rect><path d="M143.78,208.72a1.15,1.15,0,0,1-.63-1.16V206.3a10.61,10.61,0,0,1-.06-1.19V205l.06-9.69-.06-27.42c0-2.84-.05-5.29-.14-7.38a2.36,2.36,0,0,1,.34-1.32,1,1,0,0,1,.86-.53h4.12a5.36,5.36,0,0,1,1.39.13c.44.13.67.51.67,1.13a1.09,1.09,0,0,1-.4.86,1.82,1.82,0,0,1-.87.4h-1.13l-1.06-.07-1.06-.06a.64.64,0,0,0-.8.79c0,2.08,0,4,.07,5.65V181.4c0,.09,0,.13.13.13h.14c1.1-.09,2.3-.13,3.58-.13.71,0,1.06.31,1.06.93a1.28,1.28,0,0,1-.23.9,1.06,1.06,0,0,1-.76.23h-3.79c-.18,0-.26.11-.26.33l.13,9.83q.13,4.57.13,10.56v2.45h6.24q1.2,0,1.2.87,0,1-.6,1.26a12.92,12.92,0,0,1-3.25.26H146A5.77,5.77,0,0,1,143.78,208.72Z" style="fill:#d9d9d9"></path><path d="M175.92,208.49a4.74,4.74,0,0,1-.43-1.19,2.54,2.54,0,0,0-.27-.93l.07-.2a41.67,41.67,0,0,0-2.26-7.64l-1.19-3.45a32.75,32.75,0,0,1-1.26-3.39l-.53-1.59q-6-18.47-7.51-20a17,17,0,0,0-.53,4.65c0,1,0,1.9.07,2.66l.06,2.59-.06,1.59a15.78,15.78,0,0,0-.07,1.59,20.51,20.51,0,0,0,.13,2.53l.14,2.12h-.2q0,11.08.46,12.22v6a3.12,3.12,0,0,1,.27,1.4,1.32,1.32,0,0,1-.37.93,1.18,1.18,0,0,1-.89.4c-.93,0-1.4-1.2-1.4-3.59l.13-2.12a16.46,16.46,0,0,0,.14-2.19q0-3.2-.2-9.57c-.13-4.25-.2-7.43-.2-9.56q0-1.92.2-5.91t.2-5.84v-.86c0-2.17.4-3.59,1.19-4.25l.2.2.67-.14a1.49,1.49,0,0,1,.59.4.83.83,0,0,1,.27.6l.13.4a.93.93,0,0,0,.07.33,79.63,79.63,0,0,0,4.78,13.21q3.78,9,4.71,11.89c.45,1.55.8,2.92,1.07,4.12a32.57,32.57,0,0,0,3,8.69l.14-.2q1.51-14.73,1.52-36.18l-.06-.8a4.07,4.07,0,0,1-.07-.86c0-.93.31-1.4.93-1.4a1.25,1.25,0,0,1,1,.6,2.2,2.2,0,0,1,.43,1.33v4.45l-.33.53q0,6.3-.73,20.72t-1.4,15.67l-1.12.26v.07l-.07-.07-.66.2A.82.82,0,0,1,175.92,208.49Z" style="fill:#d9d9d9"></path><path d="M193.62,208.36a4.53,4.53,0,0,1-2.16-2.82,35.66,35.66,0,0,1-1.23-6.68,94.82,94.82,0,0,1-.8-10.42c0-1.51.09-3.23.27-5.18l.4-4.18c.22-3.32.47-5.84.76-7.54a10.05,10.05,0,0,1,1.93-4.51,6.33,6.33,0,0,1,4.61-2.3,6.66,6.66,0,0,1,1.06-.06c1.38,0,2.06.31,2.06.93a.83.83,0,0,1-.43.69,1.57,1.57,0,0,1-.9.3l-.66-.06-.6-.07a3.08,3.08,0,0,0-2,.73,5.48,5.48,0,0,0-1.5,2.13,24.83,24.83,0,0,0-1.79,6.5c-.35,2.79-.58,5.23-.66,7.31l-.07,5.11a43.58,43.58,0,0,0,.2,4.85,5.26,5.26,0,0,1,.63,2.22q.17,1.5.3,4.08a18.61,18.61,0,0,0,.6,4,5.49,5.49,0,0,0,1.66,2.68,5.41,5.41,0,0,0,3.65,1.13,2.8,2.8,0,0,0,2.72-2.12,14.28,14.28,0,0,0,1.06-4.65c.14-2,.2-3.67.2-5v-3.65a3.25,3.25,0,0,0-2.32-.66h-.53a4.11,4.11,0,0,1-.73.07c-1.07,0-1.6-.27-1.6-.8,0-.75.53-1.13,1.6-1.13.75,0,1.37,0,1.86.07l1.46.06a11.52,11.52,0,0,1,2,.47c.53.17.8.42.8.73A11.31,11.31,0,0,1,205,193a17.84,17.84,0,0,0-.33,2.53c0,1.86,0,3.54.13,5s.06,3.26.06,5.12q-3.37,3.45-6.77,3.45A10.51,10.51,0,0,1,193.62,208.36Z" style="fill:#d9d9d9"></path><path d="M212.87,208a10.06,10.06,0,0,0,.13-2.19q0-6.11.2-18.13t.2-17.26l.14-2.39.2-2a.41.41,0,0,1,.46-.47,3.31,3.31,0,0,1,.93.2l.2.07c0,1,0,1.86-.07,2.65v9.83c.05,2.12.07,4.54.07,7.24a8.78,8.78,0,0,0-.07,1.46l-.06,1.39c0,.89-.07,1.8-.07,2.73s0,1.94.07,2.78l.06,2.86-.2.53.07-.07c0,.14,0,.23-.07.27v.26a2.06,2.06,0,0,0,.2.93l-.2,6.38v.4a6.39,6.39,0,0,0,.07,1.33.29.29,0,0,0,.33.33l3.45.13q1.53,0,2.1,0l.69,0h.2a1,1,0,0,1,.67.36,1.15,1.15,0,0,1,.33.77c0,.53-.36.81-1.06.86s-2.59-.07-5.52-.07l.14.07a12.38,12.38,0,0,0-1.26.06,4.94,4.94,0,0,1-1.2.14C213.38,209.49,213,209,212.87,208Z" style="fill:#d9d9d9"></path><path d="M231.13,208a1.54,1.54,0,0,0-.53.07h-.53c-1,0-1.59-.22-1.86-.67a.94.94,0,0,1,.53-.79l.33-.34H231l.26-.26.14-.6.06-.8c0-2.7-.06-5.11-.2-7.23l-.13-2.46L231,190q0-2.58.2-7.77l.13-7.7a67.21,67.21,0,0,0-.33-7.7,7.08,7.08,0,0,0-2-.2l-.73.07a5.94,5.94,0,0,1-.87.06c-.84,0-1.26-.37-1.26-1.13,0-.17.2-.35.6-.53a2.68,2.68,0,0,1,1-.26,50,50,0,0,1,5,.26,11.06,11.06,0,0,1,3.06.6c.79.27,1.19.64,1.19,1.13a1.71,1.71,0,0,1-.2.53l-1.53.13a3.21,3.21,0,0,0-1.92-.4l-.33.2a17.11,17.11,0,0,1,.2,3.52c0,2.92,0,5.56-.07,7.9l-.13,7.91q0,3,.26,7.23c.14,3.24.2,5.67.2,7.31v.86a9.72,9.72,0,0,0-.06,1.2,5.11,5.11,0,0,0,.19,1.86l-.06.13c0,.44.49.66,1.46.66a7,7,0,0,0,1-.06h1c1.28,0,1.93.31,1.93.93a1.27,1.27,0,0,1-.4,1,1.53,1.53,0,0,1-1.06.36,3.87,3.87,0,0,1-1.07-.13,9.93,9.93,0,0,0-1.13-.07,3.6,3.6,0,0,0-1.19.34,3.09,3.09,0,0,1-1.2.39C231.91,208.62,231.31,208.4,231.13,208Z" style="fill:#d9d9d9"></path><path d="M244.41,208.86a1.43,1.43,0,0,1-.73-1l.33-.53a6.92,6.92,0,0,1,1.2.2,3.78,3.78,0,0,0,1.19.26A3.52,3.52,0,0,0,249,206.6a7.6,7.6,0,0,0,1.73-3,25.05,25.05,0,0,0,.93-6.51,21.1,21.1,0,0,0-2.79-9.83c-1.15-2-2-3.65-2.66-4.84a26.15,26.15,0,0,1-1.66-4.12,17.46,17.46,0,0,1-.86-5.25,16.72,16.72,0,0,1,1.2-5.64,6.19,6.19,0,0,1,1.69-2.49,3.51,3.51,0,0,1,2.36-1,2.91,2.91,0,0,1,1.69.59,1.64,1.64,0,0,1,.83,1.27c0,.35-.29.53-.86.53a1.64,1.64,0,0,1-.67-.2,1.68,1.68,0,0,0-.73-.2,2.48,2.48,0,0,0-1.79.8,5,5,0,0,0-1.2,2.05,14.8,14.8,0,0,0-.79,4.52,10.76,10.76,0,0,0,.33,2.59c0,.26.09.49.13.66a1.58,1.58,0,0,1,.07.4l.4,1.33.33,1.19.53,1.2a5.83,5.83,0,0,0,.43.83c.16.24.3.48.43.7l.8,1.39c.18.27.55.9,1.13,1.89a34.52,34.52,0,0,1,1.59,3.16,15.76,15.76,0,0,1,1,2.62,28.87,28.87,0,0,1,.6,3,31.24,31.24,0,0,1,.2,3.65,20,20,0,0,1-.87,6,8.37,8.37,0,0,1-3.45,4.65,5.37,5.37,0,0,1-2.92.8l-.33.13A3.92,3.92,0,0,1,244.41,208.86Zm6.71-42.73a.06.06,0,0,0-.07-.07v.07Z" style="fill:#d9d9d9"></path><path d="M271.37,208.69Q271,196.41,271,190.9l-.2-.27.26-.6a12.38,12.38,0,0,0-.26-2.45l-1-.27a4.27,4.27,0,0,1-1.33.2,14.59,14.59,0,0,1-2.19-.33,7.39,7.39,0,0,0-2.06-.33l-.73.26c0,1.55,0,2.95-.06,4.18s-.07,2.64-.07,4.19l.13.26c0,1.24.07,3.1.2,5.58s.2,4.27.2,5.51a2.67,2.67,0,0,1-.26,1.23.87.87,0,0,1-.8.5c-1,0-1.46-1.33-1.46-4,0-2.25,0-4.29.07-6.1l.06-6.05a45.43,45.43,0,0,0-.2-6.5,15.44,15.44,0,0,0,.33-4.39c0-2.12-.08-4.71-.26-7.77l-.13-2.58-.14-5.18a1.31,1.31,0,0,1,.34-.87,1,1,0,0,1,.79-.4c.89,0,1.33,1.29,1.33,3.86q0,4.51-.07,8.16t-.13,8c0,.53,1.68.79,5.05.79h.26a2.76,2.76,0,0,0,1.83-.49,2.21,2.21,0,0,0,.56-1.7c0-2.34-.15-5.4-.46-9.16-.27-4.07-.4-7.13-.4-9.16a.91.91,0,0,1,.33-.7,1.15,1.15,0,0,1,.8-.3l.6.2a1.06,1.06,0,0,1,.59.2q0,5.17.4,15.47c.27,6.91.4,12.08.4,15.54q0,7.83.47,13.14l-.47.73C273.36,208.91,272.7,208.69,271.37,208.69Zm-2.19-24,.13.14h-.13Z" style="fill:#d9d9d9"></path><path d="M146.21,267.91a6.52,6.52,0,0,1-2.16-1.13,7.07,7.07,0,0,1-1.69-2.19A18.9,18.9,0,0,1,140.7,257c-.09-1.5-.13-2.83-.13-4V245.4c0-2.88.08-5.66.26-8.37a40.17,40.17,0,0,1,.6-5,20.27,20.27,0,0,1,1.26-4.12,7.59,7.59,0,0,1,2.06-3,7.5,7.5,0,0,1,1.79-.93,16.64,16.64,0,0,0,1.66-.73h2.86a.24.24,0,0,0,.2.07l.33.07.26.2c.14.13.2.22.2.26a.84.84,0,0,1,.07.4l-.86,1h-2.79a3,3,0,0,0-2.29,1.22,8.18,8.18,0,0,0-1.56,3.09,24,24,0,0,0-.87,3.92c-.22,1.5-.35,2.81-.4,3.92-.09,1.41-.13,2.39-.13,2.92l-.13.33c0,2.48-.05,4.71-.13,6.71l-.14,6.7a34.37,34.37,0,0,0,.4,5.38,9.77,9.77,0,0,0,1.93,4.78,5.4,5.4,0,0,0,4.71,2.13,2.37,2.37,0,0,0,1.66-.6c.67,0,1,.24,1,.73,0,.31-.28.67-.83,1.1a6.93,6.93,0,0,1-1.7,1H147.8Z" style="fill:#d9d9d9"></path><path d="M160.29,266.78a10.66,10.66,0,0,0,.13-2.19q0-6.1.2-18.13t.2-17.26l.13-2.39.2-2a.41.41,0,0,1,.46-.47,3.31,3.31,0,0,1,.93.2l.2.07c0,1,0,1.86-.06,2.65v9.83q.06,3.19.06,7.24a10.7,10.7,0,0,0-.06,1.46l-.07,1.39c-.05.89-.07,1.8-.07,2.73s0,1.94.07,2.78l.07,2.86-.2.53.06-.06a.39.39,0,0,1-.06.26v.27a2,2,0,0,0,.2.93l-.2,6.37v.4a7.75,7.75,0,0,0,.06,1.33.29.29,0,0,0,.33.33l3.46.13c1,0,1.71,0,2.09,0l.7,0h.2a.92.92,0,0,1,.66.36,1.15,1.15,0,0,1,.33.77c0,.53-.35.82-1.06.86s-2.59-.07-5.51-.07l.13.07a10.19,10.19,0,0,0-1.26.07,5.45,5.45,0,0,1-1.2.13C160.79,268.31,160.42,267.8,160.29,266.78Z" style="fill:#d9d9d9"></path><path d="M188.57,267.81a2.15,2.15,0,0,1-.4-1.23q-.6-4.84-.73-6l-.33-2.66a15.11,15.11,0,0,0-3.32-.33l-2.39-.13a21.88,21.88,0,0,0-2.32-.2c-.27,0-.43.11-.47.33s0,.2-.07.2l-.13,1.33a47,47,0,0,1-.73,4.78,11.93,11.93,0,0,1-.8,2.79c-.35.75-.68,1.13-1,1.13a1.37,1.37,0,0,1-.86-.37,1,1,0,0,1-.47-.76l.07-.2.06-.2c.8-3.14,1.46-6.26,2-9.36l.79-4.12.8-5,.73-4.39c.22-1.19.62-3.12,1.19-5.77q.93-4.51,1.13-6.18a23.73,23.73,0,0,0,.27-2.46c.18-1.68.33-2.92.46-3.71a6.78,6.78,0,0,1,.4-2h.47a1.27,1.27,0,0,0,.46.07,1.63,1.63,0,0,0,1.2-.4,1.28,1.28,0,0,1,.83.3.89.89,0,0,1,.36.7,66,66,0,0,0,.47,7.3c.17,1.42.31,2.59.4,3.52q.72,8.56,3.71,32.14v.2a1.08,1.08,0,0,1-.53,1A2.15,2.15,0,0,1,188.57,267.81Zm-1.79-11.72q-.67-9.55-2.53-28.22l-3.58,17.73a69.29,69.29,0,0,0-1.53,9.63c0,.22.84.42,2.53.6s3.16.26,4.44.26Z" style="fill:#d9d9d9"></path><path d="M196.87,267.68a1.43,1.43,0,0,1-.73-1l.33-.53a6.92,6.92,0,0,1,1.2.2,3.78,3.78,0,0,0,1.19.26,3.48,3.48,0,0,0,2.59-1.16,7.6,7.6,0,0,0,1.73-3,25.05,25.05,0,0,0,.93-6.51,21.1,21.1,0,0,0-2.79-9.83c-1.15-2-2-3.65-2.66-4.84A26.15,26.15,0,0,1,197,237.1a17.44,17.44,0,0,1-.86-5.24,16.93,16.93,0,0,1,1.19-5.65,6.31,6.31,0,0,1,1.7-2.49,3.51,3.51,0,0,1,2.36-1,2.88,2.88,0,0,1,1.69.6,1.63,1.63,0,0,1,.83,1.26c0,.35-.29.53-.86.53a1.64,1.64,0,0,1-.67-.2,1.68,1.68,0,0,0-.73-.2,2.48,2.48,0,0,0-1.79.8,5,5,0,0,0-1.2,2.06,14.69,14.69,0,0,0-.79,4.51,10.7,10.7,0,0,0,.33,2.59c0,.27.09.49.13.66a2.23,2.23,0,0,1,.07.4l.4,1.33.33,1.2.53,1.19a5.83,5.83,0,0,0,.43.83c.16.25.3.48.43.7l.8,1.39c.18.27.55.9,1.13,1.9a33.09,33.09,0,0,1,1.59,3.15,15.76,15.76,0,0,1,1,2.62,28.87,28.87,0,0,1,.6,3,31.37,31.37,0,0,1,.19,3.65,20,20,0,0,1-.86,6,8.42,8.42,0,0,1-3.45,4.64,5.37,5.37,0,0,1-2.92.8l-.34.13A3.77,3.77,0,0,1,196.87,267.68ZM203.58,225a.07.07,0,0,0-.07-.07V225Z" style="fill:#d9d9d9"></path><path d="M211.88,267.68a1.4,1.4,0,0,1-.73-1l.33-.53a7,7,0,0,1,1.19.2,3.88,3.88,0,0,0,1.2.26,3.51,3.51,0,0,0,2.59-1.16,7.47,7.47,0,0,0,1.72-3,25.05,25.05,0,0,0,.93-6.51,21.1,21.1,0,0,0-2.79-9.83c-1.15-2-2-3.65-2.65-4.84A26.15,26.15,0,0,1,212,237.1a17.14,17.14,0,0,1-.86-5.24,16.68,16.68,0,0,1,1.19-5.65,6.29,6.29,0,0,1,1.69-2.49,3.52,3.52,0,0,1,2.36-1,2.84,2.84,0,0,1,1.69.6,1.6,1.6,0,0,1,.83,1.26c0,.35-.28.53-.86.53a1.56,1.56,0,0,1-.66-.2,1.71,1.71,0,0,0-.73-.2,2.51,2.51,0,0,0-1.8.8,4.92,4.92,0,0,0-1.19,2.06,14.72,14.72,0,0,0-.8,4.51,10.7,10.7,0,0,0,.33,2.59c.05.27.09.49.14.66a2,2,0,0,1,.06.4l.4,1.33.33,1.2.53,1.19a5.83,5.83,0,0,0,.44.83l.43.7.79,1.39c.18.27.56.9,1.13,1.9a30.93,30.93,0,0,1,1.6,3.15,15.66,15.66,0,0,1,1,2.62,28.87,28.87,0,0,1,.6,3,31.24,31.24,0,0,1,.2,3.65,20.34,20.34,0,0,1-.86,6,8.39,8.39,0,0,1-3.46,4.64,5.35,5.35,0,0,1-2.92.8l-.33.13A3.7,3.7,0,0,1,211.88,267.68Zm6.7-42.73s0-.07-.06-.07V225Z" style="fill:#d9d9d9"></path><path d="M241.19,269.11c-.24-.14-.37-.29-.37-.47q0-2.65.8-9.83t1.6-10.82l-1.4.13c-.8.09-1.28.14-1.46.14-1.33,0-2-.47-2-1.4,0-.44.75-.66,2.26-.66H242a6.32,6.32,0,0,0,1.33-.07,36.36,36.36,0,0,0,.7-4.78c.33-2.92.49-4.71.49-5.38a6.72,6.72,0,0,0-1.06.07l-1.13.06c-1.68,0-2.57-.39-2.65-1.19l.53-.6h1.39a13,13,0,0,0,3.06-.2l.59-4.31a65.52,65.52,0,0,0,.93-9.56v-.67l-.06-.66c0-1,.33-1.46,1-1.46l.47.93a72.32,72.32,0,0,1-.6,7.7,68.45,68.45,0,0,0-.53,7.7,9.83,9.83,0,0,0,2.79.27h.86a9.85,9.85,0,0,0,3.52-.47,126.86,126.86,0,0,0,2.52-15.6,1.14,1.14,0,0,1,.93-.53.8.8,0,0,1,.8.66,35.25,35.25,0,0,1-1.2,7.5,35.93,35.93,0,0,0-1.19,7.64l.13.33h2.46l.86.93c-.26.71-.55,1.06-.86,1.06-.49,0-.95,0-1.4-.06l-1.39-.07a42.48,42.48,0,0,0-1,10l.4.13.53-.07h.67c1.24,0,1.86.43,1.86,1.27,0,.31-.36.59-1.07.86H254.1q-.06,1.32-.93,9.23a108.2,108.2,0,0,0-.92,11.55l-.73.86q-1.2,0-1.2-.66a35.71,35.71,0,0,1,.46-4.12,31.57,31.57,0,0,0,.4-4.18,53.7,53.7,0,0,1,.67-6.24,46.62,46.62,0,0,0,.59-6.18c-1.19-.13-3-.19-5.37-.19a8.56,8.56,0,0,0-2.33.26q-.8,7.31-.66,6.18l-.2,2q-.47,5.71-1,9.49a24.62,24.62,0,0,1-.49,2.79c-.16.58-.33.86-.5.86A1.48,1.48,0,0,1,241.19,269.11Zm11.12-23.38.73-3.85a35,35,0,0,0,.4-3.78c0-.45.07-1.07.07-1.86,0-.44-1.71-.67-5.12-.67a4.57,4.57,0,0,0-2.19.4,21.87,21.87,0,0,0-.73,4.38c-.26,2.44-.4,4.19-.4,5.25v.13l.07.14,1.06.13A61.14,61.14,0,0,0,252.31,245.73Z" style="fill:#d9d9d9"></path><path d="M265.19,267a1.46,1.46,0,0,1-.26-1,.77.77,0,0,1,.16-.43.48.48,0,0,1,.37-.23h1.92l1.86.07a2.56,2.56,0,0,0,1.36-.23c.2-.16.3-.52.3-1.1q0-15.47-1.46-38.25v-2.12l.07-2.13a4,4,0,0,0-.2-1.49,1,1,0,0,0-.8-.56,10.43,10.43,0,0,0-2.05-.14,4.23,4.23,0,0,0-.74.07l-.79.07c-.76,0-1.13-.25-1.13-.74a.6.6,0,0,1,.36-.53,2.67,2.67,0,0,1,1-.26c.62-.09,2.36-.13,5.24-.13a1,1,0,0,1,.77.33,1,1,0,0,1,.29.73V221q0,2.06.2,6.24l.14,6.31c0,.92.15,4,.46,9.36q.4,8.63.4,12.88v.86l.2,3.65.13,3.86-.06.53-.07.46.26.2,1.53-.13a13.11,13.11,0,0,1,1.46-.07c1.37,0,2.06.31,2.06.93s-.49.93-1.46.93l-5.31.13c-1.77.09-3.57.14-5.38.14A1.09,1.09,0,0,1,265.19,267Z" style="fill:#d9d9d9"></path><path d="M313.52,173.16s.07,0,.11,0S313.54,173.23,313.52,173.16Z" style="fill:#407BFF"></path><path d="M314.65,172.28a3,3,0,0,1-1,.84C313.81,172.84,314.18,172,314.65,172.28Z" style="fill:#407BFF"></path><path d="M312.84,172.61l.42-.22C313.19,172.69,313,172.48,312.84,172.61Z" style="fill:#407BFF"></path><polygon points="313.32 172.84 313.45 172.99 313.14 173.03 313.32 172.84" style="fill:#407BFF"></polygon><path d="M299.06,191.18a.41.41,0,0,1,.26.16Z" style="fill:#407BFF"></path><path d="M297.69,191.34a.78.78,0,0,0-.19.12C297.53,191.4,297.59,191.37,297.69,191.34Z" style="fill:#407BFF"></path><path d="M299.65,190.42l-.11.16A.26.26,0,0,1,299.65,190.42Z" style="fill:#407BFF"></path><path d="M307,181.36a5.27,5.27,0,0,0,.58-.1C307.45,181.62,307.19,181.42,307,181.36Z" style="fill:#407BFF"></path><path d="M292.29,192.91l.09.15C292.29,193,292.23,193,292.29,192.91Z" style="fill:#407BFF"></path><path d="M295.57,189.72a.43.43,0,0,1,.13.16h-.06Z" style="fill:#407BFF"></path><path d="M299.91,189.66v0l.18,0A.12.12,0,0,1,299.91,189.66Z" style="fill:#407BFF"></path><path d="M291.13,193.85a1.8,1.8,0,0,1-.38-.1A.33.33,0,0,1,291.13,193.85Z" style="fill:#407BFF"></path><path d="M297.48,191.48h0Z" style="fill:#407BFF"></path><path d="M296.72,188.72l-.22.13A.2.2,0,0,1,296.72,188.72Z" style="fill:#407BFF"></path><path d="M307,181.36l-.19,0C306.85,181.33,306.91,181.34,307,181.36Z" style="fill:#407BFF"></path><path d="M313,174.3c-.1.11-.2.06-.31,0A.65.65,0,0,1,313,174.3Z" style="fill:#407BFF"></path><path d="M278.79,192.79l0,0A.06.06,0,0,1,278.79,192.79Z" style="fill:#407BFF"></path><path d="M280.92,198l-.08.12C280.78,198.1,280.83,198,280.92,198Z" style="fill:#407BFF"></path><path d="M285.81,199.16c-.17.18.08-.39.09-.41l-.12.19a1.5,1.5,0,0,1,.09-.18l-.2.22c0-.1,0-.12-.06-.16s0,0,0-.11a.38.38,0,0,1,.1-.3l-.38.26.07-.67-.13.43a5.83,5.83,0,0,1-.55-1.66l-.12.12c-.13,0-.06-.17-.06-.29l-.19.18c-.37-.88-1-.86-1.23-1.93-.19-.23,0,.18-.13.25s-.24-.47-.18-.6c-.31.26,0,.6-.44.44.06-.3-.25.31-.38-.1l.38-.38c-.18-.17-.37.13-.5-.22s.75.21.51-.44c-.18-.3-1.37-.13-1.43-.85-.49-.4-.57.63-.81-.15l-.07.61c-.19,0-.37.13-.43-.22a1,1,0,0,0,.19-.67c0,.84-.81-.33-.94.51l-.1-.24a.08.08,0,0,1-.09.07l-.18-.29c0,.24.18.71-.26.67l-.31-.41c-.19.25-.37.14-.56.26l.17,1.56c.13-.13.13-.36.32-.37.31.28-.13.42.24.65l.13-.25c-.06.07-.07.13-.13.07s-.06-.18.07-.24c.31,0,.3.4.18.59.24.41.5-.14.62-.09-.31.44.37.71.31,1.07l.19-.3c.49.15.37.58.36.82l.19-.19c.19.48,1.06.32.43,1.07l.13-.12c.16.15.47.34.32.64.09,0,.23-.07.29,0-.26.26.07.33.27.58,0-.22.42-.37.42-.61.62.22-.26.61-.07,1,.31.11.13-.31.25-.43.06.65,1.49.66.86,1.4l-.37-.1c-.07.3,0,.42.06.36s0-.12.06-.19c.37.22.4.65.4,1.1a2.58,2.58,0,0,0,.33,1.44c.08-.23.05-.41.14-.54.3.2-.34,1.26.23,1.63l0-.36c.18.09.12.6.07.64.2-.46.37-.1.59.28s.47.79.7.14a3.67,3.67,0,0,0,0,.46c.19.28.76,0,.94-.51.27-1-.25-.47-.13-1.23.17-.2.3.28.59-.25a4,4,0,0,1-.17,1.1c-.07.36-.08.63.31.38l.06-.4c-.07.11-.16.34-.27.38-.22-.13.09-.52.12-.71l.74-.61c.2.44-.3.83-.33,1a10.07,10.07,0,0,0,.85-1.47,2.14,2.14,0,0,1,.85-1l-.17-.07c.48-.24.37-.43.32-.61s-.1-.31.37-.29c.13-.31-.43-.24-.13-.61.09-.1.16.07.18.13.52-.32-.14-.48.53-.6l-.43-.24c.68-.24,1.76-.17,2-.72-.29-.23-.5.05-.8,0,1-.1,1.29-1.27,2-1.54.09.37.76.25.65.76-.43-.24-.34.13-.54.27,1,.42.72-1.53,1.47-1l-.21-.32c.12,0,.51,0,.46.16l.35-.72c-.39,0-1.25,0-1.07.39-.44-.11,0-.41-.44-.57.8,0,0-.41.48-.71.23.54.89.1,1.06.3.05-.2.49-.32.73-.3.24-.2.41-1,.88-1.24-.25,0-.61.09-.85-.16.31-.05.48-.24.22-.55-1.11.14.48.82-.39,1.08a1.06,1.06,0,0,0-1.05.12c-.07-.31-.21-.33-.39-.59,1,.28.94-.88,1.72-1,.39,0,.69.55,1.18.17l-.14.58c.2-.6.3.09.7-.19l-.36-.07a.44.44,0,0,1,.54-.26l-.52-.15c.07-.15.22-.41.43-.22a1,1,0,0,0-.17-.24c.07,0,.16,0,.28-.13-.12,0-.15.12-.25,0,.56-.44-.27-.47.06-.76-.13,0-.15-.2-.08-.36.54.52,1.2-.05,1.66.07h0l.62-.23c-.12.05-.19-.18-.13-.36l0,0c.05-.22-.75-.39-.21-.66l.37-.06c-.06,0-.11-.1-.13-.16l.35-.08c-.2-.82.89-.38,1-1-.07.15-.27.29-.37.06s.18-.19.32-.18l-.08,0,1.05-.45c-.25-.11-.66.31-.69-.08s.32-.31.47-.43c.13.15,0,.52.34.34-.05-.1,0-.48-.18-.47a4.21,4.21,0,0,1,1.3-.41c0-.14-.16-.07-.21-.05l0,.05c-.23.09-.4-.32-.53.13-.5-.41.28-.57.46-.9l-.72.13c0-1.33,1.64-1.66,2.31-2.38,0,.35-.35.4.05.72a3.49,3.49,0,0,0,.95-.68l-.06,0c0-.41.68-.38.49-.85-.3-.09-.11.51-.53.13l.55-.53c-.41,0-.55.53-.81.69s.35-.26.55.07c-.5.51-.88.39-1.51.29-.44-.11-.08-.51,0-.61a1.55,1.55,0,0,0,1.68-.94l0-.58c.53,0,1,.63,1.35.1l-.36-.07a.52.52,0,0,1,.09-.33c-.36.05-.75.08-1.1.1-.23-.71.95-.54,1.41-.85-.08,0-.23.09-.39,0,.42-.69,1.56-.77,2-1.15,0-.38-.48.25-.71-.14.34-.12.31-.64.66-.44-.51-.28.48-.57-.33-.47a8,8,0,0,1,2.89-2.26.64.64,0,0,1-.32-.28,1.43,1.43,0,0,1-1.21.51c0-.39.7-.19.63-.36-.2,0-.37.2-.58,0,0-.47.45-.3.65-.44l0,.19c.79-.29,1,.36,1.43-.32-.06-.45-.21-.19-.53-.48.25,0,.32-.78.79-.62l-.3.38a4.65,4.65,0,0,1,.79-.47.32.32,0,0,0-.24-.07c.28-.1.49-.38.79-.28l-.28-.37c0,.26-.26.63-.5.52-.26-.31.25-.49.37-.67-.73.6-1.25.13-1.57.91h.19c-.08.6-.84.58-1.12.91a.26.26,0,0,0-.18-.29c-.39.94-1.22,1.44-1.8,2.38l-.55-.06.24.24c-.25.49-.43-.24-.64,0,.09-.1.12,0,.2,0-.71.19,0,.47-.32.65.38.13.55-.4.8,0-.7.19-1.19,1-1.85.55-.53,1.06-1.87,1.75-2.57,2.4,0,.19.14,0,.19.13-.61,0-.62,1.16-.94.88,0,.21.14.48.19.59a1.83,1.83,0,0,0-.84.38l.24-.09,0,.06-.34.12v0c-.61.49-1.14,1.21-1.95,1.41.48-.11.31.42.56.4-.73-.2-1.32.41-1.74,1,.11.09.15.21.29.22l-.47.11.16.07c-.4.61-1.48.68-1.56,1.24.25-.16.36-.06.54.07a5,5,0,0,1-1.25,1,.3.3,0,0,1,.14.06c-.06.15-.31.18-.48.24l.23.25c-.32.12-.46.53-.91.61.18.36-.85.41-1,.83-.17.06.53,0,.21.32-.59-.45-.41.42-1-.09l-.06.49-.35-.21c.32.75-.58.15-.75.68.08,0,.14,0,.16.07-.17.06-.46.3-.41-.05-.18.2-.93.74-.35.73-.18-.13.21-.28.38-.34.24.25-.13.45.07.77l-.18,0,.11.18c-.61.11-.76.67-1.36.61.07.08.07.2-.07.31l-.31-.28-.36.4.62.23c-.3.51-1.09.34-1.5.62.44.57-.83.5-.64,1.24l.39-.15c-.64.5-.41.88-1.09,1.27a5,5,0,0,0,.56-1.6c-.41.88-1.38.9-1.65,1.8.16.07.38,0,.37.26-.38-.13-.53.59-.76.21-.07.29.19.6.12.75s-.18.08-.22.05l-.12-.06a.82.82,0,0,1-.2-.17l.05.07c.17.43,0,.57-.12.42a1.1,1.1,0,0,1-.1-.62s0,0,0,.08L286,199a3.47,3.47,0,0,1,.12-.51c-.09.33-.12.4-.21.66a2.6,2.6,0,0,1,.21-.68C286,198.71,285.74,199.21,285.81,199.16Zm5.28-4.94.17-.14a.14.14,0,0,1,.11-.1l-.11.1C291.22,194.2,291.3,194.38,291.09,194.22ZM306,179.33c.22,0-.06.15-.09.23l.29-.24C306.11,179.2,306,179.3,306,179.33Zm-12.85,16.74.12.29-.27,0Zm-2.18,2.4.34-.13,0,.06-.33.13Zm-4,1,.05,0-.05,0c-.19-.1.07.37-.26,0S286.76,199.35,286.93,199.43Zm3.73-4.05c.12,0,.17-.07.2-.15-.16-.07-.49-.08-.43-.24.22.06.51-.18.72,0C290.71,195,291.14,195.73,290.66,195.38ZM296,189.9l0,.08.36-.07Zm1.15-.82c.38.13.62-.23.88-.39a.55.55,0,0,0-.85,0C296.67,188.78,297.4,189.11,297.12,189.08Zm-7.74,8.49.24.12,0,.07.34-.12c0,.54-.71.33-.94.41C289.14,197.93,289.94,198,289.38,197.57ZM299.26,187c.36-.07.92-.28,1.08-.07a.67.67,0,0,0-.88-.07C299.43,187,299.37,187,299.26,187Zm.65.62c-.45.17-.64,0-1.19,0,.14-.45.67-.11.83.1.36-.07.09-.24.16-.39Zm-1.29-.59-.07.17c0,.29.38.69-.22.54l.22-.54A.18.18,0,0,1,298.62,187.07Zm2.46-2.62h-.24c.13-.11.19-.08.24,0l.2,0C301.15,184.83,301.16,184.57,301.08,184.45Zm-1.77,2.1-.38.34C299.12,187,299.25,186.71,299.31,186.55Zm2-1.73a4.65,4.65,0,0,1-.42.55C300.74,185.16,301.12,184.82,301.32,184.82Zm8.06-7.74-.24.21L309,177ZM307,180l-.07-.18.14-.12Zm-2.32,2.55a.46.46,0,0,0-.2-.16.19.19,0,0,1-.18,0s.11,0,.18,0a.38.38,0,0,0,.25-.36c-.16-.08-.28.1-.42.09-.08-.51,1.29-.21.3-.85.19,0,.72-.13.76.12a2.15,2.15,0,0,0-.69,1.16.13.13,0,0,1,0,.16A.29.29,0,0,1,304.71,182.55Zm-3,3.58a.43.43,0,0,1-.22.09.4.4,0,0,1-.39-.14c.29-.1.27.11.39.14A.73.73,0,0,0,301.74,186.13Zm-.51.65.45-.17h-.33l.78-.15A.6.6,0,0,1,301.23,186.78Zm.06.26-.26-.12.3.09,0,0,.06,0-.6.42Zm-5.38,5c.51.84.92,0,1.36.2-.22-.24-.4-.78-.86-.25.17-.67.71.14.37-.67a1.18,1.18,0,0,1-.63.36l.21-.27C295.79,191.17,296.21,192,295.91,192.06Zm-2.4,2.8-.32.32.34-.26ZM286,203.44c0,.29-.52,1.49-.56.91A2.88,2.88,0,0,0,286,203.44Zm-2.5-3.17.1.62c-.45.25-.22-.49-.41-.67C283.32,200,283.27,200.29,283.45,200.27Zm-1.48-3v-.18l-.38.38Zm-.51.5c-.24,0-.19.37-.12.43Zm-1.72-2.46.12.18.32-.37Zm.62.07c-.26.19-.66.36-.25.7.31-.13.25-.25.69-.27,0-.18-.19-.23-.25-.29,0,.12.19.18,0,.3a.35.35,0,0,1-.19-.44c.1-.07.18-.14.19-.22A.45.45,0,0,0,280.36,195.41Zm1.11,1.41a.37.37,0,0,0,.19.07l-.06.06c-.16,0-.16-.06-.13-.13l-.22-.15c-.28.08-.3.46-.41.61,0-.18.2-.42,0-.53-.06.06-.13.06-.07.18l-.18-.23c.21-.48.46-.25.71,0a.44.44,0,0,1,.23,0C281.54,196.68,281.49,196.76,281.47,196.82Zm-.47-2.37v.18c-.07.13-.19.13-.26.19C280.68,194.65,280.75,194.34,281,194.45Zm4.19,8.16c-.08,0-.09.77.05.85l-.19.58a1.84,1.84,0,0,0-.17-1C285,202.43,285,202.85,285.19,202.61Zm7-6.81c.46.3.63-.36.83-.36C292.91,195.75,292.51,196.36,292.21,195.8Zm.56-.92c.11-.11.11-.18.3,0,.13,0,.12-.17.25-.16,0,.4-.34.09-.55.15a.63.63,0,0,1-.12.1A.19.19,0,0,1,292.77,194.88Zm-4.42,4.73-.44-.1-.21.27Zm-2.16,1.3c0,.31-.15.51-.18.38,0,.44.12.25.23.18s0,0,.07,0l-.07,0c-.05-.06,0-.3,0-.45l0-.16h-.11Zm-1.73-2.63c-.31-.11-.25-.17-.25-.35C284.34,197.93,284.46,198.1,284.46,198.28Zm2.37,1.57c-.08.3.29.34.26.59l.08-.13c0,.47-.27-.2-.32,0l0-.12c-.08-.33-.17-.1-.27-.33S286.84,199.74,286.83,199.85Zm-2.37-2c-.43-.22.13-.42.07-.66C284.9,197.36,284.4,197.56,284.46,197.86Zm1.61,1.54v-.09a1.77,1.77,0,0,1,0-.23v.09A1.64,1.64,0,0,0,286.07,199.4Zm10.25,86.09.31.08C296.33,285.55,296.18,285.53,296.32,285.49Zm4.14.65a26,26,0,0,1-3.83-.57C297.59,285.61,300.2,285.57,300.46,286.14Zm-4.24-1.54,1.33.29C296.74,285,296.92,284.72,296.22,284.6Zm.43.55-.09.19-.69-.27Zm-68.74-1c.14.08.23.18.16.3Zm-3.12-.87-.64-.05A2.61,2.61,0,0,1,224.79,283.3Zm6,.76-.55,0A2.51,2.51,0,0,1,230.74,284.06Zm34.55-.09,1.35.43A1.31,1.31,0,0,1,265.29,284Zm-54.89-3.32-.13.16C210.12,280.75,210.05,280.68,210.4,280.65Zm13.62,0a.22.22,0,0,1-.08.21l-.16,0Zm8.91,3.09,0,0,.45.1A.6.6,0,0,1,232.93,283.74ZM206,280.54a2.15,2.15,0,0,1-.56-.34C205.88,280.26,206.08,280.41,206,280.54Zm18.06,2.71h0Zm4.46-2.47-.72-.07A1.4,1.4,0,0,1,228.53,280.78ZM265.29,284l-.43-.14A.75.75,0,0,1,265.29,284Zm27.39,1.51c-.43-.05-.52-.17-.59-.29A1.91,1.91,0,0,1,292.68,285.48Zm-157.06,2.66h0Zm16.63-.94a.82.82,0,0,1,.23.11C152.34,287.36,152.26,287.29,152.25,287.2Zm15.07-4.89c-1.07.3-2.23-.1-3.18-.06l.34.17-1-.1,0,.28c-1.59,0-3.53.39-4.14,0l.22.44-1.7-.25,1,.24c-1.88.23-4.76.08-5.16.12l.18.15a1.87,1.87,0,0,1-.88,0l.27.23c-2.84.13-3.57.76-6.75.75-.86.13.48,0,.5.18a3.33,3.33,0,0,1-1.82,0c.28.38,1.6.15.62.55-.74-.14.52.32-.75.34l-.54-.46c-.7.14-.11.4-1.23.44-1.28-.11,1.51-.7-.54-.6-1,.12-2.06,1.35-4.07,1.25-1.68.42,1,.7-1.4.79l1.54.19c-.38.18-.11.41-1.14.39a3.84,3.84,0,0,0-1.56-.33c2.25.18-1.89.75.22,1.06l-.77.05c.1,0,.13.06.08.1l-1,.13c.63.05,2.13,0,1.47.4l-1.46.23c.42.24-.1.41,0,.62l4.38.14c-.19-.15-.82-.2-.6-.39,1.14-.25,1,.22,2-.11l-.5-.18c.09.08.25.09,0,.14s-.55,0-.57-.12a2.44,2.44,0,0,1,1.82-.05c1.41-.15.25-.53.55-.64.77.41,2.36-.22,3.25-.06l-.59-.27a4.94,4.94,0,0,1,2.67-.16l-.26-.24c1.5-.07,2.18-1,3.39-.17l-.17-.15a4.29,4.29,0,0,1,2.13-.16c0-.11.1-.25.35-.3.36.33,1,0,1.88-.11-.61-.05-.45-.51-1.09-.57,1.36-.56,1.32.41,2.49.32.69-.28-.65-.21-.83-.37,1.83.12,3.66-1.31,4.86-.48l-.76.34c.74.14,1.13.12,1,0a.41.41,0,0,1-.41-.12c2.15-.6,3.46.44,5.64.12-.17-.16-.49-.19-.51-.33,1-.24,1,.81,2.65.35l-.33-.17c.54-.15,1,.1.89.16,0-.77,3.46-.16,4.55-1.22a7.8,7.8,0,0,0,3.82.31c1-.52-.91-.46-.56-.9.79,0,1.22.35,2.39.13,0,.43-2.28,1,0,1.11l.29-.24a3,3,0,0,1-.86.11c-.65-.22.37-.31.51-.43h2.38c.2.44-1.23.41-1.37.53,1.87-.19,4.1-1,5.86-.73l-.17-.16c2.24.28,1.26-.89,3.06-.25.93-.16-.35-.46,1.06-.56.4,0,.17.16.1.22,1.74.08.75-.46,2.37-.12l-.37-.47c1.93.26,4,1,5.6.76-.11-.36-1.13-.29-1.55-.56,2.27.59,5.37-.11,7.45.18-.61.33,1,.69-.31,1-.36-.47-1-.13-1.68-.16,1.18,1,4.77-.68,5.15.23l.29-.37c.32,0,1.13.3.58.43l2.27-.29c-.81-.26-2.51-.86-3-.45-.66-.38.93-.28.34-.72,1.54.58.93-.28,2.52-.19-.71.56,1.59.69,1.52,1a5.39,5.39,0,0,1,2.12.28,42.22,42.22,0,0,1,4.47-.3c-.56-.16-1.44-.36-1.38-.7.72.18,1.51.16,1.64-.24-2.57-.66-.81.93-3.13.51a4.36,4.36,0,0,0-2.41-.63c.54-.27.3-.38.51-.7,1.48.92,3.8,0,5.71.43.81.27.22.88,2,1l-1.56.31c1.71-.28.41.27,1.83.36l-.57-.3a2.82,2.82,0,0,1,1.67.2l-.74-.47c.47-.06,1.33-.13,1.35.15a.43.43,0,0,0,.16-.29c.09.08.31.13.86.11-.32-.06-.56,0-.56-.16,2.09.09.48-.53,1.77-.49-.2-.11.16-.25.63-.32,0,.76,2.54.83,3.22,1.24h0l1.75.28c-.35-.06,0-.26.54-.35h-.09c.56-.13-.66-.81,1-.61l.87.22c-.15,0,0-.14.08-.2l.9.21c1.38-.7,2.6.41,4.22.07-.46.06-1.18,0-.87-.22a1.77,1.77,0,0,1,1,.11l-.08-.08,3.09.48c-.25-.26-2-.29-1.2-.57.46-.34,1.34,0,1.9.06-.08.2-1.1.37-.07.48.13-.1,1.11-.3.65-.44a27.38,27.38,0,0,1,3.54.69c.3-.08-.17-.17-.33-.19l-.08.05c-.63-.11-.09-.51-1.34-.31-.1-.64,1.8-.18,2.9-.24l-1.74-.47c3-.85,6.94.24,9.86.31-.87.18-1.58,0-1.49.48a27.59,27.59,0,0,0,3.38.32l-.15,0c.94-.24,2.2.29,2.83-.15-.39-.29-1.34.23-1.34-.33.76,0,1.52.05,2.28.11-.7-.38-2.28-.11-3.15-.21-.63,0,1.26.1.95.47a6.26,6.26,0,0,1-3.64-1c-.63-.41.94-.38,1.34-.38a11.37,11.37,0,0,0,5.44.76l1.18-.38c1,.44.56,1.18,2.45,1.17L264,284a3.27,3.27,0,0,1,.89-.12c-.8-.27-1.67-.57-2.39-.85,1.1-.6,3.08.47,4.65.67-.08-.09-.63-.14-.79-.31,2.37,0,4.81.84,6.62,1,.79-.25-1.5-.25-1.1-.66.95.2,2-.12,2.28.3-.38-.59,2.2.12.4-.54a68.53,68.53,0,0,1,10.7,1.36c-.16-.18-.15-.32,0-.43a9.25,9.25,0,0,1-3.53-.8c.8-.23,1.81.52,2,.36-.38-.16-1.17-.21-1.16-.5,1-.24,1.57.25,2.27.35l-.39.12c2.18.55,1.14,1,3.5,1.1.88-.26,0-.28,0-.71.54.23,2.37-.05,2.9.45l-1.42-.1c1,.22,1.92.31,2.6.53a.49.49,0,0,0-.32-.26,8.32,8.32,0,0,1,2.17.61l.27-.43a3.37,3.37,0,0,1-2.12-.23c.17-.38,1.58,0,2.2,0-2.74-.41-2.71-1.11-5.07-1.06l.38.18c-1.48.18-2.93-.52-4.21-.58.37-.07.45-.23.29-.31-2.85.15-5.61-.32-8.84-.33l-.94-.52-.09.34c-1.58,0-.31-.5-1.33-.54.39,0,.32.08.39.17-1.81-.52-1,.24-2.05.08.46.37,2,.25,1.48.7-1.8-.5-4.65-.39-4.88-1.23-3.4.18-7.59-.55-10.44-.72-.39.14.24.12.09.23-1.12-.5-3.8.24-3.8-.18a1.83,1.83,0,0,0-.94.52,12.51,12.51,0,0,0-2.5-.42l.67.13-.08.05-.95-.18,0,0a51.92,51.92,0,0,1-7-.62c1.19.28-.31.51.26.68-1-.68-3.58-.71-5.64-.65,0,.14-.15.25.09.36l-1.19-.28.16.17c-2.13.11-4.45-.65-5.86-.34.87.08.87.23,1,.45-1.53,0-3,0-4.75-.21.1,0,.16.09.16.14a6,6,0,0,1-1.51-.17l-.06.34c-.91-.15-2.09,0-3.18-.23-.42.38-2.63-.31-3.88-.15-.48-.07,1.05.38-.29.38-.2-.74-1.75,0-1.86-.79l-1.17.31-.27-.39c-1,.76-1.53-.3-3,0,.08.09.24.11.17.17-.49-.07-1.59-.1-.74-.32-.79,0-3.49-.1-2.27.29-.1-.22,1-.05,1.5,0-.06.34-1.25.23-1.54.61a2.28,2.28,0,0,0-.31-.15l-.16.22c-1.5-.34-3,0-4.1-.49-.06.1-.32.19-.83.18l0-.42-1.58.05.75.59c-1.73.18-3-.47-4.4-.53-.34.73-2.79-.16-4,.51l1.12.15c-2.38,0-2.74.4-5,.23a32.4,32.4,0,0,0,4.61-.84c-2.74.41-4.78-.24-7.28.3.18.16.81.24.21.44-.51-.34-2.38.12-2-.32-.78.18-.9.58-1.37.66l-2.65-.4.08.08c-4.41,1.18-8.36-.22-12.81.44l.1.22-1.14-.27c.89.17-.37.3-.42.51l-2.9-.32C166.43,282,166.62,282.44,167.32,282.31Zm37.78-1.53h.68a1,1,0,0,1,.43,0h-.43C205.43,280.86,205.18,281,205.1,280.78ZM267.75,282c.32.21-.47,0-.7.06l1.1.1C268.31,282,267.91,282,267.75,282Zm-62.53,1.57-.37.29-.49-.21Zm-9.62.36,1,.13-.08.06-1-.13ZM184.81,282l.19,0-.19,0c-.75-.17-1,.35-1.65-.11C183.88,281.47,184.38,281.89,184.81,282Zm16.93-.68a2.53,2.53,0,0,0,.71,0c-.17-.17-.82-.39-.35-.47.33.18,1.44.19,1.46.48C202.59,281.13,201.94,282,201.74,281.36Zm22.7-.29-.25,0,.89.22Zm4.12.25c.49.36,1.75.28,2.62.35.23-.31-.66-.66-1.69-.62C228.29,280.78,229,281.54,228.56,281.32Zm-34.2.85.25.25-.23,0,1,.13c-1.23.4-2.15-.22-2.8-.3C193.1,282.28,194.65,282.84,194.36,282.17Zm43-.67c.88.23,2.46.51,2.31.77.06-.48-1.21-.71-1.6-.71A2,2,0,0,1,237.34,281.5Zm-.05.91a6.68,6.68,0,0,1-2.33-.91c1.26-.2,1.61.43,1.45.68.88.23.71-.09,1.18-.14ZM236,281.05l-.52.06c-.61.2-.74.74-1.6.19l1.6-.19A1.58,1.58,0,0,1,236,281.05Zm10.72.11-.52-.18c.52,0,.58.1.52.18l.43.15C246,281.45,246.57,281.3,246.69,281.16Zm-8.17.06-1.51-.06C237.1,281.39,238,281.28,238.52,281.22Zm7.83.36c-.64,0-2.29.07-2.06,0C244.44,281.36,246,281.42,246.35,281.58Zm33.15,2-.94-.09.48-.31Zm-11.12-.4.25-.16.55.05Zm-10.24-.41a.19.19,0,0,0-.05-.25.71.71,0,0,1-.36-.15.54.54,0,0,1,.36.15,2.93,2.93,0,0,0,1.3,0c-.16-.17-.79-.15-1-.27.95-.39,3,.92,2.45-.27.39.16,1.74.53,1.26.7a15.74,15.74,0,0,0-3.93.13.39.39,0,0,1-.32.11A1,1,0,0,1,258.14,282.81Zm-13.81-.06a1.83,1.83,0,0,1-.63-.11c-.34-.08-.59-.22-.49-.37.81.14.29.27.49.37A2.68,2.68,0,0,0,244.33,282.75Zm-2.45.05,1.27.23-.64-.25,1.91.48A3.19,3.19,0,0,1,241.88,282.8Zm-.44.22-.26-.27.39.28h-.13l.06.07-2.14-.17Zm-21.83-.49c-.78,1,1.9.66,2.33,1.12.08-.32.88-.83-1.2-.8,1.8-.34,1.13.61,2.2-.2a8.66,8.66,0,0,1-2.06-.19l1,0C221.31,281.83,220.33,282.72,219.61,282.53Zm-11,.38h-1.34l1.27.05Zm-33,1.6c.1.22-1.6.72-2,.32A8,8,0,0,0,175.64,284.51Zm-14.18.79,1.51.09c-.26.53-1.34.07-2,.2C160.67,285.35,161.23,285.49,161.46,285.3Zm-9.77.68-.48-.05.54.47Zm.71.63c-.29.24.75.28,1,.23Zm-8.75,1.12.62-.08-.6-.4Zm.95-.6c.18.31.15.74,1.57.42,0-.35-.36-.31.14-.75a3,3,0,0,0-1.09.17c.33,0,.7-.14.8.08a2.72,2.72,0,0,1-1.42.08.44.44,0,0,0-.34-.25C144.27,287,144.4,287.07,144.6,287.13Zm5.19-.77a1.21,1.21,0,0,0,.42-.18l.09.08a.5.5,0,0,1-.51.1l-.69.17c-.14.3.86.42,1.13.56a2.8,2.8,0,0,0-1.51-.07c.09.08,0,.14.41.1l-.86.13c-1-.32-.08-.51.83-.72,0-.06.09-.13.25-.22A.75.75,0,0,1,149.79,286.36Zm-6.95-.09.47,0c.25.09.11.22.2.3C143,286.63,142.22,286.5,142.84,286.27Zm28.25-2.08c-.3.11.44.4,1.14.27l-.35.45c0-.28-1.45-.17-1.61-.18C170,284.35,170.56,284.48,171.09,284.19ZM204,282.71c.27.52,2.06.16,2.47.29C205.51,283.14,203.39,283.32,204,282.71Zm3.12-.29c.49,0,.63-.06.59.21.24.1.63-.05.87.06-.95.26-.91-.17-1.46-.27a3.94,3.94,0,0,1-.46,0A1.31,1.31,0,0,1,207.1,282.42Zm-19.24.65-.67-.36-1,.08Zm-11-.16c.1.22-1.08.29-1.33.19.09.29.88.21,1.51.21a1.25,1.25,0,0,0,.41,0H177c-.24-.06-.09-.22-.09-.32l.31-.11-.88,0Zm-19.35.86a1.81,1.81,0,0,1-1.26.16A2.39,2.39,0,0,1,157.48,283.77Zm25.17-1.42c-1.18.21.59.42-.18.61l.62-.06c-1,.36-.74-.31-1.44-.18l.47-.08c.36-.31-.73-.17-.83-.39C181.83,282.11,183.12,282.27,182.65,282.35Zm-26.3,1.31c-1.15.37-1-.23-1.69-.24C155.57,283.1,155.47,283.65,156.35,283.66Zm18.8-1.78.07-.06-1-.12-.07.07Zm-20,4.86a2.6,2.6,0,0,1-.63.05A4.23,4.23,0,0,1,155.11,286.74ZM210,284.37c0-.08.12-.12.26-.15C210.26,284.27,210.2,284.31,210,284.37Zm2.29.13h.09l.07,0ZM292,285.78c.45.41-.48,0-.87,0C291.48,285.79,291.66,285.55,292,285.78Zm-3-.92a3.2,3.2,0,0,0,.95.31A2.19,2.19,0,0,1,288.93,284.86Zm2.5.41a8.68,8.68,0,0,1-1.55-.1A5.83,5.83,0,0,1,291.43,285.27Zm-10.84-1a3.39,3.39,0,0,0,1.41.21c-2.05.06.38.45.53.63A3.51,3.51,0,0,1,280.59,284.31Zm-2.7-.3a2.65,2.65,0,0,0,.57,0A1.37,1.37,0,0,1,277.89,284Zm-.77.16a2.35,2.35,0,0,1-1.25-.59c.87-.12,1.39.32,2,.43C277.39,284,276.9,283.91,277.12,284.17Zm-21.81.23c.16,0,.55,0,.56.18l-1.18,0C254.22,284.47,255.07,284.43,255.31,284.4Zm-4.34-.79c-.95,0-.46.34-.94.24l.06-.48Zm.58-2.42.28.06-.32,0ZM246.41,284l.64.55C246.26,284.38,246.26,284,246.41,284Zm-3.61.32.55.17-1.73-.17Zm-4.34-.28-.16.11-1.19-.14Zm-47.31.44c-.2-.45,1.71-.33,2.25-.47C193.05,284.58,191.88,283.85,191.15,284.46Zm-34.41,2,1.82,0C157.17,286.66,158.17,286.42,156.74,286.41Z" style="fill:#407BFF"></path><path d="M281.58,198.76a.24.24,0,0,1-.1-.19A.49.49,0,0,1,281.58,198.76Z" style="fill:#407BFF"></path><path d="M294.91,195.55a.18.18,0,0,1-.05-.16A.22.22,0,0,1,294.91,195.55Z" style="fill:#407BFF"></path><polygon points="295.57 195.11 295.59 195.09 295.63 195.09 295.57 195.11" style="fill:#407BFF"></polygon><path d="M313.08,174.72c.38.13-.07.16-.16.26C313,174.88,312.86,174.67,313.08,174.72Z" style="fill:#407BFF"></path><path d="M311.92,175.08a.59.59,0,0,0,.38-.1C312.25,175.05,312.16,175.1,311.92,175.08Z" style="fill:#407BFF"></path><path d="M312.62,174.56a1,1,0,0,1-.32.42C312.38,174.87,312.35,174.69,312.62,174.56Z" style="fill:#407BFF"></path><path d="M310.09,177.21c.27,0,.4-.28.4-.28-.31.65.41.19.57.26C310.71,177.45,310.5,177.26,310.09,177.21Z" style="fill:#407BFF"></path><path d="M309.39,177.81a.47.47,0,0,0,.09-.17A.21.21,0,0,1,309.39,177.81Z" style="fill:#407BFF"></path><path d="M309.37,178.14c-.2.14-.44,0-.66,0,.06-.34.49-.2.68-.31C309.28,177.93,309.14,178,309.37,178.14Z" style="fill:#407BFF"></path><path d="M305.29,184.36c.06,0,.15-.12.25,0l-.26.3C305.11,184.69,305.26,184.44,305.29,184.36Z" style="fill:#407BFF"></path><path d="M303.79,185c-.23.21.15.34,0,.4l-.34-.34Z" style="fill:#407BFF"></path><polygon points="302.12 183.19 302.22 183.16 302.14 183.22 302.12 183.19" style="fill:#407BFF"></polygon><path d="M303.1,186.43l.55.2C303.36,186.73,303.05,186.44,303.1,186.43Z" style="fill:#407BFF"></path><polygon points="302.54 187.56 302.79 187.54 302.28 187.86 302.54 187.56" style="fill:#407BFF"></polygon><polygon points="301.36 188.46 301.41 188.58 301.04 188.78 301.36 188.46" style="fill:#407BFF"></polygon><path d="M290.22,199.86c-.38-.26.2-.6.24-.82C290.79,199.52,290,199.29,290.22,199.86Z" style="fill:#407BFF"></path><path d="M282,199.16l.18.59C281.82,199.41,282.13,199.64,282,199.16Z" style="fill:#407BFF"></path></g><g id="freepik--Table--inject-315"><line x1="482.69" y1="434.61" x2="15.06" y2="434.61" style="fill:none;stroke:#263238;stroke-linecap:round;stroke-linejoin:round"></line></g><g id="freepik--Character--inject-315"><polygon points="315.1 203.46 297.33 200.16 296.78 203.28 314.37 208.78 315.1 203.46" style="fill:#407BFF;stroke:#263238;stroke-linecap:round;stroke-linejoin:round"></polygon><path d="M329.57,189.54s-13.92.18-15,0-1.65,4-2.38,5.5-5.13,6.77-4,7.69,5.13,0,5.68-.73,2.19-3.85,2.19-3.85a5.9,5.9,0,0,1,3.48,3.11,6.71,6.71,0,0,1-.91,6.6c-.73.55-6.05-1.1-7-1.47a3,3,0,0,0-3.67.55c-1.64,1.47-2.56,3.67-1.1,4.58s3.85.55,4.77.92,6.41,4.58,9.89,5.49,10.81,3.49,10.81,3.49l22.16,39.2,9,14.84,15.71-28s-25.24-20.17-29.63-24.2-9.16-9-9.71-10.81-5.31-19.24-6.6-21.62A2.78,2.78,0,0,0,329.57,189.54Z" style="fill:#fff;stroke:#263238;stroke-linecap:round;stroke-linejoin:round"></path><polygon points="450.48 434.61 444.28 376.33 359.04 380.67 360.21 434.61 450.48 434.61" style="fill:#263238;stroke:#263238;stroke-linecap:round;stroke-linejoin:round"></polygon><path d="M408.4,393.43a16,16,0,0,0,5.54,10.84c5.3,4.33,13,6.5,13,6.5" style="fill:none;stroke:#fff;stroke-linecap:round;stroke-linejoin:round"></path><line x1="425.74" y1="392.95" x2="431.76" y2="433.17" style="fill:none;stroke:#fff;stroke-linecap:round;stroke-linejoin:round"></line><path d="M372,394.88s1,30.1,1.69,30.58,6.26,3.61,6.26,3.61l-.73-15.89" style="fill:none;stroke:#fff;stroke-linecap:round;stroke-linejoin:round"></path><polygon points="367.46 385.49 368.67 392.47 380.71 392.71 380.95 385.97 367.46 385.49" style="fill:none;stroke:#263238;stroke-linecap:round;stroke-linejoin:round"></polygon><path d="M444.28,376.34,359,380.67l.19,8.95A96.67,96.67,0,0,0,391.06,393c18.84-1.07,40.34-5,53.85-10.76Z" style="fill:#fff;stroke:#263238;stroke-linecap:round;stroke-linejoin:round"></path><path d="M374.82,242.62s-6.69,6.92-8.25,11.82-7.36,15.38-9.81,28.76-5.13,33.67-3.79,47.71,4.68,39.47,3.79,45.49-.67,7.35,1.78,8.69S381.5,390,404,388s41.7-8.7,42.36-10.92a62.79,62.79,0,0,0,1.34-13.16c0-4.68-.67-33.44-.67-34.56s2.68-49.27,3.79-58,2.23-16-7.58-23.63-29.43-20.29-29.43-20.29S388.64,229.47,374.82,242.62Z" style="fill:#fff;stroke:#263238;stroke-linecap:round;stroke-linejoin:round"></path><path d="M368.87,326.57c.18,3.6.32,6.06.32,6.41" style="fill:none;stroke:#263238;stroke-linecap:round;stroke-linejoin:round"></path><path d="M381.13,253s-12.75,32.55-13,45c-.16,7.33.25,17.74.61,25.31" style="fill:none;stroke:#263238;stroke-linecap:round;stroke-linejoin:round"></path><path d="M413.23,320.27q1,.68,2.07,1.32" style="fill:none;stroke:#263238;stroke-linecap:round;stroke-linejoin:round"></path><path d="M388.45,296.91s9.76,12.57,22.29,21.63" style="fill:none;stroke:#263238;stroke-linecap:round;stroke-linejoin:round"></path><path d="M405,321.32a24.4,24.4,0,0,0,12.2,7.32" style="fill:none;stroke:#263238;stroke-linecap:round;stroke-linejoin:round"></path><polygon points="384.12 230.07 372.22 242.16 382.05 249.72 388.28 235.93 384.12 230.07" style="fill:#fff;stroke:#263238;stroke-linecap:round;stroke-linejoin:round"></polygon><path d="M381.67,217.41s1.89,12.66,1.89,13.8S382,249.72,382,249.72s11-8.31,13.42-10.58,14.73-15.68,14.73-15.68.38-7.18.57-11.52.57-14.55.57-14.55-7.94,12.47-13.42,16.25S381.67,217.41,381.67,217.41Z" style="fill:#fff;stroke:#263238;stroke-linecap:round;stroke-linejoin:round"></path><path d="M402.4,212.26s-4.19,8.39-9.33,13.29-8.95,4.52-8.95,4.52l-2-9.18Z" style="fill:#263238;stroke:#263238;stroke-linecap:round;stroke-linejoin:round"></path><path d="M367.43,164.91s-.52,32,1.3,36.4,7.28,16.12,10.39,18.2,11.7,2.86,15.6,1.3,10.14-8.58,13.78-14S412.4,194,412.4,194s7.54-1.82,9.62-4.68,3.64-10.66.52-12.48-8.06.78-8.06.78.52-7.28-1.56-8.84-4.94-5.2-5.2-7l-.26-1.82a102.74,102.74,0,0,1-17.94,4.68C380.68,166,367.43,164.91,367.43,164.91Z" style="fill:#fff;stroke:#263238;stroke-linecap:round;stroke-linejoin:round"></path><path d="M383.51,176.52s.25,3.49.74,7-2.24,14.47-2.74,16,3.74,2.25,8.23,0" style="fill:none;stroke:#263238;stroke-linecap:round;stroke-linejoin:round"></path><path d="M385,206s8.23,1.49,13.22-5" style="fill:none;stroke:#263238;stroke-linecap:round;stroke-linejoin:round"></path><path d="M374,175.71s3.67-2.86,7.35-1.22" style="fill:none;stroke:#407BFF;stroke-linecap:round;stroke-linejoin:round;stroke-width:3px"></path><path d="M392.12,175s5.17-1.91,9.12,1.91" style="fill:none;stroke:#407BFF;stroke-linecap:round;stroke-linejoin:round;stroke-width:3px"></path><path d="M381.54,184.15c0,1.51-.64,2.73-1.43,2.73s-1.43-1.22-1.43-2.73.64-2.72,1.43-2.72S381.54,182.65,381.54,184.15Z" style="fill:#263238"></path><path d="M397.79,184.7c0,1.5-.64,2.72-1.43,2.72s-1.43-1.22-1.43-2.72.64-2.72,1.43-2.72S397.79,183.19,397.79,184.7Z" style="fill:#263238"></path><path d="M377.3,134.24s-19.49,10.13-20.79,15.07,9.1,1.56,9.1,1.56-13.52,7.54-13.52,12,12.74,4.16,26.77,4.42,28.86-5.46,28.86-5.46-2.6,2.08,1,5.2a46.12,46.12,0,0,0,4.94,3.9l-.78,8.32a11.23,11.23,0,0,1,4.42-2.08l2.08-.26,1-9.62s6.5-2.08,4.42-15.6-13.52-20.79-27-20.79S377.3,134.24,377.3,134.24Z" style="fill:#407BFF;stroke:#263238;stroke-linecap:round;stroke-linejoin:round"></path><path d="M410.61,155.28c-3.58,2.56-9.52,5.46-18.53,6.14-16.85,1.26-20.22-.21-16-2.74s6.95-1.27,6.95-1.27" style="fill:none;stroke:#263238;stroke-linecap:round;stroke-linejoin:round"></path><path d="M415.05,151.09a14.58,14.58,0,0,1-2.11,2.31" style="fill:none;stroke:#263238;stroke-linecap:round;stroke-linejoin:round"></path><path d="M414,146s-4.84,3.37-14.32,3.58" style="fill:none;stroke:#263238;stroke-linecap:round;stroke-linejoin:round"></path><polygon points="411.33 218.36 383.93 244.62 393.95 257.28 417.18 225.73 411.33 218.36" style="fill:#fff;stroke:#263238;stroke-linecap:round;stroke-linejoin:round"></polygon><polygon points="372.22 242.16 370.71 254.25 379.17 247.45 372.22 242.16" style="fill:#fff;stroke:#263238;stroke-linecap:round;stroke-linejoin:round"></polygon><polygon points="383.93 244.62 382.05 249.72 386.59 247.54 383.93 244.62" style="fill:#fff;stroke:#263238;stroke-linecap:round;stroke-linejoin:round"></polygon><path d="M411.16,289.67,433,343.18s3.12-3.79,10.48-6,17.61-2,17.61-2-10.7-30.1-10-36.79S448.61,268,448.61,268" style="fill:#fff;stroke:#263238;stroke-linecap:round;stroke-linejoin:round"></path><path d="M466,351.65s-5.63,9.63-13.37,15.83c-4.81,3.84-14.87,11-39.24,17.83-3.47,1-10.7,2.23-12-.66s.44-8.48,2.67-9.81,22.08-8.7,24.53-11.82,6.69-18.28,6.69-18.28,15.38-7.81,22.29-4.69S466.23,349.42,466,351.65Z" style="fill:#fff;stroke:#263238;stroke-linecap:round;stroke-linejoin:round"></path><path d="M428.32,347s3.79-10.71,15.39-13.83,16.5-4.46,18.06-2.67,5.79,11.59,6.46,14.94-2.23,6.24-2.23,6.24-3.12-7.58-9.36-8.7-19.62,5.8-23.19,7.36S428.32,347,428.32,347Z" style="fill:#fff;stroke:#263238;stroke-linecap:round;stroke-linejoin:round"></path><path d="M345.5,339.16l1.26-2.32s14.76,4.22,22.77,5.7,17.08,3.58,20.24,5.06,6.53,5.9,6.53,5.9a10.52,10.52,0,0,1,7.17-7.59c6.11-1.9,33.31-11.81,35.84-12.86l3.58-1.48.82,1.57-47.2,23.52Z" style="fill:#fff;stroke:#263238;stroke-linecap:round;stroke-linejoin:round"></path><polygon points="345.5 339.16 348.03 370.57 396.51 378.8 396.3 353.5 345.5 339.16" style="fill:#407BFF;stroke:#263238;stroke-linecap:round;stroke-linejoin:round"></polygon><polygon points="396.3 353.5 443.71 333.14 439.1 366.99 396.51 378.8 396.3 353.5" style="fill:#407BFF;stroke:#263238;stroke-linecap:round;stroke-linejoin:round"></polygon><path d="M409,378.63s3-4.32,3.45-6.19-1-5.89,0-8.34,1.87-5.47,4-7.05,3.31-3.74.15-3.74-8.2,4.75-9.79,7.48-2.58,4.89-5.32,5.9-8.92,1.15-13.09-.43-16.83-7.19-19.85-8.63-5.18-1-4.31,1.15,7,5.75,8.91,7.48a28.73,28.73,0,0,1,3.17,3.45,99.86,99.86,0,0,1-10.21-3.31c-5.18-2-7.63-1.72-7.34.43s6.62,4.75,7.62,5.47,4.32,5.32,6.19,6.62,6,2.44,11.51,3.16,13.23,4,17.69,4.6a29.36,29.36,0,0,0,9.49-.71" style="fill:#fff;stroke:#263238;stroke-linecap:round;stroke-linejoin:round"></path><path d="M366.37,372.3s9.07,4,11.51,4.89a22.29,22.29,0,0,0,3.45,1" style="fill:none;stroke:#263238;stroke-linecap:round;stroke-linejoin:round"></path></g></svg>
