<?xml version="1.0" encoding="UTF-8"?>
<!DOCTYPE svg PUBLIC "-//W3C//DTD SVG 1.1//EN" "http://www.w3.org/Graphics/SVG/1.1/DTD/svg11.dtd">
<!-- Creator: CorelDRAW Standard 2021 (64-Bit Versión de evaluación) -->
<svg xmlns="http://www.w3.org/2000/svg" xml:space="preserve" width="37.221mm" height="40.6398mm" version="1.1" style="shape-rendering:geometricPrecision; text-rendering:geometricPrecision; image-rendering:optimizeQuality; fill-rule:evenodd; clip-rule:evenodd"
viewBox="0 0 3722.1 4063.98"
 xmlns:xlink="http://www.w3.org/1999/xlink"
 xmlns:xodm="http://www.corel.com/coreldraw/odm/2003">
 <defs>
  <style type="text/css">
   <![CDATA[
    .fil0 {fill:black}
    .fil6 {fill:#0185B5}
    .fil1 {fill:#0B1B4C}
    .fil7 {fill:#2C3465}
    .fil9 {fill:#706C92}
    .fil8 {fill:#E6322C}
    .fil2 {fill:#ECBA23}
    .fil10 {fill:#F339B4}
    .fil5 {fill:#F7FAF8}
    .fil3 {fill:#FBC3ED}
    .fil4 {fill:white}
   ]]>
  </style>
 </defs>
 <g id="Capa_x0020_1">
  <metadata id="CorelCorpID_0Corel-Layer"/>
  <path class="fil0" d="M1470.26 4063.99l973.32 0c-0.31,-25.72 4.33,-42.71 1.57,-72 -3.94,-41.8 -13.33,-92.8 -12.7,-135.14 0.25,-16.81 1.63,-85.62 6.61,-100.62l7.31 -33.95c1.91,-27.36 9.91,-30.82 13.55,-59.97 4.99,-39.97 27.5,-145.65 46.18,-179.9 6.87,-12.59 7.94,-25.35 16.58,-38.01l46.46 -84.51c9.74,-15.13 25.18,-23.4 36.43,-39.49 18.8,-26.89 5.81,-3.53 35.37,-37.87l19.94 -16.35c6.85,-5.99 10.95,-9.36 19.31,-16.89l41.49 -31.25c13.15,-11.18 11.11,-4.67 24.9,-11.04 1.36,-22.49 -7.78,-31.01 -14.16,-50.62 -3.6,-11.04 -5.34,-9.2 -7.76,-20.04 -7.84,-35.16 -13.46,-99.03 -12.26,-137.67 1.67,-53.86 18.49,-53.04 31.76,-88.28 22.79,-60.54 20.44,1.24 21.77,-99.49 -16.41,6.44 -3.26,-1.78 -14.81,11.49 -0.73,0.83 -2.45,3.28 -3.1,4.12l-21.71 28.96c-39.36,52 -42.38,43.12 -74,78.86 -12.04,13.59 -28.74,22.62 -41.38,34.77 -18.68,17.95 -64.7,46.77 -90.47,61.81l-53.21 23.84c-22.16,8.35 -93.36,31.49 -117.67,33.93 -105.23,10.6 -118.58,-1.91 -210,-18.83l-41.86 -15.57c-34.34,-19.91 -77.33,-36.35 -105.5,-65 -12.92,-13.14 -10.14,-2.73 -22.88,-17.2 -25.47,-28.93 -19.34,-11.96 -37.37,-38.81 -16.26,-24.2 -4.78,10.73 -50.99,-65.78 -4.79,-7.93 -10.15,-19.46 -15.1,-24.92 -22.37,-24.63 -12.65,-25.72 -25.37,-51.16 -12.32,-24.64 -20.1,-54.39 -32.7,-79.5 -6.95,-13.84 -27.93,-107.03 -28.85,-123.72 -0.77,-13.75 -0.59,-26.71 -1.02,-40.25 -0.55,-17.79 -3.22,-15.93 -4.47,-32.53 -2.66,-35.13 5.9,-142.84 14.11,-180.55 2.64,-12.08 5.16,-14.05 8.71,-27.07 5.45,-20.01 10.52,-40.76 14.94,-61.99 5.98,-28.75 27.05,-56.98 33.08,-84.28 4.74,-21.47 0.14,-9.05 10.46,-24.82 4.24,-6.48 12.12,-19 15.02,-24.9 7.8,-15.88 1.35,-11.76 12.95,-23.72l15.36 -24.15c6.56,-11.28 7.46,-9.11 10.19,-24.86 -11.55,-11.95 -21.89,-27.57 -34.71,-36.07l-39.72 -33.26c-10.16,-9.26 -22.69,-25.59 -34.7,-38.17l-37.4 -35.18c-33.8,-37.93 -80.17,-100.43 -53.56,-153.34l20.43 -34.84c7.11,-10.9 17.12,-17.34 27.05,-26.92l28.61 -25.97c46.63,-38.15 34.81,-45.28 48.58,-79.19 4.38,-10.79 6.87,-11.54 11.72,-24.42l4.27 -10.29c17.21,-34.76 17.38,-75.52 26.4,-114.8l29.76 -245.78c5.89,-56.03 1.85,-119.43 7.98,-174.59l15.97 -129.42c8.29,-37.58 15.85,-80.05 24.69,-118.36l15.74 -56.78c3.66,-18.83 2.04,-1.76 11.85,-23.19 0.6,-1.31 2.58,-6.32 3.22,-7.84l12.86 -49.11c2.7,-13.47 5.05,-13.52 7.33,-27.82l11.16 -99.34c5.85,-13.13 4.98,-12.37 5.34,-29.3 0.6,-28.42 4.13,-113.94 9.57,-137.87 2.75,-12.13 7.52,-26.18 19.06,-35.1 4.57,-3.52 5.59,-3.35 9.15,-5.12 27.32,9.33 50.77,28.9 78.1,42.12l49.07 26.32c9.83,4.65 13.96,8.09 25.25,14.34l4.64 2.59c0.76,0.37 1.67,0.85 2.46,1.2l78.99 38.71c6.08,2.96 1.03,0.4 7.85,3.03l65.11 29.12c16.59,9.3 34.48,15.4 51.94,24.13l52.79 23.83c31.19,16.36 81.41,33.36 116.68,38.83 43.58,6.77 93.84,12.77 135.56,5.14 23.35,-4.27 39.75,-12.58 61.77,-17.31 35.9,-7.7 77.99,-22.46 109.08,-43.87l42.79 -30.22c0.32,-1.2 1.41,-1.19 2.07,-1.84 -2.85,-30.81 -73.33,-162.38 -97.78,-183.05l-65.12 -62.17c-7.63,-6.2 -7.73,-3.99 -13.79,-8.12 -7.28,-4.96 1.04,1.13 -5.81,-4.86l-92.36 -56.37c-10.15,-4.59 -19.04,-6.81 -31.01,-12.85 -43.93,-22.14 -89.56,-29.59 -134.29,-44.3l-57.02 -12.01c-8.03,-2.34 -10.13,-2.34 -18.57,-3.96 -79.69,-15.28 -168.25,-19.02 -252.18,-15.61 -30.39,1.24 -117.16,21.2 -142.67,34.74 -46.47,24.66 -69.01,23.13 -115.72,62.65 -12.18,10.3 -18.98,10.01 -29.06,18.49 -8.67,7.29 -11.05,12.19 -22.44,20.32l-48.27 43.27c-0.5,0.53 -10.06,10.83 -10.54,11.29 -16.92,15.95 -14.93,21.14 -29.1,36.44 -11.98,12.92 -18.12,26.74 -23.51,34.76 -3.12,4.64 -0.55,0.41 -4.36,6.89l-19.7 27.78c-7.62,13.08 -20.01,27.04 -24.82,40.78 -9.5,27.16 -45.8,95.12 -59.68,118.46 -16.24,27.28 -28.6,70.14 -39.45,97.81l-31.79 102.78c-5.57,15.66 -8.68,12.56 -12.32,30.71 -5.16,25.7 -14.39,46.14 -18.91,72.6 -2.39,13.92 -4.17,23.85 -8.34,35.45 -9.41,26.24 -12.62,39.42 -17.32,69.78l-17.95 73.42c-4.95,20.98 -6.18,7.55 -11.07,31.81 -1.59,7.92 -1.49,10.64 -5.28,16.99 -8.44,14.11 -2.15,-4.36 -9.48,12.28 1.38,36.32 -2.12,43.44 -10.49,73.31 -9.64,34.43 -14.04,67.3 -26.65,100.7l-67.99 218.19c-2.93,7.49 -2.3,9.36 -4.71,17.21 -8.25,26.78 -17.35,39.08 -18.41,42.59 -4.24,14.12 -1.7,19.88 -8.51,33.25 -5.78,11.35 -8.99,14.59 -13.56,26.62l-51.74 96.54c-54.72,80.13 -27.02,37.24 -84.33,97.32 -4.44,4.65 -7.73,8.19 -11.32,10.78l-23.16 20.13c-7.6,7.47 -3.37,2.57 -10.44,8.1l-108.18 95.14c-10.55,10.61 -16.18,7.91 -17.95,21.22 3.69,1.39 69.79,12.64 76.42,13.36 18.37,1.99 52.9,14.02 65.7,22.64 4.54,3.06 8.77,6.65 12.75,9.3l65.17 44.1 36.63 50c5.82,9.05 10.84,16.72 16.73,27.29l26.5 60.44c17.29,75.15 36.59,156.37 21.45,232.82 -10.49,52.99 -15.9,179.86 -30.74,232.12 -10.2,35.92 -8.28,77.79 -15.74,114.48 -2.56,12.62 -5.12,16.25 -6.84,37.5 -1.82,22.54 -6.91,52.98 -9.41,76.59 -8.37,78.98 -20.09,168.82 -20.23,246.83 -0.06,32.4 -5.29,49.61 -5.26,79.93l0.31 174.79c0.2,37.72 14.96,67.55 31.47,97.54 25.43,46.22 65.41,158.45 80.75,185.02 27.43,47.51 40.23,105.63 60.66,156.48 17.41,43.34 8.6,40.15 17.82,71.2l16.76 70.08c13.84,48.35 12.02,105.52 13.42,161.06z"/>
  <path class="fil1" d="M528.03 3103.23c53.39,20.29 23.68,9.85 50.65,23.64 25.39,12.99 89.01,33.22 120.86,30.04 26.97,-2.7 32.65,-18.62 45.96,-29.92l48.45 19.88c-10.73,8.5 -17.57,17.72 -28.3,27.29 -11.19,9.98 -20.33,12.47 -30.16,23.48 -4.88,29.37 7.34,6.64 0.49,33.91 -20.8,82.74 8.19,124.31 -87.23,189.48 -30.05,20.52 -83.27,34.11 -127.36,26.31 -52.37,-9.26 -83.35,-25.95 -148.25,-14.55 -15.84,2.79 -15.43,5.69 -29.06,-5.8 -8.36,-7.06 -11.97,-11.88 -20.79,-19.59 -23.96,-20.95 -40.22,-81.08 -33.42,-123.56 12.01,-74.99 15.73,-129.23 45.51,-197.73 8.57,-19.71 16.28,-36.51 26.39,-54.02 3,-5.21 3.91,-6.54 7.16,-10.85l19.05 -24.46c9.85,-11.05 -0.52,-4.49 13.21,-10.36l16.51 28.57c6.73,13.32 7.76,19.62 15.69,31.54 7.87,11.84 11.24,19.86 17.61,29.73 10.44,16.19 50.37,54.15 71.18,70.65 24.23,19.2 24.42,36.56 56.96,37.84 14.68,-29.91 5.21,-28.98 -32.61,-62.17 -13.49,-11.83 -8.32,-2.15 -18.5,-19.35zm2297.82 -257.13c-6.41,11.02 -10.69,15.75 -10.43,28.82 25.05,-2.79 1.12,-10.4 30.26,-10.66l23.89 -25.43c1.96,-1.7 69.31,-44.97 87.33,-45.69 5.89,-0.23 4.85,-0.44 10.36,0.84 10.74,2.51 6.75,4.02 16.56,7.78 23.23,8.9 18.42,-2.96 37.46,20.19 4.58,5.57 4.32,5.71 10.72,10.7 30.08,23.46 95.88,35.08 79.31,80.48 -3.55,9.72 -13.79,19.69 -14.99,31.66 -1.51,15 8.68,20.04 16.03,29.47 19.98,25.63 25.57,21.51 14.48,60.19 -18.32,63.84 -2.4,41.25 10.96,63.48 8.5,14.15 0.9,19.32 -5.2,29.57 -2.77,4.65 -3.81,8.33 -7.46,14.15 -18.04,28.79 -28.25,30.69 -42.17,78.12 -10.95,37.31 -10.15,48.91 -34.51,78.09 -30.46,36.51 -1.31,7.93 -35.94,36.52 -19.11,15.79 -2.06,21.24 -10.31,48.31 -11.24,36.87 -9.17,52.34 -37.12,82.54 -45.92,49.63 -27.14,43.92 -88.17,95.58 -17.47,-24.33 -12.71,-198.98 -9.61,-207.68 15.74,0.75 10.86,4.16 24.59,8.96 24.11,8.43 68,9.83 94.47,-2.89 -0.45,-18.05 -1.04,-12.39 -7.58,-25.19 -34.21,-2.29 -75.31,1.63 -107.14,-13.93 -4.34,-30.91 11.61,-81.83 11.46,-120.15 53.58,31.08 23.57,2.87 64.43,-7.4 7.17,-1.8 110.32,6.37 129.08,-33.76 -9.73,-9.89 -13.98,-9.28 -30.62,-5.44 -96.25,22.21 -107.37,-16.39 -127.35,28.36 -33.41,-7.97 -20.11,-19.35 -36.08,-31.96 -9.6,-7.59 -40.52,-17.53 1.74,-52.42 0.57,-0.48 1.39,-1.18 1.97,-1.67 0.58,-0.48 1.35,-1.22 1.94,-1.7 21.24,-17.48 23.69,-7.3 56.94,-15.61 14.71,-3.67 23.35,-7.31 36.59,-10.67 29.25,-7.45 50.38,-0.75 78.43,-17.95 -12.29,-8.72 -36.12,-5.1 -50.77,-6.63 -42.64,-4.47 -67.9,7.85 -102.75,12.04 -18.83,2.26 -24.26,10.16 -41.65,18.67 -18.22,-1.43 -32.51,-14.43 -40.54,-28.22 -14.77,7.39 -2.42,-4.57 -6.44,9.75 3.05,27.55 15.09,26.86 22.74,38.01 -14.29,22.37 -17.82,22.67 -4.03,51.2 13.69,28.33 20.08,11.34 12.04,52.31 -15.2,77.5 -26.85,246.73 -18.63,317.62 5,43.11 9.97,35.34 5.3,60.6 -2.34,12.61 -8.94,10.7 -18.71,14.12l-68.58 21.27c-75.2,20.24 -93.87,46.07 -119.2,3.34 -17.79,-30 -28.59,-39.46 -46.05,-81.42 -29.64,-71.22 -41.41,-60.47 -1.71,-120.18 10.75,-16.17 19.12,-33.69 33.65,-49.97 29.09,-32.57 76.43,-75 112.26,-102.48 15.89,-12.19 44.97,-26.19 53.32,-44.82 11.29,-25.2 -9.91,-40.73 -19,-86.21l-11.06 -66.12c-1.53,-28.86 -7.79,-48.3 -0.74,-77.58 2.2,-9.13 6.03,-19.48 9.91,-31.06 25.79,-77.03 42.86,-35.52 37.02,-177.1 -0.84,-20.2 -5.98,-52.47 14.92,-65.31 13.89,13.03 45.55,82.23 50.87,98.23 -7.75,6.51 -34.9,28.82 -36.49,36.33zm214.09 -137.05c-19.83,-5.7 -9.48,-7.41 -32.85,-5.86 -19.01,1.26 -66.8,3.69 -82.66,-2.41 -15.08,-5.79 -13.08,-4.9 -20.29,-20.32 -21.17,-45.32 8.15,-43.88 27.44,-46.26l104.77 -13.76c9.82,0.08 25.84,-0.53 33.35,3.27 18.36,9.31 23.21,37.36 14.46,62.56l-36.98 79.59c-7.32,13.25 -11.1,23.76 -21.85,29.3l-17.8 -14.11c3.7,-7.05 4.19,-13.52 6.73,-23.76 4.05,-16.29 4.31,-18.12 13.32,-29.52l8.7 -12.65c2.6,-4.08 1.56,3.53 3.66,-6.07zm-654.47 -802.34c56.05,-5.15 150.44,23.88 188.01,50.47 52.82,37.39 88.26,66.49 122.25,121.11 11.58,18.61 38.59,57.54 42.22,80.65l11.85 109.34c9.48,71.17 14.52,148.16 23.31,215.77 4.67,35.9 -10.54,68.98 -18.38,102.38 -8.85,37.67 -53.6,127.83 -80.69,162.27 -54.92,69.82 -104.7,130.18 -190.76,172.74 -52.65,26.03 -124.19,48.8 -195.32,46.37 -110.32,-3.77 -218.59,-59.77 -282.68,-148.05 -10.05,-13.85 -15.95,-17.26 -25.19,-33.16 -33.73,-58.03 -56.66,-108.49 -69.07,-174.87 -20.74,-110.98 -14.33,-116.32 -7.37,-212.74 4.88,-67.56 26.73,-103.64 39.84,-147.69 13.28,-44.64 59.22,-122.15 86.04,-157.87 26.37,-35.12 57.83,-62.94 91.49,-90.41 25.21,-20.58 85.32,-57.98 113.85,-68.25 92.7,-33.37 61.83,-19.9 150.6,-28.06zm-1745.98 568.61c3.88,-9.1 14.01,-52.3 27.96,-85.56l34.17 -75.59c32.14,-48.7 21.12,-63.54 82.51,-139.25 10.9,-13.45 11.75,-21.39 20.52,-37.63 7.26,-13.43 14.92,-19.69 21.54,-32.87l30.56 -49.7c0.49,-0.55 1.29,-1.27 1.77,-1.82l37.37 -46.18c25.01,-32.81 81.7,-80.16 81.82,-80.31 19.06,1.54 15.14,6.72 45.18,6.61 34.46,-0.13 48.63,12.16 76.51,18.99 23.07,5.65 15.99,8.54 32.14,14.78 30.62,11.84 36.96,14.96 66.57,39.01l30.37 31.02c25.18,30.9 7.72,5.19 25.66,43.84 8.57,18.48 10.44,11.03 17.62,29.69 6.72,17.45 15.95,49.14 20.59,73.45 5.55,29.07 16.72,80.13 9.22,107.92 -5.03,18.65 4.73,9.33 0.72,33.99 -1.99,12.26 -3.42,8.3 -4.55,15.98 -1.02,6.92 3.02,24.71 2.61,39 -2.81,96.93 -32.09,106.04 -45.34,141.94 -7.71,20.88 -26.64,62.38 -40.35,79.26 -12.78,15.74 -10.21,23.52 -24.38,44.43l-39.61 54.98c-21.96,26.19 -36.81,55.38 -57.65,84.21 -9.17,12.68 -32.84,46.77 -44.72,50.54 -11.4,-9.71 -19.92,-38.27 -38.97,-52.59 -27.27,-20.51 -16.24,-0.33 -33.71,-30.72l-32.04 -2.14c-7.3,-15 2.08,6.08 -2.11,-12.71 -1.67,-7.5 -1.67,-5.26 -3.75,-13.13 -4.6,-17.36 -1.12,-11.44 -10.14,-27.58 -8.35,-14.95 -16.69,-29.34 -27.79,-44.09 -33.54,-44.55 -69.58,-49.27 -84.92,-60.82 -47.67,-35.92 -33.65,-29 -88.69,-56.79l-84.72 -57.87c-0.34,-1.35 -1.34,-1.51 -1.97,-2.29zm2119.69 -452.13c58.04,15.7 170.93,12.08 227.3,-13.56 -5.45,49.83 2.7,101.29 2.17,145.77 -0.27,21.69 0.56,49.88 -0.88,67.29l5.8 212.63c0.59,14.12 -1.27,29.48 -0.9,43.67 1.13,44.48 4.53,55.79 3.49,116.04 -15.71,1.26 -33.79,1.21 -47.29,3.3 -15.46,2.4 -22.4,5.71 -39.08,8.13 -70.08,10.13 -41.98,108.39 7.23,126.09 14.59,5.25 48.87,3.26 66.38,3.78 -8.83,43.48 -0.8,17.69 -45.24,29.66 -26.52,7.14 -25.59,16.57 -48.36,23.68 -14.95,-26.28 -7.24,-17.25 -13.88,-34.07 -4.1,-10.38 -11.06,-17.49 -16.92,-26.14 -10.12,-14.99 -21.9,-41.5 -34.61,-50.56 1.29,-23.92 6.93,-7.56 1.28,-40.15 -11.46,-66.16 -15.19,-145.15 -27.08,-218.77 -1.64,-10.19 -0.26,2.15 -0.31,-7.12l-30.02 -301.58c-3.65,-30.51 -8.86,-54.64 -9.08,-88.09zm23.21 576.93c7.43,16.1 8.97,50.55 8.43,68.23 -0.52,16.95 -23.44,50.1 -36.32,85.23 -4.97,13.56 -41.48,58.33 -51.9,71.05 -64.15,78.42 -90.27,107.46 -169.61,157.52 -68.01,42.91 -168.04,75.3 -252.37,74.62 -37.29,-0.29 -98.91,-9.39 -133.37,-22.55 -10.92,-4.17 -18.73,-7.76 -28.44,-11.32 -35.07,-12.83 -46.45,-18.65 -82.96,-44.33 -50.5,-35.52 -64.27,-53.32 -103.08,-100.91 -70.73,-86.74 -95.66,-179.11 -116.38,-283.65 -15.09,-76.09 -7.17,-207.26 15.63,-287.88l19.36 -63.78c3.91,-12.88 8.3,-17.2 11.8,-27.59 4.3,-12.74 4.49,-21.67 8.7,-31.56 6.58,-15.41 9.07,-12.8 15.95,-28.05l43.26 -80.31c9.94,-11.29 14.83,-5.31 28.85,-14.27l0.27 -30.1c19.39,-16.39 41.35,-47.57 52.65,-59.21 13.73,-14.16 81.96,-71.39 96.68,-78.44 39.25,-18.79 44.85,-34.74 118.19,-59.55 66.46,-22.49 54.58,-21.05 131.8,-25.4 24.23,-1.37 47.24,-1.39 70.75,0.48 39.39,3.12 119.15,25.05 152.12,45.36 24.66,15.2 9.78,-0.81 46.62,29.52 41.95,34.54 37.26,18.74 58.6,61.22 20.56,40.92 47.53,72.64 37.03,113.68 -17.05,-12.62 -34.88,-38.46 -50.77,-56.15 -51.8,-57.62 -129.07,-101.36 -209.48,-117.94 -65.51,-13.51 -134.11,-12.9 -193.99,6.77 -52.56,17.28 -110.85,42.9 -145.95,71.95 -18.17,15.03 -40.08,30.56 -57.41,48.13 -8.24,8.36 -18.55,19.49 -26.7,27.73l-41.28 49.82c-0.43,0.65 -0.97,1.58 -1.41,2.22 -17.97,26.33 -57.74,82.76 -66.48,111.63 -8.19,27.03 -23.64,48.08 -30.64,77.79 -10.7,45.47 -14.86,41.55 -22.45,96.92 -12.42,90.73 -14.09,84.88 -5.58,189.61 3.38,41.7 29.22,133.37 47.21,167.66 16.72,31.89 -1.85,13.51 27.64,52.45 18.52,24.45 27.39,55.85 71.45,92.25 14.41,11.9 6.21,10.51 44.15,39.39 65.33,49.71 157.06,82.2 245.8,78.22 37.68,-1.69 60.79,-1.94 95.44,-13.02 56.05,-17.94 135.51,-51.78 177.97,-94.01 11.11,-11.04 20.4,-14.15 30.29,-24.15 39.99,-40.43 67.44,-66.69 98.23,-119.84 21.12,-36.46 52.73,-83.46 63.7,-125.04 3.32,-12.62 -0.75,-10.92 8,-20.4zm-87.23 -753.77c45.7,15.02 120.31,21.53 170.66,17.32 42.07,-3.51 118.45,-17.2 157.68,-28.82l-35.79 129.56c-15.81,24.66 -91.44,31.43 -129.13,31.3 -37.07,-0.12 -99.23,9.86 -122.59,-30.63l-40.83 -118.73zm333.69 -48.09c-10.15,5.81 -100.16,22.79 -121.7,26.75 -44.54,8.19 -92.85,6.91 -135.7,2.77 -98.31,-9.5 -85.61,-24.25 -88.19,-61.34 -1.59,-22.66 1.09,-48.63 7.64,-65.61 10.49,-27.18 23.98,-42.88 34.7,-59.97 4.89,-7.79 -1.65,-1.9 8.06,-10 6.86,-5.72 16.47,-10.26 24.18,-13.31 30.06,-11.9 84.19,-23.03 119.04,-24.59 48.57,-2.17 72.96,8.48 107.6,40.45 12.64,11.67 22.1,27 27.18,45.37 8.42,30.48 28.28,80.38 17.19,119.48zm-422.54 -195.44c30.2,-16.92 19.91,-13.42 46.47,-42.23l19.23 -24.76c7.11,-11.79 10.75,-9.6 19.97,-23.02l106.33 -170.06c0.41,-0.81 0.89,-1.74 1.32,-2.5 0.19,-0.34 4.18,-6.08 4.51,-6.54 19.9,-28.17 33.05,-61.23 49.83,-91.66 26.86,-48.7 46.56,-123.86 50.47,-180.9 0.97,-14.29 -0.52,-29.23 0.98,-43.64 1.54,-14.63 5.2,-18.3 5.71,-36.22 1.52,-53.99 9.79,-60.66 16.78,-115.33l19.6 -157.41c1.84,-48.34 14.24,-105.99 14.66,-116.29 0.77,-18.98 -1.85,-24.75 8.97,-38.32 1.54,46.84 7.33,86.81 7.82,132.73 0.49,46.13 -0.01,92.09 -1.45,138.18 -1.14,36.46 -20.34,284.32 -26.92,313.79 -4.16,18.65 -6.46,77.98 -15.1,122.82 -12.16,63.17 -41.23,252.2 -36.7,294.18 -86.13,6.9 -69.45,0.3 -148.93,26.36l-32.07 17.74c-0.69,0.45 -1.53,1.09 -2.19,1.57 -20.87,15.08 -30.94,34.73 -39.91,58.38l-6.23 12.53c-25.06,36.86 -25.56,79.66 -21.65,130.21 2.83,36.56 13.4,29.34 12.21,52.51 -7.83,-0.25 -20.59,-6.11 -26.91,-8.97 -8.3,-3.75 -15.95,-10.06 -18.9,-19.48l-1.34 -154.64c1.4,-33.42 -6.81,-34.92 -6.56,-69.03zm227.46 -1009.6c29.5,-9.87 75.42,-38.03 92.5,-40.38 1.42,26.62 -5.24,49.97 -5.64,68.17 -0.71,32.24 -17,192.75 -25.52,218.63 -6.38,-3.76 -13.52,-4.78 -23.14,-7.24 -29.76,-7.61 -43.79,-25.97 -117.63,-10.39 -19.56,4.13 -25.71,9.92 -26.41,29.13 16.93,7.85 17.38,3.67 37.5,-0.26 42.22,-8.24 89.04,4.4 122.97,20.14 -0.63,15.8 -6.39,30.24 -8.49,45.02 -8.93,62.74 -7.15,152.78 -20.13,216.37 -7.75,38.01 -40.13,96.12 -57.43,130.66l-88.22 148.11c-2.73,4.81 -6.07,12.35 -8.59,16.45l-47.03 69.42c-30.44,45.6 -40.17,44.76 -56.11,63.73 -26.76,31.82 -11.03,11 -36.17,32.77 -36.91,31.96 -70.08,55.29 -124.1,64.89 -78.74,14 -104.1,-4.64 -162.59,-39.75l-58.13 -36.47c-8.37,-3.59 -9.64,-3.46 -17.11,-8.2l-21.85 -14.58c-0.64,-0.45 -1.5,-1.08 -2.12,-1.55l-82.14 -70.69c-0.52,-0.55 -1.26,-1.34 -1.77,-1.91 -7.22,-8.05 1.34,1.59 -3.29,-4.05 -27.28,-33.16 -31.8,-47.01 -44.35,-83.18 -26.57,-76.62 -14.97,-131.75 -15.58,-198.78 -0.2,-21.55 -4.79,-20.27 -1.47,-41.26l11.98 -115.33c0.92,-16.08 -1.45,-30.53 0.88,-46.85l9.34 -77.79c9.79,-51.34 16.89,-112.88 23.8,-161.4l20.62 -116.96c4.14,-38.77 15.65,-91.38 14.72,-121.31 -0.78,-25.31 13.11,-59.44 7.66,-87.3 15.18,16.19 23.29,19.14 40.32,29.59l95.5 53.88c1.02,0.5 3.86,2.13 4.84,2.67l31.04 16.56c16.64,7.76 33.32,15.67 46.89,21.94 40.7,18.79 32.97,10.63 48.87,16.1l47.74 22.35c17.13,6.37 31.73,6.83 53.07,11.4 67.6,14.47 175.71,36.99 238.97,15.9 19.28,-6.43 34.81,-4.62 56.85,-12.14l48.95 -16.11zm-903.42 1417.21c-22.67,-36.15 -50.03,-44.03 -73.11,-67.64 -10.03,-10.27 -23.33,-29.85 -31.72,-37.43 -15.88,-14.34 -23.82,-12.3 -39.13,-30.18 -19.33,-22.56 -46.46,-56.58 -48.7,-90.55 -2.94,-44.48 25.89,-61.39 53.68,-85.7 46.42,-40.62 43.06,-48.48 64.28,-74.15 21.84,-26.43 23.98,-68.56 36.11,-101.59 11.38,-31.02 12.81,-77.33 21.11,-109.26 9.58,-36.86 10.03,-82.72 14.53,-123.68 1.87,-17.05 5.25,-9.73 6.67,-29.11l8.01 -98.05c3.64,-87.18 2.51,-171.46 19.13,-257.41l23.6 -114.65c4.16,-28.81 15.95,-56.3 25.72,-79.9 3.26,-7.89 4.9,-17.85 6.66,-26.15 2.63,-12.38 4.82,-17.63 7.51,-28.49 9.61,-38.95 5.03,-28.17 10.43,-58.62 2.77,-15.59 5.12,-13.67 7.33,-24.95l13.85 -113.22c3.91,-37.14 5.6,-82.07 10.91,-124.9 22.14,3.96 75.18,36.42 98.16,49.13l97.77 51.36c42.25,16.93 174.93,85.37 204.26,93.79 19.59,5.62 34.16,15.55 54.34,21.86 20.09,6.29 37.05,12.47 56.26,16.55 25.16,5.34 42.49,8.24 69.86,8.68 36.46,0.58 128.35,-9.33 160.24,-20.57 28.25,-9.97 86.82,-35.41 113.74,-53.3 3.45,-2.3 4,-2.15 7.64,-6.5 -2.21,14.53 -13.72,14.37 -27.28,23.23 -89.25,58.26 -171.36,74.44 -276.2,71.74 -35.63,-0.92 -98.98,-8.02 -131.57,-19.77l-78.38 -23.85c-33.76,-6.76 -75.23,-30.95 -107.05,-45.03l-147.46 -85.27c-1.67,-1.02 -12.24,-8.41 -14.9,-10.44 -19.38,-14.79 -47.65,-37.06 -54.47,4.93l-17.26 130.17c-2.8,60.77 -19.73,115.48 -24.63,170.22l-12.8 80.5c-7.16,29.12 -9.62,62.2 -14.38,92.05 -9.13,57.35 -20.42,208.35 -24.41,272.66 -1.04,16.81 0.92,31.87 -0.39,43.57 -8.36,75.42 -1.74,194.93 36.04,259.54 14.63,25.02 34.87,51.07 55.63,71.7l12.49 13.17c13.14,13.01 43.36,29.66 60.35,41.23 23.29,15.85 39.67,28.79 61.59,40.18 31.27,16.24 59.09,37.63 90.3,51.67 8.36,3.76 0,0.11 7,3.9 59.95,32.38 144.72,18.66 200.67,-15.72 22.59,-13.88 41.79,-28.26 64.83,-38.03 0.71,43.96 -7.85,61.39 -8.36,90.9 -0.45,25.62 6.67,69.49 1.26,92.26 -25.58,-2.95 -58.46,-25.55 -85.67,-29.08 -15.49,-2.02 -11.91,0.1 -25.18,-3.95 -58.41,-17.79 -129.4,-9.34 -185.94,1.18 -48.5,9.03 -132.44,41.73 -169.64,67.24l-96.58 74.11c-27.27,23.46 -47.83,48.14 -69.46,75.98 -6.86,8.84 -7.12,9.8 -17.29,13.64zm264.79 -2007.65l-19.98 1.55 -38.65 3.99c-0.73,0.32 -70.38,18.53 -77.82,19.84l-18.25 5.65c-20.06,8 -43.52,14.23 -64.94,23.17l-6.31 4.24c-13.12,12.09 -35.95,18.32 -51.73,29.6 -93.35,66.75 -56.01,44.17 -131.56,111.97 -43.81,39.32 -86.29,116.23 -119.52,167.94l-41.62 81.88c-26.9,55.23 -91.76,242.9 -107.25,300.2 -9.28,34.36 -20.43,98.86 -33.45,128.93l-2.14 5.2 -30.03 130.02c-2.19,10.27 -22.12,80.91 -25.41,87.17l-20.48 85.86c-2.87,10.1 -3.98,14.5 -6.35,26.13 -7.12,34.83 -20.72,67.99 -30.72,104.24 -13.89,50.36 -20.75,62.18 -34.47,103.81 -5.12,15.54 -11.83,34.07 -18.12,50.61 -13.75,36.17 -44.28,107.65 -63.69,139.85 -32.36,53.71 -83.06,99.52 -129.65,139.21 -13.72,11.69 -25.12,18.41 -38.49,30.54l-161.86 143.55c-45.47,36.17 -102.41,119.56 -132.45,169.54 -51.81,86.19 -96.09,137.7 -134.03,240.12 -4.88,13.17 -5.35,10.95 -10.95,21.78 -34.03,65.83 -21.7,66.18 -34.53,100.54 -13.91,-2.19 -18.5,-6.87 -28.29,-13.13l-53.75 -33.6c-32.29,-17.88 -138.46,-39.2 -138.43,51.17 0.03,63.28 89.72,88.11 137.26,124.67 12,9.22 31.76,31.03 48.05,31.73l21.97 0.26c6.93,14.95 -0.83,6.54 11.59,17.42 13,11.38 11.32,2.18 15.36,19.2 3.76,13.17 19.91,21.66 31.54,28.55 13.66,8.1 19.73,19.83 36.47,22.21l-7.4 -19.46c-0.41,-0.63 -1.1,-1.44 -1.52,-2.05 -0.43,-0.61 -1.08,-1.46 -1.51,-2.07 -15.68,-22.03 -22.02,-22.26 -38.67,-37.23 -1.38,-1.24 -3.95,-3.63 -5.53,-5.17 -41.76,-40.87 -43.15,-37.01 -75.08,-66.74 -19.59,-18.24 -81.73,-56.4 -105.94,-68.86 -14.07,-7.23 -17.13,-5.57 -26.76,-16.57l-8.15 -13.22c-9.26,-27.94 1.93,-56.85 51.04,-51.07 7.71,0.91 27.64,4.85 34.4,8.56l79.67 51.66c87.78,40.63 34.46,11.95 107.39,66.88 23.53,17.72 130.26,76.19 161.73,99.93 6.29,4.74 16.42,13.39 22.23,21.5l46.26 84.4 -70.67 38.26c-39.81,16.55 -44.19,33.39 -63.69,40.52 -11.87,-14.76 -16.75,-29.85 -19.1,-54.08 5.07,-2.22 18.74,-10.94 9.13,-3.52 -2.34,-3.47 5.36,-8.29 -24.98,-5.21 -7.05,27.97 -9.98,33.69 -1.16,59.38 12.23,35.63 20.35,10.37 3.87,48.64 -6.36,14.77 -8.31,47.08 0.69,63.56 6.43,11.79 24.65,31.59 36.64,36.49 19.18,7.84 39.56,14.3 61.98,7.08 7.11,-2.28 19.03,-7.33 27.82,-10.03l52.21 -19.66c19.1,-6.11 27.25,-14.99 43.2,-29.2 9.22,-8.21 9.07,-11.3 21.4,-15.01 -13.01,-12.83 -9.16,-3.07 -7.72,-9.21l6.39 -7.79c-37.11,-22.49 -15.72,11.8 -108.85,45.23 -29.59,10.62 -39.03,18.91 -67.01,13.01 -26.73,-5.63 -39.1,-20.16 -39.31,-45.68 -0.26,-33.7 12.95,-38.95 34.65,-53.9l104.34 -73.05c28.38,-15.28 29.3,-3.71 47.37,-25.55 0.39,25.33 -3.68,12.41 7.59,25.2 21.66,24.56 56.35,62.37 43.59,98.15 -20.56,57.67 -20.43,99.11 -40.45,137.9 -2.95,5.72 -3.94,6.04 -7.28,11.04 -3.38,5.06 -2.45,4.18 -5.55,8.96 -9.52,14.75 -20.88,20.68 -33.44,28.07 -12.59,7.4 -6.37,4.74 -15.23,13.48 -49.83,3.67 -65.14,-15.77 -109.06,-8.39 -0.71,-0.73 -1.55,-1.78 -2.04,-2.29l-4.06 -4.28c-0.79,-0.75 -3.11,-2.93 -3.94,-3.62 -30.59,-25.6 -42.3,-46.29 -83.43,-83.9 -17.78,-16.26 -20.98,-18.84 -37.07,-20.05 -1.05,19.1 3.83,18.9 12.33,30.5 17.26,23.54 81.67,89.74 105.48,98.17l25.71 10.64c8.77,4.77 21.28,6.32 32.79,7.37 -7.64,5.68 -9.74,7.08 -16.68,13.93 -36.41,-1.68 -79.21,-22.2 -93.77,-21.76 -23.25,4.18 -10.32,-10.38 -46.04,-9.7 -3.51,20.86 1.85,4.01 13.91,24.51 -8.12,6.3 -7.15,23.49 -54.76,8.87 -12.35,-3.79 -21.92,-2.79 -31.79,-5.75 -9.46,-2.84 -12.53,-7.51 -24.26,-10.42 -44.24,-10.99 -96.07,-38.19 -108.66,-39.85 -0.3,0.74 -0.57,1.31 -0.59,2.31 -0.01,0.85 -0.43,1.77 -0.43,1.98l1.02 3.58c-15.8,-7.49 -2.54,-14.93 -22.62,-18.43 2.66,17.18 0.56,2.98 -6.46,8.85 -24.58,-20.86 -4.5,-20.43 -21.1,-40.45 -16.88,-20.35 -26.79,-73.4 -27.1,-82.99 -0.63,-18.97 31.18,-55.5 45.71,-67.97l6.1 -3.84c0.3,-0.19 1.26,-0.53 1.57,-0.74l3.28 -2.24c7.22,-7.42 13.99,-33.59 9.71,-17.13 -4.41,-3.43 -5.67,-4.53 -8.49,-5.22 -6.53,-1.58 -0.58,-1.17 -10.07,-0.25 -7.9,2.6 -31.42,32.35 -40.39,42.13 -14.38,15.67 -23.43,33.06 -24.68,58.9 -19.88,2.2 -40.85,34.94 -53.17,52.13 -13.32,18.61 -28.82,45.51 -38.93,66.4 -12.29,25.4 -16.11,54.19 -23.12,81.52 -4.27,16.68 -8.1,20.63 -10.92,40.76 -4.01,28.61 -25.47,97 -21.5,135.29 5.03,48.57 29.54,110.83 74.81,136.32 14.42,8.11 80.72,7.03 102.1,7.3 48.37,0.62 96.03,37.34 183.17,8.51 39.87,-13.18 69.87,-30.99 98.31,-57.85 19.41,-18.33 23.03,-27.38 31.36,-48.71 1.96,-5.03 6.7,-13.13 8.38,-16.41 9.16,-17.95 4.72,-27.39 6.22,-48.34 9.19,-128.27 7.28,-68.63 59.81,-137.04 16.87,-21.97 69.75,-5.82 67.65,-55.29 31.89,4.1 34.98,-1.87 58.8,-2.91 9.13,39.22 4.16,61.43 18.25,116.8 8.21,32.26 8.72,94.55 10.73,132.17 2.71,50.81 -2.23,89.65 -10.23,131.65 -7.52,39.47 -31.31,126.72 -48.33,167.45 -16.1,38.53 -19.76,65.59 -25.2,80.51 -3.96,10.86 -6.41,6.99 -11.04,24.57l-37.52 104.82c-6.06,16.56 -13.51,36.8 -18.28,54.45 -5.29,19.63 -28.88,92.96 -40.7,104.76 -1.59,20.52 -5.72,22.86 -10.92,40.7l39.67 0c5.5,-19.12 11.14,-36.26 16.54,-56.82 6.99,-26.62 31.83,-77.21 41.89,-111.75l36.72 -111.59c7.43,-16.89 13.86,-38.06 20.49,-56.63 23.19,-64.95 57.77,-162.2 71.26,-230.17 15.2,-76.6 10.85,-63.17 12.05,-141.96l-2.25 -69.02c-0.94,-23.43 -8.76,-35.55 -9.25,-65.46 -0.52,-32.01 -16.72,-102.12 -26.69,-127.26 16.16,-23.44 46.26,-38.42 56.18,-103.5 7.98,-52.35 24.8,-71.07 27.86,-133.12 19.64,-8.01 18.96,-10.61 34.09,-23.9 4.46,-3.91 10.66,-8.98 15.26,-13.95l8.15 -9.91c22.25,-26.85 14.56,-22.75 30.38,-46.12 6.65,-9.83 18.5,-24.31 26.33,-35.25 18.56,-25.97 33.35,-41.37 52.18,-71.22 7.78,-12.34 13.56,-32.72 19.98,-42.68 5.85,-9.05 21.71,-30.9 29.31,-34.75 -2.82,32.85 -9.22,65.49 -13.84,98.47l-23.4 194.82c-4.78,21.34 -7.22,105.6 -13.63,153.14 -2.34,17.33 -0.45,34.53 -2.67,52.17 -3.68,29.45 -5.09,70.25 -4.73,103.05 1.92,174.53 -16.69,128.19 46.94,282.97l84.02 188.53c5.5,9.25 9.79,29.71 15.45,42.86 8.09,18.79 23.51,58.94 28.48,79.73 4.9,20.5 9.09,27.03 13.03,42.3 4.23,16.4 7.94,27.14 12.22,45.96 14.8,65 24.04,125.93 20.7,201.06l36.64 0c-1.4,-55.54 0.42,-112.71 -13.42,-161.06l-16.76 -70.08c-9.22,-31.05 -0.41,-27.86 -17.82,-71.2 -20.43,-50.85 -33.23,-108.97 -60.66,-156.48 -15.34,-26.57 -55.32,-138.8 -80.75,-185.02 -16.51,-29.99 -31.27,-59.82 -31.47,-97.54l-0.31 -174.79c-0.03,-30.32 5.2,-47.53 5.26,-79.93 0.14,-78.01 11.86,-167.85 20.23,-246.83 2.5,-23.61 7.59,-54.05 9.41,-76.59 1.72,-21.25 4.28,-24.88 6.84,-37.5 7.46,-36.69 5.54,-78.56 15.74,-114.48 14.84,-52.26 20.25,-179.13 30.74,-232.12 15.14,-76.45 -4.16,-157.67 -21.45,-232.82l-26.5 -60.44c-5.89,-10.57 -10.91,-18.24 -16.73,-27.29l-36.63 -50 -65.17 -44.1c-3.98,-2.65 -8.21,-6.24 -12.75,-9.3 -12.8,-8.62 -47.33,-20.65 -65.7,-22.64 -6.63,-0.72 -72.73,-11.97 -76.42,-13.36 1.77,-13.31 7.4,-10.61 17.95,-21.22l108.18 -95.14c7.07,-5.53 2.84,-0.63 10.44,-8.1l23.16 -20.13c3.59,-2.59 6.88,-6.13 11.32,-10.78 57.31,-60.08 29.61,-17.19 84.33,-97.32l51.74 -96.54c4.57,-12.03 7.78,-15.27 13.56,-26.62 6.81,-13.37 4.27,-19.13 8.51,-33.25 1.06,-3.51 10.16,-15.81 18.41,-42.59 2.41,-7.85 1.78,-9.72 4.71,-17.21l67.99 -218.19c12.61,-33.4 17.01,-66.27 26.65,-100.7 8.37,-29.87 11.87,-36.99 10.49,-73.31 7.33,-16.64 1.04,1.83 9.48,-12.28 3.79,-6.35 3.69,-9.07 5.28,-16.99 4.89,-24.26 6.12,-10.83 11.07,-31.81l17.95 -73.42c4.7,-30.36 7.91,-43.54 17.32,-69.78 4.17,-11.6 5.95,-21.53 8.34,-35.45 4.52,-26.46 13.75,-46.9 18.91,-72.6 3.64,-18.15 6.75,-15.05 12.32,-30.71l31.79 -102.78c10.85,-27.67 23.21,-70.53 39.45,-97.81 13.88,-23.34 50.18,-91.3 59.68,-118.46 4.81,-13.74 17.2,-27.7 24.82,-40.78l19.7 -27.78c3.81,-6.48 1.24,-2.25 4.36,-6.89 5.39,-8.02 11.53,-21.84 23.51,-34.76 14.17,-15.3 12.18,-20.49 29.1,-36.44 0.48,-0.46 10.04,-10.76 10.54,-11.29l48.27 -43.27c11.39,-8.13 13.77,-13.03 22.44,-20.32 10.08,-8.48 16.88,-8.19 29.06,-18.49 46.71,-39.52 69.25,-37.99 115.72,-62.65 25.51,-13.54 112.28,-33.5 142.67,-34.74 83.93,-3.41 172.49,0.33 252.18,15.61 8.44,1.62 10.54,1.62 18.57,3.96l57.02 12.01c44.73,14.71 90.36,22.16 134.29,44.3 11.97,6.04 20.86,8.26 31.01,12.85l92.36 56.37c6.85,5.99 -1.47,-0.1 5.81,4.86 6.06,4.13 6.16,1.92 13.79,8.12l65.12 62.17c24.45,20.67 94.93,152.24 97.78,183.05 -0.66,0.65 -1.75,0.64 -2.07,1.84l-42.79 30.22c-31.09,21.41 -73.18,36.17 -109.08,43.87 -22.02,4.73 -38.42,13.04 -61.77,17.31 -41.72,7.63 -91.98,1.63 -135.56,-5.14 -35.27,-5.47 -85.49,-22.47 -116.68,-38.83l-52.79 -23.83c-17.46,-8.73 -35.35,-14.83 -51.94,-24.13l-65.11 -29.12c-6.82,-2.63 -1.77,-0.07 -7.85,-3.03l-78.99 -38.71c-0.79,-0.35 -1.7,-0.83 -2.46,-1.2l-4.64 -2.59c-11.29,-6.25 -15.42,-9.69 -25.25,-14.34l-49.07 -26.32c-27.33,-13.22 -50.78,-32.79 -78.1,-42.12 -3.56,1.77 -4.58,1.6 -9.15,5.12 -11.54,8.92 -16.31,22.97 -19.06,35.1 -5.44,23.93 -8.97,109.45 -9.57,137.87 -0.36,16.93 0.51,16.17 -5.34,29.3l-11.16 99.34c-2.28,14.3 -4.63,14.35 -7.33,27.82l-12.86 49.11c-0.64,1.52 -2.62,6.53 -3.22,7.84 -9.81,21.43 -8.19,4.36 -11.85,23.19l-15.74 56.78c-8.84,38.31 -16.4,80.78 -24.69,118.36l-15.97 129.42c-6.13,55.16 -2.09,118.56 -7.98,174.59l-29.76 245.78c-9.02,39.28 -9.19,80.04 -26.4,114.8l-4.27 10.29c-4.85,12.88 -7.34,13.63 -11.72,24.42 -13.77,33.91 -1.95,41.04 -48.58,79.19l-28.61 25.97c-9.93,9.58 -19.94,16.02 -27.05,26.92l-20.43 34.84c-26.61,52.91 19.76,115.41 53.56,153.34l37.4 35.18c12.01,12.58 24.54,28.91 34.7,38.17l39.72 33.26c12.82,8.5 23.16,24.12 34.71,36.07 -2.73,15.75 -3.63,13.58 -10.19,24.86l-15.36 24.15c-11.6,11.96 -5.15,7.84 -12.95,23.72 -2.9,5.9 -10.78,18.42 -15.02,24.9 -10.32,15.77 -5.72,3.35 -10.46,24.82 -6.03,27.3 -27.1,55.53 -33.08,84.28 -4.42,21.23 -9.49,41.98 -14.94,61.99 -3.55,13.02 -6.07,14.99 -8.71,27.07 -8.21,37.71 -16.77,145.42 -14.11,180.55 1.25,16.6 3.92,14.74 4.47,32.53 0.43,13.54 0.25,26.5 1.02,40.25 0.92,16.69 21.9,109.88 28.85,123.72 12.6,25.11 20.38,54.86 32.7,79.5 12.72,25.44 3,26.53 25.37,51.16 4.95,5.46 10.31,16.99 15.1,24.92 46.21,76.51 34.73,41.58 50.99,65.78 18.03,26.85 11.9,9.88 37.37,38.81 12.74,14.47 9.96,4.06 22.88,17.2 28.17,28.65 71.16,45.09 105.5,65l41.86 15.57c91.42,16.92 104.77,29.43 210,18.83 24.31,-2.44 95.51,-25.58 117.67,-33.93l53.21 -23.84c25.77,-15.04 71.79,-43.86 90.47,-61.81 12.64,-12.15 29.34,-21.18 41.38,-34.77 31.62,-35.74 34.64,-26.86 74,-78.86l21.71 -28.96c0.65,-0.84 2.37,-3.29 3.1,-4.12 11.55,-13.27 -1.6,-5.05 14.81,-11.49 -1.33,100.73 1.02,38.95 -21.77,99.49 -13.27,35.24 -30.09,34.42 -31.76,88.28 -1.2,38.64 4.42,102.51 12.26,137.67 2.42,10.84 4.16,9 7.76,20.04 6.38,19.61 15.52,28.13 14.16,50.62 -13.79,6.37 -11.75,-0.14 -24.9,11.04l-41.49 31.25c-8.36,7.53 -12.46,10.9 -19.31,16.89l-19.94 16.35c-29.56,34.34 -16.57,10.98 -35.37,37.87 -11.25,16.09 -26.69,24.36 -36.43,39.49l-46.46 84.51c-8.64,12.66 -9.71,25.42 -16.58,38.01 -18.68,34.25 -41.19,139.93 -46.18,179.9 -3.64,29.15 -11.64,32.61 -13.55,59.97l-7.31 33.95c-4.98,15 -6.36,83.81 -6.61,100.62 -0.63,42.34 8.76,93.34 12.7,135.14 2.76,29.29 -1.88,46.28 -1.57,72l32.03 0 4.21 -43.87c3.85,-101.2 -27.29,-144.88 0.83,-268.83 4.39,-19.36 4.85,-43.44 8.92,-64.19 8.82,-45 29.3,-139.47 49.24,-169 8.82,15.19 20.1,47.45 40.98,83.05l39.21 55.28c9.26,9.12 6.95,7.22 24.95,8.22 59.32,3.29 100.08,-15.39 155.85,-30.34 20.14,-5.41 29.36,-14 44.39,-19.18 13.4,27.39 1.25,31.7 19.52,68.87 10.17,20.72 -3.93,22.84 49.31,107.35 25.32,40.17 56.06,68.84 90.72,94.98l39.81 22.44c24.62,12.64 67.7,27.48 94.29,29.75 75.75,6.49 146.04,11.85 223.59,-11.45l104.41 -23.84 0 -43.94c-16.81,3.89 -75.01,20.14 -90.87,26.73 -67.15,27.9 -229.06,31.34 -307.27,-5.71 -63.57,-30.11 -118.71,-83.15 -146.79,-147.47 -17.04,-39.03 -40.02,-92.39 -40.15,-137.82 12.23,-8.57 21.02,-8.42 31.95,-18.68 35.39,-33.21 72.02,-71.68 96.82,-113.73 45.19,-76.61 16.73,-97.65 41.9,-118.56 92.61,-76.94 38.03,-113.03 90.27,-171.15 25.68,-28.58 56.82,-77.08 6.62,-101.38 -1.01,-8.5 -2.21,-12.96 -0.88,-21.54 3.17,-20.56 3.38,-0.6 10.42,-10.18 30.47,-41.46 -24.55,-90.42 -27.22,-95.52 10.58,-26.57 28.71,-60.73 1.81,-84.7 -18.18,-16.22 -48.91,-33.79 -70.6,-42.33 1.75,-19.7 28.08,-64.14 37.25,-83.01 14.82,-30.51 26.63,-59.3 21.1,-101.08 -25.45,-14.81 -5.8,-35.9 -89.99,-44.74 -2.72,-44.07 -1.14,-93.91 -1.5,-138.58 -0.34,-42.29 -4.96,-92.53 -3.48,-130.76l-3.85 -269.04c-3.76,-63.24 -7.11,-65.6 11.87,-119.13 7,-19.76 20.69,-95.49 28.23,-107.06 11.62,-17.83 28.19,-11.99 9.67,-40.69 -4.52,-6.99 -14.51,-76.28 -26.06,-112.47 -2.66,-8.31 -5.62,-15.16 -9.71,-22.8 -6.44,-12.05 -5.54,-12.97 -9.97,-23.97l-4.62 -8.75c-17.74,-3.67 -9.16,-4.68 -21.14,-15.23 -4.24,-3.74 -7.43,-5.6 -9.91,-8.04 -5.7,-5.6 -0.67,-2.51 -8.5,-9.66 -11.18,-10.2 -46.91,-19.35 -47.77,-21.62 -4.72,-12.47 6.22,-69.27 8.44,-87.23l0.72 -3.61 5.16 -43.64 1.86 -15.96c5.51,-27.36 6.3,-58.27 11.78,-82.89 13.03,-58.61 5.26,-36.92 11.85,-83.09 2.27,-15.92 19.04,-151.21 20.21,-153.27l0.18 -3.1 3.13 -42.94 2.93 -16.98 11.46 -148.4c0.86,-221.2 21.52,-230.11 -36.78,-457.66 -2.3,-2.3 -2.38,2.81 -6.47,-8.64 -2.52,-7.08 -1.35,-6.6 -1.15,-13.92 -5.95,-10.12 -4.37,-14.84 -9.63,-25.48 -17.76,-35.98 -14.11,-20.02 -30.51,-62.23l-13.25 -10.53 0.32 -10.56c-10.96,-9.38 -10.72,-15.28 -20.02,-27.88l-65.28 -69.06c-11.6,-10.12 -14.83,-11.98 -26.85,-20.26 -13.17,-9.08 -7.52,-10.37 -23.01,-20.87 -9.83,-6.67 -20.65,-11.59 -29.55,-17.79 -9.53,-6.64 -16.45,-12.52 -24.82,-18.57 -12.34,-3.07 -20.41,-8.32 -30.26,-13.46 -9.83,-5.14 -2.36,-2.16 -15.27,-6.99 -29.98,-11.21 -16.97,-9.1 -38.18,-19.48l-93.62 -29.32c-17.87,-5.59 -44.41,-11.26 -64.85,-16.38 -64.46,-16.14 -226.67,-38.3 -286.87,-27.65z"/>
  <path class="fil2" d="M2385.47 1906.71c-88.77,8.16 -57.9,-5.31 -150.6,28.06 -28.53,10.27 -88.64,47.67 -113.85,68.25 -33.66,27.47 -65.12,55.29 -91.49,90.41 -26.82,35.72 -72.76,113.23 -86.04,157.87 -13.11,44.05 -34.96,80.13 -39.84,147.69 -6.96,96.42 -13.37,101.76 7.37,212.74 12.41,66.38 35.34,116.84 69.07,174.87 9.24,15.9 15.14,19.31 25.19,33.16 64.09,88.28 172.36,144.28 282.68,148.05 71.13,2.43 142.67,-20.34 195.32,-46.37 86.06,-42.56 135.84,-102.92 190.76,-172.74 27.09,-34.44 71.84,-124.6 80.69,-162.27 7.84,-33.4 23.05,-66.48 18.38,-102.38 -8.79,-67.61 -13.83,-144.6 -23.31,-215.77l-11.85 -109.34c-3.63,-23.11 -30.64,-62.04 -42.22,-80.65 -33.99,-54.62 -69.43,-83.72 -122.25,-121.11 -37.57,-26.59 -131.96,-55.62 -188.01,-50.47z"/>
  <path class="fil3" d="M2332.52 1314.03c22.03,0.94 22.11,-2.44 40.81,7.09l16.46 9.49c2.18,1.6 11.26,9.52 12.45,10.46 0.02,15.41 -1.48,25.99 -2.92,36.72 -4.74,35.23 -9.24,44.66 -28.48,53.45 -12.53,5.72 -16.49,10.44 -30.41,12.94 -61.25,11.01 -108.07,-22.15 -134.14,-72.44 -7.63,-14.73 -5.58,-22.38 -6.15,-35.51 -0.25,-5.84 -5.16,-5.53 4.88,-26.41 15.72,-32.73 42.28,-47.45 80.71,-35.64 20.35,6.25 37.28,19.98 46.79,39.85zm416.19 -226.88c1.14,-61.08 14.4,-38.36 17.92,-64.55 -37.47,-9.08 -30.24,32.83 -68.85,28.5 -6.75,-28.25 20.3,-39.24 27.16,-51.76 -7.3,-8.57 -23.45,-9.02 -4.5,-40.15 29.42,0.9 22.17,27.33 80.96,35.05 7.35,0.97 71.8,-12.75 55.22,20.56 -3.45,6.93 -15.5,12.03 -15.5,12.02 -0.48,-0.79 -1.93,0.96 -2.79,1.6 4.48,34.56 23.71,40.41 2.22,67.16 -36.05,-12.49 -16.31,-62.85 -47.26,-66.71 -7.65,14.31 -13.62,49.63 -44.58,58.28zm-565.93 -198.04c8.35,-10.07 22.96,-19.73 35.62,-28.4 11.71,-8.02 35.32,-12.3 48.22,-17.31 32.68,-12.69 78.43,-8.21 109.92,1.96 32.59,10.53 55.65,25.21 77.7,49.55 5.28,5.83 8.69,11.29 14.16,18.36 9.38,12.14 5.22,3.69 10.96,21.84 7.94,25.08 5.37,23.45 -3.04,34.44 -1.53,1.99 -4.58,6.17 -5.55,7.97 8.54,4.6 16.07,6.62 19.38,18.18 -31.27,20.78 -108.94,-13.43 -143.98,-17.62 -25.88,-3.09 -49.95,-8.91 -75.3,-15.6 -13.46,-3.55 -61.49,-10.51 -70.17,-14.83 -19.54,-1.31 -26.71,-1.37 -37.29,-10.17l-5.82 -20.75c6.27,-3.2 12.58,-3.93 16.34,-9.35 4.57,-6.6 0.06,-8.58 8.85,-18.27zm382.28 355.51c3.08,-18.71 6.87,-35.81 11.03,-55.51 7.44,-35.25 11.31,-99.44 14.53,-116.06 2.33,-12.02 4.29,-11.22 5.84,-26.47 1.22,-12.08 1.52,-19.63 3.32,-30.36l19.56 -110.44c1.18,-8.37 2.96,-19.31 5.1,-27.63 2.42,-9.47 2.32,-18.59 4.68,-27.36 5.52,-20.53 25.28,-22.69 30.83,-6.2 6.25,18.57 -29.16,184.6 -31.66,216.5 -3.33,42.65 -22.56,192.87 -38.52,216.77 -31.88,6.16 -71.24,2.75 -97.85,-6.2 -39.29,-13.21 -67.55,-13.84 -73.36,-32.39 20.21,-21.19 85.67,4.11 146.5,5.35zm-340.78 -483.4c-3.93,-23.69 12.13,-29.98 28.08,-32.98 46.4,-8.75 116.19,-6.76 161.84,10.76l82.89 44.15c96.52,61.78 70.46,104.01 44.08,79.66l-62.63 -50.36c-21.84,-16.7 -4.97,7.03 -48.54,-27.74 -21.42,-17.1 -68.09,-27.11 -98.28,-28.16 -90.54,-3.12 -66.83,21.58 -107.44,4.67zm664.12 109.8c-33.93,-15.74 -80.75,-28.38 -122.97,-20.14 -20.12,3.93 -20.57,8.11 -37.5,0.26 0.7,-19.21 6.85,-25 26.41,-29.13 73.84,-15.58 87.87,2.78 117.63,10.39 9.62,2.46 16.76,3.48 23.14,7.24 8.52,-25.88 24.81,-186.39 25.52,-218.63 0.4,-18.2 7.06,-41.55 5.64,-68.17 -17.08,2.35 -63,30.51 -92.5,40.38l-48.95 16.11c-22.04,7.52 -37.57,5.71 -56.85,12.14 -63.26,21.09 -171.37,-1.43 -238.97,-15.9 -21.34,-4.57 -35.94,-5.03 -53.07,-11.4l-47.74 -22.35c-15.9,-5.47 -8.17,2.69 -48.87,-16.1 -13.57,-6.27 -30.25,-14.18 -46.89,-21.94l-31.04 -16.56c-0.98,-0.54 -3.82,-2.17 -4.84,-2.67l-95.5 -53.88c-17.03,-10.45 -25.14,-13.4 -40.32,-29.59 5.45,27.86 -8.44,61.99 -7.66,87.3 0.93,29.93 -10.58,82.54 -14.72,121.31l-20.62 116.96c-6.91,48.52 -14.01,110.06 -23.8,161.4l-9.34 77.79c-2.33,16.32 0.04,30.77 -0.88,46.85l-11.98 115.33c-3.32,20.99 1.27,19.71 1.47,41.26 0.61,67.03 -10.99,122.16 15.58,198.78 12.55,36.17 17.07,50.02 44.35,83.18 4.63,5.64 -3.93,-4 3.29,4.05 0.51,0.57 1.25,1.36 1.77,1.91l82.14 70.69c0.62,0.47 1.48,1.1 2.12,1.55l21.85 14.58c7.47,4.74 8.74,4.61 17.11,8.2l58.13 36.47c58.49,35.11 83.85,53.75 162.59,39.75 54.02,-9.6 87.19,-32.93 124.1,-64.89 25.14,-21.77 9.41,-0.95 36.17,-32.77 15.94,-18.97 25.67,-18.13 56.11,-63.73l47.03 -69.42c2.52,-4.1 5.86,-11.64 8.59,-16.45l88.22 -148.11c17.3,-34.54 49.68,-92.65 57.43,-130.66 12.98,-63.59 11.2,-153.63 20.13,-216.37 2.1,-14.78 7.86,-29.22 8.49,-45.02z"/>
  <path class="fil4" d="M810.57 4063.99l623.05 0c3.34,-75.13 -5.9,-136.06 -20.7,-201.06 -4.28,-18.82 -7.99,-29.56 -12.22,-45.96 -3.94,-15.27 -8.13,-21.8 -13.03,-42.3 -4.97,-20.79 -20.39,-60.94 -28.48,-79.73 -5.66,-13.15 -9.95,-33.61 -15.45,-42.86l-84.02 -188.53c-63.63,-154.78 -45.02,-108.44 -46.94,-282.97 -0.36,-32.8 1.05,-73.6 4.73,-103.05 2.22,-17.64 0.33,-34.84 2.67,-52.17 6.41,-47.54 8.85,-131.8 13.63,-153.14l23.4 -194.82c4.62,-32.98 11.02,-65.62 13.84,-98.47 -7.6,3.85 -23.46,25.7 -29.31,34.75 -6.42,9.96 -12.2,30.34 -19.98,42.68 -18.83,29.85 -33.62,45.25 -52.18,71.22 -7.83,10.94 -19.68,25.42 -26.33,35.25 -15.82,23.37 -8.13,19.27 -30.38,46.12l-8.15 9.91c-4.6,4.97 -10.8,10.04 -15.26,13.95 -15.13,13.29 -14.45,15.89 -34.09,23.9 -3.06,62.05 -19.88,80.77 -27.86,133.12 -9.92,65.08 -40.02,80.06 -56.18,103.5 9.97,25.14 26.17,95.25 26.69,127.26 0.49,29.91 8.31,42.03 9.25,65.46l2.25 69.02c-1.2,78.79 3.15,65.36 -12.05,141.96 -13.49,67.97 -48.07,165.22 -71.26,230.17 -6.63,18.57 -13.06,39.74 -20.49,56.63l-36.72 111.59c-10.06,34.54 -34.9,85.13 -41.89,111.75 -5.4,20.56 -11.04,37.7 -16.54,56.82z"/>
  <path class="fil3" d="M639.49 2475.32c0.63,0.78 1.63,0.94 1.97,2.29l84.72 57.87c55.04,27.79 41.02,20.87 88.69,56.79 15.34,11.55 51.38,16.27 84.92,60.82 11.1,14.75 19.44,29.14 27.79,44.09 9.02,16.14 5.54,10.22 10.14,27.58 2.08,7.87 2.08,5.63 3.75,13.13 4.19,18.79 -5.19,-2.29 2.11,12.71l32.04 2.14c17.47,30.39 6.44,10.21 33.71,30.72 19.05,14.32 27.57,42.88 38.97,52.59 11.88,-3.77 35.55,-37.86 44.72,-50.54 20.84,-28.83 35.69,-58.02 57.65,-84.21l39.61 -54.98c14.17,-20.91 11.6,-28.69 24.38,-44.43 13.71,-16.88 32.64,-58.38 40.35,-79.26 13.25,-35.9 42.53,-45.01 45.34,-141.94 0.41,-14.29 -3.63,-32.08 -2.61,-39 1.13,-7.68 2.56,-3.72 4.55,-15.98 4.01,-24.66 -5.75,-15.34 -0.72,-33.99 7.5,-27.79 -3.67,-78.85 -9.22,-107.92 -4.64,-24.31 -13.87,-56 -20.59,-73.45 -7.18,-18.66 -9.05,-11.21 -17.62,-29.69 -17.94,-38.65 -0.48,-12.94 -25.66,-43.84l-30.37 -31.02c-29.61,-24.05 -35.95,-27.17 -66.57,-39.01 -16.15,-6.24 -9.07,-9.13 -32.14,-14.78 -27.88,-6.83 -42.05,-19.12 -76.51,-18.99 -30.04,0.11 -26.12,-5.07 -45.18,-6.61 -0.12,0.15 -56.81,47.5 -81.82,80.31l-37.37 46.18c-0.48,0.55 -1.28,1.27 -1.77,1.82l-30.56 49.7c-6.62,13.18 -14.28,19.44 -21.54,32.87 -8.77,16.24 -9.62,24.18 -20.52,37.63 -61.39,75.71 -50.37,90.55 -82.51,139.25l-34.17 75.59c-13.95,33.26 -24.08,76.46 -27.96,85.56z"/>
  <path class="fil5" d="M2108.66 1685.22c16.47,-1.62 19.08,0.84 30.82,7.84 13.84,8.25 14.72,2.51 15.36,20.15 -15.7,6.09 -20.01,1.19 -30.28,-4.47 -20.85,-11.51 -17.3,-1.8 -15.9,-23.52zm-154.43 -166.02c-3.31,-17.21 10.16,-40.63 34.32,-2.39 14.82,23.47 28.91,48.55 47.75,61.37 49.54,33.75 -19.48,50.21 -43.26,10.25 -8.32,-13.99 -6.32,-20.18 -18.6,-35.73 -7.73,-9.81 -18.63,-25.3 -20.21,-33.5zm-23.88 491.23c10.17,-3.84 10.43,-4.8 17.29,-13.64 21.63,-27.84 42.19,-52.52 69.46,-75.98l96.58 -74.11c37.2,-25.51 121.14,-58.21 169.64,-67.24 56.54,-10.52 127.53,-18.97 185.94,-1.18 13.27,4.05 9.69,1.93 25.18,3.95 27.21,3.53 60.09,26.13 85.67,29.08 5.41,-22.77 -1.71,-66.64 -1.26,-92.26 0.51,-29.51 9.07,-46.94 8.36,-90.9 -23.04,9.77 -42.24,24.15 -64.83,38.03 -55.95,34.38 -140.72,48.1 -200.67,15.72 -7,-3.79 1.36,-0.14 -7,-3.9 -31.21,-14.04 -59.03,-35.43 -90.3,-51.67 -21.92,-11.39 -38.3,-24.33 -61.59,-40.18 -16.99,-11.57 -47.21,-28.22 -60.35,-41.23l-12.49 -13.17c-20.76,-20.63 -41,-46.68 -55.63,-71.7 -37.78,-64.61 -44.4,-184.12 -36.04,-259.54 1.31,-11.7 -0.65,-26.76 0.39,-43.57 3.99,-64.31 15.28,-215.31 24.41,-272.66 4.76,-29.85 7.22,-62.93 14.38,-92.05l12.8 -80.5c4.9,-54.74 21.83,-109.45 24.63,-170.22l17.26 -130.17c6.82,-41.99 35.09,-19.72 54.47,-4.93 2.66,2.03 13.23,9.42 14.9,10.44l147.46 85.27c31.82,14.08 73.29,38.27 107.05,45.03l78.38 23.85c32.59,11.75 95.94,18.85 131.57,19.77 104.84,2.7 186.95,-13.48 276.2,-71.74 13.56,-8.86 25.07,-8.7 27.28,-23.23 -3.64,4.35 -4.19,4.2 -7.64,6.5 -26.92,17.89 -85.49,43.33 -113.74,53.3 -31.89,11.24 -123.78,21.15 -160.24,20.57 -27.37,-0.44 -44.7,-3.34 -69.86,-8.68 -19.21,-4.08 -36.17,-10.26 -56.26,-16.55 -20.18,-6.31 -34.75,-16.24 -54.34,-21.86 -29.33,-8.42 -162.01,-76.86 -204.26,-93.79l-97.77 -51.36c-22.98,-12.71 -76.02,-45.17 -98.16,-49.13 -5.31,42.83 -7,87.76 -10.91,124.9l-13.85 113.22c-2.21,11.28 -4.56,9.36 -7.33,24.95 -5.4,30.45 -0.82,19.67 -10.43,58.62 -2.69,10.86 -4.88,16.11 -7.51,28.49 -1.76,8.3 -3.4,18.26 -6.66,26.15 -9.77,23.6 -21.56,51.09 -25.72,79.9l-23.6 114.65c-16.62,85.95 -15.49,170.23 -19.13,257.41l-8.01 98.05c-1.42,19.38 -4.8,12.06 -6.67,29.11 -4.5,40.96 -4.95,86.82 -14.53,123.68 -8.3,31.93 -9.73,78.24 -21.11,109.26 -12.13,33.03 -14.27,75.16 -36.11,101.59 -21.22,25.67 -17.86,33.53 -64.28,74.15 -27.79,24.31 -56.62,41.22 -53.68,85.7 2.24,33.97 29.37,67.99 48.7,90.55 15.31,17.88 23.25,15.84 39.13,30.18 8.39,7.58 21.69,27.16 31.72,37.43 23.08,23.61 50.44,31.49 73.11,67.64z"/>
  <path class="fil3" d="M624.45 2657.63c-9.77,-3.35 -4.34,1.08 -12.4,-6.27 -11.17,20.58 15.53,-9.2 -26.71,45.71 3.06,11.75 4.83,12.44 9.51,20.77 0.66,1.17 4.83,8.89 4.9,9.04l12.47 57.19c3.81,25.55 28.27,82.76 11.42,99.37 -44.81,33.45 -43.93,-145.2 -48.34,-149.19 -4.06,-3.68 -25.5,8.33 -30.52,11.81 -39.06,27.15 -34.35,32.23 -46.6,82.76 -1.89,7.79 -0.14,0.23 -1.65,9.18 -0.51,3.05 -1.45,7.21 -2.1,11.76l4.67 3.63c10.87,10.24 28.37,51.21 41.74,74.39 8.95,15.51 13.73,25.63 23.38,38.68 43.85,59.24 61.72,52.37 85.23,67.85 10.7,7.05 11.28,10.02 18.06,14.8 7.14,5.04 12.53,5.1 18.51,10.42 11.47,10.22 0.63,10.71 15.38,17.7 10.94,5.19 17.24,0.39 34.69,12.04l11.22 9.01c14.56,-0.44 57.36,20.08 93.77,21.76 6.94,-6.85 9.04,-8.25 16.68,-13.93 -11.51,-1.05 -24.02,-2.6 -32.79,-7.37l-25.71 -10.64c-23.81,-8.43 -88.22,-74.63 -105.48,-98.17 -8.5,-11.6 -13.38,-11.4 -12.33,-30.5 16.09,1.21 19.29,3.79 37.07,20.05 41.13,37.61 52.84,58.3 83.43,83.9 0.83,0.69 3.15,2.87 3.94,3.62l4.06 4.28c0.49,0.51 1.33,1.56 2.04,2.29 43.92,-7.38 59.23,12.06 109.06,8.39 8.86,-8.74 2.64,-6.08 15.23,-13.48 12.56,-7.39 23.92,-13.32 33.44,-28.07 3.1,-4.78 2.17,-3.9 5.55,-8.96 3.34,-5 4.33,-5.32 7.28,-11.04 20.02,-38.79 19.89,-80.23 40.45,-137.9 12.76,-35.78 -21.93,-73.59 -43.59,-98.15 -11.27,-12.79 -7.2,0.13 -7.59,-25.2 -18.07,21.84 -18.99,10.27 -47.37,25.55l-104.34 73.05c-21.7,14.95 -34.91,20.2 -34.65,53.9 0.21,25.52 12.58,40.05 39.31,45.68 27.98,5.9 37.42,-2.39 67.01,-13.01 93.13,-33.43 71.74,-67.72 108.85,-45.23l-6.39 7.79c-1.44,6.14 -5.29,-3.62 7.72,9.21 -12.33,3.71 -12.18,6.8 -21.4,15.01 -15.95,14.21 -24.1,23.09 -43.2,29.2l-52.21 19.66c-8.79,2.7 -20.71,7.75 -27.82,10.03 -22.42,7.22 -42.8,0.76 -61.98,-7.08 -11.99,-4.9 -30.21,-24.7 -36.64,-36.49 -9,-16.48 -7.05,-48.79 -0.69,-63.56 16.48,-38.27 8.36,-13.01 -3.87,-48.64 -8.82,-25.69 -5.89,-31.41 1.16,-59.38 30.34,-3.08 22.64,1.74 24.98,5.21 9.61,-7.42 -4.06,1.3 -9.13,3.52 2.35,24.23 7.23,39.32 19.1,54.08 19.5,-7.13 23.88,-23.97 63.69,-40.52l70.67 -38.26 -46.26 -84.4c-5.81,-8.11 -15.94,-16.76 -22.23,-21.5 -31.47,-23.74 -138.2,-82.21 -161.73,-99.93 -72.93,-54.93 -19.61,-26.25 -107.39,-66.88l-79.67 -51.66c-6.76,-3.71 -26.69,-7.65 -34.4,-8.56 -49.11,-5.78 -60.3,23.13 -51.04,51.07l8.15 13.22c9.63,11 12.69,9.34 26.76,16.57 24.21,12.46 86.35,50.62 105.94,68.86 31.93,29.73 33.32,25.87 75.08,66.74 1.58,1.54 4.15,3.93 5.53,5.17 16.65,14.97 22.99,15.2 38.67,37.23 0.43,0.61 1.08,1.46 1.51,2.07 0.42,0.61 1.11,1.42 1.52,2.05l7.4 19.46c-16.74,-2.38 -22.81,-14.11 -36.47,-22.21 -11.63,-6.89 -27.78,-15.38 -31.54,-28.55z"/>
  <path class="fil2" d="M2782.39 2600.12c-8.75,9.48 -4.68,7.78 -8,20.4 -10.97,41.58 -42.58,88.58 -63.7,125.04 -30.79,53.15 -58.24,79.41 -98.23,119.84 -9.89,10 -19.18,13.11 -30.29,24.15 -42.46,42.23 -121.92,76.07 -177.97,94.01 -34.65,11.08 -57.76,11.33 -95.44,13.02 -88.74,3.98 -180.47,-28.51 -245.8,-78.22 -37.94,-28.88 -29.74,-27.49 -44.15,-39.39 -44.06,-36.4 -52.93,-67.8 -71.45,-92.25 -29.49,-38.94 -10.92,-20.56 -27.64,-52.45 -17.99,-34.29 -43.83,-125.96 -47.21,-167.66 -8.51,-104.73 -6.84,-98.88 5.58,-189.61 7.59,-55.37 11.75,-51.45 22.45,-96.92 7,-29.71 22.45,-50.76 30.64,-77.79 8.74,-28.87 48.51,-85.3 66.48,-111.63 0.44,-0.64 0.98,-1.57 1.41,-2.22l41.28 -49.82c8.15,-8.24 18.46,-19.37 26.7,-27.73 17.33,-17.57 39.24,-33.1 57.41,-48.13 35.1,-29.05 93.39,-54.67 145.95,-71.95 59.88,-19.67 128.48,-20.28 193.99,-6.77 80.41,16.58 157.68,60.32 209.48,117.94 15.89,17.69 33.72,43.53 50.77,56.15 10.5,-41.04 -16.47,-72.76 -37.03,-113.68 -21.34,-42.48 -16.65,-26.68 -58.6,-61.22 -36.84,-30.33 -21.96,-14.32 -46.62,-29.52 -32.97,-20.31 -112.73,-42.24 -152.12,-45.36 -23.51,-1.87 -46.52,-1.85 -70.75,-0.48 -77.22,4.35 -65.34,2.91 -131.8,25.4 -73.34,24.81 -78.94,40.76 -118.19,59.55 -14.72,7.05 -82.95,64.28 -96.68,78.44 -11.3,11.64 -33.26,42.82 -52.65,59.21l-0.27 30.1c-14.02,8.96 -18.91,2.98 -28.85,14.27l-43.26 80.31c-6.88,15.25 -9.37,12.64 -15.95,28.05 -4.21,9.89 -4.4,18.82 -8.7,31.56 -3.5,10.39 -7.89,14.71 -11.8,27.59l-19.36 63.78c-22.8,80.62 -30.72,211.79 -15.63,287.88 20.72,104.54 45.65,196.91 116.38,283.65 38.81,47.59 52.58,65.39 103.08,100.91 36.51,25.68 47.89,31.5 82.96,44.33 9.71,3.56 17.52,7.15 28.44,11.32 34.46,13.16 96.08,22.26 133.37,22.55 84.33,0.68 184.36,-31.71 252.37,-74.62 79.34,-50.06 105.46,-79.1 169.61,-157.52 10.42,-12.72 46.93,-57.49 51.9,-71.05 12.88,-35.13 35.8,-68.28 36.32,-85.23 0.54,-17.68 -1,-52.13 -8.43,-68.23z"/>
  <path class="fil3" d="M465.32 3382.78c21.88,-3.52 19.03,18.28 1.31,13.63 -2.58,-4.94 -7.01,6.39 -1.31,-13.63zm-42.72 15.77l-3.31 -17.95c9.35,0.38 15.28,-1.68 16.41,7.44 1.34,10.83 -4.58,9.18 -13.1,10.51zm281.86 -197.45c-1.98,-16.29 2.76,-16.17 18.38,-17.2 -3.93,14.06 -1.92,19.18 -18.38,17.2zm18.65 -37.1c4.23,-3.27 12.65,-4.78 16.62,-1.26 11.53,10.22 0.7,16.79 0.59,17.1l-17.3 -0.55 0.09 -15.29zm-115.86 -0.14c4.96,9.67 5.26,8.27 -2.48,16.47 -5.66,-2.23 -10.41,-2.07 -9.09,-10.02 1.12,-6.74 4.46,-5.99 11.57,-6.45zm-79.22 -60.63c10.18,17.2 5.01,7.52 18.5,19.35 37.82,33.19 47.29,32.26 32.61,62.17 -32.54,-1.28 -32.73,-18.64 -56.96,-37.84 -20.81,-16.5 -60.74,-54.46 -71.18,-70.65 -6.37,-9.87 -9.74,-17.89 -17.61,-29.73 -7.93,-11.92 -8.96,-18.22 -15.69,-31.54l-16.51 -28.57c-13.73,5.87 -3.36,-0.69 -13.21,10.36l-19.05 24.46c-3.25,4.31 -4.16,5.64 -7.16,10.85 -10.11,17.51 -17.82,34.31 -26.39,54.02 -29.78,68.5 -33.5,122.74 -45.51,197.73 -6.8,42.48 9.46,102.61 33.42,123.56 8.82,7.71 12.43,12.53 20.79,19.59 13.63,11.49 13.22,8.59 29.06,5.8 64.9,-11.4 95.88,5.29 148.25,14.55 44.09,7.8 97.31,-5.79 127.36,-26.31 95.42,-65.17 66.43,-106.74 87.23,-189.48 6.85,-27.27 -5.37,-4.54 -0.49,-33.91 9.83,-11.01 18.97,-13.5 30.16,-23.48 10.73,-9.57 17.57,-18.79 28.3,-27.29l-48.45 -19.88c-13.31,11.3 -18.99,27.22 -45.96,29.92 -31.85,3.18 -95.47,-17.05 -120.86,-30.04 -26.97,-13.79 2.74,-3.35 -50.65,-23.64z"/>
  <path class="fil6" d="M2759.18 2023.19c0.22,33.45 5.43,57.58 9.08,88.09l30.02 301.58c0.05,9.27 -1.33,-3.07 0.31,7.12 11.89,73.62 15.62,152.61 27.08,218.77 5.65,32.59 0.01,16.23 -1.28,40.15 12.71,9.06 24.49,35.57 34.61,50.56 5.86,8.65 12.82,15.76 16.92,26.14 6.64,16.82 -1.07,7.79 13.88,34.07 22.77,-7.11 21.84,-16.54 48.36,-23.68 44.44,-11.97 36.41,13.82 45.24,-29.66 -17.51,-0.52 -51.79,1.47 -66.38,-3.78 -49.21,-17.7 -77.31,-115.96 -7.23,-126.09 16.68,-2.42 23.62,-5.73 39.08,-8.13 13.5,-2.09 31.58,-2.04 47.29,-3.3 1.04,-60.25 -2.36,-71.56 -3.49,-116.04 -0.37,-14.19 1.49,-29.55 0.9,-43.67l-5.8 -212.63c1.44,-17.41 0.61,-45.6 0.88,-67.29 0.53,-44.48 -7.62,-95.94 -2.17,-145.77 -56.37,25.64 -169.26,29.26 -227.3,13.56z"/>
  <path class="fil3" d="M2845.68 2864.26l-10.33 10.95c4.35,18.25 3.13,16.75 13.84,32.71l-1.39 5.45c4.08,12.27 23.45,23.07 37.86,17.46 18.28,-7.12 7.03,-25.35 109.53,-18.78 23.78,1.53 37.37,0.36 56.52,10.42 -4.28,12.3 -17.4,15.75 -30,16.9 -85.61,7.83 -81.98,-23.51 -145.75,43.95 -61.4,64.96 -22.41,66.13 -10.96,90.47 17.39,-8.51 22.82,-16.41 41.65,-18.67 34.85,-4.19 60.11,-16.51 102.75,-12.04 14.65,1.53 38.48,-2.09 50.77,6.63 -28.05,17.2 -49.18,10.5 -78.43,17.95 -13.24,3.36 -21.88,7 -36.59,10.67 -33.25,8.31 -35.7,-1.87 -56.94,15.61 -0.59,0.48 -1.36,1.22 -1.94,1.7 -0.58,0.49 -1.4,1.19 -1.97,1.67 -42.26,34.89 -11.34,44.83 -1.74,52.42 15.97,12.61 2.67,23.99 36.08,31.96 19.98,-44.75 31.1,-6.15 127.35,-28.36 16.64,-3.84 20.89,-4.45 30.62,5.44 -18.76,40.13 -121.91,31.96 -129.08,33.76 -40.86,10.27 -10.85,38.48 -64.43,7.4 0.15,38.32 -15.8,89.24 -11.46,120.15 31.83,15.56 72.93,11.64 107.14,13.93 6.54,12.8 7.13,7.14 7.58,25.19 -26.47,12.72 -70.36,11.32 -94.47,2.89 -13.73,-4.8 -8.85,-8.21 -24.59,-8.96 -3.1,8.7 -7.86,183.35 9.61,207.68 61.03,-51.66 42.25,-45.95 88.17,-95.58 27.95,-30.2 25.88,-45.67 37.12,-82.54 8.25,-27.07 -8.8,-32.52 10.31,-48.31 34.63,-28.59 5.48,-0.01 35.94,-36.52 24.36,-29.18 23.56,-40.78 34.51,-78.09 13.92,-47.43 24.13,-49.33 42.17,-78.12 3.65,-5.82 4.69,-9.5 7.46,-14.15 6.1,-10.25 13.7,-15.42 5.2,-29.57 -13.36,-22.23 -29.28,0.36 -10.96,-63.48 11.09,-38.68 5.5,-34.56 -14.48,-60.19 -7.35,-9.43 -17.54,-14.47 -16.03,-29.47 1.2,-11.97 11.44,-21.94 14.99,-31.66 16.57,-45.4 -49.23,-57.02 -79.31,-80.48 -6.4,-4.99 -6.14,-5.13 -10.72,-10.7 -19.04,-23.15 -14.23,-11.29 -37.46,-20.19 -9.81,-3.76 -5.82,-5.27 -16.56,-7.78 -5.51,-1.28 -4.47,-1.07 -10.36,-0.84 -18.02,0.72 -85.37,43.99 -87.33,45.69l-23.89 25.43z"/>
  <path class="fil3" d="M2818.02 3055.32c-17.79,-32.03 4.98,-51.4 8.22,-56.2l8.29 -13.2c2.64,-3.52 4.55,-5.15 8.58,-9.72 5.64,-6.38 10.55,-13.04 15.61,-21.37 -15.36,-9 -22.46,-17.33 -34.03,-26.96 -5.48,-8.09 -18.73,-27.18 -19.59,-42.29 -0.27,-4.87 2.97,-15.66 4.9,-21.44 4.62,-13.85 4.74,-12.88 15.85,-18.04 1.59,-7.51 28.74,-29.82 36.49,-36.33 -5.32,-16 -36.98,-85.2 -50.87,-98.23 -20.9,12.84 -15.76,45.11 -14.92,65.31 5.84,141.58 -11.23,100.07 -37.02,177.1 -3.88,11.58 -7.71,21.93 -9.91,31.06 -7.05,29.28 -0.79,48.72 0.74,77.58l11.06 66.12c9.09,45.48 30.29,61.01 19,86.21 -8.35,18.63 -37.43,32.63 -53.32,44.82 -35.83,27.48 -83.17,69.91 -112.26,102.48 -14.53,16.28 -22.9,33.8 -33.65,49.97 -39.7,59.71 -27.93,48.96 1.71,120.18 17.46,41.96 28.26,51.42 46.05,81.42 25.33,42.73 44,16.9 119.2,-3.34l68.58 -21.27c9.77,-3.42 16.37,-1.51 18.71,-14.12 4.67,-25.26 -0.3,-17.49 -5.3,-60.6 -8.22,-70.89 3.43,-240.12 18.63,-317.62 8.04,-40.97 1.65,-23.98 -12.04,-52.31 -13.79,-28.53 -10.26,-28.83 4.03,-51.2 -7.65,-11.15 -19.69,-10.46 -22.74,-38.01z"/>
  <path class="fil0" d="M2606.31 1602.82c-0.25,34.11 7.96,35.61 6.56,69.03l1.34 154.64c2.95,9.42 10.6,15.73 18.9,19.48 6.32,2.86 19.08,8.72 26.91,8.97 1.19,-23.17 -9.38,-15.95 -12.21,-52.51 -3.91,-50.55 -3.41,-93.35 21.65,-130.21l6.23 -12.53c8.97,-23.65 19.04,-43.3 39.91,-58.38 0.66,-0.48 1.5,-1.12 2.19,-1.57l32.07 -17.74c79.48,-26.06 62.8,-19.46 148.93,-26.36 -4.53,-41.98 24.54,-231.01 36.7,-294.18 8.64,-44.84 10.94,-104.17 15.1,-122.82 6.58,-29.47 25.78,-277.33 26.92,-313.79 1.44,-46.09 1.94,-92.05 1.45,-138.18 -0.49,-45.92 -6.28,-85.89 -7.82,-132.73 -10.82,13.57 -8.2,19.34 -8.97,38.32 -0.42,10.3 -12.82,67.95 -14.66,116.29l-19.6 157.41c-6.99,54.67 -15.26,61.34 -16.78,115.33 -0.51,17.92 -4.17,21.59 -5.71,36.22 -1.5,14.41 -0.01,29.35 -0.98,43.64 -3.91,57.04 -23.61,132.2 -50.47,180.9 -16.78,30.43 -29.93,63.49 -49.83,91.66 -0.33,0.46 -4.32,6.2 -4.51,6.54 -0.43,0.76 -0.91,1.69 -1.32,2.5l-106.33 170.06c-9.22,13.42 -12.86,11.23 -19.97,23.02l-19.23 24.76c-26.56,28.81 -16.27,25.31 -46.47,42.23z"/>
  <path class="fil5" d="M3028.85 1798.26c11.09,-39.1 -8.77,-89 -17.19,-119.48 -5.08,-18.37 -14.54,-33.7 -27.18,-45.37 -34.64,-31.97 -59.03,-42.62 -107.6,-40.45 -34.85,1.56 -88.98,12.69 -119.04,24.59 -7.71,3.05 -17.32,7.59 -24.18,13.31 -9.71,8.1 -3.17,2.21 -8.06,10 -10.72,17.09 -24.21,32.79 -34.7,59.97 -6.55,16.98 -9.23,42.95 -7.64,65.61 2.58,37.09 -10.12,51.84 88.19,61.34 42.85,4.14 91.16,5.42 135.7,-2.77 21.54,-3.96 111.55,-20.94 121.7,-26.75z"/>
  <path class="fil5" d="M2695.16 1846.35l40.83 118.73c23.36,40.49 85.52,30.51 122.59,30.63 37.69,0.13 113.32,-6.64 129.13,-31.3l35.79 -129.56c-39.23,11.62 -115.61,25.31 -157.68,28.82 -50.35,4.21 -124.96,-2.3 -170.66,-17.32z"/>
  <path class="fil1" d="M2381.68 952.86c8.76,-31.01 19.62,-24.32 9.49,-68.68 10.14,3.83 27.99,22.14 37.71,32.51 12.26,13.08 19.2,22.95 24.85,48.36 -28.57,-3.61 -47.36,-6.35 -72.05,-12.19zm-198.9 -63.75c0.97,10.9 -2.58,4.17 3.4,10.65 9.79,-1.67 13.56,-3.15 23.82,-6.82 9.46,-3.38 9.98,-3.45 21.87,-5.09 19.46,-2.98 22.45,-10.23 48.39,-11.7 -11.06,24.23 -11.96,33.15 -4.01,60.59l-76.47 -18.44c-7.14,2.5 -4.31,1.27 -12.31,0.23 -17.05,-2.21 6.6,-1.43 -12.26,-1.96l-6.06 10.06c9.38,13.73 16.32,4.07 31.55,21.02 8.68,4.32 56.71,11.28 70.17,14.83 25.35,6.69 49.42,12.51 75.3,15.6 35.04,4.19 112.71,38.4 143.98,17.62 -3.31,-11.56 -10.84,-13.58 -19.38,-18.18 0.97,-1.8 4.02,-5.98 5.55,-7.97 8.41,-10.99 10.98,-9.36 3.04,-34.44 -5.74,-18.15 -1.58,-9.7 -10.96,-21.84 -5.47,-7.07 -8.88,-12.53 -14.16,-18.36 -22.05,-24.34 -45.11,-39.02 -77.7,-49.55 -31.49,-10.17 -77.24,-14.65 -109.92,-1.96 -12.9,5.01 -36.51,9.29 -48.22,17.31 -12.66,8.67 -27.27,18.33 -35.62,28.4z"/>
  <path class="fil7" d="M476.31 2772.88c-5.46,15.14 -8.02,23.18 -5.29,39.91 4.85,29.77 7.73,3.47 -4.78,30.61 9.49,-0.92 3.54,-1.33 10.07,0.25 2.82,0.69 4.08,1.79 8.49,5.22 4.28,-16.46 -2.49,9.71 -9.71,17.13l-3.28 2.24c-0.31,0.21 -1.27,0.55 -1.57,0.74l-6.1 3.84c-14.53,12.47 -46.34,49 -45.71,67.97 0.31,9.59 10.22,62.64 27.1,82.99 16.6,20.02 -3.48,19.59 21.1,40.45 7.02,-5.87 9.12,8.33 6.46,-8.85 -12.64,-65.33 -19.74,-3.02 -33.9,-98.39 -6.46,-43.5 6.95,-41.28 28.36,-66.35 8,-9.37 4.27,-11.09 17.48,-19.47 3.89,14.49 5.76,24.9 12.4,38.48 13.7,28.03 43.14,75.73 63.82,99.82 8.02,9.34 44.5,33.48 62.75,46.35 8.88,6.28 22.14,13.91 33.11,21.33 25.53,17.28 29.22,-2.06 44.16,11.43 35.72,-0.68 22.79,13.88 46.04,9.7l-11.22 -9.01c-17.45,-11.65 -23.75,-6.85 -34.69,-12.04 -14.75,-6.99 -3.91,-7.48 -15.38,-17.7 -5.98,-5.32 -11.37,-5.38 -18.51,-10.42 -6.78,-4.78 -7.36,-7.75 -18.06,-14.8 -23.51,-15.48 -41.38,-8.61 -85.23,-67.85 -9.65,-13.05 -14.43,-23.17 -23.38,-38.68 -13.37,-23.18 -30.87,-64.15 -41.74,-74.39l-4.67 -3.63c0.65,-4.55 1.59,-8.71 2.1,-11.76 1.51,-8.95 -0.24,-1.39 1.65,-9.18 12.25,-50.53 7.54,-55.61 46.6,-82.76 5.02,-3.48 26.46,-15.49 30.52,-11.81 4.41,3.99 3.53,182.64 48.34,149.19 16.85,-16.61 -7.61,-73.82 -11.42,-99.37l-12.47 -57.19c-0.07,-0.15 -4.24,-7.87 -4.9,-9.04 -4.68,-8.33 -6.45,-9.02 -9.51,-20.77 42.24,-54.91 15.54,-25.13 26.71,-45.71 8.06,7.35 2.63,2.92 12.4,6.27 -4.04,-17.02 -2.36,-7.82 -15.36,-19.2 -12.42,-10.88 -4.66,-2.47 -11.59,-17.42l-21.97 -0.26c0.65,0.95 1.62,1.97 2.16,2.68l10.51 15.48c-6.45,13.96 -18.43,18.87 -28.88,34.76 -18.82,28.61 -2.07,18.38 -24.08,37.35 -20.08,17.28 -53.05,32.51 -58.93,61.86z"/>
  <path class="fil8" d="M2332.52 1314.03c-9.51,-19.87 -26.44,-33.6 -46.79,-39.85 -38.43,-11.81 -64.99,2.91 -80.71,35.64 -10.04,20.88 -5.13,20.57 -4.88,26.41 0.57,13.13 -1.48,20.78 6.15,35.51 26.07,50.29 72.89,83.45 134.14,72.44 13.92,-2.5 17.88,-7.22 30.41,-12.94 19.24,-8.79 23.74,-18.22 28.48,-53.45 1.44,-10.73 2.94,-21.31 2.92,-36.72 -1.19,-0.94 -10.27,-8.86 -12.45,-10.46l-16.46 -9.49c-18.7,-9.53 -18.78,-6.15 -40.81,-7.09z"/>
  <path class="fil3" d="M473.09 3055.38c20.08,3.5 6.82,10.94 22.62,18.43l-1.02 -3.58c0,-0.21 0.42,-1.13 0.43,-1.98 0.02,-1 0.29,-1.57 0.59,-2.31 12.59,1.66 64.42,28.86 108.66,39.85 11.73,2.91 14.8,7.58 24.26,10.42 9.87,2.96 19.44,1.96 31.79,5.75 47.61,14.62 46.64,-2.57 54.76,-8.87 -12.06,-20.5 -17.42,-3.65 -13.91,-24.51 -14.94,-13.49 -18.63,5.85 -44.16,-11.43 -10.97,-7.42 -24.23,-15.05 -33.11,-21.33 -18.25,-12.87 -54.73,-37.01 -62.75,-46.35 -20.68,-24.09 -50.12,-71.79 -63.82,-99.82 -6.64,-13.58 -8.51,-23.99 -12.4,-38.48 -13.21,8.38 -9.48,10.1 -17.48,19.47 -21.41,25.07 -34.82,22.85 -28.36,66.35 14.16,95.37 21.26,33.06 33.9,98.39z"/>
  <path class="fil1" d="M2565.06 1244.62c-60.83,-1.24 -126.29,-26.54 -146.5,-5.35 5.81,18.55 34.07,19.18 73.36,32.39 26.61,8.95 65.97,12.36 97.85,6.2 15.96,-23.9 35.19,-174.12 38.52,-216.77 2.5,-31.9 37.91,-197.93 31.66,-216.5 -5.55,-16.49 -25.31,-14.33 -30.83,6.2 -2.36,8.77 -2.26,17.89 -4.68,27.36 -2.14,8.32 -3.92,19.26 -5.1,27.63l-19.56 110.44c-1.8,10.73 -2.1,18.28 -3.32,30.36 -1.55,15.25 -3.51,14.45 -5.84,26.47 -3.22,16.62 -7.09,80.81 -14.53,116.06 -4.16,19.7 -7.95,36.8 -11.03,55.51z"/>
  <path class="fil3" d="M3039.94 2709.05c-2.1,9.6 -1.06,1.99 -3.66,6.07l-8.7 12.65c-9.01,11.4 -9.27,13.23 -13.32,29.52 -2.54,10.24 -3.03,16.71 -6.73,23.76l17.8 14.11c10.75,-5.54 14.53,-16.05 21.85,-29.3l36.98 -79.59c8.75,-25.2 3.9,-53.25 -14.46,-62.56 -7.51,-3.8 -23.53,-3.19 -33.35,-3.27l-104.77 13.76c-19.29,2.38 -48.61,0.94 -27.44,46.26 7.21,15.42 5.21,14.53 20.29,20.32 15.86,6.1 63.65,3.67 82.66,2.41 23.37,-1.55 13.02,0.16 32.85,5.86z"/>
  <path class="fil1" d="M2224.28 761.22c40.61,16.91 16.9,-7.79 107.44,-4.67 30.19,1.05 76.86,11.06 98.28,28.16 43.57,34.77 26.7,11.04 48.54,27.74l62.63 50.36c26.38,24.35 52.44,-17.88 -44.08,-79.66l-82.89 -44.15c-45.65,-17.52 -115.44,-19.51 -161.84,-10.76 -15.95,3 -32.01,9.29 -28.08,32.98z"/>
  <path class="fil7" d="M2824.69 2927.87c11.57,9.63 18.67,17.96 34.03,26.96 -5.06,8.33 -9.97,14.99 -15.61,21.37 -4.03,4.57 -5.94,6.2 -8.58,9.72l-8.29 13.2c-3.24,4.8 -26.01,24.17 -8.22,56.2 4.02,-14.32 -8.33,-2.36 6.44,-9.75 8.03,13.79 22.32,26.79 40.54,28.22 -11.45,-24.34 -50.44,-25.51 10.96,-90.47 63.77,-67.46 60.14,-36.12 145.75,-43.95 12.6,-1.15 25.72,-4.6 30,-16.9 -19.15,-10.06 -32.74,-8.89 -56.52,-10.42 -102.5,-6.57 -91.25,11.66 -109.53,18.78 -14.41,5.61 -33.78,-5.19 -37.86,-17.46 -4.45,-2.74 -6.31,-3.53 -9.52,-6.61 -9.9,-9.49 5.12,-10.98 -26.6,-13.35 12.3,27.68 5.48,-7.92 13.01,34.46z"/>
  <path class="fil1" d="M2724.94 999.34c-6.86,12.52 -33.91,23.51 -27.16,51.76 38.61,4.33 31.38,-37.58 68.85,-28.5 -3.52,26.19 -16.78,3.47 -17.92,64.55 30.96,-8.65 36.93,-43.97 44.58,-58.28 30.95,3.86 11.21,54.22 47.26,66.71 21.49,-26.75 2.26,-32.6 -2.22,-67.16 0.86,-0.64 2.31,-2.39 2.79,-1.6 0,0.01 12.05,-5.09 15.5,-12.02 16.58,-33.31 -47.87,-19.59 -55.22,-20.56 -58.79,-7.72 -51.54,-34.15 -80.96,-35.05 -18.95,31.13 -2.8,31.58 4.5,40.15z"/>
  <path class="fil7" d="M2036.3 1578.18c-18.84,-12.82 -32.93,-37.9 -47.75,-61.37 -24.16,-38.24 -37.63,-14.82 -34.32,2.39 1.58,8.2 12.48,23.69 20.21,33.5 12.28,15.55 10.28,21.74 18.6,35.73 23.78,39.96 92.8,23.5 43.26,-10.25z"/>
  <path class="fil5" d="M2381.68 952.86c24.69,5.84 43.48,8.58 72.05,12.19 -5.65,-25.41 -12.59,-35.28 -24.85,-48.36 -9.72,-10.37 -27.57,-28.68 -37.71,-32.51 10.13,44.36 -0.73,37.67 -9.49,68.68z"/>
  <path class="fil5" d="M2231.87 887.85c-13.5,18.41 -27.95,6.16 -32.09,30.45l76.47 18.44c-7.95,-27.44 -7.05,-36.36 4.01,-60.59 -25.94,1.47 -28.93,8.72 -48.39,11.7z"/>
  <path class="fil9" d="M2200.7 947.65c-15.23,-16.95 -22.17,-7.29 -31.55,-21.02l6.06 -10.06c18.86,0.53 -4.79,-0.25 12.26,1.96 8,1.04 5.17,2.27 12.31,-0.23 4.14,-24.29 18.59,-12.04 32.09,-30.45 -11.89,1.64 -12.41,1.71 -21.87,5.09 -10.26,3.67 -14.03,5.15 -23.82,6.82 -5.98,-6.48 -2.43,0.25 -3.4,-10.65 -8.79,9.69 -4.28,11.67 -8.85,18.27 -3.76,5.42 -10.07,6.15 -16.34,9.35l5.82 20.75c10.58,8.8 17.75,8.86 37.29,10.17z"/>
  <path class="fil9" d="M2824.69 2927.87c-7.53,-42.38 -0.71,-6.78 -13.01,-34.46 31.72,2.37 16.7,3.86 26.6,13.35 3.21,3.08 5.07,3.87 9.52,6.61l1.39 -5.45c-10.71,-15.96 -9.49,-14.46 -13.84,-32.71l10.33 -10.95c-29.14,0.26 -5.21,7.87 -30.26,10.66 -0.26,-13.07 4.02,-17.8 10.43,-28.82 -11.11,5.16 -11.23,4.19 -15.85,18.04 -1.93,5.78 -5.17,16.57 -4.9,21.44 0.86,15.11 14.11,34.2 19.59,42.29z"/>
  <path class="fil7" d="M2139.48 1693.06c-11.74,-7 -14.35,-9.46 -30.82,-7.84 -1.4,21.72 -4.95,12.01 15.9,23.52 10.27,5.66 14.58,10.56 30.28,4.47 -0.64,-17.64 -1.52,-11.9 -15.36,-20.15z"/>
  <path class="fil10" d="M723.11 3164l-0.09 15.29 17.3 0.55c0.11,-0.31 10.94,-6.88 -0.59,-17.1 -3.97,-3.52 -12.39,-2.01 -16.62,1.26z"/>
  <path class="fil10" d="M704.46 3201.1c16.46,1.98 14.45,-3.14 18.38,-17.2 -15.62,1.03 -20.36,0.91 -18.38,17.2z"/>
  <path class="fil10" d="M422.6 3398.55c8.52,-1.33 14.44,0.32 13.1,-10.51 -1.13,-9.12 -7.06,-7.06 -16.41,-7.44l3.31 17.95z"/>
  <path class="fil10" d="M466.63 3396.41c17.72,4.65 20.57,-17.15 -1.31,-13.63 -5.7,20.02 -1.27,8.69 1.31,13.63z"/>
  <path class="fil10" d="M604.77 3180.33c7.74,-8.2 7.44,-6.8 2.48,-16.47 -7.11,0.46 -10.45,-0.29 -11.57,6.45 -1.32,7.95 3.43,7.79 9.09,10.02z"/>
 </g>
</svg>
