<?xml version="1.0" encoding="UTF-8"?>
<!DOCTYPE svg PUBLIC "-//W3C//DTD SVG 1.1//EN" "http://www.w3.org/Graphics/SVG/1.1/DTD/svg11.dtd">
<!-- Creator: CorelDRAW Standard 2021 (64-Bit Versión de evaluación) -->
<svg xmlns="http://www.w3.org/2000/svg" xml:space="preserve" width="37.221mm" height="40.6398mm" version="1.1" style="shape-rendering:geometricPrecision; text-rendering:geometricPrecision; image-rendering:optimizeQuality; fill-rule:evenodd; clip-rule:evenodd"
viewBox="0 0 3722.1 4063.98"
 xmlns:xlink="http://www.w3.org/1999/xlink"
 xmlns:xodm="http://www.corel.com/coreldraw/odm/2003">
 <defs>
  <style type="text/css">
   <![CDATA[
    .fil2 {fill:black}
    .fil8 {fill:#042AAA}
    .fil3 {fill:#0B1949}
    .fil7 {fill:#2C356A}
    .fil5 {fill:#EFB84C}
    .fil6 {fill:#F32829}
    .fil1 {fill:#F9C2EE}
    .fil4 {fill:#F9F7F7}
    .fil0 {fill:white}
   ]]>
  </style>
 </defs>
 <g id="Capa_x0020_1">
  <metadata id="CorelCorpID_0Corel-Layer"/>
  <g id="_2586443196112">
   <path class="fil0" d="M961.42 3509.08c8.4,28.72 -7.23,6.47 20.09,22.33 12.77,7.42 17.94,25.51 18.7,26.72l57.57 -14.29c46.24,-14.44 147.36,-59.65 147.74,-59.76l17.29 -0.47 0.78 28.79c-12.44,6.8 -23.72,14.53 -36.33,18.88l-119.9 48.87c-80.72,29.78 -250.67,42.38 -331.11,-6.08 -5.19,-3.13 -2.83,-1.74 -8.58,-4.71 -4.54,-2.36 -5.41,-1.93 -8.94,-4.26 -6.66,-4.41 -3.13,-0.67 -6.96,-6.12 -0.16,-0.23 -4.36,-11.85 -4.44,-12.93 -3.47,-48.16 42.6,2.26 54.74,6.21 28.32,9.2 67.83,2.61 88.26,17.78 15.71,-5.22 9.26,-2.89 16.29,-13.49 7.53,8.16 -1.27,10.95 34.47,13.44l12.93 -16.43c7.37,11.46 -8.66,-16.42 3.28,6.91l5.34 9.9c9.36,-0.61 17.32,-0.05 26.16,-1.02l21.4 -5.51 -55.6 -26.04c-24.19,-11.59 -27.61,-28.35 -53.15,-19.78l3.18 -6.6c2.32,-6.62 9.81,-2.33 1.07,-12.13 -8.37,-9.37 -14.48,-5.12 -26.23,-3.36 1.28,-13.09 6.16,-10.29 -3.76,-17.02l-21.54 -9.78c0.01,-2.32 11.35,-8.57 -11.82,-18.55 -9.96,-4.29 -0.83,5.15 -7.71,-2.99 -9.1,-10.77 5.89,-0.05 -4.68,-17.84 -5.62,-9.45 0.1,-6.13 -14.24,-6.43l-6.05 0.69c8.74,-35.17 -7.91,-17.25 -21.74,-25.27 0.32,-0.85 1.37,-2.83 1.53,-2.25l4.76 -13.5c1.36,-11.77 -8.12,-4.85 2.25,-16.11 11.29,-12.28 19.78,3.83 26.5,13.72 10.79,15.88 2.24,4.45 13.44,12.56 24.24,17.51 9.34,16.74 48.3,46.68l98.73 73.5c19.95,5.22 -0.82,3.71 17.98,-4.26zm163.34 -297.69c-1.23,8.87 -7.05,10.45 1.86,31.59 12.73,30.15 41.4,43.24 47.14,65.6 5.26,20.51 -7.79,38.09 -47.98,-8.13 -27.77,-31.94 -69.09,-119.93 -49.47,-167.94 5.91,-14.46 -3.03,-6.52 10.08,-11.57 9.69,15.57 -9.03,21.54 6.45,48.88 6.4,11.3 6.69,13 11.02,23.59 7.48,18.24 0.52,13.69 20.9,17.98zm701.12 -118.68c17.89,1.07 10.85,2.09 13.37,11.49l-13.58 2.83 0.21 -14.32zm-739.49 -33.4c-18.79,-26.1 2.07,-75.22 13.38,-93.4l21.09 1.29c4.9,11.49 0.72,94.1 -34.47,92.11zm-354.89 1004.68l1432.35 0c-2.18,-26.7 4.44,-45.11 3.91,-68.79 -0.51,-23.03 -2.72,-46.5 -1.17,-69.25 5.07,-74.2 44.08,-193.62 84.14,-261.53 9.45,-16.01 20.23,-23.96 29.85,-39.98 -3.15,-35.38 -5.31,-45.43 2.82,-78.71 5.67,-23.21 11.85,-40.84 4.65,-54.88l-29.54 -5.78c-47.05,38.83 -147.56,75.49 -212.92,67.63 -33.23,-4 -90.54,-11.5 -120.59,-21.33 -57.63,-18.87 -49.13,-9.54 -88.8,-49.62 -16.12,4.19 0.32,-1.68 -14.27,7.51 -27.89,17.57 -72.17,32.58 -102.81,43.8 -59.57,21.8 -78.93,19.13 -145.82,20.36 -50.93,0.94 -232.64,-21.6 -284.38,-46.36 -27.43,10.63 11.3,-2.2 -13.57,10.28 -7.28,-25.04 4.38,-5.99 -14.23,-16.28 -18.52,-10.24 -10.51,3.8 -16.65,-14.51l35.84 -22.79c5.4,7.85 -6.06,-10.67 3.2,6.54 0.45,0.84 0.89,12.74 3.46,5.87 0.28,-0.76 1.24,2.22 1.95,3.26 13.73,0.14 22.5,2.17 36.26,5.74l95.42 19.56c37.58,7.71 105.66,10.99 143.91,13.92 92.57,7.08 160.42,-25.53 241.26,-58.27l10.24 -5.4c-13.98,-10.04 -12.24,-12.43 -23.27,-24.36 -0.59,-0.64 -1.6,-1.44 -2.18,-2.07l-8.51 -12.25c-14.66,-36.76 -37.48,-68.74 -35.06,-110.88l11.65 -51.29c24.46,1.36 15.39,1.29 19.93,16.27 2.99,9.85 10.01,5.81 12.15,17.64l-12.31 3.86c-0.22,-0.69 -1.48,0.36 -2.14,0.73l11.82 33.79c3.87,9.56 -1.8,10.74 4.7,30.41 13.26,40.11 43.34,59.2 64.97,91.32l23.42 23.33c0.64,0.51 1.53,1.42 2.16,1.95 23.8,19.67 55.91,21.3 84.12,28.18 38.86,9.47 70.86,26.8 112.63,17.2 15.44,-3.56 20.77,-7.74 35.41,-11.63 12.49,-3.32 22.91,-3.47 36.16,-6.73 23.5,-5.78 42.32,-17.92 63.82,-26.22l-5.64 -3.39c-18.26,-9.85 -33.04,-13.85 -48.93,-28.95l-77.26 -86.56c-43.61,-59.09 -77.65,-114.63 -104.4,-184.59 -9.61,-25.12 -16.97,-76.09 -20.58,-100.82 -9.24,-63.28 -0.46,-148.8 27.23,-209.18 4.28,-9.33 9.05,-20.05 13.56,-29.43 6.68,-13.91 8.08,-12.6 14.8,-24.38 78.46,-137.47 111.43,-131.46 149.96,-178.95l-17.75 -11.21c-26.45,23.21 -57.28,25.23 -92.46,18.77 -1.33,41.3 5.09,60.6 -32.71,74.98 -60.85,23.16 -104.5,-24.9 -148.88,-57.29 -21.06,-15.36 -38.26,-34.52 -65.73,-29.89 0.81,-10.7 4.22,-12.94 -8.12,-20.94 -5.82,-3.78 -3.76,-1.41 -8.43,-4.37l-13.81 -12.03c-5.53,-4.7 -7.24,-4.74 -13,-8.81 -14.2,-10.06 -11.48,-16.03 -30.55,-23.02l-21.87 32.03c-10.74,18.58 -13.27,46.07 -19.24,62.95l-0.78 26.23c4.92,13.88 1.95,-6.55 5.98,13.95 -9.44,3.85 -8.89,-0.45 -13.82,4.42l2.55 31.87c6.47,2.57 6.03,1.64 11.18,2.49 -12.12,57.82 27.59,117.73 -7.09,116.5 -25.41,-0.9 -25.57,-69.08 -30.43,-90.03 -1.53,-6.57 -3.35,-10.47 -7.28,-14.76l-10.43 -7.4c27.26,-43.08 11.28,-34.94 17.5,-85.57 5.56,-45.2 27.48,-51.61 5.93,-77.28 20.24,-9.48 11.42,25.73 22,-10.11 4.59,-15.55 -5.38,-1.14 5.27,-14.48 11.42,-14.3 -0.35,10.95 12.8,-13.88 -43.59,7.24 -75.93,40.95 -93.54,78.05l-5.8 34.98c-21.68,4.95 -12.25,-0.41 -21.67,17.42 -0.47,0.89 -0.95,2.05 -1.42,2.95 -0.46,0.91 -0.98,2.04 -1.45,2.93l-14.93 28c-7.68,13.71 -18.01,24.92 -5.86,36.99 -15.01,7.04 -13.38,16.62 -19.27,32.47 -29.06,10.78 -22.49,-6.23 -31.23,-25.53 -0.41,-0.91 -1.41,-2.24 -1.78,-2.95 -0.46,-0.88 -3.29,-4.16 -4.33,-5.14 18.28,-6.62 16.64,-10.03 25.11,-30.03 7.15,-16.9 11.16,-20.39 17.85,-34.17 2.74,-5.64 4.73,-13.37 5.38,-17.59 3.02,-19.7 8.89,-14 21.92,-36.63 3.41,-5.91 2.58,-4.38 5.08,-8.16 19.58,-29.61 23.9,-32.59 48.81,-54.97 41.44,-37.23 29.12,-20.41 60.51,-40.37 -19.54,-16.7 -34.27,-35.12 -51.83,-51.46 -23.72,-22.07 -27.69,-32.47 -56.87,-45.96 -0.47,-19.43 -8.39,-32.34 -9.74,-46.21 -1.51,-15.51 0.77,-18.8 -3.28,-40.47 -26.16,-6.12 -49.97,-18.28 -75.2,-28.3 -50.75,-20.15 -131.51,-38.01 -189.56,-43.63 -20.82,-2.02 -38.26,-4.05 -60.4,-4.58 -21.32,-0.51 -47.34,-0.13 -69.1,0.18 -21.92,0.32 -37.08,4.41 -59.44,6.63 -80.45,7.98 -142.43,21.11 -219.5,47.04 -32.48,10.93 -62.51,30.59 -96.68,28.95 -49.3,-2.35 -130.81,38.15 -178.68,57.33 -56.06,22.46 -118.88,60.2 -173.15,94.02l-55.74 43.58c-36.63,32.93 -64.04,66.88 -88.09,110.34 -22.15,40.04 -24.65,52.34 -40.67,92.65 -20.42,51.37 -14.14,73.64 -14.21,73.93l-25.11 92.91c-0.89,18.43 0.19,11.35 8.33,19.76 -21.06,1.41 -14.52,46.32 -16.52,67.85 -6.44,69.17 -0.24,54.96 15.73,71.62 -11.16,3.42 -11.51,-0.14 -18.94,4.4 4.74,20.28 1.88,22.14 5.26,44.5 1.18,7.87 2.09,16.83 4.65,25.28 6.4,21.14 2.02,13.88 6.48,40.34 7.4,43.93 9.97,34.31 27.11,41.66 -6.56,12.86 -7.54,1.72 -12.32,18.15 6.74,10.6 8.36,24.09 12.88,37.4 11.51,33.86 1.73,2.73 20.83,16.75 -0.68,0.58 -1.88,1.11 -2.26,1.44 -0.39,0.33 -1.76,1.23 -2.2,1.66l-7.68 10.66c16.83,8.13 5.38,1.05 13.66,20.83l22.9 45.82c10.68,18.23 3.48,11.72 19.36,7.23 -7.41,15.11 -8.67,-2.77 -5.31,17.94 10.03,16.41 46.31,1.8 20.13,17.66 -0.48,0.29 -2.35,2.48 -2.72,1.64 -0.39,-0.89 -2.06,0.99 -2.87,1.75l31.51 36.12c11,13.07 15.6,29.62 28.87,39.99 13.7,10.7 7.31,0.89 18.42,16.01 13.53,18.42 33.98,34.29 52.79,50.81 9.47,8.33 9.79,10.5 17.04,17.41 36.93,35.19 62.24,38.79 72.38,91.78 6.26,32.73 43.77,100.58 49.62,121.57 5.58,20 5.71,13.5 14.23,28.18 2.66,4.59 2.93,7.27 5.29,12.45 11.95,26.24 23.92,40.58 41.55,62.54l25.11 40.11c1.5,4.31 -0.87,29.27 8.68,47.11 4.02,7.51 13.4,17.29 14.11,18.53l24.22 70.74z"/>
   <path class="fil1" d="M1829.34 1102.56c3.14,-14.53 13.53,-15.66 25.18,-23.23 7.89,-5.13 4.26,-2.47 9.67,-8.58 22.41,-25.27 38.58,-15.64 61.09,-41.53l40.59 -46.06c4.51,-5.17 20.68,-50.91 31.56,-24.68 13.92,33.62 -6.57,150.1 2.29,196.08 23.37,0.66 79.1,4.67 92.15,17.91 -3.38,16.1 4.24,2.02 -11.33,12 -18.66,11.96 -38.3,8.32 -61.52,7.35 -13.2,-0.56 -25.42,-2.65 -36.66,-2.9 -35.57,-0.81 -5.31,3.37 -34.12,14.38 -22.54,-7.94 -13.99,-13.89 -34.54,-17.77 -33.07,-6.23 -86.97,-3.14 -111.89,1.08 -0.81,0.14 -2.05,0.34 -2.87,0.52 -27.11,6.28 -59.89,20.28 -67.59,43.9 -4.54,13.92 -2.9,27.8 2.47,39.33 17.39,37.33 106.89,80.06 142.82,98.6 20.74,10.7 42.33,20.57 64.2,30.6 18.96,8.68 10.31,9.47 29.89,17.7 121.84,51.22 207.37,75.87 356.74,67.93 47.22,-2.51 41.1,1.89 61.37,34.97 14.08,22.97 21.12,34.8 34.36,61.32l69.69 171.83c12.73,39.89 55.69,170.25 59.49,200.34 2.62,20.79 11.73,29.94 14.47,47.19l39.9 248.8c7.13,83.6 0.31,183.55 8.7,263.12 1.84,17.45 1.88,22.35 1.63,38.63l10.68 129.89c10,99.44 0.64,62.25 21.43,168.01 8.17,41.58 17.47,71.75 33.95,109.14 7.22,16.4 13.4,12.32 17.72,29.26l-20.04 13.92c-19.62,-8.66 -38.87,-35.62 -47.73,-62.87 -28.24,-86.87 -35.71,-173.21 -44.79,-264.51l-206.64 -73.56c-23.01,-10.46 -43.03,-21.66 -71.44,-17.97 -14.99,25.48 -28.54,46.04 -56.43,57.9 -55.48,23.57 -27.74,-33.07 -116.24,61.36 -28.37,30.27 -53.35,58.87 -76.74,95.64l-56.09 120.79c-20.61,97.3 -15.25,196.68 29.53,283.82 17.84,34.71 36.15,81.57 62.66,109.71 36.18,38.39 64.06,96.54 114.83,117.71 22.06,9.2 23.59,12.11 41.6,8.53 27.75,-5.52 19.61,2.5 32.39,16.03 18.41,19.46 104.23,28.91 136.9,40.14l93.6 23.28c12.13,1.79 33.49,6.54 45.58,9.64 55.37,14.2 145.13,26.04 205.16,27.52l84.53 6.29c98.55,10.79 226.46,-21.8 321.69,-48.32 67.57,-18.81 123.8,-61.15 171.64,-107.72 3.64,-3.54 2.65,-2.6 6.62,-6.43 11.08,-10.68 21.18,-17.7 25.5,-30.19 23.12,-66.83 41.14,-234.8 41.48,-308.46l-12.53 -196.93 -63.24 -292.83c-8.48,-33.01 -16.04,-59.1 -25.45,-90.45 -26.62,-88.65 -47.98,-136.42 -77.14,-216.34l-85.02 -203.96 -301.35 -573.28c-19.79,-38.39 -44.54,-64.58 -66.06,-106.11 -13.83,-26.69 -32.41,-42.43 -50.5,-65.78l-25.98 -34.49c-4.47,-7.1 -5.85,-11.59 -11.58,-18.47l-100.55 -132.13c-5.84,-7.93 -4.29,-8 -9.75,-16.11 -14.64,-21.72 -38.88,-44.53 -53.25,-63.48l-52.85 -62.96c-12.57,-16.46 -24.16,-35.84 -40.51,-50.14 -52.79,-46.15 -95.08,-70.41 -157.25,-101.06 -43.96,-21.68 -124.9,-59.97 -174.26,-51.66 -89.73,15.1 -99.76,56.02 -145.57,87.05 -11.82,8.01 -25.42,15.33 -37.46,22.63l-104.07 68.33c-24.81,15.72 -45.89,33.52 -65.87,46.43 7.51,42.36 20.91,73.3 26.17,108.29 2.85,19 0.89,20.82 8.75,35.62l124.39 -1.65c-21.72,-40.02 -49.47,-30.08 -88.16,-47.9z"/>
   <path class="fil2" d="M166.51 381.67c-5.99,-0.4 -1.15,-0.78 -2.62,-1.78l-10.32 -6.74c1.3,16.07 -0.76,23.21 -7.5,36.41 -0.44,0.87 -1.08,1.94 -1.52,2.79l-14.2 28.23c-1.78,3.7 -2.67,5.84 -4.27,9 -3.48,6.81 -3.63,6.91 -7.61,13.96 -8.76,15.5 -12.43,10.34 -18.98,23.29 -4.92,9.75 0.2,11.95 -3.93,27.69 -2.16,8.22 -4.51,15.31 -10.02,27.3 -10.9,23.72 -5.96,48.33 -14.01,72.3 -22.85,68.1 -14.4,98.41 -25.53,146.72 -7.81,33.93 -11.42,40.05 -7.41,71.77 7.59,60.02 -10.94,283.5 4.64,332.23 10.88,34.01 6.22,67.42 8.78,102.57 2.13,29.2 1.88,6.17 5.96,23.07 4.45,18.41 0.36,39.46 2.93,58.66 -0.58,0.27 -1.67,-0.32 -1.88,0.38 -3.79,12.47 -0.62,-0.11 -4.35,1 -0.52,0.15 -2.05,0.57 -2.59,0.74l-5.76 2.2c24.64,34.98 19.49,3.16 27.09,69.27 2.74,23.82 3.18,66.02 8.95,85.74 7.03,24.03 5.9,61.25 9.6,86.41 4.34,29.5 12.17,40.43 14.56,77.38 7.78,120.51 24.44,234.66 31.73,349.11 2.66,41.75 13.62,85.19 10.4,134.02 -0.29,4.54 -1.83,16.77 -1.8,18.13l6.41 18.37c13.67,24.88 21.38,77.88 27.23,108.88 7.98,42.26 16.95,79.5 19.23,125.8 2.36,47.95 10.91,47.76 11.47,81.52 0.64,39 -6.37,77 3.31,105.07 5.28,15.34 5.53,47.52 5.78,67.55l9.59 7.45c0.68,0.54 1.87,1.47 2.51,1.99l8.46 -1.72c7.3,-18.97 5.69,-34.21 16.88,-52.14l10.66 -23.58c3.47,-7.88 2.64,-5.01 4.57,-9.09 0.48,-0.99 1.03,-2.07 1.49,-3.06 10.36,-22.09 14.37,-14.03 27.07,-32.29 3.58,-5.14 4,-7.68 8.42,-13.36l60.15 -60.24c0.75,-0.58 1.77,-1.34 2.51,-1.94 14.1,-11.37 24.81,-16.37 35.17,-29.34 5.64,-7.06 -1.48,-0.09 6.32,-6.62 23.16,-19.41 46.98,-22.24 60.08,-38.22 10.88,-13.27 32.72,-16.89 54.04,-25.01 17.76,-6.76 12.27,-10.31 26.58,-20.35 28.92,-20.29 12.89,-46.39 13.99,-80.44 1.39,-43.16 18.07,-56.01 22.47,-77.69 3.51,-17.24 1.62,-26.5 8.87,-42.54 4.87,-10.78 10.67,-18.63 17.63,-29.38 10.34,-15.98 9.63,-15.31 13.63,-38.24 1.21,-6.94 1.59,-9.56 2.96,-19.22l10.93 -40.28c6.71,-40.51 6.06,-80.56 6.8,-123.15 0.95,-55.4 -20.44,-79 -20.57,-129.18l-14.45 -170.58c-1.29,-4.92 -3.61,-26.11 -3.89,-42.19l-15.35 3.84 2.42 -10.83c-0.05,-1.05 -0.06,-2.47 -0.22,-3.6 -0.96,-6.66 -2.48,-8.27 -6.87,-15.3l-3.66 -5.26c-6.89,-10.14 -8.1,-8.92 -9.42,-23.32 -1.99,-21.68 3,-22.49 -6.57,-38.5 -8.4,-14.05 -11.93,-6.86 -13.24,-24.76 -0.75,-10.15 0.57,-18.46 -3.14,-31.35 -6.33,-22.03 -8.44,-9.17 -12.84,-30.86 -1.85,-9.12 -0.22,-10.35 -3.47,-19.08 -0.36,-0.97 -0.96,-2.01 -1.37,-2.92l-6.32 -10.18c-2.69,-5.78 -8.23,-27.32 -9.96,-32.92 -1.85,-6 -2.59,-9.65 -3.82,-13.44l-6.78 -14.69c-6.17,-10.92 -1.06,4.9 -6.52,-14.43 -2.69,-9.49 -0.64,-7.2 -4.66,-17.42l-32.96 -113.72c-23.59,-84.29 -11.94,-168.68 -19.15,-256.16 -3.87,-46.89 -5.49,-113.77 -10.44,-156.92 -5.5,-47.86 8.35,-136.06 -14.14,-172.69l-18.73 -45.29c-12.94,-28.67 -33.46,-17.66 -55.26,-30.28l-0.52 -29.05 28.67 -0.86c10.16,1.88 7.76,2.55 9.7,3.24 31.22,11.26 50.19,12.24 69.39,18.15 23.6,7.26 7.62,12.49 33.55,13.68 76.24,3.52 99.47,15.11 163.96,16.39l330.97 7.83c47.87,-4.97 100.07,-12.35 150.05,-25.98 28.07,-7.66 21.4,-9.35 69.51,-20.32l107.18 -49.6c26.28,-20.37 52.42,-32.14 72.14,-58.86 9.34,-12.64 1.04,-3.22 9.12,-9.96 11.28,-9.4 1.44,2.91 11.94,-9.89l18.24 -29.23c10.72,-8.83 2.48,0.01 14.17,-6.47 24.05,-13.33 0.47,-16.68 26.86,-22.21l4.22 13.83c1.1,6.21 -0.45,6 1.67,14.86 3.47,14.57 7.62,14.86 19.06,20 43.24,19.4 23.14,23.11 46.28,61.52l22.3 55.29c7.7,24.43 -5.62,11.44 17.04,20.4l0.45 41.05c13.78,-5.58 9.01,-8.1 13.95,-21.52 10.79,21.94 -14.73,6.47 3.89,82.78 12.42,50.93 -0.78,115.59 18.89,167.47 4.95,13.05 4.36,33.1 5.63,49.4l27.37 150.06c4.24,17.86 0.37,2.48 5.08,12.69l24.31 86.76c3.77,34.38 3.87,65.24 4.52,103.75 0.44,26.36 -6.85,30.74 -7.3,47.4 -0.32,12.26 9.59,25.8 6.76,37.38l-15.03 91.68c0.17,61.73 -14.86,98.37 -17.33,142.07 -1.96,34.63 -16.21,78.25 -26.67,113.47l-25.9 61.84c-1.06,2.44 -3.41,6.44 -3.5,6.68l-4.98 17.23c-6.41,14.51 -1.25,-9.28 -8.06,16.56l-14.54 73.37c-1.87,30.46 12.16,58.19 22.48,85.14 4.26,11.14 20.37,18.1 25.28,30.42 8.69,21.82 -6.11,25.86 15.25,41.68 -4.27,7.99 4.32,-8.56 -4.31,4.24l-4.08 8.81c23.19,10.88 104.21,5.23 125.84,16.82 27.39,14.68 81.07,32.14 112.98,38 18.32,3.37 5.25,0.48 15.39,5.4 16.45,7.99 34.05,27.33 54.15,17.23 12.74,30.07 26.56,28.94 40.47,47.8 0.25,0.35 2.85,5.75 4.21,7.73 6.64,5.14 13.92,0.86 21.09,6.06l4.34 3.77c20.81,14.69 51.64,6.29 72.3,4.63 13.13,-1.05 26.9,1.03 42.19,-0.14 1.84,-25.31 0.3,-9.92 -4.67,-19.42l-52.12 -98.94c-0.45,-0.92 -1.03,-1.99 -1.49,-2.91l-2.94 -5.78c-2.05,-4.11 -7.44,-14.68 -10.85,-18.63 -17.45,-20.16 -28.08,-47.02 -41.47,-71.41 -16.15,-29.41 -28.85,-40.34 -56.06,-53.36 1.74,-16.73 6.53,-12.1 1.37,-28.26 -5.02,-15.75 -14.23,-18.98 -20.06,-32.17l-11.63 -19.32c-0.54,-0.72 -1.34,-1.69 -1.87,-2.41 -14.98,-20.36 -22.61,-38.18 -32.83,-62.18l-8 -17.71c-0.4,-1.02 -0.83,-2.14 -1.21,-3.19l-11.41 -31.25c-3.25,-9.36 -3.04,-18.11 -7.21,-28.3 -4.67,-11.41 -0.44,2.98 -5.35,-10.41l-15.71 -79.6c-4.83,-20.72 -3.91,-43.2 -7.21,-66.32 -1.66,-11.61 -4.42,-21.56 -5.7,-28.47 -3.43,-18.63 2.19,-11.83 -1.13,-28.81l-59.64 -30.65c-45.59,-27.7 -71.91,-70.85 -54.04,-127.42 5.31,-16.79 9.35,-17.87 19.89,-28.3 13.39,-13.23 8.68,-10.89 27.14,-21.63 -0.53,-58.77 -24.22,-107.64 -24.28,-168.31 -0.01,-14.52 2.28,-12.54 -4.36,-24.48 -11.7,-21.02 1.96,-3.11 -17.19,-14.05l-8.19 -93.59c-3.87,-14.56 -6.16,-5.93 -8.73,-27.14 -2.81,-23.19 -3.59,-34.16 -6.87,-56.1 -14.42,-96.34 -7.22,-66.96 -37.44,-165.79 -11.56,-37.8 6.14,-7.33 -29.16,-99.08 -7.14,-18.54 -10.57,-30.64 -17.34,-49l-72.85 -128.61c-7.76,-9.83 -7.97,-6.35 -15.82,-14.76 -12.17,-13.03 -12.35,-20.31 -22.42,-29.49 -8.04,-7.31 -12.04,-20.67 -21.76,-29.63l-55.26 -48.15c-15.86,-14.86 -3.14,-4.94 -13.08,-20.51 -20.62,3.96 2.16,0.58 -17.24,5.65 -2.17,-3.49 -16.18,-31.41 -55.78,-49.67 -27.03,-12.46 -85.44,-51.91 -148.01,-67.41 -38.32,-9.49 -66.46,-34.16 -132.41,-32.74 -32.49,0.69 -24.37,-4.22 -47.67,-7.21 -27.84,-3.56 -19.94,0.27 -45.88,-7.28 -20.4,-5.95 -72.85,1.29 -100.46,2.14 -22.74,0.7 -28.82,4.7 -51.42,5.85 -43.12,2.19 -60.77,7.39 -99.1,12.77 -43.52,6.1 -167.21,40.73 -204.94,61.76 -21.38,11.93 -39.33,11.29 -57.24,24.47 -13.58,10 -3.32,3.14 -19.21,10.53 -23.09,10.74 -37.25,34.06 -62.62,44.79 -7.64,3.23 -11.01,2.78 -19.23,7.07l-49.92 32.53c-15.45,9.41 -12.46,18.47 -25.47,30.4 -14.1,12.92 -19.27,11.29 -27.17,17.51 -3.1,2.45 -1.36,-0.59 -5.24,5.09 -7.05,10.33 -2.52,14.33 -17.75,30.7 -9.97,10.71 -6.58,16.63 -16.3,26.57 -12.98,13.26 -17.56,8.38 -22.78,33z"/>
   <path class="fil3" d="M2324.66 3510.32c13.79,0.16 67.49,11.46 77.83,26.61l2.54 5.49c14.72,-11.87 -6.29,-13.42 28.21,-7.23l64.08 14.59c23.03,6.98 12.65,-0.59 19.73,17.52 32.83,-11.9 -30.99,-15.34 59.75,1.51 37.26,6.92 33.49,6.69 60.93,21.67 25.77,-18.9 15.13,-4.32 71.93,-2.52 18.11,0.57 55.82,4.01 76.69,8.56l88.84 100.74c14.54,14.99 47.16,35.87 61.89,52.15 -41.47,49.19 -69.7,53.92 -112.9,78.46 -14.73,8.36 -36.24,9.35 -54.62,14.34 -62.72,17.03 -72.56,-7.41 -139.44,-46.12 -41.07,-23.76 -31.78,-16.67 -35.49,-32.8 -9.11,0.34 -19.32,1.14 -28.91,1.58 -22.2,1.03 -5.15,1.78 -22.8,-4.38 -3.42,3.48 -9.8,21.3 -33.19,10.44 -0.94,-0.43 -2.06,-1.09 -2.93,-1.59l-5.02 -3.8c-0.85,-0.67 -3.04,-3.3 -4.17,-4.19 -7.37,15.95 -28.13,8.68 -54.73,-2.21 -31.57,-12.94 -59.7,-23.63 -84.04,-45.23 -5.74,-5.1 -5.01,-4.92 -10.44,-11.29l-22.67 -42.95c-8.52,-26.84 -2.81,-10.63 5.26,-30.92 -20.55,-43.69 -10.59,-2.15 -13.93,-53.82 -2.07,-32.04 -1.34,-36.17 7.6,-64.61zm1131.83 -361.9l92.38 94.93c14.59,14.73 19.22,18.51 32.44,32.03 14.97,15.29 13.7,21.7 25.14,35.36 29.22,34.9 53.51,28.7 70.52,122.9 9.88,54.76 17.59,293.21 -36.34,323.34 -17.85,9.96 -27,17.09 -41.68,23.02 -40.08,16.19 -209.62,59.44 -250.92,61.32 -82.54,3.76 -126.1,3.94 -204.77,-36.7 -26.27,-13.58 -1.24,-5.86 -41.02,-19.65 -87.81,-30.45 -61.86,-23.97 -132.2,-61.52 -32.09,-17.13 -18.4,-11.29 -35.37,-25.31l-34.47 -30.2c-5.54,-5.04 -8.41,-7.96 -15.48,-14.52 -4.67,-4.33 -5.59,-4.57 -9.41,-7.95 -16.06,-14.19 -30.31,-27.93 -36.94,-48.46 131.77,-8.75 209.74,3.18 350.81,-50.29 18.14,-6.88 29.35,-10.77 45.91,-18.84 48.08,-23.43 169.67,-104.16 184.13,-151.7 3.84,-12.67 2.8,-40.53 6.92,-57.9 18.02,-75.9 21.43,-140.53 24.83,-155.16l3.84 -11.07c0.37,-0.97 0.96,-2.51 1.68,-3.63zm-1226.92 -699.5c50.43,-15.84 125.36,6.6 146.29,7.67 19.35,0.99 9.84,-0.38 27.07,6.25 29.4,11.32 78.35,27.61 95.04,47.58 24.02,28.75 44.13,20.61 58.36,48.92 8.16,16.24 1.28,14.75 9.72,25.33 7.69,9.66 24.07,1.05 20.09,52.23l-99.05 -34.25c-32.31,-13.2 -177.45,-64.09 -195.48,-80.06 -15.78,-13.97 0.33,-5.93 -33.1,-35.8 -4.04,-3.61 -13.04,-13.43 -16.45,-18.09 -5.63,-7.71 -8,-13.66 -12.49,-19.78zm-260.84 -200.1c-4.52,12.75 -17.53,78.87 -5.32,106.41 10.87,24.52 34.98,58.02 51.52,77.8 17.39,20.77 38.96,42.47 62.75,66.67 15.22,15.46 25.74,36.92 46.6,60.57l10.25 12.71c-15.77,30.71 -26.28,32.6 -65.98,31.05 -40.3,-1.57 -81.44,-54.85 -106.94,-83.37 -8.2,-9.17 -13.38,-13.39 -23.57,-23.64 -10.66,-10.74 -11.06,-15.21 -29.8,-19.82 1.03,22.02 9.19,38.03 21.38,54.11 6.58,8.68 12.13,12.54 18.67,20.17 29.4,34.25 38.47,35.45 57.11,54.82 8.04,8.37 9.88,13.53 11.91,27 9.17,60.72 -34,59.19 -78.37,26.51 -5.8,-4.28 -8.54,-6.8 -14.45,-11.22 -54.01,-40.38 -24.32,-24.6 -86.05,-60.32l-67.25 -53.65c-22.93,-24.07 -13.5,-1.52 -30.58,-29.59 -7.45,-12.24 3.38,-2.18 -10.8,-8.25 -4.37,-1.86 -0.26,2.23 -7.81,-3.58l-9.22 -13.44c-0.57,-0.6 -7.42,-5.56 -8.68,-6.5 -28.04,-20.85 -5.15,-13.28 -63.76,-53.62 -13.7,-9.42 -4.29,-3.5 -14.16,-15.96 -25.62,-32.34 -21.33,-23.82 -19.68,-97.89 1.64,-73.9 3.83,-57.25 21.54,-99.51 42.96,-6.38 78.64,8.46 114.21,-0.14 34.35,-8.31 3.38,1.03 29.31,2.09 11.43,-13.47 7.48,-1.42 15.16,-15.58 1.08,-1.99 5.63,-57.78 53.21,-54.77l188.29 -10.71c34.68,-12.18 92.95,-8.84 134.4,-17.22 10.73,-2.17 21.13,-4.89 33.67,-5.97 17.91,-1.54 14.38,1.39 32.44,2.34 37.98,2 12.02,-3.31 56.02,18.52 31.86,15.8 86.8,92 108.19,119.63 25.54,33 38.71,40.55 53.78,96.52 7.72,28.67 37.51,98.74 31.56,114.5l-44.38 -18.53c-15.22,-5.34 -37.55,-6.62 -48.73,-20.92 -33.47,-42.81 17.4,-132 -27.36,-126.93 -17.17,1.94 -19.29,26.33 -20.28,42.33 -1.69,27.48 0.46,54.89 3.91,82.18 -69.45,-12.02 -81.8,-4.18 -135.43,5.14 -8.37,-38.43 -33.44,-56.33 -46.18,-118.64 -4.16,-20.3 -2.13,-12.26 -0.72,-26.61 1.76,-17.87 -0.53,-75.62 -11.07,-98.69 -16.96,8.6 -16.2,26.61 -16.91,53.34 -3.1,114.7 -2.33,100.11 44.35,198.6 10.84,22.88 31.39,44.35 49.82,67.68 10.53,13.33 40.2,39.12 46.25,56.73 9.94,28.93 -26.84,90.77 -88.79,46.09 -10.7,-7.71 -10.05,-11.69 -14.1,-24.5 -11.96,-37.82 -14.71,-12.07 -44.82,-63.5 -0.49,-0.84 -1.19,-1.87 -1.69,-2.7l-42.79 -51.85c-13.07,-12.8 -26.13,-24.75 -39.55,-38.17 -13.5,-13.48 -24.33,-33.16 -35.49,-46.47 -13.43,-16.01 -3.89,1.52 -8.34,-22.58 -2.39,-12.96 -6.35,-21.36 -7.74,-33.69 -1.46,-12.99 -0.07,-24.78 -3.34,-36.18l-16.17 -28.8zm-223.02 -67.24c-19.78,-5.2 -113.26,-15.86 -133.61,-4.71 -30.49,16.72 -28.85,82.58 -43.07,110.96 -27.61,-4.94 -44.03,-16.39 -68.69,-25.47 -22.12,-8.16 -49.21,-15.43 -72.02,-22.3 -31.55,-9.5 -136.84,-28.53 -168.83,-25.14 8.09,-21.84 6.05,-15.82 27.35,-32.13 0.69,-0.54 1.71,-1.31 2.39,-1.85 0.69,-0.54 1.67,-1.35 2.35,-1.9 22.64,-18.45 42.58,-35.42 74.17,-43.28 58.59,-14.56 93.12,-77.52 293.84,-66.93 12.46,0.66 124.79,24.84 135.33,32.06 6.42,4.39 2.67,1.51 6.85,6.69 -12.47,23.41 -15.14,-4.09 -56.06,74zm-523.02 30.43l-91.73 2.6c26.63,-37.27 71.57,-80.7 108.69,-108.95 12.82,-9.76 25.74,-21.68 41.49,-31.84 53.32,-34.38 152.24,-73.32 213.83,-83.65 136.8,-22.93 249.11,-15.41 371.16,44.03 26.07,12.7 84.32,35.27 92.72,61.61 -7.4,2.38 -85.58,12.18 -105.43,8.22 -43.08,-8.59 0.34,-24.64 -86.27,-39.7 -34.07,-5.93 -69.55,-20.17 -99.03,-23.35 -36.56,-3.95 -82.67,1.29 -120.46,4.4 -78.62,6.49 -120.94,28.47 -183.78,59.65 -49.68,24.66 -113.28,55.51 -141.19,106.98zm629.72 -811.98l70.07 36c25.21,13.59 30.85,12.43 63.46,26.19 22.39,9.44 70.07,32.69 87.34,35.53 93.55,15.37 119.86,39.33 237.79,24.63 20.49,-2.56 20.53,-5.66 35.02,-9.26l27.02 48.87c46.42,100.59 53.79,106.86 87.13,222.99 5.72,19.92 7.21,11.17 20.19,57.43 8.01,28.57 11.62,27.15 16.54,62.23 3.04,21.69 13.07,30.49 19.32,58.1l20.57 95.17c22.07,69.79 11.24,51.32 19.14,95.98 4.68,26.49 12.64,30.3 14.28,61.95l6.97 227.86c-0.25,22.31 4.74,62.69 3.01,76.1 -24.18,-26.1 -42.6,-1.64 -56.4,-47.32 -4.52,-15 -10.27,-28.43 -13.51,-42.76 -8.08,-35.68 -32.67,-136.92 -58,-167.1l-47.19 -64.73c-14.48,-18.36 -35.82,-48.86 -51.62,-60.26 -10.31,-7.44 -6.33,-2.07 -14.93,-10.8 -14.4,-14.6 -63.02,-55.7 -81.31,-59.4 -39.56,-8.02 -59.75,11.67 -102.21,4.98l-155.88 -278.58c-0.51,-0.75 -1.3,-1.72 -1.83,-2.45 -0.54,-0.74 -1.37,-1.69 -1.93,-2.41l-67.13 -96.94c-15.57,-26.85 -22.97,-60.71 -31.24,-89.98 -16.92,-59.92 -45.97,-137.11 -44.67,-202.02zm67.75 -325.38c3.62,-2.69 12.78,-13.27 14.53,-14.73 3.1,-2.59 7.37,-4.56 10.47,-6.77 27.72,-19.75 2.06,-14.82 21.13,-20.07l-2.05 116.73c-14.98,-4.66 -5.64,-3.86 -13.88,-17.96l-30.94 -33.88c-4.44,-3.66 -12.46,-7.04 -18.33,-11.69l19.07 -11.63zm-563.14 -78.47c3.02,-27.16 52.62,-70.29 74.56,-74.3 -7.81,41.63 -1.07,33.63 11.67,64.53l-86.23 9.77zm472.32 106.38c38.69,17.82 66.44,7.88 88.16,47.9l-124.39 1.65c-7.86,-14.8 -5.9,-16.62 -8.75,-35.62 -5.26,-34.99 -18.66,-65.93 -26.17,-108.29 19.98,-12.91 41.06,-30.71 65.87,-46.43l104.07 -68.33c12.04,-7.3 25.64,-14.62 37.46,-22.63 45.81,-31.03 55.84,-71.95 145.57,-87.05 49.36,-8.31 130.3,29.98 174.26,51.66 62.17,30.65 104.46,54.91 157.25,101.06 16.35,14.3 27.94,33.68 40.51,50.14l52.85 62.96c14.37,18.95 38.61,41.76 53.25,63.48 5.46,8.11 3.91,8.18 9.75,16.11l100.55 132.13c5.73,6.88 7.11,11.37 11.58,18.47l25.98 34.49c18.09,23.35 36.67,39.09 50.5,65.78 21.52,41.53 46.27,67.72 66.06,106.11l301.35 573.28 85.02 203.96c29.16,79.92 50.52,127.69 77.14,216.34 9.41,31.35 16.97,57.44 25.45,90.45l63.24 292.83 12.53 196.93c-0.34,73.66 -18.36,241.63 -41.48,308.46 -4.32,12.49 -14.42,19.51 -25.5,30.19 -3.97,3.83 -2.98,2.89 -6.62,6.43 -47.84,46.57 -104.07,88.91 -171.64,107.72 -95.23,26.52 -223.14,59.11 -321.69,48.32l-84.53 -6.29c-60.03,-1.48 -149.79,-13.32 -205.16,-27.52 -12.09,-3.1 -33.45,-7.85 -45.58,-9.64l-93.6 -23.28c-32.67,-11.23 -118.49,-20.68 -136.9,-40.14 -12.78,-13.53 -4.64,-21.55 -32.39,-16.03 -18.01,3.58 -19.54,0.67 -41.6,-8.53 -50.77,-21.17 -78.65,-79.32 -114.83,-117.71 -26.51,-28.14 -44.82,-75 -62.66,-109.71 -44.78,-87.14 -50.14,-186.52 -29.53,-283.82l56.09 -120.79c23.39,-36.77 48.37,-65.37 76.74,-95.64 88.5,-94.43 60.76,-37.79 116.24,-61.36 27.89,-11.86 41.44,-32.42 56.43,-57.9 28.41,-3.69 48.43,7.51 71.44,17.97l206.64 73.56c9.08,91.3 16.55,177.64 44.79,264.51 8.86,27.25 28.11,54.21 47.73,62.87l20.04 -13.92c-4.32,-16.94 -10.5,-12.86 -17.72,-29.26 -16.48,-37.39 -25.78,-67.56 -33.95,-109.14 -20.79,-105.76 -11.43,-68.57 -21.43,-168.01l-10.68 -129.89c0.25,-16.28 0.21,-21.18 -1.63,-38.63 -8.39,-79.57 -1.57,-179.52 -8.7,-263.12l-39.9 -248.8c-2.74,-17.25 -11.85,-26.4 -14.47,-47.19 -3.8,-30.09 -46.76,-160.45 -59.49,-200.34l-69.69 -171.83c-13.24,-26.52 -20.28,-38.35 -34.36,-61.32 -20.27,-33.08 -14.15,-37.48 -61.37,-34.97 -149.37,7.94 -234.9,-16.71 -356.74,-67.93 -19.58,-8.23 -10.93,-9.02 -29.89,-17.7 -21.87,-10.03 -43.46,-19.9 -64.2,-30.6 -35.93,-18.54 -125.43,-61.27 -142.82,-98.6 -5.37,-11.53 -7.01,-25.41 -2.47,-39.33 7.7,-23.62 40.48,-37.62 67.59,-43.9 0.82,-0.18 2.06,-0.38 2.87,-0.52 24.92,-4.22 78.82,-7.31 111.89,-1.08 20.55,3.88 12,9.83 34.54,17.77 28.81,-11.01 -1.45,-15.19 34.12,-14.38 11.24,0.25 23.46,2.34 36.66,2.9 23.22,0.97 42.86,4.61 61.52,-7.35 15.57,-9.98 7.95,4.1 11.33,-12 -13.05,-13.24 -68.78,-17.25 -92.15,-17.91 -8.86,-45.98 11.63,-162.46 -2.29,-196.08 -10.88,-26.23 -27.05,19.51 -31.56,24.68l-40.59 46.06c-22.51,25.89 -38.68,16.26 -61.09,41.53 -5.41,6.11 -1.78,3.45 -9.67,8.58 -11.65,7.57 -22.04,8.7 -25.18,23.23zm-280.48 -143.59c1.82,-30.57 -3.72,-38.24 -13.95,-58.64 27.63,3.29 62.89,22.83 70.49,45.52l-56.54 13.12zm-1023.63 -371.7c82.15,19.81 182.96,46.78 268.35,51.98 24.37,1.48 51.46,5.11 77.34,5.32 158.63,1.3 318.88,-26.4 449.58,-108.58 67.9,-42.69 73.75,-47.76 131.99,-104.99 13.47,-13.25 21.36,-31.09 34.66,-41.96 45.56,70.84 77.35,210.21 78.59,311.36 -23.02,-1.04 -53.14,9.96 -71.9,17.59 -23.65,9.61 -36.13,21.15 -56.63,33.49 -35.51,21.38 -40.02,11.47 -76.6,57.68 -8.6,10.87 -13.97,12.68 -7.05,27.49 24.41,13.83 33.76,-9.64 46.66,-22.53 20.18,-20.17 113.52,-72.32 151.87,-78.66l-2.87 -4.86c-7.04,-13.84 -5.08,3.24 -1.74,-5.88 12.35,-3.46 7.1,-3.27 21.15,-4.06l18.3 123.6c6.33,20.47 5.93,17.44 8.23,41.24 -53.47,-17.47 -88.65,-31.62 -150.07,-9.89 -40.76,14.42 -75.27,44.24 -99.22,75.74 -2.24,-18.17 -6.94,-48.27 -9.86,-54.06 -31.53,-4.64 -26.67,6.47 -26.24,38.17 1.2,87.85 42.03,158.93 53.16,205.57 8.82,36.99 40.76,99.53 47.38,144.06 -18.74,12.83 -68.7,35.91 -94.84,47.73 -52.39,23.67 -95.96,11.77 -109.93,33.56 6.54,14.76 -6.39,3.75 12.09,12.79 17.7,8.67 115.64,-16 125.56,-19.21 17.26,-5.58 86.69,-47.14 102.31,-62.53 -1.97,-67.6 -74.09,-215.85 -79.85,-272.03 29.28,-1 88.53,-15.95 125.75,-20.72 23.42,-2.99 33.44,-10.52 58.52,-14.74 19.78,-3.33 41.66,-5.22 62.2,-7.72 13.92,18.36 9.92,16.39 15.79,40.5 22.24,91.47 19.1,248.61 2.24,336.53 -10.62,55.35 -29.85,161.58 -44.72,214.1 -13.75,48.58 -54.23,142.51 -83.3,178.74 -29.81,37.16 -23.91,34.04 -51.62,51.62 -115.67,73.38 -199.57,65.38 -334.7,44.8 -189.69,-28.88 -272.99,-94.47 -360.52,-263.34 -23.45,-45.24 -31.16,-62.2 -45.46,-109.27 -5.24,-17.26 -8.81,-21.44 -14.69,-37.94 -21.95,-61.58 -73.91,-261.52 -82.01,-334.62 -3.6,-32.46 -6.56,-53.45 -10.72,-84.42 -11.56,-86.05 -3.63,-182.21 -26.58,-276.37 -4.39,-18.03 -7.4,-18.39 -11.09,-39.71 -2.91,-16.86 -7.31,-25.13 -12.16,-40 -8.19,-25.1 -25.97,-53.2 -27.35,-75.57zm1008.73 1189.17c1.58,11.5 0.55,15.11 1.25,24.98 3.21,44.81 46.06,65.98 58.45,141.3 -57.74,-0.36 -113.79,15.35 -166.14,26.3 -12.42,2.6 -27.1,7.39 -37.34,11.93l-26.56 12.1c-95.36,36.74 -74.29,41.21 -103.73,55.63 -34.62,16.97 -112.18,86.35 -133.7,111.8 -16.06,18.99 -23.82,39.16 -39.61,59.14 -21.49,5.24 -45.23,4.54 -66.12,10.87 -49.72,15.06 -124.74,25.98 -182.32,55.89 -35.33,18.36 -23.15,2.03 -59.61,9.77l-120.95 37.79c-20.3,9.52 -32.86,20.15 -58.68,24.09 10.83,-26.43 3.4,-62.16 19.3,-115.08 30.16,-100.32 60.37,-124.52 61.74,-208.46 0.73,-44.84 13.2,-87.74 7.72,-128.96l-17.24 -107.18c-9.11,-78.61 -1.05,-169.18 -32.99,-233.32l-105.38 -303.38c-19.78,-78.96 -36.45,-140 -45.69,-227.25 -4.65,-43.79 1.54,-89.99 0.06,-133.52 -3.11,-91.87 -16.94,-157.59 -16.85,-258.44 0.01,-18.61 -4.43,-41.64 -9.16,-60.08 -4.86,-18.97 -14.26,-33.29 -15.97,-54.14l25.69 2.44c1.4,0.2 2.45,0.34 3.78,0.57 1.24,0.21 2.33,0.44 3.5,0.68l35.43 7.3c122.05,21.14 426.91,33.02 521.13,21.12 48.2,-6.08 89.1,-21.84 128.33,-31.77 21.78,-5.51 42.44,-7.96 65.23,-13.21 39.52,-9.11 31.85,-14.34 54.33,-26.1 54.85,-28.69 99.76,-58.24 140.18,-101.59 9.09,-9.74 29.03,-39.7 39.63,-39.51 21.9,0.39 -15.28,33.77 -19.21,38.33 -7.44,8.61 -9.89,11.42 -18.07,20.84 -4.99,5.75 -5.66,6.89 -9.99,11.68 -48.03,53.14 -110.52,90.17 -176.42,120.43 -14.63,6.73 -8.91,8.09 -29.05,15.24 -39.86,14.16 -83.81,26.16 -123.84,35.48 -95.54,22.24 -190.57,17.64 -287.57,11.64 -93.79,-5.8 -188.85,-30.48 -284.53,-38.21 -71.67,-5.8 -3.08,45.68 25.97,191.74 7.38,37.1 12.07,40.92 13.26,68.04 0.62,14.38 -0.12,6.44 1.52,15.11 6.56,34.49 7.42,114.14 9.01,157.02 0.68,18.59 6.81,49.29 9.13,70.21 7.57,68.46 45.27,267.79 68.55,328.33 20.06,52.18 15.21,56.36 43.23,120.69l25.77 56.19c8.36,18.21 15.01,36.05 25.72,51.55l30.91 51.16c38.13,56.65 97.11,129.27 158.85,160.47 51.2,25.87 79.25,25.63 122.34,36.96 82.22,21.63 223,43.39 314.18,15.61 36.43,-11.09 27.68,-4.39 57.36,-20.02 70.63,-37.19 60.14,-36.72 115.17,-90.2zm-1109.29 -1200.65c22.49,36.63 8.64,124.83 14.14,172.69 4.95,43.15 6.57,110.03 10.44,156.92 7.21,87.48 -4.44,171.87 19.15,256.16l32.96 113.72c4.02,10.22 1.97,7.93 4.66,17.42 5.46,19.33 0.35,3.51 6.52,14.43l6.78 14.69c1.23,3.79 1.97,7.44 3.82,13.44 1.73,5.6 7.27,27.14 9.96,32.92l6.32 10.18c0.41,0.91 1.01,1.95 1.37,2.92 3.25,8.73 1.62,9.96 3.47,19.08 4.4,21.69 6.51,8.83 12.84,30.86 3.71,12.89 2.39,21.2 3.14,31.35 1.31,17.9 4.84,10.71 13.24,24.76 9.57,16.01 4.58,16.82 6.57,38.5 1.32,14.4 2.53,13.18 9.42,23.32l3.66 5.26c4.39,7.03 5.91,8.64 6.87,15.3 0.16,1.13 0.17,2.55 0.22,3.6l-2.42 10.83 15.35 -3.84c0.28,16.08 2.6,37.27 3.89,42.19l14.45 170.58c0.13,50.18 21.52,73.78 20.57,129.18 -0.74,42.59 -0.09,82.64 -6.8,123.15l-10.93 40.28c-1.37,9.66 -1.75,12.28 -2.96,19.22 -4,22.93 -3.29,22.26 -13.63,38.24 -6.96,10.75 -12.76,18.6 -17.63,29.38 -7.25,16.04 -5.36,25.3 -8.87,42.54 -4.4,21.68 -21.08,34.53 -22.47,77.69 -1.1,34.05 14.93,60.15 -13.99,80.44 -14.31,10.04 -8.82,13.59 -26.58,20.35 -21.32,8.12 -43.16,11.74 -54.04,25.01 -13.1,15.98 -36.92,18.81 -60.08,38.22 -7.8,6.53 -0.68,-0.44 -6.32,6.62 -10.36,12.97 -21.07,17.97 -35.17,29.34 -0.74,0.6 -1.76,1.36 -2.51,1.94l-60.15 60.24c-4.42,5.68 -4.84,8.22 -8.42,13.36 -12.7,18.26 -16.71,10.2 -27.07,32.29 -0.46,0.99 -1.01,2.07 -1.49,3.06 -1.93,4.08 -1.1,1.21 -4.57,9.09l-10.66 23.58c-11.19,17.93 -9.58,33.17 -16.88,52.14l-8.46 1.72c-0.64,-0.52 -1.83,-1.45 -2.51,-1.99l-9.59 -7.45c-0.25,-20.03 -0.5,-52.21 -5.78,-67.55 -9.68,-28.07 -2.67,-66.07 -3.31,-105.07 -0.56,-33.76 -9.11,-33.57 -11.47,-81.52 -2.28,-46.3 -11.25,-83.54 -19.23,-125.8 -5.85,-31 -13.56,-84 -27.23,-108.88l-6.41 -18.37c-0.03,-1.36 1.51,-13.59 1.8,-18.13 3.22,-48.83 -7.74,-92.27 -10.4,-134.02 -7.29,-114.45 -23.95,-228.6 -31.73,-349.11 -2.39,-36.95 -10.22,-47.88 -14.56,-77.38 -3.7,-25.16 -2.57,-62.38 -9.6,-86.41 -5.77,-19.72 -6.21,-61.92 -8.95,-85.74 -7.6,-66.11 -2.45,-34.29 -27.09,-69.27l5.76 -2.2c0.54,-0.17 2.07,-0.59 2.59,-0.74 3.73,-1.11 0.56,11.47 4.35,-1 0.21,-0.7 1.3,-0.11 1.88,-0.38 -2.57,-19.2 1.52,-40.25 -2.93,-58.66 -4.08,-16.9 -3.83,6.13 -5.96,-23.07 -2.56,-35.15 2.1,-68.56 -8.78,-102.57 -15.58,-48.73 2.95,-272.21 -4.64,-332.23 -4.01,-31.72 -0.4,-37.84 7.41,-71.77 11.13,-48.31 2.68,-78.62 25.53,-146.72 8.05,-23.97 3.11,-48.58 14.01,-72.3 5.51,-11.99 7.86,-19.08 10.02,-27.3 4.13,-15.74 -0.99,-17.94 3.93,-27.69 6.55,-12.95 10.22,-7.79 18.98,-23.29 3.98,-7.05 4.13,-7.15 7.61,-13.96 1.6,-3.16 2.49,-5.3 4.27,-9l14.2 -28.23c0.44,-0.85 1.08,-1.92 1.52,-2.79 6.74,-13.2 8.8,-20.34 7.5,-36.41l10.32 6.74c1.47,1 -3.37,1.38 2.62,1.78 5.22,-24.62 9.8,-19.74 22.78,-33 9.72,-9.94 6.33,-15.86 16.3,-26.57 15.23,-16.37 10.7,-20.37 17.75,-30.7 3.88,-5.68 2.14,-2.64 5.24,-5.09 7.9,-6.22 13.07,-4.59 27.17,-17.51 13.01,-11.93 10.02,-20.99 25.47,-30.4l49.92 -32.53c8.22,-4.29 11.59,-3.84 19.23,-7.07 25.37,-10.73 39.53,-34.05 62.62,-44.79 15.89,-7.39 5.63,-0.53 19.21,-10.53 17.91,-13.18 35.86,-12.54 57.24,-24.47 37.73,-21.03 161.42,-55.66 204.94,-61.76 38.33,-5.38 55.98,-10.58 99.1,-12.77 22.6,-1.15 28.68,-5.15 51.42,-5.85 27.61,-0.85 80.06,-8.09 100.46,-2.14 25.94,7.55 18.04,3.72 45.88,7.28 23.3,2.99 15.18,7.9 47.67,7.21 65.95,-1.42 94.09,23.25 132.41,32.74 62.57,15.5 120.98,54.95 148.01,67.41 39.6,18.26 53.61,46.18 55.78,49.67 19.4,-5.07 -3.38,-1.69 17.24,-5.65 9.94,15.57 -2.78,5.65 13.08,20.51l55.26 48.15c9.72,8.96 13.72,22.32 21.76,29.63 10.07,9.18 10.25,16.46 22.42,29.49 7.85,8.41 8.06,4.93 15.82,14.76l72.85 128.61c6.77,18.36 10.2,30.46 17.34,49 35.3,91.75 17.6,61.28 29.16,99.08 30.22,98.83 23.02,69.45 37.44,165.79 3.28,21.94 4.06,32.91 6.87,56.1 2.57,21.21 4.86,12.58 8.73,27.14l8.19 93.59c19.15,10.94 5.49,-6.97 17.19,14.05 6.64,11.94 4.35,9.96 4.36,24.48 0.06,60.67 23.75,109.54 24.28,168.31 -18.46,10.74 -13.75,8.4 -27.14,21.63 -10.54,10.43 -14.58,11.51 -19.89,28.3 -17.87,56.57 8.45,99.72 54.04,127.42l59.64 30.65c3.32,16.98 -2.3,10.18 1.13,28.81 1.28,6.91 4.04,16.86 5.7,28.47 3.3,23.12 2.38,45.6 7.21,66.32l15.71 79.6c4.91,13.39 0.68,-1 5.35,10.41 4.17,10.19 3.96,18.94 7.21,28.3l11.41 31.25c0.38,1.05 0.81,2.17 1.21,3.19l8 17.71c10.22,24 17.85,41.82 32.83,62.18 0.53,0.72 1.33,1.69 1.87,2.41l11.63 19.32c5.83,13.19 15.04,16.42 20.06,32.17 5.16,16.16 0.37,11.53 -1.37,28.26 27.21,13.02 39.91,23.95 56.06,53.36 13.39,24.39 24.02,51.25 41.47,71.41 3.41,3.95 8.8,14.52 10.85,18.63l2.94 5.78c0.46,0.92 1.04,1.99 1.49,2.91l52.12 98.94c4.97,9.5 6.51,-5.89 4.67,19.42 -15.29,1.17 -29.06,-0.91 -42.19,0.14 -20.66,1.66 -51.49,10.06 -72.3,-4.63l-4.34 -3.77c-7.17,-5.2 -14.45,-0.92 -21.09,-6.06 -1.36,-1.98 -3.96,-7.38 -4.21,-7.73 -13.91,-18.86 -27.73,-17.73 -40.47,-47.8 -20.1,10.1 -37.7,-9.24 -54.15,-17.23 -10.14,-4.92 2.93,-2.03 -15.39,-5.4 -31.91,-5.86 -85.59,-23.32 -112.98,-38 -21.63,-11.59 -102.65,-5.94 -125.84,-16.82l4.08 -8.81c8.63,-12.8 0.04,3.75 4.31,-4.24 -21.36,-15.82 -6.56,-19.86 -15.25,-41.68 -4.91,-12.32 -21.02,-19.28 -25.28,-30.42 -10.32,-26.95 -24.35,-54.68 -22.48,-85.14l14.54 -73.37c6.81,-25.84 1.65,-2.05 8.06,-16.56l4.98 -17.23c0.09,-0.24 2.44,-4.24 3.5,-6.68l25.9 -61.84c10.46,-35.22 24.71,-78.84 26.67,-113.47 2.47,-43.7 17.5,-80.34 17.33,-142.07l15.03 -91.68c2.83,-11.58 -7.08,-25.12 -6.76,-37.38 0.45,-16.66 7.74,-21.04 7.3,-47.4 -0.65,-38.51 -0.75,-69.37 -4.52,-103.75l-24.31 -86.76c-4.71,-10.21 -0.84,5.17 -5.08,-12.69l-27.37 -150.06c-1.27,-16.3 -0.68,-36.35 -5.63,-49.4 -19.67,-51.88 -6.47,-116.54 -18.89,-167.47 -18.62,-76.31 6.9,-60.84 -3.89,-82.78 -4.94,13.42 -0.17,15.94 -13.95,21.52l-0.45 -41.05c-22.66,-8.96 -9.34,4.03 -17.04,-20.4l-22.3 -55.29c-23.14,-38.41 -3.04,-42.12 -46.28,-61.52 -11.44,-5.14 -15.59,-5.43 -19.06,-20 -2.12,-8.86 -0.57,-8.65 -1.67,-14.86l-4.22 -13.83c-26.39,5.53 -2.81,8.88 -26.86,22.21 -11.69,6.48 -3.45,-2.36 -14.17,6.47l-18.24 29.23c-10.5,12.8 -0.66,0.49 -11.94,9.89 -8.08,6.74 0.22,-2.68 -9.12,9.96 -19.72,26.72 -45.86,38.49 -72.14,58.86l-107.18 49.6c-48.11,10.97 -41.44,12.66 -69.51,20.32 -49.98,13.63 -102.18,21.01 -150.05,25.98l-330.97 -7.83c-64.49,-1.28 -87.72,-12.87 -163.96,-16.39 -25.93,-1.19 -9.95,-6.42 -33.55,-13.68 -19.2,-5.91 -38.17,-6.89 -69.39,-18.15 -1.94,-0.69 0.46,-1.36 -9.7,-3.24l-28.67 0.86 0.52 29.05c21.8,12.62 42.32,1.61 55.26,30.28l18.73 45.29zm255.33 3450.65l14.59 37.55 36.91 0 -24.22 -70.74c-0.71,-1.24 -10.09,-11.02 -14.11,-18.53 -9.55,-17.84 -7.18,-42.8 -8.68,-47.11l-25.11 -40.11c-17.63,-21.96 -29.6,-36.3 -41.55,-62.54 -2.36,-5.18 -2.63,-7.86 -5.29,-12.45 -8.52,-14.68 -8.65,-8.18 -14.23,-28.18 -5.85,-20.99 -43.36,-88.84 -49.62,-121.57 -10.14,-52.99 -35.45,-56.59 -72.38,-91.78 -7.25,-6.91 -7.57,-9.08 -17.04,-17.41 -18.81,-16.52 -39.26,-32.39 -52.79,-50.81 -11.11,-15.12 -4.72,-5.31 -18.42,-16.01 -13.27,-10.37 -17.87,-26.92 -28.87,-39.99l-31.51 -36.12c0.81,-0.76 2.48,-2.64 2.87,-1.75 0.37,0.84 2.24,-1.35 2.72,-1.64 26.18,-15.86 -10.1,-1.25 -20.13,-17.66 -3.36,-20.71 -2.1,-2.83 5.31,-17.94 -15.88,4.49 -8.68,11 -19.36,-7.23l-22.9 -45.82c-8.28,-19.78 3.17,-12.7 -13.66,-20.83l7.68 -10.66c0.44,-0.43 1.81,-1.33 2.2,-1.66 0.38,-0.33 1.58,-0.86 2.26,-1.44 -19.1,-14.02 -9.32,17.11 -20.83,-16.75 -4.52,-13.31 -6.14,-26.8 -12.88,-37.4 4.78,-16.43 5.76,-5.29 12.32,-18.15 -17.14,-7.35 -19.71,2.27 -27.11,-41.66 -4.46,-26.46 -0.08,-19.2 -6.48,-40.34 -2.56,-8.45 -3.47,-17.41 -4.65,-25.28 -3.38,-22.36 -0.52,-24.22 -5.26,-44.5 7.43,-4.54 7.78,-0.98 18.94,-4.4 -15.97,-16.66 -22.17,-2.45 -15.73,-71.62 2,-21.53 -4.54,-66.44 16.52,-67.85 -8.14,-8.41 -9.22,-1.33 -8.33,-19.76l25.11 -92.91c0.07,-0.29 -6.21,-22.56 14.21,-73.93 16.02,-40.31 18.52,-52.61 40.67,-92.65 24.05,-43.46 51.46,-77.41 88.09,-110.34l55.74 -43.58c54.27,-33.82 117.09,-71.56 173.15,-94.02 47.87,-19.18 129.38,-59.68 178.68,-57.33 34.17,1.64 64.2,-18.02 96.68,-28.95 77.07,-25.93 139.05,-39.06 219.5,-47.04 22.36,-2.22 37.52,-6.31 59.44,-6.63 21.76,-0.31 47.78,-0.69 69.1,-0.18 22.14,0.53 39.58,2.56 60.4,4.58 58.05,5.62 138.81,23.48 189.56,43.63 25.23,10.02 49.04,22.18 75.2,28.3 4.05,21.67 1.77,24.96 3.28,40.47 1.35,13.87 9.27,26.78 9.74,46.21 29.18,13.49 33.15,23.89 56.87,45.96 17.56,16.34 32.29,34.76 51.83,51.46 -31.39,19.96 -19.07,3.14 -60.51,40.37 -24.91,22.38 -29.23,25.36 -48.81,54.97 -2.5,3.78 -1.67,2.25 -5.08,8.16 -13.03,22.63 -18.9,16.93 -21.92,36.63 -0.65,4.22 -2.64,11.95 -5.38,17.59 -6.69,13.78 -10.7,17.27 -17.85,34.17 -8.47,20 -6.83,23.41 -25.11,30.03 1.04,0.98 3.87,4.26 4.33,5.14 0.37,0.71 1.37,2.04 1.78,2.95 8.74,19.3 2.17,36.31 31.23,25.53 5.89,-15.85 4.26,-25.43 19.27,-32.47 -12.15,-12.07 -1.82,-23.28 5.86,-36.99l14.93 -28c0.47,-0.89 0.99,-2.02 1.45,-2.93 0.47,-0.9 0.95,-2.06 1.42,-2.95 9.42,-17.83 -0.01,-12.47 21.67,-17.42l5.8 -34.98c17.61,-37.1 49.95,-70.81 93.54,-78.05 -13.15,24.83 -1.38,-0.42 -12.8,13.88 -10.65,13.34 -0.68,-1.07 -5.27,14.48 -10.58,35.84 -1.76,0.63 -22,10.11 21.55,25.67 -0.37,32.08 -5.93,77.28 -6.22,50.63 9.76,42.49 -17.5,85.57l10.43 7.4c3.93,4.29 5.75,8.19 7.28,14.76 4.86,20.95 5.02,89.13 30.43,90.03 34.68,1.23 -5.03,-58.68 7.09,-116.5 -5.15,-0.85 -4.71,0.08 -11.18,-2.49l-2.55 -31.87c4.93,-4.87 4.38,-0.57 13.82,-4.42 -4.03,-20.5 -1.06,-0.07 -5.98,-13.95l0.78 -26.23c5.97,-16.88 8.5,-44.37 19.24,-62.95l21.87 -32.03c19.07,6.99 16.35,12.96 30.55,23.02 5.76,4.07 7.47,4.11 13,8.81l13.81 12.03c4.67,2.96 2.61,0.59 8.43,4.37 12.34,8 8.93,10.24 8.12,20.94 27.47,-4.63 44.67,14.53 65.73,29.89 44.38,32.39 88.03,80.45 148.88,57.29 37.8,-14.38 31.38,-33.68 32.71,-74.98 35.18,6.46 66.01,4.44 92.46,-18.77l17.75 11.21c-38.53,47.49 -71.5,41.48 -149.96,178.95 -6.72,11.78 -8.12,10.47 -14.8,24.38 -4.51,9.38 -9.28,20.1 -13.56,29.43 -27.69,60.38 -36.47,145.9 -27.23,209.18 3.61,24.73 10.97,75.7 20.58,100.82 26.75,69.96 60.79,125.5 104.4,184.59l77.26 86.56c15.89,15.1 30.67,19.1 48.93,28.95l5.64 3.39c-21.5,8.3 -40.32,20.44 -63.82,26.22 -13.25,3.26 -23.67,3.41 -36.16,6.73 -14.64,3.89 -19.97,8.07 -35.41,11.63 -41.77,9.6 -73.77,-7.73 -112.63,-17.2 -28.21,-6.88 -60.32,-8.51 -84.12,-28.18 -0.63,-0.53 -1.52,-1.44 -2.16,-1.95l-23.42 -23.33c-21.63,-32.12 -51.71,-51.21 -64.97,-91.32 -6.5,-19.67 -0.83,-20.85 -4.7,-30.41l-11.82 -33.79c0.66,-0.37 1.92,-1.42 2.14,-0.73l12.31 -3.86c-2.14,-11.83 -9.16,-7.79 -12.15,-17.64 -4.54,-14.98 4.53,-14.91 -19.93,-16.27l-11.65 51.29c-2.42,42.14 20.4,74.12 35.06,110.88l8.51 12.25c0.58,0.63 1.59,1.43 2.18,2.07 11.03,11.93 9.29,14.32 23.27,24.36l-10.24 5.4c-80.84,32.74 -148.69,65.35 -241.26,58.27 -38.25,-2.93 -106.33,-6.21 -143.91,-13.92l-95.42 -19.56c-13.76,-3.57 -22.53,-5.6 -36.26,-5.74 -0.71,-1.04 -1.67,-4.02 -1.95,-3.26 -2.57,6.87 -3.01,-5.03 -3.46,-5.87 -9.26,-17.21 2.2,1.31 -3.2,-6.54l-35.84 22.79c6.14,18.31 -1.87,4.27 16.65,14.51 18.61,10.29 6.95,-8.76 14.23,16.28 24.87,-12.48 -13.86,0.35 13.57,-10.28 51.74,24.76 233.45,47.3 284.38,46.36 66.89,-1.23 86.25,1.44 145.82,-20.36 30.64,-11.22 74.92,-26.23 102.81,-43.8 14.59,-9.19 -1.85,-3.32 14.27,-7.51 39.67,40.08 31.17,30.75 88.8,49.62 30.05,9.83 87.36,17.33 120.59,21.33 65.36,7.86 165.87,-28.8 212.92,-67.63l29.54 5.78c7.2,14.04 1.02,31.67 -4.65,54.88 -8.13,33.28 -5.97,43.33 -2.82,78.71 -9.62,16.02 -20.4,23.97 -29.85,39.98 -40.06,67.91 -79.07,187.33 -84.14,261.53 -1.55,22.75 0.66,46.22 1.17,69.25 0.53,23.68 -6.09,42.09 -3.91,68.79l38.02 0 -0.04 -42.01c-16.82,-2.71 -0.67,2.07 -7.45,-9.7l11.98 -13.45c2.78,-3.41 10.37,-2.86 -3.85,0.5 0,-33.92 -2.38,-73.84 4.2,-100.99 3.29,-13.55 5.27,-27.35 10.12,-41.86 19.78,-59.21 4.58,-9.95 21.31,-81.65 4.11,-17.6 9.62,-19.46 16.2,-36.3 8.66,-22.11 11.64,-60.21 38.65,-66.4 23.37,25.71 16.88,44.17 52.31,71.9 58.52,45.81 44.37,23.26 86.1,42.65 24.16,11.22 13.95,10.62 49.91,16.53 92.99,15.26 53.06,-22.99 136.59,21.9 23.53,12.65 -2.82,2.41 24.05,2.04 2.7,26.42 21.01,27.91 28.01,31.73 32.37,17.67 43.06,43 139.61,6.36l73.02 -27.48c0.86,-0.43 1.97,-1.02 2.8,-1.47 0.81,-0.44 1.88,-1.09 2.67,-1.54l56.39 -45.64c14.7,-13.75 1.59,3.67 13.44,-20.38 41.21,-0.7 27.33,7.97 51.09,17.09l6.74 2.22c9.91,4.13 4.28,2.06 9.33,4.74l77.1 33.56c6.38,2.18 10.38,2.5 17.23,4.48 13,3.75 20.96,8.84 29.57,14.19l25.12 16.57c9.12,2.93 29.59,5.24 40.88,7.89 83.19,19.6 158.34,-1.1 237.12,-12.85 71.67,-10.69 74.36,-18.54 137.76,-39.79 12.06,-4.05 19.63,-7.81 29.74,-12.99l32.7 -15.66c43.03,-22.49 50.63,-71.09 58.22,-115.6 8.9,-52.21 12.95,-118.19 6.67,-166 -3.96,-30.1 -8.35,-49.02 -5.85,-61.87 3.52,-18.06 4.05,-11.4 -3.51,-29.41 -6.77,-16.12 -7.41,-16.38 -10.39,-37.82 12.46,2.61 5.38,-2.22 13,6.41 13.57,15.35 2.63,5.66 1.87,9.21 -1.59,-14.04 -2.42,-9.19 -9.81,-18.78 -9.99,-12.96 -5.47,-9.56 -12.51,-22.84 -9.04,-17.08 -10.5,-7.57 -21.42,-29.85 -5.36,-10.93 1.02,-3.16 -5.78,-11.24 -6.76,-8.04 -2.01,-0.37 -9.61,-7.46 -9.76,-9.1 -5.82,-11.11 -14.44,-19.94 -5.68,-5.82 -0.46,2.52 -9.36,-7.79l-3.67 -5.31c-19.52,-30.07 -7.67,-8.6 -21.55,-21.13 -10.8,-9.74 -1.51,-10.13 -15.13,-19.5 -42.93,-29.54 -34.18,-34.07 -58.74,-62.19 -12.98,-14.87 -9.4,-3.63 -36.66,-32.54 -15.62,-16.56 -22.06,-13.97 -41.91,-27.2l-1.35 -148.17c2.13,-10.59 -0.99,-49.25 -3.9,-61.49 -5.36,-22.57 -5.15,-27.97 -7.08,-57.63 -3.82,-58.58 -12.39,-68.74 -19.99,-108.82 -6.98,-36.85 -15.66,-70.28 -26.02,-104.65 -5.04,-16.68 -6.1,-37.4 -10.36,-53.92l-31.78 -101.5c-11.67,-28.76 -11.56,-54.34 -24.36,-83.97l-21.7 -55.1c-9.65,-33.76 -27.76,-68.56 -28.04,-69.7 -8.74,-36.04 -16.14,-43.15 -22.06,-65.46 -8.25,-31.13 -6.39,-21.81 -21.07,-43.1 -9.62,-13.97 -10.81,-33.64 -17.87,-51.88 -3.93,-10.18 -7.13,-15.7 -11.28,-22.97l-113.25 -240.11c-33.68,-64.34 -32.02,-64.34 -73.11,-125.26 -6.98,-10.35 -7.72,-25.01 -14.95,-41.32l-56.52 -98.9c-0.43,-0.86 -0.87,-2.06 -1.31,-2.89l-14.09 -20.17c-4.72,-8.15 -5.69,-14.63 -10.57,-23.25 -3.41,-6.03 -8.81,-13.75 -11.97,-18.41 -11.31,-16.7 -25.21,-48.35 -37.99,-60.24 -11.81,-10.97 -23.87,-43.55 -33.47,-58.31 -17.94,-27.61 -30.11,-55.14 -53.28,-75.52 -18.74,-16.48 -43.98,-62.44 -54.62,-74.99 -8.82,-10.4 -21.77,-20.9 -31.57,-32.72l-54.83 -78.37c-8.8,-15.44 -19.27,-19.52 -30.23,-35.03 -31.98,-45.27 -78.4,-108.1 -115.64,-147.36l-45.08 -49.23c-5.97,-6.44 -9.59,-8.98 -16.27,-14.19l-61.57 -41.1c-99.71,-51.28 -190.35,-117.77 -313.33,-84.8l-40.77 22.05c-24.28,15.19 -45.46,42.05 -72.85,56.47 -27.79,14.64 -50.62,37.08 -77.29,52.52l-77.43 51.45c-14.96,10.55 -21.03,19.36 -42.47,21.55 -16.01,-35.7 -31.03,-140.87 -35.18,-189.2 -1.71,-19.93 -2.38,-32.14 -7.53,-47.97 -3.11,-9.53 -3.2,-12.95 -6.37,-24.08 -2.88,-10.15 -6.34,-13.93 -7.64,-17.66 -4.49,-12.85 -2.28,-28.36 -8.4,-47.37 -4.51,-14.02 -5.07,-27.7 -10.11,-42.17l-27.24 -84.51c-10.06,-32.97 -20.31,-60.91 -39.5,-90.44l-8.97 -12.2c-0.47,-0.75 -1.08,-1.86 -1.53,-2.64 -22.66,-39.25 -39.15,-71.8 -69.02,-107.91 -3.85,-4.65 -9.36,-10.96 -13.39,-16.54l-38.32 -43.46c-13.59,-12.54 -16.16,-17.12 -26.98,-29.48l-62.3 -49.22c-13.89,-12.89 -50.19,-40.09 -66,-46.02 -19.59,-7.36 -18,-6.78 -34.38,-17.15 -54.77,-34.68 -177.5,-74.03 -248.95,-82.04 -17.78,-1.99 -36.77,-3.43 -52.29,-5.39 -42.77,-5.42 -36.55,-4.71 -41.8,9.3 -0.85,-0.8 -1.73,-2.12 -2.27,-2.66l-12.66 -9.54c-2.94,-1.01 -15.85,-1.95 -19.45,-2.06 -102.02,-3.13 -178.61,10.96 -275.93,33.65 -27.97,6.52 -57.28,9.5 -82.8,20.8l-118.64 50.21c-23.51,15.44 -38.26,14.44 -57.85,28.49 -34.28,24.57 -74.78,45.8 -106.04,74.81l-80.63 74.55c-6.76,7.82 -4.41,4.92 -10.55,11 -13.4,13.3 -21.41,37.24 -36.67,53.61 -13.82,14.82 -21.07,37.67 -31.69,55.24 -22.3,36.89 -37.98,81.77 -52.69,123.6 -41.75,118.67 -34.55,187.46 -53.7,303 -7.82,47.22 -2.23,128.15 -3,179.32l15.64 252.08c10.22,59.2 15.56,154.36 24.18,199.23 2.38,12.41 5.61,18.23 7.83,34.23 7.76,56.08 8.59,111.69 17.67,161.66 7.89,43.41 14.94,113.7 16.76,158.49 1.32,32.51 2.55,52.99 8.33,82.04 9.65,48.53 3.64,113.96 16.53,165.25 8.64,34.37 19.75,171.24 24.89,199.64 1.93,10.7 5.71,18.2 8.95,33.76 31.82,153.1 43.22,326 52.46,480.5 2.24,37.44 8.94,41.93 -2.07,79.47 -7.08,24.11 -6.28,49.03 -11.13,74.62 -7.44,39.22 -4.57,126.66 1.88,167.7 3.79,24.15 9.36,57.28 10.08,78.82 1.22,36.64 11.88,62.81 22.76,92.38 9.42,25.59 31.24,82.84 48.34,106.14 15.42,21 20.66,36.02 33.47,56.31 14.41,22.84 13.89,5.83 22.67,25.39 17.48,38.92 48.72,58.57 72.99,91.33l55.84 47.19c41.17,39.56 52.12,32.31 64.49,69.29 1.85,5.55 4.31,13.45 6.84,18.94 2.66,5.78 5.37,9.1 7.27,13.65 4.88,11.71 4.77,20.18 10.27,33.06l107.61 202.42c8.87,19.51 10.88,45.87 20.11,65.62 9.69,20.76 12.07,2.89 15.44,28.52z"/>
   <path class="fil1" d="M1507.52 1537.98c-25.09,39.52 -108,88.11 -170.89,91.96 -54.43,3.34 -104.9,-11.48 -152.65,-33.62 -14.56,-6.76 -39.29,-11.62 -34.03,-35.29 5.6,-25.15 118.41,-47.41 144.63,-50.77 29.31,-3.75 41.4,9.37 56.98,5.22 8.37,-2.23 33.56,-19.28 41.7,-23.33 59.53,-29.61 148.95,-8.81 114.26,45.83zm-715.62 -431.86c-3.29,-35.47 -1.68,-33.67 15.39,-61.63 9.94,-16.29 40.18,-43.17 57.48,-54.95 59.14,-40.3 146.78,-43.41 205.54,-7.74 48.12,29.2 37.17,45.05 40.44,53.04 4.95,12.04 11.92,6.34 21.1,24.33 -21.72,18.27 -41.04,22.85 -77.65,27.82 -65.84,8.95 -234.45,51.75 -273.24,38.07 -3.73,-17.83 -3.18,-13.01 10.94,-18.94zm17.77 -261.16c15.23,-16.74 11.15,-14.28 38.89,-21.75 42.08,-11.35 112.98,-4.34 156.26,-2.71 40.9,1.54 157.05,23.91 182.1,53.51 12.61,14.91 4.72,29.87 -17.8,26.62 -14.09,-2.04 -85.02,-51.1 -255.11,-49.46 -38.66,0.38 -52.79,10.48 -80.34,2.73l-20.72 -7.51c-0.58,-1.42 -2.23,-0.87 -3.28,-1.43zm-284.44 -257.69c1.38,22.37 19.16,50.47 27.35,75.57 4.85,14.87 9.25,23.14 12.16,40 3.69,21.32 6.7,21.68 11.09,39.71 22.95,94.16 15.02,190.32 26.58,276.37 4.16,30.97 7.12,51.96 10.72,84.42 8.1,73.1 60.06,273.04 82.01,334.62 5.88,16.5 9.45,20.68 14.69,37.94 14.3,47.07 22.01,64.03 45.46,109.27 87.53,168.87 170.83,234.46 360.52,263.34 135.13,20.58 219.03,28.58 334.7,-44.8 27.71,-17.58 21.81,-14.46 51.62,-51.62 29.07,-36.23 69.55,-130.16 83.3,-178.74 14.87,-52.52 34.1,-158.75 44.72,-214.1 16.86,-87.92 20,-245.06 -2.24,-336.53 -5.87,-24.11 -1.87,-22.14 -15.79,-40.5 -20.54,2.5 -42.42,4.39 -62.2,7.72 -25.08,4.22 -35.1,11.75 -58.52,14.74 -37.22,4.77 -96.47,19.72 -125.75,20.72 5.76,56.18 77.88,204.43 79.85,272.03 -15.62,15.39 -85.05,56.95 -102.31,62.53 -9.92,3.21 -107.86,27.88 -125.56,19.21 -18.48,-9.04 -5.55,1.97 -12.09,-12.79 13.97,-21.79 57.54,-9.89 109.93,-33.56 26.14,-11.82 76.1,-34.9 94.84,-47.73 -6.62,-44.53 -38.56,-107.07 -47.38,-144.06 -11.13,-46.64 -51.96,-117.72 -53.16,-205.57 -0.43,-31.7 -5.29,-42.81 26.24,-38.17 2.92,5.79 7.62,35.89 9.86,54.06 23.95,-31.5 58.46,-61.32 99.22,-75.74 61.42,-21.73 96.6,-7.58 150.07,9.89 -2.3,-23.8 -1.9,-20.77 -8.23,-41.24l-18.3 -123.6c-14.05,0.79 -8.8,0.6 -21.15,4.06 -3.34,9.12 -5.3,-7.96 1.74,5.88l2.87 4.86c-38.35,6.34 -131.69,58.49 -151.87,78.66 -12.9,12.89 -22.25,36.36 -46.66,22.53 -6.92,-14.81 -1.55,-16.62 7.05,-27.49 36.58,-46.21 41.09,-36.3 76.6,-57.68 20.5,-12.34 32.98,-23.88 56.63,-33.49 18.76,-7.63 48.88,-18.63 71.9,-17.59 -1.24,-101.15 -33.03,-240.52 -78.59,-311.36 -13.3,10.87 -21.19,28.71 -34.66,41.96 -58.24,57.23 -64.09,62.3 -131.99,104.99 -130.7,82.18 -290.95,109.88 -449.58,108.58 -25.88,-0.21 -52.97,-3.84 -77.34,-5.32 -85.39,-5.2 -186.2,-32.17 -268.35,-51.98z"/>
   <path class="fil4" d="M1112.65 2025.75l39.59 29.28c41.39,27.2 33.05,5.6 33.86,31 -39.67,20.39 -132.86,-71.42 -143.78,-102.67 -6.1,-17.5 -5.41,-8.21 -0.83,-27.71 16.01,8.69 18.13,21.28 33.65,38.39 18.97,20.91 19.14,14.02 37.51,31.71zm-274 0.87c31.68,9.16 27.94,13.02 34.68,35.04 -26.8,-5.59 -40.38,-9.58 -60.55,-21 -19.11,-10.81 -35.19,-17.55 -47.9,-30.02l-46.84 -52.16c-9.18,-12.48 -9.64,-22.25 -1.4,-32.77 21.9,31.35 48.69,56.31 79.62,75.43 31.06,19.2 22.48,19.71 42.39,25.48zm695.31 -250.18c-55.03,53.48 -44.54,53.01 -115.17,90.2 -29.68,15.63 -20.93,8.93 -57.36,20.02 -91.18,27.78 -231.96,6.02 -314.18,-15.61 -43.09,-11.33 -71.14,-11.09 -122.34,-36.96 -61.74,-31.2 -120.72,-103.82 -158.85,-160.47l-30.91 -51.16c-10.71,-15.5 -17.36,-33.34 -25.72,-51.55l-25.77 -56.19c-28.02,-64.33 -23.17,-68.51 -43.23,-120.69 -23.28,-60.54 -60.98,-259.87 -68.55,-328.33 -2.32,-20.92 -8.45,-51.62 -9.13,-70.21 -1.59,-42.88 -2.45,-122.53 -9.01,-157.02 -1.64,-8.67 -0.9,-0.73 -1.52,-15.11 -1.19,-27.12 -5.88,-30.94 -13.26,-68.04 -29.05,-146.06 -97.64,-197.54 -25.97,-191.74 95.68,7.73 190.74,32.41 284.53,38.21 97,6 192.03,10.6 287.57,-11.64 40.03,-9.32 83.98,-21.32 123.84,-35.48 20.14,-7.15 14.42,-8.51 29.05,-15.24 65.9,-30.26 128.39,-67.29 176.42,-120.43 4.33,-4.79 5,-5.93 9.99,-11.68 8.18,-9.42 10.63,-12.23 18.07,-20.84 3.93,-4.56 41.11,-37.94 19.21,-38.33 -10.6,-0.19 -30.54,29.77 -39.63,39.51 -40.42,43.35 -85.33,72.9 -140.18,101.59 -22.48,11.76 -14.81,16.99 -54.33,26.1 -22.79,5.25 -43.45,7.7 -65.23,13.21 -39.23,9.93 -80.13,25.69 -128.33,31.77 -94.22,11.9 -399.08,0.02 -521.13,-21.12l-35.43 -7.3c-1.17,-0.24 -2.26,-0.47 -3.5,-0.68 -1.33,-0.23 -2.38,-0.37 -3.78,-0.57l-25.69 -2.44c1.71,20.85 11.11,35.17 15.97,54.14 4.73,18.44 9.17,41.47 9.16,60.08 -0.09,100.85 13.74,166.57 16.85,258.44 1.48,43.53 -4.71,89.73 -0.06,133.52 9.24,87.25 25.91,148.29 45.69,227.25l105.38 303.38c31.94,64.14 23.88,154.71 32.99,233.32l17.24 107.18c5.48,41.22 -6.99,84.12 -7.72,128.96 -1.37,83.94 -31.58,108.14 -61.74,208.46 -15.9,52.92 -8.47,88.65 -19.3,115.08 25.82,-3.94 38.38,-14.57 58.68,-24.09l120.95 -37.79c36.46,-7.74 24.28,8.59 59.61,-9.77 57.58,-29.91 132.6,-40.83 182.32,-55.89 20.89,-6.33 44.63,-5.63 66.12,-10.87 15.79,-19.98 23.55,-40.15 39.61,-59.14 21.52,-25.45 99.08,-94.83 133.7,-111.8 29.44,-14.42 8.37,-18.89 103.73,-55.63l26.56 -12.1c10.24,-4.54 24.92,-9.33 37.34,-11.93 52.35,-10.95 108.4,-26.66 166.14,-26.3 -12.39,-75.32 -55.24,-96.49 -58.45,-141.3 -0.7,-9.87 0.33,-13.48 -1.25,-24.98z"/>
   <path class="fil1" d="M1793.86 2407.65c-19.84,-31.13 -8.85,-121.01 -0.12,-144.36 15.19,-0.81 18.44,3.89 27.03,10.4 1.16,28.77 -4.21,50.62 -4.35,79.67 -0.13,27.18 3.79,50.54 -22.56,54.29zm191.04 -130.03c3.27,11.4 1.88,23.19 3.34,36.18 1.39,12.33 5.35,20.73 7.74,33.69 4.45,24.1 -5.09,6.57 8.34,22.58 11.16,13.31 21.99,32.99 35.49,46.47 13.42,13.42 26.48,25.37 39.55,38.17l42.79 51.85c0.5,0.83 1.2,1.86 1.69,2.7 30.11,51.43 32.86,25.68 44.82,63.5 4.05,12.81 3.4,16.79 14.1,24.5 61.95,44.68 98.73,-17.16 88.79,-46.09 -6.05,-17.61 -35.72,-43.4 -46.25,-56.73 -18.43,-23.33 -38.98,-44.8 -49.82,-67.68 -46.68,-98.49 -47.45,-83.9 -44.35,-198.6 0.71,-26.73 -0.05,-44.74 16.91,-53.34 10.54,23.07 12.83,80.82 11.07,98.69 -1.41,14.35 -3.44,6.31 0.72,26.61 12.74,62.31 37.81,80.21 46.18,118.64 53.63,-9.32 65.98,-17.16 135.43,-5.14 -3.45,-27.29 -5.6,-54.7 -3.91,-82.18 0.99,-16 3.11,-40.39 20.28,-42.33 44.76,-5.07 -6.11,84.12 27.36,126.93 11.18,14.3 33.51,15.58 48.73,20.92l44.38 18.53c5.95,-15.76 -23.84,-85.83 -31.56,-114.5 -15.07,-55.97 -28.24,-63.52 -53.78,-96.52 -21.39,-27.63 -76.33,-103.83 -108.19,-119.63 -44,-21.83 -18.04,-16.52 -56.02,-18.52 -18.06,-0.95 -14.53,-3.88 -32.44,-2.34 -12.54,1.08 -22.94,3.8 -33.67,5.97 -41.45,8.38 -99.72,5.04 -134.4,17.22l-188.29 10.71c-47.58,-3.01 -52.13,52.78 -53.21,54.77 -7.68,14.16 -3.73,2.11 -15.16,15.58 -25.93,-1.06 5.04,-10.4 -29.31,-2.09 -35.57,8.6 -71.25,-6.24 -114.21,0.14 -17.71,42.26 -19.9,25.61 -21.54,99.51 -1.65,74.07 -5.94,65.55 19.68,97.89 9.87,12.46 0.46,6.54 14.16,15.96 58.61,40.34 35.72,32.77 63.76,53.62 1.26,0.94 8.11,5.9 8.68,6.5l9.22 13.44c7.55,5.81 3.44,1.72 7.81,3.58 14.18,6.07 3.35,-3.99 10.8,8.25 17.08,28.07 7.65,5.52 30.58,29.59l67.25 53.65c61.73,35.72 32.04,19.94 86.05,60.32 5.91,4.42 8.65,6.94 14.45,11.22 44.37,32.68 87.54,34.21 78.37,-26.51 -2.03,-13.47 -3.87,-18.63 -11.91,-27 -18.64,-19.37 -27.71,-20.57 -57.11,-54.82 -6.54,-7.63 -12.09,-11.49 -18.67,-20.17 -12.19,-16.08 -20.35,-32.09 -21.38,-54.11 18.74,4.61 19.14,9.08 29.8,19.82 10.19,10.25 15.37,14.47 23.57,23.64 25.5,28.52 66.64,81.8 106.94,83.37 39.7,1.55 50.21,-0.34 65.98,-31.05l-10.25 -12.71c-20.86,-23.65 -31.38,-45.11 -46.6,-60.57 -23.79,-24.2 -45.36,-45.9 -62.75,-66.67 -16.54,-19.78 -40.65,-53.28 -51.52,-77.8 -12.21,-27.54 0.8,-93.66 5.32,-106.41l16.17 28.8z"/>
   <path class="fil1" d="M3606.45 3310.74c-11.44,-13.66 -10.17,-20.07 -25.14,-35.36 -13.22,-13.52 -17.85,-17.3 -32.44,-32.03l-92.38 -94.93c-0.72,1.12 -1.31,2.66 -1.68,3.63l-3.84 11.07c-3.4,14.63 -6.81,79.26 -24.83,155.16 -4.12,17.37 -3.08,45.23 -6.92,57.9 -14.46,47.54 -136.05,128.27 -184.13,151.7 -16.56,8.07 -27.77,11.96 -45.91,18.84 -141.07,53.47 -219.04,41.54 -350.81,50.29 6.63,20.53 20.88,34.27 36.94,48.46 3.82,3.38 4.74,3.62 9.41,7.95 7.07,6.56 9.94,9.48 15.48,14.52l34.47 30.2c16.97,14.02 3.28,8.18 35.37,25.31 70.34,37.55 44.39,31.07 132.2,61.52 39.78,13.79 14.75,6.07 41.02,19.65 78.67,40.64 122.23,40.46 204.77,36.7 41.3,-1.88 210.84,-45.13 250.92,-61.32 14.68,-5.93 23.83,-13.06 41.68,-23.02 53.93,-30.13 46.22,-268.58 36.34,-323.34 -17.01,-94.2 -41.3,-88 -70.52,-122.9z"/>
   <path class="fil0" d="M2637.73 3590.48c-27.44,-14.98 -23.67,-14.75 -60.93,-21.67 -90.74,-16.85 -26.92,-13.41 -59.75,-1.51 -7.08,-18.11 3.3,-10.54 -19.73,-17.52l-64.08 -14.59c-34.5,-6.19 -13.49,-4.64 -28.21,7.23l-2.54 -5.49c-10.34,-15.15 -64.04,-26.45 -77.83,-26.61 -8.94,28.44 -9.67,32.57 -7.6,64.61 3.34,51.67 -6.62,10.13 13.93,53.82 -8.07,20.29 -13.78,4.08 -5.26,30.92l22.67 42.95c5.43,6.37 4.7,6.19 10.44,11.29 24.34,21.6 52.47,32.29 84.04,45.23 26.6,10.89 47.36,18.16 54.73,2.21 1.13,0.89 3.32,3.52 4.17,4.19l5.02 3.8c0.87,0.5 1.99,1.16 2.93,1.59 23.39,10.86 29.77,-6.96 33.19,-10.44 17.65,6.16 0.6,5.41 22.8,4.38 9.59,-0.44 19.8,-1.24 28.91,-1.58 3.71,16.13 -5.58,9.04 35.49,32.8 66.88,38.71 76.72,63.15 139.44,46.12 18.38,-4.99 39.89,-5.98 54.62,-14.34 43.2,-24.54 71.43,-29.27 112.9,-78.46 -14.73,-16.28 -47.35,-37.16 -61.89,-52.15l-88.84 -100.74c-20.87,-4.55 -58.58,-7.99 -76.69,-8.56 -56.8,-1.8 -46.16,-16.38 -71.93,2.52z"/>
   <path class="fil5" d="M1745.71 2181.58c40.92,-78.09 43.59,-50.59 56.06,-74 -4.18,-5.18 -0.43,-2.3 -6.85,-6.69 -10.54,-7.22 -122.87,-31.4 -135.33,-32.06 -200.72,-10.59 -235.25,52.37 -293.84,66.93 -31.59,7.86 -51.53,24.83 -74.17,43.28 -0.68,0.55 -1.66,1.36 -2.35,1.9 -0.68,0.54 -1.7,1.31 -2.39,1.85 -21.3,16.31 -19.26,10.29 -27.35,32.13 31.99,-3.39 137.28,15.64 168.83,25.14 22.81,6.87 49.9,14.14 72.02,22.3 24.66,9.08 41.08,20.53 68.69,25.47 14.22,-28.38 12.58,-94.24 43.07,-110.96 20.35,-11.15 113.83,-0.49 133.61,4.71z"/>
   <path class="fil5" d="M1222.69 2212.01c27.91,-51.47 91.51,-82.32 141.19,-106.98 62.84,-31.18 105.16,-53.16 183.78,-59.65 37.79,-3.11 83.9,-8.35 120.46,-4.4 29.48,3.18 64.96,17.42 99.03,23.35 86.61,15.06 43.19,31.11 86.27,39.7 19.85,3.96 98.03,-5.84 105.43,-8.22 -8.4,-26.34 -66.65,-48.91 -92.72,-61.61 -122.05,-59.44 -234.36,-66.96 -371.16,-44.03 -61.59,10.33 -160.51,49.27 -213.83,83.65 -15.75,10.16 -28.67,22.08 -41.49,31.84 -37.12,28.25 -82.06,71.68 -108.69,108.95l91.73 -2.6z"/>
   <path class="fil6" d="M1507.52 1537.98c34.69,-54.64 -54.73,-75.44 -114.26,-45.83 -8.14,4.05 -33.33,21.1 -41.7,23.33 -15.58,4.15 -27.67,-8.97 -56.98,-5.22 -26.22,3.36 -139.03,25.62 -144.63,50.77 -5.26,23.67 19.47,28.53 34.03,35.29 47.75,22.14 98.22,36.96 152.65,33.62 62.89,-3.85 145.8,-52.44 170.89,-91.96z"/>
   <path class="fil3" d="M813.53 1097.22c7.95,-27.9 41.17,-58.61 65.92,-70.46 -0.7,38.89 6.14,37.88 19.36,61.13l-85.28 9.33zm194.34 -39.6c4.54,-45.1 -3.91,-40.15 -16.41,-69.44 33.59,7.01 72.96,20.84 89.03,50.7 -17.08,12.85 -53.15,18.55 -72.62,18.74zm-215.97 48.5c-14.12,5.93 -14.67,1.11 -10.94,18.94 38.79,13.68 207.4,-29.12 273.24,-38.07 36.61,-4.97 55.93,-9.55 77.65,-27.82 -9.18,-17.99 -16.15,-12.29 -21.1,-24.33 -3.27,-7.99 7.68,-23.84 -40.44,-53.04 -58.76,-35.67 -146.4,-32.56 -205.54,7.74 -17.3,11.78 -47.54,38.66 -57.48,54.95 -17.07,27.96 -18.68,26.16 -15.39,61.63z"/>
   <path class="fil3" d="M1000.21 3558.13c-0.76,-1.21 -5.93,-19.3 -18.7,-26.72 -27.32,-15.86 -11.69,6.39 -20.09,-22.33 -18.8,7.97 1.97,9.48 -17.98,4.26l-98.73 -73.5c-38.96,-29.94 -24.06,-29.17 -48.3,-46.68 -11.2,-8.11 -2.65,3.32 -13.44,-12.56 -6.72,-9.89 -15.21,-26 -26.5,-13.72 -10.37,11.26 -0.89,4.34 -2.25,16.11l-4.76 13.5c-0.16,-0.58 -1.21,1.4 -1.53,2.25 13.83,8.02 30.48,-9.9 21.74,25.27l6.05 -0.69c14.34,0.3 8.62,-3.02 14.24,6.43 10.57,17.79 -4.42,7.07 4.68,17.84 6.88,8.14 -2.25,-1.3 7.71,2.99 23.17,9.98 11.83,16.23 11.82,18.55l21.54 9.78c9.92,6.73 5.04,3.93 3.76,17.02 11.75,-1.76 17.86,-6.01 26.23,3.36 8.74,9.8 1.25,5.51 -1.07,12.13l-3.18 6.6c25.54,-8.57 28.96,8.19 53.15,19.78l55.6 26.04 -21.4 5.51c-8.84,0.97 -16.8,0.41 -26.16,1.02l-5.34 -9.9c-11.94,-23.33 4.09,4.55 -3.28,-6.91l-12.93 16.43c-35.74,-2.49 -26.94,-5.28 -34.47,-13.44 -7.03,10.6 -0.58,8.27 -16.29,13.49 -20.43,-15.17 -59.94,-8.58 -88.26,-17.78 -12.14,-3.95 -58.21,-54.37 -54.74,-6.21 0.08,1.08 4.28,12.7 4.44,12.93 3.83,5.45 0.3,1.71 6.96,6.12 3.53,2.33 4.4,1.9 8.94,4.26 5.75,2.97 3.39,1.58 8.58,4.71 80.44,48.46 250.39,35.86 331.11,6.08l119.9 -48.87c12.61,-4.35 23.89,-12.08 36.33,-18.88l-0.78 -28.79 -17.29 0.47c-0.38,0.11 -101.5,45.32 -147.74,59.76l-57.57 14.29z"/>
   <path class="fil0" d="M2375.86 2456.59c-20.93,-1.07 -95.86,-23.51 -146.29,-7.67 4.49,6.12 6.86,12.07 12.49,19.78 3.41,4.66 12.41,14.48 16.45,18.09 33.43,29.87 17.32,21.83 33.1,35.8 18.03,15.97 163.17,66.86 195.48,80.06l99.05 34.25c3.98,-51.18 -12.4,-42.57 -20.09,-52.23 -8.44,-10.58 -1.56,-9.09 -9.72,-25.33 -14.23,-28.31 -34.34,-20.17 -58.36,-48.92 -16.69,-19.97 -65.64,-36.26 -95.04,-47.58 -17.23,-6.63 -7.72,-5.26 -27.07,-6.25z"/>
   <path class="fil3" d="M809.67 844.96c1.05,0.56 2.7,0.01 3.28,1.43l20.72 7.51c27.55,7.75 41.68,-2.35 80.34,-2.73 170.09,-1.64 241.02,47.42 255.11,49.46 22.52,3.25 30.41,-11.71 17.8,-26.62 -25.05,-29.6 -141.2,-51.97 -182.1,-53.51 -43.28,-1.63 -114.18,-8.64 -156.26,2.71 -27.74,7.47 -23.66,5.01 -38.89,21.75z"/>
   <path class="fil7" d="M1124.76 3211.39c-20.38,-4.29 -13.42,0.26 -20.9,-17.98 -4.33,-10.59 -4.62,-12.29 -11.02,-23.59 -15.48,-27.34 3.24,-33.31 -6.45,-48.88 -13.11,5.05 -4.17,-2.89 -10.08,11.57 -19.62,48.01 21.7,136 49.47,167.94 40.19,46.22 53.24,28.64 47.98,8.13 -5.74,-22.36 -34.41,-35.45 -47.14,-65.6 -8.91,-21.14 -3.09,-22.72 -1.86,-31.59z"/>
   <path class="fil7" d="M1186.1 2086.03c-0.81,-25.4 7.53,-3.8 -33.86,-31l-39.59 -29.28c-18.37,-17.69 -18.54,-10.8 -37.51,-31.71 -15.52,-17.11 -17.64,-29.7 -33.65,-38.39 -4.58,19.5 -5.27,10.21 0.83,27.71 10.92,31.25 104.11,123.06 143.78,102.67z"/>
   <path class="fil7" d="M873.33 2061.66c-6.74,-22.02 -3,-25.88 -34.68,-35.04 -19.91,-5.77 -11.33,-6.28 -42.39,-25.48 -30.93,-19.12 -57.72,-44.08 -79.62,-75.43 -8.24,10.52 -7.78,20.29 1.4,32.77l46.84 52.16c12.71,12.47 28.79,19.21 47.9,30.02 20.17,11.42 33.75,15.41 60.55,21z"/>
   <path class="fil7" d="M1793.86 2407.65c26.35,-3.75 22.43,-27.11 22.56,-54.29 0.14,-29.05 5.51,-50.9 4.35,-79.67 -8.59,-6.51 -11.84,-11.21 -27.03,-10.4 -8.73,23.35 -19.72,113.23 0.12,144.36z"/>
   <path class="fil4" d="M1357.02 996.18l86.23 -9.77c-12.74,-30.9 -19.48,-22.9 -11.67,-64.53 -21.94,4.01 -71.54,47.14 -74.56,74.3z"/>
   <path class="fil4" d="M1007.87 1057.62c19.47,-0.19 55.54,-5.89 72.62,-18.74 -16.07,-29.86 -55.44,-43.69 -89.03,-50.7 12.5,29.29 20.95,24.34 16.41,69.44z"/>
   <path class="fil4" d="M898.81 1087.89c-13.22,-23.25 -20.06,-22.24 -19.36,-61.13 -24.75,11.85 -57.97,42.56 -65.92,70.46l85.28 -9.33z"/>
   <path class="fil7" d="M1086.39 3059.31c35.19,1.99 39.37,-80.62 34.47,-92.11l-21.09 -1.29c-11.31,18.18 -32.17,67.3 -13.38,93.4z"/>
   <path class="fil4" d="M1548.86 958.97l56.54 -13.12c-7.6,-22.69 -42.86,-42.23 -70.49,-45.52 10.23,20.4 15.77,28.07 13.95,58.64z"/>
   <path class="fil8" d="M1825.67 3107.03l13.58 -2.83c-2.52,-9.4 4.52,-10.42 -13.37,-11.49l-0.21 14.32z"/>
  </g>
 </g>
</svg>
