<?xml version="1.0" encoding="UTF-8"?>
<!DOCTYPE svg PUBLIC "-//W3C//DTD SVG 1.1//EN" "http://www.w3.org/Graphics/SVG/1.1/DTD/svg11.dtd">
<!-- Creator: CorelDRAW Standard 2021 (64-Bit Versión de evaluación) -->
<svg xmlns="http://www.w3.org/2000/svg" xml:space="preserve" width="90.517mm" height="90.3392mm" version="1.1" style="shape-rendering:geometricPrecision; text-rendering:geometricPrecision; image-rendering:optimizeQuality; fill-rule:evenodd; clip-rule:evenodd"
viewBox="0 0 9051.7 9033.92"
 xmlns:xlink="http://www.w3.org/1999/xlink"
 xmlns:xodm="http://www.corel.com/coreldraw/odm/2003">
 <defs>
  <style type="text/css">
   <![CDATA[
    .str1 {stroke:black;stroke-width:16.93;stroke-miterlimit:22.9256}
    .str0 {stroke:#0185B5;stroke-width:16.93;stroke-miterlimit:22.9256}
    .fil3 {fill:none}
    .fil1 {fill:black}
    .fil0 {fill:#0185B5}
    .fil2 {fill:white}
   ]]>
  </style>
   <clipPath id="id0">
    <path d="M-12.27 4521.19l1131.44 -1969.97 1131.48 -1969.97 2262.93 0 2262.93 0 1131.48 1969.97 1131.45 1969.97 -1131.45 1969.97 -1131.48 1969.97 -2262.93 0 -2262.93 0 -1131.48 -1969.97 -1131.44 -1969.97z"/>
   </clipPath>
 </defs>
 <g id="Capa_x0020_1">
  <metadata id="CorelCorpID_0Corel-Layer"/>
  <polygon class="fil0" points="-12.27,4521.19 1119.17,2551.22 2250.65,581.25 4513.58,581.25 6776.51,581.25 7907.99,2551.22 9039.44,4521.19 7907.99,6491.16 6776.51,8461.13 4513.58,8461.13 2250.65,8461.13 1119.17,6491.16 "/>
  <g style="clip-path:url(#id0)">
   <g id="_2586026055888">
    <ellipse class="fil0 str0" cx="4513.58" cy="4521.19" rx="4679.13" ry="4669.97"/>
    <ellipse class="fil1 str1" cx="4513.58" cy="4521.2" rx="4473.02" ry="4464.27"/>
    <path class="fil2" d="M283.41 5935.64c122.69,-345.41 203.97,-578.87 388.12,-870.14 179,-283.32 318.37,-517.24 508.23,-753.46 483.61,-601.55 720.01,-867.94 860.07,-1661.95 127.7,-723.51 307.06,-1365.6 680.82,-1838.96 381.23,-482.81 1137.87,-737.22 1751.76,-756.69 -797.92,-22.23 -1518.05,221.71 -2100.1,531.64 -1139.73,606.85 -1988.6,1751.09 -2247.62,3037.92 -119.54,593.48 -119.89,1211.96 4.55,1803.6 18.66,88.92 88.28,434.67 154.17,508.04zm4041.82 1030.45c71.96,45.72 -8.04,44.68 187.77,121.39 67.28,26.26 147.75,53.9 150.43,129.22 -175.04,21.55 -357.9,-88.33 -338.2,-250.61zm2616.61 -3014.2c55.75,-106.99 256.22,-210.3 162.81,-420.03 -125.49,19.12 -78.03,127.84 -142.99,240.95 -134.45,27.52 -323.38,-25.12 -436.38,21.87 20.52,36.97 21.1,39.86 64.49,57.82l68.1 23.61c2.34,-4.03 9.34,3.34 13.41,6.11 -163.27,319.83 252.48,1047.26 226.59,1519.93l119.19 17.4c38.84,-75.56 90.97,-266.51 127.11,-360.04 43.16,-112.06 92.83,-227.81 134.93,-355.54 107.88,-327.2 119.19,-465.76 77.91,-830.51 -179.71,41.58 -179.83,100.32 -415.17,78.43zm-80.46 -807.94c56.44,114.83 345.78,178.76 484.9,125.43 50.03,-287.93 -355.58,-202.25 -484.9,-125.43zm-2280.75 454.71c318.15,-181.63 996.87,-365.67 1053.55,181.05l-243.38 -4.14c-8.99,-110.57 77.66,-83.16 14.34,-188.2 -30.68,-50.78 -78.49,-86.61 -154.99,-90.41 -29.97,101.81 -46.65,253.62 -132.83,289.78 -144.84,60.69 -206.3,-55.63 -357.09,-9.68 30.67,128.42 113.81,37.2 160.35,157.67 -181.58,83.04 -317.79,-166.76 -412.13,-280.1l72.18 -55.97zm-104.72 -501.35c95.51,-173.56 432.19,-220.67 695.05,-186 248.75,32.83 480.83,118.74 669.98,221.25 80.94,43.76 83.51,37.42 94.23,131.06 20.65,181.17 28.69,452.4 -247.12,355.2 -89.21,-31.56 -210.03,-156.06 -254.22,-201.68 -119.43,-123.34 -160.47,-82.22 -285.84,-147.76 229.51,-135.45 505.9,119.43 634.18,52.64 -63.21,-50.45 -484.56,-183.48 -598.03,-214.22 -302.74,-82.24 -412.83,-78.9 -708.23,-10.49zm-494.47 -1291.2c130.26,74.06 350.79,134.18 424.61,255.11 -143.56,95.7 -197.44,119.9 -284.66,291.16 -39.43,77.15 -147.19,316.6 -195.47,350 -6.3,-197.98 -1.16,-312.69 -35.68,-509.29 -29.74,-168.84 -65.31,-303.13 -61.22,-485.23 59.82,28.92 85.59,60.24 152.42,98.25zm3038.66 -45.15c34.51,-89.14 84.89,-153.76 116.14,-245.78 142.4,4.27 165.02,48.14 210.16,144.77 18.54,-26.15 18.54,26.73 14.11,-49.29 -0.82,-14.62 -8.87,-31.22 -18.9,-46.99 -43.38,-67.95 -156.85,-144.31 -236.85,-165.28 -130.73,249.93 -256.68,377.31 -513.95,499.05 -653.06,309.12 -1793.15,132.56 -2453.45,-124.85 -162.45,-63.34 -290.39,-144.54 -430.91,-202.01 -90.27,924.49 -228,1997.22 -80,2933.57 24.37,153.87 50.03,292.19 89.33,437.54 28.57,105.16 120.11,311.31 102.04,381.34 -117.79,-41.12 -0.47,-134.41 -148.93,-165.96 -43.73,601.42 209.57,698.75 194.06,841.56 -98.54,2.77 -48.86,-33.86 -148.1,-44.1 11.88,130.37 60.28,234.72 60.05,396.19 -0.23,337.45 -59.01,537.62 -204.9,825.56 -92.02,181.4 -341.47,550.75 -350.68,574.94 249.69,161.36 341.23,91.22 726.32,515.86l172.71 213.88c1.4,-3.11 6.53,5.76 10.02,8.29 75.69,-92.49 143.81,-204.08 217.98,-310.05 77.9,-111.25 139.12,-195.68 228.1,-297.03 325.61,-371.55 501,-353.92 582.17,-463.57 -23.21,-102.85 -68.93,-40.31 -108,-163.2 109.98,29.6 309.29,78.55 403.52,-11.86 -100.3,-78.43 -202.81,14.28 -320.94,-57.47 95.51,-231.5 1118.38,73.02 1259.26,-170.12 -33.93,-136.82 -159.89,-105.72 -293.88,-77.04 -322.69,69.1 -574.94,62.65 -876.87,-53.1 7.58,-82.69 82.57,-29.36 9.33,-75.21 -58.08,-36.27 -153.12,-57.24 -344.15,-183.81 -423.79,-280.91 -770.62,-772.13 -762.11,-1345.91 63.56,9.21 69.97,23.61 141.34,20.5 27.3,148.8 84.55,360.15 215.4,436.96 58.31,34.33 93.3,24.31 151.49,70.26l-42.45 134.3c152.19,-27.2 117.33,20.15 244.09,53.2l-53.76 59.66c-30.68,48.61 -16.68,3.46 -21.93,71.87 67.06,33.52 90.49,35.13 157.44,0.23 -19.02,127.26 17.14,169.64 49.1,280.1 23.79,82.24 34.28,75.67 217.96,149.26 348.81,139.6 909.52,182.2 1201.53,-17.27 77.33,-52.75 105.2,-141.44 132.02,-236.69 28.58,-101.46 86.42,-206.96 102.16,-267.66 -165.84,-94.32 -392.9,-74.75 -597.91,-74.75 29.5,-177.58 264.49,-152.48 383.79,-257.98 -188.22,-125.66 -553.71,-19.24 -821.7,-70.02l-142.4 -52.52c126.65,-73.14 687.36,-175.99 895.89,-176.68 106,-0.34 225.89,36.4 307.52,31.68 -7.11,-96.87 -51.78,-150.42 -135.51,-184.4 -149.97,-60.58 -157.32,-5.87 -261.11,31.09 -40.12,-109.29 -22.98,-240.59 -88.29,-314.42 -85.83,-32.94 -228.34,9.1 -335.63,-29.47 -96.21,-34.56 -123.96,-112.42 -108.81,-226.21 55.4,16.7 80.12,108.37 172.37,129.11 123.14,27.64 131.07,-57.47 168.75,-137.17 286.76,5.64 42.8,309.36 611.91,36.16 -8.52,-63.23 -77.09,-201.66 -103.57,-279.52 -146.35,-429.25 -287.11,-1142.18 125.49,-1467.54 190.43,-150.18 327.24,-121.85 592.43,-143.73 101.57,-205.35 133.42,-269.05 121.4,-560.78 -7.7,-184.39 -40.7,-434.09 -134.81,-549.49 -89.8,-30.29 -166.77,-4.84 -246.88,22zm-2727.17 7221.69c687.13,29.26 1252.73,-80.27 1826.04,-292.08 243.97,-90.06 501.24,-220.32 706.14,-343.22 102.73,-61.5 554.05,-349.89 601.52,-463.34 -66.47,-32.24 -116.03,-81.54 -187.75,-126.69 -522.35,-329.16 -1215.07,-369.7 -1774.27,-139.93 -548.47,225.28 -1005.03,842.6 -1171.68,1365.26zm2277.59 -8432.16c37.9,51.49 126.07,101.35 174.24,137.52 62.73,47.1 106.46,87.53 160.11,137.63 823.46,768.9 646.55,1296.39 799.32,2126.32 193.82,1053.49 615.87,1709.17 201.29,2922.06 -104.61,306.13 -241.29,538.66 -359.54,814.62 -39.54,92.14 2.45,120.24 45.01,209.04l266.47 584.95c187.18,-183.34 393.37,-483.83 551.27,-756.34 917.8,-1583.96 739.49,-3565.86 -392.07,-4998.96 -203.4,-257.64 -400.02,-446.65 -650.63,-662.59 -122.1,-105.27 -611.67,-465.07 -795.47,-514.25zm131.43 5356.12c24.14,-25.33 113.6,-176.67 112.54,-221.59 -2.56,-107.23 -118.61,-115.18 -210.03,-98.59 -6.76,162.4 -35.92,130.03 -77.09,221.6 55.98,67.94 72.19,77.04 174.58,98.58zm434.53 -2502.13c-31.25,-137.05 -334.93,-83.16 -400.82,-31.22 139.13,39.74 262.27,11.07 400.82,31.22z"/>
    <path class="fil0" d="M282.75 5950.37c122.69,-345.41 203.97,-578.87 388.11,-870.14 179.01,-283.32 318.37,-517.24 508.24,-753.45 483.61,-601.55 720.01,-867.95 860.06,-1661.96 127.71,-723.51 307.06,-1365.6 680.83,-1838.96 381.23,-482.81 1137.87,-737.22 1751.75,-756.69 -797.91,-22.23 -1518.04,221.72 -2100.09,531.64 -1139.73,606.85 -1988.61,1751.09 -2247.62,3037.92 -119.54,593.49 -119.89,1211.96 4.55,1803.61 18.66,88.91 88.28,434.67 154.17,508.03zm6287.11 -5385.15c37.9,51.49 126.07,101.35 174.23,137.52 62.74,47.1 106.47,87.54 160.12,137.63 823.46,768.9 646.54,1296.39 799.32,2126.32 193.82,1053.49 615.87,1709.17 201.28,2922.06 -104.6,306.13 -241.28,538.66 -359.54,814.62 -39.53,92.14 2.45,120.24 45.02,209.04l266.47 584.96c187.18,-183.35 393.37,-483.84 551.27,-756.35 917.8,-1583.96 739.49,-3565.86 -392.07,-4998.96 -203.4,-257.64 -400.02,-446.64 -650.63,-662.59 -122.1,-105.27 -611.67,-465.07 -795.47,-514.25z"/>
   </g>
  </g>
  <polygon class="fil3" points="-12.27,4521.19 1119.17,2551.22 2250.65,581.25 4513.58,581.25 6776.51,581.25 7907.99,2551.22 9039.44,4521.19 7907.99,6491.16 6776.51,8461.13 4513.58,8461.13 2250.65,8461.13 1119.17,6491.16 "/>
 </g>
</svg>
