<?xml version="1.0" encoding="UTF-8"?>
<!DOCTYPE svg PUBLIC "-//W3C//DTD SVG 1.1//EN" "http://www.w3.org/Graphics/SVG/1.1/DTD/svg11.dtd">
<!-- Creator: @LuisAngelMaciel  -->
<svg xmlns="http://www.w3.org/2000/svg" xml:space="preserve" width="6.8578mm" height="6.8578mm" version="1.1" style="shape-rendering:geometricPrecision; text-rendering:geometricPrecision; image-rendering:optimizeQuality; fill-rule:evenodd; clip-rule:evenodd"
viewBox="0 0 685.78 685.78"
 xmlns:xlink="http://www.w3.org/1999/xlink">
 <defs>
  <style type="text/css">
   <![CDATA[
    .fil0 {fill:none}
    .fil1 {fill:#FEFEFE}
    .fil2 {fill:black}
    .fil3 {fill:url(#id0)}
    .fil4 {fill:url(#id1)}
   ]]>
  </style>
  <linearGradient id="id0" gradientUnits="userSpaceOnUse" x1="-33.1" y1="137.47" x2="857.44" y2="119.33">
   <stop offset="0" style="stop-opacity:1; stop-color:#91D8F7"/>
   <stop offset="0.0901961" style="stop-opacity:1; stop-color:#6B809B"/>
   <stop offset="0.431373" style="stop-opacity:1; stop-color:#3E4095"/>
   <stop offset="0.988235" style="stop-opacity:1; stop-color:#0098DA"/>
   <stop offset="1" style="stop-opacity:1; stop-color:#3E4095"/>
  </linearGradient>
  <linearGradient id="id1" gradientUnits="userSpaceOnUse" x1="361.41" y1="126.74" x2="-27.11" y2="606.8">
   <stop offset="0" style="stop-opacity:1; stop-color:#3E4095"/>
   <stop offset="0.188235" style="stop-opacity:1; stop-color:#2E3092"/>
   <stop offset="0.580392" style="stop-opacity:1; stop-color:#3E4095"/>
   <stop offset="0.858824" style="stop-opacity:1; stop-color:#0098DA"/>
   <stop offset="1" style="stop-opacity:1; stop-color:#91D8F7"/>
  </linearGradient>
 </defs>
 <g id="Capa_x0020_1">
  <metadata id="HiHelloID_lamp-Layer"/>
  <g id="_1660599634560">
   <rect class="fil0" x="-0" y="-0" width="685.79" height="685.79"/>
   <path class="fil1" d="M478.04 433.35c63.15,-0.11 111.3,-0.43 115.75,-1.16 16.05,-2.64 26.91,-12.83 33.06,-23.33 8.5,-14.5 6.33,-32.05 6.33,-50.26l0 -227.24c0.02,-18.9 -2.59,-33.45 -12.46,-44.03 -9.14,-9.79 -19.52,-17.5 -38.79,-17.84 -108.31,-1.86 -225.78,0 -335.82,0 -18.15,0 -99.06,-1.35 -110.44,1.31 -40.91,9.6 -40.21,43.99 -40.21,73.31l0 92.89 26.8 0c-0.38,-53.48 -0.32,-120.45 3.36,-127.06 9.3,-16.73 29.09,-12.5 50.81,-12.5l376.93 0c64.43,0 52.53,-4.49 52.53,138.26 0,18.89 1.17,115.68 -0.41,125.88l-127.44 0 0 71.77zm0.01 101.71l39.92 0c15.05,0.05 22.53,-7.16 18.37,-18.78 -3.92,-10.93 -15.97,-8.9 -28.67,-8.9 -9.69,0 -19.63,0.14 -29.62,0.25l0 27.43z"/>
   <path class="fil1" d="M237.88 513.65c14.95,-6.33 20.99,15.44 8.85,20.51 -13.69,5.69 -21.99,-14.94 -8.85,-20.51zm-192.13 -18.89c-1.82,-11.67 -0.35,-38.31 -0.35,-51.56 0,-25.64 -2.16,-145.44 2.35,-153.56 7.58,-13.65 23.72,-10.19 41.41,-10.19l307.28 0c52.53,0 42.81,-3.67 42.81,112.7 0,15.4 0.96,94.31 -0.32,102.61l-393.18 0zm10.2 -237.03c-33.37,7.83 -32.78,35.85 -32.78,59.76l0 185.24c0,17.03 0.77,25.8 9.41,36.66 6.34,7.98 17.55,13.44 32.38,13.47 9.32,0.03 353.36,1.27 364.45,-0.53 13.08,-2.16 21.93,-10.46 26.94,-19.02 6.93,-11.82 5.15,-26.12 5.15,-40.97l0 -185.25c0.02,-15.4 -2.1,-27.26 -10.15,-35.88 -7.45,-8 -15.91,-14.28 -31.62,-14.54 -88.3,-1.53 -184.05,0 -273.76,0 -14.8,0 -80.76,-1.12 -90.02,1.06zm131.98 355.78c-20.55,0.87 -42.65,0.13 -63.38,0.12 -10.31,0 -20.73,-1.39 -22.85,8.7 -2.37,11.24 7.02,13.89 16.33,13.86l249.56 0c12.27,0.03 18.37,-5.84 14.97,-15.3 -3.19,-8.91 -13.02,-7.26 -23.36,-7.26 -20.43,0 -42.19,0.74 -62.45,-0.12l-0.41 -55.64 -108.37 0.11 -0.04 55.53z"/>
   <g>
    <path class="fil2" d="M504.94 414.28c64.09,-0.11 112.94,-0.43 117.46,-1.16 16.28,-2.64 27.3,-12.83 33.55,-23.33 8.62,-14.5 6.41,-32.05 6.41,-50.26l0 -227.24c0.03,-18.9 -2.63,-33.45 -12.63,-44.03 -9.28,-9.79 -19.82,-17.5 -39.38,-17.84 -109.91,-1.86 -229.11,0 -340.78,0 -18.42,0 -100.52,-1.35 -112.07,1.31 -41.52,9.6 -40.81,43.99 -40.81,73.31l0 92.89 27.2 0c-0.39,-53.48 -0.32,-120.45 3.4,-127.06 9.44,-16.73 29.53,-12.5 51.57,-12.5l382.51 0c65.38,0 53.3,-4.49 53.3,138.26 0,18.89 1.19,115.68 -0.42,125.88l-129.31 0 0 71.77zm0 101.71l40.51 0c15.28,0.05 22.87,-7.16 18.65,-18.78 -3.99,-10.93 -16.22,-8.9 -29.1,-8.9 -9.83,0 -19.93,0.14 -30.06,0.25l0 27.43z"/>
    <path class="fil2" d="M261.22 494.58c15.17,-6.33 21.29,15.44 8.98,20.51 -13.89,5.69 -22.32,-14.94 -8.98,-20.51zm-194.98 -18.89c-1.84,-11.67 -0.35,-38.31 -0.35,-51.56 0,-25.64 -2.19,-145.44 2.39,-153.56 7.68,-13.65 24.07,-10.19 42.02,-10.19l311.83 0c53.3,0 43.45,-3.67 43.45,112.7 0,15.4 0.97,94.31 -0.34,102.61l-399 0zm10.35 -237.03c-33.86,7.83 -33.26,35.85 -33.26,59.76l0 185.24c0,17.03 0.79,25.8 9.55,36.66 6.44,7.98 17.81,13.44 32.85,13.47 9.47,0.03 358.59,1.27 369.85,-0.53 13.27,-2.16 22.26,-10.46 27.34,-19.02 7.03,-11.82 5.23,-26.12 5.23,-40.97l0 -185.25c0.01,-15.4 -2.13,-27.26 -10.3,-35.88 -7.57,-8 -16.15,-14.28 -32.1,-14.54 -89.6,-1.53 -186.77,0 -277.8,0 -15.02,0 -81.96,-1.12 -91.36,1.06zm133.94 355.78c-20.85,0.87 -43.29,0.13 -64.32,0.12 -10.47,0 -21.04,-1.39 -23.19,8.7 -2.4,11.24 7.12,13.89 16.57,13.86l253.26 0c12.45,0.03 18.64,-5.84 15.19,-15.3 -3.24,-8.91 -13.22,-7.26 -23.71,-7.26 -20.73,0 -42.81,0.74 -63.37,-0.12l-0.42 -55.64 -109.97 0.11 -0.04 55.53z"/>
   </g>
   <g>
    <path class="fil3" d="M498.16 417.26c63.15,-0.11 111.28,-0.42 115.73,-1.14 16.04,-2.6 26.9,-12.64 33.05,-22.99 8.5,-14.29 6.32,-31.57 6.32,-49.52l0 -223.9c0.03,-18.63 -2.59,-32.96 -12.45,-43.38 -9.14,-9.65 -19.52,-17.25 -38.79,-17.58 -108.3,-1.83 -225.75,0 -335.78,0 -18.15,0 -99.04,-1.34 -110.42,1.29 -40.91,9.46 -40.21,43.34 -40.21,72.23l0 91.53 26.8 0c-0.38,-52.7 -0.32,-118.68 3.35,-125.2 9.31,-16.48 29.1,-12.31 50.81,-12.31l376.89 0c64.42,0 52.52,-4.43 52.52,136.22 0,18.61 1.17,113.99 -0.41,124.03l-127.41 0 0 70.72zm0 100.22l39.91 0c15.05,0.04 22.53,-7.06 18.37,-18.51 -3.92,-10.77 -15.97,-8.76 -28.67,-8.76 -9.68,0 -19.63,0.13 -29.61,0.24l0 27.03z"/>
    <path class="fil4" d="M258.01 496.38c14.96,-6.23 20.99,15.21 8.85,20.21 -13.68,5.6 -21.99,-14.73 -8.85,-20.21zm-192.11 -18.61c-1.81,-11.5 -0.34,-37.75 -0.34,-50.81 0,-25.26 -2.16,-143.3 2.35,-151.3 7.57,-13.44 23.72,-10.04 41.41,-10.04l307.24 0c52.52,0 42.82,-3.61 42.82,111.05 0,15.17 0.95,92.92 -0.34,101.1l-393.14 0zm10.2 -233.54c-33.36,7.7 -32.77,35.31 -32.77,58.87l0 182.52c0,16.78 0.77,25.42 9.41,36.12 6.34,7.87 17.55,13.24 32.37,13.28 9.33,0.02 353.32,1.25 364.41,-0.52 13.08,-2.13 21.93,-10.31 26.94,-18.75 6.93,-11.65 5.15,-25.74 5.15,-40.36l0 -182.54c0.02,-15.17 -2.1,-26.85 -10.15,-35.35 -7.45,-7.88 -15.91,-14.07 -31.62,-14.32 -88.29,-1.51 -184.03,0 -273.72,0 -14.8,0 -80.75,-1.11 -90.02,1.05zm131.97 350.54c-20.54,0.87 -42.65,0.14 -63.38,0.12 -10.3,0 -20.72,-1.37 -22.84,8.57 -2.37,11.08 7.02,13.69 16.33,13.66l249.53 0c12.27,0.03 18.37,-5.75 14.97,-15.08 -3.19,-8.78 -13.03,-7.15 -23.36,-7.15 -20.42,0 -42.19,0.73 -62.44,-0.12l-0.41 -54.82 -108.36 0.11 -0.04 54.71z"/>
   </g>
  </g>
 </g>
</svg>
