<?xml version="1.0" encoding="UTF-8"?>
<!DOCTYPE svg PUBLIC "-//W3C//DTD SVG 1.1//EN" "http://www.w3.org/Graphics/SVG/1.1/DTD/svg11.dtd">
<!-- Creator: CorelDRAW 2017 -->
<svg xmlns="http://www.w3.org/2000/svg" xml:space="preserve" width="14.8166mm" height="14.8166mm" version="1.1" style="shape-rendering:geometricPrecision; text-rendering:geometricPrecision; image-rendering:optimizeQuality; fill-rule:evenodd; clip-rule:evenodd"
viewBox="0 0 1481.66 1481.66"
 xmlns:xlink="http://www.w3.org/1999/xlink">
 <defs>
  <style type="text/css">
   <![CDATA[
    .fil0 {fill:none}
    .fil4 {fill:#382954}
    .fil1 {fill:#423068}
    .fil2 {fill:#3B2B5D}
    .fil3 {fill:#44316D}
    .fil6 {fill:#4EF298}
    .fil5 {fill:#5AFFA4}
    .fil7 {fill:#EE4552}
   ]]>
  </style>
    <clipPath id="id0">
     <path d="M233.6 0.41l1014.46 0c128.26,0 233.2,104.93 233.2,233.19l0 1014.46c0,128.26 -104.94,233.19 -233.2,233.19l-1014.46 0c-128.26,0 -233.19,-104.93 -233.19,-233.19l0 -1014.46c0,-128.26 104.93,-233.19 233.19,-233.19z"/>
    </clipPath>
    <clipPath id="id1">
     <path d="M512.29 831.1c-59.58,-108.14 -104.32,-158.16 -134.09,-328.98 -70.85,-406.65 140.38,-598.92 273.56,-155.82 47.89,159.28 36.47,238.69 22.37,410.08l60.22 1.36c26.11,-135.44 93.94,-289.3 167.32,-357.99 60.36,-56.48 275.92,-142.35 398.56,-67.96 77.95,47.31 45.02,116.49 -23.91,149.44 -175.26,83.74 -155.45,101.36 -264.05,237.2 -47.45,59.35 -82.74,73.21 -131.65,122.96 19.3,50.01 90.18,122.78 41.59,249.01 -121.45,-56.82 -220.29,-97.91 -375.62,-56.72 -25.76,6.84 -37.63,13.85 -58.75,20.05 -112.91,33.26 -16.05,-184.53 24.45,-222.63z"/>
    </clipPath>
    <clipPath id="id2">
     <path d="M635.62 1147.01c-123.77,43.51 -64.3,230.63 62.89,192.2 13.23,-3.99 26.01,-11.65 32.64,-17.34 90.74,-77.85 5.53,-210.38 -95.53,-174.86z"/>
    </clipPath>
 </defs>
 <g id="Capa_x0020_1">
  <metadata id="CorelCorpID_0Corel-Layer"/>
  <g id="_2673934050944">
   <rect class="fil0" x="0.41" y="0.41" width="1480.84" height="1480.84"/>
   <path class="fil1" d="M233.6 0.41l1014.46 0c128.26,0 233.2,104.93 233.2,233.19l0 1014.46c0,128.26 -104.94,233.19 -233.2,233.19l-1014.46 0c-128.26,0 -233.19,-104.93 -233.19,-233.19l0 -1014.46c0,-128.26 104.93,-233.19 233.19,-233.19z"/>
   <g style="clip-path:url(#id0)">
    <g>
     <circle class="fil2" cx="600.64" cy="1617.92" r="740.4"/>
     <circle class="fil3" cx="1278.69" cy="1391.91" r="740.4"/>
     <circle class="fil4" cx="368.51" cy="113.1" r="740.4"/>
    </g>
   </g>
   <path class="fil0" d="M233.6 0.41l1014.46 0c128.26,0 233.2,104.93 233.2,233.19l0 1014.46c0,128.26 -104.94,233.19 -233.2,233.19l-1014.46 0c-128.26,0 -233.19,-104.93 -233.19,-233.19l0 -1014.46c0,-128.26 104.93,-233.19 233.19,-233.19z"/>
   <path class="fil5" d="M512.29 831.1c-59.58,-108.14 -104.32,-158.16 -134.09,-328.98 -70.85,-406.65 140.38,-598.92 273.56,-155.82 47.89,159.28 36.47,238.69 22.37,410.08l60.22 1.36c26.11,-135.44 93.94,-289.3 167.32,-357.99 60.36,-56.48 275.92,-142.35 398.56,-67.96 77.95,47.31 45.02,116.49 -23.91,149.44 -175.26,83.74 -155.45,101.36 -264.05,237.2 -47.45,59.35 -82.74,73.21 -131.65,122.96 19.3,50.01 90.18,122.78 41.59,249.01 -121.45,-56.82 -220.29,-97.91 -375.62,-56.72 -25.76,6.84 -37.63,13.85 -58.75,20.05 -112.91,33.26 -16.05,-184.53 24.45,-222.63z"/>
   <g style="clip-path:url(#id1)">
    <g>
     <circle class="fil6" cx="674.12" cy="975.75" r="334.67"/>
    </g>
   </g>
   <path class="fil0" d="M512.29 831.1c-59.58,-108.14 -104.32,-158.16 -134.09,-328.98 -70.85,-406.65 140.38,-598.92 273.56,-155.82 47.89,159.28 36.47,238.69 22.37,410.08l60.22 1.36c26.11,-135.44 93.94,-289.3 167.32,-357.99 60.36,-56.48 275.92,-142.35 398.56,-67.96 77.95,47.31 45.02,116.49 -23.91,149.44 -175.26,83.74 -155.45,101.36 -264.05,237.2 -47.45,59.35 -82.74,73.21 -131.65,122.96 19.3,50.01 90.18,122.78 41.59,249.01 -121.45,-56.82 -220.29,-97.91 -375.62,-56.72 -25.76,6.84 -37.63,13.85 -58.75,20.05 -112.91,33.26 -16.05,-184.53 24.45,-222.63z"/>
   <path class="fil5" d="M635.62 1147.01c-123.77,43.51 -64.3,230.63 62.89,192.2 13.23,-3.99 26.01,-11.65 32.64,-17.34 90.74,-77.85 5.53,-210.38 -95.53,-174.86z"/>
   <g style="clip-path:url(#id2)">
    <g>
     <ellipse class="fil7" cx="685.66" cy="1633.43" rx="282.54" ry="244.74"/>
    </g>
   </g>
   <path class="fil0" d="M635.62 1147.01c-123.77,43.51 -64.3,230.63 62.89,192.2 13.23,-3.99 26.01,-11.65 32.64,-17.34 90.74,-77.85 5.53,-210.38 -95.53,-174.86z"/>
  </g>
 </g>
</svg>
