<?xml version="1.0" encoding="UTF-8"?>
<!DOCTYPE svg PUBLIC "-//W3C//DTD SVG 1.1//EN" "http://www.w3.org/Graphics/SVG/1.1/DTD/svg11.dtd">
<!-- Creator: CorelDRAW -->
<svg xmlns="http://www.w3.org/2000/svg" xml:space="preserve" width="10.16mm" height="10.16mm" style="shape-rendering:geometricPrecision; text-rendering:geometricPrecision; image-rendering:optimizeQuality; fill-rule:evenodd; clip-rule:evenodd"
viewBox="0 0 10.16 10.16"
 xmlns:xlink="http://www.w3.org/1999/xlink"
 version="1.1">
 <defs>
  <style type="text/css">
   <![CDATA[
    .fil0 {fill:none}
    .fil1 {fill:#373435}
   ]]>
  </style>
 </defs>
 <g id="Capa_x0020_1">
  <metadata id="CorelCorpID_0Corel-Layer"/>
  <g id="_376465264">
   <rect id="_375998328" class="fil0" x="0.8466" y="0.846978" width="8.4667" height="8.4667"/>
   <g id="_2081006960384">
    <path id="_376002576" class="fil1" d="M1.5077 5.0438c0.2745,-0.0919 0.4303,0.3622 0.1198,0.4503 -0.2748,0.0778 -0.4448,-0.3411 -0.1198,-0.4503zm-0.3844 0.0189c-0.0228,0.0225 -0.0059,-0.0053 -0.0267,0.038 -0.0053,0.0106 -0.0136,0.0409 -0.0144,0.0445 -0.0114,0.0458 -0.0136,0.0772 -0.0159,0.1239 -0.0014,0.3189 0.2634,0.5558 0.6495,0.4864l0.6539 0.6481c0.2147,0.2203 0.4322,0.423 0.6464,0.6444l0.6453 0.6456c0.0825,0.08 0.615,0.5987 0.6367,0.6514 -0.3294,0.0003 -0.8106,-0.0489 -1.05,0.1061 -0.2248,0.1453 -0.4275,0.4506 -0.4381,0.7079l4.3043 0c0.0009,-0.1781 -0.145,-0.4453 -0.2664,-0.5634 -0.3308,-0.322 -0.5267,-0.2506 -1.1053,-0.2506 -0.1503,0 -1.0136,0.02 -1.0745,-0.0139 -0.0139,-0.0077 -0.1197,-0.1155 -0.1397,-0.1364l-2.314 -2.312c-0.0836,-0.0864 -0.1944,-0.175 -0.2619,-0.2697 0.0466,-0.1025 0.1158,-0.1497 0.1219,-0.3222 0.0059,-0.1687 -0.0503,-0.2326 -0.1058,-0.3387 0.2172,-0.2383 0.4475,-0.4472 0.6628,-0.6675l1.3356 -1.3381c0.1386,-0.137 0.3767,-0.385 0.5467,-0.5517 -0.0589,-0.0725 -0.1086,-0.1419 -0.1481,-0.2125 -0.0208,0.02 -0.0422,0.0397 -0.0628,0.0606l-0.52 0.5194c-0.1208,0.1159 -0.2086,0.2198 -0.3372,0.3389 -0.1222,0.1134 -0.2045,0.2078 -0.3389,0.337l-1.3601 1.3561c-0.2255,-0.0411 -0.2108,-0.0413 -0.4147,0.0303 -0.0236,0.0122 -0.0222,0.0067 -0.0514,0.0309 -0.04,0.0336 -0.0181,0.0133 -0.0369,0.0452 -0.0234,0.0114 -0.017,0.0056 -0.0425,0.0284 -0.0192,0.0169 -0.0239,0.0241 -0.0367,0.0403 -0.0303,0.0386 -0.0361,0.0444 -0.0411,0.0933zm3.6676 -2.6173c0.0267,0.0672 -0.0405,0.1214 -0.0805,0.3572 -0.0406,0.2406 -0.0428,0.4864 -0.0125,0.7339 0.0402,0.3317 0.2255,0.9573 0.3839,1.1731 0.1158,-0.0691 0.2627,-0.2367 0.3791,-0.3311 0.0656,-0.0533 0.1209,-0.1131 0.187,-0.1664l2.2253 -2.0012c0.0612,-0.0489 0.1176,-0.1042 0.1701,-0.1583 -0.5937,-0.3845 -1.314,-0.6964 -2.2085,-0.5156 -0.0069,-0.0011 -0.0147,-0.005 -0.0227,-0.0106 -0.422,0.2917 -0.6898,0.5256 -1.0212,0.919z"/>
    <path id="_376002648" class="fil1" d="M5.9201 4.134c1.1417,0.0437 1.5262,-1.1086 1.4517,-1.3153l-0.3675 0.322c-0.0636,0.0608 -0.1094,0.0966 -0.1769,0.1605 -0.2103,0.1995 -0.5403,0.4676 -0.7395,0.6589 -0.0647,0.062 -0.1611,0.1306 -0.1678,0.1739z"/>
    <path id="_376003320" class="fil1" d="M6.0573 8.2945c0.0367,-0.2411 -0.0291,-0.3545 -0.2683,-0.3564 -0.2342,-0.002 -0.3258,0.1125 -0.2711,0.3569l0.5394 -0.0005z"/>
    <path id="_376003272" class="fil1" d="M7.596 4.3335c-0.143,0.0914 0,0.1919 0.1803,0.4031 0.215,0.2519 0.2625,0.3764 0.3761,0.2403 -0.0139,-0.1064 -0.1664,-0.2448 -0.2525,-0.3459 -0.093,-0.1086 -0.2094,-0.2792 -0.3039,-0.2975z"/>
    <path id="_376002984" class="fil1" d="M8.5808 3.7376c0.045,0.0164 0.4405,0.2078 0.3861,0.0073 -0.0197,-0.072 -0.3472,-0.1628 -0.4261,-0.1914 -0.2928,-0.105 -0.3509,-0.1595 -0.4039,-0.0173 0.0505,0.0834 0.1411,0.0978 0.2208,0.1242 0.0753,0.0247 0.1508,0.0508 0.2231,0.0772z"/>
    <path id="_376003512" class="fil1" d="M9.0494 2.2598c-0.0492,-0.0375 -0.3906,0.0472 -0.4656,0.0597 -0.0666,0.0114 -0.3075,0.0345 -0.3422,0.0934 -0.0175,0.0294 -0.0167,0.0752 0.0236,0.108 0.037,0.03 0.3672,-0.0475 0.4606,-0.0647 0.0678,-0.0122 0.5056,-0.0578 0.3236,-0.1964z"/>
    <path id="_376003896" class="fil1" d="M6.7215 4.8891c-0.0261,-0.1189 -0.1583,-0.1156 -0.165,-0.0039l0.1248 0.6864c0.0316,0.1328 0.16,0.0975 0.1625,0.0014l-0.0817 -0.465c-0.0111,-0.0736 -0.0258,-0.152 -0.0406,-0.2189z"/>
    <path id="_376003560" class="fil1" d="M5.5321 4.7221c-0.0587,0.047 -0.2976,0.7153 -0.2806,0.7614 0.0183,0.0506 0.0658,0.0698 0.1058,0.0495 0.0547,-0.0278 0.1559,-0.3595 0.1831,-0.4339 0.1108,-0.3023 0.1589,-0.3661 -0.0083,-0.377z"/>
    <path id="_376004064" class="fil1" d="M4.6912 2.4187c0.2483,-0.2764 0.1892,-0.2595 0.5144,-0.5492 0.2095,-0.1867 0.3831,-0.2897 0.5984,-0.4456 -0.2133,-0.2419 -0.3231,-0.3625 -0.5884,-0.413 -0.1663,-0.0317 -0.4208,0.0072 -0.6153,0.1803 -0.1966,0.175 -0.2597,0.4033 -0.2525,0.5914 0.01,0.2458 0.1348,0.4066 0.3434,0.6361z"/>
    <path id="_376003656" class="fil1" d="M4.7909 2.4454c0.0267,0.0672 -0.0405,0.1214 -0.0805,0.3572 -0.0406,0.2406 -0.0428,0.4864 -0.0125,0.7339 0.0402,0.3317 0.2255,0.9573 0.3839,1.1731 0.1158,-0.0691 0.2627,-0.2367 0.3791,-0.3311 0.0656,-0.0533 0.1209,-0.1131 0.187,-0.1664l2.2253 -2.0012c0.0612,-0.0489 0.1176,-0.1042 0.1701,-0.1583 -0.5937,-0.3845 -1.314,-0.6964 -2.2085,-0.5156 -0.0069,-0.0011 -0.0147,-0.005 -0.0227,-0.0106 -0.422,0.2917 -0.6898,0.5256 -1.0212,0.919z"/>
   </g>
  </g>
 </g>
</svg>
