<?xml version="1.0" encoding="UTF-8"?>
<!DOCTYPE svg PUBLIC "-//W3C//DTD SVG 1.1//EN" "http://www.w3.org/Graphics/SVG/1.1/DTD/svg11.dtd">
<!-- Creator: CorelDRAW -->
<svg xmlns="http://www.w3.org/2000/svg" xml:space="preserve" width="10.16mm" height="10.16mm" style="shape-rendering:geometricPrecision; text-rendering:geometricPrecision; image-rendering:optimizeQuality; fill-rule:evenodd; clip-rule:evenodd"
viewBox="0 0 10.16 10.16"
 xmlns:xlink="http://www.w3.org/1999/xlink"
 xmlns:xodm="http://www.corel.com/coreldraw/odm/2003"
 version="1.1">
 <defs>
  <style type="text/css">
   <![CDATA[
    .fil0 {fill:none}
    .fil1 {fill:#373435}
   ]]>
  </style>
 </defs>
 <g id="Capa_x0020_1">
  <metadata id="CorelCorpID_0Corel-Layer"/>
  <g id="_376012872">
   <rect id="_376466224" class="fil0" x="0.8466" y="0.846978" width="8.4667" height="8.4667"/>
   <g id="_2081007034688">
    <path id="_376469848" class="fil1" d="M3.4745 7.335c-0.0753,-0.0031 -0.6978,0.3472 -0.7153,0.3933 -0.0195,0.0506 0.0039,0.0964 0.0477,0.1075 0.0601,0.015 0.3556,-0.1705 0.4253,-0.2089 0.2837,-0.1563 0.3623,-0.1733 0.2423,-0.2919z"/>
    <path id="_376469752" class="fil1" d="M4.9712 0.9209l0.2633 -0.0223 -0.0025 3.0365c-0.1,-0.0386 -0.1897,-0.0427 -0.2644,0.0034l0.0036 -3.0176z"/>
    <path id="_376470400" class="fil1" d="M4.1573 7.1442c0.8386,0.7864 1.8912,0.1644 1.9709,-0.0417l-0.4917 0.0022c-0.0886,0.0045 -0.147,0.0011 -0.2403,0.0053 -0.2914,0.0128 -0.7192,-0.0014 -0.9967,0.0128 -0.09,0.0044 -0.2086,-0.007 -0.2422,0.0214z"/>
    <path id="_376470328" class="fil1" d="M5.299 8.4011c-0.1692,-0.0247 -0.1264,0.1462 -0.1289,0.4253 -0.0028,0.3334 -0.0489,0.4592 0.1272,0.4306 0.0597,-0.0897 0.035,-0.2956 0.0364,-0.4292 0.0011,-0.1439 0.025,-0.3503 -0.0347,-0.4267z"/>
    <path id="_376470640" class="fil1" d="M6.4404 8.5984c0.0234,0.0419 0.1975,0.4483 0.2884,0.26 0.0325,-0.0675 -0.1564,-0.3528 -0.1975,-0.4264 -0.1531,-0.2728 -0.1614,-0.3528 -0.2953,-0.2795 -0.0164,0.0964 0.0425,0.1673 0.0858,0.24 0.0408,0.0686 0.0811,0.1381 0.1186,0.2059z"/>
    <path id="_376471072" class="fil1" d="M7.7713 7.7845c-0.0128,-0.0609 -0.3278,-0.2217 -0.3931,-0.2617 -0.058,-0.0353 -0.2564,-0.1767 -0.3216,-0.1547 -0.0328,0.0108 -0.0626,0.0463 -0.0534,0.0977 0.0083,0.0473 0.3103,0.2059 0.3925,0.2545 0.0595,0.0355 0.4223,0.2897 0.3756,0.0642z"/>
    <path id="_376470952" class="fil1" d="M4.2681 8.2467c0.0586,-0.1078 -0.0442,-0.1925 -0.1225,-0.112l-0.3583 0.6037c-0.0636,0.1219 0.0572,0.18 0.1225,0.1086l0.2447 -0.4072c0.04,-0.0634 0.0808,-0.1325 0.1136,-0.1931z"/>
    <path id="_376471120" class="fil1" d="M4.3553 5.0305c0.3712,-0.0464 0.3148,-0.0725 0.7534,-0.0781 0.282,-0.0036 0.482,0.0325 0.7484,0.0564 -0.0025,-0.3245 -0.0064,-0.4886 -0.1745,-0.702 -0.1055,-0.1339 -0.3247,-0.2722 -0.5867,-0.2691 -0.265,0.0033 -0.4633,0.135 -0.5817,0.283 -0.1547,0.1931 -0.1661,0.3975 -0.1589,0.7098z"/>
    <path id="_376471384" class="fil1" d="M4.4134 5.1163c-0.0239,0.0686 -0.1108,0.0653 -0.2967,0.2183 -0.1897,0.1562 -0.3533,0.3412 -0.4939,0.5492 -0.188,0.2789 -0.46,0.8762 -0.4822,1.1448 0.1339,0.0239 0.3561,-0.0067 0.5067,-0.0017 0.085,0.0028 0.1664,-0.0061 0.2519,-0.003l3.0107 -0.0523c0.0786,0.0031 0.158,-0.0016 0.2339,-0.008 -0.1975,-0.6839 -0.5392,-1.3959 -1.3379,-1.8487 -0.0047,-0.0055 -0.008,-0.0133 -0.0105,-0.023 -0.5131,-0.0567 -0.8706,-0.0559 -1.382,0.0244z"/>
   </g>
  </g>
 </g>
</svg>
