<?xml version="1.0" encoding="UTF-8"?>
<!DOCTYPE svg PUBLIC "-//W3C//DTD SVG 1.1//EN" "http://www.w3.org/Graphics/SVG/1.1/DTD/svg11.dtd">
<!-- Creator: CorelDRAW -->
<svg xmlns="http://www.w3.org/2000/svg" xml:space="preserve" width="10.16mm" height="10.16mm" style="shape-rendering:geometricPrecision; text-rendering:geometricPrecision; image-rendering:optimizeQuality; fill-rule:evenodd; clip-rule:evenodd"
viewBox="0 0 10.16 10.16"
 xmlns:xlink="http://www.w3.org/1999/xlink"
 xmlns:xodm="http://www.corel.com/coreldraw/odm/2003"
 version="1.1">
 <defs>
  <style type="text/css">
   <![CDATA[
    .str0 {stroke:#373435;stroke-width:0.2}
    .fil0 {fill:none}
    .fil1 {fill:#373435}
   ]]>
  </style>
 </defs>
 <g id="Capa_x0020_1">
  <metadata id="CorelCorpID_0Corel-Layer"/>
  <g id="_376451512">
   <ellipse id="_582959864" class="fil0 str0" cx="5.08004" cy="5.08004" rx="4.23289" ry="4.23321"/>
   <path id="_582961856" class="fil1" d="M1.7418 4.8973c0.2163,-0.0726 0.3396,0.2859 0.0943,0.3554 -0.2169,0.0615 -0.3512,-0.2692 -0.0943,-0.3554zm2.8675 -0.2958c0.0242,0.051 0.0486,0.0944 0.0722,0.1266 0.095,-0.0566 0.2154,-0.1937 0.3105,-0.2712 0.0538,-0.0438 0.0991,-0.0925 0.1533,-0.1362l1.8223 -1.6386c0.0501,-0.0403 0.0963,-0.0856 0.1393,-0.13 -0.4073,-0.2637 -0.8876,-0.4857 -1.4634,-0.4638 -0.1543,-0.006 -0.3158,0.0058 -0.4854,0.04 -0.003,-0.0005 -0.0061,-0.0016 -0.0094,-0.0033 0.04,-0.0277 0.0811,-0.0564 0.1243,-0.0877 -0.1747,-0.1981 -0.2646,-0.2968 -0.4817,-0.3383 -0.1363,-0.026 -0.3447,0.0059 -0.5042,0.1478 -0.1609,0.1434 -0.2125,0.3302 -0.2065,0.4842 0.0079,0.1945 0.1034,0.3242 0.2638,0.502l-0.0106 0.0126c0.0212,0.0531 -0.0322,0.0958 -0.0635,0.2819 -0.032,0.1902 -0.0338,0.3843 -0.01,0.5798 0.032,0.2617 0.1781,0.7555 0.3032,0.926 0.0147,-0.0088 0.03,-0.0195 0.0458,-0.0318zm0.4409 0.1369c-0.0478,0.0385 -0.2433,0.5857 -0.2297,0.6234 0.0151,0.0416 0.0539,0.0572 0.0868,0.0407 0.0448,-0.0229 0.1276,-0.2943 0.1498,-0.3553 0.091,-0.2474 0.1303,-0.3 -0.0069,-0.3088zm0.9744 0.1369c-0.0216,-0.0975 -0.1301,-0.0949 -0.1354,-0.0034l0.1022 0.5622c0.026,0.1087 0.1312,0.0799 0.1332,0.0012l-0.0669 -0.381c-0.0091,-0.0602 -0.021,-0.1243 -0.0331,-0.179zm1.9061 -2.1536c-0.04,-0.0306 -0.3196,0.0388 -0.3813,0.049 -0.0543,0.0095 -0.2518,0.0286 -0.28,0.0766 -0.0142,0.0241 -0.0137,0.0616 0.0195,0.0884 0.0303,0.0247 0.3006,-0.039 0.3768,-0.0528 0.0557,-0.0099 0.414,-0.0475 0.265,-0.1612zm-0.3834 1.2106c0.0365,0.0133 0.3606,0.1699 0.316,0.0059 -0.016,-0.059 -0.2845,-0.1335 -0.3491,-0.1569 -0.2397,-0.0858 -0.2872,-0.1306 -0.3307,-0.0139 0.0416,0.068 0.1158,0.0799 0.181,0.1014 0.0615,0.0203 0.1234,0.0419 0.1828,0.0635zm-0.8069 0.4878c-0.1172,0.0749 0.0004,0.1572 0.1479,0.3299 0.1762,0.2066 0.215,0.3085 0.308,0.1969 -0.0116,-0.0869 -0.1362,-0.2002 -0.2067,-0.2831 -0.0763,-0.0891 -0.1717,-0.2287 -0.2492,-0.2437zm-1.3724 -0.1631c0.9353,0.0356 1.25,-0.9082 1.1891,-1.0775l-0.301 0.2638c-0.0521,0.0496 -0.0897,0.0789 -0.145,0.1315 -0.1721,0.1631 -0.4424,0.3828 -0.6056,0.5396 -0.0528,0.0506 -0.1319,0.1068 -0.1375,0.1426zm-3.9298 0.6553c-0.0181,0.0175 -0.0049,-0.0042 -0.0212,0.0299 -0.0042,0.0084 -0.0108,0.0322 -0.0114,0.0352 -0.009,0.0362 -0.0108,0.0608 -0.0127,0.0976 -0.0009,0.2518 0.208,0.439 0.513,0.3841l0.5161 0.5119c0.1698,0.1738 0.3414,0.3341 0.5105,0.5088l0.5097 0.5098c0.0651,0.0628 1.0827,0.9641 1.1,1.0056 -0.2602,0.0002 -0.6401,-0.0386 -0.8292,0.0838 -0.1775,0.1147 -0.3375,0.3558 -0.3459,0.5589l3.3986 0c0.0005,-0.1408 -0.1146,-0.3516 -0.2102,-0.4447 -0.2614,-0.2543 -0.4161,-0.198 -0.8728,-0.198 -0.1187,0 -0.8002,0.0156 -0.8484,-0.0109 -0.0109,-0.0063 -0.0945,-0.0913 -0.1102,-0.1079l-2.4243 -2.317c-0.0663,-0.068 -0.1536,-0.138 -0.2071,-0.2127 0.037,-0.081 0.0913,-0.1184 0.0962,-0.2546 0.0047,-0.1327 -0.0399,-0.1835 -0.0834,-0.267 0.1718,-0.1884 0.3533,-0.3535 0.5233,-0.5273l1.0543 -1.0566c0.1096,-0.1079 0.2977,-0.304 0.4321,-0.4357 -0.0467,-0.0571 -0.0862,-0.112 -0.1172,-0.1673 -0.0163,0.0155 -0.0331,0.0312 -0.0494,0.0475l-0.4107 0.4103c-0.095,0.0913 -0.1647,0.1736 -0.2663,0.2675 -0.0965,0.0892 -0.1615,0.164 -0.2674,0.266l-1.0741 1.0708c-0.1781,-0.0325 -0.1663,-0.0325 -0.3275,0.0238 -0.0183,0.0098 -0.0175,0.0054 -0.0404,0.0244 -0.0316,0.0267 -0.0142,0.0105 -0.0291,0.0358 -0.0184,0.009 -0.0134,0.0042 -0.0336,0.0223 -0.0149,0.0135 -0.019,0.0193 -0.0291,0.0319 -0.0238,0.0304 -0.0283,0.035 -0.0322,0.0738z"/>
  </g>
 </g>
</svg>
