<?xml version="1.0" encoding="UTF-8"?>
<!DOCTYPE svg PUBLIC "-//W3C//DTD SVG 1.1//EN" "http://www.w3.org/Graphics/SVG/1.1/DTD/svg11.dtd">
<!-- Creator: CorelDRAW -->
<svg xmlns="http://www.w3.org/2000/svg" xml:space="preserve" width="10.16mm" height="10.16mm" style="shape-rendering:geometricPrecision; text-rendering:geometricPrecision; image-rendering:optimizeQuality; fill-rule:evenodd; clip-rule:evenodd"
viewBox="0 0 10.16 10.16"
 xmlns:xlink="http://www.w3.org/1999/xlink"
 xmlns:xodm="http://www.corel.com/coreldraw/odm/2003"
 version="1.1">
 <defs>
  <style type="text/css">
   <![CDATA[
    .str0 {stroke:#373435;stroke-width:0.2}
    .fil1 {fill:none}
    .fil0 {fill:#373435}
   ]]>
  </style>
 </defs>
 <g id="Capa_x0020_1">
  <metadata id="CorelCorpID_0Corel-Layer"/>
  <g id="_583417856">
   <g id="_2081152098256">
    <g>
     <path id="_376005192" class="fil0" d="M7.1279 7.1891c0.0688,0.2434 0.1796,0.3227 0.4064,0.2219 0.2222,-0.0983 0.2599,-0.2459 0.1033,-0.4534l-0.5097 0.2315z"/>
     <path id="_376005696" class="fil0" d="M6.1268 3.6892c-0.8651,-0.8106 -1.9502,-0.1696 -2.0323,0.0429l0.5069 -0.0021c0.0912,-0.0044 0.1516,-0.0013 0.248,-0.0053 0.3003,-0.0131 0.7413,0.0012 1.0276,-0.0134 0.0927,-0.0047 0.215,0.0075 0.2498,-0.0221z"/>
     <path id="_376006752" class="fil0" d="M4.9493 2.3931c0.1746,0.0255 0.1304,-0.1506 0.1329,-0.4384 0.0028,-0.3439 0.0504,-0.4737 -0.131,-0.4441 -0.0616,0.0927 -0.0364,0.305 -0.0374,0.4425 -0.0012,0.1484 -0.0261,0.3613 0.0355,0.44z"/>
     <path id="_376007760" class="fil0" d="M3.7724 2.1899c-0.024,-0.0432 -0.2038,-0.4624 -0.2975,-0.2682 -0.0336,0.0694 0.1612,0.3637 0.2038,0.4397 0.1578,0.2813 0.1662,0.3638 0.3044,0.2881 0.0171,-0.0995 -0.0439,-0.1724 -0.0884,-0.2474 -0.042,-0.0706 -0.0837,-0.1425 -0.1223,-0.2122z"/>
     <path id="_376007880" class="fil0" d="M2.4001 3.0289c0.013,0.0628 0.3379,0.2287 0.4055,0.2701 0.0597,0.0364 0.2641,0.182 0.3314,0.1596 0.0339,-0.0112 0.0644,-0.0479 0.055,-0.1008 -0.0087,-0.0489 -0.3202,-0.2125 -0.4048,-0.2626 -0.0613,-0.0365 -0.4354,-0.2985 -0.3871,-0.0663z"/>
     <path id="_376007736" class="fil0" d="M6.0123 2.5524c-0.06,0.1111 0.0455,0.1986 0.1267,0.1155l0.3693 -0.6227c0.0654,-0.1257 -0.0591,-0.1855 -0.1263,-0.1117l-0.2524 0.4198c-0.0414,0.0653 -0.0834,0.1366 -0.1173,0.1991z"/>
     <path id="_376007832" class="fil0" d="M6.8307 3.4925c0.0778,0.0031 0.7198,-0.3581 0.7379,-0.4054 0.0199,-0.0523 -0.0041,-0.0996 -0.0495,-0.1108 -0.0616,-0.0156 -0.3663,0.1755 -0.4385,0.2153 -0.2925,0.1612 -0.3734,0.1786 -0.2499,0.3009z"/>
     <path id="_376008336" class="fil0" d="M5.9227 5.8691c-0.3828,0.0476 -0.3249,0.0746 -0.777,0.0806 -0.2907,0.0034 -0.497,-0.0336 -0.7718,-0.0582 0.0028,0.3345 0.0069,0.5038 0.1802,0.7238 0.1086,0.1382 0.3345,0.2807 0.6046,0.2776 0.2733,-0.0035 0.478,-0.1394 0.6,-0.2919 0.1596,-0.1992 0.1715,-0.4102 0.164,-0.7319z"/>
     <path id="_376008384" class="fil0" d="M5.8626 5.7804c0.0249,-0.0707 0.1142,-0.0672 0.3059,-0.225 0.1958,-0.1609 0.3644,-0.352 0.5094,-0.5664 0.1939,-0.2875 0.4743,-0.9037 0.4973,-1.1803 -0.1381,-0.0249 -0.3672,0.0065 -0.5225,0.0016 -0.0877,-0.0028 -0.1717,0.0062 -0.2598,0.0031l-3.1047 0.0538c-0.0809,-0.0031 -0.1631,0.0019 -0.2409,0.0084 0.2032,0.7052 0.5558,1.4396 1.3795,1.9063 0.0047,0.0056 0.0081,0.014 0.0106,0.024 0.5293,0.0582 0.8981,0.0572 1.4252,-0.0255z"/>
     <path id="_376008624" class="fil0" d="M5.2876 9.2843l-0.2714 0.0231 0.0009 -2.2944c0.1034,0.0398 0.1961,0.0442 0.273,-0.0034l-0.0025 2.2747z"/>
     <polygon id="_376009296" class="fil0" points="6.5354,5.0345 6.3917,5.0986 6.4144,5.1574 7.3566,7.237 7.5041,7.1748 "/>
    </g>
    <ellipse id="_376008984" class="fil1 str0" cx="5.08001" cy="5.06838" rx="4.21532" ry="4.21563"/>
   </g>
  </g>
 </g>
</svg>
