<?xml version="1.0" encoding="UTF-8"?>
<!DOCTYPE svg PUBLIC "-//W3C//DTD SVG 1.1//EN" "http://www.w3.org/Graphics/SVG/1.1/DTD/svg11.dtd">
<!-- Creator: CorelDRAW -->
<svg xmlns="http://www.w3.org/2000/svg" xml:space="preserve" width="10.16mm" height="10.16mm" style="shape-rendering:geometricPrecision; text-rendering:geometricPrecision; image-rendering:optimizeQuality; fill-rule:evenodd; clip-rule:evenodd"
viewBox="0 0 10.16 10.16"
 xmlns:xlink="http://www.w3.org/1999/xlink"
 version="1.1"
 xmlns:xodm="http://www.corel.com/coreldraw/odm/2003">
 <defs>
  <style type="text/css">
   <![CDATA[
    .fil1 {fill:none}
    .fil0 {fill:black}
    .fil2 {fill:#282829}
   ]]>
  </style>
 </defs>
<symbol id="icon-arrow-right" viewBox="1.6933 1.6933 6.7734 6.7734">
 <polygon class="fil0" points="5.08,1.6933 4.4831,2.2902 6.8453,4.6567 1.6933,4.6567 1.6933,5.5034 6.8453,5.5033 4.4831,7.8697 5.08,8.4667 8.4667,5.08 "/>
</symbol>
<symbol id="Símbolo4" viewBox="-0 -0.0028 10.16 10.1656">
 <path class="fil0" d="M1.2246 6.6278l3.4188 2.2792 0 -2.0354 -1.8936 -1.2643 -1.5252 1.0205zm-0.3515 -0.8164l1.0942 -0.7314 -1.0942 -0.7314 0 1.4628zm4.6435 3.0956l3.4188 -2.2792 -1.5251 -1.0205 -1.8937 1.2643 0 2.0354zm-0.4366 -2.7951l1.5421 -1.0319 -1.5421 -1.0319 -1.5421 1.0319 1.5421 1.0319zm-2.3302 -1.5592l1.8937 -1.2643 -0.0001 -2.0354 -3.4188 2.2792 1.5252 1.0205zm5.4428 0.5273l1.0942 0.7314 0.0001 -1.4628 -1.0943 0.7314zm-0.7824 -0.5273l1.5251 -1.0205 -3.4188 -2.2792 0 2.0354 1.8937 1.2643zm2.7498 -1.0205l0 3.0956c0,0.155 -0.0643,0.2759 -0.1928,0.3629l-4.6434 3.0956c-0.0794,0.0491 -0.1606,0.0737 -0.2438,0.0737 -0.0832,0 -0.1644,0.0246 -0.2438,-0.0737l-4.6434 -3.0956c-0.1285,-0.087 -0.1928,-0.2079 -0.1928,-0.3629l0 -3.0956c0,-0.155 0.0643,-0.2759 0.1928,-0.3629l4.6434 -3.0956c0.0794,-0.0491 0.1606,-0.0737 0.2438,-0.0737 0.0832,0 0.1644,-0.0246 0.2438,0.0737l4.6434 3.0956c0.1285,0.087 0.1928,0.2079 0.1928,0.3629z"/>
</symbol>
<symbol id="Símbolo12" viewBox="0.8466 0.8466 8.4668 8.4668">
 <path class="fil0" d="M8.4667 0.8467l-6.7734 0c-0.4657,0 -0.8467,0.381 -0.8467,0.8467l0 7.62 1.6933 -1.6933 5.9268 -0.0001c0.4657,0 0.8467,-0.381 0.8467,-0.8467l-0.0001 -5.08c0,-0.4657 -0.381,-0.8467 -0.8467,-0.8467l0.0001 0.0001zm0 5.9266l-5.9267 0 -0.8467 0.8467 0 -5.9267 6.7734 0 0 5.08z"/>
</symbol>
<symbol id="Símbolo7" viewBox="-5.0796 -7.8047 13.8391 16.3245">
 <path class="fil0" d="M5.08 0c0.254,0.0476 0.3473,-0.1092 0.3473,-0.2445 0,-0.1207 -0.0044,-0.4401 -0.0064,-0.8636 -1.4135,0.3067 -1.7113,-0.6814 -1.7113,-0.6814 -0.2311,-0.5867 -0.5652,-0.743 -0.5652,-0.743 -0.4604,-0.315 0.0356,-0.3086 0.0356,-0.3086 0.5099,0.0356 0.7779,0.5232 0.7779,0.5232 0.4534,0.7766 1.1894,0.5525 1.4796,0.4223 0.0457,-0.3283 0.1765,-0.5525 0.3219,-0.6795 -1.1284,-0.127 -2.3139,-0.5639 -2.3139,-2.5102 0,-0.5544 0.1969,-1.0077 0.5226,-1.3633 -0.0572,-0.1283 -0.2286,-0.6445 0.0445,-1.3443 0,0 0.4255,-0.1365 1.397,0.5207 0.9652,-0.6572 1.3907,-0.5207 1.3907,-0.5207 0.2731,0.6998 0.1016,1.216 0.0508,1.3443 0,1.9514 -1.1875,2.3813 -2.3178,2.5063 0.1778,0.1524 0.3429,0.4636 0.3429,0.9398 0,0.6795 -0.0064,1.2256 -0.0064,1.3907 0,0.1334 0.0889,0.2921 0.3493,0.2413 2.1066,0.664 3.5404,2.6188 3.5404,4.8282 0,2.7952 -2.2669,5.0621 -5.0621,5.0621 -2.7953,0 -5.0622,-2.2669 -5.0622,-5.0621 0,-1.2836 0.4889,-2.5209 1.3652,-3.4578 -0.7715,-0.4454 -1.6491,-0.6805 -2.5403,-0.6805 -0.8912,0 -1.7682,0.2351 -2.5397,0.6804m10.1596 0.0002l0 0 0 0z"/>
</symbol>
<symbol id="Símbolo11" viewBox="2.1167 0.8467 5.9266 8.4667">
 <path class="fil0" d="M3.81 8.4667l2.54 0 0 0.8467 -2.54 -0.0001 0 -0.8466zm3.3469 -2.662c0.436,-0.5105 0.8864,-1.0384 0.8864,-1.9947 0,-1.6336 -1.3297,-2.9633 -2.9633,-2.9633 -1.6336,0 -2.9633,1.3297 -2.9633,2.9633 0,0.9673 0.4517,1.4935 0.8894,2.0024 0.1516,0.177 0.3086,0.3603 0.4589,0.5711 0.061,0.0872 0.1609,0.4216 0.2502,0.8132l-0.3285 0 0 0.8467 3.3866 -0.0001 0 -0.8467 -0.3276 0.0001c0.0902,-0.3924 0.1905,-0.7277 0.251,-0.8149 0.149,-0.2129 0.3073,-0.3979 0.4602,-0.577l0 -0.0001zm-1.1532 0.0902c-0.1837,0.2612 -0.337,0.8784 -0.4259,1.3018l-0.9952 0c-0.0885,-0.4242 -0.2421,-1.0427 -0.428,-1.3039 -0.1038,-0.0038 -0.2108,-0.0059 -0.3157,-0.0059 -0.1049,0 -0.2119,0.0021 -0.3158,0.0053 -0.2871,-1.1111 -0.5598,-1.4286 -0.5598,-2.0822 0,-1.1671 0.9495,-2.1167 2.1167,-2.1167 1.1672,0 2.1167,0.9495 2.1167,2.1167 0,0.6439 -0.2722,0.9627 -0.6837,1.4448 -0.1579,0.1854 -0.337,0.395 -0.5093,0.6401z"/>
</symbol>
<symbol id="Símbolo14" viewBox="0.8496 0.5015 8.4656 9.1335">
 <path class="fil0" d="M9.3127 2.8339l-2.1253 0 -0.0013 0.3988 1.3137 0.0061 0.0018 0.4521 -1.717 0.0051 -0.001 0.8115 0.8534 0.0025 0.0036 0.9098 -0.508 0.002 -0.0033 -0.4514 -0.3454 -0.0025 -0.0051 1.4618 -0.3995 0.0076 -0.0056 0.6579 -0.4013 0.0036 -0.0051 0.398 -0.4514 0.0069 -0.0051 1.665 0.4511 0.0076 0.0036 0.4572 -0.9068 0 -0.0076 -1.2649 -0.3988 -0.0102 -0.0043 -0.3912 -0.398 -0.0013 -0.0051 0.3917 -0.4039 0.0112 -0.0051 0.3988 -0.4506 0.0051 -0.0025 0.3995 0.4501 0.0051 0.0013 0.4552 -0.9063 0.0025 -0.0041 -1.7178 -0.2946 -0.0097 -0.014 -0.4044 -0.5004 -0.0036 -0.0025 -0.3955 -0.4475 -0.0051 -0.0081 -0.4516 -0.3998 -0.0058 -0.0076 -0.4034 -0.3995 -0.0091 -0.0002 -2.5816 0.4483 0.0013 0.0038 0.8534 0.398 0.0076 0.0084 0.3988 0.4475 0.0051 0.0076 0.4521 0.7569 0.0013 0.0051 -0.4458 0.3988 -0.0076 0.0084 -0.3995 0.6497 -0.0046 0.0119 -0.4039 0.6477 -0.0046 0.0076 -0.447 0.4008 -0.0114 0.0051 -2.729 0.4051 -0.0102 0.0025 -0.3978 3.4432 -0.0041 0.0097 0.3988 0.3962 0.0051 0.0033 1.9294 -0.0025 -0.0009zm-2.9439 -1.2718l0.002 -0.4536 -0.4521 0.002 -0.0005 0.4516 0.4511 0 -0.0005 0z"/>
</symbol>
<symbol id="Símbolo18" viewBox="-5.4872 -5.77 15.4101 13.0558">
 <path class="fil0" d="M9.9229 2.0447c-0.3387,0.1566 -0.635,0.1609 -0.9398,0.0085 0.3937,-0.2371 0.4149,-0.4064 0.5588,-0.8551 -0.3725,0.2201 -0.7874,0.381 -1.2277,0.4657 -0.3471,-0.3725 -0.8467,-0.6054 -1.397,-0.6054 -1.0583,0 -1.9262,0.8636 -1.9262,1.9219 0,0.1524 0.0127,0.2963 0.0423,0.4403 -1.596,-0.0847 -3.0141,-0.8467 -3.9624,-2.0108 -0.1693,0.2836 -0.254,0.6138 -0.254,0.9737 0,0.6604 0.3387,1.2488 0.8467,1.596 -0.3133,-0.0127 -0.6096,-0.0974 -0.8678,-0.2413l0 0.0254c0,0.9313 0.6604,1.706 1.5409,1.8796 -0.2836,0.0847 -0.58,0.0847 -0.8721,0.0339 -0.7183,1.0086 -1.8816,1.6087 -3.1206,1.6087 -2.1156,0 -3.8312,-1.7156 -3.8312,-3.8311 0,-2.1156 1.7156,-3.8312 3.8312,-3.8312 0.573,0 1.1399,0.1291 1.6562,0.3765 0.8467,0.5503 1.8627,0.8636 2.9506,0.8636 3.5348,0 5.4695,-2.9295 5.4695,-5.4737 0,-0.0847 0,-0.1693 -0.0085,-0.254 0.381,-0.2667 0.8297,-0.5165 1.0837,-0.9059l0.4274 7.8147z"/>
</symbol>
<symbol id="Símbolo3" viewBox="2.2407 2.2407 5.6786 5.6786">
 <polygon class="fil0" points="2.8393,7.9193 5.08,5.6786 7.3207,7.9193 7.9193,7.3207 5.6786,5.08 7.9193,2.8393 7.3207,2.2407 5.08,4.4814 2.8393,2.2407 2.2407,2.8393 4.4814,5.08 2.2407,7.3207 "/>
</symbol>
<symbol id="Símbolo9" viewBox="0.8467 0.8467 8.4666 8.4666">
 <path class="fil0" d="M5.08 0.8467c-2.3343,0 -4.2333,1.899 -4.2333,4.2333 0,2.3343 1.8991,4.2333 4.2333,4.2333 2.3342,0 4.2333,-1.8991 4.2333,-4.2333 0,-2.3342 -1.899,-4.2333 -4.2333,-4.2333zm0 7.62c-1.8673,0 -3.3867,-1.5193 -3.3867,-3.3867 0,-1.8674 1.5193,-3.3867 3.3867,-3.3867 1.8674,0 3.3867,1.5193 3.3867,3.3867 0,1.8674 -1.5193,3.3867 -3.3867,3.3867z"/>
 <path class="fil0" d="M4.6567 4.6567l0.8466 0 0 2.54 -0.8466 0 0 -2.54zm0 -1.6934l0.8466 0 0 0.8467 -0.8466 0 0 -0.8467z"/>
</symbol>
<symbol id="icon-feed" viewBox="1.6933 1.8796 6.5871 6.5871">
 <circle class="fil0" cx="2.6162" cy="7.5438" r="0.9228"/>
 <path class="fil0" d="M1.6933 1.8796l0 1.198c2.976,0 5.389,2.413 5.389,5.389l1.1981 0.0001c0,-3.6364 -2.9506,-6.5871 -6.5871,-6.5871zm0 2.3961l0 1.198c1.651,0 2.993,1.342 2.993,2.993l1.198 0c0,-2.3156 -1.8754,-4.191 -4.191,-4.191z"/>
</symbol>
<symbol id="icon-lightbulb" viewBox="2.1167 0.8467 5.9266 8.4667">
 <path class="fil0" d="M3.81 8.4667l2.54 0 0 0.8467 -2.54 -0.0001 0 -0.8466zm3.3469 -2.662c0.436,-0.5105 0.8864,-1.0384 0.8864,-1.9947 0,-1.6336 -1.3297,-2.9633 -2.9633,-2.9633 -1.6336,0 -2.9633,1.3297 -2.9633,2.9633 0,0.9673 0.4517,1.4935 0.8894,2.0024 0.1516,0.177 0.3086,0.3603 0.4589,0.5711 0.061,0.0872 0.1609,0.4216 0.2502,0.8132l-0.3285 0 0 0.8467 3.3866 -0.0001 0 -0.8467 -0.3276 0.0001c0.0902,-0.3924 0.1905,-0.7277 0.251,-0.8149 0.149,-0.2129 0.3073,-0.3979 0.4602,-0.577l0 -0.0001zm-1.1532 0.0902c-0.1837,0.2612 -0.337,0.8784 -0.4259,1.3018l-0.9952 0c-0.0885,-0.4242 -0.2421,-1.0427 -0.428,-1.3039 -0.1038,-0.0038 -0.2108,-0.0059 -0.3157,-0.0059 -0.1049,0 -0.2119,0.0021 -0.3158,0.0053 -0.2871,-1.1111 -0.5598,-1.4286 -0.5598,-2.0822 0,-1.1671 0.9495,-2.1167 2.1167,-2.1167 1.1672,0 2.1167,0.9495 2.1167,2.1167 0,0.6439 -0.2722,0.9627 -0.6837,1.4448 -0.1579,0.1854 -0.337,0.395 -0.5093,0.6401z"/>
</symbol>
<symbol id="Símbolo2" viewBox="0.8467 0.8467 8.4666 8.4666">
 <polygon class="fil1" points="4.2329,5.7518 3.2597,4.7803 2.662,5.3797 4.2338,6.9482 7.2843,3.8977 6.6857,3.2991 "/>
 <path class="fil0" d="M5.08 0.8467c-2.3343,0 -4.2333,1.899 -4.2333,4.2333 0,2.3343 1.8991,4.2333 4.2333,4.2333 2.3342,0 4.2333,-1.8991 4.2333,-4.2333 0,-2.3342 -1.899,-4.2333 -4.2333,-4.2333zm-0.8462 6.1015l-1.5718 -1.5685 0.5977 -0.5994 0.9732 0.9716 2.4528 -2.4528 0.5986 0.5986 -3.0505 3.0505z"/>
</symbol>
<symbol id="Símbolo15" viewBox="0.8467 0.8467 8.4666 8.4666">
 <path class="fil0" d="M4.6567 7.62l0.8466 0 0 -0.8467 -0.8466 0 0 0.8467zm0.4233 -6.7733c-2.3368,0 -4.2333,1.8965 -4.2333,4.2333 0,2.3368 1.8965,4.2333 4.2333,4.2333 2.3368,0 4.2333,-1.8965 4.2333,-4.2333 0,-2.3368 -1.8965,-4.2333 -4.2333,-4.2333zm0 7.62c-1.8669,0 -3.3867,-1.5198 -3.3867,-3.3867 0,-1.8669 1.5198,-3.3867 3.3867,-3.3867 1.8669,0 3.3867,1.5198 3.3867,3.3867 0,1.8669 -1.5198,3.3867 -3.3867,3.3867zm0 -5.9267c-0.9356,0 -1.6933,0.7578 -1.6933,1.6933l0.8466 0c0,-0.4657 0.381,-0.8467 0.8467,-0.8467 0.4657,0 0.8467,0.381 0.8467,0.8467 0,0.8467 -1.27,0.7408 -1.27,2.1167l0.8466 0c0,-0.9525 1.27,-1.0583 1.27,-2.1167 0,-0.9356 -0.7578,-1.6933 -1.6933,-1.6933z"/>
</symbol>
<symbol id="icon-repost" viewBox="1.27 0.8467 7.62 8.4666">
 <path class="fil0" d="M2.9633 2.9633l4.2334 0 0 1.27 1.6933 -1.6933 -1.6933 -1.6933 0 1.27 -5.08 0 0 2.54 0.8466 0 0 -1.6934zm4.2334 4.2334l-4.2334 0 0 -1.27 -1.6933 1.6933 1.6933 1.6933 0 -1.27 5.08 0 0 -2.54 -0.8466 0 0 1.6933 0 0.0001z"/>
</symbol>
<symbol id="Símbolo1" viewBox="1.6933 1.6933 6.7734 6.7734">
 <polygon class="fil0" points="5.08,1.6933 4.4831,2.2902 6.8453,4.6567 1.6933,4.6567 1.6933,5.5034 6.8453,5.5033 4.4831,7.8697 5.08,8.4667 8.4667,5.08 "/>
</symbol>
<symbol id="Símbolo10" viewBox="-2.54 -0.0001 12.2767 6.7734">
 <path class="fil0" d="M5.3552 4.2333c-0.6465,0.8186 -1.6341,1.2965 -2.6775,1.2965 -1.8847,0 -3.4132,-1.5284 -3.4132,-3.4131 0,-0.768 0.2592,-1.5147 0.7355,-2.1168 -1.4012,0 -2.54,1.1388 -2.54,2.54 0,1.4012 1.1388,2.54 2.54,2.54l7.1967 0.0001 0 1.6933 1.6933 0 0 -1.6933 0.8467 0 0 -1.6933 -4.3815 0 0 0.8466zm-2.3919 1.6934c-0.4657,0 -0.8467,-0.381 -0.8467,-0.8467 0,-0.4657 0.381,-0.8467 0.8467,-0.8467 0.4657,0 0.8467,0.381 0.8467,0.8467 0,0.4657 -0.381,0.8467 -0.8467,0.8467z"/>
</symbol>
<symbol id="icon-check" viewBox="0.8467 0.8467 8.4666 8.4666">
 <polygon class="fil1" points="4.2329,5.7518 3.2597,4.7803 2.662,5.3797 4.2338,6.9482 7.2843,3.8977 6.6857,3.2991 "/>
 <path class="fil0" d="M5.08 0.8467c-2.3343,0 -4.2333,1.899 -4.2333,4.2333 0,2.3343 1.8991,4.2333 4.2333,4.2333 2.3342,0 4.2333,-1.8991 4.2333,-4.2333 0,-2.3342 -1.899,-4.2333 -4.2333,-4.2333zm-0.8462 6.1015l-1.5718 -1.5685 0.5977 -0.5994 0.9732 0.9716 2.4528 -2.4528 0.5986 0.5986 -3.0505 3.0505z"/>
</symbol>
<symbol id="icon-github" viewBox="-5.0796 -7.8047 13.8391 16.3245">
 <path class="fil0" d="M5.08 0c0.254,0.0476 0.3473,-0.1092 0.3473,-0.2445 0,-0.1207 -0.0044,-0.4401 -0.0064,-0.8636 -1.4135,0.3067 -1.7113,-0.6814 -1.7113,-0.6814 -0.2311,-0.5867 -0.5652,-0.743 -0.5652,-0.743 -0.4604,-0.315 0.0356,-0.3086 0.0356,-0.3086 0.5099,0.0356 0.7779,0.5232 0.7779,0.5232 0.4534,0.7766 1.1894,0.5525 1.4796,0.4223 0.0457,-0.3283 0.1765,-0.5525 0.3219,-0.6795 -1.1284,-0.127 -2.3139,-0.5639 -2.3139,-2.5102 0,-0.5544 0.1969,-1.0077 0.5226,-1.3633 -0.0572,-0.1283 -0.2286,-0.6445 0.0445,-1.3443 0,0 0.4255,-0.1365 1.397,0.5207 0.9652,-0.6572 1.3907,-0.5207 1.3907,-0.5207 0.2731,0.6998 0.1016,1.216 0.0508,1.3443 0,1.9514 -1.1875,2.3813 -2.3178,2.5063 0.1778,0.1524 0.3429,0.4636 0.3429,0.9398 0,0.6795 -0.0064,1.2256 -0.0064,1.3907 0,0.1334 0.0889,0.2921 0.3493,0.2413 2.1066,0.664 3.5404,2.6188 3.5404,4.8282 0,2.7952 -2.2669,5.0621 -5.0621,5.0621 -2.7953,0 -5.0622,-2.2669 -5.0622,-5.0621 0,-1.2836 0.4889,-2.5209 1.3652,-3.4578 -0.7715,-0.4454 -1.6491,-0.6805 -2.5403,-0.6805 -0.8912,0 -1.7682,0.2351 -2.5397,0.6804m10.1596 0.0002l0 0 0 0z"/>
</symbol>
<symbol id="icon-notist" viewBox="0.6866 1.7678 9.6228 6.6017">
 <path class="fil0" d="M9.6249 5.9042c-0.1232,0 -0.2248,0.0821 -0.3687,0.2053 -0.1926,0.1571 -0.4157,0.3543 -0.649,0.4911 -0.4753,0.0177 -0.8518,0.4084 -0.8518,0.8841 0,0.4886 0.3962,0.8848 0.8848,0.8848 0.4886,0 0.8848,-0.3962 0.8848,-0.8848 0,-0.4757 -0.3765,-0.8664 -0.8517,-0.8842 -0.3687,0 -0.6549,-0.2045 -0.6549,-0.737 0,-0.839 0.5732,-1.8631 0.5732,-2.8054 0,-0.7781 -0.4504,-1.2903 -1.5761,-1.2903 -1.2086,0 -2.4172,1.0037 -2.786,1.4542 0,0 0.1638,-0.5935 0.1638,-0.9216 0,-0.348 -0.246,-0.5326 -0.6964,-0.5326 -1.1879,0 -2.2936,0.3073 -2.2936,0.7578 0,0.2663 0.1435,0.3073 0.1435,0.6553 0,1.1057 -0.8602,3.8705 -0.8602,4.6283 0,0.3484 0.1638,0.45 0.4301,0.45 0.3073,0 1.1057,-0.1016 1.72,-0.1016 0.3073,0 0.4504,-0.0821 0.4504,-0.4305 0,-0.7984 0.5321,-2.5392 0.8805,-3.236 0.4504,-0.9009 0.9419,-1.2488 1.2903,-1.2488 0.2866,0 0.4712,0.2455 0.4712,0.5732 0,0.7988 -0.6557,1.6171 -0.6557,2.8668 0,0.8805 0.7171,1.5765 1.8847,1.5765 1.1955,0 2.0341,-0.6837 2.493,-1.2251 0.2019,-0.1922 0.3713,-0.3793 0.4945,-0.5406 0.1223,-0.1643 0.1638,-0.3073 0.1638,-0.4102 0,-0.1215 -0.1016,-0.2447 -0.2663,-0.2447l-0.4182 0.066z"/>
</symbol>
<symbol id="Símbolo5" viewBox="1.27 1.27 7.62 7.6201">
 <polygon class="fil0" points="7.109,2.4524 4.3573,5.2041 4.9559,5.8027 7.7076,3.051 8.89,4.2333 8.89,1.27 5.9267,1.27 "/>
 <path class="fil0" d="M8.0433 8.0433l-5.9266 0 0 -5.9266 3.3866 0 -0.8467 -0.8467 -2.5399 0c-0.4669,0 -0.8467,0.3797 -0.8467,0.8467l0 5.9267c0,0.4669 0.3797,0.8467 0.8467,0.8467l5.9266 -0.0001c0.4669,0 0.8467,-0.3797 0.8467,-0.8467l0 -2.54 -0.8467 -0.8467 0 3.3867z"/>
</symbol>
<symbol id="Símbolo6" viewBox="1.6933 1.8796 6.5871 6.5871">
 <circle class="fil0" cx="2.6162" cy="7.5438" r="0.9228"/>
 <path class="fil0" d="M1.6933 1.8796l0 1.198c2.976,0 5.389,2.413 5.389,5.389l1.1981 0.0001c0,-3.6364 -2.9506,-6.5871 -6.5871,-6.5871zm0 2.3961l0 1.198c1.651,0 2.993,1.342 2.993,2.993l1.198 0c0,-2.3156 -1.8754,-4.191 -4.191,-4.191z"/>
</symbol>
<symbol id="icon-codepen" viewBox="-0 -0.0028 10.16 10.1656">
 <path class="fil0" d="M1.2246 6.6278l3.4188 2.2792 0 -2.0354 -1.8936 -1.2643 -1.5252 1.0205zm-0.3515 -0.8164l1.0942 -0.7314 -1.0942 -0.7314 0 1.4628zm4.6435 3.0956l3.4188 -2.2792 -1.5251 -1.0205 -1.8937 1.2643 0 2.0354zm-0.4366 -2.7951l1.5421 -1.0319 -1.5421 -1.0319 -1.5421 1.0319 1.5421 1.0319zm-2.3302 -1.5592l1.8937 -1.2643 -0.0001 -2.0354 -3.4188 2.2792 1.5252 1.0205zm5.4428 0.5273l1.0942 0.7314 0.0001 -1.4628 -1.0943 0.7314zm-0.7824 -0.5273l1.5251 -1.0205 -3.4188 -2.2792 0 2.0354 1.8937 1.2643zm2.7498 -1.0205l0 3.0956c0,0.155 -0.0643,0.2759 -0.1928,0.3629l-4.6434 3.0956c-0.0794,0.0491 -0.1606,0.0737 -0.2438,0.0737 -0.0832,0 -0.1644,0.0246 -0.2438,-0.0737l-4.6434 -3.0956c-0.1285,-0.087 -0.1928,-0.2079 -0.1928,-0.3629l0 -3.0956c0,-0.155 0.0643,-0.2759 0.1928,-0.3629l4.6434 -3.0956c0.0794,-0.0491 0.1606,-0.0737 0.2438,-0.0737 0.0832,0 0.1644,-0.0246 0.2438,0.0737l4.6434 3.0956c0.1285,0.087 0.1928,0.2079 0.1928,0.3629z"/>
</symbol>
<symbol id="icon-info" viewBox="0.8467 0.8467 8.4666 8.4666">
 <path class="fil0" d="M5.08 0.8467c-2.3343,0 -4.2333,1.899 -4.2333,4.2333 0,2.3343 1.8991,4.2333 4.2333,4.2333 2.3342,0 4.2333,-1.8991 4.2333,-4.2333 0,-2.3342 -1.899,-4.2333 -4.2333,-4.2333zm0 7.62c-1.8673,0 -3.3867,-1.5193 -3.3867,-3.3867 0,-1.8674 1.5193,-3.3867 3.3867,-3.3867 1.8674,0 3.3867,1.5193 3.3867,3.3867 0,1.8674 -1.5193,3.3867 -3.3867,3.3867z"/>
 <path class="fil0" d="M4.6567 4.6567l0.8466 0 0 2.54 -0.8466 0 0 -2.54zm0 -1.6934l0.8466 0 0 0.8467 -0.8466 0 0 -0.8467z"/>
</symbol>
<symbol id="icon-question" viewBox="0.8467 0.8467 8.4666 8.4666">
 <path class="fil0" d="M4.6567 7.62l0.8466 0 0 -0.8467 -0.8466 0 0 0.8467zm0.4233 -6.7733c-2.3368,0 -4.2333,1.8965 -4.2333,4.2333 0,2.3368 1.8965,4.2333 4.2333,4.2333 2.3368,0 4.2333,-1.8965 4.2333,-4.2333 0,-2.3368 -1.8965,-4.2333 -4.2333,-4.2333zm0 7.62c-1.8669,0 -3.3867,-1.5198 -3.3867,-3.3867 0,-1.8669 1.5198,-3.3867 3.3867,-3.3867 1.8669,0 3.3867,1.5198 3.3867,3.3867 0,1.8669 -1.5198,3.3867 -3.3867,3.3867zm0 -5.9267c-0.9356,0 -1.6933,0.7578 -1.6933,1.6933l0.8466 0c0,-0.4657 0.381,-0.8467 0.8467,-0.8467 0.4657,0 0.8467,0.381 0.8467,0.8467 0,0.8467 -1.27,0.7408 -1.27,2.1167l0.8466 0c0,-0.9525 1.27,-1.0583 1.27,-2.1167 0,-0.9356 -0.7578,-1.6933 -1.6933,-1.6933z"/>
</symbol>
<symbol id="icon-message" viewBox="0.8466 0.8466 8.4668 8.4668">
 <path class="fil0" d="M8.4667 0.8467l-6.7734 0c-0.4657,0 -0.8467,0.381 -0.8467,0.8467l0 7.62 1.6933 -1.6933 5.9268 -0.0001c0.4657,0 0.8467,-0.381 0.8467,-0.8467l-0.0001 -5.08c0,-0.4657 -0.381,-0.8467 -0.8467,-0.8467l0.0001 0.0001zm0 5.9266l-5.9267 0 -0.8467 0.8467 0 -5.9267 6.7734 0 0 5.08z"/>
</symbol>
<symbol id="icon-theme" viewBox="1.6934 0.8467 7.1966 8.4666">
 <path class="fil0" d="M7.62 1.6933l0 -0.4233c0,-0.2328 -0.1905,-0.4233 -0.4233,-0.4233l-5.08 0c-0.2328,0 -0.4233,0.1905 -0.4233,0.4233l0 1.6933c0,0.2328 0.1905,0.4233 0.4233,0.4233l5.08 0.0001c0.2328,0 0.4233,-0.1905 0.4233,-0.4233l0 -0.4234 0.4233 0 0 1.6933 -4.2333 0 0 4.6567c0,0.2328 0.1905,0.4233 0.4233,0.4233l0.8467 0c0.2328,0 0.4233,-0.1905 0.4233,-0.4233l0 -3.81 3.3867 0 0 -3.3867 -1.27 0z"/>
</symbol>
<symbol id="Símbolo19" viewBox="-3.7105 0 11.3305 8.2927">
 <path class="fil0" d="M5.4542 1.0719c-0.1465,-0.2769 -0.602,-0.2769 -0.7485,0l-3.81 7.1967c-0.1482,0.0155 -0.2984,0.0241 -0.4477,0.0241 -2.2963,0 -4.1585,-1.8622 -4.1585,-4.1584 0,-2.1232 1.6002,-3.9057 3.7107,-4.1341l7.6198 -0.0002 -2.1658 1.0719zm0.0491 6.5481l-0.8466 0 0 -0.8467 0.8466 0 0 0.8467zm-0.8466 -1.6933l0 -2.1167 0.8466 0 0.0004 2.1167 -0.847 0z"/>
</symbol>
<symbol id="icon-twitter" viewBox="-5.4872 -5.77 15.4101 13.0558">
 <path class="fil0" d="M9.9229 2.0447c-0.3387,0.1566 -0.635,0.1609 -0.9398,0.0085 0.3937,-0.2371 0.4149,-0.4064 0.5588,-0.8551 -0.3725,0.2201 -0.7874,0.381 -1.2277,0.4657 -0.3471,-0.3725 -0.8467,-0.6054 -1.397,-0.6054 -1.0583,0 -1.9262,0.8636 -1.9262,1.9219 0,0.1524 0.0127,0.2963 0.0423,0.4403 -1.596,-0.0847 -3.0141,-0.8467 -3.9624,-2.0108 -0.1693,0.2836 -0.254,0.6138 -0.254,0.9737 0,0.6604 0.3387,1.2488 0.8467,1.596 -0.3133,-0.0127 -0.6096,-0.0974 -0.8678,-0.2413l0 0.0254c0,0.9313 0.6604,1.706 1.5409,1.8796 -0.2836,0.0847 -0.58,0.0847 -0.8721,0.0339 -0.7183,1.0086 -1.8816,1.6087 -3.1206,1.6087 -2.1156,0 -3.8312,-1.7156 -3.8312,-3.8311 0,-2.1156 1.7156,-3.8312 3.8312,-3.8312 0.573,0 1.1399,0.1291 1.6562,0.3765 0.8467,0.5503 1.8627,0.8636 2.9506,0.8636 3.5348,0 5.4695,-2.9295 5.4695,-5.4737 0,-0.0847 0,-0.1693 -0.0085,-0.254 0.381,-0.2667 0.8297,-0.5165 1.0837,-0.9059l0.4274 7.8147z"/>
</symbol>
<symbol id="Símbolo17" viewBox="1.6934 0.8467 7.1966 8.4666">
 <path class="fil0" d="M7.62 1.6933l0 -0.4233c0,-0.2328 -0.1905,-0.4233 -0.4233,-0.4233l-5.08 0c-0.2328,0 -0.4233,0.1905 -0.4233,0.4233l0 1.6933c0,0.2328 0.1905,0.4233 0.4233,0.4233l5.08 0.0001c0.2328,0 0.4233,-0.1905 0.4233,-0.4233l0 -0.4234 0.4233 0 0 1.6933 -4.2333 0 0 4.6567c0,0.2328 0.1905,0.4233 0.4233,0.4233l0.8467 0c0.2328,0 0.4233,-0.1905 0.4233,-0.4233l0 -3.81 3.3867 0 0 -3.3867 -1.27 0z"/>
</symbol>
<symbol id="icon-external" viewBox="1.27 1.27 7.62 7.6201">
 <polygon class="fil0" points="7.109,2.4524 4.3573,5.2041 4.9559,5.8027 7.7076,3.051 8.89,4.2333 8.89,1.27 5.9267,1.27 "/>
 <path class="fil0" d="M8.0433 8.0433l-5.9266 0 0 -5.9266 3.3866 0 -0.8467 -0.8467 -2.5399 0c-0.4669,0 -0.8467,0.3797 -0.8467,0.8467l0 5.9267c0,0.4669 0.3797,0.8467 0.8467,0.8467l5.9266 -0.0001c0.4669,0 0.8467,-0.3797 0.8467,-0.8467l0 -2.54 -0.8467 -0.8467 0 3.3867z"/>
</symbol>
<symbol id="icon-close" viewBox="2.2407 2.2407 5.6786 5.6786">
 <polygon class="fil0" points="2.8393,7.9193 5.08,5.6786 7.3207,7.9193 7.9193,7.3207 5.6786,5.08 7.9193,2.8393 7.3207,2.2407 5.08,4.4814 2.8393,2.2407 2.2407,2.8393 4.4814,5.08 2.2407,7.3207 "/>
</symbol>
<symbol id="Símbolo16" viewBox="1.27 0.8467 7.62 8.4666">
 <path class="fil0" d="M2.9633 2.9633l4.2334 0 0 1.27 1.6933 -1.6933 -1.6933 -1.6933 0 1.27 -5.08 0 0 2.54 0.8466 0 0 -1.6934zm4.2334 4.2334l-4.2334 0 0 -1.27 -1.6933 1.6933 1.6933 1.6933 0 -1.27 5.08 0 0 -2.54 -0.8466 0 0 1.6933 0 0.0001z"/>
</symbol>
<symbol id="icon-offline" viewBox="0.8496 0.5015 8.4656 9.1335">
 <path class="fil0" d="M9.3127 2.8339l-2.1253 0 -0.0013 0.3988 1.3137 0.0061 0.0018 0.4521 -1.717 0.0051 -0.001 0.8115 0.8534 0.0025 0.0036 0.9098 -0.508 0.002 -0.0033 -0.4514 -0.3454 -0.0025 -0.0051 1.4618 -0.3995 0.0076 -0.0056 0.6579 -0.4013 0.0036 -0.0051 0.398 -0.4514 0.0069 -0.0051 1.665 0.4511 0.0076 0.0036 0.4572 -0.9068 0 -0.0076 -1.2649 -0.3988 -0.0102 -0.0043 -0.3912 -0.398 -0.0013 -0.0051 0.3917 -0.4039 0.0112 -0.0051 0.3988 -0.4506 0.0051 -0.0025 0.3995 0.4501 0.0051 0.0013 0.4552 -0.9063 0.0025 -0.0041 -1.7178 -0.2946 -0.0097 -0.014 -0.4044 -0.5004 -0.0036 -0.0025 -0.3955 -0.4475 -0.0051 -0.0081 -0.4516 -0.3998 -0.0058 -0.0076 -0.4034 -0.3995 -0.0091 -0.0002 -2.5816 0.4483 0.0013 0.0038 0.8534 0.398 0.0076 0.0084 0.3988 0.4475 0.0051 0.0076 0.4521 0.7569 0.0013 0.0051 -0.4458 0.3988 -0.0076 0.0084 -0.3995 0.6497 -0.0046 0.0119 -0.4039 0.6477 -0.0046 0.0076 -0.447 0.4008 -0.0114 0.0051 -2.729 0.4051 -0.0102 0.0025 -0.3978 3.4432 -0.0041 0.0097 0.3988 0.3962 0.0051 0.0033 1.9294 -0.0025 -0.0009zm-2.9439 -1.2718l0.002 -0.4536 -0.4521 0.002 -0.0005 0.4516 0.4511 0 -0.0005 0z"/>
</symbol>
<symbol id="Símbolo8" viewBox="0.8467 1.27 8.4666 7.7682">
 <path class="fil0" d="M6.985 1.27c-0.7366,0 -1.4436,0.3429 -1.905,0.8848 -0.4614,-0.5419 -1.1684,-0.8848 -1.905,-0.8848 -1.3039,0 -2.3283,1.0245 -2.3283,2.3283 0,1.6002 1.4393,2.9041 3.6195,4.8853l0.6138 0.5546 0.6138 -0.5588c2.1802,-1.977 3.6195,-3.2809 3.6195,-4.8811 0,-1.3038 -1.0244,-2.3283 -2.3283,-2.3283zm-1.8627 6.5828l-0.0423 0.0423 -0.0423 -0.0423c-2.0151,-1.8245 -3.3444,-3.031 -3.3444,-4.2545 0,-0.8466 0.635,-1.4816 1.4817,-1.4816 0.6519,0 1.2869,0.4191 1.5113,0.9991l0.7916 -0.0001c0.2202,-0.5799 0.8552,-0.999 1.5071,-0.999 0.8467,0 1.4817,0.635 1.4817,1.4817 0,1.2234 -1.3293,2.4299 -3.3443,4.2545l-0.0001 -0.0001z"/>
</symbol>
<symbol id="Símbolo13" viewBox="0.6866 1.7678 9.6228 6.6017">
 <path class="fil0" d="M9.6249 5.9042c-0.1232,0 -0.2248,0.0821 -0.3687,0.2053 -0.1926,0.1571 -0.4157,0.3543 -0.649,0.4911 -0.4753,0.0177 -0.8518,0.4084 -0.8518,0.8841 0,0.4886 0.3962,0.8848 0.8848,0.8848 0.4886,0 0.8848,-0.3962 0.8848,-0.8848 0,-0.4757 -0.3765,-0.8664 -0.8517,-0.8842 -0.3687,0 -0.6549,-0.2045 -0.6549,-0.737 0,-0.839 0.5732,-1.8631 0.5732,-2.8054 0,-0.7781 -0.4504,-1.2903 -1.5761,-1.2903 -1.2086,0 -2.4172,1.0037 -2.786,1.4542 0,0 0.1638,-0.5935 0.1638,-0.9216 0,-0.348 -0.246,-0.5326 -0.6964,-0.5326 -1.1879,0 -2.2936,0.3073 -2.2936,0.7578 0,0.2663 0.1435,0.3073 0.1435,0.6553 0,1.1057 -0.8602,3.8705 -0.8602,4.6283 0,0.3484 0.1638,0.45 0.4301,0.45 0.3073,0 1.1057,-0.1016 1.72,-0.1016 0.3073,0 0.4504,-0.0821 0.4504,-0.4305 0,-0.7984 0.5321,-2.5392 0.8805,-3.236 0.4504,-0.9009 0.9419,-1.2488 1.2903,-1.2488 0.2866,0 0.4712,0.2455 0.4712,0.5732 0,0.7988 -0.6557,1.6171 -0.6557,2.8668 0,0.8805 0.7171,1.5765 1.8847,1.5765 1.1955,0 2.0341,-0.6837 2.493,-1.2251 0.2019,-0.1922 0.3713,-0.3793 0.4945,-0.5406 0.1223,-0.1643 0.1638,-0.3073 0.1638,-0.4102 0,-0.1215 -0.1016,-0.2447 -0.2663,-0.2447l-0.4182 0.066z"/>
</symbol>
<symbol id="icon-heart" viewBox="0.8467 1.27 8.4666 7.7682">
 <path class="fil0" d="M6.985 1.27c-0.7366,0 -1.4436,0.3429 -1.905,0.8848 -0.4614,-0.5419 -1.1684,-0.8848 -1.905,-0.8848 -1.3039,0 -2.3283,1.0245 -2.3283,2.3283 0,1.6002 1.4393,2.9041 3.6195,4.8853l0.6138 0.5546 0.6138 -0.5588c2.1802,-1.977 3.6195,-3.2809 3.6195,-4.8811 0,-1.3038 -1.0244,-2.3283 -2.3283,-2.3283zm-1.8627 6.5828l-0.0423 0.0423 -0.0423 -0.0423c-2.0151,-1.8245 -3.3444,-3.031 -3.3444,-4.2545 0,-0.8466 0.635,-1.4816 1.4817,-1.4816 0.6519,0 1.2869,0.4191 1.5113,0.9991l0.7916 -0.0001c0.2202,-0.5799 0.8552,-0.999 1.5071,-0.999 0.8467,0 1.4817,0.635 1.4817,1.4817 0,1.2234 -1.3293,2.4299 -3.3443,4.2545l-0.0001 -0.0001z"/>
</symbol>
<symbol id="icon-keybase" viewBox="-2.54 -0.0001 12.2767 6.7734">
 <path class="fil0" d="M5.3552 4.2333c-0.6465,0.8186 -1.6341,1.2965 -2.6775,1.2965 -1.8847,0 -3.4132,-1.5284 -3.4132,-3.4131 0,-0.768 0.2592,-1.5147 0.7355,-2.1168 -1.4012,0 -2.54,1.1388 -2.54,2.54 0,1.4012 1.1388,2.54 2.54,2.54l7.1967 0.0001 0 1.6933 1.6933 0 0 -1.6933 0.8467 0 0 -1.6933 -4.3815 0 0 0.8466zm-2.3919 1.6934c-0.4657,0 -0.8467,-0.381 -0.8467,-0.8467 0,-0.4657 0.381,-0.8467 0.8467,-0.8467 0.4657,0 0.8467,0.381 0.8467,0.8467 0,0.4657 -0.381,0.8467 -0.8467,0.8467z"/>
</symbol>
<symbol id="icon-warning" viewBox="-3.7105 0 11.3305 8.2927">
 <path class="fil0" d="M5.4542 1.0719c-0.1465,-0.2769 -0.602,-0.2769 -0.7485,0l-3.81 7.1967c-0.1482,0.0155 -0.2984,0.0241 -0.4477,0.0241 -2.2963,0 -4.1585,-1.8622 -4.1585,-4.1584 0,-2.1232 1.6002,-3.9057 3.7107,-4.1341l7.6198 -0.0002 -2.1658 1.0719zm0.0491 6.5481l-0.8466 0 0 -0.8467 0.8466 0 0 0.8467zm-0.8466 -1.6933l0 -2.1167 0.8466 0 0.0004 2.1167 -0.847 0z"/>
</symbol>
 <g id="Capa_x0020_1">
  <metadata id="CorelCorpID_0Corel-Layer"/>
  <path class="fil2" d="M5.08 0.8466c2.338,0 4.2333,1.8954 4.2333,4.2334 0,2.338 -1.8953,4.2334 -4.2333,4.2334 -2.338,0 -4.2334,-1.8954 -4.2334,-4.2334 0,-2.338 1.8954,-4.2334 4.2334,-4.2334zm-3.8272 5.5156c0.111,-0.3131 0.1846,-0.5247 0.3512,-0.7888 0.1619,-0.2568 0.288,-0.4688 0.4598,-0.683 0.4375,-0.5453 0.6514,-0.7868 0.7781,-1.5066 0.1155,-0.6558 0.2778,-1.2379 0.616,-1.667 0.3449,-0.4377 1.0294,-0.6683 1.5848,-0.6859 -0.7218,-0.0202 -1.3734,0.2009 -1.9,0.4819 -1.0311,0.5501 -1.7991,1.5874 -2.0335,2.7539 -0.1081,0.538 -0.1084,1.0986 0.0041,1.635 0.0169,0.0806 0.0799,0.394 0.1395,0.4605zm3.6568 0.9341c0.0651,0.0414 -0.0073,0.0405 0.1699,0.11 0.0608,0.0239 0.1336,0.0489 0.1361,0.1172 -0.1584,0.0195 -0.3238,-0.0801 -0.306,-0.2272zm2.3673 -2.7324c0.0505,-0.097 0.2318,-0.1906 0.1473,-0.3807 -0.1135,0.0173 -0.0706,0.1159 -0.1293,0.2184 -0.1217,0.0249 -0.2926,-0.0228 -0.3949,0.0198 0.0186,0.0335 0.0191,0.0362 0.0584,0.0524l0.0616 0.0214c0.0021,-0.0036 0.0085,0.0031 0.0121,0.0056 -0.1477,0.2899 0.2285,0.9493 0.205,1.3778l0.1079 0.0158c0.0351,-0.0685 0.0823,-0.2416 0.115,-0.3264 0.039,-0.1016 0.084,-0.2065 0.1221,-0.3223 0.0976,-0.2966 0.1078,-0.4222 0.0704,-0.7529 -0.1625,0.0377 -0.1627,0.091 -0.3756,0.0711zm-0.0728 -0.7324c0.0511,0.1041 0.3129,0.1621 0.4387,0.1137 0.0453,-0.261 -0.3217,-0.1833 -0.4387,-0.1137zm-2.0634 0.4122c0.2878,-0.1646 0.9019,-0.3315 0.9531,0.1642l-0.2202 -0.0038c-0.0081,-0.1002 0.0703,-0.0754 0.013,-0.1706 -0.0277,-0.046 -0.071,-0.0785 -0.1402,-0.082 -0.0271,0.0923 -0.0422,0.2299 -0.1202,0.2627 -0.131,0.055 -0.1866,-0.0504 -0.3231,-0.0087 0.0278,0.1164 0.103,0.0337 0.1451,0.1429 -0.1643,0.0752 -0.2875,-0.1512 -0.3729,-0.2539l0.0654 -0.0508zm-0.0948 -0.4545c0.0864,-0.1573 0.391,-0.2 0.6289,-0.1686 0.225,0.0298 0.435,0.1077 0.6061,0.2006 0.0732,0.0397 0.0756,0.0339 0.0853,0.1188 0.0186,0.1642 0.0259,0.4101 -0.2236,0.322 -0.0807,-0.0286 -0.19,-0.1415 -0.23,-0.1828 -0.1081,-0.1118 -0.1452,-0.0746 -0.2586,-0.134 0.2076,-0.1228 0.4577,0.1083 0.5737,0.0477 -0.0572,-0.0457 -0.4384,-0.1663 -0.541,-0.1942 -0.2739,-0.0745 -0.3735,-0.0715 -0.6408,-0.0095zm-0.4473 -1.1704c0.1178,0.0671 0.3173,0.1216 0.3841,0.2312 -0.1299,0.0868 -0.1786,0.1087 -0.2575,0.264 -0.0357,0.0699 -0.1332,0.287 -0.1769,0.3173 -0.0057,-0.1795 -0.001,-0.2835 -0.0323,-0.4617 -0.0269,-0.1531 -0.059,-0.2748 -0.0554,-0.4399 0.0542,0.0262 0.0775,0.0546 0.138,0.0891zm2.7491 -0.041c0.0312,-0.0808 0.0768,-0.1393 0.1051,-0.2228 0.1288,0.0039 0.1493,0.0437 0.1901,0.1313 0.0168,-0.0237 0.0168,0.0242 0.0128,-0.0447 -0.0007,-0.0133 -0.008,-0.0283 -0.0171,-0.0426 -0.0392,-0.0616 -0.1419,-0.1308 -0.2143,-0.1498 -0.1183,0.2265 -0.2322,0.342 -0.465,0.4524 -0.5908,0.2802 -1.6223,0.1201 -2.2197,-0.1132 -0.147,-0.0574 -0.2627,-0.131 -0.3898,-0.1831 -0.0817,0.838 -0.2063,1.8104 -0.0724,2.6592 0.022,0.1395 0.0452,0.2649 0.0808,0.3967 0.0258,0.0953 0.1087,0.2822 0.0923,0.3457 -0.1066,-0.0373 -0.0004,-0.1219 -0.1347,-0.1505 -0.0396,0.5452 0.1896,0.6335 0.1756,0.7629 -0.0892,0.0025 -0.0443,-0.0307 -0.134,-0.04 0.0107,0.1182 0.0545,0.2128 0.0543,0.3592 -0.0002,0.3059 -0.0534,0.4873 -0.1854,0.7484 -0.0832,0.1644 -0.3089,0.4992 -0.3173,0.5211 0.2259,0.1463 0.3088,0.0827 0.6572,0.4677l0.1562 0.1939c0.0013,-0.0029 0.0059,0.0052 0.0091,0.0075 0.0685,-0.0839 0.1301,-0.185 0.1972,-0.2811 0.0705,-0.1008 0.1259,-0.1774 0.2064,-0.2693 0.2946,-0.3368 0.4532,-0.3208 0.5267,-0.4202 -0.021,-0.0932 -0.0624,-0.0365 -0.0977,-0.1479 0.0995,0.0268 0.2798,0.0712 0.365,-0.0108 -0.0907,-0.0711 -0.1834,0.013 -0.2903,-0.0521 0.0864,-0.2098 1.0118,0.0662 1.1393,-0.1542 -0.0307,-0.124 -0.1447,-0.0958 -0.2659,-0.0698 -0.292,0.0626 -0.5202,0.0568 -0.7933,-0.0482 0.0068,-0.0749 0.0747,-0.0266 0.0084,-0.0681 -0.0525,-0.0329 -0.1385,-0.0519 -0.3114,-0.1667 -0.3834,-0.2546 -0.6972,-0.6999 -0.6895,-1.22 0.0575,0.0083 0.0633,0.0214 0.1279,0.0185 0.0247,0.1349 0.0765,0.3265 0.1949,0.3962 0.0527,0.0311 0.0844,0.022 0.137,0.0636l-0.0384 0.1218c0.1377,-0.0247 0.1062,0.0182 0.2209,0.0482l-0.0487 0.0541c-0.0277,0.0441 -0.0151,0.0031 -0.0198,0.0652 0.0607,0.0303 0.0819,0.0318 0.1424,0.0001 -0.0172,0.1154 0.0155,0.1538 0.0444,0.254 0.0216,0.0745 0.0311,0.0686 0.1973,0.1353 0.3155,0.1265 0.8228,0.1651 1.087,-0.0157 0.07,-0.0478 0.0952,-0.1282 0.1195,-0.2145 0.0258,-0.092 0.0781,-0.1877 0.0924,-0.2427 -0.1501,-0.0855 -0.3555,-0.0677 -0.541,-0.0677 0.0267,-0.161 0.2393,-0.1383 0.3473,-0.2339 -0.1703,-0.1139 -0.501,-0.0174 -0.7435,-0.0635l-0.1288 -0.0476c0.1146,-0.0663 0.6219,-0.1595 0.8106,-0.1602 0.0958,-0.0003 0.2043,0.0331 0.2782,0.0288 -0.0065,-0.0878 -0.0469,-0.1364 -0.1226,-0.1672 -0.1357,-0.0549 -0.1424,-0.0053 -0.2363,0.0282 -0.0363,-0.0991 -0.0208,-0.2181 -0.0798,-0.285 -0.0777,-0.0299 -0.2066,0.0082 -0.3037,-0.0267 -0.0871,-0.0314 -0.1121,-0.1019 -0.0984,-0.2051 0.0501,0.0151 0.0724,0.0982 0.1559,0.117 0.1114,0.0251 0.1186,-0.0521 0.1527,-0.1243 0.2594,0.0051 0.0387,0.2804 0.5536,0.0328 -0.0077,-0.0573 -0.0697,-0.1828 -0.0937,-0.2534 -0.1324,-0.3891 -0.2598,-1.0354 0.1135,-1.3303 0.1723,-0.1362 0.2961,-0.1105 0.536,-0.1303 0.0919,-0.1862 0.1207,-0.2439 0.1098,-0.5084 -0.0069,-0.1671 -0.0368,-0.3935 -0.1219,-0.4981 -0.0813,-0.0275 -0.1509,-0.0044 -0.2234,0.0199zm-2.4673 6.5465c0.6216,0.0266 1.1334,-0.0727 1.652,-0.2647 0.2208,-0.0817 0.4535,-0.1998 0.6389,-0.3112 0.093,-0.0557 0.5013,-0.3171 0.5442,-0.42 -0.0601,-0.0292 -0.1049,-0.0739 -0.1698,-0.1148 -0.4726,-0.2984 -1.0994,-0.3352 -1.6053,-0.1269 -0.4962,0.2042 -0.9093,0.7639 -1.06,1.2376zm2.0606 -7.6438c0.0343,0.0467 0.114,0.0919 0.1576,0.1247 0.0568,0.0427 0.0963,0.0793 0.1449,0.1248 0.745,0.697 0.5849,1.1751 0.7231,1.9275 0.1754,0.955 0.5572,1.5494 0.1822,2.6488 -0.0947,0.2776 -0.2183,0.4883 -0.3253,0.7385 -0.0358,0.0835 0.0022,0.109 0.0407,0.1895l0.2411 0.5303c0.1693,-0.1662 0.3559,-0.4386 0.4987,-0.6857 0.8304,-1.4358 0.6691,-3.2324 -0.3547,-4.5316 -0.184,-0.2335 -0.3619,-0.4048 -0.5886,-0.6006 -0.1105,-0.0954 -0.5534,-0.4216 -0.7197,-0.4662zm0.1189 4.8554c0.0218,-0.023 0.1028,-0.1602 0.1018,-0.2009 -0.0023,-0.0972 -0.1073,-0.1044 -0.19,-0.0894 -0.0061,0.1473 -0.0325,0.1179 -0.0698,0.2009 0.0507,0.0616 0.0653,0.0699 0.158,0.0894zm0.3931 -2.2682c-0.0283,-0.1242 -0.303,-0.0754 -0.3626,-0.0283 0.1259,0.036 0.2373,0.01 0.3626,0.0283z"/>
 </g>
</svg>
