<?xml version="1.0" encoding="UTF-8"?>
<!DOCTYPE svg PUBLIC "-//W3C//DTD SVG 1.1//EN" "http://www.w3.org/Graphics/SVG/1.1/DTD/svg11.dtd">
<!-- Creator: CorelDRAW -->
<svg xmlns="http://www.w3.org/2000/svg" xml:space="preserve" width="10.16mm" height="10.16mm" style="shape-rendering:geometricPrecision; text-rendering:geometricPrecision; image-rendering:optimizeQuality; fill-rule:evenodd; clip-rule:evenodd"
viewBox="0 0 10.16 10.16"
 xmlns:xlink="http://www.w3.org/1999/xlink"
 xmlns:xodm="http://www.corel.com/coreldraw/odm/2003"
 version="1.1">
 <defs>
  <style type="text/css">
   <![CDATA[
    .str0 {stroke:black;stroke-width:0.1693}
    .fil0 {fill:black}
    .fil1 {fill:white}
   ]]>
  </style>
 </defs>
 <g id="Capa_x0020_1">
  <metadata id="CorelCorpID_0Corel-Layer"/>
  <ellipse class="fil0 str0" cx="5.08" cy="5.07998" rx="4.23331" ry="4.23333"/>
  <ellipse class="fil0 str0" cx="5.08" cy="5.07998" rx="4.04684" ry="4.04686"/>
  <path class="fil1" d="M1.2529 6.3622c0.111,-0.3131 0.1845,-0.5248 0.3511,-0.7888 0.162,-0.2568 0.288,-0.4689 0.4598,-0.683 0.4376,-0.5453 0.6514,-0.7868 0.7781,-1.5066 0.1156,-0.6558 0.2778,-1.2379 0.616,-1.667 0.3449,-0.4377 1.0295,-0.6683 1.5848,-0.6859 -0.7218,-0.0202 -1.3734,0.201 -1.9,0.4819 -1.0311,0.5501 -1.7991,1.5874 -2.0334,2.7539 -0.1082,0.538 -0.1085,1.0986 0.0041,1.6349 0.0169,0.0806 0.0799,0.3941 0.1395,0.4606zm3.6567 0.9341c0.0651,0.0414 -0.0073,0.0405 0.1699,0.11 0.0608,0.0238 0.1336,0.0489 0.1361,0.1172 -0.1584,0.0195 -0.3238,-0.0801 -0.306,-0.2272zm2.3673 -2.7324c0.0504,-0.097 0.2318,-0.1906 0.1473,-0.3807 -0.1135,0.0173 -0.0706,0.1158 -0.1294,0.2184 -0.1216,0.0249 -0.2925,-0.0228 -0.3948,0.0198 0.0186,0.0335 0.0191,0.0361 0.0584,0.0524l0.0616 0.0214c0.0021,-0.0036 0.0084,0.003 0.0121,0.0056 -0.1477,0.2899 0.2284,0.9493 0.205,1.3778l0.1078 0.0157c0.0352,-0.0684 0.0823,-0.2416 0.115,-0.3263 0.0391,-0.1016 0.084,-0.2065 0.1221,-0.3223 0.0976,-0.2966 0.1079,-0.4222 0.0705,-0.7529 -0.1626,0.0377 -0.1627,0.091 -0.3756,0.0711zm-0.0728 -0.7324c0.0511,0.1041 0.3128,0.1621 0.4387,0.1137 0.0453,-0.261 -0.3217,-0.1833 -0.4387,-0.1137zm-2.0634 0.4122c0.2878,-0.1646 0.9018,-0.3315 0.9531,0.1641l-0.2202 -0.0037c-0.0081,-0.1003 0.0703,-0.0754 0.013,-0.1706 -0.0277,-0.0461 -0.071,-0.0785 -0.1402,-0.082 -0.0271,0.0923 -0.0422,0.2299 -0.1202,0.2627 -0.131,0.055 -0.1866,-0.0504 -0.3231,-0.0088 0.0278,0.1164 0.103,0.0338 0.1451,0.143 -0.1643,0.0752 -0.2875,-0.1512 -0.3728,-0.254l0.0653 -0.0507zm-0.0948 -0.4545c0.0864,-0.1573 0.391,-0.2 0.6288,-0.1686 0.2251,0.0298 0.4351,0.1077 0.6062,0.2006 0.0732,0.0397 0.0755,0.0339 0.0852,0.1188 0.0187,0.1642 0.026,0.4101 -0.2235,0.322 -0.0807,-0.0286 -0.1901,-0.1415 -0.23,-0.1828 -0.1081,-0.1118 -0.1452,-0.0746 -0.2586,-0.134 0.2076,-0.1228 0.4577,0.1083 0.5737,0.0477 -0.0572,-0.0457 -0.4384,-0.1663 -0.541,-0.1942 -0.2739,-0.0745 -0.3735,-0.0715 -0.6408,-0.0095zm-0.4473 -1.1704c0.1178,0.0671 0.3173,0.1216 0.3841,0.2312 -0.1299,0.0868 -0.1786,0.1087 -0.2575,0.2639 -0.0357,0.07 -0.1332,0.2871 -0.1769,0.3173 -0.0057,-0.1794 -0.001,-0.2834 -0.0323,-0.4616 -0.0269,-0.1531 -0.059,-0.2748 -0.0553,-0.4399 0.0541,0.0262 0.0774,0.0546 0.1379,0.0891zm2.7491 -0.041c0.0312,-0.0808 0.0768,-0.1394 0.1051,-0.2228 0.1288,0.0039 0.1493,0.0437 0.1901,0.1313 0.0168,-0.0237 0.0168,0.0242 0.0128,-0.0447 -0.0008,-0.0133 -0.0081,-0.0283 -0.0171,-0.0426 -0.0393,-0.0616 -0.1419,-0.1308 -0.2143,-0.1498 -0.1183,0.2265 -0.2322,0.342 -0.465,0.4524 -0.5908,0.2802 -1.6223,0.1201 -2.2197,-0.1132 -0.147,-0.0574 -0.2627,-0.1311 -0.3898,-0.1831 -0.0817,0.838 -0.2063,1.8104 -0.0724,2.6592 0.022,0.1395 0.0453,0.2649 0.0808,0.3967 0.0259,0.0953 0.1087,0.2822 0.0923,0.3456 -0.1065,-0.0372 -0.0004,-0.1218 -0.1347,-0.1504 -0.0396,0.5452 0.1896,0.6334 0.1756,0.7629 -0.0892,0.0025 -0.0443,-0.0307 -0.134,-0.04 0.0107,0.1182 0.0545,0.2128 0.0543,0.3591 -0.0002,0.306 -0.0534,0.4874 -0.1854,0.7484 -0.0832,0.1645 -0.3089,0.4993 -0.3172,0.5212 0.2259,0.1463 0.3087,0.0827 0.6571,0.4676l0.1562 0.1939c0.0013,-0.0028 0.0059,0.0052 0.0091,0.0075 0.0685,-0.0838 0.1301,-0.185 0.1972,-0.281 0.0705,-0.1009 0.1259,-0.1774 0.2064,-0.2693 0.2945,-0.3368 0.4532,-0.3208 0.5267,-0.4202 -0.021,-0.0932 -0.0624,-0.0366 -0.0977,-0.148 0.0995,0.0269 0.2798,0.0712 0.365,-0.0107 -0.0907,-0.0711 -0.1835,0.0129 -0.2903,-0.0521 0.0864,-0.2099 1.0118,0.0662 1.1392,-0.1542 -0.0307,-0.124 -0.1446,-0.0959 -0.2658,-0.0699 -0.292,0.0627 -0.5202,0.0568 -0.7934,-0.0481 0.0069,-0.075 0.0747,-0.0266 0.0085,-0.0682 -0.0526,-0.0329 -0.1385,-0.0519 -0.3114,-0.1666 -0.3834,-0.2546 -0.6972,-0.6999 -0.6895,-1.2201 0.0575,0.0084 0.0633,0.0214 0.1279,0.0186 0.0247,0.1349 0.0765,0.3265 0.1949,0.3961 0.0527,0.0311 0.0844,0.0221 0.137,0.0637l-0.0384 0.1218c0.1377,-0.0247 0.1062,0.0182 0.2209,0.0482l-0.0487 0.0541c-0.0277,0.044 -0.0151,0.0031 -0.0198,0.0651 0.0607,0.0304 0.0819,0.0319 0.1424,0.0002 -0.0172,0.1154 0.0155,0.1538 0.0444,0.2539 0.0216,0.0746 0.0311,0.0686 0.1972,0.1353 0.3156,0.1266 0.8229,0.1652 1.0871,-0.0156 0.07,-0.0478 0.0952,-0.1282 0.1194,-0.2146 0.0259,-0.0919 0.0782,-0.1876 0.0925,-0.2426 -0.1501,-0.0855 -0.3555,-0.0678 -0.541,-0.0678 0.0267,-0.1609 0.2393,-0.1382 0.3472,-0.2338 -0.1702,-0.1139 -0.5009,-0.0175 -0.7434,-0.0635l-0.1288 -0.0476c0.1146,-0.0663 0.6219,-0.1595 0.8105,-0.1602 0.0959,-0.0003 0.2044,0.033 0.2782,0.0287 -0.0064,-0.0878 -0.0468,-0.1363 -0.1225,-0.1671 -0.1357,-0.0549 -0.1424,-0.0053 -0.2363,0.0282 -0.0363,-0.0991 -0.0208,-0.2181 -0.0799,-0.285 -0.0776,-0.0299 -0.2065,0.0082 -0.3036,-0.0268 -0.0871,-0.0313 -0.1122,-0.1019 -0.0985,-0.205 0.0502,0.0151 0.0725,0.0982 0.156,0.117 0.1114,0.0251 0.1186,-0.0521 0.1527,-0.1243 0.2594,0.0051 0.0387,0.2804 0.5536,0.0328 -0.0077,-0.0574 -0.0698,-0.1829 -0.0937,-0.2534 -0.1324,-0.3891 -0.2598,-1.0354 0.1135,-1.3304 0.1723,-0.1361 0.2961,-0.1104 0.536,-0.1303 0.0919,-0.1861 0.1207,-0.2438 0.1098,-0.5083 -0.0069,-0.1671 -0.0368,-0.3935 -0.1219,-0.4981 -0.0813,-0.0275 -0.1509,-0.0044 -0.2234,0.0199zm-2.4673 6.5465c0.6216,0.0265 1.1333,-0.0728 1.652,-0.2648 0.2207,-0.0816 0.4535,-0.1997 0.6389,-0.3111 0.0929,-0.0558 0.5012,-0.3172 0.5442,-0.42 -0.0601,-0.0293 -0.105,-0.0739 -0.1699,-0.1149 -0.4725,-0.2984 -1.0993,-0.3351 -1.6052,-0.1268 -0.4962,0.2042 -0.9093,0.7638 -1.06,1.2376zm2.0606 -7.6438c0.0342,0.0467 0.114,0.0919 0.1576,0.1247 0.0567,0.0427 0.0963,0.0794 0.1448,0.1248 0.7451,0.697 0.585,1.1751 0.7232,1.9275 0.1754,0.955 0.5572,1.5493 0.1821,2.6488 -0.0946,0.2775 -0.2183,0.4883 -0.3253,0.7385 -0.0357,0.0835 0.0023,0.109 0.0408,0.1895l0.241 0.5302c0.1694,-0.1662 0.3559,-0.4386 0.4988,-0.6856 0.8303,-1.4359 0.669,-3.2324 -0.3547,-4.5316 -0.184,-0.2335 -0.3619,-0.4048 -0.5887,-0.6006 -0.1104,-0.0954 -0.5534,-0.4216 -0.7196,-0.4662zm0.1189 4.8554c0.0218,-0.023 0.1027,-0.1602 0.1018,-0.2009 -0.0023,-0.0972 -0.1073,-0.1044 -0.19,-0.0894 -0.0062,0.1472 -0.0325,0.1179 -0.0698,0.2009 0.0507,0.0616 0.0653,0.0698 0.158,0.0894zm0.3931 -2.2682c-0.0283,-0.1243 -0.303,-0.0754 -0.3626,-0.0283 0.1258,0.036 0.2372,0.01 0.3626,0.0283z"/>
 </g>
</svg>
