<!-- Generated by IcoMoon.io -->
<svg version="1.1" xmlns="http://www.w3.org/2000/svg" width="104" height="32" viewBox="0 0 104 32">
<title>dragonBall</title>
<path fill="#dcd9d5" d="M6.019 28.043c1.528 0.492 2.029 1.113 4.546 1.231 0.511 0.024 1.419-0.243 1.814 0.028-0.409 0.51-2.979 0.308-3.662 0.139-0.744-0.185-2.557-0.819-2.698-1.398zM13.753 29.133c0.134-0.389 0.089-0.283 0.499-0.423 0.371-0.126 1.092-0.636 1.665-0.82-0.077 0.652-1.394 1.19-2.165 1.243zM5.091 22.277c-0.084 0.166-0.151 0.223-0.404 0.275-0.502 0.103-1.289-0.016-1.618-0.326 0.082-0.064-0.101-0.017 0.166-0.092l0.645-0.038c0.307-0.002 0.614 0.004 0.922 0.001 0.686-0.19 1.086-0.802 1.49-1.193 0.077 0.56-0.72 1.336-1.201 1.372zM2.612 21.166c-0.768-0.139-1.439-1-1.425-2.003 0.014-0.996 0.556-1.787 1.332-1.986 1.714-0.459 3.251 0.226 3.268 1.99 0.014 1.494-1.799 2.724-3.175 1.999zM7.398 22.103c-0.047-0.807 1.562-1.998 2.020-2.509 0.259-0.289 1.961-2.394 2.412-1.918 0.484 0.512-1.689 2.195-1.924 2.406-0.536 0.483-1.597 2.069-2.508 2.020zM6.669 18.472c-0.166-0.18-0.319-0.753-0.474-1.008-0.895-1.468-2.38-1.246-2.844-1.483 1.036-0.112 1.911-0.072 2.501 0.534 0.354 0.363 1.229 1.218 0.817 1.957zM13.394 19.044l0.016-0.289c-1.018-0.896-0.694-0.831-0.546-1.301-0.79-0.033-1.273 0.091-1.833-0.385l-1.292-1.487c-0.16-0.114-0.098-0.010-0.201-0.236-0.057-0.124-0.046-0.135-0.066-0.267-0.22-0.21-0.101-0.218-0.235-0.451-0.129-0.224-0.115-0.11-0.317-0.294-0.236-0.214-0.28-0.442-0.544-0.681-0.228-0.206-1.361-0.902-0.873-1.353 0.449-0.369 1.276 0.784 1.481 1.063l0.059-0.473c0.060-0.421-0.125-1.088 0.151-1.393 0.351 0.053 0.141-0.025 0.26 0.17l4.13 3.234c0.534 0.231 0.753-0.358 1.055-0.639 0.338-0.316 0.494-0.639 0.919-0.795l-0.058-0.279-0.057-0.42 0.294 0.069 0.179 0.131c0.236-0.123 0.686-0.531 0.78-0.774-0.182-0.097-0.118-0.046-0.282-0.241-0.19-0.283-3.71-1.849-4.318-1.941-1.987-0.298-3.671 0.238-5.425 0.708-1.983 0.531-4.518 2.274-5.386 4.076-0.161 0.335-0.369 0.746-0.418 1.168-0.166 1.436 0.179 0.823 0.397 0.954-0.151 0.612-0.464 0.79-0.571 1.708-0.044 0.383 0.146 2.091 0.132 2.116-0.156 0.291-0.381-0.366-0.316 0.73 0.047 0.787 0.386 2.191 0.746 2.904 2.334 4.612 7.851 6.811 12.763 5.185 1.897-0.628 4.631-2.756 4.894-4.604l-8.448-4.247 2.933-1.667z"></path>
<path fill="#352f35" d="M74.081 22.875c-0.416-0.343-0.472-1.512 0.067-1.482 0.414 0.023 0.607 1.272-0.067 1.482zM92.591 22.029l0.078 1.135 0.44 0.422c-0.62 1.405-3.343 0.096-2.286-3.112 0.129-0.51 0.298-0.759 0.714-0.894 0.063-0.182 0.070-0.188 0.367-0.234 0.172-0.027 0.284-0.020 0.44 0.006l0.007 0.251c0.522 0.28 0.053 1.773 0.668 1.225 0.004-0.213 0.099-0.454 0.264-0.571 0.177 0.122 0.329 0.23 0.273 0.537 0.284 0.195 0.221 0.299 0.185 0.675-0.342-0.060-0.141-0.186-0.682-0.103 0.18 0.379 0.158 0.054 0.408 0.337 0.117 0.133 0.143 0.34 0.155 0.525 0.026 0.416-0.093 0.806-0.474 0.861-0.34-0.199-0.306-0.598-0.347-1.090l-0.208 0.030zM71.766 23.112c-0.024-0.8-1.38-1.924 1.226-2.127l0.882-0.188c0.345-0.016 0.599-0.039 0.845 0.136l0.001 0.347c-0.254-0.052-0.383-0.176-0.572-0.264-0.407 0.139-0.662 0.605-0.627 1.212 0.057 0.981 0.5 0.572 0.575 1.224l-0.277 0.217c-0.84 0.621-1.545 0.372-2.054-0.555zM71.526 20.9c-0.038-0.892 0.548-1.909 1.302-2.035 0.866-0.145 1.689 0.828 1.657 1.653-0.594 0.056-0.99-0.036-1.581 0.123-0.426 0.115-0.931 0.254-1.379 0.259zM93.921 20.085c-0.186-0.094-0.439-0.343-0.516-0.558-0.050-0.14-0.041-0.342-0.043-0.501l0.056-0.426c0.189 0.077 0.126-0.016 0.242 0.255 0.142 0.334 0.246 0.859 0.261 1.23zM66.467 29.196c-0.788-0.347-1.076-1.938-1.795-1.681-0.769 0.275-1.049 1.526-1.904 1.643-0.189-0.649-0.34-7.069-0.15-7.48 0.293 0.016 0.218-0.032 0.379 0.142l0.689 0.076c0.196-1.723-0.97-1.711-0.002-3.733 0.542-1.132 1.198-1.859 2.072-2.488 2.662-1.918 4.477 2.636 5.125 3.064 0.895-0.785 0.805-3.232 1.249-3.662 1.133-0.51 3.587 2.704 2.882 5.080-0.539-0.658-1.36-2.55-2.859-1.425-2.42 1.815-0.644 6.864 1.743 5.281 0.486-0.322 0.821-0.789 1.028-1.488 0.318-1.076-0.021-1.512 0.063-2.173 1.143 0.483 0.744 2.539 0.73 3.981-0.007 0.753 0.033 4.174-0.138 4.63-0.909 0.067-1.333-2.091-2.339-1.464-0.588 0.367-1.191 2.196-2.158 1.674-0.683-0.369-1.357-1.968-2.323-1.662-0.874 0.277-1.371 1.895-2.292 1.683zM69.421 7.247c0.335 0.586 1.323 1.8 1.508 2.608 0.398 0.215 0.303-0.205 0.275-0.684-0.022-0.381-0.047-0.773-0.055-1.16 0.285 0.073 0.626 0.582 0.74 0.854 0.109 0.121 0.449 0.609 0.51 0.77 0.263 0.345 0.984 1.843 1.029 2.225 0.185 0.175 0.219 0.415 0.275 0.673 0.048 0.222 0.071 0.49 0.176 0.613 0.774-0.756-0.088-2.766 0.204-3.299 0.449 0.294 1.010 1.56 1.103 2.313l0.29 1.197 0.148 0.44c0.117 0.902 0.115 2.999 0.297 3.227 0.222-0.081 0.136-0.048 0.249-0.332 0.064-0.16 0.114-0.272 0.156-0.454 0.071-0.312 0.080-0.661 0.284-0.883l0.133 0.854c0.005 0.515 0.013 1.063-0.090 1.579-0.081 0.405-0.297 0.8-0.396 1.222-0.079 0.335-0.15 0.416-0.282 0.682-0.158 0.316-0.070 0.525-0.189 0.756-0.615-0.208 0.331-1.336-0.4-2.789-0.862-1.339-1.227-2.254-2.521-2.994-1.859-1.063-1.317 2.101-1.974 3.052-0.981-0.454-2.543-4.331-5.233-2.482-0.752 0.517-1.771 1.453-2.204 2.229-0.852 1.525-0.579 1.893-0.282 3.521 0.125 0.185 0.106 0.127 0.070 0.405-0.938-0.039-2.465-1.28-2.426-2.136 0.526 0.104 0.599 0.266 1.252 0.268-0.249-0.389-0.652-0.552-0.983-0.981-0.689-0.893-1.525-3.020-1.539-4.156 0.215 0.051 0.821 0.716 1.030 0.922 0.299 0.294 0.523 0.638 1.099 0.706 0.035-0.641-0.606-2.128-0.706-3-0.069-0.596-0.055-1.278-0.048-1.881 0.006-0.502-0.137-1.391 0.292-1.543 0.151 0.115 0.892 2.018 1.679 2.126 0.159-0.831-0.23-2.476 0.082-3.172l0.374-1.962c0.219-0.914 1.755-3.541 2.294-3.834 0.049 0.398 0.043 0.692 0.044 1.106 0.003 0.823 0.578 2.29 0.62 2.744l-0.009 0.046c0.376 0.284 1.479 2.377 2.229 2.514 0.041-0.974-0.361-2.245-0.287-2.97 0.454 0.143 0.96 0.679 1.182 1.057zM96.006 7.522c-0.044 0.191-3.435 2.762-3.416 4.173l0.012 0.936c0.098 0.033 1.624-1.492 1.98-1.762 0.731-0.555 1.405-1.050 2.552-1.326 1.449-0.349 5.164 1.373 5.352 2.147l-0.893 0.164c-1.441 0.248-4.366 2.794-4.649 3.898l0.34-0.022c0.471-0.12 1.004-0.252 1.455-0.313 0.728-0.099 1.016 0.088 1.593 0.126 0.397 0.050 0.832 0.224 1.181 0.36 0.367 0.143 0.76 0.255 0.813 0.609-0.354 0.194-1.298 0.341-1.805 0.496-1.328 0.406-3.752 1.727-3.957 2.986l0.537-0.017 0.113-0.008c0.641-0.051 0.998-0.065 1.635 0.027 0.275 0.047 0.303 0.023 0.425 0.256-0.122 0.069-3.808 0.629-3.856 0.598-0.248-0.209-0.187-1.223-0.302-1.626-0.489 0.256-0.169 0.732-0.678 0.849-0.048-0.088-0.793-3.19-1.739-3.26-0.015 0.787 0.426 1.099 0.184 2.238-0.447-0.041-0.414-0.3-0.665-0.596-0.242-0.285-0.427-0.313-0.566-0.667l-1.359-0.719c-1.131-0.293-1.357-1.285-2.525-0.488-0.615 0.419-1.579 1.282-1.835 1.949l-0.011 0.502c0.397-0.080 0.157-0.122 0.441-0.324 0.124-0.502 1.728-2.192 2.694-1.726 0.834 0.403 2.737 1.064 2.922 1.91-0.397 0.359-0.686 0.107-1.063 0.7-0.258 0.405-0.508 0.654-0.646 1.191-0.626 2.453 1.317 4.731 2.838 3.381 1.283-1.139 0.67-1.889 1.127-2.561 0.066-0.207 0.267-0.581 0.474-0.658 0.185 0.324 0.113 7.29-0.034 7.958-0.303 0.46-1.163-0.923-1.399-1.163-0.742-0.758-1.248 0.155-1.608 0.633-1.618 2.147-1.804-0.419-3.178-0.769-1.534-0.391-1.814 2.891-3.267 0.971-0.371-0.49-0.662-1.504-1.498-0.929-0.597 0.411-0.899 1.382-1.594 1.392l-0.116-8.421 0.194-0.011 1.132 1.495 0.123-0.093c0.080-0.845-0.312-1.607 0.085-2.427 0.245-0.507 0.691-1.472 1.081-1.661l0.454 0.972c0.287 0.237 0.108 0.345 0.452 0.502l-0.050-0.382-0.651-1.911c-1.125 0.652-1.918 3.324-2.201 3.444l-0.712-1.674-0.406 1.817c-0.603 0.214-1.978 0.592-2.353-0.132l1.589-1.253-0.087-0.111c-1.179-0.062-2.63-0.126-3.027-1.115 0.399-1.349 3.619-0.977 4.055-1.293-0.324-0.407-1.495-0.364-1.64-1.157 1.926-0.67 1.337 1.010 2.612-1.353 0.491-0.91 0.991-1.437 2.292-1.593l0.444-0.021c0.43-0.332 1.512-0.166 2.091-0.244 0.448-0.223 2.58-5.496 6.981-5.58l-0.001 0.037c0.017-0.012 0.040-0.025 0.055-0.032l0.335-0.107c0.654-0.116 2.031-0.342 2.566-0.22-0.063 0.198-0.106 0.185-0.297 0.303-0.368 0.227-0.818 0.594-1.127 0.705zM103.7 16.941v-0.133c-0.792-0.64-1.144-0.944-2.349-1.421-0.47-0.186-2.998-0.583-3.058-0.636-0.047-0.531 1.753-1.601 2.148-1.838 0.921-0.554 2.787-0.643 3.183-0.894-0.007-0.817-3.453-2.632-4.556-2.856-3.114-0.632-4.576 1.493-5.461 1.709 0.487-1.847 4.986-4.377 5.138-4.785-1.323-0.413-5.245 0.213-6.467 0.711-1.426 0.581-3.281 2.42-3.938 3.412-0.753 1.136-0.447 1.619-2.004 1.68-1.882 0.074-1.499 0.263-2.826 0.84-0.986 0.429-1.043 1.171-1.588 2.089-0.679 1.144-2.451-0.278-2.962 0.089l1.139 1.582-3.002 1.104-0.518-4.869-0.227 0.020-0.137 1.404c-0.428-0.34-1.101-5.322-2.899-5.717l0.425 2.187-0.136 0.026c-0.351-0.169-1.889-3.645-3.406-4.018l0.491 1.404c-0.451 0.157-1.849-2.962-3.393-3.010l0.91 3.047-0.18 0.054c-0.565-0.133-1.508-1.962-1.706-2.772-0.435-1.787-0.076-2.344-0.113-4.015h-0.117c-0.753 1.135-1.638 1.804-2.692 3.885-1.554 3.067-0.699 3.921-0.885 5.521-0.901-0.219-1.017-2.514-1.368-2.654-0.531 0.192-0.718 2.603-0.697 3.32 0.030 1.030 0.535 3.078 0.485 3.587-1.038-0.154-1.502-2.284-2.074-2.879-0.21 1.297 0.742 4.197 1.273 5.484 0.354 0.859-0.134 0.091-0.041 0.973 0.083 0.783 0.521 1.474 0.884 1.916 1.628 1.982 1.136 0.848 1.138 4.185 0.001 1.27-0.203 4.242 0.53 4.944 0.943 0.116 1.525-1.444 2.179-1.648 0.684 0.338 0.766 1.876 2.012 1.712 1.021-0.135 1.502-1.522 2.21-1.698 0.801 0.253 1.395 1.687 2.332 1.769 1.228 0.108 1.424-1.599 2.298-1.778 0.489 0.184 1.383 2.013 2.095 1.532 0.72-0.303 0.481-4.577 0.481-5.65 0-2.384-0.22-3.486 0.692-5.509l2.648 1.365-1.030 0.72c0.249 1.033 1.96 0.814 2.903 0.958 0.208 0.685 0.132 5.11 0.13 6.209-0.010 4.32 1.817 0.517 2.712 0.488 0.454 0.442 0.783 1.97 2.057 1.582 0.768-0.234 1.395-1.787 2.159-1.472 0.456 0.188 1.185 1.672 2.155 1.562 1.019-0.116 1.414-1.498 2.065-1.727 0.793 0.344 2.387 3.696 2.546-0.417 0.054-1.402-0.158-5.082 0.086-6.17l5.062-0.922c-0.172-1.023-2.085-0.962-2.721-1.215 0.171-0.749 1.563-1.375 2.465-1.694 1.21-0.428 2.719-0.39 3.524-0.675z"></path>
<path fill="#316b41" d="M25.787 25.696c-0.001-0.494-0.001-1.028 0.355-1.206 0.161 0.405 0.166 1.117 0.161 1.614-0.003 0.333 0.026 1.222-0.224 1.483-0.204-0.091-0.171-0.026-0.215-0.324l-0.077-1.568zM37.721 28.233c-0.477-0.192-0.145-0.353-0.147-0.9l0.039-2.544c0.022-0.871-0.106-0.934 0.244-1.019 0.189 0.419 0.030 1.772 0.013 2.334-0.016 0.536 0.261 1.819-0.149 2.129zM30.235 19.418c2.262-0.948 3.236 4.791 0.779 5.291-2.266 0.461-3.657-4.084-0.779-5.291zM35.524 19.397c2.336-0.309 2.832 4.881 0.318 5.308-2.327 0.395-2.996-4.954-0.318-5.308zM26.555 18.86c-0.057-0.122-0.12-0.394 0.014-0.904 0.056-0.214 0.845-1.588 1.396-1.495l-0.718 1.148c-0.478 0.788-0.322 1.133-0.692 1.25zM37.931 20.045l-0.011 0.748c-0.271-0.196-0.258-0.483-0.347-0.864-0.126-0.538-0.913-2.477-0.927-2.676l0.332 0.167-0.552-0.938c-0.166 0.091-0.305 0.507-0.394 0.687l-0.080-0.040c-0.832-1.389 2.565-3.221 4.539-3.069l0.702 0.618 0.093-0.105c-0.027-1.389-3.014-0.442-3.7-0.034-0.859 0.512-2.264 1.726-3.278 1.456l0.759-0.512c-0.777-0.455-3.911-1.378-4.75-0.534l0.203 0.981c-1.099-0.647-0.538-1.782 0.091-2.713 0.695-1.029 1.597-1.493 1.964-2.021-2.098 0.445-2.902 4.383-4.114 5.575l-0.155-0.063 0.644-1.431c-1.028 0.178-2.098 1.547-2.529 2.392-1.301 2.546 0.237 1.356 0.534 3.055l-2.498-2.095c0.162 1.192 2.342 2.017 1.921 4.241-0.789-0.474 0.157-0.865-0.528-1.708-0.431-0.531-0.506-0.954-1.11-1.287-0.040 0.28 0.113 0.369 0.081 0.642-0.055 0.472-0.059-0.051-0.323 0.077 0.144 0.765 0.193 1.957 0.698 2.377 0.438 0.364 1.633 0.74 1.719 1.367-0.278-0.101-1.147-0.487-1.384-0.453l0.107 5.026c0.906-0.075 1.608-2.58 2.657-0.939 0.915 1.432 1.282 1.419 2.345 0.106 0.988-1.222 2.169 0.334 2.727 0.814 0.954 0.82 2.084-0.83 2.35-1.425 1.405 0.026 1.424 1.579 2.35 1.581l-0.137-9.002z"></path>
<path fill="#ca8358" d="M75.17 23.593l0.332-0.005c0.15 0.374 0.077 3.225 0.074 4.016-0.001 0.531-0.011 0.809-0.543 0.855-0.351-0.355-0.317-0.513-0.141-0.927 0.16-0.377 0.085-0.925 0.082-1.36-0.004-0.524-0.030-2.248 0.195-2.579zM63.058 26.856c0.133 0.356 0.12 0.804 0.017 1.169-0.047-0.030-0.216 0.071-0.218-0.56-0.001-0.341 0.031-0.462 0.2-0.61zM67.153 18.472c2.307-0.843 3.497 5.171 0.608 5.807-2.399 0.528-3.551-4.732-0.608-5.807zM62.997 21.821l-0.356-0.019 0.138 1.817c0.171-0.257-0.008-0.356 0.272-0.465 0.319 0.586 0.157 2.549 0.010 3.234-0.253-0.177-0.152-0.425-0.233-0.825-0.229 0.362-0.116 2.871-0.024 3.445 0.733-0.072 1.119-1.497 1.89-1.626 0.581-0.097 0.761 0.411 0.99 0.785 0.442 0.72 0.699 0.811 0.783 1.029 0.921 0.212 1.418-1.406 2.292-1.683 0.966-0.306 1.639 1.293 2.323 1.662 0.967 0.522 1.569-1.307 2.158-1.674 1.006-0.628 1.43 1.531 2.339 1.464 0.171-0.456 0.131-3.877 0.138-4.63 0.014-1.443 0.413-3.498-0.73-3.981-0.084 0.661 0.256 1.096-0.063 2.173-0.207 0.698-0.542 1.165-1.028 1.488-2.387 1.583-4.163-3.467-1.743-5.281 1.5-1.125 2.32 0.768 2.859 1.425 0.705-2.376-1.749-5.59-2.882-5.080-0.444 0.429-0.354 2.877-1.249 3.662-0.647-0.427-2.462-4.982-5.125-3.064-0.874 0.63-1.53 1.356-2.072 2.488-0.968 2.023 0.198 2.010 0.002 3.733l-0.689-0.076z"></path>
<path fill="#0d65a8" d="M63.347 6.584l-0.374 1.962 0.065 3.333c-0.868-0.060-1.323-1.23-1.596-1.654-0.17-0.263 0.022-0.225-0.247-0.14-0.251 0.115-0.144 1.085-0.144 1.595 0 0.681 0.014 1.032 0.112 1.666 0.127 0.82 0.718 2.192 0.628 2.853-0.925-0.044-1.367-1.17-1.979-1.339-0.022 1.037 0.84 3.084 1.525 3.837 0.271 0.298 0.876 0.538 0.959 0.865-0.569 0.18-0.799-0.018-1.31-0.098 0.136 0.699 1.33 1.801 2.205 1.814l-0.021-0.291c-0.297-1.629-0.57-1.996 0.282-3.521 0.433-0.776 1.452-1.713 2.204-2.229 2.69-1.849 4.251 2.028 5.233 2.482 0.656-0.952 0.115-4.115 1.974-3.052 1.294 0.74 1.659 1.655 2.521 2.994 0.407 0.079 0.303 0.54 0.468 0.829 0.14-0.072 0.172-0.143 0.246-0.24l-0.002-0.76-0.438-0.138-0.030-1.249c-0.183-0.104-0.305 0.191-0.376-0.414-0.039-0.333-0.025-0.678-0.018-1.011 0.038-0.274-0.129-1.249-0.179-1.607-0.064-0.458-0.248-0.898-0.352-1.341l-0.252-0.204-0.39 1.965c-1.021-0.020-0.993-1.236-1.097-1.441-0.095-0.185-0.226-0.291-0.343-0.474-0.174-0.271-0.585-2.046-1.158-2.199l-0.089 0.823c-0.654 0.2-0.745-0.084-1.062-0.468-0.837-1.015-0.799-1.651-1.151-2.115-0.233-0.307-0.475-0.675-0.716-0.916 0.087 0.869 0.287 1.807 0.198 2.757l-0.217 0.041c-0.016 0.16-0.015 0.158-0.082 0.251-0.358-0.223-0.648-0.585-0.97-0.889-0.258-0.243-0.768-0.693-0.917-1.034-0.298-0.163-0.482-0.675-0.669-1.058-0.192-0.393-0.246-0.906-0.399-1.251-0.415-0.202-0.173-1.546-0.087-1.862l0.216 0.065c0.13-0.224 0.057-0.306 0.008-0.563-0.38 0.090-0.495 0.445-0.702 0.773-0.186 0.295-0.349 0.538-0.526 0.833-0.343 0.571-0.672 1.567-0.947 1.822z"></path>
<path fill="#ca8358" d="M82.434 25.499c-0.116-0.641-0.24-2.949 0.022-3.482 0.074 0.072 0.026-0.1 0.107 0.163l0.025 1.61c0.001 0.318-0.003 0.635-0.002 0.953 0.001 0.437 0.061 0.585-0.152 0.755zM86.366 18.708l0.008 0.215c0.717 0.044 1.307 0.033 1.551 0.597 1.139 1.301 0.989 3.719-0.263 4.71-1.675 1.326-3.058-1.119-2.955-2.932 0.068-0.453 0.22-0.881 0.431-1.223 0.315-0.51 0.074-0.666-0.050-1.183l-0.454-0.972c-0.39 0.189-0.836 1.154-1.081 1.661-0.397 0.82-0.004 1.581-0.085 2.427l-0.123 0.093-1.132-1.495-0.194 0.011 0.116 8.421c0.694-0.010 0.996-0.981 1.594-1.392 0.836-0.576 1.127 0.439 1.498 0.929 1.453 1.92 1.733-1.362 3.267-0.971 1.374 0.351 1.56 2.916 3.178 0.769 0.36-0.477 0.865-1.39 1.608-0.633 0.235 0.24 1.095 1.623 1.399 1.163-0.448-0.020-0.829-0.604-1.014-0.962 0.674-1.274-0.11-3.582 0.453-3.762l-0.019-0.164c0.023-0.665-0.087-0.42 0.412-0.565 0.053-0.36 0.123-1.519-0.070-1.756-0.196 0.262-0.099 1.157-0.355 1.51-0.060-0.287 0.102-0.441 0.137-0.717 0.030-0.235 0.017-0.636 0.016-0.884-0.457 0.671 0.156 1.422-1.127 2.561-1.521 1.35-3.465-0.928-2.838-3.381 0.137-0.538 0.388-0.786 0.646-1.191 0.377-0.593 0.666-0.341 1.063-0.7-0.185-0.845-2.088-1.507-2.922-1.91-0.966-0.467-2.57 1.224-2.694 1.726z"></path>
<path fill="#cf3539" d="M94.131 12.020l-4.609 4.328 0.088 0.116 0.685 0.605 1.359 0.719c0.533 0.133 0.635 0.634 1.086 0.747 0.101-0.873-0.496-1.468-0.329-2.275 0.269 0.089 0.661 0.431 0.79 0.602 1.358 1.791 0.804 1.947 1.363 2.841 0.314-0.338 0.065-0.699 0.624-0.743 0.361 0.45 0.088 1.119 0.235 1.668 0.438 0.142 2.337-0.272 2.767-0.429l-1.018-0.042 0.042-0.188-0.113 0.008c-0.162 0.187-0.469 0.294-0.748 0.207-0.217-0.439 0.63-1.244 0.814-1.424 0.888-0.87 1.73-1.381 2.962-1.802 0.322-0.11 1.662-0.421 1.791-0.516-0.049-0.246-0.064-0.204-0.29-0.314-0.167-0.081-0.28-0.128-0.446-0.199-0.254 0.255-0.552 0.13-1.019 0.033-1.963-0.41-2.336 0.153-2.977 0.040 0.001-0.166 0.018-0.142 0.097-0.271l-0.34 0.022c0.283-1.104 3.209-3.65 4.649-3.898l0.626-0.354-0.893-0.57c-0.163 0.32-0.556-0.069-0.839-0.192-0.316-0.137-0.631-0.203-0.927-0.367-0.52-0.289-1.537-0.333-2.266-0.262-0.983 0.096-2.858 1.39-3.164 1.91z"></path>
<path fill="#352f35" d="M38.675 23.245l-0.057-2.244c0.34 0.217 0.146 0.464 0.547 0.608-0.003-0.604-0.62-1.188 0.68-2.213 0.434 0.387 0.157 0.653-0.434 1.866-0.366 0.751-0.149 0.355-0.203 1.096-0.023 0.319-0.329 0.784-0.532 0.888zM36.977 17.42c0.303 0.438 0.848 1.944 0.953 2.625l0.137 9.002c-0.926-0.003-0.945-1.556-2.35-1.581-0.266 0.595-1.396 2.244-2.35 1.425-0.558-0.48-1.739-2.036-2.727-0.814-1.062 1.313-1.429 1.326-2.345-0.106-1.048-1.641-1.751 0.865-2.657 0.939l-0.107-5.026c0.237-0.034 1.106 0.352 1.384 0.453-0.086-0.627-1.281-1.004-1.719-1.367-0.506-0.42-0.555-1.612-0.698-2.377 0.264-0.127 0.267 0.395 0.323-0.077 0.032-0.273-0.122-0.362-0.081-0.642 0.604 0.333 0.679 0.756 1.11 1.287 0.685 0.843-0.261 1.234 0.528 1.708 0.421-2.224-1.759-3.049-1.921-4.241l2.498 2.095c-0.297-1.699-1.835-0.509-0.534-3.055 0.431-0.844 1.501-2.214 2.529-2.392l-0.644 1.431 0.155 0.063c1.212-1.192 2.015-5.13 4.114-5.575-0.367 0.527-1.27 0.992-1.964 2.021-0.629 0.931-1.19 2.065-0.091 2.713l-0.203-0.981c0.839-0.844 3.972 0.079 4.75 0.534l-0.759 0.512c1.014 0.271 2.419-0.944 3.278-1.456 0.686-0.408 3.672-1.355 3.7 0.034l-0.093 0.105-0.702-0.618c-1.973-0.152-5.371 1.679-4.539 3.069l0.080 0.040c0.089-0.18 0.228-0.596 0.394-0.687l0.552 0.938zM33.465 10.821c0.327-0.354 1.012-0.278 0.983 0.109-0.042 0.554-0.889-0.043-0.983-0.109zM22.334 16.496c0.117 1.793 1.737 3.277 2.031 5.399 0.179 1.288 0.549 1.337 0.646 1.888 0.227 1.294-0.134 3.354 0.004 4.828 0.223 2.379 2.077-0.454 2.628-0.617 0.551 0.461 0.907 1.927 2.060 1.603 0.894-0.251 1.365-1.849 2.204-1.37 0.568 0.324 1.244 1.638 2.115 1.577 0.902-0.063 1.419-1.246 1.989-1.709 0.417 0.17 2.429 3.046 2.592 0.529 0.067-1.032-0.206-4.201 0.23-4.809 0.491-0.683 0.764-0.6 0.756-1.737-0.004-0.569 0.49-1.334 0.744-1.799 0.393-0.722 1.907-2.916 1.043-3.795l-2.888 2.837c-0.041-0.038-0.843-1.935-1.122-2.322-0.808-1.12-0.554-1.248 0.394-1.943 0.385-0.282 1.987-1.027 2.506-0.686 0.225 0.147 0.464 0.771 1.065 0.519 0.525-0.22 0.33-0.846-0.026-1.077-1.607-1.038-4.008 0.464-5.116 1.105-0.833 0.482-1.182-0.148-2.323-0.478-1.27-0.367-1.948-0.161-3.245-0.249 0.057-0.957 2.058-3.13 2.905-2.897 0.37 0.102 1.092 0.533 1.233-0.256 0.266-1.492-2.905-0.584-4.53 1.732-0.739 1.054-0.48 1.52-1.743 2.136-3.232 1.576-2.512 4.608-3.754 3.151-0.367-0.431-1.515-1.47-2.401-1.559z"></path>
<path fill="#352f35" d="M16.204 17.626c-0.249 0.354-0.921 0.584-1.353 0.795-0.235 0.115-1.27 0.58-1.457 0.622l-2.933 1.667 8.448 4.247c-0.263 1.847-2.997 3.976-4.894 4.604-4.912 1.626-10.429-0.574-12.763-5.185-0.361-0.713-0.7-2.117-0.746-2.904-0.065-1.095 0.159-0.438 0.316-0.73 0.013-0.025-0.177-1.733-0.132-2.116 0.107-0.919 0.42-1.096 0.571-1.708-0.218-0.131-0.563 0.482-0.397-0.954 0.049-0.422 0.256-0.832 0.418-1.168 0.867-1.802 3.403-3.545 5.386-4.076 1.754-0.47 3.438-1.006 5.425-0.708 0.608 0.091 4.128 1.658 4.318 1.941 0.43 0.149 1.156 0.753 1.323 1.147 0.345 0.585 1.675 1.96 1.606 3.048l-3.135 1.479zM0 19.326v2.674c0.663 1.448 0.070 3.081 3.266 5.875 0.892 0.78 1.489 1.148 2.769 1.792 1.342 0.675 2.829 0.649 3.587 0.996h2.335c1.007-0.468 2.662-0.253 4.841-1.926 0.621-0.477 2.845-2.755 2.746-4.081l-7.819-4.111 8.335-4.113c-0.271-4.135-6.531-7.892-11.272-6.863-3.702 0.804-6.858 2.251-8.288 5.602-0.499 1.169-0.001 3.016-0.5 4.154z"></path>
<path fill="#dcd9d5" d="M48.198 19.942l0.004 0.137c0.292 0.123 1.161 0.878 1.487 1.142 0.717 0.582 0.931 0.465 0.912 1.692-0.318 2.146-2.128 2.146-2.204 2.213-0.21 0.374-0.081 1.231 0.049 1.691 0.071 0.252 0.181 0.451 0.243 0.715 0.067 0.285 0.064 0.505 0.16 0.809l0.282 0.007c0.774-1.511 1.845-0.514 2.611 0.212 1.136 1.076 1.483 0.933 2.373-0.466 0.173-0.485 0.592-0.472 0.709-1.378 0.052-0.401 0.226-1.523 0.167-1.843l-1.898-0.427c-0.403-0.192-0.935-1.482-0.782-2.059 0.124-0.467 0.923-0.938 1.194-1.594-0.448-0.25-0.685-0.67-1.017-1.062-0.817 0.005-1.796 0.276-2.77 0.105-0.127-0.022-0.243-0.050-0.378-0.097l-0.352-0.174 0.002 0.004-0.374-0.101c-0.269 0.206-0.352 0.131-0.418 0.475z"></path>
<path fill="#dcd9d5" d="M44.394 27.651c-0.289-0.297-0.161-1.070-0.090-1.482 0.331 0.102 0.317 0.354 0.314 0.752-0.003 0.373-0.040 0.539-0.224 0.73zM45.070 24.665c-0.067-0.514 0.076-0.436 0.123-0.816 0.067-0.548-0.129-0.528 0.154-0.758 0.223 0.088 0.046-0.105 0.186 0.173 0.085 0.169 0.12 1.333-0.464 1.401zM43.577 21.97c0.441 0.418 0.451 2.562-0.068 2.551-0.342-0.007-0.348-1.041-0.354-1.342-0.010-0.493 0.003-1.046 0.422-1.209zM44.829 17.398c-0.127 0.336-0.315 0.628-0.282 1.005 0.262-0.277 0.263-0.668 0.665-0.787-0.006 0.398-0.296 0.922-0.408 1.345-0.099 0.375-0.080 1.054-0.443 1.189-0.049-0.459 0.211-1.069 0.033-1.455-0.167 0.269-0.434 1.565-0.305 1.966l0.191 0.112c0.302 0.108 0.816-0.026 0.896 0.602-0.595 0.062-0.060-0.206-1.102-0.228-1.236 0.267-1.344 1.231-1.16 2.697 0.293 2.335 1.239 1.29 2.029 1.442l-0.942 0.614 0.067 3.101c0.935-0.020 1.206-1.471 2.053-1.565 0.917-0.102 0.954 1.453 1.808 1.678 1.318 0.096 0.11-1.622 0.050-3.348-0.007-0.203 0.052-0.664 0.016-0.809-0.066-0.269-0.183-0.117-0.356-0.45l-0.317-0.31c-0.802-0.609-0.383-1.947-0.589-2.881-0.478 0.257-0.382 0.722-1.261 0.771-0.008-0.861 0.693-1.258 1.099-1.634 0.449-0.415 0.703-1.012 1.358-1.313l0.014-0.28c-0.221-0.31-2.425-2.831-3.113-1.462z"></path>
<path fill="#cf3539" d="M96.012 6.789c-0.054 0.295-0.356 0.18-0.716 0.246-0.237 0.043-0.44 0.122-0.695 0.182-0.474 0.111-0.915 0.242-1.406 0.364-0.648 0.161-2.022 0.936-2.256 1.302 0.092 0.119 0.138 0.113-0.060 0.317l-0.848 0.795c-0.3 0.249-0.253 0.342-0.471 0.618-0.179 0.227-0.122 0.029-0.262 0.29-0.099 0.185-0.050 0.252-0.147 0.393l-0.175 0.163c-0.609 0.532-0.629 0.093-1.074 0.765-0.36 0.545-0.421 0.266-1.715 0.423l0.056 0.238-0.815 0.090-0.363 0.455 2.757 2.757c0.467 0.018 1.393-0.296 1.639-0.568l2.316-2.313c0.83-0.721 0.366-1.369 0.812-1.611-0.019-1.411 3.371-3.982 3.416-4.173 0.292-0.429 0.683-0.43 0.932-0.861l-0.926 0.128z"></path>
<path fill="#5b3462" d="M47.967 14.274l-0.785 0.288c0.932 0.108-0.321 0.78-0.452 0.88-0.42 0.319-0.832 0.47-1.013 0.933 0.049 0.081 3.653 2.437 2.257 2.486 0.213 0.23 0.535 0.393 0.846 0.493l0.009-0.238c0.238-0.067 1.259 0.211 1.762 0.213 0.579 0.002 0.958-0.18 1.33-0.065 0.392 0.121 0.251 0.072 0.222 0.323 0.429-0.041 0.973-0.097 1.182-0.399l-0.469 0.122c0.081-0.716 0.429-0.047 1.606-1.516 0.448-0.559 1.109-1.581 0.223-2.031l0.205 0.468c-0.697 0.13-1.284-0.563-1.909-0.816l-1.512-0.526c-0.309-0.043-0.387 0.056-0.589-0.147 0.233-0.148 1.568 0.091 1.927 0.165 0.643 0.134 1.051 0.453 1.6 0.684-0.474-0.802-1.393-0.147-0.952-1.215l-0.564-0.192c-0.191 0.361-0.665 0.25-1.102 0.184-1.605-0.239-3.090 0.232-3.809 0.099l-0.012-0.193z"></path>
<path fill="#352f35" d="M57.672 24.067c-0.178-0.27-0.11-1.549-0.124-2.184-0.008-0.338-0.019-0.474 0.124-0.692 0.482 0.174 0.333 0.886 0.334 1.443 0 0.594 0.124 1.257-0.334 1.434zM54.407 15.591c0.122 0.087 0.12 0.134 0.278 0.171 0.886 0.45 0.225 1.472-0.223 2.031-1.177 1.469-1.525 0.8-1.606 1.516l0.469-0.122 0.844-0.374 1.467-2.114c0.704 0.291 1.41 2.805 1.416 3.865 0.217 1.436 0.091 2.926 0.050 4.383-0.033 1.154 0.156 3.229-0.178 4.214-0.504-0.020-0.853-0.629-1.113-0.924-0.665-0.756-0.694-0.329-0.819-1.228-0.182 0.345-0.010 0.338-0.312 0.596-0.154 0.131-0.106 0.056-0.249 0.227-0.204 0.245-0.011 0.156-0.315 0.262-0.89 1.399-1.236 1.543-2.373 0.466-0.767-0.726-1.837-1.723-2.611-0.212-0.112 0.148 0.017 0.003-0.121 0.122-0.394 0.34-0.681 1.043-1.081 0.645-0.854-0.225-0.891-1.78-1.808-1.678-0.846 0.094-1.118 1.545-2.053 1.565l-0.067-3.101 0.942-0.614c-0.79-0.152-1.736 0.892-2.029-1.442-0.184-1.467-0.076-2.43 1.16-2.697-0.018-0.325-0.218-0.346-0.151-1.026 0.034-0.342 0.115-0.702 0.211-1.014 0.177-0.578 0.277-1.365 0.695-1.709 0.687-1.369 2.891 1.152 3.113 1.462h0.032c1.396-0.049-2.209-2.405-2.257-2.486 0.181-0.462 0.594-0.614 1.013-0.932 0.131-0.1 1.384-0.772 0.452-0.88-1.032-0.023-2.633 2.232-3.038 3.193-0.294 0.698-0.525 1.685-0.615 2.524-0.146 1.369-0.775 0.693-0.969 2.154-0.099 0.749-0.015 2.041 0.373 2.613 0.773 1.139 0.669 0.529 0.663 2.486-0.013 4.145 1.786 0.662 2.62 0.363 0.543 0.41 0.955 1.884 2.018 1.701 0.892-0.153 1.381-1.756 2.226-1.525 0.757 0.207 1.281 1.624 2.184 1.684 1.132 0.076 1.611-1.367 2.167-1.698 0.729 0.090 2.704 3.747 2.751-0.389 0.009-0.832-0.178-2.314 0.192-2.911 0.608-0.979 0.622-1.14 0.56-2.572-0.084-1.933-0.713-0.705-0.871-2.254-0.091-0.887-0.332-1.757-0.692-2.501-0.539-1.115-1.96-2.89-3.296-3.056-0.441 1.068 0.478 0.413 0.952 1.215z"></path>
<path fill="#cf3539" d="M82.828 14.505c-0.233 0.038-0.403 0.965-0.719 1.112-0.318 0.148-1.375 0.102-1.795 0.12l-0.060 0.141 2.258 0.953c-0.301 0.713-3.147-0.371-4.616 1.177 0.372 1.253 2.693 0.848 2.977 1.021 0.379 0.507-1.182 1.109-1.336 1.579 0.354 0.368 1.445 0.27 1.797-0.113 0.437-0.476-0.101-1.677 0.596-1.985l0.743 1.627c0.267-0.826 1.652-3.348 2.342-3.296l0.433 1.612 1.878-1.899-3.264-3.034c-0.31 0.287-0.341 0.221-0.625 0.572l-0.573 0.64c-0.058-0.058-0.108 0.129-0.037-0.226z"></path>
<path fill="#dcd9d5" d="M54.168 18.813c-0.311 0.388-0.496 0.401-0.929 0.621 0.077 0.181 0.37 0.395 0.488 0.542 0.157 0.196 0.301 0.337 0.612 0.194l0.967-0.885c0.461 0.522 0.785 2.294 0.769 3.146-0.012 0.659-0.1 1.079-0.398 1.544-0.599 0.933-0.264 0.398-0.304 1.4 0.018 0.776-0.313 1.489-0.214 2.089 0.147 0.173 0.263 0.22 0.43 0.378 0.899 0.848 1.308 2.065 1.374 0.209 0.080-2.247 0.053-4.721 0.044-6.985l0.043-0.502c-0.007-1.060-0.712-3.575-1.416-3.865l-1.467 2.114z"></path>
<path fill="#9a3235" d="M92.59 11.696c-0.446 0.242 0.018 0.89-0.812 1.611l-2.316 2.313c-0.246 0.272-1.172 0.586-1.639 0.568l-2.757-2.757 0.363-0.455c-0.729 0.136-0.847 0.272-1.367 0.543l3.264 3.034-1.878 1.899-0.433-1.612c-0.69-0.053-2.075 2.469-2.342 3.296l-0.743-1.627c-0.697 0.308-0.159 1.508-0.596 1.985-0.352 0.384-1.442 0.481-1.797 0.113 0.155-0.47 1.715-1.072 1.336-1.579-0.284-0.173-2.605 0.232-2.977-1.021 1.47-1.547 4.315-0.464 4.616-1.177l-2.258-0.953 0.060-0.141c0.42-0.018 1.477 0.028 1.795-0.12 0.316-0.147 0.486-1.075 0.719-1.112 0.177-0.429 0.513-0.848 0.9-1.079 0.334-0.199 0.26-0.323 0.55-0.473 0.265-0.137 0.467-0.084 0.682-0.273-1.301 0.155-1.801 0.683-2.292 1.593-1.275 2.363-0.686 0.684-2.612 1.353 0.145 0.792 1.316 0.749 1.64 1.157-0.436 0.316-3.656-0.056-4.055 1.293 0.397 0.989 1.849 1.054 3.027 1.115l0.087 0.111-1.589 1.253c0.375 0.725 1.75 0.346 2.353 0.132l0.406-1.817 0.712 1.674c0.283-0.12 1.077-2.793 2.201-3.444l0.651 1.911 0.211 0.084 0.234-0.564c0.256-0.667 1.22-1.529 1.835-1.949 1.169-0.797 1.395 0.195 2.525 0.488l-0.685-0.605-0.088-0.116 4.609-4.328-0.386 0.206c0.088-0.58 0.964-1.226 1.361-1.514 2.679-1.936 4.030-0.916 6.221 0.22l0.893 0.57-0.626 0.354 0.893-0.164c-0.188-0.774-3.903-2.496-5.352-2.147-1.147 0.276-1.821 0.771-2.552 1.326-0.356 0.27-1.882 1.796-1.98 1.762l-0.012-0.936z"></path>
<path fill="#dcd9d5" d="M16.361 15c-0.032-0.182-0.144-0.359-0.241-0.463l-0.323-0.253c-0.174 0.11-1.261 1.19-1.302 1.274 0.213 0.311 0.666 0.449 0.814 0.83-0.202 0.234-0.56 0.414-0.962 0.579-0.244 0.1-0.997 0.33-1.141 0.428 0.042 0.384-0.060 0.058 0.238 0.312 0.347 0.296 0.63 0.693 0.802 0.831l1.958-0.911 3.135-1.479c0.069-1.087-1.261-2.462-1.606-3.048-0.293-0.119-0.231-0.235-0.507-0.319-0.209 0.221-0.189 0.244-0.422 0.45-0.158 0.139-0.247 0.312-0.49 0.398 0.136 0.693 0.608 1.343 0.163 1.614-0.060-0.073-0.070 0.004-0.116-0.243z"></path>
<path fill="#352f35" d="M2.519 17.177c-0.253 0.6 0.35-0.207-0.234 0.732-0.317 0.509-0.203 0.621-0.42 0.836l0.013 0.967c-0.026 0.202-0.023 0.128-0.107 0.227-0.077-0.086-0.053-0.035-0.122-0.177-0.315-0.65-0.078-0.926 0.033-1.334 0.118-0.452 0.398-0.583 0.566-0.951-0.611 0.26-1.052 1.014-0.927 1.995 0.172 1.344 0.987 1.288 1.292 1.693 1.375 0.725 3.189-0.505 3.175-1.999-0.017-1.763-1.554-2.449-3.268-1.99z"></path>
<path fill="#352f35" d="M9.71 12.359c0.569 0.26 0.545 0.514 0.483 1.225-0.032 0.767 0.027 1.006 0.263 1.662 0.217 0.605 0.549 1.169 0.589 1.331-0.448-0.122-0.697-0.504-0.845-0.843-0.223-0.124-0.209-0.208-0.314-0.463-0.102-0.247-0.121-0.359-0.331-0.46l0.184 0.77 1.292 1.487c0.849 0.137 1.363 0.29 2.29 0.097 0.593-0.123 1.518-0.404 1.744-0.861-0.078-0.167-0.478-0.501-0.694-0.545-0.188-0.011-0.114-0.164-0.111 0.147-0.050 0.452 0.010 0.792-0.553 0.544-0.636-0.090-0.232 0.267-0.809 0.105 0.018-0.813 0.926-0.639 0.758-1.415l-0.073-0.242-4.13-3.234-0.267-0.066c-0.051 0.606-0.046 1.803 0.222 2.241 0.176-0.488-0.194-1.273 0.046-1.74 0.256 0.089 0.148 0.024 0.256 0.258z"></path>
<path fill="#dcd9d5" d="M36.26 21.662l0.846-0.029c0.047-2.771-3.386-2.377-2.941 0.821 0.131 0.942 0.831 2.182 1.973 1.729 1.359-0.54-0.949-0.716 0.122-2.521z"></path>
<path fill="#dcd9d5" d="M86.181 20.721c-0.155-0.145-0.243-0.174-0.276-0.42l-0.317-0.198c-0.699 0.691-0.359 2.239-0.106 3.147 0.45 0.712 1.428 1.378 2.179 0.405-0.155-0.428-1.138-1.539-0.123-2.251l0.15-0.223 0.538 0.113-0.053-0.569-0.247-0.558c-0.41-0.276-0.619-0.989-1.436-0.712-0.122 0.5 0.11 0.93 0.008 1.505-0.287-0.068-0.203-0.016-0.317-0.238z"></path>
<path fill="#dcd9d5" d="M30.933 22.066c0.162-0.511 0.376-0.612 0.932-0.538 0.023-0.405-0.099-0.511-0.152-0.885-0.358-1.397-2.415-1.254-2.603 1.055-0.148 1.812 1.27 3.617 2.383 2.025l-0.171 0.054-0.388-1.711z"></path>
<path fill="#352f35" d="M68.498 21.421c0.342 0.127 0.353 0.294 0.343 0.737s-0.034 0.592-0.329 0.717c-0.47-0.235-0.519-1.184-0.015-1.455zM68.114 22.962c0.098 0.243 0.728 0.532-0.241 0.886-0.558 0.204-1.082-0.041-1.351-0.328-0.335-0.358-1.106-2.085-0.619-2.7 0.034-0.052-0.085-0.16 0.551-0.129 0.454 0.023 1.436 0.058 1.75 0.31-0.127 0.659-0.676 0.826-0.090 1.961zM66.022 20.289c0.045-0.647 0.865-1.63 1.741-1.355 0.688 0.216 1.207 1.005 1.214 1.936-0.362-0.059-1.027-0.251-1.426-0.35-0.513-0.128-1.148-0.099-1.529-0.231zM67.153 18.472c-2.943 1.075-1.791 6.336 0.608 5.807 2.89-0.637 1.699-6.65-0.608-5.807z"></path>
<path fill="#dcd9d5" d="M47.164 21.423c0.182 1.021-0.12 1.673 0.506 2.564 0.478 0.68 1.397 0.958 1.891 0.076-0.103-0.334-0.519-0.371-0.509-1.153 0.011-0.892 0.518-0.821 0.668-1.092l-1.58-1.445c-0.303-0.084-0.218-0.128-0.476-0.203-0.444 0.385-0.183 0.861-0.499 1.253z"></path>
<path fill="#352f35" d="M31.457 23.253c-0.115-0.1-0.12-0.067-0.18-0.306-0.077-0.31-0.104-0.854 0.248-1.018 0.258 0.11 0.344 0.346 0.336 0.703-0.007 0.349-0.099 0.551-0.404 0.62zM30.933 22.066l0.388 1.711 0.171-0.054c-1.113 1.592-2.531-0.214-2.383-2.025 0.188-2.308 2.246-2.452 2.603-1.055 0.173 0.082 0.123 0.007 0.196 0.252 0.108 0.367 0.19 0.603 0.155 0.924-0.382-0.067-0.165-0.201-0.694-0.198-0.133 0.18-0.243 0.346-0.436 0.445zM30.235 19.418c-2.879 1.207-1.487 5.752 0.779 5.291 2.457-0.5 1.483-6.239-0.779-5.291z"></path>
<path fill="#352f35" d="M36.564 23.225c-0.327-0.313-0.393-0.897 0-1.24 0.313 0.048 0.454 0.281 0.438 0.649-0.019 0.412-0.133 0.511-0.438 0.591zM36.26 21.662c-1.070 1.804 1.238 1.981-0.122 2.521-1.143 0.454-1.842-0.787-1.973-1.729-0.444-3.199 2.988-3.593 2.941-0.821l-0.846 0.029zM35.524 19.397c-2.678 0.355-2.009 5.704 0.318 5.308 2.514-0.427 2.018-5.617-0.318-5.308z"></path>
<path fill="#352f35" d="M54.693 22.361c-0.239 0.286-0.201 0.579-0.157 0.993l0.604 0.728c-0.585 0.963-1.604 0.498-1.977-0.276-0.415-0.862-0.238-2.068 0.495-2.193 0.126-0.369 0.642-0.861 0.928-1.006 0.080-0.152 0.31-0.348 0.497-0.566 0.258-0.019 0.076-0.025 0.121 0.062 0.16 0.118 0.187 0.154 0.251 0.459 0.075 0.355 0.401 1.529 0.036 1.557l-0.241-0.013c0.001 0.166 0.581 1.164-0.098 1.481-0.479-0.397-0.038-0.878-0.238-1.395-0.197 0.105-0.025-0.014-0.221 0.169zM54.339 20.17c-0.193 0.51-0.468 0.645-0.787 0.934-1.821 1.644-0.94 2.133-0.458 3.341l1.898 0.427c0.013 0.015 0.028 0.020 0.032 0.049s0.024 0.037 0.029 0.051c0.174 0.486-0.174 0.828 0.1 1.272 0.168-0.209 0.069-0.653 0.222-0.869 0.040-1.002-0.295-0.467 0.304-1.4 0.298-0.464 0.386-0.884 0.398-1.544 0.016-0.852-0.309-2.625-0.769-3.146l-0.967 0.885z"></path>
<path fill="#dcd9d5" d="M68.114 22.962c-0.377-0.123-0.356-0.441-0.348-0.942 0.010-0.666 0.212-0.524 0.256-1.031-0.791-0.080-1.253-0.229-2.119-0.169-0.487 0.614 0.284 2.341 0.619 2.7 0.269 0.288 0.793 0.532 1.351 0.328 0.969-0.354 0.339-0.643 0.241-0.886z"></path>
<path fill="#41539e" d="M66.296 6.646c0.072 0.453 0.356 0.642 0.471 0.965 0.208 0.128 0.285 0.313 0.413 0.486 0.124 0.167 0.286 0.372 0.398 0.486 0.318 0.325 0.54 0.617 0.845 0.913l0.217-0.041c0.090-0.95-0.11-1.889-0.198-2.757 0.242 0.241 0.484 0.609 0.716 0.916 0.352 0.465 0.314 1.1 1.151 2.115 0.317 0.384 0.408 0.667 1.062 0.468l0.089-0.823c0.573 0.153 0.984 1.928 1.158 2.199 0.117 0.183 0.248 0.289 0.343 0.474 0.105 0.204 0.077 1.421 1.097 1.441l0.39-1.965 0.252 0.204c-0.074-0.26-0.207-0.335-0.14-0.649 0.152 0.128 0.237 0.279 0.331 0.472 0.129 0.265 0.109 0.442 0.292 0.609-0.093-0.753-0.655-2.019-1.103-2.313-0.292 0.533 0.569 2.542-0.204 3.299-0.105-0.123-0.128-0.391-0.176-0.613-0.056-0.258-0.089-0.498-0.275-0.673 0.061 0.332 0.142 0.542 0.084 0.877-0.315-0.156-0.308-0.294-0.403-0.634-0.211-0.759-0.614-1.698-1.021-2.347-0.252-0.145-0.454-0.753-0.509-1.058l0.31 0.167c-0.114-0.272-0.455-0.781-0.74-0.854 0.009 0.387 0.033 0.779 0.055 1.16 0.028 0.479 0.122 0.899-0.275 0.684l0.001 0.248c-0.355-0.138-1.18-1.7-1.445-2.2-0.162-0.307-0.384-0.463-0.449-0.878 0.207 0.075 0.247 0.13 0.385 0.222-0.222-0.378-0.729-0.913-1.182-1.057-0.074 0.725 0.328 1.996 0.287 2.97-0.751-0.138-1.853-2.231-2.229-2.514z"></path>
<path fill="#dcd9d5" d="M92.669 23.165c-0.431-0.369-0.196-1.002-0.228-1.481-0.246-0.187-0.523-0.454-0.748-0.66-0.217-0.199-0.464-0.656-0.871-0.548-1.057 3.207 1.667 4.517 2.286 3.112l-0.44-0.422z"></path>
<path fill="#352f35" d="M49.764 23.494c-0.118-0.034-0.113 0.018-0.209-0.164-0.124-0.234-0.119-0.642 0.082-0.891 0.623 0.001 0.355 0.915 0.127 1.055zM48.139 20.372l1.58 1.445c-0.15 0.272-0.657 0.201-0.668 1.092-0.010 0.782 0.406 0.819 0.509 1.153-0.494 0.882-1.413 0.605-1.891-0.076-0.626-0.891-0.324-1.543-0.506-2.564 0.053-0.334 0.105-0.395-0.046-0.57l-0.089 0.211c-0.079 0.29 0.026 0.375-0.17 0.653 0.015 1.397 0.127 1.358 0.463 2.48l0.317 0.31c0.291 0.11 0.695 0.879 1.915 0.084 0.25-0.163 0.42-0.423 0.6-0.76 0.147-0.277 0.228-0.687 0.447-0.917 0.020-1.227-0.195-1.11-0.912-1.692-0.325-0.264-1.195-1.019-1.487-1.142l-0.292-0.067c0.095 0.24 0.056 0.177 0.23 0.359z"></path>
<path fill="#dcd9d5" d="M71.766 23.112c0.187 0.114 1.173 1.523 2.164 0.27-0.145-0.366-0.79-0.622-0.448-1.822 0.12-0.42 0.184-0.216 0.257-0.59l-0.747 0.015c-2.606 0.203-1.25 1.327-1.226 2.127z"></path>
<path fill="#352f35" d="M88.018 22.819l-0.084 0.258c-0.719-0.147-0.542-1.465-0.099-1.45 0.261 0.009 0.454 0.601 0.396 0.926-0.050 0.281-0.081 0.204-0.213 0.266zM87.008 19.325c0.568 0.208 0.664 0.34 0.917 0.841l0.247 0.558c0.176 0.17 0.206 0.436 0.158 0.704l-0.793-0.025c-1.015 0.712-0.032 1.823 0.123 2.251-0.751 0.974-1.729 0.308-2.179-0.405-0.514-0.288-0.419-1.633-0.411-2.287-0.17 0.016-0.233 0.179-0.364 0.334-0.103 1.813 1.28 4.258 2.955 2.932 1.252-0.991 1.402-3.409 0.263-4.71-0.389-0.215-0.422-0.447-1.045-0.474l0.129 0.28z"></path>
<path fill="#b2b1ae" d="M7.398 22.103c0.911 0.048 1.972-1.538 2.508-2.020 0.235-0.212 2.408-1.895 1.924-2.406-0.451-0.476-2.153 1.629-2.412 1.918-0.458 0.511-2.067 1.702-2.020 2.509z"></path>
<path fill="#b2b1ae" d="M13.582 14.9l0.073 0.242c0.324 0.113 0.594 0.335 0.715 0.619 0.216 0.044 0.616 0.377 0.694 0.545-0.226 0.457-1.15 0.737-1.744 0.861-0.927 0.193-1.44 0.040-2.29-0.097 0.56 0.476 1.043 0.352 1.833 0.385-0.147 0.47-0.472 0.405 0.546 1.301l-0.016 0.289c0.186-0.042 1.222-0.508 1.457-0.622 0.432-0.211 1.104-0.442 1.353-0.795l-1.958 0.911c-0.171-0.138-0.455-0.536-0.802-0.831-0.297-0.253-0.196 0.072-0.238-0.312 0.145-0.098 0.898-0.328 1.141-0.428 0.402-0.165 0.76-0.345 0.962-0.579-0.148-0.381-0.601-0.519-0.814-0.83 0.040-0.085 1.127-1.164 1.302-1.274l0.323 0.253c-0.079-0.279-0.159-0.442-0.285-0.718-0.113-0.247-0.146-0.47-0.338-0.632l0.058 0.279c-0.425 0.156-0.58 0.48-0.919 0.795-0.301 0.281-0.52 0.87-1.055 0.639z"></path>
<path fill="#dcd9d5" d="M53.659 21.613c-0.734 0.125-0.91 1.331-0.495 2.193 0.372 0.774 1.392 1.239 1.977 0.276l-0.604-0.728c-0.163-0.197-0.161-0.425-0.111-0.702 0.063-0.347 0.548-0.608-0.43-1.289-0.161 0.090-0.161 0.092-0.336 0.25z"></path>
<path fill="#ca8358" d="M71.526 20.9c0.448-0.005 0.953-0.143 1.379-0.259 0.59-0.16 0.987-0.067 1.581-0.123 0.032-0.825-0.792-1.798-1.657-1.653-0.754 0.127-1.34 1.143-1.302 2.035z"></path>
<path fill="#5b3462" d="M50.526 12.078c-0.656 0.104-1.308 0.32-1.869 0.395-0.804 0.107-0.524-0.080-0.52-0.092-0.556 0.085-1.312 0.129-1.907 0.158-0.337 0.017-0.681 0.023-1.018 0.010-0.282-0.011-0.913-0.109-0.416-0.388 0.079-0.2 0.073-0.181 0.244-0.274 0.177-0.275 0.805-0.799 1.133-0.912 0.712-0.329 2.219-1.409 3.112-1.402 0.492-0.506 2.909-0.401 3.486-0.407-0.469-0.247-1.705-0.025-2.339-0.083l0.156-0.101c-0.481-0.338-3.229 0.915-3.701 1.171-0.534 0.29-2.861 1.792-2.629 2.316 0.179 0.474 1.030 0.274 1.567 0.27 0.69-0.005 0.945 0.094 1.692 0.002 0.711-0.087 2.635-0.182 3.010-0.664z"></path>
<path fill="#5b3462" d="M49.825 9.932c-1.086 0.072-2.804 0.958-3.627 1.404-0.254 0.337-0.843 0.519-0.915 0.938 0.887 0.054 1.301-0.047 2.11-0.128 0.372-0.037 1.637-0.184 1.872-0.33-0.399-0.414-2.191 0.212-3.102 0.066 0.775-1.217 5.040-1.866 6.561-1.863-0.226 0.5-0.507 0.214-0.757 0.683 0.259-0.077 0.465-0.171 0.686-0.298 0.075-0.043 0.236-0.144 0.291-0.194 0.084-0.077 0.067-0.052 0.1-0.136 0.213-0.547-2.254 0.215-2.364-0.254l-0.853 0.112z"></path>
<path fill="#ca8358" d="M66.022 20.289c0.38 0.133 1.016 0.104 1.529 0.231 0.398 0.099 1.063 0.291 1.426 0.35-0.007-0.931-0.525-1.72-1.214-1.936-0.876-0.275-1.696 0.707-1.741 1.355z"></path>
<path fill="#d28d8e" d="M94.238 21.603c0.001 0.247 0.014 0.648-0.016 0.884-0.035 0.276-0.197 0.43-0.137 0.717 0.256-0.353 0.158-1.248 0.355-1.51 0.193 0.237 0.123 1.396 0.070 1.756-0.499 0.146-0.389-0.1-0.412 0.565l0.175-0.261c0.004-0.022 0.019-0.026 0.031-0.037 0.235 0.335 0.227 1.72 0.232 2.25 0.009 0.933 0.076 1.39-0.205 2.207-0.64-0.090-0.235-0.063-0.216-1.73 0.008-0.743 0.042-1.527 0.002-2.265-0.563 0.18 0.221 2.488-0.453 3.762 0.185 0.358 0.567 0.941 1.014 0.962 0.147-0.669 0.219-7.634 0.034-7.958-0.206 0.077-0.408 0.451-0.474 0.658z"></path>
<path fill="#352f35" d="M50.586 8.982l-0.156 0.101c0.633 0.058 1.87-0.164 2.339 0.083 0.267 0.008 1.884 0.164 2.121 0.336-0.051 0.392-0.396 0.542-0.758 0.643l-0.681 0.384c-0.414 0.685-4.151 1.659-5.315 1.852-0.003 0.011-0.284 0.199 0.52 0.092 0.561-0.074 1.213-0.291 1.869-0.395 0.736-0.115 2.102-0.728 2.742-1.057 0.526-0.27 2.092-1.148 2.050-1.752-0.868-0.525-3.666-0.514-4.731-0.287z"></path>
<path fill="#5b3462" d="M63.171 20.987l0.021 0.291c-0.875-0.013-2.069-1.115-2.205-1.814 0.511 0.080 0.741 0.277 1.31 0.098-0.083-0.327-0.688-0.567-0.959-0.865-0.686-0.753-1.547-2.8-1.525-3.837 0.612 0.169 1.054 1.295 1.979 1.339 0.090-0.661-0.501-2.033-0.628-2.853-0.098-0.635-0.111-0.986-0.112-1.666-0-0.509-0.107-1.479 0.144-1.595 0.269-0.086 0.077-0.123 0.247 0.14 0.273 0.424 0.729 1.593 1.596 1.654l-0.065-3.333c-0.313 0.697 0.077 2.341-0.082 3.172-0.787-0.108-1.528-2.011-1.679-2.126-0.429 0.153-0.286 1.041-0.292 1.543-0.007 0.603-0.021 1.285 0.048 1.881 0.1 0.872 0.741 2.359 0.706 3-0.576-0.068-0.8-0.413-1.099-0.706-0.21-0.206-0.815-0.871-1.030-0.922 0.013 1.136 0.849 3.264 1.539 4.156 0.331 0.429 0.734 0.592 0.983 0.981-0.652-0.003-0.725-0.165-1.252-0.268-0.038 0.856 1.488 2.097 2.426 2.136 0.036-0.278 0.055-0.22-0.070-0.405z"></path>
<path fill="#8b94ac" d="M49.653 11.663c-0.162 0.152-0.111 0.117-0.39 0.153-0.235 0.146-1.5 0.293-1.872 0.33-0.809 0.080-1.223 0.182-2.11 0.128 0.072-0.419 0.662-0.601 0.915-0.938l-0.538 0.217c0.125-0.488 0.292-0.179 0.513-0.577-0.328 0.113-0.956 0.637-1.133 0.912 0.204 0.036 0.093-0.021 0.186 0.064-0.148 0.329-0.076 0.44-0.455 0.406l0.025-0.196c-0.497 0.279 0.134 0.377 0.416 0.388 0.337 0.013 0.681 0.006 1.018-0.010 0.595-0.029 1.351-0.073 1.907-0.158 1.164-0.193 4.902-1.167 5.315-1.852-0.057-0.098-0.044-0.106-0.063-0.142 0.083-0.068 0.019-0.043 0.072-0.163-1.045 0.334-2.619 1.566-3.808 1.44z"></path>
<path fill="#d28d8e" d="M94.475 6.872l0.001-0.037c-0.758 0.467-1.954 0.222-3.718 1.71-0.297 0.25-2.621 2.415-2.242 2.999 0.281-0.124 0.874-1.086 1.125-1.395l1.298-1.266c0.234-0.366 1.608-1.14 2.256-1.302 0.491-0.122 0.932-0.253 1.406-0.364 0.255-0.060 0.458-0.139 0.695-0.182 0.361-0.066 0.662 0.049 0.716-0.246l-1.537 0.083z"></path>
<path fill="#68473a" d="M66.467 29.196c-0.084-0.218-0.341-0.309-0.783-1.029-0.229-0.374-0.41-0.882-0.99-0.785-0.772 0.129-1.157 1.553-1.89 1.626-0.092-0.575-0.205-3.083 0.024-3.445 0.081 0.4-0.020 0.648 0.233 0.825 0.147-0.685 0.309-2.648-0.010-3.234-0.28 0.11-0.101 0.208-0.272 0.465l-0.138-1.817 0.356 0.019c-0.161-0.174-0.086-0.126-0.379-0.142-0.191 0.411-0.040 6.831 0.15 7.48 0.855-0.117 1.135-1.368 1.904-1.643 0.719-0.257 1.007 1.334 1.795 1.681z"></path>
<path fill="#d28d8e" d="M75.17 23.593c-0.225 0.331-0.199 2.055-0.195 2.579 0.003 0.435 0.077 0.983-0.082 1.36-0.176 0.415-0.21 0.572 0.141 0.927 0.532-0.047 0.541-0.325 0.543-0.855 0.002-0.79 0.076-3.642-0.074-4.016l-0.332 0.005z"></path>
<path fill="#9a3235" d="M91.654 17.789c0.139 0.354 0.324 0.382 0.566 0.667 0.251 0.296 0.219 0.555 0.665 0.596 0.242-1.139-0.199-1.451-0.184-2.238 0.946 0.070 1.691 3.172 1.739 3.26 0.508-0.117 0.189-0.593 0.678-0.849 0.115 0.402 0.054 1.416 0.302 1.626 0.047 0.031 3.734-0.53 3.856-0.598-0.122-0.234-0.15-0.209-0.425-0.256l0.049 0.191-0.708 0.013c-0.43 0.157-2.33 0.571-2.767 0.429-0.146-0.549 0.127-1.218-0.235-1.668-0.559 0.044-0.31 0.405-0.624 0.743-0.559-0.894-0.005-1.050-1.363-2.841-0.129-0.171-0.521-0.513-0.79-0.602-0.167 0.807 0.43 1.402 0.329 2.275-0.451-0.114-0.553-0.614-1.086-0.747z"></path>
<path fill="#d28d8e" d="M94.131 12.020c0.307-0.52 2.182-1.814 3.164-1.91 0.73-0.071 1.746-0.027 2.266 0.262 0.296 0.164 0.611 0.23 0.927 0.367 0.283 0.123 0.675 0.512 0.839 0.192-2.191-1.136-3.543-2.155-6.221-0.22-0.397 0.287-1.274 0.934-1.361 1.514l0.386-0.206z"></path>
<path fill="#dcd9d5" d="M49.284 9.573c-0.892-0.007-2.399 1.073-3.112 1.402-0.221 0.398-0.388 0.089-0.513 0.577l0.538-0.217c0.823-0.445 2.542-1.332 3.627-1.404 0.259-0.211 1.367-0.29 1.845-0.365 0.674-0.105 1.423-0.055 2.124-0.087-1.623-0.502-2.921-0.070-4.51 0.094z"></path>
<path fill="#9a3235" d="M85.404 12.659l0.784-0.011c1.294-0.157 1.355 0.122 1.715-0.423 0.444-0.672 0.465-0.233 1.074-0.765l0.175-0.163c0.097-0.142 0.048-0.208 0.147-0.393 0.14-0.261 0.082-0.063 0.262-0.29 0.219-0.276 0.172-0.369 0.471-0.618l0.848-0.795c0.198-0.204 0.151-0.198 0.060-0.317l-1.298 1.266c-0.251 0.309-0.844 1.271-1.125 1.395-0.379-0.584 1.946-2.749 2.242-2.999 1.764-1.488 2.959-1.243 3.718-1.71-4.401 0.084-6.533 5.357-6.981 5.58-0.578 0.078-1.661-0.088-2.091 0.244z"></path>
<path fill="#b2b1ae" d="M53.324 19.187c-0.209 0.302-0.753 0.357-1.182 0.399-0.455 0.106-1.057 0.16-1.551 0.163-0.703 0.004-0.988-0.141-1.604-0.185l0.352 0.174c0.134 0.047 0.251 0.075 0.378 0.097 0.975 0.17 1.953-0.1 2.77-0.105 0.332 0.393 0.569 0.812 1.017 1.062-0.271 0.655-1.070 1.127-1.194 1.594-0.153 0.576 0.38 1.867 0.782 2.059-0.481-1.207-1.362-1.697 0.458-3.341 0.319-0.288 0.595-0.423 0.787-0.934-0.311 0.143-0.455 0.002-0.612-0.194-0.118-0.147-0.411-0.361-0.488-0.542 0.433-0.22 0.617-0.233 0.929-0.621l-0.844 0.374z"></path>
<path fill="#b2b1ae" d="M47.321 24.197c-0.335-1.123-0.448-1.083-0.463-2.48 0.034-0.748 0.219-1.74 0.668-2.149 0.319 0.082 0.322 0.232 0.671 0.374 0.066-0.344 0.149-0.269 0.418-0.475l0.374 0.101-0.171-0.215c-0.311-0.1-0.633-0.262-0.846-0.493h-0.032l-0.014 0.28c-0.654 0.301-0.909 0.898-1.358 1.313-0.406 0.376-1.108 0.774-1.099 1.634 0.879-0.049 0.783-0.514 1.261-0.771 0.206 0.934-0.213 2.272 0.589 2.881z"></path>
<path fill="#352f35" d="M47.967 14.274l0.012 0.193c0.719 0.133 2.205-0.338 3.809-0.099 0.437 0.065 0.911 0.177 1.102-0.184-0.683-0.537-4.788-0.668-4.924 0.090z"></path>
<path fill="#b2b1ae" d="M90.823 20.475c0.407-0.108 0.654 0.348 0.871 0.548 0.225 0.207 0.501 0.473 0.748 0.66 0.032 0.479-0.204 1.112 0.228 1.481l-0.078-1.135c0.057-0.372 0.167-0.531 0.466-0.663 0.541-0.083 0.34 0.043 0.682 0.103 0.036-0.376 0.1-0.48-0.185-0.675l0.080 0.471c-0.104-0.017-0.327-0.051-0.406-0.076-0.309-0.097-0.234-0.058-0.212-0.36-0.615 0.548-0.145-0.945-0.668-1.225 0.050 0.335 0.243 0.816 0.115 1.101-0.313-0.122-0.668-0.654-0.964-0.855l0.036-0.269c-0.416 0.135-0.584 0.384-0.714 0.894z"></path>
<path fill="#6e6e71" d="M6.019 28.043c0.141 0.578 1.954 1.212 2.698 1.398 0.683 0.17 3.253 0.371 3.662-0.139-0.395-0.272-1.303-0.004-1.814-0.028-2.517-0.117-3.018-0.738-4.546-1.231z"></path>
<path fill="#68473a" d="M85.49 19.010l0.050 0.382c-0.345-0.157-0.165-0.265-0.452-0.502 0.124 0.518 0.365 0.673 0.050 1.183-0.211 0.342-0.363 0.77-0.431 1.223 0.131-0.155 0.194-0.318 0.364-0.334-0.008 0.654-0.103 1.999 0.411 2.287-0.252-0.909-0.593-2.456 0.106-3.147l0.317 0.198c-0.060-0.287 0.035-0.37 0.149-0.521 0.19 0.052 0.071-0.009 0.242 0.090-0.005-0.287-0.028-0.348 0.109-0.565 0.266-0.076 0.343-0.044 0.603 0.020l-0.129-0.28c0.623 0.027 0.656 0.259 1.045 0.474-0.244-0.564-0.834-0.552-1.551-0.597l-0.008-0.215c-0.284 0.202-0.045 0.245-0.441 0.324l0.011-0.502-0.234 0.564-0.211-0.084z"></path>
<path fill="#8b94ac" d="M55.374 25.375c-0.153 0.216-0.054 0.66-0.222 0.869-0.274-0.444 0.074-0.785-0.1-1.272-0.005-0.014-0.025-0.022-0.029-0.051s-0.019-0.034-0.032-0.049c0.058 0.32-0.116 1.442-0.167 1.843-0.117 0.907-0.536 0.894-0.709 1.378 0.305-0.106 0.112-0.018 0.315-0.262 0.143-0.171 0.095-0.096 0.249-0.227 0.302-0.257 0.13-0.251 0.312-0.596 0.125 0.899 0.154 0.472 0.819 1.228 0.26 0.296 0.609 0.904 1.113 0.924 0.333-0.985 0.145-3.060 0.178-4.214 0.041-1.457 0.167-2.947-0.050-4.383l-0.043 0.502c0.009 2.264 0.036 4.738-0.044 6.985-0.066 1.856-0.475 0.639-1.374-0.209-0.167-0.158-0.283-0.205-0.43-0.378-0.099-0.601 0.232-1.314 0.214-2.089z"></path>
<path fill="#316b41" d="M38.675 23.245c0.204-0.103 0.509-0.568 0.532-0.888 0.054-0.741-0.163-0.344 0.203-1.096 0.591-1.213 0.869-1.479 0.434-1.866-1.3 1.025-0.683 1.609-0.68 2.213-0.401-0.144-0.207-0.391-0.547-0.608l0.057 2.244z"></path>
<path fill="#352f35" d="M50.678 9.82c0.111 0.469 2.577-0.292 2.364 0.254-0.033 0.084-0.016 0.059-0.1 0.136-0.055 0.050-0.215 0.151-0.291 0.194-0.222 0.127-0.427 0.221-0.686 0.298-0.346 0.054-0.806 0.32-1.196 0.474-0.3 0.119-1.132 0.324-1.314 0.435l0.198 0.052c1.189 0.126 2.763-1.106 3.808-1.44l0.137-0.041c0.291-0.508 0.414-0.165 0.619-0.556-0.765-0.112-2.78 0.032-3.539 0.193z"></path>
<path fill="#b2b1ae" d="M9.471 15.080c-0.165-0.966-0.194-0.524-0.359-1.905-0.029-0.238 0.019-0.111-0.071-0.285l-0.059 0.473c-0.205-0.278-1.032-1.432-1.481-1.063-0.488 0.451 0.645 1.147 0.873 1.353 0.264 0.239 0.308 0.467 0.544 0.681 0.202 0.183 0.188 0.070 0.317 0.294 0.134 0.234 0.015 0.241 0.235 0.451z"></path>
<path fill="#6e6e71" d="M47.638 24.507c0.173 0.333 0.29 0.181 0.356 0.45 0.036 0.145-0.023 0.607-0.016 0.809 0.060 1.726 1.269 3.443-0.050 3.348 0.4 0.398 0.688-0.305 1.081-0.645 0.138-0.119 0.009 0.026 0.121-0.122l-0.282-0.007c-0.097-0.304-0.093-0.524-0.16-0.809-0.062-0.264-0.172-0.462-0.243-0.715-0.13-0.46-0.259-1.317-0.049-1.691 0.076-0.067 1.886-0.067 2.204-2.213-0.219 0.231-0.3 0.641-0.447 0.917-0.179 0.337-0.35 0.598-0.6 0.76-1.221 0.795-1.624 0.026-1.915-0.084z"></path>
<path fill="#41539e" d="M75.233 14.677c-0.006 0.333-0.021 0.678 0.018 1.011 0.071 0.605 0.193 0.31 0.376 0.414l0.030 1.249 0.438 0.138 0.002 0.76c0.111-0.105 0.163-0.317 0.203-0.47 0.056-0.216 0.083-0.368 0.105-0.588 0.041-0.405 0.006-0.963 0.135-1.275 0.077 0.068 0.021 0.008 0.084 0.102 0.007 0.011 0.020 0.030 0.028 0.043l0.058 0.097c0.007 0.012 0.018 0.036 0.029 0.053l-0.133-0.854c-0.204 0.221-0.213 0.571-0.284 0.883-0.042 0.182-0.092 0.294-0.156 0.454-0.113 0.284-0.027 0.251-0.249 0.332-0.182-0.228-0.18-2.325-0.297-3.227l-0.148-0.44 0.037 1.416c-0.237-0.045-0.12 0-0.278-0.096z"></path>
<path fill="#dcd9d5" d="M94.098 24.016l0.019 0.164c0.040 0.738 0.006 1.522-0.002 2.265-0.019 1.668-0.425 1.641 0.216 1.73 0.281-0.817 0.214-1.273 0.205-2.207-0.005-0.529 0.003-1.915-0.232-2.25-0.012 0.011-0.027 0.015-0.031 0.037l-0.175 0.261z"></path>
<path fill="#9a3235" d="M101.185 15.93c0.167 0.071 0.279 0.118 0.446 0.199 0.226 0.11 0.242 0.068 0.29 0.314-0.129 0.095-1.469 0.406-1.791 0.516-1.232 0.422-2.074 0.932-2.962 1.802-0.183 0.18-1.031 0.984-0.814 1.424 0.279 0.087 0.586-0.020 0.748-0.207l-0.537 0.017c0.205-1.259 2.629-2.581 3.957-2.986 0.507-0.155 1.45-0.302 1.805-0.496-0.052-0.354-0.446-0.465-0.813-0.609-0.349-0.136-0.784-0.31-1.181-0.36 0.236 0.18 0.482 0.17 0.852 0.385z"></path>
<path fill="#6e6e71" d="M44.074 21.147c1.041 0.021 0.507 0.29 1.102 0.228-0.080-0.627-0.594-0.494-0.896-0.602l-0.191-0.112c-0.129-0.402 0.138-1.697 0.305-1.966 0.177 0.387-0.082 0.997-0.033 1.455 0.363-0.134 0.344-0.814 0.443-1.189 0.112-0.423 0.402-0.946 0.408-1.345-0.402 0.118-0.404 0.509-0.665 0.787-0.033-0.377 0.156-0.669 0.282-1.005-0.418 0.344-0.519 1.131-0.695 1.709-0.095 0.312-0.177 0.672-0.211 1.014-0.067 0.68 0.134 0.7 0.151 1.026z"></path>
<path fill="#8b94ac" d="M49.284 9.573c1.589-0.163 2.887-0.596 4.51-0.094-0.701 0.032-1.449-0.018-2.124 0.087-0.478 0.075-1.586 0.154-1.845 0.365l0.853-0.112c0.759-0.161 2.774-0.306 3.539-0.193-0.205 0.39-0.328 0.048-0.619 0.556 0.236-0.157 0.261-0.234 0.571-0.183l-0.036 0.147c0.361-0.101 0.707-0.251 0.758-0.643-0.238-0.172-1.854-0.328-2.121-0.336-0.577 0.005-2.994-0.099-3.486 0.407z"></path>
<path fill="#b2b1ae" d="M54.685 15.762c-0.158-0.037-0.156-0.084-0.278-0.171-0.549-0.231-0.957-0.551-1.6-0.684-0.358-0.074-1.693-0.313-1.927-0.165 0.202 0.203 0.28 0.103 0.589 0.147l1.512 0.526c0.625 0.254 1.212 0.946 1.909 0.816l-0.205-0.468z"></path>
<path fill="#b2b1ae" d="M54.587 20.607c-0.286 0.145-0.802 0.637-0.928 1.006 0.175-0.158 0.175-0.16 0.336-0.25 0.978 0.681 0.493 0.942 0.43 1.289-0.050 0.277-0.052 0.505 0.111 0.702-0.044-0.414-0.081-0.707 0.157-0.993 0.131-0.456 0.254-0.427 0.764-0.408l0.035 0.166c0.365-0.028 0.039-1.202-0.036-1.557-0.064-0.305-0.091-0.341-0.251-0.459 0.087 0.606 0.218 1.008 0.249 1.683-0.337-0.181-0.222-0.341-0.934-0.926l0.067-0.253z"></path>
<path fill="#352f35" d="M43.577 21.97c-0.418 0.163-0.432 0.716-0.422 1.209 0.006 0.301 0.012 1.335 0.354 1.342 0.519 0.011 0.508-2.133 0.068-2.551z"></path>
<path fill="#d28d8e" d="M97.285 15.732c-0.078 0.129-0.095 0.105-0.097 0.271 0.641 0.113 1.014-0.451 2.977-0.040 0.467 0.098 0.765 0.222 1.019-0.033-0.369-0.216-0.616-0.205-0.852-0.385-0.577-0.038-0.865-0.225-1.593-0.126-0.452 0.061-0.985 0.193-1.455 0.313z"></path>
<path fill="#b2b1ae" d="M15.733 12.836c0.258 0.727 0.757 1.155 0.812 2.109-0.094 0.112 0.024 0.034-0.184 0.054 0.046 0.246 0.056 0.17 0.116 0.243 0.446-0.271-0.027-0.921-0.163-1.614 0.243-0.087 0.332-0.259 0.49-0.398 0.233-0.205 0.212-0.228 0.422-0.45 0.276 0.085 0.213 0.201 0.507 0.319-0.167-0.394-0.893-0.998-1.323-1.147 0.164 0.195 0.1 0.144 0.282 0.241-0.094 0.243-0.544 0.651-0.78 0.774l-0.179-0.131z"></path>
<path fill="#8b94ac" d="M37.721 28.233c0.41-0.309 0.134-1.593 0.149-2.129 0.017-0.563 0.176-1.915-0.013-2.334-0.35 0.085-0.222 0.148-0.244 1.019l-0.039 2.544c0.003 0.547-0.33 0.709 0.147 0.9z"></path>
<path fill="#352f35" d="M48.82 19.353l0.171 0.215-0.002-0.004c0.616 0.043 0.901 0.189 1.604 0.185 0.494-0.003 1.095-0.057 1.551-0.163 0.029-0.251 0.17-0.202-0.222-0.323-0.372-0.115-0.752 0.066-1.33 0.065-0.502-0.001-1.523-0.28-1.762-0.213l-0.009 0.238z"></path>
<path fill="#b0c2d6" d="M65.386 5.516c0.153 0.346 0.207 0.858 0.399 1.251 0.187 0.383 0.371 0.895 0.669 1.058 0.198 0.185 0.064 0.144 0.336 0.185l-0.022-0.398c-0.115-0.323-0.399-0.512-0.471-0.965l0.009-0.046c-0.251-0.115-0.29-0.351-0.389-0.639-0.086-0.248-0.152-0.502-0.194-0.769-0.388-0.283-0.142-0.37-0.356-0.647-0.184 0.299-0.035 0.632 0.020 0.97z"></path>
<path fill="#68473a" d="M6.669 18.472c0.412-0.739-0.464-1.594-0.817-1.957-0.59-0.606-1.464-0.645-2.501-0.534 0.464 0.238 1.949 0.015 2.844 1.483 0.155 0.255 0.308 0.828 0.474 1.008z"></path>
<path fill="#352f35" d="M25.787 25.696l0.077 1.568c0.044 0.298 0.011 0.233 0.215 0.324 0.251-0.261 0.221-1.151 0.224-1.483 0.005-0.497 0-1.209-0.161-1.614-0.356 0.178-0.356 0.712-0.355 1.206z"></path>
<path fill="#d28d8e" d="M84.96 12.68c-0.215 0.189-0.417 0.136-0.682 0.273-0.289 0.15-0.216 0.274-0.55 0.473-0.388 0.23-0.723 0.649-0.9 1.079-0.072 0.355-0.021 0.168 0.037 0.226l0.573-0.64c0.283-0.352 0.314-0.285 0.625-0.572 0.52-0.271 0.638-0.407 1.367-0.543l0.815-0.090-0.056-0.238-0.784 0.011-0.444 0.021z"></path>
<path fill="#6e6e71" d="M9.041 12.89c0.089 0.174 0.042 0.047 0.071 0.285 0.166 1.381 0.195 0.939 0.359 1.905 0.020 0.132 0.010 0.143 0.066 0.267 0.103 0.226 0.041 0.122 0.201 0.236l-0.184-0.77c0.21 0.101 0.23 0.213 0.331 0.46 0.104 0.254 0.091 0.339 0.314 0.463l-0.635-1.936-0.064-1.48 0.209 0.040c-0.108-0.234 0.001-0.17-0.256-0.258-0.24 0.468 0.13 1.252-0.046 1.74-0.268-0.438-0.273-1.635-0.222-2.241l0.267 0.066c-0.12-0.195 0.090-0.117-0.26-0.17-0.276 0.305-0.091 0.972-0.151 1.393z"></path>
<path fill="#b0c2d6" d="M72.087 9.757c0.407 0.649 0.81 1.588 1.021 2.347 0.095 0.34 0.088 0.478 0.403 0.634 0.058-0.336-0.023-0.545-0.084-0.877-0.044-0.382-0.766-1.88-1.029-2.225-0.271-0.158-0.171-0.207-0.41-0.326l0.099 0.447z"></path>
<path fill="#dcd9d5" d="M57.672 24.067c0.458-0.176 0.334-0.839 0.334-1.434-0-0.557 0.148-1.269-0.334-1.443-0.143 0.218-0.132 0.354-0.124 0.692 0.014 0.635-0.053 1.914 0.124 2.184z"></path>
<path fill="#5b3462" d="M63.347 6.584c0.275-0.255 0.604-1.251 0.947-1.822 0.177-0.295 0.34-0.539 0.526-0.833 0.207-0.327 0.322-0.683 0.702-0.773 0.049 0.257 0.122 0.339-0.008 0.563 0.009 0.259-0 0.523 0.024 0.78 0.034 0.351 0.117 0.401 0.183 0.693 0.042 0.267 0.108 0.521 0.194 0.769 0.1 0.288 0.138 0.523 0.389 0.639-0.042-0.454-0.617-1.921-0.62-2.744-0.001-0.415 0.005-0.708-0.044-1.106-0.538 0.293-2.075 2.92-2.294 3.834z"></path>
<path fill="#b2b1ae" d="M37.931 20.045c-0.106-0.681-0.65-2.187-0.953-2.625l-0.332-0.167c0.015 0.199 0.802 2.138 0.927 2.676 0.089 0.382 0.076 0.668 0.347 0.864l0.011-0.748z"></path>
<path fill="#b0c2d6" d="M70.929 9.855c-0.185-0.808-1.174-2.023-1.508-2.608-0.138-0.092-0.179-0.147-0.385-0.222 0.065 0.415 0.287 0.571 0.449 0.878 0.265 0.501 1.090 2.062 1.445 2.2l-0.001-0.248z"></path>
<path fill="#b0c2d6" d="M74.702 11.729c0.104 0.444 0.288 0.883 0.352 1.341 0.050 0.358 0.217 1.333 0.179 1.607 0.158 0.096 0.041 0.051 0.278 0.096l-0.037-1.416-0.29-1.197c-0.183-0.168-0.164-0.345-0.292-0.609-0.094-0.193-0.179-0.344-0.331-0.472-0.066 0.315 0.066 0.39 0.14 0.649z"></path>
<path fill="#b2b1ae" d="M9.565 13.799l0.635 1.936c0.147 0.339 0.397 0.721 0.845 0.843-0.040-0.162-0.372-0.726-0.589-1.331-0.236-0.656-0.295-0.896-0.263-1.662-0.168 0.217-0.060 0.403-0.206 0.721-0.302-0.198-0.187-0.3-0.422-0.507z"></path>
<path fill="#dcd9d5" d="M9.565 13.799c0.235 0.207 0.12 0.309 0.422 0.507 0.145-0.319 0.037-0.504 0.206-0.721 0.062-0.711 0.087-0.966-0.483-1.225l-0.209-0.040 0.064 1.48z"></path>
<path fill="#6e6e71" d="M72.992 20.985l0.747-0.015c-0.073 0.374-0.137 0.17-0.257 0.59-0.342 1.2 0.304 1.456 0.448 1.822-0.991 1.252-1.977-0.156-2.164-0.27 0.508 0.928 1.213 1.176 2.054 0.555l0.277-0.217c-0.075-0.651-0.518-0.242-0.575-1.224-0.035-0.607 0.22-1.073 0.627-1.212 0.189 0.088 0.318 0.212 0.572 0.264l-0.001-0.347c-0.246-0.175-0.5-0.152-0.845-0.136l-0.882 0.188z"></path>
<path fill="#352f35" d="M26.555 18.86c0.369-0.117 0.214-0.462 0.692-1.25l0.718-1.148c-0.55-0.093-1.34 1.281-1.396 1.495-0.133 0.509-0.071 0.782-0.014 0.904z"></path>
<path fill="#8b94ac" d="M76.098 18.249l-0.059 0.818 0.216-0.056c0.1-0.423 0.316-0.817 0.396-1.222 0.103-0.517 0.094-1.064 0.090-1.579-0.011-0.017-0.022-0.041-0.029-0.053l-0.058-0.097c-0.008-0.012-0.021-0.032-0.028-0.043-0.064-0.094-0.007-0.034-0.084-0.102-0.129 0.312-0.094 0.87-0.135 1.275-0.023 0.221-0.049 0.372-0.105 0.588-0.040 0.153-0.093 0.365-0.203 0.47z"></path>
<path fill="#6e6e71" d="M2.612 21.166c-0.305-0.405-1.119-0.349-1.292-1.693-0.126-0.981 0.315-1.736 0.927-1.995-0.167 0.368-0.447 0.499-0.566 0.951 0.267-0.077 0.197 0.044 0.183 0.316 0.217-0.215 0.103-0.326 0.42-0.836 0.584-0.939-0.019-0.132 0.234-0.732-0.777 0.199-1.318 0.99-1.332 1.986-0.014 1.002 0.657 1.863 1.425 2.003z"></path>
<path fill="#41539e" d="M76.255 19.011l-0.216 0.056 0.059-0.818c-0.075 0.096-0.106 0.168-0.246 0.24-0.164-0.289-0.061-0.75-0.468-0.829 0.731 1.453-0.216 2.581 0.4 2.789 0.119-0.232 0.032-0.441 0.189-0.756 0.133-0.265 0.203-0.347 0.282-0.682z"></path>
<path fill="#8b94ac" d="M66.454 7.825c0.15 0.341 0.66 0.791 0.917 1.034 0.323 0.304 0.612 0.665 0.97 0.889 0.067-0.093 0.066-0.090 0.082-0.251-0.305-0.297-0.527-0.588-0.845-0.913-0.112-0.115-0.275-0.32-0.398-0.486-0.128-0.173-0.206-0.358-0.413-0.486l0.022 0.398c-0.272-0.041-0.137 0-0.336-0.185z"></path>
<path fill="#dcd9d5" d="M91.537 19.581l-0.036 0.269c0.297 0.201 0.651 0.733 0.964 0.855 0.128-0.286-0.064-0.766-0.115-1.101l-0.007-0.251c-0.156-0.026-0.268-0.032-0.44-0.006-0.297 0.046-0.304 0.052-0.367 0.234z"></path>
<path fill="#68473a" d="M46.858 21.717c0.196-0.278 0.092-0.363 0.17-0.653l0.089-0.211c0.151 0.175 0.099 0.235 0.046 0.57 0.316-0.392 0.055-0.868 0.499-1.253 0.258 0.075 0.173 0.118 0.476 0.203-0.174-0.183-0.135-0.119-0.23-0.359l0.292 0.067-0.004-0.137c-0.349-0.142-0.352-0.292-0.671-0.374-0.449 0.409-0.634 1.401-0.668 2.149z"></path>
<path fill="#68473a" d="M13.706 16.453c-0.143-0.596 0.034-0.596 0.553-0.544-0.003-0.311-0.078-0.158 0.111-0.147-0.121-0.283-0.391-0.506-0.715-0.619 0.168 0.776-0.74 0.603-0.758 1.415 0.577 0.162 0.173-0.195 0.809-0.105z"></path>
<path fill="#dcd9d5" d="M54.587 20.607l-0.067 0.253c0.712 0.585 0.597 0.745 0.934 0.926-0.031-0.675-0.162-1.078-0.249-1.683-0.045-0.087 0.138-0.081-0.121-0.062-0.187 0.218-0.417 0.414-0.497 0.566z"></path>
<path fill="#352f35" d="M82.434 25.499c0.213-0.171 0.153-0.318 0.152-0.755-0.001-0.318 0.003-0.635 0.002-0.953l-0.025-1.61c-0.081-0.263-0.033-0.091-0.107-0.163-0.262 0.533-0.138 2.84-0.022 3.482z"></path>
<path fill="#41539e" d="M68.498 21.421c-0.505 0.271-0.455 1.22 0.015 1.455 0.294-0.125 0.319-0.274 0.329-0.717s-0.001-0.611-0.343-0.737z"></path>
<path fill="#6e6e71" d="M13.753 29.133c0.771-0.053 2.088-0.591 2.165-1.243-0.573 0.184-1.295 0.693-1.665 0.82-0.41 0.14-0.366 0.035-0.499 0.423z"></path>
<path fill="#352f35" d="M4.803 22.097l-0.232 0.136c-0.33 0.115-0.524-0.045-0.821 0.193 0.596 0.18 0.834 0.035 1.342-0.149 0.482-0.037 1.278-0.812 1.201-1.372-0.404 0.391-0.805 1.003-1.49 1.193z"></path>
<path fill="#5b3462" d="M54.693 22.361c0.197-0.183 0.025-0.064 0.221-0.169 0.2 0.516-0.242 0.998 0.238 1.395 0.679-0.317 0.099-1.316 0.098-1.481l0.241 0.013-0.035-0.166c-0.51-0.018-0.633-0.047-0.764 0.408z"></path>
<path fill="#68473a" d="M15.497 13.187c0.192 0.161 0.225 0.384 0.338 0.632 0.126 0.276 0.206 0.439 0.285 0.718 0.098 0.104 0.209 0.281 0.241 0.463 0.209-0.021 0.091 0.057 0.184-0.054-0.055-0.954-0.554-1.382-0.812-2.109l-0.294-0.069 0.057 0.42z"></path>
<path fill="#9a3235" d="M94.475 6.872l1.537-0.083 0.926-0.128c-0.249 0.431-0.64 0.432-0.932 0.861 0.309-0.111 0.758-0.478 1.127-0.705 0.192-0.118 0.234-0.105 0.297-0.303-0.535-0.122-1.912 0.104-2.566 0.22l-0.335 0.107c-0.014 0.007-0.037 0.020-0.055 0.032z"></path>
<path fill="#68473a" d="M93.45 22.799l-0.233 0.041c-0.018-0.002-0.040-0.007-0.057-0.010-0.331-0.053-0.184-0.915-0.014-1.083 0.414 0.077 0.393 0.765 0.304 1.052zM92.591 22.029l0.208-0.030c0.041 0.492 0.007 0.891 0.347 1.090 0.382-0.055 0.5-0.445 0.474-0.861-0.012-0.185-0.037-0.392-0.155-0.525-0.25-0.283-0.228 0.041-0.408-0.337-0.299 0.132-0.409 0.291-0.466 0.663z"></path>
<path fill="#316b41" d="M36.564 23.225c0.304-0.081 0.419-0.18 0.438-0.591 0.017-0.368-0.125-0.601-0.438-0.649-0.393 0.343-0.327 0.927 0 1.24z"></path>
<path fill="#316b41" d="M31.457 23.253c0.305-0.070 0.397-0.272 0.404-0.62 0.008-0.357-0.078-0.593-0.336-0.703-0.351 0.164-0.324 0.707-0.248 1.018 0.059 0.239 0.065 0.206 0.18 0.306z"></path>
<path fill="#9a3235" d="M88.018 22.819c-0.27 0.037-0.302 0.026-0.349-0.246-0.044-0.255-0.029-0.395 0.098-0.557 0.235-0.002 0.264-0.057 0.296 0.271 0.015 0.152-0.026 0.376-0.044 0.532zM88.018 22.819c0.132-0.062 0.162 0.015 0.213-0.266 0.058-0.325-0.135-0.917-0.396-0.926-0.443-0.015-0.62 1.303 0.099 1.45l0.084-0.258z"></path>
<path fill="#8b94ac" d="M45.070 24.665c0.583-0.067 0.549-1.232 0.464-1.401-0.14-0.278 0.037-0.085-0.186-0.173-0.283 0.23-0.087 0.21-0.154 0.758-0.047 0.381-0.19 0.302-0.123 0.816z"></path>
<path fill="#6e6e71" d="M68.114 22.962c-0.585-1.135-0.037-1.302 0.090-1.961-0.314-0.252-1.296-0.287-1.75-0.31-0.635-0.032-0.517 0.077-0.551 0.129 0.866-0.060 1.328 0.089 2.119 0.169-0.045 0.506-0.246 0.364-0.256 1.031-0.008 0.502-0.029 0.819 0.348 0.942z"></path>
<path fill="#6e6e71" d="M5.091 22.277c-0.508 0.184-0.746 0.328-1.342 0.149 0.297-0.238 0.49-0.078 0.821-0.193l0.232-0.136c-0.308 0.002-0.615-0.003-0.922-0.001l-0.645 0.038c-0.268 0.075-0.084 0.027-0.166 0.092 0.329 0.31 1.116 0.429 1.618 0.326 0.254-0.052 0.32-0.109 0.404-0.275z"></path>
<path fill="#5b3462" d="M74.261 21.583l0.053 0.779c-0.075 0.383 0.091-0.287-0.038 0.123-0.005 0.016-0.024 0.067-0.028 0.057s-0.019 0.038-0.031 0.056c-0.304-0.062-0.337-0.158-0.352-0.51-0.019-0.441 0.015-0.494 0.396-0.505zM74.081 22.875c0.674-0.209 0.48-1.458 0.067-1.482-0.538-0.030-0.483 1.139-0.067 1.482z"></path>
<path fill="#ca8358" d="M93.921 20.085c-0.015-0.371-0.119-0.895-0.261-1.23-0.116-0.272-0.053-0.178-0.242-0.255l-0.056 0.426c0.002 0.158-0.007 0.36 0.043 0.501 0.077 0.215 0.33 0.465 0.516 0.558z"></path>
<path fill="#cf3539" d="M93.45 22.799c0.089-0.286 0.111-0.975-0.304-1.052-0.17 0.168-0.316 1.030 0.014 1.083 0.017 0.003 0.039 0.009 0.057 0.010l0.233-0.041z"></path>
<path fill="#6597c8" d="M65.386 5.516c-0.056-0.338-0.204-0.671-0.020-0.97 0.215 0.276-0.031 0.363 0.356 0.647-0.066-0.292-0.149-0.342-0.183-0.693-0.025-0.258-0.016-0.521-0.024-0.78l-0.216-0.065c-0.086 0.316-0.328 1.659 0.087 1.862z"></path>
<path fill="#6e6e71" d="M44.394 27.651c0.184-0.191 0.221-0.357 0.224-0.73 0.003-0.398 0.017-0.65-0.314-0.752-0.072 0.412-0.199 1.185 0.090 1.482z"></path>
<path fill="#dcd9d5" d="M93.018 20.829c-0.022 0.303-0.097 0.264 0.212 0.36 0.078 0.024 0.302 0.059 0.406 0.076l-0.080-0.471c0.056-0.307-0.095-0.415-0.273-0.537-0.166 0.117-0.261 0.359-0.264 0.571z"></path>
<path fill="#b2b1ae" d="M1.682 18.429c-0.111 0.407-0.348 0.683-0.033 1.334 0.069 0.142 0.045 0.091 0.122 0.177 0.084-0.099 0.081-0.026 0.107-0.227l-0.013-0.967c0.013-0.273 0.084-0.393-0.183-0.316z"></path>
<path fill="#8b94ac" d="M86.296 19.87l0.134 0.873-0.25-0.022c0.114 0.222 0.031 0.17 0.317 0.238 0.102-0.575-0.13-1.005-0.008-1.505 0.817-0.278 1.026 0.436 1.436 0.712-0.253-0.501-0.35-0.633-0.917-0.841-0.261-0.065-0.337-0.096-0.603-0.020-0.137 0.217-0.114 0.277-0.109 0.565z"></path>
<path fill="#5b3462" d="M49.764 23.494c0.228-0.14 0.496-1.053-0.127-1.055-0.201 0.249-0.206 0.657-0.082 0.891 0.096 0.182 0.091 0.13 0.209 0.164z"></path>
<path fill="#d28d8e" d="M97.215 19.97l-0.042 0.188 1.018 0.042 0.708-0.013-0.049-0.191c-0.637-0.092-0.994-0.078-1.635-0.027z"></path>
<path fill="#316b41" d="M33.465 10.821c0.095 0.066 0.941 0.663 0.983 0.109 0.029-0.387-0.656-0.462-0.983-0.109z"></path>
<path fill="#0d65a8" d="M74.217 22.599c0.012-0.018 0.026-0.065 0.031-0.056s0.023-0.041 0.028-0.057c0.129-0.41-0.037 0.26 0.038-0.123l-0.053-0.779c-0.381 0.011-0.415 0.064-0.396 0.505 0.015 0.352 0.049 0.448 0.352 0.51z"></path>
<path fill="#352f35" d="M85.905 20.301c0.033 0.245 0.121 0.275 0.276 0.42l0.25 0.022-0.134-0.873c-0.171-0.099-0.052-0.039-0.242-0.090-0.114 0.152-0.209 0.235-0.149 0.521z"></path>
<path fill="#8b94ac" d="M30.933 22.066c0.193-0.099 0.304-0.265 0.436-0.445 0.529-0.003 0.312 0.131 0.694 0.198 0.036-0.321-0.046-0.557-0.155-0.924-0.072-0.246-0.023-0.17-0.196-0.252 0.053 0.374 0.175 0.48 0.152 0.885-0.556-0.074-0.77 0.027-0.932 0.538z"></path>
<path fill="#b0c2d6" d="M13.706 16.453c0.563 0.248 0.503-0.092 0.553-0.544-0.519-0.052-0.696-0.052-0.553 0.544z"></path>
<path fill="#cf3539" d="M88.018 22.819c0.019-0.156 0.059-0.379 0.044-0.532-0.032-0.328-0.061-0.273-0.296-0.271-0.127 0.163-0.142 0.302-0.098 0.557 0.047 0.271 0.079 0.283 0.349 0.246z"></path>
<path fill="#6597c8" d="M72.087 9.757l-0.099-0.447c0.239 0.119 0.139 0.168 0.41 0.326-0.061-0.161-0.401-0.648-0.51-0.77l-0.31-0.167c0.054 0.305 0.256 0.913 0.509 1.058z"></path>
<path fill="#68473a" d="M63.058 26.856c-0.169 0.147-0.201 0.269-0.2 0.61 0.001 0.631 0.171 0.53 0.218 0.56 0.103-0.365 0.115-0.813-0.017-1.169z"></path>
<path fill="#6e6e71" d="M87.538 21.404l0.793 0.025c0.048-0.267 0.018-0.534-0.158-0.704l0.053 0.569-0.538-0.113-0.15 0.223z"></path>
<path fill="#dcd9d5" d="M53.598 10.182l-0.137 0.041c-0.053 0.12 0.011 0.095-0.072 0.163 0.018 0.036 0.006 0.044 0.063 0.142l0.681-0.384 0.036-0.147c-0.31-0.051-0.335 0.026-0.571 0.183z"></path>
<path fill="#dcd9d5" d="M44.795 12.161l-0.025 0.196c0.379 0.034 0.307-0.077 0.455-0.406-0.094-0.085 0.018-0.028-0.186-0.064-0.17 0.093-0.164 0.074-0.244 0.274z"></path>
</svg>
