<?xml version="1.0" encoding="UTF-8"?>
<!DOCTYPE svg PUBLIC "-//W3C//DTD SVG 1.1//EN" "http://www.w3.org/Graphics/SVG/1.1/DTD/svg11.dtd">
<!-- Creator: CorelDRAW -->
<svg xmlns="http://www.w3.org/2000/svg" xml:space="preserve" width="16.9332mm" height="16.9332mm" style="shape-rendering:geometricPrecision; text-rendering:geometricPrecision; image-rendering:optimizeQuality; fill-rule:evenodd; clip-rule:evenodd"
viewBox="0 0 16.9332 16.9332"
 xmlns:xlink="http://www.w3.org/1999/xlink">
 <defs>
  <style type="text/css">
   <![CDATA[
    .fil0 {fill:black}
    .fil7 {fill:#242424}
    .fil8 {fill:#3C3C3C}
    .fil4 {fill:#5C5C5C}
    .fil2 {fill:#7B7B7B}
    .fil6 {fill:#999999}
    .fil5 {fill:#AFAFAF}
    .fil3 {fill:#C5C5C5}
    .fil1 {fill:#F7F7F7}
   ]]>
  </style>
 </defs>
 <g id="Capa_x0020_1">
  <metadata id="CorelCorpID_0Corel-Layer"/>
  <g id="_710533952">
   <path id="_710284248" class="fil0" d="M7.6759 9.4457l-0.025 -0.1571 0.0825 -0.0996 -0.0011 -0.065 0.0973 -0.0823 0.0709 -0.0708 0.0825 -0.1023 0.1829 -0.0508 0.1453 -0.1069 0.3497 -0.0088 0.2199 0.1033 0.0804 -0.0135 0.0823 0.0972 0.1677 0.1321 0.0768 0.1026 0.0869 0.0821 -0.0004 0.0533 0.0719 0.1315 0.0122 0.1322 -0.0125 1.1225c0.0065,0.1399 0.0432,0.1103 -0.0875,0.1103l-0.0907 0.0612c-0.1469,0.154 -1.3758,0.2298 -1.4995,-0.0101 -0.1362,0.0375 -0.113,0.0751 -0.1125,-0.051 -0.1186,0.0005 -0.0833,0.0263 -0.0766,-0.1038 -0.0161,-0.3718 -0.0944,-0.9323 0.0966,-1.2063zm1.1441 -5.6237l1.5696 0.0104c0.1139,0.1228 0.0969,-0.1683 0.1029,0.2296l-0.0039 2.0814 -1.7512 0.0204c-0.0114,-0.3469 -0.1812,-2.2105 0.0826,-2.3418zm-0.6597 0.0504l-0.0192 2.155c-0.1571,0.2041 0.0415,0.1351 -0.3986,0.1473l-1.2929 -0.0089 -0.0256 -2.3438 1.7363 0.0504zm-0.2417 -3.5569l-0.1495 -0.0006 -0.1156 0.0724 -0.1453 0.0044 -0.0996 0.0772 -0.0801 -0.0007 -0.0831 0.0875 -0.0637 -0.0008 -0.0996 0.0874 -0.2429 0.1429 -0.0825 0.1022 -0.2342 0.2343 -0.0922 0.0815 -0.0923 0.0821 -0.0705 0.1629 -0.0873 0.0826 0.0005 0.0602c0.0069,0.1312 0.041,0.103 -0.0821,0.103l0.0004 0.0603c0.0068,0.1291 0.0415,0.1031 -0.0769,0.1031l-0.0047 0.1418c0.0067,0.1291 0.0414,0.1031 -0.0769,0.1031l0.009 0.1624 -0.0805 0.218 -0.2385 0.7664 -0.0988 0.0764 -0.0816 0.0825 0.0056 0.2249 0.0767 0.1026 0.1026 0.0768 0.0801 0.0151c0.1294,0.089 0.1617,-0.1287 0.1512,0.5592l-0.0124 1.7175 -0.2307 0.092 -0.0804 0.069 -0.0921 0.0824 0.1492 0.3037 0.2945 0.0748c0.0133,0.324 0.0478,0.1277 -0.1122,0.2495l-0.0147 0.2289 -0.0721 0.3059 0.005 0.386 -0.0764 0.2877 -0.0102 0.4272 -0.0816 0.287 0.005 0.386c-0.0076,0.1719 0.0381,0.2967 -0.1069,0.3697l0.0202 0.3452 -0.0715 0.3075 -0.0197 0.4083 -0.0721 0.306 0 0.3662 -0.0714 0.3074 -0.0102 0.4273 -0.0816 0.287 0.0049 0.386c-0.0076,0.1718 0.0381,0.2967 -0.1067,0.3697l0.0201 0.3452 -0.0714 0.3075 -0.0061 0.4328c0.0009,0.095 0.066,0.2951 -0.0936,0.3159l0.0079 0.3317 -0.0716 0.3075 -0.0061 0.4327 0.0281 0.6392 0.0446 0.1736c0.1437,0 0.1078,-0.036 0.1078,0.1078l0.1685 0.0628 0.1541 0.0985 6.2698 0.0019 0.1658 -0.0915 0.0791 0.0101 0.0826 -0.0973 0.071 -0.071 0.0972 -0.0825 0.0766 -0.7966 -0.0817 -0.287 0.0079 -0.3317 -0.09 -0.2189 0.0104 -0.2172 -0.0098 -0.3331 -0.0817 -0.287 -0.0005 -0.3029 -0.1034 -0.2193 0.0321 -0.2456 -0.0099 -0.3331 -0.0866 -0.3488 0.0046 -0.2412 -0.1037 -0.205 0.0225 -0.2268 0 -0.3661 -0.0817 -0.3686 0 -0.3662 -0.0816 -0.2869 -0.0005 -0.303 -0.1033 -0.2192 0.032 -0.2457 -0.0099 -0.333 -0.0816 -0.2871 -0.0005 -0.3029 -0.1033 -0.2192 0.032 -0.2456 -0.0098 -0.3332 -0.0867 -0.3488 0.005 -0.386 -0.0817 -0.2869 0.1223 -0.1504 0.1228 -0.0821 0.0712 -0.0698 0.0152 -0.276 0.0007 -0.0531c-0.1302,0 -0.1039,0.0361 -0.1039,-0.0824l-0.1458 0.0174c-0.2813,-0.1324 -0.1651,-0.6869 -0.1648,-0.9958 0.0003,-0.381 0,-0.762 0,-1.1429 0.0056,-0.4113 -0.0082,-0.129 0.0987,-0.2397l0.3046 -0.1677 -0.0044 -0.2482 -0.3002 -0.1663c-0.1566,-0.1621 -0.109,-0.3599 -0.1149,-0.6493l0.027 -0.3454 -0.0967 -0.1452 -0.0045 -0.1291 -0.0673 -0.1426 0.0002 -0.0525c-0.1231,0 -0.089,0.028 -0.0821,-0.1031l0.0005 -0.0602c-0.123,0 -0.0876,0.0283 -0.0872,-0.103l0.001 -0.0443c-0.1164,0 -0.0825,0.0265 -0.0822,-0.0987 -0.1182,0.0015 -0.0824,0.0273 -0.0821,-0.102l-0.1572 -0.2241c-0.1166,0 -0.0875,0.0293 -0.0875,-0.0874l-0.2283 -0.1523 -0.0978 -0.0869 -0.0821 -0.0873 -0.065 0.0009c-0.127,0.007 -0.0988,0.0393 -0.0988,-0.0819l-0.4486 -0.168 -0.1631 -0.0619 -0.1635 -0.0197 -0.3059 -0.0721 -0.3067 -0.0049 -0.3902 0.0967z"/>
   <polygon id="_374308784" class="fil1" points="10.3896,3.8324 8.82,3.822 8.7805,6.1207 10.4121,6.1207 "/>
   <polygon id="_376063840" class="fil1" points="8.1411,6.0274 8.1603,3.8724 6.4871,3.8724 6.4866,6.021 "/>
   <path id="_376240848" class="fil1" d="M8.1659 8.8178l-0.1829 0.0508 -0.0825 0.1023 -0.0709 0.0708 -0.0973 0.0823 0.0011 0.065c0.0075,0.1283 0.04,0.0996 -0.0825,0.0996l0.025 0.1571 -0.0063 1.2063 -0.0137 0.1038 0.1125 0.051 1.4995 0.0101 0.0907 -0.0612 0.0875 -0.1103 0.0125 -1.1225 -0.1027 -0.1322 0.0186 -0.1315 0.0004 -0.0533 -0.0869 -0.0821c-0.1182,0.0006 -0.0835,0.0265 -0.0768,-0.1026l-0.1677 -0.1321 -0.0823 -0.0972 -0.0804 0.0135 -0.2199 -0.1033 -0.3497 0.0088 -0.1453 0.1069z"/>
   <path id="_376235152" class="fil0" d="M3.4961 6.9983l-0.0145 0.2069 0.0705 0.1174 0.1236 0.0819 0.1154 -0.0001 0.1097 -0.082c0.2761,-0.146 0.6062,-0.4599 0.7155,-0.7455l0.0426 -0.2786 -0.0132 -0.0323c-0.1389,0 -0.1129,0.0397 -0.1129,-0.0824l-0.0321 0.0001 -0.1661 -0.01c-0.2565,0.0783 -0.7355,0.5784 -0.8385,0.8246z"/>
   <path id="_376235368" class="fil0" d="M12.3038 3.3914l0.0137 0.2629c0.2852,0.4945 1.0232,-0.4314 1.1202,-0.6721l0.0095 -0.2277 -0.1405 -0.1756c-0.4082,0.0454 -0.8198,0.4732 -1.0029,0.8125z"/>
   <path id="_376235200" class="fil0" d="M3.5063 2.7735l-0.0247 0.1864c0.11,0.2302 0.8672,1.1732 1.1586,0.7107l-0.0187 -0.263c-0.0993,-0.2194 -0.2299,-0.3041 -0.4034,-0.4803 -0.2401,-0.2438 -0.2282,-0.3076 -0.5675,-0.3369l-0.1443 0.1831z"/>
   <path id="_376237344" class="fil0" d="M13.5166 4.8011l-0.0526 0.0856 0 0.2276 0.0483 0.0857c0.1314,0.0059 0.1031,-0.0308 0.1031,0.0921l1.1225 -0.0103 0.1026 -0.0768 0.0868 -0.0821 0 -0.2449 -0.0868 -0.082 -0.1026 -0.0768 -1.1225 -0.005 -0.0988 0.0869z"/>
   <path id="_376237416" class="fil0" d="M2.0134 5.1315l0.0801 0.0812 0.1128 0.0714 1.0884 -0.0067 0.114 -0.0745 0.0777 -0.0935 0.0007 -0.234 -0.1841 -0.1466 -1.088 0.0032c-0.2592,0.1106 -0.2063,0.0962 -0.2016,0.3995z"/>
   <path id="_376237608" class="fil0" d="M12.2977 6.2654l0.0228 0.0687 -0.0109 0.1768 -0.001 0.1107 0.7138 0.7059 0.1236 0.077 0.1223 0 0.103 -0.087 0.0614 -0.09 0.0197 -0.2482 0.001 -0.0443c-0.1277,0 -0.102,0.0337 -0.0905,-0.0884 -0.125,0.0149 -0.0982,0.0431 -0.0839,-0.0811 -0.1231,0.0143 -0.0959,0.0415 -0.0816,-0.0815 -0.1231,0.0141 -0.0959,0.0413 -0.0817,-0.0817 -0.123,0.0143 -0.0959,0.0415 -0.0816,-0.0817 -0.1231,0.0143 -0.0959,0.0415 -0.0817,-0.0816 -0.123,0.0142 -0.0958,0.0414 -0.0816,-0.0816 -0.1231,0.0142 -0.0959,0.0414 -0.0816,-0.0817 -0.1251,0.0145 -0.0924,0.0413 -0.0924,-0.087l-0.0698 0.0025 -0.2174 -0.0176 -0.0194 0.0043c0,0.1186 0.0289,0.0875 -0.0925,0.0875z"/>
   <path id="_376237368" class="fil2" d="M10.3896 3.8324l0.0225 2.2883 -1.6316 0 0.0395 -2.2987c-0.2638,0.1313 -0.094,1.9949 -0.0826,2.3418l1.7512 -0.0204 0.0039 -2.0814c-0.006,-0.3979 0.011,-0.1068 -0.1029,-0.2296z"/>
   <path id="_714014120" class="fil3" d="M8.1411 6.0274l-1.6545 -0.0064 0.0005 -2.1486 1.6732 0 -1.7363 -0.0504 0.0256 2.3438 1.2929 0.0089c0.4401,-0.0122 0.2415,0.0568 0.3986,-0.1473z"/>
   <path id="_714014384" class="fil2" d="M9.2679 10.8169l-1.4995 -0.0101c0.1237,0.2399 1.3526,0.1641 1.4995,0.0101z"/>
   <path id="_712169832" class="fil4" d="M11.1677 6.2004c-0.1874,-0.3983 -0.1037,-1.864 -0.0661,-2.3784 -0.1069,0.1107 -0.0931,-0.1716 -0.0987,0.2397 0,0.3809 0.0003,0.7619 0,1.1429 -0.0003,0.3089 -0.1165,0.8634 0.1648,0.9958z"/>
   <path id="_376240776" class="fil5" d="M5.6232 6.1961l0.2307 -0.092 0.0124 -1.7175c0.0105,-0.6879 -0.0218,-0.4702 -0.1512,-0.5592 0.179,0.5476 0.0544,1.5713 0.0796,2.1932l-0.1715 0.1755z"/>
   <path id="_710536872" class="fil5" d="M7.5793 10.652l0.0903 0 0.0063 -1.2063c-0.191,0.274 -0.1127,0.8345 -0.0966,1.2063z"/>
   <path id="_710536992" class="fil6" d="M3.303 4.7288c-0.1318,-0.1286 -0.9799,-0.1973 -1.088,0.0032l1.088 -0.0032z"/>
   <path id="_710536632" class="fil4" d="M4.8295 16.277l-0.0281 -0.6392c-0.0877,0.1611 -0.2061,0.5342 0.0281,0.6392z"/>
   <path id="_712429416" class="fil4" d="M11.1016 3.2398c-0.0222,-0.3075 0.0342,-0.416 -0.1149,-0.6493 0.0059,0.2894 -0.0417,0.4872 0.1149,0.6493z"/>
   <path id="_712429200" class="fil7" d="M5.7822 6.9755c0.16,-0.1218 0.1255,0.0745 0.1122,-0.2495l-0.2945 -0.0748c0.1798,0.1735 0.1106,0.0742 0.1823,0.3243z"/>
   <path id="_712429008" class="fil4" d="M4.6163 6.5769c0.199,-0.1049 0.1585,-0.1149 0.0426,-0.2786l-0.0426 0.2786z"/>
   <path id="_712429344" class="fil4" d="M12.3175 3.6543l-0.0137 -0.2629c-0.1536,0.1368 -0.1669,0.1354 0.0137,0.2629z"/>
   <path id="_376241672" class="fil4" d="M4.6402 3.6706c0.1492,-0.143 0.1543,-0.1399 -0.0187,-0.263l0.0187 0.263z"/>
   <path id="_376241624" class="fil2" d="M11.4062 3.6543c0.1596,-0.1155 0.1705,-0.1106 -0.0044,-0.2482l0.0044 0.2482z"/>
   <polygon id="_376241816" class="fil6" points="11.4015,6.5945 11.5196,6.5311 11.4167,6.3185 "/>
   <path id="_376241936" class="fil4" d="M4.8712 14.5659c0.1596,-0.0208 0.0945,-0.2209 0.0936,-0.3159l-0.0936 0.3159z"/>
   <path id="_711560840" class="fil2" d="M5.4303 9.6539c0.145,-0.073 0.0993,-0.1978 0.1069,-0.3697l-0.1069 0.3697z"/>
   <path id="_711560984" class="fil2" d="M5.0222 13.1645c0.1448,-0.073 0.0991,-0.1979 0.1067,-0.3697l-0.1067 0.3697z"/>
   <polygon id="_711560624" class="fil5" points="3.4864,5.1094 3.6054,4.9624 3.4871,4.8754 "/>
   <polygon id="_711560192" class="fil2" points="13.4377,2.9822 13.5649,2.8421 13.4472,2.7545 "/>
   <path id="_711560576" class="fil2" d="M8.3088 0.2188c-0.2404,-0.0099 -0.243,-0.028 -0.3902,0.0967l0.3902 -0.0967z"/>
   <polygon id="_711560528" class="fil2" points="13.4327,7.2275 13.5453,7.177 13.4524,6.9793 "/>
   <polygon id="_711560792" class="fil5" points="13.464,5.1143 13.464,4.8867 13.351,4.9462 "/>
   <polygon id="_711560336" class="fil5" points="12.627,6.1912 12.5431,6.0715 12.4096,6.1736 "/>
   <polygon id="_713420232" class="fil6" points="11.3897,9.8852 11.4871,9.8852 11.4217,9.6395 "/>
   <polygon id="_713420280" class="fil6" points="11.2264,8.4973 11.3238,8.4973 11.2584,8.2517 "/>
   <polygon id="_713420088" class="fil6" points="11.7978,13.3957 11.8952,13.3957 11.8299,13.1501 "/>
   <path id="_713419776" class="fil2" d="M4.9819 16.5584c0,-0.1438 0.0359,-0.1078 -0.1078,-0.1078 0.0064,0.1373 -0.0295,0.1013 0.1078,0.1078z"/>
   <polygon id="_713420328" class="fil2" points="11.6343,12.022 11.7314,12.022 11.6568,11.7952 "/>
   <polygon id="_713419968" class="fil8" points="11.3297,8.7165 11.3238,8.4973 11.2264,8.4973 "/>
   <polygon id="_713419680" class="fil8" points="11.9012,13.615 11.8952,13.3957 11.7978,13.3957 "/>
   <polygon id="_713420496" class="fil8" points="11.493,10.1044 11.4871,9.8852 11.3897,9.8852 "/>
   <polygon id="_712598080" class="fil8" points="11.738,12.227 11.7314,12.022 11.6343,12.022 "/>
   <path id="_712597576" class="fil2" d="M12.7892 6.2757c0.0147,-0.1275 0.0406,-0.0938 -0.0924,-0.087 0,0.1283 -0.0327,0.1015 0.0924,0.087z"/>
   <path id="_712597840" class="fil2" d="M13.6154 5.2921c0,-0.1229 0.0283,-0.0862 -0.1031,-0.0921 0,0.1224 -0.0282,0.0858 0.1031,0.0921z"/>
   <path id="_712597744" class="fil6" d="M12.3086 6.6216l0.001 -0.1107 -0.0832 0c-0.0012,0.137 -0.0399,0.1107 0.0822,0.1107z"/>
   <path id="_712597960" class="fil6" d="M13.4534 6.935c0.0009,-0.1295 0.0344,-0.1038 -0.0905,-0.0884 -0.0115,0.1221 -0.0372,0.0884 0.0905,0.0884z"/>
   <path id="_712597984" class="fil2" d="M10.7638 1.6124c-0.0062,-0.1295 0.0307,-0.103 -0.0872,-0.103 -0.0004,0.1313 -0.0358,0.103 0.0872,0.103z"/>
   <path id="_712597936" class="fil4" d="M7.6559 10.7558l0.0137 -0.1038 -0.0903 0c-0.0067,0.1301 -0.042,0.1043 0.0766,0.1038z"/>
   <polygon id="_712598200" class="fil2" points="3.4816,2.9599 3.5063,2.7735 3.3994,2.8444 "/>
   <path id="_712598248" class="fil2" d="M13.3629 6.8466c0.0112,-0.1226 0.0389,-0.0952 -0.0839,-0.0811 -0.0143,0.1242 -0.0411,0.096 0.0839,0.0811z"/>
   <path id="_713466480" class="fil2" d="M10.5954 1.3664c0.0002,-0.1283 0.0356,-0.102 -0.0821,-0.102 -0.0003,0.1293 -0.0361,0.1035 0.0821,0.102z"/>
   <polygon id="_713466696" class="fil4" points="12.0728,14.9741 12.0655,14.7552 11.9828,14.7552 "/>
   <path id="_713466624" class="fil6" d="M11.4174 6.2654c-0.0061,-0.1173 0.0226,-0.0833 -0.1039,-0.0824 0,0.1185 -0.0263,0.0824 0.1039,0.0824z"/>
   <polygon id="_713466840" class="fil6" points="11.9828,14.7552 12.0655,14.7552 11.9932,14.538 "/>
   <path id="_713466288" class="fil2" d="M12.9524 6.439c0.0143,-0.1231 0.0415,-0.0959 -0.0816,-0.0816 -0.0142,0.123 -0.0414,0.0958 0.0816,0.0816z"/>
   <path id="_713466144" class="fil2" d="M13.1974 6.684c0.0142,-0.1232 0.0414,-0.096 -0.0817,-0.0817 -0.0142,0.123 -0.0414,0.0958 0.0817,0.0817z"/>
   <path id="_713467008" class="fil2" d="M12.8708 6.3574c0.0142,-0.1232 0.0414,-0.0959 -0.0816,-0.0817 -0.0143,0.1231 -0.0415,0.0959 0.0816,0.0817z"/>
   <path id="_713466960" class="fil2" d="M13.1157 6.6023c0.0143,-0.1231 0.0415,-0.0959 -0.0816,-0.0817 -0.0143,0.1232 -0.0414,0.096 0.0816,0.0817z"/>
   <path id="_713083072" class="fil2" d="M13.279 6.7655c0.0142,-0.123 0.0415,-0.0958 -0.0816,-0.0815 -0.0143,0.123 -0.0415,0.0958 0.0816,0.0815z"/>
   <path id="_713083672" class="fil2" d="M13.0341 6.5206c0.0142,-0.123 0.0415,-0.0958 -0.0817,-0.0816 -0.0142,0.1231 -0.0414,0.0959 0.0817,0.0816z"/>
   <path id="_713083288" class="fil6" d="M10.6776 1.4651c0.0009,-0.1263 0.0352,-0.1001 -0.0822,-0.0987 -0.0003,0.1252 -0.0342,0.0987 0.0822,0.0987z"/>
   <path id="_713083648" class="fil2" d="M3.4816 7.2052l0.0145 -0.2069c-0.1303,0.1752 -0.1106,0.019 -0.0145,0.2069z"/>
   <path id="_713082976" class="fil4" d="M5.869 2.4827l0.0805 -0.218c-0.0977,0.0615 -0.0751,-0.1275 -0.0805,0.218z"/>
   <polygon id="_713083480" class="fil8" points="12.2264,6.5109 12.3096,6.5109 12.3205,6.3341 "/>
   <path id="_713083792" class="fil2" d="M11.3303 6.6643l-0.1228 0.0821c0.1516,0.0127 0.1228,0.0541 0.1228,-0.0821z"/>
   <polygon id="_713083816" class="fil5" points="9.4586,9.5229 9.4464,9.3907 9.3559,9.3907 "/>
   <polygon id="_713301552" class="fil4" points="9.4464,9.3907 9.3745,9.2592 9.3559,9.3907 "/>
   <path id="_713301384" class="fil2" d="M3.6757 7.4045l-0.1236 -0.0819c0,0.1312 -0.0272,0.0883 0.1236,0.0819z"/>
   <path id="_713301480" class="fil2" d="M13.146 7.4045l-0.1236 -0.077c0,0.1266 -0.0253,0.0833 0.1236,0.077z"/>
   <path id="_713301192" class="fil6" d="M9.4461 10.6454l-0.0875 0.1103c0.1307,0 0.094,0.0296 0.0875,-0.1103z"/>
   <path id="_713299824" class="fil6" d="M2.2063 5.2841l-0.1128 -0.0714c-0.0028,0.1276 -0.0282,0.0893 0.1128,0.0714z"/>
   <path id="_713299944" class="fil6" d="M7.7691 0.3149c-0.1411,-0.0132 -0.1156,-0.0524 -0.1156,0.0724l0.1156 -0.0724z"/>
   <path id="_713300088" class="fil4" d="M3.9008 7.3224l-0.1097 0.082c0.1374,0.0065 0.1097,0.0436 0.1097,-0.082z"/>
   <path id="_713300256" class="fil2" d="M13.3713 7.3175l-0.103 0.087c0.133,0.0068 0.103,0.0405 0.103,-0.087z"/>
   <path id="_713299776" class="fil2" d="M7.7684 10.8068l-0.1125 -0.051c-0.0005,0.1261 -0.0237,0.0885 0.1125,0.051z"/>
   <path id="_713299872" class="fil2" d="M4.6457 6.266l-0.1129 -0.0824c0,0.1221 -0.026,0.0824 0.1129,0.0824z"/>
   <path id="_713300904" class="fil6" d="M7.1817 0.5549c-0.1302,-0.0077 -0.0996,-0.0396 -0.0996,0.0874l0.0996 -0.0874z"/>
   <path id="_713301000" class="fil2" d="M3.4087 5.2029l-0.114 0.0745c0.1373,0.0068 0.1115,0.0454 0.114,-0.0745z"/>
   <path id="_713300808" class="fil2" d="M10.8454 1.7757l-0.0821 -0.1031c-0.0069,0.1311 -0.041,0.1031 0.0821,0.1031z"/>
   <path id="_713300496" class="fil2" d="M6.1807 1.591l-0.0821 0.103c0.1231,0 0.089,0.0282 0.0821,-0.103z"/>
   <path id="_713301144" class="fil6" d="M7.7334 9.189l-0.0825 0.0996c0.1225,0 0.09,0.0287 0.0825,-0.0996z"/>
   <path id="_713300640" class="fil6" d="M4.5007 6.1837c-0.0179,-0.0148 -0.0427,-0.0375 -0.0554,-0.0427 -0.01,-0.0042 -0.0473,0.0177 -0.0553,-0.0034 -0.0096,-0.0251 -0.0375,0.0232 -0.0554,0.0361l0.1661 0.01z"/>
   <path id="_713616960" class="fil4" d="M9.7954 0.6273l-0.0988 -0.0819c0,0.1212 -0.0282,0.0889 0.0988,0.0819z"/>
   <path id="_713616840" class="fil4" d="M13.6154 4.7142c-0.1271,-0.0002 -0.0988,-0.0339 -0.0988,0.0869l0.0988 -0.0869z"/>
   <path id="_713616984" class="fil2" d="M6.099 1.7543l-0.0769 0.1031c0.1184,0 0.0837,0.026 0.0769,-0.1031z"/>
   <path id="_713616912" class="fil2" d="M6.0174 1.9992l-0.0769 0.1031c0.1183,0 0.0836,0.026 0.0769,-0.1031z"/>
   <path id="_713616600" class="fil2" d="M14.8405 5.205l-0.1026 0.0768c0.129,0.0067 0.1031,0.0414 0.1026,-0.0768z"/>
   <path id="_713616792" class="fil2" d="M14.8405 4.796c0.0005,-0.1182 0.0264,-0.0835 -0.1026,-0.0768l0.1026 0.0768z"/>
   <path id="_713616456" class="fil4" d="M10.0403 0.8006c0,-0.1202 0.0283,-0.087 -0.0978,-0.0869l0.0978 0.0869z"/>
   <path id="_713617608" class="fil2" d="M5.5324 3.7355l-0.0767 -0.1026c-0.0067,0.1291 -0.0414,0.1032 0.0767,0.1026z"/>
   <path id="_713617560" class="fil2" d="M5.635 3.8123l-0.1026 -0.0768c-0.0005,0.1182 -0.0264,0.0835 0.1026,0.0768z"/>
   <path id="_713617872" class="fil2" d="M9.288 9.1238l-0.0768 -0.1026c-0.0067,0.1291 -0.0414,0.1032 0.0768,0.1026z"/>
   <path id="_713617704" class="fil6" d="M7.5082 0.3917c-0.1261,-0.0075 -0.0996,-0.0405 -0.0996,0.0772l0.0996 -0.0772z"/>
   <path id="_713617248" class="fil6" d="M5.6305 3.2491c-0.1258,-0.0075 -0.0999,-0.0406 -0.0988,0.0764l0.0988 -0.0764z"/>
   <path id="_713617440" class="fil6" d="M12.3902 6.1779l-0.0925 0.0875c0.1214,0 0.0925,0.0311 0.0925,-0.0875z"/>
   <path id="_713618232" class="fil4" d="M3.4864 5.1094l-0.0777 0.0935c0.117,0.0033 0.0857,0.0295 0.0777,-0.0935z"/>
   <path id="_713618136" class="fil6" d="M10.3561 1.0403l-0.0875 -0.0874c0,0.1167 -0.0291,0.0874 0.0875,0.0874z"/>
   <polygon id="_713618160" class="fil2" points="8.3112,8.7109 8.1659,8.8178 "/>
   <polygon id="_713618040" class="fil5" points="8.8808,8.8054 8.6609,8.7021 "/>
   <polygon id="_712341888" class="fil4" points="9.0435,8.8891 8.9612,8.7919 "/>
   <polygon id="_712341816" class="fil2" points="7.983,8.8686 7.9005,8.9709 "/>
   <polygon id="_712342200" class="fil4" points="7.8296,9.0417 7.7323,9.124 "/>
   <polygon id="_712342152" class="fil2" points="9.3749,9.2059 9.288,9.1238 "/>
   <polygon id="_712342464" class="fil2" points="9.248,0.3774 9.0849,0.3155 "/>
   <polygon id="_712341744" class="fil2" points="11.4118,9.3065 11.3302,9.0194 "/>
   <polygon id="_712343040" class="fil2" points="8.9214,0.2958 8.6155,0.2237 "/>
   <polygon id="_712342632" class="fil2" points="5.5428,6.2651 5.4507,6.3475 "/>
   <polygon id="_712343088" class="fil4" points="14.9273,5.1229 14.8405,5.205 "/>
   <polygon id="_712343016" class="fil2" points="5.379,10.3066 5.4505,9.9991 "/>
   <polygon id="_712342848" class="fil2" points="2.0935,5.2127 2.0134,5.1315 "/>
   <polygon id="_712342992" class="fil2" points="11.5751,10.6943 11.4935,10.4074 "/>
   <polygon id="_712342560" class="fil4" points="14.9273,4.878 14.8405,4.796 "/>
   <polygon id="_712343472" class="fil2" points="6.2675,1.4482 6.1802,1.5308 "/>
   <polygon id="_712343400" class="fil6" points="5.5317,3.3255 5.4501,3.408 "/>
   <polygon id="_712343280" class="fil2" points="5.2872,11.0209 5.3593,10.7149 "/>
   <polygon id="_712343304" class="fil2" points="11.1669,7.1837 11.0852,6.8968 "/>
   <polygon id="_713569872" class="fil2" points="11.6568,11.4291 11.5751,11.0605 "/>
   <polygon id="_713569848" class="fil2" points="5.2158,11.6945 5.2872,11.3871 "/>
   <polygon id="_713569656" class="fil6" points="7.3285,0.4682 7.2454,0.5557 "/>
   <polygon id="_713569512" class="fil2" points="11.0137,2.2451 10.917,2.0999 "/>
   <polygon id="_713569944" class="fil2" points="5.124,12.4088 5.2056,12.1218 "/>
   <polygon id="_713569704" class="fil2" points="11.82,12.817 11.7334,12.4682 "/>
   <polygon id="_713570328" class="fil6" points="10.9125,1.9708 10.8452,1.8282 "/>
   <polygon id="_713570232" class="fil6" points="6.4303,1.2032 6.338,1.2853 "/>
   <polygon id="_713570304" class="fil2" points="6.5225,1.1217 6.4303,1.2032 "/>
   <polygon id="_713570112" class="fil2" points="4.9709,13.8172 5.0423,13.5097 "/>
   <polygon id="_713569152" class="fil2" points="11.9834,14.2049 11.9017,13.9179 "/>
   <polygon id="_713569032" class="fil2" points="5.5322,8.8982 5.6138,8.6112 "/>
   <polygon id="_713568624" class="fil2" points="5.6954,7.5103 5.7675,7.2044 "/>
   <polygon id="_713568648" class="fil2" points="6.8392,0.7852 6.7567,0.8874 "/>
   <polygon id="_713568984" class="fil2" points="4.8075,15.2051 4.8791,14.8976 "/>
   <polygon id="_713568816" class="fil2" points="12.1466,15.5928 12.0649,15.3058 "/>
   <polygon id="_710533160" class="fil6" points="9.9425,0.7137 9.8604,0.6264 "/>
   <polygon id="_710533328" class="fil2" points="12.07,16.3894 11.9728,16.4719 "/>
   <polygon id="_710532776" class="fil2" points="11.2486,7.9185 11.1619,7.5697 "/>
   <polygon id="_710533136" class="fil2" points="5.624,8.184 5.7004,7.8963 "/>
   <polygon id="_710533208" class="fil2" points="11.9018,16.5429 11.8192,16.6402 "/>
   <polygon id="_710533304" class="fil6" points="5.3045,16.7197 5.1504,16.6212 "/>
   <polygon id="_710533016" class="fil2" points="11.7401,16.6301 11.5743,16.7216 "/>
  </g>
 </g>
</svg>
