<svg xmlns="http://www.w3.org/2000/svg" preserveAspectRatio="xMidYMid" width="237" height="134" viewBox="0 0 237 134"><defs><style>.cls-1 { fill: #87caed; fill-rule: evenodd; }</style></defs><path d="M222.252 91.037c-25.838 3.323-52.625-.032-78.248-5.77-23.63-5.294-43.03-18.342-67.362-20.406-16.094-1.365-30.39-.23-43.188 11.242-7.473 6.698-13.866 18.733-14.88 28.593-.56 5.436 1.153 27.852 5.817 29.303-2.64-.335-6.467-4.384-8.784-7.078C-18.168 87.66 6.792 23.077 53.053 6.226c32.33-11.777 69.102-5.12 100.707 5.6 14.33 4.863 28.094 11.492 43.145 13.952 13.33 2.177 23.246 2.97 40.095 1.376-4.66 4.838-11.74 10.742-16.715 14.883-3.55 2.957-7.607 6.527-11.365 9.17-2.773 1.95-3.79 3.294-6.54 5.216 3.286 5.808 6.63 11.615 9.575 17.632 1.51 3.086 3.322 6.15 5.15 9.046.51.807 5.642 9.496 5.147 7.937z" class="cls-1"/></svg>