<!DOCTYPE svg PUBLIC "-//W3C//DTD SVG 1.1//EN" "http://www.w3.org/Graphics/SVG/1.1/DTD/svg11.dtd">
<svg xmlns="http://www.w3.org/2000/svg" viewBox="0 0 563 205">
<path d="M293.667 11.667c-.367.366-.667 5.266-.667 10.889 0 13.916.732 14.828 12.154 15.138 9.399.255 11.169-.376 10.683-3.807-.32-2.269-.746-2.401-8.64-2.678l-8.303-.292.303-4.708.303-4.709 8.25-.29 8.25-.291v-4.392c0-5.403-3.152-7.292-6.098-3.654C307.454 15.896 299 15.995 299 13c0-1.979-3.75-2.917-5.333-1.333m-51 1c-1.387 1.386-.708 10.103.833 10.695 2.452.94 4.5-.411 4.5-2.969 0-2.231.369-2.393 5.441-2.393 6.417 0 7.114.735 5.151 5.434-1.746 4.178-6.814 7.557-11.342 7.562-2.976.004-3.25.269-3.25 3.144v3.14l5.57-.575c10.023-1.034 14.611-6.344 15.986-18.498l.702-6.207h-11.462c-6.305 0-11.763.3-12.129.667M268 15v3h13v-6h-13v3m42.969-1.462c-1.074 1.293-1.027 1.833.271 3.131 1.677 1.677 3.76 1.064 3.76-1.106 0-2.455-2.594-3.758-4.031-2.025m32.698-.871c-.367.366-.667 1.716-.667 3 0 2.209.352 2.333 6.608 2.333h6.609l-.675 2.689c-1.146 4.566-4.37 8.08-9.055 9.869-5.337 2.038-6.673 6.442-1.955 6.442 3.276 0 8.59-2.234 10.343-4.348 1.255-1.514 1.714-1.352 5.253 1.845 2.133 1.927 4.326 3.503 4.875 3.503 2.012 0 .996-5.91-1.435-8.341-2.273-2.273-2.394-2.927-1.855-10.045l.576-7.614h-8.978c-4.938 0-9.278.3-9.644.667M286 17.118C286 24.428 279.182 31 271.599 31c-3.332 0-3.599.222-3.599 3 0 7.166 16.585 2.326 20.69-6.038 3.481-7.094 3.506-12.382.06-12.778-2.279-.263-2.75.069-2.75 1.934M34.522 20.952c-4.616 1.715-6.48 3.08-10.596 7.759-.865.984-2.811 2.689-4.323 3.789-7.596 5.525-3.158 15.991 6.79 16.011 5.453.011 5.689.132 11.587 5.969 6.786 6.715 6.987 7.385 3.572 11.862C36.743 72.648 30 89.987 30 96.05c0 .896-1.237 2.193-2.749 2.881l-2.748 1.253 2.567 1.345c2.212 1.159 2.597 2.079 2.784 6.658.412 10.093 4.684 22.625 10.932 32.067l2.514 3.798-2.4 2.624c-5.533 6.049-11.33 10.803-12.813 10.507-7.983-1.595-13.287 1.626-13.287 8.069 0 4.7 1.498 7.215 5.214 8.754 1.869.774 3.855 2.777 5.022 5.064 1.062 2.082 2.829 4.07 3.927 4.418 1.098.349 1.893 1.129 1.767 1.734-.127.606.895 1.384 2.27 1.73 1.587.4 2.62 1.458 2.827 2.897.18 1.246.855 2.088 1.5 1.871.645-.217 2.547.375 4.227 1.315 1.68.941 4.155 1.6 5.5 1.465l3.741-.372c.914-.09 1.113-1.102.676-3.434-.526-2.801-.104-3.885 2.769-7.115l3.39-3.809 41.851.169c23.019.093 42.612.575 43.54 1.072.929.498 5.372 2.248 9.874 3.891 15.198 5.547 21.052 5.133 27.398-1.935l3.561-3.967H235.133l11.271 5c15.511 6.881 23.141 6.34 26.547-1.882l1.292-3.118h48.669l4.921 2.901c14.127 8.33 21.84 8.61 28.953 1.05l3.714-3.948 24 .017 24 .017 11 6.512c26.823 15.879 47.545 15.228 69.852-2.197l6.852-5.352h16.327c17.265 0 19.469-.56 19.469-4.949 0-3.276-2.356-3.914-15.272-4.141-7-.123-12.728-.626-12.728-1.119 0-2.035 4.612-8.775 6-8.768 3.421.017 4.311 1.573 2.49 4.351-1.4 2.137-1.454 2.626-.293 2.626 1.762 0 17.123-3.986 17.74-4.604.707-.707-11.227-12.396-12.656-12.396-.704 0-1.281 1.125-1.281 2.5 0 2.576-.659 3.008-2.646 1.735-1.91-1.225 5.061-16.818 7.343-16.422 4.79.83 8.686.248 10.503-1.569 1.929-1.928 1.909-2.018-2.178-9.823-2.268-4.332-4.855-8.684-5.748-9.67-1.499-1.657-1.495-2.065.051-5.307 6.561-13.758-5.345-29.832-14.032-18.944-3.642 4.564-4.817 4.414-5.901-.75-1.545-7.362-9.392-6.158-9.392 1.441 0 2.675-.221 2.809-4.64 2.809h-4.64l.592-5.733c1.257-12.178 11.82-27.993 24.49-36.666 4.678-3.202 5.093-3.146 5.413.73.122 1.468.514 2.669.873 2.669 1.053 0 12.412-14.005 12.412-15.303 0-1.077-18.366-4.906-19.411-4.047-.225.186.432 1.268 1.461 2.405 2.093 2.313 1.274 3.373-3.55 4.597-23.03 5.842-41.551 32.561-40.915 59.023l.206 8.564-11.646-.172c-12.138-.18-12.77.026-9.895 3.22 2.03 2.255 2.123 18.957.119 21.371-1.536 1.851-5.341 1.683-6.997-.309-3.037-3.654-2.007-65.072 1.155-68.882 2.015-2.428 5.888-1.82 6.998 1.098 1.789 4.707 1.201 14.878-1.025 17.708-2.978 3.785-2.899 3.815 9.25 3.51l11.25-.283.279-13.247C466.248 52.966 458.971 43 442.228 43c-10.732 0-18.57 5.386-22.749 15.632l-2.392 5.868-.294-11c-.214-8.044-.629-10.973-1.543-10.9-.687.055-13.512.208-28.5.34-18.948.167-26.261.526-24.005 1.177 6.462 1.867 6.572 2.48 7.073 39.23.48 35.254-.981 66.632-3.37 72.403-1.703 4.113-3.628 4.122-9.602.046l-4.695-3.204.555-7.046c1.061-13.452 1.524-15.009 4.566-15.362 3.112-.361 3.13-.483 1.317-8.934l-1.341-6.25h2.376c2.574 0 3.121-1.855 1.134-3.842-.988-.988-.978-1.404.052-2.04 1.034-.64 1.049-1.334.07-3.482-1.051-2.307-.94-3.063.794-5.409 9.736-13.169 4.868-31.292-9.363-34.864-2.39-.6-3.095-2.76-1.27-3.888.572-.354 2.149-2.4 3.505-4.548 1.998-3.164 3.223-4.026 6.46-4.544 5.446-.871 5.016-2.055-1.048-2.889-3.683-.506-5.449-1.313-6.549-2.993-3.458-5.277-9.322-5.474-14.427-.484-1.953 1.91-4.436 3.079-7.524 3.542-5.027.753-4.868 1.798.483 3.161 2.365.602 4.021 1.914 5.294 4.194 1.02 1.825 2.509 3.973 3.309 4.773 2.043 2.042 1.819 3.005-.855 3.676-14.215 3.568-19.099 21.696-9.385 34.835 1.888 2.553 1.905 2.834.322 5.25-1.455 2.22-1.474 2.552-.149 2.552 1.915 0 1.932 1.077.055 3.559-2.079 2.749-1.884 3.441.968 3.441 2.901 0 3.004.768.989 7.409-2.09 6.889-1.952 7.591 1.492 7.591 3.78 0 4.198 1.528 3.812 13.941l-.293 9.441-5.5 2.205c-5.598 2.244-7.528 4.889-4.434 6.077.942.361 5.526-.584 10.185-2.102l8.472-2.759 4.883 2.658c4.809 2.618 5.137 2.654 21.39 2.349 9.078-.171 16.506-.02 16.505.334-.001.355-1.326 2.063-2.945 3.796l-2.945 3.152-26.805-.296-26.806-.296-7-4.314c-6.863-4.229-7.129-4.301-13.585-3.705-10.844 1.001-12.722-2.163-12.855-21.67l-.06-8.688 4.75-.625c9.919-1.305 17.884-6.996 20.088-14.352.632-2.11 1.423-14.63 1.76-27.87.719-28.182.034-32.352-6.305-38.412-5.98-5.719-7.018-5.978-25.999-6.489l-17.554-.472 2.524 2.999c3.434 4.081 4.259 20.787 3.337 67.598-.799 40.578-1.171 43.945-5.221 47.186l-2.88 2.304 16.25.005c8.938.003 16.25.273 16.25.601 0 .327-.931 1.902-2.068 3.5L298.864 169l-27.182-.009-27.182-.01-5.5-3.24-5.5-3.241 13.699-.278 13.699-.278.301-14.473c.166-7.961.064-14.473-.225-14.473-.289.001-1.414 1.914-2.5 4.252-5.033 10.836-18.633 11.929-24.242 1.949-2.019-3.593-2.271-5.548-2.489-19.348L231.5 104.5l4.297.09c6.671.139 9.971 3.287 14.058 13.41.73 1.808 1.017-3.036 1.036-17.5.026-19.96.022-19.991-1.683-15.444C246.103 93.337 241.562 97 234.401 97h-3.698l.6-13.75c.717-16.428 1.664-20.136 6.147-24.072 8.363-7.343 19.478-3.51 23.052 7.949 1.299 4.163 1.367 3.694 1.431-9.77.055-11.644-.196-14.244-1.422-14.714-2.714-1.042-73.021-.215-72.871.857.078.55.439 7.75.803 16 .822 18.637-.441 17.686-3.571-2.69-2.186-14.232-2.367-14.81-4.625-14.81-1.731 0-2.727-.903-3.784-3.433-1.56-3.734-4.875-6.567-7.686-6.567-.977 0-1.777-.45-1.777-1 0-.647 11.81-1 33.429-1C236.178 30 237 29.888 237 25c0-5.044.46-5-51.821-5.003-26.774-.002-70.504-.204-97.179-.449-45.362-.417-48.822-.326-53.478 1.404m283.665 2.298.313 3.25h23l.313-3.25.314-3.25h-24.254l.314 3.25m56.036-1.693c-1.241.869-2.223 2.61-2.223 3.943 0 5.66-2.342 5.5 80.5 5.5s80.5.16 80.5-5.5 2.342-5.5-80.5-5.5c-67.217 0-76.313.181-78.277 1.557M30.018 25.784c-1.211.981-2.274 3.006-2.36 4.499-.118 2.031-.681 2.716-2.234 2.716C22.852 33 19 36.953 19 39.592c0 5.161 5.916 8.129 10.895 5.464 1.444-.773 2.989.401 8.558 6.5 7.696 8.432 8.089 8.576 12.066 4.425l2.892-3.02-7.339-7.389c-7.644-7.695-7.617-7.626-5.551-14.266 1.55-4.98-6.163-9.036-10.503-5.522m123.895-.502c-3.497 2.685-4.179 5.585-2.118 9.019l1.919 3.199-8.574 8.181-8.575 8.181 1.957 2.162c4.482 4.953 5.125 4.78 13.595-3.641 7.671-7.626 7.812-7.852 5.625-9.066-1.921-1.068-.92-1.251 7.008-1.282 6.997-.026 9.25-.358 9.25-1.361 0-2.214-4.46-5.674-7.314-5.674-2.327 0-2.686-.408-2.686-3.045 0-5.59-6.176-9.676-10.087-6.673M43.228 33.608c-1.149 3.744 1.66 7.929 10.696 15.94l2.425 2.149 4.125-2.784c18.445-12.448 47.643-12.645 67.883-.457l5.858 3.527 2.642-1.912c1.454-1.052 4.857-4.179 7.564-6.95l4.921-5.037-1.211-4.042L146.92 30H44.336l-1.108 3.608m166.382 16.05c-2.202 17.609-1.419 106.866.958 109.244.926.926 2.607-1.741 3.485-5.53 2.666-11.502 1.946-86.346-.981-102.018-1.259-6.736-2.74-7.462-3.462-1.696m-56.704 6.095-7.082 6.753 3.934 6.497c4.558 7.529 7.768 15.655 8.738 22.121.885 5.899 2.114 7.97 3.489 5.876 1.916-2.92.845-48-1.141-48-.471 0-4.043 3.039-7.938 6.753m143.653 2.497c-1.254 4.187-1.949 56.75-.75 56.75.603 0 2.277-.538 3.719-1.195 5.024-2.289 5.472-4.714 5.472-29.609V61.292l-2.452-2.646c-3.002-3.239-5.096-3.377-5.989-.396m96.941.025c-6.185 3.468-7.321 6.886-7.551 22.725-.108 7.425-.141 14.12-.073 14.877.094 1.038 1.341 1.261 5.067.902 8.034-.771 9.836-2.559 14.902-14.779.79-1.907.955-.248.696 7-.188 5.225-.416 14.45-.508 20.5-.163 10.75-.197 10.903-1.502 6.724-2.588-8.288-8.757-12.897-16.136-12.054l-2.895.33.07 15.5c.073 16.204.77 19.376 5.078 23.111 7.865 6.819 20.539 2.315 23.406-8.319.55-2.039 1.438-3.978 1.973-4.309.593-.366.973-11.601.972-28.792 0-34.652-1.035-39.118-10.142-43.764-4.909-2.504-8.432-2.412-13.357.348M84.698 63.032c-9.614 2.423-22.012 11.08-25.679 17.932-1.229 2.298-1.187 2.325 2.616 1.694 17.322-2.873 56.801-3.36 65.102-.802 5.193 1.6 4.739-.319-1.613-6.81-10.447-10.677-26.637-15.488-40.426-12.014m250.933 18.016c-2.321 3.929-2.465 10.03-.315 13.312 2.911 4.442 3.684 3.12 3.684-6.301 0-9.854-.758-11.431-3.369-7.011m18.351-1.798c-.814 11.104-.822 17.75-.021 17.75 1.541 0 4.039-5.566 4.039-9 0-3.463-3.799-11.736-4.018-8.75M68 91.472c-15.387 2.267-36 7.075-36 8.397 0 .357 3.87 1.675 8.601 2.928l8.6 2.278 2.24-2.417c6.49-7.003 51.163-10.66 76.372-6.252 8.961 1.567 11.187 2.726 11.187 5.825 0 1.552.492 1.869 2.25 1.449 1.238-.295 5.175-1.079 8.75-1.743 11.348-2.107 10.257-3.477-5.5-6.903-22.994-5-56.238-6.548-76.5-3.562m20 5.702c-15.026.715-26.923 2.7-32.039 5.346-7.498 3.877.581 24.835 13.123 34.041 26.179 19.218 65.202 2.715 66.765-28.234.365-7.234.345-7.303-2.491-8.399-7.186-2.779-23.742-3.784-45.358-2.754M514 101c-1.293.835-1.266.971.191.985.93.008 1.969-.435 2.309-.985.782-1.266-.542-1.266-2.5 0m-354.359 6.958c-.847 9.107-4.687 21.075-9.129 28.452l-3.559 5.911 2.273 2.535c5.842 6.513 10.32 11.136 10.789 11.14.58.005.832-4.268 1.89-31.996.409-10.725.545-20.287.303-21.25-.911-3.615-1.942-1.523-2.567 5.208m-51.57-3.26c-12.536 6.589-9.38 24.233 4.641 25.944 4.833.59 9.983-1.997 13.018-6.54 7.391-11.063-5.849-25.612-17.659-19.404m404.801.308c-4.289 2.266-6.224 5.546-2.616 4.433 4.374-1.349 7.744-3.51 7.744-4.965 0-1.884-.692-1.813-5.128.532M67.898 106.27c-4.558 3.045-7.141 8.217-6.358 12.73 2.905 16.734 27.452 15.497 27.707-1.397.164-10.862-12.216-17.434-21.349-11.333M484 108.574c0 8.306 7.01 23.93 14.397 32.09l4.234 4.675 2.886-6.791 2.887-6.792-2.202-3.826c-2.565-4.457-2.85-10.46-.816-17.218 1.418-4.712 1.244-5.712-.995-5.712-.786 0-1.394 1.631-1.584 4.25-.524 7.25-8.807 6.43-8.807-.872V105h-10v3.574m24.455 4.881c-1.35 1.35-2.455 3.388-2.455 4.529v2.076l2.887-2.135c3.634-2.687 5.805-6.925 3.546-6.925-.838 0-2.628 1.105-3.978 2.455M466 126.318c0 16.035-1.396 21.723-6.659 27.143-12.542 12.914-35.895 8.184-40.237-8.149l-1.809-6.812c-.554-2.092-.946.934-1.295 10l-.5 13-3.941.5-3.942.5 4.442 3 4.441 3 35.353.287c25.19.204 35.745-.038 36.715-.843 2.093-1.737 8.432-11.613 8.432-13.136 0-.744-1.591-2.21-3.537-3.258-9.582-5.16-22.111-22.103-25.414-34.367-1.751-6.504-2.049-5.177-2.049 9.135m48.345-10.775c-.326.849-.322 1.813.007 2.143.713.712 3.648-1.548 3.648-2.808 0-1.51-3.032-.957-3.655.665m2.753 2.852c-2.27 2.417-2.272 2.442-.261 3.518 2.358 1.262 5.475-1.062 4.963-3.702-.484-2.494-2.251-2.425-4.702.184m-9.043 2.262c-2.097 2.666-1.342 6.081 1.558 7.047 1.258.42 3.012-4.632 2.587-7.454-.445-2.953-1.59-2.841-4.145.407m13.424 2.367c-1.366 1.508-1.543 2.312-.698 3.157 1.482 1.482 4.219-.661 4.219-3.303 0-2.434-1.234-2.382-3.521.146m-7.985 2.345c-2.178 3.324-.883 5.196 2.933 4.239 3.061-.769 3.191-1.623.716-4.68l-1.857-2.294-1.792 2.735m9.605 3.026c-1.237 1.316-1.839 2.648-1.337 2.958 1.279.79 5.238-2.165 5.238-3.91 0-2.1-1.341-1.773-3.901.952M181.383 140c.362 6.875.932 14.637 1.266 17.25l.609 4.75h-3.61c-3.016 0-3.713.411-4.237 2.498-1.405 5.597-.948 5.735 17.692 5.353l17.088-.351 2.399-3c3.565-4.456 3.462-4.5-10.531-4.5-7.654 0-13.197-.414-13.567-1.012-.344-.557-1.477-5.845-2.518-11.75-4.472-25.37-5.554-27.548-4.591-9.238M90.2 130.2c-3.067 3.067-.045 9.82 4.379 9.785 4.522-.036 7.355-4.911 4.969-8.552-1.76-2.687-7.18-3.401-9.348-1.233m420.093 2.135c-.551.892 2.762 7.665 3.749 7.665.621 0 3.958-6.563 3.958-7.784 0-1.007-7.079-.897-7.707.119M525 132.5c-1.351 1.628-1.028 1.832 1.418.893.87-.334 1.582-1.009 1.582-1.5 0-1.383-1.62-1.055-3 .607m-17.778 7.25c-.728 2.121-.492 3.651 1.032 6.686l1.976 3.936 1.35-2.436c1.797-3.244 1.753-6.015-.137-8.713-2.053-2.932-3.077-2.804-4.221.527M78.85 147a409 409 0 0 1-.25 3.167c-.204 2.381 2.413 1.899 3.579-.66.989-2.171.947-2.815-.236-3.563-2.194-1.388-2.928-1.137-3.093 1.056m27.9-1.311c-1.815.475-2.186 2.011-1.143 4.729 1.331 3.469 7.083.331 5.948-3.244-.683-2.151-1.403-2.374-4.805-1.485m34.937 2.116c-3.625 3.783-3.674 3.655 4.548 11.931 6.486 6.53 7.106 7.488 6 9.26-1.747 2.796-1.821 2.717 4.436 4.689 4.402 1.388 5.766 1.505 6.092.525.232-.695 2.165-2.153 4.296-3.24 4.251-2.169 6.265-4.963 5.33-7.398-.485-1.264-2.397-1.585-9.746-1.64-7.322-.054-8.695-.283-6.893-1.152 3.042-1.468 3.073-1.396-3.83-9.044-6.987-7.742-6.691-7.628-10.233-3.931m361.569 1.328c-1.146 3.036.171 10.867 1.827 10.867 2.285 0 3.652-8.759 1.882-12.066-1.45-2.709-2.343-2.421-3.709 1.199m-465.88 4.974c-6.291 6.29-7.345 6.98-9.176 6-4.641-2.484-9.049-.618-10.599 4.486-.873 2.873 2.801 7.407 6.003 7.407 2.484 0 2.769.384 3.8 5.123.79 3.633 5.709 5.69 9.173 3.836 3.162-1.693 3.941-4.858 2.368-9.624l-1.244-3.772 5.428-5.031c9.574-8.875 9.563-8.853 5.802-12.448-4.127-3.943-3.302-4.23-11.555 4.023M85 150c0 3.662 4.399 4.469 5.497 1.009.858-2.703-.137-4.009-3.056-4.009-2.046 0-2.441.486-2.441 3m8.688-2.354c-1.274 1.273-.701 5.135.85 5.73 1.699.652 2.819-1.292 2.297-3.985-.367-1.89-2.063-2.83-3.147-1.745m5.499 2.604c.252 2.622.699 3.183 2.313 2.905 2.665-.46 2.698-.519 1.94-3.537-1.039-4.14-4.662-3.602-4.253.632m10.063 3.157c-2.338.537-4.25 1.341-4.25 1.785 0 1.327 6.472.914 8.46-.539 2.571-1.88.812-2.401-4.21-1.246M78 155.893c0 3.156.588 3.586 3.418 2.5 1.669-.64 2.236-4.393.664-4.393-.505 0-1.63-.273-2.5-.607-1.233-.473-1.582.078-1.582 2.5m-4.8-.693c-1.356 1.356-1.656 8.8-.355 8.8 2.232 0 4.324-3.952 3.67-6.933-.73-3.321-1.453-3.729-3.315-1.867m57.977 1.724-3.322 2.843 5.96 3.62c15.73 9.556 20.499 7.763 9.079-3.412-6.979-6.829-7.226-6.893-11.717-3.051m367.467.762c-1.522 3.381-1.56 4.268-.332 7.808l1.385 3.993 1.651-3.194c1.96-3.79 2.053-6.943.297-10.107-1.277-2.302-1.292-2.295-3.001 1.5m-451.003 4.172c-7.382 7.439-7.442 8.142-.687 8.142 4.219 0 5.048-.433 9.523-4.977 2.696-2.737 4.705-5.133 4.463-5.324-.242-.191-1.826-1.302-3.52-2.47l-3.079-2.123-6.7 6.752m64.859-4.938c-3.77 1.67-3.866 1.815-1.663 2.521 2.583.828 9.163-.096 9.163-1.286 0-3.051-2.479-3.459-7.5-1.235M91 159.5c0 3.391.119 3.5 3.833 3.5 4.689 0 4.934-.224 4.381-3.994-.403-2.75-.772-3.006-4.327-3.006-3.776 0-3.887.1-3.887 3.5m10.331-1.398c.353 1.319.648 2.767.655 3.218.02 1.163 4.288.392 4.695-.849.186-.566-1.086-1.87-2.827-2.898l-3.165-1.87.642 2.399m-16.081.572c-1.237.864-2.25 1.965-2.25 2.448 0 1.555 4.765.933 5.393-.704 1.424-3.709.45-4.25-3.143-1.744m-18.461 1.052c-2.089 2.37-1.265 8.51 1.082 8.066 1.1-.209 1.732-1.565 1.947-4.182.386-4.695-.881-6.32-3.029-3.884m51.371.895c-3.936 1.718-2.86 4.379 1.771 4.379 4.429 0 7.096-2.593 4.628-4.5-2.27-1.754-2.096-1.757-6.399.121m276.297 1.783c-3.321 1.446-6.457 4.199-6.457 5.667 0 2.222 6.676.877 9.313-1.876 4.54-4.738 3.249-6.451-2.856-3.791m-176 1.368c-5.936 5.02-4.954 7.994 1.061 3.213 2.067-1.642 4.344-2.985 5.06-2.985.717 0 1.582-.45 1.922-1 1.069-1.729-5.873-1.063-8.043.772m87.189.68c-1.455 1.349-2.646 2.924-2.646 3.5 0 1.97 2.852 1.051 4.927-1.587 3.706-4.71 2.147-6.017-2.281-1.913m4.499 1.206-2.355 3.634 3.289-.658c4.963-.992 7.605-3.661 5.296-5.349-2.676-1.957-3.669-1.578-6.23 2.373m-249.631-1.029c-.896.896-1.378 2.283-1.072 3.082.307.799.558 2.578.558 3.954 0 3.148 2.034 2.642 3.781-.94 1.278-2.621.738-7.725-.818-7.725-.451 0-1.553.733-2.449 1.629m16.736-.99c-5.576 2.354 7.656 11.305 16.75 11.329 5.289.015 13.393-3.502 16.937-7.349 3.753-4.075 1.783-5.17-6.496-3.608-6.058 1.143-17.96.923-23.941-.443-1.1-.251-2.562-.219-3.25.071m48 1.106c-3.752 1.867-4.075 2.858-1.228 3.762 4.923 1.562 10.595-1.566 7.328-4.042-2.251-1.705-2.096-1.712-6.1.28m274.821 1.373c-2.92 3.949-1.268 5.409 3.748 3.313 1.884-.787 3.595-1.431 3.803-1.431 1.082 0 .148-2.454-1.372-3.608-2.618-1.987-3.646-1.7-6.179 1.726m93.245-.527c-2.049 2.913-3.776 13.409-2.205 13.409 1.539 0 5.889-7.462 5.819-9.982-.154-5.502-1.354-6.64-3.614-3.427m-269.179.467c-4.184 2.551-3.432 3.424 2.629 3.051 6.635-.408 9.273-1.876 6.723-3.741-2.612-1.91-5.429-1.702-9.352.69M113 168c-.988 1.846-.76 2 2.965 2 4.424 0 4.942-.591 2.285-2.608-2.475-1.879-4.014-1.701-5.25.608m203.584.328c-3.52 2.835-2.268 3.976 2.821 2.571 2.652-.733 3.625-1.507 3.395-2.701-.489-2.537-2.969-2.485-6.216.13m-261.321.893c-2.355 2.506-2.253 10.265.124 9.493 2.135-.693 3.724-5.508 2.885-8.743l-.803-3.099-2.206 2.349m16.438-1.589c-1.406 1.406-.642 2.368 1.882 2.368 1.622 0 2.429-.465 2.167-1.25-.481-1.446-3.02-2.147-4.049-1.118m60.907.864c-1.04.787-2.39 1.639-3 1.892-2.197.912 1.793 2.482 4.845 1.906 4.651-.878 6.142-2.386 3.946-3.991-2.246-1.643-3.418-1.604-5.791.193m100.69.908c-4.53 1.649-4.915 2.358-2.001 3.685 4.37 1.992 11.097-.704 8.766-3.513-1.483-1.787-2.272-1.807-6.765-.172m173.952.341c-3.9 1.941-4.105 3.002-.743 3.846 3.015.757 9.493-.321 9.493-1.58 0-.902-3.986-4.067-4.973-3.947-.29.035-1.989.792-3.777 1.681m-85.027 1.812c-3.529 2.471-2.744 3.776 1.898 3.154 4.919-.66 7.096-2.33 4.871-3.737-2.162-1.367-4.242-1.188-6.769.583m-184.202 1.121c-3.175 1.382-3.324 1.627-1.714 2.805 1.943 1.42 8.072.538 10.057-1.447 2.777-2.777-2.945-3.708-8.343-1.358m102.153 1.179c-4.899 2.612-2.043 5.02 3.858 3.252 4.055-1.215 5.221-3.414 2.386-4.502-2.162-.83-2.452-.772-6.244 1.25m245.584.893c-2.286 2.403-6.201 11.14-5.366 11.975 1.576 1.576 7.482-6.234 8.659-11.451.901-3.994.125-4.117-3.293-.524m-437.495 1.108c-1.935 2.617-1.96 2.934-.427 5.46 2.752 4.535 5.713 2.124 4.61-3.753-.885-4.721-1.707-5.056-4.183-1.707m281.011-.906c-3.406 1.634-3.78 3.321-.862 3.887 2.077.402 7.588-1.722 7.588-2.925 0-1.944-3.604-2.46-6.726-.962M416.5 174c-.34.55-1.716 1-3.059 1-2.74 0-3.356 2.435-.859 3.393 2.678 1.028 6.944.674 8.871-.735 1.753-1.282 1.729-1.417-.531-3-2.739-1.918-3.567-2.042-4.422-.658m-270.25 1.745c-3.93 1.956-4.104 3.003-.644 3.871 2.71.68 9.394-1.805 9.394-3.493 0-2.39-4.33-2.577-8.75-.378m100.333 1.891-2.917 1.603 2.417 1.825c2.311 1.745 2.549 1.748 5.417.075 6.06-3.537 1.307-6.923-4.917-3.503m-92.433 1.542-3.35 2.145 2.35 1.303c3.334 1.849 4.374 1.696 7.544-1.108 4.839-4.281-.519-6.197-6.544-2.34m181.1-.433c-3.881 1.932-4.068 2.925-.829 4.401 2.006.914 2.948.727 5.5-1.09 2.995-2.132 4.02-4.056 2.161-4.056-.505 0-1.518-.197-2.25-.437-.733-.24-2.794.291-4.582 1.182m-80.288 2.082c-3.016 2.36-3.102 2.598-1.397 3.844 2.641 1.931 4.796 1.639 7.261-.985 4.532-4.825-.326-7.193-5.864-2.859m165.059-1.149c-6.476 2.819 1.738 5.896 8.664 3.244l2.815-1.077-2.361-1.923c-2.769-2.254-4.4-2.298-9.118-.244m13.979-.801c0 2.511 10.622 5.528 19.5 5.539 8.99.012 20.5-3.07 20.5-5.488 0-.54-8.365-.928-20-.928-11 0-20 .395-20 .877m-270.93 2.549c-2.604 2.772-2.04 4.574 1.432 4.574 2.37 0 5.498-3.256 5.498-5.723 0-2.163-4.524-1.413-6.93 1.149m7.914.824-1.987 3.25 2.11.334c2.009.318 7.893-4.171 7.893-6.021 0-2.493-6.144-.625-8.016 2.437m92.766.197c-3.145 3.941-3.319 4.553-1.297 4.553 2.802 0 6.232-2.197 7.938-5.085l1.722-2.915h-2.806c-2.001 0-3.597.99-5.557 3.447m78.937-.642c-3.313 3.458-3.327 3.84-.155 4.446 1.866.357 3.049-.174 4.5-2.018 4.193-5.332.444-7.427-4.345-2.428m8.558-1.555c-1.488 1.86-2.509 5.75-1.509 5.75.48 0 2.398-1.575 4.264-3.5l3.392-3.5h-2.573c-1.416 0-3.024.563-3.574 1.25m-308.787 1.5c-1.903 4.408.615 9.25 4.813 9.25 1.602 0 1.785-.492 1.21-3.25-1.317-6.319-4.511-9.5-6.023-6M476 181.657c-2.702 1.733-9.419 10.257-8.672 11.004.843.844 7.152-2.381 9.355-4.782 5.184-5.648 4.739-9.7-.683-6.222m-46.244 2.189c-4.214 1.861-4.341 3.213-.434 4.594 2.728.964 9.678-1.379 9.678-3.263 0-.707-4.628-3.398-5.297-3.081-.112.053-1.888.84-3.947 1.75M38 186c0 1.1.633 2 1.406 2 .914 0 1.224-.7.884-2-.288-1.1-.921-2-1.407-2-.485 0-.883.9-.883 2m428-.889c-2.599 1.024-10.379 8.844-9.586 9.636 1.009 1.009 7.416-1.97 9.721-4.52 5.842-6.463 5.816-7.459-.135-5.116m-27.77 2.644c-3.709 1.845-3.722 3.337-.039 4.639 4.708 1.664 15.704-3.744 11.203-5.51-3.105-1.219-7.681-.862-11.164.871m18.166-.801c-2.702.475-10.396 6.037-10.396 7.515 0 2.229 6.587.056 10.283-3.392 4.655-4.342 4.671-4.924.113-4.123" fill-rule="evenodd"/>
</svg>