<!DOCTYPE svg PUBLIC "-//W3C//DTD SVG 1.1//EN" "http://www.w3.org/Graphics/SVG/1.1/DTD/svg11.dtd">
<svg xmlns="http://www.w3.org/2000/svg" viewBox="0 0 564 564">
<path d="M293.667 186.667c-.367.366-.667 5.266-.667 10.889 0 13.954.745 14.877 12.21 15.128 9.454.206 11.11-.385 10.627-3.797-.316-2.239-.833-2.418-8.337-2.887l-8-.5v-9l8.25-.29 8.25-.291v-4.392c0-5.403-3.152-7.292-6.098-3.654-2.448 3.023-10.902 3.122-10.902.127 0-1.979-3.75-2.917-5.333-1.333m-51 1c-1.387 1.386-.708 10.103.833 10.695 2.452.94 4.5-.411 4.5-2.969 0-2.231.369-2.393 5.441-2.393 6.417 0 7.114.735 5.151 5.434-1.746 4.178-6.814 7.557-11.342 7.562-2.976.004-3.25.269-3.25 3.144v3.14l5.57-.575c10.023-1.034 14.611-6.344 15.986-18.498l.702-6.207h-11.462c-6.305 0-11.763.3-12.129.667M268 190v3h13v-6h-13v3m42.969-1.462c-1.074 1.293-1.027 1.833.271 3.131 1.677 1.677 3.76 1.064 3.76-1.106 0-2.455-2.594-3.758-4.031-2.025m32.698-.871c-.367.366-.667 1.716-.667 3 0 2.209.352 2.333 6.608 2.333h6.609l-.675 2.689c-1.146 4.566-4.37 8.08-9.055 9.869-3.567 1.363-4.487 2.198-4.487 4.078 0 3.693 6.908 2.747 13.156-1.802 1.378-1.003 2.268-.669 5.285 1.98 4.532 3.979 5.559 3.997 5.559.096 0-1.995-.795-3.733-2.244-4.907-2.044-1.654-2.219-2.543-1.953-9.91l.292-8.093h-8.881c-4.884 0-9.181.3-9.547.667m-58.18 6.412c-1.111 6.573-5.831 11.056-12.299 11.677-4.931.474-5.188.641-5.188 3.371 0 7.049 16.638 2.091 20.69-6.165 3.434-6.999 3.5-12.382.158-12.769-2.407-.279-2.719.082-3.361 3.886m-250.965 1.874c-4.616 1.714-6.48 3.078-10.596 7.758-.865.984-2.811 2.689-4.323 3.789-7.596 5.525-3.158 15.991 6.79 16.011 5.453.011 5.689.132 11.587 5.969 6.77 6.699 6.978 7.378 3.63 11.837C36.372 248.294 30 264.67 30 271.153c0 .839-1.237 2.09-2.749 2.778l-2.748 1.253 2.567 1.345c2.212 1.159 2.597 2.079 2.784 6.658.413 10.111 4.684 22.624 10.959 32.106l2.539 3.838-6.983 6.983c-6.624 6.623-7.129 6.928-9.808 5.909-10.57-4.018-16.683 11.813-6.556 16.979 2.367 1.208 3.997 2.87 4.403 4.489.355 1.414 2.016 3.404 3.69 4.423 1.675 1.018 2.986 2.241 2.914 2.719-.071.477.909 1.11 2.179 1.408 1.422.333 2.435 1.412 2.636 2.808.18 1.246.855 2.088 1.5 1.871.645-.217 2.523.319 4.173 1.192 1.65.874 3.9 1.542 5 1.486 5.695-.29 5.621-.235 4.971-3.704-.527-2.803-.104-3.886 2.786-7.133l3.406-3.828 41.839.196c31.984.149 42.446.501 44.418 1.494 5.499 2.767 21.078 7.577 24.54 7.577 4.637 0 8.217-1.88 12.205-6.407l3.164-3.593h51.544l9.914 4.634c15.316 7.16 22.417 6.963 27.29-.755l2.403-3.807 23.219-.286c18.118-.223 23.777.013 25.76 1.076 17.407 9.33 21.028 10.291 27.318 7.246 2.388-1.156 5.342-3.454 6.563-5.105l2.22-3.003 24.22.019 24.22.018 11 6.512c26.753 15.838 47.557 15.218 69.702-2.079l6.702-5.235 16.064-.155c18.043-.174 18.803-.32 19.67-3.775 1.113-4.431-.95-5.187-14.888-5.455-7.012-.135-12.75-.63-12.75-1.099 0-2.004 4.627-8.735 6-8.728 3.421.017 4.311 1.573 2.49 4.351-1.4 2.137-1.454 2.626-.293 2.626 1.762 0 17.123-3.986 17.74-4.604.707-.707-11.227-12.396-12.656-12.396-.704 0-1.281 1.125-1.281 2.5 0 2.576-.659 3.008-2.646 1.735-1.928-1.237 5.067-16.831 7.343-16.369 4.216.856 8.736.145 10.539-1.657 1.881-1.881 1.846-2.034-2.214-9.788-2.268-4.332-4.855-8.684-5.748-9.67-1.499-1.657-1.495-2.065.051-5.307 6.561-13.758-5.345-29.832-14.032-18.944-3.642 4.564-4.817 4.414-5.901-.75-1.545-7.362-9.392-6.158-9.392 1.441 0 2.675-.221 2.809-4.64 2.809h-4.64l.574-5.56c1.171-11.35 9.161-24.419 20.515-33.557 8.341-6.713 9.895-7.18 9.598-2.883-.114 1.65.139 3 .562 3 1.136 0 12.531-13.917 12.531-15.303 0-1.077-18.366-4.906-19.411-4.047-.225.186.337 1.163 1.25 2.173 2.31 2.552 2.158 2.861-2.089 4.236-25.738 8.333-42.76 32.221-42.167 59.177l.198 9.003-11.641-.173c-12.133-.179-12.765.027-9.89 3.221 2.03 2.255 2.123 18.957.119 21.371-1.536 1.851-5.341 1.683-6.997-.309-3.037-3.654-2.007-65.072 1.155-68.882 1.731-2.086 5.715-1.818 6.938.467 1.908 3.566 1.281 15.484-.965 18.339-2.978 3.785-2.899 3.815 9.25 3.51l11.25-.283.279-13.247c.469-22.287-6.808-32.253-23.551-32.253-10.732 0-18.57 5.386-22.749 15.632l-2.392 5.868-.294-11c-.214-8.044-.629-10.973-1.543-10.9-.687.055-13.288.185-28 .289-23.708.168-26.389.346-23.579 1.569 5.472 2.38 5.609 3.238 6.128 38.317.514 34.679-.982 67.285-3.346 72.975-1.709 4.113-3.634 4.122-9.607.046l-4.695-3.204.555-7.046c1.061-13.452 1.524-15.009 4.566-15.362 3.112-.361 3.13-.483 1.317-8.934l-1.341-6.25h2.376c2.574 0 3.121-1.855 1.134-3.842-.988-.988-.978-1.404.052-2.04 1.034-.64 1.049-1.334.07-3.482-1.051-2.307-.94-3.063.794-5.409 9.736-13.169 4.868-31.292-9.363-34.864-2.876-.722-2.923-2.083-.172-5.011 1.177-1.252 2.646-3.306 3.265-4.565.754-1.531 2.526-2.598 5.361-3.229 5.603-1.246 5.347-2.217-.807-3.064-3.683-.506-5.449-1.313-6.549-2.993-3.526-5.38-10.545-5.381-15.223 0-1.322 1.52-3.668 2.599-6.617 3.041-5.677.851-5.822 1.904-.423 3.066 2.45.527 4.597 1.71 5.247 2.892.606 1.1 2.161 3.492 3.455 5.316 1.295 1.823 2.196 3.398 2.003 3.5-.193.101-2.601 1.353-5.351 2.781-11.914 6.189-15.11 19.6-7.434 31.189 3.011 4.546 3.075 4.85 1.516 7.23-1.495 2.28-1.331 2.918.668 2.602 1.158-.182.836 1.184-.782 3.323-2.073 2.741-1.836 3.559 1.032 3.559 2.901 0 3.004.768.989 7.409-2.09 6.889-1.952 7.591 1.492 7.591 3.78 0 4.198 1.528 3.812 13.941l-.293 9.441-5.5 2.205c-5.598 2.244-7.528 4.889-4.434 6.077.942.361 5.526-.584 10.185-2.102l8.472-2.759 4.878 2.656c4.802 2.613 5.138 2.65 21.39 2.348 9.081-.169 16.511-.017 16.51.337 0 .355-1.326 2.063-2.945 3.796l-2.945 3.152-26.805-.296-26.806-.296-7-4.314c-6.863-4.229-7.129-4.301-13.585-3.705-10.844 1.001-12.722-2.163-12.855-21.67l-.06-8.688 4.75-.625c9.902-1.303 17.884-6.996 20.079-14.321 2.009-6.707 2.636-51.066.81-57.348-1.583-5.443-6.38-11.173-11.608-13.863-2.502-1.288-36.031-2.653-36.031-1.467 0 .32 1.013 1.952 2.25 3.626l2.25 3.043-.019 45.666c-.022 54.535-.449 60.4-4.69 64.362L270.788 337h16.106c8.858 0 16.106.268 16.106.596 0 .327-.931 1.902-2.068 3.5L298.864 344l-27.182-.009-27.182-.01-5.5-3.24-5.5-3.241 13.699-.278 13.699-.278.301-14.473c.166-7.961.064-14.473-.225-14.473-.289.001-1.414 1.915-2.5 4.252-5.067 10.909-18.676 11.853-24.387 1.691-1.844-3.281-2.131-5.619-2.344-19.09L231.5 279.5l4.297.09c6.671.139 9.971 3.287 14.058 13.41.729 1.805 1.009-3.06 1.008-17.5-.002-18.62-.099-19.69-1.402-15.5-2.42 7.779-7.759 12-15.179 12h-3.588l.588-14.25c.65-15.767 1.814-19.97 6.657-24.046 8.11-6.823 18.215-3.135 22.233 8.114l1.673 4.682.077-14.143c.064-11.65-.184-14.244-1.411-14.714-2.714-1.042-73.021-.215-72.878.857.074.55.429 7.75.791 16 .813 18.573-.419 17.637-3.516-2.672-2.182-14.305-2.345-14.828-4.636-14.828-1.759 0-2.746-.889-3.809-3.433-1.56-3.734-4.875-6.567-7.686-6.567-.977 0-1.777-.45-1.777-1 0-.647 11.81-1 33.429-1 35.749 0 36.571-.112 36.571-5 0-5.024.246-4.999-49.321-5.007-25.399-.004-69.129-.206-97.179-.448-47.768-.412-51.315-.322-55.978 1.408m283.665 2.297.313 3.25h23l.313-3.25.314-3.25h-24.254l.314 3.25m56.036-1.693c-1.241.869-2.223 2.61-2.223 3.943 0 5.66-2.342 5.5 80.5 5.5s80.5.16 80.5-5.5 2.342-5.5-80.5-5.5c-67.217 0-76.313.181-78.277 1.557m-344.205 4.227c-1.211.981-2.274 3.006-2.36 4.499-.118 2.031-.681 2.716-2.234 2.716C22.852 208 19 211.953 19 214.592c0 5.141 5.914 8.13 10.854 5.486 1.391-.745 3.038.507 8.552 6.5 7.72 8.39 8.143 8.546 12.052 4.465l2.833-2.956-7.271-7.498c-6.503-6.708-7.196-7.794-6.565-10.294C41.104 203.762 38.804 199 34 199c-.978 0-2.77.803-3.982 1.784m124.346-.614c-3.702 1.792-4.727 5.545-2.509 9.189l1.912 3.141-8.578 8.206-8.579 8.206 1.934 2.137c4.457 4.925 5.11 4.748 13.573-3.666 7.671-7.626 7.812-7.852 5.625-9.066-1.921-1.068-.92-1.251 7.008-1.282 6.997-.026 9.25-.358 9.25-1.361 0-2.214-4.46-5.674-7.314-5.674-2.327 0-2.686-.408-2.686-3.045 0-5.502-5.006-9.027-9.636-6.785m-111.018 8.482c-1.189 3.799 1.515 7.862 10.578 15.896l2.425 2.149 4.238-2.861c18.459-12.457 47.498-12.587 67.898-.303l5.73 3.45 2.642-1.912c1.454-1.052 4.857-4.179 7.564-6.95l4.921-5.037-1.211-4.042L146.92 205H44.489l-1.143 3.652m166.264 16.006c-2.202 17.609-1.419 106.866.958 109.244.926.926 2.607-1.741 3.485-5.53 2.666-11.502 1.946-86.346-.981-102.018-1.259-6.736-2.74-7.462-3.462-1.696m-56.704 6.095-7.082 6.753 3.934 6.497c4.758 7.858 7.917 16.066 8.828 22.935.713 5.371 2.048 7.25 3.51 4.94 1.831-2.89.654-47.878-1.252-47.878-.471 0-4.043 3.039-7.938 6.753m143.688 2.997c-1.248 5.364-1.958 56.25-.786 56.25.604 0 2.278-.538 3.72-1.195 5.028-2.291 5.475-4.713 5.44-29.505-.033-23.892-.181-24.755-4.652-27.137-2.949-1.57-2.992-1.552-3.722 1.587m96.906-.475c-6.154 3.45-7.337 6.935-7.541 22.225-.249 18.57-.78 16.833 4.984 16.279 2.719-.261 6.11-1.239 7.536-2.173 2.315-1.517 3.357-3.288 7.419-12.606.841-1.93.986.009.633 8.5-.252 6.05-.504 15.275-.561 20.5-.103 9.453-.11 9.479-1.439 5.224-2.588-8.288-8.757-12.897-16.136-12.054l-2.895.33.091 15.5c.096 16.184.805 19.425 5.057 23.111 7.865 6.819 20.539 2.315 23.406-8.319.55-2.039 1.438-3.978 1.973-4.309.593-.366.973-11.601.972-28.792 0-34.652-1.035-39.118-10.142-43.764-4.909-2.504-8.432-2.412-13.357.348m-308.802 4.757c-9.584 2.415-22.083 11.213-25.801 18.161-1.077 2.012-.956 2.078 2.738 1.465 17.322-2.873 56.801-3.36 65.102-.802 4.891 1.507 4.692.024-.831-6.172-9.62-10.793-27.183-16.186-41.208-12.652m250.933 18.016c-2.321 3.929-2.465 10.03-.315 13.312 2.911 4.442 3.684 3.12 3.684-6.301 0-9.854-.758-11.431-3.369-7.011m18.369.805c0 1.57-.289 5.62-.642 9-.719 6.87.546 8.167 3.116 3.197 2.325-4.497.923-15.05-2-15.05-.261 0-.474 1.284-.474 2.853m-283.5 9.205c-17.92 2.802-38.5 7.536-38.5 8.858 0 .331 3.87 1.628 8.601 2.881l8.6 2.278 2.24-2.417c6.511-7.025 51.091-10.675 76.372-6.252 8.882 1.553 11.187 2.731 11.187 5.716 0 1.033.177 1.878.393 1.878 1.57 0 16.394-3.376 17.517-3.989 2.757-1.505-3.295-3.407-22.91-7.2-11.955-2.312-52.726-3.437-63.5-1.753m17.5 6.097c-15.046.736-26.937 2.727-32.039 5.365-7.498 3.877.581 24.835 13.123 34.041 26.186 19.223 65.123 2.719 66.753-28.295.377-7.173.356-7.242-2.479-8.333-7.349-2.829-23.759-3.834-45.358-2.778M514.5 276c-.34.55-.168 1 .382 1s1.278-.45 1.618-1c.34-.55.168-1-.382-1s-1.278.45-1.618 1m-354.859 6.958c-.846 9.093-4.685 21.072-9.108 28.418l-3.539 5.875 3.691 4.125c6.429 7.184 8.794 9.624 9.326 9.624.584 0 .835-4.251 1.894-32 .409-10.725.545-20.288.303-21.25-.911-3.615-1.942-1.523-2.567 5.208m-51.621-3.26c-7.302 3.781-10.064 12.437-6.064 18.998 5.596 9.178 17.775 9.386 23.774.406 7.476-11.191-5.698-25.625-17.71-19.404m404.852.308c-4.295 2.269-6.211 5.531-2.616 4.451 4.597-1.38 7.229-3.023 7.555-4.715.421-2.183-.391-2.139-4.939.264M68 281.174c-10.911 7.333-7.235 23.328 5.646 24.566 7.643.734 12.833-2.553 15.211-9.637 3.879-11.549-10.535-21.866-20.857-14.929m416 2.144c0 8.264 7.081 24.264 14.234 32.165l4.397 4.856 2.886-6.791 2.887-6.792-2.202-3.826c-2.565-4.457-2.85-10.46-.816-17.218 1.418-4.712 1.244-5.712-.995-5.712-.786 0-1.394 1.631-1.584 4.25-.524 7.25-8.807 6.43-8.807-.872V280h-5c-4.996 0-5 .003-5 3.318m24.455 5.137c-1.35 1.35-2.455 3.388-2.455 4.529v2.076l2.887-2.135c3.634-2.687 5.805-6.925 3.546-6.925-.838 0-2.628 1.105-3.978 2.455M466 301.318c0 16.102-1.465 22.08-6.69 27.305-12.716 12.716-35.89 7.926-40.206-8.311l-1.809-6.812c-.554-2.092-.946.934-1.295 10l-.5 13-4 .518-4 .517 5.5 3.23 5.5 3.231 34.957-.248 34.958-.248 4.258-6c5.294-7.46 5.294-7.738-.002-11.382-10.669-7.341-19.949-19.542-23.674-31.128-1.236-3.844-2.416-6.99-2.622-6.99-.206 0-.375 5.993-.375 13.318m48.345-10.775c-.326.849-.322 1.813.007 2.143.713.712 3.648-1.548 3.648-2.808 0-1.51-3.032-.957-3.655.665m2.783 2.921c-2.36 2.324-2.362 2.34-.319 3.434 2.386 1.277 5.507-1.028 4.991-3.687-.464-2.391-2.074-2.304-4.672.253m-8.473 1.365c-2.07 2.287-2.129 5.533-.131 7.191 1.71 1.419 1.695 1.429 3.063-2.02 2.056-5.186.14-8.566-2.932-5.171m12.824 3.195c-1.366 1.508-1.543 2.312-.698 3.157 1.482 1.482 4.219-.661 4.219-3.303 0-2.434-1.234-2.382-3.521.146m-7.985 2.345c-2.178 3.324-.883 5.196 2.933 4.239 3.061-.769 3.191-1.623.716-4.68l-1.857-2.294-1.792 2.735m9.605 3.026c-1.237 1.316-1.839 2.648-1.337 2.958 1.279.79 5.238-2.165 5.238-3.91 0-2.1-1.341-1.773-3.901.952m-341.687 11.564c.376 7.403.948 15.39 1.272 17.75l.588 4.291h-3.617c-3.023 0-3.72.41-4.244 2.498-1.413 5.63-.953 5.768 17.718 5.34l17.104-.392 2.378-2.973c3.542-4.427 3.432-4.473-10.636-4.473-14.79 0-13.985.496-15.42-9.5-1.225-8.532-4.569-24.85-5.214-25.44-.337-.308-.306 5.497.071 12.899M90.2 305.2c-3.067 3.067-.045 9.82 4.379 9.785 4.522-.036 7.355-4.911 4.969-8.552-1.76-2.687-7.18-3.401-9.348-1.233m420.093 2.135c-.551.892 2.762 7.665 3.749 7.665.621 0 3.958-6.563 3.958-7.784 0-1.007-7.079-.897-7.707.119M525 307.5c-1.351 1.628-1.028 1.832 1.418.893.87-.334 1.582-1.009 1.582-1.5 0-1.383-1.62-1.055-3 .607m-17.778 7.25c-.728 2.121-.492 3.651 1.032 6.686l1.976 3.936 1.35-2.436c1.797-3.244 1.753-6.015-.137-8.713-2.053-2.932-3.077-2.804-4.221.527M79 321.418c0 .78-.251 2.072-.557 2.871-.309.805.15 1.724 1.03 2.062 2.269.871 4.539-4.098 2.47-5.407-2.055-1.3-2.943-1.157-2.943.474m27.75-.729c-1.815.475-2.186 2.011-1.143 4.729 1.331 3.469 7.083.331 5.948-3.244-.683-2.151-1.403-2.374-4.805-1.485m34.937 2.116c-3.625 3.783-3.674 3.655 4.548 11.931 6.486 6.53 7.106 7.488 6 9.26-1.747 2.796-1.821 2.717 4.436 4.689 4.402 1.388 5.766 1.505 6.092.525.232-.695 2.165-2.153 4.296-3.24 4.251-2.169 6.265-4.963 5.33-7.398-.485-1.264-2.397-1.585-9.746-1.64-7.322-.054-8.695-.283-6.893-1.152 3.042-1.468 3.073-1.396-3.83-9.044-6.987-7.742-6.691-7.628-10.233-3.931m361.569 1.328c-1.146 3.036.171 10.867 1.827 10.867 2.285 0 3.652-8.759 1.882-12.066-1.45-2.709-2.343-2.421-3.709 1.199m-465.88 4.974c-6.291 6.29-7.345 6.98-9.176 6-4.641-2.484-9.049-.618-10.599 4.486-.858 2.822 2.671 7.188 6.135 7.593 2.148.25 2.829.983 3.364 3.62 1.193 5.883 6.604 7.982 10.711 4.155 2.528-2.355 2.773-5.319.758-9.18-1.385-2.656-1.289-2.836 4.178-7.833 9.685-8.851 9.903-9.309 6.142-12.903-4.078-3.898-3.267-4.185-11.513 4.062M85 325c0 3.662 4.399 4.469 5.497 1.009.858-2.703-.137-4.009-3.056-4.009-2.046 0-2.441.486-2.441 3m9.25-2.282c-1.271.456-1.742 4.457-.652 5.546 1.231 1.232 3.402-.563 3.402-2.812 0-2.574-.848-3.416-2.75-2.734m4.75 2.223c0 3.51 1.114 4.436 3.337 2.777 2.157-1.61 1.113-5.718-1.454-5.718-1.417 0-1.883.727-1.883 2.941m-21 5.952c0 3.156.588 3.586 3.418 2.5 1.669-.64 2.236-4.393.664-4.393-.505 0-1.63-.273-2.5-.607-1.233-.473-1.582.078-1.582 2.5m29.75-2.177c-1.513.229-2.75.837-2.75 1.35 0 1.484 6.421 1.083 8.559-.534 2.138-1.617.759-1.811-5.809-.816M73.2 330.2c-1.356 1.356-1.656 8.8-.355 8.8 2.232 0 4.324-3.952 3.67-6.933-.73-3.321-1.453-3.729-3.315-1.867m58.479 1.501-3.796 2.702 2.308 1.767c4.188 3.207 16.591 9.083 17.711 8.391 2.226-1.376.955-3.874-4.909-9.647-6.967-6.86-6.41-6.702-11.314-3.213m366.965.985c-1.522 3.381-1.56 4.268-.332 7.808l1.385 3.993 1.651-3.194c1.96-3.79 2.053-6.943.297-10.107-1.277-2.302-1.292-2.295-3.001 1.5m-451.003 4.172c-7.942 8.003-7.972 8.142-1.749 8.142 4.404 0 5.401-.458 10-4.593 6.036-5.427 6.011-5.307 1.736-8.074l-3.347-2.167-6.64 6.692m65.039-5.021c-4.189 1.852-3.96 3.163.552 3.163 4.354 0 7.197-1.778 5.71-3.57-1.428-1.72-1.454-1.719-6.262.407M91 334.5c0 3.408.104 3.5 3.941 3.5 4.552 0 5.067-.505 4.35-4.256-.464-2.431-.967-2.744-4.408-2.744-3.771 0-3.883.101-3.883 3.5m10.331-1.398c.353 1.319.648 2.767.655 3.218.02 1.163 4.288.392 4.695-.849.186-.566-1.086-1.87-2.827-2.898l-3.165-1.87.642 2.399m-16.081.572c-1.237.864-2.25 1.965-2.25 2.448 0 1.555 4.765.933 5.393-.704 1.424-3.709.45-4.25-3.143-1.744m-18.461 1.052c-2.089 2.37-1.265 8.51 1.082 8.066 1.1-.209 1.732-1.565 1.947-4.182.386-4.695-.881-6.32-3.029-3.884m51.232.952c-3.305 1.439-3.383 1.584-1.559 2.918 2.492 1.822 5.663 1.785 8.097-.096 1.921-1.485 1.921-1.515 0-3-2.277-1.759-2.077-1.765-6.538.178m277.598 1.356c-2.941.881-7.619 4.651-7.619 6.14 0 .454 1.491.826 3.313.826 3.354 0 8.687-4.178 8.687-6.805 0-1.352-.358-1.365-4.381-.161m-177.162 1.738c-5.936 5.02-4.954 7.994 1.061 3.213 2.067-1.642 4.344-2.985 5.06-2.985.717 0 1.582-.45 1.922-1 1.069-1.729-5.873-1.063-8.043.772m87.283.768c-1.507 1.398-2.74 2.973-2.74 3.5 0 1.894 2.894.91 4.927-1.675 3.729-4.74 2.27-5.957-2.187-1.825m4.976.364c-2.32 3.927-2.177 4.428 1.034 3.626 4.59-1.145 6.802-3.653 4.625-5.245-2.621-1.916-3.764-1.589-5.659 1.619m-250.202-.275c-.896.896-1.378 2.283-1.072 3.082.307.799.558 2.821.558 4.493 0 2.677.192 2.882 1.604 1.71 2.27-1.885 3.504-5.636 2.789-8.483-.715-2.848-1.641-3.04-3.879-.802m16.736-.99c-5.576 2.354 7.656 11.305 16.75 11.329 5.289.015 13.393-3.502 16.937-7.349 3.753-4.075 1.783-5.17-6.496-3.608-6.058 1.143-17.96.923-23.941-.443-1.1-.251-2.562-.219-3.25.071m48 1.181c-1.787.849-3.25 1.903-3.25 2.342 0 2.459 9.873 1.719 10.713-.802.721-2.161-4.071-3.15-7.463-1.54m274.821 1.298c-2.92 3.949-1.268 5.409 3.748 3.313 1.884-.787 3.595-1.431 3.803-1.431 1.522 0-.119-2.906-2.169-3.839-3.227-1.471-2.708-1.659-5.382 1.957m93.245-.527c-2.049 2.913-3.776 13.409-2.205 13.409 1.539 0 5.889-7.462 5.819-9.982-.154-5.502-1.354-6.64-3.614-3.427m-269.115.428c-4.33 2.64-3.372 3.861 2.533 3.228 6.901-.74 9.021-1.959 6.599-3.795-2.566-1.944-5.292-1.774-9.132.567m-111.167 1.918c-.948 1.77-.691 1.933 2.964 1.882 4.442-.061 4.825-.474 2.252-2.427-2.458-1.866-4.013-1.704-5.216.545m203.55.391c-3.52 2.835-2.268 3.976 2.821 2.571 2.652-.733 3.625-1.507 3.395-2.701-.489-2.537-2.969-2.485-6.216.13m-244.883-.696c-1.406 1.406-.642 2.368 1.882 2.368 1.622 0 2.429-.465 2.167-1.25-.481-1.446-3.02-2.147-4.049-1.118m60.907.864c-1.04.787-2.39 1.639-3 1.892-2.197.912 1.793 2.482 4.845 1.906 4.651-.878 6.142-2.386 3.946-3.991-2.246-1.643-3.418-1.604-5.791.193m-77.923 1.3c-1.843 2.036-1.251 9.552.702 8.918 1.897-.616 3.708-5.488 3.036-8.165-.757-3.017-1.546-3.176-3.738-.753m178.613-.392c-4.53 1.649-4.915 2.358-2.001 3.685 4.37 1.992 11.097-.704 8.766-3.513-1.483-1.787-2.272-1.807-6.765-.172m173.952.341c-3.9 1.941-4.105 3.002-.743 3.846 3.015.757 9.493-.321 9.493-1.58 0-.902-3.986-4.067-4.973-3.947-.29.035-1.989.792-3.777 1.681m-85.027 1.812c-3.529 2.471-2.744 3.776 1.898 3.154 4.919-.66 7.096-2.33 4.871-3.737-2.162-1.367-4.242-1.188-6.769.583m-184.202 1.121c-4.943 2.152-1.902 4.668 3.788 3.132 4.715-1.272 6.153-2.591 4.183-3.836-1.999-1.264-3.821-1.103-7.971.704m102.153 1.179c-4.899 2.612-2.043 5.02 3.858 3.252 4.055-1.215 5.221-3.414 2.386-4.502-2.162-.83-2.452-.772-6.244 1.25m245.584.893c-2.286 2.403-6.201 11.14-5.366 11.975 1.576 1.576 7.482-6.234 8.659-11.451.901-3.994.125-4.117-3.293-.524m-437.637 1.3c-2.132 2.883-2.144 3.046-.409 5.43 3.057 4.201 5.827 1.91 4.734-3.915-.895-4.773-1.706-5.057-4.325-1.515m281.153-1.098c-3.406 1.634-3.78 3.321-.862 3.887 2.077.402 7.588-1.722 7.588-2.925 0-1.944-3.604-2.46-6.726-.962m85.476-.588c-5.756 1.518-4.48 4.636 1.898 4.636 3.141 0 6.591-1.803 5.824-3.045-1.207-1.953-4.094-2.548-7.722-1.591m-268.5 1.381c-3.752 1.867-4.075 2.858-1.228 3.762 4.606 1.462 12.251-2.456 8.914-4.568-2.006-1.269-3.92-1.068-7.686.806m100.333 1.891-2.917 1.603 2.417 1.825c2.311 1.745 2.549 1.748 5.417.075 6.06-3.537 1.307-6.923-4.917-3.503m-92.395 1.519c-3.52 2.253-3.297 3.307.921 4.347 3.442.85 9.34-3.831 6.891-5.469-2.244-1.5-4.144-1.227-7.812 1.122m181.062-.41c-3.881 1.932-4.068 2.925-.829 4.401 2.006.914 2.948.727 5.5-1.09 2.995-2.132 4.02-4.056 2.161-4.056-.505 0-1.518-.197-2.25-.437-.733-.24-2.794.291-4.582 1.182m-80.288 2.082c-3.016 2.36-3.102 2.598-1.397 3.844 2.641 1.931 4.796 1.639 7.261-.985 4.532-4.825-.326-7.193-5.864-2.859m165.059-1.149c-6.476 2.819 1.738 5.896 8.664 3.244l2.815-1.077-2.361-1.923c-2.769-2.254-4.4-2.298-9.118-.244m13.979-.786c0 2.497 10.644 5.513 19.5 5.524 8.939.011 20.5-3.066 20.5-5.456 0-.499-8.882-.904-20-.914-11-.009-20 .372-20 .846m-270.93 2.534c-2.604 2.772-2.04 4.574 1.432 4.574 2.37 0 5.498-3.256 5.498-5.723 0-2.163-4.524-1.413-6.93 1.149m7.914.824-1.987 3.25 2.11.334c2.009.318 7.893-4.171 7.893-6.021 0-2.493-6.144-.625-8.016 2.437m93.071 0c-3.547 3.785-3.777 4.75-1.132 4.75 2.367 0 8.077-4.658 8.077-6.589 0-2.509-3.817-1.499-6.945 1.839m78.632-.445c-3.313 3.458-3.327 3.84-.155 4.446 1.866.357 3.049-.174 4.5-2.018 4.193-5.332.444-7.427-4.345-2.428m7.765.288c-2.354 4.553-.898 4.819 3.315.607l3.7-3.7h-2.708c-2.015 0-3.117.791-4.307 3.093m-307.994-.343c-1.913 4.431.617 9.25 4.858 9.25 1.642 0 1.837-.483 1.294-3.198-1.239-6.199-4.643-9.547-6.152-6.052m432.792.365c-1.788 1.145-3.25 2.453-3.25 2.906 0 .454-1.181 2.229-2.624 3.945-3.199 3.8-2.672 4.611 1.766 2.721 3.959-1.685 7.316-5.107 8.767-8.937 1.294-3.417-.033-3.598-4.659-.635m-45.494 1.731c-4.214 1.861-4.341 3.213-.434 4.594 2.728.964 9.678-1.379 9.678-3.263 0-.707-4.628-3.398-5.297-3.081-.112.053-1.888.84-3.947 1.75m-391.272 1.447c-.789 1.936-.173 3.131 1.319 2.561.511-.195.587-1.254.17-2.354-.707-1.865-.808-1.879-1.489-.207m427.578-.192c-2.529 1.01-10.392 8.903-9.629 9.665.993.993 7.419-2.013 9.702-4.539 5.826-6.445 5.811-7.477-.073-5.126m-27.832 2.654c-3.709 1.845-3.722 3.337-.039 4.639 3.212 1.135 6.711.258 10.334-2.592l2.849-2.242-2.437-.68c-3.992-1.115-7.242-.849-10.707.875m18.166-.801c-2.702.475-10.396 6.037-10.396 7.515 0 2.229 6.587.056 10.283-3.392 4.655-4.342 4.671-4.924.113-4.123" fill-rule="evenodd"/>
</svg>