<!DOCTYPE svg PUBLIC "-//W3C//DTD SVG 1.1//EN" "http://www.w3.org/Graphics/SVG/1.1/DTD/svg11.dtd">
<svg xmlns="http://www.w3.org/2000/svg" viewBox="0 0 564 1002">
<path d="M356.5 546.496c-12.294 1.412-21.803 3.434-25.126 5.342-2.213 1.27 3.751.636 9.626-1.024 11.412-3.223 47.892-4.228 66.292-1.826 11.978 1.563 13.708 2.016 13.708 3.591 0 1.801.402 1.782 4.24-.203 3.002-1.552 3.217-1.53 4.861.5.946 1.168 2.664 2.124 3.819 2.124 1.155 0 2.87.9 3.812 2 .942 1.1 2.37 2 3.175 2 1.445 0 8.6 2.983 12.719 5.303 9.059 5.102 13.365 8.095 13.851 9.625.312.984 2.297 2.568 4.411 3.521 5.587 2.52 24.329 22.957 30.768 33.551 1.504 2.475 4.116 6.145 5.804 8.155 1.689 2.011 3.693 5.386 4.454 7.5.762 2.115 2.218 4.433 3.236 5.152 1.017.718 1.85 2.379 1.85 3.691 0 1.311.408 2.636.906 2.944.498.308.697 1.36.441 2.338-.255.978.468 2.854 1.608 4.168 1.245 1.436 1.84 3.123 1.489 4.228-.321 1.013.57 4.274 1.987 7.269 2.286 4.833 3.469 11.555 2.034 11.555-.295 0-1.621-.711-2.948-1.581-2.18-1.428-4.259-2.126-6.978-2.342-.529-.043-4.63-3.789-9.113-8.327s-9.729-9.544-11.657-11.126c-5.288-4.337-27.187-18.657-31.519-20.61-4.604-2.075-7.79-3.329-9.15-3.601-.77-.154-1.67-.647-2-1.097-.33-.449-1.05-.841-1.6-.872-1.329-.074-6.617-1.455-8.5-2.22-.825-.336-2.007-.642-2.626-.682-.619-.039-2.194-.599-3.5-1.243-1.306-.645-6.649-1.903-11.874-2.796-5.225-.894-14.45-2.496-20.5-3.561-31.068-5.467-58.244-4.619-81.5 2.546-2.475.762-6.41 1.678-8.745 2.036-2.334.357-4.491 1.049-4.792 1.536-.301.487-2.441 1.386-4.755 1.998-5.263 1.39-14.479 5.789-26.492 12.643-12.375 7.061-13.934 8.069-19.364 12.511-2.556 2.092-5.257 3.57-6.001 3.284-.815-.313-1.855.617-2.618 2.339-1.701 3.843-16.094 17.717-17.185 16.566-.47-.496-1.07-1.801-1.335-2.901-.389-1.618-.503-1.513-.597.55-.064 1.402.385 3.051.997 3.663 1.581 1.581.814 2.42-7.135 7.802-8.444 5.717-10.044 5.26-7.622-2.175.867-2.662 2.04-7.54 2.606-10.84.567-3.3 1.408-7.8 1.869-10 .785-3.739 6.914-16.886 12.122-26 2.519-4.41 18.795-23.5 20.035-23.5.428 0 1.014-.9 1.302-2 .298-1.142 1.364-2 2.483-2 1.183 0 3.021-1.602 4.632-4.036 1.469-2.219 3.076-3.785 3.571-3.479.496.307 1.266-.049 1.713-.79 1.16-1.926 13.859-11.695 15.204-11.695.618 0 2.914-1.297 5.102-2.882 2.188-1.584 10.8-5.88 19.139-9.546 12.038-5.292 23.616-11.243 18.339-9.426-4.379 1.508-25.31 10.71-30.889 13.58-14.31 7.361-12.958 6.533-20.862 12.777-3.177 2.511-6.827 5.044-8.111 5.628-1.283.585-3.064 2.595-3.956 4.466-.892 1.872-2.262 3.403-3.043 3.403-1.466 0-15.839 15.059-21.951 23-4.104 5.331-15.661 27.701-15.661 30.312 0 1.001-.48 2.716-1.066 3.811-1.374 2.568-4.934 20.901-4.934 25.412 0 1.906-.338 3.466-.75 3.468-1.488.005-9.732 7.812-9.02 8.542.401.411 2.765-1.129 5.254-3.423 2.489-2.294 7.335-5.942 10.77-8.106 3.435-2.164 7.146-4.632 8.246-5.484 2.908-2.254 11.461-7.532 12.206-7.532.35 0 1.347-.601 2.215-1.335.869-.735 3.154-1.946 5.079-2.692 1.925-.746 5.082-2.386 7.016-3.643 1.934-1.258 4.955-2.574 6.712-2.926 1.758-.351 3.876-1.677 4.707-2.946 1.926-2.939 5.204-4.002 7.21-2.338 1.286 1.068 1.714.99 2.526-.461.618-1.105 1.654-1.532 2.819-1.162 1.013.321 2.131.116 2.485-.456.354-.573 2.356-1.041 4.449-1.041 2.094 0 4.883-.788 6.198-1.75 5.872-4.296 12.448-6.567 33.378-11.529 20.742-4.917 60.467-6.371 80.122-2.932 4.883.855 10.735 1.476 13.005 1.382 2.561-.107 4.583.377 5.328 1.274.892 1.075 1.838 1.204 3.688.501 3.415-1.299 4.357-1.19 4.357.503 0 1.265.44 1.265 3.468 0 4.795-2.004 6.34-1.819 6.712.801.21 1.476.907 2.152 2.026 1.966 2.017-.335 28.618 6.414 30.203 7.663.6.473 2.679 1.371 4.619 1.995 1.941.624 5.991 2.483 9 4.13 3.01 1.648 6.979 3.695 8.82 4.55 2.958 1.374 5.709 3.298 16.31 11.412 1.462 1.119 3.77 2.034 5.128 2.034s3.029.675 3.714 1.5 1.942 1.5 2.794 1.5c3.281 0 5.422 3.104 3.559 5.162-1.568 1.734-1.532 1.838.648 1.838 1.27 0 3.785 1.125 5.588 2.5s3.732 2.5 4.288 2.5c.555 0 1.671.945 2.48 2.099.808 1.154 3.196 3.267 5.306 4.694 2.111 1.428 4.287 3.085 4.837 3.682 10.11 10.984 11.5 12.263 11.5 10.583 0-1.767-18.193-20.058-19.951-20.058-.481 0-3.238-1.557-6.127-3.459-5.43-3.576-7.086-6.372-8.926-15.068-.469-2.215-1.602-6.04-2.519-8.5s-1.904-5.823-2.194-7.473c-.29-1.65-1.088-3.675-1.774-4.5-.686-.825-1.532-2.737-1.878-4.25-1.649-7.191-2.061-8.288-3.646-9.718-.934-.843-2.498-3.73-3.475-6.416-.978-2.686-2.692-5.798-3.809-6.915s-4.173-5.219-6.792-9.116c-6.204-9.232-23.303-27.668-28.409-30.631-2.2-1.276-4.527-3.051-5.172-3.944-1.406-1.95-12.98-10.01-14.373-10.01-.54 0-1.764-.399-2.719-.886-.955-.487-4.076-1.904-6.936-3.147-2.859-1.244-5.433-2.87-5.718-3.614-.286-.744-1.399-1.353-2.474-1.353-1.075 0-3.365-1.187-5.089-2.638-2.839-2.388-3.372-2.511-5.639-1.298-2.031 1.087-2.886 1.101-4.528.076-6.121-3.823-44.951-5.988-65.352-3.644M423 583c0 .55.477 1 1.059 1s.781-.45.441-1-.816-1-1.059-1-.441.45-.441 1m23.079 3.583c.048 1.165.285 1.402.604.605.289-.722.253-1.585-.079-1.917-.332-.332-.568.258-.525 1.312m-11.064 3.167c-.008 1.788.435 3.25.985 3.25 1.27 0 1.27-3.035 0-5-.736-1.138-.973-.716-.985 1.75m-138.408 3.832c-.867 2.259-.749 4.418.241 4.418.466 0 .886-1.35.933-3 .095-3.345-.267-3.782-1.174-1.418M273.5 602c-.34.55-.141 1 .441 1s1.059-.45 1.059-1-.198-1-.441-1-.719.45-1.059 1m161.6 3.25c-.055 2.063.35 3.75.9 3.75 1.145 0 1.145-1.425 0-5-.715-2.231-.811-2.097-.9 1.25m10.97 2c-.038 1.513.38 2.75.93 2.75 1.174 0 1.174-.769 0-3.5-.762-1.772-.867-1.687-.93.75M278.158 612c0 1.375.227 1.938.504 1.25.278-.687.278-1.812 0-2.5-.277-.687-.504-.125-.504 1.25m174.074 1c0 1.925.206 2.712.457 1.75.252-.962.252-2.538 0-3.5-.251-.962-.457-.175-.457 1.75m-184.756 11.075c-.946 2.98-.159 3.212 1.19.352.63-1.335.768-2.427.307-2.427s-1.135.934-1.497 2.075m-15.726 13.502c-.412.416-.75 1.671-.75 2.79 0 1.471.302 1.731 1.094.939.601-.601.939-1.857.75-2.789-.189-.933-.682-1.356-1.094-.94m-6.083 4.09c-.367.366-.667 1.131-.667 1.7 0 .626.466.567 1.183-.15.651-.651.951-1.416.667-1.7-.284-.285-.817-.217-1.183.15m105.685.472c-3.478.578-21.292 3.662-25.591 4.431-1.908.341-20.179 7.86-23.056 9.487-.987.559-5.037 2.676-9 4.705-8.885 4.549-24.629 15.985-34.988 25.416-15.436 14.053-20.174 28.105-21.353 63.322-.313 9.35-.966 18.35-1.451 20-.544 1.851-.716-5.429-.449-19 .428-21.734 2.452-37.738 5.492-43.419 1.222-2.283-3.649-6.608-10.165-9.026a165.443 165.443 0 0 1-6.403-2.556c-1.712-.734-5.312-1.589-8-1.9-4.884-.565-4.883-.564 1.612 1.427 11.308 3.466 21.176 9.648 20.489 12.836-5.215 24.174-5.833 35.497-5.171 94.638.32 28.6 1.053 62.125 1.627 74.5 1.409 30.33 1.43 55.046.06 69.351-1.361 14.199-.703 16.469 1.052 3.628 1.358-9.936 2.146-10.968 6.603-8.641 10.579 5.524 19.34 28.359 19.34 50.41V1002h44.469c41.926 0 44.432-.1 43.833-1.75-.35-.962-4.143-6.322-8.429-11.909-8.425-10.985-11.863-16.192-11.869-17.976-.007-1.904 25.799 11.603 30.145 15.778 4.786 4.599 4.855 4.614 4.836 1.107-.012-2.131-.231-2.413-.972-1.25-.788 1.235-1.495.849-4.008-2.19-1.679-2.03-4.054-3.973-5.278-4.319-3.668-1.035-8.727-3.879-8.727-4.905 0-.527.93-4.272 2.066-8.323 1.137-4.05 1.891-7.892 1.676-8.538-.216-.646-.935 1.065-1.599 3.801-1.625 6.694-3.188 10.474-4.331 10.474-1.534 0-7.812-5.135-7.812-6.39 0-3.364-11.546-13.514-16.5-14.506-5.55-1.111-12.438 1.223-14.808 5.018-1.676 2.683-3.435 2.343-7.669-1.482-4.551-4.112-10.156-5.438-13.557-3.209-2.295 1.503-2.527 1.384-7.407-3.775-9.231-9.761-17.946-12.814-26.091-9.141-3.511 1.583-3.98 1.59-6.108.1-1.268-.888-3.076-1.615-4.019-1.615-1.558 0-1.718-1.753-1.754-19.25-.023-10.587-.34-24.087-.706-30-.517-8.351-.383-10.75.599-10.75.919 0 .972-.352.195-1.29-1.272-1.532-3.175-35.707-3.175-57.023 0-15.297 1.015-19.761 1.476-6.492.329 9.451 1.238 12.852 3.231 12.087 1.203-.462 1.381-.079.843 1.817-.507 1.788-.423 2.025.331.929.876-1.276 1.096-1.253 1.642.172.789 2.056-1.129 5.8-2.971 5.8-1.111 0-1.162.572-.267 2.945.851 2.254.807 3.515-.189 5.375-1.001 1.872-1.035 2.925-.147 4.584.634 1.185 1.423 5.994 1.755 10.687.354 5.026.936 7.993 1.416 7.221.628-1.011 1.337-.77 3.097 1.055 1.638 1.698 1.918 2.503.991 2.847-1.549.576.281 3.286 2.218 3.286.65 0 2.67 1.536 4.49 3.413 4.126 4.257 3.771 6.871-.454 3.338-4.809-4.022-8.22-4.663-4.381-.823 4.795 4.794 6.988 6.008 9.828 5.44 2.614-.523 11.314 3.125 15.591 6.537 2.598 2.072 2.864 5.095.448 5.095-2.536 0-3.454-1.869-1.32-2.688 1.403-.538 1.065-.922-1.686-1.916-4.722-1.706-6.942-1.673-6.942.104 0 .825.83 1.5 1.845 1.5 2.362 0 4.803 2.714 5.71 6.349 1.03 4.126-2.574 3.242-4.485-1.1-1.37-3.11-3.07-4.356-3.07-2.249 0 2.522-15.945-3.925-20.983-8.485-1.876-1.698-3.017-1.944-3.017-.651 0 1.594 7.429 5.997 15.5 9.186 4.4 1.739 8.947 4.031 10.104 5.093 1.734 1.592 3.189 1.858 8.262 1.508 3.485-.239 6.423.008 6.771.571.343.555 2.269.729 4.363.394 2.062-.33 5.043-.192 6.624.306 5.639 1.775 21.767 5.288 25.291 5.509 1.972.123 8.461 2.552 14.421 5.397 5.96 2.844 11.192 5.172 11.628 5.172 3.898 0 7.036 11.318 7.036 25.378 0 6.576.18 11.768.401 11.539 1.033-1.075 1.404-19.73.477-24.05-1.425-6.645-.787-7.951 2.27-4.652l2.491 2.688-.433-2.952c-.258-1.76.016-2.951.681-2.951.612 0 1.113 1.548 1.113 3.441 0 1.893.45 3.719 1 4.059.595.368 1-.823 1-2.941 0-1.957.45-3.559 1-3.559s1.007 1.462 1.015 3.25c.009 1.788.465 3.925 1.015 4.75.701 1.053.807.235.356-2.75-.785-5.198 2.392-6.293 4.353-1.5l1.125 2.75-.54-2.75c-.402-2.041-.145-2.75.996-2.75 1.123 0 1.723 1.546 2.23 5.75 1.008 8.352 2.487 10.027 1.767 2-.516-5.746-.371-6.75.977-6.75 1.539 0 1.788.94 3.048 11.5.197 1.65.426-.011.508-3.691.188-8.392 3.312-10.711 3.786-2.809.51 8.504.757 9.029 1.291 2.735.825-9.739 2.371-7.849 2.824 3.451.623 15.564 1.986 16.964 1.861 1.91-.083-9.91.214-13.516 1.138-13.833.873-.3 1.252.877 1.257 3.904.004 2.383.342 7.483.75 11.333l.743 7 .5-10.92c.288-6.286.945-11.067 1.548-11.266.681-.225.927 1.853.701 5.92-.191 3.446.066 9.641.572 13.766.899 7.331.922 7.191 1.049-6.191.173-18.199 2.803-19.729 3.324-1.934.165 5.647.275 5.16.75-3.295.318-5.669 1.014-10.072 1.625-10.273.724-.239.934 2.323.649 7.92-.231 4.55-.078 7.939.339 7.532.418-.408 1.363-.24 2.101.372.738.613 1.359.721 1.38.241.476-11.011 4.901-21.318 9.168-21.357.938-.008 3.92-1.32 6.626-2.916 11.98-7.063 16.007-8.884 21.168-9.566 3.025-.401 6.175-.88 7-1.067.825-.186 5.325-1.247 10-2.357l8.5-2.018-6.5.568c-3.575.312-9.411 1.157-12.969 1.878-7.755 1.571-9.226 1-5.389-2.094 2.278-1.836 3.772-2.223 7.358-1.905 2.475.22 3.6.145 2.5-.166-3.121-.883-4.208-2.372-1.731-2.372 1.458 0 1.99-.463 1.626-1.414-.402-1.048.965-1.723 5.281-2.608 3.203-.657 6.343-1.615 6.978-2.129.635-.515 2.274-.654 3.641-.311 1.387.348 2.782.146 3.155-.457.967-1.565 3.55-1.328 3.55.325 0 1.765 3.642.969 4.381-.957.87-2.267 9.74-5.871 10.686-4.341.625 1.011 1.651.871 4.851-.663 5.316-2.548 5.134-3.277-.912-3.643l-4.994-.302 2.328-2.911c1.499-1.874 2.782-2.631 3.601-2.125 1.017.628 1 .958-.084 1.646-1.07.677-1.002.863.322.875.923.008 2.437-.744 3.364-1.671 1.581-1.581 1.542-1.738-.625-2.54l-2.31-.855 2.696-2.5c1.483-1.375 2.696-2.932 2.696-3.459 0-.528.48-.96 1.067-.96 2.929 0 7.892-5.208 6.839-7.176-1.467-2.741 1.804-11.763 4.658-12.848 4.388-1.669 7.555-9.783 3.29-8.43-1.838.584-2.054.378-1.5-1.432 1.567-5.127 1.648-6.574.202-3.614-.806 1.65-1.486 4.5-1.511 6.333-.03 2.209-.467 3.193-1.295 2.917-.78-.26-1.171-1.971-1.041-4.55.115-2.273-.193-4.381-.684-4.684-.491-.304-.755-2.007-.585-3.784.169-1.778.108-2.444-.135-1.482-.593 2.336-.972 2.237-4.352-1.143l-2.893-2.893 1.453-6.857c.799-3.771 1.46-7.843 1.47-9.048.026-3.386 1.87-3.735 3.251-.615.684 1.543 1.81 3.401 2.504 4.127.694.727 1.262 1.74 1.262 2.25 0 .511.454.929 1.009.929 1.085 0 .281-10.338-1.011-13-1.587-3.27.101-4.16 3.35-1.765 1.734 1.278 5.402 3.434 8.152 4.793 2.75 1.358 5.873 3.258 6.94 4.222 2.557 2.31 3.577.728 3.385-5.25-.121-3.742-.214-3.942-.553-1.189-.599 4.859-2.669 3.39-3.365-2.389-.436-3.619-.634-4.062-.75-1.672-.197 4.081-2.009 4.242-2.807.25-.33-1.65-.932-3-1.338-3-2.034 0-10.076-23.73-9.976-29.438.033-1.885.229-1.826 2.292.693 3.662 4.473 9.672 17.304 9.672 20.65 0 1.702.45 3.095 1 3.095s1-2.213 1-4.918.301-5.704.67-6.664c.424-1.105.282-1.506-.388-1.092-.613.378-1.277-.5-1.578-2.086-1.21-6.371-3.733-15.096-5.787-20.014-2.559-6.125-2.129-7.211 1.775-4.482 3.164 2.211 18.308 7.507 18.308 6.403 0-.394-1.291-1.478-2.868-2.41-4.43-2.617-12.954-10.601-13.646-12.782-.342-1.075-1.202-1.955-1.912-1.955s-3.042-2.54-5.182-5.645a1542.62 1542.62 0 0 0-8.202-11.75c-2.37-3.358-5.919-8.58-7.886-11.605-10.297-15.838-35.386-40.47-46.804-45.952-14.263-6.848-19.557-8.99-28.354-11.472-4.755-1.342-11.121-3.318-14.146-4.391-7.555-2.68-15.635-4.919-21-5.821-5.551-.933-36.378-1.099-41.648-.225m-4.05 4.611c-.349.962-1.91 3.39-3.468 5.394-1.559 2.004-2.834 4.037-2.834 4.518 0 .48-1.057 2.441-2.349 4.356-7.319 10.85-17.171 50.709-16.432 66.482l.281 6 4 .649c8.685 1.408 10.347 2.666 2.78 2.103l-7.22-.537-.28 13.263-.28 13.263-2.176-8.37c-1.197-4.604-2.547-10.171-3-12.371-1.05-5.096-3.339-5.54-10.321-2.002-2.838 1.439-5.648 2.454-6.243 2.255-1.138-.379 9.155-5.753 11.018-5.753 2.805 0 4.002-2.925 3.362-8.211-1.282-10.596-.396-36.936 1.496-44.476 1.254-4.996-1.876-1.848-6.205 6.24-8.4 15.695-11.63 23.478-14.501 34.947-1.101 4.4-2.446 9.13-2.989 10.512-1.44 3.666-2.771 12.975-1.93 13.495.397.245 1.564-.485 2.594-1.623 1.03-1.138 2.778-2.531 3.884-3.095 1.106-.564-.214 1.27-2.934 4.075-4.4 4.539-5.025 5.737-5.666 10.869-1.787 14.307.133 48.179 2.921 51.539.924 1.112.604 1.903-1.542 3.815-1.489 1.327-2.099 1.621-1.356.652 1.553-2.025-.261-7.986-4.245-13.949-1.21-1.809-3.501-7.115-5.093-11.79-4.551-13.369-4.568-13.406-5.596-12.378-2.822 2.822-5.219 26.407-3.506 34.495 1.596 7.541 5.754 20.485 7.932 24.697.848 1.64 2.013 5.165 2.588 7.834 1.019 4.728 9.407 25.684 11.217 28.024.498.644 2.616 4.694 4.706 9 8.069 16.622 33.309 32.403 64.585 40.382 24.041 6.134 57.8-2.425 79.552-20.168 4.096-3.342 8.224-6.493 9.172-7.002 1.878-1.009 10.031-14.32 14.305-23.353 1.472-3.112 2.892-5.443 3.155-5.18.263.263-.008 1.387-.603 2.498-1.669 3.119-1.307 5.151.919 5.151 1.1 0 2 .45 2 1s-1.28 1-2.845 1c-3.24 0-5.022 1.709-8.038 7.71-3.162 6.288-2.957 6.618 3.633 5.853 13.939-1.619 34.906-15.514 41.783-27.689 10.211-18.079 7.98-33.999-5.299-37.807-4.584-1.314-13.228 4.751-19.297 13.54-2.774 4.016-9.916 21.502-9.93 24.31-.004.779-.298 1.126-.653.771-.802-.803 3.088-13.464 6.203-20.188 2.186-4.721 4.073-11.038 8.513-28.5 1.995-7.849 2.549-17.499 1.058-18.421-.48-.297-2.309 2.377-4.063 5.941-2.72 5.525-6.414 9.439-4.705 4.984 3.742-9.75 4.439-35.215 1.687-61.628-.97-9.314-5.033-27.876-6.101-27.876-.36 0-.952 6.188-1.314 13.75-.996 20.762-2.392 31.49-5.89 45.25l-3.177 12.5-.797-4.5c-.438-2.475-.991-6.315-1.229-8.534-.88-8.224-2.577-17.322-3.964-21.252-.785-2.226-1.742-6.222-2.127-8.881-.906-6.257-1.3-6.669-8.442-8.831-7.191-2.177-7.254-3.263-.083-1.425 2.773.711 5.327 1.007 5.676.658 1.074-1.075-7.534-25.899-13.606-39.235-1.002-2.2-2.782-6.163-3.957-8.806-1.175-2.643-4.304-8.043-6.953-12-2.649-3.957-5.825-9.219-7.057-11.694-2.56-5.14-7.768-11-9.775-11-1.546 0-.933 17.759.898 26 .55 2.475 1.635 8.1 2.411 12.5.777 4.4 1.835 9.8 2.354 12 .518 2.2 2.07 9.201 3.448 15.558 2.765 12.752 4.42 17.24 6.116 16.589.691-.265 1.122.849 1.122 2.901v3.331l-2.117-2.189c-1.164-1.205-1.941-2.538-1.726-2.964.534-1.059-2.156-8.148-8.056-21.226-2.729-6.05-5.737-13.25-6.683-16-.947-2.75-3.675-10.737-6.062-17.75-5.696-16.737-7.118-16.899-5.011-.572 1.342 10.4 2.195 67.822 1.007 67.822-.524 0-.952-1.41-.952-3.134s-.417-4.761-.927-6.75c-.509-1.989-1.672-7.441-2.583-12.116-.911-4.675-2.925-12.55-4.475-17.5-1.55-4.95-3.324-11.157-3.942-13.794-1.323-5.642-7.729-22.084-12.744-32.706a4904.218 4904.218 0 0 1-4.531-9.614c-2.588-5.524-5.58-7.386-11.87-7.386-4.797 0-6.117.349-6.626 1.75m-109.223 6.833c.048 1.165.285 1.402.604.605.289-.722.253-1.585-.079-1.917-.332-.332-.568.258-.525 1.312M107.64 664.304c-1.927 1.817-3.808 4.517-4.18 6-.747 2.977-3.457 3.609-5.407 1.26-.655-.789-2.623-1.723-4.372-2.074-1.75-.352-4.081-.833-5.181-1.07-1.1-.237.675.879 3.944 2.479 8.532 4.178 8.855 4.872 6.07 13.06-1.274 3.745-2.992 7.874-3.819 9.175-.875 1.379-1.949 7.064-2.573 13.623-1.791 18.84-4.751 26.064-13.179 32.169-3.485 2.525-4.321 2.716-8.801 2.007-9.849-1.557-16.804-7.722-13.704-12.147 1.724-2.462 2.154-7.27.562-6.286-.55.34-1 1.474-1 2.52s-.959 2.796-2.132 3.888c-1.172 1.092-2.248 3.049-2.391 4.348-.142 1.299-.976 4.585-1.853 7.303a416.147 416.147 0 0 0-3.246 10.691c-2.63 9.154-3.371 7.72-7.362-14.25-1.149-6.325-2.339-12.679-2.645-14.12l-.555-2.621 7.01.121c6.191.106 7.322-.172 9.673-2.38 1.464-1.375 2.952-2.354 3.307-2.175.354.179.805-.159 1.002-.75.542-1.625-.71-1.298-3.535.925-3.74 2.941-10.543 2.627-16.748-.773-8.612-4.72-8.823-8.822-1.354-26.399 4.758-11.197 6.706-13.423 13.476-15.399l4.853-1.417-4.413.421c-2.428.231-5.578 1.274-7 2.318-2.607 1.911-10.961 17.34-11.043 20.392-.049 1.838-2.606 3.171-4.384 2.286-.638-.317-.354.082.632.888 1.58 1.291 1.656 2.003.646 6.013-.955 3.794-.879 5.083.459 7.763C30.443 716.195 30.512 716 27 716c-3.276 0-3.424.193-2.118 2.764 2.009 3.952 8.941 36.094 9.964 46.195l.654 6.46 4.25 1.227 4.25 1.227v-2.999c0-1.649.636-5.108 1.414-7.686C50.4 746.652 51.376 744 52.478 744c1.202 0 2.884 14.859 2.971 26.25l.036 4.75H66.824l.698-4.128c.688-4.075 4.723-14.538 7.855-20.372.886-1.65 1.613-4.027 1.617-5.281.003-1.256.793-2.572 1.756-2.927.963-.356 2.081-1.129 2.485-1.719.486-.71.74-.63.75.236.026 2.248 2.013.194 2.048-2.118.031-2.05 3.068-6.691 4.377-6.691.325 0 .59 1.125.59 2.5s-.392 2.5-.871 2.5-1.167 2.232-1.529 4.959c-.362 2.727-1.095 5.229-1.629 5.559-.534.33-.971 1.389-.971 2.354 0 .964-1.063 3.975-2.363 6.691-1.299 2.715-2.919 6.737-3.6 8.937-.68 2.2-1.824 5.2-2.542 6.666l-1.306 2.666 5.908.334 5.907.334-.002-4.628c-.002-5.653 1.41-7.013 7.933-7.64 5.916-.568 7.582 1.492 6.801 8.414-.468 4.155-.003 4.924 2.673 4.42.5-.095 3.65-.17 7-.168 7.495.006 10.033-.64 8.777-2.232-2.553-3.237-2.381-29.675.193-29.659.925.006 6.083 17.601 8.28 28.243.51 2.469.991 2.748 4.704 2.735 5.856-.022 6.818-.865 5.647-4.95-.53-1.849-.884-9.171-.787-16.271.194-14.101.537-14.893 6.244-14.455l2.778.214.233 12.488c.232 12.446-.48 16.347-3.396 18.607-2.264 1.756 1.753 3.382 8.352 3.382 6.113 0 6.567-.369 3.504-2.849-1.892-1.532-2.061-2.74-2.053-14.66.009-12.251 1.447-28.156 2.655-29.365.879-.879 5.297 5.115 5.987 8.124.918 3.995 2.472 3.369 2.482-1 .004-2.062.292-6.112.639-9l.631-5.25h-4.247c-3.691 0-4.138-.229-3.422-1.75.453-.962.839-5.301.857-9.641.028-6.77.311-8.049 1.991-9 1.077-.61 2.554-1.654 3.282-2.32.728-.666 2.772-1.447 4.542-1.737 1.77-.29 6.143-1.047 9.718-1.682s12.575-1.128 20-1.095c8.391.037 12.483-.248 10.812-.755-1.479-.447-9.457-.664-17.731-.481-10.828.239-15.252 0-15.789-.853-.728-1.157-3.472-8.427-5.26-13.938-3.48-10.724-5.643-12.686-16.305-14.788-7.231-1.426-14.892.7-16.366 4.543-.787 2.05-2.977 1.88-4.554-.354-4.393-6.222-19.363-7.32-25.167-1.845m.557 1.369c-2.459 2.246-3.983 5.384-6.728 13.851-1.951 6.021-4.201 11.944-4.999 13.162-2.281 3.481-3.319 20.246-1.143 18.45.91-.751 4.526-1.595 8.037-1.877 6.82-.548 10.636 1.412 10.636 5.464 0 1.334-.381 1.165-1.692-.75-2.369-3.462-3.289-3.94-7.608-3.958-4.511-.018-9.418 2.286-9.874 4.637-1.04 5.357.42 10.528 3.531 12.505 2.736 1.739 2.819 1.907.643 1.298-3.591-1.005-4.786-2.204-5.517-5.533-.837-3.809-2.136-2.937-2.969 1.993-1.262 7.47 2.284 11.376 11.947 13.162 6.568 1.215 9.22.139 15.527-6.301 2.553-2.606 3.745-3.389 3.054-2.005-.624 1.249-.832 2.76-.462 3.358.559.905 2.199 8.711 6.119 29.121.962 5.009 1.996 2.859 2.647-5.5 1.298-16.678.167-22.602-5.472-28.655-1.569-1.684-1.778-2.505-.906-3.557 1.028-1.238 1.394-16.325.742-30.55-.152-3.316.414-5.437 2.135-8 1.288-1.919 2.015-2.588 1.615-1.488-.399 1.1-.853 11.057-1.007 22.127-.322 23.131.175 24.94 7.818 28.409 16.255 7.379 25.303-9.762 21.075-39.928-.441-3.149-.294-4.194.519-3.691.624.385 1.135 1.519 1.135 2.52 0 4.358 3.668 4.523 5.911.265.84-1.593 1.779-2.118 3.065-1.71 2.673.849 7.024-.467 7.024-2.123 0-2.17-7.187-19.628-8.942-21.721-2.549-3.04-6.148-4.375-13.861-5.138l-7.303-.724-3.957 4.159c-2.176 2.288-5.068 6.354-6.428 9.036-2.373 4.684-4.509 7.153-4.509 5.213 0-.508.787-2.001 1.75-3.316 6.849-9.362 3.694-13.951-10.09-14.674-8.02-.421-8.385-.343-11.463 2.469M77 669.702C69.42 672.45 65.006 681.828 60.385 705c-2.612 13.097-2.69 14.161-.738 10 .902-1.925 2.265-7.301 3.028-11.948 3.394-20.666 7.668-28.927 16.325-31.555 3.025-.918 5.95-1.82 6.5-2.004.55-.184-.8-.335-3-.335s-4.675.245-5.5.544m-21 3.556c.275.295 2.965 1.264 5.978 2.153 4.623 1.364 5.247 1.387 4 .149-1.328-1.319-11.18-3.591-9.978-2.302m209.405 1.888c-1.892 2.13-1.89 2.137.289.994 2.431-1.275 3.928-3.14 2.52-3.14-.497 0-1.761.965-2.809 2.146M238.5 682c-.995 1.1-1.306 2-.69 2 .616 0 1.601-.9 2.19-2s.899-2 .69-2c-.209 0-1.195.9-2.19 2m-18.52 2.524c-.696.838-.987 1.803-.647 2.143.727.726 3.667-1.511 3.667-2.789 0-1.378-1.63-1.029-3.02.646m-181.776 5.928c-1.458 3.199-1.54 4.729-.124 2.298 1.491-2.559 8.87-2.377 11.731.289 4.71 4.388.746 11.961-6.261 11.961-5.076 0-6.54-1.601-6.565-7.184-.011-2.333-.28-2.898-.907-1.907-1.04 1.642-.539 7.03.776 8.345 1.735 1.735 9.112 2.834 11.27 1.679C50.445 704.691 53 699.277 53 695.6c0-5.657-12.571-10.031-14.796-5.148M236.5 689c-.34.55-.141 1 .441 1s1.059-.45 1.059-1-.198-1-.441-1-.719.45-1.059 1M7.491 697.116c.347 1.861 1.024 6.534 1.503 10.384l.871 7-.182-9-.183-9 2.75.056c1.512.03 2.75-.307 2.75-.75S13.912 695 12.582 695s-3.162-.285-4.071-.634c-1.403-.538-1.557-.123-1.02 2.75m10.259-.454c.688.278 1.813.278 2.5 0 .688-.277.125-.504-1.25-.504s-1.937.227-1.25.504m48.697 13.792c-6.827 2.871-8.737 15.779-2.697 18.232 1.962.797 3.25.922 3.25.317 0-.552-.605-1.003-1.345-1.003-5.043 0-5.613-8.519-.941-14.071 2.775-3.299 5.727-3.709 9.197-1.279 1.729 1.211 2.236 1.29 1.904.296-.845-2.536-6.002-3.907-9.368-2.492m65.053 4.259c-4.181 1.006-5.214 8.023-1.92 13.049 2.178 3.324 2.923 2.111.994-1.619-2.475-4.787-2.036-7.852 1.376-9.617 6.394-3.306 11.542-.867 10.841 5.136-.214 1.836-.03 3.338.41 3.338 1.841 0 .826-8.915-1.135-9.965-1.96-1.049-6.916-1.2-10.566-.322M76 718.559c0 .857.45 1.281 1 .941.55-.34 1-1.041 1-1.559s-.45-.941-1-.941-1 .702-1 1.559m35.127 1.675c-.699 2.054-2.702 4.861-4.449 6.239-1.748 1.378-2.702 2.51-2.119 2.516 2.722.028 8.812-7.939 8.213-10.745-.247-1.155-.803-.483-1.645 1.99m89.236 18.394c-.075 11.479-.392 23.187-.703 26.018-.704 6.387.362 6.863 11.584 5.175 12.356-1.859 13.619-3.424 14.407-17.852 1.424-26.106-1.963-32.276-18.476-33.656l-6.675-.557-.137 20.872m-26.113-18.896-4.25.383v23.442c0 22.11-.114 23.557-2 25.443-2.654 2.654-2.674 2.63 2.5 2.909 8.525.459 12.014.465 16.749.029l4.749-.438-.031-8c-.028-7.252-.168-7.819-1.499-6.059-.807 1.068-1.468 2.677-1.468 3.576 0 4.411-9.857 8.399-12.08 4.888-1.039-1.641-1.241-16.25-.239-17.252 1.23-1.231 6.281 4.626 6.918 8.022.343 1.829.993 3.325 1.444 3.325 1.129 0 1.681-18.91.642-22l-.84-2.5-1.286 3c-1.581 3.688-5.063 6.925-6.496 6.039-1.356-.838-1.209-9.424.283-16.539 1.637-7.804 3.767-7.482 9.929 1.5 2.642 3.85 5.154 7.123 5.584 7.273.871.305 3.233-15.815 2.493-17.013-.465-.752-12.882-.768-21.102-.028M9.4 735.5c.001 8.25.156 11.492.344 7.204.188-4.287.187-11.037-.002-15-.19-3.962-.343-.454-.342 7.796m200.747-12.247c-.633.633-1.147 4.131-1.147 7.811 0 3.664-.484 9.087-1.076 12.05-1.021 5.109-1.396 23.747-.497 24.646.232.233 1.292.146 2.356-.191 5.256-1.668 8.937-22.741 6.326-36.217-1.016-5.246-4.322-9.739-5.962-8.099M73 725.968c0 .532-1.237 1.639-2.75 2.46-3.246 1.761-2.435 2.069 1.148.437 2.534-1.155 4.336-3.865 2.571-3.865a.972.972 0 0 0-.969.968m66.433 2.972c-.513.498-2.283 1.098-3.933 1.333l-3 .427 3 .135c3.032.136 6.395-1.273 5.404-2.264-.295-.296-.957-.13-1.471.369m289.317 5.722c.688.278 1.813.278 2.5 0 .688-.277.125-.504-1.25-.504s-1.937.227-1.25.504m-90.25 3.315c1.1.467 3.462 2.214 5.25 3.88 1.788 1.667 3.25 2.638 3.25 2.159 0-1.376-7.292-7.023-8.978-6.953-1.036.044-.883.335.478.914m73.941 2.491c-1.067.808-1.434 1.483-.813 1.5.62.018 1.687-.643 2.372-1.468 1.581-1.905.935-1.918-1.559-.032M57.356 748.75c.325 4.813.602 11.112.617 14 .034 6.572 2.15 7.103 3.985 1 .703-2.337 2.378-7.51 3.723-11.494 2.78-8.241 2.659-8.782-2.17-9.688-1.931-.362-3.511-1.088-3.511-1.613 0-.525-.728-.955-1.617-.955-1.41 0-1.541 1.115-1.027 8.75m36.714-6.881c-.55 1.027-.691 2.177-.314 2.554.377.377.131 1.029-.547 1.448-1.392.86-5.292 13.963-4.33 14.547.341.208 2.871.536 5.621.73l5 .352-.255-5c-.324-6.362-2.423-16.5-3.416-16.5-.417 0-1.209.841-1.759 1.869m14.581-1.101c-1.459.329-1.764 1.134-1.45 3.824.218 1.875.038 3.408-.402 3.408-.439 0-.799-1.35-.799-3 0-2.094-.487-3-1.613-3-1.224 0-1.508.724-1.174 3 .316 2.152.032 3-1.004 3-1.192 0-1.328 1.354-.781 7.75 1.364 15.923 3.531 21.691 6.889 18.333 1.298-1.298 1.316-1.5 1.642-18.071.124-6.319.635-12.254 1.136-13.19 1.045-1.952.212-2.652-2.444-2.054M425 742.642c0 .537.7 1.849 1.555 2.917 1.467 1.83 1.487 1.798.365-.559-1.458-3.061-1.92-3.628-1.92-2.358M82.158 746c0 1.375.227 1.938.504 1.25.278-.687.278-1.812 0-2.5-.277-.687-.504-.125-.504 1.25M9.201 757.83c-.187 6.826-.564 11.063-3.217 36.17-2.59 24.511-3.517 36.171-2.904 36.549.797.493 1.545-4.915 2.911-21.049 1.23-14.531 1.746-19.996 3.117-33 .58-5.5.883-13.6.674-18l-.38-8-.201 7.33m528.878 7.753c.048 1.165.285 1.402.604.605.289-.722.253-1.585-.079-1.917-.332-.332-.568.258-.525 1.312m3.952.917c0 .55.436 1.675.969 2.5.533.825.969 1.05.969.5s-.436-1.675-.969-2.5c-.533-.825-.969-1.05-.969-.5m-11.873 2.5c0 1.375.227 1.938.504 1.25.278-.687.278-1.812 0-2.5-.277-.687-.504-.125-.504 1.25m9 1c0 1.375.227 1.938.504 1.25.278-.687.278-1.812 0-2.5-.277-.687-.504-.125-.504 1.25M22 781.059c0 .582.45.781 1 .441s1-.816 1-1.059-.45-.441-1-.441-1 .477-1 1.059m188.5-.174c2.97.641 2.998.71 2.801 6.854-.11 3.413.228 6.47.75 6.792.564.349.949-2.232.949-6.365 0-7.362-.624-8.305-5.332-8.048-1.578.086-1.352.295.832.767m-152.963 1.174c.319.518 2.204.941 4.189.941 4.426 0 4.023-.524-.998-1.299-2.25-.347-3.538-.203-3.191.358m10.461.066c.005 1.402 41.379 2.831 42.735 1.475.169-.169-9.377-.711-21.215-1.204-11.837-.493-21.521-.615-21.52-.271m87.502.947c-1.541.718-1.091.857 1.959.606 8.935-.734 26.041 11.661 31.967 23.165.947 1.839 1.971 3.093 2.276 2.788 2.085-2.085-11.292-17.021-20.123-22.471-5.913-3.649-5.923-3.662-3.006-4.292 1.87-.403.398-.649-4.073-.679-3.85-.027-7.9.371-9 .883m157.972 1.271c-10.967 4.705-19.659 14.609-15.692 17.882 1.134.935 1.649.967 1.935.119.68-2.021 6.075-7.166 11.234-10.715 9.81-6.748 22.419-5.524 30.948 3.005 4.196 4.196 7.103 5.061 7.103 2.113 0-1.679-9.512-10.749-13.654-13.019-4.532-2.483-15.36-2.178-21.874.615m112.528-.7c-8.298 2.787-19 10.584-19 13.843 0 3.412 3.481 2.448 7.945-2.2 6.068-6.319 11.327-8.207 20.234-7.265 7.909.836 15.037 4.562 17.374 9.082 1.902 3.678 4.049 3.264 3.674-.708-.871-9.243-18.514-16.685-30.227-12.752m-310.153.453c1.356.527 3.677.547 5.5.048 2.806-.767 2.547-.868-2.347-.91-4.326-.038-4.999.146-3.153.862m10.966-.413c.721.289 1.584.253 1.916-.079.332-.332-.258-.568-1.312-.525-1.165.048-1.402.285-.604.604m9.971.055c2.905.203 7.405.201 10-.004 2.594-.206.216-.371-5.284-.369-5.5.003-7.622.171-4.716.373m98.295 9.845c.048 1.165.285 1.402.604.605.289-.722.253-1.585-.079-1.917-.332-.332-.568.258-.525 1.312m-132.396 2.482c-.999.61-3.61 1.243-5.801 1.407-2.191.163-4.261.574-4.6.912-1.3 1.3-3.488.594-2.9-.936.341-.89.173-1.291-.393-.941-.544.336-.989 1.259-.989 2.052 0 .793-.9 1.441-2 1.441s-2 .389-2 .864-1.965 1.615-4.366 2.532-6.955 3.678-10.12 6.135c-3.165 2.458-6.15 4.469-6.634 4.469s-.88.45-.88 1c0 1.558 2.751 1.184 6.802-.925 13.567-7.06 37.949-12.725 47.281-10.985l9.861 1.837c2.994.558 6.482.753 7.75.435 1.268-.318 2.306-.138 2.306.402 0 .539 1.912 1.274 4.25 1.632 6.707 1.029 17.917 4.702 21.799 7.144 1.953 1.227 5.858 3.225 8.679 4.438 2.821 1.214 5.906 3.065 6.856 4.114.949 1.05 2.331 1.908 3.071 1.908 6.486 0-16.065-16.75-28.306-21.025-2.833-.99-6.208-2.474-7.5-3.298-5.012-3.197-38.485-6.859-42.166-4.612M27 798.059c0 .582.45.781 1 .441s1-.816 1-1.059-.45-.441-1-.441-1 .477-1 1.059M83.5 798c-.34.55-.141 1 .441 1S85 798.55 85 798s-.198-1-.441-1-.719.45-1.059 1m129.609 2.75c.059 2.063.465 6.45.901 9.75.717 5.426.778 5.068.641-3.746-.083-5.361-.489-9.748-.901-9.75-.412-.002-.701 1.684-.641 3.746M538.5 798c-.34.55-.141 1 .441 1s1.059-.45 1.059-1-.198-1-.441-1-.719.45-1.059 1m-460.372.9c-.754.478-1.203 1.375-.997 1.994.21.63.928.241 1.631-.884 1.401-2.243 1.335-2.358-.634-1.11m79.415 1.031c-.317.512-.118 1.213.441 1.559.559.345 1.016-.074 1.016-.931 0-1.757-.6-2.015-1.457-.628m4.615 2.069c0 1.375.227 1.938.504 1.25.278-.687.278-1.812 0-2.5-.277-.687-.504-.125-.504 1.25m380.842.559c0 .857.457 1.276 1.016.931.559-.346.758-1.047.441-1.559-.857-1.387-1.457-1.129-1.457.628M166.158 804c0 1.375.227 1.938.504 1.25.278-.687.278-1.812 0-2.5-.277-.687-.504-.125-.504 1.25m3.857 1.191c.03 2.511 1.952 4.579 1.97 2.118.008-1.205-.435-2.469-.985-2.809-.55-.34-.993-.029-.985.691m-109.933 3.177c-1.145 1.852-2.082 3.877-2.082 4.5 0 .623-.675 1.132-1.5 1.132s-1.5.45-1.5 1 .505 1 1.122 1c.776 0 .738.464-.122 1.5-1.351 1.628-1.028 1.832 1.418.893.894-.343 1.582-1.764 1.582-3.265 0-1.462.901-4.338 2.002-6.393 2.494-4.652 1.879-4.897-.92-.367m114.325-1.036c.326 1.007.593 2.197.593 2.643 0 .446.675 1.07 1.5 1.387 2.061.79 1.844-.392-.615-3.362-1.479-1.785-1.902-1.976-1.478-.668m363.751.668c0 1.375.227 1.938.504 1.25.278-.687.278-1.812 0-2.5-.277-.687-.504-.125-.504 1.25m-19.079 1.583c.048 1.165.285 1.402.604.605.289-.722.253-1.585-.079-1.917-.332-.332-.568.258-.525 1.312M366.065 812.5c-.051 2.2-.33 5.125-.62 6.5-.319 1.511.119 1.029 1.108-1.218 1.248-2.837 1.395-4.377.62-6.5-.989-2.711-1.017-2.679-1.108 1.218m-173.626-.706c.403.711.189 1.949-.475 2.75-.665.801-.78 1.456-.255 1.456.524 0 1.555 1.124 2.29 2.498.736 1.375 1.528 2.308 1.761 2.075.565-.565-1.917-7.807-3.111-9.073-.606-.644-.681-.539-.21.294m49.565.701c-.682.822-1.004 2.397-.716 3.5.289 1.103.117 2.005-.382 2.005-1.646 0-.942 2.847 1.344 5.434 2.246 2.541 2.255 2.542 4.737.623l2.487-1.923-2.237-2.382c-1.23-1.309-2.237-2.914-2.237-3.566 0-.653-.48-1.186-1.067-1.186-.613 0-.797-.853-.433-2 .754-2.377.21-2.561-1.496-.505m281.455-.428c-.363.586-.445 1.281-.183 1.543s.743-.218 1.069-1.067c.676-1.762.1-2.072-.886-.476M94 813.38c-3.025.72-7.242 2.054-9.372 2.964-2.13.911-4.412 1.656-5.073 1.656-.66 0-3.792 1.462-6.96 3.25-8.308 4.687-8.534 4.833-14.802 9.5-3.139 2.337-6.15 4.25-6.691 4.25-.541 0-1.272.466-1.624 1.036-.433.7 1.495.818 5.941.362 7.899-.809 8.261-.026 2.831 6.129-8.678 9.836-12.214 16.573-14.151 26.963-1.294 6.939-.146 8.648 3.418 5.084 2.144-2.144 2.942-2.457 3.603-1.414.582.919.854.449.865-1.493.021-4.004 2.431-2.873 2.841 1.333.344 3.522-5.086 10-8.382 10-.794 0-1.444.9-1.444 2 0 2.286-1.795 2.699-2.601.599-.295-.771-1.424-1.634-2.508-1.917-1.557-.407-1.835-1.058-1.323-3.099.544-2.166.308-2.583-1.46-2.583-2.597 0-2.618.791-.108 4 2.084 2.664 2.648 6 1.014 6-.542 0-2.183-1.809-3.646-4.02-2.804-4.238-4.376-4.789-2.324-.816 1.592 3.084 5.051 6.836 6.302 6.836.548 0 1.901.788 3.006 1.75 1.985 1.728 1.989 1.719.329-.723-2.003-2.946-2.122-4.044-.431-3.978.688.027 2.272 2.104 3.521 4.615 1.631 3.28 1.869 4.412.844 4.018-.785-.301-2.186.291-3.113 1.316-1.599 1.766-1.576 1.834.439 1.307 1.288-.337 2.899.145 4.092 1.225 1.78 1.611 1.967 1.623 1.967.125 0-2.245 1.473-2.08 5.29.592 1.766 1.235 3.368 2.33 3.56 2.433.193.103.036.696-.349 1.319-.503.813-1.163.734-2.35-.282-3.074-2.631-4.747-3.17-2.74-.883 2.378 2.712 1.382 3.928-1.817 2.216-1.322-.707-2.865-1-3.43-.651s-1.661-.27-2.435-1.376c-.775-1.106-1.695-1.723-2.046-1.372C40.409 903.924 25 892.554 25 888.603c0-.341-1.35-2.484-3-4.762-1.65-2.277-3-5.172-3-6.432 0-2.277-1.624-4.118-2.692-3.051-.798.799 2.214 7.947 5.442 12.911 1.512 2.327 2.975 4.72 3.25 5.317 1.665 3.615 14.704 11.528 21.083 12.794 1.329.264 5.291 1.627 8.803 3.029 5.344 2.133 6.119 2.254 4.75.741-2.032-2.245-2.083-3.764-.151-4.506 1.656-.635 3.984 2.787 2.991 4.395-.61.987 12.48 14.89 14.157 15.038 2.68.236 4.486.889 5.759 2.082.787.737 4.661 3.591 8.609 6.341 7.452 5.192 9.999 8.522 9.999 13.073 0 2.152.267 2.45 1.373 1.532.756-.627 2.106-.859 3-.515 1.158.444 1.627.065 1.627-1.316 0-2.593-1.037-3.488-2.569-2.217-.807.67-1.468.692-1.858.061-.333-.539-.191-1.236.317-1.55.507-.313.688-1.465.402-2.559-.375-1.436.137-2.243 1.844-2.904 2.177-.842 2.104-.91-.914-.857-1.866.033-3.804-.623-4.5-1.524-.672-.871-2.309-1.727-3.638-1.903C93.221 931.441 84 920.003 84 916.832c0-1.818.432-1.983 3.75-1.434l3.75.62-3.365-1.509c-1.85-.83-3.935-1.509-4.633-1.509-2.536 0-3.361-8.753-1.252-13.292 1.124-2.42 3.497-3.251 3.082-1.08-.092.483 3.058.93 7 .994 3.943.063 6.268-.072 5.168-.3-5.169-1.073-12.17-3.655-13.756-5.073-2.739-2.448-3.206-.905-3.226 10.649-.017 10.449.08 10.925 3.27 16.063 1.809 2.913 3.074 5.511 2.811 5.773-1.157 1.158-5.567-4.942-7.596-10.505-1.555-4.265-2.634-5.924-3.611-5.549-.765.294-1.392-.012-1.392-.68s-.661-.96-1.468-.651c-2.11.81-2.892-1.048-.908-2.158 1.471-.824 1.256-1.468-1.845-5.529-1.931-2.529-3.796-4.312-4.145-3.963-1.197 1.197-.633 5.919.938 7.86 1.485 1.834 1.539 1.75.982-1.525-.546-3.205-.482-3.318.851-1.5.83 1.134 1.216 3.094.91 4.629C68.721 910.148 74.05 919 76.441 919c.74 0 1.618.712 1.952 1.582 1.55 4.038-.199 3.192-7.055-3.413-8.699-8.382-12.301-20.267-7.13-23.528 2.307-1.455 6.333.837 7.834 4.46.645 1.558 1.858 3.401 2.696 4.096 1.675 1.391 1.272-2.278-.967-8.799-.843-2.453-.727-3.781.555-6.35 1.354-2.714 1.375-3.044.123-2.006-2.273 1.887-2.954.387-2.896-6.378.112-13.022 3.086-18.125 5.343-9.164.623 2.475 1.624 4.5 2.225 4.5.644 0 .802-.719.384-1.75-.662-1.634-.837-4.543-.603-10.045.054-1.263 1.203-3.4 2.553-4.75 2.243-2.244 2.288-2.455.525-2.455-1.627 0-1.841-.51-1.362-3.25 1.796-10.281 7.776-27.69 9.067-26.398.285.284-.003 3.606-.64 7.38-1.215 7.203-1.079 21.248.205 21.261.412.004.756 1.244.764 2.757.007 1.513.285 3.763.616 5 1.253 4.674 1.877 1.931 1.628-7.15-.378-13.805 1.754-25.847 6.077-34.314 3.493-6.842 4.4-7.187 16.808-6.391 2.129.136 2.713 1.769 4.46 12.489 2.365 14.506 2.698 27.348.738 28.445-1.436.804-1.464 1.273-.239 4.04 2.903 6.558 3.134 4.769 2.903-22.53-.057-6.688.281-12.398.751-12.688 1.021-.631 3.544 4.29 5.049 9.849.596 2.2 2.458 8.034 4.139 12.964 3.327 9.759 3.726 12.528 1.806 12.551-.829.01-.745.334.25.963.825.52 1.963 2.843 2.53 5.161 1.086 4.445 3.47 6.493 3.47 2.981 0-1.125.833-4.2 1.851-6.833s2.661-9.737 3.652-15.787c2.674-16.335 3.814-16.708 6.026-1.975 1.819 12.118 1.818 12.475-.029 12.475-1.167 0-1.056.444.5 2s2 3.333 2 8c0 7.103 1.756 8.103 2.195 1.25.202-3.145.727-4.666 1.555-4.5 1.575.315 1.571-.262-.022-3.035-.864-1.504-1.095-4.462-.721-9.215.65-8.272 1.856-6.73 4.673 5.977 2.588 11.674 3.012 15.184 2.886 23.918-.092 6.416.179 8.256 1.157 7.881 1.776-.682 1.661 4.214-.178 7.57-.8 1.46-2.58 6.479-3.956 11.154-2.459 8.353-4.847 13.075-6.02 11.902-.328-.327.133-2.338 1.023-4.468 3.014-7.212-.188-17.769-5.474-18.049-3.538-.187-3.326 1.147.892 5.626 2.195 2.33 3.99 4.821 3.99 5.536 0 3.376-2.535 11.721-3.696 12.167-.717.275-1.304 1.267-1.304 2.204 0 .938-.918 2.69-2.039 3.893-1.121 1.204-1.587 2.189-1.035 2.189s1.485-.9 2.074-2c1.236-2.31 3-2.656 3-.589 0 .776-1.35 2.547-3 3.936-3.529 2.969-3.599 3.182-1.098 3.371 1.115.084 2.11-.655 2.406-1.788.592-2.264 3.692-2.625 3.692-.43 0 1.619 2.458 1.783 7.5.5l3-.763-2.75-.119c-1.512-.065-2.75-.588-2.75-1.162s-.771-.911-1.714-.75c-.986.169-1.866-.449-2.073-1.456-.245-1.193.263-1.75 1.597-1.75 1.293 0 2.119-.848 2.435-2.5.263-1.375.09-2.5-.384-2.5-1.251 0-1.046-2.123.491-5.067.736-1.411 1.634-3.739 1.993-5.173 1.617-6.442 9.018-11.242 13.573-8.804 5.316 2.845 4.634 8.507-2.141 17.784-3.544 4.853-3.64 5.155-1.302 4.089 1.389-.632 2.525-1.753 2.525-2.49 0-1.358 1.086-1.713 4.25-1.391.963.098 1.75-.349 1.75-.992 0-.644-.675-.911-1.5-.594-1.02.391-1.5-.054-1.5-1.393 0-1.083.477-1.969 1.059-1.969s.82-.387.528-.86c-.79-1.277 1.589-5.769 3.779-7.136 1.981-1.238 2.034 5.963.174 23.496l-.53 5 1.453-5.5c.799-3.025 1.471-7.796 1.495-10.603.097-11.689 1.177-17.266 3.429-17.709 2.024-.398 2.018-.421-.137-.552-1.238-.075-2.259-.698-2.27-1.386-.066-4.193-2.515-17.137-5.531-29.231-2.843-11.405-3.499-15.952-3.536-24.511-.033-7.444-.334-9.996-1.032-8.753-1.086 1.933-3.437.445-14.252-9.016-2.678-2.344-6.053-4.535-7.5-4.869-1.446-.334-3.655-1.249-4.91-2.032-9.488-5.925-43.947-10.115-57.219-6.958m440.731 1.54c-.435 1.663-.305 2.054.437 1.312.582-.582.86-1.647.62-2.369-.25-.749-.703-.295-1.057 1.057M282.5 815c-.34.55-.141 1 .441 1s1.059-.45 1.059-1-.198-1-.441-1-.719.45-1.059 1m165.5-.059c0 .518.45 1.219 1 1.559 3.552 2.195-1.973 5.5-9.196 5.5-4.437 0-4.912-.244-6.306-3.25-1.416-3.05-1.476-3.079-.979-.478.753 3.94-1.396 4.378-9.087 1.853-3.561-1.169-7.252-2.09-8.203-2.046-3.068.14 8.11 4.872 13.105 5.547 3.593.486 5.027 1.177 5.587 2.69.742 2.006.762 2.004 1.323-.14.383-1.464 1.346-2.176 2.944-2.176 1.307 0 4.742-.614 7.633-1.364 5.005-1.298 5.332-1.262 6.826.75 1.542 2.078 1.558 2.068.951-.599-.512-2.25-.147-2.971 2.142-4.223l2.76-1.51-3.173.583c-2.525.463-3.442.151-4.491-1.527-1.369-2.194-2.836-2.798-2.836-1.169m112.419 5.73c-1.517 2.656-3.429 5.62-4.249 6.586-.821.966-1.982 2.607-2.581 3.646C549.43 838.117 534.967 858 533.877 858c-.482 0-.877.71-.877 1.577s-1.35 2.927-3 4.577-3 3.614-3 4.364-.452 1.643-1.005 1.985c-.553.342-2.88 3.406-5.172 6.809s-4.778 6.555-5.524 7.004c-.746.449-2.485 2.603-3.864 4.787-1.378 2.184-5.141 6.766-8.361 10.184-8.009 8.5-17.074 19.897-17.074 21.466 0 .515-.9 1.752-2 2.747-1.1.995-2.01 2.303-2.022 2.905-.058 2.834-3.558 5.807-4.913 4.173-2.783-3.353-6.472-1.924-13.995 5.422-4.076 3.98-8.038 7-9.184 7-1.109 0-4.207 2.25-6.886 5-5.272 5.412-6.109 5.779-8 3.5-3.522-4.244-13.769.169-23.718 10.213-3.969 4.008-7.408 7.287-7.642 7.287-1.374 0-3.818-14.844-3.467-21.058.389-6.886.362-6.978-1.375-4.733-1.893 2.447-1.875 5.204.116 17.895 1.118 7.121 1.648 9.111 3.399 12.747.931 1.931.826 2.574-.59 3.61-.948.693-1.723 1.617-1.723 2.054 0 .437.788.114 1.75-.718.962-.833 3.322-2.042 5.244-2.688 1.921-.646 5.192-2.352 7.268-3.791 2.076-1.438 4.084-2.305 4.462-1.927.724.724-2.335 7.176-4.472 9.43-.688.727-1.252 1.714-1.252 2.194 0 .479-2.376 3.709-5.28 7.178-5.128 6.126-8.72 11.181-8.72 12.272 0 .294 15.798.535 35.107.535 33.043 0 35.065-.103 34.388-1.75-1.297-3.155-1.77-29.507-.633-35.25 4.546-22.959 7.609-31.831 14.166-41.04 1.085-1.523 1.974-3.149 1.977-3.614.002-.465 1.245-2.196 2.762-3.846s3.5-4.125 4.406-5.5c.906-1.375 4.95-6.158 8.987-10.629 11.73-12.992 24.698-30.125 39.639-52.371 4.618-6.875 9.849-14.3 11.626-16.5 3.902-4.831 9.121-14.287 8.325-15.084-.316-.315-1.814 1.6-3.331 4.255m-30.795-1.132c-.965 2.514-.681 3.163.498 1.136.584-1.004.851-2.036.593-2.293-.257-.258-.749.263-1.091 1.157m-14.612 4.438c-.863 1.614-.778 1.87.465 1.394.838-.322 1.523-1.212 1.523-1.978 0-1.953-.747-1.734-1.988.584m-469.151 1.079c-2.237 1.949-2.246 2.001-.167.995 1.207-.584 2.471-1.509 2.809-2.056.983-1.591-.094-1.158-2.642 1.061m137.266 2.422c-2.27 2.462-4.113 5.05-4.095 5.75.018.715.669.397 1.488-.728 7.454-10.236 13.134-10.017 19.977.768 1.52 2.396 1.84 6.449 2.38 30.167.343 15.069.969 27.744 1.391 28.167 1.83 1.829-.124-56.45-1.989-59.343-6.759-10.482-12.562-11.931-19.152-4.781m67.373-2.925c-2.2.779-4.103 1.424-4.23 1.432-1.012.066-4.58 9.273-5.294 13.661-2.816 17.302 10.088 36.662 30.024 45.046 9.315 3.917 27 6.058 27 3.269 0-.443-2.185-4.328-4.855-8.633-4.825-7.779-4.886-7.832-9.821-8.447-8.407-1.048-9.013-1.719-9.823-10.865-.39-4.415-1.113-8.276-1.606-8.581-.492-.304-.895-1.47-.895-2.59 0-3.412-3.242-7.77-6.606-8.88-2.321-.766-3.059-1.53-2.722-2.817 1.372-5.249-10.987-4.928-13.561.352-.844 1.731-.985 1.764-1.043.25-.185-4.775 8.755-7.672 13.459-4.362 9.139 6.431 13.298 13.938 14.363 25.924.746 8.397 1.293 9.212 6.907 10.293 4.278.824 4.836.12 3.481-4.387-8.837-29.376-22.279-45.094-34.778-40.665m110.013-.574c-.764 1.237.686 3.986 3.394 6.437 2.431 2.2 2.769.995.593-2.112-.825-1.178-1.227-2.853-.893-3.723.672-1.751-2.056-2.282-3.094-.602M523 824c0 .55.45 1 1 1s1-.45 1-1-.45-1-1-1-1 .45-1 1m24.314.75c-.342.962-.811 2.2-1.042 2.75-.231.55.288.126 1.154-.941 1.572-1.939 2.047-3.559 1.043-3.559-.293 0-.812.788-1.155 1.75m-509.335 6.771c-4.539 4.626-7.405 5.867-6.3 2.729.473-1.343.108-1.227-1.57.5-1.203 1.237-2.619 2.25-3.148 2.25-.529 0-.961.477-.961 1.059s.45.781 1 .441c2.448-1.513 3.029.849.825 3.355-1.279 1.455 1.275-.708 5.675-4.805 4.4-4.098 8.42-7.803 8.933-8.233.514-.431.711-1.007.438-1.279-.273-.273-2.474 1.519-4.892 3.983m455.93-3.701c-2.617 1.118-8.207 6.215-7.544 6.878.338.338 1.706-.562 3.04-2.001 3.819-4.121 7.171-4.478 10.66-1.135 1.614 1.547 2.935 3.703 2.935 4.792s.268 1.712.595 1.384c1.107-1.107-.76-6.814-2.873-8.782-2.158-2.011-4.033-2.323-6.813-1.136m26.88.706a103.19 103.19 0 0 1-1.239 3.974c-.373 1.1.055.736.95-.81.895-1.545 1.452-3.334 1.239-3.974-.214-.641-.641-.276-.95.81m17.211-.467c0 .582.45.781 1 .441s1-.816 1-1.059-.45-.441-1-.441-1 .477-1 1.059m-519.921 1.524c.048 1.165.285 1.402.604.605.289-.722.253-1.585-.079-1.917-.332-.332-.568.258-.525 1.312M216.458 833a969.48 969.48 0 0 1 1.14 11.75c.363 3.987 1.035 7.25 1.494 7.25 1.131 0-.021-12.324-1.73-18.5l-1.383-5 .479 4.5m324.209-3.333c-.367.366-.653 1.379-.637 2.25.025 1.3.221 1.257 1.092-.242 1.077-1.852.765-3.228-.455-2.008m-17.029 3.833c-.316.825-.139 1.5.393 1.5.533 0 .969-.675.969-1.5s-.177-1.5-.393-1.5c-.216 0-.652.675-.969 1.5M543 834c0 .55.45 1 1 1s1-.45 1-1-.45-1-1-1-1 .45-1 1m-81.253.586c-.341.341-.198 1.728.317 3.082 2.908 7.648-2.147 10.833-7.531 4.744-1.903-2.151-3.731-4.7-4.064-5.662-.902-2.613-3.785-2.12-7.312 1.25-1.726 1.65-2.748 3-2.27 3 .477 0 1.428-.675 2.113-1.5 2.896-3.49 8.296-1.063 11.46 5.151 1.078 2.117 2.062 4.007 2.186 4.201.123.194 1.254-.369 2.512-1.25 3.863-2.706 4.842-2.055 4.842 3.216 0 7.445-5.887 24.758-9.091 26.739-.53.327-3.007-.394-5.505-1.604-2.601-1.258-8.893-2.794-14.723-3.593-5.599-.766-12.431-1.903-15.181-2.525-2.75-.623-10.85-1.228-18-1.346l-13-.214 12 .72c6.6.396 14.25 1.205 17 1.798 2.75.592 6.756 1.365 8.902 1.716 4.493.735 14.555 9.558 16.639 14.59 1.397 3.373-.8 6.665-6.384 9.57-1.564.813-2.59 1.731-2.281 2.04 3.278 3.278 27.445-25.413 27.593-32.759.017-.852.405-1.977.862-2.5 4.419-5.049 3.358-33.306-1.084-28.864M210.5 836c.34.55.816 1 1.059 1s.441-.45.441-1-.477-1-1.059-1-.781.45-.441 1m83.851.858c-1.136.795-3.354 11.544-3.343 16.202.009 4.337 3.171 14.847 5.762 19.158 1.085 1.805 2.267 4.528 2.625 6.051 1.438 6.103 16.069 18.854 28.74 25.045 6.399 3.127 12.474 5.657 13.5 5.622 1.209-.041.634-.627-1.635-1.666a383.77 383.77 0 0 1-8.232-3.936c-2.602-1.284-5.144-2.334-5.649-2.334-1.168 0-10.899-6.497-13.878-9.266-6.191-5.754 7.496-19.61 21.958-22.231l7.301-1.323-5.846-.09c-3.215-.049-8.39.634-11.5 1.519-10.06 2.863-17.603 5.507-19.869 6.966-3.032 1.951-2.828 2.102-5.731-4.239-4.099-8.951-5.863-16.098-5.119-20.729.364-2.259.801-5.736.973-7.726.406-4.704 1.382-6.169 3.705-5.562 1.038.272 1.887.086 1.887-.413 0-.498-.337-.94-.75-.983-.413-.042-1.477-.218-2.366-.391-.889-.174-2.029-.027-2.533.326M414.5 837l-8 .633 7.691.184c4.259.101 7.967-.263 8.309-.817.34-.55.479-.917.309-.817-.17.101-3.909.469-8.309.817m18 0c-.34.55.007 1 .772 1s1.992 1.125 2.728 2.5c1.27 2.373 3 3.377 3 1.74 0-.794-4.784-6.24-5.481-6.24-.221 0-.679.45-1.019 1m97.124.539c-.965 2.514-.681 3.163.498 1.136.584-1.004.851-2.036.593-2.293-.257-.258-.749.263-1.091 1.157m-46.752 1.211c-1.243 1.586-1.208 1.621.378.378 1.666-1.307 2.195-2.128 1.372-2.128-.207 0-.995.788-1.75 1.75M301 839.259c0 .693-.9 1.822-2 2.509-1.1.687-1.986 1.808-1.97 2.49.017.683.489.454 1.05-.508s1.915-1.75 3.01-1.75c2.544 0 9.91 3.731 9.91 5.02 0 2.027 2.006.869 3.5-2.02.883-1.708 1.11-3 .526-3-.564 0-1.026.675-1.026 1.5 0 1.906-2.386 1.945-3.947.064-.655-.789-2.555-1.735-4.221-2.101-3.317-.728-2.759-2.038 1.168-2.742 1.601-.287.972-.498-1.75-.585-2.822-.09-4.25.287-4.25 1.123m11.497-.519c1.648.242 3.301.933 3.674 1.536.477.772 1.139.712 2.242-.204 2.118-1.757 7.329-.671 11.044 2.303l2.958 2.367 1.812-2.304c.997-1.267 2.816-2.498 4.043-2.735 1.357-.262.761-.484-1.52-.567-2.318-.084-3.655.294-3.5.989.461 2.073-2.101 2.022-3.217-.064-1.007-1.882-1.949-2.048-10.818-1.911-5.343.082-8.366.348-6.718.59m34.316-.057c.721.289 1.584.253 1.916-.079.332-.332-.258-.568-1.312-.525-1.165.048-1.402.285-.604.604m10.437.006c.962.252 2.538.252 3.5 0 .962-.251.175-.457-1.75-.457s-2.712.206-1.75.457m6.563-.006c.721.289 1.584.253 1.916-.079.332-.332-.258-.568-1.312-.525-1.165.048-1.402.285-.604.604m4 0c.721.289 1.584.253 1.916-.079.332-.332-.258-.568-1.312-.525-1.165.048-1.402.285-.604.604m5 0c.721.289 1.584.253 1.916-.079.332-.332-.258-.568-1.312-.525-1.165.048-1.402.285-.604.604m142.656.367c-.95 1.538.351 2.53 1.635 1.246.718-.718.735-1.277.052-1.699-.56-.346-1.319-.142-1.687.453M1 840.559c0 .857.457 1.276 1.016.931.559-.346.758-1.047.441-1.559C1.6 838.544 1 838.802 1 840.559m523.081.29c-1.633 3.052-1.295 3.902.521 1.309.881-1.258 1.368-2.522 1.081-2.808-.287-.287-1.007.388-1.602 1.499m-278.414-.182c-1.073 1.073-.77 3.81.635 5.731 1.145 1.567 1.295 1.29 1.25-2.306-.051-3.969-.509-4.802-1.885-3.425m255.971.833c-.316.825-.139 1.5.393 1.5.533 0 .969-.675.969-1.5s-.177-1.5-.393-1.5c-.216 0-.652.675-.969 1.5m-21.347 1.328c-.322.919-1.186 3.168-1.918 4.995-.733 1.828-1.514 6.103-1.736 9.5-.254 3.888-.169 4.707.23 2.21.483-3.03 1.436-4.506 4.031-6.25 1.975-1.327 2.732-2.283 1.809-2.283-.874 0-1.872.457-2.217 1.016-.346.559-1.045.759-1.555.444-1.206-.745 1.675-6.48 4.3-8.56 2.015-1.597 2.015-1.601-.169-2.173-1.503-.392-2.372-.048-2.775 1.101m-223.212.755c.048 1.165.285 1.402.604.605.289-.722.253-1.585-.079-1.917-.332-.332-.568.258-.525 1.312m-51.079.186c0 .433.787 1.486 1.75 2.341 5.745 5.102 9.544 10.959 8.639 13.318-.397 1.035-.044 1.572 1.035 1.572 2.422 0 3.215 3.06 1.179 4.549-1.228.897-1.386 1.467-.551 1.983 1.927 1.191 3.044-1.749 2.406-6.339-.474-3.418-1.615-5.33-5.528-9.263-2.711-2.726-4.93-5.292-4.93-5.703 0-.41-.9-1.308-2-1.995s-2-.895-2-.463m322.951.79c-1.51 1.82-2.083 5.64-.719 4.797 1.05-.648 2.998-5.459 2.438-6.019-.212-.212-.985.338-1.719 1.222M0 849.667c0 2.566.163 4.479.362 4.25.877-1.008 1.358-8.917.543-8.917-.498 0-.905 2.1-.905 4.667m520-2.167c-.718.865-.815 1.5-.229 1.5.558 0 1.274-.675 1.591-1.5.316-.825.419-1.5.229-1.5-.19 0-.906.675-1.591 1.5m11 1.606c0 1.042-.402 1.894-.893 1.894s-1.195.787-1.564 1.748c-.436 1.136.491.7 2.643-1.242 1.823-1.645 3.629-3.219 4.013-3.498.384-.28-.403-.573-1.75-.652-1.787-.105-2.449.367-2.449 1.75M22.5 849c-.34.55-.141 1 .441 1S24 849.55 24 849s-.198-1-.441-1-.719.45-1.059 1m492.5 0c-.901.582-1.025.975-.309.985.655.008 1.469-.435 1.809-.985.767-1.242.421-1.242-1.5 0m-397.985.691c.035 1.845 1.953 3.908 1.97 2.118.008-.93-.435-1.969-.985-2.309-.55-.34-.993-.254-.985.191m149.774 2.053c-2.048 2.347-3.798 5.821-3.749 7.44.022.724.753-.034 1.625-1.684s2.276-3.79 3.121-4.756c.844-.966 1.31-1.981 1.035-2.256-.275-.275-1.189.29-2.032 1.256m-155.433 1.755c.079 1.375.467 2.5.863 2.5.395.001.459.676.143 1.501-.319.83-.029 1.5.648 1.5.781 0 1.005-.814.62-2.25-.331-1.237-.609-3.038-.616-4-.008-.962-.416-1.75-.908-1.75-.492 0-.83 1.125-.75 2.499m378.144-.249c2.596 2.237 2.602 2.273.956 6.25-.91 2.2-2.358 4.79-3.216 5.756-.859.966-1.293 2.024-.966 2.352.988.988 6.687-8.917 6.707-11.658.022-3.003-1.644-4.95-4.237-4.95-1.584 0-1.473.33.756 2.25m30.5-.75c-.685.825-.852 1.52-.372 1.544.479.025-.8.927-2.844 2.007-2.687 1.418-3.543 2.415-3.089 3.596.546 1.424.766 1.444 1.716.157.599-.813 2.046-1.987 3.217-2.61 1.17-.624 2.345-2.272 2.611-3.664.563-2.945.437-3.05-1.239-1.03m-478.333 1.167c-.367.366-.653 1.379-.637 2.25.025 1.3.221 1.257 1.092-.242 1.077-1.852.765-3.228-.455-2.008M45 854c0 .55.477 1 1.059 1s.781-.45.441-1-.816-1-1.059-1-.441.45-.441 1m-26.757 3.984c-1.483 4.753-1.613 6.808-.346 5.466.875-.926 2.619-9.45 1.934-9.45-.189 0-.904 1.793-1.588 3.984m14.424-3.317c-.367.366-.667 1.131-.667 1.7 0 .626.466.567 1.183-.15.651-.651.951-1.416.667-1.7-.284-.285-.817-.217-1.183.15m62.416-.343c.23.178 1.992 1.344 3.917 2.592l3.5 2.267-2.806-2.591c-1.543-1.426-3.305-2.592-3.916-2.592-.611 0-.924.146-.695.324m-81.004 2.259c.048 1.165.285 1.402.604.605.289-.722.253-1.585-.079-1.917-.332-.332-.568.258-.525 1.312m510.588-.916c-.367.366-.667 1.131-.667 1.7 0 .626.466.567 1.183-.15.651-.651.951-1.416.667-1.7-.284-.285-.817-.217-1.183.15m4.205 1.083c-1.269 1.619-1.222 1.64.628.283 1.1-.807 2.188-1.594 2.417-1.75.229-.156-.054-.283-.628-.283s-1.662.788-2.417 1.75m-9.852 3.726c-.789.95-.865 1.524-.201 1.524 1.208 0 2.617-1.897 1.924-2.591-.252-.251-1.027.229-1.723 1.067M113 862.5c0 .825.45 1.5 1 1.5s1-.675 1-1.5-.45-1.5-1-1.5-1 .675-1 1.5m-72.532 1.601c-.367 1.155-.247 2.52.266 3.033.577.577.933-.224.933-2.101 0-3.573-.289-3.798-1.199-.932m17.782.502c-2.16 2.464-2.965 6.349-1.599 7.715.987.987 3.281-2.517 3.317-5.068.018-1.237.482-2.25 1.032-2.25s1-.675 1-1.5c0-2.17-1.187-1.821-3.75 1.103M512.5 863c.34.55.816 1 1.059 1s.441-.45.441-1-.477-1-1.059-1-.781.45-.441 1m-480.833.667c-.367.366-.628 1.829-.581 3.25.084 2.536.102 2.53.967-.367.909-3.043.775-4.044-.386-2.883m489.061 1.267c-.298 1.136-.159 2.066.307 2.066 1.433 0 2.247-2.118 1.212-3.153-.639-.639-1.167-.261-1.519 1.087M27.232 867c0 1.925.206 2.712.457 1.75.252-.962.252-2.538 0-3.5-.251-.962-.457-.175-.457 1.75m8.963-.5c.02 1.65.244 2.204.498 1.231.254-.973.237-2.323-.037-3-.274-.677-.481.119-.461 1.769m472.536-.58c-.435 1.663-.305 2.054.437 1.312.582-.582.86-1.647.62-2.369-.25-.749-.703-.295-1.057 1.057m-495.064.747c-1.317 1.316-.608 2.853 1.841 3.989 1.371.636 2.492.796 2.492.357 0-.44-.667-1.055-1.483-1.368-.844-.324-1.229-1.232-.893-2.107.592-1.542-.708-2.121-1.957-.871m249.334.851C263 870.3 267.716 877 269.676 877c.882 0 2.201.788 2.932 1.75 1.759 2.318 1.759.186-.001-3.207-.766-1.476-1.562-2.177-1.769-1.557-.703 2.108-3.703-.136-5.774-4.319-1.359-2.746-2.063-3.479-2.063-2.149M349 867c-4.434.543-3.367.692 5.5.767 6.939.058 10.262-.225 9-.767-2.272-.976-6.534-.976-14.5 0m17.179-.487c.282.282 4.97.665 10.417.852 6.965.24 8.569.11 5.404-.438-5.128-.887-16.594-1.188-15.821-.414m110.821.239c0 .597-1.487 2.004-3.304 3.127-2.928 1.81-3.256 2.449-2.885 5.626.244 2.09.892 3.427 1.554 3.206.634-.212.988-1.809.802-3.617-.265-2.578.085-3.347 1.717-3.774 2.031-.531 3.846-3.924 2.707-5.062-.325-.325-.591-.103-.591.494m-454 1.807c0 .857.45 1.281 1 .941.55-.34 1-1.041 1-1.559s-.45-.941-1-.941-1 .702-1 1.559m480.611 1.318c-2.306 2.548-.868 3.271 3.149 1.582 3.256-1.369 4.694-3.231 1.57-2.032-.919.352-1.964.165-2.324-.417-.413-.668-1.295-.349-2.395.867m14.547-.975c-1.042.644-.956.962.401 1.482 2.06.791 3.191-.034 1.866-1.359-.518-.518-1.538-.573-2.267-.123m-323.129 1.059c-.809.512-1.211 1.191-.893 1.509.319.318 1.148-.108 1.844-.946 1.443-1.738 1.166-1.902-.951-.563m44.971-.079c0 .55.45 1.278 1 1.618.55.34 1 .168 1-.382s-.45-1.278-1-1.618c-.55-.34-1-.168-1 .382m243.02.594c-.789.95-.865 1.524-.201 1.524 1.208 0 2.617-1.897 1.924-2.591-.252-.251-1.027.229-1.723 1.067M220.158 873c0 1.375.227 1.938.504 1.25.278-.687.278-1.812 0-2.5-.277-.687-.504-.125-.504 1.25m-31.889-.307c.973.254 2.323.237 3-.037.677-.274-.119-.481-1.769-.461-1.65.02-2.204.244-1.231.498M510 873c-.825.533-1.05.969-.5.969s1.675-.436 2.5-.969c.825-.533 1.05-.969.5-.969s-1.675.436-2.5.969m-477 .941c0 .518.45 1.219 1 1.559.55.34 1-.084 1-.941S34.55 873 34 873s-1 .423-1 .941m53.25 1.982c-2.338 1.699-4.25 3.537-4.25 4.083 0 1.622 1.296 1.087 4.962-2.047 4.622-3.95 8.361-3.895 12.166.178 1.612 1.726 3.207 2.862 3.544 2.525 1.226-1.227-5.425-6.748-8.774-7.284-2.728-.437-4.236.065-7.648 2.545m389.315-1.231c-.815 2.123-.769 2.174 1.451 1.594 2.821-.738 3.318-1.965 1.037-2.562-1.142-.298-2.153.095-2.488.968m42.399-.299c-2.035 1.935-5.964 3.015-5.964 1.639 0-.78-.566-.8-1.934-.067-2.552 1.365-5.171 1.396-3.066.035.942-.609 1.048-.975.285-.985-.668-.008-1.691.875-2.273 1.962-.863 1.614-.778 1.87.465 1.394 2.099-.806 1.932 1.59-.227 3.269-1.62 1.259-1.601 1.304.25.595 4.822-1.845 14.5-7.351 14.5-8.249 0-1.307-.297-1.247-2.036.407m-381.605 3.471c-3.457 2.172-4.888 3.941-3.949 4.88.336.335 1.844-.544 3.35-1.955 1.507-1.41 3.727-2.862 4.933-3.226 2.846-.859 10.359 2.92 11.048 5.556.283 1.08.991 1.804 1.574 1.609 2.277-.759 1.637-2.663-1.768-5.26-4.732-3.61-10.951-4.266-15.188-1.604M219.406 881c-.365 2.75-1.056 5-1.535 5-.479 0-.871 1.098-.871 2.441 0 1.343-.468 2.73-1.041 3.084-.572.354-.786 1.446-.474 2.427.937 2.953-1.24 6.971-4.97 9.171-1.933 1.141-3.515 2.511-3.515 3.044 0 .533 1.307.039 2.904-1.099 1.598-1.137 3.407-2.068 4.022-2.068.614 0 1.635-1.137 2.268-2.526 1.368-3.003 2.991-2.756 3.929.6.373 1.334.722-3.761.777-11.324.105-14.378-.375-17.187-1.494-8.75m248.673-3.417c.048 1.165.285 1.402.604.605.289-.722.253-1.585-.079-1.917-.332-.332-.568.258-.525 1.312M22 877.941c0 .518.445 1.216.989 1.552.566.35.734-.051.393-.941-.665-1.732-1.382-2.049-1.382-.611m261.046 1.145c.614 1.147 1.315 1.886 1.559 1.643.699-.7-.719-3.729-1.747-3.729-.511 0-.426.938.188 2.086m-42.408.414c.317.825 1.033 1.5 1.591 1.5.586 0 .489-.635-.229-1.5-.685-.825-1.401-1.5-1.591-1.5-.19 0-.087.675.229 1.5m37.868.506c2.04 2.255 2.855 2.1 1.911-.363-.347-.904-1.328-1.643-2.179-1.643-1.308 0-1.267.31.268 2.006m-33.235.942c.086 1.142.623 1.921 1.193 1.731 1.421-.474 1.309-2.921-.157-3.41-.696-.232-1.127.467-1.036 1.679M10.195 882.5c.02 1.65.244 2.204.498 1.231.254-.973.237-2.323-.037-3-.274-.677-.481.119-.461 1.769m45.48 1.158c-.362.362-.148 1.272.475 2.023.895 1.079.789 1.233-.509.735-1.972-.757-2.277 1.837-.391 3.325 2.315 1.827 4.836 1.132 4.202-1.158-.512-1.848-.347-1.801 1.463.417 2.422 2.967 2.614 2.202.636-2.532-1.36-3.256-4.113-4.572-5.876-2.81m445.828 3.385c-12.152 6.097-17.432 6.43-14.48.914.819-1.53.727-1.798-.462-1.342-4.058 1.557-2.903 8.718 1.257 7.793 4.125-.918 20.324-8.47 22.632-10.551 2.055-1.854-1.248-.678-8.947 3.186M111.067 884c-.866 2.111-.812 6.145.07 5.263.568-.568.831-2.097.584-3.398-.247-1.301-.541-2.14-.654-1.865m138.959.306c.801.882 7.999 5.694 8.518 5.694 1.66 0-.14-1.933-3.294-3.539-4.729-2.407-5.886-2.885-5.224-2.155m8.951 1.671c1.178 1.178 2.641 1.723 3.618 1.348 1.385-.531 1.272-.833-.728-1.942-3.594-1.993-5.156-1.672-2.89.594m-229.481 1.364c1.786 2.737 6.219 5.277 7.309 4.187.291-.29.019-.528-.604-.528-.622 0-2.803-1.462-4.845-3.25-3.711-3.247-3.713-3.248-1.86-.409M475 887c0 .55.927 1 2.059 1 1.132 0 1.781-.45 1.441-1-.34-.55-1.266-1-2.059-1-.793 0-1.441.45-1.441 1m14 0c0 .55.477 1 1.059 1s.781-.45.441-1-.816-1-1.059-1-.441.45-.441 1m-437.967 1.25c.035 1.322 3.39 5.75 4.356 5.75.313 0-.209-1.564-1.16-3.475-1.744-3.505-3.257-4.583-3.196-2.275m24.999 0c.017.688.753 2.15 1.634 3.25 1.409 1.758 1.526 1.778.969.168-.349-1.007-.635-2.47-.635-3.25 0-.78-.45-1.418-1-1.418s-.986.563-.968 1.25m5.968-.368c0 .55.45 1.278 1 1.618.55.34 1 .168 1-.382s-.45-1.278-1-1.618c-.55-.34-1-.168-1 .382m-36.325.834c-.862 1.396 1.976 6.936 3.94 7.69 2.449.94 3.468-.303 1.797-2.192-.833-.943-2.32-2.8-3.304-4.126-1.057-1.425-2.053-1.986-2.433-1.372m101.939.848c-.329.857.081 1.765.946 2.097 2.244.862 2.907-.336 1.156-2.088-1.356-1.356-1.585-1.357-2.102-.009m60.95.143c-.542 1.425-.428 1.54.56.56.684-.679.991-1.486.683-1.793-.308-.308-.867.247-1.243 1.233m-76.564.325c0 1.064 4.166 3.043 4.927 2.341.493-.455-3.056-3.294-4.177-3.341-.412-.018-.75.433-.75 1m8 .191c0 1.92 2.617 4.206 3.387 2.959.311-.503-.324-1.72-1.411-2.703-1.664-1.506-1.976-1.547-1.976-.256m-31.44 1.681c-.432.698-.292 1.764.31 2.366 1.476 1.476 2.036.664 1.177-1.704-.519-1.428-.907-1.601-1.487-.662m360.44.278c-1.925.537-4.962 1.215-6.75 1.507-6.102.995-3.689 2.833 3.248 2.476 6.754-.349 8.664.949 4.252 2.889-1.958.86-1.86.914.75.416 1.65-.315 5.186-.734 7.858-.929 2.671-.196 5.336-.835 5.921-1.42.751-.751-.043-.976-2.706-.767-2.351.185-3.952-.178-4.254-.965-.267-.695-1.122-1.018-1.902-.719-1.256.482-1.884-.712-1.535-2.92.14-.888-.29-.85-4.882.432M9.079 893.583c.048 1.165.285 1.402.604.605.289-.722.253-1.585-.079-1.917-.332-.332-.568.258-.525 1.312m50.165-.919c-1.576.636-.618 2.336 1.315 2.336.793 0 1.441-.675 1.441-1.5 0-1.542-.573-1.716-2.756-.836M217 893c0 .55.477 1 1.059 1s.781-.45.441-1-.816-1-1.059-1-.441.45-.441 1m61 1.1c0 1.045-.45 1.9-1 1.9s-1 .675-1 1.5.675 1.5 1.5 1.5 1.5-.55 1.5-1.223c0-.672.718-.196 1.597 1.057 1.892 2.702 5.981 2.642 5.764-.084-.096-1.211.587-1.75 2.219-1.75 1.679 0 2.192.429 1.785 1.492-.67 1.744-.592 1.771 11.135 3.892 4.95.895 10.012 1.902 11.25 2.238 1.583.43 2.25.18 2.25-.845 0-1.463-3.939-3.777-6.43-3.777-.735 0-1.555-.836-1.823-1.858-.532-2.034-4.854-3.312-6.908-2.042-.935.577-.607 1.07 1.185 1.785 2.351.938 2.366.991.285 1.052-1.205.034-2.469-.387-2.809-.937-.34-.55-2.016-1-3.726-1-1.709 0-2.794-.313-2.412-.695.726-.726-6.855-3.187-11.612-3.769-2.153-.264-2.75.076-2.75 1.564m13-1.129c0 1.059 6.033 2.992 7.25 2.323 2.391-1.314.437-3.294-3.25-3.294-2.2 0-4 .437-4 .971m186.5.029c.34.55.816 1 1.059 1s.441-.45.441-1-.477-1-1.059-1-.781.45-.441 1m-273.421 1.583c.048 1.165.285 1.402.604.605.289-.722.253-1.585-.079-1.917-.332-.332-.568.258-.525 1.312m76.921.8c0 .211.901.619 2.001.907 1.101.288 1.75.115 1.441-.383-.538-.871-3.442-1.313-3.442-.524m-227 2.049c0 1.676 5.634 5.97 6.338 4.83.6-.97-3.871-6.262-5.29-6.262-.576 0-1.048.644-1.048 1.432m149.869.568c-.591 1.498.59 13.72 1.648 17.053.723 2.279 3.376 3.281 5.037 1.902 2.253-1.869 5.522-12.738 3.446-11.455-.55.34-1 1.47-1 2.512 0 3.126-2.253 7.086-3.856 6.777-1.761-.339-2.934-3.99-3.949-12.289-.404-3.3-1-5.325-1.326-4.5m-64.369 1.742c2.2.223 4.712 1.048 5.581 1.834 1.983 1.791 3.321.683 1.443-1.195-.851-.851-3.233-1.316-6.203-1.213-4.722.165-4.739.177-.821.574M8.195 902.5c.02 1.65.244 2.204.498 1.231.254-.973.237-2.323-.037-3-.274-.677-.481.119-.461 1.769m100.555-1.838c.688.278 1.813.278 2.5 0 .688-.277.125-.504-1.25-.504s-1.937.227-1.25.504m-84.457 1.675c-.285.461-.006 1.35.622 1.978 1.228 1.228 4.147-.002 4.825-2.034.417-1.253-4.668-1.201-5.447.056m402.148.131c-1.067.808-1.465 1.483-.882 1.5.582.018 1.932-.629 3-1.436 1.067-.808 1.465-1.483.882-1.5-.582-.018-1.932.629-3 1.436m-252.446 2.026c.682.822 1.025 2.622.761 4-.634 3.319.843 3.24 1.679-.09.65-2.592-.744-5.404-2.68-5.404-.559 0-.454.658.24 1.494m-98.916 1.089c.048 1.165.285 1.402.604.605.289-.722.253-1.585-.079-1.917-.332-.332-.568.258-.525 1.312m94.162.667c-3.146 3.358-6.077 11.986-3.041 8.95 1.822-1.822 3.8-1.436 3.8.741 0 2.49-1.708 3.546-3.427 2.12-1.058-.878-1.43-.49-1.773 1.851-.363 2.473-.176 2.811 1.132 2.042 6.088-3.575 7.654-7.615 4.124-10.638-1.924-1.647-1.923-1.694.068-4.49 2.42-3.398 2.01-3.665-.883-.576m247.081.076c-1.748.646-3.548 1.583-4 2.083-.482.533-.059.635 1.021.246 1.013-.365 2.926-.935 4.25-1.268 1.324-.332 2.407-1.005 2.407-1.495 0-.491-.113-.858-.25-.816-.137.042-1.68.604-3.428 1.25M7.261 909.262c-.154 3.048-.098 3.104.955.955.711-1.451.771-2.63.163-3.238-.607-.607-1.015.224-1.118 2.283M220 912.992c0 5.818-.323 7.193-1.926 8.194-1.671 1.044-1.728 1.347-.429 2.296 1.327.971 1.319 2.108-.071 10.056-1.785 10.202-1.878 12.023-.433 8.462 2.197-5.417 5.176-36 3.506-36-.356 0-.647 3.146-.647 6.992m-187.645-3.395c-1.73.853-4.171 2.643-5.425 3.977L24.651 916l2.026 2.25c3.14 3.489 3.636 5.75 1.26 5.75-1.1 0-2.259-.675-2.575-1.5-.827-2.154-4.105-1.848-5.362.5-.589 1.1-1.719 2-2.512 2-.793 0-2.162 1.099-3.042 2.441-.879 1.343-2.352 2.641-3.273 2.884-1.499.397-1.491.455.077.559.963.064 1.75.261 1.75.437C13 933.583 4.329 946 2.75 946c-.413 0-.782-1.013-.82-2.25-.067-2.147-.11-2.158-.93-.25-1.341 3.121-1.28 3.184 3.75 3.855 2.612.349 7.9 1.097 11.75 1.662 3.85.566 8.575 1.22 10.5 1.455 1.925.234 5.3.659 7.5.945l4 .521-3.25-1.114c-3.388-1.16-4.549-4.082-1.5-3.772 3.684.375 4.394-.024 3.734-2.101-.77-2.427 1.416-6.121 6.278-10.605 1.88-1.735 2.816-3.126 2.079-3.092-3.772.173-4.843-.378-4.871-2.504-.028-2.009-.14-2.063-1.05-.5-2.047 3.515-4.248 2.288-5.382-3-.648-3.022-.511-3.25 1.942-3.25 1.616 0 2.382-.414 1.978-1.068-.363-.588-1.234-.848-1.935-.579-1.805.692-3.903-4.19-2.517-5.86.585-.705.995-1.667.911-2.138-.41-2.284.251-3.124 2.083-2.645 1.1.288 2 .976 2 1.529 0 .615.528.567 1.359-.122 1.747-1.45 6.641 2.158 6.641 4.897 0 1.027.45 2.146 1 2.486 1.286.795 1.265-.44-.07-4.27-1.807-5.185-9.698-7.532-15.575-4.633M347.5 910c.34.55 1.068 1 1.618 1s.722-.45.382-1c-.34-.55-1.068-1-1.618-1s-.722.45-.382 1m-317.961 3.581c-1.798 2.744-1.371 5.863.708 5.17 1.327-.442 2.94-7.751 1.711-7.751-.401 0-1.489 1.161-2.419 2.581M358 911.94c6.24 1.116 27.628 2.188 22.5 1.128-2.2-.455-9.175-1.077-15.5-1.381-7.122-.342-9.787-.246-7 .253m31 .06c-3.452.727-3.438.737 1 .75 2.475.007 5.85-.33 7.5-.75 2.839-.722 2.785-.763-1-.75-2.2.007-5.575.345-7.5.75m-368.5 1c-.34.55-.168 1 .382 1s1.278-.45 1.618-1c.34-.55.168-1-.382-1s-1.278.45-1.618 1m52.532-.25c.058 1.368 2.937 4.615 3.549 4.002 1.036-1.035-.645-4.752-2.148-4.752-.788 0-1.419.337-1.401.75m-35.508 1.211c-.396.64.595 1.533 2.401 2.163 1.691.589 3.075 1.478 3.075 1.974s.483.902 1.073.902c.591 0 .901-.788.691-1.75-.211-.962-.975-1.619-1.699-1.458-.723.16-2.114-.432-3.091-1.315-1.205-1.091-1.992-1.257-2.45-.516M54.2 915.2c-.66.66-1.186 1.672-1.17 2.25.017.578.489.262 1.05-.7 1.11-1.905 3.92-2.401 3.92-.691 0 .582.498.751 1.107.375.771-.477.696-.944-.25-1.544-1.878-1.189-3.249-1.098-4.657.31m38.989.886c.87.487 5.57 1.099 10.446 1.361 7.317.393 7.904.328 3.365-.373-9.882-1.525-15.486-1.926-13.811-.988m-79.376.597c.721.289 1.584.253 1.916-.079.332-.332-.258-.568-1.312-.525-1.165.048-1.402.285-.604.604m100.456 1.01c.973.254 2.323.237 3-.037.677-.274-.119-.481-1.769-.461-1.65.02-2.204.244-1.231.498m12.481.03c1.787.222 4.713.222 6.5 0 1.787-.221.325-.403-3.25-.403s-5.037.182-3.25.403m-68.727 4.465c-2.279 4.718-2.393 5.159-1.127 4.376 1.477-.913 5.15-8.564 4.111-8.564-.528 0-1.871 1.885-2.984 4.188m-2.564-2.121c-.363.586-.445 1.281-.183 1.543s.743-.218 1.069-1.067c.676-1.762.1-2.072-.886-.476m-8.298 2.47c-1.807 1.877-1.969 2.479-.845 3.143.765.451 1.646 1.495 1.958 2.32.379.999.594.749.647-.75.043-1.237.477-2.25.962-2.25 1.402 0 2.024-3.822.704-4.328-.655-.252-2.197.588-3.426 1.865M206.5 921c-.34.55-.141 1 .441 1s1.059-.45 1.059-1-.198-1-.441-1-.719.45-1.059 1m6 0c.34.55 1.068 1 1.618 1s.722-.45.382-1c-.34-.55-1.068-1-1.618-1s-.722.45-.382 1M41 924.122c0 1.774.247 1.918 1.5.878.825-.685 1.5-1.64 1.5-2.122 0-.483-.675-.878-1.5-.878-.862 0-1.5.902-1.5 2.122m363.104-1.208c-.898.569-1.124 1.543-.633 2.735.508 1.234.918 1.432 1.231.595.258-.691.88-1.002 1.383-.691.503.311.915-.362.915-1.494 0-2.232-.725-2.519-2.896-1.145M4.136 926.5c-.09 1.1-.413 3.125-.718 4.5-.48 2.158-.401 2.257.577.724.623-.976.947-3.001.719-4.5-.27-1.775-.471-2.028-.578-.724M173 926c-1.828 1.181-.249 1.181 2.5 0 1.319-.567 1.489-.878.5-.914-.825-.031-2.175.381-3 .914m18 .5c.685.825 2.202 1.484 3.372 1.465 2.005-.034 1.983-.119-.372-1.465-3.275-1.872-4.554-1.872-3 0m7.5.5c-1.63.701-1.688.872-.309.93.93.038 1.969-.38 2.309-.93.711-1.15.676-1.15-2 0m-170.468 1.939c-.69 1.29-.702 2.147-.035 2.559 1.497.925 3.003-.358 3.003-2.557 0-2.496-1.632-2.497-2.968-.002m84.279.236c-3.195 3.411-4.068 6.504-4.044 14.325.013 3.85.22 6.438.461 5.75.621-1.77 2.272-1.554 2.272.298 0 2.091 4.862 6.211 8.239 6.981 3.427.782 4.525 2.438 2.567 3.873-.824.604-2.213 2.481-3.086 4.17l-1.588 3.073 3.184.107c1.751.059 6.334.547 10.184 1.084 4.153.579 7.136.608 7.333.07.53-1.439 2.167-1.051 2.167.514 0 .938 2.355 1.955 6.947 3 9.001 2.047 10.972 1.911 4.233-.291-2.927-.956-5.627-2.197-6-2.757-.374-.56-1.467-1.308-2.43-1.664-1.868-.689-2.423-2.708-.745-2.708.553 0 3.337 1.125 6.187 2.5s5.661 2.498 6.245 2.496c1.758-.006-4.533-3.467-10.937-6.016-3.3-1.314-6.543-2.786-7.206-3.271-.664-.485-1.675-.591-2.248-.237-.574.354-2.016-.038-3.207-.872-1.19-.834-4.454-2.242-7.252-3.128-9.231-2.926-12.999-7.867-13.052-17.114-.047-8.226 1.799-10.374 8.87-10.318 6.765.053 14.215 3.383 21.29 9.514 13.615 11.8 23.094 15.811 33.042 13.981 3.628-.667 9.263-4.863 9.263-6.896 0-.543-1.125.069-2.5 1.361-1.751 1.645-2.511 1.922-2.536.924-.021-.84-1.009-.234-2.407 1.476-2.184 2.67-2.756 2.855-7.214 2.325-6.111-.725-15.506-5.418-21.343-10.66l-4.5-4.042 2.361-2.011c1.298-1.107 1.893-2.012 1.321-2.012-.571 0-1.714.675-2.539 1.5-2 2-1.923 2.021-7.752-2.076-5.863-4.122-7.223-4.576-15.397-5.151-5.293-.372-6.264-.146-8.183 1.902m-90.299 2.312L19.651 934h2.568c1.474 0 2.839-.71 3.207-1.667 1.123-2.928-.971-3.447-3.414-.846m41.509-.358c-5.629 1.816-11 4.996-5.771 3.416 1.39-.42 2.25-.256 2.25.43 0 .61 1.952-.035 4.338-1.433 2.386-1.398 5.112-2.542 6.059-2.542.947 0 1.443-.45 1.103-1-.756-1.224-.634-1.241-7.979 1.129m78.986-.14c-.35.566.051.734.941.393 1.732-.665 2.049-1.382.611-1.382-.518 0-1.216.445-1.552.989M35 932c0 .55.675 1 1.5 1s1.5-.45 1.5-1-.675-1-1.5-1-1.5.45-1.5 1m4.5 0c-.399.646-.276 1.624.274 2.174.667.667 1.242.609 1.726-.174.399-.646.276-1.624-.274-2.174-.667-.667-1.242-.609-1.726.174m-9.406 1.387c-.71.855-.81 1.67-.247 2.018.519.321 1.226-.153 1.572-1.054.848-2.21.138-2.727-1.325-.964m19.906.582c0 .532.675.709 1.5.393.825-.317 1.5-.753 1.5-.969 0-.216-.675-.393-1.5-.393s-1.5.436-1.5.969m125 1.84c0 2.17.48 3.191 1.5 3.191 1.889 0 1.875-1.92-.032-4.441-1.39-1.838-1.468-1.771-1.468 1.25m-149.467-.862c-.88 1.423.242 3.053 2.099 3.053.876 0 1.378-.703 1.191-1.667-.389-2.009-2.386-2.849-3.29-1.386m48.103 3.559c-1.576.822-3.462 1.494-4.191 1.494-2.108 0-2.884 2.175-1.127 3.158.879.492 1.344 1.558 1.033 2.368-.387 1.011.097 1.474 1.542 1.474 1.159 0 2.107-.392 2.107-.872s1.711-1.146 3.801-1.48c3.541-.566 3.808-.849 3.901-4.128.12-4.223-1.222-4.67-2.021-.674-.474 2.371-1.09 2.861-3.687 2.935-3.546.101-3.645-1.703-.179-3.268 1.202-.543 2.185-1.331 2.185-1.75 0-1.002-.032-.995-3.364.743M11.86 940.75c-4.193 5.063-4.222 5.163-1.719 6.092 5.042 1.87 17.859 2.373 17.859.7 0-.848-.504-1.542-1.119-1.542-.616 0-3.712-1.575-6.881-3.5-6.722-4.084-6.285-3.989-8.14-1.75m75.673.197c-.358.579-1.765 1.053-3.127 1.053-2.166 0-2.342.25-1.406 2 1.239 2.315 3.219 2.734 2.362.5-.438-1.14.189-1.5 2.614-1.5 2.019 0 3.045-.436 2.795-1.187-.545-1.634-2.449-2.143-3.238-.866m92.65.27c-.651.65-1.183 1.868-1.183 2.706 0 1.045.502.805 1.602-.765 1.755-2.505 1.469-3.829-.419-1.941M45 943.759c0 .418.91 1.328 2.023 2.023 1.876 1.172 1.931 1.117.759-.759-1.258-2.016-2.782-2.707-2.782-1.264M55.5 947c-1.63.701-1.688.872-.309.93.93.038 1.969-.38 2.309-.93.711-1.15.676-1.15-2 0m129.5 1.839c0 1.052 4.526 3.161 6.782 3.161.929 0 .009-.9-2.043-2-4.163-2.231-4.739-2.372-4.739-1.161m-114.234 3.18c-1.504 1.64-3.304 2.995-4 3.011-2.435.059 1.658 1.732 5.979 2.444 2.334.385 4.472 1.069 4.751 1.519.278.451 1.293.62 2.255.377s5.556.229 10.21 1.05c8.177 1.442 11.455 1.482 7.057.086-2.653-.842-2.275-4.002.479-4.004 1.084-.001 2.123-.79 2.31-1.752.226-1.165-.287-1.75-1.534-1.75-1.03 0-2.401-.528-3.046-1.173-.878-.878-1.792-.891-3.633-.052-2.758 1.257-8.69.579-12.545-1.432-3.734-1.949-5.237-1.645-8.283 1.676m141.271-.475c.703.848.92 3.052.558 5.671l-.593 4.285 1.484-4.5c1.89-5.733 1.896-5.667-.543-6.305-1.665-.435-1.838-.273-.906.849m-172.224.139c.721.289 1.584.253 1.916-.079.332-.332-.258-.568-1.312-.525-1.165.048-1.402.285-.604.604m8.237 1.325c.828.463 4.418 1.075 7.977 1.359 3.56.284 5.348.296 3.973.026-1.375-.27-3.175-.759-4-1.085-2.479-.983-9.653-1.253-7.95-.3m-39.744 1.348c.36.937-.068 3.509-.951 5.715-1.757 4.39-1.397 5.57 1.352 4.437.986-.407 3.243-.89 5.015-1.073 6.881-.714 9.252-3.939 5.055-6.878-2.956-2.071-3.696-1.963-3.065.448.643 2.46-1.303 4.995-3.834 4.995-2.525 0-2.455-3.423.122-6 1.453-1.453 1.612-2 .582-2-.78 0-2.208-.303-3.174-.674-1.362-.522-1.609-.292-1.102 1.03m69.944-.694c-1.741.703-1.566 2.338.25 2.338.825 0 1.5-.675 1.5-1.5s-.112-1.464-.25-1.421c-.138.043-.812.306-1.5.583m-52.929 3.088c-.339.962-1.231 3.282-1.982 5.154-.751 1.871-1.247 3.468-1.102 3.547 2.343 1.282 6.324 2.549 8.01 2.549 2.84 0 1.061-1.722-2.237-2.165-1.48-.199-2.635-1.1-2.849-2.221-.296-1.548.105-1.796 2.24-1.388 1.429.273 2.599.109 2.599-.365 0-.473-.648-.861-1.441-.861-2.054 0-3.063-2.07-1.484-3.046.732-.453 2.702-.622 4.378-.376 3.021.444 3.017.435-.453-.989-4.623-1.898-4.957-1.888-5.679.161m59.222-.819c-.74 1.197 1.141 2.382 2.473 1.559 1.119-.691.384-2.49-1.016-2.49-.485 0-1.141.419-1.457.931M90.5 957c-.34.55-.141 1 .441 1S92 957.55 92 957s-.198-1-.441-1-.719.45-1.059 1m-50.75 5.124C35.125 966.101 33.67 969 36.3 969c.715 0 1.728-.406 2.25-.903s1.841-1.064 2.931-1.26c1.341-.242 1.987-1.161 2-2.847.015-1.948.518-2.472 2.31-2.406 1.571.057 2.196-.411 1.989-1.489-.541-2.806-3.182-2.139-8.03 2.029m84.888-2.624c-.35.914-.001 1.5.893 1.5.808 0 1.469-.675 1.469-1.5s-.402-1.5-.893-1.5-1.152.675-1.469 1.5m-70.887 2.651c.867.867.787 2.018-.323 4.676-1.671 3.998-1.144 4.716 4.217 5.75 7.971 1.537 11.228-6.369 3.98-9.66-4.729-2.147-9.744-2.636-7.874-.766m179.777.099c-1.395 4.255-4.036 23.75-3.218 23.75.378 0 1.971-8.444 4.197-22.25.448-2.779-.223-3.807-.979-1.5M104 962.924c1.375.413 3.85 1.031 5.5 1.373l3 .621-3-1.414c-1.65-.778-4.125-1.395-5.5-1.373l-2.5.041 2.5.752m456.886 2.268c-1.282 1.82-3.131 4.18-4.109 5.247-.977 1.066-1.777 2.299-1.777 2.739 0 1.019-8.769 14.734-10.576 16.54-1.826 1.827-6.606 11.434-5.993 12.046.268.269 1.51-1.256 2.759-3.388 1.25-2.132 4.255-6.783 6.678-10.335 2.423-3.553 5.531-8.503 6.907-11 1.375-2.498 4.068-6.7 5.983-9.338 1.915-2.638 3.252-5.027 2.971-5.308-.281-.28-1.56.978-2.843 2.797M56.01 966.224c-2.239 3.682-1.477 5.077 2.517 4.604 3.984-.472 5.391-3.156 3.026-5.769-2.505-2.769-3.246-2.613-5.543 1.165M210.787 966c-.242 1.65-.069 3 .386 3s.827-1.35.827-3-.174-3-.387-3c-.212 0-.584 1.35-.826 3M46 965.878c0 .482.64 1.408 1.421 2.057 1.167.968 1.325.81.884-.878-.526-2.01-2.305-2.92-2.305-1.179m81.543.053c-.317.512-.118 1.213.441 1.559.559.345 1.016-.074 1.016-.931 0-1.757-.6-2.015-1.457-.628m-56.793 1.461c-3.234 2.455-.875 5.828 4.941 7.063 6.053 1.286 9.58-3.09 5.48-6.8-2.183-1.975-7.973-2.122-10.421-.263M131.5 967c-.34.55-.168 1 .382 1s1.278-.45 1.618-1c.34-.55.168-1-.382-1s-1.278.45-1.618 1m76.579.583c.048 1.165.285 1.402.604.605.289-.722.253-1.585-.079-1.917-.332-.332-.568.258-.525 1.312m-133.936.307c-1.876 1.189-.493 5.11 1.802 5.11 3.168 0 4.825-2.964 2.576-4.608-2.21-1.617-2.556-1.656-4.378-.502m11.957 3.709c-1.502 4.154.121 7.502 2.012 4.151 1.382-2.449 2.774-2.18 3.888.75.523 1.375 1.637 2.5 2.475 2.5.96 0 1.525-.926 1.525-2.5 0-1.607.562-2.5 1.573-2.5 2.142 0 1.402-3.381-.834-3.812-1.082-.208-1.739.286-1.739 1.308 0 1.133-.699 1.543-2.25 1.32-1.661-.238-2.188-.911-2.012-2.569.407-3.835-3.136-2.802-4.638 1.352M.3 975c0 3.025.187 4.263.416 2.75.229-1.513.229-3.987 0-5.5S.3 971.975.3 975m156.996-2.952c1.626 2.482 8.289 5.701 9.432 4.557.319-.318-.953-1.263-2.824-2.099-1.872-.836-4.499-2.302-5.836-3.256l-2.433-1.736 1.661 2.534m-144.546.061c-.963.545-1.75 1.546-1.75 2.225S8.525 978.013 5.5 981c-3.025 2.987-5.486 6.122-5.468 6.966.024 1.175.372 1.067 1.486-.466 5.472-7.523 7.784-8.212 5.107-1.521C4.787 990.572 4.61 992 5.877 992c.482 0 1.855-2.362 3.05-5.25 1.196-2.888 3.083-6.943 4.194-9.012 2.416-4.498 2.243-7.109-.371-5.629m98.25-.257c0 1.212-5.82 7.148-7.009 7.148-.545 0-.991.5-.991 1.111 0 .735 1.223.882 3.614.434 2.866-.538 4.061-.259 5.768 1.344l2.153 2.023-.22-5.206c-.122-2.863-.242-5.768-.268-6.456-.052-1.377-3.047-1.768-3.047-.398m-93.118 6.03c-4.122 4.122-4.798 7.014-2.711 11.595 2.375 5.212 7.65 4.527 12.579-1.632 3.883-4.853 4.109-8.077.795-11.39-3.434-3.435-6.166-3.07-10.663 1.427m106.439-2.132c-1.977 5.614-3.341 8.25-4.27 8.25-2.241 0-.907 1.8 1.699 2.293 1.513.286 3.763.84 5 1.23 1.353.427 2.25.293 2.25-.337 0-.576-1.008-1.191-2.24-1.366-3.037-.434-3.348-3.186-.769-6.807 2.039-2.864 2.004-5.013-.081-5.013-.535 0-1.25.788-1.589 1.75m83.576 2.403c-.683 2.391-1.909 5.135-2.725 6.097-.815.962-1.017 1.75-.449 1.75 1.638 0 2.899-2.154 4.08-6.968 1.426-5.817.704-6.518-.906-.879m-187.121-.403c-5.014 5.718-5.805 12.486-1.589 13.589 3.077.804 4.517-.724 6.445-6.839 2.394-7.596-.539-11.674-4.856-6.75m15.23.734c-.553 1.455-1.006 3.085-1.006 3.622 0 .536-.892 2.194-1.982 3.684-2.266 3.099-3.034 7.305-1.437 7.877.595.213 1.69-1.458 2.434-3.712.744-2.255 2.125-4.64 3.07-5.302 2.082-1.458 2.966-7.801 1.171-8.4-.684-.229-1.696.775-2.25 2.231M110.5 977c-.729 1.18.217 3 1.559 3 .518 0 .941-.9.941-2 0-2.109-1.455-2.691-2.5-1m64.25.662c.688.278 1.813.278 2.5 0 .688-.277.125-.504-1.25-.504s-1.937.227-1.25.504m-131.29 3.52c-.384 1.751-1.545 4.689-2.58 6.531-2.459 4.378-2.526 8.558-.13 8.097 1.192-.229 1.93-1.607 2.314-4.323.311-2.193 1.548-5.882 2.75-8.197 2.661-5.126 2.67-5.29.265-5.29-1.345 0-2.129.953-2.619 3.182m94.934-1.415c-.291.953-1.42 3.7-2.508 6.104-1.087 2.404-1.751 4.597-1.475 4.873 1.151 1.152 3.591-.85 3.611-2.963.012-1.254.902-3.406 1.978-4.781 2.378-3.04 2.439-3.618.462-4.376-.945-.363-1.742.078-2.068 1.143m-88.369 4.983c-1.214 3.163-2.912 7.442-3.773 9.51-.861 2.068-1.208 4.093-.772 4.5.437.407.98.29 1.208-.26 3.618-8.74 5.812-9.717 5.812-2.588 0 2.427.515 4.586 1.144 4.798.798.269 1.065-1.61.883-6.225-.254-6.434-.164-6.702 3.356-10.039 2.505-2.374 3.114-3.431 1.982-3.437-.899-.005-2.372 1.116-3.273 2.491-2.377 3.627-3.806 3.155-3.026-1 1.034-5.51-1.077-4.169-3.541 2.25m131.788-5.067c.721.289 1.584.253 1.916-.079.332-.332-.258-.568-1.312-.525-1.165.048-1.402.285-.604.604m8.687 1.575c1.1.794 3.35 1.737 5 2.096l3 .652-2.5-1.378c-1.375-.758-3.625-1.701-5-2.096-2.393-.687-2.415-.656-.5.726m208.799 1.904c-1.739 1.739-3.988 3.223-4.998 3.297-3.148.232-4.302 1.544-4.269 4.85.03 3.041.1 3.097 1.476 1.191.795-1.1 3.818-4.358 6.719-7.241 2.9-2.883 5.039-5.245 4.754-5.25-.286-.005-1.942 1.414-3.682 3.153m-253.658.047c-2.011 7.508.067 13.257 3.359 9.291 1.023-1.233.944-1.5-.445-1.5-1.31 0-1.52-.505-.932-2.25 1.139-3.382 1.019-7.006-.246-7.443-.617-.214-1.399.642-1.736 1.902m-83.169.041c-1.83 4.915-5.152 17.389-4.794 18 .242.413 2.173.75 4.291.75h3.85l-.066-4.379c-.043-2.833.695-5.61 2.09-7.868 2.752-4.452 2.727-6.367-.093-7.123-3.412-.914-4.766-.755-5.278.62m1.195 1.417c-.811.81-.893 4.333-.101 4.333 1.867 0 4.28-2.238 3.79-3.515-.592-1.543-2.534-1.974-3.689-.818m10.834 5.583c.389 3.681.226 7.38-.396 9-.919 2.395-.815 2.75.813 2.75 2.065 0 3.082-1.867 3.082-5.659 0-3.013 5.023-8.341 7.864-8.341 3.103 0 3.541-1.86.612-2.595-2.002-.503-3.241-.046-5.346 1.97-3.054 2.926-4.641 3.4-3.768 1.125.803-2.095-.291-4.5-2.049-4.5-1.21 0-1.355 1.114-.812 6.25m86.863-4.613c-.648 1.831-3.424 8.251-4.107 9.499-.191.35 1.09 1.138 2.847 1.75 4.319 1.506 4.496 1.424 1.757-.815-3.016-2.464-1.394-4.962 2.032-3.128 1.159.62 2.107.714 2.107.209s-.947-1.166-2.105-1.469c-1.158-.303-1.911-1.143-1.672-1.867.606-1.839 4.621-2.237 7.425-.737 1.292.692 2.62.987 2.951.656 1.197-1.197-.746-2.671-4.384-3.327-2.043-.368-4.272-1.111-4.953-1.651-.875-.694-1.432-.435-1.898.88m38.449-.954c.721.289 1.584.253 1.916-.079.332-.332-.258-.568-1.312-.525-1.165.048-1.402.285-.604.604m-45.784 1.278c-.809.512-1.211 1.191-.893 1.509.319.318 1.148-.108 1.844-.946 1.443-1.738 1.166-1.902-.951-.563M93 990.749c0 1.65-.655 4.856-1.456 7.125-1.421 4.028-1.403 4.126.75 4.121 1.746-.004 2.519-.983 3.706-4.69 2.18-6.81 4.432-7.082 3.517-.425-.681 4.95-.624 5.12 1.729 5.12 2.375 0 4.754-3.216 4.754-6.428 0-1.896-6.341-6.49-9.954-7.213-2.853-.57-3.046-.419-3.046 2.39m106.57.137c-.301.488.403 1.135 1.564 1.439 1.902.497 2.047 1.031 1.464 5.363-.528 3.925-.431 4.457.524 2.888.645-1.059 1.135-3.227 1.09-4.82-.119-4.18-3.121-7.33-4.642-4.87m186.097.781c-.968.967-.819 5.333.181 5.333.466 0 .886-1.35.933-3 .09-3.155-.034-3.414-1.114-2.333M60.758 994.99c-1.681 3.715-1.489 5.01.742 5.01 1.925 0 2.21-.966 1.475-5l-.637-3.5-1.58 3.49m58.228.347c-.007 1.19-.285 3.176-.616 4.413-.742 2.77 2.343 3.235 3.313.5.342-.962 1.213-2.444 1.937-3.293 1.129-1.324.894-1.702-1.652-2.663-2.72-1.027-2.969-.939-2.982 1.043m108.112.812c-1.831 5.252-1.186 6.642.924 1.992 2.264-4.99 2.296-5.141 1.076-5.141-.496 0-1.396 1.417-2 3.149M196 995c0 .55.45 1 1 1s1-.45 1-1-.45-1-1-1-1 .45-1 1m-191.291.624c-1.446 1.447-.646 2.413 1.186 1.432 1.399-.748 2.207-.638 3.086.421 1.816 2.188.236 3.73-3.076 3.002-1.807-.397-2.905-.23-2.905.442 0 1.805 6.978 1.3 7.691-.557 1.198-3.124-3.709-7.013-5.982-4.74m161.282 3.865c1.249 1.505 3.009 1.184 3.009-.548 0-.518-.955-.941-2.122-.941-1.767 0-1.916.25-.887 1.489M134 1000.5c0 1 1 1.5 3 1.5 3.206 0 4.03-1.391 1.418-2.393-2.68-1.028-4.418-.677-4.418.893m-118.357.269c-.262.423 1.277.815 3.42.871 2.143.057 3.654-.29 3.357-.769-.664-1.076-6.125-1.158-6.777-.102" fill-rule="evenodd"/>
</svg>