<?xml version="1.0" encoding="UTF-8"?>
<!DOCTYPE svg PUBLIC "-//W3C//DTD SVG 1.1//EN" "http://www.w3.org/Graphics/SVG/1.1/DTD/svg11.dtd">
<!-- Creator: CorelDRAW 2017 -->
<svg xmlns="http://www.w3.org/2000/svg" xml:space="preserve" width="20.133mm" height="18.246mm" version="1.1" style="shape-rendering:geometricPrecision; text-rendering:geometricPrecision; image-rendering:optimizeQuality; fill-rule:evenodd; clip-rule:evenodd"
viewBox="0 0 2013.3 1824.6"
 xmlns:xlink="http://www.w3.org/1999/xlink">
 <defs>
  <style type="text/css">
   <![CDATA[
    .str0 {stroke:#282829;stroke-width:7.62;stroke-miterlimit:22.9256}
    .fil0 {fill:#282829}
   ]]>
  </style>
 </defs>
 <g id="Capa_x0020_1">
  <metadata id="CorelCorpID_0Corel-Layer"/>
  <path class="fil0 str0" d="M1675.63 1731.55c2.14,-30.44 28.98,-48.67 5.74,-88.8 -12.59,-21.73 -40.65,-41.27 -78.06,-33.92 -72.83,14.31 -59.01,129.14 15.3,116.01 32.95,-5.83 49.17,-47.11 26.17,-68.67 -32.84,-30.78 -68.58,19.02 -42.09,36.75 26,17.39 5.18,-27.96 27.03,-21.99 18.93,5.17 3.27,31.43 -8.93,35.61 -35.25,12.05 -58.82,-29.73 -41.08,-58.46 38.02,-61.54 130.28,5.11 84.82,70.56 -31.13,44.82 -122.41,40.99 -134.86,-34.01 -18.41,-110.93 147.18,-144.76 175.49,-34.03 8.28,32.42 -5.36,73.95 -29.53,80.95zm-724.49 -180.74c8.51,31.54 -18.09,40.97 -29.91,27.41 -7.54,-8.67 -5.96,-20.54 1.24,-27.15 11.82,-10.87 19.07,-4.44 28.67,-0.26zm53.62 27.36l-2.99 0.84c-0.22,-0.05 -1.23,-0.03 -1.51,-0.14 -10.36,-3.95 -5.69,-14.29 -24.05,-12.02 0.52,20.7 11.87,10.32 14.09,28.56 -11.64,-3.44 -23.47,-14.09 -22.34,-30.78 2.23,-5.72 6.48,-3.34 14.44,-13.62 2.68,-3.46 1.52,-2.92 4.79,-6.58 17.57,-2.98 30.44,9.8 32.41,22.8 -17.89,-6.22 -11.28,-16.41 -29.47,-14.37 1.44,15.81 17.05,15.65 14.63,25.31zm41.69 -44.94c-0.82,7.33 -3.94,9.49 -7.18,13.28l-18.16 0.56c-12.96,-14.63 -18.53,-33.63 9.74,-35.17 1.85,9.45 3.54,12.3 -0.58,21.38 -10.08,-5.99 -2.05,-0.5 -8.1,-11.78 -13.82,28.46 20.61,11.85 24.28,11.73zm12.33 -264.56l289.34 -0.06 0.62 48.79 -289.97 0.81 0.01 -49.54zm-358.66 0.36l289.36 -0.46 0.62 48.85 -288.74 0.74 -1.24 -49.13zm782.08 -15.2c-15.36,-135.42 187.16,-153.85 200.53,-23.01 13.66,133.6 -185.9,152.06 -200.53,23.01zm-930.59 5.75c-10.05,49.52 -55.97,92.62 -117.65,81.32 -47.14,-8.63 -92.38,-56.39 -80.74,-117.98 9.16,-48.44 56.82,-91.69 118.93,-80.26 47.55,8.75 91.43,58 79.46,116.92zm507.03 -84.26l289.71 0.15 0.34 48.96 -289.92 0.62 -0.13 -49.73zm-358.5 0.83c29.27,-2.69 273.31,-3.23 289.78,1.46l0.13 47.09 -289.94 0.33 0.03 -48.88zm770.51 -142.83c11.12,0.2 14.49,8.57 20.89,14.9 38.61,38.2 -20.39,48.8 -22.92,18.83 -1,-11.8 3.13,-12.31 9.86,-14.1 2.07,9.36 -5.87,13.21 1.95,20.83 6.22,6.06 31.1,3.34 1.46,-24.55 -8.99,-8.47 -6.36,-4.41 -11.24,-15.91zm-417.13 -634.77l633.99 -0.64 37.53 625.62 -670.04 0.53 -1.48 -625.51zm716.29 405.77c0.55,22.49 -30.74,16.96 -34.85,0.43 -6.39,-25.7 32.62,-29.91 19.18,0.08 -7.31,-2.77 -4.19,-3.82 -8.62,-10.25 -4.26,7 -4.08,14.95 6.01,15.93 10.72,1.03 5.9,-5.79 18.28,-6.19zm-1459.07 4.05l22.17 -409.86 643.78 -0.58 0.57 626.14 -677.39 0.03 10.85 -204.65c-37.4,0.42 -36.14,-34.71 -10.06,-35.1 5.34,9.16 4.19,9.37 2.95,21.48 -15.39,-7.53 0.56,-3.83 -11.29,-11.96 -2.37,17.93 5.46,18.69 18.42,14.5zm445.01 -478.11c-0.04,13.16 -8.81,26.6 15.32,20.84 4.54,-23.03 -20.12,-20.27 -23.22,-42.78 11.5,4.34 15.18,11.11 22.72,18.91 5.1,5.28 16.11,15.45 7.43,27.83 -17.98,25.63 -51.36,-24.93 -22.25,-24.8zm-52.17 -206.33l591.82 0.4 0.04 162.95 -591.96 0.01 0.1 -163.36zm917.61 95.61c30.97,-1.04 14.49,32.53 -3.08,36.27 -21.84,4.65 -37.28,-8.54 -42.22,-24.25 -12.57,-39.9 31.3,-71.93 68.13,-53.91 29.8,14.59 45.35,57.89 18.52,91.16 -51.17,63.44 -160.23,10.59 -129.44,-80.83 10.36,-30.77 38.97,-53.4 80.17,-56.24 105.46,-7.27 114.49,129.41 63.35,147.95 -0.9,-13.01 42.64,-88.45 -28.21,-117.95 -51.6,-21.48 -103.63,16.49 -92.17,68.7 12.09,55.13 88.98,57.87 97.58,9.14 4.81,-27.29 -14.8,-51.47 -42.46,-42.44 -22.71,7.41 -24.99,50.08 4.9,44.97 6.42,-11.05 -2.66,-7.93 4.93,-22.57zm-575.65 -138.82c2.24,15.59 -18.82,20.49 -29.48,9.63 -10.7,-10.9 -6.88,-31.29 14.21,-28.88 3.16,8.7 3.87,12.41 0,20.15 -6.75,-3.44 -5.48,-6.61 -8.61,-10.61 -13.11,27.46 23.38,9.74 23.88,9.71zm-801.64 715.68l-2.04 33.74c18.79,-4.63 6.38,-4 18.42,-15.14 17.22,-0.51 27.75,10.85 31.56,22.84 -16.11,-1.54 -12.14,-10.68 -21.29,-13.46 -21.2,-6.41 5.63,20.6 6.86,27.62 -17.69,-2.8 -6.47,-13.59 -28.52,-14.74 -2.02,20.81 9.4,10.56 13.79,28.93 -15.03,-0.77 -8.47,-7.78 -23.58,-13.44 -0.27,43.08 -5.37,90.4 -6.91,136.8 -4.68,141.14 -0.99,289.69 -2.29,432.07l-36.86 0.91 0.01 198.49 132.18 1.62c1.37,45.83 -9.9,114.06 17.13,143.92 31.08,34.33 80.72,24.35 136.4,24.35 57.21,0 104.53,9.66 133.81,-26.93 26.37,-32.95 10.59,-95.75 15.36,-142.19l789.94 0.48c4.62,49 -10.79,109.69 16.94,143.38 28.86,35.06 80.35,25.26 135.49,25.26 52.55,0 109.53,8.48 135.02,-25.7 24.37,-32.68 13.92,-96.37 14.96,-143.25l110.25 -1.19 -0.92 -198.74 -36.07 -0.31c0.4,-91.33 0.28,-182.83 0.07,-274.17 -0.11,-44.05 1.55,-90.78 -0.49,-134.5l-23.3 -384.53c-6.12,-82.51 -13.95,-175.2 -13.54,-257.41 36.96,4.34 85.09,22.7 104.38,40.8 25.36,23.8 29.18,74.14 27.26,114.34 -32.89,5.62 -48.25,21.65 -48.71,58.18 -0.44,34.3 0,69.14 0.08,103.49 0.07,30.58 -6.02,71.41 12.29,92.1 20.79,23.49 49.21,17.51 86.4,17.61 38.53,0.11 60.57,-3.01 71.14,-32.82 5.55,-15.68 5.14,-186.67 1.44,-201.32 -8.18,-32.4 -31.97,-35.43 -66.61,-36.95 -9.56,-74.42 1.7,-107.52 -46.2,-154.66 -32.49,-31.99 -88.27,-47.3 -143.05,-58.01 -33.87,-187.16 -68.57,-192.36 -278.13,-236.12 -294.11,-61.42 -642.51,-59.74 -935.48,0.29 -50.84,10.42 -165.23,34.09 -197.19,58.43 -23.15,17.63 -42.48,41.89 -55.84,73.46 -16.64,39.33 -14.63,62.54 -24.5,101.67 -14.24,7.07 -60.55,14.79 -81.26,22.43 -112.38,41.46 -102.39,101.93 -112.13,192.27 -18.38,1.21 -32.45,-0.37 -46.05,8.6 -33.93,22.37 -22.16,75.6 -22.16,132.91 0,95.04 -12.98,129.99 77.52,129.81 37.59,-0.07 64.76,5.55 84.49,-19.43 17.06,-21.58 10.74,-63.04 10.74,-93.14 0,-74.97 16.17,-155.31 -49.23,-157.9 1.07,-50.06 1.88,-90.38 31.78,-117.72 18.77,-17.16 74.1,-37.82 104.44,-39.05 2.57,32.31 -1.5,72.26 -3.19,104.85 -1.87,36.14 -3.01,71.92 -5.44,107.94 -2.5,36.86 -14.25,187.96 -9.17,213.23zm1126.75 -280.7c-34.85,9.04 -55.03,23.38 -67.11,51.92 -2.85,6.73 -5.11,14.07 -6.41,21.89 -0.6,3.56 -1.03,9.48 -1.68,12.25 -4.5,19.2 -13.4,11.85 -9.95,37.3 2.5,18.46 5.91,10.54 12.68,19.58 4.9,6.55 10.9,34.62 14.73,45.35 7.46,20.88 10.83,24.08 23.4,36.97 51.15,52.48 126.35,22.56 147.09,-36.62 3.11,-8.87 11.26,-41.44 14.58,-45.88 0.09,-0.13 24.76,-16.76 8.65,-44.67 -12.22,-21.17 -2.7,-19.55 -14,-46.51 -19.62,-46.8 -77.5,-63.11 -121.98,-51.58zm204.52 452.89l11.66 -2.02c-10.38,-3.23 -9.33,-16.52 -4.8,-22.73 4.96,-6.82 4.56,-2.29 10.28,-9.63 9.25,-11.88 -1.38,-5.78 11.98,-10.2 7.31,-11.77 3.01,-45.59 -0.85,-59.42 -5.82,-20.81 -21.59,-26.83 -35.7,-36.23 -21.27,-14.16 -65.19,-49.34 -83.61,-56.77 -23.25,19.71 -42.47,38.79 -86.18,38.81 -45.5,0.02 -60.93,-18.26 -86.17,-38.76 -12.42,4.4 -88.84,59.72 -106.13,71.52 -29.88,20.39 -11.1,85.88 -3.49,126.92 1.71,9.21 1.92,11.64 6.86,16.94l6.87 -16.36c23.54,1.07 36.25,-6.26 48.6,-16.94 21.44,-18.55 9.56,-24.63 6.22,-47.93 39.53,-16.19 59.89,-40.49 135.94,-39.26 25.04,0.4 51.12,5.15 73.02,12.55 27.27,9.22 39,19.92 58.77,29.82 -4.38,17.85 -13.02,24.25 3.03,40.53 7.7,7.81 20,19.62 33.7,19.16zm100.46 762.96c24.17,-7 37.81,-48.53 29.53,-80.95 -28.31,-110.73 -193.9,-76.9 -175.49,34.03 12.45,75 103.73,78.83 134.86,34.01 45.46,-65.45 -46.8,-132.1 -84.82,-70.56 -17.74,28.73 5.83,70.51 41.08,58.46 12.2,-4.18 27.86,-30.44 8.93,-35.61 -21.85,-5.97 -1.03,39.38 -27.03,21.99 -26.49,-17.73 9.25,-67.53 42.09,-36.75 23,21.56 6.78,62.84 -26.17,68.67 -74.31,13.13 -88.13,-101.7 -15.3,-116.01 37.41,-7.35 65.47,12.19 78.06,33.92 23.24,40.13 -3.6,58.36 -5.74,88.8zm-54.44 -1512.01c-7.59,14.64 1.49,11.52 -4.93,22.57 -29.89,5.11 -27.61,-37.56 -4.9,-44.97 27.66,-9.03 47.27,15.15 42.46,42.44 -8.6,48.73 -85.49,45.99 -97.58,-9.14 -11.46,-52.21 40.57,-90.18 92.17,-68.7 70.85,29.5 27.31,104.94 28.21,117.95 51.14,-18.54 42.11,-155.22 -63.35,-147.95 -41.2,2.84 -69.81,25.47 -80.17,56.24 -30.79,91.42 78.27,144.27 129.44,80.83 26.83,-33.27 11.28,-76.57 -18.52,-91.16 -36.83,-18.02 -80.7,14.01 -68.13,53.91 4.94,15.71 20.38,28.9 42.22,24.25 17.57,-3.74 34.05,-37.31 3.08,-36.27zm-77.9 768.25c-12.98,-41.97 -82.3,-74.24 -142.48,-73.61 -57.8,0.6 -126.36,32.3 -138.71,73.55l281.19 0.06zm-592.15 563.02c-9.6,-4.18 -16.85,-10.61 -28.67,0.26 -7.2,6.61 -8.78,18.48 -1.24,27.15 11.82,13.56 38.42,4.13 29.91,-27.41zm-712.04 -698.06c15.11,5.66 8.55,12.67 23.58,13.44 -4.39,-18.37 -15.81,-8.12 -13.79,-28.93 22.05,1.15 10.83,11.94 28.52,14.74 -1.23,-7.02 -28.06,-34.03 -6.86,-27.62 9.15,2.78 5.18,11.92 21.29,13.46 -3.81,-11.99 -14.34,-23.35 -31.56,-22.84 -12.04,11.14 0.37,10.51 -18.42,15.14l2.04 -33.74c-7.67,13.55 -4.18,41.06 -4.8,56.35zm765.66 725.42c2.42,-9.66 -13.19,-9.5 -14.63,-25.31 18.19,-2.04 11.58,8.15 29.47,14.37 -1.97,-13 -14.84,-25.78 -32.41,-22.8 -3.27,3.66 -2.11,3.12 -4.79,6.58 -7.96,10.28 -12.21,7.9 -14.44,13.62 -1.13,16.69 10.7,27.34 22.34,30.78 -2.22,-18.24 -13.57,-7.86 -14.09,-28.56 18.36,-2.27 13.69,8.07 24.05,12.02 0.28,0.11 1.29,0.09 1.51,0.14l2.99 -0.84zm570.41 -609.58c6.27,4.06 6.87,3.44 15.6,3.28 2.58,8.2 0.22,7.84 6.64,10.69l6.88 -58.55c-13.36,4.42 -2.73,-1.68 -11.98,10.2 -5.72,7.34 -5.32,2.81 -10.28,9.63 -4.53,6.21 -5.58,19.5 4.8,22.73l-11.66 2.02zm-804.1 -617.49c-24.13,5.76 -15.36,-7.68 -15.32,-20.84 -29.11,-0.13 4.27,50.43 22.25,24.8 8.68,-12.38 -2.33,-22.55 -7.43,-27.83 -7.54,-7.8 -11.22,-14.57 -22.72,-18.91 3.1,22.51 27.76,19.75 23.22,42.78zm699.58 682.22c4.88,11.5 2.25,7.44 11.24,15.91 29.64,27.89 4.76,30.61 -1.46,24.55 -7.82,-7.62 0.12,-11.47 -1.95,-20.83 -6.73,1.79 -10.86,2.3 -9.86,14.1 2.53,29.97 61.53,19.37 22.92,-18.83 -6.4,-6.33 -9.77,-14.7 -20.89,-14.9zm299.16 -229c-12.38,0.4 -7.56,7.22 -18.28,6.19 -10.09,-0.98 -10.27,-8.93 -6.01,-15.93 4.43,6.43 1.31,7.48 8.62,10.25 13.44,-29.99 -25.57,-25.78 -19.18,-0.08 4.11,16.53 35.4,22.06 34.85,-0.43zm-724.27 -723.6c-0.5,0.03 -36.99,17.75 -23.88,-9.71 3.13,4 1.86,7.17 8.61,10.61 3.87,-7.74 3.16,-11.45 0,-20.15 -21.09,-2.41 -24.91,17.98 -14.21,28.88 10.66,10.86 31.72,5.96 29.48,-9.63zm0.91 1452.51c-3.67,0.12 -38.1,16.73 -24.28,-11.73 6.05,11.28 -1.98,5.79 8.1,11.78 4.12,-9.08 2.43,-11.93 0.58,-21.38 -28.27,1.54 -22.7,20.54 -9.74,35.17l18.16 -0.56c3.24,-3.79 6.36,-5.95 7.18,-13.28zm-735.73 -713.78l0.02 -11.08c-12.96,4.19 -20.79,3.43 -18.42,-14.5 11.85,8.13 -4.1,4.43 11.29,11.96 1.24,-12.11 2.39,-12.32 -2.95,-21.48 -26.08,0.39 -27.34,35.52 10.06,35.1z"/>
 </g>
</svg>
