<?xml version="1.0" encoding="UTF-8"?>
<!DOCTYPE svg PUBLIC "-//W3C//DTD SVG 1.1//EN" "http://www.w3.org/Graphics/SVG/1.1/DTD/svg11.dtd">
<!-- Creator: CorelDRAW 2017 -->
<svg xmlns="http://www.w3.org/2000/svg" xml:space="preserve" width="16.999mm" height="18.246mm" version="1.1" style="shape-rendering:geometricPrecision; text-rendering:geometricPrecision; image-rendering:optimizeQuality; fill-rule:evenodd; clip-rule:evenodd"
viewBox="0 0 1699.9 1824.6"
 xmlns:xlink="http://www.w3.org/1999/xlink">
 <defs>
  <style type="text/css">
   <![CDATA[
    .fil0 {fill:black}
   ]]>
  </style>
 </defs>
 <g id="Capa_x0020_1">
  <metadata id="CorelCorpID_0Corel-Layer"/>
  <path class="fil0" d="M75.39 1124.65c25.5,0 44.91,-12.94 57.6,-27.34 16.76,-19.02 16.87,-37.89 16.74,-71.75l-0.13 -392.98c0.03,-20.47 3.23,-24.11 3.77,-42.23 1.08,-36.08 -7.81,-77.98 10.5,-77.98 17.35,0 10.62,40.19 10.62,74.32l0 962.66c0,68.59 -14.86,193.74 22.16,239.74 14.72,18.29 36.16,27.59 58.41,29.24l14.59 0c41.71,-3.04 81.8,-31.82 81.8,-77.86l0 -697.22 35.39 0 0 690.14c0,51.6 38.13,80.96 78.72,84.94l19.03 0c20.12,-1.99 39.48,-10.36 53.7,-25.51 41.48,-44.19 25.51,-161.04 25.51,-236.39 0,-117.79 -3.54,-227.03 -3.54,-346.84 0,-233.58 0,-467.17 0,-700.76 11.88,8.7 15.79,26.03 23.64,40.07 8.98,16.04 14.97,26.52 23.55,43.69 16.18,32.36 98.46,200.64 116.5,216.19 30.51,26.29 66.84,23 97.28,-0.05 14.3,-10.82 26.3,-20.49 39.9,-30.88l172.93 -138.52c94.25,-74.28 -1.16,-190.8 -94.04,-115.28l-117.85 94.5c-10.6,8.33 -11.9,10.88 -24.78,17.69 -4.65,-19.95 -30.95,-64.91 -41.45,-89.5 -12.59,-29.51 -29.48,-59.28 -43.49,-87.46 -29.04,-58.41 -68.35,-109.71 -155.73,-109.71l-360.99 0c-49.68,0 -69.84,6.4 -103.91,23.5 -23.97,12.04 -35.92,26.04 -51.06,44.5 -50.16,61.18 -36.15,161.13 -36.15,261.14 0,43.65 -0.05,87.3 0,130.95 0.06,49.43 -9.69,218.45 -0.95,255.78 8.4,35.91 36.96,59.21 71.73,59.21zm1231.64 -159.26l0 -127.41c0,-66.86 60.17,-51.83 60.17,-17.7l0 159.26c0,37.92 -60.17,43.03 -60.17,-14.15zm-49.55 -293.76l0 481.33c0,8.78 10.25,18.46 16.95,21.99 8.86,4.67 19.91,6.33 32.6,6.33l346.84 0c30.21,0 46.01,-15.81 46.01,-46.01l0 -445.94c0,-34.45 -18.64,-46.01 -53.09,-46.01 -50.11,0 -347.63,-6.7 -372.36,6.33 -6.7,3.53 -16.95,13.2 -16.95,21.98zm-513.18 976.82l0 -166.34c0,-9.17 1.8,-13.05 6.49,-18.29 17.28,-19.34 50.14,-8.68 50.14,18.29l0 166.34c0,29.6 -56.63,29.6 -56.63,0zm-70.78 -297.29l0 431.78c0,17.89 12.77,35.39 31.85,35.39l382.23 0c8.78,0 18.46,-10.25 21.99,-16.94 4.67,-8.87 6.33,-19.91 6.33,-32.61l0 -403.46c0,-38.05 -15.05,-53.09 -53.09,-53.09l-336.22 0c-12.72,0 -29.64,2.96 -37.7,8.31 -7.69,5.11 -15.39,19.05 -15.39,30.62zm647.67 272.52l0 -127.41c0,-61.83 60.17,-45.46 60.17,-17.7l0 162.8c0,36.42 -60.17,50.11 -60.17,-17.69zm-63.71 -283.14l0 453.02c0,9.86 14.92,24.77 24.78,24.77l385.77 0c22.45,0 31.85,-20.23 31.85,-42.47l0 -417.62c0,-34.45 -18.64,-46.01 -53.09,-46.01 -50.11,0 -347.63,-6.7 -372.36,6.32 -6.7,3.53 -16.95,13.21 -16.95,21.99zm0 -1309.5l0 453.02c0,19.51 27.98,28.31 49.55,28.31l339.76 0c34.45,0 53.09,-11.56 53.09,-46.01l0 -417.62c0,-21.97 -12.66,-42.47 -28.31,-42.47l-389.31 0c-9.86,0 -24.78,14.91 -24.78,24.77zm114.59 311.44l45.41 -6.2c5.25,25.8 14.02,44.38 26.49,55.73 12.47,11.36 27.78,17.03 45.93,17.03 21.5,0 39.64,-7.39 54.27,-22.19 14.62,-14.79 21.93,-33.11 21.93,-54.95 0,-20.82 -6.8,-38.02 -20.47,-51.6 -13.59,-13.51 -30.88,-20.3 -51.95,-20.3 -8.6,0 -19.26,1.72 -32.08,5.07l5.08 -39.73c3.01,0.34 5.5,0.52 7.31,0.52 19.43,0 36.81,-5.08 52.37,-15.14 15.48,-10.06 23.22,-25.54 23.22,-46.44 0,-16.6 -5.67,-30.36 -16.94,-41.28 -11.27,-10.93 -25.8,-16.34 -43.6,-16.34 -17.72,0 -32.43,5.59 -44.21,16.77 -11.78,11.18 -19.35,27.95 -22.7,50.31l-45.41 -8.26c5.59,-30.44 18.14,-54.09 37.84,-70.87 19.61,-16.77 44.12,-25.11 73.36,-25.11 20.12,0 38.7,4.3 55.64,12.99 17.03,8.6 30.02,20.38 38.96,35.26 9.03,14.96 13.51,30.79 13.51,47.56 0,15.91 -4.3,30.36 -12.82,43.43 -8.6,13.07 -21.33,23.48 -38.1,31.22 21.85,4.99 38.79,15.48 50.92,31.39 12.04,15.83 18.06,35.78 18.06,59.6 0,32.25 -11.79,59.69 -35.27,82.13 -23.56,22.45 -53.32,33.63 -89.27,33.63 -32.42,0 -59.34,-9.72 -80.75,-29.07 -21.5,-19.35 -33.72,-44.37 -36.73,-75.16zm-641.92 -14.15l0 -166.34c0,-28.5 56.62,-28.5 56.62,0l0 166.34c0,37.99 -56.62,37.99 -56.62,0zm-56.63 -3.54c45.99,12.28 98.8,121.8 119.12,164.02 13.82,28.68 3.81,23.56 64.92,23.56 7.05,0 23.41,-15.23 29.42,-20.12 50.9,-41.42 60.8,-50.66 126.3,-50.66 46.51,0 81.86,43.91 95.56,53.08 4.36,-9.09 7.08,-21.56 7.08,-35.39l0 -403.46c0,-12.7 -1.66,-23.75 -6.33,-32.61 -3.53,-6.7 -13.21,-16.94 -21.99,-16.94l-382.23 0c-47.06,0 -31.85,94.81 -31.85,141.56 0,58.99 0,117.98 0,176.96zm113.25 569.81c0,60.34 11.32,113.26 -28.31,113.26 -39.56,0 -28.31,-58.39 -28.31,-120.34 -26.73,-6.22 -37.21,-29.46 -56.63,-42.47l-0.17 286.85c0.14,33.87 12.92,49.38 46.18,49.38l343.3 0c39.14,0 53.09,-13.95 53.09,-53.09l0 -431.78c0,-13.82 -2.72,-26.3 -7.08,-35.39l-230.86 183.22c-21.21,17.35 -56.68,49.59 -91.21,50.36zm-566.27 -750.31c0,69.62 24.71,121.46 90.93,149.74 14.59,6.22 42.95,12.86 60.94,12.39 46.26,-1.19 78.66,-19.21 103.87,-44.42 58.45,-58.45 58.88,-148.33 7.07,-207.09 -24.95,-28.29 -61.23,-44.67 -98.16,-48.64l-35.15 0c-17.96,1.97 -35.25,7.02 -50.56,15.23 -17.82,9.55 -23.92,16.54 -37.37,29.87 -21.26,21.06 -41.57,52.52 -41.57,92.92z"/>
 </g>
</svg>
