<?xml version="1.0" encoding="UTF-8"?>
<!DOCTYPE svg PUBLIC "-//W3C//DTD SVG 1.1//EN" "http://www.w3.org/Graphics/SVG/1.1/DTD/svg11.dtd">
<!-- Creator: CorelDRAW X7 -->
<svg xmlns="http://www.w3.org/2000/svg" xml:space="preserve" width="16.9332mm" height="16.9332mm" version="1.1" style="shape-rendering:geometricPrecision; text-rendering:geometricPrecision; image-rendering:optimizeQuality; fill-rule:evenodd; clip-rule:evenodd"
viewBox="0 0 1693 1693"
 xmlns:xlink="http://www.w3.org/1999/xlink">
 <defs>
  <style type="text/css">
   <![CDATA[
    .fil0 {fill:#E76A24}
    .fil1 {fill:#F2F1F1}
   ]]>
  </style>
 </defs>
 <g id="Capa_x0020_1">
  <metadata id="CorelCorpID_0Corel-Layer"/>
  <path class="fil0" d="M380 154c9,19 41,39 42,74 -24,1 -34,-21 -52,-31 -5,-7 -1,-4 -8,-10 -6,-4 -7,-4 -16,-7 5,19 2,15 17,28 28,35 55,76 80,115 24,37 75,93 77,119 -32,-6 -60,-42 -90,-54 -11,-15 -14,-16 -31,-22 5,17 8,21 22,29 21,24 83,90 83,122 -29,2 -71,-34 -95,-45 -82,-36 -72,44 -80,49 -1,1 -3,2 -3,2 -43,25 -39,-17 -84,-9 3,45 70,79 72,111l-26 10c16,18 23,17 43,42 12,15 27,32 38,46 24,29 52,77 89,80 3,-330 366,-531 653,-340 176,117 247,402 95,590 -21,26 -40,48 -70,72 -32,27 -74,47 -85,59 12,25 50,28 83,55l9 -16c56,-4 38,8 71,15 11,13 11,14 36,19 -8,-23 -9,-22 -27,-29 -9,-8 -21,-12 -22,-30 26,-16 68,-26 89,-42 39,-29 20,-60 9,-91 -13,6 -9,13 -19,18 -12,-23 -3,-43 16,-53 22,-11 41,-5 65,-6l7 5c1,1 4,4 6,5 17,11 21,12 38,13 0,-21 -12,-39 -27,-51 -8,-20 -27,-56 -44,-62l-6 54c-18,-10 -13,-65 -7,-83 5,-14 11,-22 22,-29l35 -18c-14,-20 -25,-11 -31,-38 1,-1 2,-2 4,-2l11 -3c15,-1 15,7 41,8 -3,-30 -22,-27 -28,-61 32,0 42,8 69,11 -7,-30 -23,-24 -35,-43 14,-8 -1,0 15,-5 9,-3 2,2 13,-4 -7,-6 -20,-15 -29,-22 -36,-26 14,-13 -81,-65 -32,-18 -30,-17 -54,-46l-96 -98c-24,-22 -5,-16 -19,-33 -6,-6 -128,-78 -136,-100l-4 -10 10 2c15,3 82,41 106,52 20,8 99,50 110,50 8,10 1,3 9,10l76 47c-10,-19 -42,-53 -62,-63 -23,-32 -91,-61 -107,-88 -61,-106 -85,-108 -168,-132 -12,-3 -20,-9 -34,-13 -50,-16 -55,-14 -110,-40 -19,-10 -42,-30 -66,-32 7,12 80,64 94,75 31,24 75,42 93,78 5,25 3,7 -3,12 -16,-18 -13,-17 -42,-24 5,24 2,20 18,33 -6,9 3,2 -13,6 -36,-8 -82,-27 -108,-50 -28,-24 -55,-61 -78,-81 -9,-19 -47,-68 -75,-73l69 89 7 30c-36,-8 -47,-48 -87,-55 6,26 19,37 25,63 -16,-3 -51,-35 -54,-40 -6,-13 7,-5 -12,-14 -10,11 -12,-5 2,32l-26 -4c-37,-4 -189,-84 -217,-83 -16,-21 -38,-26 -52,-42 -13,-15 -26,-40 -52,-28 6,12 84,81 102,90zm200 1089c-7,-8 2,-2 -12,-10 -30,-18 -138,-80 -156,-81 17,35 39,37 81,58 68,35 33,18 87,53 2,33 -7,38 17,56 12,9 28,22 40,27 0,1 3,17 24,19 17,2 4,-4 31,2 8,-17 10,-12 17,-29 18,-14 54,8 76,19 22,11 48,23 72,36 169,90 78,46 123,96 32,37 79,68 114,103 23,23 91,98 113,101 -3,-28 -78,-138 -100,-171 -108,-158 -80,-78 -156,-114 -25,-12 -60,-37 -84,-52l-177 -93c-17,-8 -39,-2 -60,-6 -19,-5 -33,-13 -50,-14zm-215 -369l4 50c-25,-9 -26,-28 -48,-19 1,23 10,19 26,35 28,27 14,7 42,22 0,23 26,37 55,69 56,60 105,136 179,188 17,-3 13,-23 45,-5 29,17 103,46 134,55 121,38 215,124 305,206 17,16 113,106 138,109 3,-31 -52,-142 -67,-171 -24,-47 -82,-83 -124,-112 4,-16 24,-14 -22,-35 -136,-62 -15,-45 -168,-48 -159,-2 -285,-91 -358,-220 -40,-70 -12,-65 -57,-90 -50,-28 -58,-52 -93,-52 4,13 -1,10 9,18zm101 -788l-3 -13c16,-7 4,4 23,-9 -9,-10 -5,-8 -20,-13 -21,-8 -45,-29 -57,-43 -12,3 -12,10 -28,5 -17,-6 -8,-9 -34,-13 7,42 3,20 -6,43 19,11 56,41 74,62 27,-9 -7,-7 20,-13 10,-2 19,2 27,5 5,-7 5,2 4,-11z"/>
  <path class="fil1" d="M759 500c23,14 53,6 60,37 -13,24 -19,5 -29,29 22,0 54,2 74,-4 24,-7 27,-22 54,-24 21,11 49,38 52,61 -20,16 -64,12 -74,37 17,1 58,1 74,-1 21,-3 25,-20 43,-31 25,1 58,32 67,47 -6,39 -25,7 -24,66 1,13 2,31 2,43 -2,29 -2,17 -16,33 19,16 49,28 57,52 -10,31 -19,5 -19,56 1,50 11,90 -40,98 -58,8 23,-18 -103,-16 -44,0 -69,-11 -56,51 37,4 108,2 146,0 28,-2 41,-4 53,-23 19,-28 8,-35 34,-45 11,41 -2,66 36,81 121,-189 51,-440 -162,-533 -51,-22 -179,-44 -229,-14zm-213 545c13,33 81,93 112,112 43,25 110,51 170,51 -14,-27 -106,-72 -139,-91 -37,-23 -126,-92 -134,-93 -6,-9 -4,-10 -16,-17 -9,-6 -9,-4 -18,-6 3,19 11,32 25,44zm354 55c-93,0 -92,-24 -94,-112l-126 2c-5,14 -1,19 -10,32 -5,6 -7,5 -13,11 0,0 -2,1 -2,2 -1,1 -2,2 -3,3l-4 5c53,51 170,94 233,122 60,26 55,42 125,8 30,-15 89,-46 100,-80 -68,5 -136,7 -206,7zm-296 -156c-10,-12 -6,-45 -7,-61 0,-22 0,-46 1,-68l18 -8 -3 -49 -3 -69c-25,1 -39,21 -59,9 5,-17 25,-29 41,-43 54,-45 76,-74 117,-125l2 -12 -17 2c-86,42 -159,115 -189,214 -11,35 -34,139 -11,181 0,1 85,87 109,92l1 -63zm71 -66c9,16 0,11 59,9 22,-1 48,1 67,-3 -6,-18 10,-15 -57,-13l-65 5c-1,0 -3,1 -4,2zm219 -147c-25,2 -13,-2 -20,10 11,7 -11,2 16,6l43 -1c57,-1 44,4 54,-10 -9,-6 -3,-7 -31,-6 -9,0 -19,1 -28,1 -10,0 -24,-1 -34,0zm-22 -47c13,10 -12,3 18,8 0,0 13,0 14,0l83 -5c-8,-19 13,-14 -59,-12 -53,1 -44,-5 -56,9zm-133 51c-60,2 -45,-4 -55,10 16,12 28,7 60,6 65,-1 45,3 54,-10 -7,-5 3,-5 -16,-7 0,0 -14,0 -15,0 -9,1 -19,1 -28,1zm-57 -42c16,9 46,4 66,4 23,-1 49,6 50,-16 -20,-4 -43,-1 -64,-1 -56,1 -48,-4 -52,13zm19 236c-24,1 -17,-3 -26,10 9,9 -14,2 12,10l52 0c49,-1 52,6 64,-10 -6,-11 1,-6 -12,-10l-90 0zm178 6c8,14 7,10 30,10l76 -1c25,-2 16,-1 21,-14 -12,-8 -9,-8 -36,-7l-66 1c-6,0 -12,0 -17,3 -11,4 -2,-2 -8,8zm-1 -50c23,2 55,1 78,0 29,0 51,8 50,-19 -24,-6 -111,-4 -130,2l2 17zm-208 -85c-17,17 -10,2 -20,23 37,5 111,9 147,0l1 -28 -100 -1 -28 6zm207 25c28,2 56,0 84,0 35,-1 39,-4 59,-23 -13,-5 -4,3 -29,-11 -24,-13 -90,-9 -116,-3l2 37zm-175 -185c21,0 90,2 106,-1 15,-4 45,-40 47,-52 -24,-1 -84,-5 -101,4 -12,6 -47,36 -52,49z"/>
 </g>
</svg>
