<?xml version="1.0" encoding="UTF-8"?>
<!DOCTYPE svg PUBLIC "-//W3C//DTD SVG 1.1//EN" "http://www.w3.org/Graphics/SVG/1.1/DTD/svg11.dtd">
<!-- Creator: CorelDRAW 2017 -->
<svg xmlns="http://www.w3.org/2000/svg" xml:space="preserve" width="6.7732mm" height="6.7732mm" version="1.1" style="shape-rendering:geometricPrecision; text-rendering:geometricPrecision; image-rendering:optimizeQuality; fill-rule:evenodd; clip-rule:evenodd"
viewBox="0 0 677.32 677.32"
 xmlns:xlink="http://www.w3.org/1999/xlink">
 <defs>
  <style type="text/css">
   <![CDATA[
    .fil2 {fill:#FEFEFE}
    .fil0 {fill:#0060AE}
    .fil1 {fill:#00ADEE}
   ]]>
  </style>
 </defs>
 <g id="Capa_x0020_1">
  <metadata id="CorelCorpID_0Corel-Layer"/>
  <g id="_1479689499120">
   <ellipse class="fil0" cx="343.93" cy="258.81" rx="177.25" ry="192.98"/>
   <path class="fil1" d="M338.32 14.42c163.16,0 298.02,121.59 319.74,279.46l-6.83 21.22c-17.87,55.54 -500.08,168.02 -479.96,-2.76 -4.25,-2.22 -13.91,-6.04 -23.61,-9.45 -10.12,-3.56 -20.29,-6.69 -24.4,-7.1 -6.53,-0.66 -16.63,-5.35 -18.37,4.61 -0.81,4.64 0.44,5.78 1.43,10.72 -5.64,0.91 -10.55,-3.8 -14.49,-2.56 -3.03,0.95 -3.94,3.88 -4.5,6.13 -0.95,3.79 -0.33,3.71 -0.49,7.48 -0.16,3.81 0.76,8.27 1.67,12.13 1.84,7.76 4.31,15.82 7.33,23.73 -14.49,-5.56 -64.72,-16.74 -81.18,-17.84 -2.58,34.09 16.01,110.16 31.72,130.24 29.15,0.47 70.7,11.15 95.87,20.21 53.54,19.28 80.68,34.71 118.7,73.51l-0.37 4.64 85.38 84.57c1.12,-7.18 3.75,-15.83 7.53,-25.51 13.72,-16.87 32.66,-37.9 42.05,-47.48 38.02,-38.8 85.98,-74.21 139.52,-93.48 25.17,-9.07 66.72,-19.74 95.87,-20.21 15.71,-20.09 34.31,-96.15 31.72,-130.24l-1.28 0.1 -0.23 2.12c0,179.08 -144.53,324.25 -322.82,324.25 -178.29,0 -322.82,-145.17 -322.82,-324.25 0,-179.07 144.53,-324.24 322.82,-324.24zm-64.1 506.76l-0.55 3.47c0.7,-1.11 1.43,-2.19 2.18,-3.25l-1.63 -0.22zm64.44 -508.48c180.04,0 325.97,145.95 325.97,325.96 0,180.01 -145.93,325.96 -325.97,325.96 -180.04,0 -325.97,-145.95 -325.97,-325.96 0,-180.01 145.93,-325.96 325.97,-325.96z"/>
   <path class="fil0" d="M338.32 14.42c163.16,0 298.02,121.59 319.74,279.46 -5.44,5.18 -13.47,17.04 -6.83,1 9.45,-22.84 -54.8,-15.5 -109.32,12.05l-8.13 1.95c-3.44,0.64 -15.32,5.95 -16.37,6.01 -5.3,0.27 -8.78,-3.62 -12.69,-6.79 -14.13,-11.45 -19.27,-28.72 -24.41,-45.34 -1.07,-3.46 -1.05,-5.69 -1.66,-8.29l-7.03 -24.95c-2.36,-6.34 -3.56,-10.79 -5.76,-16.83 -1.91,-5.26 -7.37,-12.17 -6.39,-17 4.62,-0.48 12.27,3.36 17.29,4.19 1.78,0.3 2.63,0.16 4.62,0.52l22.04 2.72c2.73,-0.09 6.08,0.5 8.91,0.48 14.14,-0.12 50.84,-4.11 57.85,-15.55 2.63,-4.3 2.78,-4.06 1.56,-9.38 -2.19,-9.56 -11.92,-17.65 -18.16,-23.57 -4.23,-4.01 -10.52,-7.75 -15.33,-10.39 -3.21,-1.77 -3.96,-3.1 -7.65,-4.29 -10.25,-3.3 -20.41,-8.9 -31.39,-10.04 -6.84,-0.71 -13.3,-1.78 -20.24,-1.69 -9.76,0.12 -18.58,1.55 -28.52,4.04 -9.16,2.29 -19.26,2.23 -28.55,4.29l-8.84 0.68c-4.04,-4.1 -9.79,-19.29 -13.84,-25.83 -3.75,-6.04 -3.33,-6.36 -8.16,-11.41 -4.62,-4.84 -10.3,-10.77 -14.85,-2.97 -4.42,7.55 -10.17,29.66 -8.68,38.62 -5.21,2.6 -3.16,0.84 -7.41,0.76 -14.65,-0.28 -13.56,-2.97 -34.04,-0.5 -4,0.49 -10.3,3.08 -13.9,1.64 -3.65,-2.39 -11.69,-27.53 -20.24,-27.89 -6.79,-0.29 -10.82,11.97 -12.75,17.26 -1,2.73 -1.87,3.5 -2.92,6.14l-5.79 19.45c-1.24,2.91 -2.08,3.73 -6.2,3.42l-7.18 -0.92c-4.68,-0.3 -9.02,-3.77 -13.13,-5.66l-36.49 -22.29c-3,-1.59 -3.66,-2.37 -6.2,-3.95 -8.39,-5.23 -16.71,-8.89 -25.28,-12.53 -5.18,-2.2 -7.24,-2.6 -13.02,-4.26 -8.27,-2.38 -6.83,-1.54 -13.97,-2.92 -2.11,-0.4 -4.6,-0.74 -7.28,-0.66 -3.56,0.11 -4.55,1.28 -6.74,-1.33l-10.94 5.63c1.06,3.14 -0.89,6.1 0.02,10.61 2.93,14.64 5.53,21.55 14.06,34.64 1.94,2.98 4.61,5.52 7.15,9.18 2.46,3.55 4.62,4.71 7,7.84 5.7,7.51 12.06,11.37 19.05,16.91l7.81 5.38c6.37,3.85 14.95,5.64 21.99,7.84 10.4,3.25 19.67,1.59 25.53,1.1 1.73,0.21 3.49,0.33 5.34,0.29 0.22,0.03 0.46,0.03 0.78,-0.02 3.74,-0.16 7.85,-0.96 12.71,-2.75 2.19,-0.02 3.66,-0.55 2.29,4.23 -0.98,3.44 -2.04,5.29 -2.4,9.08 -0.38,4 -0.75,6.18 -1.47,9.38 -1.8,8 -1.2,11.96 -1.95,18.54 -1.08,9.42 0.01,18.98 -0.81,28.28l-0.23 9.78c0.03,2.89 0.23,6.55 0.01,9.33 -0.21,2.62 -0.36,1.77 -0.19,4.9 0.62,11.09 -4.26,20.82 -2.02,32.71 0.59,3.17 1.12,7.91 1.96,10.49 1.29,3.98 3.83,6.68 4.39,10.94 -2.22,1.25 -6.6,-1.91 -9.09,-3.11 -1.55,-0.75 -3.18,-1.38 -4.62,-2.28l-60.09 -28.45c-4.25,-2.22 -13.91,-6.04 -23.61,-9.45 -10.12,-3.56 -20.29,-6.69 -24.4,-7.1 -6.53,-0.66 -16.63,-5.35 -18.37,4.61 -0.81,4.64 0.44,5.78 1.43,10.72 -5.64,0.91 -10.55,-3.8 -14.49,-2.56 -3.03,0.95 -3.94,3.88 -4.5,6.13 -0.95,3.79 -0.33,3.71 -0.49,7.48 -0.16,3.81 0.76,8.27 1.67,12.13 1.84,7.76 4.31,15.82 7.33,23.73 -14.49,-5.56 -64.72,-16.74 -81.18,-17.84 -2.58,34.09 16.01,110.16 31.72,130.24 29.15,0.47 70.7,11.15 95.87,20.21 53.54,19.28 80.68,34.71 118.7,73.51l-0.37 4.64 85.38 84.57c1.12,-7.18 3.75,-15.83 7.53,-25.51 13.72,-16.87 32.66,-37.9 42.05,-47.48 38.02,-38.8 85.98,-74.21 139.52,-93.48 25.17,-9.07 66.72,-19.74 95.87,-20.21 15.71,-20.09 34.31,-96.15 31.72,-130.24l-1.28 0.1 -0.23 2.12c0,179.08 -144.53,324.25 -322.82,324.25 -178.29,0 -322.82,-145.17 -322.82,-324.25 0,-179.07 144.53,-324.24 322.82,-324.24zm-64.1 506.76l-0.55 3.47c0.7,-1.11 1.43,-2.19 2.18,-3.25l-1.63 -0.22z"/>
   <path class="fil2" d="M385.35 385.37c-4.16,2.04 -8.65,3.08 -13.34,4.77 -5.55,2 -18.07,4.61 -24.44,5.19 -7.72,0.69 -15.13,0.05 -22.52,-1.23 -5.34,-0.92 -20.53,-5.99 -26.04,-8.53 -6.86,-3.16 -22.98,-13.16 -29.08,-18.76 -3.46,-3.17 -10.49,-9.38 -12.93,-13.23 -10.52,-16.61 -5.53,-5.09 -12.23,-24.46 -2.19,-6.35 -1.46,-5.97 -1.49,-12.08 -0.04,-7.94 2,-15.29 2.27,-23.39 0.35,-10.79 -0.28,-26.31 0.95,-35.33 0.38,-2.74 1.06,-7.78 1.75,-10.94l7.74 -20.96c1.34,-2.18 1.52,-3.3 3.22,-4.94 5.74,-5.52 8.58,-7.76 17.19,-8.65 6.12,-0.63 15.8,4.92 20.03,8.97 2.55,2.43 6.86,4.91 9.37,7.57l17.8 15.69c14.12,8.17 22.92,-13.12 27.7,-18.92 4.17,-5.05 9.27,-14.24 12.94,-19.16l11.74 -11.89c6.16,-3.18 12.38,-6.12 19.53,-4.47 11.36,2.63 20.9,9.6 28.73,18.65 6.9,7.97 14.43,18.56 19.24,28.44l10.65 25.79c1.28,3.7 1.19,6.47 2.53,10.24 1.83,5.14 1.16,5.55 1.9,9.97 2.15,12.87 4.93,23.1 -0.74,37.64l-8.4 16.31c-3.78,5.56 -10.58,11.14 -12.89,14.24 -5.25,7.08 -17.72,14.79 -24.71,19.53 -6.15,4.18 -5.61,4.45 -12.53,8.02l-13.94 5.92zm86.97 48.69c-38,48.61 -118.55,169.25 -126.36,219.3l-85.38 -84.57c1.21,-19.8 6.63,-35.25 15.27,-47.39 -28.77,-3.67 -57.63,-18.33 -87,-48.82l-12.25 -8.3c-6.48,-3.86 -17.17,-14.19 -22.88,-19.92 -3.8,-3.82 -7.3,-7.87 -11.14,-11.77 -7.89,-8 -14.1,-17.45 -20.75,-26.61 -3.78,-5.21 -6.14,-10.88 -9.71,-16.11 -10.9,-15.97 -19.13,-36.64 -23.61,-55.57 -0.91,-3.86 -1.83,-8.32 -1.67,-12.13 0.16,-3.77 -0.46,-3.69 0.49,-7.48 0.56,-2.25 1.47,-5.18 4.5,-6.13 3.94,-1.24 8.85,3.47 14.49,2.56 -0.99,-4.94 -2.24,-6.08 -1.43,-10.72 1.74,-9.96 11.84,-5.27 18.37,-4.61 8.04,0.81 39.32,12.01 48.01,16.55l60.09 28.45c1.44,0.9 3.07,1.53 4.62,2.28 2.49,1.2 6.87,4.36 9.09,3.11 -0.56,-4.26 -3.1,-6.96 -4.39,-10.94 -0.84,-2.58 -1.37,-7.32 -1.96,-10.49 -2.24,-11.89 2.64,-21.62 2.02,-32.71 -0.17,-3.13 -0.02,-2.28 0.19,-4.9 0.22,-2.78 0.02,-6.44 -0.01,-9.33l0.23 -9.78c0.82,-9.3 -0.27,-18.86 0.81,-28.28 0.75,-6.58 0.15,-10.54 1.95,-18.54 0.72,-3.2 1.09,-5.38 1.47,-9.38 0.36,-3.79 1.42,-5.64 2.4,-9.08 1.37,-4.78 -0.1,-4.25 -2.29,-4.23 -4.86,1.79 -8.97,2.59 -12.71,2.75 -0.32,0.05 -0.56,0.05 -0.78,0.02 -1.85,0.04 -3.61,-0.08 -5.34,-0.29 -5.86,0.49 -15.13,2.15 -25.53,-1.1 -7.04,-2.2 -15.62,-3.99 -21.99,-7.84l-7.81 -5.38c-6.99,-5.54 -13.35,-9.4 -19.05,-16.91 -2.38,-3.13 -4.54,-4.29 -7,-7.84 -2.54,-3.66 -5.21,-6.2 -7.15,-9.18 -8.53,-13.09 -11.13,-20 -14.06,-34.64 -0.91,-4.51 1.04,-7.47 -0.02,-10.61l10.94 -5.63c2.19,2.61 3.18,1.44 6.74,1.33 2.68,-0.08 5.17,0.26 7.28,0.66 7.14,1.38 5.7,0.54 13.97,2.92 5.78,1.66 7.84,2.06 13.02,4.26 8.57,3.64 16.89,7.3 25.28,12.53 2.54,1.58 3.2,2.36 6.2,3.95l36.49 22.29c4.11,1.89 8.45,5.36 13.13,5.66l7.18 0.92c4.12,0.31 4.96,-0.51 6.2,-3.42l5.79 -19.45c1.05,-2.64 1.92,-3.41 2.92,-6.14 1.93,-5.29 5.96,-17.55 12.75,-17.26 8.55,0.36 16.59,25.5 20.24,27.89 3.6,1.44 9.9,-1.15 13.9,-1.64 20.48,-2.47 19.39,0.22 34.04,0.5 4.25,0.08 2.2,1.84 7.41,-0.76 -1.49,-8.96 4.26,-31.07 8.68,-38.62 4.55,-7.8 10.23,-1.87 14.85,2.97 4.83,5.05 4.41,5.37 8.16,11.41 4.05,6.54 9.8,21.73 13.84,25.83l8.84 -0.68c9.29,-2.06 19.39,-2 28.55,-4.29 9.94,-2.49 18.76,-3.92 28.52,-4.04 6.94,-0.09 13.4,0.98 20.24,1.69 10.98,1.14 21.14,6.74 31.39,10.04 3.69,1.19 4.44,2.52 7.65,4.29 4.81,2.64 11.1,6.38 15.33,10.39 6.24,5.92 15.97,14.01 18.16,23.57 1.22,5.32 1.07,5.08 -1.56,9.38 -7.01,11.44 -43.71,15.43 -57.85,15.55 -2.83,0.02 -6.18,-0.57 -8.91,-0.48l-22.04 -2.72c-1.99,-0.36 -2.84,-0.22 -4.62,-0.52 -5.02,-0.83 -12.67,-4.67 -17.29,-4.19 -0.98,4.83 4.48,11.74 6.39,17 2.2,6.04 3.4,10.49 5.76,16.83l7.03 24.95c0.61,2.6 0.59,4.83 1.66,8.29 5.14,16.62 10.28,33.89 24.41,45.34 3.91,3.17 7.39,7.06 12.69,6.79 1.05,-0.06 12.93,-5.37 16.37,-6.01l8.13 -1.95c54.52,-27.55 118.77,-34.89 109.32,-12.05 -11.38,27.51 20.35,-27.04 8.26,10.77 3.07,10.66 2.98,21.75 1.65,33.01l-18.94 4.39c-60.66,14.06 -116.55,52.99 -169.88,91.01zm-127.7 -127.49l5.12 -2.64c10.93,-5.63 25.8,-28.24 -4.04,-24.95 -6.73,0.74 -15.04,2.77 -21.44,7.19 -3.1,2.14 -4.43,4.77 -3.66,7.87 1.3,5.25 17.74,15.77 24.02,12.53zm-54.77 -42.76c-4.38,2.98 -6.06,4.22 -7.81,-2.09 -0.77,-2.75 -0.16,-6.48 1.46,-8.32 0.93,-1.06 9.01,-5.35 6.35,10.41zm-31.18 10.82c1.08,-1.95 0.39,-12.16 0.79,-16.28 0.5,-5.2 1.35,-11.34 3.93,-16.19 4.52,-8.48 10.56,-13.15 20.08,-9.87 4.43,1.52 4.9,2.52 8.1,7.98 -4.25,3.37 -3.43,0.8 -7.14,2.25 -3.2,1.26 -6.64,8.06 -7.4,13.07 -0.28,1.86 -0.45,2.33 -0.64,3.66l0.52 12.21c1.14,6.54 -0.99,5.12 5.05,17.41 2.17,4.42 1.91,6.1 3.35,9.91 3.03,-0.75 4.91,-1.42 8.52,-2.48 2.77,-0.81 13.88,-1.3 15.83,-7.01 1.9,-5.57 -1.27,-19.51 -2.93,-25.22 -2.7,-9.31 -3.01,-12.17 -7.42,-21.22 -2.98,-6.12 -10.86,-14.14 -15.84,-15.51 -3.84,-1.05 -6.81,-0.2 -10.82,0.41 -3.71,0.55 -2.36,-0.05 -5.2,2.6 -5.45,5.06 -7.92,6.89 -10.38,18.42l-1.2 16.05c1.4,5.3 0.99,1.2 0.22,5.6 -0.5,2.9 -0.14,3.25 2.58,4.21zm117.29 -26.66c-4.57,-7.91 -0.6,-16.14 4.29,-15.07 4.43,0.98 7.21,16.74 -4.29,15.07zm-4.48 24.4c5.01,10.3 9.49,5.64 15.36,6.33 2.1,0.25 0.31,0.43 2.55,0.34 1.6,-0.07 1.29,-0.36 2.84,-0.49 2.38,-0.22 2,0.67 5.19,0.27 1.51,-0.19 3.99,-1.08 5.85,-1.29 2.83,-0.32 9.41,-0.43 8.7,-4.63 -2.93,-0.29 -4.73,1.79 -8.01,2.27 -1.16,-1.99 -0.95,-1.83 -0.78,-3.81 0.57,-6.91 1.77,-14.12 -0.69,-21.73 -11.75,-36.35 -21.17,-24.3 -26.65,-27.03 -0.05,-2.34 -0.06,-1.62 3.09,-6.73 6.71,-10.85 21.39,-8.1 27.11,-1.81 1.63,1.8 1.84,3.18 4.61,4.02l1.59 0.31c0.28,1.3 7,15.95 9.67,16.86 -0.13,-4.36 -4.6,-14.35 -8.41,-17.54l-0.84 -0.71c-0.96,-0.99 -9.2,-15.58 -21.42,-12.97 -1.9,0.41 -1.83,0.39 -3.4,0.6 -12.11,1.55 -17.78,17.19 -18.89,28.11 -0.2,1.91 -0.56,2.29 -0.86,4.08 -0.71,4.24 1.37,31.41 3.39,35.55zm-2.93 91.59l12.35 -8.05c2.47,-2.09 1.48,-2.09 3.45,-4.31 4.67,-5.27 7.66,-10.27 10.62,-16.1 2.34,-4.59 2.41,-0.3 2.75,-7.62 -9.46,4.37 -11.4,2.56 -16.18,3.71l-11.34 0.2c-3.55,-0.51 -11.71,0.23 -11.77,0.22 -2.47,-0.17 -0.52,-0.63 -3.47,-0.76l-7.54 0c-11.06,0.39 -9.81,0.69 -19.92,5.9 -4.45,2.29 -5.01,3.79 -6.92,6.89 -1.92,3.1 -4.56,4.7 -4.35,8.44 0.23,4.06 6.81,7.9 10.14,9.58 12.04,6.07 0.44,0.82 12.17,5.14 4.1,1.52 14.73,3.03 18.68,1.31 3.6,-1.57 8.21,-2.95 11.33,-4.55zm-74.2 -189.13c0.46,-2.41 4.58,-5.9 6.74,-7.01 8.13,-4.2 4.38,-1.66 9.04,-2.95 1.94,-0.54 3.34,-1.22 5.28,-1.79 6.89,-2.02 16.25,-2.01 20.19,-2.88 3.62,-0.81 15.02,-1.63 17.96,2.14 5.56,7.15 -8.15,27.85 -11.26,34.95 -1.27,2.89 -2.82,5.25 -4.89,8.21 -6.47,9.22 -11.74,18.07 -21.91,4.85 -2.66,-3.45 -4.49,-4.48 -6.97,-8.07 -2.29,-3.29 -4.01,-6.44 -6.39,-9.45 -2.01,-2.53 -4.81,-5.11 -6.36,-8.3 -1.11,-2.3 -1.87,-7.37 -1.43,-9.7zm107.97 -29.15c-2.43,1.25 -16.4,3.38 -19.38,3.05 -17.18,-1.9 -11.31,-14.2 -11.49,-21.08 -0.09,-3.38 3.46,-18.11 5.23,-21.8 1.39,-2.89 0.36,-0.92 1.02,-3.77l4.64 -2.39c6.1,3.08 3.01,1.12 7.86,6.76 1.84,2.14 2.47,2.22 3.88,4.38 3.99,6.12 4.43,7.67 7.59,14.15 4.08,8.39 8.53,16.63 0.65,20.7zm-126.49 17.01c-2.77,-6.07 1.43,-18.49 3.68,-25.33 3.78,-11.44 5.01,-18.66 13.53,-20.72 2.02,1.42 10.62,11.29 12.15,14.43 6.93,14.24 4.23,17.75 -4.74,23.93 -5.15,3.55 -7.3,4.24 -12.66,5.97 -4.47,1.45 -7.72,3.81 -11.96,1.72z"/>
   <path class="fil0" d="M352.11 603.98c7.84,-6.36 21.39,-33.26 24.7,-46.51 3.45,-13.85 5.55,-55.47 -12.34,-50.72 -1.96,8.34 6.24,18.61 1.38,34.9 -3.37,11.38 -9.19,18.14 -23.91,13.65 -4.01,-1.22 -8.9,-4.47 -13.42,-6.38 -4.85,-2.04 -9.29,-3.68 -14.47,-5.19 -7.79,-2.26 -24.95,-8.37 -28.99,0.03 2.43,6.09 15.78,7.63 22.26,10.39 24.62,10.5 35.61,22.27 44.79,49.83zm-13.63 -117.27c-0.98,-0.5 -2.21,0.19 -4.08,0.74l-15.37 5.27c-2.09,0.88 -4.93,1.83 -6.82,3.2 -0.68,0.49 0.16,0.06 -0.81,0.53 -0.34,0.17 -0.48,0.19 -0.81,0.37 -0.25,0.15 -0.52,0.34 -0.85,0.54 -1.6,0.99 -8.41,5.71 -9.32,6.73 -0.23,0.25 -0.36,0.46 -0.65,0.71l-0.65 0.5c-0.04,0.03 -0.09,0.08 -0.13,0.11l-10.9 10.45c-0.3,0.6 -0.29,1.63 -0.22,2.39 0.07,0.77 0.31,1.38 0.88,1.94 1.03,1.02 2.77,1.23 3.9,0.66 1.62,-0.81 0.7,-0.71 2.73,-2.58l9.16 -9.4c0.81,-0.73 0.41,-0.87 1.63,-1.83l2.09 -1.89c1.78,-1.94 -0.01,0.18 2.63,-2 0.64,-0.53 0.49,-0.13 2.43,-1.52l3.19 -2.15c1.49,-0.96 3.69,-2.11 4.97,-3.14 0.65,-0.51 0.91,-0.59 1.53,-1 0.54,-0.35 0.21,-0.16 0.85,-0.51l13.94 -7.49c0.78,-0.39 0.41,0.11 0.68,-0.63zm0.49 111.25c1.71,-6.84 -4.71,-13.88 -7.74,-16.2 -3.89,2.86 -4.18,5.99 -10.42,8.22 -4.44,1.59 -10.88,1.47 -14.84,-1.26 -13.11,-8.99 -0.87,-23.53 -0.14,-24.8 -4.52,-5.67 -29.51,-17.56 -36.47,-9.03 -7.06,8.63 13.91,26.42 17.87,29.4 7.97,5.99 48.44,26.86 51.74,13.67z"/>
  </g>
 </g>
</svg>
