<?xml version="1.0" encoding="UTF-8"?>
<!DOCTYPE svg PUBLIC "-//W3C//DTD SVG 1.1//EN" "http://www.w3.org/Graphics/SVG/1.1/DTD/svg11.dtd">
<!-- Creator: CorelDRAW 2017 -->
<svg xmlns="http://www.w3.org/2000/svg" xml:space="preserve" width="4.2332mm" height="4.2332mm" version="1.1" style="shape-rendering:geometricPrecision; text-rendering:geometricPrecision; image-rendering:optimizeQuality; fill-rule:evenodd; clip-rule:evenodd"
viewBox="0 0 423.32 423.32"
 xmlns:xlink="http://www.w3.org/1999/xlink">
 <defs>
  <style type="text/css">
   <![CDATA[
    .fil7 {fill:#2D1442}
    .fil3 {fill:#492965}
    .fil0 {fill:#4B2494}
    .fil1 {fill:#6637B8}
    .fil6 {fill:#794B94}
    .fil4 {fill:#A759D7}
    .fil2 {fill:#B183D0}
    .fil5 {fill:#C589F7}
    .fil8 {fill:#DAB5FD}
    .fil9 {fill:#FED6FE}
   ]]>
  </style>
 </defs>
 <g id="Capa_x0020_1">
  <metadata id="CorelCorpID_0Corel-Layer"/>
  <g id="_2247618774000">
   <g>
    <path class="fil0" d="M252.52 24.55c2.75,1.64 4.72,2.28 7.42,4.26 17.75,13.04 17.99,15.24 32.46,29.75 3.74,3.75 8.51,9.55 12.62,12.37l0.05 1.97 0.8 -0.26c1.31,-4.44 7.5,2.25 8.85,3.6 5.94,5.89 18.81,15.56 25.8,20.41 5.58,3.88 12.35,8.21 18.55,11.72 1.57,0.9 3.03,1.76 4.74,2.65 1.03,0.54 1.43,0.67 2.51,1.21 0.84,0.41 0.77,0.39 1.41,0.75l0.66 0.41c0.1,0.06 0.23,0.14 0.33,0.2l5.2 2.73c2.07,1.02 3.14,1.64 4.97,2.57l-7.03 -12.92 0.23 1.75c-9.69,0.74 -41.85,-24.99 -50.41,-32.14 -1.05,-0.88 -2.36,-1.87 -3.15,-2.71l-1.98 -2.84c-0.46,-0.6 -0.41,-0.55 -0.86,-0.95l-0.15 1.11 -4.84 -4.6 0.88 -1.64c-1.79,1.04 -0.24,0.35 -2.58,0.82 -2.69,-4.59 -24.6,-19.77 -22.34,-29 4.59,-0.59 15.88,7.69 22.53,10.09 -0.07,-0.15 -0.21,-0.51 -0.26,-0.41l-2.14 -2.34c3.08,-1.48 3.6,-0.45 9.26,2.98l6.69 3.96c0.73,0.51 0.27,0.22 0.91,0.67 0.34,0.24 1.03,0.67 1.3,0.83l12.69 9.13c2.54,2.36 7.41,5.6 11.84,9.97 5.35,5.3 12.61,12.74 17.41,18.73 3.6,4.5 1.73,3.47 4.1,3.34 -0.53,-3.04 -14.02,-17.43 -16.9,-20.3l-9.81 -8.8c-1.86,-1.71 -3.05,-2.65 -4.89,-4.19 -1.26,-1.05 -3.82,-3.48 -4.97,-4.17 -2.03,-0.73 -3.3,-1.62 -5,-2.95 -15.45,-12.12 -34.16,-20.98 -53.08,-26.91 -1.12,-0.35 -0.83,-0.4 -2.91,-0.87l-8.79 -1.84c-7.74,-1.8 -8.41,-0.42 -13.71,-0.33 0.14,0.16 0.24,0.39 0.35,0.54l1.24 1.65z"/>
    <path class="fil0" d="M8.83 152.57c-1.44,1.06 -3.81,13.15 -4.13,14.64 -3.09,14.44 -6.09,38.16 -4.46,52.62 0.65,5.87 0.39,10.56 1.52,18.77l0.3 3.35c1.5,12.45 5.64,26.73 9.35,38.53l1.07 2.72c0.75,1.06 -0.24,0.04 0.91,0.93 -0.72,-4.95 -3.24,-9.55 -4.32,-14.47 -1.91,-8.76 0.92,-8.04 -0.71,-12.69 -0.33,-0.94 -0.13,0.95 -0.49,-1.61 -0.09,-0.64 -0.03,-1.84 -0.03,-2.54 4.95,-0.04 1.78,0.34 5.37,8.81 0.04,0.11 0.11,0.25 0.16,0.36 1.17,2.8 0.62,3.61 1.66,5.81l4.69 12.86c1.67,4.21 1.83,2.34 3.04,5.93 0.8,2.36 0.84,2.41 1.75,4.15l2 3.81c1.22,2.9 2.58,5.14 3.9,7.82 1.66,3.38 6.8,13.28 9.34,14.61 -0.6,-3.35 -5.45,-9.89 -7.33,-13.85 -2.26,-4.77 -4.6,-9.38 -6.76,-14.49 -3.51,-8.32 -9.26,-23.61 -10.54,-32.56 -0.66,-4.24 -0.8,-7.05 -1.75,-11.06 -0.79,-3.38 -1.39,-7.74 -1.68,-11.17 -1.69,-2.12 -1.62,-9.24 -1.74,-11.95 -0.85,-18.28 -0.02,-21.08 1.01,-38.87 0.22,-3.86 0.83,-8.03 1.28,-12.12 0.63,-5.75 6.83,-26.66 7.34,-32.14 -3.38,1.39 -1.95,-1.65 -5.33,6.65 -0.95,2.36 -0.9,2.81 -2.04,4.01l-0.8 1.06c-0.43,0.91 -0.41,0.77 -0.57,2.12 -0.99,-1.9 0.13,-1.45 -0.97,-1.67 -0.58,3.25 0.13,0.32 -1.04,1.63z"/>
    <path class="fil0" d="M39 113.87c-4.58,7.43 -9,17.22 -12.49,25.56 -5.77,13.78 -10.11,30.65 -11.94,45.65 -1.96,16.17 -2.32,19.42 -1.94,36.29 0.07,3.03 0.35,5.74 0.48,9.04 0.16,3.98 0.93,4.74 1.12,7.91 1.15,1.19 3.75,23.22 7.23,32.96l1.93 3.95c0.1,0.12 0.26,0.27 0.4,0.39l-4.6 -19.39c-0.69,-3.63 -1.37,-6.09 -1.93,-9.78 -2.15,-14.16 -3.29,-36.13 -0.91,-50.55 0.67,-4.05 0.21,-1.98 3.11,-3.34l0.01 7.42 3.28 -21.69c0.24,-1.5 0.81,-5.81 1.71,-7.08 -0.89,-6.52 10.67,-35.1 13.92,-42.15 3.16,-6.85 6.32,-12.04 9.9,-18.34 1.93,-3.39 10.27,-14.18 11.23,-16.8 0.39,-2.69 0.34,-1.18 2.5,-2.96 1.97,-1.62 4.44,-6.7 7.24,-8.01 0.98,-0.7 0.14,-0.18 1.6,-0.76 -0.29,3.54 -1.1,5.87 -1.65,8.91 -1.56,8.69 -0.98,20.06 -1.44,28.46 0.15,0.18 1.49,-0.03 0.66,2 0,-2.04 -0.04,-3.85 1.19,-5.39 0.65,-2.69 1.16,-7.56 1.95,-10.88 0.95,-3.96 1.71,-7.33 2.88,-10.96 1.11,-3.45 7.2,-17.87 7.14,-19.61l0.42 -2.68c-2.51,0.21 -1.78,0.63 -5.98,1.92 -2.95,0.9 -6.78,3.09 -8.83,5.16 -6.76,6.81 -14.07,14.66 -19.36,22.62l-6.29 9.74c-1.24,2.12 -0.4,1.84 -2.54,2.39z"/>
    <path class="fil0" d="M383.48 106.75l0.87 1.85 0.83 0.64c0.09,0.08 0.26,0.22 0.37,0.32 1.71,1.76 7.02,13.59 8.13,15.85 4.24,8.6 4.2,10.55 6.45,15.77l1.69 2.25c0.04,-3.12 -3.13,-11.03 -4.23,-13.31 -1.18,-2.45 -0.97,-3.97 -1.99,-6.53l-7.77 -16.2c-0.37,-0.7 -0.6,-1.12 -0.89,-1.74l-0.33 -0.74c-0.06,-0.12 -0.12,-0.26 -0.18,-0.37 -0.06,-0.11 -0.13,-0.25 -0.19,-0.36l-1.53 -2.19c-0.06,-0.1 -0.14,-0.23 -0.2,-0.33 -0.2,-0.34 -0.47,-0.87 -0.73,-1.38 -0.66,-1.3 -0.89,-1.74 -1.61,-2.72 -0.55,-0.74 -0.26,-0.24 -0.89,-1.19 -0.63,-0.95 0.11,-0.28 -0.82,-1.41 5.91,-1.35 2.37,-0.02 7.87,4.97 2.43,2.2 1.37,1.57 2.55,4.25l2.96 3.54c1.07,0.95 0.37,0.14 1.35,1.26 1.48,1.7 7.85,15.11 8.99,17.51l4.71 11.25c0.07,0.13 0.15,0.26 0.23,0.39l0.89 1.09c-0.2,-3.14 -2.11,-6.97 -3.17,-9.4l-7.81 -16.67c-11.87,-23.38 -25.34,-38.38 -42.89,-56.08l-6.78 -5.98c-8.15,-6.27 -17.25,-14.51 -27.09,-19.75 -1.9,-1.01 -0.35,-0.71 -2.18,-0.72 -2.19,-0.76 -2.28,-1.27 -4.77,-1.97 -2.22,-0.62 -0.39,0.09 -2.28,-0.88 -0.91,-0.46 -0.04,-0.31 -1.88,-0.82 -8.11,-2.29 -2.22,-0.54 -8.78,-3.12 -0.01,0 -0.53,0.91 -0.53,0.92l-1.07 2.54 6.69 3.49c2.93,1.56 6.81,4.78 9.04,6.32 1.06,0.72 1.74,1.13 2.89,1.9 2.43,1.61 3.89,1.98 6.15,3.97l5.89 4.28c2.35,1.27 8.75,7.35 10.96,9.21 2.02,1.69 3.71,2.56 5.65,4.44 1.71,1.65 3.18,3.5 5.16,5.03l11.72 12.63c1.55,1.72 0.92,1.92 2.07,3.78 2.47,4 15.27,19.2 16.48,24.41z"/>
    <path class="fil0" d="M33.14 238.06c8.47,-2.71 5.7,16.16 6.7,26.47 1.02,10.53 1.6,22.8 1.65,33.44 -0.77,0.76 1.24,0.98 -1.53,0.43 0.25,1.81 1.22,3.67 2.36,4.93 3.36,3.7 5.27,7.67 8.17,12.59 0.62,-1.92 -0.23,-2.28 -0.68,-4.17 -3.11,-13.02 -5.47,-44.23 -6.31,-57.94 -0.33,-5.37 -0.66,-18.5 -2.21,-21.81 -2.7,-0.02 -3.08,0.83 -4.62,2.29l-2.51 2.27c-1.21,1.4 -0.25,-0.18 -1.02,1.5z"/>
    <path class="fil0" d="M364.25 278.59c-0.64,0.32 -0.51,0.17 -1.19,0.67 -0.73,0.54 -0.39,0.24 -0.91,0.86l2.43 -0.51c-0.31,2.37 -0.96,3.52 -2.81,5.28 -0.09,0.08 -0.21,0.18 -0.29,0.26l-0.9 0.72c-0.98,0.83 -1.43,1.44 -2.35,2.33 -0.09,0.08 -0.2,0.19 -0.28,0.26 -2.24,2.06 -4.07,2.53 -7.08,5.18 -1.96,1.72 -1.83,0.6 -3.33,2.92 -2.68,4.15 -3.77,4.18 -4.91,7.84l-0.85 1.95c-2.98,4.69 -5.38,12.91 -7.16,15.1 -0.99,1.21 -0.13,0.44 -1.61,1.39 -0.04,-3.01 0.37,-4.77 0.51,-7.39l-1.05 4.15c-0.13,1.1 -0.38,2.33 -0.44,3.51l-0.3 11.76c0.82,1.22 0.52,1.79 1.65,2.45l0.71 -2.32c-0.97,0.47 -1.12,-0.28 -0.72,0.54 -0.78,-6.32 4.5,-13.22 7.37,-16.92 2.84,-3.66 0.63,-12.9 14.19,-23.06 1.84,-1.38 6.92,-3.76 7.86,-4.9 1.66,-2.01 5.69,-12.25 11.77,-14.21l-0.72 4.28c1.13,-1.14 1.53,-3.66 1.47,-5.58l-2.87 0.41 -8.19 3.03z"/>
    <path class="fil0" d="M36.04 217.34c-1.05,2.45 -5.51,7.41 -7.44,9.96 -2.52,3.35 -3.91,6.18 -6.54,9.91 -0.99,-2 -0.24,-0.24 -1.15,-1.19 -0.19,3.33 0.48,1.97 1.24,4.98 0.39,1.53 0.47,4.01 0.97,5.48 2.12,-0.56 1.52,-0.67 2.71,-2.85 1.92,-3.51 5.79,-8.34 6.61,-10.84 -2.62,0.95 -1.34,1.65 -3.4,2.91 0.08,-3.43 1.13,-5.7 2.41,-8.81 0.24,-0.6 0.61,-1.38 1.1,-2.06 2.85,-3.91 4.68,-5.85 8.64,-5.85l-0.97 4.13c1.98,-0.99 2.61,-4.28 3.16,-6.65 0.54,-2.36 1.49,-5.09 1.81,-6.51 -0.18,2.77 0.04,5.99 -0.26,8.55 -0.27,2.42 -0.88,5.73 -0.98,8.68 -0.1,3.27 -0.92,16.57 1.04,19.17 0.05,-12.2 -0.15,-22.67 1.17,-34.58l0.13 -3.4c-2.7,0.97 -3.51,2.5 -5.52,4.49l-4.73 4.48z"/>
   </g>
   <g>
    <path class="fil1" d="M85.44 58.34c-1.44,2.56 -4.07,4.05 -6.43,6.03 -2.67,2.24 -4.24,4.13 -6.53,6.21 -5.14,4.66 -13.72,14.35 -18.12,20.17 -3.92,5.16 -13.43,17.8 -15.36,23.12 2.14,-0.55 1.3,-0.27 2.54,-2.39l6.29 -9.74c5.29,-7.96 12.6,-15.81 19.36,-22.62 2.05,-2.07 5.88,-4.26 8.83,-5.16 4.2,-1.29 3.47,-1.71 5.98,-1.92l-0.42 2.68c0.11,-0.1 0.26,-0.42 0.31,-0.33l3 -5.27c1.45,-2.54 2.2,-3.08 3.8,-4.69 2.26,-2.26 6.48,-5.98 9.86,-7.49 1.99,-2.84 13.84,-9.45 18.08,-11.92 6.05,-3.52 13.33,-7.4 20.09,-10.14 8.94,-3.62 40.28,-14.04 48.18,-12.84 1.9,-1.43 5.62,-1.3 7.98,-1.53 2.77,-0.27 5.57,-0.4 8.51,-0.55 6.29,-0.32 11.58,-0.5 18.08,-0.11 17.19,1.01 17.87,2.02 33.05,4.7l-1.24 -1.65c-0.11,-0.15 -0.21,-0.38 -0.35,-0.54 5.3,-0.09 5.97,-1.47 13.71,0.33l8.79 1.84c2.08,0.47 1.79,0.52 2.91,0.87 18.92,5.93 37.63,14.79 53.08,26.91 1.7,1.33 2.97,2.22 5,2.95 -3.97,-6.06 -30.63,-20.04 -39.44,-24.18 -13.78,-6.48 -29.61,-11.11 -44.39,-13.9 -0.62,-0.12 -2.03,-0.51 -2.2,-0.56 -3.87,-1.22 -16.98,-1.93 -21.91,-2.23 -5.63,-0.35 -15.1,-0.03 -20.2,-0.74 -5.86,-0.63 -14.14,0.62 -19.72,1.13 -10.75,0.98 -10.43,2.1 -17.06,3.3 -17.91,3.24 -17.66,4.8 -32.16,9.56 -5.09,1.67 -9.55,4.37 -14.08,6.51l-13.49 7.24c-4.52,2.69 -8.73,4.9 -12.59,8.09 -3.86,3.19 -8.02,6.02 -11.74,8.86z"/>
    <path class="fil1" d="M56.71 68.35c-2.86,1.09 -13.91,15.83 -15.2,17.55 -7.17,9.55 -13.47,19.88 -18.85,30.63 -3.25,6.51 -13.72,29.56 -13.83,36.04 1.17,-1.31 0.46,1.62 1.04,-1.63 1.1,0.22 -0.02,-0.23 0.97,1.67 0.16,-1.35 0.14,-1.21 0.57,-2.12l0.8 -1.06c1.14,-1.2 1.09,-1.65 2.04,-4.01 3.38,-8.3 1.95,-5.26 5.33,-6.65 -0.51,5.48 -6.71,26.39 -7.34,32.14 -0.45,4.09 -1.06,8.26 -1.28,12.12 -1.03,17.79 -1.86,20.59 -1.01,38.87 0.12,2.71 0.05,9.83 1.74,11.95 0.09,-4.79 -0.79,-10.99 -0.97,-16.22 -1.26,-34.89 6.17,-67.31 21.16,-97.52 8.85,-17.83 16.59,-27.98 27.57,-41.7 0.07,-0.09 0.17,-0.21 0.24,-0.3l1.18 -1.56c0.75,-0.94 1.19,-1.33 1.95,-2.33 3.63,-4.77 7.22,-9.87 11.89,-13.64l13.45 -11.04c0.09,-0.07 0.21,-0.17 0.3,-0.24 1.69,-1.37 3.39,-2.4 3.96,-4.66 -1.99,0.94 -3.01,1.6 -5.46,2.09 -5.99,1.18 -5.3,3.3 -9.23,5.68 -5.36,3.24 -7.81,3.54 -9.52,5.37 -1.93,2.09 -9.75,9.78 -11.5,10.57z"/>
    <path class="fil1" d="M383.48 106.75c-1.21,-5.21 -14.01,-20.41 -16.48,-24.41 -1.15,-1.86 -0.52,-2.06 -2.07,-3.78l-11.72 -12.63c-1.98,-1.53 -3.45,-3.38 -5.16,-5.03 -1.94,-1.88 -3.63,-2.75 -5.65,-4.44 -2.21,-1.86 -8.61,-7.94 -10.96,-9.21l-5.89 -4.28c-2.26,-1.99 -3.72,-2.36 -6.15,-3.97 -1.15,-0.77 -1.83,-1.18 -2.89,-1.9 -2.23,-1.54 -6.11,-4.76 -9.04,-6.32l-6.69 -3.49 1.07 -2.54c0,-0.01 0.52,-0.92 0.53,-0.92 6.56,2.58 0.67,0.83 8.78,3.12 1.84,0.51 0.97,0.36 1.88,0.82 1.89,0.97 0.06,0.26 2.28,0.88 2.49,0.7 2.58,1.21 4.77,1.97 -1.6,-2.97 -19.36,-11.06 -23.26,-12.68l-2.63 -1.01c-0.02,-0.01 -0.82,-0.4 -1.09,-0.53 -4.02,-1.87 -27.39,-10.52 -31.55,-9.72 -2.9,-0.22 -4.82,-0.87 -7.89,-1.33 -3.06,-0.45 -18.88,-1.3 -21.94,-0.05l-3.12 1.66c1.27,0.71 1.3,0.46 3.18,0.49l-0.55 0.95c8.33,0.23 7.51,1.08 12.71,2.75 3.82,1.23 3.55,-0.03 9.48,2.24 2.73,1.04 3.9,0.63 9.39,2.93l5.62 1.49c4.9,1.11 7.7,2.55 12.03,4.07 34.75,12.21 68.15,38.17 89.66,66.39l9.65 13.73c1.53,2.37 2.01,3.76 3.7,4.75z"/>
    <path class="fil1" d="M255.71 398.47c19.41,-2.23 49.46,-18.39 64.94,-28.63 11.86,-7.84 27.77,-22.09 36.64,-33.05 3.54,-4.38 7.02,-13.58 -0.46,-15.9 0.12,0.11 0.29,0.23 0.39,0.31 0.09,0.08 0.26,0.21 0.38,0.3 1.13,0.92 2.2,1.64 2.57,3.27 0.49,2.13 0.11,3.68 -0.85,4.99l-13.39 13.24c-3.99,2.59 -6.51,6.2 -9.06,7.95l-8.54 6.31c-1.56,1.7 -3.37,2.12 -5.01,3.07 -2.55,1.48 -0.81,1.76 -3.74,3.2 -3.17,1.57 -2.34,2.72 -7.16,5.55l-1 0.6c-0.18,0.1 -0.88,0.49 -1.06,0.56 -1.02,0.45 -1.65,0.48 -2.5,0.86 -1.32,2.49 0.9,1.28 -1.88,3.22 -2.66,1.86 -6.6,4.19 -9.84,5.11 -2.37,0.67 -1.8,0.43 -3.66,1.62 -0.1,0.06 -0.22,0.15 -0.32,0.21l-0.68 0.4c-0.14,0.07 -0.57,0.28 -0.72,0.35 -0.71,0.36 -0.85,0.41 -1.44,0.69l-6.11 3.43c-0.8,0.6 -0.15,0.33 -1.56,1.11 -2.78,1.53 -7.22,2.79 -10.23,4.67 -3.97,2.48 -7.21,3.65 -11.94,4.82l-3.77 1.74z"/>
    <path class="fil1" d="M412.43 228.73c-0.1,-3.1 0.7,-7.27 0.75,-11.1 0.2,-15.28 -0.45,-30.6 -3.39,-45.54l-2.21 -9.99c-1.98,-6.68 -3.38,-13.01 -5.76,-18.67l-1.69 -2.25c-2.25,-5.22 -2.21,-7.17 -6.45,-15.77 -1.11,-2.26 -6.42,-14.09 -8.13,-15.85 -0.11,-0.1 -0.28,-0.24 -0.37,-0.32l-0.83 -0.64 -0.41 1.48 -9.15 -13.64c-2.33,-3.14 -2.01,-3.37 -3.8,-3.72 0.52,2.64 2.91,4.48 4.38,6.8l8.7 13.71c1.3,2.29 2.7,4.61 4.05,7.08 8.4,15.44 9.95,24.98 11.63,28.4l1.37 3.56c0.08,0.24 0.59,1.6 0.84,2.24l2.12 5.75c1.81,6.24 4.8,21.92 5.55,27.95 1.73,13.85 1.42,27.62 1.41,42.75l1.39 -2.23z"/>
    <path class="fil1" d="M15.12 256.08c1.28,8.95 7.03,24.24 10.54,32.56 2.16,5.11 4.5,9.72 6.76,14.49 1.88,3.96 6.73,10.5 7.33,13.85 0.31,1.67 6.82,10.77 8.39,12.97 1.55,2.2 3.3,4.06 4.95,6.22 1.3,1.69 4.07,4.86 4.69,5.97 3.67,1.51 3.8,5.1 6.95,5.88 -1.19,-3.84 -10.8,-11.54 -11.84,-16.53 -1.95,-1.64 -4.65,-6.29 -6.51,-8.81 -3.83,-5.2 -10.56,-18.32 -13.41,-24.4 -4.65,-9.93 -5.33,-10.76 -9.18,-22.66 -0.14,-0.12 -0.3,-0.27 -0.4,-0.39l-1.93 -3.95c-3.48,-9.74 -6.08,-31.77 -7.23,-32.96 -0.41,4.79 2.91,15.94 2.93,22.75 -0.17,-0.81 -0.37,-1.79 -0.61,-2.5l-1.43 -2.49z"/>
    <path class="fil1" d="M59.51 93.92c3.17,-1.21 0.9,-0.25 1.78,0.26 -0.5,9.15 -0.97,15.55 -0.78,24.93 0.19,4.97 2.07,12.2 3.85,16.38 1.33,3.15 5.65,11.39 8.6,12.72 -1.22,-11.68 -4.59,-10.1 -3.35,-32.04 -1.23,1.54 -1.19,3.35 -1.19,5.39 0.83,-2.03 -0.51,-1.82 -0.66,-2l0.22 9.87c-2.46,-1.31 -3.27,-6.2 -4.11,-10.5 -1.13,-5.78 -0.47,-20.22 0.97,-26.13 1.67,-6.79 2.06,-5.79 4.41,-9.85 -2.8,1.31 -5.27,6.39 -7.24,8.01 -2.16,1.78 -2.11,0.27 -2.5,2.96z"/>
    <path class="fil1" d="M32.44 232.79c0.46,-0.39 2.94,-3.71 3.83,-4.74 1.36,-1.56 3.84,-3.57 3.95,-4.94l0.97 -4.13c-3.96,0 -5.79,1.94 -8.64,5.85 -0.49,0.68 -0.86,1.46 -1.1,2.06 -1.28,3.11 -2.33,5.38 -2.41,8.81 2.06,-1.26 0.78,-1.96 3.4,-2.91z"/>
   </g>
   <g>
    <path class="fil2" d="M372.44 275.56l2.87 -0.41c0.06,1.92 -0.34,4.44 -1.47,5.58l0.22 10c2.09,1.03 0.73,0.45 3.85,-5.65 0.36,-0.72 0,0.23 0.48,-1.08 1.25,-3.47 1.17,-5.29 3.28,-8.5 1.81,-2.76 1.39,-7.56 2.5,-10.23 0.95,-2.27 1.08,-0.3 1.15,-4.51 0.05,-3.18 -0.31,-5.59 0.81,-8.45l0.47 -1.07c0.67,-2.03 0.33,-5.26 0.34,-7.54 0,-4.26 -1.08,-25.96 -2.5,-28.75 -0.02,-0.05 -0.12,-0.16 -0.15,-0.22 -1.53,-3.06 0.23,-14.36 0.53,-17.88 0.36,-4.28 1.03,-0.35 1.07,-8.49l0.07 -9.05c-0.24,-3.03 -0.29,-1.23 -0.68,-2.44 -1.06,-3.22 -0.33,-8.26 -0.32,-11.92l1.02 0c0.03,-3.31 -0.13,-6.73 0.23,-9.99 0.16,-1.51 0.28,-2.23 -0.18,-4.39 -0.21,-0.98 -0.03,-1.06 -0.65,-1.59l-0.53 -0.08c-0.02,0 -0.15,0.04 -0.17,0.04 -0.02,0 -0.11,0.07 -0.17,0.05 -0.21,-2.33 -0.79,-1.82 -0.87,-3.73 -0.08,-2.04 0.41,-1.3 -0.22,-4.17 -0.69,-3.18 -0.38,-5.48 -1.07,-7.93 -1.31,-2.43 -24.65,-19.19 -28.62,-20.69 0.86,2.04 2.61,2.97 4.36,4.39 2.65,2.16 1.19,0.98 3.09,1.68 0.03,0.96 0.07,1.15 0.19,1.99l1.53 8.57c0.05,0.13 0.11,0.27 0.16,0.4 0.05,0.13 0.1,0.27 0.14,0.4 0.18,0.48 0.26,0.76 0.42,1.2 1.12,3.08 1.68,4.41 2.02,7.59l0.88 2.74c0.75,1.53 1.11,2.03 1.11,4.36 1.71,0.87 0.11,-1.85 2.08,1.07 -1.77,2.81 -1.15,-0.34 -2.07,2.13 1.05,1.72 0.25,0.81 1.81,1.98l1.29 -3.15c0.06,3.1 0.61,2.31 0.16,5.59l0.06 4.36c0.99,2.63 1.1,-0.26 2.25,3.03 0.18,0.52 0.52,2.05 0.66,2.52 0.42,1.46 0.98,4.15 0.88,5.79 -0.11,1.8 -0.81,2.85 -0.57,5.11 0.17,1.56 0.85,5.13 0.73,6.14 -0.43,3.7 -2.72,0.62 -0.25,6.67 1.47,3.61 1.03,4.01 0.58,9.06 -0.26,2.84 0.95,2.31 1.37,5.05 0.26,1.73 -0.12,4.75 0.23,6.23 0.6,2.57 1.08,-0.69 2.09,4.82l1.87 7.66c0.44,2.31 0.11,1.18 0.82,2.84 0.74,1.76 1.38,2.92 1.45,5.08 0.2,6.02 -0.97,0.45 -0.97,4.75 0,9.8 0.56,15.27 -1.47,24.76l-3.13 16.13c-0.83,1.92 -0.05,0.78 -2.03,1.01 -2.69,0.32 -1.61,-0.4 -3.03,1.14z"/>
    <path class="fil2" d="M311.58 63.95c0.31,-1.02 -0.34,-0.08 0.53,-0.79l3.58 5.92c0.45,0.4 0.4,0.35 0.86,0.95l1.98 2.84c0.79,0.84 2.1,1.83 3.15,2.71 8.56,7.15 40.72,32.88 50.41,32.14l-0.23 -1.75c-11.03,-16.26 -15.04,-20.19 -27.91,-33.53 -10.48,-10.87 -34.5,-26.28 -34.76,-26.58 -6.65,-2.4 -17.94,-10.68 -22.53,-10.09 -2.26,9.23 19.65,24.41 22.34,29 2.34,-0.47 0.79,0.22 2.58,-0.82z"/>
    <path class="fil2" d="M33.14 238.06c-0.39,0.71 -5.94,5.35 -8.42,12.42 -2.77,7.89 15.2,47.43 15.24,47.92 2.77,0.55 0.76,0.33 1.53,-0.43 -0.05,-10.64 -0.63,-22.91 -1.65,-33.44 -1,-10.31 1.77,-29.18 -6.7,-26.47z"/>
    <path class="fil2" d="M19.47 199.98c0.75,3.2 -0.13,13.75 0.26,18.41 0.25,2.91 1.41,16.15 1.18,17.63 0.91,0.95 0.16,-0.81 1.15,1.19 2.63,-3.73 4.02,-6.56 6.54,-9.91 1.93,-2.55 6.39,-7.51 7.44,-9.96 -2.17,0.55 -0.39,-0.66 -2.23,1.36 -0.76,0.83 -1.81,2.75 -3.55,4.09 -0.06,-5.79 -0.92,-3.56 -1.48,-5.85 -1.28,-5.22 -0.85,-16.64 -1.57,-19.73l-1.63 -12.59c-0.13,-3.48 -1.06,-2.51 -1.04,-6.34 0.02,-2.74 0.51,-4.37 -0.08,-7.07 -0.9,1.27 -1.47,5.58 -1.71,7.08l-3.28 21.69z"/>
    <path class="fil2" d="M106.1 71.83l8.3 -3.52c-0.6,-1.58 -2.78,-4.82 -3.95,-5.19 -1.42,2.79 -3.48,5.51 -4.35,8.71z"/>
   </g>
   <g>
    <path class="fil3" d="M243.84 331.9c0.87,2.54 9.69,10.27 12.84,12.99 2.2,1.88 4.4,3.57 7.22,5.56 1.83,1.29 6.1,3.65 7.24,4.91 3.36,0.96 6.84,3.39 10.45,5.02 2.2,1 3.36,1.42 5.33,2.25 1.26,0.53 4.48,1.44 5.51,2.02l6.06 0.74c1.48,-4.14 2.06,-10.49 2.59,-11.98l0.6 -1.18c-0.21,-1.34 -0.33,-0.42 -0.04,-2.04 0.22,-1.24 0.08,-0.53 0.57,-1.21 -0.52,-2.82 0.38,-10.49 0.34,-14.3 -0.05,-4.94 -0.61,-8.56 -0.96,-13.31 -0.45,-5.94 -2.92,-20.45 -5.61,-23.48l-1.96 -1.7c-1.83,4.12 -2.41,2.87 -3.91,5.75 -2.73,5.2 -2.89,3.23 -3.83,5.38 2.05,-0.05 1.39,-0.37 3.68,-0.53 -0.64,3.29 -1.64,2.48 -4.94,4.57 -1.84,1.15 -3.48,2.21 -5.25,3.27 -9.71,5.78 -6.04,2.18 -12.3,4.76 -2.26,0.93 -3.92,2.25 -5.85,3.18 -2.13,1.02 -4.37,1.26 -6.42,2.11 -4.32,1.78 -6.34,4.88 -12.03,4.88 0.78,1.92 0.43,-0.26 0.67,2.34z"/>
    <path class="fil3" d="M104.79 216.41c1.13,0.32 4.03,1.94 4.07,3.1 10.82,0.24 9.46,1.03 10,1.39 0.91,0.63 0.18,0.27 1.32,0.78l8.41 3.29c0.12,0.05 0.25,0.11 0.37,0.16 2.34,0.96 4.1,0.68 6.37,1.62 0.12,0.05 0.25,0.13 0.36,0.18l0.72 0.34c1.18,0.41 0.2,0.2 1.73,0.34 5.21,0.47 10.43,3.09 15.84,4.39l14.47 1.98c0.37,0.94 -0.37,0.52 0.18,1.55l19.91 0.06 2.97 -4.1c1.48,-1.73 2.94,-4.76 4.65,-6.87 2.62,-3.23 5.04,-4.42 6.41,-6.46 -2.6,0.18 -2.45,0.79 -5.37,0.83l-16.69 -0.3c0.86,-0.34 1.12,-0.05 1.77,-0.28l1.89 -1.06c-2.35,-0.94 -3.31,-0.26 -6.02,-0.62 -2.3,-0.3 -2.23,-1.02 -5.44,-1.01 -0.01,-0.07 1.56,-1.44 -2.41,-1.55 1.8,-0.17 2.18,-1.36 1.07,-1.65 -0.11,-0.03 -0.31,-0.1 -0.44,-0.13 -6.05,-1.46 -1.67,-0.36 -4.27,-2.07 -2.37,-1.55 -2.97,0.45 -5.51,-0.99l2.34 -0.52c-0.12,-0.06 -0.27,-0.14 -0.41,-0.2l-1.87 -0.82c-2.52,-1.18 -1.88,-0.66 -4.63,-1.24 -9.58,-2.01 -2.47,0.27 -7.98,-2.14 -1.62,-0.7 -1.35,-0.12 -2.85,-0.49 -3.69,-0.9 0.08,-0.64 -4.96,-0.77l-6.62 -0.69c-11.51,-0.34 -18.74,-1.28 -29.58,-1.61 -3.34,-0.1 -5.34,-1.05 -8.14,-1.85 0.61,3.89 6.06,15.47 8.34,17.41z"/>
    <path class="fil3" d="M309.19 45.86c0.26,0.3 24.28,15.71 34.76,26.58 12.87,13.34 16.88,17.27 27.91,33.53l7.03 12.92c-1.83,-0.93 -2.9,-1.55 -4.97,-2.57l-5.2 -2.73c-0.1,-0.06 -0.23,-0.14 -0.33,-0.2l-0.66 -0.41c-0.64,-0.36 -0.57,-0.34 -1.41,-0.75 -1.08,-0.54 -1.48,-0.67 -2.51,-1.21 -1.71,-0.89 -3.17,-1.75 -4.74,-2.65 -6.2,-3.51 -12.97,-7.84 -18.55,-11.72 -6.99,-4.85 -19.86,-14.52 -25.8,-20.41 -1.35,-1.35 -7.54,-8.04 -8.85,-3.6 0.89,0.01 1.01,-0.1 2.41,1.42 0.88,0.95 1.16,1.49 2.28,2.5l9.82 9.31c4.26,3.69 1.84,1.93 3.43,4.63 0.58,0.98 0.02,0.36 0.86,1.08l-0.02 -1.49c4.12,3.28 9.34,7.58 14.36,11.28 1.92,1.43 14.12,10.18 14.72,11.1 3.97,1.5 27.31,18.26 28.62,20.69 5.03,2.25 8.15,8.76 9.78,13.32l4.15 13.04c0.18,0.67 0.35,1.36 0.56,1.99l1.19 2.41c0.56,-5.49 -5.46,-12.92 -3.84,-17.46 2.72,0.29 1.88,-1.6 3.9,4.53 0.3,0.9 0.61,2.09 0.92,2.78 0.29,0.66 0.94,1.6 1.27,2.43 1.18,2.97 -0.05,2.67 2.23,7.29l1.04 5.18c-0.09,1.78 0.05,-0.71 1.03,1.77 1.05,2.69 2.76,14.54 3.33,18.67 0.3,2.19 0.9,5.35 1.11,7.78 1.9,22.09 -0.03,43.82 -5.01,65.12 -1.14,4.87 -2.53,9.2 -4.08,13.63 -1.36,3.88 -4.14,10.17 -4.28,14.88 2.15,-0.69 0.72,0.12 2.04,-1.17l4.77 -12.45c1.75,-5.23 3.45,-9.16 4.43,-14.93 0.44,-2.64 1.49,-4.07 2.1,-7.4 1.08,-5.82 4.22,-21.18 3.44,-25.84l-1.39 2.23c0.01,-15.13 0.32,-28.9 -1.41,-42.75 -0.75,-6.03 -3.74,-21.71 -5.55,-27.95l-2.12 -5.75c-0.25,-0.64 -0.76,-2 -0.84,-2.24l-1.37 -3.56c-1.68,-3.42 -3.23,-12.96 -11.63,-28.4 -1.35,-2.47 -2.75,-4.79 -4.05,-7.08l-8.7 -13.71c-1.47,-2.32 -3.86,-4.16 -4.38,-6.8 -2.37,0.13 -0.5,1.16 -4.1,-3.34 -4.8,-5.99 -12.06,-13.43 -17.41,-18.73 -4.43,-4.37 -9.3,-7.61 -11.84,-9.97l-12.69 -9.13c-0.27,-0.16 -0.96,-0.59 -1.3,-0.83 -0.64,-0.45 -0.18,-0.16 -0.91,-0.67l-6.69 -3.96c-5.66,-3.43 -6.18,-4.46 -9.26,-2.98l2.14 2.34c0.05,-0.1 0.19,0.26 0.26,0.41z"/>
    <path class="fil3" d="M219.77 212.24c-1.68,1.29 -2.25,2.79 -2.48,5.03 3.78,1.68 11.8,7.69 11.29,10.96 0,-1.95 -0.26,-0.48 1.06,-1.05 1.37,1.26 3.39,0.81 5.1,0.54 1.82,-0.29 4.13,-0.64 5.61,-0.75 9.47,-0.76 4.62,-1 11.12,-1.64 2.83,-0.27 1.76,-0.96 4.75,-1.07 9.02,-0.35 6.68,-0.79 11.32,-1.54 1.57,-0.25 4.55,-0.11 6.26,-0.11 1.04,-0.5 0.29,0.59 0.31,-0.41l-0.01 -0.32c-0.5,-0.81 -1.23,0.87 -0.83,-0.28 4.8,-0.03 7.92,-0.64 12.23,-0.62 7.53,0.04 6.49,-2.2 10.51,-1.95 4.72,0.3 4.1,-0.31 10.67,-1.41 1.2,-0.2 4.08,-0.29 5.65,-0.79 3.5,-1.11 1.35,-0.55 5.66,-0.73 1.23,-2.48 1.08,-2.05 2.49,-2.76l2.5 -4.17c1.68,-6.12 5.2,-11.28 6.07,-18.15 -1.38,1.22 -1.47,1.82 -1.95,3.52 -0.35,1.23 -0.69,2.26 -1.15,3.36 -10.17,0.31 -7.04,0.32 -15.82,1.77 -0.86,0.15 -2.85,0.35 -4.17,0.63 -0.3,0.07 -1.74,0.47 -2.1,0.55 -0.51,0.12 -1.37,0.23 -1.78,0.35 -2.08,0.6 -0.16,-0.15 -1.77,0.9 -1.98,1.29 -1.93,1.04 -4.81,1.56 -0.96,0.17 -1.66,0.36 -2.2,0.48l-2.59 0.08c-0.68,0.07 -1.47,0.3 -1.68,0.34l-4.44 0.96c-4.22,1.73 -3.85,0.31 -7.4,1.14 -2.69,0.63 -11.32,0.83 -11.38,0.85 -0.79,0.32 -0.06,1.38 -2.25,1.72l-7.1 1.64c-1.64,0.34 -1.72,0.67 -3.41,0.83l0 1c-1.05,0.01 -1.51,-0.05 -2.54,0.19l-5.7 1.2c-2.6,0.36 -5.6,0.96 -8.2,0.75 -8.19,-0.68 -4.62,0.31 -8.51,0.07 -2.66,-0.15 -4.97,-0.49 -8.38,-0.48l0.05 -2.19z"/>
    <path class="fil3" d="M98.16 93.12c-1.18,2.16 -3.85,13.25 -4.16,16.49 2.86,-3.12 1.56,-4.45 2.37,-6.39 0.76,-1.78 -0.51,-0.71 1.23,-1.14 1.77,-1.06 3.27,-0.51 7,-0.54 0.1,-0.14 0.19,-0.56 0.22,-0.46 0.03,0.1 0.16,-0.33 0.2,-0.41 1.15,-2.24 0.09,-0.89 1.04,-1.13 2.89,-0.71 5.21,-0.39 7.07,-0.79 2.76,-0.6 0.43,-0.66 4.78,-0.91l13.08 -5.75 -2.51 -4.29 -4.5 -5.64 -2.35 -0.8c-1.67,1.04 -0.82,0.9 -3.03,1.8 -2.22,0.9 -1.04,0.12 -2.78,1.49 -3.7,2.9 -1.5,0.27 -5.67,3.38l-2.91 1.61c-0.44,0.29 0.27,0.57 -2.3,1.04 -6.81,1.22 -2.3,-1.51 -6.78,2.44z"/>
    <path class="fil3" d="M57.78 342.14c0.84,4.51 12.1,13.77 15.83,17.13l1.2 1.03c4.09,3.2 4.87,4.82 10.45,8.74l4.3 3.58c6.2,5.47 20.38,13.79 28.49,17.9l7.58 3.69c2.34,0.89 2.91,0.4 3.98,-0.47 -1.05,-1.46 -3.97,-2.63 -5.61,-3.46 -2.01,-1.02 -3.69,-1.75 -5.65,-2.88 -11.24,-6.52 -10.54,-6.2 -20.84,-13.21 -1.9,-1.3 -4.07,-1.84 -5.27,-3.13 -3.53,-3.85 0.01,-0.79 -4.84,-4.37 -0.81,-0.6 -1.54,-1.16 -2.37,-1.85 -5.94,-4.89 -10.19,-8.58 -15.67,-14.57l-13.46 -16.27c-1.86,-2.61 -1.41,-1.9 -3.01,-2.51 1.04,4.99 10.65,12.69 11.84,16.53 -3.15,-0.78 -3.28,-4.37 -6.95,-5.88z"/>
    <path class="fil3" d="M344.57 293.2c-0.2,1.58 -1.9,2.77 -3.3,4.66 -1.37,1.86 -2.17,3.18 -3.29,5.21 -1.52,2.76 -4.75,8.95 -4.46,12.38 -0.14,2.62 -0.55,4.38 -0.51,7.39 1.48,-0.95 0.62,-0.18 1.61,-1.39 1.78,-2.19 4.18,-10.41 7.16,-15.1l0.85 -1.95c1.14,-3.66 2.23,-3.69 4.91,-7.84 1.5,-2.32 1.37,-1.2 3.33,-2.92 3.01,-2.65 4.84,-3.12 7.08,-5.18 0.08,-0.07 0.19,-0.18 0.28,-0.26 0.92,-0.89 1.37,-1.5 2.35,-2.33l0.9 -0.72c0.08,-0.08 0.2,-0.18 0.29,-0.26 1.85,-1.76 2.5,-2.91 2.81,-5.28l-2.43 0.51c-4.28,0.39 -12,7.65 -15.24,11.1 -1.22,1.3 -0.76,1 -2.34,1.98z"/>
    <path class="fil3" d="M232.86 385.51l-1.92 1.54c-0.57,0.31 -1.6,0.72 -2.17,0.99 -3.28,1.49 -10.17,4.51 -13.25,4.81 -0.98,1.02 -2.54,1.26 -4.16,1.66 -0.83,0.2 -1.85,0.38 -2.59,0.62l-2.04 0.98c1.2,0.14 3.05,-0.23 4.05,0.29 -0.8,1.61 -0.16,0.67 -1.8,1.35l-4.63 1.23c-2.47,0.69 0.49,-0.17 -1.17,0.4l-3.15 1.07c-0.11,0.05 -0.24,0.11 -0.36,0.16 -1.96,0.8 -5.8,1.65 -6.91,1.29 6.61,1.4 8.3,1.15 15.08,-0.45 9.5,-2.24 16.72,-5.57 24.67,-11.24 3.74,-2.67 7.22,-6.36 9.88,-8.13l-0.2 2.15 1.32 -1.2c0.04,-0.17 0.19,-0.17 0.28,-0.25l0.08 -2.74c-4.21,0.96 -7.45,5.16 -11.01,5.47z"/>
    <path class="fil3" d="M122.92 356.59c-0.33,2.79 0.77,6.43 1.69,8.57l7.12 -0.82c0.8,-0.59 4.15,-1.64 5.62,-2.22 2.06,-0.82 3.87,-1.76 5.96,-2.66l0.52 -1.02c0.06,-0.11 0.34,-0.73 0.44,-0.88 -0.1,-0.11 -0.24,-0.25 -0.31,-0.33 -1.79,-1.85 -2.48,-2.7 -5.07,-3.3 -3.62,-0.83 -3.01,0.59 -6.95,0.93 -3.56,0.3 -4.2,-2.41 -4.65,-2.95 -1.12,-1.33 -1.34,-0.5 -2.99,-1.88l-1.99 -1.21 0.61 7.77z"/>
   </g>
   <g>
    <path class="fil4" d="M56.71 68.35c1.75,-0.79 9.57,-8.48 11.5,-10.57 1.71,-1.83 4.16,-2.13 9.52,-5.37 3.93,-2.38 3.24,-4.5 9.23,-5.68 2.45,-0.49 3.47,-1.15 5.46,-2.09 -0.57,2.26 -2.27,3.29 -3.96,4.66 -0.09,0.07 -0.21,0.17 -0.3,0.24l-13.45 11.04c-4.67,3.77 -8.26,8.87 -11.89,13.64 -0.76,1 -1.2,1.39 -1.95,2.33l-1.18 1.56c-0.07,0.09 -0.17,0.21 -0.24,0.3 -10.98,13.72 -18.72,23.87 -27.57,41.7 -14.99,30.21 -22.42,62.63 -21.16,97.52 0.18,5.23 1.06,11.43 0.97,16.22 0.29,3.43 0.89,7.79 1.68,11.17 0.95,4.01 1.09,6.82 1.75,11.06l1.43 2.49c0.24,0.71 0.44,1.69 0.61,2.5 -0.02,-6.81 -3.34,-17.96 -2.93,-22.75 -0.19,-3.17 -0.96,-3.93 -1.12,-7.91 -0.13,-3.3 -0.41,-6.01 -0.48,-9.04 -0.38,-16.87 -0.02,-20.12 1.94,-36.29 1.83,-15 6.17,-31.87 11.94,-45.65 3.49,-8.34 7.91,-18.13 12.49,-25.56 1.93,-5.32 11.44,-17.96 15.36,-23.12 4.4,-5.82 12.98,-15.51 18.12,-20.17 2.29,-2.08 3.86,-3.97 6.53,-6.21 2.36,-1.98 4.99,-3.47 6.43,-6.03 -2.75,1.11 -11.26,9.65 -14.78,12.58 -4.11,3.43 -1.05,3.25 -5.43,4.11 0.4,-2.55 0.02,-2.11 1.7,-3.63l13.96 -13.18c7.82,-6.97 27.19,-20.5 36.72,-25.1 24.3,-11.75 41.54,-18.53 71.15,-22.04 9.52,-1.14 20.08,-1.64 29.67,-1.07 7.07,0.42 22.36,1.23 27.7,3.3 -1.45,1.81 -0.13,1.15 -2.67,1.67 -0.03,0.01 -30.45,-2.99 -35.6,-1.93l-1.23 0.42c-0.06,-0.11 -0.25,0.11 -0.35,0.18 5.1,0.71 14.57,0.39 20.2,0.74 4.93,0.3 18.04,1.01 21.91,2.23 0.17,0.05 1.58,0.44 2.2,0.56 14.78,2.79 30.61,7.42 44.39,13.9 8.81,4.14 35.47,18.12 39.44,24.18 1.15,0.69 3.71,3.12 4.97,4.17 1.84,1.54 3.03,2.48 4.89,4.19l9.81 8.8c2.88,2.87 16.37,17.26 16.9,20.3 1.79,0.35 1.47,0.58 3.8,3.72l9.15 13.64 0.41 -1.48 -0.87 -1.85c-1.69,-0.99 -2.17,-2.38 -3.7,-4.75l-9.65 -13.73c-21.51,-28.22 -54.91,-54.18 -89.66,-66.39 -4.33,-1.52 -7.13,-2.96 -12.03,-4.07l-5.62 -1.49c-5.49,-2.3 -6.66,-1.89 -9.39,-2.93 -5.93,-2.27 -5.66,-1.01 -9.48,-2.24 -5.2,-1.67 -4.38,-2.52 -12.71,-2.75l0.55 -0.95c-1.88,-0.03 -1.91,0.22 -3.18,-0.49l3.12 -1.66c3.06,-1.25 18.88,-0.4 21.94,0.05 3.07,0.46 4.99,1.11 7.89,1.33 -0.85,-0.84 -0.12,-0.35 -1.49,-0.91l-5.2 -1.2c-18.55,-3.66 -28.6,-4.5 -47.59,-4.57 -9.38,-0.04 -30.13,2.54 -39.04,4.59 -22.77,5.24 -49.19,14.51 -68.32,27.45 -9.16,6.19 -22.32,14.75 -30.03,22.64 -1.77,1.81 -3.05,2.48 -4.8,4.25 -1.55,1.55 -2.7,2.71 -4.25,4.26 -2.51,2.51 -3.62,2.84 -4.13,5.16z"/>
    <path class="fil4" d="M374.06 290.73c0.54,4.89 3.39,8.61 8.61,8.09 10.61,-20.35 15.42,-38.65 19.3,-61.3 6.05,-35.26 -4.18,-70.68 -3.94,-73.6l-1.19 -2.41c-0.21,-0.63 -0.38,-1.32 -0.56,-1.99l-4.15 -13.04c-1.63,-4.56 -4.75,-11.07 -9.78,-13.32 0.69,2.45 0.38,4.75 1.07,7.93 0.63,2.87 0.14,2.13 0.22,4.17 0.08,1.91 0.66,1.4 0.87,3.73 0.06,0.02 0.15,-0.05 0.17,-0.05 0.02,0 0.15,-0.04 0.17,-0.04l0.53 0.08c0.62,0.53 0.44,0.61 0.65,1.59 0.46,2.16 0.34,2.88 0.18,4.39 -0.36,3.26 -0.2,6.68 -0.23,9.99l-1.02 0c-0.01,3.66 -0.74,8.7 0.32,11.92 0.39,1.21 0.44,-0.59 0.68,2.44l-0.07 9.05c-0.04,8.14 -0.71,4.21 -1.07,8.49 -0.3,3.52 -2.06,14.82 -0.53,17.88 0.03,0.06 0.13,0.17 0.15,0.22 1.42,2.79 2.5,24.49 2.5,28.75 -0.01,2.28 0.33,5.51 -0.34,7.54l-0.47 1.07c-1.12,2.86 -0.76,5.27 -0.81,8.45 -0.07,4.21 -0.2,2.24 -1.15,4.51 -1.11,2.67 -0.69,7.47 -2.5,10.23 -2.11,3.21 -2.03,5.03 -3.28,8.5 -0.48,1.31 -0.12,0.36 -0.48,1.08 -3.12,6.1 -1.76,6.68 -3.85,5.65z"/>
    <path class="fil4" d="M241.11 387.88c-0.88,0.61 -0.31,0.12 -0.97,0.87l-5.15 7.1c-2.09,2.5 -4.85,4.24 -6.85,6.82 9.39,0.2 18.92,-2.72 27.57,-4.2l3.77 -1.74c4.73,-1.17 7.97,-2.34 11.94,-4.82 3.01,-1.88 7.45,-3.14 10.23,-4.67 1.41,-0.78 0.76,-0.51 1.56,-1.11l6.11 -3.43c0.59,-0.28 0.73,-0.33 1.44,-0.69 0.15,-0.07 0.58,-0.28 0.72,-0.35l0.68 -0.4c0.1,-0.06 0.22,-0.15 0.32,-0.21 1.86,-1.19 1.29,-0.95 3.66,-1.62 3.24,-0.92 7.18,-3.25 9.84,-5.11 2.78,-1.94 0.56,-0.73 1.88,-3.22 0.85,-0.38 1.48,-0.41 2.5,-0.86 0.18,-0.07 0.88,-0.46 1.06,-0.56l1 -0.6c4.82,-2.83 3.99,-3.98 7.16,-5.55 2.93,-1.44 1.19,-1.72 3.74,-3.2 1.64,-0.95 3.45,-1.37 5.01,-3.07l8.54 -6.31c2.55,-1.75 5.07,-5.36 9.06,-7.95l13.39 -13.24c0.96,-1.31 1.34,-2.86 0.85,-4.99 -0.37,-1.63 -1.44,-2.35 -2.57,-3.27 -0.12,-0.09 -0.29,-0.22 -0.38,-0.3 -0.1,-0.08 -0.27,-0.2 -0.39,-0.31 -1.38,-0.47 -2.11,-0.7 -3.72,-0.85l-3.2 0.15c-0.94,0.27 -0.94,0.34 -1.39,0.64 6.09,-0.01 7.9,-0.65 3.4,4.7l-0.49 0.57c-1.89,1.95 -2.56,1.33 -3.99,3.98l-0.35 0.72c-1.38,2.64 -0.6,1.3 -2.89,2.98 -0.08,0.07 -0.21,0.16 -0.3,0.23 -0.09,0.07 -0.21,0.17 -0.29,0.24l-8.43 7.54c-5.6,5.01 -14.2,12.92 -20.69,16.06 -0.11,0.06 -0.25,0.12 -0.36,0.18l-3.04 1.73c-0.74,0.52 -1.03,0.79 -1.79,1.38 -4.04,3.18 -8.51,5.17 -12.82,7.94 -1.95,1.25 -1.92,0.9 -4.1,1.82 -1.21,0.52 -0.4,0.25 -1.71,0.92 -1.85,0.96 -2.24,0.63 -4.03,1.81 -5.38,3.56 -5.38,3.05 -9.69,5.72l-20.53 8.2c-1.43,0.37 -3.26,0.36 -4.98,0.92 -3.84,1.26 -6.26,1.7 -10.81,1.76l0.48 -2.35z"/>
    <path class="fil4" d="M206.73 396.11l2.04 -0.98c0.74,-0.24 1.76,-0.42 2.59,-0.62 1.62,-0.4 3.18,-0.64 4.16,-1.66 -1.52,-0.2 -13.35,0.47 -18.14,-0.47l-16.68 -2.03c-2.66,-0.17 -2.86,-0.81 -5.32,-1.05 -1.68,-0.16 -3.84,-0.09 -5.58,-0.12 1.16,-0.23 0.55,-0.1 1.11,-0.4 1.45,-0.78 0.58,-0.26 1.34,-0.96 -3.42,-0.06 -2.26,-0.03 -4.56,-0.81 -6.74,-2.29 -7.96,-1.26 -13.15,-4.35 -0.1,-0.06 -0.22,-0.15 -0.32,-0.21 -0.1,-0.05 -0.24,-0.13 -0.34,-0.18l-6.29 -1.71c-3.73,-0.73 -9.61,-1.43 -12.79,-2.77 -3.52,-1.48 -1.23,-0.62 -2.49,-1.75 -1.49,-1.34 -3.91,-1.33 -5.85,-2.09 -0.11,-0.04 -0.25,-0.11 -0.36,-0.16 -0.12,-0.05 -0.25,-0.12 -0.36,-0.17l-3.05 -1.22c-1.14,-0.58 -0.74,-0.5 -1.47,-1.13 -1.98,-1.7 -0.8,-0.47 -2.99,-1.81 -3.64,-2.21 -4.93,-1.38 -7.82,-2.86l-4.19 -2.72c-0.1,-0.06 -0.24,-0.13 -0.35,-0.18 -2.08,-1.06 -1.44,-0.16 -2.79,-1.93 -2.01,-2.62 -3,-1.35 -8.71,-6.75l-0.84 -0.76c-0.55,-0.42 -1.06,-0.63 -1.66,-1 -6,-3.68 -3.84,-3.24 -9.01,-6.48 -0.94,-0.59 -0.23,-0.11 -0.95,-0.63l-2.03 -1.66c-6.7,-6.2 -1.86,-3 -5.98,-6.79 -0.4,-0.37 -0.33,-0.31 -0.83,-0.77 -0.08,-0.08 -0.19,-0.19 -0.27,-0.26l-8.19 -8.37c0.77,3.77 7.72,14.17 9.93,17.28 7.84,11.07 32.98,28.13 45.2,34.62 20.39,10.82 37.78,17.39 62.01,17.62 4.44,0.04 8.61,-0.05 12.78,-0.37 3.45,-0.25 9.65,-1.54 12.2,-1.34z"/>
    <path class="fil4" d="M69.25 82.95c-2.35,4.06 -2.74,3.06 -4.41,9.85 -1.44,5.91 -2.1,20.35 -0.97,26.13 0.84,4.3 1.65,9.19 4.11,10.5l-0.22 -9.87c0.46,-8.4 -0.12,-19.77 1.44,-28.46 0.55,-3.04 1.36,-5.37 1.65,-8.91 -1.46,0.58 -0.62,0.06 -1.6,0.76z"/>
    <path class="fil4" d="M106.1 71.83c-1.27,0.95 -3.3,6.62 -3.65,8.47 2.15,-1.84 0.49,-1.27 3.13,-2.75 1.67,-0.94 1.9,-1.18 3.48,-2.33l2.74 -1.54c2.61,-1.36 0.58,-0.82 4.05,-1.95 0.18,-0.06 0.32,-0.1 0.49,-0.16l1.03 -0.34 -2.97 -2.92 -8.3 3.52z"/>
   </g>
   <g>
    <path class="fil5" d="M324.67 91.58c4.54,15.34 7.38,31.32 8.84,47.98 0.76,8.63 0.45,19.62 -0.28,27.99 -0.76,8.74 -2.85,15.29 -4.18,23.47 -0.87,6.87 -4.39,12.03 -6.07,18.15 0.12,-0.09 0.3,-0.39 0.36,-0.29 0.38,0.67 2.06,-3.56 3.14,-4.79l11.41 1.43c6.12,1.84 6.4,-0.65 12.68,1.74l3.11 1.16c1.85,0.7 2.67,0.52 4.85,0.57 0.98,2.21 -0.67,1.71 2.99,3.85l3.42 2.79c0.01,0.04 0.03,0.18 0.04,0.22 1.1,5.44 3.39,3.91 4.73,7.64 1.22,3.38 -0.05,0.51 1.93,3.26 1.29,1.79 0.89,4.14 0.97,6.84 0.37,2.19 -0.2,-1.02 1,1.32 0.06,0.12 0.14,0.25 0.19,0.38 0.17,0.4 0.59,2.7 0.65,3.2 0.53,4.16 -0.3,11.73 -1.42,15.44 -1.16,3.85 -0.02,6.46 -2.16,10.17l-0.81 1.25c-0.2,0.47 -0.52,2.7 -0.61,3.06l-1.21 2.61c-1.51,3.03 0.81,3.58 -1.75,5.6 -1.46,1.15 -1.06,0.01 -2.24,1.97l8.19 -3.03c1.42,-1.54 0.34,-0.82 3.03,-1.14 1.98,-0.23 1.2,0.91 2.03,-1.01l3.13 -16.13c2.03,-9.49 1.47,-14.96 1.47,-24.76 0,-4.3 1.17,1.27 0.97,-4.75 -0.07,-2.16 -0.71,-3.32 -1.45,-5.08 -0.71,-1.66 -0.38,-0.53 -0.82,-2.84l-1.87 -7.66c-1.01,-5.51 -1.49,-2.25 -2.09,-4.82 -0.35,-1.48 0.03,-4.5 -0.23,-6.23 -0.42,-2.74 -1.63,-2.21 -1.37,-5.05 0.45,-5.05 0.89,-5.45 -0.58,-9.06 -2.47,-6.05 -0.18,-2.97 0.25,-6.67 0.12,-1.01 -0.56,-4.58 -0.73,-6.14 -0.24,-2.26 0.46,-3.31 0.57,-5.11 0.1,-1.64 -0.46,-4.33 -0.88,-5.79 -0.14,-0.47 -0.48,-2 -0.66,-2.52 -1.15,-3.29 -1.26,-0.4 -2.25,-3.03l-0.06 -4.36c0.45,-3.28 -0.1,-2.49 -0.16,-5.59l-1.29 3.15c-1.56,-1.17 -0.76,-0.26 -1.81,-1.98 0.92,-2.47 0.3,0.68 2.07,-2.13 -1.97,-2.92 -0.37,-0.2 -2.08,-1.07 0,-2.33 -0.36,-2.83 -1.11,-4.36l-0.88 -2.74c-0.34,-3.18 -0.9,-4.51 -2.02,-7.59 -0.16,-0.44 -0.24,-0.72 -0.42,-1.2 -0.04,-0.13 -0.09,-0.27 -0.14,-0.4 -0.05,-0.13 -0.11,-0.27 -0.16,-0.4l-1.53 -8.57c-0.12,-0.84 -0.16,-1.03 -0.19,-1.99 -1.9,-0.7 -0.44,0.48 -3.09,-1.68 -1.75,-1.42 -3.5,-2.35 -4.36,-4.39 -0.6,-0.92 -12.8,-9.67 -14.72,-11.1 -5.02,-3.7 -10.24,-8 -14.36,-11.28l0.02 1.49z"/>
    <path class="fil5" d="M64.61 328.3l8.19 8.37c0.08,0.07 0.19,0.18 0.27,0.26 0.5,0.46 0.43,0.4 0.83,0.77 4.12,3.79 -0.72,0.59 5.98,6.79l2.03 1.66c0.72,0.52 0.01,0.04 0.95,0.63 5.17,3.24 3.01,2.8 9.01,6.48 0.6,0.37 1.11,0.58 1.66,1l0.84 0.76c5.71,5.4 6.7,4.13 8.71,6.75 1.35,1.77 0.71,0.87 2.79,1.93 0.11,0.05 0.25,0.12 0.35,0.18l4.19 2.72c2.89,1.48 4.18,0.65 7.82,2.86 2.19,1.34 1.01,0.11 2.99,1.81 0.73,0.63 0.33,0.55 1.47,1.13l3.05 1.22c0.11,0.05 0.24,0.12 0.36,0.17 0.11,0.05 0.25,0.12 0.36,0.16 1.94,0.76 4.36,0.75 5.85,2.09 1.26,1.13 -1.03,0.27 2.49,1.75 3.18,1.34 9.06,2.04 12.79,2.77l6.29 1.71c0.1,0.05 0.24,0.13 0.34,0.18 0.1,0.06 0.22,0.15 0.32,0.21 5.19,3.09 6.41,2.06 13.15,4.35 2.3,0.78 1.14,0.75 4.56,0.81 -0.76,0.7 0.11,0.18 -1.34,0.96 -0.56,0.3 0.05,0.17 -1.11,0.4 1.74,0.03 3.9,-0.04 5.58,0.12 2.46,0.24 2.66,0.88 5.32,1.05l16.68 2.03c4.79,0.94 16.62,0.27 18.14,0.47 3.08,-0.3 9.97,-3.32 13.25,-4.81 0.57,-0.27 1.6,-0.68 2.17,-0.99l1.92 -1.54c-4.32,-0.38 -12.18,0.09 -17.05,0.07 -11.79,-0.04 -7.18,-0.92 -11.18,-1.47 -1.21,-0.16 -2.92,-0.02 -4.21,-0.11 -2.94,-0.21 -3.29,-0.55 -5.18,-1.1 -1.14,-0.33 -0.36,-0.19 -1.78,-0.34l-15.44 -1.7c-4.3,-0.33 -0.29,-1.53 -7.36,-1.58l2.57 -0.65c-8.33,-0.77 -6.51,-2.76 -15.95,-3.06 -0.73,-2.57 1.48,2.3 0.53,-0.9l-3.83 -0.8c-2.91,-1.57 -4.78,-1.08 -6.56,-1.66 -2.71,-0.87 0.12,-0.58 -3.29,-1.44 -3.08,-0.76 -4.47,-0.15 -7.56,-1.58 -0.92,-0.43 -2.46,-0.94 -3.34,-1.43l-3.07 -1.69c1.76,-1.1 0.62,-0.34 1.57,-1.73l-7.12 0.82c-0.92,-2.14 -2.02,-5.78 -1.69,-8.57 -1.86,-2.42 -0.89,-1.9 -0.99,-2.15 -0.41,-1.01 0.2,-0.34 -0.59,-1.41 -0.44,2.27 0.59,5.44 0.9,7.92 -1.84,-0.18 -9.27,-3.8 -11.37,-4.85 -0.8,-0.4 -3.04,-1.19 -3.05,-1.91 -0.05,-2.31 -5.2,-3.82 -6.58,-4.42l-2.47 -1.81c-1.33,-1.28 -0.88,-1.03 -2.82,-1.99 -2.96,-1.47 -2.12,-1.68 -4.57,-3.93 -7.68,-7.04 -3.06,-3.86 -8.07,-8.95l-4.58 -4.99c-0.65,-0.61 -1.75,-1.39 -2.37,-1.89 -6.86,-5.56 -3.02,-7.29 -7.47,-10.07 -1.03,-0.64 -0.12,0.13 -1.31,-0.82 -2.76,-2.21 -1.98,-2.58 -2.45,-3.96 -0.78,-2.3 -0.21,-0.99 -2.2,-2.58 -1.04,-0.83 -0.21,0.07 -1.1,-1.02 -1.03,-1.26 -0.02,0.07 -0.81,-1.3l-0.79 -1.36c-0.75,-1.09 -0.35,-0.41 -0.94,-1.18 -1.07,-1.39 -0.85,-1.01 -1.49,-2.79 -3.1,-8.51 -0.41,6.25 -5.04,-10.46 -0.74,-2.69 -1.81,-0.88 -3.29,-9.1 -0.02,-0.15 -0.32,-1.71 -0.37,-1.83 -0.76,-2.12 -0.28,-0.99 -1.1,-1.97 0.48,12.03 11.5,43.06 16.61,50.53z"/>
    <path class="fil5" d="M59.51 93.92c-0.96,2.62 -9.3,13.41 -11.23,16.8 -3.58,6.3 -6.74,11.49 -9.9,18.34 -3.25,7.05 -14.81,35.63 -13.92,42.15 0.59,2.7 0.1,4.33 0.08,7.07 -0.02,3.83 0.91,2.86 1.04,6.34l1.63 12.59c0.72,3.09 0.29,14.51 1.57,19.73 0.56,2.29 1.42,0.06 1.48,5.85 1.74,-1.34 2.79,-3.26 3.55,-4.09 1.84,-2.02 0.06,-0.81 2.23,-1.36l4.73 -4.48c2.01,-1.99 2.82,-3.52 5.52,-4.49l-0.13 3.4c0.62,-0.82 0.97,-0.32 0.97,-3.19 -0.15,-0.12 -0.41,-0.39 -0.53,-0.24 -0.11,0.16 -0.37,-0.16 -0.52,-0.21 -0.15,-0.04 -0.34,-0.12 -0.52,-0.17l-1.47 -0.29c-0.15,-0.03 -0.34,-0.06 -0.45,-0.08 -0.11,-0.02 -0.31,0 -0.45,-0.08l1.11 -9.04c0.04,-5.72 2.87,-5.51 2.76,-7.37 0,-0.05 -0.04,-0.19 -0.06,-0.25 -0.55,-2.67 -1.88,-5.73 1.44,-7.28 -1.76,-6.15 -0.48,-4.05 -1.71,-7.71 -0.49,-1.44 -0.41,-0.8 -0.41,-2.65l-2.26 -0.15c-0.07,-0.02 -0.24,-0.07 -0.35,-0.13 0.43,-2.16 0.51,-2.27 0.51,-5.09 0,0 -1.3,0.24 -1.75,1.18 -0.71,1.48 0.9,1.69 -2.25,1.99 -1.53,-0.65 -0.43,-0.01 -1.26,-1.15 -1.26,-1.72 -1.47,-4.95 -0.66,-6.79 1.04,-2.38 1.11,-0.35 0.74,-3.48 -0.23,-1.84 1.17,-8.14 1.47,-9.11 1.56,-5.04 2.95,-6.02 3.22,-12.67 0.08,-0.03 0.24,-0.09 0.27,-0.01 0.02,0.08 0.21,-0.01 0.24,-0.02 0.02,0 0.19,-0.01 0.21,-0.02l0.64 -1.23c0.8,-3.09 -0.76,-1.71 2.2,-2.97 0.12,-4.09 -0.31,-3.44 1.43,-5.84 0.06,-0.09 0.17,-0.2 0.22,-0.29 0.67,-0.99 0.24,-0.3 0.83,-1.74l5.08 -9.77c0.37,-1.06 0.33,-3.01 0.76,-4.57l1.13 -4.2c0.87,-2.98 2.14,-2.91 2.82,-3.19l0.05 11.52c0.03,0.36 0.13,1.6 0.2,1.92 0.43,1.76 0.38,1.17 0.7,1.71 -0.19,-9.38 0.28,-15.78 0.78,-24.93 -0.88,-0.51 1.39,-1.47 -1.78,-0.26z"/>
    <path class="fil5" d="M334.09 335l-0.71 2.32c-1.13,-0.66 -0.83,-1.23 -1.65,-2.45 -0.6,3.31 0.24,2.16 -1.93,3.68 -3.51,2.46 -7.48,7.54 -12.55,10.84l-1.95 1.26c-1.63,1.02 -1.47,1.1 -2.94,2.36 -1.93,1.66 -3.42,1.62 -3.42,2.09 0,0.02 0.02,0.14 0.02,0.16 0,0.06 0,0.26 -0.03,0.33l-0.18 0.38c-0.06,0.08 -0.3,0.34 -0.4,0.43l-7.29 4.26c0.2,-2.79 1.21,-5.78 0.62,-8.43l-0.6 1.18c-0.53,1.49 -1.11,7.84 -2.59,11.98l-6.06 -0.74c-0.08,0.26 -1.02,1.4 1.28,1.61l-24.95 10.68c-0.11,0.05 -0.24,0.13 -0.35,0.19 -3.29,1.69 -3.66,1.49 -7.64,2.44 -2.86,0.69 -2.45,1.35 -5.41,2 -1.85,0.41 -4.81,0.9 -6.57,0.95l0.01 1.38 -4.81 0.59 -0.2 -1.71c-0.09,0.08 -0.24,0.08 -0.28,0.25l-1.32 1.2c-0.11,2.1 -0.81,1.86 -1.08,3.65l-0.48 2.35c4.55,-0.06 6.97,-0.5 10.81,-1.76 1.72,-0.56 3.55,-0.55 4.98,-0.92l20.53 -8.2c4.31,-2.67 4.31,-2.16 9.69,-5.72 1.79,-1.18 2.18,-0.85 4.03,-1.81 1.31,-0.67 0.5,-0.4 1.71,-0.92 2.18,-0.92 2.15,-0.57 4.1,-1.82 4.31,-2.77 8.78,-4.76 12.82,-7.94 0.76,-0.59 1.05,-0.86 1.79,-1.38l3.04 -1.73c0.11,-0.06 0.25,-0.12 0.36,-0.18 6.49,-3.14 15.09,-11.05 20.69,-16.06l8.43 -7.54c0.08,-0.07 0.2,-0.17 0.29,-0.24 0.09,-0.07 0.22,-0.16 0.3,-0.23 2.29,-1.68 1.51,-0.34 2.89,-2.98l0.35 -0.72c1.43,-2.65 2.1,-2.03 3.99,-3.98l0.49 -0.57c4.5,-5.35 2.69,-4.71 -3.4,-4.7 -6.96,-0.28 -12.58,9 -14.43,14.17z"/>
    <path class="fil5" d="M85.44 58.34c3.72,-2.84 7.88,-5.67 11.74,-8.86 3.86,-3.19 8.07,-5.4 12.59,-8.09l13.49 -7.24c4.53,-2.14 8.99,-4.84 14.08,-6.51 14.5,-4.76 14.25,-6.32 32.16,-9.56 6.63,-1.2 6.31,-2.32 17.06,-3.3 5.58,-0.51 13.86,-1.76 19.72,-1.13 0.1,-0.07 0.29,-0.29 0.35,-0.18l1.23 -0.42c5.15,-1.06 35.57,1.94 35.6,1.93 2.54,-0.52 1.22,0.14 2.67,-1.67 -5.34,-2.07 -20.63,-2.88 -27.7,-3.3 -9.59,-0.57 -20.15,-0.07 -29.67,1.07 -29.61,3.51 -46.85,10.29 -71.15,22.04 -9.53,4.6 -28.9,18.13 -36.72,25.1l-13.96 13.18c-1.68,1.52 -1.3,1.08 -1.7,3.63 4.38,-0.86 1.32,-0.68 5.43,-4.11 3.52,-2.93 12.03,-11.47 14.78,-12.58z"/>
   </g>
   <g>
    <path class="fil6" d="M120.62 327.77c-0.04,4.44 -0.37,8.87 -0.12,13.32 0.2,3.59 1.04,7.6 0.84,11.94 0.79,1.07 0.18,0.4 0.59,1.41 0.1,0.25 -0.87,-0.27 0.99,2.15l-0.61 -7.77 1.99 1.21c1.65,1.38 1.87,0.55 2.99,1.88 0.45,0.54 1.09,3.25 4.65,2.95 3.94,-0.34 3.33,-1.76 6.95,-0.93 2.59,0.6 3.28,1.45 5.07,3.3 0.07,0.08 0.21,0.22 0.31,0.33 -0.1,0.15 -0.38,0.77 -0.44,0.88l-0.52 1.02c4.07,-1.12 6.57,-3.61 10.19,-4.85 1.05,-1.18 15.26,-9.52 24.69,-20.89 4.23,-5.1 17.39,-20.29 19.68,-26.71 -0.64,-1.99 -3.5,-4.98 -4.92,-7.5 -5.44,-9.6 -7.05,-18.67 -8.13,-30.17 -6.59,-0.7 -20.96,1.64 -26.95,3.63 -25.52,8.49 -36.33,24.63 -37.25,54.8z"/>
    <path class="fil6" d="M243.84 331.9c-0.24,-2.6 0.11,-0.42 -0.67,-2.34 5.69,0 7.71,-3.1 12.03,-4.88 2.05,-0.85 4.29,-1.09 6.42,-2.11 1.93,-0.93 3.59,-2.25 5.85,-3.18 6.26,-2.58 2.59,1.02 12.3,-4.76 1.77,-1.06 3.41,-2.12 5.25,-3.27 3.3,-2.09 4.3,-1.28 4.94,-4.57 -2.29,0.16 -1.63,0.48 -3.68,0.53 0.94,-2.15 1.1,-0.18 3.83,-5.38 1.5,-2.88 2.08,-1.63 3.91,-5.75l1.96 1.7c-3.09,-13.04 -24.08,-24.61 -38.12,-26.91 -3.75,-0.61 -16.6,-2.49 -19.88,-1.43 -0.79,11.11 -2.7,20.58 -7.96,29.85 -5.6,9.84 -8.63,3.98 3.65,20.64l8.26 10.31c1.25,1.32 0.34,0.68 1.91,1.55z"/>
    <path class="fil6" d="M198.71 239.76c-0.26,1.76 -8.73,15.38 -4.34,36.71 1.82,8.88 9.37,25.54 21.43,20.35 17.28,-7.45 18.35,-50.83 3.81,-62.41 -6.04,-4.28 -10.87,-5.3 -16.95,0.92 -0.61,0.62 -1.24,1.28 -1.98,2.24 -0.35,0.47 -0.64,0.9 -0.97,1.27 -1.37,1.52 2.21,-1.33 -1,0.92z"/>
    <path class="fil6" d="M228.58 228.23c2.56,2.44 4.65,6.85 5.37,10.67 1.86,3.36 2.28,9.18 3.75,13.31 5.48,2.19 19.48,0.7 25.37,-0.35 6.29,-1.13 15.66,-4.5 20.96,-7.03 23.7,-11.3 28.6,-21.92 31.69,-23.73 1.35,-2.99 3.57,-4.28 4.76,-7.76 -1.41,0.71 -1.26,0.28 -2.49,2.76 -4.31,0.18 -2.16,-0.38 -5.66,0.73 -1.57,0.5 -4.45,0.59 -5.65,0.79 -6.57,1.1 -5.95,1.71 -10.67,1.41 -4.02,-0.25 -2.98,1.99 -10.51,1.95 -4.31,-0.02 -7.43,0.59 -12.23,0.62 -0.4,1.15 0.33,-0.53 0.83,0.28l0.01 0.32c-0.02,1 0.73,-0.09 -0.31,0.41 -1.71,0 -4.69,-0.14 -6.26,0.11 -4.64,0.75 -2.3,1.19 -11.32,1.54 -2.99,0.11 -1.92,0.8 -4.75,1.07 -6.5,0.64 -1.65,0.88 -11.12,1.64 -1.48,0.11 -3.79,0.46 -5.61,0.75 -1.71,0.27 -3.73,0.72 -5.1,-0.54 -1.32,0.57 -1.06,-0.9 -1.06,1.05z"/>
    <path class="fil6" d="M105.06 217.99c0.62,0.42 5.65,6.61 6.5,7.59 12.32,14.36 39.49,26.9 59.54,27.63 3.41,0.13 12.05,-0.79 13.89,-0.47 1.18,-3.17 1.71,-7.3 2.79,-10.96 1.15,-3.93 2.84,-6.73 3.73,-10.29l-2.97 4.1 -19.91 -0.06c-0.55,-1.03 0.19,-0.61 -0.18,-1.55l-14.47 -1.98c-5.41,-1.3 -10.63,-3.92 -15.84,-4.39 -1.53,-0.14 -0.55,0.07 -1.73,-0.34l-0.72 -0.34c-0.11,-0.05 -0.24,-0.13 -0.36,-0.18 -2.27,-0.94 -4.03,-0.66 -6.37,-1.62 -0.12,-0.05 -0.25,-0.11 -0.37,-0.16l-8.41 -3.29c-1.14,-0.51 -0.41,-0.15 -1.32,-0.78 -0.54,-0.36 0.82,-1.15 -10,-1.39 -0.04,-1.16 -2.94,-2.78 -4.07,-3.1l0.27 1.58z"/>
    <path class="fil6" d="M102.45 80.3l-1.92 4.57 -2.37 8.25c4.48,-3.95 -0.03,-1.22 6.78,-2.44 2.57,-0.47 1.86,-0.75 2.3,-1.04l2.91 -1.61c4.17,-3.11 1.97,-0.48 5.67,-3.38 1.74,-1.37 0.56,-0.59 2.78,-1.49 2.21,-0.9 1.36,-0.76 3.03,-1.8l2.35 0.8c-1.19,-3.21 -6.59,-8.36 -6.61,-10.93l-1.03 0.34c-0.17,0.06 -0.31,0.1 -0.49,0.16 -3.47,1.13 -1.44,0.59 -4.05,1.95l-2.74 1.54c-1.58,1.15 -1.81,1.39 -3.48,2.33 -2.64,1.48 -0.98,0.91 -3.13,2.75z"/>
   </g>
   <g>
    <path class="fil7" d="M33.14 238.06c0.77,-1.68 -0.19,-0.1 1.02,-1.5l2.51 -2.27c1.54,-1.46 1.92,-2.31 4.62,-2.29 1.55,3.31 1.88,16.44 2.21,21.81 0.84,13.71 3.2,44.92 6.31,57.94 0.45,1.89 1.3,2.25 0.68,4.17 -2.9,-4.92 -4.81,-8.89 -8.17,-12.59 -1.14,-1.26 -2.11,-3.12 -2.36,-4.93 -0.04,-0.49 -18.01,-40.03 -15.24,-47.92 2.48,-7.07 8.03,-11.71 8.42,-12.42zm368.68 -94.63c2.38,5.66 3.78,11.99 5.76,18.67l2.21 9.99c2.94,14.94 3.59,30.26 3.39,45.54 -0.05,3.83 -0.85,8 -0.75,11.1 0.78,4.66 -2.36,20.02 -3.44,25.84 -0.61,3.33 -1.66,4.76 -2.1,7.4 -0.98,5.77 -2.68,9.7 -4.43,14.93l-4.77 12.45c-1.32,1.29 0.11,0.48 -2.04,1.17 0.14,-4.71 2.92,-11 4.28,-14.88 1.55,-4.43 2.94,-8.76 4.08,-13.63 4.98,-21.3 6.91,-43.03 5.01,-65.12 -0.21,-2.43 -0.81,-5.59 -1.11,-7.78 -0.57,-4.13 -2.28,-15.98 -3.33,-18.67 -0.98,-2.48 -1.12,0.01 -1.03,-1.77l-1.04 -5.18c-2.28,-4.62 -1.05,-4.32 -2.23,-7.29 -0.33,-0.83 -0.98,-1.77 -1.27,-2.43 -0.31,-0.69 -0.62,-1.88 -0.92,-2.78 -2.02,-6.13 -1.18,-4.24 -3.9,-4.53 -1.62,4.54 4.4,11.97 3.84,17.46 -0.24,2.92 9.99,38.34 3.94,73.6 -3.88,22.65 -8.69,40.95 -19.3,61.3 -5.22,0.52 -8.07,-3.2 -8.61,-8.09l-0.22 -10 0.72 -4.28c-6.08,1.96 -10.11,12.2 -11.77,14.21 -0.94,1.14 -6.02,3.52 -7.86,4.9 -13.56,10.16 -11.35,19.4 -14.19,23.06 -2.87,3.7 -8.15,10.6 -7.37,16.92 -0.4,-0.82 -0.25,-0.07 0.72,-0.54 1.85,-5.17 7.47,-14.45 14.43,-14.17 0.45,-0.3 0.45,-0.37 1.39,-0.64l3.2 -0.15c1.61,0.15 2.34,0.38 3.72,0.85 7.48,2.32 4,11.52 0.46,15.9 -8.87,10.96 -24.78,25.21 -36.64,33.05 -15.48,10.24 -45.53,26.4 -64.94,28.63 -8.65,1.48 -18.18,4.4 -27.57,4.2 2,-2.58 4.76,-4.32 6.85,-6.82l5.15 -7.1c0.66,-0.75 0.09,-0.26 0.97,-0.87 0.27,-1.79 0.97,-1.55 1.08,-3.65l0.2 -2.15c-2.66,1.77 -6.14,5.46 -9.88,8.13 -7.95,5.67 -15.17,9 -24.67,11.24 -6.78,1.6 -8.47,1.85 -15.08,0.45 1.11,0.36 4.95,-0.49 6.91,-1.29 0.12,-0.05 0.25,-0.11 0.36,-0.16l3.15 -1.07c1.66,-0.57 -1.3,0.29 1.17,-0.4l4.63 -1.23c1.64,-0.68 1,0.26 1.8,-1.35 -1,-0.52 -2.85,-0.15 -4.05,-0.29 -2.55,-0.2 -8.75,1.09 -12.2,1.34 -4.17,0.32 -8.34,0.41 -12.78,0.37 -24.23,-0.23 -41.62,-6.8 -62.01,-17.62 -12.22,-6.49 -37.36,-23.55 -45.2,-34.62 -2.21,-3.11 -9.16,-13.51 -9.93,-17.28 -5.11,-7.47 -16.13,-38.5 -16.61,-50.53l-3.01 -31.42c-1.96,-2.6 -1.14,-15.9 -1.04,-19.17 0.1,-2.95 0.71,-6.26 0.98,-8.68 0.3,-2.56 0.08,-5.78 0.26,-8.55 -0.32,1.42 -1.27,4.15 -1.81,6.51 -0.55,2.37 -1.18,5.66 -3.16,6.65 -0.11,1.37 -2.59,3.38 -3.95,4.94 -0.89,1.03 -3.37,4.35 -3.83,4.74 -0.82,2.5 -4.69,7.33 -6.61,10.84 -1.19,2.18 -0.59,2.29 -2.71,2.85 -0.5,-1.47 -0.58,-3.95 -0.97,-5.48 -0.76,-3.01 -1.43,-1.65 -1.24,-4.98 0.23,-1.48 -0.93,-14.72 -1.18,-17.63 -0.39,-4.66 0.49,-15.21 -0.26,-18.41l-0.01 -7.42c-2.9,1.36 -2.44,-0.71 -3.11,3.34 -2.38,14.42 -1.24,36.39 0.91,50.55 0.56,3.69 1.24,6.15 1.93,9.78l4.6 19.39c3.85,11.9 4.53,12.73 9.18,22.66 2.85,6.08 9.58,19.2 13.41,24.4 1.86,2.52 4.56,7.17 6.51,8.81 1.6,0.61 1.15,-0.1 3.01,2.51l13.46 16.27c5.48,5.99 9.73,9.68 15.67,14.57 0.83,0.69 1.56,1.25 2.37,1.85 4.85,3.58 1.31,0.52 4.84,4.37 1.2,1.29 3.37,1.83 5.27,3.13 10.3,7.01 9.6,6.69 20.84,13.21 1.96,1.13 3.64,1.86 5.65,2.88 1.64,0.83 4.56,2 5.61,3.46 -1.07,0.87 -1.64,1.36 -3.98,0.47l-7.58 -3.69c-8.11,-4.11 -22.29,-12.43 -28.49,-17.9l-4.3 -3.58c-5.58,-3.92 -6.36,-5.54 -10.45,-8.74l-1.2 -1.03c-3.73,-3.36 -14.99,-12.62 -15.83,-17.13 -0.62,-1.11 -3.39,-4.28 -4.69,-5.97 -1.65,-2.16 -3.4,-4.02 -4.95,-6.22 -1.57,-2.2 -8.08,-11.3 -8.39,-12.97 -2.54,-1.33 -7.68,-11.23 -9.34,-14.61 -1.32,-2.68 -2.68,-4.92 -3.9,-7.82l-2 -3.81c-0.91,-1.74 -0.95,-1.79 -1.75,-4.15 -1.21,-3.59 -1.37,-1.72 -3.04,-5.93l-4.69 -12.86c-1.04,-2.2 -0.49,-3.01 -1.66,-5.81 -0.05,-0.11 -0.12,-0.25 -0.16,-0.36 -3.59,-8.47 -0.42,-8.85 -5.37,-8.81 0,0.7 -0.06,1.9 0.03,2.54 0.36,2.56 0.16,0.67 0.49,1.61 1.63,4.65 -1.2,3.93 0.71,12.69 1.08,4.92 3.6,9.52 4.32,14.47 -0.45,2.84 5.64,15.65 7.14,18.63 7.79,15.43 10.26,19.29 19.79,33.42 1.06,1.58 1.62,2.02 2.79,3.59l15.06 17.93c5.69,5.91 14.36,14.05 20.98,19l3.4 2.91c1.47,1.1 2.62,2.01 3.96,2.95l11.73 7.96c29.98,17.9 57.68,28.93 94.11,32 38.04,3.2 76.08,-3.09 110.37,-19.55 10.49,-5.03 28.12,-15.32 36.94,-22.65 3.1,-2.59 8.07,-5.98 11.16,-9.06l6.65 -6.12c2.35,-2.35 4.31,-4.3 6.65,-6.65 1.19,-1.19 2.03,-1.99 3.21,-3.18 8.2,-8.3 19.55,-24.24 25.69,-34.43 5.15,-8.56 9.4,-16.46 13.35,-26.03l7.17 -19.43c5.69,-16.92 6.72,-27.76 8.87,-44.34 2.96,-22.87 -0.33,-50.23 -5.8,-72.2 -0.94,-3.8 -1.78,-6.91 -2.94,-10.36l-2.37 -7.23c-0.14,-0.39 -0.24,-0.74 -0.44,-1.11 -0.58,-1.04 -0.33,-0.64 -0.85,-0.96l-0.89 -1.09c-0.08,-0.13 -0.16,-0.26 -0.23,-0.39l-4.71 -11.25c-1.14,-2.4 -7.51,-15.81 -8.99,-17.51 -0.98,-1.12 -0.28,-0.31 -1.35,-1.26l-2.96 -3.54c-1.18,-2.68 -0.12,-2.05 -2.55,-4.25 -5.5,-4.99 -1.96,-6.32 -7.87,-4.97 0.93,1.13 0.19,0.46 0.82,1.41 0.63,0.95 0.34,0.45 0.89,1.19 0.72,0.98 0.95,1.42 1.61,2.72 0.26,0.51 0.53,1.04 0.73,1.38 0.06,0.1 0.14,0.23 0.2,0.33l1.53 2.19c0.06,0.11 0.13,0.25 0.19,0.36 0.06,0.11 0.12,0.25 0.18,0.37l0.33 0.74c0.29,0.62 0.52,1.04 0.89,1.74l7.77 16.2c1.02,2.56 0.81,4.08 1.99,6.53 1.1,2.28 4.27,10.19 4.23,13.31z"/>
    <path class="fil7" d="M219.77 212.24l-0.05 2.19c3.41,-0.01 5.72,0.33 8.38,0.48 3.89,0.24 0.32,-0.75 8.51,-0.07 2.6,0.21 5.6,-0.39 8.2,-0.75l5.7 -1.2c1.03,-0.24 1.49,-0.18 2.54,-0.19l0 -1c1.69,-0.16 1.77,-0.49 3.41,-0.83l7.1 -1.64c2.19,-0.34 1.46,-1.4 2.25,-1.72 0.06,-0.02 8.69,-0.22 11.38,-0.85 3.55,-0.83 3.18,0.59 7.4,-1.14l4.44 -0.96c0.21,-0.04 1,-0.27 1.68,-0.34l2.59 -0.08c0.54,-0.12 1.24,-0.31 2.2,-0.48 2.88,-0.52 2.83,-0.27 4.81,-1.56 1.61,-1.05 -0.31,-0.3 1.77,-0.9 0.41,-0.12 1.27,-0.23 1.78,-0.35 0.36,-0.08 1.8,-0.48 2.1,-0.55 1.32,-0.28 3.31,-0.48 4.17,-0.63 8.78,-1.45 5.65,-1.46 15.82,-1.77 0.46,-1.1 0.8,-2.13 1.15,-3.36 0.48,-1.7 0.57,-2.3 1.95,-3.52 1.33,-8.18 3.42,-14.73 4.18,-23.47 0.73,-8.37 1.04,-19.36 0.28,-27.99 -1.46,-16.66 -4.3,-32.64 -8.84,-47.98 -0.84,-0.72 -0.28,-0.1 -0.86,-1.08 -1.59,-2.7 0.83,-0.94 -3.43,-4.63l-9.82 -9.31c-1.12,-1.01 -1.4,-1.55 -2.28,-2.5 -1.4,-1.52 -1.52,-1.41 -2.41,-1.42l-0.8 0.26c-2.75,2.37 -42.32,63.34 -44.9,67.33 -6.12,9.45 -39.96,64.66 -40.4,72.01z"/>
    <path class="fil7" d="M94 109.61c-2.09,6.84 -3.89,25.34 -4.39,32.97 -0.89,13.6 0.49,23.16 1.53,36.2l0.22 -0.14c0.73,4.41 3.61,17.73 5.09,20.36 2.8,0.8 4.8,1.75 8.14,1.85 10.84,0.33 18.07,1.27 29.58,1.61l6.62 0.69c5.04,0.13 1.27,-0.13 4.96,0.77 1.5,0.37 1.23,-0.21 2.85,0.49 5.51,2.41 -1.6,0.13 7.98,2.14 2.75,0.58 2.11,0.06 4.63,1.24l1.87 0.82c0.14,0.06 0.29,0.14 0.41,0.2l-2.34 0.52c2.54,1.44 3.14,-0.56 5.51,0.99 2.6,1.71 -1.78,0.61 4.27,2.07 0.13,0.03 0.33,0.1 0.44,0.13 1.11,0.29 0.73,1.48 -1.07,1.65 3.97,0.11 2.4,1.48 2.41,1.55 3.21,-0.01 3.14,0.71 5.44,1.01 2.71,0.36 3.67,-0.32 6.02,0.62l-1.89 1.06c-0.65,0.23 -0.91,-0.06 -1.77,0.28l16.69 0.3c2.92,-0.04 2.77,-0.65 5.37,-0.83l3.04 -0.91c-0.53,-7.04 -29.54,-55.65 -35.17,-64.88l-29.48 -45.58c-2.97,-4.42 -7.83,-10.67 -9.97,-14.7l-13.08 5.75c-4.35,0.25 -2.02,0.31 -4.78,0.91 -1.86,0.4 -4.18,0.08 -7.07,0.79 -0.95,0.24 0.11,-1.11 -1.04,1.13 -0.04,0.08 -0.17,0.51 -0.2,0.41 -0.03,-0.1 -0.12,0.32 -0.22,0.46 -3.73,0.03 -5.23,-0.52 -7,0.54 -1.74,0.43 -0.47,-0.64 -1.23,1.14 -0.81,1.94 0.49,3.27 -2.37,6.39z"/>
    <path class="fil7" d="M311.58 63.95l-0.88 1.64 4.84 4.6 0.15 -1.11 -3.58 -5.92c-0.87,0.71 -0.22,-0.23 -0.53,0.79z"/>
   </g>
   <g>
    <path class="fil8" d="M184.9 22.04c2.6,0.57 5.1,-0.19 8.01,-0.45 3.75,-0.34 4.39,0.25 7.47,0.25 0.34,1.1 0.25,-0.48 -0.32,0.59 -0.64,1.2 -0.59,-0.78 -0.22,0.47 1.87,0.47 1.88,0.92 3.73,0.04 0.37,0.66 0.5,-0.27 0.1,0.67 -0.26,0.62 0.18,0 -0.68,0.29 0.12,0.08 0.31,0.13 0.4,0.17l6.44 4.28c5.34,5.79 1.59,4.07 6.3,6.47 0.11,0.06 0.27,0.11 0.37,0.17 1.66,0.96 1.24,-0.8 1.3,2.13 -1.12,0.56 -0.52,-1.22 -0.48,2.3 0.02,1.45 -0.12,0.89 1.05,2.72 -0.77,1.85 -0.24,-0.15 -1.59,2.13 1.63,0.43 1.4,0.09 1.58,1.92l-8.93 6.45c-2.85,2.41 -1.23,-1.03 -7,3.15 -6.35,4.62 -11.33,2.88 -18.54,5.38 -2.22,0.77 -1.13,0.99 -2.72,1.35 -2.56,0.58 1.54,-1.86 -5.16,1.96l-7.98 4.47c-0.14,1.3 -1.43,1.39 -3.27,1.8l-4.16 1.74c-0.09,0.06 -0.22,0.15 -0.32,0.21 -3.53,2.2 -4.63,1.81 -6.48,5.35 -1.12,2.15 -1.66,2.64 -4.59,3.21 -4.36,0.86 -3.23,1.42 -5.88,2.17 -3.85,1.08 -1.79,-1 -4.3,1.52 -0.08,0.08 -0.17,0.21 -0.25,0.29l-5.39 3.14c-1.11,0.62 -1.19,0.8 -2.18,1.46 -1.16,-1.09 -0.95,-1.32 -2.73,-2.04l2.51 4.29c2.14,4.03 7,10.28 9.97,14.7l29.48 45.58c5.63,9.23 34.64,57.84 35.17,64.88l-3.04 0.91c-1.37,2.04 -3.79,3.23 -6.41,6.46 -1.71,2.11 -3.17,5.14 -4.65,6.87 -0.89,3.56 -2.58,6.36 -3.73,10.29 -1.08,3.66 -1.61,7.79 -2.79,10.96 1.33,0 1.12,1.09 1.9,-3.53 0.24,-1.41 0.54,-2.59 0.85,-3.88 0.63,-2.57 1.55,-5.18 2.53,-7.67l7.98 -0.18c0.6,1.02 0.61,-0.25 0.46,2.28 3.21,-2.25 -0.37,0.6 1,-0.92 0.33,-0.37 0.62,-0.8 0.97,-1.27 0.74,-0.96 1.37,-1.62 1.98,-2.24 6.08,-6.22 10.91,-5.2 16.95,-0.92l0.98 -1.49 10.11 -0.04c0.91,2.18 1.61,4.62 3.25,6.02 -0.72,-3.82 -2.81,-8.23 -5.37,-10.67 0.51,-3.27 -7.51,-9.28 -11.29,-10.96 0.23,-2.24 0.8,-3.74 2.48,-5.03 0.44,-7.35 34.28,-62.56 40.4,-72.01 2.58,-3.99 42.15,-64.96 44.9,-67.33l-0.05 -1.97c-4.11,-2.82 -8.88,-8.62 -12.62,-12.37 -14.47,-14.51 -14.71,-16.71 -32.46,-29.75 -2.7,-1.98 -4.67,-2.62 -7.42,-4.26 -15.18,-2.68 -15.86,-3.69 -33.05,-4.7 -6.5,-0.39 -11.79,-0.21 -18.08,0.11 -2.94,0.15 -5.74,0.28 -8.51,0.55 -2.36,0.23 -6.08,0.1 -7.98,1.53z"/>
    <path class="fil8" d="M81.58 74.72c0.06,1.74 -6.03,16.16 -7.14,19.61 -1.17,3.63 -1.93,7 -2.88,10.96 -0.79,3.32 -1.3,8.19 -1.95,10.88 -1.24,21.94 2.13,20.36 3.35,32.04 -2.95,-1.33 -7.27,-9.57 -8.6,-12.72 -1.78,-4.18 -3.66,-11.41 -3.85,-16.38 -0.32,-0.54 -0.27,0.05 -0.7,-1.71 -0.07,-0.32 -0.17,-1.56 -0.2,-1.92l-0.05 -11.52c-0.68,0.28 -1.95,0.21 -2.82,3.19l-1.13 4.2c-0.43,1.56 -0.39,3.51 -0.76,4.57l-5.08 9.77c-0.59,1.44 -0.16,0.75 -0.83,1.74 -0.05,0.09 -0.16,0.2 -0.22,0.29 -1.74,2.4 -1.31,1.75 -1.43,5.84 -2.96,1.26 -1.4,-0.12 -2.2,2.97l-0.64 1.23c-0.02,0.01 -0.19,0.02 -0.21,0.02 -0.03,0.01 -0.22,0.1 -0.24,0.02 -0.03,-0.08 -0.19,-0.02 -0.27,0.01 -0.27,6.65 -1.66,7.63 -3.22,12.67 -0.3,0.97 -1.7,7.27 -1.47,9.11 0.37,3.13 0.3,1.1 -0.74,3.48 -0.81,1.84 -0.6,5.07 0.66,6.79 0.83,1.14 -0.27,0.5 1.26,1.15 3.15,-0.3 1.54,-0.51 2.25,-1.99 0.45,-0.94 1.75,-1.18 1.75,-1.18 0,2.82 -0.08,2.93 -0.51,5.09 0.11,0.06 0.28,0.11 0.35,0.13l2.26 0.15c0,1.85 -0.08,1.21 0.41,2.65 1.23,3.66 -0.05,1.56 1.71,7.71 -3.32,1.55 -1.99,4.61 -1.44,7.28 0.02,0.06 0.06,0.2 0.06,0.25 0.11,1.86 -2.72,1.65 -2.76,7.37l-1.11 9.04c0.14,0.08 0.34,0.06 0.45,0.08 0.11,0.02 0.3,0.05 0.45,0.08l1.47 0.29c0.18,0.05 0.37,0.13 0.52,0.17 0.15,0.05 0.41,0.37 0.52,0.21 0.12,-0.15 0.38,0.12 0.53,0.24 0,2.87 -0.35,2.37 -0.97,3.19 -1.32,11.91 -1.12,22.38 -1.17,34.58l3.01 31.42c0.82,0.98 0.34,-0.15 1.1,1.97 0.05,0.12 0.35,1.68 0.37,1.83 1.48,8.22 2.55,6.41 3.29,9.1 4.63,16.71 1.94,1.95 5.04,10.46 0.64,1.78 0.42,1.4 1.49,2.79 0.59,0.77 0.19,0.09 0.94,1.18l0.79 1.36c0.79,1.37 -0.22,0.04 0.81,1.3 0.89,1.09 0.06,0.19 1.1,1.02 1.99,1.59 1.42,0.28 2.2,2.58 0.47,1.38 -0.31,1.75 2.45,3.96 1.19,0.95 0.28,0.18 1.31,0.82 4.45,2.78 0.61,4.51 7.47,10.07 0.62,0.5 1.72,1.28 2.37,1.89l4.58 4.99c5.01,5.09 0.39,1.91 8.07,8.95 2.45,2.25 1.61,2.46 4.57,3.93 1.94,0.96 1.49,0.71 2.82,1.99l2.47 1.81c1.38,0.6 6.53,2.11 6.58,4.42 0.01,0.72 2.25,1.51 3.05,1.91 2.1,1.05 9.53,4.67 11.37,4.85 -0.31,-2.48 -1.34,-5.65 -0.9,-7.92 0.2,-4.34 -0.64,-8.35 -0.84,-11.94 -0.25,-4.45 0.08,-8.88 0.12,-13.32 -2.12,2.66 -1.02,15.61 -1.02,18.73l-6.87 -3.98c-2.49,-2.06 -1.3,-2.07 -4.63,-3.33 -4.73,-1.79 -1.78,-3.24 -6.54,-6.77 -1.39,-1.04 -0.96,-1.32 -2.67,-2.07l-4.76 -2.21c-1.02,-0.64 0.21,-0.05 -1,-0.58l-4.06 -2.36c-3.2,-2.88 -4.72,-5.97 -7.11,-9.4l-0.47 -0.59c-0.07,-0.08 -0.18,-0.19 -0.25,-0.28l-6.28 -8.6c-0.18,-0.19 -0.77,-0.77 -0.81,-0.8l-7.96 -13.89c-1.36,-2.02 -2.63,-2.57 -3.28,-4.79 -0.64,-2.17 0.33,-0.07 -0.67,-1.92 -1.33,-2.48 -2.84,-4.39 -3.98,-7.23 -1.65,-4.17 -0.53,-1 -2.25,-2.97 -1.06,-1.22 -1.44,-3.61 -2.26,-5.24 -0.05,-0.11 -0.13,-0.24 -0.18,-0.35 -0.44,-0.99 -0.46,-1.35 -0.6,-2.12l-2 -8.09c-0.61,-3.06 -0.13,-6.64 -0.94,-9.15 -1.66,-5.14 0.42,-5.45 0.61,-7.34 0.3,-3.13 -0.82,-4.27 0.29,-8.15 0.04,-0.14 0.1,-0.27 0.15,-0.4 0.04,-0.13 0.11,-0.26 0.15,-0.38l0.28 -0.76c1.36,-5.28 -0.62,-0.22 2.44,-8.25l0.56 -4.75c0.12,-0.08 0.33,-0.3 0.39,-0.19 0.06,0.12 0.3,-0.14 0.38,-0.18l5.44 -6.09c1.44,-0.99 2.53,-0.65 3.62,-0.68 2.76,-0.08 0.94,-0.15 3.5,-0.94l3.34 -0.92c0.1,-0.03 0.24,-0.1 0.34,-0.13l0.68 -0.17c2.06,-0.3 4.92,0.68 6.63,0.61l10.02 2.21c0.13,0.05 0.5,0.23 0.64,0.29 1.11,0.44 1.25,0.4 1.69,0.42 9.27,0.25 8.25,-1.44 12.19,2.75 1.6,1.7 -0.01,0.55 1.69,1.26l-0.27 -1.58c-2.28,-1.94 -7.73,-13.52 -8.34,-17.41 -1.48,-2.63 -4.36,-15.95 -5.09,-20.36l-0.22 0.14c-1.04,-13.04 -2.42,-22.6 -1.53,-36.2 0.5,-7.63 2.3,-26.13 4.39,-32.97 0.31,-3.24 2.98,-14.33 4.16,-16.49l2.37 -8.25c-1.54,1.15 -2.17,3.73 -2.73,5.79 -2.6,-0.13 -2.54,-0.25 -4.16,-1.4 -0.12,-0.09 -0.49,-0.36 -0.62,-0.45l-3.54 -1.86c-0.17,-6.77 -0.5,-11.24 0.36,-13.8 0.04,-0.13 0.11,-0.26 0.15,-0.39l0.46 -1.13c0.06,-0.16 0.21,-0.63 0.27,-0.79 2.47,-6.99 1.85,-3.4 3.54,-8.17 1.81,-5.09 3.03,-2.66 4.29,-5.73 -3.38,1.51 -7.6,5.23 -9.86,7.49 -1.6,1.61 -2.35,2.15 -3.8,4.69l-3 5.27c-0.05,-0.09 -0.2,0.23 -0.31,0.33z"/>
    <path class="fil8" d="M143.31 359.46c-2.09,0.9 -3.9,1.84 -5.96,2.66 -1.47,0.58 -4.82,1.63 -5.62,2.22 -0.95,1.39 0.19,0.63 -1.57,1.73l3.07 1.69c0.88,0.49 2.42,1 3.34,1.43 3.09,1.43 4.48,0.82 7.56,1.58 3.41,0.86 0.58,0.57 3.29,1.44 1.78,0.58 3.65,0.09 6.56,1.66l3.83 0.8c0.95,3.2 -1.26,-1.67 -0.53,0.9 9.44,0.3 7.62,2.29 15.95,3.06l-2.57 0.65c7.07,0.05 3.06,1.25 7.36,1.58l15.44 1.7c1.42,0.15 0.64,0.01 1.78,0.34 1.89,0.55 2.24,0.89 5.18,1.1 1.29,0.09 3,-0.05 4.21,0.11 4,0.55 -0.61,1.43 11.18,1.47 4.87,0.02 12.73,-0.45 17.05,-0.07 3.56,-0.31 6.8,-4.51 11.01,-5.47l-0.08 2.74 0.2 1.71 4.81 -0.59 -0.01 -1.38c1.76,-0.05 4.72,-0.54 6.57,-0.95 2.96,-0.65 2.55,-1.31 5.41,-2 3.98,-0.95 4.35,-0.75 7.64,-2.44 0.11,-0.06 0.24,-0.14 0.35,-0.19l24.95 -10.68c-2.3,-0.21 -1.36,-1.35 -1.28,-1.61 -1.03,-0.58 -4.25,-1.49 -5.51,-2.02 -1.97,-0.83 -3.13,-1.25 -5.33,-2.25 -3.61,-1.63 -7.09,-4.06 -10.45,-5.02l1.57 1.87c1.86,1.38 3.62,0.81 5.03,2.99l-6.55 2.81c-1.39,0.51 -2.6,0.68 -3.69,0.88 -6.36,1.18 -13.43,4.25 -25.09,5.02 -2.9,0.19 -5.2,0.66 -7.53,0.95 -8.05,0.97 -14.57,0.21 -16.02,0.41 -3.72,0.52 -13.18,0.75 -16.73,-0.03 -5.26,-1.16 -6.19,-0.69 -7.91,-1.13 -3.13,-0.81 -0.84,-0.5 -3,-1.29 -0.81,-0.29 -2.24,-0.63 -3.38,-0.74 -2.01,-0.18 -1.31,0.45 -3.65,-0.15 -3.48,-0.91 -2.98,-2.65 -9.35,-3.36 -2.09,-0.23 -2.48,-0.62 -3.94,-0.87 -1.42,-0.25 -2.41,-0.09 -3.9,-0.38 -6.9,-1.35 -4.96,-1.72 -4.62,-2.97l-3.02 -0.59c-1.21,-0.4 -1.5,-0.41 -2.99,-0.72 -4.15,-0.86 -1.98,-0.26 -6.16,-0.32 0.74,-1.04 0.03,-0.19 0.9,-0.94l2.39 -2.19c-3.62,1.24 -6.12,3.73 -10.19,4.85z"/>
    <path class="fil8" d="M322.98 209.17l-2.5 4.17c-1.19,3.48 -3.41,4.77 -4.76,7.76 2.14,-1.1 3.37,-3.07 4.33,-4.57 4.08,0.06 13.61,-1.21 16.01,-0.04 1.07,3.49 -1.51,-2.55 -0.54,0.98 4.24,1.79 10.77,-0.69 15.04,2.15 1.03,0.68 -0.09,0.49 1.94,1.73l2.99 1.8c2.76,1.69 0.59,-0.31 2.23,2.66l1.29 1.89c4.08,6.24 0.76,1.55 2.99,6.09 1.41,2.89 0.02,2.83 0.15,7.7 0.03,1.17 -0.17,4.04 -0.16,4.79 0.02,1.79 0.37,5.01 -0.18,7.65 -0.59,2.88 -0.16,0.97 -1.04,2.22 -1.59,2.23 -0.21,-2.45 -1.04,2.05 -0.57,3.12 0.69,1.71 -0.83,4.02 -1.57,2.37 -0.11,4.59 -1.3,6.74 -0.75,1.34 0.25,0.15 -0.58,0.48 -0.07,0.03 -0.32,-0.21 -0.49,-0.21 -0.18,2.07 -0.45,1.8 -0.83,3.53 -0.77,3.56 -0.05,3.4 -2.42,8.3 -0.06,0.11 -0.12,0.24 -0.18,0.36l-0.79 1.35c-1.8,3.13 -0.42,2.44 -3.58,5.02 -1.8,1.47 -3.51,2.72 -4.16,5.41 1.58,-0.98 1.12,-0.68 2.34,-1.98 3.24,-3.45 10.96,-10.71 15.24,-11.1 0.52,-0.62 0.18,-0.32 0.91,-0.86 0.68,-0.5 0.55,-0.35 1.19,-0.67 1.18,-1.96 0.78,-0.82 2.24,-1.97 2.56,-2.02 0.24,-2.57 1.75,-5.6l1.21 -2.61c0.09,-0.36 0.41,-2.59 0.61,-3.06l0.81 -1.25c2.14,-3.71 1,-6.32 2.16,-10.17 1.12,-3.71 1.95,-11.28 1.42,-15.44 -0.06,-0.5 -0.48,-2.8 -0.65,-3.2 -0.05,-0.13 -0.13,-0.26 -0.19,-0.38 -1.2,-2.34 -0.63,0.87 -1,-1.32 -0.08,-2.7 0.32,-5.05 -0.97,-6.84 -1.98,-2.75 -0.71,0.12 -1.93,-3.26 -1.34,-3.73 -3.63,-2.2 -4.73,-7.64 -0.01,-0.04 -0.03,-0.18 -0.04,-0.22l-3.42 -2.79c-3.66,-2.14 -2.01,-1.64 -2.99,-3.85 -2.18,-0.05 -3,0.13 -4.85,-0.57l-3.11 -1.16c-6.28,-2.39 -6.56,0.1 -12.68,-1.74l-11.41 -1.43c-1.08,1.23 -2.76,5.46 -3.14,4.79 -0.06,-0.1 -0.24,0.2 -0.36,0.29z"/>
    <path class="fil8" d="M302.21 348.98c-0.49,0.68 -0.35,-0.03 -0.57,1.21 -0.29,1.62 -0.17,0.7 0.04,2.04 0.59,2.65 -0.42,5.64 -0.62,8.43l7.29 -4.26c0.1,-0.09 0.34,-0.35 0.4,-0.43l0.18 -0.38c0.03,-0.07 0.03,-0.27 0.03,-0.33 0,-0.02 -0.02,-0.14 -0.02,-0.16 0,-0.47 1.49,-0.43 3.42,-2.09 1.47,-1.26 1.31,-1.34 2.94,-2.36l1.95 -1.26c5.07,-3.3 9.04,-8.38 12.55,-10.84 2.17,-1.52 1.33,-0.37 1.93,-3.68l0.3 -11.76c-0.74,0.86 -0.35,0.15 -0.87,1.46 -0.48,1.22 -0.06,-0.12 -0.31,1.04l-0.11 7.47c-1.34,1.12 -1.88,1.5 -3.62,2.69 -3.81,2.63 -4.14,4.37 -10.1,9.08l-14.65 10.23c0.15,-2.41 0.37,-3.75 -0.16,-6.1z"/>
   </g>
   <g>
    <path class="fil9" d="M120.62 327.77c0.92,-30.17 11.73,-46.31 37.25,-54.8 5.99,-1.99 20.36,-4.33 26.95,-3.63 1.08,11.5 2.69,20.57 8.13,30.17 1.42,2.52 4.28,5.51 4.92,7.5 -2.29,6.42 -15.45,21.61 -19.68,26.71 -9.43,11.37 -23.64,19.71 -24.69,20.89l-2.39 2.19c-0.87,0.75 -0.16,-0.1 -0.9,0.94 4.18,0.06 2.01,-0.54 6.16,0.32 1.49,0.31 1.78,0.32 2.99,0.72l3.02 0.59c-0.34,1.25 -2.28,1.62 4.62,2.97 1.49,0.29 2.48,0.13 3.9,0.38 1.46,0.25 1.85,0.64 3.94,0.87 6.37,0.71 5.87,2.45 9.35,3.36 2.34,0.6 1.64,-0.03 3.65,0.15 1.14,0.11 2.57,0.45 3.38,0.74 2.16,0.79 -0.13,0.48 3,1.29 1.72,0.44 2.65,-0.03 7.91,1.13 3.55,0.78 13.01,0.55 16.73,0.03 1.45,-0.2 7.97,0.56 16.02,-0.41 2.33,-0.29 4.63,-0.76 7.53,-0.95 11.66,-0.77 18.73,-3.84 25.09,-5.02 1.09,-0.2 2.3,-0.37 3.69,-0.88l6.55 -2.81c-1.41,-2.18 -3.17,-1.61 -5.03,-2.99l-1.57 -1.87c-1.14,-1.26 -5.41,-3.62 -7.24,-4.91 -2.82,-1.99 -5.02,-3.68 -7.22,-5.56 -3.15,-2.72 -11.97,-10.45 -12.84,-12.99 -1.57,-0.87 -0.66,-0.23 -1.91,-1.55l-8.26 -10.31c-12.28,-16.66 -9.25,-10.8 -3.65,-20.64 5.26,-9.27 7.17,-18.74 7.96,-29.85 3.28,-1.06 16.13,0.82 19.88,1.43 14.04,2.3 35.03,13.87 38.12,26.91 2.69,3.03 5.16,17.54 5.61,23.48 0.35,4.75 0.91,8.37 0.96,13.31 0.04,3.81 -0.86,11.48 -0.34,14.3 0.53,2.35 0.31,3.69 0.16,6.1l14.65 -10.23c5.96,-4.71 6.29,-6.45 10.1,-9.08 1.74,-1.19 2.28,-1.57 3.62,-2.69l0.11 -7.47c0.25,-1.16 -0.17,0.18 0.31,-1.04 0.52,-1.31 0.13,-0.6 0.87,-1.46 0.06,-1.18 0.31,-2.41 0.44,-3.51l1.05 -4.15c-0.29,-3.43 2.94,-9.62 4.46,-12.38 1.12,-2.03 1.92,-3.35 3.29,-5.21 1.4,-1.89 3.1,-3.08 3.3,-4.66 0.65,-2.69 2.36,-3.94 4.16,-5.41 3.16,-2.58 1.78,-1.89 3.58,-5.02l0.79 -1.35c0.06,-0.12 0.12,-0.25 0.18,-0.36 2.37,-4.9 1.65,-4.74 2.42,-8.3 0.38,-1.73 0.65,-1.46 0.83,-3.53 0.17,0 0.42,0.24 0.49,0.21 0.83,-0.33 -0.17,0.86 0.58,-0.48 1.19,-2.15 -0.27,-4.37 1.3,-6.74 1.52,-2.31 0.26,-0.9 0.83,-4.02 0.83,-4.5 -0.55,0.18 1.04,-2.05 0.88,-1.25 0.45,0.66 1.04,-2.22 0.55,-2.64 0.2,-5.86 0.18,-7.65 -0.01,-0.75 0.19,-3.62 0.16,-4.79 -0.13,-4.87 1.26,-4.81 -0.15,-7.7 -2.23,-4.54 1.09,0.15 -2.99,-6.09l-1.29 -1.89c-1.64,-2.97 0.53,-0.97 -2.23,-2.66l-2.99 -1.8c-2.03,-1.24 -0.91,-1.05 -1.94,-1.73 -4.27,-2.84 -10.8,-0.36 -15.04,-2.15 -0.97,-3.53 1.61,2.51 0.54,-0.98 -2.4,-1.17 -11.93,0.1 -16.01,0.04 -0.96,1.5 -2.19,3.47 -4.33,4.57 -3.09,1.81 -7.99,12.43 -31.69,23.73 -5.3,2.53 -14.67,5.9 -20.96,7.03 -5.89,1.05 -19.89,2.54 -25.37,0.35 -1.47,-4.13 -1.89,-9.95 -3.75,-13.31 -1.64,-1.4 -2.34,-3.84 -3.25,-6.02l-10.11 0.04 -0.98 1.49c14.54,11.58 13.47,54.96 -3.81,62.41 -12.06,5.19 -19.61,-11.47 -21.43,-20.35 -4.39,-21.33 4.08,-34.95 4.34,-36.71 0.15,-2.53 0.14,-1.26 -0.46,-2.28l-7.98 0.18c-0.98,2.49 -1.9,5.1 -2.53,7.67 -0.31,1.29 -0.61,2.47 -0.85,3.88 -0.78,4.62 -0.57,3.53 -1.9,3.53 -1.84,-0.32 -10.48,0.6 -13.89,0.47 -20.05,-0.73 -47.22,-13.27 -59.54,-27.63 -0.85,-0.98 -5.88,-7.17 -6.5,-7.59 -1.7,-0.71 -0.09,0.44 -1.69,-1.26 -3.94,-4.19 -2.92,-2.5 -12.19,-2.75 -0.44,-0.02 -0.58,0.02 -1.69,-0.42 -0.14,-0.06 -0.51,-0.24 -0.64,-0.29l-10.02 -2.21c-1.71,0.07 -4.57,-0.91 -6.63,-0.61l-0.68 0.17c-0.1,0.03 -0.24,0.1 -0.34,0.13l-3.34 0.92c-2.56,0.79 -0.74,0.86 -3.5,0.94 -1.09,0.03 -2.18,-0.31 -3.62,0.68l-5.44 6.09c-0.08,0.04 -0.32,0.3 -0.38,0.18 -0.06,-0.11 -0.27,0.11 -0.39,0.19l-0.56 4.75c-3.06,8.03 -1.08,2.97 -2.44,8.25l-0.28 0.76c-0.04,0.12 -0.11,0.25 -0.15,0.38 -0.05,0.13 -0.11,0.26 -0.15,0.4 -1.11,3.88 0.01,5.02 -0.29,8.15 -0.19,1.89 -2.27,2.2 -0.61,7.34 0.81,2.51 0.33,6.09 0.94,9.15l2 8.09c0.14,0.77 0.16,1.13 0.6,2.12 0.05,0.11 0.13,0.24 0.18,0.35 0.82,1.63 1.2,4.02 2.26,5.24 1.72,1.97 0.6,-1.2 2.25,2.97 1.14,2.84 2.65,4.75 3.98,7.23 1,1.85 0.03,-0.25 0.67,1.92 0.65,2.22 1.92,2.77 3.28,4.79l7.96 13.89c0.04,0.03 0.63,0.61 0.81,0.8l6.28 8.6c0.07,0.09 0.18,0.2 0.25,0.28l0.47 0.59c2.39,3.43 3.91,6.52 7.11,9.4l4.06 2.36c1.21,0.53 -0.02,-0.06 1,0.58l4.76 2.21c1.71,0.75 1.28,1.03 2.67,2.07 4.76,3.53 1.81,4.98 6.54,6.77 3.33,1.26 2.14,1.27 4.63,3.33l6.87 3.98c0,-3.12 -1.1,-16.07 1.02,-18.73z"/>
    <path class="fil9" d="M184.9 22.04c-7.9,-1.2 -39.24,9.22 -48.18,12.84 -6.76,2.74 -14.04,6.62 -20.09,10.14 -4.24,2.47 -16.09,9.08 -18.08,11.92 -1.26,3.07 -2.48,0.64 -4.29,5.73 -1.69,4.77 -1.07,1.18 -3.54,8.17 -0.06,0.16 -0.21,0.63 -0.27,0.79l-0.46 1.13c-0.04,0.13 -0.11,0.26 -0.15,0.39 -0.86,2.56 -0.53,7.03 -0.36,13.8l3.54 1.86c0.13,0.09 0.5,0.36 0.62,0.45 1.62,1.15 1.56,1.27 4.16,1.4 0.56,-2.06 1.19,-4.64 2.73,-5.79l1.92 -4.57c0.35,-1.85 2.38,-7.52 3.65,-8.47 0.87,-3.2 2.93,-5.92 4.35,-8.71 1.17,0.37 3.35,3.61 3.95,5.19l2.97 2.92c0.02,2.57 5.42,7.72 6.61,10.93l4.5 5.64c1.78,0.72 1.57,0.95 2.73,2.04 0.99,-0.66 1.07,-0.84 2.18,-1.46l5.39 -3.14c0.08,-0.08 0.17,-0.21 0.25,-0.29 2.51,-2.52 0.45,-0.44 4.3,-1.52 2.65,-0.75 1.52,-1.31 5.88,-2.17 2.93,-0.57 3.47,-1.06 4.59,-3.21 1.85,-3.54 2.95,-3.15 6.48,-5.35 0.1,-0.06 0.23,-0.15 0.32,-0.21l4.16 -1.74c1.84,-0.41 3.13,-0.5 3.27,-1.8l7.98 -4.47c6.7,-3.82 2.6,-1.38 5.16,-1.96 1.59,-0.36 0.5,-0.58 2.72,-1.35 7.21,-2.5 12.19,-0.76 18.54,-5.38 5.77,-4.18 4.15,-0.74 7,-3.15l8.93 -6.45c-0.18,-1.83 0.05,-1.49 -1.58,-1.92 1.35,-2.28 0.82,-0.28 1.59,-2.13 -1.17,-1.83 -1.03,-1.27 -1.05,-2.72 -0.04,-3.52 -0.64,-1.74 0.48,-2.3 -0.06,-2.93 0.36,-1.17 -1.3,-2.13 -0.1,-0.06 -0.26,-0.11 -0.37,-0.17 -4.71,-2.4 -0.96,-0.68 -6.3,-6.47l-6.44 -4.28c-0.09,-0.04 -0.28,-0.09 -0.4,-0.17 0.86,-0.29 0.42,0.33 0.68,-0.29 0.4,-0.94 0.27,-0.01 -0.1,-0.67 -1.85,0.88 -1.86,0.43 -3.73,-0.04 -0.37,-1.25 -0.42,0.73 0.22,-0.47 0.57,-1.07 0.66,0.51 0.32,-0.59 -3.08,0 -3.72,-0.59 -7.47,-0.25 -2.91,0.26 -5.41,1.02 -8.01,0.45z"/>
   </g>
  </g>
 </g>
</svg>
