<?xml version="1.0" encoding="UTF-8"?>
<!DOCTYPE svg PUBLIC "-//W3C//DTD SVG 1.1//EN" "http://www.w3.org/Graphics/SVG/1.1/DTD/svg11.dtd">
<!-- Creator: CorelDRAW 2017 -->
<svg xmlns="http://www.w3.org/2000/svg" xml:space="preserve" width="4.2332mm" height="4.2332mm" version="1.1" style="shape-rendering:geometricPrecision; text-rendering:geometricPrecision; image-rendering:optimizeQuality; fill-rule:evenodd; clip-rule:evenodd"
viewBox="0 0 423.32 423.32"
 xmlns:xlink="http://www.w3.org/1999/xlink">
 <defs>
  <style type="text/css">
   <![CDATA[
    .fil0 {fill:none}
    .fil1 {fill:#0C0A0B}
    .fil2 {fill:#FE1E26}
   ]]>
  </style>
 </defs>
 <g id="Capa_x0020_1">
  <metadata id="CorelCorpID_0Corel-Layer"/>
  <rect class="fil0" x="-0" y="-0" width="423.33" height="423.33"/>
  <path class="fil1" d="M154.86 140.78c7.02,-0.3 15.16,-2.89 23.04,-3.57 24.32,-2.13 45.88,2.16 67.54,11.28 17.71,7.47 33.4,19.26 45.87,33.24l12.75 15c8.31,-27.67 7.85,-53.76 -10.96,-77.64l-16.81 -17.13c21.68,-4.86 27.14,-11.1 59.1,-11.18 22.44,-0.03 17.15,1.45 22.2,4.47 13.92,8.34 19.26,-21.27 -0.82,-13.29 -7.12,2.83 -39.23,-4.39 -75.97,9.12 -2.75,1.01 -11.62,4.88 -12.98,5.14 -2.72,0.53 -8.3,-2.75 -11.87,-3.9 -14.35,-4.65 -3.54,-2.25 -23.04,-29.64 -9.86,-13.83 -21.23,-25.77 -34.92,-36.13 -1.92,-1.45 -2.62,-1.87 -4.63,-3.44 -4.19,-3.28 -1.13,-0.3 -3.57,-5.51 -2.1,-4.46 -7.3,-6.62 -12.19,-3.27 -3.86,2.67 -4.25,8.49 -1.5,11.81 3.31,4 8.85,2.1 12.72,4.54 15.69,9.92 42.9,40.88 48.95,57.41 -24.11,0.68 -36.19,1.92 -53.45,14.08 -13.58,9.59 -21.53,20.15 -29.46,38.61z"/>
  <path class="fil1" d="M118.8 390.19c9.63,8.4 33.35,15.69 48.93,18.53l57.13 -227.37c-9.64,15.15 -18.02,34.64 -26.61,51.39 -10.79,21.07 -75.13,146.36 -79.45,157.45z"/>
  <path class="fil1" d="M158.57 178.57c-20.96,4.54 -15.35,36.63 6.92,32.52 8.11,-1.5 14.59,-9.64 12.77,-19.6 -1.45,-8.01 -9.69,-15.09 -19.69,-12.92z"/>
  <path class="fil1" d="M258.24 214.3c-20.71,6.91 -10.23,38.28 10.71,31.34 19.83,-6.57 10.99,-38.58 -10.71,-31.34z"/>
  <path class="fil1" d="M282.17 281.58c-10.68,3.29 -14.14,11.72 -11.75,20.38 5.85,21.1 38.25,12.09 31.83,-9.52 -2.17,-7.28 -10.59,-13.8 -20.08,-10.86z"/>
  <path class="fil1" d="M94.34 215.56c-21.57,9.27 -6.52,38.85 12.67,30.43 18.24,-8.01 8.79,-39.66 -12.67,-30.43z"/>
  <path class="fil1" d="M117.8 287.57c-22.5,5.18 -13.9,37.04 7.27,32.22 7.95,-1.82 14.53,-10.18 12.17,-20.52 -1.69,-7.38 -10.37,-13.8 -19.44,-11.7z"/>
  <path class="fil1" d="M218.09 323.05c-21.82,6.78 -10.84,37.62 9.68,31.49 18.52,-5.55 12.72,-38.45 -9.68,-31.49z"/>
  <path class="fil2" d="M218.09 323.05c22.4,-6.96 28.2,25.94 9.68,31.49 -20.52,6.13 -31.5,-24.71 -9.68,-31.49zm-100.29 -35.48c9.07,-2.1 17.75,4.32 19.44,11.7 2.36,10.34 -4.22,18.7 -12.17,20.52 -21.17,4.82 -29.77,-27.04 -7.27,-32.22zm164.37 -5.99c9.49,-2.94 17.91,3.58 20.08,10.86 6.42,21.61 -25.98,30.62 -31.83,9.52 -2.39,-8.66 1.07,-17.09 11.75,-20.38zm-187.83 -66.02c21.46,-9.23 30.91,22.42 12.67,30.43 -19.19,8.42 -34.24,-21.16 -12.67,-30.43zm163.9 -1.26c21.7,-7.24 30.54,24.77 10.71,31.34 -20.94,6.94 -31.42,-24.43 -10.71,-31.34zm-99.67 -35.73c10,-2.17 18.24,4.91 19.69,12.92 1.82,9.96 -4.66,18.1 -12.77,19.6 -22.27,4.11 -27.88,-27.98 -6.92,-32.52zm-3.71 -37.79c-5.66,3.27 -41.53,13.09 -58.79,33.36 -1.83,2.15 -3.95,4.26 -6.09,6.12 -6.72,5.81 -17.52,22.5 -21.58,30.15 -20.58,38.6 -19.86,89.21 -0.08,126.31 6.11,11.47 12.79,21.22 21.68,30.04 4.44,4.4 8.18,8.9 13.46,12.96 4.79,3.71 9.44,8.19 15.34,10.47 4.32,-11.09 68.66,-136.38 79.45,-157.45 8.59,-16.75 16.97,-36.24 26.61,-51.39l-57.13 227.37c88.69,14.27 159.62,-55.42 159.25,-136.21 -0.2,-45.44 -20.43,-67.48 -22.92,-75.78l-12.75 -15c-12.47,-13.98 -28.16,-25.77 -45.87,-33.24 -21.66,-9.12 -43.22,-13.41 -67.54,-11.28 -7.88,0.68 -16.02,3.27 -23.04,3.57z"/>
 </g>
</svg>
