<?xml version="1.0" encoding="UTF-8"?>
<!DOCTYPE svg PUBLIC "-//W3C//DTD SVG 1.1//EN" "http://www.w3.org/Graphics/SVG/1.1/DTD/svg11.dtd">
<!-- Creator: CorelDRAW 2017 -->
<svg xmlns="http://www.w3.org/2000/svg" xml:space="preserve" width="4.2332mm" height="4.2332mm" version="1.1" style="shape-rendering:geometricPrecision; text-rendering:geometricPrecision; image-rendering:optimizeQuality; fill-rule:evenodd; clip-rule:evenodd"
viewBox="0 0 423.32 423.32"
 xmlns:xlink="http://www.w3.org/1999/xlink">
 <defs>
  <style type="text/css">
   <![CDATA[
    .fil0 {fill:none}
    .fil12 {fill:black}
    .fil3 {fill:#1E1E2F}
    .fil4 {fill:#35468B}
    .fil9 {fill:#433043}
    .fil2 {fill:#737377}
    .fil7 {fill:#9B0E25}
    .fil13 {fill:#A0A0A3}
    .fil1 {fill:#CFCFCF}
    .fil6 {fill:#D71F3D}
    .fil10 {fill:#FE294A}
    .fil5 {fill:#FEFEFE}
    .fil8 {fill:#FF4A77}
    .fil11 {fill:#FF659D}
   ]]>
  </style>
 </defs>
 <g id="Capa_x0020_1">
  <metadata id="CorelCorpID_0Corel-Layer"/>
  <rect class="fil0" x="-0" y="-0" width="423.33" height="423.33"/>
  <g id="_2247617110992">
   <g>
    <path class="fil1" d="M324.84 238.08c3.87,0 4.66,-0.79 4.66,-4.66 0,-5.24 -9.32,-7.27 -9.32,1.33 0,2.89 1.73,3.33 4.66,3.33z"/>
    <path class="fil1" d="M204.15 279.42c1.83,0.79 1.73,1.33 4.66,1.33 4.16,0 3.26,-3.98 3.33,-7.98 -7.01,-1.49 -10.5,-1.23 -7.99,6.65z"/>
    <path class="fil1" d="M315.7 261.62c-4.62,4.47 1.26,10.8 5.22,6.65 3.05,-3.2 -0.82,-10.92 -5.22,-6.65z"/>
   </g>
   <g>
    <path class="fil2" d="M320.18 234.75c0,-8.6 9.32,-6.57 9.32,-1.33 0,3.87 -0.79,4.66 -4.66,4.66 -2.93,0 -4.66,-0.44 -4.66,-3.33zm10.07 -7.67l-0.41 -0.4c-3.87,-1.06 -6.05,-1.83 -8.44,-0.85 -3.15,1.28 -3.48,2.88 -3.48,11.84 6.85,4.56 4.98,3.97 13.58,1.08 1.65,-6.12 1.41,-5.61 -1.25,-11.67z"/>
    <path class="fil2" d="M212.14 272.77c-0.07,4 0.83,7.98 -3.33,7.98 -2.93,0 -2.83,-0.54 -4.66,-1.33 -2.51,-7.88 0.98,-8.14 7.99,-6.65zm-11.74 3.32c1.61,4.13 1.52,3.83 3.83,7.16l9.23 -0.82c3.73,-10.03 0.85,-13.63 -9.23,-13.42 -2.41,3.35 -2.19,2.91 -3.83,7.08z"/>
    <path class="fil2" d="M185.33 327.82c2.19,2.47 -3.17,2.03 3.48,2.03 4.24,-2.96 7.87,-6.71 0.88,-10.3 1.03,2.87 1.37,4.14 0.89,7.67l-5.25 0.6z"/>
   </g>
   <g>
    <path class="fil3" d="M204.23 269.01c10.08,-0.21 12.96,3.39 9.23,13.42l-9.23 0.82c-2.31,-3.33 -2.22,-3.03 -3.83,-7.16 1.64,-4.17 1.42,-3.73 3.83,-7.08zm19.46 31.76c3.18,-2.87 4.39,-1.16 4.39,-1.16 0.14,0.02 0.51,0.17 0.64,0.21l2.77 9.62c1.03,-1.63 0.54,0 1.11,-2.99l-0.72 -10.2c-2.82,-11.32 -12.87,-28.22 -21.22,-30.46 -8.06,-2.17 -17.18,8.7 -9.85,16.99 6.2,7.03 12.66,3.98 17.06,-5.07 6.65,7.87 4.47,11.1 5.82,23.06z"/>
    <path class="fil3" d="M167.11 325.3c1.49,-9 -1.12,1.02 0.36,-5.29 1.82,-7.74 -1,-2.99 4.08,-4.55l1.35 -3.35 -3.11 1.34c-6.71,-15.62 -2.62,-20 -2.54,-25.63 0.1,-6.62 0.65,-1.07 -1.11,-3.72 -2.4,10.3 -5.84,17.07 -3.34,30.88 1.05,5.78 0.94,6.66 4.31,10.32z"/>
   </g>
   <g>
    <path class="fil4" d="M223.69 300.77c-0.05,12.4 -7.8,23.46 -14.62,27.62 -11.13,6.76 -27.48,4.75 -31.76,-5.07l-4.57 -0.48 -1.19 -7.38c-5.08,1.56 -2.26,-3.19 -4.08,4.55 -1.48,6.31 1.13,-3.71 -0.36,5.29 5.26,1.93 8.18,5.08 15.81,7.35 7.67,2.29 14.22,2.69 22.54,1.45 18.29,-2.75 24.34,-5.82 26.03,-24.66l-2.77 -9.62c-0.13,-0.04 -0.5,-0.19 -0.64,-0.21 0,0 -1.21,-1.71 -4.39,1.16z"/>
    <path class="fil4" d="M337.33 267.84l-3.97 13.19c8.72,-2 8.44,-0.91 9.72,-10.51 0.92,-6.98 0.18,-11.38 -0.59,-17.64 -2.61,2.64 -2.19,-3.35 -2.19,3.21l-0.69 -0.33c-0.2,-0.02 -0.54,-0.24 -1.98,0.33 0.67,2.98 1.05,3.44 0.91,6.75l-1.21 5z"/>
   </g>
   <g>
    <path class="fil5" d="M230.64 325.27c6.48,-1.94 22.53,-12.68 25.7,-17.17 1.1,-4.3 -14.47,-37.93 -40.12,-42.46 9.45,13.12 27.05,20.29 14.42,59.63z"/>
    <path class="fil5" d="M346.66 261.43l-1.55 15.97c26.33,-7.08 4.26,-44.61 -3.54,-52.72 -4.85,-5.05 -10.14,-8.81 -20.05,-6.55 1.49,1.41 25.14,9.58 25.14,43.3z"/>
    <path class="fil5" d="M286.35 341.44c5.58,5.21 17.35,-2.7 23.15,-6.02 3.89,-2.22 4.65,-2.05 5.86,-5.49l-29.01 11.51z"/>
    <path class="fil5" d="M300.24 348.71c10.7,-0.17 14.98,-2.87 19.87,-10.12 -6.86,0.38 -15.15,5.41 -19.87,10.12z"/>
    <path class="fil5" d="M171.55 315.46l1.19 7.38 4.57 0.48c3.24,-2.25 2.97,-4.79 1.84,-9.88l-6.25 -1.33 -1.35 3.35z"/>
    <path class="fil5" d="M154.63 313.91c4.32,2.28 3.18,2.53 6.25,4.8l-2.21 -19.8 -4.04 15z"/>
    <path class="fil5" d="M185.33 327.82l5.25 -0.6c0.48,-3.53 0.14,-4.8 -0.89,-7.67 -5.77,0.9 -6.95,2.12 -4.36,8.27z"/>
    <path class="fil5" d="M324.88 276.06c6.95,-0.73 3.8,1.89 4.62,-4.63 -6.52,0.82 -3.89,-2.33 -4.62,4.63z"/>
   </g>
   <g>
    <path class="fil6" d="M135.61 283.23c-2.73,4.78 0.02,15.47 1.77,17.63 -8.11,6.35 -3.4,-2.74 -6.8,5.24l2.45 -0.27c1.98,-1.82 0.02,-0.74 3.99,-1.71 0.38,-0.09 3.35,-0.3 3.79,-0.36l2.51 -3.66c-5.76,-23.92 8.97,-53.62 33.96,-63.64 32.46,-13.01 74.54,8.24 84.19,41.73 1.16,4.03 2.43,10.39 2.24,15.22 -0.25,6.53 -2.29,8.73 -2.36,14.81 -12.24,14.87 -33.27,20.57 -43.66,25.99l-3.66 2.41c11.17,0.48 34.64,-9 40.82,-13.1l7.47 -5.69c1.97,-4.88 23.43,-21.55 -3.74,-60.85 -1.96,-2.84 -2.69,-3.69 -4.63,-6.03l-26.18 -19.53c-8.64,-3.46 -7.02,-2.64 -17.72,-4.47 -4.26,-0.73 -3.66,-0.37 -6.23,-0.79l-2.33 -0.54c-0.31,-0.06 -1.28,-0.22 -3.11,-0.33 -12.23,-0.68 -21.68,2.31 -33.06,8.69 -6.28,3.51 -12.51,9.33 -16.68,15.26 -1.67,2.36 -2.57,3.91 -4.23,6.55 -7.48,11.9 -3.56,22.4 -8.8,27.44z"/>
    <path class="fil6" d="M312.7 281.42c-3.02,-10.4 -8.38,-19.3 -7.62,-31.85l-3.06 2.66c0,-5.79 -0.99,-7.67 -1.47,-13.41 -1.42,-17.01 0.82,-43.7 22.2,-47.35 3.86,-0.66 5.15,-0.61 8.87,0.45 5.81,1.67 6.2,1.45 9.97,5.35l0.07 -6.33c0.54,-4.16 1.18,-7.49 -1.52,-10.12l-0.62 6.05c-2.73,-7.63 -22.23,-5.43 -29.43,-0.2 -6.58,4.78 -2.88,0.08 -9.72,10.05l-6.05 8.89c-2.71,3.78 -3.23,13.03 -3.48,17.71 -0.53,9.84 -0.4,16.63 2.19,28.64 1.85,8.52 9.48,25.49 17.51,28.6l2.16 0.86z"/>
    <path class="fil6" d="M330.69 324.19c-2.11,2.79 -0.74,0.55 -2.26,4.84 -0.58,1.62 -0.89,3.24 -1.61,5.1 -1.27,3.29 -3.16,5.61 -4.64,8.06 0.87,1.52 -2.15,4.12 6.72,-3.3 12.46,-10.42 30.52,-34.93 36.55,-50.12 2.77,-6.99 1.72,-6.27 6.37,-9.07 0.02,-6.7 0.62,-13.86 -3.54,-17.97 0.19,6.22 -0.17,1.31 -4.2,8.2 -5.44,9.31 -5.5,12.63 -7.45,16.7 -8.82,18.4 -23.72,34.9 -25.2,41.57l-0.74 -4.01z"/>
    <path class="fil6" d="M169.5 330.59c-1.35,-1.13 -0.42,-0.34 -2.52,-1.89l-6.96 -5.16c-3.77,-3 -4.6,-4.82 -7.31,-8.45l-12.42 -1.07 -1.07 0.23c4.2,2.35 3.21,4.03 6.95,8.54l17.81 9.28c9.28,0.05 -5.45,1.71 2.45,-0.33 0.36,-0.09 2.4,-0.97 3.07,-1.15z"/>
   </g>
   <g>
    <path class="fil7" d="M140.81 303.76l12.85 -1.31 5.1 -13.25c-6.27,-2.91 -6,0.08 -11.17,-6.32 12.55,1.96 12.34,4.41 19.27,-7.3 -1.69,-1.41 -4.74,-4.64 -5.94,-6.03 9.85,1.73 6.34,4.4 13.18,-1.46 -4.27,-4.27 -3.58,-2.29 -5.8,-7.18 18.25,7.26 11.61,-0.51 29.79,-1.19 28.99,-1.09 49.83,16.92 59.71,42 0.53,1.34 0.54,1.69 1.15,2.9 0.16,0.31 0.34,0.65 0.5,0.94l1.9 2.66c0.07,-6.08 2.11,-8.28 2.36,-14.81 0.19,-4.83 -1.08,-11.19 -2.24,-15.22 -9.65,-33.49 -51.73,-54.74 -84.19,-41.73 -24.99,10.02 -39.72,39.72 -33.96,63.64l-2.51 3.66z"/>
    <path class="fil7" d="M322.18 342.19c-4.32,2.39 -3.79,3.68 -7.81,6.03 -2.91,1.71 -6.18,2.03 -9.38,3.85l-2.65 1.53c-0.35,0.19 -1.45,0.72 -1.82,0.9l-42.65 18.85c-9.31,3.53 -18.08,4.67 -28.19,7.25l-11.29 2.54c-0.9,0.28 -1.46,0.42 -2.69,0.88l-13.92 5.61c-0.56,0.13 -1.48,0.29 -2.57,0.31 -1.6,0.04 -5.03,-0.24 -8.87,0.09 0.26,0.22 0.66,0.44 0.87,0.54l1.92 0.96c0.36,0.13 0.7,0.25 1.1,0.36 0.11,0.03 3.61,0.64 3.8,0.66 3.04,0.36 6.39,0.34 9.45,0.27 36.97,-0.93 72.52,-8.35 104.04,-26.03 29.13,-16.32 58.39,-55.9 60.3,-87.09 -4.65,2.8 -3.6,2.08 -6.37,9.07 -6.03,15.19 -24.09,39.7 -36.55,50.12 -8.87,7.42 -5.85,4.82 -6.72,3.3z"/>
    <path class="fil7" d="M305.08 249.57c1.04,-18.91 4.26,-33.87 23.14,-35.74l2.53 -9.05c0.22,4.07 -1.41,5.78 0.76,9.21 1.82,-2.77 0.81,-1.93 1.99,-3.91 2.61,-4.39 -0.99,-1.51 2.93,-3.53l-2.39 9.15 6.81 2.99c3.1,-3.94 4.97,-6.12 4.17,-13.11 -0.19,-1.69 -0.85,-5.3 -1.15,-7.1 -0.12,-0.75 -0.48,-2.98 -0.64,-3.6 -1.09,-4.13 0.16,-1.48 -1.57,-3.94l-0.07 6.33c-3.77,-3.9 -4.16,-3.68 -9.97,-5.35 -3.72,-1.06 -5.01,-1.11 -8.87,-0.45 -21.38,3.65 -23.62,30.34 -22.2,47.35 0.48,5.74 1.47,7.62 1.47,13.41l3.06 -2.66z"/>
    <path class="fil7" d="M139.22 314.25l1.07 -0.23c1.88,-2.85 -2.78,-2.62 3.18,-2.21 7.42,-0.09 8.44,1.35 9.14,-4.85l-16.48 -0.59c3.28,3.65 4.02,2.56 8.35,3.39 -9.98,0.55 -4.84,0.32 -5.26,4.49z"/>
    <path class="fil7" d="M342.41 219.98c1.49,3.96 4.48,5.8 7.16,8.93l-2.95 -12.9 -4.21 3.97z"/>
   </g>
   <g>
    <path class="fil8" d="M285.35 134.53l0.55 -3.54c0.76,8.7 5.44,7.99 4.68,26.76 -0.13,3.12 -0.01,3.31 -0.63,6.24l-0.74 3.03c-0.41,1.39 0.33,-0.67 -0.78,2.36l-2.26 6.13c-1.69,4.82 -3.25,5.27 -6.29,8.95l-13.29 13.13c-0.13,0.12 -0.41,0.41 -0.52,0.52l-15.85 7.46c-9.54,1.75 -32.84,0.8 -42.76,-3.03l-32.16 -15.5c-0.12,-0.09 -0.45,-0.28 -0.58,-0.37l-7.78 -7.42c-1.2,-1.48 -4.06,-4.54 -4.1,-4.6l-3.47 -7.92c-2.55,-3.93 -4.92,-7.53 -7.88,-10.97l-16.81 10.25c-0.16,0.18 -1.74,2.2 -1.8,2.29l-17.64 47.66c-2.88,14.65 -1.89,33.34 2.43,47.45l5.07 13.31c4.78,10.55 5.33,16.77 6.83,19.84 0.85,1.74 0.87,1.54 1.63,2.47 -2.08,4.87 -5.6,2.62 -0.62,7.07 3.4,-7.98 -1.31,1.11 6.8,-5.24 -1.75,-2.16 -4.5,-12.85 -1.77,-17.63 -1,-2.62 -1.16,-3.15 -1.19,-6.03 -0.06,-7.2 1.36,-11.17 -0.45,-18.68 -0.28,-1.15 -0.53,-2.01 -0.64,-2.96l-2.1 -15.88c0,-0.07 -0.02,-0.4 -0.02,-0.47 -0.23,-8.99 -0.57,-15.22 1.56,-23.55l0.76 -4.61c0.03,-0.14 0.13,-0.52 0.16,-0.67 2.5,-12.16 8.16,-8.05 4.16,-17.25l1.65 -0.45c4.37,-1.83 -0.9,0.68 1.89,-0.94l3.23 -0.98c0.23,0.03 1.6,0.36 1.84,0.42l2.75 0.55c0.07,0 0.39,0 0.47,0l1.04 -0.03c0.11,0.01 0.48,0.02 0.6,0.04l8.77 5.01c1.55,1.16 2.49,2.1 4.39,3.62 7.26,5.82 15.54,10.53 24.1,13.31l6.02 2.17c0.07,0.01 0.39,0.02 0.45,0.03l58.26 5.05c5.55,-2.08 11.45,-3.13 17.52,-7.01 0.13,-0.08 0.45,-0.32 0.57,-0.4l4.74 -2.98c0.86,-0.59 0.34,-0.51 1.87,-1.29l1.51 -0.6c4.15,-1.58 2.67,-3.46 9.94,-10.71 1.63,-1.62 1.75,-1.58 3.04,-3.11l2.63 -3.6c0.07,-0.11 0.24,-0.46 0.31,-0.58 0.12,-0.25 0.73,-1.76 0.87,-2.04l11.23 -31.77c0.01,-0.1 0.1,-0.46 0.12,-0.56 0.21,-1.29 0.26,-2.46 0.22,-3.85 -0.19,-7.85 -2.45,-11.44 -0.29,-18.34 -4.98,-6.22 -27.63,-19.83 -40,-23.26 3.51,3.65 6.79,6.41 9.84,9.97 3.23,3.77 4.83,10.06 7.92,13.73z"/>
    <path class="fil8" d="M262.32 317.83l-7.47 5.69c-6.18,4.1 -29.65,13.58 -40.82,13.1 -7.91,-0.52 -16.2,1.86 -24.93,0.63 -8.51,-1.19 -12.86,-4.02 -19.6,-6.66 -0.67,0.18 -2.71,1.06 -3.07,1.15 -7.9,2.04 6.83,0.38 -2.45,0.33l-17.81 -9.28c-3.74,-4.51 -2.75,-6.19 -6.95,-8.54 0.42,-4.17 -4.72,-3.94 5.26,-4.49 -4.33,-0.83 -5.07,0.26 -8.35,-3.39l-2.26 -0.07c-1.32,3.91 1.34,8.77 4.96,14.38l17.6 17.26c0.24,0.17 0.56,0.41 0.79,0.57l5.64 3.07c8.06,2.73 6.6,-1.12 7.28,-2.54 25.07,0 34.69,15.22 75.3,-4.89l24.08 -14.66c4.33,-3.59 3.11,-2.39 6.69,-6.7 8.4,-10.14 8.48,-14.11 12.57,-26.09 0.94,-2.75 0.49,-3.38 3.79,-6.34 4.61,4.06 13.15,15.36 13.34,23.74 -1.81,5.52 -40.72,32.83 -50.13,37.54 -21.3,10.66 -42.71,8.88 -75.23,8.88 -1.57,6.97 -0.51,6.51 4.93,10.29l10.93 6.76c3.72,1.41 8.34,2.65 9.07,4.97 2.78,8.74 -10.24,6.88 -14.34,6.96l-15.05 -0.56c-14.75,-1.28 -4.23,-0.59 -13.58,0.52 2.27,2.72 1.22,1.91 5.27,3.53l11.92 1.65c21.61,2.5 18.29,3.22 36.4,-4.13 2.26,-0.92 3.07,-1.07 4.22,-1.44l1.23 -0.41c0.11,-0.04 0.45,-0.16 0.56,-0.2 0.1,-0.04 0.43,-0.17 0.53,-0.21l7.51 -2.22c0.18,-0.04 0.57,-0.12 0.74,-0.16 0.17,-0.04 0.54,-0.14 0.7,-0.18 0.16,-0.04 0.52,-0.15 0.68,-0.19l1.35 -0.42c0.18,-0.05 0.56,-0.15 0.74,-0.2 3.56,-0.87 21.3,-2.57 10.18,-10.48 -4.94,-3.33 5.23,0.93 -1.93,0.07 -0.1,-0.01 -0.49,-0.04 -0.6,-0.07l-8.14 -2.67c1.19,-3.33 1.24,-1.24 0,-4.57 3.19,-1.18 1.87,-0.17 4.01,-0.95 4.27,-1.57 1.19,-0.65 3.3,-1.71 1.7,-0.85 4.34,-1.59 8.22,-3.2 17.19,-7.15 20.92,-13.27 33.44,-19.94 7.9,-4.21 9.01,-7.26 15.07,-11.56 13.54,-9.62 23.56,-10.55 10.25,-28.4 -4.18,-5.61 -6.1,-10.65 -10.56,-16.09 -2.22,-2.7 -3.4,-4.87 -6.03,-7.3 -2.76,-2.54 -3.82,-2.55 -6.46,-4.97 -6.13,11.18 -1.47,17.35 -4.79,31.05 -1.75,7.23 -6.55,15.41 -11.8,20.29 -3.17,2.94 -2.46,2.55 -6.2,3.45z"/>
    <path class="fil8" d="M129.77 102.86c6.01,-2.38 21.26,-9 26.23,-11.8 -3.55,-1.26 -4.46,2.76 -3.17,-5.35 0.67,-4.18 -0.14,0.03 1.35,-2.53l0.8 -1.05c0.05,-0.07 0.2,-0.34 0.23,-0.41 0.09,-0.19 0.23,-1.06 0.26,-1.27 0.4,-3.06 -0.46,4.32 0.14,-1.87 0.23,-2.49 -0.42,0.9 0.26,-2.54l5.75 -21.34 -16.81 -9.06 -1.51 5.96c-0.01,0.06 -0.01,0.38 -0.01,0.44l-1.93 7.13c-1.83,11.19 -4.25,13.74 -5.23,17.89 -0.06,0.26 -0.29,2.2 -0.36,2.58l-3.18 11.07c-2.4,6.58 -4.7,6.76 -2.82,12.15z"/>
   </g>
   <g>
    <path class="fil9" d="M152.02 141.4c0,34.65 67.46,58.4 106.8,31.37 8.27,-5.68 20.93,-15.85 22.8,-29.18 3.88,-27.51 -33.2,-42.2 -62.14,-42.2 -24.7,0 -67.46,19 -67.46,40.01z"/>
    <path class="fil9" d="M337.33 267.84l1.21 -5c0.14,-3.31 -0.24,-3.77 -0.91,-6.75 1.44,-0.57 1.78,-0.35 1.98,-0.33l0.69 0.33c0,-6.56 -0.42,-0.57 2.19,-3.21 -2.09,-8.08 -6.61,-20.88 -12.24,-25.8 2.66,6.06 2.9,5.55 1.25,11.67 -8.6,2.89 -6.73,3.48 -13.58,-1.08 0,-8.96 0.33,-10.56 3.48,-11.84 2.39,-0.98 4.57,-0.21 8.44,0.85 -0.27,-0.28 -0.68,-1.08 -0.84,-0.81l-3.6 -2.44c-9.46,-4.38 -11.33,1.96 -13.35,5.06 1.89,7.99 -3.48,-7.61 2.52,3.15 3.39,6.09 -0.46,5.22 4.89,9.89 4.71,4.1 7.25,0.74 13.79,-0.52 2.92,10.57 4.28,12.56 4.08,26.83z"/>
   </g>
   <g>
    <path class="fil10" d="M135.61 283.23c5.24,-5.04 1.32,-15.54 8.8,-27.44 1.66,-2.64 2.56,-4.19 4.23,-6.55 4.17,-5.93 10.4,-11.75 16.68,-15.26 11.38,-6.38 20.83,-9.37 33.06,-8.69 1.83,0.11 2.8,0.27 3.11,0.33l2.33 0.54c2.57,0.42 1.97,0.06 6.23,0.79 10.7,1.83 9.08,1.01 17.72,4.47l26.18 19.53c1.94,2.34 2.67,3.19 4.63,6.03 27.17,39.3 5.71,55.97 3.74,60.85 3.74,-0.9 3.03,-0.51 6.2,-3.45 5.25,-4.88 10.05,-13.06 11.8,-20.29 3.32,-13.7 -1.34,-19.87 4.79,-31.05 2.64,2.42 3.7,2.43 6.46,4.97 2.63,2.43 3.81,4.6 6.03,7.3 4.46,5.44 6.38,10.48 10.56,16.09 13.31,17.85 3.29,18.78 -10.25,28.4 -6.06,4.3 -7.17,7.35 -15.07,11.56 -12.52,6.67 -16.25,12.79 -33.44,19.94 -3.88,1.61 -6.52,2.35 -8.22,3.2 -2.11,1.06 0.97,0.14 -3.3,1.71 -2.14,0.78 -0.82,-0.23 -4.01,0.95 1.24,3.33 1.19,1.24 0,4.57l8.14 2.67c0.11,0.03 0.5,0.06 0.6,0.07 7.16,0.86 -3.01,-3.4 1.93,-0.07 11.12,7.91 -6.62,9.61 -10.18,10.48 -0.18,0.05 -0.56,0.15 -0.74,0.2l-1.35 0.42c-0.16,0.04 -0.52,0.15 -0.68,0.19 -0.16,0.04 -0.53,0.14 -0.7,0.18 -0.17,0.04 -0.56,0.12 -0.74,0.16l-7.51 2.22c-0.1,0.04 -0.43,0.17 -0.53,0.21 -0.11,0.04 -0.45,0.16 -0.56,0.2l-1.23 0.41c-1.15,0.37 -1.96,0.52 -4.22,1.44 -18.11,7.35 -14.79,6.63 -36.4,4.13l-11.92 -1.65c5.13,2.74 15.77,7.11 22.56,7.04 3.84,-0.33 7.27,-0.05 8.87,-0.09 1.09,-0.02 2.01,-0.18 2.57,-0.31l13.92 -5.61c1.23,-0.46 1.79,-0.6 2.69,-0.88l11.29 -2.54c10.11,-2.58 18.88,-3.72 28.19,-7.25l42.65 -18.85c0.37,-0.18 1.47,-0.71 1.82,-0.9l2.65 -1.53c-12.76,0.32 -20.02,-4.56 -23.73,-13.29 7.87,-3.43 16.8,-4.88 25.64,-8.61 8.03,-3.38 17.41,-7.79 22.94,-12.11l0.85 6.13 0.74 4.01c1.48,-6.67 16.38,-23.17 25.2,-41.57 1.95,-4.07 2.01,-7.39 7.45,-16.7 4.03,-6.89 4.39,-1.98 4.2,-8.2 -0.49,-5.91 -6.63,-12.7 -9.92,-14.98 7.1,29.56 -3.06,31.51 -27.96,38.8 -13.05,3.82 -11.56,0.26 -17.7,-4.13l-2.16 -0.86c-8.03,-3.11 -15.66,-20.08 -17.51,-28.6 -2.59,-12.01 -2.72,-18.8 -2.19,-28.64 0.25,-4.68 0.77,-13.93 3.48,-17.71l6.05 -8.89c6.84,-9.97 3.14,-5.27 9.72,-10.05 7.2,-5.23 26.7,-7.43 29.43,0.2l0.62 -6.05c-0.03,-16.75 -23.96,-39.79 -32.55,-46.73 -2.16,6.9 0.1,10.49 0.29,18.34 0.04,1.39 -0.01,2.56 -0.22,3.85 -0.02,0.1 -0.11,0.46 -0.12,0.56l-11.23 31.77c-0.14,0.28 -0.75,1.79 -0.87,2.04 -0.07,0.12 -0.24,0.47 -0.31,0.58l-2.63 3.6c-1.29,1.53 -1.41,1.49 -3.04,3.11 -7.27,7.25 -5.79,9.13 -9.94,10.71l-1.51 0.6c-1.53,0.78 -1.01,0.7 -1.87,1.29l-4.74 2.98c-0.12,0.08 -0.44,0.32 -0.57,0.4 -6.07,3.88 -11.97,4.93 -17.52,7.01l-58.26 -5.05c-0.06,-0.01 -0.38,-0.02 -0.45,-0.03l-6.02 -2.17c-8.56,-2.78 -16.84,-7.49 -24.1,-13.31 -1.9,-1.52 -2.84,-2.46 -4.39,-3.62l-8.77 -5.01c-0.12,-0.02 -0.49,-0.03 -0.6,-0.04l-1.04 0.03c-0.08,0 -0.4,0 -0.47,0l-2.75 -0.55c-0.24,-0.06 -1.61,-0.39 -1.84,-0.42l-3.23 0.98c-2.79,1.62 2.48,-0.89 -1.89,0.94l-1.65 0.45c4,9.2 -1.66,5.09 -4.16,17.25 -0.03,0.15 -0.13,0.53 -0.16,0.67l-0.76 4.61c-2.13,8.33 -1.79,14.56 -1.56,23.55 0,0.07 0.02,0.4 0.02,0.47l2.1 15.88c0.11,0.95 0.36,1.81 0.64,2.96 1.81,7.51 0.39,11.48 0.45,18.68 0.03,2.88 0.19,3.41 1.19,6.03z"/>
    <path class="fil10" d="M156 91.06c9.74,-1.55 22.02,-7.05 38.59,-9.15 4.88,-0.62 9.56,-0.43 13.3,-3.04l-46.27 -24.17 -5.75 21.34c-0.68,3.44 -0.03,0.05 -0.26,2.54 -0.6,6.19 0.26,-1.19 -0.14,1.87 -0.03,0.21 -0.17,1.08 -0.26,1.27 -0.03,0.07 -0.18,0.34 -0.23,0.41l-0.8 1.05c-1.49,2.56 -0.68,-1.65 -1.35,2.53 -1.29,8.11 -0.38,4.09 3.17,5.35z"/>
   </g>
   <g>
    <path class="fil11" d="M162.51 379.46c9.35,-1.11 -1.17,-1.8 13.58,-0.52l15.05 0.56c4.1,-0.08 17.12,1.78 14.34,-6.96 -0.73,-2.32 -5.35,-3.56 -9.07,-4.97l-10.93 -6.76c-5.44,-3.78 -6.5,-3.32 -4.93,-10.29 32.52,0 53.93,1.78 75.23,-8.88 9.41,-4.71 48.32,-32.02 50.13,-37.54 -0.19,-8.38 -8.73,-19.68 -13.34,-23.74 -3.3,2.96 -2.85,3.59 -3.79,6.34 -4.09,11.98 -4.17,15.95 -12.57,26.09 -3.58,4.31 -2.36,3.11 -6.69,6.7l-24.08 14.66c-40.61,20.11 -50.23,4.89 -75.3,4.89 -0.68,1.42 0.78,5.27 -7.28,2.54l-5.64 -3.07c-0.23,-0.16 -0.55,-0.4 -0.79,-0.57l-17.6 -17.26c-3.62,-5.61 -6.28,-10.47 -4.96,-14.38l-0.84 -0.47 -2.45 0.27c-4.98,-4.45 -1.46,-2.2 0.62,-7.07 -0.76,-0.93 -0.78,-0.73 -1.63,-2.47 -1.5,-3.07 -2.05,-9.29 -6.83,-19.84l-5.07 -13.31c-4.32,-14.11 -5.31,-32.8 -2.43,-47.45l17.64 -47.66c0.06,-0.09 1.64,-2.11 1.8,-2.29l16.81 -10.25c-1.77,-7.78 -4.25,-10.74 -1.55,-19.83 3.59,-12.16 13.14,-18.75 23.64,-24.39l15.73 -7.77c-44.6,4.03 -86.86,42.12 -102.29,78.57 -6.18,14.61 -10.08,29.77 -11.59,47.11 -3.41,39.27 9.8,66.07 25.77,92.88 7.84,13.16 17.5,24.29 27,33.06 6.43,5.93 23.74,22.63 34.31,24.07z"/>
    <path class="fil11" d="M285.35 134.53c-1.88,12.2 -1.55,23.25 -15.62,34.4 -7.88,6.24 -19.59,14.8 -33.59,17.17 -22.03,3.73 -43.37,0.76 -62.41,-9.65 -4.19,-2.29 -12.36,-9.07 -14.36,-9.72l3.47 7.92c0.04,0.06 2.9,3.12 4.1,4.6l7.78 7.42c0.13,0.09 0.46,0.28 0.58,0.37l32.16 15.5c9.92,3.83 33.22,4.78 42.76,3.03l15.85 -7.46c0.11,-0.11 0.39,-0.4 0.52,-0.52l13.29 -13.13c3.04,-3.68 4.6,-4.13 6.29,-8.95l2.26 -6.13c1.11,-3.03 0.37,-0.97 0.78,-2.36l0.74 -3.03c0.62,-2.93 0.5,-3.12 0.63,-6.24 0.76,-18.77 -3.92,-18.06 -4.68,-26.76l-0.55 3.54z"/>
    <path class="fil11" d="M129.77 102.86c-1.88,-5.39 0.42,-5.57 2.82,-12.15l3.18 -11.07c0.07,-0.38 0.3,-2.32 0.36,-2.58 0.98,-4.15 3.4,-6.7 5.23,-17.89l1.93 -7.13c0,-0.06 0,-0.38 0.01,-0.44l1.51 -5.96 -30 -17.01 -10.07 90.71c5.03,-4.87 18.12,-11.3 25.03,-16.48z"/>
   </g>
   <g>
    <path class="fil12" d="M324.88 276.06c-1.47,-1.54 -2.61,4.52 -1.51,-5.47 6.21,-2.49 9.22,-1.24 6.94,6.97 -9.89,1.1 -3.95,-0.01 -5.43,-1.5zm-9.18 -14.44c4.4,-4.27 8.27,3.45 5.22,6.65 -3.96,4.15 -9.84,-2.18 -5.22,-6.65zm14.14 -34.94l0.41 0.4c5.63,4.92 10.15,17.72 12.24,25.8 0.77,6.26 1.51,10.66 0.59,17.64 -1.28,9.6 -1,8.51 -9.72,10.51l3.97 -13.19c0.2,-14.27 -1.16,-16.26 -4.08,-26.83 -6.54,1.26 -9.08,4.62 -13.79,0.52 -5.35,-4.67 -1.5,-3.8 -4.89,-9.89 -6,-10.76 -0.63,4.84 -2.52,-3.15 2.02,-3.1 3.89,-9.44 13.35,-5.06l3.6 2.44c0.16,-0.27 0.57,0.53 0.84,0.81zm16.78 -10.67l2.95 12.9c-2.68,-3.13 -5.67,-4.97 -7.16,-8.93l4.21 -3.97zm0.04 45.42c0,-33.72 -23.65,-41.89 -25.14,-43.3 9.91,-2.26 15.2,1.5 20.05,6.55 7.8,8.11 29.87,45.64 3.54,52.72l1.55 -15.97zm-194.64 -120.03c0,-21.01 42.76,-40.01 67.46,-40.01 28.94,0 66.02,14.69 62.14,42.2 -1.87,13.33 -14.53,23.5 -22.8,29.18 -39.34,27.03 -106.8,3.28 -106.8,-31.37zm-5.89 -34.68l-2.66 1.34 2.66 -1.34zm2.67 -1.33l-2.67 1.33 2.67 -1.33zm2.69 50.37c2.96,3.44 5.33,7.04 7.88,10.97 2,0.65 10.17,7.43 14.36,9.72 19.04,10.41 40.38,13.38 62.41,9.65 14,-2.37 25.71,-10.93 33.59,-17.17 14.07,-11.15 13.74,-22.2 15.62,-34.4 -3.09,-3.67 -4.69,-9.96 -7.92,-13.73 -3.05,-3.56 -6.33,-6.32 -9.84,-9.97 12.37,3.43 35.02,17.04 40,23.26 8.59,6.94 32.52,29.98 32.55,46.73 2.7,2.63 2.06,5.96 1.52,10.12 1.73,2.46 0.48,-0.19 1.57,3.94 0.16,0.62 0.52,2.85 0.64,3.6 0.3,1.8 0.96,5.41 1.15,7.1 0.8,6.99 -1.07,9.17 -4.17,13.11l-6.81 -2.99 2.39 -9.15c-3.92,2.02 -0.32,-0.86 -2.93,3.53 -1.18,1.98 -0.17,1.14 -1.99,3.91 -2.17,-3.43 -0.54,-5.14 -0.76,-9.21l-2.53 9.05c-18.88,1.87 -22.1,16.83 -23.14,35.74 -0.76,12.55 4.6,21.45 7.62,31.85 6.14,4.39 4.65,7.95 17.7,4.13 24.9,-7.29 35.06,-9.24 27.96,-38.8 3.29,2.28 9.43,9.07 9.92,14.98 4.16,4.11 3.56,11.27 3.54,17.97 -1.91,31.19 -31.17,70.77 -60.3,87.09 -31.52,17.68 -67.07,25.1 -104.04,26.03 -3.06,0.07 -6.41,0.09 -9.45,-0.27 -0.19,-0.02 -3.69,-0.63 -3.8,-0.66 -0.4,-0.11 -0.74,-0.23 -1.1,-0.36l-1.92 -0.96c-0.21,-0.1 -0.61,-0.32 -0.87,-0.54 -6.79,0.07 -17.43,-4.3 -22.56,-7.04 -4.05,-1.62 -3,-0.81 -5.27,-3.53 -10.57,-1.44 -27.88,-18.14 -34.31,-24.07 -9.5,-8.77 -19.16,-19.9 -27,-33.06 -15.97,-26.81 -29.18,-53.61 -25.77,-92.88 1.51,-17.34 5.41,-32.5 11.59,-47.11 15.43,-36.45 57.69,-74.54 102.29,-78.57l-15.73 7.77c-10.5,5.64 -20.05,12.23 -23.64,24.39 -2.7,9.09 -0.22,12.05 1.55,19.83zm-0.02 -51.7l-2.67 1.33 2.67 -1.33zm2.67 -1.34l-2.67 1.34 2.67 -1.34zm4 -1.33c-1.48,1.36 2.33,1.33 -4,1.33 1.47,-1.36 -2.34,-1.33 4,-1.33zm0 0l2.6 -1.53 -2.6 1.53zm4 -2.67c1.41,-1.41 5.06,2.12 1.48,0.7 -0.03,-0.02 -3.72,1.54 -1.48,-0.7zm4 -1.33c1.42,-1.42 5.06,2.12 1.48,0.69 -0.03,-0.01 -3.72,1.54 -1.48,-0.69zm9.33 -1.33c-2.49,1.58 2.98,1.5 -2.66,1.1 -2.85,-0.21 -1.2,-0.17 -2.67,-1.1l5.33 0zm5.34 -1.34c-0.27,0.18 -0.64,0.18 -0.79,0.54 -0.16,0.38 -0.68,0.39 -0.9,0.44 -1.79,0.38 -1.74,0.36 -3.65,0.36 0.27,-0.18 0.64,-0.82 0.79,-0.54 0.16,0.29 0.68,-0.4 0.9,-0.44 1.79,-0.38 1.75,-0.36 3.65,-0.36zm-24.81 -3.66c-4.97,2.8 -20.22,9.42 -26.23,11.8 -6.91,5.18 -20,11.61 -25.03,16.48l10.07 -90.71 30 17.01 16.81 9.06 46.27 24.17c-3.74,2.61 -8.42,2.42 -13.3,3.04 -16.57,2.1 -28.85,7.6 -38.59,9.15zm-12.53 17l-32.33 23.68 -17.43 19.92c-22.69,30.98 -28.06,61.83 -27.65,103.15 0.25,24.51 17.69,59.72 31.86,80.17 2.41,3.48 5.33,7.38 8.01,10.66l8.51 10.16c12.52,13.53 26.43,23.2 42.28,32.4 43.17,25.04 110.84,12.54 152.31,-9.22 3.61,-1.89 8.86,-4.44 12.02,-6.65 24.01,-16.78 30.27,-24.24 44.88,-48.48 14.28,-23.71 26.24,-57.6 0.54,-82.72 -10.55,-10.31 -13.28,-44.91 -15.28,-59.4 -3.27,-23.68 -29.47,-50.67 -48.46,-63.56 -23.87,-16.2 -54.47,-26.2 -85.91,-26.12 -6.66,0.02 -11.71,-0.16 -17.94,0.74 -6.25,0.92 -12.02,1.93 -18.07,1.93l38.7 -5.31c8.87,0.15 7.92,0.92 13.31,-2.69 -0.45,-5.39 -0.77,-4.78 -4.81,-7.19 -3.06,-1.83 -4.6,-2.75 -7.63,-4.37l-94.19 -51.18c-4.7,-2.72 -10.71,-7.38 -17.4,-7.94 -2.45,3.66 -3.02,4.66 -3.69,9.64 -2.15,15.8 -11.78,105.47 -10.3,108.49 3.72,7.56 11.3,-4.3 29.98,-16.79 3.92,-2.62 14.27,-8.95 18.69,-9.32z"/>
    <path class="fil12" d="M189.69 319.55c6.99,3.59 3.36,7.34 -0.88,10.3 -6.65,0 -1.29,0.44 -3.48,-2.03 -2.59,-6.15 -1.41,-7.37 4.36,-8.27zm-31.02 -20.64l2.21 19.8c-3.07,-2.27 -1.93,-2.52 -6.25,-4.8l4.04 -15zm72.82 10.53c-1.69,18.84 -7.74,21.91 -26.03,24.66 -8.32,1.24 -14.87,0.84 -22.54,-1.45 -7.63,-2.27 -10.55,-5.42 -15.81,-7.35 -3.37,-3.66 -3.26,-4.54 -4.31,-10.32 -2.5,-13.81 0.94,-20.58 3.34,-30.88 1.76,2.65 1.21,-2.9 1.11,3.72 -0.08,5.63 -4.17,10.01 2.54,25.63l3.11 -1.34 6.25 1.33c1.13,5.09 1.4,7.63 -1.84,9.88 4.28,9.82 20.63,11.83 31.76,5.07 6.82,-4.16 14.57,-15.22 14.62,-27.62 -1.35,-11.96 0.83,-15.19 -5.82,-23.06 -4.4,9.05 -10.86,12.1 -17.06,5.07 -7.33,-8.29 1.79,-19.16 9.85,-16.99 8.35,2.24 18.4,19.14 21.22,30.46l0.72 10.2c-0.57,2.99 -0.08,1.36 -1.11,2.99zm-0.85 15.83c12.63,-39.34 -4.97,-46.51 -14.42,-59.63 25.65,4.53 41.22,38.16 40.12,42.46 -3.17,4.49 -19.22,15.23 -25.7,17.17zm-89.83 -21.51c-0.44,0.06 -3.41,0.27 -3.79,0.36 -3.97,0.97 -2.01,-0.11 -3.99,1.71l0.84 0.47 2.26 0.07 16.48 0.59c-0.7,6.2 -1.72,4.76 -9.14,4.85 -5.96,-0.41 -1.3,-0.64 -3.18,2.21l12.42 1.07c2.71,3.63 3.54,5.45 7.31,8.45l6.96 5.16c2.1,1.55 1.17,0.76 2.52,1.89 6.74,2.64 11.09,5.47 19.6,6.66 8.73,1.23 17.02,-1.15 24.93,-0.63l3.66 -2.41c10.39,-5.42 31.42,-11.12 43.66,-25.99l-1.9 -2.66c-0.16,-0.29 -0.34,-0.63 -0.5,-0.94 -0.61,-1.21 -0.62,-1.56 -1.15,-2.9 -9.88,-25.08 -30.72,-43.09 -59.71,-42 -18.18,0.68 -11.54,8.45 -29.79,1.19 2.22,4.89 1.53,2.91 5.8,7.18 -6.84,5.86 -3.33,3.19 -13.18,1.46 1.2,1.39 4.25,4.62 5.94,6.03 -6.93,11.71 -6.72,9.26 -19.27,7.3 5.17,6.4 4.9,3.41 11.17,6.32l-5.1 13.25 -12.85 1.31z"/>
    <path class="fil12" d="M300.24 348.71c4.72,-4.71 13.01,-9.74 19.87,-10.12 -4.89,7.25 -9.17,9.95 -19.87,10.12zm15.12 -18.78c-1.21,3.44 -1.97,3.27 -5.86,5.49 -5.8,3.32 -17.57,11.23 -23.15,6.02l29.01 -11.51zm-10.37 22.14c3.2,-1.82 6.47,-2.14 9.38,-3.85 4.02,-2.35 3.49,-3.64 7.81,-6.03 1.48,-2.45 3.37,-4.77 4.64,-8.06 0.72,-1.86 1.03,-3.48 1.61,-5.1 1.52,-4.29 0.15,-2.05 2.26,-4.84l-0.85 -6.13c-5.53,4.32 -14.91,8.73 -22.94,12.11 -8.84,3.73 -17.77,5.18 -25.64,8.61 3.71,8.73 10.97,13.61 23.73,13.29z"/>
   </g>
   <path class="fil13" d="M324.88 276.06c0.73,-6.96 -1.9,-3.81 4.62,-4.63 -0.82,6.52 2.33,3.9 -4.62,4.63zm0 0c1.48,1.49 -4.46,2.6 5.43,1.5 2.28,-8.21 -0.73,-9.46 -6.94,-6.97 -1.1,9.99 0.04,3.93 1.51,5.47z"/>
  </g>
 </g>
</svg>
