<?xml version="1.0" encoding="UTF-8"?>
<!DOCTYPE svg PUBLIC "-//W3C//DTD SVG 1.1//EN" "http://www.w3.org/Graphics/SVG/1.1/DTD/svg11.dtd">
<!-- Creator: CorelDRAW 2017 -->
<svg xmlns="http://www.w3.org/2000/svg" xml:space="preserve" width="8.8052mm" height="3.4712mm" version="1.1" style="shape-rendering:geometricPrecision; text-rendering:geometricPrecision; image-rendering:optimizeQuality; fill-rule:evenodd; clip-rule:evenodd"
viewBox="0 0 880.52 347.12"
 xmlns:xlink="http://www.w3.org/1999/xlink">
 <defs>
  <style type="text/css">
   <![CDATA[
    .fil0 {fill:#003871}
    .fil1 {fill:#17082F}
    .fil2 {fill:#3E4095}
    .fil3 {fill:#3F2E64}
   ]]>
  </style>
 </defs>
 <g id="Capa_x0020_1">
  <metadata id="CorelCorpID_0Corel-Layer"/>
  <g id="_1911412255760">
   <path class="fil0" d="M93.11 292.62c-33.86,14.79 -13.27,66.17 21.67,52.71 3.65,-1.43 7.08,-3.84 8.82,-5.54 23.86,-23.79 -2.83,-59.25 -30.49,-47.11l0 -0.06 0 0z"/>
   <path class="fil0" d="M51.85 206.41c-19.02,-29.17 -32.61,-42.27 -44.52,-89.67 -28.38,-112.78 26.92,-171.22 73.6,-49.51 16.78,43.76 15.25,66.31 14.85,114.77l16.95 -0.89c4.53,-38.58 20.35,-83.22 39.56,-104.09 15.77,-17.15 74.53,-45.77 110.57,-27.41 22.89,11.69 15.09,31.79 -3.59,42.5 -47.53,27.18 -41.57,31.74 -69.25,72.15 -12.09,17.66 -21.72,22.33 -34.44,37.32 6.46,13.63 27.9,32.61 16.85,69.08 -35.31,-13.42 -63.93,-22.89 -106.71,-8.09 -7.13,2.46 -10.27,4.69 -16.1,6.83 -31.02,11.69 -8.37,-51.54 2.23,-63.06l0.01 0.05 -0.01 0.02z"/>
   <path class="fil1" d="M300.2 325.5l-30.32 -42.39 -31.36 42.39 -43.68 0 53.18 -69.59 -51.37 -68.59 44.99 0 29.29 40.32 30.05 -40.32 42.62 0 -51.35 67.58 53.42 70.64 -45.46 0.01 0 -0.05 -0.01 0zm52.17 -138.18l40.08 0 0 138.19 -40.08 -0.01 0 -138.18 0 0zm20.06 -19.25c-7.38,0 -13.35,-2.14 -17.97,-6.44 -4.61,-4.3 -6.95,-9.59 -6.95,-15.92 0,-6.34 2.31,-11.65 6.95,-15.93 4.62,-4.25 10.59,-6.43 17.97,-6.43 7.37,0 13.35,2.07 17.98,6.14 4.61,4.14 6.91,9.27 6.91,15.41 0,6.68 -2.31,12.21 -6.91,16.53 -4.6,4.32 -10.64,6.56 -17.98,6.56l0 0.08 0 0zm44.49 19.25l40.07 0 0 138.19 -40.07 -0.01 0 -138.18 0 0zm20 -19.25c-7.37,0 -13.35,-2.14 -17.99,-6.44 -4.65,-4.3 -6.91,-9.59 -6.91,-15.92 0,-6.34 2.3,-11.65 6.91,-15.93 4.64,-4.25 10.64,-6.43 17.99,-6.43 7.36,0 13.35,2.07 17.95,6.14 4.65,4.14 6.96,9.27 6.96,15.41 0,6.68 -2.31,12.21 -6.96,16.53 -4.64,4.32 -10.59,6.56 -17.95,6.56l0 0.08 0 0zm126.15 17.18c12.86,0 24.56,2.95 35.06,8.85 10.51,5.91 18.81,14.24 24.79,24.92 5.99,10.71 8.98,23.18 8.98,37.37 0,14.18 -3,26.68 -8.98,37.36 -5.98,10.73 -14.28,19.02 -24.79,24.92 -10.5,5.89 -22.21,8.85 -35.06,8.85 -19,0 -33.49,-5.99 -43.39,-17.99l0 15.93 -38.3 0 0 -190.6 40.07 0.01 0 67.05c10.1,-11.12 23.99,-16.71 41.62,-16.71l0 0.05 0 -0.01zm-6.92 109.43c10.27,0 18.72,-3.49 25.28,-10.4 6.56,-6.91 9.91,-16.21 9.91,-27.87 0,-11.6 -3.28,-20.96 -9.91,-27.87 -6.64,-6.9 -15.04,-10.39 -25.28,-10.39 -10.27,0 -18.72,3.48 -25.31,10.39 -6.6,6.91 -9.91,16.22 -9.91,27.87 0,11.66 3.32,20.97 9.91,27.87 6.59,6.91 15.04,10.4 25.31,10.4zm159.3 0.78c7.2,0 13.59,-1.05 19.17,-3.19 5.58,-2.15 10.76,-5.54 15.53,-10.16l21.31 23.13c-13.02,14.89 -32,22.36 -57.03,22.36 -15.57,0 -29.35,-3.02 -41.37,-9.13 -12.02,-6.11 -21.24,-14.52 -27.75,-25.31 -6.51,-10.76 -9.76,-23.01 -9.76,-36.71 0,-13.51 3.19,-25.74 9.64,-36.6 6.44,-10.86 15.23,-19.37 26.44,-25.44 11.24,-6.11 23.85,-9.13 37.89,-9.13 13.19,0 25.15,2.8 35.94,8.37 10.79,5.58 19.37,13.59 25.85,24.14 6.43,10.57 9.64,23.01 9.64,37.37l-102.25 19.78c2.92,6.83 7.53,12.01 13.76,15.41 6.24,3.39 13.91,5.13 22.97,5.13l0.02 -0.03 0 0.01zm-5.9 -79.88c-10.1,0 -18.33,3.24 -24.62,9.76 -6.3,6.52 -9.66,15.53 -10.03,26.97l67.3 -13.1c-1.89,-7.19 -5.75,-12.94 -11.57,-17.18 -5.83,-4.24 -12.85,-6.43 -21.07,-6.43l-0.01 -0.02 0 0zm123.86 -10.02c4.82,-6.68 11.25,-11.73 19.37,-15.17 8.11,-3.44 17.52,-5.14 28.15,-5.14l0 37.01c-4.45,-0.37 -7.44,-0.53 -8.98,-0.53 -11.47,0 -20.47,3.24 -26.98,9.63 -6.51,6.38 -9.75,16.05 -9.75,28.91l0 65.24 -40.08 -0.04 0 -138.18 38.3 0.01 0 18.24 -0.05 0 0.02 0.02z"/>
   <path class="fil2" d="M364.19 120.14c-31.95,11.25 -16.61,59.57 16.21,49.66 3.45,-1.05 6.7,-3 8.41,-4.5 23.46,-20.09 1.44,-54.35 -24.68,-45.16l0.05 0 0.01 0z"/>
   <path class="fil3" d="M427.63 120.14c-31.95,11.25 -16.61,59.54 16.22,49.62 3.43,-1.05 6.7,-3 8.4,-4.49 23.47,-20.1 1.46,-54.35 -24.66,-45.17l0.05 0.04 -0.01 0z"/>
  </g>
 </g>
</svg>
