<?xml version="1.0" encoding="UTF-8"?>
<!DOCTYPE svg PUBLIC "-//W3C//DTD SVG 1.1//EN" "http://www.w3.org/Graphics/SVG/1.1/DTD/svg11.dtd">
<!-- Creator: CorelDRAW 2017 -->
<svg xmlns="http://www.w3.org/2000/svg" xml:space="preserve" width="11.8532mm" height="13.6312mm" version="1.1" style="shape-rendering:geometricPrecision; text-rendering:geometricPrecision; image-rendering:optimizeQuality; fill-rule:evenodd; clip-rule:evenodd"
viewBox="0 0 1185.32 1363.12"
 xmlns:xlink="http://www.w3.org/1999/xlink">
 <defs>
  <style type="text/css">
   <![CDATA[
    .fil0 {fill:#1D3050}
    .fil1 {fill:#FEFEFE}
   ]]>
  </style>
 </defs>
 <g id="Capa_x0020_1">
  <metadata id="CorelCorpID_0Corel-Layer"/>
  <g id="_1714809981040">
   <path class="fil0" d="M82.69 403.37c0,-50.13 14.34,-59.33 60.34,-59.33l197.17 1.3c0,904.31 -71.57,735.45 423.34,762 0,69.17 14.25,127.59 -25.66,166.17l-592.73 1.98c-48.12,0 -62.46,-9.2 -62.46,-59.32l0 -812.8zm338.67 -254c0,-50.13 14.34,-59.32 62.45,-59.32l364.39 1.29c0,307.05 -30.26,238.75 254,254 0,118.12 0,236.24 0,354.36 0,74.87 16.49,301.22 -25.65,319.81l-592.74 1.98c-48.11,0 -62.45,-9.19 -62.45,-59.32l0 -812.8zm525.05 -48.15c12.68,-1.32 10.02,-4.48 9.65,7.63 12.03,-0.72 9.23,-3.58 8.64,8.36 11.87,-0.58 9.05,-3.4 8.47,8.47 11.87,-0.58 9.05,-3.4 8.47,8.46 11.87,-0.58 9.04,-3.4 8.46,8.47 11.87,-0.58 9.05,-3.4 8.47,8.47 11.87,-0.58 9.05,-3.4 8.47,8.46 11.87,-0.58 9.04,-3.4 8.46,8.47 11.87,-0.58 9.05,-3.4 8.47,8.47 11.87,-0.58 9.05,-3.4 8.47,8.46 11.87,-0.58 9.04,-3.4 8.46,8.47 11.87,-0.58 9.05,-3.4 8.47,8.47 11.87,-0.58 9.05,-3.4 8.47,8.46 11.87,-0.58 9.04,-3.4 8.46,8.47 11.87,-0.58 9.05,-3.4 8.47,8.47 11.87,-0.58 9.05,-3.4 8.47,8.46 12.53,-0.61 9.28,-3.24 7.49,9.88l8.4 11.45 -166.69 2.7c-9.63,-11.84 -9.28,-8.5 -9.86,-42.13l0.9 -128.14c25.92,1.41 9.62,-8.4 22.93,11.72zm-101.72 1005.12c338.82,-3.65 338.67,29.13 338.67,-296.57 0,-107.25 0,-214.49 0,-321.74 0,-78.21 16.36,-229.5 -21.65,-288.35 -17.48,-27.06 -131.76,-141.03 -159.15,-162.72 -63.47,-50.24 -190.67,-31.47 -281.68,-31.47 -350.92,0 -380.68,-33.24 -380.68,252.71 -88.36,4.74 -231.57,-19.07 -291.11,32.07 -68.72,59.04 -47.55,157.36 -47.55,265.5 0,211.66 0.42,423.36 -0.05,635.01 -0.25,111.46 38.88,168.77 151.98,169.43 104.35,0.62 209.02,-0.17 313.41,-0.17 358.77,0 377.81,31.35 377.81,-253.7z"/>
   <path class="fil1" d="M82.69 403.37l0 812.8c0,50.12 14.34,59.32 62.46,59.32l592.73 -1.98c39.91,-38.58 25.66,-97 25.66,-166.17 -494.91,-26.55 -423.34,142.31 -423.34,-762l-197.17 -1.3c-46,0 -60.34,9.2 -60.34,59.33zm338.67 -254l0 812.8c0,50.13 14.34,59.32 62.45,59.32l592.74 -1.98c42.14,-18.59 25.65,-244.94 25.65,-319.81 0,-118.12 0,-236.24 0,-354.36 -284.26,-15.25 -254,53.05 -254,-254l-364.39 -1.29c-48.11,0 -62.45,9.19 -62.45,59.32zm511.08 110.4l166.69 -2.7c-13.83,0 -10.19,3.12 -8.4,-11.45l-7.49 -9.88c-11.87,0.59 -9.05,3.41 -8.47,-8.46 -11.87,0.58 -9.05,3.4 -8.47,-8.47 -11.87,0.58 -9.05,3.4 -8.46,-8.47 -11.87,0.59 -9.05,3.41 -8.47,-8.46 -11.87,0.58 -9.05,3.4 -8.47,-8.47 -11.87,0.58 -9.05,3.4 -8.46,-8.47 -11.87,0.59 -9.05,3.41 -8.47,-8.46 -11.87,0.58 -9.05,3.4 -8.47,-8.47 -11.87,0.58 -9.04,3.4 -8.46,-8.47 -11.87,0.59 -9.05,3.41 -8.47,-8.46 -11.87,0.58 -9.05,3.4 -8.47,-8.47 -11.87,0.58 -9.04,3.4 -8.46,-8.47 -11.87,0.59 -9.05,3.41 -8.47,-8.46 -11.87,0.58 -9.05,3.4 -8.47,-8.47 -11.82,0.58 -8.99,3.42 -8.64,-8.36l-9.65 -7.63c-22.49,0.09 0.68,-13.12 -13.97,5.82l0 152.73z"/>
  </g>
 </g>
</svg>
