<svg xmlns="http://www.w3.org/2000/svg" viewBox="0 0 500 500"><g id="freepik--Floor--inject-2"><path id="freepik--floor--inject-2" d="M77.66,235.6c-95.18,55-95.17,144,0,199s249.49,54.95,344.67,0,95.17-144,0-199S172.84,180.65,77.66,235.6Z" style="fill:#fafafa"></path></g><g id="freepik--Shadow--inject-2"><polygon id="freepik--shadow--inject-2" points="323.03 413.36 110.41 290.61 176.13 252.67 388.75 375.42 323.03 413.36" style="fill:#e0e0e0"></polygon><path id="freepik--shadow--inject-2" d="M120.17,365.84c14.47,8.45,14.47,22.15,0,30.59s-37.93,8.45-52.4,0-14.47-22.14,0-30.59S105.7,357.39,120.17,365.84Z" style="fill:#e0e0e0"></path></g><g id="freepik--Stairs--inject-2"><g id="freepik--stairs--inject-2"><g id="freepik--Strairs--inject-2"><polygon points="142.24 147.95 142.24 187.09 194.95 156.64 194.97 117.5 142.24 147.95" style="fill:#92E3A9"></polygon><polygon points="142.24 187.09 202.5 221.88 255.25 191.44 194.95 156.64 142.24 187.09" style="fill:#92E3A9"></polygon><polygon points="142.24 187.09 202.5 221.88 255.25 191.44 194.95 156.64 142.24 187.09" style="fill:#fff;opacity:0.30000000000000004"></polygon><polygon points="255.25 191.44 255.23 230.58 202.5 261.03 202.5 221.88 255.25 191.44" style="fill:#92E3A9"></polygon><polygon points="202.5 261.03 262.76 295.82 315.5 265.38 255.23 230.58 202.5 261.03" style="fill:#92E3A9"></polygon><polygon points="202.5 261.03 262.76 295.82 315.5 265.38 255.23 230.58 202.5 261.03" style="fill:#fff;opacity:0.30000000000000004"></polygon><polygon points="315.5 265.38 315.5 304.52 262.76 334.96 262.76 295.82 315.5 265.38" style="fill:#92E3A9"></polygon><polygon points="262.76 334.96 323.03 369.76 375.76 339.32 315.5 304.52 262.76 334.96" style="fill:#92E3A9"></polygon><polygon points="262.76 334.96 323.03 369.76 375.76 339.32 315.5 304.52 262.76 334.96" style="fill:#fff;opacity:0.30000000000000004"></polygon><polygon points="375.76 339.32 375.76 378.46 323.03 408.9 323.03 369.76 375.76 339.32" style="fill:#92E3A9"></polygon></g><polygon points="142.24 147.95 85.74 115.33 66.9 126.2 74.44 78.36 157.3 74.01 138.47 84.88 194.97 117.5 142.24 147.95" style="fill:#92E3A9"></polygon><polygon points="142.24 147.95 85.74 115.33 66.9 126.2 74.44 78.36 157.3 74.01 138.47 84.88 194.97 117.5 142.24 147.95" style="fill:#fff;opacity:0.30000000000000004"></polygon><polygon points="262.76 334.96 262.76 295.82 202.5 261.03 202.5 221.88 142.24 187.09 142.24 147.95 85.74 115.33 66.9 126.2 66.9 134.9 85.74 124.03 134.7 152.29 134.7 191.44 194.97 226.24 194.97 265.38 255.23 300.17 255.23 339.31 315.5 374.11 315.5 404.55 323.03 408.9 323.03 369.76 262.76 334.96" style="fill:#92E3A9"></polygon><polygon points="262.76 334.96 262.76 295.82 202.5 261.03 202.5 221.88 142.24 187.09 142.24 147.95 85.74 115.33 66.9 126.2 66.9 134.9 85.74 124.03 134.7 152.29 134.7 191.44 194.97 226.24 194.97 265.38 255.23 300.17 255.23 339.31 315.5 374.11 315.5 404.55 323.03 408.9 323.03 369.76 262.76 334.96" style="opacity:0.30000000000000004"></polygon><polygon points="157.3 74.01 157.3 82.71 146 89.23 138.47 84.88 157.3 74.01" style="fill:#92E3A9"></polygon><polygon points="157.3 74.01 157.3 82.71 146 89.23 138.47 84.88 157.3 74.01" style="opacity:0.30000000000000004"></polygon></g></g><g id="freepik--Footprints--inject-2"><g id="freepik--footprints--inject-2"><path d="M173.93,179.4H174a12.09,12.09,0,0,1,2.89-.22.3.3,0,0,0,.31-.28.31.31,0,0,0-.29-.31,12.83,12.83,0,0,0-3,.23.3.3,0,0,0-.23.35A.3.3,0,0,0,173.93,179.4Zm-5.82,4.94a3.54,3.54,0,0,1,.61-2,.3.3,0,0,0-.5-.32,4.13,4.13,0,0,0-.7,2.31,5.2,5.2,0,0,0,.15,1.21.31.31,0,0,0,.29.22H168a.3.3,0,0,0,.22-.36A4.41,4.41,0,0,1,168.11,184.34Zm6.47,8.2c-.42-.25-.82-.5-1.18-.75a16.61,16.61,0,0,1-1.34-1,.29.29,0,0,0-.41,0,.29.29,0,0,0,0,.42,15.46,15.46,0,0,0,1.38,1.06c.38.26.79.52,1.22.78a.42.42,0,0,0,.15,0,.32.32,0,0,0,.26-.15A.29.29,0,0,0,174.58,192.54Zm3.77,2c-.93-.44-1.79-.87-2.54-1.27a.29.29,0,1,0-.27.52c.75.41,1.62.84,2.56,1.28a.27.27,0,0,0,.12,0,.29.29,0,0,0,.27-.17A.29.29,0,0,0,178.35,194.5Zm-9.5-7.57a.29.29,0,0,0-.4-.12.3.3,0,0,0-.13.4,13,13,0,0,0,2.09,2.8.3.3,0,0,0,.21.09.28.28,0,0,0,.21-.08.3.3,0,0,0,0-.42A11.77,11.77,0,0,1,168.85,186.93Zm3.93-7.54a.31.31,0,0,0-.38-.18,12.29,12.29,0,0,0-1.41.58,8.43,8.43,0,0,0-1.51.93.29.29,0,0,0-.06.41.31.31,0,0,0,.42.05,9.23,9.23,0,0,1,1.41-.86,12.14,12.14,0,0,1,1.34-.55A.3.3,0,0,0,172.78,179.39Zm28.37,16.23c.84.47,1.66.92,2.45,1.34a.32.32,0,0,0,.14,0,.29.29,0,0,0,.14-.55c-.79-.42-1.6-.86-2.44-1.34a.31.31,0,0,0-.41.11A.3.3,0,0,0,201.15,195.62Zm7.33,4c.43.27.8.51,1.14.76h0a9.3,9.3,0,0,1,1,.85.29.29,0,0,0,.21.09.32.32,0,0,0,.21-.1.29.29,0,0,0,0-.41,11.32,11.32,0,0,0-1.1-.91h0c-.35-.25-.74-.51-1.19-.78a.29.29,0,0,0-.3.5Zm-30.15-20.31a16.23,16.23,0,0,1,2.83.7l.09,0a.3.3,0,0,0,.1-.58,17.42,17.42,0,0,0-2.93-.73.29.29,0,0,0-.34.25A.29.29,0,0,0,178.33,179.32Zm20.4,14.88,1.2.72a.28.28,0,0,0,.15,0,.3.3,0,0,0,.26-.15.29.29,0,0,0-.11-.4l-1.19-.72a14.35,14.35,0,0,1-1.38-1,.31.31,0,0,0-.42.06.29.29,0,0,0,.06.41C197.77,193.57,198.26,193.9,198.73,194.2Zm-6.59-6.08.22.24a.32.32,0,0,0,.22.1.32.32,0,0,0,.2-.08.29.29,0,0,0,0-.41l-.22-.25c-.68-.76-1.39-1.55-2.1-2.29a.3.3,0,1,0-.43.41C190.76,186.57,191.46,187.35,192.14,188.12Zm3.82,4a.27.27,0,0,0,.2.08.28.28,0,0,0,.22-.1.28.28,0,0,0,0-.41c-.72-.66-1.48-1.43-2.4-2.42a.3.3,0,0,0-.42,0,.29.29,0,0,0,0,.41A33.17,33.17,0,0,0,196,192.08Zm-8.4-8.53c.42.33.84.69,1.28,1.1a.31.31,0,0,0,.2.07.31.31,0,0,0,.22-.09.3.3,0,0,0,0-.42c-.45-.42-.88-.79-1.32-1.13h0c-.34-.27-.75-.57-1.21-.89a.3.3,0,0,0-.34.49c.46.31.85.6,1.19.87Zm13.58,22.32a15.07,15.07,0,0,1-1.64-.86l-1.14-.73a.3.3,0,0,0-.32.5c.38.25.76.49,1.16.73a15.32,15.32,0,0,0,1.7.9.27.27,0,0,0,.12,0,.3.3,0,0,0,.27-.18A.3.3,0,0,0,201.14,205.87Zm5.36,1.19a10.81,10.81,0,0,1-3.62-.53.29.29,0,0,0-.37.2.3.3,0,0,0,.19.37,12.06,12.06,0,0,0,3.52.56h.3a.29.29,0,0,0,.29-.3A.31.31,0,0,0,206.5,207.06Zm-24.26-10.82-2.6-1.15a.3.3,0,0,0-.39.15.29.29,0,0,0,.14.39c.85.38,1.73.77,2.62,1.15a.25.25,0,0,0,.12,0,.29.29,0,0,0,.11-.56ZM212,201.9a.3.3,0,0,0-.41-.07.29.29,0,0,0-.07.41,2.81,2.81,0,0,1,.57,1.57,1.76,1.76,0,0,1-.16.74.29.29,0,0,0,.14.39.28.28,0,0,0,.13,0,.31.31,0,0,0,.27-.17,2.45,2.45,0,0,0,.21-1A3.42,3.42,0,0,0,212,201.9Zm-.86,3.61a5.63,5.63,0,0,1-1.13.69,8,8,0,0,1-1.71.62.3.3,0,0,0-.22.36.29.29,0,0,0,.29.22h.07a9.12,9.12,0,0,0,1.83-.67,6.27,6.27,0,0,0,1.24-.76.29.29,0,0,0,0-.42A.28.28,0,0,0,211.16,205.51Zm-3.59-7.09-2.46-1.33a.3.3,0,0,0-.4.12.29.29,0,0,0,.12.4c.88.47,1.7.9,2.45,1.32a.23.23,0,0,0,.14,0,.28.28,0,0,0,.26-.15A.29.29,0,0,0,207.57,198.42Zm-12.63,3.63a.3.3,0,0,0-.41.1.29.29,0,0,0,.1.4c.86.53,1.63,1,2.28,1.47a.3.3,0,0,0,.16,0,.31.31,0,0,0,.25-.13.3.3,0,0,0-.08-.41C196.58,203.09,195.81,202.58,194.94,202.05Zm-9.66-20.12a.31.31,0,0,0,.26-.14.31.31,0,0,0-.1-.41,24.24,24.24,0,0,0-2.68-1.37.29.29,0,0,0-.39.15.29.29,0,0,0,.15.39,23,23,0,0,1,2.61,1.34A.28.28,0,0,0,185.28,181.93Zm.91,16c-.89-.37-1.77-.73-2.63-1.1a.3.3,0,0,0-.39.16.28.28,0,0,0,.16.38l2.63,1.1a.23.23,0,0,0,.11,0,.29.29,0,0,0,.12-.56Zm7.56,3.47c-.77-.44-1.57-.85-2.43-1.26a.3.3,0,0,0-.39.13.3.3,0,0,0,.14.4c.84.41,1.63.81,2.4,1.24a.23.23,0,0,0,.14,0,.3.3,0,0,0,.26-.15A.29.29,0,0,0,193.75,201.36Zm-3.68-1.84c-.39-.18-.81-.36-1.25-.54l-1.32-.55a.3.3,0,0,0-.22.55l1.31.54c.43.18.85.36,1.24.54a.27.27,0,0,0,.12,0,.28.28,0,0,0,.27-.18A.29.29,0,0,0,190.07,199.52Z" style="fill:#fff"></path><path d="M255.33,255c-.52-.19-1-.39-1.5-.59s-.93-.41-1.44-.66a.29.29,0,0,0-.39.14.3.3,0,0,0,.13.4c.52.25,1,.47,1.47.66s1,.41,1.53.61l.1,0a.31.31,0,0,0,.28-.2A.3.3,0,0,0,255.33,255Zm-.12-11.82a.31.31,0,0,0-.3-.29h0a16.68,16.68,0,0,0-3.62.48.3.3,0,0,0-.22.36.31.31,0,0,0,.29.22h.07a16.19,16.19,0,0,1,3.49-.46A.29.29,0,0,0,255.21,243.17ZM260,256.51c-1.06-.32-2.1-.65-3.09-1a.3.3,0,0,0-.38.19.29.29,0,0,0,.19.37c1,.34,2,.66,3.11,1h.09a.3.3,0,0,0,.28-.21A.29.29,0,0,0,260,256.51Zm-9-3.5a17.76,17.76,0,0,1-2.62-1.73.29.29,0,0,0-.41,0,.29.29,0,0,0,0,.42,18.31,18.31,0,0,0,2.7,1.79.23.23,0,0,0,.14,0,.31.31,0,0,0,.26-.15A.3.3,0,0,0,251,253Zm9.34-9.68a30,30,0,0,0-3.6-.42.3.3,0,0,0-.32.28.31.31,0,0,0,.28.31,30.63,30.63,0,0,1,3.53.41h0a.3.3,0,0,0,.3-.24A.31.31,0,0,0,260.33,243.33Zm4.3,14.59L261.7,257l-.19-.06a.29.29,0,0,0-.37.2.31.31,0,0,0,.2.37l.19.05,2.93.88.08,0a.3.3,0,0,0,.09-.58Zm13.84-4.6a.3.3,0,0,0,.41,0,.3.3,0,0,0,0-.41c-.9-.72-1.8-1.44-2.69-2.13a.3.3,0,0,0-.42.06.29.29,0,0,0,.06.41C276.68,251.89,277.57,252.6,278.47,253.32Zm-32.16-5.24a2.31,2.31,0,0,1,.06-.52.29.29,0,0,0-.21-.36.31.31,0,0,0-.36.22,3,3,0,0,0-.08.66,4,4,0,0,0,1.09,2.52.33.33,0,0,0,.23.1.29.29,0,0,0,.22-.49A3.36,3.36,0,0,1,246.31,248.08Zm19.27-3.4c-1.13-.38-2.31-.71-3.48-1a.29.29,0,0,0-.36.22.3.3,0,0,0,.23.35c1.15.27,2.3.6,3.42,1l.1,0a.3.3,0,0,0,.09-.58Zm21.22,14.5c.84.45,1.64.85,2.4,1.23a.31.31,0,0,0,.13,0,.3.3,0,0,0,.27-.16.31.31,0,0,0-.13-.4c-.76-.37-1.56-.77-2.39-1.22a.3.3,0,1,0-.28.52Zm-15.17-10.94c.87.55,1.78,1.19,2.79,1.93a.32.32,0,0,0,.18.06.3.3,0,0,0,.24-.12.29.29,0,0,0-.07-.41c-1-.76-1.95-1.4-2.83-2a.28.28,0,0,0-.4.09A.29.29,0,0,0,271.63,248.24Zm-24.77-1.83a.3.3,0,0,0,.22-.1,6.18,6.18,0,0,1,1.16-1h0a8.21,8.21,0,0,1,1.52-.83.29.29,0,0,0,.15-.39.28.28,0,0,0-.38-.15,9.3,9.3,0,0,0-1.62.88h0a7.39,7.39,0,0,0-1.27,1.08.3.3,0,0,0,0,.42A.27.27,0,0,0,246.86,246.41Zm47.39,16.36a.29.29,0,1,0-.4.43,3.11,3.11,0,0,1,1.22,2.14v0a.28.28,0,0,0,.3.28.32.32,0,0,0,.29-.32A3.62,3.62,0,0,0,294.25,262.77Zm-4,5.8a12.13,12.13,0,0,1-3.69-.25.3.3,0,0,0-.12.58,13.78,13.78,0,0,0,2.79.31,9.51,9.51,0,0,0,1.08-.06.29.29,0,0,0-.06-.58ZM285.91,258c-.79-.46-1.53-.92-2.25-1.42a.3.3,0,1,0-.34.49c.74.5,1.49,1,2.3,1.44a.24.24,0,0,0,.15,0,.27.27,0,0,0,.25-.15A.29.29,0,0,0,285.91,258Zm-1.17,9.82a16.57,16.57,0,0,1-1.74-.69h0c-.41-.19-.81-.4-1.22-.62a.31.31,0,0,0-.4.12.29.29,0,0,0,.12.4c.42.23.84.44,1.25.63h0a17.77,17.77,0,0,0,1.8.72h.09a.28.28,0,0,0,.28-.2A.29.29,0,0,0,284.74,267.83Zm8.19-5.42a.31.31,0,0,0,.25-.13.29.29,0,0,0-.08-.41,14.32,14.32,0,0,0-1.23-.75h0c-.39-.21-.79-.42-1.2-.62a.29.29,0,0,0-.4.13.3.3,0,0,0,.13.39c.41.21.8.41,1.18.62h0c.43.24.83.48,1.19.73A.33.33,0,0,0,292.93,262.41Zm1.7,4.08a4.32,4.32,0,0,1-1,.89,6.86,6.86,0,0,1-1.63.8.31.31,0,0,0-.18.38.3.3,0,0,0,.28.2l.09,0a7,7,0,0,0,1.78-.88,4.77,4.77,0,0,0,1.11-1,.3.3,0,0,0-.05-.42A.31.31,0,0,0,294.63,266.49Zm-14.05-.65c-.74-.44-1.52-.92-2.35-1.44a.28.28,0,0,0-.4.09.29.29,0,0,0,.09.41c.83.52,1.61,1,2.36,1.45a.28.28,0,0,0,.15,0,.31.31,0,0,0,.26-.14A.31.31,0,0,0,280.58,265.84Zm-10.11-19q-.78-.45-1.53-.81c-.49-.24-1.05-.49-1.66-.73a.29.29,0,0,0-.38.17.28.28,0,0,0,.16.38c.6.24,1.15.48,1.62.71s1,.5,1.5.79a.23.23,0,0,0,.14,0,.29.29,0,0,0,.26-.14A.3.3,0,0,0,270.47,246.84Zm3,14.68-1.22-.67c-.44-.24-.94-.48-1.48-.72a.3.3,0,0,0-.24.54c.53.23,1,.47,1.44.7s.82.45,1.21.67a.33.33,0,0,0,.14,0,.3.3,0,0,0,.26-.15A.3.3,0,0,0,273.49,261.52Zm3.57,2.14q-1.11-.69-2.37-1.44a.29.29,0,0,0-.4.1.3.3,0,0,0,.1.41c.84.49,1.62,1,2.36,1.43a.3.3,0,0,0,.15,0,.31.31,0,0,0,.26-.14A.31.31,0,0,0,277.06,263.66Zm5.33-7.31a.28.28,0,0,0,.23-.13.29.29,0,0,0-.06-.41L281.5,255l-1.33-1.07a.3.3,0,0,0-.41,0,.29.29,0,0,0,0,.42l1.34,1.07c.36.29.72.57,1.07.83A.3.3,0,0,0,282.39,256.35Zm-13.12,3.15c-.9-.35-1.91-.71-3.08-1.09a.31.31,0,0,0-.38.19.3.3,0,0,0,.19.37c1.17.38,2.17.73,3.06,1.08l.11,0a.29.29,0,0,0,.27-.19A.3.3,0,0,0,269.27,259.5Z" style="fill:#fff"></path><path d="M371.45,424c7.45-3.65,15.28,1.16,18.4,3.6,4.26,3.33,7.43,8.74,12.34,11.77s9.42,5,12.06,6.86,4.72,4.89.42,7-9,.46-12-1.34-5.4-4-11.78-6.65-13.24-5.34-17.12-8S363.82,427.68,371.45,424Z" style="fill:#e0e0e0"></path><path d="M290.54,335c6.73-3.29,13.8,1.05,16.62,3.26,3.85,3,6.71,7.89,11.15,10.63s8.51,4.48,10.9,6.2,4.27,4.42.37,6.32-8.14.41-10.81-1.21-4.88-3.6-10.65-6-12-4.82-15.47-7.22S283.65,338.37,290.54,335Z" style="fill:#92E3A9;opacity:0.8"></path><path d="M381.65,392c-6.31,4.3,2,8.82,6.24,10.62,5.77,2.46,15.14,4.29,20.38,7.12s8.59,5.44,11.89,7,8.47,2.72,12.12.24.79-5.2-2.32-6.91-6.9-3.12-11.52-6.81-9.25-7.64-13.84-9.88S388.11,387.62,381.65,392Z" style="fill:#e0e0e0"></path></g></g><g id="freepik--arrow-3--inject-2"><g id="freepik--Arrows--inject-2"><g id="freepik--Arrow--inject-2"><polygon points="464.81 350.16 453.35 356.77 434.49 345.89 434.49 206.01 421.92 198.75 443.49 182.17 454.94 175.55 477.38 217.54 465.92 224.15 464.81 223.51 464.81 350.16" style="fill:#92E3A9"></polygon><polygon points="464.81 350.16 453.35 356.77 434.49 345.89 434.49 206.01 421.92 198.75 443.49 182.17 454.94 175.55 477.38 217.54 465.92 224.15 464.81 223.51 464.81 350.16" style="fill:#fff;opacity:0.8"></polygon><polygon id="freepik--down-arrow--inject-2" points="453.35 356.77 434.49 345.89 434.49 206.01 421.92 198.75 443.49 182.17 465.92 224.15 453.35 216.89 453.35 356.77" style="fill:#92E3A9"></polygon><polygon id="freepik--down-arrow--inject-2" points="453.35 356.77 434.49 345.89 434.49 206.01 421.92 198.75 443.49 182.17 465.92 224.15 453.35 216.89 453.35 356.77" style="fill:#fff;opacity:0.7000000000000001"></polygon><polygon points="464.81 350.16 453.35 356.77 453.35 216.89 464.81 223.51 464.81 350.16" style="fill:#92E3A9"></polygon><polygon points="464.81 350.16 453.35 356.77 453.35 216.89 464.81 223.51 464.81 350.16" style="fill:#fff;opacity:0.5"></polygon></g></g></g><g id="freepik--arrows-2--inject-2"><g id="freepik--arrows--inject-2"><g id="freepik--arrow--inject-2"><polygon points="206.2 418.86 217.37 425.31 235.76 414.69 235.76 319.48 248.02 312.4 226.99 296.23 215.82 289.78 193.94 330.72 205.11 337.17 206.2 336.54 206.2 418.86" style="fill:#455a64"></polygon><polygon id="freepik--down-arrow--inject-2" points="217.37 425.31 235.76 414.69 235.76 319.48 248.02 312.4 226.99 296.23 205.11 337.17 217.37 330.09 217.37 425.31" style="fill:#37474f"></polygon><polygon points="206.2 418.86 217.37 425.31 217.37 330.09 206.2 336.54 206.2 418.86" style="fill:#263238"></polygon></g><g id="freepik--arrow--inject-2"><polygon points="165.75 416.71 174.12 421.54 187.9 413.58 187.9 360.43 197.09 355.13 181.32 343.01 172.95 338.18 156.56 368.86 164.93 373.69 165.75 373.22 165.75 416.71" style="fill:#92E3A9"></polygon><polygon points="164.93 373.69 181.32 343.01 172.95 338.18 156.56 368.86 164.93 373.69" style="fill:#fff;opacity:0.1"></polygon><polygon id="freepik--down-arrow--inject-2" points="174.12 421.54 187.9 413.58 187.9 360.43 197.09 355.13 181.32 343.01 164.93 373.69 174.12 368.39 174.12 421.54" style="fill:#92E3A9"></polygon><polygon id="freepik--down-arrow--inject-2" points="174.12 421.54 187.9 413.58 187.9 360.43 197.09 355.13 181.32 343.01 164.93 373.69 174.12 368.39 174.12 421.54" style="opacity:0.1"></polygon><polygon points="165.75 416.71 174.12 421.54 174.12 368.39 165.75 373.22 165.75 416.71" style="opacity:0.30000000000000004"></polygon></g></g></g><g id="freepik--arrows-1--inject-2"><g id="freepik--arrow--inject-2"><polygon points="38.29 318.04 38.29 182.4 36.46 183.46 26.22 177.54 47.5 137.71 58.07 143.81 78.24 159.33 66.51 166.1 66.51 313.85 48.78 324.09 38.29 318.04" style="fill:#f5f5f5"></polygon><path d="M47.8,138.73l9.82,5.67,19.3,14.84-10.41,6-.73.43V313.42l-17,9.82L39,317.61V181.12l-2.22,1.28-.35.2-9.25-5.34L47.8,138.73m-.59-2-22,41.14,11.23,6.48,1.09-.63V318.46l11.23,6.48,18.47-10.66V166.53l12.32-7.11L58.44,143.17l-11.23-6.48Z" style="fill:#e6e6e6"></path><polygon id="freepik--down-arrow--inject-2" points="48.78 324.94 67.25 314.28 67.25 166.53 79.57 159.42 58.44 143.17 36.46 184.31 48.78 177.2 48.78 324.94" style="fill:#ebebeb"></polygon><polygon points="37.55 318.46 48.78 324.94 48.78 177.2 37.55 183.68 37.55 318.46" style="fill:#e0e0e0"></polygon></g><g id="freepik--arrow--inject-2"><polygon points="86.89 306.08 86.89 215.93 85.16 216.93 75.48 211.34 95.6 173.69 105.58 179.46 124.65 194.12 113.56 200.53 113.56 302.13 96.8 311.81 86.89 306.08" style="fill:#f5f5f5"></polygon><path d="M95.87,174.66l9.28,5.36,18.25,14-9.84,5.68-.69.4v101.6L96.8,311l-9.22-5.32v-91l-2.1,1.21-.33.19-8.75-5.05,19.46-36.41m-.55-1.93L74.55,211.61l10.61,6.12,1-.59v89.35l10.61,6.12,17.46-10.08V200.93l11.64-6.72-20-15.36-10.61-6.12Z" style="fill:#e6e6e6"></path><polygon id="freepik--down-arrow--inject-2" points="96.8 312.61 114.26 302.53 114.26 200.93 125.9 194.21 105.93 178.85 85.16 217.73 96.8 211.01 96.8 312.61" style="fill:#ebebeb"></polygon><polygon points="86.19 306.49 96.8 312.61 96.8 211.01 86.19 217.13 86.19 306.49" style="fill:#e0e0e0"></polygon></g></g><g id="freepik--Plant--inject-2"><g id="freepik--plant--inject-2"><g id="freepik--Pot--inject-2"><g id="freepik--pot--inject-2"><path d="M125,354.05H63l6.41,26.72h0c.49,3.22,2.86,6.37,7.13,8.83,9.65,5.57,25.29,5.57,34.93,0,4.6-2.65,7-6.09,7.2-9.57Z" style="fill:#37474f"></path><path d="M117.41,372.37a26.6,26.6,0,0,0,3.73-2.6l3.49-14.28a25.11,25.11,0,0,1-6.28,5c-13.09,7.55-34.06,7.74-47.59.61l1.58-6.36-.49-.67H63l6.41,26.71h0c.49,3.22,2.86,6.37,7.13,8.83,6.87,4,16.78,5.1,25.4,3.41-15.45,1.15-26.06-5.6-27.65-11.83-.63-2.49-1.74-8-1.74-8C85.42,379.74,105.08,379.48,117.41,372.37Z" style="fill:#263238"></path><path d="M128.2,346.15a13,13,0,0,1-2.07,4.82,22.9,22.9,0,0,1-7.78,6.91c-13.46,7.78-35.3,7.78-48.77,0A22.9,22.9,0,0,1,61.8,351a13.15,13.15,0,0,1-2.06-4.82h0c-1.2-5.84,2.09-11.93,9.85-16.42,13.47-7.78,35.31-7.78,48.77,0C126.11,334.22,129.4,340.31,128.2,346.15Z" style="fill:#455a64"></path><path d="M126.13,351a22.9,22.9,0,0,1-7.78,6.91c-13.46,7.78-35.3,7.78-48.77,0A22.9,22.9,0,0,1,61.8,351a13.15,13.15,0,0,1-2.06-4.82h0l1.53,10.51c.7,4.23,3.85,8.36,9.47,11.6,12.84,7.4,33.63,7.4,46.47,0,5.54-3.2,8.69-7.28,9.44-11.45l.08-.54,1.48-10.12A13,13,0,0,1,126.13,351Z" style="fill:#37474f"></path><path d="M114.29,332.07c-11.23-6.48-29.42-6.48-40.64,0-6.35,3.68-9.1,8.63-8.27,13.41.64,3.67,3.4,7.24,8.27,10,11.22,6.48,29.41,6.48,40.64,0,4.86-2.81,7.62-6.38,8.26-10C123.39,340.7,120.64,335.75,114.29,332.07Z" style="fill:#263238"></path><path d="M67.28,349.92a19.23,19.23,0,0,0,6.37,5.61c11.22,6.48,29.41,6.48,40.64,0a19.23,19.23,0,0,0,6.37-5.61c-.08-3.88-2.68-7.74-7.81-10.7-10.43-6-27.34-6-37.76,0C70,342.18,67.36,346,67.28,349.92Z" style="fill:#fafafa"></path></g><g id="freepik--Plants--inject-2"><path d="M78.38,250.84l16.37,16.59L78.21,257.2a49,49,0,0,0,1,17s8,6.2,12.47,11.34L78.9,278.57s-2,8.74,0,22.7c.54,3.66,3.69,10.9,5.58,16.25a58,58,0,0,0,3.08,7.22l.22.44q4.93-2.07,10.2-3.94c2.72-4.28,6.9-15.16,9-24.22,8.17-34.7-16-58.11-36.53-67.48C70.52,229.54,76.74,239.65,78.38,250.84Z" style="fill:#92E3A9"></path><path d="M93.35,254.17c3.25,4.17,4.82,9.33,5.88,14.43a71.73,71.73,0,0,1,1.36,15.61A66.44,66.44,0,0,1,93,314.29h0a.5.5,0,0,0,.21.69.51.51,0,0,0,.69-.21h0a67.25,67.25,0,0,0,7.17-30.55,72.41,72.41,0,0,0-1.62-15.68C98.33,263.45,96.67,258.29,93.35,254.17Z" style="fill:#fff"></path><path d="M153.23,271l0,0c-.43.62-7.49,10.79-17.56,30.24l-19.31,5L131,307.41l-6.63,13-18.92,5.77,15.29,1.06s-2.82,15.09-13,22.22c-5.64,3.93-8.22,4.25-10.45,3.18-2.73-1.3-4.35-5.41-6-11.6s-.62-19.11,4.18-32a38.84,38.84,0,0,1,5.33-9.65C113.62,282.19,139.88,272,153.23,271Z" style="fill:#92E3A9"></path><path d="M153.23,271l0,0c-.43.62-7.49,10.79-17.56,30.24l-19.31,5L131,307.41l-6.63,13-18.92,5.77,15.29,1.06s-2.82,15.09-13,22.22c-5.64,3.93-8.22,4.25-10.45,3.18-2.73-1.3-4.35-5.41-6-11.6s-.62-19.11,4.18-32a38.84,38.84,0,0,1,5.33-9.65C113.62,282.19,139.88,272,153.23,271Z" style="opacity:0.1"></path><path d="M133.31,279.3c-9.72,5.39-18.75,12.38-25.52,21.36a53.88,53.88,0,0,0-8.06,14.73A51.11,51.11,0,0,0,97,331.89.06.06,0,0,0,97,332a.06.06,0,0,0,0-.05,65.49,65.49,0,0,1,3.69-16.14,60.35,60.35,0,0,1,7.73-14.58c6.52-9,15.32-16.13,24.87-21.78a.05.05,0,0,0,0-.08A.06.06,0,0,0,133.31,279.3Z" style="fill:#fff"></path><path d="M32.66,267.58h0a47.64,47.64,0,0,1,5.8.75,93.45,93.45,0,0,1,21.82,7.27c2.58,1.21,5.15,2.55,7.67,4q1.89,1.1,3.74,2.3a65,65,0,0,1,16,14.32A41,41,0,0,1,92.87,305c.17.4.36.8.52,1.21h0c.41,1.06.77,2.09,1.11,3.11,4,11.54,3.77,19.29,2.75,27.83-.79,6.62-3.68,14-5.07,15.16a2.87,2.87,0,0,1-.62.38c-2,1.05-4.94.1-10.31-3.52C70.5,341.93,67.4,325.58,67.4,325.58l15.9-1.36-19.79-5.68L56.39,305.1l15.27-1.48-20.18-4.84c-10.82-20.07-18.34-30.53-18.8-31.17l0,0Z" style="fill:#92E3A9"></path><path d="M38.46,268.33a93.45,93.45,0,0,1,21.82,7.27c2.58,1.21,5.15,2.55,7.67,4q1.89,1.1,3.74,2.3a65,65,0,0,1,16,14.32A41,41,0,0,1,92.87,305c.17.4.36.8.52,1.21h0c.41,1.06.77,2.09,1.11,3.11,4,11.54,3.77,19.29,2.75,27.83-.79,6.62-3.68,14-5.07,15.16a2.87,2.87,0,0,1-.62.38,3.52,3.52,0,0,1-1.28.36c2.25-10.19-.65-36.71-7.43-48.09-7-11.83-24.62-29.6-50.18-37.35l0,0A49,49,0,0,1,38.46,268.33Z" style="fill:#92E3A9"></path><path d="M38.46,268.33a93.45,93.45,0,0,1,21.82,7.27c2.58,1.21,5.15,2.55,7.67,4q1.89,1.1,3.74,2.3a65,65,0,0,1,16,14.32A41,41,0,0,1,92.87,305c.17.4.36.8.52,1.21h0c.41,1.06.77,2.09,1.11,3.11,4,11.54,3.77,19.29,2.75,27.83-.79,6.62-3.68,14-5.07,15.16a2.87,2.87,0,0,1-.62.38,3.52,3.52,0,0,1-1.28.36c2.25-10.19-.65-36.71-7.43-48.09-7-11.83-24.62-29.6-50.18-37.35l0,0A49,49,0,0,1,38.46,268.33Z" style="opacity:0.2"></path><path d="M90.36,353.05a89,89,0,0,0,.41-22.89A74,74,0,0,0,85,307.94c-3.3-7-8.38-13-13.87-18.34A86.06,86.06,0,0,0,52.5,276.21a.08.08,0,0,0-.09,0,.05.05,0,0,0,0,.08,112.27,112.27,0,0,1,17.81,14.2,82.11,82.11,0,0,1,7.65,8.4,50.5,50.5,0,0,1,6.19,9.46,73.25,73.25,0,0,1,6,21.86,88.33,88.33,0,0,1,.1,22.8s0,.06,0,.07A.08.08,0,0,0,90.36,353.05Z" style="fill:#fff"></path></g></g></g></g><g id="freepik--Target--inject-2"><g id="freepik--speech-bubble--inject-2"><g id="freepik--Bubble--inject-2"><g id="freepik--target--inject-2"><g id="freepik--target--inject-2"><path d="M264.86,44c4.56-2.64,10.87-2.26,17.84,1.76,13.92,8,25.21,27.59,25.2,43.67,0,8.07-2.84,13.73-7.43,16.35-1.2.68-6,3.59-7.23,4.29-4.56,2.64-10.86,2.26-17.82-1.76-13.93-8-25.21-27.59-25.21-43.67,0-8,2.82-13.68,7.38-16.31" style="fill:#92E3A9"></path><path d="M264.86,44c4.56-2.64,10.87-2.26,17.84,1.76,13.92,8,25.21,27.59,25.2,43.67,0,8.07-2.84,13.73-7.43,16.35-1.2.68-6,3.59-7.23,4.29-4.56,2.64-10.86,2.26-17.82-1.76-13.93-8-25.21-27.59-25.21-43.67,0-8,2.82-13.68,7.38-16.31" style="fill:#fff;opacity:0.5"></path><path d="M304.23,72.13A46.66,46.66,0,0,1,307.9,89.4l-32.48,18.88h0A46.68,46.68,0,0,1,262.3,96.46Z" style="fill:#fff;opacity:0.2"></path><path d="M262.3,96.46c-7.25-9.3-12.09-21.32-12.09-31.85,0-8,2.82-13.68,7.38-16.31L264.86,44c4.56-2.64,10.87-2.26,17.84,1.76,9.11,5.27,17.1,15.47,21.53,26.4Z" style="fill:#fff;opacity:0.30000000000000004"></path><path d="M275.42,50.05c13.92,8.05,25.21,27.59,25.21,43.67s-11.29,22.6-25.21,14.56-25.23-27.59-25.21-43.67S261.51,42,275.42,50.05Z" style="fill:#92E3A9"></path><path d="M275.42,57.33c10.44,6,18.91,20.69,18.91,32.76s-8.47,17-18.91,10.92-18.91-20.7-18.91-32.76S265,51.29,275.42,57.33Z" style="fill:#fafafa"></path><path d="M275.42,64c7.28,4.2,13.18,14.42,13.18,22.83s-5.91,11.81-13.18,7.6S262.24,80,262.24,71.56,268.14,59.74,275.42,64Z" style="fill:#92E3A9"></path><path d="M275.42,70.74a16.13,16.13,0,0,1,7.29,12.64c0,4.65-3.26,6.54-7.29,4.21A16.13,16.13,0,0,1,268.12,75C268.12,70.3,271.39,68.42,275.42,70.74Z" style="fill:#fafafa"></path><path d="M275.42,75.61a6.81,6.81,0,0,1,3.08,5.33c0,2-1.38,2.76-3.08,1.78a6.81,6.81,0,0,1-3.08-5.33C272.34,75.43,273.72,74.63,275.42,75.61Z" style="fill:#92E3A9"></path></g><g id="freepik--arrow--inject-2"><path d="M240,99.63s-.62,7.77-4.21,9.84-5.53-4.22-3.21-5.56Z" style="fill:#37474f"></path><path d="M240,99.63s-7-3.35-10.62-1.28.88,6.9,3.2,5.56Z" style="fill:#455a64"></path><polygon points="267.96 84.4 227.32 107.87 226.54 106.49 268.08 82.51 267.96 84.4" style="fill:#263238"></polygon><path d="M228.28,104.94a2.32,2.32,0,1,1-3.17.85A2.32,2.32,0,0,1,228.28,104.94Z" style="fill:#263238"></path><path d="M267.16,83.91c-1.48,2,1.21,5.36,1.21,5.36l7-10.1Z" style="fill:#92E3A9"></path><path d="M267.16,83.91c-1.48,2,1.21,5.36,1.21,5.36l7-10.1Z" style="fill:#37474f"></path><path d="M263.13,80.19s1.59,4,4,3.72l8.22-4.74Z" style="fill:#455a64"></path></g></g><path d="M289.89,109.86a18.37,18.37,0,0,0,6.13,6.07,17.12,17.12,0,0,0,9.19,2.32.89.89,0,0,0,.43-.11c.49-.3,7.15-4.12,7.27-4.19a.83.83,0,0,0,0-1.44A14.8,14.8,0,0,1,305.25,101Z" style="fill:#92E3A9"></path><path d="M289.89,109.86a18.37,18.37,0,0,0,6.13,6.07,17.12,17.12,0,0,0,9.19,2.32.89.89,0,0,0,.43-.11c.49-.3,7.15-4.12,7.27-4.19a.83.83,0,0,0,0-1.44A14.8,14.8,0,0,1,305.25,101Z" style="fill:#fff;opacity:0.30000000000000004"></path><path d="M298.05,101.52a14.81,14.81,0,0,0,7.57,15.17.84.84,0,0,1-.41,1.56,17.19,17.19,0,0,1-9.2-2.32c-6.51-4.13-7.32-9-7.32-9Z" style="fill:#92E3A9"></path></g></g></g><g id="freepik--Character--inject-2"><g id="freepik--character--inject-2"><g id="freepik--Bottom--inject-2"><path d="M410.73,361.25c-1.34-3.9-2.06-13.47-3.42-23.8l-20.47,4.92s7.79,23.7,8.73,26.05C397.12,372.29,410.73,361.25,410.73,361.25Z" style="fill:#ffbda7"></path><path d="M415.49,366.25a11.33,11.33,0,0,0-2.26-4.84,20.42,20.42,0,0,0-1.46-1.48,8.72,8.72,0,0,1-1.1-2.3,3.33,3.33,0,0,0-.48-.84,2.56,2.56,0,0,0-1.35-.73c-2.24-.6-4.61,0-6.76.87a20.4,20.4,0,0,0-7.84,5.06,2.58,2.58,0,0,0-.61,2.77c.42,1.77,2,8.81,1.93,10.5a17.19,17.19,0,0,1-1.06,6.68,14.49,14.49,0,0,1-.88,2,2.57,2.57,0,0,1-2.24,1.37,17,17,0,0,0-7.24,1.77,5.25,5.25,0,0,0-3.07,5.9s.44,2.81,4.65,5.31c2.41,1.43,8.1,3.11,11.65,2,.25-.1.48-.18.71-.29,3.89-1.83,13.51-6.59,13.6-7.3,0,0,0-.08,0-.12.18-2.3.41-4.59.64-6.88a51,51,0,0,1,.79-5.1c.16-.73.29-1.46.4-2.22C414,375.32,415.53,366.63,415.49,366.25Z" style="fill:#455a64"></path><path d="M416.8,367.8c1.69.83.35,6.21-1.12,10-1.78,4.58-2.52,5.3-2.27,9.31s.35,6.53-1.31,7.86-13.58,7.13-13.58,7.13a49,49,0,0,0,3.91-14.69c1-8.77,2-14.39,6.23-18.08S416.8,367.8,416.8,367.8Z"></path><path d="M381.07,393s2.2,4.59,10.82,6.34c5.47,1.11,8.15-1.46,8.83-8.28.74-7.4,1.7-16.53,4.59-20.47s7.25-5.18,10.18-4.42a3.34,3.34,0,0,1,1.65,1.92s-3.33-2.33-8,1.62c-3.75,3.19-4.76,11.16-5.43,17.88s-1.56,14.5-6.77,14.91-12.05-2.17-15.24-5.41A3.59,3.59,0,0,1,381.07,393Z" style="fill:#37474f"></path><path d="M394,383a1.9,1.9,0,0,0-.86,1.18,3.94,3.94,0,0,0,1.6,3.68c.67.47,1.28.36.27-1.15A7.58,7.58,0,0,1,394,383Z" style="fill:#fafafa"></path><path d="M395.29,379a1.67,1.67,0,0,0-.55,1c-.08.62.82,3.23,2,3.89s.62-.78.11-1.48A25.46,25.46,0,0,1,395.29,379Z" style="fill:#fafafa"></path><path d="M395.47,374.11a2.27,2.27,0,0,0-.18,1.46,5.22,5.22,0,0,0,2.88,2.11c.78,0,1.1-.43.07-1C397.43,376.23,395.71,374.85,395.47,374.11Z" style="fill:#fafafa"></path><path d="M405.83,189.57c1.46,9.38,2.12,16.43.46,39.88-.74,10.32-3.84,54.76-3.84,54.76a124.53,124.53,0,0,1,4.77,28.72c.6,16.21,1.81,36.12,1.81,36.12s-3.41-2.29-10.11-.37a17.87,17.87,0,0,0-8.66,6.16s-8.46-24.66-13.32-42.42c-3.39-12.42-5.72-16.51-7.6-33.55-2.31-20.94-6.08-50.35-6.08-50.35l-11.58-38.93Z" style="fill:#37474f"></path><path d="M376.64,238.75c-6.37,5.62-7.74,10.31-8.08,13.68s1.65,33.28,1.65,33.4c-.29-2.05-.58-4.34-.87-7-2.31-20.92-6.07-50.31-6.08-50.35h0l-11.58-38.93h36.67l-3.1,22.34C386.18,221.51,383,233.13,376.64,238.75Z" style="fill:#263238"></path><path d="M335.42,349.66c.46,2,1,3.55-.86,6s-5.9,3.72-9.91,3.6a12.49,12.49,0,0,1-7.76-3.17c-2.32-1.8-3.94-3.37-4.81-4.11s-4.32-1.69-7.6-2.35c-3.44-.69-10.08-2.13-13.45-7.06s-2.79-9.23-2.79-9.23Z" style="fill:#263238"></path><path d="M310.08,330.18c7.05,2.43,17.77,3.91,24.16,5.6,1.92,1.79,1.51,9.89,1.53,15.35-2.45,5.62-10.28,7.06-15.47,4.81-2.69-1.48-4.49-3.57-7.13-5.19a21.21,21.21,0,0,0-6.81-2.38,63,63,0,0,1-8.14-2.45c-6.93-3.18-10.38-9.08-10-13.87.36-4.2,3.13-7.17,10-6.13C301.34,326.38,305.23,328.52,310.08,330.18Z" style="fill:#455a64"></path><path d="M317.29,332c-1.25-1.63-3.66-.67-5.54,1.63s-2.38,6-2.15,6.69,1.13,1.24,1.39.29.71-4.19,2.2-6.16a7.37,7.37,0,0,1,3.6-2.58Z" style="fill:#e0e0e0"></path><path d="M308.36,329.56c-1.13-1.65-3.87-.86-5.81,1.26s-2.56,4.94-2.38,5.61,1,1.27,1.34.36a15.31,15.31,0,0,1,2.59-5.19,6.76,6.76,0,0,1,3.78-2.21Z" style="fill:#e0e0e0"></path><path d="M312.39,330.91c-1.13-1.65-3.51-.84-5.46,1.28a10.3,10.3,0,0,0-2.44,6.35c.18.67,1,1.27,1.33.35s.92-4,2.46-5.83a7.14,7.14,0,0,1,3.63-2.3Z" style="fill:#e0e0e0"></path><path d="M334.46,330.18c0,.23-.29,7.48-.29,7.48s-.66,2.84-6.95,3.64-10.88-1.58-12.08-3.26c0,0-.77-7.51-1.14-10.64Z" style="fill:#ffbda7"></path><path d="M388.35,206.6c-.69,10.8-5.27,24.77-20.85,35.31-7.1,5.5-12.26,11-18.14,16.85-7.29,7.22-12.42,11.6-12.42,11.6A141.51,141.51,0,0,1,338,296c-.69,14.66-3.32,34.09-3.32,34.09A17.51,17.51,0,0,1,323,333.23c-6.83-.66-9.29-3.22-9.29-3.22s-6.76-45.23-7.68-54.17-2.65-14,5-28.45c6-11.19,32.32-57.8,32.32-57.8h45Z" style="fill:#37474f"></path></g><g id="freepik--Pencil--inject-2"><path d="M252.51,206.86,233,238.14a1.12,1.12,0,0,0,1.35,1.64l34.71-13Z" style="fill:#ffa8a7"></path><path d="M234.35,239.78a1.12,1.12,0,0,1-1.35-1.64l3.81-6.11h0a6.22,6.22,0,0,0,4.35,4.79l.61.17Z" style="fill:#263238"></path><path d="M435.92,90.44l-2.64,2.16-3.18,2.62-161,131.54a16.48,16.48,0,0,1-10.86-5.22c-4.45-4.44-6.91-10.72-5.68-14.67l161-131.48,6.09-5C415.83,73.85,432.1,93.84,435.92,90.44Z" style="fill:#92E3A9"></path><path d="M425.89,98.69l-5.9,4.82c-1.67,1.45-5.74-1.3-9.56-5.2-5.08-5.16-8.92-13-6.72-14.91l4.35-3.56,1.58-1.24c-2.21,1.92,1.63,9.75,6.71,14.92,3.66,3.73,7.58,6.41,9.35,5.31v0A.36.36,0,0,0,425.89,98.69Z" style="fill:#ebebeb"></path><path d="M424.41,99.88c-3.86,3.38-20.12-16.72-16.26-20.1L414,74.94c-3.86,3.39,12.4,23.48,16.26,20.1Z" style="fill:#92E3A9"></path><path d="M435.92,90.44l-5.82,4.78c-3.77,3.34-19.62-15.92-16.6-19.83a1.2,1.2,0,0,1,.19-.21l5.9-4.77C415.83,73.85,432.1,93.84,435.92,90.44Z" style="fill:#ebebeb"></path><path d="M233.15,239.5l-.15-1.36,22.77-19.41L423.42,81.82c-.29-.39-.24-.59.08-.65,4.24,5.75,10.28,11.17,12.42,9.27l-2.64,2.16-3.18,2.62-161,131.54h0l-34.71,13A1.09,1.09,0,0,1,233.15,239.5Z" style="opacity:0.15"></path><path d="M460.63,70.18,435.92,90.44c-1.63,1.45-5.68-1.24-9.49-5.09-5.1-5.15-9-13-6.84-14.94l0,0,24.8-20.31c4.95-4,14.35,5,17.16,12.67C462.64,65.6,462.57,68.31,460.63,70.18Z" style="fill:#f28f8f"></path><path d="M452,68.66C446.73,65,442.81,58,443.25,53.22a4.49,4.49,0,0,1,2-3.68c5.11-2.52,13.67,5.94,16.33,13.2,1.05,2.8,1,5.46-.84,7.33C458.85,71.58,455.58,71.18,452,68.66Z" style="opacity:0.1"></path></g><g id="freepik--Top--inject-2"><path d="M387.59,108.71c-2.36-2-3.68-8.28-2.49-11.71s6-11.53,6.64-21.34S379.19,50.82,367.82,52s-17.42,7.47-20.48,16c-1.86,5.18-.44,5.9-1.16,8.87-1.41,5.87-2.78,13.89-.25,21.72a9.65,9.65,0,0,0,7.68,6.66,22.58,22.58,0,0,0,7.35.24,72.13,72.13,0,0,1,.06,7.61,3.48,3.48,0,0,1-3.29,3.38S390,110.71,387.59,108.71Z" style="fill:#ffbda7"></path><path d="M354.36,92.67a3.5,3.5,0,0,0,6.72-1.94Z" style="fill:#b16668"></path><path d="M357,95.1a4.94,4.94,0,0,1,4.21-3.19A3.44,3.44,0,0,1,357,95.1Z" style="fill:#f28f8f"></path><path d="M361.62,79.3a1.84,1.84,0,0,0,1.16,2.34,1.89,1.89,0,1,0-1.16-2.34Z" style="fill:#263238"></path><path d="M361.76,72.52l4.15,1.58a2.33,2.33,0,0,0-1.33-2.94A2.16,2.16,0,0,0,361.76,72.52Z" style="fill:#263238"></path><path d="M348,73.51l4.17-1.63a2.15,2.15,0,0,0-2.83-1.32A2.35,2.35,0,0,0,348,73.51Z" style="fill:#263238"></path><path d="M348.81,78.43a1.67,1.67,0,1,0,1.66-1.74A1.7,1.7,0,0,0,348.81,78.43Z" style="fill:#263238"></path><path d="M347.38,86.6l6.48,2.9,2.05-12.72C353.5,75.91,350.37,81.75,347.38,86.6Z" style="fill:#f0997a"></path><path d="M361,105.46s6.15-.92,7.89-1.91c4.73-2.7,6.45-4.78,7.5-7.74a12.6,12.6,0,0,1-7,9.41,41.56,41.56,0,0,1-8.3,2.52Z" style="fill:#f0997a"></path><path d="M394.54,70.64a9.38,9.38,0,0,0-3-5.68,2.67,2.67,0,0,0-.86-.46c1.46-9.11-5.56-12.82-9.19-13.43a37.23,37.23,0,0,1-5-1,5.09,5.09,0,0,1-1.19-.6c-1.13-.78-1.74-1.91-3-2.84-2.85-2.11-7.4-1.85-8.9,1.74-1.95-2.21-4.38-2-7.15-1.07a4.72,4.72,0,0,0-3.22,3.23,5.6,5.6,0,0,0-.1,2.45,5.18,5.18,0,0,0-7.22,2.6,2.87,2.87,0,0,0-.15.68,6.35,6.35,0,0,0,0,.75c0,1.33.17,2.5-.64,3.79a3,3,0,0,1-.63.72,2.35,2.35,0,0,1-3.52-.14c-.23,2.34.79,4,3.3,3.75a5.25,5.25,0,0,0-.35,4.47,4.64,4.64,0,0,0,2.75,2.69,15,15,0,0,1,1-4.28c.35-1,.75-1.92,1.18-2.85a20.09,20.09,0,0,0,5.16,1.43,36.88,36.88,0,0,0,19.23-1.89,30.77,30.77,0,0,0-2.07,6.61,6.88,6.88,0,0,0,1.7,5.67c.66.61.42,1.71.25,2.47a9.81,9.81,0,0,0-.56,2.87,1.49,1.49,0,0,0,.08.42,1.61,1.61,0,0,0,2.4.82,7,7,0,0,0,1.59-2.35c2.26-4.68,7.13-4.8,9.12-2.46s1.9,4.76,0,9c-1.28,2.82-4.21,4.21-6.39,3.3a3.47,3.47,0,0,1-1.07-.7c-.06,1.82.41,4.23,2.28,5.58A7.46,7.46,0,0,0,385.1,97c.57-1.65,2-4.36,3.34-7.83,1-1.73,2-3.41,2.85-5,0,0,0,0,0,0,.27-.5.51-1,.72-1.5C394,78.15,395.07,74.7,394.54,70.64Z" style="fill:#263238"></path><path d="M391.43,109.23c12-1.11,17.16,3,20.17,6.53s16.58,26,22,38.67c2.19,5.13,3.41,9.17-1.28,13.79-5,4.92-28.07,24.45-28.07,24.45l-8.46-13.29,16.11-21.2-14-23Z" style="fill:#37474f"></path><path d="M398.2,111c6.07,3,10.29,15.09,10.83,24.28.42,7.15-1.16,16.51-2.17,29.88a139.66,139.66,0,0,0-.17,18.29c.32,6.32.85,17.42.85,17.42s-6,12.15-27.62,14.29c-31.45,3.12-44-12.33-44-12.33s2.18-7,2.43-33c.19-19.44-1.77-38.2,2.07-45.13,1.66-2.31,1.65-4.6,6-6.22,3-1.12,16.65-4.45,22-5.6C386.26,109.07,391.85,107.87,398.2,111Z" style="fill:#455a64"></path><path d="M358,115.47c2.74.7,4,1.37,8.15,2.29a25.63,25.63,0,0,0,17.59-1.93c5.09-2.63,6-6.13,6-6.13s-2.15-3.81-3-5.06-1.67-1.12-1.67-1.12l.37,1.45s0,2.42-5.85,3.89c-6,1.51-15.69,1.63-18.47.8v-.81c-1.44.38-1.9,1.44-3.53,3.66a46.09,46.09,0,0,1-3.25,3.94Z" style="fill:#37474f"></path><path d="M278.12,194.56c-5.27,1.26-7.74,3.11-10.31,3.41a26.25,26.25,0,0,1-4.54.15L258.45,202s1-8.37,2.43-11.51,2.73-1.26,3.7-3.2.74-3.33,2.83-4.08,1.62-2.68,4.85-3.27,16.1,1.3,16.1,1.3Z" style="fill:#ffa8a7"></path><path d="M347.13,118.24c-13.4,3-16.76,6.41-23.11,18.42-7.14,13.5-15.91,30.73-15.91,30.73s-18.22,7.34-29.07,11.22c-3.51,1.26-10.17,17.78-4.37,18.17,0,0,29.76-5.19,38.57-6.9,10.59-2.06,12.27-4.2,18-12.93S350,143.37,350,143.37,356.16,125.2,347.13,118.24Z" style="fill:#37474f"></path></g></g></g></svg>
