<?xml version="1.0" ?><!DOCTYPE svg  PUBLIC '-//W3C//DTD SVG 1.1//EN'  'http://www.w3.org/Graphics/SVG/1.1/DTD/svg11.dtd'><svg height="142px" style="enable-background:new 0 0 132 142;" version="1.1" viewBox="0 0 132 142" width="132px" xml:space="preserve" xmlns="http://www.w3.org/2000/svg" xmlns:xlink="http://www.w3.org/1999/xlink"><style type="text/css">
<![CDATA[
	.st0{fill:#EF3E42;}
	.st1{fill:#FFFFFF;}
	.st2{fill:none;}
	.st3{fill-rule:evenodd;clip-rule:evenodd;fill:#FFFFFF;}
]]>
</style><defs/><path d="M10.9,20.7c0-3,2.5-5.5,5.5-5.5h37.9c3,0,5.5,2.5,5.5,5.5v37.9c0,3-2.5,5.5-5.5,5.5H16.4c-3,0-5.5-2.5-5.5-5.5V20.7  L10.9,20.7z M22.1,52.4H30l5.3-8.1l5.3,8.1h8l-9.4-13.6l8.4-11.9h-7.7l-4.4,6.6l-4.5-6.6h-8l8.4,12L22.1,52.4L22.1,52.4z M69.1,78.9  c0-3,2.5-5.5,5.5-5.5h37.9c3,0,5.5,2.5,5.5,5.5v37.9c0,3-2.5,5.5-5.5,5.5H74.6c-3,0-5.5-2.5-5.5-5.5V78.9L69.1,78.9z M89.9,84.4v9.8  h-9.8v7.3h9.8v9.8h7.3v-9.8h9.8v-7.3h-9.8v-9.8H89.9L89.9,84.4z M69.1,20.7c0-3,2.5-5.5,5.5-5.5h37.9c3,0,5.5,2.5,5.5,5.5v37.9  c0,3-2.5,5.5-5.5,5.5H74.6c-3,0-5.5-2.5-5.5-5.5V20.7L69.1,20.7z M93.6,46.4c-2.4,0-4.4,2-4.4,4.4c0,2.4,2,4.4,4.4,4.4  c2.4,0,4.4-2,4.4-4.4C97.9,48.3,96,46.4,93.6,46.4L93.6,46.4z M93.6,24.2c-2.4,0-4.4,2-4.4,4.4s2,4.4,4.4,4.4c2.4,0,4.4-2,4.4-4.4  S96,24.2,93.6,24.2L93.6,24.2z M108.2,42.7v-6H79v6H108.2L108.2,42.7z M48.5,101.9v-8.1H22.3v8.1H48.5L48.5,101.9z M10.9,78.9  c0-3,2.5-5.5,5.5-5.5h37.9c3,0,5.5,2.5,5.5,5.5v37.9c0,3-2.5,5.5-5.5,5.5H16.4c-3,0-5.5-2.5-5.5-5.5V78.9L10.9,78.9z"/><rect class="st2" height="142" id="_x3C_Slice_x3E__100_" width="132"/></svg>