<?xml version="1.0" encoding="UTF-8"?>
<!DOCTYPE svg PUBLIC "-//W3C//DTD SVG 1.1//EN" "http://www.w3.org/Graphics/SVG/1.1/DTD/svg11.dtd">
<!-- Creator: CorelDRAW -->
<svg xmlns="http://www.w3.org/2000/svg" xml:space="preserve" width="16.9332mm" height="16.9332mm" style="shape-rendering:geometricPrecision; text-rendering:geometricPrecision; image-rendering:optimizeQuality; fill-rule:evenodd; clip-rule:evenodd"
viewBox="0 0 16.9332 16.9332"
 xmlns:xlink="http://www.w3.org/1999/xlink">
 <defs>
  <style type="text/css">
   <![CDATA[
    .str0 {stroke:black;stroke-width:0.3387}
    .fil1 {fill:yellow}
    .fil0 {fill:white}
    .fil2 {fill:#080808}
   ]]>
  </style>
 </defs>
 <g id="Capa_x0020_1">
  <metadata id="CorelCorpID_0Corel-Layer"/>
  <path class="fil0 str0" d="M-0 0l13.5466 0c1.8627,0 3.3866,1.5239 3.3866,3.3866l0 13.5466 -15.1553 0c-0.9779,0 -1.7779,-0.8 -1.7779,-1.7779l0 -15.1553z"/>
  <ellipse class="fil1" cx="8.4666" cy="8.4666" rx="7.88248" ry="8.0434"/>
  <path class="fil2" d="M7.2795 1.14c9.6724,-1.4653 11.8521,13.0916 2.4725,14.6281 -3.9498,0.6468 -7.9355,-2.0404 -8.5515,-6.0099 -0.6232,-4.017 2.0016,-8.0006 6.079,-8.6182zm-0.4425 -0.4938c-10.3585,2.2895 -6.9195,17.9202 3.3822,15.6365 10.1116,-2.2415 6.8594,-17.8997 -3.3822,-15.6365z"/>
  <path class="fil2" d="M2.7008 6.6145c0.8197,-0.833 1.2973,-1.7415 2.7515,-1.4552l1.1823 2.7947 -2.4211 0.4136 0.4656 -0.7482 1.3428 -0.0481 -0.1355 -1.4087 -2.3496 0.6608 0.0208 1.4246 2.769 0.7584c3.6596,-3.5031 -2.7781,-6.6984 -3.6258,-2.3919z"/>
  <path class="fil2" d="M12.1985 4.3389c0.7245,0.9171 1.5663,1.5041 1.1011,2.9114l-2.9203 0.8249 -0.1087 -2.4538 0.6844 0.5551 -0.1196 1.3384 1.4147 0.0411 -0.363 -2.4137 -1.4161 -0.1569 -1.0974 2.653c3.0197,4.0676 6.9922,-1.9219 2.8249,-3.2995z"/>
  <path class="fil2" d="M3.5134 11.6481c0.3729,0.3681 1.7502,0.8743 2.5491,0.975 1.1293,0.1423 1.4191,-0.5238 2.449,-0.8337l2.4289 0.8252c0.4926,-0.0727 0.6745,-0.3031 1.2255,-0.449 1.295,-0.3427 0.3668,0.373 1.2635,-0.448 -4.4845,0.4955 -5.4426,0.5042 -9.916,-0.0695z"/>
 </g>
</svg>
