<?xml version="1.0" encoding="UTF-8"?>
<!DOCTYPE svg PUBLIC "-//W3C//DTD SVG 1.1//EN" "http://www.w3.org/Graphics/SVG/1.1/DTD/svg11.dtd">
<!-- Creator: CorelDRAW -->
<svg xmlns="http://www.w3.org/2000/svg" xml:space="preserve" width="16.9332mm" height="16.9332mm" style="shape-rendering:geometricPrecision; text-rendering:geometricPrecision; image-rendering:optimizeQuality; fill-rule:evenodd; clip-rule:evenodd"
viewBox="0 0 16.9332 16.9332"
 xmlns:xlink="http://www.w3.org/1999/xlink">
 <defs>
  <style type="text/css">
   <![CDATA[
    .str0 {stroke:#1A1A1A;stroke-width:0.2}
    .str1 {stroke:black;stroke-width:0.3387}
    .fil0 {fill:black}
    .fil2 {fill:#FFCC00}
    .fil1 {fill:yellow}
   ]]>
  </style>
   <mask id="id0">
  <linearGradient id="id1" gradientUnits="userSpaceOnUse" x1="12.726" y1="13.5797" x2="4.2072" y2="3.3535">
   <stop offset="0" style="stop-opacity:1; stop-color:white"/>
   <stop offset="0.678431" style="stop-opacity:4.73725; stop-color:white"/>
   <stop offset="1" style="stop-opacity:0.556863; stop-color:white"/>
  </linearGradient>
    <rect style="fill:url(#id1)" x="0.549" y="0.549" width="15.8352" height="15.8352"/>
   </mask>
 </defs>
 <g id="Capa_x0020_1">
  <metadata id="CorelCorpID_0Corel-Layer"/>
  <path class="fil0 str0" d="M7.2188 0.9087c10.1673,-1.5115 12.4585,13.5049 2.5989,15.0899 -4.1518,0.6673 -8.3415,-2.1048 -8.989,-6.1997 -0.655,-4.1438 2.1041,-8.2531 6.3901,-8.8902zm-0.4652 -0.5094c-10.8885,2.3618 -7.2736,18.4859 3.5552,16.1302 10.629,-2.3123 7.2104,-18.4649 -3.5552,-16.1302z"/>
  <path class="fil0" d="M12.7411 4.202c0.7934,1.0044 1.7153,1.6474 1.2059,3.1886l-3.1983 0.9034 -0.1191 -2.6874 0.7496 0.608 -0.131 1.4657 1.5493 0.045 -0.3975 -2.6434 -1.5509 -0.1718 -1.2019 2.9056c3.3072,4.4547 7.6579,-2.105 3.0939,-3.6137z"/>
  <path class="fil0" d="M3.8292 11.4188c0.3729,0.3681 1.7502,0.8743 2.5491,0.975 1.1293,0.1423 1.4191,-0.5238 2.449,-0.8337l2.4289 0.8252c0.4926,-0.0727 0.6745,-0.3031 1.2255,-0.449 1.295,-0.3427 0.3668,0.373 1.2635,-0.448 -4.4845,0.4955 -5.4426,0.5042 -9.916,-0.0695z"/>
  <ellipse class="fil1" cx="8.4666" cy="8.4666" rx="7.87398" ry="7.874"/>
  <path class="fil2" style="mask:url(#id0)" d="M16.2221 9.8273c-0.7514,4.2832 -4.8329,7.1463 -9.1162,6.3948 -4.2833,-0.7514 -7.1463,-4.833 -6.3948,-9.1162 0.7514,-4.2832 4.8329,-7.1463 9.1162,-6.3948 4.2833,0.7514 7.1463,4.833 6.3948,9.1162z"/>
  <path class="fil0" d="M2.3392 6.6942c0.8978,-0.9123 1.4208,-1.9072 3.0135,-1.5937l1.2948 3.0608 -2.6516 0.453 0.5099 -0.8195 1.4706 -0.0527 -0.1484 -1.5428 -2.5733 0.7237 0.0228 1.5603 3.0327 0.8305c4.008,-3.8365 -3.0426,-7.336 -3.971,-2.6196z"/>
  <path class="fil0" d="M2.3392 6.6942c0.8978,-0.9123 1.4208,-1.9072 3.0135,-1.5937l1.2948 3.0608 -2.6516 0.453 0.5099 -0.8195 1.4706 -0.0527 -0.1484 -1.5428 -2.5733 0.7237 0.0228 1.5603 3.0327 0.8305c4.008,-3.8365 -3.0426,-7.336 -3.971,-2.6196z"/>
  <path class="fil0" d="M12.6756 4.935c0.7934,1.0044 1.7153,1.6474 1.2059,3.1886l-3.1983 0.9034 -0.1191 -2.6874 0.7496 0.608 -0.131 1.4658 1.5493 0.045 -0.3975 -2.6435 -1.5509 -0.1718 -1.2019 2.9056c3.3072,4.4548 7.6579,-2.1049 3.0939,-3.6137z"/>
  <path class="fil0 str1" d="M2.3457 10.4233c0.3832,0.4899 1.9275,1.2946 2.8526,1.5343 1.3077,0.3388 1.7498,-0.4011 3.0091,-0.6097l2.7337 1.3397c0.5908,-0.0109 0.8399,-0.2545 1.5106,-0.3426 1.5763,-0.207 0.3752,0.4947 1.5552,-0.3357 -5.3537,-0.097 -6.4827,-0.232 -11.6612,-1.586z"/>
  <path class="fil0" d="M7.257 1.1401c9.8559,-1.4653 12.077,13.0916 2.5194,14.6281 -4.0247,0.6468 -8.0861,-2.0404 -8.7138,-6.0099 -0.635,-4.017 2.0396,-8.0006 6.1944,-8.6182zm-0.4509 -0.4938c-10.5551,2.2895 -7.0508,17.9202 3.4463,15.6365 10.3035,-2.2415 6.9896,-17.8997 -3.4463,-15.6365z"/>
 </g>
</svg>
