<?xml version="1.0" encoding="UTF-8"?>
<!DOCTYPE svg PUBLIC "-//W3C//DTD SVG 1.1//EN" "http://www.w3.org/Graphics/SVG/1.1/DTD/svg11.dtd">
<!-- Creator: CorelDRAW 2017 -->
<svg xmlns="http://www.w3.org/2000/svg" xml:space="preserve" width="124.089mm" height="57.1498mm" version="1.1" style="shape-rendering:geometricPrecision; text-rendering:geometricPrecision; image-rendering:optimizeQuality; fill-rule:evenodd; clip-rule:evenodd"
viewBox="0 0 12408.94 5714.98"
 xmlns:xlink="http://www.w3.org/1999/xlink">
 <defs>
  <style type="text/css">
   <![CDATA[
    .str1 {stroke:white;stroke-width:20;stroke-miterlimit:22.9256;stroke-opacity:0.501961}
    .str0 {stroke:white;stroke-width:20;stroke-miterlimit:22.9256}
    .fil5 {fill:none}
    .fil0 {fill:black}
    .fil4 {fill:#FFCC00}
    .fil2 {fill:yellow}
    .fil1 {fill:white}
    .fil18 {fill:black;fill-rule:nonzero}
    .fil16 {fill:white;fill-opacity:0.501961}
    .fil11 {fill:url(#id36)}
    .fil9 {fill:url(#id37)}
    .fil6 {fill:url(#id38)}
    .fil8 {fill:url(#id39)}
    .fil15 {fill:url(#id40)}
    .fil10 {fill:url(#id41)}
    .fil7 {fill:url(#id42)}
    .fil17 {fill:url(#id43)}
    .fil12 {fill:url(#id44)}
    .fil3 {fill:url(#id45)}
    .fil14 {fill:url(#id46)}
    .fil13 {fill:url(#id47)}
   ]]>
  </style>
    <clipPath id="id0">
     <path d="M11625.96 2001.72l-1187.16 -698.04 698.04 -1187.16 1187.16 698.04 -698.04 1187.16z"/>
    </clipPath>
      <mask id="id1">
  <linearGradient id="id2" gradientUnits="userSpaceOnUse" x1="10919.14" y1="1242.25" x2="11954.15" y2="847.32">
   <stop offset="0" style="stop-opacity:1; stop-color:white"/>
   <stop offset="0.678431" style="stop-opacity:1; stop-color:white"/>
   <stop offset="1" style="stop-opacity:0.556863; stop-color:white"/>
  </linearGradient>
       <rect style="fill:url(#id2)" x="10692.6" y="370.32" width="1377.59" height="1377.6"/>
      </mask>
   <clipPath id="id3">
    <path d="M9872.51 2276.23l-1187.16 -698.04 698.04 -1187.16 1187.16 698.04 -698.04 1187.16z"/>
   </clipPath>
     <mask id="id4">
  <linearGradient id="id5" gradientUnits="userSpaceOnUse" x1="9165.69" y1="1516.76" x2="10200.7" y2="1121.83">
   <stop offset="0" style="stop-opacity:1; stop-color:white"/>
   <stop offset="0.678431" style="stop-opacity:1; stop-color:white"/>
   <stop offset="1" style="stop-opacity:0.556863; stop-color:white"/>
  </linearGradient>
      <rect style="fill:url(#id5)" x="8939.15" y="644.83" width="1377.59" height="1377.6"/>
     </mask>
    <clipPath id="id6">
     <path d="M714.52 1899.89l1187.16 -698.04 -698.04 -1187.16 -1187.16 698.04 698.04 1187.16z"/>
    </clipPath>
      <mask id="id7">
  <linearGradient id="id8" gradientUnits="userSpaceOnUse" x1="1421.34" y1="1140.42" x2="386.33" y2="745.49">
   <stop offset="0" style="stop-opacity:1; stop-color:white"/>
   <stop offset="0.678431" style="stop-opacity:1; stop-color:white"/>
   <stop offset="1" style="stop-opacity:0.556863; stop-color:white"/>
  </linearGradient>
       <rect style="fill:url(#id8)" x="270.29" y="268.49" width="1377.59" height="1377.6"/>
      </mask>
   <clipPath id="id9">
    <path d="M2467.97 2174.4l1187.16 -698.04 -698.04 -1187.16 -1187.16 698.04 698.04 1187.16z"/>
   </clipPath>
     <mask id="id10">
  <linearGradient id="id11" gradientUnits="userSpaceOnUse" x1="3174.79" y1="1414.93" x2="2139.78" y2="1020">
   <stop offset="0" style="stop-opacity:1; stop-color:white"/>
   <stop offset="0.678431" style="stop-opacity:1; stop-color:white"/>
   <stop offset="1" style="stop-opacity:0.556863; stop-color:white"/>
  </linearGradient>
      <rect style="fill:url(#id11)" x="2023.74" y="543" width="1377.59" height="1377.6"/>
     </mask>
   <clipPath id="id12">
    <path d="M1271.25 4263.03l1148.6 759.83 759.82 -1148.6 -1148.6 -759.82 -759.82 1148.59z"/>
   </clipPath>
     <mask id="id13">
  <linearGradient id="id14" gradientUnits="userSpaceOnUse" x1="2264.02" y1="4564.36" x2="2164.11" y2="3461.08">
   <stop offset="0" style="stop-opacity:1; stop-color:white"/>
   <stop offset="0.678431" style="stop-opacity:1; stop-color:white"/>
   <stop offset="1" style="stop-opacity:0.556863; stop-color:white"/>
  </linearGradient>
      <rect style="fill:url(#id14)" x="1536.85" y="3380.04" width="1377.22" height="1377.22"/>
     </mask>
   <clipPath id="id15">
    <path d="M4.98 5324.46l1347.72 283.31 283.31 -1347.72 -1347.72 -283.31 -283.31 1347.72z"/>
   </clipPath>
     <mask id="id16">
  <linearGradient id="id17" gradientUnits="userSpaceOnUse" x1="1038.94" y1="5238.91" x2="539.67" y2="4250">
   <stop offset="0" style="stop-opacity:1; stop-color:white"/>
   <stop offset="0.678431" style="stop-opacity:1; stop-color:white"/>
   <stop offset="1" style="stop-opacity:0.556863; stop-color:white"/>
  </linearGradient>
      <rect style="fill:url(#id17)" x="131.71" y="4103.47" width="1377.58" height="1377.58"/>
     </mask>
   <clipPath id="id18">
    <path d="M9076.73 4641.6l940.88 1005.66 1005.66 -940.89 -940.88 -1005.65 -1005.66 940.88z"/>
   </clipPath>
     <mask id="id19">
  <linearGradient id="id20" gradientUnits="userSpaceOnUse" x1="9972.45" y1="5165.11" x2="10131.34" y2="4068.77">
   <stop offset="0" style="stop-opacity:1; stop-color:white"/>
   <stop offset="0.678431" style="stop-opacity:1; stop-color:white"/>
   <stop offset="1" style="stop-opacity:0.556863; stop-color:white"/>
  </linearGradient>
      <rect style="fill:url(#id20)" x="9361.31" y="3985.3" width="1377.38" height="1377.38"/>
     </mask>
   <clipPath id="id21">
    <path d="M11680.88 5458.74l723.16 -1172.03 -1172.03 -723.16 -723.15 1172.03 1172.02 723.16z"/>
   </clipPath>
     <mask id="id22">
  <linearGradient id="id23" gradientUnits="userSpaceOnUse" x1="11950.7" y1="4456.94" x2="10851.12" y2="4591.66">
   <stop offset="0" style="stop-opacity:1; stop-color:white"/>
   <stop offset="0.678431" style="stop-opacity:1; stop-color:white"/>
   <stop offset="1" style="stop-opacity:0.556863; stop-color:white"/>
  </linearGradient>
      <rect style="fill:url(#id23)" x="10767.84" y="3822.53" width="1377.22" height="1377.23"/>
     </mask>
    <clipPath id="id24">
     <path d="M498.84 3238.76l1389.39 49.69 49.69 -1389.38 -1389.39 -49.69 -49.69 1389.38z"/>
    </clipPath>
      <mask id="id25">
  <linearGradient id="id26" gradientUnits="userSpaceOnUse" x1="1512.6" y1="2975.59" x2="845.64" y2="2077.9">
   <stop offset="0" style="stop-opacity:1; stop-color:white"/>
   <stop offset="0.678431" style="stop-opacity:1; stop-color:white"/>
   <stop offset="1" style="stop-opacity:0.556863; stop-color:white"/>
  </linearGradient>
       <rect style="fill:url(#id26)" x="523.12" y="1873.65" width="1390.54" height="1390.54"/>
      </mask>
    <clipPath id="id27">
     <path d="M11841.64 3340.59l-1389.39 49.69 -49.69 -1389.38 1389.39 -49.69 49.69 1389.38z"/>
    </clipPath>
      <mask id="id28">
  <linearGradient id="id29" gradientUnits="userSpaceOnUse" x1="10827.88" y1="3077.42" x2="11494.84" y2="2179.73">
   <stop offset="0" style="stop-opacity:1; stop-color:white"/>
   <stop offset="0.678431" style="stop-opacity:1; stop-color:white"/>
   <stop offset="1" style="stop-opacity:0.556863; stop-color:white"/>
  </linearGradient>
       <rect style="fill:url(#id29)" x="10426.82" y="1975.48" width="1390.54" height="1390.54"/>
      </mask>
    <clipPath id="id30">
     <path d="M9876.26 2174.17l-1187.16 -698.04 698.04 -1187.16 1187.16 698.04 -698.04 1187.16z"/>
    </clipPath>
      <mask id="id31">
  <linearGradient id="id32" gradientUnits="userSpaceOnUse" x1="9169.44" y1="1414.7" x2="10204.45" y2="1019.77">
   <stop offset="0" style="stop-opacity:1; stop-color:white"/>
   <stop offset="0.678431" style="stop-opacity:1; stop-color:white"/>
   <stop offset="1" style="stop-opacity:0.556863; stop-color:white"/>
  </linearGradient>
       <rect style="fill:url(#id32)" x="8942.9" y="542.77" width="1377.59" height="1377.6"/>
      </mask>
    <clipPath id="id33">
     <path d="M3540.17 5521.79l5328.63 0 0 -5328.63 -5328.63 0 0 5328.63z"/>
    </clipPath>
      <mask id="id34">
  <linearGradient id="id35" gradientUnits="userSpaceOnUse" x1="7387.15" y1="4374.86" x2="4709.49" y2="1027.77">
   <stop offset="0" style="stop-opacity:1; stop-color:white"/>
   <stop offset="0.678431" style="stop-opacity:1; stop-color:white"/>
   <stop offset="1" style="stop-opacity:0.556863; stop-color:white"/>
  </linearGradient>
       <rect style="fill:url(#id35)" x="3550.59" y="203.59" width="5307.82" height="5307.81"/>
      </mask>
  <linearGradient id="id36" gradientUnits="userSpaceOnUse" x1="9972.04" y1="5167.74" x2="10131.78" y2="4065.51">
   <stop offset="0" style="stop-opacity:1; stop-color:white"/>
   <stop offset="0.678431" style="stop-opacity:1; stop-color:white"/>
   <stop offset="1" style="stop-opacity:0.556863; stop-color:white"/>
  </linearGradient>
  <linearGradient id="id37" gradientUnits="userSpaceOnUse" xlink:href="#id36" x1="2264.23" y1="4567.01" x2="2163.78" y2="3457.81">
  </linearGradient>
  <linearGradient id="id38" gradientUnits="userSpaceOnUse" xlink:href="#id36" x1="9163.22" y1="1517.74" x2="10203.78" y2="1120.69">
  </linearGradient>
  <linearGradient id="id39" gradientUnits="userSpaceOnUse" xlink:href="#id36" x1="3177.26" y1="1415.91" x2="2136.7" y2="1018.86">
  </linearGradient>
  <linearGradient id="id40" gradientUnits="userSpaceOnUse" xlink:href="#id36" x1="9166.97" y1="1415.68" x2="10207.53" y2="1018.63">
  </linearGradient>
  <linearGradient id="id41" gradientUnits="userSpaceOnUse" xlink:href="#id36" x1="1040.11" y1="5241.3" x2="538.16" y2="4247.09">
  </linearGradient>
  <linearGradient id="id42" gradientUnits="userSpaceOnUse" xlink:href="#id36" x1="1423.81" y1="1141.4" x2="383.25" y2="744.35">
  </linearGradient>
  <linearGradient id="id43" gradientUnits="userSpaceOnUse" xlink:href="#id36" x1="7393.48" y1="4382.99" x2="4701.45" y2="1017.94">
  </linearGradient>
  <linearGradient id="id44" gradientUnits="userSpaceOnUse" xlink:href="#id36" x1="11953.34" y1="4456.65" x2="10847.87" y2="4592.09">
  </linearGradient>
  <linearGradient id="id45" gradientUnits="userSpaceOnUse" xlink:href="#id36" x1="10916.67" y1="1243.23" x2="11957.23" y2="846.18">
  </linearGradient>
  <linearGradient id="id46" gradientUnits="userSpaceOnUse" xlink:href="#id36" x1="10826.3" y1="3079.59" x2="11496.84" y2="2177.09">
  </linearGradient>
  <linearGradient id="id47" gradientUnits="userSpaceOnUse" xlink:href="#id36" x1="1514.18" y1="2977.76" x2="843.64" y2="2075.26">
  </linearGradient>
 </defs>
 <g id="Capa_x0020_1">
  <metadata id="CorelCorpID_0Corel-Layer"/>
  <path class="fil0" d="M2810.36 757.84c94.74,36.81 183.73,43.71 210.89,169.73l-182.57 190.57 -116.32 -179.17 75.78 11.45 50.03 105.61 107.87 -59.28 -133.61 -164.96 -113.08 50.67 34.68 247.27c405.69,171.83 439.48,-452.32 66.33,-371.89z"/>
  <g id="_1859877667616">
   <path class="fil1 str0" d="M11808.11 547.51c-695.62,-561.51 -1529.34,463.27 -860.03,1016.73 281.84,233.04 718.14,209.91 947.2,-68.55 231.77,-281.78 206.07,-711.48 -87.17,-948.18zm57.33 -17.69c712.2,657.05 -269.59,1706.53 -977.58,1052.57 -694.93,-641.9 273.4,-1702.16 977.58,-1052.57z"/>
   <path class="fil0" d="M11283.57 585.16c-94.74,36.81 -183.73,43.71 -210.89,169.73l182.57 190.57 116.32 -179.17 -75.78 11.45 -50.03 105.61 -107.87 -59.28 133.61 -164.96 113.08 50.67 -34.68 247.27c-405.69,171.83 -439.48,-452.32 -66.33,-371.89z"/>
   <path class="fil0" d="M11612.49 1515.98c-44.18,11.16 -169.75,-11.6 -234.09,-39.27 -90.93,-39.11 -83.3,-101.83 -146.85,-170.46l-218.47 -45.2c-33.72,-27.17 -37.2,-52.46 -72.08,-87.69 -81.98,-82.78 -43.94,11.8 -74.98,-89.28 314.36,234.83 385.81,277.72 746.47,431.9z"/>
   <circle class="fil2" transform="matrix(-0.749702 -0.440818 -0.440818 0.749702 11381.4 1059.12)" r="787.4"/>
   <polygon class="fil3" points="11625.96,2001.72 10438.8,1303.68 11136.84,116.52 12324,814.56 "/>
   <g style="clip-path:url(#id0)">
    <g>
     <path id="1" class="fil4" style="mask:url(#id1)" d="M10739.99 819.26c-132.48,354.23 47.3,748.8 401.54,881.27 354.25,132.48 748.81,-47.31 881.27,-401.55 132.49,-354.23 -47.3,-748.8 -401.54,-881.27 -354.24,-132.49 -748.81,47.31 -881.27,401.55z"/>
    </g>
   </g>
   <polygon class="fil5" points="11625.96,2001.72 10438.8,1303.68 11136.84,116.52 12324,814.56 "/>
   <path class="fil0" d="M11895.3 1174.43c-24.73,-98.58 -20.49,-187.74 -142.13,-230.38l-211.83 157.4 163.27 137.73 -1.92 -76.62 -98.55 -62.79 72.26 -99.64 147.02 153.11 -64.36 105.89 -241.03 -65.21c-119.93,-423.95 503.56,-379.71 377.27,-19.49z"/>
   <g id="_552736696">
    <path id="_379496904" class="fil0" d="M11895.3 1174.43c-24.73,-98.58 -20.49,-187.74 -142.13,-230.38l-211.83 157.4 163.27 137.73 -1.92 -76.62 -98.55 -62.79 72.26 -99.64 147.02 153.11 -64.36 105.89 -241.03 -65.21c-119.93,-423.95 503.56,-379.71 377.27,-19.49z"/>
    <path id="_379496232" class="fil0" d="M11283.57 585.16c-94.74,36.81 -183.73,43.71 -210.89,169.73l182.57 190.57 116.32 -179.17 -75.78 11.45 -50.03 105.61 -107.87 -59.28 133.61 -164.96 113.08 50.67 -34.68 247.27c-405.69,171.83 -439.48,-452.32 -66.33,-371.89z"/>
   </g>
   <path class="fil0" d="M11612.49 1515.98c-44.18,11.16 -169.75,-11.6 -234.09,-39.27 -90.93,-39.11 -83.3,-101.83 -146.85,-170.46l-218.47 -45.2c-33.72,-27.17 -37.2,-52.46 -72.08,-87.69 -81.98,-82.78 -43.94,11.8 -74.98,-89.28 314.36,234.83 385.81,277.72 746.47,431.9z"/>
   <path class="fil0" d="M11795.04 563.17c-674.3,-544.32 -1482.51,449.11 -833.71,985.61 273.22,225.91 696.16,203.48 918.2,-66.44 224.69,-273.16 199.77,-689.72 -84.49,-919.17zm55.57 -17.14c690.4,636.93 -261.35,1654.29 -947.65,1020.35 -673.65,-622.24 265.04,-1650.06 947.65,-1020.35z"/>
  </g>
  <polygon class="fil6" points="9872.51,2276.23 8685.35,1578.19 9383.39,391.03 10570.55,1089.07 "/>
  <g style="clip-path:url(#id3)">
   <g id="_1859877667072">
    <path id="1" class="fil4" style="mask:url(#id4)" d="M8986.54 1093.77c-132.48,354.23 47.3,748.8 401.54,881.27 354.25,132.48 748.81,-47.31 881.27,-401.55 132.49,-354.23 -47.3,-748.8 -401.54,-881.27 -354.24,-132.49 -748.81,47.31 -881.27,401.55z"/>
   </g>
  </g>
  <polygon class="fil5" points="9872.51,2276.23 8685.35,1578.19 9383.39,391.03 10570.55,1089.07 "/>
  <g id="_1859877661728">
   <path class="fil1 str0" d="M532.37 445.68c695.62,-561.51 1529.34,463.27 860.03,1016.73 -281.84,233.04 -718.14,209.91 -947.2,-68.55 -231.77,-281.78 -206.07,-711.48 87.17,-948.18zm-57.33 -17.69c-712.2,657.05 269.59,1706.53 977.58,1052.57 694.93,-641.9 -273.4,-1702.16 -977.58,-1052.57z"/>
   <path class="fil0" d="M1056.91 483.33c94.74,36.81 183.73,43.71 210.89,169.73l-182.57 190.57 -116.32 -179.17 75.78 11.45 50.03 105.61 107.87 -59.28 -133.61 -164.96 -113.08 50.67 34.68 247.27c405.69,171.83 439.48,-452.32 66.33,-371.89z"/>
   <path class="fil0" d="M727.99 1414.15c44.18,11.16 169.75,-11.6 234.09,-39.27 90.93,-39.11 83.3,-101.83 146.85,-170.46l218.47 -45.2c33.72,-27.17 37.2,-52.46 72.08,-87.69 81.98,-82.78 43.94,11.8 74.98,-89.28 -314.36,234.83 -385.81,277.72 -746.47,431.9z"/>
   <circle class="fil2" transform="matrix(0.749702 -0.440818 0.440818 0.749702 959.086 957.29)" r="787.4"/>
   <polygon class="fil7" points="714.52,1899.89 1901.68,1201.85 1203.64,14.69 16.48,712.73 "/>
   <g style="clip-path:url(#id6)">
    <g>
     <path id="1" class="fil4" style="mask:url(#id7)" d="M1600.49 717.43c132.48,354.23 -47.3,748.8 -401.54,881.27 -354.25,132.48 -748.81,-47.31 -881.27,-401.55 -132.49,-354.23 47.3,-748.8 401.54,-881.27 354.24,-132.49 748.81,47.31 881.27,401.55z"/>
    </g>
   </g>
   <polygon class="fil5" points="714.52,1899.89 1901.68,1201.85 1203.64,14.69 16.48,712.73 "/>
   <path class="fil0" d="M445.18 1072.6c24.73,-98.58 20.49,-187.74 142.13,-230.38l211.83 157.4 -163.27 137.73 1.92 -76.62 98.55 -62.79 -72.26 -99.64 -147.02 153.11 64.36 105.89 241.03 -65.21c119.93,-423.95 -503.56,-379.71 -377.27,-19.49z"/>
   <g id="_552736696_0">
    <path id="_379496904_1" class="fil0" d="M445.18 1072.6c24.73,-98.58 20.49,-187.74 142.13,-230.38l211.83 157.4 -163.27 137.73 1.92 -76.62 98.55 -62.79 -72.26 -99.64 -147.02 153.11 64.36 105.89 241.03 -65.21c119.93,-423.95 -503.56,-379.71 -377.27,-19.49z"/>
    <path id="_379496232_2" class="fil0" d="M1056.91 483.33c94.74,36.81 183.73,43.71 210.89,169.73l-182.57 190.57 -116.32 -179.17 75.78 11.45 50.03 105.61 107.87 -59.28 -133.61 -164.96 -113.08 50.67 34.68 247.27c405.69,171.83 439.48,-452.32 66.33,-371.89z"/>
   </g>
   <path class="fil0" d="M727.99 1414.15c44.18,11.16 169.75,-11.6 234.09,-39.27 90.93,-39.11 83.3,-101.83 146.85,-170.46l218.47 -45.2c33.72,-27.17 37.2,-52.46 72.08,-87.69 81.98,-82.78 43.94,11.8 74.98,-89.28 -314.36,234.83 -385.81,277.72 -746.47,431.9z"/>
   <path class="fil0" d="M545.44 461.34c674.3,-544.32 1482.51,449.11 833.71,985.61 -273.22,225.91 -696.16,203.48 -918.2,-66.44 -224.69,-273.16 -199.77,-689.72 84.49,-919.17zm-55.57 -17.14c-690.4,636.93 261.35,1654.29 947.65,1020.35 673.65,-622.24 -265.04,-1650.06 -947.65,-1020.35z"/>
  </g>
  <path class="fil1 str0" d="M2285.82 720.19c695.62,-561.51 1529.34,463.27 860.03,1016.73 -281.84,233.04 -718.14,209.91 -947.2,-68.55 -231.77,-281.78 -206.07,-711.48 87.17,-948.18zm-57.33 -17.69c-712.2,657.05 269.59,1706.53 977.58,1052.57 694.93,-641.9 -273.4,-1702.16 -977.58,-1052.57z"/>
  <path class="fil1 str0" d="M2497.6 3460.57c810.02,378.22 255.67,1577.37 -535.55,1219.25 -333.17,-150.82 -504.05,-552.93 -354.53,-881.02 151.32,-332 548.63,-497.68 890.08,-338.23zm-9.3 -59.28c-903.12,-351.15 -1414.6,991.87 -516.1,1340.6 881.93,342.29 1409.01,-993.37 516.1,-1340.6z"/>
  <path class="fil1 str0" d="M849.52 4126.69c892.38,53.26 818.72,1372.29 -48.79,1330.79 -365.29,-17.49 -672.28,-328.38 -654.12,-688.48 18.39,-364.39 326.73,-664.77 702.91,-642.31zm-30.48 -51.68c-968.97,6.2 -949.79,1443.19 13.99,1436.44 946,-6.63 944.04,-1442.53 -13.99,-1436.44z"/>
  <path class="fil1 str0" d="M10451.7 4145.67c700.11,555.9 -117.41,1593.65 -803.91,1061.66 -289.06,-224.02 -361.96,-654.81 -140.37,-939.24 224.25,-287.82 649.16,-356.76 944.28,-122.42zm4.71 -59.81c-796.96,-551.17 -1606.18,636.46 -813.15,1184.2 778.4,537.64 1601.09,-639.22 813.15,-1184.2z"/>
  <path class="fil1 str0" d="M10836.92 4258.34c352.44,-821.55 1568.51,-305.36 1235.55,496.77 -140.21,337.77 -536.72,521.27 -869.37,382.19 -336.62,-140.76 -514.76,-532.63 -366.18,-878.96zm-58.95 11.17c-322.45,913.77 1036.05,1382.57 1356.23,473.5 314.26,-892.3 -1037.39,-1376.93 -1356.23,-473.5z"/>
  <path class="fil0" d="M2694.21 3948.32c8.55,101.28 41.44,184.25 -59.83,264.01l-251.4 -80.29 109.86 -183.2 23 73.1 -72.89 91.34 100.64 70.87 89.49 -192.5 -95.19 -79.33 -206.9 139.78c23.86,439.94 599.4,196.1 363.22,-103.78z"/>
  <path class="fil0" d="M1211.97 4507.72c45.25,91.02 106.4,156.04 41.63,267.49l-263.31 17.96 34.65 -210.79 48.32 59.49 -34.12 111.77 119.66 28.81 12.29 -211.92 -117.71 -38.69 -140.87 206.16c184.23,400.22 629.49,-38.47 299.46,-230.28z"/>
  <path class="fil0" d="M10529.74 4665.74c-15.19,100.5 -2.46,188.84 -119.47,242.92l-225.91 -136.45 149.38 -152.7 5.41 76.44 -92.1 71.93 81.45 92.29 131.72 -166.47 -74.18 -99.26 -233.69 87.94c-78.9,433.47 537.51,329.87 377.39,-16.64z"/>
  <path class="fil0" d="M11318.21 4046.42c100.97,-11.74 182.86,-47.23 265.77,51.47l-72.31 253.81 -186.58 -104.01 72.34 -25.31 93.6 69.98 67.65 -102.84 -195.22 -83.36 -76.29 97.65 146.25 202.38c438.96,-37.74 177.07,-605.29 -115.21,-359.77z"/>
  <path class="fil0" d="M2481.44 1688.66c44.18,11.16 169.75,-11.6 234.09,-39.27 90.93,-39.11 83.3,-101.83 146.85,-170.46l218.47 -45.2c33.72,-27.17 37.2,-52.46 72.08,-87.69 81.98,-82.78 43.94,11.8 74.98,-89.28 -314.36,234.83 -385.81,277.72 -746.47,431.9z"/>
  <path class="fil0" d="M1713.52 4061.75c9.39,44.59 85,147.4 138.12,193.04 75.08,64.51 128.06,30.1 217.64,57.04l136.58 176.4c39.22,18.36 63.47,10.38 110.44,26.23 110.38,37.28 8.71,44.66 113.14,28.13 -349.06,-179.24 -418.97,-224.58 -715.92,-480.84z"/>
  <path class="fil0" d="M342.02 4974.42c25.15,38 133.31,105.72 199.5,128.59 93.57,32.31 130.15,-19.19 223.35,-27.14l191.96 113.69c43.23,2.62 62.83,-13.73 112.34,-16.29 116.34,-6 24.54,38.31 115.55,-15.53 -390.54,-38.06 -472.24,-54.46 -842.7,-183.32z"/>
  <path class="fil0" d="M11462.57 5023.05c44.27,-10.79 144.64,-89.62 188.58,-144.15 62.1,-77.08 26.03,-128.95 50.13,-219.33l172 -142.09c17.12,-39.78 8.37,-63.77 22.73,-111.21 33.78,-111.5 44.36,-10.12 24.55,-113.98 -168.13,354.55 -211.24,425.86 -457.99,730.76z"/>
  <circle class="fil2" transform="matrix(0.749702 -0.440818 0.440818 0.749702 2712.54 1231.8)" r="787.4"/>
  <circle class="fil2" transform="matrix(0.72535 0.479833 -0.479833 0.72535 2225.46 4068.65)" r="787.4"/>
  <circle class="fil2" transform="matrix(0.851095 0.178913 -0.178913 0.851095 820.501 4792.26)" r="787.4"/>
  <circle class="fil2" transform="matrix(0.594176 0.635081 -0.635081 0.594176 10045.9 4673.99)" r="787.4"/>
  <circle class="fil2" transform="matrix(0.45668 -0.740146 0.740146 0.45668 11453.3 4511.14)" r="787.4"/>
  <polygon class="fil8" points="2467.97,2174.4 3655.13,1476.36 2957.09,289.2 1769.93,987.24 "/>
  <g style="clip-path:url(#id9)">
   <g id="_1859877655456">
    <path id="1" class="fil4" style="mask:url(#id10)" d="M3353.94 991.94c132.48,354.23 -47.3,748.8 -401.54,881.27 -354.25,132.48 -748.81,-47.31 -881.27,-401.55 -132.49,-354.23 47.3,-748.8 401.54,-881.27 354.24,-132.49 748.81,47.31 881.27,401.55z"/>
   </g>
  </g>
  <polygon class="fil5" points="2467.97,2174.4 3655.13,1476.36 2957.09,289.2 1769.93,987.24 "/>
  <polygon class="fil9" points="1271.25,4263.03 2419.85,5022.86 3179.67,3874.26 2031.07,3114.44 "/>
  <g style="clip-path:url(#id12)">
   <g id="_1859877655680">
    <path id="1" class="fil4" style="mask:url(#id13)" d="M2722.7 4539.48c-260.01,274.62 -693.45,286.45 -968.07,26.43 -274.63,-260.05 -286.46,-693.47 -26.41,-968.08 260.01,-274.64 693.45,-286.47 968.07,-26.43 274.64,260.02 286.45,693.47 26.41,968.08z"/>
   </g>
  </g>
  <polygon class="fil5" points="1271.25,4263.03 2419.85,5022.86 3179.67,3874.26 2031.07,3114.44 "/>
  <polygon class="fil10" points="4.98,5324.46 1352.7,5607.77 1636.01,4260.05 288.29,3976.74 "/>
  <g style="clip-path:url(#id15)">
   <g id="_1859877655168">
    <path id="1" class="fil4" style="mask:url(#id16)" d="M1456.21 5046.83c-140.57,351.08 -539.18,521.74 -890.27,381.16 -351.11,-140.61 -521.76,-539.2 -381.14,-890.29 140.56,-351.1 539.17,-521.76 890.26,-381.16 351.11,140.58 521.75,539.2 381.15,890.29z"/>
   </g>
  </g>
  <polygon class="fil5" points="4.98,5324.46 1352.7,5607.77 1636.01,4260.05 288.29,3976.74 "/>
  <polygon class="fil11" points="9076.73,4641.6 10017.61,5647.26 11023.27,4706.37 10082.39,3700.72 "/>
  <g style="clip-path:url(#id18)">
   <g id="_1859877653952">
    <path id="1" class="fil4" style="mask:url(#id19)" d="M10424.39 5247.37c-316.66,206.78 -741.01,117.68 -947.77,-198.98 -206.79,-316.68 -117.69,-741.02 198.99,-947.78 316.65,-206.79 741,-117.69 947.77,198.98 206.79,316.67 117.68,741.02 -198.99,947.78z"/>
   </g>
  </g>
  <polygon class="fil5" points="9076.73,4641.6 10017.61,5647.26 11023.27,4706.37 10082.39,3700.72 "/>
  <polygon class="fil12" points="11680.88,5458.74 12404.04,4286.71 11232.01,3563.55 10508.86,4735.58 "/>
  <g style="clip-path:url(#id21)">
   <g id="_1859877654944">
    <path id="1" class="fil4" style="mask:url(#id22)" d="M11911.34 3999.27c282.69,251.21 308.21,684.07 56.99,966.76 -251.24,282.72 -684.07,308.21 -966.77,56.99 -282.7,-251.2 -308.21,-684.07 -56.97,-966.75 251.2,-282.73 684.04,-308.23 966.75,-57z"/>
   </g>
  </g>
  <polygon class="fil5" points="11680.88,5458.74 12404.04,4286.71 11232.01,3563.55 10508.86,4735.58 "/>
  <path class="fil0" d="M2198.63 1347.11c24.73,-98.58 20.49,-187.74 142.13,-230.38l211.83 157.4 -163.27 137.73 1.92 -76.62 98.55 -62.79 -72.26 -99.64 -147.02 153.11 64.36 105.89 241.03 -65.21c119.93,-423.95 -503.56,-379.71 -377.27,-19.49z"/>
  <path class="fil0" d="M1896.11 3657.65c99.42,-21.09 177.66,-64.07 269.4,26.47l-48.34 259.44 -195.46 -86.17 69.68 -31.93 99.7 60.95 57.77 -108.69 -202.14 -64.81 -66.85 104.34 164.46 187.87c433.54,-78.5 119.91,-619.17 -148.22,-347.47z"/>
  <path class="fil0" d="M362.91 4531.47c84.67,-56.23 141.57,-125.01 260.22,-74.62l50.62 259.01 -213.46 -8.12 53.02 -55.35 115.14 19.93 13.67 -122.31 -211.79 14.2 -23.72 121.62 222.1 114.09c374.14,-232.68 -116.6,-619.81 -265.8,-268.45z"/>
  <path class="fil0" d="M11057.75 4853.32c-24.22,-98.72 -69.65,-175.55 17.95,-270.11l260.84 40.12 -79.95 198.08 -34.12 -68.63 57.76 -101.58 -110.45 -54.3 -58.39 204.08 106.39 63.52 182.59 -170.31c-92.16,-430.85 -622.65,-100.29 -342.62,159.13z"/>
  <g id="_552736696_3">
   <path id="_379496904_4" class="fil0" d="M2198.63 1347.11c24.73,-98.58 20.49,-187.74 142.13,-230.38l211.83 157.4 -163.27 137.73 1.92 -76.62 98.55 -62.79 -72.26 -99.64 -147.02 153.11 64.36 105.89 241.03 -65.21c119.93,-423.95 -503.56,-379.71 -377.27,-19.49z"/>
   <path id="_379496232_5" class="fil0" d="M2810.36 757.84c94.74,36.81 183.73,43.71 210.89,169.73l-182.57 190.57 -116.32 -179.17 75.78 11.45 50.03 105.61 107.87 -59.28 -133.61 -164.96 -113.08 50.67 34.68 247.27c405.69,171.83 439.48,-452.32 66.33,-371.89z"/>
  </g>
  <g id="_552736696_6">
   <path id="_379496904_7" class="fil0" d="M1896.11 3657.65c99.42,-21.09 177.66,-64.07 269.4,26.47l-48.34 259.44 -195.46 -86.17 69.68 -31.93 99.7 60.95 57.77 -108.69 -202.14 -64.81 -66.85 104.34 164.46 187.87c433.54,-78.5 119.91,-619.17 -148.22,-347.47z"/>
   <path id="_379496232_8" class="fil0" d="M2694.21 3948.32c8.55,101.28 41.44,184.25 -59.83,264.01l-251.4 -80.29 109.86 -183.2 23 73.1 -72.89 91.34 100.64 70.87 89.49 -192.5 -95.19 -79.33 -206.9 139.78c23.86,439.94 599.4,196.1 363.22,-103.78z"/>
  </g>
  <g id="_552736696_9">
   <path id="_379496904_10" class="fil0" d="M362.91 4531.47c84.67,-56.23 141.57,-125.01 260.22,-74.62l50.62 259.01 -213.46 -8.12 53.02 -55.35 115.14 19.93 13.67 -122.31 -211.79 14.2 -23.72 121.62 222.1 114.09c374.14,-232.68 -116.6,-619.81 -265.8,-268.45z"/>
   <path id="_379496232_11" class="fil0" d="M1211.97 4507.72c45.25,91.02 106.4,156.04 41.63,267.49l-263.31 17.96 34.65 -210.79 48.32 59.49 -34.12 111.77 119.66 28.81 12.29 -211.92 -117.71 -38.69 -140.87 206.16c184.23,400.22 629.49,-38.47 299.46,-230.28z"/>
  </g>
  <g id="_552736696_12">
   <path id="_379496904_13" class="fil0" d="M9820.89 4197.77c101.61,2.56 187.68,-21.09 255.91,88.28l-107.24 241.14 -170.12 -129.19 75.18 -14.88 82.84 82.42 81.41 -92.31 -181.57 -109.95 -89.24 85.96 116.36 220.92c439.92,24.27 260.34,-574.44 -63.53,-372.39z"/>
   <path id="_379496232_14" class="fil0" d="M10529.74 4665.74c-15.19,100.5 -2.46,188.84 -119.47,242.92l-225.91 -136.45 149.38 -152.7 5.41 76.44 -92.1 71.93 81.45 92.29 131.72 -166.47 -74.18 -99.26 -233.69 87.94c-78.9,433.47 537.51,329.87 377.39,-16.64z"/>
  </g>
  <g id="_552736696_15">
   <path id="_379496904_16" class="fil0" d="M11052.9 4853.32c-24.22,-98.72 -69.65,-175.55 17.95,-270.11l260.84 40.12 -79.95 198.08 -34.12 -68.63 57.76 -101.58 -110.45 -54.3 -58.39 204.08 106.39 63.52 182.59 -170.31c-92.16,-430.85 -622.65,-100.29 -342.62,159.13z"/>
   <path id="_379496232_17" class="fil0" d="M11318.21 4046.42c100.97,-11.74 182.86,-47.23 265.77,51.47l-72.31 253.81 -186.58 -104.01 72.34 -25.31 93.6 69.98 67.65 -102.84 -195.22 -83.36 -76.29 97.65 146.25 202.38c438.96,-37.74 177.07,-605.29 -115.21,-359.77z"/>
  </g>
  <path class="fil0" d="M2481.44 1688.66c44.18,11.16 169.75,-11.6 234.09,-39.27 90.93,-39.11 83.3,-101.83 146.85,-170.46l218.47 -45.2c33.72,-27.17 37.2,-52.46 72.08,-87.69 81.98,-82.78 43.94,11.8 74.98,-89.28 -314.36,234.83 -385.81,277.72 -746.47,431.9z"/>
  <path class="fil0" d="M1713.52 4061.75c9.39,44.59 85,147.4 138.12,193.04 75.08,64.51 128.06,30.1 217.64,57.04l136.58 176.4c39.22,18.36 63.47,10.38 110.44,26.23 110.38,37.28 8.71,44.66 113.14,28.13 -349.06,-179.24 -418.97,-224.58 -715.92,-480.84z"/>
  <path class="fil0" d="M342.02 4974.42c25.15,38 133.31,105.72 199.5,128.59 93.57,32.31 130.15,-19.19 223.35,-27.14l191.96 113.69c43.23,2.62 62.83,-13.73 112.34,-16.29 116.34,-6 24.54,38.31 115.55,-15.53 -390.54,-38.06 -472.24,-54.46 -842.7,-183.32z"/>
  <path class="fil0" d="M11462.57 5023.05c44.27,-10.79 144.64,-89.62 188.58,-144.15 62.1,-77.08 26.03,-128.95 50.13,-219.33l172 -142.09c17.12,-39.78 8.37,-63.77 22.73,-111.21 33.78,-111.5 44.36,-10.12 24.55,-113.98 -168.13,354.55 -211.24,425.86 -457.99,730.76z"/>
  <path class="fil0" d="M2298.89 735.85c674.3,-544.32 1482.51,449.11 833.71,985.61 -273.22,225.91 -696.16,203.48 -918.2,-66.44 -224.69,-273.16 -199.77,-689.72 84.49,-919.17zm-55.57 -17.14c-690.4,636.93 261.35,1654.29 947.65,1020.35 673.65,-622.24 -265.04,-1650.06 -947.65,-1020.35z"/>
  <path class="fil0" d="M2489.27 3479.18c785.21,366.64 247.83,1529.1 -519.16,1181.94 -322.97,-146.2 -488.62,-536 -343.68,-854.04 146.69,-321.85 531.84,-482.46 862.84,-327.9zm-9.01 -57.45c-875.47,-340.4 -1371.3,961.52 -500.31,1299.56 854.91,331.81 1365.87,-962.97 500.31,-1299.56z"/>
  <path class="fil0" d="M848.63 4147.07c865.05,51.62 793.64,1330.29 -47.29,1290.06 -354.11,-16.96 -651.7,-318.33 -634.1,-667.4 17.82,-353.25 316.73,-644.44 681.39,-622.66zm-29.54 -50.1c-939.3,6.01 -920.7,1399.03 13.56,1392.47 917.03,-6.43 915.13,-1398.38 -13.56,-1392.47z"/>
  <path class="fil0" d="M10439.28 4161.85c678.67,538.86 -113.84,1544.86 -779.31,1029.17 -280.21,-217.17 -350.87,-634.77 -136.07,-910.49 217.38,-279.01 629.29,-345.85 915.38,-118.68zm4.57 -57.98c-772.56,-534.29 -1557.02,617 -788.28,1147.95 754.57,521.18 1552.09,-619.66 788.28,-1147.95z"/>
  <path class="fil0" d="M10855.79 4266.09c341.64,-796.4 1520.5,-296.01 1197.75,481.56 -135.93,327.42 -520.3,505.31 -842.77,370.49 -326.31,-136.45 -499.01,-516.33 -354.98,-852.05zm-57.14 10.82c-312.58,885.79 1004.36,1340.24 1314.71,459.01 304.64,-864.98 -1005.64,-1334.78 -1314.71,-459.01z"/>
  <g id="_1859877639584">
   <path class="fil1 str0" d="M1132.62 1901.87c896.83,-100.72 1050.74,1224.02 180.68,1332.15 -366.38,45.53 -725.29,-210.85 -769.25,-572.17 -44.47,-365.64 210.51,-717.53 588.57,-759.98zm-39.22 -46.16c-962.78,173.06 -696.2,1599.15 261.32,1426.44 939.86,-169.53 690.59,-1597.51 -261.32,-1426.44z"/>
   <path class="fil0" d="M1558.78 2218.46c60.69,82.74 132.71,136.89 87.48,258.91l-258.82 63.21 -1.84 -215.64 58.31 50.85 -14.7 117.06 124 8.04 -24.27 -212.92 -123.76 -18.21 -104.61 229.34c252.19,366.37 619.53,-146.69 258.21,-280.64z"/>
   <path class="fil0" d="M773.81 2832.52c31.56,33.47 150.82,82.21 220.6,93.55 98.64,16.03 126.15,-41.51 217.49,-65.46l210.53 80.02c43.44,-4.83 60.13,-24.48 108.93,-35.55 114.7,-26 31.01,33.88 112.27,-35.34 -395.03,29.4 -479.12,27.16 -869.82,-37.22z"/>
   <circle class="fil2" transform="matrix(0.87741 0.0313794 -0.0313794 0.87741 1218.39 2568.92)" r="787.4"/>
   <polygon class="fil13" points="498.84,3238.76 1888.23,3288.45 1937.92,1899.07 548.53,1849.38 "/>
   <g style="clip-path:url(#id24)">
    <g>
     <path id="1" class="fil4" style="mask:url(#id25)" d="M1894.6 2712.64c-79.37,373.45 -446.48,611.86 -819.93,532.49 -373.47,-79.37 -611.86,-446.49 -532.49,-819.93 79.37,-373.46 446.48,-611.86 819.93,-532.49 373.47,79.37 611.86,446.49 532.49,819.93z"/>
    </g>
   </g>
   <polygon class="fil5" points="498.84,3238.76 1888.23,3288.45 1937.92,1899.07 548.53,1849.38 "/>
   <path class="fil0" d="M718.3 2388.32c74.54,-70.51 119.29,-148.73 245.99,-119.05l94.96 248.92 -213.72 28.7 43.2 -64.19 117.97 -0.01 -7.47 -124.02 -208.23 50.6 -2.65 125.06 240.58 75.24c332.09,-295.89 -222.74,-596.45 -310.63,-221.25z"/>
   <g id="_552736696_18">
    <path id="_379496904_19" class="fil0" d="M718.3 2388.32c74.54,-70.51 119.29,-148.73 245.99,-119.05l94.96 248.92 -213.72 28.7 43.2 -64.19 117.97 -0.01 -7.47 -124.02 -208.23 50.6 -2.65 125.06 240.58 75.24c332.09,-295.89 -222.74,-596.45 -310.63,-221.25z"/>
    <path id="_379496232_20" class="fil0" d="M1558.78 2218.46c60.69,82.74 132.71,136.89 87.48,258.91l-258.82 63.21 -1.84 -215.64 58.31 50.85 -14.7 117.06 124 8.04 -24.27 -212.92 -123.76 -18.21 -104.61 229.34c252.19,366.37 619.53,-146.69 258.21,-280.64z"/>
   </g>
   <path class="fil0" d="M773.81 2832.52c31.56,33.47 150.82,82.21 220.6,93.55 98.64,16.03 126.15,-41.51 217.49,-65.46l210.53 80.02c43.44,-4.83 60.13,-24.48 108.93,-35.55 114.7,-26 31.01,33.88 112.27,-35.34 -395.03,29.4 -479.12,27.16 -869.82,-37.22z"/>
   <path class="fil0" d="M1135.25 1922.29c869.36,-97.64 1018.56,1186.57 175.15,1291.39 -355.16,44.12 -703.08,-204.4 -745.7,-554.66 -43.11,-354.45 204.06,-695.58 570.55,-736.73zm-38.02 -44.74c-933.3,167.76 -674.87,1550.21 253.32,1382.77 911.07,-164.34 669.44,-1548.6 -253.32,-1382.77z"/>
  </g>
  <g id="_1859877636960">
   <path class="fil1 str0" d="M11207.86 2003.7c-896.83,-100.72 -1050.74,1224.02 -180.68,1332.15 366.38,45.53 725.29,-210.85 769.25,-572.17 44.47,-365.64 -210.51,-717.53 -588.57,-759.98zm39.22 -46.16c962.78,173.06 696.2,1599.15 -261.32,1426.44 -939.86,-169.53 -690.59,-1597.51 261.32,-1426.44z"/>
   <path class="fil0" d="M10781.7 2320.29c-60.69,82.74 -132.71,136.89 -87.48,258.91l258.82 63.21 1.84 -215.64 -58.31 50.85 14.7 117.06 -124 8.04 24.27 -212.92 123.76 -18.21 104.61 229.34c-252.19,366.37 -619.53,-146.69 -258.21,-280.64z"/>
   <path class="fil0" d="M11566.67 2934.35c-31.56,33.47 -150.82,82.21 -220.6,93.55 -98.64,16.03 -126.15,-41.51 -217.49,-65.46l-210.53 80.02c-43.44,-4.83 -60.13,-24.48 -108.93,-35.55 -114.7,-26 -31.01,33.88 -112.27,-35.34 395.03,29.4 479.12,27.16 869.82,-37.22z"/>
   <circle class="fil2" transform="matrix(-0.87741 0.0313794 0.0313794 0.87741 11122.1 2670.75)" r="787.4"/>
   <polygon class="fil14" points="11841.64,3340.59 10452.25,3390.28 10402.56,2000.9 11791.95,1951.21 "/>
   <g style="clip-path:url(#id27)">
    <g>
     <path id="1" class="fil4" style="mask:url(#id28)" d="M10445.88 2814.47c79.37,373.45 446.48,611.86 819.93,532.49 373.47,-79.37 611.86,-446.49 532.49,-819.93 -79.37,-373.46 -446.48,-611.86 -819.93,-532.49 -373.47,79.37 -611.86,446.49 -532.49,819.93z"/>
    </g>
   </g>
   <polygon class="fil5" points="11841.64,3340.59 10452.25,3390.28 10402.56,2000.9 11791.95,1951.21 "/>
   <path class="fil0" d="M11622.18 2490.15c-74.54,-70.51 -119.29,-148.73 -245.99,-119.05l-94.96 248.92 213.72 28.7 -43.2 -64.19 -117.97 -0.01 7.47 -124.02 208.23 50.6 2.65 125.06 -240.58 75.24c-332.09,-295.89 222.74,-596.45 310.63,-221.25z"/>
   <g id="_552736696_21">
    <path id="_379496904_22" class="fil0" d="M11622.18 2490.15c-74.54,-70.51 -119.29,-148.73 -245.99,-119.05l-94.96 248.92 213.72 28.7 -43.2 -64.19 -117.97 -0.01 7.47 -124.02 208.23 50.6 2.65 125.06 -240.58 75.24c-332.09,-295.89 222.74,-596.45 310.63,-221.25z"/>
    <path id="_379496232_23" class="fil0" d="M10781.7 2320.29c-60.69,82.74 -132.71,136.89 -87.48,258.91l258.82 63.21 1.84 -215.64 -58.31 50.85 14.7 117.06 -124 8.04 24.27 -212.92 123.76 -18.21 104.61 229.34c-252.19,366.37 -619.53,-146.69 -258.21,-280.64z"/>
   </g>
   <path class="fil0" d="M11566.67 2934.35c-31.56,33.47 -150.82,82.21 -220.6,93.55 -98.64,16.03 -126.15,-41.51 -217.49,-65.46l-210.53 80.02c-43.44,-4.83 -60.13,-24.48 -108.93,-35.55 -114.7,-26 -31.01,33.88 -112.27,-35.34 395.03,29.4 479.12,27.16 869.82,-37.22z"/>
   <path class="fil0" d="M11205.23 2024.12c-869.36,-97.64 -1018.56,1186.57 -175.15,1291.39 355.16,44.12 703.08,-204.4 745.7,-554.66 43.11,-354.45 -204.06,-695.58 -570.55,-736.73zm38.02 -44.74c933.3,167.76 674.87,1550.21 -253.32,1382.77 -911.07,-164.34 -669.44,-1548.6 253.32,-1382.77z"/>
  </g>
  <path class="fil0" d="M9549.5 4548.46c-1.22,45.55 48.47,163.1 89.54,219.82 58.06,80.18 117.59,59 198.46,106l91.91 203.28c33.89,26.97 59.33,24.83 101.34,51.15 98.71,61.88 -1.9,45.46 103.52,53.63 -297.93,-255.36 -355.41,-315.69 -584.77,-633.88z"/>
  <path class="fil0" d="M9820.89 4197.77c101.61,2.56 187.68,-21.09 255.91,88.28l-107.24 241.14 -170.12 -129.19 75.18 -14.88 82.84 82.42 81.41 -92.31 -181.57 -109.95 -89.24 85.96 116.36 220.92c439.92,24.27 260.34,-574.44 -63.53,-372.39z"/>
  <path class="fil0" d="M9549.5 4548.46c-1.22,45.55 48.47,163.1 89.54,219.82 58.06,80.18 117.59,59 198.46,106l91.91 203.28c33.89,26.97 59.33,24.83 101.34,51.15 98.71,61.88 -1.9,45.46 103.52,53.63 -297.93,-255.36 -355.41,-315.69 -584.77,-633.88z"/>
  <g id="_1859877631296">
   <path class="fil1 str0" d="M10058.41 719.96c-695.62,-561.51 -1529.34,463.27 -860.03,1016.73 281.84,233.04 718.14,209.91 947.2,-68.55 231.77,-281.78 206.07,-711.48 -87.17,-948.18zm57.33 -17.69c712.2,657.05 -269.59,1706.53 -977.58,1052.57 -694.93,-641.9 273.4,-1702.16 977.58,-1052.57z"/>
   <path class="fil0" d="M9533.87 757.61c-94.74,36.81 -183.73,43.71 -210.89,169.73l182.57 190.57 116.32 -179.17 -75.78 11.45 -50.03 105.61 -107.87 -59.28 133.61 -164.96 113.08 50.67 -34.68 247.27c-405.69,171.83 -439.48,-452.32 -66.33,-371.89z"/>
   <path class="fil0" d="M9862.79 1688.43c-44.18,11.16 -169.75,-11.6 -234.09,-39.27 -90.93,-39.11 -83.3,-101.83 -146.85,-170.46l-218.47 -45.2c-33.72,-27.17 -37.2,-52.46 -72.08,-87.69 -81.98,-82.78 -43.94,11.8 -74.98,-89.28 314.36,234.83 385.81,277.72 746.47,431.9z"/>
   <circle class="fil2" transform="matrix(-0.749702 -0.440818 -0.440818 0.749702 9631.69 1231.57)" r="787.4"/>
   <polygon class="fil15" points="9876.26,2174.17 8689.1,1476.13 9387.14,288.97 10574.3,987.01 "/>
   <g style="clip-path:url(#id30)">
    <g>
     <path id="1" class="fil4" style="mask:url(#id31)" d="M8990.29 991.71c-132.48,354.23 47.3,748.8 401.54,881.27 354.25,132.48 748.81,-47.31 881.27,-401.55 132.49,-354.23 -47.3,-748.8 -401.54,-881.27 -354.24,-132.49 -748.81,47.31 -881.27,401.55z"/>
    </g>
   </g>
   <polygon class="fil5" points="9876.26,2174.17 8689.1,1476.13 9387.14,288.97 10574.3,987.01 "/>
   <path class="fil0" d="M10145.6 1346.88c-24.73,-98.58 -20.49,-187.74 -142.13,-230.38l-211.83 157.4 163.27 137.73 -1.92 -76.62 -98.55 -62.79 72.26 -99.64 147.02 153.11 -64.36 105.89 -241.03 -65.21c-119.93,-423.95 503.56,-379.71 377.27,-19.49z"/>
   <g id="_552736696_24">
    <path id="_379496904_25" class="fil0" d="M10145.6 1346.88c-24.73,-98.58 -20.49,-187.74 -142.13,-230.38l-211.83 157.4 163.27 137.73 -1.92 -76.62 -98.55 -62.79 72.26 -99.64 147.02 153.11 -64.36 105.89 -241.03 -65.21c-119.93,-423.95 503.56,-379.71 377.27,-19.49z"/>
    <path id="_379496232_26" class="fil0" d="M9533.87 757.61c-94.74,36.81 -183.73,43.71 -210.89,169.73l182.57 190.57 116.32 -179.17 -75.78 11.45 -50.03 105.61 -107.87 -59.28 133.61 -164.96 113.08 50.67 -34.68 247.27c-405.69,171.83 -439.48,-452.32 -66.33,-371.89z"/>
   </g>
   <path class="fil0" d="M9862.79 1688.43c-44.18,11.16 -169.75,-11.6 -234.09,-39.27 -90.93,-39.11 -83.3,-101.83 -146.85,-170.46l-218.47 -45.2c-33.72,-27.17 -37.2,-52.46 -72.08,-87.69 -81.98,-82.78 -43.94,11.8 -74.98,-89.28 314.36,234.83 385.81,277.72 746.47,431.9z"/>
   <path class="fil0" d="M10045.34 735.62c-674.3,-544.32 -1482.51,449.11 -833.71,985.61 273.22,225.91 696.16,203.48 918.2,-66.44 224.69,-273.16 199.77,-689.72 -84.49,-919.17zm55.57 -17.14c690.4,636.93 -261.35,1654.29 -947.65,1020.35 -673.65,-622.24 265.04,-1650.06 947.65,-1020.35z"/>
  </g>
  <polygon class="fil16 str1" points="0.01,-0.01 12408.93,-0.01 12408.93,5714.99 0.01,5714.99 "/>
  <g id="_1859877627360">
   <path class="fil1 str0" d="M5784.6 314.2c3421.38,-508.63 4192.39,4544.51 874.55,5077.87 -1397.11,224.55 -2806.97,-708.28 -3024.86,-2086.25 -220.42,-1394.42 708.04,-2777.23 2150.31,-2991.62zm-156.54 -171.41c-3664.06,794.76 -2447.62,6220.64 1196.35,5427.93 3576.74,-778.1 2426.36,-6213.58 -1196.35,-5427.93z"/>
   <path class="fil0" d="M7460.31 1468.49c243.8,308.61 527.07,506.14 370.53,979.71l-982.7 277.59 -36.58 -825.73 230.3 186.8 -40.24 450.38 476.06 13.83 -122.16 -812.23 -476.53 -52.8 -369.28 892.76c1016.15,1368.78 2352.93,-646.73 950.6,-1110.31z"/>
   <path class="fil0" d="M4537.71 3928.09c125.48,123.87 588.95,294.21 857.79,328.1 380.02,47.88 477.54,-176.26 824.11,-280.55l817.34 277.69c165.77,-24.47 226.98,-102 412.39,-151.09 435.78,-115.32 123.43,125.51 425.18,-150.76 -1509.07,166.74 -1831.48,169.67 -3336.81,-23.39z"/>
   <circle class="fil2" cx="6204.5" cy="2857.49" r="2649.66"/>
   <polygon class="fil17" points="3540.17,5521.79 8868.8,5521.79 8868.8,193.16 3540.17,193.16 "/>
   <g style="clip-path:url(#id33)">
    <g>
     <path id="1" class="fil4" style="mask:url(#id34)" d="M8814.28 3315.36c-252.85,1441.34 -1626.31,2404.81 -3067.65,2151.91 -1441.38,-252.85 -2404.8,-1626.35 -2151.92,-3067.64 252.86,-1441.34 1626.32,-2404.8 3067.66,-2151.92 1441.38,252.86 2404.8,1626.36 2151.91,3067.65z"/>
    </g>
   </g>
   <polygon class="fil5" points="3540.17,5521.79 8868.8,5521.79 8868.8,193.16 3540.17,193.16 "/>
   <path class="fil0" d="M4264.26 2234.25c275.84,-280.31 436.55,-586.03 925.9,-489.69l397.86 940.44 -814.72 139.18 156.68 -251.77 451.86 -16.19 -45.6 -474.04 -790.66 222.37 7 479.38 931.79 255.21c1231.49,-1178.82 -934.85,-2254.06 -1220.11,-804.89z"/>
   <g id="_552736696_27">
    <path id="_379496904_28" class="fil0" d="M4264.26 2234.25c275.84,-280.31 436.55,-586.03 925.9,-489.69l397.86 940.44 -814.72 139.18 156.68 -251.77 451.86 -16.19 -45.6 -474.04 -790.66 222.37 7 479.38 931.79 255.21c1231.49,-1178.82 -934.85,-2254.06 -1220.11,-804.89z"/>
    <path id="_379496232_29" class="fil0" d="M7460.31 1468.49c243.8,308.61 527.07,506.14 370.53,979.71l-982.7 277.59 -36.58 -825.73 230.3 186.8 -40.24 450.38 476.06 13.83 -122.16 -812.23 -476.53 -52.8 -369.28 892.76c1016.15,1368.78 2352.93,-646.73 950.6,-1110.31z"/>
   </g>
   <path class="fil0" d="M4537.71 3928.09c125.48,123.87 588.95,294.21 857.79,328.1 380.02,47.88 477.54,-176.26 824.11,-280.55l817.34 277.69c165.77,-24.47 226.98,-102 412.39,-151.09 435.78,-115.32 123.43,125.51 425.18,-150.76 -1509.07,166.74 -1831.48,169.67 -3336.81,-23.39z"/>
   <path class="fil0" d="M5797.46 392.07c3316.59,-493.08 4064,4405.43 847.8,4922.47 -1354.35,217.65 -2721.04,-686.61 -2932.26,-2022.38 -213.69,-1351.75 686.34,-2692.26 2084.46,-2900.09zm-151.73 -166.17c-3551.87,770.44 -2372.65,6030.29 1159.7,5261.81 3467.21,-754.29 2352.06,-6023.39 -1159.7,-5261.81z"/>
  </g>
  <g id="_1859877627200">
   <path id="_379231792" class="fil18" d="M10209.78 2784.44c0,8.93 -3.17,16.54 -9.5,22.86 -6.33,6.34 -13.93,9.51 -22.86,9.51 -8.8,0 -16.4,-3.17 -22.73,-9.51 -6.33,-6.32 -9.43,-13.93 -9.43,-22.86 0,-8.94 3.1,-16.6 9.36,-22.87 6.26,-6.32 13.86,-9.49 22.8,-9.49 8.93,0 16.53,3.17 22.86,9.49 6.33,6.27 9.5,13.93 9.5,22.87zm-171.32 0c0,8.93 -3.1,16.54 -9.36,22.86 -6.26,6.34 -13.86,9.51 -22.8,9.51 -8.93,0 -16.52,-3.17 -22.86,-9.51 -6.33,-6.32 -9.5,-13.93 -9.5,-22.86 0,-8.94 3.17,-16.6 9.5,-22.87 6.34,-6.32 13.93,-9.49 22.86,-9.49 8.94,0 16.54,3.17 22.8,9.49 6.26,6.27 9.36,13.93 9.36,22.87zm50.3 276.22c-33.98,0 -61.28,-7.81 -82.03,-23.29 -20.76,-15.55 -31.17,-36.59 -31.17,-63.11 0,-27.09 8.58,-48.33 25.75,-63.89l-107.35 0 0 -38.12 308.78 0 0 34.82 -24.69 1.9c19.21,15.48 28.84,37.08 28.84,64.66 0,26.81 -10.13,48.05 -30.32,63.6 -20.19,15.62 -48.27,23.43 -84.29,23.43l-3.52 0zm4.29 -38.13c25.2,0 45.04,-5.35 59.6,-16.11 14.56,-10.7 21.88,-25.4 21.88,-44.12 0,-23.08 -10.27,-40.38 -30.75,-51.93l-106.59 0c-20.33,11.4 -30.53,28.85 -30.53,52.35 0,18.3 7.25,32.79 21.74,43.62 14.49,10.77 36.09,16.19 64.65,16.19z"/>
   <path id="_379203352" class="fil18" d="M9124.24 2740.43l56.28 0 0 310.82 -56.28 0 0 -310.82zm272.89 86.54l56.07 0 0 224.28 -56.07 0 0 -23.71c-10.97,10.49 -22.01,17.94 -33.06,22.59 -11.12,4.57 -23.08,6.89 -36.02,6.89 -28.99,0 -54.03,-11.26 -75.21,-33.7 -21.17,-22.44 -31.73,-50.37 -31.73,-83.79 0,-34.61 10.2,-62.96 30.68,-85.13 20.47,-22.09 45.38,-33.2 74.64,-33.2 13.44,0 26.1,2.6 37.92,7.67 11.82,5.07 22.73,12.73 32.78,22.86l0 -24.76zm-59.16 46.22c-17.45,0 -31.95,6.12 -43.48,18.43 -11.54,12.32 -17.31,28.07 -17.31,47.28 0,19.42 5.85,35.32 17.59,47.84 11.75,12.52 26.25,18.78 43.41,18.78 17.72,0 32.43,-6.19 44.11,-18.5 11.68,-12.24 17.52,-28.35 17.52,-48.33 0,-19.49 -5.84,-35.32 -17.52,-47.35 -11.68,-12.1 -26.45,-18.15 -44.32,-18.15zm171.65 -46.22l56.5 0 0 25.82c9.64,-10.62 20.33,-18.51 32.08,-23.71 11.75,-5.21 24.55,-7.88 38.41,-7.88 14,0 26.66,3.44 37.92,10.34 11.26,6.9 20.33,16.88 27.22,30.11 8.94,-13.23 19.92,-23.21 32.86,-30.11 13.02,-6.9 27.16,-10.34 42.56,-10.34 15.97,0 29.98,3.73 42.08,11.19 12.09,7.38 20.75,17.09 26.02,29.05 5.35,11.96 7.95,31.38 7.95,58.32l0 131.49 -56.63 0 0 -113.76c0,-25.47 -3.16,-42.63 -9.5,-51.64 -6.33,-9 -15.83,-13.51 -28.42,-13.51 -9.63,0 -18.29,2.75 -25.89,8.24 -7.67,5.49 -13.29,13.08 -17.02,22.79 -3.73,9.71 -5.56,25.26 -5.56,46.72l0 101.16 -56.7 0 0 -108.62c0,-20.05 -1.48,-34.62 -4.44,-43.62 -2.95,-9 -7.39,-15.69 -13.29,-20.05 -5.91,-4.44 -13.02,-6.62 -21.39,-6.62 -9.35,0 -17.87,2.82 -25.46,8.38 -7.61,5.56 -13.37,13.36 -17.1,23.35 -3.8,10.07 -5.7,25.82 -5.7,47.42l0 99.76 -56.5 0 0 -224.28z"/>
  </g>
 </g>
</svg>
