<?xml version="1.0" encoding="UTF-8"?>
<!DOCTYPE svg PUBLIC "-//W3C//DTD SVG 1.1//EN" "http://www.w3.org/Graphics/SVG/1.1/DTD/svg11.dtd">
<!-- Creator: CorelDRAW 2017 -->
<svg xmlns="http://www.w3.org/2000/svg" xml:space="preserve" width="4.2332mm" height="4.2332mm" version="1.1" style="shape-rendering:geometricPrecision; text-rendering:geometricPrecision; image-rendering:optimizeQuality; fill-rule:evenodd; clip-rule:evenodd"
viewBox="0 0 423.32 423.32"
 xmlns:xlink="http://www.w3.org/1999/xlink">
 <defs>
  <style type="text/css">
   <![CDATA[
    .fil0 {fill:none}
    .fil1 {fill:black}
    .fil3 {fill:#382E72}
    .fil2 {fill:red}
   ]]>
  </style>
 </defs>
 <g id="Capa_x0020_1">
  <metadata id="CorelCorpID_0Corel-Layer"/>
  <rect class="fil0" x="-0" y="-0" width="423.33" height="423.33"/>
  <rect class="fil0" x="-0" y="-0" width="423.33" height="423.33"/>
  <rect class="fil0" x="-0" y="-0" width="423.33" height="423.33"/>
  <g id="_2247626870432">
   <path class="fil1" d="M113.56 362.97c-14.67,3.1 -17.88,-0.96 -18.01,12.22 7.4,2.72 14.22,0.18 24.11,-0.28 4.15,6.97 9.47,11.37 18.54,16.96 -0.25,9.62 -6.46,17.24 2.4,18.98 8.65,1.7 6.53,-6.63 10.38,-14.19 12.87,0 22.41,-3.52 31.63,-2.82 10.5,0.78 19.97,2.86 31.91,3.09 0.26,10.7 -5.26,11.48 1.39,19.36 10.47,-0.85 8.71,-9.24 12.57,-19.17l32.38 -2.63c-1.68,10.84 -5.52,11.47 -1.37,20.61 18.45,0.32 7.24,-16.29 14.88,-23.5l20.87 -9.05c-0.19,10.8 -6.2,11.33 1.34,18.94 15.95,-1.2 3.85,-14.74 17.64,-37.97 20.82,-35.08 -8.95,-83.5 -66.8,-95.56 -46.39,-9.68 -104.46,7.65 -121.73,47.6 -4.54,10.5 -3.27,13.74 -5.27,24.87 -1.87,10.39 -5.64,6.66 -6.86,22.54z"/>
   <path class="fil2" d="M148.47 338.65c7.22,6.19 38.87,11.94 35.52,45.26 37.04,-0.47 110.1,-9.04 127.66,-44.49 9.48,-19.12 -21.6,-75.66 -101,-53.91 -28.55,7.83 -54.69,26.34 -62.18,53.14z"/>
   <path class="fil2" d="M199.98 281.13c-32.24,-3.49 -15.85,-7.2 -50.69,13.24 15.36,18.32 -4.05,25.51 -17.38,20.5 -2.29,7.69 -5.15,15.62 -5.89,25.31l16.42 -1.1c4.72,-18.95 11.66,-24.26 22.45,-35.5 13.53,-14.08 21.5,-13.54 33.86,-21.55 0.27,-0.17 0.86,-0.56 1.23,-0.9z"/>
   <path class="fil1" d="M227.72 293.34c-23.65,10.02 2.05,27.52 21.08,19.64 19.51,-8.07 1.24,-29.09 -21.08,-19.64z"/>
   <path class="fil1" d="M296.21 332.26c-4.27,-7.54 -7.9,-8.98 -17.42,-8.66 -8.27,0.29 -15.62,2.55 -15.04,10.68 0.77,10.76 27.81,14.83 32.46,-2.02z"/>
   <path class="fil1" d="M170.74 323.82c1.43,17.32 27.02,16.98 32.45,2.05 -6.04,-12.86 -24.72,-11.69 -32.45,-2.05z"/>
   <path class="fil2" d="M199.98 281.13c11.86,-0.39 32.99,-5.44 48.6,-6.84 -11.04,-4.02 -25.47,-3.65 -37.99,-3.05 -1.91,1.81 -3.08,3.13 -5.05,4.88l-5.56 5.01z"/>
   <path class="fil1" d="M208.92 353.55c2.35,5.1 3.65,6.74 12.26,6.5 8.54,-0.24 9.48,-2.02 11.02,-9.54 -8.3,-3.61 -17.87,-6.15 -23.28,3.04z"/>
  </g>
  <g id="_2247626866912">
   <path class="fil3" d="M290.63 125.9c-0.18,-0.75 -0.22,-0.65 -0.3,-1.44 -0.02,-0.15 -0.07,-0.69 -0.06,-0.84 0.02,-0.98 0.15,-0.79 0.22,-0.98l-1.34 0.16 -0.9 -3.78c-2.39,-11.87 -5.88,-20.69 -11.27,-31.44 -8.48,-16.88 -21.26,-23.46 -22.35,-26.23 2.9,0.66 5.87,4.12 9.03,6.49l7.38 8.41c4.29,5.2 8.39,12.76 11.56,19.97 7.83,17.78 11.09,31.4 11.46,51.19 2.75,-1.94 5.07,-10.37 5.73,-13.42 1.22,-5.8 1.78,-12.02 1.05,-18.33 -1.1,-9.42 -2.99,-17.76 -6.73,-26.31 -0.71,-1.65 -1.56,-2.16 -0.55,-3.75 3.95,4.04 8.1,24.23 8.66,31.26 1.57,19.19 -5.63,26.66 -6.39,33.27 -0.67,5.74 -0.49,12.48 -1.08,18.59 -1.16,12.1 -2.17,23.36 -4.73,35.37 -0.63,2.95 -1.16,5.14 -1.85,8.11 -0.62,2.63 -1.98,5.01 -2.42,7.58 3.77,-2.3 9.42,-14.82 11.5,-20.58l4.24 -15.17c1.57,-7.37 2.41,-15.19 2.77,-23.14 0.19,-4.14 0.55,-7.53 0.12,-11.8 -0.21,-2.12 -0.08,-3.98 -0.13,-6.09 -0.07,-2.66 -1.1,-4.66 0.34,-6.14 0.86,1.44 1.19,12.56 1.26,15.07 0.09,4.02 -1.14,13.6 -0.48,16.01 0.51,0.34 5.61,2.43 6.57,2.68 3.85,-3.49 8.32,-18.52 9.52,-25.01 1.84,-9.79 2.81,-21.52 1.82,-32.17 -1.95,-21.09 -6.69,-37.75 -16.37,-53.12 -17.71,-28.14 -48.42,-46.33 -92.12,-46.33 -65.39,0 -104.26,40.11 -108.98,99 -0.89,11.18 -0.15,21.87 1.69,32.16 1.19,6.64 5.72,21.93 9.61,25.47 0.96,-0.25 6.06,-2.34 6.58,-2.68 0.64,-2.38 -0.64,-12.35 -0.46,-16.51 0.52,-12.76 1.04,-4.64 -1.31,-15.87 -1.55,-7.44 -1.64,-16.42 -0.49,-23.82l1.03 -5.93c0.04,-0.14 0.08,-0.28 0.13,-0.4 0.05,-0.13 0.11,-0.26 0.16,-0.38 0.36,-0.79 0.32,-0.63 0.66,-1.04l0.43 1.57c0,0.22 -0.27,1.53 -0.31,1.76 -1.83,8.5 -2.21,19.35 -0.49,27.58 1.69,8.1 7.41,19.68 12.5,22.18 -1.07,-14.99 -0.74,-24.32 2.88,-38.48 1.71,-6.61 8.84,-28.45 12.3,-31.5 0.46,0.39 8.5,16.5 10.99,20.18 2.28,3.4 4.27,6.25 6.75,9.02 9.47,10.59 13.92,13.71 26.25,21.02 5.29,3.13 17.38,7.51 23.84,8.27 -1.72,-1.55 -4.3,-2.22 -6.79,-3.71 -2.4,-1.44 -4.46,-2.43 -6.69,-3.88 -9.93,-6.45 -21.81,-14.37 -27.33,-25.22 -0.91,-1.77 -3.06,-5.78 -2.33,-7.47 2.97,2.35 1.1,8 12.22,17.05 4.5,3.66 12.7,8.93 18.5,11.49 15.5,6.83 29.6,10.64 49.33,10.22 -1,-1.23 -6.16,-4.27 -8.06,-5.8 -7.89,-6.31 -15.84,-12.87 -22.36,-20.22l-6.39 -7.81c-4.46,-5.44 -11.92,-19.29 -13.12,-25.94l0.34 -2.81c0.83,1.18 3.78,11.21 5.08,13.87 2.09,4.25 7.75,14.41 11.33,17.05 1.81,1.34 8.82,8.5 15.11,13.23 11.83,8.91 37.7,24.14 53.24,22.32 0.6,-3.36 0.23,-7.79 -0.07,-10.88 -0.17,-1.86 -0.2,-3.7 -0.4,-5.29 -0.33,-2.61 -0.9,-4.48 0.47,-5.89z"/>
   <path class="fil3" d="M280.37 226.65c1.53,-3.93 3.99,-5.56 5.16,-10.97 -2.51,2.33 -8.88,5.68 -12.28,6.93 -1.63,0.6 -3.48,0.79 -4.82,1.23 -0.49,12.07 2.35,22.24 6.38,31.93 2.91,7 11.75,18.12 18.57,19.92 -0.8,-2.5 -4.73,-6.49 -6.43,-9.51 -1.97,-3.52 -3.31,-6.12 -5.11,-10.11 -1.42,-3.11 -2.86,-8.07 -3.69,-11.58 -0.43,-1.79 -1.94,-9.56 -1.72,-11.74 0.16,-1.71 -0.02,-0.49 0.32,-1.26 1.26,1.67 2.1,12.19 4.51,19.45 1.87,5.66 4.6,11.22 7.48,15.64 9.09,13.99 13.16,15.07 29.6,17.16 3.72,-6.63 3.24,-8.29 3.26,-17.3 0.06,-29.81 -15.39,-40.08 -16.5,-43.74 2.76,0.47 3.07,2.14 4.52,4.04 13.07,17.19 11.82,24.18 13.35,45.55 0.86,-1.08 0.58,-0.68 1.07,-2.15 1.87,-5.69 2.7,-13.5 2.21,-19.47 -0.61,-7.5 -2.56,-13.5 -5.49,-19.3 -2.19,-4.34 -6.86,-11.47 -10.23,-14.47 -8.49,-7.57 -8.98,-7.55 -16.59,-7.17 -2.37,4.12 -5.79,10.21 -9.13,13.83 -0.54,0.58 -1.35,1.23 -1.93,1.71 -1.67,1.38 -0.2,0.96 -2.51,1.38z"/>
   <path class="fil3" d="M143.53 215.68c1.16,5.4 3.63,7.05 5.16,10.97 -2.24,-0.41 -1.13,-0.21 -2.79,-1.63 -4.67,-3.96 -7.84,-10.16 -10.78,-15.29 -6.48,-0.32 -7.09,-1.23 -13.35,4.63 -1.35,1.26 -1.99,1.42 -3.25,2.54 -0.91,0.81 -4.94,5.82 -5.72,6.91 -9.24,12.81 -12.43,28.63 -8.36,44.21 0.49,1.9 0.62,2.98 1.64,4.27 0.9,-12.48 -0.17,-17.85 4.12,-29.56 1.8,-4.88 9.32,-19.26 13.76,-20.03 -1.13,3.7 -16.54,13.64 -16.51,44.27 0.01,8.8 -0.36,10.32 3.26,16.77 14.6,-1.86 17.53,-2.23 24.71,-10.53 1.78,-2.04 3.28,-4.15 4.89,-6.63 2.91,-4.48 5.75,-10.23 7.61,-16.03 0.99,-3.09 1.68,-6.04 2.35,-9.31 0.36,-1.72 0.63,-3.32 0.79,-4.88 0.19,-1.79 0.1,-3.37 1.24,-4.87 0.06,0.14 0.11,0.31 0.14,0.42l0.09 3.08c-1.35,12.21 -4.55,20.71 -10.43,31.19 -1.69,3.02 -5.63,7.01 -6.43,9.51 7.06,-1.86 15.79,-13.21 18.73,-20.29 3.93,-9.5 6.71,-19.66 6.22,-31.56 -5.2,-1.72 -11.43,-2.87 -17.09,-8.16z"/>
   <path class="fil3" d="M124.95 145.53c-1.47,20.56 3.15,56.4 16.5,72.42l1.68 1.43c-0.74,-3.25 -1.91,-5.89 -2.76,-9.37 -5.28,-21.59 -4.46,-30.22 -6.58,-50.66 -0.32,-3.05 -3.08,-5.04 -4.52,-6.99 -2.02,-2.71 -3.06,-5.51 -4.32,-6.83z"/>
   <path class="fil3" d="M92.81 223.6c2.68,-1.72 3.75,-5.12 13.62,-10.35 6.32,-3.36 16.01,-5.93 17.02,-6.7 -1.52,-1.38 -3.83,-3.5 -5.29,-4.32 -3.01,-0.62 -23.41,8.99 -25.35,21.37z"/>
   <path class="fil3" d="M314.64 209.67c3.07,1.14 5.37,2.2 7.98,3.58 8.66,4.59 8.14,5.72 12.91,9.81l0.71 0.54c-0.91,-5.8 -5.95,-10.88 -9.73,-13.75 -3.4,-2.57 -10.37,-7.07 -15.62,-7.62 -1.46,0.82 -3.77,2.94 -5.29,4.32l9.04 3.12z"/>
  </g>
 </g>
</svg>
