<?xml version="1.0" encoding="UTF-8"?>
<!DOCTYPE svg PUBLIC "-//W3C//DTD SVG 1.1//EN" "http://www.w3.org/Graphics/SVG/1.1/DTD/svg11.dtd">
<!-- Creator: CorelDRAW 2017 -->
<svg xmlns="http://www.w3.org/2000/svg" xml:space="preserve" width="4.2332mm" height="4.2332mm" version="1.1" style="shape-rendering:geometricPrecision; text-rendering:geometricPrecision; image-rendering:optimizeQuality; fill-rule:evenodd; clip-rule:evenodd"
viewBox="0 0 423.32 423.32"
 xmlns:xlink="http://www.w3.org/1999/xlink">
 <defs>
  <style type="text/css">
   <![CDATA[
    .fil0 {fill:none}
    .fil1 {fill:black}
    .fil2 {fill:red}
   ]]>
  </style>
 </defs>
 <g id="Capa_x0020_1">
  <metadata id="CorelCorpID_0Corel-Layer"/>
  <rect class="fil0" x="-0" y="-0" width="423.33" height="423.33"/>
  <rect class="fil0" x="-0" y="-0" width="423.33" height="423.33"/>
  <rect class="fil0" x="-0" y="-0" width="423.33" height="423.33"/>
  <g id="_2247733930080">
   <path class="fil1" d="M113.56 362.97c-14.67,3.1 -17.88,-0.96 -18.01,12.22 7.4,2.72 14.22,0.18 24.11,-0.28 4.15,6.97 9.47,11.37 18.54,16.96 -0.25,9.62 -6.46,17.24 2.4,18.98 8.65,1.7 6.53,-6.63 10.38,-14.19 12.87,0 22.41,-3.52 31.63,-2.82 10.5,0.78 19.97,2.86 31.91,3.09 0.26,10.7 -5.26,11.48 1.39,19.36 10.47,-0.85 8.71,-9.24 12.57,-19.17l32.38 -2.63c-1.68,10.84 -5.52,11.47 -1.37,20.61 18.45,0.32 7.24,-16.29 14.88,-23.5l20.87 -9.05c-0.19,10.8 -6.2,11.33 1.34,18.94 15.95,-1.2 3.85,-14.74 17.64,-37.97 20.82,-35.08 -8.95,-83.5 -66.8,-95.56 -46.39,-9.68 -104.46,7.65 -121.73,47.6 -4.54,10.5 -3.27,13.74 -5.27,24.87 -1.87,10.39 -5.64,6.66 -6.86,22.54z"/>
   <path class="fil2" d="M148.47 338.65c7.22,6.19 38.87,11.94 35.52,45.26 37.04,-0.47 110.1,-9.04 127.66,-44.49 9.48,-19.12 -21.6,-75.66 -101,-53.91 -28.55,7.83 -54.69,26.34 -62.18,53.14z"/>
   <path class="fil2" d="M199.98 281.13c-32.24,-3.49 -15.85,-7.2 -50.69,13.24 15.36,18.32 -4.05,25.51 -17.38,20.5 -2.29,7.69 -5.15,15.62 -5.89,25.31l16.42 -1.1c4.72,-18.95 11.66,-24.26 22.45,-35.5 13.53,-14.08 21.5,-13.54 33.86,-21.55 0.27,-0.17 0.86,-0.56 1.23,-0.9z"/>
   <path class="fil1" d="M227.72 293.34c-23.65,10.02 2.05,27.52 21.08,19.64 19.51,-8.07 1.24,-29.09 -21.08,-19.64z"/>
   <path class="fil1" d="M296.21 332.26c-4.27,-7.54 -7.9,-8.98 -17.42,-8.66 -8.27,0.29 -15.62,2.55 -15.04,10.68 0.77,10.76 27.81,14.83 32.46,-2.02z"/>
   <path class="fil1" d="M170.74 323.82c1.43,17.32 27.02,16.98 32.45,2.05 -6.04,-12.86 -24.72,-11.69 -32.45,-2.05z"/>
   <path class="fil2" d="M199.98 281.13c11.86,-0.39 32.99,-5.44 48.6,-6.84 -11.04,-4.02 -25.47,-3.65 -37.99,-3.05 -1.91,1.81 -3.08,3.13 -5.05,4.88l-5.56 5.01z"/>
   <path class="fil1" d="M208.92 353.55c2.35,5.1 3.65,6.74 12.26,6.5 8.54,-0.24 9.48,-2.02 11.02,-9.54 -8.3,-3.61 -17.87,-6.15 -23.28,3.04z"/>
  </g>
 </g>
</svg>
