<?xml version="1.0" encoding="UTF-8"?>
<!DOCTYPE svg PUBLIC "-//W3C//DTD SVG 1.1//EN" "http://www.w3.org/Graphics/SVG/1.1/DTD/svg11.dtd">
<!-- Creator: CorelDRAW 2017 -->
<svg xmlns="http://www.w3.org/2000/svg" xml:space="preserve" width="4.2332mm" height="4.2332mm" version="1.1" style="shape-rendering:geometricPrecision; text-rendering:geometricPrecision; image-rendering:optimizeQuality; fill-rule:evenodd; clip-rule:evenodd"
viewBox="0 0 423.32 423.32"
 xmlns:xlink="http://www.w3.org/1999/xlink">
 <defs>
  <style type="text/css">
   <![CDATA[
    .fil0 {fill:none}
    .fil7 {fill:#053035}
    .fil4 {fill:#2AB8C5}
    .fil9 {fill:#2D2929}
    .fil11 {fill:#382E72}
    .fil13 {fill:#655B59}
    .fil3 {fill:#6C3437}
    .fil1 {fill:#857A76}
    .fil5 {fill:#8DDDE5}
    .fil2 {fill:#B2A29C}
    .fil10 {fill:#D32929}
    .fil12 {fill:#DD7B80}
    .fil8 {fill:#EED9D1}
    .fil6 {fill:#F7F7F7}
   ]]>
  </style>
 </defs>
 <g id="Capa_x0020_1">
  <metadata id="CorelCorpID_0Corel-Layer"/>
  <rect class="fil0" x="-0" y="-0" width="423.33" height="423.33"/>
  <g id="_2247619180160">
   <g>
    <path class="fil1" d="M229.48 115.7c-0.05,-1.3 -0.39,-1 0.89,-0.96 -0.11,-0.13 -0.23,-0.52 -0.28,-0.42l-5.38 -3.99c1.2,1.66 1.3,1.13 2.17,2.82 1.21,2.36 0.61,1.67 2.6,2.55z"/>
    <path class="fil1" d="M281.51 196.42l0.57 0c0.83,-1.05 -2.16,-0.85 2.74,0.02l0.48 -3.95c-0.91,1.71 -0.54,1.28 -0.97,3.49l-1.99 -0.82 -0.83 1.26z"/>
    <path class="fil1" d="M210.37 182.62c0.81,-0.93 1.28,-1.1 0,-2.03 -0.98,1.54 -0.71,0.8 0,2.03z"/>
   </g>
   <g>
    <path class="fil2" d="M286.6 116.99c-0.01,2.77 0.68,17.46 1.85,19 0.24,-0.37 0.39,-0.23 0.56,-1.14 0.42,-2.09 -0.07,-8.39 -0.4,-10.32 -0.67,-4.01 -1.32,-6.9 -2.14,-10.75 -0.07,0.18 -0.2,0 -0.22,0.96 -0.01,0.15 0.04,0.68 0.06,0.83 0.08,0.77 0.12,0.68 0.29,1.42z"/>
    <path class="fil2" d="M192.11 120.36l0.22 -0.23c-1.14,-1.58 -2.9,-2.54 -4.67,-3.32 0.83,1.52 2.86,3.06 4.45,3.55z"/>
   </g>
   <g>
    <path class="fil3" d="M80.74 188.17c1.37,-7.23 4.69,-7.73 11.72,-8.43 6.54,-0.66 11.82,0.09 18.1,1.67l2.37 5.85c-16.58,-3.28 -17.87,-0.62 -32.19,0.91zm34.75 3.02c1.31,-0.74 -0.11,-0.78 1.75,0.05 -2.63,-3.92 -5.18,-7.58 -5.64,-14.04 -0.18,-2.4 0.39,-5.83 1.01,-8.13 0.89,-3.32 2.04,-4 3.13,-6.4l-1.45 -1.94c0.86,2.68 -1.63,4.87 -2.68,8.21 -1.24,3.93 -0.96,7.04 -0.78,11.08 -7.69,-1.12 -11.47,-2.43 -19.92,-1.34 -8.02,1.04 -10.9,2.7 -11.72,11.26 10.76,-1.65 14.95,-4.37 28.81,-2.24 3.49,0.54 7.01,0.31 7.49,3.49z"/>
    <path class="fil3" d="M310.49 187.29l2.08 -5.95c6.78,-1.58 20.88,-2.99 26.47,0.11 1.55,0.86 3.13,4.53 3.54,6.72 -13.98,-1.5 -15.98,-4.22 -32.09,-0.88zm-2.91 -24.62c1.17,2.57 2.35,3.19 3.25,6.84 0.59,2.37 1.11,5.61 0.86,8.16 -0.66,6.34 -2.98,9.66 -5.61,13.57 1.87,-0.83 0.44,-0.79 1.75,-0.05 0.48,-3.15 3.69,-2.88 7.07,-3.42 7.43,-1.17 11.96,-0.96 19.37,0.1 3.64,0.51 6.42,1.54 9.86,2.07 -0.79,-8.37 -3.48,-10.06 -11.21,-11.19 -8.61,-1.26 -12.61,0.13 -20.43,1.27 0.18,-3.95 0.45,-6.84 -0.66,-10.7 -0.89,-3.12 -3.62,-5.71 -2.8,-8.59l-1.45 1.94z"/>
    <path class="fil3" d="M224.27 202.81c-0.15,0.12 -0.41,0.04 -0.49,0.29 -0.07,0.2 -0.32,0.19 -0.41,0.23 -0.06,0.04 -0.2,0.11 -0.28,0.2l-0.75 0.73c-0.05,0.07 -0.15,0.22 -0.22,0.29 -0.47,0.59 -0.4,0.59 -0.93,1.16 -2.83,3.09 -4.79,4.42 -9.79,4.13 -4.84,-0.28 -9.4,-4.71 -10.64,-7.73 -0.08,-1.84 4.04,-5.03 6.72,-4.77 1.81,0.18 3.46,0.71 5.48,0.65 2.5,-0.07 3.15,-0.8 6.02,-0.51 -0.75,-0.61 0.8,0.14 -1.22,-0.86 -0.12,-0.06 -0.73,-0.24 -0.89,-0.27 -5.32,0.39 -7.67,0.93 -12.41,-1.49 2.62,-2.19 12.36,-1.58 15.59,-0.27l0.68 -0.64 -2.24 -0.96c-0.97,-0.23 -1.98,-0.39 -2.98,-0.44 -6.18,-0.32 -11.87,0.42 -17.5,3.34 -0.59,2.83 1.54,7.13 2.87,8.97 7.41,10.23 20.79,6.77 23.39,-2.05z"/>
    <path class="fil3" d="M265.55 296.83c2.6,5.19 9.6,10.31 9.44,13.88 -0.14,2.64 -1.26,3.39 1.05,5.58 3.38,0.98 4.31,-0.01 6.67,-1.5 2.19,-1.38 3.73,-0.06 6.08,0.42 4.43,0.93 11.96,0.69 11.31,-4.99 -1.41,-2.08 -5.29,-3.72 -7.37,-4.56l-0.89 0.19c1.92,2.52 5.44,2.6 7.17,4.88 -0.35,5.78 -11.31,3.11 -15.21,1.69 -2.71,1.96 -3.82,3.18 -7.35,2.97 -2.11,-5.29 2.32,-3.33 -2.99,-10.32 -1.47,-1.93 -5.99,-7.03 -6.5,-8.83 -0.77,0.58 -0.3,0.2 -1.41,0.59z"/>
    <path class="fil3" d="M201.06 343.41c0.54,0.31 -0.6,0.73 2.2,0.41 1.11,-1.96 4.18,-13.3 5.93,-17.67 0.58,-1.44 0.61,-1.63 2.24,-1.71 2.35,-0.12 2.02,0.37 2.57,1.81l-0.01 0.7 1.68 -0.1 -1.4 -3.54 -5.22 0.12c-1.47,2.79 -4.22,11.55 -5.33,15.39 -1.45,5.01 -0.98,4.38 -2.66,4.59z"/>
    <path class="fil3" d="M232.64 226.66l0.25 -4c7.77,1.43 9.66,9.07 13.64,15.13 1.11,1.69 0.23,0.47 1.07,1.2l0.77 -0.12c-1.17,-3.32 -3.85,-6.96 -5.75,-10.06 -2.07,-3.38 -3.73,-6.16 -9.09,-7.23 -0.85,0.42 -0.86,0.67 -1.5,1.23l0.61 3.85z"/>
    <path class="fil3" d="M224.34 200.38c0,0 1.48,-1.9 0.93,-3.45 -0.26,-0.73 -3.31,-3.66 -5.72,-0.53 0.75,2.01 2.56,3.82 4.79,3.98z"/>
   </g>
   <g>
    <path class="fil4" d="M155.59 174.45c0.21,-2.82 0.52,-5.13 2.03,-6.93 1.62,2.11 0.25,1.62 3.21,2.67 -0.26,-3.48 -0.46,-9.54 3.07,-10.89 -1.4,-3.04 -2.03,-4.84 -1.03,-8.73 -7.03,2.53 -9.95,10.61 -9.46,17.39 0.16,2.03 0.58,4.09 1.63,5.81l0.55 0.68z"/>
    <path class="fil4" d="M241.13 172.62c0.51,-2.29 0.74,-3.21 1.59,-4.88 0.12,0.12 0.26,0.16 0.31,0.41l1.81 1.89 2.03 0.52c-0.59,-3.26 -0.84,-3.63 0.04,-6.92 0.22,-0.87 0.66,-2.2 1.12,-2.94 1.11,-1.75 0.57,-1.26 2.29,-1.56 -1.95,-3.78 -2.18,-4.99 -0.23,-8.99 -9.09,3.71 -11.57,16.1 -9.58,21.35l0.62 1.12z"/>
    <path class="fil4" d="M255.99 178.06c4.52,-0.13 7.83,-2.78 9.64,-5.96 -0.05,-0.12 -0.07,-0.46 -0.1,-0.39l-0.63 -1.19 -4.39 -1.57 1.7 1.6c-1.33,6.13 -4.37,5.65 -6.22,7.51z"/>
    <path class="fil4" d="M172.93 176.96c3.41,-0.34 5.83,-3.27 6.73,-6.41l-2.13 -1.6 -1.01 -0.03c0.13,4.31 -2.2,5.42 -3.59,8.04z"/>
    <path class="fil4" d="M267.56 170.54c-0.75,2.09 -0.38,3.07 -0.26,5.38 0.48,-0.57 0.1,0.32 0.9,-1.35 0.13,-0.26 0.46,-1.22 0.55,-1.48 0.39,-1.12 0.59,-1.85 0.76,-3.17l-1.95 0.62z"/>
   </g>
   <g>
    <path class="fil5" d="M177.53 168.95l2.13 1.6c-0.9,3.14 -3.32,6.07 -6.73,6.41 -5.81,0.68 -9.38,2.81 -8.85,-5.68l-3.03 -0.26 0.81 0.47c0.11,0.07 0.27,0.15 0.38,0.2l0.85 0.35c0.02,-0.07 0.16,0.02 0.22,0.06 -0.54,2.09 -0.11,2.19 0.23,4.27 -3.53,0.14 -1.79,0.64 -4.37,1.35 -0.51,-0.89 -0.5,-1.3 -1.2,-2.27 -0.98,-1.38 -0.55,-0.16 -1.44,-1.79 0.99,-1.08 1.73,-1.99 2.66,-3.32l1.64 0.42 0 -0.57c-2.96,-1.05 -1.59,-0.56 -3.21,-2.67 -1.51,1.8 -1.82,4.11 -2.03,6.93 1,8.81 20.61,14.65 25.97,1.44l1.29 -11.58 -0.25 3.66c-1.67,0.7 -2.55,1.17 -5.07,0.98z"/>
    <path class="fil5" d="M241.13 172.62c-0.23,5.5 5.67,10.74 11.63,11.07 6.88,0.38 12.63,-3.36 14.54,-7.77 -0.12,-2.31 -0.49,-3.29 0.26,-5.38l-2.66 -0.02 0.63 1.19c0.03,-0.07 0.05,0.27 0.1,0.39 -1.81,3.18 -5.12,5.83 -9.64,5.96 -4.67,-0.63 -6.7,-0.35 -6.3,-5.79l-0.49 0.9c-0.04,0.17 -0.11,0.3 -0.14,0.48l0.29 2.68c-3.44,0.21 -1.82,0.69 -4.34,1.39l-2.67 -4.06c1.38,-1.38 1.87,-1.72 2.5,-3.62l-1.81 -1.89c-0.05,-0.25 -0.19,-0.29 -0.31,-0.41 -0.85,1.67 -1.08,2.59 -1.59,4.88z"/>
   </g>
   <g>
    <path class="fil6" d="M250.09 150.15c-1.95,4 -1.72,5.21 0.23,8.99 2.22,4.29 5.66,7.46 10.19,9.81l4.39 1.57 2.66 0.02 1.95 -0.62c1.71,-5.08 -1.07,-12.93 -4.09,-16.18 -4,-4.32 -9.16,-4.78 -15.33,-3.59z"/>
    <path class="fil6" d="M162.87 150.57c-1,3.89 -0.37,5.69 1.03,8.73 4.99,5.62 5.05,5.92 12.62,9.62l1.01 0.03c2.52,0.19 3.4,-0.28 5.07,-0.98l0.25 -3.66c0.33,-9.83 -10.17,-17.94 -19.98,-13.74z"/>
    <path class="fil6" d="M150.06 178.41l1.75 3.08c4.06,1.45 7.88,4.25 10.47,3.13 -2.54,-1.01 -4.71,-2.59 -6.34,-4.6 -2.26,-2.75 -2.21,-3.92 -3.81,-6.46 -1.55,-0.28 -1.44,-0.94 -2.15,1.39 -0.38,1.25 -0.18,2.11 0.08,3.46z"/>
    <path class="fil6" d="M261.04 184.62l2.7 0.03c2.91,-0.69 5.1,-2.21 7.77,-3.16l1.76 -3.08c0.25,-1.35 0.46,-2.21 0.07,-3.46 -0.51,-1.69 -0.48,-2.07 -2.15,-1.39 -1.6,2.54 -1.55,3.71 -3.79,6.46 -1.64,2.01 -3.82,3.59 -6.36,4.6z"/>
    <path class="fil6" d="M216.87 196.35l3.18 -1.76c-3.23,-1.31 -12.97,-1.92 -15.59,0.27 4.74,2.42 7.09,1.88 12.41,1.49z"/>
    <path class="fil6" d="M249.69 172.27l-0.12 -1c-1.85,-0.07 -1.68,0.31 -2.7,-0.71l-2.03 -0.52c-0.63,1.9 -1.12,2.24 -2.5,3.62l2.67 4.06c2.52,-0.7 0.9,-1.18 4.34,-1.39l-0.29 -2.68c0.03,-0.18 0.1,-0.31 0.14,-0.48l0.49 -0.9z"/>
    <path class="fil6" d="M161.05 171.02l-0.22 -0.26 -1.64 -0.42c-0.93,1.33 -1.67,2.24 -2.66,3.32 0.89,1.63 0.46,0.41 1.44,1.79 0.7,0.97 0.69,1.38 1.2,2.27 2.58,-0.71 0.84,-1.21 4.37,-1.35 -0.34,-2.08 -0.77,-2.18 -0.23,-4.27 -0.06,-0.04 -0.2,-0.13 -0.22,-0.06l-0.85 -0.35c-0.11,-0.05 -0.27,-0.13 -0.38,-0.2l-0.81 -0.47z"/>
   </g>
   <g>
    <path class="fil7" d="M159.74 136.41l-0.07 2.98c-2.68,0.45 -7.22,3.75 -11.26,-0.49l-2.27 -3.16c-0.25,4.83 0.84,5.2 2.64,8.94 -5.1,8.33 -5.74,7.29 -13,6.57 1.17,3.04 3.55,3.22 6.5,4.08 -0.83,6.48 -2.38,10.52 0.17,16.95 1.34,3.4 6.48,10.47 9.36,9.21l-1.75 -3.08c-0.11,-0.09 -0.27,-0.38 -0.31,-0.3 -0.04,0.1 -0.24,-0.22 -0.29,-0.3 -1.44,-1.72 -2.39,-4.19 -2.99,-6.46 -5.09,-19.49 17.77,-34.09 32.8,-24.04 2.68,1.79 3.83,3.47 5.6,5 0.81,-1.35 -0.93,-4.1 -1.86,-5.6 -3.87,-6.28 -11.95,-7.66 -19.25,-8.2l-1.51 -3.13 -0.86 -2.24c-0.07,0.16 -0.58,1.55 -0.59,1.57 -0.59,1.21 -0.43,0.96 -1.06,1.7z"/>
    <path class="fil7" d="M261.06 135.38l-1.43 3.15c-7.17,0.5 -15.24,1.87 -19.12,7.87 -1.03,1.58 -2.89,4.51 -2.05,5.91 4.05,-3.5 5.32,-6.37 13.07,-7.92 6.3,-1.26 13,1.21 16.97,4.21 8.97,6.76 11.79,18.53 6.29,27.93l-1.52 1.88 -1.76 3.08c2.85,1.25 7.83,-5.64 9.21,-8.84 2.77,-6.43 1.19,-10.65 0.32,-17.32 3.1,-0.9 5.25,-1.11 6.5,-4.08 -7.26,0.72 -7.9,1.76 -12.99,-6.57 1.04,-2.15 1.66,-1.97 1.74,-4.28l-0.25 -1.8c-0.88,1.25 -1.21,0.96 -1.76,1.4 -1.66,-0.24 -2.32,1.54 -5.38,1.03 -2.05,-0.34 -2.47,-1.53 -5.1,-1.34 -1.4,-1.32 -0.09,0.6 -0.63,-1.25l-0.57 -4.32c-0.11,0.14 -0.54,0.47 -0.62,0.54 -0.09,0.07 -0.36,0.46 -0.43,0.34 -0.08,-0.14 -0.34,0.23 -0.49,0.38z"/>
    <path class="fil7" d="M162.87 150.57c9.81,-4.2 20.31,3.91 19.98,13.74l-1.29 11.58c-5.36,13.21 -24.97,7.37 -25.97,-1.44l-0.55 -0.68c-1.05,-1.72 -1.47,-3.78 -1.63,-5.81 -0.49,-6.78 2.43,-14.86 9.46,-17.39zm-10.74 22.99c1.6,2.54 1.55,3.71 3.81,6.46 1.63,2.01 3.8,3.59 6.34,4.6 3.86,1.09 6.28,2.23 10.97,1.06 3.38,-0.84 6.22,-2.66 8,-4.96 4.21,-5.41 5.61,-12.8 3.28,-20.2 -5.59,-22.15 -38.88,-16.41 -32.4,13.04z"/>
    <path class="fil7" d="M267.3 175.92c-1.91,4.41 -7.66,8.15 -14.54,7.77 -5.96,-0.33 -11.86,-5.57 -11.63,-11.07l-0.62 -1.12c-1.99,-5.25 0.49,-17.64 9.58,-21.35 6.17,-1.19 11.33,-0.73 15.33,3.59 3.02,3.25 5.8,11.1 4.09,16.18 -0.17,1.32 -0.37,2.05 -0.76,3.17 -0.09,0.26 -0.42,1.22 -0.55,1.48 -0.8,1.67 -0.42,0.78 -0.9,1.35zm-28.5 -15.4c-2.34,7.4 -0.93,14.79 3.28,20.2 1.77,2.3 4.61,4.12 7.99,4.96 4.71,1.17 7.12,0.03 10.97,-1.06 2.54,-1.01 4.72,-2.59 6.36,-4.6 2.24,-2.75 2.19,-3.92 3.79,-6.46 6.49,-29.45 -26.81,-35.19 -32.39,-13.04z"/>
    <path class="fil7" d="M160.83 170.19l0 0.57 0.22 0.26 3.03 0.26c-0.53,8.49 3.04,6.36 8.85,5.68 1.39,-2.62 3.72,-3.73 3.59,-8.04 -7.57,-3.7 -7.63,-4 -12.62,-9.62 -3.53,1.35 -3.33,7.41 -3.07,10.89z"/>
    <path class="fil7" d="M246.87 170.56c1.02,1.02 0.85,0.64 2.7,0.71l0.12 1c-0.4,5.44 1.63,5.16 6.3,5.79 1.85,-1.86 4.89,-1.38 6.22,-7.51l-1.7 -1.6c-4.53,-2.35 -7.97,-5.52 -10.19,-9.81 -1.72,0.3 -1.18,-0.19 -2.29,1.56 -0.46,0.74 -0.9,2.07 -1.12,2.94 -0.88,3.29 -0.63,3.66 -0.04,6.92z"/>
   </g>
   <g>
    <path class="fil8" d="M220.73 193.95c1.9,0.03 3.4,0.96 5.12,1.94 0.39,2.41 -0.41,5.33 -1.58,6.92 -2.6,8.82 -15.98,12.28 -23.39,2.05 -1.33,-1.84 -3.46,-6.14 -2.87,-8.97 5.63,-2.92 11.32,-3.66 17.5,-3.34 1,0.05 2.01,0.21 2.98,0.44l2.24 0.96zm-10.36 -13.36c1.28,0.93 0.81,1.1 0,2.03 -0.71,-1.23 -0.98,-0.49 0,-2.03zm70.35 17.23c0.33,-1.2 -0.7,-0.13 0.79,-1.4l0.83 -1.26 1.99 0.82c0.43,-2.21 0.06,-1.78 0.97,-3.49l1.99 -12.55c-4.25,2.5 -3.98,8.05 -15.22,14.07 -6.78,3.63 -15.65,4.5 -23.13,2.67 -6.97,-1.71 -13.7,-5.4 -19.47,-9.02 -3.96,-2.49 -13.24,-9.6 -19.08,-8.93 -7.07,0.82 -21.92,15.35 -38.11,18.38 -7.72,1.44 -16.18,-0.1 -22.68,-4.08 -7.24,-4.42 -9.22,-8.03 -13.51,-14.14 -0.18,3.4 1.7,13.23 2.64,16.49l2.14 0.46c0.8,0.3 0.98,0.65 1.55,1.27 1.06,1.14 1.72,1.88 2.84,2.87 1.67,1.46 4.42,3.51 6.97,4.94 15.43,8.66 38.07,13.05 56.12,14.06 15.85,0.89 44.07,-4.71 58.3,-11.81 3.24,-1.63 4.09,-1.84 7.58,-4.28 2.26,-1.59 4.85,-4.21 6.49,-5.07z"/>
    <path class="fil8" d="M134.4 133.06l-0.22 2.85c1.83,-0.74 9.53,-8.39 18.15,-11.54 4.07,-1.49 7.03,-2.7 11.44,-3.46 4.91,-0.85 5.84,-0.73 10.44,-0.71 3.55,0.02 2.76,-0.08 2.72,-0.7 -6.37,-6.61 -8.94,-7.39 -16.04,-17.38 -2.24,-3.15 -4.46,-6.67 -6.42,-10.18 -1.82,-3.23 -4.45,-10.14 -6.16,-10.81 -3.41,6.18 -7.17,16.6 -9.2,23.88 -2.61,9.35 -4.53,17.63 -4.71,28.05z"/>
    <path class="fil8" d="M115.74 162.67c-1.09,2.4 -2.24,3.08 -3.13,6.4 -0.62,2.3 -1.19,5.73 -1.01,8.13 0.46,6.46 3.01,10.12 5.64,14.04 2.7,0.58 5.74,7.59 15.49,7.09 -0.26,-1.53 -2.65,-6.69 -3.42,-8.73 -5.53,-14.56 -4.78,-22.42 -6.51,-28.77l-0.34 -0.91c-3.18,0.18 -5,1.75 -6.72,2.75z"/>
    <path class="fil8" d="M306.08 191.24c2.63,-3.91 4.95,-7.23 5.61,-13.57 0.25,-2.55 -0.27,-5.79 -0.86,-8.16 -0.9,-3.65 -2.08,-4.27 -3.25,-6.84 -1.72,-1 -3.54,-2.57 -6.71,-2.75l-1.88 10.94c-0.58,3.09 -1.31,6.57 -2.12,9.69 -1.37,5.37 -6.2,17.34 -6.27,17.78 9.75,0.5 12.78,-6.51 15.48,-7.09z"/>
    <path class="fil8" d="M150.06 178.41c-0.26,-1.35 -0.46,-2.21 -0.08,-3.46 0.71,-2.33 0.6,-1.67 2.15,-1.39 -6.48,-29.45 26.81,-35.19 32.4,-13.04 0.64,1.22 0.54,0.82 1.11,1.45 0.21,-4.32 -0.2,-5.61 -0.77,-9.66 -1.77,-1.53 -2.92,-3.21 -5.6,-5 -15.03,-10.05 -37.89,4.55 -32.8,24.04 0.6,2.27 1.55,4.74 2.99,6.46 0.05,0.08 0.25,0.4 0.29,0.3 0.04,-0.08 0.2,0.21 0.31,0.3z"/>
    <path class="fil8" d="M238.46 152.31c-0.57,4.05 -0.99,5.34 -0.78,9.66l1.12 -1.45c5.58,-22.15 38.88,-16.41 32.39,13.04 1.67,-0.68 1.64,-0.3 2.15,1.39 0.39,1.25 0.18,2.11 -0.07,3.46l1.52 -1.88c5.5,-9.4 2.68,-21.17 -6.29,-27.93 -3.97,-3 -10.67,-5.47 -16.97,-4.21 -7.75,1.55 -9.02,4.42 -13.07,7.92z"/>
    <path class="fil8" d="M134.52 137.28c-0.39,2.92 -0.24,6.13 0.74,8.65 5.21,-13.81 22.85,-22.48 35.54,-21.14 5.14,0.55 12.44,2.08 16.2,2.31 -1.37,-1.83 -4.68,-3.22 -6.49,-5.09 -13.55,-2.49 -26.41,1.5 -37.11,8.46 -1.91,1.25 -2.79,2.15 -4.42,3.33l-4.46 3.48z"/>
    <path class="fil8" d="M192.33 120.13l-0.22 0.23c0.4,0.68 16.6,14.32 23.76,10.88l-18.03 -8.13c-1.93,-1.05 -3.7,-2.57 -5.51,-2.98z"/>
    <path class="fil8" d="M285.34 140.55c1.04,1.84 3.55,7.7 4.67,8.77 1.04,-2.24 0.42,-6.07 0.56,-8.73l-1.84 1.53 0.04 -5.24c-0.29,0.1 -0.4,0.15 -0.43,0.37 -0.03,0.25 -0.3,0.66 -0.35,0.8 -0.82,2.12 0.32,0.98 -2.29,2.29 -0.08,0.04 -0.25,0.12 -0.36,0.21z"/>
    <path class="fil8" d="M230.37 114.74c-1.28,-0.04 -0.94,-0.34 -0.89,0.96 2.8,1.26 5.46,7.04 9.66,6.06 -1.58,-1.66 -7.83,-5.52 -8.77,-7.02z"/>
    <path class="fil8" d="M238.66 122.82c1.17,2.33 3.09,3.68 6.17,2.73 -1.25,-1.26 -4.61,-3.74 -6.17,-2.73z"/>
   </g>
   <g>
    <path class="fil9" d="M276.5 216.2c2.27,-0.42 0.82,0 2.47,-1.36 0.58,-0.47 1.38,-1.11 1.9,-1.68 3.29,-3.57 6.66,-9.56 8.99,-13.63 7.5,-0.37 7.99,-0.39 16.34,7.07 3.32,2.96 7.92,9.97 10.08,14.25 2.88,5.71 4.81,11.62 5.41,19 0.47,5.89 -0.34,13.57 -2.19,19.18 -0.47,1.45 -0.2,1.05 -1.05,2.12 -1.5,-21.05 -0.27,-27.94 -13.15,-44.86 -1.42,-1.87 -1.72,-3.52 -4.44,-3.98 1.09,3.61 16.31,13.71 16.25,43.08 -0.03,8.86 0.45,10.5 -3.21,17.03 -16.2,-2.06 -20.2,-3.12 -29.16,-16.9 -2.83,-4.35 -5.52,-9.82 -7.36,-15.4 -2.37,-7.15 -3.2,-17.51 -4.44,-19.15 -0.34,0.75 -0.16,-0.45 -0.32,1.24 -0.22,2.15 1.27,9.79 1.7,11.56 0.81,3.46 2.23,8.34 3.63,11.4 1.77,3.93 3.09,6.49 5.03,9.96 1.68,2.97 5.55,6.9 6.33,9.36 -6.71,-1.77 -15.42,-12.72 -18.28,-19.61 -3.98,-9.55 -6.77,-19.56 -6.28,-31.44 1.31,-0.44 3.13,-0.62 4.75,-1.21 3.34,-1.24 9.61,-4.53 12.09,-6.83 -1.16,5.33 -3.58,6.93 -5.09,10.8zm-134.75 -10.8c5.57,5.2 11.7,6.34 16.82,8.04 0.49,11.71 -2.25,21.72 -6.12,31.07 -2.89,6.98 -11.49,18.15 -18.44,19.98 0.79,-2.46 4.66,-6.39 6.33,-9.36 5.79,-10.32 8.94,-18.69 10.27,-30.72l-0.09 -3.03c-0.02,-0.1 -0.08,-0.28 -0.14,-0.41 -1.11,1.47 -1.03,3.03 -1.22,4.79 -0.15,1.54 -0.42,3.12 -0.77,4.8 -0.67,3.23 -1.35,6.14 -2.32,9.18 -1.83,5.71 -4.62,11.37 -7.49,15.78 -1.59,2.44 -3.07,4.52 -4.82,6.53 -7.07,8.17 -9.96,8.54 -24.34,10.37 -3.55,-6.35 -3.19,-7.85 -3.2,-16.51 -0.03,-30.17 15.14,-39.96 16.26,-43.6 -4.38,0.75 -11.78,14.92 -13.55,19.72 -4.23,11.54 -3.18,16.82 -4.06,29.12 -1.01,-1.27 -1.14,-2.34 -1.62,-4.21 -4,-15.34 -0.86,-30.93 8.23,-43.54 0.78,-1.07 4.74,-6 5.64,-6.8 1.24,-1.11 1.87,-1.26 3.19,-2.5 6.17,-5.78 6.77,-4.88 13.15,-4.57 2.9,5.06 6.02,11.16 10.62,15.06 1.64,1.4 0.54,1.2 2.74,1.61 -1.5,-3.86 -3.93,-5.48 -5.07,-10.8zm122.91 6.56c0.2,-2.25 -1.05,-1.04 3.91,-3.25 7.79,-3.49 9.6,-5.91 14.65,-8.53 -0.34,3.74 -4.07,5.76 -7.15,7.62 -2.81,1.71 -7.89,4.05 -11.41,4.16zm-124.56 -11.78c2.63,1.37 5.86,3.83 9.08,5.71l7.32 3.54c1.91,0.86 1.66,0.46 2.2,1.99 -1.76,1.07 -4,-0.22 -5.89,-0.9 -4.11,-1.5 -12.39,-5.76 -12.71,-10.34zm161.25 -3.77c1.49,-1.36 3.77,-3.45 5.2,-4.26 5.18,0.55 12.04,4.97 15.39,7.51 3.72,2.82 8.68,7.83 9.58,13.54l-0.7 -0.54c-4.7,-4.02 -4.18,-5.14 -12.71,-9.66 -2.57,-1.36 -4.83,-2.4 -7.86,-3.52l-8.9 -3.07zm-209.55 16.79c1.91,-12.2 22,-21.66 24.97,-21.05 1.43,0.81 3.71,2.9 5.2,4.26 -0.99,0.76 -10.53,3.29 -16.76,6.59 -9.72,5.15 -10.77,8.5 -13.41,10.2zm193.5 -20.71l-0.48 3.95c-4.9,-0.87 -1.91,-1.07 -2.74,-0.02l0.7 0.49c0.19,0.11 0.91,0.49 1.01,0.54 -0.77,1.41 -4.39,3.86 -5.72,4.35 0.67,-1.31 -0.17,-0.27 0.71,-1.09 2.68,-2.49 1.91,0.03 1.94,-2.89 -1.64,0.86 -4.23,3.48 -6.49,5.07 -3.49,2.44 -4.34,2.65 -7.58,4.28 -14.23,7.1 -42.45,12.7 -58.3,11.81 -18.05,-1.01 -40.69,-5.4 -56.12,-14.06 -2.55,-1.43 -5.3,-3.48 -6.97,-4.94 -1.12,-0.99 -1.78,-1.73 -2.84,-2.87 -0.57,-0.62 -0.75,-0.97 -1.55,-1.27l-2.14 -0.46c-0.94,-3.26 -2.82,-13.09 -2.64,-16.49 4.29,6.11 6.27,9.72 13.51,14.14 6.5,3.98 14.96,5.52 22.68,4.08 16.19,-3.03 31.04,-17.56 38.11,-18.38 5.84,-0.67 15.12,6.44 19.08,8.93 5.77,3.62 12.5,7.31 19.47,9.02 7.48,1.83 16.35,0.96 23.13,-2.67 11.24,-6.02 10.97,-11.57 15.22,-14.07l-1.99 12.55zm-161.85 -56.17c1.24,1.3 2.26,4.05 4.25,6.72 1.43,1.92 4.14,3.88 4.46,6.89 2.09,20.13 1.28,28.62 6.47,49.88 0.84,3.43 2,6.03 2.72,9.23l-1.65 -1.41c-13.15,-15.77 -17.7,-51.07 -16.25,-71.31zm161.89 4.23c0.11,-0.09 0.28,-0.17 0.36,-0.21 2.61,-1.31 1.47,-0.17 2.29,-2.29 0.05,-0.14 0.32,-0.55 0.35,-0.8 0.03,-0.22 0.14,-0.27 0.43,-0.37l-0.04 5.24 1.84 -1.53c-0.14,2.66 0.48,6.49 -0.56,8.73 -1.12,-1.07 -3.63,-6.93 -4.67,-8.77zm-125.6 -4.14c0.63,-0.74 0.47,-0.49 1.06,-1.7 0.01,-0.02 0.52,-1.41 0.59,-1.57l0.86 2.24 -0.14 -3.23c5.17,-1.36 6.21,-1.45 8.74,-6.16 4.23,-0.12 17.62,2.05 20.76,3.34 1.78,0.74 3.42,1.6 5.65,2.59 6.17,2.76 18.09,6.7 25.57,6.61 -1,-1.07 -9.04,-4.93 -10.33,-4.71 0.41,-0.68 -1.3,-1.58 5.8,-1.83 1.61,-0.05 3.92,0.81 5.63,1.22 3.99,0.98 8.25,1.73 12.28,2.2 2.31,0.27 4.72,0.28 6.73,0.63 4.35,0.78 7.98,5.11 15,-3.15 2.65,0.55 2.62,0.23 3.12,2.49 0.15,-0.15 0.41,-0.52 0.49,-0.38 0.07,0.12 0.34,-0.27 0.43,-0.34 0.08,-0.07 0.51,-0.4 0.62,-0.54l0.57 4.32c0.54,1.85 -0.77,-0.07 0.63,1.25l-0.18 -4.39 8.91 2.58c2.31,0.66 2.18,0.06 1.75,2.12 0.55,-0.44 0.88,-0.15 1.76,-1.4l0.25 1.8c2.66,-2.13 6.99,-0.4 7.62,0.03 2.29,1.54 5.68,10.73 5.75,15.09 0.12,6.52 -0.32,4.16 -3.18,7.35 -6.11,6.81 0.78,11.68 0.05,14.53 -0.93,3.63 -5.81,9.46 -8.94,11.71 -4.04,-1.38 -5.37,-4.18 -10.68,-1.78 -4.18,1.88 -4.97,4.11 -6.05,8.92 -7.42,1.51 -17.62,-1.28 -22.78,-5.01 0.42,-2.74 2.94,-9.31 -3.38,-12.95 -4.89,-2.82 -10.57,-1.16 -12.64,2.9 -6.11,-1.06 -7.64,-6.41 -17.34,-1.27 -1.3,0.7 -4.07,2.64 -4.94,2.95 -2.78,0.98 -10.3,-5.4 -15.47,3.49 -0.48,0.8 -0.81,1.4 -1.05,2.44l-0.51 3.26c-0.4,2 -13.49,6.64 -23.84,3.6 -0.43,-4.57 -1.51,-7.4 -4.75,-9.23 -5.63,-3.21 -6.82,-0.5 -11.25,0.33 -2.65,-3.26 -6.74,-8.07 -7.77,-13.9 -0.64,-3.57 -1.93,-17.85 -1.13,-20.59l2.88 -8.08c1.17,-2.42 2.92,-4.79 4.48,-6.44 2.85,-3.02 8.09,-7.76 13.15,-9.03 1.16,0.58 1.85,1.23 2.79,1.76l3.16 1.79 -0.73 4.14zm-25.22 0.87c-1.61,-2.94 -1.57,-2.76 -0.12,-4.22 0.18,-10.42 2.1,-18.7 4.71,-28.05 2.03,-7.28 5.79,-17.7 9.2,-23.88 1.71,0.67 4.34,7.58 6.16,10.81 1.96,3.51 4.18,7.03 6.42,10.18 7.1,9.99 9.67,10.77 16.04,17.38l2.73 1.91c0.11,0.06 0.35,0.41 0.43,0.29 0.07,-0.12 0.29,0.2 0.42,0.31 1.81,1.87 5.12,3.26 6.49,5.09 -3.76,-0.23 -11.06,-1.76 -16.2,-2.31 -12.69,-1.34 -30.33,7.33 -35.54,21.14 -0.98,-2.52 -1.13,-5.73 -0.74,-8.65zm110.31 -11.73c-3.08,0.95 -5,-0.4 -6.17,-2.73 1.56,-1.01 4.92,1.47 6.17,2.73zm-52.5 -5.42c1.81,0.41 3.58,1.93 5.51,2.98l18.03 8.13c-7.16,3.44 -23.36,-10.2 -23.76,-10.88 -1.59,-0.49 -3.62,-2.03 -4.45,-3.55 1.77,0.78 3.53,1.74 4.67,3.32zm38.04 -5.39c0.94,1.5 7.19,5.36 8.77,7.02 -4.2,0.98 -6.86,-4.8 -9.66,-6.06 -1.99,-0.88 -1.39,-0.19 -2.6,-2.55 -0.87,-1.69 -0.97,-1.16 -2.17,-2.82l5.38 3.99c0.05,-0.1 0.17,0.29 0.28,0.42zm56.1 -0.96c0.82,3.85 1.47,6.74 2.14,10.75 0.33,1.93 0.82,8.23 0.4,10.32 -0.17,0.91 -0.32,0.77 -0.56,1.14 -1.17,-1.54 -1.86,-16.23 -1.85,-19 -1.34,1.38 -0.78,3.22 -0.45,5.8 0.19,1.56 0.22,3.37 0.39,5.2 0.29,3.05 0.65,7.41 0.06,10.72 -15.29,1.8 -40.77,-13.2 -52.43,-21.98 -6.18,-4.66 -13.09,-11.71 -14.87,-13.03 -3.53,-2.6 -9.1,-12.6 -11.16,-16.79 -1.28,-2.62 -4.19,-12.5 -5.01,-13.66l-0.33 2.77c1.18,6.54 8.54,20.19 12.92,25.54l6.3 7.7c6.41,7.23 14.24,13.69 22.01,19.91 1.87,1.5 6.96,4.5 7.94,5.71 -19.43,0.41 -33.31,-3.34 -48.58,-10.07 -5.71,-2.52 -13.79,-7.71 -18.21,-11.31 -10.96,-8.92 -9.12,-14.48 -12.04,-16.79 -0.72,1.67 1.4,5.61 2.29,7.36 5.44,10.68 17.14,18.48 26.92,24.83 2.2,1.43 4.23,2.4 6.59,3.82 2.45,1.47 4.99,2.13 6.69,3.66 -6.36,-0.76 -18.27,-5.07 -23.48,-8.15 -12.14,-7.2 -16.53,-10.27 -25.85,-20.7 -2.44,-2.73 -4.41,-5.53 -6.65,-8.88 -2.45,-3.62 -10.37,-19.49 -10.82,-19.87 -3.41,3 -10.44,24.51 -12.11,31.02 -3.57,13.94 -3.89,23.12 -2.85,37.89 -5,-2.46 -10.64,-13.87 -12.3,-21.84 -1.69,-8.11 -1.32,-18.79 0.48,-27.16 0.04,-0.23 0.3,-1.52 0.3,-1.74l-0.41 -1.54c-0.34,0.4 -0.3,0.25 -0.65,1.02 -0.05,0.12 -0.12,0.25 -0.17,0.38 -0.04,0.12 -0.08,0.25 -0.12,0.39l-1.02 5.84c-1.12,7.28 -1.04,16.13 0.49,23.46 2.31,11.06 1.8,3.06 1.28,15.63 -0.17,4.1 1.09,13.91 0.46,16.26 -0.51,0.33 -5.54,2.39 -6.48,2.64 -3.83,-3.49 -8.29,-18.55 -9.46,-25.09 -1.81,-10.13 -2.55,-20.66 -1.67,-31.67 4.65,-57.99 42.93,-97.49 107.32,-97.49 43.03,0 73.28,17.91 90.71,45.62 9.54,15.14 14.21,31.55 16.13,52.32 0.97,10.49 0.02,22.03 -1.79,31.68 -1.19,6.38 -5.58,21.18 -9.38,24.63 -0.94,-0.25 -5.97,-2.31 -6.47,-2.64 -0.65,-2.38 0.56,-11.81 0.47,-15.77 -0.06,-2.48 -0.39,-13.42 -1.24,-14.85 -1.42,1.46 -0.4,3.44 -0.33,6.05 0.05,2.08 -0.08,3.91 0.12,6 0.43,4.2 0.07,7.54 -0.11,11.62 -0.35,7.83 -1.18,15.53 -2.73,22.78l-4.17 14.95c-2.05,5.67 -7.61,18 -11.33,20.26 0.44,-2.53 1.77,-4.87 2.38,-7.46 0.69,-2.92 1.2,-5.08 1.82,-7.99 2.53,-11.82 3.52,-22.91 4.67,-34.83 0.58,-6.02 0.4,-12.66 1.05,-18.3 0.76,-6.51 7.84,-13.87 6.3,-32.77 -0.56,-6.92 -4.64,-26.8 -8.53,-30.78 -0.99,1.56 -0.16,2.07 0.55,3.69 3.68,8.42 5.54,16.63 6.62,25.91 0.72,6.22 0.17,12.34 -1.04,18.05 -0.64,3.01 -2.93,11.3 -5.63,13.22 -0.37,-19.49 -3.58,-32.9 -11.29,-50.41 -3.12,-7.1 -7.16,-14.55 -11.39,-19.67l-7.26 -8.28c-3.11,-2.33 -6.04,-5.74 -8.89,-6.39 1.07,2.73 13.65,9.2 22.01,25.83 5.3,10.58 8.74,19.27 11.1,30.96l0.87 3.72 1.33 -0.15zm-172.18 46.95l1.45 1.94c1.72,-1 3.54,-2.57 6.72,-2.75l0.34 0.91c1.73,6.35 0.98,14.21 6.51,28.77 0.77,2.04 3.16,7.2 3.42,8.73 -9.75,0.5 -12.79,-6.51 -15.49,-7.09 -1.86,-0.83 -0.44,-0.79 -1.75,-0.05 -6.87,3.74 -7.14,1.34 -16.47,9.19 -2.34,1.97 -11.17,11.56 -8.63,16.7 1.39,-1.11 1.76,-2.1 3.06,-3.64 7.37,-8.8 26.7,-17.44 32.2,-15.49 -1.28,3.39 -15.44,7.83 -23.2,31.68 -4.92,15.1 -0.13,32.73 6.45,43.85 6.38,-0.02 16.99,-3.12 22.32,-5.75 6.61,-3.27 11.17,-7.09 15.84,-12.57 10.35,-12.15 11.68,-25.88 12.72,-44.18 4.67,0.85 8.38,3.09 18.45,4.65l19.81 3.66c-14.77,6.1 -9.94,-3.87 -25.88,24.29 -6.48,11.43 -30.15,55.39 -39.36,60.94 -2.76,1.65 -5.94,2.64 -8.31,4.1 -4.25,2.65 -1.62,9.14 12.9,5.7 4.48,-1.06 3.98,3.41 9.89,1.93 3.29,-3.46 -0.61,-4.51 1.82,-8.34l25.67 -32.27c1.19,-1.57 8.49,-12.6 9.85,-13.59 -0.38,6.33 -6.08,27.91 -7.81,39.54 -2.48,16.66 -5.02,76.38 -2.7,91.03 0.89,5.63 5.69,22.85 11.07,24.51 3.61,1.11 6.65,0.25 8.95,-1.55 1.88,-17.4 -1.15,-33.87 4.63,-55.95 1.35,-5.17 3.57,-10.9 4.5,-15.81 -2.8,0.32 -1.66,-0.1 -2.2,-0.41 -13.73,-2.07 -15.83,15.53 -4.26,18.25l-2.5 19.51c-2.01,-1.65 -3.29,-4.45 -7.69,-3.8 -9.46,1.38 -5.61,16.21 3.43,12.88 1.99,-0.73 2.01,-1.59 3.95,-2.67l-0.73 27.6c-6.35,3.12 -9.82,1.4 -11.8,-4.09 1.8,-1.9 5.84,-2.81 4.28,-7.4 -1.5,-4.43 -4.68,-3.57 -8.78,-2.66 -2.78,-12.12 -2.47,-13.25 -2.47,-26.15 0,-9.35 -0.29,-19.02 0.54,-27.93 2.79,-1.37 6.31,-1.26 6.33,-5.69 0,-1.7 -0.92,-3.08 -1.8,-3.87 -1.77,-1.57 -2.4,-0.94 -4.22,-1.82 -0.75,-8.4 1.78,-31.76 3.62,-41.17 0.74,-3.78 2.32,-9.41 2.61,-12.51 2.49,1.11 0.1,-0.05 1.37,0.78l2.86 1.99c1.61,0.84 3.47,1.3 5.96,0.9 7.94,-1.29 10.1,-11.01 4.93,-15.92 -3.45,-3.28 -6.39,-2.65 -11.56,-1.9 0.18,-4.24 1.04,-8.03 1.52,-12.24 0.43,-3.86 0.28,-8.78 0.73,-12.74 0.28,0.02 8.1,2.74 9.91,-4.09 1.26,-4.75 -2.28,-9.05 -6.99,-8.62 -4.19,0.38 -7.44,4.82 -5.63,9.11 1.5,3.57 1.68,1.72 1.63,6.91 -0.02,2.87 -0.33,5.46 -0.35,8.31 -3.54,0.3 -5.69,0.17 -7.13,3.06 -1.88,3.74 0.71,4.83 2.3,7.26 -4.48,9.4 -21.57,27.45 -25.48,33.73 -5.26,0.04 -9.22,-1.11 -10.57,4.92 -1.08,4.81 4.61,7.39 1.94,11.75 -2.13,1.95 -6.59,-1.8 -7.49,-2.38 -5.06,1.46 -7.38,2.59 -12.93,1.17 -2.28,-0.59 -2.37,-0.57 -2.93,-2.64 0.19,-5.48 8.81,2.37 11.49,-4.89 2.49,-6.73 2.27,-4.83 7.04,-11.54 3.18,-4.47 12.87,-18.3 14.83,-22.49 4.15,0.34 7.2,1.67 9.69,-2.67 1.5,-2.6 1.24,-5.15 -0.43,-7.41l-1.23 -1.5c-0.07,-0.11 -0.2,-0.27 -0.26,-0.36 -0.06,-0.08 -0.19,-0.22 -0.26,-0.35 0.8,-2.95 6.21,-12.08 7.95,-15.1 2.27,-3.95 9.89,-19.05 13.67,-21.04 2.34,-1.22 6.22,-2.55 9.07,-2.1 5.79,0.93 4.24,-2.09 8.39,-2.14 3.48,-0.04 8.13,0.12 11.75,0.23 -0.04,3.18 -2.33,3.75 -0.76,8.45 3.33,10 17.67,7.65 18.04,-1.68l-0.61 -3.85c0.64,-0.56 0.65,-0.81 1.5,-1.23l-8.27 -2.21c0.71,-0.78 4.03,-0.95 5.07,-1.1 1.41,-0.21 3.01,-0.57 4.65,-0.86l19.63 -3.74c2.58,-0.7 6.27,-2.2 8.93,-2.69 1.41,24.65 4.95,44.73 28.22,56.57 5.23,2.66 16.08,5.91 22.67,5.93 14.61,-24.69 9.77,-54.65 -12.91,-72.03 -1.57,-1.21 -3.11,-1.53 -3.84,-3.5 5.49,-1.95 24.6,6.64 31.96,15.21 1.31,1.53 1.86,2.77 3.29,3.92 2.46,-4.97 -5.99,-14.5 -8.34,-16.47 -9.93,-8.3 -9.43,-5.43 -16.76,-9.42 -1.31,-0.74 0.12,-0.78 -1.75,0.05 -2.7,0.58 -5.73,7.59 -15.48,7.09 0.07,-0.44 4.9,-12.41 6.27,-17.78 0.81,-3.12 1.54,-6.6 2.12,-9.69l1.88 -10.94c3.17,0.18 4.99,1.75 6.71,2.75l1.45 -1.94c3.54,-3.38 7.95,-18.52 9.1,-24.52 1.96,-10.24 2.43,-21.26 1.67,-32.41 -3.79,-56.37 -43.6,-98.11 -107.88,-98.1 -42.68,0 -75.51,18.65 -91.77,45.66 -14.94,24.81 -20.39,54.7 -15.04,84.41 1.1,6.1 5.64,21.58 9.18,24.96z"/>
    <path class="fil9" d="M228.95 407.35l0.15 8.23c2.35,1.76 5.14,2.57 8.64,1.66 5.85,-1.51 10.46,-18.66 11.4,-24.19 2.59,-15.15 -0.33,-73.87 -2.56,-91.12 -1.7,-13.28 -7.38,-31.72 -7.88,-39.88 1.35,0.96 5.25,7.2 6.4,8.78l13.43 17.58c1.76,2.2 5.28,7.01 7.02,8.42 1.11,-0.39 0.64,-0.01 1.41,-0.59 3.26,-2.83 3.91,-6.9 1.03,-10.07 -4.08,-4.5 -8.64,-0.78 -10.05,-0.35 -1.29,-0.95 -7.55,-8.78 -8.35,-10.26 -1.65,-3.06 3.66,-9.62 -7.12,-9.92 -2.14,-3.84 -4.24,-5.27 -4.89,-10.55 -0.32,-2.6 -0.44,-13.5 -0.84,-14.51l-0.66 1.85c-0.37,2.91 0.45,11.75 0.76,14.44 0.5,4.43 1.41,11.01 2.5,15.19 1.73,6.56 5.97,22.54 5.93,29.52 -3.98,-1.17 -5.94,-4.28 -11.58,-1.12 -3.2,1.79 -5.37,5.3 -4.68,9.72 1.22,7.82 11.68,10.95 17.04,3.64 0.1,0.1 0.19,0.27 0.25,0.36l2.03 25.67c-5.56,-0.55 -9.78,1.36 -9.29,7.11 0.56,6.47 6.54,5.93 9.72,5.58 0.73,15.11 1.23,40.96 -3.8,52.29 -3.51,-0.52 -6.17,-2.04 -8.25,2.11 -0.76,1.51 -0.7,3.53 0.3,4.93 1.71,2.38 2.14,0.57 2.45,3.36 -2.66,2.46 -6.57,1.33 -9.35,-0.05 -0.26,-3.53 -0.54,-8.08 -0.55,-11.31 0,-2.48 0.37,-8.57 -0.3,-10.77l-0.31 14.25z"/>
    <path class="fil9" d="M228.06 384.26c0.93,3.06 -0.69,1.87 1.03,7.93l0.42 -2.56c3.38,1.59 5.66,3.95 10.69,1.64 3.28,-1.5 5.76,-4.55 5.47,-9.15 -0.25,-4.23 -3.02,-7.2 -6.88,-8.35 -4.95,-1.49 -7.51,1.36 -10.24,3.18l-1.59 -12.41c2.01,-1.44 6.74,-2.08 5.52,-7.05 -1.42,-5.8 -8.48,-3.38 -8.48,-3.38l-4.82 -16.99c2.49,-1.57 6.27,-2.96 4.48,-7.48 -1.51,-3.78 -4.43,-3.07 -7.99,-2.79l-1.68 0.1 0.01 -0.7c2.43,3.95 7.09,21.19 8.76,26.94 1.22,4.19 3.05,9.89 3.69,14.35 0.74,5.22 0.92,11.09 1.61,16.72z"/>
    <path class="fil9" d="M203.56 139.8c-13.31,2.72 -8.65,20.54 3.14,18.34 12.18,-2.27 8.23,-20.65 -3.14,-18.34z"/>
    <path class="fil9" d="M291.84 305.85l0.89 -0.19c-5.11,-2.09 -10.03,-9.83 -13.12,-14.53 -12.66,-19.22 -15.2,-23.47 -26.21,-43.58 -1.35,-2.47 -3.16,-6.13 -5.03,-8.68l-0.77 0.12c-0.68,2.6 -4.46,4.49 -2.12,9.26 1.66,3.38 4.1,3.54 8.84,3.51 1.94,2.3 10.57,18.8 13.91,23.89 2.61,3.97 4.72,7.25 7.37,11.24 2.34,3.52 6.1,8.05 7.81,11.43 -1.08,3.4 -2.91,4.63 0.37,7.78 3.26,3.13 4.98,0.69 8.06,-0.25z"/>
    <path class="fil9" d="M193.83 313.32c2.33,-8.1 -10.78,-11.78 -12.86,-3.53 -2.28,9 10.42,12.02 12.86,3.53z"/>
    <path class="fil9" d="M226.07 263.71c-8.65,3.92 -2.69,15.44 5.24,12.15 7.56,-3.14 3.03,-15.89 -5.24,-12.15z"/>
    <path class="fil9" d="M213.32 291.36c-6.98,2.89 -2.51,11.92 3.4,9.71 6.26,-2.32 2.91,-12.31 -3.4,-9.71z"/>
    <path class="fil9" d="M210.39 245.46c-7.54,2.97 -2.41,11.93 3.31,9.73 6.13,-2.36 2.74,-12.11 -3.31,-9.73z"/>
    <path class="fil9" d="M219.55 196.4c2.41,-3.13 5.46,-0.2 5.72,0.53 0.55,1.55 -0.93,3.45 -0.93,3.45 -2.23,-0.16 -4.04,-1.97 -4.79,-3.98zm-2.68 -0.05c0.16,0.03 0.77,0.21 0.89,0.27 2.02,1 0.47,0.25 1.22,0.86 1.86,1.83 4.17,2.83 4.11,6.05 0.08,-0.09 0.22,-0.16 0.28,-0.2 0.09,-0.04 0.34,-0.03 0.41,-0.23 0.08,-0.25 0.34,-0.17 0.49,-0.29 1.17,-1.59 1.97,-4.51 1.58,-6.92 -1.72,-0.98 -3.22,-1.91 -5.12,-1.94l-0.68 0.64 -3.18 1.76z"/>
   </g>
   <g>
    <path class="fil10" d="M193.83 313.32c-2.44,8.49 -15.14,5.47 -12.86,-3.53 2.08,-8.25 15.19,-4.57 12.86,3.53zm19.49 -21.96c6.31,-2.6 9.66,7.39 3.4,9.71 -5.91,2.21 -10.38,-6.82 -3.4,-9.71zm12.75 -27.65c8.27,-3.74 12.8,9.01 5.24,12.15 -7.93,3.29 -13.89,-8.23 -5.24,-12.15zm-15.68 -18.25c6.05,-2.38 9.44,7.37 3.31,9.73 -5.72,2.2 -10.85,-6.76 -3.31,-9.73zm-9.33 97.95c1.68,-0.21 1.21,0.42 2.66,-4.59 1.11,-3.84 3.86,-12.6 5.33,-15.39l5.22 -0.12 1.4 3.54c3.56,-0.28 6.48,-0.99 7.99,2.79 1.79,4.52 -1.99,5.91 -4.48,7.48l4.82 16.99c0,0 7.06,-2.42 8.48,3.38 1.22,4.97 -3.51,5.61 -5.52,7.05l1.59 12.41c2.73,-1.82 5.29,-4.67 10.24,-3.18 3.86,1.15 6.63,4.12 6.88,8.35 0.29,4.6 -2.19,7.65 -5.47,9.15 -5.03,2.31 -7.31,-0.05 -10.69,-1.64l-0.42 2.56c-1.72,-6.06 -0.1,-4.87 -1.03,-7.93l0.89 23.09 0.31 -14.25c0.67,2.2 0.3,8.29 0.3,10.77 0.01,3.23 0.29,7.78 0.55,11.31 2.78,1.38 6.69,2.51 9.35,0.05 -0.31,-2.79 -0.74,-0.98 -2.45,-3.36 -1,-1.4 -1.06,-3.42 -0.3,-4.93 2.08,-4.15 4.74,-2.63 8.25,-2.11 5.03,-11.33 4.53,-37.18 3.8,-52.29 -3.18,0.35 -9.16,0.89 -9.72,-5.58 -0.49,-5.75 3.73,-7.66 9.29,-7.11l-2.03 -25.67c-0.06,-0.09 -0.15,-0.26 -0.25,-0.36 -5.36,7.31 -15.82,4.18 -17.04,-3.64 -0.69,-4.42 1.48,-7.93 4.68,-9.72 5.64,-3.16 7.6,-0.05 11.58,1.12 0.04,-6.98 -4.2,-22.96 -5.93,-29.52 -1.09,-4.18 -2,-10.76 -2.5,-15.19 -0.31,-2.69 -1.13,-11.53 -0.76,-14.44l0.66 -1.85c0.4,1.01 0.52,11.91 0.84,14.51 0.65,5.28 2.75,6.71 4.89,10.55 10.78,0.3 5.47,6.86 7.12,9.92 0.8,1.48 7.06,9.31 8.35,10.26 1.41,-0.43 5.97,-4.15 10.05,0.35 2.88,3.17 2.23,7.24 -1.03,10.07 0.51,1.8 5.03,6.9 6.5,8.83 5.31,6.99 0.88,5.03 2.99,10.32 3.53,0.21 4.64,-1.01 7.35,-2.97 3.9,1.42 14.86,4.09 15.21,-1.69 -1.73,-2.28 -5.25,-2.36 -7.17,-4.88 -3.08,0.94 -4.8,3.38 -8.06,0.25 -3.28,-3.15 -1.45,-4.38 -0.37,-7.78 -1.71,-3.38 -5.47,-7.91 -7.81,-11.43 -2.65,-3.99 -4.76,-7.27 -7.37,-11.24 -3.34,-5.09 -11.97,-21.59 -13.91,-23.89 -4.74,0.03 -7.18,-0.13 -8.84,-3.51 -2.34,-4.77 1.44,-6.66 2.12,-9.26 -0.84,-0.73 0.04,0.49 -1.07,-1.2 -3.98,-6.06 -5.87,-13.7 -13.64,-15.13l-0.25 4c-0.37,9.33 -14.71,11.68 -18.04,1.68 -1.57,-4.7 0.72,-5.27 0.76,-8.45 -3.62,-0.11 -8.27,-0.27 -11.75,-0.23 -4.15,0.05 -2.6,3.07 -8.39,2.14 -2.85,-0.45 -6.73,0.88 -9.07,2.1 -3.78,1.99 -11.4,17.09 -13.67,21.04 -1.74,3.02 -7.15,12.15 -7.95,15.1 0.07,0.13 0.2,0.27 0.26,0.35 0.06,0.09 0.19,0.25 0.26,0.36l1.23 1.5c1.67,2.26 1.93,4.81 0.43,7.41 -2.49,4.34 -5.54,3.01 -9.69,2.67 -1.96,4.19 -11.65,18.02 -14.83,22.49 -4.77,6.71 -4.55,4.81 -7.04,11.54 -2.68,7.26 -11.3,-0.59 -11.49,4.89 0.56,2.07 0.65,2.05 2.93,2.64 5.55,1.42 7.87,0.29 12.93,-1.17 0.9,0.58 5.36,4.33 7.49,2.38 2.67,-4.36 -3.02,-6.94 -1.94,-11.75 1.35,-6.03 5.31,-4.88 10.57,-4.92 3.91,-6.28 21,-24.33 25.48,-33.73 -1.59,-2.43 -4.18,-3.52 -2.3,-7.26 1.44,-2.89 3.59,-2.76 7.13,-3.06 0.02,-2.85 0.33,-5.44 0.35,-8.31 0.05,-5.19 -0.13,-3.34 -1.63,-6.91 -1.81,-4.29 1.44,-8.73 5.63,-9.11 4.71,-0.43 8.25,3.87 6.99,8.62 -1.81,6.83 -9.63,4.11 -9.91,4.09 -0.45,3.96 -0.3,8.88 -0.73,12.74 -0.48,4.21 -1.34,8 -1.52,12.24 5.17,-0.75 8.11,-1.38 11.56,1.9 5.17,4.91 3.01,14.63 -4.93,15.92 -2.49,0.4 -4.35,-0.06 -5.96,-0.9l-2.86 -1.99c-1.27,-0.83 1.12,0.33 -1.37,-0.78 -0.29,3.1 -1.87,8.73 -2.61,12.51 -1.84,9.41 -4.37,32.77 -3.62,41.17 1.82,0.88 2.45,0.25 4.22,1.82 0.88,0.79 1.8,2.17 1.8,3.87 -0.02,4.43 -3.54,4.32 -6.33,5.69 -0.83,8.91 -0.54,18.58 -0.54,27.93 0,12.9 -0.31,14.03 2.47,26.15 4.1,-0.91 7.28,-1.77 8.78,2.66 1.56,4.59 -2.48,5.5 -4.28,7.4 1.98,5.49 5.45,7.21 11.8,4.09l0.73 -27.6c-1.94,1.08 -1.96,1.94 -3.95,2.67 -9.04,3.33 -12.89,-11.5 -3.43,-12.88 4.4,-0.65 5.68,2.15 7.69,3.8l2.5 -19.51c-11.57,-2.72 -9.47,-20.32 4.26,-18.25z"/>
    <path class="fil10" d="M203.56 139.8c11.37,-2.31 15.32,16.07 3.14,18.34 -11.79,2.2 -16.45,-15.62 -3.14,-18.34zm-41.31 -4.42l1.51 3.13c7.3,0.54 15.38,1.92 19.25,8.2 0.93,1.5 2.67,4.25 1.86,5.6 0.57,4.05 0.98,5.34 0.77,9.66 -0.57,-0.63 -0.47,-0.23 -1.11,-1.45 2.33,7.4 0.93,14.79 -3.28,20.2 -1.78,2.3 -4.62,4.12 -8,4.96 -4.69,1.17 -7.11,0.03 -10.97,-1.06 -2.59,1.12 -6.41,-1.68 -10.47,-3.13 -2.88,1.26 -8.02,-5.81 -9.36,-9.21 -2.55,-6.43 -1,-10.47 -0.17,-16.95 -2.95,-0.86 -5.33,-1.04 -6.5,-4.08 7.26,0.72 7.9,1.76 13,-6.57 -1.8,-3.74 -2.89,-4.11 -2.64,-8.94l2.27 3.16c4.04,4.24 8.58,0.94 11.26,0.49l0.07 -2.98 0.73 -4.14 -3.16 -1.79c-0.94,-0.53 -1.63,-1.18 -2.79,-1.76 -5.06,1.27 -10.3,6.01 -13.15,9.03 -1.56,1.65 -3.31,4.02 -4.48,6.44l-2.88 8.08c-0.8,2.74 0.49,17.02 1.13,20.59 1.03,5.83 5.12,10.64 7.77,13.9 4.43,-0.83 5.62,-3.54 11.25,-0.33 3.24,1.83 4.32,4.66 4.75,9.23 10.35,3.04 23.44,-1.6 23.84,-3.6l0.51 -3.26c0.24,-1.04 0.57,-1.64 1.05,-2.44 5.17,-8.89 12.69,-2.51 15.47,-3.49 0.87,-0.31 3.64,-2.25 4.94,-2.95 9.7,-5.14 11.23,0.21 17.34,1.27 2.07,-4.06 7.75,-5.72 12.64,-2.9 6.32,3.64 3.8,10.21 3.38,12.95 5.16,3.73 15.36,6.52 22.78,5.01 1.08,-4.81 1.87,-7.04 6.05,-8.92 5.31,-2.4 6.64,0.4 10.68,1.78 3.13,-2.25 8.01,-8.08 8.94,-11.71 0.73,-2.85 -6.16,-7.72 -0.05,-14.53 2.86,-3.19 3.3,-0.83 3.18,-7.35 -0.07,-4.36 -3.46,-13.55 -5.75,-15.09 -0.63,-0.43 -4.96,-2.16 -7.62,-0.03 -0.08,2.31 -0.7,2.13 -1.74,4.28 5.09,8.33 5.73,7.29 12.99,6.57 -1.25,2.97 -3.4,3.18 -6.5,4.08 0.87,6.67 2.45,10.89 -0.32,17.32 -1.38,3.2 -6.36,10.09 -9.21,8.84 -2.67,0.95 -4.86,2.47 -7.77,3.16l-2.7 -0.03c-3.85,1.09 -6.26,2.23 -10.97,1.06 -3.38,-0.84 -6.22,-2.66 -7.99,-4.96 -4.21,-5.41 -5.62,-12.8 -3.28,-20.2l-1.12 1.45c-0.21,-4.32 0.21,-5.61 0.78,-9.66 -0.84,-1.4 1.02,-4.33 2.05,-5.91 3.88,-6 11.95,-7.37 19.12,-7.87l1.43 -3.15c-0.5,-2.26 -0.47,-1.94 -3.12,-2.49 -7.02,8.26 -10.65,3.93 -15,3.15 -2.01,-0.35 -4.42,-0.36 -6.73,-0.63 -4.03,-0.47 -8.29,-1.22 -12.28,-2.2 -1.71,-0.41 -4.02,-1.27 -5.63,-1.22 -7.1,0.25 -5.39,1.15 -5.8,1.83 1.29,-0.22 9.33,3.64 10.33,4.71 -7.48,0.09 -19.4,-3.85 -25.57,-6.61 -2.23,-0.99 -3.87,-1.85 -5.65,-2.59 -3.14,-1.29 -16.53,-3.46 -20.76,-3.34 -2.53,4.71 -3.57,4.8 -8.74,6.16l0.14 3.23z"/>
    <path class="fil10" d="M80.74 188.17c14.32,-1.53 15.61,-4.19 32.19,-0.91l-2.37 -5.85c-6.28,-1.58 -11.56,-2.33 -18.1,-1.67 -7.03,0.7 -10.35,1.2 -11.72,8.43z"/>
    <path class="fil10" d="M310.49 187.29c16.11,-3.34 18.11,-0.62 32.09,0.88 -0.41,-2.19 -1.99,-5.86 -3.54,-6.72 -5.59,-3.1 -19.69,-1.69 -26.47,-0.11l-2.08 5.95z"/>
    <path class="fil10" d="M149.18 205.89c-3.22,-1.88 -6.45,-4.34 -9.08,-5.71 0.32,4.58 8.6,8.84 12.71,10.34 1.89,0.68 4.13,1.97 5.89,0.9 -0.54,-1.53 -0.29,-1.13 -2.2,-1.99l-7.32 -3.54z"/>
    <path class="fil10" d="M264.66 211.96c3.52,-0.11 8.6,-2.45 11.41,-4.16 3.08,-1.86 6.81,-3.88 7.15,-7.62 -5.05,2.62 -6.86,5.04 -14.65,8.53 -4.96,2.21 -3.71,1 -3.91,3.25z"/>
    <path class="fil10" d="M263.8 139.69c2.63,-0.19 3.05,1 5.1,1.34 3.06,0.51 3.72,-1.27 5.38,-1.03 0.43,-2.06 0.56,-1.46 -1.75,-2.12l-8.91 -2.58 0.18 4.39z"/>
   </g>
   <g>
    <path class="fil11" d="M286.6 116.99c-0.17,-0.74 -0.21,-0.65 -0.29,-1.42 -0.02,-0.15 -0.07,-0.68 -0.06,-0.83 0.02,-0.96 0.15,-0.78 0.22,-0.96l-1.33 0.15 -0.87 -3.72c-2.36,-11.69 -5.8,-20.38 -11.1,-30.96 -8.36,-16.63 -20.94,-23.1 -22.01,-25.83 2.85,0.65 5.78,4.06 8.89,6.39l7.26 8.28c4.23,5.12 8.27,12.57 11.39,19.67 7.71,17.51 10.92,30.92 11.29,50.41 2.7,-1.92 4.99,-10.21 5.63,-13.22 1.21,-5.71 1.76,-11.83 1.04,-18.05 -1.08,-9.28 -2.94,-17.49 -6.62,-25.91 -0.71,-1.62 -1.54,-2.13 -0.55,-3.69 3.89,3.98 7.97,23.86 8.53,30.78 1.54,18.9 -5.54,26.26 -6.3,32.77 -0.65,5.64 -0.47,12.28 -1.05,18.3 -1.15,11.92 -2.14,23.01 -4.67,34.83 -0.62,2.91 -1.13,5.07 -1.82,7.99 -0.61,2.59 -1.94,4.93 -2.38,7.46 3.72,-2.26 9.28,-14.59 11.33,-20.26l4.17 -14.95c1.55,-7.25 2.38,-14.95 2.73,-22.78 0.18,-4.08 0.54,-7.42 0.11,-11.62 -0.2,-2.09 -0.07,-3.92 -0.12,-6 -0.07,-2.61 -1.09,-4.59 0.33,-6.05 0.85,1.43 1.18,12.37 1.24,14.85 0.09,3.96 -1.12,13.39 -0.47,15.77 0.5,0.33 5.53,2.39 6.47,2.64 3.8,-3.45 8.19,-18.25 9.38,-24.63 1.81,-9.65 2.76,-21.19 1.79,-31.68 -1.92,-20.77 -6.59,-37.18 -16.13,-52.32 -17.43,-27.71 -47.68,-45.62 -90.71,-45.62 -64.39,0 -102.67,39.5 -107.32,97.49 -0.88,11.01 -0.14,21.54 1.67,31.67 1.17,6.54 5.63,21.6 9.46,25.09 0.94,-0.25 5.97,-2.31 6.48,-2.64 0.63,-2.35 -0.63,-12.16 -0.46,-16.26 0.52,-12.57 1.03,-4.57 -1.28,-15.63 -1.53,-7.33 -1.61,-16.18 -0.49,-23.46l1.02 -5.84c0.04,-0.14 0.08,-0.27 0.12,-0.39 0.05,-0.13 0.12,-0.26 0.17,-0.38 0.35,-0.77 0.31,-0.62 0.65,-1.02l0.41 1.54c0,0.22 -0.26,1.51 -0.3,1.74 -1.8,8.37 -2.17,19.05 -0.48,27.16 1.66,7.97 7.3,19.38 12.3,21.84 -1.04,-14.77 -0.72,-23.95 2.85,-37.89 1.67,-6.51 8.7,-28.02 12.11,-31.02 0.45,0.38 8.37,16.25 10.82,19.87 2.24,3.35 4.21,6.15 6.65,8.88 9.32,10.43 13.71,13.5 25.85,20.7 5.21,3.08 17.12,7.39 23.48,8.15 -1.7,-1.53 -4.24,-2.19 -6.69,-3.66 -2.36,-1.42 -4.39,-2.39 -6.59,-3.82 -9.78,-6.35 -21.48,-14.15 -26.92,-24.83 -0.89,-1.75 -3.01,-5.69 -2.29,-7.36 2.92,2.31 1.08,7.87 12.04,16.79 4.42,3.6 12.5,8.79 18.21,11.31 15.27,6.73 29.15,10.48 48.58,10.07 -0.98,-1.21 -6.07,-4.21 -7.94,-5.71 -7.77,-6.22 -15.6,-12.68 -22.01,-19.91l-6.3 -7.7c-4.38,-5.35 -11.74,-19 -12.92,-25.54l0.33 -2.77c0.82,1.16 3.73,11.04 5.01,13.66 2.06,4.19 7.63,14.19 11.16,16.79 1.78,1.32 8.69,8.37 14.87,13.03 11.66,8.78 37.14,23.78 52.43,21.98 0.59,-3.31 0.23,-7.67 -0.06,-10.72 -0.17,-1.83 -0.2,-3.64 -0.39,-5.2 -0.33,-2.58 -0.89,-4.42 0.45,-5.8z"/>
    <path class="fil11" d="M276.5 216.2c1.51,-3.87 3.93,-5.47 5.09,-10.8 -2.48,2.3 -8.75,5.59 -12.09,6.83 -1.62,0.59 -3.44,0.77 -4.75,1.21 -0.49,11.88 2.3,21.89 6.28,31.44 2.86,6.89 11.57,17.84 18.28,19.61 -0.78,-2.46 -4.65,-6.39 -6.33,-9.36 -1.94,-3.47 -3.26,-6.03 -5.03,-9.96 -1.4,-3.06 -2.82,-7.94 -3.63,-11.4 -0.43,-1.77 -1.92,-9.41 -1.7,-11.56 0.16,-1.69 -0.02,-0.49 0.32,-1.24 1.24,1.64 2.07,12 4.44,19.15 1.84,5.58 4.53,11.05 7.36,15.4 8.96,13.78 12.96,14.84 29.16,16.9 3.66,-6.53 3.18,-8.17 3.21,-17.03 0.06,-29.37 -15.16,-39.47 -16.25,-43.08 2.72,0.46 3.02,2.11 4.44,3.98 12.88,16.92 11.65,23.81 13.15,44.86 0.85,-1.07 0.58,-0.67 1.05,-2.12 1.85,-5.61 2.66,-13.29 2.19,-19.18 -0.6,-7.38 -2.53,-13.29 -5.41,-19 -2.16,-4.28 -6.76,-11.29 -10.08,-14.25 -8.35,-7.46 -8.84,-7.44 -16.34,-7.07 -2.33,4.07 -5.7,10.06 -8.99,13.63 -0.52,0.57 -1.32,1.21 -1.9,1.68 -1.65,1.36 -0.2,0.94 -2.47,1.36z"/>
    <path class="fil11" d="M141.75 205.4c1.14,5.32 3.57,6.94 5.07,10.8 -2.2,-0.41 -1.1,-0.21 -2.74,-1.61 -4.6,-3.9 -7.72,-10 -10.62,-15.06 -6.38,-0.31 -6.98,-1.21 -13.15,4.57 -1.32,1.24 -1.95,1.39 -3.19,2.5 -0.9,0.8 -4.86,5.73 -5.64,6.8 -9.09,12.61 -12.23,28.2 -8.23,43.54 0.48,1.87 0.61,2.94 1.62,4.21 0.88,-12.3 -0.17,-17.58 4.06,-29.12 1.77,-4.8 9.17,-18.97 13.55,-19.72 -1.12,3.64 -16.29,13.43 -16.26,43.6 0.01,8.66 -0.35,10.16 3.2,16.51 14.38,-1.83 17.27,-2.2 24.34,-10.37 1.75,-2.01 3.23,-4.09 4.82,-6.53 2.87,-4.41 5.66,-10.07 7.49,-15.78 0.97,-3.04 1.65,-5.95 2.32,-9.18 0.35,-1.68 0.62,-3.26 0.77,-4.8 0.19,-1.76 0.11,-3.32 1.22,-4.79 0.06,0.13 0.12,0.31 0.14,0.41l0.09 3.03c-1.33,12.03 -4.48,20.4 -10.27,30.72 -1.67,2.97 -5.54,6.9 -6.33,9.36 6.95,-1.83 15.55,-13 18.44,-19.98 3.87,-9.35 6.61,-19.36 6.12,-31.07 -5.12,-1.7 -11.25,-2.84 -16.82,-8.04z"/>
    <path class="fil11" d="M123.45 136.32c-1.45,20.24 3.1,55.54 16.25,71.31l1.65 1.41c-0.72,-3.2 -1.88,-5.8 -2.72,-9.23 -5.19,-21.26 -4.38,-29.75 -6.47,-49.88 -0.32,-3.01 -3.03,-4.97 -4.46,-6.89 -1.99,-2.67 -3.01,-5.42 -4.25,-6.72z"/>
    <path class="fil11" d="M91.8 213.2c2.64,-1.7 3.69,-5.05 13.41,-10.2 6.23,-3.3 15.77,-5.83 16.76,-6.59 -1.49,-1.36 -3.77,-3.45 -5.2,-4.26 -2.97,-0.61 -23.06,8.85 -24.97,21.05z"/>
    <path class="fil11" d="M310.25 199.48c3.03,1.12 5.29,2.16 7.86,3.52 8.53,4.52 8.01,5.64 12.71,9.66l0.7 0.54c-0.9,-5.71 -5.86,-10.72 -9.58,-13.54 -3.35,-2.54 -10.21,-6.96 -15.39,-7.51 -1.43,0.81 -3.71,2.9 -5.2,4.26l8.9 3.07z"/>
    <path class="fil11" d="M280.72 197.82c-0.03,2.92 0.74,0.4 -1.94,2.89 -0.88,0.82 -0.04,-0.22 -0.71,1.09 1.33,-0.49 4.95,-2.94 5.72,-4.35 -0.1,-0.05 -0.82,-0.43 -1.01,-0.54l-0.7 -0.49 -0.57 0c-1.49,1.27 -0.46,0.2 -0.79,1.4z"/>
   </g>
   <path class="fil12" d="M223.09 203.53c0.06,-3.22 -2.25,-4.22 -4.11,-6.05 -2.87,-0.29 -3.52,0.44 -6.02,0.51 -2.02,0.06 -3.67,-0.47 -5.48,-0.65 -2.68,-0.26 -6.8,2.93 -6.72,4.77 1.24,3.02 5.8,7.45 10.64,7.73 5,0.29 6.96,-1.04 9.79,-4.13 0.53,-0.57 0.46,-0.57 0.93,-1.16 0.07,-0.07 0.17,-0.22 0.22,-0.29l0.75 -0.73z"/>
   <path class="fil13" d="M134.4 133.06c-1.45,1.46 -1.49,1.28 0.12,4.22l4.46 -3.48c1.63,-1.18 2.51,-2.08 4.42,-3.33 10.7,-6.96 23.56,-10.95 37.11,-8.46 -0.13,-0.11 -0.35,-0.43 -0.42,-0.31 -0.08,0.12 -0.32,-0.23 -0.43,-0.29l-2.73 -1.91c0.04,0.62 0.83,0.72 -2.72,0.7 -4.6,-0.02 -5.53,-0.14 -10.44,0.71 -4.41,0.76 -7.37,1.97 -11.44,3.46 -8.62,3.15 -16.32,10.8 -18.15,11.54l0.22 -2.85z"/>
  </g>
 </g>
</svg>
