<?xml version="1.0" encoding="UTF-8"?>
<!DOCTYPE svg PUBLIC "-//W3C//DTD SVG 1.1//EN" "http://www.w3.org/Graphics/SVG/1.1/DTD/svg11.dtd">
<!-- Creator: CorelDRAW -->
<svg xmlns="http://www.w3.org/2000/svg" xml:space="preserve" width="16.9332mm" height="16.9332mm" style="shape-rendering:geometricPrecision; text-rendering:geometricPrecision; image-rendering:optimizeQuality; fill-rule:evenodd; clip-rule:evenodd"
viewBox="0 0 16.9332 16.9332"
 xmlns:xlink="http://www.w3.org/1999/xlink">
 <defs>
  <style type="text/css">
   <![CDATA[
    .fil1 {fill:black}
    .fil0 {fill:#F3F3F5}
   ]]>
  </style>
 </defs>
 <g id="Capa_x0020_1">
  <metadata id="CorelCorpID_0Corel-Layer"/>
  <g id="_415514128">
   <path id="_408350480" class="fil0" d="M9.0291 6.2292c0.1024,0.7367 -0.5339,1.5413 -0.9743,0.7713 -0.1482,-0.2593 -0.3028,-0.724 0.0124,-0.883 0.3441,-0.1735 0.7564,-0.0551 0.9619,0.1117zm-5.7679 6.2267l4.7697 0.0119c-0.0524,-1.0635 -0.1834,-2.7894 -0.7164,-3.6744 -0.0585,-0.0972 -0.0931,-0.1545 -0.1656,-0.2556 -0.1991,-0.2776 -0.9254,-0.8383 -0.9278,-0.8414l-0.12 -0.3048c0.1933,-0.1267 0.3349,0.0395 0.5724,0.2307 0.2472,0.1991 0.2478,0.2032 0.4787,0.4487 0.0822,0.0875 0.1412,0.1305 0.2257,0.2374 0.2583,0.3263 0.2151,0.2395 0.9315,0.3695l0.0449 -0.4271 0.2143 0.0109 0.1983 0.3927c0.2629,0.0976 0.4823,-0.0105 0.624,-0.1612 0.2516,-0.2677 0.5888,-0.7055 0.8817,-0.8859l0.5595 -0.2276c0.0715,0.2933 -0.0954,0.2872 -0.6018,0.6901 -0.2768,0.2202 -0.8354,0.9401 -0.9335,1.3357l-0.5041 3.062 5.0759 -0.0069c0.2899,-1.2405 0.6339,-2.5042 0.6899,-3.869 0.0816,-1.9893 -0.0715,-2.2662 -0.4787,-4.123l-11.0582 0.0139c-0.6302,2.2421 -0.6591,3.8267 -0.2213,6.1295 0.0653,0.3434 0.3304,1.6218 0.4609,1.8439z"/>
   <path id="_374634840" class="fil1" d="M0.7839 7.7938c0,-0.2475 0.0182,-0.3332 0.2881,-0.2976l0.1129 0.381 -0.0114 1.4932 -0.0973 0.0993 -0.2923 -0.3287 0 -1.3472zm14.7635 0.0669c0.9081,-0.3064 1.1978,1.0369 0.3975,1.2485 -0.8379,0.2217 -1.177,-0.9855 -0.3975,-1.2485zm-12.2862 4.5952c-0.1305,-0.2221 -0.3956,-1.5005 -0.4609,-1.8439 -0.4378,-2.3028 -0.4089,-3.8874 0.2213,-6.1295l11.0582 -0.0139c0.4072,1.8568 0.5603,2.1337 0.4787,4.123 -0.056,1.3648 -0.4,2.6285 -0.6899,3.869l-5.0759 0.0069 0.5041 -3.062c0.0981,-0.3956 0.6567,-1.1155 0.9335,-1.3357 0.5064,-0.4029 0.6733,-0.3968 0.6018,-0.6901l-0.5595 0.2276c-0.2929,0.1804 -0.6301,0.6182 -0.8817,0.8859 -0.1417,0.1507 -0.3611,0.2588 -0.624,0.1612l-0.1983 -0.3927 -0.2143 -0.0109 -0.0449 0.4271c-0.7164,-0.13 -0.6732,-0.0432 -0.9315,-0.3695 -0.0845,-0.1069 -0.1435,-0.1499 -0.2257,-0.2374 -0.2309,-0.2455 -0.2315,-0.2496 -0.4787,-0.4487 -0.2375,-0.1912 -0.3791,-0.3574 -0.5724,-0.2307l0.12 0.3048c0.0024,0.0031 0.7287,0.5638 0.9278,0.8414 0.0725,0.1011 0.1071,0.1584 0.1656,0.2556 0.533,0.885 0.664,2.6109 0.7164,3.6744l-4.7697 -0.0119zm-3.2259 -0.831c0.0566,0.358 0.3553,0.7618 0.6521,0.9306 0.407,0.2315 0.8672,0.1963 1.395,0.1963l12.7562 0c0.7197,0 1.8066,0.0574 2.0497,-1.0959 0.0534,-0.2533 0.0627,-6.008 0.0087,-6.3424 -0.0665,-0.4115 -0.3597,-0.7733 -0.6639,-0.9348 -0.4682,-0.2485 -0.8314,-0.1941 -1.3945,-0.1941l-12.7562 0c-0.571,0 -0.9429,-0.055 -1.3937,0.1958 -0.2774,0.1544 -0.5677,0.5074 -0.6456,0.9018 -0.0519,0.2631 -0.0599,6.013 -0.0078,6.3427z"/>
   <path id="_415514776" class="fil0" d="M15.5474 7.8607c-0.7795,0.263 -0.4404,1.4702 0.3975,1.2485 0.8003,-0.2116 0.5106,-1.5549 -0.3975,-1.2485z"/>
   <path id="_415514824" class="fil1" d="M9.0291 6.2292c-0.2055,-0.1668 -0.6178,-0.2852 -0.9619,-0.1117 -0.3152,0.159 -0.1606,0.6237 -0.0124,0.883 0.4404,0.77 1.0767,-0.0346 0.9743,-0.7713z"/>
   <path id="_415514680" class="fil0" d="M0.7839 7.7938l0 1.3472 0.2923 0.3287 0.0973 -0.0993 0.0114 -1.4932 -0.1129 -0.381c-0.2699,-0.0356 -0.2881,0.0501 -0.2881,0.2976z"/>
  </g>
 </g>
</svg>
