<?xml version="1.0" encoding="UTF-8"?>
<!DOCTYPE svg PUBLIC "-//W3C//DTD SVG 1.1//EN" "http://www.w3.org/Graphics/SVG/1.1/DTD/svg11.dtd">
<!-- Creator: CorelDRAW -->
<svg xmlns="http://www.w3.org/2000/svg" xml:space="preserve" width="16.9332mm" height="16.9332mm" style="shape-rendering:geometricPrecision; text-rendering:geometricPrecision; image-rendering:optimizeQuality; fill-rule:evenodd; clip-rule:evenodd"
viewBox="0 0 16.9332 16.9332"
 xmlns:xlink="http://www.w3.org/1999/xlink">
 <defs>
  <style type="text/css">
   <![CDATA[
    .fil1 {fill:#010101}
    .fil6 {fill:#222222}
    .fil2 {fill:#464646}
    .fil3 {fill:#5F5F61}
    .fil4 {fill:#7E7E7E}
    .fil5 {fill:#979797}
    .fil0 {fill:#F3F3F5}
   ]]>
  </style>
 </defs>
 <g id="Capa_x0020_1">
  <metadata id="CorelCorpID_0Corel-Layer"/>
  <g id="_374408536">
   <path id="_89974880" class="fil0" d="M10.2406 10.074l0.2486 0.0004 -0.0131 1.5236 -0.2362 -0.0028 0.0007 -1.5212zm-0.6709 0.0004c0.1897,-0.0108 0.2874,-0.0531 0.3155,0.0898l-0.0105 1.4326 -0.306 -0.0006 0.001 -1.5218zm-1.0182 0.0071l0.262 0.0085 -0.0159 1.5073 -0.2429 0.0003 -0.0032 -1.5161zm-1.3591 -0.0062l0.3056 0.0033 -0.009 1.5186 -0.2969 -0.0035 0.0003 -1.5184zm-0.1258 -0.0049c0.0558,0.097 0.055,1.4307 0,1.5292 -0.1257,-0.0642 -0.054,-0.6089 -0.054,-0.7674 0,-0.197 -0.0626,-0.6708 0.054,-0.7618zm-1.2286 0.0388c0.0654,-0.1361 -0.1298,0.0216 0.0529,-0.0338 0.0461,-0.0139 0.0293,-0.0175 0.0902,-0.0183 0.0593,-0.0007 0.1106,0.0256 0.1941,0.0343 0.0367,-0.0659 -0.0221,-0.0181 0.0793,-0.0392 0.1007,-0.021 0.1843,0.0067 0.3011,0.0275l0.0073 1.5183c-0.1335,0.0112 -0.204,0.0366 -0.3536,0.0249 -0.1084,-0.0084 -0.0906,-0.0049 -0.1893,-0.0077 -0.21,-0.006 -0.1451,0.0065 -0.1868,-0.0515l0.0048 -1.4545zm-0.5235 -0.0377c0.1171,0.0397 0.0736,0.4909 0.069,0.7234l-0.0317 0.8032c-0.1159,-0.0411 -0.0728,-0.1702 -0.0716,-0.3182 0.0022,-0.2495 -0.0329,-1.1069 0.0343,-1.2084zm-0.6338 -0.0011c0.1133,0.0963 0.0522,0.5616 0.0522,0.7618 0,0.1585 0.0718,0.7006 -0.0522,0.7677 -0.0522,-0.1054 -0.0537,-1.428 0,-1.5295zm-0.4045 0.0036l0.2484 0.0004 -0.0129 1.5238 -0.2366 -0.003 0.0011 -1.5212zm-0.4705 0.0041l0.2713 -0.0034 -0.013 1.5249 -0.2589 -0.0096 0.0006 -1.5119zm-0.6854 -0.0049l0.2482 0.002 -0.0124 1.5234 -0.2366 -0.0033 0.0008 -1.5221zm-0.1917 -0.0004c0.1366,0.0366 0.0786,0.4602 0.0786,0.7594l0.0024 0.6382 -0.081 0.1271c-0.0488,-0.1057 -0.0498,-1.42 0,-1.5247zm-1.494 0.0391c0.0185,-0.0315 -0.018,-0.0622 0.1906,-0.0609 0.0778,0.0005 0.1689,0.0149 0.1946,0.06 0.0293,0.0518 0.0026,1.3654 0.0015,1.485l-0.16 -0.0065 -0.2271 0.0075 0.0004 -1.4851zm13.1709 1.3914l1.5177 0c-0.0624,0.1066 -0.5019,0.0607 -0.7434,0.0607l-0.6376 0.0032c-0.2306,-0.011 -0.0811,-0.0263 -0.1367,-0.0639zm-3.9229 -1.4305c0.0063,0.0091 0.0155,0.0113 0.0175,0.0283 0.002,0.0169 0.013,0.021 0.0154,0.0293 0.0321,0.1133 0.0205,1.3497 0.0122,1.373l-0.0451 0.0941c-0.1149,-0.0484 -0.1054,0.0936 -0.099,-0.3552l-0.005 -1.0111c0.0247,-0.2574 -0.0244,-0.1074 0.104,-0.1584zm-0.6337 -0.0009c0.1366,0.0391 0.0786,0.3649 0.0786,0.6858l0 0.8305c-0.1766,-0.0292 -0.103,-0.2378 -0.103,-0.7187 0,-0.1693 -0.032,-0.6791 0.0244,-0.7976zm-0.6337 1.5253c-0.0496,-0.1267 -0.021,-0.5956 -0.021,-0.765 0,-0.4568 -0.0169,-0.3197 0.065,-0.7597l0.0091 1.4286c-0.0093,0.069 -0.0503,0.0867 -0.0531,0.0961zm-0.3963 -1.5255l0.2098 0.0055c0.081,0.1364 0.0414,1.3643 0.0414,1.5113l-0.252 0.0093 0.0008 -1.5261zm-0.7221 0.0014c0.0063,0.0091 0.0154,0.0114 0.0174,0.0282 0.002,0.0169 0.013,0.021 0.0153,0.0293 0.0318,0.1123 0.0204,1.3499 0.0122,1.3728l-0.0449 0.0941c-0.107,-0.0516 -0.0956,0.0991 -0.0904,-0.3552l-0.0044 -1.0108c0.0212,-0.2421 -0.0193,-0.1061 0.0948,-0.1584zm-0.4101 0.0085l0.2272 -0.001 0 1.5126 -0.2272 -0.0057c-0.056,-0.1562 -0.0582,-1.3476 0,-1.5059zm-1.2409 -0.0042l0.2467 -0.0038 0.0006 1.5237c-0.3185,0.0015 -0.2271,-0.0166 -0.2524,-0.1288l0.0051 -1.3911zm-1.1077 -0.0005l0.1997 -0.0038c0.0119,0.2525 0.006,0.5062 0.006,0.7591 0,0.1242 -0.0011,0.2488 0.0005,0.3729 0.0028,0.218 0.0265,0.2141 -0.057,0.3923 -0.2434,0.0005 -0.1722,-0.0273 -0.1928,-0.1296 -0.0017,-0.0086 -0.0015,-0.1669 -0.0011,-0.1871l-0.001 -1.0098c0.0058,-0.1131 0.0101,-0.136 0.0457,-0.194zm-0.7134 0.0056l0.3156 -0.0091 0.0014 1.5269 -0.3178 -0.0131 0.0008 -1.5047zm-1.3487 -0.007l0.1053 -0.0031c0.0538,0.199 0.022,0.5412 0.022,0.7598 0,0.4369 0.051,0.5093 -0.0782,0.765 -0.0726,-0.0573 -0.0668,0.0811 -0.062,-0.3173 0.0037,-0.2999 -0.0192,-0.9949 0.0129,-1.2044zm-1.028 0.0111l0.3129 -0.0133 0.0001 1.5276 -0.3136 -0.0183 0.0006 -1.496zm-0.1531 1.5101c-0.0329,-0.4279 -0.0442,-1.1079 0,-1.5238 0.1119,0.038 0.063,0.5242 0.063,0.7593 0,0.1367 -0.0008,0.2736 0.0001,0.4103 0.003,0.4476 -0.0526,0.3323 -0.0631,0.3542zm-0.3728 -1.5151l0.2272 -0.001 0.0001 1.5128 -0.2273 -0.0057c-0.0558,-0.1567 -0.0583,-1.3455 0,-1.5061zm12.6781 1.2352c0.0331,-0.0764 -0.0884,-0.0853 0.3316,-0.0797l0.821 0.0004c0.2719,-0.0027 0.1688,-0.0367 0.3762,0.0793 -0.0334,0.0858 0.0938,0.0966 -0.3387,0.0897l-1.0487 0.0028c-0.2491,-0.0303 -0.0962,-0.0298 -0.1414,-0.0925zm0.0038 -0.5079l1.5213 -0.0034 -0.015 0.1996 -1.5024 -0.0062 -0.0039 -0.19zm0.0096 -0.5357l-0.0012 -0.1122 -0.0435 -0.2978 1.5985 0.001 -0.0516 0.2941 -0.0024 0.1149c0.0132,0.3121 0.038,0.1073 -0.0003,0.4796l-1.4995 -0.0088 0 -0.4708zm-2.9418 -0.309l0.3743 -0.0017 -0.0092 0.6672 -0.3646 -0.009 -0.0005 -0.6565zm2.9291 -0.213l0.2197 -0.0792 1.0811 0.0004 0.2276 0.0788c-0.0337,0.0859 0.0942,0.0964 -0.339,0.0894l-1.0488 0.003c-0.2498,-0.03 -0.0959,-0.0294 -0.1406,-0.0924zm0.0027 -0.5097l1.5217 -0.0019 -0.016 0.1995 -1.5015 -0.0061 -0.0042 -0.1915zm-8.3409 0.1742c-0.0605,-0.3469 -0.0114,-2.6391 -0.013,-3.3179 -0.0024,-1.0618 0.2894,-0.7967 2.5317,-0.7967 0.3728,0 0.7456,0.0006 1.1184,-0.0002 1.0899,-0.0024 0.8022,0.3212 0.8022,2.549 0,0.3728 -0.0008,0.7457 0.0001,1.1184 0.0025,1.0778 -0.2498,0.797 -2.5544,0.797 -0.3728,0 -0.7457,-0.001 -1.1184,0.0003 -0.3798,0.0014 -0.7034,0.0118 -0.7666,-0.3499zm5.4102 -0.6803l0.3714 0 -0.0041 0.6725 -0.3691 -0.0139 0.0018 -0.6586zm2.9359 0.2702l0.0051 -0.1345c0.2308,-0.0203 1.3718,-0.0451 1.5116,0.0227l-0.0059 0.1118c-0.1284,0.0513 -1.3841,0.0534 -1.5108,0zm1.5138 -0.415l0.0081 0.1019c-0.0036,0.1813 -0.0141,0.0953 -0.0426,0.1428l-1.4879 -0.0134c-0.0244,-0.218 0.0025,-0.2946 -0.0152,-0.5221l1.5673 0.009 -0.0297 0.2818zm-1.5187 -0.466c0.2601,-0.0236 1.3606,-0.0605 1.5229,0.0237l-0.0072 0.1117c-0.1311,0.0669 -1.2738,0.0403 -1.5103,0.0231l-0.0054 -0.1585zm-2.9282 -0.6114l0.3704 0.0176 -0.0025 0.6514 -0.3683 0.0036 0.0004 -0.6726zm2.9307 0.1668l1.5162 -0.0016 -0.0063 0.2043 -1.5114 -0.0087 0.0015 -0.194zm-0.0004 -0.3149l-0.0104 -0.6105 1.5403 0.0067 -0.0132 0.6038 -0.0061 0.1076 -1.5082 -0.0098 -0.0024 -0.0978zm-2.9322 -1.0647l0.3703 -0.0056 -0.0007 0.6756 -0.3692 -0.0058 -0.0004 -0.6642zm2.9271 0.3193c0.0469,-0.0954 -0.0585,-0.041 0.1071,-0.0704l1.4216 0.0704c-0.0339,0.0856 0.0928,0.0964 -0.3393,0.0896 -0.1366,-0.0021 -0.2739,-0.0007 -0.4105,-0.0007 -0.1367,0 -0.2738,-0.0011 -0.4104,0.0004 -0.5303,0.006 -0.3238,-0.0259 -0.3685,-0.0893zm0.0023 -0.5086l1.5224 -0.0036 -0.0156 0.2003 -1.5019 -0.0057 -0.0049 -0.191zm-0.0041 -0.6849l1.5313 -0.0046c0.0235,0.2146 -0.0187,0.4242 -0.0205,0.6294l-1.4941 -0.007c0,-0.2002 -0.0354,-0.4072 -0.0167,-0.6178zm-2.926 5.763l0.368 -0.0133 0.0071 0.5739c0.6475,0.3732 0.3481,0.2711 1.2067,0.2711l2.9847 0.002c0.3049,-0.0051 0.3486,-0.1006 0.348,-0.4064 -0.0014,-0.8418 0.0628,-6.5187 -0.0486,-6.597l-0.5254 -0.1192 -3.0569 0.0002c-0.9195,-0.0002 -0.4618,0.0111 -0.9086,0.2806l-0.0042 0.5565 -0.3444 0.0118c-0.3215,-0.9053 -0.147,-0.849 -1.0914,-0.8489l-9.6553 -0.0002c-0.7047,-0.0027 -0.5925,-0.0648 -0.5925,1.3466 0,0.8364 -0.0692,5.5581 0.0736,5.7018 0.1316,0.1325 1.5528,0.0722 1.861,0.0722 2.8783,0 5.8161,-0.0214 8.6869,0.001 0.465,0.0036 0.3664,-0.1103 0.6862,-0.244l0.0051 -0.5887z"/>
   <path id="_374636448" class="fil1" d="M11.668 11.7779c-0.3198,0.1337 -0.2212,0.2476 -0.6862,0.244 -2.8708,-0.0224 -5.8086,-0.001 -8.6869,-0.001 -0.3082,0 -1.7294,0.0603 -1.861,-0.0722 -0.1428,-0.1437 -0.0736,-4.8654 -0.0736,-5.7018 0,-1.4114 -0.1122,-1.3493 0.5925,-1.3466l9.6553 0.0002c0.9444,-0.0001 0.7699,-0.0564 1.0914,0.8489l0.3444 -0.0118 0.0042 -0.5565c0.4468,-0.2695 -0.0109,-0.2808 0.9086,-0.2806l3.0569 -0.0002 0.5254 0.1192c0.1114,0.0783 0.0472,5.7552 0.0486,6.597 0.0006,0.3058 -0.0431,0.4013 -0.348,0.4064l-2.9847 -0.002c-0.8586,0 -0.5592,0.1021 -1.2067,-0.2711l-0.0071 -0.5739 -0.368 0.0133 -0.0051 0.5887zm0.1703 -6.8844c-0.2451,-0.1375 -0.2956,-0.3391 -0.6694,-0.3401l-9.0604 0.0022c-1.8056,0 -2.0815,-0.1804 -2.0804,0.9458l0 4.9953c0,0.5501 -0.1493,1.5109 0.2406,1.7637 0.3106,0.2014 1.4628,0.1051 1.9144,0.1051l6.0019 0c0.9258,0 2.121,0.0237 3.0224,0.0023 0.3172,-0.0075 0.4245,-0.2186 0.6682,-0.3133l0.8946 0.3111c0.3851,-0.0015 0.7706,-0.0001 1.1557,-0.0001 3.3067,0 2.9988,0.2722 2.9988,-1.6451l0 -4.6225c0,-1.7824 0.33,-1.5423 -3.1106,-1.5423 -2.2554,0 -1.3147,0.0039 -1.9758,0.3379z"/>
   <path id="_374401504" class="fil1" d="M6.7827 9.2981l0.0065 -0.3132c0.1074,-0.0333 0.3121,-0.1144 0.392,-0.1173 0.169,-0.0063 0.2447,0.0963 0.409,0.1078 0.2116,0.0149 0.2651,-0.0822 0.417,-0.0992 0.1756,-0.0197 0.2664,0.0908 0.4404,0.099 0.2025,0.0095 0.2581,-0.095 0.4462,-0.0984 0.2001,-0.0036 0.235,0.1063 0.447,0.0987 0.4287,-0.0154 0.0163,-0.2396 0.8313,0.0301l-0.0019 0.3062c-0.1815,-0.0228 -0.2895,-0.1023 -0.4204,-0.1035 -0.172,-0.0015 -0.2183,0.0991 -0.4094,0.104 -0.2031,0.0051 -0.2482,-0.0963 -0.4131,-0.1043 -0.1805,-0.0087 -0.2443,0.0994 -0.4436,0.0994 -0.1877,0.0001 -0.2608,-0.0946 -0.4144,-0.1018 -0.1874,-0.0088 -0.2401,0.1076 -0.4433,0.1072 -0.1973,-0.0004 -0.2448,-0.1018 -0.4128,-0.1049 -0.1861,-0.0035 -0.2072,0.1026 -0.4305,0.0902zm1.4565 -3.5126l0.476 0.0005 0.0089 0.3327 0.3879 0.017 0.0182 0.2406 0.2601 0.0076 0.0085 0.4595 0.2376 0.1446c-0.2444,0.714 -0.2775,0.6352 -0.2413,1.4483l0.7629 0.0338 0.019 0.3287 -0.4597 -0.0995c-0.1597,0.0148 -0.2027,0.1111 -0.4135,0.0998 -0.1978,-0.0105 -0.2321,-0.1165 -0.4446,-0.0969 -0.167,0.0154 -0.2041,0.1075 -0.4128,0.0962 -0.1801,-0.0098 -0.2498,-0.1142 -0.4441,-0.0955 -0.1682,0.0162 -0.2025,0.1079 -0.4134,0.0953 -0.1831,-0.0109 -0.2476,-0.1186 -0.4463,-0.0971 -0.1513,0.0163 -0.1816,0.0904 -0.3491,0.094l-0.0082 -0.3227 0.7718 -0.0171 -0.0812 -0.9729c-0.0354,-0.0772 -0.1504,-0.3211 -0.1546,-0.383 -0.0121,-0.1745 0.1133,-0.1687 0.2261,-0.256l0.0099 -0.4477 0.2669 -0.0217 0.0187 -0.2397 0.3897 -0.0254 0.0066 -0.3234zm-1.9765 3.6302c0.0632,0.3617 0.3868,0.3513 0.7666,0.3499 0.3727,-0.0013 0.7456,-0.0003 1.1184,-0.0003 2.3046,0 2.5569,0.2808 2.5544,-0.797 -0.0009,-0.3727 -0.0001,-0.7456 -0.0001,-1.1184 0,-2.2278 0.2877,-2.5514 -0.8022,-2.549 -0.3728,0.0008 -0.7456,0.0002 -1.1184,0.0002 -2.2423,0 -2.5341,-0.2651 -2.5317,0.7967 0.0016,0.6788 -0.0475,2.971 0.013,3.3179z"/>
   <path id="_374401096" class="fil0" d="M8.0608 6.3311l0.8309 -0.0046 0.021 0.2405c0.3507,0.0223 0.2406,0.0026 0.283,0.09 -0.2189,0.0777 -0.1158,0.0721 -0.3486,-0.0263 -0.4293,-0.1814 -0.3134,-0.1751 -0.7313,-0.0033 -0.0451,0.0186 -0.143,0.0679 -0.1878,0.0825 -0.2445,0.0795 -0.1271,0.0394 -0.1683,-0.0529 0.1644,-0.1057 0.0813,-0.0775 0.2764,-0.0793l0.0247 -0.2466zm0.1718 -0.2222l-0.3897 0.0254 -0.0187 0.2397 -0.2669 0.0217 -0.0099 0.4477c-0.1128,0.0873 -0.2382,0.0815 -0.2261,0.256 0.0042,0.0619 0.1192,0.3058 0.1546,0.383l0.0812 0.9729 -0.7718 0.0171 0.0082 0.3227c0.1675,-0.0036 0.1978,-0.0777 0.3491,-0.094 0.1987,-0.0215 0.2632,0.0862 0.4463,0.0971 0.2109,0.0126 0.2452,-0.0791 0.4134,-0.0953 0.1943,-0.0187 0.264,0.0857 0.4441,0.0955 0.2087,0.0113 0.2458,-0.0808 0.4128,-0.0962 0.2125,-0.0196 0.2468,0.0864 0.4446,0.0969 0.2108,0.0113 0.2538,-0.085 0.4135,-0.0998l0.4597 0.0995 -0.019 -0.3287 -0.7629 -0.0338c-0.0362,-0.8131 -0.0031,-0.7343 0.2413,-1.4483l-0.2376 -0.1446 -0.0085 -0.4595 -0.2601 -0.0076 -0.0182 -0.2406 -0.3879 -0.017 -0.0089 -0.3327 -0.476 -0.0005 -0.0066 0.3234z"/>
   <path id="_374401552" class="fil0" d="M9.3404 9.3123c0.1911,-0.0049 0.2374,-0.1055 0.4094,-0.104 0.1309,0.0012 0.2389,0.0807 0.4204,0.1035l0.0019 -0.3062c-0.815,-0.2697 -0.4026,-0.0455 -0.8313,-0.0301 -0.212,0.0076 -0.2469,-0.1023 -0.447,-0.0987 -0.1881,0.0034 -0.2437,0.1079 -0.4462,0.0984 -0.174,-0.0082 -0.2648,-0.1187 -0.4404,-0.099 -0.1519,0.017 -0.2054,0.1141 -0.417,0.0992 -0.1643,-0.0115 -0.24,-0.1141 -0.409,-0.1078 -0.0799,0.0029 -0.2846,0.084 -0.392,0.1173l-0.0065 0.3132c0.2233,0.0124 0.2444,-0.0937 0.4305,-0.0902 0.168,0.0031 0.2155,0.1045 0.4128,0.1049 0.2032,0.0004 0.2559,-0.116 0.4433,-0.1072 0.1536,0.0072 0.2267,0.1019 0.4144,0.1018 0.1993,0 0.2631,-0.1081 0.4436,-0.0994 0.1649,0.008 0.21,0.1094 0.4131,0.1043z"/>
   <path id="_374401264" class="fil2" d="M14.5991 5.4262c-0.0187,0.2106 0.0167,0.4176 0.0167,0.6178l1.4941 0.007c0.0018,-0.2052 0.044,-0.4148 0.0205,-0.6294l-1.5313 0.0046z"/>
   <polygon id="_374400952" class="fil3" points="14.606,7.3651 16.1227,7.3651 16.1359,6.7613 14.5956,6.7546 "/>
   <path id="_374402224" class="fil3" d="M16.1134 10.2732l-1.4998 0 0 0.4708 1.4995 0.0088c0.0383,-0.3723 0.0135,-0.1675 0.0003,-0.4796z"/>
   <path id="_374402320" class="fil4" d="M16.1307 8.6925c-0.2548,0.0443 -0.8654,0.0141 -1.1989,0.0202 -0.3839,0.0069 -0.2753,0.001 -0.3151,-0.0799 0.2234,-0.08 0.118,-0.0577 0.3526,-0.0553 0.3236,0.0033 0.8902,-0.0183 1.1533,0.0131l0.0297 -0.2818 -1.5673 -0.009c0.0177,0.2275 -0.0092,0.3041 0.0152,0.5221l1.4879 0.0134c0.0285,-0.0475 0.039,0.0385 0.0426,-0.1428z"/>
   <path id="_374402248" class="fil5" d="M6.1752 10.0914l0.2398 0.0081 0.0034 1.4822 -0.2321 -0.0101 -0.0111 -1.4802zm-0.342 1.4723c0.0417,0.058 -0.0232,0.0455 0.1868,0.0515 0.0987,0.0028 0.0809,-0.0007 0.1893,0.0077 0.1496,0.0117 0.2201,-0.0137 0.3536,-0.0249l-0.0073 -1.5183c-0.1168,-0.0208 -0.2004,-0.0485 -0.3011,-0.0275 -0.1014,0.0211 -0.0426,-0.0267 -0.0793,0.0392 -0.0835,-0.0087 -0.1348,-0.035 -0.1941,-0.0343 -0.0609,0.0008 -0.0441,0.0044 -0.0902,0.0183 -0.1827,0.0554 0.0125,-0.1023 -0.0529,0.0338l0.1247 -0.0154 0.0069 1.4796 -0.1364 -0.0097z"/>
   <polygon id="_374401648" class="fil1" points="4.8239,11.5872 5.1417,11.6003 5.1403,10.0734 4.8247,10.0825 "/>
   <path id="_374402152" class="fil1" d="M9.5687 11.5962l0.306 0.0006 0.0105 -1.4326c-0.0281,-0.1429 -0.1258,-0.1006 -0.3155,-0.0898l-0.001 1.5218z"/>
   <polygon id="_374402368" class="fil1" points="2.4474,11.5826 2.761,11.6009 2.7609,10.0733 2.448,10.0866 "/>
   <polygon id="_374402560" class="fil5" points="14.6124,10.161 16.1158,10.1583 16.1674,9.8642 14.5689,9.8632 "/>
   <polygon id="_374402704" class="fil1" points="7.1921,11.5937 7.489,11.5972 7.498,10.0786 7.1924,10.0753 "/>
   <polygon id="_374402872" class="fil1" points="3.8051,11.59 4.064,11.5996 4.077,10.0747 3.8057,10.0781 "/>
   <path id="_374402488" class="fil1" d="M1.9221 10.0816c-0.0583,0.1606 -0.0558,1.3494 0,1.5061l0.2273 0.0057 -0.0001 -1.5128 -0.2272 0.001z"/>
   <path id="_374402992" class="fil1" d="M7.8867 10.0816c-0.0582,0.1583 -0.056,1.3497 0,1.5059l0.2272 0.0057 0 -1.5126 -0.2272 0.001z"/>
   <path id="_374403064" class="fil1" d="M9.0181 11.5978l0.252 -0.0093c0,-0.147 0.0396,-1.3749 -0.0414,-1.5113l-0.2098 -0.0055 -0.0008 1.5261z"/>
   <polygon id="_374403496" class="fil1" points="8.5547,11.5976 8.7976,11.5973 8.8135,10.09 8.5515,10.0815 "/>
   <path id="_374403832" class="fil1" d="M6.6407 11.4685c0.0253,0.1122 -0.0661,0.1303 0.2524,0.1288l-0.0006 -1.5237 -0.2467 0.0038 -0.0051 1.3911z"/>
   <path id="_374403376" class="fil1" d="M5.5381 10.0769c-0.0356,0.058 -0.0399,0.0809 -0.0457,0.194l0.001 1.0098c-0.0004,0.0202 -0.0006,0.1785 0.0011,0.1871 0.0206,0.1023 -0.0506,0.1301 0.1928,0.1296 0.0835,-0.1782 0.0598,-0.1743 0.057,-0.3923 -0.0016,-0.1241 -0.0005,-0.2487 -0.0005,-0.3729 0,-0.2529 0.0059,-0.5066 -0.006,-0.7591l-0.1997 0.0038z"/>
   <polygon id="_374403544" class="fil1" points="4.2751,11.5952 4.5117,11.5982 4.5246,10.0744 4.2762,10.074 "/>
   <polygon id="_374403760" class="fil1" points="3.1195,11.5953 3.3561,11.5986 3.3685,10.0752 3.1203,10.0732 "/>
   <polygon id="_374403856" class="fil1" points="10.2399,11.5952 10.4761,11.598 10.4892,10.0744 10.2406,10.074 "/>
   <polygon id="_374404048" class="fil1" points="6.1752,10.0914 6.1863,11.5716 6.4184,11.5817 6.415,10.0995 "/>
   <polygon id="_374404504" class="fil1" points="1.6613,11.5895 1.6613,10.1098 1.4346,10.1119 1.4342,11.597 "/>
   <polygon id="_374404240" class="fil1" points="14.6049,7.874 16.1163,7.8827 16.1226,7.6784 14.6064,7.68 "/>
   <polygon id="_374404216" class="fil1" points="14.6081,6.3021 16.11,6.3078 16.1256,6.1075 14.6032,6.1111 "/>
   <polygon id="_374404528" class="fil1" points="14.6078,9.433 16.1093,9.4391 16.1253,9.2396 14.6036,9.2415 "/>
   <polygon id="_374404120" class="fil1" points="14.6079,10.9989 16.1103,11.0051 16.1253,10.8055 14.604,10.8089 "/>
   <path id="_374404384" class="fil1" d="M16.1268 8.1483c-0.1623,-0.0842 -1.2628,-0.0473 -1.5229,-0.0237l0.0054 0.1585c0.2365,0.0172 1.3792,0.0438 1.5103,-0.0231l0.0072 -0.1117z"/>
   <path id="_374405104" class="fil1" d="M16.1255 8.8938c-0.1398,-0.0678 -1.2808,-0.043 -1.5116,-0.0227l-0.0051 0.1345c0.1267,0.0534 1.3824,0.0513 1.5108,0l0.0059 -0.1118z"/>
   <path id="_374404912" class="fil1" d="M8.0361 6.5777c-0.1951,0.0018 -0.112,-0.0264 -0.2764,0.0793 0.0412,0.0923 -0.0762,0.1324 0.1683,0.0529 0.0448,-0.0146 0.1427,-0.0639 0.1878,-0.0825 0.4179,-0.1718 0.302,-0.1781 0.7313,0.0033 0.2328,0.0984 0.1297,0.104 0.3486,0.0263 -0.0424,-0.0874 0.0677,-0.0677 -0.283,-0.09l-0.021 -0.2405 -0.8309 0.0046 -0.0247 0.2466z"/>
   <path id="_374405248" class="fil4" d="M1.6613 11.5895l0.16 0.0065c0.0011,-0.1196 0.0278,-1.4332 -0.0015,-1.485 -0.0257,-0.0451 -0.1168,-0.0595 -0.1946,-0.06 -0.2086,-0.0013 -0.1721,0.0294 -0.1906,0.0609l0.2267 -0.0021 0 1.4797z"/>
   <path id="_374405320" class="fil1" d="M14.9318 11.2371c-0.42,-0.0056 -0.2985,0.0033 -0.3316,0.0797 0.0452,0.0627 -0.1077,0.0622 0.1414,0.0925l1.0487 -0.0028c0.4325,0.0069 0.3053,-0.0039 0.3387,-0.0897 -0.2074,-0.116 -0.1043,-0.082 -0.3762,-0.0793l-0.821 -0.0004z"/>
   <polygon id="_374404720" class="fil1" points="11.6742,6.9646 12.0434,6.9704 12.0441,6.2948 11.6738,6.3004 "/>
   <polygon id="_374404864" class="fil1" points="11.6711,9.394 12.0402,9.4079 12.0443,8.7354 11.6729,8.7354 "/>
   <polygon id="_374405872" class="fil1" points="11.6723,10.6207 12.0369,10.6297 12.0461,9.9625 11.6718,9.9642 "/>
   <polygon id="_374406064" class="fil1" points="11.6753,8.1858 12.0436,8.1822 12.0461,7.5308 11.6757,7.5132 "/>
   <path id="_374406184" class="fil1" d="M15.9017 9.6724l-1.0811 -0.0004 -0.2197 0.0792c0.0447,0.063 -0.1092,0.0624 0.1406,0.0924l1.0488 -0.003c0.4332,0.007 0.3053,-0.0035 0.339,-0.0894l-0.2276 -0.0788z"/>
   <path id="_374405560" class="fil1" d="M10.6826 10.0728c-0.1284,0.051 -0.0793,-0.099 -0.104,0.1584l0.005 1.0111c-0.0064,0.4488 -0.0159,0.3068 0.099,0.3552l0.0451 -0.0941c0.0083,-0.0233 0.0199,-1.2597 -0.0122,-1.373 -0.0024,-0.0083 -0.0134,-0.0124 -0.0154,-0.0293 -0.002,-0.017 -0.0112,-0.0192 -0.0175,-0.0283z"/>
   <path id="_374405824" class="fil1" d="M3.476 10.0755c-0.0321,0.2095 -0.0092,0.9045 -0.0129,1.2044 -0.0048,0.3984 -0.0106,0.26 0.062,0.3173 0.1292,-0.2557 0.0782,-0.3281 0.0782,-0.765 0,-0.2186 0.0318,-0.5608 -0.022,-0.7598l-0.1053 0.0031z"/>
   <path id="_374405776" class="fil1" d="M8.2968 10.0731c-0.1141,0.0523 -0.0736,-0.0837 -0.0948,0.1584l0.0044 1.0108c-0.0052,0.4543 -0.0166,0.3036 0.0904,0.3552l0.0449 -0.0941c0.0082,-0.0229 0.0196,-1.2605 -0.0122,-1.3728 -0.0023,-0.0083 -0.0133,-0.0124 -0.0153,-0.0293 -0.002,-0.0168 -0.0111,-0.0191 -0.0174,-0.0282z"/>
   <path id="_374406016" class="fil1" d="M16.1307 8.6925l-0.0081 -0.1019c-0.2631,-0.0314 -0.8297,-0.0098 -1.1533,-0.0131 -0.2346,-0.0024 -0.1292,-0.0247 -0.3526,0.0553 0.0398,0.0809 -0.0688,0.0868 0.3151,0.0799 0.3335,-0.0061 0.9441,0.0241 1.1989,-0.0202z"/>
   <polygon id="_374406952" class="fil1" points="5.8332,11.5637 5.9696,11.5734 5.9627,10.0938 5.838,10.1092 "/>
   <path id="_374406808" class="fil1" d="M14.708 6.5493c-0.1656,0.0294 -0.0602,-0.025 -0.1071,0.0704 0.0447,0.0634 -0.1618,0.0953 0.3685,0.0893 0.1366,-0.0015 0.2737,-0.0004 0.4104,-0.0004 0.1366,0 0.2739,-0.0014 0.4105,0.0007 0.4321,0.0068 0.3054,-0.004 0.3393,-0.0896l-1.4216 -0.0704z"/>
   <polygon id="_374406568" class="fil1" points="14.6136,10.2732 16.1134,10.2732 16.1158,10.1583 14.6124,10.161 "/>
   <path id="_374406760" class="fil1" d="M10.0489 10.0719c-0.0564,0.1185 -0.0244,0.6283 -0.0244,0.7976 0,0.4809 -0.0736,0.6895 0.103,0.7187l0 -0.8305c0,-0.3209 0.058,-0.6467 -0.0786,-0.6858z"/>
   <path id="_374406616" class="fil1" d="M2.9286 10.0728c-0.0498,0.1047 -0.0488,1.419 0,1.5247l0.081 -0.1271 -0.0024 -0.6382c0,-0.2992 0.058,-0.7228 -0.0786,-0.7594z"/>
   <polygon id="_374406520" class="fil1" points="16.1227,7.3651 14.606,7.3651 14.6084,7.4629 16.1166,7.4727 "/>
   <path id="_374407360" class="fil1" d="M5.3145 10.0715c-0.0672,0.1015 -0.0321,0.9589 -0.0343,1.2084 -0.0012,0.148 -0.0443,0.2771 0.0716,0.3182l0.0317 -0.8032c0.0046,-0.2325 0.0481,-0.6837 -0.069,-0.7234z"/>
   <path id="_374407432" class="fil2" d="M7.0666 10.0704c-0.1166,0.091 -0.054,0.5648 -0.054,0.7618 0,0.1585 -0.0717,0.7032 0.054,0.7674 0.055,-0.0985 0.0558,-1.4322 0,-1.5292z"/>
   <path id="_374407648" class="fil6" d="M4.6807 10.0704c-0.0537,0.1015 -0.0522,1.4241 0,1.5295 0.124,-0.0671 0.0522,-0.6092 0.0522,-0.7677 0,-0.2002 0.0611,-0.6655 -0.0522,-0.7618z"/>
   <path id="_374407168" class="fil6" d="M2.2949 11.5967c0.0105,-0.0219 0.0661,0.0934 0.0631,-0.3542 -0.0009,-0.1367 -0.0001,-0.2736 -0.0001,-0.4103 0,-0.2351 0.0489,-0.7213 -0.063,-0.7593 -0.0442,0.4159 -0.0329,1.0959 0,1.5238z"/>
   <path id="_374407144" class="fil6" d="M9.4152 11.5972c0.0028,-0.0094 0.0438,-0.0271 0.0531,-0.0961l-0.0091 -1.4286c-0.0819,0.44 -0.065,0.3029 -0.065,0.7597 0,0.1694 -0.0286,0.6383 0.021,0.765z"/>
   <path id="_374407048" class="fil1" d="M16.1232 11.5033l-1.5177 0c0.0556,0.0376 -0.0939,0.0529 0.1367,0.0639l0.6376 -0.0032c0.2415,0 0.681,0.0459 0.7434,-0.0607z"/>
  </g>
 </g>
</svg>
