<?xml version="1.0" encoding="UTF-8"?>
<!DOCTYPE svg PUBLIC "-//W3C//DTD SVG 1.1//EN" "http://www.w3.org/Graphics/SVG/1.1/DTD/svg11.dtd">
<!-- Creator: CorelDRAW -->
<svg xmlns="http://www.w3.org/2000/svg" xml:space="preserve" width="16.9332mm" height="16.9332mm" style="shape-rendering:geometricPrecision; text-rendering:geometricPrecision; image-rendering:optimizeQuality; fill-rule:evenodd; clip-rule:evenodd"
viewBox="0 0 16.9332 16.9332"
 xmlns:xlink="http://www.w3.org/1999/xlink">
 <defs>
  <style type="text/css">
   <![CDATA[
    .fil1 {fill:black}
    .fil2 {fill:#929294}
    .fil0 {fill:#F3F3F5}
   ]]>
  </style>
 </defs>
 <g id="Capa_x0020_1">
  <metadata id="CorelCorpID_0Corel-Layer"/>
  <g id="_408355448">
   <path id="_408349088" class="fil0" d="M4.8056 8.4799c0.1526,0.2507 0.9264,0.9613 1.185,1.2146 0.5112,0.5009 0.1792,1.3431 -0.5675,1.226 -0.4111,-0.0645 -1.0002,-0.8351 -1.2807,-1.1123 -0.2843,-0.2809 -1.0365,-0.8741 -1.065,-1.28 -0.0293,-0.4163 0.2391,-0.6092 0.4197,-0.7831 0.3766,-0.3626 1.5582,-1.6197 1.8378,-1.6862 0.751,-0.1785 1.1455,0.6793 0.624,1.2244 -0.2274,0.2377 -1.0382,0.9709 -1.1533,1.1966zm7.3167 0c-0.1782,-0.3 -0.9011,-0.904 -1.1789,-1.211 -0.4935,-0.5453 -0.0811,-1.3937 0.657,-1.2058 0.2926,0.0745 1.0401,0.9086 1.259,1.123 1.3298,1.3026 1.385,1.2044 -0.081,2.6552 -0.228,0.2256 -0.9227,1.0167 -1.2649,1.0764 -0.7614,0.1327 -1.0918,-0.7079 -0.5507,-1.2568 0.3274,-0.3322 0.9108,-0.838 1.1595,-1.181zm-2.9261 -2.4395c0.5972,-0.1947 1.1116,0.41 0.805,1.0242 -0.4235,0.8482 -0.9858,1.7899 -1.4184,2.645 -0.1922,0.38 -0.4825,1.0704 -0.856,1.1767 -0.638,0.1815 -1.094,-0.4397 -0.8176,-1.0158 0.2412,-0.5029 1.1166,-2.1131 1.4177,-2.646 0.3393,-0.6002 0.4269,-1.0397 0.8693,-1.1841zm-0.4052 9.2663c0.0133,-0.0075 0.0316,-0.035 0.0395,-0.023l0.0797 -0.0374c0.0683,-0.0219 0.1303,-0.0274 0.1911,-0.0391 0.6193,-0.0189 1.9747,-0.7351 2.4353,-1.0085 0.6596,-0.3916 1.426,-1.0649 1.8692,-1.5993 0.9632,-1.161 1.9586,-2.848 2.0554,-4.9112 0.0463,-0.9845 0.1111,-2.4095 -0.162,-3.2925 -0.2628,-0.8496 -0.9022,-1.675 -1.4423,-2.0727 -0.6987,-0.5146 -1.4848,-0.8488 -2.588,-0.8795 -2.0647,-0.0574 -4.8378,-0.0024 -6.9875,-0.0024 -1.274,0 -2.2146,-0.1729 -2.712,0.8125 -0.2534,0.502 -0.1302,8.6566 -0.1302,10.3392 0,1.1796 -0.1893,2.3108 0.785,2.7506 0.6122,0.2765 2.4573,0.1507 3.296,0.1507 1.0611,0 2.2802,0.0442 3.2708,-0.1874z"/>
   <path id="_373300064" class="fil1" d="M9.1013 15.2072c-0.0478,0.0406 0.0243,0.0299 -0.1494,0.0823 -0.0562,0.0169 -0.1004,0.012 -0.1609,0.0172 -0.9906,0.2316 -2.2097,0.1874 -3.2708,0.1874 -0.8387,0 -2.6838,0.1258 -3.296,-0.1507 -0.9743,-0.4398 -0.785,-1.571 -0.785,-2.7506 0,-1.6826 -0.1232,-9.8372 0.1302,-10.3392 0.4974,-0.9854 1.438,-0.8125 2.712,-0.8125 2.1497,0 4.9228,-0.055 6.9875,0.0024 1.1032,0.0307 1.8893,0.3649 2.588,0.8795 0.5401,0.3977 1.1795,1.2231 1.4423,2.0727 0.2731,0.883 0.2083,2.308 0.162,3.2925 -0.0968,2.0632 -1.0922,3.7502 -2.0554,4.9112 -0.4432,0.5344 -1.2096,1.2077 -1.8692,1.5993 -0.4606,0.2734 -1.816,0.9896 -2.4353,1.0085zm-9.0654 -0.8799c0.1028,1.1519 0.9407,2.0913 1.8503,2.397 0.8681,0.2917 2.9534,0.1652 4.0304,0.1652 1.404,0 2.8081,0 4.2121,0 1.2959,0 2.9459,0.0897 4.1989,-0.0097 1.1577,-0.0918 2.0616,-0.9085 2.3891,-1.8099 0.3219,-0.8861 0.1832,-2.9333 0.1832,-4.0132 0,-1.404 0,-2.8081 0,-4.2121 0,-1.3188 0.0804,-2.9114 -0.0086,-4.197 -0.0829,-1.1968 -0.9131,-2.0932 -1.8255,-2.4273 -0.8225,-0.3012 -3.0197,-0.1784 -4.0451,-0.1784 -1.4041,0 -2.8081,0 -4.2121,0 -1.3072,0 -2.9475,-0.0875 -4.2146,0.0127 -1.1538,0.0911 -2.0808,0.9183 -2.3913,1.8208 -0.3024,0.8787 -0.1769,2.972 -0.1769,4.0277 0,0.8384 -0.0462,7.7929 0.0101,8.4242z"/>
   <path id="_408355616" class="fil1" d="M12.1223 8.4799c-0.2487,0.343 -0.8321,0.8488 -1.1595,1.181 -0.5411,0.5489 -0.2107,1.3895 0.5507,1.2568 0.3422,-0.0597 1.0369,-0.8508 1.2649,-1.0764 1.466,-1.4508 1.4108,-1.3526 0.081,-2.6552 -0.2189,-0.2144 -0.9664,-1.0485 -1.259,-1.123 -0.7381,-0.1879 -1.1505,0.6605 -0.657,1.2058 0.2778,0.307 1.0007,0.911 1.1789,1.211z"/>
   <path id="_408355880" class="fil1" d="M4.8056 8.4799c0.1151,-0.2257 0.9259,-0.9589 1.1533,-1.1966 0.5215,-0.5451 0.127,-1.4029 -0.624,-1.2244 -0.2796,0.0665 -1.4612,1.3236 -1.8378,1.6862 -0.1806,0.1739 -0.449,0.3668 -0.4197,0.7831 0.0285,0.4059 0.7807,0.9991 1.065,1.28 0.2805,0.2772 0.8696,1.0478 1.2807,1.1123 0.7467,0.1171 1.0787,-0.7251 0.5675,-1.226 -0.2586,-0.2533 -1.0324,-0.9639 -1.185,-1.2146z"/>
   <path id="_408355856" class="fil1" d="M9.1962 6.0404c-0.4424,0.1444 -0.53,0.5839 -0.8693,1.1841 -0.3011,0.5329 -1.1765,2.1431 -1.4177,2.646 -0.2764,0.5761 0.1796,1.1973 0.8176,1.0158 0.3735,-0.1063 0.6638,-0.7967 0.856,-1.1767 0.4326,-0.8551 0.9949,-1.7968 1.4184,-2.645 0.3066,-0.6142 -0.2078,-1.2189 -0.805,-1.0242z"/>
   <path id="_408355472" class="fil2" d="M8.791 15.3067c0.0605,-0.0052 0.1047,-0.0003 0.1609,-0.0172 0.1737,-0.0524 0.1016,-0.0417 0.1494,-0.0823 -0.0608,0.0117 -0.1228,0.0172 -0.1911,0.0391l-0.0797 0.0374c-0.0079,-0.012 -0.0262,0.0155 -0.0395,0.023z"/>
  </g>
 </g>
</svg>
