<?xml version="1.0" encoding="UTF-8"?>
<!DOCTYPE svg PUBLIC "-//W3C//DTD SVG 1.1//EN" "http://www.w3.org/Graphics/SVG/1.1/DTD/svg11.dtd">
<!-- Creator: CorelDRAW -->
<svg xmlns="http://www.w3.org/2000/svg" xml:space="preserve" width="16.9332mm" height="16.9332mm" style="shape-rendering:geometricPrecision; text-rendering:geometricPrecision; image-rendering:optimizeQuality; fill-rule:evenodd; clip-rule:evenodd"
viewBox="0 0 16.9332 16.9332"
 xmlns:xlink="http://www.w3.org/1999/xlink">
 <defs>
  <style type="text/css">
   <![CDATA[
    .fil0 {fill:#010101}
   ]]>
  </style>
 </defs>
 <g id="Capa_x0020_1">
  <metadata id="CorelCorpID_0Corel-Layer"/>
  <path class="fil0" d="M5.9803 4.8694c0.3056,-0.1137 1.2665,-0.4115 1.0689,-0.8135 -0.1985,-0.4038 -0.7786,0.3669 -1.3829,0.3054 -0.697,-0.071 -0.186,-0.9313 -0.0575,-1.2776 0.3594,-0.9676 0.56,-2.1859 1.3947,-2.4806 1.3777,-0.4865 2.4116,1.4521 1.129,2.385 -0.2584,0.188 -0.388,0.1788 -0.3009,0.5602l1.1136 -0.6683c0.1668,2.6186 0.3931,3.4577 -0.2357,6.0389 -0.0543,0.2228 -1.0867,3.7686 -1.1788,3.9005 -0.3527,0.5055 -0.7342,0.5399 -0.42,0.9532 0.3737,-0.1152 0.3083,-0.0521 0.5811,-0.3529 0.1759,-0.194 0.2365,-0.3054 0.4388,-0.4898 1.0131,-0.9231 2.8707,-1.9404 3.8909,-0.7867 0.8451,0.9556 0.1914,2.702 -0.0519,2.8765 -0.1932,0.1384 -7.1201,0.1393 -7.3123,0.0077 -0.3619,-0.2479 0.0367,-2.8116 0.1189,-3.3793 0.1618,-1.1179 0.198,-2.3365 0.9334,-2.8334 0.4263,-0.2881 0.8435,-0.2368 1.2338,-0.6237 0.2288,-0.2268 0.6398,-0.8176 0.4755,-1.2816 -0.9398,0.6787 -0.283,0.3725 -0.7971,0.9052 -0.148,0.1534 -1.1487,0.5718 -1.2274,0.5955 0.1553,-0.7634 0.4124,-1.8916 0.4838,-2.6497l0.0559 -0.7549c0.0031,-0.0142 0.0103,-0.0344 0.0132,-0.0458l0.033 -0.0903zm-0.5578 -0.014c0.0508,1.6626 -0.6949,3.8438 -0.9708,5.4895 -0.1321,0.7882 -0.5396,3.6463 -0.4458,4.4399 0.0658,0.5565 0.3977,0.6141 0.8154,0.8172l-0.2475 1.3148 3.2393 0.0164c0.1489,-0.631 -0.5461,-0.4387 -1.1082,-0.4387l-1.7043 -0.0057c0.0846,-0.4414 0.2724,-0.8691 0.7162,-0.8865l3.1781 0c0.5113,0.005 0.5174,0.2653 0.7697,0.8892l-0.7887 0.4378 1.2744 -0.0082 -0.2743 -1.3122c1.0229,-0.0154 2.3152,0.2404 2.6789,-0.5489 0.3468,-0.7526 0.5623,-1.9069 0.1954,-2.717 -0.3163,-0.6983 -1.0616,-1.2521 -2.1124,-1.1966l-2.3239 0.942c0.1304,-1.5546 2.2149,-4.7625 0.9779,-10.11 -0.162,-0.7003 -0.2244,-1.4126 -1.1331,-1.8203 -0.8998,-0.4037 -1.7714,0.0283 -2.1487,0.5955 -0.4006,0.6024 -0.5705,1.3735 -0.8413,2.1064 -0.354,0.9576 -0.7703,1.3491 0.2537,1.9954z"/>
 </g>
</svg>
