<?xml version="1.0" encoding="UTF-8"?>
<!DOCTYPE svg PUBLIC "-//W3C//DTD SVG 1.1//EN" "http://www.w3.org/Graphics/SVG/1.1/DTD/svg11.dtd">
<!-- Creator: CorelDRAW -->
<svg xmlns="http://www.w3.org/2000/svg" xml:space="preserve" width="16.9332mm" height="16.9332mm" style="shape-rendering:geometricPrecision; text-rendering:geometricPrecision; image-rendering:optimizeQuality; fill-rule:evenodd; clip-rule:evenodd"
viewBox="0 0 16.9332 16.9332"
 xmlns:xlink="http://www.w3.org/1999/xlink">
 <defs>
  <style type="text/css">
   <![CDATA[
    .fil0 {fill:black}
    .fil2 {fill:#69696A}
    .fil3 {fill:#A7A7A9}
    .fil1 {fill:#F2F2F7}
   ]]>
  </style>
 </defs>
 <g id="Capa_x0020_1">
  <metadata id="CorelCorpID_0Corel-Layer"/>
  <g id="_408350312">
   <path id="_408351200" class="fil0" d="M10.9165 11.4347l0.0102 0.0011 0.4692 -0.2749 -0.2812 0.6291c0.1974,-0.1004 0.4273,-0.2771 0.6099,-0.4104l0.068 -0.0504 0.0219 0.1297c-0.0147,0.5283 0.0796,0.6357 -0.1989,1.0438l-0.7086 0.5818c-0.1224,0.2089 0.1872,0.3194 -0.9049,1.2605 -0.0603,0.052 -0.0628,0.0661 -0.1233,0.1251 -0.5758,0.5614 -1.4226,0.8679 -2.1681,0.3756 -0.2869,-0.1894 -1.0012,-0.7825 -1.1563,-1.008l-0.3755 -0.7486c-0.29,-0.0223 -0.4498,-0.2046 -0.6375,-0.4859 -0.0522,-0.0783 -0.0949,-0.1384 -0.1508,-0.2245l0.013 -1.2946c0.1306,0.0749 0.4709,0.5186 0.5304,0.575 0.0578,-0.0349 0.0348,0.0549 0.0505,-0.094l-0.0307 -0.4903 0.6061 0.5382c-0.1277,-1.2498 -0.0092,-1.4126 0.7482,-1.8896l0.0987 2.182c0.0902,-0.102 0.3046,-0.5138 0.4935,-0.7458 0.1145,-0.1407 0.1836,-0.2122 0.2781,-0.3456l0.2801 -0.3451c0.0532,-0.0578 0.1002,-0.0765 0.1552,-0.1337 0.0606,-0.0629 0.0897,-0.1161 0.1476,-0.1864 0.2452,-0.2975 0.6887,-0.6031 1.0334,-0.7997l-0.1822 2.6929c0.4539,-0.376 1.1303,-1.541 1.4502,-2.1394 0.2444,0.1404 0.0976,0.5268 0.0449,0.761 -0.0558,0.2475 -0.1845,0.5218 -0.1911,0.7711zm-4.0538 -6.0494l-0.0266 0.0735c-0.0379,-0.0258 -0.0395,-0.06 -0.062,-0.0861 -0.819,-0.7331 -2.1351,-1.9257 -3.3583,-1.6911 -0.8231,0.1578 -3.0619,1.2087 -3.4159,1.6115l1.2242 0.7266c0.2066,0.1348 0.3566,0.2443 0.5604,0.3955 0.5155,0.3824 0.8839,0.6853 1.2994,1.1557 0.0599,0.0679 0.1583,0.1651 0.2152,0.2421 0.2224,0.3012 0.6316,0.8504 0.6876,1.2153l0.0443 0.0854 -0.1114 0.0042c-0.5146,0.0402 -1.4478,0.4104 -1.8942,0.6194 -0.3041,0.1423 -0.5508,0.2545 -0.8437,0.4071 -0.2786,0.1451 -0.5369,0.3089 -0.8032,0.4333l0.0798 0.0843c0.8907,0.1005 3.077,0.7607 3.6997,1.2055 -0.2163,0.2274 -1.2336,0.713 -1.5528,0.9526l2.6614 0.2683c0.8113,0.0791 0.7268,0.435 1.1326,0.988 0.1255,0.1711 0.4761,0.4232 0.5887,0.5351 0.3999,0.3975 0.888,0.7262 1.4934,0.7384 0.8466,0.0169 1.0911,-0.3344 1.56,-0.6764l0.5749 -0.5479c0.49,-0.5418 0.2391,-0.3073 0.4881,-0.6338l1.9894 -0.0724 -0.94 -0.4927 2.8478 -0.8563 -1.7143 -0.4337 -0.0941 -0.0301c-0.0367,-0.1567 -0.0168,-0.0329 0.0274,-0.0779l3.7127 -2.0536 -2.6113 -0.1724 1.0484 -0.9919c0.0716,-0.0585 0.1236,-0.0834 0.1906,-0.1431 0.0834,-0.0741 0.0648,-0.094 0.1616,-0.1538 0.0151,-0.0812 0.0261,-0.0502 -0.0705,-0.064l-3.2698 0.2362 -0.797 -1.2533c-0.3107,-0.3006 -0.8495,-0.5736 -1.3652,-0.681 -0.1273,-1.0505 -0.1211,-1.8529 -0.5225,-2.7141 -0.3953,-0.848 -0.8216,-1.177 -1.7619,-1.4851 -0.4921,-0.1613 -1.1716,-0.3718 -1.6959,-0.4699 0.4136,1.3663 0.7281,2.3058 0.623,3.8026z"/>
   <path id="_408349976" class="fil1" d="M5.9845 11.5651l0.0544 0.184c-0.0673,-0.0342 -0.0374,0.0229 -0.1049,-0.09 -0.0595,-0.0564 -0.3998,-0.5001 -0.5304,-0.575l-0.013 1.2946c0.0559,0.0861 0.0986,0.1462 0.1508,0.2245 0.1877,0.2813 0.3475,0.4636 0.6375,0.4859l0.3755 0.7486c0.1551,0.2255 0.8694,0.8186 1.1563,1.008 0.7455,0.4923 1.5923,0.1858 2.1681,-0.3756 0.0605,-0.059 0.063,-0.0731 0.1233,-0.1251 1.0921,-0.9411 0.7825,-1.0516 0.9049,-1.2605l0.7086 -0.5818c0.2785,-0.4081 0.1842,-0.5155 0.1989,-1.0438l-0.0899 -0.0793c-0.1826,0.1333 -0.4125,0.31 -0.6099,0.4104l0.2812 -0.6291 -0.4692 0.2749 -0.0613 0.068 0.0511 -0.0691c0.0066,-0.2493 0.1353,-0.5236 0.1911,-0.7711 0.0527,-0.2342 0.1995,-0.6206 -0.0449,-0.761 -0.3199,0.5984 -0.9963,1.7634 -1.4502,2.1394l0.1822 -2.6929c-0.3447,0.1966 -0.7882,0.5022 -1.0334,0.7997 -0.0579,0.0703 -0.087,0.1235 -0.1476,0.1864 -0.055,0.0572 -0.102,0.0759 -0.1552,0.1337l-0.2801 0.3451c-0.0945,0.1334 -0.1636,0.2049 -0.2781,0.3456 -0.1889,0.232 -0.4033,0.6438 -0.4935,0.7458l-0.0987 -2.182c-0.7574,0.477 -0.8759,0.6398 -0.7482,1.8896l-0.6061 -0.5382 0.0307 0.4903z"/>
   <path id="_408339872" class="fil2" d="M5.934 11.6591c0.0675,0.1129 0.0376,0.0558 0.1049,0.09l-0.0544 -0.184c-0.0157,0.1489 0.0073,0.0591 -0.0505,0.094z"/>
   <path id="_408346592" class="fil2" d="M15.7225 8.0139l0.1079 -0.0358c-0.1214,-0.0603 -0.0964,-0.0631 -0.1784,-0.0282 0.0966,0.0138 0.0856,-0.0172 0.0705,0.064z"/>
   <path id="_408346256" class="fil2" d="M13.2872 11.6367c-0.0107,-0.0172 -0.0615,-0.1004 -0.0667,-0.108 -0.0442,0.045 -0.0641,-0.0788 -0.0274,0.0779l0.0941 0.0301z"/>
   <path id="_408346520" class="fil2" d="M0.4583 10.662l-0.0798 -0.0843c-0.0483,0.0535 -0.0732,-0.0553 -0.0346,0.0615l0.1144 0.0228z"/>
   <polygon id="_408346544" class="fil2" points="11.8145,11.4589 11.7926,11.3292 11.7246,11.3796 "/>
   <polygon id="_408346784" class="fil3" points="3.9196,9.1179 4.031,9.1137 3.9867,9.0283 "/>
   <path id="_408347000" class="fil3" d="M6.8627 5.3853l-0.0886 -0.0126c0.0225,0.0261 0.0241,0.0603 0.062,0.0861l0.0266 -0.0735z"/>
   <polygon id="_408347240" class="fil2" points="10.9267,11.4358 10.9165,11.4347 10.8654,11.5038 "/>
  </g>
 </g>
</svg>
