<?xml version="1.0" encoding="UTF-8"?>
<!DOCTYPE svg PUBLIC "-//W3C//DTD SVG 1.1//EN" "http://www.w3.org/Graphics/SVG/1.1/DTD/svg11.dtd">
<!-- Creator: CorelDRAW -->
<svg xmlns="http://www.w3.org/2000/svg" xml:space="preserve" width="16.9332mm" height="16.9332mm" style="shape-rendering:geometricPrecision; text-rendering:geometricPrecision; image-rendering:optimizeQuality; fill-rule:evenodd; clip-rule:evenodd"
viewBox="0 0 16.9332 16.9332"
 xmlns:xlink="http://www.w3.org/1999/xlink">
 <defs>
  <style type="text/css">
   <![CDATA[
    .fil0 {fill:black}
    .fil1 {fill:#F3F3F5}
   ]]>
  </style>
 </defs>
 <g id="Capa_x0020_1">
  <metadata id="CorelCorpID_0Corel-Layer"/>
  <g id="_408347888">
   <path id="_408339368" class="fil0" d="M8.4647 4.2029l0.5615 0.0759 -0.5518 3.3458 -0.5756 -0.0413 0.5659 -3.3804zm-3.2017 1.719c0.0856,-0.0948 0.1292,-0.1371 0.2374,-0.2278 0.1826,-0.1532 0.7635,-0.7831 0.9328,-0.9367 0.1646,-0.1493 0.5853,-0.5552 0.687,-0.6925l0.3915 0.3976c-0.2,0.2073 -1.4004,1.4087 -1.4652,1.524l1.4723 1.4526 -0.3734 0.3852c-0.2774,-0.2739 -1.7765,-1.712 -1.8824,-1.9024zm4.1495 -1.4592c0.113,-0.1383 0.2403,-0.3056 0.3983,-0.3974l0.4705 0.471c0.0891,0.0738 0.1194,0.1447 0.231,0.2466l0.4868 0.4679c0.162,0.1779 0.5904,0.5927 0.669,0.723 -0.2083,0.2044 -1.7091,1.7632 -1.9276,1.8493l-0.3328 -0.3721 1.4679 -1.4734 -1.4631 -1.5149zm3.4599 0.6655c0.1016,-0.7966 0.1028,-1.393 -0.1829,-2.1242 -0.2876,-0.7359 -0.4583,-0.9479 -0.9087,-1.518 -0.6776,-0.858 -2.1111,-1.4972 -3.3747,-1.4859 -0.7511,0.0067 -1.3507,0.1765 -1.9547,0.478 -1.0413,0.5199 -1.861,1.4455 -2.2579,2.5959 -0.426,1.2347 -0.1244,1.8785 -0.1584,2.1001l-0.4777 1.2737c0.0946,0.6326 0.1634,0.8492 0.733,1.0965l0.4246 1.7631c0.0551,0.1332 0.8784,1.0363 1.0458,1.1021l-0.1647 1.429c-0.1293,1.1247 -0.0354,1.5464 -0.75,2.2719 -0.2165,0.2199 -0.627,0.4109 -0.9287,0.5819 -0.6396,0.3625 -1.2619,0.728 -1.9237,1.1004 -0.3281,0.1847 -0.6346,0.3683 -0.9611,0.5503 -0.1653,0.0921 -0.8452,0.454 -0.9589,0.5886l16.7858 0.0016 -2.5992 -1.5767c-0.7155,-0.4307 -2.1061,-1.1163 -2.473,-1.6652 -0.3724,-0.5569 -0.3561,-0.8749 -0.4461,-1.618l-0.1724 -1.3915c-0.0308,-0.2329 -0.031,-0.2438 0.1002,-0.3724 0.7972,-0.7815 1.2345,-1.1555 1.3416,-2.799l0.74 -1.1325c0.0427,-0.2824 0.1017,-0.534 -0.0128,-0.8001 -0.1183,-0.275 -0.2169,-0.3015 -0.4654,-0.4496z"/>
   <path id="_408347744" class="fil1" d="M9.4125 4.4627l1.4631 1.5149 -1.4679 1.4734 0.3328 0.3721c0.2185,-0.0861 1.7193,-1.6449 1.9276,-1.8493 -0.0786,-0.1303 -0.507,-0.5451 -0.669,-0.723l-0.4868 -0.4679c-0.1116,-0.1019 -0.1419,-0.1728 -0.231,-0.2466l-0.4705 -0.471c-0.158,0.0918 -0.2853,0.2591 -0.3983,0.3974z"/>
   <path id="_408348032" class="fil1" d="M5.263 5.9219c0.1059,0.1904 1.605,1.6285 1.8824,1.9024l0.3734 -0.3852 -1.4723 -1.4526c0.0648,-0.1153 1.2652,-1.3167 1.4652,-1.524l-0.3915 -0.3976c-0.1017,0.1373 -0.5224,0.5432 -0.687,0.6925 -0.1693,0.1536 -0.7502,0.7835 -0.9328,0.9367 -0.1082,0.0907 -0.1518,0.133 -0.2374,0.2278z"/>
   <polygon id="_408348152" class="fil1" points="7.8988,7.5833 8.4744,7.6246 9.0262,4.2788 8.4647,4.2029 "/>
  </g>
 </g>
</svg>
