<?xml version="1.0" encoding="UTF-8"?>
<!DOCTYPE svg PUBLIC "-//W3C//DTD SVG 1.1//EN" "http://www.w3.org/Graphics/SVG/1.1/DTD/svg11.dtd">
<!-- Creator: CorelDRAW -->
<svg xmlns="http://www.w3.org/2000/svg" xml:space="preserve" width="16.9332mm" height="16.9332mm" style="shape-rendering:geometricPrecision; text-rendering:geometricPrecision; image-rendering:optimizeQuality; fill-rule:evenodd; clip-rule:evenodd"
viewBox="0 0 16.9332 16.9332"
 xmlns:xlink="http://www.w3.org/1999/xlink">
 <defs>
  <style type="text/css">
   <![CDATA[
    .fil0 {fill:black}
   ]]>
  </style>
 </defs>
 <g id="Capa_x0020_1">
  <metadata id="CorelCorpID_0Corel-Layer"/>
  <g id="_374638152">
   <path id="_408348080" class="fil0" d="M9.2386 13.2353c-0.1302,-0.1829 -0.1817,-0.4953 -0.2625,-0.7379 -0.1335,-0.4011 -0.0927,-0.3159 0.0484,-0.678 0.2771,-0.7115 0.4676,-0.9102 -0.5363,-0.9094 -1.0663,0.001 -0.8532,0.1574 -0.566,0.9391 0.1469,0.3996 0.1684,0.2506 0.028,0.6811 -0.0742,0.2277 -0.1276,0.5313 -0.2541,0.7052l-1.3986 -2.9984c-0.5348,0.3282 -0.9017,0.5925 -1.5134,0.7891 -2.0676,0.6646 -3.0074,-0.0884 -3.1024,3.6624 -0.0118,0.4676 0.0463,0.5987 0.3071,0.8511 1.8472,1.7873 9.7147,1.7725 12.3477,0.4285 0.7109,-0.3629 0.9333,-0.6462 0.9154,-1.3215 -0.0986,-3.7314 -1.0484,-2.9395 -3.1315,-3.6306 -0.8423,-0.2793 -1.186,-0.6643 -1.4727,-0.7731l-1.4091 2.9924z"/>
   <path id="_413313248" class="fil0" d="M3.6713 2.1608l0.4946 0.276 -0.2133 0.3737c-0.0111,0.3278 0.1172,0.1891 0.1538,0.3844 0.0161,0.0859 -0.1068,1.4005 -0.1052,1.5665l0.1678 1.9131c0.4309,-0.26 0.2325,-1.7178 0.2053,-2.1187 -0.0261,-0.3852 -0.0589,-0.779 -0.0854,-1.1648 -0.0453,-0.6584 0.3792,0.01 -0.0647,-0.9405l1.0473 0.4597 -0.0718 2.3506c-0.0213,0.0578 -0.3304,0.1596 -0.2625,0.9037 0.0911,0.9985 0.509,1.102 0.5979,1.2595 0.19,0.3367 0.1603,0.5183 0.6442,1.2247 0.5448,0.7952 1.7817,2.0414 3.2753,1.2349 1.0076,-0.5441 1.5164,-1.4144 1.9359,-2.3856 0.0721,-0.167 0.7903,-0.7341 0.5842,-1.8206 -0.0574,-0.3024 -0.1508,-0.2627 -0.2039,-0.4238l-0.1081 -2.3446 1.6024 -0.7478c-0.0109,-0.3403 -0.4847,-0.4275 -1.0464,-0.6714 -0.7393,-0.3211 -3.2568,-1.4861 -3.7301,-1.4898 -0.5272,-0.0041 -1.9665,0.7124 -2.5251,0.9511 -0.4266,0.1821 -0.8083,0.3479 -1.2189,0.5239 -0.5456,0.2338 -1.068,0.3515 -1.0733,0.6858z"/>
  </g>
 </g>
</svg>
