<?xml version="1.0" encoding="UTF-8"?>
<!DOCTYPE svg PUBLIC "-//W3C//DTD SVG 1.1//EN" "http://www.w3.org/Graphics/SVG/1.1/DTD/svg11.dtd">
<!-- Creator: CorelDRAW -->
<svg xmlns="http://www.w3.org/2000/svg" xml:space="preserve" width="16.9332mm" height="16.9332mm" style="shape-rendering:geometricPrecision; text-rendering:geometricPrecision; image-rendering:optimizeQuality; fill-rule:evenodd; clip-rule:evenodd"
viewBox="0 0 16.9332 16.9332"
 xmlns:xlink="http://www.w3.org/1999/xlink">
 <defs>
  <style type="text/css">
   <![CDATA[
    .fil0 {fill:black}
   ]]>
  </style>
 </defs>
 <g id="Capa_x0020_1">
  <metadata id="CorelCorpID_0Corel-Layer"/>
  <g id="_89974072">
   <path id="_408338360" class="fil0" d="M2.5589 16.3418c0.0489,0.4029 0.2734,0.5662 0.6782,0.5702 3.1082,0.0303 6.3349,-0.0012 9.4548,-0.0012 0.976,0 1.6887,0.227 1.7028,-0.7641 0.017,-1.2019 0.0755,-2.4555 -0.323,-3.469 -0.331,-0.8419 -1.0354,-1.5806 -1.7548,-1.9492 -1.0237,-0.5244 -0.9846,-0.2662 -1.2541,-0.0513 -1.4484,1.1547 -3.5279,1.169 -4.94,0.1698 -0.4999,-0.3537 -0.4416,-0.4944 -0.7506,-0.4136 -1.4949,0.3908 -2.5892,1.7026 -2.7901,3.3844 -0.0548,0.4587 -0.078,2.072 -0.0232,2.524z"/>
   <path id="_89973664" class="fil0" d="M4.9609 2.7418c0.0373,0.5082 0.0072,1.1533 0.0062,1.6758 -0.001,0.5297 0.0576,0.6377 0.7525,0.8833 1.6848,0.5957 4.4866,0.6434 6.0132,-0.2324 0.2356,-0.1352 0.2441,-0.2788 0.2446,-0.6113l0.0063 -1.715 1.2697 -0.3568 -0.0056 1.7171c-0.1793,0.1856 -0.4417,0.2904 -0.371,0.7805 0.0996,0.6909 1.1181,0.6917 1.1922,-0.0353 0.042,-0.4123 -0.1728,-0.5612 -0.3819,-0.7846l0.0205 -1.8103c0.2433,-0.1026 0.8474,-0.107 0.782,-0.4592 -0.0397,-0.2134 -0.5595,-0.2875 -0.91,-0.3885 -0.6562,-0.1892 -1.3169,-0.3769 -1.9751,-0.566 -0.654,-0.1879 -1.313,-0.3772 -1.9755,-0.5675 -1.0337,-0.297 -0.969,-0.3873 -2.0255,-0.0834l-4.9306 1.4127c-0.1564,0.0465 -0.3117,0.1707 -0.1914,0.3694 0.0923,0.1525 2.2291,0.7046 2.4794,0.7715z"/>
   <path id="_89973904" class="fil0" d="M5.049 6.0189c-0.221,0.3995 -0.0767,1.4505 0.0414,1.8962 0.3833,1.4474 1.7007,2.7086 3.3634,2.7185 1.5622,0.0093 2.9995,-1.1464 3.4004,-2.7175 0.2669,-1.0458 0.0724,-1.252 0.0938,-1.9017 -1.2949,0.4514 -1.9819,0.6394 -3.4579,0.6455 -1.491,0.0063 -2.1346,-0.1992 -3.4411,-0.641z"/>
  </g>
 </g>
</svg>
