<?xml version="1.0" encoding="UTF-8"?>
<!DOCTYPE svg PUBLIC "-//W3C//DTD SVG 1.1//EN" "http://www.w3.org/Graphics/SVG/1.1/DTD/svg11.dtd">
<!-- Creator: CorelDRAW -->
<svg xmlns="http://www.w3.org/2000/svg" xml:space="preserve" width="16.9332mm" height="16.9332mm" style="shape-rendering:geometricPrecision; text-rendering:geometricPrecision; image-rendering:optimizeQuality; fill-rule:evenodd; clip-rule:evenodd"
viewBox="0 0 16.9332 16.9332"
 xmlns:xlink="http://www.w3.org/1999/xlink">
 <defs>
  <style type="text/css">
   <![CDATA[
    .fil1 {fill:#010101}
    .fil2 {fill:#6D6D6D}
    .fil0 {fill:#F3F3F5}
   ]]>
  </style>
 </defs>
 <g id="Capa_x0020_1">
  <metadata id="CorelCorpID_0Corel-Layer"/>
  <g id="_408355904">
   <path id="_376569640" class="fil0" d="M8.5204 11.0805c-0.323,-0.0251 -0.2424,-0.2281 -0.2421,-0.5429 0.0002,-0.2338 -0.0117,-0.4965 -0.0011,-0.7264 0.0122,-0.2613 0.3676,-0.7587 0.4911,-0.9736 0.1888,-0.3283 0.364,-0.6245 0.5486,-0.942 0.1229,-0.2113 0.4207,-0.9277 0.6516,-0.4087l-0.681 1.2225c-0.7611,1.3204 -0.5953,0.7109 -0.6248,2.0952 -0.004,0.1888 0.014,0.1316 -0.1423,0.2759zm2.7636 -5.7403l-0.0299 0.0437c0.0274,0.3005 0.1731,0.5279 0.1131,0.8181l-0.1529 0.0649 -0.3479 -0.2277 -0.3077 0.3932 -0.2262 -0.0532 0.1986 -0.6186c-0.6271,-0.3797 -1.063,-0.6422 -1.867,-0.7359l-0.0028 1.3182 -0.1326 0.1313 -0.2497 -0.2045c-0.0131,-0.0243 0.0168,-1.0211 -0.0123,-1.2388l-1.8495 0.7526 0.1981 0.5794 -0.21 0.0776 -0.306 -0.4045 -0.5435 0.1309 0.1563 -0.8645c-0.4025,0.2605 -0.6282,0.3903 -0.966,0.7299 -0.1562,0.157 -0.6545,0.693 -0.7182,0.9207l1.118 0.7245 -0.6319 0.0096c-0.2042,-0.108 -0.4803,-0.3161 -0.697,-0.3839l-0.5881 2.2292 1.9316 0.0963 0.0152 0.184 -0.424 0.1113 -1.5357 0.0001 0.6126 2.2243 1.1537 -0.6054 0.1737 0.1266 -0.0174 0.1757c-0.21,0.1235 -0.9441,0.567 -1.115,0.6329l0.3347 0.5082c0.185,0.2685 1.0207,1.055 1.3163,1.1347l0.6811 -1.0989 0.173 -0.0033 0.099 0.1055 -0.614 1.2304c0.3504,0.1557 0.6422,0.2982 1.0254,0.396 0.3062,0.0781 0.9001,0.2192 1.2391,0.1716l0.0018 -1.8441c0.1573,-0.1042 0.0857,-0.0829 0.2944,-0.0827l0.0884 0.4402 0.0005 1.5012 1.2511 -0.1903c0.3408,-0.0703 0.7788,-0.3087 1.0057,-0.3847l-0.592 -1.2839 0.2358 -0.0785 0.6813 1.136c0.4457,-0.2526 0.5689,-0.3484 0.9423,-0.7243 0.3588,-0.3614 0.2625,-0.2404 0.5851,-0.6795 0.0625,-0.0851 0.1069,-0.1339 0.1433,-0.2599l-1.1209 -0.6759c0.7111,-0.0469 0.5364,-0.1274 1.3134,0.3667l0.6133 -2.2368 -1.1248 -0.0021c-0.2691,0 -0.8677,0.1056 -0.8396,-0.2201 0.023,-0.2685 0.6633,-0.171 0.9165,-0.171 0.275,0 0.8059,0.0293 1.049,-0.0133l-0.1833 -1.2138c-0.0756,-0.3389 -0.3055,-0.7505 -0.403,-1.0112 -0.2101,0.1154 -1.1022,0.6625 -1.2318,0.6044 -0.1286,-0.0577 -0.114,-0.2022 -0.1183,-0.274 0.1893,-0.1115 1.0245,-0.5861 1.1242,-0.6718l-0.342 -0.5066c-0.1704,-0.245 -1.0321,-1.0454 -1.2846,-1.1062z"/>
   <path id="_408354656" class="fil1" d="M11.284 5.3402c0.2525,0.0608 1.1142,0.8612 1.2846,1.1062l0.342 0.5066c-0.0997,0.0857 -0.9349,0.5603 -1.1242,0.6718 0.0043,0.0718 -0.0103,0.2163 0.1183,0.274 0.1296,0.0581 1.0217,-0.489 1.2318,-0.6044 0.0975,0.2607 0.3274,0.6723 0.403,1.0112l0.1833 1.2138c-0.2431,0.0426 -0.774,0.0133 -1.049,0.0133 -0.2532,0 -0.8935,-0.0975 -0.9165,0.171 -0.0281,0.3257 0.5705,0.2201 0.8396,0.2201l1.1248 0.0021 -0.6133 2.2368c-0.777,-0.4941 -0.6023,-0.4136 -1.3134,-0.3667l1.1209 0.6759c-0.0364,0.126 -0.0808,0.1748 -0.1433,0.2599 -0.3226,0.4391 -0.2263,0.3181 -0.5851,0.6795 -0.3734,0.3759 -0.4966,0.4717 -0.9423,0.7243l-0.6813 -1.136 -0.2358 0.0785 0.592 1.2839c-0.2269,0.076 -0.6649,0.3144 -1.0057,0.3847l-1.2511 0.1903 -0.0005 -1.5012 -0.0884 -0.4402c-0.2087,-0.0002 -0.1371,-0.0215 -0.2944,0.0827l-0.0018 1.8441c-0.339,0.0476 -0.9329,-0.0935 -1.2391,-0.1716 -0.3832,-0.0978 -0.675,-0.2403 -1.0254,-0.396l0.614 -1.2304 -0.099 -0.1055 -0.173 0.0033 -0.6811 1.0989c-0.2956,-0.0797 -1.1313,-0.8662 -1.3163,-1.1347l-0.3347 -0.5082c0.1709,-0.0659 0.905,-0.5094 1.115,-0.6329l0.0174 -0.1757 -0.1737 -0.1266 -1.1537 0.6054 -0.6126 -2.2243 1.5357 -0.0001 0.424 -0.1113 -0.0152 -0.184 -1.9316 -0.0963 0.5881 -2.2292c0.2167,0.0678 0.4928,0.2759 0.697,0.3839l0.6319 -0.0096 -1.118 -0.7245c0.0637,-0.2277 0.562,-0.7637 0.7182,-0.9207 0.3378,-0.3396 0.5635,-0.4694 0.966,-0.7299l-0.1563 0.8645 0.5435 -0.1309 0.306 0.4045 0.21 -0.0776 -0.1981 -0.5794 1.8495 -0.7526c0.0291,0.2177 -0.0008,1.2145 0.0123,1.2388l0.2497 0.2045 0.1326 -0.1313 0.0028 -1.3182c0.804,0.0937 1.2399,0.3562 1.867,0.7359l-0.1986 0.6186 0.2262 0.0532 0.3077 -0.3932 0.3479 0.2277 0.1529 -0.0649c0.06,-0.2902 -0.0857,-0.5176 -0.1131,-0.8181l-0.0336 -0.114 0.0635 0.0703zm-0.3789 -1.402c0.4043,0.0174 0.9245,0.0853 1.3269,0.1435 0.2773,0.0401 1.0485,0.7391 1.2497,0.9634l0.3525 0.4139c1.203,1.5585 1.8823,3.6456 1.3339,5.7996 -0.2338,0.9184 -0.4645,1.3717 -0.8874,2.091 -0.2051,0.349 -0.9002,1.1894 -1.1852,1.4197 -0.5673,0.4585 -1.2547,0.9994 -2.0878,1.2889 -1.7785,0.6182 -3.2558,0.6813 -5.0637,0.0094 -0.6283,-0.2335 -1.1437,-0.5675 -1.6633,-0.9431 -0.0682,-0.0493 -0.1684,-0.1162 -0.2223,-0.1625 -0.1517,-0.1302 -0.2118,-0.2059 -0.3861,-0.3416 -0.1423,-0.1108 -0.5451,-0.6117 -0.691,-0.8027 -1.9356,-2.5338 -1.7932,-6.0756 0.0956,-8.3361l0.5316 -0.5776c0.1093,-0.1251 0.8529,-0.7818 1.0657,-0.8137l1.3661 -0.1501c-0.2825,1.2056 -0.0017,0.5984 -0.9196,1.2822 -0.6843,0.51 -1.2611,1.1232 -1.6728,1.9238 -0.9131,1.7754 -0.8366,3.9749 0.3087,5.6737 0.2756,0.4087 0.7593,0.9654 1.1538,1.2601 1.0528,0.7866 2.1432,1.2557 3.5716,1.2533 1.4526,-0.0025 2.6503,-0.5524 3.5385,-1.2474 0.3774,-0.2954 0.8834,-0.8472 1.1588,-1.2559 1.3515,-2.005 1.2259,-4.7178 -0.2576,-6.5431 -0.6674,-0.8212 -0.8946,-0.9344 -1.8229,-1.5018l-0.1937 -0.8469zm0.912 -0.3441l0.0916 0.0721c-0.1849,0.0054 -0.0874,-0.0039 -0.1265,-0.0342 -0.333,0.0071 -0.9768,-0.185 -1.236,-0.0876 -0.1149,0.3001 -0.0963,0.166 -0.0272,0.4719 0.037,0.1638 0.0775,0.3242 0.1161,0.4965 0.0626,0.2795 0.204,0.742 0.2222,1.0149l-0.4995 -0.317c-0.5656,-0.3203 -1.1557,-0.5637 -1.8392,-0.5775 -1.0376,-0.021 -1.6552,0.4335 -2.3843,0.8594 -0.0382,0.0632 0.0632,0.0328 -0.0783,0.0593 0.0004,-0.1797 0.0165,-0.0919 0.041,-0.1295 0.0549,-0.3306 0.4545,-1.6217 0.349,-1.8189 -0.1748,-0.1991 -0.8104,0.0303 -1.3524,0.0402l0.0835 -0.0821c0.4776,-0.3665 1.3381,-0.725 1.8969,-0.9411 0.1317,-0.051 0.2352,-0.0871 0.3716,-0.1248 0.3437,-0.0949 0.446,0.0114 0.219,-0.6809 -0.0887,-0.2708 -0.5746,-1.1313 -0.631,-1.4073l1.194 0.0021 0.5443 1.1841c0.424,0.8916 0.2606,0.7499 0.7671,0.9162 0.8934,0.2933 1.6142,0.6242 2.2781,1.0842zm-5.2766 -3.486c-0.0385,0.2568 0.6817,1.6837 0.8302,2.0108 -1.0732,0.2154 -2.1926,0.951 -3.0429,1.5928 -0.1958,0.1478 -0.0017,0.0877 -0.3441,0.3459 -1.0664,0.8038 -1.9912,2.1406 -2.4118,3.4065 -0.3424,1.031 -0.4574,2.1482 -0.293,3.3047 0.2361,1.6611 1.0719,3.1395 2.2553,4.2553l0.5339 0.4251c2.4546,1.7868 5.7866,2.08 8.5086,0.2184 0.3791,-0.2593 0.711,-0.5411 1.0055,-0.8356 0.4887,-0.4889 0.4467,-0.4777 0.859,-1.0176 1.0885,-1.4254 1.6394,-3.8771 1.0415,-5.9507 -0.2817,-0.9768 -0.8288,-2.0856 -1.4244,-2.7417 -0.0414,-0.0456 -0.0631,-0.0548 -0.1136,-0.1154 -0.3393,-0.4072 -0.4249,-0.4777 -0.8289,-0.8176l-0.2578 -0.2004c-0.1113,-0.0833 -0.0726,-0.148 -0.4893,-0.4698 -0.6748,-0.5212 -1.478,-0.9876 -2.4266,-1.2906 -0.5245,-0.1676 -0.4703,-0.0769 -0.5939,-0.3294l-0.9431 -1.8673c-0.2843,-0.0336 -0.6661,-0.0127 -0.9615,-0.0127 -0.2571,0 -0.7541,-0.0798 -0.9031,0.0893z"/>
   <path id="_408355736" class="fil0" d="M11.0988 4.7851c0.9283,0.5674 1.1555,0.6806 1.8229,1.5018 1.4835,1.8253 1.6091,4.5381 0.2576,6.5431 -0.2754,0.4087 -0.7814,0.9605 -1.1588,1.2559 -0.8882,0.695 -2.0859,1.2449 -3.5385,1.2474 -1.4284,0.0024 -2.5188,-0.4667 -3.5716,-1.2533 -0.3945,-0.2947 -0.8782,-0.8514 -1.1538,-1.2601 -1.1453,-1.6988 -1.2218,-3.8983 -0.3087,-5.6737 0.4117,-0.8006 0.9885,-1.4138 1.6728,-1.9238 0.9179,-0.6838 0.6371,-0.0766 0.9196,-1.2822l-1.3661 0.1501c-0.2128,0.0319 -0.9564,0.6886 -1.0657,0.8137l-0.5316 0.5776c-1.8888,2.2605 -2.0312,5.8023 -0.0956,8.3361 0.1459,0.191 0.5487,0.6919 0.691,0.8027 0.1743,0.1357 0.2344,0.2114 0.3861,0.3416 0.0539,0.0463 0.1541,0.1132 0.2223,0.1625 0.5196,0.3756 1.035,0.7096 1.6633,0.9431 1.8079,0.6719 3.2852,0.6088 5.0637,-0.0094 0.8331,-0.2895 1.5205,-0.8304 2.0878,-1.2889 0.285,-0.2303 0.9801,-1.0707 1.1852,-1.4197 0.4229,-0.7193 0.6536,-1.1726 0.8874,-2.091 0.5484,-2.154 -0.1309,-4.2411 -1.3339,-5.7996l-0.3525 -0.4139c-0.2012,-0.2243 -0.9724,-0.9233 -1.2497,-0.9634 -0.4024,-0.0582 -0.9226,-0.1261 -1.3269,-0.1435l0.1937 0.8469z"/>
   <path id="_408355664" class="fil0" d="M7.1025 3.9023l-0.0044 -0.2048c1.1413,-0.9116 2.7132,-0.2219 2.7575,0.0984 0.018,0.1299 -0.0842,0.2173 -0.2105,0.2051 -0.1906,-0.0183 -0.8174,-0.6843 -1.9035,-0.2207 -0.2533,0.1082 -0.423,0.3395 -0.6391,0.122zm-1.0055 1.5201c-0.0081,0.1223 -0.0156,0.0508 0.0373,0.0702 0.7291,-0.4259 1.3467,-0.8804 2.3843,-0.8594 0.6835,0.0138 1.2736,0.2572 1.8392,0.5775l0.4995 0.317c-0.0182,-0.2729 -0.1596,-0.7354 -0.2222,-1.0149 -0.0386,-0.1723 -0.0791,-0.3327 -0.1161,-0.4965 -0.0691,-0.3059 -0.0877,-0.1718 0.0272,-0.4719 0.2592,-0.0974 0.903,0.0947 1.236,0.0876l0.0349 -0.0379c-0.6639,-0.46 -1.3847,-0.7909 -2.2781,-1.0842 -0.5065,-0.1663 -0.3431,-0.0246 -0.7671,-0.9162l-0.5443 -1.1841 -1.194 -0.0021c0.0564,0.276 0.5423,1.1365 0.631,1.4073 0.227,0.6923 0.1247,0.586 -0.219,0.6809 -0.1364,0.0377 -0.2399,0.0738 -0.3716,0.1248 -0.5588,0.2161 -1.4193,0.5746 -1.8969,0.9411l-0.0835 0.0821c0.542,-0.0099 1.1776,-0.2393 1.3524,-0.0402 0.1055,0.1972 -0.2941,1.4883 -0.349,1.8189z"/>
   <path id="_408355832" class="fil1" d="M8.5204 11.0805c0.1563,-0.1443 0.1383,-0.0871 0.1423,-0.2759 0.0295,-1.3843 -0.1363,-0.7748 0.6248,-2.0952l0.681 -1.2225c-0.2309,-0.519 -0.5287,0.1974 -0.6516,0.4087 -0.1846,0.3175 -0.3598,0.6137 -0.5486,0.942 -0.1235,0.2149 -0.4789,0.7123 -0.4911,0.9736 -0.0106,0.2299 0.0013,0.4926 0.0011,0.7264 -0.0003,0.3148 -0.0809,0.5178 0.2421,0.5429z"/>
   <path id="_408355976" class="fil1" d="M7.1025 3.9023c0.2161,0.2175 0.3858,-0.0138 0.6391,-0.122 1.0861,-0.4636 1.7129,0.2024 1.9035,0.2207 0.1263,0.0122 0.2285,-0.0752 0.2105,-0.2051 -0.0443,-0.3203 -1.6162,-1.01 -2.7575,-0.0984l0.0044 0.2048z"/>
   <path id="_408355640" class="fil2" d="M6.1343 5.4926c-0.0529,-0.0194 -0.0454,0.0521 -0.0373,-0.0702 -0.0245,0.0376 -0.0406,-0.0502 -0.041,0.1295 0.1415,-0.0265 0.0401,0.0039 0.0783,-0.0593z"/>
   <path id="_408355928" class="fil2" d="M11.7822 3.632c0.0391,0.0303 -0.0584,0.0396 0.1265,0.0342l-0.0916 -0.0721 -0.0349 0.0379z"/>
   <polygon id="_408355952" class="fil2" points="11.2541,5.3839 11.284,5.3402 11.2205,5.2699 "/>
  </g>
 </g>
</svg>
