<?xml version="1.0" encoding="UTF-8"?>
<!DOCTYPE svg PUBLIC "-//W3C//DTD SVG 1.1//EN" "http://www.w3.org/Graphics/SVG/1.1/DTD/svg11.dtd">
<!-- Creator: CorelDRAW -->
<svg xmlns="http://www.w3.org/2000/svg" xml:space="preserve" width="16.9332mm" height="16.9332mm" style="shape-rendering:geometricPrecision; text-rendering:geometricPrecision; image-rendering:optimizeQuality; fill-rule:evenodd; clip-rule:evenodd"
viewBox="0 0 16.9332 16.9332"
 xmlns:xlink="http://www.w3.org/1999/xlink">
 <defs>
  <style type="text/css">
   <![CDATA[
    .fil0 {fill:black}
    .fil2 {fill:#5C5C5C}
    .fil1 {fill:#858585}
   ]]>
  </style>
 </defs>
 <g id="Capa_x0020_1">
  <metadata id="CorelCorpID_0Corel-Layer"/>
  <g id="_408354488">
   <polygon id="_408357056" class="fil0" points="13.8338,2.608 13.796,2.608 13.796,2.5702 13.7583,2.5702 13.7583,2.419 13.7204,2.419 13.7204,2.3812 13.6826,2.3812 13.6826,2.3056 13.6449,2.3056 13.6449,2.1922 13.6071,2.1922 13.6071,2.1166 13.5692,2.1166 13.5692,2.041 13.5315,2.041 13.5315,1.9654 13.4937,1.9654 13.4937,1.8898 13.4558,1.8898 13.4558,1.7387 13.4181,1.7387 13.4181,1.663 13.3803,1.663 13.3803,1.5874 13.3425,1.5874 13.3425,1.5496 13.3047,1.5496 13.3047,1.4741 13.2669,1.4741 13.2669,1.3985 13.2291,1.3985 13.2291,1.2473 13.1913,1.2473 13.1913,1.1717 13.1535,1.1717 13.1535,1.0961 13.1157,1.0961 13.1157,1.0205 13.0779,1.0205 13.0779,0.9827 13.0401,0.9827 13.0401,0.9071 13.0023,0.9071 13.0023,0.7937 12.9645,0.7937 12.9645,0.6803 12.9267,0.6803 12.9267,0.6425 12.8889,0.6425 12.8889,0.5291 12.8511,0.5291 12.8511,0.4535 12.8133,0.4535 12.8133,0.4157 12.7755,0.4157 12.7755,0.3401 12.7377,0.3401 12.7377,0.3023 12.6999,0.3023 12.6999,0.2267 12.6621,0.2267 12.6621,0.1889 12.6243,0.1889 12.6243,0.1512 12.5487,0.1512 12.5487,0.0755 12.3975,0.0755 12.3975,0.0378 12.3219,0.0378 12.3219,-0.0001 11.8683,-0.0001 11.8683,0.0378 11.7928,0.0378 11.7928,0.0755 11.7172,0.0755 11.7172,0.1133 11.6416,0.1133 11.6416,0.1512 11.6038,0.1512 11.6038,0.1889 11.566,0.1889 11.566,0.2267 11.5282,0.2267 11.5282,0.2645 11.4904,0.2645 11.4904,0.3401 11.4526,0.3401 11.4526,0.3779 11.4148,0.3779 11.4148,0.4157 11.377,0.4157 11.377,0.4913 11.3392,0.4913 11.3392,0.5669 11.3014,0.5669 11.3014,0.7181 11.2636,0.7181 11.2636,0.7937 11.2258,0.7937 11.2258,9.5627 11.2636,9.5627 11.2636,9.6005 11.3014,9.6005 11.3014,9.6383 11.3392,9.6383 11.3392,9.7139 11.377,9.7139 11.377,9.7517 11.4148,9.7517 11.4148,9.8651 11.4526,9.8651 11.4526,9.9407 11.4904,9.9407 11.4904,10.5455 11.4526,10.5455 11.4526,10.7723 11.4148,10.7723 11.4148,10.8857 11.377,10.8857 11.377,10.9612 11.3392,10.9612 11.3392,11.0746 11.3014,11.0746 11.3014,11.1502 11.2636,11.1502 11.2636,11.188 11.2258,11.188 11.2258,11.2636 11.188,11.2636 11.188,11.3392 11.1502,11.3392 11.1502,11.377 11.1124,11.377 11.1124,11.4526 11.0746,11.4526 11.0746,11.5282 11.0368,11.5282 11.0368,11.566 10.999,11.566 10.999,11.6416 10.9612,11.6416 10.9612,11.6794 10.9234,11.6794 10.9234,11.7172 10.8856,11.7172 10.8856,11.755 10.8478,11.755 10.8478,11.8306 10.81,11.8306 10.81,11.8684 10.7722,11.8684 10.7722,11.9062 10.7344,11.9062 10.7344,11.944 10.6966,11.944 10.6966,12.0196 10.6588,12.0196 10.6588,12.0574 10.6211,12.0574 10.6211,12.0952 10.5833,12.0952 10.5833,12.133 10.5454,12.133 10.5454,12.1708 10.5077,12.1708 10.5077,12.2086 10.4699,12.2086 10.4699,12.2464 10.432,12.2464 10.432,12.2841 10.3943,12.2841 10.3943,12.322 10.3565,12.322 10.3565,12.3598 10.3187,12.3598 10.3187,12.3975 10.2809,12.3975 10.2809,12.4353 10.2431,12.4353 10.2431,12.4732 10.1675,12.4732 10.1675,12.5109 10.1297,12.5109 10.1297,12.5487 10.0919,12.5487 10.0919,12.5866 10.0541,12.5866 10.0541,12.6243 9.9785,12.6243 9.9785,12.6621 9.9407,12.6621 9.9407,12.6999 9.9029,12.6999 9.9029,12.7377 9.8273,12.7377 9.8273,12.7755 9.7895,12.7755 9.7895,12.8133 9.7139,12.8133 9.7139,12.8511 9.6761,12.8511 9.6761,12.8889 9.6005,12.8889 9.6005,12.9267 9.5249,12.9267 9.5249,12.9645 9.4493,12.9645 9.4493,13.0023 9.3737,13.0023 9.3737,13.0401 9.2981,13.0401 9.2981,13.0779 9.1091,13.0779 9.1091,13.1157 8.7312,13.1157 8.7312,13.0779 8.6934,13.0779 8.6934,13.0401 8.6178,13.0401 8.6178,13.0023 8.58,13.0023 8.58,12.9645 8.5422,12.9645 8.5422,12.8889 8.5044,12.8889 8.5044,12.7755 8.4666,12.7755 8.4666,12.6621 8.4288,12.6621 8.4288,12.7755 8.391,12.7755 8.391,12.9267 8.3532,12.9267 8.3532,12.9645 8.3154,12.9645 8.3154,13.0023 8.2776,13.0023 8.2776,13.0401 8.2398,13.0401 8.2398,13.0779 8.1264,13.0779 8.1264,13.1157 7.7484,13.1157 7.7484,13.0779 7.5972,13.0779 7.5972,13.0401 7.5595,13.0401 7.5595,13.0023 7.4461,13.0023 7.4461,12.9645 7.4083,12.9645 7.4083,12.9267 7.3327,12.9267 7.3327,12.8889 7.2949,12.8889 7.2949,12.8511 7.1815,12.8511 7.1815,12.8133 7.1437,12.8133 7.1437,12.7755 7.0681,12.7755 7.0681,12.7377 7.0303,12.7377 7.0303,12.6999 6.9547,12.6999 6.9547,12.6621 6.9169,12.6621 6.9169,12.6243 6.8791,12.6243 6.8791,12.5866 6.8035,12.5866 6.8035,12.5487 6.7657,12.5487 6.7657,12.5109 6.7279,12.5109 6.7279,12.4732 6.6901,12.4732 6.6901,12.4353 6.6523,12.4353 6.6523,12.3975 6.6145,12.3975 6.6145,12.3598 6.5389,12.3598 6.5389,12.322 6.5011,12.322 6.5011,12.2841 6.4633,12.2841 6.4633,12.2464 6.4255,12.2464 6.4255,12.1708 6.3877,12.1708 6.3877,12.133 6.3499,12.133 6.3499,12.0952 6.3121,12.0952 6.3121,12.0574 6.2743,12.0574 6.2743,12.0196 6.2365,12.0196 6.2365,11.9818 6.1987,11.9818 6.1987,11.944 6.1609,11.944 6.1609,11.9062 6.1231,11.9062 6.1231,11.8684 6.0853,11.8684 6.0853,11.7928 6.0475,11.7928 6.0475,11.755 6.0097,11.755 6.0097,11.7172 5.972,11.7172 5.972,11.6794 5.9341,11.6794 5.9341,11.6038 5.8963,11.6038 5.8963,11.566 5.8586,11.566 5.8586,11.4904 5.8207,11.4904 5.8207,11.4526 5.7829,11.4526 5.7829,11.377 5.7452,11.377 5.7452,11.3014 5.7074,11.3014 5.7074,11.2636 5.6695,11.2636 5.6695,11.1502 5.6318,11.1502 5.6318,11.0746 5.594,11.0746 5.594,10.9991 5.5561,10.9991 5.5561,10.9612 5.5184,10.9612 5.5184,10.81 5.4806,10.81 5.4806,10.6966 5.4428,10.6966 5.4428,10.5077 5.405,10.5077 5.405,10.0163 5.4428,10.0163 5.4428,9.8651 5.4806,9.8651 5.4806,9.7895 5.5184,9.7895 5.5184,9.7139 5.5561,9.7139 5.5561,9.6761 5.594,9.6761 5.594,9.6005 5.6318,9.6005 5.6318,9.5627 5.6695,9.5627 5.6695,0.7937 5.6318,0.7937 5.6318,0.5669 5.594,0.5669 5.594,0.4913 5.5561,0.4913 5.5561,0.4157 5.5184,0.4157 5.5184,0.3779 5.4806,0.3779 5.4806,0.3401 5.4428,0.3401 5.4428,0.2645 5.405,0.2645 5.405,0.2267 5.3672,0.2267 5.3672,0.1889 5.3294,0.1889 5.3294,0.1512 5.2916,0.1512 5.2916,0.1133 5.216,0.1133 5.216,0.0755 5.1782,0.0755 5.1782,0.0378 5.027,0.0378 5.027,-0.0001 4.5357,-0.0001 4.5357,0.0378 4.4978,0.0378 4.4978,0.0755 4.4223,0.0755 4.4223,0.1133 4.3466,0.1133 4.3466,0.1512 4.3089,0.1512 4.3089,0.1889 4.2711,0.1889 4.2711,0.2267 4.2332,0.2267 4.2332,0.2645 4.1955,0.2645 4.1955,0.3401 4.1577,0.3401 4.1577,0.3779 4.1199,0.3779 4.1199,0.4535 4.0821,0.4535 4.0821,0.4913 4.0443,0.4913 4.0443,0.5669 4.0065,0.5669 4.0065,0.6425 3.9687,0.6425 3.9687,0.7181 3.9309,0.7181 3.9309,0.8693 3.8931,0.8693 3.8931,0.9071 3.8553,0.9071 3.8553,0.9827 3.8175,0.9827 3.8175,1.0961 3.7797,1.0961 3.7797,1.1339 3.7419,1.1339 3.7419,1.2851 3.7041,1.2851 3.7041,1.3229 3.6663,1.3229 3.6663,1.3985 3.6285,1.3985 3.6285,1.5119 3.5907,1.5119 3.5907,1.5874 3.5529,1.5874 3.5529,1.6253 3.5151,1.6253 3.5151,1.7764 3.4773,1.7764 3.4773,1.8142 3.4395,1.8142 3.4395,1.8898 3.4017,1.8898 3.4017,1.9654 3.3639,1.9654 3.3639,2.041 3.3261,2.041 3.3261,2.1922 3.2883,2.1922 3.2883,2.23 3.2505,2.23 3.2505,2.3056 3.2127,2.3056 3.2127,2.3812 3.1749,2.3812 3.1749,2.4946 3.1371,2.4946 3.1371,2.5324 3.0993,2.5324 3.0993,2.6836 3.0615,2.6836 3.0615,2.7214 3.0237,2.7214 3.0237,2.797 2.9859,2.797 2.9859,2.9104 2.9482,2.9104 2.9482,2.9482 2.9103,2.9482 2.9103,3.0994 2.8725,3.0994 2.8725,3.1371 2.8348,3.1371 2.8348,3.2505 2.797,3.2505 2.797,3.2883 2.7591,3.2883 2.7591,3.3639 2.7214,3.3639 2.7214,3.5151 2.6836,3.5151 2.6836,3.5907 2.6457,3.5907 2.6457,3.6285 2.608,3.6285 2.608,3.7041 2.5702,3.7041 2.5702,3.8175 2.5324,3.8175 2.5324,3.8553 2.4946,3.8553 2.4946,4.0065 2.4568,4.0065 2.4568,4.0443 2.419,4.0443 2.419,4.1199 2.3812,4.1199 2.3812,4.1955 2.3434,4.1955 2.3434,4.2711 2.3056,4.2711 2.3056,4.4223 2.2678,4.4223 2.2678,4.4979 2.23,4.4979 2.23,4.5357 2.1922,4.5357 2.1922,4.6112 2.1544,4.6112 2.1544,4.6868 2.1166,4.6868 2.1166,4.7624 2.0788,4.7624 2.0788,4.9136 2.041,4.9136 2.041,4.9514 2.0032,4.9514 2.0032,5.027 1.9654,5.027 1.9654,5.1026 1.9276,5.1026 1.9276,5.216 1.8898,5.216 1.8898,5.2916 1.852,5.2916 1.852,5.405 1.8142,5.405 1.8142,5.4428 1.7764,5.4428 1.7764,5.5184 1.7386,5.5184 1.7386,5.6318 1.7008,5.6318 1.7008,5.7452 1.663,5.7452 1.663,5.8208 1.6252,5.8208 1.6252,5.8586 1.5874,5.8586 1.5874,5.9341 1.5496,5.9341 1.5496,6.0098 1.5118,6.0098 1.5118,6.1232 1.474,6.1232 1.474,6.2366 1.4362,6.2366 1.4362,6.3121 1.3984,6.3121 1.3984,6.3877 1.3607,6.3877 1.3607,6.4255 1.3228,6.4255 1.3228,6.5389 1.285,6.5389 1.285,6.6145 1.2473,6.6145 1.2473,6.7279 1.2094,6.7279 1.2094,6.7657 1.1716,6.7657 1.1716,6.8413 1.1339,6.8413 1.1339,6.9169 1.0961,6.9169 1.0961,7.0303 1.0582,7.0303 1.0582,7.1437 1.0205,7.1437 1.0205,7.1815 0.9827,7.1815 0.9827,7.2571 0.9448,7.2571 0.9448,7.3327 0.9071,7.3327 0.9071,7.4083 0.8693,7.4083 0.8693,7.5595 0.8315,7.5595 0.8315,7.635 0.7937,7.635 0.7937,7.7107 0.7559,7.7107 0.7559,7.7484 0.7181,7.7484 0.7181,7.8618 0.6803,7.8618 0.6803,7.9752 0.6425,7.9752 0.6425,8.0508 0.6047,8.0508 0.6047,8.0886 0.5669,8.0886 0.5669,8.1642 0.5291,8.1642 0.5291,8.3154 0.4913,8.3154 0.4913,8.4288 0.4535,8.4288 0.4535,8.5044 0.4157,8.5044 0.4157,8.6556 0.3779,8.6556 0.3779,8.7312 0.3401,8.7312 0.3401,8.8446 0.3023,8.8446 0.3023,9.0714 0.2645,9.0714 0.2645,9.2225 0.2267,9.2225 0.2267,9.3737 0.1889,9.3737 0.1889,9.5627 0.1511,9.5627 0.1511,9.7517 0.1133,9.7517 0.1133,10.0919 0.0755,10.0919 0.0755,10.2809 0.0378,10.2809 0.0378,11.6794 0.0755,11.6794 0.0755,11.8306 0.1133,11.8306 0.1133,12.322 0.1511,12.322 0.1511,12.4353 0.1889,12.4353 0.1889,12.6621 0.2267,12.6621 0.2267,12.7755 0.2645,12.7755 0.2645,12.9267 0.3023,12.9267 0.3023,13.1157 0.3401,13.1157 0.3401,13.1913 0.3779,13.1913 0.3779,13.3425 0.4157,13.3425 0.4157,13.4937 0.4535,13.4937 0.4535,13.5315 0.4913,13.5315 0.4913,13.6449 0.5291,13.6449 0.5291,13.7961 0.5669,13.7961 0.5669,13.9095 0.6047,13.9095 0.6047,13.985 0.6425,13.985 0.6425,14.0228 0.6803,14.0228 0.6803,14.0984 0.7181,14.0984 0.7181,14.2496 0.7559,14.2496 0.7559,14.2874 0.7937,14.2874 0.7937,14.363 0.8315,14.363 0.8315,14.4764 0.8693,14.4764 0.8693,14.5142 0.9071,14.5142 0.9071,14.5898 0.9448,14.5898 0.9448,14.6276 0.9827,14.6276 0.9827,14.7032 1.0205,14.7032 1.0205,14.7788 1.0582,14.7788 1.0582,14.8544 1.0961,14.8544 1.0961,14.8922 1.1339,14.8922 1.1339,14.93 1.1716,14.93 1.1716,15.0056 1.2094,15.0056 1.2094,15.0434 1.2473,15.0434 1.2473,15.119 1.285,15.119 1.285,15.1568 1.3228,15.1568 1.3228,15.2324 1.3607,15.2324 1.3607,15.2702 1.3984,15.2702 1.3984,15.3079 1.4362,15.3079 1.4362,15.3836 1.474,15.3836 1.474,15.4213 1.5118,15.4213 1.5118,15.4591 1.5496,15.4591 1.5496,15.497 1.5874,15.497 1.5874,15.5725 1.6252,15.5725 1.6252,15.6103 1.663,15.6103 1.663,15.6481 1.7008,15.6481 1.7008,15.6859 1.7386,15.6859 1.7386,15.7237 1.7764,15.7237 1.7764,15.7615 1.8142,15.7615 1.8142,15.7993 1.852,15.7993 1.852,15.8371 1.8898,15.8371 1.8898,15.8749 1.9276,15.8749 1.9276,15.9127 1.9654,15.9127 1.9654,15.9505 2.041,15.9505 2.041,15.9883 2.0788,15.9883 2.0788,16.0261 2.1166,16.0261 2.1166,16.0639 2.1544,16.0639 2.1544,16.1017 2.1922,16.1017 2.1922,16.1395 2.2678,16.1395 2.2678,16.1773 2.3056,16.1773 2.3056,16.2151 2.3434,16.2151 2.3434,16.2529 2.419,16.2529 2.419,16.2907 2.4946,16.2907 2.4946,16.3285 2.5324,16.3285 2.5324,16.3663 2.5702,16.3663 2.5702,16.4041 2.6457,16.4041 2.6457,16.4419 2.7214,16.4419 2.7214,16.4797 2.797,16.4797 2.797,16.5175 2.8348,16.5175 2.8348,16.5553 2.9103,16.5553 2.9103,16.5931 2.9859,16.5931 2.9859,16.6309 3.0993,16.6309 3.0993,16.6687 3.2127,16.6687 3.2127,16.7065 3.2505,16.7065 3.2505,16.7443 3.4395,16.7443 3.4395,16.782 3.5151,16.782 3.5151,16.8199 3.6663,16.8199 3.6663,16.8577 3.8175,16.8577 3.8175,16.8954 3.8931,16.8954 3.8931,16.9333 4.8002,16.9333 4.8002,16.8954 4.9514,16.8954 4.9514,16.8577 5.1404,16.8577 5.1404,16.8199 5.3294,16.8199 5.3294,16.782 5.4806,16.782 5.4806,16.7443 5.5184,16.7443 5.5184,16.7065 5.6695,16.7065 5.6695,16.6687 5.7829,16.6687 5.7829,16.6309 5.8586,16.6309 5.8586,16.5931 5.9341,16.5931 5.9341,16.5553 5.972,16.5553 5.972,16.5175 6.0475,16.5175 6.0475,16.4797 6.1231,16.4797 6.1231,16.4419 6.1987,16.4419 6.1987,16.4041 6.2365,16.4041 6.2365,16.3663 6.3121,16.3663 6.3121,16.3285 6.3499,16.3285 6.3499,16.2907 6.4255,16.2907 6.4255,16.2529 6.4633,16.2529 6.4633,16.2151 6.5011,16.2151 6.5011,16.1773 6.5767,16.1773 6.5767,16.1395 6.6145,16.1395 6.6145,16.1017 6.6523,16.1017 6.6523,16.0639 6.6901,16.0639 6.6901,16.0261 6.7657,16.0261 6.7657,15.9883 6.8035,15.9883 6.8035,15.9505 6.8413,15.9505 6.8413,15.9127 6.8791,15.9127 6.8791,15.8749 6.9169,15.8749 6.9169,15.8371 6.9547,15.8371 6.9547,15.7993 6.9925,15.7993 6.9925,15.7615 7.0303,15.7615 7.0303,15.7237 7.0681,15.7237 7.0681,15.6859 7.1059,15.6859 7.1059,15.6481 7.1437,15.6481 7.1437,15.6103 7.1815,15.6103 7.1815,15.5725 7.2193,15.5725 7.2193,15.5347 7.257,15.5347 7.257,15.4591 7.2949,15.4591 7.2949,15.4213 7.3327,15.4213 7.3327,15.3836 7.3704,15.3836 7.3704,15.3458 7.4083,15.3458 7.4083,15.3079 7.4461,15.3079 7.4461,15.2324 7.4838,15.2324 7.4838,15.1945 7.5216,15.1945 7.5216,15.119 7.5595,15.119 7.5595,15.0812 7.5972,15.0812 7.5972,15.0434 7.635,15.0434 7.635,14.9678 7.6728,14.9678 7.6728,14.8922 7.7106,14.8922 7.7106,14.8544 7.7484,14.8544 7.7484,14.7788 7.7862,14.7788 7.7862,14.741 7.824,14.741 7.824,14.6654 7.8618,14.6654 7.8618,14.5898 7.8996,14.5898 7.8996,14.5142 7.9374,14.5142 7.9374,14.4764 7.9752,14.4764 7.9752,14.4008 8.013,14.4008 8.013,14.2874 8.0508,14.2874 8.0508,14.2118 8.0886,14.2118 8.0886,14.1741 8.1264,14.1741 8.1264,14.0607 8.1642,14.0607 8.1642,13.9473 8.202,13.9473 8.202,13.9095 8.2398,13.9095 8.2398,13.7961 8.2776,13.7961 8.2776,13.7205 8.3154,13.7205 8.3154,13.6071 8.3532,13.6071 8.3532,13.4937 8.391,13.4937 8.391,13.3803 8.4288,13.3803 8.4288,13.1913 8.5044,13.1913 8.5044,13.3425 8.5422,13.3425 8.5422,13.3803 8.58,13.3803 8.58,13.5693 8.6178,13.5693 8.6178,13.6827 8.6556,13.6827 8.6556,13.7205 8.6934,13.7205 8.6934,13.8716 8.7312,13.8716 8.7312,13.9473 8.769,13.9473 8.769,14.0228 8.8068,14.0228 8.8068,14.0984 8.8445,14.0984 8.8445,14.2118 8.8824,14.2118 8.8824,14.2496 8.9202,14.2496 8.9202,14.363 8.9579,14.363 8.9579,14.4386 8.9958,14.4386 8.9958,14.4764 9.0336,14.4764 9.0336,14.552 9.0713,14.552 9.0713,14.6654 9.1091,14.6654 9.1091,14.7032 9.147,14.7032 9.147,14.741 9.1847,14.741 9.1847,14.8166 9.2225,14.8166 9.2225,14.8922 9.2604,14.8922 9.2604,14.93 9.2981,14.93 9.2981,15.0056 9.3359,15.0056 9.3359,15.0434 9.3737,15.0434 9.3737,15.119 9.4115,15.119 9.4115,15.1568 9.4493,15.1568 9.4493,15.2324 9.4871,15.2324 9.4871,15.2702 9.5249,15.2702 9.5249,15.3079 9.5627,15.3079 9.5627,15.3836 9.6005,15.3836 9.6005,15.4213 9.6383,15.4213 9.6383,15.4591 9.6761,15.4591 9.6761,15.497 9.7139,15.497 9.7139,15.5347 9.7517,15.5347 9.7517,15.5725 9.7895,15.5725 9.7895,15.6103 9.8273,15.6103 9.8273,15.6859 9.8651,15.6859 9.8651,15.7237 9.9029,15.7237 9.9029,15.7615 9.9407,15.7615 9.9407,15.7993 9.9785,15.7993 9.9785,15.8371 10.0163,15.8371 10.0163,15.8749 10.0541,15.8749 10.0541,15.9127 10.1297,15.9127 10.1297,15.9505 10.1675,15.9505 10.1675,15.9883 10.2053,15.9883 10.2053,16.0261 10.2431,16.0261 10.2431,16.0639 10.2809,16.0639 10.2809,16.1017 10.3187,16.1017 10.3187,16.1395 10.3943,16.1395 10.3943,16.1773 10.432,16.1773 10.432,16.2151 10.4699,16.2151 10.4699,16.2529 10.5454,16.2529 10.5454,16.2907 10.5833,16.2907 10.5833,16.3285 10.6588,16.3285 10.6588,16.3663 10.6966,16.3663 10.6966,16.4041 10.7722,16.4041 10.7722,16.4419 10.81,16.4419 10.81,16.4797 10.8478,16.4797 10.8478,16.5175 10.9234,16.5175 10.9234,16.5553 10.999,16.5553 10.999,16.5931 11.0746,16.5931 11.0746,16.6309 11.2258,16.6309 11.2258,16.6687 11.3014,16.6687 11.3014,16.7065 11.377,16.7065 11.377,16.7443 11.4904,16.7443 11.4904,16.782 11.6038,16.782 11.6038,16.8199 11.755,16.8199 11.755,16.8577 11.9817,16.8577 11.9817,16.8954 12.1329,16.8954 12.1329,16.9333 13.0023,16.9333 13.0023,16.8954 13.0401,16.8954 13.0401,16.8577 13.3047,16.8577 13.3047,16.8199 13.4181,16.8199 13.4181,16.782 13.5315,16.782 13.5315,16.7443 13.6826,16.7443 13.6826,16.7065 13.796,16.7065 13.796,16.6687 13.8717,16.6687 13.8717,16.6309 13.9094,16.6309 13.9094,16.5931 14.0228,16.5931 14.0228,16.5553 14.0606,16.5553 14.0606,16.5175 14.1362,16.5175 14.1362,16.4797 14.2496,16.4797 14.2496,16.4419 14.2874,16.4419 14.2874,16.4041 14.363,16.4041 14.363,16.3663 14.4386,16.3663 14.4386,16.3285 14.4764,16.3285 14.4764,16.2907 14.552,16.2907 14.552,16.2529 14.5898,16.2529 14.5898,16.2151 14.6654,16.2151 14.6654,16.1773 14.7032,16.1773 14.7032,16.1395 14.741,16.1395 14.741,16.1017 14.7788,16.1017 14.7788,16.0639 14.8166,16.0639 14.8166,16.0261 14.8922,16.0261 14.8922,15.9883 14.93,15.9883 14.93,15.9505 14.9678,15.9505 14.9678,15.9127 15.0056,15.9127 15.0056,15.8749 15.0433,15.8749 15.0433,15.8371 15.0812,15.8371 15.0812,15.7993 15.119,15.7993 15.119,15.7615 15.1567,15.7615 15.1567,15.7237 15.1946,15.7237 15.1946,15.6859 15.2324,15.6859 15.2324,15.6481 15.2701,15.6481 15.2701,15.6103 15.3079,15.6103 15.3079,15.5725 15.3458,15.5725 15.3458,15.5347 15.3835,15.5347 15.3835,15.4591 15.4213,15.4591 15.4213,15.4213 15.4592,15.4213 15.4592,15.3836 15.4969,15.3836 15.4969,15.3458 15.5347,15.3458 15.5347,15.3079 15.5725,15.3079 15.5725,15.2324 15.6103,15.2324 15.6103,15.1945 15.6481,15.1945 15.6481,15.119 15.6859,15.119 15.6859,15.0812 15.7237,15.0812 15.7237,15.0056 15.7615,15.0056 15.7615,14.9678 15.7993,14.9678 15.7993,14.8922 15.8371,14.8922 15.8371,14.8544 15.8749,14.8544 15.8749,14.7788 15.9127,14.7788 15.9127,14.7032 15.9505,14.7032 15.9505,14.6654 15.9883,14.6654 15.9883,14.5898 16.0261,14.5898 16.0261,14.5142 16.0639,14.5142 16.0639,14.4764 16.1017,14.4764 16.1017,14.4008 16.1395,14.4008 16.1395,14.2874 16.1773,14.2874 16.1773,14.2118 16.2151,14.2118 16.2151,14.1741 16.2529,14.1741 16.2529,14.0984 16.2907,14.0984 16.2907,13.985 16.3285,13.985 16.3285,13.8716 16.3663,13.8716 16.3663,13.7961 16.4041,13.7961 16.4041,13.7205 16.4419,13.7205 16.4419,13.6071 16.4796,13.6071 16.4796,13.4559 16.5175,13.4559 16.5175,13.4181 16.5553,13.4181 16.5553,13.2291 16.593,13.2291 16.593,13.1157 16.6309,13.1157 16.6309,12.9645 16.6687,12.9645 16.6687,12.8889 16.7064,12.8889 16.7064,12.6621 16.7442,12.6621 16.7442,12.5109 16.7821,12.5109 16.7821,12.3598 16.8198,12.3598 16.8198,11.9818 16.8576,11.9818 16.8576,11.6794 16.8954,11.6794 16.8954,10.4699 16.8576,10.4699 16.8576,9.9785 16.8198,9.9785 16.8198,9.7895 16.7821,9.7895 16.7821,9.5627 16.7442,9.5627 16.7442,9.3359 16.7064,9.3359 16.7064,9.1848 16.6687,9.1848 16.6687,8.958 16.6309,8.958 16.6309,8.8446 16.593,8.8446 16.593,8.769 16.5553,8.769 16.5553,8.5422 16.5175,8.5422 16.5175,8.4666 16.4796,8.4666 16.4796,8.3532 16.4419,8.3532 16.4419,8.3154 16.4041,8.3154 16.4041,8.1642 16.3663,8.1642 16.3663,8.1264 16.3285,8.1264 16.3285,7.9752 16.2907,7.9752 16.2907,7.9374 16.2529,7.9374 16.2529,7.8618 16.2151,7.8618 16.2151,7.7484 16.1773,7.7484 16.1773,7.6729 16.1395,7.6729 16.1395,7.635 16.1017,7.635 16.1017,7.5595 16.0639,7.5595 16.0639,7.4083 16.0261,7.4083 16.0261,7.3327 15.9883,7.3327 15.9883,7.2949 15.9505,7.2949 15.9505,7.1815 15.9127,7.1815 15.9127,7.1437 15.8749,7.1437 15.8749,7.0681 15.8371,7.0681 15.8371,6.9169 15.7993,6.9169 15.7993,6.8413 15.7615,6.8413 15.7615,6.8035 15.7237,6.8035 15.7237,6.7279 15.6859,6.7279 15.6859,6.6523 15.6481,6.6523 15.6481,6.5011 15.6103,6.5011 15.6103,6.4255 15.5725,6.4255 15.5725,6.3877 15.5347,6.3877 15.5347,6.3121 15.4969,6.3121 15.4969,6.2366 15.4592,6.2366 15.4592,6.1609 15.4213,6.1609 15.4213,6.0854 15.3835,6.0854 15.3835,5.9341 15.3458,5.9341 15.3458,5.8964 15.3079,5.8964 15.3079,5.8208 15.2701,5.8208 15.2701,5.7074 15.2324,5.7074 15.2324,5.6696 15.1946,5.6696 15.1946,5.5184 15.1567,5.5184 15.1567,5.4428 15.119,5.4428 15.119,5.405 15.0812,5.405 15.0812,5.2916 15.0433,5.2916 15.0433,5.2538 15.0056,5.2538 15.0056,5.1782 14.9678,5.1782 14.9678,5.027 14.93,5.027 14.93,4.9514 14.8922,4.9514 14.8922,4.9136 14.8544,4.9136 14.8544,4.838 14.8166,4.838 14.8166,4.7624 14.7788,4.7624 14.7788,4.6868 14.741,4.6868 14.741,4.5357 14.7032,4.5357 14.7032,4.46 14.6654,4.46 14.6654,4.4223 14.6276,4.4223 14.6276,4.3466 14.5898,4.3466 14.5898,4.2711 14.552,4.2711 14.552,4.1955 14.5142,4.1955 14.5142,4.0443 14.4764,4.0443 14.4764,4.0065 14.4386,4.0065 14.4386,3.9309 14.4008,3.9309 14.4008,3.8175 14.363,3.8175 14.363,3.7797 14.3252,3.7797 14.3252,3.6285 14.2874,3.6285 14.2874,3.5529 14.2496,3.5529 14.2496,3.5151 14.2118,3.5151 14.2118,3.4395 14.174,3.4395 14.174,3.3639 14.1362,3.3639 14.1362,3.2883 14.0984,3.2883 14.0984,3.1371 14.0606,3.1371 14.0606,3.0616 14.0228,3.0616 14.0228,3.0237 13.985,3.0237 13.985,2.9482 13.9472,2.9482 13.9472,2.8726 13.9094,2.8726 13.9094,2.797 13.8717,2.797 13.8717,2.6458 13.8338,2.6458 "/>
   <polygon id="_408339152" class="fil1" points="13.8338,2.608 13.8338,2.5324 13.796,2.5324 13.796,2.4946 13.7583,2.4946 13.7583,2.5702 13.796,2.5702 13.796,2.608 "/>
   <polygon id="_408351176" class="fil2" points="8.5044,13.2291 8.5044,13.1913 8.4288,13.1913 8.4288,13.2669 8.4666,13.2669 8.4666,13.2291 "/>
  </g>
 </g>
</svg>
