<?xml version="1.0" encoding="UTF-8"?>
<!DOCTYPE svg PUBLIC "-//W3C//DTD SVG 1.1//EN" "http://www.w3.org/Graphics/SVG/1.1/DTD/svg11.dtd">
<!-- Creator: CorelDRAW -->
<svg xmlns="http://www.w3.org/2000/svg" xml:space="preserve" width="16.9332mm" height="16.9332mm" style="shape-rendering:geometricPrecision; text-rendering:geometricPrecision; image-rendering:optimizeQuality; fill-rule:evenodd; clip-rule:evenodd"
viewBox="0 0 16.9332 16.9332"
 xmlns:xlink="http://www.w3.org/1999/xlink">
 <defs>
  <style type="text/css">
   <![CDATA[
    .fil0 {fill:black}
    .fil2 {fill:#6E6E70}
    .fil1 {fill:#F3F3F4}
   ]]>
  </style>
 </defs>
 <g id="Capa_x0020_1">
  <metadata id="CorelCorpID_0Corel-Layer"/>
  <g id="_374635344">
   <path id="_376879696" class="fil0" d="M2.5325 10.4113l0.299 -0.01 -0.0056 6.0527 -0.8447 -0.5525 0.5513 -5.4902zm11.833 3.756l1.2926 1.8713 -0.0787 0.0454c-0.2131,-0.2528 -1.2985,-1.5963 -1.4028,-1.8071l0.1889 -0.1096zm0.4292 -0.0797l0.9312 1.4835 -1.1378 -1.5838c0.0188,-0.0204 0.0817,-0.0417 0.1294,-0.0084 0.0021,0.0015 0.075,0.1053 0.0772,0.1087zm1.3807 1.5865c-0.1776,-0.2523 -0.3278,-0.4531 -0.488,-0.7186l-0.4554 -0.7091c-0.0814,-0.1295 -0.2574,-0.3625 -0.2909,-0.4987l0.1569 -0.0778c0.1924,0.3009 1.1427,1.8144 1.1729,1.9614l-0.0955 0.0428zm-10.7828 -4.1281l3.9957 -0.0068 -0.0003 0.2398 0 1.6429 -0.0003 0.1083 -3.9935 0.0103 -0.002 -0.2381 0.0005 -1.613 -0.0001 -0.1434zm7.5174 2.9213c0.0761,-0.0892 0.6117,-0.4362 0.7049,-0.5004 0.1778,-0.1226 1.999,-1.3685 2.113,-1.415l0.157 0.2073 -2.8155 1.9178c-0.0885,-0.0902 -0.0992,-0.0906 -0.1594,-0.2097zm0.0241 -2.9964c-0.0246,-0.1803 0.1528,-0.2518 0.3796,-0.4036 0.1318,-0.0882 0.3614,-0.2692 0.5025,-0.3164l0.1591 0.2185c-0.1293,0.0871 -0.8455,0.6202 -0.9656,0.5667l-0.0756 -0.0652zm-6.6818 -2.2108l2.2836 -0.0056 0.3823 0.7613c0.2669,0.1787 0.4397,0.2429 0.4697,0.6513l-3.995 0.0135 0.3338 -0.5692c0.1486,-0.0984 0.4284,-0.2648 0.5227,-0.3721l0.0029 -0.4792zm6.838 1.2942c0.0715,-0.09 0.2725,-0.2339 0.3973,-0.2783l0.1485 0.2185c-0.3064,0.2222 -0.3518,0.3127 -0.5398,0.2154l-0.006 -0.1556zm-0.3194 -0.3244c-0.0262,-0.1813 0.0371,-0.2009 0.1465,-0.2758 0.0899,-0.0617 0.1615,-0.125 0.2794,-0.1527l0.1235 0.2126c-0.2962,0.2206 -0.3682,0.3359 -0.5494,0.2159zm-7.6615 0.5633c0,1.7202 0.0329,3.769 -0.0029,5.449l-0.5576 -0.3393 0.0048 -9.1178c0.0866,0.0681 0.2847,0.6547 0.3952,0.8079l0.7309 0.4956 0.0524 1.1459 0.2285 0.0205 0.0072 0.3135c-0.0592,0.2826 -0.8585,0.2032 -0.8585,1.2247zm6.8604 -0.8667c0.0519,-0.0619 0.7826,-0.5693 0.8998,-0.5987l0.1283 0.2103c-0.3679,0.2609 -1.066,0.8886 -1.0281,0.3884zm0.1502 -0.7762c0.066,-0.0922 0.2958,-0.2562 0.4206,-0.2964l0.144 0.2315 -0.5118 0.2388 -0.0528 -0.1739zm-0.2771 -0.3028c-0.0919,-0.1548 -0.0625,-0.1915 0.0729,-0.2831 0.0998,-0.0675 0.186,-0.1438 0.2874,-0.18l0.1673 0.2312 -0.5276 0.2319zm-8.1573 0.0875c-0.2242,0.0287 -1.0582,-0.1137 -1.3371,-0.1473 -0.4348,-0.0526 -0.8798,-0.1092 -1.3168,-0.1663 -0.4946,-0.0646 -0.7447,-0.2552 -0.7365,-0.7854 0.0072,-0.4628 0.0134,-0.9704 0.0495,-1.4269l0.8285 -0.0089 -0.0339 1.3607c0.5916,0.1255 1.2397,0.2283 1.8421,0.2739 0.2667,0.0202 0.2026,-0.1673 0.4009,-0.2548l0.4201 0.3628 -0.1168 0.7922zm5.1986 -1.3977c0.0625,-0.0813 0.1512,-0.1254 0.2397,-0.1816 0.0936,-0.0594 0.1438,-0.0975 0.2317,-0.157 0.247,-0.1673 1.2913,-0.9073 1.4198,-0.941l0.1436 0.2266c-0.1713,0.1153 -0.7926,0.4997 -0.8795,0.6348 0.8629,-0.0709 0.301,0.0085 1.0286,-0.3859 0.0878,0.0947 0.1221,0.1142 0.1632,0.2461 -0.2571,0.1553 -0.554,0.2658 -0.3145,0.4634l0.4799 -0.2362 0.1612 0.2054 -0.3922 0.4509 0.5596 -0.1833 0.1517 0.2115 -0.9415 0.6486c-0.1561,0.1066 -0.8213,0.5788 -0.9427,0.6243 -0.1925,-0.2713 -0.9951,-1.4194 -1.1086,-1.6266zm-4.1902 -1.2591c0.2575,-0.0653 0.5731,-0.2836 0.8228,-0.3237l0.5351 1.0056 2.0928 0.0169 0.5651 0.8502 -2.7808 0.0003c-0.6939,-0.0128 -0.8557,-0.596 -1.0364,-1.0418 -0.0621,-0.1533 -0.1565,-0.328 -0.1986,-0.5075zm3.681 0.5223c0.0644,-0.1515 0.2389,-0.3411 0.3423,-0.4783 0.1571,-0.2085 0.6835,-0.5819 0.9339,-0.6486 0.1954,-0.0521 0.4252,-0.1395 0.6159,-0.1624 -0.2489,0.1865 -1.718,1.2428 -1.8921,1.2893zm0.2599 -1.1749c0.1079,-0.0967 0.328,-0.2643 0.4742,-0.3029l0.1265 0.2127 -0.4675 0.3131 -0.1332 -0.2229zm-5.6486 -0.1199c0.0058,-0.2373 0.1366,-0.3717 0.123,-0.589l-0.1596 -0.1297 0.0822 -0.0858 1.6552 0.0162c0.2196,0.0663 0.3008,0.2184 0.4046,0.4296 0.0789,0.1607 0.2201,0.3871 0.2707,0.5418l-0.7982 0.3186 -0.1572 -0.5524 -0.1427 0.2289 -0.0001 2.7155 -0.199 0.0039c-0.4011,-0.5958 -0.2829,-0.4669 -0.7632,-0.9756l-0.2387 0.2228c-0.0154,-0.4419 -0.0862,-1.7672 -0.077,-2.1448zm-1.7627 0.2972l-0.0168 0.3186 -0.8567 0.0134c-0.0003,-0.0874 -0.035,-0.6646 0.0407,-0.7142 -0.0962,-0.8666 0.7593,-0.7293 1.4174,-0.7293 0.3921,0 0.5201,-0.0548 0.6226,0.0978l-0.1602 0.1276 0.132 0.619 -0.1317 2.1082 -0.8533 -0.0824 0.0475 -1.1592c0.0256,-0.6808 0.1496,-1.0167 -0.205,-0.9307l-0.0365 0.3312zm1.261 -2.0899c0.3168,0.0238 0.2391,-0.2094 0.4288,-0.299l0.2092 0.0045 -0.0246 0.4746c-0.2212,0.0623 -0.4954,0.0826 -0.3846,0.2846 0.0214,0.039 0.0324,0.0316 0.0666,0.0591 0.1574,0.1268 -0.0216,0.3087 -0.0745,0.3704 -0.2233,-0.2075 -0.1553,-0.0806 -0.1815,-0.7951l-0.2143 -0.158 0.101 -0.0362c0.0273,0.0159 0.0552,0.0687 0.0739,0.0951zm2.7886 -3.4078c-0.0318,0.1995 0.0349,0.2146 0.2274,0.493l2.0956 3.0674c-0.1705,0.7821 -0.2194,0.436 0.4018,1.3653l0.5464 0.8129 -0.4633 0.6305 -1.8819 -0.0074c-0.3149,-0.5694 -0.6023,-1.1705 -0.906,-1.751 -0.151,-0.2885 -0.3786,-0.5072 -0.825,-0.5087l-1.3454 -0.0091 0.001 -0.1466c0.1003,-0.1075 0.208,-0.1081 0.2616,-0.3092l0.0226 -0.5407c0.4389,-0.2463 0.349,-0.2629 0.3966,-0.9391l-0.234 -0.0562 -0.9559 -0.0001 -0.5973 0.5609c0,0.8074 -0.0773,0.76 0.2461,1.0455l-0.0009 0.3911c-0.9588,0.024 -1.8851,-0.1911 -2.1288,0.624 -0.0696,0.2326 -0.0941,1.8262 -0.1057,2.2715 -0.0056,0.2145 -0.0492,0.5563 -0.0155,0.7718l0.7939 0.8035 -0.5368 7.7145 0.0725 0.0841 2.2725 0.0033 0.2103 -0.0819 0.3573 0.082c0.1644,0.0187 6.3546,0.0066 6.4098,-0.0163l0.0603 -0.0508c0.0551,-0.0899 0.0195,-3.5296 0.0195,-3.9343 0,-0.6547 0.0118,-1.3198 0.0004,-1.9731 -0.0105,-0.6102 -0.3283,-0.7329 -0.847,-1.1335l0.0174 -0.3098 0.1974 -0.0196 0.0707 -0.0887 0.0016 -0.7062c0.1825,0.1325 3.3687,4.8983 3.8429,5.605l-0.0276 0.036c-0.0174,0.0163 -0.0324,0.0285 -0.0499,0.0415l-0.3124 0.2204c-0.0186,0.2026 0.2291,0.4634 0.3884,0.6773 0.1755,0.0137 0.8008,-0.4455 0.9819,-0.5606l1.3712 1.7958 -0.2713 0.2032 0.0132 0.1522c0.1728,0.1305 0.1834,0.0386 0.5273,-0.1785l1.2448 -0.8467 0.1123 -0.2624c-0.1224,-0.1161 -0.196,-0.025 -0.4424,0.1086 -0.0277,-0.0898 -1.0014,-1.6983 -1.1465,-1.9517l0.8792 -0.63c0.0075,-0.1937 -0.2826,-0.4932 -0.406,-0.6516l-0.4779 0.2357c-0.1145,-0.1048 -0.2319,-0.3116 -0.3133,-0.4355 -0.1064,-0.1621 -0.2089,-0.3064 -0.3161,-0.4609 -0.8224,-1.1846 -1.6462,-2.4571 -2.4672,-3.6268 -0.7005,-0.998 -1.1442,-1.6916 -1.8918,-2.7136l-0.8364 0.2051c-0.1027,-0.0917 -0.8694,-1.2668 -1.0324,-1.4965 -0.1248,-0.1758 -0.3149,-0.1525 -0.6639,-0.2009 -0.1485,-0.2524 -1.6019,-2.3728 -1.8351,-2.7074 -0.1121,-0.1609 -0.1974,-0.2919 -0.301,-0.4449 -0.0816,-0.1204 -0.2308,-0.4392 -0.4092,-0.2518z"/>
   <path id="_375506960" class="fil1" d="M6.5676 13.2025c-0.0762,-0.2478 0.0814,-0.2376 0.2887,-0.2368l1.0755 0.0002c0.202,-0.0008 0.3328,-0.03 0.3125,0.2047l-0.055 0.0575c-0.0046,0.0021 -1.4568,0.0832 -1.6217,-0.0256zm-0.5688 -0.7581c0.1481,-0.0897 2.706,-0.0571 2.7599,-0.0243 0.0612,0.0372 0.0566,0.1139 0.0615,0.1652l-0.0633 0.0752c-0.3866,0.0063 -2.5606,0.0916 -2.7571,-0.0256l-0.001 -0.1905zm0.5709 -0.3787c-0.0654,-0.1992 0.0441,-0.2389 0.2263,-0.2398 0.2229,-0.001 1.3159,-0.0157 1.3747,0.0156l0.0806 0.0846c-0.3734,0.242 -0.1945,0.1873 -0.7677,0.1873 -0.2336,0 -0.7389,0.0582 -0.9139,-0.0477zm-1.177 -0.3763l-0.0005 1.613 0.002 0.2381 3.9935 -0.0103 0.0003 -0.1083 0 -1.6429 0.0003 -0.2398 -3.9957 0.0068 0.0001 0.1434z"/>
   <path id="_375508424" class="fil1" d="M2.9497 4.787l0.1596 0.1297c0.0136,0.2173 -0.1172,0.3517 -0.123,0.589 -0.0092,0.3776 0.0616,1.7029 0.077,2.1448l0.2387 -0.2228c0.4803,0.5087 0.3621,0.3798 0.7632,0.9756l0.199 -0.0039 0.0001 -2.7155 0.1427 -0.2289 0.1572 0.5524 0.7982 -0.3186c-0.0506,-0.1547 -0.1918,-0.3811 -0.2707,-0.5418 -0.1038,-0.2112 -0.185,-0.3633 -0.4046,-0.4296l-1.6552 -0.0162 -0.0822 0.0858z"/>
   <path id="_375508112" class="fil1" d="M6.2494 9.7393c-0.0943,0.1073 -0.3741,0.2737 -0.5227,0.3721l-0.3338 0.5692 3.995 -0.0135c-0.03,-0.4084 -0.2028,-0.4726 -0.4697,-0.6513l-0.3823 -0.7613 -2.2836 0.0056 -0.0029 0.4792z"/>
   <path id="_375508280" class="fil1" d="M8.8842 7.5373c0.1135,0.2072 0.9161,1.3553 1.1086,1.6266 0.1214,-0.0455 0.7866,-0.5177 0.9427,-0.6243l0.9415 -0.6486 -0.1517 -0.2115 -0.5596 0.1833 0.3922 -0.4509 -0.1612 -0.2054 -0.4799 0.2362c-0.2395,-0.1976 0.0574,-0.3081 0.3145,-0.4634 -0.0411,-0.1319 -0.0754,-0.1514 -0.1632,-0.2461 -0.7276,0.3944 -0.1657,0.315 -1.0286,0.3859 0.0869,-0.1351 0.7082,-0.5195 0.8795,-0.6348l-0.1436 -0.2266c-0.1285,0.0337 -1.1728,0.7737 -1.4198,0.941 -0.0879,0.0595 -0.1381,0.0976 -0.2317,0.157 -0.0885,0.0562 -0.1772,0.1003 -0.2397,0.1816z"/>
   <path id="_375509120" class="fil1" d="M3.6856 8.935l0.1168 -0.7922 -0.4201 -0.3628c-0.1983,0.0875 -0.1342,0.275 -0.4009,0.2548 -0.6024,-0.0456 -1.2505,-0.1484 -1.8421,-0.2739l0.0339 -1.3607 -0.8285 0.0089c-0.0361,0.4565 -0.0423,0.9641 -0.0495,1.4269 -0.0082,0.5302 0.2419,0.7208 0.7365,0.7854 0.437,0.0571 0.882,0.1137 1.3168,0.1663 0.2789,0.0336 1.1129,0.176 1.3371,0.1473z"/>
   <path id="_375508928" class="fil1" d="M0.3908 5.4207l-0.0266 0.6855 0.8177 -0.0017 0.0182 -0.2623c0.0014,-0.0055 0.0096,-0.009 0.0108,-0.0205 0.0012,-0.0113 0.0085,-0.0125 0.0127,-0.0188l0.0365 -0.3312c0.3546,-0.086 0.2306,0.2499 0.205,0.9307l-0.0475 1.1592 0.8533 0.0824 0.1317 -2.1082 -0.132 -0.619 0.1602 -0.1276c-0.1025,-0.1526 -0.2305,-0.0978 -0.6226,-0.0978 -0.6581,0 -1.5136,-0.1373 -1.4174,0.7293z"/>
   <path id="_375509000" class="fil1" d="M4.694 6.2782c0.0421,0.1795 0.1365,0.3542 0.1986,0.5075 0.1807,0.4458 0.3425,1.029 1.0364,1.0418l2.7808 -0.0003 -0.5651 -0.8502 -2.0928 -0.0169 -0.5351 -1.0056c-0.2497,0.0401 -0.5653,0.2584 -0.8228,0.3237z"/>
   <path id="_375508640" class="fil1" d="M12.91 14.4673c0.0602,0.1191 0.0709,0.1195 0.1594,0.2097l2.8155 -1.9178 -0.157 -0.2073c-0.114,0.0465 -1.9352,1.2924 -2.113,1.415 -0.0932,0.0642 -0.6288,0.4112 -0.7049,0.5004z"/>
   <path id="_375508784" class="fil0" d="M5.9988 12.4444l0.001 0.1905c0.1965,0.1172 2.3705,0.0319 2.7571,0.0256l0.0633 -0.0752c-0.0049,-0.0513 -0.0003,-0.128 -0.0615,-0.1652 -0.0539,-0.0328 -2.6118,-0.0654 -2.7599,0.0243z"/>
   <path id="_375509360" class="fil0" d="M6.5676 13.2025c0.1649,0.1088 1.6171,0.0277 1.6217,0.0256l0.055 -0.0575c0.0203,-0.2347 -0.1105,-0.2055 -0.3125,-0.2047l-1.0755 -0.0002c-0.2073,-0.0008 -0.3649,-0.011 -0.2887,0.2368z"/>
   <path id="_375509864" class="fil1" d="M8.375 6.8005c0.1741,-0.0465 1.6432,-1.1028 1.8921,-1.2893 -0.1907,0.0229 -0.4205,0.1103 -0.6159,0.1624 -0.2504,0.0667 -0.7768,0.4401 -0.9339,0.6486 -0.1034,0.1372 -0.2779,0.3268 -0.3423,0.4783z"/>
   <path id="_375509888" class="fil0" d="M6.5697 12.0657c0.175,0.1059 0.6803,0.0477 0.9139,0.0477 0.5732,0 0.3943,0.0547 0.7677,-0.1873l-0.0806 -0.0846c-0.0588,-0.0313 -1.1518,-0.0166 -1.3747,-0.0156 -0.1822,0.0009 -0.2917,0.0406 -0.2263,0.2398z"/>
   <path id="_375509744" class="fil1" d="M14.9411 13.7477c0.0335,0.1362 0.2095,0.3692 0.2909,0.4987l0.4554 0.7091c0.1602,0.2655 0.3104,0.4663 0.488,0.7186l0.0955 -0.0428c-0.0302,-0.147 -0.9805,-1.6605 -1.1729,-1.9614l-0.1569 0.0778z"/>
   <path id="_375509840" class="fil1" d="M2.4846 3.713c-0.0187,-0.0264 -0.0466,-0.0792 -0.0739,-0.0951l-0.101 0.0362 0.2143 0.158c0.0262,0.7145 -0.0418,0.5876 0.1815,0.7951 0.0529,-0.0617 0.2319,-0.2436 0.0745,-0.3704 -0.0342,-0.0275 -0.0452,-0.0201 -0.0666,-0.0591 -0.1108,-0.202 0.1634,-0.2223 0.3846,-0.2846l0.0246 -0.4746 -0.2092 -0.0045c-0.1897,0.0896 -0.112,0.3228 -0.4288,0.299z"/>
   <path id="_375509984" class="fil1" d="M14.1766 14.2769c0.1043,0.2108 1.1897,1.5543 1.4028,1.8071l0.0787 -0.0454 -1.2926 -1.8713 -0.1889 0.1096z"/>
   <path id="_375510488" class="fil1" d="M12.9341 11.4709l0.0756 0.0652c0.1201,0.0535 0.8363,-0.4796 0.9656,-0.5667l-0.1591 -0.2185c-0.1411,0.0472 -0.3707,0.2282 -0.5025,0.3164 -0.2268,0.1518 -0.4042,0.2233 -0.3796,0.4036z"/>
   <path id="_375510176" class="fil1" d="M11.9698 9.9265c-0.0379,0.5002 0.6602,-0.1275 1.0281,-0.3884l-0.1283 -0.2103c-0.1172,0.0294 -0.8479,0.5368 -0.8998,0.5987z"/>
   <path id="_375510272" class="fil1" d="M8.6349 5.6256l0.1332 0.2229 0.4675 -0.3131 -0.1265 -0.2127c-0.1462,0.0386 -0.3663,0.2062 -0.4742,0.3029z"/>
   <path id="_375510416" class="fil1" d="M12.7709 10.2299c0.1812,0.12 0.2532,0.0047 0.5494,-0.2159l-0.1235 -0.2126c-0.1179,0.0277 -0.1895,0.091 -0.2794,0.1527 -0.1094,0.0749 -0.1727,0.0945 -0.1465,0.2758z"/>
   <path id="_375510248" class="fil1" d="M13.0903 10.5543l0.006 0.1556c0.188,0.0973 0.2334,0.0068 0.5398,-0.2154l-0.1485 -0.2185c-0.1248,0.0444 -0.3258,0.1883 -0.3973,0.2783z"/>
   <path id="_375510704" class="fil1" d="M11.8429 8.8475l0.5276 -0.2319 -0.1673 -0.2312c-0.1014,0.0362 -0.1876,0.1125 -0.2874,0.18 -0.1354,0.0916 -0.1648,0.1283 -0.0729,0.2831z"/>
   <path id="_375510992" class="fil1" d="M12.12 9.1503l0.0528 0.1739 0.5118 -0.2388 -0.144 -0.2315c-0.1248,0.0402 -0.3546,0.2042 -0.4206,0.2964z"/>
   <path id="_375510800" class="fil1" d="M14.5881 13.9873l1.1378 1.5838 -0.9312 -1.4835c-0.0022,-0.0034 -0.0751,-0.1072 -0.0772,-0.1087 -0.0477,-0.0333 -0.1106,-0.012 -0.1294,0.0084z"/>
   <path id="_375511520" class="fil2" d="M1.2236 5.8029c-0.0042,0.0063 -0.0115,0.0075 -0.0127,0.0188 -0.0012,0.0115 -0.0094,0.015 -0.0108,0.0205l-0.0182 0.2623 -0.8177 0.0017 0.0266 -0.6855c-0.0757,0.0496 -0.041,0.6268 -0.0407,0.7142l0.8567 -0.0134 0.0168 -0.3186z"/>
  </g>
 </g>
</svg>
