<?xml version="1.0" encoding="UTF-8"?>
<!DOCTYPE svg PUBLIC "-//W3C//DTD SVG 1.1//EN" "http://www.w3.org/Graphics/SVG/1.1/DTD/svg11.dtd">
<!-- Creator: CorelDRAW -->
<svg xmlns="http://www.w3.org/2000/svg" xml:space="preserve" width="16.9332mm" height="16.9332mm" style="shape-rendering:geometricPrecision; text-rendering:geometricPrecision; image-rendering:optimizeQuality; fill-rule:evenodd; clip-rule:evenodd"
viewBox="0 0 16.9332 16.9332"
 xmlns:xlink="http://www.w3.org/1999/xlink">
 <defs>
  <style type="text/css">
   <![CDATA[
    .fil0 {fill:black}
    .fil1 {fill:#F3F3F5}
   ]]>
  </style>
 </defs>
 <g id="Capa_x0020_1">
  <metadata id="CorelCorpID_0Corel-Layer"/>
  <g id="_374637408">
   <path id="_373299072" class="fil0" d="M13.9246 11.1422c0.0489,0.5423 0.0079,3.5374 0.0079,4.342 0,0.3251 -0.0506,0.7199 0.1075,0.9868 0.3096,0.5224 1.1273,0.4741 1.3696,-0.0681 0.1101,-0.2466 0.0742,-0.692 0.0742,-0.9817 0,-2.9057 -0.0034,-5.8117 0.0006,-8.7173 0.0767,0.0896 0.0774,0.0756 0.113,0.1772 0.3353,0.9559 0.3506,2.3652 0.3113,3.3414 -0.0138,0.3443 -0.051,0.6442 0.1711,0.8059 0.2303,0.1676 0.5435,0.1096 0.6959,-0.066 0.2127,-0.245 0.149,-1.3722 0.1474,-1.7797 -0.0043,-1.1522 -0.1498,-2.38 -0.6666,-3.2462 -0.6645,-1.1139 -1.6465,-0.8272 -3.0569,-0.8272 -0.759,0 -1.1303,0.0039 -1.507,0.4558 -0.4387,0.5262 -0.6802,1.4259 -0.7748,2.1625 -0.0553,0.4301 -0.0307,0.4491 -0.2829,0.687 -0.6633,0.6257 -1.5331,0.962 -1.6209,1.2805 -0.086,0.3116 0.1319,0.5687 0.3459,0.6231 0.4522,0.1151 1.5081,-0.7789 1.8615,-1.065 0.8911,-0.7213 0.5977,-1.5053 0.811,-1.9972 0.021,-0.0485 0.0238,-0.0467 0.0435,-0.0723l0.0052 8.4896c-0.0001,0.3518 -0.0294,0.6589 0.1738,0.8819 0.5092,0.5587 1.1924,0.2055 1.3303,-0.2131 0.1349,-0.4098 -0.0293,-4.3653 0.0559,-5.1995l0.2835 -0.0004z"/>
   <path id="_376880104" class="fil0" d="M7.5704 10.2148c-0.1253,-0.3259 -0.346,-0.7058 -0.5125,-1.0346 -0.2469,-0.4875 -0.3567,-0.3256 -0.7696,-0.7741 -0.2101,-0.2283 -0.1992,-0.1257 -0.254,-0.536 -0.0879,-0.6578 -0.1902,-1.2186 -0.4817,-1.8157 -0.5499,-1.1262 -1.2085,-0.9451 -2.1518,-0.9451 -1.2505,0 -1.8203,-0.2037 -2.5184,0.5469 -0.4652,0.5001 -0.6906,1.4505 -0.7991,2.2929 -0.0598,0.4644 -0.1614,2.6099 0.0175,2.9257 0.2198,0.3879 0.8004,0.3243 0.9182,-0.102 0.0824,-0.2981 -0.2027,-2.9947 0.4203,-4.1133l0.0079 9.1083c-0.0009,0.3923 0.0215,0.6796 0.2619,0.8734 0.5257,0.4237 1.2621,0.1375 1.2967,-0.5886 0.0172,-0.3626 0.0009,-0.7681 0.0009,-1.1355 0,-1.5046 -0.0164,-3.0182 0.0006,-4.5216l0.2908 -0.0105 0.0004 4.4691c0.0001,0.828 -0.1449,1.5523 0.3741,1.8709 0.3949,0.2424 1.1842,0.1469 1.1855,-0.7995l-0.008 -7.7825c0.0001,-0.3087 -0.0296,-0.8052 0.0122,-1.0913l0.2599 1.4188c0.077,0.3131 0.3814,0.5572 0.529,0.7305 0.1449,0.1702 0.9716,0.7369 1.2029,0.8761 0.1518,0.0914 0.3825,0.2647 0.6119,0.2574 0.0981,-0.003 0.2562,-0.0425 0.2877,-0.1296 0.0384,-0.1061 -0.1271,-0.0104 -0.1833,0.0099z"/>
   <path id="_376865176" class="fil1" d="M7.8037 2.0212l0.4715 -0.4183c0.3907,0.3673 0.8228,0.8747 1.2721,1.3136l-0.1904 0.1774c0.106,0.2003 0.3685,0.3897 0.5328,0.5767 0.0277,0.0314 0.4915,0.5151 0.4902,0.5391l-0.0147 0.0619c-0.0051,0.0023 -0.0148,-0.0026 -0.0166,0.0027l-0.0328 -0.0017c-0.0031,-0.0012 -0.0127,-0.0047 -0.0162,-0.0066 -0.0555,-0.0311 -0.9115,-0.9648 -1.0138,-1.077l-0.2137 0.1731c-0.0978,-0.064 -1.2328,-1.2633 -1.2684,-1.3409zm0.1349 -0.5885c0.0275,-0.0242 0.038,-0.0346 0.068,-0.0572 0.0383,-0.0287 0.0177,-0.0148 0.0573,-0.0368l0.1083 0.1093c-0.1224,0.1269 -0.321,0.3408 -0.4629,0.447l-0.055 0.0354 -0.0961 -0.1205 0.3804 -0.3772zm0.6915 -0.8023c-0.7198,0.0972 -1.2009,0.4463 -1.5128,0.8324 -1.3877,1.7181 0.0981,4.0999 2.1187,3.8176 1.1949,-0.1669 2.1989,-1.2394 2.026,-2.6325 -0.1475,-1.1888 -1.2559,-2.2034 -2.6319,-2.0175z"/>
   <path id="_376880200" class="fil0" d="M8.6301 0.6304c1.376,-0.1859 2.4844,0.8287 2.6319,2.0175 0.1729,1.3931 -0.8311,2.4656 -2.026,2.6325 -2.0206,0.2823 -3.5064,-2.0995 -2.1187,-3.8176 0.3119,-0.3861 0.793,-0.7352 1.5128,-0.8324zm0.2162 4.9595c2.9203,0.0955 4.0101,-3.4933 1.6642,-5.0612 -0.2519,-0.1684 -0.582,-0.3045 -0.9144,-0.3762 -2.2908,-0.4936 -4.1809,2.0067 -2.9215,4.1176 0.1716,0.2876 0.3956,0.5409 0.6153,0.7087 0.1417,0.1082 0.4245,0.3005 0.5998,0.3754 0.0357,0.0153 0.0801,0.0294 0.1133,0.0444l0.1136 0.0662 -0.212 2.4837 0.9417 -2.3586z"/>
   <path id="_408405376" class="fil0" d="M4.5402 3.5221l-1.6387 -0.6456c0.7086,0.6736 3.244,0.2589 2.5764,-0.2764 -0.2424,-0.1944 -0.7809,-0.2572 -1.1072,-0.2708 -0.279,-0.0117 -0.1898,0.0222 -0.3655,-0.1161 -0.3997,-0.3144 -0.9719,-0.3861 -1.4807,-0.1455 -0.8559,0.4046 -1.1324,1.6495 -0.2266,2.3896 0.3612,0.2951 0.9461,0.3849 1.4466,0.1543 0.3158,-0.1454 0.8109,-0.6006 0.7957,-1.0895z"/>
   <path id="_374520984" class="fil0" d="M15.16 3.6689c0.2167,-0.8737 -0.3971,-1.5656 -1.0605,-1.7174 -0.8479,-0.194 -1.5241,0.3822 -1.6892,1.021 -0.2265,0.8764 0.3787,1.5726 1.0407,1.7367 0.8601,0.2132 1.5469,-0.3871 1.709,-1.0403z"/>
   <path id="_374521368" class="fil0" d="M8.275 1.8016l0.2084 0.1854 -0.1243 0.2518 0.2097 -0.1671 0.106 0.1446c-0.1513,0.2103 -0.1146,0.19 -0.1148,0.1888 -0.0007,-0.0039 -0.002,0.0121 -0.0005,0.0178l0.1985 -0.1418 0.1187 0.156 -0.136 0.1774 0.2221 -0.0968 0.1185 0.1429 -0.1179 0.167c0.0955,-0.0063 0.0656,0.0096 0.1594,-0.1154 0.1534,0.1141 0.1677,0.1007 0.215,0.245l-0.2587 0.2143c-0.2424,-0.2478 -0.9567,-0.9324 -1.0696,-1.1319l0.2655 -0.238zm-0.4713 0.2196c0.0356,0.0776 1.1706,1.2769 1.2684,1.3409l0.2137 -0.1731c0.1023,0.1122 0.9583,1.0459 1.0138,1.077 0.0035,0.0019 0.0131,0.0054 0.0162,0.0066l0.0328 0.0017c0.0018,-0.0053 0.0115,-0.0004 0.0166,-0.0027l0.0147 -0.0619c0.0013,-0.024 -0.4625,-0.5077 -0.4902,-0.5391 -0.1643,-0.187 -0.4268,-0.3764 -0.5328,-0.5767l0.1904 -0.1774c-0.4493,-0.4389 -0.8814,-0.9463 -1.2721,-1.3136l-0.4715 0.4183z"/>
   <path id="_374521608" class="fil1" d="M8.0095 2.0396c0.1129,0.1995 0.8272,0.8841 1.0696,1.1319l0.2587 -0.2143c-0.0473,-0.1443 -0.0616,-0.1309 -0.215,-0.245 -0.0938,0.125 -0.0639,0.1091 -0.1594,0.1154l0.1179 -0.167 -0.1185 -0.1429 -0.2221 0.0968 0.136 -0.1774 -0.1187 -0.156 -0.1985 0.1418c-0.0015,-0.0057 -0.0002,-0.0217 0.0005,-0.0178 0.0002,0.0012 -0.0365,0.0215 0.1148,-0.1888l-0.106 -0.1446 -0.2097 0.1671 0.1243 -0.2518 -0.2084 -0.1854 -0.2655 0.238z"/>
   <path id="_374521512" class="fil0" d="M7.2072 8.8863c0.1054,-0.0431 0.1193,-0.0666 0.2474,-0.0956l0.4648 0.9559 -0.2297 0.1332 -0.4825 -0.9935zm0.432 1.102l0.1889 -0.0482c0.054,0.1095 0.3936,0.9037 0.5193,0.9381l-0.4458 -0.9708 0.0718 -0.0584c0.0026,-0.0018 0.064,-0.0361 0.078,-0.0445l-0.5725 -1.1438 -0.4016 0.2096 0.5619 1.118z"/>
   <path id="_408405640" class="fil1" d="M7.2072 8.8863l0.4825 0.9935 0.2297 -0.1332 -0.4648 -0.9559c-0.1281,0.029 -0.142,0.0525 -0.2474,0.0956z"/>
   <path id="_374637720" class="fil0" d="M7.5582 1.8099l0.0961 0.1205 0.055 -0.0354c0.1419,-0.1062 0.3405,-0.3201 0.4629,-0.447l-0.1083 -0.1093c-0.0396,0.022 -0.019,0.0081 -0.0573,0.0368 -0.03,0.0226 -0.0405,0.033 -0.068,0.0572l-0.3804 0.3772z"/>
  </g>
 </g>
</svg>
