<?xml version="1.0" encoding="UTF-8"?>
<!DOCTYPE svg PUBLIC "-//W3C//DTD SVG 1.1//EN" "http://www.w3.org/Graphics/SVG/1.1/DTD/svg11.dtd">
<!-- Creator: CorelDRAW -->
<svg xmlns="http://www.w3.org/2000/svg" xml:space="preserve" width="16.9332mm" height="16.9332mm" style="shape-rendering:geometricPrecision; text-rendering:geometricPrecision; image-rendering:optimizeQuality; fill-rule:evenodd; clip-rule:evenodd"
viewBox="0 0 16.9332 16.9332"
 xmlns:xlink="http://www.w3.org/1999/xlink">
 <defs>
  <style type="text/css">
   <![CDATA[
    .fil0 {fill:black}
   ]]>
  </style>
 </defs>
 <g id="Capa_x0020_1">
  <metadata id="CorelCorpID_0Corel-Layer"/>
  <g id="_376879576">
   <path id="_89973952" class="fil0" d="M10.5687 16.881c0.0401,-0.412 -0.099,-1.4651 -0.1397,-1.9286 -0.1098,-1.2499 -0.2535,-2.6918 -0.2345,-3.9268 0.0054,-0.3493 0.0112,-0.6986 0.0166,-1.0479 0.0125,-0.795 -0.0569,-0.6098 0.2864,-0.7095 1.1078,-0.3219 0.9502,-1.9405 0.698,-3.0931 -0.1787,-0.8169 -0.8329,-0.6218 -0.6967,0.2375 0.0954,0.6021 0.1677,1.3098 -0.1227,1.7636l-0.9299 -0.0572 -1.0484 0.4968c-0.5614,-0.001 -0.7395,-0.1866 -1.0053,-0.4963l-0.9323 0.0597 -0.1034 -1.8757c0.05,-0.3183 -0.0571,-0.6787 -0.3773,-0.6295 -0.2684,0.0413 -0.3185,0.4119 -0.3748,0.6702 -0.1921,0.8819 -0.4106,2.4318 0.6143,2.8805 0.1812,0.0794 0.2564,0.0505 0.3737,0.1325l0.0567 1.9617c0.0266,1.1764 -0.4063,5.1415 -0.361,5.5467l1.006 0.0108c0.1222,-0.452 0.9469,-3.6363 1.0202,-3.7779l1.3429 3.787 0.9112 -0.0045z"/>
   <path id="_409031200" class="fil0" d="M7.6021 4.3129c0.1614,-0.2526 0.6784,-3.2187 0.8617,-3.8406l0.7355 3.3398c0.0242,0.1167 0.0352,0.2351 0.0848,0.3451 0.0362,0.0804 0.0203,0.0498 0.0629,0.101l0.3507 -2.9221c0.1657,0.4513 1.4073,3.9447 1.489,4.0477l0.7931 -1.4232 -0.1999 5.3139c0.1139,-0.1596 0.081,-0.1308 0.1486,-0.3352 0.0419,-0.1267 0.0775,-0.2225 0.1198,-0.3409 0.1437,-0.4032 0.5895,-1.7944 0.7021,-1.9814l-0.7804 6.3216c0.2219,-0.5055 1.5012,-3.4139 1.5173,-3.5239l-0.9803 5.958 1.0731 -1.6977 -0.7088 2.3133 1.3307 -0.4214 -1.012 1.2426 0.1088 0.1195c0.2259,-0.2535 1.4371,-1.582 1.5139,-1.7634l-1.6368 0.5345 1.0828 -3.4499c-0.1804,0.2835 -1.3442,2.0843 -1.3943,2.2343l1.0674 -6.4709 -1.5742 3.5766 0.8099 -6.7493 -0.5832 1.6529c-0.0848,0.2394 -0.5559,1.4948 -0.5552,1.6167l0.1824 -4.911 -1.0049 1.7013 -1.6164 -4.5042 -0.3197 2.8243 -0.5461 -2.4506c-0.0319,-0.1456 -0.065,-0.2805 -0.092,-0.4185 -0.0959,-0.49 -0.0384,-0.3146 -0.1502,-0.3457l-0.1447 0.1411 -0.6725 3.1153 -0.323 -2.8376 -1.5924 4.4303c-0.0029,0.0054 -0.0142,0.0308 -0.0165,0.0247 -0.0022,-0.0061 -0.0107,0.0167 -0.0171,0.0243l-0.9777 -1.7317 0.1761 4.9034 -1.1081 -3.1427 0.7921 6.6174 -0.2292 -0.4354c-0.2351,-0.5547 -1.2068,-2.8895 -1.3321,-3.0585l1.0443 6.3994 -1.3685 -2.1732 1.0569 3.4026 -1.6493 -0.5312c0.2126,0.2569 1.3643,1.6939 1.5413,1.7789l0.0746 -0.0861c-0.2067,-0.2885 -0.246,-0.3522 -0.492,-0.6254 -0.136,-0.1511 -0.4253,-0.4627 -0.5205,-0.646l1.3247 0.4265 -0.7001 -2.2614 0.1022 0.0937c0.0385,0.0505 0.0349,0.0526 0.0666,0.1033 0.2078,0.3323 0.737,1.2417 0.8965,1.4134l-0.9767 -5.8549 0.0884 0.113c0.0181,0.0347 0.0372,0.0873 0.0513,0.121l0.644 1.4909c0.2419,0.5635 0.4711,1.1477 0.7284,1.6871l-0.7905 -6.3237c0.1556,0.4252 0.9437,2.5214 0.9923,2.7937l-0.2082 -5.3537 0.8151 1.3409c0.0832,-0.129 0.067,-0.1128 0.1163,-0.2589 0.0289,-0.0858 0.0588,-0.1641 0.0889,-0.2463 0.0669,-0.1819 0.1168,-0.34 0.1854,-0.5272 0.1318,-0.3593 0.2501,-0.6927 0.3726,-1.0521 0.098,-0.2874 0.7054,-1.9181 0.7219,-2.0471l0.3591 3.079z"/>
   <path id="_376569064" class="fil0" d="M9.4257 7.2954c0.096,-0.5651 -0.3523,-1.0822 -0.8279,-1.151 -0.609,-0.0882 -1.1027,0.3126 -1.1832,0.8339 -0.2069,1.3383 1.7803,1.6745 2.0111,0.3171z"/>
  </g>
 </g>
</svg>
