<?xml version="1.0" encoding="UTF-8"?>
<!DOCTYPE svg PUBLIC "-//W3C//DTD SVG 1.1//EN" "http://www.w3.org/Graphics/SVG/1.1/DTD/svg11.dtd">
<!-- Creator: CorelDRAW -->
<svg xmlns="http://www.w3.org/2000/svg" xml:space="preserve" width="16.9332mm" height="16.9332mm" style="shape-rendering:geometricPrecision; text-rendering:geometricPrecision; image-rendering:optimizeQuality; fill-rule:evenodd; clip-rule:evenodd"
viewBox="0 0 16.9332 16.9332"
 xmlns:xlink="http://www.w3.org/1999/xlink">
 <defs>
  <style type="text/css">
   <![CDATA[
    .fil0 {fill:black}
    .fil9 {fill:#575757}
    .fil4 {fill:#717171}
    .fil3 {fill:#79797B}
    .fil6 {fill:#7E7E7F}
    .fil8 {fill:#818181}
    .fil2 {fill:#868686}
    .fil7 {fill:#88888A}
    .fil5 {fill:#ADADAF}
    .fil1 {fill:#F2F2F4}
   ]]>
  </style>
 </defs>
 <g id="Capa_x0020_1">
  <metadata id="CorelCorpID_0Corel-Layer"/>
  <path class="fil0" d="M6.3269 14.3731c-0.2847,-0.9445 -0.6317,-1.9072 -0.9466,-2.849 -0.2711,-0.8112 -0.295,-0.6285 -0.0486,-1.4811 0.145,-0.5019 0.2678,-0.9458 0.4326,-1.4292l0.7087 1.3231c-1.3866,2.4793 0.5212,2.2163 0.863,4.4502l-1.0091 -0.014zm2.8585 -1.5476c-0.113,0 -0.0778,0.026 -0.0901,-0.0949l-0.0981 -0.1956 0.2026 0.0503 0.1472 0.0808 0.5179 0.0529c0.1111,0.0159 0.2348,0.0229 0.3458,0.0533 0.3563,0.0974 0.1027,0.0349 0.2182,0.1066l1.2769 0.2593c-0.5555,2.797 -1.1682,3.4826 1.6835,3.4826 0.7223,0 2.4863,0.1302 2.9839,-0.1842 1.007,-0.636 0.448,-1.8542 -0.0654,-1.9118 -0.6522,-0.3138 -1.7825,-0.0627 -2.536,-0.166 -0.0237,-0.3543 -0.0012,-0.1009 0.065,-0.1977 0.0608,-0.9826 0.8594,-2.0667 0.0025,-2.7944 -0.3256,-0.2766 -2.2207,-0.6468 -2.8313,-0.7126 -0.1018,-0.0089 -0.1946,-0.0039 -0.3019,-0.0283 -0.3899,-0.0886 -0.0967,-0.0303 -0.2255,-0.107l-1.2923 -0.2521 -0.9987 -1.913c-0.3343,-0.6458 -1.671,-3.5242 -2.09,-3.7782 -0.8749,-0.5306 -1.5198,0.0914 -1.7545,0.8287 -0.4701,1.4769 -0.9038,2.9442 -1.3526,4.4391 -0.3593,1.1965 -0.1595,1.3136 0.1912,2.3767 0.1233,0.3737 0.6595,1.8466 0.6612,2.1249l-2.6922 0.0069c-0.734,0.039 -1.3473,0.6655 -1.095,1.4866 0.2867,0.9329 1.3134,0.7825 1.8882,0.7824 1.4102,-0.0001 7.3437,0.1506 7.8494,-0.1761 1.3604,-0.8791 -0.4007,-2.6342 -0.6099,-3.6192z"/>
  <path class="fil0" d="M5.3341 0.4375c-2.1096,1.2715 -0.486,4.0695 1.4512,3.327 0.7166,-0.2747 1.4669,-1.0672 1.1275,-2.2216 -0.2806,-0.9541 -1.0507,-1.3332 -2.214,-1.2551 -0.0759,0.0549 0.0541,0.0066 -0.1559,0.0996 -0.1141,0.0505 -0.0743,0.0211 -0.2088,0.0501z"/>
  <path class="fil0" d="M13.6371 7.4469c-1.6555,0.9186 -1.0803,3.3967 0.8242,3.4275 2.2981,0.0371 2.168,-3.1131 0.8685,-3.3838 -0.0597,-0.0268 -0.18,-0.0706 -0.238,-0.104 -0.1217,-0.0702 -0.0746,-0.0647 -0.1049,-0.0988l-0.9984 0.0031c-0.0734,0.0552 0.0439,0.0084 -0.153,0.1021 -0.1175,0.0559 -0.061,0.0197 -0.1984,0.0539z"/>
  <path class="fil1" d="M6.3269 14.3731l1.0091 0.014c-0.1027,-0.6713 -1.5749,-2.9391 -1.4695,-3.3657l0.6065 -1.0845 -0.7087 -1.3231c-0.1648,0.4834 -0.2876,0.9273 -0.4326,1.4292 -0.2464,0.8526 -0.2225,0.6699 0.0486,1.4811 0.3149,0.9418 0.6619,1.9045 0.9466,2.849z"/>
  <path class="fil2" d="M16.3078 14.5248c-0.2024,-0.313 -0.7644,-0.2128 -1.1305,-0.2124 -0.4288,0.0003 -0.8591,0.0089 -1.2874,-0.0069l-0.0531 -0.1444c-0.0662,0.0968 -0.0887,-0.1566 -0.065,0.1977 0.7535,0.1033 1.8838,-0.1478 2.536,0.166z"/>
  <path class="fil3" d="M10.4289 12.8789c-0.1155,-0.0717 0.1381,-0.0092 -0.2182,-0.1066 -0.111,-0.0304 -0.2347,-0.0374 -0.3458,-0.0533 0.0881,0.0619 -0.0716,0.0072 0.1568,0.0949 0.0218,0.0084 0.0883,0.0244 0.1123,0.0298 0.0969,0.0219 0.2031,0.0243 0.2949,0.0352z"/>
  <path class="fil4" d="M11.008 10.6541c-0.1498,-0.0872 0.1721,-0.0039 -0.2226,-0.1002 -0.067,-0.0164 -0.2412,-0.0272 -0.3048,-0.0351 0.1288,0.0767 -0.1644,0.0184 0.2255,0.107 0.1073,0.0244 0.2001,0.0194 0.3019,0.0283z"/>
  <path class="fil5" d="M9.0953 12.7306c0.0123,0.1209 -0.0229,0.0949 0.0901,0.0949l-0.0455 -0.1573 0.2071 -0.0021 -0.1472 -0.0808c-0.1737,0.0669 -0.1837,-0.0815 -0.1045,0.1453z"/>
  <path class="fil6" d="M15.3298 7.4906c-0.1542,-0.1671 -0.0819,-0.1283 -0.3429,-0.2028 0.0303,0.0341 -0.0168,0.0286 0.1049,0.0988 0.058,0.0334 0.1783,0.0772 0.238,0.104z"/>
  <path class="fil7" d="M5.3341 0.4375c0.1345,-0.029 0.0947,0.0004 0.2088,-0.0501 0.21,-0.093 0.08,-0.0447 0.1559,-0.0996 -0.1994,0.0393 -0.0068,-0.0433 -0.2085,0.0469 -0.1467,0.0656 -0.0887,0.054 -0.1562,0.1028z"/>
  <path class="fil8" d="M13.6371 7.4469c0.1374,-0.0342 0.0809,0.002 0.1984,-0.0539 0.1969,-0.0937 0.0796,-0.0469 0.153,-0.1021 -0.1665,0.0362 -0.0221,-0.0227 -0.2038,0.0505 -0.1394,0.0563 -0.0814,0.0529 -0.1476,0.1055z"/>
  <path class="fil9" d="M9.0953 12.7306c-0.0792,-0.2268 -0.0692,-0.0784 0.1045,-0.1453l-0.2026 -0.0503 0.0981 0.1956z"/>
 </g>
</svg>
