<?xml version="1.0" encoding="UTF-8"?>
<!DOCTYPE svg PUBLIC "-//W3C//DTD SVG 1.1//EN" "http://www.w3.org/Graphics/SVG/1.1/DTD/svg11.dtd">
<!-- Creator: CorelDRAW -->
<svg xmlns="http://www.w3.org/2000/svg" xml:space="preserve" width="16.9332mm" height="16.9332mm" style="shape-rendering:geometricPrecision; text-rendering:geometricPrecision; image-rendering:optimizeQuality; fill-rule:evenodd; clip-rule:evenodd"
viewBox="0 0 16.9332 16.9332"
 xmlns:xlink="http://www.w3.org/1999/xlink">
 <defs>
  <style type="text/css">
   <![CDATA[
    .fil0 {fill:black}
   ]]>
  </style>
 </defs>
 <g id="Capa_x0020_1">
  <metadata id="CorelCorpID_0Corel-Layer"/>
  <g id="_413318528">
   <path id="_89974360" class="fil0" d="M7.1786 7.2843l0.0094 1.3675 2.6006 0.3763 0.0186 -1.7351c0.0946,0.1169 0.6445,0.4797 0.7876,0.5683 0.57,0.3529 1.9273,0.4762 2.3616,0.3687 0.3833,-0.0949 0.4165,-0.7218 -0.1029,-0.7499 -1.4612,-0.0792 -1.5557,0.0618 -2.6287,-0.8544 -0.1486,-0.1268 -0.237,-0.2064 -0.4292,-0.278 -0.3997,-0.1489 -2.2433,-0.1528 -2.6415,-0.0011 -0.3347,0.1274 -0.5384,0.404 -0.7893,0.5907 -0.7675,0.5713 -1.1573,0.4814 -2.2385,0.5435 -0.5743,0.033 -0.4896,0.6466 -0.1663,0.741 0.2175,0.0636 1.0968,0.0062 1.3493,-0.0266 0.7515,-0.0976 1.3343,-0.4346 1.8693,-0.9109z"/>
   <path id="_374638488" class="fil0" d="M2.5883 9.1502c0.1461,1.0388 0.2301,2.0734 0.3585,3.1167 0.096,0.7805 -0.0015,1.8199 0.7655,1.7893 0.2288,-0.0092 0.4254,-0.1768 0.5098,-0.345 0.1052,-0.2096 -0.07,-0.364 -0.0835,-0.6525 -0.0135,-0.2859 0.0136,-0.574 -0.0111,-0.8593 -0.1823,-2.0969 -0.0849,-1.3121 -0.7414,-1.8329 -0.5669,-0.4497 -0.6079,-1.1943 -0.2765,-1.8498l-2.003 -0.0008 -0.4807 4.2819c-0.0506,0.4676 -0.171,0.942 0.23,1.1784 0.2065,0.1218 0.5006,0.0686 0.673,-0.0474 0.1931,-0.1299 0.2119,-0.2985 0.2421,-0.5425 0.165,-1.3365 0.2937,-3.0044 0.4911,-4.2455l0.3262 0.0094z"/>
   <path id="_374636400" class="fil0" d="M13.8381 8.5154c0.2121,0.4932 0.3421,0.8138 0.0783,1.3858 -0.2481,0.5379 -0.6168,0.6114 -0.9366,0.7696l-0.196 1.9395c0,0.1743 0.0126,0.3919 -0.0053,0.5606 -0.0219,0.2054 -0.1166,0.2265 -0.094,0.3962 0.0363,0.2715 0.2691,0.4706 0.5846,0.4703 0.5857,-0.0717 0.58,-0.4032 0.6319,-0.8719 0.1437,-1.2969 0.2862,-2.7497 0.4591,-4.0157l0.3368 -0.0111 0.4862 4.2857c0.0696,0.5649 0.5076,0.7409 0.8571,0.5781 0.4747,-0.2211 0.3364,-0.7115 0.2712,-1.2291 -0.0716,-0.5689 -0.4229,-4.0233 -0.4964,-4.2385l-1.9769 -0.0195z"/>
   <path id="_374636904" class="fil0" d="M4.165 8.3945c-0.194,0.0001 -0.3594,-0.0943 -0.422,-0.0787 -0.2704,0.0674 -0.8302,0.8559 -0.3998,1.5348 0.3491,0.5507 0.6653,0.4834 1.1017,0.5772l0.0002 2.0336c0,0.2989 -0.0559,0.7007 0.104,0.9225 0.1721,0.2387 0.4458,0.1969 0.8099,0.1968l3.0595 -0.0003 0.3704 -1.0107 -3.0195 -0.0057c-0.1935,0.0001 -0.1122,0.0278 -0.3319,-0.1347 -0.0062,-0.0833 0.0049,-0.2471 0.0051,-0.341 0.0016,-0.6834 0.0813,-2.8069 -0.1085,-3.2582 -0.2446,-0.5813 -0.4819,-0.4359 -1.1691,-0.4356z"/>
   <path id="_374636376" class="fil0" d="M12.4942 10.418c0.4062,-0.0381 0.5662,-0.0329 0.8577,-0.2616 0.1708,-0.1341 0.3635,-0.4139 0.4006,-0.717 0.0425,-0.3477 -0.0534,-0.6604 -0.2438,-0.8744 -0.3599,-0.4044 -0.2791,-0.1711 -0.7247,-0.1709l-0.3358 0.0004c-0.4718,0.0203 -0.6513,-0.0036 -0.8283,0.4044 -0.2717,0.626 -0.0436,2.6982 -0.1414,3.7654l-1.1751 -0.0001 -0.2613 1.0166 1.8838 0 0.569 -0.7462 -0.0007 -2.4166z"/>
   <path id="_374636880" class="fil0" d="M6.5615 9.8682c0.1644,0.5523 0.965,0.8762 1.5577,0.9055 0.3481,0.0172 0.4173,-0.0249 0.6355,0.1944 0.6615,0.6649 0.027,1.9641 -0.1462,2.5788 -0.1316,0.4672 0.3193,0.9262 0.8193,0.7071 0.324,-0.142 0.4722,-0.681 0.5801,-1.0625 0.3127,-1.1064 0.3754,-1.7493 -0.1067,-2.7356 -0.4755,-0.0664 -3.135,-0.3574 -3.3397,-0.5877z"/>
   <path id="_374636760" class="fil0" d="M6.4131 9.3645c0.0003,0.456 0.3771,0.5518 0.8027,0.6117 0.7688,0.1084 1.7023,0.2764 2.4333,0.3639 0.4332,0.0519 0.7975,-0.1832 0.7609,-0.6396 -0.0388,-0.4854 -0.4197,-0.5306 -0.8414,-0.5925 -0.4041,-0.0593 -0.7981,-0.1202 -1.1958,-0.1808 -0.7847,-0.1196 -1.9607,-0.5071 -1.9597,0.4373z"/>
   <path id="_374636976" class="fil0" d="M8.223 3.8243c-0.5639,0.1435 -0.9876,0.6689 -0.8554,1.3365 0.2794,1.4124 2.5178,1.0344 2.2135,-0.4673 -0.1091,-0.5388 -0.6974,-1.0375 -1.3581,-0.8692z"/>
   <path id="_413317232" class="fil0" d="M9.9392 8.6556c0.0006,0.3415 0.0689,1.5375 0.1191,1.7414l0.1796 0.4319 0.858 0.2147c-0.0001,0.8266 0.1179,1.2172 -0.2488,1.2341 -0.3007,0.0138 -0.3236,-0.0644 -0.4929,0.0718 0.0378,0.1108 -0.0802,0.0761 0.4523,0.0746l0.5309 -0.0005c0.0011,-0.4127 -0.0224,-2.9758 0.0139,-3.2321 0.0184,-0.1295 0.0549,-0.2706 0.1095,-0.4046 0.0392,-0.0963 0.0353,-0.0802 0.0918,-0.1739 0.0787,-0.1309 0.0488,-0.0101 0.0567,-0.1768 -0.5555,-0.0401 -1.1133,-0.0229 -1.6701,-0.0229l0 0.2423z"/>
   <path id="_413317112" class="fil0" d="M2.1494 2.6761c-0.1474,0.0444 -0.2616,0.0881 -0.3665,0.1643 -0.3649,0.2656 -0.5242,0.7123 -0.4003,1.1742 0.3524,1.3137 2.4748,0.832 2.0867,-0.5986 -0.134,-0.4941 -0.6712,-0.9354 -1.3199,-0.7399z"/>
   <path id="_413316800" class="fil0" d="M14.2393 2.6772c-1.4558,0.4579 -0.7211,2.471 0.6036,2.0681 1.3821,-0.4204 0.7072,-2.4804 -0.6036,-2.0681z"/>
   <path id="_413318072" class="fil0" d="M1.096 6.3044l0.0003 1.1389c0.0071,-0.0084 0.017,-0.0322 0.0202,-0.026 0.0031,0.0061 0.0152,-0.0196 0.0193,-0.0261 0.004,-0.0065 0.0129,-0.0185 0.0176,-0.0264 0.0045,-0.0077 0.0107,-0.0181 0.0153,-0.0266 0.0078,-0.0148 0.0383,-0.0896 0.0448,-0.1081 0.2409,-0.6786 0.1315,-1.3838 0.0966,-2.0913 -0.1271,-0.0469 -0.3323,0.0723 -0.4286,0.1584 -0.3864,0.3451 -0.5614,0.7619 -0.6921,1.2867 -0.116,0.4652 -0.3316,2.6517 -0.0529,2.9654 0.1078,0.1212 0.2846,0.1825 0.4573,0.0887 0.3096,-0.1682 0.1844,-0.6753 0.185,-1.057 0.0011,-0.6254 0.0324,-1.8538 0.3172,-2.2766z"/>
   <path id="_413318024" class="fil0" d="M15.8248 7.4431l0.0186 -1.1373c0.2705,0.3929 0.3168,1.6739 0.3175,2.2752 0.0004,0.3704 -0.1193,0.9079 0.1895,1.0618 0.1665,0.083 0.3745,0.0235 0.4811,-0.1109 0.1099,-0.1386 0.0912,-0.3872 0.095,-0.5777 0.017,-0.846 0.0157,-1.6213 -0.1743,-2.4033 -0.2291,-0.9436 -0.3954,-0.916 -1.1226,-1.4394 -0.0559,0.7847 -0.1333,1.7002 0.1952,2.3316z"/>
   <path id="_413318120" class="fil0" d="M7.038 8.4137c-0.1957,-0.0001 -1.556,-0.0551 -1.7152,0.0652 0.0734,0.0877 0.2444,0.4922 0.2655,0.7357 0.0332,0.3831 0.0019,2.673 0.005,3.2003 0.7977,0.0408 2.0752,0.004 2.9774,0.0122 0.1938,0.0018 0.2113,0.0401 0.2717,-0.1149 -0.1685,-0.0546 -0.1434,-0.04 -0.3489,-0.0378 -0.5384,0.0057 -2.3039,0.0253 -2.5931,-0.019 -0.1035,-0.4383 -0.066,-0.5913 -0.0658,-1.0626 0.8352,-0.4723 0.4597,-0.3649 1.6697,-0.3639l-0.1074 -0.0668c-0.2018,-0.1001 -0.3758,-0.1218 -0.6127,-0.3606 -0.1427,-0.1438 -0.1556,-0.0975 -0.2711,-0.2891 -0.2233,-0.3705 -0.3746,-0.8682 -0.1072,-1.2313 0.3415,-0.4635 0.6235,-0.0708 0.6321,-0.4674z"/>
   <path id="_413317976" class="fil0" d="M12.1691 7.3218l0.782 0.0089 0.2716 -1.0261 0.0002 1.1004c0.007,-0.0083 0.0172,-0.0317 0.0203,-0.0254 0.0031,0.0061 0.0155,-0.0192 0.0195,-0.0256 0.3146,-0.4892 0.1856,-1.7236 0.1636,-2.2512 -0.8192,0.1242 -1.1787,1.3247 -1.2572,2.219z"/>
   <path id="_413317880" class="fil0" d="M3.7454 7.4528l0.0191 -1.1851 0.2701 1.0777 0.7182 -0.0133c0.0735,-0.3085 -0.193,-1.1491 -0.3072,-1.3821l-0.9063 -0.8385c-0.0683,0.5973 -0.1301,1.9169 0.2061,2.3413z"/>
   <path id="_413317640" class="fil0" d="M15.3487 5.083l-1.6403 0.0008c0.0543,0.2712 0.4075,1.0362 0.8276,1.0256 0.3499,-0.0089 0.7134,-0.6584 0.8127,-1.0264z"/>
   <path id="_413318696" class="fil0" d="M3.2324 5.0827l-1.624 0.01c0.0273,0.1977 0.6372,1.7034 1.338,0.6273 0.0871,-0.1338 0.2759,-0.4427 0.286,-0.6373z"/>
  </g>
 </g>
</svg>
