<?xml version="1.0" encoding="UTF-8"?>
<!DOCTYPE svg PUBLIC "-//W3C//DTD SVG 1.1//EN" "http://www.w3.org/Graphics/SVG/1.1/DTD/svg11.dtd">
<!-- Creator: CorelDRAW -->
<svg xmlns="http://www.w3.org/2000/svg" xml:space="preserve" width="16.9332mm" height="16.9332mm" style="shape-rendering:geometricPrecision; text-rendering:geometricPrecision; image-rendering:optimizeQuality; fill-rule:evenodd; clip-rule:evenodd"
viewBox="0 0 16.9332 16.9332"
 xmlns:xlink="http://www.w3.org/1999/xlink">
 <defs>
  <style type="text/css">
   <![CDATA[
    .fil0 {fill:black}
    .fil1 {fill:#F3F3F5}
   ]]>
  </style>
 </defs>
 <g id="Capa_x0020_1">
  <metadata id="CorelCorpID_0Corel-Layer"/>
  <g id="_374637432">
   <path id="_374637120" class="fil0" d="M9.8861 7.5921c0.6923,-0.0642 1.0901,0.2482 1.687,0.6224 0.4755,0.298 0.9369,0.6084 1.4553,0.8956 1.12,0.6204 1.5456,0.763 2.8136,0.7773 1.4893,0.0167 0.1368,1.6854 -0.6091,2.1804 -0.3611,0.2396 -0.8008,0.4492 -1.2694,0.4867 -0.6704,0.0536 -2.6017,-0.6398 -3.9784,-0.722 -0.9364,-0.0559 -1.2667,0.0482 -2.0524,0.3237 -0.6333,0.2221 -1.4336,0.2367 -2.1371,0.1655 -0.7035,-0.0712 -1.3796,-0.2 -1.9816,-0.4141 -0.8474,-0.3014 -1.0426,-0.6645 -0.0848,-0.971 0.5736,-0.1836 1.1509,-0.444 1.6355,-0.7511 0.2512,-0.1592 0.4978,-0.2925 0.736,-0.4591 0.9533,-0.6669 2.6438,-2.0284 3.7854,-2.1343zm-3.5708 0.3353c0.0606,-0.1804 0.2973,-0.6388 0.4084,-0.7851 0.363,-0.478 1.2771,-0.2036 0.791,0.7159 -0.4581,0.8668 -0.2883,0.4701 -0.1688,0.7567l-0.4836 0.3178 0.6493 -1.3019c0.1258,-0.303 -0.0329,-0.5734 -0.3014,-0.6148 -0.3033,-0.0469 -0.428,0.2221 -0.5282,0.4201 -0.2202,0.4351 -0.4454,0.8696 -0.6717,1.3039 -0.1371,0.2632 -0.4989,1.1476 -0.7369,1.245l0.1459 -0.3248c-0.7474,0.1268 -1.1414,0.006 -1.2002,0.8724l-0.3337 0.1224 -0.4317 -0.4403c-1.0401,0.0001 -0.7658,-0.1063 -1.3062,0.3355l0.0003 0.4851 0.7219 0.3273 0.057 0.2474 -1.2264 0.0033 -0.0004 -4.2348 -0.2985 -0.5315 -0.9701 0.0001 -0.379 0.6807 0.0001 6.2688c-0.0001,0.5556 -0.0887,0.759 0.3042,0.759l0.8955 0 0.4663 -0.5167 13.5833 -0.0001 0.0925 0.4691 1.4803 -0.0026c0.129,-0.1574 0.095,-0.1411 0.0928,-0.4473 -0.0049,-0.6908 0.0419,-3.2902 -0.0345,-3.5617l-0.2296 -0.0686 -0.9731 -0.7446c-0.3714,-0.1258 -2.7251,-0.8409 -2.8832,-0.9135 -0.3889,-0.2381 -0.7588,-0.4765 -1.1459,-0.7205 -0.6895,-0.4348 -1.2523,-0.8262 -2.115,-0.6204 -0.4422,0.1055 -0.3403,0.0373 -0.6421,-0.1672 -0.3978,-0.2697 -0.7239,-0.4472 -1.2165,-0.6491 -0.9375,-0.384 -1.777,0.0543 -1.7301,0.7219 0.0221,0.3146 0.1952,0.4341 0.318,0.5931z"/>
   <path id="_374637792" class="fil1" d="M9.8861 7.5921c-1.1416,0.1059 -2.8321,1.4674 -3.7854,2.1343 -0.2382,0.1666 -0.4848,0.2999 -0.736,0.4591 -0.4846,0.3071 -1.0619,0.5675 -1.6355,0.7511 -0.9578,0.3065 -0.7626,0.6696 0.0848,0.971 0.602,0.2141 1.2781,0.3429 1.9816,0.4141 0.7035,0.0712 1.5038,0.0566 2.1371,-0.1655 0.7857,-0.2755 1.116,-0.3796 2.0524,-0.3237 1.3767,0.0822 3.308,0.7756 3.9784,0.722 0.4686,-0.0375 0.9083,-0.2471 1.2694,-0.4867 0.7459,-0.495 2.0984,-2.1637 0.6091,-2.1804 -1.268,-0.0143 -1.6936,-0.1569 -2.8136,-0.7773 -0.5184,-0.2872 -0.9798,-0.5976 -1.4553,-0.8956 -0.5969,-0.3742 -0.9947,-0.6866 -1.687,-0.6224z"/>
   <path id="_374637456" class="fil0" d="M4.3793 5.345c-1.5815,0.275 -1.115,2.58 0.3777,2.296 1.5547,-0.2959 1.0478,-2.5438 -0.3777,-2.296z"/>
   <path id="_374637576" class="fil0" d="M3.1351 7.7091c-1.5652,0.3684 -1.0149,2.5812 0.4693,2.2829 0.5506,-0.1106 1.0441,-0.6938 0.8945,-1.3812 -0.1214,-0.5576 -0.6734,-1.0642 -1.3638,-0.9017z"/>
   <path id="_374637744" class="fil0" d="M1.7286 4.7763c-0.2967,-0.0531 -0.4781,0.0031 -0.6241,0.1782 -0.1651,0.1983 -0.1784,0.4747 0.0001,0.668l1.4651 0.3558c0.0924,-0.3967 0.4212,-1.0435 0.1815,-1.48 -0.2457,-0.4472 -0.9798,-0.3413 -1.0226,0.278z"/>
  </g>
 </g>
</svg>
