<?xml version="1.0" encoding="UTF-8"?>
<!DOCTYPE svg PUBLIC "-//W3C//DTD SVG 1.1//EN" "http://www.w3.org/Graphics/SVG/1.1/DTD/svg11.dtd">
<!-- Creator: CorelDRAW -->
<svg xmlns="http://www.w3.org/2000/svg" xml:space="preserve" width="67.7332mm" height="67.7332mm" style="shape-rendering:geometricPrecision; text-rendering:geometricPrecision; image-rendering:optimizeQuality; fill-rule:evenodd; clip-rule:evenodd"
viewBox="0 0 67.7332 67.7332"
 xmlns:xlink="http://www.w3.org/1999/xlink">
 <defs>
  <style type="text/css">
   <![CDATA[
    .fil3 {fill:#373435;fill-rule:nonzero}
    .fil11 {fill:#525F94;fill-rule:nonzero}
    .fil15 {fill:#5C63A2;fill-rule:nonzero}
    .fil14 {fill:#5E6CA6;fill-rule:nonzero}
    .fil12 {fill:#6068A4;fill-rule:nonzero}
    .fil19 {fill:#6097CC;fill-rule:nonzero}
    .fil17 {fill:#62BEE3;fill-rule:nonzero}
    .fil16 {fill:#636DA8;fill-rule:nonzero}
    .fil13 {fill:#646BA6;fill-rule:nonzero}
    .fil22 {fill:#6EA475;fill-rule:nonzero}
    .fil26 {fill:#73A075;fill-rule:nonzero}
    .fil23 {fill:#81B774;fill-rule:nonzero}
    .fil20 {fill:#85CAF0;fill-rule:nonzero}
    .fil24 {fill:#89BA84;fill-rule:nonzero}
    .fil21 {fill:#89C8EE;fill-rule:nonzero}
    .fil18 {fill:#90CCE9;fill-rule:nonzero}
    .fil8 {fill:#9370A7;fill-rule:nonzero}
    .fil9 {fill:#975C98;fill-rule:nonzero}
    .fil28 {fill:#98AD73;fill-rule:nonzero}
    .fil5 {fill:#9A6DA2;fill-rule:nonzero}
    .fil10 {fill:#A567A0;fill-rule:nonzero}
    .fil7 {fill:#AA6CA2;fill-rule:nonzero}
    .fil25 {fill:#AABE6D;fill-rule:nonzero}
    .fil27 {fill:#B2C477;fill-rule:nonzero}
    .fil6 {fill:#B973A3;fill-rule:nonzero}
    .fil0 {fill:#C95765;fill-rule:nonzero}
    .fil2 {fill:#D89D65;fill-rule:nonzero}
    .fil4 {fill:#DDBD6C;fill-rule:nonzero}
    .fil1 {fill:#F3C368;fill-rule:nonzero}
    .fil29 {fill:#F8E385;fill-rule:nonzero}
   ]]>
  </style>
 </defs>
 <g id="Capa_x0020_1">
  <metadata id="CorelCorpID_0Corel-Layer"/>
  <g id="_408357080">
   <path id="_408360632" class="fil0" d="M66.3786 41.067l-0.0498 0.0078c-2.4118,-0.5535 -4.5493,-0.9488 -6.4458,-1.2318l0.6393 -1.2162 1.0737 -0.3904 4.7826 2.8306z"/>
   <polygon id="_408360416" class="fil1" points="58.3262,36.1867 60.5223,38.6268 59.3579,38.6346 "/>
   <path id="_408359384" class="fil2" d="M60.5223 38.6268l-0.6393 1.2162c-0.0058,-0.001 -0.0117,-0.002 -0.0175,-0.002l-0.5076 -1.2064 1.1644 -0.0078z"/>
   <path id="_408359744" class="fil3" d="M59.883 39.843l-0.0088 0.0176 -0.0087 -0.0196c0.0058,0 0.0117,0.001 0.0175,0.002z"/>
   <path id="_408359192" class="fil4" d="M59.3579 38.6346l0.5076 1.2064c-1.5198,-0.2264 -2.8832,-0.3806 -4.1082,-0.4841l-0.4617 -0.695 4.0623 -0.0273z"/>
   <polygon id="_408359696" class="fil2" points="58.3262,36.1867 59.3579,38.6346 55.2956,38.6619 "/>
   <polygon id="_408359480" class="fil1" points="58.3262,36.1867 55.2956,38.6619 54.3313,37.2115 "/>
   <path id="_408359888" class="fil5" d="M55.2956 38.6619l0.4617 0.695c-3.1722,-0.2684 -5.4112,-0.204 -6.9963,-0.205l0 -0.0673 2.9281 -3.1419 2.6422 1.2688 0.9643 1.4504z"/>
   <path id="_408359648" class="fil6" d="M49.0538 31.3064l2.6353 4.6363 -2.9281 3.1419 0 0.0673c-0.5231,0 -0.976,-0.0078 -1.3664,-0.0371l-0.5047 -4.0018 2.1639 -3.8066z"/>
   <polygon id="_408359432" class="fil5" points="49.0538,31.3064 46.8899,35.113 45.6377,32.7217 "/>
   <path id="_408359288" class="fil7" d="M46.8899 35.113l0.5047 4.0018c-1.2025,-0.0888 -3.8164,0.0254 -6.8324,0.289l6.3277 -4.2908z"/>
   <path id="_408359600" class="fil6" d="M47.3946 39.1148l-6.8324 0.289c3.016,-0.2636 5.6299,-0.3778 6.8324,-0.289z"/>
   <polygon id="_408358736" class="fil8" points="45.6377,32.7217 46.8899,35.113 40.5622,32.5753 "/>
   <path id="_408359072" class="fil9" d="M46.8899 35.113l-6.3277 4.2908c-1.0228,0.0897 -2.0926,0.1961 -3.1692,0.3181l3.1692 -7.1466 6.3277 2.5377z"/>
   <polygon id="_408358880" class="fil10" points="45.6377,32.7217 40.5622,32.5753 42.4167,30.2815 "/>
   <polygon id="_408359120" class="fil11" points="37.2925,27.2558 40.5622,32.5753 35.8284,34.1858 33.9251,28.5734 "/>
   <path id="_408359024" class="fil12" d="M40.5622 32.5753l-3.1692 7.1466c-0.3884,0.044 -0.7779,0.0899 -1.1663,0.1387l-0.3524 -5.0209 -0.0459 -0.6539 4.7338 -1.6105z"/>
   <polygon id="_408358520" class="fil13" points="35.8743,34.8397 36.2267,39.8606 34.9568,36.8953 30.265,25.9381 33.9251,28.5734 35.8284,34.1858 "/>
   <path id="_408358496" class="fil12" d="M34.9568 36.8953l1.2699 2.9653c-1.5968,0.1961 -3.1761,0.4245 -4.6109,0.6783l3.341 -3.6436z"/>
   <polygon id="_408359000" class="fil14" points="30.265,25.9381 34.9568,36.8953 25.5741,31.9721 24.8968,30.3303 "/>
   <polygon id="_408358448" class="fil15" points="34.9568,36.8953 31.6158,40.5389 25.5741,31.9721 "/>
   <path id="_408359168" class="fil16" d="M25.5741 31.9721l6.0417 8.5668c-0.0527,0.0098 -0.1054,0.0186 -0.1581,0.0283 -0.5885,0.1054 -1.1517,0.2157 -1.6807,0.3289 -0.1572,0.0342 -0.3182,0.0664 -0.4832,0.0976l-0.1922 -0.4665 -3.3176 -8.0447 -0.2099 -0.5104z"/>
   <polygon id="_408358760" class="fil17" points="29.1016,40.5272 29.2938,40.9937 28.4906,40.5164 21.4669,36.3438 19.7237,35.3082 22.9017,33.8276 22.9027,33.8266 22.9027,33.8256 25.784,32.4825 "/>
   <path id="_408358160" class="fil18" d="M28.4906 40.5164l0.8032 0.4773c-3.1663,0.6042 -7.6238,0.7692 -10.9336,0.7965 -0.001,0 -0.002,0 -0.002,0l0.3036 -1.4406 1.0619 -5.0414 1.7432 1.0356 7.0237 4.1726z"/>
   <polygon id="_408358016" class="fil19" points="25.5741,31.9721 25.784,32.4825 22.9027,33.8256 22.9027,33.8266 22.9017,33.8276 19.7237,35.3082 21.3342,32.136 24.8968,30.3303 "/>
   <polygon id="_408357896" class="fil20" points="21.3342,32.136 19.7237,35.3082 16.8444,31.7456 "/>
   <polygon id="_408358352" class="fil21" points="16.8444,31.7456 19.7237,35.3082 14.8054,35.3082 "/>
   <polygon id="_408358328" class="fil19" points="19.7237,35.3082 18.6618,40.3496 18.3582,41.7902 18.3543,41.7902 17.5559,40.331 16.8737,39.0846 16.8727,39.0846 16.3837,38.1905 "/>
   <polygon id="_408358040" class="fil17" points="19.7237,35.3082 16.3837,38.1905 14.8054,35.3082 "/>
   <polygon id="_408358112" class="fil22" points="17.5559,40.331 18.3543,41.7902 18.3465,41.7902 14.8699,40.2861 14.2618,40.0226 11.0369,38.6268 15.476,38.9753 16.8727,39.0846 16.8737,39.0846 "/>
   <path id="_408358304" class="fil23" d="M14.8699 40.2861l3.4766 1.5041c-2.5962,0.0225 -4.4829,-0.04 -4.4829,-0.04 -0.53,-0.0117 -1.0454,-0.0283 -1.5451,-0.0498 -0.0498,-0.0019 -0.0986,-0.0039 -0.1474,-0.0068l-0.5407 -1.4631 -0.5935 -1.6037 3.2249 1.3958 0.6081 0.2635z"/>
   <polygon id="_408357848" class="fil24" points="16.3837,38.1905 16.8727,39.0846 15.476,38.9753 11.0369,38.6268 12.2082,37.1627 14.8054,35.3082 "/>
   <polygon id="_408357680" class="fil25" points="12.2082,37.1627 11.0369,38.6268 8.1088,35.9427 "/>
   <path id="_408357368" class="fil26" d="M11.6304 40.2305l0.5407 1.4631c-0.9545,-0.041 -1.8525,-0.0986 -2.6939,-0.1669l0.7106 -1.3206 0.8491 -1.5793 0.5935 1.6037z"/>
   <path id="_408357272" class="fil27" d="M11.0369 38.6268l-0.8491 1.5793 -0.7106 1.3206c-0.529,-0.042 -1.0355,-0.0889 -1.5187,-0.1396l-1.0473 -1.2367 -1.2913 -1.5236 5.417 0z"/>
   <polygon id="_408357176" class="fil28" points="11.0369,38.6268 5.6199,38.6268 8.1088,35.9427 "/>
   <path id="_408357632" class="fil29" d="M6.9112 40.1504l1.0473 1.2367c-3.2551,-0.3377 -5.4776,-0.8199 -6.6039,-1.1049l0.3777 -0.2196 3.1556 -1.8262 0.732 0.3904 1.2913 1.5236z"/>
  </g>
 </g>
</svg>
