<?xml version="1.0" encoding="UTF-8"?>
<!DOCTYPE svg PUBLIC "-//W3C//DTD SVG 1.1//EN" "http://www.w3.org/Graphics/SVG/1.1/DTD/svg11.dtd">
<!-- Creator: CorelDRAW -->
<svg xmlns="http://www.w3.org/2000/svg" xml:space="preserve" width="16.9332mm" height="16.9332mm" style="shape-rendering:geometricPrecision; text-rendering:geometricPrecision; image-rendering:optimizeQuality; fill-rule:evenodd; clip-rule:evenodd"
viewBox="0 0 16.9332 16.9332"
 xmlns:xlink="http://www.w3.org/1999/xlink">
 <defs>
  <style type="text/css">
   <![CDATA[
    .fil0 {fill:black}
    .fil1 {fill:#707071}
    .fil2 {fill:#8F8F91}
   ]]>
  </style>
 </defs>
 <g id="Capa_x0020_1">
  <metadata id="CorelCorpID_0Corel-Layer"/>
  <g id="_408354608">
   <path id="_408340304" class="fil0" d="M6.792 1.6988c0.3083,-0.1376 0.9806,-0.1796 1.1118,0.0021 0.4364,-0.0399 0.9932,0.3697 1.1448,0.5397 0.9998,1.1212 -0.0032,2.4444 -1.5567,2.4839 -2.3557,0.06 -2.9345,-2.4526 -0.6999,-3.0257zm-1.443 -1.5944c-1.8151,0.5328 -1.5104,1.8777 -1.5104,3.0098l0 10.3767c0,1.2962 -0.3563,2.5852 1.2247,3.223 0.7046,0.2843 1.4702,0.2017 2.3671,0.2099 1.8022,0.0166 3.6113,0.0064 5.4144,0.0061 1.5067,-0.0002 2.7819,-0.4447 3.4657,-1.4693 0.6481,-0.971 0.4223,-2.6487 0.4184,-3.8559l-3.1537 0.0001 0.4883 0.5439c0.281,0.3293 1.1154,1.562 0.6828,1.7782 -0.0592,0.0471 0.0728,0.0438 -0.1911,0.0958 -0.0847,0.0167 -0.1738,0.0133 -0.2594,0.0179 -0.7672,0.0777 -1.2501,-0.0159 -1.9501,-0.0534 -0.0716,-0.0064 -0.1561,-0.0058 -0.2343,-0.0238 -0.2937,-0.0678 -0.0632,-0.0127 -0.1666,-0.0784 -0.5402,-0.0487 -1.4247,-0.4775 -1.773,-0.6709 -1.0277,-0.571 -1.846,-1.4897 -2.1091,-2.4809 -0.1143,-0.4306 0.2049,-0.4295 0.6744,-0.4721 0.4727,-0.0428 0.8492,-0.002 1.294,-0.0148 0.2281,0.0103 0.3461,0.0109 0.5376,0.0948l0.2429 0.0166 0.0008 -5.7416c0,-0.933 0.0472,-1.9391 -0.0033,-2.863 -0.0246,-0.4502 -0.1701,-0.7707 -0.4636,-1.0513 -0.2188,-0.2093 -0.6005,-0.5263 -1.0543,-0.5836l-0.4142 -0.0793 -0.0803 -0.0389 -3.1169 0.0201c-0.0504,0.0257 0.0337,0.0115 -0.1359,0.0592 -0.1199,0.0336 -0.0338,0.0088 -0.1949,0.0251z"/>
   <path id="_408355112" class="fil0" d="M10.7076 10.5367c-0.3664,-0.072 -2.2243,-0.2504 -2.406,0.0161 -0.1676,0.2458 0.5919,1.323 0.7296,1.4859 1.1032,1.3051 3.5789,2.196 5.5821,1.7596 0.0799,-0.4122 -0.4784,-1.2455 -0.7203,-1.5198 -0.423,-0.4797 -0.7589,-0.743 -1.329,-1.0771 -0.5159,-0.3023 -1.115,-0.519 -1.8564,-0.6647z"/>
   <path id="_408355184" class="fil0" d="M0.6011 5.3171c0.5632,0.0962 2.0965,0.0365 2.7639,0.0362 0.0038,-0.3492 0.0585,-1.1634 -0.0379,-1.4588 -0.5632,-0.0635 -2.1155,-0.0626 -2.5168,0.1135 -0.2758,0.121 -0.5001,0.2897 -0.6035,0.5874 -0.1257,0.3621 0.0241,0.6646 0.3943,0.7217z"/>
   <path id="_408354728" class="fil0" d="M6.9402 2.3165c-1.0666,0.2181 -1.1241,1.8801 0.6793,1.793l0.3559 -0.1196c0.3498,-0.0184 0.7003,-0.4835 0.6702,-0.877 -0.0324,-0.4226 -0.3826,-0.6972 -0.7692,-0.8129 -0.4292,-0.0524 -0.5017,-0.0758 -0.9362,0.0165z"/>
   <path id="_408354800" class="fil1" d="M0.6011 5.3171c0.0869,0.131 0.4373,0.0939 0.6426,0.0933l2.1668 -0.045 0.0297 -1.2986c-0.0357,-0.2434 0.0053,-0.1051 -0.1131,-0.1723 0.0964,0.2954 0.0417,1.1096 0.0379,1.4588 -0.6674,0.0003 -2.2007,0.06 -2.7639,-0.0362z"/>
   <path id="_408354632" class="fil1" d="M6.792 1.6988c0.4551,-0.0481 0.6414,-0.0919 1.1118,0.0021 -0.1312,-0.1817 -0.8035,-0.1397 -1.1118,-0.0021z"/>
   <path id="_408354848" class="fil2" d="M6.9402 2.3165c0.4345,-0.0923 0.507,-0.0689 0.9362,-0.0165 -0.1919,-0.1065 -0.5331,-0.1193 -0.7193,-0.0848 -0.225,0.0418 -0.137,0.035 -0.2169,0.1013z"/>
   <path id="_408354872" class="fil2" d="M10.5687 10.3411c-0.1915,-0.0839 -0.3095,-0.0845 -0.5376,-0.0948 0.1865,0.0945 0.3124,0.083 0.5376,0.0948z"/>
   <path id="_408354920" class="fil2" d="M14.2958 14.0406c0.0856,-0.0046 0.1747,-0.0012 0.2594,-0.0179 0.2639,-0.052 0.1319,-0.0487 0.1911,-0.0958 -0.2743,0.0636 -0.2382,0.016 -0.4505,0.1137z"/>
   <path id="_408355136" class="fil1" d="M9.2912 0.1182c-0.0131,-0.0078 -0.0318,-0.0331 -0.0389,-0.0236 -0.0069,0.0092 -0.029,-0.0178 -0.0388,-0.0217 -0.1948,-0.0778 -0.2445,-0.0695 -0.4168,-0.0729l0.0803 0.0389 0.4142 0.0793z"/>
   <path id="_408355208" class="fil1" d="M7.6195 4.1095c0.2079,-0.0197 0.2586,0.0027 0.3559,-0.1196l-0.3559 0.1196z"/>
   <path id="_408355304" class="fil2" d="M5.349 0.1044c0.1611,-0.0163 0.075,0.0085 0.1949,-0.0251 0.1696,-0.0477 0.0855,-0.0335 0.1359,-0.0592 -0.1551,0.0173 -0.0242,-0.027 -0.2355,0.0404l-0.0953 0.0439z"/>
   <path id="_408355256" class="fil1" d="M12.3457 13.9872l-0.4009 -0.1022c0.1034,0.0657 -0.1271,0.0106 0.1666,0.0784 0.0782,0.018 0.1627,0.0174 0.2343,0.0238z"/>
  </g>
 </g>
</svg>
