<?xml version="1.0" encoding="UTF-8"?>
<!DOCTYPE svg PUBLIC "-//W3C//DTD SVG 1.1//EN" "http://www.w3.org/Graphics/SVG/1.1/DTD/svg11.dtd">
<!-- Creator: CorelDRAW -->
<svg xmlns="http://www.w3.org/2000/svg" xml:space="preserve" width="16.9332mm" height="16.9332mm" style="shape-rendering:geometricPrecision; text-rendering:geometricPrecision; image-rendering:optimizeQuality; fill-rule:evenodd; clip-rule:evenodd"
viewBox="0 0 16.9332 16.9332"
 xmlns:xlink="http://www.w3.org/1999/xlink">
 <defs>
  <style type="text/css">
   <![CDATA[
    .fil0 {fill:black}
    .fil2 {fill:#8A8A8C}
    .fil1 {fill:white}
   ]]>
  </style>
 </defs>
 <g id="Capa_x0020_1">
  <metadata id="CorelCorpID_0Corel-Layer"/>
  <g id="_408348176">
   <path id="_408342512" class="fil0" d="M8.0144 11.3868c0.5178,-0.8703 1.0636,-2.5733 1.7918,-2.6693 1.1056,-0.1455 1.5932,2.1172 1.4296,2.9335l-0.3078 -0.0009 0.2815 0.7493 0.4757 -0.2944 0.0685 1.3797c-0.0064,0.0314 -0.4328,0.7619 -0.7804,0.8656 -0.4403,0.1313 0.1365,0.1176 -0.6983,0.9925 -0.5278,0.5532 -1.2542,1.2514 -2.0674,1.2731 -0.9173,0.0245 -1.5648,-0.6468 -2.1168,-1.2247 -0.3288,-0.3442 -0.4705,-0.3964 -0.6189,-1.0282l-0.5329 -0.309c-0.3757,-0.2888 -0.6939,-1.2181 -0.3972,-1.7997l0.5494 0.5555 0.2445 -0.8912 -0.4205 0.0509c0.1852,-0.9921 0.3299,-2.8776 1.302,-3.1682 1.1111,-0.3323 1.2876,1.8363 1.7972,2.5855zm2.7927 -9.3624l-0.116 0.0161c-0.0026,0.3184 -0.3004,1.4042 -0.5107,1.7395 -0.0988,0.1576 -0.0143,0.0657 -0.1493,0.1439 -0.4147,-1.7337 -0.3651,-2.0224 -1.1416,-3.5021l-0.1844 -0.3348c-0.0606,-0.0753 -0.0272,-0.0296 -0.097,-0.087l-0.6597 2.2547c-0.1171,0.2426 -1.1314,1.3748 -1.3436,1.5232l0.0131 -1.7324c-0.7493,0.9625 -1.7574,2.2573 -2.0486,3.4629l-0.7409 -1.3404c-0.0445,-0.0833 -0.0762,-0.1552 -0.1275,-0.2485l-0.1681 -0.2111c-0.2783,2.0467 -0.3082,2.3182 -0.4026,4.4055l-0.615 -0.613c-0.071,-0.0697 -0.1098,-0.1215 -0.1773,-0.1839l0.1801 2.6225c0.0898,0.7379 0.3974,1.4573 0.842,1.971l-0.8551 -0.1586 0.6491 0.7951c0.1783,0.1847 0.9465,0.7521 1.0955,1.0204 0.1097,0.1975 0.1529,0.2603 0.2696,0.4357 0.1317,0.1982 0.4394,0.5584 0.7116,0.647l0.3455 0.6458c0.1864,0.1773 0.3084,0.3286 0.489,0.4979 0.7837,0.7354 1.4213,1.3458 2.6338,1.0731 0.4765,-0.1072 1.3692,-0.8784 1.6993,-1.2128 0.357,-0.3617 0.474,-0.4775 0.6253,-0.8778 0.0712,-0.1884 0.0524,-0.0994 0.2392,-0.23 0.6602,-0.462 0.6046,-1.0225 1.3011,-1.5674l0.9927 -0.9232 -0.9046 0.0284c0.8021,-1.2731 1.5326,-2.3036 1.9432,-3.8334l-1.4881 0.6876 0.5113 -2.9199c-0.3713,0.2758 -0.827,0.8254 -1.3071,1.1324l0.1904 -3.2458c-0.6575,0.7242 -0.3034,0.4216 -0.8841,0.791l-0.358 -1.3809c-0.1116,-0.3688 -0.4041,-0.9726 -0.4525,-1.2907z"/>
   <path id="_408342752" class="fil1" d="M8.0144 11.3868c-0.5096,-0.7492 -0.6861,-2.9178 -1.7972,-2.5855 -0.9721,0.2906 -1.1168,2.1761 -1.302,3.1682l0.4205 -0.0509 -0.2445 0.8912 -0.5494 -0.5555c-0.2967,0.5816 0.0215,1.5109 0.3972,1.7997l0.5329 0.309c0.1484,0.6318 0.2901,0.684 0.6189,1.0282 0.552,0.5779 1.1995,1.2492 2.1168,1.2247 0.8132,-0.0217 1.5396,-0.7199 2.0674,-1.2731 0.8348,-0.8749 0.258,-0.8612 0.6983,-0.9925 0.3476,-0.1037 0.774,-0.8342 0.7804,-0.8656l-0.0685 -1.3797 -0.4757 0.2944 -0.2815 -0.7493 0.3078 0.0009c0.1636,-0.8163 -0.324,-3.079 -1.4296,-2.9335 -0.7282,0.096 -1.274,1.799 -1.7918,2.6693z"/>
   <path id="_408348824" class="fil2" d="M10.6911 2.0405l0.116 -0.0161c-0.0399,-0.0548 -0.0726,-0.0958 -0.1004,-0.1315l-0.0156 0.1476z"/>
  </g>
 </g>
</svg>
