<?xml version="1.0" encoding="UTF-8"?>
<!DOCTYPE svg PUBLIC "-//W3C//DTD SVG 1.1//EN" "http://www.w3.org/Graphics/SVG/1.1/DTD/svg11.dtd">
<!-- Creator: CorelDRAW 2017 -->
<svg xmlns="http://www.w3.org/2000/svg" xml:space="preserve" width="63.4152mm" height="31.1572mm" version="1.1" style="shape-rendering:geometricPrecision; text-rendering:geometricPrecision; image-rendering:optimizeQuality; fill-rule:evenodd; clip-rule:evenodd"
viewBox="0 0 6341.52 3115.72"
 xmlns:xlink="http://www.w3.org/1999/xlink">
 <defs>
  <style type="text/css">
   <![CDATA[
    .str0 {stroke:#030303;stroke-width:23.16;stroke-linecap:round;stroke-linejoin:round;stroke-miterlimit:22.9256}
    .fil2 {fill:none}
    .fil3 {fill:black}
    .fil1 {fill:black;fill-rule:nonzero}
    .fil0 {fill:#2893B2;fill-rule:nonzero}
   ]]>
  </style>
 </defs>
 <g id="Capa_x0020_1">
  <metadata id="CorelCorpID_0Corel-Layer"/>
  <g id="_2735375280912">
   <path class="fil0" d="M3299.49 746.36l107.93 0 -31.28 -111.66c-4.73,-17.2 -8.86,-33.5 -12.37,-48.68 -3.52,-15.19 -6.64,-30.38 -9.46,-45.46 -3.52,18.41 -6.94,34.9 -10.25,49.59 -3.33,14.58 -6.64,27.25 -9.77,37.82l-34.8 118.39zm-8.55 -256.5l130.87 0 136.49 448.41 -92.24 0 -33.9 -111.05 -159.12 0 -32.79 111.05 -86.91 0 137.6 -448.41zm601.08 156.31c-15.09,-24.95 -32.19,-43.25 -51.3,-54.92 -19.01,-11.66 -41.24,-17.5 -66.48,-17.5 -38.33,0 -67.6,12.57 -87.81,37.62 -20.22,25.04 -30.38,61.45 -30.38,109.13 0,44.87 10.16,80.27 30.38,106.32 20.21,26.05 47.67,39.03 82.47,39.03 27.26,0 51.6,-7.65 72.93,-22.84 21.22,-15.19 38.01,-37.01 50.19,-65.27l0 106.31c-18.51,20.83 -39.83,36.42 -64.18,46.98 -24.43,10.46 -51.49,15.69 -81.37,15.69 -55.52,0 -98.87,-20.42 -130.05,-61.26 -31.09,-40.93 -46.68,-97.97 -46.68,-171.29 0,-76.55 15.7,-134.49 46.97,-173.81 31.39,-39.34 77.46,-58.95 138.32,-58.95 29.26,0 55.21,4.53 77.95,13.58 22.63,9.05 42.34,22.83 59.04,41.34l0 109.84zm150.85 93.34l0 198.76 -88.11 0 0 -448.41 165.86 0c55.73,0 95.77,9.95 120.31,29.77 24.44,19.82 36.71,51.91 36.71,96.26 0,40.44 -11.26,71.22 -33.89,92.44 -22.64,21.23 -56.84,33.09 -102.51,35.61l148.47 194.33 -110.94 0 -92.55 -127.34c-10.45,-14.58 -19,-27.46 -25.84,-38.62 -6.75,-11.27 -12.57,-22.14 -17.51,-32.8zm0 -161.53l0 109.22 71.02 0c27.26,0 47.17,-4.32 59.54,-12.97 12.38,-8.65 18.51,-22.33 18.51,-41.24 0,-19.01 -6.23,-32.89 -18.71,-41.74 -12.47,-8.86 -32.28,-13.27 -59.34,-13.27l-71.02 0zm295.91 360.29l0 -448.41 279.42 0 0 88.12 -191.92 0 0 91.73 191.92 0 0 83.88 -191.92 0 0 100.79 191.92 0 0 83.89 -279.42 0zm353.63 -448.41l155 0c29.27,0 51.6,1.41 66.89,4.13 15.39,2.71 29.27,7.23 41.85,13.58 28.86,14.48 50.79,37.11 65.68,67.69 14.98,30.68 22.43,68.59 22.43,113.76 0,79.16 -18.01,140.52 -53.91,183.97 -35.92,43.56 -86.61,65.28 -151.99,65.28l-145.95 0 0 -448.41zm87.51 88.12l0 281.23 61.65 0c39.74,0 69.51,-12.67 89.43,-38.12 20.01,-25.45 29.97,-63.57 29.97,-114.47 0,-46.67 -9.25,-79.76 -27.86,-99.38 -18.6,-19.51 -50.59,-29.26 -95.95,-29.26l-57.24 0zm322.45 360.29l0 -448.41 87.51 0 0 448.41 -87.51 0zm240.18 0l0 -357.28 -114.66 0 0 -91.13 317.44 0 0 91.13 -114.66 0 0 357.28 -88.12 0zm240.78 0l0 -448.41 279.43 0 0 88.12 -191.92 0 0 91.73 191.92 0 0 83.88 -191.92 0 0 100.79 191.92 0 0 83.89 -279.43 0zm353.64 -448.41l155 0c29.27,0 51.6,1.41 66.88,4.13 15.4,2.71 29.28,7.23 41.85,13.58 28.87,14.48 50.8,37.11 65.69,67.69 14.98,30.68 22.43,68.59 22.43,113.76 0,79.16 -18.01,140.52 -53.92,183.97 -35.91,43.56 -86.61,65.28 -151.98,65.28l-145.95 0 0 -448.41zm87.5 88.12l0 281.23 61.66 0c39.73,0 69.51,-12.67 89.43,-38.12 20.01,-25.45 29.97,-63.57 29.97,-114.47 0,-46.67 -9.26,-79.76 -27.87,-99.38 -18.6,-19.51 -50.59,-29.26 -95.95,-29.26l-57.24 0z"/>
   <g>
    <path class="fil1" d="M1000.85 2143.24c-50.99,-59.82 -113.75,-106.23 -187.61,-138.93 -74.2,-33.01 -153.31,-49.35 -237.64,-49.35 -59.5,0 -107.54,10.79 -143.83,32.36 -36.28,21.9 -54.59,49.35 -54.59,83.35 0,45.77 63.09,87.93 189.59,125.85 67.67,21.25 122.91,39.22 165.72,54.58 104.93,38.25 182.73,90.22 233.39,155.6 50.67,65.37 76.17,146.76 76.17,243.85 0,138.59 -50.01,250.71 -150.04,336.67 -99.7,85.97 -231.43,128.79 -394.87,128.79 -90.86,0 -173.57,-13.07 -248.09,-38.89 -74.86,-25.83 -140.55,-63.74 -197.43,-114.41l0 -378.19c48.05,65.7 109.5,116.36 185.01,152.32 75.18,35.63 159.51,53.6 253,53.6 60.47,0 108.2,-10.45 142.19,-31.37 34.32,-21.25 51.32,-50.02 51.32,-86.29 0,-45.76 -57.53,-86.63 -172.59,-122.26 -30.07,-9.48 -53.61,-16.99 -70.93,-22.88 -166.71,-56.87 -281.77,-118.65 -344.52,-185.34 -63.1,-66.67 -94.47,-155.59 -94.47,-266.07 0,-137.95 49.35,-251.04 148.07,-339.62 98.72,-88.58 225.87,-132.71 381.79,-132.71 95.78,0 183.38,11.43 262.48,34.64 79.1,22.89 148.4,57.21 207.88,102.64l0 402.06zm1806.81 945.32l247.11 -1457.21 229.14 0 -113.09 676.96 571.04 -676.96 273.92 0 -617.79 694.29 443.57 762.92 -267.38 0 -410.23 -746.91 -127.15 746.91 -229.14 0zm1033.59 0l247.12 -1457.21 881.71 0 -35.31 213.78 -656.81 0 -67.99 407.93 613.86 0 -35.63 207.9 -613.86 0 -68.65 413.83 592.63 0 -35.31 213.77 -821.76 0zm1287.39 0l94.8 -550.46 -270.98 -906.75 250.71 0 168.67 675 439.31 -675 269.02 0 -631.85 925.71 -89.88 531.5 -229.8 0z"/>
   </g>
   <path class="fil0" d="M3189.67 1543.51l0 -520.37 221.43 0c57.67,0 99.35,9.68 125.14,29.18 25.8,19.49 38.63,50.89 38.63,94.2 0,38.05 -9.57,67.59 -28.82,88.6 -19.26,21.12 -48.21,33.5 -86.74,37.12l0 4.43c40.63,3.39 71.1,15.52 91.4,36.3 20.32,20.78 30.47,50.19 30.47,88.25 0,46.92 -14.71,82.41 -44.01,106.34 -29.3,23.94 -72.84,35.95 -130.5,35.95l-217 0zm129.57 -208.71l0 95.95 50.54 0c26.85,0 46.23,-3.73 57.9,-11.32 11.79,-7.47 17.62,-19.84 17.62,-37 0,-16.92 -5.83,-29.07 -17.39,-36.54 -11.66,-7.36 -31.04,-11.09 -58.13,-11.09l-50.54 0zm39.92 -100.86c29.89,0 51.01,-3.73 63.73,-11.08 12.61,-7.35 18.92,-19.5 18.92,-36.31 0,-15.99 -5.73,-27.42 -17.05,-34.43 -11.44,-7.12 -30,-10.62 -55.68,-10.62l-49.84 0 0 92.44 39.92 0zm395.85 -210.8l0 305.36c0,34.32 5.83,59.42 17.63,75.18 11.66,15.75 30.11,23.57 55.2,23.57 25.8,0 44.59,-7.93 56.5,-23.81 11.79,-15.76 17.74,-40.86 17.74,-74.94l0 -305.36 130.97 0 0 323.8c0,30 -1.63,53.81 -4.78,71.2 -3.15,17.4 -8.52,33.16 -16.11,47.05 -16.34,29.76 -39.8,51.94 -70.27,66.42 -30.46,14.48 -68.87,21.71 -115.45,21.71 -37.81,0 -70.97,-5.72 -99.57,-17.27 -28.48,-11.45 -51.94,-28.6 -70.39,-51.36 -13.07,-15.77 -22.29,-33.62 -27.78,-53.7 -5.48,-20.08 -8.17,-48.09 -8.17,-84.05l0 -323.8 134.48 0zm335.02 475.43l0 -135.05c17.17,23.46 39.11,41.56 66.08,54.4 26.85,12.72 56.96,19.14 90.34,19.14 21.6,0 38.64,-3.74 50.78,-11.21 12.26,-7.58 18.33,-17.86 18.33,-30.81 0,-16.34 -20.55,-30.93 -61.63,-43.66 -10.74,-3.39 -19.14,-6.07 -25.33,-8.17 -59.54,-20.31 -100.62,-42.38 -123.03,-66.19 -22.54,-23.81 -33.75,-55.56 -33.75,-95.02 0,-49.26 17.63,-89.65 52.89,-121.28 35.25,-31.63 80.66,-47.39 136.33,-47.39 34.21,0 65.49,4.08 93.75,12.37 28.24,8.17 52.99,20.43 74.23,36.65l0 143.59c-18.21,-21.37 -40.62,-37.95 -67,-49.61 -26.5,-11.79 -54.75,-17.63 -84.86,-17.63 -21.25,0 -38.41,3.84 -51.36,11.55 -12.97,7.82 -19.5,17.63 -19.5,29.77 0,16.34 22.53,31.4 67.7,44.94 24.17,7.58 43.89,14 59.19,19.49 37.47,13.66 65.25,32.22 83.34,55.57 18.09,23.34 27.2,52.41 27.2,87.08 0,49.49 -17.86,89.53 -53.58,120.22 -35.6,30.71 -82.64,46 -141.01,46 -32.45,0 -61.98,-4.67 -88.59,-13.89 -26.74,-9.22 -50.2,-22.76 -70.52,-40.86zm395.85 44.94l0 -520.37 134.48 0 0 520.37 -134.48 0zm201.14 0l0 -520.37 185.95 0 86.5 203.8c11.32,26.85 21.48,54.87 30.47,83.93 8.99,29.06 17.04,59.65 24.04,91.75l4.09 0c-2.69,-30.47 -4.78,-58.83 -6.07,-84.74 -1.4,-26.03 -2.1,-49.96 -2.1,-71.79l0 -222.95 121.86 0 0 520.37 -161.66 0 -117.9 -257.15c-8.64,-18.91 -16.46,-39.23 -23.58,-61.17 -7.01,-21.83 -13.43,-45.29 -19.03,-70.39l-5.13 0c1.63,17.98 2.68,37.01 3.38,57.09 0.71,20.07 1.05,43.3 1.05,69.68l0 261.94 -121.87 0zm511.99 0l0 -520.37 341.79 0 0 129.57 -220.62 0 0 70.73 220.62 0 0 116.96 -220.62 0 0 78.45 220.62 0 0 124.66 -341.79 0zm398.65 -44.94l0 -135.05c17.16,23.46 39.1,41.56 66.07,54.4 26.85,12.72 56.96,19.14 90.35,19.14 21.6,0 38.63,-3.74 50.78,-11.21 12.25,-7.58 18.32,-17.86 18.32,-30.81 0,-16.34 -20.54,-30.93 -61.63,-43.66 -10.74,-3.39 -19.14,-6.07 -25.33,-8.17 -59.53,-20.31 -100.62,-42.38 -123.03,-66.19 -22.53,-23.81 -33.74,-55.56 -33.74,-95.02 0,-49.26 17.63,-89.65 52.88,-121.28 35.25,-31.63 80.66,-47.39 136.34,-47.39 34.21,0 65.48,4.08 93.74,12.37 28.25,8.17 52.99,20.43 74.24,36.65l0 143.59c-18.21,-21.37 -40.62,-37.95 -67,-49.61 -26.51,-11.79 -54.76,-17.63 -84.87,-17.63 -21.25,0 -38.41,3.84 -51.36,11.55 -12.96,7.82 -19.5,17.63 -19.5,29.77 0,16.34 22.54,31.4 67.71,44.94 24.16,7.58 43.88,14 59.18,19.49 37.47,13.66 65.26,32.22 83.34,55.57 18.1,23.34 27.2,52.41 27.2,87.08 0,49.49 -17.86,89.53 -53.58,120.22 -35.6,30.71 -82.64,46 -141.01,46 -32.45,0 -61.98,-4.67 -88.59,-13.89 -26.73,-9.22 -50.2,-22.76 -70.51,-40.86zm389.54 0l0 -135.05c17.16,23.46 39.1,41.56 66.07,54.4 26.85,12.72 56.97,19.14 90.35,19.14 21.6,0 38.63,-3.74 50.78,-11.21 12.25,-7.58 18.32,-17.86 18.32,-30.81 0,-16.34 -20.54,-30.93 -61.63,-43.66 -10.74,-3.39 -19.14,-6.07 -25.33,-8.17 -59.53,-20.31 -100.62,-42.38 -123.03,-66.19 -22.53,-23.81 -33.74,-55.56 -33.74,-95.02 0,-49.26 17.63,-89.65 52.88,-121.28 35.25,-31.63 80.66,-47.39 136.34,-47.39 34.21,0 65.48,4.08 93.74,12.37 28.25,8.17 52.99,20.43 74.24,36.65l0 143.59c-18.21,-21.37 -40.62,-37.95 -67,-49.61 -26.51,-11.79 -54.75,-17.63 -84.87,-17.63 -21.25,0 -38.41,3.84 -51.36,11.55 -12.96,7.82 -19.5,17.63 -19.5,29.77 0,16.34 22.54,31.4 67.71,44.94 24.16,7.58 43.88,14 59.18,19.49 37.48,13.66 65.26,32.22 83.34,55.57 18.1,23.34 27.2,52.41 27.2,87.08 0,49.49 -17.85,89.53 -53.58,120.22 -35.6,30.71 -82.64,46 -141.01,46 -32.45,0 -61.98,-4.67 -88.59,-13.89 -26.73,-9.22 -50.2,-22.76 -70.51,-40.86z"/>
   <polygon class="fil1" points="1137.4,3088.56 1137.4,1631.35 1513.96,1631.35 1513.96,3088.56 "/>
   <g>
    <path class="fil2 str0" d="M2539.96 1282.21c-113.64,-14.89 -193.41,-143.76 -153.37,-262.45 9.22,-27.24 38.34,-74.73 55.83,-89.23 60.39,25.95 135.55,76.7 194.49,102.87 11.12,4.94 23.23,6.81 33.38,11.7l-130.33 237.11zm-928.69 1250.66c0,-115.05 16.02,-228.48 48.38,-340.6 32.36,-112.12 78.78,-214.76 139.25,-307.92 3.64,-5.67 7.33,-11.27 11.08,-16.78 0.11,-97.34 0.41,-194.72 -0.04,-292.03 -0.44,-97.47 -34.35,-208.03 -57.01,-297.57 -22.82,-90.23 -54.25,-194.64 -61.48,-289.11 -8.5,-110.7 -6.65,-234.06 -9.2,-346.17 -1.36,-59.51 -11.44,-298.36 -3.93,-337.81 14.54,-76.47 86.88,-116.86 155.89,-105.82 27.08,4.34 43.72,17.56 63.31,26.25 26.44,-80.75 42.88,-132.09 113.27,-161.22 53.75,-22.22 115.46,-14.57 161.69,19.51 16.49,12.15 20.52,21.7 34.31,33.46 22.63,-47.32 23.72,-59.92 61.11,-88.02 102.71,-77.21 267.83,6.9 243.94,149.8 -5.32,31.83 -26.57,79.18 -38.33,110.94 -16.13,43.43 -116.82,309.84 -121.16,330.19 78.35,-9.62 116.39,-14.74 195.28,5.72 57.51,14.89 111.66,39.74 157.33,65.21 91.36,50.88 179.95,106.97 160.05,222.12 -2.92,16.89 -10.17,30.2 -13.11,43.66 34.44,16.8 63.63,19.55 95.34,71.16 55.16,89.79 -3.48,160.23 -44.08,249.49 -61.72,135.72 -117.57,345.07 -231.78,455.68l3.54 3.6c85.97,88.26 128.79,210.83 128.79,367.07 0,114.41 -13.4,225.88 -39.88,334.4 -26.48,108.52 -65.37,211.49 -117.34,309.22 -64.4,120.62 -142.53,211.49 -234.05,272.94 -91.52,61.13 -195.8,91.85 -312.82,91.85 -153.63,0 -273.59,-50.99 -359.56,-152.65 -85.96,-101.99 -128.79,-244.18 -128.79,-426.57zm271.74 -755.54c41.05,-42.32 86.48,-76.83 136.2,-103.48 86.96,-46.75 186.97,-69.95 299.74,-69.95 113,0 207.78,24.6 284.33,73.94 60.16,-80.6 125.23,-221.29 152.95,-268.78 42.39,-65 87,-180.82 129.69,-261.57 37.44,-70.81 -32.05,-146.54 -106.32,-115.5 -30.63,12.78 -40.3,39.68 -57.08,70.76 -30.39,56.37 -60.97,109.56 -91.82,164.19 -40.86,72.35 -52.19,112.68 -157.96,71 -61.53,-24.22 -106,-67.94 -135.33,-120.75 -53.76,-96.81 -40.9,-210.49 22.73,-300.09 17.7,-24.93 30.64,-53.4 68.34,-59.14 59.87,-9.13 205.44,112.62 266.96,116.79 75.93,5.17 127.52,-74.91 83.95,-141.81 -12.46,-19.14 -48.04,-41.49 -71.71,-56.22 -122.61,-76.28 -252.34,-126.9 -392.64,-66.28 -37.6,16.24 -68.38,-15.75 -54.11,-54.18l173.96 -469.36c28.72,-77.55 -50.24,-143.59 -118.58,-103.22 -29.65,17.52 -34.21,40.52 -48.74,79.11 -11.93,31.66 -23.48,61.13 -35.14,92.96 -45.59,124.6 -93,249.44 -140.33,374.76 -12.44,32.91 -58.14,171.16 -75.79,183.41 -22.17,15.38 -73.3,3.7 -49.62,-55.59 59.16,-148.12 117.82,-316.57 175.72,-467.74 11.98,-31.25 30.76,-67.01 18.81,-104.31 -23.16,-72.32 -118.9,-82.66 -159.64,-27.33 -25.19,34.16 -196.93,560.27 -234.76,667.34 -16.88,47.81 -3.4,181.01 7.58,234.98 14.16,69.61 33.63,138.96 50.55,208.11 8.66,35.44 17.14,67.75 25.62,103.01l24.71 100.91c0.16,-0.44 0.68,1.55 1.11,2.24 -3.21,18.12 4.73,56.53 5.42,78.67 0.82,26.28 1.39,125.73 1.2,223.12zm-128.69 -1142.42c-2.96,-79.69 -4.08,-159.66 -5.77,-239.15 -0.78,-37.02 -6.9,-82.47 14.89,-106.16 19.95,-21.69 61.69,-28.73 87.8,-6.54 28.65,24.3 10.52,46.47 -2.27,82.91 -8.32,23.79 -85.94,256.42 -94.65,268.94zm531.63 1216.11c-68.33,0 -131.41,16.99 -188.94,51.31 -57.21,34 -104.93,83.03 -142.52,147.1 -41.51,69.62 -73.87,147.09 -96.75,232.73 -23.21,85.64 -34.65,171.61 -34.65,257.9 0,113.76 25.17,202.34 75.84,266.4 50.33,63.75 120.61,95.78 210.83,95.78 73.87,0 142.52,-23.86 205.27,-71.91 63.09,-47.72 116.37,-116.7 159.85,-205.93 33.01,-70.28 58.84,-145.14 77.46,-224.89 18.63,-79.44 27.79,-155.6 27.79,-228.48 0,-103.96 -25.17,-183.38 -75.19,-237.97 -50.33,-54.58 -123.22,-82.04 -218.99,-82.04z"/>
    <path id="1" class="fil3" d="M2539.96 1282.21c-113.64,-14.89 -193.41,-143.76 -153.37,-262.45 9.22,-27.24 38.34,-74.73 55.83,-89.23 60.39,25.95 135.55,76.7 194.49,102.87 11.12,4.94 23.23,6.81 33.38,11.7l-130.33 237.11zm-928.69 1250.66c0,-115.05 16.02,-228.48 48.38,-340.6 32.36,-112.12 78.78,-214.76 139.25,-307.92 3.64,-5.67 7.33,-11.27 11.08,-16.78 0.11,-97.34 0.41,-194.72 -0.04,-292.03 -0.44,-97.47 -34.35,-208.03 -57.01,-297.57 -22.82,-90.23 -54.25,-194.64 -61.48,-289.11 -8.5,-110.7 -6.65,-234.06 -9.2,-346.17 -1.36,-59.51 -11.44,-298.36 -3.93,-337.81 14.54,-76.47 86.88,-116.86 155.89,-105.82 27.08,4.34 43.72,17.56 63.31,26.25 26.44,-80.75 42.88,-132.09 113.27,-161.22 53.75,-22.22 115.46,-14.57 161.69,19.51 16.49,12.15 20.52,21.7 34.31,33.46 22.63,-47.32 23.72,-59.92 61.11,-88.02 102.71,-77.21 267.83,6.9 243.94,149.8 -5.32,31.83 -26.57,79.18 -38.33,110.94 -16.13,43.43 -116.82,309.84 -121.16,330.19 78.35,-9.62 116.39,-14.74 195.28,5.72 57.51,14.89 111.66,39.74 157.33,65.21 91.36,50.88 179.95,106.97 160.05,222.12 -2.92,16.89 -10.17,30.2 -13.11,43.66 34.44,16.8 63.63,19.55 95.34,71.16 55.16,89.79 -3.48,160.23 -44.08,249.49 -61.72,135.72 -117.57,345.07 -231.78,455.68l3.54 3.6c85.97,88.26 128.79,210.83 128.79,367.07 0,114.41 -13.4,225.88 -39.88,334.4 -26.48,108.52 -65.37,211.49 -117.34,309.22 -64.4,120.62 -142.53,211.49 -234.05,272.94 -91.52,61.13 -195.8,91.85 -312.82,91.85 -153.63,0 -273.59,-50.99 -359.56,-152.65 -85.96,-101.99 -128.79,-244.18 -128.79,-426.57zm271.74 -755.54c41.05,-42.32 86.48,-76.83 136.2,-103.48 86.96,-46.75 186.97,-69.95 299.74,-69.95 113,0 207.78,24.6 284.33,73.94 60.16,-80.6 125.23,-221.29 152.95,-268.78 42.39,-65 87,-180.82 129.69,-261.57 37.44,-70.81 -32.05,-146.54 -106.32,-115.5 -30.63,12.78 -40.3,39.68 -57.08,70.76 -30.39,56.37 -60.97,109.56 -91.82,164.19 -40.86,72.35 -52.19,112.68 -157.96,71 -61.53,-24.22 -106,-67.94 -135.33,-120.75 -53.76,-96.81 -40.9,-210.49 22.73,-300.09 17.7,-24.93 30.64,-53.4 68.34,-59.14 59.87,-9.13 205.44,112.62 266.96,116.79 75.93,5.17 127.52,-74.91 83.95,-141.81 -12.46,-19.14 -48.04,-41.49 -71.71,-56.22 -122.61,-76.28 -252.34,-126.9 -392.64,-66.28 -37.6,16.24 -68.38,-15.75 -54.11,-54.18l173.96 -469.36c28.72,-77.55 -50.24,-143.59 -118.58,-103.22 -29.65,17.52 -34.21,40.52 -48.74,79.11 -11.93,31.66 -23.48,61.13 -35.14,92.96 -45.59,124.6 -93,249.44 -140.33,374.76 -12.44,32.91 -58.14,171.16 -75.79,183.41 -22.17,15.38 -73.3,3.7 -49.62,-55.59 59.16,-148.12 117.82,-316.57 175.72,-467.74 11.98,-31.25 30.76,-67.01 18.81,-104.31 -23.16,-72.32 -118.9,-82.66 -159.64,-27.33 -25.19,34.16 -196.93,560.27 -234.76,667.34 -16.88,47.81 -3.4,181.01 7.58,234.98 14.16,69.61 33.63,138.96 50.55,208.11 8.66,35.44 17.14,67.75 25.62,103.01l24.71 100.91c0.16,-0.44 0.68,1.55 1.11,2.24 -3.21,18.12 4.73,56.53 5.42,78.67 0.82,26.28 1.39,125.73 1.2,223.12zm-128.69 -1142.42c-2.96,-79.69 -4.08,-159.66 -5.77,-239.15 -0.78,-37.02 -6.9,-82.47 14.89,-106.16 19.95,-21.69 61.69,-28.73 87.8,-6.54 28.65,24.3 10.52,46.47 -2.27,82.91 -8.32,23.79 -85.94,256.42 -94.65,268.94zm531.63 1216.11c-68.33,0 -131.41,16.99 -188.94,51.31 -57.21,34 -104.93,83.03 -142.52,147.1 -41.51,69.62 -73.87,147.09 -96.75,232.73 -23.21,85.64 -34.65,171.61 -34.65,257.9 0,113.76 25.17,202.34 75.84,266.4 50.33,63.75 120.61,95.78 210.83,95.78 73.87,0 142.52,-23.86 205.27,-71.91 63.09,-47.72 116.37,-116.7 159.85,-205.93 33.01,-70.28 58.84,-145.14 77.46,-224.89 18.63,-79.44 27.79,-155.6 27.79,-228.48 0,-103.96 -25.17,-183.38 -75.19,-237.97 -50.33,-54.58 -123.22,-82.04 -218.99,-82.04z"/>
   </g>
  </g>
 </g>
</svg>
