<?xml version="1.0" encoding="UTF-8"?>
<!DOCTYPE svg PUBLIC "-//W3C//DTD SVG 1.1//EN" "http://www.w3.org/Graphics/SVG/1.1/DTD/svg11.dtd">
<!-- Creator: CorelDRAW -->
<svg xmlns="http://www.w3.org/2000/svg" xml:space="preserve" width="16.9332mm" height="16.9332mm" style="shape-rendering:geometricPrecision; text-rendering:geometricPrecision; image-rendering:optimizeQuality; fill-rule:evenodd; clip-rule:evenodd"
viewBox="0 0 16.9332 16.9332"
 xmlns:xlink="http://www.w3.org/1999/xlink">
 <defs>
  <style type="text/css">
   <![CDATA[
    .fil1 {fill:#045D89}
    .fil2 {fill:#065A86}
    .fil17 {fill:#083A55}
    .fil7 {fill:#095A86}
    .fil6 {fill:#0A5674}
    .fil4 {fill:#0A5C83}
    .fil11 {fill:#0C557C}
    .fil16 {fill:#14526C}
    .fil10 {fill:#145474}
    .fil15 {fill:#8C8C8B}
    .fil14 {fill:#8E8E8E}
    .fil13 {fill:#939393}
    .fil8 {fill:#949493}
    .fil9 {fill:#959595}
    .fil5 {fill:#969694}
    .fil0 {fill:#979797}
    .fil3 {fill:#989898}
    .fil12 {fill:#999996}
   ]]>
  </style>
 </defs>
 <g id="Capa_x0020_1">
  <metadata id="CorelCorpID_0Corel-Layer"/>
  <path class="fil0" d="M5.4266 16.389l0.1096 -0.1102 -0.0592 -0.1168 0.1867 0.0464c-0.0369,0.0809 -0.0769,0.0213 0.0453,0.2232l0.1201 -0.1555c0.0267,0.0257 0.108,-0.0236 0.0096,0.1813l0.1287 0.1455 -0.4319 -0.1325 -0.0198 -0.0987c-0.0354,0.0378 -0.0148,0.004 -0.0891,0.0173zm-1.1714 -0.6955c-0.1703,-0.04 -0.34,-0.2009 -0.4823,-0.2855 -0.1393,-0.0826 -0.337,-0.2046 -0.4006,-0.3108 0.2401,0.1212 0.7519,0.3955 0.8829,0.5963zm2.4595 0.4893c-1.171,-0.3395 -1.5959,-0.452 -2.6409,-1.0956 -0.4131,-0.2543 -0.7228,-0.5326 -1.0456,-0.8282 -0.9783,-0.8961 -1.7094,-2.0336 -2.0856,-3.398 -0.3331,-1.2078 -0.2636,-2.0219 -0.1121,-3.2529l-0.6987 0.2793c-0.1307,0.105 -0.0544,0.0463 -0.0814,0.3039 -0.092,0.8774 -0.0467,0.9378 0.0437,1.8543 0.029,-0.2489 -0.0279,-0.3849 0.0213,-0.7862l0.0384 -0.349 0.0523 0.4763c0.0022,0.1138 0.0011,0.2236 0.0087,0.3381l0.141 0.8808c0.1208,0.6524 -0.38,0.0294 0.2638,1.5632 0.3465,0.8256 0.1143,0.2972 0.4853,0.9077 -0.064,-0.2963 -0.3929,-0.4796 -0.6497,-1.8421 0.1008,0.1237 0.131,0.1746 0.1219,0.2588 -0.0182,0.1669 0.0251,0.243 0.1092,0.4626 0.0693,0.1811 0.0498,0.2511 0.1911,0.3726 0.2511,0.2161 0.0512,0.0684 0.0923,0.3177 0.0635,-0.0271 -0.003,0.0066 0.0754,-0.0368 0.0518,-0.0287 0.0207,0.062 0.0542,-0.0334 0.0048,-0.0137 0.0184,-0.013 0.0276,-0.0195l0.2408 0.363 0.1815 0.1738c-0.1504,0.0742 -0.127,-0.0063 -0.1437,-0.0484l-0.0343 0.0942 0.2812 0.4952c0.0047,0.0066 0.0113,0.0155 0.0163,0.0218 0.0049,0.0062 0.0127,0.0143 0.0179,0.0202 0.5485,0.6105 0.5501,0.8083 1.39,1.5005l0.3345 0.2722c0.0064,-0.0005 0.0162,-0.0127 0.0177,-0.0073 0.0029,0.0112 -0.0101,-0.036 0.0639,-0.02 0.0617,0.0133 0.0482,0.0347 0.1127,0.0676 0.1554,0.0793 -0.0527,-0.0225 0.1483,0.0474l0.7597 0.4265c-0.3343,-0.0312 -0.5138,-0.3514 -0.6732,-0.3219l-0.0272 0.0079c-0.0239,0.115 -0.0984,0.0002 0.2552,0.2145 0.1663,0.1008 0.9838,0.4596 1.1408,0.4781 0.1125,0.0131 0.0569,-0.0276 0.2176,0.0473 0.0648,0.0958 -0.0096,0.0383 0.1321,0.1063 0.2239,0.1075 1.1216,0.3252 1.3676,0.3882l0.0392 -0.1194c0.2504,0.0027 0.5485,0.1157 0.9012,0.1328 0.5896,0.0286 0.9154,0.0497 1.5218,0.026 0.279,-0.0109 0.9731,-0.2322 1.2604,-0.3109l0 0.1066c0.0714,-0.01 0.128,-0.0183 0.1943,-0.0343l0.175 -0.0507c0.6521,-0.1466 0.4523,-0.1049 1.1348,-0.4289l-0.1768 -0.0698 0.5382 -0.2338 0.0166 0.1396c0.1423,-0.0638 0.3383,-0.1768 0.4553,-0.2558 0.1645,-0.111 0.2995,-0.1516 0.4805,-0.2857 0.11,-0.0816 0.5423,-0.3975 0.6163,-0.4905 0.1891,-0.2371 0.1384,-0.0783 0.463,-0.5665l0.7231 -0.7563c0.03,0.0173 0.0863,0.0345 0.1366,0.0027 0.2215,-0.1397 0.6461,-1.1241 0.749,-1.3557 0.1519,-0.3414 0.1941,-0.5148 0.3005,-0.898 0.1236,-0.4453 0.0253,-0.2132 0.0482,-0.482 0.0068,-0.0801 0.0413,-0.1661 0.0496,-0.2418 0.0196,-0.1762 -0.029,-0.1947 -0.0513,-0.2327 0.0584,-0.1064 0.2272,0.122 -0.0769,-0.3447l0.2037 0.1719c-0.0308,-0.1793 -0.0113,-0.4343 -0.0869,-0.8898l-0.0492 0.1649c-0.0207,-0.2959 -0.0352,-0.5727 -0.0665,-0.8625l-0.1236 -0.7346c0.0009,-0.0073 0.0049,-0.0189 0.0064,-0.0252l0.0213 -0.0475 0.3534 0.9839c0.0228,-0.0813 0.0095,-0.0892 0.0477,-0.1905 0.0041,-0.0111 0.0082,-0.0197 0.0126,-0.0308 0.1158,-0.291 0.0874,-0.2759 -0.007,-0.6335 -0.0569,-0.2159 -0.008,-0.242 -0.0256,-0.414 -0.0531,-0.5198 -0.4682,-1.4847 -0.6618,-2.0081 0.0163,0.1417 0.0392,0.1654 0.0918,0.2817 0.0725,0.1605 0.0457,0.1811 0.0906,0.3193 0.1175,0.3618 0.0909,0.1222 0.099,0.5909 -0.0649,-0.198 -0.0695,-0.3684 -0.1258,-0.5255l-0.2575 -0.5937c-0.0601,0.0032 -0.0144,-0.0101 -0.0948,0.0112 -0.0431,0.0114 -0.1252,0.0558 -0.1668,0.0775l-0.2702 0.1639 0.2964 0.7474 0.4669 -0.1248c-0.2489,0.5593 -0.4165,0.1868 -0.2432,0.8255 0.2728,1.0056 0.242,2.3004 -0.0045,3.2899 -0.3457,1.3885 -1.0265,2.524 -2.0417,3.5118 -0.1141,0.111 -0.2111,0.1791 -0.3219,0.2882 -0.5537,0.5453 -1.6782,1.1072 -2.4083,1.3928 -1.4505,0.5675 -2.8446,0.5412 -4.4447,0.3088z"/>
  <path class="fil1" d="M14.7374 11.093c-0.0348,0.1337 0.0209,0.1195 -0.154,0.0977 -0.0266,-0.1762 0.0185,-0.1782 0.154,-0.0977zm-1.8793 -1.6042c-0.0672,0.2052 0.3088,0.3088 0.3929,0.7317l-0.7693 -0.3927c0.1285,0.2768 0.3844,0.9246 0.6009,1.1471l0.1164 0.1334c0.1542,0.0629 0.5749,0.5802 0.703,0.7244l0.5087 -0.0307 0.1959 0.4335c0.3142,0.0064 -0.0143,-0.0973 0.5094,-0.0081 0.316,-0.3713 0.6567,-1.6107 0.7558,-2.2404l-0.168 -2.7122c-0.1472,0.0361 -0.2116,0.1736 -0.4398,0.3647 -0.8198,0.6867 -1.2003,0.6083 -1.5704,0.8698l1.2857 0.1957c-0.0324,0.1232 -0.2824,0.213 -0.4079,0.2783 -0.1666,0.0866 -0.3473,0.1829 -0.4899,0.2406 -0.1869,0.0756 -1.0679,0.2848 -1.2234,0.2649z"/>
  <path class="fil0" d="M10.5165 1.9436c0.2611,0.1337 1.0882,0.3282 1.7542,0.7244l0.9104 0.5602c0.0738,-0.0866 0.113,-0.1434 0.1856,-0.2326 0.1077,-0.1322 0.0931,-0.1383 0.2422,-0.2521 0.0114,0.8958 -0.0829,0.7714 0.2517,1.0905l0.6069 0.6784 0.7822 0.0292c-0.089,-0.1313 -0.0661,-0.0441 -0.1463,-0.1424 -0.1014,-0.1244 0.0046,-0.0584 -0.1187,-0.1826l-0.2945 -0.2769c-0.3723,-0.3711 -0.0088,-0.2746 -0.572,-0.4936l0.1122 -0.0206 -0.1739 -0.1482c0.0057,-0.0024 0.0167,-0.0057 0.0187,0.0003l0.1459 -0.0003c-0.0508,-0.1268 -0.1417,-0.1512 -0.2885,-0.2533 -0.0243,-0.0169 -0.1444,-0.1046 -0.148,-0.1114 -0.041,-0.078 -0.0445,0.015 0.0279,-0.0715l0.0295 -0.0293 -0.2869 -0.2368 -0.2058 0.1014 0.0426 -0.1755 -0.1543 0.0376c-0.0481,-0.2084 -0.1091,-0.152 -0.3199,-0.2193 -0.3606,-0.1149 -0.2046,-0.0227 -0.378,-0.0854l-0.8001 -0.3171c0.0783,-0.0552 0.1675,-0.0051 0.4382,0.0704 0.2508,0.0699 0.2146,0.0137 0.407,0.1711l-0.3956 -0.2852 0.2162 -0.0033c-0.2506,-0.3749 -1.302,-0.5507 -1.8352,-0.6809l-0.0537 0.7548z"/>
  <path class="fil2" d="M10.1315 3.469c0.2187,0.0521 0.3638,0.0364 0.5853,0.1116 0.5561,0.1888 0.695,0.4403 1.1861,0.9242l1.1106 -1.1164c-0.31,-0.4871 -1.9459,-1.0113 -2.5213,-1.2183 -0.0613,0.153 -0.0839,0.4984 -0.1395,0.6836 -0.0597,0.1991 -0.2008,0.4419 -0.2212,0.6153z"/>
  <path class="fil3" d="M1.9166 6.0264c0.1067,0.0308 0.2291,0.1574 0.3269,0.2319 0.1394,0.1065 0.1922,0.1327 0.3481,0.2274 0.249,0.1512 0.491,0.3017 0.8079,0.3962l0.0745 -0.0408 0.6224 0.131 -0.6392 -0.3078 0.694 0.1641 -0.6175 -0.3236 0.5486 0.1244c-0.4792,-0.1094 -2.2041,-0.9451 -2.5733,-1.4538 -0.2794,-0.3849 -0.3465,-1.1385 -0.2859,-1.6683l0.4306 -1.5816c0.075,0.0602 0.2357,0.3003 0.3353,0.4252 -0.0614,-0.1664 -0.1383,-0.2736 -0.2633,-0.6347 -0.1854,0.1709 -0.3991,0.8061 -0.4633,1.0251 -0.7233,2.4693 0.3941,2.845 0.6542,3.2853z"/>
  <path class="fil4" d="M10.4136 12.9486l1.9366 -0.4286c0.004,0.0095 0.0071,0.0148 0.0072,0.03 0.0002,0.0148 0.0055,0.023 0.0053,0.0296 -0.0002,0.0064 0.0024,0.0213 0.0015,0.029 -0.0115,0.1076 -0.1495,0.2373 -0.2343,0.3348l0.8758 -0.2988c-0.1035,0.103 -1.544,0.8597 -1.8119,1.0077 0.1294,-0.0258 2.8021,-1.1782 3.1891,-1.338l-0.0256 -0.2524c-0.8542,-0.1956 -3.5144,0.5207 -3.9437,0.8867z"/>
  <path class="fil3" d="M4.7432 3.8097l0.0046 -0.6546c0.0972,0.067 0.135,0.1546 0.1921,0.2581 0.08,0.145 0.0815,0.1733 0.1991,0.2833l-0.1686 -0.6094 0.3089 0.4425c0.0158,-0.2115 0.0391,-0.4455 -0.0696,-0.6309 -0.1154,-0.1968 -0.606,-0.8363 -0.7588,-1.0226 -0.2801,-0.3413 -1.5061,-1.053 -1.9498,-1.3399 0.1055,0.123 0.2413,0.219 0.3655,0.3196 0.5512,0.4467 1.187,1.3602 1.5136,1.9791 0.0724,0.1373 0.3756,0.866 0.363,0.9748z"/>
  <path class="fil4" d="M9.7625 14.6313c0.8913,-0.2916 1.8124,-0.6817 2.7391,-1.011 0.4516,-0.1606 0.9538,-0.3192 1.4359,-0.4547 0.2083,-0.0585 0.5716,-0.0951 0.7086,-0.2211 0.0383,-0.0352 0.3888,-0.4881 0.3157,-0.5649 -0.1096,-0.1154 -0.5567,0.1093 -0.6983,0.1665 -0.2233,0.0903 -0.4403,0.1752 -0.6826,0.2816 -1.2184,0.5352 -2.0274,0.9142 -3.2114,1.4839 -0.2051,0.0987 -0.444,0.2466 -0.607,0.3197z"/>
  <path class="fil3" d="M8.3367 2.1018l0.0226 -0.7324 0.1212 0.5802 -0.09 -1.4256c0.1408,0.0539 0.0214,0.0034 0.1011,0.0451 0.5777,0.3024 0.7295,0.5191 0.8751,1.2195l0.3231 1.8773c0.8108,0.1069 1.651,0.3717 1.9967,1.0752l0.2947 0.7213c0.1582,-0.1681 0.0991,-0.3129 -0.122,-0.698 -0.2179,-0.3796 -0.6816,-0.9013 -1.1361,-1.0392l-0.9255 -0.1973c-0.1081,-0.1938 -0.2072,-1.774 -0.3782,-2.2724 -0.2521,-0.7349 -0.7472,-0.8643 -1.4813,-1.2556 0.0668,0.3327 0.1851,0.6761 0.2589,1.0006 0.0729,0.321 0.0111,0.861 0.1397,1.1013z"/>
  <path class="fil3" d="M0.1101 7.8299c0.1743,-0.0761 0.3213,-0.1812 0.4998,-0.2631 0.3309,-0.1517 0.2402,-0.0536 0.3419,-0.4198 0.1104,-0.3971 0.2294,-0.7053 0.4064,-1.062 0.1616,-0.4871 0.2153,0.0079 -0.3158,-1.096l-0.9775 2.8814c0.1077,-0.0454 0.0135,0.0215 0.0452,-0.0405z"/>
  <path class="fil3" d="M12.8069 5.2381l0.3597 -0.0656c-0.0998,0.1881 -0.2024,0.1964 -0.5137,0.4271l0.5661 -0.2205 -0.3365 0.2549c0.7558,-0.2631 1.7097,-0.6366 2.6262,-0.563l0.9228 0.1176c-0.1875,-0.084 -0.1947,-0.2062 -0.7492,-0.369 -0.8909,-0.2615 -2.2207,0.0203 -2.8754,0.4185z"/>
  <path class="fil4" d="M14.0701 6.7591c0.3082,0.2066 1.0855,0.025 1.4511,-0.037l-0.2876 -0.6898c-0.3107,0.1381 -0.9511,0.5296 -1.1635,0.7268z"/>
  <path class="fil1" d="M7.528 12.3634c0.1323,-0.045 0.0565,-0.0472 0.2053,0.0012l-0.2076 0.1969c-0.0761,-0.2836 -0.0182,-0.153 0.0023,-0.1981zm-5.6946 -5.2097l1.2145 -0.2313c-0.0367,-0.0439 -0.0155,-0.0244 -0.0652,-0.0635l-0.2412 -0.1436c-0.2771,-0.1592 -0.7554,-0.4487 -0.9427,-0.6388l-0.2173 -0.1395 -0.1018 0.1306 -0.4224 1.2839c0.1031,-0.0015 0.5195,-0.1052 0.659,-0.1499 0.1117,-0.0357 0.0371,0.0043 0.1171,-0.0479zm3.8379 2.9389c-0.0913,-0.1464 0.0084,-0.2595 0.0697,-0.4171l0.0763 -0.4591c-0.7214,-0.0785 -0.4017,0.3752 -0.9265,-0.4187 -0.3539,0.0566 -0.6202,0.7954 -0.7467,1.0733 -0.1128,-0.2032 0.3634,-0.9695 0.4556,-1.1275 -0.2828,0.3201 -0.244,0.1725 -0.4965,0.8295l-0.379 0.9524c-0.077,-0.1059 -0.1516,-0.3212 -0.2055,-0.4728 -0.0392,-0.1102 -0.0259,-0.1186 -0.0915,-0.1669 0.0079,-0.0766 -0.1521,-0.8801 -0.1843,-1.0857 -0.3507,-0.0538 -1.7858,0.4152 -2.2217,0.5427 0.1087,-0.2748 0.6935,-0.9846 0.8558,-1.1702l1.1963 -0.9146 -0.0973 -0.029c-0.7444,-0.0379 -1.3002,0.1259 -1.9482,0.2934 -0.2641,0.7339 -0.2134,1.9743 -0.0694,2.7606 0.0974,0.532 0.5812,2.0128 0.8947,2.243 0.028,0.1649 0.4398,0.6925 0.557,0.8366 0.4566,0.561 1.8246,1.8024 2.2801,1.8281 0.2728,-0.0377 0.0424,0.0841 0.4336,0.0141l-0.2718 -0.0657 -0.0415 -0.2306c0.2018,-0.052 0.0923,0.0062 0.2741,-0.1077 0.0467,0.0903 0.0049,0.2255 0.1624,0.0828 0.0072,-0.0066 0.0268,-0.0373 0.03,-0.0474 0.0577,-0.1864 -0.0953,-0.1721 -0.0955,-0.1721 -0.3015,-0.1243 -0.0598,0.1652 -0.4221,-0.0151 0.0342,-0.0356 0.0555,-0.0073 0.1703,-0.1437 0.0749,-0.0889 0.04,-0.0827 0.1551,-0.0783l-0.0004 -0.0745c0.1282,0.0086 0.317,-0.0831 0.5082,0.3153 0.0297,0.0621 0.0328,0.2042 0.0406,0.2777 0.1583,-0.146 0.0219,-0.3429 -0.006,-0.5491 -0.0312,-0.2309 0.0471,-0.1467 -0.1462,-0.2309l-0.071 -0.0352c-0.0686,-0.2543 -0.0449,-0.2452 0.0275,-0.5182 0.3233,0.0473 0.126,0.0431 0.2031,0.0994 0.0674,0.0493 -0.0615,0.0187 0.1304,0.0541l0.2463 0.2166c0.0615,0.0323 0.0116,-0.0443 0.2819,0.111l-0.235 0.0741c-0.2379,-0.1174 -0.0386,-0.1814 -0.3916,-0.0739l0.1533 0.0791c0.0091,0.0048 0.0197,0.0108 0.0278,0.0155l0.0536 0.0315c0.0012,0.1777 -0.173,0.3179 -0.0241,0.3634 0.1298,0.0396 -0.0064,0.0644 0.1809,-0.1192 0,0.2658 -0.0167,0.3549 -0.0538,0.5889 0.0316,-0.1818 0.0926,-0.4102 0.1367,-0.5836l0.5523 -0.106c0.0713,-0.1978 0.1201,-0.4935 0.1631,-0.5173l0.8639 -0.2128 0.0952 -0.0986c0.1397,-0.1274 0.2503,-0.2117 0.4348,-0.2922 0.436,-0.1901 0.8083,-0.1613 0.7343,-1.1501 -0.0156,-0.2079 -0.0518,-0.1876 -0.1577,-0.317l-0.1433 -0.3316c-0.4589,-0.0432 -0.6877,0.1367 -1.051,0.0796 -0.3346,-0.0526 -0.3556,-0.4055 -0.5298,-0.6022 -0.1386,-0.1564 -0.2252,-0.0992 -0.3757,-0.2017 -0.2199,-0.1497 0.0098,-0.1473 -0.2866,-0.2804 -0.3185,-0.1429 0.0515,-0.2406 -0.2638,-0.3139 -0.0146,-0.0034 -0.5053,-0.0327 -0.5114,-0.0321zm-2.447 0.7968l0.0133 -0.2121 0.173 -0.0028 -0.0012 0.2025c-0.0327,0.0178 0.0382,0.0814 -0.1851,0.0124zm-1.2904 -0.352c0.0227,-0.0344 -0.031,-0.1599 0.1891,0 -0.0361,0.0267 0.054,0.0644 -0.096,0.0507 -0.1302,-0.0118 -0.0167,0.013 -0.0931,-0.0507zm3.3466 1.809c0.1948,0.1934 0.0245,0.1563 0,0.1694 -0.1509,-0.1545 -0.0006,-0.1686 0,-0.1694zm-0.5903 2.8442c0.1228,0.1611 0.8919,0.4674 1.0472,0.48l0.2729 -0.6181c0.0371,-0.234 0.0538,-0.3231 0.0538,-0.5889 -0.1873,0.1836 -0.0511,0.1588 -0.1809,0.1192 -0.1489,-0.0455 0.0253,-0.1857 0.0241,-0.3634l-0.0536 -0.0315c-0.0081,-0.0047 -0.0187,-0.0107 -0.0278,-0.0155l-0.1533 -0.0791c0.353,-0.1075 0.1537,-0.0435 0.3916,0.0739l0.235 -0.0741c-0.2703,-0.1553 -0.2204,-0.0787 -0.2819,-0.111l-0.2463 -0.2166c-0.1919,-0.0354 -0.063,-0.0048 -0.1304,-0.0541 -0.0771,-0.0563 0.1202,-0.0521 -0.2031,-0.0994 -0.0724,0.273 -0.0961,0.2639 -0.0275,0.5182l0.071 0.0352c0.1933,0.0842 0.115,0 0.1462,0.2309 0.0279,0.2062 0.1643,0.4031 0.006,0.5491 -0.0078,-0.0735 -0.0109,-0.2156 -0.0406,-0.2777 -0.1912,-0.3984 -0.38,-0.3067 -0.5082,-0.3153l0.0004 0.0745c-0.1151,-0.0044 -0.0802,-0.0106 -0.1551,0.0783 -0.1148,0.1364 -0.1361,0.1081 -0.1703,0.1437 0.3623,0.1803 0.1206,-0.1092 0.4221,0.0151 0.0002,0 0.1532,-0.0143 0.0955,0.1721 -0.0032,0.0101 -0.0228,0.0408 -0.03,0.0474 -0.1575,0.1427 -0.1157,0.0075 -0.1624,-0.0828 -0.1818,0.1139 -0.0723,0.0557 -0.2741,0.1077l0.0415 0.2306 0.2718 0.0657c-0.3912,0.07 -0.1608,-0.0518 -0.4336,-0.0141zm-1.4659 -4.3012c0.2233,0.069 0.1524,0.0054 0.1851,-0.0124l0.0012 -0.2025 -0.173 0.0028 -0.0133 0.2121zm4.3037 1.474c-0.0205,0.0451 -0.0784,-0.0855 -0.0023,0.1981l0.2076 -0.1969c-0.1488,-0.0484 -0.073,-0.0462 -0.2053,-0.0012zm-2.2475 0.1524c0.0245,-0.0131 0.1948,0.024 0,-0.1694 -0.0006,0.0008 -0.1509,0.0149 0,0.1694zm-3.1575 -1.9784c-0.2201,-0.1599 -0.1664,-0.0344 -0.1891,0 0.0764,0.0637 -0.0371,0.0389 0.0931,0.0507 0.15,0.0137 0.0599,-0.024 0.096,-0.0507zm-2.0216 -0.1837c0.028,-0.04 0.0823,0.0677 0.0067,-0.1916 -0.0294,0.0181 -0.1366,-0.0913 -0.0067,0.1916z"/>
  <path class="fil3" d="M2.8692 2.9503l0.5611 0.434 0.6004 -0.4033 -0.2355 -0.5945c-0.2416,0.0384 -0.7603,0.4215 -0.926,0.5638z"/>
  <path class="fil3" d="M10.4093 1.9113l0.1135 -0.7335c-0.2357,-0.0236 -0.3998,-0.0798 -0.8578,-0.1259 0.0987,0.7975 0.1267,0.7526 0.3748,0.8023 0.1464,0.0293 0.2224,0.0574 0.3695,0.0571z"/>
  <path class="fil5" d="M15.0089 6.9636l0.4594 0.0548c-0.1446,0.3752 -1.051,0.9254 -1.6335,1.1217 -0.3203,0.1079 -0.3765,0.0834 -0.5562,0.1292 -0.1039,0.0265 -0.092,0.0307 -0.1855,0.1029 0.3186,0.0749 0.548,-0.0315 0.8687,-0.149 0.9923,-0.3638 1.2355,-0.6843 1.8761,-1.405 -0.12,-0.0003 -0.5849,0.1241 -0.829,0.1454z"/>
  <path class="fil6" d="M6.5514 14.7025l0.4141 -0.0735c0.0382,-0.1063 -0.0172,-0.0743 0.0742,-0.1655l0.0267 -0.4614 0.7259 -0.1681c-0.1838,-0.0776 -0.195,-0.0671 -0.4511,-0.0199 -0.1772,0.0327 -0.2857,0.0301 -0.3882,0.131l-0.1253 0.5342 -0.6625 0.5995c-0.0443,0.2143 -0.0506,0.2805 -0.1373,0.4661 -0.1001,0.2141 -0.0839,0.2428 0.2031,0.2517l0.1305 -0.5534c0.0418,-0.3373 -0.1078,-0.4931 0.1899,-0.5407z"/>
  <path class="fil7" d="M9.9187 3.2144c0.1073,-0.0515 0.1194,-0.0482 0.1956,-0.2214 0.1378,-0.3132 0.1588,-0.5567 0.2272,-0.9045l-0.5004 -0.0797 0.0776 1.2056z"/>
  <path class="fil8" d="M7.7066 1.7157l0.2071 -0.0201c0.1408,-0.3738 -0.0576,-0.4428 -0.2436,-0.5876l0.1954 -0.0543 -0.5896 0.1205 -0.0818 0.1063c0.1036,0.0573 0.1614,0.1249 0.2464,0.2148 0.1306,0.1382 0.1123,0.2044 0.2661,0.2204z"/>
  <path class="fil9" d="M1.4531 8.9623c0.0856,-0.1548 0.7043,-0.7187 0.8312,-0.8117l1.0265 -0.6729 -0.2144 0.0341 0.0862 -0.1087c-0.5364,0.1412 -1.4776,1.0103 -1.7295,1.5592z"/>
  <path class="fil10" d="M12.6088 13.9343c-0.0372,0.0352 0.0159,0.0282 -0.1803,0.1045 0.2182,-0.0105 0.5826,-0.1205 0.7976,-0.1761 0.2913,-0.0753 0.5584,-0.1132 0.863,-0.1557l0.2272 -0.3409c-0.3045,-0.0019 -1.5024,0.5766 -1.7075,0.5682z"/>
  <path class="fil11" d="M14.086 4.3146c-0.0692,-0.0752 -0.2995,-0.3798 -0.459,-0.4332 -0.0666,0.084 -0.1693,0.6356 -0.1566,0.7644l0.0848 0.0229c0.2219,0.0657 0.3279,-0.0065 0.7228,-0.132 -0.0514,-0.1325 0.0044,-0.0296 -0.0691,-0.0998 -0.0063,-0.0059 -0.016,-0.0111 -0.0228,-0.0175l-0.1001 -0.1048z"/>
  <path class="fil10" d="M12.4902 15.0192c0.1148,-0.1352 0.1387,-0.0836 0.2241,-0.2464l-0.2484 0.0238c-0.1288,0.0977 -0.3306,0.1414 -0.4992,0.2448 -0.1961,0.1201 -0.3305,0.2145 -0.4129,0.3868 0.3075,-0.0507 0.8216,-0.4133 0.9364,-0.409z"/>
  <path class="fil12" d="M4.9431 8.2636l-0.0913 -0.0228c0.053,0.1874 0.1417,0.4265 0.2262,0.6014l0.6386 0.1839c-0.4541,-0.4739 -0.266,0.165 -0.7181,-0.9396 -0.0561,0.0863 -0.0418,0.0466 -0.0554,0.1771z"/>
  <path class="fil13" d="M12.3618 10.0259c0.4609,0.9588 0.349,0.8209 0.3389,1.9766 0.2628,-0.0035 0.1694,-0.1981 0.1549,-0.428 -0.0127,-0.2032 -0.0242,-0.4037 -0.04,-0.6041 -0.0651,-0.4165 -0.3302,-0.6993 -0.4727,-0.9986l0.0189 0.0541z"/>
  <path class="fil11" d="M3.6487 3.4625c0.1299,0.141 0.4759,0.1993 0.6781,0.2545l-0.2159 -0.5525c-0.1872,0.0401 -0.3484,0.1849 -0.4622,0.298z"/>
  <path class="fil9" d="M6.5743 7.7309c0.0022,-0.9806 -0.0365,-0.6597 0.2137,-1.615 -0.1848,0.2091 -0.284,0.3423 -0.3212,0.6944 -0.0293,0.2769 -0.0244,0.7137 0.1075,0.9206z"/>
  <path class="fil14" d="M11.5644 12.2975c0.0935,-0.2142 -0.5984,-1.2447 -0.6982,-1.406l0.4653 1.1117c0.0736,0.1947 0.0305,0.3264 0.2329,0.2943z"/>
  <path class="fil0" d="M8.1062 2.7625c-0.0659,-0.1895 -0.2154,-0.3654 -0.3297,-0.5113 -0.1643,-0.2096 -0.6595,-0.7089 -0.846,-0.867 -0.0859,-0.0727 -0.1286,-0.1231 -0.216,-0.2028 -0.0847,-0.0773 -0.1614,-0.1232 -0.258,-0.2032l-2.943 -0.5352c0.6426,0.1634 1.861,-0.0389 2.8213,0.6519 0.3054,0.2197 1.0998,0.9143 1.3547,1.2012 0.1357,0.1529 0.2661,0.31 0.4167,0.4664z"/>
  <path class="fil13" d="M13.079 4.84c0.1917,-0.0687 0.1797,-0.0779 0.2399,-0.2585 0.1715,-0.5146 0.137,-0.7866 0.1714,-1.371 -0.1005,0.9433 -0.1819,0.8831 -0.4113,1.6295z"/>
  <path class="fil15" d="M3.6539 10.0459c-0.0032,-0.1524 -0.082,-0.4318 -0.1064,-0.6189l-0.0695 -0.7004c-0.0826,0.0247 -0.1391,-0.0947 -0.0875,0.3302 0.0523,0.4301 0.0921,0.5893 0.2634,0.9891z"/>
  <path class="fil16" d="M13.1335 14.1479c0.0271,-0.0063 0.2374,-0.0376 0.3383,-0.0474 0.1868,-0.0183 0.2708,0.0033 0.3121,-0.1232 0.0787,-0.0653 0.045,0.0561 0.0725,-0.0985 -0.2305,-0.0024 -0.8666,0.1711 -0.9792,0.2889l0.2563 -0.0198z"/>
  <path class="fil5" d="M13.5031 11.9209l0.2103 -0.0448c-0.0796,-0.2686 -0.4134,-0.5138 -0.6202,-0.6909 0.1271,0.1838 0.3521,0.4511 0.4099,0.7357z"/>
  <path class="fil16" d="M7.1005 15.6127c-0.1355,0.051 -0.3759,0.1075 -0.4979,0.1713l-0.0966 0.0668c-0.0038,-0.0068 -0.0145,0.0136 -0.0218,0.0205l0.7699 -0.2039 0.1422 -0.1282 -0.2958 0.0735z"/>
  <path class="fil0" d="M16.8794 9.3435c0.1223,-0.149 0.01,-0.4787 -0.0784,-0.6384 -0.004,0.0099 -0.0105,0.0137 -0.0115,0.0297 -0.001,0.0161 -0.0083,0.0226 -0.0094,0.0303 -0.0184,0.1403 0.0244,0.4937 0.0993,0.5784z"/>
  <path class="fil9" d="M5.7486 9.9358c0.127,-0.0458 0.1416,-0.0617 0.1833,-0.1918 0.0456,-0.1421 0.0334,-0.218 -0.0129,-0.3655l-0.1704 0.5573z"/>
  <path class="fil9" d="M5.7144 6.3405c-0.0523,-0.0771 -0.0442,-0.0875 -0.0536,-0.1938l0.047 2.2073c-0.2062,-0.5044 -0.2776,-0.3321 -0.1144,-1.0027l0.3128 -0.9996c-0.1185,-0.0845 0.0542,-0.0157 -0.1117,-0.0005l0.0744 -0.3385c-0.0933,0.0917 -0.1163,0.1775 -0.1545,0.3278z"/>
  <path class="fil17" d="M14.5834 11.1907c0.1749,0.0218 0.1192,0.036 0.154,-0.0977 -0.1355,-0.0805 -0.1806,-0.0785 -0.154,0.0977z"/>
 </g>
</svg>
