<?xml version="1.0" encoding="UTF-8"?>
<!DOCTYPE svg PUBLIC "-//W3C//DTD SVG 1.1//EN" "http://www.w3.org/Graphics/SVG/1.1/DTD/svg11.dtd">
<!-- Creator: CorelDRAW 2017 -->
<svg xmlns="http://www.w3.org/2000/svg" xml:space="preserve" width="16.2558mm" height="16.2558mm" version="1.1" style="shape-rendering:geometricPrecision; text-rendering:geometricPrecision; image-rendering:optimizeQuality; fill-rule:evenodd; clip-rule:evenodd"
viewBox="0 0 1625.58 1625.58"
 xmlns:xlink="http://www.w3.org/1999/xlink">
 <defs>
  <style type="text/css">
   <![CDATA[
    .fil2 {fill:#4288C0}
    .fil0 {fill:#5DACEB}
    .fil1 {fill:#8CCAF7}
    .fil3 {fill:#BCDBF3}
   ]]>
  </style>
 </defs>
 <g id="Capa_x0020_1">
  <metadata id="CorelCorpID_0Corel-Layer"/>
  <g id="_1442985729632">
   <path class="fil0" d="M804.54 1617.37l6.82 8.03c6.97,0.04 0.46,1.34 2.31,-3.42 11.4,-49.17 30.29,-96.32 44.99,-145.14 14.03,-46.62 30.24,-92.69 44.86,-140.27 28.64,-93.28 58.89,-190.25 89.3,-282.24l145.25 -459.21c3.7,-12.24 6.96,-21.29 11.45,-35.72 5.43,-17.46 19.2,-56.2 20.54,-70.61l-709.25 1.14c-9.26,2.94 -0.48,-2.42 -7.71,4.59 0.05,19.35 35,116.94 42.72,142.63l55.96 177.39c3.89,12.36 8.21,25.88 11.46,35.76 4.04,12.28 7.69,23.73 11.37,35.87 0.46,1.55 1.73,5.83 2.58,8.52 0.36,1.14 2.32,7.03 2.69,8.13 53.17,158.41 108.08,342.78 160.26,505.84l38.52 121.64c3.51,11.51 1.79,5.88 5.33,16.4l20.55 70.67z"/>
   <path class="fil1" d="M452.63 483.03l709.28 3.56c8.9,-2.09 5,-0.05 9.46,-4.9l-134.77 -481.29 -453.76 0c-1.44,16.34 -11.42,45.9 -15.59,60.92 -16.03,57.84 -113.53,398.18 -114.62,421.71z"/>
   <path class="fil2" d="M453.1 494.52c7.23,-7.01 -1.55,-1.65 7.71,-4.59l709.25 -1.14c-1.34,14.41 -15.11,53.15 -20.54,70.61 -4.49,14.43 -7.75,23.48 -11.45,35.72l-145.25 459.21c-30.41,91.99 -60.66,188.96 -89.3,282.24 -14.62,47.58 -30.83,93.65 -44.86,140.27 -14.7,48.82 -33.59,95.97 -44.99,145.14 14.62,-7.35 153.96,-213 178.52,-244.6l76.2 -106.88c16.79,-21.61 34.21,-49.13 50.99,-72.41 53.95,-74.89 155.98,-213.13 202.6,-283.03 32.65,-48.96 67.55,-94 100.79,-142.33l175.93 -246.51c10.64,-13.77 16.4,-22.77 26.89,-36.18l0 -3.73 -2.81 -1.32c-65.8,-3.39 -426.05,8.09 -451.41,-3.3 -4.46,4.85 -0.56,2.81 -9.46,4.9l-709.28 -3.56 -1.75 1.93 2.22 9.56z"/>
   <path class="fil1" d="M804.54 1617.37l-20.55 -70.67c-3.54,-10.52 -1.82,-4.89 -5.33,-16.4l-38.52 -121.64c-52.18,-163.06 -107.09,-347.43 -160.26,-505.84 -0.37,-1.1 -2.33,-6.99 -2.69,-8.13 -0.85,-2.69 -2.12,-6.97 -2.58,-8.52 -3.68,-12.14 -7.33,-23.59 -11.37,-35.87 -3.25,-9.88 -7.57,-23.4 -11.46,-35.76l-55.96 -177.39c-7.72,-25.69 -42.67,-123.28 -42.72,-142.63l-2.22 -9.56 -448 0.38 -2.89 1.39 0 2.98c17.4,22.92 33.43,44.35 50.52,69.13l150.95 211.68c67.47,93.5 132.85,188.71 200.35,282.24l352.13 492.58c7.63,10.55 17.21,23.86 24.68,35.32 7.14,10.97 19.42,28.42 25.92,36.71z"/>
   <path class="fil0" d="M1171.37 481.69c25.36,11.39 385.61,-0.09 451.41,3.3l-236.9 -367.3c-6.65,-10.35 -68.52,-114.91 -80.96,-117.7l-268.32 0.41 134.77 481.29z"/>
   <path class="fil3" d="M2.88 485.34l448 -0.38 1.75 -1.93c1.09,-23.53 98.59,-363.87 114.62,-421.71 4.17,-15.02 14.15,-44.58 15.59,-60.92l-262.17 -0.4c-10.05,2.31 -37.07,50.16 -43.23,60.06l-197.34 304.73c-19.18,31.14 -64.01,95.07 -77.22,120.55z"/>
  </g>
 </g>
</svg>
