<?xml version="1.0" encoding="UTF-8"?>
<!DOCTYPE svg PUBLIC "-//W3C//DTD SVG 1.1//EN" "http://www.w3.org/Graphics/SVG/1.1/DTD/svg11.dtd">
<!-- Creator: CorelDRAW 2017 -->
<svg xmlns="http://www.w3.org/2000/svg" xml:space="preserve" width="12.1918mm" height="12.1918mm" version="1.1" style="shape-rendering:geometricPrecision; text-rendering:geometricPrecision; image-rendering:optimizeQuality; fill-rule:evenodd; clip-rule:evenodd"
viewBox="0 0 1219.18 1219.18"
 xmlns:xlink="http://www.w3.org/1999/xlink">
 <defs>
  <style type="text/css">
   <![CDATA[
    .fil0 {fill:none}
    .fil1 {fill:#003871}
    .fil2 {fill:#17082F}
    .fil3 {fill:#3E4095}
    .fil4 {fill:#3F2E64}
   ]]>
  </style>
 </defs>
 <g id="Capa_x0020_1">
  <metadata id="CorelCorpID_0Corel-Layer"/>
  <rect class="fil0" x="-0" y="-0" width="1219.19" height="1219.19"/>
  <g id="_1911382655712">
   <path class="fil1" d="M357.1 603.19c-33.81,-81.97 -61.63,-121.17 -69.06,-245.41 -17.73,-295.64 148.28,-415.73 207.57,-89.13 21.32,117.44 6.83,173.15 -17.06,294.22l42.84 5.79c29.57,-94.4 90.24,-198.64 148.17,-241.79 47.57,-35.48 208.14,-79.33 289.64,-16.36 51.76,40.08 22.74,86.68 -29.06,104.67 -131.77,45.55 -119.03,59.79 -207.37,147.82 -38.59,38.49 -64.91,45.63 -103.83,77.12 9.73,37.17 54.41,94.78 9.55,180.83 -82.02,-50.26 -149.17,-87.49 -263.23,-70.66 -18.99,2.78 -27.92,6.89 -43.51,9.47 -83.14,14.61 3.4,-132.92 35.37,-156.73l0.01 0.12 -0.03 0.04z"/>
   <path class="fil2" d="M203.5 1101.56l-46 -64.3 -47.57 64.3 -66.26 0 80.67 -105.55 -77.91 -104.04 68.24 0 44.43 61.16 45.58 -61.16 64.65 0 -77.9 102.5 81.04 107.16 -68.95 0.01 0 -0.08 -0.02 0zm79.14 -209.59l60.79 0 0 209.61 -60.8 -0.02 0 -209.6 0.01 0.01zm30.41 -29.21c-11.18,0 -20.25,-3.24 -27.24,-9.76 -7,-6.52 -10.55,-14.54 -10.55,-24.16 0,-9.61 3.5,-17.66 10.55,-24.16 6.99,-6.44 16.06,-9.75 27.24,-9.75 11.19,0 20.25,3.14 27.28,9.32 7,6.27 10.48,14.06 10.48,23.37 0,10.13 -3.49,18.52 -10.48,25.08 -6.98,6.55 -16.13,9.94 -27.28,9.94l0 0.13 0 -0.01zm67.49 29.21l60.78 0 0 209.61 -60.78 -0.02 0 -209.6 0 0.01zm30.35 -29.21c-11.19,0 -20.25,-3.24 -27.3,-9.76 -7.05,-6.52 -10.48,-14.54 -10.48,-24.16 0,-9.61 3.5,-17.66 10.48,-24.16 7.05,-6.44 16.15,-9.75 27.3,-9.75 11.15,0 20.25,3.14 27.22,9.32 7.05,6.27 10.55,14.06 10.55,23.37 0,10.13 -3.5,18.52 -10.55,25.08 -7.04,6.55 -16.06,9.94 -27.22,9.94l0 0.13 0 -0.01zm191.34 26.07c19.51,0 37.25,4.46 53.19,13.43 15.94,8.96 28.52,21.59 37.6,37.79 9.08,16.25 13.61,35.16 13.61,56.68 0,21.52 -4.55,40.48 -13.61,56.68 -9.08,16.27 -21.66,28.85 -37.6,37.79 -15.94,8.94 -33.7,13.42 -53.19,13.42 -28.82,0 -50.8,-9.07 -65.81,-27.27l0 24.15 -58.1 0.01 0 -289.11 60.79 0 0 101.72c15.32,-16.87 36.37,-25.35 63.12,-25.35l0 0.07 0 -0.01zm-10.5 165.98c15.59,0 28.4,-5.29 38.35,-15.77 9.95,-10.48 15.03,-24.59 15.03,-42.27 0,-17.6 -4.97,-31.8 -15.03,-42.28 -10.06,-10.47 -22.82,-15.76 -38.35,-15.76 -15.58,0 -28.39,5.28 -38.39,15.76 -10,10.49 -15.03,24.6 -15.03,42.28 0,17.68 5.04,31.8 15.03,42.27 10,10.48 22.81,15.77 38.39,15.77zm241.64 1.18c10.93,0 20.61,-1.58 29.08,-4.83 8.47,-3.26 16.32,-8.4 23.56,-15.41l32.31 35.09c-19.75,22.58 -48.53,33.92 -86.49,33.92 -23.63,0 -44.53,-4.59 -62.76,-13.86 -18.24,-9.27 -32.21,-22.02 -42.09,-38.4 -9.87,-16.32 -14.8,-34.9 -14.8,-55.68 0,-20.49 4.84,-39.04 14.61,-55.51 9.78,-16.47 23.11,-29.38 40.11,-38.58 17.06,-9.27 36.19,-13.86 57.47,-13.86 20.01,0 38.16,4.24 54.53,12.7 16.36,8.46 29.38,20.61 39.2,36.62 9.76,16.03 14.62,34.9 14.62,56.68l-155.09 30c4.43,10.36 11.41,18.22 20.87,23.37 9.46,5.16 21.1,7.79 34.85,7.79l0.02 -0.05 0 0.01zm-8.95 -121.16c-15.32,0 -27.8,4.91 -37.34,14.81 -9.55,9.89 -14.65,23.56 -15.22,40.91l102.09 -19.88c-2.88,-10.91 -8.72,-19.63 -17.56,-26.06 -8.84,-6.42 -19.49,-9.75 -31.95,-9.75l-0.02 -0.02 0 -0.01zm187.89 -15.2c7.3,-10.14 17.05,-17.79 29.37,-23.01 12.31,-5.22 26.57,-7.79 42.7,-7.79l0 56.13c-6.74,-0.55 -11.29,-0.8 -13.62,-0.8 -17.4,0 -31.05,4.92 -40.93,14.6 -9.87,9.69 -14.78,24.36 -14.78,43.86l0 98.96 -60.81 -0.06 0 -209.61 58.1 0.02 0 27.67 -0.07 0 0.04 0.03z"/>
   <path class="fil3" d="M300.55 790.07c-48.46,17.06 -25.19,90.35 24.6,75.33 5.22,-1.61 10.17,-4.56 12.75,-6.83 35.59,-30.48 2.19,-82.45 -37.43,-68.5l0.07 0 0.01 0z"/>
   <path class="fil4" d="M396.79 790.07c-48.46,17.06 -25.19,90.3 24.6,75.25 5.2,-1.58 10.16,-4.55 12.75,-6.8 35.59,-30.48 2.21,-82.45 -37.41,-68.52l0.07 0.07 -0.01 0z"/>
  </g>
 </g>
</svg>
