<svg xmlns="http://www.w3.org/2000/svg" preserveAspectRatio="xMidYMid" width="167.625" height="43.969" viewBox="0 0 167.625 43.969"><defs><style>.cls-1 { fill: #b4eaff; fill-rule: evenodd; }</style></defs><path d="M167.183 32.917c-3.263.18-6.536.375-9.816.57-13.55.804-21.982 1.617-30.823 1.516-1.01 1.84-6.348 5.173-7.322 5.7-2.815 1.525-7.786 3.598-11.032 3.236 2.655-2.243 4.987-4.858 8.06-6.674 1.51-.892 3.856-1.8 6.054-2.39-5.484-.25-11.42-.873-19.043-2.095-.855 1.74-4.025 3.235-5.418 3.81-2.84 1.174-6.424 2.506-9.557 2.248 1.612-2.72 4.47-4.68 7.32-5.924.85-.37 1.742-.69 2.645-.95-4.5-.728-9.094-1.307-13.558-1.86l-2.34-.292c-1.28 1.966-3.793 4.39-5.807 5.387-3.92 1.942-8.592 2.996-12.884 3.42.473-1.276 2.113-2.584 3.105-3.523 1.672-1.58 3.514-3.24 5.51-4.398 1.302-.757 3.427-1.29 5.534-1.476-5.218-.698-10.468-1.515-15.632-2.698-.535 2.87-8.306 5.938-10.617 6.423-3.99.834-8.212.92-12.184.092 2.93-2.504 6.202-4.667 10.023-5.907 2.207-.717 4.66-1.23 6.965-1.596.454-.074.943-.112 1.45-.113-1.512-.418-3.014-.87-4.5-1.37-2.81-.945-5.963-2.19-9.026-3.44-2.053 1.645-5.602 2.394-8.21 2.744-3.454.464-8.178 1.13-11.517-.098 2.887-1.93 5.944-3.412 9.34-4.212 1.514-.357 4.31-.37 6.722.055l-.11-.045c-2.498-1.037-4.852-2.01-6.87-2.783-1.525.09-4.553-.246-5.578-.495-3.847-.934-7.67-2.112-11.293-3.72C10.734 9.385 3.974 5.465-.01.016c6.66.61 14.058 1.807 20.444 4.067 4.77 1.69 10.025 6.637 13.105 11.165 2.117.798 4.646 1.847 7.323 2.958 3.168 1.315 6.66 2.762 9.905 3.967-.08-.05-.16-.098-.23-.138-2.595-1.503-4.845-3.69-6.875-5.872-1.433-1.538-3-2.992-4.07-4.832-.813-1.394-1.375-2.99-2.058-4.456-.73-1.565-1.11-3.224-1.598-4.853 1.838.456 3.786 1.86 5.277 3.064 1.842 1.49 3.728 2.946 5.413 4.61 1.792 1.768 6.49 9.675 6.638 13.37.11.038.228.08.338.117 5.39 1.814 10.972 3.035 16.59 3.98-5.246-2.303-10.054-9.387-11.467-14.003 2.89-.17 6.79 3.285 8.838 5.132 2.314 2.086 3.744 6.084 4.494 9.172 4.26.67 8.533 1.203 12.746 1.725 2.45.304 4.94.613 7.433.95-2.352-1.2-4.638-3.388-6.165-5.075C83.367 22.072 80 18.288 79.2 14.25c6.09 3.16 13.037 9.425 15.096 16.18 1.922.272 3.84.56 5.737.885 5.692.977 10.447 1.64 14.735 2.078-2.175-.686-4.195-1.76-6.018-3.467-2.626-2.46-5.373-5.75-6.68-9.026 1.504.256 3.39 1.05 4.86 1.805 1.588.818 3.47 2.723 4.89 3.87 2.394 1.936 4.13 4.29 5.2 7.03 6.11.53 11.312.574 16.957.362-1.356-.446-2.694-1.065-3.677-1.783-2.433-1.78-3.854-4.28-5.864-6.42 2.152.544 4.72 1.582 6.726 2.656 1.986 1.062 3.696 3.51 5.104 5.45 5.89-.28 12.424-.793 21.048-1.305 3.28-.195 6.555-.39 9.82-.57.252-.014.468.18.48.435.015.255-.178.473-.43.487z" class="cls-1"/></svg>