<svg xmlns="http://www.w3.org/2000/svg" preserveAspectRatio="xMidYMid" width="590.94" height="63.25" viewBox="0 0 590.94 63.25"><defs><style>.cls-1 { fill: #fffeec; fill-rule: evenodd; }</style></defs><path d="M568.334 31.8l22.607 26.703h-4.393L566.2 34.473h-2.205l20.346 24.03h-9.566l-20.346-24.03h-.008l20.347 24.03H563.294l-20.346-24.03h-1.285l20.345 24.03H533.8l-20.348-24.03H76.855l11.31 28.763-17.63-28.763h-6.727V28.75h6.728L88.164-.01l-11.31 28.76H513.453L533.8 4.72H547.166L526.82 28.75h5.276l20.347-24.03h18.539l-20.345 24.03h3.79l20.347-24.03h16.168l-22.606 26.7v.38zM62.664 46.5c-.857.603-2.978.178-2.978.178S18.24 38.29 4.59 34.792c-1.353-.347-4.593-1.367-4.593-3.18 0-1.81 3.434-2.853 4.844-3.208 13.54-3.41 54.605-11.78 54.605-11.78s1.736-.576 3.363.125c.998.428.967 2.62.967 2.62v24.603s.32 1.527-1.11 2.528z" class="cls-1"/></svg>