<?xml version="1.0" encoding="UTF-8"?>
<!DOCTYPE svg PUBLIC "-//W3C//DTD SVG 1.1//EN" "http://www.w3.org/Graphics/SVG/1.1/DTD/svg11.dtd">
<!-- Creator: CorelDRAW 2017 -->
<svg xmlns="http://www.w3.org/2000/svg" xml:space="preserve" width="135.467mm" height="135.467mm" version="1.1" style="shape-rendering:geometricPrecision; text-rendering:geometricPrecision; image-rendering:optimizeQuality; fill-rule:evenodd; clip-rule:evenodd"
viewBox="0 0 13546.66 13546.66"
 xmlns:xlink="http://www.w3.org/1999/xlink"
 xmlns:xodm="http://www.corel.com/coreldraw/odm/2003">
 <defs>
  <style type="text/css">
   <![CDATA[
    .str0 {stroke:white;stroke-width:132.29;stroke-miterlimit:22.9256}
    .fil1 {fill:none}
    .fil2 {fill:#6699FF}
    .fil0 {fill:black;fill-rule:nonzero}
    .fil3 {fill:url(#id0)}
   ]]>
  </style>
  <linearGradient id="id0" gradientUnits="userSpaceOnUse" x1="3007.22" y1="2942.41" x2="7509.79" y2="11327.17">
   <stop offset="0" style="stop-opacity:1; stop-color:#015C8B"/>
   <stop offset="1" style="stop-opacity:1; stop-color:#003399"/>
  </linearGradient>
 </defs>
<symbol id="w" viewBox="3505.79 3302.44 146.38 169.31">
 <path class="fil0" d="M3641.36 3311.31l0 39.26c-11.07,-4.63 -21.74,-8.07 -32,-10.37 -10.3,-2.37 -19.96,-3.56 -29.04,-3.56 -9.89,0 -17.18,1.26 -21.93,3.7 -4.74,2.48 -7.11,6.22 -7.11,11.26 0,4.15 1.78,7.37 5.33,9.63 3.63,2.19 10.11,3.81 19.41,4.89l9.19 1.19c26.37,3.37 44.07,8.89 53.18,16.59 9.19,7.7 13.78,19.78 13.78,36.15 0,17.18 -6.37,30.15 -19.11,38.81 -12.67,8.59 -31.55,12.89 -56.74,12.89 -10.59,0 -21.59,-0.85 -33.04,-2.52 -11.37,-1.67 -23.03,-4.19 -34.96,-7.55l0 -39.11c10.26,4.96 20.78,8.7 31.55,11.26 10.74,2.48 21.7,3.7 32.89,3.7 10.07,0 17.63,-1.37 22.67,-4.15 5.11,-2.85 7.7,-7 7.7,-12.44 0,-4.63 -1.78,-8.04 -5.33,-10.22 -3.48,-2.26 -10.44,-4.04 -20.89,-5.33l-9.04 -1.19c-22.93,-2.85 -39.04,-8.15 -48.3,-15.85 -9.19,-7.78 -13.78,-19.63 -13.78,-35.55 0,-17.07 5.82,-29.7 17.48,-37.92 11.74,-8.3 29.7,-12.44 53.92,-12.44 9.48,0 19.44,0.74 29.92,2.22 10.44,1.41 21.85,3.63 34.22,6.66l0 -0.01 0.03 0z"/>
</symbol>
<symbol id="y" viewBox="4001.62 3793.95 138.96 169.31">
 <path class="fil0" d="M4140.58 3951.14c-7.75,4 -15.84,7 -24.24,9 -8.34,2.06 -17.09,3.12 -26.24,3.12 -27.18,0 -48.7,-7.56 -64.61,-22.74 -15.93,-15.25 -23.87,-35.86 -23.87,-61.85 0,-26.05 7.93,-46.67 23.87,-61.85 15.9,-15.25 37.43,-22.87 64.61,-22.87 9.15,0 17.9,1.06 26.24,3.12 8.4,2 16.49,5 24.24,9l0 33.74c-7.84,-5.25 -15.56,-9.12 -23.12,-11.62 -7.59,-2.5 -15.59,-3.75 -23.99,-3.75 -15,0 -26.8,4.84 -35.36,14.5 -8.59,9.59 -12.87,22.84 -12.87,39.74 0,16.84 4.28,30.08 12.87,39.74 8.56,9.59 20.37,14.37 35.36,14.37 8.4,0 16.4,-1.19 23.99,-3.63 7.56,-2.5 15.28,-6.4 23.12,-11.75l0 33.74 0 0 0 -0.01z"/>
</symbol>
<symbol id="h" viewBox="3507.36 3302.44 142.36 169.33">
 <path class="fil0" d="M3649.71 3311.36l0 42.07c-7.04,-4.81 -14.07,-8.37 -21.18,-10.67 -7.04,-2.26 -14.33,-3.41 -21.92,-3.41 -14.33,0 -25.55,4.22 -33.63,12.59 -8,8.41 -12,20.15 -12,35.26 0,15.04 4,26.74 12,35.11 8.07,8.41 19.3,12.59 33.63,12.59 8.07,0 15.74,-1.19 22.96,-3.56 7.3,-2.37 14,-5.93 20.15,-10.67l0 42.22c-8.11,2.96 -16.3,5.18 -24.59,6.66 -8.29,1.48 -16.59,2.22 -24.89,2.22 -29.15,0 -51.92,-7.44 -68.29,-22.37 -16.41,-14.89 -24.59,-35.63 -24.59,-62.22 0,-26.66 8.18,-47.44 24.59,-62.37 16.37,-14.89 39.15,-22.37 68.29,-22.37 8.37,0 16.67,0.74 24.89,2.22 8.18,1.48 16.37,3.7 24.59,6.66l0 0 0 0 -0.01 0.04z"/>
</symbol>
<symbol id="t" viewBox="4291.71 4068.11 133.73 169.32">
 <polygon class="fil0" points="4291.71,4068.11 4330.66,4068.11 4330.66,4160.33 4375.53,4115.56 4420.74,4115.56 4361.21,4171.52 4425.44,4237.43 4378.22,4237.43 4330.65,4186.62 4330.65,4237.43 4291.71,4237.43 "/>
</symbol>
<symbol id="j" viewBox="4160.82 3966.53 165.7 169.32">
 <polygon class="fil0" points="4160.82,3966.53 4204.46,3966.53 4204.46,4028.25 4267.48,3966.53 4318.12,3966.53 4236.55,4046.69 4326.52,4135.85 4271.91,4135.85 4204.46,4069.1 4204.46,4135.85 4160.82,4135.85 "/>
</symbol>
<symbol id="q" viewBox="4174.71 3966.53 151.81 169.32">
 <polygon class="fil0" points="4174.71,3966.53 4223.48,3966.53 4285.09,4082.63 4285.09,3966.53 4326.52,3966.53 4326.52,4135.85 4277.63,4135.85 4216.13,4019.63 4216.13,4135.85 4174.71,4135.85 "/>
</symbol>
<symbol id="p" viewBox="3421.68 3229.46 165.83 169.31">
 <path class="fil0" d="M3421.68 3330.27l0 -100.8 53.05 0 0 16.52c0,9.02 -0.08,20.27 -0.15,33.8 -0.11,13.45 -0.15,22.43 -0.15,26.98 0,13.26 0.3,22.81 0.91,28.65 0.68,5.87 1.89,10.12 3.64,12.73 2.12,3.45 4.89,6.14 8.34,8.03 3.53,1.82 7.58,2.73 12.13,2.73 10.99,0 19.63,-4.17 25.92,-12.58 6.25,-8.49 9.4,-20.24 9.4,-35.32l0 -81.55 52.74 0 0 165.07 -52.75 0 0 -23.8c-8,9.62 -16.45,16.67 -25.31,21.22 -8.9,4.55 -18.72,6.82 -29.4,6.82 -19.02,0 -33.5,-5.8 -43.5,-17.43 -9.93,-11.71 -14.86,-28.72 -14.86,-51.08l0 0 0 0 -0.01 0.01z"/>
</symbol>
<symbol id="v" viewBox="4251.05 4096.2 169.32 161.53">
 <polygon class="fil0" points="4251.05,4096.2 4292.91,4096.2 4335.77,4215.43 4378.52,4096.2 4420.37,4096.2 4360.6,4257.73 4310.83,4257.73 "/>
</symbol>
<symbol id="a" viewBox="4107.72 3872.51 106.58 169.33">
 <path class="fil0" d="M4170.82 3872.51l0 37.42 43.48 0 0 30.16 -43.48 0 0 55.96c0,6.15 1.21,10.29 3.63,12.48 2.48,2.12 7.33,3.15 14.54,3.15l21.68 0 0 30.16 -36.22 0c-16.65,0 -28.43,-3.45 -35.36,-10.42 -6.96,-6.93 -10.42,-18.71 -10.42,-35.36l0 -55.96 -20.95 0 0 -30.16 20.95 0 0 -37.42 42.15 0 0 0 0 -0.01z"/>
</symbol>
<symbol id="o" viewBox="4187.09 3966.54 139.45 169.32">
 <path class="fil0" d="M4187.09 3966.55l72.47 0c21.53,0 38.07,4.78 49.59,14.35 11.58,9.57 17.39,23.19 17.39,40.84 0,17.74 -5.8,31.39 -17.39,40.96 -11.52,9.57 -28.06,14.35 -49.59,14.35l-28.82 0 0 58.81 -43.64 0 0 -169.32 0 0 -0.01 0.01zm43.65 31.62l0 47.26 24.15 0c8.46,0 14.99,-2.04 19.6,-6.18 4.67,-4.11 7,-9.95 7,-17.5 0,-7.53 -2.33,-13.33 -7,-17.39 -4.61,-4.11 -11.14,-6.18 -19.6,-6.18l-24.15 0 0 -0.01z"/>
</symbol>
<symbol id="r" viewBox="4577.79 4515.65 169.32 107.76">
 <path class="fil0" d="M4675.5 4535.65c4.25,-6.5 9.3,-11.45 15.17,-14.88 5.85,-3.41 12.3,-5.12 19.33,-5.12 12.1,0 21.31,3.75 27.64,11.21 6.31,7.42 9.47,18.24 9.47,32.47l0 64.07 -33.83 0 0 -54.89c0.05,-0.77 0.1,-1.59 0.1,-2.51 0.05,-0.89 0.1,-2.15 0.1,-3.77 0,-7.46 -1.11,-12.88 -3.29,-16.23 -2.2,-3.33 -5.75,-5.02 -10.63,-5.02 -6.38,0 -11.31,2.66 -14.79,7.92 -3.48,5.29 -5.29,12.9 -5.41,22.81l0 51.7 -33.82 0 0 -54.89c0,-11.64 -1.01,-19.16 -3,-22.52 -2.01,-3.33 -5.58,-5.02 -10.73,-5.02 -6.45,0 -11.45,2.68 -14.98,8.02 -3.48,5.29 -5.22,12.83 -5.22,22.61l0 51.8 -33.82 0 0 -105.25 33.83 0 0 15.46c4.11,-5.99 8.84,-10.46 14.21,-13.43 5.41,-3.02 11.33,-4.54 17.78,-4.54 7.27,0 13.68,1.79 19.23,5.32 5.6,3.48 9.81,8.38 12.66,14.69l0 0.01 0 0 0 -0.02z"/>
</symbol>
<symbol id="i" viewBox="4386.52 4068.14 38.95 169.32">
 <path class="fil0" d="M4386.52 4115.59l38.95 0 0 121.87 -38.95 0 0 -121.87zm0 -47.45l38.95 0 0 31.78 -38.95 0 0 -31.78z"/>
</symbol>
<symbol id="n" viewBox="4876.63 4631.84 50.63 169.31">
 <path class="fil0" d="M4896.93 4668.78l30.33 0 0 93.24c0,12.66 -3.05,22.33 -9.15,29.02 -6.1,6.73 -14.94,10.11 -26.49,10.11l-14.99 0 0 -19.96 5.23 0c5.75,0 9.69,-1.31 11.85,-3.92 2.13,-2.57 3.22,-7.65 3.22,-15.25l0 -93.25 0 0 0 0.01zm0 -36.94l30.33 0 0 24.75 -30.33 0 0 -24.75z"/>
</symbol>
<symbol id="b" viewBox="3547.63 3377.16 169.32 165.69">
 <path class="fil0" d="M3716.95 3459.5l0 14.35 -118 0c1.23,11.81 5.54,20.69 12.9,26.67 7.32,5.91 17.57,8.84 30.73,8.84 10.62,0 21.49,-1.52 32.61,-4.64 11.09,-3.19 22.54,-7.97 34.36,-14.35l0 38.85c-12,4.56 -23.99,7.94 -35.95,10.15 -11.89,2.32 -23.77,3.48 -35.66,3.48 -28.63,0 -50.85,-7.25 -66.68,-21.74 -15.76,-14.5 -23.63,-34.83 -23.63,-61.03 0,-25.8 7.72,-46.02 23.19,-60.74 15.55,-14.79 36.97,-22.18 64.22,-22.18 24.83,0 44.68,7.5 59.58,22.47 14.86,14.89 22.32,34.86 22.32,59.87l0 0 0 0 0.01 0zm-51.9 -16.82c0,-9.57 -2.83,-17.29 -8.41,-23.19 -5.51,-5.87 -12.83,-8.84 -21.89,-8.84 -9.79,0 -17.69,2.75 -23.77,8.26 -6.09,5.51 -9.93,13.44 -11.45,23.77l65.52 0 0 0z"/>
</symbol>
<symbol id="u" viewBox="4386.52 4068.14 38.95 169.32">
 <polygon class="fil0" points="4386.52,4068.14 4425.47,4068.14 4425.47,4237.46 4386.52,4237.46 "/>
</symbol>
<symbol id="e" viewBox="3460.56 3219.41 122.86 169.32">
 <path class="fil0" d="M3583.41 3268.46c-4.67,-2.2 -9.26,-3.83 -13.82,-4.86 -4.56,-0.99 -9.19,-1.52 -13.82,-1.52 -13.59,0 -24.07,4.37 -31.43,13.06 -7.29,8.73 -10.93,21.18 -10.93,37.36l0 76.23 -52.85 0 0 -165.37 52.84 0 0 27.18c6.76,-10.82 14.58,-18.72 23.39,-23.69 8.81,-4.93 19.36,-7.44 31.74,-7.44 1.71,0 3.57,0.11 5.62,0.3 2.13,0.11 5.16,0.42 9.11,0.91l0.16 47.84 0 0 -0.01 0z"/>
</symbol>
<symbol id="f" viewBox="3486.58 3302.46 163.12 169.32">
 <path class="fil0" d="M3570.89 3395.06c-10.78,0 -18.89,1.85 -24.29,5.48 -5.33,3.67 -8,9.04 -8,16.15 0,6.52 2.15,11.67 6.52,15.41 4.33,3.67 10.41,5.48 18.22,5.48 9.67,0 17.81,-3.45 24.44,-10.37 6.59,-7 9.92,-15.74 9.92,-26.22l0 -5.93 -26.81 0 0 0zm78.81 -19.41l0 91.99 -52 0 0 -23.85c-6.93,9.78 -14.74,16.89 -23.41,21.33 -8.59,4.45 -19.07,6.66 -31.41,6.66 -16.7,0 -30.29,-4.81 -40.74,-14.52 -10.37,-9.78 -15.56,-22.44 -15.56,-38.07 0,-18.85 6.44,-32.66 19.41,-41.48 13.04,-8.89 33.48,-13.33 61.33,-13.33l30.37 0 0 -4c0,-8.18 -3.22,-14.15 -9.63,-17.93 -6.44,-3.85 -16.44,-5.78 -30.07,-5.78 -11.07,0 -21.41,1.15 -30.96,3.41 -9.48,2.19 -18.3,5.48 -26.37,9.92l0 -39.4c11.04,-2.67 22.11,-4.67 33.18,-6.07 11.15,-1.37 22.3,-2.07 33.48,-2.07 29.11,0 50.11,5.74 62.96,17.18 12.92,11.48 19.41,30.15 19.41,56l0 0 0.01 0.01z"/>
</symbol>
<symbol id="k" viewBox="4280.82 4125.43 138 169.33">
 <path class="fil0" d="M4280.83 4125.44l38.79 0 32.66 82.37 27.75 -82.37 38.79 0 -51.05 132.87c-5.13,13.51 -11.12,22.96 -17.95,28.31 -6.86,5.4 -15.83,8.14 -26.97,8.14l-22.52 0 0 -25.53 12.15 0c6.6,0 11.4,-1.06 14.38,-3.12 2.95,-2.09 5.29,-5.85 7.02,-11.26l1 -3.35 -54.06 -126.07 0 0 0.01 0.01z"/>
</symbol>
<symbol id="g" viewBox="4302.93 4068.14 122.54 169.32">
 <path class="fil0" d="M4425.47 4163.27l0 74.19 -39.17 0 0 -56.62c0,-10.58 -0.28,-17.85 -0.78,-21.82 -0.45,-4.03 -1.23,-6.99 -2.35,-8.95 -1.57,-2.52 -3.67,-4.51 -6.27,-5.93 -2.63,-1.4 -5.57,-2.13 -8.84,-2.13 -8.14,0 -14.55,3.19 -19.25,9.51 -4.65,6.27 -6.94,14.94 -6.94,25.96l0 59.98 -38.94 0 0 -169.32 38.94 0 0 65.35c5.88,-7.16 12.11,-12.42 18.69,-15.78 6.63,-3.36 13.93,-5.03 21.93,-5.03 14.02,0 24.68,4.34 32.01,12.98 7.3,8.59 10.97,21.12 10.97,37.6l0 0 0 0 0 0.01z"/>
</symbol>
<symbol id="d" viewBox="3417.1 3219.39 166.28 169.31">
 <path class="fil0" d="M3583.38 3288.03l0 100.67 -53.15 0 0 -76.99c0,-14.28 -0.38,-24.07 -1.06,-29.46 -0.61,-5.47 -1.67,-9.49 -3.19,-12.15 -2.13,-3.42 -4.97,-6.11 -8.5,-8.05 -3.57,-1.9 -7.55,-2.88 -12,-2.88 -11.05,0 -19.74,4.33 -26.12,12.91 -6.3,8.5 -9.42,20.27 -9.42,35.23l0 81.39 -52.84 0 0 -165.37 52.84 0 0 24.3c7.97,-9.72 16.44,-16.86 25.36,-21.41 9,-4.56 18.91,-6.83 29.76,-6.83 19.02,0 33.48,5.89 43.43,17.62 9.91,11.66 14.88,28.66 14.88,51.02l0 0.01 0 0 0.01 -0.01z"/>
</symbol>
<symbol id="l" viewBox="4339.88 4114.43 128.44 169.31">
 <path class="fil0" d="M4403.61 4255.93c8.13,0 14.34,-2.97 18.68,-8.9 4.31,-5.99 6.48,-14.67 6.48,-26.04 0,-11.43 -2.17,-20.11 -6.48,-26.04 -4.34,-5.99 -10.55,-9.01 -18.68,-9.01 -8.21,0 -14.5,3.02 -18.9,9.01 -4.4,6.02 -6.59,14.7 -6.59,26.04 0,11.29 2.2,19.94 6.59,25.93 4.4,6.02 10.68,9.01 18.9,9.01zm-25.49 -77.35c5.27,-7.03 11.1,-12.2 17.47,-15.49 6.43,-3.3 13.84,-4.94 22.19,-4.94 14.72,0 26.81,5.88 36.26,17.58 9.5,11.73 14.28,26.81 14.28,45.27 0,18.4 -4.78,33.46 -14.28,45.16 -9.45,11.73 -21.54,17.58 -36.26,17.58 -8.35,0 -15.77,-1.65 -22.19,-4.94 -6.37,-3.3 -12.2,-8.41 -17.47,-15.38l0 17.25 -38.24 0 0 -166.24 38.24 0 0 64.17 0 0 0 -0.02z"/>
</symbol>
<symbol id="s" viewBox="4316.34 4068.13 94.68 169.31">
 <path class="fil0" d="M4411.02 4068.13l0 25.63 -21.6 0c-5.54,0 -9.37,1.01 -11.53,3.02 -2.18,1.96 -3.25,5.37 -3.25,10.3l0 8.5 33.24 0 0 27.86 -33.24 0 0 94 -38.94 0 0 -94 -19.36 0 0 -27.86 19.36 0 0 -8.5c0,-13.26 3.69,-23.08 11.08,-29.43 7.39,-6.32 18.83,-9.51 34.35,-9.51l29.88 0 0.01 -0.01z"/>
</symbol>
<symbol id="m" viewBox="4331.31 4114.41 128.45 169.31">
 <path class="fil0" d="M4421.3 4178.58l0 -64.17 38.46 0 0 166.24 -38.46 0 0 -17.25c-5.27,7.03 -11.1,12.2 -17.47,15.49 -6.32,3.21 -13.62,4.83 -21.97,4.83 -14.72,0 -26.86,-5.85 -36.37,-17.58 -9.45,-11.7 -14.18,-26.75 -14.18,-45.16 0,-18.46 4.72,-33.54 14.18,-45.27 9.5,-11.7 21.65,-17.58 36.37,-17.58 8.27,0 15.6,1.65 21.97,4.94 6.37,3.29 12.2,8.46 17.47,15.49l0 0 0 0 0 0.02zm-25.16 77.35c8.13,0 14.34,-2.97 18.68,-8.9 4.31,-5.99 6.48,-14.67 6.48,-26.04 0,-11.43 -2.17,-20.11 -6.48,-26.04 -4.34,-5.99 -10.55,-9.01 -18.68,-9.01 -8.13,0 -14.37,3.02 -18.68,9.01 -4.34,5.93 -6.48,14.61 -6.48,26.04 0,11.37 2.14,20.05 6.48,26.04 4.31,5.93 10.55,8.9 18.68,8.9z"/>
</symbol>
<symbol id="c" viewBox="3619.34 3456.81 169.32 161.82">
 <path class="fil0" d="M3704.14 3492.07c-10.87,0 -19.18,3.93 -24.92,11.75 -5.77,7.86 -8.64,19.18 -8.64,33.98 0,14.72 2.87,26.02 8.64,33.84 5.73,7.86 14.05,11.75 24.92,11.75 10.76,0 18.97,-3.89 24.63,-11.75 5.73,-7.82 8.64,-19.11 8.64,-33.84 0,-14.79 -2.9,-26.12 -8.64,-33.98 -5.66,-7.82 -13.87,-11.75 -24.63,-11.75zm0 -35.26c26.51,0 47.21,7.18 62.15,21.52 14.9,14.26 22.37,34.08 22.37,59.46 0,25.31 -7.47,45.13 -22.37,59.46 -14.94,14.26 -35.64,21.38 -62.15,21.38 -26.62,0 -47.43,-7.11 -62.43,-21.38 -14.94,-14.33 -22.37,-34.15 -22.37,-59.46 0,-25.38 7.43,-45.2 22.37,-59.46 15.01,-14.33 35.82,-21.52 62.43,-21.52z"/>
</symbol>
<symbol id="x" viewBox="4267.97 4060.2 138.86 169.32">
 <path class="fil0" d="M4406.83 4217.38c-7.73,4.05 -15.8,7.08 -24.17,9.11 -8.4,2.02 -17.15,3.03 -26.2,3.03 -27.21,0 -48.77,-7.56 -64.65,-22.71 -15.91,-15.21 -23.84,-35.81 -23.84,-61.84 0,-26.08 7.93,-46.71 23.84,-61.95 15.88,-15.21 37.44,-22.82 64.65,-22.82 9.05,0 17.79,1.07 26.2,3.15 8.38,2.02 16.44,5.03 24.17,9l0 33.84c-7.81,-5.31 -15.49,-9.22 -23.05,-11.69 -7.59,-2.47 -15.57,-3.71 -23.95,-3.71 -15.01,0 -26.82,4.81 -35.42,14.39 -8.63,9.61 -12.93,22.88 -12.93,39.8 0,16.81 4.3,30.02 12.93,39.69 8.6,9.61 20.41,14.39 35.42,14.39 8.38,0 16.36,-1.24 23.95,-3.71 7.56,-2.47 15.24,-6.35 23.05,-11.69l0 33.73 0 -0.01z"/>
</symbol>
 <g id="Capa_x0020_1">
  <metadata id="CorelCorpID_0Corel-Layer"/>
  <rect class="fil1" x="-0" y="-0" width="13546.67" height="13546.67"/>
  <g id="_2065750110480">
   <path class="fil2 str0" d="M4251.06 10459.25c935.57,-176.05 1211.55,1316.87 249.84,1486.76 -957.09,169.89 -1313.02,-1287.66 -249.84,-1486.76zm4840.05 -2.31c424.35,-73.8 771.83,269.83 829.48,609.62 74.57,442.8 -232.93,809.49 -578.87,877.14 -976.31,191.42 -1299.18,-1303.03 -250.61,-1486.76zm-2418.49 2.31c423.58,-80.72 777.21,257.53 837.17,604.24 76.11,446.64 -242.15,818.71 -588.09,882.52 -959.4,176.81 -1296.12,-1287.66 -249.08,-1486.76zm2353.92 -2388.51c927.88,-222.94 1298.42,1228.46 339.78,1469.08 -967.85,242.16 -1309.18,-1236.92 -339.78,-1469.08zm-2417.72 2.31c946.33,-222.17 1302.26,1247.68 338.25,1469.08 -1010.14,232.16 -1231.54,-1259.98 -338.25,-1469.08zm-2421.57 -0.77c1011.68,-229.09 1221.55,1279.2 339.02,1470.62 -429.73,93.78 -832.55,-191.42 -908.66,-559.65 -93.02,-452.8 204.49,-827.95 569.64,-910.97zm-9.22 -2349.3c412.82,-125.31 809.49,166.05 904.05,505.07 125.3,450.48 -179.12,854.08 -511.22,941.72 -934.03,248.3 -1434.49,-1132.37 -392.83,-1446.79zm2422.33 0c415.13,-129.15 801.04,147.6 896.36,510.45 115.32,438.95 -173.73,843.32 -505.83,935.57 -914.05,254.45 -1432.96,-1123.92 -390.53,-1446.02zm2416.95 -3.85c443.57,-126.84 798.73,186.81 887.91,520.45 118.38,442.8 -157.6,827.17 -496.62,925.57 -944.02,274.45 -1414.5,-1153.89 -391.29,-1446.02zm-5139.09 -3965.21c284.43,-84.56 3625.42,-15.38 4218.9,-15.38 2110.98,0 1834.23,-222.16 1837.31,1336.09 0.77,327.49 59.96,704.18 -236.01,797.97 -274.44,87.63 -3666.94,23.83 -4247.34,23.83 -2135.59,0 -1850.38,229.85 -1855,-1359.92 -1.53,-355.93 -60.73,-681.12 282.14,-782.59zm-379.77 -1417.58c-731.08,202.19 -1109.3,718.79 -1110.84,1617.45l0.77 8161.06c0,759.52 -134.53,1868.83 232.16,2472.3 410.51,675.73 1091.63,679.57 2068.71,679.57 764.13,0 4999.95,58.43 5388.17,-53.81 704.17,-204.49 1083.94,-742.61 1083.17,-1618.22l-0.77 -8161.05c0,-723.39 129.15,-1923.41 -230.63,-2473.84 -460.48,-704.17 -1036.27,-679.57 -2070.24,-679.57 -784.13,0 -4939.99,-59.97 -5360.5,56.11z"/>
   <path class="fil3" d="M4251.06 10459.25c935.57,-176.05 1211.55,1316.87 249.84,1486.76 -957.09,169.89 -1313.02,-1287.66 -249.84,-1486.76zm4840.05 -2.31c424.35,-73.8 771.83,269.83 829.48,609.62 74.57,442.8 -232.93,809.49 -578.87,877.14 -976.31,191.42 -1299.18,-1303.03 -250.61,-1486.76zm-2418.49 2.31c423.58,-80.72 777.21,257.53 837.17,604.24 76.11,446.64 -242.15,818.71 -588.09,882.52 -959.4,176.81 -1296.12,-1287.66 -249.08,-1486.76zm2353.92 -2388.51c927.88,-222.94 1298.42,1228.46 339.78,1469.08 -967.85,242.16 -1309.18,-1236.92 -339.78,-1469.08zm-2417.72 2.31c946.33,-222.17 1302.26,1247.68 338.25,1469.08 -1010.14,232.16 -1231.54,-1259.98 -338.25,-1469.08zm-2421.57 -0.77c1011.68,-229.09 1221.55,1279.2 339.02,1470.62 -429.73,93.78 -832.55,-191.42 -908.66,-559.65 -93.02,-452.8 204.49,-827.95 569.64,-910.97zm-9.22 -2349.3c412.82,-125.31 809.49,166.05 904.05,505.07 125.3,450.48 -179.12,854.08 -511.22,941.72 -934.03,248.3 -1434.49,-1132.37 -392.83,-1446.79zm2422.33 0c415.13,-129.15 801.04,147.6 896.36,510.45 115.32,438.95 -173.73,843.32 -505.83,935.57 -914.05,254.45 -1432.96,-1123.92 -390.53,-1446.02zm2416.95 -3.85c443.57,-126.84 798.73,186.81 887.91,520.45 118.38,442.8 -157.6,827.17 -496.62,925.57 -944.02,274.45 -1414.5,-1153.89 -391.29,-1446.02zm-5139.09 -3965.21c284.43,-84.56 3625.42,-15.38 4218.9,-15.38 2110.98,0 1834.23,-222.16 1837.31,1336.09 0.77,327.49 59.96,704.18 -236.01,797.97 -274.44,87.63 -3666.94,23.83 -4247.34,23.83 -2135.59,0 -1850.38,229.85 -1855,-1359.92 -1.53,-355.93 -60.73,-681.12 282.14,-782.59zm-379.77 -1417.58c-731.08,202.19 -1109.3,718.79 -1110.84,1617.45l0.77 8161.06c0,759.52 -134.53,1868.83 232.16,2472.3 410.51,675.73 1091.63,679.57 2068.71,679.57 764.13,0 4999.95,58.43 5388.17,-53.81 704.17,-204.49 1083.94,-742.61 1083.17,-1618.22l-0.77 -8161.05c0,-723.39 129.15,-1923.41 -230.63,-2473.84 -460.48,-704.17 -1036.27,-679.57 -2070.24,-679.57 -784.13,0 -4939.99,-59.97 -5360.5,56.11z"/>
  </g>
 </g>
</svg>
