<?xml version="1.0" encoding="UTF-8"?>
<!DOCTYPE svg PUBLIC "-//W3C//DTD SVG 1.1//EN" "http://www.w3.org/Graphics/SVG/1.1/DTD/svg11.dtd">
<!-- Creator: CorelDRAW -->
<svg xmlns="http://www.w3.org/2000/svg" xml:space="preserve" width="16.9332mm" height="16.9332mm" style="shape-rendering:geometricPrecision; text-rendering:geometricPrecision; image-rendering:optimizeQuality; fill-rule:evenodd; clip-rule:evenodd"
viewBox="0 0 16.9332 16.9332"
 xmlns:xlink="http://www.w3.org/1999/xlink">
 <defs>
  <style type="text/css">
   <![CDATA[
    .fil0 {fill:black}
   ]]>
  </style>
 </defs>
 <g id="Capa_x0020_1">
  <metadata id="CorelCorpID_0Corel-Layer"/>
  <path class="fil0" d="M7.3923 6.4283c0.3372,-0.289 0.7948,-0.709 1.0519,-1.0829 1.3774,1.562 1.0689,0.5559 1.0689,2.9482l-0.0004 6.1013c-0.002,0.7589 0.1068,1.1606 0.6769,1.3763 0.6047,0.2288 1.1522,-0.1192 1.3277,-0.5543 0.266,-0.6595 0.0002,-0.9834 0.5957,-1.4406 0.426,-0.3272 1.1291,-0.3576 1.5744,-0.047 0.5768,0.4024 0.4078,0.6913 0.6298,1.399 0.3366,1.0727 2.1666,0.9911 2.0319,-0.6193 -0.0994,-1.1902 -0.8075,-2.0988 -1.5162,-2.5633 -1.2668,-0.8306 -2.1576,-0.5558 -3.2157,-0.3175l0.0014 -4.1235 4.5226 -0.7391c0.5524,-0.3675 1.1611,-1.0046 0.5115,-1.7557 -0.2286,-0.2643 -0.5493,-0.4265 -0.9917,-0.3542 -0.3625,0.0592 -0.5943,0.3236 -0.9038,0.4944 -1.4598,0.8052 -3.2801,0.3372 -4.1805,-0.5716 -1.2688,-1.2807 -0.9247,-2.4503 -1.2108,-2.9741 -0.1526,-0.2794 -0.4408,-0.5133 -0.8773,-0.529 -1.1848,-0.0425 -1.0822,1.2655 -1.1625,1.6448 -0.5061,2.3916 -3.1585,3.5415 -5.1302,2.4552 -0.5546,-0.3056 -1.2333,-0.9587 -1.91,-0.2023 -0.224,0.2503 -0.3732,0.6172 -0.2289,1.0637 0.2427,0.7512 1.8675,1.3529 2.6452,1.5313 1.0584,0.2428 1.6105,0.0216 2.579,-0.0461l0.002 4.0968 -1.2092 -0.2332c-1.0417,-0.1092 -2.2689,0.5666 -2.8342,1.3394 -1.6121,2.2034 -0.1339,3.7391 0.9836,2.9019 0.6209,-0.4651 0.2635,-1.4147 0.9649,-1.8843 0.7375,-0.4938 1.6081,-0.1716 1.9299,0.4205 0.1978,0.3638 0.1232,0.8058 0.303,1.1445 0.1505,0.2835 0.4693,0.5166 0.8617,0.534 0.4555,0.0203 0.7422,-0.2221 0.9237,-0.4637 0.2451,-0.3261 0.1822,-0.7756 0.1822,-1.2155l0.0035 -7.7341z"/>
 </g>
</svg>
