<?xml version="1.0" encoding="UTF-8"?>
<!DOCTYPE svg PUBLIC "-//W3C//DTD SVG 1.1//EN" "http://www.w3.org/Graphics/SVG/1.1/DTD/svg11.dtd">
<!-- Creator: CorelDRAW -->
<svg xmlns="http://www.w3.org/2000/svg" xml:space="preserve" width="16.9332mm" height="16.9332mm" style="shape-rendering:geometricPrecision; text-rendering:geometricPrecision; image-rendering:optimizeQuality; fill-rule:evenodd; clip-rule:evenodd"
viewBox="0 0 16.9332 16.9332"
 xmlns:xlink="http://www.w3.org/1999/xlink"
 version="1.1">
 <defs>
  <style type="text/css">
   <![CDATA[
    .fil0 {fill:none}
    .fil1 {fill:black}
    .fil2 {fill:#F7F7F7}
   ]]>
  </style>
 </defs>
 <g id="Capa_x0020_1">
  <metadata id="CorelCorpID_0Corel-Layer"/>
  <rect class="fil0" width="16.9332" height="16.9332"/>
  <g id="_344451568">
   <g id="_376083496">
    <path id="_376914936" class="fil1" d="M6.3003 4.2293c0.3781,-0.1496 0.6953,0.2739 0.373,0.5933 -0.2791,0.2769 -0.4512,0.2677 -0.6784,0.6919 -0.3227,0.6025 -0.367,2.173 -0.5345,2.2789 -1.0877,0.6877 -0.6745,-2.9651 0.8399,-3.5641zm-3.9128 7.5821c-0.0553,0.4347 -0.0822,0.9139 0.1193,1.294l11.8715 0.0002c0.2022,-0.3731 0.1662,-0.8613 0.2073,-1.2794l-0.1054 -0.0104c-0.5055,-0.8607 -1.3146,0.4121 -1.6179,-2.5576 -0.1293,-1.2652 0.0353,-2.665 -0.3733,-3.8553 -0.3305,-0.9627 -0.9909,-1.8529 -1.903,-2.3277 -1.9066,-0.9925 -0.663,-1.9621 -2.1483,-1.9585 -1.5488,0.0038 -0.2154,0.9752 -2.1008,1.9412 -2.6593,1.3625 -2.1824,4.1194 -2.3617,6.0956 -0.28,3.0851 -1.0132,1.7638 -1.5877,2.6579z"/>
    <path id="_374308280" class="fil1" d="M8.222 13.8008c-1.3451,0.3208 -0.8961,2.3072 0.5072,1.9794 1.1963,-0.2793 0.8273,-2.2975 -0.5072,-1.9794z"/>
    <path id="_376083520" class="fil2" d="M6.3003 4.2293c-1.5144,0.599 -1.9276,4.2518 -0.8399,3.5641 0.1675,-0.1059 0.2118,-1.6764 0.5345,-2.2789 0.2272,-0.4242 0.3993,-0.415 0.6784,-0.6919 0.3223,-0.3194 0.0051,-0.7429 -0.373,-0.5933z"/>
   </g>
  </g>
 </g>
</svg>
