<?xml version="1.0" encoding="UTF-8"?>
<!DOCTYPE svg PUBLIC "-//W3C//DTD SVG 1.1//EN" "http://www.w3.org/Graphics/SVG/1.1/DTD/svg11.dtd">
<!-- Creator: CorelDRAW -->
<svg xmlns="http://www.w3.org/2000/svg" xml:space="preserve" width="26.924mm" height="15.748mm" style="shape-rendering:geometricPrecision; text-rendering:geometricPrecision; image-rendering:optimizeQuality; fill-rule:evenodd; clip-rule:evenodd"
viewBox="0 0 26.924 15.748"
 xmlns:xlink="http://www.w3.org/1999/xlink">
 <defs>
  <style type="text/css">
   <![CDATA[
    .str1 {stroke:#010100;stroke-width:0.1027;stroke-linecap:round;stroke-linejoin:round}
    .str0 {stroke:black;stroke-width:0.1027;stroke-linecap:round;stroke-linejoin:round}
    .fil0 {fill:none}
    .fil3 {fill:#010100}
    .fil2 {fill:#4A2319}
    .fil12 {fill:#5C8A45}
    .fil6 {fill:#5D8B45}
    .fil10 {fill:#7D2631}
    .fil1 {fill:#7FBF5E}
    .fil8 {fill:#953A49}
    .fil5 {fill:#A3AC8E}
    .fil11 {fill:#A5AD8E}
    .fil9 {fill:#CE5065}
    .fil7 {fill:#CF7A79}
    .fil4 {fill:#E3EEC3}
    .fil14 {fill:#C7C7C7}
    .fil16 {fill:#C8C8C8}
    .fil15 {fill:#FBFBFC}
    .fil13 {fill:white}
   ]]>
  </style>
 </defs>
 <g id="Capa_x0020_1">
  <metadata id="CorelCorpID_0Corel-Layer"/>
  <g>
   <path class="fil0 str0" d="M3.2429 9.5528c0.1174,-0.1457 0.2677,-0.5187 0.551,-0.8319 -0.0915,0.2572 -0.2616,0.5053 -0.3358,0.7956 0.322,-0.099 0.8139,-0.2598 1.0817,0.0125 -0.3509,-0.0066 -0.5092,-0.0588 -0.8449,0.0786 -0.3359,0.137 -0.3906,0.2415 -0.4637,0.5484 0.6536,-0.218 0.8901,-0.1988 1.4865,0.0752 -0.4757,-0.0326 -0.6328,-0.1459 -1.1503,0.0254 -0.1407,0.0464 -0.355,0.1392 -0.4205,0.2301 -0.0782,0.1087 -0.1015,0.3464 -0.1233,0.498 0.6528,-0.2235 0.9077,-0.3383 1.6122,-0.051 -0.0919,0.0213 -0.4865,-0.0138 -0.6482,-0.0033 -0.1983,0.0125 -0.3988,0.0346 -0.573,0.1032 -0.5885,0.2305 -0.4579,0.4752 -0.4737,0.8908l-0.0618 -0.1085c-0.1412,-0.3693 0.038,-0.5489 -0.2113,-0.7816 -0.2519,-0.2343 -0.46,-0.2255 -0.7285,-0.3804 0.46,-0.0464 0.5668,0.0697 0.8767,0.2246l0.0882 -0.5437c-0.2038,-0.2519 -0.4107,-0.2824 -0.799,-0.386 0.3341,-0.0997 0.6506,0.025 0.8896,0.1454 0.3793,-0.5133 -0.1341,-0.5552 -0.4331,-0.7823 0.3316,-0.0288 0.5183,0.1119 0.6812,0.2409zm0.8621 -1.3477c-2.9989,0.8315 -3.1623,3.0886 -1.7146,3.541 0.2523,0.0789 0.2089,-0.0067 0.2494,0.2807 0.0446,0.3208 0.1153,0.4996 0.5893,0.4343 0.0622,-0.1737 -0.05,-0.3541 -0.0112,-0.6001 1.0992,-0.048 2.0846,-0.165 2.0068,-1.4014 -0.0283,-0.4519 -0.7952,-1.8093 -1.1197,-2.2545z"/>
   <path id="1" class="fil1" d="M3.2429 9.5528c0.1174,-0.1457 0.2677,-0.5187 0.551,-0.8319 -0.0915,0.2572 -0.2616,0.5053 -0.3358,0.7956 0.322,-0.099 0.8139,-0.2598 1.0817,0.0125 -0.3509,-0.0066 -0.5092,-0.0588 -0.8449,0.0786 -0.3359,0.137 -0.3906,0.2415 -0.4637,0.5484 0.6536,-0.218 0.8901,-0.1988 1.4865,0.0752 -0.4757,-0.0326 -0.6328,-0.1459 -1.1503,0.0254 -0.1407,0.0464 -0.355,0.1392 -0.4205,0.2301 -0.0782,0.1087 -0.1015,0.3464 -0.1233,0.498 0.6528,-0.2235 0.9077,-0.3383 1.6122,-0.051 -0.0919,0.0213 -0.4865,-0.0138 -0.6482,-0.0033 -0.1983,0.0125 -0.3988,0.0346 -0.573,0.1032 -0.5885,0.2305 -0.4579,0.4752 -0.4737,0.8908l-0.0618 -0.1085c-0.1412,-0.3693 0.038,-0.5489 -0.2113,-0.7816 -0.2519,-0.2343 -0.46,-0.2255 -0.7285,-0.3804 0.46,-0.0464 0.5668,0.0697 0.8767,0.2246l0.0882 -0.5437c-0.2038,-0.2519 -0.4107,-0.2824 -0.799,-0.386 0.3341,-0.0997 0.6506,0.025 0.8896,0.1454 0.3793,-0.5133 -0.1341,-0.5552 -0.4331,-0.7823 0.3316,-0.0288 0.5183,0.1119 0.6812,0.2409zm0.8621 -1.3477c-2.9989,0.8315 -3.1623,3.0886 -1.7146,3.541 0.2523,0.0789 0.2089,-0.0067 0.2494,0.2807 0.0446,0.3208 0.1153,0.4996 0.5893,0.4343 0.0622,-0.1737 -0.05,-0.3541 -0.0112,-0.6001 1.0992,-0.048 2.0846,-0.165 2.0068,-1.4014 -0.0283,-0.4519 -0.7952,-1.8093 -1.1197,-2.2545z"/>
  </g>
  <g>
   <path class="fil0 str1" d="M3.2429 9.5528c0.1174,-0.1457 0.2677,-0.5187 0.551,-0.8319 -0.0915,0.2572 -0.2616,0.5053 -0.3358,0.7956 0.322,-0.099 0.8139,-0.2598 1.0817,0.0125 -0.3509,-0.0066 -0.5092,-0.0588 -0.8449,0.0786 -0.3359,0.137 -0.3906,0.2415 -0.4637,0.5484 0.6536,-0.218 0.8901,-0.1988 1.4865,0.0752 -0.4757,-0.0326 -0.6328,-0.1459 -1.1503,0.0254 -0.1407,0.0464 -0.355,0.1392 -0.4205,0.2301 -0.0782,0.1087 -0.1015,0.3464 -0.1233,0.498 0.6528,-0.2235 0.9077,-0.3383 1.6122,-0.051 -0.0919,0.0213 -0.4865,-0.0138 -0.6482,-0.0033 -0.1983,0.0125 -0.3988,0.0346 -0.573,0.1032 -0.5885,0.2305 -0.4579,0.4752 -0.4737,0.8908l-0.0618 -0.1085c-0.1412,-0.3693 0.038,-0.5489 -0.2113,-0.7816 -0.2519,-0.2343 -0.46,-0.2255 -0.7285,-0.3804 0.46,-0.0464 0.5668,0.0697 0.8767,0.2246l0.0882 -0.5437c-0.2038,-0.2519 -0.4107,-0.2824 -0.799,-0.386 0.3341,-0.0997 0.6506,0.025 0.8896,0.1454 0.3793,-0.5133 -0.1341,-0.5552 -0.4331,-0.7823 0.3316,-0.0288 0.5183,0.1119 0.6812,0.2409zm0.8621 -1.3477c-2.9989,0.8315 -3.1623,3.0886 -1.7146,3.541 0.2523,0.0789 0.2089,-0.0067 0.2494,0.2807 0.0446,0.3208 0.1153,0.4996 0.5893,0.4343 0.0622,-0.1737 -0.05,-0.3541 -0.0112,-0.6001 1.0992,-0.048 2.0846,-0.165 2.0068,-1.4014 -0.0283,-0.4519 -0.7952,-1.8093 -1.1197,-2.2545zm0 0z"/>
   <path id="1" class="fil1" d="M3.2429 9.5528c0.1174,-0.1457 0.2677,-0.5187 0.551,-0.8319 -0.0915,0.2572 -0.2616,0.5053 -0.3358,0.7956 0.322,-0.099 0.8139,-0.2598 1.0817,0.0125 -0.3509,-0.0066 -0.5092,-0.0588 -0.8449,0.0786 -0.3359,0.137 -0.3906,0.2415 -0.4637,0.5484 0.6536,-0.218 0.8901,-0.1988 1.4865,0.0752 -0.4757,-0.0326 -0.6328,-0.1459 -1.1503,0.0254 -0.1407,0.0464 -0.355,0.1392 -0.4205,0.2301 -0.0782,0.1087 -0.1015,0.3464 -0.1233,0.498 0.6528,-0.2235 0.9077,-0.3383 1.6122,-0.051 -0.0919,0.0213 -0.4865,-0.0138 -0.6482,-0.0033 -0.1983,0.0125 -0.3988,0.0346 -0.573,0.1032 -0.5885,0.2305 -0.4579,0.4752 -0.4737,0.8908l-0.0618 -0.1085c-0.1412,-0.3693 0.038,-0.5489 -0.2113,-0.7816 -0.2519,-0.2343 -0.46,-0.2255 -0.7285,-0.3804 0.46,-0.0464 0.5668,0.0697 0.8767,0.2246l0.0882 -0.5437c-0.2038,-0.2519 -0.4107,-0.2824 -0.799,-0.386 0.3341,-0.0997 0.6506,0.025 0.8896,0.1454 0.3793,-0.5133 -0.1341,-0.5552 -0.4331,-0.7823 0.3316,-0.0288 0.5183,0.1119 0.6812,0.2409zm0.8621 -1.3477c-2.9989,0.8315 -3.1623,3.0886 -1.7146,3.541 0.2523,0.0789 0.2089,-0.0067 0.2494,0.2807 0.0446,0.3208 0.1153,0.4996 0.5893,0.4343 0.0622,-0.1737 -0.05,-0.3541 -0.0112,-0.6001 1.0992,-0.048 2.0846,-0.165 2.0068,-1.4014 -0.0283,-0.4519 -0.7952,-1.8093 -1.1197,-2.2545zm0 0z"/>
  </g>
  <path class="fil2" d="M9.6738 8.8507c0.059,0.2802 0.1015,0.3484 0.2248,0.505 0.2975,0.0473 0.3705,0.0408 0.5509,-0.1497 0.1032,-0.1088 0.2195,-0.2121 0.3292,-0.3305 -0.2824,-0.0555 -0.203,-0.1315 -0.468,-0.1631 -0.0456,0.1383 -0.0135,0.0993 -0.023,0.1422l-0.033 0.109c-0.2824,-0.0326 -0.2304,-0.0257 -0.288,-0.2812 -0.063,-0.2784 -0.0599,-0.1605 -0.1371,-0.3887 -0.0377,0.144 -0.0507,0.167 -0.0755,0.282 -0.0087,0.0382 -0.0221,0.1146 -0.03,0.1449 -0.0394,0.1461 0.0252,0.0286 -0.0503,0.1301zm1.6888 -3.9728c0,0.1016 -0.098,0.1523 -0.2945,0.1523 -0.1384,0 -0.2386,-0.0443 -0.3015,-0.1328 0,-1.6784 0.0637,-2.9608 0.1909,-3.8474 0.0608,0.0212 0.0963,0.0321 0.1072,0.0321 0.0164,0 0.0685,-0.0252 0.1535,-0.0764 0.085,-0.0517 0.1349,-0.0772 0.1501,-0.0772 0.0794,0 0.1193,0.053 0.1193,0.1579 0,0.6538 -0.0308,1.2724 -0.0938,1.8563 0.4096,-0.1167 1.017,-0.3609 1.8221,-0.7341 0.1015,0.1611 0.1514,0.286 0.1514,0.3744 -0.1457,0.1436 -0.3314,0.2573 -0.5557,0.341 -0.1601,0.0608 -0.3444,0.1306 -0.5553,0.2099 -0.21,0.0794 -0.3801,0.1702 -0.5093,0.2708 0.1449,0.0781 0.3744,0.1873 0.688,0.3288l0.8065 0.3735c0.2937,0.1345 0.5466,0.2803 0.7609,0.4381 0.0815,0.0266 0.1223,0.0773 0.1223,0.1527 0,0.0972 -0.0885,0.1888 -0.265,0.2725 -0.1103,-0.0451 -0.5024,-0.2308 -1.1783,-0.5552 -0.4728,-0.2287 -0.8837,-0.3788 -1.2324,-0.4508 -0.0022,0.272 -0.0043,0.4265 -0.0065,0.465 -0.0114,0.1957 -0.0378,0.3458 -0.0799,0.4486zm-3.9841 3.7655c0.0708,0.0286 0.102,-0.0512 0.0664,0.3209 -0.0711,0.7453 -0.3249,1.8872 0.5284,1.7817 0.0108,-0.1964 -0.0491,-0.236 -0.0773,-0.4351 -0.0264,-0.186 -0.0225,-0.4038 -0.016,-0.5926 0.0126,-0.3526 0.043,-0.7413 0.0747,-1.0844 0.0273,-0.3172 0.0138,-0.0313 -0.1215,-0.0669 -0.1709,-0.0442 -0.2508,0 -0.3544,0.0377 -0.0079,0.0031 -0.0234,0.0087 -0.03,0.0114l-0.0703 0.0273zm0.3158 -5.6552c0.0993,0.0395 0.1437,-0.0724 0.0934,0.4525 -0.1003,1.0516 -0.4581,2.6632 0.7457,2.5144 0.0155,-0.2772 -0.069,-0.3332 -0.109,-0.6139 -0.0373,-0.2629 -0.0316,-0.57 -0.0221,-0.8364 0.0178,-0.498 0.0608,-1.0468 0.105,-1.5304 0.0386,-0.4477 0.02,-0.0444 -0.1714,-0.0942 -0.2415,-0.0629 -0.3535,-0.0005 -0.5005,0.0534 -0.0104,0.0039 -0.0325,0.0121 -0.0418,0.0156l-0.0993 0.039zm-0.0663 5.4921c-0.131,-0.1787 -0.1917,-0.4334 -0.1241,-0.7367 0.1509,-0.6754 0.8342,-0.6077 0.5748,0.2538 -0.0772,0.2564 -0.1704,0.4902 -0.4507,0.4829zm0.4182 -5.8682c-0.1848,-0.2515 -0.2708,-0.6113 -0.1752,-1.0389 0.2129,-0.9536 1.1772,-0.8577 0.8111,0.3582 -0.1089,0.3609 -0.2403,0.6916 -0.6359,0.6807zm-1.6034 0.6369c-0.1601,0.0993 -0.3249,0.4984 -0.4082,0.7096l-0.1579 0.2733 0.0117 -0.6823c-0.0178,-0.436 -0.0364,-0.6663 -0.2039,-1.0247 -0.2529,-0.3275 -0.5735,-0.4403 -1.0285,-0.2091 -0.0339,0.2494 -0.0534,0.1185 0.0512,0.2967 0.7929,0.2426 0.4381,2.0893 0.373,2.7279 -0.0248,0.311 -0.2109,1.0059 -0.0295,1.2181 0.1306,0.1565 0.5158,0.2486 0.6385,-0.1844l0.2253 -0.9929c0.1231,-0.1849 0.2328,-0.9089 0.4276,-1.1076l0.1281 -0.3175 0.0217 0.6559 -0.043 0.6164c-0.0451,0.3267 -0.1883,0.931 -0.1124,1.2229 0.3466,0.0282 0.4157,-0.2047 0.5409,-0.508 0.1017,-0.246 0.2014,-0.5314 0.2079,-0.8038 0.1427,-0.1493 0.0815,-0.4898 0.2165,-0.6784l-0.0048 -0.2348c0.0551,-0.2772 0.0972,-0.852 0.0512,-1.1305l-0.1249 -0.3788c-0.3909,-0.0672 -0.6968,0.2756 -0.7805,0.532zm-4.1476 2.2089l-0.0022 0.1063c-0.1323,0.7487 0.1835,1.6216 0.6694,1.8437l0.0446 0.0759 0.5553 0.0616c0.4802,-0.1006 0.8347,-0.3059 0.9731,-0.675 0.2277,-0.144 0.5453,-1.0355 0.3392,-1.3695 -0.3753,0.0061 -0.1401,0.1766 -0.5101,0.6169 -0.1727,0.2055 -0.3753,0.4606 -0.7458,0.3166 -1.1509,-0.4472 -0.177,-2.0411 0.0365,-2.6298l0.2025 -0.1561c0.1002,-0.0681 0.0933,-0.0565 0.2139,-0.0599 0.0074,0.0004 0.0256,0.003 0.0378,0.0074 0.0876,0.2329 0.0264,0.3487 0.0034,0.5952l0.0347 0.1596c0.3991,0.0186 0.6516,-0.4998 0.6469,-0.8797 0.1769,-0.2061 0.1969,-0.5944 -0.0872,-0.7466 -0.8504,-0.3393 -2.2871,1.6988 -2.412,2.7334zm7.7604 -3.3703c-0.141,0.1579 -0.3493,0.2534 -0.4985,0.4134 -0.085,0.0915 -0.1271,0.1406 -0.2147,0.2374 -0.1006,0.111 -0.0824,0.1292 -0.1661,0.1557 -0.0955,0.2243 -0.2382,0.4203 -0.3081,0.6767l-0.0342 0.0508c-0.489,2.6553 1.4979,1.8936 1.5908,0.9834l-0.0278 -0.0845 -0.2794 -0.0266 -0.1657 0.1363c-0.3523,0.1966 -0.413,-0.1211 -0.4998,-0.3375l-0.0077 -0.2235c-0.0269,-0.4906 0.1492,-1.071 0.4494,-1.3369 0.0811,0.2017 -0.053,0.2611 0.0078,0.481l0.0408 0.0833c0.1505,0.3241 0.4346,-0.2863 0.4893,-0.4233l0.1466 -0.2764c-0.0594,-0.5275 0.0265,-0.5006 -0.5227,-0.5093zm3.326 4.6344l0.0573 0.331 -0.2725 0.1098c0.0127,0.0299 0.0864,-0.0473 0.0052,0.1939 -0.0737,0.2199 -0.2438,0.0885 -0.2624,0.0867 -0.0915,0.0803 -0.0217,0.0014 -0.1181,0.1302 -0.0428,0.0576 -0.0615,0.1006 -0.0884,0.1423 -0.075,0.1153 -0.0741,0.1297 -0.1706,0.1874l0 0.0806 0.2781 0.6495 0.1488 -0.1966c0.2729,-0.1595 0.3575,-0.5865 0.637,-0.7895l0.203 -0.4936 0.0633 -0.4069 -0.138 -0.0209c-0.1132,0.1914 -0.0113,0.1206 -0.1788,0.1679 -0.0767,-0.1436 -0.006,-0.0668 -0.1639,-0.1718zm-0.567 -1.3456c0.1913,0.0794 0.2368,0.2507 0.2637,0.3188 0.2005,-0.1137 0.1497,-0.1492 0.2877,-0.289 0.1288,-0.1304 0.1405,-0.1409 0.2438,-0.2554l-0.0534 -0.2282c-0.2806,-0.023 -0.5821,0.2659 -0.7418,0.4538zm-4.0149 2.3989c0.0994,0.0399 0.1432,-0.0724 0.0933,0.4529 -0.1002,1.0511 -0.4581,2.6632 0.7457,2.5139 0.0156,-0.2767 -0.0689,-0.3331 -0.1089,-0.6138 -0.0378,-0.2624 -0.0321,-0.5696 -0.0226,-0.8359 0.0178,-0.4985 0.0608,-1.0468 0.1051,-1.5305l0.0225 -0.2599c-0.1284,0.157 -0.1076,-0.2156 -0.1076,0.2234 0.0052,-0.0061 0.1887,0.0134 -0.086,-0.0581 -0.2415,-0.0629 -0.3539,0 -0.5005,0.0533 -0.0108,0.0039 -0.0329,0.0126 -0.042,0.0161l-0.099 0.0386zm2.9347 1.173c-0.0759,0.2238 -0.0004,0.0247 -0.1349,0.1822 -0.0451,0.0525 -0.1336,0.0516 -0.0976,0.2113 0.0494,0.2178 0.2667,0.1115 0.406,0.0126 0.2048,-0.0846 0.7983,-0.5813 0.9023,-0.721l-0.2781 -0.6495c-0.2372,0.3593 -0.4806,0.7605 -0.7977,0.9644zm0.967 -3.5537c-0.1488,0.2724 -0.3982,0.4155 -0.5457,0.7635 0.0655,0.104 0.0676,0.1917 0.2273,0.2329 0.016,0.004 0.0321,0.0083 0.049,0.0095 0.288,0.0266 0.2398,-0.1045 0.2642,-0.1657 0.0573,0.3332 -0.0394,-0.0199 0.121,0.1215 0.062,-0.3557 0.2204,-0.4217 0.2611,-0.6611 -0.0269,-0.0681 -0.0724,-0.2394 -0.2637,-0.3188l-0.1132 0.0182zm-6.9557 5.3475l0.2911 0.0747c0.0855,-0.0993 0.0725,-0.1168 0.1713,-0.1254 0.0387,-0.6104 -0.0239,-1.3179 0.134,-1.898 0.1814,-0.6654 0.5441,-0.8211 0.7727,-1.2093 -0.2092,-0.1325 -0.3141,-0.0317 -0.361,-0.3047 -0.1964,0.1445 -0.2169,0.2109 -0.3574,0.4417 -0.2438,-0.1662 -0.4446,-0.1944 -0.757,-0.0808 -0.1514,0.7168 -0.2686,2.4758 0.1063,3.1018zm3.1994 -3.785c-0.1736,0.2474 -0.5735,0.1189 -0.5362,0.9722 0.1817,0.0348 0.2997,0.0282 0.3908,-0.154l0.099 -0.0386c0.0091,-0.0035 0.0312,-0.0122 0.042,-0.0161 0.1466,-0.0533 0.259,-0.1162 0.5005,-0.0533 0.2747,0.0715 0.0912,0.052 0.086,0.0581 0,-0.439 -0.0208,-0.0664 0.1076,-0.2234 0.0516,-0.3353 0.0381,-0.2078 0.3336,-0.3431 0.2269,-0.1042 0.2351,-0.207 0.151,-0.4191 -0.2526,-0.1045 -0.1957,-0.0226 -0.4477,-0.0455 -0.0057,-0.1411 -0.0074,-0.2863 -0.0277,-0.4256 -0.0917,-0.629 -0.5827,-0.2685 -0.5922,-0.2533 -0.0825,0.1288 0.0494,0.7942 -0.1067,0.9417zm-2.1913 0.3223c0.0469,0.273 0.1518,0.1722 0.361,0.3047 0.1592,-0.0365 0.1656,-0.0912 0.3322,-0.2023 0.908,-0.6051 1.2967,-0.1882 1.2815,-0.599 -0.0094,-0.2638 -0.4875,-0.5128 -1.0784,-0.2612l-0.7605 0.5266c-0.045,0.0461 -0.0589,0.0595 -0.095,0.1224 -0.0663,0.1145 -0.0121,-0.0235 -0.0408,0.1088zm3.7365 1.2659c-0.3341,-0.5245 0.2194,-1.5777 0.5774,-1.7539 -0.0391,0.5974 -0.0382,1.665 -0.5774,1.7539zm-0.767 -0.3995l-0.0495 0.7049c0.0755,-0.1015 0.0109,0.016 0.0503,-0.1301 0.0079,-0.0303 0.0213,-0.1067 0.03,-0.1449 0.0248,-0.115 0.0378,-0.138 0.0755,-0.282 0.0772,0.2282 0.0741,0.1103 0.1371,0.3887 0.0576,0.2555 0.0056,0.2486 0.288,0.2812l0.033 -0.109c0.0095,-0.0429 -0.0226,-0.0039 0.023,-0.1422 0.265,0.0316 0.1856,0.1076 0.468,0.1631 0.089,-0.1233 0.0764,-0.1384 0.2034,-0.2382 0.2171,0.2291 0.2929,0.39 0.6959,0.2299 0.0838,-0.1887 -0.0121,-0.9964 0.0157,-1.3114 0.0351,-0.4009 0.1452,-0.878 0.0615,-1.2723 -0.2017,-0.9549 -1.6246,-0.6595 -1.5005,-0.2391 0.1527,0.1931 1.1926,-0.0781 0.3392,0.7891l-0.6125 0.8434c-0.0741,0.144 -0.1497,0.3614 -0.2581,0.4689zm3.142 -0.8091l0.0439 0.1067c0.0186,0.0018 0.1887,0.1332 0.2624,-0.0867 0.0812,-0.2412 0.0075,-0.164 -0.0052,-0.1939l0.2725 -0.1098 -0.0573 -0.331c-0.0958,-0.1301 -0.121,-0.1856 -0.118,-0.4242l-0.4464 0.0585c-0.1604,-0.1414 -0.0637,0.2117 -0.121,-0.1215 -0.0244,0.0612 0.0238,0.1923 -0.2642,0.1657 -0.0169,-0.0012 -0.033,-0.0055 -0.049,-0.0095 -0.1597,-0.0412 -0.1618,-0.1289 -0.2273,-0.2329 -0.1241,0.0455 -0.3098,0.3757 -0.2109,0.721 0.3011,0.1544 0.6906,0.0143 1.0681,0.0481 -0.0282,0.2473 -0.0234,0.282 -0.1476,0.4095zm0.5163 -0.6147c0.1579,0.105 0.0872,0.0282 0.1639,0.1718 0.1675,-0.0473 0.0656,0.0235 0.1788,-0.1679l0.138 0.0209 -0.0057 0.0073 -0.0234 -0.3631c-0.1735,-0.0468 -0.3549,-0.1011 -0.5696,-0.0932 -0.003,0.2386 0.0222,0.2941 0.118,0.4242z"/>
  <path class="fil2" d="M13.4547 2.8195c0.0589,0.2802 -0.6382,2.5674 0.9673,1.5128 0.6625,-0.4507 1.5592,-2.6222 0.1876,-2.8394 -1.2568,-0.1027 -0.9916,0.9415 -1.1549,1.3266zm0.6558 1.0128c-0.1784,-0.2423 -0.2611,-0.5885 -0.1687,-1.0002 0.205,-0.9181 1.133,-0.8258 0.7806,0.3449 -0.1049,0.3479 -0.2315,0.6658 -0.6119,0.6553z"/>
  <path class="fil3" d="M1.5087 10.0712c-0.2076,-0.0034 -0.4414,-0.0012 -0.687,0.2234 0.375,-0.0016 0.8081,-0.281 0.8194,0.3571 -0.2627,0.0502 -0.5898,0.1438 -0.794,0.4261 0.3709,-0.1542 0.5534,-0.2556 0.8688,-0.18l0.261 0.4849c-0.3399,0.066 -0.4957,0.0389 -0.8324,0.3558 0.3074,-0.0408 0.4673,-0.1745 0.8094,-0.142 0.3396,0.0331 0.3067,0.2845 0.6437,0.4917l0.1148 0.0484c-0.2401,-0.3396 -0.4928,-0.454 -0.1661,-0.9949 0.0964,-0.1604 0.2422,-0.3003 0.3917,-0.4311 0.1219,-0.1065 0.4561,-0.319 0.5163,-0.3917 -0.734,0.2009 -0.8663,0.4474 -1.2481,1.0216 -0.0751,-0.1332 -0.2013,-0.3358 -0.205,-0.4699 -0.0034,-0.1119 0.1098,-0.3162 0.1933,-0.4385 0.3062,-0.4507 0.5,-0.4565 0.8972,-0.7205 -0.6399,0.1458 -0.8392,0.2744 -1.225,0.8454 -0.1291,-0.2883 -0.1491,-0.4044 0.0337,-0.7171 0.183,-0.3138 0.3401,-0.3685 0.6225,-0.5769 -0.3776,-0.053 -0.6705,0.3738 -0.8659,0.6486 -0.1175,-0.2757 -0.1337,-0.5763 -0.2176,-0.8357 -0.0338,0.4206 0.0734,0.8086 0.0693,0.9953z"/>
  <path class="fil0" d="M1.5087 10.0712c-0.2076,-0.0034 -0.4414,-0.0012 -0.687,0.2234 0.375,-0.0016 0.8081,-0.281 0.8194,0.3571 -0.2627,0.0502 -0.5898,0.1438 -0.794,0.4261 0.3709,-0.1542 0.5534,-0.2556 0.8688,-0.18l0.261 0.4849c-0.3399,0.066 -0.4957,0.0389 -0.8324,0.3558 0.3074,-0.0408 0.4673,-0.1745 0.8094,-0.142 0.3396,0.0331 0.3067,0.2845 0.6437,0.4917l0.1148 0.0484c-0.2401,-0.3396 -0.4928,-0.454 -0.1661,-0.9949 0.0964,-0.1604 0.2422,-0.3003 0.3917,-0.4311 0.1219,-0.1065 0.4561,-0.319 0.5163,-0.3917 -0.734,0.2009 -0.8663,0.4474 -1.2481,1.0216 -0.0751,-0.1332 -0.2013,-0.3358 -0.205,-0.4699 -0.0034,-0.1119 0.1098,-0.3162 0.1933,-0.4385 0.3062,-0.4507 0.5,-0.4565 0.8972,-0.7205 -0.6399,0.1458 -0.8392,0.2744 -1.225,0.8454 -0.1291,-0.2883 -0.1491,-0.4044 0.0337,-0.7171 0.183,-0.3138 0.3401,-0.3685 0.6225,-0.5769 -0.3776,-0.053 -0.6705,0.3738 -0.8659,0.6486 -0.1175,-0.2757 -0.1337,-0.5763 -0.2176,-0.8357 -0.0338,0.4206 0.0734,0.8086 0.0693,0.9953zm0 0z"/>
  <path class="fil4" d="M18.6623 7.7084c-0.2259,-0.0467 -0.4076,0.1395 -0.4557,0.3015 -0.0697,0.2386 0.0435,0.3902 0.2703,0.4553 0.484,0.1395 0.6854,-0.6536 0.1854,-0.7568zm-1.4769 -0.0631c-0.205,-0.0488 -0.3496,0.1354 -0.4105,0.2677 -0.031,0.0669 -0.0774,0.2323 -0.0118,0.2845 0.2774,0.2201 0.6299,0.079 0.6879,-0.1311 0.0439,-0.1579 -0.0734,-0.3747 -0.2656,-0.4211zm2.9375 -0.3876c-0.1904,-0.0375 -0.4122,0.0806 -0.4422,0.3179 -0.016,0.1236 0.0283,0.2318 0.0872,0.3024 0.1299,0.1558 0.4102,0.1687 0.5497,0.0267 0.066,-0.0668 0.2093,-0.2962 0.1299,-0.4001 -0.0814,-0.1069 -0.1654,-0.2156 -0.3246,-0.2469zm0.9365 -0.8659c-0.2343,-0.0237 -0.3848,0.0949 -0.4076,0.3096 -0.0252,0.2359 0.1181,0.3779 0.337,0.388 0.2314,0.0105 0.3437,-0.1308 0.3981,-0.3333 0.0366,-0.1366 0.0171,-0.1842 -0.0686,-0.2577 -0.0626,-0.0543 -0.1495,-0.0957 -0.2589,-0.1066zm-4.1296 -0.6236c0.2309,0.3054 0.6336,0.7561 0.9515,0.9231 0.4644,0.2443 0.5969,-0.2785 0.5976,-0.7016 0.0009,-0.3066 -0.0943,-0.711 -0.2012,-0.9836 -0.0502,-0.1291 0.0099,-0.178 -0.0514,-0.1597 -0.0288,0.0088 -0.0235,0.0469 -0.0422,0.0769 -0.1036,0.1629 -0.6901,0.2068 -0.9754,0.3133 -0.1177,0.0438 -0.225,0.0815 -0.3407,0.1282 -0.0598,0.0247 -0.2874,0.1282 -0.3451,0.099 -0.0075,-0.0723 0.107,-0.0773 0.0962,-0.1591 -0.0456,-0.0122 -0.0469,0 -0.1107,0.061 -0.0247,0.0234 -0.0694,0.0718 -0.0381,0.1231 0.0572,0.0927 0.1775,0.0097 0.2686,-0.0066 0.0296,0.0785 0.1424,0.2222 0.1909,0.286zm-0.9665 -0.2593c0.046,0.008 0.2005,-0.076 0.248,-0.0977 0.0844,-0.0385 0.1525,-0.074 0.2369,-0.1145 0.0405,-0.0191 0.0798,-0.0318 0.1233,-0.0581 0.045,-0.0271 0.0263,-0.0752 0.0224,-0.1323 -0.025,-0.3914 -0.0923,-1.223 -0.2873,-1.4727 -0.117,-0.1496 -0.3367,-0.1617 -0.4448,0.0484 -0.1007,0.1955 -0.0994,0.3692 -0.0856,0.6127 0.0125,0.2138 0.1082,1.0751 0.1871,1.2142zm3.6421 -1.1457c0.0122,-0.0948 -0.0743,-0.4695 -0.0998,-0.5764 -0.0743,-0.3111 -0.2079,-0.7213 -0.4123,-0.9573 -0.1072,-0.1236 -0.2167,-0.2201 -0.4744,-0.2051 -0.8587,0.0497 -0.36,1.7656 -0.2327,1.966 0.0547,0.0059 1.1703,-0.1945 1.2192,-0.2272zm5.1747 6.4844c-0.1408,0.0894 -0.7619,0.252 -0.9637,0.2749 -0.4527,0.0518 -0.5655,-0.0705 -0.8069,0.4298 -0.0651,0.1357 -0.1416,0.3078 -0.2385,0.3742 -0.1086,0.074 -0.3596,0.1028 -0.5133,0.1082 -0.9098,0.0326 -1.1904,-0.0777 -1.976,-0.4886 -0.2849,-0.1492 -0.5835,-0.305 -0.9778,-0.1843 -0.2891,0.0886 -1.0618,0.5802 -1.3149,0.5397 -0.1988,-0.0322 -0.3914,-0.1729 -0.4381,-0.1746 -0.0142,-0.0614 -0.0484,-0.1366 -0.0681,-0.2026 -0.0714,-0.2414 -0.1186,-0.3914 -0.1529,-0.6591 -0.0175,-0.1374 -0.0246,-0.1278 0.0464,-0.2059 0.1098,-0.1211 0.3182,-0.2898 0.4987,-0.3179 -0.018,0.0798 -0.0497,0.1534 -0.0681,0.2439 -0.038,0.1876 -0.0384,0.3768 -0.0242,0.5686 0.0033,0.0463 0.0084,0.0914 0.013,0.1365 0.0057,0.0564 -0.0046,0.0973 0.0572,0.0872 0.0154,-0.0438 -0.0118,-0.215 -0.016,-0.2794 -0.0412,-0.6281 0.191,-1.1106 0.6771,-1.4822 0.4675,-0.3568 1.1178,-0.4541 1.6578,-0.1412 0.0727,0.0421 0.1662,0.116 0.193,0.0906 0.0247,-0.0238 0.0129,-0.0342 -0.0377,-0.0656 -0.4494,-0.2778 -0.9025,-0.3667 -1.4217,-0.1687 -0.1871,0.071 -0.4594,0.2364 -0.5839,0.3717 -0.0392,0.0426 -0.0832,0.0777 -0.1203,0.1228 -0.0363,0.0443 -0.0689,0.0831 -0.1044,0.1304 -0.0743,0.0993 -0.1624,0.2656 -0.1804,0.2885l-0.0272 -0.028c-0.0092,-0.012 -0.0109,-0.0158 -0.023,-0.0308 -0.015,-0.0197 -0.0293,-0.038 -0.0475,-0.0606l-0.1542 -0.1608c-0.0171,-0.0151 -0.0397,-0.0309 -0.061,-0.0477 -0.5501,-0.4289 -0.4127,0.5898 -0.355,0.8045 0.0489,0.1821 0.0355,0.3546 0.1432,0.7047 0.0172,0.0559 0.0961,0.2818 0.097,0.3166 0.015,0.0671 -0.1463,0.309 -0.2085,0.3708 -0.0393,0.0393 -0.2472,0.2807 -0.3169,0.2577 -0.0326,-0.0204 -0.1446,-0.2272 -0.1755,-0.2777 -0.0456,-0.0743 -0.0414,-0.0736 -0.0535,-0.1692 -0.0769,-0.6277 -0.0167,-1.3365 -0.0105,-1.9776 0.0026,-0.2916 0.0097,-0.5865 -0.0263,-0.8723 -0.1115,-0.8753 -0.2112,-1.4167 -0.4941,-2.2182 -0.0819,-0.2318 -0.1624,-0.4194 -0.2301,-0.6721 -0.1424,-0.532 -0.2377,-0.9719 -0.2497,-1.5642 -0.0109,-0.5513 0.0898,-1.0876 0.3366,-1.4781 0.0994,-0.1567 0.269,-0.378 0.416,-0.4941 0.2281,-0.1796 0.2647,-0.2193 0.5463,-0.3546 0.8103,-0.3902 1.7263,-0.4064 2.5081,0.0814 0.4599,0.287 0.7886,0.7318 1.0539,1.2084 0.1532,0.2756 0.3834,0.9435 0.5225,1.2885 0.089,0.2209 0.1737,0.4236 0.261,0.6403 0.0568,0.1416 0.5075,1.1256 0.571,1.2405 0.1662,0.3029 0.3154,0.5722 0.5238,0.8371 0.1537,0.1954 0.2443,0.3308 0.4323,0.4694 0.3378,0.249 0.6704,0.5543 0.9251,0.886 0.338,0.4397 0.606,0.9873 0.6316,1.6238 -0.0618,-0.0195 -0.2962,-0.147 -0.3672,-0.185l-0.2581 -0.1562c-0.0084,-0.0054 -0.0368,-0.0267 -0.0443,-0.0304 -0.0121,-0.0059 -0.0322,-0.0147 -0.0464,0.0007 -0.0208,0.0447 0.0611,0.0794 0.0977,0.1036 0.1459,0.0957 0.2574,0.1504 0.4152,0.234 0.0848,0.045 0.5331,0.2618 0.5314,0.3127z"/>
  <path class="fil1" d="M26.3706 6.6367c-0.0134,-0.0234 -0.0318,-0.6771 -0.0443,-0.7837 -0.0162,-0.1336 -0.0727,-0.5246 -0.1575,-0.6495 -0.0007,-0.0016 -0.0042,-0.0024 -0.0046,-0.0061 -0.0008,-0.0039 -0.0033,-0.0042 -0.0054,-0.0059 -0.0246,-0.1466 -0.0589,-0.3103 -0.0994,-0.452l-0.0998 -0.3145c-0.015,-0.0438 -0.0159,-0.0819 -0.0606,-0.0701 -0.0313,0.0309 0.0055,0.0894 0.0171,0.1223 0.2765,0.782 0.2824,1.5583 0.1571,2.3799 -0.0488,0.32 -0.1985,1.1837 -0.3655,1.4277 -0.0522,0.0756 -0.1708,0.2455 -0.2309,0.3095 -0.0527,0.0564 -0.2131,0.2556 -0.264,0.2815l0.0162 -0.1566c0.0857,-0.0689 0.2231,-0.6103 0.2524,-0.7702 0.0546,-0.2995 0.0609,-0.632 0.0053,-0.9335 -0.0693,-0.3759 -0.3454,-1.1796 -0.596,-1.4314 -0.117,-0.1178 -0.1131,-0.1257 -0.2669,-0.2465 -0.0935,-0.0734 -0.1913,-0.1391 -0.2911,-0.2134 -0.0965,-0.0718 -0.1959,-0.1437 -0.2899,-0.2151 -0.2088,-0.1587 -0.3662,-0.3024 -0.5563,-0.4527 -0.251,-0.1985 -0.4983,-0.561 -0.6734,-0.8408 -0.1315,-0.2101 -0.2509,-0.4273 -0.3787,-0.6399 -0.0656,-0.1086 -0.1279,-0.2084 -0.1955,-0.3091 -0.0676,-0.0998 -0.1241,-0.2105 -0.1896,-0.3154 -0.1404,-0.2234 -0.2882,-0.3929 -0.4457,-0.5634 -0.0885,-0.0961 -0.1654,-0.1625 -0.2585,-0.246 -0.0898,-0.0806 -0.1755,-0.1504 -0.2816,-0.2235 -0.3872,-0.2669 -0.8837,-0.5033 -1.479,-0.548 -0.5296,-0.0401 -1.0208,0.0302 -1.4893,0.2607l-0.1233 0.0677c-0.0414,0.0217 -0.0284,0.0187 -0.0364,0.0042 0.0243,-0.026 0.0343,-0.0293 0.0572,-0.0482 0.0243,-0.0204 0.0398,-0.0342 0.0644,-0.0526 0.3267,-0.2447 0.6069,-0.4163 1.0007,-0.5772 0.5727,-0.2335 0.9161,-0.2765 1.5451,-0.2427 0.6661,0.0355 0.9101,0.0861 1.5382,0.2653 0.2327,0.0664 0.4503,0.1525 0.6575,0.2443 0.1186,0.0526 0.3346,0.1621 0.4444,0.2314 0.0405,0.0259 0.0953,0.0778 0.1453,0.0669 0.0088,-0.0522 -0.0384,-0.0698 -0.1144,-0.1157 -0.1926,-0.1175 -0.2861,-0.1546 -0.4904,-0.2532 -0.1925,-0.2034 -0.4606,-0.3303 -0.7364,-0.4302l-0.2827 -0.0919c-0.0012,-0.0033 -0.0046,-0.0028 -0.007,-0.0041l0.0442 0.0033c0.0919,-0.0138 0.4887,0.0777 0.5952,0.1036 0.1908,0.0455 0.3675,0.1048 0.5434,0.1679 0.2782,0.0998 0.7343,0.3061 0.9761,0.4478 0.1512,0.0885 0.3037,0.1858 0.4281,0.2835 0.0693,0.0548 0.1311,0.1007 0.1984,0.1534 0.1454,0.1135 0.3266,0.2982 0.4616,0.4306 0.0859,0.0843 0.3357,0.3897 0.4051,0.487 0.4468,0.6282 0.7435,1.2225 0.9264,2.0014 0.0062,0.0263 0.0121,0.0473 0.018,0.0732 0.0848,0.3717 0.1315,0.7167 0.1499,1.1026 0.023,0.4791 -0.0296,0.8505 -0.1332,1.2874z"/>
  <path class="fil5" d="M17.5509 11.7269c0.0467,0.0017 0.2393,0.1424 0.4381,0.1746 0.2531,0.0405 1.0258,-0.4511 1.3149,-0.5397 0.3943,-0.1207 0.6929,0.0351 0.9778,0.1843 0.7856,0.4109 1.0662,0.5212 1.976,0.4886 0.1537,-0.0054 0.4047,-0.0342 0.5133,-0.1082 0.0969,-0.0664 0.1734,-0.2385 0.2385,-0.3742 0.2414,-0.5003 0.3542,-0.378 0.8069,-0.4298 0.2018,-0.0229 0.8229,-0.1855 0.9637,-0.2749 -0.061,0.218 -0.4119,0.5318 -0.5932,0.6659 -0.1194,0.0885 -0.2439,0.172 -0.3767,0.2539 -0.0702,0.0434 -0.1286,0.0802 -0.1967,0.1186 -0.0267,0.0155 -0.1596,0.0751 -0.163,0.1073 -0.0046,0.0427 0.0013,0.016 0.0092,0.0251 0.0469,0.0397 0.7047,-0.4147 0.7949,-0.4824 0.0393,-0.0296 0.061,-0.0552 0.1057,-0.0793 -0.0242,0.129 -0.1508,0.3471 -0.2147,0.4389 -0.1616,0.2331 -0.4256,0.4757 -0.6562,0.6328 -0.7434,0.5063 -1.5637,0.6432 -2.5274,0.6879 -0.4088,0.0192 -0.8257,-0.0037 -1.2221,-0.0639 -0.259,-0.0392 -0.6186,-0.1315 -0.8191,-0.1545 -0.2819,-0.0326 -0.2555,0.0451 -0.5208,0.1094 -0.0681,0.0167 -0.071,0.0242 -0.1278,-0.0108 -0.1575,-0.0974 -0.274,-0.2502 -0.3592,-0.4428 -0.1195,-0.269 -0.2468,-0.6433 -0.3621,-0.9268z"/>
  <path class="fil3" d="M16.9085 12.4035c-0.028,-0.0484 -0.0627,-0.0952 -0.0935,-0.1479 -0.0255,-0.0438 -0.0682,-0.1253 -0.0962,-0.1541 -0.0454,0.0927 -0.1896,0.3721 -0.2,0.4766l0.0196 0.0055c0.0242,0.0258 0.0877,0.0355 0.1228,0.0412 0.1082,0.0177 0.3639,0.0293 0.4419,-0.0108 -0.0188,-0.0242 -0.0292,-0.0229 -0.0522,-0.0447 -0.0773,-0.0738 -0.0722,-0.0747 -0.1295,-0.1499 -0.0109,-0.0146 -0.0058,-0.0076 -0.0129,-0.0159zm4.0899 -12.4167l-0.003 0c-0.5446,0.0004 -1.1297,0.1044 -1.6485,0.2685l-0.1679 0.0573c-0.165,0.0547 -0.3309,0.1262 -0.4825,0.2114l-0.4799 0.286c-0.1394,0.0869 -0.2568,0.2 -0.385,0.2999 -0.0355,0.0272 -0.0484,0.0439 -0.0802,0.0731 -0.0055,0.0051 -0.0101,0.0088 -0.0142,0.0126l-0.0092 0.0087c-0.1049,0.0965 -0.1282,0.1324 -0.2059,0.2088 -0.0305,0.0297 -0.0426,0.0514 -0.0723,0.0811l-0.0706 0.0826c-0.0684,0.0874 -0.1324,0.1755 -0.1867,0.2728l-0.1712 0.2886c-0.0606,0.1086 -0.0288,0.1003 -0.1474,0.1592 -0.0761,0.0376 -0.1267,0.0706 -0.1922,0.114 -0.1546,0.1032 -0.2164,0.1755 -0.3475,0.2831l-0.1378 0.1509c-0.0464,0.0584 -0.0894,0.1094 -0.1325,0.1738 -0.2773,0.4159 -0.4006,0.8679 -0.4006,1.4292 0,0.2218 0.0022,0.4637 0.0298,0.6734 0.0371,0.2781 0.0434,0.3341 0.0973,0.5968l0.0522 0.218c0.0422,0.1416 0.0718,0.2932 0.1148,0.4348l0.0305 0.1049c-0.1403,0.0325 -0.2581,0.045 -0.4055,0.045 -0.2181,0 -0.533,-0.0546 -0.6487,-0.0542 -0.114,0.0004 -0.218,-0.0184 -0.3337,-0.018 -0.1174,0.0008 -0.2522,-0.0568 -0.2522,0.0814 0,0.1191 0.0425,0.2168 0.0822,0.3229 0.0074,0.0204 0.0171,0.0364 0.0258,0.0555 0.0172,0.0385 0.0285,0.0665 0.0482,0.1053 0.1332,0.2661 0.4606,0.6892 0.6619,0.9151 0.0756,0.0852 0.1446,0.1717 0.2251,0.2528 0.0285,0.0283 0.0414,0.0509 0.0719,0.0809l0.2364 0.241c0.03,0.023 0.051,0.0464 0.079,0.0745l0.1624 0.1532c0.1091,0.1115 0.3079,0.2673 0.4345,0.3584 0.0914,0.0655 0.1786,0.1269 0.2794,0.1804 0,0.1156 0.0091,0.1984 0.0091,0.3154l-0.0091 0.5496c-0.0029,0.056 0,0.1233 0.0004,0.1805 0.0004,0.0672 -0.0097,0.0947 -0.0092,0.162 0.0013,0.2401 -0.0272,0.9531 0.0013,1.2066 0.0121,0.1074 0.0346,0.2336 0.0346,0.3438 0,0.0343 -0.2344,0.4498 -0.2344,0.5677 0,0.083 0.3593,0.1082 0.4236,0.1082 0.2138,0 0.2314,-0.0376 0.368,-0.0556l0.3554 -0.0594c0.0789,-0.0171 0.1445,-0.0333 0.2047,-0.0651 0.0543,0.2323 0.2397,0.5138 0.4565,0.6341 0.0919,0.0505 0.0577,0.0317 0.1587,0.0079l0.3221 -0.1103c0.1111,0 0.2263,0.008 0.3311,0.0292l0.2089 0.0435c0.4486,0.0902 0.8692,0.1524 1.3345,0.1524l0.3262 0c0.0894,-0.0008 0.1738,-0.0037 0.231,-0.0103 0.0563,-0.0063 0.1291,-0.0126 0.1904,-0.0168 0.1821,-0.0125 0.3697,-0.0384 0.5493,-0.0634 0.1161,-0.016 0.2272,-0.0406 0.3396,-0.0661 0.2911,-0.0664 0.5693,-0.1578 0.8353,-0.291l0.2018 -0.1049c0.17,-0.0952 0.3997,-0.2431 0.5366,-0.3822 0.021,-0.0213 0.0293,-0.0305 0.0519,-0.0476 0.0881,-0.0668 0.2356,-0.2473 0.2948,-0.3271 0.1216,-0.1637 0.2147,-0.3512 0.2707,-0.5493 0.0217,-0.0767 0.0388,-0.0659 0.0856,-0.1126 0.0672,-0.0677 0.132,-0.1404 0.1868,-0.2185 0.1753,-0.2498 0.1795,-0.259 0.0701,-0.3317 -0.0622,-0.0417 -0.1996,-0.1395 -0.2682,-0.1554 0,-0.157 -0.025,-0.2982 -0.0505,-0.4364 -0.0075,-0.0422 -0.0146,-0.064 -0.0238,-0.1023 -0.0493,-0.2101 -0.1249,-0.4181 -0.2201,-0.6086 -0.1053,-0.2105 -0.2323,-0.4035 -0.3763,-0.588 -0.056,-0.0719 -0.2804,-0.3234 -0.3426,-0.3789l-0.251 -0.2269c-0.1211,-0.1181 -0.2686,-0.2163 -0.4031,-0.3173 -0.0605,-0.0456 -0.2242,-0.2544 -0.2794,-0.3246 -0.0175,-0.0229 -0.0326,-0.04 -0.0513,-0.0656 -0.0355,-0.048 -0.0635,-0.0877 -0.099,-0.1353 -0.1404,-0.1875 -0.2478,-0.3964 -0.3672,-0.5977 -0.0688,-0.1161 -0.1269,-0.2347 -0.1825,-0.3575 -0.1491,-0.3304 -0.1203,-0.2273 -0.0723,-0.3739 0.0084,-0.0262 0.0188,-0.0556 0.0268,-0.0906 0.0113,-0.0505 0.0247,-0.1453 0.0247,-0.2093 0,-0.0776 -0.1354,-0.0989 -0.2252,-0.0989l-0.0989 0.0088c-0.0515,-0.0966 -0.087,-0.2073 -0.1354,-0.3062l-0.0644 -0.1613c-0.0585,-0.1554 -0.1307,-0.3086 -0.1891,-0.4685l-0.1225 -0.3104c-0.1031,-0.2648 -0.1929,-0.5313 -0.312,-0.7873 -0.0901,-0.1951 -0.2075,-0.3714 -0.3249,-0.5493l-0.2961 -0.3618c-0.092,-0.0956 -0.1095,-0.1247 -0.2243,-0.2175 -0.1679,-0.1353 -0.3296,-0.2531 -0.5242,-0.35 -0.3446,-0.1709 -0.7167,-0.2461 -1.1056,-0.2461 -0.1266,0 -0.2962,0.0272 -0.3692,0.0272 -0.0008,-0.0409 -0.0092,-0.0359 -0.0092,-0.0815 0,-0.4878 0.2711,-0.7316 0.6996,-0.8503 0.3517,-0.0974 0.8362,-0.0711 1.1557,0.0225 0.1704,0.0498 0.3981,0.1584 0.5096,0.3012 0.0196,0.0255 0.0313,0.0338 0.0526,0.0555 0.0184,0.0193 0.0284,0.0342 0.0447,0.0548 0.127,0.1541 0.2878,0.4468 0.3906,0.6189 0.1261,0.2109 0.2531,0.4232 0.3925,0.6257 0.1091,0.1588 0.2322,0.307 0.3563,0.4544 0.0197,0.023 0.0251,0.0313 0.0459,0.0539l0.4282 0.4816c0.0484,0.0576 0.1475,0.1529 0.2059,0.1996 0.0371,0.0298 0.0635,0.0669 0.1006,0.0978l0.2227 0.1829c0.1165,0.0874 0.2447,0.1608 0.358,0.2461 0.1754,0.1316 0.3596,0.2523 0.5341,0.3847 0.0205,0.0158 0.0338,0.025 0.0577,0.0417 0.0418,0.0288 0.0743,0.0547 0.1153,0.0827 0.18,0.1228 0.5249,0.3801 0.6762,0.5318 0.0234,0.0233 0.0355,0.0274 0.0589,0.0493 0.1215,0.1122 0.2372,0.2321 0.3417,0.3612l0.1729 0.2326c0.0534,0.0778 0.1073,0.1654 0.1512,0.254l0.124 0.2815c0.0204,0.0506 0.0375,0.1003 0.0535,0.1541 0.119,0.4044 0.1319,0.6913 0.1319,1.1299 0,0.2013 -0.0187,0.3613 -0.0355,0.5596l-0.0451 0.4056c-0.0221,0.2147 0.1154,0.0225 0.1821,-0.0438 0.0318,-0.0318 0.0435,-0.0465 0.0723,-0.0807 0.0134,-0.0158 0.0221,-0.0217 0.0346,-0.0372l0.1689 -0.2008c0.0237,-0.0297 0.0384,-0.0514 0.0618,-0.0828 0.106,-0.1411 0.2414,-0.3429 0.314,-0.5057 0.0101,-0.0221 0.0125,-0.0318 0.0217,-0.0506 0.0159,-0.0322 0.0326,-0.0609 0.0481,-0.096l0.1629 -0.4232c0.0254,-0.0772 0.0513,-0.1453 0.0738,-0.2234 0.0226,-0.0806 0.0445,-0.1491 0.0703,-0.2272 0.0259,-0.0777 0.0397,-0.1454 0.0627,-0.2256 0.1161,-0.4014 0.1503,-0.7856 0.1503,-1.2109 0,-0.1185 -0.0029,-0.218 -0.0092,-0.3337 -0.0054,-0.0994 -0.028,-0.2125 -0.0355,-0.3069 -0.0121,-0.1558 -0.0468,-0.2974 -0.0714,-0.4419 -0.0401,-0.2327 -0.1006,-0.4662 -0.1733,-0.683 -0.0285,-0.0835 -0.0568,-0.1716 -0.0894,-0.2535l-0.0957 -0.2376c-0.0154,-0.0451 -0.033,-0.0744 -0.053,-0.1183 -0.0196,-0.0425 -0.0347,-0.0747 -0.0555,-0.1157l-0.1475 -0.2848c-0.1926,-0.3333 -0.4056,-0.6637 -0.6687,-0.9448l-0.2147 -0.2268c-0.0013,-0.0013 -0.0029,-0.0033 -0.0042,-0.0046 -0.0013,-0.0013 -0.0033,-0.0033 -0.0046,-0.0046l-0.2903 -0.2686c-0.0288,-0.0275 -0.0601,-0.053 -0.0927,-0.0785l-0.2923 -0.2213c-0.1696,-0.1203 -0.3497,-0.2265 -0.5347,-0.3212l-0.114 -0.0572c-0.1609,-0.0811 -0.4983,-0.221 -0.6579,-0.2795 -0.0212,-0.0075 -0.0372,-0.0108 -0.0601,-0.0209 -0.1524,-0.0659 -0.3575,-0.1148 -0.5205,-0.1557 -0.0927,-0.0231 -0.1871,-0.0431 -0.2831,-0.059l-0.4511 -0.0626c-0.046,-0.0042 -0.1057,-0.0159 -0.1537,-0.0176l-0.4958 -0.0087zm-3.1405 10.2928c-0.0284,-0.081 -0.3589,-0.446 -0.5075,-0.4051 -0.1553,0.0421 -0.0878,0.6307 -0.0534,0.7827 0.0802,-0.0756 0.1424,-0.1525 0.243,-0.2218 0.046,-0.0317 0.0927,-0.0606 0.1462,-0.0881 0.0543,-0.0284 0.127,-0.0422 0.1717,-0.0677zm-1.4351 -2.4667c-0.0151,-0.1012 -0.1337,-0.5664 -0.1734,-0.6312 -0.0518,0.0355 -0.1846,0.1813 -0.2214,0.2644 -0.0388,0.0894 0.3036,0.3362 0.3948,0.3668zm-1.54 -0.4805c-0.0013,0.0018 -0.0021,0.0046 -0.0026,0.0064 -0.0254,0.0823 -0.01,0.1244 0.0318,0.1775 0.0351,0.0438 0.0668,0.0873 0.0986,0.1266 0.0688,0.0852 0.1357,0.1637 0.2029,0.248l0.3234 0.3613c0.1871,0.206 0.8825,0.8554 1.1139,0.9406 -0.0118,-0.1992 -0.058,-0.4277 -0.0878,-0.6248 -0.0154,-0.1015 -0.032,-0.1988 -0.0496,-0.3015 -0.0046,-0.0281 -0.0431,-0.2607 -0.0602,-0.2862 0.0075,-0.0852 -0.0188,-0.0911 -0.0793,-0.1236 -0.1107,-0.0589 -0.2728,-0.1775 -0.3447,-0.2682 -0.0692,-0.0885 -0.111,-0.1119 0.0051,-0.2635 0.0384,-0.0502 0.058,-0.0693 0.0968,-0.1103 0.0298,-0.0305 0.0728,-0.0694 0.0958,-0.1073 -0.0197,-0.0782 -0.1813,-0.5338 -0.2119,-0.5735 -0.5434,0.127 -0.814,-0.0234 -1.1063,-0.0017l-0.0259 0.8002zm-0.1417 -0.0471c0.018,0.0379 0.0456,0.071 0.0723,0.0981l0.0092 -0.1049c0.0113,-0.2191 0.0426,-0.5357 0.0246,-0.748 -0.0759,-0.0351 -0.3416,-0.0288 -0.4376,-0.0217 -0.0143,0.2068 0.2375,0.6696 0.3315,0.7765zm6.8771 -1.3729l0.0895 0.2055 0.0241 -0.0347c0.0217,-0.0514 0.0397,-0.1583 0.0468,-0.2142 0.0113,-0.0923 0.0033,-0.079 -0.0146,-0.0865 -0.043,-0.0343 -0.1492,-0.0268 -0.2163,-0.02l0.0705 0.1499zm-4.6549 6.4585c0.0313,0.0547 0.0759,0.1141 0.1286,0.1575 0.078,0.0648 0.0951,0.0639 0.2176,0.0464 0.1725,-0.0243 0.3149,-0.0497 0.4665,-0.1028 -0.0284,-0.1086 -0.188,-0.4682 -0.2489,-0.6402 -0.0105,-0.0285 -0.0184,-0.0711 -0.0384,-0.0894 -0.0009,-0.0348 -0.0798,-0.2607 -0.097,-0.3166 -0.1077,-0.3501 -0.0943,-0.5226 -0.1432,-0.7047 -0.0577,-0.2147 -0.1951,-1.2334 0.355,-0.8045 0.0213,0.0168 0.0439,0.0326 0.061,0.0477l0.1542 0.1608c0.0182,0.0226 0.0325,0.0409 0.0475,0.0606 0.0121,0.015 0.0138,0.0188 0.023,0.0308l0.0272 0.028c0.018,-0.0229 0.1061,-0.1892 0.1804,-0.2885 0.0355,-0.0473 0.0681,-0.0861 0.1044,-0.1304 0.0371,-0.0451 0.0811,-0.0802 0.1203,-0.1228 0.1245,-0.1353 0.3968,-0.3007 0.5839,-0.3717 0.5192,-0.198 0.9723,-0.1091 1.4217,0.1687 0.0506,0.0314 0.0624,0.0418 0.0377,0.0656 -0.0268,0.0254 -0.1203,-0.0485 -0.193,-0.0906 -0.54,-0.3129 -1.1903,-0.2156 -1.6578,0.1412 -0.4861,0.3716 -0.7183,0.8541 -0.6771,1.4822 0.0042,0.0644 0.0314,0.2356 0.016,0.2794 -0.0618,0.0101 -0.0515,-0.0308 -0.0572,-0.0872 -0.0046,-0.0451 -0.0097,-0.0902 -0.013,-0.1365 -0.0142,-0.1918 -0.0138,-0.381 0.0242,-0.5686 0.0184,-0.0905 0.0501,-0.1641 0.0681,-0.2439 -0.1805,0.0281 -0.3889,0.1968 -0.4987,0.3179 -0.071,0.0781 -0.0639,0.0685 -0.0464,0.2059 0.0343,0.2677 0.0815,0.4177 0.1529,0.6591 0.0197,0.066 0.0539,0.1412 0.0681,0.2026 0.1153,0.2835 0.2426,0.6578 0.3621,0.9268 0.0852,0.1926 0.2017,0.3454 0.3592,0.4428 0.0568,0.035 0.0597,0.0275 0.1278,0.0108 0.2653,-0.0643 0.2389,-0.142 0.5208,-0.1094 0.2005,0.023 0.5601,0.1153 0.8191,0.1545 0.3964,0.0602 0.8133,0.0831 1.2221,0.0639 0.9637,-0.0447 1.784,-0.1816 2.5274,-0.6879 0.2306,-0.1571 0.4946,-0.3997 0.6562,-0.6328 0.0639,-0.0918 0.1905,-0.3099 0.2147,-0.4389 -0.0447,0.0241 -0.0664,0.0497 -0.1057,0.0793 -0.0902,0.0677 -0.748,0.5221 -0.7949,0.4824 -0.0079,-0.0091 -0.0138,0.0176 -0.0092,-0.0251 0.0034,-0.0322 0.1363,-0.0918 0.163,-0.1073 0.0681,-0.0384 0.1265,-0.0752 0.1967,-0.1186 0.1328,-0.0819 0.2573,-0.1654 0.3767,-0.2539 0.1813,-0.1341 0.5322,-0.4479 0.5932,-0.6659 0.0017,-0.0509 -0.4466,-0.2677 -0.5314,-0.3127 -0.1578,-0.0836 -0.2693,-0.1383 -0.4152,-0.234 -0.0366,-0.0242 -0.1185,-0.0589 -0.0977,-0.1036 0.0142,-0.0154 0.0343,-0.0066 0.0464,-0.0007 0.0075,0.0037 0.0359,0.025 0.0443,0.0304l0.2581 0.1562c0.071,0.038 0.3054,0.1655 0.3672,0.185 -0.0256,-0.6365 -0.2936,-1.1841 -0.6316,-1.6238 -0.2547,-0.3317 -0.5873,-0.637 -0.9251,-0.886 -0.188,-0.1386 -0.2786,-0.274 -0.4323,-0.4694 -0.2084,-0.2649 -0.3576,-0.5342 -0.5238,-0.8371 -0.0635,-0.1149 -0.5142,-1.0989 -0.571,-1.2405 -0.0873,-0.2167 -0.172,-0.4194 -0.261,-0.6403 -0.1391,-0.345 -0.3693,-1.0129 -0.5225,-1.2885 -0.2653,-0.4766 -0.594,-0.9214 -1.0539,-1.2084 -0.7818,-0.4878 -1.6978,-0.4716 -2.5081,-0.0814 -0.2816,0.1353 -0.3182,0.175 -0.5463,0.3546 -0.147,0.1161 -0.3166,0.3374 -0.416,0.4941 -0.2468,0.3905 -0.3475,0.9268 -0.3366,1.4781 0.012,0.5923 0.1073,1.0322 0.2497,1.5642 0.0677,0.2527 0.1482,0.4403 0.2301,0.6721 0.2829,0.8015 0.3826,1.3429 0.4941,2.2182 0.036,0.2858 0.0289,0.5807 0.0263,0.8723 -0.0062,0.6411 -0.0664,1.3499 0.0105,1.9776 0.0121,0.0956 0.0079,0.0949 0.0535,0.1692 0.0309,0.0505 0.1429,0.2573 0.1755,0.2777zm5.8202 -11.7497c0.2043,0.0986 0.2978,0.1357 0.4904,0.2532 0.076,0.0459 0.1232,0.0635 0.1144,0.1157 -0.05,0.0109 -0.1048,-0.041 -0.1453,-0.0669 -0.1098,-0.0693 -0.3258,-0.1788 -0.4444,-0.2314 -0.2072,-0.0918 -0.4248,-0.1779 -0.6575,-0.2443 -0.6281,-0.1792 -0.8721,-0.2298 -1.5382,-0.2653 -0.629,-0.0338 -0.9724,0.0092 -1.5451,0.2427 -0.3938,0.1609 -0.674,0.3325 -1.0007,0.5772 -0.0246,0.0184 -0.0401,0.0322 -0.0644,0.0526 -0.0229,0.0189 -0.0329,0.0222 -0.0572,0.0482 -0.0375,0.0141 -0.3245,0.3028 -0.3754,0.3574 -0.0389,0.0414 -0.0707,0.0832 -0.1124,0.1308 -0.0564,0.0648 -0.3433,0.4954 -0.378,0.5944 0.0551,-0.0147 0.114,-0.0397 0.1754,-0.0577 0.0598,-0.0175 0.1115,-0.0354 0.1717,-0.0538 0.1274,-0.039 0.2347,-0.0627 0.3709,-0.0886 0.0042,-0.0798 -0.01,-0.1537 -0.0008,-0.2419 0.0221,-0.2101 0.1081,-0.3829 0.2597,-0.5175 0.1838,-0.1628 0.4174,-0.2539 0.7285,-0.2977 0.2527,-0.0355 0.6983,0.005 0.9335,0.0688 0.5655,0.1542 0.7434,0.5786 1.0234,1.0317 0.3604,0.5831 0.5266,0.8625 0.9689,1.347 0.0447,0.0488 0.0777,0.0823 0.1207,0.1312 0.0235,0.0267 0.0384,0.0475 0.0631,0.0727l0.188 0.1908c0.3454,0.3267 0.327,0.3129 0.7167,0.5719l0.4427 0.3228c0.4152,0.299 0.7865,0.5476 1.1511,0.9038 0.9298,0.9073 0.9871,1.8541 0.8458,3.1502l-0.0162 0.1566c0.0509,-0.0259 0.2113,-0.2251 0.264,-0.2815 0.0601,-0.064 0.1787,-0.2339 0.2309,-0.3095 0.167,-0.244 0.3167,-1.1077 0.3655,-1.4277 0.1253,-0.8216 0.1194,-1.5979 -0.1571,-2.3799 -0.0116,-0.0329 -0.0484,-0.0914 -0.0171,-0.1223 0.0447,-0.0118 0.0456,0.0263 0.0606,0.0701l0.0998 0.3145c0.0401,0.1417 0.0748,0.3054 0.0994,0.452 0.0084,0.1178 0.0293,0.2439 0.0393,0.3655 0.0513,0.6222 -0.069,1.4923 -0.2164,2.1001 -0.0163,0.0664 -0.0739,0.2535 -0.0756,0.3002 0,-0.0054 0.1161,-0.2568 0.1345,-0.3041 0.0885,-0.2259 0.2865,-0.7952 0.33,-1.0165 0.1036,-0.4369 0.1562,-0.8083 0.1332,-1.2874 -0.0184,-0.3859 -0.0651,-0.7309 -0.1499,-1.1026 -0.0063,-0.0259 -0.0118,-0.0469 -0.018,-0.0732 -0.1829,-0.7789 -0.4796,-1.3732 -0.9264,-2.0014 -0.0694,-0.0973 -0.3192,-0.4027 -0.4051,-0.487 -0.135,-0.1324 -0.3162,-0.3171 -0.4616,-0.4306 -0.0673,-0.0527 -0.1291,-0.0986 -0.1984,-0.1534 -0.1244,-0.0977 -0.2773,-0.195 -0.4281,-0.2835 -0.2418,-0.1417 -0.6979,-0.348 -0.9761,-0.4478 -0.1759,-0.0631 -0.3526,-0.1224 -0.5434,-0.1679 -0.1065,-0.0259 -0.5033,-0.1174 -0.5952,-0.1036l-0.0459 -0.0163c-0.016,-0.003 -0.0322,-0.0025 -0.0476,-0.0033l-0.2866 -0.0222c-0.2447,-0.015 -1.007,-0.013 -1.1632,0.0564 0.243,0.0134 0.4778,0.0117 0.7217,0.036 0.4611,0.0455 0.8145,0.1303 1.2497,0.2643 0.2669,0.0823 0.3283,0.1245 0.5538,0.208z"/>
  <path class="fil6" d="M25.229 8.7192c0.1413,-1.2961 0.084,-2.2429 -0.8458,-3.1502 -0.3646,-0.3562 -0.7359,-0.6048 -1.1511,-0.9038l-0.4427 -0.3228c-0.3897,-0.259 -0.3713,-0.2452 -0.7167,-0.5719l-0.188 -0.1908c-0.0247,-0.0252 -0.0396,-0.046 -0.0627,-0.0727 -0.0434,-0.0489 -0.0764,-0.0824 -0.1207,-0.1312 -0.4427,-0.4845 -0.6089,-0.7639 -0.9693,-1.347 -0.28,-0.4531 -0.4579,-0.8775 -1.0234,-1.0317 -0.2352,-0.0638 -0.6808,-0.1043 -0.9335,-0.0688 -0.3111,0.0438 -0.5447,0.1349 -0.7285,0.2977 -0.1516,0.1346 -0.2376,0.3074 -0.2597,0.5175 -0.0092,0.0882 0.005,0.1621 0.0008,0.2419 -0.1362,0.0259 -0.2435,0.0496 -0.3709,0.0886 -0.0602,0.0184 -0.1119,0.0363 -0.1717,0.0538 -0.0609,0.018 -0.1203,0.043 -0.1754,0.0577 0.0347,-0.099 0.3216,-0.5296 0.378,-0.5944 0.0417,-0.0476 0.0735,-0.0894 0.1124,-0.1308 0.0509,-0.0546 0.3379,-0.3433 0.3754,-0.3574 0.008,0.0145 -0.005,0.0175 0.0364,-0.0042l0.1233 -0.0677c0.4685,-0.2305 0.9597,-0.3008 1.4893,-0.2607 0.5953,0.0447 1.0918,0.2811 1.479,0.548 0.1061,0.0731 0.1918,0.1429 0.2816,0.2235 0.0931,0.0835 0.17,0.1499 0.2585,0.246 0.1575,0.1705 0.3057,0.34 0.4457,0.5634 0.0655,0.1049 0.122,0.2156 0.1896,0.3154 0.0676,0.1007 0.1299,0.2005 0.1955,0.3091 0.1282,0.2126 0.2472,0.4298 0.3787,0.6399 0.1751,0.2798 0.4224,0.6423 0.6734,0.8408 0.1901,0.1503 0.3475,0.294 0.5563,0.4527 0.094,0.0714 0.1934,0.1433 0.2899,0.2151 0.1003,0.0743 0.1976,0.14 0.2911,0.2134 0.1538,0.1208 0.1499,0.1287 0.2669,0.2465 0.2506,0.2518 0.5267,1.0555 0.596,1.4314 0.0556,0.3015 0.0493,0.634 -0.0053,0.9335 -0.0293,0.1599 -0.1667,0.7013 -0.2524,0.7702z"/>
  <path class="fil4" d="M16.4532 7.9803c-0.0184,0.0142 -0.0029,0.0121 -0.0409,0.0017 -0.0167,-0.0046 -0.0371,-0.0122 -0.0551,-0.0179 -0.2749,-0.0886 -0.4461,-0.1505 -0.7226,-0.2599 -0.1328,-0.0526 -0.2644,-0.1077 -0.3906,-0.1687l-0.2853 -0.1378c-0.0454,-0.0217 -0.0622,-0.0168 -0.0759,-0.0653l0.0259 -0.8002c0.2923,-0.0217 0.5629,0.1287 1.1063,0.0017 0.0306,0.0397 0.1922,0.4953 0.2119,0.5735 -0.023,0.0379 -0.066,0.0768 -0.0958,0.1073 -0.0388,0.041 -0.0584,0.0601 -0.0968,0.1103 -0.1161,0.1516 -0.0743,0.175 -0.0051,0.2635 0.0719,0.0907 0.234,0.2093 0.3447,0.2682 0.0605,0.0325 0.0868,0.0384 0.0793,0.1236z"/>
  <path class="fil5" d="M16.4532 7.9803c0.0171,0.0255 0.0556,0.2581 0.0602,0.2862 0.0176,0.1027 0.0342,0.2 0.0496,0.3015 0.0298,0.1971 0.076,0.4256 0.0878,0.6248 -0.2314,-0.0852 -0.9268,-0.7346 -1.1139,-0.9406l-0.3234 -0.3613c-0.0672,-0.0843 -0.1341,-0.1628 -0.2029,-0.248 -0.0318,-0.0393 -0.0635,-0.0828 -0.0986,-0.1266 -0.0418,-0.0531 -0.0572,-0.0952 -0.0318,-0.1775 0.0005,-0.0018 0.0013,-0.0046 0.0026,-0.0064 0.0137,0.0485 0.0305,0.0436 0.0759,0.0653l0.2853 0.1378c0.1262,0.061 0.2578,0.1161 0.3906,0.1687 0.2765,0.1094 0.4477,0.1713 0.7226,0.2599 0.018,0.0057 0.0384,0.0133 0.0551,0.0179 0.038,0.0104 0.0225,0.0125 0.0409,-0.0017z"/>
  <path class="fil7" d="M18.2409 5.0799c0.1148,0.2569 0.203,0.7823 0.17,1.0802 -0.0205,0.1846 -0.056,0.3688 -0.1604,0.4703 -0.1813,0.1754 -0.4908,-0.0723 -0.6274,-0.2034 -0.0584,-0.0556 -0.0977,-0.0794 -0.1215,-0.1951 -0.0326,-0.1604 0.0371,-0.3956 0.0802,-0.5404 0.0685,-0.2307 0.2089,-0.4336 0.4076,-0.5388 0.0585,-0.0309 0.1683,-0.0852 0.2515,-0.0728z"/>
  <path class="fil8" d="M18.8077 2.87c-0.259,-0.1337 0.0092,0.8922 0.2159,0.9945 0.2694,0.1333 0.0017,-0.8821 -0.2159,-0.9945zm0.5947 0.7673c-0.0459,-0.0431 -0.1437,-0.1358 -0.1946,-0.1588 0.0067,0.1759 0.041,0.2883 0.0117,0.4812 -0.0112,0.074 -0.0368,0.1382 -0.0769,0.1834 -0.0534,0.0606 -0.1056,0.0472 -0.1749,0.0021 -0.173,-0.1128 -0.2678,-0.4603 -0.3463,-0.7079 -0.0017,0.0016 -0.0038,0.0024 -0.0047,0.0057l-0.0112 0.018c-0.0447,0.0907 -0.0789,0.4369 -0.0635,0.5171 -0.0318,-0.0325 -0.0839,-0.2844 -0.0914,-0.3258 -0.1621,-0.8482 0.2772,-1.3378 0.7113,-0.621 0.0865,0.1428 0.2026,0.4209 0.2405,0.606z"/>
  <path class="fil9" d="M19.4024 3.6373c0.0309,0.0546 0.1479,0.6164 0.14,0.6887l-0.8045 0.1483c-0.0368,-0.0797 -0.1959,-0.4189 -0.1959,-0.4962 -0.0154,-0.0802 0.0188,-0.4264 0.0635,-0.5171l0.0112 -0.018c0.0009,-0.0033 0.003,-0.0041 0.0047,-0.0057 0.0785,0.2476 0.1733,0.5951 0.3463,0.7079 0.0693,0.0451 0.1215,0.0585 0.1749,-0.0021 0.0401,-0.0452 0.0657,-0.1094 0.0769,-0.1834 0.0293,-0.1929 -0.005,-0.3053 -0.0117,-0.4812 0.0509,0.023 0.1487,0.1157 0.1946,0.1588z"/>
  <path class="fil10" d="M17.8984 5.1326c-0.0347,0.0359 -0.0781,0.0643 -0.1119,0.0965 -0.1901,0.1817 -0.2665,0.4181 -0.3221,0.6782 -0.0317,0.1475 -0.033,0.2089 -0.0167,0.3618 -0.0547,-0.0364 -0.2894,-0.3061 -0.3525,-0.3868 -0.0556,-0.0714 -0.1061,-0.1345 -0.1621,-0.2072 -0.0405,-0.053 -0.1161,-0.1565 -0.1407,-0.2159 0.0731,-0.0368 0.1784,-0.0706 0.2585,-0.101 0.2502,-0.094 0.2853,-0.1099 0.5555,-0.165 0.0869,-0.0175 0.213,-0.0532 0.292,-0.0606z"/>
  <path class="fil3" d="M18.2409 5.0799c-0.0832,-0.0124 -0.193,0.0419 -0.2515,0.0728 -0.1987,0.1052 -0.3391,0.3081 -0.4076,0.5388 -0.0431,0.1448 -0.1128,0.38 -0.0802,0.5404 0.0238,0.1157 0.0631,0.1395 0.1215,0.1951 0.1366,0.1311 0.4461,0.3788 0.6274,0.2034 0.1044,-0.1015 0.1399,-0.2857 0.1604,-0.4703 0.033,-0.2979 -0.0552,-0.8233 -0.17,-1.0802zm-0.3425 0.0527c-0.079,0.0074 -0.2051,0.0431 -0.292,0.0606 -0.2702,0.0551 -0.3053,0.071 -0.5555,0.165 -0.0801,0.0304 -0.1854,0.0642 -0.2585,0.101 0.0246,0.0594 0.1002,0.1629 0.1407,0.2159 0.056,0.0727 0.1065,0.1358 0.1621,0.2072 0.0631,0.0807 0.2978,0.3504 0.3525,0.3868 -0.0163,-0.1529 -0.015,-0.2143 0.0167,-0.3618 0.0556,-0.2601 0.132,-0.4965 0.3221,-0.6782 0.0338,-0.0322 0.0772,-0.0606 0.1119,-0.0965zm0.5805 0.8571c-0.0007,0.4231 -0.1332,0.9459 -0.5976,0.7016 -0.3179,-0.167 -0.7206,-0.6177 -0.9515,-0.9231 -0.0485,-0.0638 -0.1613,-0.2075 -0.1909,-0.286 -0.0911,0.0163 -0.2114,0.0993 -0.2686,0.0066 -0.0313,-0.0513 0.0134,-0.0997 0.0381,-0.1231 0.0638,-0.061 0.0651,-0.0732 0.1107,-0.061 0.0108,0.0818 -0.1037,0.0868 -0.0962,0.1591 0.0577,0.0292 0.2853,-0.0743 0.3451,-0.099 0.1157,-0.0467 0.223,-0.0844 0.3407,-0.1282 0.2853,-0.1065 0.8718,-0.1504 0.9754,-0.3133 0.0187,-0.03 0.0134,-0.0681 0.0422,-0.0769 0.0613,-0.0183 0.0012,0.0306 0.0514,0.1597 0.1069,0.2726 0.2021,0.677 0.2012,0.9836z"/>
  <path class="fil3" d="M18.542 3.9781c0,0.0773 0.1591,0.4165 0.1959,0.4962l0.8045 -0.1483c0.0079,-0.0723 -0.1091,-0.6341 -0.14,-0.6887 -0.0379,-0.1851 -0.154,-0.4632 -0.2405,-0.606 -0.4341,-0.7168 -0.8734,-0.2272 -0.7113,0.621 0.0075,0.0414 0.0596,0.2933 0.0914,0.3258zm-0.3449 -0.4282c-0.023,0.1199 0.1006,0.6061 0.1444,0.7615 0.0268,0.0961 0.0594,0.1633 0.0769,0.2218l0.2531 -0.0488c-0.007,-0.0477 -0.2159,-0.4453 -0.2899,-0.8902 -0.0333,-0.2005 -0.0142,-0.2693 -0.028,-0.3654 0.021,-0.0305 0.0168,-0.1203 0.0243,-0.1658 0.0413,-0.2523 0.1165,-0.2707 0.1871,-0.3718 -0.3642,0.0364 -0.3851,0.5154 -0.3801,0.7932l0.0122 0.0655zm1.4083 0.8133c-0.0489,0.0327 -1.1645,0.2331 -1.2192,0.2272 -0.1273,-0.2004 -0.626,-1.9163 0.2327,-1.966 0.2577,-0.015 0.3672,0.0815 0.4744,0.2051 0.2044,0.236 0.338,0.6462 0.4123,0.9573 0.0255,0.1069 0.112,0.4816 0.0998,0.5764z"/>
  <path class="fil8" d="M16.1655 3.8273c-0.2268,-0.1433 -0.0602,0.8633 0.1043,0.9615 0.1696,0.1011 0.1054,-0.4022 0.0878,-0.4932 -0.0301,-0.158 -0.0894,-0.4035 -0.1921,-0.4683zm0.3558 1.0539l-0.0267 -0.0051c-0.0418,0.0606 -0.076,0.1938 -0.1959,0.1449 -0.0827,-0.0333 -0.1262,-0.1303 -0.1676,-0.2108 -0.0329,0.045 -0.0784,0.1771 -0.0675,0.2401 -0.0293,-0.033 -0.0348,-0.1253 -0.0447,-0.1737 -0.0126,-0.0615 -0.0247,-0.1191 -0.0355,-0.1792 -0.0326,-0.1792 -0.1496,-1.0852 0.0868,-1.1131 0.135,-0.016 0.2042,0.0905 0.2435,0.1867 0.1224,0.2995 0.1805,0.7868 0.2076,1.1102z"/>
  <path class="fil3" d="M16.0636 5.0503c-0.0017,0.0263 0.05,0.2932 0.0776,0.327l0.3964 -0.1892 -0.0163 -0.3069c-0.0271,-0.3234 -0.0852,-0.8107 -0.2076,-1.1102 -0.0393,-0.0962 -0.1085,-0.2027 -0.2435,-0.1867 -0.2364,0.0279 -0.1194,0.9339 -0.0868,1.1131 0.0108,0.0601 0.0229,0.1177 0.0355,0.1792 0.0099,0.0484 0.0154,0.1407 0.0447,0.1737zm-0.2044 -0.436c0.0138,0.1378 0.1012,0.7413 0.1475,0.8274l0.071 -0.0381c-0.015,-0.1136 -0.0618,-0.2735 -0.089,-0.3892 -0.0881,-0.3734 -0.1319,-0.6783 -0.119,-1.0618 0.0025,-0.076 0.0209,-0.1365 0.0226,-0.2009 0.0046,0.0377 -0.0739,0.1466 -0.0644,0.4085 0.0055,0.1491 0.0164,0.3054 0.0313,0.4541zm0.1041 0.8946c-0.0789,-0.1391 -0.1746,-1.0004 -0.1871,-1.2142 -0.0138,-0.2435 -0.0151,-0.4172 0.0856,-0.6127 0.1081,-0.2101 0.3278,-0.198 0.4448,-0.0484 0.195,0.2497 0.2623,1.0813 0.2873,1.4727 0.0039,0.0571 0.0226,0.1052 -0.0224,0.1323 -0.0435,0.0263 -0.0828,0.039 -0.1233,0.0581 -0.0844,0.0405 -0.1525,0.076 -0.2369,0.1145 -0.0475,0.0217 -0.202,0.1057 -0.248,0.0977z"/>
  <path class="fil11" d="M16.9633 12.3709c0.0697,0.023 0.2776,-0.2184 0.3169,-0.2577 0.0622,-0.0618 0.2235,-0.3037 0.2085,-0.3708 0.02,0.0183 0.0279,0.0609 0.0384,0.0894 0.0609,0.172 0.2205,0.5316 0.2489,0.6402 -0.1516,0.0531 -0.294,0.0785 -0.4665,0.1028 -0.1225,0.0175 -0.1396,0.0184 -0.2176,-0.0464 -0.0527,-0.0434 -0.0973,-0.1028 -0.1286,-0.1575z"/>
  <path class="fil12" d="M26.3706 6.6367c-0.043,0.2213 -0.2415,0.7906 -0.33,1.0165 -0.0184,0.0473 -0.1345,0.2987 -0.1345,0.3041 0.0017,-0.0467 0.0598,-0.2338 0.0756,-0.3002 0.1474,-0.6078 0.2677,-1.4779 0.2164,-2.1001 -0.01,-0.1216 -0.0309,-0.2477 -0.0393,-0.3655 0.0021,0.0017 0.0046,0.002 0.0054,0.0059 0.0004,0.0037 0.0039,0.0045 0.0046,0.0061 0.0848,0.1249 0.1413,0.5159 0.1575,0.6495 0.0125,0.1066 0.0309,0.7603 0.0443,0.7837z"/>
  <path class="fil12" d="M21.8016 0.0983l-0.0442 -0.0033c0.0024,0.0013 0.0058,0.0008 0.007,0.0041l0.2827 0.0919c0.2758,0.0999 0.5439,0.2268 0.7364,0.4302 -0.2255,-0.0835 -0.2869,-0.1257 -0.5538,-0.208 -0.4352,-0.134 -0.7886,-0.2188 -1.2497,-0.2643 -0.2439,-0.0243 -0.4787,-0.0226 -0.7217,-0.036 0.1562,-0.0694 0.9185,-0.0714 1.1632,-0.0564l0.2866 0.0222c0.0154,0.0008 0.0316,0.0003 0.0476,0.0033l0.0459 0.0163z"/>
  <path class="fil13" d="M17.8579 10.2796c-0.0447,0.0255 -0.1174,0.0393 -0.1717,0.0677 -0.0535,0.0275 -0.1002,0.0564 -0.1462,0.0881 -0.1006,0.0693 -0.1628,0.1462 -0.243,0.2218 -0.0344,-0.152 -0.1019,-0.7406 0.0534,-0.7827 0.1486,-0.0409 0.4791,0.3241 0.5075,0.4051z"/>
  <path class="fil13" d="M18.3536 3.2288c0.0138,0.0961 -0.0053,0.1649 0.028,0.3654 0.074,0.4449 0.2829,0.8425 0.2899,0.8902l-0.2531 0.0488c-0.0175,-0.0585 -0.0501,-0.1257 -0.0769,-0.2218 -0.0438,-0.1554 -0.1674,-0.6416 -0.1444,-0.7615 0.0011,-0.0893 -0.0034,-0.1001 0.045,-0.2083 0.0318,-0.0697 0.056,-0.1116 0.1062,-0.1541l0.0053 0.0413z"/>
  <path class="fil13" d="M14.8226 7.2785l-0.0151 0.0373 -0.0664 -0.0305c-0.094,-0.1069 -0.3458,-0.5697 -0.3315,-0.7765 0.096,-0.0071 0.3617,-0.0134 0.4376,0.0217 0.018,0.2123 -0.0133,0.5289 -0.0246,0.748z"/>
  <path class="fil1" d="M21.3472 6.6387c-0.0331,0.0351 -0.0823,0.0681 -0.1183,0.0957 -0.0429,0.0329 -0.0789,0.0601 -0.1253,0.091 -0.0914,0.0611 -0.1712,0.1074 -0.2982,0.1362 -0.1216,-0.0367 -0.1554,-0.3738 0.0431,-0.482 0.0831,-0.046 0.2172,-0.0397 0.3073,-0.0079 0.0707,0.0246 0.1905,0.1065 0.1914,0.167z"/>
  <path class="fil1" d="M20.3043 7.4281c-0.0268,0.0635 -0.3008,0.2961 -0.3254,0.3275 -0.0339,0.0426 0.0145,0.1132 0.0074,0.1813 -0.2539,-0.0497 -0.3003,-0.325 -0.2055,-0.4791 0.046,-0.0744 0.1216,-0.1333 0.2435,-0.1458 0.1087,-0.0109 0.2323,0.048 0.28,0.1161z"/>
  <path class="fil1" d="M18.8724 7.959c-0.0225,0.0472 -0.365,0.2143 -0.4319,0.2494 -0.053,0.0276 -0.0819,0.0338 -0.101,0.0701 -0.0234,0.043 0.0083,0.0276 -0.0234,0.0301 -0.0686,-0.0226 -0.1492,-0.2982 0.0986,-0.4865 0.0743,-0.0569 0.1661,-0.0841 0.276,-0.0477 0.0811,0.0267 0.1688,0.0961 0.1817,0.1846z"/>
  <path class="fil1" d="M17.3801 7.9113c0.0063,0.0418 -0.018,0.0327 -0.1053,0.0865 -0.1049,0.0644 -0.3266,0.2014 -0.4561,0.1591 -0.0305,-0.0066 -0.0292,-0.0096 -0.028,-0.0576 0.0017,-0.0647 0.023,-0.1382 0.0514,-0.1917 0.2021,-0.3839 0.5305,-0.1508 0.538,0.0037z"/>
  <path class="fil9" d="M16.5213 4.8812l0.0163 0.3069 -0.3964 0.1892c-0.0276,-0.0338 -0.0793,-0.3007 -0.0776,-0.327 -0.0109,-0.063 0.0346,-0.1951 0.0675,-0.2401 0.0414,0.0805 0.0849,0.1775 0.1676,0.2108 0.1199,0.0489 0.1541,-0.0843 0.1959,-0.1449l0.0267 0.0051z"/>
  <path class="fil12" d="M18.3161 8.3086c0.0317,-0.0025 0,0.0129 0.0234,-0.0301 0.0191,-0.0363 0.048,-0.0425 0.101,-0.0701 0.0669,-0.0351 0.4094,-0.2022 0.4319,-0.2494 0.0823,0.16 -0.0535,0.5255 -0.3688,0.4532 -0.0618,-0.0142 -0.1608,-0.0598 -0.1875,-0.1036z"/>
  <path class="fil3" d="M18.8724 7.959c-0.0129,-0.0885 -0.1006,-0.1579 -0.1817,-0.1846 -0.1099,-0.0364 -0.2017,-0.0092 -0.276,0.0477 -0.2478,0.1883 -0.1672,0.4639 -0.0986,0.4865 0.0267,0.0438 0.1257,0.0894 0.1875,0.1036 0.3153,0.0723 0.4511,-0.2932 0.3688,-0.4532zm-0.2101 -0.2506c0.5,0.1032 0.2986,0.8963 -0.1854,0.7568 -0.2268,-0.0651 -0.34,-0.2167 -0.2703,-0.4553 0.0481,-0.162 0.2298,-0.3482 0.4557,-0.3015z"/>
  <path class="fil6" d="M19.9863 7.9369c0.0071,-0.0681 -0.0413,-0.1387 -0.0074,-0.1813 0.0246,-0.0314 0.2986,-0.264 0.3254,-0.3275 0.0359,0.0242 0.1102,0.114 0.1076,0.1554 -0.0066,0.1036 -0.0951,0.264 -0.1966,0.3271 -0.0668,0.0408 -0.1413,0.0355 -0.229,0.0263z"/>
  <path class="fil3" d="M20.3043 7.4281c-0.0477,-0.0681 -0.1713,-0.127 -0.28,-0.1161 -0.1219,0.0125 -0.1975,0.0714 -0.2435,0.1458 -0.0948,0.1541 -0.0484,0.4294 0.2055,0.4791 0.0877,0.0092 0.1622,0.0145 0.229,-0.0263 0.1015,-0.0631 0.19,-0.2235 0.1966,-0.3271 0.0026,-0.0414 -0.0717,-0.1312 -0.1076,-0.1554zm-0.1814 -0.1704c0.1592,0.0313 0.2432,0.14 0.3246,0.2469 0.0794,0.1039 -0.0639,0.3333 -0.1299,0.4001 -0.1395,0.142 -0.4198,0.1291 -0.5497,-0.0267 -0.0589,-0.0706 -0.1032,-0.1788 -0.0872,-0.3024 0.03,-0.2373 0.2518,-0.3554 0.4422,-0.3179z"/>
  <path class="fil13" d="M19.0608 3.8135c-0.1165,-0.0379 -0.3705,-0.7038 -0.2857,-0.8946 0.0949,0.0513 0.1737,0.2561 0.2185,0.3889 0.0317,0.0944 0.129,0.4159 0.0672,0.5057z"/>
  <path class="fil3" d="M19.0608 3.8135c0.0618,-0.0898 -0.0355,-0.4113 -0.0672,-0.5057 -0.0448,-0.1328 -0.1236,-0.3376 -0.2185,-0.3889 -0.0848,0.1908 0.1692,0.8567 0.2857,0.8946zm-0.2531 -0.9435c0.2176,0.1124 0.4853,1.1278 0.2159,0.9945 -0.2067,-0.1023 -0.4749,-1.1282 -0.2159,-0.9945z"/>
  <path class="fil3" d="M21.3472 6.6387c-0.0009,-0.0605 -0.1207,-0.1424 -0.1914,-0.167 -0.0901,-0.0318 -0.2242,-0.0381 -0.3073,0.0079 -0.1985,0.1082 -0.1647,0.4453 -0.0431,0.482l0.0376 0.0309c0.1086,0.0572 0.249,0.048 0.3487,-0.0159 0.0977,-0.0634 0.1492,-0.2167 0.1555,-0.3379zm-0.2878 -0.2469c0.1094,0.0109 0.1963,0.0523 0.2589,0.1066 0.0857,0.0735 0.1052,0.1211 0.0686,0.2577 -0.0544,0.2025 -0.1667,0.3438 -0.3981,0.3333 -0.2189,-0.0101 -0.3622,-0.1521 -0.337,-0.388 0.0228,-0.2147 0.1733,-0.3333 0.4076,-0.3096z"/>
  <path class="fil1" d="M16.4228 7.8129c-0.0912,-0.0306 -0.4336,-0.2774 -0.3948,-0.3668 0.0368,-0.0831 0.1696,-0.2289 0.2214,-0.2644 0.0397,0.0648 0.1583,0.53 0.1734,0.6312z"/>
  <path class="fil3" d="M17.3801 7.9113c-0.0075,-0.1545 -0.3359,-0.3876 -0.538,-0.0037 -0.0284,0.0535 -0.0497,0.127 -0.0514,0.1917 -0.0012,0.048 -0.0025,0.051 0.028,0.0576 0.0543,0.0824 0.2522,0.1192 0.393,0.0665 0.1173,-0.0439 0.2021,-0.132 0.1888,-0.2569 -0.0038,-0.0346 -0.0021,-0.0368 -0.0204,-0.0552zm-0.1947 -0.266c0.1922,0.0464 0.3095,0.2632 0.2656,0.4211 -0.058,0.2101 -0.4105,0.3512 -0.6879,0.1311 -0.0656,-0.0522 -0.0192,-0.2176 0.0118,-0.2845 0.0609,-0.1323 0.2055,-0.3165 0.4105,-0.2677z"/>
  <path class="fil3" d="M16.3033 4.7357c0.0673,-0.073 0.0083,-0.3817 -0.0138,-0.4811 -0.028,-0.124 -0.076,-0.3191 -0.1546,-0.38 -0.0901,0.1503 0.0635,0.7919 0.1684,0.8611zm-0.1378 -0.9084c0.1027,0.0648 0.162,0.3103 0.1921,0.4683 0.0176,0.091 0.0818,0.5943 -0.0878,0.4932 -0.1645,-0.0982 -0.3311,-1.1048 -0.1043,-0.9615z"/>
  <path class="fil13" d="M16.3033 4.7357c-0.1049,-0.0692 -0.2585,-0.7108 -0.1684,-0.8611 0.0786,0.0609 0.1266,0.256 0.1546,0.38 0.0221,0.0994 0.0811,0.4081 0.0138,0.4811z"/>
  <path class="fil13" d="M16.9085 12.4035c-0.0096,0.0335 0.0038,0.0164 -0.0326,0.0359 -0.0138,0.0075 -0.0338,0.0163 -0.048,0.0234 -0.0635,0.0327 -0.2423,0.1278 -0.2895,0.1208l-0.0196 -0.0055c0.0104,-0.1045 0.1546,-0.3839 0.2,-0.4766 0.028,0.0288 0.0707,0.1103 0.0962,0.1541 0.0308,0.0527 0.0655,0.0995 0.0935,0.1479z"/>
  <path class="fil14" d="M18.3536 3.2288l-0.0053 -0.0413c-0.0502,0.0425 -0.0744,0.0844 -0.1062,0.1541 -0.0484,0.1082 -0.0439,0.119 -0.045,0.2083l-0.0122 -0.0655c-0.005,-0.2778 0.0159,-0.7568 0.3801,-0.7932 -0.0706,0.1011 -0.1458,0.1195 -0.1871,0.3718 -0.0075,0.0455 -0.0033,0.1353 -0.0243,0.1658z"/>
  <path class="fil15" d="M16.0777 5.4036l-0.071 0.0381c-0.0463,-0.0861 -0.1337,-0.6896 -0.1475,-0.8274 -0.0149,-0.1487 -0.0258,-0.305 -0.0313,-0.4541 -0.0095,-0.2619 0.069,-0.3708 0.0644,-0.4085 -0.0017,0.0644 -0.0201,0.1249 -0.0226,0.2009 -0.0129,0.3835 0.0309,0.6884 0.119,1.0618 0.0272,0.1157 0.074,0.2756 0.089,0.3892z"/>
  <path class="fil6" d="M20.8054 6.9616c0.127,-0.0288 0.2068,-0.0751 0.2982,-0.1362 0.0464,-0.0309 0.0824,-0.0581 0.1253,-0.091 0.036,-0.0276 0.0852,-0.0606 0.1183,-0.0957 -0.0063,0.1212 -0.0578,0.2745 -0.1555,0.3379 -0.0997,0.0639 -0.2401,0.0731 -0.3487,0.0159l-0.0376 -0.0309z"/>
  <path class="fil12" d="M16.8187 8.1569c0.1295,0.0423 0.3512,-0.0947 0.4561,-0.1591 0.0873,-0.0538 0.1116,-0.0447 0.1053,-0.0865 0.0183,0.0184 0.0166,0.0206 0.0204,0.0552 0.0133,0.1249 -0.0715,0.213 -0.1888,0.2569 -0.1408,0.0527 -0.3387,0.0159 -0.393,-0.0665z"/>
  <path class="fil14" d="M16.5384 12.5836c0.0472,0.007 0.226,-0.0881 0.2895,-0.1208 0.0142,-0.0071 0.0342,-0.0159 0.048,-0.0234 0.0364,-0.0195 0.023,-0.0024 0.0326,-0.0359 0.0071,0.0083 0.002,0.0013 0.0129,0.0159 0.0573,0.0752 0.0522,0.0761 0.1295,0.1499 0.023,0.0218 0.0334,0.0205 0.0522,0.0447 -0.078,0.0401 -0.3337,0.0285 -0.4419,0.0108 -0.0351,-0.0057 -0.0986,-0.0154 -0.1228,-0.0412z"/>
  <path class="fil12" d="M21.6182 5.9124c0.0393,0 0.0635,-0.028 0.0906,-0.0502 0.0151,-0.0116 0.0256,-0.0204 0.039,-0.0338 0.0199,-0.0201 0.0274,-0.0184 0.0162,-0.0459 0.0179,0.0075 0.0259,-0.0058 0.0146,0.0865 -0.0071,0.0559 -0.0251,0.1628 -0.0468,0.2142l-0.0241 0.0347 -0.0895 -0.2055z"/>
  <path class="fil1" d="M21.764 5.7825c0.0112,0.0275 0.0037,0.0258 -0.0162,0.0459 -0.0134,0.0134 -0.0239,0.0222 -0.039,0.0338 -0.0271,0.0222 -0.0513,0.0502 -0.0906,0.0502l-0.0705 -0.1499c0.0671,-0.0068 0.1733,-0.0143 0.2163,0.02z"/>
  <path class="fil16" d="M14.7411 7.2853l0.0664 0.0305 0.0151 -0.0373 -0.0092 0.1049c-0.0267,-0.0271 -0.0543,-0.0602 -0.0723,-0.0981z"/>
  <path class="fil2" d="M3.6134 13.0067c4.0386,-2.1486 7.1309,-1.7827 11.3349,-0.3635 3.3477,1.1299 4.1597,1.8637 7.9459,1.3191 1.5747,-0.2268 2.8311,-0.5209 3.7704,-1.8311l0.1867 -0.2268c0.4803,1.3177 -1.2355,2.3683 -2.2207,2.8164 -2.4051,1.0943 -5.3079,1.3453 -7.8411,0.6578 -4.1852,-1.1357 -7.6594,-2.3719 -11.629,0.0657 -0.6729,0.4272 -1.5651,0.2279 -1.9924,-0.4453 -0.4272,-0.6729 -0.228,-1.5651 0.4453,-1.9923z"/>
  <path class="fil6" d="M3.2429 9.5529c-0.1629,-0.1291 -0.3496,-0.2698 -0.6812,-0.241 0.299,0.2272 0.8124,0.269 0.4331,0.7823 -0.239,-0.1204 -0.5555,-0.2452 -0.8896,-0.1454 0.3883,0.1036 0.5951,0.1341 0.7989,0.386l-0.0881 0.5437c-0.3098,-0.1549 -0.4167,-0.271 -0.8766,-0.2246 0.2684,0.1549 0.4765,0.1461 0.7283,0.3804 0.2494,0.2327 0.0702,0.4123 0.2114,0.7815l0.0618 0.1087c0.0158,-0.4156 -0.1148,-0.6604 0.4737,-0.8909 0.1742,-0.0686 0.3747,-0.0907 0.573,-0.1032 0.1617,-0.0105 0.5564,0.0246 0.6482,0.0033 -0.7045,-0.2873 -0.9593,-0.1725 -1.6122,0.051 0.0218,-0.1516 0.0451,-0.3893 0.1233,-0.4979 0.0655,-0.091 0.2798,-0.1838 0.4205,-0.2302 0.5175,-0.1712 0.6746,-0.058 1.1503,-0.0254 -0.5964,-0.274 -0.8329,-0.2932 -1.4865,-0.0752 0.0731,-0.307 0.1278,-0.4114 0.4637,-0.5484 0.3357,-0.1374 0.494,-0.0852 0.8449,-0.0786 -0.2677,-0.2723 -0.7597,-0.1115 -1.0818,-0.0125 0.0743,-0.2903 0.2444,-0.5384 0.3359,-0.7956 -0.2833,0.3132 -0.4336,0.6862 -0.551,0.832z"/>
  <g>
   <path class="fil0 str0" d="M0.9374 8.3241c-1.873,2.4856 -0.6286,4.3756 0.7956,3.853 0.248,-0.0906 0.1617,-0.1323 0.3683,0.0711 0.2311,0.2272 0.396,0.3262 0.7319,-0.0139 -0.056,-0.1762 -0.2553,-0.2506 -0.3739,-0.4695 0.843,-0.7075 1.5534,-1.3999 0.7393,-2.3335 -0.2978,-0.3412 -1.7325,-0.9515 -2.2612,-1.1072z"/>
   <path id="1" class="fil1" d="M0.9374 8.3241c-1.873,2.4856 -0.6286,4.3756 0.7956,3.853 0.248,-0.0906 0.1617,-0.1323 0.3683,0.0711 0.2311,0.2272 0.396,0.3262 0.7319,-0.0139 -0.056,-0.1762 -0.2553,-0.2506 -0.3739,-0.4695 0.843,-0.7075 1.5534,-1.3999 0.7393,-2.3335 -0.2978,-0.3412 -1.7325,-0.9515 -2.2612,-1.1072z"/>
  </g>
  <g>
   <path class="fil0 str1" d="M0.9374 8.3241c-1.873,2.4856 -0.6286,4.3756 0.7956,3.853 0.248,-0.0906 0.1617,-0.1323 0.3683,0.0711 0.2311,0.2272 0.396,0.3262 0.7319,-0.0139 -0.056,-0.1762 -0.2553,-0.2506 -0.3739,-0.4695 0.843,-0.7075 1.5534,-1.3999 0.7393,-2.3335 -0.2978,-0.3412 -1.7325,-0.9515 -2.2612,-1.1072zm0 0z"/>
   <path id="1" class="fil1" d="M0.9374 8.3241c-1.873,2.4856 -0.6286,4.3756 0.7956,3.853 0.248,-0.0906 0.1617,-0.1323 0.3683,0.0711 0.2311,0.2272 0.396,0.3262 0.7319,-0.0139 -0.056,-0.1762 -0.2553,-0.2506 -0.3739,-0.4695 0.843,-0.7075 1.5534,-1.3999 0.7393,-2.3335 -0.2978,-0.3412 -1.7325,-0.9515 -2.2612,-1.1072zm0 0z"/>
  </g>
  <path class="fil6" d="M1.228 9.9492c-0.208,-0.0033 -0.4419,-0.0013 -0.6875,0.2235 0.3755,-0.0017 0.8082,-0.2811 0.82,0.3572 -0.2628,0.05 -0.5903,0.1435 -0.7945,0.4259 0.3714,-0.154 0.5539,-0.2556 0.8692,-0.18l0.2606 0.485c-0.34,0.066 -0.4953,0.0388 -0.832,0.3558 0.307,-0.0405 0.4669,-0.1746 0.8091,-0.1415 0.3399,0.0325 0.307,0.284 0.644,0.4911l0.1148 0.0484c-0.2406,-0.3395 -0.4928,-0.454 -0.1665,-0.9948 0.0968,-0.1604 0.2421,-0.3004 0.3922,-0.4311 0.1214,-0.1066 0.456,-0.3191 0.5162,-0.3914 -0.7343,0.2005 -0.8663,0.4469 -1.2481,1.0212 -0.0751,-0.1332 -0.2013,-0.3358 -0.2055,-0.4698 -0.0033,-0.1119 0.1099,-0.3158 0.1935,-0.4386 0.3065,-0.4507 0.4998,-0.4565 0.8975,-0.7205 -0.6403,0.1458 -0.8391,0.2744 -1.225,0.8454 -0.1291,-0.2882 -0.1491,-0.4043 0.0334,-0.7171 0.1833,-0.3138 0.3404,-0.3684 0.6228,-0.5769 -0.378,-0.053 -0.6705,0.3739 -0.8659,0.6487 -0.1178,-0.2756 -0.1337,-0.5764 -0.218,-0.8358 -0.0338,0.421 0.0738,0.8086 0.0697,0.9953z"/>
 </g>
</svg>
