<?xml version="1.0" encoding="UTF-8"?>
<!DOCTYPE svg PUBLIC "-//W3C//DTD SVG 1.1//EN" "http://www.w3.org/Graphics/SVG/1.1/DTD/svg11.dtd">
<!-- Creator: CorelDRAW -->
<svg xmlns="http://www.w3.org/2000/svg" xml:space="preserve" width="16.9332mm" height="16.9332mm" style="shape-rendering:geometricPrecision; text-rendering:geometricPrecision; image-rendering:optimizeQuality; fill-rule:evenodd; clip-rule:evenodd"
viewBox="0 0 16.9332 16.9332"
 xmlns:xlink="http://www.w3.org/1999/xlink">
 <defs>
  <style type="text/css">
   <![CDATA[
    .fil0 {fill:black}
    .fil2 {fill:#BBBBBB}
    .fil1 {fill:#F3F3F5}
   ]]>
  </style>
 </defs>
 <g id="Capa_x0020_1">
  <metadata id="CorelCorpID_0Corel-Layer"/>
  <g id="_413468424">
   <path id="_374637912" class="fil0" d="M6.473 15.858l2.9516 -0.0018c-0.0442,0.3184 -0.3087,0.2666 -0.6059,0.2663l-1.7217 0c-0.3528,0.0002 -0.5526,0.0654 -0.624,-0.2645zm-1.8832 -0.5453l6.7248 0.0049 0.0028 0.2522c-0.2182,0.0539 -5.9941,0.0128 -6.736,0.0101l0.0084 -0.2672zm2.5553 -1.7214c0.3706,0.0854 1.4227,0.5103 1.6462,0.5231 0.5962,0.0339 0.6321,-0.7494 0.8434,-1.1898 0.0481,-0.1003 -0.0358,0.0289 0.0645,-0.0913l-0.0005 1.6732 -2.5536 0.0007 0 -0.9159zm-3.3637 -1.1248l3.0885 1.0266 -0.0016 1.0133 -3.0868 -0.0002 -0.0001 -2.0397zm3.4976 0.8884l0.4954 -1.4772c0.3835,0.0616 0.3965,0.2726 0.6348,-0.0099 0.0164,-0.0193 0.2148,-0.242 0.2153,-0.2423 0.1679,-0.1174 0.1856,0.0813 0.1045,0.1948 -0.2445,0.3424 -0.1393,0.3206 0.22,0.4379 0.2488,0.0812 0.5612,0.1218 0.4761,0.4566 -0.051,0.2008 -0.177,0.4827 -0.2484,0.6844 -0.09,0.2546 -0.1299,0.5227 -0.4656,0.427 -0.4434,-0.1263 -0.9997,-0.3866 -1.4321,-0.4713zm6.1878 -6.6385l1.3413 0.0043 -0.0009 8.3223 -13.7162 -0.0099 -0.0004 -8.3162 1.4788 0.013 -0.0092 0.2486 -1.165 0.0492c-0.0926,0.1508 -0.0245,6.6704 -0.0109,7.7183 0.2154,0.0713 8.8118,0.0286 9.8334,0.0286 0.334,0 3.1927,-0.0102 3.272,-0.0447 0.1002,-0.0435 0.0499,-1.663 0.0499,-1.8598l-0.0259 -5.802c-0.0467,-0.0833 -0.0502,-0.0829 -0.1893,-0.0846l-0.8569 0.0009 -0.0007 -0.268zm-2.4749 0.2685c-0.078,-0.0625 -0.0911,-0.1699 -0.1126,-0.262l0.5693 -0.0059 0.0003 0.261 -0.457 0.0069zm0.726 -2.6893l0.2679 0.5307c-0.0001,0.213 -0.02,0.5931 0.0189,0.7691l0.9899 0.1639c0.2605,0.1996 0.2003,0.5813 0.1966,0.9512l-1.4742 0.0065 0.0009 -2.4214zm-4.6912 8.9508c-0.2541,-0.0402 -2.3301,-0.7602 -2.736,-0.9012 -0.5333,-0.1854 -0.9245,-0.245 -1.1963,-0.6098 -0.3368,-0.4521 -0.2534,-0.8991 -0.2534,-1.5466 0,-1.204 0.0052,-2.4091 -0.0003,-3.6129 -0.0027,-0.5794 0.2766,-0.9359 0.869,-0.9392 0.5585,-0.003 1.2386,-0.0313 1.7841,0.0064l-0.0987 1.891 -0.3974 0.5949c0.027,0.2638 0.257,0.4739 0.5474,0.4643 0.4821,-0.0159 0.8317,-0.7087 0.1189,-1.0605l0.0625 -1.5356c0.1195,0.371 1.1386,3.412 1.1442,3.654 0.0116,0.4977 0.0205,1.1088 -0.004,1.6016l-2.1449 -0.7535 -0.004 -1.5241c0,-0.3123 0.0614,-1.248 -0.0485,-1.4344l-0.1647 -0.0071c-0.0295,0.9557 -0.0544,1.7577 -0.055,2.7115 -0.0002,0.4724 -0.0779,0.4315 0.3241,0.573 0.4897,0.1724 2.3965,0.8648 2.7301,0.947l-0.4771 1.4812zm0.2294 -7.3759c0.1994,-0.3149 0.4027,-0.2394 0.8709,-0.2315l-0.7406 2.3003c-0.0377,-0.4587 -0.1675,-1.2935 -0.0346,-1.6953l0.3416 -0.058c0.0651,-0.1259 0.1397,-0.238 0.091,-0.3809l-0.2923 0.1705 -0.236 -0.1051zm-0.6385 2.0145l-0.7207 -2.2444c0.4528,-0.004 0.7248,-0.082 0.8657,0.2299l-0.2369 0.1254 -0.268 -0.1746 0.1284 0.4708 0.2593 -0.044c0.0134,0.1918 0.1151,1.453 -0.0278,1.6369zm2.1296 -0.7257c-0.0027,-0.3058 0.007,-0.5512 -0.0575,-0.8505 -0.0611,-0.2834 -0.1548,-0.4372 -0.2347,-0.6634l1.0693 -0.008 0.9178 0.5846c0.1326,0.3549 0.238,0.781 0.3478,1.1466 0.1141,0.3799 0.2309,0.7667 0.3453,1.1512 0.0756,0.2541 0.2612,0.9646 0.3615,1.1313l0.2206 -0.5066c0.0196,-0.0941 -0.042,-1.9416 0.0179,-2.1602l1.4431 0.0017 -0.02 2.7446c-0.141,0.6797 -0.716,1.2526 -1.5165,1.2823 -0.852,0.0316 -1.4104,-0.5449 -1.6095,-1.192 -0.1238,-0.4027 -0.0603,-1.5228 -0.0631,-2.0614 -0.0018,-0.338 -0.2698,-0.2892 -0.2698,-0.0544l-0.0009 4.6943c-0.1377,-0.1278 -0.1188,-0.1954 -0.324,-0.2825 -0.1325,-0.0562 -0.3035,-0.0773 -0.4118,-0.15 0.0632,-0.3621 0.1729,-0.4866 -0.2058,-0.645 -0.1991,-0.0833 -0.2329,0.0186 -0.3229,0.1199 -0.0963,0.1083 -0.1611,0.1585 -0.2278,0.2727l-0.8365 -0.2746c-0.1677,-0.0579 -0.205,-0.0442 -0.2247,-0.1221l-0.0009 -1.6382c0.0033,-0.2627 0.2723,-0.9617 0.3654,-1.2494 0.1007,-0.3108 0.7199,-2.3087 0.8012,-2.4124 0.1161,0.5811 0.1716,0.6347 0.1656,1.1511 -0.4016,0.2436 -0.4527,0.2058 -0.5952,0.6426 -0.2031,0.6227 -0.3499,0.7582 0.0547,1.1152 0.0954,0.0841 0.0583,0.1064 0.1326,0.1774 0.2979,0.2845 0.7196,-0.208 0.414,-0.4687 -0.2016,-0.172 -0.3516,0.0242 -0.4635,0.0134l0.1011 -0.7097c0.1484,-0.6331 0.7704,-0.7149 0.9992,-0.0568 0.0553,0.159 0.3486,0.8136 0.0453,0.7237 -0.0507,-0.015 -0.0433,-0.0275 -0.121,-0.0344 -0.1013,-0.0089 -0.1856,0.0297 -0.2374,0.0814 -0.1091,0.1088 -0.1285,0.3027 -0.0121,0.4304 0.0996,0.1094 0.3244,0.1394 0.4479,0.0039 0.0706,-0.0775 0.0519,-0.1035 0.1259,-0.1833 0.3433,-0.3699 0.2058,-0.5037 -0.0005,-1.1287 -0.1775,-0.5377 -0.4351,-0.4977 -0.6201,-0.616zm-2.018 -2.8143c-0.1435,-0.0841 -0.3064,-0.0471 -0.3733,-0.22 -0.063,-0.1626 0.0266,-0.3141 0.1632,-0.3586 0.2516,-0.082 0.2765,0.1572 0.4382,0.0748 0.052,-0.0266 0.0905,-0.0962 0.1176,-0.1647 0.0935,-0.2358 -0.0542,-0.1854 0.7433,-0.1803l-0.0268 1.068c-0.0404,0.1111 -0.1455,0.2252 -0.2784,0.255 -0.2193,0.0494 -0.2851,-0.0698 -0.4791,-0.0007l0.2429 0.2794c-0.0272,0.352 0.028,0.4092 -0.2645,0.6067 -0.3086,-0.2662 -0.2687,-0.1684 -0.2672,-0.5679 0.0008,-0.2061 0.022,-0.6287 -0.0159,-0.7917zm1.3549 -0.871c0.251,-0.0815 0.3971,-0.1996 0.4864,-0.4178 0.0511,-0.1248 0.0907,-0.7155 0.0308,-0.8368 -0.062,-0.1258 -0.6552,-0.075 -0.8269,-0.075 -0.2938,0 -0.6134,-0.0119 -0.904,0.0017 -0.2852,0.0133 -0.4926,0.1381 -0.6152,0.2867 -0.1694,0.2053 -0.1881,0.4022 -0.1874,0.7283 0.0017,0.7029 -0.1429,1.1925 0.4069,1.3871l-0.0035 0.8103 -2.5071 0.0105c-0.4601,-0.0001 -0.6852,0.0084 -0.996,0.2391 -0.3752,0.2787 -0.3443,0.653 -0.4152,0.8305l-0.9031 0.0101c-0.1891,0 -0.6905,-0.0548 -0.8041,0.0611l-0.0227 6.5861c0,0.2136 -0.0502,2.1221 0.0471,2.1618l1.5517 0.0575 0.0117 0.2603 -2.391 0.0605 0.0487 1.0777c0.1662,0.2766 0.5426,0.2133 0.9376,0.2133l13.9992 0c0.3861,0 0.7135,0.0128 0.8304,-0.3185 0.0202,-0.0575 0.1149,-0.9606 -0.0645,-1.0133l-2.3264 -0.0093 -0.0005 -0.2748 1.2795 0.0006c0.1718,0.0015 0.2779,0.0264 0.3083,-0.0794l-0.0004 -8.7418 -1.5872 -0.0414 -0.2834 -0.8794c-0.2599,-0.2313 -0.5357,-0.202 -0.9295,-0.2003l-0.0199 -1.055c-0.0367,-0.1221 -0.1364,-0.2303 -0.2663,-0.2665 -0.6033,-0.168 -0.5189,0.18 -0.5189,0.5808l-0.0009 1.8129 -0.6634 0.0073 -3.2372 -1.0857 -0.0005 -0.2265 0.3413 -0.2249c0.3017,-0.2882 0.1918,-0.9442 0.1956,-1.4378z"/>
   <path id="_374636136" class="fil1" d="M7.0267 13.2464l0.4771 -1.4812c-0.3336,-0.0822 -2.2404,-0.7746 -2.7301,-0.947 -0.402,-0.1415 -0.3243,-0.1006 -0.3241,-0.573 0.0006,-0.9538 0.0255,-1.7558 0.055,-2.7115l0.1647 0.0071c0.1099,0.1864 0.0485,1.1221 0.0485,1.4344l0.004 1.5241 2.1449 0.7535c0.0245,-0.4928 0.0156,-1.1039 0.004,-1.6016 -0.0056,-0.242 -1.0247,-3.283 -1.1442,-3.654l-0.0625 1.5356c0.7128,0.3518 0.3632,1.0446 -0.1189,1.0605 -0.2904,0.0096 -0.5204,-0.2005 -0.5474,-0.4643l0.3974 -0.5949 0.0987 -1.891c-0.5455,-0.0377 -1.2256,-0.0094 -1.7841,-0.0064 -0.5924,0.0033 -0.8717,0.3598 -0.869,0.9392 0.0055,1.2038 0.0003,2.4089 0.0003,3.6129 0,0.6475 -0.0834,1.0945 0.2534,1.5466 0.2718,0.3648 0.663,0.4244 1.1963,0.6098 0.4059,0.141 2.4819,0.861 2.736,0.9012z"/>
   <path id="_375511040" class="fil1" d="M8.7472 7.1593c0.185,0.1183 0.4426,0.0783 0.6201,0.616 0.2063,0.625 0.3438,0.7588 0.0005,1.1287 -0.074,0.0798 -0.0553,0.1058 -0.1259,0.1833 -0.1235,0.1355 -0.3483,0.1055 -0.4479,-0.0039 -0.1164,-0.1277 -0.097,-0.3216 0.0121,-0.4304 0.0518,-0.0517 0.1361,-0.0903 0.2374,-0.0814 0.0777,0.0069 0.0703,0.0194 0.121,0.0344 0.3033,0.0899 0.01,-0.5647 -0.0453,-0.7237 -0.2288,-0.6581 -0.8508,-0.5763 -0.9992,0.0568l-0.1011 0.7097c0.1119,0.0108 0.2619,-0.1854 0.4635,-0.0134 0.3056,0.2607 -0.1161,0.7532 -0.414,0.4687 -0.0743,-0.071 -0.0372,-0.0933 -0.1326,-0.1774 -0.4046,-0.357 -0.2578,-0.4925 -0.0547,-1.1152 0.1425,-0.4368 0.1936,-0.399 0.5952,-0.6426 0.006,-0.5164 -0.0495,-0.57 -0.1656,-1.1511 -0.0813,0.1037 -0.7005,2.1016 -0.8012,2.4124 -0.0931,0.2877 -0.3621,0.9867 -0.3654,1.2494l0.0009 1.6382c0.0197,0.0779 0.057,0.0642 0.2247,0.1221l0.8365 0.2746c0.0667,-0.1142 0.1315,-0.1644 0.2278,-0.2727 0.09,-0.1013 0.1238,-0.2032 0.3229,-0.1199 0.3787,0.1584 0.269,0.2829 0.2058,0.645 0.1083,0.0727 0.2793,0.0938 0.4118,0.15 0.2052,0.0871 0.1863,0.1547 0.324,0.2825l0.0009 -4.6943c0,-0.2348 0.268,-0.2836 0.2698,0.0544 0.0028,0.5386 -0.0607,1.6587 0.0631,2.0614 0.1991,0.6471 0.7575,1.2236 1.6095,1.192 0.8005,-0.0297 1.3755,-0.6026 1.5165,-1.2823l0.02 -2.7446 -1.4431 -0.0017c-0.0599,0.2186 0.0017,2.0661 -0.0179,2.1602l-0.2206 0.5066c-0.1003,-0.1667 -0.2859,-0.8772 -0.3615,-1.1313 -0.1144,-0.3845 -0.2312,-0.7713 -0.3453,-1.1512 -0.1098,-0.3656 -0.2152,-0.7917 -0.3478,-1.1466l-0.9178 -0.5846 -1.0693 0.008c0.0799,0.2262 0.1736,0.38 0.2347,0.6634 0.0645,0.2993 0.0548,0.5447 0.0575,0.8505z"/>
   <path id="_413466336" class="fil0" d="M4.3364 3.8141l-0.0206 0.5455c-0.7864,-0.7024 -0.3171,-0.5994 -1.3677,-0.5994 -0.4846,0 -1.5591,0.063 -1.9373,-0.1004 -1.0618,-0.4588 -0.9237,-2.1497 0.3285,-2.3052 0.538,-0.0668 1.4289,-0.0142 2.0039,-0.0142 0.6247,0 1.3784,-0.0921 1.8177,0.2289 0.354,0.2587 0.6627,0.8249 0.4092,1.4451 -0.0866,0.212 -0.299,0.4577 -0.4643,0.554 -0.2674,0.1557 -0.632,0.1603 -0.7694,0.2457zm0.2557 0.2048c0,0 0,0 0,0z"/>
   <path id="_413465712" class="fil1" d="M13.4675 6.9844l0.8569 -0.0009c0.1391,0.0017 0.1426,0.0013 0.1893,0.0846l0.0259 5.802c0,0.1968 0.0503,1.8163 -0.0499,1.8598 -0.0793,0.0345 -2.938,0.0447 -3.272,0.0447 -1.0216,0 -9.618,0.0427 -9.8334,-0.0286 -0.0136,-1.0479 -0.0817,-7.5675 0.0109,-7.7183l1.165 -0.0492 0.0092 -0.2486 -1.4788 -0.013 0.0004 8.3162 13.7162 0.0099 0.0009 -8.3223 -1.3413 -0.0043 0.0007 0.268z"/>
   <path id="_413466048" class="fil1" d="M3.286 3.2232c0.1788,0.0018 0.3582,0.0006 0.537,0.0006 0.2578,0 0.8491,-0.0575 1.0108,0.0508l0.0088 0.1655 -1.8488 0.0147c-0.0546,-0.2562 0.0621,-0.2339 0.2922,-0.2316zm-0.0839 -0.2699c-0.3351,-0.0015 -0.2733,-0.25 -0.058,-0.2706 0.1953,-0.0186 0.4929,-0.0228 0.6161,0.0579 -0.3635,0.2545 -0.2299,0.2129 -0.5581,0.2127zm1.4677 -0.0011c-0.1871,0 -0.6129,0.0718 -0.615,-0.1313 -0.0023,-0.2146 0.4473,-0.1363 0.615,-0.1364 0.2163,0 0.5472,-0.0466 0.7042,0.0488l-0.0046 0.1728c-0.1652,0.0886 -0.481,0.0461 -0.6996,0.0461zm-1.9403 -0.5877c-0.0766,-0.3037 0.2495,-0.2181 0.5008,-0.2181 0.4144,0 1.9756,-0.045 2.1438,0.0498l0.0029 0.1715 -2.6475 -0.0032zm-1.6387 -0.7363c0.391,-0.1041 0.7095,0.3596 1.0813,0.7282 0.1219,0.1209 0.3658,0.3041 0.3901,0.5503 0.0283,0.2865 -0.1571,0.507 -0.3804,0.5624 -0.3478,0.0862 -0.5154,-0.1329 -0.6536,-0.2712 -0.2689,-0.2693 -0.821,-0.7295 -0.8377,-1.0253 -0.0165,-0.2935 0.1601,-0.4804 0.4003,-0.5444zm2.5924 0.2517c-0.2642,0.0051 -1.1304,0.0547 -1.1949,-0.0669 -0.1481,-0.2789 0.437,-0.2041 0.6009,-0.2041 0.2437,0 0.6182,-0.0478 0.7852,0.0572 0.0251,0.1664 -0.0333,0.2107 -0.1912,0.2138zm0.6532 1.9342c0.1374,-0.0854 0.502,-0.09 0.7694,-0.2457 0.1653,-0.0963 0.3777,-0.342 0.4643,-0.554 0.2535,-0.6202 -0.0552,-1.1864 -0.4092,-1.4451 -0.4393,-0.321 -1.193,-0.2289 -1.8177,-0.2289 -0.575,0 -1.4659,-0.0526 -2.0039,0.0142 -1.2522,0.1555 -1.3903,1.8464 -0.3285,2.3052 0.3782,0.1634 1.4527,0.1004 1.9373,0.1004 1.0506,0 0.5813,-0.103 1.3677,0.5994l0.0206 -0.5455z"/>
   <polygon id="_413466168" class="fil1" points="3.7815,14.5062 6.8683,14.5064 6.8699,13.4931 3.7814,12.4665 "/>
   <path id="_413466720" class="fil1" d="M7.279 13.3549c0.4324,0.0847 0.9887,0.345 1.4321,0.4713 0.3357,0.0957 0.3756,-0.1724 0.4656,-0.427 0.0714,-0.2017 0.1974,-0.4836 0.2484,-0.6844 0.0851,-0.3348 -0.2273,-0.3754 -0.4761,-0.4566 -0.3593,-0.1173 -0.4645,-0.0955 -0.22,-0.4379 0.0811,-0.1135 0.0634,-0.3122 -0.1045,-0.1948 -0.0005,0.0003 -0.1989,0.223 -0.2153,0.2423 -0.2383,0.2825 -0.2513,0.0715 -0.6348,0.0099l-0.4954 1.4772z"/>
   <path id="_413467056" class="fil1" d="M4.5814 15.5799c0.7419,0.0027 6.5178,0.0438 6.736,-0.0101l-0.0028 -0.2522 -6.7248 -0.0049 -0.0084 0.2672z"/>
   <path id="_413466552" class="fil1" d="M6.7292 4.345c0.0379,0.163 0.0167,0.5856 0.0159,0.7917 -0.0015,0.3995 -0.0414,0.3017 0.2672,0.5679 0.2925,-0.1975 0.2373,-0.2547 0.2645,-0.6067l-0.2429 -0.2794c0.194,-0.0691 0.2598,0.0501 0.4791,0.0007 0.1329,-0.0298 0.238,-0.1439 0.2784,-0.255l0.0268 -1.068c-0.7975,-0.0051 -0.6498,-0.0555 -0.7433,0.1803 -0.0271,0.0685 -0.0656,0.1381 -0.1176,0.1647 -0.1617,0.0824 -0.1866,-0.1568 -0.4382,-0.0748 -0.1366,0.0445 -0.2262,0.196 -0.1632,0.3586 0.0669,0.1729 0.2298,0.1359 0.3733,0.22z"/>
   <path id="_413466456" class="fil1" d="M11.717 6.717l1.4742 -0.0065c0.0037,-0.3699 0.0639,-0.7516 -0.1966,-0.9512l-0.9899 -0.1639c-0.0389,-0.176 -0.019,-0.5561 -0.0189,-0.7691l-0.2679 -0.5307 -0.0009 2.4214z"/>
   <path id="_413466792" class="fil1" d="M7.1451 14.5072l2.5536 -0.0007 0.0005 -1.6732c-0.1003,0.1202 -0.0164,-0.009 -0.0645,0.0913 -0.2113,0.4404 -0.2472,1.2237 -0.8434,1.1898 -0.2235,-0.0128 -1.2756,-0.4377 -1.6462,-0.5231l0 0.9159z"/>
   <path id="_413466648" class="fil0" d="M1.7074 2.2548l-0.3737 0.3655c-0.1868,-0.173 -0.535,-0.4426 -0.3038,-0.6709 0.2468,-0.2436 0.5646,0.2049 0.6775,0.3054zm-0.6166 -0.6266c-0.2402,0.064 -0.4168,0.2509 -0.4003,0.5444 0.0167,0.2958 0.5688,0.756 0.8377,1.0253 0.1382,0.1383 0.3058,0.3574 0.6536,0.2712 0.2233,-0.0554 0.4087,-0.2759 0.3804,-0.5624 -0.0243,-0.2462 -0.2682,-0.4294 -0.3901,-0.5503 -0.3718,-0.3686 -0.6903,-0.8323 -1.0813,-0.7282z"/>
   <path id="_413466912" class="fil1" d="M7.2561 5.8705l0.236 0.1051 0.2923 -0.1705c0.0487,0.1429 -0.0259,0.255 -0.091,0.3809l-0.3416 0.058c-0.1329,0.4018 -0.0031,1.2366 0.0346,1.6953l0.7406 -2.3003c-0.4682,-0.0079 -0.6715,-0.0834 -0.8709,0.2315z"/>
   <path id="_413467200" class="fil1" d="M6.6176 7.885c0.1429,-0.1839 0.0412,-1.4451 0.0278,-1.6369l-0.2593 0.044 -0.1284 -0.4708 0.268 0.1746 0.2369 -0.1254c-0.1409,-0.3119 -0.4129,-0.2339 -0.8657,-0.2299l0.7207 2.2444z"/>
   <path id="_413467776" class="fil1" d="M6.473 15.858c0.0714,0.3299 0.2712,0.2647 0.624,0.2645l1.7217 0c0.2972,0.0003 0.5617,0.0521 0.6059,-0.2663l-2.9516 0.0018z"/>
   <path id="_413467536" class="fil0" d="M2.7295 2.3645l2.6475 0.0032 -0.0029 -0.1715c-0.1682,-0.0948 -1.7294,-0.0498 -2.1438,-0.0498 -0.2513,0 -0.5774,-0.0856 -0.5008,0.2181z"/>
   <path id="_413467896" class="fil0" d="M2.9938 3.4548l1.8488 -0.0147 -0.0088 -0.1655c-0.1617,-0.1083 -0.753,-0.0508 -1.0108,-0.0508 -0.1788,0 -0.3582,0.0012 -0.537,-0.0006 -0.2301,-0.0023 -0.3468,-0.0246 -0.2922,0.2316z"/>
   <polygon id="_413467584" class="fil2" points="16.8908,3.3584 16.8908,-0.0001 16.7712,-0.0001 16.7698,3.3587 "/>
   <path id="_413467728" class="fil0" d="M3.8744 1.6661c-0.167,-0.105 -0.5415,-0.0572 -0.7852,-0.0572 -0.1639,0 -0.749,-0.0748 -0.6009,0.2041 0.0645,0.1216 0.9307,0.072 1.1949,0.0669 0.1579,-0.0031 0.2163,-0.0474 0.1912,-0.2138z"/>
   <path id="_413468232" class="fil0" d="M5.3694 2.9061l0.0046 -0.1728c-0.157,-0.0954 -0.4879,-0.0488 -0.7042,-0.0488 -0.1677,0.0001 -0.6173,-0.0782 -0.615,0.1364 0.0021,0.2031 0.4279,0.1313 0.615,0.1313 0.2186,0 0.5344,0.0425 0.6996,-0.0461z"/>
   <path id="_413468400" class="fil1" d="M1.7074 2.2548c-0.1129,-0.1005 -0.4307,-0.549 -0.6775,-0.3054 -0.2312,0.2283 0.117,0.4979 0.3038,0.6709l0.3737 -0.3655z"/>
   <path id="_413468112" class="fil0" d="M3.2021 2.9533c0.3282,0.0002 0.1946,0.0418 0.5581,-0.2127 -0.1232,-0.0807 -0.4208,-0.0765 -0.6161,-0.0579 -0.2153,0.0206 -0.2771,0.2691 0.058,0.2706z"/>
   <path id="_413468088" class="fil1" d="M10.9919 6.9849l0.457 -0.0069 -0.0003 -0.261 -0.5693 0.0059c0.0215,0.0921 0.0346,0.1995 0.1126,0.262z"/>
  </g>
 </g>
</svg>
