<?xml version="1.0" encoding="UTF-8"?>
<!DOCTYPE svg PUBLIC "-//W3C//DTD SVG 1.1//EN" "http://www.w3.org/Graphics/SVG/1.1/DTD/svg11.dtd">
<!-- Creator: CorelDRAW -->
<svg xmlns="http://www.w3.org/2000/svg" xml:space="preserve" width="16.9332mm" height="16.9332mm" style="shape-rendering:geometricPrecision; text-rendering:geometricPrecision; image-rendering:optimizeQuality; fill-rule:evenodd; clip-rule:evenodd"
viewBox="0 0 16.9332 16.9332"
 xmlns:xlink="http://www.w3.org/1999/xlink">
 <defs>
  <style type="text/css">
   <![CDATA[
    .fil1 {fill:#070707}
    .fil13 {fill:#080808}
    .fil8 {fill:#090909}
    .fil6 {fill:#0A0A0A}
    .fil12 {fill:#0D0D0D}
    .fil9 {fill:#0E0E0E}
    .fil11 {fill:#101010}
    .fil10 {fill:#111111}
    .fil14 {fill:#141414}
    .fil23 {fill:#1A1A1A}
    .fil20 {fill:#343434}
    .fil25 {fill:#4E4E4E}
    .fil21 {fill:#595959}
    .fil16 {fill:#616161}
    .fil19 {fill:#818181}
    .fil24 {fill:#8F8F8F}
    .fil15 {fill:#929292}
    .fil22 {fill:#959595}
    .fil26 {fill:#A6A6A6}
    .fil18 {fill:silver}
    .fil17 {fill:#C9C9C9}
    .fil7 {fill:whitesmoke}
    .fil5 {fill:#F6F6F6}
    .fil4 {fill:#F8F8F8}
    .fil3 {fill:#FAFAFA}
    .fil2 {fill:#FCFCFC}
    .fil0 {fill:#FDFDFD}
   ]]>
  </style>
 </defs>
 <g id="Capa_x0020_1">
  <metadata id="CorelCorpID_0Corel-Layer"/>
  <g id="_45980328">
   <path id="_45987744" class="fil0" d="M12.4364 7.5818l0.0958 0.0526 -1.5472 -0.0382 0.9162 0.2162 0.4366 0.0171c0.1308,-0.0425 0.2533,-0.1073 0.2213,0.0974 -0.1167,0.1349 0.119,0.0648 -0.2192,0.1233l0.0783 0.1488c0.0024,0.0037 0.0103,0.0295 0.0118,0.0233 0.0012,-0.0052 0.0043,0.0137 0.0064,0.0207 -0.4568,0.2798 -0.4255,0.1062 -0.4973,0.3414l0 -0.2418 -0.4254 0.0279 0.1841 -0.2982c-0.4089,0.1656 -0.1505,0.0425 -0.3266,0.2986l0.0714 -0.571 -0.2848 0.021 -0.17 0.1948 0.3831 0.2128 -0.4965 -0.0703c-0.2392,0.3082 -0.1652,0.1855 -0.0718,0.1413l-0.4778 -0.0288 -0.1611 -0.0772 -0.0686 0.1162c-0.0085,-0.0243 -0.0686,0.0349 -0.0964,0.0608l-0.218 3.4133c0.0183,0.4208 0.2326,0.5054 0.1914,0.955 -0.6331,-2.6742 -0.3458,-1.1088 -0.3018,-3.9181 -0.0114,-0.0189 -0.0294,-0.0427 -0.0371,-0.0548l-0.1089 -0.1815 -0.4262 0c-0.0111,-0.2757 -0.0599,-0.2574 -0.0714,-0.2842 -0.6724,0.0957 -0.4727,0.1068 -0.7478,-0.1535 -0.2196,-0.2078 0.1732,0.0258 -0.246,-0.0603 -0.026,-0.1234 -0.0393,-0.1567 0,-0.2698 -0.1059,-0.0501 -0.1877,-0.0774 -0.2924,-0.1521 -0.1122,-0.0799 -0.0002,-0.0039 -0.1096,-0.0965 -0.1155,-0.098 -0.0231,-0.028 -0.0694,-0.0499 -0.1563,0.0343 -0.1956,0.0501 -0.3085,0 -0.0185,1.9766 0.1339,3.7578 -0.5722,5.3808 0.0311,0.0222 0.0703,0.1488 0.1,0.0758 0.0098,-0.0241 0.0248,0.0591 0.0439,0.0845l-0.1414 0.2696 0.2841 0.0146 -0.0058 0.8628c0.0713,0.5981 0.0816,0.1605 0.6105,0.3984l0.0955 0.0512c0.1892,0.0958 0.0934,0.0095 0.294,0.2499l0.4976 -0.0703 0 -0.2131c0.2022,0.0251 0.2226,0.1355 0.3747,0.1911 0.1097,0.0402 0.0487,0.0266 0.2082,-0.0006l0.2592 0.0553 0.115 -0.0079 0.0664 -0.1171 -0.1711 -0.1918 0.4113 0c-0.2298,-0.0714 0.0087,-0.124 -0.0818,-0.309 -0.135,-0.276 -0.0697,-0.129 -0.0461,-0.4021 0.0133,0.0183 -0.2768,0.0692 0.0695,0.0328 0.2859,-0.0301 -0.0521,-0.0845 0.5696,-0.0328l0.008 0.2845 0.5467 0.1134c0.0809,0.2527 -0.1074,0.0926 -0.0572,0.3848l0.5436 0.0462c-0.401,0.2902 -0.7492,0.2715 -1.142,0.0159l0.1011 0.2918 -0.3972 -0.3124 -0.128 0.2396 -0.1821 0.0017 -0.0248 0.1079 0.2349 0.0349c-0.0858,0.245 0.0684,0.2383 -0.4035,0.3548l0.2441 0.1954c-0.0836,0.0487 -0.1578,0.0896 -0.267,0.1075l-0.3768 0.032 -0.0666 -0.1928 -0.195 0.2128c-0.0477,-0.2133 0.0959,-0.0595 -0.1322,-0.1862l-0.2237 -0.0184c-0.2298,0.1795 0.0599,0.1196 -0.4494,0.1335l0.2602 0.0714 -0.3074 0.0711 -0.0002 0.4266 0.2837 0.2203c0.8472,0.0241 1.2999,0.0805 2.1506,-0.0605 0.5098,-0.0846 1.4572,-0.387 1.7111,-0.6516 -0.0097,-0.2506 -0.0128,-0.2887 -0.1066,-0.5233l0.2232 0.1367 0.2135 -0.1872 0.5675 -0.0714c0.0479,-0.2401 0.203,-0.151 0.1323,-0.5074 0.3461,0.112 0.2659,0.0471 0.893,-0.0243l0.0716 -0.1602c-0.0384,0.0655 -0.5809,-0.1352 -0.6611,-0.1475l-0.7909 -0.0127c-0.0639,-0.4137 -0.1393,-0.1159 -0.0346,-0.481 0.0327,-0.4472 -0.1076,-0.5376 0.0206,-1.8009 0.074,-0.7289 1.2009,-4.1863 0.4995,-4.6371 -0.2161,0.0476 -0.0815,0.0207 -0.2785,0.0283 -0.1464,0.0057 -0.088,0.0169 -0.2777,0.0003 -0.0782,0.1244 -0.2506,-0.1843 -0.0004,0.2051z"/>
   <path id="_45986760" class="fil1" d="M3.6121 10.3176c0.0713,0.2579 0.0072,0.5014 -0.0683,0.753 -0.0968,1.0702 -0.2503,1.0342 -0.0664,2.2305 -0.4491,-0.2783 -1.2102,-0.6594 -1.3077,-1.2476 -0.2346,-0.1659 -0.2386,-0.2319 -0.3844,-0.4912 -0.0993,-0.1763 -0.2191,-0.3737 -0.2612,-0.5814 -0.0855,-0.4213 0.0672,-1.031 0.3648,-1.2358l0.048 -0.2808c0.2137,-0.5366 -0.0277,-0.6663 0.4829,-1.5899 0.2266,-0.41 0.1474,-0.2858 0.2861,-0.3577 0.0229,-0.0248 0.0412,-0.0649 0.1089,-0.1081 0.1679,-0.107 0.4586,-0.1337 0.7812,0.0691 0.8661,0.5443 0.4241,1.0283 0.2542,1.7545l-0.1421 0.8497 -0.0638 0.1806c-0.0039,-0.0103 -0.0213,0.0368 -0.0322,0.0551zm6.0582 -1.4969c-0.044,2.8093 -0.3313,1.2439 0.3018,3.9181 0.0412,-0.4496 -0.1731,-0.5342 -0.1914,-0.955l0.218 -3.4133 -0.0005 -0.2127c0.0728,-0.3558 0.0879,-0.8341 0.336,-1.0497 0.0526,-0.3887 0.3356,-0.4947 0.8222,-0.4931 0.3023,0.0009 0.8722,0.0293 1.0676,0.1821 0.4103,0.1096 0.6394,0.2585 0.769,0.551 0.7014,0.4508 -0.4255,3.9082 -0.4995,4.6371 -0.1282,1.2633 0.0121,1.3537 -0.0206,1.8009 0.1192,0.0592 0.1469,0.0815 0.3103,0.1077 0.2492,-0.2946 0.022,-0.6418 0.0096,-1.1894 0.001,-0.753 0.3691,-1.8943 0.5854,-2.558 0.021,-0.2993 0.0703,-0.5499 0.1029,-0.85 0.0349,-0.323 0.0052,-0.6426 0.0365,-0.9237 0.0406,-0.3643 0.6224,-0.7462 1.0447,-0.7061 1.0692,0.1015 0.8843,2.733 0.8245,2.6226 -0.0263,0.5377 -0.293,1.6603 -0.4448,2.1481 -0.0891,0.2864 -0.7259,1.6358 -0.7832,1.6877 -0.0568,0.2737 -0.0494,0.2306 -0.1993,0.3023l-0.007 0.1381c-0.253,0.3379 -0.4526,0.4845 -0.8606,0.7087 -0.2267,0.1245 -0.8603,0.4211 -1.1269,0.4903 -0.2539,0.2646 -1.2013,0.567 -1.7111,0.6516 -0.8507,0.141 -1.3034,0.0846 -2.1506,0.0605 -0.783,-0.0928 -1.3902,-0.1789 -2.0944,-0.4168 -0.3105,-0.0861 -0.8162,-0.2602 -0.9601,-0.4398 -0.3037,-0.1242 -0.2,-0.0427 -0.4251,-0.2858 -0.1148,-0.1238 -0.1989,-0.1997 -0.3088,-0.3318 -0.2304,-0.2765 -0.3606,-0.5785 -0.4065,-0.9483l-0.0495 -0.059c-0.0807,-1.2378 -0.111,-2.1143 0.0926,-3.3245 0.1596,-0.9493 0.2576,-2.1312 0.5301,-3.0103 0.0325,-0.4001 0.1268,-0.7949 0.3112,-1.1078 0.225,-0.3816 0.3663,-0.5198 0.898,-0.4717 1.1053,0.0999 1.2952,0.3585 1.2004,1.5088 -0.124,1.5032 -0.0057,2.975 -0.3038,4.4581 -0.0516,0.2569 -0.0453,0.2927 -0.2241,0.4232 -0.0246,0.2497 0.0501,-0.0002 -0.0865,0.2523 -0.0899,0.1662 -0.081,0.1283 -0.1376,0.3484 0.2847,-0.0012 0.3843,-0.0861 0.5416,-0.1726 0.7061,-1.623 0.5537,-3.4042 0.5722,-5.3808 0.0364,-0.5666 0.1549,-1.0637 0.1725,-1.6334 0.0158,-0.5136 -0.0619,-1.1557 0.0357,-1.6471l0.1541 -2.2601c0.0406,-0.6709 0.3663,-1.2775 0.7658,-1.5016 0.5815,-0.326 1.1422,0.1905 1.2841,0.5722 0.3677,0.5634 0.2438,3.0241 0.2148,3.847 -0.0252,0.7135 -0.1097,1.1936 -0.0746,1.984 0.0321,0.7257 -0.0585,1.249 -0.1351,1.9416zm-1.6374 -8.5631c-0.1651,0.276 -0.4868,0.5435 -0.6344,1.0889 -0.1338,0.4941 -0.1385,1.0775 -0.1631,1.6274 -0.0248,0.5548 -0.1001,1.0341 -0.1638,1.5922 -0.062,0.5438 0.0586,0.9967 0.0155,1.5912l-0.7939 -0.3099c-1.3787,-0.4492 -1.718,0.4335 -2.0021,1.1031l-0.0982 0.7912c-0.4975,-0.7433 -1.1104,-0.636 -1.6826,-0.5196l-0.0504 0.0306c-0.0949,0.1853 -0.2037,0.3121 -0.3347,0.5331 -0.0684,0.1152 -0.0847,0.1765 -0.1386,0.2918 -0.0236,0.0506 -0.0464,0.0974 -0.0775,0.1488l-0.0773 0.0896c0.0178,0.4879 -0.0432,1.2773 -0.4069,1.5655 -0.2653,1.3102 -0.3077,1.3444 0.4991,2.3253 1.0308,1.2535 0.5159,1.1325 1.5598,1.4878l0.1536 0.6429 -0.0318 0.066c0.0759,0.0837 -0.0027,-0.0478 0.1043,0.131 0.3538,0.5914 0.6701,0.8641 0.7591,1.0516 0.2198,0.0581 0.1064,0.0352 0.3064,0.1617 1.3524,0.8563 3.4086,1.1839 4.9958,0.9676 0.5112,-0.0698 1.4558,-0.4278 1.7712,-0.4231 0.1074,-0.1298 -0.0773,0.0042 0.1539,-0.1365 0.0912,-0.0554 0.159,-0.0782 0.24,-0.1161 0.1866,-0.0873 0.2878,-0.1352 0.5001,-0.1976 0.3006,-0.2612 1.0826,-0.4397 1.5288,-0.9715 0.971,-1.1576 2.0254,-4.4181 1.7578,-5.95 -0.208,-1.1916 -0.4274,-1.7706 -1.7437,-1.4683 -0.1079,0.1242 -0.3777,0.2683 -0.5508,0.3736l-0.1492 -0.6316c-0.0881,-0.0941 -0.1892,-0.2907 -0.311,-0.4205 -0.1393,-0.1484 -0.247,-0.2425 -0.4382,-0.344 -0.5365,-0.2845 -0.8104,-0.201 -1.408,-0.2973 -0.1225,0.1191 -0.3244,0.1389 -0.49,0.217 -0.1877,0.0885 -0.2495,0.1695 -0.3668,0.2863 -0.0696,-0.6332 -0.0797,-0.7649 -0.0508,-1.3901 0.1112,-0.5723 0.0352,-1.9125 0.0246,-2.5576 -0.0132,-0.8038 -0.0256,-1.5773 -0.4642,-2.1479 -0.2057,-0.2245 -0.3518,-0.4282 -0.7463,-0.4871 -0.4825,-0.0719 -0.6625,0.0769 -0.9957,0.2045z"/>
   <path id="_45986280" class="fil0" d="M3.9084 14.054c0.1504,0.1042 0.1311,0.1222 0.3039,0.1421 -0.3168,-0.4567 -0.1861,-1.3804 0.1852,-1.6363l0.1456 -0.0647c0.0788,0.3678 0.0323,0.0755 -0.044,0.1949 -0.253,0.363 -0.3166,1.2127 -0.0215,1.5299 0.1633,-0.3554 0.1472,-0.0319 0.4188,-0.0617l0.2235 -0.1042c-0.0697,0.2231 -0.1284,0.2332 -0.141,0.2171 -0.0093,-0.0119 -0.0476,-0.0038 -0.0715,-0.004l0.345 0.1636 0.0065 0.6445c-0.0755,0.2321 0.1496,-0.2327 -0.0503,0.0743l0.1655 0.123c0.0428,0.0255 0.0575,0.1502 0.0782,0.1232 0.0116,-0.0149 0.013,0.053 0.0231,0.0783l0.08 -0.1417c0.0142,-0.0212 0.049,-0.0224 0.0612,-0.0711 0.013,-0.0522 0.0523,-0.0431 0.0715,-0.0706l-0.1476 0.2899 -0.4203 -0.1125 -0.0714 0.2519c0.1439,0.1796 0.6496,0.3537 0.9601,0.4398l0.0351 -0.2298c0.2205,-0.0431 0.179,-0.03 0.3905,0.1414 -0.0498,-0.062 -0.1108,-0.1454 -0.075,-0.2009l0.181 -0.083 -0.1633 -0.1394c-0.0091,-0.0087 -0.0287,-0.0217 -0.0373,-0.0311l-0.2249 -0.6822c0,-0.5748 -0.0721,0.0295 0.1774,-0.1936 0.0037,-0.1304 -0.0523,0.0011 0.0354,-0.0841l1.4118 0.7245c0.2819,0.0963 1.3069,-0.0227 1.5617,-0.4134l-0.2592 -0.0553c-0.1595,0.0272 -0.0985,0.0408 -0.2082,0.0006 -0.1521,-0.0556 -0.1725,-0.166 -0.3747,-0.1911l0 0.2131 -0.4976 0.0703c-0.2006,-0.2404 -0.1048,-0.1541 -0.294,-0.2499l-0.0955 -0.0512c-0.5289,-0.2379 -0.5392,0.1997 -0.6105,-0.3984l0.0058 -0.8628 -0.2841 -0.0146c-0.1858,0.1984 -0.4133,0.1432 -0.6305,0.0146l0.0864 -0.2719c0.0566,-0.2201 0.0477,-0.1822 0.1376,-0.3484 0.1366,-0.2525 0.0619,-0.0026 0.0865,-0.2523 -0.0817,-0.0425 -0.1033,0.1127 -0.1511,-0.2443 -0.0279,-0.209 0.015,-0.0225 -0.0051,-0.1986 -0.0006,-0.0061 -0.0507,-0.2241 -0.0567,-0.247l0.2481 -0.2131 -0.2217 -0.1301 0.0086 -0.7227 0.3551 -0.2131 -0.1182 -1.5447 -0.2369 -0.799 -0.4925 0 -0.1461 -0.4246 -0.3229 -0.0348 0.0434 0.1738c-0.3736,-0.0743 -0.3498,-0.2105 -0.2896,0.0007l-0.3606 -0.0458c-0.0347,-0.0548 -0.0317,0.0457 -0.1214,-0.1135l-0.0141 -0.0538c-0.2725,0.8791 -0.3705,2.061 -0.5301,3.0103 -0.2036,1.2102 -0.1733,2.0867 -0.0926,3.3245l0.0495 0.059z"/>
   <path id="_45986568" class="fil0" d="M13.3782 10.1464c-0.2163,0.6637 -0.5844,1.805 -0.5854,2.558 0.1813,0.3581 0.1239,0.2268 0.2126,0.6385 0.1869,0.0777 0.2396,0.0387 0.3858,0.1281l0.1114 0.0855c0,0.3184 -0.0782,0.461 0.1416,0.5872 0.1581,0.0908 0.2368,0.0071 0.3009,-0.0045 0.1045,-0.0189 0.0603,-0.0236 0.2137,-0.0142 0.0573,-0.0519 0.6941,-1.4013 0.7832,-1.6877 0.1518,-0.4878 0.4185,-1.6104 0.4448,-2.1481 -0.5086,-0.3672 0.4065,-0.2841 -1.1741,-0.2841l-0.0005 -0.427c0.3745,0.0102 0.3488,0.0403 0.5684,-0.1417 -0.3737,-0.2007 -0.1808,-0.1417 -0.5679,-0.1417l-0.1422 -0.2841 -0.1456 0.2321c-0.0061,0.0076 -0.0133,0.0219 -0.0197,0.0283l-0.2605 0.1654 0.2838 0.1417 0.0004 0.4266 -0.2842 0.1421c-0.1407,-0.0501 -0.0698,-0.0464 -0.2665,-0.0004z"/>
   <path id="_45986400" class="fil2" d="M8.1078 6.5048c-0.144,-0.1892 0.2791,0.1238 -0.2644,-0.1232l0.2606 -0.3548c0,-1.4485 -0.3133,-0.2637 -0.1096,-0.9534l0.1799 -0.2538c0.0053,0.0501 0.0089,0.098 0.062,0.1226 0.1354,0.0629 0.4229,-0.0061 0.5773,-0.0281l0 0.2603 0.7818 0.0003 0.0714 1.42 -0.0504 0.0751 -0.298 0.0881 -0.4334 -0.1632c-0.2979,0.4339 -0.0443,0.2329 -0.4968,0.4026 -0.0353,-0.522 -0.0421,-0.0775 -0.2584,-0.4477 -0.0063,-0.0108 -0.0142,-0.0345 -0.022,-0.0448zm1.3695 -5.2953c0.0157,0.2247 0.2515,0.8044 -0.0957,0.8783 0.0012,0.1516 0.0661,0.1907 -0.1256,0.1413l-0.78 -0.0052 -0.1589 0.2508 0.6386 0.0008 -0.1421 0.4257 0.3556 -0.2837c0.4385,0.2697 0.0327,0.1365 0.3568,0.3433 0.0148,0.0095 0.1204,0.0697 0.1401,0.0829l0.0817 0.7164c-0.0192,0.2517 -0.0014,0.0669 -0.0814,0.2063l-0.3548 -0.1414 -0.2657 0.3219c0.0953,0.0869 -0.0191,0.0198 0.1293,0.092l-0.6152 0.0359 -0.1851 0.0453 0.2832 0.1108 -0.3262 -0.0405 -0.0837 -0.0691c-0.0864,-0.0102 -0.1634,-0.0024 -0.2511,-0.032 -0.2077,-0.07 -0.1048,0.0237 -0.1721,-0.1399l-0.2173 -0.0463 -0.1465 0.1345c-0.0976,0.4914 -0.0199,1.1335 -0.0357,1.6471 -0.0176,0.5697 -0.1361,1.0668 -0.1725,1.6334 0.1129,0.0501 0.1522,0.0343 0.3085,0 0.021,-0.2821 0.0042,-0.3309 0.2818,-0.3979 0.3772,-0.0911 1.3169,-0.0993 1.5807,0.2433 -0.6603,-0.1384 -0.4967,-0.132 -1.1873,-0.1315l0 0.1461 0.6819 0.1089 0.2931 0.0278 -0.2672 0.2212c0.2628,0.0012 0.0869,-0.0486 0.2179,0.056l-1.1295 0.0246c-0.0393,0.1131 -0.026,0.1464 0,0.2698 0.4192,0.0861 0.0264,-0.1475 0.246,0.0603 0.2751,0.2603 0.0754,0.2492 0.7478,0.1535 0.0115,0.0268 0.0603,0.0085 0.0714,0.2842l0.4262 0 0.1089 0.1815c0.0077,0.0121 0.0257,0.0359 0.0371,0.0548 0.0766,-0.6926 0.1672,-1.2159 0.1351,-1.9416 -0.0351,-0.7904 0.0494,-1.2705 0.0746,-1.984 0.029,-0.8229 0.1529,-3.2836 -0.2148,-3.847 -0.0174,0.0159 -0.0779,0.0643 -0.0936,0.0707l-0.0943 0.0907z"/>
   <path id="_45986496" class="fil2" d="M4.4816 7.6602l0.0141 0.0538c0.0897,0.1592 0.0867,0.0587 0.1214,0.1135l0.3606 0.0458c-0.0602,-0.2112 -0.084,-0.075 0.2896,-0.0007l-0.0434 -0.1738c-0.1394,-0.1454 -0.1282,-0.0985 -0.383,-0.1241l0.1372 -0.2441 1.5254 0.1139c-0.3984,0.2586 -0.6141,0.1055 -1.0602,0.0894l0.7991 0.2286c0.0092,-0.0157 0.0333,0.022 0.0503,0.0322l-0.7459 -0.0611 0.1461 0.4246 0.4925 0 0.2369 0.799 0.1182 1.5447 -0.3551 0.2131 -0.0086 0.7227 0.2217 0.1301 -0.2481 0.2131c0.006,0.0229 0.0561,0.2409 0.0567,0.247 0.0201,0.1761 -0.0228,-0.0104 0.0051,0.1986 0.0478,0.357 0.0694,0.2018 0.1511,0.2443 0.1788,-0.1305 0.1725,-0.1663 0.2241,-0.4232 0.2981,-1.4831 0.1798,-2.9549 0.3038,-4.4581 0.0948,-1.1503 -0.0951,-1.4089 -1.2004,-1.5088 -0.5317,-0.0481 -0.673,0.0901 -0.898,0.4717 -0.1844,0.3129 -0.2787,0.7077 -0.3112,1.1078z"/>
   <path id="_45986904" class="fil2" d="M14.0459 8.8993l-0.1294 -0.0458 0.1552 -0.1128c0.0196,-0.1749 -0.0077,-0.0555 0.042,-0.1936l0.8482 -0.0016c-0.1263,0.0722 -0.0759,0.0539 -0.2224,0.1431l0.1328 0.0986 -0.8264 0.1121zm-0.6677 1.2471c0.1967,-0.046 0.1258,-0.0497 0.2665,0.0004l0.2842 -0.1421 -0.0004 -0.4266 -0.2838 -0.1417 0.2605 -0.1654c0.0064,-0.0064 0.0136,-0.0207 0.0197,-0.0283l0.1456 -0.2321 0.1422 0.2841c0.3871,0 0.1942,-0.059 0.5679,0.1417 -0.2196,0.182 -0.1939,0.1519 -0.5684,0.1417l0.0005 0.427c1.5806,0 0.6655,-0.0831 1.1741,0.2841 0.0598,0.1104 0.2447,-2.5211 -0.8245,-2.6226 -0.4223,-0.0401 -1.0041,0.3418 -1.0447,0.7061 -0.0313,0.2811 -0.0016,0.6007 -0.0365,0.9237 -0.0326,0.3001 -0.0819,0.5507 -0.1029,0.85z"/>
   <path id="_45986616" class="fil0" d="M7.6153 1.9775l-0.1541 2.2601 0.1465 -0.1345 0.2173 0.0463 0.0656 -0.1612c0.0228,-0.0063 0.2152,-0.06 0.2216,-0.0593 0.203,0.0233 0.0883,-0.0016 0.2042,0.0867l0.764 0.0201c-0.072,0.0533 -0.0099,0.0221 -0.1329,0.0742l0.0984 0.037 0.2657 -0.3219 0.3548 0.1414c0.08,-0.1394 0.0622,0.0454 0.0814,-0.2063l-0.0817 -0.7164c-0.0197,-0.0132 -0.1253,-0.0734 -0.1401,-0.0829 -0.3241,-0.2068 0.0817,-0.0736 -0.3568,-0.3433l-0.3556 0.2837 0.1421 -0.4257 -0.6386 -0.0008 0.1589 -0.2508 -0.2378 0.0008 -0.3478 -0.0304c0.1045,-0.2293 0.0618,0.0487 0.0331,-0.2183l-0.007 -0.0797c-0.1801,0.0519 0.1985,0.1284 -0.1267,-0.0029l-0.1745 0.0841z"/>
   <path id="_45985488" class="fil3" d="M2.7059 7.5167c0.5172,-0.0016 0.7856,0.5008 0.6439,0.9999 -0.1651,0.5806 -0.8258,0.5449 -1.1071,0.2095 0.3314,-0.7235 0.2341,-0.4866 0.4632,-1.2094zm0 0c-0.1387,0.0719 -0.0595,-0.0523 -0.2861,0.3577 -0.5106,0.9236 -0.2692,1.0533 -0.4829,1.5899 0.0844,0.1947 0.1293,0.1999 0.2506,0.3157l0.0913 -0.3286 0.9842 0.1235 0.0816 -0.1385c0.1364,0.2628 -0.0138,0.0884 0.2411,0.4262 -0.064,0.4246 -0.0743,0.2656 0.0264,0.455 0.0109,-0.0183 0.0283,-0.0654 0.0322,-0.0551l0.0638 -0.1806 0.1421 -0.8497c0.1699,-0.7262 0.6119,-1.2102 -0.2542,-1.7545 -0.3226,-0.2028 -0.6133,-0.1761 -0.7812,-0.0691 -0.0677,0.0432 -0.086,0.0833 -0.1089,0.1081z"/>
   <path id="_45985776" class="fil0" d="M8.104 6.0268l-0.2606 0.3548c0.5435,0.247 0.1204,-0.066 0.2644,0.1232 0.0078,0.0103 0.0157,0.034 0.022,0.0448 0.2163,0.3702 0.2231,-0.0743 0.2584,0.4477 0.4525,-0.1697 0.1989,0.0313 0.4968,-0.4026l0.4334 0.1632 0.298 -0.0881 0.0504 -0.0751 -0.0714 -1.42 -0.7818 -0.0003 0 -0.2603c-0.1544,0.022 -0.4419,0.091 -0.5773,0.0281 -0.0531,-0.0246 -0.0567,-0.0725 -0.062,-0.1226l-0.1799 0.2538c-0.2037,0.6897 0.1096,-0.4951 0.1096,0.9534z"/>
   <path id="_45985968" class="fil2" d="M2.3549 10.8254c-0.0599,0.1414 0.1067,0.0938 -0.1401,0.1196l0.419 0.2432 -0.3127 -0.006 -0.113 0.3138 0.3645 0.0418 -0.0803 0.136 0.3015 0.1068 -0.1595 0.2134c0.0078,-0.018 0.2501,0.0441 -0.0144,-0.0762 -0.1058,-0.0481 -0.0612,-0.0765 -0.2947,0.0192 -0.0824,0.0338 -0.0036,-0.0253 -0.1555,0.1165 0.0975,0.5882 0.8586,0.9693 1.3077,1.2476 -0.1839,-1.1963 -0.0304,-1.1603 0.0664,-2.2305 -0.2227,0.082 -0.2482,0.1366 -0.4783,0.0197l-0.2895 -0.1622c0.0236,-0.3689 -0.0275,-0.2164 -0.0946,-0.237 -0.2222,-0.0679 -0.2958,0.0884 -0.3265,0.1343z"/>
   <path id="_45985992" class="fil0" d="M1.9369 9.4643l-0.048 0.2808 0.0344 0.1175c-0.0004,0.0003 -0.1017,0.0986 0.142,-0.0706 -0.0722,0.3158 -0.0308,0.2181 0.0086,0.2987 0.0002,0.0005 0.2214,0.2085 0.1705,0.4385 -0.072,0.3247 0.05,-0.0404 -0.0598,0.1056l-0.0523 0.126c0.0224,0.0076 0.0984,0.0302 0.1138,0.0349 0.0125,0.0036 0.0458,0.0317 0.0552,0.0153 0.009,-0.0158 0.0359,0.0091 0.0536,0.0144 0.0307,-0.0459 0.1043,-0.2022 0.3265,-0.1343 0.0671,0.0206 0.1182,-0.1319 0.0946,0.237l0.2895 0.1622c0.2301,0.1169 0.2556,0.0623 0.4783,-0.0197 0.0755,-0.2516 0.1396,-0.4951 0.0683,-0.753 -0.1007,-0.1894 -0.0904,-0.0304 -0.0264,-0.455 -0.2549,-0.3378 -0.1047,-0.1634 -0.2411,-0.4262l-0.0816 0.1385 -0.9842 -0.1235 -0.0913 0.3286c-0.1213,-0.1158 -0.1662,-0.121 -0.2506,-0.3157z"/>
   <path id="_45985800" class="fil3" d="M6.0089 16.0597c0.7042,0.2379 1.3114,0.324 2.0944,0.4168l-0.2837 -0.2203 0.0002 -0.4266 0.3074 -0.0711 -0.2602 -0.0714c0.5093,-0.0139 0.2196,0.046 0.4494,-0.1335 -0.5332,0.0257 -0.8661,0.0003 -1.3043,-0.1966 -0.4101,-0.1843 -0.5422,-0.3377 -0.7197,-0.7159 -0.2495,0.2231 -0.1774,-0.3812 -0.1774,0.1936l0.2249 0.6822c0.0086,0.0094 0.0282,0.0224 0.0373,0.0311l0.1633 0.1394 -0.181 0.083c-0.0358,0.0555 0.0252,0.1389 0.075,0.2009 -0.2115,-0.1714 -0.17,-0.1845 -0.3905,-0.1414l-0.0351 0.2298z"/>
   <path id="_45986208" class="fil2" d="M10.3342 7.1081c0.007,0.0107 0.02,0.0135 0.021,0.032l0.0219 0.236 0.4255 0.0003 -0.2835 -0.2837c0.3572,0.0895 0.1371,0.0231 0.3385,0.1475l0.1515 0.1073c0.4605,0.0699 0.8159,0.1006 1.2853,0.1891l0.071 -0.1602c-0.0136,-0.0115 -0.0349,-0.0446 -0.0424,-0.0324l-0.2944 -0.2518c0.2685,-0.4665 0.0955,0.0808 0.1954,-0.2951 -0.1954,-0.1528 -0.7653,-0.1812 -1.0676,-0.1821 -0.4866,-0.0016 -0.7696,0.1044 -0.8222,0.4931z"/>
   <path id="_45985296" class="fil4" d="M5.0488 15.6199l0.0714 -0.2519 0.4203 0.1125 0.1476 -0.2899c-0.0192,0.0275 -0.0585,0.0184 -0.0715,0.0706 -0.0122,0.0487 -0.047,0.0499 -0.0612,0.0711l-0.08 0.1417c-0.0101,-0.0253 -0.0115,-0.0932 -0.0231,-0.0783 -0.0207,0.027 -0.0354,-0.0977 -0.0782,-0.1232l-0.1655 -0.123c0.1999,-0.307 -0.0252,0.1578 0.0503,-0.0743l-0.0065 -0.6445 -0.345 -0.1636c0.0239,0.0002 0.0622,-0.0079 0.0715,0.004 0.0126,0.0161 0.0713,0.006 0.141,-0.2171l-0.2235 0.1042c-0.2716,0.0298 -0.2555,-0.2937 -0.4188,0.0617l0.0418 0.2253 0.2919 0.2382c-0.4532,0.0125 -0.4981,-0.1259 -0.599,-0.4873 -0.1728,-0.0199 -0.1535,-0.0379 -0.3039,-0.1421 0.0459,0.3698 0.1761,0.6718 0.4065,0.9483 0.1099,0.1321 0.194,0.208 0.3088,0.3318 0.2251,0.2431 0.1214,0.1616 0.4251,0.2858z"/>
   <path id="_45985080" class="fil5" d="M2.1697 12.0535c0.1519,-0.1418 0.0731,-0.0827 0.1555,-0.1165 0.2335,-0.0957 0.1889,-0.0673 0.2947,-0.0192 0.2645,0.1203 0.0222,0.0582 0.0144,0.0762l0.1595 -0.2134 -0.3015 -0.1068 0.0803 -0.136 -0.3645 -0.0418 0.113 -0.3138c-0.3705,-0.0933 -0.8532,-0.2114 -0.626,-0.6984l0.4895 0.151c0.1098,-0.146 -0.0122,0.2191 0.0598,-0.1056 0.0509,-0.23 -0.1703,-0.438 -0.1705,-0.4385 -0.0394,-0.0806 -0.0808,0.0171 -0.0086,-0.2987 -0.2437,0.1692 -0.1424,0.0709 -0.142,0.0706l-0.0344 -0.1175c-0.2976,0.2048 -0.4503,0.8145 -0.3648,1.2358 0.0421,0.2077 0.1619,0.4051 0.2612,0.5814 0.1458,0.2593 0.1498,0.3253 0.3844,0.4912z"/>
   <path id="_45985104" class="fil6" d="M6.2924 14.6411c0.1775,0.3782 0.3096,0.5316 0.7197,0.7159 0.4382,0.1969 0.7711,0.2223 1.3043,0.1966l0.2237 0.0184 0.0852 -0.0644 0.4377 -0.1395c0.257,-0.0993 0.3315,-0.1474 0.4392,-0.3545l0.0248 -0.1079 -0.0443 -0.1626 -0.0664 0.1171 -0.115 0.0079c-0.2548,0.3907 -1.2798,0.5097 -1.5617,0.4134l-1.4118 -0.7245c-0.0877,0.0852 -0.0317,-0.0463 -0.0354,0.0841z"/>
   <path id="_45984768" class="fil4" d="M8.1993 1.5398c-0.0486,0.0616 -0.0422,0.041 -0.0915,0.1493 -0.1102,0.2421 0.0483,0.2869 -0.1843,0.2869 0.0287,0.267 0.0714,-0.011 -0.0331,0.2183l0.3478 0.0304c-0.123,-0.3411 0.0203,-0.1282 0.6467,-0.1274 0.047,0.0001 0.1752,-0.0084 0.2123,0.0035 0.2174,0.0696 0.0178,-0.0533 0.1588,0.1283 0.1917,0.0494 0.1268,0.0103 0.1256,-0.1413 0.0596,-0.5965 -0.0412,-1.0077 -0.5857,-1.134 0,0.381 0.0442,-0.0796 -0.4081,0.3785l0.4616 -0.0291 -0.3188 0.4433c-0.0117,-0.0072 -0.0358,-0.0217 -0.05,-0.0305l-0.2357 -0.1493c-0.0098,-0.006 -0.0306,-0.0176 -0.0456,-0.0269z"/>
   <path id="_45984744" class="fil2" d="M12.4729 13.7861c-0.1047,0.3651 -0.0293,0.0673 0.0346,0.481l0.7909 0.0127c0.0802,0.0123 0.6227,0.213 0.6611,0.1475 0.1499,-0.0717 0.1425,-0.0286 0.1993,-0.3023 -0.1534,-0.0094 -0.1092,-0.0047 -0.2137,0.0142 -0.0641,0.0116 -0.1428,0.0953 -0.3009,0.0045 -0.2198,-0.1262 -0.1416,-0.2688 -0.1416,-0.5872l-0.1114 -0.0855c-0.1462,-0.0894 -0.1989,-0.0504 -0.3858,-0.1281 -0.0887,-0.4117 -0.0313,-0.2804 -0.2126,-0.6385 0.0124,0.5476 0.2396,0.8948 -0.0096,1.1894 -0.1634,-0.0262 -0.1911,-0.0485 -0.3103,-0.1077z"/>
   <path id="_45985416" class="fil7" d="M7.6153 1.9775l0.1745 -0.0841c0.3252,0.1313 -0.0534,0.0548 0.1267,0.0029 0.1014,-0.6851 0.4028,-1.4768 1.1628,-1.0369l0.398 0.3501 0.0943 -0.0907c0.0157,-0.0064 0.0762,-0.0548 0.0936,-0.0707 -0.1419,-0.3817 -0.7026,-0.8982 -1.2841,-0.5722 -0.3995,0.2241 -0.7252,0.8307 -0.7658,1.5016z"/>
   <path id="_45984480" class="fil4" d="M9.9987 8.3705c0.0278,-0.0259 0.0879,-0.0851 0.0964,-0.0608l0.0686 -0.1162 0.1611 0.0772 0.4778 0.0288c-0.0934,0.0442 -0.1674,0.1669 0.0718,-0.1413l0.4965 0.0703 -0.3831 -0.2128 0.17 -0.1948 -0.5236 0.0648 0.215 -0.1834 -0.2264 -0.1959c0.2588,-0.0698 0.2357,-0.039 0.3863,-0.1589l-0.1515 -0.1073c-0.2014,-0.1244 0.0187,-0.058 -0.3385,-0.1475l0.2835 0.2837 -0.4255 -0.0003 -0.0219 -0.236c-0.001,-0.0185 -0.014,-0.0213 -0.021,-0.032 -0.2481,0.2156 -0.2632,0.6939 -0.336,1.0497l0.0005 0.2127z"/>
   <path id="_45984504" class="fil4" d="M9.4827 14.7431l0.0443 0.1626 0.1821 -0.0017 0.128 -0.2396 0.3972 0.3124 -0.1011 -0.2918c-0.1571,-0.191 -0.1557,-0.1867 -0.183,-0.4664 0.212,0.1483 0.3957,0.3412 0.7814,0.4043 -0.0502,-0.2922 0.1381,-0.1321 0.0572,-0.3848l-0.5467 -0.1134 -0.008 -0.2845c-0.6217,-0.0517 -0.2837,0.0027 -0.5696,0.0328 -0.3463,0.0364 -0.0562,-0.0145 -0.0695,-0.0328 -0.0236,0.2731 -0.0889,0.1261 0.0461,0.4021 0.0905,0.185 -0.148,0.2376 0.0818,0.309l-0.4113 0 0.1711 0.1918z"/>
   <path id="_45984192" class="fil5" d="M11.965 15.7644c0.2666,-0.0692 0.9002,-0.3658 1.1269,-0.4903 0.408,-0.2242 0.6076,-0.3708 0.8606,-0.7087l0.007 -0.1381 -0.0716 0.1602c-0.6271,0.0714 -0.5469,0.1363 -0.893,0.0243 0.0707,0.3564 -0.0844,0.2673 -0.1323,0.5074l-0.5675 0.0714 -0.2135 0.1872 -0.2232 -0.1367c0.0938,0.2346 0.0969,0.2727 0.1066,0.5233z"/>
   <path id="_45984360" class="fil8" d="M7.5615 7.5181c0.0463,0.0219 -0.0461,-0.0481 0.0694,0.0499 0.1094,0.0926 -0.0026,0.0166 0.1096,0.0965 0.1047,0.0747 0.1865,0.102 0.2924,0.1521l1.1295 -0.0246c-0.131,-0.1046 0.0449,-0.0548 -0.2179,-0.056l-0.3632 -0.0656c0.0169,-0.0109 0.0425,-0.0447 0.0523,-0.0297l0.285 -0.1537 -0.6819 -0.1089 -0.0989 0.0098 -0.12 -0.0639c0.0105,-0.1175 -0.014,-0.0941 0.0849,-0.0886l0.134 -0.0034c0.6906,-0.0005 0.527,-0.0069 1.1873,0.1315 -0.2638,-0.3426 -1.2035,-0.3344 -1.5807,-0.2433 -0.2776,0.067 -0.2608,0.1158 -0.2818,0.3979z"/>
   <path id="_45984600" class="fil5" d="M2.401 8.643c0.0889,0.1042 -0.0186,0.0461 0.1233,0.1239 0.1357,0.0744 0.5559,0.1306 0.6403,-0.2185l0.0649 -0.4616 -0.362 -0.4644 -0.4665 1.0206z"/>
   <path id="_45983976" class="fil9" d="M7.9165 1.8963l0.007 0.0797c0.2326,0 0.0741,-0.0448 0.1843,-0.2869 0.0493,-0.1083 0.0429,-0.0877 0.0915,-0.1493 -0.0228,-0.3824 0.1953,-0.5477 0.5966,-0.586 0.5445,0.1263 0.6453,0.5375 0.5857,1.134 0.3472,-0.0739 0.1114,-0.6536 0.0957,-0.8783l-0.398 -0.3501c-0.76,-0.4399 -1.0614,0.3518 -1.1628,1.0369z"/>
   <path id="_45984024" class="fil10" d="M2.8675 7.6224l0.362 0.4644 -0.0649 0.4616c-0.0844,0.3491 -0.5046,0.2929 -0.6403,0.2185 -0.1419,-0.0778 -0.0344,-0.0197 -0.1233,-0.1239l0.4665 -1.0206zm-0.1616 -0.1057c-0.2291,0.7228 -0.1318,0.4859 -0.4632,1.2094 0.2813,0.3354 0.942,0.3711 1.1071,-0.2095 0.1417,-0.4991 -0.1267,-1.0015 -0.6439,-0.9999z"/>
   <path id="_45983304" class="fil6" d="M4.2123 14.1961c0.1009,0.3614 0.1458,0.4998 0.599,0.4873l-0.2919 -0.2382 -0.0418 -0.2253c-0.2951,-0.3172 -0.2315,-1.1669 0.0215,-1.5299 0.0108,-0.1572 0.0494,-0.1178 -0.1016,-0.1302 -0.3713,0.2559 -0.502,1.1796 -0.1852,1.6363z"/>
   <path id="_45983640" class="fil9" d="M11.1578 7.8209l0.2848 -0.021 0.4852 0.0865 -0.0266 -0.074 -0.9162 -0.2162 1.5472 0.0382 -0.0958 -0.0526 -0.142 -0.0452c-0.4694,-0.0885 -0.8248,-0.1192 -1.2853,-0.1891 -0.1506,0.1199 -0.1275,0.0891 -0.3863,0.1589l0.2264 0.1959 -0.215 0.1834 0.5236 -0.0648z"/>
   <path id="_45983736" class="fil3" d="M12.3399 8.0502c0.0758,-0.1514 -0.1491,-0.1095 0.2192,-0.1233 0.032,-0.2047 -0.0905,-0.1399 -0.2213,-0.0974 -0.0613,0.0647 0.069,0.2726 -0.41,0.0569l-0.4852 -0.0865 -0.0714 0.571c0.1761,-0.2561 -0.0823,-0.133 0.3266,-0.2986l-0.1841 0.2982 0.4254 -0.0279 0 0.2418c0.0718,-0.2352 0.0405,-0.0616 0.4973,-0.3414 -0.0021,-0.007 -0.0052,-0.0259 -0.0064,-0.0207 -0.0015,0.0062 -0.0094,-0.0196 -0.0118,-0.0233l-0.0783 -0.1488z"/>
   <path id="_45983904" class="fil11" d="M5.2239 7.6988l0.3229 0.0348 0.7459 0.0611c-0.017,-0.0102 -0.0411,-0.0479 -0.0503,-0.0322l-0.7991 -0.2286c0.4461,0.0161 0.6618,0.1692 1.0602,-0.0894l-1.5254 -0.1139 -0.1372 0.2441c0.2548,0.0256 0.2436,-0.0213 0.383,0.1241z"/>
   <path id="_45983592" class="fil7" d="M8.5401 15.572c0.2281,0.1267 0.0845,-0.0271 0.1322,0.1862l0.195 -0.2128 0.0666 0.1928 0.3768 -0.032c0.1092,-0.0179 0.1834,-0.0588 0.267,-0.1075l-0.2441 -0.1954c0.4719,-0.1165 0.3177,-0.1098 0.4035,-0.3548l-0.2349 -0.0349c-0.1077,0.2071 -0.1822,0.2552 -0.4392,0.3545l-0.4377 0.1395 -0.0852 0.0644z"/>
   <path id="_45983688" class="fil4" d="M12.2944 7.5366l0.142 0.0452c-0.2502,-0.3894 -0.0778,-0.0807 0.0004,-0.2051 0.1897,0.0166 0.1313,0.0054 0.2777,-0.0003 0.197,-0.0076 0.0624,0.0193 0.2785,-0.0283 -0.1296,-0.2925 -0.3587,-0.4414 -0.769,-0.551 -0.0999,0.3759 0.0731,-0.1714 -0.1954,0.2951l0.2944 0.2518c0.0075,-0.0122 0.0288,0.0209 0.0424,0.0324l-0.071 0.1602z"/>
   <path id="_45982920" class="fil12" d="M10.1332 14.685c0.3928,0.2556 0.741,0.2743 1.142,-0.0159l-0.5436 -0.0462c-0.3857,-0.0631 -0.5694,-0.256 -0.7814,-0.4043 0.0273,0.2797 0.0259,0.2754 0.183,0.4664z"/>
   <path id="_45982488" class="fil2" d="M8.1993 1.5398c0.015,0.0093 0.0358,0.0209 0.0456,0.0269l0.2357 0.1493c0.0142,0.0088 0.0383,0.0233 0.05,0.0305l0.3188 -0.4433 -0.4616 0.0291c0.4523,-0.4581 0.4081,0.0025 0.4081,-0.3785 -0.4013,0.0383 -0.6194,0.2036 -0.5966,0.586z"/>
   <path id="_45982824" class="fil4" d="M6.1392 13.0715l-0.0864 0.2719c0.2172,0.1286 0.4447,0.1838 0.6305,-0.0146l0.1414 -0.2696c-0.0191,-0.0254 -0.0341,-0.1086 -0.0439,-0.0845 -0.0297,0.073 -0.0689,-0.0536 -0.1,-0.0758 -0.1573,0.0865 -0.2569,0.1714 -0.5416,0.1726z"/>
   <path id="_45982728" class="fil13" d="M2.3211 11.1822l0.3127 0.006 -0.419 -0.2432c-0.1183,-0.041 -0.1337,-0.0374 -0.2189,-0.0867 -0.1665,-0.0963 -0.1175,-0.096 -0.169,-0.1491l0.3054 0.0516 0.0523 -0.126 -0.4895 -0.151c-0.2272,0.487 0.2555,0.6051 0.626,0.6984z"/>
   <path id="_45982704" class="fil14" d="M7.825 4.1494c0.0673,0.1636 -0.0356,0.0699 0.1721,0.1399 0.0877,0.0296 0.1647,0.0218 0.2511,0.032 -0.0375,-0.3021 -0.0311,-0.075 0.0691,-0.1468l0.2427 0.1003 0.6152 -0.0359c-0.1484,-0.0722 -0.034,-0.0051 -0.1293,-0.092l-0.0984 -0.037c0.123,-0.0521 0.0609,-0.0209 0.1329,-0.0742l-0.764 -0.0201 -0.3562 0.0249 0.079 0.1136 -0.2142 -0.0047z"/>
   <path id="_45983136" class="fil10" d="M14.0717 8.7407l-0.0258 0.1586 0.8264 -0.1121 -0.1328 -0.0986c0.1465,-0.0892 0.0961,-0.0709 0.2224,-0.1431l-0.8482 0.0016c-0.0497,0.1381 -0.0224,0.0187 -0.042,0.1936z"/>
   <path id="_45982368" class="fil9" d="M8.2382 2.2247l0.2378 -0.0008 0.78 0.0052c-0.141,-0.1816 0.0586,-0.0587 -0.1588,-0.1283 -0.0371,-0.0119 -0.1653,-0.0034 -0.2123,-0.0035 -0.6264,-0.0008 -0.7697,-0.2137 -0.6467,0.1274z"/>
   <path id="_45982056" class="fil15" d="M8.9445 7.736l0.2672 -0.2212 -0.2931 -0.0278 -0.285 0.1537c-0.0098,-0.015 -0.0354,0.0188 -0.0523,0.0297l0.3632 0.0656z"/>
   <path id="_45982320" class="fil16" d="M12.3378 7.8295l-0.4366 -0.0171 0.0266 0.074c0.479,0.2157 0.3487,0.0078 0.41,-0.0569z"/>
   <path id="_45981912" class="fil17" d="M7.825 4.1494l0.2142 0.0047 -0.079 -0.1136 0.3562 -0.0249c-0.1159,-0.0883 -0.0012,-0.0634 -0.2042,-0.0867 -0.0064,-0.0007 -0.1988,0.053 -0.2216,0.0593l-0.0656 0.1612z"/>
   <path id="_45982272" class="fil18" d="M2.2148 10.945c-0.0145,-0.0133 -0.0309,-0.0551 -0.0353,-0.0473 -0.0049,0.0089 -0.0215,-0.0442 -0.0275,-0.0614 -0.0069,-0.02 -0.0117,-0.0508 -0.0197,-0.0755l-0.3054 -0.0516c0.0515,0.0531 0.0025,0.0528 0.169,0.1491 0.0852,0.0493 0.1006,0.0457 0.2189,0.0867z"/>
   <path id="_45981816" class="fil19" d="M8.2482 4.3213l0.0837 0.0691 0.043 -0.0703 0.1851 -0.0453 -0.2427 -0.1003c-0.1002,0.0718 -0.1066,-0.1553 -0.0691,0.1468z"/>
   <path id="_45981792" class="fil20" d="M2.2148 10.945c0.2468,-0.0258 0.0802,0.0218 0.1401,-0.1196 -0.0177,-0.0053 -0.0446,-0.0302 -0.0536,-0.0144 -0.0094,0.0164 -0.0427,-0.0117 -0.0552,-0.0153 -0.0154,-0.0047 -0.0914,-0.0273 -0.1138,-0.0349 0.008,0.0247 0.0128,0.0555 0.0197,0.0755 0.006,0.0172 0.0226,0.0703 0.0275,0.0614 0.0044,-0.0078 0.0208,0.034 0.0353,0.0473z"/>
   <path id="_45981264" class="fil21" d="M12.5591 7.9269c-0.3683,0.0138 -0.1434,-0.0281 -0.2192,0.1233 0.3382,-0.0585 0.1025,0.0116 0.2192,-0.1233z"/>
   <polygon id="_45981048" class="fil22" points="8.1378,7.3879 8.2367,7.3781 8.2367,7.232 8.1027,7.2354 "/>
   <polygon id="_45981072" class="fil23" points="8.3749,4.3201 8.3319,4.3904 8.6581,4.4309 "/>
   <path id="_45981600" class="fil24" d="M4.4991 12.69c0.0763,-0.1194 0.1228,0.1729 0.044,-0.1949l-0.1456 0.0647c0.151,0.0124 0.1124,-0.027 0.1016,0.1302z"/>
   <path id="_45981336" class="fil25" d="M8.1378 7.3879l-0.0351 -0.1525c-0.0989,-0.0055 -0.0744,-0.0289 -0.0849,0.0886l0.12 0.0639z"/>
   <polygon id="_45981120" class="fil26" points="14.0459,8.8993 14.0717,8.7407 13.9165,8.8535 "/>
  </g>
 </g>
</svg>
