<?xml version="1.0" encoding="UTF-8"?>
<!DOCTYPE svg PUBLIC "-//W3C//DTD SVG 1.1//EN" "http://www.w3.org/Graphics/SVG/1.1/DTD/svg11.dtd">
<!-- Creator: CorelDRAW -->
<svg xmlns="http://www.w3.org/2000/svg" xml:space="preserve" width="16.9332mm" height="16.9332mm" style="shape-rendering:geometricPrecision; text-rendering:geometricPrecision; image-rendering:optimizeQuality; fill-rule:evenodd; clip-rule:evenodd"
viewBox="0 0 16.9332 16.9332"
 xmlns:xlink="http://www.w3.org/1999/xlink">
 <defs>
  <style type="text/css">
   <![CDATA[
    .fil0 {fill:black}
    .fil1 {fill:#9C9C9D}
   ]]>
  </style>
 </defs>
 <g id="Capa_x0020_1">
  <metadata id="CorelCorpID_0Corel-Layer"/>
  <g id="_715962576">
   <path id="_713316256" class="fil0" d="M7.2992 8.5851c0.1455,-0.0935 0.3939,-0.1415 0.558,-0.0974 0.0381,0.18 0.0435,0.2831 -0.0481,0.4451 -0.3117,0.1439 -0.5468,0.0036 -0.5099,-0.3477zm-0.4897 -2.9045c0.045,-0.3982 0.6313,-0.4236 0.839,-0.2545 0.2177,0.1772 0.1847,0.7788 0.1684,1.0377 -0.2252,0.1545 -0.7756,0.1414 -1.0268,0.0345 -0.0586,-0.2431 -0.1032,-0.5945 0.0194,-0.8177zm2.5139 3.5457c-0.3182,-0.3861 0.1082,-2.074 0.0589,-2.3939 -0.0433,-0.2807 -0.1064,-1.4697 0.2269,-1.638 0.1571,-0.0792 0.401,-0.0364 0.5231,0.0891 0.4561,0.4691 0.0199,1.5736 -0.0807,2.1502 -0.0765,0.4382 -0.1439,1.9484 -0.7282,1.7926zm-1.1058 -2.7678c-0.105,-0.3569 -0.0101,-2.699 -0.0101,-3.2696 0,-0.494 -0.2276,-2.8264 0.7912,-2.3969 0.0297,0.9404 0.1481,3.5347 0.1048,4.3912 -0.0037,0.0723 -0.1778,1.2443 -0.1868,1.2728l-0.6991 0.0025zm2.6512 -0.3041c0.4797,0.0596 0.7086,0.1308 0.8376,0.6433 0.2493,0.9893 -0.0844,3.1644 -0.42,4.07 -0.3435,0.927 -0.6393,1.1382 -1.2405,1.8463 -0.5596,0.6591 -0.6023,1.4424 -0.8529,2.2399 -0.1064,0.3386 -0.309,0.8463 -0.3652,1.1758 -0.0742,0.4356 0.1659,0.5357 0.3437,0.0955 0.2981,-0.7384 0.4922,-1.6196 0.6988,-2.388 0.2349,-0.873 0.7889,-1.1325 1.2611,-1.8305 0.8754,-1.2939 1.1972,-3.6196 1.0115,-5.0508 -0.1884,-1.4517 -1.0203,-0.9076 -1.4973,-1.5003 -0.1261,-0.1566 -0.1643,-0.3105 -0.3378,-0.4444 -0.1543,-0.1189 -0.3294,-0.1381 -0.4941,-0.2475 -0.4181,-0.2777 -0.3255,-0.7893 -0.3297,-1.2261 -0.0054,-0.5645 0.0869,-2.4757 -0.1736,-2.8645 -0.254,-0.3791 -1.314,-0.5154 -1.4304,0.9986 -0.0528,0.6868 0.0752,2.5307 -0.0603,3.0143 -0.2208,0.7872 -1.2488,-0.3521 -1.4093,1.4922 -0.1505,1.7281 -2.4814,1.9561 -1.3728,4.0984 1.2352,2.3871 1.308,2.0074 0.468,4.5215 -0.0392,0.1175 -0.2148,0.9084 0.1287,0.5619 0.1708,-0.1725 0.3521,-0.8285 0.4398,-1.087 0.3154,-0.9306 0.5442,-1.5147 0.1367,-2.4804 -0.2838,-0.6728 -0.8085,-1.4328 -1.0305,-2.0578 -0.3067,-0.8633 0.3243,-1.4009 0.8248,-2.0083 0.8122,-0.9857 0.9288,-0.8235 2.1875,-0.8325 1.3971,-0.0098 0.5207,0.861 -0.2623,1.1133 -0.4065,0.131 -0.7525,0.143 -1.0084,0.5364 -0.1025,0.1578 -0.4496,0.8234 -0.4455,0.9879 0.0086,0.3444 0.4514,-0.1445 0.5665,-0.1929 0.3331,-0.1399 0.7192,0.0954 0.9999,-0.2229 0.1621,-0.1838 0.2704,-0.8988 0.5496,-0.8999 0.3017,-0.0013 0.2672,0.7335 0.3452,0.956 0.2525,0.7216 1.7045,0.2386 2.0267,-0.1719 0.6342,-0.8081 0.6612,-1.9961 0.2388,-1.3536 -0.1947,0.296 -0.2409,0.7231 -0.4879,1.0556 -0.2542,0.3423 -0.5318,0.3085 -0.4936,-0.1532 0.0622,-0.7511 0.2535,-1.7552 0.6472,-2.3944z"/>
   <path id="_715962504" class="fil1" d="M7.8169 6.4638l-0.9676 0.0106 -0.0398 -0.7938c-0.1226,0.2232 -0.078,0.5746 -0.0194,0.8177 0.2512,0.1069 0.8016,0.12 1.0268,-0.0345z"/>
  </g>
 </g>
</svg>
