<?xml version="1.0" encoding="UTF-8"?>
<!DOCTYPE svg PUBLIC "-//W3C//DTD SVG 1.1//EN" "http://www.w3.org/Graphics/SVG/1.1/DTD/svg11.dtd">
<!-- Creator: CorelDRAW -->
<svg xmlns="http://www.w3.org/2000/svg" xml:space="preserve" width="16.9332mm" height="16.9332mm" style="shape-rendering:geometricPrecision; text-rendering:geometricPrecision; image-rendering:optimizeQuality; fill-rule:evenodd; clip-rule:evenodd"
viewBox="0 0 16.9332 16.9332"
 xmlns:xlink="http://www.w3.org/1999/xlink">
 <defs>
  <style type="text/css">
   <![CDATA[
    .fil0 {fill:black}
    .fil1 {fill:#F3F3F5}
   ]]>
  </style>
 </defs>
 <g id="Capa_x0020_1">
  <metadata id="CorelCorpID_0Corel-Layer"/>
  <g id="_419908240">
   <path id="_375511304" class="fil0" d="M7.7676 15.6657l1.2405 0.0006 -0.0186 0.6054 -1.2146 0.0005 -0.0073 -0.6065zm-4.7594 -1.0996c0.0463,-0.0776 -0.0442,-0.06 0.307,-0.1185l1.1531 -0.1887c-0.0019,0.8042 0.1946,1.8219 -0.5583,1.9884 -0.4086,0.0903 -0.7255,-0.1544 -0.8401,-0.4247 -0.1127,-0.2659 -0.0612,-0.9335 -0.0617,-1.2565zm-0.0161 -2.3303c0.1991,-0.0411 0.6527,-0.0169 0.8863,-0.0171 0.2976,-0.0003 0.5657,-0.0363 0.7656,0.1213 0.465,0.3666 0.1451,0.9945 -0.2579,1.1606 -0.2439,0.1005 -0.6057,0.0557 -0.8821,0.0564 -0.3227,0.0008 -0.5084,-0.0109 -0.7129,-0.1862 -0.3716,-0.3185 -0.3991,-1.011 0.201,-1.135zm-2.603 -0.7567c0.5797,-0.2077 1.0619,-0.389 1.8036,-0.3163 1.0016,0.0983 1.2446,0.567 1.5283,0.5415 0.1012,-0.009 0.5046,-0.267 0.6972,-0.3427 1.0936,-0.4303 2.5114,-0.0417 2.5755,0.1733l-0.0019 0.7534c-0.5603,-0.1994 -0.8777,-0.3464 -1.5032,-0.3867 -0.2895,-0.0186 -0.6949,0.0442 -0.9306,0.0087 -0.4276,-0.0644 -1.3325,-0.0449 -1.7671,0.0052 -0.2474,0.0285 -0.6309,-0.0335 -0.9348,-0.0109 -0.6454,0.0481 -0.9432,0.2153 -1.4632,0.3884l-0.0038 -0.8139zm6.5284 -3.5667c0.7335,0.9449 0.5886,0.7301 0.9067,0.5812 -0.0234,0.3871 -0.3319,4.8489 -0.2718,5.0113 0.0192,0.0517 0.6605,0.8535 0.8166,0.9107 0.1603,-0.1463 0.8269,-0.7467 0.8843,-0.9108 0.046,-0.1315 -0.0696,-1.4277 -0.0859,-1.6709 -0.0752,-1.1245 -0.1571,-2.2426 -0.226,-3.364l0.2883 0.1488 0.6233 -0.7074 0.2274 7.3127 -3.3743 -0.0045 0.0594 -2.6093 0.5322 0.1345c0.0958,-2.0776 0.0721,-1.3129 -0.5044,-1.7337l0.2843 -0.3934c0.1253,-0.1023 0.2966,-0.1305 0.3103,-0.3648l-0.5404 -0.2525 0.07 -2.0879zm-2.0932 2.2298c-0.0223,-0.6893 0.2041,-1.2186 0.5199,-1.6316 0.158,-0.2065 0.9241,-0.7776 1.2337,-0.9178l-0.0806 2.3591 -0.448 -0.0403 -1.225 0.2306zm10.3181 -1.5052c0.6276,0.4467 0.6386,0.4351 0,0.7797l0.8215 -0.2819c0.0354,-0.2644 -0.0839,-0.3847 -0.216,-0.4892 -0.1686,-0.1335 -0.3018,-0.1984 -0.35,-0.3344 0.3683,-0.1298 0.5729,-0.1536 0.8507,0.0965 0.8346,0.7513 -0.1301,1.3365 -0.57,2.1997 -1.2737,-1.0566 -1.2423,-0.8817 -0.9126,-1.432 0.1114,-0.1861 0.2311,-0.4033 0.3764,-0.5384zm-6.4877 -0.9566c0.1243,-0.1731 0.5003,-0.5967 0.6498,-0.7056l0.4586 0.3314 -0.575 0.8845 -0.5334 -0.5103zm-1.6472 -0.3742c0.1063,-0.1114 0.3257,-0.2681 0.4634,-0.3328l0.6469 0.707c-0.1267,0.1478 -0.3786,0.4004 -0.5347,0.4969l-0.5756 -0.8711zm0.6688 -0.7858c0.1095,-0.1242 1.1978,-0.2266 1.423,-0.2428l-0.2799 0.6938c-0.0054,0.0084 -0.379,0.4093 -0.4625,0.4514 -0.2388,-0.2725 -0.6715,-0.6644 -0.6806,-0.9024zm2.2354 -2.9563c0.3251,3.0272 -3.0536,2.6962 -3.0867,0.7115 -0.008,-0.4826 -0.0645,-1.2138 0.1257,-1.6056 0.1633,-0.3364 0.5627,-0.6652 1.0821,-0.6489 0.7595,0.0237 0.5639,0.4913 1.3825,1.2076 0.1491,0.1304 0.3305,0.2021 0.4964,0.3354zm0.3154 1.1703c0.0362,-0.3684 0.05,-0.6232 0.0502,-1.0047 0.3245,0.062 0.4454,0.1834 0.4338,0.5467 -0.0108,0.3355 -0.1547,0.4528 -0.484,0.458zm-3.7172 -0.0006c-0.4348,0.0012 -0.6427,-0.0649 -0.6309,-0.5346 0.0092,-0.3708 0.2105,-0.5243 0.5934,-0.4626l0.0375 0.9972zm-0.8809 -0.0396c0.1963,0.3649 0.5021,0.3955 1.0317,0.3955l0.6586 0.7131 0.0006 0.8298 -0.6086 0.4369c-1.3318,0.9143 -2.0376,1.1016 -2.2283,2.8638 -0.061,0.5629 -0.0176,0.3731 -0.3365,0.6719 -0.1844,0.1728 -0.2876,0.3843 -0.4552,0.5589 -0.4189,-0.549 -0.7205,-0.9434 -1.5088,-1.1526 -0.503,-0.1334 -1.9302,-0.123 -2.1825,0.2503l0.5933 0.7492 -0.53 0.2566 0.0262 1.4743c0.5924,-0.199 1.6181,-0.6037 2.2406,-0.4881l0.0216 1.1449c0.0678,0.214 0.3003,0.1692 0.3136,0.4543 0.0297,0.6378 -0.1119,1.7308 0.1226,2.1787 0.3887,0.7421 1.4416,0.8019 1.8869,0.0423 0.2117,-0.3612 0.1482,-0.9059 0.1482,-1.3582 0,-0.2625 0.0014,-0.525 -0.0011,-0.7874 -0.0035,-0.3765 0.0566,-0.303 0.2116,-0.5273 0.3602,-0.521 0.1027,-0.9021 0.0248,-1.1632l1.3523 0.202 -0.0302 4.1508 3.0738 0.0249c0.2581,0 0.7851,0.0748 0.9404,-0.0626l-0.0694 -4.4576c-0.0424,-1.5009 -0.114,-3.0017 -0.1324,-4.5032l0.9815 0.7637c0.2343,0.2039 1.1559,1.5867 1.4168,1.9512 0.1429,0.1996 0.5457,0.8839 0.755,0.9286 0.5904,-0.6314 0.6505,-0.9554 0.973,-1.3111l0.0807 0.0708c0.2328,0.2376 0.6131,0.7288 1.0524,0.8898l-0.8749 1.3573c-0.7912,1.2096 -0.844,1.5106 -1.69,0.836 -0.1636,-0.1305 -1.1363,-0.8764 -1.1703,-0.9952 -0.0608,-0.2121 -0.0442,-1.9064 -0.1332,-2.0458 -0.0863,-0.1353 -0.2852,-0.1244 -0.3132,0.1092l0.2574 5.7053c0.0131,0.3279 -0.0885,0.8397 0.3171,0.6945l-0.0989 -3.9252 0.4791 0.3704c0.5778,0.4578 1.0536,1.03 1.6909,0.6835 0.3352,-0.1823 1.1718,-1.5715 1.4362,-1.967 0.4638,-0.6937 0.9291,-1.3659 1.3772,-2.0659 0.5556,-0.8677 -0.1977,-1.3397 -0.2347,-1.5152l-0.0257 -1.195c-0.0373,-1.6503 -0.03,-3.4582 -0.0874,-5.0908 -0.0102,-0.2891 -0.0765,-0.4835 -0.2835,-0.5827 -0.2316,-0.111 -0.4742,-0.0031 -0.5887,0.1274 -0.1998,0.2276 -0.1266,1.2091 -0.138,1.5793l-0.0584 3.368c-0.0612,2.2285 0.2066,1.2452 -0.5927,2.2731 -0.1642,0.2415 -0.3043,0.4584 -0.4449,0.715 -0.2809,0.5125 -0.6409,0.9455 -0.9344,1.4197l-0.4233 -0.5739c-0.7577,-1.0384 -1.2345,-2.0345 -2.2907,-2.7251 -0.2314,-0.1514 -1.0068,-0.6533 -1.1708,-0.8095l-0.0107 -0.8278c0.2552,-0.2264 0.3503,-0.2714 0.5161,-0.5344 0.2335,-0.3704 0.8396,-0.4192 1.0166,-0.5938 0.1659,-0.3303 0.0882,-0.7384 -0.0617,-1.0003l0.1167 -0.1064c0.6494,-0.5322 0.1434,-1.0367 -0.0014,-1.6616 -0.0608,-0.2626 -0.0696,-0.4003 -0.1854,-0.6343 -0.3707,-0.7494 -1.2308,-1.0726 -2.3583,-0.9522 -0.4614,0.0494 -0.9265,0.1891 -1.2511,0.4258 -0.3797,0.2769 -0.1961,0.2881 -0.5114,0.3179 -0.669,0.0632 -1.1683,0.5357 -1.2788,1.2239 -0.1042,0.6486 0.1127,0.8364 0.3169,1.2747 -0.1585,0.366 -0.3703,0.6924 -0.1349,1.1301z"/>
   <path id="_374636568" class="fil1" d="M6.8475 10.0003l0.5404 0.2525c-0.0137,0.2343 -0.185,0.2625 -0.3103,0.3648l-0.2843 0.3934c0.5765,0.4208 0.6002,-0.3439 0.5044,1.7337l-0.5322 -0.1345 -0.0594 2.6093 3.3743 0.0045 -0.2274 -7.3127 -0.6233 0.7074 -0.2883 -0.1488c0.0689,1.1214 0.1508,2.2395 0.226,3.364 0.0163,0.2432 0.1319,1.5394 0.0859,1.6709 -0.0574,0.1641 -0.724,0.7645 -0.8843,0.9108 -0.1561,-0.0572 -0.7974,-0.859 -0.8166,-0.9107 -0.0601,-0.1624 0.2484,-4.6242 0.2718,-5.0113 -0.3181,0.1489 -0.1732,0.3637 -0.9067,-0.5812l-0.07 2.0879z"/>
   <path id="_419906488" class="fil1" d="M7.9094 4.5033c0.1153,0.0186 0.1475,0.1365 0.3528,0.1772 0.5513,0.1094 0.5259,-0.277 0.8555,-0.1435 0.1835,0.5576 -1.0738,0.6711 -1.367,0.2402 -0.094,-0.1381 -0.0091,-0.301 0.1587,-0.2739zm-0.102 -1.0649c0.2427,-0.1121 0.3392,0.3829 0.1215,0.4724 -0.2591,0.1064 -0.3435,-0.3699 -0.1215,-0.4724zm1.1329 0.0075c0.2719,-0.1269 0.3098,0.364 0.1401,0.456 -0.1207,0.0655 -0.2193,-0.0102 -0.2467,-0.1265 -0.0787,-0.3351 0.1046,-0.3286 0.1066,-0.3295zm0.9714 0.1182c-0.1659,-0.1333 -0.3473,-0.205 -0.4964,-0.3354 -0.8186,-0.7163 -0.623,-1.1839 -1.3825,-1.2076 -0.5194,-0.0163 -0.9188,0.3125 -1.0821,0.6489 -0.1902,0.3918 -0.1337,1.123 -0.1257,1.6056 0.0331,1.9847 3.4118,2.3157 3.0867,-0.7115z"/>
   <path id="_419906752" class="fil1" d="M0.3891 11.4791l0.0038 0.8139c0.52,-0.1731 0.8178,-0.3403 1.4632,-0.3884 0.3039,-0.0226 0.6874,0.0394 0.9348,0.0109 0.4346,-0.0501 1.3395,-0.0696 1.7671,-0.0052 0.2357,0.0355 0.6411,-0.0273 0.9306,-0.0087 0.6255,0.0403 0.9429,0.1873 1.5032,0.3867l0.0019 -0.7534c-0.0641,-0.215 -1.4819,-0.6036 -2.5755,-0.1733 -0.1926,0.0757 -0.596,0.3337 -0.6972,0.3427 -0.2837,0.0255 -0.5267,-0.4432 -1.5283,-0.5415 -0.7417,-0.0727 -1.2239,0.1086 -1.8036,0.3163z"/>
   <path id="_419907016" class="fil1" d="M4.8243 10.1422l1.225 -0.2306 0.448 0.0403 0.0806 -2.3591c-0.3096,0.1402 -1.0757,0.7113 -1.2337,0.9178 -0.3158,0.413 -0.5422,0.9423 -0.5199,1.6316z"/>
   <path id="_419906320" class="fil1" d="M2.9921 12.2358c-0.6001,0.124 -0.5726,0.8165 -0.201,1.135 0.2045,0.1753 0.3902,0.187 0.7129,0.1862 0.2764,-0.0007 0.6382,0.0441 0.8821,-0.0564 0.403,-0.1661 0.7229,-0.794 0.2579,-1.1606 -0.1999,-0.1576 -0.468,-0.1216 -0.7656,-0.1213 -0.2336,0.0002 -0.6872,-0.024 -0.8863,0.0171z"/>
   <path id="_419906512" class="fil1" d="M15.3979 8.3112c0.0482,0.136 0.1814,0.2009 0.35,0.3344 0.1321,0.1045 0.2514,0.2248 0.216,0.4892l-0.8215 0.2819c0.6386,-0.3446 0.6276,-0.333 0,-0.7797 -0.1453,0.1351 -0.265,0.3523 -0.3764,0.5384 -0.3297,0.5503 -0.3611,0.3754 0.9126,1.432 0.4399,-0.8632 1.4046,-1.4484 0.57,-2.1997 -0.2778,-0.2501 -0.4824,-0.2263 -0.8507,-0.0965z"/>
   <path id="_419907616" class="fil1" d="M3.0082 14.5661c0.0005,0.323 -0.051,0.9906 0.0617,1.2565 0.1146,0.2703 0.4315,0.515 0.8401,0.4247 0.7529,-0.1665 0.5564,-1.1842 0.5583,-1.9884l-1.1531 0.1887c-0.3512,0.0585 -0.2607,0.0409 -0.307,0.1185z"/>
   <path id="_419907280" class="fil1" d="M7.6763 6.5204c0.0091,0.238 0.4418,0.6299 0.6806,0.9024 0.0835,-0.0421 0.4571,-0.443 0.4625,-0.4514l0.2799 -0.6938c-0.2252,0.0162 -1.3135,0.1186 -1.423,0.2428z"/>
   <polygon id="_419907784" class="fil1" points="7.7749,16.2722 8.9895,16.2717 9.0081,15.6663 7.7676,15.6657 "/>
   <path id="_419907424" class="fil1" d="M8.6547 7.6804l0.5334 0.5103 0.575 -0.8845 -0.4586 -0.3314c-0.1495,0.1089 -0.5255,0.5325 -0.6498,0.7056z"/>
   <path id="_419907736" class="fil1" d="M7.0075 7.3062l0.5756 0.8711c0.1561,-0.0965 0.408,-0.3491 0.5347,-0.4969l-0.6469 -0.707c-0.1377,0.0647 -0.3571,0.2214 -0.4634,0.3328z"/>
   <path id="_419907664" class="fil1" d="M6.5099 4.7338l-0.0375 -0.9972c-0.3829,-0.0617 -0.5842,0.0918 -0.5934,0.4626 -0.0118,0.4697 0.1961,0.5358 0.6309,0.5346z"/>
   <path id="_419907112" class="fil0" d="M9.1177 4.537c-0.3296,-0.1335 -0.3042,0.2529 -0.8555,0.1435 -0.2053,-0.0407 -0.2375,-0.1586 -0.3528,-0.1772 -0.1678,-0.0271 -0.2527,0.1358 -0.1587,0.2739 0.2932,0.4309 1.5505,0.3174 1.367,-0.2402z"/>
   <path id="_419908096" class="fil1" d="M10.2271 4.7344c0.3293,-0.0052 0.4732,-0.1225 0.484,-0.458 0.0116,-0.3633 -0.1093,-0.4847 -0.4338,-0.5467 -0.0002,0.3815 -0.014,0.6363 -0.0502,1.0047z"/>
   <path id="_419907904" class="fil0" d="M8.9403 3.4459c-0.002,0.0009 -0.1853,-0.0056 -0.1066,0.3295 0.0274,0.1163 0.126,0.192 0.2467,0.1265 0.1697,-0.092 0.1318,-0.5829 -0.1401,-0.456z"/>
   <path id="_419908432" class="fil0" d="M7.8074 3.4384c-0.222,0.1025 -0.1376,0.5788 0.1215,0.4724 0.2177,-0.0895 0.1212,-0.5845 -0.1215,-0.4724z"/>
  </g>
 </g>
</svg>
