<?xml version="1.0" encoding="UTF-8"?>
<!DOCTYPE svg PUBLIC "-//W3C//DTD SVG 1.1//EN" "http://www.w3.org/Graphics/SVG/1.1/DTD/svg11.dtd">
<!-- Creator: CorelDRAW -->
<svg xmlns="http://www.w3.org/2000/svg" xml:space="preserve" width="16.9332mm" height="16.9332mm" style="shape-rendering:geometricPrecision; text-rendering:geometricPrecision; image-rendering:optimizeQuality; fill-rule:evenodd; clip-rule:evenodd"
viewBox="0 0 16.9332 16.9332"
 xmlns:xlink="http://www.w3.org/1999/xlink">
 <defs>
  <style type="text/css">
   <![CDATA[
    .fil0 {fill:black}
   ]]>
  </style>
 </defs>
 <g id="Capa_x0020_1">
  <metadata id="CorelCorpID_0Corel-Layer"/>
  <g id="_581737768">
   <path id="_581738032" class="fil0" d="M9.5282 12.2873l0.3126 -0.0082 0.1354 0.189 0.1539 -0.0028 0.0687 -0.1851 0.4029 0.0043 0.0078 0.152 0.1537 0.0017 0.1035 -0.158 0.3681 0.0044 -0.724 0.498 -0.0075 -0.1848 -0.247 0.0048 -0.0075 0.18c-0.2199,0.0168 -0.5165,-0.161 -0.6192,-0.2923 -0.0787,-0.1006 -0.0613,-0.1128 -0.1014,-0.203zm0.8356 -0.6746c0.0858,0.1031 0.2015,0.2524 0.2085,0.3798l-0.4193 -0.0116 0.2108 -0.3682zm0.7701 -0.4413l0.2945 0.5026 -0.5644 -0.0046c0.0178,-0.0972 0.2114,-0.4166 0.2699,-0.498zm-1.5048 0l0.2693 0.503 -0.3702 -0.005c-0.0154,-0.2157 -0.0349,-0.3288 0.1009,-0.498zm-0.1009 -0.2972l0.0019 -1.1642 0.2789 -0.2034c0.1783,0.2274 0.1843,0.3932 0.573,0.3891l0.5165 -0.4445 0.7152 1.2613c-0.4297,0.3678 -1.5647,0.3489 -2.0855,0.1617zm0.0027 -1.2694l-0.0082 -4.1638 0.2545 0c0,0.742 0.0033,1.4847 -0.0003,2.2267 -0.0009,0.1881 0.0328,0.3072 0.0321,0.5085 -0.0007,0.2171 0.0166,0.987 -0.0107,1.1358 -0.0332,0.1807 -0.1402,0.2007 -0.2674,0.2928zm-3.6021 -4.1638l0.2544 0c0,3.3289 0,6.6579 0,9.9869 0,0.3781 -0.0595,0.7896 0.1276,1.1128 0.3974,0.6865 1.3783,0.3919 1.4004,-0.3163 0.0339,-1.0872 -0.006,-2.6497 -0.0014,-3.7862l0.0205 -2.5053 0.2976 -0.0074c0,2.0249 0.0034,4.05 0,6.0748 -0.0007,0.4165 0.142,0.8375 0.6096,0.9171 1.1415,0.1946 0.8852,-1.46 0.8852,-2.1575l0 -1.5266c1.0393,0.2504 2.334,0.2728 2.6158,-1.1054 0.1633,-0.7986 -0.4192,-1.3325 -0.448,-1.5077 -0.0296,-0.1806 0.0168,-0.263 -0.0499,-0.4589 -0.173,-0.5082 -0.6353,-0.6725 -0.7102,-0.8164 -0.0331,-0.0635 -0.0082,-2.7648 -0.0082,-3.077 0,-0.9382 0.166,-1.9199 -0.5009,-2.5842 -0.2836,-0.2824 -0.5955,-0.5033 -1.0255,-0.5012l-3.0345 -0.0107c-0.485,0.0858 -0.6724,0.1413 -1.0448,0.5119 -0.7025,0.6993 -0.5327,1.6316 -0.5327,2.5524 0,0.6733 -0.0345,2.5726 -0.0007,3.0859 0.0282,0.4286 0.4795,0.7336 0.8799,0.4968 0.3716,-0.2198 0.2658,-0.889 0.2658,-1.2927 0,-1.0284 0,-2.0567 0,-3.0851z"/>
   <path id="_581737816" class="fil0" d="M7.7417 0.0341c-0.0982,0.0238 -0.1338,0.0056 -0.267,0.0511 -0.2413,0.0826 -0.419,0.2538 -0.5687,0.4491 -0.7228,0.9431 -0.0221,2.4736 1.1736,2.255 1.3951,-0.2551 1.4743,-2.2758 0.2152,-2.704 -0.2908,-0.0989 -0.3269,-0.106 -0.5531,-0.0512z"/>
  </g>
 </g>
</svg>
