<?xml version="1.0" encoding="UTF-8"?>
<!DOCTYPE svg PUBLIC "-//W3C//DTD SVG 1.1//EN" "http://www.w3.org/Graphics/SVG/1.1/DTD/svg11.dtd">
<!-- Creator: CorelDRAW -->
<svg xmlns="http://www.w3.org/2000/svg" xml:space="preserve" width="16.9332mm" height="16.9332mm" style="shape-rendering:geometricPrecision; text-rendering:geometricPrecision; image-rendering:optimizeQuality; fill-rule:evenodd; clip-rule:evenodd"
viewBox="0 0 16.9332 16.9332"
 xmlns:xlink="http://www.w3.org/1999/xlink">
 <defs>
  <style type="text/css">
   <![CDATA[
    .fil1 {fill:#FEFEFE}
    .fil2 {fill:black}
    .fil0 {fill:#373435;fill-rule:nonzero}
   ]]>
  </style>
 </defs>
 <g id="Capa_x0020_1">
  <metadata id="CorelCorpID_0Corel-Layer"/>
  <g id="_715965576">
   <g>
    <path id="_376080736" class="fil0" d="M7.674 7.6006l0.6152 0.2832 -0.0143 0.0278 -0.0082 0.014 -0.0079 0.013 -0.0082 0.0133 -0.0093 0.0144 -0.0107 0.0158 -0.012 0.0165 -0.0105 0.0136 -0.0137 0.0166 -0.019 0.0206 -0.0177 0.0171 -0.0183 0.0159 -0.0209 0.0163 -0.0253 0.0172 -0.0267 0.0153 -0.0256 0.0124 -0.0236 0.0097 -0.0229 0.0081 -0.0255 0.0073 -0.0204 0.0047 -0.0152 0.003 -0.0169 0.003 -0.0171 0.0024 -0.0149 0.0017 -0.013 0.0014 -0.0115 0.001 -0.0105 0.001 -0.011 0.001 -0.0105 0.0009 -0.0114 0.0011 -0.0112 0.001 -0.0111 0.0013 -0.0125 0.0013 -0.0776 -0.6728 0.0169 -0.0019 0.0165 -0.0017 0.0148 -0.0014 0.013 -0.0013 0.0125 -0.0011 0.0106 -0.001 0.0099 -0.0008 0.0075 -0.0008 0.005 -0.0004 0.0019 -0.0003 -0.0013 0.0002 -0.0021 0.0004 -0.001 0.0002 -0.0072 0.0017 -0.0129 0.0037 -0.0111 0.0039 -0.0122 0.0051 -0.0146 0.007 -0.0161 0.0093 -0.0151 0.0102 -0.0111 0.0087 -0.0085 0.0073 -0.0079 0.0077 -0.0092 0.01 -0.0041 0.0048 -0.0005 0.0008 -0.0018 0.0025 -0.0003 0.0004 0.0015 -0.0024 0.003 -0.0049 0.0039 -0.0066 0.0042 -0.0072 -0.0143 0.0278zm0.6009 0.311l-0.5866 -0.3388 0.0091 -0.0149 0.0097 -0.0142 0.0104 -0.0136 0.0109 -0.0129 0.0115 -0.0123 0.0119 -0.0117 0.0125 -0.0109 0.013 -0.0103 0.0134 -0.0096 0.0137 -0.0089 0.0142 -0.0082 0.0145 -0.0075 0.0148 -0.0068 0.0151 -0.006 0.0154 -0.0053 0.0156 -0.0046 0.0158 -0.0039 0.016 -0.003 0.0161 -0.0023 0.0162 -0.0016 0.0163 -0.0007 0.0164 0 0.0164 0.0008 0.0163 0.0016 0.0164 0.0025 0.0163 0.0032 0.0162 0.0041 0.0161 0.0049 0.0159 0.0058 0.0158 0.0066 0.0155 0.0075 0.0153 0.0083 0.0149 0.0091 0.0142 0.0097 0.0136 0.0104 0.0129 0.0109 0.0123 0.0115 0.0117 0.0119 0.0109 0.0125 0.0103 0.013 0.0096 0.0134 0.0089 0.0137 0.0082 0.0142 0.0075 0.0145 0.0068 0.0148 0.006 0.0151 0.0053 0.0154 0.0046 0.0156 0.0039 0.0158 0.003 0.016 0.0023 0.0161 0.0016 0.0162 0.0007 0.0163 0 0.0164 -0.0008 0.0164 -0.0016 0.0163 -0.0025 0.0164 -0.0032 0.0163 -0.0041 0.0162 -0.0049 0.0161 -0.0058 0.0159 -0.0066 0.0158 -0.0075 0.0155 -0.0083 0.0153zm0.4873 -1.0554l-0.473 1.0276 -0.6152 -0.2832 0.473 -1.0276 0.6115 -0.0078 0.0037 0.291zm0 0l-0.6152 -0.2832 0.0077 -0.0156 0.0084 -0.0151 0.009 -0.0145 0.0097 -0.0139 0.0103 -0.0133 0.0108 -0.0127 0.0115 -0.012 0.0119 -0.0115 0.0124 -0.0108 0.0129 -0.0101 0.0134 -0.0095 0.0137 -0.0088 0.0142 -0.0081 0.0144 -0.0074 0.0148 -0.0067 0.0151 -0.006 0.0154 -0.0053 0.0156 -0.0045 0.0159 -0.0038 0.016 -0.003 0.0161 -0.0023 0.0163 -0.0015 0.0164 -0.0006 0.0165 0.0001 0.0165 0.0009 0.0165 0.0017 0.0165 0.0026 0.0165 0.0034 0.0163 0.0043 0.0163 0.0051 0.0162 0.006 0.016 0.0069 0.0156 0.0077 0.0151 0.0084 0.0145 0.009 0.0139 0.0097 0.0133 0.0103 0.0127 0.0108 0.012 0.0115 0.0115 0.0119 0.0108 0.0124 0.0101 0.0129 0.0095 0.0134 0.0088 0.0137 0.0081 0.0142 0.0074 0.0144 0.0067 0.0148 0.006 0.0151 0.0053 0.0154 0.0045 0.0156 0.0038 0.0159 0.003 0.016 0.0023 0.0161 0.0015 0.0163 0.0006 0.0164 -0.0001 0.0165 -0.0009 0.0165 -0.0017 0.0165 -0.0026 0.0165 -0.0034 0.0165 -0.0043 0.0163 -0.0051 0.0163 -0.006 0.0162 -0.0069 0.016zm-0.1912 0.863l-0.4203 -0.8552 0.6078 -0.2988 0.4203 0.8552 0.0052 0.0111 -0.613 0.2877zm0 0l0.6078 -0.2988 0.0073 0.0158 0.0064 0.016 0.0055 0.0162 0.0047 0.0163 0.0039 0.0163 0.003 0.0165 0.0021 0.0164 0.0014 0.0165 0.0005 0.0165 -0.0003 0.0164 -0.001 0.0163 -0.0019 0.0162 -0.0026 0.0161 -0.0034 0.0159 -0.0041 0.0157 -0.0049 0.0155 -0.0056 0.0153 -0.0063 0.015 -0.0071 0.0146 -0.0077 0.0144 -0.0085 0.0139 -0.0091 0.0136 -0.0098 0.0132 -0.0105 0.0127 -0.0111 0.0122 -0.0118 0.0117 -0.0124 0.0112 -0.013 0.0106 -0.0136 0.01 -0.0143 0.0095 -0.0149 0.0087 -0.0154 0.0081 -0.0158 0.0073 -0.016 0.0064 -0.0162 0.0055 -0.0163 0.0047 -0.0163 0.0039 -0.0165 0.003 -0.0164 0.0021 -0.0165 0.0014 -0.0165 0.0005 -0.0164 -0.0003 -0.0163 -0.001 -0.0162 -0.0019 -0.0161 -0.0026 -0.0159 -0.0034 -0.0157 -0.0041 -0.0155 -0.0049 -0.0153 -0.0056 -0.015 -0.0063 -0.0146 -0.0071 -0.0144 -0.0077 -0.0139 -0.0085 -0.0136 -0.0091 -0.0132 -0.0098 -0.0127 -0.0105 -0.0122 -0.0111 -0.0117 -0.0118 -0.0112 -0.0124 -0.0106 -0.013 -0.01 -0.0136 -0.0095 -0.0143 -0.0087 -0.0149 -0.0081 -0.0154zm0.6897 -0.138l-0.5458 0.401 0.004 0.0054 -0.0081 -0.0107 -0.0069 -0.0093 -0.0064 -0.0086 -0.0071 -0.0098 -0.0074 -0.0104 -0.007 -0.0102 -0.0059 -0.0087 -0.0058 -0.0087 -0.0075 -0.0118 -0.0058 -0.0097 -0.0047 -0.0077 -0.0072 -0.0125 -0.0057 -0.0106 -0.0045 -0.0085 -0.0056 -0.0109 -0.0042 -0.0088 -0.0042 -0.0087 -0.0034 -0.0075 -0.0039 -0.0086 -0.0042 -0.0097 -0.0036 -0.0083 -0.0026 -0.0063 -0.0028 -0.0065 -0.0034 -0.0085 -0.0021 -0.0049 -0.0023 -0.0054 -0.0039 -0.0091 -0.0032 -0.0079 -0.0026 -0.0059 -0.0036 -0.0083 -0.0035 -0.008 -0.004 -0.009 0.6182 -0.2766 0.0052 0.0116 0.0049 0.0112 0.0044 0.0101 0.0048 0.0113 0.0036 0.0085 0.0027 0.0063 0.0039 0.0092 0.0037 0.0091 0.002 0.0047 0.0026 0.0061 0.0024 0.0059 0.0014 0.0033 0.0006 0.0015 0.0011 0.0022 0.0014 0.0031 0.0008 0.0017 0.0008 0.0016 -0.0004 -0.0007 0.0009 0.0017 -0.0001 -0.0002 -0.0012 -0.0021 0.0017 0.0029 0.0008 0.0013 -0.0003 -0.0006 0.002 0.0031 0.0023 0.0035 0.0018 0.0026 0.002 0.0028 0.0031 0.0042 0.0046 0.0062 0.0047 0.0063 0.0045 0.0059 0.004 0.0054zm-0.5418 0.4064l0.5378 -0.4118 0.0102 0.0141 0.0095 0.0145 0.0086 0.0147 0.0077 0.0151 0.007 0.0153 0.0061 0.0155 0.0054 0.0157 0.0045 0.0159 0.0037 0.0161 0.003 0.0161 0.0021 0.0162 0.0014 0.0163 0.0006 0.0163 -0.0002 0.0163 -0.001 0.0162 -0.0018 0.0161 -0.0025 0.0161 -0.0033 0.0159 -0.004 0.0158 -0.0048 0.0156 -0.0056 0.0153 -0.0063 0.0151 -0.007 0.0148 -0.0078 0.0145 -0.0085 0.0142 -0.0093 0.0138 -0.01 0.0134 -0.0107 0.0129 -0.0114 0.0125 -0.0122 0.0121 -0.0128 0.0115 -0.0136 0.0109 -0.0141 0.0102 -0.0145 0.0095 -0.0147 0.0086 -0.0151 0.0077 -0.0153 0.007 -0.0155 0.0061 -0.0157 0.0054 -0.0159 0.0045 -0.0161 0.0037 -0.0161 0.003 -0.0162 0.0021 -0.0163 0.0014 -0.0163 0.0006 -0.0163 -0.0002 -0.0162 -0.001 -0.0161 -0.0018 -0.0161 -0.0025 -0.0159 -0.0033 -0.0158 -0.004 -0.0156 -0.0048 -0.0153 -0.0056 -0.0151 -0.0063 -0.0148 -0.007 -0.0145 -0.0078 -0.0142 -0.0085 -0.0138 -0.0093 -0.0134 -0.01 -0.0129 -0.0107 -0.0125 -0.0114 -0.0121 -0.0122 -0.0115 -0.0128 -0.0109 -0.0136zm-0.02 -0.3265l0.6158 0.2818 -0.0029 0.0063 -0.0344 0.0565 -0.0744 0.0727 -0.1237 0.0552 -0.1077 0.0064 -0.0641 -0.0127 -0.0546 -0.0217 -0.0309 -0.0175 -0.0253 -0.0177 -0.0239 -0.0202 -0.0006 -0.0006 -0.0105 -0.0099 -0.0161 -0.0173 -0.0072 -0.0085 0.0005 0.0006 -0.0008 -0.0009 -0.0131 -0.0168 0.001 0.0013 -0.0055 -0.0074 -0.0069 -0.0101 0.0102 0.0144 -0.0055 -0.0074 -0.013 -0.0197 0.0078 0.012 -0.0007 -0.0009 -0.0074 -0.0114 0.0039 0.0061 0.0045 0.0066 0.003 0.0042 -0.0123 -0.0179 -0.0039 -0.0063 0.0141 0.0211 0.0006 0.0008 0.5458 -0.401 0.0014 0.0018 0.0149 0.0223 -0.0031 -0.0049 -0.0113 -0.0165 0.0042 0.0058 0.0057 0.0084 0.0051 0.0079 -0.0062 -0.0094 0.0007 0.0009 0.009 0.014 -0.0116 -0.0175 -0.0039 -0.0054 0.0116 0.0164 -0.0055 -0.0079 -0.0039 -0.0054 0.0024 0.0033 -0.0117 -0.015 0.0008 0.0009 0.0019 0.0024 -0.0058 -0.0069 -0.0147 -0.0157 -0.0091 -0.0087 0.0006 0.0006 -0.0225 -0.019 -0.0241 -0.0169 -0.0299 -0.0169 -0.0536 -0.0213 -0.0631 -0.0125 -0.1067 0.0064 -0.1229 0.0548 -0.0738 0.0721 -0.0338 0.0555 -0.0029 0.0063zm0.6129 0.2881l-0.61 -0.2944 0.008 -0.0155 0.0086 -0.0149 0.0093 -0.0143 0.0099 -0.0138 0.0106 -0.0131 0.0111 -0.0125 0.0116 -0.0118 0.0121 -0.0112 0.0127 -0.0106 0.013 -0.0099 0.0136 -0.0092 0.0139 -0.0085 0.0142 -0.0079 0.0147 -0.0071 0.0149 -0.0065 0.0152 -0.0057 0.0155 -0.005 0.0157 -0.0042 0.0159 -0.0035 0.016 -0.0028 0.0162 -0.0019 0.0164 -0.0012 0.0164 -0.0004 0.0164 0.0004 0.0165 0.0012 0.0165 0.0021 0.0165 0.0028 0.0164 0.0038 0.0163 0.0045 0.0162 0.0054 0.016 0.0063 0.0159 0.0072 0.0155 0.008 0.0149 0.0086 0.0143 0.0093 0.0138 0.0099 0.0131 0.0106 0.0125 0.0111 0.0118 0.0116 0.0112 0.0121 0.0106 0.0127 0.0099 0.013 0.0092 0.0136 0.0085 0.0139 0.0079 0.0142 0.0071 0.0147 0.0065 0.0149 0.0057 0.0152 0.005 0.0155 0.0042 0.0157 0.0035 0.0159 0.0028 0.016 0.0019 0.0162 0.0012 0.0164 0.0004 0.0164 -0.0004 0.0164 -0.0012 0.0165 -0.0021 0.0165 -0.0028 0.0165 -0.0038 0.0164 -0.0045 0.0163 -0.0054 0.0162 -0.0063 0.016 -0.0072 0.0159zm-0.2389 -0.4628l-0.0928 0.6708 -0.1743 -0.0785 -0.0104 -0.0093 -0.0098 -0.0094 -0.0088 -0.0091 -0.0145 -0.0166 -0.0066 -0.0083 0.0064 0.008 -0.0064 -0.0079 -0.0123 -0.0166 0.0058 0.008 -0.0008 -0.001 -0.0072 -0.01 0.0058 0.008 -0.0008 -0.001 -0.0072 -0.01 0.0041 0.0057 0.0046 0.0061 -0.0007 -0.0009 -0.0024 -0.0031 0.0125 0.0153 0.007 0.0079 -0.0095 -0.0107 0.0069 0.0077 0.0213 0.0213 0.028 0.0228 0.0245 0.0162 0.0362 0.0188 0.0636 0.021 0.073 0.0079 0.133 -0.0272 0.0831 -0.0509 0.0538 -0.0567 0.0367 -0.0618 -0.6158 -0.2818 0.0373 -0.0628 0.0544 -0.0573 0.0837 -0.0513 0.1338 -0.0274 0.074 0.0081 0.0644 0.0212 0.0372 0.0194 0.0255 0.0168 0.0292 0.0238 0.0223 0.0223 0.0081 0.0091 -0.0083 -0.0093 0.0084 0.0093 0.0137 0.0169 -0.001 -0.0013 0.0007 0.0009 0.006 0.0079 0.0055 0.0077 -0.0058 -0.008 0.0008 0.001 0.0072 0.01 -0.0058 -0.008 0.0008 0.001 0.0072 0.01 -0.0109 -0.0146 -0.0048 -0.0061 0.0078 0.0098 -0.0052 -0.0065 -0.0131 -0.015 -0.0074 -0.0077 -0.0084 -0.008 -0.009 -0.0081 -0.1743 -0.0785zm-0.2671 0.5923l0.4414 -0.5138 0.0129 0.0117 0.0122 0.0122 0.0115 0.0127 0.0107 0.0131 0.0099 0.0135 0.0092 0.014 0.0085 0.0142 0.0077 0.0147 0.007 0.0149 0.0062 0.0152 0.0054 0.0154 0.0047 0.0157 0.0039 0.0158 0.0032 0.0159 0.0023 0.0161 0.0017 0.0162 0.0008 0.0162 0.0001 0.0163 -0.0008 0.0163 -0.0014 0.0162 -0.0023 0.0162 -0.0031 0.016 -0.0038 0.016 -0.0046 0.0158 -0.0054 0.0156 -0.0063 0.0154 -0.007 0.0152 -0.0078 0.0149 -0.0086 0.0146 -0.0094 0.0142 -0.0102 0.0139 -0.011 0.0135 -0.0117 0.0129 -0.0122 0.0122 -0.0127 0.0115 -0.0131 0.0107 -0.0135 0.0099 -0.014 0.0092 -0.0142 0.0085 -0.0147 0.0077 -0.0149 0.007 -0.0152 0.0062 -0.0154 0.0054 -0.0157 0.0047 -0.0158 0.0039 -0.0159 0.0032 -0.0161 0.0023 -0.0162 0.0016 -0.0162 0.0009 -0.0163 0.0001 -0.0163 -0.0008 -0.0162 -0.0014 -0.0162 -0.0023 -0.016 -0.0031 -0.016 -0.0038 -0.0158 -0.0046 -0.0156 -0.0054 -0.0154 -0.0063 -0.0152 -0.007 -0.0149 -0.0078 -0.0146 -0.0086 -0.0142 -0.0094 -0.0139 -0.0102 -0.0135 -0.011zm1.3444 0.2405l-1.1701 -0.162 0.0928 -0.6708 1.1701 0.162 0.1923 0.5756 -0.2851 0.0952zm0 0l0.0928 -0.6708 0.0172 0.0028 0.0168 0.0037 0.0165 0.0044 0.0161 0.0053 0.0157 0.0059 0.0153 0.0068 0.0149 0.0074 0.0144 0.0081 0.0139 0.0088 0.0135 0.0094 0.0129 0.01 0.0124 0.0106 0.0118 0.0112 0.0113 0.0117 0.0107 0.0122 0.0102 0.0127 0.0094 0.0132 0.0089 0.0137 0.0082 0.014 0.0075 0.0145 0.0069 0.0148 0.0061 0.0151 0.0054 0.0155 0.0047 0.0158 0.0039 0.0161 0.0031 0.0163 0.0023 0.0165 0.0015 0.0168 0.0007 0.0169 -0.0002 0.0171 -0.0011 0.0172 -0.0019 0.0173 -0.0028 0.0172 -0.0037 0.0168 -0.0044 0.0165 -0.0053 0.0161 -0.0059 0.0157 -0.0068 0.0153 -0.0074 0.0149 -0.0081 0.0144 -0.0088 0.0139 -0.0094 0.0134 -0.01 0.013 -0.0106 0.0124 -0.0112 0.0118 -0.0117 0.0113 -0.0122 0.0107 -0.0127 0.0101 -0.0132 0.0095 -0.0137 0.0089 -0.014 0.0082 -0.0145 0.0075 -0.0148 0.0069 -0.0151 0.0061 -0.0155 0.0054 -0.0158 0.0047 -0.0161 0.0039 -0.0163 0.0031 -0.0165 0.0023 -0.0168 0.0015 -0.0169 0.0007 -0.0171 -0.0002 -0.0172 -0.0011 -0.0173 -0.0019zm-0.9869 0.2143l0.7946 -0.7899 0.4774 0.4804 -0.7946 0.7899 -0.4864 -0.4711 0.009 -0.0093zm0 0l0.4774 0.4804 -0.0127 0.012 -0.0131 0.0112 -0.0135 0.0104 -0.0139 0.0096 -0.0143 0.0089 -0.0146 0.0081 -0.015 0.0073 -0.0151 0.0065 -0.0155 0.0058 -0.0156 0.005 -0.0158 0.0042 -0.0159 0.0034 -0.0161 0.0027 -0.0162 0.0019 -0.0162 0.0011 -0.0162 0.0003 -0.0163 -0.0004 -0.0162 -0.0013 -0.0162 -0.0019 -0.016 -0.0028 -0.016 -0.0035 -0.0157 -0.0043 -0.0156 -0.0051 -0.0154 -0.0059 -0.0152 -0.0066 -0.0148 -0.0074 -0.0146 -0.0082 -0.0142 -0.009 -0.0139 -0.0097 -0.0135 -0.0105 -0.013 -0.0113 -0.0126 -0.012 -0.012 -0.0127 -0.0112 -0.0131 -0.0104 -0.0135 -0.0096 -0.0139 -0.0089 -0.0143 -0.0081 -0.0146 -0.0073 -0.015 -0.0065 -0.0151 -0.0058 -0.0155 -0.005 -0.0156 -0.0042 -0.0158 -0.0034 -0.0159 -0.0027 -0.0161 -0.0019 -0.0162 -0.0011 -0.0162 -0.0003 -0.0162 0.0004 -0.0163 0.0013 -0.0162 0.0019 -0.0162 0.0028 -0.016 0.0035 -0.016 0.0043 -0.0157 0.0051 -0.0156 0.0059 -0.0154 0.0066 -0.0152 0.0074 -0.0148 0.0082 -0.0146 0.009 -0.0142 0.0097 -0.0139 0.0105 -0.0135 0.0113 -0.013 0.012 -0.0126zm0.2271 1.8166l0.3038 -0.6052 -0.4901 0.3195 -0.0019 -0.0284 -0.0031 -0.0317 -0.0042 -0.0348 -0.0052 -0.0372 -0.0063 -0.0393 -0.0071 -0.0415 -0.008 -0.043 -0.0087 -0.0446 -0.0092 -0.0456 -0.0096 -0.0462 -0.0101 -0.0475 -0.0102 -0.048 -0.0104 -0.0483 -0.0104 -0.0488 -0.0103 -0.0488 -0.01 -0.0488 -0.0096 -0.0485 -0.0093 -0.049 -0.0085 -0.0482 -0.008 -0.0482 -0.0069 -0.0478 -0.006 -0.0476 -0.0048 -0.0481 -0.0032 -0.0478 -0.0015 -0.0481 0.0006 -0.0494 0.0036 -0.051 0.0075 -0.0534 0.0135 -0.0581 0.0223 -0.0623 0.0343 -0.0654 0.0509 -0.0662 0.4954 0.4618 0.0267 -0.0344 0.0145 -0.0274 0.0067 -0.0183 0.0021 -0.0085 -0.0001 0.0014 -0.0006 0.009 -0.0002 0.0152 0.0007 0.0209 0.0018 0.0252 0.0028 0.0287 0.0042 0.0326 0.0051 0.0354 0.0062 0.0378 0.0071 0.0402 0.0079 0.0416 0.0088 0.0439 0.0092 0.0452 0.0097 0.0462 0.01 0.0472 0.0104 0.0481 0.0104 0.0488 0.0105 0.0491 0.0104 0.05 0.01 0.0498 0.0097 0.0498 0.0092 0.05 0.0087 0.0499 0.0079 0.0499 0.007 0.0498 0.006 0.0496 0.0047 0.0497 0.0033 0.0496 -0.4901 0.3195zm-0.1863 -0.2857l0.6764 -0.0338 0.0004 0.0174 -0.0004 0.0173 -0.0013 0.017 -0.0022 0.0168 -0.0029 0.0165 -0.0038 0.0163 -0.0045 0.016 -0.0053 0.0156 -0.0061 0.0154 -0.0067 0.0149 -0.0074 0.0146 -0.0081 0.0141 -0.0088 0.0138 -0.0094 0.0133 -0.01 0.0128 -0.0106 0.0123 -0.0112 0.0118 -0.0118 0.0112 -0.0123 0.0107 -0.0127 0.0101 -0.0133 0.0095 -0.0138 0.0088 -0.0142 0.0082 -0.0146 0.0075 -0.0151 0.0069 -0.0154 0.0061 -0.0158 0.0053 -0.0162 0.0046 -0.0165 0.0038 -0.0168 0.003 -0.0171 0.0022 -0.0174 0.0013 -0.0174 0.0004 -0.0173 -0.0004 -0.017 -0.0013 -0.0168 -0.0022 -0.0165 -0.0029 -0.0163 -0.0038 -0.016 -0.0045 -0.0156 -0.0053 -0.0154 -0.0061 -0.0149 -0.0067 -0.0146 -0.0074 -0.0141 -0.0081 -0.0138 -0.0088 -0.0133 -0.0094 -0.0128 -0.01 -0.0123 -0.0106 -0.0118 -0.0112 -0.0112 -0.0118 -0.0107 -0.0123 -0.0101 -0.0127 -0.0095 -0.0133 -0.0088 -0.0138 -0.0082 -0.0142 -0.0075 -0.0146 -0.0069 -0.0151 -0.0061 -0.0154 -0.0053 -0.0158 -0.0046 -0.0162 -0.0038 -0.0165 -0.003 -0.0168 -0.0022 -0.0171 -0.0013 -0.0174zm-0.5977 -0.8656l1.0878 0.5461 -0.3038 0.6052 -1.0878 -0.5461 0.129 -0.6405 0.1748 0.0353zm0 0l-0.3038 0.6052 -0.0154 -0.0082 -0.0148 -0.0089 -0.0141 -0.0095 -0.0136 -0.0101 -0.0129 -0.0108 -0.0123 -0.0112 -0.0117 -0.0119 -0.011 -0.0123 -0.0104 -0.0128 -0.0097 -0.0132 -0.009 -0.0136 -0.0083 -0.0141 -0.0076 -0.0144 -0.007 -0.0147 -0.0062 -0.015 -0.0054 -0.0153 -0.0048 -0.0156 -0.004 -0.0157 -0.0032 -0.016 -0.0025 -0.0161 -0.0017 -0.0162 -0.0009 -0.0163 -0.0002 -0.0164 0.0007 -0.0165 0.0015 -0.0164 0.0023 -0.0165 0.0031 -0.0164 0.004 -0.0163 0.0048 -0.0163 0.0056 -0.0161 0.0066 -0.0159 0.0074 -0.0158 0.0082 -0.0154 0.0089 -0.0148 0.0095 -0.0141 0.0101 -0.0136 0.0108 -0.0129 0.0112 -0.0123 0.0119 -0.0117 0.0123 -0.011 0.0128 -0.0104 0.0132 -0.0097 0.0136 -0.009 0.0141 -0.0083 0.0144 -0.0076 0.0147 -0.007 0.015 -0.0062 0.0153 -0.0054 0.0156 -0.0048 0.0157 -0.004 0.016 -0.0032 0.0161 -0.0025 0.0162 -0.0017 0.0163 -0.0009 0.0164 -0.0002 0.0165 0.0007 0.0164 0.0015 0.0165 0.0023 0.0164 0.0031 0.0163 0.004 0.0163 0.0048 0.0161 0.0056 0.0159 0.0066 0.0158 0.0074zm-1.5488 0.793l0.668 0.1116 -0.4738 -0.3642 0.0098 -0.0047 0.017 -0.0084 0.021 -0.0105 0.0247 -0.0128 0.029 -0.0152 0.0314 -0.0166 0.0339 -0.018 0.0365 -0.0196 0.0386 -0.0207 0.0398 -0.0214 0.0413 -0.0224 0.0426 -0.023 0.0435 -0.0236 0.044 -0.0237 0.0444 -0.024 0.0447 -0.0241 0.0443 -0.0238 0.0441 -0.0236 0.0433 -0.023 0.0425 -0.0225 0.0414 -0.0217 0.0402 -0.021 0.0386 -0.0199 0.0367 -0.0187 0.0356 -0.0178 0.0335 -0.0163 0.0315 -0.0148 0.0299 -0.0137 0.0295 -0.0126 0.0317 -0.0122 0.041 -0.013 0.0738 -0.0124 0.0458 0.6758 0.0546 -0.0088 0.0136 -0.0042 -0.0033 0.0014 -0.0125 0.0054 -0.0189 0.0085 -0.0235 0.0112 -0.0269 0.0131 -0.03 0.015 -0.0335 0.0171 -0.0358 0.0183 -0.0376 0.0196 -0.0394 0.0207 -0.0409 0.0217 -0.0421 0.0224 -0.0429 0.023 -0.0437 0.0234 -0.0437 0.0235 -0.044 0.0238 -0.0438 0.0237 -0.0433 0.0234 -0.0428 0.0232 -0.0419 0.0226 -0.0408 0.022 -0.039 0.0209 -0.0373 0.02 -0.0359 0.0192 -0.0338 0.0178 -0.031 0.0162 -0.0297 0.0154 -0.0272 0.0137 -0.0244 0.012 -0.0246 0.0115 -0.4738 -0.3642zm0.1942 -0.2526l0.2796 0.6168 -0.016 0.0068 -0.0162 0.0059 -0.0164 0.005 -0.0164 0.0042 -0.0165 0.0033 -0.0165 0.0025 -0.0165 0.0016 -0.0165 0.0009 -0.0165 0 -0.0164 -0.0008 -0.0162 -0.0016 -0.0162 -0.0023 -0.016 -0.0031 -0.0158 -0.0039 -0.0156 -0.0046 -0.0153 -0.0054 -0.0151 -0.0061 -0.0147 -0.0068 -0.0145 -0.0075 -0.0141 -0.0082 -0.0137 -0.0088 -0.0132 -0.0096 -0.0129 -0.0102 -0.0123 -0.0109 -0.0119 -0.0115 -0.0114 -0.0121 -0.0108 -0.0127 -0.0102 -0.0134 -0.0096 -0.014 -0.0089 -0.0145 -0.0083 -0.0151 -0.0076 -0.0157 -0.0068 -0.016 -0.0059 -0.0162 -0.005 -0.0164 -0.0042 -0.0164 -0.0033 -0.0165 -0.0025 -0.0165 -0.0016 -0.0165 -0.0009 -0.0165 0 -0.0165 0.0008 -0.0164 0.0016 -0.0162 0.0023 -0.0162 0.0031 -0.016 0.0039 -0.0158 0.0046 -0.0156 0.0054 -0.0153 0.0061 -0.0151 0.0068 -0.0147 0.0075 -0.0145 0.0082 -0.0141 0.0088 -0.0137 0.0096 -0.0132 0.0102 -0.0129 0.0109 -0.0123 0.0115 -0.0119 0.0121 -0.0114 0.0127 -0.0108 0.0134 -0.0102 0.014 -0.0096 0.0145 -0.0089 0.0151 -0.0083 0.0157 -0.0076zm0.5889 -0.325l-0.1151 0.6892 -0.668 -0.1116 0.1151 -0.6892 0.0006 -0.0038 0.6674 0.1154zm0 0l-0.668 -0.1116 0.0033 -0.0171 0.0041 -0.0168 0.0049 -0.0163 0.0057 -0.016 0.0065 -0.0155 0.0071 -0.0151 0.0079 -0.0146 0.0085 -0.0142 0.0091 -0.0137 0.0098 -0.0131 0.0104 -0.0127 0.0109 -0.0121 0.0116 -0.0115 0.012 -0.011 0.0125 -0.0103 0.013 -0.0098 0.0134 -0.0091 0.0139 -0.0085 0.0143 -0.0078 0.0147 -0.0071 0.015 -0.0065 0.0153 -0.0057 0.0156 -0.0049 0.0159 -0.0043 0.0162 -0.0034 0.0164 -0.0027 0.0166 -0.0018 0.0168 -0.0011 0.0169 -0.0001 0.0171 0.0006 0.0171 0.0016 0.0173 0.0024 0.0171 0.0033 0.0168 0.0041 0.0163 0.0049 0.016 0.0057 0.0155 0.0065 0.0151 0.0071 0.0146 0.0079 0.0142 0.0085 0.0137 0.0091 0.0131 0.0098 0.0127 0.0104 0.0121 0.0109 0.0115 0.0116 0.011 0.012 0.0103 0.0125 0.0098 0.013 0.0091 0.0134 0.0085 0.0139 0.0078 0.0143 0.0071 0.0147 0.0065 0.015 0.0057 0.0153 0.0049 0.0156 0.0043 0.0159 0.0034 0.0162 0.0027 0.0164 0.0018 0.0166 0.0011 0.0168 0.0001 0.0169 -0.0006 0.0171 -0.0016 0.0171 -0.0024 0.0173zm-0.57 -0.422l0.4856 -0.472 0 0 0.0284 0.0313 0.0262 0.0337 0.0234 0.035 0.0205 0.0364 0.0175 0.0369 0.0146 0.0377 0.0114 0.0365 0.0091 0.0372 0.0065 0.0365 0.0041 0.0334 0.0025 0.0343 0.0008 0.0332 -0.0005 0.031 -0.0016 0.03 -0.0025 0.029 -0.0032 0.028 -0.0038 0.027 -0.0042 0.0263 -0.0047 0.0257 -0.0049 0.0248 -0.0051 0.0241 -0.0052 0.0238 -0.0051 0.0224 -0.0052 0.0226 -0.0053 0.0221 -0.0047 0.0203 -0.0049 0.0213 -0.0048 0.0209 -0.0042 0.0195 -0.0041 0.0193 -0.0037 0.0189 -0.0035 0.0187 -0.6668 -0.1192 0.0051 -0.0273 0.0053 -0.0267 0.0055 -0.0261 0.0056 -0.0253 0.0054 -0.0235 0.0051 -0.0227 0.0055 -0.0233 0.0049 -0.0209 0.0046 -0.02 0.0045 -0.0196 0.004 -0.0178 0.0035 -0.0169 0.0031 -0.0156 0.0025 -0.0141 0.0022 -0.0131 0.0016 -0.0116 0.0012 -0.01 0.0007 -0.0084 0.0004 -0.0068 0.0001 -0.005 0 -0.0022 -0.0001 -0.0003 -0.0001 -0.0006 0.0007 0.0033 0.0011 0.0048 0.0016 0.0049 0.0026 0.0067 0.0033 0.0069 0.0041 0.0072 0.0044 0.0066 0.0048 0.0061 0.0042 0.0047 0 0zm0.4856 -0.472l-0.4856 0.472 -0.0118 -0.0128 -0.0111 -0.0132 -0.0102 -0.0137 -0.0095 -0.014 -0.0087 -0.0144 -0.0079 -0.0147 -0.0072 -0.015 -0.0064 -0.0152 -0.0055 -0.0155 -0.0049 -0.0157 -0.004 -0.0158 -0.0032 -0.016 -0.0025 -0.0161 -0.0017 -0.0162 -0.001 -0.0162 -0.0001 -0.0163 0.0006 -0.0162 0.0014 -0.0162 0.0022 -0.0162 0.0029 -0.016 0.0037 -0.0159 0.0045 -0.0157 0.0053 -0.0155 0.006 -0.0154 0.0068 -0.015 0.0075 -0.0148 0.0084 -0.0145 0.0091 -0.0141 0.0099 -0.0138 0.0106 -0.0133 0.0114 -0.0129 0.0122 -0.0125 0.0128 -0.0118 0.0132 -0.0111 0.0137 -0.0102 0.014 -0.0095 0.0144 -0.0087 0.0147 -0.0079 0.015 -0.0072 0.0152 -0.0064 0.0155 -0.0055 0.0157 -0.0049 0.0158 -0.004 0.016 -0.0032 0.0161 -0.0025 0.0162 -0.0017 0.0162 -0.001 0.0163 -0.0001 0.0162 0.0006 0.0162 0.0014 0.0162 0.0022 0.016 0.0029 0.0159 0.0037 0.0157 0.0045 0.0155 0.0053 0.0154 0.006 0.015 0.0068 0.0148 0.0075 0.0145 0.0084 0.0141 0.0091 0.0138 0.0099 0.0133 0.0106 0.0129 0.0114 0.0125 0.0122zm-1.0717 -0.875l0.082 0.6722 0.2613 -0.4888 -0.0023 -0.0042 0.0019 0.0029 0.0056 0.0077 0.0091 0.0117 0.0125 0.0149 0.0154 0.0176 0.0176 0.0193 0.0199 0.021 0.0216 0.0222 0.0236 0.0235 0.0249 0.0245 0.0262 0.025 0.0273 0.0259 0.028 0.026 0.0291 0.0268 0.0297 0.0271 0.0298 0.0271 0.0304 0.0272 0.0306 0.0274 0.0301 0.0269 0.0299 0.0266 0.0301 0.0266 0.0296 0.0263 0.0287 0.0257 0.0285 0.0255 0.0274 0.0248 0.026 0.0235 0.0255 0.0234 0.0246 0.023 0.0233 0.0222 0.0225 0.0219 0.0213 0.0216 -0.4856 0.472 -0.0125 -0.0126 -0.0153 -0.0149 -0.0181 -0.0172 -0.02 -0.0186 -0.0223 -0.0204 -0.0244 -0.0223 -0.0254 -0.023 -0.0265 -0.0237 -0.0283 -0.0251 -0.0288 -0.0257 -0.0297 -0.0264 -0.0309 -0.0274 -0.0313 -0.0279 -0.0312 -0.028 -0.0316 -0.0284 -0.032 -0.0289 -0.0317 -0.0289 -0.0315 -0.029 -0.0316 -0.0294 -0.0309 -0.0293 -0.0304 -0.0292 -0.0297 -0.0291 -0.029 -0.0289 -0.0284 -0.0292 -0.0273 -0.0288 -0.0266 -0.0291 -0.0254 -0.029 -0.0247 -0.0297 -0.0241 -0.0309 -0.0234 -0.0327 -0.0225 -0.0351 -0.0219 -0.0394 0.2613 -0.4888zm0.3433 0.1834l-0.6046 0.3054 -0.0075 -0.0158 -0.0065 -0.0159 -0.0058 -0.0161 -0.0048 -0.0162 -0.004 -0.0163 -0.0032 -0.0164 -0.0023 -0.0165 -0.0016 -0.0165 -0.0007 -0.0164 0.0001 -0.0164 0.0009 -0.0163 0.0017 -0.0163 0.0024 -0.0161 0.0032 -0.0159 0.004 -0.0158 0.0047 -0.0156 0.0054 -0.0153 0.0062 -0.015 0.0069 -0.0148 0.0076 -0.0144 0.0083 -0.0141 0.009 -0.0136 0.0096 -0.0133 0.0104 -0.0128 0.011 -0.0124 0.0116 -0.0118 0.0123 -0.0113 0.0129 -0.0108 0.0135 -0.0102 0.0142 -0.0095 0.0147 -0.009 0.0154 -0.0082 0.0158 -0.0075 0.0159 -0.0065 0.0161 -0.0058 0.0162 -0.0048 0.0163 -0.004 0.0164 -0.0032 0.0165 -0.0023 0.0164 -0.0016 0.0165 -0.0007 0.0164 0.0001 0.0163 0.0009 0.0163 0.0017 0.0161 0.0024 0.0159 0.0032 0.0158 0.004 0.0156 0.0047 0.0153 0.0054 0.015 0.0062 0.0148 0.0069 0.0144 0.0076 0.0141 0.0083 0.0136 0.009 0.0133 0.0096 0.0128 0.0104 0.0124 0.011 0.0118 0.0116 0.0113 0.0123 0.0108 0.0129 0.0102 0.0135 0.0095 0.0142 0.009 0.0147 0.0082 0.0154zm0.756 0.3646l-1.0173 0.1242 -0.082 -0.6722 1.0173 -0.1242 0.0022 -0.0003 0.0798 0.6725zm0 0l-0.082 -0.6722 0.0173 -0.0017 0.0173 -0.0007 0.0171 0 0.0169 0.001 0.0167 0.0018 0.0165 0.0025 0.0162 0.0034 0.016 0.0042 0.0158 0.0049 0.0154 0.0056 0.015 0.0064 0.0147 0.0071 0.0143 0.0078 0.014 0.0084 0.0134 0.0091 0.0131 0.0097 0.0125 0.0103 0.0121 0.0109 0.0115 0.0115 0.011 0.012 0.0104 0.0126 0.0098 0.0131 0.0092 0.0135 0.0085 0.0141 0.0079 0.0145 0.0072 0.015 0.0065 0.0154 0.0057 0.0158 0.005 0.0162 0.0042 0.0166 0.0034 0.0169 0.0025 0.0172 0.0017 0.0173 0.0007 0.0173 0 0.0171 -0.001 0.0169 -0.0018 0.0167 -0.0025 0.0165 -0.0034 0.0162 -0.0042 0.016 -0.0049 0.0158 -0.0056 0.0154 -0.0064 0.015 -0.0071 0.0147 -0.0078 0.0143 -0.0084 0.014 -0.0091 0.0134 -0.0097 0.0131 -0.0103 0.0125 -0.0109 0.0121 -0.0115 0.0115 -0.012 0.011 -0.0126 0.0104 -0.0131 0.0098 -0.0135 0.0092 -0.0141 0.0085 -0.0145 0.0079 -0.015 0.0072 -0.0154 0.0065 -0.0158 0.0057 -0.0162 0.005 -0.0166 0.0042 -0.0169 0.0034 -0.0172 0.0025zm-3.9171 -3.5979l0.5824 0.3458 -0.0001 0.0001 -0.0101 0.017 -0.0112 0.0185 -0.0117 0.0193 -0.0117 0.0192 -0.012 0.0198 -0.0129 0.0217 -0.0131 0.0219 -0.0132 0.0224 -0.0133 0.0229 -0.0133 0.0235 -0.0131 0.0234 -0.013 0.0241 -0.0132 0.0248 -0.0125 0.0242 -0.0123 0.0247 -0.0116 0.024 -0.0105 0.0228 -0.0102 0.0235 -0.0094 0.0223 -0.0082 0.0213 -0.0075 0.0207 -0.0064 0.0195 -0.0052 0.0176 -0.004 0.0154 -0.0028 0.013 -0.0019 0.0111 -0.001 0.0081 -0.0003 0.0039 0 0.0009 -0.0003 -0.0031 -0.0013 -0.0072 -0.0029 -0.0109 -0.6448 0.2074 -0.0143 -0.0539 -0.0089 -0.0524 -0.0041 -0.0503 -0.0004 -0.0481 0.0027 -0.0467 0.0052 -0.0441 0.0071 -0.0425 0.009 -0.0416 0.0104 -0.0404 0.0116 -0.0388 0.0124 -0.0377 0.0133 -0.0369 0.0142 -0.0367 0.0148 -0.0357 0.0152 -0.0347 0.0161 -0.035 0.0162 -0.0334 0.0161 -0.0323 0.0165 -0.032 0.0162 -0.0306 0.0164 -0.0303 0.0165 -0.0296 0.0161 -0.0283 0.0157 -0.0271 0.0152 -0.026 0.0147 -0.0247 0.0137 -0.0227 0.0134 -0.0224 0.0125 -0.0204 0.0109 -0.0179 0.0096 -0.0159 0.0087 -0.0146 -0.0001 0.0001zm0.5823 0.3459l-0.5822 -0.346 0.0093 -0.0147 0.0099 -0.0142 0.0105 -0.0134 0.0111 -0.0128 0.0116 -0.0122 0.0121 -0.0115 0.0126 -0.0108 0.0131 -0.0101 0.0135 -0.0094 0.0139 -0.0087 0.0142 -0.0081 0.0146 -0.0073 0.0149 -0.0066 0.0152 -0.0058 0.0155 -0.0051 0.0156 -0.0044 0.0158 -0.0037 0.016 -0.0028 0.0162 -0.0021 0.0162 -0.0014 0.0163 -0.0005 0.0164 0.0002 0.0164 0.001 0.0163 0.0019 0.0163 0.0026 0.0163 0.0035 0.0161 0.0042 0.016 0.0052 0.0159 0.0059 0.0157 0.0068 0.0154 0.0077 0.0152 0.0085 0.0147 0.0093 0.0142 0.0099 0.0134 0.0105 0.0128 0.0111 0.0122 0.0116 0.0115 0.0121 0.0108 0.0126 0.0101 0.0131 0.0094 0.0135 0.0087 0.0139 0.0081 0.0142 0.0073 0.0146 0.0066 0.0149 0.0058 0.0152 0.0051 0.0155 0.0044 0.0156 0.0037 0.0158 0.0028 0.016 0.0021 0.0162 0.0014 0.0162 0.0005 0.0163 -0.0002 0.0164 -0.001 0.0164 -0.0019 0.0163 -0.0026 0.0163 -0.0035 0.0163 -0.0042 0.0161 -0.0052 0.016 -0.0059 0.0159 -0.0068 0.0157 -0.0077 0.0154 -0.0085 0.0152zm4.4674 -2.9393l-0.0106 0.6772 0 0 -0.1657 -0.0001 -0.166 0.0049 -0.1662 0.0098 -0.1659 0.0146 -0.1656 0.0197 -0.1651 0.0243 -0.1643 0.0293 -0.1636 0.034 -0.1623 0.0386 -0.1609 0.0434 -0.1595 0.0481 -0.1576 0.0526 -0.1557 0.0572 -0.1537 0.0617 -0.1512 0.0661 -0.1487 0.0706 -0.1461 0.0748 -0.143 0.0793 -0.14 0.0835 -0.1366 0.0876 -0.1333 0.0919 -0.1295 0.0959 -0.1257 0.1 -0.1217 0.104 -0.1175 0.1079 -0.1131 0.1117 -0.1085 0.1157 -0.104 0.1196 -0.0991 0.1232 -0.0941 0.1269 -0.0889 0.1308 -0.0836 0.1344 -0.5824 -0.3458 0.0984 -0.158 0.1043 -0.1534 0.1101 -0.1487 0.1157 -0.144 0.121 -0.139 0.1261 -0.1343 0.1309 -0.1295 0.1357 -0.1245 0.1399 -0.1196 0.1441 -0.1146 0.1481 -0.1097 0.1519 -0.1047 0.1554 -0.0998 0.1588 -0.0947 0.162 -0.0897 0.1649 -0.0846 0.1677 -0.0796 0.1702 -0.0743 0.1725 -0.0693 0.1747 -0.0642 0.1768 -0.059 0.1785 -0.0537 0.1801 -0.0486 0.1815 -0.0432 0.1826 -0.038 0.1839 -0.0327 0.1845 -0.0273 0.1854 -0.0219 0.1857 -0.0164 0.186 -0.011 0.1862 -0.0055 0.1861 0.0001 0 0zm-0.0106 0.6772l0.0106 -0.6772 0.0174 0.0007 0.0172 0.0016 0.0169 0.0024 0.0166 0.0032 0.0164 0.0041 0.0159 0.0048 0.0157 0.0056 0.0153 0.0063 0.0149 0.007 0.0145 0.0077 0.014 0.0084 0.0136 0.009 0.0131 0.0096 0.0127 0.0103 0.0121 0.0108 0.0116 0.0114 0.011 0.0119 0.0104 0.0125 0.0099 0.013 0.0092 0.0134 0.0086 0.0139 0.0079 0.0143 0.0073 0.0147 0.0065 0.0151 0.0059 0.0155 0.005 0.0158 0.0044 0.0161 0.0035 0.0165 0.0027 0.0167 0.0019 0.017 0.001 0.0172 0.0002 0.0174 -0.0007 0.0174 -0.0016 0.0172 -0.0024 0.0169 -0.0032 0.0166 -0.0041 0.0164 -0.0048 0.0159 -0.0056 0.0157 -0.0063 0.0153 -0.007 0.0149 -0.0077 0.0145 -0.0084 0.014 -0.009 0.0136 -0.0096 0.0131 -0.0103 0.0127 -0.0108 0.0121 -0.0114 0.0116 -0.0119 0.011 -0.0125 0.0104 -0.013 0.0099 -0.0134 0.0092 -0.0139 0.0086 -0.0143 0.0079 -0.0147 0.0073 -0.0151 0.0065 -0.0155 0.0059 -0.0158 0.005 -0.0161 0.0044 -0.0165 0.0035 -0.0167 0.0027 -0.017 0.0019 -0.0172 0.001 -0.0174 0.0002zm0.3994 0.1592l-0.0962 -0.6704 -0.2905 0.3347 -0.0002 -0.0042 0.0001 0 0.0005 0.004 0.0012 0.0063 0.003 0.0115 0.0053 0.0154 0.0086 0.0189 0.0111 0.0194 0.0154 0.0211 0.018 0.0199 0.0194 0.0171 0.0221 0.0157 0.0184 0.0104 0.0178 0.008 0.015 0.0054 0.0115 0.0031 0.0068 0.0015 0.0037 0.0005 0.0019 0.0003 -0.0036 -0.0003 -0.005 -0.0002 -0.0061 -0.0001 -0.0107 0.0001 -0.0125 0.0002 -0.0132 0.0003 -0.0159 0.0005 -0.0175 0.0005 -0.0188 0.0005 -0.0201 0.0005 -0.0215 0.0003 -0.0235 0.0001 -0.0239 -0.0002 0.0106 -0.6772 0.0151 0.0002 0.0145 -0.0001 0.0157 -0.0003 0.0161 -0.0003 0.0164 -0.0005 0.0169 -0.0005 0.0173 -0.0005 0.019 -0.0005 0.0187 -0.0002 0.0195 -0.0001 0.0229 0.0003 0.023 0.001 0.0232 0.0015 0.0275 0.0029 0.0281 0.0043 0.03 0.0061 0.0335 0.0091 0.0358 0.0126 0.0372 0.0168 0.0366 0.0206 0.0389 0.0275 0.0348 0.0309 0.0322 0.0353 0.028 0.0387 0.0225 0.039 0.0184 0.0407 0.0137 0.0396 0.0098 0.0381 0.0066 0.0355 0.0045 0.036 0.0023 0.0346 0.0006 0.0334 -0.2905 0.3347zm-0.3867 -0.3357l0.6772 0.001 -0.0005 0.0174 -0.0013 0.0172 -0.0022 0.017 -0.003 0.0166 -0.0038 0.0164 -0.0045 0.0161 -0.0054 0.0157 -0.0061 0.0153 -0.0068 0.015 -0.0075 0.0146 -0.0081 0.0142 -0.0089 0.0137 -0.0094 0.0133 -0.0101 0.0127 -0.0107 0.0123 -0.0112 0.0117 -0.0118 0.0112 -0.0123 0.0107 -0.0128 0.01 -0.0133 0.0094 -0.0137 0.0088 -0.0142 0.0081 -0.0146 0.0075 -0.0151 0.0068 -0.0153 0.006 -0.0158 0.0053 -0.0161 0.0045 -0.0163 0.0038 -0.0167 0.003 -0.017 0.0021 -0.0172 0.0013 -0.0174 0.0004 -0.0174 -0.0005 -0.0172 -0.0013 -0.017 -0.0022 -0.0166 -0.003 -0.0164 -0.0038 -0.0161 -0.0045 -0.0157 -0.0054 -0.0153 -0.0061 -0.015 -0.0068 -0.0146 -0.0075 -0.0142 -0.0081 -0.0137 -0.0089 -0.0133 -0.0094 -0.0127 -0.0101 -0.0123 -0.0107 -0.0117 -0.0112 -0.0112 -0.0118 -0.0107 -0.0123 -0.01 -0.0128 -0.0094 -0.0133 -0.0088 -0.0137 -0.0081 -0.0142 -0.0075 -0.0146 -0.0068 -0.0151 -0.006 -0.0153 -0.0053 -0.0158 -0.0045 -0.0161 -0.0038 -0.0163 -0.003 -0.0167 -0.0021 -0.017 -0.0013 -0.0172 -0.0004 -0.0174zm-0.6315 -0.2023l0.922 -0.1324 0.0962 0.6704 -0.922 0.1324 -0.1043 -0.6691 0.0081 -0.0013zm0 0l0.0962 0.6704 -0.0173 0.002 -0.0172 0.0012 -0.0171 0.0002 -0.0169 -0.0005 -0.0168 -0.0015 -0.0165 -0.0022 -0.0164 -0.003 -0.0161 -0.0039 -0.0158 -0.0045 -0.0155 -0.0054 -0.0152 -0.006 -0.0148 -0.0068 -0.0145 -0.0074 -0.0141 -0.0082 -0.0137 -0.0088 -0.0132 -0.0094 -0.0128 -0.01 -0.0123 -0.0107 -0.0117 -0.0112 -0.0113 -0.0118 -0.0107 -0.0124 -0.01 -0.0129 -0.0095 -0.0133 -0.0089 -0.0139 -0.0081 -0.0144 -0.0075 -0.0148 -0.0068 -0.0153 -0.0061 -0.0156 -0.0053 -0.0161 -0.0046 -0.0165 -0.0037 -0.0168 -0.0029 -0.0172 -0.002 -0.0173 -0.0012 -0.0172 -0.0002 -0.0171 0.0005 -0.0169 0.0015 -0.0168 0.0022 -0.0165 0.003 -0.0164 0.0038 -0.0161 0.0046 -0.0158 0.0054 -0.0155 0.006 -0.0152 0.0068 -0.0148 0.0074 -0.0145 0.0082 -0.0141 0.0088 -0.0137 0.0094 -0.0132 0.01 -0.0128 0.0107 -0.0123 0.0112 -0.0117 0.0118 -0.0113 0.0124 -0.0107 0.0129 -0.01 0.0133 -0.0095 0.0139 -0.0089 0.0144 -0.0081 0.0148 -0.0075 0.0153 -0.0068 0.0156 -0.0061 0.0161 -0.0053 0.0165 -0.0046 0.0168 -0.0037 0.0172 -0.0029zm-3.8302 3.292l-0.55 -0.3952 0.0001 -0.0002 0.1002 -0.1369 0.1022 -0.1345 0.1041 -0.1322 0.1063 -0.1298 0.1082 -0.1273 0.1104 -0.1249 0.1128 -0.1223 0.1148 -0.1195 0.1171 -0.1169 0.1194 -0.114 0.1217 -0.1112 0.1243 -0.1082 0.1266 -0.1051 0.129 -0.102 0.1316 -0.0987 0.134 -0.0955 0.1367 -0.0922 0.1393 -0.0886 0.1418 -0.0852 0.1446 -0.0815 0.1472 -0.0778 0.1498 -0.0741 0.1526 -0.0702 0.1553 -0.0663 0.158 -0.0623 0.1608 -0.0582 0.1636 -0.0541 0.1664 -0.0498 0.169 -0.0456 0.1718 -0.0413 0.1749 -0.0368 0.1775 -0.0323 0.1124 0.6678 -0.1595 0.0291 -0.1563 0.033 -0.1536 0.0369 -0.151 0.0406 -0.1482 0.0444 -0.1454 0.0481 -0.1428 0.0518 -0.1404 0.0553 -0.1379 0.0589 -0.1356 0.0624 -0.1332 0.0657 -0.1308 0.0692 -0.1284 0.0725 -0.1264 0.0758 -0.1243 0.0792 -0.1221 0.0822 -0.12 0.0855 -0.118 0.0887 -0.1162 0.0918 -0.1142 0.0947 -0.1121 0.0976 -0.1103 0.1008 -0.1086 0.1036 -0.1067 0.1065 -0.105 0.1093 -0.1032 0.1121 -0.1014 0.1147 -0.1 0.1175 -0.0981 0.12 -0.0965 0.1226 -0.095 0.1251 -0.0934 0.1275 0.0001 -0.0002zm-0.5499 -0.3954l0.5498 0.3956 -0.0105 0.0139 -0.0111 0.0132 -0.0117 0.0125 -0.0121 0.0118 -0.0127 0.0111 -0.0131 0.0103 -0.0135 0.0097 -0.0139 0.0089 -0.0142 0.0083 -0.0146 0.0074 -0.015 0.0068 -0.0151 0.006 -0.0154 0.0053 -0.0157 0.0045 -0.0158 0.0037 -0.016 0.003 -0.0161 0.0023 -0.0162 0.0014 -0.0162 0.0007 -0.0163 -0.0001 -0.0163 -0.0009 -0.0163 -0.0016 -0.0162 -0.0025 -0.0162 -0.0032 -0.016 -0.0041 -0.0159 -0.0049 -0.0157 -0.0056 -0.0155 -0.0065 -0.0153 -0.0074 -0.015 -0.0081 -0.0147 -0.009 -0.0144 -0.0098 -0.0139 -0.0105 -0.0132 -0.0111 -0.0125 -0.0117 -0.0118 -0.0121 -0.0111 -0.0127 -0.0103 -0.0131 -0.0097 -0.0135 -0.0089 -0.0139 -0.0083 -0.0142 -0.0074 -0.0146 -0.0068 -0.015 -0.006 -0.0151 -0.0053 -0.0154 -0.0045 -0.0157 -0.0037 -0.0158 -0.003 -0.016 -0.0023 -0.0161 -0.0014 -0.0162 -0.0007 -0.0162 0.0001 -0.0163 0.0009 -0.0163 0.0016 -0.0163 0.0025 -0.0162 0.0032 -0.0162 0.0041 -0.016 0.0049 -0.0159 0.0056 -0.0157 0.0065 -0.0155 0.0074 -0.0153 0.0081 -0.015 0.009 -0.0147 0.0098 -0.0144zm-0.3728 0.482l0.6448 -0.2074 -0.2227 -0.2199 0.0036 0.001 0.0008 0.0002 -0.0014 -0.0002 -0.0033 -0.0005 -0.0051 -0.0002 -0.0082 -0.0001 -0.0084 0.0006 -0.0093 0.0012 -0.0126 0.0026 -0.013 0.0036 -0.0096 0.0035 -0.0102 0.0045 -0.0118 0.0062 -0.0082 0.0051 -0.006 0.0042 -0.006 0.0047 -0.0046 0.004 -0.0021 0.002 -0.0012 0.0012 -0.0007 0.0009 0.0006 -0.0008 0.0026 -0.0034 0.0032 -0.0043 0.0038 -0.0054 0.0043 -0.0063 0.0058 -0.0086 0.006 -0.0089 0.0058 -0.0088 0.0078 -0.0119 0.009 -0.0135 0.0092 -0.0132 0.0098 -0.0139 0.55 0.3952 -0.0044 0.0063 -0.0048 0.007 -0.0048 0.0071 -0.0058 0.0087 -0.0078 0.012 -0.0078 0.0115 -0.0078 0.0118 -0.0097 0.0139 -0.0102 0.0144 -0.0112 0.0151 -0.012 0.0156 -0.0144 0.0176 -0.0163 0.0187 -0.0172 0.018 -0.0187 0.0182 -0.022 0.0194 -0.024 0.0189 -0.0248 0.0174 -0.0278 0.0173 -0.0322 0.017 -0.0318 0.0139 -0.032 0.0117 -0.0366 0.0104 -0.0374 0.0076 -0.0353 0.0046 -0.0356 0.0024 -0.0368 -0.0001 -0.0351 -0.0022 -0.0349 -0.0043 -0.0344 -0.0062 -0.0338 -0.0078 -0.0326 -0.0094 -0.2227 -0.2199zm0.4221 -0.4273l-0.1994 0.6472 -0.0165 -0.0055 -0.0161 -0.0064 -0.0155 -0.007 -0.0151 -0.0078 -0.0145 -0.0084 -0.014 -0.0091 -0.0135 -0.0097 -0.0129 -0.0103 -0.0123 -0.0109 -0.0118 -0.0115 -0.0111 -0.0119 -0.0106 -0.0125 -0.0099 -0.0129 -0.0092 -0.0134 -0.0087 -0.0138 -0.0079 -0.0142 -0.0072 -0.0145 -0.0066 -0.0149 -0.0058 -0.0152 -0.0051 -0.0154 -0.0044 -0.0158 -0.0036 -0.0159 -0.0029 -0.0162 -0.002 -0.0163 -0.0013 -0.0165 -0.0005 -0.0166 0.0004 -0.0167 0.0012 -0.0168 0.0021 -0.0168 0.0029 -0.0168 0.0038 -0.0168 0.0047 -0.0168 0.0055 -0.0165 0.0064 -0.0161 0.007 -0.0155 0.0078 -0.0151 0.0084 -0.0145 0.0091 -0.014 0.0097 -0.0135 0.0103 -0.0129 0.0109 -0.0123 0.0115 -0.0118 0.0119 -0.0111 0.0125 -0.0106 0.0129 -0.0099 0.0134 -0.0092 0.0138 -0.0087 0.0142 -0.0079 0.0145 -0.0072 0.0149 -0.0066 0.0152 -0.0058 0.0154 -0.0051 0.0158 -0.0044 0.0159 -0.0036 0.0162 -0.0029 0.0163 -0.002 0.0165 -0.0013 0.0166 -0.0005 0.0167 0.0004 0.0168 0.0012 0.0168 0.0021 0.0168 0.0029 0.0168 0.0038 0.0168 0.0047zm0.9215 9.9338l0.311 -0.6016 0 -0.0001 0.0273 0.0141 0.0309 0.0155 0.0348 0.0172 0.0376 0.0183 0.0403 0.0194 0.0428 0.0204 0.0451 0.0212 0.047 0.0218 0.0489 0.0225 0.0503 0.0227 0.052 0.0233 0.0527 0.0233 0.0537 0.0233 0.0544 0.0234 0.0546 0.023 0.0548 0.0227 0.0547 0.0222 0.0546 0.0218 0.0539 0.021 0.0526 0.02 0.0519 0.019 0.0506 0.0181 0.0484 0.0167 0.0468 0.0153 0.0444 0.0138 0.0413 0.0121 0.0385 0.0104 0.0345 0.0084 0.0301 0.0064 0.0248 0.0044 0.018 0.0025 0.0104 0.0007 -0.0268 0.6768 -0.0532 -0.0039 -0.052 -0.0067 -0.0512 -0.009 -0.0515 -0.011 -0.0521 -0.0128 -0.0527 -0.0142 -0.0541 -0.0157 -0.0548 -0.0172 -0.0558 -0.0183 -0.057 -0.0195 -0.0574 -0.0205 -0.0581 -0.0214 -0.059 -0.0224 -0.0589 -0.023 -0.0588 -0.0234 -0.0593 -0.024 -0.0588 -0.0245 -0.0586 -0.0246 -0.0576 -0.0248 -0.0571 -0.0247 -0.0561 -0.0249 -0.0546 -0.0243 -0.0535 -0.0243 -0.0517 -0.0237 -0.05 -0.0232 -0.0479 -0.0226 -0.0456 -0.0216 -0.0435 -0.021 -0.0406 -0.0199 -0.0376 -0.0186 -0.0355 -0.0177 -0.0323 -0.0165 0 -0.0001zm0.311 -0.6017l-0.311 0.6018 -0.0153 -0.0084 -0.0146 -0.009 -0.0141 -0.0097 -0.0135 -0.0103 -0.0128 -0.0109 -0.0121 -0.0114 -0.0116 -0.012 -0.0109 -0.0124 -0.0102 -0.0129 -0.0095 -0.0134 -0.0089 -0.0138 -0.0081 -0.0141 -0.0075 -0.0145 -0.0067 -0.0148 -0.0061 -0.0151 -0.0053 -0.0153 -0.0045 -0.0156 -0.0038 -0.0158 -0.0031 -0.016 -0.0023 -0.0162 -0.0015 -0.0162 -0.0008 -0.0163 0.0001 -0.0165 0.0009 -0.0164 0.0016 -0.0164 0.0025 -0.0165 0.0033 -0.0163 0.0042 -0.0163 0.005 -0.0162 0.0059 -0.016 0.0067 -0.0159 0.0076 -0.0157 0.0084 -0.0153 0.009 -0.0146 0.0097 -0.0141 0.0103 -0.0135 0.0109 -0.0128 0.0114 -0.0122 0.012 -0.0115 0.0125 -0.0109 0.0129 -0.0102 0.0133 -0.0095 0.0138 -0.0089 0.0141 -0.0082 0.0145 -0.0074 0.0148 -0.0068 0.0151 -0.006 0.0154 -0.0053 0.0156 -0.0046 0.0158 -0.0038 0.016 -0.0031 0.0161 -0.0023 0.0163 -0.0015 0.0163 -0.0007 0.0164 0 0.0165 0.0009 0.0164 0.0016 0.0165 0.0025 0.0163 0.0033 0.0163 0.0042 0.0162 0.005 0.016 0.0059 0.0159 0.0067 0.0157 0.0076zm-3.3203 -9.9292l0.5836 0.3438 0 0 -0.1778 0.3216 -0.1582 0.3269 -0.1388 0.3316 -0.1198 0.3357 -0.101 0.339 -0.0826 0.3419 -0.0642 0.3439 -0.0462 0.3454 -0.0285 0.3461 -0.011 0.3462 0.0063 0.3455 0.0234 0.3442 0.0401 0.3423 0.0566 0.3394 0.0729 0.3361 0.0889 0.3319 0.1047 0.3269 0.12 0.3215 0.1354 0.315 0.1501 0.3082 0.1649 0.3003 0.1792 0.2919 0.1934 0.2828 0.2072 0.2729 0.2206 0.2625 0.2339 0.2511 0.2469 0.2394 0.2597 0.2268 0.272 0.2137 0.2843 0.1995 0.2962 0.1853 0.3081 0.17 -0.311 0.6016 -0.3403 -0.1878 -0.3272 -0.2045 -0.3139 -0.2205 -0.3002 -0.2357 -0.2863 -0.25 -0.2719 -0.2636 -0.2575 -0.2765 -0.2426 -0.2885 -0.2274 -0.2997 -0.2122 -0.3104 -0.1966 -0.3201 -0.1807 -0.3291 -0.1645 -0.3374 -0.1482 -0.345 -0.1314 -0.3519 -0.1145 -0.3579 -0.0973 -0.3633 -0.0799 -0.3679 -0.062 -0.372 -0.0439 -0.3749 -0.0256 -0.3776 -0.0069 -0.3791 0.012 -0.3802 0.0313 -0.3803 0.0508 -0.3798 0.0708 -0.3785 0.0908 -0.3763 0.1112 -0.3734 0.132 -0.3699 0.153 -0.3652 0.1742 -0.3601 0.1956 -0.3538 0 0zm0.5836 0.3438l-0.5836 -0.3438 0.0092 -0.0148 0.0099 -0.0141 0.0104 -0.0135 0.0111 -0.0129 0.0115 -0.0122 0.0121 -0.0115 0.0126 -0.0109 0.013 -0.0101 0.0135 -0.0095 0.0139 -0.0088 0.0142 -0.0081 0.0145 -0.0074 0.0149 -0.0066 0.0152 -0.0059 0.0154 -0.0052 0.0156 -0.0045 0.0159 -0.0036 0.0159 -0.003 0.0162 -0.0021 0.0162 -0.0014 0.0163 -0.0007 0.0164 0.0002 0.0164 0.001 0.0163 0.0017 0.0164 0.0026 0.0162 0.0034 0.0162 0.0042 0.016 0.0051 0.0159 0.0059 0.0157 0.0067 0.0155 0.0076 0.0152 0.0085 0.0148 0.0092 0.0141 0.0099 0.0135 0.0104 0.0129 0.0111 0.0122 0.0115 0.0115 0.0121 0.0109 0.0126 0.0101 0.013 0.0095 0.0135 0.0088 0.0139 0.0081 0.0142 0.0074 0.0145 0.0066 0.0149 0.0059 0.0152 0.0052 0.0154 0.0044 0.0156 0.0037 0.0159 0.003 0.0159 0.0021 0.0162 0.0014 0.0162 0.0007 0.0163 -0.0002 0.0164 -0.001 0.0164 -0.0017 0.0163 -0.0026 0.0164 -0.0034 0.0162 -0.0042 0.0162 -0.0051 0.016 -0.0059 0.0159 -0.0067 0.0157 -0.0076 0.0155 -0.0085 0.0152zm10.0366 -2.9953l-0.3542 0.5772 -0.0001 0 -0.3224 -0.187 -0.3269 -0.1679 -0.3307 -0.1494 -0.3339 -0.1309 -0.3367 -0.1127 -0.3388 -0.0945 -0.3405 -0.0768 -0.3416 -0.0591 -0.342 -0.0417 -0.3419 -0.0244 -0.3413 -0.0074 -0.3401 0.0096 -0.3383 0.0262 -0.3359 0.0428 -0.3328 0.0591 -0.3295 0.0753 -0.3251 0.0913 -0.3206 0.1071 -0.3152 0.1227 -0.3093 0.1381 -0.3027 0.1534 -0.2958 0.1684 -0.288 0.1834 -0.2798 0.1982 -0.271 0.2126 -0.2617 0.227 -0.2515 0.2412 -0.2412 0.2552 -0.2299 0.2691 -0.2182 0.2829 -0.2059 0.2964 -0.1931 0.3099 -0.5836 -0.3438 0.2109 -0.3385 0.2253 -0.3242 0.2388 -0.3095 0.2519 -0.2949 0.2642 -0.2798 0.2759 -0.2644 0.2869 -0.249 0.2972 -0.2332 0.307 -0.2174 0.3162 -0.2012 0.3246 -0.185 0.3323 -0.1682 0.3395 -0.1517 0.346 -0.1347 0.3518 -0.1175 0.3571 -0.1003 0.3617 -0.0827 0.3656 -0.0649 0.3689 -0.047 0.3717 -0.0288 0.3735 -0.0104 0.3749 0.008 0.3757 0.0268 0.3756 0.0459 0.375 0.0649 0.3739 0.0842 0.3718 0.1039 0.3693 0.1235 0.3659 0.1435 0.3619 0.1634 0.3573 0.1837 0.352 0.204 -0.0001 0zm-0.3543 0.5772l0.3544 -0.5772 0.0146 0.0095 0.014 0.0101 0.0133 0.0107 0.0126 0.0113 0.012 0.0118 0.0113 0.0123 0.0106 0.0127 0.01 0.0132 0.0092 0.0137 0.0085 0.014 0.0078 0.0144 0.0071 0.0147 0.0064 0.015 0.0057 0.0152 0.0049 0.0155 0.0041 0.0157 0.0034 0.0159 0.0027 0.0161 0.0018 0.0161 0.0011 0.0163 0.0004 0.0163 -0.0005 0.0164 -0.0013 0.0163 -0.002 0.0164 -0.0029 0.0162 -0.0037 0.0162 -0.0045 0.0161 -0.0054 0.016 -0.0062 0.0157 -0.007 0.0156 -0.0079 0.0153 -0.0087 0.0151 -0.0095 0.0146 -0.0101 0.014 -0.0107 0.0133 -0.0113 0.0126 -0.0118 0.012 -0.0123 0.0113 -0.0127 0.0106 -0.0132 0.01 -0.0137 0.0092 -0.014 0.0085 -0.0144 0.0078 -0.0147 0.0071 -0.015 0.0064 -0.0152 0.0057 -0.0155 0.0049 -0.0157 0.0041 -0.0159 0.0034 -0.0161 0.0027 -0.0161 0.0018 -0.0163 0.0011 -0.0163 0.0004 -0.0164 -0.0005 -0.0163 -0.0013 -0.0164 -0.002 -0.0162 -0.0029 -0.0162 -0.0037 -0.0161 -0.0045 -0.016 -0.0054 -0.0157 -0.0062 -0.0156 -0.007 -0.0153 -0.0079 -0.0151 -0.0087zm1.1485 0.9139l0.3982 -0.5478 -0.489 0.449 0.0002 0.0005 -0.0057 -0.0075 -0.011 -0.0129 -0.016 -0.0177 -0.0199 -0.0205 -0.0237 -0.0232 -0.0267 -0.0251 -0.0296 -0.0269 -0.0326 -0.0287 -0.0346 -0.0297 -0.0363 -0.0304 -0.0384 -0.0314 -0.0399 -0.0322 -0.0411 -0.0325 -0.042 -0.0327 -0.0427 -0.0328 -0.0435 -0.0329 -0.0441 -0.033 -0.0439 -0.0325 -0.0438 -0.032 -0.0437 -0.0315 -0.0431 -0.0307 -0.0425 -0.03 -0.0414 -0.029 -0.0406 -0.028 -0.0389 -0.0266 -0.0374 -0.0251 -0.0358 -0.0238 -0.0336 -0.0221 -0.0311 -0.0201 -0.0286 -0.0181 -0.0256 -0.016 0.3542 -0.5772 0.0316 0.0196 0.0336 0.0213 0.0357 0.0231 0.0374 0.0245 0.039 0.026 0.0408 0.0275 0.0421 0.0288 0.0432 0.0298 0.0446 0.031 0.0453 0.032 0.0461 0.0329 0.0465 0.0337 0.047 0.0342 0.0471 0.0349 0.0469 0.035 0.0469 0.0355 0.0467 0.0358 0.046 0.0359 0.0453 0.0359 0.0443 0.0356 0.0434 0.0356 0.0425 0.0356 0.0408 0.0351 0.0392 0.0345 0.0382 0.0345 0.0363 0.0343 0.0347 0.034 0.0331 0.0343 0.0314 0.0343 0.0302 0.0359 0.0291 0.0383 0.0282 0.0427 -0.489 0.449zm-0.0908 -0.0988l0.5798 -0.3502 0.0086 0.0151 0.0078 0.0154 0.0069 0.0157 0.0061 0.0158 0.0052 0.016 0.0044 0.0161 0.0036 0.0162 0.0028 0.0163 0.0019 0.0163 0.0012 0.0164 0.0003 0.0164 -0.0004 0.0163 -0.0012 0.0162 -0.002 0.0162 -0.0028 0.016 -0.0035 0.0159 -0.0043 0.0157 -0.005 0.0154 -0.0057 0.0152 -0.0065 0.015 -0.0072 0.0146 -0.008 0.0143 -0.0086 0.014 -0.0093 0.0136 -0.0101 0.0131 -0.0107 0.0127 -0.0114 0.0122 -0.012 0.0117 -0.0128 0.0112 -0.0134 0.0106 -0.014 0.01 -0.0147 0.0094 -0.0151 0.0086 -0.0154 0.0078 -0.0157 0.0069 -0.0158 0.0061 -0.016 0.0052 -0.0161 0.0044 -0.0162 0.0036 -0.0163 0.0028 -0.0163 0.0019 -0.0164 0.0012 -0.0164 0.0003 -0.0163 -0.0004 -0.0162 -0.0012 -0.0162 -0.002 -0.016 -0.0028 -0.0159 -0.0035 -0.0157 -0.0043 -0.0154 -0.005 -0.0152 -0.0057 -0.015 -0.0065 -0.0146 -0.0072 -0.0143 -0.008 -0.014 -0.0086 -0.0136 -0.0093 -0.0131 -0.0101 -0.0127 -0.0107 -0.0122 -0.0114 -0.0117 -0.012 -0.0112 -0.0128 -0.0106 -0.0134 -0.01 -0.014 -0.0094 -0.0147zm-1.0932 -0.6827l0.3204 -0.5968 0 0.0001 0.0519 0.028 0.0501 0.0274 0.048 0.0267 0.0468 0.0262 0.0449 0.0258 0.0435 0.0251 0.0425 0.0251 0.0409 0.0245 0.0397 0.0241 0.039 0.0241 0.0381 0.024 0.037 0.0236 0.0366 0.0237 0.036 0.0238 0.0351 0.0235 0.0351 0.0237 0.0347 0.0239 0.0343 0.0239 0.0344 0.0242 0.0344 0.0245 0.0343 0.0245 0.0349 0.0251 0.0355 0.0258 0.0352 0.0258 0.0361 0.0263 0.0375 0.0275 0.0377 0.0278 0.039 0.0285 0.0402 0.0296 0.0412 0.0301 0.0427 0.0312 0.0445 0.0324 -0.3982 0.5478 -0.0451 -0.0328 -0.0437 -0.0318 -0.042 -0.0309 -0.0404 -0.0296 -0.039 -0.0287 -0.0379 -0.0278 -0.0361 -0.0265 -0.0359 -0.0261 -0.035 -0.0256 -0.0333 -0.0242 -0.0329 -0.0237 -0.0327 -0.0235 -0.032 -0.0227 -0.0316 -0.0222 -0.0315 -0.0219 -0.0313 -0.0215 -0.0313 -0.0213 -0.0319 -0.0213 -0.0318 -0.021 -0.0322 -0.0209 -0.0332 -0.0212 -0.0337 -0.0212 -0.0346 -0.0213 -0.0359 -0.0219 -0.0369 -0.0221 -0.0379 -0.0223 -0.0399 -0.0231 -0.0413 -0.0236 -0.0426 -0.024 -0.045 -0.0249 -0.0467 -0.0256 -0.0487 -0.0264 0 0.0001zm0.3204 -0.5967l-0.3204 0.5966 -0.0151 -0.0086 -0.0146 -0.0093 -0.0139 -0.0099 -0.0132 -0.0105 -0.0127 -0.0111 -0.012 -0.0116 -0.0113 -0.0122 -0.0107 -0.0126 -0.01 -0.013 -0.0093 -0.0135 -0.0086 -0.0139 -0.008 -0.0143 -0.0072 -0.0146 -0.0065 -0.0149 -0.0058 -0.0152 -0.0051 -0.0154 -0.0043 -0.0157 -0.0035 -0.0159 -0.0028 -0.016 -0.0021 -0.0162 -0.0012 -0.0162 -0.0005 -0.0164 0.0003 -0.0164 0.0011 -0.0164 0.002 -0.0164 0.0027 -0.0164 0.0036 -0.0163 0.0044 -0.0162 0.0053 -0.0161 0.0061 -0.016 0.007 -0.0157 0.0078 -0.0156 0.0086 -0.0151 0.0093 -0.0146 0.0099 -0.0139 0.0105 -0.0132 0.0111 -0.0127 0.0116 -0.012 0.0122 -0.0113 0.0126 -0.0107 0.013 -0.01 0.0135 -0.0093 0.0139 -0.0086 0.0143 -0.008 0.0146 -0.0072 0.0149 -0.0065 0.0152 -0.0058 0.0154 -0.0051 0.0157 -0.0043 0.0159 -0.0035 0.016 -0.0028 0.0162 -0.0021 0.0162 -0.0012 0.0164 -0.0005 0.0164 0.0003 0.0164 0.0011 0.0164 0.002 0.0164 0.0027 0.0163 0.0036 0.0162 0.0044 0.0161 0.0053 0.016 0.0061 0.0157 0.007 0.0156 0.0078zm-7.7212 1.1987l-0.4134 -0.5364 0 0 0.2197 -0.163 0.2246 -0.1542 0.2292 -0.1453 0.2335 -0.1364 0.2377 -0.1275 0.2415 -0.1185 0.2451 -0.1094 0.2482 -0.1004 0.2514 -0.0915 0.2541 -0.0822 0.2566 -0.0731 0.2587 -0.0639 0.2607 -0.0547 0.2625 -0.0455 0.2638 -0.0362 0.265 -0.0269 0.2659 -0.0174 0.2665 -0.0082 0.2669 0.0012 0.267 0.0108 0.2669 0.0202 0.2665 0.0299 0.2658 0.0392 0.2648 0.0491 0.2636 0.0585 0.2621 0.0683 0.2603 0.078 0.2584 0.0877 0.256 0.0975 0.2535 0.1074 0.2506 0.1171 0.2475 0.127 -0.3204 0.5968 -0.2253 -0.1156 -0.228 -0.1067 -0.2305 -0.0976 -0.2328 -0.0887 -0.235 -0.0797 -0.2369 -0.071 -0.2383 -0.0621 -0.2398 -0.0533 -0.241 -0.0445 -0.2418 -0.0358 -0.2425 -0.0271 -0.2429 -0.0184 -0.243 -0.0098 -0.2429 -0.0012 -0.2427 0.0074 -0.2421 0.016 -0.2412 0.0245 -0.2402 0.0328 -0.2389 0.0415 -0.2373 0.0497 -0.2355 0.0583 -0.2336 0.0665 -0.2311 0.0748 -0.2286 0.0831 -0.2258 0.0914 -0.2229 0.0996 -0.2195 0.1077 -0.2161 0.1159 -0.2123 0.124 -0.2084 0.1321 -0.2042 0.14 -0.1997 0.1482 0 0zm-0.4134 -0.5364l0.4134 0.5364 -0.0141 0.0103 -0.0144 0.0094 -0.0147 0.0087 -0.015 0.0078 -0.0153 0.007 -0.0155 0.0062 -0.0158 0.0054 -0.0158 0.0046 -0.0161 0.0037 -0.0161 0.003 -0.0162 0.0022 -0.0163 0.0014 -0.0162 0.0007 -0.0163 -0.0002 -0.0162 -0.0009 -0.0162 -0.0017 -0.0161 -0.0025 -0.0159 -0.0032 -0.0158 -0.004 -0.0155 -0.0048 -0.0154 -0.0055 -0.0151 -0.0062 -0.0149 -0.007 -0.0145 -0.0078 -0.0142 -0.0084 -0.0138 -0.0093 -0.0134 -0.0099 -0.013 -0.0107 -0.0125 -0.0113 -0.0121 -0.0121 -0.0115 -0.0129 -0.011 -0.0135 -0.0103 -0.0141 -0.0094 -0.0144 -0.0087 -0.0147 -0.0078 -0.015 -0.007 -0.0153 -0.0062 -0.0155 -0.0054 -0.0158 -0.0046 -0.0158 -0.0037 -0.0161 -0.003 -0.0161 -0.0022 -0.0162 -0.0014 -0.0163 -0.0007 -0.0162 0.0002 -0.0163 0.0009 -0.0162 0.0017 -0.0162 0.0025 -0.0161 0.0032 -0.0159 0.004 -0.0158 0.0048 -0.0155 0.0055 -0.0154 0.0062 -0.0151 0.007 -0.0149 0.0078 -0.0145 0.0084 -0.0142 0.0093 -0.0138 0.0099 -0.0134 0.0107 -0.013 0.0113 -0.0125 0.0121 -0.0121 0.0129 -0.0115 0.0135 -0.011zm-0.5706 1.474l-0.5142 -0.4408 0 0 0.0284 -0.033 0.0295 -0.0336 0.0297 -0.0333 0.03 -0.0333 0.0307 -0.0337 0.0312 -0.0338 0.0319 -0.034 0.032 -0.0338 0.0328 -0.0341 0.0329 -0.0338 0.0332 -0.0339 0.0337 -0.034 0.0341 -0.0338 0.0342 -0.0336 0.0345 -0.0335 0.0349 -0.0336 0.0351 -0.0333 0.0351 -0.0329 0.0354 -0.033 0.0355 -0.0324 0.0355 -0.0323 0.0361 -0.0323 0.0357 -0.0316 0.0357 -0.0312 0.0362 -0.0312 0.0361 -0.0306 0.0358 -0.03 0.0359 -0.0298 0.0358 -0.0291 0.0359 -0.0289 0.0357 -0.0282 0.0356 -0.0276 0.4134 0.5364 -0.0312 0.0244 -0.0315 0.0248 -0.0317 0.0255 -0.0322 0.0263 -0.0323 0.0266 -0.0324 0.0272 -0.0325 0.0276 -0.0324 0.028 -0.0327 0.0286 -0.0329 0.029 -0.0325 0.0291 -0.0327 0.0297 -0.0327 0.03 -0.0324 0.03 -0.0325 0.0305 -0.0321 0.0305 -0.0319 0.0306 -0.0319 0.0311 -0.0316 0.031 -0.0311 0.031 -0.0309 0.031 -0.0306 0.0311 -0.0303 0.0312 -0.0296 0.0309 -0.0294 0.031 -0.0287 0.0306 -0.0282 0.0306 -0.0279 0.0305 -0.0274 0.0305 -0.0267 0.0299 -0.0257 0.0294 -0.0254 0.0294 0 0zm-0.5142 -0.4408l0.5142 0.4408 -0.0117 0.0129 -0.0122 0.0122 -0.0126 0.0115 -0.0131 0.0107 -0.0136 0.01 -0.0139 0.0092 -0.0143 0.0085 -0.0146 0.0077 -0.0149 0.007 -0.0152 0.0062 -0.0154 0.0055 -0.0157 0.0047 -0.0158 0.0039 -0.0159 0.0032 -0.0161 0.0024 -0.0162 0.0016 -0.0162 0.0009 -0.0163 0 -0.0162 -0.0006 -0.0162 -0.0015 -0.0162 -0.0023 -0.0161 -0.003 -0.0159 -0.0038 -0.0158 -0.0046 -0.0157 -0.0054 -0.0154 -0.0062 -0.0151 -0.007 -0.0149 -0.0078 -0.0146 -0.0086 -0.0143 -0.0094 -0.0139 -0.0102 -0.0135 -0.011 -0.0129 -0.0117 -0.0122 -0.0122 -0.0115 -0.0126 -0.0107 -0.0131 -0.01 -0.0136 -0.0092 -0.0139 -0.0085 -0.0143 -0.0077 -0.0146 -0.007 -0.0149 -0.0062 -0.0152 -0.0055 -0.0154 -0.0047 -0.0157 -0.0039 -0.0158 -0.0032 -0.0159 -0.0024 -0.0161 -0.0016 -0.0162 -0.0009 -0.0162 0 -0.0163 0.0006 -0.0162 0.0015 -0.0162 0.0023 -0.0162 0.003 -0.0161 0.0038 -0.0159 0.0046 -0.0158 0.0054 -0.0157 0.0062 -0.0154 0.007 -0.0151 0.0078 -0.0149 0.0086 -0.0146 0.0094 -0.0143 0.0102 -0.0139 0.011 -0.0135zm-0.2723 1.5566l-0.5828 -0.345 0 0 0.0269 -0.0453 0.0267 -0.0447 0.0265 -0.0436 0.0259 -0.0427 0.026 -0.0424 0.0257 -0.0414 0.0256 -0.0409 0.0256 -0.0402 0.0251 -0.0392 0.0255 -0.0394 0.0255 -0.0388 0.0251 -0.0377 0.0251 -0.0374 0.0254 -0.0374 0.0256 -0.0369 0.0254 -0.0364 0.0255 -0.0361 0.026 -0.0362 0.0261 -0.0357 0.0259 -0.0352 0.0265 -0.0354 0.0265 -0.035 0.027 -0.0352 0.0277 -0.0356 0.0276 -0.0349 0.0277 -0.0348 0.0285 -0.0354 0.0289 -0.0352 0.0289 -0.035 0.0298 -0.0358 0.0303 -0.0358 0.0306 -0.0359 0.5142 0.4408 -0.0286 0.0335 -0.0279 0.033 -0.0272 0.0326 -0.0271 0.0328 -0.0263 0.0322 -0.0257 0.0318 -0.0257 0.0322 -0.0252 0.0319 -0.0243 0.0312 -0.0242 0.0318 -0.0243 0.032 -0.0237 0.0318 -0.0239 0.0324 -0.0235 0.0321 -0.023 0.0322 -0.0233 0.0327 -0.0232 0.0332 -0.023 0.0333 -0.0228 0.0336 -0.0233 0.0346 -0.0233 0.0351 -0.0231 0.035 -0.0231 0.0358 -0.0237 0.037 -0.0236 0.0372 -0.0238 0.0381 -0.0243 0.039 -0.0242 0.0394 -0.0249 0.0409 -0.0251 0.0416 -0.0253 0.0423 -0.0259 0.0435 0 0zm-0.5828 -0.345l0.5828 0.345 -0.0093 0.0148 -0.0098 0.0141 -0.0105 0.0135 -0.0111 0.0128 -0.0116 0.0122 -0.0121 0.0115 -0.0126 0.0108 -0.013 0.0101 -0.0135 0.0095 -0.0139 0.0087 -0.0142 0.0081 -0.0146 0.0073 -0.0149 0.0066 -0.0152 0.0059 -0.0154 0.0052 -0.0156 0.0044 -0.0158 0.0036 -0.016 0.0029 -0.0162 0.0022 -0.0162 0.0013 -0.0163 0.0006 -0.0164 -0.0002 -0.0164 -0.001 -0.0163 -0.0018 -0.0163 -0.0026 -0.0163 -0.0034 -0.0162 -0.0043 -0.016 -0.0051 -0.0158 -0.0059 -0.0157 -0.0068 -0.0155 -0.0076 -0.0152 -0.0085 -0.0148 -0.0093 -0.0141 -0.0098 -0.0135 -0.0105 -0.0128 -0.0111 -0.0122 -0.0116 -0.0115 -0.0121 -0.0108 -0.0126 -0.0101 -0.013 -0.0095 -0.0135 -0.0087 -0.0139 -0.0081 -0.0142 -0.0073 -0.0146 -0.0066 -0.0149 -0.0059 -0.0152 -0.0052 -0.0154 -0.0044 -0.0156 -0.0036 -0.0158 -0.0029 -0.016 -0.0022 -0.0162 -0.0013 -0.0162 -0.0006 -0.0163 0.0002 -0.0164 0.001 -0.0164 0.0018 -0.0163 0.0026 -0.0163 0.0034 -0.0163 0.0043 -0.0162 0.0051 -0.016 0.0059 -0.0158 0.0068 -0.0157 0.0076 -0.0155 0.0085 -0.0152zm-0.2876 3.3151l-0.6758 -0.0444 0 0 0.0082 -0.1131 0.0098 -0.1127 0.0114 -0.1127 0.0131 -0.1121 0.0145 -0.1115 0.016 -0.1112 0.0175 -0.1107 0.019 -0.1102 0.0204 -0.1094 0.0218 -0.1088 0.0233 -0.1084 0.0248 -0.1076 0.0261 -0.1067 0.0275 -0.1059 0.0287 -0.1052 0.0303 -0.1045 0.0314 -0.1033 0.0328 -0.1024 0.034 -0.1015 0.0353 -0.1004 0.0365 -0.0994 0.0378 -0.0985 0.0392 -0.0973 0.0401 -0.0958 0.0414 -0.0949 0.0427 -0.0935 0.0437 -0.0923 0.045 -0.091 0.0461 -0.0895 0.0472 -0.0882 0.0483 -0.0866 0.0495 -0.0854 0.5828 0.345 -0.0435 0.075 -0.0427 0.0768 -0.042 0.0782 -0.0409 0.0797 -0.0402 0.0812 -0.0391 0.0825 -0.0383 0.0841 -0.0372 0.0853 -0.0365 0.0868 -0.0352 0.0877 -0.0342 0.0889 -0.0331 0.0902 -0.0321 0.0914 -0.031 0.0923 -0.0298 0.0934 -0.0288 0.0943 -0.0275 0.0951 -0.0263 0.096 -0.0251 0.0971 -0.0239 0.0977 -0.0226 0.0984 -0.0213 0.099 -0.02 0.0998 -0.0188 0.1004 -0.0174 0.101 -0.0161 0.1013 -0.0146 0.1018 -0.0133 0.1025 -0.0119 0.1025 -0.0104 0.1029 -0.009 0.1033 -0.0076 0.1035 0 0zm-0.6758 -0.0444l0.6758 0.0444 -0.0016 0.0174 -0.0024 0.017 -0.0033 0.0168 -0.004 0.0164 -0.0049 0.0161 -0.0056 0.0158 -0.0063 0.0153 -0.0071 0.015 -0.0077 0.0145 -0.0084 0.0141 -0.0091 0.0136 -0.0097 0.0131 -0.0103 0.0126 -0.0109 0.0121 -0.0114 0.0116 -0.012 0.011 -0.0124 0.0104 -0.013 0.0098 -0.0134 0.0092 -0.0139 0.0086 -0.0143 0.0079 -0.0147 0.0072 -0.015 0.0065 -0.0154 0.0058 -0.0158 0.005 -0.016 0.0043 -0.0164 0.0035 -0.0166 0.0027 -0.0168 0.0019 -0.017 0.001 -0.0173 0.0002 -0.0174 -0.0007 -0.0174 -0.0016 -0.017 -0.0024 -0.0168 -0.0033 -0.0164 -0.004 -0.0161 -0.0049 -0.0158 -0.0056 -0.0153 -0.0063 -0.015 -0.0071 -0.0145 -0.0077 -0.0141 -0.0084 -0.0136 -0.0091 -0.0131 -0.0097 -0.0126 -0.0103 -0.0121 -0.0109 -0.0116 -0.0114 -0.011 -0.0119 -0.0104 -0.0125 -0.0098 -0.013 -0.0092 -0.0134 -0.0086 -0.0139 -0.0079 -0.0143 -0.0072 -0.0147 -0.0065 -0.015 -0.0058 -0.0154 -0.005 -0.0158 -0.0043 -0.016 -0.0035 -0.0164 -0.0027 -0.0166 -0.0019 -0.0168 -0.001 -0.017 -0.0002 -0.0173 0.0007 -0.0174zm2.0015 4.46l-0.5532 0.3908 0.0001 0.0001 -0.0888 -0.128 -0.0867 -0.1297 -0.0845 -0.1315 -0.0822 -0.1333 -0.0799 -0.135 -0.0775 -0.1367 -0.0751 -0.1383 -0.0725 -0.1399 -0.07 -0.1416 -0.0673 -0.1432 -0.0645 -0.1447 -0.0618 -0.1463 -0.0589 -0.1477 -0.0559 -0.1493 -0.0529 -0.1508 -0.0498 -0.152 -0.0467 -0.1534 -0.0435 -0.155 -0.0402 -0.1564 -0.0367 -0.1574 -0.0334 -0.1589 -0.0298 -0.1601 -0.0262 -0.1612 -0.0227 -0.1626 -0.0188 -0.1636 -0.0152 -0.1646 -0.0112 -0.1659 -0.0073 -0.1669 -0.0032 -0.1678 0.0007 -0.1688 0.0049 -0.1698 0.0092 -0.1705 0.6758 0.0444 -0.0082 0.1541 -0.0045 0.1532 -0.0007 0.1524 0.003 0.1516 0.0065 0.1505 0.0102 0.1497 0.0136 0.1488 0.017 0.1478 0.0205 0.1468 0.0238 0.146 0.027 0.1449 0.0302 0.1439 0.0333 0.1428 0.0364 0.1418 0.0395 0.1406 0.0425 0.1396 0.0454 0.1386 0.0481 0.1372 0.0511 0.1361 0.0537 0.1349 0.0564 0.1337 0.0591 0.1323 0.0617 0.1312 0.064 0.1296 0.0667 0.1285 0.0689 0.1271 0.0713 0.1257 0.0735 0.1242 0.0758 0.1227 0.0779 0.1213 0.0799 0.1197 0.082 0.1182 0.0001 0.0001zm-0.5531 0.3909l0.553 -0.391 0.0097 0.0145 0.0088 0.0148 0.0081 0.0151 0.0072 0.0153 0.0063 0.0156 0.0056 0.0157 0.0047 0.0159 0.0039 0.0161 0.0032 0.0162 0.0023 0.0162 0.0015 0.0163 0.0008 0.0163 -0.0001 0.0163 -0.0008 0.0162 -0.0016 0.0162 -0.0024 0.0161 -0.0031 0.0159 -0.0039 0.0158 -0.0046 0.0156 -0.0054 0.0154 -0.0061 0.0151 -0.0069 0.0149 -0.0076 0.0145 -0.0084 0.0142 -0.009 0.0138 -0.0098 0.0135 -0.0105 0.013 -0.0112 0.0125 -0.0118 0.0121 -0.0126 0.0115 -0.0133 0.011 -0.014 0.0104 -0.0145 0.0097 -0.0148 0.0088 -0.0151 0.0081 -0.0153 0.0072 -0.0156 0.0063 -0.0157 0.0056 -0.0159 0.0047 -0.0161 0.0039 -0.0162 0.0032 -0.0162 0.0023 -0.0163 0.0015 -0.0163 0.0008 -0.0163 -0.0001 -0.0162 -0.0008 -0.0162 -0.0016 -0.0161 -0.0024 -0.0159 -0.0031 -0.0158 -0.0039 -0.0156 -0.0046 -0.0154 -0.0054 -0.0151 -0.0061 -0.0149 -0.0069 -0.0145 -0.0076 -0.0142 -0.0083 -0.0138 -0.0091 -0.0135 -0.0098 -0.013 -0.0105 -0.0125 -0.0112 -0.0121 -0.0118 -0.0115 -0.0126 -0.011 -0.0133 -0.0104 -0.014zm1.4398 0.5901l-0.441 0.514 0 0 -0.0294 -0.0255 -0.0303 -0.0269 -0.0304 -0.0277 -0.0307 -0.0285 -0.0315 -0.0296 -0.032 -0.0307 -0.032 -0.0313 -0.0324 -0.032 -0.033 -0.0331 -0.033 -0.0337 -0.0332 -0.0341 -0.0331 -0.0346 -0.0334 -0.0352 -0.0338 -0.0361 -0.0334 -0.0362 -0.0334 -0.0366 -0.0335 -0.0371 -0.033 -0.037 -0.0329 -0.0374 -0.0327 -0.0375 -0.0324 -0.0377 -0.0321 -0.0378 -0.0312 -0.0374 -0.0312 -0.0376 -0.0305 -0.0375 -0.0299 -0.0372 -0.0295 -0.0375 -0.0285 -0.0367 -0.0278 -0.0365 -0.027 -0.0361 -0.0263 -0.0358 -0.0254 -0.0356 0.5532 -0.3908 0.0208 0.029 0.0221 0.0302 0.0232 0.0311 0.0242 0.0317 0.0251 0.0325 0.0257 0.0325 0.0269 0.0334 0.0273 0.0337 0.028 0.0338 0.029 0.0346 0.0289 0.0342 0.0296 0.0343 0.0299 0.0345 0.0303 0.0342 0.0306 0.0344 0.0305 0.0339 0.0308 0.0336 0.0308 0.0334 0.0304 0.0325 0.0308 0.0324 0.0307 0.032 0.0302 0.0313 0.0298 0.0303 0.0292 0.0293 0.0292 0.0288 0.0286 0.0279 0.0276 0.0265 0.0271 0.0256 0.0265 0.0245 0.0254 0.0231 0.0241 0.0215 0.0234 0.0203 0 0zm-0.441 0.514l0.441 -0.514 0.0129 0.0117 0.0122 0.0122 0.0115 0.0126 0.0107 0.0131 0.01 0.0136 0.0092 0.0139 0.0085 0.0143 0.0077 0.0146 0.0069 0.0149 0.0063 0.0152 0.0054 0.0154 0.0047 0.0157 0.0039 0.0158 0.0032 0.0159 0.0024 0.0161 0.0016 0.0162 0.0009 0.0162 0 0.0163 -0.0007 0.0162 -0.0015 0.0162 -0.0022 0.0162 -0.0031 0.0161 -0.0038 0.0159 -0.0046 0.0158 -0.0054 0.0157 -0.0062 0.0154 -0.007 0.0151 -0.0078 0.0149 -0.0086 0.0146 -0.0094 0.0143 -0.0102 0.0139 -0.011 0.0135 -0.0117 0.0129 -0.0122 0.0122 -0.0126 0.0115 -0.0131 0.0107 -0.0136 0.01 -0.0139 0.0092 -0.0143 0.0085 -0.0146 0.0077 -0.0149 0.0069 -0.0152 0.0063 -0.0154 0.0054 -0.0157 0.0047 -0.0158 0.0039 -0.0159 0.0032 -0.0161 0.0024 -0.0162 0.0016 -0.0162 0.0009 -0.0163 0 -0.0162 -0.0007 -0.0162 -0.0015 -0.0162 -0.0022 -0.0161 -0.0031 -0.0159 -0.0038 -0.0158 -0.0046 -0.0157 -0.0054 -0.0154 -0.0062 -0.0151 -0.007 -0.0149 -0.0078 -0.0146 -0.0086 -0.0143 -0.0094 -0.0139 -0.0102 -0.0135 -0.011zm1.549 0.3135l-0.343 0.584 0 0 -0.0436 -0.0259 -0.0427 -0.0259 -0.0424 -0.0261 -0.0424 -0.0267 -0.0412 -0.0265 -0.0414 -0.027 -0.0408 -0.0272 -0.0398 -0.027 -0.0401 -0.0274 -0.0396 -0.0278 -0.039 -0.0277 -0.0388 -0.0279 -0.0384 -0.0281 -0.0379 -0.0281 -0.0376 -0.0282 -0.0375 -0.0285 -0.0371 -0.0285 -0.0367 -0.0286 -0.0363 -0.0286 -0.0361 -0.0286 -0.0362 -0.029 -0.0357 -0.029 -0.0351 -0.0286 -0.035 -0.0288 -0.0351 -0.029 -0.0349 -0.0292 -0.0344 -0.0289 -0.0343 -0.0289 -0.0342 -0.029 -0.034 -0.0289 -0.0339 -0.0289 -0.0338 -0.029 0.441 -0.514 0.033 0.0282 0.0331 0.0283 0.033 0.0281 0.033 0.028 0.0331 0.0279 0.0332 0.0279 0.0329 0.0274 0.0331 0.0274 0.0334 0.0274 0.0335 0.0274 0.0333 0.027 0.0332 0.0266 0.0337 0.0268 0.0339 0.0266 0.0339 0.0264 0.0339 0.0261 0.0341 0.0259 0.0344 0.0258 0.0347 0.0257 0.0346 0.0253 0.0348 0.0251 0.0354 0.0251 0.0352 0.0246 0.0355 0.0244 0.0364 0.0246 0.036 0.024 0.0364 0.0238 0.037 0.0237 0.0368 0.0233 0.0376 0.0231 0.0379 0.0231 0.038 0.0225 0 0zm-0.343 0.584l0.343 -0.584 0.0148 0.0092 0.0142 0.0098 0.0135 0.0105 0.0128 0.011 0.0123 0.0116 0.0115 0.012 0.0109 0.0126 0.0102 0.013 0.0095 0.0135 0.0088 0.0138 0.0081 0.0142 0.0073 0.0146 0.0067 0.0148 0.0059 0.0152 0.0052 0.0154 0.0045 0.0156 0.0037 0.0158 0.003 0.016 0.0022 0.0161 0.0014 0.0163 0.0006 0.0163 -0.0001 0.0163 -0.001 0.0164 -0.0017 0.0164 -0.0026 0.0163 -0.0033 0.0163 -0.0042 0.0161 -0.0051 0.0161 -0.0059 0.0159 -0.0067 0.0157 -0.0076 0.0155 -0.0084 0.0152 -0.0092 0.0148 -0.0098 0.0142 -0.0105 0.0135 -0.011 0.0128 -0.0116 0.0123 -0.012 0.0115 -0.0126 0.0109 -0.013 0.0102 -0.0135 0.0095 -0.0138 0.0088 -0.0142 0.0081 -0.0146 0.0073 -0.0148 0.0067 -0.0152 0.0059 -0.0154 0.0052 -0.0156 0.0045 -0.0158 0.0037 -0.016 0.003 -0.0161 0.0022 -0.0163 0.0014 -0.0163 0.0006 -0.0163 -0.0001 -0.0164 -0.001 -0.0164 -0.0017 -0.0163 -0.0026 -0.0163 -0.0033 -0.0161 -0.0042 -0.0161 -0.0051 -0.0159 -0.0059 -0.0157 -0.0067 -0.0155 -0.0076 -0.0152 -0.0084zm1.5101 0.6592l0.0268 -0.6768 -0.1334 0.6551 -0.0483 -0.0183 -0.0472 -0.0179 -0.046 -0.0174 -0.0456 -0.0173 -0.0451 -0.0172 -0.0442 -0.0169 -0.0432 -0.0167 -0.0432 -0.0166 -0.0426 -0.0168 -0.0424 -0.0167 -0.0417 -0.0168 -0.0414 -0.0166 -0.042 -0.0173 -0.0413 -0.0173 -0.0412 -0.0175 -0.0414 -0.0179 -0.0413 -0.0182 -0.0415 -0.0186 -0.0415 -0.0189 -0.0422 -0.0196 -0.0422 -0.0202 -0.0424 -0.0205 -0.0429 -0.0213 -0.0431 -0.0217 -0.0441 -0.0227 -0.0443 -0.0233 -0.045 -0.024 -0.0458 -0.025 -0.0462 -0.0257 -0.047 -0.0265 -0.048 -0.0274 -0.0492 -0.0287 0.343 -0.584 0.0448 0.0261 0.044 0.0252 0.043 0.0243 0.0422 0.0233 0.041 0.0224 0.0404 0.0216 0.0397 0.0209 0.0387 0.0199 0.0387 0.0195 0.0381 0.0189 0.0378 0.0183 0.0374 0.0178 0.037 0.0172 0.0373 0.0171 0.0371 0.0166 0.0373 0.0164 0.0372 0.0161 0.0376 0.0159 0.0379 0.0159 0.0378 0.0155 0.039 0.0158 0.0393 0.0158 0.0398 0.0157 0.0404 0.0158 0.0412 0.016 0.0424 0.0163 0.043 0.0165 0.0435 0.0166 0.045 0.0169 0.0464 0.0176 0.0472 0.0179 0.0483 0.0183 -0.1334 0.6551zm-0.1066 -0.0217l0.24 -0.6334 0.0161 0.0066 0.0157 0.0073 0.015 0.008 0.0146 0.0087 0.014 0.0093 0.0134 0.01 0.0128 0.0105 0.0122 0.0112 0.0117 0.0116 0.011 0.0122 0.0103 0.0126 0.0098 0.0132 0.009 0.0135 0.0084 0.0139 0.0077 0.0143 0.0071 0.0147 0.0063 0.015 0.0056 0.0152 0.0048 0.0156 0.0042 0.0157 0.0033 0.016 0.0026 0.0161 0.0019 0.0164 0.001 0.0164 0.0002 0.0165 -0.0006 0.0166 -0.0014 0.0167 -0.0023 0.0166 -0.0031 0.0167 -0.004 0.0166 -0.0048 0.0165 -0.0058 0.0165 -0.0066 0.0161 -0.0073 0.0157 -0.008 0.015 -0.0087 0.0146 -0.0093 0.014 -0.01 0.0134 -0.0105 0.0128 -0.0112 0.0122 -0.0116 0.0117 -0.0122 0.011 -0.0126 0.0103 -0.0132 0.0098 -0.0135 0.009 -0.0139 0.0084 -0.0143 0.0077 -0.0147 0.0071 -0.015 0.0063 -0.0152 0.0056 -0.0156 0.0048 -0.0157 0.0042 -0.016 0.0033 -0.0161 0.0026 -0.0164 0.0019 -0.0164 0.001 -0.0165 0.0002 -0.0166 -0.0006 -0.0167 -0.0014 -0.0166 -0.0023 -0.0167 -0.0031 -0.0166 -0.004 -0.0165 -0.0048 -0.0165 -0.0058zm-1.6042 -14.0977l-0.3168 -0.5986 0 0 0.0896 -0.0468 0.0897 -0.0458 0.0903 -0.0448 0.0907 -0.0438 0.091 -0.0427 0.0916 -0.0417 0.0922 -0.0406 0.0926 -0.0396 0.0933 -0.0385 0.0939 -0.0375 0.0947 -0.0363 0.0953 -0.0353 0.0963 -0.0342 0.097 -0.033 0.0976 -0.0318 0.0985 -0.0308 0.0998 -0.0297 0.1006 -0.0284 0.1013 -0.0274 0.1026 -0.0261 0.1036 -0.0251 0.1048 -0.0239 0.106 -0.0226 0.1069 -0.0214 0.1083 -0.0204 0.1096 -0.0191 0.1106 -0.0179 0.1123 -0.0167 0.1135 -0.0156 0.115 -0.0143 0.1164 -0.0131 0.1179 -0.0119 0.0642 0.6742 -0.1101 0.0111 -0.1086 0.0123 -0.107 0.0133 -0.1055 0.0144 -0.1039 0.0155 -0.1026 0.0167 -0.1012 0.0175 -0.0997 0.0188 -0.0989 0.0198 -0.0972 0.0208 -0.096 0.0219 -0.095 0.0229 -0.094 0.0241 -0.0931 0.025 -0.092 0.026 -0.0908 0.0271 -0.0903 0.0282 -0.0896 0.0292 -0.0886 0.0302 -0.0879 0.0312 -0.0873 0.0323 -0.0867 0.0333 -0.0861 0.0343 -0.0857 0.0353 -0.0852 0.0364 -0.0848 0.0374 -0.0844 0.0385 -0.0842 0.0395 -0.0839 0.0404 -0.0835 0.0416 -0.0837 0.0426 -0.0834 0.0436 0 0zm-0.3168 -0.5986l0.3168 0.5986 -0.0156 0.0078 -0.0158 0.0068 -0.016 0.0061 -0.0161 0.0051 -0.0163 0.0043 -0.0163 0.0035 -0.0164 0.0027 -0.0164 0.0018 -0.0164 0.001 -0.0165 0.0002 -0.0163 -0.0006 -0.0163 -0.0013 -0.0161 -0.0022 -0.016 -0.0029 -0.0159 -0.0036 -0.0156 -0.0044 -0.0154 -0.0052 -0.0152 -0.0059 -0.0149 -0.0066 -0.0145 -0.0073 -0.0142 -0.008 -0.0139 -0.0087 -0.0134 -0.0094 -0.013 -0.0101 -0.0126 -0.0108 -0.0121 -0.0114 -0.0115 -0.012 -0.011 -0.0127 -0.0104 -0.0134 -0.0099 -0.0139 -0.0092 -0.0146 -0.0085 -0.0152 -0.0078 -0.0156 -0.0068 -0.0158 -0.0061 -0.016 -0.0051 -0.0161 -0.0043 -0.0163 -0.0035 -0.0163 -0.0027 -0.0164 -0.0018 -0.0164 -0.001 -0.0164 -0.0002 -0.0165 0.0006 -0.0163 0.0013 -0.0163 0.0022 -0.0161 0.0029 -0.016 0.0036 -0.0159 0.0044 -0.0156 0.0052 -0.0154 0.0059 -0.0152 0.0066 -0.0149 0.0073 -0.0145 0.008 -0.0142 0.0087 -0.0139 0.0094 -0.0134 0.0101 -0.013 0.0108 -0.0126 0.0114 -0.0121 0.012 -0.0115 0.0127 -0.011 0.0134 -0.0104 0.0139 -0.0099 0.0146 -0.0092 0.0152 -0.0085zm-1.8286 2.3042l-0.4928 -0.4646 0 0 0.0671 -0.071 0.0663 -0.0696 0.0656 -0.0683 0.065 -0.0671 0.0644 -0.0657 0.0641 -0.0647 0.0638 -0.0635 0.0638 -0.0627 0.0641 -0.0617 0.0639 -0.0606 0.0643 -0.0598 0.0647 -0.059 0.0653 -0.0582 0.0657 -0.0572 0.0664 -0.0567 0.0675 -0.056 0.0684 -0.0554 0.0695 -0.0548 0.0705 -0.0541 0.0718 -0.0537 0.0733 -0.0532 0.0747 -0.0528 0.0762 -0.0523 0.078 -0.052 0.0798 -0.0518 0.0815 -0.0513 0.0836 -0.0513 0.086 -0.0512 0.0879 -0.051 0.0903 -0.0509 0.0926 -0.0509 0.0953 -0.0511 0.3168 0.5986 -0.0889 0.0477 -0.0864 0.0475 -0.0835 0.0471 -0.0811 0.047 -0.0786 0.0468 -0.0764 0.0469 -0.0745 0.0469 -0.0722 0.0468 -0.0706 0.0472 -0.069 0.0473 -0.0673 0.0474 -0.0657 0.0478 -0.0646 0.0483 -0.0637 0.0489 -0.0625 0.0492 -0.0616 0.05 -0.0609 0.0506 -0.0604 0.0515 -0.0601 0.0524 -0.0597 0.0532 -0.0593 0.054 -0.0595 0.0554 -0.0597 0.0564 -0.0595 0.0575 -0.06 0.0589 -0.0606 0.0603 -0.0611 0.0617 -0.0618 0.0631 -0.0626 0.0645 -0.0634 0.0661 -0.0645 0.0678 -0.0657 0.0694 0 0zm-0.4928 -0.4646l0.4928 0.4646 -0.0123 0.0124 -0.0127 0.0116 -0.0132 0.0108 -0.0136 0.0101 -0.014 0.0093 -0.0143 0.0086 -0.0147 0.0078 -0.015 0.007 -0.0152 0.0063 -0.0154 0.0055 -0.0157 0.0047 -0.0158 0.0039 -0.016 0.0032 -0.0161 0.0024 -0.0162 0.0017 -0.0162 0.0008 -0.0163 0.0001 -0.0162 -0.0007 -0.0162 -0.0014 -0.0162 -0.0023 -0.016 -0.003 -0.0159 -0.0038 -0.0158 -0.0045 -0.0156 -0.0054 -0.0153 -0.0061 -0.0151 -0.0069 -0.0148 -0.0077 -0.0145 -0.0085 -0.0142 -0.0093 -0.0138 -0.01 -0.0134 -0.0109 -0.013 -0.0116 -0.0124 -0.0123 -0.0116 -0.0127 -0.0108 -0.0132 -0.0101 -0.0136 -0.0093 -0.014 -0.0086 -0.0143 -0.0078 -0.0147 -0.007 -0.015 -0.0063 -0.0152 -0.0055 -0.0154 -0.0047 -0.0157 -0.0039 -0.0158 -0.0032 -0.016 -0.0024 -0.0161 -0.0017 -0.0162 -0.0008 -0.0162 -0.0001 -0.0163 0.0007 -0.0162 0.0014 -0.0162 0.0023 -0.0162 0.003 -0.016 0.0038 -0.0159 0.0045 -0.0158 0.0054 -0.0156 0.0061 -0.0153 0.0069 -0.0151 0.0077 -0.0148 0.0085 -0.0145 0.0093 -0.0142 0.01 -0.0138 0.0109 -0.0134 0.0116 -0.013zm-1.403 6.2213l-0.6744 0.0628 0 0 -0.0186 -0.2402 -0.0112 -0.2391 -0.0038 -0.2377 0.0031 -0.2361 0.01 -0.2343 0.0165 -0.2324 0.023 -0.2304 0.0291 -0.228 0.0352 -0.2258 0.0408 -0.2231 0.0466 -0.2205 0.0517 -0.2176 0.057 -0.2146 0.0619 -0.2113 0.0666 -0.2081 0.0711 -0.2047 0.0756 -0.2009 0.0795 -0.1971 0.0836 -0.1934 0.0874 -0.1892 0.0909 -0.1851 0.0942 -0.1805 0.0974 -0.1762 0.1004 -0.1714 0.1031 -0.1668 0.1059 -0.1616 0.1082 -0.1566 0.1106 -0.1514 0.1126 -0.146 0.1146 -0.1405 0.1164 -0.1346 0.118 -0.1289 0.4928 0.4646 -0.1046 0.1143 -0.1038 0.1202 -0.1028 0.1259 -0.1016 0.1316 -0.1 0.137 -0.0984 0.1424 -0.0965 0.1474 -0.0943 0.1522 -0.092 0.1572 -0.0894 0.1616 -0.0866 0.1661 -0.0837 0.1703 -0.0804 0.1742 -0.077 0.1782 -0.0735 0.1819 -0.0696 0.1855 -0.0657 0.1887 -0.0614 0.1921 -0.0571 0.1951 -0.0526 0.1978 -0.0477 0.2004 -0.0428 0.2031 -0.0376 0.2055 -0.0324 0.2076 -0.0267 0.2096 -0.0212 0.2114 -0.0151 0.2132 -0.0092 0.2149 -0.0029 0.2161 0.0036 0.2173 0.0102 0.2185 0.017 0.2194 0 0zm-0.6744 0.0628l0.6744 -0.0628 0.0012 0.0174 0.0003 0.0172 -0.0006 0.0171 -0.0014 0.0169 -0.0023 0.0167 -0.003 0.0164 -0.0039 0.0161 -0.0046 0.0159 -0.0054 0.0156 -0.0061 0.0152 -0.0068 0.0149 -0.0075 0.0145 -0.0081 0.0141 -0.0089 0.0137 -0.0094 0.0132 -0.0101 0.0127 -0.0107 0.0123 -0.0112 0.0117 -0.0118 0.0112 -0.0124 0.0107 -0.0128 0.01 -0.0134 0.0094 -0.0138 0.0088 -0.0143 0.0082 -0.0148 0.0075 -0.0152 0.0067 -0.0155 0.006 -0.016 0.0053 -0.0163 0.0045 -0.0167 0.0038 -0.017 0.0028 -0.0173 0.0021 -0.0174 0.0012 -0.0172 0.0003 -0.0171 -0.0006 -0.0169 -0.0014 -0.0167 -0.0023 -0.0164 -0.003 -0.0161 -0.0039 -0.0159 -0.0046 -0.0156 -0.0054 -0.0152 -0.0061 -0.0149 -0.0068 -0.0145 -0.0075 -0.0141 -0.0081 -0.0137 -0.0089 -0.0132 -0.0094 -0.0127 -0.0101 -0.0123 -0.0107 -0.0117 -0.0112 -0.0112 -0.0118 -0.0107 -0.0124 -0.01 -0.0128 -0.0094 -0.0134 -0.0088 -0.0138 -0.0082 -0.0143 -0.0075 -0.0148 -0.0067 -0.0152 -0.006 -0.0155 -0.0053 -0.016 -0.0045 -0.0163 -0.0038 -0.0167 -0.0028 -0.017 -0.0021 -0.0173zm2.543 4.3076l-0.53 0.4216 0 0 -0.1028 -0.1303 -0.1004 -0.1298 -0.0982 -0.1295 -0.0957 -0.1293 -0.0934 -0.1292 -0.0911 -0.1295 -0.0886 -0.13 -0.086 -0.1302 -0.0839 -0.1312 -0.0811 -0.132 -0.0787 -0.133 -0.076 -0.1342 -0.0735 -0.1355 -0.0708 -0.1371 -0.0682 -0.1387 -0.0655 -0.1405 -0.0627 -0.1425 -0.0599 -0.1447 -0.0571 -0.1467 -0.0544 -0.1491 -0.0515 -0.1518 -0.0485 -0.1544 -0.0457 -0.157 -0.0428 -0.1599 -0.0399 -0.1632 -0.0369 -0.1664 -0.034 -0.1697 -0.031 -0.1731 -0.0282 -0.1768 -0.025 -0.1807 -0.0223 -0.1845 -0.0192 -0.1887 0.6744 -0.0628 0.018 0.1767 0.0207 0.1723 0.0234 0.1679 0.026 0.1638 0.0286 0.1599 0.0312 0.1559 0.0339 0.1524 0.0365 0.149 0.039 0.1459 0.0415 0.143 0.0441 0.14 0.0467 0.1374 0.0492 0.1353 0.0517 0.1329 0.0543 0.1309 0.0569 0.1291 0.0595 0.1277 0.062 0.1263 0.0646 0.1249 0.0673 0.1241 0.0698 0.1232 0.0725 0.1226 0.0751 0.1222 0.0777 0.1218 0.0806 0.1218 0.083 0.1218 0.0857 0.1219 0.0886 0.1226 0.0911 0.1231 0.0938 0.1237 0.0964 0.1246 0.0992 0.1257 0 0zm-0.53 0.4216l0.53 -0.4216 0.0105 0.0139 0.0097 0.0143 0.0088 0.0146 0.0081 0.0149 0.0072 0.0151 0.0065 0.0155 0.0056 0.0156 0.0048 0.0158 0.004 0.016 0.0033 0.016 0.0024 0.0162 0.0017 0.0162 0.0009 0.0163 0 0.0163 -0.0006 0.0162 -0.0015 0.0162 -0.0022 0.0161 -0.003 0.016 -0.0038 0.0158 -0.0045 0.0157 -0.0052 0.0154 -0.0061 0.0152 -0.0067 0.015 -0.0075 0.0146 -0.0083 0.0143 -0.009 0.014 -0.0097 0.0136 -0.0105 0.0131 -0.0112 0.0127 -0.0119 0.0123 -0.0126 0.0117 -0.0134 0.0112 -0.0139 0.0105 -0.0143 0.0097 -0.0146 0.0088 -0.0149 0.0081 -0.0151 0.0072 -0.0155 0.0065 -0.0156 0.0056 -0.0158 0.0048 -0.016 0.004 -0.016 0.0033 -0.0162 0.0024 -0.0162 0.0017 -0.0163 0.0009 -0.0163 0 -0.0162 -0.0006 -0.0162 -0.0015 -0.0161 -0.0022 -0.016 -0.003 -0.0158 -0.0038 -0.0157 -0.0045 -0.0154 -0.0052 -0.0152 -0.0061 -0.015 -0.0067 -0.0146 -0.0075 -0.0143 -0.0083 -0.014 -0.009 -0.0136 -0.0097 -0.0131 -0.0105 -0.0127 -0.0112 -0.0123 -0.0119 -0.0117 -0.0126 -0.0112 -0.0134zm7.0039 2.1942l0.0598 0.6746 0 0 -0.2689 0.0192 -0.2682 0.0097 -0.2672 0.0007 -0.2659 -0.0081 -0.2646 -0.0167 -0.2628 -0.0251 -0.2608 -0.0333 -0.2586 -0.0411 -0.2562 -0.0487 -0.2535 -0.0562 -0.2507 -0.0633 -0.2475 -0.0704 -0.2441 -0.077 -0.2405 -0.0836 -0.2367 -0.0898 -0.2328 -0.096 -0.2282 -0.1017 -0.2238 -0.1073 -0.2193 -0.1128 -0.2142 -0.118 -0.209 -0.123 -0.2035 -0.1278 -0.1979 -0.1323 -0.1921 -0.1368 -0.186 -0.1409 -0.1796 -0.145 -0.173 -0.1488 -0.1662 -0.1524 -0.1591 -0.1557 -0.152 -0.1591 -0.1443 -0.1623 -0.1365 -0.1652 0.53 -0.4216 0.1205 0.1458 0.1283 0.1441 0.1358 0.1423 0.1431 0.1401 0.15 0.1376 0.1568 0.1348 0.1634 0.1318 0.1698 0.1287 0.1757 0.1252 0.1815 0.1213 0.1871 0.1174 0.1924 0.1132 0.1974 0.1088 0.2021 0.104 0.2068 0.0991 0.211 0.0941 0.215 0.0886 0.2187 0.083 0.2223 0.0772 0.2257 0.0712 0.2285 0.065 0.2313 0.0585 0.2339 0.0518 0.236 0.0449 0.2382 0.0379 0.2398 0.0305 0.2414 0.0231 0.2426 0.0153 0.2437 0.0075 0.2446 -0.0007 0.245 -0.0089 0.2455 -0.0174 0 0zm0.0598 0.6746l-0.0598 -0.6746 0.0174 -0.0011 0.0172 -0.0002 0.0171 0.0006 0.0169 0.0015 0.0166 0.0024 0.0164 0.0031 0.0162 0.0039 0.0158 0.0047 0.0155 0.0054 0.0153 0.0062 0.0148 0.0069 0.0145 0.0075 0.014 0.0083 0.0137 0.0088 0.0131 0.0096 0.0127 0.0101 0.0122 0.0107 0.0117 0.0113 0.0112 0.0119 0.0106 0.0124 0.0099 0.0129 0.0094 0.0134 0.0088 0.0139 0.008 0.0143 0.0074 0.0148 0.0067 0.0152 0.006 0.0156 0.0052 0.016 0.0045 0.0163 0.0036 0.0167 0.0028 0.017 0.002 0.0173 0.0011 0.0174 0.0002 0.0172 -0.0006 0.0171 -0.0015 0.0169 -0.0024 0.0166 -0.0031 0.0164 -0.0039 0.0162 -0.0047 0.0158 -0.0054 0.0155 -0.0062 0.0153 -0.0069 0.0148 -0.0075 0.0145 -0.0083 0.014 -0.0088 0.0137 -0.0096 0.0131 -0.0101 0.0127 -0.0107 0.0122 -0.0113 0.0117 -0.0119 0.0112 -0.0124 0.0106 -0.0129 0.0099 -0.0134 0.0094 -0.0139 0.0088 -0.0143 0.008 -0.0148 0.0074 -0.0152 0.0067 -0.0156 0.006 -0.016 0.0052 -0.0163 0.0045 -0.0167 0.0036 -0.017 0.0028 -0.0173 0.002zm5.3074 -13.1153l0.532 -0.4192 0 0 0.3652 0.4978 0.3226 0.5111 0.2805 0.5224 0.2392 0.5319 0.1984 0.5394 0.1583 0.5451 0.119 0.5491 0.0805 0.551 0.0426 0.5513 0.0057 0.5497 -0.0305 0.5464 -0.0659 0.5413 -0.1005 0.5345 -0.1342 0.5259 -0.1674 0.5157 -0.1995 0.5037 -0.231 0.4901 -0.2618 0.4748 -0.2917 0.4576 -0.321 0.4387 -0.3494 0.4184 -0.3773 0.3959 -0.4041 0.3719 -0.4305 0.3461 -0.4559 0.3185 -0.4803 0.289 -0.5042 0.2579 -0.5272 0.2249 -0.5491 0.1901 -0.5702 0.1536 -0.5903 0.1153 -0.6094 0.0754 -0.0598 -0.6746 0.5628 -0.0696 0.5439 -0.1063 0.5242 -0.1412 0.5043 -0.1747 0.4836 -0.2063 0.4624 -0.2365 0.4407 -0.2652 0.4181 -0.2921 0.3951 -0.3177 0.3711 -0.3415 0.3467 -0.3639 0.3214 -0.3846 0.2952 -0.4037 0.2685 -0.4212 0.241 -0.437 0.2128 -0.4513 0.1837 -0.4639 0.154 -0.4747 0.1236 -0.4839 0.0923 -0.4917 0.0607 -0.4975 0.0279 -0.502 -0.0051 -0.5047 -0.0392 -0.5057 -0.0737 -0.5054 -0.1092 -0.5035 -0.1451 -0.4999 -0.182 -0.495 -0.2196 -0.4885 -0.2581 -0.4804 -0.2972 -0.4709 -0.3376 -0.4602 0 0zm0.532 -0.4192l-0.532 0.4192 -0.0104 -0.014 -0.0096 -0.0143 -0.0088 -0.0146 -0.008 -0.015 -0.0072 -0.0152 -0.0063 -0.0154 -0.0056 -0.0157 -0.0048 -0.0158 -0.0039 -0.016 -0.0032 -0.0161 -0.0023 -0.0162 -0.0016 -0.0162 -0.0008 -0.0163 -0.0001 -0.0163 0.0008 -0.0162 0.0015 -0.0162 0.0023 -0.0161 0.0031 -0.016 0.0038 -0.0158 0.0046 -0.0156 0.0053 -0.0154 0.0061 -0.0152 0.0069 -0.0149 0.0075 -0.0146 0.0084 -0.0143 0.009 -0.0139 0.0098 -0.0136 0.0106 -0.0131 0.0112 -0.0126 0.012 -0.0122 0.0127 -0.0117 0.0134 -0.0111 0.014 -0.0104 0.0143 -0.0096 0.0146 -0.0088 0.015 -0.008 0.0152 -0.0072 0.0154 -0.0063 0.0157 -0.0056 0.0158 -0.0048 0.016 -0.0039 0.0161 -0.0032 0.0162 -0.0023 0.0162 -0.0016 0.0163 -0.0008 0.0163 -0.0001 0.0162 0.0008 0.0162 0.0015 0.0161 0.0023 0.016 0.0031 0.0158 0.0038 0.0156 0.0046 0.0154 0.0053 0.0152 0.0061 0.0149 0.0069 0.0146 0.0075 0.0143 0.0084 0.0139 0.009 0.0136 0.0098 0.0131 0.0106 0.0126 0.0112 0.0122 0.012 0.0117 0.0127 0.0111 0.0134zm-7.2296 -2.4698l-0.0642 -0.6742 0 0 0.2822 -0.022 0.2804 -0.0121 0.2781 -0.0024 0.2759 0.007 0.2734 0.0161 0.2707 0.0254 0.268 0.034 0.265 0.0428 0.262 0.051 0.2588 0.0594 0.2551 0.0671 0.2519 0.075 0.248 0.0826 0.2442 0.0898 0.2402 0.0969 0.2361 0.1038 0.2318 0.1105 0.2275 0.117 0.2229 0.1233 0.2181 0.1292 0.2135 0.1352 0.2083 0.1408 0.2034 0.1462 0.198 0.1514 0.1929 0.1564 0.1872 0.1614 0.1815 0.1659 0.1759 0.1704 0.17 0.1745 0.1638 0.1788 0.1576 0.1824 0.1514 0.1862 -0.532 0.4192 -0.1384 -0.1702 -0.1446 -0.1674 -0.1502 -0.1638 -0.156 -0.1603 -0.1615 -0.1566 -0.1671 -0.1525 -0.1722 -0.1484 -0.1773 -0.144 -0.1824 -0.1394 -0.1872 -0.1346 -0.1919 -0.1296 -0.1965 -0.1244 -0.2009 -0.119 -0.2051 -0.1135 -0.2093 -0.1076 -0.2132 -0.1017 -0.2171 -0.0954 -0.2208 -0.0891 -0.2244 -0.0826 -0.2278 -0.0758 -0.2311 -0.0688 -0.2343 -0.0617 -0.2372 -0.0544 -0.2402 -0.0468 -0.243 -0.0392 -0.2456 -0.0312 -0.2481 -0.0232 -0.2504 -0.0149 -0.2529 -0.0064 -0.2549 0.0022 -0.257 0.0111 -0.259 0.0202 0 0zm-0.0642 -0.6742l0.0642 0.6742 -0.0174 0.0012 -0.0172 0.0003 -0.0171 -0.0005 -0.0169 -0.0014 -0.0166 -0.0022 -0.0165 -0.003 -0.0161 -0.0038 -0.0159 -0.0046 -0.0156 -0.0054 -0.0152 -0.006 -0.0149 -0.0068 -0.0145 -0.0075 -0.0141 -0.0081 -0.0137 -0.0088 -0.0133 -0.0094 -0.0128 -0.0101 -0.0122 -0.0106 -0.0118 -0.0112 -0.0112 -0.0118 -0.0107 -0.0123 -0.01 -0.0129 -0.0095 -0.0133 -0.0088 -0.0139 -0.0082 -0.0142 -0.0075 -0.0148 -0.0068 -0.0151 -0.0061 -0.0156 -0.0053 -0.0159 -0.0045 -0.0164 -0.0038 -0.0166 -0.0029 -0.017 -0.0021 -0.0173 -0.0012 -0.0174 -0.0003 -0.0172 0.0005 -0.0171 0.0014 -0.0169 0.0022 -0.0166 0.003 -0.0165 0.0038 -0.0161 0.0046 -0.0159 0.0054 -0.0156 0.006 -0.0152 0.0068 -0.0149 0.0075 -0.0145 0.0081 -0.0141 0.0088 -0.0137 0.0094 -0.0133 0.0101 -0.0128 0.0106 -0.0122 0.0112 -0.0118 0.0118 -0.0112 0.0123 -0.0107 0.0129 -0.01 0.0133 -0.0095 0.0139 -0.0088 0.0142 -0.0082 0.0148 -0.0075 0.0151 -0.0068 0.0156 -0.0061 0.0159 -0.0053 0.0164 -0.0045 0.0166 -0.0038 0.017 -0.0029 0.0173 -0.0021z"/>
    <path id="_3760807361" class="fil1" d="M7.7429 7.8571c0.1611,-0.0186 0.1709,0.0025 0.2387,-0.1149l0.473 -1.0276 0.4203 0.8552c0.0504,0.1126 0.0436,0.1214 0.1129,0.2119 0.0036,0.0049 0.0162,0.0261 0.019,0.0203 0.0027,-0.0059 0.0126,0.0137 0.0197,0.0198l1.1701 0.162 -0.7946 0.7899c-0.1417,0.152 0.1199,0.8667 0.1403,1.2738l-1.0878 -0.5461c-0.0796,0.0054 -0.8999,0.4723 -1.0629,0.5462l0.1151 -0.6892c0.0441,-0.2465 0.1427,-0.4624 0.0068,-0.6022 -0.1697,-0.1746 -0.6965,-0.594 -0.7879,-0.7749l1.0173 -0.1242zm-3.8863 -2.2819c-0.0718,-0.2231 0.2064,-0.6471 0.3014,-0.807 0.9396,-1.5819 2.8786,-2.4569 4.7532,-2.4277 0.2101,0.0033 0.3463,-0.0457 0.346,0.1626l-0.922 0.1324c-1.8123,0.305 -3.1301,1.3372 -4.1533,2.7592 -0.0765,0.1065 -0.1273,0.2415 -0.3253,0.1805zm2.7015 9.8918c-0.3216,-0.0127 -1.2252,-0.4276 -1.5248,-0.5824 -3.5229,-1.8205 -4.9755,-6.4887 -2.873,-10.0582 2.0801,-3.5314 6.5824,-4.7255 10.1513,-2.5348 0.2914,0.1788 1.0403,0.7132 1.1704,0.9286 -0.487,-0.3539 -0.6748,-0.5116 -1.2229,-0.806 -2.5044,-1.3446 -5.5568,-1.072 -7.7677,0.6322 -0.3552,0.2738 -0.7505,0.6541 -1.0344,0.9854 -0.319,0.3721 -0.5373,0.6846 -0.8208,1.1637 -0.501,0.8466 -0.8409,1.9638 -0.9169,3.1204 -0.1142,1.7362 0.4654,3.3293 1.387,4.6332 0.2412,0.3413 0.6658,0.8049 0.9428,1.0426 0.356,0.3054 0.7197,0.6057 1.157,0.8625 0.5067,0.2975 0.8308,0.4153 1.352,0.6128zm1.2146 -14.9993c-1.225,0.1167 -2.1757,0.4314 -3.0972,0.919 -0.9974,0.5277 -1.5194,1.0155 -2.2334,1.7726 -1.1927,1.2647 -2.2152,3.5635 -1.9866,6.0204 0.1835,1.9727 0.8507,3.1796 1.9408,4.5498 1.3288,1.6702 4.0236,2.9856 6.7688,2.7423 6.351,-0.5631 9.5748,-7.949 5.6033,-12.9876 -1.5123,-1.9187 -4.0993,-3.2925 -6.9957,-3.0165z"/>
   </g>
   <path class="fil2" d="M6.7256 7.9813c0.0914,0.1809 0.6182,0.6003 0.7879,0.7749 0.1359,0.1398 0.0373,0.3557 -0.0068,0.6022l-0.1151 0.6892c0.163,-0.0739 0.9833,-0.5408 1.0629,-0.5462l1.0878 0.5461c-0.0204,-0.4071 -0.282,-1.1218 -0.1403,-1.2738l0.7946 -0.7899 -1.1701 -0.162c-0.0071,-0.0061 -0.017,-0.0257 -0.0197,-0.0198 -0.0028,0.0058 -0.0154,-0.0154 -0.019,-0.0203 -0.0693,-0.0905 -0.0625,-0.0993 -0.1129,-0.2119l-0.4203 -0.8552 -0.473 1.0276c-0.0678,0.1174 -0.0776,0.0963 -0.2387,0.1149l-1.0173 0.1242zm-2.869 -2.4061c0.198,0.061 0.2488,-0.074 0.3253,-0.1805 1.0232,-1.422 2.341,-2.4542 4.1533,-2.7592l0.922 -0.1324c0.0003,-0.2083 -0.1359,-0.1593 -0.346,-0.1626 -1.8746,-0.0292 -3.8136,0.8458 -4.7532,2.4277 -0.095,0.1599 -0.3732,0.5839 -0.3014,0.807zm2.7015 9.8918c-0.5212,-0.1975 -0.8453,-0.3153 -1.352,-0.6128 -0.4373,-0.2568 -0.801,-0.5571 -1.157,-0.8625 -0.277,-0.2377 -0.7016,-0.7013 -0.9428,-1.0426 -0.9216,-1.3039 -1.5012,-2.897 -1.387,-4.6332 0.076,-1.1566 0.4159,-2.2738 0.9169,-3.1204 0.2835,-0.4791 0.5018,-0.7916 0.8208,-1.1637 0.2839,-0.3313 0.6792,-0.7116 1.0344,-0.9854 2.2109,-1.7042 5.2633,-1.9768 7.7677,-0.6322 0.5481,0.2944 0.7359,0.4521 1.2229,0.806 -0.1301,-0.2154 -0.879,-0.7498 -1.1704,-0.9286 -3.5689,-2.1907 -8.0712,-0.9966 -10.1513,2.5348 -2.1025,3.5695 -0.6499,8.2377 2.873,10.0582 0.2996,0.1548 1.2032,0.5697 1.5248,0.5824z"/>
  </g>
 </g>
</svg>
