<?xml version="1.0" encoding="UTF-8"?>
<!DOCTYPE svg PUBLIC "-//W3C//DTD SVG 1.1//EN" "http://www.w3.org/Graphics/SVG/1.1/DTD/svg11.dtd">
<!-- Creator: CorelDRAW -->
<svg xmlns="http://www.w3.org/2000/svg" xml:space="preserve" width="16.9332mm" height="16.9332mm" style="shape-rendering:geometricPrecision; text-rendering:geometricPrecision; image-rendering:optimizeQuality; fill-rule:evenodd; clip-rule:evenodd"
viewBox="0 0 16.9332 16.9332"
 xmlns:xlink="http://www.w3.org/1999/xlink">
 <defs>
  <style type="text/css">
   <![CDATA[
    .fil0 {fill:black}
    .fil1 {fill:#F3F3F5}
   ]]>
  </style>
 </defs>
 <g id="Capa_x0020_1">
  <metadata id="CorelCorpID_0Corel-Layer"/>
  <g id="_713316016">
   <path id="_715963152" class="fil0" d="M7.7429 7.857c0.1611,-0.0186 0.1709,0.0025 0.2387,-0.1149l0.473 -1.0276 0.4203 0.8552c0.0504,0.1126 0.0436,0.1214 0.1129,0.2119 0.0036,0.0049 0.0162,0.0261 0.019,0.0203 0.0027,-0.0059 0.0126,0.0137 0.0197,0.0198l1.1701 0.162 -0.7946 0.7899c-0.1417,0.152 0.1199,0.8667 0.1403,1.2738l-1.0878 -0.5461c-0.0796,0.0054 -0.8999,0.4723 -1.0629,0.5462l0.1151 -0.6892c0.0441,-0.2465 0.1427,-0.4624 0.0068,-0.6022 -0.1697,-0.1746 -0.6965,-0.594 -0.7879,-0.7749l1.0173 -0.1242zm-3.8863 -2.2819c-0.0718,-0.2231 0.2064,-0.6471 0.3014,-0.807 0.9396,-1.5819 2.8786,-2.4569 4.7532,-2.4277 0.2101,0.0033 0.3463,-0.0457 0.346,0.1626l-0.922 0.1324c-1.8123,0.305 -3.1301,1.3372 -4.1533,2.7592 -0.0765,0.1065 -0.1273,0.2415 -0.3253,0.1805zm2.7015 9.8918c-0.3216,-0.0127 -1.2252,-0.4276 -1.5248,-0.5824 -3.5229,-1.8205 -4.9755,-6.4887 -2.873,-10.0582 2.0801,-3.5314 6.5824,-4.7255 10.1513,-2.5348 0.2914,0.1788 1.0403,0.7132 1.1704,0.9286 -0.487,-0.3539 -0.6748,-0.5116 -1.2229,-0.806 -2.5044,-1.3446 -5.5568,-1.072 -7.7677,0.6322 -0.3552,0.2738 -0.7505,0.6541 -1.0344,0.9854 -0.319,0.3721 -0.5373,0.6846 -0.8208,1.1637 -0.501,0.8466 -0.8409,1.9638 -0.9169,3.1204 -0.1142,1.7362 0.4654,3.3293 1.387,4.6332 0.2412,0.3413 0.6658,0.8049 0.9428,1.0426 0.356,0.3054 0.7197,0.6057 1.157,0.8625 0.5067,0.2975 0.8308,0.4153 1.352,0.6128zm1.2146 -14.9993c-1.225,0.1167 -2.1757,0.4314 -3.0972,0.919 -0.9974,0.5277 -1.5194,1.0155 -2.2334,1.7726 -1.1927,1.2647 -2.2152,3.5635 -1.9866,6.0204 0.1835,1.9727 0.8507,3.1796 1.9408,4.5498 1.3288,1.6702 4.0236,2.9856 6.7688,2.7423 6.351,-0.5631 9.5748,-7.949 5.6033,-12.9876 -1.5123,-1.9187 -4.0993,-3.2925 -6.9957,-3.0165z"/>
   <path id="_715963272" class="fil1" d="M6.5581 15.4669c-0.5212,-0.1975 -0.8453,-0.3153 -1.352,-0.6128 -0.4373,-0.2568 -0.801,-0.5571 -1.157,-0.8625 -0.277,-0.2377 -0.7016,-0.7013 -0.9428,-1.0426 -0.9216,-1.3039 -1.5012,-2.897 -1.387,-4.6332 0.076,-1.1566 0.4159,-2.2738 0.9169,-3.1204 0.2835,-0.4791 0.5018,-0.7916 0.8208,-1.1637 0.2839,-0.3313 0.6792,-0.7116 1.0344,-0.9854 2.2109,-1.7042 5.2633,-1.9768 7.7677,-0.6322 0.5481,0.2944 0.7359,0.4521 1.2229,0.806 -0.1301,-0.2154 -0.879,-0.7498 -1.1704,-0.9286 -3.5689,-2.1907 -8.0712,-0.9966 -10.1513,2.5348 -2.1025,3.5695 -0.6499,8.2377 2.873,10.0582 0.2996,0.1548 1.2032,0.5697 1.5248,0.5824z"/>
   <path id="_715963464" class="fil1" d="M6.7256 7.9812c0.0914,0.1809 0.6182,0.6003 0.7879,0.7749 0.1359,0.1398 0.0373,0.3557 -0.0068,0.6022l-0.1151 0.6892c0.163,-0.0739 0.9833,-0.5408 1.0629,-0.5462l1.0878 0.5461c-0.0204,-0.4071 -0.282,-1.1218 -0.1403,-1.2738l0.7946 -0.7899 -1.1701 -0.162c-0.0071,-0.0061 -0.017,-0.0257 -0.0197,-0.0198 -0.0028,0.0058 -0.0154,-0.0154 -0.019,-0.0203 -0.0693,-0.0905 -0.0625,-0.0993 -0.1129,-0.2119l-0.4203 -0.8552 -0.473 1.0276c-0.0678,0.1174 -0.0776,0.0963 -0.2387,0.1149l-1.0173 0.1242z"/>
   <path id="_715964256" class="fil1" d="M3.8566 5.5751c0.198,0.061 0.2488,-0.074 0.3253,-0.1805 1.0232,-1.422 2.341,-2.4542 4.1533,-2.7592l0.922 -0.1324c0.0003,-0.2083 -0.1359,-0.1593 -0.346,-0.1626 -1.8746,-0.0292 -3.8136,0.8458 -4.7532,2.4277 -0.095,0.1599 -0.3732,0.5839 -0.3014,0.807z"/>
  </g>
 </g>
</svg>
