<?xml version="1.0" encoding="UTF-8"?>
<!DOCTYPE svg PUBLIC "-//W3C//DTD SVG 1.1//EN" "http://www.w3.org/Graphics/SVG/1.1/DTD/svg11.dtd">
<!-- Creator: CorelDRAW -->
<svg xmlns="http://www.w3.org/2000/svg" xml:space="preserve" width="16.9332mm" height="16.9332mm" style="shape-rendering:geometricPrecision; text-rendering:geometricPrecision; image-rendering:optimizeQuality; fill-rule:evenodd; clip-rule:evenodd"
viewBox="0 0 16.9332 16.9332"
 xmlns:xlink="http://www.w3.org/1999/xlink">
 <defs>
  <style type="text/css">
   <![CDATA[
    .fil0 {fill:black}
    .fil2 {fill:#989898}
    .fil1 {fill:#F2F2F5}
   ]]>
  </style>
 </defs>
 <g id="Capa_x0020_1">
  <metadata id="CorelCorpID_0Corel-Layer"/>
  <g id="_374645304">
   <path id="_374638320" class="fil0" d="M9.7104 9.4982c0.0682,-0.1066 0.1019,-0.1185 0.1901,-0.1961 0.1585,-0.1397 0.0647,-0.0735 0.2576,-0.1945l-0.0924 1.0486c-0.0997,-0.0842 -0.2935,-0.4958 -0.3553,-0.658zm1.0381 -0.3519c0.1431,0.0681 0.3733,0.2689 0.4488,0.3903 -0.0695,0.1626 -0.2202,0.4972 -0.3423,0.612l-0.1065 -1.0023zm-0.0558 -0.5672l0.4097 -0.4604 0.5744 0.5069 -0.3082 0.5619c-0.093,-0.0507 -0.3985,-0.3344 -0.5147,-0.4376 -0.0132,-0.0118 -0.0743,-0.0676 -0.0744,-0.0677 -0.0663,-0.0666 -0.0338,-0.0176 -0.0868,-0.1031zm-1.5369 -0.1458l0.6153 -0.3381c0.1461,0.1393 0.3307,0.3214 0.4059,0.4839 -0.0876,0.1248 -0.5005,0.4969 -0.6494,0.5797l-0.3718 -0.7255zm-0.8702 -0.235c0.3796,-0.2387 0.5489,0.3096 0.6854,0.5754 0.16,0.3115 0.3128,0.6122 0.4683,0.9162l0.9641 1.8036c0.213,0.0139 0.2845,-0.2477 0.4704,-0.6121l1.1272 -2.1443 0.3593 0.0718c-0.0342,0.095 -1.6089,3.0939 -1.7443,3.3084 -0.1769,0.28 -0.2821,0.0116 -0.3642,-0.1457 -0.3362,-0.6435 -0.6806,-1.2605 -1.0123,-1.8986 -0.0654,-0.1257 -0.9597,-1.727 -0.9623,-1.8408l0.0084 -0.0339zm2.1511 0.1245l-0.374 -0.4406 0.8473 -0.4154c0.0226,0.3693 0.0118,0.3353 -0.1551,0.5209 -0.1098,0.1222 -0.1874,0.2482 -0.3182,0.3351zm-8.1876 -0.7106c0.1882,-0.1943 0.4361,-0.4793 0.6087,-0.707l0.5895 -0.7442c0.0728,0.0543 0.5928,0.6839 0.6019,0.8113 0.001,0.0142 -0.2192,1.0817 -0.2485,1.2461 -0.1457,0.8204 -1.4015,-0.1679 -1.5516,-0.6062zm7.5682 -3.6375c0.3941,-0.0718 0.8311,-0.0696 1.2356,-0.014 0.2659,0.0365 0.2538,0.1141 0.3509,0.3286 0.4279,0.9458 0.5407,2.1113 -0.3687,2.5249 -1.0254,0.4664 -2.2131,-0.238 -1.7337,-1.9574 0.0841,-0.3016 0.2244,-0.829 0.5159,-0.8821zm-0.8752 2.2314c-0.2173,-0.0204 -0.3109,-0.1364 -0.4034,-0.3059 -0.3841,-0.7039 0.2588,-0.8887 0.342,-0.3842 0.0212,0.1285 0.0532,0.5527 0.0614,0.6901zm3.1967 -0.0473c-0.0902,0.0869 -0.0887,0.0603 -0.1789,0.0568 0.0297,-0.2243 0.0179,-0.1417 0.0586,-0.1898 -0.0118,-0.1786 -0.0135,-0.481 0.0543,-0.6204 0.0731,-0.1501 0.2606,-0.2506 0.3764,-0.099 0.1907,0.2495 -0.149,0.7772 -0.3104,0.8524zm-6.6184 0.597c-0.2696,-0.1815 -0.3135,-0.4752 -0.6445,-0.6656 -0.3955,-0.2274 -0.4653,0.0506 -0.837,-0.375 -0.1349,-0.1545 -0.4757,-0.5142 -0.5686,-0.6852 -0.1903,-0.3502 0.1576,-0.7085 0.285,-0.8837 0.6079,-0.8354 0.8174,-0.2589 1.3402,0.3917 0.3511,0.4372 0.4197,1.4894 0.4249,2.2178zm3.1803 -2.9175c-0.0039,-0.6301 0.0091,-0.7707 0.5648,-1.1273 0.7961,-0.5108 1.6125,-0.5217 2.4013,0.0082 0.4317,0.2901 0.5584,0.3657 0.5486,1.1213l-1.7787 -0.2492c-0.7021,-0.0488 -1.2112,0.1643 -1.736,0.247zm-0.6271 4.0156c-0.0033,-0.0039 -3.0402,-3.9079 -3.0862,-3.9977 -0.1092,-0.2125 0.1615,-0.6653 0.3187,-1.0285 0.3085,-0.713 0.4798,-1.3652 0.6839,-2.2023l0.8757 0.6119c0.3662,0.4983 0.2719,0.6182 -0.0967,0.9765 -0.3447,0.3352 -0.7644,0.8783 -1.0494,1.2817 -0.0822,0.1164 -0.3085,0.3303 -0.131,0.4776l0.2623 -0.0963 0.5978 -0.806c0.2369,-0.3076 0.7674,-0.8199 0.8596,-0.9644 0.5404,-0.8461 -1.1729,-2.126 -1.5251,-1.8391 -0.0804,0.1042 -0.1185,0.3634 -0.1193,0.3648l-0.7736 0.5623c-0.0701,0.4898 -0.3732,1.8673 -0.6142,2.1331 -0.1176,0.1298 -0.3091,-0.0279 -0.743,0.5626 -0.8592,1.1695 -0.1055,0.9403 -0.5469,1.439 -0.1131,0.1278 -0.1777,0.1932 -0.3033,0.3403 -0.1947,0.2279 -0.4641,0.4077 -0.6697,0.6465 -0.3505,0.4073 -0.116,0.6641 0.0378,0.9993l-0.1648 0.2681 0.7129 0.9368c0.2263,0.1655 0.8027,0.4845 1.1495,0.3285 0.389,-0.175 0.36,-0.6876 0.4765,-1.2144 0.0677,-0.3061 0.2397,-1.0919 0.3871,-1.2705 0.4215,0.3313 0.3209,0.2303 0.6831,0.6633 0.3168,0.3787 0.2666,0.3734 0.2408,1.1312 -0.0313,0.9216 -0.1085,2.8478 -0.9362,3.2404 -0.7681,0.3643 -0.8665,-1.035 -0.9327,-1.7039 -0.0305,-0.3076 -0.2473,-0.2976 -0.305,-0.1069 -0.0329,0.1092 -0.0222,0.5435 -0.0168,0.6775 0.0628,1.5661 0.6087,2.2721 1.8519,2.1614 0.9446,-0.0841 1.7087,0.8728 2.0237,1.9202 0.1202,0.4001 0.1888,0.7375 0.2388,1.1846 0.0425,0.3811 0.02,1.27 0.0903,1.3083 0.1232,0.0673 1.6189,0.0792 1.8549,0.0792 0.6968,0 5.4382,0.0458 5.6976,-0.027l-0.12 -3.1669c-0.1289,-0.9411 -0.3337,-1.8537 -0.6351,-2.6733 -0.3458,-0.9399 -1.2032,-2.5674 -2.1808,-2.6699 -0.3738,-0.0392 -0.2581,-0.0194 -0.5149,-0.2444 -0.1384,-0.1213 -0.2795,-0.2469 -0.4168,-0.3506l0.0009 -0.6219 0.5926 -0.6185 0.8082 -0.4533c0.0825,-0.1505 0.1473,-0.3117 0.1652,-0.5037 0.0292,-0.3128 -0.0525,-0.3241 -0.0917,-0.5247l1.1697 -0.944 0.0092 1.496c-0.8156,0.7775 -0.475,0.4118 -0.5404,1.3944 -0.0252,0.3778 -0.3801,0.3724 -0.2871,0.6151 0.0594,0.1548 0.4877,0.227 0.647,0.2432 0.5449,0.0556 0.9687,-0.2306 1.0003,-0.8204 0.043,-0.8058 0.019,-1.1487 -0.5038,-1.4122l-0.0791 -2.5646c-0.126,-0.2879 -0.9144,-1.1327 -1.1172,-1.3216 -0.43,-0.4005 -0.8059,-0.75 -1.3178,-1.1261 -0.4237,-0.3113 -0.993,-0.8303 -1.6439,-0.5387 -0.8072,0.3617 -1.9934,1.5001 -2.6443,2.206 -0.4037,0.4379 -1.0159,1.0488 -0.4773,1.6719 0.2606,0.3015 0.9455,0.9795 1.2461,1.1662l0.1321 1.0029c0.1816,0.3029 0.3334,0.4321 0.7684,0.4194l0.2551 0.3541c0.3092,0.3636 0.31,-0.0738 0.3092,0.8389l-0.6283 0.3522c-0.5246,-0.3814 -0.3562,-0.3257 -0.9345,-0.2436z"/>
   <path id="_376268248" class="fil1" d="M10.6425 6.1656c0.1487,-0.0497 0.217,-0.2021 0.3565,-0.1601 0.1557,0.0468 0.1072,0.2383 0.0201,0.3317 -0.4925,0.5281 -1.565,-0.0756 -1.104,-0.3257 0.1517,-0.0823 0.2983,0.2974 0.7274,0.1541zm-0.8452 -1.0335c-0.0012,-0.509 0.5322,-0.1597 0.2311,0.2518l-0.1919 -0.0124c-0.0198,-0.0726 -0.039,-0.1456 -0.0392,-0.2394zm1.2812 0.2394c-0.3244,0.101 -0.3248,-0.2614 -0.204,-0.459 0.1939,-0.0459 0.2445,0.0384 0.2446,0.2579 0.0001,0.1085 -0.0154,0.1331 -0.0406,0.2011zm-1.2612 -1.3968c-0.2915,0.0531 -0.4318,0.5805 -0.5159,0.8821 -0.4794,1.7194 0.7083,2.4238 1.7337,1.9574 0.9094,-0.4136 0.7966,-1.5791 0.3687,-2.5249 -0.0971,-0.2145 -0.085,-0.2921 -0.3509,-0.3286 -0.4045,-0.0556 -0.8415,-0.0578 -1.2356,0.014z"/>
   <path id="_374642688" class="fil1" d="M8.7007 3.8383c0.5248,-0.0827 1.0339,-0.2958 1.736,-0.247l1.7787 0.2492c0.0098,-0.7556 -0.1169,-0.8312 -0.5486,-1.1213 -0.7888,-0.5299 -1.6052,-0.519 -2.4013,-0.0082 -0.5557,0.3566 -0.5687,0.4972 -0.5648,1.1273z"/>
   <path id="_374643168" class="fil1" d="M5.5204 6.7558c-0.0052,-0.7284 -0.0738,-1.7806 -0.4249,-2.2178 -0.5228,-0.6506 -0.7323,-1.2271 -1.3402,-0.3917 -0.1274,0.1752 -0.4753,0.5335 -0.285,0.8837 0.0929,0.171 0.4337,0.5307 0.5686,0.6852 0.3717,0.4256 0.4415,0.1476 0.837,0.375 0.331,0.1904 0.3749,0.4841 0.6445,0.6656z"/>
   <path id="_374643144" class="fil1" d="M8.971 8.7737c-0.1365,-0.2658 -0.3058,-0.8141 -0.6854,-0.5754l-0.0084 0.0339c0.0026,0.1138 0.8969,1.7151 0.9623,1.8408 0.3317,0.6381 0.6761,1.2551 1.0123,1.8986 0.0821,0.1573 0.1873,0.4257 0.3642,0.1457 0.1354,-0.2145 1.7101,-3.2134 1.7443,-3.3084l-0.3593 -0.0718 -1.1272 2.1443c-0.1859,0.3644 -0.2574,0.626 -0.4704,0.6121l-0.9641 -1.8036c-0.1555,-0.304 -0.3083,-0.6047 -0.4683,-0.9162z"/>
   <path id="_374643840" class="fil1" d="M2.2491 7.6122c0.1501,0.4383 1.4059,1.4266 1.5516,0.6062 0.0293,-0.1644 0.2495,-1.2319 0.2485,-1.2461 -0.0091,-0.1274 -0.5291,-0.757 -0.6019,-0.8113l-0.5895 0.7442c-0.1726,0.2277 -0.4205,0.5127 -0.6087,0.707z"/>
   <path id="_374643648" class="fil1" d="M9.5276 9.1588c0.1489,-0.0828 0.5618,-0.4549 0.6494,-0.5797 -0.0752,-0.1625 -0.2598,-0.3446 -0.4059,-0.4839l-0.6153 0.3381 0.3718 0.7255z"/>
   <path id="_374643456" class="fil1" d="M10.6927 8.5791c0.053,0.0855 0.0205,0.0365 0.0868,0.1031 0.0001,0.0001 0.0612,0.0559 0.0744,0.0677 0.1162,0.1032 0.4217,0.3869 0.5147,0.4376l0.3082 -0.5619 -0.5744 -0.5069 -0.4097 0.4604z"/>
   <path id="_374643528" class="fil0" d="M9.9151 6.0115c-0.461,0.2501 0.6115,0.8538 1.104,0.3257 0.0871,-0.0934 0.1356,-0.2849 -0.0201,-0.3317 -0.1395,-0.042 -0.2078,0.1104 -0.3565,0.1601 -0.4291,0.1433 -0.5757,-0.2364 -0.7274,-0.1541z"/>
   <path id="_374643216" class="fil1" d="M8.9421 6.2061c-0.0082,-0.1374 -0.0402,-0.5616 -0.0614,-0.6901 -0.0832,-0.5045 -0.7261,-0.3197 -0.342,0.3842 0.0925,0.1695 0.1861,0.2855 0.4034,0.3059z"/>
   <path id="_374643672" class="fil1" d="M10.4367 8.3228c0.1308,-0.0869 0.2084,-0.2129 0.3182,-0.3351 0.1669,-0.1856 0.1777,-0.1516 0.1551,-0.5209l-0.8473 0.4154 0.374 0.4406z"/>
   <path id="_374644656" class="fil1" d="M12.0185 6.0258l-0.0225 0.1639 0.1428 -0.0309c0.1614,-0.0752 0.5011,-0.6029 0.3104,-0.8524 -0.1158,-0.1516 -0.3033,-0.0511 -0.3764,0.099 -0.0678,0.1394 -0.0661,0.4418 -0.0543,0.6204z"/>
   <path id="_374643960" class="fil1" d="M9.7104 9.4982c0.0618,0.1622 0.2556,0.5738 0.3553,0.658l0.0924 -1.0486c-0.1929,0.121 -0.0991,0.0548 -0.2576,0.1945 -0.0882,0.0776 -0.1219,0.0895 -0.1901,0.1961z"/>
   <path id="_374644344" class="fil1" d="M10.855 10.1486c0.1221,-0.1148 0.2728,-0.4494 0.3423,-0.612 -0.0755,-0.1214 -0.3057,-0.3222 -0.4488,-0.3903l0.1065 1.0023z"/>
   <path id="_374644248" class="fil0" d="M9.7973 5.1321c0.0002,0.0938 0.0194,0.1668 0.0392,0.2394l0.1919 0.0124c0.3011,-0.4115 -0.2323,-0.7608 -0.2311,-0.2518z"/>
   <path id="_374644560" class="fil0" d="M11.0785 5.3715c0.0252,-0.068 0.0407,-0.0926 0.0406,-0.2011 -0.0001,-0.2195 -0.0507,-0.3038 -0.2446,-0.2579 -0.1208,0.1976 -0.1204,0.56 0.204,0.459z"/>
   <path id="_374644440" class="fil2" d="M12.1388 6.1588l-0.1428 0.0309 0.0225 -0.1639c-0.0407,0.0481 -0.0289,-0.0345 -0.0586,0.1898 0.0902,0.0035 0.0887,0.0301 0.1789,-0.0568z"/>
  </g>
 </g>
</svg>
