<?xml version="1.0" encoding="UTF-8"?>
<!DOCTYPE svg PUBLIC "-//W3C//DTD SVG 1.1//EN" "http://www.w3.org/Graphics/SVG/1.1/DTD/svg11.dtd">
<!-- Creator: CorelDRAW -->
<svg xmlns="http://www.w3.org/2000/svg" xml:space="preserve" width="16.9332mm" height="16.9332mm" style="shape-rendering:geometricPrecision; text-rendering:geometricPrecision; image-rendering:optimizeQuality; fill-rule:evenodd; clip-rule:evenodd"
viewBox="0 0 16.9332 16.9332"
 xmlns:xlink="http://www.w3.org/1999/xlink">
 <defs>
  <style type="text/css">
   <![CDATA[
    .fil0 {fill:black}
    .fil4 {fill:#010103}
    .fil2 {fill:#020202}
    .fil3 {fill:#F3F3F3}
    .fil1 {fill:#F3F3F5}
   ]]>
  </style>
 </defs>
 <g id="Capa_x0020_1">
  <metadata id="CorelCorpID_0Corel-Layer"/>
  <g id="_376272400">
   <path id="_374638656" class="fil0" d="M10.3053 16.4193c-0.0288,-0.2233 -0.049,-1.5216 -0.0137,-1.7154 0.0513,-0.2816 0.3528,-0.2298 0.6313,-0.23 0.313,-0.0003 0.513,-0.0324 0.6494,0.1997 0.0795,0.1352 0.0952,1.4512 0.0283,1.6344 -0.0873,0.2391 -0.3112,0.2491 -0.6006,0.2483 -0.384,-0.0012 -0.4322,0.0638 -0.6947,-0.137zm-5.35 -2.5622c-0.0589,-0.2293 -0.0509,-1.4757 0.0528,-1.6361 0.1283,-0.1985 0.4298,-0.1561 0.7102,-0.1567 0.3017,-0.0007 0.5479,-0.0415 0.5686,0.2923 0.0151,0.2448 0.0314,1.5003 -0.0412,1.6412 -0.1054,0.2045 -1.178,0.2971 -1.2904,-0.1407zm1.6971 -0.857l-0.0088 -0.6562c0.3552,0.0157 0.3506,0.1755 0.3078,0.5274 -0.1093,0.0888 -0.1251,0.1236 -0.299,0.1288zm-1.6755 1.4392c-0.3015,0.3108 -1.449,0.9926 -1.8884,0.3513 -0.3417,-0.4988 0.0761,-1.6649 0.2336,-2.2112 0.218,-0.7561 1.1054,-3.675 1.5017,-3.9945l0.2202 1.4555c0,0.5526 0,1.1052 -0.0002,1.6578 -0.0274,0.0751 -0.206,0.1606 -0.3562,0.3563 -0.1405,0.183 -0.1242,0.2171 -0.3058,0.3503l-0.7035 0.5921 0.4184 0.1241c0.0946,-0.0767 0.1291,-0.123 0.228,-0.1955 0.1287,-0.0943 0.1046,-0.1255 0.2545,-0.1897l0.0039 1.0717c0.0172,0.3971 0.3371,0.5605 0.3938,0.6318zm3.6606 -6.6249l0.5721 0.364c-0.0755,0.1938 -0.2596,0.7847 -0.4283,0.9159l-0.1438 -1.2799zm-1.3041 0.3327c0.0051,-0.0048 0.0144,-0.0139 0.0203,-0.019l0.2258 -0.1582c0.1042,-0.0706 0.1862,-0.1333 0.3171,-0.1843l-0.2085 1.313 -0.3929 -0.9087 0.0382 -0.0428zm-1.5138 -0.432c0.2095,-0.0986 0.1871,0.0455 0.3193,0.4015 0.1844,0.4961 0.4734,1.1995 0.7187,1.6339 0.193,0.3415 1.0252,1.6972 1.3494,1.7675 0.1569,0.0341 0.3472,-0.2197 0.4158,-0.3075 0.4396,-0.5624 0.5534,-0.6407 0.9565,-1.3971 0.4657,-0.8737 0.5921,-1.2792 0.9338,-2.1869 0.4357,0.1963 1.1415,0.7106 1.4241,1.0906 0.7012,0.943 1.0622,1.5992 1.6033,2.7534 0.4068,0.8677 0.6841,1.7713 0.2043,2.7424 -0.3821,0.7735 -1.0979,1.2246 -1.7487,1.7256l-0.7693 -1.8212 -0.0826 -2.5497c0.0095,0.0065 0.0244,0.004 0.0286,0.0196l0.3533 0.4339c0.2361,0.3127 0.5504,0.7827 0.3859,1.2066l-0.291 0.5567 0.0945 0.1505 0.1861 -0.0031c0.1546,-0.2173 0.3013,-0.3006 0.3824,-0.724 0.0649,-0.3393 -0.0054,-0.6642 -0.162,-0.9349 -0.1378,-0.238 -0.3111,-0.4831 -0.4702,-0.6877l-0.5256 -0.6195c-0.003,-0.2311 -0.0153,-0.464 -0.0206,-0.6955l-0.2615 -0.4496 -0.1094 0.1046 0.1174 4.1931c-1.0722,-0.0031 -0.883,0.3693 -0.9313,1.647 -0.848,0.0039 -1.6967,0.0005 -2.5447,0.0005l-1.764 -0.8195c1.1057,-0.1152 0.9311,-0.0105 1.0315,-1.5904 0.4612,-0.0094 0.6979,-0.2509 0.6848,-0.7312 -0.4155,-0.3435 -0.6743,-0.5679 -1.1094,-0.8823 0.0025,-1.2615 0.1429,-2.5085 -0.2841,-3.6141 -0.0637,-0.1649 -0.1761,-0.282 -0.1153,-0.4132zm3.4142 1.329c0.436,-0.8827 0.5297,-1.4442 0.6867,-1.7758l0.2626 0.1506 -0.8016 2.0047c-0.1254,0.2774 -0.8703,1.5078 -1.1692,1.6582l-0.3268 -0.3934c-0.5976,-0.7628 -1.4202,-2.404 -1.5989,-3.2822 0.1437,-0.0497 0.1729,-0.1063 0.3303,-0.1601 0.3953,1.0707 0.5333,1.6451 1.0799,2.5506 0.1169,0.1936 0.3527,0.5989 0.4889,0.7088l0.3735 -0.2836c0.0893,-0.0949 0.5961,-1.019 0.6746,-1.1778zm-0.2384 -2.3214c0.0467,-0.0467 0.0215,-0.0197 0.077,-0.055l0.5061 0.3656 -0.2363 0.8067 -0.7292 -0.5004c-0.0834,-0.0623 -0.0203,-0.0061 -0.0687,-0.075l0.4511 -0.5419zm-2.0544 0.3106c0.0982,-0.0891 0.3799,-0.3094 0.5122,-0.3637 0.2126,0.2242 0.3424,0.3428 0.5195,0.595 -0.1335,0.1455 -0.6382,0.491 -0.7894,0.5771 -0.1177,-0.24 -0.2209,-0.5397 -0.2423,-0.8084zm1.9126 -0.8772c-0.1645,0.3183 -0.2912,0.6123 -0.5908,0.8491 -0.1275,-0.0936 -0.4662,-0.4959 -0.5379,-0.6177l1.1287 -0.2314zm-1.9113 -2.3612c0.0612,-0.1105 0.002,-0.0627 0.1742,-0.1037 0.7266,-0.1727 1.2144,-0.5335 1.596,-1.1811 0.1297,-0.2201 0.2141,-0.4496 0.2909,-0.7118 0.4723,0.6157 0.726,0.7985 0.7245,1.6496 -0.0015,0.8081 0.1341,1.3836 -0.4262,1.9253 -0.4931,0.4768 -1.2264,0.5338 -1.7403,0.1646 -0.5675,-0.4076 -0.6191,-0.8186 -0.6191,-1.7429zm-0.3573 0.7541c-0.4045,-0.0888 -0.3367,-0.3897 -0.3367,-0.8016l0.3377 0.011 0.0001 0.3064 -0.0011 0.4842zm3.8465 -0.6406c0,0.352 -0.0076,0.5998 -0.3415,0.6426l0 -0.5215 0.3415 -0.1211zm-4.5395 -0.2551l0.7713 1.2785c0.6999,1.0425 0.6392,0.5237 0.6323,1.3691l-1.77 1.1552c-0.3745,-0.0773 -0.4267,-0.0897 -0.6744,0.1352l-0.2394 0.6372c-0.1515,0.2419 -0.3045,0.4326 -0.4347,0.7335 -0.1237,0.2857 -0.2179,0.5654 -0.3307,0.8642 -0.2625,0.6959 -1.4641,4.1214 -1.2324,4.7135l0.4627 0.7269c0.0385,0.2263 -0.0587,0.5518 -0.0129,0.8236 0.1639,0.9724 1.2582,0.8316 1.8449,0.8316l5.3974 0c0.575,0.0001 1.232,0.0979 1.5119,-0.2817 0.3055,-0.4141 -0.1052,-0.0598 0.454,-0.4326 0.61,-0.4067 0.9759,-0.7461 1.4443,-1.2907 0.5377,-0.6253 0.8286,-1.7874 0.4823,-2.7936 -0.267,-0.7757 -0.7784,-1.782 -1.1835,-2.4392 -0.5356,-0.8689 -0.8545,-1.4092 -1.6359,-1.9504 -0.3355,-0.2323 -0.7652,-0.4366 -1.1246,-0.6879 -0.5313,-0.3714 -0.5655,-0.3395 -1.0375,-0.7834 0.0002,-0.3822 -0.0512,-0.3068 0.2233,-0.5177 0.283,-0.2175 0.3607,-0.451 0.5683,-0.8198 0.7782,-0.0963 0.7555,-0.4475 0.7773,-1.2061 0.0059,-0.2018 0.1966,-0.4338 0.2657,-0.7172 0.0721,-0.296 0.1052,-0.6309 0.0689,-0.943 -0.1806,-1.5519 -1.6752,-1.4375 -1.844,-1.6282 -0.9365,-1.0573 -3.4477,-0.0583 -3.8336,1.8208 -0.0566,0.2758 -0.0966,0.5933 0.0009,0.8546 0.1061,0.2839 0.2735,0.3759 0.4481,0.5476z"/>
   <path id="_374644920" class="fil1" d="M5.8196 7.7151c-0.0608,0.1312 0.0516,0.2483 0.1153,0.4132 0.427,1.1056 0.2866,2.3526 0.2841,3.6141 0.4351,0.3144 0.6939,0.5388 1.1094,0.8823 0.0131,0.4803 -0.2236,0.7218 -0.6848,0.7312 -0.1004,1.5799 0.0742,1.4752 -1.0315,1.5904l1.764 0.8195c0.848,0 1.6967,0.0034 2.5447,-0.0005 0.0483,-1.2777 -0.1409,-1.6501 0.9313,-1.647l-0.1174 -4.1931 0.1094 -0.1046 0.2615 0.4496c0.0053,0.2315 0.0176,0.4644 0.0206,0.6955l0.5256 0.6195c0.1591,0.2046 0.3324,0.4497 0.4702,0.6877 0.1566,0.2707 0.2269,0.5956 0.162,0.9349 -0.0811,0.4234 -0.2278,0.5067 -0.3824,0.724l-0.1861 0.0031 -0.0945 -0.1505 0.291 -0.5567c0.1645,-0.4239 -0.1498,-0.8939 -0.3859,-1.2066l-0.3533 -0.4339c-0.0042,-0.0156 -0.0191,-0.0131 -0.0286,-0.0196l0.0826 2.5497 0.7693 1.8212c0.6508,-0.501 1.3666,-0.9521 1.7487,-1.7256 0.4798,-0.9711 0.2025,-1.8747 -0.2043,-2.7424 -0.5411,-1.1542 -0.9021,-1.8104 -1.6033,-2.7534 -0.2826,-0.38 -0.9884,-0.8943 -1.4241,-1.0906 -0.3417,0.9077 -0.4681,1.3132 -0.9338,2.1869 -0.4031,0.7564 -0.5169,0.8347 -0.9565,1.3971 -0.0686,0.0878 -0.2589,0.3416 -0.4158,0.3075 -0.3242,-0.0703 -1.1564,-1.426 -1.3494,-1.7675 -0.2453,-0.4344 -0.5343,-1.1378 -0.7187,-1.6339 -0.1322,-0.356 -0.1098,-0.5001 -0.3193,-0.4015z"/>
   <path id="_376270960" class="fil1" d="M4.9769 14.4393c-0.0567,-0.0713 -0.3766,-0.2347 -0.3938,-0.6318l-0.0039 -1.0717c-0.1499,0.0642 -0.1258,0.0954 -0.2545,0.1897 -0.0989,0.0725 -0.1334,0.1188 -0.228,0.1955l-0.4184 -0.1241 0.7035 -0.5921c0.1816,-0.1332 0.1653,-0.1673 0.3058,-0.3503 0.1502,-0.1957 0.3288,-0.2812 0.3562,-0.3563 0.0002,-0.5526 0.0002,-1.1052 0.0002,-1.6578l-0.2202 -1.4555c-0.3963,0.3195 -1.2837,3.2384 -1.5017,3.9945 -0.1575,0.5463 -0.5753,1.7124 -0.2336,2.2112 0.4394,0.6413 1.5869,-0.0405 1.8884,-0.3513z"/>
   <path id="_376270816" class="fil1" d="M8.9182 4.8443l0.1077 0.1843c-0.1935,0.4661 -1.1428,0.4366 -1.346,0.0801 -0.0813,-0.1426 -0.0073,-0.2611 0.1229,-0.2737 0.181,-0.0177 0.1622,0.1101 0.3406,0.1625 0.4088,0.1202 0.4941,-0.1675 0.7748,-0.1532zm-0.2635 -0.6638c-0.1101,-0.441 0.2704,-0.4905 0.3364,-0.2639 0.1213,0.4168 -0.2762,0.5047 -0.3364,0.2639zm-0.7046 -0.374c0.1258,0.1451 0.1198,0.3294 0.0091,0.4837 -0.2184,0.0269 -0.2803,0.0034 -0.2861,-0.2248 -0.0059,-0.2364 0.0486,-0.2963 0.277,-0.2589zm-1.0078 -0.0116c0,0.9243 0.0516,1.3353 0.6191,1.7429 0.5139,0.3692 1.2472,0.3122 1.7403,-0.1646 0.5603,-0.5417 0.4247,-1.1172 0.4262,-1.9253 0.0015,-0.8511 -0.2522,-1.0339 -0.7245,-1.6496 -0.0768,0.2622 -0.1612,0.4917 -0.2909,0.7118 -0.3816,0.6476 -0.8694,1.0084 -1.596,1.1811 -0.1722,0.041 -0.113,-0.0068 -0.1742,0.1037z"/>
   <path id="_376270696" class="fil1" d="M4.9553 13.8571c0.1124,0.4378 1.185,0.3452 1.2904,0.1407 0.0726,-0.1409 0.0563,-1.3964 0.0412,-1.6412 -0.0207,-0.3338 -0.2669,-0.293 -0.5686,-0.2923 -0.2804,0.0006 -0.5819,-0.0418 -0.7102,0.1567 -0.1037,0.1604 -0.1117,1.4068 -0.0528,1.6361z"/>
   <path id="_376270768" class="fil1" d="M10.3053 16.4193c0.2625,0.2008 0.3107,0.1358 0.6947,0.137 0.2894,0.0008 0.5133,-0.0092 0.6006,-0.2483 0.0669,-0.1832 0.0512,-1.4992 -0.0283,-1.6344 -0.1364,-0.2321 -0.3364,-0.2 -0.6494,-0.1997 -0.2785,0.0002 -0.58,-0.0516 -0.6313,0.23 -0.0353,0.1938 -0.0151,1.4921 0.0137,1.7154z"/>
   <path id="_376271248" class="fil1" d="M6.2866 7.4062c0.1787,0.8782 1.0013,2.5194 1.5989,3.2822l0.3268 0.3934c0.2989,-0.1504 1.0438,-1.3808 1.1692,-1.6582l0.8016 -2.0047 -0.2626 -0.1506c-0.157,0.3316 -0.2507,0.8931 -0.6867,1.7758 -0.0785,0.1588 -0.5853,1.0829 -0.6746,1.1778l-0.3735 0.2836c-0.1362,-0.1099 -0.372,-0.5152 -0.4889,-0.7088 -0.5466,-0.9055 -0.6846,-1.4799 -1.0799,-2.5506 -0.1574,0.0538 -0.1866,0.1104 -0.3303,0.1601z"/>
   <path id="_376271368" class="fil1" d="M6.941 7.0333c0.0214,0.2687 0.1246,0.5684 0.2423,0.8084 0.1512,-0.0861 0.6559,-0.4316 0.7894,-0.5771 -0.1771,-0.2522 -0.3069,-0.3708 -0.5195,-0.595 -0.1323,0.0543 -0.414,0.2746 -0.5122,0.3637z"/>
   <path id="_376271512" class="fil1" d="M8.5443 7.2646c0.0484,0.0689 -0.0147,0.0127 0.0687,0.075l0.7292 0.5004 0.2363 -0.8067 -0.5061 -0.3656c-0.0555,0.0353 -0.0303,0.0083 -0.077,0.055l-0.4511 0.5419z"/>
   <path id="_376271680" class="fil2" d="M8.9182 4.8443c-0.2807,-0.0143 -0.366,0.2734 -0.7748,0.1532 -0.1784,-0.0524 -0.1596,-0.1802 -0.3406,-0.1625 -0.1302,0.0126 -0.2042,0.1311 -0.1229,0.2737 0.2032,0.3565 1.1525,0.386 1.346,-0.0801l-0.1077 -0.1843z"/>
   <path id="_376271704" class="fil1" d="M7.7249 6.3875c0.0717,0.1218 0.4104,0.5241 0.5379,0.6177 0.2996,-0.2368 0.4263,-0.5308 0.5908,-0.8491l-1.1287 0.2314z"/>
   <path id="_376271824" class="fil1" d="M8.7813 9.0943c0.1687,-0.1312 0.3528,-0.7221 0.4283,-0.9159l-0.5721 -0.364 0.1438 1.2799z"/>
   <path id="_376271896" class="fil1" d="M7.2952 8.1899l0.3929 0.9087 0.2085 -1.313c-0.1309,0.051 -0.2129,0.1137 -0.3171,0.1843l-0.2258 0.1582c-0.0059,0.0051 -0.0152,0.0142 -0.0203,0.019l-0.0382 0.0428z"/>
   <path id="_376272640" class="fil1" d="M6.585 4.549l0.0011 -0.4842 -0.0001 -0.3064 -0.3377 -0.011c0,0.4119 -0.0678,0.7128 0.3367,0.8016z"/>
   <path id="_376272832" class="fil3" d="M6.6524 13.0001c0.1739,-0.0052 0.1897,-0.04 0.299,-0.1288 0.0428,-0.3519 0.0474,-0.5117 -0.3078,-0.5274l0.0088 0.6562z"/>
   <path id="_376272472" class="fil3" d="M10.09 4.0295l0 0.5215c0.3339,-0.0428 0.3415,-0.2906 0.3415,-0.6426l-0.3415 0.1211z"/>
   <path id="_376272808" class="fil4" d="M8.6547 4.1805c0.0602,0.2408 0.4577,0.1529 0.3364,-0.2639 -0.066,-0.2266 -0.4465,-0.1771 -0.3364,0.2639z"/>
   <path id="_376272568" class="fil4" d="M7.9501 3.8065c-0.2284,-0.0374 -0.2829,0.0225 -0.277,0.2589 0.0058,0.2282 0.0677,0.2517 0.2861,0.2248 0.1107,-0.1543 0.1167,-0.3386 -0.0091,-0.4837z"/>
  </g>
 </g>
</svg>
