<?xml version="1.0" encoding="UTF-8"?>
<!DOCTYPE svg PUBLIC "-//W3C//DTD SVG 1.1//EN" "http://www.w3.org/Graphics/SVG/1.1/DTD/svg11.dtd">
<!-- Creator: CorelDRAW -->
<svg xmlns="http://www.w3.org/2000/svg" xml:space="preserve" width="16.9332mm" height="16.9332mm" style="shape-rendering:geometricPrecision; text-rendering:geometricPrecision; image-rendering:optimizeQuality; fill-rule:evenodd; clip-rule:evenodd"
viewBox="0 0 16.9332 16.9332"
 xmlns:xlink="http://www.w3.org/1999/xlink">
 <defs>
  <style type="text/css">
   <![CDATA[
    .fil0 {fill:black}
    .fil1 {fill:#F3F2F7}
   ]]>
  </style>
 </defs>
 <g id="Capa_x0020_1">
  <metadata id="CorelCorpID_0Corel-Layer"/>
  <g id="_419900152">
   <path id="_415376872" class="fil0" d="M11.2638 16.5416c-0.0758,-0.709 0.0219,-1.0366 0.1661,-1.6709 0.1044,0.0477 0.9517,0.7007 0.9539,0.7046 0.0412,0.2885 0.0313,0.4219 0.2503,0.5261l0.4633 0.3673c-0.2131,0.1353 -0.5501,0.0842 -0.8534,0.0842 -0.2747,0 -0.728,0.0263 -0.9802,-0.0113zm-0.0471 -2.0833l-0.0298 -1.8823c0.0854,-0.114 0.1639,-0.1711 0.2483,-0.3037l0.1885 -0.3508c0.1294,0.0639 0.1129,0.0765 0.2303,0.1907 0.0821,0.08 0.1512,0.116 0.2359,0.1918l0.4555 0.4271c-0.0771,0.2024 -1.1648,1.4788 -1.3287,1.7272zm-4.6228 -2.0374c-0.084,0.2189 -0.2138,0.4551 -0.3154,0.665 -0.1256,0.2594 -0.1853,0.4939 -0.472,0.5359 -0.2499,0.0366 -1.1,-0.3817 -1.0748,-0.9268 0.0086,-0.183 0.6097,-1.7418 1.5785,-0.9315 0.1709,0.143 0.3967,0.3628 0.2837,0.6574zm4.7009 -1.6953c-0.0763,0.2878 0.104,0.6229 0.0127,0.9904l-0.4661 0.6579 0.029 2.8002 -0.623 0.5042 -3.3148 0c-0.7854,-0.0002 -0.6191,-0.528 -0.5848,-1.5515 0.0132,-0.3958 -0.0257,-0.3423 0.133,-0.6447 0.2591,-0.4936 0.7286,-1.2148 0.3876,-1.6557 -0.3563,-0.4607 -0.4142,-0.1737 -0.389,-1.0343l0.0846 -1.1129c0.4072,0.6307 0.4917,1.2974 1.4311,2.416 0.3189,0.3797 0.2966,0.329 0.7287,0.5886 0.5974,-0.6059 0.9055,-0.8931 1.366,-1.7196 0.3553,-0.6377 0.6065,-1.1669 0.8663,-1.8478 0.0633,-0.1658 0.0301,-0.1405 0.1249,-0.2739 0.3527,0.1945 1.8769,1.7775 2.1379,2.1007 0.2935,0.3638 1.0857,1.2288 1.1121,1.7121 0.0255,0.4683 -0.2479,0.7189 -0.4551,0.9708 -0.4307,0.5237 -0.8632,1.0507 -1.2663,1.6062 -0.1561,-0.0455 -0.7678,-0.529 -0.9583,-0.6641 0.0272,-0.0836 1.199,-1.6442 1.3649,-1.8759 -0.0794,-0.2682 -1.2016,-1.0429 -1.3111,-1.2286l-0.162 -0.7578 -0.2483 0.0197zm-6.1296 0.6071c-0.7087,0.6191 -0.8045,1.4173 -0.8532,1.4917 -0.5623,0.8603 -0.5007,0.2982 -0.5563,1.2922 0.2223,-0.1939 0.5008,-0.7007 0.7344,-0.8942 0.388,0.4218 0.4749,0.4331 0.9508,0.7238 -0.104,0.177 -0.2106,0.2413 -0.3424,0.4014 -0.3326,0.4039 -0.8075,1.0059 -1.2726,1.0888 -0.5092,0.0907 -0.8924,-0.1733 -1.0732,-0.4636 -0.2618,-0.4201 -0.1651,-0.8141 0.0357,-1.2288 0.9161,-1.8919 1.2739,-2.2766 2.4498,-3.9113l-0.073 1.5zm4.0231 -2.3438c0.0924,0.0613 0.4081,0.2799 0.5038,0.3196 -0.0492,0.2035 -0.3067,0.7541 -0.4209,0.8643l-0.0829 -1.1839zm-1.1701 1.1186c-0.0545,-0.067 0.0231,0.0588 -0.0556,-0.0732 -0.1014,-0.1702 -0.2491,-0.5306 -0.3245,-0.7136l0.5407 -0.361c-0.0241,0.2786 -0.0675,0.9413 -0.1606,1.1478zm0.6203 2.1594c-0.6696,-0.5386 -1.3907,-1.8909 -1.753,-2.784 -0.0803,-0.1979 -0.3174,-0.6616 -0.1863,-0.9001l0.1946 -0.1937c0.1011,0.1869 0.2205,0.666 0.3253,0.9157 0.123,0.2931 0.247,0.5755 0.3977,0.8433 1.0553,1.8759 1.0152,1.7712 1.6027,0.8387 0.6088,-0.9661 0.7563,-1.5194 1.1979,-2.616l0.3281 0.1985c-0.1253,0.8315 -1.4927,3.362 -2.107,3.6976zm1.2142 -3.293l-0.9088 -0.5749 0.4756 -0.6423 0.6639 0.3996c-0.0117,0.2312 -0.1601,0.6206 -0.2307,0.8176zm-2.6099 -0.8176l0.7053 -0.3959 0.439 0.6004 -0.9136 0.6191c-0.0496,-0.1835 -0.2407,-0.6363 -0.2307,-0.8236zm0.9105 -0.9541l1.0288 -0.2277c-0.0032,0.6105 0.0612,0.3995 -0.5082,1.1305 -0.0635,-0.0464 -0.3923,-0.4628 -0.4634,-0.5677 -0.0836,-0.1233 -0.0559,-0.1647 -0.0572,-0.3351zm1.7452 -1.7598c-0.1122,0.7621 -0.8909,1.4195 -1.7617,1.0423 -0.8037,-0.3482 -0.8323,-1.1777 -0.762,-2.2062 0.0981,-1.4369 2.1802,-1.4782 2.4936,-0.259 0.0582,0.2261 0.0648,1.1876 0.0301,1.4229zm0.3737 -0.1065l0.0006 -0.7877 0.3042 -0.2324c0.2065,0.1401 0.1816,0.3484 0.1642,0.6631 -0.0182,0.3307 -0.1387,0.3584 -0.469,0.357zm-3.2197 -0.0003c-0.43,0.0033 -0.5311,-0.1762 -0.4564,-0.776 0.0184,-0.1481 0.0588,-0.1449 0.1287,-0.2454l0.332 0.2176 -0.0043 0.8038zm-0.5252 -1.3277c-0.111,0.1157 -0.2389,0.2137 -0.2807,0.4353 -0.0222,0.1175 -0.0205,0.5625 -0.0038,0.686l0.8424 0.575 0.7006 1.0059 0.0019 0.724 -1.1652 0.6871c-0.4871,-0.3141 -0.7785,0.1364 -0.9932,0.3994 -0.1815,0.2223 -0.1634,0.2696 -0.2534,0.5609 -0.0488,0.1581 -0.2436,0.3127 -0.3628,0.4497 -0.4536,0.5211 -0.9765,1.3428 -1.3561,1.9401 -0.3986,0.6273 -0.8428,1.4207 -1.156,2.1397 -0.1933,0.4438 -0.3467,0.796 -0.1401,1.3274 0.1814,0.4666 0.4231,0.5554 0.8316,0.8303 -0.0183,1.3786 1.2563,1.1504 2.1505,1.1504l7.4052 0.0006c0.876,-0.0007 0.7083,-0.762 0.5387,-0.89l-0.5639 -0.2817c0.0068,-0.2185 0.6532,-0.9223 0.7867,-1.0921 0.2941,-0.3739 0.5755,-0.7108 0.8649,-1.0731 0.7179,-0.8989 -0.0398,-1.703 -0.4791,-2.3082 -0.2695,-0.3713 -0.795,-0.9794 -1.1067,-1.2984 -0.1815,-0.1857 -0.3084,-0.2867 -0.4863,-0.4829 -0.2969,-0.3273 -1.1862,-1.0566 -1.5639,-1.3059l-1.1877 -0.7678 0.0062 -0.5876 0.1329 0.1191c0.5725,0.5778 1.1044,0.4591 1.7232,0.3361 0.1579,-0.0314 1.8496,0.4819 2.0857,-1.2433 0.0949,-0.6937 -0.1774,-1.0113 -0.5866,-1.3769 0.0471,-0.3812 0.2087,-0.536 0.0834,-1.022l-0.4495 -0.7226c0.025,-0.2559 0.1445,-0.393 0.1303,-0.7378 -0.026,-0.6351 -0.377,-0.8301 -0.6065,-1.1049 -0.3265,-0.3909 -0.5696,-1.0201 -1.57,-1.0759 -0.8722,-0.0486 -1.0638,0.3854 -1.3707,0.3339 -1.0016,-0.1679 -1.8371,0.1832 -2.4043,0.9425 -0.3847,0.5148 -0.5871,1.3575 -0.4403,2.059 0.0597,0.2856 0.1732,0.4296 0.2426,0.6687z"/>
   <path id="_415533688" class="fil1" d="M11.5431 10.7059l0.162 0.7578c0.1095,0.1857 1.2317,0.9604 1.3111,1.2286 -0.1659,0.2317 -1.3377,1.7923 -1.3649,1.8759 0.1905,0.1351 0.8022,0.6186 0.9583,0.6641 0.4031,-0.5555 0.8356,-1.0825 1.2663,-1.6062 0.2072,-0.2519 0.4806,-0.5025 0.4551,-0.9708 -0.0264,-0.4833 -0.8186,-1.3483 -1.1121,-1.7121 -0.261,-0.3232 -1.7852,-1.9062 -2.1379,-2.1007 -0.0948,0.1334 -0.0616,0.1081 -0.1249,0.2739 -0.2598,0.6809 -0.511,1.2101 -0.8663,1.8478 -0.4605,0.8265 -0.7686,1.1137 -1.366,1.7196 -0.4321,-0.2596 -0.4098,-0.2089 -0.7287,-0.5886 -0.9394,-1.1186 -1.0239,-1.7853 -1.4311,-2.416l-0.0846 1.1129c-0.0252,0.8606 0.0327,0.5736 0.389,1.0343 0.341,0.4409 -0.1285,1.1621 -0.3876,1.6557 -0.1587,0.3024 -0.1198,0.2489 -0.133,0.6447 -0.0343,1.0235 -0.2006,1.5513 0.5848,1.5515l3.3148 0 0.623 -0.5042 -0.029 -2.8002 0.4661 -0.6579c0.0913,-0.3675 -0.089,-0.7026 -0.0127,-0.9904l0.2483 -0.0197z"/>
   <path id="_415386904" class="fil1" d="M5.2382 9.8327c-1.1759,1.6347 -1.5337,2.0194 -2.4498,3.9113 -0.2008,0.4147 -0.2975,0.8087 -0.0357,1.2288 0.1808,0.2903 0.564,0.5543 1.0732,0.4636 0.4651,-0.0829 0.94,-0.6849 1.2726,-1.0888 0.1318,-0.1601 0.2384,-0.2244 0.3424,-0.4014 -0.4759,-0.2907 -0.5628,-0.302 -0.9508,-0.7238 -0.2336,0.1935 -0.5121,0.7003 -0.7344,0.8942 0.0556,-0.994 -0.006,-0.4319 0.5563,-1.2922 0.0487,-0.0744 0.1445,-0.8726 0.8532,-1.4917l0.073 -1.5z"/>
   <path id="_419898640" class="fil1" d="M9.3284 5.5989c0.0837,0.5919 -1.1809,0.595 -1.3411,0.1778 -0.0701,-0.1826 0.0723,-0.3072 0.2346,-0.2301 0.1161,0.0551 0.1101,0.1415 0.341,0.1615 0.4711,0.0409 0.4715,-0.3132 0.7655,-0.1092zm-0.2904 -1.0512c0.2641,-0.1415 0.3252,0.3489 0.1728,0.4599 -0.2158,0.1572 -0.3286,-0.1449 -0.2744,-0.3415 0.0329,-0.1197 0.028,-0.079 0.1016,-0.1184zm-0.9723 0.3907c-0.0414,-0.2595 -0.0374,-0.2669 0.087,-0.4044 0.287,-0.0311 0.2763,0.16 0.2409,0.4033 -0.1543,0.1582 -0.1892,0.14 -0.3279,0.0011zm1.8328 0.504c0.0347,-0.2353 0.0281,-1.1968 -0.0301,-1.4229 -0.3134,-1.2192 -2.3955,-1.1779 -2.4936,0.259 -0.0703,1.0285 -0.0417,1.858 0.762,2.2062 0.8708,0.3772 1.6495,-0.2802 1.7617,-1.0423z"/>
   <path id="_419899096" class="fil1" d="M8.6385 12.2669c0.6143,-0.3356 1.9817,-2.8661 2.107,-3.6976l-0.3281 -0.1985c-0.4416,1.0966 -0.5891,1.6499 -1.1979,2.616 -0.5875,0.9325 -0.5474,1.0372 -1.6027,-0.8387 -0.1507,-0.2678 -0.2747,-0.5502 -0.3977,-0.8433 -0.1048,-0.2497 -0.2242,-0.7288 -0.3253,-0.9157l-0.1946 0.1937c-0.1311,0.2385 0.106,0.7022 0.1863,0.9001 0.3623,0.8931 1.0834,2.2454 1.753,2.784z"/>
   <path id="_419899144" class="fil1" d="M6.5939 12.4209c0.113,-0.2946 -0.1128,-0.5144 -0.2837,-0.6574 -0.9688,-0.8103 -1.5699,0.7485 -1.5785,0.9315 -0.0252,0.5451 0.8249,0.9634 1.0748,0.9268 0.2867,-0.042 0.3464,-0.2765 0.472,-0.5359 0.1016,-0.2099 0.2314,-0.4461 0.3154,-0.665z"/>
   <path id="_419899288" class="fil1" d="M11.2638 16.5416c0.2522,0.0376 0.7055,0.0113 0.9802,0.0113 0.3033,0 0.6403,0.0511 0.8534,-0.0842l-0.4633 -0.3673c-0.219,-0.1042 -0.2091,-0.2376 -0.2503,-0.5261 -0.0022,-0.0039 -0.8495,-0.6569 -0.9539,-0.7046 -0.1442,0.6343 -0.2419,0.9619 -0.1661,1.6709z"/>
   <path id="_419900056" class="fil1" d="M11.2167 14.4583c0.1639,-0.2484 1.2516,-1.5248 1.3287,-1.7272l-0.4555 -0.4271c-0.0847,-0.0758 -0.1538,-0.1118 -0.2359,-0.1918 -0.1174,-0.1142 -0.1009,-0.1268 -0.2303,-0.1907l-0.1885 0.3508c-0.0844,0.1326 -0.1629,0.1897 -0.2483,0.3037l0.0298 1.8823z"/>
   <path id="_419899768" class="fil1" d="M9.8527 8.9739c0.0706,-0.197 0.219,-0.5864 0.2307,-0.8176l-0.6639 -0.3996 -0.4756 0.6423 0.9088 0.5749z"/>
   <path id="_419899888" class="fil1" d="M7.2428 8.1563c-0.01,0.1873 0.1811,0.6401 0.2307,0.8236l0.9136 -0.6191 -0.439 -0.6004 -0.7053 0.3959z"/>
   <path id="_419899432" class="fil1" d="M8.1533 7.2022c0.0013,0.1704 -0.0264,0.2118 0.0572,0.3351 0.0711,0.1049 0.3999,0.5213 0.4634,0.5677 0.5694,-0.731 0.505,-0.52 0.5082,-1.1305l-1.0288 0.2277z"/>
   <path id="_419899720" class="fil0" d="M9.3284 5.5989c-0.294,-0.204 -0.2944,0.1501 -0.7655,0.1092 -0.2309,-0.02 -0.2249,-0.1064 -0.341,-0.1615 -0.1623,-0.0771 -0.3047,0.0475 -0.2346,0.2301 0.1602,0.4172 1.4248,0.4141 1.3411,-0.1778z"/>
   <path id="_419900128" class="fil1" d="M10.2722 5.3359c0.3303,0.0014 0.4508,-0.0263 0.469,-0.357 0.0174,-0.3147 0.0423,-0.523 -0.1642,-0.6631l-0.3042 0.2324 -0.0006 0.7877z"/>
   <path id="_419899648" class="fil1" d="M7.0525 5.3356l0.0043 -0.8038 -0.332 -0.2176c-0.0699,0.1005 -0.1103,0.0973 -0.1287,0.2454 -0.0747,0.5998 0.0264,0.7793 0.4564,0.776z"/>
   <path id="_419900488" class="fil1" d="M8.0182 10.1075c0.0931,-0.2065 0.1365,-0.8692 0.1606,-1.1478l-0.5407 0.361c0.0754,0.183 0.2231,0.5434 0.3245,0.7136 0.0787,0.132 0.0011,0.0062 0.0556,0.0732z"/>
   <path id="_419900656" class="fil1" d="M9.2712 10.1728c0.1142,-0.1102 0.3717,-0.6608 0.4209,-0.8643 -0.0957,-0.0397 -0.4114,-0.2583 -0.5038,-0.3196l0.0829 1.1839z"/>
   <path id="_419900704" class="fil0" d="M9.038 4.5477c-0.0736,0.0394 -0.0687,-0.0013 -0.1016,0.1184 -0.0542,0.1966 0.0586,0.4987 0.2744,0.3415 0.1524,-0.111 0.0913,-0.6014 -0.1728,-0.4599z"/>
   <path id="_419900776" class="fil0" d="M8.0657 4.9384c0.1387,0.1389 0.1736,0.1571 0.3279,-0.0011 0.0354,-0.2433 0.0461,-0.4344 -0.2409,-0.4033 -0.1244,0.1375 -0.1284,0.1449 -0.087,0.4044z"/>
  </g>
 </g>
</svg>
