<?xml version="1.0" encoding="UTF-8"?>
<!DOCTYPE svg PUBLIC "-//W3C//DTD SVG 1.1//EN" "http://www.w3.org/Graphics/SVG/1.1/DTD/svg11.dtd">
<!-- Creator: CorelDRAW -->
<svg xmlns="http://www.w3.org/2000/svg" xml:space="preserve" width="16.9332mm" height="16.9332mm" style="shape-rendering:geometricPrecision; text-rendering:geometricPrecision; image-rendering:optimizeQuality; fill-rule:evenodd; clip-rule:evenodd"
viewBox="0 0 16.9332 16.9332"
 xmlns:xlink="http://www.w3.org/1999/xlink">
 <defs>
  <style type="text/css">
   <![CDATA[
    .fil0 {fill:black}
    .fil1 {fill:#F3F2F7}
   ]]>
  </style>
 </defs>
 <g id="Capa_x0020_1">
  <metadata id="CorelCorpID_0Corel-Layer"/>
  <g id="_415379248">
   <path id="_374636952" class="fil0" d="M11.0518 16.5738c-0.4159,0.0015 -1.3928,0.052 -1.7462,-0.0081 -0.5386,-0.0916 -0.3368,-0.8799 -0.046,-1.1553 0.3962,-0.3752 1.9862,-0.6536 1.7922,1.1634zm-0.4796 -2.2935l-0.5354 0.0634 -0.0016 -2.8529c0.0049,-0.4826 0.2619,-0.7285 0.7373,-0.7281l0.7373 0.7281 0 2.0952 -0.5473 0.4252 -0.0636 -2.6825c-0.3542,-0.0888 -0.3138,0.1173 -0.3114,0.4329 0.0039,0.5259 0.0316,2.2074 -0.0153,2.5187zm-3.9069 -4.9686l-0.5163 -0.9637c0.1068,-0.1218 0.4918,-0.3639 0.6859,-0.4423l-0.1696 1.406zm0.9872 -1.4316l0.7214 0.4679c-0.0489,0.1653 -0.1567,0.3608 -0.2353,0.5085 -0.1991,0.3744 -0.1626,0.3267 -0.2772,0.4756l-0.2089 -1.452zm-2.6878 -0.3411l0.4081 -0.1989c0.3389,1.1184 0.8545,2.0721 1.5329,2.9731 0.0783,0.104 0.204,0.3216 0.3387,0.3318 0.1888,0.0143 0.5059,-0.5047 0.6152,-0.6703 0.6992,-1.0588 0.7753,-1.4299 1.295,-2.6403l0.3458 0.1988c-0.0602,0.5457 -1.0669,2.4166 -1.5189,2.951l-0.74 0.7912c-0.9342,-0.6715 -1.8808,-2.5753 -2.2768,-3.7364zm2.6181 -0.161c0.0977,-0.2116 0.419,-0.4372 0.5794,-0.6243l0.6488 0.3819 -0.246 0.8448 -0.9822 -0.6024zm-1.8662 -0.2328c0.1145,-0.0886 0.4985,-0.3479 0.6325,-0.3797l0.5914 0.6125 -0.935 0.6089c-0.1405,-0.1886 -0.2768,-0.6296 -0.2889,-0.8417zm2.2475 -0.9572c-0.4803,0.9733 -0.1792,0.3533 -0.673,0.9625l-0.6838 -0.6836 1.3568 -0.2789zm-1.8831 -3.7445c0.1429,-0.0513 0.5005,0.0884 0.7003,0.1152 1.4603,0.1964 1.5627,-0.5483 1.9948,0.258 0.2506,0.4677 0.2013,0.9972 0.1929,1.5741 -0.0076,0.5277 -0.2435,0.9429 -0.5845,1.1445 -0.6206,0.3668 -2.1021,0.4174 -2.599,-0.3489 -0.412,-0.6356 -0.3252,-2.5199 0.2955,-2.7429zm-0.8566 2.3467c-0.3311,-0.0568 -0.411,-0.2367 -0.4109,-0.5939 0.0002,-0.3289 0.0878,-0.5147 0.3656,-0.5902l0.0453 1.1841zm4.1215 -1.1843c0.2867,0.0875 0.3779,0.2788 0.3702,0.6292 -0.0071,0.3255 -0.118,0.5034 -0.4008,0.555l0.0306 -1.1842zm-3.638 2.0468c0.1517,0.159 0.317,0.1995 0.4605,0.3285 -0.3588,0.7419 -0.1768,0.5766 -0.8868,0.9903 -1.6806,0.9791 -2.4657,0.8252 -2.5308,3.0448l-0.1881 6.3452c-0.0119,0.3134 -0.0859,0.6599 0.3074,0.5344l0.1173 -2.6369c0.0341,-0.8534 0.0683,-4.739 0.2269,-5.2422 0.2033,-0.645 0.8671,-1.1249 1.4238,-1.2928l1.0479 2.2181c0.2145,0.3975 1.1281,1.6134 1.5168,1.7611l0.5107 -0.3613c0.7736,-0.6526 1.8223,-2.6552 2.1257,-3.6209l1.1767 0.8094c0.0283,0.0268 2.8689,4.6758 2.9313,4.8285 0.305,0.7474 -0.3649,1.3168 -0.6692,1.6845 -0.0892,0.1077 -0.1136,0.1491 -0.2141,0.2516l-0.687 0.788c-0.2424,0.3084 -0.4863,0.4895 -0.9376,0.4903 -0.1105,-1.1159 0.0126,-0.9403 -0.5261,-1.5516 0.2109,-0.2327 0.6615,-0.7468 0.866,-0.933l0.6503 -0.6699c0.0933,-0.1019 0.1554,-0.1499 0.0543,-0.3002l-0.5995 0.2391 -0.261 -2.6017c-0.5487,-0.5794 -1.5956,-0.452 -1.8835,0.285 -0.1519,0.3889 0.095,0.3459 -0.3636,0.3692 -0.8206,0.0415 -0.6797,0.9004 -0.6797,1.4386 0,0.4577 0.0518,2.5853 -0.0374,2.8568l-2.31 0.0054c-2.3934,0.0028 -1.9028,0.0942 -1.9854,-2.6682 -0.013,-0.4351 0.0297,-1.9867 -0.0708,-2.2525l-0.2716 0.0007 -0.0101 3.183c0.0064,2.0674 0.1764,1.3997 0.2797,1.7897 0.0251,0.095 0.0107,0.6754 0.0094,0.8124 -0.0017,0.1825 -0.0313,0.2147 0.0807,0.3049 0.1114,0.0402 6.0571,0.0521 6.7018,0.0522 0.6405,0.0001 0.9787,-0.0103 1.344,-0.3732 0.2451,-0.2435 0.9247,-1.045 1.1805,-1.3427 0.1482,-0.1725 0.2584,-0.2755 0.3987,-0.454 0.7821,-0.9947 0.1699,-1.7279 -0.2307,-2.3953 -0.4218,-0.7028 -2.2772,-3.8551 -2.5733,-4.178 -0.3114,-0.3395 -0.5046,-0.4298 -0.9923,-0.6746 -0.6362,-0.3194 -1.0227,-0.5477 -1.5995,-0.9227 -0.3199,-0.208 -0.262,-0.1087 -0.263,-0.5727 0.1898,-0.1856 0.0701,-0.0817 0.2528,-0.1922 0.2095,-0.1267 0.4527,-0.4023 0.5589,-0.6488l0.6277 -0.2218c0.3233,-0.1963 0.3771,-0.9764 0.1781,-1.3117 -0.1403,-0.2364 -0.2531,-0.2206 -0.4159,-0.3804 0.1223,-0.5024 0.2133,-0.7011 0.1279,-1.3109 -0.0591,-0.4224 -0.1983,-0.7889 -0.4053,-1.0688 -0.8776,-1.1869 -3.1697,-1.182 -4.0358,0.0235 -0.2132,0.2967 -0.3397,0.6593 -0.3945,1.0801 -0.0765,0.586 0.0134,0.7923 0.1316,1.2761 -0.4056,0.382 -0.602,0.4344 -0.5157,1.1591 0.062,0.5206 0.3999,0.6675 0.906,0.7545l0.3449 0.474z"/>
   <path id="_415387144" class="fil1" d="M6.6345 4.6339c0.1713,-0.0524 0.199,0.1007 0.4018,0.1632 0.48,0.1479 0.5919,-0.2031 0.8961,-0.1639 0.3547,0.5092 -0.8893,0.7581 -1.3168,0.3436 -0.1032,-0.1001 -0.1521,-0.2907 0.0189,-0.3429zm1.0985 -0.6258c-0.2621,-0.6069 0.4278,-0.7381 0.2733,-0.0497 -0.1001,0.0626 -0.1261,0.0749 -0.2733,0.0497zm-1.2114 -0.0567c-0.1788,-0.6735 0.5423,-0.5153 0.2906,0.0122 -0.1305,0.0963 -0.1999,0.0526 -0.2906,-0.0122zm-0.4406 -1.5079c-0.6207,0.223 -0.7075,2.1073 -0.2955,2.7429 0.4969,0.7663 1.9784,0.7157 2.599,0.3489 0.341,-0.2016 0.5769,-0.6168 0.5845,-1.1445 0.0084,-0.5769 0.0577,-1.1064 -0.1929,-1.5741 -0.4321,-0.8063 -0.5345,-0.0616 -1.9948,-0.258 -0.1998,-0.0268 -0.5574,-0.1665 -0.7003,-0.1152z"/>
   <path id="_415376992" class="fil1" d="M10.5722 14.2803c0.0469,-0.3113 0.0192,-1.9928 0.0153,-2.5187 -0.0024,-0.3156 -0.0428,-0.5217 0.3114,-0.4329l0.0636 2.6825 0.5473 -0.4252 0 -2.0952 -0.7373 -0.7281c-0.4754,-0.0004 -0.7324,0.2455 -0.7373,0.7281l0.0016 2.8529 0.5354 -0.0634z"/>
   <path id="_415377088" class="fil1" d="M9.5004 7.5332l-0.3458 -0.1988c-0.5197,1.2104 -0.5958,1.5815 -1.295,2.6403 -0.1093,0.1656 -0.4264,0.6846 -0.6152,0.6703 -0.1347,-0.0102 -0.2604,-0.2278 -0.3387,-0.3318 -0.6784,-0.901 -1.194,-1.8547 -1.5329,-2.9731l-0.4081 0.1989c0.396,1.1611 1.3426,3.0649 2.2768,3.7364l0.74 -0.7912c0.452,-0.5344 1.4587,-2.4053 1.5189,-2.951z"/>
   <path id="_415376824" class="fil1" d="M11.0518 16.5738c0.194,-1.817 -1.396,-1.5386 -1.7922,-1.1634 -0.2908,0.2754 -0.4926,1.0637 0.046,1.1553 0.3534,0.0601 1.3303,0.0096 1.7462,0.0081z"/>
   <path id="_415378168" class="fil1" d="M5.7166 7.1452c0.0121,0.2121 0.1484,0.6531 0.2889,0.8417l0.935 -0.6089 -0.5914 -0.6125c-0.134,0.0318 -0.518,0.2911 -0.6325,0.3797z"/>
   <path id="_415377712" class="fil1" d="M7.5828 7.378l0.9822 0.6024 0.246 -0.8448 -0.6488 -0.3819c-0.1604,0.1871 -0.4817,0.4127 -0.5794,0.6243z"/>
   <path id="_415378288" class="fil1" d="M6.6073 6.4669l0.6838 0.6836c0.4938,-0.6092 0.1927,0.0108 0.673,-0.9625l-1.3568 0.2789z"/>
   <path id="_415377664" class="fil0" d="M7.9324 4.6332c-0.3042,-0.0392 -0.4161,0.3118 -0.8961,0.1639 -0.2028,-0.0625 -0.2305,-0.2156 -0.4018,-0.1632 -0.171,0.0522 -0.1221,0.2428 -0.0189,0.3429 0.4275,0.4145 1.6715,0.1656 1.3168,-0.3436z"/>
   <path id="_415378312" class="fil1" d="M7.8614 9.3321c0.1146,-0.1489 0.0781,-0.1012 0.2772,-0.4756 0.0786,-0.1477 0.1864,-0.3432 0.2353,-0.5085l-0.7214 -0.4679 0.2089 1.452z"/>
   <path id="_415378336" class="fil1" d="M6.8349 7.9057c-0.1941,0.0784 -0.5791,0.3205 -0.6859,0.4423l0.5163 0.9637 0.1696 -1.406z"/>
   <path id="_415378840" class="fil1" d="M5.2244 4.7902l-0.0453 -1.1841c-0.2778,0.0755 -0.3654,0.2613 -0.3656,0.5902 -0.0001,0.3572 0.0798,0.5371 0.4109,0.5939z"/>
   <path id="_415378384" class="fil1" d="M9.3153 4.7901c0.2828,-0.0516 0.3937,-0.2295 0.4008,-0.555 0.0077,-0.3504 -0.0835,-0.5417 -0.3702,-0.6292l-0.0306 1.1842z"/>
   <path id="_415378768" class="fil0" d="M6.5216 3.9514c0.0907,0.0648 0.1601,0.1085 0.2906,0.0122 0.2517,-0.5275 -0.4694,-0.6857 -0.2906,-0.0122z"/>
   <path id="_415379056" class="fil0" d="M7.733 4.0081c0.1472,0.0252 0.1732,0.0129 0.2733,-0.0497 0.1545,-0.6884 -0.5354,-0.5572 -0.2733,0.0497z"/>
  </g>
 </g>
</svg>
