<?xml version="1.0" encoding="UTF-8"?>
<!DOCTYPE svg PUBLIC "-//W3C//DTD SVG 1.1//EN" "http://www.w3.org/Graphics/SVG/1.1/DTD/svg11.dtd">
<!-- Creator: CorelDRAW -->
<svg xmlns="http://www.w3.org/2000/svg" xml:space="preserve" width="16.9332mm" height="16.9332mm" style="shape-rendering:geometricPrecision; text-rendering:geometricPrecision; image-rendering:optimizeQuality; fill-rule:evenodd; clip-rule:evenodd"
viewBox="0 0 16.9332 16.9332"
 xmlns:xlink="http://www.w3.org/1999/xlink">
 <defs>
  <style type="text/css">
   <![CDATA[
    .fil0 {fill:black}
    .fil2 {fill:#020202}
    .fil3 {fill:#7A7A7A}
    .fil1 {fill:#F2F2F5}
   ]]>
  </style>
 </defs>
 <g id="Capa_x0020_1">
  <metadata id="CorelCorpID_0Corel-Layer"/>
  <g id="_415386760">
   <path id="_415505152" class="fil0" d="M10.0541 15.2477l0.0392 0 0 0.0392 0.0784 0 0 0.0393 0.0392 0 0 0.0391 0.0392 0 0 0.0392 0.0392 0 0 0.0784 0.0392 0 0 0.0784 0.0392 0 0 0.6664 -0.0392 0 0 0.1176 -0.0392 0 0 0.0392 -0.0392 0 0 0.0392 -0.0392 0 0 0.0392 -0.0392 0 0 0.0392 -0.0392 0 0 0.0392 -0.1176 0 0 0.0784 -0.7055 0 0 -1.4111 0.7447 0 0 0.0391zm-3.763 -3.9981l0.0392 0 0 -0.0392 0.0392 0 0 -0.0392 0.0392 0 0 -0.0392 0.0392 0 0 -0.0392 0.0784 0 0 -0.0392 2.9791 0 0 3.8022 -3.2143 0 0 -3.6062zm-0.0391 -0.4312l-0.0393 0 0 0.0392 -0.0783 0 0 0.0392 -0.0393 0 0 0.0392 -0.0391 0 0 0.0784 -0.0392 0 0 0.0784 -0.0392 0 0 0.0784 -0.0392 0 0 0.196 -0.0392 0 0 3.4886 -0.196 0 0 0.0392 -0.0392 0 0 0.2351 0.0392 0 0 0.0393 0.0784 0 0 0.0392 3.175 0 0 1.3719 -3.5278 0 0 -0.0392 -0.1176 0 0 -0.0392 -0.0784 0 0 -0.0392 -0.0784 0 0 -0.0392 -0.0784 0 0 -0.0392 -0.0392 0 0 -0.0392 -0.0392 0 0 -0.0392 -0.0784 0 0 -0.0392 -0.0392 0 0 -0.0392 -0.0392 0 0 -0.0784 -0.0392 0 0 -0.0392 -0.0391 0 0 -0.0392 -0.0393 0 0 -0.0784 -0.0392 0 0 -0.0784 -0.0391 0 0 -0.1176 -0.0393 0 0 -0.1176 -0.0392 0 0 -0.4312 0.0392 0 0 -0.5095 0.0393 0 0 -0.7056 0.0391 0 0 -0.6663 0.0392 0 0 -0.8624 0.0393 0 0 -0.5096 0.0391 0 0 -0.8623 0.0392 0 0 -0.7447 0.0392 0 0 -0.3136 0.0392 0 0 -0.1176 0.0392 0 0 -0.1568 0.0392 0 0 -0.1176 0.0392 0 0 -0.1176 0.0392 0 0 -0.0784 0.0392 0 0 -0.0784 0.0392 0 0 -0.0784 0.0392 0 0 -0.0784 0.0392 0 0 -0.0392 0.0392 0 0 -0.0784 0.0392 0 0 -0.0392 0.0392 0 0 -0.0783 0.0392 0 0 -0.0393 0.0392 0 0 -0.0391 0.0392 0 0 -0.0392 0.0392 0 0 0.0783 0.0392 0 0 0.1176 0.0392 0 0 0.0785 0.0392 0 0 0.1176 0.0392 0 0 0.1175 0.0392 0 0 0.0784 0.0392 0 0 0.1176 0.0392 0 0 0.0784 0.0392 0 0 0.1176 0.0392 0 0 0.0784 0.0392 0 0 0.0784 0.0392 0 0 0.0784 0.0392 0 0 0.0784 0.0392 0 0 0.1176 0.0392 0 0 0.0784 0.0391 0 0 0.0784 0.0393 0 0 0.0784 0.0391 0 0 0.0784 0.0392 0 0 0.0783 0.0393 0 0 0.0785 0.0391 0 0 0.0783 -0.0391 0 0 0.0392zm1.2151 -1.2151l-0.0392 0 0 0.392 -0.0392 0 0 0.3528 -0.0392 0 0 -0.0392 -0.0392 0 0 -0.0784 -0.0392 0 0 -0.0784 -0.0392 0 0 -0.0784 -0.0392 0 0 -0.0784 -0.0392 0 0 -0.0784 -0.0392 0 0 -0.0784 -0.0392 0 0 -0.0784 -0.0392 0 0 -0.0784 -0.0392 0 0 -0.0784 -0.0392 0 0 -0.0784 -0.0392 0 0 -0.0784 -0.0392 0 0 -0.1176 0.0784 0 0 -0.0391 0.0392 0 0 -0.0393 0.0784 0 0 -0.0392 0.0392 0 0 -0.0391 0.0784 0 0 -0.0393 0.0392 0 0 -0.0392 0.0784 0 0 -0.0391 0.0392 0 0 -0.0392 0.0784 0 0 -0.0393 0.0392 0 0 -0.0391 0.0392 0 0 0.2743 -0.0392 0 0 0.392zm0.8623 -0.7055l0.0392 0 0 0.0392 0.0784 0 0 0.0391 0.0392 0 0 0.0393 0.0392 0 0 0.0392 0.0784 0 0 0.0391 0.0392 0 0 0.0392 0.0392 0 0 0.0393 0.0784 0 0 0.0391 0.0392 0 0 0.0392 0.0392 0 0 0.0393 0.0784 0 0 0.0391 0.0392 0 0 0.1176 -0.0392 0 0 0.1176 -0.0392 0 0 0.0784 -0.0392 0 0 0.0784 -0.0392 0 0 0.0784 -0.0392 0 0 0.0784 -0.0392 0 0 0.0784 -0.0392 0 0 0.0784 -0.0392 0 0 0.0784 -0.0392 0 0 0.0784 -0.0392 0 0 0.0784 -0.0392 0 0 0.0784 -0.0392 0 0 -0.0784 -0.0392 0 0 -0.4704 -0.0392 0 0 -0.2744 -0.0392 0 0 -0.3527 -0.0392 0 0 -0.2744zm1.6463 -0.0393l-0.0392 0 0 0.1176 -0.0391 0 0 0.1176 -0.0393 0 0 0.1176 -0.0392 0 0 0.0785 -0.0391 0 0 0.1175 -0.0393 0 0 0.0784 -0.0392 0 0 0.1176 -0.0391 0 0 0.0784 -0.0392 0 0 0.0784 -0.0393 0 0 0.0784 -0.0391 0 0 0.1176 -0.0392 0 0 0.0784 -0.0393 0 0 0.0784 -0.0391 0 0 0.1568 0.0391 0 0 0.0784 0.2744 0 0 -0.0392 0.0393 0 0 -0.0784 0.0391 0 0 -0.0784 0.0392 0 0 -0.1176 0.0393 0 0 -0.0784 0.0391 0 0 -0.0784 0.0392 0 0 -0.0784 0.0392 0 0 -0.1176 0.0392 0 0 -0.0784 0.0392 0 0 -0.1176 0.0392 0 0 -0.0784 0.0392 0 0 -0.1175 0.0392 0 0 -0.0785 0.0392 0 0 -0.1176 0.0392 0 0 -0.1176 0.0392 0 0 -0.0783 0.0784 0 0 0.0783 0.0392 0 0 0.0393 0.0392 0 0 0.0392 0.0392 0 0 0.0783 0.0392 0 0 0.0393 0.0392 0 0 0.0783 0.0392 0 0 0.0393 0.0392 0 0 0.0783 0.0392 0 0 0.0784 0.0392 0 0 0.0784 0.0392 0 0 0.0784 0.0392 0 0 0.0784 0.0392 0 0 0.0784 0.0392 0 0 0.0784 0.0391 0 0 0.1176 0.0393 0 0 0.1176 0.0392 0 0 0.0784 0.0391 0 0 0.1568 0.0393 0 0 0.0784 0.0392 0 0 0.1568 0.0391 0 0 0.2351 0.0392 0 0 0.1568 0.0393 0 0 0.1568 0.0391 0 0 0.196 0.0392 0 0 0.1568 0.0393 0 0 0.1176 0.0391 0 0 0.2352 0.0392 0 0 0.1176 0.0392 0 0 0.1568 0.0392 0 0 0.1959 0.0392 0 0 0.196 0.0392 0 0 0.196 0.0392 0 0 0.1176 0.0392 0 0 0.1568 0.0392 0 0 0.196 0.0392 0 0 0.196 0.0392 0 0 0.1176 0.0392 0 0 0.2352 0.0392 0 0 0.1176 0.0392 0 0 0.1568 0.0392 0 0 0.1959 0.0392 0 0 0.2352 0.0392 0 0 0.1568 0.0392 0 0 0.1176 0.0392 0 0 0.3527 0.0392 0 0 0.392 -0.0392 0 0 0.196 -0.0392 0 0 0.1176 -0.0392 0 0 0.0784 -0.0392 0 0 0.0784 -0.0392 0 0 0.0392 -0.0392 0 0 0.0784 -0.0392 0 0 0.0392 -0.0392 0 0 0.0392 -0.0392 0 0 0.0392 -0.0392 0 0 0.0392 -0.0392 0 0 0.0392 -0.0392 0 0 0.0392 -0.0392 0 0 0.0392 -0.0392 0 0 0.0392 -0.0784 0 0 0.0392 -0.0784 0 0 0.0392 -0.0783 0 0 0.0392 -0.0785 0 0 0.0392 -0.0784 0 0 0.0392 -0.3527 0 0 0.0392 -0.2352 0 0 -0.0784 0.0392 0 0 -0.1568 0.0392 0 0 -0.8232 -0.0392 0 0 -0.1176 -0.0392 0 0 -0.0784 -0.0392 0 0 -0.0783 -0.0392 0 0 -0.0392 -0.0392 0 0 -4.1158 -0.0392 0 0 -0.0784 -0.0392 0 0 -0.0784 -0.0392 0 0 -0.0392 -0.0392 0 0 -0.0392 -0.0392 0 0 -0.0392 -0.0392 0 0 -0.0392 -0.1176 0 0 -0.0391 -1.4503 0 0 -0.0785 0.0392 0 0 -0.0783 0.0392 0 0 -0.0393 0.0392 0 0 -0.0783 0.0392 0 0 -0.0784 0.0392 0 0 -0.0784 0.0392 0 0 -0.0784 0.0392 0 0 -0.0392 0.0392 0 0 -0.0784 0.0392 0 0 -0.0784 0.0392 0 0 -0.0784 0.0392 0 0 -0.0784 0.0392 0 0 -0.1176 0.0392 0 0 -0.0784 0.0392 0 0 -0.0784 0.0392 0 0 -0.0784 0.0392 0 0 -0.0784 0.0392 0 0 -0.1175 0.0392 0 0 -0.0785 0.0391 0 0 -0.1176 0.0393 0 0 -0.1176 0.0392 0 0 -0.1176 0.0391 0 0 -0.1175 0.0393 0 0 -0.1176 0.0392 0 0 -0.1568 0.0391 0 0 -0.0784 0.0392 0 0 0.0392 0.0393 0 0 0.0392 0.0783 0 0 0.0392 0.0393 0 0 0.0392 0.0783 0 0 0.0392 0.0392 0 0 0.196 -0.0392 0 0 0.0783zm-4.1549 -0.2743l0.0392 0 0 -0.0392 0.0784 0 0 -0.0392 0.0392 0 0 -0.0392 0.0784 0 0 -0.0392 0.1175 0 0 0.1176 0.0392 0 0 0.1568 0.0393 0 0 0.1176 0.0391 0 0 0.1176 0.0392 0 0 0.1176 0.0392 0 0 0.0783 0.0392 0 0 0.1176 0.0392 0 0 0.0784 0.0392 0 0 0.1176 0.0392 0 0 0.0784 0.0392 0 0 0.0784 0.0392 0 0 0.1176 0.0392 0 0 0.0784 0.0392 0 0 0.0784 0.0392 0 0 0.0784 0.0392 0 0 0.0784 0.0392 0 0 0.0784 0.0392 0 0 0.0784 0.0392 0 0 0.0392 0.0392 0 0 0.0784 0.0392 0 0 0.0784 0.0392 0 0 0.0784 0.0392 0 0 0.0784 0.0392 0 0 0.0392 0.0392 0 0 0.1176 -0.4312 0 0 -0.0392 -0.0392 0 0 -0.0784 -0.0392 0 0 -0.0785 -0.0392 0 0 -0.0783 -0.0392 0 0 -0.0784 -0.0392 0 0 -0.0784 -0.0392 0 0 -0.0784 -0.0392 0 0 -0.0784 -0.0392 0 0 -0.0784 -0.0392 0 0 -0.1176 -0.0392 0 0 -0.0784 -0.0391 0 0 -0.0784 -0.0393 0 0 -0.0784 -0.0392 0 0 -0.1176 -0.0391 0 0 -0.0784 -0.0393 0 0 -0.1176 -0.0391 0 0 -0.0783 -0.0392 0 0 -0.0785 -0.0392 0 0 -0.1176 -0.0392 0 0 -0.1176 -0.0392 0 0 -0.1176 -0.0392 0 0 -0.0783 -0.0392 0 0 -0.196zm3.4886 -0.0784l-0.0392 0 0 0.1568 -0.0392 0 0 0.1176 -0.0392 0 0 0.1176 -0.0392 0 0 0.0783 -0.1176 0 0 -0.0391 -0.0784 0 0 -0.0392 -0.0392 0 0 -0.0393 -0.0784 0 0 -0.0391 -0.0392 0 0 -0.0392 -0.0784 0 0 -0.0392 -0.0392 0 0 -0.0392 -0.0784 0 0 -0.0392 -0.0392 0 0 -0.0392 -0.0784 0 0 -0.0392 -0.0392 0 0 -0.0392 -0.0784 0 0 -0.0392 -0.0392 0 0 -0.0392 -0.0784 0 0 -0.0392 -0.0392 0 0 -0.0784 0.0392 0 0 -0.0392 0.0392 0 0 -0.0784 0.0392 0 0 -0.0392 0.0392 0 0 -0.0392 0.0392 0 0 -0.0784 0.0392 0 0 -0.0392 0.0392 0 0 -0.0392 0.0392 0 0 -0.0392 0.0392 0 0 -0.0784 0.0392 0 0 -0.0392 0.0392 0 0 -0.0392 0.1176 0 0 0.0392 0.0784 0 0 0.0392 0.0784 0 0 0.0392 0.0784 0 0 0.0392 0.0392 0 0 0.0392 0.0784 0 0 0.0392 0.0784 0 0 0.0392 0.0392 0 0 0.0392 0.1176 0 0 0.2352 -0.0392 0 0 0.1568zm-2.8223 -0.3528l0.0392 0 0 -0.0392 0.1176 0 0 -0.0784 0.1176 0 0 -0.0392 0.0392 0 0 -0.0392 0.1176 0 0 -0.0392 0.0392 0 0 -0.0392 0.0784 0 0 -0.0392 0.0392 0 0 -0.0392 0.1568 0 0 0.0784 0.0392 0 0 0.0392 0.0392 0 0 0.0392 0.0392 0 0 0.0784 0.0392 0 0 0.0392 0.0392 0 0 0.0392 0.0392 0 0 0.0392 0.0392 0 0 0.0784 0.0392 0 0 0.0392 0.0391 0 0 0.0392 0.0393 0 0 0.1176 -0.0393 0 0 0.0392 -0.0391 0 0 0.0392 -0.0784 0 0 0.0392 -0.0392 0 0 0.0392 -0.0784 0 0 0.0392 -0.0392 0 0 0.0392 -0.0784 0 0 0.0392 -0.0392 0 0 0.0392 -0.0784 0 0 0.0392 -0.0392 0 0 0.0392 -0.0784 0 0 0.0391 -0.0392 0 0 0.0393 -0.0784 0 0 0.0392 -0.0392 0 0 0.0391 -0.0784 0 0 0.0393 -0.0392 0 0 -0.0784 -0.0392 0 0 -0.1176 -0.0392 0 0 -0.1176 -0.0392 0 0 -0.1176 -0.0392 0 0 -0.1176 -0.0392 0 0 -0.1176 -0.0392 0 0 -0.196zm1.9207 -0.6271l-0.0392 0 0 0.0783 -0.0392 0 0 0.0392 -0.0392 0 0 0.0392 -0.0392 0 0 0.0784 -0.0392 0 0 0.0392 -0.0392 0 0 0.0392 -0.0392 0 0 0.0392 -0.0392 0 0 0.0784 -0.0392 0 0 0.0392 -0.0391 0 0 0.0392 -0.0393 0 0 0.0784 -0.0783 0 0 -0.0392 -0.0393 0 0 -0.0392 -0.0392 0 0 -0.0784 -0.0391 0 0 -0.0392 -0.0392 0 0 -0.0392 -0.0393 0 0 -0.0392 -0.0391 0 0 -0.0784 -0.0392 0 0 -0.0392 -0.0393 0 0 -0.0392 -0.0391 0 0 -0.0392 -0.0392 0 0 -0.0784 -0.0392 0 0 -0.0391 -0.0392 0 0 -0.2744 0.1567 0 0 -0.0392 0.0785 0 0 -0.0392 0.2352 0 0 -0.0392 0.2351 0 0 -0.0392 0.1176 0 0 -0.0392 0.196 0 0 0.4311 -0.0392 0 0 0.0393zm0.8232 -1.8815l-0.0392 0 0 0.1568 -0.0392 0 0 0.0784 -0.0392 0 0 0.0783 -0.0392 0 0 0.0785 -0.0392 0 0 0.0391 -0.0392 0 0 0.0785 -0.0392 0 0 0.0391 -0.0392 0 0 0.0392 -0.0392 0 0 0.0392 -0.0392 0 0 0.0392 -0.0392 0 0 0.0392 -0.0784 0 0 0.0392 -0.0392 0 0 0.0392 -0.0784 0 0 0.0392 -0.0784 0 0 0.0392 -0.0392 0 0 0.0392 -0.1176 0 0 0.0392 -0.0784 0 0 0.0392 -0.5095 0 0 -0.0392 -0.1961 0 0 -0.0392 -0.0783 0 0 -0.0392 -0.1176 0 0 -0.0392 -0.0784 0 0 -0.0392 -0.0392 0 0 -0.0392 -0.0392 0 0 -0.0392 -0.0392 0 0 -0.0392 -0.0784 0 0 -0.0392 -0.0392 0 0 -0.0392 -0.0392 0 0 -0.0392 -0.0392 0 0 -0.0784 -0.0392 0 0 -0.0392 -0.0392 0 0 -0.0391 -0.0392 0 0 -0.0785 -0.0392 0 0 -0.0783 -0.0392 0 0 -0.1176 -0.0392 0 0 -0.0784 -0.0392 0 0 -1.8815 0.0392 0 0 -0.1568 0.0392 0 0 -0.1176 0.0392 0 0 -0.1176 0.0392 0 0 -0.1176 0.0392 0 0 -0.0392 0.0392 0 0 0.0784 0.0392 0 0 0.0784 0.0392 0 0 0.0392 0.0392 0 0 0.0784 0.0392 0 0 0.0392 0.0392 0 0 0.0392 0.0392 0 0 0.0392 0.0392 0 0 0.0392 0.0392 0 0 0.0392 0.0392 0 0 0.0392 0.0392 0 0 0.0392 0.0392 0 0 0.0392 0.0392 0 0 0.0392 0.0392 0 0 0.0392 0.0784 0 0 0.0392 0.0391 0 0 0.0392 0.0785 0 0 0.0392 0.0784 0 0 0.0391 0.0783 0 0 0.0393 0.0785 0 0 0.0392 0.0391 0 0 0.0391 0.1176 0 0 0.0393 0.1176 0 0 0.0392 0.0784 0 0 0.0391 0.196 0 0 0.0392 0.1176 0 0 0.0393 0.3528 0 0 0.0391 0.3528 0 0 1.0192 -0.0392 0 0 0.196zm-3.2142 -1.176l0.0392 0 0 -0.0783 0.0391 0 0 -0.0393 0.0784 0 0 0.0393 0.0785 0 0 0.0391 0.0391 0 0 0.0392 0.0392 0 0 0.98 -0.1568 0 0 -0.0392 -0.0784 0 0 -0.0392 -0.0391 0 0 -0.0784 -0.0392 0 0 -0.8232zm3.9197 0.8624l-0.0391 0 0 0.0392 -0.0393 0 0 0.0392 -0.0392 0 0 0.0392 -0.1959 0 0 -0.9407 0.0783 0 0 0.0391 0.0785 0 0 0.0392 0.0391 0 0 0.0392 0.0785 0 0 0.0392 0.0391 0 0 0.0784 0.0392 0 0 0.5096 -0.0392 0 0 0.0784zm-2.0382 -5.2917l-0.2352 0 0 0.0392 -0.1568 0 0 0.0392 -0.1176 0 0 0.0392 -0.0784 0 0 0.0392 -0.1176 0 0 0.0392 -0.0392 0 0 0.0392 -0.0784 0 0 0.0392 -0.0392 0 0 0.0392 -0.0784 0 0 0.0392 -0.0392 0 0 0.0392 -0.0392 0 0 0.0392 -0.0392 0 0 0.0392 -0.0784 0 0 0.0392 -0.0392 0 0 0.0784 -0.0392 0 0 0.0392 -0.0392 0 0 0.0392 -0.0392 0 0 0.0392 -0.0392 0 0 0.0784 -0.0392 0 0 0.0784 -0.0392 0 0 0.0784 -0.0392 0 0 0.0783 -0.0392 0 0 0.0785 -0.0392 0 0 0.1176 -0.0392 0 0 0.1176 -0.1176 0 0 0.0391 -0.0783 0 0 0.0392 -0.0393 0 0 0.0392 -0.1175 0 0 0.0392 -0.0392 0 0 0.0392 -0.0392 0 0 0.0392 -0.0784 0 0 0.0392 -0.0392 0 0 0.0392 -0.0392 0 0 0.0392 -0.0392 0 0 0.0784 -0.0392 0 0 0.0392 -0.0392 0 0 0.0784 -0.0392 0 0 0.0392 -0.0392 0 0 0.0784 -0.0392 0 0 0.0784 -0.0392 0 0 0.1176 -0.0392 0 0 0.1176 -0.0392 0 0 0.2351 -0.0392 0 0 0.5096 0.0392 0 0 0.2352 0.0392 0 0 0.1176 0.0392 0 0 0.0784 0.0392 0 0 0.0784 0.0392 0 0 0.0784 0.0392 0 0 0.0784 0.0392 0 0 0.0784 0.0392 0 0 0.0392 0.0392 0 0 0.0784 0.0392 0 0 0.0392 0.0392 0 0 0.0392 0.0392 0 0 0.1176 -0.0392 0 0 0.0391 -0.0392 0 0 0.0785 -0.0392 0 0 0.0783 -0.0392 0 0 1.0584 0.0392 0 0 0.0784 0.0392 0 0 0.0784 0.0392 0 0 0.0392 0.0392 0 0 0.0392 0.0392 0 0 0.0392 0.0392 0 0 0.0391 0.0392 0 0 0.0393 0.1567 0 0 0.0392 0.196 0 0 0.0391 0.1176 0 0 0.0393 0.0392 0 0 0.1175 0.0392 0 0 0.0784 0.0392 0 0 0.0785 0.0392 0 0 0.0783 0.0392 0 0 0.0392 0.0392 0 0 0.0784 0.0392 0 0 0.0392 0.0392 0 0 0.0392 0.0392 0 0 0.0392 0.0392 0 0 0.0392 0.0392 0 0 0.0392 0.0392 0 0 0.0392 0.0392 0 0 0.0392 0.0392 0 0 0.0392 0.0784 0 0 0.7839 -0.0392 0 0 0.0392 -0.1176 0 0 0.0393 -0.0784 0 0 0.0391 -0.0784 0 0 0.0392 -0.0784 0 0 0.0784 -0.1176 0 0 0.0392 -0.0392 0 0 0.0392 -0.1176 0 0 0.0784 -0.1175 0 0 0.0392 -0.0393 0 0 0.0392 -0.0392 0 0 0.0392 -0.1175 0 0 0.0392 -0.0392 0 0 0.0392 -0.0784 0 0 0.0392 -0.0392 0 0 0.0392 -0.0784 0 0 0.0392 -0.0392 0 0 0.0392 -0.0784 0 0 0.0392 -0.0392 0 0 0.0392 -0.0784 0 0 0.0392 -0.0392 0 0 0.0392 -0.0392 0 0 0.0392 -0.0392 0 0 0.0392 -0.0392 0 0 0.0392 -0.0392 0 0 0.0392 -0.0784 0 0 0.0784 -0.0392 0 0 0.0392 -0.0392 0 0 0.0392 -0.0392 0 0 0.0392 -0.0392 0 0 0.0392 -0.0392 0 0 0.0392 -0.0392 0 0 0.0783 -0.0392 0 0 0.0393 -0.0392 0 0 0.0783 -0.0392 0 0 0.0393 -0.0392 0 0 0.0783 -0.0392 0 0 0.0785 -0.0392 0 0 0.0783 -0.0392 0 0 0.0784 -0.0391 0 0 0.0784 -0.0393 0 0 0.0784 -0.0392 0 0 0.1176 -0.0391 0 0 0.1176 -0.0393 0 0 0.1176 -0.0392 0 0 0.1568 -0.0391 0 0 0.3528 -0.0392 0 0 0.5487 -0.0393 0 0 0.8624 -0.0391 0 0 0.6663 -0.0392 0 0 0.7056 -0.0393 0 0 0.6664 -0.0391 0 0 0.7055 -0.0392 0 0 0.5095 -0.0392 0 0 0.7056 0.0392 0 0 0.1568 0.0392 0 0 0.1176 0.0391 0 0 0.1176 0.0393 0 0 0.0784 0.0392 0 0 0.0392 0.0391 0 0 0.0784 0.0393 0 0 0.0392 0.0392 0 0 0.0784 0.0391 0 0 0.0392 0.0392 0 0 0.0392 0.0393 0 0 0.0392 0.0391 0 0 0.0392 0.0392 0 0 0.0392 0.0784 0 0 0.0392 0.0392 0 0 0.0392 0.0392 0 0 0.0392 0.0784 0 0 0.0391 0.0784 0 0 0.0393 0.0784 0 0 0.0392 0.1568 0 0 0.0391 0.0784 0 0 0.0393 5.3309 0 0 -0.0393 0.4704 0 0 -0.0391 0.1176 0 0 -0.0392 0.0783 0 0 -0.0393 0.1568 0 0 -0.0391 0.0784 0 0 -0.0392 0.0784 0 0 -0.0392 0.0784 0 0 -0.0392 0.0784 0 0 -0.0392 0.0392 0 0 -0.0392 0.0392 0 0 -0.0392 0.0392 0 0 -0.0392 0.0784 0 0 -0.0392 0.0392 0 0 -0.0392 0.0392 0 0 -0.0392 0.0392 0 0 -0.0784 0.0392 0 0 -0.0392 0.0392 0 0 -0.0392 0.0392 0 0 -0.0784 0.0392 0 0 -0.0392 0.0392 0 0 -0.0784 0.0392 0 0 -0.0784 0.0392 0 0 -0.1176 0.0392 0 0 -0.1176 0.0392 0 0 -0.1176 0.0392 0 0 -0.7839 -0.0392 0 0 -0.2352 -0.0392 0 0 -0.1176 -0.0392 0 0 -0.1568 -0.0392 0 0 -0.1568 -0.0392 0 0 -0.2352 -0.0392 0 0 -0.1176 -0.0392 0 0 -0.2351 -0.0392 0 0 -0.1176 -0.0392 0 0 -0.2352 -0.0392 0 0 -0.1176 -0.0392 0 0 -0.2352 -0.0392 0 0 -0.1568 -0.0392 0 0 -0.1176 -0.0392 0 0 -0.196 -0.0392 0 0 -0.1959 -0.0392 0 0 -0.1569 -0.0392 0 0 -0.1175 -0.0392 0 0 -0.2352 -0.0392 0 0 -0.1568 -0.0392 0 0 -0.196 -0.0392 0 0 -0.1568 -0.0392 0 0 -0.1176 -0.0392 0 0 -0.2352 -0.0392 0 0 -0.1175 -0.0392 0 0 -0.1569 -0.0392 0 0 -0.1959 -0.0392 0 0 -0.0784 -0.0392 0 0 -0.1568 -0.0391 0 0 -0.1176 -0.0393 0 0 -0.1176 -0.0392 0 0 -0.0784 -0.0391 0 0 -0.1176 -0.0393 0 0 -0.0784 -0.0392 0 0 -0.0784 -0.0391 0 0 -0.0784 -0.0392 0 0 -0.0784 -0.0393 0 0 -0.0784 -0.0391 0 0 -0.0783 -0.0392 0 0 -0.0785 -0.0393 0 0 -0.0391 -0.0391 0 0 -0.0785 -0.0392 0 0 -0.0391 -0.0392 0 0 -0.0785 -0.0392 0 0 -0.0391 -0.0392 0 0 -0.0392 -0.0392 0 0 -0.0784 -0.0392 0 0 -0.0392 -0.0392 0 0 -0.0392 -0.0392 0 0 -0.0392 -0.0392 0 0 -0.0392 -0.0392 0 0 -0.0392 -0.0392 0 0 -0.0392 -0.0784 0 0 -0.0392 -0.0392 0 0 -0.0392 -0.0392 0 0 -0.0392 -0.0784 0 0 -0.0392 -0.0392 0 0 -0.0392 -0.0784 0 0 -0.0392 -0.0392 0 0 -0.0392 -0.0392 0 0 -0.0392 -0.0784 0 0 -0.0392 -0.0392 0 0 -0.0392 -0.0784 0 0 -0.0392 -0.0392 0 0 -0.0392 -0.0784 0 0 -0.0392 -0.0392 0 0 -0.0392 -0.0783 0 0 -0.0392 -0.0784 0 0 -0.0392 -0.0392 0 0 -0.0392 -0.0784 0 0 -0.0392 -0.0392 0 0 -0.0392 -0.0784 0 0 -0.0392 -0.0784 0 0 -0.0392 -0.0392 0 0 -0.0392 -0.0784 0 0 -0.0392 -0.0784 0 0 -0.0391 -0.0784 0 0 -0.0393 -0.0392 0 0 -0.0392 -0.0784 0 0 -0.7055 0.0392 0 0 -0.0392 0.0784 0 0 -0.0392 0.0392 0 0 -0.0392 0.0392 0 0 -0.0392 0.0392 0 0 -0.0392 0.0392 0 0 -0.0392 0.0392 0 0 -0.0392 0.0392 0 0 -0.0392 0.0392 0 0 -0.0392 0.0392 0 0 -0.0392 0.0392 0 0 -0.0784 0.0392 0 0 -0.0392 0.0392 0 0 -0.0783 0.0392 0 0 -0.0785 0.0391 0 0 -0.0784 0.0393 0 0 -0.0783 0.0392 0 0 -0.0785 0.2352 0 0 -0.0391 0.1567 0 0 -0.0392 0.0392 0 0 -0.0393 0.0784 0 0 -0.0391 0.0392 0 0 -0.0392 0.0392 0 0 -0.0392 0.0392 0 0 -0.0392 0.0392 0 0 -0.0392 0.0392 0 0 -0.0784 0.0392 0 0 -0.0784 0.0392 0 0 -0.6272 0.0392 0 0 -0.0392 0.0392 0 0 -0.0392 0.0392 0 0 -0.0392 0.0392 0 0 1.7247 0.0392 0 0 0.196 0.0392 0 0 0.1568 0.0392 0 0 0.0784 0.0392 0 0 0.0784 0.0392 0 0 0.0392 0.0392 0 0 0.0784 0.0392 0 0 0.0392 0.0392 0 0 0.0392 0.0392 0 0 0.0392 0.0392 0 0 0.0392 0.0783 0 0 0.0392 0.0393 0 0 0.0392 0.0783 0 0 0.0392 0.0393 0 0 0.0392 0.1175 0 0 0.0391 0.1176 0 0 0.0392 0.0784 0 0 0.0393 0.196 0 0 0.0391 0.196 0 0 0.0392 0.1568 0 0 0.0393 0.6664 0 0 -0.0393 0.0392 0 0 -0.0783 0.0391 0 0 -5.2525 -0.0391 0 0 -0.3136 -0.0392 0 0 -0.1568 -0.0392 0 0 -0.1176 -0.0392 0 0 -0.0784 -0.0392 0 0 -0.0784 -0.0392 0 0 -0.1176 -0.0392 0 0 -0.0391 -0.0392 0 0 -0.0785 -0.0392 0 0 -0.0391 -0.0392 0 0 -0.0785 -0.0392 0 0 -0.0391 -0.0392 0 0 -0.0392 -0.0392 0 0 -0.0393 -0.0392 0 0 -0.0391 -0.0392 0 0 -0.0392 -0.0392 0 0 -0.0392 -0.0392 0 0 -0.0392 -0.0784 0 0 -0.0392 -0.0392 0 0 -0.0392 -0.0392 0 0 -0.0392 -0.1176 0 0 -0.0392 -0.1176 0 0 -0.0392 -0.0784 0 0 -0.0392 -0.1568 0 0 -0.0392 -0.5487 0 0 0.0392 -0.1176 0 0 0.0392 -0.1568 0 0 0.0392 -0.0784 0 0 0.0392 -0.0784 0 0 0.0392 -0.0392 0 0 0.0392 -0.0784 0 0 0.0392 -0.0392 0 0 0.0392 -0.0784 0 0 -0.0392 -0.0392 0 0 -0.0392 -0.0392 0 0 -0.0392 -0.0392 0 0 -0.0392 -0.0392 0 0 -0.0392 -0.0784 0 0 -0.0392 -0.0392 0 0 -0.0392 -0.0391 0 0 -0.0392 -0.0785 0 0 -0.0392 -0.0391 0 0 -0.0392 -0.0785 0 0 -0.0392 -0.0391 0 0 -0.0392 -0.1176 0 0 -0.0392 -0.0392 0 0 -0.0392 -0.0784 0 0 -0.0392 -0.0784 0 0 -0.0392 -0.1176 0 0 -0.0392 -0.1176 0 0 -0.0392 -0.1176 0 0 -0.0392 -0.1176 0 0 -0.0392 -0.196 0 0 -0.0392 -0.7839 0 0 0.0392z"/>
   <polygon id="_374636592" class="fil1" points="5.468,8.937 5.4288,8.937 5.4288,8.9761 5.3896,8.9761 5.3896,9.0154 5.3504,9.0154 5.3504,9.0937 5.3112,9.0937 5.3112,9.1329 5.272,9.1329 5.272,9.2113 5.2328,9.2113 5.2328,9.2505 5.1936,9.2505 5.1936,9.3289 5.1544,9.3289 5.1544,9.4073 5.1152,9.4073 5.1152,9.4857 5.076,9.4857 5.076,9.5641 5.0368,9.5641 5.0368,9.6817 4.9976,9.6817 4.9976,9.7993 4.9584,9.7993 4.9584,9.9561 4.9192,9.9561 4.9192,10.0737 4.88,10.0737 4.88,10.3873 4.8408,10.3873 4.8408,11.132 4.8016,11.132 4.8016,11.9943 4.7625,11.9943 4.7625,12.5039 4.7232,12.5039 4.7232,13.3663 4.684,13.3663 4.684,14.0326 4.6449,14.0326 4.6449,14.7382 4.6056,14.7382 4.6056,15.2477 4.5664,15.2477 4.5664,15.6789 4.6056,15.6789 4.6056,15.7965 4.6449,15.7965 4.6449,15.9141 4.684,15.9141 4.684,15.9925 4.7232,15.9925 4.7232,16.0709 4.7625,16.0709 4.7625,16.1101 4.8016,16.1101 4.8016,16.1493 4.8408,16.1493 4.8408,16.2277 4.88,16.2277 4.88,16.2669 4.9192,16.2669 4.9192,16.3061 4.9976,16.3061 4.9976,16.3453 5.0368,16.3453 5.0368,16.3845 5.076,16.3845 5.076,16.4237 5.1544,16.4237 5.1544,16.4629 5.2328,16.4629 5.2328,16.5021 5.3112,16.5021 5.3112,16.5413 5.4288,16.5413 5.4288,16.5805 8.9566,16.5805 8.9566,15.2086 5.7816,15.2086 5.7816,15.1694 5.7032,15.1694 5.7032,15.1301 5.664,15.1301 5.664,14.895 5.7032,14.895 5.7032,14.8558 5.8992,14.8558 5.8992,11.3672 5.9384,11.3672 5.9384,11.1712 5.9776,11.1712 5.9776,11.0928 6.0168,11.0928 6.0168,11.0144 6.056,11.0144 6.056,10.936 6.0951,10.936 6.0951,10.8968 6.1344,10.8968 6.1344,10.8576 6.2127,10.8576 6.2127,10.8184 6.252,10.8184 6.252,10.7792 6.2911,10.7792 6.2911,10.7009 6.252,10.7009 6.252,10.6224 6.2127,10.6224 6.2127,10.5441 6.1735,10.5441 6.1735,10.4657 6.1344,10.4657 6.1344,10.3873 6.0951,10.3873 6.0951,10.3089 6.056,10.3089 6.056,10.2305 6.0168,10.2305 6.0168,10.1129 5.9776,10.1129 5.9776,10.0345 5.9384,10.0345 5.9384,9.9561 5.8992,9.9561 5.8992,9.8777 5.86,9.8777 5.86,9.7993 5.8208,9.7993 5.8208,9.6817 5.7816,9.6817 5.7816,9.6033 5.7424,9.6033 5.7424,9.4857 5.7032,9.4857 5.7032,9.4073 5.664,9.4073 5.664,9.2898 5.6248,9.2898 5.6248,9.1722 5.5856,9.1722 5.5856,9.0937 5.5464,9.0937 5.5464,8.9761 5.5072,8.9761 5.5072,8.8978 5.468,8.8978 "/>
   <polygon id="_374639280" class="fil1" points="6.5263,11.0928 6.4479,11.0928 6.4479,11.132 6.4087,11.132 6.4087,11.1712 6.3695,11.1712 6.3695,11.2104 6.3303,11.2104 6.3303,11.2496 6.2911,11.2496 6.2911,14.8558 9.5054,14.8558 9.5054,11.0536 6.5263,11.0536 "/>
   <polygon id="_413446464" class="fil1" points="9.7013,8.4666 9.6622,8.4666 9.6622,8.6234 9.623,8.6234 9.623,8.741 9.5837,8.741 9.5837,8.8585 9.5446,8.8585 9.5446,8.9761 9.5054,8.9761 9.5054,9.0937 9.4661,9.0937 9.4661,9.2113 9.427,9.2113 9.427,9.2898 9.3878,9.2898 9.3878,9.4073 9.3486,9.4073 9.3486,9.4857 9.3094,9.4857 9.3094,9.5641 9.2702,9.5641 9.2702,9.6425 9.231,9.6425 9.231,9.7209 9.1918,9.7209 9.1918,9.8385 9.1526,9.8385 9.1526,9.9169 9.1134,9.9169 9.1134,9.9953 9.0742,9.9953 9.0742,10.0737 9.035,10.0737 9.035,10.1521 8.9958,10.1521 8.9958,10.1913 8.9566,10.1913 8.9566,10.2697 8.9174,10.2697 8.9174,10.3481 8.8782,10.3481 8.8782,10.4265 8.839,10.4265 8.839,10.5048 8.7998,10.5048 8.7998,10.5441 8.7606,10.5441 8.7606,10.6224 8.7214,10.6224 8.7214,10.7009 10.1717,10.7009 10.1717,10.74 10.2893,10.74 10.2893,10.7792 10.3285,10.7792 10.3285,10.8184 10.3677,10.8184 10.3677,10.8576 10.4069,10.8576 10.4069,10.8968 10.4461,10.8968 10.4461,10.9752 10.4853,10.9752 10.4853,11.0536 10.5245,11.0536 10.5245,15.1694 10.5637,15.1694 10.5637,15.2086 10.6029,15.2086 10.6029,15.2869 10.6421,15.2869 10.6421,15.3653 10.6813,15.3653 10.6813,15.4829 10.7205,15.4829 10.7205,16.3061 10.6813,16.3061 10.6813,16.4629 10.6421,16.4629 10.6421,16.5413 10.8773,16.5413 10.8773,16.5021 11.23,16.5021 11.23,16.4629 11.3084,16.4629 11.3084,16.4237 11.3869,16.4237 11.3869,16.3845 11.4652,16.3845 11.4652,16.3453 11.5436,16.3453 11.5436,16.3061 11.622,16.3061 11.622,16.2669 11.6612,16.2669 11.6612,16.2277 11.7004,16.2277 11.7004,16.1885 11.7396,16.1885 11.7396,16.1493 11.7788,16.1493 11.7788,16.1101 11.818,16.1101 11.818,16.0709 11.8572,16.0709 11.8572,16.0317 11.8964,16.0317 11.8964,15.9925 11.9356,15.9925 11.9356,15.9141 11.9748,15.9141 11.9748,15.8749 12.014,15.8749 12.014,15.7965 12.0532,15.7965 12.0532,15.7181 12.0924,15.7181 12.0924,15.6005 12.1316,15.6005 12.1316,15.4045 12.1708,15.4045 12.1708,15.0125 12.1316,15.0125 12.1316,14.6598 12.0924,14.6598 12.0924,14.5422 12.0532,14.5422 12.0532,14.3854 12.014,14.3854 12.014,14.1502 11.9748,14.1502 11.9748,13.9543 11.9356,13.9543 11.9356,13.7975 11.8964,13.7975 11.8964,13.6799 11.8572,13.6799 11.8572,13.4447 11.818,13.4447 11.818,13.3271 11.7788,13.3271 11.7788,13.1311 11.7396,13.1311 11.7396,12.9351 11.7004,12.9351 11.7004,12.7783 11.6612,12.7783 11.6612,12.6607 11.622,12.6607 11.622,12.4647 11.5828,12.4647 11.5828,12.2687 11.5436,12.2687 11.5436,12.0728 11.5044,12.0728 11.5044,11.916 11.4652,11.916 11.4652,11.7984 11.426,11.7984 11.426,11.5632 11.3869,11.5632 11.3869,11.4456 11.3476,11.4456 11.3476,11.2888 11.3084,11.2888 11.3084,11.0928 11.2693,11.0928 11.2693,10.936 11.23,10.936 11.23,10.7792 11.1908,10.7792 11.1908,10.5441 11.1517,10.5441 11.1517,10.3873 11.1125,10.3873 11.1125,10.3089 11.0732,10.3089 11.0732,10.1521 11.0341,10.1521 11.0341,10.0737 10.9949,10.0737 10.9949,9.9561 10.9556,9.9561 10.9556,9.8385 10.9165,9.8385 10.9165,9.7601 10.8773,9.7601 10.8773,9.6817 10.8381,9.6817 10.8381,9.6033 10.7989,9.6033 10.7989,9.5249 10.7597,9.5249 10.7597,9.4465 10.7205,9.4465 10.7205,9.3681 10.6813,9.3681 10.6813,9.2898 10.6421,9.2898 10.6421,9.2505 10.6029,9.2505 10.6029,9.1722 10.5637,9.1722 10.5637,9.1329 10.5245,9.1329 10.5245,9.0546 10.4853,9.0546 10.4853,9.0154 10.4461,9.0154 10.4461,8.9761 10.4069,8.9761 10.4069,8.8978 10.3285,8.8978 10.3285,8.9761 10.2893,8.9761 10.2893,9.0937 10.2501,9.0937 10.2501,9.2113 10.2109,9.2113 10.2109,9.2898 10.1717,9.2898 10.1717,9.4073 10.1325,9.4073 10.1325,9.4857 10.0933,9.4857 10.0933,9.6033 10.0541,9.6033 10.0541,9.6817 10.0149,9.6817 10.0149,9.7993 9.9757,9.7993 9.9757,9.8777 9.9365,9.8777 9.9365,9.9561 9.8974,9.9561 9.8974,10.0345 9.8581,10.0345 9.8581,10.1521 9.8189,10.1521 9.8189,10.2305 9.7798,10.2305 9.7798,10.3089 9.7405,10.3089 9.7405,10.3481 9.4661,10.3481 9.4661,10.2697 9.427,10.2697 9.427,10.1129 9.4661,10.1129 9.4661,10.0345 9.5054,10.0345 9.5054,9.9561 9.5446,9.9561 9.5446,9.8385 9.5837,9.8385 9.5837,9.7601 9.623,9.7601 9.623,9.6817 9.6622,9.6817 9.6622,9.6033 9.7013,9.6033 9.7013,9.4857 9.7405,9.4857 9.7405,9.4073 9.7798,9.4073 9.7798,9.2898 9.8189,9.2898 9.8189,9.2113 9.8581,9.2113 9.8581,9.0937 9.8974,9.0937 9.8974,8.9761 9.9365,8.9761 9.9365,8.8585 9.9757,8.8585 9.9757,8.7802 10.0149,8.7802 10.0149,8.5842 9.9757,8.5842 9.9757,8.545 9.8974,8.545 9.8974,8.5058 9.8581,8.5058 9.8581,8.4666 9.7798,8.4666 9.7798,8.4274 9.7405,8.4274 9.7405,8.3882 9.7013,8.3882 "/>
   <path id="_415385392" class="fil1" d="M8.5646 5.9188l-0.0392 0 0 0.0391 -0.0392 0 0 0.0392 -0.0392 0 0 0.0393 -0.1176 0 0 0.0391 -0.0784 0 0 0.0392 -0.0784 0 0 0.0393 -0.3136 0 0 -0.0393 -0.0392 0 0 -0.0392 -0.0391 0 0 -0.1959 0.0391 0 0 -0.0393 0.0392 0 0 -0.0391 0.0393 0 0 -0.0392 0.2351 0 0 -0.0393 0.1176 0 0 -0.0391 0.0392 0 0 -0.0392 0.0392 0 0 -0.0392 0.2352 0 0 0.0392 0.0392 0 0 0.2352 -0.0392 0 0 0.0392zm-0.3136 -1.2152l0.0392 0 0 -0.0784 0.0392 0 0 -0.0392 0.196 0 0 0.0392 0.0392 0 0 0.0392 0.0392 0 0 0.392 -0.0392 0 0 0.0392 -0.2352 0 0 -0.0392 -0.0392 0 0 -0.0392 -0.0392 0 0 -0.3136zm-0.9015 0l0.0392 0 0 -0.0392 0.0392 0 0 -0.0392 0.0392 0 0 -0.0392 0.1568 0 0 0.0392 0.0392 0 0 0.0392 0.0391 0 0 0.392 -0.0391 0 0 0.0392 -0.2352 0 0 -0.0392 -0.0392 0 0 -0.0784 -0.0392 0 0 -0.2744zm-0.4312 -1.4111l-0.0392 0 0 0.1176 -0.0392 0 0 0.1176 -0.0392 0 0 0.1176 -0.0392 0 0 0.1568 -0.0392 0 0 1.8815 0.0392 0 0 0.0784 0.0392 0 0 0.1176 0.0392 0 0 0.0783 0.0392 0 0 0.0785 0.0392 0 0 0.0391 0.0392 0 0 0.0392 0.0392 0 0 0.0784 0.0392 0 0 0.0392 0.0392 0 0 0.0392 0.0392 0 0 0.0392 0.0784 0 0 0.0392 0.0392 0 0 0.0392 0.0392 0 0 0.0392 0.0392 0 0 0.0392 0.0784 0 0 0.0392 0.1176 0 0 0.0392 0.0783 0 0 0.0392 0.1961 0 0 0.0392 0.5095 0 0 -0.0392 0.0784 0 0 -0.0392 0.1176 0 0 -0.0392 0.0392 0 0 -0.0392 0.0784 0 0 -0.0392 0.0784 0 0 -0.0392 0.0392 0 0 -0.0392 0.0784 0 0 -0.0392 0.0392 0 0 -0.0392 0.0392 0 0 -0.0392 0.0392 0 0 -0.0392 0.0392 0 0 -0.0391 0.0392 0 0 -0.0785 0.0392 0 0 -0.0391 0.0392 0 0 -0.0785 0.0392 0 0 -0.0783 0.0392 0 0 -0.0784 0.0392 0 0 -0.1568 0.0392 0 0 -0.196 0.0392 0 0 -1.0192 -0.3528 0 0 -0.0391 -0.3528 0 0 -0.0393 -0.1176 0 0 -0.0392 -0.196 0 0 -0.0391 -0.0784 0 0 -0.0392 -0.1176 0 0 -0.0393 -0.1176 0 0 -0.0391 -0.0391 0 0 -0.0392 -0.0785 0 0 -0.0393 -0.0783 0 0 -0.0391 -0.0784 0 0 -0.0392 -0.0785 0 0 -0.0392 -0.0391 0 0 -0.0392 -0.0784 0 0 -0.0392 -0.0392 0 0 -0.0392 -0.0392 0 0 -0.0392 -0.0392 0 0 -0.0392 -0.0392 0 0 -0.0392 -0.0392 0 0 -0.0392 -0.0392 0 0 -0.0392 -0.0392 0 0 -0.0392 -0.0392 0 0 -0.0392 -0.0392 0 0 -0.0392 -0.0392 0 0 -0.0784 -0.0392 0 0 -0.0392 -0.0392 0 0 -0.0784 -0.0392 0 0 -0.0784 -0.0392 0 0 0.0392z"/>
   <polygon id="_415385896" class="fil1" points="10.0149,16.5805 10.0149,16.5413 10.1325,16.5413 10.1325,16.5021 10.1717,16.5021 10.1717,16.4629 10.2109,16.4629 10.2109,16.4237 10.2501,16.4237 10.2501,16.3845 10.2893,16.3845 10.2893,16.3453 10.3285,16.3453 10.3285,16.2277 10.3677,16.2277 10.3677,15.5613 10.3285,15.5613 10.3285,15.4829 10.2893,15.4829 10.2893,15.4045 10.2501,15.4045 10.2501,15.3653 10.2109,15.3653 10.2109,15.3262 10.1717,15.3262 10.1717,15.2869 10.0933,15.2869 10.0933,15.2477 9.3486,15.2477 9.3486,16.5805 "/>
   <polygon id="_415385752" class="fil1" points="6.056,8.4666 5.9776,8.4666 5.9776,8.5058 5.9384,8.5058 5.9384,8.545 5.86,8.545 5.86,8.5842 5.8208,8.5842 5.8208,8.7802 5.86,8.7802 5.86,8.8585 5.8992,8.8585 5.8992,8.9761 5.9384,8.9761 5.9384,9.0937 5.9776,9.0937 5.9776,9.2113 6.0168,9.2113 6.0168,9.2898 6.056,9.2898 6.056,9.3681 6.0951,9.3681 6.0951,9.4857 6.1344,9.4857 6.1344,9.5641 6.1735,9.5641 6.1735,9.6817 6.2127,9.6817 6.2127,9.7601 6.252,9.7601 6.252,9.8385 6.2911,9.8385 6.2911,9.9169 6.3303,9.9169 6.3303,10.0345 6.3695,10.0345 6.3695,10.1129 6.4087,10.1129 6.4087,10.1913 6.4479,10.1913 6.4479,10.2697 6.4871,10.2697 6.4871,10.3481 6.5263,10.3481 6.5263,10.4265 6.5655,10.4265 6.5655,10.5048 6.6047,10.5048 6.6047,10.5833 6.6439,10.5833 6.6439,10.6617 6.6831,10.6617 6.6831,10.7009 7.1143,10.7009 7.1143,10.5833 7.0751,10.5833 7.0751,10.5441 7.0359,10.5441 7.0359,10.4657 6.9967,10.4657 6.9967,10.3873 6.9575,10.3873 6.9575,10.3089 6.9183,10.3089 6.9183,10.2305 6.8791,10.2305 6.8791,10.1913 6.8399,10.1913 6.8399,10.1129 6.8007,10.1129 6.8007,10.0345 6.7615,10.0345 6.7615,9.9561 6.7223,9.9561 6.7223,9.8777 6.6831,9.8777 6.6831,9.7993 6.6439,9.7993 6.6439,9.7209 6.6047,9.7209 6.6047,9.6033 6.5655,9.6033 6.5655,9.5249 6.5263,9.5249 6.5263,9.4465 6.4871,9.4465 6.4871,9.3289 6.4479,9.3289 6.4479,9.2505 6.4087,9.2505 6.4087,9.1329 6.3695,9.1329 6.3695,9.0546 6.3303,9.0546 6.3303,8.937 6.2911,8.937 6.2911,8.8194 6.252,8.8194 6.252,8.7018 6.2127,8.7018 6.2127,8.545 6.1735,8.545 6.1735,8.4274 6.056,8.4274 "/>
   <polygon id="_415386448" class="fil1" points="7.0751,7.8394 7.0359,7.8394 7.0359,7.8786 6.9575,7.8786 6.9575,7.9178 6.9183,7.9178 6.9183,7.957 6.8007,7.957 6.8007,7.9962 6.7615,7.9962 6.7615,8.0354 6.6439,8.0354 6.6439,8.1138 6.5263,8.1138 6.5263,8.153 6.4871,8.153 6.4871,8.349 6.5263,8.349 6.5263,8.4666 6.5655,8.4666 6.5655,8.5842 6.6047,8.5842 6.6047,8.7018 6.6439,8.7018 6.6439,8.8194 6.6831,8.8194 6.6831,8.937 6.7223,8.937 6.7223,9.0154 6.7615,9.0154 6.7615,8.9761 6.8399,8.9761 6.8399,8.937 6.8791,8.937 6.8791,8.8978 6.9575,8.8978 6.9575,8.8585 6.9967,8.8585 6.9967,8.8194 7.0751,8.8194 7.0751,8.7802 7.1143,8.7802 7.1143,8.741 7.1927,8.741 7.1927,8.7018 7.2319,8.7018 7.2319,8.6626 7.3103,8.6626 7.3103,8.6234 7.3495,8.6234 7.3495,8.5842 7.4279,8.5842 7.4279,8.545 7.4671,8.545 7.4671,8.5058 7.5455,8.5058 7.5455,8.4666 7.5846,8.4666 7.5846,8.4274 7.6239,8.4274 7.6239,8.3098 7.5846,8.3098 7.5846,8.2706 7.5455,8.2706 7.5455,8.2314 7.5063,8.2314 7.5063,8.153 7.4671,8.153 7.4671,8.1138 7.4279,8.1138 7.4279,8.0746 7.3887,8.0746 7.3887,8.0354 7.3495,8.0354 7.3495,7.957 7.3103,7.957 7.3103,7.9178 7.2711,7.9178 7.2711,7.8786 7.2319,7.8786 7.2319,7.8002 7.0751,7.8002 "/>
   <polygon id="_415386712" class="fil1" points="8.643,7.8394 8.6038,7.8394 8.6038,7.8786 8.5646,7.8786 8.5646,7.957 8.5254,7.957 8.5254,7.9962 8.4862,7.9962 8.4862,8.0354 8.447,8.0354 8.447,8.0746 8.4078,8.0746 8.4078,8.153 8.3686,8.153 8.3686,8.1922 8.3294,8.1922 8.3294,8.2314 8.2902,8.2314 8.2902,8.3098 8.251,8.3098 8.251,8.349 8.2118,8.349 8.2118,8.4274 8.251,8.4274 8.251,8.4666 8.3294,8.4666 8.3294,8.5058 8.3686,8.5058 8.3686,8.545 8.447,8.545 8.447,8.5842 8.4862,8.5842 8.4862,8.6234 8.5646,8.6234 8.5646,8.6626 8.6038,8.6626 8.6038,8.7018 8.6822,8.7018 8.6822,8.741 8.7214,8.741 8.7214,8.7802 8.7998,8.7802 8.7998,8.8194 8.839,8.8194 8.839,8.8585 8.9174,8.8585 8.9174,8.8978 8.9566,8.8978 8.9566,8.937 9.035,8.937 9.035,8.9761 9.1526,8.9761 9.1526,8.8978 9.1918,8.8978 9.1918,8.7802 9.231,8.7802 9.231,8.6626 9.2702,8.6626 9.2702,8.5058 9.3094,8.5058 9.3094,8.349 9.3486,8.349 9.3486,8.1138 9.231,8.1138 9.231,8.0746 9.1918,8.0746 9.1918,8.0354 9.1134,8.0354 9.1134,7.9962 9.035,7.9962 9.035,7.957 8.9958,7.957 8.9958,7.9178 8.9174,7.9178 8.9174,7.8786 8.839,7.8786 8.839,7.8394 8.7606,7.8394 8.7606,7.8002 8.643,7.8002 "/>
   <polygon id="_415386232" class="fil1" points="8.251,7.0947 8.1334,7.0947 8.1334,7.1339 7.8983,7.1339 7.8983,7.1731 7.6631,7.1731 7.6631,7.2123 7.5846,7.2123 7.5846,7.2515 7.4279,7.2515 7.4279,7.5259 7.4671,7.5259 7.4671,7.565 7.5063,7.565 7.5063,7.6434 7.5455,7.6434 7.5455,7.6826 7.5846,7.6826 7.5846,7.7218 7.6239,7.7218 7.6239,7.761 7.6631,7.761 7.6631,7.8394 7.7022,7.8394 7.7022,7.8786 7.7415,7.8786 7.7415,7.9178 7.7807,7.9178 7.7807,7.957 7.8198,7.957 7.8198,8.0354 7.859,8.0354 7.859,8.0746 7.8983,8.0746 7.8983,8.1138 7.9766,8.1138 7.9766,8.0354 8.0159,8.0354 8.0159,7.9962 8.055,7.9962 8.055,7.957 8.0942,7.957 8.0942,7.8786 8.1334,7.8786 8.1334,7.8394 8.1726,7.8394 8.1726,7.8002 8.2118,7.8002 8.2118,7.761 8.251,7.761 8.251,7.6826 8.2902,7.6826 8.2902,7.6434 8.3294,7.6434 8.3294,7.6042 8.3686,7.6042 8.3686,7.5259 8.4078,7.5259 8.4078,7.4866 8.447,7.4866 8.447,7.0555 8.251,7.0555 "/>
   <polygon id="_415386616" class="fil1" points="8.3294,9.1722 8.3686,9.1722 8.3686,9.5249 8.4078,9.5249 8.4078,9.7993 8.447,9.7993 8.447,10.2697 8.4862,10.2697 8.4862,10.3481 8.5254,10.3481 8.5254,10.2697 8.5646,10.2697 8.5646,10.1913 8.6038,10.1913 8.6038,10.1129 8.643,10.1129 8.643,10.0345 8.6822,10.0345 8.6822,9.9561 8.7214,9.9561 8.7214,9.8777 8.7606,9.8777 8.7606,9.7993 8.7998,9.7993 8.7998,9.7209 8.839,9.7209 8.839,9.6425 8.8782,9.6425 8.8782,9.5641 8.9174,9.5641 8.9174,9.4465 8.9566,9.4465 8.9566,9.3289 8.9174,9.3289 8.9174,9.2898 8.839,9.2898 8.839,9.2505 8.7998,9.2505 8.7998,9.2113 8.7606,9.2113 8.7606,9.1722 8.6822,9.1722 8.6822,9.1329 8.643,9.1329 8.643,9.0937 8.6038,9.0937 8.6038,9.0546 8.5254,9.0546 8.5254,9.0154 8.4862,9.0154 8.4862,8.9761 8.447,8.9761 8.447,8.937 8.3686,8.937 8.3686,8.8978 8.3294,8.8978 "/>
   <polygon id="_415386040" class="fil1" points="7.4671,8.9761 7.4279,8.9761 7.4279,9.0154 7.3495,9.0154 7.3495,9.0546 7.3103,9.0546 7.3103,9.0937 7.2319,9.0937 7.2319,9.1329 7.1927,9.1329 7.1927,9.1722 7.1143,9.1722 7.1143,9.2113 7.0751,9.2113 7.0751,9.2505 6.9967,9.2505 6.9967,9.2898 6.9575,9.2898 6.9575,9.3289 6.8791,9.3289 6.8791,9.4465 6.9183,9.4465 6.9183,9.5249 6.9575,9.5249 6.9575,9.6033 6.9967,9.6033 6.9967,9.6817 7.0359,9.6817 7.0359,9.7601 7.0751,9.7601 7.0751,9.8385 7.1143,9.8385 7.1143,9.9169 7.1535,9.9169 7.1535,9.9953 7.1927,9.9953 7.1927,10.0737 7.2319,10.0737 7.2319,10.1521 7.2711,10.1521 7.2711,10.2305 7.3103,10.2305 7.3103,10.3089 7.3495,10.3089 7.3495,10.3481 7.3887,10.3481 7.3887,9.9953 7.4279,9.9953 7.4279,9.6033 7.4671,9.6033 7.4671,9.2113 7.5063,9.2113 7.5063,8.937 7.4671,8.937 "/>
   <polygon id="_415386088" class="fil1" points="6.0951,4.3901 6.056,4.3901 6.056,4.4684 6.0168,4.4684 6.0168,5.2916 6.056,5.2916 6.056,5.37 6.0951,5.37 6.0951,5.4092 6.1735,5.4092 6.1735,5.4484 6.3303,5.4484 6.3303,4.4684 6.2911,4.4684 6.2911,4.4292 6.252,4.4292 6.252,4.3901 6.1735,4.3901 6.1735,4.3508 6.0951,4.3508 "/>
   <polygon id="_415386400" class="fil2" points="8.3294,5.6444 8.2902,5.6444 8.2902,5.6836 8.251,5.6836 8.251,5.7227 8.1334,5.7227 8.1334,5.762 7.8983,5.762 7.8983,5.8012 7.859,5.8012 7.859,5.8403 7.8198,5.8403 7.8198,5.8796 7.7807,5.8796 7.7807,6.0755 7.8198,6.0755 7.8198,6.1147 7.859,6.1147 7.859,6.154 8.1726,6.154 8.1726,6.1147 8.251,6.1147 8.251,6.0755 8.3294,6.0755 8.3294,6.0364 8.447,6.0364 8.447,5.9971 8.4862,5.9971 8.4862,5.9579 8.5254,5.9579 8.5254,5.9188 8.5646,5.9188 8.5646,5.8796 8.6038,5.8796 8.6038,5.6444 8.5646,5.6444 8.5646,5.6052 8.3294,5.6052 "/>
   <polygon id="_415387360" class="fil1" points="9.623,5.4484 9.8189,5.4484 9.8189,5.4092 9.8581,5.4092 9.8581,5.37 9.8974,5.37 9.8974,5.3308 9.9365,5.3308 9.9365,5.2524 9.9757,5.2524 9.9757,4.7428 9.9365,4.7428 9.9365,4.6644 9.8974,4.6644 9.8974,4.6252 9.8189,4.6252 9.8189,4.586 9.7798,4.586 9.7798,4.5468 9.7013,4.5468 9.7013,4.5077 9.623,4.5077 "/>
   <polygon id="_415386784" class="fil0" points="8.3294,4.6252 8.2902,4.6252 8.2902,4.7036 8.251,4.7036 8.251,5.0172 8.2902,5.0172 8.2902,5.0564 8.3294,5.0564 8.3294,5.0956 8.5646,5.0956 8.5646,5.0564 8.6038,5.0564 8.6038,4.6644 8.5646,4.6644 8.5646,4.6252 8.5254,4.6252 8.5254,4.586 8.3294,4.586 "/>
   <polygon id="_415387024" class="fil0" points="7.4671,4.6252 7.4279,4.6252 7.4279,4.6644 7.3887,4.6644 7.3887,4.7036 7.3495,4.7036 7.3495,4.978 7.3887,4.978 7.3887,5.0564 7.4279,5.0564 7.4279,5.0956 7.6631,5.0956 7.6631,5.0564 7.7022,5.0564 7.7022,4.6644 7.6631,4.6644 7.6631,4.6252 7.6239,4.6252 7.6239,4.586 7.4671,4.586 "/>
   <polygon id="_415387192" class="fil3" points="10.0149,16.5805 9.3486,16.5805 9.3486,15.2477 10.0541,15.2477 10.0541,15.2086 9.3094,15.2086 9.3094,16.6197 10.0149,16.6197 "/>
  </g>
 </g>
</svg>
