<?xml version="1.0" encoding="UTF-8"?>
<!DOCTYPE svg PUBLIC "-//W3C//DTD SVG 1.1//EN" "http://www.w3.org/Graphics/SVG/1.1/DTD/svg11.dtd">
<!-- Creator: CorelDRAW -->
<svg xmlns="http://www.w3.org/2000/svg" xml:space="preserve" width="16.9332mm" height="16.9332mm" style="shape-rendering:geometricPrecision; text-rendering:geometricPrecision; image-rendering:optimizeQuality; fill-rule:evenodd; clip-rule:evenodd"
viewBox="0 0 16.9332 16.9332"
 xmlns:xlink="http://www.w3.org/1999/xlink">
 <defs>
  <style type="text/css">
   <![CDATA[
    .fil0 {fill:#010103}
    .fil2 {fill:#818181}
    .fil3 {fill:#C8C8C8}
    .fil1 {fill:#FEFEFE}
   ]]>
  </style>
 </defs>
 <g id="Capa_x0020_1">
  <metadata id="CorelCorpID_0Corel-Layer"/>
  <g id="_343445104">
   <path id="_343455712" class="fil0" d="M4.8161 9.9459c-0.4728,-0.0531 -1.0445,-0.0866 -1.4568,-0.337l0.0406 -0.1489c0.2589,0.0706 1.3123,0.2904 1.4162,0.4859zm-1.6422 -0.4564c-0.056,0.0751 -0.0814,0.0171 -0.0271,-0.0341 0.0763,-0.0719 0.0768,-0.0325 0.0271,0.0341zm1.6503 0.1179l-0.0496 0.0911 -0.0542 -0.0492c-0.335,-0.0734 -1.6669,-0.7009 -1.784,-0.1932 -0.0889,0.3858 0.9832,0.4824 1.6204,0.748l-0.046 0.5491c0.0175,0.1567 0.7075,1.0218 0.8219,1.1628 0.1419,0.1746 0.4796,0.5345 0.6632,0.646 0.3862,0.2344 0.7906,-0.073 1.0677,0.2405l-0.203 1.3039 3.1615 0.0728c0.819,-0.195 1.7692,-0.6815 2.3896,-1.2397 0.6965,-0.6266 1.1624,-1.2083 1.5596,-2.0726 0.4043,-0.8798 0.6336,-2.1406 0.4969,-3.0951 -2.9791,-1.4193 -1.9677,-0.7001 -2.7896,-2.1585 -0.2145,-0.3807 -0.4041,-0.6364 -0.6744,-0.973 -0.2281,-0.284 -0.4759,-0.6831 -0.8018,-0.8454 -0.3826,-0.1906 -0.9518,-0.132 -1.374,-0.2716 -0.4142,-0.137 -0.7135,-0.5146 -1.1624,-0.4478 -0.2424,0.0361 -1.1862,-0.1529 -1.3359,0.195l0.8944 0.3056 -0.6089 0.3884 0.6764 0.2364c0.0019,0.1007 -0.2683,0.5239 -0.3228,0.7604 -0.1389,0.603 -0.1968,1.0424 -0.6766,1.4794 -0.1636,0.149 -0.4474,0.3585 -0.5397,0.5567 -0.1929,0.4147 0.1265,0.4915 0.2459,0.7518 0.0508,0.1109 0.024,0.3077 -0.0578,0.4099 -0.0905,0.1131 -0.2634,0.0796 -0.4169,0.1325 -0.4308,0.1486 -0.2333,0.4042 -0.2052,0.6714l-0.4947 0.6444z"/>
   <path id="_343456048" class="fil1" d="M3.418 7.964c0.2071,0.4677 0.1938,0.0723 -0.0755,1.0253 0.0378,-0.7457 0.0859,-0.5255 -0.1001,-1.13l0.3392 -0.2812c-0.0727,-0.4153 -0.2846,-0.1145 0.1335,-0.8782 0.1669,0.2104 -0.156,0.2885 0.0091,0.7049 0.1489,0.3753 -0.1249,0.3253 -0.3062,0.5592zm1.3024 1.6853l0.1038 -0.0419 0.4947 -0.6444c-0.0281,-0.2672 -0.2256,-0.5228 0.2052,-0.6714 0.1535,-0.0529 0.3264,-0.0194 0.4169,-0.1325 0.0818,-0.1022 0.1086,-0.299 0.0578,-0.4099 -0.1194,-0.2603 -0.4388,-0.3371 -0.2459,-0.7518 0.0923,-0.1982 0.3761,-0.4077 0.5397,-0.5567 0.4798,-0.437 0.5377,-0.8764 0.6766,-1.4794 0.0545,-0.2365 0.3247,-0.6597 0.3228,-0.7604l-0.6764 -0.2364 0.6089 -0.3884 -0.8944 -0.3056c0.1497,-0.3479 1.0935,-0.1589 1.3359,-0.195 0.4489,-0.0668 0.7482,0.3108 1.1624,0.4478 0.4222,0.1396 0.9914,0.081 1.374,0.2716 0.3259,0.1623 0.5737,0.5614 0.8018,0.8454 0.2703,0.3366 0.4599,0.5923 0.6744,0.973 0.8219,1.4584 -0.1895,0.7392 2.7896,2.1585 0.1367,0.9545 -0.0926,2.2153 -0.4969,3.0951 -0.3972,0.8643 -0.8631,1.446 -1.5596,2.0726 -0.6204,0.5582 -1.5706,1.0447 -2.3896,1.2397l-3.1615 -0.0728 0.203 -1.3039c-0.2771,-0.3135 -0.6815,-0.0061 -1.0677,-0.2405 -0.1836,-0.1115 -0.5213,-0.4714 -0.6632,-0.646 -0.1144,-0.141 -0.8044,-1.0061 -0.8219,-1.1628l0.046 -0.5491c-0.6372,-0.2656 -1.7093,-0.3622 -1.6204,-0.748 0.1171,-0.5077 1.449,0.1198 1.784,0.1932zm-2.845 -0.7605c0.1969,3.5826 3.4497,6.4234 7.0133,6.1928 3.7003,-0.2394 6.4442,-3.334 6.234,-7.0398 -0.2078,-3.664 -3.3999,-6.4335 -7.0507,-6.1953 -3.6593,0.2387 -6.3973,3.3907 -6.1966,7.0423z"/>
   <path id="_343454992" class="fil1" d="M16.9332 16.9122l0 -7.9253c-0.3593,2.4679 -0.8778,3.8206 -2.6607,5.602 -1.5422,1.5407 -3.8376,2.3359 -5.9945,2.2843 -4.5272,-0.1083 -8.1686,-3.8403 -8.1893,-8.3648 -0.0329,-7.1932 8.4964,-11.2824 14.1512,-6.2168 0.6987,0.626 1.3531,1.5265 1.7808,2.3596 0.5816,1.1327 0.7171,1.9982 0.9125,3.2302l-0.0422 -7.8604 -16.7221 0 -0.1267 0 -0.0422 16.8912 16.9332 0z"/>
   <path id="_343454824" class="fil0" d="M8.823 15.8063c0.2072,0.0591 0.1514,0.4864 0.1654,0.8913l-0.191 -0.0073c-0.0275,-0.2083 -0.0585,-0.7243 0.0256,-0.884zm-0.6178 0.0211l0.247 -0.0051 -0.005 0.888 -0.3012 -0.019 0.0592 -0.8639zm-0.4101 0.8555l-0.3171 -0.0475 0.1351 -0.8687 0.2249 0.0284c0.0458,0.2118 0.0133,0.6708 -0.0429,0.8878zm1.4688 -0.904l0.3264 -0.0367c0.0843,0.1644 0.1773,0.673 0.1622,0.8811l-0.4168 0.0237 -0.0718 -0.8681zm-2.1299 0.8011l-0.2554 -0.0415c-0.0331,-0.1091 0.1158,-0.7258 0.1697,-0.8563l0.1974 0.0283c0.0267,0.1793 -0.0496,0.6951 -0.1117,0.8695zm2.8519 -0.9139l0.1913 -0.0193c0.0683,0.1999 0.2069,0.6476 0.198,0.8423l-0.2412 0.0567c-0.082,-0.1659 -0.1859,-0.6973 -0.1481,-0.8797zm0.5228 -0.1012l0.2282 -0.0836 0.2679 0.8358 -0.2835 0.0788 -0.2126 -0.831zm-4.004 0.8906l-0.2577 -0.0555c0.0102,-0.1987 0.158,-0.6779 0.2563,-0.8489l0.1878 0.0345c0.0222,0.1433 -0.1183,0.7492 -0.1864,0.8699zm4.5462 -1.0939l0.2273 -0.0697c0.0859,0.0994 0.3303,0.6654 0.3586,0.8059l-0.3002 0.1139 -0.2857 -0.8501zm-5.1334 0.9064l-0.3894 -0.1184 0.3023 -0.8013 0.3387 0.0946 -0.2516 0.8251zm-0.7605 -0.2787l-0.1662 -0.0569c0.016,-0.1998 0.2591,-0.7056 0.4213,-0.8018l0.0757 0.0474c0.0343,0.1018 -0.2326,0.7183 -0.3308,0.8113zm6.4512 -0.8419l0.2263 -0.094 0.3753 0.7624c-0.1044,0.0921 -0.1181,0.1029 -0.263,0.1211l-0.3386 -0.7895zm-6.9678 0.6023l-0.2253 -0.1413c0.0499,-0.1407 0.3512,-0.661 0.4619,-0.7479l0.1693 0.1267c-0.0644,0.1832 -0.2789,0.6422 -0.4059,0.7625zm7.9076 -0.0926c-0.089,-0.1022 -0.3984,-0.6719 -0.4114,-0.798 0.1755,0.1989 0.4459,0.4764 0.5164,0.7327l-0.105 0.0653zm-8.2035 -1.1211l0.2065 0.1346 -0.4417 0.769 -0.2796 -0.1814 0.5148 -0.7222zm8.1721 0.1062l0.1953 -0.134 0.508 0.7123 -0.2468 0.1705c-0.211,-0.1842 -0.3224,-0.5152 -0.4565,-0.7488zm-9.18 0.2409c0.0759,-0.1732 0.452,-0.6066 0.5914,-0.6719l0.1333 0.1218 -0.5034 0.7238 -0.2213 -0.1737zm9.8274 -0.7152l0.5777 0.6635 -0.223 0.1901c-0.1075,-0.1052 -0.4761,-0.6062 -0.5189,-0.737l0.1642 -0.1166zm0.4298 -0.3753l0.6201 0.6216c-0.0961,0.1151 -0.1135,0.1403 -0.238,0.1703l-0.5352 -0.6618 0.1531 -0.1301zm-10.7352 0.6746c0.0926,-0.1885 0.4433,-0.496 0.6046,-0.6388l0.1621 0.1304 -0.5417 0.6685c-0.1183,-0.0363 -0.1426,-0.0637 -0.225,-0.1601zm0.118 -1.1472l0.2337 0.2568 -0.6015 0.6237c-0.1205,-0.0672 -0.241,-0.2005 -0.2879,-0.3303l0.6557 -0.5502zm11.0918 -0.0314l0.6628 0.5411c-0.053,0.128 -0.1603,0.2601 -0.2773,0.3305 -0.1175,-0.0774 -0.5417,-0.5025 -0.6117,-0.6251l0.2262 -0.2465zm-12.1765 0.0752c0.172,-0.151 0.5416,-0.4346 0.716,-0.4916l0.149 0.1894c-0.1541,0.135 -0.5414,0.4907 -0.6776,0.5497l-0.1874 -0.2475zm12.5147 -0.4973c0.1316,0.0244 0.6479,0.3786 0.7401,0.4976l-0.1486 0.1972c-0.1976,-0.0692 -0.6034,-0.3898 -0.6847,-0.5798l0.0932 -0.115zm0.5079 -0.1015c-0.2155,-0.1481 -0.336,-0.1418 -0.1831,-0.3759l0.7591 0.4299 -0.1606 0.2363c-0.1472,-0.0882 -0.2741,-0.1933 -0.4154,-0.2903zm-13.38 0.0603c0.148,-0.1177 0.585,-0.3867 0.7421,-0.4247l0.1178 0.1578 -0.6954 0.525 -0.1645 -0.2581zm14.29 -0.5928c-0.0148,0.1134 -0.0718,0.2105 -0.1587,0.2898l-0.7375 -0.4642 0.1001 -0.1832c0.1678,0.0182 0.6416,0.2605 0.7961,0.3576zm-14.6216 0.0103c0.1766,-0.1096 0.5978,-0.3294 0.7809,-0.359l0.1122 0.1935 -0.7411 0.4547c-0.0926,-0.0882 -0.1356,-0.1593 -0.152,-0.2892zm0.506 -0.8955l0.1079 0.194c-0.1539,0.1224 -0.6171,0.3667 -0.794,0.3712l-0.1027 -0.2523 0.7888 -0.3129zm13.5744 -0.0085c0.1771,0.031 0.6778,0.2245 0.8165,0.3336l-0.0995 0.2415 -0.7931 -0.3824 0.0761 -0.1927zm-14.5844 -0.2579c0.1632,-0.0994 0.6709,-0.2591 0.8563,-0.2461l0.0458 0.1627c-0.1197,0.1092 -0.6722,0.3247 -0.8337,0.3379l-0.0684 -0.2545zm14.7436 -0.07c0.0123,-0.1349 0.0462,-0.234 0.1161,-0.3229l0.805 0.2301c0.0013,0.1446 -0.0662,0.3193 -0.1509,0.4086l-0.7702 -0.3158zm-14.0985 -0.87l0.0847 0.3387 -0.8325 0.2648c-0.0748,-0.1277 -0.1037,-0.2697 -0.0957,-0.4286l0.8435 -0.1749zm14.3699 -0.1324l0.8391 0.1558c0.0131,0.1421 -0.0233,0.292 -0.0844,0.4198l-0.8488 -0.2279 0.0941 -0.3477zm-15.3354 -0.3527c0.2367,-0.0567 0.649,-0.1404 0.8621,-0.0594l0.0192 0.2083 -0.8607 0.1888 -0.0206 -0.3377zm15.4207 -0.2056l0.8667 0.0866 -0.0197 0.2827 -0.8938 -0.1447 0.0468 -0.2246zm-14.612 -0.3341l0.0421 0.0533 -0.0915 0.0675c-0.2993,0.0024 -0.5143,0.0994 -0.8357,0.0755l-0.0281 -0.2574c0.2257,-0.1137 0.6348,-0.0875 0.8925,-0.0699l0.0207 0.131zm14.6917 -0.2395l0.8417 0.0159 0.0065 0.3151 -0.6478 -0.0558 -0.2476 -0.0425c-0.0074,-0.1824 -0.0244,-0.1209 0.0472,-0.2327zm-8.2133 -7.5492c3.9402,-0.4605 7.558,2.3546 7.9853,6.3097 0.4243,3.9272 -2.3372,7.512 -6.2827,7.9599 -3.9757,0.4514 -7.5163,-2.328 -8.0081,-6.2946 -0.4862,-3.9214 2.4109,-7.5199 6.3055,-7.975zm-7.4039 7.0364c0.2625,-0.0236 0.6883,-0.0663 0.8907,0.0563l-0.0008 0.1779c-0.1989,0.1129 -0.6434,0.1231 -0.8949,0.0738l0.005 -0.308zm16.4884 -0.107l0.0102 0.2905c-0.2104,0.0409 -0.7253,0.0467 -0.9015,-0.0374l0.0226 -0.2122c0.1419,-0.0547 0.7176,-0.0783 0.8687,-0.0409zm-16.4595 -0.5365l0.8619 0.0916 0.0161 0.2195c-0.2211,0.0485 -0.6748,0.0336 -0.8913,-0.0297l0.0133 -0.2814zm15.5542 -0.0049c0.1908,-0.052 0.693,-0.1184 0.8754,-0.0988l0.0178 0.2583c-0.1834,0.0684 -0.6731,0.0791 -0.8795,0.061l-0.0137 -0.2205zm-15.478 -0.6135c0.2295,-0.0104 0.3267,0.0462 0.5378,0.0795 0.2862,0.0451 0.3759,-0.0185 0.3081,0.2711l-0.8721 -0.0683 0.0262 -0.2823zm15.3899 0.0159c0.1845,-0.0621 0.6922,-0.1805 0.8659,-0.1611l0.0345 0.2866c-0.171,0.0723 -0.7445,0.142 -0.8766,0.0842l-0.0238 -0.2097zm-15.3009 -0.3824c0.0096,-0.1383 0.0266,-0.2974 0.1004,-0.4068l0.826 0.2337 -0.0601 0.3428 -0.8663 -0.1697zm15.9674 -0.5598c0.0724,0.1378 0.1022,0.2814 0.0967,0.427l-0.8423 0.1802 -0.0669 -0.3548 0.8125 -0.2524zm-15.7712 -0.1742c0.0018,-0.1368 0.0694,-0.3135 0.1477,-0.4071 0.249,0.0938 0.5968,0.1855 0.7944,0.3417l-0.1092 0.2966 -0.8329 -0.2312zm15.5652 -0.4273l0.1137 0.2486c-0.1274,0.1064 -0.6635,0.2503 -0.8322,0.2779l-0.0724 -0.2093 0.7909 -0.3172zm-1.0067 -0.189c0.1216,-0.1248 0.6315,-0.3647 0.79,-0.3748l0.1024 0.2393 -0.8094 0.3296 -0.083 -0.1941zm-14.1987 -0.3681c0.1591,0.0119 0.6863,0.2668 0.7974,0.3732l-0.0749 0.1911 -0.8273 -0.3271 0.1048 -0.2372zm14.6556 -0.627l0.167 0.2657c-0.1316,0.1163 -0.6392,0.3699 -0.8029,0.3853l-0.1008 -0.213 0.7367 -0.438zm-14.3307 0.0049c0.2,0.1184 0.6396,0.3139 0.741,0.4873l-0.0902 0.1692c-0.1792,-0.0199 -0.6878,-0.265 -0.8092,-0.3923l0.1584 -0.2642zm13.3019 -0.0238c0.0977,-0.1743 0.5287,-0.4143 0.6931,-0.5202l0.1639 0.2211 -0.7367 0.4698 -0.1203 -0.1707zm-13.1133 -0.2556c0.0292,-0.1424 0.0577,-0.1606 0.1625,-0.2487l0.7015 0.4839 -0.1085 0.1844c-0.136,-0.0244 -0.6238,-0.329 -0.7555,-0.4196zm12.7425 -0.2485c0.1321,-0.1434 0.5306,-0.4867 0.6779,-0.5507l0.1807 0.2002c-0.0905,0.1692 -0.5507,0.4822 -0.7273,0.5287l-0.1313 -0.1782zm-12.2499 -0.5077c0.1497,0.042 0.5969,0.4116 0.6907,0.5432l-0.1037 0.1517c-0.1638,-0.022 -0.5902,-0.356 -0.7332,-0.4903l0.1462 -0.2046zm0.5084 -0.5976c0.1686,0.0819 0.4899,0.444 0.6414,0.6l-0.225 0.2773 -0.6703 -0.5785 0.2539 -0.2988zm11.8917 -0.0489l0.303 0.2981 -0.6713 0.5874 -0.2401 -0.2877 0.6084 -0.5978zm-11.43 -0.3869c0.1434,0.0783 0.5073,0.5085 0.5931,0.6517l-0.157 0.1532 -0.6283 -0.6293 0.1922 -0.1756zm10.4124 0.6141c0.1289,-0.1801 0.4233,-0.5465 0.5755,-0.6546l0.2047 0.1759 -0.6244 0.6329 -0.1558 -0.1542zm-9.9023 -1.0377l0.5267 0.6847 -0.1499 0.1692 -0.6 -0.6739 0.2232 -0.18zm9.466 0.6921c0.0599,-0.17 0.3731,-0.5935 0.5106,-0.7205l0.2196 0.1737c-0.0624,0.129 -0.4943,0.6289 -0.599,0.6649l-0.1312 -0.1181zm-8.9102 -1.0675c0.1296,0.1515 0.4306,0.5899 0.443,0.7586l-0.1829 0.1242c-0.1525,-0.1792 -0.4706,-0.5454 -0.5034,-0.7376l0.2433 -0.1452zm8.4212 0.7216c0.0297,-0.1406 0.3374,-0.6535 0.4534,-0.7463l0.2575 0.1623 -0.5142 0.7198 -0.1967 -0.1358zm-0.4707 -0.2543c-0.0356,-0.2349 0.2426,-0.6589 0.3699,-0.8309l0.2324 0.1364c-0.0501,0.1987 -0.3172,0.6755 -0.4898,0.7518l-0.1125 -0.0573zm-7.1525 0.0879c-0.1166,-0.0521 -0.2041,-0.2528 -0.2829,-0.3794 -0.0698,-0.1122 -0.1905,-0.2585 -0.1946,-0.385l0.2076 0.1164c0.0004,0.0003 0.3352,0.5427 0.2699,0.648zm-0.0489 -0.9649c0.0992,-0.095 0.134,-0.1095 0.2653,-0.1245 0.0933,0.1709 0.3137,0.6305 0.327,0.7993l-0.1854 0.0857 -0.4069 -0.7605zm6.7849 0.6623c-0.1139,-0.1053 -0.0927,-0.0572 -0.0217,-0.2342 0.059,-0.1472 0.2193,-0.5276 0.2918,-0.6179l0.1692 0.0647c-0.0709,0.1687 -0.2618,0.7675 -0.4393,0.7874zm-5.9315 -1.0635c0.0965,0.1423 0.2918,0.6892 0.2853,0.853l-0.1983 0.066c-0.1049,-0.1335 -0.3229,-0.6454 -0.3491,-0.8204l0.2621 -0.0986zm5.4457 -0.0628c0.1382,0.0043 0.3084,0.0496 0.406,0.142l-0.313 0.787 -0.345 -0.1015 0.252 -0.8275zm-0.6066 -0.1838l0.2549 0.0392c0.0397,0.1697 -0.1438,0.7089 -0.2338,0.8561l-0.2116 -0.048 0.1905 -0.8473zm-2.3023 0.6467c-0.1902,-0.0487 -0.1757,-0.6852 -0.1662,-0.8832l0.1663 -0.0127 -0.0001 0.8959zm-1.9087 -0.6019l0.2258 0.8548 -0.1986 0.0713c-0.0862,-0.1091 -0.2588,-0.6629 -0.3047,-0.8319l0.2775 -0.0942zm3.5937 -0.187l0.2812 0.0578 -0.1824 0.8523 -0.2374 -0.0369 0.1386 -0.8732zm-2.9974 0.0321c0.0744,0.1153 0.1761,0.7305 0.1718,0.8835l-0.1738 0.0432c-0.1131,-0.1209 -0.2363,-0.6523 -0.2451,-0.8496l0.2471 -0.0771zm1.6787 -0.1339l0.3056 -0.0002 -0.0422 0.879 -0.2476 -0.0022 -0.0158 -0.8766zm-0.884 0.0357c0.0381,0.2275 0.092,0.6925 0.0487,0.8858l-0.3315 0.0216c-0.0384,-0.2123 -0.1663,-0.6894 -0.1136,-0.8685l0.3964 -0.0389zm1.4993 0.8549c-0.0483,-0.2744 0.0057,-0.5875 0.0492,-0.8678l0.3038 0.033 -0.1156 0.8682 -0.2374 -0.0334zm7.7584 7.8709l0 -1.1055c-0.1954,-1.232 -0.3309,-2.0975 -0.9125,-3.2302 -0.4277,-0.8331 -1.0821,-1.7336 -1.7808,-2.3596 -5.6548,-5.0656 -14.1841,-0.9764 -14.1512,6.2168 0.0207,4.5245 3.6621,8.2565 8.1893,8.3648 2.1569,0.0516 4.4523,-0.7436 5.9945,-2.2843 1.7829,-1.7814 2.3014,-3.1341 2.6607,-5.602z"/>
   <path id="_343455088" class="fil1" d="M7.8321 1.7052c3.741,-0.3572 7.0488,2.3136 7.4398,6.0569 0.3881,3.7149 -2.3465,7.0951 -6.0662,7.4606 -3.6852,0.3621 -7.1256,-2.3242 -7.4532,-6.0581 -0.3308,-3.7696 2.2867,-7.0972 6.0796,-7.4594zm-0.1665 -0.3778c-3.8946,0.4551 -6.7917,4.0536 -6.3055,7.975 0.4918,3.9666 4.0324,6.746 8.0081,6.2946 3.9455,-0.4479 6.707,-4.0327 6.2827,-7.9599 -0.4273,-3.9551 -4.0451,-6.7702 -7.9853,-6.3097z"/>
   <path id="_343455328" class="fil0" d="M1.8754 8.8888c-0.2007,-3.6516 2.5373,-6.8036 6.1966,-7.0423 3.6508,-0.2382 6.8429,2.5313 7.0507,6.1953 0.2102,3.7058 -2.5337,6.8004 -6.234,7.0398 -3.5636,0.2306 -6.8164,-2.6102 -7.0133,-6.1928zm5.9567 -7.1836c-3.7929,0.3622 -6.4104,3.6898 -6.0796,7.4594 0.3276,3.7339 3.768,6.4202 7.4532,6.0581 3.7197,-0.3655 6.4543,-3.7457 6.0662,-7.4606 -0.391,-3.7433 -3.6988,-6.4141 -7.4398,-6.0569z"/>
   <path id="_343454920" class="fil0" d="M3.418 7.964c0.1813,-0.2339 0.4551,-0.1839 0.3062,-0.5592 -0.1651,-0.4164 0.1578,-0.4945 -0.0091,-0.7049 -0.4181,0.7637 -0.2062,0.4629 -0.1335,0.8782l-0.3392 0.2812c0.186,0.6045 0.1379,0.3843 0.1001,1.13 0.2693,-0.953 0.2826,-0.5576 0.0755,-1.0253z"/>
   <path id="_343455376" class="fil1" d="M7.3927 1.1685l0.3315 -0.0216c0.0433,-0.1933 -0.0106,-0.6583 -0.0487,-0.8858l-0.3964 0.0389c-0.0527,0.1791 0.0752,0.6562 0.1136,0.8685z"/>
   <path id="_343454152" class="fil1" d="M13.8422 13.5351c0.07,0.1226 0.4942,0.5477 0.6117,0.6251 0.117,-0.0704 0.2243,-0.2025 0.2773,-0.3305l-0.6628 -0.5411 -0.2262 0.2465z"/>
   <path id="_343453984" class="fil1" d="M9.3357 16.647l0.4168 -0.0237c0.0151,-0.2081 -0.0779,-0.7167 -0.1622,-0.8811l-0.3264 0.0367 0.0718 0.8681z"/>
   <path id="_343453912" class="fil1" d="M0.5005 10.3158c-0.008,0.1589 0.0209,0.3009 0.0957,0.4286l0.8325 -0.2648 -0.0847 -0.3387 -0.8435 0.1749z"/>
   <path id="_343454416" class="fil1" d="M0.652 6.0014l0.8329 0.2312 0.1092 -0.2966c-0.1976,-0.1562 -0.5454,-0.2479 -0.7944,-0.3417 -0.0783,0.0936 -0.1459,0.2703 -0.1477,0.4071z"/>
   <path id="_343453888" class="fil1" d="M15.6107 6.428l0.0669 0.3548 0.8423 -0.1802c0.0055,-0.1456 -0.0243,-0.2892 -0.0967,-0.427l-0.8125 0.2524z"/>
   <path id="_343454368" class="fil1" d="M15.6198 10.3562l0.8488 0.2279c0.0611,-0.1278 0.0975,-0.2777 0.0844,-0.4198l-0.8391 -0.1558 -0.0941 0.3477z"/>
   <path id="_343454056" class="fil1" d="M2.3209 13.8702c0.0469,0.1298 0.1674,0.2631 0.2879,0.3303l0.6015 -0.6237 -0.2337 -0.2568 -0.6557 0.5502z"/>
   <polygon id="_343453576" class="fil1" points="13.8096,3.3106 14.0497,3.5983 14.721,3.0109 14.418,2.7128 "/>
   <path id="_343453408" class="fil1" d="M10.8501 1.4807l0.345 0.1015 0.313 -0.787c-0.0976,-0.0924 -0.2678,-0.1377 -0.406,-0.142l-0.252 0.8275z"/>
   <path id="_343453384" class="fil1" d="M2.2724 3.0605l0.6703 0.5785 0.225 -0.2773c-0.1515,-0.156 -0.4728,-0.5181 -0.6414,-0.6l-0.2539 0.2988z"/>
   <path id="_343453648" class="fil1" d="M15.4425 11.0109l0.7702 0.3158c0.0847,-0.0893 0.1522,-0.264 0.1509,-0.4086l-0.805 -0.2301c-0.0699,0.0889 -0.1038,0.188 -0.1161,0.3229z"/>
   <path id="_343453864" class="fil1" d="M0.4558 6.7354l0.8663 0.1697 0.0601 -0.3428 -0.826 -0.2337c-0.0738,0.1094 -0.0908,0.2685 -0.1004,0.4068z"/>
   <polygon id="_343453744" class="fil1" points="6.1691,15.4429 5.8304,15.3483 5.5281,16.1496 5.9175,16.268 "/>
   <path id="_343452592" class="fil1" d="M0.2567 8.6718c0.2515,0.0493 0.696,0.0391 0.8949,-0.0738l0.0008 -0.1779c-0.2024,-0.1226 -0.6282,-0.0799 -0.8907,-0.0563l-0.005 0.308z"/>
   <path id="_343452688" class="fil1" d="M1.1783 4.6591c0.1214,0.1273 0.63,0.3724 0.8092,0.3923l0.0902 -0.1692c-0.1014,-0.1734 -0.541,-0.3689 -0.741,-0.4873l-0.1584 0.2642z"/>
   <path id="_343452736" class="fil1" d="M15.8814 8.2977l-0.0226 0.2122c0.1762,0.0841 0.6911,0.0783 0.9015,0.0374l-0.0102 -0.2905c-0.1511,-0.0374 -0.7268,-0.0138 -0.8687,0.0409z"/>
   <path id="_343452904" class="fil1" d="M3.8106 1.6721c0.0328,0.1922 0.3509,0.5584 0.5034,0.7376l0.1829 -0.1242c-0.0124,-0.1687 -0.3134,-0.6071 -0.443,-0.7586l-0.2433 0.1452z"/>
   <path id="_343452808" class="fil1" d="M14.2678 3.867l0.1313 0.1782c0.1766,-0.0465 0.6368,-0.3595 0.7273,-0.5287l-0.1807 -0.2002c-0.1473,0.064 -0.5458,0.4073 -0.6779,0.5507z"/>
   <path id="_343452400" class="fil1" d="M1.8919 13.3638l0.1874 0.2475c0.1362,-0.059 0.5235,-0.4147 0.6776,-0.5497l-0.149 -0.1894c-0.1744,0.057 -0.544,0.3406 -0.716,0.4916z"/>
   <path id="_343452184" class="fil1" d="M15.7567 7.1178l0.0238 0.2097c0.1321,0.0578 0.7056,-0.0119 0.8766,-0.0842l-0.0345 -0.2866c-0.1737,-0.0194 -0.6814,0.099 -0.8659,0.1611z"/>
   <path id="_343451896" class="fil1" d="M0.3785 9.6558l0.0206 0.3377 0.8607 -0.1888 -0.0192 -0.2083c-0.2131,-0.081 -0.6254,0.0027 -0.8621,0.0594z"/>
   <path id="_343451680" class="fil1" d="M5.3943 0.8146c0.0262,0.175 0.2442,0.6869 0.3491,0.8204l0.1983 -0.066c0.0065,-0.1638 -0.1888,-0.7107 -0.2853,-0.853l-0.2621 0.0986z"/>
   <path id="_343451632" class="fil1" d="M7.7951 16.6829c0.0562,-0.217 0.0887,-0.676 0.0429,-0.8878l-0.2249 -0.0284 -0.1351 0.8687 0.3171 0.0475z"/>
   <path id="_343452328" class="fil1" d="M11.3366 16.2117l0.3002 -0.1139c-0.0283,-0.1405 -0.2727,-0.7065 -0.3586,-0.8059l-0.2273 0.0697 0.2857 0.8501z"/>
   <path id="_343451608" class="fil1" d="M14.9307 4.828l0.1008 0.213c0.1637,-0.0154 0.6713,-0.269 0.8029,-0.3853l-0.167 -0.2657 -0.7367 0.438z"/>
   <path id="_343451752" class="fil1" d="M12.4751 2.2485l0.1967 0.1358 0.5142 -0.7198 -0.2575 -0.1623c-0.116,0.0928 -0.4237,0.6057 -0.4534,0.7463z"/>
   <path id="_343451104" class="fil1" d="M3.3593 9.6089c0.4123,0.2504 0.984,0.2839 1.4568,0.337 -0.1039,-0.1955 -1.1573,-0.4153 -1.4162,-0.4859l-0.0406 0.1489z"/>
   <path id="_343450912" class="fil1" d="M1.1378 9.2369c0.0432,-0.0627 0.0115,-0.0236 0.0494,-0.1208l-0.0207 -0.131c-0.2577,-0.0176 -0.6668,-0.0438 -0.8925,0.0699l0.0281 0.2574c0.3214,0.0239 0.5364,-0.0731 0.8357,-0.0755z"/>
   <path id="_343451464" class="fil1" d="M1.2029 12.2428c0.0164,0.1299 0.0594,0.201 0.152,0.2892l0.7411 -0.4547 -0.1122 -0.1935c-0.1831,0.0296 -0.6043,0.2494 -0.7809,0.359z"/>
   <path id="_343450888" class="fil1" d="M12.0044 1.9942l0.1125 0.0573c0.1726,-0.0763 0.4397,-0.5531 0.4898,-0.7518l-0.2324 -0.1364c-0.1273,0.172 -0.4055,0.596 -0.3699,0.8309z"/>
   <path id="_343450816" class="fil1" d="M14.9283 12.0581l0.7375 0.4642c0.0869,-0.0793 0.1439,-0.1764 0.1587,-0.2898 -0.1545,-0.0971 -0.6283,-0.3394 -0.7961,-0.3576l-0.1001 0.1832z"/>
   <path id="_343451392" class="fil1" d="M9.1748 1.116l0.2374 0.0334 0.1156 -0.8682 -0.3038 -0.033c-0.0435,0.2803 -0.0975,0.5934 -0.0492,0.8678z"/>
   <polygon id="_343450504" class="fil1" points="3.8297,15.2582 4.1093,15.4396 4.551,14.6706 4.3445,14.536 "/>
   <path id="_343450456" class="fil1" d="M12.5166 14.6422c0.1341,0.2336 0.2455,0.5646 0.4565,0.7488l0.2468 -0.1705 -0.508 -0.7123 -0.1953 0.134z"/>
   <path id="_343450120" class="fil1" d="M15.8448 7.7154l0.0137 0.2205c0.2064,0.0181 0.6961,0.0074 0.8795,-0.061l-0.0178 -0.2583c-0.1824,-0.0196 -0.6846,0.0468 -0.8754,0.0988z"/>
   <path id="_343450240" class="fil1" d="M12.9641 2.5944l0.1312 0.1181c0.1047,-0.036 0.5366,-0.5359 0.599,-0.6649l-0.2196 -0.1737c-0.1375,0.127 -0.4507,0.5505 -0.5106,0.7205z"/>
   <path id="_343450432" class="fil1" d="M6.5047 16.4555c0.0681,-0.1207 0.2086,-0.7266 0.1864,-0.8699l-0.1878 -0.0345c-0.0983,0.171 -0.2461,0.6502 -0.2563,0.8489l0.2577 0.0555z"/>
   <path id="_343450648" class="fil1" d="M0.6989 11.0809l0.0684 0.2545c0.1615,-0.0132 0.714,-0.2287 0.8337,-0.3379l-0.0458 -0.1627c-0.1854,-0.013 -0.6931,0.1467 -0.8563,0.2461z"/>
   <path id="_343449280" class="fil1" d="M4.6404 15.7497c0.127,-0.1203 0.3415,-0.5793 0.4059,-0.7625l-0.1693 -0.1267c-0.1107,0.0869 -0.412,0.6072 -0.4619,0.7479l0.2253 0.1413z"/>
   <path id="_343450000" class="fil1" d="M0.2773 8.0017c0.2165,0.0633 0.6702,0.0782 0.8913,0.0297l-0.0161 -0.2195 -0.8619 -0.0916 -0.0133 0.2814z"/>
   <path id="_343449808" class="fil1" d="M6.6337 0.4364c0.0088,0.1973 0.132,0.7287 0.2451,0.8496l0.1738 -0.0432c0.0043,-0.153 -0.0974,-0.7682 -0.1718,-0.8835l-0.2471 0.0771z"/>
   <polygon id="_343449640" class="fil1" points="8.5753,1.102 8.8229,1.1042 8.8651,0.2252 8.5595,0.2254 "/>
   <path id="_343449472" class="fil1" d="M1.8717 3.5639c0.143,0.1343 0.5694,0.4683 0.7332,0.4903l0.1037 -0.1517c-0.0938,-0.1316 -0.541,-0.5012 -0.6907,-0.5432l-0.1462 0.2046z"/>
   <path id="_343449664" class="fil1" d="M14.3134 12.9815c0.0813,0.19 0.4871,0.5106 0.6847,0.5798l0.1486 -0.1972c-0.0922,-0.119 -0.6085,-0.4732 -0.7401,-0.4976l-0.0932 0.115z"/>
   <path id="_343450024" class="fil1" d="M7.134 16.58c0.0621,-0.1744 0.1384,-0.6902 0.1117,-0.8695l-0.1974 -0.0283c-0.0539,0.1305 -0.2028,0.7472 -0.1697,0.8563l0.2554 0.0415z"/>
   <polygon id="_343448536" class="fil1" points="8.146,16.6913 8.4472,16.7103 8.4522,15.8223 8.2052,15.8274 "/>
   <path id="_343449040" class="fil1" d="M0.9201 11.6602l0.1027 0.2523c0.1769,-0.0045 0.6401,-0.2488 0.794,-0.3712l-0.1079 -0.194 -0.7888 0.3129z"/>
   <path id="_343448512" class="fil1" d="M10.305 1.3167l0.2116 0.048c0.09,-0.1472 0.2735,-0.6864 0.2338,-0.8561l-0.2549 -0.0392 -0.1905 0.8473z"/>
   <path id="_343449232" class="fil1" d="M1.5253 4.1155c0.1317,0.0906 0.6195,0.3952 0.7555,0.4196l0.1085 -0.1844 -0.7015 -0.4839c-0.1048,0.0881 -0.1333,0.1063 -0.1625,0.2487z"/>
   <path id="_343449016" class="fil1" d="M10.3752 16.4891c0.0089,-0.1947 -0.1297,-0.6424 -0.198,-0.8423l-0.1913 0.0193c-0.0378,0.1824 0.0661,0.7138 0.1481,0.8797l0.2412 -0.0567z"/>
   <path id="_343449112" class="fil1" d="M4.803 1.1172l0.4069 0.7605 0.1854 -0.0857c-0.0133,-0.1688 -0.2337,-0.6284 -0.327,-0.7993 -0.1313,0.015 -0.1661,0.0295 -0.2653,0.1245z"/>
   <path id="_343447840" class="fil1" d="M6.007 0.6084c0.0459,0.169 0.2185,0.7228 0.3047,0.8319l0.1986 -0.0713 -0.2258 -0.8548 -0.2775 0.0942z"/>
   <polygon id="_343448320" class="fil1" points="16.0793,9.1518 16.7271,9.2076 16.7206,8.8925 15.8789,8.8766 15.8642,9.0621 "/>
   <path id="_343448416" class="fil1" d="M12.9998 14.2845c0.0428,0.1308 0.4114,0.6318 0.5189,0.737l0.223 -0.1901 -0.5777 -0.6635 -0.1642 0.1166z"/>
   <path id="_343447960" class="fil1" d="M15.2105 5.3851l0.083 0.1941 0.8094 -0.3296 -0.1024 -0.2393c-0.1585,0.0101 -0.6684,0.25 -0.79,0.3748z"/>
   <path id="_343448080" class="fil1" d="M15.4263 5.8913l0.0724 0.2093c0.1687,-0.0276 0.7048,-0.1715 0.8322,-0.2779l-0.1137 -0.2486 -0.7909 0.3172z"/>
   <path id="_343447912" class="fil1" d="M11.9468 15.9369c0.1449,-0.0182 0.1586,-0.029 0.263,-0.1211l-0.3753 -0.7624 -0.2263 0.094 0.3386 0.7895z"/>
   <path id="_343447696" class="fil1" d="M3.3366 14.8831l0.2213 0.1737 0.5034 -0.7238 -0.1333 -0.1218c-0.1394,0.0653 -0.5155,0.4987 -0.5914,0.6719z"/>
   <path id="_343447528" class="fil1" d="M1.5345 12.8253l0.1645 0.2581 0.6954 -0.525 -0.1178 -0.1578c-0.1571,0.038 -0.5941,0.307 -0.7421,0.4247z"/>
   <path id="_343446976" class="fil1" d="M2.8586 14.4672c0.0824,0.0964 0.1067,0.1238 0.225,0.1601l0.5417 -0.6685 -0.1621 -0.1304c-0.1613,0.1428 -0.512,0.4503 -0.6046,0.6388z"/>
   <path id="_343447288" class="fil1" d="M2.7958 2.5015l0.6283 0.6293 0.157 -0.1532c-0.0858,-0.1432 -0.4497,-0.5734 -0.5931,-0.6517l-0.1922 0.1756z"/>
   <polygon id="_343447720" class="fil1" points="10.7213,16.3959 11.0048,16.3171 10.7369,15.4813 10.5087,15.5649 "/>
   <path id="_343447672" class="fil1" d="M14.6386 4.3711l0.1203 0.1707 0.7367 -0.4698 -0.1639 -0.2211c-0.1644,0.1059 -0.5954,0.3459 -0.6931,0.5202z"/>
   <polygon id="_343447024" class="fil1" points="9.7396,1.2004 9.977,1.2373 10.1594,0.385 9.8782,0.3272 "/>
   <path id="_343446544" class="fil1" d="M0.907 5.2542l0.8273 0.3271 0.0749 -0.1911c-0.1111,-0.1064 -0.6383,-0.3613 -0.7974,-0.3732l-0.1048 0.2372z"/>
   <path id="_343446784" class="fil1" d="M13.4004 2.94l0.1558 0.1542 0.6244 -0.6329 -0.2047 -0.1759c-0.1522,0.1081 -0.4466,0.4745 -0.5755,0.6546z"/>
   <path id="_343446376" class="fil1" d="M0.3406 7.3842l0.8721 0.0683c0.0678,-0.2896 -0.0219,-0.226 -0.3081,-0.2711 -0.2111,-0.0333 -0.3083,-0.0899 -0.5378,-0.0795l-0.0262 0.2823z"/>
   <polygon id="_343446664" class="fil1" points="15.7524,9.6748 16.6462,9.8195 16.6659,9.5368 15.7992,9.4502 "/>
   <path id="_343446640" class="fil1" d="M15.2072 11.5315l0.7931 0.3824 0.0995 -0.2415c-0.1387,-0.1091 -0.6394,-0.3026 -0.8165,-0.3336l-0.0761 0.1927z"/>
   <polygon id="_343446304" class="fil1" points="3.2749,2.0823 3.8749,2.7562 4.0248,2.587 3.4981,1.9023 "/>
   <path id="_343445584" class="fil1" d="M13.4407 13.9227l0.5352 0.6618c0.1245,-0.03 0.1419,-0.0552 0.238,-0.1703l-0.6201 -0.6216 -0.1531 0.1301z"/>
   <path id="_343445920" class="fil1" d="M15.3299 13.0553l0.1606 -0.2363 -0.7591 -0.4299c-0.1529,0.2341 -0.0324,0.2278 0.1831,0.3759 0.1413,0.097 0.2682,0.2021 0.4154,0.2903z"/>
   <path id="_343445896" class="fil1" d="M5.157 15.9893c0.0982,-0.093 0.3651,-0.7095 0.3308,-0.8113l-0.0757 -0.0474c-0.1622,0.0962 -0.4053,0.602 -0.4213,0.8018l0.1662 0.0569z"/>
   <path id="_343445872" class="fil1" d="M11.5879 1.7795c0.1775,-0.0199 0.3684,-0.6187 0.4393,-0.7874l-0.1692 -0.0647c-0.0725,0.0903 -0.2328,0.4707 -0.2918,0.6179 -0.071,0.177 -0.0922,0.1289 0.0217,0.2342z"/>
   <path id="_343445800" class="fil1" d="M8.823 15.8063c-0.0841,0.1597 -0.0531,0.6757 -0.0256,0.884l0.191 0.0073c-0.014,-0.4049 0.0418,-0.8322 -0.1654,-0.8913z"/>
   <path id="_343446088" class="fil1" d="M8.1932 1.1161l0.0001 -0.8959 -0.1663 0.0127c-0.0095,0.198 -0.024,0.8345 0.1662,0.8832z"/>
   <path id="_343444912" class="fil1" d="M4.8519 2.0821c0.0653,-0.1053 -0.2695,-0.6477 -0.2699,-0.648l-0.2076 -0.1164c0.0041,0.1265 0.1248,0.2728 0.1946,0.385 0.0788,0.1266 0.1663,0.3273 0.2829,0.3794z"/>
   <path id="_343444816" class="fil1" d="M12.548 15.6571l0.105 -0.0653c-0.0705,-0.2563 -0.3409,-0.5338 -0.5164,-0.7327 0.013,0.1261 0.3224,0.6958 0.4114,0.798z"/>
   <path id="_343444840" class="fil2" d="M16.0793 9.1518l-0.2151 -0.0897 0.0147 -0.1855c-0.0716,0.1118 -0.0546,0.0503 -0.0472,0.2327l0.2476 0.0425z"/>
   <path id="_343444768" class="fil3" d="M3.1468 9.4554c-0.0543,0.0512 -0.0289,0.1092 0.0271,0.0341 0.0497,-0.0666 0.0492,-0.106 -0.0271,-0.0341z"/>
   <polygon id="_343445368" class="fil2" points="4.7204,9.6493 4.7746,9.6985 4.8242,9.6074 "/>
   <path id="_343445248" class="fil2" d="M1.1378 9.2369l0.0915 -0.0675 -0.0421 -0.0533c-0.0379,0.0972 -0.0062,0.0581 -0.0494,0.1208z"/>
  </g>
 </g>
</svg>
