<?xml version="1.0" encoding="UTF-8"?>
<!DOCTYPE svg PUBLIC "-//W3C//DTD SVG 1.1//EN" "http://www.w3.org/Graphics/SVG/1.1/DTD/svg11.dtd">
<!-- Creator: CorelDRAW -->
<svg xmlns="http://www.w3.org/2000/svg" xml:space="preserve" width="16.9332mm" height="16.9332mm" style="shape-rendering:geometricPrecision; text-rendering:geometricPrecision; image-rendering:optimizeQuality; fill-rule:evenodd; clip-rule:evenodd"
viewBox="0 0 16.9332 16.9332"
 xmlns:xlink="http://www.w3.org/1999/xlink">
 <defs>
  <style type="text/css">
   <![CDATA[
    .fil0 {fill:#010201}
    .fil3 {fill:#030303}
    .fil25 {fill:#090B06}
    .fil24 {fill:#120A0B}
    .fil34 {fill:#191814}
    .fil14 {fill:#1D0C22}
    .fil36 {fill:#1D2315}
    .fil26 {fill:#252719}
    .fil35 {fill:#271713}
    .fil16 {fill:#281528}
    .fil37 {fill:#2B331D}
    .fil31 {fill:#2D0F2F}
    .fil29 {fill:#2F2E25}
    .fil23 {fill:#342B17}
    .fil12 {fill:#371A37}
    .fil19 {fill:#3B2439}
    .fil28 {fill:#3B4429}
    .fil10 {fill:#3E1A41}
    .fil8 {fill:#483231}
    .fil38 {fill:#492648}
    .fil15 {fill:#51334C}
    .fil7 {fill:#593357}
    .fil22 {fill:#5E352C}
    .fil21 {fill:#664E58}
    .fil32 {fill:#6A724C}
    .fil33 {fill:#7A4478}
    .fil30 {fill:#8A5688}
    .fil5 {fill:#8D338B}
    .fil4 {fill:#913591}
    .fil13 {fill:#975995}
    .fil17 {fill:#A1649D}
    .fil27 {fill:#A967A7}
    .fil18 {fill:#B070AD}
    .fil11 {fill:#B86BB4}
    .fil20 {fill:#CA78C7}
    .fil6 {fill:#DE73DA}
    .fil9 {fill:#E271DD}
    .fil1 {fill:#E274E1}
    .fil2 {fill:#F87326}
   ]]>
  </style>
 </defs>
 <g id="Capa_x0020_1">
  <metadata id="CorelCorpID_0Corel-Layer"/>
  <path class="fil0" d="M11.3733 9.1491c0.2781,0.0896 0.0953,0.0953 0.1135,0.1923 -0.1786,-0.1314 -0.0872,0.0009 -0.1135,-0.1923zm-3.1861 -5.1794l1.231 0.0725c-0.159,-0.1423 0.0246,0.0068 -0.19,-0.0693 -0.1083,-0.0384 -0.0506,0.0205 -0.178,-0.083l0.6053 -0.1671 -0.1758 0.9945 -0.1865 -0.1971 -0.9211 0.007 0.5171 0.0862 -0.0809 0.0512 -0.2734 0.0007 -0.1172 0.8387 -0.6787 -0.2002 -0.2928 0.3013 0.0191 -0.6123 0.156 -0.015c-0.3017,-0.0368 -0.6271,-0.0792 -0.9205,-0.0167l-0.0005 0.6028c0.2135,0.2783 0.7064,0.4933 0.7617,0.7357 -0.276,-0.1 -0.6862,-0.4077 -0.7869,-0.6519 -0.8558,-0.4042 -1.5872,-0.9784 -2.6028,-1.02l-0.3596 1.4473c-0.1526,0.8655 0.1052,1.4339 0.1085,1.6143l-0.1919 -0.0837 0.6645 1.9098c-0.0361,-0.5467 -0.4798,-1.0408 -0.4625,-1.5823l0.1658 0.13 -0.2088 -0.2999c0.893,-0.1759 1.2411,1.2605 1.6384,1.5078l0.1387 -0.1723c0.0149,0.0198 0.0342,0.0239 0.0424,0.0612l0.1546 0.2409c0.0925,-0.199 -0.0209,-0.0985 0.1241,-0.2064 0.2338,-0.174 0.0339,0.1028 0.1467,-0.0689l0.0783 -0.1691c0.8852,0.0878 1.7425,0.3082 2.6214,0.4266 0.8739,0.1178 1.7158,0.3031 2.6055,0.4138l0.0681 0.3176 0.1243 0.301 0.0743 -0.7837c-0.0513,-0.3064 0.0841,0.2088 -0.0679,-0.1642 -0.0602,-0.1475 -0.0446,-0.1233 0.023,-0.2719 0.01,-0.2569 -0.0988,-0.6576 -0.2315,-0.8843 -0.0633,-0.0608 -0.0801,0.0961 -0.1204,-0.334l0.3275 0.0271c-0.0616,-0.1845 -0.0692,-0.1283 -0.2351,-0.3236 0.0622,0.0082 0.1721,-0.1405 0.2155,0.1972l0.1072 -0.1981 0.275 0.0105c0.0735,-0.3807 0.1145,-0.8913 0.1568,-1.2884 0.044,-0.414 -0.0139,-1.1062 0.1672,-1.4293l0.0918 -0.1311 -0.0929 -0.3262 0.1061 0.0667 -0.3416 -0.8039 0.1076 0.5106 -0.6284 -0.8237c-0.1617,-0.1728 -0.591,-0.5331 -0.6872,-0.6724l-0.8013 -0.3856c-0.6475,-0.2235 -1.1962,-0.3612 -1.9032,-0.217 -0.1025,0.3879 0.0613,1.3378 0.1139,1.7796z"/>
  <path class="fil0" d="M13.5902 7.0212l0.005 0.0897c0.211,1.2467 0.6791,2.7122 0.5235,3.9924l-0.1004 -0.1182c0.4129,1.932 -1.6816,2.6695 -3.2311,2.4895 -2.2362,-0.26 -3.857,-1.7908 -4.1554,-1.9033l-0.1812 -0.0103c-0.0322,0.334 0.1505,0.578 0.0765,1.0696 -0.2375,0.2871 -0.404,0.3505 -0.7728,0.3478 -0.258,0.47 -1.0123,0.8189 -1.5532,0.7005l-0.1915 0.1276 -0.3455 0.473 0.6153 0.3538 0.0964 0.3633 0.415 0.0413 0.2221 0.2731 1.4519 -0.4409c0.1178,0.5345 0.1402,0.9172 0.1571,1.4467 0.4264,0.3729 0.1792,-0.0484 0.5471,0.6164 1.3821,-0.1532 1.6274,-0.3127 2.7109,-1.1203 0.4724,-0.3447 0.8895,-0.7412 1.3607,-1.0765 0.6751,-0.4803 2.2476,-1.6785 2.724,-2.2512 0.2667,-0.3206 0.2107,-0.5215 0.5651,-0.6731 0.2155,-0.0921 0.5622,-0.2617 0.7803,-0.3881l0.1164 -1.0679 -0.5129 -0.5156c-0.1929,-0.2577 -0.9602,-1.6567 -0.8488,-1.9445l0.3665 0.7268 1.0824 -0.8683 -0.198 -0.1828 0.0688 -0.3868 -0.2406 -0.0301 -0.0542 -0.3976 -0.4338 -0.1502 -0.0639 -0.9857c0.0106,0.4357 0.2154,1.2487 -0.2863,1.4579l-0.4434 -0.7915 0.1509 1.5237 -0.4229 -0.7902z"/>
  <path class="fil1" d="M5.5717 12.4483c0.2319,0.0875 0.0993,0.058 0.0784,0.1706l-0.0784 -0.1706zm-0.1888 -0.4628c0.1082,0.1089 0.1029,0.0942 0.0899,0.2892l-0.0899 -0.2892zm-2.5734 -1.204c0.4774,0.2084 -0.1966,0.2716 0.4451,0.2275 0.2038,0.4983 0.818,1.1825 0.8231,1.7184l-0.1197 0.1591c-0.1579,-0.362 -0.323,-0.7365 -0.5319,-1.0785 -0.1599,-0.2619 -0.5412,-0.798 -0.6166,-1.0265zm0.1425 -0.101c0.133,0.104 0.0742,0.0023 0.0955,0.2119l-0.0955 -0.2119zm-0.3115 -0.1468c0.1593,0.0313 0.1477,0.1058 0.169,0.2478l-0.169 -0.2478zm0.186 -0.0298l0.1255 0.1766 -0.1255 -0.1766zm2.3603 -0.21c0.1917,0.2183 0.5428,0.9704 0.3353,1.2314 -0.0506,-0.2687 0.0043,-0.3555 -0.1082,-0.64 -0.0871,-0.2201 -0.1799,-0.3573 -0.2271,-0.5914zm-2.5463 0.2398c-0.0892,-0.0594 -0.0262,0.0172 -0.1267,-0.1047 -0.1065,-0.1292 -0.075,-0.1052 -0.116,-0.2146 0.1662,0.087 0.1995,0.1199 0.2427,0.3193zm2.4236 -0.5429c0.1172,0.1199 0.1024,0.0987 0.1227,0.3031l-0.1227 -0.3031zm-2.9314 0.0643l0.2179 0.1169c-0.3261,-0.061 -0.1428,-0.0812 -0.2179,-0.1169zm0.6938 0.4488c-0.1169,-0.0711 -0.4961,-0.4541 -0.5601,-0.5657 0.2995,0.0907 0.4498,0.2819 0.5601,0.5657zm0.869 -0.7526l0.6716 0.2068 0.0219 0.0466c-0.3118,0.166 -0.5507,0.0246 -0.6935,-0.2534zm1.3686 0.2395c-0.1204,-0.1203 -0.2246,-0.3884 -0.2514,-0.5787 0.1399,0.1395 0.2176,0.3628 0.2514,0.5787zm-1.5585 -0.6325c0.1201,0.126 0.1461,0.1956 0.1899,0.393 -0.1386,-0.1232 -0.1511,-0.1943 -0.1899,-0.393zm-0.1883 -0.4947c0.1264,0.1302 0.1746,0.2847 0.1883,0.4947l-0.1883 -0.4947zm1.1889 0.0052c0.1592,0.1362 0.1559,0.1315 0.167,0.3332l-0.167 -0.3332zm-0.1896 -0.3138c0.1499,0.1189 0.1546,0.1251 0.1896,0.3138 -0.1364,-0.113 -0.1344,-0.1344 -0.1896,-0.3138zm-0.1868 -0.2989c0.14,0.1063 0.1518,0.1193 0.1868,0.2989l-0.1868 -0.2989zm-0.8125 0.6075c-0.1105,-0.164 -0.2236,-0.471 -0.2405,-0.6919 0.1133,0.1522 0.2304,0.4619 0.2405,0.6919zm0.6798 -0.8005c0.1413,0.0993 0.0768,-0.0216 0.1327,0.193l-0.1327 -0.193zm-1.4695 -1.1192l0.0445 -0.0277 0.1344 0.3463 0.2618 0.5547 -0.3824 0.1872c-0.0962,0.2088 -0.1322,0.102 -0.2863,0.3576l0.0647 0.1083c0.2049,0.0483 0.3293,0.1748 0.3572,0.3789l0.1932 0.2279c0.1432,-0.0275 0.1099,-0.0488 0.0647,0.0936l0.1059 0.1974 0.0968 0.1736c0.2687,0.1668 1.3156,2.0148 1.4795,2.2815 0.4946,0.0227 0.5268,-0.1156 0.8605,-0.2979 -0.0946,0.3813 -0.1416,0.0399 -0.1392,0.4602l-0.1436 -0.1231c-0.7699,0.188 -0.9396,-0.0343 -1.273,-0.7188 -0.1886,-0.3871 -0.783,-1.0942 -0.857,-1.3987l-0.1678 -0.2506 -0.1831 -0.2375 -0.3198 -0.3667 -0.1048 -0.0991 -0.2041 0.0494 0.0081 0.0167c-0.153,0.3605 -0.2682,0.4702 -0.2471,0.8936 0.2376,0.0685 0.232,0.0122 0.3757,0.1875l-0.3396 -0.0471c0.0397,0.1525 -0.0132,0.0212 0.1676,0.1617l-0.2126 0.1036c-0.023,0.4022 0.0763,0.5589 0.0893,0.8938l0.11 0.3047c0.1276,0.1317 0.1533,0.2413 0.2016,0.4443l0.0987 0.2117c0.1384,0.1279 0.2763,0.33 0.3251,0.5142 0.1496,0.0952 0.0806,-0.0439 0.1226,0.1883l0.1182 0.1769c0.3242,0.1237 0.5617,0.5986 1.0392,0.571l-0.0025 -0.5831 0.0937 -0.1508c0.3037,0.4349 0.0097,0.6366 0.1234,0.9515 0.5409,0.1184 1.2952,-0.2305 1.5532,-0.7005 0.3688,0.0027 0.5353,-0.0607 0.7728,-0.3478 0.074,-0.4916 -0.1087,-0.7356 -0.0765,-1.0696 -0.1919,-0.2288 -0.3449,-0.8437 -0.4803,-1.1712 -0.1614,-0.3904 -0.4111,-0.7549 -0.5436,-1.1188 -0.3973,-0.2473 -0.7454,-1.6837 -1.6384,-1.5078l0.2088 0.2999 -0.1658 -0.13c-0.0173,0.5415 0.4264,1.0356 0.4625,1.5823l-0.6645 -1.9098 -0.1067 -0.3218 -0.4782 -0.897 -0.5096 0.1673c0.0262,0.2254 0.0491,0.2288 -0.0072,0.3898z"/>
  <path class="fil2" d="M7.4353 9.7401c0.1897,0.0917 0.0853,-0.035 0.2031,-0.0197l0.1654 0.6505 -0.3685 -0.6308zm0 0c-0.1779,-0.1705 -0.1806,-0.2164 -0.0766,-0.4085l0.232 0.2293 -0.1554 0.1792zm-1.4021 -0.6146c0.2975,0.205 0.9306,1.9312 2.4053,2.5305 1.1161,0.4537 3.005,0.3976 2.968,-1.5416l-0.0681 -0.3176c-0.8897,-0.1107 -1.7316,-0.296 -2.6055,-0.4138 -0.8789,-0.1184 -1.7362,-0.3388 -2.6214,-0.4266l-0.0783 0.1691z"/>
  <path class="fil3" d="M12.2224 4.9727c0.2217,0.8722 0.8325,1.7398 1.0756,3.429 0.2865,1.9897 -1.0167,1.6431 -1.3607,1.1217 -0.1692,-0.2564 -0.0827,-0.6598 -0.1211,-0.9662l0.0783 -0.3911 0.0039 -0.4757 -0.275 -0.0105 -0.1072 0.1981c-0.0434,-0.3377 -0.1533,-0.189 -0.2155,-0.1972 0.1659,0.1953 0.1735,0.1391 0.2351,0.3236l-0.3275 -0.0271c0.0403,0.4301 0.0571,0.2732 0.1204,0.334 0.0392,-0.0612 -0.0153,-0.3331 0.1392,0.0501 0.0232,0.0574 0.0702,0.2352 0.089,0.299 0.0663,0.2246 0.1845,0.4365 0.0033,0.5352 -0.0676,0.1486 -0.0832,0.1244 -0.023,0.2719 0.152,0.373 0.0166,-0.1422 0.0679,0.1642l-0.0743 0.7837 -0.1243 -0.301c0.037,1.9392 -1.8519,1.9953 -2.968,1.5416 -1.4747,-0.5993 -2.1078,-2.3255 -2.4053,-2.5305 -0.1128,0.1717 0.0871,-0.1051 -0.1467,0.0689 -0.145,0.1079 -0.0316,0.0074 -0.1241,0.2064l-0.1546 -0.2409c-0.0082,-0.0373 -0.0275,-0.0414 -0.0424,-0.0612l-0.1387 0.1723c0.1325,0.3639 0.3822,0.7284 0.5436,1.1188 0.1354,0.3275 0.2884,0.9424 0.4803,1.1712l0.1812 0.0103c0.0791,-0.122 1.3929,0.3372 1.9051,0.433 0.3851,0.0721 0.7327,0.1204 1.129,0.1212 0.3125,0.0007 0.8675,-0.1168 1.1131,-0.0361 0.1509,-0.1673 1.2694,-0.3164 1.7169,-0.7621 0.555,-0.5527 0.7476,-0.7614 1.0627,-1.5437l0.4597 1.2015c-0.1403,-0.6741 -0.4671,-0.9393 -0.437,-1.741 0.0266,-0.7106 -0.0517,-1.4178 -0.0642,-2.1263l-0.0533 -0.1585 0.1264 0.0619 -0.2821 -0.6284c0.4699,-0.417 0.339,-0.2157 0.442,-0.5854l-0.4576 0.5476 -0.9783 -1.5134 -0.0918 0.1311z"/>
  <path class="fil4" d="M12.7091 3.5293c0.1776,0.0863 0.2489,0.154 0.3095,0.3273 -0.1208,-0.0849 -0.2545,-0.1956 -0.3095,-0.3273zm0 0l-0.17 -0.0649c0.0166,0.4402 0.6473,1.3755 -0.1527,1.3087l-0.059 -0.191 0.2913 0.1009 -0.284 -1.5673c0.1764,0.178 0.3253,0.3038 0.3744,0.4136zm-1.1729 -0.8151l0.1436 0.3164c-0.3682,-0.2819 -0.4518,-0.2714 -0.902,-0.2379 0.0962,0.1393 0.5255,0.4996 0.6872,0.6724l0.6284 0.8237 -0.1076 -0.5106 0.3416 0.8039 -0.1061 -0.0667 0.0929 0.3262 0.9783 1.5134 0.4576 -0.5476c-0.103,0.3697 0.0279,0.1684 -0.442,0.5854l0.2821 0.6284 0.4229 0.7902 -0.1509 -1.5237 0.4434 0.7915c0.5017,-0.2092 0.2969,-1.0222 0.2863,-1.4579 -0.0121,-0.2973 -0.5509,-1.5177 -0.7311,-1.8105 -0.3253,-0.5284 -0.8253,-0.9997 -1.4703,-1.1638l-0.1559 0.0358 0.1294 0.4124c-0.1341,-0.1513 -0.2755,-0.4733 -0.2572,-0.6931l-0.0324 -0.1623c-0.1736,-0.0544 -0.1531,0.0668 -0.2555,-0.2236 -0.0736,-0.2086 -0.0318,-0.0796 -0.0036,-0.216 -0.1766,0.2008 -0.1896,0.2 -0.4532,0.1724l0.1741 0.7416z"/>
  <path class="fil1" d="M4.3513 1.2113l-0.2369 0.1592 -0.0738 0.0343 -0.2126 0.1336 -0.2022 0.1516 -0.0438 0.0133 -0.2061 0.1739 -0.0368 0.0136 -0.3354 0.309 -0.6434 0.6359 -0.1714 0.2144 -0.0915 0.1317 -0.3954 0.8946c-0.1372,-0.0025 -0.1289,0.2191 -0.1296,0.2844 -0.0866,0.5504 -0.1045,0.3514 0.0242,0.8569l0.9721 0.2713c0.1725,-0.269 0.0303,-0.3788 0.2764,-0.6215 -0.0063,-0.1466 -0.0143,-0.2074 0.1113,-0.2783l0.1629 -0.3444c-0.0879,-0.2352 -0.0118,0.2606 0.0036,-0.0961 0.0011,-0.0283 0.0367,-0.0118 0.0553,-0.0171 0.1051,-0.1988 0.1932,-0.4207 0.3395,-0.5436 0.0428,-0.1643 0.1266,-0.2939 0.2405,-0.3845 0.0551,-0.2264 0.0035,-0.1 0.127,-0.1798l0.1072 -0.1941c-0.0554,-0.1396 -0.0874,-0.1306 0.0532,-0.0687l0.1976 -0.2458c0.0101,-0.1218 -0.0468,-0.203 0.1701,-0.1914l0.1277 -0.1242c0.0476,-0.216 0.1679,-0.3402 0.383,-0.3686l0.2668 -0.1706c0.0894,-0.1384 0.0791,-0.1208 0.2564,-0.1838l0.1772 -0.1263 0.166 -0.103c-0.0598,-0.244 -0.8794,-0.1748 -1.1055,-0.1459l-0.3336 0.11z"/>
  <path class="fil5" d="M5.0323 0.8681c0.3972,-0.01 0.4513,-0.1549 0.8883,-0.074 -0.1713,0.1212 -0.2033,0.1207 -0.3381,0.0757l0.5319 0.0574 -0.1776 0.2985 0.1948 -0.0784 -0.0063 0.5245c0.1475,-0.3223 -0.0586,-0.2528 0.1862,-0.6567l0.0145 0.4752 0.2063 -0.5487 -0.1817 0.981c0.213,-0.0407 0.7998,-0.3938 0.8816,-0.539 0.3119,-0.5083 1.3369,-0.6253 1.8726,-0.6329 0.3476,-0.005 0.5364,-0.0433 0.7316,0.1178 -1.416,-0.1107 -0.7314,0.0349 -1.5916,0.0885 0.7117,0.0675 0.503,-0.0228 0.5776,0.1767l0.1604 0.1015c0.2237,-0.2296 0.2449,0.1059 0.7444,0.0867l0.8782 -0.0224 0.0382 -0.1631 0.6201 0.3492 -0.1038 0.1503c0.0111,0.1383 -0.0394,0.0751 0.1022,0.1541 0.1722,0.0861 0.0911,0.1103 0.2674,0.1063 0.1802,-0.0041 0.0744,-0.043 0.2858,-0.0961 -0.0282,0.1364 -0.07,0.0074 0.0036,0.216 0.1024,0.2904 0.0819,0.1692 0.2555,0.2236 -0.0627,-0.2554 -0.1262,-0.6354 -0.333,-0.7618 -0.1703,-0.0867 -0.1973,-0.0841 -0.2526,-0.2811 -0.3808,-1.0035 -2.1051,-1.2222 -3.0036,-1.1947 -0.6361,0.0194 -1.2742,0.1101 -1.8936,0.2494 -0.4458,0.1002 -0.9335,0.2504 -1.3405,0.4616 -0.2112,0.1096 -0.0509,-0.0122 -0.2188,0.1549z"/>
  <path class="fil2" d="M11.8984 7.6904l-0.0039 0.4757c0.1775,0.1537 0.1386,0.1315 0.1884,0.3845l0.1467 0.4418c-0.2205,-0.0786 -0.1806,-0.082 -0.2662,-0.2943l-0.1472 -0.1409c0.0384,0.3064 -0.0481,0.7098 0.1211,0.9662 0.344,0.5214 1.6472,0.868 1.3607,-1.1217 -0.2431,-1.6892 -0.8539,-2.5568 -1.0756,-3.429 -0.1811,0.3231 -0.1232,1.0153 -0.1672,1.4293 -0.0423,0.3971 -0.0833,0.9077 -0.1568,1.2884z"/>
  <path class="fil6" d="M5.9368 1.2257c-0.0116,0.0538 0.1764,0.1036 -0.1464,0.0215l-0.166 0.103 -0.1772 0.1263c-0.0996,0.1278 -0.0897,0.1034 -0.2564,0.1838 -0.1002,0.1375 -0.0921,0.1262 -0.2668,0.1706 -0.2151,0.0284 -0.3354,0.1526 -0.383,0.3686l0.0137 0.1209 -0.1414 0.0033c-0.2169,-0.0116 -0.16,0.0696 -0.1701,0.1914 -0.0448,0.1656 -0.0294,0.2322 -0.1976,0.2458 -0.1406,-0.0619 -0.1086,-0.0709 -0.0532,0.0687 -0.0245,0.1987 0.0508,0.0808 -0.1072,0.1941l-0.127 0.1798c-0.0634,0.1723 -0.1054,0.2782 -0.2405,0.3845 -0.0436,0.1566 -0.0588,0.1576 -0.1328,0.2996 -0.1121,0.2146 -0.0427,0.153 -0.2067,0.244 -0.0186,0.0053 -0.0542,-0.0112 -0.0553,0.0171 -0.0154,0.3567 -0.0915,-0.1391 -0.0036,0.0961 -0.0246,0.1944 -0.0272,0.2045 -0.1629,0.3444l-0.1113 0.2783c-0.0389,0.2816 -0.1483,0.4233 -0.141,0.723l0.3931 -0.0388 0.1636 -0.218c0.04,-0.218 0.0016,-0.1328 0.1437,-0.2835l0.028 -0.0673 0.1573 -0.243 0.0311 -0.0726 0.1379 -0.2082 0.1493 -0.2025 0.0103 -0.0199c0.112,-0.2107 0.0686,-0.174 0.2548,-0.295l0.1237 -0.1604c0.1328,-0.2207 0.0963,-0.2272 0.3112,-0.3374l0.4441 -0.434c0.0825,-0.2129 0.2638,-0.3256 0.4738,-0.4462l0.0788 -0.0537c0.1197,-0.1944 0.0745,-0.1334 0.2847,-0.2662l0.2792 -0.1919c0.0458,-0.0777 0.0599,-0.2064 0.1819,-0.1293l0.1817 -0.981 -0.2063 0.5487 -0.0145 -0.4752c-0.2448,0.4039 -0.0387,0.3344 -0.1862,0.6567l0.0063 -0.5245 -0.1948 0.0784z"/>
  <path class="fil3" d="M9.4182 4.0422l-0.0621 0.0943 -1.1392 -0.0357 -0.5554 0.0002 0.0188 0.7655 0.5412 0.0666c-0.254,0.1504 -0.2868,0.0821 -0.5596,0.0216l-0.0406 0.0231 -0.156 0.015 -0.0191 0.6123 0.2928 -0.3013 0.6787 0.2002 0.1172 -0.8387 0.2734 -0.0007 0.0809 -0.0512 -0.5171 -0.0862 0.9211 -0.007 0.1865 0.1971 0.1758 -0.9945 -0.6053 0.1671c0.1274,0.1035 0.0697,0.0446 0.178,0.083 0.2146,0.0761 0.031,-0.073 0.19,0.0693z"/>
  <path class="fil3" d="M9.9749 15.8949l0.4018 0.9626c0.3196,-0.1279 1.0276,-1.5691 1.1492,-1.9571l0.1676 -0.3465c-0.2353,0.0886 -1.6719,1.1935 -1.7186,1.341z"/>
  <path class="fil1" d="M2.0972 6.4381l-0.0252 0.1286 -0.3764 -0.0098 0.0388 0.3392 0.0205 0.1426c0.1256,0.147 0.058,0.0195 0.1409,0.2288 0.0416,0.105 0.0575,0.1942 0.0766,0.3015l0.0327 0.1196c0.1434,0.1374 0.1699,0.2302 0.1971,0.442l0.1247 0.0634 0.259 -0.1896c0.0818,-0.2422 0.1216,-0.074 0.0521,-0.312 -0.0459,-0.1571 -0.1057,-0.3045 -0.1515,-0.4696l-0.0359 -0.1675 -0.1289 -0.3793 -0.0404 0.0115 -0.0463 -0.2525c-0.0945,-0.0238 0.0016,-0.0632 -0.1378,0.0031z"/>
  <path class="fil7" d="M3.1093 9.7449c0.074,0.3045 0.6684,1.0116 0.857,1.3987 0.3334,0.6845 0.5031,0.9068 1.273,0.7188l0.1436 0.1231c-0.0024,-0.4203 0.0446,-0.0789 0.1392,-0.4602 -0.3337,0.1823 -0.3659,0.3206 -0.8605,0.2979 -0.1639,-0.2667 -1.2108,-2.1147 -1.4795,-2.2815l0.1214 0.3051 -0.1942 -0.1019z"/>
  <path class="fil5" d="M9.8476 2.158l0.1289 0.2491 0.8013 0.3856 -0.0428 -0.3545c-0.0282,-0.2055 -0.4416,-0.933 -0.5431,-1.0184l-0.371 -0.0508 0.1484 0.4365 0.2897 0.0904 -0.336 0.0501 -0.0754 0.212z"/>
  <path class="fil8" d="M2.886 6.1933l0.0067 0.28 -0.2896 0.008c-0.2373,-0.254 -0.3137,-0.6146 -0.183,-0.9365l0.3129 0.1242c0.0421,0.2347 0.0173,0.3599 0.153,0.5243zm-1.2894 -0.9756c-0.1411,0.2324 -0.1597,0.7611 -0.023,0.9517l0.045 -0.8106 0.3256 0.0512c0.0209,0.1888 -0.038,0.5367 0.0241,0.7083 0.1072,0.2963 -0.0065,0.0477 0.1181,0.1498 -0.043,-0.3017 -0.2501,-0.7567 0.1727,-0.7974 0.0697,0.2145 -0.009,0.3717 0.0816,0.7073 0.0689,0.2548 0.114,0.4995 0.1869,0.7659 0.0563,-0.161 0.0334,-0.1644 0.0072,-0.3898l0.5096 -0.1673 0.4782 0.897c-0.0562,-0.3094 -0.3447,-0.9954 -0.6366,-1.0905l-0.0493 -0.4378c0.1837,-0.1547 0.0851,0.0121 0.2605,-0.2038l-0.3931 0.0388c-0.0073,-0.2997 0.1021,-0.4414 0.141,-0.723 -0.2461,0.2427 -0.1039,0.3525 -0.2764,0.6215l-0.9721 -0.2713z"/>
  <path class="fil7" d="M4.0777 12.7274c-0.0051,-0.5359 -0.6193,-1.2201 -0.8231,-1.7184 -0.6417,0.0441 0.0323,-0.0191 -0.4451,-0.2275 0.0754,0.2285 0.4567,0.7646 0.6166,1.0265 0.2089,0.342 0.374,0.7165 0.5319,1.0785l0.1197 -0.1591z"/>
  <path class="fil9" d="M1.5736 6.1694c0.1192,0.1333 0.0414,0.0552 0.0937,0.1382 0.0518,0.0824 -0.0531,0.0409 0.1051,0.1497 0.1217,0.0838 0.1385,0.0187 0.3248,-0.0192l-0.0108 -0.17c-0.1246,-0.1021 -0.0109,0.1465 -0.1181,-0.1498 -0.0621,-0.1716 -0.0032,-0.5195 -0.0241,-0.7083l-0.3256 -0.0512 -0.045 0.8106z"/>
  <path class="fil10" d="M7.2322 1.3836c0.8263,-0.3069 0.6265,-0.3751 1.5902,-0.2499 -0.0746,-0.1995 0.1341,-0.1092 -0.5776,-0.1767 0.8602,-0.0536 0.1756,-0.1992 1.5916,-0.0885 -0.1952,-0.1611 -0.384,-0.1228 -0.7316,-0.1178 -0.5357,0.0076 -1.5607,0.1246 -1.8726,0.6329z"/>
  <path class="fil11" d="M5.0323 0.8681c-0.2127,0.0125 -0.253,0.0715 -0.3474,0.2332 0.2261,-0.0289 1.0457,-0.0981 1.1055,0.1459 0.3228,0.0821 0.1348,0.0323 0.1464,-0.0215l0.1776 -0.2985 -0.5319 -0.0574c0.1348,0.045 0.1668,0.0455 0.3381,-0.0757 -0.437,-0.0809 -0.4911,0.064 -0.8883,0.074z"/>
  <path class="fil12" d="M9.8476 2.158l0.0754 -0.212 0.336 -0.0501 -0.2897 -0.0904 -0.1484 -0.4365 0.371 0.0508c0.208,-0.2408 0.7446,0.1045 0.968,0.2161l0.1038 -0.1503 -0.6201 -0.3492 -0.0382 0.1631 -0.8782 0.0224c-0.4995,0.0192 -0.5207,-0.3163 -0.7444,-0.0867 0.8451,0.1801 0.7806,0.1636 0.8648,0.9228z"/>
  <path class="fil13" d="M2.4386 8.8901c0.1679,0.0878 0.1935,0.2071 0.3198,0.3667l0.1831 0.2375 0.1678 0.2506 0.1942 0.1019 -0.1214 -0.3051 -0.0968 -0.1736 -0.1059 -0.1974c0.0452,-0.1424 0.0785,-0.1211 -0.0647,-0.0936l-0.1932 -0.2279c-0.0279,-0.2041 -0.1523,-0.3306 -0.3572,-0.3789l-0.1155 0.2136 0.1898 0.2062z"/>
  <path class="fil9" d="M2.886 6.1933c-0.1357,-0.1644 -0.1109,-0.2896 -0.153,-0.5243l-0.3129 -0.1242c-0.1307,0.3219 -0.0543,0.6825 0.183,0.9365l0.2896 -0.008 -0.0067 -0.28z"/>
  <path class="fil7" d="M2.9473 12.8903c0.1057,0.2625 0.2185,0.343 0.4697,0.4888 0.1482,0.0859 0.1913,0.0971 0.3435,0.1538 0.2182,0.0814 0.2222,0.0725 0.2491,0.2736l0.1915 -0.1276c-0.1137,-0.3149 0.1803,-0.5166 -0.1234,-0.9515l-0.0937 0.1508 0.0025 0.5831c-0.4775,0.0276 -0.715,-0.4473 -1.0392,-0.571z"/>
  <path class="fil14" d="M12.3274 4.5821l0.059 0.191c0.8,0.0668 0.1693,-0.8685 0.1527,-1.3087l0.17 0.0649c-0.0491,-0.1098 -0.198,-0.2356 -0.3744,-0.4136l0.284 1.5673 -0.2913 -0.1009z"/>
  <path class="fil15" d="M1.9711 11.0502c-0.013,-0.3349 -0.1123,-0.4916 -0.0893,-0.8938l0.2126 -0.1036c-0.1808,-0.1405 -0.1279,-0.0092 -0.1676,-0.1617l0.3396 0.0471c-0.1437,-0.1753 -0.1381,-0.119 -0.3757,-0.1875 -0.0211,-0.4234 0.0941,-0.5331 0.2471,-0.8936 -0.4298,0.1796 -0.4801,1.8478 -0.1667,2.1931z"/>
  <path class="fil16" d="M11.5362 2.7142c-0.1643,0.1137 -0.2087,0.0532 -0.405,-0.059 0.2565,-0.1696 0.2413,-0.1133 0.405,0.059zm-0.8012 -0.276l0.0428 0.3545c0.4502,-0.0335 0.5338,-0.044 0.902,0.2379l-0.1436 -0.3164 -0.1741 -0.7416c0.2636,0.0276 0.2766,0.0284 0.4532,-0.1724 -0.2114,0.0531 -0.1056,0.092 -0.2858,0.0961 -0.1763,0.004 -0.0952,-0.0202 -0.2674,-0.1063l0.1295 0.6662 -0.4945 0.232 -0.1621 -0.25z"/>
  <polygon class="fil17" points="8.2169,4.1008 9.3561,4.1365 9.4182,4.0422 8.1872,3.9697 "/>
  <path class="fil18" d="M6.7003 5.5639l-0.0252 0.0838c0.1007,0.2442 0.5109,0.5519 0.7869,0.6519 -0.0553,-0.2424 -0.5482,-0.4574 -0.7617,-0.7357z"/>
  <path class="fil19" d="M2.5859 8.0044l0.3824 -0.1872 -0.2618 -0.5547c0.0384,0.4718 0.2195,0.3071 0.0699,0.5328l-0.1803 -0.4317c-0.0465,-0.0871 -0.0495,-0.0751 -0.1096,-0.1408 0.0458,0.1651 0.1056,0.3125 0.1515,0.4696 0.0695,0.238 0.0297,0.0698 -0.0521,0.312z"/>
  <path class="fil16" d="M3.6955 9.7513c0.1428,0.278 0.3817,0.4194 0.6935,0.2534l-0.0219 -0.0466 -0.6716 -0.2068z"/>
  <path class="fil19" d="M2.2022 8.1306c0.0107,0.2662 0.0264,0.4863 -0.0725,0.7098l0.2041 -0.0494 0.1048 0.0991 -0.1898 -0.2062 0.1155 -0.2136 -0.0647 -0.1083c0.1541,-0.2556 0.1901,-0.1488 0.2863,-0.3576l-0.259 0.1896 -0.1247 -0.0634z"/>
  <path class="fil15" d="M1.7344 6.8961l-0.0388 -0.3392 0.3764 0.0098 0.0252 -0.1286c-0.1863,0.0379 -0.2031,0.103 -0.3248,0.0192 -0.1582,-0.1088 -0.0533,-0.0673 -0.1051,-0.1497 -0.0523,-0.083 0.0255,-0.0049 -0.0937,-0.1382 0.0115,0.1289 0.0178,0.2733 0.0291,0.4014 0.0206,0.233 0.0107,0.188 0.1317,0.3253z"/>
  <path class="fil16" d="M5.5221 11.5253c0.2075,-0.261 -0.1436,-1.0131 -0.3353,-1.2314 0.0472,0.2341 0.14,0.3713 0.2271,0.5914 0.1125,0.2845 0.0576,0.3713 0.1082,0.64z"/>
  <path class="fil20" d="M11.5602 9.1956c0.1812,-0.0987 0.063,-0.3106 -0.0033,-0.5352 -0.0188,-0.0638 -0.0658,-0.2416 -0.089,-0.299 -0.1545,-0.3832 -0.1,-0.1113 -0.1392,-0.0501 0.1327,0.2267 0.2415,0.6274 0.2315,0.8843z"/>
  <path class="fil21" d="M1.4303 4.5624l-0.0107 0.5908 0.177 0.0645c-0.1287,-0.5055 -0.1108,-0.3065 -0.0242,-0.8569l-0.1518 0.0765 0.0097 0.1251z"/>
  <path class="fil22" d="M11.8162 8.5572l0.1472 0.1409 0.0072 -0.1215 0.1123 -0.026c-0.0498,-0.253 -0.0109,-0.2308 -0.1884,-0.3845l-0.0783 0.3911z"/>
  <path class="fil19" d="M2.8265 10.5039c-0.1103,-0.2838 -0.2606,-0.475 -0.5601,-0.5657 0.064,0.1116 0.4432,0.4946 0.5601,0.5657z"/>
  <path class="fil23" d="M7.4353 9.7401l0.1554 -0.1792 -0.232 -0.2293c-0.104,0.1921 -0.1013,0.238 0.0766,0.4085z"/>
  <path class="fil14" d="M12.3905 2.647l-0.2837 -0.2449c-0.0183,0.2198 0.1231,0.5418 0.2572,0.6931l-0.1294 -0.4124 0.1559 -0.0358z"/>
  <path class="fil24" d="M7.4353 9.7401l0.3685 0.6308 -0.1654 -0.6505c-0.1178,-0.0153 -0.0134,0.1114 -0.2031,0.0197z"/>
  <path class="fil25" d="M11.9634 8.6981c0.0856,0.2123 0.0457,0.2157 0.2662,0.2943l-0.1467 -0.4418 -0.1123 0.026 -0.0072 0.1215z"/>
  <path class="fil26" d="M1.702 4.0764l0.3954 -0.8946c-0.1422,0.1453 -0.1717,0.2183 -0.2615,0.4131 -0.0993,0.2159 -0.182,0.3004 -0.1339,0.4815z"/>
  <path class="fil4" d="M11.5362 2.7142c-0.1637,-0.1723 -0.1485,-0.2286 -0.405,-0.059 0.1963,0.1122 0.2407,0.1727 0.405,0.059z"/>
  <path class="fil27" d="M7.6803 4.8665l-0.0184 0.0882c0.2728,0.0605 0.3056,0.1288 0.5596,-0.0216l-0.5412 -0.0666z"/>
  <path class="fil28" d="M11.3422 12.8401c0.09,0.1876 0.2616,0.4236 0.431,0.5207 -0.0594,-0.132 -0.0804,-0.1306 -0.1725,-0.2665 -0.1244,-0.1835 -0.072,-0.1714 -0.2585,-0.2542z"/>
  <path class="fil16" d="M3.3173 8.8636c-0.0101,-0.23 -0.1272,-0.5397 -0.2405,-0.6919 0.0169,0.2209 0.13,0.5279 0.2405,0.6919z"/>
  <path class="fil12" d="M5.0641 9.9908c-0.0338,-0.2159 -0.1115,-0.4392 -0.2514,-0.5787 0.0268,0.1903 0.131,0.4584 0.2514,0.5787z"/>
  <path class="fil16" d="M2.0972 6.4381c0.1394,-0.0663 0.0433,-0.0269 0.1378,-0.0031l0.0463 0.2525c0.0862,-0.2061 0.0442,-0.1536 -0.0421,-0.3983l-0.1528 -0.0211 0.0108 0.17z"/>
  <path class="fil16" d="M3.1782 4.1316c0.164,-0.091 0.0946,-0.0294 0.2067,-0.244 0.074,-0.142 0.0892,-0.143 0.1328,-0.2996 -0.1463,0.1229 -0.2344,0.3448 -0.3395,0.5436z"/>
  <path class="fil19" d="M5.0522 3.0099c0.1746,-0.1416 0.3665,-0.2765 0.4738,-0.4462 -0.21,0.1206 -0.3913,0.2333 -0.4738,0.4462z"/>
  <path class="fil29" d="M2.7065 12.5251c-0.0488,-0.1842 -0.1867,-0.3863 -0.3251,-0.5142 0.058,0.1863 0.178,0.399 0.3251,0.5142z"/>
  <path class="fil16" d="M1.9724 7.569c-0.0191,-0.1073 -0.035,-0.1965 -0.0766,-0.3015 -0.0829,-0.2093 -0.0153,-0.0818 -0.1409,-0.2288 0.0498,0.2236 0.0835,0.3665 0.2175,0.5303z"/>
  <path class="fil19" d="M2.6405 10.5337c-0.0432,-0.1994 -0.0765,-0.2323 -0.2427,-0.3193 0.041,0.1094 0.0095,0.0854 0.116,0.2146 0.1005,0.1219 0.0375,0.0453 0.1267,0.1047z"/>
  <path class="fil14" d="M12.7091 3.5293c0.055,0.1317 0.1887,0.2424 0.3095,0.3273 -0.0606,-0.1733 -0.1319,-0.241 -0.3095,-0.3273z"/>
  <path class="fil16" d="M2.2827 11.7992c-0.0483,-0.203 -0.074,-0.3126 -0.2016,-0.4443 0.0334,0.1973 0.0754,0.3028 0.2016,0.4443z"/>
  <path class="fil16" d="M3.6955 9.7513c-0.0438,-0.1974 -0.0698,-0.267 -0.1899,-0.393 0.0388,0.1987 0.0513,0.2698 0.1899,0.393z"/>
  <path class="fil16" d="M3.5177 3.588c0.1351,-0.1063 0.1771,-0.2122 0.2405,-0.3845 -0.1139,0.0906 -0.1977,0.2202 -0.2405,0.3845z"/>
  <path class="fil16" d="M4.5062 8.8688c-0.035,-0.1887 -0.0397,-0.1949 -0.1896,-0.3138 0.0552,0.1794 0.0532,0.2008 0.1896,0.3138z"/>
  <path class="fil30" d="M11.3733 9.1491c0.0263,0.1932 -0.0651,0.0609 0.1135,0.1923 -0.0182,-0.097 0.1646,-0.1027 -0.1135,-0.1923z"/>
  <path class="fil16" d="M3.5056 9.3583c-0.0137,-0.21 -0.0619,-0.3645 -0.1883,-0.4947l0.1883 0.4947z"/>
  <path class="fil12" d="M3.0037 2.1998l0.3354 -0.309c-0.2312,0.1213 -0.2443,0.0831 -0.3354,0.309z"/>
  <path class="fil28" d="M11.3422 12.8401c-0.0639,-0.2053 -0.0344,-0.1638 -0.1904,-0.2441 0.0686,0.1621 0.0495,0.1577 0.1904,0.2441z"/>
  <path class="fil29" d="M5.6048 2.51c0.2043,-0.1379 0.1665,-0.0793 0.2847,-0.2662 -0.2102,0.1328 -0.165,0.0718 -0.2847,0.2662z"/>
  <path class="fil16" d="M2.2022 8.1306c-0.0272,-0.2118 -0.0537,-0.3046 -0.1971,-0.442l0.1971 0.442z"/>
  <path class="fil16" d="M4.0456 2.7609c0.1682,-0.0136 0.1528,-0.0802 0.1976,-0.2458l-0.1976 0.2458z"/>
  <path class="fil31" d="M11.7414 1.478l-0.2526 -0.2811c0.0553,0.197 0.0823,0.1944 0.2526,0.2811z"/>
  <path class="fil29" d="M4.2969 3.7813l0.3112 -0.3374c-0.2149,0.1102 -0.1784,0.1167 -0.3112,0.3374z"/>
  <path class="fil16" d="M4.5062 8.8688l0.167 0.3332c-0.0111,-0.2017 -0.0078,-0.197 -0.167,-0.3332z"/>
  <path class="fil16" d="M5.1908 1.6603c0.1667,-0.0804 0.1568,-0.056 0.2564,-0.1838 -0.1773,0.063 -0.167,0.0454 -0.2564,0.1838z"/>
  <path class="fil12" d="M2.8095 10.7815c-0.0213,-0.142 -0.0097,-0.2165 -0.169,-0.2478l0.169 0.2478z"/>
  <polygon class="fil32" points="13.5171,7.1178 13.5952,7.1109 13.5902,7.0212 13.4638,6.9593 "/>
  <path class="fil14" d="M2.8451 4.8675l0.1113 -0.2783c-0.1256,0.0709 -0.1176,0.1317 -0.1113,0.2783z"/>
  <path class="fil14" d="M2.9564 4.5892c0.1357,-0.1399 0.1383,-0.15 0.1629,-0.3444l-0.1629 0.3444z"/>
  <path class="fil28" d="M11.1518 12.596c-0.0526,-0.1957 -0.0386,-0.1788 -0.1868,-0.2419l0.1868 0.2419z"/>
  <path class="fil16" d="M4.3166 8.555c-0.035,-0.1796 -0.0468,-0.1926 -0.1868,-0.2989l0.1868 0.2989z"/>
  <path class="fil29" d="M3.9184 4.2367l0.2548 -0.295c-0.1862,0.121 -0.1428,0.0843 -0.2548,0.295z"/>
  <path class="fil31" d="M5.3829 11.9855l0.0899 0.2892c0.013,-0.195 0.0183,-0.1803 -0.0899,-0.2892z"/>
  <path class="fil14" d="M6.1687 2.0519l0.1819 -0.1293c-0.122,-0.0771 -0.1361,0.0516 -0.1819,0.1293z"/>
  <path class="fil33" d="M5.5717 12.4483l0.0784 0.1706c0.0209,-0.1126 0.1535,-0.0831 -0.0784,-0.1706z"/>
  <path class="fil12" d="M2.7584 9.2568c-0.1263,-0.1596 -0.1519,-0.2789 -0.3198,-0.3667l0.3198 0.3667z"/>
  <path class="fil16" d="M2.0811 11.3549l-0.11 -0.3047c0.0055,0.191 -0.0085,0.1682 0.11,0.3047z"/>
  <path class="fil16" d="M5.1868 10.2939c-0.0203,-0.2044 -0.0055,-0.1832 -0.1227,-0.3031l0.1227 0.3031z"/>
  <polygon class="fil16" points="4.4133,2.3237 4.5547,2.3204 4.541,2.1995 "/>
  <path class="fil16" d="M4.924 1.8309c0.1747,-0.0444 0.1666,-0.0331 0.2668,-0.1706l-0.2668 0.1706z"/>
  <path class="fil16" d="M3.2608 5.3337l0.1437 -0.2835c-0.1421,0.1507 -0.1037,0.0655 -0.1437,0.2835z"/>
  <path class="fil16" d="M2.7065 7.2625l-0.1344 -0.3463c0.0389,0.2053 0.0242,0.2039 0.1344,0.3463z"/>
  <path class="fil16" d="M3.3759 1.8772l0.2061 -0.1739c-0.2216,0.0914 -0.0967,0.0053 -0.2061,0.1739z"/>
  <path class="fil29" d="M2.8291 12.7134c-0.042,-0.2322 0.027,-0.0931 -0.1226,-0.1883l0.1226 0.1883z"/>
  <path class="fil16" d="M2.952 10.6805l0.0955 0.2119c-0.0213,-0.2096 0.0375,-0.1079 -0.0955,-0.2119z"/>
  <path class="fil14" d="M3.8852 3.0237c0.158,-0.1133 0.0827,0.0046 0.1072,-0.1941l-0.1072 0.1941z"/>
  <path class="fil19" d="M2.1327 10.0551c0.0751,0.0357 -0.1082,0.0559 0.2179,0.1169l-0.2179 -0.1169z"/>
  <path class="fil16" d="M4.1298 8.2561c-0.0559,-0.2146 0.0086,-0.0937 -0.1327,-0.193l0.1327 0.193z"/>
  <path class="fil16" d="M3.7582 3.2035l0.127 -0.1798c-0.1235,0.0798 -0.0719,-0.0466 -0.127,0.1798z"/>
  <polygon class="fil34" points="3.828,1.5384 4.0406,1.4048 "/>
  <polygon class="fil19" points="2.9415,9.4943 2.7584,9.2568 "/>
  <polygon class="fil16" points="3.6258,1.69 3.828,1.5384 "/>
  <polygon class="fil29" points="2.9473,12.8903 2.8291,12.7134 "/>
  <polygon class="fil14" points="5.4472,1.4765 5.6244,1.3502 "/>
  <polygon class="fil26" points="3.7588,4.4591 3.9081,4.2566 "/>
  <polygon class="fil14" points="5.6244,1.3502 5.7904,1.2472 "/>
  <polygon class="fil35" points="2.4506,7.0553 2.3217,6.676 "/>
  <polygon class="fil34" points="4.1144,1.3705 4.3513,1.2113 "/>
  <polygon class="fil16" points="3.1093,9.7449 2.9415,9.4943 "/>
  <polygon class="fil35" points="3.4325,4.9829 3.5898,4.7399 "/>
  <polygon class="fil36" points="2.1889,3.0501 2.3603,2.8357 "/>
  <polygon class="fil34" points="3.6209,4.6673 3.7588,4.4591 "/>
  <polygon class="fil37" points="10.965,12.3541 10.779,12.0894 "/>
  <polygon class="fil16" points="3.0853,9.3681 2.9794,9.1707 "/>
  <polygon class="fil38" points="2.9147,9.0771 2.7215,8.8492 "/>
  <polygon class="fil16" points="3.1821,9.5417 3.0853,9.3681 "/>
  <polygon class="fil16" points="2.952,10.6805 2.8265,10.5039 "/>
 </g>
</svg>
