<!--?xml version="1.0" encoding="UTF-8"?-->

<!-- Creator: CorelDRAW -->
<svg xmlns="http://www.w3.org/2000/svg" xml:space="preserve" width="16.9332mm" height="16.9332mm" style="shape-rendering: geometricprecision; text-rendering: geometricprecision; fill-rule: evenodd; clip-rule: evenodd;" viewBox="0 0 16.9332 16.9332" xmlns:xlink="http://www.w3.org/1999/xlink">
 <defs>
  <style type="text/css">
   
    .fil0 {fill:#07000C}
    .fil2 {fill:#A6A1AE}
    .fil1 {fill:#E6E6EA}
   
  </style>
 </defs>
 <g id="Capa_x0020_1">
  <metadata id="CorelCorpID_0Corel-Layer"></metadata>
  <path class="fil0 jNDRdssm_0" d="M5.0576 9.0778l0.3091 2.0497c-0.2744,-0.123 -0.4287,-0.3335 -0.6075,-0.5061 -0.0972,-0.0939 -0.4664,-0.4882 -0.5077,-0.5844 -0.1205,-0.0658 -0.2041,-0.1891 -0.2895,-0.2934 -0.2024,-0.2472 -0.6043,-0.8934 -0.4477,-1.1252 0.1233,-0.1828 0.9821,-0.8132 1.3342,-0.8462l0.2091 1.3056zm7.2224 -0.7344c0.032,0.2089 -0.0038,0.2693 -0.0899,0.3843 -0.2439,0.3252 -0.4428,0.5099 -0.6642,0.7949 -0.1478,0.1903 -0.325,0.3113 -0.4964,0.476l-0.4966 0.4973c0.0183,-0.2919 0.1789,-0.8208 0.2466,-1.1273 0.0871,-0.3944 0.1394,-0.7957 0.2076,-1.1869l0.2114 -1.2365 1.0233 0.3222c0.1514,0.0766 0.1764,0.6881 0.1615,0.8459 -0.0117,0.1233 -0.0281,0.1651 -0.1033,0.2301zm-4.6199 0.0749c-0.0301,0.5274 0.0046,1.1592 0.0028,1.7021l-0.061 1.69 -2.0548 -0.5429c-0.0736,-0.3575 -0.2948,-1.827 -0.273,-2.127 -0.0608,-0.0766 -0.0574,-0.2702 -0.072,-0.3685 -0.0455,-0.3067 -0.117,-0.7968 -0.1322,-1.0841 0.562,-0.1949 0.643,-0.2349 1.2408,-0.3562 0.4371,-0.0887 0.915,-0.0847 1.3442,-0.1985l0.0052 1.2851zm3.1765 -0.2831c-0.0413,0.4588 -0.27,1.5991 -0.3806,2.1253 -0.0758,0.3606 -0.0164,0.3672 -0.2898,0.5503l-1.101 0.5729c-0.3321,0.151 -0.1004,0.1152 -0.5848,0.2511 -0.4022,0.1129 -0.4462,0.0901 -0.6748,0.1511l0.0264 -0.4769c-0.0019,-0.7135 0.0175,-1.4197 0.0044,-2.1341 -0.0058,-0.311 -0.0397,-1.8949 -0.0271,-2.0701 1.3878,-0.2236 1.7508,-0.3498 3.2431,-0.2003l-0.2158 1.2307zm-6.4072 -0.8894c0.0008,-0.1783 0.2795,-0.6692 0.3593,-0.8393 0.7281,-1.5535 1.5918,-0.2783 2.0387,0.0019l-0.1082 0.2232c-0.5627,-0.1582 -0.8263,-0.3092 -1.3409,-0.0683 -0.1166,0.0546 -0.6286,0.4086 -0.7394,0.5042 -0.0697,0.0602 -0.1376,0.1441 -0.2095,0.1783zm5.1722 -0.7695c0.0489,-0.0909 0.06,-0.082 0.1316,-0.1513 0.1149,-0.1113 0.0899,-0.1712 0.3776,-0.4332 0.1449,-0.132 0.3799,-0.3602 0.6274,-0.4232 0.2901,-0.0737 0.6174,0.135 0.7848,0.2552 0.1195,0.0858 0.4493,0.4124 0.4388,0.6169l-0.5672 -0.2208c-0.7418,-0.2575 -1.4809,0.3465 -1.793,0.3564zm1.2797 -2.054l-0.1143 -0.185c-0.1483,-0.2635 -0.4569,-0.677 -0.7778,-0.7151 -0.3793,-0.0449 -0.8664,0.412 -1.0634,0.7259 -0.1052,0.1677 -0.3533,0.5916 -0.5036,0.7251 -0.1386,-0.0442 -0.2154,-0.2002 -0.3102,-0.2971 -0.3194,-0.3264 -1.039,-0.8977 -1.4849,-0.9701 -0.2705,-0.0439 -0.3332,0.0112 -0.4363,0.1582 -0.2632,0.3754 -0.2529,0.3635 -0.48,0.7624 -0.0529,-0.0607 -0.7477,-1.3051 -0.8861,-1.5268 -0.5166,-0.8279 -0.4368,-0.6818 -1.1854,-1.2771 -0.5426,0.298 -0.6261,2.794 -0.603,3.543l0.0779 1.2832c-0.1396,-0.0348 -0.4256,-0.1986 -0.5866,-0.2799 -0.5658,-0.2858 -1.3287,-0.5818 -1.9284,-0.822 -0.0166,-0.4797 -0.0064,-0.4871 -0.198,-0.5252l-0.0365 0.3735 -0.3103 -0.1847 0.0637 0.4077 -0.1182 0.0716c0.002,0.1233 0.0915,0.2405 0.1584,0.2928 0.1647,0.1285 0.1119,0.0238 0.1802,0.2801 0.1456,0.5458 0.5824,1.4744 0.8229,1.9586 0.4011,0.8076 0.6398,1.0178 1.0409,1.7415 0.2049,0.3698 0.1096,0.2669 0.0418,0.7072 -0.0437,0.2839 -0.075,0.5312 -0.0988,0.828 -0.0182,0.2259 -0.107,0.5444 -0.1398,0.8032 -0.0818,0.6448 0.0115,1.8216 0.4545,2.2399 0.167,0.1578 0.3216,0.2702 0.599,0.345 0.2883,0.0778 0.5042,0.1048 0.8171,0.0376l0.5681 -0.3635 0.3713 0.7247 0.1346 -1.1504c-0.1441,-0.0337 -1.0447,-0.3138 -1.2078,-0.3883l-0.3437 -0.1863c0.6816,0.1174 1.4578,0.4432 2.1526,0.4871 1.3264,0.0838 1.2805,0.0229 2.5191,-0.057 0.4173,-0.0268 0.7956,-0.0741 1.2005,-0.1316 0.1853,-0.0264 1.8341,-0.4923 2.0991,-0.576l1.0059 -0.357c-0.1824,0.2235 -0.9838,0.4893 -1.2311,0.5651l-1.4053 0.3854c0.013,0.154 0.0812,0.3509 0.1151,0.5101l0.081 0.546 0.3344 -0.5588c0.5961,-0.073 1.1893,-0.0535 1.7635,-0.1865 1.7694,-0.4095 2.7491,-1.1751 2.2519,-3.3401 -0.0682,-0.2968 -0.1339,-0.4753 -0.1561,-0.8068 -0.0193,-0.2865 -0.0687,-0.581 -0.1219,-0.8592 -0.0436,-0.2278 0.0019,-0.204 0.1179,-0.3293 0.2549,-0.2753 0.4336,-0.5034 0.6694,-0.7891 0.3249,-0.3936 0.4219,-0.3774 0.9123,-1.0331 0.4129,-0.5522 0.4267,-0.6242 0.7437,-1.2235l0.4097 0.1335 -0.0563 -0.2763 0.1293 -0.1021c-0.2995,-0.3997 -0.2332,-0.2337 -0.293,-0.6867l-0.3516 0.5137c-1.0769,0.0705 -1.563,0.1813 -2.5405,0.4445 -0.0118,-1.1816 -0.1231,-2.0594 -0.3403,-3.1824l-0.1674 -1.0017c-0.6107,-0.0072 -1.5191,1.4665 -1.851,1.9834 -0.1473,0.2293 -0.3436,0.6224 -0.5082,0.7907z"></path>
  <path class="fil1 jNDRdssm_1" d="M7.832 11.309l-0.0264 0.4769c0.2286,-0.061 0.2726,-0.0382 0.6748,-0.1511 0.4844,-0.1359 0.2527,-0.1001 0.5848,-0.2511l1.101 -0.5729c0.2734,-0.1831 0.214,-0.1897 0.2898,-0.5503 0.1106,-0.5262 0.3393,-1.6665 0.3806,-2.1253 -0.8313,-0.0854 -2.1255,0.1012 -2.9767,0.1992 -0.0181,0.8378 0.0559,1.9125 0.0124,2.7861l-0.0297 0.1623c-0.0025,0.0079 -0.0062,0.0179 -0.0106,0.0262z"></path>
  <path class="fil1 jNDRdssm_2" d="M5.2741 9.1405c-0.0218,0.3 0.1994,1.7695 0.273,2.127l2.0548 0.5429 0.061 -1.69c0.0018,-0.5429 -0.0329,-1.1747 -0.0028,-1.7021 -0.1406,-0.0633 -0.4723,0.054 -0.6444,0.0817 -0.6144,0.0989 -1.1982,0.2717 -1.7443,0.4892l0.0027 0.1513z"></path>
  <path class="fil2 jNDRdssm_3" d="M7.832 11.309c0.0044,-0.0083 0.0081,-0.0183 0.0106,-0.0262l0.0297 -0.1623c0.0435,-0.8736 -0.0305,-1.9483 -0.0124,-2.7861 0.8512,-0.098 2.1454,-0.2846 2.9767,-0.1992l0.2158 -1.2307c-1.4923,-0.1495 -1.8553,-0.0233 -3.2431,0.2003 -0.0126,0.1752 0.0213,1.7591 0.0271,2.0701 0.0131,0.7144 -0.0063,1.4206 -0.0044,2.1341z"></path>
  <path class="fil2 jNDRdssm_4" d="M5.2741 9.1405l-0.0027 -0.1513c0.5461,-0.2175 1.1299,-0.3903 1.7443,-0.4892 0.1721,-0.0277 0.5038,-0.145 0.6444,-0.0817l-0.0052 -1.2851c-0.4292,0.1138 -0.9071,0.1098 -1.3442,0.1985 -0.5978,0.1213 -0.6788,0.1613 -1.2408,0.3562 0.0152,0.2873 0.0867,0.7774 0.1322,1.0841 0.0146,0.0983 0.0112,0.2919 0.072,0.3685z"></path>
  <path class="fil1 jNDRdssm_5" d="M12.28 8.3434c-0.0202,-0.0975 -0.0427,-0.0739 -0.2867,-0.0908 -0.2871,-0.0199 -0.7623,-0.141 -1.0062,-0.0709 -0.0682,0.3912 -0.1205,0.7925 -0.2076,1.1869 -0.0677,0.3065 -0.2283,0.8354 -0.2466,1.1273l0.4966 -0.4973c0.1714,-0.1647 0.3486,-0.2857 0.4964,-0.476 0.2214,-0.285 0.4203,-0.4697 0.6642,-0.7949 0.0861,-0.115 0.1219,-0.1754 0.0899,-0.3843z"></path>
  <path class="fil2 jNDRdssm_6" d="M4.2515 10.037c-0.0709,-0.1791 -0.2075,-0.3315 -0.214,-0.5471 0.338,-0.0887 0.701,-0.3509 1.0201,-0.4121l-0.2091 -1.3056c-0.3521,0.033 -1.2109,0.6634 -1.3342,0.8462 -0.1566,0.2318 0.2453,0.878 0.4477,1.1252 0.0854,0.1043 0.169,0.2276 0.2895,0.2934z"></path>
  <path class="fil2 jNDRdssm_7" d="M10.9871 8.1817c0.2439,-0.0701 0.7191,0.051 1.0062,0.0709 0.244,0.0169 0.2665,-0.0067 0.2867,0.0908 0.0752,-0.065 0.0916,-0.1068 0.1033,-0.2301 0.0149,-0.1578 -0.0101,-0.7693 -0.1615,-0.8459l-1.0233 -0.3222 -0.2114 1.2365z"></path>
  <path class="fil1 jNDRdssm_8" d="M4.2515 10.037c0.0413,0.0962 0.4105,0.4905 0.5077,0.5844 0.1788,0.1726 0.3331,0.3831 0.6075,0.5061l-0.3091 -2.0497c-0.3191,0.0612 -0.6821,0.3234 -1.0201,0.4121 0.0065,0.2156 0.1431,0.368 0.214,0.5471z"></path>
 </g>
<style data-made-with="vivus-instant">.jNDRdssm_0{stroke-dasharray:132 134;stroke-dashoffset:133;animation:jNDRdssm_draw_0 13200ms ease-out 0ms infinite,jNDRdssm_fade 13200ms linear 0ms infinite;}.jNDRdssm_1{stroke-dasharray:12 14;stroke-dashoffset:13;animation:jNDRdssm_draw_1 13200ms ease-out 0ms infinite,jNDRdssm_fade 13200ms linear 0ms infinite;}.jNDRdssm_2{stroke-dasharray:11 13;stroke-dashoffset:12;animation:jNDRdssm_draw_2 13200ms ease-out 0ms infinite,jNDRdssm_fade 13200ms linear 0ms infinite;}.jNDRdssm_3{stroke-dasharray:15 17;stroke-dashoffset:16;animation:jNDRdssm_draw_3 13200ms ease-out 0ms infinite,jNDRdssm_fade 13200ms linear 0ms infinite;}.jNDRdssm_4{stroke-dasharray:9 11;stroke-dashoffset:10;animation:jNDRdssm_draw_4 13200ms ease-out 0ms infinite,jNDRdssm_fade 13200ms linear 0ms infinite;}.jNDRdssm_5{stroke-dasharray:7 9;stroke-dashoffset:8;animation:jNDRdssm_draw_5 13200ms ease-out 0ms infinite,jNDRdssm_fade 13200ms linear 0ms infinite;}.jNDRdssm_6{stroke-dasharray:7 9;stroke-dashoffset:8;animation:jNDRdssm_draw_6 13200ms ease-out 0ms infinite,jNDRdssm_fade 13200ms linear 0ms infinite;}.jNDRdssm_7{stroke-dasharray:5 7;stroke-dashoffset:6;animation:jNDRdssm_draw_7 13200ms ease-out 0ms infinite,jNDRdssm_fade 13200ms linear 0ms infinite;}.jNDRdssm_8{stroke-dasharray:6 8;stroke-dashoffset:7;animation:jNDRdssm_draw_8 13200ms ease-out 0ms infinite,jNDRdssm_fade 13200ms linear 0ms infinite;}@keyframes jNDRdssm_draw{100%{stroke-dashoffset:0;}}@keyframes jNDRdssm_fade{0%{stroke-opacity:1;}96.96969696969697%{stroke-opacity:1;}100%{stroke-opacity:0;}}@keyframes jNDRdssm_draw_0{6.0606060606060606%{stroke-dashoffset: 133}51.515151515151516%{ stroke-dashoffset: 0;}100%{ stroke-dashoffset: 0;}}@keyframes jNDRdssm_draw_1{8.901515151515152%{stroke-dashoffset: 13}54.35606060606061%{ stroke-dashoffset: 0;}100%{ stroke-dashoffset: 0;}}@keyframes jNDRdssm_draw_2{11.742424242424242%{stroke-dashoffset: 12}57.1969696969697%{ stroke-dashoffset: 0;}100%{ stroke-dashoffset: 0;}}@keyframes jNDRdssm_draw_3{14.583333333333334%{stroke-dashoffset: 16}60.03787878787878%{ stroke-dashoffset: 0;}100%{ stroke-dashoffset: 0;}}@keyframes jNDRdssm_draw_4{17.424242424242426%{stroke-dashoffset: 10}62.878787878787875%{ stroke-dashoffset: 0;}100%{ stroke-dashoffset: 0;}}@keyframes jNDRdssm_draw_5{20.265151515151516%{stroke-dashoffset: 8}65.71969696969697%{ stroke-dashoffset: 0;}100%{ stroke-dashoffset: 0;}}@keyframes jNDRdssm_draw_6{23.106060606060606%{stroke-dashoffset: 8}68.56060606060606%{ stroke-dashoffset: 0;}100%{ stroke-dashoffset: 0;}}@keyframes jNDRdssm_draw_7{25.946969696969695%{stroke-dashoffset: 6}71.40151515151516%{ stroke-dashoffset: 0;}100%{ stroke-dashoffset: 0;}}@keyframes jNDRdssm_draw_8{28.78787878787879%{stroke-dashoffset: 7}74.24242424242425%{ stroke-dashoffset: 0;}100%{ stroke-dashoffset: 0;}}</style></svg>
