<?xml version="1.0" encoding="UTF-8"?>
<!DOCTYPE svg PUBLIC "-//W3C//DTD SVG 1.1//EN" "http://www.w3.org/Graphics/SVG/1.1/DTD/svg11.dtd">
<!-- Creator: CorelDRAW -->
<svg xmlns="http://www.w3.org/2000/svg" xml:space="preserve" width="16.9332mm" height="16.9332mm" style="shape-rendering:geometricPrecision; text-rendering:geometricPrecision; image-rendering:optimizeQuality; fill-rule:evenodd; clip-rule:evenodd"
viewBox="0 0 16.9332 16.9332"
 xmlns:xlink="http://www.w3.org/1999/xlink">
 <defs>
  <style type="text/css">
   <![CDATA[
    .fil0 {fill:#010201}
    .fil4 {fill:#030303}
    .fil15 {fill:#050205}
    .fil29 {fill:#170A17}
    .fil24 {fill:#191814}
    .fil26 {fill:#1B220F}
    .fil25 {fill:#1D2315}
    .fil18 {fill:#281528}
    .fil23 {fill:#2B331D}
    .fil21 {fill:#2F2E25}
    .fil19 {fill:#371A37}
    .fil10 {fill:#3B2439}
    .fil11 {fill:#3E1A41}
    .fil12 {fill:#492648}
    .fil22 {fill:#51334C}
    .fil9 {fill:#593357}
    .fil8 {fill:#612960}
    .fil27 {fill:#61325E}
    .fil14 {fill:#643263}
    .fil28 {fill:#7A4478}
    .fil16 {fill:#873985}
    .fil17 {fill:#8D338B}
    .fil5 {fill:#913591}
    .fil7 {fill:#943392}
    .fil13 {fill:#BCD183}
    .fil20 {fill:#D9743C}
    .fil2 {fill:#E271DD}
    .fil1 {fill:#E274E1}
    .fil3 {fill:#E572E2}
    .fil6 {fill:#F87326}
   ]]>
  </style>
 </defs>
 <g id="Capa_x0020_1">
  <metadata id="CorelCorpID_0Corel-Layer"/>
  <path class="fil0" d="M9.2933 13.7305l0.2405 -0.263 0.2741 0.1202 0.1628 -0.1833 0.3793 0.0867c0.5371,-1.0236 0.7279,-1.1841 0.9429,-2.2269 0.0552,-0.2677 0.0296,-0.6411 0.1116,-0.8664l-1.0525 3.2095 -0.3181 -0.1013 -0.1748 0.1871 -0.3077 -0.105 -0.1944 0.2483 -0.0637 -0.1059zm0 0c-0.5429,-0.2303 -1.8576,-2.4635 -1.7862,-3.844 0.0953,0.164 0.0747,0.0934 0.0923,0.2921 0.1788,2.0137 1.5775,3.2355 1.6939,3.5519zm-4.5298 -4.1598c0.0992,-0.5615 -0.2032,-0.7098 0.1423,-1.1598 0.1909,-0.2487 0.4487,-0.5556 0.6457,-0.7385l-0.7011 2.6683c-0.2874,0.3954 -1.4749,1.5168 -2.03,1.1302 0.5198,-0.8795 1.0221,-1.7935 1.7183,-2.5604l0.2248 0.6602zm3.3544 -5.3259l-0.0042 0.3766 -0.3478 0.2234 -0.1897 -1.0416 0.4439 0.1053 0.0978 0.3363zm1.1809 0.072l-0.3985 0.018 -0.1065 -0.8303c0.5104,0.1033 0.5138,0.3708 0.505,0.8123zm-0.0015 -0.8734c-0.1059,-0.1456 -0.0053,0.0254 -0.0814,-0.1738 -0.0392,-0.1026 -0.0055,-0.0478 -0.041,-0.1156 -0.2351,0.0151 -0.365,-0.0048 -0.4604,0.1863l0.0592 0.5368 -0.6558 0.3677 -0.0597 -0.8017c-0.064,-0.0339 -0.0553,-0.0313 -0.1827,-0.0389 -0.0721,-0.0043 -0.0704,0.015 -0.1709,0.0036l-0.2211 0.1816c0.0488,0.3019 0.1615,0.7313 0.1102,1.0154l-0.6705 0.0293 -1.4474 -0.4132c-0.2697,-0.09 -0.3086,-0.2559 -0.3798,-0.5309l-0.1753 -0.0003c-0.2295,0.0927 -0.3519,0.0633 -0.4744,0.2545l0.1823 0.2871 0.0582 -0.1587 0.4399 0.1222 -0.0991 0.2859 -0.0837 0.1843 -0.4027 1.8207 0.1052 -0.978c-0.2271,-0.1817 -0.6126,-0.4364 -0.8646,-0.466 -0.1267,0.488 -0.6472,3.2133 -1.1211,3.2427 0.0075,0.2963 -0.277,0.603 -0.4013,0.8899 -0.1946,0.4494 -0.1831,0.7056 -0.2165,1.1815 0.0388,0.3713 0.2416,0.9716 0.0583,1.3294l-0.1137 -1.2042c-0.0309,0.9928 -0.0757,2.8599 0.6806,3.6079 -0.1206,-0.2584 -0.2837,-0.4422 -0.3107,-0.7225l0.4 -0.2417 0.1394 0.1234 0.4548 -0.5046 1.1508 -0.8211c0.2419,-0.1006 0.0552,-0.0752 0.4693,-0.4082 0.3235,-0.2603 0.7589,-0.6625 1.0205,-0.9633 0.2997,-0.3447 0.592,-0.7524 0.8903,-1.0833 0.0957,0.2852 0.0065,0.5754 -0.0672,0.9172 -0.163,0.7567 -0.7319,2.4778 -1.1304,3.0823 -0.1052,0.1596 -0.1508,0.1848 -0.2341,0.3268 -0.3025,0.5152 -0.8234,1.0229 -1.4332,1.187l-0.1647 -0.1325 0.0224 0.167c-0.5092,0.0916 -0.492,-0.0615 -0.7893,-0.3872 0.2776,0.4214 0.6363,0.6853 1.1187,0.9105l1.7537 0.1855c0.2928,0.1251 0.6947,0.8364 0.8517,1.1107l0.2966 -0.423 0.2657 0.4902 0.2828 -0.4492 0.3385 0.4803 0.1794 -0.472c0.4528,-0.0441 0.8187,-0.0712 1.2592,-0.1737 0.5952,-0.1385 0.5731,-0.0516 0.9391,-0.5492 0.2347,-0.3192 0.4009,-0.6131 0.5245,-0.9669 0.1505,-0.4307 0.0936,-0.2433 0.9091,-0.5804 2.0065,-0.8295 1.8699,-0.9875 3.1546,-2.6494l-2.3778 -0.2932 0.4315 -0.6795 -1.221 -0.8751 1.0291 -1.5279 -0.8334 -0.5621c0.0368,-0.2796 0.0995,-0.7413 -0.0258,-0.9791 0.011,1.4561 -0.4388,2.4938 -1.8617,2.9455 -2.4479,0.7773 -5.0569,-2.3632 -2.2358,-4.7124 0.4834,-0.4026 1.4081,-0.437 2.0016,-0.3105 0.9927,0.2117 1.1742,0.6553 1.5316,0.8717l-0.0336 -2.8787c-0.3144,-0.0606 -0.7539,0.2831 -1.042,0.4375 -0.1825,0.0977 -0.343,0.1864 -0.5251,0.2804 -0.4339,0.2242 -0.3573,0.2865 -0.4999,0.1852z"/>
  <path class="fil1" d="M10.2933 8.6388c-0.0992,0.1471 -0.0515,0.1049 -0.2677,0.199 -0.2456,0.1068 -0.1291,0.0937 -0.3154,0.0147l0.5831 -0.2137zm0 0c0.0751,-0.1155 0.0794,-0.1076 0.2366,-0.1782 -0.0132,0.1583 -0.1052,0.1513 -0.2366,0.1782zm0.2366 -0.1782l0.3182 -0.3677c-0.0769,0.2231 -0.1124,0.3055 -0.3182,0.3677zm-2.7843 -0.4174c0.1744,0.1111 0.3132,0.3352 0.494,0.4846 0.2591,0.2142 0.4743,0.2005 0.6644,0.3737 -0.4253,-0.0456 -1.0965,-0.4572 -1.1584,-0.8583zm-0.2415 -0.6955l0.2415 0.6955c-0.1775,-0.1693 -0.2582,-0.4264 -0.2415,-0.6955zm0.7056 -1.0425c0.0912,-0.022 0.1476,0.1511 0.0527,-0.1195 0.0002,-0.0757 -0.0601,-0.196 0.0998,-0.2045l0.1112 -0.1164c0.3068,-0.5342 1.4748,-0.4593 1.7669,0.1355 0.6393,0.4207 0.2846,2.1493 -0.6753,2.1867 -0.1247,0.3258 -1.75,-0.0389 -1.545,-1.5224 0.0482,-0.3483 0.1175,-0.3183 0.1897,-0.3594zm2.8348 0.1868c0.2376,0.3982 0.1636,1.257 -0.1964,1.6009 0.0651,-0.2745 0.2131,-0.4208 0.2347,-0.746 0.021,-0.3162 -0.0407,-0.586 -0.0383,-0.8549zm-0.1874 -0.3769c0.1345,0.1321 0.1532,0.181 0.1874,0.3769 -0.0831,-0.0765 -0.0617,0 -0.1463,-0.1915 -0.0668,-0.1511 -0.0261,-0.0702 -0.0411,-0.1854zm-0.1792 -0.2368c0.1414,0.0597 0.1345,0.0805 0.1792,0.2368 -0.1347,-0.0633 -0.1359,-0.0244 -0.1792,-0.2368zm-3.1738 1.4694c-0.3065,-0.442 0.2834,-1.5692 0.7399,-1.7331 -0.0795,0.2326 -0.3864,0.4268 -0.5266,0.7025 -0.2117,0.4166 -0.1763,0.5904 -0.2133,1.0306zm0.7399 -1.7331c0.3252,-0.624 2.0396,-0.4643 2.4339,0.2637 -0.1953,-0.058 -0.0456,0.0007 -0.1837,-0.0935 -1.412,-0.9637 -1.4908,-0.2199 -2.2502,-0.1702zm3.7182 1.0101l-0.048 -0.2463c-0.1025,-0.1293 -0.4487,-0.7758 -0.5163,-0.9594 -0.3574,-0.2164 -0.5389,-0.66 -1.5316,-0.8717 -0.5935,-0.1265 -1.5182,-0.0921 -2.0016,0.3105 -2.8211,2.3492 -0.2121,5.4897 2.2358,4.7124 1.4229,-0.4517 1.8727,-1.4894 1.8617,-2.9455z"/>
  <path class="fil2" d="M7.8117 2.3194c0.0455,0.1056 0.2104,-0.0719 -0.0117,0.2419 -0.1392,-0.2018 -0.0998,-0.0975 0.0117,-0.2419zm-0.8218 -1.3462l0.3044 -0.1073c-0.0008,0.2354 0.0251,0.1146 -0.0984,0.2812 0.3668,0.2358 0.3602,1.1452 0.527,1.368l0.0482 0.2249c0.3718,-0.0329 0.9767,-0.2833 1.2983,-0.2516 0.1378,-0.1576 0.0895,-0.0997 0.3283,-0.1593l0.1332 -0.0329 -0.1095 -0.4842c-0.1013,-0.1126 -0.0369,0.0206 -0.0872,-0.2056 -0.0191,-0.0857 -0.0308,-0.1759 -0.0428,-0.2674l-0.0756 -0.3285c-0.2251,-0.0979 -0.1438,-0.0464 -0.2407,-0.3109l-0.2553 -0.0151c0.2471,-0.1923 0.0918,-0.0243 0.1484,-0.2602 -0.2988,-0.1576 -0.414,-0.4434 -1.2942,-0.3163 -0.3667,0.0529 -1.0868,0.155 -1.3688,0.2837l0.7847 0.5815z"/>
  <path class="fil3" d="M8.4734 5.8648l0.0069 0.1032 -0.1181 0.0132 -0.0998 0.2045c0.0949,0.2706 0.0385,0.0975 -0.0527,0.1195 -0.0685,0.2427 -0.0807,0.49 -0.0195,0.7446 0.0156,0.0649 0.0975,0.2339 0.1347,0.289 0.1704,0.2515 0.1544,0.0489 0.1723,0.2761 0.4848,0.3489 1.1521,0.4277 1.6109,-0.0123 0.1722,-0.165 0.3194,-0.5094 0.35,-0.7585 0.0428,-0.3479 -0.1719,-0.5514 -0.2178,-0.8438 -0.2918,-0.0666 -0.0902,-0.0755 -0.3924,-0.2523 -0.1334,-0.078 -0.2702,-0.1176 -0.4241,-0.1316 -0.5315,-0.0482 -0.546,0.1334 -0.9504,0.2484z"/>
  <path class="fil4" d="M2.7979 3.3914l0.033 -0.0718 0.0214 -0.2373c0.3877,-0.1047 1.8547,-0.574 2.1147,-0.488l0.0612 0.0236c-0.0822,-0.5828 0.067,-0.9347 0.6215,-1.1559 0.5953,-0.2375 0.7644,-0.1419 1.0874,0.373 -0.1948,-0.976 -1.8429,-0.7838 -2.6887,-0.478 -1.9484,0.7043 -1.3986,1.215 -1.2505,2.0344z"/>
  <path class="fil5" d="M4.5635 0.7768l-0.7806 0.2899c0.0561,0.0798 0.2382,-0.0424 -0.2945,0.2311 -0.7486,0.3845 -0.7715,0.7295 -1.0412,0.7338 -0.3668,0.3058 -0.0362,1.4114 0.1819,1.7276l0.2549 -0.0706 -0.0861 -0.2972c-0.1481,-0.8194 -0.6979,-1.3301 1.2505,-2.0344 0.8458,-0.3058 2.4939,-0.498 2.6887,0.478l0.2944 0.7225c0.1328,0.0988 0.1069,0.0975 0.218,0.2981 0.0753,-0.0125 0.2109,-0.0171 0.2744,-0.0602 0.1039,-0.0703 0.0106,-0.0099 0.081,-0.1087l0.118 -0.1716c-0.1668,-0.2228 -0.1602,-1.1322 -0.527,-1.368 0.1235,-0.1666 0.0976,-0.0458 0.0984,-0.2812l-0.3044 0.1073c-0.1916,0.0538 -0.3527,-0.2231 -0.4375,-0.2848 -0.4411,-0.3204 -0.8944,-0.1311 -1.3687,0.0155 -0.6513,0.2013 -0.5617,0.2058 -0.6202,0.0729z"/>
  <path class="fil6" d="M4.7635 9.5707l-0.2248 -0.6602c-0.6962,0.7669 -1.1985,1.6809 -1.7183,2.5604 0.5551,0.3866 1.7426,-0.7348 2.03,-1.1302l0.7011 -2.6683c-0.197,0.1829 -0.4548,0.4898 -0.6457,0.7385 -0.3455,0.45 -0.0431,0.5983 -0.1423,1.1598z"/>
  <path class="fil5" d="M4.0693 4.7596c-0.1353,0.112 -0.469,0.3259 -0.6827,0.3525 -0.1051,-0.045 -0.0979,-0.0699 -0.0543,0.0387 -0.0563,0.2121 -0.1738,0.3336 -0.3855,0.3914 -0.5794,0.4409 -0.8158,2.2014 -0.2861,2.7422 0.4739,-0.0294 0.9944,-2.7547 1.1211,-3.2427 0.252,0.0296 0.6375,0.2843 0.8646,0.466l-0.1052 0.978 0.4027 -1.8207c-0.11,-0.1151 0.0696,-0.0722 -0.2313,-0.0545 -0.0587,0.0034 -0.1673,0.0261 -0.2233,0.0409 -0.2128,0.0563 -0.1953,0.0849 -0.42,0.1082z"/>
  <path class="fil5" d="M7.7046 3.4078c0.1005,0.0114 0.0988,-0.0079 0.1709,-0.0036 0.1274,0.0076 0.1187,0.005 0.1827,0.0389l0.6563 -0.1028c0.0954,-0.1911 0.2253,-0.1712 0.4604,-0.1863 0.188,-0.144 0.2767,-0.0643 0.5225,-0.207l-0.0886 -0.4009 0.1184 -0.0929 -0.0483 -0.0306c-0.119,0.0502 0.1415,0.0915 -0.1371,0.0243 -0.1813,-0.0439 -0.0611,0.079 -0.1441,-0.1178 -0.2388,0.0596 -0.1905,0.0017 -0.3283,0.1593l0.2484 -0.0377c-0.4825,0.2952 -1.8035,0.3211 -2.2671,0.6296l0.1291 0.4307 0.5248 -0.1032z"/>
  <path class="fil5" d="M3.295 4.2372l0.3189 -0.0941 0.1031 0.0783c0.1545,-0.1455 0.5047,-0.2339 0.7293,-0.2772 0.1225,-0.1912 0.2449,-0.1618 0.4744,-0.2545 0.2561,-0.2141 0.0793,-0.0087 0.3639,-0.1595 0.0944,-0.2231 0.0294,-0.032 0.0294,-0.3212l-0.1733 -0.2031 -2.4017 0.8469c0.0224,0.236 0.059,0.3023 0.1724,0.4859l0.3836 -0.1015z"/>
  <path class="fil7" d="M2.8309 3.3196l0.2189 0.3089 1.9782 -0.6839 -0.061 -0.3503c-0.26,-0.086 -1.727,0.3833 -2.1147,0.488l-0.0214 0.2373z"/>
  <path class="fil8" d="M9.565 8.187c-0.3669,-0.0912 -0.0775,-0.1315 -0.4191,-0.2285 -0.5795,-0.1647 -0.6523,-0.1514 -0.6487,-0.3436 -0.0179,-0.2272 -0.0019,-0.0246 -0.1723,-0.2761 -0.0372,-0.0551 -0.1191,-0.2241 -0.1347,-0.289 -0.0612,-0.2546 -0.049,-0.5019 0.0195,-0.7446 -0.0722,0.0411 -0.1415,0.0111 -0.1897,0.3594 -0.205,1.4835 1.4203,1.8482 1.545,1.5224z"/>
  <path class="fil9" d="M4.5635 0.7768c0.0585,0.1329 -0.0311,0.1284 0.6202,-0.0729 0.4743,-0.1466 0.9276,-0.3359 1.3687,-0.0155 0.0848,0.0617 0.2459,0.3386 0.4375,0.2848l-0.7847 -0.5815c0.282,-0.1287 1.0021,-0.2308 1.3688,-0.2837 0.8802,-0.1271 0.9954,0.1587 1.2942,0.3163l0.1568 0.2174c0.0128,0.0117 0.0355,0.0248 0.0539,0.0362 -0.379,-0.9313 -1.3823,-0.6728 -2.18,-0.5474 -0.6754,0.1061 -1.6943,0.3979 -2.3354,0.6463z"/>
  <path class="fil10" d="M9.6033 7.9796c0.2739,-0.0527 0.0519,0.0022 0.1639,0.0433 -0.1617,0.1427 -0.1224,0.1398 -0.3245,0.0741 0.1386,-0.1061 -0.1002,-0.0673 0.1606,-0.1174zm-1.1061 -0.3647c-0.0036,0.1922 0.0692,0.1789 0.6487,0.3436 0.3416,0.097 0.0522,0.1373 0.4191,0.2285 0.9599,-0.0374 1.3146,-1.766 0.6753,-2.1867 0.0459,0.2924 0.2606,0.4959 0.2178,0.8438 -0.0306,0.2491 -0.1778,0.5935 -0.35,0.7585 -0.4588,0.44 -1.1261,0.3612 -1.6109,0.0123z"/>
  <path class="fil11" d="M2.8309 3.3196l-0.033 0.0718 0.0861 0.2972 -0.2549 0.0706c0.0123,0.3083 0.0288,0.4397 0.2336,0.6874l0.2936 -0.0557 0.1387 -0.1537 -0.3836 0.1015c-0.1134,-0.1836 -0.15,-0.2499 -0.1724,-0.4859l2.4017 -0.8469 0.1733 0.2031c0.0083,-0.2628 0.0189,-0.1493 -0.1227,-0.3094 -0.1294,-0.1461 -0.0661,-0.088 -0.1631,-0.2817l-0.0612 -0.0236 0.061 0.3503 -1.9782 0.6839 -0.2189 -0.3089z"/>
  <path class="fil4" d="M5.3292 15.9149l0.3745 0.3155 0.013 0.3485 0.2902 0.0744 0.3677 -0.3828c-0.2654,-0.5033 -0.5263,-0.4527 -1.0454,-0.3556z"/>
  <path class="fil12" d="M7.7229 2.5151l-0.118 0.1716c-0.0704,0.0988 0.0229,0.0384 -0.081,0.1087 -0.0635,0.0431 -0.1991,0.0477 -0.2744,0.0602 -0.1111,-0.2006 -0.0852,-0.1993 -0.218,-0.2981l0.0514 0.2695c-0.1248,0.2696 -0.1988,0.4914 0.0381,0.7596l0.3625 0.0028 0.2211 -0.1816 -0.5248 0.1032 -0.1291 -0.4307c0.4636,-0.3085 1.7846,-0.3344 2.2671,-0.6296l-0.2484 0.0377c-0.3216,-0.0317 -0.9265,0.2187 -1.2983,0.2516l-0.0482 -0.2249z"/>
  <polygon class="fil5" points="8.1179,4.2448 8.0201,3.9085 7.5762,3.8032 7.7659,4.8448 8.1137,4.6214 "/>
  <path class="fil13" d="M9.2933 13.7305c-0.1164,-0.3164 -1.5151,-1.5382 -1.6939,-3.5519 -0.0176,-0.1987 0.003,-0.1281 -0.0923,-0.2921 -0.0714,1.3805 1.2433,3.6137 1.7862,3.844z"/>
  <path class="fil5" d="M8.9003 4.3348l0.3985 -0.018c0.0088,-0.4415 0.0054,-0.709 -0.505,-0.8123l0.1065 0.8303z"/>
  <path class="fil14" d="M8.244 5.6146c0.7594,-0.0497 0.8382,-0.7935 2.2502,0.1702 0.1381,0.0942 -0.0116,0.0355 0.1837,0.0935 -0.3943,-0.728 -2.1087,-0.8877 -2.4339,-0.2637z"/>
  <path class="fil15" d="M3.295 4.2372l-0.1387 0.1537 0.1082 0.2384c0.1405,-0.1422 0.3459,-0.0222 0.5697,0.0028l-0.1172 -0.4107 -0.1031 -0.0783 -0.3189 0.0941z"/>
  <path class="fil9" d="M8.4734 5.8648c0.4044,-0.115 0.4189,-0.2966 0.9504,-0.2484 0.1539,0.014 0.2907,0.0536 0.4241,0.1316 0.3022,0.1768 0.1006,0.1857 0.3924,0.2523 -0.2921,-0.5948 -1.4601,-0.6697 -1.7669,-0.1355z"/>
  <path class="fil12" d="M7.5041 7.3477c0.037,-0.4402 0.0016,-0.614 0.2133,-1.0306 0.1402,-0.2757 0.4471,-0.4699 0.5266,-0.7025 -0.4565,0.1639 -1.0464,1.2911 -0.7399,1.7331z"/>
  <path class="fil10" d="M2.4472 2.0316c0.2697,-0.0043 0.2926,-0.3493 1.0412,-0.7338 0.5327,-0.2735 0.3506,-0.1513 0.2945,-0.2311 -0.519,0.1964 -1.0487,0.518 -1.3357,0.9649z"/>
  <path class="fil16" d="M3.2926 4.7074c0.245,0.155 0.047,0.0639 0.2341,0.2603l0.264 -0.1395 0.0435 -0.1961c-0.2238,-0.025 -0.4292,-0.145 -0.5697,-0.0028l0.0281 0.0781z"/>
  <path class="fil17" d="M4.6286 4.2313c0.0844,0.0586 0.0642,0.0312 0.1279,0.1094 0.0144,0.0177 0.0707,0.1197 0.092,0.1545l0.1791 -0.0145 0.0991 -0.2859 -0.4399 -0.1222 -0.0582 0.1587z"/>
  <path class="fil18" d="M10.8481 8.0929c0.36,-0.3439 0.434,-1.2027 0.1964,-1.6009 -0.0024,0.2689 0.0593,0.5387 0.0383,0.8549 -0.0216,0.3252 -0.1696,0.4715 -0.2347,0.746z"/>
  <path class="fil12" d="M7.7456 8.0432c0.0619,0.4011 0.7331,0.8127 1.1584,0.8583 -0.1901,-0.1732 -0.4053,-0.1595 -0.6644,-0.3737 -0.1808,-0.1494 -0.3196,-0.3735 -0.494,-0.4846z"/>
  <path class="fil12" d="M4.0693 4.7596c0.2247,-0.0233 0.2072,-0.0519 0.42,-0.1082 0.056,-0.0148 0.1646,-0.0375 0.2233,-0.0409 0.3009,-0.0177 0.1213,-0.0606 0.2313,0.0545l0.0837 -0.1843 -0.1791 0.0145c-0.0213,-0.0348 -0.0776,-0.1368 -0.092,-0.1545 -0.0637,-0.0782 -0.0435,-0.0508 -0.1279,-0.1094l0.0563 0.2581c-0.153,0.0943 -0.1361,0.0633 -0.3144,0.104 -0.2377,0.0543 -0.226,0.0074 -0.3012,0.1662z"/>
  <path class="fil19" d="M3.2926 4.7074l0.094 0.4047c0.2137,-0.0266 0.5474,-0.2405 0.6827,-0.3525 -0.1225,-0.0469 -0.1367,-0.061 -0.2351,-0.1275l-0.0435 0.1961 -0.264 0.1395c-0.1871,-0.1964 0.0109,-0.1053 -0.2341,-0.2603z"/>
  <path class="fil20" d="M1.9875 10.481l0.1137 1.2042c0.1833,-0.3578 -0.0195,-0.9581 -0.0583,-1.3294l-0.0554 0.1252z"/>
  <path class="fil21" d="M11.9142 6.3784c-0.0484,-0.3376 -0.2655,-0.7668 -0.5163,-0.9594 0.0676,0.1836 0.4138,0.8301 0.5163,0.9594z"/>
  <path class="fil22" d="M4.9207 3.6897l0.1753 0.0003 0.3406 -0.1192c0.007,-0.0873 0.0495,-0.0787 0.0057,-0.2293 -0.0764,-0.2631 -0.0398,-0.0811 -0.1283,-0.1325 0,0.2892 0.065,0.0981 -0.0294,0.3212 -0.2846,0.1508 -0.1078,-0.0546 -0.3639,0.1595z"/>
  <path class="fil9" d="M10.2933 8.6388l-0.5831 0.2137c0.1863,0.079 0.0698,0.0921 0.3154,-0.0147 0.2162,-0.0941 0.1685,-0.0519 0.2677,-0.199z"/>
  <path class="fil19" d="M7.7456 8.0432l-0.2415 -0.6955c-0.0167,0.2691 0.064,0.5262 0.2415,0.6955z"/>
  <path class="fil16" d="M9.4427 8.097c0.2021,0.0657 0.1628,0.0686 0.3245,-0.0741 -0.112,-0.0411 0.11,-0.096 -0.1639,-0.0433 -0.2608,0.0501 -0.022,0.0113 -0.1606,0.1174z"/>
  <path class="fil18" d="M2.9468 5.5422c0.2117,-0.0578 0.3292,-0.1793 0.3855,-0.3914l-0.3855 0.3914z"/>
  <path class="fil10" d="M11.0445 6.492c-0.0342,-0.1959 -0.0529,-0.2448 -0.1874,-0.3769 0.015,0.1152 -0.0257,0.0343 0.0411,0.1854 0.0846,0.1915 0.0632,0.115 0.1463,0.1915z"/>
  <path class="fil10" d="M10.5299 8.4606c0.2058,-0.0622 0.2413,-0.1446 0.3182,-0.3677l-0.3182 0.3677z"/>
  <path class="fil12" d="M10.8571 6.1151c-0.0447,-0.1563 -0.0378,-0.1771 -0.1792,-0.2368 0.0433,0.2124 0.0445,0.1735 0.1792,0.2368z"/>
  <path class="fil19" d="M10.2933 8.6388c0.1314,-0.0269 0.2234,-0.0199 0.2366,-0.1782 -0.1572,0.0706 -0.1615,0.0627 -0.2366,0.1782z"/>
  <path class="fil23" d="M3.0246 14.5513l-0.1941 -0.2338c0.0694,0.2074 0.0075,0.1489 0.1941,0.2338z"/>
  <path class="fil18" d="M8.2624 6.1857l0.0998 -0.2045c-0.1599,0.0085 -0.0996,0.1288 -0.0998,0.2045z"/>
  <polygon class="fil19" points="8.3622,5.9812 8.4803,5.968 8.4734,5.8648 "/>
  <polygon class="fil24" points="4.8066,12.3798 4.7023,12.1001 "/>
  <polygon class="fil25" points="4.9918,12.7697 4.8829,12.5079 "/>
  <polygon class="fil25" points="5.2411,13.3044 5.0086,12.7813 "/>
  <polygon class="fil25" points="2.9155,13.2749 3.0121,13.5098 "/>
  <polygon class="fil25" points="3.0856,13.6009 3.2591,13.9439 "/>
  <polygon class="fil26" points="2.8328,14.3016 2.6681,14.0889 "/>
  <polygon class="fil25" points="3.3309,14.034 3.5101,14.3738 "/>
  <polygon class="fil26" points="3.8529,14.8484 3.7471,14.6401 "/>
  <path class="fil27" d="M8.4545 8.5876c0.2221,-0.3138 0.0572,-0.1363 0.0117,-0.2419 -0.1115,0.1444 -0.1509,0.0401 -0.0117,0.2419z"/>
  <path class="fil12" d="M8.1596 8.6723c0.0355,0.0678 0.0018,0.013 0.041,0.1156 0.0761,0.1992 -0.0245,0.0282 0.0814,0.1738l-0.0081 -0.2497c0.5295,-0.1961 0.5654,0.013 0.438,-0.7405l-0.1184 0.0929 0.0886 0.4009c-0.2458,0.1427 -0.3345,0.063 -0.5225,0.207z"/>
  <path class="fil28" d="M8.7146 8.7597l-0.1369 -0.3326c-0.0184,-0.0114 -0.0411,-0.0245 -0.0539,-0.0362l-0.1568 -0.2174c-0.0566,0.2359 0.0987,0.0679 -0.1484,0.2602l0.2553 0.0151c0.0969,0.2645 0.0156,0.213 0.2407,0.3109z"/>
  <path class="fil10" d="M8.326 8.6488c0.083,0.1968 -0.0372,0.0739 0.1441,0.1178 0.2786,0.0672 0.0181,0.0259 0.1371,-0.0243l-0.2575 -0.6106 0.1095 0.4842 -0.1332 0.0329z"/>
  <path class="fil29" d="M8.5308 8.7032c0.0106,-0.1966 -0.0282,-0.3288 -0.13,-0.473 0.012,0.0915 0.0237,0.1817 0.0428,0.2674 0.0503,0.2262 -0.0141,0.093 0.0872,0.2056z"/>
 </g>
</svg>
