<?xml version="1.0" encoding="UTF-8"?>
<!DOCTYPE svg PUBLIC "-//W3C//DTD SVG 1.1//EN" "http://www.w3.org/Graphics/SVG/1.1/DTD/svg11.dtd">
<!-- Creator: CorelDRAW -->
<svg xmlns="http://www.w3.org/2000/svg" xml:space="preserve" width="16.9332mm" height="16.9332mm" style="shape-rendering:geometricPrecision; text-rendering:geometricPrecision; image-rendering:optimizeQuality; fill-rule:evenodd; clip-rule:evenodd"
viewBox="0 0 16.9332 16.9332"
 xmlns:xlink="http://www.w3.org/1999/xlink">
 <defs>
  <style type="text/css">
   <![CDATA[
    .fil0 {fill:#010201}
    .fil5 {fill:#030303}
    .fil3 {fill:#060506}
    .fil18 {fill:#170A17}
    .fil26 {fill:#191814}
    .fil19 {fill:#1D0C22}
    .fil21 {fill:#252719}
    .fil8 {fill:#281528}
    .fil22 {fill:#2B331D}
    .fil23 {fill:#2D0F2F}
    .fil11 {fill:#2F2E25}
    .fil25 {fill:#353A25}
    .fil20 {fill:#371A37}
    .fil9 {fill:#3B2439}
    .fil7 {fill:#483231}
    .fil24 {fill:#492648}
    .fil14 {fill:#4B5534}
    .fil10 {fill:#525D38}
    .fil15 {fill:#6B4667}
    .fil12 {fill:#733470}
    .fil13 {fill:#873985}
    .fil4 {fill:#913591}
    .fil17 {fill:#B9683B}
    .fil16 {fill:#D777D3}
    .fil1 {fill:#E271DD}
    .fil6 {fill:#E274E1}
    .fil2 {fill:#F87326}
   ]]>
  </style>
 </defs>
 <g id="Capa_x0020_1">
  <metadata id="CorelCorpID_0Corel-Layer"/>
  <path class="fil0" d="M4.6776 1.4889l0.1631 0.0468 -0.4388 0.6102 -0.1814 -0.1159 -0.0611 0.3505c-0.2392,-0.5958 -0.3414,-0.6632 -0.1411,-0.8165 -0.2848,-0.111 -0.4716,-0.077 -0.6566,0.1849 0.0811,0.0586 0.0465,0.0433 0.2015,0.0691 0.0096,0.0016 0.1524,0.0042 0.1972,0.0093l0.1146 1.0332 -0.0825 0.0113c0.1475,0.1796 0.0828,-0.1721 0.1461,0.2506 0.039,0.26 -0.1746,0.1609 -0.2769,0.2125 -0.0493,0.5762 -0.0096,0.2268 0.0593,0.666l0.1519 0.064 0.1598 -0.1507c0.0393,0.598 0.264,2.0716 0.024,2.5616 -0.1076,0.2196 -0.189,0.4289 -0.0808,0.6209l0.1849 -0.5547 0.1192 0.5803 0.0771 0 0.101 -0.931 -0.1645 -0.0533 -0.0064 -0.4599 0.4554 0.2048c0.2512,0.2531 0.1836,0.87 0.1746,1.0964l0.4549 -0.0708c0.248,-0.1098 1.7812,-1.3216 2.2349,-1.6253 0.5796,-0.3881 1.7933,-1.3082 2.4176,-1.5084l0.2732 1.7882c-0.0843,0.5894 -0.4823,1.1072 -0.5321,1.4293 0.2487,0.4518 -0.0625,0.325 0.2005,0.7111 0.0537,-0.1881 0.034,-0.2205 0.1168,-0.2823l0.1363 0.3112c0.3397,-0.0156 0.3825,-0.2098 0.6928,-0.2316l-0.4077 1.1716c-0.2843,0.6753 -0.1172,0.453 -0.6943,0.8564l0.168 0.2085 -0.6571 1.1507c-0.1873,0.2581 -0.6769,0.7608 -0.7587,0.9321 -0.1107,0.162 0.01,0.044 -0.1712,0.1944 -0.1267,0.105 -0.0619,0.0819 -0.2345,0.1055 -0.0468,0.3145 -0.6859,1.436 -0.9127,1.7035l0.0643 0.0705 1.0609 0.1289 0.2072 1.1267c0.1061,0.6423 -0.2596,0.512 -0.2293,0.9346l0.5967 0.0111 0.0456 0.5316 0.1475 0.0549 0.3838 -0.3402 0.5034 0.177c0.317,-0.4212 0.0597,-0.4379 0.5617,-0.8192 0.386,-0.2931 0.3974,-0.3481 0.6994,-0.7195 0.549,-0.6748 0.6599,-1.0874 0.9831,-1.8568l-0.2637 0.9503c0.6437,-0.1449 2.0462,-1.8134 2.0882,-2.5109 -0.1853,-0.1833 0.0475,-0.0749 -0.2513,-0.0996 -0.0287,-0.5035 -0.0974,-0.536 0.0787,-0.7361l-0.2574 0.0441 0.0948 -0.1721c-0.9557,0.2303 -0.6595,0.2478 -1.3938,0.0832l-0.018 -0.2245c0.0231,-0.1038 0.1286,-0.0611 0.1407,-0.0627l-0.0624 -0.2138c-0.148,-0.3455 -0.5049,-0.4956 -0.707,-1.216 -0.1645,-0.5858 -0.1429,-1.1068 -0.0802,-1.7069 0.0912,-0.8716 0.0982,-2.3887 0.9288,-2.8487 0.146,-0.1159 -0.1359,-0.1133 0.2185,-0.1147l0.0289 -0.3075c-0.0238,-0.432 -0.3304,-0.6208 -0.0061,-1.0204 0.2807,-0.0268 0.3703,0.0254 0.5817,0.2131 -0.0829,-0.2632 -0.3289,-0.2558 -0.597,-0.3l0.0529 -0.8225 -3.1089 0.3983 -0.2835 -0.43 -1.5532 0.4677 -0.2707 -0.4414 -0.7301 0.2038 -0.355 -0.5609c0.6014,-0.3278 0.7792,-0.293 0.6465,-0.3758l-0.7119 0.3088 -0.4954 -0.6187 0.0946 -0.1276 -0.2513 0.0296 -0.1798 -0.1948c-0.4334,0.2258 -0.3859,0.4936 -0.9682,0.7726z"/>
  <path class="fil1" d="M14.42 10.1868c-0.2054,-0.1064 -0.0831,0.0483 -0.1265,-0.1901l0.1265 0.1901zm-1.687 -2.0023l0.0475 -0.3402c0.0976,0.2104 0.0875,1.2021 0.0889,1.4996 -0.1733,-0.3693 -0.1709,-0.7421 -0.1364,-1.1594zm1.3922 -0.3161c-0.0353,-0.2972 0.0093,-0.7833 0.1392,-0.9954 0.0168,0.278 -0.0183,0.7956 -0.1392,0.9954zm0.1316 1.9126l0.2938 -3.3765c0.036,0.4755 -0.306,1.7807 -0.2107,2.9144 0.0256,0.3052 0.0865,0.2414 -0.0831,0.4621zm-0.6168 -3.0188c-0.0215,-0.3721 0.0221,-0.9054 0.1935,-1.2009 0.0072,0.3417 -0.0141,0.9688 -0.1935,1.2009zm1.4855 -0.9043l0.0794 -0.3722c0.0953,0.307 0.141,0.5081 0.1142,0.8166l-0.1936 -0.4444zm0 0l-0.1635 -0.0001 -0.2722 0.1991c0.0259,-0.2326 0.2954,-0.4969 0.4357,-0.199zm-0.8597 0.9438c-0.0266,-0.5026 0.2318,-1.3734 0.8822,-1.1615 -0.2525,0.0452 -0.3879,-0.0286 -0.5968,0.341 -0.162,0.2865 -0.1271,0.5804 -0.2854,0.8205zm-0.4186 -1.2799c0.0069,-0.1398 -0.0254,-0.0945 0.0244,-0.2759 0.096,-0.349 0.0323,-0.084 0.1173,-0.1935l-0.1417 0.4694zm-7.4155 -4.7367l-0.3548 0.0964 -0.0946 0.1276 0.4954 0.6187 0.7119 -0.3088c0.602,-0.7743 4.037,-0.7028 5.403,-0.2735 0.2225,0.0699 0.548,0.2002 0.7687,0.2949 0.3988,0.1709 0.5956,0.2612 0.5599,0.428 0.2295,0.1844 0.3732,0.2623 0.4843,0.5369 0.3216,0.2106 0.3325,0.7278 0.0368,1.0535l0.4459 0.2978c0.1189,0.0874 0.0756,0.0102 0.1195,0.1971l0.1684 1.619 -0.3341 -0.4578c-0.1093,-0.0049 -0.1234,0.0394 -0.2546,-0.0359 -0.2234,-0.128 -0.0639,-0.0379 -0.1256,-0.207 -0.2788,-0.034 -0.1823,-0.0849 -0.4022,0.0929l-0.0669 -0.2848 -0.9676 -0.1722c-0.1982,0.5024 -0.3233,1.7171 -0.2277,2.2124 0.2697,0.1923 0.5246,0.1362 0.8426,0.1419 -0.1537,0.169 -0.262,0.0958 -0.6134,0.1109l-0.1686 0.5153c-0.0862,-0.6184 -0.0671,-0.364 -0.1603,-0.7443 -0.1349,-0.5515 0.1599,-1.8419 0.1871,-2.2077l-0.3192 -0.0271c-0.8306,0.46 -0.8376,1.9771 -0.9288,2.8487 -0.0627,0.6001 -0.0843,1.1211 0.0802,1.7069 0.2021,0.7204 0.559,0.8705 0.707,1.216l0.5465 0.1781 -0.0384 -0.5355 0.4163 0.6182c0.3378,0.0128 0.9045,0.0491 1.0716,-0.2549l0.2099 -0.0999 0.0635 -0.0963c0.3504,-0.2911 0.2852,-0.687 0.4826,-0.9628 -0.0193,-0.3597 0.095,-0.8322 0.1262,-1.2122 0.0384,-0.4698 -0.0167,-0.9535 0.0286,-1.4144 0.1704,0.2492 0.0615,0.3861 0.2658,0.5109 0.1029,-0.2189 0.061,-0.1803 0.2441,-0.3225l0.0404 0.03c-0.0684,-0.2208 -0.0089,-0.6196 -0.0114,-0.9156 -0.0033,-0.3756 -0.0423,-0.5714 -0.0651,-0.922 -0.0349,-0.5375 -0.147,-1.3584 -0.1353,-1.8521l-0.2427 -0.7331c-0.2019,-0.1277 -0.1258,-0.0467 -0.2613,-0.2919l-0.3686 -0.3361 -0.0233 -0.0058 -0.2234 -0.1848 -0.2402 -0.1545 -0.5671 -0.2189c-1.3329,-0.3694 -2.19,-0.5279 -3.5861,-0.6482 -0.6491,-0.056 -1.3606,-0.0054 -2.0021,0.0602 -0.6544,0.0669 -1.1272,0.2561 -1.7228,0.3683z"/>
  <path class="fil2" d="M8.6751 7.0832c-0.0453,-0.0777 -0.1875,-0.1373 -0.0025,-0.6485l0.2768 -0.5931c0.1788,0.3092 -0.0935,0.9425 -0.2743,1.2416zm-3.303 -0.1747l-0.6874 0.6291c0.3616,1.1432 1.59,1.4075 2.6715,1.106 1.6526,-0.4605 2.1215,-1.4795 2.4095,-1.6513 0.0498,-0.3221 0.4478,-0.8399 0.5321,-1.4293l-0.2732 -1.7882c-0.6243,0.2002 -1.838,1.1203 -2.4176,1.5084 -0.4537,0.3037 -1.9869,1.5155 -2.2349,1.6253z"/>
  <path class="fil3" d="M3.7073 10.1118l-0.2633 0.0452c-0.28,-0.7492 -0.5761,-1.5405 -0.5836,-2.3619l0.8194 0.5575 0.2728 1.6277 -0.2453 0.1315zm-0.8357 -6.7433c0.469,0.2224 0.3639,0.1976 0.5836,0.1101 -0.2033,0.6627 -0.9193,1.2962 -1.1626,3.2882 -0.1236,1.012 0.0018,2.0865 0.3668,3.0288 0.1007,0.2602 0.2803,0.5608 0.335,0.7972l0.7129 -0.481c0.8836,-0.242 1.3445,-0.4164 2.3249,-0.2856l0.0417 0.3447c1.3461,-0.8469 0.8636,-0.6244 3.012,-0.8253l-0.9805 -0.0484 0.1201 -0.3414c-0.3506,0.4902 -0.1582,0.3498 -0.8118,0.4772 -0.3702,0.0722 -0.7765,0.3491 -0.9478,0.3766 -0.0194,0.0032 -1.1327,-0.0477 -1.2685,-0.0522l-1.2023 0.1329 -0.1809 -1.4621c0.6434,0.4058 1.3909,0.6664 2.1624,0.7029 1.2206,0.0579 1.2703,-0.3121 2.374,-0.3347 0.3868,-0.6028 1.4343,-0.5388 1.8687,-1.0641l-0.1363 -0.3112c-0.0828,0.0618 -0.0631,0.0942 -0.1168,0.2823 -0.263,-0.3861 0.0482,-0.2593 -0.2005,-0.7111 -0.288,0.1718 -0.7569,1.1908 -2.4095,1.6513 -1.0815,0.3015 -2.3099,0.0372 -2.6715,-1.106l0.6874 -0.6291 -0.4549 0.0708c0.009,-0.2264 0.0766,-0.8433 -0.1746,-1.0964l-0.4554 -0.2048 0.0064 0.4599 0.1645 0.0533 0.0718 -0.0402c0.0468,0.2687 0.0091,0.9509 -0.1155,1.158l-0.0573 -0.1868 -0.0771 0c-0.0294,0.3745 0.0056,0.2354 -0.5683,0.7866 -0.9472,-2.9088 -0.7075,-1.5358 0.1612,-3.844l-0.1519 -0.064c-0.0689,-0.4392 -0.1086,-0.0898 -0.0593,-0.666 0.1023,-0.0516 0.3159,0.0475 0.2769,-0.2125 -0.0633,-0.4227 0.0014,-0.071 -0.1461,-0.2506l-0.3396 -0.7061 0.0932 -0.0522 0.0803 -0.0827 -0.5394 0.0443 0.0403 -0.2145c-0.3698,0.322 -0.2008,1.009 -0.0728,1.4597l-0.1829 0.0482z"/>
  <path class="fil4" d="M7.1896 1.319c0.1327,0.0828 -0.0451,0.048 -0.6465,0.3758l0.355 0.5609 0.7301 -0.2038 0.2707 0.4414 1.5532 -0.4677 0.2835 0.43 3.1089 -0.3983 -0.0529 0.8225c0.2681,0.0442 0.5141,0.0368 0.597,0.3l0.1275 0.2637c0.3135,-0.0548 0.7141,-0.0673 0.95,-0.23 0.1443,-0.4952 0.0151,-0.5136 -0.0606,-0.9082 -0.2217,-0.0988 -0.0709,-0.0424 -0.2654,-0.227 -0.29,-0.2755 -0.1594,0.003 -0.2189,-0.3099 0.0357,-0.1668 -0.1611,-0.2571 -0.5599,-0.428 -0.2207,-0.0947 -0.5462,-0.225 -0.7687,-0.2949 -1.366,-0.4293 -4.801,-0.5008 -5.403,0.2735z"/>
  <path class="fil5" d="M14.42 10.1868c-0.1671,0.304 -0.7338,0.2677 -1.0716,0.2549l-0.4163 -0.6182 0.0384 0.5355 -0.5465 -0.1781 0.0624 0.2138c-0.0121,0.0016 -0.1176,-0.0411 -0.1407,0.0627l0.018 0.2245c0.7343,0.1646 0.4381,0.1471 1.3938,-0.0832l-0.0948 0.1721 0.2574 -0.0441c-0.1761,0.2001 -0.1074,0.2326 -0.0787,0.7361 0.2988,0.0247 0.066,-0.0837 0.2513,0.0996l0.2611 -0.5448c0.1742,0.3854 -0.5351,1.4287 -0.821,1.8177 -0.4938,0.672 -0.7833,0.8507 -1.4055,1.363 0.63,0.3791 1.5694,-0.2724 2.0105,-0.6868l1.1212 -1.6958 0.2886 0.2621 0.0363 -0.4585c0.1687,0.0244 0.0785,0.032 0.2669,-0.0151 -0.2151,-1.3902 -0.5949,-2.1529 -0.6748,-2.5764 -0.1974,0.2758 -0.1322,0.6717 -0.4826,0.9628l-0.0635 0.0963 -0.2099 0.0999z"/>
  <path class="fil4" d="M2.3529 3.5883c-0.0554,0.2085 -0.1148,0.2932 -0.272,0.4147l-0.3339 0.7974 0.1234 0.2072c0.0389,0.0119 0.3866,0.1476 0.4084,0.057 0.0021,-0.0084 0.0162,-0.003 0.024,-0.0011 -0.3903,0.3246 -0.0286,0.0034 -0.4028,0.1935 -0.2883,1.4051 -0.6601,2.2593 -0.2513,3.365 0.1697,0.4589 0.2595,0.4435 0.7091,0.5651l0.6366 1.4057c-0.0547,-0.2364 -0.2343,-0.537 -0.335,-0.7972 -0.365,-0.9423 -0.4904,-2.0168 -0.3668,-3.0288 0.2433,-1.992 0.9593,-2.6255 1.1626,-3.2882 -0.2197,0.0875 -0.1146,0.1123 -0.5836,-0.1101l-0.2324 0.0124c-0.2464,0.1557 -0.0119,0.0854 -0.2863,0.2074z"/>
  <path class="fil3" d="M0.7031 5.8334c-0.1996,1.6004 0.0002,1.1993 -0.7032,1.8579l0.3811 0.2935 -0.1686 0.7356 0.6134 0.0228 0.2715 0.5917 0.3915 -0.0745c0.0093,0.4516 -0.0526,0.9414 0.2529,1.3178 0.1617,0.1992 0.611,0.4716 0.8599,0.6428l0.3928 -0.6282 -0.6366 -1.4057c-0.4496,-0.1216 -0.5394,-0.1062 -0.7091,-0.5651 -0.4088,-1.1057 -0.037,-1.9599 0.2513,-3.365 0.3742,-0.1901 0.0125,0.1311 0.4028,-0.1935 -0.0078,-0.0019 -0.0219,-0.0073 -0.024,0.0011 -0.0218,0.0906 -0.3695,-0.0451 -0.4084,-0.057 -0.0564,0.5151 -0.387,1.0737 -0.4767,1.6927 -0.1221,0.8428 0.1155,1.3375 0.0921,2.0347l-0.781 -1.0711c-0.1765,-0.8002 0.0733,-1.2226 -0.0017,-1.8305z"/>
  <path class="fil4" d="M1.6435 3.6175c-0.071,0.2329 -0.0776,0.2428 -0.3023,0.3158 -0.3057,0.2181 -0.6184,1.4715 -0.6381,1.9001 0.075,0.6079 -0.1748,1.0303 0.0017,1.8305l0.781 1.0711c0.0234,-0.6972 -0.2142,-1.1919 -0.0921,-2.0347 0.0897,-0.619 0.4203,-1.1776 0.4767,-1.6927l-0.1947 -0.0801c-0.024,-0.3215 0.184,-0.7389 0.4052,-0.9245 0.0317,-0.1973 0.1134,-0.334 0.272,-0.4147l-0.0026 -0.1621c-0.5054,0.0505 -0.1591,0.025 -0.3399,-0.0643 -0.166,0.1232 -0.2343,0.0637 -0.3669,0.2556z"/>
  <path class="fil0" d="M15.176 9.0278c0.4149,0.5002 0.4731,1.4625 0.7108,1.6942l0.0823 -0.2702c0.1695,-0.5262 0.2581,-1.0956 0.4503,-1.6725l0.5138 -1.6397 -0.6758 0.3423 -0.4475 -0.3787 -0.3916 0.3021c-0.0518,-0.508 0.0345,-0.1564 0.1783,-0.4932 -0.2043,-0.1248 -0.0954,-0.2617 -0.2658,-0.5109 -0.0453,0.4609 0.0098,0.9446 -0.0286,1.4144 -0.0312,0.38 -0.1455,0.8525 -0.1262,1.2122z"/>
  <path class="fil2" d="M3.8729 4.0649c-0.8687,2.3082 -1.1084,0.9352 -0.1612,3.844 0.5739,-0.5512 0.5389,-0.4121 0.5683,-0.7866l-0.1192 -0.5803 -0.1849 0.5547c-0.1082,-0.192 -0.0268,-0.4013 0.0808,-0.6209 0.24,-0.49 0.0153,-1.9636 -0.024,-2.5616l-0.1598 0.1507z"/>
  <path class="fil6" d="M13.4822 3.8521l-0.1165 0.4181c0.1506,0.1716 0.0646,0.0969 0.2613,0.1562 0.0413,0.0125 0.1022,0.0159 0.1688,0.0407l0.1969 0.113 0.3887 0.0822 0.0582 -1.014c-0.6268,-0.2652 -0.6133,-0.1667 -0.9574,0.2038z"/>
  <path class="fil7" d="M6.4317 0.7851c0.5956,-0.1122 1.0684,-0.3014 1.7228,-0.3683 0.6415,-0.0656 1.353,-0.1162 2.0021,-0.0602 1.3961,0.1203 2.2532,0.2788 3.5861,0.6482 -0.0776,-0.1293 -0.1202,-0.1508 -0.383,-0.221 -0.1296,-0.0346 -0.2553,-0.0626 -0.3863,-0.0983 -0.2969,-0.0811 -0.5698,-0.1376 -0.8723,-0.191 -1.768,-0.3121 -3.4842,-0.3605 -5.2224,0.0758 -0.4308,0.1081 -0.3031,0.0739 -0.447,0.2148z"/>
  <path class="fil8" d="M13.5161 3.4435l-0.0339 0.4086c0.3441,-0.3705 0.3306,-0.469 0.9574,-0.2038l-0.0582 1.014 -0.3887 -0.0822 0.0669 0.2848c0.2199,-0.1778 0.1234,-0.1269 0.4022,-0.0929 0.1219,-0.5853 -0.0778,-0.5482 0.1364,-1.2169 0.1163,0.2314 0.0771,0.219 0.0775,0.5011l0.069 -0.0953 0.0364 -0.2475 0.1071 -0.0568 -0.4459 -0.2978c0.2957,-0.3257 0.2848,-0.8429 -0.0368,-1.0535 0.0757,0.3946 0.2049,0.413 0.0606,0.9082 -0.2359,0.1627 -0.6365,0.1752 -0.95,0.23z"/>
  <path class="fil9" d="M12.5656 4.4093l0.3192 0.0271c-0.0272,0.3658 -0.322,1.6562 -0.1871,2.2077 0.0932,0.3803 0.0741,0.1259 0.1603,0.7443l0.1686 -0.5153c0.3514,-0.0151 0.4597,0.0581 0.6134,-0.1109 -0.318,-0.0057 -0.5729,0.0504 -0.8426,-0.1419 -0.0956,-0.4953 0.0295,-1.71 0.2277,-2.2124l0.9676 0.1722 -0.1969 -0.113c-0.0666,-0.0248 -0.1275,-0.0282 -0.1688,-0.0407 -0.1967,-0.0593 -0.1107,0.0154 -0.2613,-0.1562l-0.3867 0.0769c-0.1657,-0.2504 -0.0057,-0.0038 -0.1141,-0.2519 -0.0673,-0.154 0.0166,-0.0263 -0.0519,-0.1081l-0.0289 0.3075c-0.3544,0.0014 -0.0725,-0.0012 -0.2185,0.1147z"/>
  <path class="fil10" d="M7.0486 14.1204c-0.3627,0.0668 -0.1413,0.1253 -0.4624,0.3409 -1.0769,0.7228 -2.5668,0.1085 -3.2365,-0.6012 -0.204,-0.2161 -0.1144,-0.3522 -0.368,-0.391 0.4912,1.303 3.4282,2.0862 4.0669,0.6513z"/>
  <path class="fil11" d="M15.8811 6.6196c0.1559,-0.7842 0.0949,-1.1256 0.0259,-1.9013 -0.041,-0.4615 -0.0099,-1.4596 -0.2377,-1.7884 -0.0117,0.4937 0.1004,1.3146 0.1353,1.8521 0.0228,0.3506 0.0618,0.5464 0.0651,0.922 0.0025,0.296 -0.057,0.6948 0.0114,0.9156z"/>
  <path class="fil12" d="M4.0183 1.564c-0.2003,0.1533 -0.0981,0.2207 0.1411,0.8165l0.0611 -0.3505 0.1814 0.1159 0.4388 -0.6102 -0.1631 -0.0468c-0.1968,0.0396 -0.3361,0.1247 -0.4732,0.2726 -0.16,-0.2984 0.0038,-0.0953 -0.1861,-0.1975z"/>
  <path class="fil13" d="M3.1273 1.8606l-0.0403 0.2145 0.5394 -0.0443 -0.0803 0.0827 -0.0932 0.0522 0.3396 0.7061 0.0825 -0.0113 -0.1146 -1.0332c-0.0448,-0.0051 -0.1876,-0.0077 -0.1972,-0.0093 -0.155,-0.0258 -0.1204,-0.0105 -0.2015,-0.0691 -0.2436,0.0422 -0.1037,-0.0047 -0.2344,0.1117z"/>
  <path class="fil7" d="M8.6751 7.0832c0.1808,-0.2991 0.4531,-0.9324 0.2743,-1.2416l-0.2768 0.5931c-0.185,0.5112 -0.0428,0.5708 0.0025,0.6485z"/>
  <path class="fil9" d="M14.842 5.0149l0.3341 0.4578 -0.1684 -1.619c-0.0439,-0.1869 -0.0006,-0.1097 -0.1195,-0.1971 -0.0056,0.0912 0.0846,1.1844 0.1058,1.2915l-0.152 0.0668z"/>
  <path class="fil14" d="M2.7281 12.9497c-0.0275,-0.5695 -0.139,-0.2571 -0.1368,-1.6968 -0.0112,0.0146 -0.1217,-0.0051 -0.141,0.4124 -0.0073,0.1566 -0.0009,0.3083 0.0102,0.4636 0.0142,0.2001 0.0209,0.2106 0.0696,0.4069 0.0865,0.3489 0.0515,0.2624 0.198,0.4139z"/>
  <path class="fil6" d="M14.4618 4.772l0.2711 0.0281 -0.0572 -0.7439c-0.0004,-0.2821 0.0388,-0.2697 -0.0775,-0.5011 -0.2142,0.6687 -0.0145,0.6316 -0.1364,1.2169z"/>
  <path class="fil15" d="M14.6757 4.0562l0.0572 0.7439 -0.2711 -0.0281c0.0617,0.1691 -0.0978,0.079 0.1256,0.207 0.1312,0.0753 0.1453,0.031 0.2546,0.0359 -0.0084,-0.3142 0.0445,-0.8009 -0.0973,-1.054l-0.069 0.0953z"/>
  <path class="fil16" d="M14.7447 3.9609c0.1418,0.2531 0.0889,0.7398 0.0973,1.054l0.152 -0.0668c-0.0212,-0.1071 -0.1114,-1.2003 -0.1058,-1.2915l-0.1071 0.0568 -0.0364 0.2475z"/>
  <path class="fil15" d="M12.733 8.1845c-0.0345,0.4173 -0.0369,0.7901 0.1364,1.1594 -0.0014,-0.2975 0.0087,-1.2892 -0.0889,-1.4996l-0.0475 0.3402z"/>
  <path class="fil10" d="M8.1566 12.1199c0.1726,-0.0236 0.1078,-0.0005 0.2345,-0.1055 0.1812,-0.1504 0.0605,-0.0324 0.1712,-0.1944 -0.0569,-0.0688 -0.0612,-0.0468 -0.1113,-0.1512 -0.043,-0.0899 -0.0496,-0.1439 -0.0763,-0.2403 -0.1665,0.2102 -0.1226,0.4014 -0.2181,0.6914z"/>
  <path class="fil9" d="M14.2658 6.8017c0.1583,-0.2401 0.1234,-0.534 0.2854,-0.8205 0.2089,-0.3696 0.3443,-0.2958 0.5968,-0.341 -0.6504,-0.2119 -0.9088,0.6589 -0.8822,1.1615z"/>
  <path class="fil17" d="M4.3571 7.1223l0.0573 0.1868c0.1246,-0.2071 0.1623,-0.8893 0.1155,-1.158l-0.0718 0.0402 -0.101 0.931z"/>
  <path class="fil18" d="M13.64 6.7622c0.1794,-0.2321 0.2007,-0.8592 0.1935,-1.2009 -0.1714,0.2955 -0.215,0.8288 -0.1935,1.2009z"/>
  <path class="fil11" d="M2.0104 3.3619c0.1808,0.0893 -0.1655,0.1148 0.3399,0.0643l0.0026 0.1621c0.2744,-0.122 0.0399,-0.0517 0.2863,-0.2074l0.2324 -0.0124c-0.2761,-0.1352 -0.5494,-0.0632 -0.8612,-0.0066z"/>
  <path class="fil19" d="M1.8704 5.0076l-0.1234 -0.2072 0.3339 -0.7974c-0.2212,0.1856 -0.4292,0.603 -0.4052,0.9245l0.1947 0.0801z"/>
  <path class="fil8" d="M14.1252 7.8684c0.1209,-0.1998 0.156,-0.7174 0.1392,-0.9954 -0.1299,0.2121 -0.1745,0.6982 -0.1392,0.9954z"/>
  <path class="fil3" d="M15.1255 5.8579l0.1936 0.4444c0.0268,-0.3085 -0.0189,-0.5096 -0.1142,-0.8166l-0.0794 0.3722z"/>
  <path class="fil8" d="M14.4055 2.3053c-0.1111,-0.2746 -0.2548,-0.3525 -0.4843,-0.5369 0.0595,0.3129 -0.0711,0.0344 0.2189,0.3099 0.1945,0.1846 0.0437,0.1282 0.2654,0.227z"/>
  <path class="fil20" d="M15.1255 5.8579c-0.1403,-0.2979 -0.4098,-0.0336 -0.4357,0.199l0.2722 -0.1991 0.1635 0.0001z"/>
  <path class="fil18" d="M2.0809 4.003c0.1572,-0.1215 0.2166,-0.2062 0.272,-0.4147 -0.1586,0.0807 -0.2403,0.2174 -0.272,0.4147z"/>
  <path class="fil10" d="M7.0486 14.1204c0.1811,-0.0628 0.1512,-0.0516 0.2596,-0.2265l-0.0643 -0.0705c-0.154,0.1335 -0.104,0.0851 -0.1953,0.297z"/>
  <path class="fil8" d="M1.3412 3.9333c0.2247,-0.073 0.2313,-0.0829 0.3023,-0.3158l-0.3023 0.3158z"/>
  <path class="fil21" d="M2.9817 13.4691l-0.2536 -0.5194c0.0183,0.2045 0.1066,0.3911 0.2536,0.5194z"/>
  <path class="fil20" d="M15.4266 2.1968c-0.1219,-0.2168 -0.0753,-0.1998 -0.2613,-0.2919 0.1355,0.2452 0.0594,0.1642 0.2613,0.2919z"/>
  <path class="fil8" d="M13.8472 5.5218l0.1417 -0.4694c-0.085,0.1095 -0.0213,-0.1555 -0.1173,0.1935 -0.0498,0.1814 -0.0175,0.1361 -0.0244,0.2759z"/>
  <path class="fil8" d="M15.5966 6.9121c0.1853,-0.1179 0.1395,-0.0949 0.2441,-0.3225 -0.1831,0.1422 -0.1412,0.1036 -0.2441,0.3225z"/>
  <path class="fil9" d="M15.1653 1.9049c-0.0863,-0.2066 -0.1433,-0.2114 -0.3686,-0.3361l0.3686 0.3361z"/>
  <path class="fil22" d="M5.1781 11.1303l0.235 -0.3211c-0.0945,0.0566 -0.0439,-0.0212 -0.126,0.0896 -0.08,0.1081 -0.0609,0.1133 -0.109,0.2315z"/>
  <path class="fil8" d="M14.7734 1.563c-0.1178,-0.1897 0.0277,-0.1056 -0.2234,-0.1848l0.2234 0.1848z"/>
  <path class="fil23" d="M14.42 10.1868l-0.1265 -0.1901c0.0434,0.2384 -0.0789,0.0837 0.1265,0.1901z"/>
  <path class="fil24" d="M14.2568 9.781c0.1696,-0.2207 0.1087,-0.1569 0.0831,-0.4621 -0.0953,-1.1337 0.2467,-2.4389 0.2107,-2.9144l-0.2938 3.3765z"/>
  <polygon class="fil25" points="6.0739,10.1709 5.8493,10.4051 "/>
  <polygon class="fil26" points="14.55,1.3782 14.3098,1.2237 "/>
 </g>
</svg>
