<?xml version="1.0" encoding="UTF-8"?>
<!DOCTYPE svg PUBLIC "-//W3C//DTD SVG 1.1//EN" "http://www.w3.org/Graphics/SVG/1.1/DTD/svg11.dtd">
<!-- Creator: CorelDRAW -->
<svg xmlns="http://www.w3.org/2000/svg" xml:space="preserve" width="16.9332mm" height="16.9332mm" style="shape-rendering:geometricPrecision; text-rendering:geometricPrecision; image-rendering:optimizeQuality; fill-rule:evenodd; clip-rule:evenodd"
viewBox="0 0 16.9332 16.9332"
 xmlns:xlink="http://www.w3.org/1999/xlink">
 <defs>
  <style type="text/css">
   <![CDATA[
    .fil0 {fill:#010201}
    .fil2 {fill:#060506}
    .fil23 {fill:#281528}
    .fil25 {fill:#2F2E25}
    .fil22 {fill:#353A25}
    .fil19 {fill:#3B2439}
    .fil10 {fill:#3E1A41}
    .fil17 {fill:#483231}
    .fil13 {fill:#492648}
    .fil20 {fill:#51334C}
    .fil5 {fill:#572956}
    .fil12 {fill:#5C6942}
    .fil6 {fill:#61325E}
    .fil14 {fill:#664E58}
    .fil21 {fill:#697748}
    .fil11 {fill:#6B4667}
    .fil8 {fill:#8A5688}
    .fil4 {fill:#8D338B}
    .fil16 {fill:#905835}
    .fil3 {fill:#943392}
    .fil24 {fill:#A5BA73}
    .fil18 {fill:#A8643C}
    .fil15 {fill:#C2E56A}
    .fil9 {fill:#E175DE}
    .fil1 {fill:#E274E1}
    .fil7 {fill:#F5752B}
   ]]>
  </style>
 </defs>
 <g id="Capa_x0020_1">
  <metadata id="CorelCorpID_0Corel-Layer"/>
  <path class="fil0" d="M8.2849 11.8749l0.1548 -0.8833c0.0889,0.2047 0.0569,0.8022 -0.1548,0.8833zm-1.8319 -1.3458l-0.2369 -0.2725 0.0346 -0.1437 0.2363 0.2698 0.5148 -0.2387 0.0919 0.636 0.5779 0.2847 -0.5003 0.3844c0.0612,-0.1687 -0.0883,-0.033 0.3616,-0.3375l-0.5524 -0.2179 -0.1189 -0.6447 -0.4086 0.2801zm-2.6292 -0.425c0.3318,-0.7767 1.7885,-1.1487 2.6218,-0.9518l1.9746 1.6681c-0.1886,-0.073 -0.2284,-0.312 -0.3527,-0.4811 -0.6438,-0.8755 -1.9718,-1.4202 -3.147,-0.9433 -0.5599,0.2272 -0.6941,0.4584 -1.0967,0.7081zm-1.3006 -8.2086l0.0694 0.258 -0.3082 0.4323c0.0777,0.2626 0.2042,0.0138 0.0809,0.8368l-0.1326 0.9349c-1.0813,0.5136 -2.3748,1.435 -2.2201,2.8184 0.0266,0.2372 0.1061,0.4599 0.1914,0.6781 0.1341,0.6809 -0.3136,0.658 0.8056,1.5995l0.6051 -0.0557c0.1857,0.3091 0.3464,0.6192 0.5458,0.9337 0.362,0.5711 1.0494,2.2155 1.7251,2.916l3.3337 2.7587c0.7836,-1.8072 0.0617,-0.953 1.5586,-2.3545 0.6561,0.7548 0.4427,0.3654 0.7785,1.4706l0.4233 -0.2475 0.239 0.254c0.255,-0.1104 0.1485,-0.1897 0.5094,-0.1829 0.0172,0.0004 1.58,0.4645 2.0458,0.1923 -0.7208,0.0296 -1.3783,0.0545 -2.0338,-0.287l0.1022 -0.6574 -0.1013 0.0071c-0.0338,-0.7903 0.0151,-0.1909 -0.1138,-0.8053 -0.2287,-1.0905 0.0561,-1.5737 0.5794,-2.3753 -0.1656,-0.0007 0.028,-0.1675 -0.3868,0.1716 0.4484,-0.554 0.107,-0.3532 0.1846,-0.8729 0.0142,-0.0945 0.0884,-0.1753 0.0998,-0.2047 0.0672,-0.1721 0.0419,-0.1546 -0.055,-0.3418 -0.0639,0.0713 -0.336,0.0261 -0.6767,0.5025l-0.6686 0.6835c-0.0865,-0.5917 0.2274,-0.4108 0.4235,-0.7974 0.1257,-0.2478 -0.0478,-0.5343 0.2366,-0.7915l-1.7872 -0.0925c-0.0223,-0.0117 -0.0439,-0.0307 -0.0636,-0.0486l-0.6582 -0.1285 -0.2632 -0.0997c-0.8315,-0.2486 -1.8948,-1.0286 -2.1197,-1.8745l0.1995 -0.452 -0.266 0.3482c-0.4316,-0.8036 -0.403,-2.6248 0.0554,-3.4552l0.8277 0.8513 0.1719 -0.229c0.1936,0.3353 0.0884,-0.0489 0.2471,0.5968 0.3894,-0.3006 0.0753,0.0104 0.2212,-0.4582 -0.0819,-0.4237 -0.4447,-0.5051 -0.373,-1.1651 0.5916,0.1606 1.1223,1.2178 1.4047,1.7677 0.3314,-0.1622 0.3784,-0.003 0.7293,-0.1963l0.1296 -0.0339c-0.0207,0.38 -0.1303,0.1811 -0.1944,0.5225l0.1082 0.3177c0.3522,-0.332 -0.0512,-0.2682 1.0202,-0.5113l-0.1921 0.1447 0.1392 0.2516 -0.2077 0.2022 0.157 0.6063 0.2419 -0.1312 0.2668 0.3231 -0.0442 0.1949c0.1697,0.0493 0.0312,-0.0155 0.1464,0.1448 0.0831,0.1492 1.7316,0.8331 2.0193,1.4799l0.2259 0.0465 0.1112 0.6343c0.0037,0.0106 0.0066,0.0336 0.0097,0.0443l0.0293 0.1114 0.2345 -0.2851c0.4574,-0.0034 -0.0071,0.1255 0.4817,0.014 0.1054,0.552 0.2666,0.2922 0.5196,0.6064l0.4936 0.2342 0.0913 -0.1573 1.1314 -2.735 -2.1081 -0.5736 0.0566 -0.6572 -1.5295 -0.4188 0.4749 -0.8835 -0.1717 -0.1191 -0.2805 -0.0451c0.0895,-0.1864 -0.0893,-0.0798 0.2345,-0.1977l1.2351 -0.251 -0.366 -0.5093c0.4364,-0.0634 1.0317,0.2169 1.4114,0.4639 0.496,0.3229 0.6011,0.5251 0.9191,1.0201 -0.1194,-0.7661 -1.4638,-1.4509 -2.154,-1.5698 -0.4824,-0.083 -0.2987,-0.0019 -0.7079,-0.2535 -0.8613,-0.5296 -1.5725,-0.3931 -1.9248,-0.7936l-0.2113 0.0973c-0.3257,-0.1858 -1.8976,-0.4098 -2.3131,-0.4312l-0.3707 -0.0797c-0.3856,0.1956 -1.2604,0.2587 -1.7808,0.4237 -0.2919,0.0926 -1.307,0.6661 -1.4805,0.4301l-0.2096 -0.1464 -0.1724 -0.207c-0.563,-0.2578 -0.7412,-0.7174 -0.8363,-0.8494l-0.3929 0.5526 -0.3612 0.0346 -0.0454 0.1001z"/>
  <path class="fil1" d="M11.4575 11.029c0.1382,0.9847 -0.221,1.785 -0.3858,2.6937 0.0465,0.9042 2.0434,1.4718 3.0166,0.5389l0.7592 -0.8443c-0.0022,0.6904 -1.066,1.2737 -1.6787,1.4087 -0.7014,0.1544 -2.0307,-0.1223 -2.1995,-0.8254l-0.127 0.1932 -0.1022 0.6574c0.6555,0.3415 1.313,0.3166 2.0338,0.287l0.0429 0.0003c0.1837,-0.174 0.823,-0.326 1.143,-0.5353 0.1334,-0.0873 0.3649,-0.2416 0.4663,-0.3387 0.2023,-0.1938 0.2331,-0.3339 0.4774,-0.4156 0.0416,-0.1259 0.4706,-0.8526 0.5521,-0.9472 0.0894,-0.2979 0.145,-0.4639 0.1625,-0.7826 0.0139,-0.2531 -0.0735,-0.777 -0.0492,-0.9049 -0.6447,0.4162 -0.5299,0.9461 -0.6782,2.1306l0.1001 -1.4571 -0.5215 0.3678c0.174,-0.2229 0.8843,-1.2644 1.1189,-1.354l-0.071 -0.183c-0.3207,0.3898 -0.4909,0.6461 -0.8529,0.9586 -0.215,0.1855 -0.112,0.1776 -0.2962,0.3354l0.4116 -0.7579c-0.2807,-0.1465 -0.0788,-0.1531 -0.3473,-0.3463l-0.9331 0.5243 0.4382 -0.8376 -2.48 0.434z"/>
  <path class="fil2" d="M6.2887 4.4181l0.3357 0.4456 0.0157 0.0634c0.1745,0.0868 1.1694,0.9884 1.406,1.2015 0.2648,0.2385 1.3645,1.0043 1.4782,1.1666l0.2061 0.1331 2.2494 1.3909c-0.5763,0.4169 -2.7183,0.4562 -3.4666,0.4093 0.0197,0.0179 0.0413,0.0369 0.0636,0.0486l1.7872 0.0925c-0.2844,0.2572 -0.1109,0.5437 -0.2366,0.7915 -0.1961,0.3866 -0.51,0.2057 -0.4235,0.7974l0.6686 -0.6835c0.3407,-0.4764 0.6128,-0.4312 0.6767,-0.5025 0.0969,0.1872 0.1222,0.1697 0.055,0.3418 -0.0114,0.0294 -0.0856,0.1102 -0.0998,0.2047 -0.0776,0.5197 0.2638,0.3189 -0.1846,0.8729 0.4148,-0.3391 0.2212,-0.1723 0.3868,-0.1716 -0.5233,0.8016 -0.8081,1.2848 -0.5794,2.3753 0.1289,0.6144 0.08,0.015 0.1138,0.8053l0.1013 -0.0071 0.127 -0.1932 0.1024 -0.2779c0.1648,-0.9087 0.524,-1.709 0.3858,-2.6937l0.0126 -0.1446 -0.1875 -1.3177c0.7851,-0.5117 1.7696,-0.3185 2.6094,-0.1496 -0.253,-0.3142 -0.4142,-0.0544 -0.5196,-0.6064 -0.4888,0.1115 -0.0243,-0.0174 -0.4817,-0.014l-0.2345 0.2851 -0.0293 -0.1114c-0.0031,-0.0107 -0.006,-0.0337 -0.0097,-0.0443l-0.1112 -0.6343 -0.2259 -0.0465c-0.7722,0.0111 -2.8551,-1.2055 -3.1485,-1.8685l1.1292 0.3886c-0.1152,-0.1603 0.0233,-0.0955 -0.1464,-0.1448l0.0442 -0.1949 -0.2668 -0.3231 -0.2419 0.1312 -0.157 -0.6063 -0.5347 0.2672c0.0264,-0.2375 0.5094,-0.4285 0.7424,-0.4694l-0.1392 -0.2516 0.1921 -0.1447c-1.0714,0.2431 -0.668,0.1793 -1.0202,0.5113l-0.1082 -0.3177 -0.2103 0.1106 0.2751 -0.5992c-0.3509,0.1933 -0.3979,0.0341 -0.7293,0.1963l0.0432 0.189c-0.4811,-0.1355 -0.708,-0.575 -1.0749,-0.7916 -0.1459,0.4686 0.1682,0.1576 -0.2212,0.4582 -0.1587,-0.6457 -0.0535,-0.2615 -0.2471,-0.5968l-0.1719 0.229z"/>
  <path class="fil3" d="M10.6974 1.9708c0.3523,0.4005 1.0635,0.264 1.9248,0.7936 0.4092,0.2516 0.2255,0.1705 0.7079,0.2535 0.6902,0.1189 2.0346,0.8037 2.154,1.5698 0.0613,0.2673 0.2068,0.5262 0.2857,0.7984 0.0878,0.3026 0.1303,0.5974 0.2055,0.8802l0.1768 -0.056c-0.0255,-0.4667 0.0895,-0.7479 0.0232,-1.2917 -0.0405,-0.3319 -0.2328,-0.888 -0.1981,-1.1361 -0.189,-0.0751 -0.109,-0.0399 -0.2406,-0.3223 -0.0462,-0.0993 -0.1115,-0.2019 -0.1667,-0.2984 -0.1311,-0.2296 -0.2408,-0.3249 -0.4023,-0.5249 -0.3212,-0.3977 -0.5778,-0.6317 -1.1033,-0.839 -1.1282,-0.445 -2.252,-0.4227 -3.4234,-0.1206l0.0565 0.2935z"/>
  <path class="fil4" d="M15.9772 3.7825c0.2824,0.0785 0.3394,1.4644 0.3308,1.6775l-0.155 1.3609c-0.0843,0.3994 -0.1765,0.3627 -0.2077,0.3886 -0.1624,0.2405 -0.2791,0.7252 -0.4128,1.0398 -0.1126,0.2647 -0.4344,0.7433 -0.4846,0.9338l0.0036 0.386c0.371,-0.5992 0.342,-0.3825 0.5961,-0.9282 0.1613,-0.3465 0.0641,-0.24 0.3289,-0.2904 0.1062,-0.0679 0.0886,-0.0794 0.1547,-0.2684 0.4563,-1.3022 0.3894,-1.4831 0.5355,-2.9316 -0.0052,0.1531 0.0828,0.5929 0.1103,0.7746l0.0144 1.7529c-0.05,0.2806 -0.1351,0.6501 -0.1096,0.9209 0.4122,-0.4932 0.2152,-2.7712 0.1202,-3.3474 -0.116,-0.7041 -0.4061,-2.2068 -0.9157,-2.6646 -0.3555,-0.0616 -0.0664,0.0782 -0.3318,-0.2109l-0.6898 -0.7078c-0.6597,-0.6202 -2.2096,-0.6978 -3.0556,-0.5756 -0.4342,0.0627 -1.2509,0.1256 -1.285,0.4099l0.8685 -0.1147c1.0056,-0.1135 2.5499,-0.0908 3.3489,0.5941 0.2578,0.2209 0.4021,0.1909 0.5638,0.4543 0.2435,0.3969 0.7343,0.8212 0.6719,1.3463z"/>
  <path class="fil1" d="M11.4701 10.8844c0.2457,-0.247 0.7747,-0.4707 1.1109,-0.5424 0.7028,-0.1498 0.9476,0.0608 1.5068,0.1589l0.563 -0.5563 -0.2652 -0.2933 -0.4936 -0.2342c-0.8398,-0.1689 -1.8243,-0.3621 -2.6094,0.1496l0.1875 1.3177z"/>
  <path class="fil1" d="M15.9765 8.3505c-0.2536,0.595 -0.5446,0.8677 -0.8351,1.3638l0.1107 0.3792 0.1859 0.3286c0.2208,0.1321 0.1317,0.1617 0.2859,0.4014l0.185 -0.1952c0.0496,-0.2043 0.1385,-0.356 0.291,-0.4933l0.0263 -0.1032 0.2293 -0.4889 0.0461 -0.1654 0.1554 -0.5082 0.0248 -0.2704c-0.0255,-0.2708 0.0596,-0.6403 0.1096,-0.9209l-0.0144 -1.7529c-0.0275,-0.1817 -0.1155,-0.6215 -0.1103,-0.7746 -0.1461,1.4485 -0.0792,1.6294 -0.5355,2.9316 -0.0661,0.189 -0.0485,0.2005 -0.1547,0.2684z"/>
  <path class="fil5" d="M8.173 1.6369c0.4155,0.0214 1.9874,0.2454 2.3131,0.4312l0.029 -0.1487 0.1823 0.0514 -0.0565 -0.2935c1.1714,-0.3021 2.2952,-0.3244 3.4234,0.1206 0.5255,0.2073 0.7821,0.4413 1.1033,0.839 0.1615,0.2 0.2712,0.2953 0.4023,0.5249 0.0552,0.0965 0.1205,0.1991 0.1667,0.2984 0.1316,0.2824 0.0516,0.2472 0.2406,0.3223 0.0624,-0.5251 -0.4284,-0.9494 -0.6719,-1.3463 -0.1617,-0.2634 -0.306,-0.2334 -0.5638,-0.4543 -0.799,-0.6849 -2.3433,-0.7076 -3.3489,-0.5941l-0.8685 0.1147c0.0341,-0.2843 0.8508,-0.3472 1.285,-0.4099 0.846,-0.1222 2.3959,-0.0446 3.0556,0.5756l0.6898 0.7078c0.2654,0.2891 -0.0237,0.1493 0.3318,0.2109 -0.2541,-0.5687 -0.7222,-0.7242 -1.0005,-1.119 -0.4321,-0.0549 -0.7329,-0.4968 -2.1367,-0.5382 -0.7884,-0.0233 -1.5835,0.1164 -2.3294,0.3285l-0.0731 0.3032 -2.1736 0.0755z"/>
  <path class="fil6" d="M4.159 2.0576l0.1724 0.207 -0.0134 -0.1986 3.1693 -0.5505c-2.7994,0.3009 -2.4035,0.8303 -2.9463,0.8955 0.1735,0.236 1.1886,-0.3375 1.4805,-0.4301 0.5204,-0.165 1.3952,-0.2281 1.7808,-0.4237 -0.4609,-0.3439 -1.4996,-0.4305 -2.0729,-0.2886 -0.6592,0.1631 -1.0374,0.4162 -1.5704,0.789z"/>
  <path class="fil6" d="M14.7624 10.3714l-1.1955 0.9966c0.0539,-0.4754 0.3841,-0.5301 0.6871,-0.841l0.7412 -0.7562c0.1013,0.3516 -0.1156,0.2337 -0.2328,0.6006zm0.2855 -1.1883c-0.5152,0.3211 0.0518,0.2722 -0.2788,0.6689 -0.284,-0.116 -0.254,-0.0921 -0.2922,-0.358l-0.0913 0.1573 0.2652 0.2933 -0.563 0.5563c-0.5592,-0.0981 -0.804,-0.3087 -1.5068,-0.1589 -0.3362,0.0717 -0.8652,0.2954 -1.1109,0.5424l-0.0126 0.1446 2.48 -0.434 -0.4382 0.8376 0.9331 -0.5243c0.2685,0.1932 0.0666,0.1998 0.3473,0.3463 -0.08,-0.2835 -0.1051,-0.2085 -0.2874,-0.4184 0.1023,-0.2249 0.199,-0.2067 0.2701,-0.4648 0.223,-0.0627 0.0566,-0.0086 0.2646,-0.1315l0.0567 -0.1939 0.1684 0.0475 -0.1107 -0.3792c0.2905,-0.4961 0.5815,-0.7688 0.8351,-1.3638 -0.2648,0.0504 -0.1676,-0.0561 -0.3289,0.2904 -0.2541,0.5457 -0.2251,0.329 -0.5961,0.9282l-0.0036 -0.386z"/>
  <path class="fil7" d="M12.2801 8.2453c-0.2877,-0.6468 -1.9362,-1.3307 -2.0193,-1.4799l-1.1292 -0.3886c0.2934,0.663 2.3763,1.8796 3.1485,1.8685z"/>
  <path class="fil7" d="M6.9289 4.3277c0.3669,0.2166 0.5938,0.6561 1.0749,0.7916l-0.0432 -0.189c-0.2824,-0.5499 -0.8131,-1.6071 -1.4047,-1.7677 -0.0717,0.66 0.2911,0.7414 0.373,1.1651z"/>
  <path class="fil8" d="M11.0717 13.7227l-0.1024 0.2779c0.1688,0.7031 1.4981,0.9798 2.1995,0.8254 0.6127,-0.135 1.6765,-0.7183 1.6787,-1.4087l-0.7592 0.8443c-0.9732,0.9329 -2.9701,0.3653 -3.0166,-0.5389z"/>
  <path class="fil9" d="M14.7624 10.3714c-0.0711,0.2581 -0.1678,0.2399 -0.2701,0.4648 0.1823,0.2099 0.2074,0.1349 0.2874,0.4184l0.1384 0.0083c0.2137,-0.2429 0.3561,-0.2898 0.3869,-0.6154 -0.1534,-0.1164 -0.2122,-0.205 -0.278,-0.4076 -0.208,0.1229 -0.0416,0.0688 -0.2646,0.1315z"/>
  <path class="fil10" d="M15.9753 6.2663c0.0455,0.436 0.0397,0.5177 -0.03,0.9432 0.0312,-0.0259 0.1234,0.0108 0.2077,-0.3886l0.155 -1.3609c0.0086,-0.2131 -0.0484,-1.599 -0.3308,-1.6775 -0.0347,0.2481 0.1576,0.8042 0.1981,1.1361 0.0663,0.5438 -0.0487,0.825 -0.0232,1.2917l-0.1768 0.056z"/>
  <path class="fil9" d="M14.7624 10.3714c0.1172,-0.3669 0.3341,-0.249 0.2328,-0.6006l-0.7412 0.7562c-0.303,0.3109 -0.6332,0.3656 -0.6871,0.841l1.1955 -0.9966z"/>
  <path class="fil11" d="M15.5689 11.2142l0.0193 -0.3127c-0.2346,0.0896 -0.9449,1.1311 -1.1189,1.354l0.5215 -0.3678 -0.1001 1.4571c0.1483,-1.1845 0.0335,-1.7144 0.6782,-2.1306z"/>
  <path class="fil12" d="M7.5918 9.0003l0.2632 0.0997 -0.1435 -0.1227c0.3951,-0.3414 1.5774,-1.3497 2.0189,-1.549l-0.2061 -0.1331c-0.0408,0.3047 -1.7298,1.2211 -1.9325,1.7051z"/>
  <path class="fil13" d="M15.305 10.6475c-0.0308,0.3256 -0.1732,0.3725 -0.3869,0.6154l-0.1384 -0.0083 -0.4116 0.7579c0.1842,-0.1578 0.0812,-0.1499 0.2962,-0.3354 0.362,-0.3125 0.5322,-0.5688 0.8529,-0.9586l0.071 0.183 0.1697 0.071 0.151 -0.3442 -0.185 0.1952c-0.1542,-0.2397 -0.0651,-0.2693 -0.2859,-0.4014l0.0008 0.2701 -0.1338 -0.0447z"/>
  <path class="fil14" d="M12.8168 15.1385c0.7231,-0.0714 1.8084,-0.6454 2.0867,-1.2896 -0.2443,0.0817 -0.2751,0.2218 -0.4774,0.4156 -0.1014,0.0971 -0.3329,0.2514 -0.4663,0.3387 -0.32,0.2093 -0.9593,0.3613 -1.143,0.5353z"/>
  <path class="fil1" d="M4.3314 2.2646l0.2096 0.1464c0.5428,-0.0652 0.1469,-0.5946 2.9463,-0.8955l-3.1693 0.5505 0.0134 0.1986z"/>
  <path class="fil15" d="M15.027 10.2399c0.1824,0.1112 0.2329,0.1926 0.278,0.4076l0.1338 0.0447 -0.0008 -0.2701c-0.148,-0.1318 -0.1535,-0.1375 -0.1859,-0.3286l-0.1684 -0.0475 -0.0567 0.1939z"/>
  <path class="fil16" d="M9.4929 5.6275l0.2077 -0.2022c-0.233,0.0409 -0.716,0.2319 -0.7424,0.4694l0.5347 -0.2672z"/>
  <path class="fil17" d="M14.9035 13.8489c0.2578,-0.1267 0.4899,-0.6441 0.5521,-0.9472 -0.0815,0.0946 -0.5105,0.8213 -0.5521,0.9472z"/>
  <path class="fil18" d="M8.6899 4.734l-0.2751 0.5992 0.2103 -0.1106c0.0641,-0.3414 0.1737,-0.1425 0.1944,-0.5225l-0.1296 0.0339z"/>
  <path class="fil19" d="M15.9089 10.6283c0.1843,-0.1323 0.2293,-0.2645 0.291,-0.4933 -0.1525,0.1373 -0.2414,0.289 -0.291,0.4933z"/>
  <path class="fil20" d="M15.305 10.6475c-0.0451,-0.215 -0.0956,-0.2964 -0.278,-0.4076 0.0658,0.2026 0.1246,0.2912 0.278,0.4076z"/>
  <path class="fil21" d="M12.3305 4.1068l-0.1761 -0.1035 0.1301 -0.1393c-0.3238,0.1179 -0.145,0.0113 -0.2345,0.1977l0.2805 0.0451z"/>
  <path class="fil22" d="M5.8306 6.4213l0.2632 -0.5c-0.2135,0.2191 -0.2354,0.2847 -0.2632,0.5z"/>
  <path class="fil23" d="M16.2262 10.0318c0.1677,-0.1591 0.188,-0.2429 0.2293,-0.4889l-0.2293 0.4889z"/>
  <path class="fil23" d="M16.5016 9.3775c0.1344,-0.1827 0.1366,-0.2487 0.1554,-0.5082l-0.1554 0.5082z"/>
  <polygon class="fil24" points="10.4861,2.0681 10.6974,1.9708 10.5151,1.9194 "/>
  <path class="fil25" d="M15.438 10.4221l-0.1859 -0.3286c0.0324,0.1911 0.0379,0.1968 0.1859,0.3286z"/>
 </g>
</svg>
