<?xml version="1.0" encoding="UTF-8"?>
<!DOCTYPE svg PUBLIC "-//W3C//DTD SVG 1.1//EN" "http://www.w3.org/Graphics/SVG/1.1/DTD/svg11.dtd">
<!-- Creator: CorelDRAW -->
<svg xmlns="http://www.w3.org/2000/svg" xml:space="preserve" width="16.9332mm" height="16.9332mm" style="shape-rendering:geometricPrecision; text-rendering:geometricPrecision; image-rendering:optimizeQuality; fill-rule:evenodd; clip-rule:evenodd"
viewBox="0 0 16.9332 16.9332"
 xmlns:xlink="http://www.w3.org/1999/xlink">
 <defs>
  <style type="text/css">
   <![CDATA[
    .fil0 {fill:black}
    .fil3 {fill:#010201}
    .fil2 {fill:#060506}
    .fil7 {fill:#0A040B}
    .fil20 {fill:#0E1112}
    .fil18 {fill:#120A0B}
    .fil13 {fill:#281528}
    .fil16 {fill:#2B331D}
    .fil10 {fill:#371A37}
    .fil12 {fill:#3B2439}
    .fil11 {fill:#572956}
    .fil19 {fill:#593357}
    .fil17 {fill:#823A7E}
    .fil5 {fill:#873985}
    .fil8 {fill:#943392}
    .fil15 {fill:#ADC475}
    .fil14 {fill:#B3CA79}
    .fil1 {fill:#C2ED5E}
    .fil4 {fill:#C3EE5F}
    .fil6 {fill:#E274E1}
    .fil9 {fill:#F67324}
   ]]>
  </style>
 </defs>
 <g id="Capa_x0020_1">
  <metadata id="CorelCorpID_0Corel-Layer"/>
  <path class="fil0" d="M13.3988 9.0619c-1.0675,0.2318 -1.6011,0.1853 -1.8339,0.7153 -0.2972,0.6764 -0.1995,1.5101 -0.165,2.3645l1.9989 -3.0798zm1.3415 -3.8745l-5.8051 0 0 9.7646 2.4185 0 0 1.3023c0.7735,-0.324 1.8987,-0.7144 2.4699,-1.4247 0.3087,-0.3839 0.542,-0.6966 0.7181,-1.2292 0.1334,-0.4031 0.2833,-1.0924 0.2833,-1.5794 0.7209,-0.103 0.4586,-0.1294 1.1007,0.0847l0.1693 -0.8467 0.4233 0.0847c-0.0907,-0.8166 -0.1517,-0.6699 0.0748,-0.981 -0.0095,-0.0261 -0.2041,-0.3567 -0.2259,-0.391 -1.1115,-1.7435 -1.2908,-1.2174 -1.6269,-1.676l0 0 0 -3.1083z"/>
  <path class="fil1" d="M11.3999 12.1417c-0.0345,-0.8544 -0.1322,-1.6881 0.165,-2.3645 0.2328,-0.53 0.7664,-0.4835 1.8339,-0.7153l-1.9989 3.0798z"/>
  <path class="fil2" d="M8.8934 9.2731c-0.2832,-0.6024 -0.1792,-0.3274 -0.1818,-0.9091l-0.4547 0.0581 0.0816 -0.7619 -0.254 0.0082 -0.9465 0.6019 0.4559 0.0033 -0.4529 0.2541 0.263 0.2272 0.5188 -0.1909 -0.3478 0.3134c0.356,0.1952 0.3216,0.0299 0.6576,0.1229 0.2375,0.0657 0.3169,0.1908 0.6608,0.2728z"/>
  <path class="fil3" d="M10.2337 13.8559l0.0782 -0.5262c-0.2142,0.2833 -0.4103,0.6867 -0.7632,0.8593 -0.3533,0.1728 -1.128,0.2351 -1.5184,0.1923l-1.7991 -1.6125 0.273 1.0905 -2.9169 -4.4913 1.6978 0.4388 0.4381 1.0547 0.0714 -0.9749c0.3278,-0.0601 0.7684,0.0799 1.1257,0.0914 1.3859,0.0446 2.6501,0.0053 4.0294,-0.0846l-0.0503 1.5036 0.5182 -1.5847 1.7483 -0.4589c-0.087,1.2082 -1.6586,4.1277 -2.9322,4.5025zm4.0627 -4.98c0.1683,0.1798 0.2977,0.5435 0.2267,0.7533 -0.1498,-0.2466 -0.2235,-0.4599 -0.2267,-0.7533zm-6.2974 -0.7469c0.1833,0.2062 0.3025,0.62 0.1483,0.8964l-0.1483 -0.8964zm0.5823 0.8806c-0.0952,-0.0988 -0.051,0.1805 -0.0747,-0.1975 -0.0137,-0.2197 0.0802,-0.5217 0.1711,-0.7094l-0.0964 0.9069zm0.3291 0.363c0.0183,-0.304 0.1245,-0.3502 0.3483,-0.614 0.2607,-0.3078 1.0798,-0.9841 1.4044,-1.206 0.4195,-0.2866 0.8306,-0.5263 1.3457,-0.3532 0.385,0.1294 0.8844,0.373 0.9956,0.707 -1.5258,0.1878 -2.3282,0.0901 -3.3169,0.8067 -0.2663,0.1931 -0.5871,0.5706 -0.7771,0.6595zm-5.1595 -1.517c0.1429,-0.3105 0.7638,-0.6433 1.1317,-0.7059 0.9901,-0.1683 2.8649,1.7315 2.9683,2.2322 -1.9143,-1.3292 -1.7689,-1.5057 -4.1,-1.5263zm0.6154 -4.0078c0.4529,0.4658 0.5501,0.6983 0.4037,1.4568 -0.249,1.2904 -1.1457,1.3056 -1.9296,2.8149 -0.0539,0.1038 -0.1025,0.2055 -0.1586,0.3102 -0.1388,0.2584 -0.0331,0.1379 -0.2332,0.3085l-0.2658 -0.3283 0.1136 0.2913c-0.6243,0.4535 -0.3447,-0.0178 -1.139,0.8969 -0.2374,0.2732 -0.6898,0.9685 -0.8173,1.2933l0.254 -0.0082 -0.0816 0.7619 0.4547 -0.0581c0.0026,0.5817 -0.1014,0.3067 0.1818,0.9091 0.4104,-0.2978 0.1872,-0.2346 0.998,-0.1882 0.2116,0.6417 -0.0461,2.0397 1.5812,3.3263 0.6189,0.4893 1.9085,1.0177 2.5855,1.132l0.9266 0.0007c0.3993,0.0655 -0.1302,0.1636 1.1009,0.1664l-0.0261 -0.6055 -1.6122 -0.2491c0.0822,-0.0392 1.5128,0.0924 1.8086,0.0801l-0.067 0.1262 0.0197 0.6384c0.4203,-0.0792 0.045,-0.119 0.4096,-0.0216l0.5943 -0.1336c0.3983,0.0247 -0.135,0.3694 0.977,-0.0177 0.3546,-0.1235 0.7497,-0.1958 1.1061,-0.321 0.5968,-0.2098 1.3258,-0.6234 1.7792,-1.0662l1.4656 -4.2357 0.6234 -3.1317 0.272 -0.4491 -0.6509 0.269 0.3347 -0.3211 -0.2168 -0.2034c-0.3499,0.1377 -0.0893,0.1621 -0.2988,0.0819 -0.011,0.3235 0.0615,0.295 -0.1012,0.5781 -0.2257,-0.2962 -0.0875,-0.4095 -0.2468,-0.6181 0.0627,0.6735 0.1921,0.6457 -0.108,1.3265l-0.165 0.1423c-0.6003,-1.1621 -0.7184,-1.4287 -1.6166,-2.2968 -0.652,-0.6303 -1.0858,-1.9647 -0.2545,-2.637l-0.1204 -0.133c-0.3357,-0.6181 -1.1682,-1.6154 -1.9169,-1.6605l-0.7918 2.4481 -0.8382 -0.4039 -0.3266 0.8731 -0.2738 -0.8421 -0.9187 0.3703 -0.8045 -2.4592c-2.1896,1.4266 -0.9672,0.7994 -2.0103,1.7868z"/>
  <path class="fil4" d="M10.569 12.5956l0.2247 -0.8613c0.0054,0.2837 -0.097,0.6483 -0.2247,0.8613zm-4.8243 -1.6764l0.2229 0.9716c-0.1278,-0.2265 -0.2413,-0.6737 -0.2229,-0.9716zm4.489 2.9367c1.2736,-0.3748 2.8452,-3.2943 2.9322,-4.5025l-1.7483 0.4589 -0.5182 1.5847 0.0503 -1.5036c-1.3793,0.0899 -2.6435,0.1292 -4.0294,0.0846 -0.3573,-0.0115 -0.7979,-0.1515 -1.1257,-0.0914l-0.0714 0.9749 -0.4381 -1.0547 -1.6978 -0.4388 2.9169 4.4913 -0.273 -1.0905 1.7991 1.6125c0.3904,0.0428 1.1651,-0.0195 1.5184,-0.1923 0.3529,-0.1726 0.549,-0.576 0.7632,-0.8593l-0.0782 0.5262z"/>
  <path class="fil5" d="M5.3582 0.9252c-0.2934,0.0399 -0.5703,0.2531 -0.8147,0.4225 -0.1549,0.1073 -0.2184,0.1644 -0.3525,0.2834 -0.2476,0.2195 -0.2642,0.1047 -0.3702,0.3326 -0.0651,0.2357 -0.4399,0.6324 -0.6438,0.7501 -0.2803,0.2439 -0.4961,0.7774 -0.6644,1.0858l-0.5083 0.0801c-0.3111,0.4635 -0.7907,2.223 -0.7402,2.7845 0.2247,-0.306 0.4099,-0.9911 0.5467,-1.3843l0.1288 -0.2477c0.294,0.1537 0.365,0.1818 0.1677,0.4458l-0.4972 1.6026 0.112 0.2816c0.2371,-0.0806 0.0641,-0.1556 0.3155,-0.4099 -0.0578,0.4581 -0.2811,0.56 0.0066,0.9742l0.0923 -0.7641 0.1597 -0.0162c0.223,-0.2167 0.4751,-1.2204 0.553,-1.509 0.1318,-0.4877 0.3498,-1.1385 0.4388,-1.5927l-0.1166 -0.1376 0.184 0.0023c0.2804,-0.1608 0.5142,-0.384 0.7998,-0.0148l0.2111 -0.0466c-0.3317,-0.4429 -0.7332,-0.4182 -1.0947,-0.0051l-0.0838 -0.1874c-0.1008,0.2777 -0.1324,0.3529 -0.2852,0.6296 -0.0267,-0.6666 0.8654,-1.9999 1.3419,-2.3613 0.602,-0.4568 1.7237,-1.0582 2.462,-1.2365 -0.1182,-0.0996 0.145,-0.1805 -0.3732,-0.0423 -0.064,0.0171 -0.1911,0.079 -0.2711,0.1094 -0.2551,0.0968 -0.4496,0.1898 -0.704,0.171z"/>
  <path class="fil5" d="M13.554 4.3087c0.0483,0.4268 0.286,1.0999 0.3938,1.5508 0.0619,0.2592 0.3639,1.2621 0.5638,1.4737 0.1593,0.2086 0.0211,0.3219 0.2468,0.6181 0.1627,-0.2831 0.0902,-0.2546 0.1012,-0.5781 0.2095,0.0802 -0.0511,0.0558 0.2988,-0.0819 -0.1279,-0.6042 -0.4496,-1.0941 -0.4663,-1.7316l-0.1482 -0.2341 0.2669 -0.2401 0.1695 0.3615c0.1865,0.4088 0.2213,0.8328 0.4868,1.1646 0.0297,-0.5038 -0.3965,-2.2645 -0.7172,-2.6532 -0.5193,-0.2044 -0.874,0.0314 -0.95,-0.8272 -0.1044,-0.7489 -1.2499,-1.5827 -1.8689,-1.9343 -0.0348,0.0245 0.0451,0.2091 -0.2377,-0.0094 -0.2286,-0.1766 -0.1176,-0.1027 -0.0402,-0.153l-0.7466 -0.3863c-0.1171,0.1276 0.2171,0.2135 -0.3746,0.0756 -0.1397,-0.0325 -0.2275,-0.0898 -0.3621,-0.125 -0.1961,-0.0513 -0.5046,-0.1226 -0.6759,-0.0914 1.0196,0.2912 2.3337,0.8024 3.0873,1.5286 0.7666,0.7389 1.435,2.1021 1.532,3.0487l-0.4563 -1.1867c-0.1282,0.3975 -0.01,0.249 -0.1029,0.4107z"/>
  <path class="fil6" d="M12.5905 3.7275c0.0145,0.3633 0.1307,0.3126 0.1834,0.7163 0.0349,0.2678 0.0521,0.5323 0.0788,0.7978 0.0379,0.3789 0.0433,0.5 0.2399,0.7486l0.0732 0.1128c0.384,0.7041 0.8271,1.1207 0.9743,1.8931 0.0693,0.3635 -0.0268,0.6309 0.2635,0.6636 0.3001,-0.6808 0.1707,-0.653 0.108,-1.3265 -0.1999,-0.2116 -0.5019,-1.2145 -0.5638,-1.4737 -0.1078,-0.4509 -0.3455,-1.124 -0.3938,-1.5508 -0.0594,-0.3327 -0.1741,-0.4166 -0.4019,-0.6439l-0.5616 0.0627z"/>
  <path class="fil7" d="M6.7065 0.6871c-0.7383,0.1783 -1.86,0.7797 -2.462,1.2365 -0.4765,0.3614 -1.3686,1.6947 -1.3419,2.3613 0.1528,-0.2767 0.1844,-0.3519 0.2852,-0.6296 0.5092,-1.7375 3.6041,-2.9844 5.2971,-2.895 1.568,0.0828 3.9558,0.9165 4.821,2.3689 0.3939,0.6615 0.2627,0.5512 0.1738,0.7459l-0.9016 -0.1955 0.0124 0.0479 0.5616 -0.0627c0.2278,0.2273 0.3425,0.3112 0.4019,0.6439 0.0929,-0.1617 -0.0253,-0.0132 0.1029,-0.4107l0.4563 1.1867c-0.097,-0.9466 -0.7654,-2.3098 -1.532,-3.0487 -0.7536,-0.7262 -2.0677,-1.2374 -3.0873,-1.5286 -0.9552,-0.1596 -1.8651,-0.0964 -2.7874,0.1797z"/>
  <path class="fil6" d="M3.3554 3.9092l-0.0674 0.1353c-0.089,0.4542 -0.307,1.105 -0.4388,1.5927 -0.0779,0.2886 -0.33,1.2923 -0.553,1.509 -0.0904,0.5482 -0.1256,0.6507 -0.1013,1.2363l-0.0121 0.0274 0.2658 0.3283c0.3697,-1.7856 0.3965,-1.3351 1.1755,-2.6921l0.0347 -0.0662c0.3983,-0.6546 0.0784,-0.8723 0.4964,-2.0855 -0.2856,-0.3692 -0.5194,-0.146 -0.7998,0.0148z"/>
  <path class="fil8" d="M12.2471 3.7352l0.1204 0.133c-0.8313,0.6723 -0.3975,2.0067 0.2545,2.637 0.8982,0.8681 1.0163,1.1347 1.6166,2.2968l0.165 -0.1423c-0.2903,-0.0327 -0.1942,-0.3001 -0.2635,-0.6636 -0.1472,-0.7724 -0.5903,-1.189 -0.9743,-1.8931l-0.0732 -0.1128c-0.1966,-0.2486 -0.202,-0.3697 -0.2399,-0.7486 -0.0267,-0.2655 -0.0439,-0.53 -0.0788,-0.7978 -0.0527,-0.4037 -0.1689,-0.353 -0.1834,-0.7163l-0.0124 -0.0479 -0.331 0.0556z"/>
  <path class="fil8" d="M2.4486 8.7382c0.2001,-0.1706 0.0944,-0.0501 0.2332,-0.3085 0.0561,-0.1047 0.1047,-0.2064 0.1586,-0.3102 0.7839,-1.5093 1.6806,-1.5245 1.9296,-2.8149 0.1464,-0.7585 0.0492,-0.991 -0.4037,-1.4568l-0.2111 0.0466c-0.418,1.2132 -0.0981,1.4309 -0.4964,2.0855l-0.0347 0.0662c-0.779,1.357 -0.8058,0.9065 -1.1755,2.6921z"/>
  <path class="fil9" d="M8.9104 9.3726c0.19,-0.0889 0.5108,-0.4664 0.7771,-0.6595 0.9887,-0.7166 1.7911,-0.6189 3.3169,-0.8067 -0.1112,-0.334 -0.6106,-0.5776 -0.9956,-0.707 -0.5151,-0.1731 -0.9262,0.0666 -1.3457,0.3532 -0.3246,0.2219 -1.1437,0.8982 -1.4044,1.206 -0.2238,0.2638 -0.33,0.31 -0.3483,0.614z"/>
  <path class="fil9" d="M3.7509 7.8556c2.3311,0.0206 2.1857,0.1971 4.1,1.5263 -0.1034,-0.5007 -1.9782,-2.4005 -2.9683,-2.2322 -0.3679,0.0626 -0.9888,0.3954 -1.1317,0.7059z"/>
  <path class="fil2" d="M14.9803 5.447c0.0403,0.1882 0.0211,0.0394 -0.1144,0.1089l-0.1738 0.0038c0.0167,0.6375 0.3384,1.1274 0.4663,1.7316 0.5533,-0.3022 0.5005,-1.1445 0.3819,-1.7213 -0.0986,-0.4789 -0.3239,-1.3587 -0.7082,-1.5964l-0.0822 -0.0152c0.3207,0.3887 0.7469,2.1494 0.7172,2.6532 -0.2655,-0.3318 -0.3003,-0.7558 -0.4868,-1.1646z"/>
  <path class="fil2" d="M1.4516 7.2277c0.0136,-0.0173 0.037,-0.0599 0.0469,-0.0467 0.0107,0.0143 0.0393,-0.0369 0.0529,-0.049 0.0145,-0.0132 0.0407,-0.0326 0.0587,-0.0514l0.4972 -1.6026 -0.1862 0.1598c-0.1203,-0.214 -0.0904,-0.0071 -0.1103,-0.3579 -0.1368,0.3932 -0.322,1.0783 -0.5467,1.3843 -0.0505,-0.5615 0.4291,-2.321 0.7402,-2.7845l0.5083 -0.0801 -0.5464 0.0438c-0.5131,0.7138 -1.3561,2.6703 -0.5146,3.3843z"/>
  <path class="fil10" d="M1.6101 7.0806c-0.018,0.0188 -0.0442,0.0382 -0.0587,0.0514 -0.0136,0.0121 -0.0422,0.0633 -0.0529,0.049 -0.0099,-0.0132 -0.0333,0.0294 -0.0469,0.0467 0.2754,0.272 0.194,0.1422 0.3455,0.5255 0.0956,0.2417 0.274,0.45 0.3978,0.6293 -0.0243,-0.5856 0.0109,-0.6881 0.1013,-1.2363l-0.1597 0.0162 -0.0923 0.7641c-0.2877,-0.4142 -0.0644,-0.5161 -0.0066,-0.9742 -0.2514,0.2543 -0.0784,0.3293 -0.3155,0.4099l-0.112 -0.2816z"/>
  <path class="fil11" d="M1.8108 5.2799c0.0199,0.3508 -0.01,0.1439 0.1103,0.3579l0.1862 -0.1598c0.1973,-0.264 0.1263,-0.2921 -0.1677,-0.4458l-0.1288 0.2477z"/>
  <path class="fil12" d="M14.7499 3.9584l0.0822 0.0152c-0.2179,-0.3678 -0.2537,-0.1231 -0.6975,-0.2537l-0.3347 -0.5887c0.076,0.8586 0.4307,0.6228 0.95,0.8272z"/>
  <path class="fil13" d="M14.6921 5.5597l0.0721 -0.3454c0.1911,0.2485 0.0649,0.0352 0.1017,0.3416 0.1355,-0.0695 0.1547,0.0793 0.1144,-0.1089l-0.1695 -0.3615 -0.2669 0.2401 0.1482 0.2341z"/>
  <path class="fil13" d="M3.177 2.7138c0.2039,-0.1177 0.5787,-0.5144 0.6438,-0.7501 -0.3041,0.2539 -0.4441,0.3937 -0.6438,0.7501z"/>
  <path class="fil14" d="M8.1473 9.0254c0.1542,-0.2764 0.035,-0.6902 -0.1483,-0.8964l0.1483 0.8964z"/>
  <path class="fil14" d="M14.5231 9.6292c0.071,-0.2098 -0.0584,-0.5735 -0.2267,-0.7533 0.0032,0.2934 0.0769,0.5067 0.2267,0.7533z"/>
  <path class="fil15" d="M8.5813 9.0096l0.0964 -0.9069c-0.0909,0.1877 -0.1848,0.4897 -0.1711,0.7094 0.0237,0.378 -0.0205,0.0987 0.0747,0.1975z"/>
  <path class="fil16" d="M5.7447 10.9192c-0.0184,0.2979 0.0951,0.7451 0.2229,0.9716l-0.2229 -0.9716z"/>
  <path class="fil17" d="M14.6921 5.5597l0.1738 -0.0038c-0.0368,-0.3064 0.0894,-0.0931 -0.1017,-0.3416l-0.0721 0.3454z"/>
  <path class="fil16" d="M10.569 12.5956c0.1277,-0.213 0.2301,-0.5776 0.2247,-0.8613l-0.2247 0.8613z"/>
  <polygon class="fil18" points="3.288,4.0445 3.3554,3.9092 3.1714,3.9069 "/>
  <path class="fil19" d="M5.3582 0.9252c0.2544,0.0188 0.4489,-0.0742 0.704,-0.171 0.08,-0.0304 0.2071,-0.0923 0.2711,-0.1094 0.5182,-0.1382 0.255,-0.0573 0.3732,0.0423 0.9223,-0.2761 1.8322,-0.3393 2.7874,-0.1797 0.1713,-0.0312 0.4798,0.0401 0.6759,0.0914 0.1346,0.0352 0.2224,0.0925 0.3621,0.125 0.5917,0.1379 0.2575,0.052 0.3746,-0.0756 -0.4938,-0.194 -1.3815,-0.4619 -1.8876,-0.4158 -0.2945,0.0167 -0.4063,-0.0348 -0.6708,-0.031 -0.0807,0.0012 -0.2892,0.0347 -0.3207,0.0339 -0.305,-0.0074 -0.096,0.1823 -0.2666,-0.0924 -0.6318,0.278 -1.9662,0.2426 -2.4026,0.7823z"/>
  <path class="fil20" d="M7.7608 0.1429c0.1706,0.2747 -0.0384,0.085 0.2666,0.0924 0.0315,0.0008 0.24,-0.0327 0.3207,-0.0339 0.2645,-0.0038 0.3763,0.0477 0.6708,0.031 -0.2315,-0.2869 -0.9608,-0.298 -1.2581,-0.0895z"/>
  <path class="fil12" d="M11.931 1.1969l-0.2779 -0.1624c-0.0774,0.0503 -0.1884,-0.0236 0.0402,0.153 0.2828,0.2185 0.2029,0.0339 0.2377,0.0094z"/>
 </g>
</svg>
