<?xml version="1.0" encoding="UTF-8"?>
<!DOCTYPE svg PUBLIC "-//W3C//DTD SVG 1.1//EN" "http://www.w3.org/Graphics/SVG/1.1/DTD/svg11.dtd">
<!-- Creator: CorelDRAW -->
<svg xmlns="http://www.w3.org/2000/svg" xml:space="preserve" width="16.9332mm" height="16.9332mm" style="shape-rendering:geometricPrecision; text-rendering:geometricPrecision; image-rendering:optimizeQuality; fill-rule:evenodd; clip-rule:evenodd"
viewBox="0 0 16.9332 16.9332"
 xmlns:xlink="http://www.w3.org/1999/xlink">
 <defs>
  <style type="text/css">
   <![CDATA[
    .fil0 {fill:black}
   ]]>
  </style>
 </defs>
 <g id="Capa_x0020_1">
  <metadata id="CorelCorpID_0Corel-Layer"/>
  <path class="fil0" d="M6.8149 1.7565c-0.0646,-0.046 -0.3132,-0.2974 -0.3389,-0.3617 0.1539,0.1164 0.3106,0.1979 0.3389,0.3617zm-0.5816 -0.5485c-0.2105,-0.1203 -0.3182,-0.2679 -0.5791,-0.3494 -0.4509,-0.1407 -1.3839,0.0424 -2.0552,-0.283l-0.3012 -0.1542c0.1686,0.4828 0.4399,0.9597 0.7397,1.335 0.0559,0.07 0.1236,0.1713 0.1915,0.2365l0.4188 0.423c-0.0668,0.0945 -0.2658,0.1001 -0.4053,0.1242 -0.586,0.1016 -0.6995,0.2137 -1.0363,0.6484 -0.4061,0.5238 -0.4939,0.9003 -0.7061,1.5265 0.1743,-0.0929 0.3201,-0.2173 0.5111,-0.305 0.2003,-0.0922 0.3891,-0.155 0.6182,-0.191 0.5344,-0.084 0.913,0.02 1.4258,0.1304 -0.152,0.2279 -0.4775,0.4514 -0.7514,0.5434l-0.3335 0.1085c0.2509,0.2228 0.9656,0.1847 1.2881,0.1902 0.1516,0.1837 -0.0062,0.1458 0.6716,0.1585 -0.0907,-0.1904 -0.2017,-0.1139 -0.395,-0.1238 -0.0622,-0.0031 -0.0855,-0.0141 -0.1285,-0.0548l0.0754 -0.8584 -0.1749 0.748c-0.1683,0.0333 -0.6077,0.0072 -0.8108,-0.0094l-0.2419 -0.0503c0.1177,-0.0822 0.4399,-0.1878 0.5965,-0.2576l0.4725 -0.3943c-0.0412,-0.071 -0.0669,-0.0749 -0.1725,-0.1098 -0.2242,-0.0741 -0.4697,-0.1165 -0.7011,-0.1677l0.3312 -0.0071c-0.2425,-0.1847 -1.1741,0.0199 -1.419,0.1107l-0.4193 0.1573c0.1392,-0.4887 0.8359,-1.2601 1.3446,-1.3667l0.797 -0.0631 -0.3617 -0.3972c0.0391,-0.0223 -0.0359,-0.0004 0.0469,-0.0233 0.1782,-0.0494 0.3931,-0.0031 0.5723,0.0097 -0.0257,-0.0414 -0.0031,-0.0171 -0.0343,-0.0486l-0.252 -0.2215c-0.0967,-0.0778 -0.177,-0.1769 -0.2708,-0.268 -0.1842,-0.1791 -0.3612,-0.3474 -0.5236,-0.5484 0.1336,0.0394 0.2719,0.1762 0.3855,0.2561 -0.0272,-0.0685 -0.0228,-0.0685 -0.0827,-0.1169 -0.2069,-0.1673 -0.4914,-0.4812 -0.6854,-0.6729 0.2951,0.004 0.6553,0.0619 0.9592,0.0863 0.6169,0.0491 1.1136,-0.0099 1.6048,0.5287 0.0515,0.0564 0.0756,0.0742 0.139,0.1304 0.1258,0.1113 0.1924,0.2485 0.3877,0.4119l-0.4669 -1.3009c0.1537,0.1147 0.4417,0.9318 0.5069,1.0925 -0.0075,-0.3697 -0.3272,-0.9684 -0.5181,-1.281l-0.2582 -0.3785c0.8851,0.0402 1.6697,0.5498 1.8786,1.4316l0.097 0.3903c0.008,-0.4196 -0.2053,-0.8124 -0.3687,-1.176 0.0683,0.0323 0.1717,0.1884 0.2189,0.2771 0.059,0.1112 0.1133,0.2444 0.1563,0.3832 0.0917,0.2953 0.1295,0.598 0.1771,0.9027 0.3485,0.1062 0.5697,0.0087 1.0092,0.4524l0.2495 0.2469c0.1264,-0.1947 0.0525,-1.0653 0.0448,-1.3289l0.1205 0.7663c0.0897,-0.167 -0.0019,-0.4906 -0.0397,-0.6869 -0.0436,-0.2262 -0.1094,-0.4404 -0.1747,-0.6605 0.0959,0.037 0.2585,0.2474 0.329,0.3475 0.0955,0.1361 0.1826,0.2739 0.252,0.4441 0.072,0.1765 0.1249,0.3785 0.0819,0.5833l-0.2916 0.3985 0.0988 0.1547c0.1351,0.0049 0.2162,-0.1016 0.2863,-0.1886 0.0663,-0.0824 0.1666,-0.1655 0.2462,-0.2491l0.2429 -0.252c0.0692,-0.0869 0.1642,-0.1696 0.2483,-0.2509 -0.0917,0.3487 -0.6652,0.8431 -0.9256,1.1233l0.0654 0.0904c0.1185,-0.0139 0.2273,-0.1846 0.3092,-0.2759 0.3759,-0.4186 0.4541,-0.4836 0.7698,-0.9816 0.0745,0.2852 0.063,0.7108 -0.0007,1.0088 -0.0602,0.2823 -0.2426,0.4999 -0.3927,0.7317 0.0725,-0.0297 0.1056,-0.0696 0.1513,-0.1415l0.3042 -0.4979c-0.0408,0.4857 -0.4075,0.7701 -0.7263,1.0697 0.0598,0.0068 0.547,-0.112 0.6841,-0.1327l0.7175 -0.0618c-0.12,0.1045 -0.6974,0.1878 -1.3323,0.7536 -0.2454,0.2187 -0.2502,0.2294 -0.4896,0.4802l0.3665 -0.2876 -0.2598 0.3431c0.1747,-0.0215 0.3457,-0.0759 0.5257,-0.0997l0.5785 -0.0107 -1.5738 0.8446c0.0111,0.1347 0.1757,0.3504 0.2365,0.4911l0.1705 0.5372 -0.0389 -0.4382c0.1534,0.0447 0.4143,0.3491 0.5399,0.3801l0.4245 -0.048c0.0038,0.0993 -0.0285,0.1315 -0.0742,0.1924l-0.7967 1.1063c0.0324,-0.0291 0.042,-0.0459 0.0734,-0.0768l0.1509 -0.1635c0.0305,-0.0374 0.049,-0.0464 0.076,-0.0801 0.0947,-0.1181 0.1778,-0.2321 0.2738,-0.3566l0.5608 -0.7157c0.2138,-0.0083 0.3392,0.1898 0.4668,0.3183 -0.0381,0.133 -0.2977,0.3394 -0.4094,0.4311 -0.1408,0.1158 -0.2785,0.2835 -0.3972,0.4339 0.111,-0.0658 0.199,-0.1397 0.2936,-0.2231 0.2996,-0.2646 0.5834,-0.5302 0.9314,-0.7434 0.2513,0.1712 -0.0811,0.0951 0.4705,0.3273 -0.0863,0.0333 -0.2004,0.0426 -0.295,0.0844 -0.0852,0.0378 -0.1424,0.0883 -0.2097,0.1545 0.312,-0.0194 0.2882,-0.1981 1.0655,-0.0958 0.1799,0.0237 0.3488,0.061 0.5297,0.0943 0.1716,0.0315 0.3475,0.0315 0.5236,0.0445l-0.0162 -0.1234c-0.2354,-0.1154 -1.3744,-0.0853 -1.5242,-0.2089 -0.0572,-0.0474 -0.1219,-0.1709 -0.1804,-0.2463 -0.2875,-0.3697 -0.3244,-0.2704 -0.4585,-0.1355 -0.1638,0.1648 -0.406,-0.1575 -0.5278,-0.2501 -0.1196,-0.0909 -0.1419,-0.1027 -0.2691,-0.0084 -0.0774,0.0574 -0.1693,0.1522 -0.3044,0.0876 -0.3595,-0.172 -0.2465,0.0951 -0.4442,0.0683 -0.0423,-0.0057 -0.1196,-0.0683 -0.1445,-0.0873 -0.0917,-0.0703 -0.1636,-0.1263 -0.2532,-0.1959l-0.3235 -0.5543 1.8334 -0.8438c-0.0574,-0.0626 -0.1568,-0.082 -0.2392,-0.0988 -0.3027,-0.0619 -0.6209,-0.0531 -0.9279,-0.068 0.1202,-0.2263 1.0912,-0.7721 1.3091,-0.8587l0.5424 -0.2009c-0.397,-0.1597 -0.8745,-0.1791 -1.3013,-0.2176 0.0592,-0.0821 0.1867,-0.128 0.2781,-0.1748 0.1936,-0.0994 0.7343,-0.3137 0.8656,-0.393l0.0545 -0.0479c-0.2983,-0.0179 -0.8077,0.2926 -1.0808,0.4262 0.1565,-0.4018 0.1968,-0.5627 0.1881,-1.0526l-0.0598 -1.1936c-0.0163,0.0135 -0.015,0.0091 -0.0368,0.0337 -0.2113,0.2384 -0.3523,0.5198 -0.5816,0.7441 -0.1472,0.1439 -0.2965,0.2525 -0.4726,0.361 -0.079,-0.4601 0.0338,-0.602 -0.2804,-0.9802 -0.2545,-0.3063 -0.5199,-0.577 -0.8412,-0.8098 -0.0016,0.2098 0.0972,0.695 0.13,0.9346l-0.0278 1.0021c-0.1103,-0.0251 -0.064,-0.0206 -0.1389,-0.0903l-0.1342 -0.1135c-0.2353,-0.2001 -0.5791,-0.1835 -0.5757,-0.3768 0.0073,-0.4255 0.0365,-0.955 -0.0702,-1.3567l-0.2452 -0.7159c0.0571,0.2991 0.1593,0.5516 0.205,0.8651 0.0424,0.2885 0.084,0.5964 0.0606,0.8885l-0.0262 0.1106c-0.1092,-0.3063 -0.0431,-0.4538 -0.2677,-0.8337 -0.1286,-0.2174 -0.3454,-0.4328 -0.5561,-0.5682l-1.7911 -0.4743c0.0882,0.2834 0.3197,0.5501 0.3987,0.8566 0.0136,0.0526 0.0231,0.1114 0.0328,0.1677 0.0109,0.0641 0.0286,0.1285 0.0026,0.1838zm7.302 15.7059c0.1203,-0.0463 0.0922,-0.1577 0.0903,-0.289 -0.002,-0.1377 0.0368,-0.2627 -0.0095,-0.3918 -0.0565,-0.1572 -0.0812,-0.1483 0.0172,-0.28l0.1035 -0.3028 0.3115 -0.088c-0.0328,-0.212 -0.2873,-0.5538 -0.3161,-1.0957 -0.012,-0.2256 0.0208,-0.4491 0.0787,-0.6514l0.0665 -0.5578c-0.0243,0.0183 -0.0107,-0.0055 -0.0333,0.0305 -0.011,0.017 -0.0129,0.0292 -0.0205,0.0452 -0.0278,0.0593 -0.0064,0.0335 -0.063,0.0822 -0.0457,-0.3837 -0.0051,-0.2324 -0.1449,-0.5808 0.2982,0.0818 0.347,0.2754 0.4627,0.5009 0.137,-0.3095 -0.1445,-0.6387 -0.3129,-0.7358 -0.1589,-0.0916 -0.1712,-0.1169 -0.2566,-0.3043 -0.062,-0.1354 -0.114,-0.2465 -0.1829,-0.3797l-0.5242 -1.714c-0.1184,0.1692 -0.2017,0.6507 -0.1463,0.8994 0.0661,0.2967 0.1783,0.5511 0.2824,0.8201 0.1602,0.4141 0.0275,0.5359 0.4994,0.873 0.1756,0.1252 0.2722,0.3684 0.2228,0.5808 -0.0248,0.1068 -0.1173,0.2648 -0.1622,0.3754 -0.4803,1.1827 0.4796,1.5029 0.038,2.1957 -0.103,0.1616 0.0164,0.2357 0.0325,0.4306 0.0147,0.1807 -0.0483,0.357 -0.0331,0.5373zm-7.7296 -7.9196l0.2227 -0.1293c-0.0361,0.0659 -0.0781,0.105 -0.1304,0.1629l-0.497 0.4518 0.2759 -0.4657c-0.1898,0.0453 -0.4803,0.2136 -0.6619,0.2994 -0.1228,0.0579 -0.2259,0.0755 -0.2697,0.2034 -0.0391,0.1144 -0.0823,0.2565 -0.1169,0.3785l-0.2161 1.5635c0.0195,-0.032 0.0124,0.052 0.025,-0.0707 0.0265,-0.2601 -0.0456,-0.0463 0.0648,-0.566l0.0201 0.0295c0.0474,0.1588 -0.0776,0.5649 0.0302,0.8219l0.2986 0.6221c-0.0123,-0.5964 -0.4477,-0.964 -0.1553,-1.4807 0.2584,-0.4568 0.4013,-0.7072 0.6789,-1.1561l-0.1008 1.1586c0.0654,-0.1694 0.1159,-0.5525 0.1723,-0.7589 0.0973,-0.3579 0.3144,-0.8278 0.5853,-1.0774l0.6148 -0.6075c-0.0921,0.0135 -0.1888,0.0864 -0.2358,0.1323l-0.2021 0.1801c-0.0898,0.1008 -0.0836,0.1115 -0.245,0.1349 -0.0952,0.0139 -0.2124,0.0787 -0.1576,0.1734zm1.5273 -6.5123c-0.082,-0.0436 -0.117,-0.1234 -0.1959,-0.1838 -0.4467,-0.342 -0.9169,-0.4955 -1.5107,-0.4787 -0.1205,0.0035 -0.6263,0.013 -0.742,0.0795l0.3352 0.2941c0.75,0.6272 0.9251,1.2508 1.0285,1.3765l0.2624 0.1937 -0.2834 -0.5811 0.321 0.5246c0.0863,-0.1757 -0.432,-0.7338 -0.5298,-0.8511 -0.0579,-0.0692 -0.0848,-0.0808 -0.1484,-0.1436l-0.271 -0.3137c0.1096,0.0459 0.2372,0.1686 0.33,0.2544 0.4502,0.4167 0.474,0.4809 0.7561,1.0489l0.1507 -0.05c0.0064,-0.1511 -0.2753,-0.506 -0.3766,-0.6294l-0.1788 -0.2262c-0.0377,-0.0435 -0.0746,-0.0633 -0.1156,-0.1086 -0.123,-0.1361 -0.2633,-0.2741 -0.4297,-0.4028 -0.125,-0.0965 -0.4028,-0.2409 -0.496,-0.3476 0.858,-0.0082 1.32,0.1126 1.8537,0.6308 0.1932,0.1872 0.0332,0.0222 0.1966,0.2087l0.1977 0.2237c-0.0351,-0.4141 -0.9043,-0.8662 -1.1865,-1.0288 0.3856,0.0251 0.8048,0.3473 1.0462,0.6343l0.1815 0.2085c-0.0483,-0.2792 -0.2219,-0.788 -0.3308,-1.0696 -0.0407,-0.1052 -0.0882,-0.2639 -0.1657,-0.3464 0.0553,0.3705 0.2273,0.5246 0.3013,1.0837zm-3.9073 14.3621c0.3598,0.025 0.3115,-0.0813 0.3503,-0.317 0.0172,-0.1046 0.0342,-0.2057 0.053,-0.3069 0.0426,-0.23 0.1958,-0.927 0.2703,-1.1223 0.0588,-0.1546 0.1811,-0.3277 0.25,-0.4704 0.136,-0.2825 -0.1229,-0.4283 -0.0501,-1.2174l0.0906 -1.1873c-0.0977,0.1126 -0.152,0.4192 -0.1031,0.5951 0.0734,0.265 -0.0192,0.3407 -0.0649,0.6066 -0.1471,0.8572 0.2708,0.6495 -0.0912,1.1657 -0.2948,0.4202 -0.3263,0.4519 -0.484,0.9987 -0.052,0.1808 -0.2451,1.1027 -0.2209,1.2552zm8.5581 -3.6613l0.3068 -0.1414c0.0169,0.1693 0.0098,0.6406 -0.0685,0.7597 -0.0781,0.1189 -0.3836,0.2471 -0.5295,0.324 -0.2945,0.1551 -0.2453,0.2434 -0.2549,0.6123 -0.0015,0.0567 -0.0148,0.1264 -0.011,0.1774 0.0071,0.0952 0.0434,0.0822 0.0431,0.1811l-0.0739 0.3494c-0.0341,0.0315 0.022,0.0139 -0.0393,0.0244l-0.2291 -0.021c0.0429,0.0691 -0.069,-0.0009 0.1465,0.0926 0.0601,0.0261 0.1128,0.0467 0.1615,0.0852 0.1132,0.0895 0.1046,0.1878 0.135,0.3646l0.1761 0.7921c0.0923,-0.0014 0.0604,-0.0045 0.2035,0.1221 -0.0408,-0.2114 -0.1635,-0.4484 -0.2254,-0.6907 -0.0326,-0.1265 -0.0563,-0.2377 -0.0805,-0.3709l-0.1533 -0.2981c-0.0034,-0.0942 0.0262,-0.2687 0.0489,-0.3605l-0.0306 -0.3364c0.0816,-0.1582 0.0632,-0.0635 0.0537,-0.2482l0.0612 -0.2938c0.0962,-0.1048 0.3636,-0.1928 0.5122,-0.2772l0.2354 -0.5297c0,-0.0828 0.0123,-0.4009 0.0315,-0.4637 0.0736,-0.2393 0.4274,-0.1842 0.4376,-0.5918 0.007,-0.2858 -0.0149,-0.1513 0.0595,-0.4422 -0.3551,-0.0528 0.0222,0.1703 -0.8142,-0.2465 0.069,0.0635 0.0768,0.082 0.1754,0.1451 0.2977,0.191 0.4829,0.2246 0.3631,0.5712 -0.1491,0.4319 -0.5678,0.5708 -0.6408,0.7109zm-2.0799 -3.0182l-0.0369 -0.317 0.4523 -0.0251c0.1649,0.1682 -0.0344,0.4205 -0.4154,0.3421zm-0.3882 -0.2326c-0.0191,-0.0257 -0.0294,-0.0282 -0.0366,-0.0773 -0.0133,-0.0903 0.029,-0.2475 0.0485,-0.3422 0.1181,0.0638 0.0726,0.1631 0.0372,0.3063 -0.0036,0.0151 -0.0079,0.04 -0.0131,0.0538 -0.0372,0.099 -0.0012,0.0155 -0.036,0.0594zm0.6144 -0.4945c0.1985,0.1866 0.1523,0.155 0.3713,0.3064 -0.0727,0.0222 -0.311,0.0125 -0.4408,0.0317 -0.2496,0.0373 -0.1611,0.0681 -0.3349,-0.0673l-0.0017 0.4472c-0.1861,-0.0129 -0.1295,-0.2336 -0.1061,-0.3744l0.0103 -0.4799c0.1643,0.1019 0.1446,0.1349 0.2969,0.3982 -0.009,-0.1498 -0.0277,-0.0768 -0.1008,-0.1648l0.1402 -0.0591c-0.0074,-0.0071 -0.0102,-0.0144 -0.0371,-0.0299l-0.1185 -0.0826c0.0129,-0.0103 0.0009,-0.0117 0.0399,-0.0268 0.2019,-0.0789 0.2902,-0.036 0.4774,0.0043 -0.061,0.0642 -0.1079,0.0496 -0.1961,0.097zm-0.2888 -0.3245c-0.6038,0.1482 -0.6057,0.8833 -0.225,1.1163 0.5507,0.3371 1.0579,-0.1784 0.9562,-0.6633 -0.0615,-0.2929 -0.3582,-0.5446 -0.7312,-0.453zm-3.7267 -4.0857l0.0917 -0.4475c-0.0596,0.0625 -0.1431,0.2404 -0.1892,0.3409 -0.0957,0.2085 -0.0423,0.256 0.0179,0.4348l-0.2719 0.8161 0.1829 -0.026 0.269 -0.5564 0.1715 0.5053c0.0582,-0.0457 0.119,-0.1693 0.1669,-0.2564l0.1695 -0.2776 -0.411 0.194c-0.0237,-0.1093 0.0789,-0.1728 0.1258,-0.3018l0.0622 -0.3844 -0.3381 0.4255c-0.0305,-0.0382 -0.1241,-0.2163 -0.1237,-0.2556l0.0243 -0.1065 0.0998 0.1587c0.1474,-0.1153 0.2114,-0.5609 0.2461,-0.7425 -0.1243,0.0306 -0.1301,0.1583 -0.2129,0.3491 -0.032,0.0737 -0.0272,0.0824 -0.0808,0.1303zm-0.4326 9.0171c-0.0305,-0.2288 -0.1949,-0.4026 -0.3385,-0.5774 -0.1708,-0.2086 -0.2697,-0.3125 -0.2843,-0.6178l0.0049 -1.7818c-0.1155,0.1867 -0.1995,2.0595 -0.125,2.2196 0.0681,0.1463 0.3284,0.3951 0.4595,0.5298 0.0654,0.0674 0.0766,0.0468 0.191,0.1678 0.0531,0.056 0.0238,0.0316 0.0924,0.0598zm1.4232 -9.4477c0.0053,0.003 0.0131,0.0018 0.0159,0.0087 0.0028,0.0071 0.0124,0.0067 0.0163,0.0079 0.2638,0.0847 0.6253,0.0051 0.8891,-0.0342l-0.0222 0.6093c0.0388,-0.003 0.0931,-0.0647 0.1182,-0.0959 0.1465,-0.1803 0.208,-0.2336 0.3565,-0.4456 -0.1251,0.045 -0.1355,0.0865 -0.2025,0.1727 -0.0706,0.0905 -0.1259,0.1337 -0.2124,0.2041l0.1146 -0.5823 -0.8373 0.1271c0.0237,-0.0534 0.4976,-0.3338 0.5865,-0.4577l0.1098 -0.2095c-0.0424,-0.0736 -0.0097,-0.0604 -0.2081,-0.0942 -0.1106,0.1051 -0.1292,0.2967 -0.301,0.4429 -0.1241,0.1058 -0.3081,0.2302 -0.4234,0.3467zm-2.551 10.3582c0.2958,-0.3404 -0.005,-0.8075 -0.0038,-1.2296 0.0011,-0.4435 0.0818,-0.933 0.1394,-1.3792 -0.1597,0.0515 -0.1459,0.271 -0.2072,0.5927 -0.0421,0.2198 -0.0912,0.4479 -0.1027,0.6803 -0.0132,0.2625 0.0025,0.448 0.0858,0.6812 0.129,0.3613 0.0994,0.2488 0.0885,0.6546zm1.3843 0.7446c0.0993,-0.0149 0.3205,-0.1316 0.4257,-0.1799 0.1407,-0.0647 0.3063,-0.1175 0.4583,-0.1714l0.7002 -0.2448c0.1218,-0.0401 0.1402,-0.0339 0.219,-0.1002 -0.5306,0.0453 -1.2453,0.3301 -1.7672,0.5111 0.0435,-0.1776 1.2775,-0.6154 1.4059,-0.666 -0.3357,0.0225 -0.9914,0.3023 -1.3208,0.4556 -0.1743,0.0812 -0.2044,0.2088 -0.1211,0.3956zm2.006 -8.3386l-0.0232 0.1612 -0.2839 -0.1191c0.1,0.1407 0.1908,0.2179 0.1369,0.4425l-0.0567 0.5758c0.2114,-0.1114 0.4666,-0.9594 0.5527,-1.2094 -0.0856,-0.0012 -0.2656,0.1071 -0.3258,0.149zm-2.1624 7.8529c0.1942,0.0022 0.4914,-0.2843 0.7854,-0.4127l0.8531 -0.3416c-0.1013,-0.0237 -0.7828,0.1999 -0.9232,0.2474 -0.1548,0.0524 -0.2935,0.1088 -0.4433,0.1646 -0.0623,0.0232 -0.1457,0.0777 -0.1799,0.113 -0.051,0.0526 -0.0853,0.134 -0.0921,0.2293zm1.3728 -6.6849l0.2092 -0.0154 0.1043 -0.2729 0.0823 0.2849 -0.0475 -0.9087c0.0593,0.046 0.0101,-0.0364 0.058,0.0576l0.0885 0.5554c0.0771,-0.0903 0.0391,-0.3941 0.0152,-0.5255l-0.2372 -0.3156c-0.0501,0.1884 -0.0004,0.4685 -0.0058,0.6699 -0.0058,0.2189 -0.2056,0.3316 -0.267,0.4703zm5.7724 1.1023c0.5389,0.0528 0.3048,0.0068 0.8444,0.1516 -0.0286,-0.0674 0.0074,-0.0125 -0.0393,-0.0731 -0.0106,-0.0137 -0.0304,-0.0311 -0.0444,-0.045 -0.0353,-0.0353 -0.055,-0.0544 -0.0906,-0.0896 -0.2731,-0.2703 -0.2054,-0.2841 -0.5682,-0.0484 -0.1241,0.0805 -0.0801,0.0413 -0.1019,0.1045zm-6.6556 -5.1431c0.1452,-0.0289 0.4579,-0.1874 0.6143,-0.2504 0.1031,-0.0416 0.2165,-0.0734 0.3312,-0.0963 0.1828,-0.0361 0.209,-0.0122 0.344,-0.0876l-1.0409 0.2335c0.0382,-0.0778 0.2705,-0.2466 0.4009,-0.3841l-0.3105 0.0016c-0.0759,0.0776 -0.3134,0.4735 -0.339,0.5833zm1.1106 4.4708c0.1267,0.0918 0.1608,-0.0227 0.2325,-0.1029 0.0457,-0.0512 0.0645,-0.0801 0.1067,-0.1185 0.0463,-0.0421 0.0776,-0.0568 0.1217,-0.1023l0.4674 -0.4192c-0.2706,0.0721 -0.5809,0.3407 -0.7664,0.479 -0.0895,0.067 -0.1858,0.1082 -0.1619,0.2639zm-1.4567 7.9526l0.2402 0.0019c0.0685,-0.0868 0.2488,-0.7429 0.2636,-0.8732 -0.0771,0.0594 -0.4537,0.7547 -0.5038,0.8713zm-1.9151 -0.0183c0.0941,-0.0351 0.1352,-0.1092 0.1892,-0.2116 0.0624,-0.1181 0.0514,-0.1964 0.0767,-0.3267l0.2569 -0.5923c-0.2452,0.1441 -0.5198,0.8861 -0.5228,1.1306zm0.9601 0.0249c0.0992,-0.0275 0.1506,-0.1611 0.2461,-0.3211 0.0749,-0.1257 0.1427,-0.2372 0.2195,-0.365 0.1058,-0.1767 0.2331,-0.3749 0.2973,-0.5788 0.0372,-0.1181 0.053,-0.1336 0.0277,-0.2189 -0.0508,0.0713 -0.2745,0.5582 -0.3784,0.7446 -0.0728,0.1303 -0.3953,0.6511 -0.4122,0.7392zm0.7518 -2.0045c0.0936,-0.0272 0.9206,-0.4737 1.0854,-0.5595 -0.1011,-0.0642 -0.7649,0.2683 -0.8866,0.3393 -0.1119,0.0654 -0.1604,0.1097 -0.1988,0.2202zm-0.4007 2.016l0.1197 0.0036c0.0517,-0.16 0.0499,-0.3799 0.0964,-0.5542l0.2243 -0.4255c-0.149,0.0696 -0.2407,0.2214 -0.3073,0.4099 -0.0479,0.1358 -0.1374,0.4209 -0.1331,0.5662zm1.9891 -9.5675c-0.0772,-0.0397 -0.2509,0.0143 -0.3681,-0.0796l-0.204 -0.2457c-0.1706,-0.1965 -0.2612,-0.3057 -0.3669,-0.5446 -0.1052,0.1432 0.0098,0.1862 0.2036,0.4376 0.0652,0.0847 0.1677,0.1902 0.2204,0.2747 0.1441,0.2316 0.3792,0.248 0.515,0.1576zm-2.5992 7.619c0.145,-0.0499 0.1285,-0.1336 0.3249,-0.2053l0.4029 -0.1295c-0.2583,-0.2919 -0.6585,0.1913 -0.7278,0.3348zm0.9372 1.9305c0.0772,-0.0168 0.0605,-0.0036 0.073,-0.1059 0.0295,-0.2422 0.0296,-0.2413 0.0842,-0.4955 0.051,-0.2368 0.0645,-0.4249 0.1948,-0.5037l0.0506 -0.0361c-0.2716,-0.124 -0.4356,1.0749 -0.4026,1.1412zm1.214 -7.8868c0.0467,-0.0794 0.2099,-0.5104 -0.0166,-0.3777 -0.1511,0.0885 -0.1871,0.349 0.0166,0.3777zm1.7737 -4.2672c0.1425,0.0573 0.211,-0.2184 0.3839,-0.386l0.1409 -0.1334c-0.1648,0.015 -0.2641,0.1259 -0.3287,0.2153l-0.1923 0.2149c-0.0066,0.0102 -0.0166,0.0328 -0.0175,0.0445 -0.003,0.039 0.0064,0.0284 0.0137,0.0447zm-5.2211 -2.4805c0.6927,0.0433 0.3541,-0.0174 1.0748,0.1228 -0.043,-0.0527 -0.1304,-0.071 -0.2113,-0.0993 -0.2501,-0.0876 -0.628,-0.1298 -0.8635,-0.0235zm2.2421 12.4253c0.2181,-0.0707 0.4679,-0.231 0.6913,-0.345 0.059,-0.0301 0.042,-0.0212 0.0936,-0.081 -0.1819,0.0309 -0.4668,0.1878 -0.6353,0.2804 -0.0945,0.0521 -0.1248,0.0455 -0.1496,0.1456zm-0.3575 -0.4699c-0.0154,0.0947 0.0773,0.1475 0.1767,0.1816 0.0345,0.0119 0.1133,0.034 0.1494,0.0376 0.0903,0.0095 0.1058,0.0014 0.1697,-0.0527 -0.0503,-0.0449 -0.0325,-0.03 -0.1119,-0.0583l-0.3669 -0.1132c-0.0039,0.0003 -0.0114,0.0034 -0.017,0.005zm1.7026 -5.1627l0.1868 -0.0323 -0.1016 -0.2351c-0.0454,0.055 -0.0816,0.1894 -0.0852,0.2674zm-0.0258 5.2169c0.093,0.0396 0.4214,-0.0955 0.5141,-0.1373 -0.0719,-0.0319 -0.456,0.0847 -0.5141,0.1373zm0.2385 -0.2447c0.184,0.0012 0.2939,-0.073 0.3428,-0.123 -0.1188,0.008 -0.2804,0.0266 -0.3428,0.123zm-2.8569 -2.1741c-0.015,-0.0549 -0.043,-0.1089 -0.047,-0.1514 -0.0082,-0.0849 0.0282,-0.0505 -0.0116,-0.1212 -0.1223,0.0957 -0.0708,0.2169 0.0586,0.2726zm0.1437 0.3508c0.0185,-0.1533 -0.003,-0.1765 -0.1224,-0.2126 0.0145,0.0539 0.0244,0.0839 0.0454,0.1319 0.044,0.1001 0.0019,0.053 0.077,0.0807zm4.4567 -6.7399l-0.1933 0.1415 0.4518 -0.5287c-0.0417,0.053 -0.0676,0.1597 -0.1151,0.1932 -0.1088,0.0766 -0.1445,0.008 -0.1434,0.194zm-2.701 1.0154l-0.0611 -0.1936c-0.0258,0.021 -0.026,0.004 -0.044,0.0391 -0.0191,0.0374 -0.0209,0.033 -0.0127,0.0772 0.012,0.0671 0.0546,0.0655 0.1178,0.0773zm0.6608 1.9766c0.0905,-0.0479 0.1479,-0.0858 0.1697,-0.2065 -0.0828,0.0663 -0.113,0.1059 -0.1697,0.2065zm2.3232 -3.7865l-0.0633 -0.2254c-0.0179,0.0419 -0.0154,0.0513 -0.0017,0.1152 0.0174,0.0809 0.0104,0.0853 0.065,0.1102zm-1.9816 3.4945c0.0072,-0.0225 -0.0012,-0.0005 0.0329,-0.0448 0.0536,-0.0694 0.0201,-0.0136 0.0504,-0.0891 -0.0871,0.0325 -0.0988,0.0295 -0.0833,0.1339zm-0.4207 0.1652c0.0717,-0.0291 0.0795,-0.0289 0.1115,-0.0982 -0.0763,0.0275 -0.0798,0.0264 -0.1115,0.0982z"/>
 </g>
</svg>
