<?xml version="1.0" encoding="UTF-8"?>
<!DOCTYPE svg PUBLIC "-//W3C//DTD SVG 1.1//EN" "http://www.w3.org/Graphics/SVG/1.1/DTD/svg11.dtd">
<!-- Creator: CorelDRAW -->
<svg xmlns="http://www.w3.org/2000/svg" xml:space="preserve" width="16.9332mm" height="16.9332mm" style="shape-rendering:geometricPrecision; text-rendering:geometricPrecision; image-rendering:optimizeQuality; fill-rule:evenodd; clip-rule:evenodd"
viewBox="0 0 16.9332 16.9332"
 xmlns:xlink="http://www.w3.org/1999/xlink">
 <defs>
  <style type="text/css">
   <![CDATA[
    .fil8 {fill:#AC0A46}
    .fil7 {fill:#B30A46}
    .fil3 {fill:#B5054A}
    .fil5 {fill:#B50645}
    .fil2 {fill:#BC044B}
    .fil6 {fill:#EAD4B9}
    .fil9 {fill:#F49AB6}
    .fil0 {fill:#FAA2BD}
    .fil4 {fill:#FB99B7}
    .fil1 {fill:#FB9CBA}
   ]]>
  </style>
 </defs>
 <g id="Capa_x0020_1">
  <metadata id="CorelCorpID_0Corel-Layer"/>
  <g id="_343405608">
   <path id="_581084248" class="fil0" d="M3.239 9.6411c-0.1198,-0.3829 -0.4934,-1.0504 -0.685,-1.3854l-0.6417 -1.4267c0.8845,0.6455 1.1088,0.4542 2.4416,0.327 -0.2262,-0.0947 -1.2125,-0.1704 -1.5287,-0.3738l-1.0515 -0.8681c0.7341,0.1481 1.4618,0.367 2.2453,0.3982l2.6638 -0.0007 -2.5176 -0.5974c-0.8802,0.0112 -1.733,-0.1562 -2.496,-0.5105 -0.2387,-0.1108 -0.4514,-0.2486 -0.6884,-0.3425 0.2146,0.7723 0.534,2.0232 0.8406,2.7168 0.0803,0.1814 0.5437,0.8688 0.6833,1.0581 0.1214,0.1647 0.2304,0.3372 0.357,0.5129l0.3324 0.4562c0.0041,0.0042 0.0192,0.0251 0.0222,0.0184 0.003,-0.0067 0.0153,0.0115 0.0227,0.0175z"/>
   <path id="_581084176" class="fil1" d="M8.3255 3.6464l-0.1879 0.485c0.1683,-0.0843 0.4336,-0.424 0.5586,-0.5844 0.1782,-0.2283 0.3073,-0.4665 0.4647,-0.7049l0.6897 1.948 -0.0069 -2.0845 0.7933 2.7758c0.0084,-0.0106 0.0217,-0.0386 0.0252,-0.0317 0.0034,0.0067 0.0183,-0.023 0.0225,-0.0318 0.1418,-0.2987 0.155,-1.208 0.1314,-1.4909 -0.0822,-0.9869 -0.1744,-0.7646 -0.3985,-1.2873 -0.0657,-0.0423 -0.018,0.0032 -0.0989,-0.0771 -0.3216,-0.3194 -0.7542,-0.8243 -1.143,-1.0134 -0.2658,-0.1292 -0.2084,-0.0284 -0.2293,-0.0168l-0.161 1.1947c-0.0384,0.1475 -0.3328,0.7995 -0.4599,0.9193z"/>
   <path id="_581852048" class="fil0" d="M1.6109 1.7709c0.0442,0.0255 -0.0427,0.011 0.0902,0.0405 0.1195,0.0265 1.4017,0.0935 1.7188,0.2503 0.7092,0.0009 2.533,0.531 3.0208,0.8568 0.6915,0.4619 1.2438,1.2443 1.6939,1.9508l0.1165 0.1505c-0.0695,-0.4602 -0.4792,-1.541 -0.7249,-1.8189 -0.4024,-0.4552 -0.7228,-0.8646 -1.3694,-1.2002 -1.2187,-0.6326 -3.1073,-0.3495 -4.5459,-0.2298z"/>
   <path id="_343461160" class="fil2" d="M3.239 9.6411c-0.0074,-0.006 -0.0197,-0.0242 -0.0227,-0.0175 -0.003,0.0067 -0.0181,-0.0142 -0.0222,-0.0184l-0.3324 -0.4562c-0.1266,-0.1757 -0.2356,-0.3482 -0.357,-0.5129 -0.1396,-0.1893 -0.603,-0.8767 -0.6833,-1.0581 -0.3066,-0.6936 -0.626,-1.9445 -0.8406,-2.7168 0.237,0.0939 0.4497,0.2317 0.6884,0.3425 0.763,0.3543 1.6158,0.5217 2.496,0.5105 -0.093,-0.1271 -0.1544,-0.1018 -0.4508,-0.1998 -1.4147,-0.468 -1.8379,-0.7447 -3.1006,-1.4726 -0.0209,1.8102 0.562,3.4905 1.6226,4.8217 0.4684,0.5878 0.5597,0.6102 1.136,1.0584 -0.0238,-0.0784 -0.0263,-0.0966 -0.0508,-0.1533 -0.0879,-0.2036 0.0383,0.0567 -0.0267,-0.0566 -0.0282,-0.0492 -0.0419,-0.055 -0.0559,-0.0709z"/>
   <path id="_341748344" class="fil3" d="M10.8088 10.7485c-0.054,-0.0959 -0.0254,-0.4012 -0.1527,-0.6061l-0.3695 -0.4466 0.0611 1.057c-0.1023,-0.0713 -0.2631,-0.6301 -0.4546,-0.7585l-0.8315 -0.3457 1.0495 2.299c1.6045,-0.0705 1.9744,-2.7288 1.0723,-3.2475 0.1247,0.4984 0.2334,1.0746 0.113,1.5953 -0.1441,0.6234 -0.4219,0.7979 -0.6288,1.1161l0.1412 -0.663z"/>
   <path id="_343458808" class="fil4" d="M12.2175 6.4352l-0.7736 0.4355c0.715,-0.0399 1.4553,-0.2359 2.0449,-0.481l2.0799 -0.1269c-0.2812,0.3289 -0.4386,0.3275 -0.6776,1.0328l-0.4156 1.3043 0.9736 -1.4121c0.377,-0.5261 0.2797,-0.4273 0.6784,-0.8109 0.0785,-0.0754 0.0655,-0.0821 0.1437,-0.1459 0.1164,-0.0949 0.2278,-0.1929 0.3679,-0.2607 -0.0745,-0.0494 0.1455,-0.1075 -0.2583,0.0366 -0.238,0.085 -1.0894,-0.2456 -2.0799,-0.1975 -0.8263,0.0402 -1.4092,0.3805 -2.0834,0.6258z"/>
   <path id="_581850824" class="fil5" d="M12.5629 8.9818c0.3639,-0.0053 0.884,0.2981 1.477,0.1885l1.3919 -0.3454c-0.0453,0.1995 -0.1311,0.2755 -0.2373,0.4319 -0.0618,0.0911 -0.2345,0.29 -0.2763,0.4369 0.6901,-0.4315 0.6191,-0.3893 1.289,-0.9074 -0.1262,0.3545 -0.8391,1.2358 -1.1013,1.4996 -0.2886,0.2901 -1.0583,0.9121 -1.4161,1.211 0.1976,-0.0377 0.8763,-0.3831 1.09,-0.4955 0.4801,-0.2525 0.6024,-0.4061 0.8893,-0.7726l1.2427 -2.0259c-0.5915,0.0405 -1.479,0.3433 -2.0764,0.4857 -0.3593,0.0857 -0.6903,0.1314 -1.093,0.1892 -0.2693,0.0386 -1.0217,0.0486 -1.1795,0.104z"/>
   <path id="_581848256" class="fil6" d="M12.1435 11.5973c-0.0325,0.7559 -0.2787,0.8824 -0.8179,1.1691 -0.6379,0.339 -0.4007,0.6024 -0.6948,1.2549 -0.291,0.6457 -1.4708,1.8277 -2.1345,1.78 -0.4176,-0.03 -1.0824,-0.5033 -1.3213,-0.6856 -0.4785,-0.365 -0.653,-0.3616 -0.8908,-1.0543 -0.1568,-0.4566 -0.2363,-1.1238 -0.7008,-1.2507 -0.3922,-0.1071 -0.4884,0.0176 -0.6575,-0.3353 -0.1065,-0.2225 -0.1821,-0.5256 -0.1602,-0.7913l-0.0709 -0.031c-0.0536,0.0536 -0.1083,0.116 -0.1802,0.1821 0.0088,0.2915 0.1222,0.7383 0.2609,0.954 0.1537,0.239 0.5808,0.2502 0.8887,0.3124 0.4929,1.1937 0.495,1.5089 1.4648,2.2273 1.2871,0.9535 1.8679,0.9754 3.2297,-0.5454 0.6417,-0.7166 0.5024,-1.6274 1.0966,-1.7944 0.0729,-0.1118 0.4608,-0.3382 0.6052,-0.4416l0.0688 -0.0427c0.141,-0.3762 0.2737,-0.7751 0.3057,-1.2191l0.0026 -0.1531c-0.0684,0.0735 -0.268,0.3877 -0.2941,0.4647z"/>
   <path id="_582302792" class="fil5" d="M6.0917 10.2909c-0.0599,0.4504 -0.0796,0.7603 -0.0864,1.2316 -0.2149,-0.254 -0.3202,-0.9468 -0.2629,-1.3637 0.0631,-0.459 0.1444,-0.9485 0.2389,-1.4082 -0.2701,0.2036 -0.6033,1.3926 -0.5654,1.8945 0.0447,0.593 0.4154,1.3516 0.719,1.6886 0.2683,-0.4949 0.6649,-1.2735 0.9922,-1.6938 0.192,-0.2465 0.4603,-0.4844 0.7278,-0.641 0.3371,-0.1972 0.5822,-0.2708 0.8852,-0.4265 -0.9868,0.0611 -1.3314,-0.0582 -1.7415,0.5654 -0.1877,0.2852 -0.6564,1.2229 -0.7518,1.5159 0.1422,-1.9098 0.1259,-0.9652 0.5547,-1.7992l-0.7098 0.4364z"/>
   <path id="_582302816" class="fil2" d="M3.4199 2.0617c-0.3171,-0.1568 -1.5993,-0.2238 -1.7188,-0.2503 -0.1329,-0.0295 -0.046,-0.015 -0.0902,-0.0405l-0.0929 0.0237c0.7381,0.5653 0.9746,0.6371 1.6078,1.5365 0.7641,1.0854 0.8869,1.8966 1.077,2.1415 0.0071,-0.8288 -0.0383,-1.0858 -0.388,-1.6686l-0.7863 -1.2848c0.6293,0.0763 1.188,0.7666 1.5903,1.1812 -0.1063,-0.4628 -0.5354,-1.2349 -1.044,-1.5226 -0.2204,-0.1246 -0.24,-0.0537 -0.1549,-0.1161z"/>
   <path id="_582302432" class="fil7" d="M10.8335 5.7181c0.5887,-0.1389 0.7434,0.4093 1.9943,-0.982l0.2165 -0.236 0.0959 -0.1371 0.1237 1.4306 -0.8089 0.4331c-0.2068,0.1215 -0.1624,0.0776 -0.2375,0.2085 0.6742,-0.2453 1.2571,-0.5856 2.0834,-0.6258 0.9905,-0.0481 1.8419,0.2825 2.0799,0.1975 0.4038,-0.1441 0.1838,-0.086 0.2583,-0.0366l0.0589 -0.0938c-0.2361,-0.1456 -1.2223,-0.2585 -1.5682,-0.2967l-1.7665 0.1543c0.2241,-0.9959 0.2404,-0.6925 -0.1402,-1.7973 -0.1561,0.1178 -0.3312,0.4132 -0.4631,0.5652 -0.1665,0.1919 -0.3006,0.3214 -0.5234,0.5106 -0.2012,0.1707 -0.3647,0.2937 -0.6236,0.4146 -0.1704,0.0795 -0.6951,0.2068 -0.7795,0.2909z"/>
   <path id="_582302768" class="fil4" d="M12.5629 8.9818l-0.4856 0.045c0.1481,0.1087 0.791,0.3223 1.0129,0.3799l1.3427 0.0337c-0.1087,0.2851 -0.978,1.0895 -1.2371,1.3444 0.3883,-0.0839 0.6621,-0.2775 0.9498,-0.4619 0.3912,-0.2507 0.4769,-0.361 0.7726,-0.6292 0.0418,-0.1469 0.2145,-0.3458 0.2763,-0.4369 0.1062,-0.1564 0.192,-0.2324 0.2373,-0.4319l-1.3919 0.3454c-0.593,0.1096 -1.1131,-0.1938 -1.477,-0.1885z"/>
   <path id="_582302456" class="fil5" d="M4.5146 11.8352c0.0719,-0.0661 0.1266,-0.1285 0.1802,-0.1821l0.0709 0.031c0.075,-0.1586 0.2673,-0.2009 0.4605,-0.3303 0.0102,-0.0068 0.0633,-0.0427 0.0747,-0.0533 0.0739,-0.0687 0.0081,0.0055 0.068,-0.0931l-0.899 0.1772c-0.2088,0.1403 -0.3236,0.4376 -0.4877,0.5516l0.3568 -0.9324c0.1606,-0.13 0.6428,-0.4424 0.7201,-0.566l-0.7331 0.2426c0.1438,-0.1831 0.923,-1.138 0.9736,-1.2451l-1.231 1.1743c-0.3449,0.5183 -0.4178,1.2906 -0.323,2.0581l0.3852 -0.465c0.0766,-0.1009 0.3237,-0.4191 0.3838,-0.3675z"/>
   <path id="_582302672" class="fil1" d="M5.9813 8.7506c-0.0945,0.4597 -0.1758,0.9492 -0.2389,1.4082 -0.0573,0.4169 0.048,1.1097 0.2629,1.3637 0.0068,-0.4713 0.0265,-0.7812 0.0864,-1.2316 0.2207,-1.5991 0.2735,-1.3657 1.6335,-2.1926 -0.1969,-0.0214 -0.7904,0.1155 -0.9802,0.1695 -0.334,0.0951 -0.6902,0.1825 -0.7637,0.4828z"/>
   <path id="_582302384" class="fil8" d="M2.5044 11.9482c0.3916,-0.0728 0.5444,-0.0716 0.8214,-0.2587 0.1345,-0.0908 0.1226,-0.0685 0.1704,-0.1765 -1.0881,0.1242 -0.9425,0.1482 -2.0048,0.1118 1.5137,1.3679 1.3517,1.4516 3.1582,1.339l-0.1862 -0.0666c-0.0641,-0.0128 -0.1263,-0.0182 -0.1915,-0.0264 -0.6151,-0.0779 -1.1798,-0.1121 -1.6771,-0.4693 -0.1821,-0.1309 -0.2803,-0.2661 -0.4199,-0.3719l0.6857 0.201c0.1544,0.0316 0.5567,-0.0381 0.6202,-0.2963l-0.9764 0.0139z"/>
   <path id="_582302624" class="fil3" d="M3.1546 10.5993c-0.3868,-0.0404 -0.7887,-0.3288 -1.3712,-0.3333l-1.4183 0.3579c0.1066,-0.3172 0.4859,-0.9249 0.7706,-1.0817 0.2267,-0.1248 0.2509,-0.2603 0.3048,-0.2253l0.3401 -0.5874c-0.2668,0.0608 -0.8811,0.6531 -1.0624,0.8488l-0.6969 1.2882c0.6269,-0.0881 0.9627,-0.2944 1.7612,-0.2756l1.7903 0.2371 -0.4182 -0.2287z"/>
   <path id="_582302480" class="fil4" d="M10.8088 10.7485l-0.1412 0.663c0.2069,-0.3182 0.4847,-0.4927 0.6288,-1.1161 0.1204,-0.5207 0.0117,-1.0969 -0.113,-1.5953l-1.5864 -0.5497c0.0281,0.0252 0.0349,0.0376 0.0817,0.0672 0.311,0.1972 0.8779,0.4276 1.0817,0.8671 0.2475,0.5339 0.3334,1.146 0.0484,1.6638z"/>
   <path id="_582302528" class="fil3" d="M8.3255 3.6464c0.1271,-0.1198 0.4215,-0.7718 0.4599,-0.9193l0.161 -1.1947c0.0209,-0.0116 -0.0365,-0.1124 0.2293,0.0168 0.3888,0.1891 0.8214,0.694 1.143,1.0134 0.0809,0.0803 0.0332,0.0348 0.0989,0.0771 -0.1333,-0.3926 -0.4483,-0.8153 -0.6961,-1.0538l-1.0906 -0.6472c-0.0252,0.4807 0.0182,0.9899 -0.0493,1.4564 -0.0645,0.4453 -0.2082,0.8373 -0.2561,1.2513z"/>
   <path id="_582302552" class="fil8" d="M12.1293 12.5048l-0.0688 0.0427c-0.1444,0.1034 -0.5323,0.3298 -0.6052,0.4416 -0.0157,0.018 0.01,-0.0211 -0.035,0.0817 1.5106,-0.5857 1.5377,-0.7426 3.0958,-0.8484 -0.1588,-0.158 -0.1686,-0.1846 -0.3768,-0.2986 -0.1335,-0.0732 -0.3039,-0.144 -0.4725,-0.1905 -0.3202,-0.0884 -0.7839,-0.1694 -1.1378,-0.1213l1.4725 0.4696 -1.0353 0.1291c-0.3019,0.0646 -0.6628,0.2842 -0.8369,0.2941z"/>
   <path id="_582302576" class="fil8" d="M12.1435 11.5973c0.0261,-0.077 0.2257,-0.3912 0.2941,-0.4647l-0.0026 0.1531c0.0416,-0.1003 0.0197,-0.1724 0.0581,-0.2933 0.0473,-0.149 0.2512,-0.4861 0.2556,-0.7496l-1.12 1.4221 0.2247 -0.8156c-0.0074,-0.2777 -0.0287,-0.7248 -0.1089,-0.946 -0.0639,0.498 -0.1057,1.3045 -0.3261,1.6713 -0.0835,0.1391 -0.199,0.2715 -0.2416,0.4521l0.5584 -0.1762c0.1587,-0.08 0.2631,-0.2071 0.4083,-0.2532z"/>
   <path id="_582302600" class="fil1" d="M3.1546 10.5993c-0.2105,-0.2957 -0.6397,-0.5799 -1.035,-0.5279l-1.3732 0.2427c0.2105,-0.604 0.6293,-0.5271 0.6941,-0.9972 -0.0539,-0.035 -0.0781,0.1005 -0.3048,0.2253 -0.2847,0.1568 -0.664,0.7645 -0.7706,1.0817l1.4183 -0.3579c0.5825,0.0045 0.9844,0.2929 1.3712,0.3333z"/>
   <path id="_582302648" class="fil9" d="M10.8335 5.7181l-0.9981 0.7734c0.2963,-0.1655 0.3286,-0.2873 0.8015,-0.4639 0.691,-0.2579 1.4644,0.0228 1.9654,-0.6479 0.1584,-0.2121 0.3757,-0.5906 0.442,-0.8796l-0.2165 0.236c-1.2509,1.3913 -1.4056,0.8431 -1.9943,0.982z"/>
  </g>
 </g>
</svg>
