<?xml version="1.0" encoding="UTF-8"?>
<!DOCTYPE svg PUBLIC "-//W3C//DTD SVG 1.1//EN" "http://www.w3.org/Graphics/SVG/1.1/DTD/svg11.dtd">
<!-- Creator: CorelDRAW -->
<svg xmlns="http://www.w3.org/2000/svg" xml:space="preserve" width="16.9332mm" height="16.9332mm" style="shape-rendering:geometricPrecision; text-rendering:geometricPrecision; image-rendering:optimizeQuality; fill-rule:evenodd; clip-rule:evenodd"
viewBox="0 0 16.9332 16.9332"
 xmlns:xlink="http://www.w3.org/1999/xlink">
 <defs>
  <style type="text/css">
   <![CDATA[
    .fil19 {fill:#414141}
    .fil27 {fill:#454546}
    .fil23 {fill:#4A4A4A}
    .fil16 {fill:#595959}
    .fil30 {fill:#5B5D5B}
    .fil26 {fill:#626262}
    .fil29 {fill:#666666}
    .fil12 {fill:#675749}
    .fil24 {fill:#676767}
    .fil13 {fill:dimgray}
    .fil21 {fill:#6D6D6D}
    .fil11 {fill:#747474}
    .fil15 {fill:#786E66}
    .fil20 {fill:#797979}
    .fil22 {fill:gray}
    .fil18 {fill:#868686}
    .fil28 {fill:#877768}
    .fil17 {fill:#8D8D8D}
    .fil14 {fill:#949494}
    .fil4 {fill:#959595}
    .fil7 {fill:#969696}
    .fil8 {fill:#989898}
    .fil2 {fill:#999999}
    .fil10 {fill:#9A9A9A}
    .fil0 {fill:#9C9C9C}
    .fil5 {fill:#9D9D9D}
    .fil25 {fill:darkgray}
    .fil6 {fill:#E8CDB8}
    .fil9 {fill:#ECECEC}
    .fil3 {fill:#EDEDED}
    .fil1 {fill:#EFEFEF}
   ]]>
  </style>
 </defs>
 <g id="Capa_x0020_1">
  <metadata id="CorelCorpID_0Corel-Layer"/>
  <g id="_584695544">
   <path id="_584661968" class="fil0" d="M3.2328 9.6552c-0.0845,-0.3606 -0.4817,-1.0709 -0.6697,-1.3981l-0.6434 -1.4294c0.3268,0.191 0.5452,0.4441 1.0661,0.458l1.399 -0.1383c-0.5514,-0.1505 -1.0113,-0.132 -1.5498,-0.3667l-1.0426 -0.8709c0.6633,0.1433 1.5207,0.3819 2.2294,0.3981l2.6922 0.0144c-0.7426,-0.2507 -1.7387,-0.338 -2.4512,-0.6188 -0.1323,0.1095 -1.6934,-0.1569 -1.8177,-0.1883 -0.6182,-0.1557 -1.1055,-0.5187 -1.4585,-0.6387 0.2212,0.7873 0.5267,1.9572 0.8265,2.6794 0.139,0.3347 1.1703,1.8093 1.4197,2.0993z"/>
   <path id="_584662136" class="fil1" d="M3.3865 9.9871l0.0547 -0.0064c-0.0229,-0.0483 -0.1661,-0.2793 -0.2084,-0.3255 -0.2494,-0.29 -1.2807,-1.7646 -1.4197,-2.0993 -0.2998,-0.7222 -0.6053,-1.8921 -0.8265,-2.6794 0.353,0.12 0.8403,0.483 1.4585,0.6387 0.1243,0.0314 1.6854,0.2978 1.8177,0.1883 -0.6049,-0.258 -1.3089,-0.428 -1.9279,-0.7009 -0.4838,-0.2133 -1.2186,-0.6752 -1.7029,-0.9705 -0.0941,0.4763 0.0852,1.4759 0.1936,1.94 0.1448,0.6195 0.3449,1.0738 0.5945,1.6014 0.2442,0.516 0.5328,0.9371 0.8598,1.3374 0.2501,0.3061 0.7769,0.8927 1.1066,1.0762z"/>
   <path id="_584661560" class="fil2" d="M8.344 3.6056c-0.0493,0.0569 -0.0096,-0.0675 -0.0679,0.1117 -0.0557,0.1714 0.0047,0.0707 -0.1364,0.414 0.319,-0.1748 0.8084,-0.9428 1.0242,-1.2983 0.5154,0.2729 0.5844,1.4267 0.6863,2.0745l-0.011 -2.2036 0.8472 2.7189c0.0484,-0.1081 0.0442,-0.1505 0.0654,-0.2706 0.1029,-0.5838 0.1261,-1.4191 -0.0514,-1.9668 -0.0382,-0.1181 -0.0732,-0.1845 -0.1301,-0.2829 -0.0797,-0.1378 -0.0883,-0.2071 -0.1757,-0.288 -0.0521,-0.0114 -0.4483,-0.4139 -0.526,-0.5042 -0.1354,-0.1574 -0.6793,-0.6432 -0.9213,-0.5955 -0.1736,1.3181 -0.0283,0.9829 -0.4923,1.9575 -0.0877,0.1842 -0.0597,0.2306 -0.111,0.1333z"/>
   <path id="_584662304" class="fil3" d="M12.9931 8.9332c-0.0418,0.0246 -0.029,0.0102 -0.0655,0.0315 -0.0596,0.0348 -0.0585,0.0369 -0.0942,0.067 2.1562,0.1882 0.9231,0.1671 2.5985,-0.2002l-0.4422 0.716 0.0318 0.0754c0.2571,-0.1202 0.4464,-0.2577 0.6559,-0.4171 0.1031,-0.0784 0.2158,-0.1622 0.3061,-0.2351 0.1025,-0.0828 0.156,-0.1518 0.2515,-0.2257 0.0677,-0.0984 -0.1053,-0.0481 0.1015,-0.0852l-0.049 0.0771c-0.004,0.0052 -0.0202,0.0302 -0.0234,0.0231 -0.0032,-0.0073 -0.017,0.015 -0.0253,0.0226 -0.1877,0.3455 -0.8203,1.2402 -1.1009,1.4997 -0.1194,0.1105 -0.2593,0.1969 -0.3602,0.3025 -0.1407,0.1473 -0.9417,0.8009 -1.0606,0.8675l0.0519 0.0196c0.2226,-0.0517 0.8848,-0.3902 1.095,-0.5089 0.4379,-0.2471 0.5706,-0.4113 0.8421,-0.777 0.2672,-0.36 1.0787,-1.5884 1.2271,-1.987l-3.9401 0.7342z"/>
   <path id="_584662496" class="fil4" d="M12.052 6.5081l-0.6047 0.3631c0.7106,-0.0796 1.4351,-0.2305 2.038,-0.479l2.0686 -0.1358c-0.0064,0.0084 -0.0158,0.0114 -0.0191,0.0253l-0.0877 0.0812c-0.0539,0.0444 -0.0573,0.0364 -0.1087,0.0981 -0.0496,0.0594 -0.1175,0.1641 -0.1723,0.245 -0.2504,0.3696 -0.5374,1.4089 -0.6884,1.8799 0.1651,-0.1521 1.0878,-1.6334 1.3408,-1.8947l0.586 -0.5719c0.1721,-0.1279 0.0937,-0.0514 0.1742,-0.1791 -0.3234,0.1125 -0.2085,0.1239 -0.5643,0.0527 -1.2108,-0.2423 -1.9062,-0.2919 -3.0649,0.1513 -0.1449,0.0554 -0.873,0.4089 -0.8975,0.3639z"/>
   <path id="_584663600" class="fil5" d="M1.6195 1.8543c0.0005,-0.0687 0.7618,0.0094 0.858,0.0206 0.1349,0.0158 0.2969,0.042 0.4216,0.0724 0.1806,0.0441 0.2177,0.1115 0.3755,0.1297 0.0713,-0.093 0.1111,-0.044 0.4035,0.0061 1.0601,0.1819 2.1475,0.3835 2.9881,0.9929 0.3352,0.2431 0.9286,0.9798 1.1651,1.319l0.389 0.5895 0.0179 -0.0048c-0.0285,-0.4268 -0.5047,-1.5192 -0.7196,-1.802 -0.0928,-0.1222 -0.19,-0.2068 -0.29,-0.3339 -0.1,-0.127 -0.2033,-0.2306 -0.3291,-0.3343 -0.2484,-0.2047 -0.4252,-0.3458 -0.7639,-0.5211l-4.6093 -0.2036c0.0481,0.1264 -0.0103,0.0129 0.0932,0.0695z"/>
   <path id="_584663384" class="fil6" d="M12.1313 11.56c0.0747,0.7487 -0.3402,0.9679 -0.7754,1.1975 -0.9547,0.5034 -0.137,1.141 -1.5849,2.355 -0.9652,0.8093 -1.2628,1.0252 -2.5923,0.0092 -0.4785,-0.3658 -0.6521,-0.3602 -0.8906,-1.054 -0.1632,-0.4749 -0.2373,-1.1431 -0.7344,-1.2595 -0.4092,-0.0958 -0.471,0.0067 -0.6375,-0.3544 -0.1163,-0.2521 -0.167,-0.5497 -0.147,-0.85 -0.0112,0.0095 -0.0235,0.0227 -0.0331,0.0293l-0.0914 0.0543c-0.1054,0.0493 -0.1911,-0.0427 -0.1388,0.1219 0.0631,0.415 0.1078,0.8223 0.3759,1.104 0.2418,0.1173 0.4988,0.1375 0.7845,0.196 0.1867,0.4527 0.4182,1.0907 0.669,1.4878 0.271,0.4291 1.5272,1.362 2.1223,1.4086 0.6197,0.0485 1.389,-0.6343 1.7862,-1.0824 0.4247,-0.4791 0.5083,-0.7279 0.7452,-1.3709 0.0972,-0.2642 0.1134,-0.3511 0.2708,-0.4326 0.0291,-0.107 0.0473,-0.0891 0.1412,-0.1087 0.0065,-0.0076 0.015,-0.0311 0.0186,-0.0234 0.0035,0.0076 0.016,-0.0176 0.0209,-0.0201 0.0585,-0.0302 0.0154,-0.0161 0.0866,-0.0288 0.066,-0.0723 -0.0724,0.0165 0.0884,-0.0879 0.0892,-0.058 -0.0077,-0.0118 0.1106,-0.0438 0.0301,-0.0405 0.0039,-0.0214 0.0668,-0.0667 0.0844,-0.0609 -0.05,0.0109 0.0704,-0.024 0.0195,-0.021 -0.0113,0.0001 0.0539,-0.0553 0.0082,-0.0069 0.0356,-0.0271 0.0454,-0.0345 0.0448,-0.0338 0.0722,-0.0492 0.1381,-0.1004 0.1701,-0.2141 0.3455,-1.0276 0.3549,-1.3788 -0.0652,0.0567 -0.0819,0.1186 -0.1413,0.2025 -0.0484,0.0683 -0.1257,0.1485 -0.183,0.2101z"/>
   <path id="_584663504" class="fil3" d="M6.299 11.5943l-0.022 0.1113c-0.0475,-0.0688 -0.074,0.1153 -0.0527,-0.3097 0.0066,-0.1322 0.0009,-0.1933 0.0443,-0.2897 -0.0628,-0.7254 0.442,-1.0369 0.5747,-1.276 -0.1595,0.0874 -0.6102,0.3031 -0.6782,0.4443 -0.2061,0.2973 -0.1492,0.8496 -0.1588,1.2588l-0.2581 -1.3675c0.0318,-0.2281 0.0691,-0.4806 0.1116,-0.7141l0.0999 -0.5229c0.0246,-0.2251 0.0261,-0.1007 -0.037,-0.1464 -0.2328,0.5633 -0.5716,1.1802 -0.5004,1.9112 0.0513,0.5251 0.4356,1.3579 0.7157,1.6501l0.4756 -0.8866c0.328,-0.6161 0.6456,-1.0704 1.24,-1.4544 0.2825,-0.1826 0.584,-0.2771 0.8947,-0.4241 -1.0096,0.0621 -1.3003,-0.0505 -1.7124,0.5188 -0.1783,0.2462 -0.6486,1.156 -0.7369,1.4969z"/>
   <path id="_584663240" class="fil1" d="M3.0381 2.5668c-0.06,-0.0636 -0.0389,0.0821 -0.0526,-0.08l0.104 0.0372c0.3574,0.0729 0.5732,0.2743 0.81,0.4571 0.3051,0.2356 0.4325,0.3509 0.652,0.6641l0.0553 -0.0124c-0.1026,-0.351 -0.3141,-0.6588 -0.4959,-0.9442 -0.1582,-0.2484 -0.4509,-0.5572 -0.8363,-0.6116 -0.1578,-0.0182 -0.1949,-0.0856 -0.3755,-0.1297 -0.1247,-0.0304 -0.2867,-0.0566 -0.4216,-0.0724 -0.0962,-0.0112 -0.8575,-0.0893 -0.858,-0.0206l1.0389 0.8758 0.5388 0.7053c0.5424,0.8097 0.6832,1.3025 1.0235,2.1966 0.0153,-1.7537 -0.4533,-1.7195 -1.1826,-3.0652z"/>
   <path id="_584664512" class="fil3" d="M10.7237 10.4169c-0.0055,-0.2895 -0.2649,-0.6025 -0.397,-0.7117 -0.0723,0 -0.0453,-0.0142 -0.0483,0.0743 0.0725,0.2965 0.0995,0.6005 0.0907,0.9172l-0.0435 0.0836 -0.0408 -0.0942c-0.2593,-0.5981 -0.5282,-1.0037 -1.239,-1.064 0.9654,0.7186 0.9313,0.9704 1.0734,2.3488l1.4065 -1.2012c0.1074,-0.3317 0.1481,-0.784 0.1216,-1.1558 -0.0314,-0.4385 -0.2018,-0.6367 -0.3773,-0.8877 -0.0517,0.0493 -0.0873,-0.0601 -0.0413,0.1795 0.047,0.2456 0.0653,0.2464 0.0986,0.5667 0.1297,1.2478 -0.423,1.5532 -0.6522,1.9426l0.0486 -0.9981z"/>
   <path id="_584664248" class="fil4" d="M12.9931 8.9332l-0.9323 0.0708c0.1982,0.1423 0.7273,0.3128 1.0109,0.3918l1.3637 0.0374c-0.1025,0.2297 -0.8497,0.9731 -1.0827,1.1772l-0.1716 0.1741c0.746,-0.121 1.4281,-0.8649 1.8404,-1.1616l-0.0318 -0.0754 0.4422 -0.716c-1.6754,0.3673 -0.4423,0.3884 -2.5985,0.2002 0.0357,-0.0301 0.0346,-0.0322 0.0942,-0.067 0.0365,-0.0213 0.0237,-0.0069 0.0655,-0.0315z"/>
   <path id="_584664488" class="fil3" d="M3.7354 12.5814c0.0685,0.1125 -0.0028,0.0088 0.0908,0.07 0.1323,-0.2602 0.5005,-0.7035 0.6797,-0.8421 -0.0523,-0.1646 0.0334,-0.0726 0.1388,-0.1219l0.0914 -0.0543c0.0096,-0.0066 0.0219,-0.0198 0.0331,-0.0293l0.6207 -0.3301c-0.0538,-0.077 -0.0113,-0.0445 -0.169,-0.0419 -0.213,-0.0004 -0.6102,0.0634 -0.7714,0.1729 -0.1084,0.0737 -0.3543,0.397 -0.4097,0.5509 -0.056,0.0828 0.0514,0.0164 -0.0782,0.0892l0.0085 -0.1103c0.062,-0.3481 0.1359,-0.74 0.3706,-0.9242 0.1046,-0.0821 0.2354,-0.1849 0.3517,-0.2719 0.1422,-0.1063 0.222,-0.1415 0.3472,-0.2605l-0.0063 -0.0211 -0.7193 0.2378 1.0345 -1.2805 -0.0554 -0.0076c-0.3589,0.2235 -0.977,0.8604 -1.201,1.1875 -0.3699,0.5403 -0.3954,1.2378 -0.3567,1.9874z"/>
   <path id="_584663888" class="fil1" d="M3.57 10.8402l0.0034 -0.0086 -0.4157 -0.2114c-0.1985,-0.0472 -0.4307,-0.1665 -0.6575,-0.2245 -1.2564,-0.3219 -1.2227,0.0827 -2.1289,0.2325 0.1372,-0.2331 0.488,-0.8991 0.7098,-1.0534l0.3531 -0.2145c0.0671,-0.2256 0.3178,-0.4188 0.3845,-0.6837l-0.7188 0.5424c-0.0554,0.0489 -0.0677,0.0801 -0.1169,0.1295 -0.0968,0.0972 -0.1534,0.135 -0.2544,0.2457 -0.2933,0.3215 -0.6394,0.8697 -0.7287,1.3011 1.2902,-0.2224 1.5936,-0.4005 2.7382,-0.2065 0.223,0.0378 0.6441,0.1573 0.8319,0.1514z"/>
   <path id="_584663936" class="fil7" d="M10.7237 10.4169l-0.0486 0.9981c0.2292,-0.3894 0.7819,-0.6948 0.6522,-1.9426 -0.0333,-0.3203 -0.0516,-0.3211 -0.0986,-0.5667 -0.046,-0.2396 -0.0104,-0.1302 0.0413,-0.1795 -0.0078,-0.0084 -0.0179,-0.0197 -0.0239,-0.0248 -0.0058,-0.0049 -0.0173,-0.0172 -0.0246,-0.0229 -0.3217,-0.2512 -1.1926,-0.4947 -1.529,-0.5033l-0.0505 0.0404c0.2156,0.0591 0.4935,0.2571 0.6681,0.377 0.6914,0.4746 0.8522,1.482 0.4907,2.1822l-0.0771 -0.3579z"/>
   <path id="_584663816" class="fil8" d="M5.9227 8.7824c0.0631,0.0457 0.0616,-0.0787 0.037,0.1464l-0.0999 0.5229c-0.0425,0.2335 -0.0798,0.486 -0.1116,0.7141l0.2581 1.3675c0.0096,-0.4092 -0.0473,-0.9615 0.1588,-1.2588 -0.0727,-0.0332 -0.1003,0.1415 -0.0252,-0.3696 0.1664,-1.1314 0.4233,-1.0704 1.5688,-1.8179 -0.3111,0.0055 -0.745,0.1168 -1.0357,0.1961 -0.3796,0.1035 -0.6142,0.2078 -0.7503,0.4993z"/>
   <path id="_584665064" class="fil3" d="M4.7044 12.9893c-0.0687,-0.0549 0.0599,-0.0222 -0.1273,-0.0724 -0.0248,-0.0067 -0.1119,-0.0111 -0.1408,-0.014 -0.1033,-0.01 -0.1978,-0.0229 -0.2953,-0.0361 -0.1757,-0.0239 -0.4397,-0.0309 -0.5616,-0.1177 -0.2653,0.0218 -0.5728,-0.0804 -0.7846,-0.2074 -0.1211,-0.0727 -0.1936,-0.1343 -0.2951,-0.2019 -0.1348,-0.0897 -0.1435,-0.1402 -0.2519,-0.2377 -0.1354,-0.0653 -0.0551,-0.021 -0.0924,-0.1012l0.0943 0.046c0.3665,0.1261 1.0269,0.3929 1.2446,-0.1014 -0.2636,0.0411 -0.5254,0.1106 -0.7913,0.0603 -0.1219,-0.023 -0.1236,-0.0345 -0.1913,-0.0805l1.0075 -0.3656 -0.0144 -0.051c-0.7937,0.1627 -1.1944,0.1694 -2.027,0.1174 0.0816,0.1267 0.0517,0.1027 0.1464,0.1801 0.0628,0.0513 0.1048,0.0744 0.1641,0.1277 0.0601,0.0539 0.081,0.097 0.1391,0.1496 1.4435,1.3062 1.7289,0.8072 2.777,0.9058z"/>
   <path id="_584665256" class="fil1" d="M8.344 3.6056c0.0513,0.0973 0.0233,0.0509 0.111,-0.1333 0.464,-0.9746 0.3187,-0.6394 0.4923,-1.9575 0.242,-0.0477 0.7859,0.4381 0.9213,0.5955 0.0777,0.0903 0.4739,0.4928 0.526,0.5042 -0.0634,-0.3244 -0.5197,-0.8909 -0.6907,-1.0431l-1.0651 -0.6464c-0.0205,0.477 0.0045,0.9586 -0.0484,1.4355 -0.0423,0.381 -0.242,0.9584 -0.2464,1.2451z"/>
   <path id="_584664608" class="fil9" d="M13.3831 5.7472l-0.0741 0.0557c-0.332,0.1069 -1.0495,0.519 -1.257,0.7052 0.0245,0.045 0.7526,-0.3085 0.8975,-0.3639 1.1587,-0.4432 1.8541,-0.3936 3.0649,-0.1513 0.3558,0.0712 0.2409,0.0598 0.5643,-0.0527l0.1163 -0.0569c-0.2578,-0.1617 -1.1921,-0.2665 -1.5616,-0.3 -0.6696,-0.0607 -1.1395,0.0852 -1.7503,0.1639z"/>
   <path id="_584664848" class="fil3" d="M12.1425 12.542c-0.0676,0.0955 -0.1624,0.1382 -0.2792,0.1744 -0.0351,0.0415 0.001,0.0154 -0.0709,0.0666 -0.0709,0.0506 0.0664,-0.0175 -0.0663,0.0241l-0.0367 0.0389c-0.0932,0.0792 -0.0333,0.0498 -0.1623,0.0928 -0.0059,0.0067 -0.0139,0.0097 -0.0171,0.0205 -0.0032,0.011 -0.0155,0.016 -0.02,0.0184 -0.0612,0.0321 -0.0194,0.0158 -0.089,0.0334 -0.0054,0.0087 -0.0141,0.014 -0.0141,0.0271 -0.0001,0.0104 -0.0071,0.0202 -0.0068,0.0231 0.0139,0.1506 -0.1123,-0.0998 0.0141,0.03 0.6293,-0.0657 1.0245,-0.3243 1.4672,-0.5678 0.5129,-0.2822 1.0862,-0.2177 1.6858,-0.3018 -0.6433,-0.3555 -1.1345,-0.7077 -2.0093,-0.6046l0.6882 0.2688c0.1617,0.0124 0.2766,0.032 0.4323,0.0742 0.1526,0.0414 0.2572,0.0634 0.3678,0.1508l-1.051 0.1091c-0.3833,0.0801 -0.5776,0.2508 -0.8327,0.322z"/>
   <path id="_584665232" class="fil10" d="M3.1577 10.6202c-0.112,-0.2453 -0.5902,-0.6043 -1.0834,-0.5488 -0.4592,0.0518 -0.8824,0.1576 -1.3173,0.2413l0.3264 -0.4889c0.2083,-0.1867 0.2382,-0.1236 0.3508,-0.4635l-0.3531 0.2145c-0.2218,0.1543 -0.5726,0.8203 -0.7098,1.0534 0.9062,-0.1498 0.8725,-0.5544 2.1289,-0.2325 0.2268,0.058 0.459,0.1773 0.6575,0.2245z"/>
   <path id="_584664776" class="fil7" d="M10.9205 5.6671c-0.4658,0.1664 -0.8715,0.4079 -1.0467,0.7553l0.0668 0.0057c0.5769,-0.4959 0.9759,-0.4434 1.8316,-0.5937 0.3776,-0.0664 0.628,-0.2012 0.8113,-0.4253 0.1074,-0.1314 0.3881,-0.6213 0.4264,-0.852 -0.1703,0.1252 -0.2725,0.2939 -0.3939,0.4278 -0.1615,0.178 -0.2687,0.271 -0.4259,0.4011 -0.1716,0.1421 -0.9849,0.5665 -1.2696,0.2811z"/>
   <path id="_584665520" class="fil3" d="M12.1313 11.56c0.0573,-0.0616 0.1346,-0.1418 0.183,-0.2101 0.0594,-0.0839 0.0761,-0.1458 0.1413,-0.2025 0.0398,-0.2775 0.2447,-0.4874 0.2615,-0.7852l-0.02 -0.0033c-0.0653,0.0685 -0.1615,0.262 -0.2275,0.3647 -0.0885,0.1379 -0.1332,0.2168 -0.2281,0.3509 -0.1651,0.2332 -0.3589,0.4802 -0.5861,0.6038 -0.0695,0.0967 0.1045,0.0411 -0.0785,0.0786 0.0011,-0.2521 0.0183,-0.0933 0.07,-0.1531 0.3262,-0.353 0.1937,-1.5098 0.0997,-1.7105 -0.0807,0.6442 -0.0825,1.283 -0.3566,1.74 -0.0836,0.1395 -0.1977,0.2787 -0.2349,0.4141l0.9762 -0.4874z"/>
   <path id="_584665808" class="fil3" d="M10.9205 5.6671c0.2847,0.2854 1.098,-0.139 1.2696,-0.2811 0.1572,-0.1301 0.2644,-0.2231 0.4259,-0.4011 0.1214,-0.1339 0.2236,-0.3026 0.3939,-0.4278l0.1333 -0.1951c0.202,0.2176 0.1497,0.9696 0.1384,1.3142l0.0706 0.0419 -0.1261 -1.7826c-0.2841,0.2293 -0.7649,1.3783 -2.3056,1.7316z"/>
   <path id="_584665496" class="fil11" d="M6.299 11.5943c-0.0767,-0.0965 -0.0211,-0.3396 -0.0304,-0.4881 -0.0434,0.0964 -0.0377,0.1575 -0.0443,0.2897 -0.0213,0.425 0.0052,0.2409 0.0527,0.3097l0.022 -0.1113z"/>
   <path id="_584665736" class="fil12" d="M11.8633 12.7164c0.1168,-0.0362 0.2116,-0.0789 0.2792,-0.1744l-0.0418 -0.0158c-0.0659,0.0512 -0.0933,0.0666 -0.1381,0.1004 -0.0098,0.0074 -0.0372,0.0276 -0.0454,0.0345 -0.0652,0.0554 -0.0344,0.0343 -0.0539,0.0553z"/>
   <path id="_584665856" class="fil12" d="M11.2598 13.1198l0.0581 0.033 0.0763 -0.0615c-0.1264,-0.1298 -0.0002,0.1206 -0.0141,-0.03 -0.0003,-0.0029 0.0067,-0.0127 0.0068,-0.0231 0,-0.0131 0.0087,-0.0184 0.0141,-0.0271 -0.0939,0.0196 -0.1121,0.0017 -0.1412,0.1087z"/>
   <path id="_584666552" class="fil13" d="M5.3899 11.2737c0.0689,-0.0479 0.0277,0.0534 0.0758,-0.0772 -0.15,-0.0207 -0.1328,-0.0274 -0.2448,0.0353 0.1577,-0.0026 0.1152,-0.0351 0.169,0.0419z"/>
   <path id="_584666384" class="fil14" d="M11.6554 11.6783l-0.0085 -0.0745c-0.0517,0.0598 -0.0689,-0.099 -0.07,0.1531 0.183,-0.0375 0.009,0.0181 0.0785,-0.0786z"/>
   <path id="_584666360" class="fil15" d="M11.5271 12.9388c0.129,-0.043 0.0691,-0.0136 0.1623,-0.0928l0.0367 -0.0389c-0.1183,0.032 -0.0214,-0.0142 -0.1106,0.0438 -0.1608,0.1044 -0.0224,0.0156 -0.0884,0.0879z"/>
   <path id="_584666504" class="fil16" d="M9.9406 6.4281l-0.0668 -0.0057c-0.0661,0.042 -0.0468,-0.0836 -0.056,0.0938 0.1701,-0.0553 0.076,-0.0405 0.1228,-0.0881z"/>
   <path id="_584666168" class="fil17" d="M5.2931 9.4065l0.0554 0.0076c0.0864,-0.0502 0.0311,0.0952 0.0816,-0.105 -0.0683,0.0269 -0.0128,-0.0096 -0.0623,0.0279 -0.0484,0.0365 -0.0423,0.035 -0.0747,0.0695z"/>
   <path id="_584666432" class="fil18" d="M13.769 11.4719l-0.0519 -0.0196 -0.1104 0.097c0.0543,-0.0031 0.0364,0.0093 0.0878,-0.0133 0.0646,-0.0285 0.039,-0.0276 0.0745,-0.0641z"/>
   <path id="_584667224" class="fil19" d="M10.2784 9.7795c0.003,-0.0885 -0.024,-0.0743 0.0483,-0.0743 -0.0644,-0.0577 0.0757,-0.0538 -0.0787,-0.0473 -0.0665,0.2325 -0.0248,0.0454 0.0304,0.1216z"/>
   <path id="_584667368" class="fil20" d="M3.4412 9.9807l-0.0547 0.0064c0.0773,0.0776 -0.09,0.0292 0.0975,0.0715 0.031,-0.1663 0.0178,-0.0331 -0.0428,-0.0779z"/>
   <polygon id="_584667032" class="fil21" points="13.309,5.8029 13.3831,5.7472 13.3522,5.7181 13.2816,5.6762 "/>
   <path id="_584667464" class="fil22" d="M16.235 8.745l0.0038 0.0376c0.0083,-0.0076 0.0221,-0.0299 0.0253,-0.0226 0.0032,0.0071 0.0194,-0.0179 0.0234,-0.0231l0.049 -0.0771c-0.2068,0.0371 -0.0338,-0.0132 -0.1015,0.0852z"/>
   <path id="_584667512" class="fil23" d="M8.2203 4.9845c0.0367,0.1237 0.0245,0.0761 0.0781,0.119 -0.0215,-0.2098 -0.0091,-0.0711 -0.0602,-0.1238l-0.0179 0.0048z"/>
   <path id="_584668256" class="fil24" d="M4.0398 11.9556l-0.0697 -0.0211 -0.0085 0.1103c0.1296,-0.0728 0.0222,-0.0064 0.0782,-0.0892z"/>
   <path id="_584668352" class="fil25" d="M3.7145 12.6984l0.1117 -0.047c-0.0936,-0.0612 -0.0223,0.0425 -0.0908,-0.07l-0.0209 0.117z"/>
   <path id="_584668304" class="fil26" d="M4.6068 3.6328l-0.0553 0.0124 0.0498 0.078c0.0266,-0.0343 0.1124,0.119 0.0055,-0.0904z"/>
   <path id="_584667776" class="fil27" d="M2.2478 12.1021l0.0019 -0.0552 -0.0943 -0.046c0.0373,0.0802 -0.043,0.0359 0.0924,0.1012z"/>
   <path id="_584668040" class="fil7" d="M12.6971 10.3589l0.02 0.0033c0.0385,-0.0479 0.0404,0.0706 0.0583,-0.1375l-0.0783 0.1342z"/>
   <path id="_584668208" class="fil28" d="M11.7261 12.8071c0.1327,-0.0416 -0.0046,0.0265 0.0663,-0.0241 0.0719,-0.0512 0.0358,-0.0251 0.0709,-0.0666 -0.1204,0.0349 0.014,-0.0369 -0.0704,0.024 -0.0629,0.0453 -0.0367,0.0262 -0.0668,0.0667z"/>
   <polygon id="_584668616" class="fil23" points="10.3691,10.6967 10.2848,10.6861 10.3256,10.7803 "/>
   <path id="_584668784" class="fil13" d="M5.0396 10.4779l0.1114 -0.0604c-0.1906,-0.0079 -0.0769,-0.0141 -0.1177,0.0393l0.0063 0.0211z"/>
   <path id="_584669000" class="fil26" d="M3.57 10.8402c0.0612,0.0564 -0.0982,0.052 0.1248,0.0558l-0.1214 -0.0644 -0.0034 0.0086z"/>
   <path id="_584668400" class="fil12" d="M11.401 13.0111c0.0696,-0.0176 0.0278,-0.0013 0.089,-0.0334 0.0045,-0.0024 0.0168,-0.0074 0.02,-0.0184 0.0032,-0.0108 0.0112,-0.0138 0.0171,-0.0205 -0.0712,0.0127 -0.0281,-0.0014 -0.0866,0.0288 -0.0049,0.0025 -0.0174,0.0277 -0.0209,0.0201 -0.0036,-0.0077 -0.0121,0.0158 -0.0186,0.0234z"/>
   <path id="_584668592" class="fil17" d="M3.0381 2.5668c-0.0138,-0.0623 -0.0215,-0.04 0.0514,-0.0428l-0.104 -0.0372c0.0137,0.1621 -0.0074,0.0164 0.0526,0.08z"/>
   <polygon id="_584668928" class="fil29" points="3.5192,11.5597 3.5048,11.5087 "/>
   <polygon id="_584669432" class="fil30" points="9.642,8.2156 9.6925,8.1752 "/>
  </g>
 </g>
</svg>
