<?xml version="1.0" encoding="utf-8"?>
<!-- Generator: Adobe Illustrator 24.1.2, SVG Export Plug-In . SVG Version: 6.00 Build 0)  -->
<svg version="1.1" id="Layer_1" xmlns="http://www.w3.org/2000/svg" xmlns:xlink="http://www.w3.org/1999/xlink" x="0px" y="0px"
	 viewBox="0 0 714 714" style="enable-background:new 0 0 714 714;" xml:space="preserve">
<style type="text/css">
	.st0{fill:#B92327;}
	.st1{fill:#9E1C20;}
	.st2{fill:#6A943E;}
	.st3{fill:#07351E;}
	.st4{fill:#F58B89;}
	.st5{fill:#FFFFFF;}
	.st6{fill:#F37376;}
	.st7{fill:#070707;}
	.st8{fill:#EC277D;}
	.st9{fill:#F080AF;}
	.st10{fill:#B71F60;}
	.st11{fill:#ED4891;}
	.st12{fill:#F5A0C5;}
	.st13{fill:#010101;}
	.st14{fill:#231F20;}
	.st15{fill:#F6F190;}
	.st16{fill:#FBB03A;}
	.st17{fill:#FBB040;}
	.st18{fill:#F15A26;}
</style>
<path d="M690.2225342,300.0637817c-0.5046997-0.7217407-1.0346069-1.4192505-1.550415-2.1298828
	c-0.5254517-0.700531-1.0255737-1.4263-1.5706787-2.1086731l-1.630188-2.0521545l-1.6358032-2.0460815l-1.6846924-1.9986572
	c-2.2747192-2.6376038-4.6231689-5.2035522-7.0356445-7.7069092c-2.4306641-2.4862061-4.9022217-4.9330139-7.4752808-7.2809143
	l-2.774353-2.5316467l-2.0415649,2.6557922c-1.0820923,1.407135-2.1616821,2.8172913-3.1811523,4.2789307
	c-1.0306396,1.4535522-2.0875244,2.8818665-3.0474243,4.3980408l-1.4707642,2.2449341l-1.3748169,2.2731934
	c-3.7484741-5.3074951-9.3179321-8.8313904-15.5203247-9.3482056c0.0192261-0.5410461,0.0302734-1.0830994,0.055542-1.6241455
	c0.4047852-8.6527405,1.3798828-17.5093689,4.3712769-25.6947479c3.7232666,1.5060577,8.2802734,1.1981812,11.3337402-1.5817566
	c3.2316895-2.941452,3.1549683-7.9330139,0.4729004-11.2025299c-3.1473389-3.836792-8.395813-2.6759644-11.2827759,0.8236847
	c-0.9614258,1.1648712-1.7987671,2.4488525-2.5543213,3.7923889c-0.9680176-1.3526154-1.7271118-2.8808746-2.3352661-4.3152618
	c-2.4796143-5.851593-3.5193481-12.232132-3.1988525-18.5490723c10.1068115-0.4946136,20.6411133,1.9037628,29.6870117,6.4582672
	c17.9100952,9.0181427,31.3303223,24.7721252,44.2417603,40.1142731
	c-1.109375-34.6997528-3.3744507-71.4466248-23.0823364-100.0282898
	c-13.6604614-19.8118591-34.4373169-33.604538-55.9338989-44.4224777
	c-26.5991821-13.3858948-55.1061401-22.9763794-84.3873901-28.3898849
	c-21.6671143,53.0772247-60.0936584,99.1268768-108.2762146,130.1624451
	c3.625824-20.690033,1.4121704-41.2185822-0.329071-57.3278809c-3.1645203-29.2700958-12.3795166-57.5691376-17.4296265-56.6253281
	c-4.6130371,0.8620453-0.8468933,25.2071915-11.8727722,58.453392c-2.131897,6.4269562-4.3657532,13.1345367-7.2304688,19.5251617
	c-12.6187439-6.1655121-27.5985107-9.7923584-43.6977234-9.8771515c-16.3747559-0.0868073-31.6321106,3.5006714-44.449707,9.7247314
	c-5.522522-11.2368317-8.3155823-23.0217896-10.1698914-30.8417511
	c-5.5649414-23.4851227-2.8455505-38.6445694-6.7267761-39.7084961
	c-5.3287048-1.4596176-16.2092285,25.5352478-20.3205872,52.4584503
	c-1.7876892,11.7032013-4.7462769,31.1274261-0.2523499,53.0499725
	c-47.3397064-31.0163879-85.0808411-76.5785065-106.4784851-128.9935455
	c-29.2812042,5.4135056-57.7881775,15.0039902-84.387352,28.3898849
	c-21.4965706,10.8179398-42.2734261,24.6106186-55.9338837,44.4224777
	c-19.70788,28.581665-21.9730148,65.328537-23.082365,100.0282898c12.267458-14.576004,25.0017738-29.5123596,41.6021614-38.7031097
	c-1.4041023,5.0077209-2.5674553,10.0810547-3.4113312,15.2250519c-1.4207535,8.6618195-2.2605896,17.7183228-1.3046722,26.4790649
	c0.8206558,7.5201416,3.3053398,15.5864258,9.8948212,20.0359192c0.9448166,0.63797,1.9824982,1.152771,3.0772133,1.5474548
	c-0.5849609,7.7553711-0.5238876,15.5571594,0.1630211,23.3034363c1.070488,12.0716248,3.6106873,23.9706421,7.5595322,35.3992615
	c-3.4461555,1.5292664-6.4335289,4.0437317-8.7198601,7.2294617c-1.9663467-2.479126-3.9967918-4.8977051-6.0600433-7.2859802
	l-1.2870064-1.4888916l-1.3475723,1.5999451c-4.3606873,5.1772766-8.5416985,10.4938965-12.5400009,15.9558716
	c-1.9885559,2.7385254-3.9458179,5.5023193-5.8076897,8.3408203c-1.8881168,2.8182983-3.6959839,5.6991577-5.3685894,8.6860352
	c2.5073948-2.3307495,4.8795261-4.7684937,7.1714115-7.2688293c2.3181286-2.4801331,4.5413704-5.0349731,6.7328186-7.6140442
	c3.9453087-4.6806641,7.7331505-9.4855042,11.3816948-14.399353c1.9017448,1.8704529,3.8231697,3.7227478,5.8036499,5.5184937
	c-1.3299103,2.3065186-2.3231773,4.8845825-2.9076309,7.6412964c-1.2319946-0.9256287-2.470047-1.8421936-3.7176857-2.7445984
	l-1.2617722-0.9145508l-1.0255699,1.3183289c-3.9755936,5.1076355-7.7740326,10.3445129-11.3978462,15.7085571
	c-1.8073616,2.6850586-3.5642548,5.4064331-5.259573,8.1722412c-1.6862316,2.7738953-3.3265362,5.5800781-4.8164387,8.4962769
	c2.3140926-2.3166199,4.4787884-4.7412415,6.5970535-7.2012024c2.1091785-2.4649963,4.1567841-4.9754028,6.1544228-7.5231934
	c3.6687279-4.6958008,7.1830177-9.5046692,10.5539703-14.417511c1.2274513,0.7560425,2.4604568,1.5030212,3.7020416,2.2378845
	c-0.1332436,1.4141846-0.1680679,2.8606873-0.0817642,4.332428c0.0484543,0.8246765,0.1332436,1.6372681,0.2493286,2.4367371
	c-3.616745,4.5787048-7.0780411,9.2714844-10.3732872,14.0884399c-1.7195435,2.528595-3.3926544,5.0904846-5.0011635,7.7008667
	c-1.6014404,2.616394-3.1534214,5.2681274-4.5575218,8.0299072c2.227787-2.1530762,4.3066826-4.4161987,6.3366241-6.7156677
	c2.0223694-2.3034973,3.9806404-4.6564331,5.891468-7.0437012c3.0211868-3.7923889,5.9252853-7.6705933,8.723896-11.6275024
	c1.716011,5.4034119,4.9981346,9.9225769,9.1816673,12.880188c-1.8982086,0.5561829-3.7969246,1.1123657-5.6885757,1.6917725
	l-6.0459099,1.8300781l-0.1100273-0.1837158l-0.1029587,0.2473145l-2.2742195,0.6884155l-0.3250351,0.0979309l0.1579742,0.303833
	l1.1043053,2.1207886l-0.0933723,0.2250977l0.1761436-0.0656128l2.9172211,5.6022644l4.1668777,7.8492432l4.1663704,7.8492126
	c1.3818932,2.6204529,2.8102226,5.2156677,4.2128067,7.8250122l0.2816277-0.1473694
	c-0.3467331-1.4919128-0.7722015-2.9414368-1.2284584-4.3748169l-0.7065964-2.1379395l-0.7701836-2.1056519
	c-0.4986534-1.4111633-1.0714989-2.782959-1.6403046-4.1578064c-0.2871819-0.6853943-0.555687-1.3808594-0.8585091-2.058197
	l-0.9216003-2.0248718c-1.2001991-2.7163696-2.5250587-5.3660889-3.8897934-7.9956055
	c-0.933712-1.7513428-1.882061-3.4946289-2.8733101-5.2156677c0.3785324-0.1514282,0.7590828-0.2957764,1.1340828-0.4582825
	c1.3793716-0.5703125,2.7627792-1.1265259,4.1194344-1.7705078l2.0430641-0.9387817l2.0208549-1.0114136
	c0.662178-0.3391724,1.3213272-0.688446,1.9764404-1.0508118c1.8346176,1.1578064,3.8216591,2.0218506,5.9116554,2.5427246
	c-0.4194107,0.0605469-0.8378143,0.167572-1.2476425,0.3351135c-2.7143211,1.1083374-4.015461,4.2072754-2.9071198,6.9205933
	c1.1083412,2.714325,4.2072525,4.0154419,6.9210739,2.9071045c1.2708588-0.5188293,2.2262726-1.475769,2.7753983-2.6234741
	c1.2804413,2.3307495,4.1320496,3.3835754,6.6540833,2.3529663c2.7138214-1.1083374,4.0154648-4.2062683,2.9066162-6.9205933
	c-0.8105621-1.9844971-2.686058-3.2089233-4.6968231-3.2927246c2.3050079-0.7287903,4.4444733-1.8764954,6.3507538-3.3734741
	c1.0144653,0.2493286,2.0289307,0.5006714,3.0459213,0.7419434l8.2343292,1.9734192l-3.646019,7.6483459l-3.7308044,7.9875183
	l-3.7303085,7.9875488c-1.2511749,2.658783-2.4549026,5.3408203-3.6843796,8.0097046l0.2841568,0.1342773
	c0.9730759-1.1658936,1.8669205-2.3691101,2.7289581-3.5864868l1.2718658-1.8371277l1.2062607-1.8674316
	c0.8201523-1.2375488,1.5635834-2.5114136,2.3130798-3.7822876c0.3709564-0.6369324,0.7626114-1.264801,1.1169205-1.9108276
	l1.053833-1.9390869c1.4348831-2.572998,2.7405701-5.2055664,4.009407-7.8562927
	c1.2390594-2.6648865,2.4508667-5.3418579,3.5208511-8.0864563l1.1921234-3.0585327l-2.9197388-0.5238953
	c-1.4475098-0.2594299-2.8955231-0.5188293-4.3622055-0.6995239c-1.4611282-0.2028809-2.9197388-0.4179077-4.3990402-0.5450745
	l-1.8987198-0.1877747c4.3763351-4.1921082,7.2158279-10.3515625,7.5676117-17.2368164l1.9461594-2.1793213l6.2286148,6.3916321
	l6.5324478,6.5894775l6.5324478,6.5884705c2.1707535,2.2025452,4.3854141,4.3627014,6.5758514,6.5460815l0.2649765-0.260437
	c-0.762619-1.4192505-1.5994263-2.7637939-2.4639893-4.0820923l-1.3188095-1.9562378
	c-0.4476776-0.6440125-0.9195786-1.264801-1.3778534-1.8987122c-0.4668579-0.6248474-0.9115067-1.2718811-1.3965302-1.8795471
	l-1.4525528-1.8250427l-1.4570923-1.8199768l-1.5025177-1.7755432c-4.0598831-4.6827087-8.383728-9.1059875-12.9841461-13.2567139
	l-2.5947113-2.3418274l-1.7084427,2.2146606c-0.1589813-1.2930603-0.4027557-2.5528259-0.7262726-3.7722168l5.1712494-5.7132874
	l7.056839,6.0999146l7.3460388,6.2472839l7.3460464,6.2472839c2.4432907,2.0895081,4.9244461,4.1345825,7.384903,6.2028809
	l0.2361984-0.2755737c-0.9342117-1.3788757-1.9355545-2.6810303-2.9601135-3.954895l-1.5570297-1.8876038
	c-0.5248947-0.6228333-1.0735168-1.2173767-1.6090164-1.8270569c-0.5430603-0.6016235-1.0684662-1.2234192-1.6256638-1.8088684
	l-1.6756363-1.7483215l-1.6786575-1.7463074l-1.7210617-1.6968079c-2.3171158-2.2358704-4.6912689-4.4061279-7.1244736-6.5057068
	c-2.4453125-2.0864868-4.9193954-4.1396179-7.4853363-6.0857849l-2.4882202-1.8865967l-1.7139893,2.1611633
	c-1.0356674,1.3061829-2.0703201,2.6133728-3.0469284,3.973053c-0.282135,0.3886414-0.5672913,0.774231-0.8519516,1.1608276
	c-0.5597229-1.4161987-1.226944-2.7627563-1.994606-4.022522c1.2769089-1.4212646,2.5513-2.8445435,3.8100433-4.2809448
	l6.7802658-7.6826782l6.9750748,7.23349l7.3021317,7.4494934l7.3016281,7.4475098
	c1.1714325,1.2012024,2.3539658,2.3923035,3.5385132,3.5793762l11.8934784,57.6690674h10.4060822l11.5871124-53.7565613
	l13.71698,68.790863h10.6412964l30.0342255-154.2088318c1.8916473-8.8828735,9.459259-10.7058716,14.6617889-10.7058716
	l-0.7086029-3.4158936h-16.8825226v-40.9823608c18.6934204,8.3781586,34.4938354,23.0561218,47.0863342,39.6893005v39.5601196
	c-11.6012421,0-43.9238281,0-43.9238281,0l-1.4182281,3.6439819c5.2025452,0,9.223053,1.3667603,9.223053,12.3007813v106.1463623
	c0,7.9724121-4.0205078,10.2496338-9.223053,10.2496338l1.4182281,3.6450195l54.6286926,0.2271118l4.2567139-1.1386108
	l4.9663391-15.2614136l-3.7832947-1.3667297c-2.1288452,4.3283691-5.2025452,10.4777527-19.8653412,10.4777527h-16.7906647
	c-2.6012726,0-4.9663391-1.821991-4.9663391-4.3273621v-68.789856h8.513443c8.9868469,0,11.1157074,6.6056519,11.1157074,11.8445129
	l4.729126-1.3667297v-25.283905l-4.729126-1.5948792c0,5.2398682-2.1288605,12.0726318-11.1157074,12.0726318h-8.513443v-37.5836792
	c0-2.9616089,2.1288605-5.0117493,4.7301331-5.0117493h12.2977448
	c14.6617889,0.2281189,19.8643341,12.5289001,20.8101654,17.5396423l3.7843018-1.3667603l-7.8048096-23.6890259
	l-3.1716003-1.0184937v-34.2162476c4.2476501-8.262085,10.3374634-15.4683228,17.6083069-21.230072
	c2.8112183,6.0979004,6.8448486,11.7627563,11.8707581,16.8310242h-18.9780884l-1.4192505,3.8721313
	c5.2025452,0,12.29776,1.821991,12.29776,10.7059021v155.5745544c0,8.6557617-7.0952148,13.2112732-12.29776,13.2112732
	l1.4192505,3.6439819h13.2476196c0.4335327,7.5888062-0.4365845,15.1917419-2.6229858,22.4969177
	c-1.9577637,6.5420227-4.9673462,13.1486816-9.0574951,18.7852478c-1.0467834-1.2173462-2.2424316-2.3145752-3.6546021-3.2099304
	c-4.3011475-2.7244263-9.7868347-2.9212646-13.8068237,0.3886108c-3.5188446,2.8970337-5.0819244,8.3287048-2.3090515,12.260376
	c2.6567993,3.769165,7.8779907,5.0753784,12.1867065,3.7197266c2.6204529-0.824707,4.822998-2.3579712,6.7555237-4.2203979
	c0.2483215,0.7167358,0.4754333,1.4394531,0.6667175,2.1672363c1.4152222,5.3892822,2.1091919,11.0400391,2.7516785,16.5655518
	c0.1776733,1.5282593,0.3371582,3.0575562,0.4809875,4.5888062c-7.2375183,0.3381958-13.7669373,3.8994141-18.1175232,9.366394
	l-1.5464478-2.2741699l-1.6539307-2.2449951c-1.0790558-1.5161133-2.268158-2.9454346-3.4269714-4.3990479
	c-1.146698-1.4626465-2.3610229-2.8728027-3.5783844-4.2819214l-2.295929-2.6567993l-3.1241455,2.5316162
	c-2.8970337,2.3458862-5.6804962,4.7907104-8.4175415,7.2758789c-2.7168427,2.5023804-5.3620148,5.0673218-7.9234161,7.7039185
	l-1.8972015,1.9976196l-1.8421936,2.0460815l-1.8361359,2.0501099c-0.6137238,0.682373-1.177475,1.4071655-1.7689972,2.1087036
	c-0.5809174,0.7106323-1.1779938,1.4071045-1.7462921,2.1278687l-1.6751404,2.1904297
	c-1.0987396,1.475769-2.1641846,2.9797974-3.1397858,4.5615234l0.3199768,0.2766113
	c2.7552185-2.4700317,5.5391846-4.9138794,8.2706757-7.4030762l8.2186737-7.4484863l8.2181854-7.4484863l7.8507538-7.2335205
	l7.6311951,7.6817017c1.4167175,1.4373779,2.8510895,2.8606567,4.2880096,4.2809448
	c-0.8640747,1.2607422-1.6150818,2.6072998-2.2449493,4.0234985c-0.3204803-0.3865967-0.6414795-0.7731934-0.9589386-1.1618042
	c-1.0992584-1.3596802-2.2636261-2.6668701-3.4295044-3.9730835l-1.9284973-2.1601563l-2.8006287,1.8865967
	c-2.888443,1.9451294-5.6724243,3.998291-8.4251099,6.0847778c-2.7385406,2.1005859-5.4104767,4.2698364-8.0188141,6.5056763
	l-1.9365692,1.6968384l-1.8896332,1.7463379l-1.8860931,1.7492676c-0.6268463,0.5844727-1.2183685,1.2062988-1.829071,1.8079224
	c-0.6026154,0.6096802-1.2208862,1.2042236-1.8108978,1.8270264l-1.7533569,1.8876343
	c-1.1527557,1.2738647-2.2797699,2.5759888-3.3310699,3.954895l0.265976,0.2755737
	c2.7693329-2.0682983,5.5613861-4.1134033,8.311554-6.2019043l8.2681427-6.248291l8.2676392-6.2472534l7.9425964-6.0999146
	l5.8203125,5.7132568c-0.3638916,1.2203979-0.6384583,2.479126-0.8171234,3.7722168l-1.9229431-2.2146606l-2.9202423,2.3418579
	c-5.1783142,4.1506958-10.04422,8.5750122-14.6138611,13.2576904l-1.6912689,1.7745361l-1.6403046,1.8200073l-1.6342468,1.8260498
	c-0.5460968,0.6066284-1.0462646,1.2536621-1.5721741,1.8795166c-0.5158081,0.6328735-1.0467682,1.2537231-1.5504608,1.8977051
	l-1.4843597,1.9562378c-0.9730835,1.3182983-1.9153748,2.6638794-2.7733765,4.0820923l0.2982788,0.260437
	c2.4655151-2.182373,4.9577637-4.3435059,7.4015656-6.5460815l7.3520966-6.5884399l7.3526001-6.5894775l7.0093994-6.3916626
	l2.1904449,2.1803589c0.396698,6.8842163,3.5919952,13.0437012,8.5179596,17.2357788l-2.1374207,0.1877441
	c-1.6645508,0.1271973-3.3058472,0.3422241-4.9506989,0.545105c-1.6509094,0.1806641-3.2806091,0.4401245-4.9103241,0.6995239
	l-3.2856445,0.5239258l1.3420105,3.0585327c1.2037354,2.7445679,2.5679626,5.4215698,3.9624786,8.0864258
	c1.4278259,2.6507568,2.8975372,5.2843018,4.5125885,7.8563232l1.1860657,1.9400635
	c0.3987427,0.6450195,0.8393555,1.2728882,1.2572327,1.9098511c0.842865,1.270813,1.6801758,2.5447388,2.603302,3.7822876
	l1.357666,1.8674316l1.431366,1.8370972c0.9700317,1.2183838,1.9764404,2.4205933,3.0716553,3.5864868l0.3194885-0.1342773
	c-1.3839417-2.6688843-2.7385559-5.3499146-4.1462097-8.008728l-4.1991577-7.9885254l-4.1986847-7.9874878l-4.1032867-7.6473999
	l9.2674561-1.9744263c1.1446838-0.2402344,2.2863464-0.4925537,3.4284973-0.7418823
	c2.1450195,1.4969482,4.5529785,2.6446533,7.1471863,3.3734741c-2.2626038,0.0847778-4.3738098,1.3082275-5.2863159,3.2927246
	c-1.2476501,2.7142944,0.2175293,5.8132324,3.2720337,6.9215698c2.8379822,1.0306396,6.0474243-0.0231934,7.4888611-2.3539429
	c0.6182861,1.1477051,1.6938171,2.1046143,3.1236572,2.6244507c3.0545044,1.1083374,6.5420227-0.1928101,7.7896729-2.9071045
	c1.2476501-2.7143555-0.217041-5.8132324-3.2715149-6.9215698c-0.4613037-0.1676025-0.9327087-0.2745972-1.4046326-0.335144
	c2.352478-0.520874,4.5888367-1.3849487,6.653595-2.541687c0.7373657,0.3623657,1.4793091,0.7106323,2.2242432,1.0497437
	l2.2747192,1.0114746l2.2999878,0.9387207c1.5262146,0.6450195,3.0837708,1.2001953,4.6357422,1.7715454
	c0.4224243,0.161499,0.8504333,0.3058472,1.2763977,0.4572754c-1.115387,1.7210693-2.1828613,3.4642944-3.2331543,5.2156372
	c-1.5363464,2.6295776-3.0272522,5.2792969-4.3783569,7.9956055l-1.0376892,2.0249023
	c-0.3406677,0.6773071-0.6424866,1.3728027-0.9660034,2.0592041c-0.6404724,1.3738403-1.2850037,2.7456665-1.8457336,4.1567993
	l-0.8675842,2.1056519l-0.7949219,2.1379395c-0.5137939,1.4334106-0.9922485,2.8839111-1.3823853,4.3748169l0.3164368,0.1473999
	c1.5787354-2.6083374,3.1867371-5.2045898,4.7417603-7.8250122l4.6897583-7.8492432l4.6892395-7.8492432l3.2831421-5.6022949
	l0.1988525,0.0666504l-0.1054993-0.2250977l1.2436218-2.1218262l0.1776428-0.3027954l-0.3659058-0.098938l-2.5598755-0.6873779
	l-0.1156006-0.2483521l-0.1241455,0.1837158l-6.8045044-1.8300781c-2.129364-0.5783691-4.2657776-1.1355591-6.40271-1.6917725
	c4.7084045-2.9575806,8.4028931-7.4767456,10.3344116-12.880188c3.1493835,3.9569092,6.418396,7.8361206,9.8181152,11.628479
	c2.151062,2.3862915,4.3551331,4.7392578,6.6313477,7.0437622c2.2843323,2.2994385,4.6246643,4.5615234,7.1315613,6.7156372
	c-1.5797424-2.7617798-3.3265381-5.4144897-5.1288757-8.0309448c-1.8108826-2.6103516-3.6939392-5.1722412-5.6295166-7.7008057
	c-3.7080994-4.815979-7.6039429-9.5097656-11.6749268-14.088501c0.1307068-0.7994385,0.2261047-1.6119995,0.2806091-2.4367065
	c0.0969238-1.4717407,0.0580444-2.9182129-0.0918579-4.3323975c1.3975525-0.7338867,2.7850037-1.4818726,4.1663818-2.2368774
	c3.7944031,4.9118042,7.7492981,9.7207031,11.8788452,14.4174805c2.2479553,2.5467529,4.5529785,5.0571899,6.9266052,7.5231934
	c2.3842468,2.4589844,4.8204956,4.883606,7.425293,7.2001953c-1.6771545-2.9152222-3.5233765-5.7224121-5.4210815-8.4952393
	c-1.9082947-2.7668457-3.8852539-5.4882202-5.9197388-8.1732788c-4.0785522-5.3640747-8.3534241-10.6008911-12.828186-15.7085571
	l-1.1542664-1.3173218l-1.4207458,0.9135742c-1.403595,0.9024048-2.7971191,1.8189697-4.1840515,2.7445679
	c-0.657135-2.7567139-1.7755737-5.3337402-3.2720337-7.6412964c2.2287903-1.7957153,4.3909607-3.6480103,6.5314331-5.5174561
	c4.106842,4.9138184,8.3695984,9.7176514,12.8105469,14.399353c2.4664917,2.5790405,4.9683533,5.1328735,7.5776978,7.6130371
	c2.5795593,2.5003052,5.2494812,4.9380493,8.0718079,7.2687988c-1.8830566-2.9868774-3.9175415-5.8677368-6.0428772-8.6860352
	c-2.0955505-2.838501-4.2980957-5.6022949-6.536499-8.3408203c-4.4999695-5.4609375-9.2058716-10.7785645-14.1131592-15.954895
	l-1.5171814-1.5999146l-1.4485168,1.4888916c-2.3221436,2.3872681-4.6074829,4.8058472-6.8206177,7.2849731
	c-3.5662842-4.4151611-8.6487122-7.5363159-14.5194702-8.5376587c-0.1584778-1.7180176-0.3331299-3.4350586-0.5344849-5.1500244
	c-0.6843872-5.8243408-1.3919983-11.7799072-2.8516235-17.4710083c-0.4734192-1.847229-1.1068115-3.6611938-1.921936-5.3721313
	c0.3820801-0.5067444,0.7545471-1.0154724,1.1199646-1.524231c3.0837708-4.2950745,5.5800476-8.9505005,7.6034546-13.8300476
	c3.979126-9.5945129,5.7748718-20.12677,5.1752625-30.5036011h35.0248108c1.41922,0,16.7906494-0.4552307,18.446106,2.5063782
	l3.7843018-1.3667297l6.8579712-22.0951538l-3.5470886-1.3667603c-0.9458313,5.0117493-6.149353,13.4393921-20.3387451,13.6665039
	h-32.3982849c-2.6012878,0-4.7301331-1.821991-4.7301331-4.3273621V292.108551c0-4.4121704,1.7513123-7.0800781,4.1517334-8.6497192
	c14.7637329,11.5558167,35.3760681,18.7953796,58.2333069,18.9165039c3.7489929,0.0202026,7.4353943-0.1625061,11.0511169-0.514801
	c-16.8996582,5.9172058-28.9763489,35.6223755-28.9763489,74.071106c0,44.4174194,16.3182678,73.3453369,43.0415955,76.762207
	c17.2630615,2.0501404,26.2499084-9.5662537,29.0874023-16.6281433l-1.8916626-1.3667603
	c0,0-7.3313904,13.4393921-26.0137024,9.5672607c-18.9185181-4.1002502-31.2162781-30.9780273-31.2162781-67.4230652
	c0-37.5846863,9.9326782-65.6010742,23.1752319-65.6010742c7.568634,0,18.6833191,6.1493835,21.0484009,25.0557861
	l3.5470886-1.8220215l-1.4192505-28.928894l-4.2567139-1.5938721l-1.8916321,5.9222412
	c-3.3381653-3.8580017-8.7718506-8.5194702-16.4959106-9.056488c20.2206421-3.5006714,37.5715332-12.7015076,48.9547424-25.2778625
	v46.7905884c-16.6634827,2.0218506-29.8585815,25.7684021-29.8585815,54.7387085
	c0,28.9289246,12.5339355,54.6680908,32.8717041,54.6680908c23.8848572,0,31.6896667-37.3565674,31.6896667-54.6680908
	c0-28.6654358-12.9185181-52.2192078-29.5345764-54.6710815v-53.3881226
	c1.9360657-2.832428,3.5935364-5.7930603,4.9411316-8.8627014c7.8310547,6.0454102,14.3619995,13.7381897,18.7539673,22.6250916
	c6.2038879-9.0039978,13.314209-17.6173706,21.279541-25.209198v58.005188h-17.0954895l-1.4192505,3.8721313
	c5.2025452,0,12.2977295,1.8230286,12.2977295,10.7059021v86.3294678c0,8.8839111-7.0951843,10.7059021-12.2977295,10.7059021
	l1.4192505,3.8721313h4.2102661c-2.5669556,4.7593994-3.9589233,10.1153564-4.5539856,15.5662231
	c-0.5491333,5.0299377-0.3260498,10.0497742,0.1806946,15.0534668c-5.8208313,0.6641846-10.8769836,3.9437866-14.3322449,8.7566833
	c-1.9663391-2.4781189-3.9967957-4.8966675-6.0600281-7.2839355l-1.2870178-1.4899292l-1.3480835,1.6009521
	c-4.3601685,5.1763-8.5411682,10.4938965-12.5394897,15.9548645c-1.9885559,2.7385559-3.9458008,5.5023499-5.8076782,8.3408203
	c-1.8881226,2.8172913-3.6959839,5.6981506-5.3685913,8.6860352c2.5073853-2.3317566,4.8795166-4.7684937,7.1714172-7.2687988
	c2.3181152-2.4801636,4.5413513-5.0339966,6.7328186-7.6140442c3.9453125-4.6806946,7.7331543-9.4844971,11.3816833-14.3983459
	c1.9017334,1.8694458,3.8231812,3.7207031,5.8031311,5.5174866c-1.3293762,2.3075256-2.3226624,4.884552-2.9071045,7.6412964
	c-1.2319946-0.9266663-2.4700623-1.8432007-3.7176819-2.745636l-1.2617798-0.9125061l-1.0255737,1.3172913
	c-3.9755859,5.107666-7.7740173,10.3445129-11.3978577,15.70755c-1.8073425,2.6850586-3.5642395,5.4074707-5.259552,8.1742859
	c-1.6862488,2.7728577-3.3265381,5.5800476-4.8164368,8.4952393c2.3140869-2.3166199,4.4787903-4.7422485,6.5970459-7.2011719
	c2.1091919-2.4649963,4.1567688-4.9754333,6.1539307-7.5221863c3.66922-4.6968384,7.1835022-9.5057068,10.5544739-14.4185486
	c1.2274475,0.756073,2.4599304,1.5040588,3.7020264,2.2378845c-0.1337585,1.4142151-0.1680603,2.8606873-0.0817566,4.332428
	c0.0484619,0.824707,0.1332397,1.6372681,0.2493286,2.4367371c-3.6167603,4.5787354-7.0785522,9.2715149-10.373291,14.0884399
	c-1.7195435,2.5275879-3.3926697,5.0905151-5.0016785,7.7008667c-1.6014404,2.616394-3.1528931,5.2681274-4.5570068,8.0299072
	c2.2272949-2.1530762,4.3066711-4.4151611,6.3366089-6.7146606c2.0223694-2.305481,3.9801331-4.6574402,5.8914795-7.0437012
	c3.0211792-3.793396,5.925293-7.6715698,8.7239075-11.6285095c1.7154846,5.4024353,4.9981384,9.9226074,9.1816711,12.880188
	c-1.8987427,0.5561829-3.796936,1.1123962-5.6885986,1.6917725l-6.0458984,1.829071l-0.1100159-0.1827087l-0.1029663,0.2473145
	l-2.274231,0.6884155l-0.325531,0.098938l0.1584778,0.3028259l1.1043091,2.1217651l-0.0938721,0.2241211l0.1766357-0.0656128
	l2.9172363,5.6012573l4.1668701,7.8502197l4.1663513,7.8492432c1.381897,2.6204834,2.8102417,5.2156982,4.2128296,7.8250122
	l0.2816162-0.1483765c-0.3467407-1.4898682-0.7721863-2.9404297-1.2284546-4.3737793l-0.706604-2.1389771l-0.7701721-2.1046143
	c-0.4986572-1.4111938-1.0715027-2.782959-1.6403198-4.1578369c-0.2871704-0.6853638-0.5556641-1.3808594-0.85849-2.0581665
	l-0.9221191-2.0259399c-1.1996765-2.715332-2.5245361-5.3650513-3.8892822-7.9945679
	c-0.9337158-1.7513428-1.8820496-3.4946289-2.8733215-5.2156372c0.37854-0.1514282,0.7590942-0.2957764,1.1340942-0.4572754
	c1.379364-0.5713501,2.7627869-1.1265259,4.1194458-1.7715454l2.0430603-0.9397583l2.0208435-1.010437
	c0.6621704-0.3391724,1.3213196-0.6874084,1.9764404-1.0508118c1.8341064,1.1578064,3.8216553,2.0218811,5.9116516,2.5427246
	c-0.4194031,0.0605774-0.8377991,0.167572-1.2481384,0.335144c-2.7138062,1.1083374-4.0154724,4.2072449-2.9066162,6.9215393
	c1.1083374,2.7133179,4.2072449,4.0155029,6.9210815,2.9071655c1.2703552-0.5198364,2.225769-1.4777832,2.7748718-2.6245117
	c1.2809753,2.3307495,4.1325684,3.383606,6.6546021,2.3540039c2.7138062-1.1083984,4.0154724-4.2072754,2.9066162-6.9216309
	c-0.8105469-1.9844971-2.6860657-3.2089233-4.6968079-3.2926941c2.3049927-0.7287903,4.444458-1.8765259,6.3502502-3.3744812
	c1.0149536,0.2503357,2.0294189,0.5026855,3.0464172,0.7429199l8.2338257,1.9744263l-3.6455383,7.6473389l-3.7308044,7.9875488
	l-3.7302856,7.9874878c-1.2511902,2.6588135-2.4549255,5.3408813-3.6843872,8.0097656l0.2841492,0.1342163
	c0.9730835-1.1658325,1.8669128-2.368042,2.7289734-3.5864258l1.2718506-1.8371582l1.2062683-1.8674316
	c0.8196411-1.2385254,1.5635986-2.5114136,2.3130798-3.7822876c0.3709717-0.6379395,0.7626038-1.2658081,1.1169128-1.90979
	l1.053833-1.9401245c1.434906-2.5719604,2.7405701-5.2055664,4.0093994-7.8562622
	c1.2385559-2.664917,2.4508667-5.3418579,3.520874-8.0864868l1.1921082-3.0585327l-2.9197388-0.5238953
	c-1.447998-0.2593994-2.8955078-0.5198364-4.3622131-0.6995239c-1.4616089-0.2028809-2.9197388-0.4178772-4.3990173-0.5450745
	l-1.8987427-0.1877441c4.3763428-4.1921387,7.215332-10.351593,7.567627-17.2368469l1.946167-2.1793213l6.2280884,6.3916321
	l6.532959,6.5884705l6.5319519,6.5894775c2.1712646,2.2025452,4.3854065,4.3627014,6.576355,6.5461121l0.2649841-0.2604675
	c-0.7626343-1.4182129-1.5994263-2.7637634-2.4639893-4.0830994l-1.3188171-1.9552307
	c-0.4476624-0.6450195-0.9195862-1.264801-1.3778687-1.8987122c-0.4668274-0.6248169-0.911499-1.2718811-1.3965149-1.8795471
	l-1.4525452-1.8250122l-1.4570923-1.8199768l-1.5030212-1.7755737c-4.059906-4.6816711-8.3832397-9.105957-12.9836426-13.2576904
	l-2.5947266-2.3408508l-1.7089539,2.2146606c-0.1584778-1.2930603-0.4022522-2.5528259-0.725769-3.7721863l5.1712646-5.7133179
	l7.0568237,6.0989075l7.3460693,6.248291l7.3460388,6.2483215c2.4432983,2.0874634,4.9244385,4.1325378,7.3848877,6.2018433
	l0.2362061-0.2755737c-0.9342041-1.3798523-1.9355469-2.6809998-2.9601135-3.954895l-1.5575256-1.8876038
	c-0.5244141-0.6228027-1.0735168-1.2173767-1.6090088-1.8270569c-0.542572-0.601593-1.0679932-1.2234192-1.6251831-1.8078613
	l-1.6756287-1.7503357l-1.6786499-1.7452698l-1.7210693-1.6968384c-2.3171082-2.2358704-4.6912842-4.4050903-7.1244812-6.5057068
	c-2.4458008-2.0864563-4.9194031-4.1396179-7.485321-6.0857849l-2.4882202-1.8855896l-1.7139893,2.1601563
	c-1.035675,1.3061829-2.070343,2.6133728-3.046936,3.9730835c-0.282135,0.3886108-0.5672913,0.7752075-0.8519592,1.1608276
	c-0.5597229-1.4152222-1.2269287-2.7617798-1.9945984-4.0225525c1.2769165-1.4202271,2.5513-2.8435059,3.8100586-4.2809448
	l6.7802429-7.6816711l6.9750977,7.23349l7.302124,7.4475098l7.3016052,7.4494934
	c2.4271545,2.4892273,4.9007263,4.9330444,7.3486023,7.4030762l0.2846069-0.2765808
	c-0.8670654-1.5827637-1.8139038-3.086792-2.789978-4.561554l-1.4884033-2.1904297
	c-0.5046997-0.7217407-1.0351868-1.4182434-1.5514832-2.1278687c-0.5254211-0.7015381-1.0265808-1.4263-1.5716553-2.1086731
	l-1.6317444-2.0511475l-1.6367798-2.0450745l-1.6856995-1.9986572c-2.275238-2.6365967-4.6251831-5.2005005-7.0397034-7.7028503
	c-2.4316711-2.485199-4.9047546-4.9299927-7.4787598-7.2769165l-2.7754211-2.5306091l-2.0400085,2.6567993
	c-1.081604,1.4081421-2.160675,2.8193054-3.1791687,4.2809448c-1.0296021,1.4535522-2.0864868,2.8839111-3.0449219,4.3990479
	l-1.469696,2.2459412l-1.3738403,2.274231c-3.4729004-4.9118347-8.5068665-8.2923584-14.1565857-9.1745911
	c-0.7843018-7.7452698-0.8756714-15.4552002,1.530304-23.0379639c0.8695984-2.739563,2.1127014-5.3398132,3.7429199-7.6846924
	h22.1663208l1.41922-3.8721313c-5.2025452,0-12.2977295-1.821991-12.2977295-10.4777527l0.2372131-86.3294983l17.9726868,79.0404663
	h9.223053l23.8848267-112.9801331v153.7525635c0,8.6557617-7.0941772,10.7059021-12.2966919,10.7059021l1.4182129,3.6439819
	h32.1630859l1.6554565-3.6439819c-5.2035522,0-12.2977295-2.0501404-12.2977295-10.7059021v-158.308075
	c0-8.6557617,7.0941772-10.7058716,12.2977295-10.7058716l-1.6554565-3.6440125h-11.6870117v-47.930191
	c20.0036011,0.9468384,39.6560059,10.0497589,50.2528687,26.3730621v54.1462097
	c-0.6394653,1.0568542-1.2814941,2.1106873-1.8881226,3.1927795c0.6455078-0.5995789,1.2597656-1.2244263,1.8881226-1.8371277
	v4.3223267c-13.6624756,0-39.9891357,0-39.9891357,0l-1.4182129,3.6439819c5.2025146,0,9.2230225,1.3667603,9.2230225,12.3007813
	v106.1463623c0,7.9724121-4.0205078,10.2496338-9.2230225,10.2496338l1.4182129,3.6450195l54.6287231,0.2271118l4.2567139-1.1386108
	l4.9663086-15.2614136l-3.7832642-1.3667297c-2.1289063,4.3283691-5.2025757,10.4777527-19.8653564,10.4777527h-16.7906494
	c-2.6013184,0-4.9663696-1.821991-4.9663696-4.3273621v-68.789856h8.5134277
	c8.9868774,0,11.1157227,6.6056519,11.1157227,11.8445129l4.729126-1.3667297v-25.283905l-4.729126-1.5948792
	c0,5.2398682-2.1288452,12.0726318-11.1157227,12.0726318h-8.5134277v-37.5836792
	c0-2.9616089,2.1288452-5.0117493,4.7301636-5.0117493h12.2977295c1.5928345,0.025238,3.067627,0.1988525,4.4434204,0.4845276
	c-0.3734741,0.6874084-0.7630615,1.3637085-1.1209106,2.0622253c0.6248169-0.6248169,1.215332-1.2738647,1.8199463-1.9118347
	c3.8449097,0.9286804,6.8363037,2.7900391,9.130188,5.0006714c-1.2960815,2.1560974-2.5598755,4.3364563-3.7116089,6.5995789
	c1.7473145-1.6877441,3.390625-3.4522095,5.0036621-5.2398987c3.2402344,3.725769,4.7735596,8.0430298,5.2454834,10.5443726
	l3.7843018-1.3667603l-4.6716309-14.1792908c0.9705811-1.1608276,1.9280396-2.3317566,2.8733521-3.5107422
	c3.0227051-3.7913818,5.9293213-7.6685486,8.7294312-11.6244507c1.713501,5.4044189,4.9935913,9.9255981,9.1755981,12.8852234
	c-1.899231,0.5551758-3.7979126,1.1113586-5.6900635,1.6887512l-6.0464478,1.8270264l-0.1099854-0.1837158l-0.1035156,0.2473145
	l-2.2741699,0.6874084l-0.3255615,0.0979309l0.157959,0.303833l1.1038208,2.1217957l-0.0938721,0.2240906l0.1766357-0.0646057
	l2.9136963,5.6022644l4.1628418,7.8522644l4.1623535,7.8512573c1.3803711,2.62146,2.8076782,5.2176819,4.2087402,7.8280334
	l0.2816162-0.1483765c-0.3457031-1.4909058-0.7706909-2.9404297-1.2259521-4.3748169l-0.7055664-2.1389465l-0.769165-2.1056519
	c-0.4976196-1.4111633-1.0700073-2.7839966-1.6377563-4.1588135c-0.2872314-0.6853943-0.5551758-1.3808899-0.8575439-2.0592041
	l-0.9210815-2.0249023c-1.1986694-2.7163391-2.5220337-5.3670654-3.8857422-7.9966125
	c-0.9321899-1.7523499-1.8795166-3.4966125-2.869812-5.2176819c0.37854-0.1513977,0.7590942-0.2957458,1.1340942-0.4572754
	c1.3793945-0.5703125,2.7633057-1.1244812,4.1199341-1.7695007l2.0440674-0.9377441l2.0213623-1.0094299
	c0.6622314-0.3391418,1.3218384-0.6874084,1.9769897-1.0497742c1.8336182,1.1588135,3.8206177,2.0238647,5.9100952,2.5457458
	c-0.4193726,0.0605774-0.8377686,0.1665649-1.2481079,0.3341064c-2.7143555,1.1073303-4.0175171,4.2052307-2.9106445,6.9195557
	c1.1072998,2.7153625,4.2052002,4.0174866,6.9200439,2.9111633c1.2703247-0.5188293,2.2268066-1.475769,2.7764282-2.622467
	c1.2794189,2.3307495,4.1304932,3.3855896,6.6530762,2.3559875c2.7142944-1.1063232,4.0174561-4.2042236,2.9101563-6.9185486
	c-0.8095703-1.9855347-2.6845703-3.2099609-4.6948242-3.2947388c2.3049927-0.7287903,4.4449463-1.8754883,6.3517456-3.37146
	c1.0149536,0.2503357,2.0289307,0.5026855,3.0459595,0.7439575l8.2332764,1.9784546l-3.6500244,7.6463318l-3.7348633,7.9844971
	l-3.7348633,7.9865112c-1.2521973,2.6578064-2.4573975,5.3388367-3.6878662,8.0067139l0.2836304,0.1352539
	c0.9740601-1.164856,1.8684082-2.3680725,2.730957-3.5854492l1.2728882-1.8361206l1.2072754-1.8664246
	c0.8201294-1.2375488,1.5650635-2.5114441,2.3150635-3.7812805c0.371521-0.6379395,0.7631226-1.2658081,1.117981-1.9098206
	l1.0543213-1.940094c1.4364014-2.5709839,2.7435913-5.2035522,4.0134277-7.8532715
	c1.2406006-2.6638489,2.4539185-5.3408508,3.5253906-8.0844421l1.1936646-3.0585327l-2.9192505-0.5249023
	c-1.4475098-0.260437-2.8955078-0.5208435-4.3616943-0.7025452c-1.4616699-0.2028809-2.9197388-0.4189148-4.3990479-0.5471191
	l-1.8987427-0.1887512c4.3789063-4.1890869,7.2213745-10.3475342,7.5767212-17.2327881l1.9476929-2.1783142l6.2245483,6.3956604
	l6.5294189,6.5915222l6.5289307,6.5924988c2.1697388,2.2035522,4.3828735,4.3657227,6.5723267,6.5501099l0.2654419-0.260437
	c-0.762085-1.41922-1.5983887-2.7658081-2.4619751-4.0841064l-1.317749-1.9562378
	c-0.4472046-0.6450195-0.9185791-1.2658081-1.3768921-1.8997192c-0.4668579-0.6258545-0.9109497-1.2728882-1.3959961-1.8795471
	l-1.4510498-1.8270569l-1.4560547-1.8199768l-1.5020142-1.7765808c-4.057373-4.6846924-8.3787231-9.1099854-12.9771118-13.2637329
	l-2.5932007-2.342865l-1.7099609,2.2136536c-0.157959-1.2930603-0.4012451-2.5528259-0.7237549-3.7722168l5.1738281-5.7112732
	l7.053772,6.1029358l7.3425293,6.2523499l7.3430176,6.2513123c2.4422607,2.0905151,4.921936,4.1365967,7.3813477,6.2069092
	l0.2366943-0.2765808c-0.9337158-1.3788452-1.934021-2.6809998-2.9580688-3.9559021l-1.5565186-1.8886108
	c-0.5244141-0.6228333-1.0725098-1.2173767-1.6080322-1.828064c-0.5425415-0.6016235-1.0674438-1.2234192-1.6241455-1.8088684
	l-1.6751099-1.7503357l-1.6776733-1.7463074l-1.7200317-1.6978455c-2.3161011-2.2368469-4.6887817-4.4081116-7.1209717-6.5097351
	c-2.4447632-2.0874634-4.9173584-4.1426392-7.4822998-6.0888062l-2.4871826-1.8876038l-1.7150269,2.1591492
	c-1.0366821,1.3061829-2.0718384,2.6133728-3.0489502,3.9720459c-0.2825928,0.3876343-0.5678101,0.774231-0.8529663,1.1608276
	c-0.5587158-1.4172058-1.2254028-2.7637634-1.9925537-4.0245361c1.2778931-1.4202576,2.5527954-2.8425293,3.812561-4.2789307
	l6.7838135-7.6786499l6.9714966,7.2375488l7.2980957,7.4525146l7.2980957,7.4515381
	c2.4256592,2.4912415,4.8982544,4.9360657,7.3445435,7.4071045l0.284668-0.2765808
	c-0.8656006-1.5817566-1.8118896-3.086792-2.7875366-4.562561L690.2225342,300.0637817z M645.5795288,245.0615845
	c0.725769-1.264801,1.6403198-2.9656677,3.0545044-3.5864716c0.6187744-0.2715302,0.8605347-0.2472992,1.2915649-0.0645905
	l0.4118042,0.2836456c-0.1241455-0.1019592,0.335144,0.4249573,0.3149414,0.3956909
	c0.635437,0.9256287,0.8418579,1.9582672,0.5375366,2.9091339c-0.2573853,0.8045197-1.2713623,1.5948792-2.2954102,1.8977051
	c-1.3405151,0.3967133-2.8551636,0.3129272-4.1881104-0.2230682
	C644.9865112,246.1305542,645.2752075,245.5915222,645.5795288,245.0615845z M71.7757797,400.2142029
	c-0.5314636-0.9670105-1.3349609-1.7099609-2.2711945-2.1793213c0.8630524,0.067627,1.736702,0.0847778,2.6209564,0.0332947
	c0.6329041-0.0373535,1.2557144-0.11203,1.8709564-0.2089539C73.0017166,398.4073486,72.2416229,399.2411194,71.7757797,400.2142029
	z M122.3784103,367.8260193c-0.5253983-0.7015686-1.0265732-1.4273376-1.5716629-2.1086731l-1.631218-2.0511475
	l-1.6367722-2.0450745l-1.68573-1.9976501c-2.2757339-2.6365967-4.6256561-5.2015381-7.040184-7.7038879
	c-2.4316864-2.4851685-4.9042587-4.9299927-7.4782715-7.276886l-2.7759018-2.5306091l-2.0400314,2.6567993
	c-1.0815964,1.4081421-2.1606598,2.8182983-3.1791687,4.2819519c-1.0296021,1.4535522-2.0864639,2.8828735-3.0449066,4.3990479
	l-1.4697113,2.2449341l-1.3738174,2.274231c-4.2880096-6.0646057-10.9547119-9.7974243-18.2240372-9.37146
	c-0.5768814,0.0333252-1.1441803,0.1009521-1.7064209,0.1847229c-2.7703476-7.9562378-4.8406677-16.1557312-6.1796608-24.4894714
	c-1.2617722-7.8563232-1.8169518-15.8337402-1.7250938-23.7889709c0.031292-2.6820374,0.1458588-5.3630371,0.3295746-8.0390015
	c3.3346138,0.1049805,6.7131348-0.7358704,9.3598328-2.5397034c2.470047-1.6837158,4.3914719-4.1668701,4.9153595-7.1607971
	c0.6975098-3.9912415-0.8257065-8.4660034-4.7967529-10.0871277c-3.6162415-1.475769-7.9915657,0.1069946-10.4187126,3.0242004
	c-2.457428,2.9545898-3.2109604,6.6763-3.6490479,10.3919678l-0.1276894-0.0625916
	c-2.4039307-1.3283691-4.352108-3.8630371-5.6517334-6.5097351c-1.3924904-2.8354492-2.1323967-6.0756836-2.4988136-9.1998291
	c-0.9039345-7.7149658-0.3724747-15.7438965,0.7520142-23.4063873c1.085125-7.3939819,2.8299065-14.6597748,5.0536537-21.7852631
	c17.3796539-7.3404846,38.9771652-7.0003052,52.6966782,5.7264404c5.5972214,5.1924438,9.379509,11.8959808,12.153389,19.0699158
	v65.6434631H101.243721l-0.7096176,3.6450195c5.2025375,0,12.7701492,1.821991,14.6617966,10.7059021l8.0687866,39.1210022
	C122.9679108,368.6375732,122.6731644,368.231781,122.3784103,367.8260193z M60.3844948,287.2825012
	c0.2952538-3.0363159,0.7131538-6.5733032,2.9969597-8.6971436c1.643837-1.5302734,4.5504608-2.058197,5.5442276,0.4118652
	c0.5132904,1.2738647,0.3997345,2.3640442,0.0595551,3.4673462c-0.2518463,0.818634-0.7873459,1.6392822-1.4692078,2.3065186
	c-1.3748245,1.3455505-3.6616631,2.243927-5.5689583,2.4387512
	C61.4156151,287.2633362,60.8962669,287.2845459,60.3844948,287.2825012z M204.2952271,277.5305176h-10.1123505
	l-2.3640594,3.4158936c5.2025299,0,11.8243256,2.0501099,10.168869,10.7058716l-25.3040924,127.3300171l-13.2435608-67.8783264
	l-1.8916473-9.1119995h-6.8589935l-1.8916626,9.1119995l-11.3509064,56.4890747l-15.8448334-77.672699
	c-1.6554413-8.8839111,4.9663391-10.7059021,10.1688843-10.7059021l-2.1288605-3.6450195h-10.7402191v-57.143158
	c13.4565582-23.6577301,45.2290039-33.4833984,71.9351807-26.9342957c3.2271118,0.7913818,6.3775024,1.7806091,9.458252,2.9343719
	V277.5305176z M270.3894043,510.0166931c-2.4084778,2.6062927-5.6956482,5.0359802-9.3144226,4.1062927
	c-2.9394226-0.7550049-4.2350159-3.366394-2.5114136-5.969696c1.9542236-2.9515381,5.5906677-3.018158,8.4548645-1.3818665
	c1.4136963,0.8075256,2.5498047,1.8825378,3.4754333,3.1231384L270.3894043,510.0166931z M278.9386597,587.5127563
	c-1.053833,0.4693604-1.958252,1.2122803-2.5563354,2.1793213c-0.5238953-0.9730835-1.3804016-1.8068237-2.4998474-2.3549805
	c0.6929932,0.0979004,1.3935242,0.1716309,2.1056519,0.2089844
	C276.983429,587.5975342,277.9671021,587.5803833,278.9386597,587.5127563z M341.7376099,246.8401794
	c0,7.2627563-5.8879395,13.1506958-13.1517334,13.1506958h-3.2553711c-7.2627563,0-13.1506958-5.8879395-13.1506958-13.1506958
	v-23.7970276l29.5578003,9.3784943V246.8401794z M404.8121033,246.8401794c0,7.2627563-5.8889465,13.1506958-13.1517029,13.1506958
	h-3.2553711c-7.2637939,0-13.1517334-5.8879395-13.1517334-13.1506958v-14.4185333l29.5588074-9.3784943V246.8401794z
	 M447.2187805,377.0702515c0,25.9672852-7.3304138,46.240448-21.0473938,46.240448
	c-13.4797668,0-20.8111572-20.2731628-20.8111572-46.240448c0-26.194397,7.3313904-46.4665222,20.8111572-46.4665222
	C439.8883667,330.6037292,447.2187805,350.8758545,447.2187805,377.0702515z M462.5760498,510.8424072
	c-0.9947815,0.5480957-1.7553711,1.3808594-2.2207031,2.3549805c-0.5314636-0.967041-1.3349609-1.7099915-2.271698-2.1793518
	c0.8635559,0.067627,1.7372131,0.0847778,2.62146,0.0322876
	C461.3380127,511.0140076,461.9608154,510.9393005,462.5760498,510.8424072z M534.1821899,277.5305176h-10.5776978
	L501.6112671,382.537262l-15.1352234-66.9678345h-7.2970886v-62.6777954
	c11.6971436-10.0144348,25.0648804-17.7405243,39.9840698-21.3996582c4.8835449-1.1971741,9.9387207-1.8361359,15.019165-1.9542389
	V277.5305176z M605.2159424,321.1888733c-0.4552612,0.6692505-0.8978882,1.3465576-1.3460693,2.0208435l-1.9920654-6.0454102
	l-3.52948-1.1335754c0.951416-1.165863,1.8931885-2.3377991,2.8213501-3.5208435
	c3.6717529-4.6937866,7.1880493-9.5006409,10.5615234-14.4124756c1.227478,0.756073,2.4594727,1.5050659,3.7010498,2.2398987
	c-0.1342773,1.4142151-0.1690674,2.8596802-0.0838013,4.332428c0.0479736,0.824707,0.1322632,1.636261,0.2478027,2.4367371
	C611.9769897,311.6831665,608.5131836,316.3739624,605.2159424,321.1888733z M615.9051514,297.2051086
	c-1.230957-0.9266663-2.4690552-1.8442078-3.7156372-2.7466431l-1.2617798-0.9145203l-1.0266113,1.3172913
	c-3.9780884,5.1056213-7.7790527,10.3404846-11.4053955,15.7025146c-1.1638794,1.7261047-2.2974243,3.4743958-3.4163818,5.2338257
	c-0.102478,0-0.1998901,0-0.3078613,0V306.17276l0.1190796-0.1251526c2.3191528-2.479126,4.5439453-5.0319519,6.7363892-7.6100159
	c3.9478149-4.6786499,7.7381592-9.4814453,11.3892212-14.39328c1.9012451,1.87146,3.821167,3.7237244,5.8006592,5.5215149
	C617.4859009,291.8713379,616.4911499,294.4493713,615.9051514,297.2051086z M633.7733765,268.5436707
	c-0.3729858,3.4754333-0.6026001,6.9589233-0.7146606,10.444458c-5.2227173,0.9942627-9.7454224,4.116394-12.9195557,8.5336304
	c-1.9648438-2.4801636-3.9942627-4.8987122-6.0560303-7.2880249l-1.2859497-1.4898987l-1.3491211,1.598938
	c-4.3626709,5.1742554-8.5467529,10.4898682-12.5480347,15.9487915c-1.4036255,1.9320374-2.7779541,3.8872681-4.12854,5.8606873
	V254.11203c2.8757935-8.7264252,6.9740601-17.0642242,13.6483154-23.2559814
	c5.991394-5.5578613,13.4853516-8.7526703,21.4743652-9.9781036c-0.2185059,6.4451294,0.833313,12.9356842,3.2155151,18.9195251
	c1.2113037,3.043396,2.8092041,6.1735992,5.1339111,8.5548096c-0.6207886,1.6160889-1.1623535,3.2503357-1.6347656,4.8492584
	C635.1325684,258.1991577,634.3285522,263.3714294,633.7733765,268.5436707z M638.0523071,330.2958374
	c-0.5309448-0.9670105-1.3339844-1.7099609-2.2702026-2.1803284c0.8635864,0.068634,1.7372437,0.0857849,2.62146,0.0343018
	c0.6329346-0.0363159,1.255249-0.1110229,1.8709717-0.2079163
	C639.2792358,328.4899902,638.5186768,329.3227539,638.0523071,330.2958374z"/>
</svg>
