<?xml version="1.0" encoding="UTF-8"?>
<!DOCTYPE svg PUBLIC "-//W3C//DTD SVG 1.1//EN" "http://www.w3.org/Graphics/SVG/1.1/DTD/svg11.dtd">
<!-- Creator: CorelDRAW X7 -->
<svg xmlns="http://www.w3.org/2000/svg" xml:space="preserve" width="16.9332mm" height="16.9332mm" version="1.1" style="shape-rendering:geometricPrecision; text-rendering:geometricPrecision; image-rendering:optimizeQuality; fill-rule:evenodd; clip-rule:evenodd"
viewBox="0 0 1693 1693"
 xmlns:xlink="http://www.w3.org/1999/xlink">
 <defs>
  <style type="text/css">
   <![CDATA[
    .fil0 {fill:black}
   ]]>
  </style>
 </defs>
 <g id="Capa_x0020_1">
  <metadata id="CorelCorpID_0Corel-Layer"/>
  <path class="fil0" d="M986 859c0,-72 19,-121 62,-164 18,-18 36,-32 60,-44 143,-72 319,34 319,190 0,72 -21,122 -64,165 -139,139 -377,35 -377,-147zm-402 -617c0,42 51,64 75,100 -14,1 -95,34 -118,39 3,11 29,34 39,43l122 123c14,13 34,24 57,18 20,-4 36,-20 40,-42 8,-44 -43,-69 -61,-97 8,-3 17,-6 27,-9 10,-3 17,-7 28,-11l60 -19c-4,-13 -88,-92 -99,-104 -18,-17 -34,-33 -52,-51 -22,-22 -31,-42 -67,-42 -27,0 -51,26 -51,52zm-318 617c0,-72 20,-121 63,-164 18,-18 35,-32 59,-44 59,-30 137,-30 196,-1 25,12 42,26 61,45 85,84 83,226 -2,311 -139,139 -377,35 -377,-147zm221 320c64,0 140,-24 191,-62l45 -40c26,-25 53,-65 68,-102 17,-42 25,-85 25,-143 24,-13 37,-13 61,0 0,58 8,101 25,143 15,37 42,77 68,102 48,48 92,75 161,93 50,12 101,12 151,0 50,-13 101,-37 140,-72 82,-73 114,-159 114,-273l48 -27c0,18 3,21 3,37 0,234 -97,414 -215,531 -31,31 -62,59 -100,85 -37,25 -77,51 -119,68 -70,30 -139,56 -219,62 -95,8 -77,9 -172,1 -27,-3 -54,-8 -80,-14 -47,-10 -95,-28 -138,-47 -208,-93 -368,-284 -418,-507 -11,-49 -20,-117 -20,-167 0,-25 3,-40 3,-67 15,11 28,27 51,42 -14,29 9,115 20,147 17,50 53,93 88,126 35,34 92,62 141,74 20,5 55,10 78,10zm-297 -471c-18,-13 -40,-38 -60,-49 4,-9 6,-19 9,-30 41,-128 104,-223 197,-317 94,-93 234,-164 366,-191 214,-43 423,10 597,141 41,31 90,79 122,119l52 73c73,110 83,202 96,229 -8,2 -23,12 -32,17 -10,6 -20,14 -31,17 -5,-21 -33,-63 -46,-78 -140,-166 -389,-151 -509,3 -14,18 -42,59 -47,81 -12,-1 -16,-3 -25,-6 -46,-11 -71,5 -90,6 -11,-48 -69,-110 -110,-141 -107,-81 -267,-81 -377,-5 -54,38 -82,74 -112,131zm-190 105l0 61c0,216 106,431 247,572 71,71 146,122 240,169 89,44 227,78 332,78l55 0c216,0 431,-106 572,-247 145,-145 247,-361 247,-572l0 -55c0,-216 -106,-430 -247,-572 -145,-144 -361,-247 -572,-247l-55 0c-117,0 -250,39 -330,78 -188,90 -317,222 -409,407 -38,76 -80,216 -80,328z"/>
 </g>
</svg>
