<?xml version="1.0" encoding="UTF-8"?>
<!DOCTYPE svg PUBLIC "-//W3C//DTD SVG 1.1//EN" "http://www.w3.org/Graphics/SVG/1.1/DTD/svg11.dtd">
<!-- Creator: CorelDRAW -->
<svg xmlns="http://www.w3.org/2000/svg" xml:space="preserve" width="16.9332mm" height="16.9332mm" style="shape-rendering:geometricPrecision; text-rendering:geometricPrecision; image-rendering:optimizeQuality; fill-rule:evenodd; clip-rule:evenodd"
viewBox="0 0 16.9332 16.9332"
 xmlns:xlink="http://www.w3.org/1999/xlink">
 <defs>
  <style type="text/css">
   <![CDATA[
    .fil5 {fill:#221E1F}
    .fil4 {fill:#221E20}
    .fil3 {fill:#221F1F}
    .fil2 {fill:#231F20}
    .fil1 {fill:#242021}
    .fil6 {fill:#514D4E}
    .fil7 {fill:#696566}
    .fil0 {fill:white}
   ]]>
  </style>
 </defs>
 <g id="Capa_x0020_1">
  <metadata id="CorelCorpID_0Corel-Layer"/>
  <path class="fil0" d="M11.1642 14.0155c-0.0233,-0.1255 0.0442,-0.2237 0.1259,-0.2628 0.1045,-0.0499 1.7357,-0.0228 1.9735,-0.0228 0.2444,-0.0001 0.5765,-0.0569 0.6142,0.19 0.0452,0.2969 -0.2556,0.2759 -0.4967,0.2759l-1.594 -0.0006c-0.2516,0.0002 -0.578,0.0619 -0.6229,-0.1797zm0.1791 -9.6205c-0.0465,-0.0545 -0.0952,-0.115 -0.1659,-0.1266 0.014,0.079 0.0781,0.1006 0.1218,0.1543 0.0579,0.0709 0.0234,0.1243 -0.068,0.0988l-0.0146 -0.1273 0.1089 0.1829 0.0178 -0.1821zm0.549 -0.6114c0.0322,-0.047 0.0318,-0.0088 0.1737,0.075l-0.0919 -0.1728 -0.0183 -0.0462c-0.0744,0.0693 0.0059,0.0508 -0.1112,0.0977 -0.1137,-0.1594 -0.2373,-0.319 -0.3535,-0.4832l-0.0084 0.7307c-0.001,0.2007 0.0246,1.3474 -0.0276,1.4459 -0.0968,0.1827 -0.3972,0.1484 -0.4336,-0.0756 -0.0266,-0.1636 -0.0033,-0.545 -0.0045,-0.7329 -0.0046,-0.7118 -0.003,-1.4923 0.0095,-2.1941 0.0032,-0.0032 0.0074,-0.0076 0.0096,-0.0098 0.048,-0.0496 0.072,-0.0874 0.1351,-0.1083 0.0637,-0.0211 0.1403,-0.0149 0.1942,0.0152 0.0963,0.0538 0.526,0.7111 0.6098,0.7984 0.0215,0.0223 0.0105,0.0116 0.0217,0.0174 0.0486,0.1043 0.1693,0.2434 0.2406,0.3433 0.0403,0.0564 0.0819,0.1098 0.1211,0.1642l0.1392 0.1722c0.008,0.0248 0.4828,0.7061 0.5546,0.7558l0.0018 -1.3633c0.0004,-0.5879 -0.118,-1.0297 0.3882,-0.8747 0.078,0.1246 0.0801,0.1304 0.0795,0.338l-0.0001 2.0967c0,0.2675 0.0456,0.6239 -0.0967,0.7319 -0.1061,0.0806 -0.2338,0.0431 -0.3068,-0.0333 -0.0555,-0.058 -0.799,-1.0828 -0.8884,-1.2088 -0.0642,-0.0906 -0.3194,-0.4088 -0.3376,-0.4794zm-8.5487 8.471c-0.0131,0.0448 -0.1296,0.1205 -0.164,0.1673l0.1332 0.1815 -0.0763 -0.1741 0.1732 0.0884c-0.0709,-0.1078 -0.0991,-0.115 -0.09,-0.1732l0.0589 0.0103c0.002,0.0023 0.019,0.0201 0.0193,0.0204 0.0016,0.0016 0.0087,0.0121 0.01,0.0089 0.0015,-0.0035 0.0074,0.0065 0.0111,0.0097 0.0035,0.0739 0.1259,0.2197 0.1641,0.2619 0.0583,0.0645 0.152,0.1352 0.248,0.188 0.3221,0.1768 0.4414,0.0705 0.7409,0.1415 0.0461,0.054 0.0563,0.02 0.0989,0.1098 0.0644,0.1357 0.018,0.3343 -0.2662,0.3384 -0.4709,0.0069 -0.9164,-0.1589 -1.1991,-0.5008 -0.8504,-1.0286 -0.1115,-2.3856 1.0478,-2.4331 0.1534,-0.0014 0.3106,-0.0213 0.3887,0.0747 0.0796,0.0978 0.0569,0.2562 -0.026,0.3322 -0.0978,0.0896 -0.2523,0.049 -0.395,0.0608 -0.4683,0.0385 -0.853,0.4223 -0.9049,0.8846 -0.0202,0.179 0.0186,0.2555 0.0274,0.4028zm4.0536 -3.7476l-0.1861 0.0305 0.0175 -0.0654 0.053 0.0677 -0.0039 -0.1164c-0.132,-0.048 -0.1618,0.1199 -0.0769,0.1813 0.0936,0.0677 0.2001,-0.0353 0.1964,-0.0977zm-1.8455 3.9111c-0.3795,0.0511 -0.2802,0.6194 0.0931,0.542 0.3361,-0.0698 0.2574,-0.5893 -0.0931,-0.542zm6.2443 0.1595c-0.1034,-0.0009 -0.2078,0.0017 -0.3114,0.0021 -0.1289,0.0005 -0.1436,-0.0143 -0.2426,-0.0407l-0.0308 -0.0453c-0.0171,-0.0236 -0.0217,-0.0252 -0.033,-0.0513 -0.0849,-0.1975 0.0889,-0.2833 0.1392,-0.3222 0.1089,-0.0102 2.1645,-0.0176 2.3332,-0.0063 0.0536,0.0035 0.0943,0.0153 0.1316,0.0407 0.0165,0.0113 0.0306,0.025 0.0446,0.0395l0.0264 0.029c0.0027,0.0029 0.0073,0.0079 0.0096,0.0103 0.0022,0.0024 0.0062,0.0071 0.0096,0.0104 -0.0049,0.0761 0.019,0.1627 -0.0297,0.2359 -0.1091,0.1641 -0.5178,0.1004 -0.814,0.1004 -0.3906,0 -0.8507,0.0221 -1.2327,-0.0025zm-4.3295 -4.3394c0.6528,-0.0422 0.7951,0.1408 0.7649,-0.6395l-0.003 -0.1334 0.0026 -0.0826 0.0013 -3.3476 0.0002 -0.8723 -0.0002 -1.7611c0.0002,-0.214 0.0053,-0.3552 -0.1571,-0.431 -0.139,-0.0648 -1.9965,-0.029 -2.3118,-0.029 -0.5125,0 -4.5179,-0.0332 -4.6516,0.0217 -0.17,0.0698 -0.1712,0.2291 -0.1707,0.3878l0.0001 6.4245c-0.0001,0.198 -0.0088,0.3343 0.1388,0.4207 0.1078,0.0632 0.4144,0.0386 0.5558,0.0386 0.3952,0 0.7905,-0.0008 1.1857,0.0001l1.1242 0 3.5208 0.0031zm4.1485 0.0006l0.9859 -0.0037 2.6259 -0.0001c0.9519,0 0.7582,0.1375 0.7636,-1.9019l-0.0001 -3.5057c0,-0.2601 0.0344,-1.6095 -0.0317,-1.7387 -0.1084,-0.2118 -0.4807,-0.147 -0.7318,-0.147l-6.158 -0.0002c-0.3735,-0.0015 -0.3714,0.169 -0.3714,0.5105l0 6.1559c0,0.7599 0.0164,0.6271 1.1433,0.6271 0.5866,0 1.1899,-0.0136 1.7743,0.0038zm-3.3827 4.4515l0.0002 -0.7381 -0.0001 -1.5096c-0.0002,-0.2516 0.0004,-0.5032 0.0008,-0.7548 0.0004,-0.2219 0.014,-0.5068 -0.002,-0.7217 -0.0224,-0.2997 -0.3133,-0.2652 -0.4711,-0.2652l-3.641 0c-0.3159,0.0001 -2.6758,-0.0184 -2.919,0.0012 -0.2499,0.0202 -0.259,0.2234 -0.2589,0.4658l0 5.0991c0,0.4632 -0.0258,1.0022 0.0003,1.456 0.0145,0.251 0.2138,0.2712 0.4594,0.271l5.1008 0c0.459,0 0.996,0.0253 1.4438,-0.0015l0.1051 -0.0178c0.2512,-0.1361 0.1817,-0.3579 0.1817,-0.6845 0,-0.2907 0,-0.5813 0,-0.8722 0,-0.5757 -0.0003,-1.1517 0,-1.7277zm7.7602 -0.6207c-0.0197,-0.5405 -0.0024,-1.1163 -0.002,-1.6605 0.0002,-0.274 0,-0.548 0,-0.8219 0,-0.1668 0.0472,-0.6903 -0.0677,-0.7681 -0.0078,-0.028 -0.0012,-0.0162 -0.0212,-0.0411 -0.0196,-0.0244 -0.0629,-0.049 -0.0896,-0.0606 -0.0653,-0.0285 -0.1032,-0.0189 -0.1823,-0.0192 -2.006,-0.0096 -4.0496,0.0028 -6.0574,0.0028 -0.1868,0 -0.6388,-0.0416 -0.7621,0.0569 -0.1661,0.1328 -0.1129,0.4353 -0.1128,0.6951l0 4.8308c0,1.823 -0.1546,1.7102 0.7238,1.7102l5.6713 0c0.1741,-0.0001 0.6401,0.0333 0.7621,-0.0423 0.1906,-0.118 0.1357,-0.4062 0.1357,-0.6782 0,-1.0624 0.0208,-2.1447 0.0022,-3.2039zm-11.1166 0.8555c-0.0877,-0.4518 0.0907,-0.7795 0.4212,-0.9196 0.2567,-0.1088 0.5947,-0.0533 0.7973,0.136 0.0693,0.0649 0.0917,0.1443 0.1615,0.1986 0.0121,0.1281 0.1498,0.3135 0.0158,0.639 -0.0721,0.1753 -0.2134,0.3205 -0.3952,0.3951 -0.2138,0.0877 -0.4517,0.0764 -0.648,-0.0317 -0.2803,-0.1544 -0.2727,-0.3232 -0.3526,-0.4174zm-3.0844 2.1303c-0.014,-0.1193 0.0472,-0.2072 0.1217,-0.2438 0.1048,-0.0516 0.9661,-0.0273 1.1153,-0.0263l3.7752 -0.0001c0.2326,0 0.5475,-0.0505 0.5782,0.2031 0.0389,0.3219 -0.3503,0.2626 -0.4943,0.2627l-4.5303 0c-0.2361,0 -0.5369,0.0507 -0.5658,-0.1956zm-0.0027 -0.9896c-0.0188,-0.2909 0.3085,-0.2513 0.4175,-0.2512l1.3759 0c0.0916,0 0.2433,-0.0134 0.3192,0.0161 0.1589,0.0619 0.2099,0.3061 0.0308,0.4179 -0.1007,0.0628 -0.8434,0.0323 -0.9876,0.0323 -0.2293,0 -0.4587,0 -0.688,0 -0.13,0 -0.4507,0.0498 -0.4678,-0.2151zm0.1879 -4.6157c0.1332,-0.0313 0.5182,-0.0336 0.6132,0.0383 0.1515,0.1146 0.0956,0.3665 -0.0872,0.4098 -0.1425,0.0338 -0.5373,0.03 -0.6307,-0.0437 -0.151,-0.1192 -0.095,-0.3577 0.1047,-0.4044zm13.1571 -2.1273c-0.0591,0.2298 -0.3394,0.172 -0.595,0.172l-4.5303 0c-0.1092,0 -0.2552,0.0213 -0.3453,-0.0282 -0.0739,-0.0406 -0.1434,-0.1476 -0.1074,-0.2744 0.0622,-0.2191 0.3551,-0.1636 0.6037,-0.1636l4.5303 0c0.1076,-0.0001 0.2577,-0.0229 0.3421,0.0357 0.0702,0.0488 0.1318,0.142 0.1019,0.2585zm-3.3415 -0.9561c-0.0773,0.2022 -0.2786,0.1545 -0.5254,0.1546l-1.3591 0.0001c-0.1155,0.0006 -0.207,0.01 -0.2819,-0.0564 -0.0592,-0.0526 -0.1105,-0.1589 -0.0597,-0.2715 0.0797,-0.1767 0.3016,-0.1374 0.5262,-0.1374l1.3592 -0.0001c0.1133,-0.0004 0.1997,-0.001 0.2704,0.0568 0.0581,0.0475 0.1093,0.1517 0.0703,0.2539zm-2.0846 -4.6691c0.11,-0.0352 0.5322,-0.0377 0.6216,0.0198 0.1688,0.1085 0.1291,0.3679 -0.0562,0.4203 -0.1188,0.0335 -0.5477,0.0254 -0.6328,-0.0323 -0.148,-0.1005 -0.1209,-0.3477 0.0674,-0.4078zm-7.7724 5.349c0.1148,-0.0448 2.6512,-0.0181 3.006,-0.018 0.2052,0 2.1574,-0.0156 2.2634,0.0073 0.228,0.0492 0.2393,0.3694 0.0259,0.4442 -0.1031,0.0361 -1.2878,0.0147 -1.5007,0.0147 -0.3771,0 -3.6555,0.0185 -3.7704,-0.0088 -0.2025,-0.0482 -0.2425,-0.3541 -0.0242,-0.4394zm0.0304 -0.9783c0.1019,-0.0352 1.1286,-0.0115 1.3312,-0.0122 0.1455,-0.0004 0.548,-0.0268 0.6442,0.0353 0.1721,0.1109 0.1214,0.3755 -0.0624,0.4207 -0.1694,0.0417 -1.1072,0.0092 -1.3536,0.0092 -0.1658,-0.0001 -0.5353,0.0335 -0.6452,-0.046 -0.104,-0.0752 -0.1736,-0.3175 0.0858,-0.407zm2.335 -3.1765c0.1948,-0.1628 0.7458,-0.5376 0.9868,-0.7253 0.0516,-0.0402 0.1936,-0.1584 0.2743,-0.1695 0.1334,-0.0184 0.24,0.0613 0.2639,0.1649 0.0489,0.2116 -0.1446,0.2966 -0.3789,0.4669 -0.1645,0.1195 -1.3783,0.9988 -1.4793,1.0876l0.058 0.0601c0.0324,0.0272 0.0378,0.03 0.0655,0.0514 0.4457,0.3453 1.0657,0.8242 1.4834,1.1675 0.1421,0.1168 0.3028,0.1934 0.2485,0.3906 -0.0294,0.1069 -0.1512,0.1889 -0.2886,0.153 -0.0869,-0.0226 -1.4874,-1.1623 -1.7295,-1.3357l0.0008 0.8718c0,0.1302 0.0251,0.2909 -0.054,0.387 -0.0682,0.0827 -0.2033,0.1223 -0.3155,0.045 -0.1018,-0.0702 -0.0965,-0.1748 -0.0962,-0.3313 0.0007,-0.5082 -0.0354,-2.8883 0.0316,-3.0112 0.0472,-0.0867 0.1746,-0.1586 0.3083,-0.0891 0.1099,0.057 0.127,0.1665 0.1261,0.3157 -0.0017,0.2715 0.0167,0.5957 -0.0046,0.8599l0.4994 -0.3593zm-2.3506 -1.1971c0.1043,-0.0353 0.5434,-0.0314 0.6232,0.0272 0.1504,0.1106 0.1365,0.3565 -0.0532,0.414 -0.1125,0.0341 -0.5555,0.028 -0.6327,-0.0297 -0.1468,-0.1098 -0.1299,-0.3466 0.0627,-0.4115zm11.9178 9.117c-0.0742,0.2111 -0.3867,0.1531 -0.6378,0.153l-1.594 0c-0.1189,0 -0.2757,0.0218 -0.3665,-0.0379 -0.0745,-0.0491 -0.145,-0.1587 -0.0932,-0.2881 0.0815,-0.2035 0.4199,-0.1393 0.6442,-0.1397l1.594 -0.0001c0.1193,0 0.2777,-0.0183 0.3608,0.0353 0.0747,0.0482 0.1337,0.1602 0.0925,0.2775z"/>
  <g id="_548555768">
   <path id="_548554496" class="fil1" d="M8.4063 16.1888l-0.1723 -0.0742c-0.003,0.064 0.0174,0.0587 0.0873,0.1742l-0.1375 -0.1854 0.13 -0.1258 0.1795 0.1321 -0.1766 -0.0778c-0.0015,0.1007 0.071,0.0722 0.0896,0.1569zm0.1026 -0.2393l0.1403 -0.0374c-0.0085,0.1079 -0.1386,0.124 -0.1926,0.0393l0.1047 -0.1533 0.0047 0.1203c-0.0696,-0.0219 -0.0083,0.0099 -0.052,-0.0375l-0.0156 -0.0206c-0.0125,0.0383 -0.004,0.0556 0.0105,0.0892zm7.4139 -7.1304c0.1149,0.0778 0.0677,0.6013 0.0677,0.7681 0,0.2739 0.0002,0.5479 0,0.8219 -0.0004,0.5442 -0.0177,1.12 0.002,1.6605 0.0186,1.0592 -0.0022,2.1415 -0.0022,3.2039 0,0.272 0.0549,0.5602 -0.1357,0.6782 -0.122,0.0756 -0.588,0.0422 -0.7621,0.0423l-5.6713 0c-0.8784,0 -0.7238,0.1128 -0.7238,-1.7102l0 -4.8308c-0.0001,-0.2598 -0.0533,-0.5623 0.1128,-0.6951 0.1233,-0.0985 0.5753,-0.0569 0.7621,-0.0569 2.0078,0 4.0514,-0.0124 6.0574,-0.0028 0.0791,0.0003 0.117,-0.0093 0.1823,0.0192 0.0267,0.0116 0.07,0.0362 0.0896,0.0606 0.02,0.0249 0.0134,0.0131 0.0212,0.0411zm-7.6904 1.6235l0.0001 1.5096 -0.0002 0.7381c-0.0003,0.576 0,1.152 0,1.7277 0,0.2909 0,0.5815 0,0.8722 0,0.3266 0.0695,0.5484 -0.1817,0.6845 -0.0634,0.0803 -0.0426,0.0041 -0.0204,0.0324l0.0309 0.0379 -0.141 0.0504 0.1054 0.0487 -0.0863 -0.0904c0.0821,-0.0216 0.1925,-0.0016 0.1226,0.1201l-0.1848 -0.0219c-0.0027,-0.1162 0.0057,-0.1021 0.0685,-0.1594 -0.4478,0.0268 -0.9848,0.0015 -1.4438,0.0015l-5.1008 0c-0.2456,0.0002 -0.4449,-0.02 -0.4594,-0.271 -0.0261,-0.4538 -0.0003,-0.9928 -0.0003,-1.456l0 -5.0991c-0.0001,-0.2424 0.009,-0.4456 0.2589,-0.4658 0.2432,-0.0196 2.6031,-0.0011 2.919,-0.0012l3.641 0c0.1578,0 0.4487,-0.0345 0.4711,0.2652 0.016,0.2149 0.0024,0.4998 0.002,0.7217 -0.0004,0.2516 -0.001,0.5032 -0.0008,0.7548zm7.8227 -1.9356c0.0037,0.0625 -0.1027,0.1651 -0.1964,0.0978 -0.0847,-0.0609 -0.0553,-0.2295 0.0769,-0.1814l0.0056 0.1471c0.0621,-0.0155 0.0352,-0.0656 0.1139,-0.0635zm-8.6579 0c0.0037,0.0624 -0.1028,0.1654 -0.1964,0.0977 -0.0849,-0.0614 -0.0551,-0.2293 0.0769,-0.1813l0.0039 0.1164 -0.053 -0.0677 -0.0175 0.0654 0.1861 -0.0305zm8.5998 -0.2323c0.1195,-0.0799 0.217,-0.0156 0.2414,0.0937l-0.1886 -0.0717 -0.0046 0.0832 0.1351 0.0164 -0.1833 -0.1216zm-3.3961 -0.0396l-0.9859 0.0037c-0.5844,-0.0174 -1.1877,-0.0038 -1.7743,-0.0038 -1.1269,0 -1.1433,0.1328 -1.1433,-0.6271l0 -6.1559c0,-0.3415 -0.0021,-0.512 0.3714,-0.5105l6.158 0.0002c0.2511,0 0.6234,-0.0648 0.7318,0.147 0.0661,0.1292 0.0317,1.4786 0.0317,1.7387l0.0001 3.5057c-0.0054,2.0394 0.1883,1.9019 -0.7636,1.9019l-2.6259 0.0001zm-4.3695 -0.6364c0.0302,0.7803 -0.1121,0.5973 -0.7649,0.6395l-3.5208 -0.0031 -1.1242 0c-0.3952,-0.0009 -0.7905,-0.0001 -1.1857,-0.0001 -0.1414,0 -0.448,0.0246 -0.5558,-0.0386 -0.1476,-0.0864 -0.1389,-0.2227 -0.1388,-0.4207l-0.0001 -6.4245c-0.0005,-0.1587 0.0007,-0.318 0.1707,-0.3878 0.1337,-0.0549 4.1391,-0.0217 4.6516,-0.0217 0.3153,0 2.1728,-0.0358 2.3118,0.029 0.1624,0.0758 0.1573,0.217 0.1571,0.431l0.0002 1.7611 -0.0002 0.8723 -0.0013 3.3476c0.0296,0.0218 0.0202,-0.0261 0.0233,0.0201l0.0377 -0.0795 0.2011 0.1293 -0.1773 -0.0798 0.0893 0.1593 -0.1706 -0.0882 0.0849 0.1861 -0.088 -0.0313zm0.4202 -0.345c-0.0342,0.1835 -0.2797,0.0511 -0.2038,-0.0817 0.0143,-0.025 0.0192,-0.0309 0.0522,-0.0365 0.0827,-0.0141 0.0508,0.0076 0.0601,0.0115 0.0117,0.0933 0.0163,0.0681 -0.0114,0.1134 -0.0424,-0.039 -0.0267,-0.0376 -0.0467,-0.0675l0.0318 0.0986c0.0744,0.0157 0.0312,-0.0228 0.1178,-0.0378zm-8.1375 -6.2893c-0.073,0.3284 -0.0421,1.4852 -0.0421,1.8966 0,1.2792 0.009,2.5822 0.0002,3.8579 -0.0012,0.1653 -0.0195,1.3109 0.0244,1.4238l0.1734 0.3207c-0.2077,0.3423 -0.2019,0.3143 -0.1978,0.8051 0.0169,1.9721 -0.0159,3.9801 0.0012,5.9546 0.0029,0.3286 -0.0483,0.6331 0.1174,0.8932 0.1157,0.1816 0.3189,0.3392 0.6418,0.3422 1.6294,0.0154 3.33,-0.0002 4.9671,-0.0002 0.6232,0 1.3779,0.0388 1.9798,-0.0292l0.0416 -0.0227 0.2437 -0.1453c0.3318,0.2185 0.3107,0.1975 0.7887,0.1975l5.99 0c0.3286,0 0.6277,0.0397 0.8793,-0.1216 0.1857,-0.119 0.3317,-0.3342 0.3353,-0.6609 0.0107,-0.9825 -0.0315,-2.0472 -0.0023,-3.0025 0.0097,-0.3184 0.0024,-0.6678 0.002,-0.9897l0 -2.4993c0,-0.0815 0.0034,-0.1719 -0.0029,-0.2523 -0.006,-0.0775 -0.035,-0.1474 -0.0323,-0.2107l-0.1624 -0.2582 0.1658 -0.3436c-0.0185,-0.0678 -0.0318,-0.0912 -0.1064,-0.09l0.0826 0.169 -0.2193 -0.1069c0.1331,-0.0899 0.0491,-0.0453 0.1142,-0.1122 0.1751,0.0167 0.0726,0.0206 0.1587,0.0447 0.0254,-0.9148 0.002,-2.0167 0.002,-2.9661 0,-0.3124 -0.0175,-0.6682 -0.0065,-0.9729 0.0233,-0.6457 0.0142,-1.7789 0.0062,-2.4657 -0.0045,-0.3858 0.0663,-0.8186 -0.4047,-1.0613 -0.2365,-0.122 -0.6195,-0.0822 -0.9099,-0.0839 -1.9575,-0.0111 -3.9449,-0.0004 -5.9062,0 -0.3363,0 -0.5822,0.0213 -0.7719,0.1989l-0.8892 -0.1989 -3.2384 -0.0001c-0.7214,-0.0021 -1.4437,0.003 -2.1645,0.0001 -0.2861,-0.0011 -0.8088,-0.0287 -1.0648,0.0097 -0.3174,0.0476 -0.4628,0.2317 -0.5938,0.4802z"/>
   <path id="_548554184" class="fil1" d="M11.1774 4.2684c0.0707,0.0116 0.1194,0.0721 0.1659,0.1266l-0.0178 0.1821 -0.1089 -0.1829 0.0146 0.1273c0.0914,0.0255 0.1259,-0.0279 0.068,-0.0988 -0.0437,-0.0537 -0.1078,-0.0753 -0.1218,-0.1543zm-0.1509 -1.8403c-0.0125,0.7018 -0.0141,1.4823 -0.0095,2.1941 0.0012,0.1879 -0.0221,0.5693 0.0045,0.7329 0.0364,0.224 0.3368,0.2583 0.4336,0.0756 0.0522,-0.0985 0.0266,-1.2452 0.0276,-1.4459l0.0084 -0.7307c0.1162,0.1642 0.2398,0.3238 0.3535,0.4832 0.1171,-0.0469 0.0368,-0.0284 0.1112,-0.0977l0.0183 0.0462 0.0919 0.1728c-0.1419,-0.0838 -0.1415,-0.122 -0.1737,-0.075 0.0182,0.0706 0.2734,0.3888 0.3376,0.4794 0.0894,0.126 0.8329,1.1508 0.8884,1.2088 0.073,0.0764 0.2007,0.1139 0.3068,0.0333 0.1423,-0.108 0.0967,-0.4644 0.0967,-0.7319l0.0001 -2.0967c0.0006,-0.2076 -0.0015,-0.2134 -0.0795,-0.338 -0.5062,-0.155 -0.3878,0.2868 -0.3882,0.8747l-0.0018 1.3633c-0.0718,-0.0497 -0.5466,-0.731 -0.5546,-0.7558l-0.1392 -0.1722c-0.0392,-0.0544 -0.0808,-0.1078 -0.1211,-0.1642 -0.0713,-0.0999 -0.192,-0.239 -0.2406,-0.3433 -0.0112,-0.0058 -0.0002,0.0049 -0.0217,-0.0174 -0.0838,-0.0873 -0.5135,-0.7446 -0.6098,-0.7984 -0.0539,-0.0301 -0.1305,-0.0363 -0.1942,-0.0152 -0.0631,0.0209 -0.0871,0.0587 -0.1351,0.1083 -0.0022,0.0022 -0.0064,0.0066 -0.0096,0.0098z"/>
   <path id="_548553896" class="fil2" d="M3.522 3.3347c0.078,0 0.0228,0.0354 0.0865,-0.0103 0.0422,-0.0303 0.0135,-0.0301 0.0774,-0.0453l-0.059 0.1186 0.097 0.0569 -0.0473 0.05c-0.0383,-0.0119 -0.1467,-0.1072 -0.1546,-0.1699zm0.0482 -0.3286c0.0345,-0.0281 0.1754,-0.019 0.1791,0.0719 0.0041,0.1003 -0.0585,0.1361 -0.1503,0.1443 -0.0812,-0.0953 -0.0919,-0.0796 -0.0445,-0.2067l0.0157 -0.0095zm0.2311 0.245c0.0213,-0.2642 0.0029,-0.5884 0.0046,-0.8599 0.0009,-0.1492 -0.0162,-0.2587 -0.1261,-0.3157 -0.1337,-0.0695 -0.2611,0.0024 -0.3083,0.0891 -0.067,0.1229 -0.0309,2.503 -0.0316,3.0112 -0.0003,0.1565 -0.0056,0.2611 0.0962,0.3313 0.1122,0.0773 0.2473,0.0377 0.3155,-0.045 0.0791,-0.0961 0.054,-0.2568 0.054,-0.387l-0.0008 -0.8718c0.2421,0.1734 1.6426,1.3131 1.7295,1.3357 0.1374,0.0359 0.2592,-0.0461 0.2886,-0.153 0.0543,-0.1972 -0.1064,-0.2738 -0.2485,-0.3906 -0.4177,-0.3433 -1.0377,-0.8222 -1.4834,-1.1675 -0.0277,-0.0214 -0.0331,-0.0242 -0.0655,-0.0514l-0.058 -0.0601c0.101,-0.0888 1.3148,-0.9681 1.4793,-1.0876 0.2343,-0.1703 0.4278,-0.2553 0.3789,-0.4669 -0.0239,-0.1036 -0.1305,-0.1833 -0.2639,-0.1649 -0.0807,0.0111 -0.2227,0.1293 -0.2743,0.1695 -0.241,0.1877 -0.792,0.5625 -0.9868,0.7253l-0.4994 0.3593z"/>
   <path id="_548553800" class="fil2" d="M1.9353 7.0466c-0.2183,0.0853 -0.1783,0.3912 0.0242,0.4394 0.1149,0.0273 3.3933,0.0088 3.7704,0.0088 0.2129,0 1.3976,0.0214 1.5007,-0.0147 0.2134,-0.0748 0.2021,-0.395 -0.0259,-0.4442 -0.106,-0.0229 -2.0582,-0.0073 -2.2634,-0.0073 -0.3548,-0.0001 -2.8912,-0.0268 -3.006,0.018z"/>
   <path id="_548553728" class="fil2" d="M15.1338 7.3228c0.0299,-0.1165 -0.0317,-0.2097 -0.1019,-0.2585 -0.0844,-0.0586 -0.2345,-0.0358 -0.3421,-0.0357l-4.5303 0c-0.2486,0 -0.5415,-0.0555 -0.6037,0.1636 -0.036,0.1268 0.0335,0.2338 0.1074,0.2744 0.0901,0.0495 0.2361,0.0282 0.3453,0.0282l4.5303 0c0.2556,0 0.5359,0.0578 0.595,-0.172z"/>
   <path id="_548553608" class="fil2" d="M1.7915 15.0554c0.0289,0.2463 0.3297,0.1956 0.5658,0.1956l4.5303 0c0.144,-0.0001 0.5332,0.0592 0.4943,-0.2627 -0.0307,-0.2536 -0.3456,-0.2031 -0.5782,-0.2031l-3.7752 0.0001c-0.1492,-0.001 -1.0105,-0.0253 -1.1153,0.0263 -0.0745,0.0366 -0.1357,0.1245 -0.1217,0.2438z"/>
   <path id="_548553464" class="fil2" d="M4.572 12.9852c-0.2995,-0.071 -0.4188,0.0353 -0.7409,-0.1415 -0.096,-0.0528 -0.1897,-0.1235 -0.248,-0.188 -0.0382,-0.0422 -0.1606,-0.188 -0.1641,-0.2619 -0.0037,-0.0032 -0.0096,-0.0132 -0.0111,-0.0097 -0.0013,0.0032 -0.0084,-0.0073 -0.01,-0.0089 -0.0003,-0.0003 -0.0173,-0.0181 -0.0193,-0.0204l-0.0589 -0.0103c-0.0091,0.0582 0.0191,0.0654 0.09,0.1732l-0.1732 -0.0884 0.0763 0.1741 -0.1332 -0.1815c0.0344,-0.0468 0.1509,-0.1225 0.164,-0.1673 -0.0088,-0.1473 -0.0476,-0.2238 -0.0274,-0.4028 0.0519,-0.4623 0.4366,-0.8461 0.9049,-0.8846 0.1427,-0.0118 0.2972,0.0288 0.395,-0.0608 0.0829,-0.076 0.1056,-0.2344 0.026,-0.3322 -0.0781,-0.096 -0.2353,-0.0761 -0.3887,-0.0747 -1.1593,0.0475 -1.8982,1.4045 -1.0478,2.4331 0.2827,0.3419 0.7282,0.5077 1.1991,0.5008 0.2842,-0.0041 0.3306,-0.2027 0.2662,-0.3384 -0.0426,-0.0898 -0.0528,-0.0558 -0.0989,-0.1098z"/>
   <path id="_548553272" class="fil2" d="M5.5517 12.4181c0.3505,-0.0473 0.4292,0.4722 0.0931,0.542 -0.3733,0.0774 -0.4726,-0.4909 -0.0931,-0.542zm-0.6758 0.507c0.0799,0.0942 0.0723,0.263 0.3526,0.4174 0.1963,0.1081 0.4342,0.1194 0.648,0.0317 0.1818,-0.0746 0.3231,-0.2198 0.3952,-0.3951 0.134,-0.3255 -0.0037,-0.5109 -0.0158,-0.639 -0.0698,-0.0543 -0.0922,-0.1337 -0.1615,-0.1986 -0.2026,-0.1893 -0.5406,-0.2448 -0.7973,-0.136 -0.3305,0.1401 -0.5089,0.4678 -0.4212,0.9196z"/>
   <path id="_548552624" class="fil1" d="M11.242 12.539c0.099,0.0264 0.1137,0.0412 0.2426,0.0407 0.1036,-0.0004 0.208,-0.003 0.3114,-0.0021 0.382,0.0246 0.8421,0.0025 1.2327,0.0025 0.2962,0 0.7049,0.0637 0.814,-0.1004 0.0487,-0.0732 0.0248,-0.1598 0.0297,-0.2359 -0.0034,-0.0033 -0.0074,-0.008 -0.0096,-0.0104 -0.0023,-0.0024 -0.0069,-0.0074 -0.0096,-0.0103l-0.0264 -0.029c-0.014,-0.0145 -0.0281,-0.0282 -0.0446,-0.0395 -0.0373,-0.0254 -0.078,-0.0372 -0.1316,-0.0407 -0.1687,-0.0113 -2.2243,-0.0039 -2.3332,0.0063 -0.0503,0.0389 -0.2241,0.1247 -0.1392,0.3222 0.0113,0.0261 0.0159,0.0277 0.033,0.0513l0.0308 0.0453z"/>
   <path id="_548552072" class="fil2" d="M11.1642 14.0155c0.0449,0.2416 0.3713,0.1799 0.6229,0.1797l1.594 0.0006c0.2411,0 0.5419,0.021 0.4967,-0.2759 -0.0377,-0.2469 -0.3698,-0.1901 -0.6142,-0.19 -0.2378,0 -1.869,-0.0271 -1.9735,0.0228 -0.0817,0.0391 -0.1492,0.1373 -0.1259,0.2628z"/>
   <path id="_548548352" class="fil2" d="M13.8679 10.8117c0.0412,-0.1173 -0.0178,-0.2293 -0.0925,-0.2775 -0.0831,-0.0536 -0.2415,-0.0353 -0.3608,-0.0353l-1.594 0.0001c-0.2243,0.0004 -0.5627,-0.0638 -0.6442,0.1397 -0.0518,0.1294 0.0187,0.239 0.0932,0.2881 0.0908,0.0597 0.2476,0.0379 0.3665,0.0379l1.594 0c0.2511,0.0001 0.5636,0.0581 0.6378,-0.153z"/>
   <path id="_548560064" class="fil2" d="M1.9657 6.0683c-0.2594,0.0895 -0.1898,0.3318 -0.0858,0.407 0.1099,0.0795 0.4794,0.0459 0.6452,0.046 0.2464,0 1.1842,0.0325 1.3536,-0.0092 0.1838,-0.0452 0.2345,-0.3098 0.0624,-0.4207 -0.0962,-0.0621 -0.4987,-0.0357 -0.6442,-0.0353 -0.2026,0.0007 -1.2293,-0.023 -1.3312,0.0122z"/>
   <path id="_548558552" class="fil2" d="M1.7888 14.0658c0.0171,0.2649 0.3378,0.2151 0.4678,0.2151 0.2293,0 0.4587,0 0.688,0 0.1442,0 0.8869,0.0305 0.9876,-0.0323 0.1791,-0.1118 0.1281,-0.356 -0.0308,-0.4179 -0.0759,-0.0295 -0.2276,-0.0161 -0.3192,-0.0161l-1.3759 0c-0.109,-0.0001 -0.4363,-0.0397 -0.4175,0.2512z"/>
   <path id="_548558456" class="fil2" d="M11.7923 6.3667c0.039,-0.1022 -0.0122,-0.2064 -0.0703,-0.2539 -0.0707,-0.0578 -0.1571,-0.0572 -0.2704,-0.0568l-1.3592 0.0001c-0.2246,0 -0.4465,-0.0393 -0.5262,0.1374 -0.0508,0.1126 0.0005,0.2189 0.0597,0.2715 0.0749,0.0664 0.1664,0.057 0.2819,0.0564l1.3591 -0.0001c0.2468,-0.0001 0.4481,0.0476 0.5254,-0.1546z"/>
   <path id="_548557136" class="fil3" d="M1.9767 9.4501c-0.1997,0.0467 -0.2557,0.2852 -0.1047,0.4044 0.0934,0.0737 0.4882,0.0775 0.6307,0.0437 0.1828,-0.0433 0.2387,-0.2952 0.0872,-0.4098 -0.095,-0.0719 -0.48,-0.0696 -0.6132,-0.0383z"/>
   <path id="_548556920" class="fil4" d="M9.7077 1.6976c-0.1883,0.0601 -0.2154,0.3073 -0.0674,0.4078 0.0851,0.0577 0.514,0.0658 0.6328,0.0323 0.1853,-0.0524 0.225,-0.3118 0.0562,-0.4203 -0.0894,-0.0575 -0.5116,-0.055 -0.6216,-0.0198z"/>
   <path id="_548556296" class="fil5" d="M1.9501 1.6947c-0.1926,0.0649 -0.2095,0.3017 -0.0627,0.4115 0.0772,0.0577 0.5202,0.0638 0.6327,0.0297 0.1897,-0.0575 0.2036,-0.3034 0.0532,-0.414 -0.0798,-0.0586 -0.5189,-0.0625 -0.6232,-0.0272z"/>
   <path id="_548556272" class="fil6" d="M3.5702 3.0061l-0.0157 0.0095c-0.0474,0.1271 -0.0367,0.1114 0.0445,0.2067 0.0918,-0.0082 0.1544,-0.044 0.1503,-0.1443 -0.0037,-0.0909 -0.1446,-0.1 -0.1791,-0.0719z"/>
   <path id="_548556104" class="fil7" d="M3.522 3.3347c0.0079,0.0627 0.1163,0.158 0.1546,0.1699l0.0473 -0.05 -0.097 -0.0569 0.059 -0.1186c-0.0639,0.0152 -0.0352,0.015 -0.0774,0.0453 -0.0637,0.0457 -0.0085,0.0103 -0.0865,0.0103z"/>
  </g>
 </g>
</svg>
