<?xml version="1.0" encoding="UTF-8"?>
<!DOCTYPE svg PUBLIC "-//W3C//DTD SVG 1.1//EN" "http://www.w3.org/Graphics/SVG/1.1/DTD/svg11.dtd">
<!-- Creator: CorelDRAW -->
<svg xmlns="http://www.w3.org/2000/svg" xml:space="preserve" width="16.9332mm" height="16.9332mm" style="shape-rendering:geometricPrecision; text-rendering:geometricPrecision; image-rendering:optimizeQuality; fill-rule:evenodd; clip-rule:evenodd"
viewBox="0 0 16.9332 16.9332"
 xmlns:xlink="http://www.w3.org/1999/xlink">
 <defs>
  <style type="text/css">
   <![CDATA[
    .fil0 {fill:black}
   ]]>
  </style>
 </defs>
 <g id="Capa_x0020_1">
  <metadata id="CorelCorpID_0Corel-Layer"/>
  <path class="fil0" d="M10.8092 12.2369c0.1891,0.0305 0.2681,0.2022 0.4318,0.4318 -0.19,-0.0756 -0.1285,-0.0727 -0.2558,-0.1924 -0.1843,-0.1732 -0.1591,-0.0031 -0.176,-0.2394zm-3.007 -7.3421c-0.0868,0.2533 -0.3123,0.3868 -0.4147,0.696l-0.7073 -0.6053c-0.0066,-0.0065 -0.0178,-0.0201 -0.023,-0.0257l-0.0451 -0.0553 -0.4706 0.3628c0.1879,0.3424 1.6767,0.9443 1.6459,3.3617 -0.0125,0.9755 -0.401,2.1076 -1.0993,2.6387 -0.1459,0.111 -0.5611,0.4581 -0.77,0.4839 -0.109,0.129 -0.1221,0.0655 -0.2111,0.1664l-0.5085 0.5256c-0.0589,0.0595 -0.038,0.0498 -0.101,0.1173 -0.219,0.2344 -0.2184,0.1136 -0.1462,0.2001l1.5252 -0.5802 0.0053 2.3113 0.46 0.0394c0.1435,-0.2701 0.0972,-0.618 0.1004,-0.9908l0.0655 -1.4776 0.8949 0.2078c0.3838,-0.037 0.7561,0.0272 1.1778,-0.0326 0.2838,-0.0402 0.8255,-0.2319 0.9703,-0.2336l0.6377 -0.3545 -0.0931 1.6065c-0.0216,0.3064 -0.107,0.7733 0.0083,1.0252 0.2394,0.2487 0.3907,0.1262 0.5435,-0.0345 0.0312,-0.3199 0.0878,-0.9775 0.0342,-1.2683l0.0275 -0.4208c-0.0082,-0.0083 -0.0207,-0.0331 -0.0245,-0.0251l-0.1271 -0.1057 0.0509 -0.3627c-0.1396,0.0382 0.0059,-0.0134 -0.1157,0.0733 -0.0603,0.043 -0.0087,0.0344 -0.1216,0.0396l0.1368 -0.237 0.1912 0.0837 -0.0294 -0.236 0.1221 -0.0512c0.0668,-0.6125 -0.0199,-0.5701 0.3229,-0.9439 0.1663,-0.1814 0.3853,-0.5266 0.5239,-0.7974 0.2646,-0.5634 0.4943,-1.0754 0.558,-1.7925 0.0295,-0.3319 0.0325,-0.767 -0.0147,-1.0955 -0.0427,-0.2965 -0.2007,-0.7252 -0.2055,-0.9629l-0.342 -0.7045 -0.1232 0.1203c-0.0932,0.0965 -0.2115,0.2169 -0.3365,0.2695l0.0277 0.1354c0.3416,0.451 0.4708,1.6976 0.3727,2.3606 -0.2046,1.382 -1.1305,2.6852 -2.4368,3.1527 -0.6181,0.2213 -1.8391,0.3173 -2.3895,-0.0121l0.0828 -0.1081c0.015,-0.0193 0.0328,-0.0423 0.0583,-0.0754l0.3605 -0.5136c0.6522,-1.0411 0.6802,-2.6725 0.2811,-3.8204 -0.0577,-0.1657 -0.3306,-0.7436 -0.3304,-0.8095 0.0005,-0.2734 0.6164,-0.9749 0.6468,-1.0656 0.0776,-0.2313 -0.025,-0.3503 -0.208,-0.3823 -0.2258,-0.0545 -0.2691,0.0637 -0.4374,0.2028zm-7.1351 -2.441c-0.352,-0.0674 -0.4746,-0.0422 -0.5219,0.3226 -0.0585,0.4512 -0.1248,1.9224 -0.1301,2.3523 -0.0177,1.4261 -0.0836,9.2259 0.3134,9.6224 0.1843,0.1842 0.4862,0.0739 0.5051,-0.2252l-0.1385 -2.3603c-0.1306,-2.5829 -0.1565,-5.5974 -0.0282,-8.189 0.024,-0.4834 0.1711,-1.0807 0.0002,-1.5228zm9.4899 -0.1987c-0.0476,0.3111 -0.1952,1.2733 -0.1176,1.5581 0.0504,0.1853 0.2682,0.2651 0.4309,0.4017 0.159,0.1334 0.2621,0.225 0.4355,0.3921 0.1658,-0.0224 0.1142,-0.0381 0.2302,-0.1569 0.0976,-0.1001 0.1333,-0.1084 0.2387,-0.1905 -0.086,-0.1517 -0.5383,-0.5415 -0.7295,-0.695 -0.0105,-0.2446 0.0002,-0.5042 0.0324,-0.7465 0.044,-0.3304 0.1598,-0.4451 -0.0676,-0.6752 -0.0924,-0.0405 -0.1309,-0.0693 -0.2507,-0.0367 -0.1714,0.0464 -0.0696,0.0478 -0.2023,0.1489zm6.2187 1.7467c-0.5083,-0.0673 -0.7581,0.1928 -1.2868,0.5612 -0.1792,0.1249 -0.3449,0.272 -0.5159,0.4013 -0.1035,0.0783 -0.5132,0.4498 -0.0915,0.4883 0.2366,0.0215 1.6202,-0.6202 1.8879,-0.8745 0.2618,-0.2485 0.169,-0.3405 0.0063,-0.5763zm0.5464 2.7497l0.0111 -0.2362c-0.0773,-0.059 -0.1913,-0.1544 -0.2452,-0.2221 -0.1324,0.0112 -1.4665,0.148 -1.5465,0.1961l-0.2507 0.2978c0.2329,0.1688 1.2759,0.2275 1.6461,0.1903 0.2953,-0.0297 0.2246,-0.1039 0.3852,-0.2259zm-2.8224 -4.1521c-0.1451,0.0695 -0.0863,-0.0083 -0.1973,0.1673 -0.0403,0.0638 -0.0982,0.1654 -0.1439,0.2493 -0.0866,0.1593 -0.1852,0.3475 -0.2754,0.5142 -0.0668,0.1236 -0.2216,0.3682 -0.2498,0.4966 -0.1323,0.6034 0.5128,0.013 0.7377,-0.2766 0.1859,-0.2393 0.6186,-0.6044 0.5979,-0.9229 -0.0184,-0.2854 -0.2269,-0.3439 -0.4692,-0.2279zm-10.9722 10.2207c0.3555,0.0466 0.5758,0.1107 1.0082,0.0793 0.0656,-0.1146 0.0505,-0.0136 -0.0452,-0.1189 -0.033,-0.0362 -0.1019,-0.0875 -0.1398,-0.1248 -0.1038,-0.1022 -0.1537,-0.1663 -0.1803,-0.3585l-0.5747 -0.018c-0.1521,0.2549 -0.2132,0.2244 -0.0682,0.5409zm1.2854 -0.5549l-0.5245 0.0312c0.0016,0.196 0.0638,0.2097 0.1828,0.3263 0.1549,0.1518 0.1363,0.1646 0.3244,0.2294l0.293 -0.0223c-0.0702,-0.445 0.3406,-0.5409 0.3203,-0.6498l-0.1255 -0.012 -0.4705 0.0972zm6.62 -7.5167c0.0564,0.0848 0.0449,0.0979 0.1295,0.1421 0.1898,-0.0424 0.4207,-0.1416 0.566,0.0828 0.1632,0.2521 -0.0785,0.3914 -0.111,0.5417 0.0107,0.0723 -0.0388,0.0668 0.0311,0.0581 0.1033,-0.0925 0.1579,-0.1959 0.3485,-0.3277l0.0679 -0.0514c-0.0476,-0.1822 -0.4413,-0.7062 -0.5528,-0.7999l-0.1727 -0.0049c-0.1288,0.1201 -0.2306,0.1995 -0.3065,0.3592zm-6.024 7.4315c0.0203,0.1089 -0.3905,0.2048 -0.3203,0.6498 0.1178,-0.0021 0.2103,0.0247 0.2627,-0.0688 -0.0722,-0.0865 -0.0728,0.0343 0.1462,-0.2001 0.063,-0.0675 0.0421,-0.0578 0.101,-0.1173l0.5085 -0.5256c-0.171,0.0335 -0.2258,0.0695 -0.3838,0.125 -0.1049,0.0368 -0.2336,0.0631 -0.3143,0.137zm6.1535 -7.2894l0.0131 0.0542c0.1721,0.1447 0.2498,0.4071 0.4419,0.5703 0.0325,-0.1503 0.2742,-0.2896 0.111,-0.5417 -0.1453,-0.2244 -0.3762,-0.1252 -0.566,-0.0828zm0.4861 0.6826l0.1259 0.2571c0.125,-0.0526 0.2433,-0.173 0.3365,-0.2695l0.1232 -0.1203c-0.0216,-0.04 -0.0616,-0.1242 -0.082,-0.1547 -0.0847,-0.1268 -0.0109,-0.0333 -0.0872,-0.0917l-0.0679 0.0514c-0.1906,0.1318 -0.2452,0.2352 -0.3485,0.3277zm-0.3672 7.4059c0.1146,-0.18 0.0694,-0.7919 0.1102,-1.0632l0 -0.1787 -0.1221 0.0512 0.0294 0.236 -0.1912 -0.0837 -0.1368 0.237c0.1129,-0.0052 0.0613,0.0034 0.1216,-0.0396 0.1216,-0.0867 -0.0239,-0.0351 0.1157,-0.0733l-0.0509 0.3627 0.1271 0.1057c0.0038,-0.008 0.0163,0.0168 0.0245,0.0251l-0.0275 0.4208zm-7.1456 -0.0797c0.1228,-0.0047 0.1998,0.018 0.2599,-0.0473 -0.1881,-0.0648 -0.1695,-0.0776 -0.3244,-0.2294 -0.119,-0.1166 -0.1812,-0.1303 -0.1828,-0.3263l-0.118 0.0008c0.0266,0.1922 0.0765,0.2563 0.1803,0.3585 0.0379,0.0373 0.1068,0.0886 0.1398,0.1248 0.0957,0.1053 0.1108,0.0043 0.0452,0.1189zm6.7701 -8.2924c0.0168,0.0214 0.0366,0.0509 0.058,0.0753 0.0772,0.0884 0.0072,0.0097 0.0691,0.0662 0.0759,-0.1597 0.1777,-0.2391 0.3065,-0.3592l0.1727 0.0049c-0.0093,-0.0114 -0.0529,-0.0672 -0.0572,-0.0712 -0.051,-0.0484 -0.0209,-0.0216 -0.0802,-0.0634 -0.1054,0.0821 -0.1411,0.0904 -0.2387,0.1905 -0.116,0.1188 -0.0644,0.1345 -0.2302,0.1569zm0.3352 8.0617c-0.1637,-0.2296 -0.2427,-0.4013 -0.4318,-0.4318 0.0169,0.2363 -0.0083,0.0662 0.176,0.2394 0.1273,0.1197 0.0658,0.1168 0.2558,0.1924z"/>
 </g>
</svg>
