<?xml version="1.0" encoding="UTF-8"?>
<!DOCTYPE svg PUBLIC "-//W3C//DTD SVG 1.1//EN" "http://www.w3.org/Graphics/SVG/1.1/DTD/svg11.dtd">
<!-- Creator: CorelDRAW -->
<svg xmlns="http://www.w3.org/2000/svg" xml:space="preserve" width="16.9332mm" height="16.9332mm" style="shape-rendering:geometricPrecision; text-rendering:geometricPrecision; image-rendering:optimizeQuality; fill-rule:evenodd; clip-rule:evenodd"
viewBox="0 0 16.9332 16.9332"
 xmlns:xlink="http://www.w3.org/1999/xlink">
 <defs>
  <style type="text/css">
   <![CDATA[
    .fil0 {fill:black;fill-rule:nonzero}
   ]]>
  </style>
 </defs>
 <g id="Capa_x0020_1">
  <metadata id="CorelCorpID_0Corel-Layer"/>
  <path class="fil0" d="M11.3883 -0.0001l0 0.8374 -4.6235 0 0 -0.8374 4.6235 0zm-1.2872 4.0594l0 0.834 -3.3363 0 0 -0.834 0.3526 0c-0.1558,-0.1632 -0.2669,-0.3275 -0.336,-0.4918 -0.0679,-0.1655 -0.1022,-0.3433 -0.1022,-0.5358 0,-0.4312 0.1674,-0.8038 0.5011,-1.1186 0.334,-0.3152 0.7495,-0.4721 1.2463,-0.4721 0.5149,0 0.9365,0.1515 1.2664,0.4563 0.3286,0.3043 0.4941,0.675 0.4941,1.1101 0,0.1998 -0.039,0.3885 -0.1142,0.5643 -0.0756,0.1756 -0.1894,0.3379 -0.3402,0.4876l0.3684 0zm-0.6874 -0.8802c0,-0.2596 -0.0911,-0.4749 -0.2743,-0.6465 -0.1832,-0.1717 -0.4177,-0.2577 -0.7032,-0.2577 -0.2889,0 -0.5253,0.0868 -0.7117,0.2615 -0.1863,0.1752 -0.2796,0.3904 -0.2796,0.6458 0,0.2638 0.0922,0.4825 0.2754,0.6561 0.1821,0.174 0.4216,0.2607 0.719,0.2607 0.2897,0 0.5254,-0.0867 0.7044,-0.2607 0.1797,-0.1736 0.27,-0.3935 0.27,-0.6592zm0.6874 2.5535l0 0.8402 -0.3842 0c0.1581,0.1434 0.2754,0.3024 0.3529,0.4771 0.0772,0.1751 0.1173,0.3653 0.1173,0.5717 0,0.2083 -0.0513,0.3965 -0.1539,0.5639 -0.1026,0.1674 -0.2511,0.3024 -0.4479,0.405 0.1968,0.1331 0.3453,0.2963 0.4479,0.4887 0.1026,0.1937 0.1539,0.4039 0.1539,0.633 0,0.2376 -0.0556,0.4459 -0.1667,0.6261 -0.1099,0.1797 -0.2542,0.3086 -0.432,0.3869 -0.1782,0.0798 -0.4667,0.1184 -0.8675,0.1184l-1.9561 0 0 -0.8425 1.6923 0c0.3787,0 0.6341,-0.047 0.768,-0.1411 0.1342,-0.0942 0.2009,-0.2357 0.2009,-0.4228 0,-0.1435 -0.0409,-0.2723 -0.1223,-0.3853 -0.0817,-0.1138 -0.1948,-0.1975 -0.339,-0.2531 -0.1447,-0.0555 -0.3757,-0.0825 -0.6951,-0.0825l-1.5048 0 0 -0.8436 1.6159 0c0.2982,0 0.5149,-0.022 0.6488,-0.066 0.1338,-0.044 0.2334,-0.1099 0.2982,-0.1979 0.0659,-0.0879 0.0983,-0.1936 0.0983,-0.3182 0,-0.1389 -0.0416,-0.2658 -0.1246,-0.3788 -0.0825,-0.113 -0.1986,-0.1986 -0.3471,-0.2542 -0.1497,-0.0563 -0.3842,-0.0848 -0.7055,-0.0848l-1.484 0 0 -0.8402 3.3363 0zm0.086 6.3658c0,0.1327 -0.0475,0.2457 -0.1416,0.3398 -0.0941,0.0945 -0.2071,0.1416 -0.3398,0.1416 -0.1312,0 -0.2442,-0.0471 -0.3383,-0.1416 -0.0941,-0.0941 -0.14,-0.2071 -0.14,-0.3398 0,-0.1331 0.0459,-0.2473 0.1392,-0.3402 0.093,-0.0942 0.206,-0.1412 0.3391,-0.1412 0.1327,0 0.2457,0.047 0.3398,0.1412 0.0941,0.0929 0.1416,0.2071 0.1416,0.3402zm-2.5486 0c0,0.1327 -0.0459,0.2457 -0.1388,0.3398 -0.0934,0.0945 -0.2064,0.1416 -0.3391,0.1416 -0.1331,0 -0.2461,-0.0471 -0.3402,-0.1416 -0.0941,-0.0941 -0.1412,-0.2071 -0.1412,-0.3398 0,-0.1331 0.0471,-0.2473 0.1412,-0.3402 0.0941,-0.0942 0.2071,-0.1412 0.3402,-0.1412 0.1327,0 0.2457,0.047 0.3391,0.1412 0.0929,0.0929 0.1388,0.2071 0.1388,0.3402zm2.4626 1.3612l0 0.4259 -0.6134 0c0.2326,0.1697 0.4074,0.3653 0.5243,0.5863 0.1164,0.2206 0.1751,0.4667 0.1751,0.7387 0,0.474 -0.1717,0.8802 -0.513,1.217 -0.341,0.3371 -0.7515,0.5057 -1.2317,0.5057 -0.4907,0 -0.9073,-0.1667 -1.2494,-0.5015 -0.3425,-0.3337 -0.5138,-0.7367 -0.5138,-1.2097 0,-0.265 0.0552,-0.5095 0.1651,-0.7325 0.1111,-0.2229 0.2754,-0.4239 0.4941,-0.604l-1.7936 0 0 -0.4259 4.5563 0zm-0.3287 1.7173c0,-0.3726 -0.1296,-0.6854 -0.3892,-0.9396 -0.2596,-0.2554 -0.5828,-0.3819 -0.969,-0.3819 -0.2534,0 -0.4814,0.0563 -0.6835,0.1693 -0.2029,0.1142 -0.363,0.2762 -0.4814,0.4876 -0.118,0.2114 -0.1778,0.4355 -0.1778,0.67 0,0.2311 0.0598,0.449 0.179,0.6519 0.1203,0.2029 0.2866,0.3653 0.501,0.4856 0.2149,0.1212 0.4398,0.181 0.6751,0.181 0.2364,0 0.4617,-0.0598 0.6739,-0.179 0.2137,-0.1192 0.378,-0.2805 0.496,-0.4834 0.1173,-0.2021 0.1759,-0.4227 0.1759,-0.6615z"/>
 </g>
</svg>
