<?xml version="1.0" encoding="UTF-8"?>
<!DOCTYPE svg PUBLIC "-//W3C//DTD SVG 1.1//EN" "http://www.w3.org/Graphics/SVG/1.1/DTD/svg11.dtd">
<!-- Creator: CorelDRAW -->
<svg xmlns="http://www.w3.org/2000/svg" xml:space="preserve" width="16.9332mm" height="16.9332mm" style="shape-rendering:geometricPrecision; text-rendering:geometricPrecision; image-rendering:optimizeQuality; fill-rule:evenodd; clip-rule:evenodd"
viewBox="0 0 16.9332 16.9332"
 xmlns:xlink="http://www.w3.org/1999/xlink">
 <defs>
  <style type="text/css">
   <![CDATA[
    .fil0 {fill:black}
   ]]>
  </style>
 </defs>
 <g id="Capa_x0020_1">
  <metadata id="CorelCorpID_0Corel-Layer"/>
  <g id="_344644600">
   <path id="_344688800" class="fil0" d="M4.8431 13.0332c-0.1524,-0.0063 -1.4133,0.7035 -1.4485,0.7965 -0.0391,0.1023 0.0077,0.1954 0.0964,0.218 0.1215,0.0301 0.72,-0.3453 0.8615,-0.4231 0.5746,-0.3163 0.7336,-0.3511 0.4906,-0.5909l0 -0.0005z"/>
   <path id="_344689760" class="fil0" d="M7.8737 0.0449l0.5329 -0.0449 -0.0051 6.1489c-0.2024,-0.0785 -0.384,-0.0862 -0.5356,0.0071l0.0071 -6.1104 0.0007 -0.0007z"/>
   <path id="_344689808" class="fil0" d="M6.2259 12.6468c1.6981,1.5926 3.8299,0.3332 3.9912,-0.0843l-0.9958 0.0046c-0.1793,0.009 -0.2976,0.002 -0.4867,0.011 -0.5902,0.0257 -1.4562,-0.0027 -2.018,0.0257 -0.1821,0.009 -0.4224,-0.0141 -0.4907,0.043z"/>
   <path id="_344690336" class="fil0" d="M8.538 15.192c-0.3426,-0.0501 -0.2558,0.2957 -0.2609,0.8614 -0.0059,0.675 -0.0989,0.9297 0.2578,0.8718 0.1207,-0.182 0.0707,-0.5985 0.0739,-0.8692 0.0019,-0.2913 0.0507,-0.709 -0.07,-0.864l-0.0008 0z"/>
   <path id="_344690504" class="fil0" d="M10.8492 15.5919c0.0476,0.0848 0.3999,0.9078 0.5836,0.5266 0.0656,-0.1371 -0.3168,-0.7144 -0.3999,-0.8634 -0.3099,-0.5523 -0.3266,-0.7144 -0.598,-0.5657 -0.0336,0.1954 0.0862,0.3388 0.1735,0.486 0.0823,0.139 0.164,0.2797 0.2405,0.4168l0.0003 -0.0003z"/>
   <path id="_344690816" class="fil0" d="M13.5445 13.9434c-0.0258,-0.1234 -0.6637,-0.4488 -0.7961,-0.5297 -0.1176,-0.0714 -0.5195,-0.3582 -0.6512,-0.3132 -0.0664,0.0219 -0.1266,0.0938 -0.1082,0.198 0.0168,0.0958 0.6282,0.4168 0.7946,0.5157 0.1203,0.0719 0.8551,0.5863 0.7606,0.1297l0.0003 -0.0005z"/>
   <path id="_344690672" class="fil0" d="M6.4505 14.8797c0.1188,-0.2187 -0.0894,-0.3895 -0.2481,-0.227l-0.7258 1.2223c-0.1286,0.2469 0.1156,0.3645 0.248,0.2199l0.4958 -0.8249c0.0809,-0.1286 0.164,-0.2681 0.2301,-0.391l0 0.0007z"/>
   <path id="_344691776" class="fil0" d="M6.6266 8.3667c0.7516,-0.0938 0.6379,-0.1465 1.5258,-0.1582 0.571,-0.007 0.9759,0.0656 1.5153,0.1145 -0.0051,-0.6571 -0.0129,-0.9895 -0.3535,-1.4215 -0.2134,-0.2715 -0.6578,-0.5509 -1.1883,-0.5453 -0.5368,0.0063 -0.9379,0.2731 -1.1778,0.5727 -0.3132,0.391 -0.3363,0.8051 -0.3215,1.4376l0 0.0002z"/>
   <path id="_344691656" class="fil0" d="M6.7443 8.5405c-0.0482,0.139 -0.2243,0.1324 -0.6005,0.4422 -0.3839,0.3164 -0.7156,0.6911 -1.0004,1.1122 -0.3805,0.5645 -0.9316,1.7746 -0.9766,2.3184 0.2714,0.0481 0.7215,-0.0136 1.0262,-0.0031 0.1723,0.0058 0.3368,-0.0122 0.5098,-0.0059l6.0967 -0.1062c0.1594,0.0064 0.3203,-0.0031 0.4739,-0.016 -0.4,-1.3848 -1.0918,-2.827 -2.7094,-3.7438 -0.0098,-0.011 -0.0161,-0.027 -0.0212,-0.0464 -1.039,-0.1152 -1.7629,-0.1133 -2.7985,0.0495l0 -0.0009z"/>
  </g>
 </g>
</svg>
