<?xml version="1.0" encoding="UTF-8"?>
<!DOCTYPE svg PUBLIC "-//W3C//DTD SVG 1.1//EN" "http://www.w3.org/Graphics/SVG/1.1/DTD/svg11.dtd">
<!-- Creator: CorelDRAW -->
<svg xmlns="http://www.w3.org/2000/svg" xml:space="preserve" width="16.9332mm" height="16.9332mm" style="shape-rendering:geometricPrecision; text-rendering:geometricPrecision; image-rendering:optimizeQuality; fill-rule:evenodd; clip-rule:evenodd"
viewBox="0 0 16.9332 16.9332"
 xmlns:xlink="http://www.w3.org/1999/xlink">
 <defs>
  <style type="text/css">
   <![CDATA[
    .fil0 {fill:black;fill-rule:nonzero}
   ]]>
  </style>
 </defs>
 <g id="Capa_x0020_1">
  <metadata id="CorelCorpID_0Corel-Layer"/>
  <g id="_379204696">
   <path id="_379231792" class="fil0" d="M16.9332 6.8081c0,0.1365 -0.0484,0.2527 -0.1452,0.3494 -0.0968,0.0968 -0.2129,0.1452 -0.3494,0.1452 -0.1345,0 -0.2506,-0.0484 -0.3474,-0.1452 -0.0967,-0.0967 -0.144,-0.2129 -0.144,-0.3494 0,-0.1366 0.0473,-0.2538 0.143,-0.3495 0.0957,-0.0967 0.2118,-0.1451 0.3484,-0.1451 0.1365,0 0.2526,0.0484 0.3494,0.1451 0.0968,0.0957 0.1452,0.2129 0.1452,0.3495zm-2.6183 0c0,0.1365 -0.0473,0.2527 -0.143,0.3494 -0.0957,0.0968 -0.2118,0.1452 -0.3484,0.1452 -0.1365,0 -0.2526,-0.0484 -0.3494,-0.1452 -0.0968,-0.0967 -0.1452,-0.2129 -0.1452,-0.3494 0,-0.1366 0.0484,-0.2538 0.1452,-0.3495 0.0968,-0.0967 0.2129,-0.1451 0.3494,-0.1451 0.1366,0 0.2527,0.0484 0.3484,0.1451 0.0957,0.0957 0.143,0.2129 0.143,0.3495zm0.7688 4.2214c-0.5193,0 -0.9365,-0.1194 -1.2537,-0.3559 -0.3172,-0.2377 -0.4763,-0.5592 -0.4763,-0.9645 0,-0.414 0.1311,-0.7387 0.3935,-0.9764l-1.6407 0 0 -0.5827 4.7191 0 0 0.5322 -0.3774 0.029c0.2936,0.2366 0.4409,0.5667 0.4409,0.9882 0,0.4097 -0.1549,0.7344 -0.4635,0.972 -0.3085,0.2387 -0.7376,0.3581 -1.2881,0.3581l-0.0538 0zm0.0656 -0.5828c0.385,0 0.6882,-0.0817 0.9108,-0.2462 0.2225,-0.1635 0.3344,-0.3882 0.3344,-0.6742 0,-0.3527 -0.157,-0.6172 -0.4699,-0.7936l-1.629 0c-0.3108,0.1742 -0.4667,0.4409 -0.4667,0.8 0,0.2796 0.1108,0.5011 0.3323,0.6667 0.2215,0.1645 0.5516,0.2473 0.9881,0.2473z"/>
   <path id="_379203352" class="fil0" d="M0.343 6.1355l0.8601 0 0 4.7502 -0.8601 0 0 -4.7502zm4.1706 1.3225l0.8569 0 0 3.4277 -0.8569 0 0 -0.3623c-0.1677,0.1602 -0.3365,0.2741 -0.5053,0.3451 -0.1699,0.0699 -0.3527,0.1054 -0.5505,0.1054 -0.443,0 -0.8258,-0.1721 -1.1494,-0.515 -0.3236,-0.343 -0.4849,-0.7699 -0.4849,-1.2806 0,-0.529 0.1559,-0.9623 0.4688,-1.301 0.3129,-0.3376 0.6935,-0.5074 1.1407,-0.5074 0.2054,0 0.3989,0.0397 0.5796,0.1171 0.1806,0.0775 0.3473,0.1947 0.501,0.3495l0 -0.3785zm-0.9042 0.7064c-0.2667,0 -0.4882,0.0936 -0.6645,0.2817 -0.1763,0.1882 -0.2645,0.429 -0.2645,0.7225 0,0.2968 0.0893,0.5398 0.2688,0.7312 0.1796,0.1913 0.4011,0.287 0.6634,0.287 0.2709,0 0.4957,-0.0946 0.6741,-0.2827 0.1785,-0.1871 0.2678,-0.4333 0.2678,-0.7387 0,-0.2978 -0.0893,-0.5397 -0.2678,-0.7236 -0.1784,-0.1849 -0.4042,-0.2774 -0.6773,-0.2774zm2.6234 -0.7064l0.8634 0 0 0.3946c0.1473,-0.1623 0.3107,-0.2828 0.4903,-0.3623 0.1795,-0.0796 0.3752,-0.1204 0.587,-0.1204 0.214,0 0.4075,0.0526 0.5796,0.158 0.172,0.1054 0.3107,0.258 0.416,0.4602 0.1366,-0.2022 0.3043,-0.3548 0.5022,-0.4602 0.1989,-0.1054 0.415,-0.158 0.6504,-0.158 0.2441,0 0.4581,0.0569 0.643,0.1709 0.1849,0.1129 0.3172,0.2613 0.3978,0.4441 0.0817,0.1827 0.1215,0.4795 0.1215,0.8913l0 2.0095 -0.8655 0 0 -1.7386c0,-0.3892 -0.0484,-0.6515 -0.1452,-0.7892 -0.0967,-0.1376 -0.2419,-0.2064 -0.4343,-0.2064 -0.1473,0 -0.2796,0.0419 -0.3957,0.1258 -0.1172,0.0839 -0.2032,0.2 -0.2602,0.3484 -0.057,0.1483 -0.0849,0.386 -0.0849,0.7139l0 1.5461 -0.8666 0 0 -1.6601c0,-0.3064 -0.0226,-0.529 -0.0678,-0.6666 -0.0451,-0.1376 -0.1129,-0.2398 -0.2032,-0.3064 -0.0903,-0.0678 -0.1989,-0.1011 -0.3268,-0.1011 -0.143,0 -0.2731,0.043 -0.3892,0.128 -0.1162,0.0849 -0.2043,0.2042 -0.2613,0.3569 -0.0581,0.1538 -0.0871,0.3946 -0.0871,0.7247l0 1.5246 -0.8634 0 0 -3.4277z"/>
  </g>
 </g>
</svg>
