<?xml version="1.0" encoding="UTF-8"?>
<!DOCTYPE svg PUBLIC "-//W3C//DTD SVG 1.1//EN" "http://www.w3.org/Graphics/SVG/1.1/DTD/svg11.dtd">
<!-- Creator: CorelDRAW -->
<svg xmlns="http://www.w3.org/2000/svg" xml:space="preserve" width="16.9332mm" height="16.9332mm" style="shape-rendering:geometricPrecision; text-rendering:geometricPrecision; image-rendering:optimizeQuality; fill-rule:evenodd; clip-rule:evenodd"
viewBox="0 0 16.9332 16.9332"
 xmlns:xlink="http://www.w3.org/1999/xlink">
 <defs>
  <style type="text/css">
   <![CDATA[
    .fil0 {fill:black}
    .fil1 {fill:#1E1E1E}
    .fil2 {fill:#7B7B7B}
   ]]>
  </style>
 </defs>
 <g id="Capa_x0020_1">
  <metadata id="CorelCorpID_0Corel-Layer"/>
  <g id="_341245936">
   <g id="_712806704">
    <polygon id="_376922880" class="fil0" points="2.583,13.9915 2.4394,13.9915 2.4394,14.0631 2.2958,14.0631 2.2958,14.1349 2.2242,14.1349 2.2242,14.2067 2.1524,14.2067 2.1524,14.2785 2.0806,14.2785 2.0806,14.3503 2.009,14.3503 2.009,14.422 1.9372,14.422 1.9372,14.4937 1.8654,14.4937 1.8654,14.6373 1.7936,14.6373 1.7936,14.7089 1.7218,14.7089 1.7218,14.8525 1.6501,14.8525 1.6501,15.0678 1.5784,15.0678 1.5784,15.283 1.5066,15.283 1.5066,15.4265 1.4348,15.4265 1.4348,15.7135 1.3632,15.7135 1.3632,16.3593 1.2914,16.3593 1.2914,16.9332 2.1524,16.9332 2.1524,16.431 2.2242,16.431 2.2242,16.0005 2.2958,16.0005 2.2958,15.6418 2.3676,15.6418 2.3676,15.3547 2.4394,15.3547 2.4394,15.283 2.5111,15.283 2.5111,16.9332 5.3813,16.9332 5.3813,15.283 5.4531,15.283 5.4531,15.4983 5.5247,15.4983 5.5247,15.7135 5.5965,15.7135 5.5965,16.0723 5.6683,16.0723 5.6683,16.431 5.7399,16.431 5.7399,16.9332 6.6727,16.9332 6.6727,16.5745 6.7445,16.5745 6.7445,16.0723 6.8163,16.0723 6.8163,15.7135 6.888,15.7135 6.888,15.4265 6.9597,15.4265 6.9597,15.283 7.0315,15.283 7.0315,16.9332 9.9016,16.9332 9.9016,15.283 9.9733,15.283 9.9733,15.4265 10.045,15.4265 10.045,15.6418 10.1168,15.6418 10.1168,16.0005 10.1886,16.0005 10.1886,16.3593 10.2604,16.3593 10.2604,16.9332 11.1931,16.9332 11.1931,16.718 11.2648,16.718 11.2648,16.1439 11.3366,16.1439 11.3366,15.7853 11.4084,15.7853 11.4084,15.4983 11.4801,15.4983 11.4801,15.3547 11.5519,15.3547 11.5519,16.9332 14.4937,16.9332 14.4937,15.4265 14.5655,15.4265 14.5655,15.6418 14.6372,15.6418 14.6372,15.9287 14.7089,15.9287 14.7089,16.3593 14.7807,16.3593 14.7807,16.9332 15.6418,16.9332 15.6418,16.3593 15.57,16.3593 15.57,15.857 15.4982,15.857 15.4982,15.4983 15.4265,15.4983 15.4265,15.283 15.3547,15.283 15.3547,15.0678 15.283,15.0678 15.283,14.8525 15.2112,14.8525 15.2112,14.7089 15.1395,14.7089 15.1395,14.6373 15.0678,14.6373 15.0678,14.4937 14.996,14.4937 14.996,14.422 14.9242,14.422 14.9242,14.2785 14.8525,14.2785 14.8525,14.2067 14.7089,14.2067 14.7089,14.1349 14.6372,14.1349 14.6372,14.0631 14.4937,14.0631 14.4937,13.9915 14.3502,13.9915 14.3502,13.9197 11.6237,13.9197 11.6237,13.9915 11.4801,13.9915 11.4801,14.0631 11.3366,14.0631 11.3366,14.1349 11.2648,14.1349 11.2648,14.2067 11.1931,14.2067 11.1931,14.2785 11.1214,14.2785 11.1214,14.3503 11.0496,14.3503 11.0496,14.422 10.9779,14.422 10.9779,14.5655 10.9061,14.5655 10.9061,14.6373 10.8344,14.6373 10.8344,14.7807 10.7626,14.7807 10.7626,14.8525 10.6908,14.8525 10.6908,14.7807 10.619,14.7807 10.619,14.6373 10.5474,14.6373 10.5474,14.4937 10.4756,14.4937 10.4756,14.422 10.4038,14.422 10.4038,14.3503 10.3321,14.3503 10.3321,14.2785 10.2604,14.2785 10.2604,14.2067 10.1886,14.2067 10.1886,14.1349 10.1168,14.1349 10.1168,14.0631 9.9733,14.0631 9.9733,13.9915 9.8298,13.9915 9.8298,13.9197 7.1033,13.9197 7.1033,13.9915 6.9597,13.9915 6.9597,14.0631 6.8163,14.0631 6.8163,14.1349 6.7445,14.1349 6.7445,14.2067 6.6727,14.2067 6.6727,14.2785 6.6009,14.2785 6.6009,14.3503 6.5292,14.3503 6.5292,14.422 6.4575,14.422 6.4575,14.4937 6.3857,14.4937 6.3857,14.6373 6.3139,14.6373 6.3139,14.7807 6.2423,14.7807 6.2423,14.8525 6.1705,14.8525 6.1705,14.7807 6.0988,14.7807 6.0988,14.6373 6.0271,14.6373 6.0271,14.5655 5.9552,14.5655 5.9552,14.422 5.8835,14.422 5.8835,14.3503 5.8117,14.3503 5.8117,14.2785 5.7399,14.2785 5.7399,14.2067 5.6683,14.2067 5.6683,14.1349 5.5965,14.1349 5.5965,14.0631 5.4531,14.0631 5.4531,13.9915 5.3095,13.9915 5.3095,13.9197 2.583,13.9197 "/>
    <polygon id="_376086256" class="fil0" points="9.3994,4.2333 9.2558,4.2333 9.2558,4.3049 8.9688,4.3049 8.9688,4.3767 8.897,4.3767 8.897,4.4485 8.6818,4.4485 8.6818,4.5202 8.323,4.5202 8.323,4.5919 8.1796,4.5919 8.1796,4.6637 7.749,4.6637 7.749,4.7355 7.462,4.7355 7.462,4.8073 7.2467,4.8073 7.2467,4.8791 6.8163,4.8791 6.8163,4.9507 6.0988,4.9507 6.0988,5.0225 5.6683,5.0225 5.6683,5.0943 3.0134,5.0943 3.0134,5.1659 2.87,5.1659 2.87,5.2377 2.7264,5.2377 2.7264,5.3095 2.6547,5.3095 2.6547,5.3813 2.583,5.3813 2.583,5.4531 2.5111,5.4531 2.5111,5.5247 2.4394,5.5247 2.4394,5.5965 2.3676,5.5965 2.3676,5.7399 2.2958,5.7399 2.2958,5.8117 2.2242,5.8117 2.2242,5.9553 2.1524,5.9553 2.1524,6.0988 2.0806,6.0988 2.0806,6.3857 2.009,6.3857 2.009,6.6009 1.9372,6.6009 1.9372,6.888 1.8654,6.888 1.8654,7.1033 1.7936,7.1033 1.7936,7.6773 1.7218,7.6773 1.7218,9.8298 1.7936,9.8298 1.7936,10.045 1.8654,10.045 1.8654,10.1168 2.009,10.1168 2.009,10.1886 2.3676,10.1886 2.3676,10.1168 2.5111,10.1168 2.5111,9.9734 2.583,9.9734 2.583,7.6773 2.6547,7.6773 2.6547,7.3185 2.7264,7.3185 2.7264,6.888 2.7982,6.888 2.7982,6.6009 2.87,6.6009 2.87,6.5293 2.9416,6.5293 2.9416,11.1932 3.0852,11.1932 3.0852,11.1214 3.1568,11.1214 3.1568,11.0496 3.3004,11.0496 3.3004,10.9779 3.5157,10.9779 3.5157,10.9062 4.3049,10.9062 4.3049,9.5429 4.5202,9.5429 4.5202,10.9779 4.5919,10.9779 4.5919,11.0496 4.7355,11.0496 4.7355,11.1214 4.8073,11.1214 4.8073,11.1932 4.8789,11.1932 4.8789,11.2648 4.9507,11.2648 4.9507,11.3366 5.0225,11.3366 5.0225,11.4084 5.0942,11.4084 5.0942,11.4801 5.1659,11.4801 5.1659,11.5519 5.2377,11.5519 5.2377,11.6954 5.3095,11.6954 5.3095,11.8389 5.3813,11.8389 5.3813,11.9824 5.4531,11.9824 5.4531,12.6999 5.3813,12.6999 5.3813,12.9153 5.3095,12.9153 5.3095,13.1305 5.2377,13.1305 5.2377,13.2021 5.1659,13.2021 5.1659,13.3457 5.0942,13.3457 5.0942,13.4174 5.0225,13.4174 5.0225,13.4891 4.9507,13.4891 4.9507,13.6327 5.3813,13.6327 5.3813,13.7045 5.5965,13.7045 5.5965,13.7763 5.6683,13.7763 5.6683,13.8479 5.8117,13.8479 5.8117,13.9197 5.8835,13.9197 5.8835,5.8835 6.3857,5.8835 6.3857,5.8117 6.888,5.8117 6.888,5.7399 7.3185,5.7399 7.3185,5.6683 7.6773,5.6683 7.6773,5.5965 8.036,5.5965 8.036,5.5247 8.323,5.5247 8.323,5.4531 8.5383,5.4531 8.5383,5.3813 8.8254,5.3813 8.8254,5.3095 9.0406,5.3095 9.0406,5.2377 9.184,5.2377 9.184,5.1659 9.3994,5.1659 9.3994,5.0943 9.6146,5.0943 9.6146,5.0225 9.758,5.0225 9.758,4.9507 9.8298,4.9507 9.8298,4.8791 9.9016,4.8791 9.9016,4.8073 9.9733,4.8073 9.9733,4.4485 9.9016,4.4485 9.9016,4.3049 9.758,4.3049 9.758,4.2333 9.6146,4.2333 9.6146,4.1615 9.3994,4.1615 "/>
    <polygon id="_712804112" class="fil0" points="3.1568,1.9372 3.3722,1.9372 3.3722,0.2152 14.7089,0.2152 14.7089,7.6056 6.6009,7.6056 6.6009,7.8208 14.9242,7.8208 14.9242,0 3.1568,0 "/>
    <polygon id="_712804040" class="fil0" points="9.758,2.7265 9.6146,2.7265 9.6146,2.7982 9.5428,2.7982 9.5428,2.8699 9.4712,2.8699 9.4712,2.9417 9.3994,2.9417 9.3994,3.0134 9.3275,3.0134 9.3275,3.2286 9.2558,3.2286 9.2558,3.5157 9.184,3.5157 9.184,4.0897 9.4712,4.0897 9.4712,4.0179 9.5428,4.0179 9.5428,3.6592 9.6146,3.6592 9.6146,3.3723 9.6864,3.3723 9.6864,4.0897 9.8298,4.0897 9.8298,4.1615 9.9016,4.1615 9.9016,4.2333 9.9733,4.2333 9.9733,4.3049 10.045,4.3049 10.045,4.3767 10.1168,4.3767 10.1168,4.8073 10.045,4.8073 10.045,4.9507 9.9733,4.9507 9.9733,5.0225 9.9016,5.0225 9.9016,5.0943 9.8298,5.0943 9.8298,5.1659 9.6864,5.1659 9.6864,6.6727 9.758,6.6727 9.758,6.7446 10.1168,6.7446 10.1168,6.6727 10.1886,6.6727 10.1886,6.6009 10.2604,6.6009 10.2604,4.5202 10.3321,4.5202 10.3321,6.6727 10.4038,6.6727 10.4038,6.7446 10.7626,6.7446 10.7626,6.6727 10.8344,6.6727 10.8344,6.6009 10.9061,6.6009 10.9061,3.3723 10.9779,3.3723 10.9779,3.6592 11.0496,3.6592 11.0496,4.7355 11.3366,4.7355 11.3366,4.6637 11.4084,4.6637 11.4084,3.7309 11.3366,3.7309 11.3366,3.3005 11.2648,3.3005 11.2648,3.1569 11.1931,3.1569 11.1931,3.0134 11.1214,3.0134 11.1214,2.8699 11.0496,2.8699 11.0496,2.7982 10.9779,2.7982 10.9779,2.7265 10.8344,2.7265 10.8344,2.6547 9.758,2.6547 "/>
    <polygon id="_712803896" class="fil0" points="8.1078,11.2648 7.9643,11.2648 7.9643,11.3366 7.8207,11.3366 7.8207,11.4084 7.749,11.4084 7.749,11.4801 7.6055,11.4801 7.6055,11.5519 7.5338,11.5519 7.5338,11.6954 7.462,11.6954 7.462,11.7671 7.3903,11.7671 7.3903,11.9106 7.3185,11.9106 7.3185,12.0541 7.2467,12.0541 7.2467,12.6281 7.3185,12.6281 7.3185,12.8434 7.3903,12.8434 7.3903,12.9869 7.462,12.9869 7.462,13.1305 7.5338,13.1305 7.5338,13.2021 7.6055,13.2021 7.6055,13.2739 7.6773,13.2739 7.6773,13.3457 7.749,13.3457 7.749,13.4174 7.8925,13.4174 7.8925,13.4891 8.036,13.4891 8.036,13.5609 8.897,13.5609 8.897,13.4891 9.0406,13.4891 9.0406,13.4174 9.184,13.4174 9.184,13.3457 9.2558,13.3457 9.2558,13.2739 9.3275,13.2739 9.3275,13.2021 9.3994,13.2021 9.3994,13.1305 9.4712,13.1305 9.4712,12.9869 9.5428,12.9869 9.5428,12.9153 9.6146,12.9153 9.6146,12.6999 9.6864,12.6999 9.6864,12.1259 9.6146,12.1259 9.6146,11.9106 9.5428,11.9106 9.5428,11.7671 9.4712,11.7671 9.4712,11.6954 9.3994,11.6954 9.3994,11.5519 9.3275,11.5519 9.3275,11.4801 9.2558,11.4801 9.2558,11.4084 9.1123,11.4084 9.1123,11.3366 8.9688,11.3366 8.9688,11.2648 8.8254,11.2648 8.8254,11.1932 8.1078,11.1932 "/>
    <polygon id="_712804256" class="fil0" points="3.5874,11.2648 3.4439,11.2648 3.4439,11.3366 3.3004,11.3366 3.3004,11.4084 3.1568,11.4084 3.1568,11.4801 3.0852,11.4801 3.0852,11.5519 3.0134,11.5519 3.0134,11.6237 2.9416,11.6237 2.9416,11.7671 2.87,11.7671 2.87,11.9106 2.7982,11.9106 2.7982,12.0541 2.7264,12.0541 2.7264,12.6999 2.7982,12.6999 2.7982,12.9153 2.87,12.9153 2.87,13.0587 2.9416,13.0587 2.9416,13.1305 3.0134,13.1305 3.0134,13.2021 3.0852,13.2021 3.0852,13.2739 3.1568,13.2739 3.1568,13.3457 3.2286,13.3457 3.2286,13.4174 3.3722,13.4174 3.3722,13.4891 3.4439,13.4891 3.4439,13.5609 4.3767,13.5609 4.3767,13.4891 4.5202,13.4891 4.5202,13.4174 4.6637,13.4174 4.6637,13.3457 4.7355,13.3457 4.7355,13.2739 4.8073,13.2739 4.8073,13.2021 4.8789,13.2021 4.8789,13.1305 4.9507,13.1305 4.9507,12.9869 5.0225,12.9869 5.0225,12.8434 5.0942,12.8434 5.0942,11.9824 5.0225,11.9824 5.0225,11.8389 4.9507,11.8389 4.9507,11.6954 4.8789,11.6954 4.8789,11.6237 4.8073,11.6237 4.8073,11.4801 4.6637,11.4801 4.6637,11.4084 4.5919,11.4084 4.5919,11.3366 4.4484,11.3366 4.4484,11.2648 4.3049,11.2648 4.3049,11.1932 3.5874,11.1932 "/>
    <polygon id="_712804400" class="fil0" points="12.6999,11.2648 12.4847,11.2648 12.4847,11.3366 12.3411,11.3366 12.3411,11.4084 12.2695,11.4084 12.2695,11.4801 12.1977,11.4801 12.1977,11.5519 12.1259,11.5519 12.1259,11.6237 12.0541,11.6237 12.0541,11.6954 11.9824,11.6954 11.9824,11.8389 11.9106,11.8389 11.9106,11.9106 11.8389,11.9106 11.8389,12.8434 11.9106,12.8434 11.9106,12.9869 11.9824,12.9869 11.9824,13.1305 12.0541,13.1305 12.0541,13.2021 12.1259,13.2021 12.1259,13.2739 12.1977,13.2739 12.1977,13.3457 12.2695,13.3457 12.2695,13.4174 12.4129,13.4174 12.4129,13.4891 12.5564,13.4891 12.5564,13.5609 13.4891,13.5609 13.4891,13.4891 13.561,13.4891 13.561,13.4174 13.7045,13.4174 13.7045,13.3457 13.7763,13.3457 13.7763,13.2739 13.8479,13.2739 13.8479,13.2021 13.9197,13.2021 13.9197,13.1305 13.9915,13.1305 13.9915,13.0587 14.0631,13.0587 14.0631,12.9153 14.1349,12.9153 14.1349,12.6999 14.2067,12.6999 14.2067,12.1259 14.1349,12.1259 14.1349,11.9106 14.0631,11.9106 14.0631,11.7671 13.9915,11.7671 13.9915,11.6237 13.9197,11.6237 13.9197,11.5519 13.8479,11.5519 13.8479,11.4801 13.7763,11.4801 13.7763,11.4084 13.6327,11.4084 13.6327,11.3366 13.561,11.3366 13.561,11.2648 13.2739,11.2648 13.2739,11.1932 12.6999,11.1932 "/>
    <polygon id="_712805096" class="fil0" points="4.0179,2.4394 3.8744,2.4394 3.8744,2.5112 3.7309,2.5112 3.7309,2.5829 3.6592,2.5829 3.6592,2.6547 3.5874,2.6547 3.5874,2.7265 3.5157,2.7265 3.5157,2.7982 3.4439,2.7982 3.4439,2.8699 3.3722,2.8699 3.3722,3.0134 3.3004,3.0134 3.3004,3.0852 3.2286,3.0852 3.2286,3.8744 3.3004,3.8744 3.3004,4.0897 3.3722,4.0897 3.3722,4.2333 3.4439,4.2333 3.4439,4.3049 3.5157,4.3049 3.5157,4.3767 3.5874,4.3767 3.5874,4.4485 3.6592,4.4485 3.6592,4.5202 3.7309,4.5202 3.7309,4.5919 3.8744,4.5919 3.8744,4.6637 4.0897,4.6637 4.0897,4.7355 4.8073,4.7355 4.8073,4.6637 4.9507,4.6637 4.9507,4.5919 5.0942,4.5919 5.0942,4.5202 5.1659,4.5202 5.1659,4.4485 5.2377,4.4485 5.2377,4.3767 5.3095,4.3767 5.3095,4.3049 5.3813,4.3049 5.3813,4.2333 5.4531,4.2333 5.4531,4.0897 5.5247,4.0897 5.5247,3.9462 5.5965,3.9462 5.5965,3.2286 5.5247,3.2286 5.5247,3.0134 5.4531,3.0134 5.4531,2.8699 5.3813,2.8699 5.3813,2.7982 5.3095,2.7982 5.3095,2.7265 5.2377,2.7265 5.2377,2.6547 5.1659,2.6547 5.1659,2.5829 5.0942,2.5829 5.0942,2.5112 4.9507,2.5112 4.9507,2.4394 4.7355,2.4394 4.7355,2.3676 4.0179,2.3676 "/>
    <polygon id="_712804808" class="fil0" points="10.045,1.6502 9.9733,1.6502 9.9733,1.7218 9.9016,1.7218 9.9016,1.7936 9.8298,1.7936 9.8298,2.2959 9.9016,2.2959 9.9016,2.4394 10.045,2.4394 10.045,2.5112 10.5474,2.5112 10.5474,2.4394 10.619,2.4394 10.619,2.3676 10.6908,2.3676 10.6908,2.2959 10.7626,2.2959 10.7626,1.8654 10.6908,1.8654 10.6908,1.7218 10.619,1.7218 10.619,1.6502 10.5474,1.6502 10.5474,1.5784 10.045,1.5784 "/>
    <polygon id="_712804928" class="fil0" points="3.9462,0.8608 6.3139,0.8608 6.3139,0.6456 3.9462,0.6456 "/>
    <polygon id="_712804832" class="fil0" points="3.9462,1.4349 5.4531,1.4349 5.4531,1.2196 3.9462,1.2196 "/>
    <polygon id="_712804664" class="fil0" points="11.5519,1.3632 12.8435,1.3632 12.8435,1.1478 11.5519,1.1478 "/>
    <polygon id="_712804976" class="fil0" points="12.1977,5.9553 13.4891,5.9553 13.4891,5.7399 12.1977,5.7399 "/>
    <polygon id="_712805864" class="fil0" points="12.5564,2.9417 13.7763,2.9417 13.7763,2.7265 12.5564,2.7265 "/>
    <polygon id="_712806008" class="fil0" points="7.3185,7.0315 8.5383,7.0315 8.5383,6.8163 7.3185,6.8163 "/>
    <polygon id="_712805360" class="fil1" points="7.5338,2.2959 7.6055,2.2959 7.6055,2.4394 7.6773,2.4394 7.6773,2.6547 7.749,2.6547 7.749,2.7982 7.8207,2.7982 7.8207,2.9417 7.8925,2.9417 7.8925,3.0852 9.0406,3.0852 9.0406,2.9417 7.9643,2.9417 7.9643,2.8699 7.8925,2.8699 7.8925,2.6547 7.8207,2.6547 7.8207,2.5112 7.749,2.5112 7.749,2.3676 7.6773,2.3676 7.6773,2.2242 7.5338,2.2242 "/>
    <polygon id="_712805576" class="fil1" points="8.1796,6.1705 8.1078,6.1705 8.1078,6.2423 8.036,6.2423 8.036,6.3857 7.9643,6.3857 7.9643,6.5293 7.8925,6.5293 7.8925,6.6727 7.9643,6.6727 7.9643,6.6009 8.036,6.6009 8.036,6.4575 8.1078,6.4575 8.1078,6.3857 8.1796,6.3857 8.1796,6.2423 8.2513,6.2423 8.2513,6.1705 9.3994,6.1705 9.3994,6.027 8.1796,6.027 "/>
    <path id="_712805456" class="fil2" d="M7.0315 1.8654l1.1481 0 0 0.1435 -1.1481 0 0 -0.1435zm0 0l-0.0718 0 0 0.2153 1.2916 0 0 -0.2871 -1.2198 0 0 0.0718z"/>
    <polygon id="_712805936" class="fil1" points="12.1259,1.5784 12.0541,1.5784 12.0541,1.7218 11.9824,1.7218 11.9824,1.8654 11.9106,1.8654 11.9106,1.9372 11.8389,1.9372 11.8389,2.0089 11.1214,2.0089 11.1214,2.1524 11.9106,2.1524 11.9106,2.0807 11.9824,2.0807 11.9824,1.9372 12.0541,1.9372 12.0541,1.8654 12.1259,1.8654 12.1259,1.7218 12.1977,1.7218 12.1977,1.5066 12.1259,1.5066 "/>
    <polygon id="_712806392" class="fil0" points="11.3366,5.0943 12.4847,5.0943 12.4847,5.1659 12.5564,5.1659 12.5564,5.3095 12.6281,5.3095 12.6281,5.4531 12.6999,5.4531 12.6999,5.5247 12.7717,5.5247 12.7717,5.6683 12.8435,5.6683 12.8435,5.5965 12.9153,5.5965 12.9153,5.5247 12.8435,5.5247 12.8435,5.4531 12.7717,5.4531 12.7717,5.3095 12.6999,5.3095 12.6999,5.1659 12.6281,5.1659 12.6281,5.0943 12.5564,5.0943 12.5564,5.0225 11.3366,5.0225 "/>
    <polygon id="_712806680" class="fil0" points="7.0315,1.8654 7.0315,2.0089 8.1796,2.0089 8.1796,1.8654 "/>
    <polygon id="_712806200" class="fil0" points="13.1305,3.1569 13.0587,3.1569 13.0587,3.2286 12.9869,3.2286 12.9869,3.3723 12.9153,3.3723 12.9153,3.5157 12.8435,3.5157 12.8435,3.5875 11.6954,3.5875 11.6954,3.6592 12.9153,3.6592 12.9153,3.5875 12.9869,3.5875 12.9869,3.4439 13.0587,3.4439 13.0587,3.3723 13.1305,3.3723 13.1305,3.2286 13.2021,3.2286 13.2021,3.0852 13.1305,3.0852 "/>
   </g>
  </g>
 </g>
</svg>
