<?xml version="1.0" encoding="UTF-8"?>
<!DOCTYPE svg PUBLIC "-//W3C//DTD SVG 1.1//EN" "http://www.w3.org/Graphics/SVG/1.1/DTD/svg11.dtd">
<!-- Creator: CorelDRAW -->
<svg xmlns="http://www.w3.org/2000/svg" xml:space="preserve" width="16.9332mm" height="16.9332mm" style="shape-rendering:geometricPrecision; text-rendering:geometricPrecision; image-rendering:optimizeQuality; fill-rule:evenodd; clip-rule:evenodd"
viewBox="0 0 16.9332 16.9332"
 xmlns:xlink="http://www.w3.org/1999/xlink">
 <defs>
  <style type="text/css">
   <![CDATA[
    .fil0 {fill:black}
    .fil2 {fill:#777778}
    .fil1 {fill:#F3F3F5}
   ]]>
  </style>
 </defs>
 <g id="Capa_x0020_1">
  <metadata id="CorelCorpID_0Corel-Layer"/>
  <g id="_408339392">
   <path id="_408339440" class="fil0" d="M8.8245 14.2685l-0.0212 2.4445 -0.6888 -0.0113 -0.0098 -2.4282c-0.0388,-0.1443 -0.2919,-0.0939 -0.4812,-0.0937l-0.5895 -0.0012 0.0095 -0.6802 1.0485 -0.0234 0.0483 -1.234 0.6518 -0.0002 0.058 1.2271 1.0472 0.0296 -0.0037 0.6817 -0.863 -0.0018c-0.1544,0.0016 -0.1635,-0.0052 -0.2061,0.0911zm1.7854 -3.3442c0.0133,-0.2206 0.0337,-0.4072 0.0313,-0.645 -0.003,-0.3102 0.0606,-0.2769 0.2035,-0.4549 0.4215,-0.5254 0.7311,-1.0831 0.9697,-1.727 0.119,-0.3211 0.2666,-0.9466 0.314,-1.0488 0.1032,0.2109 0.241,1.149 0.3013,1.457l0.8632 4.477c-0.0676,-0.0443 -0.384,-0.4104 -0.5858,-0.5836 -0.5268,-0.4525 -1.0919,-0.9233 -1.7177,-1.2554 -0.0954,-0.0506 -0.288,-0.1445 -0.3795,-0.2193zm-6.9743 2.0566c0.0226,-0.2967 0.472,-2.4766 0.5677,-2.9633l0.6223 -2.9743c0.1488,1.0293 0.6554,1.9921 1.2476,2.7652 0.1137,0.1485 0.2202,0.1806 0.2188,0.4397l0.0333 0.6989c-0.6094,0.2224 -1.595,1.0087 -2.0872,1.4339 -0.1928,0.1664 -0.5144,0.542 -0.6025,0.5999zm2.9278 -2.6336c0.1572,0.0786 0.3393,0.3002 0.782,0.5198 0.3046,0.1511 0.6751,0.2604 1.0744,0.2676 0.3837,0.0069 0.782,-0.0849 1.1029,-0.2399 0.3921,-0.1893 0.5066,-0.2942 0.8418,-0.5347 0.0064,0.3307 -0.0169,0.6269 -0.1884,0.8491 -0.0704,0.0911 -0.1615,0.1834 -0.2514,0.2404 -0.1839,0.1165 -0.1496,0.0556 -0.1295,0.2808l0.709 -0.5274c0.445,0.0922 1.5779,1.0413 1.9525,1.3455 -0.2486,0.3302 -1.825,0.8123 -2.2589,0.9544 -0.0042,-0.0073 -0.0072,-0.0279 -0.0084,-0.0237l-0.0256 -0.1017c-0.0495,-0.1883 -0.0941,-0.1474 -0.3949,-0.1484l-0.6944 -0.009 -0.0475 -1.2184 -1.127 -0.0046 -0.041 1.2235c-0.8507,0.0971 -0.3372,-0.1899 -1.1044,0.2753l-2.2795 -0.9474 1.9626 -1.3572 0.6966 0.5596c0.2301,-0.4079 -0.6517,-0.1561 -0.5709,-1.4036zm-0.4605 -0.9715c0.9962,0.44 2.4717,0.6596 3.608,0.3617l1.1096 -0.3504c-0.1152,0.2828 -0.657,0.7888 -0.9325,0.9833 -0.3834,0.2708 -0.8608,0.4985 -1.437,0.4945 -0.5565,-0.0039 -1.0527,-0.2293 -1.4253,-0.5073 -0.2672,-0.1994 -0.7885,-0.6762 -0.9228,-0.9818zm5.82 -3.0177c-0.0656,0.879 -0.3294,1.7073 -0.6882,2.3849 -0.1282,0.242 -0.191,0.2318 -0.4232,0.3411 -1.4377,0.6767 -3.023,0.6812 -4.4769,0.0955 -0.542,-0.2183 -0.5448,-0.2113 -0.7898,-0.7425 -0.1701,-0.3689 -0.2927,-0.7456 -0.3981,-1.1646 -0.0591,-0.2355 -0.2307,-1.131 -0.1131,-1.3296 0.122,-0.2061 0.5575,-0.6093 0.7613,-0.7697 1.9649,-1.5471 4.3313,-1.1965 5.9661,0.6022 0.1811,0.1992 0.188,0.233 0.1619,0.5827zm-6.6564 -1.9968c0.0802,-0.5477 0.6796,-1.4822 1.098,-1.8671 1.4063,-1.2936 3.4282,-1.077 4.5646,0.4051 0.2517,0.3284 0.6829,1.0733 0.7334,1.4654 -0.3927,-0.2885 -0.5765,-0.4521 -0.9997,-0.6768 -0.2105,-0.1118 -0.2824,-0.1858 -0.4062,-0.091l0.1434 0.2598c0.0005,0.0005 0.836,0.4132 1.344,0.9549 0.1216,0.1297 0.1574,0.483 0.1593,0.7154l-3.4524 -1.5912c-1.5792,-0.0004 -2.7329,0.8389 -3.4231,1.5902l0.1712 -0.7349c0.0732,-0.1332 0.8148,-0.6488 1.0311,-0.7768 0.3814,-0.2259 0.5193,-0.176 0.4661,-0.4117l-0.3867 0.0632c-0.2843,0.0914 -0.9249,0.6261 -1.043,0.6955zm10.0467 12.5714c0.0769,-0.1668 -0.3697,-2.1599 -0.4376,-2.5071l-1.9472 -10.0045c-0.1771,-0.9036 -0.278,-1.5558 -0.7064,-2.2632 -1.7722,-2.9268 -5.7354,-2.846 -7.5156,0.0575 -0.4268,0.6961 -0.5509,1.3625 -0.7172,2.2568 -0.458,2.4643 -0.9714,5.019 -1.4561,7.4869 -0.1646,0.8383 -0.3185,1.6571 -0.4863,2.4911 -0.0689,0.342 -0.4915,2.2909 -0.4294,2.4831l13.6958 -0.0006z"/>
   <path id="_408341936" class="fil1" d="M11.9229 6.3581c0.0261,-0.3497 0.0192,-0.3835 -0.1619,-0.5827 -1.6348,-1.7987 -4.0012,-2.1493 -5.9661,-0.6022 -0.2038,0.1604 -0.6393,0.5636 -0.7613,0.7697 -0.1176,0.1986 0.054,1.0941 0.1131,1.3296 0.1054,0.419 0.228,0.7957 0.3981,1.1646 0.245,0.5312 0.2478,0.5242 0.7898,0.7425 1.4539,0.5857 3.0392,0.5812 4.4769,-0.0955 0.2322,-0.1093 0.295,-0.0991 0.4232,-0.3411 0.3588,-0.6776 0.6226,-1.5059 0.6882,-2.3849z"/>
   <path id="_408349832" class="fil1" d="M5.2665 4.3613c0.1181,-0.0694 0.7587,-0.6041 1.043,-0.6955l0.3867 -0.0632c0.0532,0.2357 -0.0847,0.1858 -0.4661,0.4117 -0.2163,0.128 -0.9579,0.6436 -1.0311,0.7768l-0.1712 0.7349c0.6902,-0.7513 1.8439,-1.5906 3.4231,-1.5902l3.4524 1.5912c-0.0019,-0.2324 -0.0377,-0.5857 -0.1593,-0.7154 -0.508,-0.5417 -1.3435,-0.9544 -1.344,-0.9549l-0.1434 -0.2598c0.1238,-0.0948 0.1957,-0.0208 0.4062,0.091 0.4232,0.2247 0.607,0.3883 0.9997,0.6768 -0.0505,-0.3921 -0.4817,-1.137 -0.7334,-1.4654 -1.1364,-1.4821 -3.1583,-1.6987 -4.5646,-0.4051 -0.4184,0.3849 -1.0178,1.3194 -1.098,1.8671z"/>
   <path id="_408349544" class="fil1" d="M10.3645 10.3601c-0.3352,0.2405 -0.4497,0.3454 -0.8418,0.5347 -0.3209,0.155 -0.7192,0.2468 -1.1029,0.2399 -0.3993,-0.0072 -0.7698,-0.1165 -1.0744,-0.2676 -0.4427,-0.2196 -0.6248,-0.4412 -0.782,-0.5198 -0.0808,1.2475 0.801,0.9957 0.5709,1.4036l-0.6966 -0.5596 -1.9626 1.3572 2.2795 0.9474c0.7672,-0.4652 0.2537,-0.1782 1.1044,-0.2753l0.041 -1.2235 1.127 0.0046 0.0475 1.2184 0.6944 0.009c0.3008,0.001 0.3454,-0.0399 0.3949,0.1484l0.0256 0.1017c0.0012,-0.0042 0.0042,0.0164 0.0084,0.0237 0.4339,-0.1421 2.0103,-0.6242 2.2589,-0.9544 -0.3746,-0.3042 -1.5075,-1.2533 -1.9525,-1.3455l-0.709 0.5274c-0.0201,-0.2252 -0.0544,-0.1643 0.1295,-0.2808 0.0899,-0.057 0.181,-0.1493 0.2514,-0.2404 0.1715,-0.2222 0.1948,-0.5184 0.1884,-0.8491z"/>
   <path id="_408349664" class="fil1" d="M10.6099 10.9243c0.0915,0.0748 0.2841,0.1687 0.3795,0.2193 0.6258,0.3321 1.1909,0.8029 1.7177,1.2554 0.2018,0.1732 0.5182,0.5393 0.5858,0.5836l-0.8632 -4.477c-0.0603,-0.308 -0.1981,-1.2461 -0.3013,-1.457 -0.0474,0.1022 -0.195,0.7277 -0.314,1.0488 -0.2386,0.6439 -0.5482,1.2016 -0.9697,1.727 -0.1429,0.178 -0.2065,0.1447 -0.2035,0.4549 0.0024,0.2378 -0.018,0.4244 -0.0313,0.645z"/>
   <path id="_408350408" class="fil1" d="M3.6356 12.9809c0.0881,-0.0579 0.4097,-0.4335 0.6025,-0.5999 0.4922,-0.4252 1.4778,-1.2115 2.0872,-1.4339l-0.0333 -0.6989c0.0014,-0.2591 -0.1051,-0.2912 -0.2188,-0.4397 -0.5922,-0.7731 -1.0988,-1.7359 -1.2476,-2.7652l-0.6223 2.9743c-0.0957,0.4867 -0.5451,2.6666 -0.5677,2.9633z"/>
   <path id="_408357296" class="fil1" d="M8.1047 14.2735l0.0399 2.4102 0.6429 -0.0005c0.0043,-0.2864 -0.0459,-2.3198 0.037,-2.4147 0.0426,-0.0963 0.0517,-0.0895 0.2061,-0.0911l0.863 0.0018 0.0037 -0.6817 -1.0472 -0.0296 -0.058 -1.2271 -0.6518 0.0002 -0.0483 1.234 -1.0485 0.0234 -0.0095 0.6802 0.5895 0.0012c0.1893,-0.0002 0.4424,-0.0506 0.4812,0.0937z"/>
   <path id="_408339488" class="fil1" d="M6.1029 9.3758c0.1343,0.3056 0.6556,0.7824 0.9228,0.9818 0.3726,0.278 0.8688,0.5034 1.4253,0.5073 0.5762,0.004 1.0536,-0.2237 1.437,-0.4945 0.2755,-0.1945 0.8173,-0.7005 0.9325,-0.9833l-1.1096 0.3504c-1.1363,0.2979 -2.6118,0.0783 -3.608,-0.3617z"/>
   <path id="_408339296" class="fil2" d="M8.8245 14.2685c-0.0829,0.0949 -0.0327,2.1283 -0.037,2.4147l-0.6429 0.0005 -0.0399 -2.4102 0.0098 2.4282 0.6888 0.0113 0.0212 -2.4445z"/>
  </g>
 </g>
</svg>
