<?xml version="1.0" encoding="UTF-8"?>
<!DOCTYPE svg PUBLIC "-//W3C//DTD SVG 1.1//EN" "http://www.w3.org/Graphics/SVG/1.1/DTD/svg11.dtd">
<!-- Creator: CorelDRAW -->
<svg xmlns="http://www.w3.org/2000/svg" xml:space="preserve" width="16.9332mm" height="16.9332mm" style="shape-rendering:geometricPrecision; text-rendering:geometricPrecision; image-rendering:optimizeQuality; fill-rule:evenodd; clip-rule:evenodd"
viewBox="0 0 16.9332 16.9332"
 xmlns:xlink="http://www.w3.org/1999/xlink">
 <defs>
  <style type="text/css">
   <![CDATA[
    .fil0 {fill:black}
   ]]>
  </style>
 </defs>
 <g id="Capa_x0020_1">
  <metadata id="CorelCorpID_0Corel-Layer"/>
  <g id="_548551976">
   <path id="_347305768" class="fil0" d="M4.8782 12.2338c0.0845,0.0827 -0.0152,0.048 0.1714,0.126l0.708 0.1886 -1.2819 0.3025c-0.0232,-0.5076 -0.0039,-0.5704 0.4025,-0.6171zm9.8941 -8.3899c0.2395,-0.2131 0.0917,0.1325 0.2322,-0.2377 -0.297,0.0217 -0.1118,-0.0692 -0.2322,0.2377zm-2.3191 7.8339l-0.0965 0.0366c0.0106,0.2449 -0.097,0.0952 0.0627,0.27 0.048,-0.1024 0.1839,0.1885 0.0338,-0.3066zm-9.1236 -4.4081c-0.3812,-0.0003 -0.0981,-0.0356 -0.179,0.1353 0.1574,0.2349 0.1116,0.1141 0.2242,0.1923l-0.0452 -0.3276 0.3312 0.0257 0.0309 0.343c0.0454,-0.0474 0.5287,-0.0652 -0.0309,-0.343 0.1045,-0.3337 -0.0544,-0.1016 0.1863,-0.2146 0.3602,0.4388 0.2354,0.5018 0.7376,0.8022 0.4332,0.2591 0.6003,0.3513 1.0772,0.5153 0.3545,0.4145 1.6662,0.672 2.3349,0.6926l0.8395 0.2303c0.2786,0.2381 0.828,-0.138 1.4321,0.0267l0.1638 -0.0775c0.0909,-0.032 0.1613,-0.0582 0.2603,-0.0806 1.7295,-0.3915 1.4153,-0.243 3.1872,-0.9647 -0.1257,0.4734 -0.1971,0.3156 -0.4797,0.6606 -0.4251,0.1281 -0.0963,0.0741 -0.4587,0.2498 -0.1709,0.083 -0.3784,0.1275 -0.6105,0.1898 -0.6724,0.1803 -0.7004,0.1165 -1.1733,0.4438l0.1984 0.1572c0.0073,0.0048 -0.1103,0.2411 0.5084,-0.0551l1.1011 -0.5046c0.5381,-0.3458 0.3911,-0.3626 0.4346,-0.4809 0.2204,-0.0795 0.0268,0.0175 0.2062,-0.0971l0.4581 -0.4388 0.4965 0.1989c-0.0595,-0.2101 -0.0856,-0.2632 -0.1612,-0.3914 -0.8452,-0.6844 -0.2682,-0.2814 -1.1475,-0.3353 0.1041,-0.6518 0.336,-0.4297 0.9226,-0.6755 0.5032,-0.2108 0.4026,-0.8355 0.3871,-1.4556l-0.0101 -0.9085 0.2257 -0.8741c-0.3095,0.2392 -0.145,0.1781 -0.3641,0.3559 -0.2103,0.1708 -0.1265,0.1294 -0.3934,0.1734 -0.1903,0.1579 0.1691,-0.019 -0.2524,0.1729 -0.201,0.0915 -0.1377,0.0607 -0.3414,0.0938 -1.0033,0.1632 -1.591,0.3125 -1.6631,-0.2321l-0.2576 -0.0809c-0.1938,-0.3883 -0.5688,-0.5238 -0.7441,-0.4152 0.3772,0.2966 0.2758,0.2403 0.7441,0.4152 -0.1152,0.3086 -0.018,0.0348 -0.4083,0.1898l0.6199 0.3027 -0.6128 0.0927 0.1089 0.2555c0.3155,-0.0229 0.5433,0.0622 0.7769,0.1838 0.3342,0.1738 0.3807,0.1649 0.4691,0.5016 0.3172,0.1947 0.3158,0.2742 0.4698,0.6826 0.135,0.3581 0.1576,0.4064 0.064,0.7606 -0.1885,0.7124 -0.4401,1.0103 -1.1782,1.1632l-0.2419 0.0284c-0.5156,0.1089 -0.797,0.1316 -1.3399,0.0269 -0.5635,-0.1087 -0.7969,-0.225 -0.9518,-0.6694 -0.2443,-0.1874 -0.4275,-1.4786 -0.3178,-1.8024 -0.0843,-0.5561 0.3634,-0.3512 0.5607,-1.035l-0.5835 0.5152c-1.1669,-0.4015 -0.9171,-0.5265 -1.0844,-0.224 0.8876,0.1155 1.0419,1.4394 0.7293,2.2542 -0.0855,0.6331 -0.5061,0.8123 -1.1961,0.9169 -0.927,0.1405 -0.9975,0.0476 -1.8021,-0.2203 -1.0485,-0.7787 -0.8654,-0.8546 -0.936,-2.2958l0.323 -0.516c0.1768,-0.2423 0.2522,-0.3068 0.5867,-0.4168 0.1822,-0.0963 0.1704,-0.0414 0.4017,-0.06 0.1333,-0.0108 0.1519,0.001 0.2862,-0.0251 0.3448,-0.0671 0.0978,-0.0026 0.2337,-0.0812l-0.8506 -0.0876c0.8147,-0.5298 0.7256,-0.0646 1.0372,-0.5238l-0.9495 0.1214 1.2533 -0.5604 -0.0132 0.0465c-0.1215,-0.1021 0.0492,-0.1717 -0.4565,-0.1097 -0.5154,0.0632 -0.8682,0.5638 -1.2024,0.9022 -0.9989,-0.5015 0.2941,-0.0934 -1.7394,-0.753 -1.4099,-0.4576 -0.7215,-0.6462 -1.4503,-1.0096 -0.1118,-0.2269 -0.1028,-0.2824 -0.2669,-0.4359 -0.3523,-0.3296 -0.1239,-0.1201 -0.2042,0.0541l0.4614 0.3771 -0.0498 -0.024c0.3704,0.5505 0.911,1.5933 0.8468,2.3909 0.228,0.259 0.1206,0.302 0.2621,0.5656 0.1196,0.2225 0.2786,0.3007 0.5038,0.4104l0.7573 0.8983 -0.9099 -0.4866c-0.1339,0.2423 -0.157,0.2136 -0.1821,0.5744zm9.9886 6.1978l-0.1555 0.222 0.8211 -0.3865c-0.2684,-0.0046 -0.3449,0.1155 -0.6656,0.1645 0.016,-0.0241 0.0322,-0.0939 0.0386,-0.0777 0.0058,0.0149 0.0284,-0.0574 0.0356,-0.0719 0.0068,-0.0135 0.0187,-0.046 0.033,-0.0662 0.5424,-0.2002 -0.0419,-0.175 0.5066,-0.3982 0.5208,0.791 0.1503,0.8477 -0.7063,1.1178 -0.5572,0.0595 -1.1925,-0.0155 -1.3856,-0.4697l1.1441 0.2018 -1.1243 -0.55 0.3572 -0.1366c0.1328,0.2222 0.1488,0.1657 0.4646,0.2368l-0.209 -0.1445c-0.0251,-0.0184 -0.1078,-0.0634 -0.129,-0.0835 -0.1691,-0.1608 -0.0853,-0.0073 -0.1384,-0.2756 0.2006,-0.1045 0.547,-0.1807 1.1151,-0.087 0.2071,0.0342 0.1195,0.0258 0.2273,0.0914 0.0321,0.3448 0.0457,0.2262 -0.1223,0.4973l-0.7145 -0.0193c0.0913,0.0673 -0.0382,0.0413 0.2809,0.1534 0.0857,0.0302 0.1918,0.0471 0.3264,0.0817zm0.3189 -2.2282c0.3193,-0.0209 0.0899,0.0233 0.1382,-0.113l-0.1173 -0.3396c0.321,0.0406 0.1168,-0.0602 0.3692,-0.1041l0.1453 0.0133c-0.2535,-0.2904 -0.3472,-0.4072 -0.3695,-0.8933 0.2877,0.381 0.9045,1.2468 1.0079,1.6365l-0.3826 0.5166c-0.1322,0.1869 0.0149,-0.0917 -0.1408,0.2215 -0.2983,0.0512 -0.2834,0.1331 -0.5939,0.2113 -0.2642,0.0663 -0.5968,0.0815 -0.8704,0.0886 -0.3496,0.435 -2.4323,-0.4808 -2.8257,-0.5262l0.0555 -0.765 0.3462 0.3568c0.0162,-0.0218 0.0336,-0.0893 0.0393,-0.0718l0.1728 -0.2717c0.2367,0.1745 0.1693,0.1302 0.3383,0.6955l0.1765 -0.4993 -0.0029 -0.2589c0.2342,-0.0948 0.4345,0.0175 0.691,0.0548 0.1001,-0.1722 0.0115,-0.0478 0.1982,-0.1557l-0.3589 -0.3025 1.1692 -0.5173 0.2547 0.252c0.0081,-0.018 0.0257,0.051 0.0427,0.0738l0.1694 -0.1536c-0.1321,0.1565 -0.0656,0.4487 0.0375,0.6088 0.1674,-0.2349 0.1072,-0.2453 0.112,-0.5783l0.1395 -0.0473 0.0795 0.4155c-0.2063,0.2263 -0.1631,-0.4233 -0.1743,0.3005 0.1793,0.051 0.1412,-0.1082 0.1534,0.1521zm-12.0891 -5.427l-0.2923 -0.1526c0.1113,0.387 0.1544,0.4957 0.4887,0.6613 -0.1829,-0.3414 -0.1148,-0.1148 -0.1964,-0.5087zm15.0045 -0.5997c0.0689,-0.0792 0.0518,0.0115 0.1456,-0.1886 0.0348,-0.0745 0.0554,-0.1608 0.0681,-0.2443 0.0343,-0.2222 0.0116,-0.3056 -0.0039,-0.5199 0.3444,-0.4903 0.0635,-1.4922 0.0509,-2.1142 -1.3145,-0.1554 -4.266,0.6684 -5.1808,0.5994l0.0016 -0.9278 -0.1499 0.3239c-0.2153,0.4809 -0.1003,0.2973 -0.3758,0.4614l-0.077 -1.4321c-0.5374,0.7901 -0.0676,1.0466 -0.774,1.2068l-0.3606 -1.6745c-0.1547,0.1709 -0.06,0.0891 -0.1959,0.0982 -0.0512,0.5946 0.0181,0.8099 -0.1872,1.248 -0.3756,-0.3309 -0.5455,-0.8708 -0.5632,-1.3684l-0.4643 -0.1388 -0.3807 1.1918 -0.8017 -0.9686 0.1973 1.5257c-0.4565,-0.5035 -0.5031,-0.4974 -0.8302,-1.1222l0.042 1.2416 -0.783 -0.3862c0.3208,0.5449 0.3304,0.4274 0.3027,0.8078l-1.1692 -0.2656c-0.4584,-0.7634 -1.6377,-0.7507 -1.8757,-0.963 -0.3707,0.0136 -1.076,-0.1222 -1.3581,-0.3335 -0.5597,-0.0625 -0.8769,-0.2534 -1.4115,-0.1092l-0.3682 0.7115c-0.1921,0.6428 0.2229,2.1247 0.3695,2.7088l0.0446 0.0518c0.3056,0.5815 0.5615,0.7718 0.7078,0.8914 -0.1051,-0.3673 -0.6154,-1.1853 -0.8685,-1.9273 -0.2672,-0.7827 -0.3451,-1.7279 0.2679,-2.1921 0.3357,-0.2543 1.559,0.247 2.0596,0.377l1.6662 0.4429c0.369,0.1042 0.2928,0.1034 0.4195,0.3094l0.3469 0.0323c0.0142,0.0193 0.0407,0.0405 0.0513,0.0499l0.1557 0.1354c0.1128,0.0914 0.1014,0.0389 0.1908,0.1438 0.4385,0.0774 0.6485,0.2094 1.0698,0.3172 0.3625,0.0931 0.7056,0.0406 0.9946,0.3001 0.4019,-0.0093 0.4639,0.0925 0.8855,0.1527 0.4282,0.0612 0.6682,-0.0417 1.0833,-0.0765 0.4323,-0.0721 0.5855,-0.2059 1.1569,-0.165 0.1271,-0.3388 0.5017,-0.0803 0.7902,-0.0242 0.1639,-0.4226 0.4063,-0.4263 0.9574,-0.5538l3.2472 -0.4594 0.9978 -0.0125c0.2089,0.6499 0.0495,1.2032 0.1185,1.8861 -0.0452,0.0752 -0.0063,-0.0884 -0.1058,0.2237 -0.0275,0.0869 -0.0404,0.1763 -0.0555,0.2601 -0.0241,0.1348 -0.0418,0.2692 -0.0485,0.469l-0.1162 -0.0258 -0.8262 1.965c0.1427,-0.1861 0.0186,0.0656 0.1771,-0.2353 0.1424,-0.3032 0.3154,-0.7408 0.4827,-0.8467 0.1712,-0.4487 0.302,-0.3086 0.2826,-0.8572zm-1.2067 3.0811c0.1937,-0.0818 0.0462,0.1807 0.1836,-0.4844l0.1628 -0.674c-0.1324,0.1446 -0.0721,-0.0094 -0.179,0.2294 -0.1083,0.2423 -0.2127,0.6582 -0.1674,0.929zm-9.6869 5.1721c-0.9887,-0.063 -0.6162,0.0113 -1.5588,-0.3239 0.0213,0.0199 0.0505,0.0239 0.0619,0.0623l0.2586 0.1887c0.2151,0.1082 0.6038,0.2057 0.8431,0.1977 0.461,-0.0156 0.3951,-0.1248 0.3952,-0.1248l0.5254 -0.0306c-0.2093,0.506 -1.0159,0.498 -1.6061,0.3888 -0.6091,-0.1125 -0.8276,-0.5983 -0.6249,-1.1588l0.2057 -0.1064c0.0813,0.1526 0.4239,1.0996 1.3571,0.6453 0.3027,-0.1473 0.2223,-0.3638 0.6105,-0.1868 -0.0131,0.3331 -0.2013,0.1206 -0.4677,0.4485zm3.4987 -2.9464c-0.3548,-0.1524 -1.0706,-0.2357 -1.458,-0.1519l0.0113 0.0244 -1.9505 -0.5702c-0.535,-0.3189 -0.7605,-0.6545 -1.2045,-1.0054 -0.3545,-0.2799 -0.8296,-0.6773 -0.9894,-1.1304l-0.1229 0.417c-0.8013,-1.0204 -0.7116,-1.0724 -1.6217,-1.7588 0.7889,1.3299 0.2679,0.7362 0.5619,1.412 0.2496,0.5736 0.8414,0.4334 1.2889,0.6444l-0.5438 2.3147c-0.049,0.0576 -0.0299,-0.0326 -0.1275,0.1769 -0.056,0.1194 -0.034,0.1326 -0.055,0.2537 0.1604,0.174 1.0528,0.7312 1.4102,0.7987l0.0112 0.4016c-0.0811,0.0367 -0.2365,0.1317 -0.266,0.1561 -0.1612,0.1326 -0.0561,0.027 -0.1485,0.163l-0.2445 0.1535c-0.0305,0.7027 0.1086,1.0594 -0.1387,1.7965 -0.018,0.2252 -0.0468,0.2608 -0.0112,0.3438 0.3702,0.8637 2.4708,-1.8968 2.1002,0.3624l-0.6227 0.0035 -0.0967 0.3269 0.3425 0.096c0.0001,0.016 0.0023,0.0571 0.002,0.0764l-0.0253 0.3167c0.6336,-0.2758 -0.0968,-0.0082 0.5102,-0.6189l0.1869 -0.1493c0.1077,0.1288 0.0627,0.2661 0.0813,0.3525 0.3436,-0.4086 0.5148,-0.7632 1.1103,-0.8214 0.6372,-0.8608 0.4756,0.2433 0.8258,-1.5714 -0.6334,-0.494 -0.8698,-0.204 -1.7464,-0.3093 -0.0686,-0.2382 0.0099,-0.0353 -0.095,-0.2327l-0.1621 -0.2273 1.9703 -0.3159 0.0934 -1.162 1.7718 -0.1796c0.0648,0.3375 -0.0179,0.7916 0.1921,1.0453 0.0106,0.0216 0.036,0.0266 0.0436,0.0579 0.0074,0.031 0.0356,0.0454 0.0465,0.0548 0.049,0.0419 0.047,0.0477 0.1696,0.1255 0.2294,0.1458 0.0904,-0.0938 0.2466,0.1447 0.5158,0.1019 0.9374,0.2956 1.4021,0.3319l0.0247 0.2507 -0.2172 0.1887 -1.0171 -0.1551c-0.2153,0.3143 -0.6405,0.7532 -0.3245,1.2329 0.1551,0.2354 0.2112,0.2855 0.5133,0.4035 0.4837,0.1885 0.4355,0.043 0.6953,0.3304 0.6427,0.1011 0.7232,0.4856 1.4435,0.645l1.2103 0.2187 0.3705 -0.1038 0.321 -0.2781 -0.648 -1.4628c-0.0607,-0.244 0.3723,-0.6857 -0.2134,-1.1185 -0.1282,-0.0949 -0.082,-0.0469 -0.193,-0.1059l0.5209 -0.5086c0.2828,-0.245 0.7169,-0.4391 0.5129,-1.0057 -0.1051,-0.2925 -0.4462,-0.6777 -0.6142,-1.1085 -0.1535,-0.189 -0.3322,-0.4541 -0.2363,-0.9475 0.8468,-0.0563 0.6481,-0.0977 1.1979,-0.2695l0.0277 -0.2318 -0.3271 0.1938c-0.4763,0.2491 -0.7519,0.0652 -0.7793,-0.0122 -0.0132,-0.0376 -0.048,-0.0364 -0.0732,-0.0528l-1.6289 1.4084c-0.5399,0.2679 -1.9226,0.5584 -2.526,0.384l-0.7881 -0.0416zm-0.9582 0.0154l0.9582 -0.0154 -0.0252 0.2881 -0.933 -0.2727zm-3.8428 1.4097c-0.048,-0.2067 0.1259,-0.0378 -0.1156,-0.2125 -0.2537,-0.1123 -0.3327,-0.1788 -0.5638,-0.3263 -0.1241,-0.0791 -0.3995,-0.2226 -0.5404,-0.2992l-0.0079 -0.3913 0.2129 -0.2819c0.0942,-0.136 0.1241,-0.1765 0.2029,-0.3071 0.1419,-0.2346 0.1467,-0.3654 0.375,-0.5217 -0.343,1.3283 -0.1985,0.6078 0.0021,1.1564 0.0252,-0.3398 -0.0002,-0.2545 0.1269,-0.416l0.1009 0.3936 0.1857 -0.5326 0.1205 0.1314c0.0341,-0.3663 -0.1538,0.086 0.0971,-0.3251l0.0884 0.5188 0.3494 -0.0379 -1.0818 -1.9176c0.6529,0.287 1.0404,1.2152 1.35,1.8113l0.0414 -0.43 0.2174 0.2324 0.0437 -0.3309 0.9546 0.6329c0.0004,0.0337 -0.0041,0.1061 -0.0021,0.1228 0.0712,0.6324 0.3698,-0.2861 -0.3242,1.2092l0.9342 -0.9001 0.2065 0.4624c0.4673,0.0969 0.1338,-0.0085 0.2977,-0.0165 0.0071,-0.0004 -0.0097,-0.2473 0.0979,0.0998l0.061 0.5105c-1.1811,0.2585 -1.6207,0.2369 -2.9088,0.2545l-0.5216 -0.2893zm2.4445 -1.8952c-0.1574,-0.4858 -0.1442,-0.1791 -1.219,-1.0111 0.978,0.1136 1.3758,0.7576 2.0998,0.4846 -0.2624,-0.4295 0.003,-0.0683 -0.974,-0.3441 -1.2677,-0.3578 -1.5747,-0.7144 -2.7787,-1.5031 0.1071,0.1967 0.0211,0.0735 0.1302,0.2221 0.5479,0.7461 1.8979,1.8734 2.7417,2.1516zm-3.2422 4.9097l-0.0101 0.3123 0.0871 0.5813c0.3431,0.4564 0.4997,0.5568 1.2209,0.5366 0.5852,-0.0167 0.9004,-0.295 1.1805,-0.664 -0.0186,-0.0864 0.0264,-0.2237 -0.0813,-0.3525l-0.1869 0.1493c-0.607,0.6107 0.1234,0.3431 -0.5102,0.6189l0.0253 -0.3167c0.0003,-0.0193 -0.0019,-0.0604 -0.002,-0.0764l-0.3425 -0.096 -0.3716 -0.0376c-0.0444,0.2872 -0.0393,0.8645 -0.3575,0.2164l-0.1403 -0.4132 -0.5215 -0.1461m1.1257 -9.6434l-0.0233 0.3906 -0.2999 0.4733 -0.748 -0.4814c-0.015,-0.0108 -0.0427,-0.0343 -0.0625,-0.0532 -0.0962,-0.0447 -0.1533,-0.0292 -0.2871,-0.277 -0.1771,-0.3281 -0.3081,-1.2782 -0.3769,-1.6667 0.9008,0.0351 1.5745,0.5396 2.2257,0.9711 -0.1722,0.3218 -0.2241,0.275 -0.428,0.6433zm9.6131 -0.8027c0.1559,0.1996 0.1033,0.2349 0.1002,0.7611 -0.0013,0.2409 0.018,0.6716 -0.0109,0.8901 -0.0766,0.5789 -0.4264,0.6288 -1.0788,0.6496l-0.3636 -1.0316c-0.1699,-0.1621 -0.6052,-0.671 -0.6807,-0.8738 0.7428,-0.2142 1.292,-0.3299 1.9809,-0.6014l0.0529 0.206z"/>
   <rect id="_346548688" class="fil0" x="3.5136" y="14.9436" width="2.286" height="0.6894"/>
   <rect id="_548562560" class="fil0" x="4.0216" y="14.3026" width="2.286" height="0.6894"/>
   <rect id="_346548448" class="fil0" x="4.0216" y="15.4456" width="1.143" height="0.6894"/>
  </g>
 </g>
</svg>
