<?xml version="1.0" encoding="UTF-8"?>
<!DOCTYPE svg PUBLIC "-//W3C//DTD SVG 1.1//EN" "http://www.w3.org/Graphics/SVG/1.1/DTD/svg11.dtd">
<!-- Creator: CorelDRAW -->
<svg xmlns="http://www.w3.org/2000/svg" xml:space="preserve" width="16.9332mm" height="16.9332mm" style="shape-rendering:geometricPrecision; text-rendering:geometricPrecision; image-rendering:optimizeQuality; fill-rule:evenodd; clip-rule:evenodd"
viewBox="0 0 16.9332 16.9332"
 xmlns:xlink="http://www.w3.org/1999/xlink">
 <defs>
  <style type="text/css">
   <![CDATA[
    .fil0 {fill:black}
    .fil2 {fill:#848484}
    .fil1 {fill:#F3F3F5}
   ]]>
  </style>
 </defs>
 <g id="Capa_x0020_1">
  <metadata id="CorelCorpID_0Corel-Layer"/>
  <g id="_374427424">
   <path id="_413318360" class="fil0" d="M3.6896 10.2671c0.0949,-1.2079 0.9681,-1.1903 1.6914,-1.343 0.3872,-0.0818 0.8085,-0.2351 1.1425,-0.3687l0.9478 -0.5598 -0.0166 -0.7604c0.4177,0.1469 0.4243,0.5436 1.0227,0.5377 0.399,-0.0039 0.6588,-0.2911 0.992,-0.5569l0.0057 0.8288c0.7631,0.4208 1.1953,0.6829 2.0929,0.8813 1.3727,0.3035 1.0133,0.0542 1.67,1.341 -0.0078,0.008 -0.019,0.0096 -0.0231,0.0243 -0.0041,0.0143 -0.0178,0.0184 -0.0235,0.0228l-0.2009 0.1238c-1.1216,0.6606 -3.3984,1.4745 -4.5137,1.4947 -0.961,0.0173 -4.1483,-1.042 -4.7872,-1.6656zm7.023 -1.7925c0.0466,-0.4683 0.1403,-0.9774 0.2119,-1.4656 0.0334,-0.228 0.0721,-0.4813 0.1046,-0.7261 0.0215,-0.1615 0.0558,-0.5673 0.1238,-0.6896l-0.2408 2.9576 -0.1995 -0.0763zm-4.6552 0.0703c-0.1249,-0.8947 -0.2368,-2.0528 -0.2505,-2.959 0.0561,0.103 0.0505,0.0753 0.0681,0.1827l0.36 2.6591 -0.1776 0.1172zm0.1492 -3.7212c-0.263,-0.4955 -0.0562,-1.9376 0.3652,-2.6001 1.0419,-1.6379 3.1232,-1.3178 3.8568,0.1161 0.3418,0.6681 0.5663,2.0096 0.2826,2.5465l-0.0424 -0.8194c-0.1505,1.0158 -0.2403,2.4069 -1.3087,2.9793 -0.4013,0.215 -0.454,0.4822 -0.9235,0.4727 -0.2645,-0.0054 -0.3502,-0.096 -0.5044,-0.2129 -0.16,-0.1214 -0.2192,-0.1712 -0.4262,-0.2916 -0.5793,-0.3369 -0.9449,-1.1186 -1.0818,-1.7807 -0.072,-0.3482 -0.0078,-1.018 -0.179,-1.2207l-0.0386 0.8108zm-0.196 -2.3693c0.0466,-0.5616 0.5105,-1.198 0.811,-1.4533 0.7798,-0.6626 2.549,-0.7093 3.401,0.069 0.2851,0.2606 0.7136,0.9074 0.7474,1.4548 -0.2567,-0.4558 -0.4406,-0.8677 -0.888,-1.1948 -0.9705,-0.7095 -2.2162,-0.7352 -3.1558,-0.0251 -0.2231,0.1686 -0.3455,0.2989 -0.5187,0.5159 -0.1503,0.1885 -0.2571,0.4674 -0.3969,0.6335zm-0.3607 6.2576c-0.8645,0.1827 -1.5745,0.2009 -1.9229,0.868 -0.2578,0.4936 -0.3203,1.8617 -0.2063,2.4524 0.1444,0.7486 0.4097,1.5919 0.431,2.379 0.0116,0.4284 -0.1296,0.8143 -0.2043,1.2048l-0.0905 1.3124 0.3247 0.0021c-0.0885,-1.502 0.4556,-1.6436 0.2203,-3.1904 -0.0755,-0.4964 -0.1832,-0.9607 -0.2947,-1.4536l-0.0728 -1.7268 0.2442 0.1455c0.0759,1.3818 0.5805,3.3376 0.4039,4.6439l-0.2058 1.5838 1.3146 0.0001 -0.1347 -3.1496c0.1344,0.1858 0.4936,1.1318 0.5794,1.3965l0.0536 1.7506 0.3538 -0.0096c0.1857,-1.2616 0.0441,-1.5138 -0.4151,-2.6491l-0.3058 -0.7915 0.5681 0.4499 0.4907 2.9805 3.3681 0.0136 0.4608 -2.9753c0.0992,-0.0793 0.2166,-0.144 0.325,-0.227l0.2796 -0.2874c-0.022,0.2919 -0.4763,1.2116 -0.6044,1.5949l-0.1013 1.8969 0.3334 0.0062c-0.2777,-1.362 0.0264,-1.6861 0.5137,-2.91 0.0481,-0.1208 0.0251,-0.0763 0.1318,-0.1925l-0.1501 3.1029 1.3238 -0.0087c-0.1362,-1.3685 -0.3484,-1.6803 -0.1893,-3.1459l0.3772 -3.0858 0.2443 -0.1339c0.1882,1.1385 -0.1878,2.0808 -0.3526,3.1357 -0.1032,0.6609 -0.1135,0.9544 0.0383,1.5933l0.1775 1.6336 0.319 0.0115c0.0005,-1.4842 -0.313,-1.9078 -0.2953,-2.522 0.0216,-0.7474 0.2707,-1.6359 0.4266,-2.3688 0.1247,-0.5858 0.053,-1.9864 -0.2072,-2.4723l-1.9227 -0.8664c0.0114,-0.4112 0.0853,-0.9383 0.1314,-1.367 0.1383,-1.2867 0.2651,-3.0365 0.0967,-4.2772 -0.2458,-1.8109 -1.0157,-3.0521 -3.0285,-3.0593 -3.2816,-0.0117 -3.2537,3.4204 -3.0846,5.8847 0.0657,0.9566 0.2087,1.8931 0.2574,2.8273z"/>
   <path id="_374635848" class="fil1" d="M8.3321 11.0189c0.0576,-0.1811 -0.0122,-0.1506 0.1052,-0.2516 0.1824,0.0554 0.0901,0.0384 0.1538,0.2488 0.2546,0.0033 0.1572,-0.0484 0.1811,0.1393l-0.231 0.0078 -0.0064 0.4603c-0.0345,0.2123 0.0138,0.0338 -0.0577,0.1106 -0.1156,-0.1376 -0.0926,-0.0709 -0.0902,-0.2709 0.0012,-0.1048 0.0023,-0.1929 -0.0077,-0.2973 -0.1461,-0.0163 -0.1437,-0.0021 -0.2302,-0.062l0.1831 -0.085zm0.0303 -0.3472l0.0043 -0.0858c0.1053,-0.0771 0.0635,-0.0855 0.1738,0 -0.0212,0.1576 -0.0368,0.155 -0.1781,0.0858zm-0.0466 -0.3679c0.0057,0.1727 0.0255,0.1674 -0.1517,0.1491l-0.0083 -0.1435 0.16 -0.0056zm0.4404 0.043c-0.0367,0.2007 -0.1435,0.1626 -0.181,0.01 0.0713,-0.1118 0.0944,-0.0686 0.181,-0.01zm0.2043 -0.283c0.0045,0.1724 0.0399,0.1799 -0.1446,0.1453 -0.0542,-0.1779 0.0072,-0.1449 0.1446,-0.1453zm-1.0107 0.0396c0.0415,-0.0257 0.01,-0.0242 0.0857,-0.0324l-0.0857 0.0324zm1.191 -0.2608c0.005,-0.0115 0.0197,0.0118 0.0298,0.0174l-0.1449 0.0043c0.0427,-0.0265 0.0086,-0.0242 0.0856,-0.0322 0.006,-0.0007 0.0249,0.0209 0.0295,0.0105zm-1.2829 0.1236c-0.0711,0.0737 -0.1098,-0.0052 -0.113,-0.0064 -0.08,-0.1535 0.0069,-0.1345 0.1409,-0.1351 0.0001,0.0879 0.0381,0.0731 -0.0279,0.1415zm1.5359 -0.3783c0.0038,0.1703 0.0254,0.166 -0.148,0.148 -0.0325,-0.1533 -0.0217,-0.071 0.0283,-0.1515l0.1197 0.0035zm-1.7387 0.0225c0.0721,0.0647 0.0028,0.1038 0.0004,0.1111 -0.2288,0.008 -0.1322,-0.0171 -0.1479,-0.092 0.0011,-0.0007 0.0351,-0.1198 0.1475,-0.0191zm1.829 -0.253c0.1445,-0.0733 0.1259,0.0316 0.1283,0.033 -0.0303,0.1502 0.04,0.0769 -0.0662,0.1149 -0.0974,0.035 -0.1565,-0.1001 -0.0621,-0.1479zm-2.1212 -0.0096c0.1593,-0.0138 0.0598,0.0123 0.1014,0.0825 -0.0455,0.0691 0.0583,0.0832 -0.1031,0.0777 -0.1008,-0.0034 -0.1123,-0.1503 0.0017,-0.1602zm-0.1236 -0.2328c0.0072,0.2342 -0.165,0.2414 -0.155,-0.0018l0.155 0.0018zm2.5925 0.0364c-0.0328,0.2011 -0.143,0.164 -0.1809,0.0094 0.0739,-0.1109 0.0987,-0.0649 0.1809,-0.0094zm0.224 -0.2294c-0.0441,0.1676 -0.181,0.1885 -0.1723,-0.0397 0.1796,-0.0319 0.0916,-0.0367 0.1723,0.0397zm-3.0132 -0.0195c-0.0496,0.2366 -0.2064,0.1605 -0.169,0.0051 0.0369,-0.0216 0.0145,-0.0269 0.0878,-0.0336 0.098,-0.0089 0.0261,-0.0009 0.0812,0.0285zm-0.2347 -0.2697c0.0064,0.3921 -0.3974,-0.0098 0,0zm3.4604 0.1268c-0.1367,0.071 -0.1605,0.0704 -0.1788,-0.0864 0.1155,-0.0886 0.0883,-0.0585 0.1799,-0.0103l-0.0011 0.0967zm-6.5787 1.5075c0.6389,0.6236 3.8262,1.6829 4.7872,1.6656 1.1153,-0.0202 3.3921,-0.8341 4.5137,-1.4947l0.2009 -0.1238c0.0057,-0.0044 0.0194,-0.0085 0.0235,-0.0228 0.0041,-0.0147 0.0153,-0.0163 0.0231,-0.0243 -0.6567,-1.2868 -0.2973,-1.0375 -1.67,-1.341 -0.8976,-0.1984 -1.3298,-0.4605 -2.0929,-0.8813l-0.0057 -0.8288c-0.3332,0.2658 -0.593,0.553 -0.992,0.5569 -0.5984,0.0059 -0.605,-0.3908 -1.0227,-0.5377l0.0166 0.7604 -0.9478 0.5598c-0.334,0.1336 -0.7553,0.2869 -1.1425,0.3687 -0.7233,0.1527 -1.5965,0.1351 -1.6914,1.343z"/>
   <path id="_374420368" class="fil1" d="M8.4785 6.0252c0.1493,0.0023 0.1736,-0.0955 0.4418,-0.0249 0.3083,0.0811 0.1908,0.0019 0.4336,0.0042l-0.2058 0.1937c-0.1522,0.111 -0.1953,0.439 -0.6709,0.4372 -0.5017,-0.0019 -0.4943,-0.3592 -0.7001,-0.4539 -0.138,-0.0635 -0.1435,0.0055 -0.1731,-0.1775 0.2603,-0.0063 0.1211,0.0713 0.4617,-0.0111 0.2416,-0.0585 0.2746,0.0302 0.4128,0.0323zm-0.2349 -0.4216c-0.1127,-0.0372 -0.0745,0.0173 -0.2029,-0.0286 0.0306,-0.266 0.2988,-0.0438 0.4366,-0.0432 0.1952,0.0006 0.2437,-0.2213 0.4384,-0.0066 -0.1107,0.0452 -0.3245,0.1542 -0.4384,0.1527 -0.1218,-0.0016 -0.1533,-0.0478 -0.2337,-0.0743zm1.5485 -1.9584l0.7584 0.0348 -0.2772 1.0087c-0.1761,0.4603 -0.8326,0.4032 -0.8398,0.4005l-0.9564 -0.8719c-0.4655,0.1497 -0.129,0.9986 -1.183,0.8576 -0.3951,-0.0529 -0.4861,-0.1172 -0.6214,-0.4127 -0.0878,-0.192 -0.2144,-0.5244 -0.2697,-0.7236 -0.0641,-0.2309 -0.0484,-0.2576 0.1583,-0.2751 0.4861,-0.0412 0.9592,-0.0262 1.4244,0.0841 0.7721,0.1829 1.0578,-0.1022 1.8064,-0.1024zm-1.8671 -0.1124c-0.1389,0.0403 -0.0803,0.0367 -0.2108,0.0149 -0.3799,-0.0635 -0.3815,-0.0434 -0.7652,-0.058l0.2192 -0.1073c0.1101,-0.0248 0.203,-0.027 0.3148,-0.0162 0.1827,0.0177 0.3031,0.0731 0.442,0.1666zm-1.5804 0.0048c0.4683,-2.0772 3.5307,-2.4269 4.2381,-0.0118 -1.0545,-0.0365 -0.6246,-0.0374 -1.5917,0.0548l0.137 -0.1135c0.0457,-0.0246 0.091,-0.0434 0.1409,-0.0595 0.1113,-0.0359 0.2131,-0.0384 0.3309,-0.0602 -0.1526,-0.1784 -0.1816,-0.1138 -0.4255,-0.3521 -0.1519,-0.1484 -0.2228,-0.2138 -0.3739,-0.3438 -0.1666,-0.1433 -0.6511,-0.4635 -0.9819,-0.4558 -0.0206,0.0085 -1.0987,1.0655 -1.4739,1.3419zm-0.138 1.2861l0.0386 -0.8108c0.1712,0.2027 0.107,0.8725 0.179,1.2207 0.1369,0.6621 0.5025,1.4438 1.0818,1.7807 0.207,0.1204 0.2662,0.1702 0.4262,0.2916 0.1542,0.1169 0.2399,0.2075 0.5044,0.2129 0.4695,0.0095 0.5222,-0.2577 0.9235,-0.4727 1.0684,-0.5724 1.1582,-1.9635 1.3087,-2.9793l0.0424 0.8194c0.2837,-0.5369 0.0592,-1.8784 -0.2826,-2.5465 -0.7336,-1.4339 -2.8149,-1.754 -3.8568,-0.1161 -0.4214,0.6625 -0.6282,2.1046 -0.3652,2.6001z"/>
   <path id="_374420104" class="fil0" d="M6.6168 3.2015c0.154,-0.3337 0.1773,-0.1971 0.511,-0.3798 0.1981,-0.1084 0.3285,-0.2494 0.4681,-0.3994 -0.0666,0.3494 -0.5568,0.7578 -0.9791,0.7792zm0.2694 -0.4356c0.1177,-0.207 0.4357,-0.4454 0.6299,-0.5357 -0.082,0.2171 -0.3711,0.4649 -0.6299,0.5357zm3.2872 0.2204c-0.2504,-0.0664 -0.5631,-0.3548 -0.7011,-0.4886 -0.2632,-0.2551 -0.5336,-0.3498 -0.6829,-0.474l1.384 0.9626zm0.2298 0.48c-0.2532,-0.037 -0.519,-0.1483 -0.7159,-0.2671 -0.2662,-0.1605 -0.3272,-0.2223 -0.531,-0.4247 -0.5674,-0.5634 -0.9315,-0.5723 -1.1572,-0.742l1.2637 0.4753c0.287,0.2213 0.5664,0.5949 1.0505,0.6697l0.0899 0.2888zm-4.0586 0.0713c0.3752,-0.2764 1.4533,-1.3334 1.4739,-1.3419 0.3308,-0.0077 0.8153,0.3125 0.9819,0.4558 0.1511,0.13 0.222,0.1954 0.3739,0.3438 0.2439,0.2383 0.2729,0.1737 0.4255,0.3521 -0.1178,0.0218 -0.2196,0.0243 -0.3309,0.0602 -0.0499,0.0161 -0.0952,0.0349 -0.1409,0.0595l-0.137 0.1135c0.9671,-0.0922 0.5372,-0.0913 1.5917,-0.0548 -0.7074,-2.4151 -3.7698,-2.0654 -4.2381,0.0118z"/>
   <path id="_374420536" class="fil0" d="M6.7686 4.0108c0.2796,-0.1763 0.665,-0.1408 1.0365,-0.0851 0.4081,0.0612 0.4332,0.2517 0.1762,0.7433 -0.1798,0.3438 -0.5676,0.3462 -0.8939,0.2128 -0.2455,-0.1004 -0.3926,-0.4979 -0.3188,-0.871zm3.4178 0.0017c0.0461,0.2523 -0.0089,0.4937 -0.11,0.6791l-0.6031 0.257c-0.3067,0.0003 -0.3971,-0.0766 -0.5112,-0.3062 -0.3489,-0.7014 -0.0722,-0.7104 0.5105,-0.7502 0.2976,-0.0202 0.5237,0.0024 0.7138,0.1203zm-1.7093 0.2048l0.9564 0.8719c0.0072,0.0027 0.6637,0.0598 0.8398,-0.4005l0.2772 -1.0087 -0.7584 -0.0348c-0.7486,0.0002 -1.0343,0.2853 -1.8064,0.1024 -0.4652,-0.1103 -0.9383,-0.1253 -1.4244,-0.0841 -0.2067,0.0175 -0.2224,0.0442 -0.1583,0.2751 0.0553,0.1992 0.1819,0.5316 0.2697,0.7236 0.1353,0.2955 0.2263,0.3598 0.6214,0.4127 1.054,0.141 0.7175,-0.7079 1.183,-0.8576z"/>
   <path id="_374420128" class="fil1" d="M6.0106 2.4544c0.1398,-0.1661 0.2466,-0.445 0.3969,-0.6335 0.1732,-0.217 0.2956,-0.3473 0.5187,-0.5159 0.9396,-0.7101 2.1853,-0.6844 3.1558,0.0251 0.4474,0.3271 0.6313,0.739 0.888,1.1948 -0.0338,-0.5474 -0.4623,-1.1942 -0.7474,-1.4548 -0.852,-0.7783 -2.6212,-0.7316 -3.401,-0.069 -0.3005,0.2553 -0.7644,0.8917 -0.811,1.4533z"/>
   <path id="_374420320" class="fil1" d="M6.8904 4.0959c0.1157,-0.1156 1.2492,-0.1449 1.0233,0.3422l-0.1435 -0.1626 -0.0487 0.0529c-0.1996,0.2641 -0.3576,0.2372 -0.5017,-0.0514 -0.0343,-0.0687 -0.0281,-0.0503 -0.0577,-0.0867l-0.205 0.0277 -0.0667 -0.1221zm-0.1218 -0.0851c-0.0738,0.3731 0.0733,0.7706 0.3188,0.871 0.3263,0.1334 0.7141,0.131 0.8939,-0.2128 0.257,-0.4916 0.2319,-0.6821 -0.1762,-0.7433 -0.3715,-0.0557 -0.7569,-0.0912 -1.0365,0.0851z"/>
   <path id="_374421184" class="fil1" d="M9.035 4.4103c-0.204,-0.3763 0.5935,-0.4516 1.0309,-0.3137l-0.0766 0.1624 -0.052 -0.0348c-0.0934,-0.0398 0.0002,-0.0064 -0.185,-0.0372l-0.2407 0.3091c-0.2091,0.0212 -0.2364,-0.0961 -0.3172,-0.2095l-0.1594 0.1237zm1.1514 -0.3978c-0.1901,-0.1179 -0.4162,-0.1405 -0.7138,-0.1203 -0.5827,0.0398 -0.8594,0.0488 -0.5105,0.7502 0.1141,0.2296 0.2045,0.3065 0.5112,0.3062l0.6031 -0.257c0.1011,-0.1854 0.1561,-0.4268 0.11,-0.6791z"/>
   <path id="_374421304" class="fil0" d="M8.8835 6.3355c-0.2462,0.1588 -0.6317,0.2605 -0.8087,-0.0554 0.4625,0.0393 0.2637,0.0361 0.6596,0.0149 0.2613,-0.0141 0.0574,-0.0254 0.1491,0.0405zm-1.2795 -0.3315c0.0296,0.183 0.0351,0.114 0.1731,0.1775 0.2058,0.0947 0.1984,0.452 0.7001,0.4539 0.4756,0.0018 0.5187,-0.3262 0.6709,-0.4372l0.2058 -0.1937c-0.2428,-0.0023 -0.1253,0.0769 -0.4336,-0.0042 -0.2682,-0.0706 -0.2925,0.0272 -0.4418,0.0249 -0.1382,-0.0021 -0.1712,-0.0908 -0.4128,-0.0323 -0.3406,0.0824 -0.2014,0.0048 -0.4617,0.0111z"/>
   <path id="_374420944" class="fil1" d="M10.4032 3.4663l-0.0899 -0.2888c-0.4841,-0.0748 -0.7635,-0.4484 -1.0505,-0.6697l-1.2637 -0.4753c0.2257,0.1697 0.5898,0.1786 1.1572,0.742 0.2038,0.2024 0.2648,0.2642 0.531,0.4247 0.1969,0.1188 0.4627,0.2301 0.7159,0.2671z"/>
   <path id="_374422000" class="fil1" d="M6.0574 8.5449l0.1776 -0.1172 -0.36 -2.6591c-0.0176,-0.1074 -0.012,-0.0797 -0.0681,-0.1827 0.0137,0.9062 0.1256,2.0643 0.2505,2.959z"/>
   <path id="_374422336" class="fil1" d="M10.7126 8.4746l0.1995 0.0763 0.2408 -2.9576c-0.068,0.1223 -0.1023,0.5281 -0.1238,0.6896 -0.0325,0.2448 -0.0712,0.4981 -0.1046,0.7261 -0.0716,0.4882 -0.1653,0.9973 -0.2119,1.4656z"/>
   <path id="_374421976" class="fil0" d="M7.5643 4.1669l0 0.1651c-0.2699,0.0602 -0.2816,-0.2221 0,-0.1651zm-0.6739 -0.071l0.0667 0.1221 0.205 -0.0277c0.0296,0.0364 0.0234,0.018 0.0577,0.0867 0.1441,0.2886 0.3021,0.3155 0.5017,0.0514l0.0487 -0.0529 0.1435 0.1626c0.2259,-0.4871 -0.9076,-0.4578 -1.0233,-0.3422z"/>
   <path id="_374422288" class="fil0" d="M9.5611 4.3348c-0.2842,0.0572 -0.2766,-0.2212 0.0011,-0.1728l-0.0011 0.1728zm-0.5261 0.0755l0.1594 -0.1237c0.0808,0.1134 0.1081,0.2307 0.3172,0.2095l0.2407 -0.3091c0.1852,0.0308 0.0916,-0.0026 0.185,0.0372l0.052 0.0348 0.0766 -0.1624c-0.4374,-0.1379 -1.2349,-0.0626 -1.0309,0.3137z"/>
   <path id="_374422360" class="fil0" d="M8.3321 11.0189l-0.1831 0.085c0.0865,0.0599 0.0841,0.0457 0.2302,0.062 0.01,0.1044 0.0089,0.1925 0.0077,0.2973 -0.0024,0.2 -0.0254,0.1333 0.0902,0.2709 0.0715,-0.0768 0.0232,0.1017 0.0577,-0.1106l0.0064 -0.4603 0.231 -0.0078c-0.0239,-0.1877 0.0735,-0.136 -0.1811,-0.1393 -0.0556,-0.0428 -0.0907,-0.0808 -0.1027,-0.1752 -0.0021,-0.0169 -0.0063,-0.0218 -0.0113,-0.032 -0.1614,0.2488 -0.0262,0.1195 -0.145,0.21z"/>
   <path id="_374422552" class="fil1" d="M6.6168 3.2015c0.4223,-0.0214 0.9125,-0.4298 0.9791,-0.7792 -0.1396,0.15 -0.27,0.291 -0.4681,0.3994 -0.3337,0.1827 -0.357,0.0461 -0.511,0.3798z"/>
   <path id="_374423008" class="fil0" d="M8.0407 5.575c0.1284,0.0459 0.0902,-0.0086 0.2029,0.0286 0.0804,0.0265 0.1119,0.0727 0.2337,0.0743 0.1139,0.0015 0.3277,-0.1075 0.4384,-0.1527 -0.1947,-0.2147 -0.2432,0.0072 -0.4384,0.0066 -0.1378,-0.0006 -0.406,-0.2228 -0.4366,0.0432z"/>
   <path id="_374423104" class="fil1" d="M8.8835 6.3355c-0.0917,-0.0659 0.1122,-0.0546 -0.1491,-0.0405 -0.3959,0.0212 -0.1971,0.0244 -0.6596,-0.0149 0.177,0.3159 0.5625,0.2142 0.8087,0.0554z"/>
   <path id="_374423320" class="fil0" d="M6.949 3.4897c0.3837,0.0146 0.3853,-0.0055 0.7652,0.058 0.1305,0.0218 0.0719,0.0254 0.2108,-0.0149 -0.1389,-0.0935 -0.2593,-0.1489 -0.442,-0.1666 -0.1118,-0.0108 -0.2047,-0.0086 -0.3148,0.0162l-0.2192 0.1073z"/>
   <path id="_374424136" class="fil1" d="M6.8862 2.7659c0.2588,-0.0708 0.5479,-0.3186 0.6299,-0.5357 -0.1942,0.0903 -0.5122,0.3287 -0.6299,0.5357z"/>
   <path id="_374423968" class="fil1" d="M9.5611 4.3348l0.0011 -0.1728c-0.2777,-0.0484 -0.2853,0.23 -0.0011,0.1728z"/>
   <path id="_374425096" class="fil1" d="M7.5643 4.1669c-0.2816,-0.057 -0.2699,0.2253 0,0.1651l0 -0.1651z"/>
   <path id="_374425408" class="fil2" d="M8.3321 11.0189c0.1188,-0.0905 -0.0164,0.0388 0.145,-0.21 0.005,0.0102 0.0092,0.0151 0.0113,0.032 0.012,0.0944 0.0471,0.1324 0.1027,0.1752 -0.0637,-0.2104 0.0286,-0.1934 -0.1538,-0.2488 -0.1174,0.101 -0.0476,0.0705 -0.1052,0.2516z"/>
   <path id="_374424880" class="fil0" d="M10.0895 8.6732c0.0183,0.1568 0.0421,0.1574 0.1788,0.0864l0.0011 -0.0967c-0.0916,-0.0482 -0.0644,-0.0783 -0.1799,0.0103z"/>
   <path id="_374424760" class="fil0" d="M7.4643 9.4303c-0.0416,-0.0702 0.0579,-0.0963 -0.1014,-0.0825 -0.114,0.0099 -0.1025,0.1568 -0.0017,0.1602 0.1614,0.0055 0.0576,-0.0086 0.1031,-0.0777z"/>
   <path id="_374424736" class="fil0" d="M9.6124 9.3904c-0.0024,-0.0014 0.0162,-0.1063 -0.1283,-0.033 -0.0944,0.0478 -0.0353,0.1829 0.0621,0.1479 0.1062,-0.038 0.0359,0.0353 0.0662,-0.1149z"/>
   <path id="_374425024" class="fil0" d="M8.3667 10.5859l-0.0043 0.0858c0.1413,0.0692 0.1569,0.0718 0.1781,-0.0858 -0.1103,-0.0855 -0.0685,-0.0771 -0.1738,0z"/>
   <path id="_374426056" class="fil0" d="M8.8159 10.2091c0.1845,0.0346 0.1491,0.0271 0.1446,-0.1453 -0.1374,0.0004 -0.1988,-0.0326 -0.1446,0.1453z"/>
   <path id="_374425672" class="fil0" d="M7.7449 9.9598c0.0032,0.0012 0.0419,0.0801 0.113,0.0064 0.066,-0.0684 0.028,-0.0536 0.0279,-0.1415 -0.134,0.0006 -0.2209,-0.0184 -0.1409,0.1351z"/>
   <path id="_374426128" class="fil0" d="M9.6509 9.1608c0.0379,0.1546 0.1481,0.1917 0.1809,-0.0094 -0.0822,-0.0555 -0.107,-0.1015 -0.1809,0.0094z"/>
   <path id="_374425504" class="fil0" d="M8.5752 10.3568c0.0375,0.1526 0.1443,0.1907 0.181,-0.01 -0.0866,-0.0586 -0.1097,-0.1018 -0.181,0.01z"/>
   <path id="_374426176" class="fil0" d="M10.0558 8.922c-0.0807,-0.0764 0.0073,-0.0716 -0.1723,-0.0397 -0.0087,0.2282 0.1282,0.2073 0.1723,0.0397z"/>
   <path id="_374425576" class="fil0" d="M6.8736 8.9076c-0.0374,0.1554 0.1194,0.2315 0.169,-0.0051 -0.0551,-0.0294 0.0168,-0.0374 -0.0812,-0.0285 -0.0733,0.0067 -0.0509,0.012 -0.0878,0.0336z"/>
   <path id="_374425840" class="fil0" d="M8.1641 10.4529c0.1772,0.0183 0.1574,0.0236 0.1517,-0.1491l-0.16 0.0056 0.0083 0.1435z"/>
   <path id="_374426704" class="fil0" d="M9.2458 9.7359c0.1734,0.018 0.1518,0.0223 0.148,-0.148l-0.1197 -0.0035c-0.05,0.0805 -0.0608,-0.0018 -0.0283,0.1515z"/>
   <path id="_374426656" class="fil0" d="M6.8079 8.6328c-0.3974,-0.0098 0.0064,0.3921 0,0z"/>
   <path id="_374426320" class="fil0" d="M7.2393 9.115l-0.155 -0.0018c-0.01,0.2432 0.1622,0.236 0.155,0.0018z"/>
   <path id="_374426680" class="fil0" d="M7.5076 9.6295c0.0157,0.0749 -0.0809,0.1 0.1479,0.092 0.0024,-0.0073 0.0717,-0.0464 -0.0004,-0.1111 -0.1124,-0.1007 -0.1464,0.0184 -0.1475,0.0191z"/>
   <path id="_374426968" class="fil1" d="M10.1734 2.9863l-1.384 -0.9626c0.1493,0.1242 0.4197,0.2189 0.6829,0.474 0.138,0.1338 0.4507,0.4222 0.7011,0.4886z"/>
   <path id="_374426224" class="fil0" d="M9.0257 9.8643l0.1449 -0.0043c-0.0101,-0.0056 -0.0248,-0.0289 -0.0298,-0.0174 -0.0046,0.0104 -0.0235,-0.0112 -0.0295,-0.0105 -0.077,0.008 -0.0429,0.0057 -0.0856,0.0322z"/>
   <path id="_374427712" class="fil0" d="M7.9498 10.1034l0.0857 -0.0324c-0.0757,0.0082 -0.0442,0.0067 -0.0857,0.0324z"/>
  </g>
 </g>
</svg>
