<?xml version="1.0" encoding="UTF-8"?>
<!DOCTYPE svg PUBLIC "-//W3C//DTD SVG 1.1//EN" "http://www.w3.org/Graphics/SVG/1.1/DTD/svg11.dtd">
<!-- Creator: CorelDRAW -->
<svg xmlns="http://www.w3.org/2000/svg" xml:space="preserve" width="16.9332mm" height="16.9332mm" style="shape-rendering:geometricPrecision; text-rendering:geometricPrecision; image-rendering:optimizeQuality; fill-rule:evenodd; clip-rule:evenodd"
viewBox="0 0 16.9332 16.9332"
 xmlns:xlink="http://www.w3.org/1999/xlink">
 <defs>
  <style type="text/css">
   <![CDATA[
    .fil0 {fill:black}
    .fil3 {fill:#727272}
    .fil2 {fill:#909091}
    .fil1 {fill:#F3F3F5}
   ]]>
  </style>
 </defs>
 <g id="Capa_x0020_1">
  <metadata id="CorelCorpID_0Corel-Layer"/>
  <g id="_408405616">
   <path id="_408339512" class="fil0" d="M6.8246 7.187c-0.6719,0.1502 -1.19,0.2439 -1.8552,-0.0181 -1.272,-0.501 -1.4401,-1.7657 -1.0276,-2.7737 0.2455,-0.5998 0.5913,-0.5632 0.6619,-0.8755 0.1561,-0.6902 0.3921,-1.0829 1.2191,-1.376 0.2105,-0.0747 0.7828,-0.1158 0.8699,-0.1696 0.0521,-0.0321 0.1879,-0.1623 0.2842,-0.23 1.2575,-0.8855 2.6162,-0.1609 2.9781,-0.285 0.2841,-0.0975 0.5722,-0.1424 0.9055,-0.0882 1.4768,0.2404 1.7757,1.1694 1.8928,1.2803 0.0858,0.0812 0.2428,0.1254 0.3366,0.1819 1.007,0.6077 1.4024,2.1685 0.7279,3.2767 -0.1907,0.3132 0.0516,0.8623 -0.5461,1.5225 -0.2213,0.2444 -0.9104,0.6496 -1.2197,0.8382 -1.8111,1.1044 -2.7837,-0.2942 -2.9557,-0.3476l-1.4676 -0.0284c-0.2503,-0.0466 -0.5767,-0.3554 -0.687,-0.6036l-0.1171 -0.3039zm-3.6539 2.4925c0.0356,0.6102 0.1146,2.1659 0.3082,2.6291 0.3041,0.7275 1.1363,0.968 2.1631,0.8872 1.1867,-0.0933 0.9781,-0.1944 1.4796,1.4289l0.7139 2.3086 6.2723 -2.1876c-0.3922,-0.9369 -1.3906,-3.0326 -1.2921,-4.2155 0.1275,-1.53 1.2699,-1.2946 2.2917,-3.2744 0.7101,-1.3761 0.5178,-3.1541 -0.2505,-4.3574 -0.6447,-1.0097 -1.7673,-1.9752 -3.194,-2.4604 -3.4711,-1.1803 -6.8261,0.1768 -8.1887,2.2583 -0.3904,0.5962 -0.6472,1.1494 -0.7567,1.9819 -0.2085,1.5844 0.4185,1.3089 -0.23,2.2933 -2.2473,3.4116 -0.5664,2.3932 0.6832,2.708z"/>
   <path id="_375507632" class="fil1" d="M7.3735 3.6687l2.4992 0.8601c0.8277,0.2989 1.7811,0.4664 2.0462,1.2189 0.5389,1.5293 -1.6257,2.3951 -2.4403,1.1606 -0.3488,-0.5287 -0.1854,-0.7561 -0.1104,-1.3029 -0.3388,-0.1234 -2.2419,-0.7769 -2.395,-0.8808l0.4003 -1.0559zm3.2017 0.4467l0.0781 -0.2297 0.1061 0.0546 0.1408 0.0342c-0.0426,0.1514 -0.1237,0.4326 -0.2312,0.5422l-0.1873 -0.0432 0.0935 -0.3581zm-3.8817 0.5146c-0.3786,-0.0513 -0.7532,-0.3728 -0.5698,-0.8255 0.1757,-0.4337 0.5811,-0.3623 0.9829,-0.2586l-0.4131 1.0841zm2.6963 -1.1613l0.2344 0.056c-0.0405,0.1926 -0.1196,0.4132 -0.2221,0.5419l-0.2154 -0.0442 0.2031 -0.5537zm0.792 -0.182l0.2363 0.0635 -0.3552 0.953 -0.2394 -0.0724 0.3583 -0.9441zm-1.9775 0.2435l-0.0586 0.1149 -0.0861 -0.0586 -0.1441 -0.0264 0.2012 -0.5461 0.2239 0.0618 -0.1363 0.4544zm0.6988 -0.6894l0.2331 0.0622c-0.0444,0.1838 -0.2925,0.8431 -0.3894,0.9399l-0.2096 -0.053 0.3659 -0.9491zm-2.0039 0.2371l-0.0659 0.1085 -0.0829 -0.0606 -0.1419 -0.0274 0.2002 -0.5428 0.2222 0.0598 -0.1317 0.4625zm0.3747 0.1904c0.0009,-0.1213 -0.0189,-0.0199 0.049,-0.1864 0.0777,-0.1907 0.213,-0.5723 0.288,-0.6936l0.217 0.0535 -0.2657 0.7317c-0.0497,0.1304 -0.0358,0.1331 -0.126,0.2117l-0.1522 -0.0498 -0.0101 -0.0671zm-0.4493 3.9187l0.1171 0.3039c0.1103,0.2482 0.4367,0.557 0.687,0.6036l1.4676 0.0284c0.172,0.0534 1.1446,1.452 2.9557,0.3476 0.3093,-0.1886 0.9984,-0.5938 1.2197,-0.8382 0.5977,-0.6602 0.3554,-1.2093 0.5461,-1.5225 0.6745,-1.1082 0.2791,-2.669 -0.7279,-3.2767 -0.0938,-0.0565 -0.2508,-0.1007 -0.3366,-0.1819 -0.1171,-0.1109 -0.416,-1.0399 -1.8928,-1.2803 -0.3333,-0.0542 -0.6214,-0.0093 -0.9055,0.0882 -0.3619,0.1241 -1.7206,-0.6005 -2.9781,0.285 -0.0963,0.0677 -0.2321,0.1979 -0.2842,0.23 -0.0871,0.0538 -0.6594,0.0949 -0.8699,0.1696 -0.827,0.2931 -1.063,0.6858 -1.2191,1.376 -0.0706,0.3123 -0.4164,0.2757 -0.6619,0.8755 -0.4125,1.008 -0.2444,2.2727 1.0276,2.7737 0.6652,0.262 1.1833,0.1683 1.8552,0.0181z"/>
   <path id="_89974456" class="fil0" d="M6.9732 4.7246c0.1531,0.1039 2.0562,0.7574 2.395,0.8808 -0.075,0.5468 -0.2384,0.7742 0.1104,1.3029 0.8146,1.2345 2.9792,0.3687 2.4403,-1.1606 -0.2651,-0.7525 -1.2185,-0.92 -2.0462,-1.2189l-2.4992 -0.8601 -0.4003 1.0559z"/>
   <path id="_377719120" class="fil0" d="M6.6935 4.63l0.4131 -1.0841c-0.4018,-0.1037 -0.8072,-0.1751 -0.9829,0.2586 -0.1834,0.4527 0.1912,0.7742 0.5698,0.8255z"/>
   <path id="_377718832" class="fil0" d="M8.5372 3.7899l0.2096 0.053c0.0969,-0.0968 0.345,-0.7561 0.3894,-0.9399l-0.2331 -0.0622 -0.3659 0.9491z"/>
   <polygon id="_377718760" class="fil0" points="9.8235,4.2308 10.0629,4.3032 10.4181,3.3502 10.1818,3.2867 "/>
   <path id="_373389256" class="fil0" d="M7.284 3.3354l0.1522 0.0498c0.0902,-0.0786 0.0763,-0.0813 0.126,-0.2117l0.2657 -0.7317 -0.217 -0.0535c-0.075,0.1213 -0.2103,0.5029 -0.288,0.6936 -0.0679,0.1665 -0.0481,0.0651 -0.049,0.1864l0.0101 0.0671z"/>
   <path id="_373389400" class="fil0" d="M9.1867 4.0224l0.2154 0.0442c0.1025,-0.1287 0.1816,-0.3493 0.2221,-0.5419l-0.2344 -0.056 -0.2031 0.5537z"/>
   <path id="_409031512" class="fil0" d="M10.5752 4.1154l-0.0935 0.3581 0.1873 0.0432c0.1075,-0.1096 0.1886,-0.3908 0.2312,-0.5422l-0.1408 -0.0342c-0.1128,0.0187 -0.0415,-0.011 -0.1089,0.0609l-0.0753 0.1142z"/>
   <path id="_373298880" class="fil0" d="M6.7504 3.1258c0.1293,-0.0143 0.0237,0.0177 0.1488,-0.0479l0.1317 -0.4625 -0.2222 -0.0598 -0.2002 0.5428 0.1419 0.0274z"/>
   <path id="_377712744" class="fil0" d="M8.0596 3.5865c0.1387,-0.0211 -0.0027,0.0348 0.1447,-0.0563l0.1363 -0.4544 -0.2239 -0.0618 -0.2012 0.5461 0.1441 0.0264z"/>
   <path id="_89974736" class="fil2" d="M10.5752 4.1154l0.0753 -0.1142c0.0674,-0.0719 -0.0039,-0.0422 0.1089,-0.0609l-0.1061 -0.0546 -0.0781 0.2297z"/>
   <path id="_412578664" class="fil3" d="M8.0596 3.5865l0.0861 0.0586 0.0586 -0.1149c-0.1474,0.0911 -0.006,0.0352 -0.1447,0.0563z"/>
   <path id="_408405496" class="fil3" d="M6.7504 3.1258l0.0829 0.0606 0.0659 -0.1085c-0.1251,0.0656 -0.0195,0.0336 -0.1488,0.0479z"/>
  </g>
 </g>
</svg>
