<?xml version="1.0" encoding="UTF-8"?>
<!DOCTYPE svg PUBLIC "-//W3C//DTD SVG 1.1//EN" "http://www.w3.org/Graphics/SVG/1.1/DTD/svg11.dtd">
<!-- Creator: CorelDRAW -->
<svg xmlns="http://www.w3.org/2000/svg" xml:space="preserve" width="16.9332mm" height="16.9332mm" style="shape-rendering:geometricPrecision; text-rendering:geometricPrecision; image-rendering:optimizeQuality; fill-rule:evenodd; clip-rule:evenodd"
viewBox="0 0 16.9332 16.9332"
 xmlns:xlink="http://www.w3.org/1999/xlink">
 <defs>
  <style type="text/css">
   <![CDATA[
    .fil39 {fill:#060606}
    .fil84 {fill:#080808}
    .fil14 {fill:#0B0B0B}
    .fil41 {fill:#0D0D0D}
    .fil2 {fill:#0E0E0E}
    .fil3 {fill:#101010}
    .fil26 {fill:#111111}
    .fil11 {fill:#121212}
    .fil16 {fill:#131313}
    .fil9 {fill:#141414}
    .fil17 {fill:#151515}
    .fil6 {fill:#161616}
    .fil7 {fill:#171717}
    .fil12 {fill:#191919}
    .fil47 {fill:#1B1B1B}
    .fil18 {fill:#1C1C1C}
    .fil46 {fill:#1D1D1D}
    .fil1 {fill:#1E1E1E}
    .fil57 {fill:#1F1F1F}
    .fil20 {fill:#222222}
    .fil35 {fill:#252525}
    .fil54 {fill:#262626}
    .fil30 {fill:#272727}
    .fil21 {fill:#2A2A2A}
    .fil90 {fill:#2C2C2C}
    .fil67 {fill:#353535}
    .fil88 {fill:#373737}
    .fil27 {fill:#3C3C3C}
    .fil64 {fill:#454545}
    .fil24 {fill:#474747}
    .fil45 {fill:#484848}
    .fil61 {fill:#494949}
    .fil44 {fill:#4A4A4A}
    .fil62 {fill:#4F4F4F}
    .fil79 {fill:#515151}
    .fil42 {fill:#525252}
    .fil31 {fill:#555555}
    .fil48 {fill:#585858}
    .fil29 {fill:#5A5A5A}
    .fil25 {fill:#5C5C5C}
    .fil50 {fill:#5D5D5D}
    .fil53 {fill:#5F5F5F}
    .fil59 {fill:#636363}
    .fil36 {fill:#666666}
    .fil70 {fill:dimgray}
    .fil55 {fill:#6E6E6E}
    .fil83 {fill:#6F6F6F}
    .fil72 {fill:#717171}
    .fil81 {fill:#747474}
    .fil80 {fill:#757575}
    .fil10 {fill:#777777}
    .fil8 {fill:#787878}
    .fil52 {fill:#797979}
    .fil66 {fill:#7B7B7B}
    .fil75 {fill:#7D7D7D}
    .fil69 {fill:gray}
    .fil15 {fill:#818181}
    .fil49 {fill:#828282}
    .fil65 {fill:#838383}
    .fil23 {fill:#868686}
    .fil82 {fill:#878787}
    .fil71 {fill:#898989}
    .fil73 {fill:#8A8A8A}
    .fil56 {fill:#8B8B8B}
    .fil78 {fill:#8D8D8D}
    .fil86 {fill:#8E8E8E}
    .fil22 {fill:#909090}
    .fil60 {fill:#919191}
    .fil68 {fill:#929292}
    .fil63 {fill:#949494}
    .fil38 {fill:#959595}
    .fil19 {fill:#989898}
    .fil58 {fill:#9A9A9A}
    .fil33 {fill:#9C9C9C}
    .fil43 {fill:#9E9E9E}
    .fil89 {fill:#A4A4A4}
    .fil40 {fill:#A5A5A5}
    .fil85 {fill:darkgray}
    .fil37 {fill:#ACACAC}
    .fil87 {fill:#ADADAD}
    .fil34 {fill:#B6B6B6}
    .fil77 {fill:#C2C2C2}
    .fil32 {fill:#C7C7C7}
    .fil76 {fill:#C8C8C8}
    .fil74 {fill:#D5D5D5}
    .fil51 {fill:#D7D7D7}
    .fil28 {fill:#F3F3F3}
    .fil13 {fill:#F7F7F7}
    .fil5 {fill:#F9F9F9}
    .fil4 {fill:#FAFAFA}
    .fil0 {fill:#FCFCFC}
   ]]>
  </style>
 </defs>
 <g id="Capa_x0020_1">
  <metadata id="CorelCorpID_0Corel-Layer"/>
  <path class="fil0" d="M15.6583 14.5927c0.0988,0.217 0.019,0.102 0,0.1526 -0.083,-0.0567 -0.0755,0.064 -0.0657,-0.0923 0.0068,-0.1076 0.0319,-0.0367 0.0657,-0.0603zm-1.2133 1.1603l-0.059 0.1122c-0.1563,0.011 -0.0521,0.0208 -0.0943,-0.0737 0.0116,-0.1223 0.6605,-1.4618 0.6782,-1.5323 0.0499,-0.1994 -0.2905,-1.2019 -0.3374,-1.2983 -0.0897,-0.1844 -0.1607,-0.1429 -0.1821,-0.3687 0.1463,0.2532 0.5638,0.8751 0.599,1.1553 0.0237,0.189 0.0647,0.3471 0.0589,0.5302 -0.007,0.0278 -0.6415,1.26 -0.6633,1.4753zm-0.0823 -3.4185c0.0673,0.0683 0.0762,-0.0924 0.0593,0.1319 -0.2072,-0.0025 -0.0723,0.003 -0.1298,-0.0603 -0.0807,-0.0433 -0.1226,-0.0557 -0.204,-0.0812 -0.1957,-0.0613 -0.1274,0.0146 -0.1852,-0.1203 0.1483,-0.0834 0.3619,0.0633 0.4597,0.1299zm0.358 -3.7477c-0.0427,0.0269 0.054,0.053 -0.1774,0.0636l0.0129 0.1408 0.102 0.282 0.0822 0.1858 0.0804 -0.0392c0.201,-0.1075 0.4706,-0.3226 0.6987,-0.465 0.1408,-0.0879 0.2374,-0.1331 0.3695,-0.2025 0.1055,-0.0554 0.1883,-0.1335 0.3004,-0.1346 0.1934,-0.002 0.0049,-0.0147 0.0989,0.0377l-0.8048 0.444 -0.7052 0.5165 0.0033 0.2272 0.9277 -0.5037c0.0893,-0.1087 0.1367,-0.1138 0.2868,-0.1753 0.3576,-0.1465 0.2505,-0.0409 0.2808,-0.0235l-0.504 0.2352c-0.1523,0.0992 -0.3289,0.164 -0.4861,0.2758l-0.421 0.327 0.1028 0.3248 1.0167 -0.2813c0.1547,-0.091 0.2103,-0.1087 0.3152,-0.0435l-0.2935 0.1465c-0.1988,0.0413 -0.4435,0.1341 -0.6179,0.2063 -0.1642,0.0679 -0.4002,0.1496 -0.5663,0.2205 -0.1801,0.0767 -0.3532,0.1632 -0.5395,0.2517 -0.1943,0.0922 -0.4177,0.1396 -0.5855,0.2126 -0.1551,0.0676 -0.288,0.2468 -0.4441,0.3523 -0.1705,0.1151 -0.3106,0.2201 -0.4588,0.3353l-0.8758 0.6856c-0.1816,0.2447 -0.3767,0.2869 -0.4233,0.4487 0.2149,-0.0999 1.6173,-0.3601 1.9269,-0.4017 -0.349,0.2811 -0.3049,0.1498 -0.9262,0.2972 -0.2902,0.0689 -0.6631,0.1372 -0.9457,0.1938 -0.2004,0.0402 -1.5278,0.46 -1.6256,0.6681 0.2376,0.108 1.9305,0.901 2.1212,0.9593 0.1625,0.0497 0.1954,0.0212 0.2967,0.1449 -0.3097,-0.1114 -2.3303,-0.8556 -2.6511,-0.9247 -0.1386,-0.0299 -0.1033,-0.0036 -0.2052,-0.0109l-0.074 -0.0093c-0.2204,-0.0312 -0.8491,0.0931 -1.0295,0.1936l0.6445 0.6338c0.4996,0.4447 0.6677,0.3244 0.7141,0.5559l-0.8973 -0.4627c-0.9125,-0.6168 -0.6466,-0.8685 -2.6417,-0.6532 -0.2198,0.0237 -0.3922,0.0356 -0.381,0.2296 -0.2722,0.1659 -1.1482,1.3948 -1.5145,1.4709l1.1638 -1.2533 -0.0405 -0.0464 -0.8432 0.7168c-0.2146,0.1962 -0.5808,0.5257 -0.8752,0.682 -0.0746,0.0738 0.0859,0.0589 -0.1583,0.0815 0.0311,-0.2001 0.0217,-0.0993 0.08,-0.1482 0.0566,-0.0903 0.4055,-0.3196 0.5121,-0.3956 0.4265,-0.3041 0.9825,-0.9445 1.5427,-1.2521 0.1103,-0.0973 0.3507,-0.2534 0.4903,-0.4237 -0.4802,-0.3646 -0.4135,-0.3941 -0.7411,-0.4499 -0.2252,-0.0384 -0.0682,-0.0003 -0.2774,0.0066l-0.0839 -0.1299c-0.8233,-0.065 -0.8816,-0.0944 -1.6221,-0.1851 -0.8566,-0.1049 -1.0323,-0.0889 -1.4872,0.2565l-1.4868 1.2028c-0.1379,0.1185 -0.3446,0.3259 -0.4807,0.4002l0 1.8441c0.0676,0.0865 0.0562,0.0863 0.0882,0.2181l0.6394 -0.0112c0.0219,-0.1787 -0.051,-0.4637 -0.026,-0.7246 0.0103,-0.1071 0.0255,-0.2326 0.0369,-0.3555 0.0178,-0.1929 0.0049,-0.1333 0.0996,-0.318 0.0398,0.0663 0.0817,-0.1215 0.0209,0.2989 -0.0363,0.2512 -0.0366,0.5163 -0.0244,0.7722 0.0243,0.5084 0.4034,0.3447 1.6796,0.3472 3.8525,0.0076 7.5616,0.0014 11.4202,-0.051 0.3292,-0.3804 0.7218,-0.7406 1.0729,-1.126 0.4531,-0.4974 0.643,-0.6855 1.1515,-1.0824 -0.0498,0.2292 -1.328,1.3912 -1.5482,1.6564 -0.2282,0.2747 -0.2786,0.2547 -0.5006,0.5593l0.2251 0.0001c0.386,-0.3265 0.6971,-0.5593 1.094,-0.8443 0.3105,-0.2228 0.8784,-0.6411 1.2306,-0.809 -0.057,0.1918 -0.323,0.3501 -0.5188,0.4598 -0.4759,0.2666 -1.1702,0.8426 -1.5952,1.2005l2.2241 -0.0208 -0.0405 -8.4077 -0.0113 -0.0245c-0.2123,-0.0631 -0.1533,-0.0949 -0.3956,-0.1102 -0.1566,-0.0099 -0.3286,0.0006 -0.4874,0.0012 -0.136,0.1161 -0.872,0.4582 -1.1142,0.5293z"/>
  <path class="fil0" d="M8.6746 11.6949c-0.2285,0.0161 -0.4394,0.1034 -0.6065,0.1859 0,0.1166 -0.1133,0.0135 -0.2619,0.0307 -0.087,0.1223 -0.0004,0.0331 -0.0888,0.0547 -0.0406,0.0694 0.0565,0.0611 -0.0868,0.0541 -0.0961,-0.0808 0.012,-0.0277 -0.1585,-0.0405 -0.0395,0.1421 -0.0964,0.1025 -0.2809,0.1375l-0.0129 0.0686c-0.094,0.0425 -0.0459,0.038 -0.1693,0.0154l0.0484 -0.1673c0.1601,-0.052 0.3267,-0.1871 0.4878,-0.2434 0.1548,-0.2138 0.8797,-0.5512 1.1133,-0.4296l0.1057 0.0651 0.1014 0.0938c0.261,-0.0159 0.2545,-0.0397 0.3472,0.0409l0.185 0.0704c-0.0465,0.0376 0.0843,0.1209 -0.2443,0.0273 -0.1527,-0.0435 -0.1513,-0.0393 -0.3146,-0.055 -0.0746,0.0831 -0.0079,0.0274 -0.1643,0.0914zm-2.8999 -1.4752l0.3137 0.5765c-0.1348,-0.0436 -0.0695,-0.007 -0.1763,-0.1367l-0.4653 -0.5558c0.3365,-0.078 -0.0883,0.1496 0.6434,-0.2029 -0.1119,0.2137 -0.1932,0.12 -0.3155,0.3189zm1.2825 -1.093c0.1544,0.0836 0.1062,0.0665 0,0.1357 -0.0621,-0.0989 -0.0549,-0.0376 0,-0.1357zm0.8274 1.4495l-0.0063 -0.1146c-0.0798,-0.0266 -0.2217,-0.2117 -0.3175,-0.3058 -0.1155,-0.1136 -0.1495,-0.2527 -0.3329,-0.2892l-0.2943 -0.0867c-0.0089,-0.078 -0.0231,-0.14 -0.0093,-0.2234 0.0365,-0.2209 -0.0251,-0.072 0.0674,-0.1302l0.0614 -0.0436 0.0165 0.2421 0.3308 0.1387c0.1085,0.0343 0.0614,0.0462 0.093,-0.035l-0.2271 -0.3248c0.1479,0.0489 0.1555,0.07 0.3431,0.3086 0.0988,0.1257 0.1472,0.2433 0.2239,0.3699l0.1061 0.1628c0.2597,0.0615 0.0628,0.0207 0.1404,-0.0359 -0.0705,-0.0683 -0.0361,0.0902 -0.0632,-0.0922l0.4734 -0.4044c0.37,-0.4106 0.1622,-0.4484 0.4154,-0.4647l-0.2752 0.4299c0.0832,-0.0441 0.063,-0.0504 0.0431,0.041l0.2969 -0.2929 -0.0509 -0.3865c0.1558,0.0286 0.1173,-0.0394 0.1616,0.4747 -0.2469,0.1001 -0.0608,0.0201 -0.2026,0.1917 -0.0813,0.0982 -0.1162,0.0782 -0.2039,0.1909l-0.315 0.5095c0.9784,-0.2342 0.9859,-0.3842 1.6987,-0.9364l0.4728 -0.3819c0.0019,0.1965 -0.1818,0.3124 -0.3166,0.4067 -0.9902,0.693 -0.1864,0.3901 -1.3956,0.9004 -1.1516,0.4859 -1.5577,0.364 -2.4437,0.0013 0.1346,-0.0865 0.5076,0.0708 0.6536,0.124 0.2812,0.1025 0.5456,0.0503 0.856,0.056zm2.2449 -1.6624c-0.0593,0.0753 0.0646,0.0256 -0.116,0.0741 -0.2816,0.0758 -0.3213,-0.0423 -0.3558,-0.0914 0.1825,-0.0875 0.0919,-0.0622 0.3162,-0.0578 0.4298,-0.0001 0.6596,-0.3352 1.1329,-0.1154 -0.018,0.4758 -0.0174,0.231 -0.1439,0.5988 -0.0775,0.2254 -0.132,0.3351 -0.2188,0.5191 -0.1592,0.1915 -0.0538,0.1797 -0.2217,0.2602l0.1337 -0.3467c0.0032,-0.0165 0.0154,-0.0182 0.0232,-0.0273l0.1694 -0.6516 -0.2973 -0.2725 -0.4219 0.1105zm2.3479 0.036c-0.0327,-0.0568 -0.0815,-0.033 -0.0066,-0.2851 0.1195,-0.4021 0.1065,-0.6536 0.1881,-0.8632 0.1671,0.3347 -0.104,0.7003 -0.082,1.0447 0.4805,-0.6097 0.1179,-0.3164 0.3352,-0.7928 0.1049,0.3474 -0.0005,1.1027 -0.4347,0.8964zm-4.9815 -0.9643c0.0993,0.0448 0.0278,-0.0193 0.1179,0.089 0.1082,0.1302 0.4082,0.8854 0.1933,1.052l-0.3931 -1.0614 -0.1489 0.0131c-0.1167,-0.0004 -0.0249,0.0046 -0.0788,-0.0198 0.1066,-0.0967 0.2155,-0.2217 0.3096,-0.0729zm0.6199 0.5902c-0.1066,-0.1424 0.2506,-0.8767 0.5495,-0.9241 -0.155,0.2623 -0.0699,0.1053 -0.1771,0.2439 -0.0448,0.0577 -0.109,0.1482 -0.1489,0.2104 -0.1039,0.1622 -0.0782,0.3502 -0.2235,0.4698zm-0.2408 -0.3603c-0.1884,-0.1128 -0.1265,-0.1627 -0.2556,-0.3222 -0.0869,-0.1073 -0.1783,-0.1617 -0.1955,-0.3011 0.2675,-0.0095 0.4009,0.3932 0.4511,0.6233zm0.4447 -0.4769l-0.1412 0.2973c-0.0567,-0.175 -0.0678,-0.1298 0.1,-0.3674 0.0569,-0.1112 0.1125,-0.1958 0.2503,-0.2513 0.0495,-0.0495 -0.0968,-0.0637 0.0976,-0.0406 0.0282,0.1968 0.016,0.0896 -0.1186,0.1893 -0.0746,0.0551 -0.1228,0.118 -0.1881,0.1727zm-0.8021 -0.474c0.1055,-0.0522 0.0445,-0.0368 0.1991,-0.0322 0.421,0.0125 0.2605,-0.0316 0.4151,-0.0485 0.2607,-0.0283 0.0289,-0.0254 0.1268,0.0366l-0.3625 0.1377c-0.4136,0.1039 -0.3751,-0.0876 -0.3785,-0.0936zm6.3185 -0.4417c-0.047,0.1674 -0.1105,0.2148 -0.2551,0.2606 -0.037,0.0948 0.0634,0.0139 -0.0693,0.1119 -0.0801,0.0592 -0.0148,0.027 -0.1265,0.0391l-0.0703 0.0272c-0.0423,0.0529 -0.0779,0.0962 -0.1273,0.1357 -0.1093,0.0873 -0.0425,0.0393 -0.1647,0.0878 -0.092,0.0749 -0.2748,0.1604 -0.401,0.1589 -0.1688,0.2044 -0.6141,0.231 -0.8449,0.2628 -0.0625,0.0696 -1.0642,0.1277 -1.306,0.0877 -0.2838,-0.0469 -0.3497,-0.0677 -0.5996,-0.1376 -0.1564,-0.0437 -0.4682,-0.1894 -0.5174,-0.1957 -0.0992,-0.0515 -0.1501,-0.0972 -0.2237,-0.1501l-0.0518 0.0507c-0.1556,0.1156 0.1625,-0.0616 -0.0555,0.0418 -0.1323,0.0628 -0.0374,0.0224 -0.161,0.017l0.0435 -0.1166 -0.0136 -0.0168c-0.0561,-0.1617 -0.0062,-0.165 -0.103,-0.3911l-0.102 -0.1406 -0.1749 -0.0918c-0.1108,0.2138 0.147,-0.1398 -0.0948,0.0593l-0.0927 0.0364c-0.0183,0.0125 -0.0428,0.0396 -0.1101,0.0643 -0.1864,0.0686 -0.5468,0.0447 -0.7319,0.0356l0.0156 -0.0058c-0.0562,0.1583 -0.3604,0.6125 -0.5283,0.6475 -0.7677,0.496 -1.3684,0.6537 -2.5152,0.5865 -0.5784,-0.1576 -0.4538,0.0351 -1.2197,-0.4187 -0.0149,-0.0088 -0.7431,-0.5885 -0.8093,-0.7009 -0.098,0.0429 -0.0695,-0.0863 -0.0727,0.0993 0.0184,0.1562 0.3067,0.6445 0.3877,0.8766 0.1638,0.4694 0.1153,0.4192 0.3461,0.9736 0.3133,0.7523 0.4259,1.1341 0.6978,1.9091 0.2312,0.6586 0.5049,0.5818 1.2696,1.3299 0.2078,0.2032 0.4796,0.3919 0.7305,0.5914l0.6551 0.6488c0.2797,-0.0014 0.5569,-0.0516 0.8803,-0.0205 1.3912,0.1338 0.5958,0.0651 1.1554,-0.0198l0.8298 -0.149c0.2782,-0.0202 0.1953,0.0209 0.3918,-0.1037 0.1842,-0.1169 0.5178,-0.2067 0.6367,-0.2943l1.2655 -1.0701c0.3227,-0.3917 0.3307,-0.1518 0.6534,-0.7587 0.4643,-0.8732 0.5181,-1.0391 0.8853,-1.9417 0.1298,-0.319 1.0752,-2.4772 1.07,-2.6813 0.0479,-0.1202 0.1073,-0.1407 -0.0439,-0.1303 -0.0523,0.1599 -0.242,0.2738 -0.3279,0.3956z"/>
  <path class="fil0" d="M7.9281 3.7868c0.0512,-0.0871 -0.0933,-0.0735 0.0995,-0.0716 0.0842,0.1327 0.1209,0.0419 0,0.1896 -0.153,-0.012 -0.0159,0.016 -0.0815,-0.0767l-0.018 -0.0413zm-0.8967 -0.2146c0.2003,0.0598 0.3823,0.4052 0.4909,0.5764 -0.1747,-0.0795 -0.1711,-0.1331 -0.2942,-0.2761 -0.1126,-0.1306 -0.1534,-0.1421 -0.1967,-0.3003zm3.0958 0.0873l-1.0663 0.8087 -0.107 -0.0345c-0.0893,0.1032 -0.1117,0.117 -0.2349,0.1916l-0.1183 0.1242c-0.2293,0.0701 -0.0051,-0.029 -0.1187,0.0503l-0.1016 0.0981c-0.0648,-0.0912 -0.0609,-0.1544 -0.0741,-0.2673l0.1592 -0.101c0.0887,-0.1641 0.0634,-0.1187 0.1821,-0.2195l0.5786 -0.5228c0.2423,-0.2702 0.1301,-0.0389 0.4116,-0.2052 0.1008,-0.0595 0.3082,-0.2396 0.4266,-0.2815l0.103 0.0172c0.1779,-0.0357 0.0883,0.002 0.1257,0.0211 -0.0757,0.1109 -0.1018,0.1372 -0.2339,0.1777l-0.0717 0.1113c-0.004,0.0064 -0.0125,0.0206 -0.0191,0.0306 0.0854,-0.0485 0.059,-0.0344 0.131,-0.0405l0.1554 -0.1265c0.1558,-0.1308 0.1185,-0.1124 0.3162,-0.2151 0.115,-0.0598 0.0593,-0.0513 0.21,-0.0257 -0.2264,0.2327 -0.4431,0.2971 -0.6538,0.4088zm-3.9118 -0.4129c0.5922,0.0527 0.8375,0.547 1.1633,0.9956 -0.2268,-0.0558 -0.0171,0.0815 -0.2949,-0.268 -0.3285,-0.413 -0.36,-0.4167 -0.7347,-0.5856 -0.1734,-0.0782 -0.0729,-0.0572 -0.1337,-0.142zm-0.6358 -0.0936c0.3534,0.0618 1.1776,0.5698 1.261,0.7581 0.0885,0.0669 0.0668,-0.0859 0.0823,0.1416 -0.2583,0.0328 -0.0678,0.011 -0.1436,-0.0651 -0.1934,-0.1997 -0.8305,-0.6727 -1.2301,-0.7238 -0.2062,-0.0277 -0.1127,0.0107 -0.1839,-0.1013 0.0848,-0.0544 -0.087,-0.0522 0.1062,-0.0472 0.1842,0.0048 0.0514,0.009 0.1081,0.0377zm-0.6242 -0.0596c0.0483,-0.1058 0.1839,-0.2378 0.1831,0.0186l-0.1831 -0.0186zm-4.9555 0.0947l0 0.8329c0.3337,0.0622 0.6108,0.2889 0.9323,0.3718 0.3203,0.0827 0.7173,-0.0143 1.141,0.103 0.5477,0.0275 0.0145,0.0494 0.8379,0.0279 0.3072,-0.008 0.5598,0.0133 0.8421,0.0346 0.5788,0.0439 0.9745,0.0508 1.541,0.1762 0.582,0.1288 1.3889,0.3794 1.9029,0.7105 0.3324,0.2141 0.14,0.2017 0.5975,0.2299l0.0177 -0.6194c0.0178,-0.1686 0.0212,-0.1252 0.0591,-0.166 0.0161,-0.1182 0.1221,-0.1989 0.2003,-0.2873 0.0356,0.0599 0.0509,-0.0217 0.0144,0.2l-0.0096 0.8504 0.8025 -0.0452c0.3491,-0.0181 0.9697,-0.4757 1.2892,-0.6149 0.3227,-0.1406 2.2437,-0.5872 2.6797,-0.5418l0.0758 -0.0443c0.2029,-0.0628 0.5885,-0.0376 0.7938,-0.0213 0.4781,0.0379 0.4379,0.0047 0.84,-0.0522 0.0334,0.0016 1.1003,-0.2259 1.1109,-0.2309l0.4064 -1.0045c-0.2395,-0.0609 -0.5381,-0.208 -0.8569,-0.291 -0.1115,-0.029 -2.3529,-0.2667 -3.0223,-0.4119 -0.7343,-0.1592 -2.2061,-0.3084 -3.0671,-0.3836l-0.7465 -0.0905c-0.1425,-0.0135 -0.1734,-0.0214 -0.2957,0.0275 -0.0709,0.4599 -0.0715,0.9884 -0.0266,1.4534 0.009,0.0936 0.0153,0.0459 -0.0321,0.1782 -0.0804,-0.0991 -0.0264,0.1151 -0.0818,-0.1687 -0.0119,-0.0611 -0.0131,-0.1366 -0.0171,-0.2021 -0.0167,-0.2704 0.0243,-1.011 0.035,-1.3102 -0.5431,-0.0559 -0.9397,-0.0326 -1.6226,-0.105 -0.129,-0.0137 -0.3695,0.0823 -0.4914,0.1063 -1.2198,0.2413 -1.7316,0.2841 -2.949,0.6341 -0.3824,0.11 -2.5734,0.5108 -2.9008,0.6541z"/>
  <path class="fil1" d="M1.8885 4.6621c0.0429,-0.0254 0.0088,-0.0262 0.0947,-0.0324l0.0677 0.0324c-0.1176,0.0353 -0.0853,0.0449 -0.1624,0zm-0.7546 -0.0441l0.0588 -0.0314c0.2163,-0.0474 -0.0418,-0.0346 0.0634,0.0314 -0.0653,0.0473 -0.0641,0.0377 -0.1222,0zm7.7451 0.9894c-0.1311,0.1234 -0.1989,0.0578 -0.4103,0.0784 -0.1967,0.0192 -0.1911,0.0523 -0.397,0.012l0.0144 -0.8956c0.0365,-0.2217 0.0212,-0.1401 -0.0144,-0.2 -0.0782,0.0884 -0.1842,0.1691 -0.2003,0.2873l0.0276 0.0787 0.0728 -0.0567c0.0489,0.2653 0.0021,0.2247 -0.0356,0.4148 -0.0454,0.2289 0.0634,0.2767 -0.1416,0.3486 -0.4575,-0.0282 -0.2651,-0.0158 -0.5975,-0.2299 -0.514,-0.3311 -1.3209,-0.5817 -1.9029,-0.7105 -0.5665,-0.1254 -0.9622,-0.1323 -1.541,-0.1762 -0.2823,-0.0213 -0.5349,-0.0426 -0.8421,-0.0346 -0.8234,0.0215 -0.2902,-0.0004 -0.8379,-0.0279 0.044,0.0931 -0.0508,0.0775 0.0441,0.0781l-1.4174 -0.0159c0.0096,0.0087 0.0228,0.0187 0.0307,0.0238 0.3908,0.2559 0.086,0.1322 0.3162,0.2636 0.0861,-0.0872 0.028,-0.0817 0.1517,-0.0697 0.0602,0.0647 0.099,-0.1027 0.0258,0.1223 0.2595,0.0467 0.1206,-0.0465 0.3587,-0.0139l0.0681 0.0427c-0.7952,0.1076 -0.326,0.1682 -0.5044,0.4502 -0.1617,-0.2021 -0.0099,-0.1632 -0.0797,-0.4387 -0.1755,0.0536 -0.0856,0.3321 -0.0389,0.4587 0.0635,0.1724 0.0906,0.2231 0.2802,0.2584l0.2133 0.0746c-0.0095,-0.1441 -0.0396,-0.0325 0.0221,-0.116 0.4971,0.2395 0.4849,0.25 0.6489,0.7267 0.0709,0.2062 0.1335,0.2762 0.2315,0.4275 0.1417,0.219 0.1976,0.3571 -0.0183,0.3201l0.0198 0.0796c0.0662,0.1124 0.7944,0.6921 0.8093,0.7009 0.7659,0.4538 0.6413,0.2611 1.2197,0.4187l-0.088 -0.1406 -0.3128 -0.0002c0.0085,-0.0099 0.0196,-0.0395 0.0259,-0.0294 0.0109,0.0175 -0.0085,-0.0308 0.1052,-0.0462 0.1447,-0.0197 0.6259,0.0083 0.707,0.0719 0.0055,0.0044 0.02,0.0161 0.0263,0.021 0.1517,0.1176 0.6469,-0.0968 0.8655,-0.1399 0.365,-0.072 0.1439,0.1206 0.7244,-0.2964 0.0532,-0.0382 0.2708,-0.1429 0.3921,-0.2701 0.0647,-0.0965 -0.0081,-0.0366 0.0676,-0.1431 0.0442,-0.0621 0.0746,-0.0653 0.1267,-0.1038 0.115,-0.0849 0.4867,-0.8233 0.9738,-0.7659 0.0671,0.0079 0.2203,0.0781 0.3218,0.1005 0.3205,0.0707 0.1785,0.042 0.5216,0.3974l0.2544 -0.042c-0.1515,0.1371 0.0074,-0.0387 -0.1682,0.1433 0.0993,0.1508 0.0144,0.0144 0.1325,0.1366l0.1867 0.1703c0.0067,0.0057 0.0152,0.0158 0.0217,0.0215l0.4545 0.2945c0.6693,0.2156 0.5183,0.0669 0.7978,0.0971 0.2019,0.0217 0.156,0.1067 0.4357,0.0774 0.7151,-0.0751 0.2867,-0.0032 0.8354,-0.0339 -0.1687,-0.0254 -0.0057,-0.0177 -0.0852,0.0993 0.2308,-0.0318 0.6761,-0.0584 0.8449,-0.2628 -0.1642,-0.0049 -0.1708,0.0275 -0.3877,0.1009 0.1746,-0.2554 0.172,-0.0892 0.549,-0.3537 0.1698,-0.1191 0.5454,-0.242 0.7578,-0.5358 0.2306,-0.3191 0.366,-0.4219 0.6894,-0.6148 -0.0263,-0.1917 -0.0396,-0.1222 0.0164,-0.2656 0.1325,0.0714 0.1179,-0.0229 0.0646,0.1802l0.093 -0.1036c0.0679,-0.067 0.0076,-0.0281 0.1004,-0.0641l-0.0366 0.1741c0.0037,0.0309 0.0097,-0.0898 -0.0085,0.0297 -0.0118,0.0773 -0.0181,-0.0807 -0.0113,0.1447 0.093,-0.0877 0.0947,-0.1192 0.1593,-0.2559 0.0473,-0.1001 0.0809,-0.1682 0.1062,-0.2685l-0.0269 -0.1347c0.0809,-0.0987 0.1535,-0.2051 0.2537,-0.2836l0.1152 -0.08 -0.1377 -0.0336 0.0921 -0.0754c0.0897,-0.1028 0.11,-0.3051 0.1367,-0.4539l-0.8449 -0.0608c0.1085,-0.1267 -0.0304,-0.0662 0.1346,-0.0948 0.0549,-0.0096 0.114,0.0155 0.2207,-0.0115 -0.256,-0.1753 -1.5525,-0.1257 -1.8095,-0.1326 -0.436,-0.0454 -2.357,0.4012 -2.6797,0.5418 -0.3195,0.1392 -0.9401,0.5968 -1.2892,0.6149z"/>
  <path class="fil2" d="M16.6982 3.3652c0.0005,-0.0076 -0.0172,0.0202 -0.0447,0.0316l-0.0081 -0.1557c0.1113,0.1544 0.0527,0.1257 0.0528,0.1241zm-0.4941 0.1833c-0.0753,-0.4892 0.0885,-0.5412 0.1391,-0.887 0.0257,-0.1762 -0.0989,-0.2615 0.0558,-0.3872 0.0283,-0.023 0.2569,-0.1541 0.3009,-0.1623l0.0068 0.9622 -0.3798 0.4058c-0.1031,0.0981 0.002,0.0419 -0.1228,0.0685zm-0.5756 -1.3922l-0.1165 -0.0048 0.0477 0.1289c0.1233,0.1207 0.4906,0.2236 0.6638,0.3528l-0.0881 0.356c-0.898,-0.4175 -1.1339,-0.3893 -2.1624,-0.5221 -1.3029,-0.1681 -0.9442,-0.0868 -2.2678,-0.3869 -0.3432,-0.0778 -3.1213,-0.3187 -3.6425,-0.3552 -0.1387,-0.0098 -1.1833,-0.0123 -1.2625,-0.0622l2.7207 -0.4752c0.2058,0.0236 0.46,0.0819 0.669,0.1256 0.2169,0.0454 0.4578,0.0705 0.6817,0.1099 0.2168,0.0382 0.4527,0.067 0.6815,0.1055l0.5379 0.085c0.2049,0.0014 0.0605,-0.0016 0.1155,-0.039 -0.3455,-0.0713 -2.1148,-0.3737 -2.2737,-0.5187l1.1849 -0.2396 1.8276 0.4661c0.5631,0.1517 2.6546,0.4574 2.8927,0.7446 0.1558,-0.0408 0.0654,0.0715 0.1198,-0.0668 -0.0344,-0.0274 -0.0558,-0.0562 -0.0923,-0.0973 -1.2739,-0.4417 -1.0838,-0.2684 -2.098,-0.5254 -0.3559,-0.0902 -1.8681,-0.5022 -2.1122,-0.5105 -0.0611,-0.0091 -0.0945,-0.0051 -0.1612,-0.0307 -0.0623,-0.0239 -0.0468,-0.0324 -0.0774,-0.0598l0.1569 -0.0461c0.3129,-0.0066 0.7267,-0.1498 1.0377,-0.2176 0.2388,-0.0521 0.193,-0.1089 0.4866,-0.1208 0.3578,-0.0144 1.6876,-0.0635 1.8737,0.0103 0.3774,0.1497 0.6791,0.4028 0.7907,0.3936l-0.4763 -0.4264 1.4061 -0.004 -0.5046 2.0949c-0.2353,-0.1244 -0.3094,-0.1769 -0.559,-0.2641zm-4.9595 -1.9326l-10.6691 0.0221 0 0.1484 2.0947 0.0027c-0.1645,0.0962 -0.4093,0.1792 -0.5831,0.2642 -0.2127,0.1043 -0.3822,0.1953 -0.5726,0.2911l-0.0315 0.105 0.1005 -0.0282c0.3529,-0.1874 0.7433,-0.385 1.1749,-0.5389 0.5324,-0.1899 2.6284,-0.094 3.2424,-0.1046 0.2774,-0.0047 0.5607,-0.0069 0.838,-0.0039 0.1516,0.0016 0.2902,-0.0029 0.4413,-0.0084 0.4843,-0.0178 0.2972,0.0075 0.3523,0.0546l-1.598 0.389c-0.6108,0.1615 -3.3929,1.0894 -4.0348,1.3896 -0.3572,0.167 -0.2355,0.09 -0.2922,0.2168 1.2917,-0.5723 3.9936,-1.435 5.1722,-1.6559 0.4552,-0.0853 1.2247,-0.3945 1.2835,-0.3983l5.0158 -0.0148c-1.4026,0.3041 -3.3936,0.7756 -4.7521,0.9491 -0.4483,0.0572 -1.1098,0.2402 -1.5658,0.3429 -1.2911,0.2907 -1.6363,0.2648 -3.0986,0.6787 -0.5379,0.1524 -1.0762,0.1847 -1.5891,0.313 -0.4257,0.1065 -1.1859,0.3435 -1.5978,0.3191l0 0.2311c0.3274,-0.1433 2.5184,-0.5441 2.9008,-0.6541 1.2174,-0.35 1.7292,-0.3928 2.949,-0.6341 0.1219,-0.024 0.3624,-0.12 0.4914,-0.1063 0.6829,0.0724 1.0795,0.0491 1.6226,0.105 -0.0107,0.2992 -0.0517,1.0398 -0.035,1.3102 0.004,0.0655 0.0052,0.141 0.0171,0.2021 0.0554,0.2838 0.0014,0.0696 0.0818,0.1687 0.0474,-0.1323 0.0411,-0.0846 0.0321,-0.1782 -0.0449,-0.465 -0.0443,-0.9935 0.0266,-1.4534 0.1223,-0.0489 0.1532,-0.041 0.2957,-0.0275l0.7465 0.0905c0.861,0.0752 2.3328,0.2244 3.0671,0.3836 0.6694,0.1452 2.9108,0.3829 3.0223,0.4119 0.3188,0.083 0.6174,0.2301 0.8569,0.291l-0.4064 1.0045c-0.0106,0.005 -1.0775,0.2325 -1.1109,0.2309 0.0227,0.1223 -0.0377,0.0464 0.0422,0.103l0.5917 -0.112 0.0364 0.2482c-0.2497,0.0222 -0.3501,-0.0628 -0.5704,0.0112 -0.1067,0.027 -0.1658,0.0019 -0.2207,0.0115 -0.165,0.0286 -0.0261,-0.0319 -0.1346,0.0948l0.8449 0.0608c-0.0267,0.1488 -0.047,0.3511 -0.1367,0.4539l-0.0921 0.0754 0.1377 0.0336 0.1259 0.0142c0.395,-0.8467 0.1363,-0.5408 0.1423,-0.9999l0.3345 -0.0928 0.0906 0.0099c-0.0471,0.1508 -0.0655,0.1146 -0.0471,0.251l-0.0121 0.1731c-0.0229,-0.129 -0.0006,-0.0238 0.0543,-0.0814 0.2695,-0.7464 0.0912,-0.2757 0.3323,-0.6104 0.1328,-0.1845 0.0395,-0.1747 0.4197,-0.5064l0.2158 0.2212 0.0133 3.7138 -0.4057 0.286c-0.0528,0.184 -0.0743,0.0395 0.0002,0.1461l0.4411 -0.3495 -0.0318 0.7028 0.0405 8.4077 -2.2241 0.0208c0.425,-0.3579 1.1193,-0.9339 1.5952,-1.2005 0.1958,-0.1097 0.4618,-0.268 0.5188,-0.4598 -0.3522,0.1679 -0.9201,0.5862 -1.2306,0.809 -0.3969,0.285 -0.708,0.5178 -1.094,0.8443l-0.2251 -0.0001c0.222,-0.3046 0.2724,-0.2846 0.5006,-0.5593 0.2202,-0.2652 1.4984,-1.4272 1.5482,-1.6564 -0.5085,0.3969 -0.6984,0.585 -1.1515,1.0824 -0.3511,0.3854 -0.7437,0.7456 -1.0729,1.126 -3.8586,0.0524 -7.5677,0.0586 -11.4202,0.051 -1.2762,-0.0025 -1.6553,0.1612 -1.6796,-0.3472 -0.0122,-0.2559 -0.0119,-0.521 0.0244,-0.7722 0.0608,-0.4204 0.0189,-0.2326 -0.0209,-0.2989 -0.0947,0.1847 -0.0818,0.1251 -0.0996,0.318 -0.0114,0.1229 -0.0266,0.2484 -0.0369,0.3555 -0.025,0.2609 0.0479,0.5459 0.026,0.7246l-0.6394 0.0112c-0.032,-0.1318 -0.0206,-0.1316 -0.0882,-0.2181l0 0.3602c2.8188,-0.0033 5.651,-0.0178 8.4687,0.0014 1.7085,0.0117 3.6424,-0.0519 5.293,0.0041l3.1632 -0.0205c-0.001,-1.8344 0.0248,-3.8738 -0.0093,-5.6824 -0.0072,-0.3805 -0.05,-5.4054 -0.0066,-5.7152l-0.0311 -0.062c-0.0255,-0.0893 -0.0028,0.0217 -0.0165,-0.0768l0.0001 -0.4874c0.0007,-0.221 -0.0039,-0.4407 -0.0059,-0.6617 -0.0038,-0.4305 0.0104,-0.8453 -0.0051,-1.2791 -0.0158,-0.4397 -0.0015,-0.8831 -0.0028,-1.3232 -0.0014,-0.4386 -0.0245,-0.8441 -0.0011,-1.2792 -0.5202,0.0051 -5.7923,0.0667 -6.1775,0.0165z"/>
  <path class="fil0" d="M0.7939 2.3345c-0.0739,-0.059 -0.003,-0.1183 0,-0.1227 0.1754,0.2319 0.0255,0.0879 0,0.1227zm3.4404 -1.2303c-0.0512,-0.0311 -0.0763,0.0753 -0.0682,-0.0917 0.0047,-0.0975 0.0132,-0.026 0.0682,-0.0649 0.0563,0.1083 0.0882,-0.01 0,0.1566zm-3.2264 -0.0752c-0.0607,0.0629 0.1002,0.0532 -0.1315,0.0654 -0.0086,-0.2373 -0.0048,-0.0826 0.0625,-0.1422 0.1904,-0.0958 0.3599,-0.1868 0.5726,-0.2911 0.1738,-0.085 0.4186,-0.168 0.5831,-0.2642l-2.0947 -0.0027 0 1.8995c0.4892,-0.1286 1.5929,-0.768 2.0453,-0.7827 0.0999,-0.1218 0.1207,-0.096 0.2594,-0.1408 0.0265,-0.0085 0.1634,-0.0637 0.1771,-0.0644 0.2466,-0.0133 0.0355,-0.0304 0.1396,0.0726l-0.5088 0.1678c-0.2641,0.1458 -0.7202,0.3004 -1.0473,0.4306 -0.2014,0.0802 -0.3526,0.1475 -0.5378,0.2194 -0.2096,0.0815 -0.3181,0.1787 -0.5275,0.2374l0 0.5234c0.4119,0.0244 1.1721,-0.2126 1.5978,-0.3191 0.5129,-0.1283 1.0512,-0.1606 1.5891,-0.313 1.4623,-0.4139 1.8075,-0.388 3.0986,-0.6787 0.456,-0.1027 1.1175,-0.2857 1.5658,-0.3429 1.3585,-0.1735 3.3495,-0.645 4.7521,-0.9491l-5.0158 0.0148c-0.0588,0.0038 -0.8283,0.313 -1.2835,0.3983 -1.1786,0.2209 -3.8805,1.0836 -5.1722,1.6559 0.0567,-0.1268 -0.065,-0.0498 0.2922,-0.2168 0.6419,-0.3002 3.424,-1.2281 4.0348,-1.3896l1.598 -0.389c-0.0551,-0.0471 0.132,-0.0724 -0.3523,-0.0546 -0.1511,0.0055 -0.2897,0.01 -0.4413,0.0084 -0.2773,-0.003 -0.5606,-0.0008 -0.838,0.0039 -0.614,0.0106 -2.71,-0.0853 -3.2424,0.1046 -0.4316,0.1539 -0.822,0.3515 -1.1749,0.5389z"/>
  <path class="fil0" d="M11.5736 0.6904c0.0228,0.1188 -0.0799,-0.003 0.0817,0.1366 0.2441,0.0083 1.7563,0.4203 2.1122,0.5105 1.0142,0.257 0.8241,0.0837 2.098,0.5254 0.1154,0.0696 0.1033,0.0228 0.137,0.1914 -0.2964,0.0955 -0.0838,0.0166 -0.1645,-0.0273 -0.2381,-0.2872 -2.3296,-0.5929 -2.8927,-0.7446l-1.8276 -0.4661 -1.1849 0.2396c0.1589,0.145 1.9282,0.4474 2.2737,0.5187 -0.055,0.0374 0.0894,0.0404 -0.1155,0.039l-0.5379 -0.085c-0.2288,-0.0385 -0.4647,-0.0673 -0.6815,-0.1055 -0.2239,-0.0394 -0.4648,-0.0645 -0.6817,-0.1099 -0.209,-0.0437 -0.4632,-0.102 -0.669,-0.1256l-2.7207 0.4752c0.0792,0.0499 1.1238,0.0524 1.2625,0.0622 0.5212,0.0365 3.2993,0.2774 3.6425,0.3552 1.3236,0.3001 0.9649,0.2188 2.2678,0.3869 1.0285,0.1328 1.2644,0.1046 2.1624,0.5221l0.0881 -0.356c-0.1732,-0.1292 -0.5405,-0.2321 -0.6638,-0.3528 -0.102,-0.0611 -0.0806,0.0453 -0.0924,-0.1324 0.11,-0.0534 -0.1032,-0.0473 0.067,-0.027 0.0723,0.0087 0.0562,0.0125 0.0942,0.0353 0.2496,0.0872 0.3237,0.1397 0.559,0.2641l0.5046 -2.0949 -1.4061 0.004 0.4763 0.4264c-0.1116,0.0092 -0.4133,-0.2439 -0.7907,-0.3936 -0.1861,-0.0738 -1.5159,-0.0247 -1.8737,-0.0103 -0.2936,0.0119 -0.2478,0.0687 -0.4866,0.1208 -0.311,0.0678 -0.7248,0.211 -1.0377,0.2176z"/>
  <path class="fil3" d="M5.328 12.8609c-0.1858,-0.0191 -0.1379,-0.0305 -0.173,-0.127 0.1468,-0.0444 0.1472,0.0052 0.173,0.127zm-0.3434 -0.3026c0.1749,0.037 0.1025,-0.0158 0.1405,0.1455 -0.1514,-0.0337 -0.0995,0.0382 -0.1405,-0.1455zm-0.2301 -0.2148c0.2118,0.072 0.1266,-0.0426 0.1414,0.1707 -0.1507,-0.0143 -0.1578,-0.008 -0.1414,-0.1707zm-0.2997 -0.2613l0.2744 0.6219c-0.1493,-0.0494 -0.0545,0.1058 -0.2145,-0.2923 -0.1028,-0.2559 -0.1145,-0.2355 -0.0599,-0.3296zm-3.0371 -1.245c0.1873,-0.3329 0.0193,-0.0785 0.1462,-0.466 0.0584,-0.1779 0.0924,-0.2901 0.1358,-0.4845 0.0772,-0.3462 0.1381,-0.6426 0.1657,-1.0234 0.3707,0.1328 0.5481,0.2194 0.9779,0.24l0.759 1.8767c0.4086,1.0791 0.5277,0.5869 0.7395,1.2469 0.06,0.1867 0.1263,0.3008 0.1729,0.4741 -1.4638,-0.6943 -0.5491,-0.293 -1.3327,-1.032 -0.262,-0.2471 -0.2504,-0.0633 -0.4286,-0.766 -0.0608,-0.2397 -0.1674,-0.6925 -0.3275,-0.8355 -0.0541,0.2564 -0.0332,0.1192 0.1434,0.6227 0.0589,0.1681 0.1573,0.4872 0.1781,0.6833l-1.3297 -0.5363zm0.1617 -4.8079c0.1275,0.1466 0.5939,1.1802 0.6186,1.4003 -0.1688,-0.0393 -0.1816,-0.067 -0.3774,-0.0008 -0.2772,0.0598 -0.3206,0.168 -0.6294,0.1534l-0.1071 -0.0231 0.0398 0.1064c0.378,0.0727 0.3925,-0.0603 0.645,-0.1298 0.1524,-0.0418 0.226,-0.0426 0.3692,0.0178 0.2903,0.1225 0.5962,1.0522 0.643,1.3535l-2.2863 -0.8066c-0.2149,-0.0988 -0.3441,-0.4272 -0.4949,-0.523l0 0.2947 0.1657 0.196c0.3392,0.4475 1.1267,0.4142 1.5476,0.7402l-0.2577 1.4744c-0.5274,-0.4555 -0.7166,-0.7021 -1.4556,-0.8708l0 0.1342c0.7156,0.195 0.9677,0.3961 1.4073,0.8942l-0.1587 0.4048 -1.2486 0.3029 0 0.1445 1.3674 -0.2905c0.3781,0.2497 0.9079,0.3247 1.3308,0.5779 0.5091,0.3047 0.5783,0.486 0.9643,0.9815 -1.4653,-0.0789 -0.96,-0.2411 -2.1051,0.6267l-1.5574 1.2641 0 0.1327c0.1361,-0.0743 0.3428,-0.2817 0.4807,-0.4002l1.4868 -1.2028c0.4549,-0.3454 0.6306,-0.3614 1.4872,-0.2565 0.7405,0.0907 0.7988,0.1201 1.6221,0.1851l0.0839 0.1299c0.2092,-0.0069 0.0522,-0.045 0.2774,-0.0066 0.3276,0.0558 0.2609,0.0853 0.7411,0.4499 -0.1396,0.1703 -0.38,0.3264 -0.4903,0.4237l-0.0185 0.1495c0.308,-0.1809 0.0304,-0.0337 0.1516,-0.0051 -0.0112,-0.194 0.1612,-0.2059 0.381,-0.2296 1.9951,-0.2153 1.7292,0.0364 2.6417,0.6532l0.8973 0.4627c-0.0464,-0.2315 -0.2145,-0.1112 -0.7141,-0.5559l-0.6445 -0.6338c0.1804,-0.1005 0.8091,-0.2248 1.0295,-0.1936l0.074 0.0093c0.1019,0.0073 0.0666,-0.019 0.2052,0.0109 0.3208,0.0691 2.3414,0.8133 2.6511,0.9247 -0.1013,-0.1237 -0.1342,-0.0952 -0.2967,-0.1449 -0.1907,-0.0583 -1.8836,-0.8513 -2.1212,-0.9593 0.0978,-0.2081 1.4252,-0.6279 1.6256,-0.6681 0.2826,-0.0566 0.6555,-0.1249 0.9457,-0.1938 0.6213,-0.1474 0.5772,-0.0161 0.9262,-0.2972 -0.3096,0.0416 -1.712,0.3018 -1.9269,0.4017 -0.0944,-0.072 -0.0186,0.1377 -0.0742,-0.0485 -0.0063,-0.0212 -0.031,-0.0163 -0.0418,-0.0294l-0.3084 0.1734 -0.1294 0.0476 0.0116 -0.1415 0.1599 -0.1652 0.0019 -0.0098c0.0678,-0.1379 -0.0005,-0.0456 0.1556,-0.1051 0.3204,-0.1219 0.0799,-0.1498 0.3085,-0.3029 0.0642,-0.0646 0.1337,-0.1385 0.205,-0.1996 0.1304,-0.1119 0.0741,-0.0492 0.2589,-0.1307 0.1124,-0.0855 0.5922,-0.9306 0.6933,-1.1619 0.1107,-0.2536 0.1646,-0.4182 0.3353,-0.5938 0.1813,-0.1865 0.2669,-0.2565 0.4113,-0.4943l0.0322 -0.1056 -0.1045 0.0415c-0.107,0.1744 -0.2199,0.3496 -0.3576,0.4497l0.4758 -1.2 0.8058 0.0321 0.4619 1.4815c-0.1655,0.137 -0.2348,0.1412 -0.4874,0.2368 -0.1561,0.0591 -0.3474,0.1261 -0.4902,0.1716 -0.204,0.199 -0.2283,0.1026 -0.312,0.1207 -0.114,0.0903 -0.0509,0.1147 -0.1452,0.2188l-1.4987 1.149 -0.0554 0.1224 0.1111 -0.0055 0.8758 -0.6856c0.1482,-0.1152 0.2883,-0.2202 0.4588,-0.3353 0.1561,-0.1055 0.289,-0.2847 0.4441,-0.3523 0.1678,-0.073 0.3912,-0.1204 0.5855,-0.2126 0.1863,-0.0885 0.3594,-0.175 0.5395,-0.2517 0.1661,-0.0709 0.4021,-0.1526 0.5663,-0.2205 0.1744,-0.0722 0.4191,-0.165 0.6179,-0.2063l0.1512 -0.1036 -0.1729 0.0006 -1.0167 0.2813 -0.1028 -0.3248 0.421 -0.327c0.1572,-0.1118 0.3338,-0.1766 0.4861,-0.2758l-0.0636 -0.0364 -0.9277 0.5037 -0.0033 -0.2272 0.7052 -0.5165 0.8048 -0.444c-0.094,-0.0524 0.0945,-0.0397 -0.0989,-0.0377 -0.1121,0.0011 -0.1949,0.0792 -0.3004,0.1346 -0.1321,0.0694 -0.2287,0.1146 -0.3695,0.2025 -0.2281,0.1424 -0.4977,0.3575 -0.6987,0.465l-0.0771 0.1033c-0.0893,-0.1388 -0.0665,-0.0952 -0.0855,-0.2499l-0.102 -0.282 -0.0554 -0.0698c-0.0838,-0.1505 -0.0101,0.0453 -0.0096,-0.0896l0.2295 -0.045c0.2422,-0.0711 0.9782,-0.4132 1.1142,-0.5293 0.1741,-0.1595 0.2896,-0.0676 0.5288,-0.069l-0.1269 -0.0748c-0.0181,-0.006 -0.0261,-0.0065 -0.0452,-0.0108 -0.0187,-0.0042 -0.026,-0.0033 -0.0452,-0.0056 -0.1068,-0.013 -0.1879,0.0105 -0.2844,0.0399 -0.1948,0.0032 -1.6203,0.9058 -2.2134,0.4741l0.3095 -0.7759 1.0354 -0.0055c0.0456,-0.0388 -0.0098,-0.0034 0.0915,-0.0651 0.0021,-0.0013 0.0918,-0.0444 0.0923,-0.0446l-0.228 0.0137 -0.9325 -0.0295c0.1249,-0.383 0.3984,-0.7472 0.4316,-1.1684 -0.0068,-0.2254 -0.0005,-0.0674 0.0113,-0.1447 0.0182,-0.1195 0.0122,0.0012 0.0085,-0.0297 -0.1596,0.0971 -0.0667,0.2368 -0.2603,0.3959 0.0052,0.2041 -0.9402,2.3623 -1.07,2.6813 -0.3672,0.9026 -0.421,1.0685 -0.8853,1.9417 -0.3227,0.6069 -0.3307,0.367 -0.6534,0.7587l-1.2655 1.0701c-0.1189,0.0876 -0.4525,0.1774 -0.6367,0.2943 -0.1965,0.1246 -0.1136,0.0835 -0.3918,0.1037l-0.8298 0.149c-0.5596,0.0849 0.2358,0.1536 -1.1554,0.0198 -0.3234,-0.0311 -0.6006,0.0191 -0.8803,0.0205l-0.6551 -0.6488c-0.2509,-0.1995 -0.5227,-0.3882 -0.7305,-0.5914 -0.7647,-0.7481 -1.0384,-0.6713 -1.2696,-1.3299 -0.2719,-0.775 -0.3845,-1.1568 -0.6978,-1.9091 -0.2308,-0.5544 -0.1823,-0.5042 -0.3461,-0.9736 -0.081,-0.2321 -0.3693,-0.7204 -0.3877,-0.8766 -0.0923,-0.0999 -0.1506,-0.2204 -0.1922,-0.3575 -0.1817,-0.5988 -0.2639,-0.644 -0.5158,-1.0252l-0.0655 0.1448z"/>
  <path class="fil4" d="M15.7443 4.5874l-0.0063 0.1095 0.1074 -0.0367 0.5326 -0.0916c0.2241,0.4466 0.2456,0.9678 0.152,1.5431 -0.0813,0.4995 -0.3038,0.5924 -0.7835,1.0634 -0.1611,-0.0694 -0.2249,-0.1089 -0.309,-0.2677l-0.1576 0.0187c-0.0399,0.1611 0.0012,0.0167 -0.071,0.0815l-0.0855 0.301c-0.0657,0.0215 -0.3645,0.0535 -0.4352,0.0419 -0.1677,-0.0274 -0.1299,-0.1705 -0.1219,-0.3516l0.5113 -0.5088 0.0906 -0.3356 0.6495 0.0405c-0.1329,0.0339 -0.2422,0.0128 -0.3836,0.0247 -0.1995,0.0168 -0.1938,0.0339 -0.2111,0.2314l-0.0194 0.3773 0.1457 -0.0482 0.3972 0.2704c0.1811,-0.0885 0.1272,-0.1503 0.4187,-0.4261 0.4068,-0.3851 0.154,-1.1908 0.0445,-1.9809 -0.1963,-0.0148 -0.1906,-0.0087 -0.3131,0.072 -0.05,0.0711 -0.03,0.0571 -0.1053,0.123l0.0048 0.1241c0.0626,0.1003 0.1522,0.1971 0.1737,0.319 -0.1818,-0.0158 -0.2251,-0.0536 -0.2785,-0.1933 -0.0447,-0.0259 -0.076,0.0146 -0.1013,-0.1201 -0.0118,-0.0626 0.008,-0.0864 0.0141,-0.1377 0.0161,-0.1365 -0.0089,-0.2785 0.098,-0.3349 -0.0184,-0.1364 0,-0.1002 0.0471,-0.251l-0.0906 -0.0099c-0.0838,0.1329 -0.0514,0.106 -0.2517,0.1285l0.1255 0.0676c-0.0222,0.106 0.0066,0.0736 -0.0561,0.1428 -0.0512,0.1468 0.0714,0.1704 -0.0298,0.4122 -0.2235,0.5342 -0.3571,0.363 -0.5427,0.5095 -0.1302,0.1029 -0.0787,0.2042 -0.1899,0.3162 -0.0253,0.1003 -0.0589,0.1684 -0.1062,0.2685 -0.0646,0.1367 -0.0663,0.1682 -0.1593,0.2559 -0.0332,0.4212 -0.3067,0.7854 -0.4316,1.1684l0.9325 0.0295c0.1228,-0.0773 0.1522,-0.0759 0.3227,-0.0648 -0.0707,0.1682 -0.0542,0.1227 -0.2785,0.1608l-1.0354 0.0055 -0.3095 0.7759c0.5931,0.4317 2.0186,-0.4709 2.2134,-0.4741 0.042,-0.0453 0.0178,-0.0339 0.0813,-0.0808 0.031,-0.0228 0.0738,-0.0443 0.1134,-0.0642 0.1182,-0.0595 0.1382,-0.0632 0.263,-0.1006l0.4057 -0.286 -0.0133 -3.7138 -0.2158 -0.2212c-0.3802,0.3317 -0.2869,0.3219 -0.4197,0.5064 -0.2411,0.3347 -0.0628,-0.136 -0.3323,0.6104z"/>
  <path class="fil0" d="M-0.0001 11.2925l0 3.1597 1.5574 -1.2641c1.1451,-0.8678 0.6398,-0.7056 2.1051,-0.6267 -0.386,-0.4955 -0.4552,-0.6768 -0.9643,-0.9815 -0.4229,-0.2532 -0.9527,-0.3282 -1.3308,-0.5779l-1.3674 0.2905z"/>
  <path class="fil4" d="M2.3873 9.7178l0.0121 0.1137c-0.0845,-0.0381 -0.085,0.052 -0.0672,-0.0522 -0.0894,-0.0794 -0.0688,0.0939 -0.0841,-0.1504 0.2352,0.0141 0.0792,0.0014 0.1392,0.0889zm-0.9696 1.1194l1.3297 0.5363c-0.0208,-0.1961 -0.1192,-0.5152 -0.1781,-0.6833 -0.1766,-0.5035 -0.1975,-0.3663 -0.1434,-0.6227 0.1601,0.143 0.2667,0.5958 0.3275,0.8355 0.1782,0.7027 0.1666,0.5189 0.4286,0.766 0.7836,0.739 -0.1311,0.3377 1.3327,1.032 -0.0466,-0.1733 -0.1129,-0.2874 -0.1729,-0.4741 -0.2118,-0.66 -0.3309,-0.1678 -0.7395,-1.2469l-0.759 -1.8767c-0.4298,-0.0206 -0.6072,-0.1072 -0.9779,-0.24 -0.0276,0.3808 -0.0885,0.6772 -0.1657,1.0234 -0.0434,0.1944 -0.0774,0.3066 -0.1358,0.4845 -0.1269,0.3875 0.0411,0.1331 -0.1462,0.466z"/>
  <path class="fil5" d="M13.5752 9.1977c0.1336,0.0378 0.1039,-0.0309 0.1169,0.1111 -0.1798,0.0295 -0.0923,0.0421 -0.1169,-0.1111zm-0.1642 0.2146c0.0656,-0.0842 -0.1053,-0.0847 0.1235,-0.0751 0.0319,0.2392 0.0108,0.0801 -0.0512,0.1392 -0.1444,0.2378 -0.23,0.3078 -0.4113,0.4943 -0.1707,0.1756 -0.2246,0.3402 -0.3353,0.5938 -0.1011,0.2313 -0.5809,1.0764 -0.6933,1.1619l-0.0312 0.1523 -0.1448 0.1155 -0.0148 0.0921 0.0108 -0.0138 1.4987 -1.149c0.0943,-0.1041 0.0312,-0.1285 0.1452,-0.2188 0.0575,-0.1516 0.2485,-0.4031 0.3718,-0.5388 0.311,-0.3423 0.2002,-0.3971 0.4249,-0.4967l-0.3824 0.7074c-0.0856,0.1222 -0.0766,0.0475 -0.1023,0.2074 0.1428,-0.0455 0.3341,-0.1125 0.4902,-0.1716 0.2526,-0.0956 0.3219,-0.0998 0.4874,-0.2368l-0.4619 -1.4815 -0.8058 -0.0321 -0.4758 1.2c0.1377,-0.1001 0.2506,-0.2753 0.3576,-0.4497z"/>
  <path class="fil5" d="M-0.0001 5.0925l0 1.2271 0.2206 0.517c0.3996,0.2496 0.6304,-0.1306 0.9217,0.0193 0.1565,0.0193 0.0549,-0.2039 0.0279,-0.2591l-0.2439 -0.4338c-0.294,0.192 -0.1942,0.3305 -0.5209,0.614l0.565 -0.7446 0.3088 0.4458c0.4041,0.005 0.4077,-0.0493 0.4526,0.3812 0.0212,0.204 0.0986,0.3002 -0.0321,0.4908 0.0059,0.0177 0.0073,0.029 0.0202,0.0521 0.0348,0.0618 0.0528,0.0318 0.1008,0.0265 0.1958,-0.0662 0.2086,-0.0385 0.3774,0.0008 -0.0247,-0.2201 -0.4911,-1.2537 -0.6186,-1.4003l-0.2466 -0.3373c-0.0066,-0.009 -0.0164,-0.0243 -0.0245,-0.0366 -0.1896,-0.0353 -0.2167,-0.086 -0.2802,-0.2584 -0.0467,-0.1266 -0.1366,-0.4051 0.0389,-0.4587l-0.0202 -0.0929c-0.2302,-0.1314 0.0746,-0.0077 -0.3162,-0.2636 -0.0079,-0.0051 -0.0211,-0.0151 -0.0307,-0.0238 -0.1847,0.0054 -0.0966,-0.0414 -0.2844,-0.0585 0.0703,0.2726 0.2191,0.6752 0.0696,0.9298 -0.096,-0.2271 -0.051,-0.086 -0.0643,-0.3207 -0.0011,-0.0192 -0.0138,-0.134 -0.0162,-0.1454 -0.0375,-0.1787 0.037,0.1158 -0.0192,-0.0686l-0.3855 0.1979z"/>
  <path class="fil4" d="M-0.0001 7.5774c0.1508,0.0958 0.28,0.4242 0.4949,0.523l2.2863 0.8066c-0.0468,-0.3013 -0.3527,-1.231 -0.643,-1.3535 -0.1432,-0.0604 -0.2168,-0.0596 -0.3692,-0.0178 -0.2525,0.0695 -0.267,0.2025 -0.645,0.1298 -0.074,-0.0713 -0.06,0.1056 -0.0771,-0.1446 0.1863,0.011 0.0948,0.0097 0.1444,0.0613 0.3088,0.0146 0.3522,-0.0936 0.6294,-0.1534 -0.048,0.0053 -0.066,0.0353 -0.1008,-0.0265 -0.0129,-0.0231 -0.0143,-0.0344 -0.0202,-0.0521 -0.1509,0.0696 -0.2617,0.1214 -0.4647,0.0865l-0.1723 -0.4779c-0.1497,-0.0601 -0.0924,-0.0456 -0.1825,-0.0104 -0.0471,0.0184 -0.1206,0.063 -0.1871,0.0817 -0.1767,0.0496 -0.2954,0.0532 -0.4725,0.0184l-0.2206 -0.3466 0 0.8755z"/>
  <path class="fil4" d="M1.413 9.8209c0.0825,0.067 0.0784,-0.0513 0.0945,0.1877 -0.2129,0.0125 -0.1604,0.01 -0.2414,-0.2022l-0.6428 -0.5129c0.0401,-0.0317 -0.0856,-0.0558 0.1244,-0.0494 0.0429,0.0012 0.0913,0.0216 0.1352,0.0427 0.1951,0.0933 0.5042,0.3894 0.5301,0.5341zm-1.4131 -0.409c0.739,0.1687 0.9282,0.4153 1.4556,0.8708l0.2577 -1.4744c-0.4209,-0.326 -1.2084,-0.2927 -1.5476,-0.7402l-0.1657 -0.196 0 1.5398z"/>
  <path class="fil2" d="M4.4546 8.2875c1.1468,0.0672 1.7475,-0.0905 2.5152,-0.5865 0.0454,-0.0939 0.3337,-0.4921 0.4312,-0.5826 0.0711,-0.066 -0.0117,-0.0042 0.0971,-0.0649l-0.0156 0.0058c0.0646,-0.1798 0.1287,-0.2159 0.2915,-0.3026 0.2165,-0.2226 0.3143,-0.1286 0.5613,-0.0448 0.0726,0.0248 0.1459,0.0494 0.2043,0.0847 0.0054,0.0032 0.0767,0.0557 0.0789,0.0578 0.0664,0.0649 0.0093,0.0034 0.0684,0.1011l0.102 0.1406c0.0862,0.052 0.0277,0.0052 0.091,0.066l0.4741 0.4991c0.0492,0.0063 0.361,0.152 0.5174,0.1957 0.2499,0.0699 0.3158,0.0907 0.5996,0.1376 0.2418,0.04 1.2435,-0.0181 1.306,-0.0877 0.0795,-0.117 -0.0835,-0.1247 0.0852,-0.0993 -0.5487,0.0307 -0.1203,-0.0412 -0.8354,0.0339 -0.2797,0.0293 -0.2338,-0.0557 -0.4357,-0.0774 -0.2795,-0.0302 -0.1285,0.1185 -0.7978,-0.0971l-0.4545 -0.2945c-0.0065,-0.0057 -0.015,-0.0158 -0.0217,-0.0215l-0.1867 -0.1703c-0.1181,-0.1222 -0.0332,0.0142 -0.1325,-0.1366 0.1756,-0.182 0.0167,-0.0062 0.1682,-0.1433l-0.2544 0.042c-0.3431,-0.3554 -0.2011,-0.3267 -0.5216,-0.3974 -0.1015,-0.0224 -0.2547,-0.0926 -0.3218,-0.1005 -0.4871,-0.0574 -0.8588,0.681 -0.9738,0.7659 -0.0521,0.0385 -0.0825,0.0417 -0.1267,0.1038 -0.0757,0.1065 -0.0029,0.0466 -0.0676,0.1431 -0.1213,0.1272 -0.3389,0.2319 -0.3921,0.2701 -0.5805,0.417 -0.3594,0.2244 -0.7244,0.2964 -0.2186,0.0431 -0.7138,0.2575 -0.8655,0.1399 -0.0063,-0.0049 -0.0208,-0.0166 -0.0263,-0.021 -0.0811,-0.0636 -0.5623,-0.0916 -0.707,-0.0719 -0.1137,0.0154 -0.0943,0.0637 -0.1052,0.0462 -0.0063,-0.0101 -0.0174,0.0195 -0.0259,0.0294l0.3128 0.0002 0.088 0.1406z"/>
  <path class="fil0" d="M-0.0001 11.148l1.2486 -0.3029 0.1587 -0.4048c-0.4396,-0.4981 -0.6917,-0.6992 -1.4073,-0.8942l0 1.6019z"/>
  <path class="fil6" d="M8.6733 9.7187c-0.1036,0.2056 -0.3386,0.4678 -0.5134,0.6178l-0.2934 -0.0452 -0.0332 -0.2091c-0.0767,-0.1266 -0.1251,-0.2442 -0.2239,-0.3699 -0.1876,-0.2386 -0.1952,-0.2597 -0.3431,-0.3086l0.2271 0.3248c0.1506,0.13 0.1869,0.1637 0.231,0.3313 -0.0721,-0.0441 -0.2313,-0.1626 -0.324,-0.2963l-0.3308 -0.1387 -0.0165 -0.2421 -0.0614 0.0436 -0.0307 0.3275c0.1803,0.0323 0.1405,-0.0278 0.2669,0.1128 0.1834,0.0365 0.2174,0.1756 0.3329,0.2892 0.0958,0.0941 0.2377,0.2792 0.3175,0.3058 0.1064,0.0194 0.0621,-0.0182 0.1576,0.0669l-0.1513 0.0477c-0.3104,-0.0057 -0.5748,0.0465 -0.856,-0.056 -0.146,-0.0532 -0.519,-0.2105 -0.6536,-0.124 0.886,0.3627 1.2921,0.4846 2.4437,-0.0013 1.2092,-0.5103 0.4054,-0.2074 1.3956,-0.9004 0.1348,-0.0943 0.3185,-0.2102 0.3166,-0.4067l-0.4728 0.3819c-0.7128,0.5522 -0.7203,0.7022 -1.6987,0.9364l0.315 -0.5095c0.0877,-0.1127 0.1226,-0.0927 0.2039,-0.1909 0.1418,-0.1716 -0.0443,-0.0916 0.2026,-0.1917 -0.0443,-0.5141 -0.0058,-0.4461 -0.1616,-0.4747l0.0509 0.3865 -0.2969 0.2929z"/>
  <path class="fil7" d="M1.1701 6.5968c0.1664,0.1071 0.0096,0.1163 0.1709,0.2874l0.0934 -0.149c-0.0806,0.2593 0.1953,0.3122 -0.1755,0.4947l-0.0234 -0.273 -0.0933 -0.101c-0.2913,-0.1499 -0.5221,0.2303 -0.9217,-0.0193l-0.2206 -0.517 0 0.3823 0.2206 0.3466c0.1771,0.0348 0.2958,0.0312 0.4725,-0.0184 0.0665,-0.0187 0.14,-0.0633 0.1871,-0.0817 0.0901,-0.0352 0.0328,-0.0497 0.1825,0.0104l0.1723 0.4779c0.203,0.0349 0.3138,-0.0169 0.4647,-0.0865 0.1307,-0.1906 0.0533,-0.2868 0.0321,-0.4908 -0.0449,-0.4305 -0.0485,-0.3762 -0.4526,-0.3812l-0.3088 -0.4458 -0.565 0.7446c0.3267,-0.2835 0.2269,-0.422 0.5209,-0.614l0.2439 0.4338z"/>
  <path class="fil8" d="M10.669 0.2237c0.3852,0.0502 5.6573,-0.0114 6.1775,-0.0165 -0.0234,0.4351 -0.0003,0.8406 0.0011,1.2792 0.0013,0.4401 -0.013,0.8835 0.0028,1.3232 0.0155,0.4338 0.0013,0.8486 0.0051,1.2791 0.002,0.221 0.0066,0.4407 0.0059,0.6617l-0.0001 0.4874c0.0137,0.0985 -0.009,-0.0125 0.0165,0.0768l0.0311 0.062 -0.02 -5.2381 -3.1273 0.0371c-0.1945,-0.0009 -2.9227,-0.0575 -3.0926,0.0481z"/>
  <path class="fil9" d="M-0.0001 4.3319l0.3278 0.3743c-0.0435,0.0565 -0.0144,0.0297 -0.0699,0.0778l-0.2579 0.1751 0 0.1334 0.3855 -0.1979c0.0562,0.1844 -0.0183,-0.1101 0.0192,0.0686 0.0024,0.0114 0.0151,0.1262 0.0162,0.1454 0.0133,0.2347 -0.0317,0.0936 0.0643,0.3207 0.1495,-0.2546 0.0007,-0.6572 -0.0696,-0.9298 0.1878,0.0171 0.0997,0.0639 0.2844,0.0585l1.4174 0.0159c-0.0949,-0.0006 -0.0001,0.015 -0.0441,-0.0781 -0.4237,-0.1173 -0.8207,-0.0203 -1.141,-0.103 -0.3215,-0.0829 -0.5986,-0.3096 -0.9323,-0.3718l0 0.3109z"/>
  <path class="fil10" d="M8.4655 4.5296c0.1009,-0.117 0.0364,-0.0852 0.061,-0.0065 -0.151,0.0555 -0.0338,-0.0939 -0.1017,0.1829 0.2338,-0.0653 0.0544,-0.002 0.1622,-0.0441l0.0789 -0.1447c0.1508,0.097 0.0365,-0.0543 0.0531,0.1081 0.1232,-0.0746 0.1456,-0.0884 0.2349,-0.1916l0.107 0.0345 1.0663 -0.8087 -0.0278 -0.0415c-0.072,0.0061 -0.0456,-0.008 -0.131,0.0405 -0.0429,0.0692 0.0309,-0.0023 -0.0531,0.0628 -0.0279,0.0216 -0.0486,0.0269 -0.0877,0.05 -0.0637,0.0375 -0.0828,0.0397 -0.1241,0.0953 -0.1462,0.1408 -0.1395,0.0459 -0.2604,0.1782 -0.0493,-0.0023 -0.1879,0.0352 -0.2206,-0.0438 -0.0115,-0.0278 -0.0329,-0.0286 -0.0479,-0.0444l0.1896 -0.0585c0.1389,-0.1389 -0.0205,0.008 0.1172,-0.0724 0.0886,-0.0517 0.04,-0.0169 0.1002,-0.0768 0.2182,-0.2175 0.0971,0.0115 0.279,-0.2124 0.1036,-0.1275 -0.0492,0.0151 0.0865,-0.0896 0.0057,-0.0044 0.1317,0.0103 0.1173,-0.1463 -0.1184,0.0419 -0.3258,0.222 -0.4266,0.2815 -0.2815,0.1663 -0.1693,-0.065 -0.4116,0.2052l-0.5786 0.5228c-0.1187,0.1008 -0.0934,0.0554 -0.1821,0.2195z"/>
  <path class="fil11" d="M15.8454 4.6602c-0.0012,0.0833 -0.0244,0.0719 0.0512,0.0554 0.1225,-0.0807 0.1168,-0.0868 0.3131,-0.072 0.1095,0.7901 0.3623,1.5958 -0.0445,1.9809 -0.2915,0.2758 -0.2376,0.3376 -0.4187,0.4261l-0.3972 -0.2704 -0.0498 0.0535c0.2839,0.0088 0.0216,-0.0122 0.138,0.0737 0.0841,0.1588 0.1479,0.1983 0.309,0.2677 0.4797,-0.471 0.7022,-0.5639 0.7835,-1.0634 0.0936,-0.5753 0.0721,-1.0965 -0.152,-1.5431l-0.5326 0.0916z"/>
  <path class="fil12" d="M3.634 15.5551l-0.0255 0.1058 0.1038 -0.0391c0.2944,-0.1563 0.6606,-0.4858 0.8752,-0.682l0.8432 -0.7168c0.0804,-0.1659 -0.002,-0.1036 0.1677,-0.1294 -0.028,0.0884 0.0125,0.02 -0.0392,0.0982 -0.0563,0.0851 -0.0137,0.0188 -0.088,0.0776l-1.1638 1.2533c0.3663,-0.0761 1.2423,-1.305 1.5145,-1.4709 -0.1212,-0.0286 0.1564,-0.1758 -0.1516,0.0051l0.0185 -0.1495c-0.5602,0.3076 -1.1162,0.948 -1.5427,1.2521 -0.1066,0.076 -0.4555,0.3053 -0.5121,0.3956z"/>
  <path class="fil13" d="M16.2041 3.5485c0.1248,-0.0266 0.0197,0.0296 0.1228,-0.0685l0.3798 -0.4058 -0.0068 -0.9622c-0.044,0.0082 -0.2726,0.1393 -0.3009,0.1623 -0.1547,0.1257 -0.0301,0.211 -0.0558,0.3872 -0.0506,0.3458 -0.2144,0.3978 -0.1391,0.887z"/>
  <path class="fil14" d="M12.6219 7.644c0.1262,0.0015 0.309,-0.084 0.401,-0.1589 0.0584,-0.0991 0.0288,-0.0771 0.1111,-0.1411 0.1532,-0.1189 0.0464,-0.037 0.1809,-0.0824l0.0703 -0.0272c0.0484,-0.0605 0.0137,-0.0439 0.105,-0.1122 0.1094,-0.0819 -0.0022,-0.0023 0.0908,-0.0388l0.2551 -0.2606c0.0859,-0.1218 0.2756,-0.2357 0.3279,-0.3956 0.1063,-0.1523 0.1198,-0.1298 0.1474,-0.272 0.0533,-0.2031 0.0679,-0.1088 -0.0646,-0.1802 -0.056,0.1434 -0.0427,0.0739 -0.0164,0.2656 -0.3234,0.1929 -0.4588,0.2957 -0.6894,0.6148 -0.2124,0.2938 -0.588,0.4167 -0.7578,0.5358 -0.377,0.2645 -0.3744,0.0983 -0.549,0.3537 0.2169,-0.0734 0.2235,-0.1058 0.3877,-0.1009z"/>
  <path class="fil15" d="M8.7642 11.4261c-0.1193,0.1721 -0.0737,0.0397 -0.0944,0.0286l0.0944 -0.0286zm-1.219 0.3645l0.1228 0.017c-0.0097,0.0093 -0.025,0.0087 -0.0304,0.0266l-0.1655 0.1456c0.1705,0.0128 0.0624,-0.0403 0.1585,0.0405 0.1433,0.007 0.0462,0.0153 0.0868,-0.0541l-0.0638 -0.0245c0.0287,-0.0643 -0.0865,0.0537 0.0552,-0.0975 0.057,-0.0607 0.0266,-0.0469 0.178,-0.0406l-0.0806 0.1079c0.1486,-0.0172 0.2619,0.0859 0.2619,-0.0307 -0.104,-0.0031 -0.0629,0.0061 -0.1209,-0.0291 0.2462,-0.1869 0.1243,-0.1239 0.4033,-0.1621 0.1764,-0.0241 0.2415,-0.1282 0.3241,0.0053 0.1564,-0.064 0.0897,-0.0083 0.1643,-0.0914l-0.0785 -0.034 0.4524 -0.0087c-0.0927,-0.0806 -0.0862,-0.0568 -0.3472,-0.0409l-0.1014 -0.0938 -0.1057 -0.0651c-0.2336,-0.1216 -0.9585,0.2158 -1.1133,0.4296z"/>
  <path class="fil16" d="M14.2917 15.7915c0.1554,0.0044 0.0349,0.0406 0.1533,-0.0385 0.0218,-0.2153 0.6563,-1.4475 0.6633,-1.4753 0.0058,-0.1831 -0.0352,-0.3412 -0.0589,-0.5302 -0.0352,-0.2802 -0.4527,-0.9021 -0.599,-1.1553 0.0214,0.2258 0.0924,0.1843 0.1821,0.3687 0.0469,0.0964 0.3873,1.0989 0.3374,1.2983 -0.0177,0.0705 -0.6666,1.41 -0.6782,1.5323z"/>
  <path class="fil17" d="M9.9739 8.8387c-0.0974,0.0582 -0.0448,0.0177 -0.1363,0.0538 -0.1241,0.0491 -0.0468,0.0121 -0.109,0.0521 0.2459,0.0218 0.2038,-0.0155 0.4009,-0.0308l0.4219 -0.1105 0.2973 0.2725 -0.1694 0.6516c-0.0531,0.2302 -0.0415,0.0726 0.0648,0.1138 0.0868,-0.184 0.1413,-0.2937 0.2188,-0.5191 0.1265,-0.3678 0.1259,-0.123 0.1439,-0.5988 -0.4733,-0.2198 -0.7031,0.1153 -1.1329,0.1154z"/>
  <path class="fil18" d="M16.3197 7.6916c-0.1248,0.0374 -0.1448,0.0411 -0.263,0.1006 -0.0396,0.0199 -0.0824,0.0414 -0.1134,0.0642 -0.0635,0.0469 -0.0393,0.0355 -0.0813,0.0808 0.0965,-0.0294 0.1776,-0.0529 0.2844,-0.0399 0.0192,0.0023 0.0265,0.0014 0.0452,0.0056 0.0191,0.0043 0.0271,0.0048 0.0452,0.0108l0.1269 0.0748c-0.2392,0.0014 -0.3547,-0.0905 -0.5288,0.069 0.1588,-0.0006 0.3308,-0.0111 0.4874,-0.0012 0.2423,0.0153 0.1833,0.0471 0.3956,0.1102l0.0113 0.0245 0.0318 -0.7028 -0.4411 0.3495c-0.0745,-0.1066 -0.053,0.0379 -0.0002,-0.1461z"/>
  <path class="fil14" d="M1.5216 5.73c0.0871,0.0865 0.195,0.0716 0.3094,0.2279 0.0606,0.0828 0.1545,0.2719 0.2117,0.37 0.0939,0.1614 0.277,0.6879 0.3631,0.7604 0.2159,0.037 0.16,-0.1011 0.0183,-0.3201 -0.098,-0.1513 -0.1606,-0.2213 -0.2315,-0.4275 -0.164,-0.4767 -0.1518,-0.4872 -0.6489,-0.7267 -0.0617,0.0835 -0.0316,-0.0281 -0.0221,0.116z"/>
  <path class="fil19" d="M12.8479 4.4507c0.257,0.0069 1.5535,-0.0427 1.8095,0.1326 0.2203,-0.074 0.3207,0.011 0.5704,-0.0112l-0.0364 -0.2482 -0.5917 0.112c-0.0799,-0.0566 -0.0195,0.0193 -0.0422,-0.103 -0.4021,0.0569 -0.3619,0.0901 -0.84,0.0522 -0.2053,-0.0163 -0.5909,-0.0415 -0.7938,0.0213l-0.0758 0.0443z"/>
  <path class="fil20" d="M12.4774 8.9498c0.4342,0.2063 0.5396,-0.549 0.4347,-0.8964 -0.2173,0.4764 0.1453,0.1831 -0.3352,0.7928 -0.022,-0.3444 0.2491,-0.71 0.082,-1.0447 -0.0816,0.2096 -0.0686,0.4611 -0.1881,0.8632 -0.0749,0.2521 -0.0261,0.2283 0.0066,0.2851z"/>
  <path class="fil9" d="M-0.0001 2.2937l0 0.1399c0.2094,-0.0587 0.3179,-0.1559 0.5275,-0.2374 0.1852,-0.0719 0.3364,-0.1392 0.5378,-0.2194 0.3271,-0.1302 0.7832,-0.2848 1.0473,-0.4306l-0.0673 -0.0352c-0.4524,0.0147 -1.5561,0.6541 -2.0453,0.7827z"/>
  <path class="fil21" d="M11.5795 12.0567c-0.2286,0.1531 0.0119,0.181 -0.3085,0.3029 -0.1561,0.0595 -0.0878,-0.0328 -0.1556,0.1051 0.1339,0.0472 0.1236,-0.1199 0.1012,0.1092 -0.2282,0.0052 -0.0265,0.0199 -0.1031,-0.0994l-0.1599 0.1652c0.1959,-0.0151 0.0837,-0.0353 0.1178,0.0939l0.3084 -0.1734c0.0108,0.0131 0.0355,0.0082 0.0418,0.0294 0.0556,0.1862 -0.0202,-0.0235 0.0742,0.0485 0.0466,-0.1618 0.2417,-0.204 0.4233,-0.4487l-0.1111 0.0055c-0.1239,-0.0107 -0.0166,0.0446 -0.0757,-0.0344 0.0766,-0.0821 0.0479,-0.0448 0.1203,-0.0742l0.0148 -0.0921c-0.0728,-0.0597 -0.028,-0.0364 -0.1072,0.0576 -0.0413,0.0491 -0.065,0.0785 -0.1012,0.1216 -0.1151,-0.059 -0.1216,0.0967 -0.0795,-0.1167z"/>
  <path class="fil22" d="M1.5794 6.0293l0.0655 -0.1448c0.2519,0.3812 0.3341,0.4264 0.5158,1.0252 0.0416,0.1371 0.0999,0.2576 0.1922,0.3575 0.0032,-0.1856 -0.0253,-0.0564 0.0727,-0.0993l-0.0198 -0.0796c-0.0861,-0.0725 -0.2692,-0.599 -0.3631,-0.7604 -0.0572,-0.0981 -0.1511,-0.2872 -0.2117,-0.37 -0.1144,-0.1563 -0.2223,-0.1414 -0.3094,-0.2279l-0.2133 -0.0746c0.0081,0.0123 0.0179,0.0276 0.0245,0.0366l0.2466 0.3373z"/>
  <path class="fil20" d="M7.414 8.0651l0.3931 1.0614c0.2149,-0.1666 -0.0851,-0.9218 -0.1933,-1.052 -0.0901,-0.1083 -0.0186,-0.0442 -0.1179,-0.089l-0.1061 -0.0078 0.0242 0.0874z"/>
  <path class="fil6" d="M15.2089 7.0076c-0.0074,-0.1454 0.0343,-0.0454 -0.0358,-0.1088 -0.2214,0.1783 -0.0466,0.1393 -0.1739,0.3104l-0.0737 0.0091 -0.2526 -0.0079 0.0395 -0.4211c-0.0152,-0.0717 -0.0078,-0.0799 -0.018,-0.1862 0.203,0.0375 0.1751,0.0794 0.1928,0.0396 0.002,-0.0045 0.0093,0.0034 0.0141,0.0043 0.0653,-0.0263 0.0117,-0.0141 0.1007,-0.027 0.0035,-0.0005 0.1478,-0.0056 0.1514,-0.0058l0.0696 -0.1631c0.0173,-0.1975 0.0116,-0.2146 0.2111,-0.2314 0.1414,-0.0119 0.2507,0.0092 0.3836,-0.0247l-0.6495 -0.0405 -0.0906 0.3356 -0.5113 0.5088c-0.008,0.1811 -0.0458,0.3242 0.1219,0.3516 0.0707,0.0116 0.3695,-0.0204 0.4352,-0.0419l0.0855 -0.301z"/>
  <path class="fil17" d="M5.5492 3.2638c0.3996,0.0511 1.0367,0.5241 1.2301,0.7238l0.1131 0.0465 -0.0518 -0.123c-0.0834,-0.1883 -0.9076,-0.6963 -1.261,-0.7581l-0.1737 -0.005 0.1433 0.1158z"/>
  <path class="fil23" d="M15.0559 5.3133l-0.1152 0.08c-0.1002,0.0785 -0.1728,0.1849 -0.2537,0.2836l0.0269 0.1347c0.1112,-0.112 0.0597,-0.2133 0.1899,-0.3162 0.1856,-0.1465 0.3192,0.0247 0.5427,-0.5095 0.1012,-0.2418 -0.0214,-0.2654 0.0298,-0.4122 -0.0549,-0.1666 0.0829,-0.0732 -0.0946,-0.146l0.0252 -0.0644c0.2003,-0.0225 0.1679,0.0044 0.2517,-0.1285l-0.3345 0.0928c-0.006,0.4591 0.2527,0.1532 -0.1423,0.9999l-0.1259 -0.0142z"/>
  <path class="fil24" d="M13.5073 10.7047c0.0837,-0.0181 0.108,0.0783 0.312,-0.1207 0.0257,-0.1599 0.0167,-0.0852 0.1023,-0.2074l0.3824 -0.7074c-0.2247,0.0996 -0.1139,0.1544 -0.4249,0.4967 -0.1233,0.1357 -0.3143,0.3872 -0.3718,0.5388z"/>
  <path class="fil25" d="M14.9013 6.647c-0.0447,0.2891 0.0273,0.2571 0.0319,0.5148 0.0773,-0.0484 0.0289,0.0683 0.0673,-0.053l-0.0013 0.1004c0.1273,-0.1711 -0.0475,-0.1321 0.1739,-0.3104 0.0701,0.0634 0.0284,-0.0366 0.0358,0.1088 0.0722,-0.0648 0.0311,0.0796 0.071,-0.0815l0.1576 -0.0187c-0.1164,-0.0859 0.1459,-0.0649 -0.138,-0.0737l0.0498 -0.0535 -0.1457 0.0482 0.0194 -0.3773 -0.0696 0.1631c-0.0036,0.0002 -0.1479,0.0053 -0.1514,0.0058 -0.089,0.0129 -0.0354,0.0007 -0.1007,0.027z"/>
  <path class="fil14" d="M1.2661 9.8064c0.1114,0.1126 -0.0236,0.0338 0.216,0.1685l-0.0691 -0.154c-0.0259,-0.1447 -0.335,-0.4408 -0.5301,-0.5341 -0.0439,-0.0211 -0.0923,-0.0415 -0.1352,-0.0427 -0.21,-0.0064 -0.0843,0.0177 -0.1244,0.0494l0.6428 0.5129z"/>
  <path class="fil26" d="M6.2154 3.2466c0.0608,0.0848 -0.0397,0.0638 0.1337,0.142 0.3747,0.1689 0.4062,0.1726 0.7347,0.5856 0.2778,0.3495 0.0681,0.2122 0.2949,0.268 -0.3258,-0.4486 -0.5711,-0.9429 -1.1633,-0.9956z"/>
  <path class="fil9" d="M5.7747 10.2197c0.1223,-0.1989 0.2036,-0.1052 0.3155,-0.3189 -0.7317,0.3525 -0.3069,0.1249 -0.6434,0.2029l0.4653 0.5558c0.1068,0.1297 0.0415,0.0931 0.1763,0.1367l-0.3137 -0.5765z"/>
  <path class="fil27" d="M8.0798 10.2091l0.1551 0.0082c0.1349,-0.1321 0.1447,-0.2911 0.3953,-0.5396l0.2752 -0.4299c-0.2532,0.0163 -0.0454,0.0541 -0.4154,0.4647l-0.4734 0.4044c0.0271,0.1824 -0.0073,0.0239 0.0632,0.0922z"/>
  <path class="fil28" d="M7.774 6.7567c-0.0967,0.2638 -0.0447,0.065 0.0344,0.1505l0.4475 -0.0836 0.1047 0.0296 -0.0253 -0.1413c-0.247,-0.0838 -0.3448,-0.1778 -0.5613,0.0448z"/>
  <path class="fil13" d="M-0.0001 4.9591l0.2579 -0.1751c0.0555,-0.0481 0.0264,-0.0213 0.0699,-0.0778l-0.3278 -0.3743 0 0.6272z"/>
  <path class="fil29" d="M7.7946 5.6749c0.205,-0.0719 0.0962,-0.1197 0.1416,-0.3486 0.0377,-0.1901 0.0845,-0.1495 0.0356,-0.4148l-0.0728 0.0567 -0.0276 -0.0787c-0.0379,0.0408 -0.0413,-0.0026 -0.0591,0.166l-0.0177 0.6194z"/>
  <path class="fil30" d="M8.1158 8.5757c0.1453,-0.1196 0.1196,-0.3076 0.2235,-0.4698 0.0399,-0.0622 0.1041,-0.1527 0.1489,-0.2104 0.1072,-0.1386 0.0221,0.0184 0.1771,-0.2439 -0.2989,0.0474 -0.6561,0.7817 -0.5495,0.9241z"/>
  <path class="fil31" d="M7.0574 12.034l-0.0198 0.1734 0.1407 -0.0215 0.0129 -0.0686c0.1845,-0.035 0.2414,0.0046 0.2809,-0.1375l0.1655 -0.1456c0.0054,-0.0179 0.0207,-0.0173 0.0304,-0.0266l-0.1228 -0.017c-0.1611,0.0563 -0.3277,0.1914 -0.4878,0.2434z"/>
  <path class="fil32" d="M9.3642 3.8981c0.1535,-0.0701 0.0416,-0.0082 0.1633,-0.1155 0.2973,0.0392 0.088,-0.0268 0.176,0.084 0.0413,-0.0556 0.0604,-0.0578 0.1241,-0.0953 0.0391,-0.0231 0.0598,-0.0284 0.0877,-0.05 0.084,-0.0651 0.0102,0.0064 0.0531,-0.0628 0.0066,-0.01 0.0151,-0.0242 0.0191,-0.0306l0.0717 -0.1113c0.0094,-0.0195 0.0433,-0.0947 0.0518,-0.1107 0.0419,-0.0784 0.0135,-0.0314 0.0564,-0.0881l-0.103 -0.0172c0.0144,0.1566 -0.1116,0.1419 -0.1173,0.1463 -0.1357,0.1047 0.0171,-0.0379 -0.0865,0.0896 -0.1819,0.2239 -0.0608,-0.0051 -0.279,0.2124 -0.0602,0.0599 -0.0116,0.0251 -0.1002,0.0768 -0.1377,0.0804 0.0217,-0.0665 -0.1172,0.0724z"/>
  <path class="fil33" d="M8.8919 7.4872l0.1171 0.0432c-0.1456,0.1096 -0.0485,0.0448 -0.1035,-0.0264l-0.0435 0.1166c0.1236,0.0054 0.0287,0.0458 0.161,-0.017 0.218,-0.1034 -0.1001,0.0738 0.0555,-0.0418l0.0518 -0.0507c0.0736,0.0529 0.1245,0.0986 0.2237,0.1501l-0.4741 -0.4991c-0.0633,-0.0608 -0.0048,-0.014 -0.091,-0.066 0.0968,0.2261 0.0469,0.2294 0.103,0.3911z"/>
  <path class="fil34" d="M8.0798 10.2091c-0.0776,0.0566 0.1193,0.0974 -0.1404,0.0359l-0.1061 -0.1628 0.0332 0.2091 0.2934 0.0452c0.1748,-0.15 0.4098,-0.4122 0.5134,-0.6178 0.0199,-0.0914 0.0401,-0.0851 -0.0431,-0.041 -0.2506,0.2485 -0.2604,0.4075 -0.3953,0.5396l-0.1551 -0.0082z"/>
  <path class="fil35" d="M7.875 8.2154c-0.0502,-0.2301 -0.1836,-0.6328 -0.4511,-0.6233 0.0172,0.1394 0.1086,0.1938 0.1955,0.3011 0.1291,0.1595 0.0672,0.2094 0.2556,0.3222z"/>
  <path class="fil18" d="M7.5176 7.2645c0.0034,0.006 -0.0351,0.1975 0.3785,0.0936l0.3625 -0.1377c-0.0979,-0.062 0.1339,-0.0649 -0.1268,-0.0366 -0.1546,0.0169 0.0059,0.061 -0.4151,0.0485 -0.1546,-0.0046 -0.0936,-0.02 -0.1991,0.0322z"/>
  <path class="fil36" d="M1.1701 6.5968c0.027,0.0552 0.1286,0.2784 -0.0279,0.2591l0.0933 0.101 0.0234 0.273c0.3708,-0.1825 0.0949,-0.2354 0.1755,-0.4947l-0.0934 0.149c-0.1613,-0.1711 -0.0045,-0.1803 -0.1709,-0.2874z"/>
  <path class="fil30" d="M8.3245 6.9594l0.0927 -0.0364 -0.0566 -0.0698 -0.1047 -0.0296 -0.5885 0.1285c0.0576,0.0529 -0.1188,0.1071 0.3179,0.0494 0.1173,-0.0155 0.2194,-0.0243 0.3392,-0.0421z"/>
  <path class="fil37" d="M7.4825 7.0593c0.1851,0.0091 0.5455,0.033 0.7319,-0.0356 0.0673,-0.0247 0.0918,-0.0518 0.1101,-0.0643 -0.1198,0.0178 -0.2219,0.0266 -0.3392,0.0421 -0.4367,0.0577 -0.2603,0.0035 -0.3179,-0.0494l0.5885 -0.1285 -0.4475 0.0836c-0.0791,-0.0855 -0.1311,0.1133 -0.0344,-0.1505 -0.1628,0.0867 -0.2269,0.1228 -0.2915,0.3026z"/>
  <path class="fil38" d="M10.0994 3.618l0.0278 0.0415c0.2107,-0.1117 0.4274,-0.1761 0.6538,-0.4088 -0.1507,-0.0256 -0.095,-0.0341 -0.21,0.0257 -0.1977,0.1027 -0.1604,0.0843 -0.3162,0.2151l-0.1554 0.1265z"/>
  <path class="fil39" d="M1.067 4.9383c0.0698,0.2755 -0.082,0.2366 0.0797,0.4387 0.1784,-0.282 -0.2908,-0.3426 0.5044,-0.4502l-0.0681 -0.0427c-0.2381,-0.0326 -0.0992,0.0606 -0.3587,0.0139l-0.1573 0.0403z"/>
  <path class="fil8" d="M11.5795 12.0567c-0.0421,0.2134 -0.0356,0.0577 0.0795,0.1167 0.0362,-0.0431 0.0599,-0.0725 0.1012,-0.1216 0.0792,-0.094 0.0344,-0.1173 0.1072,-0.0576l0.1448 -0.1155 0.0312 -0.1523c-0.1848,0.0815 -0.1285,0.0188 -0.2589,0.1307 -0.0713,0.0611 -0.1408,0.135 -0.205,0.1996z"/>
  <path class="fil29" d="M15.6913 5.0884c-0.0518,-0.1564 -0.0462,-0.1763 0.0111,-0.2988 0.0579,0.2905 0.0035,0.0633 0.0937,0.1731l-0.0048 -0.1241c0.0753,-0.0659 0.0553,-0.0519 0.1053,-0.123 -0.0756,0.0165 -0.0524,0.0279 -0.0512,-0.0554l-0.1074 0.0367 0.0063 -0.1095c-0.0549,0.0576 -0.0772,-0.0476 -0.0543,0.0814l0.0121 -0.1731c-0.1069,0.0564 -0.0819,0.1984 -0.098,0.3349 -0.0061,0.0513 -0.0259,0.0751 -0.0141,0.1377 0.0253,0.1347 0.0566,0.0942 0.1013,0.1201z"/>
  <path class="fil40" d="M9.3642 3.8981l-0.1896 0.0585c0.015,0.0158 0.0364,0.0166 0.0479,0.0444 0.0327,0.079 0.1713,0.0415 0.2206,0.0438 0.1209,-0.1323 0.1142,-0.0374 0.2604,-0.1782 -0.088,-0.1108 0.1213,-0.0448 -0.176,-0.084 -0.1217,0.1073 -0.0098,0.0454 -0.1633,0.1155z"/>
  <path class="fil41" d="M15.6913 5.0884c0.0534,0.1397 0.0967,0.1775 0.2785,0.1933 -0.0215,-0.1219 -0.1111,-0.2187 -0.1737,-0.319 -0.0902,-0.1098 -0.0358,0.1174 -0.0937,-0.1731 -0.0573,0.1225 -0.0629,0.1424 -0.0111,0.2988z"/>
  <path class="fil42" d="M14.9255 7.2183l0.0077 -0.0565c-0.0146,0.0017 -0.0602,0.0051 -0.0678,0.0045l-0.055 -0.3429 -0.098 -0.0341 -0.0395 0.4211 0.2526 0.0079z"/>
  <path class="fil43" d="M6.9698 7.701c0.1679,-0.035 0.4721,-0.4892 0.5283,-0.6475 -0.1088,0.0607 -0.026,-0.0011 -0.0971,0.0649 -0.0975,0.0905 -0.3858,0.4887 -0.4312,0.5826z"/>
  <path class="fil1" d="M14.7124 6.7893l0.098 0.0341 0.055 0.3429c0.0076,0.0006 0.0532,-0.0028 0.0678,-0.0045 -0.0046,-0.2577 -0.0766,-0.2257 -0.0319,-0.5148 -0.0048,-0.0009 -0.0121,-0.0088 -0.0141,-0.0043 -0.0177,0.0398 0.0102,-0.0021 -0.1928,-0.0396 0.0102,0.1063 0.0028,0.1145 0.018,0.1862z"/>
  <path class="fil44" d="M8.0681 11.8808c0.1671,-0.0825 0.378,-0.1698 0.6065,-0.1859 -0.0826,-0.1335 -0.1477,-0.0294 -0.3241,-0.0053 -0.279,0.0382 -0.1571,-0.0248 -0.4033,0.1621 0.058,0.0352 0.0169,0.026 0.1209,0.0291z"/>
  <path class="fil45" d="M2.0452 1.511l0.0673 0.0352 0.5088 -0.1678c-0.1041,-0.103 0.107,-0.0859 -0.1396,-0.0726 -0.0137,0.0007 -0.1506,0.0559 -0.1771,0.0644 -0.1387,0.0448 -0.1595,0.019 -0.2594,0.1408z"/>
  <path class="fil46" d="M7.0314 3.5722c0.0433,0.1582 0.0841,0.1697 0.1967,0.3003 0.1231,0.143 0.1195,0.1966 0.2942,0.2761 -0.1086,-0.1712 -0.2906,-0.5166 -0.4909,-0.5764z"/>
  <path class="fil47" d="M14.2922 12.4061l0.1129 0.0393 -0.0424 -0.1109c-0.0978,-0.0666 -0.3114,-0.2133 -0.4597,-0.1299 0.0578,0.1349 -0.0105,0.059 0.1852,0.1203 0.0814,0.0255 0.1233,0.0379 0.204,0.0812z"/>
  <path class="fil48" d="M15.7093 9.1394l0.0636 0.0364 0.504 -0.2352c-0.0303,-0.0174 0.0768,-0.123 -0.2808,0.0235 -0.1501,0.0615 -0.1975,0.0666 -0.2868,0.1753z"/>
  <path class="fil49" d="M14.3114 6.1552c-0.0276,0.1422 -0.0411,0.1197 -0.1474,0.272 0.1512,-0.0104 0.0918,0.0101 0.0439,0.1303 0.1936,-0.1591 0.1007,-0.2988 0.2603,-0.3959l0.0366 -0.1741c-0.0928,0.036 -0.0325,-0.0029 -0.1004,0.0641l-0.093 0.1036z"/>
  <path class="fil50" d="M8.6007 4.7495c-0.0932,-0.1305 -0.0487,-0.0593 -0.0137,-0.0876 -0.1078,0.0421 0.0716,-0.0212 -0.1622,0.0441 0.0679,-0.2768 -0.0493,-0.1274 0.1017,-0.1829 -0.0246,-0.0787 0.0399,-0.1105 -0.061,0.0065l-0.1592 0.101c0.0132,0.1129 0.0093,0.1761 0.0741,0.2673l0.1016 -0.0981c0.1136,-0.0793 -0.1106,0.0198 0.1187,-0.0503z"/>
  <path class="fil51" d="M4.7292 12.7041l-0.2744 -0.6219c-0.0546,0.0941 -0.0429,0.0737 0.0599,0.3296 0.16,0.3981 0.0652,0.2429 0.2145,0.2923z"/>
  <path class="fil52" d="M8.879 5.6074l-0.8025 0.0452 0.0096 -0.8504 -0.0144 0.8956c0.2059,0.0403 0.2003,0.0072 0.397,-0.012 0.2114,-0.0206 0.2792,0.045 0.4103,-0.0784z"/>
  <path class="fil53" d="M8.5288 7.4171l0.0747 0.0094c-0.0272,0.0235 -0.02,0.0323 -0.0652,0.0237 -0.0645,-0.0122 -0.0056,0.0005 -0.0095,-0.0331zm-0.2503 0.2513c0.0606,0.0321 0.0448,-0.0615 0.0412,0.0701 0.0653,-0.0547 0.1135,-0.1176 0.1881,-0.1727 0.1346,-0.0997 0.1468,0.0075 0.1186,-0.1893 -0.1944,-0.0231 -0.0481,-0.0089 -0.0976,0.0406 -0.1378,0.0555 -0.1934,0.1401 -0.2503,0.2513z"/>
  <path class="fil54" d="M8.8389 11.6035c0.1633,0.0157 0.1619,0.0115 0.3146,0.055 0.3286,0.0936 0.1978,0.0103 0.2443,-0.0273l-0.185 -0.0704 -0.4524 0.0087 0.0785 0.034z"/>
  <path class="fil55" d="M10.1295 8.9138c-0.1971,0.0153 -0.155,0.0526 -0.4009,0.0308 0.0622,-0.04 -0.0151,-0.003 0.109,-0.0521 0.0915,-0.0361 0.0389,0.0044 0.1363,-0.0538 -0.2243,-0.0044 -0.1337,-0.0297 -0.3162,0.0578 0.0345,0.0491 0.0742,0.1672 0.3558,0.0914 0.1806,-0.0485 0.0567,0.0012 0.116,-0.0741z"/>
  <path class="fil56" d="M7.4004 9.7635c0.0927,0.1337 0.2519,0.2522 0.324,0.2963 -0.0441,-0.1676 -0.0804,-0.2013 -0.231,-0.3313 -0.0316,0.0812 0.0155,0.0693 -0.093,0.035z"/>
  <path class="fil43" d="M8.3606 6.8532l0.0566 0.0698c0.2418,-0.1991 -0.016,0.1545 0.0948,-0.0593l0.1749 0.0918c-0.0591,-0.0977 -0.002,-0.0362 -0.0684,-0.1011 -0.0022,-0.0021 -0.0735,-0.0546 -0.0789,-0.0578 -0.0584,-0.0353 -0.1317,-0.0599 -0.2043,-0.0847l0.0253 0.1413z"/>
  <path class="fil57" d="M8.3197 7.7385c0.0036,-0.1316 0.0194,-0.038 -0.0412,-0.0701 -0.1678,0.2376 -0.1567,0.1924 -0.1,0.3674l0.1412 -0.2973z"/>
  <path class="fil58" d="M7.2279 9.8666c-0.1264,-0.1406 -0.0866,-0.0805 -0.2669,-0.1128l0.0307 -0.3275c-0.0925,0.0582 -0.0309,-0.0907 -0.0674,0.1302 -0.0138,0.0834 0.0004,0.1454 0.0093,0.2234l0.2943 0.0867z"/>
  <path class="fil59" d="M14.9935 7.6299c0.2243,-0.0381 0.2078,0.0074 0.2785,-0.1608 -0.1705,-0.0111 -0.1999,-0.0125 -0.3227,0.0648l0.228 -0.0137c-0.0005,0.0002 -0.0902,0.0433 -0.0923,0.0446 -0.1013,0.0617 -0.0459,0.0263 -0.0915,0.0651z"/>
  <path class="fil52" d="M7.414 8.0651l-0.0242 -0.0874 0.1061 0.0078c-0.0941,-0.1488 -0.203,-0.0238 -0.3096,0.0729 0.0539,0.0244 -0.0379,0.0194 0.0788,0.0198l0.1489 -0.0131z"/>
  <path class="fil60" d="M1.0468 4.8454l0.0202 0.0929 0.1573 -0.0403c0.0732,-0.225 0.0344,-0.0576 -0.0258,-0.1223 -0.1237,-0.012 -0.0656,-0.0175 -0.1517,0.0697z"/>
  <path class="fil61" d="M10.7441 9.8412c-0.1063,-0.0412 -0.1179,0.1164 -0.0648,-0.1138 -0.0078,0.0091 -0.02,0.0108 -0.0232,0.0273l-0.1337 0.3467c0.1679,-0.0805 0.0625,-0.0687 0.2217,-0.2602z"/>
  <path class="fil62" d="M7.7174 11.9662c0.0884,-0.0216 0.0018,0.0676 0.0888,-0.0547l0.0806 -0.1079c-0.1514,-0.0063 -0.121,-0.0201 -0.178,0.0406 -0.1417,0.1512 -0.0265,0.0332 -0.0552,0.0975l0.0638 0.0245z"/>
  <path class="fil63" d="M10.1674 3.3178c-0.0429,0.0567 -0.0145,0.0097 -0.0564,0.0881 -0.0085,0.016 -0.0424,0.0912 -0.0518,0.1107 0.1321,-0.0405 0.1582,-0.0668 0.2339,-0.1777 -0.0374,-0.0191 0.0522,-0.0568 -0.1257,-0.0211z"/>
  <path class="fil55" d="M1.413 9.8209l0.0691 0.154c-0.2396,-0.1347 -0.1046,-0.0559 -0.216,-0.1685 0.081,0.2122 0.0285,0.2147 0.2414,0.2022 -0.0161,-0.239 -0.012,-0.1207 -0.0945,-0.1877z"/>
  <path class="fil64" d="M4.8959 12.5142c-0.0148,-0.2133 0.0704,-0.0987 -0.1414,-0.1707 -0.0164,0.1627 -0.0093,0.1564 0.1414,0.1707z"/>
  <path class="fil65" d="M13.0229 7.4851c0.1222,-0.0485 0.0554,-0.0005 0.1647,-0.0878 0.0494,-0.0395 0.085,-0.0828 0.1273,-0.1357 -0.1345,0.0454 -0.0277,-0.0365 -0.1809,0.0824 -0.0823,0.064 -0.0527,0.042 -0.1111,0.1411z"/>
  <path class="fil66" d="M15.9853 9.8221l0.1729 -0.0006 -0.1512 0.1036 0.2935 -0.1465c-0.1049,-0.0652 -0.1605,-0.0475 -0.3152,0.0435z"/>
  <path class="fil15" d="M5.1385 3.112c0.0008,-0.2564 -0.1348,-0.1244 -0.1831,-0.0186l0.1831 0.0186z"/>
  <path class="fil67" d="M8.587 4.6619c-0.035,0.0283 -0.0795,-0.0429 0.0137,0.0876l0.1183 -0.1242c-0.0166,-0.1624 0.0977,-0.0111 -0.0531,-0.1081l-0.0789 0.1447z"/>
  <path class="fil59" d="M5.155 12.7339c0.0351,0.0965 -0.0128,0.1079 0.173,0.127 -0.0258,-0.1218 -0.0262,-0.1714 -0.173,-0.127z"/>
  <path class="fil68" d="M5.4307 14.223l0.0405 0.0464c0.0743,-0.0588 0.0317,0.0075 0.088,-0.0776 0.0517,-0.0782 0.0112,-0.0098 0.0392,-0.0982 -0.1697,0.0258 -0.0873,-0.0365 -0.1677,0.1294z"/>
  <path class="fil69" d="M7.9461 3.8281c0.0656,0.0927 -0.0715,0.0647 0.0815,0.0767 0.1209,-0.1477 0.0842,-0.0569 0,-0.1896 -0.1928,-0.0019 -0.0483,-0.0155 -0.0995,0.0716 0.2207,-0.0584 0.0547,-0.0308 0.112,0.0577l-0.094 -0.0164z"/>
  <path class="fil70" d="M5.5492 3.2638l-0.1433 -0.1158 0.1737 0.005c-0.0567,-0.0287 0.0761,-0.0329 -0.1081,-0.0377 -0.1932,-0.005 -0.0214,-0.0072 -0.1062,0.0472 0.0712,0.112 -0.0223,0.0736 0.1839,0.1013z"/>
  <path class="fil71" d="M11.0714 12.7336c-0.0341,-0.1292 0.0781,-0.109 -0.1178,-0.0939l-0.0116 0.1415 0.1294 -0.0476z"/>
  <path class="fil66" d="M11.6553 0.827c-0.1616,-0.1396 -0.0589,-0.0178 -0.0817,-0.1366l-0.1569 0.0461c0.0306,0.0274 0.0151,0.0359 0.0774,0.0598 0.0667,0.0256 0.1001,0.0216 0.1612,0.0307z"/>
  <path class="fil72" d="M5.1251 12.7038c-0.038,-0.1613 0.0344,-0.1085 -0.1405,-0.1455 0.041,0.1837 -0.0109,0.1118 0.1405,0.1455z"/>
  <path class="fil73" d="M15.838 2.027c0.0807,0.0439 -0.1319,0.1228 0.1645,0.0273 -0.0337,-0.1686 -0.0216,-0.1218 -0.137,-0.1914 0.0365,0.0411 0.0579,0.0699 0.0923,0.0973 -0.0544,0.1383 0.036,0.026 -0.1198,0.0668z"/>
  <path class="fil74" d="M4.2343 1.1042c0.0882,-0.1666 0.0563,-0.0483 0,-0.1566 -0.055,0.0389 -0.0635,-0.0326 -0.0682,0.0649 -0.0081,0.167 0.017,0.0606 0.0682,0.0917z"/>
  <path class="fil73" d="M13.581 7.0834c0.1446,-0.0458 0.2081,-0.0932 0.2551,-0.2606l-0.2551 0.2606z"/>
  <path class="fil75" d="M13.3852 7.2344c0.1117,-0.0121 0.0464,0.0201 0.1265,-0.0391 0.1327,-0.098 0.0323,-0.0171 0.0693,-0.1119 -0.093,0.0365 0.0186,-0.0431 -0.0908,0.0388 -0.0913,0.0683 -0.0566,0.0517 -0.105,0.1122z"/>
  <path class="fil76" d="M15.6583 14.7453c0.019,-0.0506 0.0988,0.0644 0,-0.1526 -0.0338,0.0236 -0.0589,-0.0473 -0.0657,0.0603 -0.0098,0.1563 -0.0173,0.0356 0.0657,0.0923z"/>
  <path class="fil77" d="M15.4763 4.5737c0.0627,-0.0692 0.0339,-0.0368 0.0561,-0.1428l-0.1255 -0.0676 -0.0252 0.0644c0.1775,0.0728 0.0397,-0.0206 0.0946,0.146z"/>
  <path class="fil78" d="M14.5562 8.7912l-0.0129 -0.1408c0.2314,-0.0106 0.1347,-0.0367 0.1774,-0.0636l-0.2295 0.045c-0.0005,0.1349 -0.0742,-0.0609 0.0096,0.0896l0.0554 0.0698z"/>
  <path class="fil79" d="M13.6921 9.3088c-0.013,-0.142 0.0167,-0.0733 -0.1169,-0.1111 0.0246,0.1532 -0.0629,0.1406 0.1169,0.1111z"/>
  <path class="fil80" d="M2.3322 9.7793l-0.0486 -0.1113 0.1037 0.0498c-0.06,-0.0875 0.096,-0.0748 -0.1392,-0.0889 0.0153,0.2443 -0.0053,0.071 0.0841,0.1504z"/>
  <path class="fil69" d="M7.8846 10.5762l0.1513 -0.0477c-0.0955,-0.0851 -0.0512,-0.0475 -0.1576,-0.0669l0.0063 0.1146z"/>
  <path class="fil75" d="M3.7123 15.6218l-0.1038 0.0391 0.0255 -0.1058c-0.0583,0.0489 -0.0489,-0.0519 -0.08,0.1482 0.2442,-0.0226 0.0837,-0.0077 0.1583,-0.0815z"/>
  <path class="fil81" d="M6.7793 3.9876c0.0758,0.0761 -0.1147,0.0979 0.1436,0.0651 -0.0155,-0.2275 0.0062,-0.0747 -0.0823,-0.1416l0.0518 0.123 -0.1131 -0.0465z"/>
  <path class="fil75" d="M11.1154 12.4647l-0.0019 0.0098c0.0766,0.1193 -0.1251,0.1046 0.1031,0.0994 0.0224,-0.2291 0.0327,-0.062 -0.1012,-0.1092z"/>
  <path class="fil42" d="M7.0572 9.2624c0.1062,-0.0692 0.1544,-0.0521 0,-0.1357 -0.0549,0.0981 -0.0621,0.0368 0,0.1357z"/>
  <path class="fil65" d="M15.5597 2.2804l-0.0477 -0.1289 0.1165 0.0048c-0.038,-0.0228 -0.0219,-0.0266 -0.0942,-0.0353 -0.1702,-0.0203 0.043,-0.0264 -0.067,0.027 0.0118,0.1777 -0.0096,0.0713 0.0924,0.1324z"/>
  <path class="fil82" d="M13.4833 9.4764c0.062,-0.0591 0.0831,0.1 0.0512,-0.1392 -0.2288,-0.0096 -0.0579,-0.0091 -0.1235,0.0751l0.1045 -0.0415 -0.0322 0.1056z"/>
  <path class="fil82" d="M1.0079 1.029l-0.1005 0.0282 0.0315 -0.105c-0.0673,0.0596 -0.0711,-0.0951 -0.0625,0.1422 0.2317,-0.0122 0.0708,-0.0025 0.1315,-0.0654z"/>
  <path class="fil83" d="M1.1239 7.6655l-0.0398 -0.1064 0.1071 0.0231c-0.0496,-0.0516 0.0419,-0.0503 -0.1444,-0.0613 0.0171,0.2502 0.0031,0.0733 0.0771,0.1446z"/>
  <path class="fil84" d="M2.3322 9.7793c-0.0178,0.1042 -0.0173,0.0141 0.0672,0.0522l-0.0121 -0.1137 -0.1037 -0.0498 0.0486 0.1113z"/>
  <path class="fil58" d="M14.8208 9.2198l-0.0804 0.0392 -0.0822 -0.1858c0.019,0.1547 -0.0038,0.1111 0.0855,0.2499l0.0771 -0.1033z"/>
  <path class="fil85" d="M0.7939 2.3345c0.0255,-0.0348 0.1754,0.1092 0,-0.1227 -0.003,0.0044 -0.0739,0.0637 0,0.1227z"/>
  <path class="fil66" d="M14.2917 15.7915c0.0422,0.0945 -0.062,0.0847 0.0943,0.0737l0.059 -0.1122c-0.1184,0.0791 0.0021,0.0429 -0.1533,0.0385z"/>
  <path class="fil86" d="M14.2922 12.4061c0.0575,0.0633 -0.0774,0.0578 0.1298,0.0603 0.0169,-0.2243 0.008,-0.0636 -0.0593,-0.1319l0.0424 0.1109 -0.1129 -0.0393z"/>
  <path class="fil87" d="M11.808 12.1949l0.0554 -0.1224 -0.0108 0.0138c-0.0724,0.0294 -0.0437,-0.0079 -0.1203,0.0742 0.0591,0.079 -0.0482,0.0237 0.0757,0.0344z"/>
  <path class="fil41" d="M7.9461 3.8281l0.094 0.0164c-0.0573,-0.0885 0.1087,-0.1161 -0.112,-0.0577l0.018 0.0413z"/>
  <path class="fil23" d="M1.8885 4.6621c0.0771,0.0449 0.0448,0.0353 0.1624,0l-0.0677 -0.0324c-0.0859,0.0062 -0.0518,0.007 -0.0947,0.0324z"/>
  <path class="fil68" d="M16.6535 3.3968c0.0275,-0.0114 0.0452,-0.0392 0.0447,-0.0316 -0.0001,0.0016 0.0585,0.0303 -0.0528,-0.1241l0.0081 0.1557z"/>
  <path class="fil55" d="M1.1339 4.618c0.0581,0.0377 0.0569,0.0473 0.1222,0 -0.1052,-0.066 0.1529,-0.0788 -0.0634,-0.0314l-0.0588 0.0314z"/>
  <path class="fil88" d="M8.8919 7.4872l0.0136 0.0168c0.055,0.0712 -0.0421,0.136 0.1035,0.0264l-0.1171 -0.0432z"/>
  <path class="fil38" d="M14.9332 7.1618l-0.0077 0.0565 0.0737 -0.0091 0.0013 -0.1004c-0.0384,0.1213 0.01,0.0046 -0.0673,0.053z"/>
  <path class="fil89" d="M7.1783 12.1859l-0.1407 0.0215 0.0198 -0.1734 -0.0484 0.1673c0.1234,0.0226 0.0753,0.0271 0.1693,-0.0154z"/>
  <path class="fil90" d="M8.7642 11.4261l-0.0944 0.0286c0.0207,0.0111 -0.0249,0.1435 0.0944,-0.0286z"/>
  <path class="fil84" d="M8.5288 7.4171c0.0039,0.0336 -0.055,0.0209 0.0095,0.0331 0.0452,0.0086 0.038,-0.0002 0.0652,-0.0237l-0.0747 -0.0094z"/>
 </g>
</svg>
