<?xml version="1.0" encoding="UTF-8"?>
<!DOCTYPE svg PUBLIC "-//W3C//DTD SVG 1.1//EN" "http://www.w3.org/Graphics/SVG/1.1/DTD/svg11.dtd">
<!-- Creator: CorelDRAW X7 -->
<svg xmlns="http://www.w3.org/2000/svg" xml:space="preserve" width="16.9332mm" height="16.9332mm" version="1.1" style="shape-rendering:geometricPrecision; text-rendering:geometricPrecision; image-rendering:optimizeQuality; fill-rule:evenodd; clip-rule:evenodd"
viewBox="0 0 1693 1693"
 xmlns:xlink="http://www.w3.org/1999/xlink">
 <defs>
  <style type="text/css">
   <![CDATA[
    .fil11 {fill:#020202}
    .fil12 {fill:#261914}
    .fil5 {fill:#363B44}
    .fil14 {fill:#4B5866}
    .fil4 {fill:#723A17}
    .fil8 {fill:#A9C3CA}
    .fil1 {fill:#AA9A92}
    .fil10 {fill:#C2DFF1}
    .fil6 {fill:#CD7148}
    .fil0 {fill:#CED6AE}
    .fil7 {fill:#D38A72}
    .fil9 {fill:#DAA945}
    .fil3 {fill:#E64A2C}
    .fil2 {fill:#E7D785}
    .fil13 {fill:#F6D952}
   ]]>
  </style>
 </defs>
 <g id="Capa_x0020_1">
  <metadata id="CorelCorpID_0Corel-Layer"/>
  <path class="fil0" d="M407 671l8 1c-10,12 -25,26 -28,40 0,9 -1,1 11,11 9,7 9,9 12,20 4,-12 3,-10 -3,-21 15,6 16,-12 16,-22l6 17c25,-13 -4,-6 17,-16 -7,-16 -17,-29 -31,-38l-8 8z"/>
  <path class="fil0" d="M1317 1241l0 1 -5 -5c0,0 -2,-4 -2,-6 -18,13 -38,24 -45,45 18,-8 42,-25 52,-35z"/>
  <path class="fil1" d="M357 763l-4 2c15,23 75,16 100,16 -11,-6 -26,-4 -39,-3 2,-13 3,-28 -4,-35 -3,-11 -3,-13 -12,-20 -12,-10 -11,-2 -11,-11 -17,12 -22,49 -30,51z"/>
  <path class="fil1" d="M1278 1116c9,9 17,8 31,6l-13 -12 1 -13c-3,3 -9,7 -12,10 -7,5 -5,2 -7,9z"/>
  <path class="fil2" d="M410 743c7,7 6,22 4,35 13,-1 28,-3 39,3l46 16 -53 -96c-21,10 8,3 -17,16l-6 -17c0,10 -1,28 -16,22 6,11 7,9 3,21z"/>
  <path class="fil2" d="M478 746l8 -8c-15,-28 -34,-42 -15,-77l-9 1c-8,16 0,12 -15,19 -8,-14 -6,-15 -2,-31l-17 14c8,13 19,26 27,40 7,13 13,31 23,42z"/>
  <path class="fil3" d="M809 717c-66,26 -27,118 31,94 60,-23 27,-116 -31,-94z"/>
  <path class="fil3" d="M362 808c17,2 30,-4 35,-20l-36 -6 1 26z"/>
  <path class="fil4" d="M1204 508c2,16 10,14 7,40l-43 10c7,16 20,35 28,51 12,21 21,27 13,48 0,0 -1,2 -1,1 0,0 0,1 -1,1l7 9c8,-8 0,-4 15,9l22 -20c-7,-21 -22,-44 -22,-67l26 -5c3,-16 -1,-49 -7,-65l10 -12c-10,-6 -9,-4 -15,-19l-6 13c-7,-21 -3,-10 -8,-9l-5 20 -8 -19 -12 14z"/>
  <path class="fil4" d="M809 717c58,-22 91,71 31,94 -58,24 -97,-68 -31,-94zm1 -7c-71,21 -41,138 32,111 73,-27 35,-132 -32,-111z"/>
  <path class="fil5" d="M1264 1261c-1,28 -36,32 -58,28l58 -28zm53 -20c-10,10 -34,27 -52,35 7,-21 27,-32 45,-45 0,2 2,6 2,6l5 5c1,-11 4,-18 11,-27 -9,2 -53,33 -65,41 -20,14 -58,28 -69,37 73,24 194,-88 210,-150 -14,6 -17,14 -28,25 -19,19 -6,9 -13,27 -5,13 -13,13 -22,25 -10,12 -9,15 -24,21z"/>
  <path class="fil5" d="M1292 1063l14 1c-4,11 -16,20 -26,27 2,7 3,4 2,9 -18,7 -44,8 -59,0 -26,4 -81,-9 -112,-9l-13 1c5,3 76,13 92,16 25,5 61,21 82,22 -12,-12 -37,-17 -53,-24l59 10c2,-7 0,-4 7,-9 3,-3 9,-7 12,-10 10,-7 19,-27 15,-40l-21 -1c6,-13 6,-5 4,-20 -34,-6 -30,18 -38,-3l-6 0 0 13 38 -6 -8 19 11 4z"/>
  <path class="fil6" d="M276 241c23,-14 48,-33 74,-40 -13,55 -61,78 -21,144 10,-3 68,-46 90,-57 30,-15 26,-11 33,-43 5,-20 12,-38 12,-58l-106 73c8,-71 70,-38 68,-183 -34,5 -76,33 -109,50 -27,14 -30,12 -35,42 -5,25 -8,46 -6,72z"/>
  <path class="fil6" d="M168 470l5 56c11,-1 61,-53 74,-64 -5,72 -47,62 -20,156 25,-11 50,-44 71,-64 28,-27 35,-69 33,-107l-55 47c3,-43 38,-62 3,-124 -34,20 -82,71 -111,100z"/>
  <path class="fil6" d="M442 494l21 -16 1 10c28,-17 37,-47 36,-80 -22,5 -40,19 -61,30 -34,17 -40,18 -34,58 9,-2 10,-4 16,-7 32,-11 13,-7 21,5z"/>
  <path class="fil7" d="M474 666c-17,37 111,110 173,50 24,-24 36,-15 59,-32 3,-56 -20,-29 -96,-18 -26,3 -130,-2 -136,0z"/>
  <path class="fil7" d="M658 906c14,-7 10,-11 27,-17 55,-19 76,14 100,21l-10 -16c-27,-29 -107,-36 -117,12z"/>
  <path class="fil8" d="M584 1251c22,-21 50,-39 78,-51 20,-8 65,-27 88,-26 -12,46 -8,133 1,184 3,16 6,14 0,26 -15,12 -261,-14 -315,-26l-78 -21c-13,-3 -7,-2 -16,-1 6,13 14,13 41,21 35,10 115,26 145,27 44,3 174,21 211,4l5 12 15 -1 17 59c-34,10 -65,-7 -91,-1 21,14 105,6 133,4 -6,-39 -51,-125 -44,-162 -20,-27 -17,-126 -21,-162 -47,0 -151,70 -169,114z"/>
  <path class="fil8" d="M1145 1407l-1 -5c-7,22 1,50 -2,73 -43,-4 -83,-21 -119,-43 -56,-36 -68,-68 -84,-79l8 92c37,28 156,64 198,40l0 -78z"/>
  <path class="fil8" d="M1174 1334c-2,17 -8,39 -21,48l-1 16c55,-19 114,-58 159,-94 30,-24 111,-99 125,-132 -12,1 -9,-1 -18,11 -32,40 -194,169 -244,151z"/>
  <path class="fil8" d="M185 1176l-2 6c12,-3 33,-18 43,-7 15,-3 12,-7 37,-12l97 -20c15,-2 11,3 22,-7 26,-16 80,-10 112,-10 -31,-18 -52,-18 -83,-31 17,-9 10,5 22,-3 -35,-1 -26,-16 -69,4 -20,9 -40,18 -60,27 -51,22 -72,28 -119,53z"/>
  <path class="fil8" d="M1465 1121c19,-7 -16,17 44,-11 15,-7 28,-16 39,-28 10,-10 69,-47 82,-53l-1 -10 -6 -1 -5 3c-11,6 -28,3 -73,25 -33,17 -37,28 -79,24 3,23 3,29 -1,51z"/>
  <path class="fil8" d="M260 1330l36 -9 -29 -7c-39,3 -140,4 -168,-12 -11,6 -14,11 -11,24 26,12 60,9 89,7 14,-1 28,-2 42,-4 21,-2 24,-8 41,1z"/>
  <path class="fil8" d="M349 1201c16,-5 50,-28 72,-38 26,-10 62,-17 82,-26 -15,-7 -64,-10 -76,-3l11 3c-32,11 -68,37 -89,64z"/>
  <path class="fil8" d="M639 1181c17,-9 28,-21 44,-30 -13,-7 -28,-7 -41,-10 -16,17 -44,42 -49,61 13,0 4,3 17,-3 2,-1 9,-6 12,-8 5,-3 14,-9 17,-10z"/>
  <path class="fil8" d="M246 1360c25,5 58,27 90,32 -6,-13 4,-3 -11,-9l-29 -15c-12,-7 -26,-13 -34,-23 12,-9 10,-3 17,-13l-56 3c3,17 13,11 23,25z"/>
  <path class="fil8" d="M1259 953l-7 23c16,-4 46,-17 57,-28l-50 5z"/>
  <path class="fil8" d="M1206 1289c22,4 57,0 58,-28l-58 28z"/>
  <path class="fil8" d="M1142 1341c0,-9 -1,-4 5,-5 -6,-15 -21,-47 -40,-38 2,4 12,10 17,19 7,11 9,17 18,24z"/>
  <path class="fil8" d="M580 1257c-6,0 -4,1 -4,-6 -11,7 -13,18 -12,31 18,-2 18,-9 16,-25z"/>
  <path class="fil8" d="M518 822c8,5 3,6 15,0 -13,-8 -7,-6 -15,0z"/>
  <path class="fil9" d="M1193 405c-3,-5 4,-4 -8,-5l19 108 12 -14 8 19 5 -20c5,-1 1,-12 8,9l6 -13c6,15 5,13 15,19 15,2 41,33 54,44 9,-8 28,-52 38,-67 11,-16 34,-56 48,-63 30,35 78,194 95,252 6,22 13,80 23,95 11,-83 -61,-363 -91,-450 -25,8 -76,128 -91,161 -8,17 -14,46 -22,58 -14,-4 -46,-49 -61,-67l-45 -53c-10,-15 -2,-13 -18,-12l5 -1z"/>
  <path class="fil9" d="M354 955c-5,2 -1,-1 -3,5l5 2c-13,20 -22,43 -29,67 -12,34 -10,52 -16,85 18,-8 86,-39 100,-40 -2,-17 -20,-40 -26,-59 -6,-17 -9,-50 -18,-63l-13 3z"/>
  <path class="fil9" d="M1131 974c2,3 78,52 84,54 23,-26 46,-97 50,-133 -12,11 -12,20 -22,32 -6,7 -20,22 -27,27 -25,17 -55,24 -85,20z"/>
  <path class="fil9" d="M395 914c-1,-20 23,-47 44,-52 22,-5 60,6 69,26 -23,-4 -26,-26 -67,-14 -35,11 -27,25 -46,40zm76 -56c-24,-5 -55,3 -56,4 -9,8 -9,19 -23,23 -1,15 -9,26 6,32 19,-9 1,-32 51,-29l16 1c23,3 17,10 44,10 8,11 0,6 12,14 10,-22 -5,-7 -2,-31 27,-2 36,9 69,-10 -18,-6 -51,-18 -68,-15 -8,1 -7,2 -23,-4 -23,-9 -16,-5 -26,5z"/>
  <path class="fil9" d="M442 494c-24,18 -38,62 -32,92l93 -44 14 -66 -57 35 4 -23 -1 -10 -21 16z"/>
  <path class="fil9" d="M710 589c7,5 20,7 30,10 41,13 11,-6 100,-13l1 -8c-6,-8 4,-7 -6,-7 -1,8 -4,10 0,7 -37,-1 -89,2 -125,11z"/>
  <path class="fil9" d="M853 1061c11,6 15,24 20,36 13,1 29,-2 43,-2 12,0 36,4 42,-4 -51,-10 -55,-4 -97,-37 -4,-3 -5,-5 -15,-3 3,20 -1,3 7,10z"/>
  <path class="fil9" d="M1277 872l-4 38c24,-15 67,-39 79,-65 -9,3 -25,11 -37,16 -13,5 -24,8 -38,11z"/>
  <path class="fil9" d="M667 1140c19,13 24,10 44,2 18,-6 26,-7 43,-10l3 -35c-13,5 -24,19 -40,27 -15,9 -33,14 -50,16z"/>
  <path class="fil9" d="M1223 1100c15,8 41,7 59,0 1,-5 0,-2 -2,-9 10,-7 22,-16 26,-27l-14 -1c-6,22 -48,33 -69,37z"/>
  <path class="fil10" d="M335 706c20,3 23,-16 14,-24 -10,-10 -19,8 -14,24z"/>
  <path class="fil11" d="M1630 1029c-13,6 -72,43 -82,53 -11,12 -24,21 -39,28 -60,28 -25,4 -44,11 1,14 -16,43 -29,51 -14,33 -95,108 -125,132 -45,36 -104,75 -159,94l1 -16c-10,-21 7,-12 -2,-23 0,18 2,34 -6,48l0 78c-42,24 -161,-12 -198,-40l-8 -92c-13,-94 -53,-208 -54,-247l13 -4c4,-1 8,-1 12,-1l59 -2c10,-3 -1,-4 20,-6 34,-5 82,3 109,-1l13 -1c-25,-3 -53,-6 -77,-6 -28,-1 -54,6 -76,6 -6,8 -30,4 -42,4 -14,0 -30,3 -43,2 -5,-12 -9,-30 -20,-36 6,22 20,50 28,74 30,90 47,161 54,257 6,71 -40,120 -95,56 -59,-68 -40,-95 -61,-141 -8,-5 -5,6 -7,-9l2 1c-7,37 38,123 44,162 -28,2 -112,10 -133,-4 -40,9 -313,-44 -349,-65 -32,-5 -65,-27 -90,-32l1 1c27,41 330,97 411,104 27,3 54,5 81,5 27,1 58,-5 84,-2 12,35 71,149 103,160 16,-28 18,-140 21,-177 16,5 30,21 86,37 25,8 94,12 117,3l1 -89c76,-33 113,-43 185,-110 47,-44 104,-97 133,-161 77,-16 62,-39 128,-74 19,-9 23,-14 39,-27l-2 -7c2,8 4,6 -4,6z"/>
  <path class="fil11" d="M163 1180l8 -9c14,1 5,-2 14,5 47,-25 68,-31 119,-53 20,-9 40,-18 60,-27 43,-20 34,-5 69,-4l3 -3 -18 -21c-1,12 0,3 -7,6 -14,1 -82,32 -100,40 -33,13 -144,69 -168,26 -14,-39 54,-93 80,-111 25,-17 101,-69 128,-69 2,-6 -2,-3 3,-5l-2 -1c-74,3 -336,216 -352,286 15,-2 153,-52 163,-60z"/>
  <path class="fil12" d="M518 822c8,-6 2,-8 15,0 -12,6 -7,5 -15,0zm834 23c-12,26 -55,50 -79,65l4 -38 2 -37c19,-14 39,-24 62,-32l3 7c3,15 -3,-4 1,5l21 -6c-1,13 -15,22 -23,31 1,0 4,-1 4,-1l5 6zm-990 -37l-1 -26 36 6c-5,16 -18,22 -35,20zm53 -145c14,9 24,22 31,38l53 96 -46 -16c-25,0 -85,7 -100,-16 -36,-6 -43,-65 -27,-92 20,-34 60,-38 89,-10zm426 -85l-1 8c-89,7 -59,26 -100,13 -10,-3 -23,-5 -30,-10 -17,1 -48,-7 -68,-8 -26,-2 -48,4 -71,2 84,-63 327,-107 341,-23 -14,4 5,-6 -8,0l0 19c-11,2 -23,-1 -33,-8 -4,11 2,4 -5,20l-25 -13zm-489 376l2 1 13 -3c9,13 12,46 18,63 6,19 24,42 26,59 7,-3 6,6 7,-6 -9,-28 -35,-51 -42,-118 -2,-25 -3,-47 2,-71 3,-19 -11,-41 -16,-61 28,-16 20,-1 47,-31 13,-7 67,-1 92,18 21,16 2,11 13,21 12,3 26,4 37,-1 -2,-10 -8,-14 -16,-20 -15,2 -5,5 -20,6 -11,-15 -34,-48 -37,-65 -10,-11 -16,-29 -23,-42 -8,-14 -19,-27 -27,-40l17 -14c15,-19 68,-43 92,-51 165,-51 297,59 334,71 -12,-6 -29,-23 -43,-31 -17,-11 -37,-18 -53,-29 13,-10 35,-14 53,-18 33,-6 31,15 55,-8l25 -1c23,-33 -2,-37 -7,-55 96,-6 178,21 252,77 23,17 43,45 54,54 1,0 1,-1 1,-1 0,1 1,-1 1,-1 8,-21 -1,-27 -13,-48 -8,-16 -21,-35 -28,-51l43 -10c3,-26 -5,-24 -7,-40l-19 -108c12,1 5,0 8,5 27,3 87,49 115,55 24,-33 65,-164 114,-219 44,22 247,251 265,320 -31,44 -59,88 -87,134 -11,18 -74,135 -79,139 -3,-18 -8,-49 -5,-65 -10,-15 -17,-73 -23,-95 -17,-58 -65,-217 -95,-252 -14,7 -37,47 -48,63 -10,15 -29,59 -38,67 -13,-11 -39,-42 -54,-44l-10 12c6,16 10,49 7,65l-26 5c0,23 15,46 22,67l-22 20c-15,-13 -7,-17 -15,-9 17,37 35,56 47,101 10,37 14,88 4,126 -4,36 -27,107 -50,133 -6,-2 -82,-51 -84,-54 -45,-5 -75,-45 -104,-29 66,20 141,54 194,98 13,-6 10,-10 27,-16l3 6 6 0 -2 -10c-27,-5 -17,12 -36,12 6,-46 87,-82 128,-88l-38 1c-11,11 -41,24 -57,28l7 -23c12,-42 6,-27 39,-51 23,-18 38,-6 64,3 39,15 87,34 121,58l-16 6c3,1 51,5 86,16 21,7 53,20 70,33l6 1 1 10c8,0 6,2 4,-6 -47,-52 -105,-39 -153,-70 -76,-49 -134,-55 -156,-68 8,-10 24,-22 31,-32 11,-14 1,-12 8,-25 7,-12 12,-4 10,-22 -9,-4 -10,-2 -15,-3 -10,-4 -6,-14 -35,-2 -14,5 -34,21 -45,23 -20,-106 -9,-53 -44,-137l26 -27c-4,-21 -24,-42 -24,-64l27 -5 -3 -73 52 44c11,-12 30,-51 40,-67 10,-17 32,-52 45,-62 34,53 84,231 100,305 9,41 12,79 19,119 9,-3 78,-137 86,-150l90 -150c-10,-48 -86,-139 -118,-177 -29,-33 -118,-127 -153,-146 -38,27 -92,170 -118,215l-126 -60c-3,48 24,109 27,151 -15,4 -36,5 -48,14 8,26 43,65 48,90 -19,-7 -86,-125 -279,-124 -62,1 -43,-15 -120,-14 -92,0 -180,30 -256,80 -15,9 -44,11 -91,42 -11,8 -27,23 -38,28 -73,-51 -128,15 -105,80 12,31 19,25 36,44 1,36 4,47 19,79 7,13 1,22 -1,38 -2,16 -1,32 -2,49 -10,5 -9,1 -16,8z"/>
  <path class="fil12" d="M474 666c6,-2 110,3 136,0 76,-11 99,-38 96,18 -23,17 -35,8 -59,32 -62,60 -190,-13 -173,-50zm-3 -5c-19,35 0,49 15,77 14,8 24,27 48,38 71,-37 34,-22 108,-49 28,-10 38,-33 58,6l3 -4c-4,-31 -34,-18 -50,-15 7,-11 33,-18 46,-20 14,18 10,25 14,47 4,22 13,26 10,51l-11 3c20,14 12,-26 9,-36 -7,-20 -3,-32 -7,-51 -2,-8 -5,-11 -5,-20 0,-5 14,-51 -36,-43 -32,6 -16,12 -95,16 -25,1 -91,-5 -107,0z"/>
  <path class="fil12" d="M757 1097l-3 35c-17,3 -25,4 -43,10 -20,8 -25,11 -44,-2 -25,1 -44,-14 -129,-6 -24,2 -31,-11 -54,-21 -8,-3 -20,-6 -26,-9 -11,-6 -10,-10 -22,-15l-3 3c-12,8 -5,-6 -22,3 31,13 52,13 83,31 -32,0 -86,-6 -112,10 16,-1 29,-6 45,-2 12,-7 61,-4 76,3 -20,9 -56,16 -82,26 -22,10 -56,33 -72,38l0 6c82,-61 194,-76 293,-66 13,3 28,3 41,10 -16,9 -27,21 -44,30 -5,10 -26,22 -35,31 -8,9 -24,35 -28,39 0,7 -2,6 4,6 1,-7 -1,-5 4,-6 18,-44 122,-114 169,-114 4,36 1,135 21,162l-2 -1c2,15 -1,4 7,9 -4,-35 -13,-69 -16,-107 -3,-41 1,-80 -2,-118l-4 15z"/>
  <path class="fil12" d="M276 241c-2,-26 1,-47 6,-72 5,-30 8,-28 35,-42 33,-17 75,-45 109,-50 2,145 -60,112 -68,183l106 -73c0,20 -7,38 -12,58 -7,32 -3,28 -33,43 -22,11 -80,54 -90,57 -40,-66 8,-89 21,-144 -26,7 -51,26 -74,40zm-12 17l61 -35c-7,27 -23,39 -23,66 0,24 7,54 21,73 6,-3 49,-32 60,-39 92,-58 62,1 97,-156l-79 47c6,-23 19,-33 34,-49l4 -110c-44,12 -87,39 -127,62 -33,18 -33,16 -41,53 -5,29 -11,59 -7,88z"/>
  <path class="fil12" d="M168 470c29,-29 77,-80 111,-100 35,62 0,81 -3,124l55 -47c2,38 -5,80 -33,107 -21,20 -46,53 -71,64 -27,-94 15,-84 20,-156 -13,11 -63,63 -74,64l-5 -56zm-4 82c24,-7 39,-42 60,-58 -11,72 -37,55 -3,146 22,-7 64,-60 87,-81 35,-32 33,-33 41,-137 -28,7 -31,21 -50,30 7,-28 0,-71 -13,-95 -33,12 -67,46 -92,70 -45,44 -40,58 -30,125z"/>
  <path class="fil12" d="M185 1176c-9,-7 0,-4 -14,-5l-8 9c12,0 5,-4 10,3 -20,23 -34,43 -51,70 -13,23 -48,49 -45,75 20,26 106,13 137,10 13,11 15,17 33,23l-1 -1c-10,-14 -20,-8 -23,-25l56 -3 -19 -2c-17,-9 -20,-3 -41,-1 -14,2 -28,3 -42,4 -29,2 -63,5 -89,-7 -3,-13 0,-18 11,-24 0,0 44,-70 50,-79 13,-21 51,-52 77,-48 -10,-11 -31,4 -43,7l2 -6z"/>
  <path class="fil12" d="M464 488l-4 23 57 -35 -14 66 -93 44c-6,-30 8,-74 32,-92 -8,-12 11,-16 -21,-5 -6,3 -7,5 -16,7 -6,-40 0,-41 34,-58 21,-11 39,-25 61,-30 1,33 -8,63 -36,80zm-66 -34l-6 62 26 -9c-14,40 -29,44 -19,96l110 -49 28 -98 -45 20c5,-35 15,-2 20,-82 -29,3 -89,41 -114,60z"/>
  <path class="fil12" d="M658 906c10,-48 90,-41 117,-12l17 14c-9,-26 -51,-45 -80,-46 -27,-1 -82,19 -67,54 11,-4 5,-1 13,-10z"/>
  <path class="fil12" d="M395 914c19,-15 11,-29 46,-40 41,-12 44,10 67,14 -9,-20 -47,-31 -69,-26 -21,5 -45,32 -44,52z"/>
  <path class="fil12" d="M357 763c8,-2 13,-39 30,-51 3,-14 18,-28 28,-40l-8 -1c-20,32 -45,46 -50,92z"/>
  <path class="fil12" d="M586 631c17,3 38,2 54,-5 -11,-9 -15,-7 -31,-6 -9,1 -23,2 -23,11z"/>
  <path class="fil10" d="M1317 1242l0 -1c15,-6 14,-9 24,-21 9,-12 17,-12 22,-25 7,-18 -6,-8 13,-27 11,-11 14,-19 28,-25 -16,62 -137,174 -210,150 11,-9 49,-23 69,-37 12,-8 56,-39 65,-41 -7,9 -10,16 -11,27zm-58 -289l50 -5 38 -1c-41,6 -122,42 -128,88 19,0 9,-17 36,-12l2 10c8,21 4,-3 38,3 2,15 2,7 -4,20l21 1c4,13 -5,33 -15,40l-1 13 13 12c-14,2 -22,3 -31,-6l-59 -10c16,7 41,12 53,24 -21,-1 -57,-17 -82,-22 -16,-3 -87,-13 -92,-16 -27,4 -75,-4 -109,1 -21,2 -10,3 -20,6l-59 2c-4,0 -8,0 -12,1l-13 4c1,39 41,153 54,247 16,11 28,43 84,79 36,22 76,39 119,43 3,-23 -5,-51 2,-73l-2 -61c-9,-7 -11,-13 -18,-24 -5,-9 -15,-15 -17,-19 19,-9 34,23 40,38l4 14c1,-24 -5,-37 -10,-57 19,11 17,34 21,55l10 -23 2 9c50,18 212,-111 244,-151 9,-12 6,-10 18,-11 13,-8 30,-37 29,-51 4,-22 4,-28 1,-51 42,4 46,-7 79,-24 45,-22 62,-19 73,-25l5 -3c-17,-13 -49,-26 -70,-33 -35,-11 -83,-15 -86,-16l16 -6c-34,-24 -82,-43 -121,-58 -26,-9 -41,-21 -64,-3 -33,24 -27,9 -39,51z"/>
  <path class="fil10" d="M382 1136c-11,10 -7,5 -22,7l-97 20c-25,5 -22,9 -37,12 -26,-4 -64,27 -77,48 -6,9 -50,79 -50,79 28,16 129,15 168,12l29 7 -36 9 19 2c-7,10 -5,4 -17,13 8,10 22,16 34,23l29 15c15,6 5,-4 11,9 36,21 309,74 349,65 26,-6 57,11 91,1l-17 -59 -15 1 -5 -12c-37,17 -167,-1 -211,-4 -30,-1 -110,-17 -145,-27 -27,-8 -35,-8 -41,-21 9,-1 3,-2 16,1l78 21c54,12 300,38 315,26 6,-12 3,-10 0,-26 -9,-51 -13,-138 -1,-184 -23,-1 -68,18 -88,26 -28,12 -56,30 -78,51 -5,1 -3,-1 -4,6 2,16 2,23 -16,25 -1,-13 1,-24 12,-31 4,-4 20,-30 28,-39 9,-9 30,-21 35,-31 -3,1 -12,7 -17,10 -3,2 -10,7 -12,8 -13,6 -4,3 -17,3 5,-19 33,-44 49,-61 -99,-10 -211,5 -293,66l0 -6c21,-27 57,-53 89,-64l-11 -3c-16,-4 -29,1 -45,2z"/>
  <path class="fil10" d="M703 729c10,27 0,39 9,66l11 -3c3,-25 -6,-29 -10,-51 -4,-22 0,-29 -14,-47 -13,2 -39,9 -46,20 16,-3 46,-16 50,15z"/>
  <path class="fil13" d="M658 906c-8,9 -2,6 -13,10 -15,-35 40,-55 67,-54 29,1 71,20 80,46l-17 -14 10 16c-24,-7 -45,-40 -100,-21 -17,6 -13,10 -27,17zm-187 -48c10,-10 3,-14 26,-5 16,6 15,5 23,4 17,-3 50,9 68,15 -33,19 -42,8 -69,10 -3,24 12,9 2,31 -12,-8 -4,-3 -12,-14 -27,0 -21,-7 -44,-10l-16 -1c-50,-3 -32,20 -51,29 -15,-6 -7,-17 -6,-32 14,-4 14,-15 23,-23 1,-1 32,-9 56,-4zm339 -148c67,-21 105,84 32,111 -73,27 -103,-90 -32,-111zm-260 -78c1,-9 13,-9 22,-10 14,-1 18,-3 28,5 -15,7 -34,8 -50,5zm-105 18c-4,16 -6,17 2,31 15,-7 7,-3 15,-19l9 -1c16,-5 82,1 107,0 79,-4 63,-10 95,-16 50,-8 36,38 36,43 0,9 3,12 5,20 4,19 0,31 7,51 3,10 11,50 -9,36 -9,-27 1,-39 -9,-66l-3 4c-20,-39 -30,-16 -58,-6 -74,27 -37,12 -108,49 -24,-11 -34,-30 -48,-38l-8 8c3,17 26,50 37,65 15,-1 5,-4 20,-6 8,6 14,10 16,20 -11,5 -25,4 -37,1 -11,-10 8,-5 -13,-21 -25,-19 -79,-25 -92,-18 -27,30 -19,15 -47,31 5,20 19,42 16,61 -5,24 -4,46 -2,71 7,67 33,90 42,118l18 21c12,5 11,9 22,15 6,3 18,6 26,9 23,10 30,23 54,21 85,-8 104,7 129,6 17,-2 35,-7 50,-16 16,-8 27,-22 40,-27l4 -15c3,38 -1,77 2,118 3,38 12,72 16,107 21,46 2,73 61,141 55,64 101,15 95,-56 -7,-96 -24,-167 -54,-257 -8,-24 -22,-52 -28,-74 -8,-7 -4,10 -7,-10 10,-2 11,0 15,3 42,33 46,27 97,37 22,0 48,-7 76,-6 24,0 52,3 77,6 31,0 86,13 112,9 21,-4 63,-15 69,-37l-11 -4 8 -19 -38 6 0 -13 -3 -6c-17,6 -14,10 -27,16 -53,-44 -128,-78 -194,-98 29,-16 59,24 104,29 30,4 60,-3 85,-20 7,-5 21,-20 27,-27 10,-12 10,-21 22,-32 10,-38 6,-89 -4,-126 -12,-45 -30,-64 -47,-101l-7 -9c-11,-9 -31,-37 -54,-54 -74,-56 -156,-83 -252,-77 5,18 30,22 7,55l-25 1c-24,23 -22,2 -55,8 -18,4 -40,8 -53,18 16,11 36,18 53,29 14,8 31,25 43,31 -37,-12 -169,-122 -334,-71 -24,8 -77,32 -92,51z"/>
  <path class="fil13" d="M1193 405l-5 1c16,-1 8,-3 18,12l45 53c15,18 47,63 61,67 8,-12 14,-41 22,-58 15,-33 66,-153 91,-161 30,87 102,367 91,450 -3,16 2,47 5,65 5,-4 68,-121 79,-139 28,-46 56,-90 87,-134 -18,-69 -221,-298 -265,-320 -49,55 -90,186 -114,219 -28,-6 -88,-52 -115,-55z"/>
  <path class="fil13" d="M311 1114c6,-33 4,-51 16,-85 7,-24 16,-47 29,-67l-5 -2c-27,0 -103,52 -128,69 -26,18 -94,72 -80,111 24,43 135,-13 168,-26z"/>
  <path class="fil13" d="M710 589c36,-9 88,-12 125,-11 -4,3 -1,1 0,-7 10,0 0,-1 6,7l25 13c7,-16 1,-9 5,-20 10,7 22,10 33,8l0 -19c13,-6 -6,4 8,0 -14,-84 -257,-40 -341,23 23,2 45,-4 71,-2 20,1 51,9 68,8z"/>
  <path class="fil13" d="M1277 872c14,-3 25,-6 38,-11 12,-5 28,-13 37,-16l-5 -6c0,0 -3,1 -4,1 8,-9 22,-18 23,-31l-21 6c-4,-9 2,10 -1,-5l-3 -7c-23,8 -43,18 -62,32l-2 37z"/>
  <path class="fil14" d="M1147 1336c-6,1 -5,-4 -5,5l2 61 1 5c8,-14 6,-30 6,-48 9,11 -8,2 2,23 13,-9 19,-31 21,-48l-2 -9 -10 23c-4,-21 -2,-44 -21,-55 5,20 11,33 10,57l-4 -14z"/>
 </g>
</svg>
