<?xml version="1.0" encoding="UTF-8"?>
<!DOCTYPE svg PUBLIC "-//W3C//DTD SVG 1.1//EN" "http://www.w3.org/Graphics/SVG/1.1/DTD/svg11.dtd">
<!-- Creator: CorelDRAW -->
<svg xmlns="http://www.w3.org/2000/svg" xml:space="preserve" width="16.9332mm" height="16.9332mm" style="shape-rendering:geometricPrecision; text-rendering:geometricPrecision; image-rendering:optimizeQuality; fill-rule:evenodd; clip-rule:evenodd"
viewBox="0 0 16.9332 16.9332"
 xmlns:xlink="http://www.w3.org/1999/xlink">
 <defs>
  <style type="text/css">
   <![CDATA[
    .fil1 {fill:#040404}
    .fil0 {fill:#F4F4F6}
   ]]>
  </style>
 </defs>
 <g id="Capa_x0020_1">
  <metadata id="CorelCorpID_0Corel-Layer"/>
  <g id="_710718768">
   <path id="_713315992" class="fil0" d="M15.7038 12.3519c-0.1029,-0.2225 0.0386,-0.5547 0.1223,-0.779 0.1022,-0.2735 0.191,-0.5075 0.4104,-0.6265 0.028,0.4416 -0.2537,1.2821 -0.5327,1.4055zm-11.2945 -3.9943l0.0929 -0.1355c1.6277,0.5835 3.2782,1.1738 4.9279,1.7975l4.9216 1.8836 -9.9424 -3.5456zm-1.7662 0.4202c-1.4388,-0.027 -2.5623,-1.8837 -1.5424,-3.2173l0.0581 2.1c0.1469,0.2855 0.3457,0.5209 0.5914,0.7144 0.3986,0.3138 0.5325,0.2986 0.8929,0.4029zm0.3497 -4.1502c0.9129,-0.131 1.5952,0.8848 0.5047,1.0158 -0.9246,0.1111 -1.6782,-0.8475 -0.5047,-1.0158zm2.1058 2.2473c-0.0896,-2.2377 -2.0662,-2.837 -3.371,-2.1045 -1.4983,0.8413 -1.4592,3.0614 -0.0307,3.8824 0.735,0.4223 1.7057,0.4151 2.3706,-0.0575 0.265,-0.1884 0.1379,-0.1902 0.4946,-0.0596l1.6617 0.5875c2.9181,1.0549 6.0056,2.1664 8.938,3.1819 0.5709,0.1978 0.5966,0.2752 0.8815,-0.2906 0.1053,-0.209 0.437,-0.9503 0.2126,-1.1646 -0.0499,-0.0476 -1.9808,-0.7211 -2.2172,-0.8012 -0.5308,-0.1802 -8.5061,-2.971 -8.9401,-3.1738z"/>
   <path id="_714758328" class="fil1" d="M5.0986 6.8749c0.434,0.2028 8.4093,2.9936 8.9401,3.1738 0.2364,0.0801 2.1673,0.7536 2.2172,0.8012 0.2244,0.2143 -0.1073,0.9556 -0.2126,1.1646 -0.2849,0.5658 -0.3106,0.4884 -0.8815,0.2906 -2.9324,-1.0155 -6.0199,-2.127 -8.938,-3.1819l-1.6617 -0.5875c-0.3567,-0.1306 -0.2296,-0.1288 -0.4946,0.0596 -0.6649,0.4726 -1.6356,0.4798 -2.3706,0.0575 -1.4285,-0.821 -1.4676,-3.0411 0.0307,-3.8824 1.3048,-0.7325 3.2814,-0.1332 3.371,2.1045zm0.1962 -0.1076c-0.2761,-3.3761 -4.4461,-3.0641 -4.8399,-0.4829 -0.2957,1.9379 1.5366,3.2878 3.2246,2.6886 0.9133,-0.3241 0.0701,-0.5021 2.2264,0.2459 1.5304,0.5309 3.1182,1.0689 4.6277,1.6341 1.5213,0.5696 3.0786,1.059 4.5944,1.6219 0.5273,0.1958 0.6687,0.3042 0.981,-0.1692 0.1753,-0.2657 0.3852,-0.7803 0.3997,-1.1721 0.0191,-0.516 -0.1906,-0.4467 -0.8389,-0.6864 -1.8555,-0.6862 -3.9049,-1.3969 -5.7516,-2.0438 -1.1159,-0.3909 -3.716,-1.3781 -4.6234,-1.6361z"/>
   <path id="_713316352" class="fil1" d="M9.4301 10.0196c-1.6497,-0.6237 -3.3002,-1.214 -4.9279,-1.7975l-0.0929 0.1355 9.9424 3.5456 -4.9216 -1.8836z"/>
   <path id="_713113232" class="fil1" d="M2.6431 8.7778c-0.3604,-0.1043 -0.4943,-0.0891 -0.8929,-0.4029 -0.2457,-0.1935 -0.4445,-0.4289 -0.5914,-0.7144l-0.0581 -2.1c-1.0199,1.3336 0.1036,3.1903 1.5424,3.2173z"/>
   <path id="_710717784" class="fil1" d="M2.6419 4.9468c-0.0078,0.3107 0.1945,0.3982 0.4916,0.4673l0.724 -0.1187c0.0132,-0.585 -0.899,-0.5781 -1.2156,-0.3486z"/>
   <path id="_710717976" class="fil0" d="M2.6419 4.9468c0.3166,-0.2295 1.2288,-0.2364 1.2156,0.3486l-0.724 0.1187c-0.2971,-0.0691 -0.4994,-0.1566 -0.4916,-0.4673zm-0.1279 0.0052c-0.0089,0.3893 0.2469,0.4811 0.6045,0.5622 0.3142,0.0713 0.7692,0.0358 0.847,-0.2601 0.1103,-0.4194 -1.0028,-0.8466 -1.4515,-0.3021z"/>
   <path id="_710718120" class="fil1" d="M2.514 4.952c0.4487,-0.5445 1.5618,-0.1173 1.4515,0.3021 -0.0778,0.2959 -0.5328,0.3314 -0.847,0.2601 -0.3576,-0.0811 -0.6134,-0.1729 -0.6045,-0.5622zm0.4788 -0.3244c-1.1735,0.1683 -0.4199,1.1269 0.5047,1.0158 1.0905,-0.131 0.4082,-1.1468 -0.5047,-1.0158z"/>
   <path id="_710718552" class="fil1" d="M15.7038 12.3519c0.279,-0.1234 0.5607,-0.9639 0.5327,-1.4055 -0.2194,0.119 -0.3082,0.353 -0.4104,0.6265 -0.0837,0.2243 -0.2252,0.5565 -0.1223,0.779z"/>
  </g>
 </g>
</svg>
