<?xml version="1.0" encoding="UTF-8"?>
<!DOCTYPE svg PUBLIC "-//W3C//DTD SVG 1.1//EN" "http://www.w3.org/Graphics/SVG/1.1/DTD/svg11.dtd">
<!-- Creator: CorelDRAW -->
<svg xmlns="http://www.w3.org/2000/svg" xml:space="preserve" width="16.9332mm" height="16.9332mm" style="shape-rendering:geometricPrecision; text-rendering:geometricPrecision; image-rendering:optimizeQuality; fill-rule:evenodd; clip-rule:evenodd"
viewBox="0 0 16.9332 16.9332"
 xmlns:xlink="http://www.w3.org/1999/xlink">
 <defs>
  <style type="text/css">
   <![CDATA[
    .fil0 {fill:black}
    .fil2 {fill:#D7D7D9}
    .fil1 {fill:#F4F2F7}
   ]]>
  </style>
 </defs>
 <g id="Capa_x0020_1">
  <metadata id="CorelCorpID_0Corel-Layer"/>
  <g id="_375346688">
   <path id="_375346376" class="fil0" d="M15.6822 12.4522c-0.0442,-0.3394 0.063,-0.6476 0.1782,-0.9299 0.3726,-0.913 0.7607,-0.6375 0.3271,0.3268 -0.1707,0.3798 -0.2382,0.5878 -0.5053,0.6031zm-2.4619 -1.0068c0.1273,0.0463 1.1264,0.36 1.1789,0.4789l-9.9511 -3.5238c0.1405,-0.1744 0.3459,-0.0193 0.5841,0.0652l4.4121 1.6035c0.8318,0.3039 1.6704,0.6059 2.506,0.9124 0.4243,0.1557 0.852,0.3118 1.27,0.4638zm-10.6148 -2.6624c-0.7876,0.0174 -1.4164,-0.5773 -1.6957,-1.0693 -0.3475,-0.6122 -0.3595,-1.6792 0.1083,-2.1559l0.0916 2.138c0.0876,0.3118 0.6343,0.7624 1.0162,0.945 0.1977,0.0945 0.3138,0.0846 0.4796,0.1422zm0.1429 -4.1979c0.9013,-0.2602 1.8525,0.7307 0.8581,0.9797 -0.3969,0.0994 -0.7805,-0.0428 -1.0674,-0.209 -0.2311,-0.1339 -0.3696,-0.6036 0.2093,-0.7707zm2.3892 2.19c-0.0273,-1.035 -0.4828,-1.6567 -1.0655,-2.0414 -0.652,-0.4306 -1.6529,-0.5532 -2.4071,-0.1169 -0.5947,0.3439 -1.1529,0.9288 -1.2324,1.856 -0.1541,1.7974 1.6278,3.1301 3.3767,2.3403 0.2058,-0.0929 0.3255,-0.257 0.5075,-0.2269l1.7197 0.6072c3.0023,1.0338 6.1946,2.1773 9.192,3.2486 0.5609,0.2004 0.6474,0.2603 0.9453,-0.2412 0.1584,-0.2668 0.3809,-0.8493 0.3283,-1.2142 -0.0395,-0.2748 -0.7663,-0.4314 -1.0279,-0.5223 -0.8543,-0.297 -10.0933,-3.5246 -10.3366,-3.6892z"/>
   <path id="_375346496" class="fil1" d="M4.4481 8.4005l9.9511 3.5238c-0.0525,-0.1189 -1.0516,-0.4326 -1.1789,-0.4789 -0.418,-0.152 -0.8457,-0.3081 -1.27,-0.4638 -0.8356,-0.3065 -1.6742,-0.6085 -2.506,-0.9124l-4.4121 -1.6035c-0.2382,-0.0845 -0.4436,-0.2396 -0.5841,-0.0652z"/>
   <path id="_375345896" class="fil1" d="M2.6055 8.783c-0.1658,-0.0576 -0.2819,-0.0477 -0.4796,-0.1422 -0.3819,-0.1826 -0.9286,-0.6332 -1.0162,-0.945l-0.0916 -2.138c-0.4678,0.4767 -0.4558,1.5437 -0.1083,2.1559 0.2793,0.492 0.9081,1.0867 1.6957,1.0693z"/>
   <path id="_375346448" class="fil1" d="M2.5653 4.9062c-0.0094,0.5125 0.9188,0.6537 1.2212,0.3351 0.0471,-0.5525 -0.928,-0.5631 -1.2212,-0.3351z"/>
   <path id="_375345968" class="fil1" d="M15.6822 12.4522c0.2671,-0.0153 0.3346,-0.2233 0.5053,-0.6031 0.4336,-0.9643 0.0455,-1.2398 -0.3271,-0.3268 -0.1152,0.2823 -0.2224,0.5905 -0.1782,0.9299z"/>
   <path id="_375345848" class="fil0" d="M2.5653 4.9062c0.2932,-0.228 1.2683,-0.2174 1.2212,0.3351 -0.3024,0.3186 -1.2306,0.1774 -1.2212,-0.3351zm-0.1234 0.0152c-0.0367,0.7654 1.3612,0.7383 1.4678,0.304 0.118,-0.4811 -1.0035,-0.8848 -1.4678,-0.304z"/>
   <path id="_375346640" class="fil2" d="M2.4419 4.9214c0.4643,-0.5808 1.5858,-0.1771 1.4678,0.304 -0.1066,0.4343 -1.5045,0.4614 -1.4678,-0.304zm0.3065 -0.3363c-0.5789,0.1671 -0.4404,0.6368 -0.2093,0.7707 0.2869,0.1662 0.6705,0.3084 1.0674,0.209 0.9944,-0.249 0.0432,-1.2399 -0.8581,-0.9797z"/>
  </g>
 </g>
</svg>
