<?xml version="1.0" encoding="UTF-8"?>
<!DOCTYPE svg PUBLIC "-//W3C//DTD SVG 1.1//EN" "http://www.w3.org/Graphics/SVG/1.1/DTD/svg11.dtd">
<!-- Creator: CorelDRAW -->
<svg xmlns="http://www.w3.org/2000/svg" xml:space="preserve" width="16.9332mm" height="16.9332mm" style="shape-rendering:geometricPrecision; text-rendering:geometricPrecision; image-rendering:optimizeQuality; fill-rule:evenodd; clip-rule:evenodd"
viewBox="0 0 16.9332 16.9332"
 xmlns:xlink="http://www.w3.org/1999/xlink">
 <defs>
  <style type="text/css">
   <![CDATA[
    .fil0 {fill:black}
    .fil1 {fill:#F3F2F7}
   ]]>
  </style>
 </defs>
 <g id="Capa_x0020_1">
  <metadata id="CorelCorpID_0Corel-Layer"/>
  <g id="_713276480">
   <path id="_376082608" class="fil0" d="M2.539 15.1439c-0.1119,-0.4125 0.5543,-0.8548 0.6103,-0.8699 0.3458,-0.0931 0.8269,0.4215 0.8683,0.6361 0.0677,0.3515 -0.401,0.7899 -0.6287,0.8492 -0.3318,0.0866 -0.7972,-0.4208 -0.8499,-0.6154zm1.5577 -0.8408c-0.1229,-0.4215 0.6716,-0.7828 0.8338,-0.147 0.0716,0.2808 -0.2749,0.4648 -0.3365,0.4853 -0.2922,0.0972 -0.4817,-0.2847 -0.4973,-0.3383zm-2.0458 -1.217c0.1831,-0.0834 1.1987,0.2405 0.6998,0.9111 -0.0846,0.1137 -0.2004,0.2827 -0.3143,0.3307 -0.3215,0.1355 -0.794,-0.322 -0.8321,-0.4551 -0.0769,-0.2681 0.3075,-0.7234 0.4466,-0.7867zm1.4968 0.0503c0.1624,-0.0546 0.2638,0.0373 0.3475,0.1271 0.0734,0.0787 0.1861,0.2127 0.2157,0.3077 0.0979,0.3132 -0.3629,0.5605 -0.442,0.5851 -0.3675,0.1144 -1.0418,-0.7099 -0.1212,-1.0199zm0.8807 -0.7641c0.1867,-0.0541 0.3266,0.0554 0.4558,0.1423 0.1489,0.1 0.2709,0.1475 0.3214,0.3232 0.0614,0.2132 -0.044,0.3529 -0.1355,0.4757 -0.1005,0.135 -0.1555,0.2725 -0.3177,0.3247 -0.2827,0.0912 -0.7607,-0.2894 -0.8135,-0.4664 -0.075,-0.2513 0.2439,-0.7283 0.4895,-0.7995zm-1.1387 -0.8073c0.253,-0.1075 0.4027,-0.022 0.5447,0.1574 0.2457,0.3107 0.5263,0.6415 0.1316,0.9681 -0.2859,0.2367 -0.658,0.5392 -0.9685,0.1508 -0.0609,-0.0762 -0.2791,-0.3733 -0.3104,-0.4531 -0.1515,-0.3857 0.3597,-0.7199 0.6026,-0.8232zm-2.1881 0.3727c0.0365,-0.2301 0.4801,-0.6998 0.7376,-0.6632 -0.2264,0.349 -0.1945,0.3753 -0.4763,0.5749 -0.0794,0.0563 -0.1422,0.0861 -0.2613,0.0883zm4.5372 0.4241c0.299,-0.1835 1.5358,-1.4276 1.8423,-1.6813 0.1364,-0.1129 0.2485,-0.1932 0.3603,-0.3211 0.1455,-0.1664 0.223,-0.2139 0.3767,-0.3437l1.443 -1.3591c0.4287,-0.3616 0.7268,-0.6888 1.079,-1.003l1.0795 -1.0025c0.1279,-0.1157 0.2456,-0.1928 0.3709,-0.311 0.0713,-0.0674 0.0994,-0.1155 0.1709,-0.1883l2.3534 -2.1712c0.1559,-0.1277 0.1944,-0.163 0.3486,-0.3319l0.9239 -0.8391c0.2006,-0.1656 0.6056,-0.066 0.5076,-0.5029 -0.0363,-0.1613 -0.2127,-0.2655 -0.3087,-0.3724 -0.1156,-0.1285 -0.1968,-0.2421 -0.3133,-0.3684 -0.1314,-0.1424 -0.2318,-0.2078 -0.3591,-0.3611 -0.0956,-0.1153 -0.198,-0.2823 -0.3738,-0.3181 -0.2997,-0.061 -0.3412,0.1108 -0.4026,0.3172 -0.061,0.2053 -0.5392,0.5578 -0.6948,0.7034 -0.5069,0.4744 -1.6559,1.5931 -2.157,2.0068l-3.9686 3.6797c-0.6812,0.6292 -1.4659,1.4079 -2.1566,2.0074l-1.4123 1.3463c-0.7488,-0.2037 -1.2421,-0.4186 -2.0477,-0.1624 -2.07,0.6585 -2.379,3.1673 -1.1682,4.4005 0.9267,0.9439 2.2431,1.1598 3.3923,0.4651 0.449,-0.2714 0.8263,-0.6822 1.0727,-1.2491 0.3983,-0.916 0.0975,-1.4965 0.0416,-2.0398z"/>
   <path id="_713271656" class="fil1" d="M3.2897 11.565c-0.2429,0.1033 -0.7541,0.4375 -0.6026,0.8232 0.0313,0.0798 0.2495,0.3769 0.3104,0.4531 0.3105,0.3884 0.6826,0.0859 0.9685,-0.1508 0.3947,-0.3266 0.1141,-0.6574 -0.1316,-0.9681 -0.142,-0.1794 -0.2917,-0.2649 -0.5447,-0.1574z"/>
   <path id="_713275688" class="fil1" d="M2.539 15.1439c0.0527,0.1946 0.5181,0.702 0.8499,0.6154 0.2277,-0.0593 0.6964,-0.4977 0.6287,-0.8492 -0.0414,-0.2146 -0.5225,-0.7292 -0.8683,-0.6361 -0.056,0.0151 -0.7222,0.4574 -0.6103,0.8699z"/>
   <path id="_713276024" class="fil1" d="M4.4284 12.3723c-0.2456,0.0712 -0.5645,0.5482 -0.4895,0.7995 0.0528,0.177 0.5308,0.5576 0.8135,0.4664 0.1622,-0.0522 0.2172,-0.1897 0.3177,-0.3247 0.0915,-0.1228 0.1969,-0.2625 0.1355,-0.4757 -0.0505,-0.1757 -0.1725,-0.2232 -0.3214,-0.3232 -0.1292,-0.0869 -0.2691,-0.1964 -0.4558,-0.1423z"/>
   <path id="_713275400" class="fil1" d="M2.0509 13.0861c-0.1391,0.0633 -0.5235,0.5186 -0.4466,0.7867 0.0381,0.1331 0.5106,0.5906 0.8321,0.4551 0.1139,-0.048 0.2297,-0.217 0.3143,-0.3307 0.4989,-0.6706 -0.5167,-0.9945 -0.6998,-0.9111z"/>
   <path id="_713275472" class="fil1" d="M3.5477 13.1364c-0.9206,0.31 -0.2463,1.1343 0.1212,1.0199 0.0791,-0.0246 0.5399,-0.2719 0.442,-0.5851 -0.0296,-0.095 -0.1423,-0.229 -0.2157,-0.3077 -0.0837,-0.0898 -0.1851,-0.1817 -0.3475,-0.1271z"/>
   <path id="_713275592" class="fil1" d="M4.0967 14.3031c0.0156,0.0536 0.2051,0.4355 0.4973,0.3383 0.0616,-0.0205 0.4081,-0.2045 0.3365,-0.4853 -0.1622,-0.6358 -0.9567,-0.2745 -0.8338,0.147z"/>
   <path id="_713276720" class="fil1" d="M1.1016 11.9377c0.1191,-0.0022 0.1819,-0.032 0.2613,-0.0883 0.2818,-0.1996 0.2499,-0.2259 0.4763,-0.5749 -0.2575,-0.0366 -0.7011,0.4331 -0.7376,0.6632z"/>
  </g>
 </g>
</svg>
