<?xml version="1.0" encoding="UTF-8"?>
<!DOCTYPE svg PUBLIC "-//W3C//DTD SVG 1.1//EN" "http://www.w3.org/Graphics/SVG/1.1/DTD/svg11.dtd">
<!-- Creator: CorelDRAW -->
<svg xmlns="http://www.w3.org/2000/svg" xml:space="preserve" width="16.9332mm" height="16.9332mm" style="shape-rendering:geometricPrecision; text-rendering:geometricPrecision; image-rendering:optimizeQuality; fill-rule:evenodd; clip-rule:evenodd"
viewBox="0 0 16.9332 16.9332"
 xmlns:xlink="http://www.w3.org/1999/xlink">
 <defs>
  <style type="text/css">
   <![CDATA[
    .fil0 {fill:black}
    .fil2 {fill:#121212}
    .fil4 {fill:#9B9B9B}
    .fil5 {fill:#B2B2B2}
    .fil3 {fill:#C9C9C9}
    .fil1 {fill:#F3F3F5}
   ]]>
  </style>
 </defs>
 <g id="Capa_x0020_1">
  <metadata id="CorelCorpID_0Corel-Layer"/>
  <g id="_413332616">
   <path id="_374634888" class="fil0" d="M7.0289 11.3192l-0.137 0 0 0.0457 -0.2281 0 0 0.0456 -0.137 0 0 0.0456 -0.0912 0 0 0.0457 -0.1826 0 0 0.0456 -0.1826 0 0 0.0457 -0.2282 0 0 0.0456 -0.2739 0 0 0.0457 -0.0912 0 0 0.0456 -0.2739 0 0 0.0456 -0.0912 0 0 0.0457 -0.0914 0 0 0.0456 -0.2282 0 0 0.0457 -0.3195 0 0 0.0456 -0.1369 0 0 0.0456 -0.1825 0 0 -0.1369 0.1369 0 0 -0.0456 0.1825 0 0 -0.0457 0.2739 0 0 -0.0456 0.0456 0 0 -0.0456 0.2282 0 0 -0.0457 0.137 0 0 -0.0456 0.0456 0 0 -0.0457 0.2282 0 0 -0.0456 0.3651 0 0 -0.0457 0.2283 0 0 -0.0456 0.1369 0 0 -0.0456 0.1825 0 0 -0.0457 0.0914 0 0 -0.0456 0.1825 0 0 -0.0457 0.0457 0 0 -0.0456 0.3195 0 0 -0.0456 0.1825 0 0 0.1369 -0.1369 0 0 0.0456zm6.755 0.1826l-0.0456 0 0 0.2282 -0.0457 0 0 0.1826 -0.0456 0 0 0.0912 -0.0457 0 0 0.137 -0.0456 0 0 0.1369 -0.0456 0 0 0.1369 -0.0457 0 0 0.0913 -0.0456 0 0 0.0913 -0.0456 0 0 0.1369 -0.0457 0 0 0.0913 -0.0457 0 0 0.0913 -0.0456 0 0 0.0456 -0.0456 0 0 0.0913 -0.0457 0 0 0.0913 -0.0456 0 0 0.0457 -0.0457 0 0 0.0912 -0.0456 0 0 0.0913 -0.0456 0 0 0.0457 -0.0457 0 0 0.0456 -0.0456 0 0 0.0913 -0.0457 0 0 0.0456 -0.0456 0 0 0.0457 -0.0457 0 0 0.0913 -0.0456 0 0 0.0456 -0.0456 0 0 0.0456 -0.0457 0 0 0.0457 -0.0456 0 0 0.0456 -0.0457 0 0 0.0457 -0.0456 0 0 0.0456 -0.0456 0 0 0.0456 -0.0457 0 0 0.0457 -0.0457 0 0 0.0457 -0.0456 0 0 0.0456 -0.0456 0 0 0.0456 -0.0457 0 0 0.0457 -0.0456 0 0 0.0456 -0.0456 0 0 0.0456 -0.0913 0 0 0.0457 -0.0457 0 0 0.0456 -0.0456 0 0 0.0457 -0.0456 0 0 0.0456 -0.0914 0 0 0.0456 -0.0456 0 0 0.0457 -0.0913 0 0 0.0457 -0.0456 0 0 0.0456 -0.0913 0 0 0.0456 -0.0456 0 0 0.0457 -0.1369 0 0 0.0913 -0.0914 0 0 0.0456 -0.0912 0 0 0.0456 -0.0913 0 0 0.0457 -0.1826 0 0 0.0456 -0.0912 0 0 0.0456 -0.0457 0 0 0.0457 -0.1825 0 0 0.0457 -0.137 0 0 0.0456 -0.0913 0 0 0.0456 -0.2738 0 0 0.0457 -0.0913 0 0 0.0456 -0.2739 0 0 0.0457 -0.1369 0 0 0.0456 -1.278 0 0 -0.0456 -0.3194 0 0 -0.0457 -0.2283 0 0 -0.0913 -0.1369 0 0 -0.0456 -0.2739 0 0 -0.0456 -0.1369 0 0 -0.0457 -0.0456 0 0 -0.0457 -0.0913 0 0 -0.0456 -0.0913 0 0 -0.0456 -0.0913 0 0 -0.0457 -0.1825 0 0 -0.0456 -0.0457 0 0 -0.0456 -0.1369 0 0 -0.0457 -0.0913 0 0 -0.0456 -0.0457 0 0 -0.0457 -0.0456 0 0 -0.0456 -0.0913 0 0 -0.0456 -0.0913 0 0 -0.0457 -0.0456 0 0 -0.0457 -0.0456 0 0 -0.0456 -0.0913 0 0 -0.0456 -0.0456 0 0 -0.0457 -0.0457 0 0 -0.0456 -0.0913 0 0 -0.0457 -0.0456 0 0 -0.0456 -0.0456 0 0 -0.0456 -0.0457 0 0 -0.0457 -0.0457 0 0 -0.0456 -0.0456 0 0 -0.0456 -0.0456 0 0 -0.0457 -0.0457 0 0 -0.0457 -0.0456 0 0 -0.0456 -0.0457 0 0 -0.0456 -0.0456 0 0 -0.0457 -0.0456 0 0 -0.0456 -0.0457 0 0 -0.0457 -0.0456 0 0 -0.0456 -0.0456 0 0 -0.0456 -0.0457 0 0 -0.0457 -0.0457 0 0 -0.0913 -0.0456 0 0 -0.0456 -0.0456 0 0 -0.0457 -0.0457 0 0 -0.0912 -0.0456 0 0 -0.0457 -0.0457 0 0 -0.0913 -0.0456 0 0 -0.0456 -0.0456 0 0 -0.0913 -0.0457 0 0 -0.0457 -0.0456 0 0 -0.0912 -0.0457 0 0 -0.0913 -0.0456 0 0 -0.0913 -0.0457 0 0 -0.0913 -0.0456 0 0 -0.0912 -0.0456 0 0 -0.0914 -0.0457 0 0 -0.0912 -0.0456 0 0 -0.137 -0.0457 0 0 -0.0912 0.1826 0 0 -0.0457 0.0913 0 0 -0.0456 0.1826 0 0 -0.0456 0.1825 0 0 -0.0457 0.1826 0 0 -0.0457 0.1826 0 0 -0.0456 0.1825 0 0 -0.0456 0.0913 0 0 -0.0457 0.1826 0 0 -0.0456 0.1369 0 0 -0.0457 0.3651 0 0 -0.0912 0.1369 0 0 -0.0457 0.3652 0 0 -0.0456 0.1825 0 0 -0.0457 0.137 0 0 -0.0456 0.0456 0 0 -0.0457 0.2282 0 0 0.0913 0.0457 0 0 0.0457 0.0456 0 0 0.0913 0.0457 0 0 0.0456 0.0456 0 0 0.0456 0.0457 0 0 0.0457 0.0456 0 0 0.0456 0.0456 0 0 0.0457 0.0457 0 0 0.0456 0.0456 0 0 0.0456 0.0457 0 0 0.0457 0.0912 0 0 0.0457 0.0457 0 0 0.0456 0.0457 0 0 0.0456 0.1369 0 0 0.0457 0.0456 0 0 0.0456 0.0913 0 0 0.0456 0.1369 0 0 0.0457 0.1826 0 0 0.0456 0.7303 0 0 -0.0913 0.2738 0 0 -0.0456 0.1369 0 0 -0.0456 0.0913 0 0 -0.0913 0.1369 0 0 -0.0456 0.0914 0 0 -0.0914 0.0912 0 0 -0.0456 0.0457 0 0 -0.0456 0.0456 0 0 -0.0457 0.0456 0 0 -0.0456 0.0457 0 0 -0.0457 0.0456 0 0 -0.0456 0.0457 0 0 -0.0913 0.0456 0 0 -0.0456 0.0456 0 0 -0.0913 0.0457 0 0 -0.0913 0.0457 0 0 -0.0913 0.0456 0 0 -0.0913 0.0456 0 0 -0.1369 0.0457 0 0 -0.1369 0.0456 0 0 -0.3651 0.0457 0 0 -0.0457 0.2738 0 0 -0.0456 0.1825 0 0 -0.0457 0.137 0 0 -0.0456 0.2282 0 0 -0.0456 0.1825 0 0 -0.0457 0.1826 0 0 -0.0457 0.137 0 0 -0.0456 0.1825 0 0 -0.0456 0.1826 0 0 -0.0457 0.1826 0 0 -0.0456 0.1825 0 0 -0.0456 0.1826 0 0 -0.0913 0.1826 0 0 -0.0457 0.1369 0 0 -0.0456 0.2282 0 0 -0.0456 0.2282 0 0 0.1369 0.0456 0 0 1.1867 -0.0456 0 0 0.3651zm-6.5268 -1.2324l0.0456 0 0 -0.2281 0.0457 0 0 -0.0913 0.0456 0 0 -0.0913 0.0457 0 0 -0.0913 0.0456 0 0 -0.0913 0.0457 0 0 -0.0456 0.0456 0 0 -0.0913 0.0456 0 0 -0.0457 0.0457 0 0 -0.0456 0.0456 0 0 -0.0456 0.0457 0 0 -0.0457 0.0456 0 0 -0.0456 0.0456 0 0 -0.0456 0.0914 0 0 -0.0457 0.0456 0 0 -0.0457 0.0913 0 0 -0.0456 0.0456 0 0 -0.0456 0.0456 0 0 -0.0457 0.137 0 0 -0.0456 0.3651 0 0 -0.0457 0.4564 0 0 0.0457 0.2282 0 0 0.0456 0.1826 0 0 0.0457 0.1369 0 0 0.0456 0.0457 0 0 0.0456 0.0913 0 0 0.0457 0.0456 0 0 0.0457 0.0456 0 0 0.0456 0.0914 0 0 0.0456 0.0456 0 0 0.0457 0.0456 0 0 0.0456 0.0457 0 0 0.0456 0.0456 0 0 0.0913 0.0456 0 0 0.0457 0.0457 0 0 0.0912 0.0456 0 0 0.0914 0.0457 0 0 0.0912 0.0456 0 0 0.0913 0.0456 0 0 0.0913 0.0457 0 0 0.3195 0.0457 0 0 0.4108 -0.0457 0 0 0.1825 -0.0457 0 0 0.137 -0.0456 0 0 0.0912 -0.0456 0 0 0.0913 -0.0457 0 0 0.0913 -0.0456 0 0 0.0913 -0.0457 0 0 0.0456 -0.0456 0 0 0.0457 -0.0456 0 0 0.0456 -0.0457 0 0 0.0457 -0.0456 0 0 0.0456 -0.0456 0 0 0.0456 -0.0457 0 0 0.0457 -0.0457 0 0 0.0456 -0.0456 0 0 0.0457 -0.0913 0 0 0.0456 -0.0456 0 0 0.0456 -0.1369 0 0 0.0457 -0.0457 0 0 0.0457 -0.0913 0 0 0.0456 -0.3195 0 0 0.0456 -0.4564 0 0 -0.0456 -0.2282 0 0 -0.0456 -0.2282 0 0 -0.0457 -0.0913 0 0 -0.0457 -0.0913 0 0 -0.0456 -0.0456 0 0 -0.0456 -0.0456 0 0 -0.0457 -0.0914 0 0 -0.0456 -0.0456 0 0 -0.0457 -0.0456 0 0 -0.0456 -0.0457 0 0 -0.0456 -0.0456 0 0 -0.0457 -0.0457 0 0 -0.0913 -0.0456 0 0 -0.0456 -0.0456 0 0 -0.0457 -0.0457 0 0 -0.0912 -0.0456 0 0 -0.0913 -0.0457 0 0 -0.0913 -0.0456 0 0 -0.1826 -0.0457 0 0 -0.1825 -0.0456 0 0 -0.5478zm6.2986 -0.5933l-0.1369 0 0 0.0456 -0.2282 0 0 0.0457 -0.1826 0 0 0.0457 -0.1826 0 0 0.0456 -0.0913 0 0 0.0456 -0.1825 0 0 0.0457 -0.1826 0 0 0.0456 -0.1826 0 0 0.0457 -0.1825 0 0 0.0456 -0.4108 0 0 0.0913 -0.1369 0 0 0.0456 -0.1826 0 0 0.0456 -0.2282 0 0 0.0457 -0.1826 0 0 0.0457 -0.1369 0 0 -0.137 0.1369 0 0 -0.0456 0.0913 0 0 -0.0457 0.2282 0 0 -0.0456 0.2282 0 0 -0.0456 0.0913 0 0 -0.0457 0.0913 0 0 -0.0456 0.0913 0 0 -0.0457 0.1826 0 0 -0.0456 0.1825 0 0 -0.0456 0.2738 0 0 -0.0457 0.137 0 0 -0.0457 0.1369 0 0 -0.0456 0.2282 0 0 -0.0456 0.2739 0 0 -0.0457 0.1825 0 0 -0.0456 0.1826 0 0 -0.0457 0.0457 0 0 -0.0456 0.2282 0 0 0.1826 -0.1826 0 0 0.0456zm-9.6761 -2.0539l0.3195 0 0 0.0456 0.3651 0 0 0.137 -0.3651 0 0 -0.0456 -0.3195 0 0 -0.137zm-3.7883 -0.2738l0.2738 0 0 0.0456 0.5934 0 0 0.0457 0.0913 0 0 0.0456 0.5021 0 0 0.0456 0.2738 0 0 0.0457 0.0456 0 0 0.1826 0.0457 0 0 0.1369 0.0456 0 0 0.0456 0.0456 0 0 0.0913 0.0457 0 0 0.0456 0.0457 0 0 0.0457 0.0456 0 0 0.0456 0.0456 0 0 0.0456 0.0457 0 0 0.0457 0.0456 0 0 0.0457 0.0457 0 0 0.0456 0.1825 0 0 0.0456 0.1826 0 0 0.0457 0.3652 0 0 -0.0457 0.2738 0 0 -0.0456 0.0913 0 0 -0.0456 0.0456 0 0 -0.0457 0.0456 0 0 -0.0457 0.0457 0 0 -0.0456 0.0457 0 0 -0.0456 0.0456 0 0 -0.0457 0.0456 0 0 -0.0456 0.0457 0 0 -0.0913 0.0456 0 0 -0.0913 0.2282 0 0 0.0457 0.4108 0 0 0.1369 -0.0456 0 0 0.0456 -0.0457 0 0 0.0913 -0.0456 0 0 0.0913 -0.0457 0 0 0.0913 -0.0456 0 0 0.0913 -0.0456 0 0 0.1369 -0.0457 0 0 0.0913 -0.0457 0 0 0.1369 -0.0456 0 0 0.1369 -0.0456 0 0 0.1826 -0.0457 0 0 0.0913 -0.0456 0 0 0.1826 -0.0456 0 0 0.3194 -0.0457 0 0 0.3196 -0.0456 0 0 0.0456 -0.0913 0 0 0.0456 -0.0913 0 0 0.0457 -0.2282 0 0 0.0456 -0.9129 0 0 -0.0456 -0.2282 0 0 -0.0457 -0.1369 0 0 -0.0456 -0.1369 0 0 -0.0456 -0.0457 0 0 -0.0457 -0.0456 0 0 -0.0456 -0.1369 0 0 -0.0457 -0.0913 0 0 -0.0456 -0.137 0 0 -0.0456 -0.0456 0 0 -0.0457 -0.0913 0 0 -0.0457 -0.0456 0 0 -0.0456 -0.0913 0 0 -0.0456 -0.0456 0 0 -0.0457 -0.0457 0 0 -0.0456 -0.0456 0 0 -0.0457 -0.0456 0 0 -0.0456 -0.0457 0 0 -0.0456 -0.0457 0 0 -0.0457 -0.0456 0 0 -0.0456 -0.0456 0 0 -0.0456 -0.0457 0 0 -0.0457 -0.0456 0 0 -0.0457 -0.0457 0 0 -0.0456 -0.0456 0 0 -0.0913 -0.0456 0 0 -0.0456 -0.0457 0 0 -0.0913 -0.0456 0 0 -0.0456 -0.0457 0 0 -0.0913 -0.0456 0 0 -0.0913 -0.0457 0 0 -0.0913 -0.0456 0 0 -0.0913 -0.0456 0 0 -0.1369 -0.0456 0 0 -0.137 -0.0457 0 0 -0.1369 -0.0457 0 0 -0.3194 -0.0456 0 0 -0.4108zm1.8713 -0.1826l0.0456 0 0 -0.0913 0.0457 0 0 -0.0913 0.0457 0 0 -0.0913 0.0456 0 0 -0.0456 0.0456 0 0 -0.0456 0.0457 0 0 -0.0457 0.0456 0 0 -0.0456 0.0457 0 0 -0.0456 0.0912 0 0 -0.0457 0.0457 0 0 -0.0457 0.2738 0 0 -0.0456 0.3196 0 0 0.0456 0.2281 0 0 0.0457 0.0913 0 0 0.0457 0.0457 0 0 0.0456 0.0456 0 0 0.0456 0.0456 0 0 0.0457 0.0457 0 0 0.0456 0.0457 0 0 0.0456 0.0456 0 0 0.0913 0.0456 0 0 0.0913 0.0457 0 0 0.0913 0.0456 0 0 0.4564 -0.0456 0 0 0.1826 -0.0457 0 0 0.0913 -0.0456 0 0 0.0456 -0.0456 0 0 0.0913 -0.0457 0 0 0.0456 -0.0457 0 0 0.0457 -0.0456 0 0 0.0456 -0.0913 0 0 0.0456 -0.0456 0 0 0.0457 -0.1369 0 0 0.0913 -0.5477 0 0 -0.0456 -0.0913 0 0 -0.0457 -0.0457 0 0 -0.0457 -0.1369 0 0 -0.0456 -0.0913 0 0 -0.0456 -0.0456 0 0 -0.0457 -0.0457 0 0 -0.0456 -0.0456 0 0 -0.0913 -0.0456 0 0 -0.0456 -0.0457 0 0 -0.0913 -0.0457 0 0 -0.1826 -0.0456 0 0 -0.4564zm-1.8713 -0.0457l0.4108 0 0 0.0457 0.1825 0 0 0.0457 0.4108 0 0 0.0456 0.1826 0 0 0.0456 0.5477 0 0 0.137 -0.2738 0 0 -0.0457 -0.4108 0 0 -0.0456 -0.1826 0 0 -0.0457 -0.2282 0 0 -0.0456 -0.5934 0 0 -0.0456 -0.0456 0 0 -0.0914zm14.9706 -0.6846l0.2282 0 0 0.0457 0.3651 0 0 0.0456 0.3196 0 0 0.0456 0.5477 0 0 0.0457 0.2738 0 0 0.0913 -0.5021 0 0 -0.0456 -0.3651 0 0 -0.0457 -0.3195 0 0 -0.0457 -0.3651 0 0 -0.0456 -0.1826 0 0 -0.0913zm-1.917 -0.4108l0.0457 0 0 -0.1369 0.0456 0 0 -0.1369 0.0456 0 0 -0.0456 0.0457 0 0 -0.0457 0.0457 0 0 -0.0913 0.0912 0 0 -0.0456 0.0457 0 0 -0.0457 0.0456 0 0 -0.0456 0.0456 0 0 -0.0456 0.137 0 0 -0.0457 0.0456 0 0 -0.0456 0.5021 0 0 0.0456 0.1369 0 0 0.0913 0.1369 0 0 0.0456 0.0457 0 0 0.0457 0.0913 0 0 0.0456 0.0456 0 0 0.0913 0.0456 0 0 0.0457 0.0457 0 0 0.0456 0.0456 0 0 0.1369 0.0457 0 0 0.0913 0.0456 0 0 0.5021 -0.0456 0 0 0.0912 -0.0457 0 0 0.0914 -0.0456 0 0 0.0912 -0.0457 0 0 0.0457 -0.0456 0 0 0.0456 -0.0456 0 0 0.0456 -0.0457 0 0 0.0457 -0.0456 0 0 0.0456 -0.0457 0 0 0.0457 -0.1369 0 0 0.0456 -0.1826 0 0 0.0456 -0.5477 0 0 -0.0912 -0.1369 0 0 -0.0457 -0.0456 0 0 -0.0456 -0.0457 0 0 -0.0457 -0.0456 0 0 -0.0456 -0.0456 0 0 -0.0456 -0.0457 0 0 -0.0457 -0.0457 0 0 -0.0912 -0.0456 0 0 -0.0457 -0.0456 0 0 -0.1369 -0.0457 0 0 -0.4565zm-1.4149 0.1826l0.2739 0 0 0.0457 0.502 0 0 0.0456 0.1826 0 0 0.0456 0.3651 0 0 0.2282 0.0457 0 0 0.0914 0.0456 0 0 0.0912 0.0457 0 0 0.0913 0.0456 0 0 0.0456 0.0456 0 0 0.0457 0.0457 0 0 0.0456 0.0457 0 0 0.0457 0.0456 0 0 0.0456 0.0913 0 0 0.0456 0.1369 0 0 0.0457 0.0456 0 0 0.0457 0.0913 0 0 0.0456 0.5021 0 0 -0.0456 0.1369 0 0 -0.0457 0.1369 0 0 -0.0457 0.0457 0 0 -0.0456 0.0913 0 0 -0.0456 0.0456 0 0 -0.0457 0.0456 0 0 -0.0456 0.0457 0 0 -0.0457 0.0456 0 0 -0.0456 0.0457 0 0 -0.0913 0.0456 0 0 -0.1369 0.3651 0 0 0.0913 0.4108 0 0 0.0456 0.2739 0 0 0.0457 0.3195 0 0 0.0456 0.4108 0 0 0.1826 -0.0457 0 0 0.1369 -0.0456 0 0 0.0913 -0.0457 0 0 0.1369 -0.0456 0 0 0.0913 -0.0456 0 0 0.0913 -0.0457 0 0 0.0456 -0.0457 0 0 0.0913 -0.0456 0 0 0.0913 -0.0456 0 0 0.0456 -0.0457 0 0 0.0457 -0.0456 0 0 0.0913 -0.0456 0 0 0.0456 -0.0457 0 0 0.0456 -0.0456 0 0 0.0457 -0.0457 0 0 0.0456 -0.0456 0 0 0.0456 -0.0456 0 0 0.0457 -0.0457 0 0 0.0457 -0.0457 0 0 0.0456 -0.0456 0 0 0.0456 -0.0913 0 0 0.0457 -0.0456 0 0 0.0456 -0.0457 0 0 0.0457 -0.0912 0 0 0.0456 -0.0457 0 0 0.0456 -0.1369 0 0 0.0914 -0.0913 0 0 0.0456 -0.2282 0 0 0.0456 -0.0456 0 0 0.0457 -0.0913 0 0 0.0456 -0.0913 0 0 0.0456 -0.4565 0 0 0.0457 -0.5933 0 0 -0.1369 -0.0456 0 0 -0.0913 -0.0457 0 0 -0.137 -0.0456 0 0 -0.0912 -0.0457 0 0 -0.137 -0.0456 0 0 -0.0912 -0.0456 0 0 -0.0914 -0.0457 0 0 -0.0912 -0.0456 0 0 -0.0913 -0.0456 0 0 -0.0456 -0.0457 0 0 -0.0913 -0.0457 0 0 -0.0913 -0.0456 0 0 -0.0456 -0.0456 0 0 -0.0914 -0.0457 0 0 -0.0456 -0.0456 0 0 -0.0913 -0.0457 0 0 -0.0456 -0.0456 0 0 -0.0456 -0.0456 0 0 -0.0913 -0.0457 0 0 -0.0457 -0.0456 0 0 -0.0456 -0.0457 0 0 -0.0456 -0.0456 0 0 -0.0457 -0.0457 0 0 -0.0457 -0.0456 0 0 -0.0912 -0.0456 0 0 -0.0457 -0.0457 0 0 -0.0456 -0.0456 0 0 -0.0457 -0.0457 0 0 -0.0456 -0.0456 0 0 -0.0456 -0.0456 0 0 -0.0457 -0.0914 0 0 -0.0456 -0.0456 0 0 -0.0456 -0.0456 0 0 -0.0457 -0.0457 0 0 -0.0457 -0.0456 0 0 -0.0456 -0.0456 0 0 -0.0456 -0.0913 0 0 -0.0457 -0.0457 0 0 -0.0456 -0.0456 0 0 -0.0457 -0.0913 0 0 -0.0456 -0.0457 0 0 -0.0456 -0.0456 0 0 -0.0457zm-3.697 0.0457l-0.0456 0 0 0.0456 -0.0456 0 0 0.0456 -0.0914 0 0 0.0457 -0.1369 0 0 0.0456 -0.0913 0 0 0.0457 -0.0912 0 0 0.0456 -0.1826 0 0 0.0456 -0.0913 0 0 0.0457 -0.0913 0 0 0.0457 -0.0913 0 0 0.0456 -0.0912 0 0 0.0913 -0.137 0 0 0.0456 -0.0456 0 0 0.0456 -0.0457 0 0 0.0457 -0.1369 0 0 0.0456 -0.0456 0 0 0.0457 -0.0457 0 0 0.0456 -0.0912 0 0 0.0456 -0.0457 0 0 0.0457 -0.0457 0 0 0.0457 -0.0456 0 0 0.0456 -0.0913 0 0 0.0456 -0.0456 0 0 0.0457 -0.0457 0 0 0.0456 -0.0456 0 0 0.0457 -0.0456 0 0 0.0456 -0.0457 0 0 0.0456 -0.0456 0 0 0.0457 -0.0456 0 0 0.0456 -0.0457 0 0 0.0913 -0.0457 0 0 0.0457 -0.0456 0 0 0.0456 -0.0456 0 0 0.0456 -0.0456 0 0 0.0913 -0.0457 0 0 0.0457 -0.0457 0 0 0.0912 -0.0456 0 0 0.0457 -0.0456 0 0 0.0912 -0.0457 0 0 0.0457 -0.0456 0 0 0.0913 -0.0457 0 0 0.0913 -0.0456 0 0 0.0456 -0.0456 0 0 0.0913 -0.0457 0 0 0.0913 -0.0456 0 0 0.0913 -0.0456 0 0 0.0913 -0.0457 0 0 0.0912 -0.0457 0 0 0.0457 -0.0456 0 0 0.0913 -0.0456 0 0 0.0456 -0.0457 0 0 0.0456 -0.0913 0 0 -0.3651 0.0457 0 0 -0.1369 0.0456 0 0 -0.0913 0.0457 0 0 -0.1369 0.0456 0 0 -0.0913 0.0456 0 0 -0.0913 0.0457 0 0 -0.0457 0.0457 0 0 -0.0912 0.0456 0 0 -0.0913 0.0456 0 0 -0.0913 0.0457 0 0 -0.0456 0.0456 0 0 -0.0913 0.0456 0 0 -0.0456 0.0457 0 0 -0.0457 0.0456 0 0 -0.0913 0.0457 0 0 -0.0456 0.0456 0 0 -0.0457 0.0456 0 0 -0.0456 0.0457 0 0 -0.0913 0.0457 0 0 -0.0456 0.0456 0 0 -0.0457 0.0456 0 0 -0.0456 0.0456 0 0 -0.0456 0.0457 0 0 -0.0457 0.0457 0 0 -0.0457 0.0456 0 0 -0.0456 0.0456 0 0 -0.0456 0.0913 0 0 -0.0457 0.0456 0 0 -0.0456 0.0457 0 0 -0.0457 0.0913 0 0 -0.0456 0.0456 0 0 -0.0456 0.0456 0 0 -0.0457 0.0914 0 0 -0.0456 0.0456 0 0 -0.0456 0.0913 0 0 -0.0457 0.0456 0 0 -0.0457 0.1369 0 0 -0.0456 0.0457 0 0 -0.0456 0.0456 0 0 -0.0457 0.0913 0 0 -0.0456 0.1826 0 0 -0.0457 0.0913 0 0 -0.0456 0.0456 0 0 -0.0456 0.1826 0 0 -0.0457 0.1369 0 0 -0.0456 0.0913 0 0 -0.0457 0.4108 0 0 0.0913 -0.0457 0 0 0.0457zm3.2406 -0.3195l0.4564 0 0 0.0456 0.1826 0 0 0.0456 0.3195 0 0 0.0457 0.3651 0 0 0.0456 0.4108 0 0 0.0913 -0.5477 0 0 -0.0456 -0.0913 0 0 -0.0457 -0.3651 0 0 -0.0456 -0.3195 0 0 -0.0457 -0.3651 0 0 -0.0456 -0.0457 0 0 -0.0456zm-3.5601 -0.3652l-0.0913 0 0 0.0456 -0.1825 0 0 0.0457 -0.137 0 0 0.0457 -0.1369 0 0 0.0456 -0.1825 0 0 0.0456 -0.0914 0 0 0.0457 -0.0912 0 0 0.0456 -0.0913 0 0 0.0457 -0.0913 0 0 0.0456 -0.0913 0 0 0.0456 -0.0912 0 0 0.0457 -0.0914 0 0 0.0456 -0.0912 0 0 -0.0456 -0.0457 0 0 -0.0913 -0.0456 0 0 -0.1826 -0.0457 0 0 -0.1369 -0.0456 0 0 -0.3195 1.78 0 0 0.1826 -0.1369 0 0 0.0456zm2.0996 -0.2282l1.4605 0 0 0.1369 -0.0457 0 0 0.2283 -0.0456 0 0 0.1825 -0.2282 0 0 -0.0913 -0.2282 0 0 -0.0456 -0.0913 0 0 -0.0456 -0.1369 0 0 -0.0457 -0.0913 0 0 -0.0457 -0.2282 0 0 -0.0456 -0.0456 0 0 -0.0456 -0.2283 0 0 -0.0457 -0.0912 0 0 -0.1369zm-0.3652 0l-0.0456 0 0 0.0913 -1.1411 0 0 -0.0456 -0.0456 0 0 -0.0913 -0.0457 0 0 -0.4565 0.0457 0 0 -0.0912 0.0456 0 0 -0.0913 0.0457 0 0 -0.0456 0.0456 0 0 -0.0457 0.0456 0 0 -0.0456 0.137 0 0 -0.0913 0.5477 0 0 0.0456 0.0913 0 0 0.0457 0.0456 0 0 0.0456 0.0457 0 0 0.0457 0.0456 0 0 0.0456 0.0456 0 0 0.0456 0.0457 0 0 0.0913 0.0456 0 0 0.137 0.0456 0 0 0.3194 -0.0456 0 0 0.0913zm-3.4231 -0.2282l1.78 0 0 0.1369 -1.78 0 0 -0.1369zm3.8339 0l1.5062 0 0 0.0913 -1.5062 0 0 -0.0913zm-7.3484 -0.0913l-0.3195 0 0 0.0457 -0.1369 0 0 0.0456 -0.0457 0 0 0.0457 -0.0912 0 0 0.0456 -0.1369 0 0 0.0456 -0.0913 0 0 0.0457 -0.0457 0 0 0.0456 -0.1369 0 0 0.0457 -0.0457 0 0 0.0456 -0.0912 0 0 0.0456 -0.0457 0 0 0.0457 -0.0913 0 0 0.0456 -0.0912 0 0 -0.0913 0.0456 0 0 -0.0912 0.0456 0 0 -0.0457 0.0913 0 0 -0.0456 0.0457 0 0 -0.0457 0.0456 0 0 -0.0456 0.0913 0 0 -0.0456 0.0457 0 0 -0.0457 0.0912 0 0 -0.0456 0.0457 0 0 -0.0457 0.0913 0 0 -0.0456 0.1825 0 0 -0.0456 0.1826 0 0 -0.0457 0.1826 0 0 -0.0457 0.0912 0 0 -0.0456 0.8672 0 0 0.0456 0.137 0 0 0.0457 0.0456 0 0 0.0913 -0.9585 0 0 0.0456zm0.7303 -0.502l-0.2282 0 0 0.0456 -0.5934 0 0 0.0457 -0.1825 0 0 0.0456 -0.1826 0 0 0.0456 -0.1826 0 0 -0.1369 0.3652 0 0 -0.0456 0.2282 0 0 -0.0457 0.3651 0 0 -0.0456 0.2739 0 0 -0.0456 0.2738 0 0 -0.0457 0.2283 0 0 0.1369 -0.3652 0 0 0.0457zm5.3401 -0.1826l-0.0912 0 0 0.0457 -0.0914 0 0 0.0456 -0.0456 0 0 0.0456 -0.0456 0 0 0.0457 -0.0457 0 0 0.0456 -0.0456 0 0 0.0457 -0.0457 0 0 0.0456 -0.0456 0 0 0.0913 -0.0456 0 0 0.1369 -0.0457 0 0 0.3651 0.0457 0 0 0.137 0.0456 0 0 0.0912 -0.1369 0 0 -0.0456 -0.0456 0 0 -0.1826 -0.0457 0 0 -0.3651 0.0457 0 0 -0.1369 0.0456 0 0 -0.0913 0.0456 0 0 -0.0913 0.0457 0 0 -0.0456 0.0456 0 0 -0.0913 0.0456 0 0 -0.0456 0.0913 0 0 -0.0457 0.0457 0 0 -0.0457 0.0912 0 0 -0.0456 0.0457 0 0 -0.0456 0.0913 0 0 -0.0457 0.5477 0 0 0.0457 0.1369 0 0 0.0912 0.1369 0 0 0.0457 0.0457 0 0 0.0457 0.0456 0 0 0.0456 0.0456 0 0 0.0456 0.0457 0 0 0.0457 0.0457 0 0 0.0913 0.0456 0 0 0.0912 0.0456 0 0 0.0913 0.0457 0 0 0.5477 -0.0457 0 0 0.0913 -0.1369 0 0 -0.1369 0.0457 0 0 -0.4565 -0.0457 0 0 -0.1369 -0.0457 0 0 -0.0456 -0.0456 0 0 -0.0913 -0.0456 0 0 -0.0456 -0.0457 0 0 -0.0457 -0.0456 0 0 -0.0456 -0.0456 0 0 -0.0456 -0.0913 0 0 -0.0457 -0.1369 0 0 -0.0457 -0.4565 0 0 0.0457zm-2.5559 0.0457l-0.0457 0 0 0.1825 -0.0456 0 0 0.9585 0.0456 0 0 0.1826 0.0457 0 0 0.2282 0.0456 0 0 0.1369 0.0456 0 0 0.1826 -0.0912 0 0 0.0456 -0.0457 0 0 0.0456 -0.0912 0 0 0.0457 -0.0457 0 0 0.0456 -0.0457 0 0 0.0457 -0.0912 0 0 0.0456 -0.0913 0 0 -0.0913 -0.0457 0 0 -0.1369 -0.0456 0 0 -0.0913 -0.0456 0 0 -0.0913 -0.0457 0 0 -0.0913 -0.0456 0 0 -0.0912 -0.0457 0 0 -0.0457 -0.0456 0 0 -0.0913 -0.0456 0 0 -0.0456 -0.0457 0 0 -0.0913 -0.0456 0 0 -0.0457 -0.0456 0 0 -0.0456 -0.0457 0 0 -0.0456 -0.0457 0 0 -0.0913 -0.0456 0 0 -0.0456 -0.0456 0 0 -0.0457 -0.0457 0 0 -0.0456 -0.0913 0 0 -0.0457 -0.0456 0 0 -0.0912 0.2282 0 0 -0.0913 0.0913 0 0 -0.0457 0.0913 0 0 -0.0456 0.0913 0 0 -0.0456 0.0456 0 0 -0.0457 0.0456 0 0 -0.0457 0.0457 0 0 -0.0456 0.0456 0 0 -0.0913 0.0457 0 0 -0.0456 0.0456 0 0 -0.0913 0.0456 0 0 -0.1825 0.0457 0 0 -0.137 0.0457 0 0 -0.0456 0.2282 0 0 -0.0457 0.1825 0 0 0.1369 -0.0456 0 0 0.0914zm-0.5477 0.0912l-0.0457 0 0 0.0913 -0.0456 0 0 0.0913 -0.0457 0 0 0.0456 -0.0456 0 0 0.0457 -0.0456 0 0 0.0456 -0.0457 0 0 0.0456 -0.0456 0 0 0.0457 -0.0456 0 0 0.0457 -0.0457 0 0 0.0456 -0.0913 0 0 0.0456 -0.1369 0 0 0.0457 -0.3652 0 0 -0.0913 -0.1369 0 0 -0.0456 -0.0913 0 0 -0.0457 -0.0456 0 0 -0.0457 -0.137 0 0 -0.0456 -0.0912 0 0 -0.0456 -0.0457 0 0 -0.0457 -0.0912 0 0 -0.0912 -0.0457 0 0 -0.0913 -0.0456 0 0 -0.0913 -0.0457 0 0 -0.5933 0.0457 0 0 -0.0914 0.0456 0 0 -0.0912 0.0457 0 0 -0.0457 0.0456 0 0 -0.0913 0.0456 0 0 -0.0456 0.0457 0 0 -0.0456 0.0912 0 0 -0.0457 0.0457 0 0 -0.0456 0.0457 0 0 -0.0457 0.1825 0 0 -0.0456 0.5477 0 0 0.0456 0.1369 0 0 0.0457 0.0457 0 0 0.0456 0.0913 0 0 0.0457 0.0456 0 0 0.0456 0.0457 0 0 0.0456 0.0456 0 0 0.0457 0.0456 0 0 0.0456 0.0457 0 0 0.0913 0.0456 0 0 0.0913 0.0457 0 0 0.1826 0.0456 0 0 0.3194 -0.0456 0 0 0.1826zm0.3194 -0.3651l-0.1368 0 0 -0.0913 0.0912 0 0 -0.0456 0.3651 0 0 0.0912 -0.3195 0 0 0.0457zm7.5767 -0.2282l-0.0457 0 0 0.0456 -0.0913 0 0 0.0457 -0.1826 0 0 0.0456 -0.0912 0 0 0.0456 -0.0913 0 0 0.0457 -0.0913 0 0 0.0456 -0.0457 0 0 0.0457 -0.0456 0 0 0.0456 -0.0913 0 0 0.0456 -0.0456 0 0 0.0457 -0.0457 0 0 0.0457 -0.0912 0 0 0.0456 -0.0457 0 0 0.0456 -0.0457 0 0 0.0457 -0.0456 0 0 0.0913 -0.0456 0 0 0.0456 -0.0457 0 0 0.0456 -0.0456 0 0 0.0457 -0.0456 0 0 0.0912 -0.0457 0 0 0.0457 -0.0456 0 0 0.0913 -0.0457 0 0 0.0913 -0.0456 0 0 0.0456 -0.0456 0 0 0.0913 -0.0457 0 0 0.0913 -0.0457 0 0 0.0913 -0.0456 0 0 0.0456 -0.0913 0 0 -0.1826 0.0457 0 0 -0.1369 0.0456 0 0 -0.0913 0.0456 0 0 -0.0912 0.0457 0 0 -0.0914 0.0457 0 0 -0.0456 0.0456 0 0 -0.0913 0.0456 0 0 -0.0456 0.0457 0 0 -0.0456 0.0456 0 0 -0.0913 0.0457 0 0 -0.0457 0.0456 0 0 -0.0456 0.0456 0 0 -0.0456 0.0457 0 0 -0.0457 0.0456 0 0 -0.0457 0.0456 0 0 -0.0456 0.0457 0 0 -0.0456 0.0913 0 0 -0.0457 0.0456 0 0 -0.0456 0.0457 0 0 -0.0457 0.0456 0 0 -0.0456 0.1369 0 0 -0.0456 0.0457 0 0 -0.0457 0.0913 0 0 -0.0456 0.0913 0 0 -0.0456 0.2282 0 0 -0.0457 0.2738 0 0 0.0457 -0.0912 0 0 0.0456zm-4.7925 -1.278l-0.2282 0 0 0.0456 -0.0456 0 0 0.0457 -0.1826 0 0 0.0456 -0.2282 0 0 0.0456 -0.0457 0 0 0.0457 -0.0912 0 0 0.0457 -0.137 0 0 0.0456 -0.0456 0 0 0.0456 -0.0913 0 0 0.0457 -0.0456 0 0 0.0456 -0.0457 0 0 0.0457 -0.0913 0 0 0.0456 -0.0456 0 0 0.0456 -0.0456 0 0 0.0457 -0.0457 0 0 0.0456 -0.0456 0 0 0.0457 -0.0457 0 0 0.0456 -0.0456 0 0 0.0457 -0.0456 0 0 0.0456 -0.0457 0 0 0.0456 -0.0457 0 0 0.0457 -0.0912 0 0 -0.1369 0.0456 0 0 -0.0457 0.0456 0 0 -0.0913 0.0457 0 0 -0.0456 0.0457 0 0 -0.0457 0.0456 0 0 -0.0456 0.0456 0 0 -0.0456 0.0457 0 0 -0.0457 0.0456 0 0 -0.0456 0.0457 0 0 -0.0457 0.0456 0 0 -0.0456 0.0913 0 0 -0.0456 0.0456 0 0 -0.0457 0.0913 0 0 -0.0457 0.0913 0 0 -0.0912 0.0913 0 0 -0.0457 0.0913 0 0 -0.0456 0.2282 0 0 -0.0456 0.0913 0 0 -0.0457 0.0912 0 0 -0.0456 0.2739 0 0 -0.0457 0.502 0 0 0.0457 0.0457 0 0 0.0913 -0.4108 0 0 0.0456zm-4.4272 -0.9129l-0.0914 0 0 0.0457 -0.1825 0 0 0.0457 -0.2282 0 0 0.0456 -0.0456 0 0 0.0456 -0.0457 0 0 0.0457 -0.1369 0 0 0.0456 -0.0913 0 0 0.0456 -0.0913 0 0 0.0457 -0.0913 0 0 0.0456 -0.1369 0 0 -0.0913 0.0457 0 0 -0.0456 0.0456 0 0 -0.0456 0.0456 0 0 -0.0457 0.0913 0 0 -0.0456 0.0456 0 0 -0.0456 0.137 0 0 -0.0914 0.1826 0 0 -0.0456 0.0456 0 0 -0.0456 0.1826 0 0 -0.0457 0.0456 0 0 -0.0456 0.2739 0 0 -0.0457 0.7302 0 0 0.0457 0.1369 0 0 0.0456 0.137 0 0 0.0457 0.1825 0 0 0.0456 0.0457 0 0 0.0456 0.0456 0 0 0.0457 -0.3651 0 0 -0.0457 -0.2282 0 0 -0.0456 -0.6846 0 0 0.0456zm-0.0457 -0.4107l-0.1826 0 0 0.0456 -0.0912 0 0 0.0457 -0.0913 0 0 0.0456 -0.2283 0 0 0.0456 -0.0456 0 0 0.0457 -0.1826 0 0 0.0913 -0.0912 0 0 0.0456 -0.1369 0 0 0.0456 -0.0457 0 0 0.0457 -0.0913 0 0 0.0457 -0.0456 0 0 0.0456 -0.0457 0 0 0.0456 -0.0913 0 0 0.0457 -0.0456 0 0 0.0456 -0.0456 0 0 0.0456 -0.0457 0 0 0.0457 -0.0456 0 0 0.0456 -0.0457 0 0 0.0457 -0.0456 0 0 0.0456 -0.0457 0 0 0.0456 -0.0456 0 0 0.0457 -0.0456 0 0 0.0913 -0.0457 0 0 0.0456 -0.0456 0 0 0.0457 -0.0457 0 0 0.0913 -0.0456 0 0 0.0456 -0.0456 0 0 0.0913 -0.0457 0 0 0.0912 -0.0457 0 0 0.0914 -0.0456 0 0 0.0912 -0.0456 0 0 0.0913 -0.0457 0 0 0.1369 -0.0456 0 0 0.137 -0.0456 0 0 0.2738 -0.0457 0 0 0.2739 -0.0456 0 0 0.5021 0.0456 0 0 0.3651 -0.0456 0 0 0.0456 -0.0913 0 0 0.0456 -0.0913 0 0 0.0457 -0.0913 0 0 0.0457 -0.0456 0 0 0.0456 -0.0457 0 0 0.0456 -0.0913 0 0 0.0457 -0.0456 0 0 0.0456 -0.0913 0 0 0.0457 -0.0456 0 0 0.0456 -0.0456 0 0 0.0456 -0.0457 0 0 0.0457 -0.0457 0 0 0.0456 -0.0456 0 0 0.0457 -0.0456 0 0 0.0456 -0.0457 0 0 0.0456 -0.0456 0 0 0.0457 -0.0457 0 0 0.0456 -0.0456 0 0 0.0456 -0.0456 0 0 0.0457 -0.0457 0 0 0.0913 -0.0456 0 0 0.0456 -0.0457 0 0 0.0913 -0.0456 0 0 0.0457 -0.0457 0 0 0.0912 -0.0456 0 0 0.0913 -0.0456 0 0 0.0913 -0.0456 0 0 0.0913 -0.0457 0 0 0.1369 -0.0457 0 0 0.1369 -0.0456 0 0 0.1826 -0.0456 0 0 0.1369 -0.0457 0 0 1.0498 0.0457 0 0 0.2282 0.0456 0 0 0.137 0.0456 0 0 0.1369 0.0457 0 0 0.0913 0.0457 0 0 0.1369 0.0456 0 0 0.0913 0.0456 0 0 0.0913 0.0456 0 0 0.0456 0.0457 0 0 0.0913 0.0456 0 0 0.0913 0.0457 0 0 0.0456 0.0456 0 0 0.0456 0.0457 0 0 0.0914 0.0456 0 0 0.0456 0.0456 0 0 0.0456 0.0457 0 0 0.0457 0.0456 0 0 0.0456 0.0457 0 0 0.0456 0.0456 0 0 0.0457 0.0456 0 0 0.0456 0.0457 0 0 0.0457 0.0457 0 0 0.0456 0.0456 0 0 0.0456 0.0913 0 0 0.0457 0.0456 0 0 0.0457 0.0456 0 0 0.0456 0.0913 0 0 0.0456 0.0913 0 0 0.0457 0.0913 0 0 0.0456 0.0913 0 0 0.0457 0.0913 0 0 0.0456 0.0456 0 0 0.0456 0.0913 0 0 0.0457 0.2282 0 0 0.0456 0.2739 0 0 0.0456 0.0912 0 0 0.0457 0.8216 0 0 -0.0457 0.3652 0 0 -0.0456 0.1369 0 0 0.9585 0.0456 0 0 0.3195 0.0457 0 0 0.1826 0.0456 0 0 0.2282 0.0456 0 0 0.0912 0.0457 0 0 0.137 0.0456 0 0 0.1825 0.0456 0 0 0.0913 0.0457 0 0 0.1369 0.0457 0 0 0.0914 0.0456 0 0 0.0912 0.0456 0 0 0.0913 0.0457 0 0 0.0913 0.0456 0 0 0.0913 0.0457 0 0 0.0912 0.0456 0 0 0.0914 0.0456 0 0 0.0456 0.0457 0 0 0.0913 0.0456 0 0 0.0913 0.0457 0 0 0.0456 0.0456 0 0 0.0456 0.0457 0 0 0.0913 0.0456 0 0 0.0457 0.0456 0 0 0.0913 0.0457 0 0 0.0456 0.0456 0 0 0.0456 0.0457 0 0 0.0457 0.0456 0 0 0.0456 0.0456 0 0 0.0913 0.0457 0 0 0.0456 0.0457 0 0 0.0457 0.0456 0 0 0.0457 0.0456 0 0 0.0456 0.0457 0 0 0.0456 0.0456 0 0 0.0457 0.0456 0 0 0.0456 0.0457 0 0 0.0456 0.0456 0 0 0.0457 0.0913 0 0 0.0456 0.0456 0 0 0.0457 0.0457 0 0 0.0456 0.0457 0 0 0.0456 0.0456 0 0 0.0457 0.0912 0 0 0.0457 0.0457 0 0 0.0456 0.0457 0 0 0.0456 0.0912 0 0 0.0457 0.0457 0 0 0.0456 0.0912 0 0 0.0457 0.0457 0 0 0.0456 0.0913 0 0 0.0456 0.0912 0 0 0.0457 0.0914 0 0 0.0456 0.0456 0 0 0.0456 0.0913 0 0 0.0457 0.1369 0 0 0.0457 0.0913 0 0 0.0456 0.0456 0 0 0.0456 0.0913 0 0 0.0457 0.1369 0 0 0.0456 0.2739 0 0 0.0457 0.0913 0 0 0.0456 0.1369 0 0 0.0456 0.3195 0 0 0.0457 0.0913 0 0 0.0456 0.3651 0 0 0.0457 0.8672 0 0 -0.0457 0.6846 0 0 -0.0456 0.1826 0 0 -0.0457 0.1826 0 0 -0.0456 0.0913 0 0 -0.0456 0.1369 0 0 -0.0457 0.0913 0 0 -0.0456 0.1826 0 0 -0.0457 0.0456 0 0 -0.0456 0.1825 0 0 -0.0456 0.0457 0 0 -0.0457 0.1825 0 0 -0.0457 0.0914 0 0 -0.0456 0.0912 0 0 -0.0456 0.0913 0 0 -0.0457 0.0456 0 0 -0.0456 0.0457 0 0 -0.0456 0.0456 0 0 -0.0457 0.1369 0 0 -0.0456 0.0457 0 0 -0.0457 0.0913 0 0 -0.0456 0.0456 0 0 -0.0456 0.0457 0 0 -0.0457 0.0456 0 0 -0.0457 0.0913 0 0 -0.0456 0.0456 0 0 -0.0456 0.0457 0 0 -0.0457 0.0456 0 0 -0.0456 0.0456 0 0 -0.0457 0.0914 0 0 -0.0456 0.0456 0 0 -0.0456 0.0456 0 0 -0.0457 0.0457 0 0 -0.0456 0.0456 0 0 -0.0456 0.0457 0 0 -0.0457 0.0456 0 0 -0.0913 0.0456 0 0 -0.0456 0.0457 0 0 -0.0457 0.0456 0 0 -0.0456 0.0457 0 0 -0.0457 0.0456 0 0 -0.0456 0.0457 0 0 -0.0913 0.0456 0 0 -0.0456 0.0456 0 0 -0.0457 0.0457 0 0 -0.0913 0.0456 0 0 -0.0456 0.0457 0 0 -0.0913 0.0456 0 0 -0.0456 0.0456 0 0 -0.0913 0.0457 0 0 -0.0913 0.0457 0 0 -0.0457 0.0456 0 0 -0.0912 0.0456 0 0 -0.0913 0.0457 0 0 -0.0913 0.0456 0 0 -0.0913 0.0456 0 0 -0.0912 0.0457 0 0 -0.137 0.0456 0 0 -0.0913 0.0457 0 0 -0.1369 0.0456 0 0 -0.1369 0.0456 0 0 -0.1826 0.0457 0 0 -0.0913 0.0457 0 0 -0.1825 0.0456 0 0 -0.3195 0.0456 0 0 -0.4108 0.0457 0 0 -0.7759 -0.0457 0 0 -0.3651 -0.0456 0 0 -0.2739 -0.0456 0 0 -0.2738 -0.0457 0 0 -0.137 0.7303 0 0 -0.0456 0.1369 0 0 -0.0457 0.1369 0 0 -0.0456 0.1826 0 0 -0.0457 0.0456 0 0 -0.0456 0.0457 0 0 -0.0456 0.1369 0 0 -0.0457 0.0913 0 0 -0.0456 0.1369 0 0 -0.0456 0.0457 0 0 -0.0457 0.0912 0 0 -0.0457 0.0457 0 0 -0.0456 0.0913 0 0 -0.0456 0.0456 0 0 -0.0457 0.0456 0 0 -0.0456 0.0457 0 0 -0.0457 0.0913 0 0 -0.0456 0.0456 0 0 -0.0456 0.0457 0 0 -0.0457 0.0456 0 0 -0.0457 0.0457 0 0 -0.0456 0.0456 0 0 -0.0913 0.0456 0 0 -0.0456 0.0457 0 0 -0.0456 0.0456 0 0 -0.0457 0.0456 0 0 -0.0913 0.0457 0 0 -0.0456 0.0457 0 0 -0.0913 0.0456 0 0 -0.0913 0.0456 0 0 -0.0913 0.0457 0 0 -0.0912 0.0456 0 0 -0.0913 0.0457 0 0 -0.0913 0.0456 0 0 -0.137 0.0456 0 0 -0.1369 0.0457 0 0 -0.3194 0.0456 0 0 -1.0042 -0.0456 0 0 -0.1826 -0.0457 0 0 -0.1369 -0.0456 0 0 -0.1369 -0.0456 0 0 -0.0913 -0.0457 0 0 -0.0913 -0.0456 0 0 -0.1369 -0.0457 0 0 -0.0457 -0.0456 0 0 -0.0912 -0.0456 0 0 -0.0913 -0.0457 0 0 -0.0456 -0.0457 0 0 -0.0913 -0.0456 0 0 -0.0457 -0.0456 0 0 -0.0456 -0.0457 0 0 -0.0913 -0.0456 0 0 -0.0457 -0.0456 0 0 -0.0456 -0.0457 0 0 -0.0456 -0.0456 0 0 -0.0457 -0.0457 0 0 -0.0456 -0.0456 0 0 -0.0457 -0.0456 0 0 -0.0456 -0.0914 0 0 -0.0456 -0.0456 0 0 -0.0457 -0.0456 0 0 -0.0456 -0.0913 0 0 -0.0456 -0.0457 0 0 -0.0457 -0.0912 0 0 -0.0457 -0.0913 0 0 -0.0912 -0.1826 0 0 -0.0457 -0.0456 0 0 -0.0456 -0.1826 0 0 -0.0457 -0.0456 0 0 -0.0456 -0.137 0 0 -0.0456 -0.1369 0 0 -0.0457 -0.2738 0 0 -0.0456 -0.9129 0 0 0.0456 -0.2282 0 0 0.0457 -0.0457 0 0 0.0456 -0.1369 0 0 0.0456 -0.2282 0 0 0.0913 -0.1826 0 0 0.0457 -0.0912 0 0 0.0912 -0.0913 0 0 0.0457 -0.0913 0 0 0.0457 -0.0456 0 0 0.0456 -0.0914 0 0 0.0456 -0.0456 0 0 0.0457 -0.0456 0 0 0.0456 -0.0913 0 0 0.0456 -0.0456 0 0 0.0457 -0.0457 0 0 0.0456 -0.0456 0 0 0.0457 -0.0457 0 0 0.0456 -0.0456 0 0 0.0456 -0.0456 0 0 0.0457 -0.0457 0 0 0.0913 -0.0457 0 0 0.0456 -0.0456 0 0 0.0457 -0.0913 0 0 -0.1826 -0.0456 0 0 -0.1826 -0.0457 0 0 -0.1369 -0.0456 0 0 -0.0913 -0.0456 0 0 -0.0912 -0.0457 0 0 -0.0914 -0.0456 0 0 -0.0912 -0.0456 0 0 -0.0913 -0.0457 0 0 -0.0457 -0.0457 0 0 -0.0912 -0.0456 0 0 -0.0457 -0.0456 0 0 -0.0913 -0.0456 0 0 -0.0456 -0.0457 0 0 -0.0457 -0.0457 0 0 -0.0456 -0.0456 0 0 -0.0456 -0.0456 0 0 -0.0457 -0.0457 0 0 -0.0456 -0.0456 0 0 -0.0457 -0.0456 0 0 -0.0456 -0.0457 0 0 -0.0456 -0.0456 0 0 -0.0457 -0.0457 0 0 -0.0457 -0.0912 0 0 -0.0456 -0.0457 0 0 -0.0456 -0.0457 0 0 -0.0457 -0.0912 0 0 -0.0456 -0.0457 0 0 -0.0456 -0.0913 0 0 -0.0457 -0.1369 0 0 -0.0456 -0.0456 0 0 -0.0457 -0.0913 0 0 -0.0456 -0.0913 0 0 -0.0456 -0.2738 0 0 -0.0457 -0.137 0 0 -0.0457 -0.2738 0 0 -0.0456 -0.9129 0 0 0.0456 -0.1825 0 0 0.0457 -0.0913 0 0 0.0457 -0.0913 0 0 0.0456 -0.2282 0 0 0.0456 -0.0913 0 0 0.0457 -0.0913 0 0 0.0456 -0.0456 0 0 0.0457 -0.137 0 0 0.0456 -0.0456 0 0 0.0456 -0.0456 0 0 0.0457 -0.0913 0 0 -0.0457 -0.0457 0 0 -0.0456 -0.0456 0 0 -0.0913 -0.0456 0 0 -0.0456 -0.0457 0 0 -0.0913 -0.0457 0 0 -0.0456 -0.0456 0 0 -0.0457 -0.0456 0 0 -0.0457 -0.0457 0 0 -0.0456 -0.0456 0 0 -0.0456 -0.0456 0 0 -0.0457 -0.0457 0 0 -0.0456 -0.0456 0 0 -0.0457 -0.0457 0 0 -0.0456 -0.0456 0 0 -0.0456 -0.0456 0 0 -0.0457 -0.0457 0 0 -0.0456 -0.0913 0 0 -0.0456 -0.0456 0 0 -0.0457 -0.0457 0 0 -0.0457 -0.0456 0 0 -0.0456 -0.0913 0 0 -0.0456 -0.0913 0 0 -0.0457 -0.1369 0 0 -0.0456 -0.0913 0 0 -0.0457 -0.0456 0 0 -0.0456 -0.2282 0 0 -0.0456 -0.137 0 0 -0.0457 -0.0912 0 0 -0.0456 -0.1369 0 0 -0.0457 -1.0042 0 0 0.0457z"/>
   <polygon id="_374637936" class="fil1" points="13.5557,9.8587 13.3275,9.8587 13.3275,9.9043 13.1906,9.9043 13.1906,9.95 13.008,9.95 13.008,10.0413 12.8254,10.0413 12.8254,10.0869 12.6429,10.0869 12.6429,10.1325 12.4603,10.1325 12.4603,10.1782 12.2777,10.1782 12.2777,10.2238 12.0952,10.2238 12.0952,10.2694 11.9582,10.2694 11.9582,10.3151 11.7756,10.3151 11.7756,10.3608 11.5931,10.3608 11.5931,10.4064 11.3649,10.4064 11.3649,10.452 11.2279,10.452 11.2279,10.4977 11.0454,10.4977 11.0454,10.5433 10.7716,10.5433 10.7716,10.589 10.7259,10.589 10.7259,10.9541 10.6803,10.9541 10.6803,11.091 10.6346,11.091 10.6346,11.2279 10.589,11.2279 10.589,11.3192 10.5434,11.3192 10.5434,11.4105 10.4977,11.4105 10.4977,11.5018 10.452,11.5018 10.452,11.5931 10.4064,11.5931 10.4064,11.6387 10.3608,11.6387 10.3608,11.73 10.3151,11.73 10.3151,11.7756 10.2695,11.7756 10.2695,11.8213 10.2238,11.8213 10.2238,11.8669 10.1782,11.8669 10.1782,11.9126 10.1326,11.9126 10.1326,11.9582 10.0869,11.9582 10.0869,12.0038 9.9957,12.0038 9.9957,12.0952 9.9043,12.0952 9.9043,12.1408 9.7674,12.1408 9.7674,12.2321 9.6761,12.2321 9.6761,12.2777 9.5392,12.2777 9.5392,12.3233 9.2654,12.3233 9.2654,12.4146 8.5351,12.4146 8.5351,12.369 8.3525,12.369 8.3525,12.3233 8.2156,12.3233 8.2156,12.2777 8.1243,12.2777 8.1243,12.2321 8.0787,12.2321 8.0787,12.1864 7.9418,12.1864 7.9418,12.1408 7.8961,12.1408 7.8961,12.0952 7.8504,12.0952 7.8504,12.0495 7.7592,12.0495 7.7592,12.0038 7.7135,12.0038 7.7135,11.9582 7.6679,11.9582 7.6679,11.9126 7.6222,11.9126 7.6222,11.8669 7.5766,11.8669 7.5766,11.8213 7.531,11.8213 7.531,11.7756 7.4853,11.7756 7.4853,11.73 7.4397,11.73 7.4397,11.6844 7.394,11.6844 7.394,11.5931 7.3484,11.5931 7.3484,11.5474 7.3027,11.5474 7.3027,11.4561 7.0745,11.4561 7.0745,11.5018 7.0289,11.5018 7.0289,11.5474 6.8919,11.5474 6.8919,11.5931 6.7094,11.5931 6.7094,11.6387 6.3442,11.6387 6.3442,11.6844 6.2073,11.6844 6.2073,11.7756 5.8422,11.7756 5.8422,11.8213 5.7053,11.8213 5.7053,11.8669 5.5227,11.8669 5.5227,11.9126 5.4314,11.9126 5.4314,11.9582 5.2489,11.9582 5.2489,12.0038 5.0663,12.0038 5.0663,12.0495 4.8837,12.0495 4.8837,12.0952 4.7012,12.0952 4.7012,12.1408 4.5186,12.1408 4.5186,12.1864 4.4273,12.1864 4.4273,12.2321 4.2447,12.2321 4.2447,12.3233 4.2904,12.3233 4.2904,12.4603 4.336,12.4603 4.336,12.5515 4.3817,12.5515 4.3817,12.6429 4.4273,12.6429 4.4273,12.7341 4.4729,12.7341 4.4729,12.8254 4.5186,12.8254 4.5186,12.9167 4.5642,12.9167 4.5642,13.008 4.6099,13.008 4.6099,13.0992 4.6555,13.0992 4.6555,13.1449 4.7012,13.1449 4.7012,13.2362 4.7468,13.2362 4.7468,13.2818 4.7924,13.2818 4.7924,13.3731 4.8381,13.3731 4.8381,13.4188 4.8837,13.4188 4.8837,13.51 4.9294,13.51 4.9294,13.5557 4.975,13.5557 4.975,13.6013 5.0206,13.6013 5.0206,13.6926 5.0663,13.6926 5.0663,13.7383 5.112,13.7383 5.112,13.7839 5.1576,13.7839 5.1576,13.8295 5.2032,13.8295 5.2032,13.8752 5.2489,13.8752 5.2489,13.9208 5.2945,13.9208 5.2945,13.9665 5.3401,13.9665 5.3401,14.0121 5.3858,14.0121 5.3858,14.0577 5.4314,14.0577 5.4314,14.1034 5.4771,14.1034 5.4771,14.1491 5.5227,14.1491 5.5227,14.1947 5.5683,14.1947 5.5683,14.2403 5.614,14.2403 5.614,14.286 5.6597,14.286 5.6597,14.3316 5.7053,14.3316 5.7053,14.3772 5.7509,14.3772 5.7509,14.4229 5.8422,14.4229 5.8422,14.4685 5.8879,14.4685 5.8879,14.5142 5.9335,14.5142 5.9335,14.5598 6.0248,14.5598 6.0248,14.6054 6.0704,14.6054 6.0704,14.6511 6.116,14.6511 6.116,14.6968 6.2073,14.6968 6.2073,14.7424 6.2986,14.7424 6.2986,14.788 6.3442,14.788 6.3442,14.8337 6.3899,14.8337 6.3899,14.8793 6.4812,14.8793 6.4812,14.925 6.6181,14.925 6.6181,14.9706 6.6638,14.9706 6.6638,15.0162 6.8463,15.0162 6.8463,15.0619 6.9376,15.0619 6.9376,15.1075 7.0289,15.1075 7.0289,15.1531 7.1202,15.1531 7.1202,15.1988 7.1658,15.1988 7.1658,15.2445 7.3027,15.2445 7.3027,15.2901 7.5766,15.2901 7.5766,15.3357 7.7135,15.3357 7.7135,15.427 7.9418,15.427 7.9418,15.4727 8.2612,15.4727 8.2612,15.5183 9.5392,15.5183 9.5392,15.4727 9.6761,15.4727 9.6761,15.427 9.95,15.427 9.95,15.3814 10.0413,15.3814 10.0413,15.3357 10.3151,15.3357 10.3151,15.2901 10.4064,15.2901 10.4064,15.2445 10.5434,15.2445 10.5434,15.1988 10.7259,15.1988 10.7259,15.1531 10.7716,15.1531 10.7716,15.1075 10.8628,15.1075 10.8628,15.0619 11.0454,15.0619 11.0454,15.0162 11.1367,15.0162 11.1367,14.9706 11.2279,14.9706 11.2279,14.925 11.3193,14.925 11.3193,14.8337 11.4562,14.8337 11.4562,14.788 11.5018,14.788 11.5018,14.7424 11.5931,14.7424 11.5931,14.6968 11.6387,14.6968 11.6387,14.6511 11.73,14.6511 11.73,14.6054 11.7756,14.6054 11.7756,14.5598 11.867,14.5598 11.867,14.5142 11.9126,14.5142 11.9126,14.4685 11.9582,14.4685 11.9582,14.4229 12.0039,14.4229 12.0039,14.3772 12.0952,14.3772 12.0952,14.3316 12.1408,14.3316 12.1408,14.286 12.1864,14.286 12.1864,14.2403 12.2321,14.2403 12.2321,14.1947 12.2777,14.1947 12.2777,14.1491 12.3233,14.1491 12.3233,14.1034 12.369,14.1034 12.369,14.0577 12.4147,14.0577 12.4147,14.0121 12.4603,14.0121 12.4603,13.9665 12.5059,13.9665 12.5059,13.9208 12.5516,13.9208 12.5516,13.8752 12.5972,13.8752 12.5972,13.8295 12.6429,13.8295 12.6429,13.7839 12.6885,13.7839 12.6885,13.7383 12.7341,13.7383 12.7341,13.647 12.7798,13.647 12.7798,13.6013 12.8254,13.6013 12.8254,13.5557 12.8711,13.5557 12.8711,13.4644 12.9167,13.4644 12.9167,13.4188 12.9624,13.4188 12.9624,13.3731 13.008,13.3731 13.008,13.2818 13.0536,13.2818 13.0536,13.1906 13.0993,13.1906 13.0993,13.1449 13.1449,13.1449 13.1449,13.0536 13.1906,13.0536 13.1906,12.9623 13.2362,12.9623 13.2362,12.9167 13.2818,12.9167 13.2818,12.8254 13.3275,12.8254 13.3275,12.7341 13.3732,12.7341 13.3732,12.5972 13.4188,12.5972 13.4188,12.5059 13.4644,12.5059 13.4644,12.4146 13.5101,12.4146 13.5101,12.2777 13.5557,12.2777 13.5557,12.1408 13.6013,12.1408 13.6013,12.0038 13.647,12.0038 13.647,11.9126 13.6926,11.9126 13.6926,11.73 13.7383,11.73 13.7383,11.5018 13.7839,11.5018 13.7839,11.1367 13.8295,11.1367 13.8295,9.95 13.7839,9.95 13.7839,9.8131 13.5557,9.8131 "/>
   <polygon id="_413328296" class="fil1" points="0.0913,7.7592 0.1369,7.7592 0.1369,8.0786 0.1826,8.0786 0.1826,8.2155 0.2283,8.2155 0.2283,8.3525 0.2739,8.3525 0.2739,8.4894 0.3195,8.4894 0.3195,8.5807 0.3651,8.5807 0.3651,8.672 0.4108,8.672 0.4108,8.7633 0.4564,8.7633 0.4564,8.8546 0.5021,8.8546 0.5021,8.9002 0.5477,8.9002 0.5477,8.9915 0.5934,8.9915 0.5934,9.0371 0.639,9.0371 0.639,9.1284 0.6846,9.1284 0.6846,9.174 0.7303,9.174 0.7303,9.2197 0.7759,9.2197 0.7759,9.2654 0.8216,9.2654 0.8216,9.311 0.8672,9.311 0.8672,9.3566 0.9128,9.3566 0.9128,9.4023 0.9585,9.4023 0.9585,9.4479 1.0042,9.4479 1.0042,9.4935 1.0498,9.4935 1.0498,9.5392 1.0954,9.5392 1.0954,9.5848 1.1411,9.5848 1.1411,9.6305 1.1867,9.6305 1.1867,9.6761 1.278,9.6761 1.278,9.7217 1.3236,9.7217 1.3236,9.7674 1.4149,9.7674 1.4149,9.8131 1.4605,9.8131 1.4605,9.8587 1.5975,9.8587 1.5975,9.9043 1.6888,9.9043 1.6888,9.95 1.8257,9.95 1.8257,9.9956 1.8713,9.9956 1.8713,10.0413 1.917,10.0413 1.917,10.0869 2.0539,10.0869 2.0539,10.1325 2.1908,10.1325 2.1908,10.1782 2.419,10.1782 2.419,10.2238 3.3319,10.2238 3.3319,10.1782 3.5601,10.1782 3.5601,10.1325 3.6514,10.1325 3.6514,10.0869 3.7427,10.0869 3.7427,10.0413 3.7883,10.0413 3.7883,9.7217 3.834,9.7217 3.834,9.4023 3.8796,9.4023 3.8796,9.2197 3.9252,9.2197 3.9252,9.1284 3.9709,9.1284 3.9709,8.9458 4.0165,8.9458 4.0165,8.8089 4.0621,8.8089 4.0621,8.672 4.1078,8.672 4.1078,8.5807 4.1535,8.5807 4.1535,8.4438 4.1991,8.4438 4.1991,8.3525 4.2447,8.3525 4.2447,8.2612 4.2904,8.2612 4.2904,8.1699 4.336,8.1699 4.336,8.0786 4.3817,8.0786 4.3817,8.033 4.4273,8.033 4.4273,7.8961 4.0165,7.8961 4.0165,7.8504 3.7883,7.8504 3.7883,7.9417 3.7427,7.9417 3.7427,8.033 3.697,8.033 3.697,8.0786 3.6514,8.0786 3.6514,8.1243 3.6058,8.1243 3.6058,8.1699 3.5601,8.1699 3.5601,8.2155 3.5144,8.2155 3.5144,8.2612 3.4688,8.2612 3.4688,8.3069 3.4232,8.3069 3.4232,8.3525 3.3319,8.3525 3.3319,8.3981 3.0581,8.3981 3.0581,8.4438 2.6929,8.4438 2.6929,8.3981 2.5103,8.3981 2.5103,8.3525 2.3278,8.3525 2.3278,8.3069 2.2821,8.3069 2.2821,8.2612 2.2365,8.2612 2.2365,8.2155 2.1908,8.2155 2.1908,8.1699 2.1452,8.1699 2.1452,8.1243 2.0996,8.1243 2.0996,8.0786 2.0539,8.0786 2.0539,8.033 2.0082,8.033 2.0082,7.9417 1.9626,7.9417 1.9626,7.8961 1.917,7.8961 1.917,7.7592 1.8713,7.7592 1.8713,7.5766 1.8257,7.5766 1.8257,7.5309 1.5519,7.5309 1.5519,7.4853 1.0498,7.4853 1.0498,7.4397 0.9585,7.4397 0.9585,7.394 0.3651,7.394 0.3651,7.3484 0.0913,7.3484 "/>
   <polygon id="_413328152" class="fil1" points="11.73,6.253 11.7756,6.253 11.7756,6.2986 11.8213,6.2986 11.8213,6.3442 11.9126,6.3442 11.9126,6.3899 11.9582,6.3899 11.9582,6.4355 12.0039,6.4355 12.0039,6.4812 12.0952,6.4812 12.0952,6.5268 12.1408,6.5268 12.1408,6.5724 12.1864,6.5724 12.1864,6.6181 12.2321,6.6181 12.2321,6.6638 12.2777,6.6638 12.2777,6.7094 12.3233,6.7094 12.3233,6.755 12.4147,6.755 12.4147,6.8007 12.4603,6.8007 12.4603,6.8463 12.5059,6.8463 12.5059,6.8919 12.5516,6.8919 12.5516,6.9376 12.5972,6.9376 12.5972,6.9832 12.6429,6.9832 12.6429,7.0289 12.6885,7.0289 12.6885,7.1201 12.7341,7.1201 12.7341,7.1658 12.7798,7.1658 12.7798,7.2115 12.8254,7.2115 12.8254,7.2571 12.8711,7.2571 12.8711,7.3027 12.9167,7.3027 12.9167,7.3484 12.9624,7.3484 12.9624,7.4397 13.008,7.4397 13.008,7.4853 13.0536,7.4853 13.0536,7.5309 13.0993,7.5309 13.0993,7.6222 13.1449,7.6222 13.1449,7.6678 13.1906,7.6678 13.1906,7.7592 13.2362,7.7592 13.2362,7.8048 13.2818,7.8048 13.2818,7.8961 13.3275,7.8961 13.3275,7.9874 13.3732,7.9874 13.3732,8.033 13.4188,8.033 13.4188,8.1243 13.4644,8.1243 13.4644,8.2155 13.5101,8.2155 13.5101,8.3069 13.5557,8.3069 13.5557,8.3981 13.6013,8.3981 13.6013,8.5351 13.647,8.5351 13.647,8.6263 13.6926,8.6263 13.6926,8.7633 13.7383,8.7633 13.7383,8.8546 13.7839,8.8546 13.7839,8.9915 14.3772,8.9915 14.3772,8.9458 14.8337,8.9458 14.8337,8.9002 14.925,8.9002 14.925,8.8546 15.0163,8.8546 15.0163,8.8089 15.0619,8.8089 15.0619,8.7633 15.2901,8.7633 15.2901,8.7177 15.3814,8.7177 15.3814,8.6263 15.5183,8.6263 15.5183,8.5807 15.564,8.5807 15.564,8.5351 15.6552,8.5351 15.6552,8.4894 15.7009,8.4894 15.7009,8.4438 15.7465,8.4438 15.7465,8.3981 15.8378,8.3981 15.8378,8.3525 15.8834,8.3525 15.8834,8.3069 15.9291,8.3069 15.9291,8.2612 15.9748,8.2612 15.9748,8.2155 16.0204,8.2155 16.0204,8.1699 16.066,8.1699 16.066,8.1243 16.1117,8.1243 16.1117,8.0786 16.1573,8.0786 16.1573,8.033 16.203,8.033 16.203,7.9874 16.2486,7.9874 16.2486,7.8961 16.2942,7.8961 16.2942,7.8504 16.3399,7.8504 16.3399,7.8048 16.3855,7.8048 16.3855,7.7135 16.4311,7.7135 16.4311,7.6222 16.4768,7.6222 16.4768,7.5766 16.5225,7.5766 16.5225,7.4853 16.5681,7.4853 16.5681,7.394 16.6137,7.394 16.6137,7.2571 16.6594,7.2571 16.6594,7.1658 16.705,7.1658 16.705,7.0289 16.7507,7.0289 16.7507,6.8463 16.3399,6.8463 16.3399,6.8007 16.0204,6.8007 16.0204,6.755 15.7465,6.755 15.7465,6.7094 15.3357,6.7094 15.3357,6.6181 14.9706,6.6181 14.9706,6.755 14.925,6.755 14.925,6.8463 14.8793,6.8463 14.8793,6.8919 14.8337,6.8919 14.8337,6.9376 14.788,6.9376 14.788,6.9832 14.7424,6.9832 14.7424,7.0289 14.6968,7.0289 14.6968,7.0745 14.6055,7.0745 14.6055,7.1201 14.5598,7.1201 14.5598,7.1658 14.4229,7.1658 14.4229,7.2115 14.286,7.2115 14.286,7.2571 13.7839,7.2571 13.7839,7.2115 13.6926,7.2115 13.6926,7.1658 13.647,7.1658 13.647,7.1201 13.5101,7.1201 13.5101,7.0745 13.4188,7.0745 13.4188,7.0289 13.3732,7.0289 13.3732,6.9832 13.3275,6.9832 13.3275,6.9376 13.2818,6.9376 13.2818,6.8919 13.2362,6.8919 13.2362,6.8463 13.1906,6.8463 13.1906,6.755 13.1449,6.755 13.1449,6.6638 13.0993,6.6638 13.0993,6.5724 13.0536,6.5724 13.0536,6.3442 12.6885,6.3442 12.6885,6.2986 12.5059,6.2986 12.5059,6.253 12.0039,6.253 12.0039,6.2073 11.73,6.2073 "/>
   <polygon id="_413328872" class="fil1" points="8.4895,9.4479 8.3981,9.4479 8.3981,9.4935 8.3069,9.4935 8.3069,9.5392 8.2612,9.5392 8.2612,9.5848 8.1699,9.5848 8.1699,9.6305 8.1243,9.6305 8.1243,9.6761 8.0787,9.6761 8.0787,9.7217 8.033,9.7217 8.033,9.7674 7.9874,9.7674 7.9874,9.8131 7.9418,9.8131 7.9418,9.9043 7.8961,9.9043 7.8961,9.95 7.8504,9.95 7.8504,10.0413 7.8048,10.0413 7.8048,10.1325 7.7592,10.1325 7.7592,10.2694 7.7135,10.2694 7.7135,10.8628 7.7592,10.8628 7.7592,10.9541 7.8048,10.9541 7.8048,11.091 7.8504,11.091 7.8504,11.1823 7.8961,11.1823 7.8961,11.2279 7.9418,11.2279 7.9418,11.2736 7.9874,11.2736 7.9874,11.3649 8.033,11.3649 8.033,11.4105 8.0787,11.4105 8.0787,11.4561 8.1699,11.4561 8.1699,11.5018 8.2156,11.5018 8.2156,11.5474 8.2612,11.5474 8.2612,11.5931 8.3069,11.5931 8.3069,11.6387 8.3981,11.6387 8.3981,11.6844 8.5351,11.6844 8.5351,11.73 9.0828,11.73 9.0828,11.6844 9.3566,11.6844 9.3566,11.6387 9.4479,11.6387 9.4479,11.5931 9.4935,11.5931 9.4935,11.5474 9.5849,11.5474 9.5849,11.5018 9.6305,11.5018 9.6305,11.4561 9.6761,11.4561 9.6761,11.4105 9.7218,11.4105 9.7218,11.3649 9.7674,11.3649 9.7674,11.3192 9.8131,11.3192 9.8131,11.2736 9.8587,11.2736 9.8587,11.2279 9.9043,11.2279 9.9043,11.1367 9.95,11.1367 9.95,11.0453 9.9957,11.0453 9.9957,10.9541 10.0413,10.9541 10.0413,10.7259 10.0869,10.7259 10.0869,10.4064 10.0413,10.4064 10.0413,10.1782 9.9957,10.1782 9.9957,10.0869 9.95,10.0869 9.95,9.9956 9.9043,9.9956 9.9043,9.9043 9.8587,9.9043 9.8587,9.8587 9.8131,9.8587 9.8131,9.7674 9.7674,9.7674 9.7674,9.7217 9.7218,9.7217 9.7218,9.6761 9.6761,9.6761 9.6761,9.6305 9.5849,9.6305 9.5849,9.5848 9.5392,9.5848 9.5392,9.5392 9.4935,9.5392 9.4935,9.4935 9.311,9.4935 9.311,9.4479 9.2654,9.4479 9.2654,9.4023 8.4895,9.4023 "/>
   <path id="_413328704" class="fil1" d="M7.4853 10.2694l0.0457 0 0 -0.1369 0.0456 0 0 -0.1369 0.0456 0 0 -0.0456 0.0457 0 0 -0.0913 0.0456 0 0 -0.0913 0.0457 0 0 -0.0457 0.0456 0 0 -0.0456 0.0456 0 0 -0.0456 0.0457 0 0 -0.0457 0.0457 0 0 -0.0456 0.0456 0 0 -0.0457 0.0456 0 0 -0.0456 0.0457 0 0 -0.0456 0.0912 0 0 -0.0457 0.0913 0 0 -0.0456 0.1369 0 0 -0.0456 0.137 0 0 -0.0457 0.1369 0 0 -0.0457 0.4564 0 0 0.0457 0.137 0 0 0.0457 0.1825 0 0 0.0456 0.137 0 0 0.0456 0.0912 0 0 0.0913 0.0913 0 0 0.0456 0.0457 0 0 0.0457 0.0456 0 0 0.0456 0.0456 0 0 0.0457 0.0457 0 0 0.0456 0.0457 0 0 0.0456 0.0456 0 0 0.0914 0.0456 0 0 0.0456 0.0457 0 0 0.0913 0.0456 0 0 0.1369 0.0456 0 0 0.1369 0.0457 0 0 0.639 -0.0457 0 0 0.1825 -0.0456 0 0 0.0914 -0.0456 0 0 0.0912 -0.0457 0 0 0.0913 -0.0456 0 0 0.0457 -0.0456 0 0 0.0912 -0.0457 0 0 0.0457 -0.0457 0 0 0.0456 -0.0456 0 0 0.0457 -0.0456 0 0 0.0456 -0.0457 0 0 0.0457 -0.0913 0 0 0.0456 -0.0456 0 0 0.0456 -0.137 0 0 0.0457 -0.0912 0 0 0.0456 -0.1369 0 0 0.0457 -0.137 0 0 0.0456 -0.5477 0 0 -0.0456 -0.0912 0 0 -0.0457 -0.137 0 0 -0.0456 -0.1369 0 0 -0.0457 -0.0457 0 0 -0.0456 -0.0912 0 0 -0.0456 -0.0457 0 0 -0.0457 -0.0456 0 0 -0.0456 -0.0456 0 0 -0.0457 -0.0457 0 0 -0.0456 -0.0457 0 0 -0.0457 -0.0456 0 0 -0.0456 -0.0456 0 0 -0.0913 -0.0457 0 0 -0.0456 -0.0456 0 0 -0.0913 -0.0457 0 0 -0.0913 -0.0456 0 0 -0.1826 -0.0456 0 0 -0.0912 -0.0457 0 0 -0.5478zm1.1867 -1.2779l-0.3651 0 0 0.0456 -0.137 0 0 0.0457 -0.0456 0 0 0.0456 -0.0456 0 0 0.0456 -0.0913 0 0 0.0457 -0.0456 0 0 0.0457 -0.0914 0 0 0.0456 -0.0456 0 0 0.0456 -0.0456 0 0 0.0457 -0.0457 0 0 0.0456 -0.0456 0 0 0.0456 -0.0457 0 0 0.0457 -0.0456 0 0 0.0913 -0.0456 0 0 0.0456 -0.0457 0 0 0.0913 -0.0456 0 0 0.0913 -0.0457 0 0 0.0913 -0.0456 0 0 0.0913 -0.0457 0 0 0.2281 -0.0456 0 0 0.5478 0.0456 0 0 0.1825 0.0457 0 0 0.1826 0.0456 0 0 0.0913 0.0457 0 0 0.0913 0.0456 0 0 0.0912 0.0457 0 0 0.0457 0.0456 0 0 0.0456 0.0456 0 0 0.0913 0.0457 0 0 0.0457 0.0456 0 0 0.0456 0.0457 0 0 0.0456 0.0456 0 0 0.0457 0.0456 0 0 0.0456 0.0914 0 0 0.0457 0.0456 0 0 0.0456 0.0456 0 0 0.0456 0.0913 0 0 0.0457 0.0913 0 0 0.0457 0.2282 0 0 0.0456 0.2282 0 0 0.0456 0.4564 0 0 -0.0456 0.3195 0 0 -0.0456 0.0913 0 0 -0.0457 0.0457 0 0 -0.0457 0.1369 0 0 -0.0456 0.0456 0 0 -0.0456 0.0913 0 0 -0.0457 0.0456 0 0 -0.0456 0.0457 0 0 -0.0457 0.0457 0 0 -0.0456 0.0456 0 0 -0.0456 0.0456 0 0 -0.0457 0.0457 0 0 -0.0456 0.0456 0 0 -0.0457 0.0456 0 0 -0.0456 0.0457 0 0 -0.0913 0.0456 0 0 -0.0913 0.0457 0 0 -0.0913 0.0456 0 0 -0.0912 0.0456 0 0 -0.137 0.0457 0 0 -0.1825 0.0457 0 0 -0.4108 -0.0457 0 0 -0.3195 -0.0457 0 0 -0.0913 -0.0456 0 0 -0.0913 -0.0456 0 0 -0.0912 -0.0457 0 0 -0.0914 -0.0456 0 0 -0.0912 -0.0457 0 0 -0.0457 -0.0456 0 0 -0.0913 -0.0456 0 0 -0.0456 -0.0457 0 0 -0.0456 -0.0456 0 0 -0.0457 -0.0456 0 0 -0.0456 -0.0914 0 0 -0.0456 -0.0456 0 0 -0.0457 -0.0456 0 0 -0.0457 -0.0913 0 0 -0.0456 -0.0457 0 0 -0.0456 -0.1369 0 0 -0.0457 -0.1826 0 0 -0.0456 -0.2282 0 0 -0.0457 -0.4564 0 0 0.0457z"/>
   <path id="_413328752" class="fil0" d="M10.0413 10.9541l-0.0456 0 0 0.0912 -0.0457 0 0 0.0914 -0.0457 0 0 0.0912 -0.0456 0 0 0.0457 -0.0456 0 0 0.0456 -0.0457 0 0 0.0457 -0.0456 0 0 0.0456 -0.0457 0 0 0.0456 -0.0456 0 0 0.0457 -0.0456 0 0 0.0456 -0.0914 0 0 0.0457 -0.0456 0 0 0.0456 -0.0913 0 0 0.0457 -0.2738 0 0 0.0456 -0.5477 0 0 -0.0456 -0.137 0 0 -0.0457 -0.0912 0 0 -0.0456 -0.0457 0 0 -0.0457 -0.0456 0 0 -0.0456 -0.0457 0 0 -0.0457 -0.0912 0 0 -0.0456 -0.0457 0 0 -0.0456 -0.0456 0 0 -0.0913 -0.0456 0 0 -0.0457 -0.0457 0 0 -0.0456 -0.0457 0 0 -0.0913 -0.0456 0 0 -0.1369 -0.0456 0 0 -0.0913 -0.0457 0 0 -0.5934 0.0457 0 0 -0.1369 0.0456 0 0 -0.0912 0.0456 0 0 -0.0913 0.0457 0 0 -0.0457 0.0457 0 0 -0.0912 0.0456 0 0 -0.0457 0.0456 0 0 -0.0457 0.0457 0 0 -0.0456 0.0456 0 0 -0.0456 0.0456 0 0 -0.0457 0.0913 0 0 -0.0456 0.0457 0 0 -0.0457 0.0912 0 0 -0.0456 0.0914 0 0 -0.0456 0.7759 0 0 0.0456 0.0456 0 0 0.0456 0.1825 0 0 0.0457 0.0457 0 0 0.0456 0.0457 0 0 0.0457 0.0912 0 0 0.0456 0.0457 0 0 0.0456 0.0456 0 0 0.0457 0.0457 0 0 0.0913 0.0456 0 0 0.0456 0.0456 0 0 0.0913 0.0457 0 0 0.0913 0.0457 0 0 0.0913 0.0456 0 0 0.2282 0.0456 0 0 0.3195 -0.0456 0 0 0.2282zm-1.3693 -1.7344l-0.1369 0 0 0.0457 -0.137 0 0 0.0456 -0.1369 0 0 0.0456 -0.0913 0 0 0.0457 -0.0912 0 0 0.0456 -0.0457 0 0 0.0456 -0.0456 0 0 0.0457 -0.0456 0 0 0.0456 -0.0457 0 0 0.0457 -0.0457 0 0 0.0456 -0.0456 0 0 0.0456 -0.0456 0 0 0.0457 -0.0457 0 0 0.0913 -0.0456 0 0 0.0913 -0.0457 0 0 0.0456 -0.0456 0 0 0.1369 -0.0456 0 0 0.1369 -0.0457 0 0 0.5478 0.0457 0 0 0.0912 0.0456 0 0 0.1826 0.0456 0 0 0.0913 0.0457 0 0 0.0913 0.0456 0 0 0.0456 0.0457 0 0 0.0913 0.0456 0 0 0.0456 0.0456 0 0 0.0457 0.0457 0 0 0.0456 0.0457 0 0 0.0457 0.0456 0 0 0.0456 0.0456 0 0 0.0457 0.0457 0 0 0.0456 0.0912 0 0 0.0456 0.0457 0 0 0.0457 0.1369 0 0 0.0456 0.137 0 0 0.0457 0.0912 0 0 0.0456 0.5477 0 0 -0.0456 0.137 0 0 -0.0457 0.1369 0 0 -0.0456 0.0912 0 0 -0.0457 0.137 0 0 -0.0456 0.0456 0 0 -0.0456 0.0913 0 0 -0.0457 0.0457 0 0 -0.0456 0.0456 0 0 -0.0457 0.0456 0 0 -0.0456 0.0457 0 0 -0.0457 0.0457 0 0 -0.0912 0.0456 0 0 -0.0457 0.0456 0 0 -0.0913 0.0457 0 0 -0.0912 0.0456 0 0 -0.0914 0.0456 0 0 -0.1825 0.0457 0 0 -0.639 -0.0457 0 0 -0.1369 -0.0456 0 0 -0.1369 -0.0456 0 0 -0.0913 -0.0457 0 0 -0.0456 -0.0456 0 0 -0.0914 -0.0456 0 0 -0.0456 -0.0457 0 0 -0.0456 -0.0457 0 0 -0.0457 -0.0456 0 0 -0.0456 -0.0456 0 0 -0.0457 -0.0457 0 0 -0.0456 -0.0913 0 0 -0.0913 -0.0912 0 0 -0.0456 -0.137 0 0 -0.0456 -0.1825 0 0 -0.0457 -0.137 0 0 -0.0457 -0.4564 0 0 0.0457z"/>
   <polygon id="_413328944" class="fil1" points="5.8879,4.1991 5.6597,4.1991 5.6597,4.2447 5.614,4.2447 5.614,4.3817 5.5683,4.3817 5.5683,4.5642 5.5227,4.5642 5.5227,4.6555 5.4771,4.6555 5.4771,4.7011 5.4314,4.7011 5.4314,4.7924 5.3858,4.7924 5.3858,4.838 5.3401,4.838 5.3401,4.8837 5.2945,4.8837 5.2945,4.9294 5.2489,4.9294 5.2489,4.975 5.1576,4.975 5.1576,5.0206 5.0663,5.0206 5.0663,5.0663 4.975,5.0663 4.975,5.1576 4.7468,5.1576 4.7468,5.2488 4.7924,5.2488 4.7924,5.2945 4.8837,5.2945 4.8837,5.3401 4.9294,5.3401 4.9294,5.3858 4.975,5.3858 4.975,5.4314 5.0206,5.4314 5.0206,5.5227 5.0663,5.5227 5.0663,5.5683 5.112,5.5683 5.112,5.6139 5.1576,5.6139 5.1576,5.6596 5.2032,5.6596 5.2032,5.7509 5.2489,5.7509 5.2489,5.7965 5.2945,5.7965 5.2945,5.8878 5.3401,5.8878 5.3401,5.9335 5.3858,5.9335 5.3858,6.0247 5.4314,6.0247 5.4314,6.116 5.4771,6.116 5.4771,6.2073 5.5227,6.2073 5.5227,6.2986 5.5683,6.2986 5.5683,6.4355 5.614,6.4355 5.614,6.5268 5.7053,6.5268 5.7053,6.4812 5.7965,6.4812 5.7965,6.4355 5.8422,6.4355 5.8422,6.3899 5.8879,6.3899 5.8879,6.3442 5.9791,6.3442 5.9791,6.2986 6.0248,6.2986 6.0248,6.253 6.116,6.253 6.116,6.0704 6.0704,6.0704 6.0704,5.9335 6.0248,5.9335 6.0248,5.7053 5.9791,5.7053 5.9791,5.5227 5.9335,5.5227 5.9335,4.5642 5.9791,4.5642 5.9791,4.3817 6.0248,4.3817 6.0248,4.2903 6.0704,4.2903 6.0704,4.1534 5.8879,4.1534 "/>
   <polygon id="_413329400" class="fil1" points="4.4273,3.5144 4.2904,3.5144 4.2904,3.5601 4.2447,3.5601 4.2447,3.6057 4.1535,3.6057 4.1535,3.6514 4.1078,3.6514 4.1078,3.697 4.0621,3.697 4.0621,3.7883 4.0165,3.7883 4.0165,3.8796 3.9709,3.8796 3.9709,3.9709 3.9252,3.9709 3.9252,4.2903 3.9709,4.2903 3.9709,4.4273 4.0165,4.4273 4.0165,4.4729 4.0621,4.4729 4.0621,4.5642 4.1078,4.5642 4.1078,4.6099 4.1535,4.6099 4.1535,4.6555 4.1991,4.6555 4.1991,4.7011 4.336,4.7011 4.336,4.7468 4.4273,4.7468 4.4273,4.7924 4.7468,4.7924 4.7468,4.7468 4.9294,4.7468 4.9294,4.7011 4.975,4.7011 4.975,4.6555 5.0206,4.6555 5.0206,4.6099 5.0663,4.6099 5.0663,4.5642 5.112,4.5642 5.112,4.5186 5.1576,4.5186 5.1576,4.4729 5.2032,4.4729 5.2032,4.336 5.2489,4.336 5.2489,3.8796 5.2032,3.8796 5.2032,3.834 5.1576,3.834 5.1576,3.7426 5.112,3.7426 5.112,3.697 5.0663,3.697 5.0663,3.6514 5.0206,3.6514 5.0206,3.6057 4.975,3.6057 4.975,3.5601 4.8837,3.5601 4.8837,3.5144 4.7924,3.5144 4.7924,3.4688 4.4273,3.4688 "/>
   <polygon id="_413329256" class="fil1" points="13.8752,5.6139 13.8295,5.6139 13.8295,5.6596 13.6926,5.6596 13.6926,5.7053 13.6013,5.7053 13.6013,5.7509 13.5557,5.7509 13.5557,5.8422 13.5101,5.8422 13.5101,5.8878 13.4644,5.8878 13.4644,5.9791 13.4188,5.9791 13.4188,6.4812 13.4644,6.4812 13.4644,6.5724 13.5101,6.5724 13.5101,6.6181 13.5557,6.6181 13.5557,6.7094 13.6013,6.7094 13.6013,6.755 13.6926,6.755 13.6926,6.8007 13.7383,6.8007 13.7383,6.8463 13.8752,6.8463 13.8752,6.8919 14.286,6.8919 14.286,6.8463 14.3772,6.8463 14.3772,6.8007 14.4229,6.8007 14.4229,6.755 14.4686,6.755 14.4686,6.7094 14.5598,6.7094 14.5598,6.6181 14.6055,6.6181 14.6055,6.5724 14.6511,6.5724 14.6511,6.4812 14.6968,6.4812 14.6968,6.3442 14.7424,6.3442 14.7424,6.0704 14.6968,6.0704 14.6968,5.9791 14.6511,5.9791 14.6511,5.8878 14.6055,5.8878 14.6055,5.8422 14.5598,5.8422 14.5598,5.7509 14.5142,5.7509 14.5142,5.7053 14.4229,5.7053 14.4229,5.6596 14.3316,5.6596 14.3316,5.6139 14.1947,5.6139 14.1947,5.5683 13.8752,5.5683 "/>
   <polygon id="_413329640" class="fil1" points="2.6473,6.8463 2.556,6.8463 2.556,6.8919 2.4647,6.8919 2.4647,6.9376 2.419,6.9376 2.419,6.9832 2.3734,6.9832 2.3734,7.0289 2.3278,7.0289 2.3278,7.0745 2.2821,7.0745 2.2821,7.1658 2.2365,7.1658 2.2365,7.6678 2.2821,7.6678 2.2821,7.7592 2.3278,7.7592 2.3278,7.8504 2.3734,7.8504 2.3734,7.8961 2.419,7.8961 2.419,7.9417 2.4647,7.9417 2.4647,7.9874 2.5103,7.9874 2.5103,8.033 2.6929,8.033 2.6929,8.0786 3.0124,8.0786 3.0124,8.033 3.1493,8.033 3.1493,7.9874 3.2862,7.9874 3.2862,7.9417 3.3319,7.9417 3.3319,7.8961 3.3775,7.8961 3.3775,7.8504 3.4232,7.8504 3.4232,7.7592 3.4688,7.7592 3.4688,7.6678 3.5144,7.6678 3.5144,7.1658 3.4688,7.1658 3.4688,7.0745 3.4232,7.0745 3.4232,7.0289 3.3775,7.0289 3.3775,6.9832 3.3319,6.9832 3.3319,6.9376 3.2862,6.9376 3.2862,6.8919 3.2406,6.8919 3.2406,6.8463 3.1037,6.8463 3.1037,6.8007 2.6473,6.8007 "/>
   <polygon id="_413329064" class="fil1" points="7.6679,6.1617 7.5766,6.1617 7.5766,6.2073 7.4397,6.2073 7.4397,6.253 7.2571,6.253 7.2571,6.2986 7.2115,6.2986 7.2115,6.3442 7.1202,6.3442 7.1202,6.3899 6.9376,6.3899 6.9376,6.4355 6.8463,6.4355 6.8463,6.4812 6.8007,6.4812 6.8007,6.5268 6.755,6.5268 6.755,6.5724 6.6181,6.5724 6.6181,6.6181 6.5725,6.6181 6.5725,6.6638 6.4812,6.6638 6.4812,6.7094 6.4356,6.7094 6.4356,6.755 6.3442,6.755 6.3442,6.8007 6.2986,6.8007 6.2986,6.8463 6.253,6.8463 6.253,6.8919 6.1617,6.8919 6.1617,6.9376 6.116,6.9376 6.116,6.9832 6.0704,6.9832 6.0704,7.0289 5.9791,7.0289 5.9791,7.0745 5.9335,7.0745 5.9335,7.1201 5.8879,7.1201 5.8879,7.1658 5.8422,7.1658 5.8422,7.2115 5.7965,7.2115 5.7965,7.2571 5.7509,7.2571 5.7509,7.3027 5.7053,7.3027 5.7053,7.3484 5.6597,7.3484 5.6597,7.394 5.614,7.394 5.614,7.4853 5.5683,7.4853 5.5683,7.5309 5.5227,7.5309 5.5227,7.5766 5.4771,7.5766 5.4771,7.6222 5.4314,7.6222 5.4314,7.7135 5.3858,7.7135 5.3858,7.7592 5.3401,7.7592 5.3401,7.8048 5.2945,7.8048 5.2945,7.8961 5.2489,7.8961 5.2489,7.9417 5.2032,7.9417 5.2032,8.033 5.1576,8.033 5.1576,8.1243 5.112,8.1243 5.112,8.2155 5.0663,8.2155 5.0663,8.2612 5.0206,8.2612 5.0206,8.3525 4.975,8.3525 4.975,8.4438 4.9294,8.4438 4.9294,8.5807 4.8837,8.5807 4.8837,8.672 4.8381,8.672 4.8381,8.8089 4.7924,8.8089 4.7924,9.174 4.8837,9.174 4.8837,9.1284 4.9294,9.1284 4.9294,9.0828 4.975,9.0828 4.975,8.9915 5.0206,8.9915 5.0206,8.9458 5.0663,8.9458 5.0663,8.8546 5.112,8.8546 5.112,8.7633 5.1576,8.7633 5.1576,8.672 5.2032,8.672 5.2032,8.5807 5.2489,8.5807 5.2489,8.4894 5.2945,8.4894 5.2945,8.4438 5.3401,8.4438 5.3401,8.3525 5.3858,8.3525 5.3858,8.2612 5.4314,8.2612 5.4314,8.2155 5.4771,8.2155 5.4771,8.1243 5.5227,8.1243 5.5227,8.0786 5.5683,8.0786 5.5683,7.9874 5.614,7.9874 5.614,7.9417 5.6597,7.9417 5.6597,7.8504 5.7053,7.8504 5.7053,7.8048 5.7509,7.8048 5.7509,7.7592 5.7965,7.7592 5.7965,7.7135 5.8422,7.7135 5.8422,7.6222 5.8879,7.6222 5.8879,7.5766 5.9335,7.5766 5.9335,7.5309 5.9791,7.5309 5.9791,7.4853 6.0248,7.4853 6.0248,7.4397 6.0704,7.4397 6.0704,7.394 6.116,7.394 6.116,7.3484 6.1617,7.3484 6.1617,7.3027 6.2073,7.3027 6.2073,7.2571 6.2986,7.2571 6.2986,7.2115 6.3442,7.2115 6.3442,7.1658 6.3899,7.1658 6.3899,7.1201 6.4356,7.1201 6.4356,7.0745 6.5268,7.0745 6.5268,7.0289 6.5725,7.0289 6.5725,6.9832 6.6181,6.9832 6.6181,6.9376 6.755,6.9376 6.755,6.8919 6.8007,6.8919 6.8007,6.8463 6.8463,6.8463 6.8463,6.8007 6.9833,6.8007 6.9833,6.7094 7.0745,6.7094 7.0745,6.6638 7.1658,6.6638 7.1658,6.6181 7.2571,6.6181 7.2571,6.5724 7.3484,6.5724 7.3484,6.5268 7.531,6.5268 7.531,6.4812 7.6222,6.4812 7.6222,6.4355 7.7135,6.4355 7.7135,6.3899 7.8504,6.3899 7.8504,6.3442 7.9418,6.3442 7.9418,6.2986 7.9874,6.2986 7.9874,6.253 8.033,6.253 8.033,6.2073 8.0787,6.2073 8.0787,6.116 7.6679,6.116 "/>
   <polygon id="_413329568" class="fil1" points="8.5351,4.5186 8.3981,4.5186 8.3981,4.5642 8.3525,4.5642 8.3525,4.6099 8.3069,4.6099 8.3069,4.6555 8.2612,4.6555 8.2612,4.7468 8.2156,4.7468 8.2156,4.838 8.1699,4.838 8.1699,5.2945 8.2156,5.2945 8.2156,5.3858 8.2612,5.3858 8.2612,5.4314 9.4023,5.4314 9.4023,5.3401 9.4479,5.3401 9.4479,5.2488 9.4935,5.2488 9.4935,4.9294 9.4479,4.9294 9.4479,4.7924 9.4023,4.7924 9.4023,4.7011 9.3566,4.7011 9.3566,4.6555 9.311,4.6555 9.311,4.6099 9.2654,4.6099 9.2654,4.5642 9.2197,4.5642 9.2197,4.5186 9.1741,4.5186 9.1741,4.4729 9.0828,4.4729 9.0828,4.4273 8.5351,4.4273 "/>
   <polygon id="_413329016" class="fil1" points="6.0704,5.6596 6.116,5.6596 6.116,5.7965 6.1617,5.7965 6.1617,5.9791 6.2073,5.9791 6.2073,6.0704 6.253,6.0704 6.253,6.116 6.3442,6.116 6.3442,6.0704 6.4356,6.0704 6.4356,6.0247 6.5268,6.0247 6.5268,5.9791 6.6181,5.9791 6.6181,5.9335 6.7094,5.9335 6.7094,5.8878 6.8007,5.8878 6.8007,5.8422 6.8919,5.8422 6.8919,5.7965 6.9833,5.7965 6.9833,5.7509 7.1658,5.7509 7.1658,5.7053 7.3027,5.7053 7.3027,5.6596 7.4397,5.6596 7.4397,5.6139 7.6222,5.6139 7.6222,5.5683 7.7135,5.5683 7.7135,5.5227 7.8504,5.5227 7.8504,5.3401 6.0704,5.3401 "/>
   <path id="_413329904" class="fil1" d="M2.0996 7.2571l0.0456 0 0 -0.137 0.0456 0 0 -0.0912 0.0457 0 0 -0.0913 0.0456 0 0 -0.0457 0.0457 0 0 -0.0456 0.0456 0 0 -0.0456 0.0913 0 0 -0.0457 0.0913 0 0 -0.0912 0.5477 0 0 0.0456 0.0913 0 0 0.0456 0.0912 0 0 0.0457 0.0913 0 0 0.0456 0.0457 0 0 0.0456 0.0456 0 0 0.0457 0.0456 0 0 0.0913 0.0457 0 0 0.0912 0.0457 0 0 0.0914 0.0456 0 0 0.4107 -0.0456 0 0 0.137 -0.0457 0 0 0.0912 -0.0457 0 0 0.0457 -0.0456 0 0 0.0913 -0.0456 0 0 0.0456 -0.0913 0 0 0.0456 -0.0457 0 0 0.0457 -0.0456 0 0 0.0456 -0.1825 0 0 0.0456 -0.4565 0 0 -0.0912 -0.1369 0 0 -0.0457 -0.0457 0 0 -0.0456 -0.0456 0 0 -0.0456 -0.0456 0 0 -0.0457 -0.0457 0 0 -0.0456 -0.0456 0 0 -0.0457 -0.0457 0 0 -0.0912 -0.0456 0 0 -0.137 -0.0456 0 0 -0.3651zm0.6389 -0.6847l-0.2738 0 0 0.0457 -0.0457 0 0 0.0457 -0.0912 0 0 0.0456 -0.0457 0 0 0.0456 -0.0456 0 0 0.0457 -0.0457 0 0 0.0456 -0.0456 0 0 0.0456 -0.0456 0 0 0.0913 -0.0457 0 0 0.0913 -0.0457 0 0 0.0913 -0.0456 0 0 0.4564 0.0456 0 0 0.1826 0.0457 0 0 0.0913 0.0457 0 0 0.0456 0.0456 0 0 0.0913 0.0456 0 0 0.0456 0.0457 0 0 0.0457 0.0456 0 0 0.0456 0.0913 0 0 0.0456 0.1369 0 0 0.0457 0.0457 0 0 0.0457 0.0913 0 0 0.0456 0.5477 0 0 -0.0913 0.1369 0 0 -0.0457 0.0456 0 0 -0.0456 0.0913 0 0 -0.0456 0.0456 0 0 -0.0457 0.0457 0 0 -0.0456 0.0457 0 0 -0.0913 0.0456 0 0 -0.0456 0.0456 0 0 -0.0913 0.0457 0 0 -0.1826 0.0456 0 0 -0.4564 -0.0456 0 0 -0.0913 -0.0457 0 0 -0.0913 -0.0456 0 0 -0.0913 -0.0456 0 0 -0.0456 -0.0457 0 0 -0.0456 -0.0457 0 0 -0.0457 -0.0456 0 0 -0.0456 -0.0456 0 0 -0.0456 -0.0457 0 0 -0.0457 -0.0913 0 0 -0.0457 -0.2281 0 0 -0.0456 -0.3196 0 0 0.0456z"/>
   <path id="_413330384" class="fil1" d="M5.3401 4.4273l-0.0456 0 0 0.0913 -0.0456 0 0 0.0913 -0.0457 0 0 0.0456 -0.0456 0 0 0.0456 -0.0456 0 0 0.0457 -0.0457 0 0 0.0456 -0.0457 0 0 0.0456 -0.0912 0 0 0.0457 -0.5934 0 0 -0.0457 -0.0913 0 0 -0.0456 -0.0912 0 0 -0.0456 -0.0457 0 0 -0.0457 -0.0913 0 0 -0.0456 -0.0456 0 0 -0.0913 -0.0457 0 0 -0.0913 -0.0456 0 0 -0.0912 -0.0456 0 0 -0.5021 0.0456 0 0 -0.0913 0.0456 0 0 -0.0913 0.0457 0 0 -0.0456 0.0456 0 0 -0.0457 0.0456 0 0 -0.0456 0.0457 0 0 -0.0457 0.0457 0 0 -0.0456 0.0456 0 0 -0.0456 0.2282 0 0 -0.0457 0.4108 0 0 0.0457 0.1369 0 0 0.0456 0.0913 0 0 0.0456 0.0457 0 0 0.0457 0.0456 0 0 0.0456 0.0456 0 0 0.0457 0.0457 0 0 0.0912 0.0456 0 0 0.0914 0.0456 0 0 0.1369 0.0457 0 0 0.3651 -0.0457 0 0 0.0913zm-1.0041 -1.1411l-0.1825 0 0 0.0457 -0.0457 0 0 0.0456 -0.0457 0 0 0.0457 -0.0912 0 0 0.0456 -0.0457 0 0 0.0456 -0.0456 0 0 0.0913 -0.0456 0 0 0.0457 -0.0457 0 0 0.0912 -0.0456 0 0 0.0914 -0.0457 0 0 0.5933 0.0457 0 0 0.0913 0.0456 0 0 0.0913 0.0457 0 0 0.0912 0.0912 0 0 0.0457 0.0457 0 0 0.0456 0.0912 0 0 0.0456 0.137 0 0 0.0457 0.0456 0 0 0.0457 0.0913 0 0 0.0456 0.1369 0 0 0.0913 0.3652 0 0 -0.0457 0.1369 0 0 -0.0456 0.0913 0 0 -0.0456 0.0457 0 0 -0.0457 0.0456 0 0 -0.0457 0.0456 0 0 -0.0456 0.0457 0 0 -0.0456 0.0456 0 0 -0.0457 0.0456 0 0 -0.0456 0.0457 0 0 -0.0913 0.0456 0 0 -0.0913 0.0457 0 0 -0.1826 0.0456 0 0 -0.3194 -0.0456 0 0 -0.1826 -0.0457 0 0 -0.0913 -0.0456 0 0 -0.0913 -0.0457 0 0 -0.0456 -0.0456 0 0 -0.0457 -0.0456 0 0 -0.0456 -0.0457 0 0 -0.0456 -0.0456 0 0 -0.0457 -0.0913 0 0 -0.0456 -0.0457 0 0 -0.0457 -0.1369 0 0 -0.0456 -0.5477 0 0 0.0456z"/>
   <path id="_413329880" class="fil1" d="M13.2818 5.9791l0.0457 0 0 -0.0913 0.0457 0 0 -0.0913 0.0456 0 0 -0.0456 0.0456 0 0 -0.0456 0.0457 0 0 -0.0457 0.0456 0 0 -0.0457 0.0456 0 0 -0.0456 0.0913 0 0 -0.0913 0.1369 0 0 -0.0456 0.4565 0 0 0.0456 0.0912 0 0 0.0457 0.0457 0 0 0.0456 0.0913 0 0 0.0456 0.0456 0 0 0.0457 0.0457 0 0 0.0457 0.0456 0 0 0.0456 0.0457 0 0 0.0456 0.0456 0 0 0.0913 0.0456 0 0 0.0913 0.0457 0 0 0.4564 -0.0457 0 0 0.1369 -0.0456 0 0 0.0457 -0.0456 0 0 0.0913 -0.0457 0 0 0.0456 -0.0456 0 0 0.0457 -0.0457 0 0 0.0456 -0.0456 0 0 0.0456 -0.0456 0 0 0.0457 -0.0914 0 0 0.0456 -0.0912 0 0 0.0457 -0.4108 0 0 -0.0457 -0.1369 0 0 -0.0456 -0.0913 0 0 -0.0457 -0.0457 0 0 -0.0456 -0.0456 0 0 -0.0456 -0.0456 0 0 -0.0457 -0.0457 0 0 -0.0456 -0.0456 0 0 -0.0456 -0.0456 0 0 -0.0914 -0.0457 0 0 -0.1825 -0.0457 0 0 -0.4108zm0.5021 -0.639l-0.0456 0 0 0.0457 -0.137 0 0 0.0456 -0.0456 0 0 0.0456 -0.0456 0 0 0.0457 -0.0457 0 0 0.0456 -0.0912 0 0 0.0913 -0.0457 0 0 0.0457 -0.0457 0 0 0.0456 -0.0456 0 0 0.1369 -0.0456 0 0 0.1369 -0.0457 0 0 0.4565 0.0457 0 0 0.1369 0.0456 0 0 0.0457 0.0456 0 0 0.0912 0.0457 0 0 0.0457 0.0457 0 0 0.0456 0.0456 0 0 0.0456 0.0456 0 0 0.0457 0.0457 0 0 0.0456 0.0456 0 0 0.0457 0.1369 0 0 0.0912 0.5477 0 0 -0.0456 0.1826 0 0 -0.0456 0.1369 0 0 -0.0457 0.0457 0 0 -0.0456 0.0456 0 0 -0.0457 0.0457 0 0 -0.0456 0.0456 0 0 -0.0456 0.0456 0 0 -0.0457 0.0457 0 0 -0.0912 0.0456 0 0 -0.0914 0.0457 0 0 -0.0912 0.0456 0 0 -0.5021 -0.0456 0 0 -0.0913 -0.0457 0 0 -0.1369 -0.0456 0 0 -0.0456 -0.0457 0 0 -0.0457 -0.0456 0 0 -0.0913 -0.0456 0 0 -0.0456 -0.0913 0 0 -0.0457 -0.0457 0 0 -0.0456 -0.1369 0 0 -0.0913 -0.1369 0 0 -0.0456 -0.5021 0 0 0.0456z"/>
   <path id="_413330144" class="fil2" d="M14.6968 6.4812l-0.0457 0 0 0.0912 -0.0456 0 0 0.0457 -0.0457 0 0 0.0913 -0.0912 0 0 0.0456 -0.0457 0 0 0.0457 -0.0457 0 0 0.0456 -0.0912 0 0 0.0456 -0.4108 0 0 -0.0456 -0.1369 0 0 -0.0456 -0.0457 0 0 -0.0457 -0.0913 0 0 -0.0456 -0.0456 0 0 -0.0913 -0.0456 0 0 -0.0457 -0.0457 0 0 -0.0912 -0.0456 0 0 -0.5021 0.0456 0 0 -0.0913 0.0457 0 0 -0.0456 0.0456 0 0 -0.0913 0.0456 0 0 -0.0456 0.0913 0 0 -0.0457 0.1369 0 0 -0.0457 0.0457 0 0 -0.0456 0.3195 0 0 0.0456 0.1369 0 0 0.0457 0.0913 0 0 0.0457 0.0913 0 0 0.0456 0.0456 0 0 0.0913 0.0457 0 0 0.0456 0.0456 0 0 0.0913 0.0457 0 0 0.0913 0.0456 0 0 0.2738 -0.0456 0 0 0.137zm-0.8673 -1.0042l-0.1369 0 0 0.0913 -0.0913 0 0 0.0456 -0.0456 0 0 0.0457 -0.0456 0 0 0.0457 -0.0457 0 0 0.0456 -0.0456 0 0 0.0456 -0.0456 0 0 0.0913 -0.0457 0 0 0.0913 -0.0457 0 0 0.4108 0.0457 0 0 0.1825 0.0457 0 0 0.0914 0.0456 0 0 0.0456 0.0456 0 0 0.0456 0.0457 0 0 0.0457 0.0456 0 0 0.0456 0.0456 0 0 0.0456 0.0457 0 0 0.0457 0.0913 0 0 0.0456 0.1369 0 0 0.0457 0.4108 0 0 -0.0457 0.0912 0 0 -0.0456 0.0914 0 0 -0.0457 0.0456 0 0 -0.0456 0.0456 0 0 -0.0456 0.0457 0 0 -0.0457 0.0456 0 0 -0.0456 0.0457 0 0 -0.0913 0.0456 0 0 -0.0457 0.0456 0 0 -0.1369 0.0457 0 0 -0.4564 -0.0457 0 0 -0.0913 -0.0456 0 0 -0.0913 -0.0456 0 0 -0.0456 -0.0457 0 0 -0.0456 -0.0456 0 0 -0.0457 -0.0457 0 0 -0.0457 -0.0456 0 0 -0.0456 -0.0913 0 0 -0.0456 -0.0457 0 0 -0.0457 -0.0912 0 0 -0.0456 -0.4565 0 0 0.0456z"/>
   <path id="_413330240" class="fil2" d="M2.2365 7.1658l0.0456 0 0 -0.0913 0.0457 0 0 -0.0456 0.0456 0 0 -0.0457 0.0456 0 0 -0.0456 0.0457 0 0 -0.0457 0.0913 0 0 -0.0456 0.0913 0 0 -0.0456 0.4564 0 0 0.0456 0.1369 0 0 0.0456 0.0456 0 0 0.0457 0.0457 0 0 0.0456 0.0456 0 0 0.0457 0.0457 0 0 0.0456 0.0456 0 0 0.0913 0.0456 0 0 0.502 -0.0456 0 0 0.0914 -0.0456 0 0 0.0912 -0.0457 0 0 0.0457 -0.0456 0 0 0.0456 -0.0457 0 0 0.0457 -0.1369 0 0 0.0456 -0.1369 0 0 0.0456 -0.3195 0 0 -0.0456 -0.1826 0 0 -0.0456 -0.0456 0 0 -0.0457 -0.0457 0 0 -0.0456 -0.0456 0 0 -0.0457 -0.0456 0 0 -0.0912 -0.0457 0 0 -0.0914 -0.0456 0 0 -0.502zm0.3195 -0.4108l-0.0913 0 0 0.0457 -0.0913 0 0 0.0456 -0.0456 0 0 0.0456 -0.0457 0 0 0.0457 -0.0456 0 0 0.0913 -0.0457 0 0 0.0912 -0.0456 0 0 0.137 -0.0456 0 0 0.3651 0.0456 0 0 0.137 0.0456 0 0 0.0912 0.0457 0 0 0.0457 0.0456 0 0 0.0456 0.0457 0 0 0.0457 0.0456 0 0 0.0456 0.0456 0 0 0.0456 0.0457 0 0 0.0457 0.1369 0 0 0.0912 0.4565 0 0 -0.0456 0.1825 0 0 -0.0456 0.0456 0 0 -0.0457 0.0457 0 0 -0.0456 0.0913 0 0 -0.0456 0.0456 0 0 -0.0913 0.0456 0 0 -0.0457 0.0457 0 0 -0.0912 0.0457 0 0 -0.137 0.0456 0 0 -0.4107 -0.0456 0 0 -0.0914 -0.0457 0 0 -0.0912 -0.0457 0 0 -0.0913 -0.0456 0 0 -0.0457 -0.0456 0 0 -0.0456 -0.0457 0 0 -0.0456 -0.0913 0 0 -0.0457 -0.0912 0 0 -0.0456 -0.0913 0 0 -0.0456 -0.5477 0 0 0.0912z"/>
   <polygon id="_413329736" class="fil1" points="13.5101,9.4935 13.4644,9.4935 13.4644,9.5392 13.2818,9.5392 13.2818,9.5848 13.0993,9.5848 13.0993,9.6305 12.8254,9.6305 12.8254,9.6761 12.5972,9.6761 12.5972,9.7217 12.4603,9.7217 12.4603,9.7674 12.3233,9.7674 12.3233,9.8131 12.0495,9.8131 12.0495,9.8587 11.867,9.8587 11.867,9.9043 11.6844,9.9043 11.6844,9.95 11.5931,9.95 11.5931,9.9956 11.5018,9.9956 11.5018,10.0413 11.4105,10.0413 11.4105,10.0869 11.1823,10.0869 11.1823,10.1325 10.9541,10.1325 10.9541,10.1782 10.8628,10.1782 10.8628,10.2238 10.7259,10.2238 10.7259,10.3608 10.8628,10.3608 10.8628,10.3151 11.0454,10.3151 11.0454,10.2694 11.2736,10.2694 11.2736,10.2238 11.4562,10.2238 11.4562,10.1782 11.5931,10.1782 11.5931,10.0869 12.0039,10.0869 12.0039,10.0413 12.1864,10.0413 12.1864,9.9956 12.369,9.9956 12.369,9.95 12.5516,9.95 12.5516,9.9043 12.7341,9.9043 12.7341,9.8587 12.8254,9.8587 12.8254,9.8131 13.008,9.8131 13.008,9.7674 13.1906,9.7674 13.1906,9.7217 13.4188,9.7217 13.4188,9.6761 13.5557,9.6761 13.5557,9.6305 13.7383,9.6305 13.7383,9.4479 13.5101,9.4479 "/>
   <path id="_413330936" class="fil2" d="M3.9252 3.9709l0.0457 0 0 -0.0913 0.0456 0 0 -0.0913 0.0456 0 0 -0.0913 0.0457 0 0 -0.0456 0.0457 0 0 -0.0457 0.0912 0 0 -0.0456 0.0457 0 0 -0.0457 0.1369 0 0 -0.0456 0.3651 0 0 0.0456 0.0913 0 0 0.0457 0.0913 0 0 0.0456 0.0456 0 0 0.0457 0.0457 0 0 0.0456 0.0457 0 0 0.0456 0.0456 0 0 0.0914 0.0456 0 0 0.0456 0.0457 0 0 0.4564 -0.0457 0 0 0.1369 -0.0456 0 0 0.0457 -0.0456 0 0 0.0456 -0.0457 0 0 0.0457 -0.0457 0 0 0.0456 -0.0456 0 0 0.0456 -0.0456 0 0 0.0457 -0.1826 0 0 0.0456 -0.3195 0 0 -0.0456 -0.0913 0 0 -0.0457 -0.1369 0 0 -0.0456 -0.0456 0 0 -0.0456 -0.0457 0 0 -0.0457 -0.0457 0 0 -0.0913 -0.0456 0 0 -0.0456 -0.0456 0 0 -0.137 -0.0457 0 0 -0.3194zm0.5021 -0.5477l-0.2282 0 0 0.0456 -0.0456 0 0 0.0456 -0.0457 0 0 0.0457 -0.0457 0 0 0.0456 -0.0456 0 0 0.0457 -0.0456 0 0 0.0456 -0.0457 0 0 0.0913 -0.0456 0 0 0.0913 -0.0456 0 0 0.5021 0.0456 0 0 0.0912 0.0456 0 0 0.0913 0.0457 0 0 0.0913 0.0456 0 0 0.0456 0.0913 0 0 0.0457 0.0457 0 0 0.0456 0.0912 0 0 0.0456 0.0913 0 0 0.0457 0.5934 0 0 -0.0457 0.0912 0 0 -0.0456 0.0457 0 0 -0.0456 0.0457 0 0 -0.0457 0.0456 0 0 -0.0456 0.0456 0 0 -0.0456 0.0457 0 0 -0.0913 0.0456 0 0 -0.0913 0.0456 0 0 -0.0913 0.0457 0 0 -0.3651 -0.0457 0 0 -0.1369 -0.0456 0 0 -0.0914 -0.0456 0 0 -0.0912 -0.0457 0 0 -0.0457 -0.0456 0 0 -0.0456 -0.0456 0 0 -0.0457 -0.0457 0 0 -0.0456 -0.0913 0 0 -0.0456 -0.1369 0 0 -0.0457 -0.4108 0 0 0.0457z"/>
   <polygon id="_413330960" class="fil1" points="9.8131,5.477 9.9043,5.477 9.9043,5.5227 10.1326,5.5227 10.1326,5.5683 10.1782,5.5683 10.1782,5.6139 10.4064,5.6139 10.4064,5.6596 10.4977,5.6596 10.4977,5.7053 10.6346,5.7053 10.6346,5.7509 10.7259,5.7509 10.7259,5.7965 10.9541,5.7965 10.9541,5.8878 11.1823,5.8878 11.1823,5.7053 11.2279,5.7053 11.2279,5.477 11.2736,5.477 11.2736,5.3401 9.8131,5.3401 "/>
   <polygon id="_413330504" class="fil1" points="6.9833,11.1823 6.6638,11.1823 6.6638,11.2279 6.6181,11.2279 6.6181,11.2736 6.4356,11.2736 6.4356,11.3192 6.3442,11.3192 6.3442,11.3649 6.1617,11.3649 6.1617,11.4105 6.0248,11.4105 6.0248,11.4561 5.7965,11.4561 5.7965,11.5018 5.4314,11.5018 5.4314,11.5474 5.2032,11.5474 5.2032,11.5931 5.1576,11.5931 5.1576,11.6387 5.0206,11.6387 5.0206,11.6844 4.7924,11.6844 4.7924,11.73 4.7468,11.73 4.7468,11.7756 4.4729,11.7756 4.4729,11.8213 4.2904,11.8213 4.2904,11.8669 4.1535,11.8669 4.1535,12.0038 4.336,12.0038 4.336,11.9582 4.4729,11.9582 4.4729,11.9126 4.7924,11.9126 4.7924,11.8669 5.0206,11.8669 5.0206,11.8213 5.112,11.8213 5.112,11.7756 5.2032,11.7756 5.2032,11.73 5.4771,11.73 5.4771,11.6844 5.5683,11.6844 5.5683,11.6387 5.8422,11.6387 5.8422,11.5931 6.0704,11.5931 6.0704,11.5474 6.253,11.5474 6.253,11.5018 6.4356,11.5018 6.4356,11.4561 6.5268,11.4561 6.5268,11.4105 6.6638,11.4105 6.6638,11.3649 6.8919,11.3649 6.8919,11.3192 7.0289,11.3192 7.0289,11.2736 7.1658,11.2736 7.1658,11.1367 6.9833,11.1367 "/>
   <polygon id="_413330912" class="fil1" points="8.5351,4.1991 8.4438,4.1991 8.4438,4.2447 8.3981,4.2447 8.3981,4.2903 8.3069,4.2903 8.3069,4.336 8.2612,4.336 8.2612,4.3817 8.1699,4.3817 8.1699,4.4273 8.1243,4.4273 8.1243,4.5186 8.0787,4.5186 8.0787,4.5642 8.033,4.5642 8.033,4.6555 7.9874,4.6555 7.9874,4.7468 7.9418,4.7468 7.9418,4.8837 7.8961,4.8837 7.8961,5.2488 7.9418,5.2488 7.9418,5.4314 7.9874,5.4314 7.9874,5.477 8.1243,5.477 8.1243,5.3858 8.0787,5.3858 8.0787,5.2488 8.033,5.2488 8.033,4.8837 8.0787,4.8837 8.0787,4.7468 8.1243,4.7468 8.1243,4.6555 8.1699,4.6555 8.1699,4.6099 8.2156,4.6099 8.2156,4.5642 8.2612,4.5642 8.2612,4.5186 8.3069,4.5186 8.3069,4.4729 8.3525,4.4729 8.3525,4.4273 8.3981,4.4273 8.3981,4.3817 8.4895,4.3817 8.4895,4.336 8.5807,4.336 8.5807,4.2903 9.0372,4.2903 9.0372,4.336 9.1741,4.336 9.1741,4.3817 9.2654,4.3817 9.2654,4.4273 9.311,4.4273 9.311,4.4729 9.3566,4.4729 9.3566,4.5186 9.4023,4.5186 9.4023,4.5642 9.4479,4.5642 9.4479,4.6555 9.4935,4.6555 9.4935,4.7011 9.5392,4.7011 9.5392,4.838 9.5849,4.838 9.5849,5.2945 9.5392,5.2945 9.5392,5.4314 9.6761,5.4314 9.6761,5.3401 9.7218,5.3401 9.7218,4.7924 9.6761,4.7924 9.6761,4.7011 9.6305,4.7011 9.6305,4.6099 9.5849,4.6099 9.5849,4.5186 9.5392,4.5186 9.5392,4.4729 9.4935,4.4729 9.4935,4.4273 9.4479,4.4273 9.4479,4.3817 9.4023,4.3817 9.4023,4.336 9.3566,4.336 9.3566,4.2903 9.2197,4.2903 9.2197,4.1991 9.0828,4.1991 9.0828,4.1534 8.5351,4.1534 "/>
   <polygon id="_413330720" class="fil1" points="4.1535,1.5062 3.8796,1.5062 3.8796,1.5518 3.834,1.5518 3.834,1.5975 3.6514,1.5975 3.6514,1.6431 3.6058,1.6431 3.6058,1.6887 3.4232,1.6887 3.4232,1.7801 3.2862,1.7801 3.2862,1.8257 3.2406,1.8257 3.2406,1.8713 3.1493,1.8713 3.1493,1.917 3.1037,1.917 3.1037,1.9626 3.0581,1.9626 3.0581,2.0082 3.0124,2.0082 3.0124,2.0995 3.1493,2.0995 3.1493,2.0539 3.2406,2.0539 3.2406,2.0082 3.3319,2.0082 3.3319,1.9626 3.4232,1.9626 3.4232,1.917 3.5601,1.917 3.5601,1.8713 3.6058,1.8713 3.6058,1.8257 3.6514,1.8257 3.6514,1.7801 3.8796,1.7801 3.8796,1.7344 4.0621,1.7344 4.0621,1.6887 4.1535,1.6887 4.1535,1.6431 4.8381,1.6431 4.8381,1.6887 5.0663,1.6887 5.0663,1.7344 5.4314,1.7344 5.4314,1.6887 5.3858,1.6887 5.3858,1.6431 5.3401,1.6431 5.3401,1.5975 5.1576,1.5975 5.1576,1.5518 5.0206,1.5518 5.0206,1.5062 4.8837,1.5062 4.8837,1.4605 4.1535,1.4605 "/>
   <polygon id="_413330600" class="fil1" points="2.419,4.838 2.3278,4.838 2.3278,4.8837 2.1452,4.8837 2.1452,4.9294 1.9626,4.9294 1.9626,4.975 1.7801,4.975 1.7801,5.0206 1.6888,5.0206 1.6888,5.0663 1.6431,5.0663 1.6431,5.1119 1.5519,5.1119 1.5519,5.1576 1.5062,5.1576 1.5062,5.2032 1.4149,5.2032 1.4149,5.2488 1.3693,5.2488 1.3693,5.2945 1.3236,5.2945 1.3236,5.3401 1.2323,5.3401 1.2323,5.3858 1.1867,5.3858 1.1867,5.477 1.1411,5.477 1.1411,5.5683 1.2323,5.5683 1.2323,5.5227 1.3236,5.5227 1.3236,5.477 1.3693,5.477 1.3693,5.4314 1.4605,5.4314 1.4605,5.3858 1.5062,5.3858 1.5062,5.3401 1.6431,5.3401 1.6431,5.2945 1.6888,5.2945 1.6888,5.2488 1.7801,5.2488 1.7801,5.2032 1.917,5.2032 1.917,5.1576 2.0082,5.1576 2.0082,5.1119 2.0539,5.1119 2.0539,5.0663 2.1908,5.0663 2.1908,5.0206 2.5103,5.0206 2.5103,4.975 3.4688,4.975 3.4688,4.8837 3.4232,4.8837 3.4232,4.838 3.2862,4.838 3.2862,4.7924 2.419,4.7924 "/>
   <polygon id="_413331248" class="fil1" points="8.4438,2.4647 8.1699,2.4647 8.1699,2.5103 8.0787,2.5103 8.0787,2.556 7.9874,2.556 7.9874,2.6016 7.7592,2.6016 7.7592,2.6472 7.6679,2.6472 7.6679,2.6929 7.5766,2.6929 7.5766,2.7841 7.4853,2.7841 7.4853,2.8298 7.394,2.8298 7.394,2.8755 7.3484,2.8755 7.3484,2.9211 7.2571,2.9211 7.2571,2.9667 7.2115,2.9667 7.2115,3.0124 7.1658,3.0124 7.1658,3.058 7.1202,3.058 7.1202,3.1037 7.0745,3.1037 7.0745,3.1493 7.0289,3.1493 7.0289,3.1949 6.9833,3.1949 6.9833,3.2406 6.9376,3.2406 6.9376,3.2862 6.8919,3.2862 6.8919,3.3775 6.8463,3.3775 6.8463,3.4232 6.8007,3.4232 6.8007,3.5601 6.8919,3.5601 6.8919,3.5144 6.9376,3.5144 6.9376,3.4688 6.9833,3.4688 6.9833,3.4232 7.0289,3.4232 7.0289,3.3775 7.0745,3.3775 7.0745,3.3319 7.1202,3.3319 7.1202,3.2862 7.1658,3.2862 7.1658,3.2406 7.2115,3.2406 7.2115,3.1949 7.2571,3.1949 7.2571,3.1493 7.3027,3.1493 7.3027,3.1037 7.394,3.1037 7.394,3.058 7.4397,3.058 7.4397,3.0124 7.4853,3.0124 7.4853,2.9667 7.5766,2.9667 7.5766,2.9211 7.6222,2.9211 7.6222,2.8755 7.7592,2.8755 7.7592,2.8298 7.8504,2.8298 7.8504,2.7841 7.8961,2.7841 7.8961,2.7385 8.1243,2.7385 8.1243,2.6929 8.3069,2.6929 8.3069,2.6472 8.3525,2.6472 8.3525,2.6016 8.5807,2.6016 8.5807,2.556 8.9915,2.556 8.9915,2.4647 8.9458,2.4647 8.9458,2.419 8.4438,2.419 "/>
   <polygon id="_413331896" class="fil1" points="13.1906,3.834 12.9624,3.834 12.9624,3.8796 12.8711,3.8796 12.8711,3.9252 12.7798,3.9252 12.7798,3.9709 12.7341,3.9709 12.7341,4.0165 12.5972,4.0165 12.5972,4.0621 12.5516,4.0621 12.5516,4.1078 12.5059,4.1078 12.5059,4.1534 12.4603,4.1534 12.4603,4.1991 12.369,4.1991 12.369,4.2447 12.3233,4.2447 12.3233,4.2903 12.2777,4.2903 12.2777,4.336 12.2321,4.336 12.2321,4.3817 12.1864,4.3817 12.1864,4.4273 12.1408,4.4273 12.1408,4.4729 12.0952,4.4729 12.0952,4.5186 12.0495,4.5186 12.0495,4.6099 12.0039,4.6099 12.0039,4.6555 11.9582,4.6555 11.9582,4.7011 11.9126,4.7011 11.9126,4.7924 11.867,4.7924 11.867,4.838 11.8213,4.838 11.8213,4.9294 11.7756,4.9294 11.7756,5.0206 11.73,5.0206 11.73,5.1119 11.6844,5.1119 11.6844,5.2488 11.6387,5.2488 11.6387,5.4314 11.73,5.4314 11.73,5.3858 11.7756,5.3858 11.7756,5.2945 11.8213,5.2945 11.8213,5.2032 11.867,5.2032 11.867,5.1119 11.9126,5.1119 11.9126,5.0663 11.9582,5.0663 11.9582,4.975 12.0039,4.975 12.0039,4.8837 12.0495,4.8837 12.0495,4.838 12.0952,4.838 12.0952,4.7468 12.1408,4.7468 12.1408,4.7011 12.1864,4.7011 12.1864,4.6555 12.2321,4.6555 12.2321,4.6099 12.2777,4.6099 12.2777,4.5186 12.3233,4.5186 12.3233,4.4729 12.369,4.4729 12.369,4.4273 12.4147,4.4273 12.4147,4.3817 12.5059,4.3817 12.5059,4.336 12.5516,4.336 12.5516,4.2903 12.5972,4.2903 12.5972,4.2447 12.6885,4.2447 12.6885,4.1991 12.7341,4.1991 12.7341,4.1534 12.7798,4.1534 12.7798,4.1078 12.8711,4.1078 12.8711,4.0621 12.9624,4.0621 12.9624,4.0165 13.0536,4.0165 13.0536,3.9709 13.2362,3.9709 13.2362,3.9252 13.3275,3.9252 13.3275,3.8796 13.3732,3.8796 13.3732,3.834 13.4644,3.834 13.4644,3.7883 13.1906,3.7883 "/>
   <polygon id="_413331560" class="fil3" points="6.0248,5.2488 7.8048,5.2488 7.8048,5.1119 6.0248,5.1119 "/>
   <polygon id="_413331632" class="fil3" points="0.0913,7.2115 0.1369,7.2115 0.1369,7.2571 0.7303,7.2571 0.7303,7.3027 0.9585,7.3027 0.9585,7.3484 1.1411,7.3484 1.1411,7.394 1.5519,7.394 1.5519,7.4397 1.8257,7.4397 1.8257,7.3027 1.278,7.3027 1.278,7.2571 1.0954,7.2571 1.0954,7.2115 0.6846,7.2115 0.6846,7.1658 0.5021,7.1658 0.5021,7.1201 0.0913,7.1201 "/>
   <polygon id="_413331968" class="fil4" points="3.3775,4.3817 3.1037,4.3817 3.1037,4.4273 2.8298,4.4273 2.8298,4.4729 2.4647,4.4729 2.4647,4.5186 2.2365,4.5186 2.2365,4.5642 1.8713,4.5642 1.8713,4.7011 2.0539,4.7011 2.0539,4.6555 2.2365,4.6555 2.2365,4.6099 2.419,4.6099 2.419,4.5642 3.0124,4.5642 3.0124,4.5186 3.2406,4.5186 3.2406,4.4729 3.6058,4.4729 3.6058,4.336 3.3775,4.336 "/>
   <polygon id="_413331752" class="fil3" points="15.0619,6.5268 15.2445,6.5268 15.2445,6.5724 15.6096,6.5724 15.6096,6.6181 15.9291,6.6181 15.9291,6.6638 16.2942,6.6638 16.2942,6.7094 16.7963,6.7094 16.7963,6.6181 16.5225,6.6181 16.5225,6.5724 15.9748,6.5724 15.9748,6.5268 15.6552,6.5268 15.6552,6.4812 15.2901,6.4812 15.2901,6.4355 15.0619,6.4355 "/>
   <polygon id="_413332304" class="fil3" points="11.2736,5.9791 11.3193,5.9791 11.3193,6.0247 11.6844,6.0247 11.6844,6.0704 12.0039,6.0704 12.0039,6.116 12.369,6.116 12.369,6.1617 12.4603,6.1617 12.4603,6.2073 13.008,6.2073 13.008,6.116 12.5972,6.116 12.5972,6.0704 12.2321,6.0704 12.2321,6.0247 11.9126,6.0247 11.9126,5.9791 11.73,5.9791 11.73,5.9335 11.2736,5.9335 "/>
   <polygon id="_413332640" class="fil5" points="9.8587,5.2032 11.3649,5.2032 11.3649,5.1119 9.8587,5.1119 "/>
   <polygon id="_413332736" class="fil3" points="3.8796,7.7592 4.1991,7.7592 4.1991,7.8048 4.5642,7.8048 4.5642,7.6678 4.1991,7.6678 4.1991,7.6222 3.8796,7.6222 "/>
   <polygon id="_413332592" class="fil3" points="5.7509,4.0165 5.6597,4.0165 5.6597,4.1078 5.7965,4.1078 5.7965,4.0621 6.116,4.0621 6.116,3.9709 5.7509,3.9709 "/>
  </g>
 </g>
</svg>
