<?xml version="1.0" encoding="UTF-8"?>
<!DOCTYPE svg PUBLIC "-//W3C//DTD SVG 1.1//EN" "http://www.w3.org/Graphics/SVG/1.1/DTD/svg11.dtd">
<!-- Creator: CorelDRAW -->
<svg xmlns="http://www.w3.org/2000/svg" xml:space="preserve" width="16.9332mm" height="16.9332mm" style="shape-rendering:geometricPrecision; text-rendering:geometricPrecision; image-rendering:optimizeQuality; fill-rule:evenodd; clip-rule:evenodd"
viewBox="0 0 16.9332 16.9332"
 xmlns:xlink="http://www.w3.org/1999/xlink">
 <defs>
  <style type="text/css">
   <![CDATA[
    .fil1 {fill:#010101}
    .fil0 {fill:#F3F3F5}
   ]]>
  </style>
 </defs>
 <g id="Capa_x0020_1">
  <metadata id="CorelCorpID_0Corel-Layer"/>
  <g id="_374912344">
   <path id="_409029624" class="fil0" d="M9.0907 4.4721c0.0782,0.3308 0.235,0.7211 0.3522,1.0584 0.1247,0.3588 0.2364,0.6939 0.3638,1.0615 0.2503,0.7217 0.5388,1.4312 0.5929,2.267 0.1161,1.794 -0.729,3.2409 -1.6387,4.036 -0.4759,0.416 -1.0921,0.8124 -1.6407,1.2128 -1.4989,1.0937 -1.1084,0.828 -1.9032,0.6031 -0.3819,-0.1082 -0.8197,0.2037 -0.8857,0.4985 -0.0997,0.4451 0.2378,0.7818 0.6655,0.7389 0.1805,-0.0181 1.9564,-0.4467 2.2873,-0.5256 1.1662,-0.2783 2.6716,-0.8958 3.2577,-1.0198 0.5859,-0.1239 0.7687,0.0661 1.2428,0.1166 0.8798,0.0939 1.5614,-0.4496 1.7953,-1.0448 0.3809,-0.9692 -0.2837,-1.4556 -0.5703,-2.0406 -0.3719,-0.7589 -0.3841,-1.4498 -0.4998,-2.3612l-0.4697 -3.8136c-0.1131,-0.9697 -0.0238,-1.0283 -0.3749,-1.029 -0.9434,-0.0017 -1.673,0.093 -2.5745,0.2418z"/>
   <path id="_374637528" class="fil1" d="M5.1709 14.3801c1.4174,-0.9501 1.0351,-0.9988 1.8986,-0.6055 -0.2168,0.2032 -0.5834,0.4374 -0.8476,0.6236 -0.152,0.1071 -0.2764,0.2534 -0.5361,0.2052 -0.0481,-0.009 -0.4749,-0.195 -0.5149,-0.2233zm-2.0309 -0.7587l2.9292 -0.2339c-0.1743,0.1601 -1.8059,1.3238 -2.0657,1.4874 -0.3245,0.2041 -2.6256,1.5512 -2.8574,1.5768 -0.8975,0.0988 -0.8279,-1.2937 0.052,-1.3023 0.6176,-0.0062 0.5457,0.2632 1.1717,-0.5201 0.1342,-0.168 0.2507,-0.3222 0.3792,-0.493 0.1364,-0.1812 0.2784,-0.3362 0.391,-0.5149zm6.3702 -2.1218c-0.5462,-0.833 0.0244,-3.1441 0.2124,-4.2241 0.276,0.4662 0.4381,1.56 0.3938,2.2201 -0.0483,0.7192 -0.2871,1.5118 -0.6062,2.004zm2.9749 -5.0356c0.0621,0.0761 0.0938,0.164 0.1242,0.258 0.509,1.5757 1.1059,2.5836 0.7458,4.2686 -0.0345,0.1614 -0.0344,0.171 -0.114,0.2965 -0.3683,-0.929 -0.336,-1.274 -0.4645,-2.3102 -0.0903,-0.7278 -0.2884,-1.8059 -0.2915,-2.5129zm-4.8175 -1.7915l1.1006 -0.1451c0.1475,0.217 0.4546,1.255 0.5658,1.5861 0.1169,0.3482 0.215,0.4333 0.1433,0.8375 -0.053,0.299 -0.1065,0.6181 -0.1557,0.9216 -0.2122,1.3072 -0.5831,2.414 -0.1021,3.709 0.0964,0.2597 0.0647,0.3686 -0.2513,0.6892 -0.5529,0.5609 -0.5025,0.517 -1.1543,0.9851 -0.2573,0.1847 -0.3513,0.3396 -0.7501,0.2016 -0.2603,-0.0901 -0.4363,-0.23 -0.7614,-0.3086 -0.8695,-0.2103 -2.2555,0.1874 -3.0429,0.189 -0.723,0.0015 -1.5734,-0.0358 -2.3004,-0.0761 -0.8127,-0.0452 -0.6443,-1.1371 0.3696,-0.8847 0.8635,0.2151 1.1883,-0.0486 1.9574,-0.2802 0.6273,-0.1889 1.2338,-0.3714 1.7884,-0.6286 1.6834,-0.7805 2.7416,-2.613 2.6923,-4.5105 -0.0137,-0.5279 -0.168,-1.872 -0.0992,-2.2853zm-5.2516 0.1851l2.8414 -0.2124c0.0533,0.2147 1.5568,3.5902 1.6892,3.8946 0.1816,0.4176 0.2383,0.3748 -0.1184,0.958 -0.176,0.2879 -0.3966,0.5736 -0.5997,0.7859l-1.6891 1.0996c0.3708,-1.3543 0.3652,-2.5778 -0.2583,-3.7838 -0.3308,-0.64 -1.152,-1.7101 -1.6229,-2.3795 -0.0505,-0.0718 -0.0748,-0.1015 -0.1167,-0.1594 -0.0508,-0.0702 -0.0784,-0.1444 -0.1255,-0.203zm4.9565 -0.1509l-0.1102 3.7782 -0.0796 -0.1001c-0.005,-0.0083 -0.01,-0.0183 -0.0146,-0.0268l-0.1528 -0.3623c-0.2227,-0.4962 -1.363,-3.0538 -1.4315,-3.3199l1.7887 0.0309zm4.8285 -0.4454c0.4111,0.0173 0.8136,0.1004 1.23,0.1398l1.3128 0.0344c0.2819,1.2249 0.5303,6.0985 0.9042,7.1331 0.1271,0.3518 0.2775,0.6218 0.4587,0.8905 0.2091,0.3101 0.3756,0.4911 0.3624,0.9992 -0.0215,0.8291 -0.6065,1.1781 -1.2927,1.4148 -0.4739,0.1634 -0.7636,-0.0006 -1.2154,-0.0154 -1.0056,-0.033 -2.1423,0.7771 -3.0202,1.0077 -0.7201,0.1891 -1.4311,0.3605 -2.1562,0.5435 -0.3547,0.0895 -0.7695,0.0026 -0.7183,-0.4431 0.0469,-0.4079 0.4206,-0.4718 0.8613,-0.4907 1.022,-0.044 1.2937,-0.782 1.8609,-0.8266 0.6487,-0.0508 1.1401,0.4742 2.2424,-0.139 0.5013,-0.2789 0.9905,-0.9184 0.9137,-1.7618 -0.0353,-0.3879 -0.1963,-0.7052 -0.3858,-0.9531 -0.1995,-0.2609 -0.0009,-0.2757 0.1142,-0.9969 0.1395,-0.8748 0.0525,-1.6189 -0.2031,-2.4008 -0.3358,-1.0271 -1.2007,-3.1942 -1.2689,-4.1356zm-3.1103 0.2108c0.9015,-0.1488 1.6311,-0.2435 2.5745,-0.2418 0.3511,0.0007 0.2618,0.0593 0.3749,1.029l0.4697 3.8136c0.1157,0.9114 0.1279,1.6023 0.4998,2.3612 0.2866,0.585 0.9512,1.0714 0.5703,2.0406 -0.2339,0.5952 -0.9155,1.1387 -1.7953,1.0448 -0.4741,-0.0505 -0.6569,-0.2405 -1.2428,-0.1166 -0.5861,0.124 -2.0915,0.7415 -3.2577,1.0198 -0.3309,0.0789 -2.1068,0.5075 -2.2873,0.5256 -0.4277,0.0429 -0.7652,-0.2938 -0.6655,-0.7389 0.066,-0.2948 0.5038,-0.6067 0.8857,-0.4985 0.7948,0.2249 0.4043,0.4906 1.9032,-0.6031 0.5486,-0.4004 1.1648,-0.7968 1.6407,-1.2128 0.9097,-0.7951 1.7548,-2.242 1.6387,-4.036 -0.0541,-0.8358 -0.3426,-1.5453 -0.5929,-2.267 -0.1274,-0.3676 -0.2391,-0.7027 -0.3638,-1.0615 -0.1172,-0.3373 -0.274,-0.7276 -0.3522,-1.0584zm5.957 -0.0547c0.5567,-0.0358 1.3902,-0.1503 1.8735,-0.3168l-0.0531 -0.2528c-0.8865,0.1656 -1.5045,0.3157 -2.4326,0.3157 -0.8528,0 -2.0882,-0.2175 -2.812,-0.2361 -0.7618,-0.0195 -3.7632,0.4566 -4.7576,0.5134 -0.536,0.0306 -1.5751,-0.0999 -2.1395,-0.1153 -0.5558,-0.0153 -2.2752,0.2248 -2.7803,0.3264 -0.3221,0.0846 -1.7528,0.4844 -1.9394,0.602l0.0509 0.2324 2.0626 -0.5633 0.7479 1.078c1.3097,1.8867 1.9873,2.6344 1.4622,5.082 -0.165,0.5926 -0.175,0.4445 -0.7529,0.6321 -0.3578,0.1162 -0.6909,0.2194 -1.0545,0.3322 -0.5646,0.1751 -0.5241,0.2005 -1.1252,0.061 -0.4137,-0.0961 -0.7752,-0.0588 -1.0298,0.2017 -0.2519,0.2577 -0.2675,0.7125 -0.0061,0.9934 0.2808,0.3016 0.6363,0.243 1.1133,0.2589 0.4345,0.0144 0.8883,0.017 1.3078,0.05l-0.3027 0.4143c-0.6316,0.8532 -0.5886,0.9129 -1.1625,0.8501 -0.8052,-0.088 -1.418,0.8203 -0.9453,1.5072 0.1642,0.2386 0.5795,0.4579 1.003,0.3026 0.4035,-0.148 2.3635,-1.4147 2.6645,-1.4806l0.4859 0.949c0.3086,0.2964 2.6946,-0.5119 3.3969,-0.5815l0.1789 1.0474c0.3578,0.236 0.8311,0.0364 1.2318,-0.0634 0.8749,-0.2178 1.5537,-0.35 2.3644,-0.6857 0.6254,-0.2589 1.5821,-0.784 2.3427,-0.7272 0.5867,0.0438 0.7247,0.1809 1.3245,-0.0444 0.3885,-0.1458 0.7414,-0.3125 0.9519,-0.5534 0.6017,-0.688 0.5698,-1.4914 0.0258,-2.2444 -0.506,-0.7003 -0.5839,-1.3748 -0.6883,-2.3713 -0.1899,-1.8128 -0.4609,-3.6781 -0.6067,-5.5136z"/>
   <path id="_374638608" class="fil0" d="M16.1067 12.4591c-0.1812,-0.2687 -0.3316,-0.5387 -0.4587,-0.8905 -0.3739,-1.0346 -0.6223,-5.9082 -0.9042,-7.1331l-1.3128 -0.0344c-0.4164,-0.0394 -0.8189,-0.1225 -1.23,-0.1398 0.0682,0.9414 0.9331,3.1085 1.2689,4.1356 0.2556,0.7819 0.3426,1.526 0.2031,2.4008 -0.1151,0.7212 -0.3137,0.736 -0.1142,0.9969 0.1895,0.2479 0.3505,0.5652 0.3858,0.9531 0.0768,0.8434 -0.4124,1.4829 -0.9137,1.7618 -1.1023,0.6132 -1.5937,0.0882 -2.2424,0.139 -0.5672,0.0446 -0.8389,0.7826 -1.8609,0.8266 -0.4407,0.0189 -0.8144,0.0828 -0.8613,0.4907 -0.0512,0.4457 0.3636,0.5326 0.7183,0.4431 0.7251,-0.183 1.4361,-0.3544 2.1562,-0.5435 0.8779,-0.2306 2.0146,-1.0407 3.0202,-1.0077 0.4518,0.0148 0.7415,0.1788 1.2154,0.0154 0.6862,-0.2367 1.2712,-0.5857 1.2927,-1.4148 0.0132,-0.5081 -0.1533,-0.6891 -0.3624,-0.9992z"/>
   <path id="_419879320" class="fil0" d="M0.9591 13.2618c0.727,0.0403 1.5774,0.0776 2.3004,0.0761 0.7874,-0.0016 2.1734,-0.3993 3.0429,-0.189 0.3251,0.0786 0.5011,0.2185 0.7614,0.3086 0.3988,0.138 0.4928,-0.0169 0.7501,-0.2016 0.6518,-0.4681 0.6014,-0.4242 1.1543,-0.9851 0.316,-0.3206 0.3477,-0.4295 0.2513,-0.6892 -0.481,-1.295 -0.1101,-2.4018 0.1021,-3.709 0.0492,-0.3035 0.1027,-0.6226 0.1557,-0.9216 0.0717,-0.4042 -0.0264,-0.4893 -0.1433,-0.8375 -0.1112,-0.3311 -0.4183,-1.3691 -0.5658,-1.5861l-1.1006 0.1451c-0.0688,0.4133 0.0855,1.7574 0.0992,2.2853 0.0493,1.8975 -1.0089,3.73 -2.6923,4.5105 -0.5546,0.2572 -1.1611,0.4397 -1.7884,0.6286 -0.7691,0.2316 -1.0939,0.4953 -1.9574,0.2802 -1.0139,-0.2524 -1.1823,0.8395 -0.3696,0.8847z"/>
   <path id="_419879272" class="fil0" d="M2.416 4.8576c0.0471,0.0586 0.0747,0.1328 0.1255,0.203 0.0419,0.0579 0.0662,0.0876 0.1167,0.1594 0.4709,0.6694 1.2921,1.7395 1.6229,2.3795 0.6235,1.206 0.6291,2.4295 0.2583,3.7838l1.6891 -1.0996c0.2031,-0.2123 0.4237,-0.498 0.5997,-0.7859 0.3567,-0.5832 0.3,-0.5404 0.1184,-0.958 -0.1324,-0.3044 -1.6359,-3.6799 -1.6892,-3.8946l-2.8414 0.2124z"/>
   <path id="_419879224" class="fil0" d="M3.14 13.6214c-0.1126,0.1787 -0.2546,0.3337 -0.391,0.5149 -0.1285,0.1708 -0.245,0.325 -0.3792,0.493 -0.626,0.7833 -0.5541,0.5139 -1.1717,0.5201 -0.8799,0.0086 -0.9495,1.4011 -0.052,1.3023 0.2318,-0.0256 2.5329,-1.3727 2.8574,-1.5768 0.2598,-0.1636 1.8914,-1.3273 2.0657,-1.4874l-2.9292 0.2339z"/>
   <path id="_419879920" class="fil1" d="M0.0024 1.6078l0.0867 0.2394c0.7652,-0.1079 1.8697,-0.7556 3.8045,-0.87 1.7112,-0.1012 2.3301,0.2978 4.514,-0.0485 1.544,-0.2449 2.6136,-0.4379 4.2387,-0.2652l4.2869 -0.2093 -0.0803 -0.2595c-0.6841,0.0886 -1.2404,0.2706 -2.021,0.3086 -0.7857,0.0383 -1.4562,-0.0414 -2.215,-0.1282 -2.6703,-0.3057 -4.2953,0.549 -6.5058,0.4027 -1.6249,-0.1075 -2.6484,-0.1954 -4.2949,0.2593 -0.3404,0.0941 -1.6169,0.4373 -1.8138,0.5707z"/>
   <path id="_419880136" class="fil1" d="M-0 3.5402l0.0684 0.2672c0.5463,-0.0248 1.882,-0.7513 3.8249,-0.8594 1.6214,-0.0903 2.3637,0.267 4.4307,-0.0443 1.5699,-0.2364 2.6377,-0.4608 4.3077,-0.2794l4.2985 -0.201 -0.0773 -0.256c-0.297,0.0254 -0.6377,0.1386 -0.9597,0.1861 -1.3696,0.2023 -1.9315,0.1264 -3.2944,-0.0144 -2.7164,-0.2806 -4.2538,0.5584 -6.5081,0.3986 -1.6359,-0.116 -2.6232,-0.1821 -4.2514,0.2654 -0.5962,0.1638 -1.2687,0.4166 -1.8393,0.5372z"/>
  </g>
 </g>
</svg>
