<?xml version="1.0" encoding="UTF-8"?>
<!DOCTYPE svg PUBLIC "-//W3C//DTD SVG 1.1//EN" "http://www.w3.org/Graphics/SVG/1.1/DTD/svg11.dtd">
<!-- Creator: CorelDRAW -->
<svg xmlns="http://www.w3.org/2000/svg" xml:space="preserve" width="16.9332mm" height="16.9332mm" style="shape-rendering:geometricPrecision; text-rendering:geometricPrecision; image-rendering:optimizeQuality; fill-rule:evenodd; clip-rule:evenodd"
viewBox="0 0 16.9332 16.9332"
 xmlns:xlink="http://www.w3.org/1999/xlink">
 <defs>
  <style type="text/css">
   <![CDATA[
    .fil0 {fill:#030303}
    .fil3 {fill:#414143}
    .fil1 {fill:#676769}
    .fil4 {fill:#919192}
    .fil2 {fill:#B4B4B6}
   ]]>
  </style>
 </defs>
 <g id="Capa_x0020_1">
  <metadata id="CorelCorpID_0Corel-Layer"/>
  <g id="_376497504">
   <path id="_374637984" class="fil0" d="M6.1355 10.4678l0.044 0 0 -0.088 0.044 0 0 -0.0879 0.044 0 0 -0.044 0.1759 0 0 0.044 0.088 0 0 0.044 0.088 0 0 0.0439 0.0879 0 0 0.044 0.088 0 0 0.044 0.088 0 0 0.044 0.0439 0 0 0.044 0.044 0 0 0.044 0.044 0 0 0.2639 -0.044 0 0 0.0879 -0.044 0 0 0.044 -0.0439 0 0 0.088 -0.044 0 0 0.044 -0.132 0 0 -0.044 -0.044 0 0 -0.044 -0.0879 0 0 -0.044 -0.044 0 0 -0.044 -0.088 0 0 -0.044 -0.044 0 0 -0.0439 -0.0879 0 0 -0.044 -0.044 0 0 -0.044 -0.044 0 0 -0.044 -0.044 0 0 -0.044 -0.044 0 0 -0.2199zm0.3519 -1.0995l0.044 0 0 -0.044 0.044 0 0 -0.044 0.044 0 0 -0.044 0.2639 0 0 0.044 0.1319 0 0 0.044 0.1759 0 0 0.044 0.088 0 0 0.044 0.132 0 0 0.0439 0.0439 0 0 0.044 0.132 0 0 0.044 0.088 0 0 0.044 0.0439 0 0 0.3519 -0.0439 0 0 0.0879 -0.044 0 0 0.0879 -0.044 0 0 0.044 -0.044 0 0 0.044 -0.044 0 0 0.044 -0.044 0 0 0.044 -0.2199 0 0 -0.044 -0.044 0 0 -0.044 -0.0879 0 0 -0.044 -0.044 0 0 -0.044 -0.044 0 0 -0.0439 -0.044 0 0 -0.044 -0.0879 0 0 -0.044 -0.044 0 0 -0.0439 -0.044 0 0 -0.044 -0.044 0 0 -0.044 -0.044 0 0 -0.044 -0.044 0 0 -0.044 -0.0439 0 0 -0.044 -0.044 0 0 -0.0439 -0.044 0 0 -0.044 -0.044 0 0 -0.2639zm-3.3427 -0.2199l0.044 0 0 -0.132 0.044 0 0 -0.1319 0.044 0 0 -0.088 0.044 0 0 -0.044 0.0439 0 0 -0.088 0.044 0 0 -0.0439 0.044 0 0 -0.044 0.044 0 0 -0.044 0.1319 0 0 0.044 0.044 0 0 0.044 0.088 0 0 0.0439 0.088 0 0 0.044 0.0879 0 0 0.044 0.088 0 0 0.044 0.088 0 0 0.044 0.0439 0 0 0.044 0.088 0 0 0.0439 0.088 0 0 0.044 0.0879 0 0 0.044 0.088 0 0 0.044 0.088 0 0 0.044 0.0879 0 0 0.044 0.088 0 0 0.0439 0.0879 0 0 0.044 0.044 0 0 0.044 0.132 0 0 0.044 0.0879 0 0 0.044 0.088 0 0 0.044 0.088 0 0 0.0439 0.0879 0 0 0.044 0.088 0 0 0.044 0.088 0 0 0.044 0.0879 0 0 0.044 0.044 0 0 0.044 0.088 0 0 0.0439 0.044 0 0 0.044 0.0879 0 0 0.044 0.088 0 0 0.044 0.044 0 0 0.044 0.044 0 0 0.044 0.0879 0 0 0.0439 0.044 0 0 0.044 0.088 0 0 0.0879 -0.044 0 0 0.044 -0.088 0 0 0.044 -0.044 0 0 0.044 -0.0439 0 0 0.088 -0.044 0 0 0.1319 -0.044 0 0 0.2199 0.044 0 0 0.088 0.044 0 0 0.044 0.0439 0 0 0.044 0.044 0 0 0.0439 0.044 0 0 0.044 0.088 0 0 0.044 0.044 0 0 0.044 0.0439 0 0 0.044 0.088 0 0 0.044 0.044 0 0 0.0439 0.088 0 0 0.044 0.0439 0 0 0.088 -0.1759 0 0 -0.044 -0.1319 0 0 -0.044 -0.088 0 0 -0.044 -0.1759 0 0 -0.0439 -0.176 0 0 -0.044 -0.1319 0 0 -0.044 -0.088 0 0 -0.044 -0.2199 0 0 -0.044 -0.132 0 0 -0.044 -0.3078 0 0 -0.0439 -0.088 0 0 -0.044 -0.2639 0 0 -0.044 -0.1759 0 0 -0.044 -0.088 0 0 -0.044 -0.1319 0 0 -0.044 -0.1759 0 0 -0.0439 -0.088 0 0 -0.044 -0.1759 0 0 -0.044 -0.044 0 0 -0.044 -0.088 0 0 -0.044 -0.044 0 0 -0.044 -0.044 0 0 -0.0439 -0.0439 0 0 -0.044 -0.044 0 0 -0.088 -0.044 0 0 -0.044 -0.044 0 0 -0.044 -0.044 0 0 -0.0879 -0.044 0 0 -0.0879 -0.0439 0 0 -0.088 -0.044 0 0 -0.088 -0.044 0 0 -0.0879 -0.044 0 0 -0.176 -0.044 0 0 -0.3518zm4.3543 0.1759l0.088 0 0 0.044 0.1319 0 0 0.0879 -0.0879 0 0 -0.0439 -0.088 0 0 -0.044 -0.044 0 0 -0.044zm0.9237 -0.5718l-0.044 0 0 0.044 -0.044 0 0 0.088 -0.044 0 0 0.0439 -0.044 0 0 0.044 -0.0879 0 0 0.044 -0.044 0 0 0.044 -0.044 0 0 0.044 -0.044 0 0 0.044 -0.3518 0 0 -0.044 -0.088 0 0 -0.044 -0.088 0 0 -0.044 -0.044 0 0 -0.044 -0.0879 0 0 -0.044 -0.044 0 0 -0.0439 -0.044 0 0 -0.088 -0.044 0 0 -0.4838 0.044 0 0 -0.044 0.044 0 0 -0.088 0.044 0 0 -0.044 0.044 0 0 -0.0439 0.0439 0 0 -0.044 0.044 0 0 -0.044 0.044 0 0 -0.044 0.044 0 0 -0.044 0.3079 0 0 0.044 0.044 0 0 0.044 0.0879 0 0 0.044 0.044 0 0 0.044 0.044 0 0 0.0439 0.044 0 0 0.044 0.0879 0 0 0.044 0.044 0 0 0.044 0.088 0 0 0.044 0.044 0 0 0.044 0.0439 0 0 0.3078 -0.0439 0 0 0.088zm-1.2755 0.4398l-0.132 0 0 -0.0439 -0.1319 0 0 -0.044 -0.2639 0 0 0.044 -0.088 0 0 0.0439 -0.044 0 0 0.044 -0.044 0 0 0.088 -0.044 0 0 0.088 -0.0439 0 0 0.2639 0.0439 0 0 0.0439 0.044 0 0 0.044 0.044 0 0 0.044 0.044 0 0 0.044 0.044 0 0 0.044 0.044 0 0 0.044 0.0439 0 0 0.0439 0.044 0 0 0.044 -0.0879 0 0 -0.044 -0.044 0 0 -0.0439 -0.044 0 0 -0.044 -0.088 0 0 -0.044 -0.044 0 0 -0.044 -0.0439 0 0 -0.044 -0.044 0 0 -0.044 -0.088 0 0 -0.0439 -0.044 0 0 -0.044 -0.0879 0 0 -0.044 -0.044 0 0 -0.044 -0.088 0 0 -0.044 -0.044 0 0 -0.044 -0.0879 0 0 -0.0439 -0.088 0 0 -0.044 -0.044 0 0 -0.044 -0.088 0 0 -0.044 -0.0879 0 0 -0.044 -0.088 0 0 -0.044 -0.088 0 0 -0.0439 -0.0879 0 0 -0.044 -0.088 0 0 -0.044 -0.1319 0 0 -0.044 -0.088 0 0 -0.044 -0.088 0 0 -0.044 -0.044 0 0 -0.0439 -0.0879 0 0 -0.044 -0.0879 0 0 -0.044 -0.088 0 0 -0.044 -0.088 0 0 -0.044 -0.0879 0 0 -0.044 -0.088 0 0 -0.0439 -0.088 0 0 -0.044 -0.0879 0 0 -0.044 -0.044 0 0 -0.044 -0.088 0 0 -0.044 -0.088 0 0 -0.044 -0.0879 0 0 -0.0439 -0.088 0 0 -0.044 -0.044 0 0 -0.044 -0.044 0 0 -0.044 -0.0439 0 0 -0.044 -0.044 0 0 -0.0879 -0.044 0 0 -0.2639 -0.044 0 0 -0.4399 0.044 0 0 -0.1319 0.044 0 0 -0.088 0.044 0 0 -0.088 0.0439 0 0 -0.0439 0.044 0 0 -0.044 0.044 0 0 -0.044 0.044 0 0 -0.0439 0.088 0 0 -0.044 0.0439 0 0 -0.044 0.044 0 0 -0.044 0.176 0 0 -0.044 0.0879 0 0 0.044 0.044 0 0 0.088 0.044 0 0 0.044 0.044 0 0 0.0879 0.044 0 0 0.0879 0.0439 0 0 0.044 0.044 0 0 0.088 0.044 0 0 0.044 0.044 0 0 0.0879 0.044 0 0 0.044 0.044 0 0 0.044 0.0439 0 0 0.088 0.044 0 0 0.044 0.044 0 0 0.0439 0.0439 0 0 0.044 0.044 0 0 0.088 0.044 0 0 0.044 0.044 0 0 0.044 0.044 0 0 0.0439 0.044 0 0 0.044 0.0439 0 0 0.044 0.044 0 0 0.044 0.088 0 0 0.044 0.044 0 0 0.044 0.0879 0 0 0.0439 0.044 0 0 0.044 0.088 0 0 0.044 0.044 0 0 0.044 0.0879 0 0 0.044 0.088 0 0 0.044 0.044 0 0 0.0439 0.088 0 0 0.044 0.0879 0 0 0.044 0.044 0 0 0.044 0.088 0 0 0.044 0.0879 0 0 0.044 0.044 0 0 0.0439 0.088 0 0 0.044 0.088 0 0 0.044 0.0879 0 0 0.044 0.044 0 0 0.044 0.088 0 0 0.044 0.0879 0 0 0.0439 0.088 0 0 0.044 0.088 0 0 0.044 0.0879 0 0 0.044 0.088 0 0 0.044 0.088 0 0 0.044 0.1319 0 0 0.0439 0.088 0 0 0.044 0.088 0 0 0.044 0.0439 0 0 0.044 -0.0879 0 0 -0.044 -0.088 0 0 -0.044 -0.1319 0 0 -0.044zm0.7477 -1.9352l0.044 0 0 -0.088 0.0439 0 0 -0.088 0.044 0 0 -0.0439 0.044 0 0 -0.044 0.088 0 0 -0.044 0.0879 0 0 -0.0439 0.088 0 0 -0.044 0.1759 0 0 0.044 0.044 0 0 0.0879 0.0439 0 0 0.044 0.044 0 0 0.0439 0.044 0 0 0.044 0.044 0 0 0.044 0.044 0 0 0.088 0.044 0 0 0.044 0.0439 0 0 0.0439 0.044 0 0 0.044 0.044 0 0 0.088 0.044 0 0 0.044 0.044 0 0 0.044 0.044 0 0 0.1759 -0.044 0 0 0.044 -0.044 0 0 0.1319 -0.044 0 0 0.044 -0.088 0 0 0.044 -0.0439 0 0 0.044 -0.176 0 0 -0.044 -0.044 0 0 -0.044 -0.0879 0 0 -0.044 -0.044 0 0 -0.044 -0.0879 0 0 -0.0439 -0.044 0 0 -0.044 -0.088 0 0 -0.044 -0.044 0 0 -0.044 -0.0439 0 0 -0.044 -0.088 0 0 -0.044 -0.044 0 0 -0.0439 -0.044 0 0 -0.044 -0.0879 0 0 -0.2639zm-0.7917 1.4954l0.044 0 0 0.088 -0.132 0 0 -0.044 -0.044 0 0 -0.044 -0.0879 0 0 -0.044 -0.088 0 0 -0.044 -0.088 0 0 -0.0439 -0.0879 0 0 -0.044 -0.088 0 0 -0.044 -0.088 0 0 -0.044 -0.044 0 0 -0.044 -0.0879 0 0 -0.044 -0.088 0 0 -0.0439 -0.088 0 0 -0.044 -0.0439 0 0 -0.044 -0.088 0 0 -0.044 -0.088 0 0 -0.044 -0.044 0 0 -0.044 -0.0879 0 0 -0.0439 -0.044 0 0 -0.044 -0.088 0 0 -0.044 -0.044 0 0 -0.044 -0.0879 0 0 -0.044 -0.044 0 0 -0.044 -0.088 0 0 -0.0439 -0.044 0 0 -0.044 -0.0879 0 0 -0.044 -0.044 0 0 -0.044 -0.044 0 0 -0.044 -0.044 0 0 -0.044 -0.044 0 0 -0.0879 -0.0439 0 0 -0.044 -0.044 0 0 -0.044 -0.044 0 0 -0.044 -0.044 0 0 -0.0879 -0.044 0 0 -0.044 -0.044 0 0 -0.044 -0.0439 0 0 -0.088 -0.044 0 0 -0.044 -0.044 0 0 -0.0879 -0.0439 0 0 -0.044 -0.044 0 0 -0.0879 -0.044 0 0 -0.044 -0.044 0 0 -0.088 -0.044 0 0 -0.0879 -0.044 0 0 -0.088 -0.0439 0 0 -0.044 -0.044 0 0 -0.2639 0.044 0 0 -0.2199 0.0439 0 0 -0.088 0.044 0 0 -0.0879 0.044 0 0 -0.088 0.044 0 0 -0.088 0.044 0 0 -0.044 0.044 0 0 -0.0879 0.0439 0 0 -0.044 0.044 0 0 -0.044 0.0879 0 0 -0.044 0.044 0 0 -0.044 0.044 0 0 -0.0439 0.088 0 0 -0.044 0.1319 0 0 -0.044 0.088 0 0 -0.044 0.3958 0 0 0.088 0.044 0 0 0.044 0.044 0 0 0.0879 0.044 0 0 0.176 0.044 0 0 0.0439 0.044 0 0 0.088 0.0439 0 0 0.088 0.044 0 0 0.0879 0.044 0 0 0.088 0.044 0 0 0.088 0.044 0 0 0.044 0.044 0 0 0.0879 0.0439 0 0 0.088 0.044 0 0 0.044 0.044 0 0 0.0879 0.044 0 0 0.044 0.044 0 0 0.044 0.044 0 0 0.088 0.0439 0 0 0.044 0.044 0 0 0.0439 0.044 0 0 0.088 0.044 0 0 0.044 0.044 0 0 0.044 0.044 0 0 0.044 0.0879 0 0 0.0439 0.044 0 0 0.044 0.044 0 0 0.044 0.088 0 0 0.0439 0.0439 0 0 0.044 0.044 0 0 0.044 0.088 0 0 0.044 0.044 0 0 0.044 0.044 0 0 0.044 0.0879 0 0 0.0439 0.044 0 0 0.044 0.088 0 0 0.044 0.044 0 0 0.044 0.0439 0 0 0.044 0.088 0 0 0.044 0.044 0 0 0.0439 0.088 0 0 0.044 0.0439 0 0 0.044 0.088 0 0 0.088 -0.1759 0 0 0.044 -0.132 0 0 0.0439 -0.044 0 0 0.044 -0.0879 0 0 0.044 -0.044 0 0 0.088 -0.044 0 0 0.044 -0.044 0 0 0.0439 -0.044 0 0 0.132 -0.0439 0 0 0.088 -0.044 0 0 0.3958zm6.6853 -7.6529l-0.044 0 0 0.0879 -0.0439 0 0 0.044 -0.044 0 0 0.044 -0.044 0 0 0.044 -0.044 0 0 0.0879 -0.044 0 0 0.044 -0.044 0 0 0.044 -0.0439 0 0 0.0879 -0.044 0 0 0.044 -0.044 0 0 0.088 -0.044 0 0 0.044 -0.044 0 0 0.0879 -0.044 0 0 0.044 -0.0439 0 0 0.088 -0.044 0 0 0.044 -0.176 0 0 -0.044 -0.0439 0 0 -0.044 -0.088 0 0 -0.044 -0.044 0 0 -0.044 -0.044 0 0 -0.044 -0.044 0 0 -0.0439 -0.0439 0 0 -0.044 -0.044 0 0 -0.088 -0.044 0 0 -0.088 -0.044 0 0 -0.2198 0.044 0 0 -0.044 0.044 0 0 -0.088 0.044 0 0 -0.044 0.0439 0 0 -0.0879 0.044 0 0 -0.044 0.044 0 0 -0.044 0.044 0 0 -0.088 0.044 0 0 -0.0439 0.044 0 0 -0.044 0.0439 0 0 -0.044 0.044 0 0 -0.044 0.044 0 0 -0.044 0.044 0 0 -0.044 0.044 0 0 -0.0439 0.044 0 0 -0.044 0.0439 0 0 -0.044 0.044 0 0 -0.044 0.044 0 0 -0.044 0.044 0 0 -0.044 0.1759 0 0 0.088 0.044 0 0 0.044 0.044 0 0 0.044 0.044 0 0 0.044 0.044 0 0 0.0879 0.0439 0 0 0.044 0.044 0 0 0.088 0.044 0 0 0.2639 -0.044 0 0 0.044zm-3.6945 4.3982l-0.044 0 0 -0.044 -0.044 0 0 -0.044 -0.044 0 0 -0.044 -0.044 0 0 -0.0439 -0.0439 0 0 -0.044 -0.044 0 0 -0.044 -0.088 0 0 -0.044 -0.044 0 0 -0.044 -0.044 0 0 -0.044 -0.0439 0 0 -0.0439 -0.044 0 0 -0.044 -0.088 0 0 -0.044 -0.044 0 0 -0.044 -0.044 0 0 -0.044 -0.0439 0 0 -0.044 -0.088 0 0 -0.0439 -0.044 0 0 -0.044 -0.044 0 0 -0.044 -0.0879 0 0 -0.044 -0.044 0 0 -0.044 -0.044 0 0 -0.044 -0.088 0 0 -0.0439 -0.044 0 0 -0.044 -0.0879 0 0 -0.044 -0.044 0 0 -0.044 -0.088 0 0 -0.044 -0.044 0 0 -0.044 -0.0879 0 0 -0.0439 -0.0879 0 0 -0.044 -0.044 0 0 -0.044 -0.088 0 0 -0.0439 -0.088 0 0 -0.044 -0.0879 0 0 -0.044 -0.088 0 0 -0.044 -0.1319 0 0 -0.044 -0.044 0 0 -0.044 -0.132 0 0 -0.0439 -0.1319 0 0 -0.044 -0.2639 0 0 -0.044 -0.6158 0 0 0.044 -0.1319 0 0 0.044 -0.132 0 0 0.0439 -0.0879 0 0 0.044 -0.088 0 0 0.044 -0.044 0 0 0.044 -0.088 0 0 0.044 -0.0439 0 0 0.044 -0.044 0 0 0.0439 -0.044 0 0 0.044 -0.044 0 0 0.044 -0.044 0 0 0.0439 -0.044 0 0 0.044 -0.0439 0 0 0.088 -0.044 0 0 0.044 -0.044 0 0 0.0879 -0.044 0 0 0.132 -0.044 0 0 0.044 -0.044 0 0 0.1759 -0.2199 0 0 0.044 -0.3079 0 0 0.044 -0.1319 0 0 0.044 -0.088 0 0 0.0439 -0.044 0 0 0.044 -0.0879 0 0 0.044 -0.044 0 0 0.044 -0.0879 0 0 0.044 -0.044 0 0 0.044 -0.044 0 0 0.0439 -0.044 0 0 0.088 -0.044 0 0 0.044 -0.0439 0 0 0.044 -0.044 0 0 0.0879 -0.044 0 0 0.132 -0.044 0 0 0.088 -0.044 0 0 0.1319 -0.044 0 0 0.1759 -0.0439 0 0 0.3519 -0.132 0 0 0.044 -0.1319 0 0 0.044 -0.088 0 0 0.044 -0.044 0 0 0.0439 -0.088 0 0 0.044 -0.0439 0 0 0.044 -0.044 0 0 0.044 -0.044 0 0 0.044 -0.044 0 0 0.044 -0.044 0 0 0.0879 -0.044 0 0 0.044 -0.0439 0 0 0.0879 -0.044 0 0 0.088 -0.044 0 0 0.088 -0.044 0 0 0.5717 0.044 0 0 0.132 0.044 0 0 0.1759 0.044 0 0 0.088 0.0439 0 0 0.088 -0.0439 0 0 0.0439 -0.044 0 0 0.044 -0.044 0 0 0.044 -0.044 0 0 0.044 -0.044 0 0 0.088 -0.044 0 0 0.0439 -0.0439 0 0 0.088 -0.044 0 0 0.132 -0.044 0 0 0.0879 -0.044 0 0 0.176 -0.044 0 0 0.3518 0.044 0 0 0.132 0.044 0 0 0.1319 0.044 0 0 0.176 0.044 0 0 0.0439 0.0439 0 0 0.088 0.044 0 0 0.0879 0.044 0 0 0.088 0.044 0 0 0.044 0.044 0 0 0.044 0.044 0 0 0.0879 0.0439 0 0 0.044 0.044 0 0 0.044 0.044 0 0 0.044 0.044 0 0 0.044 0.044 0 0 0.0439 0.044 0 0 0.044 0.0439 0 0 0.132 0.044 0 0 0.2199 0.044 0 0 0.1759 0.044 0 0 0.088 0.044 0 0 0.1319 0.044 0 0 0.088 0.0439 0 0 0.088 0.044 0 0 0.0879 0.044 0 0 0.088 0.044 0 0 0.088 0.044 0 0 0.0879 0.044 0 0 0.088 0.0439 0 0 0.088 0.044 0 0 0.044 0.044 0 0 0.0439 0.044 0 0 0.132 0.044 0 0 0.044 0.044 0 0 0.0879 0.0439 0 0 0.044 0.044 0 0 0.088 0.044 0 0 0.044 0.044 0 0 0.0879 0.044 0 0 0.044 0.044 0 0 0.044 0.0439 0 0 0.0879 0.044 0 0 0.044 0.044 0 0 0.088 0.0439 0 0 0.044 0.044 0 0 0.0879 0.044 0 0 0.044 0.044 0 0 0.044 0.044 0 0 0.088 0.044 0 0 0.0439 0.0439 0 0 0.088 0.044 0 0 0.044 0.044 0 0 0.044 0.044 0 0 0.0879 0.044 0 0 0.044 0.044 0 0 0.088 0.0439 0 0 0.044 0.044 0 0 0.044 0.044 0 0 0.0879 0.044 0 0 0.044 0.044 0 0 0.088 0.044 0 0 0.044 0.0439 0 0 0.0879 0.044 0 0 0.044 0.044 0 0 0.088 0.044 0 0 0.044 0.044 0 0 0.0879 0.044 0 0 0.088 0.0439 0 0 0.044 0.044 0 0 0.0879 0.044 0 0 0.088 0.044 0 0 0.088 0.044 0 0 0.044 0.044 0 0 0.0879 0.0439 0 0 0.088 0.044 0 0 0.088 0.044 0 0 0.0879 0.044 0 0 0.088 0.044 0 0 0.1319 0.044 0 0 0.088 0.0439 0 0 0.0879 0.044 0 0 0.132 0.044 0 0 0.0879 0.044 0 0 0.176 0.044 0 0 0.1319 0.044 0 0 0.132 0.0439 0 0 0.044 0.044 0 0 0.1319 0.044 0 0 0.2199 0.044 0 0 0.132 0.044 0 0 0.044 0.1759 0 0 -0.044 0.044 0 0 -0.176 -0.044 0 0 -0.0879 -0.044 0 0 -0.2199 -0.044 0 0 -0.132 -0.0439 0 0 -0.1319 -0.044 0 0 -0.132 -0.044 0 0 -0.044 -0.044 0 0 -0.1319 -0.044 0 0 -0.132 -0.044 0 0 -0.1319 -0.0439 0 0 -0.0879 -0.044 0 0 -0.088 -0.044 0 0 -0.088 -0.044 0 0 -0.1319 -0.044 0 0 -0.088 -0.044 0 0 -0.088 -0.0439 0 0 -0.0879 -0.044 0 0 -0.044 -0.044 0 0 -0.088 -0.044 0 0 -0.0879 -0.044 0 0 -0.088 -0.044 0 0 -0.088 -0.0439 0 0 -0.044 -0.044 0 0 -0.0879 -0.044 0 0 -0.088 -0.044 0 0 -0.044 -0.044 0 0 -0.0879 -0.044 0 0 -0.044 -0.0439 0 0 -0.088 -0.044 0 0 -0.044 -0.044 0 0 -0.0879 -0.044 0 0 -0.044 -0.044 0 0 -0.044 -0.044 0 0 -0.088 -0.0439 0 0 -0.044 -0.044 0 0 -0.0879 -0.044 0 0 -0.044 -0.044 0 0 -0.044 -0.044 0 0 -0.088 -0.044 0 0 -0.0439 -0.0439 0 0 -0.088 -0.044 0 0 -0.044 -0.044 0 0 -0.044 -0.044 0 0 -0.0879 -0.044 0 0 -0.044 -0.044 0 0 -0.044 -0.0439 0 0 -0.044 -0.044 0 0 -0.088 -0.044 0 0 -0.0439 -0.044 0 0 -0.044 -0.044 0 0 -0.0879 -0.044 0 0 -0.044 -0.0439 0 0 -0.088 -0.044 0 0 -0.044 -0.044 0 0 -0.0879 -0.0439 0 0 -0.044 -0.044 0 0 -0.088 -0.044 0 0 -0.088 -0.044 0 0 -0.0439 -0.044 0 0 -0.088 -0.044 0 0 -0.088 -0.0439 0 0 -0.0879 -0.044 0 0 -0.088 -0.044 0 0 -0.088 -0.044 0 0 -0.0879 -0.044 0 0 -0.132 -0.044 0 0 -0.044 -0.0439 0 0 -0.1319 -0.044 0 0 -0.088 -0.044 0 0 -0.1319 -0.044 0 0 -0.088 -0.044 0 0 -0.132 -0.044 0 0 -0.0879 0.132 0 0 0.044 0.044 0 0 0.0439 0.1759 0 0 0.044 0.1759 0 0 0.044 0.2639 0 0 0.044 0.088 0 0 0.044 0.2199 0 0 0.044 0.1759 0 0 0.0439 0.088 0 0 0.044 0.2639 0 0 0.044 0.1319 0 0 0.044 0.132 0 0 0.044 0.1319 0 0 0.044 0.2199 0 0 0.0439 0.088 0 0 0.044 0.1759 0 0 0.044 0.088 0 0 0.088 -0.044 0 0 0.0879 -0.044 0 0 0.044 -0.0439 0 0 0.132 -0.044 0 0 0.0879 -0.044 0 0 0.088 -0.044 0 0 0.088 0.044 0 0 -0.044 0.044 0 0 -0.088 0.044 0 0 -0.0879 0.0439 0 0 -0.044 0.044 0 0 -0.088 0.044 0 0 -0.044 0.044 0 0 -0.0879 0.044 0 0 -0.044 0.044 0 0 -0.044 0.0439 0 0 -0.044 0.132 0 0 -0.044 0.044 0 0 -0.044 0.0879 0 0 -0.0439 0.044 0 0 -0.044 0.044 0 0 -0.088 0.044 0 0 -0.044 0.044 0 0 -0.0879 0.044 0 0 -0.088 0.0439 0 0 -0.044 0.044 0 0 -0.1759 0.044 0 0 -0.2199 0.044 0 0 -0.044 0.1759 0 0 -0.044 0.088 0 0 -0.044 0.044 0 0 -0.044 0.044 0 0 -0.044 0.0439 0 0 -0.0439 0.044 0 0 -0.044 0.044 0 0 -0.088 0.044 0 0 -0.044 0.044 0 0 -0.0879 0.044 0 0 -0.088 0.0439 0 0 -0.5717 0.044 0 0 -0.044 0.088 0 0 -0.044 0.0879 0 0 -0.044 0.044 0 0 -0.044 0.044 0 0 -0.044 0.088 0 0 -0.0439 0.044 0 0 -0.044 0.0439 0 0 -0.044 0.044 0 0 -0.088 0.044 0 0 -0.044 0.0439 0 0 -0.0879 0.044 0 0 -0.044 0.044 0 0 -0.132 0.044 0 0 -0.3518 0.1319 0 0 -0.044 0.044 0 0 -0.044 0.088 0 0 -0.044 0.088 0 0 -0.044 0.0439 0 0 -0.0439 0.044 0 0 -0.088 0.044 0 0 -0.088 0.044 0 0 -0.044 0.044 0 0 -0.0879 0.044 0 0 -0.2199 0.0439 0 0 -0.5278 -0.0439 0 0 -0.088 -0.044 0 0 -0.1319 -0.044 0 0 -0.088 -0.044 0 0 -0.044 -0.044 0 0 -0.0879 -0.044 0 0 -0.044 -0.0439 0 0 -0.044 -0.044 0 0 -0.044 -0.044 0 0 -0.044 -0.088 0 0 -0.0439 -0.044 0 0 -0.044 -0.0439 0 0 -0.044 -0.044 0 0 -0.044 -0.044 0 0 -0.044 -0.044 0 0 -0.044 -0.044 0 0 -0.0439 -0.0879 0 0 -0.088 -0.088 0 0 -0.088 -0.0879 0 0 -0.044 -0.044 0 0 -0.0439 -0.044 0 0 -0.044 -0.044 0 0 -0.044 -0.044 0 0 -0.044 -0.0439 0 0 -0.044 -0.088 0 0 -0.044 -0.044 0 0 -0.0439 -0.044 0 0 -0.044 -0.0439 0 0 -0.044 -0.044 0 0 -0.044 -0.088 0 0 -0.044 -0.044 0 0 -0.044 -0.0879 0 0 -0.0879 -0.088 0 0 -0.044 -0.044 0 0 -0.044 -0.044 0 0 -0.044 -0.044 0 0 -0.044 -0.2199 0 0 0.176 0.044 0 0 0.044 0.044 0 0 0.0439 0.044 0 0 0.044 0.044 0 0 0.044 0.0879 0 0 0.044 0.044 0 0 0.044 0.044 0 0 0.044 0.044 0 0 0.0439 0.044 0 0 0.044 0.0879 0 0 0.044 0.044 0 0 0.044 0.044 0 0 0.044 0.044 0 0 0.044 0.044 0 0 0.0439 0.0879 0 0 0.044 0.044 0 0 0.044 0.044 0 0 0.044 0.044 0 0 0.044 0.0439 0 0 0.044 0.044 0 0 0.0439 0.088 0 0 0.044 0.044 0 0 0.044 0.044 0 0 0.044 0.0439 0 0 0.044 0.044 0 0 0.044 0.044 0 0 0.0439 0.0439 0 0 0.044 0.044 0 0 0.044 0.044 0 0 0.044 0.044 0 0 0.044 0.044 0 0 0.044 0.0879 0 0 0.0439 0.044 0 0 0.088 0.044 0 0 0.044 0.044 0 0 0.088 0.044 0 0 0.0439 0.044 0 0 0.1759 0.0439 0 0 0.088 0.044 0 0 0.2639 -0.044 0 0 -0.044 -0.0439 0 0 -0.088 -0.044 0 0 -0.0439 -0.044 0 0 -0.044 -0.044 0 0 -0.044 -0.044 0 0 -0.044 -0.044 0 0 -0.088 -0.0439 0 0 -0.0439 -0.044 0 0 -0.044 -0.044 0 0 -0.044 -0.044 0 0 -0.0879 -0.044 0 0 -0.044 -0.0879 0 0 -0.044 -0.3079 0 0 0.044 -0.1319 0 0 0.044 -0.088 0 0 0.044 -0.044 0 0 0.0439 -0.0439 0 0 0.044 -0.044 0 0 0.044 -0.044 0 0 0.1319 -0.044 0 0 0.2199 -0.088 0 0 -0.044 -0.0439 0 0 -0.0439 -0.088 0 0 -0.044 -0.044 0 0 -0.044 -0.088 0 0 -0.044 -0.0439 0 0 -0.044 -0.044 0 0 -0.044 -0.088 0 0 -0.0439 -0.044 0 0 -0.044 -0.044 0 0 -0.044 -0.0879 0 0 -0.0439 -0.044 0 0 -0.044 -0.044 0 0 -0.044 -0.088 0 0 -0.044 -0.0439 0 0 -0.044 -0.088 0 0 -0.044 -0.044 0 0 -0.0439 -0.044 0 0 -0.044 -0.044 0 0 -0.088 -0.0439 0 0 -0.044 -0.044 0 0 -0.0879 -0.044 0 0 -0.044 -0.044 0 0 -0.044 -0.044 0 0 -0.088 -0.044 0 0 -0.044 -0.0439 0 0 -0.0879 -0.044 0 0 -0.088 -0.044 0 0 -0.044 -0.044 0 0 -0.0879 -0.044 0 0 -0.088 -0.044 0 0 -0.088 -0.0439 0 0 -0.0879 -0.044 0 0 -0.088 -0.044 0 0 -0.088 -0.044 0 0 -0.0879 -0.044 0 0 -0.132 -0.044 0 0 -0.088 -0.0439 0 0 -0.2199 0.0439 0 0 -0.0879 0.044 0 0 -0.088 0.044 0 0 -0.088 0.044 0 0 -0.0879 0.044 0 0 -0.044 0.044 0 0 -0.044 0.0439 0 0 -0.044 0.044 0 0 -0.044 0.044 0 0 -0.044 0.044 0 0 -0.0439 0.088 0 0 -0.044 0.0439 0 0 -0.044 0.044 0 0 -0.0439 0.132 0 0 -0.044 0.0879 0 0 -0.044 0.7917 0 0 0.044 0.132 0 0 0.044 0.088 0 0 0.0439 0.1759 0 0 0.044 0.044 0 0 0.044 0.0879 0 0 0.0439 0.088 0 0 0.044 0.088 0 0 0.044 0.0879 0 0 0.044 0.088 0 0 0.044 0.044 0 0 0.044 0.0879 0 0 0.0439 0.088 0 0 0.044 0.0439 0 0 0.044 0.044 0 0 0.044 0.088 0 0 0.044 0.044 0 0 0.044 0.0879 0 0 0.0439 0.044 0 0 0.044 0.044 0 0 0.044 0.088 0 0 0.044 0.044 0 0 0.044 0.0439 0 0 0.044 0.088 0 0 0.0439 0.044 0 0 0.044 0.044 0 0 0.044 0.044 0 0 0.044 0.0879 0 0 0.044 0.044 0 0 0.044 0.044 0 0 0.0439 0.044 0 0 0.044 0.044 0 0 0.044 0.0879 0 0 0.044 0.044 0 0 0.044 0.044 0 0 0.044 0.044 0 0 0.0439 0.044 0 0 0.044 0.0439 0 0 0.132 -0.0439 0 0 0.044 -0.044 0 0 0.0879 -0.044 0 0 0.044 -0.044 0 0 0.088 -0.044 0 0 0.044 -0.044 0 0 0.0879 0.088 0 0 -0.044 0.044 0 0 -0.0439 0.044 0 0 -0.044 0.0879 0 0 -0.044 0.044 0 0 -0.044 0.044 0 0 -0.044 0.088 0 0 0.3519 0.044 0 0 -0.044 0.0439 0 0 -0.088 0.044 0 0 -0.1319 0.044 0 0 -0.132 0.044 0 0 -0.1319 0.044 0 0 -0.132 0.044 0 0 -0.1319 0.0439 0 0 -0.132 0.044 0 0 -0.2199 0.044 0 0 -0.1319 0.044 0 0 -0.088 0.044 0 0 -0.3079 0.044 0 0 -0.1319 0.0439 0 0 -0.3079 0.044 0 0 -0.3518 0.044 0 0 -0.5718 0.044 0 0 -0.1759 0.044 0 0 -0.2639 0.044 0 0 -0.132 0.0439 0 0 -0.1319 0.044 0 0 -0.176 0.044 0 0 -0.1759 0.044 0 0 -0.088 0.044 0 0 -0.1319 0.044 0 0 -0.088 0.0439 0 0 -0.088 0.044 0 0 -0.0879 0.044 0 0 -0.088 0.044 0 0 -0.088 0.044 0 0 -0.0879 0.044 0 0 -0.044 0.0439 0 0 -0.0879 0.044 0 0 -0.044 0.044 0 0 -0.044 0.044 0 0 -0.088 0.044 0 0 -0.0439 0.044 0 0 -0.044 0.0439 0 0 -0.044 0.044 0 0 -0.044 0.044 0 0 -0.044 0.044 0 0 -0.044 0.044 0 0 -0.0439 0.044 0 0 -0.044 0.0439 0 0 -0.044 0.044 0 0 -0.044 0.088 0 0 -0.044 0.044 0 0 -0.044 0.044 0 0 -0.0439 0.0879 0 0 -0.044 0.0879 0 0 -0.044 0.044 0 0 -0.044 0.132 0 0 -0.044 0.1319 0 0 -0.044 0.132 0 0 -0.0439 0.1319 0 0 -0.044 0.3079 0 0 0.044 -0.044 0 0 0.0439 -0.044 0 0 0.044 -0.0879 0 0 0.044 -0.044 0 0 0.044 -0.044 0 0 0.044 -0.044 0 0 0.044 -0.044 0 0 0.0439 -0.0439 0 0 0.044 -0.044 0 0 0.044 -0.044 0 0 0.044 -0.044 0 0 0.044 -0.044 0 0 0.044 -0.044 0 0 0.0879 -0.0439 0 0 0.044 -0.044 0 0 0.044 -0.044 0 0 0.088 -0.044 0 0 0.0879 -0.044 0 0 0.044 -0.044 0 0 0.088 -0.0439 0 0 0.044 -0.044 0 0 0.1758 0.044 0 0 0.088 0.0439 0 0 0.088 0.044 0 0 0.044 0.044 0 0 0.0439 0.044 0 0 0.044 0.044 0 0 0.044 0.044 0 0 0.044 0.0439 0 0 0.044 0.088 0 0 0.044 0.044 0 0 0.0439 0.088 0 0 0.044 0.0879 0 0 0.044 0.044 0 0 0.088 -0.044 0 0 0.0879 -0.044 0 0 1.9353 -0.0439 0 0 0.1319 -0.044 0 0 0.044 -0.3519 0 0 0.044 0.3519 0 0 0.1759 -0.044 0 0 0.132 -0.044 0 0 0.1319 -0.044 0 0 0.1759 -0.044 0 0 0.176 -0.0439 0 0 0.0879 -0.044 0 0 0.2639 -0.044 0 0 0.2639 -0.044 0 0 0.132 -0.044 0 0 1.5394 -0.044 0 0 0.2639 -0.0439 0 0 0.2199 -0.044 0 0 0.044 -0.044 0 0 0.1759 -0.0439 0 0 0.088 -0.044 0 0 0.1319 -0.044 0 0 0.044 -0.044 0 0 0.044 -0.044 0 0 0.1319 -0.044 0 0 0.132 -0.0439 0 0 0.0879 -0.044 0 0 0.132 -0.044 0 0 0.2639 -0.044 0 0 0.1759 -0.044 0 0 0.8357 0.044 0 0 0.3078 0.044 0 0 0.3959 0.044 0 0 0.4398 0.044 0 0 0.6598 -0.044 0 0 0.0879 -0.044 0 0 0.044 -0.044 0 0 0.088 -0.044 0 0 0.044 -0.044 0 0 0.044 -0.0439 0 0 0.0439 -0.088 0 0 0.044 -0.044 0 0 0.044 -0.088 0 0 0.044 -0.1319 0 0 0.044 -0.1759 0 0 0.044 -0.22 0 0 0.0439 0.4399 0 0 -0.0439 0.1759 0 0 -0.044 0.132 0 0 -0.044 0.0439 0 0 -0.044 0.088 0 0 -0.044 0.044 0 0 -0.044 0.044 0 0 -0.0439 0.0879 0 0 0.1319 0.044 0 0 0.7477 0.044 0 0 0.8357 0.044 0 0 0.1759 0.044 0 0 0.4398 0.044 0 0 0.2639 0.0439 0 0 0.176 0.044 0 0 0.3078 0.044 0 0 0.044 0.1319 0 0 -0.044 0.044 0 0 -0.3958 -0.044 0 0 -0.2199 -0.044 0 0 -0.3079 -0.044 0 0 -0.4398 -0.0439 0 0 -0.4399 -0.044 0 0 -0.3958 -0.044 0 0 -1.4514 -0.0439 0 0 -0.2639 -0.044 0 0 -0.4399 -0.044 0 0 -0.5717 -0.044 0 0 -0.22 -0.044 0 0 -0.9675 0.044 0 0 -0.3079 0.044 0 0 -0.044 0.044 0 0 -0.088 0.044 0 0 -0.1319 0.0439 0 0 -0.088 0.044 0 0 -0.088 0.044 0 0 -0.0879 0.0439 0 0 -0.088 0.044 0 0 -0.1319 0.044 0 0 -0.132 0.044 0 0 -0.088 0.044 0 0 -0.1319 0.044 0 0 -0.2639 0.0439 0 0 -0.1759 0.044 0 0 -1.4514 0.044 0 0 -0.4839 0.044 0 0 -0.0879 0.044 0 0 -0.088 0.044 0 0 -0.1759 0.0439 0 0 -0.2199 0.044 0 0 -0.044 0.044 0 0 -0.2199 0.044 0 0 -0.176 0.044 0 0 -0.2639 0.044 0 0 -1.8472 0.0439 0 0 -0.088 0.044 0 0 -0.088 0.044 0 0 -0.0879 0.044 0 0 -0.088 0.044 0 0 -0.1319 0.044 0 0 -0.088 0.0439 0 0 -0.044 0.044 0 0 -0.088 0.044 0 0 -0.0439 0.044 0 0 -0.088 0.044 0 0 -0.044 0.044 0 0 -0.088 0.0439 0 0 -0.0439 0.044 0 0 -0.044 0.044 0 0 -0.044 0.044 0 0 -0.0439 0.044 0 0 -0.044 0.044 0 0 -0.088 0.0439 0 0 -0.044 0.044 0 0 -0.4398 -0.044 0 0 -0.132 -0.0439 0 0 -0.0879 -0.044 0 0 -0.088 -0.044 0 0 -0.044 -0.044 0 0 -0.044 -0.044 0 0 -0.0439 -0.044 0 0 -0.088 -0.0439 0 0 -0.044 -0.088 0 0 -0.044 -0.044 0 0 -0.044 -0.044 0 0 -0.0439 -0.1319 0 0 -0.044 -0.3959 0 0 0.044 -0.1319 0 0 0.0439 -0.176 0 0 0.044 -0.0879 0 0 0.044 -0.088 0 0 0.044 -0.088 0 0 0.044 -0.0879 0 0 0.044 -0.0879 0 0 0.0439 -0.044 0 0 0.044 -0.088 0 0 0.044 -0.044 0 0 0.044 -0.0879 0 0 0.044 -0.044 0 0 0.044 -0.044 0 0 0.0439 -0.088 0 0 0.044 -0.044 0 0 0.044 -0.0439 0 0 0.044 -0.044 0 0 0.044 -0.044 0 0 0.044 -0.044 0 0 0.0439 -0.044 0 0 0.044 -0.044 0 0 0.044 -0.0439 0 0 0.044 -0.044 0 0 0.088 -0.044 0 0 0.0439 -0.044 0 0 0.044 -0.044 0 0 0.088 -0.044 0 0 0.044 -0.0439 0 0 0.0879 -0.044 0 0 0.088 -0.044 0 0 0.0879 -0.044 0 0 0.088 -0.044 0 0 0.088 -0.044 0 0 0.1319 -0.0439 0 0 0.044 -0.044 0 0 0.1319 -0.044 0 0 0.176 -0.044 0 0 0.1319 -0.044 0 0 0.132 -0.044 0 0 0.1759 -0.0439 0 0 0.2199 -0.044 0 0 0.2199 -0.044 0 0 0.3079 -0.044 0 0 0.3959 -0.044 0 0 0.2639 -0.044 0 0 0.3958 -0.0439 0 0 0.1319 -0.044 0 0 0.3079 -0.044 0 0 0.088 -0.044 0 0 0.2199 -0.044 0 0 0.088 -0.044 0 0 0.2199 -0.0879 0 0 -0.044z"/>
   <polygon id="_374639184" class="fil1" points="12.1172,13.7225 12.1172,13.3267 12.0732,13.3267 12.0732,12.579 12.0292,12.579 12.0292,13.4586 12.0732,13.4586 12.0732,13.7225 "/>
   <polygon id="_376491432" class="fil1" points="6.1355,7.1251 6.1355,7.0811 6.0476,7.0811 6.0476,7.1251 6.0036,7.1251 6.0036,7.1691 5.9596,7.1691 5.9596,7.2131 5.9156,7.2131 5.9156,7.2571 5.8716,7.2571 5.8716,7.3011 5.8277,7.3011 5.8277,7.389 5.7837,7.389 5.7837,7.433 5.7397,7.433 5.7397,7.6089 5.7837,7.6089 5.7837,7.521 5.8277,7.521 5.8277,7.433 5.8716,7.433 5.8716,7.389 5.9156,7.389 5.9156,7.345 5.9596,7.345 5.9596,7.2571 6.0036,7.2571 6.0036,7.2131 6.0476,7.2131 6.0476,7.1691 6.0916,7.1691 6.0916,7.1251 "/>
   <polygon id="_376490760" class="fil1" points="6.6194,7.6089 6.5754,7.6089 6.5754,7.6529 6.5314,7.6529 6.5314,7.6969 6.4874,7.6969 6.4874,7.7409 6.4434,7.7409 6.4434,7.7849 6.3994,7.7849 6.3994,7.8289 6.3555,7.8289 6.3555,7.9168 6.4434,7.9168 6.4434,7.8728 6.4874,7.8728 6.4874,7.8289 6.5314,7.8289 6.5314,7.7849 6.5754,7.7849 6.5754,7.7409 6.6194,7.7409 6.6194,7.6969 6.6633,7.6969 6.6633,7.6089 6.7073,7.6089 6.7073,7.521 6.6194,7.521 "/>
   <polygon id="_376491120" class="fil2" points="7.7189,5.014 7.7189,4.882 7.7629,4.882 7.7629,4.838 7.7189,4.838 7.7189,4.7501 7.675,4.7501 7.675,4.6621 7.631,4.6621 7.631,4.5741 7.587,4.5741 7.587,4.4862 7.543,4.4862 7.543,4.4422 7.499,4.4422 7.499,4.3982 7.455,4.3982 7.455,4.4862 7.499,4.4862 7.499,4.5741 7.543,4.5741 7.543,4.6621 7.587,4.6621 7.587,4.7501 7.631,4.7501 7.631,4.7941 7.675,4.7941 7.675,5.014 "/>
   <polygon id="_376491384" class="fil1" points="7.675,5.3219 7.675,5.3658 7.7629,5.3658 7.7629,5.4098 7.8069,5.4098 7.8069,5.4538 7.8509,5.4538 7.8509,5.1459 7.8069,5.1459 7.8069,5.014 7.7629,5.014 7.7629,4.882 7.7189,4.882 7.7189,5.1019 7.7629,5.1019 7.7629,5.3219 "/>
   <polygon id="_376490808" class="fil3" points="10.1819,6.2455 10.138,6.2455 10.138,6.2895 10.094,6.2895 10.094,5.9376 10.006,5.9376 10.006,5.9816 10.05,5.9816 10.05,6.5094 10.094,6.5094 10.094,6.4214 10.138,6.4214 10.138,6.3335 10.1819,6.3335 "/>
   <polygon id="_376491792" class="fil4" points="6.2675,12.1392 6.1795,12.1392 6.1795,12.2271 6.1355,12.2271 6.1355,12.3591 6.0916,12.3591 6.0916,12.667 6.1355,12.667 6.1355,12.491 6.1795,12.491 6.1795,12.3151 6.2235,12.3151 6.2235,12.2271 6.2675,12.2271 "/>
   <polygon id="_376491960" class="fil4" points="12.2931,3.9144 12.469,3.9144 12.469,3.9584 12.8209,3.9584 12.8209,3.9144 12.7769,3.9144 12.7769,3.8705 12.2931,3.8705 "/>
   <polygon id="_376492152" class="fil1" points="4.992,9.7201 4.948,9.7201 4.948,9.7641 4.904,9.7641 4.904,9.8521 4.86,9.8521 4.86,9.8961 4.816,9.8961 4.816,10.028 4.86,10.028 4.86,9.984 4.904,9.984 4.904,9.8961 4.948,9.8961 4.948,9.8521 4.992,9.8521 4.992,9.8081 5.036,9.8081 5.036,9.7201 5.0799,9.7201 5.0799,9.6322 4.992,9.6322 "/>
   <polygon id="_376491624" class="fil1" points="5.1679,9.8961 5.1679,9.984 5.1239,9.984 5.1239,10.028 5.0799,10.028 5.0799,10.1159 5.036,10.1159 5.036,10.1599 4.992,10.1599 4.992,10.2479 5.036,10.2479 5.036,10.2039 5.1239,10.2039 5.1239,10.1159 5.1679,10.1159 5.1679,10.072 5.2119,10.072 5.2119,9.984 5.2559,9.984 5.2559,9.8521 5.2119,9.8521 5.2119,9.8961 "/>
   <polygon id="_376491744" class="fil1" points="5.3438,8.8845 5.3438,8.9284 5.4318,8.9284 5.4318,8.8845 5.4758,8.8845 5.4758,8.8405 5.5198,8.8405 5.5198,8.7965 5.5638,8.7965 5.5638,8.7525 5.6077,8.7525 5.6077,8.6645 5.6517,8.6645 5.6517,8.5326 5.6077,8.5326 5.6077,8.5766 5.5638,8.5766 5.5638,8.6645 5.5198,8.6645 5.5198,8.7085 5.4758,8.7085 5.4758,8.7965 5.4318,8.7965 5.4318,8.8405 5.3878,8.8405 5.3878,8.8845 "/>
   <polygon id="_376491600" class="fil1" points="5.3438,8.4446 5.2999,8.4446 5.2999,8.4886 5.2559,8.4886 5.2559,8.5766 5.2119,8.5766 5.2119,8.6206 5.1679,8.6206 5.1679,8.7965 5.2119,8.7965 5.2119,8.7525 5.2559,8.7525 5.2559,8.6645 5.2999,8.6645 5.2999,8.5766 5.3438,8.5766 5.3438,8.5326 5.3878,8.5326 5.3878,8.4006 5.3438,8.4006 "/>
   <polygon id="_376492608" class="fil1" points="6.8393,5.8936 6.8393,5.9376 6.7953,5.9376 6.7953,5.9816 6.7513,5.9816 6.7513,6.0256 6.7073,6.0256 6.7073,6.1136 6.6633,6.1136 6.6633,6.1575 6.6194,6.1575 6.6194,6.2895 6.6633,6.2895 6.6633,6.2455 6.7073,6.2455 6.7073,6.1575 6.7513,6.1575 6.7513,6.1136 6.7953,6.1136 6.7953,6.0696 6.8393,6.0696 6.8393,5.9816 6.8833,5.9816 6.8833,5.8936 "/>
   <polygon id="_376492680" class="fil1" points="4.6841,9.5002 4.6841,9.5442 4.6402,9.5442 4.6402,9.5882 4.5962,9.5882 4.5962,9.7201 4.5522,9.7201 4.5522,9.8961 4.5962,9.8961 4.5962,9.8081 4.6402,9.8081 4.6402,9.7201 4.6841,9.7201 4.6841,9.6322 4.7281,9.6322 4.7281,9.5002 "/>
   <polygon id="_376492584" class="fil1" points="6.3115,7.389 6.2675,7.389 6.2675,7.477 6.2235,7.477 6.2235,7.521 6.1795,7.521 6.1795,7.565 6.1355,7.565 6.1355,7.6529 6.2235,7.6529 6.2235,7.6089 6.2675,7.6089 6.2675,7.521 6.3115,7.521 6.3115,7.477 6.3555,7.477 6.3555,7.433 6.3994,7.433 6.3994,7.345 6.3115,7.345 "/>
   <polygon id="_376492944" class="fil1" points="12.513,4.4862 12.513,4.4422 12.8649,4.4422 12.8649,4.3982 12.2931,4.3982 12.2931,4.4422 12.425,4.4422 12.425,4.4862 "/>
   <polygon id="_376492392" class="fil1" points="12.2492,3.3427 12.2492,3.3866 12.3811,3.3866 12.3811,3.3427 12.557,3.3427 12.557,3.2987 12.645,3.2987 12.645,3.2547 12.425,3.2547 12.425,3.2987 12.2931,3.2987 12.2931,3.3427 "/>
   <polygon id="_376492872" class="fil1" points="7.499,6.4214 7.455,6.4214 7.455,6.4654 7.4111,6.4654 7.4111,6.5094 7.3671,6.5094 7.3671,6.5534 7.3231,6.5534 7.3231,6.6414 7.4111,6.6414 7.4111,6.5974 7.455,6.5974 7.455,6.5534 7.499,6.5534 7.499,6.4654 7.543,6.4654 7.543,6.3775 7.499,6.3775 "/>
   <polygon id="_376493064" class="fil1" points="4.992,8.5766 4.992,8.4886 5.036,8.4886 5.036,8.4006 5.0799,8.4006 5.0799,8.2687 4.992,8.2687 4.992,8.3567 4.948,8.3567 4.948,8.5766 "/>
   <polygon id="_376493208" class="fil4" points="7.3671,6.6414 7.3231,6.6414 7.3231,6.5974 7.2791,6.5974 7.2791,6.6414 7.2351,6.6414 7.2351,6.6853 7.1472,6.6853 7.1472,6.7293 7.1032,6.7293 7.1032,6.8173 7.1911,6.8173 7.1911,6.7733 7.2351,6.7733 7.2351,6.7293 7.3231,6.7293 7.3231,6.6853 7.3671,6.6853 "/>
   <polygon id="_376493400" class="fil1" points="8.4666,5.9816 8.4666,6.0256 8.5546,6.0256 8.5546,6.1136 8.5985,6.1136 8.5985,5.9816 8.6425,5.9816 8.6425,5.8936 8.6865,5.8936 8.6865,5.8057 8.6425,5.8057 8.6425,5.8497 8.5985,5.8497 8.5985,5.8936 8.5546,5.8936 8.5546,5.9816 "/>
   <polygon id="_376493112" class="fil3" points="7.0592,6.2455 7.0152,6.2455 7.0152,6.2895 6.9712,6.2895 6.9712,6.3775 7.0592,6.3775 7.0592,6.3335 7.1032,6.3335 7.1032,6.2895 7.1472,6.2895 7.1472,6.2015 7.0592,6.2015 "/>
   <polygon id="_376493328" class="fil4" points="13.1728,0.3958 13.2167,0.3958 13.2167,0.3518 13.2607,0.3518 13.2607,0.3079 13.3047,0.3079 13.3047,0.2639 12.9968,0.2639 12.9968,0.3079 13.1728,0.3079 "/>
   <polygon id="_376493568" class="fil4" points="6.4434,9.8521 6.4434,9.8961 6.5314,9.8961 6.5314,9.9401 6.5754,9.9401 6.5754,9.984 6.6194,9.984 6.6194,10.028 6.7073,10.028 6.7073,9.984 6.6633,9.984 6.6633,9.9401 6.6194,9.9401 6.6194,9.8961 6.5754,9.8961 6.5754,9.8521 6.5314,9.8521 6.5314,9.8081 6.4874,9.8081 6.4874,9.8521 "/>
   <polygon id="_376493688" class="fil1" points="7.1472,9.1923 7.1472,9.2363 7.2791,9.2363 7.2791,9.2803 7.3671,9.2803 7.3671,9.3243 7.455,9.3243 7.455,9.2803 7.4111,9.2803 7.4111,9.2363 7.3231,9.2363 7.3231,9.1923 7.2351,9.1923 7.2351,9.1484 7.1911,9.1484 7.1911,9.1923 "/>
   <polygon id="_376494264" class="fil4" points="8.6425,5.8057 8.6865,5.8057 8.6865,5.8497 8.7305,5.8497 8.7305,5.7617 8.7745,5.7617 8.7745,5.6737 8.8185,5.6737 8.8185,5.5858 8.7745,5.5858 8.7745,5.6297 8.7305,5.6297 8.7305,5.6737 8.6865,5.6737 8.6865,5.7617 8.6425,5.7617 "/>
   <polygon id="_376494288" class="fil2" points="8.7745,5.5858 8.8624,5.5858 8.8624,5.4978 8.9064,5.4978 8.9064,5.3658 8.8624,5.3658 8.8624,5.4098 8.8185,5.4098 8.8185,5.4978 8.7745,5.4978 "/>
   <polygon id="_376493952" class="fil2" points="6.0916,7.0811 6.1355,7.0811 6.1355,7.1251 6.1795,7.1251 6.1795,7.0811 6.2675,7.0811 6.2675,7.0372 6.3115,7.0372 6.3115,6.9932 6.1355,6.9932 6.1355,7.0372 6.0916,7.0372 "/>
   <polygon id="_376493976" class="fil3" points="4.6841,11.0396 4.6841,10.9956 4.4642,10.9956 4.4642,11.0396 4.4202,11.0396 4.4202,11.1276 4.5082,11.1276 4.5082,11.0396 "/>
   <polygon id="_376494000" class="fil4" points="12.3371,15.3939 12.3371,15.218 12.2931,15.218 12.2931,15.042 12.2492,15.042 12.2492,15.2619 12.2931,15.2619 12.2931,15.3939 "/>
   <polygon id="_376494456" class="fil4" points="12.557,3.3427 12.8209,3.3427 12.8209,3.2987 12.7329,3.2987 12.7329,3.2547 12.645,3.2547 12.645,3.2987 12.557,3.2987 "/>
   <polygon id="_376494552" class="fil1" points="7.499,9.3683 7.543,9.3683 7.543,9.4123 7.631,9.4123 7.631,9.4562 7.7189,9.4562 7.7189,9.3683 7.587,9.3683 7.587,9.3243 7.499,9.3243 "/>
   <polygon id="_376494720" class="fil4" points="6.8393,5.8936 6.8833,5.8936 6.8833,5.9376 6.9272,5.9376 6.9272,5.8936 7.0152,5.8936 7.0152,5.8497 7.0592,5.8497 7.0592,5.8057 6.9272,5.8057 6.9272,5.8497 6.8393,5.8497 "/>
   <polygon id="_376495296" class="fil4" points="4.992,8.5766 4.948,8.5766 4.948,8.4886 4.904,8.4886 4.904,8.7085 4.992,8.7085 "/>
   <polygon id="_376494696" class="fil1" points="9.0824,7.389 9.0824,7.433 9.1263,7.433 9.1263,7.477 9.1703,7.477 9.1703,7.2131 9.1263,7.2131 9.1263,7.389 "/>
   <polygon id="_376495008" class="fil4" points="6.1795,7.6529 6.1355,7.6529 6.1355,7.6089 6.0916,7.6089 6.0916,7.6529 6.0476,7.6529 6.0476,7.7849 6.0916,7.7849 6.0916,7.7409 6.1355,7.7409 6.1355,7.6969 6.1795,7.6969 "/>
   <polygon id="_376494888" class="fil2" points="5.1679,9.8961 5.2119,9.8961 5.2119,9.8521 5.2559,9.8521 5.2559,9.8961 5.2999,9.8961 5.2999,9.7641 5.2119,9.7641 5.2119,9.8081 5.1679,9.8081 "/>
   <polygon id="_376495560" class="fil1" points="12.7769,5.8057 12.8209,5.8057 12.8209,5.6737 12.8649,5.6737 12.8649,5.5418 12.8209,5.5418 12.8209,5.6297 12.7769,5.6297 "/>
   <polygon id="_376495344" class="fil4" points="7.7189,7.345 7.7189,7.389 7.8069,7.389 7.8069,7.1691 7.7629,7.1691 7.7629,7.345 "/>
   <polygon id="_376495440" class="fil4" points="6.3994,7.9168 6.3555,7.9168 6.3555,7.8728 6.3115,7.8728 6.3115,7.9168 6.2675,7.9168 6.2675,8.0048 6.3555,8.0048 6.3555,7.9608 6.3994,7.9608 "/>
   <polygon id="_376496040" class="fil2" points="6.3555,9.7641 6.3555,9.8081 6.3994,9.8081 6.3994,9.8521 6.4874,9.8521 6.4874,9.7641 6.4434,9.7641 6.4434,9.7201 6.3994,9.7201 6.3994,9.7641 "/>
   <polygon id="_376495632" class="fil4" points="7.0152,6.3775 6.9712,6.3775 6.9712,6.3335 6.9272,6.3335 6.9272,6.3775 6.8833,6.3775 6.8833,6.4654 6.9712,6.4654 6.9712,6.4214 7.0152,6.4214 "/>
   <polygon id="_376495680" class="fil4" points="7.1032,6.2015 7.1472,6.2015 7.1472,6.2455 7.1911,6.2455 7.1911,6.2015 7.2351,6.2015 7.2351,6.1136 7.1472,6.1136 7.1472,6.1575 7.1032,6.1575 "/>
   <polygon id="_376495872" class="fil1" points="12.1172,9.2803 12.1612,9.2803 12.1612,9.1484 12.2052,9.1484 12.2052,9.0604 12.1612,9.0604 12.1612,9.1044 12.1172,9.1044 "/>
   <polygon id="_376496328" class="fil2" points="6.7073,7.565 6.7513,7.565 6.7513,7.433 6.6633,7.433 6.6633,7.521 6.7073,7.521 "/>
   <polygon id="_376496232" class="fil2" points="12.2492,3.3427 12.1612,3.3427 12.1612,3.4306 12.2492,3.4306 "/>
   <polygon id="_376496640" class="fil3" points="7.0152,8.7965 7.0152,8.8405 7.1472,8.8405 7.1472,8.7525 7.1032,8.7525 7.1032,8.7965 "/>
   <polygon id="_376496496" class="fil1" points="3.9364,10.9076 3.9364,10.8637 4.0244,10.8637 4.0244,10.8197 3.8924,10.8197 3.8924,10.9076 "/>
   <polygon id="_376496544" class="fil1" points="10.094,5.4978 10.094,5.5418 10.1819,5.5418 10.1819,5.4098 10.138,5.4098 10.138,5.4978 "/>
   <polygon id="_376496784" class="fil4" points="4.7281,9.5442 4.7721,9.5442 4.7721,9.4562 4.6841,9.4562 4.6841,9.5002 4.7281,9.5002 "/>
   <polygon id="_376496952" class="fil2" points="5.0799,9.6762 5.1239,9.6762 5.1239,9.5882 5.036,9.5882 5.036,9.6322 5.0799,9.6322 "/>
   <polygon id="_376497384" class="fil1" points="9.6981,6.2015 9.6541,6.2015 9.6541,6.1575 9.6102,6.1575 9.6102,6.2455 9.6981,6.2455 "/>
   <polygon id="_376496928" class="fil2" points="9.6541,6.2455 9.6102,6.2455 9.6102,6.2015 9.5662,6.2015 9.5662,6.2895 9.6541,6.2895 "/>
   <polygon id="_376497480" class="fil2" points="5.3878,8.9284 5.3438,8.9284 5.3438,8.8845 5.2999,8.8845 5.2999,8.9724 5.3878,8.9724 "/>
   <polygon id="_376497000" class="fil4" points="4.4642,11.1276 4.4202,11.1276 4.4202,11.0836 4.3763,11.0836 4.3763,11.1715 4.4642,11.1715 "/>
  </g>
 </g>
</svg>
