<?xml version="1.0" encoding="UTF-8"?>
<!DOCTYPE svg PUBLIC "-//W3C//DTD SVG 1.1//EN" "http://www.w3.org/Graphics/SVG/1.1/DTD/svg11.dtd">
<!-- Creator: CorelDRAW -->
<svg xmlns="http://www.w3.org/2000/svg" xml:space="preserve" width="16.9332mm" height="16.9332mm" style="shape-rendering:geometricPrecision; text-rendering:geometricPrecision; image-rendering:optimizeQuality; fill-rule:evenodd; clip-rule:evenodd"
viewBox="0 0 16.9332 16.9332"
 xmlns:xlink="http://www.w3.org/1999/xlink">
 <defs>
  <style type="text/css">
   <![CDATA[
    .fil1 {fill:#020202}
    .fil2 {fill:#080808}
    .fil3 {fill:#09090A}
    .fil19 {fill:#353535}
    .fil23 {fill:#515151}
    .fil22 {fill:#545454}
    .fil16 {fill:#59595B}
    .fil9 {fill:#5E5E60}
    .fil26 {fill:#636363}
    .fil30 {fill:#666668}
    .fil14 {fill:#6B6B6C}
    .fil15 {fill:#6F6F6F}
    .fil20 {fill:#727272}
    .fil12 {fill:#737375}
    .fil8 {fill:#757576}
    .fil17 {fill:#777778}
    .fil25 {fill:#787878}
    .fil4 {fill:#7A7A7A}
    .fil5 {fill:#7D7D7D}
    .fil6 {fill:#7E7E7E}
    .fil11 {fill:#818181}
    .fil7 {fill:#838385}
    .fil21 {fill:#848484}
    .fil28 {fill:#888888}
    .fil31 {fill:#8A8A8A}
    .fil13 {fill:#8D8D8D}
    .fil18 {fill:#929292}
    .fil24 {fill:#939395}
    .fil27 {fill:#969696}
    .fil10 {fill:#99999A}
    .fil32 {fill:#A6A6A8}
    .fil29 {fill:#AAAAAA}
    .fil0 {fill:#F2F2F5}
   ]]>
  </style>
 </defs>
 <g id="Capa_x0020_1">
  <metadata id="CorelCorpID_0Corel-Layer"/>
  <g id="_376866136">
   <path id="_376863952" class="fil0" d="M8.7982 16.2057l0.2176 0.0482c-0.0607,0.1082 -0.1601,0.1233 -0.3058,0.1444 -0.2219,0.0322 -0.305,0.0466 -0.4365,-0.0278l-0.2489 -0.0268c-0.0805,-0.0227 -0.0089,0.0226 -0.1044,-0.0338 -0.069,-0.0406 -0.0349,-0.0252 -0.0762,-0.0647l-0.0464 -0.0832c0.3305,0.0161 0.6625,0.0887 1.0006,0.0437zm-0.8865 -1.3847c0.0224,-0.0119 -0.0085,-0.035 0.1423,-0.0498 0.0854,-0.0084 0.0851,0.0061 0.1592,0.0203 0.0413,0.1603 0.0207,0.0304 -0.0471,0.0776 -1.1848,0.3081 -0.8715,0.3315 -1.8581,-0.3165 0.2099,0.1405 0.2789,0.2969 0.6719,0.3377 0.334,0.0346 0.6167,-0.0478 0.9318,-0.0693zm-2.1961 -2.6268c-0.0117,0.7244 0.4297,0.6196 0.8901,0.5714 0.2037,-0.0214 0.2958,-0.0564 0.4202,0.0192 -0.3993,0.0887 -1.3568,0.4493 -1.3919,-0.2303 -0.0906,-0.1142 -0.0808,-0.3649 0.0301,-0.4802l0.0515 0.1199zm5.1894 0.3c-0.0755,0.0881 0.0261,0.0354 -0.0725,0.0221 -0.0468,-0.0064 -0.0238,-0.0046 -0.0389,-0.0517 -0.0151,-0.287 -0.0992,-0.5653 0.0143,-0.8665l0.1009 0.1535c0.0383,0.1007 0.0077,0.6212 -0.0038,0.7426zm-0.2563 -2.068c-0.1161,-0.0639 -0.122,-0.1021 -0.1613,-0.2642 -0.0486,-0.2005 -0.0379,-0.8466 0.1211,-1.0108l0.0402 1.275zm-5.0654 -0.3675c0.1453,0.0376 0.2201,0.0302 0.3265,0.122l0.2309 -0.0029 0.1083 0.0287c0.041,0.1532 0.017,0.0301 -0.0402,0.0814 -0.4435,0.0848 -0.9835,-0.0219 -0.9948,-0.4618 0.223,0.1542 0.1739,0.194 0.3693,0.2326zm2.3774 -8.6731l0.0147 0.8113c0.0612,0.125 0.0999,0.4746 0.0867,0.6117l0.088 0.4495c-0.0003,0.2369 0.0933,0.4323 0.2255,0.5515 0.1887,0.0145 0.1825,-0.025 0.3246,-0.0884 0.052,-0.0637 -0.0669,-0.041 0.1181,-0.0787 -0.0246,0.1554 0.0071,0.0487 -0.0676,0.09 -0.0603,0.1023 -0.2279,0.2571 -0.4376,0.1837 -0.1448,-0.0506 -0.21,-0.2017 -0.265,-0.3492 -0.0891,-0.1523 -0.0932,-0.2593 -0.1198,-0.4437 -0.0161,-0.3158 -0.0926,-0.5834 -0.1072,-0.945 -0.0076,-0.1883 0,-0.3728 0.0164,-0.5602 0.0134,-0.1537 0.0623,-0.2521 0.0734,-0.3977l0.0294 -0.1243 0.0989 -0.0794 -0.0178 0.1407c-0.0031,0.0428 -0.0032,0.096 -0.0151,0.1414 -0.0188,0.0719 -0.0218,0.0515 -0.0456,0.0868zm-0.1788 -0.658c-0.0083,0.0495 -0.0105,0.102 -0.0262,0.1505 -0.0592,0.182 -0.022,0.0547 -0.0684,0.1127l-0.0054 0.2405c-0.002,0.3966 -0.0468,0.7552 -0.0319,1.1863 0.0132,0.383 0.0282,0.7355 0.0421,1.1164 0.0125,0.3462 0.0228,1.4135 -0.0024,1.7729 -0.0059,0.0849 -0.027,0.1683 -0.0432,0.2544 -0.0477,0.2537 -0.0506,0.1776 -0.0774,0.2155 -0.1273,1.48 -0.9212,1.8448 -1.7385,2.4695 -1.307,0.9989 -0.7123,2.8021 -0.8344,3.2142 0.0551,0.0684 0.0289,-0.0194 0.0665,0.128 0.0016,0.0064 0.0145,0.14 0.0162,0.1573 0.0089,0.0924 0.023,0.1921 0.0303,0.2963l0.0225 0.2602c0.0584,0.0719 -0.0085,-0.0567 0.0549,0.0825 0.0053,0.0115 0.0156,0.0477 0.0199,0.0607 0.0173,0.0526 0.0351,0.1262 0.0526,0.182 -0.0167,0.1522 0.2054,0.6606 0.2572,0.868 0.0463,0.1857 0.1414,0.8011 0.1444,0.985 0.0752,0.1219 0.0575,0.1178 0.0914,0.2687 0.1187,0.2426 0.2202,0.2874 0.4631,0.435 1.0509,0.6383 0.6974,1.2435 1.2525,1.4252 0.5437,0.1779 2.4989,-0.2145 3.1168,-0.3158 0.0643,-0.0403 -0.0662,-0.0041 0.0949,-0.0508 0.073,-0.0212 0.028,-0.007 0.1245,-0.0201 1.2497,-0.4354 1.3851,-1.6324 0.921,-1.8414 -0.3893,0.309 -0.6345,0.5595 -1.145,0.6926 -0.6382,0.1663 -1.0274,0.075 -1.6686,0.1033l-0.1119 -0.0398c0.0839,-0.1051 0.077,-0.0747 0.2253,-0.1186 0.1827,0.1076 0.7619,-0.0921 1.0081,-0.0608 0.0904,-0.066 -0.0542,0.0045 0.0958,-0.0597 0.0109,-0.0047 0.0478,-0.0155 0.0648,-0.0202 0.0595,-0.0163 0.1249,-0.0206 0.1844,-0.0301l0.0144 0.0144c0.0396,-0.0283 -0.0358,-0.0112 0.1184,-0.0658 0.0549,-0.0194 0.0639,-0.0115 0.1145,-0.0216 0.3723,-0.1083 0.8107,-0.5132 0.999,-0.7352 0.193,-0.2275 0.719,-0.8485 0.1806,-1.0977 -0.1645,0.0864 -0.2651,0.1919 -0.4909,0.2834 -0.0262,0.0183 -0.0324,0.0265 -0.095,0.0544 -0.0094,0.0041 -0.0321,0.0212 -0.0395,0.0105 -0.0075,-0.0111 -0.0276,0.0053 -0.0414,0.0081l-0.2864 0.0699c-0.0694,0.0544 0.0702,0.0024 -0.1145,0.0637 -0.0087,0.0028 -0.0907,0.0177 -0.0951,0.0186 -0.079,0.0167 -0.1559,0.0348 -0.2348,0.0517l-1.4337 -0.0109c-0.2295,0.0038 -0.4935,0.0137 -0.6504,-0.0783l-0.8915 -0.064c-0.0744,-0.0018 -0.1304,0.0016 -0.2087,-0.0149 -0.0456,-0.0097 -0.0515,-0.015 -0.0898,-0.0322 -0.0064,-0.0029 -0.0209,-0.0055 -0.0253,-0.0183 -0.0047,-0.0133 -0.0167,-0.0139 -0.0254,-0.0205 0.3943,-0.1567 1.7222,-0.0453 2.1705,-0.03 0.2615,0.0089 0.516,-0.0247 0.7666,-0.0215 0.2307,0.0245 0.5842,-0.0568 0.7886,-0.1165l0.2173 -0.0743c1.0078,-0.2621 1.4543,-1.6965 0.3408,-1.9673l-0.183 0.0938c-0.0246,0.0193 -0.0344,0.0319 -0.0798,0.0583 -0.0558,0.0322 -0.0499,0.0211 -0.0958,0.0386l-0.2241 0.0373c-0.12,0.145 -0.4483,0.1291 -0.6519,0.1436 -0.1945,0.0139 -0.5206,0.0316 -0.7141,-0.0138l-0.0606 -0.0288 -1.0649 -0.0932c-0.0817,-0.0087 -0.1705,-0.0234 -0.2548,-0.0398 -0.0975,-0.019 -0.0244,0.0042 -0.0978,-0.021 -0.1552,-0.0532 -0.0134,0.003 -0.0877,-0.0522l-0.3693 -0.0416c-0.0988,-0.0894 -0.0996,0.0797 -0.0762,-0.1045l0.1978 -0.0432 0.0324 0.009c0.1135,-0.058 0.1333,-0.0473 0.2613,-0.0512 0.1454,-0.0045 0.129,0.0175 0.2464,-0.038 -0.0617,-0.0021 -0.1121,0.0027 -0.1838,-0.016 -0.1575,-0.0411 -0.0993,-0.0435 -0.138,-0.0796l-0.4897 -0.0803 -0.5161 -0.1209c0.1379,-0.1124 0.311,-0.1009 0.5245,-0.0568l0.1242 0.0493 0.8666 0.094c0.0832,0.0092 0.1754,0.0179 0.2603,0.032 0.039,0.0065 0.0597,0.0082 0.1011,0.0218 0.104,0.034 0.0614,0.0306 0.0902,0.0492 0.3776,-0.0037 0.8675,0.1252 1.6657,0.0962 1.2099,-0.0439 1.9886,-1.0574 1.2653,-1.6495 -0.2221,-0.1818 -0.872,-0.4863 -1.1837,-0.5134 -0.0554,-0.0115 -0.1215,-0.0171 -0.1767,-0.0352 -0.2062,-0.0674 -0.0751,-0.0208 -0.1477,-0.0972 -0.1602,0.0368 -0.3636,-0.0652 -0.5335,-0.0836 -0.2659,-0.0255 -0.4425,-0.0534 -0.5483,-0.1295l-0.7348 -0.1035c-0.1653,-0.0117 -0.2679,-0.0356 -0.431,-0.0669l-0.2957 -0.0609c-0.0879,-0.0358 -0.0257,-0.0074 -0.0765,-0.0571l-0.3889 -0.0958c-0.0993,-0.0775 -0.055,0.1105 -0.0881,-0.1025l0.4714 0.0482 0.1449 0.0481 0.9178 0.0709c0.1555,0.0046 0.1845,0.0557 0.1716,-0.0678 -0.114,-0.0244 -0.3052,-0.231 -0.3474,-0.3152 -0.0802,-0.0812 -0.0281,0.1085 -0.076,-0.1095 0.1804,0.0517 0.0773,0.0016 0.1428,0.1053 0.0939,0.0094 0.3225,0.1948 0.4123,0.2664 0.1559,0.1241 0.1488,0.1989 0.4332,0.2153 0.1471,0.0082 0.1825,-0.0031 0.3113,0.0397l0.0636 0.0332 0.6766 0.1186c0.051,0.0072 0.1042,0.0087 0.1593,0.0233 0.1946,0.0518 0.0648,0.0241 0.1233,0.0596l0.0043 -0.0096 0.1184 0.0129 -0.001 -0.1338c-0.0059,-0.3396 -0.1801,-0.8391 -0.2907,-1.1205 -0.0708,-0.18 -0.1206,-0.324 -0.2544,-0.4635 -0.1622,-0.1693 -0.2791,-0.1603 -0.3413,-0.3624 -0.0882,-0.0387 -0.0124,-0.0325 -0.1346,-0.0134l-0.1529 0.0403c-0.0662,0.0567 0.0425,0.0153 -0.1162,0.0765 -0.0966,0.0373 -0.0137,0.0018 -0.1152,0.0184 -0.1552,0.0006 -0.1416,0.03 -0.2612,-0.037l0.1133 -0.0545c0.2945,-0.1019 0.6356,-0.3009 0.655,-0.3045 0.0653,-0.2202 0.0283,-0.2474 0.0151,-0.4771l-0.0132 -0.2311 -0.1283 -0.3278c0.0391,-0.1952 -0.1185,-0.4528 -0.1398,-0.6765 -0.0269,-0.2839 0.0127,-0.5263 0.0693,-0.7805 0.2338,-1.0495 0.0271,-0.9648 0.0494,-1.4975 -0.033,-0.0384 -0.0243,-0.0103 -0.0552,-0.0793 -0.0052,-0.0118 -0.0172,-0.0512 -0.021,-0.0646 -0.0158,-0.0559 -0.0201,-0.1212 -0.0306,-0.1843l0.0146 -0.0145c-0.0783,-0.1111 -0.0686,-0.1232 -0.1038,-0.2503l0.0138 -0.0134 -0.0549 -0.0885c-0.0221,-0.045 -0.0247,-0.069 -0.0399,-0.113 -0.0397,-0.3577 -0.458,-0.7494 -0.7128,-0.8909 -0.4665,-0.2591 -0.9095,-0.0897 -1.0184,0.3311z"/>
   <path id="_374639304" class="fil1" d="M9.8112 5.0498c0.0717,0.065 0.0354,-0.0469 0.0995,0.1439 0.0196,0.0582 0.021,0.1254 0.0288,0.1839l0.0132 0.2311c0.0565,0.0635 0.0153,-0.0782 0.057,0.1168 0.0017,0.0079 0.0092,0.1111 0.0092,0.1214 -0.0003,0.1243 0.0073,0.1555 -0.0813,0.2389 -0.0194,0.0036 -0.3605,0.2026 -0.655,0.3045l-0.1133 0.0545c0.1196,0.067 0.106,0.0376 0.2612,0.037l0.2314 -0.0949 0.1529 -0.0403c0.0592,-0.0841 -0.0775,-0.0227 0.076,-0.0796 0.0649,0.0593 0.0365,-0.0791 0.0586,0.093 0.0622,0.2021 0.1791,0.1931 0.3413,0.3624 0.1338,0.1395 0.1836,0.2835 0.2544,0.4635 0.1106,0.2814 0.2848,0.7809 0.2907,1.1205 0.02,0.0323 0.0312,0.0182 0.0405,0.0909 0.0192,0.1489 -0.0022,0.0364 -0.0286,0.0947 -0.169,-0.0208 -0.089,-0.0237 -0.1293,-0.0647l-0.0043 0.0096c-0.0498,-0.0058 -0.1077,-0.0063 -0.1606,-0.0204 -0.1385,-0.0368 -0.097,-0.046 -0.122,-0.0625l-0.6766 -0.1186c-0.0445,-0.0029 -0.3216,-0.0177 -0.3388,-0.0557 -0.0071,-0.0157 -0.0241,-0.0114 -0.0361,-0.0172 -0.2844,-0.0164 -0.2773,-0.0912 -0.4332,-0.2153 -0.0898,-0.0716 -0.3184,-0.257 -0.4123,-0.2664 -0.0676,-0.0417 -0.0401,-0.0396 -0.0668,0.0042 0.0422,0.0842 0.2334,0.2908 0.3474,0.3152l0.0803 0.102c-0.1059,0.0225 -0.0486,0.0351 -0.16,0.0148 -0.184,-0.0334 -0.004,0.0099 -0.0919,-0.049l-0.9178 -0.0709c-0.1139,-0.0005 -0.4883,-0.0728 -0.5282,0.0062l0.3889 0.0958c0.1361,0.0274 0.2667,0.053 0.4059,0.0788 0.1704,0.0317 0.2852,0.038 0.3973,0.1061l0.7348 0.1035c0.1034,0.0128 0.1906,0.0284 0.2893,0.0467 0.0221,0.004 0.1203,0.0202 0.1343,0.0241l0.1247 0.0587c0.1699,0.0184 0.3733,0.1204 0.5335,0.0836 0.0571,0.0192 0.1318,0.0379 0.185,0.0558l0.1394 0.0766c0.3117,0.0271 0.9616,0.3316 1.1837,0.5134 0.7233,0.5921 -0.0554,1.6056 -1.2653,1.6495 -0.7982,0.029 -1.2881,-0.0999 -1.6657,-0.0962 -0.0843,-0.0062 -0.1762,-0.0143 -0.2612,-0.0287 -0.0367,-0.0062 -0.065,-0.0089 -0.1031,-0.0217 -0.1315,-0.0444 -0.0337,-0.0122 -0.0873,-0.0526l-0.8666 -0.094 -0.4875 -0.0218c0.1867,0.0606 0.2649,0.0613 0.3549,0.1502l0.4897 0.0803 0.3218 0.0956 0.1347 0.0064 0.2101 0.0615c-0.0903,0.0706 -0.2248,0.0512 -0.3095,0.0157l-0.543 0.0056 -0.0324 -0.009c-0.0877,0.0523 -0.0508,0.046 -0.1626,0.0632l0.041 0.0845 0.3693 0.0416c0.0653,0.0087 0.1576,0.0178 0.2226,0.0283 0.0332,0.0054 0.0698,0.0091 0.1034,0.0202 0.1875,0.062 0.0446,0.0069 0.1143,0.0645l1.0649 0.0932c0.264,-0.0114 0.4909,0.0302 0.7748,-0.0018 0.2418,-0.0273 0.4153,-0.0607 0.6518,-0.0992l0.2241 -0.0373c0.038,-0.0412 0.0065,-0.0325 0.0716,-0.065 0.0696,-0.0349 0.0239,-0.0107 0.104,-0.0319l0.183 -0.0938c1.1135,0.2708 0.667,1.7052 -0.3408,1.9673 -0.0435,0.044 0.0332,0.019 -0.0873,0.0553 -0.083,0.025 -0.0157,0.0079 -0.13,0.019 -0.2044,0.0597 -0.5579,0.141 -0.7886,0.1165 -0.2149,0.1313 -1.1649,0.0484 -1.4046,0.0435l-1.3796 -0.0076c0.1583,0.108 0.0405,0.0185 0.1963,0.1015l0.8915 0.064c0.1551,0.0036 0.5127,0.0158 0.6504,0.0783l1.4337 0.0109c0.082,-0.0784 -0.0191,-0.0202 0.0868,-0.065 0.0054,-0.0023 0.1079,-0.0301 0.1096,-0.0305 0.0782,-0.0175 0.1573,-0.0226 0.248,-0.0385l0.2864 -0.0699c0.0098,-0.0067 0.0227,-0.0298 0.029,-0.0206 0.0064,0.0093 0.0225,-0.0151 0.0311,-0.0184 0.0912,-0.0354 -0.0025,-0.0091 0.1158,-0.034 0.2258,-0.0915 0.3264,-0.197 0.4909,-0.2834 0.5384,0.2492 0.0124,0.8702 -0.1806,1.0977 -0.1883,0.222 -0.6267,0.6269 -0.999,0.7352 -0.025,0.0188 -0.0265,0.0346 -0.0829,0.0559 -0.0602,0.0228 -0.0909,0.0211 -0.15,0.0315l-0.0144 -0.0144 -0.1465 0.072c-0.0614,0.0167 -0.1363,0.0266 -0.1985,0.038 -0.2462,-0.0313 -0.8254,0.1684 -1.0081,0.0608 -0.0705,0.0701 0.0472,0.0386 -0.165,0.0972 0.1051,0.0404 -0.0006,-0.0026 0.0516,0.0612 0.6412,-0.0283 1.0304,0.063 1.6686,-0.1033 0.5105,-0.1331 0.7557,-0.3836 1.145,-0.6926 0.4641,0.209 0.3287,1.406 -0.921,1.8414 -0.0398,0.024 0.0156,0.0182 -0.0944,0.0503 -0.0925,0.0269 -0.031,0.0076 -0.125,0.0206 -0.6179,0.1013 -2.5731,0.4937 -3.1168,0.3158 -0.5551,-0.1817 -0.2016,-0.7869 -1.2525,-1.4252 -0.2429,-0.1476 -0.3444,-0.1924 -0.4631,-0.435 -0.0765,-0.0916 -0.0044,0.1051 -0.0702,-0.1085 -0.021,-0.0682 -0.0144,-0.0994 -0.0212,-0.1602 -0.003,-0.1839 -0.0981,-0.7993 -0.1444,-0.985 -0.0518,-0.2074 -0.2739,-0.7158 -0.2572,-0.868 -0.0633,-0.0618 -0.0344,0.0432 -0.0943,-0.1454 -0.0179,-0.0562 -0.0224,-0.1239 -0.0331,-0.1798l-0.0225 -0.2602 -0.0563 -0.1267c-0.0057,-0.0246 -0.0104,-0.1013 -0.014,-0.1319 -0.0123,-0.1075 -0.0298,-0.2149 -0.0427,-0.323 0.1221,-0.4121 -0.4726,-2.2153 0.8344,-3.2142 0.8173,-0.6247 1.6112,-0.9895 1.7385,-2.4695 0.1066,-0.7702 0.1162,-1.4811 0.0747,-2.2832 -0.0082,-0.1586 -0.1457,-2.1584 0.0381,-2.2623l0.0054 -0.2405c0.0086,-0.0436 0.0145,-0.101 0.0301,-0.1485 0.0651,-0.1977 0.0128,-0.0415 0.0645,-0.1147 0.1089,-0.4208 0.5519,-0.5902 1.0184,-0.3311 0.2548,0.1415 0.6731,0.5332 0.7128,0.8909 0.0381,0.0417 0.0368,0.0256 0.068,0.0856 0.034,0.0656 0.0152,0.0242 0.0268,0.1159l-0.0138 0.0134c0.0428,0.0424 0.0253,-0.0208 0.0755,0.1025 0.0186,0.0459 0.0196,0.1004 0.0283,0.1478l-0.0146 0.0145c0.0406,0.0575 -0.0032,-0.0443 0.0531,0.0851 0.0051,0.0116 0.016,0.0474 0.0199,0.0604 0.0176,0.0604 0.0249,0.1249 0.0338,0.1827 -0.0223,0.5327 0.1844,0.448 -0.0494,1.4975 -0.0566,0.2542 -0.0962,0.4966 -0.0693,0.7805 0.0213,0.2237 0.1789,0.4813 0.1398,0.6765zm-2.262 -4.4324c-0.0068,0.0299 -0.0279,0.1459 -0.0394,0.1739 -0.078,0.1895 0.008,0.0225 -0.0867,0.1192 0.0289,0.0948 -0.0443,0.7263 -0.0442,0.9089 0,0.2959 0.0465,0.7039 0.0163,0.9689 0.1179,0.1195 0.1256,1.5099 0.1183,1.6267 -0.0271,0.2106 -0.0371,0.4867 -0.0595,0.7132 -0.0211,0.2148 -0.063,0.4306 -0.0682,0.628 -0.0138,0.1439 -0.02,0.2276 -0.0858,0.3312 -0.0042,0.0568 0.0113,0.0507 -0.0183,0.1395 -0.0691,0.2072 -0.0041,0.0262 -0.0706,0.1096 -0.0616,0.2881 -0.3403,0.6827 -0.49,0.8465 -0.4841,0.53 -1.674,0.9026 -1.9684,2.0806 -0.0099,0.0568 -0.0146,0.124 -0.0358,0.1791 -0.0698,0.1804 0.0053,0.0276 -0.0741,0.0999l-0.0029 0.2054c-0.0159,0.5614 0.0135,0.9839 0.0346,1.5353l0.0258 0.4487 0.1262 0.4978c-0.0373,0.1241 0.0165,0.1706 0.0331,0.303l0.1062 0.2457 0.2 0.6499c0.0699,0.0556 0.0142,-0.0794 0.0787,0.0968 0.0199,0.0545 0.0173,0.1047 0.0235,0.1566l0.0435 0.3068c0.0054,0.0118 0.0139,0.0157 0.0161,0.0355l0.0383 0.1345c0.0114,0.0688 0.0134,0.1368 0.0185,0.2049l0.0357 0.2394 0.0969 0.2184c0.1459,0.4905 0.5786,0.3759 1.0434,0.8952 0.5512,0.6159 0.0112,1.5491 2.5409,1.0974 0.5466,-0.0976 1.0837,-0.1177 1.627,-0.2534 0.0848,-0.047 -0.1257,0.0153 0.0976,-0.0474 0.0664,-0.0187 0.057,-0.0106 0.1228,-0.0209 0.5133,-0.1423 0.891,-0.4944 1.1214,-0.8934 0.3282,-0.5684 0.2903,-1.0559 -0.1041,-1.4582 0.3724,-0.7001 0.6173,-0.9143 0.086,-1.4355 0.197,-0.4381 0.4773,-1.018 0.0539,-1.5371 -0.0955,-0.1171 -0.2906,-0.2339 -0.3533,-0.337l0.588 -1.1982c-0.056,-0.4313 -0.4602,-0.7531 -0.8391,-0.9108 -0.0895,-0.0252 -0.0229,0.0081 -0.104,-0.0341 -0.1078,-0.0563 -0.02,-0.0101 -0.0707,-0.0661 -0.2411,-0.0352 -0.1504,-0.2515 -0.192,-0.5068 -0.0309,-0.1897 -0.0807,-0.3799 -0.1325,-0.5561 -0.0062,-0.0109 -0.0153,-0.0231 -0.0195,-0.032 -0.0743,-0.1577 -0.0358,-0.0741 -0.0572,-0.1835 -0.0855,-0.4727 -0.4748,-0.9102 -0.5818,-1.1094 -0.058,-0.1079 -0.0482,-0.587 -0.09,-0.7955 -0.0454,-0.2265 -0.1139,-0.4372 -0.1623,-0.6475 -0.0236,-0.0343 -0.0157,0.0289 -0.0643,-0.121 -0.0136,-0.0417 -0.0116,-0.0767 -0.0184,-0.1189 -0.0564,-0.3799 -0.0568,-0.5971 0.0404,-0.9815 0.0991,-0.392 0.0632,-0.6073 0.1047,-1.0022 -0.0844,-0.1004 -0.1082,-0.4309 -0.1286,-0.5717l-0.0491 -0.3227c-0.0258,-0.0353 -0.0154,0.0112 -0.0659,-0.1127 -0.0173,-0.0425 -0.0258,-0.0915 -0.0383,-0.1344l0.014 -0.0183c-0.0452,-0.0691 0.0237,0.07 -0.0533,-0.0869 -0.0284,-0.0577 -0.0196,-0.0543 -0.0352,-0.1017 -0.0984,-0.4666 -0.5511,-0.9296 -0.9521,-1.1101 -0.6121,-0.2755 -1.1719,0.0003 -1.2962,0.5085z"/>
   <path id="_374639232" class="fil2" d="M7.9283 3.1233c0.0345,0.0515 0.0018,-0.0466 0.05,0.0908 0.0038,0.011 0.0227,0.0926 0.0233,0.095 0.0261,0.1091 0.0345,0.1491 0.0465,0.2579 0.055,0.1475 0.1202,0.2986 0.265,0.3492 0.2097,0.0734 0.3773,-0.0814 0.4376,-0.1837l-0.0505 -0.0113c-0.1421,0.0634 -0.1359,0.1029 -0.3246,0.0884 -0.1322,-0.1192 -0.2258,-0.3146 -0.2255,-0.5515 -0.0291,-0.0431 -0.0076,0.0359 -0.0475,-0.0864 -0.011,-0.0338 -0.0162,-0.0682 -0.0223,-0.1024 -0.0186,-0.1035 -0.0215,-0.1661 -0.0182,-0.2607 -0.0835,-0.1623 -0.0805,-0.41 -0.0867,-0.6117l-0.0147 -0.8113c-0.0073,-0.1291 0.0398,-0.1849 -0.0498,-0.1652 -0.0111,0.1456 -0.06,0.244 -0.0734,0.3977 -0.0164,0.1874 -0.024,0.3719 -0.0164,0.5602 0.0146,0.3616 0.0911,0.6292 0.1072,0.945z"/>
   <path id="_375511424" class="fil3" d="M5.634 12.5545c0.0351,0.6796 0.9926,0.319 1.3919,0.2303 -0.1244,-0.0756 -0.2165,-0.0406 -0.4202,-0.0192 -0.4604,0.0482 -0.9018,0.153 -0.8901,-0.5714 -0.0812,0.0047 -0.0813,-0.1111 -0.0972,0.1457 -0.0035,0.0563 0.0112,0.154 0.0156,0.2146z"/>
   <path id="_374635920" class="fil4" d="M7.5691 5.7768c0.0268,-0.0379 0.0297,0.0382 0.0774,-0.2155 0.0162,-0.0861 0.0373,-0.1695 0.0432,-0.2544 0.0252,-0.3594 0.0149,-1.4267 0.0024,-1.7729 -0.0139,-0.3809 -0.0289,-0.7334 -0.0421,-1.1164 -0.0149,-0.4311 0.0299,-0.7897 0.0319,-1.1863 -0.1838,0.1039 -0.0463,2.1037 -0.0381,2.2623 0.0415,0.8021 0.0319,1.513 -0.0747,2.2832z"/>
   <path id="_374413000" class="fil2" d="M8.1661 14.8691c-0.0785,-0.0873 -0.0967,-0.0507 -0.2544,-0.0481 -0.3151,0.0215 -0.5978,0.1039 -0.9318,0.0693 -0.393,-0.0408 -0.462,-0.1972 -0.6719,-0.3377 0.9866,0.648 0.6733,0.6246 1.8581,0.3165z"/>
   <path id="_376854616" class="fil5" d="M7.4315 13.3492c-0.1558,-0.083 -0.038,0.0065 -0.1963,-0.1015l1.3796 0.0076c0.2397,0.0049 1.1897,0.0878 1.4046,-0.0435 -0.2506,-0.0032 -0.5051,0.0304 -0.7666,0.0215 -0.4483,-0.0153 -1.7762,-0.1267 -2.1705,0.03 0.0087,0.0066 0.0207,0.0072 0.0254,0.0205 0.0044,0.0128 0.0189,0.0154 0.0253,0.0183 0.0383,0.0172 0.0442,0.0225 0.0898,0.0322 0.0783,0.0165 0.1343,0.0131 0.2087,0.0149z"/>
   <path id="_376855240" class="fil3" d="M10.6487 10.4262l-0.0402 -1.275c-0.159,0.1642 -0.1697,0.8103 -0.1211,1.0108 0.0393,0.1621 0.0452,0.2003 0.1613,0.2642z"/>
   <path id="_376855024" class="fil2" d="M6.2088 10.2879c-0.0268,-0.0489 -0.0259,-0.0565 -0.0681,-0.1101l-0.2309 0.0029c-0.0564,-0.0123 -0.14,-0.0262 -0.1943,-0.0436l-0.108 -0.0566c-0.0044,-0.0135 -0.016,-0.0147 -0.0242,-0.0218 -0.1954,-0.0386 -0.1463,-0.0784 -0.3693,-0.2326 0.0113,0.4399 0.5513,0.5466 0.9948,0.4618z"/>
   <path id="_376855168" class="fil2" d="M7.844 16.2452c0.0593,0.0202 0.0471,0.0091 0.1022,0.037 0.054,0.0274 0.0496,0.0356 0.0784,0.0615l0.2489 0.0268 0.6957 -0.0825 -0.171 -0.0823c-0.3381,0.045 -0.6701,-0.0276 -1.0006,-0.0437l0.0464 0.0832z"/>
   <path id="_376855264" class="fil2" d="M10.7936 12.4646l0.1114 0.0296c0.0115,-0.1214 0.0421,-0.6419 0.0038,-0.7426l-0.1009 -0.1535c-0.1135,0.3012 -0.0294,0.5795 -0.0143,0.8665z"/>
   <path id="_376855144" class="fil6" d="M7.5135 4.415c0.0073,-0.1168 -0.0004,-1.5072 -0.1183,-1.6267l0.0793 1.5415c0.0154,0.0709 0.0168,0.0498 0.039,0.0852z"/>
   <path id="_376855456" class="fil7" d="M4.6745 11.2833c-0.0211,-0.5514 -0.0505,-0.9739 -0.0346,-1.5353 -0.0447,0.0715 0.0008,-0.0635 -0.0427,0.0875 -0.0439,0.1523 -0.0279,1.2608 0.0773,1.4478z"/>
   <path id="_376856032" class="fil8" d="M9.3568 11.3827l0.0606 0.0288c0.1935,0.0454 0.5196,0.0277 0.7141,0.0138 0.2036,-0.0145 0.5319,0.0014 0.6519,-0.1436 -0.2365,0.0385 -0.41,0.0719 -0.6518,0.0992 -0.2839,0.032 -0.5108,-0.0096 -0.7748,0.0018z"/>
   <path id="_376856296" class="fil9" d="M7.3325 10.7311c-0.09,-0.0889 -0.1682,-0.0896 -0.3549,-0.1502l0.4875 0.0218 -0.1242 -0.0493c-0.2135,-0.0441 -0.3866,-0.0556 -0.5245,0.0568l0.5161 0.1209z"/>
   <path id="_376856248" class="fil5" d="M8.2735 16.3705c0.1315,0.0744 0.2146,0.06 0.4365,0.0278 0.1457,-0.0211 0.2451,-0.0362 0.3058,-0.1444l-0.2176 -0.0482 0.171 0.0823 -0.6957 0.0825z"/>
   <path id="_376855936" class="fil10" d="M7.6363 10.9962l0.543 -0.0056 0.1387 -0.0098 -0.0393 -0.0674 -0.1347 -0.0064c-0.1174,0.0555 -0.101,0.0335 -0.2464,0.038 -0.128,0.0039 -0.1478,-0.0068 -0.2613,0.0512z"/>
   <path id="_376856512" class="fil11" d="M8.3896 8.284c-0.1121,-0.0681 -0.2269,-0.0744 -0.3973,-0.1061 -0.1392,-0.0258 -0.2698,-0.0514 -0.4059,-0.0788 0.0508,0.0497 -0.0114,0.0213 0.0765,0.0571l0.2957 0.0609c0.1631,0.0313 0.2657,0.0552 0.431,0.0669z"/>
   <path id="_376856416" class="fil8" d="M8.9734 13.4915c-0.1377,-0.0625 -0.4953,-0.0747 -0.6504,-0.0783 0.1569,0.092 0.4209,0.0821 0.6504,0.0783z"/>
   <path id="_376857016" class="fil12" d="M10.1539 2.5674c-0.0002,-0.1147 -0.0198,-0.1869 -0.037,-0.3037 -0.0018,-0.012 -0.0164,-0.1269 -0.0178,-0.1326 -0.0443,-0.1747 -0.0259,-0.0898 -0.0738,-0.1354 0.0204,0.1408 0.0442,0.4713 0.1286,0.5717z"/>
   <path id="_376856584" class="fil7" d="M7.1975 8.0033c0.0399,-0.079 0.4143,-0.0067 0.5282,-0.0062l-0.1449 -0.0481 -0.4714 -0.0482c0.0331,0.213 -0.0112,0.025 0.0881,0.1025z"/>
   <path id="_376856704" class="fil12" d="M8.0621 2.8086c0.0132,-0.1371 -0.0255,-0.4867 -0.0867,-0.6117 0.0062,0.2017 0.0032,0.4494 0.0867,0.6117z"/>
   <path id="_376857160" class="fil13" d="M5.1092 12.0421c-0.0073,-0.1042 -0.0214,-0.2039 -0.0303,-0.2963 -0.0017,-0.0173 -0.0146,-0.1509 -0.0162,-0.1573 -0.0376,-0.1474 -0.0114,-0.0596 -0.0665,-0.128 0.0129,0.1081 0.0304,0.2155 0.0427,0.323 0.0036,0.0306 0.0083,0.1073 0.014,0.1319l0.0563 0.1267z"/>
   <path id="_376856776" class="fil11" d="M9.6727 8.517l-0.1247 -0.0587c-0.014,-0.0039 -0.1122,-0.0201 -0.1343,-0.0241 -0.0987,-0.0183 -0.1859,-0.0339 -0.2893,-0.0467 0.1058,0.0761 0.2824,0.104 0.5483,0.1295z"/>
   <path id="_376857256" class="fil14" d="M5.634 12.5545c-0.0044,-0.0606 -0.0191,-0.1583 -0.0156,-0.2146 0.0159,-0.2568 0.016,-0.141 0.0972,-0.1457l-0.0515 -0.1199c-0.1109,0.1153 -0.1207,0.366 -0.0301,0.4802z"/>
   <path id="_376857520" class="fil8" d="M9.9376 6.0858c0.0886,-0.0834 0.081,-0.1146 0.0813,-0.2389 0,-0.0103 -0.0075,-0.1135 -0.0092,-0.1214 -0.0417,-0.195 -0.0005,-0.0533 -0.057,-0.1168 0.0132,0.2297 0.0502,0.2569 -0.0151,0.4771z"/>
   <path id="_376857448" class="fil15" d="M8.7833 10.7997c-0.0288,-0.0186 0.0138,-0.0152 -0.0902,-0.0492 -0.0414,-0.0136 -0.0621,-0.0153 -0.1011,-0.0218 -0.0849,-0.0141 -0.1771,-0.0228 -0.2603,-0.032 0.0536,0.0404 -0.0442,0.0082 0.0873,0.0526 0.0381,0.0128 0.0664,0.0155 0.1031,0.0217 0.085,0.0144 0.1769,0.0225 0.2612,0.0287z"/>
   <path id="_376857400" class="fil12" d="M10.4071 13.5024c0.0789,-0.0169 0.1558,-0.035 0.2348,-0.0517 0.0044,-0.0009 0.0864,-0.0158 0.0951,-0.0186 0.1847,-0.0613 0.0451,-0.0093 0.1145,-0.0637 -0.0907,0.0159 -0.1698,0.021 -0.248,0.0385 -0.0017,0.0004 -0.1042,0.0282 -0.1096,0.0305 -0.1059,0.0448 -0.0048,-0.0134 -0.0868,0.065z"/>
   <path id="_376857904" class="fil5" d="M8.2919 11.2895c-0.0697,-0.0576 0.0732,-0.0025 -0.1143,-0.0645 -0.0336,-0.0111 -0.0702,-0.0148 -0.1034,-0.0202 -0.065,-0.0105 -0.1573,-0.0196 -0.2226,-0.0283 0.0743,0.0552 -0.0675,-0.001 0.0877,0.0522 0.0734,0.0252 0.0003,0.002 0.0978,0.021 0.0843,0.0164 0.1731,0.0311 0.2548,0.0398z"/>
   <path id="_376857544" class="fil16" d="M7.9109 1.2204c0.0896,-0.0197 0.0425,0.0361 0.0498,0.1652 0.0238,-0.0353 0.0268,-0.0149 0.0456,-0.0868 0.0119,-0.0454 0.012,-0.0986 0.0151,-0.1414 -0.011,-0.0997 0.0166,-0.08 -0.0811,-0.0613l-0.0294 0.1243z"/>
   <path id="_376857328" class="fil5" d="M4.8265 12.2298l-0.1262 -0.4978c0.003,0.0885 0.0054,0.1847 0.02,0.2741 0.0053,0.0327 0.0226,0.1064 0.0364,0.1361 0.0474,0.1021 -0.0073,0.0096 0.0698,0.0876z"/>
   <path id="_376858384" class="fil17" d="M8.0481 3.567c-0.012,-0.1088 -0.0204,-0.1488 -0.0465,-0.2579 -0.0006,-0.0024 -0.0195,-0.084 -0.0233,-0.095 -0.0482,-0.1374 -0.0155,-0.0393 -0.05,-0.0908 0.0266,0.1844 0.0307,0.2914 0.1198,0.4437z"/>
   <path id="_376858360" class="fil18" d="M8.1661 14.8691c0.0678,-0.0472 0.0884,0.0827 0.0471,-0.0776 -0.0741,-0.0142 -0.0738,-0.0287 -0.1592,-0.0203 -0.1508,0.0148 -0.1199,0.0379 -0.1423,0.0498 0.1577,-0.0026 0.1759,-0.0392 0.2544,0.0481z"/>
   <path id="_376858792" class="fil19" d="M8.1793 10.9906c0.0847,0.0355 0.2192,0.0549 0.3095,-0.0157l-0.2101 -0.0615 0.0393 0.0674 -0.1387 0.0098z"/>
   <path id="_376858672" class="fil20" d="M5.2591 12.6275c-0.0175,-0.0558 -0.0353,-0.1294 -0.0526,-0.182 -0.0043,-0.013 -0.0146,-0.0492 -0.0199,-0.0607 -0.0634,-0.1392 0.0035,-0.0106 -0.0549,-0.0825 0.0107,0.0559 0.0152,0.1236 0.0331,0.1798 0.0599,0.1886 0.031,0.0836 0.0943,0.1454z"/>
   <path id="_376858480" class="fil20" d="M9.7901 2.0953c-0.0089,-0.0578 -0.0162,-0.1223 -0.0338,-0.1827 -0.0039,-0.013 -0.0148,-0.0488 -0.0199,-0.0604 -0.0563,-0.1294 -0.0125,-0.0276 -0.0531,-0.0851 0.0105,0.0631 0.0148,0.1284 0.0306,0.1843 0.0038,0.0134 0.0158,0.0528 0.021,0.0646 0.0309,0.069 0.0222,0.0409 0.0552,0.0793z"/>
   <path id="_376858216" class="fil20" d="M9.7549 8.2354l-0.0636 -0.0332c-0.1288,-0.0428 -0.1642,-0.0315 -0.3113,-0.0397 0.012,0.0058 0.029,0.0015 0.0361,0.0172 0.0172,0.038 0.2943,0.0528 0.3388,0.0557z"/>
   <path id="_376858864" class="fil17" d="M10.5306 8.733l-0.1394 -0.0766c-0.0532,-0.0179 -0.1279,-0.0366 -0.185,-0.0558 0.0726,0.0764 -0.0585,0.0298 0.1477,0.0972 0.0552,0.0181 0.1213,0.0237 0.1767,0.0352z"/>
   <path id="_376859392" class="fil13" d="M8.9113 15.1772c-0.0522,-0.0638 0.0535,-0.0208 -0.0516,-0.0612 0.2122,-0.0586 0.0945,-0.0271 0.165,-0.0972 -0.1483,0.0439 -0.1414,0.0135 -0.2253,0.1186l0.1119 0.0398z"/>
   <path id="_376859296" class="fil21" d="M5.3844 14.3635c-0.0051,-0.0681 -0.0071,-0.1361 -0.0185,-0.2049l-0.0383 -0.1345c-0.0022,-0.0198 -0.0107,-0.0237 -0.0161,-0.0355 0.006,0.1759 -0.0082,0.2298 0.0729,0.3749z"/>
   <path id="_376859152" class="fil7" d="M7.4231 0.9105c0.0947,-0.0967 0.0087,0.0703 0.0867,-0.1192 0.0115,-0.028 0.0326,-0.144 0.0394,-0.1739 -0.0548,0.0666 0.0026,-0.0648 -0.0684,0.1058 -0.0245,0.059 -0.0391,0.1266 -0.0577,0.1873z"/>
   <path id="_376859368" class="fil12" d="M7.3 6.0874c0.0658,-0.1036 0.072,-0.1873 0.0858,-0.3312 -0.0163,0.025 -0.0187,0.0074 -0.0501,0.0894 -0.0216,0.0567 -0.0085,0.0219 -0.0185,0.0645 -0.0142,0.0602 -0.0139,0.1223 -0.0172,0.1773z"/>
   <path id="_376859560" class="fil4" d="M10.0328 14.958c0.0622,-0.0114 0.1371,-0.0213 0.1985,-0.038l0.1465 -0.072c-0.0595,0.0095 -0.1249,0.0138 -0.1844,0.0301 -0.017,0.0047 -0.0539,0.0155 -0.0648,0.0202 -0.15,0.0642 -0.0054,-0.0063 -0.0958,0.0597z"/>
   <path id="_376858960" class="fil22" d="M8.6435 8.068c0.0879,0.0589 -0.0921,0.0156 0.0919,0.049 0.1114,0.0203 0.0541,0.0077 0.16,-0.0148l-0.0803 -0.102c0.0129,0.1235 -0.0161,0.0724 -0.1716,0.0678z"/>
   <path id="_376859752" class="fil23" d="M10.7184 8.4273c0.0403,0.041 -0.0397,0.0439 0.1293,0.0647 0.0264,-0.0583 0.0478,0.0542 0.0286,-0.0947 -0.0093,-0.0727 -0.0205,-0.0586 -0.0405,-0.0909l0.001 0.1338 -0.1184 -0.0129z"/>
   <path id="_376860040" class="fil4" d="M8.1501 3.2581l-0.088 -0.4495c-0.0033,0.0946 -0.0004,0.1572 0.0182,0.2607 0.0061,0.0342 0.0113,0.0686 0.0223,0.1024 0.0399,0.1223 0.0184,0.0433 0.0475,0.0864z"/>
   <path id="_376860184" class="fil24" d="M5.9098 10.1807c-0.1064,-0.0918 -0.1812,-0.0844 -0.3265,-0.122 0.0082,0.0071 0.0198,0.0083 0.0242,0.0218l0.108 0.0566c0.0543,0.0174 0.1379,0.0313 0.1943,0.0436z"/>
   <path id="_376859704" class="fil20" d="M4.6428 9.5426c0.0794,-0.0723 0.0043,0.0805 0.0741,-0.0999 0.0212,-0.0551 0.0259,-0.1223 0.0358,-0.1791 -0.0409,0.0569 0.0046,-0.0411 -0.053,0.0832 -0.0053,0.0116 -0.0179,0.0484 -0.0221,0.0607 -0.0156,0.0455 -0.0246,0.0938 -0.0348,0.1351z"/>
   <path id="_376860088" class="fil8" d="M9.9395 5.3776c-0.0078,-0.0585 -0.0092,-0.1257 -0.0288,-0.1839 -0.0641,-0.1908 -0.0278,-0.0789 -0.0995,-0.1439l0.1283 0.3278z"/>
   <path id="_376860328" class="fil11" d="M10.7141 8.4369c-0.0585,-0.0355 0.0713,-0.0078 -0.1233,-0.0596 -0.0551,-0.0146 -0.1083,-0.0161 -0.1593,-0.0233 0.025,0.0165 -0.0165,0.0257 0.122,0.0625 0.0529,0.0141 0.1108,0.0146 0.1606,0.0204z"/>
   <path id="_376861024" class="fil15" d="M7.6873 0.9908c0.0464,-0.058 0.0092,0.0693 0.0684,-0.1127 0.0157,-0.0485 0.0179,-0.101 0.0262,-0.1505 -0.0517,0.0732 0.0006,-0.083 -0.0645,0.1147 -0.0156,0.0475 -0.0215,0.1049 -0.0301,0.1485z"/>
   <path id="_376860952" class="fil15" d="M5.7521 14.7492c-0.0339,-0.1509 -0.0162,-0.1468 -0.0914,-0.2687 0.0068,0.0608 0.0002,0.092 0.0212,0.1602 0.0658,0.2136 -0.0063,0.0169 0.0702,0.1085z"/>
   <path id="_376860664" class="fil25" d="M8.144 10.907l-0.3218 -0.0956c0.0387,0.0361 -0.0195,0.0385 0.138,0.0796 0.0717,0.0187 0.1221,0.0139 0.1838,0.016z"/>
   <path id="_376860520" class="fil17" d="M9.9762 1.673c-0.0089,-0.0479 -0.0098,-0.1003 -0.0291,-0.1469 -0.0549,-0.1327 -0.0269,-0.0538 -0.0751,-0.1002 0.0125,0.0429 0.021,0.0919 0.0383,0.1344 0.0505,0.1239 0.0401,0.0774 0.0659,0.1127z"/>
   <path id="_376861120" class="fil11" d="M9.6979 1.7526c-0.0087,-0.0474 -0.0097,-0.1019 -0.0283,-0.1478 -0.0502,-0.1233 -0.0327,-0.0601 -0.0755,-0.1025 0.0352,0.1271 0.0255,0.1392 0.1038,0.2503z"/>
   <path id="_376860640" class="fil22" d="M8.4677 7.685c0.0267,-0.0438 -0.0008,-0.0459 0.0668,-0.0042 -0.0655,-0.1037 0.0376,-0.0536 -0.1428,-0.1053 0.0479,0.218 -0.0042,0.0283 0.076,0.1095z"/>
   <path id="_376861768" class="fil26" d="M7.4823 11.1349l-0.041 -0.0845c0.1118,-0.0172 0.0749,-0.0109 0.1626,-0.0632l-0.1978 0.0432c-0.0234,0.1842 -0.0226,0.0151 0.0762,0.1045z"/>
   <path id="_376861720" class="fil20" d="M10.0915 4.791c-0.0093,-0.0589 -0.0083,-0.0945 -0.029,-0.1541 -0.0191,-0.055 -0.0381,-0.0635 -0.0537,-0.0858 0.0068,0.0422 0.0048,0.0772 0.0184,0.1189 0.0486,0.1499 0.0407,0.0867 0.0643,0.121z"/>
   <path id="_376861384" class="fil27" d="M9.9494 6.36c-0.0221,-0.1721 0.0063,-0.0337 -0.0586,-0.093 -0.1535,0.0569 -0.0168,-0.0045 -0.076,0.0796 0.1222,-0.0191 0.0464,-0.0253 0.1346,0.0134z"/>
   <path id="_376861360" class="fil28" d="M10.3922 14.8624c0.0591,-0.0104 0.0898,-0.0087 0.15,-0.0315 0.0564,-0.0213 0.0579,-0.0371 0.0829,-0.0559 -0.0506,0.0101 -0.0596,0.0022 -0.1145,0.0216 -0.1542,0.0546 -0.0788,0.0375 -0.1184,0.0658z"/>
   <path id="_376861624" class="fil29" d="M8.7507 3.7325c0.0747,-0.0413 0.043,0.0654 0.0676,-0.09 -0.185,0.0377 -0.0661,0.015 -0.1181,0.0787l0.0505 0.0113z"/>
   <path id="_376862440" class="fil11" d="M5.268 13.6818c-0.0062,-0.0519 -0.0036,-0.1021 -0.0235,-0.1566 -0.0645,-0.1762 -0.0088,-0.0412 -0.0787,-0.0968l0.1022 0.2534z"/>
   <path id="_376862392" class="fil13" d="M6.2088 10.2879c0.0572,-0.0513 0.0812,0.0718 0.0402,-0.0814l-0.1083 -0.0287c0.0422,0.0536 0.0413,0.0612 0.0681,0.1101z"/>
   <path id="_376862056" class="fil8" d="M10.7283 16.5605c0.1305,-0.0101 0.0356,0.0093 0.1284,-0.0159 0.0665,-0.0181 0.0609,-0.0239 0.092,-0.0524 -0.0658,0.0103 -0.0564,0.0022 -0.1228,0.0209 -0.2233,0.0627 -0.0128,0.0004 -0.0976,0.0474z"/>
   <path id="_376862608" class="fil11" d="M10.5845 16.2936c0.094,-0.013 0.0325,0.0063 0.125,-0.0206 0.11,-0.0321 0.0546,-0.0263 0.0944,-0.0503 -0.0965,0.0131 -0.0515,-0.0011 -0.1245,0.0201 -0.1611,0.0467 -0.0306,0.0105 -0.0949,0.0508z"/>
   <path id="_376862416" class="fil21" d="M7.2111 6.3365c0.0665,-0.0834 0.0015,0.0976 0.0706,-0.1096 0.0296,-0.0888 0.0141,-0.0827 0.0183,-0.1395l-0.0889 0.2491z"/>
   <path id="_376861960" class="fil6" d="M4.9658 12.7785l-0.1062 -0.2457c0.0082,0.0435 0.012,0.1 0.0306,0.1472 0.074,0.1874 -0.0009,0.0255 0.0756,0.0985z"/>
   <path id="_376862320" class="fil30" d="M11.0023 7.5589c-0.0167,-0.1233 0.0071,-0.0354 -0.0222,-0.1275 -0.0207,-0.0653 -0.0236,-0.0564 -0.0545,-0.088 0.0214,0.1094 -0.0171,0.0258 0.0572,0.1835 0.0042,0.0089 0.0133,0.0211 0.0195,0.032z"/>
   <path id="_376862704" class="fil5" d="M9.6079 1.4889c-0.0116,-0.0917 0.0072,-0.0503 -0.0268,-0.1159 -0.0312,-0.06 -0.0299,-0.0439 -0.068,-0.0856 0.0152,0.044 0.0178,0.068 0.0399,0.113l0.0549 0.0885z"/>
   <path id="_376862992" class="fil11" d="M8.0246 16.3437c-0.0288,-0.0259 -0.0244,-0.0341 -0.0784,-0.0615 -0.0551,-0.0279 -0.0429,-0.0168 -0.1022,-0.037 0.0413,0.0395 0.0072,0.0241 0.0762,0.0647 0.0955,0.0564 0.0239,0.0111 0.1044,0.0338z"/>
   <path id="_376862968" class="fil5" d="M9.886 1.4076c-0.0124,-0.092 0.0078,-0.0465 -0.0267,-0.1131 -0.0299,-0.0578 -0.0299,-0.0425 -0.0618,-0.0755 0.0156,0.0474 0.0068,0.044 0.0352,0.1017 0.077,0.1569 0.0081,0.0178 0.0533,0.0869z"/>
   <path id="_376862752" class="fil11" d="M11.5015 8.722c-0.0239,-0.02 -0.0379,-0.0365 -0.0788,-0.0613 -0.0758,-0.0458 -0.0403,-0.0183 -0.0959,-0.0389 0.0507,0.056 -0.0371,0.0098 0.0707,0.0661 0.0811,0.0422 0.0145,0.0089 0.104,0.0341z"/>
   <path id="_376863112" class="fil13" d="M9.4305 6.4818c0.1015,-0.0166 0.0186,0.0189 0.1152,-0.0184 0.1587,-0.0612 0.05,-0.0198 0.1162,-0.0765l-0.2314 0.0949z"/>
   <path id="_376863424" class="fil4" d="M11.0075 11.2444c0.0459,-0.0175 0.04,-0.0064 0.0958,-0.0386 0.0454,-0.0264 0.0552,-0.039 0.0798,-0.0583 -0.0801,0.0212 -0.0344,-0.003 -0.104,0.0319 -0.0651,0.0325 -0.0336,0.0238 -0.0716,0.065z"/>
   <path id="_376864096" class="fil21" d="M5.517 14.8213l-0.0969 -0.2184c0.0124,0.064 0.0047,0.0774 0.0352,0.1454 0.0271,0.0606 0.0302,0.0401 0.0617,0.073z"/>
   <path id="_376864000" class="fil31" d="M10.808 13.0953c0.1143,-0.0111 0.047,0.006 0.13,-0.019 0.1205,-0.0363 0.0438,-0.0113 0.0873,-0.0553l-0.2173 0.0743z"/>
   <path id="_376864984" class="fil7" d="M10.905 12.4942l-0.1114 -0.0296c0.0151,0.0471 -0.0079,0.0453 0.0389,0.0517 0.0986,0.0133 -0.003,0.066 0.0725,-0.0221z"/>
   <path id="_376865152" class="fil25" d="M11.1379 13.2985c0.0138,-0.0028 0.0339,-0.0192 0.0414,-0.0081 0.0074,0.0107 0.0301,-0.0064 0.0395,-0.0105 0.0626,-0.0279 0.0688,-0.0361 0.095,-0.0544 -0.1183,0.0249 -0.0246,-0.0014 -0.1158,0.034 -0.0086,0.0033 -0.0247,0.0277 -0.0311,0.0184 -0.0063,-0.0092 -0.0192,0.0139 -0.029,0.0206z"/>
   <path id="_376865656" class="fil32" d="M7.9403 1.0961c0.0977,-0.0187 0.0701,-0.0384 0.0811,0.0613l0.0178 -0.1407 -0.0989 0.0794z"/>
  </g>
 </g>
</svg>
