<?xml version="1.0" encoding="UTF-8"?>
<!DOCTYPE svg PUBLIC "-//W3C//DTD SVG 1.1//EN" "http://www.w3.org/Graphics/SVG/1.1/DTD/svg11.dtd">
<!-- Creator: CorelDRAW -->
<svg xmlns="http://www.w3.org/2000/svg" xml:space="preserve" width="16.9332mm" height="16.9332mm" style="shape-rendering:geometricPrecision; text-rendering:geometricPrecision; image-rendering:optimizeQuality; fill-rule:evenodd; clip-rule:evenodd"
viewBox="0 0 16.9332 16.9332"
 xmlns:xlink="http://www.w3.org/1999/xlink">
 <defs>
  <style type="text/css">
   <![CDATA[
    .fil1 {fill:#010101}
    .fil2 {fill:#7D7D7D}
    .fil0 {fill:#F3F3F5}
   ]]>
  </style>
 </defs>
 <g id="Capa_x0020_1">
  <metadata id="CorelCorpID_0Corel-Layer"/>
  <g id="_415505368">
   <path id="_374427040" class="fil0" d="M5.1426 12.8508c0.1219,-0.0888 0.4575,-0.0709 0.6913,-0.1231l0.6779 -0.1608c-0.1491,0.3097 -1.0033,0.5486 -1.3692,0.2839zm7.9633 -0.409c0.5211,0.2232 0.4154,1.2278 0.4146,1.688 -0.0486,-0.0552 -0.0574,-0.0674 -0.0786,-0.188 -0.0364,-0.2075 -0.0212,-0.3515 -0.0989,-0.6845 -0.0641,-0.2746 -0.2071,-0.5855 -0.2371,-0.8155zm0.722 -0.3973c0.2972,0.1934 0.2134,0.6265 0.1989,0.936 -0.1403,-0.0616 -0.0787,-0.0182 -0.1538,-0.4495l-0.0779 -0.3642c0.0006,-0.2068 -0.0125,-0.0516 0.0328,-0.1223zm-6.287 0.0845c1.2376,-0.1242 1.0459,0.1794 2.3512,-0.4381 -0.1877,0.4873 -1.1506,0.6474 -1.7138,0.6079 -0.1369,-0.0097 -0.3882,-0.03 -0.5135,-0.0842l-0.1239 -0.0856zm-5.9155 -0.6706c0.1199,-0.0564 0.7974,0.152 1.1335,0.2159 0.2563,0.0487 0.1434,-0.004 0.366,0.138 -0.4339,0.1181 -1.3047,-0.0834 -1.4995,-0.3539zm9.8125 -5.53c0.5628,-0.197 0.9738,0.2603 1.1261,0.5835 0.1309,0.278 0.2005,0.5251 -0.0719,0.5815 -0.2226,0.0461 -0.623,0.058 -0.8524,0.0447 -0.2769,-0.016 -1.4444,-0.0357 -1.2377,-0.4935 0.0953,-0.2109 0.7036,-0.5998 1.0359,-0.7162zm2.4519 1.5684c0.0197,-0.0995 0.4497,-1.2626 0.5747,-1.3512 -0.0775,0.4327 -0.1187,1.1458 -0.5747,1.3512zm-3.1198 -2.1254c0.3171,-0.191 1.3105,-0.0945 1.4195,0.2726l-0.7078 -0.1586c-0.1909,-0.0276 -0.584,0.0263 -0.7117,-0.114zm0.3546 -0.6365c0.258,-0.1261 0.7221,-0.0497 0.9787,0.0894 0.1459,0.079 0.1415,0.076 0.197,0.2079 -0.3509,-0.0821 -0.5785,-0.1462 -0.9335,-0.1935 -0.1949,-0.026 -0.1864,-0.0232 -0.2422,-0.1038zm-8.2605 0.3569c0.0162,0.2424 0.0485,0.647 -0.0563,0.8389 -0.0268,-0.0281 -0.0286,-0.0126 -0.0573,-0.0681 -0.0582,-0.1125 -0.0717,-0.5147 -0.0739,-0.6505 -0.005,-0.3022 -0.0897,-0.4804 -0.0948,-0.7052l0.2823 0.5849zm3.0464 1.0292c-0.0427,-0.3725 0.0486,-0.9584 0.0389,-1.3874 -0.0084,-0.3687 -0.1437,-0.9973 -0.1053,-1.2995 0.3389,0.395 0.424,2.2837 0.0664,2.6869zm5.204 -2.6473c0.1828,-0.3928 1.3845,-0.389 1.5713,0.0366 -1.1888,-0.1974 -0.5567,-0.1374 -1.5713,-0.0366zm-7.1132 1.3848c-0.188,-0.2409 -0.4057,-1.6942 0.6008,-2.0365 0.1348,-0.0459 0.1608,-0.0457 0.2572,-0.024l-0.7224 0.7211c-0.1441,0.3716 -0.02,1.1276 -0.1356,1.3394zm3.5695 -1.0558c-0.2037,-0.2255 -0.4855,-0.9993 -0.3516,-1.3794 0.107,-0.3038 0.6503,-0.7833 0.957,-0.8652l-0.7485 0.873c-0.2042,0.4608 0.1891,0.9599 0.1431,1.3716zm-0.9316 -1.8217c-0.0216,0.0149 0.0192,0.0383 -0.1297,0.0633 -0.1241,0.0209 -0.0547,0.0059 -0.152,-0.0209 0.0481,-0.1071 0.0578,-0.0846 0.1932,-0.1264 0.2764,-0.0654 1.0247,-0.747 1.3213,-0.9855 -0.8078,-0.0181 -1.5044,0.4125 -2.0832,0.7196 -0.7361,0.3906 -1.2343,0.5272 -2.1053,0.7076 -0.8066,0.167 -1.5045,0.3375 -2.1334,0.7018l-1.2381 1.5702c0.2009,-0.4925 0.5185,-0.9053 0.8867,-1.1675l1.6401 -0.3792c-0.0932,0.0455 -0.5789,0.1247 -0.7306,0.1723 -0.2344,0.0735 -0.4803,0.1929 -0.6457,0.3124 -1.3076,0.945 -1.1928,3.019 -0.9276,4.4945 0.0973,0.541 0.2667,0.9884 0.3735,1.4896 0.1158,0.5435 0.1221,1.1243 0.2473,1.6675 0.1429,0.62 0.3555,0.7943 0.9227,0.9893l1.651 0.2695c0.0041,-0.2645 -0.1883,-0.957 -0.2247,-1.3284 -0.0503,-0.512 -0.0466,-1.0674 -0.0277,-1.5819 0.058,-1.5721 0.2029,-1.4701 -0.3073,-2.7493l0.3565 0.3998 0.1568 -0.5607c0.0956,0.0486 0.0966,0.0483 0.1371,0.1835 0.2637,0.8803 -0.1884,3.0013 0.1559,4.8519 0.1543,0.8292 0.3924,1.4339 1.0619,1.6865l2.1015 -0.5097c-0.1457,-0.1803 -0.2707,-0.2289 -0.418,-0.4526 -0.3435,-0.522 -0.2944,-0.9783 -0.2762,-1.4968 0.0099,-0.283 -0.0211,-0.6238 -0.0271,-0.915l0.2969 -3.2221c0.0794,0.465 -0.1503,4.634 0.4043,5.4349 0.3822,0.5518 1.4314,0.7368 2.2558,0.4116 0.1617,-0.0638 0.735,-0.4687 0.914,-0.5933l0.4504 -1.0861c-0.0853,0.0743 -0.0866,0.0989 -0.1534,0.2314 -0.1603,0.3178 -0.2595,0.3439 -0.5839,0.6224 0.0536,-0.2938 0.4863,-0.7174 0.4959,-1.3601 0.0096,-0.6424 0.066,-1.0703 0.1298,-1.7008 -1.0573,-0.7012 -0.9293,-2.4671 -0.6237,-3.8351 0.1535,-0.6873 0.27,-1.3047 0.4025,-2.0163 0.1521,-0.8166 0.5032,-0.7274 1.5174,-0.9312 -0.0339,0.0357 -0.0153,0.0243 -0.0693,0.0599 -0.0309,0.0204 -0.0464,0.0288 -0.0808,0.0449 -0.0593,0.0276 -0.135,0.0505 -0.2008,0.0743 -1.2356,0.4481 -0.6788,0.0894 -1.1895,2.6347 -0.2127,1.0605 -0.4749,2.9511 0.3661,3.575 0.4887,0.3625 1.2025,0.095 1.6617,-0.1221 1.4492,-0.6851 0.8194,-1.4726 1.173,-2.0853 0.6723,-1.1654 0.8603,-0.7017 0.3593,-2.378 0.228,0.1799 0.2809,0.4276 0.3703,0.5812l0.0708 0.0935 0.0796 -0.3219c0.19,0.274 0.0076,0.7626 -0.0331,1.0778 -0.0644,0.4976 -0.1314,0.6049 -0.4058,0.8709 -0.5823,0.5645 0.2399,1.6419 -1.3621,2.4542 -0.1311,0.0664 -0.3059,0.1318 -0.4431,0.2016 -0.2123,0.1082 -0.2488,0.7463 -0.6298,1.2755l-0.6017 0.7246 0.0919 0.3617c0.302,-0.6356 1.4767,-1.9018 2.0313,-2.4815 -0.0783,0.6381 -1.2947,2.1113 -1.7448,2.7174 0.605,-0.2694 1.5739,-1.2482 1.9487,-1.8647l0.4694 -0.8088c-0.1702,1.1811 -1.382,2.2382 -2.2117,2.8849 -0.3076,0.2398 -0.6832,0.4494 -1.0187,0.6916 -0.174,0.1256 -0.277,0.2632 -0.4481,0.388 -0.3908,0.2849 -0.7876,0.3066 -1.3683,1.2183 -0.2141,0.3361 -0.4319,0.7641 -0.4305,1.2689l0.8363 0.8071c0.2112,-0.8322 0.2384,-1.6582 0.8497,-2.0152 0.3504,-0.2046 0.81,-0.2023 1.0375,0.1055l0.1439 1.2039c0.7362,0.0086 1.0531,0.0853 1.6742,-0.2054 1.3455,-0.6295 1.0636,-1.6989 2.6254,-3.1021 0.7743,-0.6957 1.5161,-1.4491 0.8661,-2.4101 -0.9195,-1.3592 -0.8579,-0.7392 -1.3945,-2.4575l-0.2852 0.6789c-0.0052,-0.735 0.4909,-1.7785 -0.0261,-3.5526 -1.1005,-3.7761 -3.3647,-1.6893 -5.2069,-2.6715 -0.5061,-0.2698 -0.9026,-0.5286 -1.5218,-0.2184 -0.3588,0.1798 -0.8625,0.6896 -1.2675,0.7401z"/>
   <path id="_415534048" class="fil1" d="M9.4415 15.7791c0.0401,-0.4433 0.1951,-0.9561 0.3782,-1.2862 0.3957,-0.7132 1.1855,-0.7753 1.1073,0.3485 -0.0356,0.5111 -0.0556,0.2804 -0.3854,0.408 -0.0012,0.0005 -0.6188,0.4192 -1.1001,0.5297zm1.4984 -6.1396l0.0379 -0.7602c0.0603,-0.0137 0.5532,-0.0187 0.6937,-0.029l0.2601 -0.0282c-0.0967,0.1947 -0.3399,0.5238 -0.4836,0.7342 -0.1513,0.2216 -0.3368,0.5301 -0.5333,0.6361l0.0252 -0.5529zm-4.3892 -7.7425l-0.1005 0.0913 0.189 -0.0073c0.405,-0.0505 0.9087,-0.5603 1.2675,-0.7401 0.6192,-0.3102 1.0157,-0.0514 1.5218,0.2184 1.8422,0.9822 4.1064,-1.1046 5.2069,2.6715 0.517,1.7741 0.0209,2.8176 0.0261,3.5526l0.2852 -0.6789c0.5366,1.7183 0.475,1.0983 1.3945,2.4575 0.65,0.961 -0.0918,1.7144 -0.8661,2.4101 -1.5618,1.4032 -1.2799,2.4726 -2.6254,3.1021 -0.6211,0.2907 -0.938,0.214 -1.6742,0.2054l-0.1439 -1.2039c-0.2275,-0.3078 -0.6871,-0.3101 -1.0375,-0.1055 -0.6113,0.357 -0.6385,1.183 -0.8497,2.0152l-0.8363 -0.8071c-0.0014,-0.5048 0.2164,-0.9328 0.4305,-1.2689 0.5807,-0.9117 0.9775,-0.9334 1.3683,-1.2183 0.1711,-0.1248 0.2741,-0.2624 0.4481,-0.388 0.3355,-0.2422 0.7111,-0.4518 1.0187,-0.6916 0.8297,-0.6467 2.0415,-1.7038 2.2117,-2.8849l-0.4694 0.8088c-0.3748,0.6165 -1.3437,1.5953 -1.9487,1.8647 0.4501,-0.6061 1.6665,-2.0793 1.7448,-2.7174 -0.5546,0.5797 -1.7293,1.8459 -2.0313,2.4815l-0.0919 -0.3617 0.6017 -0.7246c0.381,-0.5292 0.4175,-1.1673 0.6298,-1.2755 0.1372,-0.0698 0.312,-0.1352 0.4431,-0.2016 1.602,-0.8123 0.7798,-1.8897 1.3621,-2.4542 0.2744,-0.266 0.3414,-0.3733 0.4058,-0.8709 0.0407,-0.3152 0.2231,-0.8038 0.0331,-1.0778l-0.0796 0.3219 -0.0708 -0.0935c-0.0894,-0.1536 -0.1423,-0.4013 -0.3703,-0.5812 0.501,1.6763 0.313,1.2126 -0.3593,2.378 -0.3536,0.6127 0.2762,1.4002 -1.173,2.0853 -0.4592,0.2171 -1.173,0.4846 -1.6617,0.1221 -0.841,-0.6239 -0.5788,-2.5145 -0.3661,-3.575 0.5107,-2.5453 -0.0461,-2.1866 1.1895,-2.6347 0.0658,-0.0238 0.1415,-0.0467 0.2008,-0.0743 0.0344,-0.0161 0.0499,-0.0245 0.0808,-0.0449 0.054,-0.0356 0.0354,-0.0242 0.0693,-0.0599 -1.0142,0.2038 -1.3653,0.1146 -1.5174,0.9312 -0.1325,0.7116 -0.249,1.329 -0.4025,2.0163 -0.3056,1.368 -0.4336,3.1339 0.6237,3.8351 -0.0638,0.6305 -0.1202,1.0584 -0.1298,1.7008 -0.0096,0.6427 -0.4423,1.0663 -0.4959,1.3601 0.3244,-0.2785 0.4236,-0.3046 0.5839,-0.6224 0.0668,-0.1325 0.0681,-0.1571 0.1534,-0.2314l-0.4504 1.0861c-0.179,0.1246 -0.7523,0.5295 -0.914,0.5933 -0.8244,0.3252 -1.8736,0.1402 -2.2558,-0.4116 -0.5546,-0.8009 -0.3249,-4.9699 -0.4043,-5.4349l-0.2969 3.2221c0.006,0.2912 0.037,0.632 0.0271,0.915 -0.0182,0.5185 -0.0673,0.9748 0.2762,1.4968 0.1473,0.2237 0.2723,0.2723 0.418,0.4526l-2.1015 0.5097c-0.6695,-0.2526 -0.9076,-0.8573 -1.0619,-1.6865 -0.3443,-1.8506 0.1078,-3.9716 -0.1559,-4.8519 -0.0405,-0.1352 -0.0415,-0.1349 -0.1371,-0.1835l-0.1568 0.5607 -0.3565 -0.3998c0.5102,1.2792 0.3653,1.1772 0.3073,2.7493 -0.0189,0.5145 -0.0226,1.0699 0.0277,1.5819 0.0364,0.3714 0.2288,1.0639 0.2247,1.3284l-1.651 -0.2695c-0.5672,-0.195 -0.7798,-0.3693 -0.9227,-0.9893 -0.1252,-0.5432 -0.1315,-1.124 -0.2473,-1.6675 -0.1068,-0.5012 -0.2762,-0.9486 -0.3735,-1.4896 -0.2652,-1.4755 -0.38,-3.5495 0.9276,-4.4945 0.1654,-0.1195 0.4113,-0.2389 0.6457,-0.3124 0.1517,-0.0476 0.6374,-0.1268 0.7306,-0.1723l-1.6401 0.3792c-0.3682,0.2622 -0.6858,0.675 -0.8867,1.1675l1.2381 -1.5702c0.6289,-0.3643 1.3268,-0.5348 2.1334,-0.7018 0.871,-0.1804 1.3692,-0.317 2.1053,-0.7076 0.5788,-0.3071 1.2754,-0.7377 2.0832,-0.7196 -0.2966,0.2385 -1.0449,0.9201 -1.3213,0.9855zm2.2654 11.2234c-0.0639,0.1219 -0.1398,0.1808 -0.2281,0.2991 -0.4987,0.668 -0.9577,1.7432 -0.4217,2.5065 0.679,0.9671 2.0075,-0.1869 2.7674,-0.3279 0.6832,-0.1268 1.0359,0.115 1.7872,-0.1479 0.505,-0.1766 0.9157,-0.4416 1.1671,-0.7488 0.5282,-0.6459 0.7965,-1.5269 1.5606,-2.2988 1.2187,-1.2311 2.2169,-1.9422 0.765,-3.6085 -1.7172,-1.9707 -0.7834,-2.6024 -1.1861,-4.5036 -0.2142,-1.0112 -0.7514,-2.0351 -1.3659,-2.4928 -0.4085,-0.3042 -0.9071,-0.4267 -1.5045,-0.4502 -0.619,-0.0243 -1.3154,0.1254 -1.9095,0.0382 -0.4459,-0.0654 -0.9483,-0.3934 -1.4067,-0.5347 -2.296,-0.7074 -2.486,0.423 -4.416,0.9246 -1.1045,0.2871 -2.0343,0.3531 -2.9641,0.8949 -0.6811,0.3969 -1.5662,1.2253 -1.4432,2.4226 0.0189,0.1837 0.068,0.2815 0.0555,0.4779 -0.009,0.1408 -0.0396,0.284 -0.0506,0.4354 -0.1413,1.9369 0.4246,2.8681 0.5949,4.2201 0.0667,0.5294 0.1218,1.1354 0.3441,1.5644 0.2213,0.4273 0.6196,0.6268 1.1719,0.773 0.596,0.1578 1.0852,0.1813 1.7374,0.1793l0.8516 0.8985c0.4565,0.216 0.9865,0.2074 1.4937,0.0642 0.4535,-0.1282 0.8213,-0.3554 1.1325,-0.6128 0.2285,-0.189 0.2635,-0.0591 0.6194,0.0029 0.3074,0.0536 0.5385,0.0228 0.8481,0.0244z"/>
   <path id="_415533568" class="fil0" d="M9.4415 15.7791c0.4813,-0.1105 1.0989,-0.5292 1.1001,-0.5297 0.3298,-0.1276 0.3498,0.1031 0.3854,-0.408 0.0782,-1.1238 -0.7116,-1.0617 -1.1073,-0.3485 -0.1831,0.3301 -0.3381,0.8429 -0.3782,1.2862z"/>
   <path id="_415533832" class="fil1" d="M10.7074 6.7403c0.1155,-0.2703 1.0512,-0.966 1.541,-0.2669 0.3316,0.4733 -0.0265,0.4114 -0.4892,0.4082 -0.4359,-0.0031 -0.6816,-0.0934 -1.0518,-0.1413zm0.7305 -0.8119c-0.3323,0.1164 -0.9406,0.5053 -1.0359,0.7162 -0.2067,0.4578 0.9608,0.4775 1.2377,0.4935 0.2294,0.0133 0.6298,0.0014 0.8524,-0.0447 0.2724,-0.0564 0.2028,-0.3035 0.0719,-0.5815 -0.1523,-0.3232 -0.5633,-0.7805 -1.1261,-0.5835z"/>
   <path id="_415533712" class="fil0" d="M10.7074 6.7403c0.3702,0.0479 0.6159,0.1382 1.0518,0.1413 0.4627,0.0032 0.8208,0.0651 0.4892,-0.4082 -0.4898,-0.6991 -1.4255,-0.0034 -1.541,0.2669z"/>
   <path id="_415534024" class="fil0" d="M11.6715 8.8503c-0.0662,0.0696 0.017,0.0331 -0.1478,0.065 -0.1977,0.0383 -0.3236,0.0116 -0.5119,-0.0165l-0.0719 0.7407 -0.0252 0.5529c0.1965,-0.106 0.382,-0.4145 0.5333,-0.6361 0.1437,-0.2104 0.3869,-0.5395 0.4836,-0.7342l-0.2601 0.0282z"/>
   <path id="_415502776" class="fil1" d="M4.0013 4.8585c0.1156,-0.2118 -0.0085,-0.9678 0.1356,-1.3394l0.7224 -0.7211c-0.0964,-0.0217 -0.1224,-0.0219 -0.2572,0.024 -1.0065,0.3423 -0.7888,1.7956 -0.6008,2.0365z"/>
   <path id="_415503952" class="fil1" d="M5.9105 6.121c0.3576,-0.4032 0.2725,-2.2919 -0.0664,-2.6869 -0.0384,0.3022 0.0969,0.9308 0.1053,1.2995 0.0097,0.429 -0.0816,1.0149 -0.0389,1.3874z"/>
   <path id="_415504024" class="fil1" d="M7.5708 3.8027c0.046,-0.4117 -0.3473,-0.9108 -0.1431,-1.3716l0.7485 -0.873c-0.3067,0.0819 -0.85,0.5614 -0.957,0.8652 -0.1339,0.3801 0.1479,1.1539 0.3516,1.3794z"/>
   <path id="_415503832" class="fil1" d="M7.6648 12.2146c0.1253,0.0542 0.3766,0.0745 0.5135,0.0842 0.5632,0.0395 1.5261,-0.1206 1.7138,-0.6079 -1.3053,0.6175 -1.1136,0.3139 -2.3512,0.4381l0.1239 0.0856z"/>
   <path id="_415503976" class="fil1" d="M11.1145 3.4737c1.0146,-0.1008 0.3825,-0.1608 1.5713,0.0366 -0.1868,-0.4256 -1.3885,-0.4294 -1.5713,-0.0366z"/>
   <path id="_415503424" class="fil1" d="M1.6254 11.4584c0.1948,0.2705 1.0656,0.472 1.4995,0.3539 -0.2226,-0.142 -0.1097,-0.0893 -0.366,-0.138 -0.3361,-0.0639 -1.0136,-0.2723 -1.1335,-0.2159z"/>
   <path id="_415503736" class="fil1" d="M13.5205 14.1298c0.0008,-0.4602 0.1065,-1.4648 -0.4146,-1.688 0.03,0.23 0.173,0.5409 0.2371,0.8155 0.0777,0.333 0.0625,0.477 0.0989,0.6845 0.0212,0.1206 0.03,0.1328 0.0786,0.188z"/>
   <path id="_415503856" class="fil1" d="M10.77 5.3714c0.1277,0.1403 0.5208,0.0864 0.7117,0.114l0.7078 0.1586c-0.109,-0.3671 -1.1024,-0.4636 -1.4195,-0.2726z"/>
   <path id="_415504288" class="fil1" d="M5.1426 12.8508c0.3659,0.2647 1.2201,0.0258 1.3692,-0.2839l-0.6779 0.1608c-0.2338,0.0522 -0.5694,0.0343 -0.6913,0.1231z"/>
   <path id="_415504312" class="fil1" d="M13.8898 7.4968c0.456,-0.2054 0.4972,-0.9185 0.5747,-1.3512 -0.125,0.0886 -0.555,1.2517 -0.5747,1.3512z"/>
   <path id="_415504744" class="fil1" d="M2.8078 5.9307c0.1048,-0.1919 0.0725,-0.5965 0.0563,-0.8389l-0.2823 -0.5849c0.0051,0.2248 0.0898,0.403 0.0948,0.7052 0.0022,0.1358 0.0157,0.538 0.0739,0.6505 0.0287,0.0555 0.0305,0.04 0.0573,0.0681z"/>
   <path id="_415504384" class="fil1" d="M11.1246 4.7349c0.0558,0.0806 0.0473,0.0778 0.2422,0.1038 0.355,0.0473 0.5826,0.1114 0.9335,0.1935 -0.0555,-0.1319 -0.0511,-0.1289 -0.197,-0.2079 -0.2566,-0.1391 -0.7207,-0.2155 -0.9787,-0.0894z"/>
   <path id="_415504120" class="fil1" d="M14.0268 12.9805c0.0145,-0.3095 0.0983,-0.7426 -0.1989,-0.936 -0.0453,0.0707 -0.0322,-0.0845 -0.0328,0.1223l0.0779 0.3642c0.0751,0.4313 0.0135,0.3879 0.1538,0.4495z"/>
   <path id="_415504504" class="fil2" d="M10.9399 9.6395l0.0719 -0.7407c0.1883,0.0281 0.3142,0.0548 0.5119,0.0165 0.1648,-0.0319 0.0816,0.0046 0.1478,-0.065 -0.1405,0.0103 -0.6334,0.0153 -0.6937,0.029l-0.0379 0.7602z"/>
   <path id="_415504912" class="fil2" d="M6.6392 1.981l-0.189 0.0073 0.1005 -0.0913c-0.1354,0.0418 -0.1451,0.0193 -0.1932,0.1264 0.0973,0.0268 0.0279,0.0418 0.152,0.0209 0.1489,-0.025 0.1081,-0.0484 0.1297,-0.0633z"/>
  </g>
 </g>
</svg>
