<?xml version="1.0" encoding="UTF-8"?>
<!DOCTYPE svg PUBLIC "-//W3C//DTD SVG 1.1//EN" "http://www.w3.org/Graphics/SVG/1.1/DTD/svg11.dtd">
<!-- Creator: CorelDRAW -->
<svg xmlns="http://www.w3.org/2000/svg" xml:space="preserve" width="16.9332mm" height="16.9332mm" style="shape-rendering:geometricPrecision; text-rendering:geometricPrecision; image-rendering:optimizeQuality; fill-rule:evenodd; clip-rule:evenodd"
viewBox="0 0 16.9332 16.9332"
 xmlns:xlink="http://www.w3.org/1999/xlink">
 <defs>
  <style type="text/css">
   <![CDATA[
    .fil1 {fill:#020202}
    .fil5 {fill:#090909}
    .fil3 {fill:#0B0B0B}
    .fil16 {fill:#424242}
    .fil15 {fill:#5B5B5D}
    .fil18 {fill:#5F5F5F}
    .fil14 {fill:#646464}
    .fil9 {fill:#666667}
    .fil13 {fill:#69696B}
    .fil19 {fill:#6B6B6D}
    .fil20 {fill:#6E6E6E}
    .fil6 {fill:#767676}
    .fil11 {fill:#7C7C7C}
    .fil12 {fill:#7E7E7E}
    .fil23 {fill:#848485}
    .fil22 {fill:#878787}
    .fil7 {fill:#909090}
    .fil21 {fill:#929292}
    .fil17 {fill:#9D9D9F}
    .fil10 {fill:#A1A1A2}
    .fil8 {fill:#B4B4B4}
    .fil4 {fill:#E0E0E0}
    .fil2 {fill:#F2F2F4}
    .fil0 {fill:#F3F3F5}
   ]]>
  </style>
 </defs>
 <g id="Capa_x0020_1">
  <metadata id="CorelCorpID_0Corel-Layer"/>
  <g id="_415376848">
   <polygon id="_374636544" class="fil0" points="12.0126,10.2795 12.0126,10.2396 12.0525,10.2396 12.0525,10.1201 12.0923,10.1201 12.0923,10.0005 12.1322,10.0005 12.1322,9.881 12.172,9.881 12.172,9.7615 12.2118,9.7615 12.2118,9.6419 12.2517,9.6419 12.2517,9.5224 12.2915,9.5224 12.2915,9.4029 12.3314,9.4029 12.3314,9.3631 12.3712,9.3631 12.3712,9.6818 12.3314,9.6818 12.3314,10.0404 12.2915,10.0404 12.2915,10.1998 12.2517,10.1998 12.2517,10.3193 12.2118,10.3193 12.2118,10.5185 12.172,10.5185 12.172,10.5982 12.1322,10.5982 12.1322,10.7576 12.0923,10.7576 12.0923,10.8771 12.0525,10.8771 12.0525,10.9568 12.0126,10.9568 12.0126,10.9966 11.9728,10.9966 11.9728,11.1162 11.933,11.1162 11.933,11.1958 11.8931,11.1958 11.8931,11.2755 11.8532,11.2755 11.8532,11.3552 11.8134,11.3552 11.8134,11.3951 11.7736,11.3951 11.7736,11.4747 11.7337,11.4747 11.7337,11.5146 11.6939,11.5146 11.6939,11.5544 11.654,11.5544 11.654,11.5943 11.6142,11.5943 11.6142,11.6739 11.5744,11.6739 11.5744,11.7138 11.4946,11.7138 11.4946,11.7537 11.4548,11.7537 11.4548,11.7935 11.415,11.7935 11.415,11.8333 11.3353,11.8333 11.3353,11.8732 11.2556,11.8732 11.2556,11.913 11.1361,11.913 11.1361,11.9529 10.8173,11.9529 10.8173,11.913 10.7377,11.913 10.7377,11.8732 10.6579,11.8732 10.6579,11.8333 10.5783,11.8333 10.5783,11.7935 10.4986,11.7935 10.4986,11.7537 10.4587,11.7537 10.4587,11.7138 10.4189,11.7138 10.4189,11.6739 10.3791,11.6739 10.3791,11.6341 10.3392,11.6341 10.3392,11.6739 10.2994,11.6739 10.2994,11.7138 10.2595,11.7138 10.2595,11.7935 10.2197,11.7935 10.2197,11.8333 10.1798,11.8333 10.1798,11.913 10.14,11.913 10.14,11.9529 10.1002,11.9529 10.1002,11.9927 10.14,11.9927 10.14,12.0724 10.2595,12.0724 10.2595,12.1122 10.3392,12.1122 10.3392,12.1521 10.4189,12.1521 10.4189,12.1919 10.4986,12.1919 10.4986,12.2317 10.5783,12.2317 10.5783,12.2716 10.6579,12.2716 10.6579,12.3115 10.7377,12.3115 10.7377,12.3513 10.8173,12.3513 10.8173,12.3911 10.897,12.3911 10.897,12.431 10.9767,12.431 10.9767,12.4708 11.0564,12.4708 11.0564,12.5107 11.0962,12.5107 11.0962,12.5505 11.1759,12.5505 11.1759,12.5903 11.2158,12.5903 11.2158,12.6302 11.2954,12.6302 11.2954,12.67 11.3353,12.67 11.3353,12.7099 11.3751,12.7099 11.3751,12.7497 11.4548,12.7497 11.4548,12.7896 11.4946,12.7896 11.4946,12.8294 11.5345,12.8294 11.5345,12.8692 11.5744,12.8692 11.5744,12.9091 11.6142,12.9091 11.6142,12.9489 11.654,12.9489 11.654,12.9888 11.6939,12.9888 11.6939,13.0286 11.7337,13.0286 11.7337,13.1482 11.654,13.1482 11.654,13.1083 11.5744,13.1083 11.5744,13.0684 11.5345,13.0684 11.5345,13.0286 11.4548,13.0286 11.4548,12.9888 11.3751,12.9888 11.3751,12.9489 11.3353,12.9489 11.3353,12.9091 11.2556,12.9091 11.2556,12.8692 11.1759,12.8692 11.1759,12.8294 11.0962,12.8294 11.0962,12.7896 11.0564,12.7896 11.0564,12.7497 10.9767,12.7497 10.9767,12.7099 10.897,12.7099 10.897,12.67 10.8173,12.67 10.8173,12.6302 10.6978,12.6302 10.6978,12.5903 10.6181,12.5903 10.6181,12.5505 10.5783,12.5505 10.5783,12.5107 10.4587,12.5107 10.4587,12.4708 10.3392,12.4708 10.3392,12.431 10.2595,12.431 10.2595,12.3911 10.1798,12.3911 10.1798,12.3513 10.1002,12.3513 10.1002,12.3115 10.0205,12.3115 10.0205,12.2716 9.901,12.2716 9.901,12.2317 9.8611,12.2317 9.8611,12.1919 9.7416,12.1919 9.7416,12.1521 9.7017,12.1521 9.7017,12.1122 9.2634,12.1122 9.2634,12.0724 9.1439,12.0724 9.1439,12.0325 9.1041,12.0325 9.1041,11.9927 9.0244,11.9927 9.0244,11.9529 8.9845,11.9529 8.9845,11.913 8.9447,11.913 8.9447,11.8732 8.9049,11.8732 8.9049,11.8333 8.865,11.8333 8.865,11.7935 8.8252,11.7935 8.8252,11.7138 8.7853,11.7138 8.7853,11.6341 8.6259,11.6341 8.6259,11.5943 8.3072,11.5943 8.3072,11.5544 8.1877,11.5544 8.1877,11.5146 8.108,11.5146 8.108,11.4747 7.9486,11.4747 7.9486,11.6739 7.9885,11.6739 7.9885,11.7138 8.0283,11.7138 8.0283,11.7537 8.108,11.7537 8.108,11.7935 8.1479,11.7935 8.1479,11.8333 8.1877,11.8333 8.1877,11.8732 8.2674,11.8732 8.2674,11.913 8.3072,11.913 8.3072,11.9529 8.3471,11.9529 8.3471,11.9927 8.4267,11.9927 8.4267,12.0325 8.4666,12.0325 8.4666,12.0724 8.5463,12.0724 8.5463,12.1122 8.5861,12.1122 8.5861,12.1521 8.6658,12.1521 8.6658,12.1919 8.7057,12.1919 8.7057,12.2317 8.7853,12.2317 8.7853,12.2716 8.8252,12.2716 8.8252,12.3115 8.9049,12.3115 8.9049,12.3513 8.9447,12.3513 8.9447,12.3911 9.0244,12.3911 9.0244,12.431 9.0642,12.431 9.0642,12.4708 9.1041,12.4708 9.1041,12.5107 9.1838,12.5107 9.1838,12.5505 9.2236,12.5505 9.2236,12.5903 9.2634,12.5903 9.2634,12.6302 9.3431,12.6302 9.3431,12.67 9.383,12.67 9.383,12.7099 9.4228,12.7099 9.4228,12.7497 9.5025,12.7497 9.5025,12.7896 9.5424,12.7896 9.5424,12.8294 9.5822,12.8294 9.5822,12.8692 9.622,12.8692 9.622,12.9091 9.6619,12.9091 9.6619,12.9489 9.7017,12.9489 9.7017,12.9888 9.7416,12.9888 9.7416,13.0286 9.7814,13.0286 9.7814,13.0684 9.8212,13.0684 9.8212,13.1083 9.8611,13.1083 9.8611,13.1482 9.901,13.1482 9.901,13.188 9.9408,13.188 9.9408,13.2278 9.9806,13.2278 9.9806,13.2677 10.0205,13.2677 10.0205,13.3474 10.0603,13.3474 10.0603,13.3872 10.1002,13.3872 10.1002,13.427 10.14,13.427 10.14,13.4669 10.1798,13.4669 10.1798,13.5466 10.2197,13.5466 10.2197,13.6263 10.2595,13.6263 10.2595,13.706 10.2994,13.706 10.2994,13.7856 10.3392,13.7856 10.3392,13.8653 10.3791,13.8653 10.3791,13.9849 10.4189,13.9849 10.4189,14.1841 10.3392,14.1841 10.3392,14.1044 10.2994,14.1044 10.2994,14.0247 10.2595,14.0247 10.2595,13.945 10.2197,13.945 10.2197,13.8653 10.1798,13.8653 10.1798,13.8255 10.14,13.8255 10.14,13.7458 10.1002,13.7458 10.1002,13.706 10.0603,13.706 10.0603,13.6661 10.0205,13.6661 10.0205,13.5864 9.9806,13.5864 9.9806,13.5466 9.9408,13.5466 9.9408,13.5067 9.901,13.5067 9.901,13.4669 9.8611,13.4669 9.8611,13.427 9.8212,13.427 9.8212,13.3872 9.7814,13.3872 9.7814,13.3474 9.7416,13.3474 9.7416,13.3075 9.7017,13.3075 9.7017,13.2677 9.6619,13.2677 9.6619,13.2278 9.622,13.2278 9.622,13.188 9.5822,13.188 9.5822,13.1482 9.5424,13.1482 9.5424,13.1083 9.4626,13.1083 9.4626,13.0684 9.4228,13.0684 9.4228,13.0286 9.383,13.0286 9.383,12.9888 9.3431,12.9888 9.3431,12.9489 9.2634,12.9489 9.2634,12.9091 9.2236,12.9091 9.2236,12.8692 9.1439,12.8692 9.1439,12.8294 9.1041,12.8294 9.1041,12.7896 9.0642,12.7896 9.0642,12.7497 8.9845,12.7497 8.9845,12.7099 8.9447,12.7099 8.9447,12.67 8.865,12.67 8.865,12.6302 8.8252,12.6302 8.8252,12.5903 8.7455,12.5903 8.7455,12.5505 8.7057,12.5505 8.7057,12.5107 8.6259,12.5107 8.6259,12.4708 8.5861,12.4708 8.5861,12.431 8.5064,12.431 8.5064,12.3911 8.4666,12.3911 8.4666,12.3513 8.3869,12.3513 8.3869,12.3115 8.3471,12.3115 8.3471,12.2716 8.2674,12.2716 8.2674,12.2317 8.2275,12.2317 8.2275,12.1919 8.1479,12.1919 8.1479,12.1521 8.108,12.1521 8.108,12.1122 8.0283,12.1122 8.0283,12.0724 7.9885,12.0724 7.9885,12.0325 7.9486,12.0325 7.9486,11.9927 7.8291,11.9927 7.8291,12.0724 7.7893,12.0724 7.7893,12.1122 7.7494,12.1122 7.7494,12.1919 7.8291,12.1919 7.8291,12.2317 7.9088,12.2317 7.9088,12.2716 7.9486,12.2716 7.9486,12.3115 7.9885,12.3115 7.9885,12.3513 8.0682,12.3513 8.0682,12.3911 8.108,12.3911 8.108,12.431 8.1479,12.431 8.1479,12.4708 8.1877,12.4708 8.1877,12.5107 8.2275,12.5107 8.2275,12.5505 8.2674,12.5505 8.2674,12.5903 8.3072,12.5903 8.3072,12.6302 8.3471,12.6302 8.3471,12.67 8.3869,12.67 8.3869,12.7099 8.4267,12.7099 8.4267,12.7896 8.4666,12.7896 8.4666,12.8294 8.5064,12.8294 8.5064,12.9091 8.5463,12.9091 8.5463,12.9489 8.5861,12.9489 8.5861,13.0286 8.6259,13.0286 8.6259,13.1083 8.6658,13.1083 8.6658,13.1482 8.7057,13.1482 8.7057,13.2278 8.7455,13.2278 8.7455,13.3075 8.7853,13.3075 8.7853,13.427 8.8252,13.427 8.8252,13.5466 8.865,13.5466 8.865,13.6263 8.9049,13.6263 8.9049,13.7458 8.9447,13.7458 8.9447,13.8653 8.9845,13.8653 8.9845,14.0247 9.0244,14.0247 9.0244,14.1044 9.0642,14.1044 9.0642,14.2637 9.1041,14.2637 9.1041,14.463 9.1439,14.463 9.1439,14.6223 9.1838,14.6223 9.1838,15.459 9.1439,15.459 9.1439,15.4989 9.1041,15.4989 9.1041,15.3794 9.0642,15.3794 9.0642,15.0208 9.0244,15.0208 9.0244,14.7817 8.9845,14.7817 8.9845,14.6622 8.9447,14.6622 8.9447,14.463 8.9049,14.463 8.9049,14.3435 8.865,14.3435 8.865,14.2637 8.8252,14.2637 8.8252,14.0645 8.7853,14.0645 8.7853,14.0247 8.7455,14.0247 8.7455,13.8653 8.7057,13.8653 8.7057,13.7856 8.6658,13.7856 8.6658,13.6661 8.6259,13.6661 8.6259,13.5864 8.5861,13.5864 8.5861,13.5067 8.5463,13.5067 8.5463,13.3872 8.5064,13.3872 8.5064,13.3474 8.4666,13.3474 8.4666,13.2677 8.4267,13.2677 8.4267,13.188 8.3869,13.188 8.3869,13.1482 8.3471,13.1482 8.3471,13.0684 8.3072,13.0684 8.3072,12.9888 8.2674,12.9888 8.2674,12.9489 8.2275,12.9489 8.2275,12.9091 8.1877,12.9091 8.1877,12.8692 8.1479,12.8692 8.1479,12.7896 8.108,12.7896 8.108,12.7497 8.0682,12.7497 8.0682,12.7099 8.0283,12.7099 8.0283,12.67 7.9486,12.67 7.9486,12.6302 7.9088,12.6302 7.9088,12.5903 7.869,12.5903 7.869,12.5505 7.7893,12.5505 7.7893,12.5107 7.7494,12.5107 7.7494,12.4708 7.6698,12.4708 7.6698,12.431 7.6299,12.431 7.6299,12.3911 7.5502,12.3911 7.5502,12.3513 7.5104,12.3513 7.5104,12.3115 7.4307,12.3115 7.4307,12.2716 7.351,12.2716 7.351,12.2317 7.2713,12.2317 7.2713,12.1919 7.2314,12.1919 7.2314,12.1521 7.1518,12.1521 7.1518,12.1122 7.0721,12.1122 7.0721,12.0724 7.0322,12.0724 7.0322,12.0325 6.9526,12.0325 6.9526,11.9927 6.9127,11.9927 6.9127,11.9529 6.833,11.9529 6.833,11.913 6.7932,11.913 6.7932,11.8732 6.7533,11.8732 6.7533,11.8333 6.7135,11.8333 6.7135,11.7935 6.6737,11.7935 6.6737,11.7537 6.6338,11.7537 6.6338,11.7138 6.594,11.7138 6.594,11.6739 6.5541,11.6739 6.5541,11.6341 6.5143,11.6341 6.5143,11.5943 6.4745,11.5943 6.4745,11.5544 6.3549,11.5544 6.3549,11.5943 6.3151,11.5943 6.3151,11.6341 5.6378,11.6341 5.6378,11.5943 5.3588,11.5943 5.3588,11.4747 5.4784,11.4747 5.4784,11.4349 5.6776,11.4349 5.6776,11.3951 5.9963,11.3951 5.9963,11.3552 6.1557,11.3552 6.1557,11.3154 6.3549,11.3154 6.3549,11.2755 6.4346,11.2755 6.4346,11.2357 6.4745,11.2357 6.4745,11.1958 6.5143,11.1958 6.5143,11.0763 6.5541,11.0763 6.5541,10.8771 6.3947,10.8771 6.3947,10.7974 6.3151,10.7974 6.3151,10.7576 6.2354,10.7576 6.2354,10.6779 6.1955,10.6779 6.1955,10.5982 6.1557,10.5982 6.1557,10.399 6.1955,10.399 6.1955,10.4787 6.2354,10.4787 6.2354,10.5584 6.2752,10.5584 6.2752,10.5982 6.3151,10.5982 6.3151,10.638 6.3549,10.638 6.3549,10.6779 6.3947,10.6779 6.3947,10.7177 7.0721,10.7177 7.0721,10.6779 7.1916,10.6779 7.1916,10.638 7.351,10.638 7.351,10.5982 7.3908,10.5982 7.3908,10.5584 7.5104,10.5584 7.5104,10.5185 7.6299,10.5185 7.6299,10.4787 7.7096,10.4787 7.7096,10.4388 7.7893,10.4388 7.7893,10.399 7.869,10.399 7.869,10.3591 7.9885,10.3591 7.9885,10.3193 8.0283,10.3193 8.0283,10.2795 8.108,10.2795 8.108,10.2396 8.1479,10.2396 8.1479,10.1998 8.1877,10.1998 8.1877,10.1599 8.2275,10.1599 8.2275,10.1201 8.2674,10.1201 8.2674,10.0802 8.3072,10.0802 8.3072,10.0404 8.3471,10.0404 8.3471,9.9607 8.3869,9.9607 8.3869,9.9209 8.4267,9.9209 8.4267,9.881 8.4666,9.881 8.4666,9.8013 8.5064,9.8013 8.5064,9.7615 8.5463,9.7615 8.5463,9.6818 8.5861,9.6818 8.5861,9.6021 8.6259,9.6021 8.6259,9.5224 8.6658,9.5224 8.6658,9.4029 8.6259,9.4029 8.6259,9.4427 8.5861,9.4427 8.5861,9.4826 8.5463,9.4826 8.5463,9.5224 8.4666,9.5224 8.4666,9.5623 8.3471,9.5623 8.3471,9.6021 8.1877,9.6021 8.1877,9.6419 8.1479,9.6419 8.1479,9.6818 7.7893,9.6818 7.7893,9.7217 7.4307,9.7217 7.4307,9.6818 7.351,9.6818 7.351,9.6021 7.3112,9.6021 7.3112,9.5623 7.2713,9.5623 7.2713,9.1638 7.3112,9.1638 7.3112,9.0443 7.0721,9.0443 7.0721,9.0045 6.7533,9.0045 6.7533,8.9646 6.3151,8.9646 6.3151,8.9248 5.9166,8.9248 5.9166,8.885 5.5979,8.885 5.5979,8.9248 5.3987,8.9248 5.3987,8.9646 5.2792,8.9646 5.2792,9.0842 5.319,9.0842 5.319,9.2037 5.3588,9.2037 5.3588,9.2435 5.3987,9.2435 5.3987,9.3232 5.4385,9.3232 5.4385,9.4029 5.4784,9.4029 5.4784,9.4826 5.5182,9.4826 5.5182,9.5224 5.558,9.5224 5.558,9.6021 5.5979,9.6021 5.5979,9.6818 5.6378,9.6818 5.6378,9.7217 5.6776,9.7217 5.6776,9.8412 5.5979,9.8412 5.5979,9.8013 5.558,9.8013 5.558,9.7615 5.5182,9.7615 5.5182,9.7217 5.4784,9.7217 5.4784,9.6818 5.4385,9.6818 5.4385,9.6021 5.3987,9.6021 5.3987,9.5623 5.3588,9.5623 5.3588,9.5224 5.319,9.5224 5.319,9.4427 5.2792,9.4427 5.2792,9.3631 5.2393,9.3631 5.2393,9.2834 5.1994,9.2834 5.1994,9.2037 5.1596,9.2037 5.1596,9.124 5.0799,9.124 5.0799,9.2037 5.0401,9.2037 5.0401,9.2435 5.0002,9.2435 5.0002,9.2834 4.9604,9.2834 4.9604,9.3631 4.9206,9.3631 4.9206,9.4029 4.8807,9.4029 4.8807,9.4826 4.8409,9.4826 4.8409,9.5224 4.801,9.5224 4.801,9.6021 4.7612,9.6021 4.7612,9.6818 4.7213,9.6818 4.7213,9.7615 4.6815,9.7615 4.6815,9.8013 4.6417,9.8013 4.6417,9.881 4.6018,9.881 4.6018,9.9607 4.562,9.9607 4.562,10.0404 4.5221,10.0404 4.5221,10.1201 4.4823,10.1201 4.4823,10.1998 4.4425,10.1998 4.4425,10.3193 4.4026,10.3193 4.4026,10.3591 4.3627,10.3591 4.3627,10.4787 4.3229,10.4787 4.3229,10.5584 4.2831,10.5584 4.2831,10.6779 4.2432,10.6779 4.2432,10.8372 4.2034,10.8372 4.2034,10.917 4.1635,10.917 4.1635,11.0763 4.1237,11.0763 4.1237,11.1958 4.0839,11.1958 4.0839,11.2755 4.044,11.2755 4.044,12.3513 4.0839,12.3513 4.0839,12.5505 4.1237,12.5505 4.1237,12.7497 4.1635,12.7497 4.1635,12.9091 4.2034,12.9091 4.2034,12.9888 4.2432,12.9888 4.2432,13.1083 4.2831,13.1083 4.2831,13.2278 4.3229,13.2278 4.3229,13.3075 4.3627,13.3075 4.3627,13.427 4.4026,13.427 4.4026,13.5067 4.4425,13.5067 4.4425,13.6263 4.4823,13.6263 4.4823,13.706 4.5221,13.706 4.5221,13.8255 4.562,13.8255 4.562,13.9052 4.6018,13.9052 4.6018,13.945 4.6417,13.945 4.6417,14.0645 4.6815,14.0645 4.6815,14.1442 4.7213,14.1442 4.7213,14.2637 4.7612,14.2637 4.7612,14.3833 4.801,14.3833 4.801,14.463 4.8409,14.463 4.8409,14.5427 4.8807,14.5427 4.8807,14.6223 4.9206,14.6223 4.9206,14.702 4.9604,14.702 4.9604,14.7817 5.0002,14.7817 5.0002,14.8614 5.0401,14.8614 5.0401,14.9411 5.0799,14.9411 5.0799,15.0208 5.1198,15.0208 5.1198,15.0606 5.1596,15.0606 5.1596,15.1403 5.1994,15.1403 5.1994,15.22 5.2393,15.22 5.2393,15.2598 5.2792,15.2598 5.2792,15.3395 5.319,15.3395 5.319,15.4192 5.3588,15.4192 5.3588,15.459 5.3987,15.459 5.3987,15.5388 5.4385,15.5388 5.4385,15.5786 5.4784,15.5786 5.4784,15.6184 5.5182,15.6184 5.5182,15.6981 5.558,15.6981 5.558,15.738 5.5979,15.738 5.5979,15.7778 5.6378,15.7778 5.6378,15.8575 5.6776,15.8575 5.6776,15.8973 5.7174,15.8973 5.7174,15.9372 5.7573,15.9372 5.7573,15.977 5.7971,15.977 5.7971,16.0169 5.837,16.0169 5.837,16.0567 5.8768,16.0567 5.8768,16.0965 5.9565,16.0965 5.9565,16.1364 5.9963,16.1364 5.9963,16.1762 6.0362,16.1762 6.0362,16.2161 6.1159,16.2161 6.1159,16.2559 6.1557,16.2559 6.1557,16.2957 6.2354,16.2957 6.2354,16.3356 6.2752,16.3356 6.2752,16.3755 6.3549,16.3755 6.3549,16.4153 6.3947,16.4153 6.3947,16.4551 6.4745,16.4551 6.4745,16.495 6.5541,16.495 6.5541,16.5348 6.6737,16.5348 6.6737,16.5747 6.7533,16.5747 6.7533,16.6145 6.9127,16.6145 6.9127,16.6543 7.1518,16.6543 7.1518,16.6942 7.9486,16.6942 7.9486,16.6543 8.3869,16.6543 8.3869,16.6145 8.5064,16.6145 8.5064,16.5747 8.865,16.5747 8.865,16.5348 10.2595,16.5348 10.2595,16.495 10.5783,16.495 10.5783,16.4551 10.8173,16.4551 10.8173,16.4153 10.8572,16.4153 10.8572,16.3755 11.0165,16.3755 11.0165,16.3356 11.0564,16.3356 11.0564,16.2957 11.1361,16.2957 11.1361,16.2559 11.1759,16.2559 11.1759,16.2161 11.2158,16.2161 11.2158,16.1762 11.2954,16.1762 11.2954,16.0965 11.3353,16.0965 11.3353,16.0567 11.3751,16.0567 11.3751,16.0169 11.415,16.0169 11.415,15.977 11.4548,15.977 11.4548,15.8973 11.4946,15.8973 11.4946,15.8176 11.5345,15.8176 11.5345,15.738 11.5744,15.738 11.5744,15.6583 11.6142,15.6583 11.6142,15.5388 11.654,15.5388 11.654,15.459 11.6939,15.459 11.6939,15.3395 11.7337,15.3395 11.7337,15.22 11.7736,15.22 11.7736,15.1802 11.8134,15.1802 11.8134,15.0208 11.8532,15.0208 11.8532,14.9411 11.8931,14.9411 11.8931,14.8216 11.933,14.8216 11.933,14.7419 11.9728,14.7419 11.9728,14.6622 12.0126,14.6622 12.0126,14.5427 12.0525,14.5427 12.0525,14.4231 12.0923,14.4231 12.0923,14.3833 12.1322,14.3833 12.1322,14.3036 12.172,14.3036 12.172,14.1841 12.2118,14.1841 12.2118,14.0645 12.2517,14.0645 12.2517,14.0247 12.2915,14.0247 12.2915,13.9052 12.3314,13.9052 12.3314,13.7856 12.3712,13.7856 12.3712,13.706 12.4111,13.706 12.4111,13.6263 12.4509,13.6263 12.4509,13.427 12.4907,13.427 12.4907,13.2677 12.5306,13.2677 12.5306,13.1083 12.5704,13.1083 12.5704,12.9888 12.6103,12.9888 12.6103,12.7099 12.6501,12.7099 12.6501,12.5107 12.6899,12.5107 12.6899,12.2716 12.7298,12.2716 12.7298,11.9529 12.7697,11.9529 12.7697,11.6739 12.8095,11.6739 12.8095,9.0842 12.7697,9.0842 12.7697,8.2076 12.7298,8.2076 12.7298,8.0881 12.6899,8.0881 12.6899,7.8889 12.6501,7.8889 12.6501,7.849 12.6103,7.849 12.6103,7.7693 12.5704,7.7693 12.5704,7.7295 12.5306,7.7295 12.5306,7.6897 12.4907,7.6897 12.4907,7.6498 12.4509,7.6498 12.4509,7.6099 12.4111,7.6099 12.4111,7.5701 12.3712,7.5701 12.3712,7.5303 12.2915,7.5303 12.2915,7.4904 12.2118,7.4904 12.2118,7.4506 12.0923,7.4506 12.0923,7.4107 11.6939,7.4107 11.6939,7.4506 11.6142,7.4506 11.6142,7.4904 11.5744,7.4904 11.5744,7.5303 11.5345,7.5303 11.5345,7.5701 11.4946,7.5701 11.4946,7.6897 11.4548,7.6897 11.4548,7.849 11.415,7.849 11.415,8.0482 11.3751,8.0482 11.3751,8.1678 11.3353,8.1678 11.3353,8.3271 11.2954,8.3271 11.2954,8.4068 11.2556,8.4068 11.2556,8.606 11.2158,8.606 11.2158,8.6857 11.1759,8.6857 11.1759,8.8451 11.1361,8.8451 11.1361,9.0842 11.0962,9.0842 11.0962,9.2834 11.0564,9.2834 11.0564,9.4029 11.0165,9.4029 11.0165,9.6021 10.9767,9.6021 10.9767,9.7615 10.9369,9.7615 10.9369,9.881 10.897,9.881 10.897,10.0802 10.9767,10.0802 10.9767,10.1201 11.0564,10.1201 11.0564,10.0802 11.1361,10.0802 11.1361,10.0404 11.0564,10.0404 11.0564,10.0005 11.0165,10.0005 11.0165,9.9607 11.1361,9.9607 11.1361,9.8013 11.3353,9.8013 11.3353,9.8412 11.4946,9.8412 11.4946,9.881 11.5345,9.881 11.5345,9.9209 11.6142,9.9209 11.6142,10.1201 11.654,10.1201 11.654,10.2396 11.6939,10.2396 11.6939,10.3193 11.654,10.3193 11.654,10.5185 11.7736,10.5185 11.7736,10.4787 11.8532,10.4787 11.8532,10.4388 11.8134,10.4388 11.8134,10.399 11.7736,10.399 11.7736,10.3193 11.8134,10.3193 11.8134,10.3591 11.8931,10.3591 11.8931,10.3193 11.933,10.3193 11.933,10.2795 "/>
   <path id="_89975000" class="fil1" d="M6.7932 11.4349l0.0398 0 0 -0.0797 0.0399 0 0 -0.0398 0.0398 0 0 -0.0399 0.0797 0 0 -0.0398 0.0797 0 0 -0.0399 0.0797 0 0 -0.0398 0.1594 0 0 -0.0398 0.2788 0 0 0.0398 0.0399 0 0 0.1594 0.0399 0 0 0.4781 -0.0399 0 0 0.0398 -0.0399 0 0 0.0797 -0.0398 0 0 0.0399 -0.1992 0 0 -0.0399 -0.0398 0 0 -0.0398 -0.0798 0 0 -0.0399 -0.0398 0 0 -0.0398 -0.0797 0 0 -0.0398 -0.0398 0 0 -0.0399 -0.0797 0 0 -0.0399 -0.0398 0 0 -0.0398 -0.0399 0 0 -0.0398 -0.0398 0 0 -0.0399 -0.0399 0 0 -0.0398 -0.0398 0 0 -0.0797zm3.2273 0.1594l-0.0399 0 0 0.0796 -0.0398 0 0 0.0399 -0.0398 0 0 0.0399 -0.0399 0 0 0.0398 -0.0399 0 0 0.0398 -0.0796 0 0 0.0399 -0.0797 0 0 0.0398 -0.2789 0 0 -0.0398 -0.0797 0 0 -0.0399 -0.0797 0 0 -0.0398 -0.0398 0 0 -0.0398 -0.0399 0 0 -0.0399 -0.0398 0 0 -0.0399 -0.0399 0 0 -0.1195 -0.0398 0 0 -0.3586 0.0398 0 0 -0.239 0.518 0 0 0.0398 0.1195 0 0 0.0399 0.1195 0 0 0.0398 0.0798 0 0 0.0399 0.0796 0 0 0.0796 0.0399 0 0 0.0399 0.0398 0 0 0.239 -0.0398 0 0 0.1196zm0.5976 -0.3985l0.0398 0 0 -0.1195 0.0399 0 0 -0.0398 0.1195 0 0 -0.0399 0.2789 0 0 0.0399 0.0797 0 0 0.0398 0.1195 0 0 0.0399 0.0399 0 0 0.0398 0.0398 0 0 0.0398 0.0399 0 0 0.1993 -0.0399 0 0 0.0398 -0.0398 0 0 0.0398 -0.0399 0 0 0.0399 -0.0398 0 0 0.0398 -0.0398 0 0 0.0399 -0.1196 0 0 0.0398 -0.239 0 0 -0.0398 -0.0797 0 0 -0.0399 -0.0797 0 0 -0.0398 -0.0399 0 0 -0.1195 -0.0398 0 0 -0.1993zm-3.6655 -0.1593l0 0.0398 -0.1196 0 0 -0.1593 0.1594 0 0 -0.0399 0.1992 0 0 -0.0399 0.1992 0 0 -0.0398 0.1196 0 0 0.1196 -0.1196 0 0 0.0398 -0.2789 0 0 0.0398 -0.0797 0 0 0.0399 -0.0796 0zm1.8327 -0.1594l0 0.0797 -0.0398 0 0 0.4781 -0.0797 0 0 -0.0398 -0.1195 0 0 -0.0399 -0.0399 0 0 -0.0398 -0.1992 0 0 -0.0399 -0.1195 0 0 -0.0398 -0.1195 0 0 -0.0399 -0.1594 0 0 -0.0398 -0.0398 0 0 -0.239 -0.0399 0 0 -0.1196 -0.0398 0 0 -0.1195 0.1195 0 0 -0.0399 0.0797 0 0 -0.0398 0.0797 0 0 -0.0398 0.0797 0 0 -0.0399 0.0796 0 0 -0.0398 0.0399 0 0 -0.0399 0.0398 0 0 -0.0398 0.0399 0 0 -0.0399 0.0796 0 0 -0.0398 0.0399 0 0 -0.0797 0.0398 0 0 -0.0398 0.0399 0 0 -0.0399 0.0398 0 0 -0.0398 0.0398 0 0 -0.0399 0.0399 0 0 -0.0797 0.0399 0 0 -0.0398 0.0398 0 0 -0.0398 0.0398 0 0 -0.0797 0.0399 0 0 -0.0797 0.0398 0 0 -0.0398 0.0399 0 0 -0.0798 0.0398 0 0 -0.1195 0.0797 0 0 0.1594 -0.0399 0 0 0.1195 -0.0398 0 0 0.2391 -0.0398 0 0 0.3586 -0.0399 0 0 0.3586 -0.0398 0 0 0.1195 -0.0399 0zm-0.2789 -1.5937l-0.0398 0 0 0.0398 -0.0797 0 0 0.0399 -0.0797 0 0 0.0398 -0.1195 0 0 0.0398 -0.3187 0 0 0.0399 -0.3985 0 0 -0.2391 0.0399 0 0 -0.0797 0.0398 0 0 -0.0796 0.0797 0 0 -0.0399 0.9164 0 0 0.1594 -0.0399 0 0 0.0797zm0.1594 0.1992l0 0.0398 -0.0399 0 0 0.0797 -0.0398 0 0 0.0797 -0.0398 0 0 0.0797 -0.0399 0 0 0.0398 -0.0398 0 0 0.0797 -0.0399 0 0 0.0399 -0.0398 0 0 0.0398 -0.0398 0 0 0.0797 -0.0399 0 0 0.0398 -0.0398 0 0 0.0399 -0.0399 0 0 0.0398 -0.0398 0 0 0.0399 -0.0398 0 0 0.0398 -0.0399 0 0 0.0399 -0.0797 0 0 0.0398 -0.0398 0 0 0.0398 -0.1195 0 0 0.0399 -0.0797 0 0 0.0398 -0.0797 0 0 0.0399 -0.0797 0 0 0.0398 -0.1195 0 0 0.0399 -0.1196 0 0 0.0398 -0.0398 0 0 0.0398 -0.1594 0 0 0.0399 -0.1195 0 0 0.0398 -0.6774 0 0 -0.0398 -0.0398 0 0 -0.0399 -0.0398 0 0 -0.0398 -0.0399 0 0 -0.0398 -0.0398 0 0 -0.0797 -0.0399 0 0 -0.0797 -0.0398 0 0 0.1992 0.0398 0 0 0.0797 0.0399 0 0 0.0797 0.0797 0 0 0.0398 0.0796 0 0 0.0797 0.1594 0 0 0.1992 -0.0398 0 0 0.1195 -0.0398 0 0 0.0399 -0.0399 0 0 0.0398 -0.0797 0 0 0.0399 -0.0398 0 0 0.0398 -0.1196 0 0 0.0399 -0.5179 0 0 0.0398 -0.1992 0 0 0.0398 -0.0797 0 0 0.0797 0.0398 0 0 0.0399 0.1993 0 0 0.0398 0.6773 0 0 -0.0398 0.0398 0 0 -0.0399 0.1196 0 0 0.0399 0.0398 0 0 0.0398 0.0398 0 0 0.0398 0.0399 0 0 0.0399 0.0398 0 0 0.0399 0.0399 0 0 0.0398 0.0398 0 0 0.0398 0.0398 0 0 0.0399 0.0399 0 0 0.0398 0.0398 0 0 0.0399 0.0797 0 0 0.0398 0.0399 0 0 0.0398 0.0796 0 0 0.0399 0.0399 0 0 0.0398 0.0797 0 0 0.0399 0.0796 0 0 0.0398 0.0399 0 0 0.0398 0.0797 0 0 0.0399 0.0797 0 0 0.0399 0.0797 0 0 0.0398 0.0398 0 0 0.0398 0.0797 0 0 0.0399 0.0399 0 0 0.0398 0.0796 0 0 0.0399 0.0399 0 0 0.0398 0.0797 0 0 0.0398 0.0398 0 0 0.0399 0.0398 0 0 0.0398 0.0797 0 0 0.0399 0.0399 0 0 0.0398 0.0398 0 0 0.0399 0.0399 0 0 0.0796 0.0398 0 0 0.0399 0.0398 0 0 0.0398 0.0399 0 0 0.0399 0.0398 0 0 0.0796 0.0399 0 0 0.0798 0.0398 0 0 0.0398 0.0398 0 0 0.0797 0.0399 0 0 0.0797 0.0398 0 0 0.0398 0.0399 0 0 0.1195 0.0398 0 0 0.0797 0.0398 0 0 0.0797 0.0399 0 0 0.1195 0.0399 0 0 0.0797 0.0398 0 0 0.1594 0.0398 0 0 0.0398 0.0399 0 0 0.1992 0.0398 0 0 0.0798 0.0399 0 0 0.1195 0.0398 0 0 0.1992 0.0398 0 0 0.1195 0.0399 0 0 0.2391 0.0398 0 0 0.3586 0.0399 0 0 0.1195 0.0398 0 0 -0.0399 0.0399 0 0 -0.8367 -0.0399 0 0 -0.1593 -0.0398 0 0 -0.1993 -0.0399 0 0 -0.1593 -0.0398 0 0 -0.0797 -0.0399 0 0 -0.1594 -0.0398 0 0 -0.1195 -0.0398 0 0 -0.1195 -0.0399 0 0 -0.0797 -0.0398 0 0 -0.1196 -0.0399 0 0 -0.1195 -0.0398 0 0 -0.0797 -0.0398 0 0 -0.0796 -0.0399 0 0 -0.0399 -0.0399 0 0 -0.0797 -0.0398 0 0 -0.0797 -0.0398 0 0 -0.0398 -0.0399 0 0 -0.0797 -0.0398 0 0 -0.0398 -0.0399 0 0 -0.0797 -0.0398 0 0 -0.0399 -0.0398 0 0 -0.0398 -0.0399 0 0 -0.0399 -0.0398 0 0 -0.0398 -0.0399 0 0 -0.0398 -0.0398 0 0 -0.0399 -0.0398 0 0 -0.0398 -0.0399 0 0 -0.0399 -0.0398 0 0 -0.0398 -0.0797 0 0 -0.0398 -0.0399 0 0 -0.0399 -0.0398 0 0 -0.0399 -0.0797 0 0 -0.0398 -0.0797 0 0 -0.0797 0.0399 0 0 -0.0398 0.0398 0 0 -0.0797 0.1195 0 0 0.0398 0.0399 0 0 0.0399 0.0398 0 0 0.0398 0.0797 0 0 0.0399 0.0399 0 0 0.0398 0.0796 0 0 0.0398 0.0399 0 0 0.0399 0.0797 0 0 0.0399 0.0398 0 0 0.0398 0.0797 0 0 0.0398 0.0398 0 0 0.0399 0.0797 0 0 0.0398 0.0398 0 0 0.0399 0.0798 0 0 0.0398 0.0398 0 0 0.0398 0.0797 0 0 0.0399 0.0398 0 0 0.0398 0.0797 0 0 0.0399 0.0398 0 0 0.0398 0.0797 0 0 0.0399 0.0399 0 0 0.0398 0.0398 0 0 0.0398 0.0797 0 0 0.0399 0.0398 0 0 0.0398 0.0797 0 0 0.0399 0.0399 0 0 0.0398 0.0398 0 0 0.0398 0.0398 0 0 0.0399 0.0798 0 0 0.0399 0.0398 0 0 0.0398 0.0398 0 0 0.0398 0.0399 0 0 0.0399 0.0398 0 0 0.0398 0.0399 0 0 0.0399 0.0398 0 0 0.0398 0.0398 0 0 0.0398 0.0399 0 0 0.0399 0.0399 0 0 0.0398 0.0398 0 0 0.0399 0.0398 0 0 0.0398 0.0399 0 0 0.0797 0.0398 0 0 0.0399 0.0399 0 0 0.0398 0.0398 0 0 0.0797 0.0398 0 0 0.0398 0.0399 0 0 0.0797 0.0398 0 0 0.0797 0.0399 0 0 0.0797 0.0797 0 0 -0.2391 -0.0399 0 0 -0.0797 -0.0398 0 0 -0.0796 -0.0399 0 0 -0.0797 -0.0398 0 0 -0.0797 -0.0399 0 0 -0.0797 -0.0398 0 0 -0.0399 -0.0398 0 0 -0.0398 -0.0399 0 0 -0.0398 -0.0398 0 0 -0.0797 -0.0399 0 0 -0.0399 -0.0398 0 0 -0.0398 -0.0398 0 0 -0.0398 -0.0399 0 0 -0.0399 -0.0399 0 0 -0.0399 -0.0398 0 0 -0.0398 -0.0398 0 0 -0.0398 -0.0399 0 0 -0.0399 -0.0398 0 0 -0.0398 -0.0399 0 0 -0.0399 -0.0398 0 0 -0.0398 -0.0398 0 0 -0.0398 -0.0399 0 0 -0.0399 -0.0797 0 0 -0.0398 -0.0398 0 0 -0.0399 -0.0399 0 0 -0.0398 -0.0797 0 0 -0.0399 -0.0398 0 0 -0.0398 -0.0398 0 0 -0.0398 -0.0797 0 0 -0.0399 -0.0399 0 0 -0.0398 -0.0398 0 0 -0.0399 -0.0797 0 0 -0.0398 -0.0398 0 0 -0.0398 -0.0797 0 0 -0.0399 -0.0399 0 0 -0.0399 -0.0796 0 0 -0.0398 -0.0399 0 0 -0.0398 -0.0797 0 0 -0.0399 -0.0398 0 0 -0.0398 -0.0797 0 0 -0.0399 -0.0399 0 0 -0.0398 -0.0796 0 0 -0.0398 -0.0399 0 0 -0.0399 -0.0398 0 0 -0.0398 -0.0797 0 0 -0.0399 -0.0398 0 0 -0.0398 -0.0399 0 0 -0.0398 -0.0797 0 0 -0.0399 -0.0398 0 0 -0.0399 -0.0399 0 0 -0.1992 0.1594 0 0 0.0399 0.2391 0 0 0.0398 0.0796 0 0 0.0399 0.1992 0 0 0.0398 0.1594 0 0 0.0797 0.0399 0 0 0.0797 0.0398 0 0 0.0398 0.0399 0 0 0.0399 0.0398 0 0 0.0398 0.0398 0 0 0.0399 0.0399 0 0 0.0398 0.0797 0 0 0.0398 0.0398 0 0 0.0399 0.1195 0 0 0.0398 0.4383 0 0 0.0399 0.0399 0 0 0.0398 0.1195 0 0 0.0398 0.0399 0 0 0.0399 0.1195 0 0 0.0399 0.0797 0 0 0.0398 0.0796 0 0 0.0398 0.0797 0 0 0.0399 0.0797 0 0 0.0398 0.1195 0 0 0.0399 0.1196 0 0 0.0398 0.0398 0 0 0.0398 0.0797 0 0 0.0399 0.1195 0 0 0.0398 0.0797 0 0 0.0399 0.0797 0 0 0.0398 0.0797 0 0 0.0399 0.0398 0 0 0.0398 0.0797 0 0 0.0398 0.0797 0 0 0.0399 0.0797 0 0 0.0398 0.0398 0 0 0.0399 0.0797 0 0 0.0398 0.0797 0 0 0.0398 0.0399 0 0 0.0399 0.1195 0 0 -0.1195 -0.0399 0 0 -0.0399 -0.0398 0 0 -0.0398 -0.0398 0 0 -0.0399 -0.0399 0 0 -0.0398 -0.0399 0 0 -0.0398 -0.0398 0 0 -0.0399 -0.0797 0 0 -0.0398 -0.0398 0 0 -0.0399 -0.0399 0 0 -0.0398 -0.0796 0 0 -0.0399 -0.0399 0 0 -0.0398 -0.0797 0 0 -0.0398 -0.0398 0 0 -0.0399 -0.0797 0 0 -0.0398 -0.0797 0 0 -0.0399 -0.0797 0 0 -0.0398 -0.0796 0 0 -0.0398 -0.0798 0 0 -0.0399 -0.0796 0 0 -0.0399 -0.0797 0 0 -0.0398 -0.0797 0 0 -0.0398 -0.0797 0 0 -0.0399 -0.0797 0 0 -0.0398 -0.1195 0 0 -0.0399 -0.0797 0 0 -0.0796 0.0797 0 0 -0.0399 0.0398 0 0 -0.0797 0.0399 0 0 -0.0398 0.0398 0 0 -0.0797 0.0399 0 0 -0.1195 0.0797 0 0 0.0796 0.0398 0 0 0.0399 0.0398 0 0 0.0399 0.0399 0 0 0.0398 0.0797 0 0 0.0398 0.0796 0 0 0.0399 0.1993 0 0 0.0398 0.3984 0 0 -0.0398 0.0797 0 0 -0.0399 0.0797 0 0 -0.0398 0.0398 0 0 -0.0398 0.0398 0 0 -0.0399 0.0798 0 0 -0.0399 0.0398 0 0 -0.0796 0.0398 0 0 -0.0399 0.0399 0 0 -0.0398 0.0398 0 0 -0.0399 0.0399 0 0 -0.0796 0.0398 0 0 -0.0399 0.0398 0 0 -0.0797 0.0399 0 0 -0.0797 0.0399 0 0 -0.0796 0.0398 0 0 -0.1196 0.0398 0 0 -0.0398 0.0399 0 0 -0.0797 0.0398 0 0 -0.1195 0.0399 0 0 -0.1594 0.0398 0 0 -0.0797 0.0398 0 0 -0.1992 0.0399 0 0 -0.1195 0.0398 0 0 -0.1594 0.0399 0 0 -0.3586 0.0398 0 0 -0.3187 -0.0398 0 0 0.0398 -0.0399 0 0 0.1195 -0.0398 0 0 0.1195 -0.0399 0 0 0.1196 -0.0398 0 0 0.1195 -0.0398 0 0 0.1195 -0.0399 0 0 0.1196 -0.0398 0 0 0.1195 -0.0399 0 0 0.1195 -0.0398 0 0 0.0797 -0.0398 0 0 0.1196 -0.0399 0 0 0.1195 -0.0399 0 0 0.0398 -0.0398 0 0 0.1195 -0.0398 0 0 0.0798 -0.0399 0 0 0.0796 -0.0398 0 0 0.0797 -0.0399 0 0 0.0399 -0.0796 0 0 -0.0399 -0.0399 0 0 -0.0398 -0.0399 0 0 -0.0399 -0.0398 0 0 -0.0398 -0.0398 0 0 -0.0398 -0.0399 0 0 -0.0399 -0.0797 0 0 -0.0399 -0.1992 0 0 -0.0398 -0.2789 0 0 0.0398 -0.1195 0 0 -0.1593 0.0399 0 0 -0.1594 0.0398 0 0 -0.239 0.0398 0 0 -0.1594 0.0399 0 0 -0.1594 0.0398 0 0 -0.0797 0.0399 0 0 -0.1195 0.0398 0 0 -0.1594 0.0398 0 0 -0.1992 0.0399 0 0 -0.1195 0.0398 0 0 -0.1992 0.0399 0 0 -0.2391 0.0398 0 0 -0.1594 0.0399 0 0 -0.0797 0.0398 0 0 -0.1992 0.0398 0 0 -0.0797 0.0399 0 0 -0.1593 0.0398 0 0 -0.1196 0.0399 0 0 -0.1992 0.0398 0 0 -0.1593 0.0398 0 0 -0.1196 0.0399 0 0 -0.0398 0.0399 0 0 -0.0399 0.0398 0 0 -0.0398 0.0797 0 0 -0.0399 0.3984 0 0 0.0399 0.1195 0 0 0.0398 0.0797 0 0 0.0399 0.0797 0 0 0.0398 0.0399 0 0 0.0398 0.0398 0 0 0.0399 0.0398 0 0 0.0399 0.0399 0 0 0.0398 0.0398 0 0 0.0398 0.0399 0 0 0.0797 0.0398 0 0 0.0399 0.0398 0 0 0.1992 0.0399 0 0 0.1195 0.0399 0 0 0.8766 0.0398 0 0 2.5897 -0.0398 0 0 0.279 -0.0399 0 0 0.3187 -0.0399 0 0 0.2391 -0.0398 0 0 0.1992 -0.0398 0 0 0.2789 -0.0399 0 0 0.1195 -0.0398 0 0 0.1594 -0.0399 0 0 0.1593 -0.0398 0 0 0.1993 -0.0398 0 0 0.0797 -0.0399 0 0 0.0796 -0.0398 0 0 0.1196 -0.0399 0 0 0.1195 -0.0398 0 0 0.0398 -0.0399 0 0 0.1196 -0.0398 0 0 0.1195 -0.0398 0 0 0.0797 -0.0399 0 0 0.0398 -0.0398 0 0 0.1196 -0.0399 0 0 0.1195 -0.0398 0 0 0.0797 -0.0398 0 0 0.0797 -0.0399 0 0 0.1195 -0.0399 0 0 0.0797 -0.0398 0 0 0.1594 -0.0398 0 0 0.0398 -0.0399 0 0 0.1195 -0.0398 0 0 0.1195 -0.0399 0 0 0.0798 -0.0398 0 0 0.1195 -0.0398 0 0 0.0797 -0.0399 0 0 0.0796 -0.0399 0 0 0.0797 -0.0398 0 0 0.0797 -0.0398 0 0 0.0399 -0.0399 0 0 0.0398 -0.0398 0 0 0.0398 -0.0399 0 0 0.0797 -0.0796 0 0 0.0399 -0.0399 0 0 0.0398 -0.0398 0 0 0.0398 -0.0797 0 0 0.0399 -0.0399 0 0 0.0399 -0.1593 0 0 0.0398 -0.0399 0 0 0.0398 -0.239 0 0 0.0399 -0.3188 0 0 0.0398 -1.3945 0 0 0.0399 -0.3586 0 0 0.0398 -0.1195 0 0 0.0398 -0.4383 0 0 0.0399 -0.7968 0 0 -0.0399 -0.2391 0 0 -0.0398 -0.1594 0 0 -0.0398 -0.0796 0 0 -0.0399 -0.1196 0 0 -0.0398 -0.0796 0 0 -0.0399 -0.0798 0 0 -0.0398 -0.0398 0 0 -0.0398 -0.0797 0 0 -0.0399 -0.0398 0 0 -0.0399 -0.0797 0 0 -0.0398 -0.0398 0 0 -0.0398 -0.0797 0 0 -0.0399 -0.0399 0 0 -0.0398 -0.0398 0 0 -0.0399 -0.0797 0 0 -0.0398 -0.0398 0 0 -0.0398 -0.0399 0 0 -0.0399 -0.0398 0 0 -0.0398 -0.0399 0 0 -0.0399 -0.0398 0 0 -0.0398 -0.0398 0 0 -0.0797 -0.0399 0 0 -0.0398 -0.0399 0 0 -0.0399 -0.0398 0 0 -0.0797 -0.0398 0 0 -0.0398 -0.0399 0 0 -0.0398 -0.0398 0 0 -0.0798 -0.0399 0 0 -0.0398 -0.0398 0 0 -0.0797 -0.0398 0 0 -0.0797 -0.0399 0 0 -0.0398 -0.0399 0 0 -0.0797 -0.0398 0 0 -0.0797 -0.0398 0 0 -0.0398 -0.0399 0 0 -0.0797 -0.0398 0 0 -0.0797 -0.0399 0 0 -0.0797 -0.0398 0 0 -0.0797 -0.0398 0 0 -0.0797 -0.0399 0 0 -0.0796 -0.0398 0 0 -0.0797 -0.0399 0 0 -0.0797 -0.0398 0 0 -0.1196 -0.0399 0 0 -0.1195 -0.0398 0 0 -0.0797 -0.0398 0 0 -0.1195 -0.0399 0 0 -0.0398 -0.0398 0 0 -0.0797 -0.0399 0 0 -0.1195 -0.0398 0 0 -0.0797 -0.0398 0 0 -0.1196 -0.0399 0 0 -0.0797 -0.0399 0 0 -0.1195 -0.0398 0 0 -0.0797 -0.0398 0 0 -0.1195 -0.0399 0 0 -0.1195 -0.0398 0 0 -0.0797 -0.0399 0 0 -0.1594 -0.0398 0 0 -0.1992 -0.0398 0 0 -0.1992 -0.0399 0 0 -1.0758 0.0399 0 0 -0.0797 0.0398 0 0 -0.1195 0.0398 0 0 -0.1593 0.0399 0 0 -0.0798 0.0398 0 0 -0.1593 0.0399 0 0 -0.1195 0.0398 0 0 -0.0797 0.0398 0 0 -0.1196 0.0399 0 0 -0.0398 0.0399 0 0 -0.1195 0.0398 0 0 -0.0797 0.0398 0 0 -0.0797 0.0399 0 0 -0.0797 0.0398 0 0 -0.0797 0.0399 0 0 -0.0797 0.0398 0 0 -0.0398 0.0398 0 0 -0.0797 0.0399 0 0 -0.0797 0.0398 0 0 -0.0797 0.0399 0 0 -0.0398 0.0398 0 0 -0.0797 0.0399 0 0 -0.0398 0.0398 0 0 -0.0797 0.0398 0 0 -0.0399 0.0399 0 0 -0.0398 0.0398 0 0 -0.0797 0.0399 0 0 -0.0398 0.0796 0 0 0.1992 0.0399 0 0 0.0797 0.0399 0 0 0.0796 0.0398 0 0 0.0797 0.0398 0 0 0.0399 0.0399 0 0 0.0398 0.0398 0 0 0.0797 0.0399 0 0 0.0399 0.0398 0 0 0.0398 0.0398 0 0 0.0398 0.0399 0 0 0.0399 0.0797 0 0 -0.1195 -0.0398 0 0 -0.0399 -0.0399 0 0 -0.0797 -0.0399 0 0 -0.0797 -0.0398 0 0 -0.0398 -0.0398 0 0 -0.0797 -0.0399 0 0 -0.0797 -0.0398 0 0 -0.0797 -0.0399 0 0 -0.0398 -0.0398 0 0 -0.1195 -0.0398 0 0 -0.1196 0.1195 0 0 -0.0398 0.1992 0 0 -0.0398 0.3187 0 0 0.0398 0.3985 0 0 0.0398 0.4382 0 0 0.0399 0.3188 0 0 0.0398 0.2391 0 0 0.1195 -0.0399 0 0 0.3985 0.0399 0 0 0.0398 0.0398 0 0 0.0797 0.0797 0 0 0.0399 0.3586 0 0 -0.0399 0.3586 0 0 -0.0399 0.0398 0 0 -0.0398 0.1594 0 0 -0.0398 0.1195 0 0 -0.0399 0.0797 0 0 -0.0398 0.0398 0 0 -0.0399 0.0398 0 0 -0.0796 0.0399 0 0 -0.0399 0.0399 0 0 0.1594 -0.0399 0zm-2.9882 -1.4344l0.0398 0 0 -0.3984 0.0399 0 0 -0.3586 0.0398 0 0 -0.1195 0.0399 0 0 -0.1195 0.0398 0 0 -0.1196 0.0398 0 0 -0.0398 0.0399 0 0 -0.0797 0.0398 0 0 -0.0797 0.0399 0 0 -0.0797 0.0398 0 0 -0.0398 0.0399 0 0 -0.0399 0.0398 0 0 -0.0398 0.0398 0 0 -0.0398 0.0399 0 0 -0.0399 0.0398 0 0 -0.0398 0.0399 0 0 -0.0399 0.1594 0 0 -0.0398 0.239 0 0 0.0398 0.1195 0 0 0.0399 0.1196 0 0 0.0398 0.0398 0 0 0.0399 0.0398 0 0 0.0398 0.0399 0 0 0.0797 0.0398 0 0 0.1593 0.0399 0 0 1.1953 0.0398 0 0 0.5579 0.0398 0 0 0.1992 -0.1593 0 0 -0.0399 -0.3188 0 0 -0.0398 -0.3984 0 0 -0.0399 -0.6773 0 0 -0.5578zm4.821 2.032l0 0.1993 -0.0399 0 0 0.1195 -0.0398 0 0 0.1594 -0.0398 0 0 0.1195 -0.0399 0 0 0.1593 -0.0398 0 0 0.2391 -0.0399 0 0 0.1195 -0.0398 0 0 -0.0796 -0.0399 0 0 -0.0797 -0.0398 0 0 -0.0399 -0.0398 0 0 -0.0398 -0.0399 0 0 -0.0398 -0.0398 0 0 -0.0399 -0.0797 0 0 -0.0399 -0.1196 0 0 -0.0398 -0.1195 0 0 -0.0398 -0.5578 0 0 -0.1594 0.0399 0 0 -0.2391 0.0398 0 0 -0.3187 0.0398 0 0 -0.1594 0.0399 0 0 -0.1992 0.0398 0 0 -0.1992 0.0399 0 0 -0.2391 0.0398 0 0 -0.1593 0.0398 0 0 -0.1594 0.0399 0 0 -0.1992 0.0399 0 0 -0.1196 0.0398 0 0 -0.239 0.0398 0 0 -0.1594 0.0399 0 0 -0.1992 0.0398 0 0 -0.518 0.0399 0 0 -0.3586 0.0398 0 0 -0.1593 0.0398 0 0 -0.1993 0.0399 0 0 -0.1593 0.0399 0 0 -0.0797 0.0398 0 0 -0.0797 0.0398 0 0 -0.0797 0.0399 0 0 -0.0398 0.0797 0 0 -0.0398 0.0398 0 0 -0.0399 0.1195 0 0 -0.0399 0.0399 0 0 -0.0398 0.4383 0 0 0.0398 0.1195 0 0 0.0399 0.1195 0 0 0.0399 0.0398 0 0 0.0398 0.0399 0 0 0.0398 0.0398 0 0 0.0399 0.0399 0 0 0.0398 0.0398 0 0 0.0797 0.0399 0 0 0.0797 0.0398 0 0 0.6773 -0.0398 0 0 0.1992 -0.0399 0 0 0.2391 -0.0398 0 0 0.1594 -0.0399 0 0 0.0796 -0.0398 0 0 0.1993 -0.0399 0 0 0.1195 -0.0398 0 0 0.0797 -0.0398 0 0 0.1195 -0.0399 0 0 0.1992 -0.0398 0 0 0.0797 -0.0399 0 0 0.1594 -0.0398 0 0 0.1992 -0.0398 0 0 0.1195 -0.0399 0 0 0.1594 -0.0399 0 0 0.1195 -0.0398 0 0 0.2391 -0.0398 0 0 0.1195 -0.0399 0 0 0.1992 -0.0398 0zm-1.4344 -6.5342l0.0399 0 0 0.6374 -0.2391 0 0 -0.0398 -0.6773 0 0 0.0398 -0.1594 0 0 0.0399 -0.1992 0 0 0.0399 -0.0797 0 0 0.0398 1.3547 0 0 0.757 0.0398 0 0 1.793 0.0399 0 0 0.1992 0.0398 0 0 0.1992 0.0398 0 0 0.1593 0.0399 0 0 0.1594 0.0398 0 0 0.0797 0.0399 0 0 0.1594 0.0398 0 0 0.1593 -0.0398 0 0 0.1594 -0.0399 0 0 0.1992 -0.0398 0 0 0.1195 -0.0399 0 0 0.1993 -0.0398 0 0 0.1195 -0.0398 0 0 0.1594 -0.0399 0 0 0.1195 -0.0398 0 0 0.2391 -0.0399 0 0 0.0797 -0.0398 0 0 -0.2789 -0.0399 0 0 -0.0797 -0.0398 0 0 -0.0797 -0.0398 0 0 -0.0398 -0.0399 0 0 -0.0399 -0.0398 0 0 -0.0399 -0.0797 0 0 -0.0398 -0.1594 0 0 -0.0398 -0.6375 0 0 0.0398 -0.4382 0 0 -0.239 -0.0399 0 0 -0.3985 0.1594 0 0 -0.0398 0.1594 0 0 -0.0399 0.239 0 0 -0.0398 0.4383 0 0 -0.0399 0.0398 0 0 -0.0796 -0.0398 0 0 -0.0399 -0.1195 0 0 -0.0398 -0.7172 0 0 0.0398 -0.1594 0 0 -1.7531 -0.0398 0 0 -1.6335 0.0398 0 0 -0.6774 0.0399 0 0 -1.4343 0.1992 0 0 -0.0399 0.1992 0 0 -0.0398 0.5179 0 0 0.0398 0.1196 0 0 -0.0398 -0.0399 0 0 -0.0398 -0.0398 0 0 -0.0399 -0.1594 0 0 -0.0399 -0.6374 0 0 0.0399 -0.1594 0 0 -0.5977 0.0398 0 0 -0.3187 0.0398 0 0 -0.2789 0.0399 0 0 -0.1992 0.0399 0 0 -0.1594 0.0398 0 0 -0.0797 0.0398 0 0 -0.0796 0.0399 0 0 -0.0399 0.0398 0 0 -0.0398 0.0399 0 0 -0.0399 0.0398 0 0 -0.0398 0.3187 0 0 0.0398 0.0399 0 0 0.0399 0.0797 0 0 0.0398 0.0796 0 0 0.0399 0.0399 0 0 0.0398 0.0398 0 0 0.0398 0.0399 0 0 0.0399 0.0398 0 0 0.0398 0.0398 0 0 0.0399 0.0399 0 0 0.0796 0.0399 0 0 0.0399 0.0398 0 0 0.0797 0.0398 0 0 0.1195 0.0399 0 0 0.0797 0.0398 0 0 0.2391 0.0399 0 0 0.1992 0.0398 0 0 0.1593 0.0398 0 0 0.9961 0.0399 0 0 0.5578 0.0398 0 0 0.3188zm-1.1554 -3.5062l-0.0797 0 0 0.0398 -0.0797 0 0 0.0399 -0.0796 0 0 0.0398 -0.0399 0 0 0.0399 -0.0399 0 0 0.0796 -0.0398 0 0 0.0399 -0.0398 0 0 0.0797 -0.0399 0 0 0.0797 -0.0398 0 0 0.1195 -0.0399 0 0 0.0398 -0.0398 0 0 0.1195 -0.0398 0 0 0.2391 -0.0399 0 0 0.0797 -0.0399 0 0 2.4703 -0.0398 0 0 0.4781 -0.0398 0 0 2.1913 -0.0399 0 0 -0.0398 -0.0398 0 0 -0.0398 -0.1195 0 0 -0.0399 -0.1594 0 0 -0.0398 -0.3985 0 0 0.0398 -0.1593 0 0 0.0399 -0.0399 0 0 0.0398 -0.0796 0 0 0.0398 -0.0797 0 0 0.0399 -0.0399 0 0 0.0399 -0.0398 0 0 0.0398 -0.0399 0 0 0.0398 -0.0398 0 0 0.0399 -0.0398 0 0 0.0398 -0.0399 0 0 0.0797 -0.0398 0 0 0.0398 -0.0399 0 0 0.0797 -0.0398 0 0 0.0797 -0.0398 0 0 0.1196 -0.0399 0 0 0.0796 -0.0399 0 0 0.1594 -0.0398 0 0 0.1195 -0.0398 0 0 0.3586 -0.0399 0 0 0.3984 -0.0398 0 0 0.6774 -0.1195 0 0 0.0398 -0.0798 0 0 0.0399 -0.0796 0 0 0.0398 -0.0797 0 0 0.0398 -0.0399 0 0 0.0399 -0.0398 0 0 0.0399 -0.0398 0 0 0.0398 -0.0399 0 0 0.0797 -0.0398 0 0 0.0398 -0.0399 0 0 0.0399 -0.0398 0 0 0.0796 -0.0399 0 0 0.0399 -0.0398 0 0 0.0797 -0.0398 0 0 0.0797 -0.0399 0 0 0.0398 -0.0398 0 0 0.0797 -0.0399 0 0 0.0797 -0.0398 0 0 0.0796 -0.0398 0 0 0.1196 -0.0399 0 0 0.0797 -0.0399 0 0 0.0797 -0.0398 0 0 0.0796 -0.0398 0 0 0.0797 -0.0399 0 0 0.1594 -0.0398 0 0 0.0797 -0.0399 0 0 0.1195 -0.0398 0 0 0.1594 -0.0398 0 0 0.1594 -0.0399 0 0 0.1195 -0.0398 0 0 0.1594 -0.0399 0 0 0.2789 -0.0398 0 0 0.1593 -0.0399 0 0 0.1594 -0.0398 0 0 0.3188 -0.0399 0 0 0.5179 0.0399 0 0 0.2789 0.0398 0 0 0.1594 0.0399 0 0 0.1593 0.0398 0 0 0.1594 0.0399 0 0 0.0797 0.0398 0 0 0.1594 0.0399 0 0 0.0797 0.0398 0 0 0.0797 0.0398 0 0 0.1593 0.0399 0 0 0.0797 0.0398 0 0 0.0797 0.0399 0 0 0.1195 0.0398 0 0 0.0797 0.0398 0 0 0.0797 0.0399 0 0 0.0797 0.0399 0 0 0.1195 0.0398 0 0 0.0797 0.0398 0 0 0.1195 0.0399 0 0 0.0797 0.0398 0 0 0.0797 0.0399 0 0 0.0797 0.0398 0 0 0.0797 0.0398 0 0 0.0398 0.0399 0 0 0.0797 0.0398 0 0 0.0797 0.0399 0 0 0.0797 0.0398 0 0 0.0398 0.0399 0 0 0.0797 0.0398 0 0 0.0399 0.0398 0 0 0.0796 0.0399 0 0 0.0399 0.0398 0 0 0.0797 0.0399 0 0 0.0398 0.0398 0 0 0.0797 0.0398 0 0 0.0399 0.0399 0 0 0.0398 0.0399 0 0 0.0398 0.0398 0 0 0.0797 0.0398 0 0 0.0399 0.0399 0 0 0.0398 0.0398 0 0 0.0399 0.0399 0 0 0.0398 0.0398 0 0 0.0398 0.0398 0 0 0.0399 0.0399 0 0 0.0398 0.0797 0 0 0.0399 0.0398 0 0 0.0398 0.0399 0 0 0.0398 0.0797 0 0 0.0399 0.0796 0 0 0.0399 0.0399 0 0 0.0398 0.0797 0 0 0.0398 0.0398 0 0 0.0399 0.1195 0 0 0.0398 0.0797 0 0 0.0399 0.0797 0 0 0.0398 0.0797 0 0 0.0398 0.0797 0 0 0.0399 0.0797 0 0 0.0398 0.0398 0 0 0.0399 0.1195 0 0 0.0398 0.0797 0 0 0.0399 0.1594 0 0 0.0398 0.239 0 0 0.0398 0.9563 0 0 -0.0398 0.3586 0 0 -0.0398 0.3984 0 0 -0.0399 1.6336 0 0 -0.0398 0.1992 0 0 -0.0399 0.1992 0 0 -0.0398 0.0797 0 0 -0.0399 0.1195 0 0 -0.0398 0.0399 0 0 -0.0398 0.0796 0 0 -0.0399 0.0399 0 0 -0.0398 0.0398 0 0 -0.0399 0.0797 0 0 -0.0398 0.0398 0 0 -0.0398 0.0399 0 0 -0.0399 0.0399 0 0 -0.0399 0.0398 0 0 -0.0796 0.0398 0 0 -0.0399 0.0399 0 0 -0.0797 0.0398 0 0 -0.0398 0.0399 0 0 -0.0797 0.0398 0 0 -0.0797 0.0398 0 0 -0.0797 0.0399 0 0 -0.1195 0.0399 0 0 -0.0797 0.0398 0 0 -0.1594 0.0398 0 0 -0.1195 0.0399 0 0 -0.1195 0.0398 0 0 -0.1196 0.0399 0 0 -0.1195 0.0398 0 0 -0.0797 0.0398 0 0 -0.1195 0.0399 0 0 -0.0797 0.0398 0 0 -0.1195 0.0399 0 0 -0.0797 0.0398 0 0 -0.0797 0.0399 0 0 -0.1195 0.0398 0 0 -0.1195 0.0398 0 0 -0.0399 0.0399 0 0 -0.1593 0.0398 0 0 -0.1196 0.0399 0 0 -0.1195 0.0398 0 0 -0.1195 0.0398 0 0 -0.1594 0.0399 0 0 -0.1992 0.0399 0 0 -0.1993 0.0398 0 0 -0.239 0.0398 0 0 -0.1594 0.0399 0 0 -0.3187 0.0398 0 0 -0.1992 0.0399 0 0 -0.3984 0.0398 0 0 -0.3586 0.0398 0 0 -0.4781 0.0399 0 0 -0.4383 0.0399 0 0 -1.4742 -0.0399 0 0 -0.7969 -0.0399 0 0 -0.1992 -0.0398 0 0 -0.0399 -0.0398 0 0 -0.1593 -0.0399 0 0 -0.0797 -0.0398 0 0 -0.0398 -0.0399 0 0 -0.0798 -0.0398 0 0 -0.0398 -0.0398 0 0 -0.0398 -0.0399 0 0 -0.0399 -0.0399 0 0 -0.0398 -0.0398 0 0 -0.0399 -0.0398 0 0 -0.0398 -0.0797 0 0 -0.0398 -0.0797 0 0 -0.0399 -0.0797 0 0 -0.0398 -0.0797 0 0 -0.0399 -0.1992 0 0 -0.0398 -0.3187 0 0 0.0398 -0.1196 0 0 0.0399 -0.0398 0 0 0.0398 -0.0398 0 0 -0.518 -0.0399 0 0 -0.239 -0.0399 0 0 -0.0797 -0.0398 0 0 -0.0797 -0.0398 0 0 -0.0796 -0.0399 0 0 -0.0399 -0.0398 0 0 -0.0399 -0.0399 0 0 -0.0398 -0.0398 0 0 -0.0398 -0.0398 0 0 -0.0399 -0.0797 0 0 -0.0398 -0.0797 0 0 -0.0399 -0.0797 0 0 -0.0398 -0.0797 0 0 -0.0398 -0.4781 0 0 0.0398 -0.1594 0 0 0.0398 -0.1195 0 0 0.0399 -0.0398 0 0 0.0398 -0.0797 0 0 0.0399 -0.0399 0 0 0.0398 -0.0398 0 0 0.0398 -0.0398 0 0 0.0399 -0.0399 0 0 0.0399 -0.0399 0 0 0.0398 -0.0398 0 0 0.0797 -0.0398 0 0 0.0797 -0.0399 0 0 0.0796 -0.0398 0 0 0.1594 -0.0399 0 0 0.1196 -0.0398 0 0 0.1992 -0.0398 0 0 0.0398 -0.0399 0 0 -0.1594 -0.0399 0 0 -0.4382 -0.0398 0 0 -2.0719 -0.0398 0 0 -0.6375 -0.0399 0 0 -0.7171 -0.0398 0 0 -0.518 -0.0399 0 0 -0.4781 -0.0398 0 0 -0.4782 -0.0398 0 0 -0.3585 -0.0399 0 0 -0.1992 -0.0398 0 0 -0.1196 -0.0399 0 0 -0.1195 -0.0398 0 0 -0.0399 -0.0399 0 0 -0.0796 -0.0398 0 0 -0.0797 -0.0398 0 0 -0.0399 -0.0399 0 0 -0.0796 -0.0398 0 0 -0.0399 -0.0399 0 0 -0.0398 -0.0398 0 0 -0.0399 -0.0398 0 0 -0.0398 -0.0399 0 0 -0.0399 -0.0399 0 0 -0.0398 -0.0398 0 0 -0.0398 -0.0797 0 0 -0.0399 -0.0398 0 0 -0.0398 -0.0797 0 0 -0.0399 -0.1195 0 0 -0.0398 -0.0399 0 0 -0.0398 -0.3187 0 0 0.0398z"/>
   <polygon id="_90630128" class="fil0" points="7.4705,7.0123 7.5104,7.0123 7.5104,7.8092 8.3471,7.8092 8.3471,7.849 8.4666,7.849 8.4666,7.8889 8.5064,7.8889 8.5064,7.9685 8.4666,7.9685 8.4666,8.0084 8.0283,8.0084 8.0283,8.0482 7.7893,8.0482 7.7893,8.0881 7.6299,8.0881 7.6299,8.1279 7.4705,8.1279 7.4705,8.5264 7.5104,8.5264 7.5104,8.6459 7.5502,8.6459 7.5502,8.7256 8.5861,8.7256 8.5861,8.7654 8.7455,8.7654 8.7455,8.8052 8.8252,8.8052 8.8252,8.8451 8.865,8.8451 8.865,8.885 8.9049,8.885 8.9049,8.9248 8.9447,8.9248 8.9447,9.0045 8.9845,9.0045 8.9845,9.0842 9.0244,9.0842 9.0244,9.3631 9.0642,9.3631 9.0642,9.2834 9.1041,9.2834 9.1041,9.0443 9.1439,9.0443 9.1439,8.9248 9.1838,8.9248 9.1838,8.7654 9.2236,8.7654 9.2236,8.6459 9.2634,8.6459 9.2634,8.4466 9.3033,8.4466 9.3033,8.3271 9.3431,8.3271 9.3431,8.1279 9.383,8.1279 9.383,7.9685 9.4228,7.9685 9.4228,7.8092 9.383,7.8092 9.383,7.6498 9.3431,7.6498 9.3431,7.5701 9.3033,7.5701 9.3033,7.4107 9.2634,7.4107 9.2634,7.2514 9.2236,7.2514 9.2236,7.0522 9.1838,7.0522 9.1838,6.853 9.1439,6.853 9.1439,5.06 9.1041,5.06 9.1041,4.303 7.7494,4.303 7.7494,4.2632 7.8291,4.2632 7.8291,4.2233 8.0283,4.2233 8.0283,4.1834 8.1877,4.1834 8.1877,4.1436 9.0642,4.1436 9.0642,3.2272 9.0244,3.2272 9.0244,2.6694 8.9845,2.6694 8.9845,1.6733 8.9447,1.6733 8.9447,1.514 8.9049,1.514 8.9049,1.3148 8.865,1.3148 8.865,1.0757 8.8252,1.0757 8.8252,0.996 8.7853,0.996 8.7853,0.8765 8.7455,0.8765 8.7455,0.7968 8.7057,0.7968 8.7057,0.7569 8.6658,0.7569 8.6658,0.6773 8.6259,0.6773 8.6259,0.6374 8.5861,0.6374 8.5861,0.5976 8.5463,0.5976 8.5463,0.5577 8.5064,0.5577 8.5064,0.5179 8.4666,0.5179 8.4666,0.4781 8.4267,0.4781 8.4267,0.4382 8.3471,0.4382 8.3471,0.3984 8.2674,0.3984 8.2674,0.3585 8.2275,0.3585 8.2275,0.3187 7.9088,0.3187 7.9088,0.3585 7.869,0.3585 7.869,0.3984 7.8291,0.3984 7.8291,0.4382 7.7893,0.4382 7.7893,0.4781 7.7494,0.4781 7.7494,0.5577 7.7096,0.5577 7.7096,0.6374 7.6698,0.6374 7.6698,0.7968 7.6299,0.7968 7.6299,0.996 7.59,0.996 7.59,1.2749 7.5502,1.2749 7.5502,1.5936 7.5104,1.5936 7.5104,2.1913 7.6698,2.1913 7.6698,2.1514 8.3072,2.1514 8.3072,2.1913 8.4666,2.1913 8.4666,2.2312 8.5064,2.2312 8.5064,2.271 8.5463,2.271 8.5463,2.3108 8.4267,2.3108 8.4267,2.271 7.9088,2.271 7.9088,2.3108 7.7096,2.3108 7.7096,2.3507 7.5104,2.3507 7.5104,3.785 7.4705,3.785 7.4705,4.4624 7.4307,4.4624 7.4307,6.0959 7.4705,6.0959 "/>
   <polygon id="_90629624" class="fil0" points="9.901,10.1599 9.7814,10.1599 9.7814,10.1201 9.7017,10.1201 9.7017,10.0802 9.5822,10.0802 9.5822,10.0404 9.5424,10.0404 9.5424,9.9607 9.8611,9.9607 9.8611,10.0005 9.9408,10.0005 9.9408,10.0404 10.0603,10.0404 10.0603,10.0005 10.1002,10.0005 10.1002,10.0404 10.14,10.0404 10.14,10.1201 10.1798,10.1201 10.1798,10.0802 10.2197,10.0802 10.2197,10.1201 10.2595,10.1201 10.2595,10.1599 10.4189,10.1599 10.4189,10.1201 10.4587,10.1201 10.4587,10.0802 10.5384,10.0802 10.5384,9.881 10.5783,9.881 10.5783,9.7615 10.6181,9.7615 10.6181,9.5224 10.6579,9.5224 10.6579,9.4029 10.6978,9.4029 10.6978,9.2435 10.7377,9.2435 10.7377,9.124 10.7775,9.124 10.7775,8.9248 10.8173,8.9248 10.8173,8.7654 10.8572,8.7654 10.8572,8.6857 10.897,8.6857 10.897,8.4865 10.9369,8.4865 10.9369,8.367 10.9767,8.367 10.9767,8.2873 11.0165,8.2873 11.0165,8.1678 11.0564,8.1678 11.0564,7.9685 11.0962,7.9685 11.0962,7.8889 11.1361,7.8889 11.1361,7.7295 11.1759,7.7295 11.1759,7.4904 11.2158,7.4904 11.2158,7.2912 11.2556,7.2912 11.2556,6.6139 11.2158,6.6139 11.2158,6.5342 11.1759,6.5342 11.1759,6.4545 11.1361,6.4545 11.1361,6.4147 11.0962,6.4147 11.0962,6.3748 11.0564,6.3748 11.0564,6.335 11.0165,6.335 11.0165,6.2952 10.9767,6.2952 10.9767,6.2553 10.8572,6.2553 10.8572,6.2154 10.7377,6.2154 10.7377,6.1756 10.2994,6.1756 10.2994,6.2154 10.2595,6.2154 10.2595,6.2553 10.14,6.2553 10.14,6.2952 10.1002,6.2952 10.1002,6.335 10.0205,6.335 10.0205,6.3748 9.9806,6.3748 9.9806,6.4545 9.9408,6.4545 9.9408,6.5342 9.901,6.5342 9.901,6.6139 9.8611,6.6139 9.8611,6.7732 9.8212,6.7732 9.8212,6.9725 9.7814,6.9725 9.7814,7.1318 9.7416,7.1318 9.7416,7.4904 9.7017,7.4904 9.7017,8.0084 9.6619,8.0084 9.6619,8.2076 9.622,8.2076 9.622,8.367 9.5822,8.367 9.5822,8.606 9.5424,8.606 9.5424,8.7256 9.5025,8.7256 9.5025,8.9248 9.4626,8.9248 9.4626,9.0842 9.4228,9.0842 9.4228,9.2435 9.383,9.2435 9.383,9.4826 9.3431,9.4826 9.3431,9.6818 9.3033,9.6818 9.3033,10.3193 9.3431,10.3193 9.3431,10.2396 9.4626,10.2396 9.4626,10.2795 9.5424,10.2795 9.5424,10.3193 9.7416,10.3193 9.7416,10.1998 9.8212,10.1998 9.8212,10.2795 9.8611,10.2795 9.8611,10.2396 9.901,10.2396 "/>
   <polygon id="_90629336" class="fil0" points="6.4745,6.3748 6.3151,6.3748 6.3151,6.4147 6.2752,6.4147 6.2752,6.4545 6.2354,6.4545 6.2354,6.4944 6.1955,6.4944 6.1955,6.5342 6.1557,6.5342 6.1557,6.574 6.1159,6.574 6.1159,6.6139 6.076,6.6139 6.076,6.6537 6.0362,6.6537 6.0362,6.7334 5.9963,6.7334 5.9963,6.8131 5.9565,6.8131 5.9565,6.8928 5.9166,6.8928 5.9166,6.9326 5.8768,6.9326 5.8768,7.0522 5.837,7.0522 5.837,7.1717 5.7971,7.1717 5.7971,7.2912 5.7573,7.2912 5.7573,7.6498 5.7174,7.6498 5.7174,8.0482 5.6776,8.0482 5.6776,8.606 6.3549,8.606 6.3549,8.6459 6.7533,8.6459 6.7533,8.6857 7.0721,8.6857 7.0721,8.7256 7.2314,8.7256 7.2314,8.5264 7.1916,8.5264 7.1916,7.9685 7.1518,7.9685 7.1518,6.7732 7.1119,6.7732 7.1119,6.6139 7.0721,6.6139 7.0721,6.5342 7.0322,6.5342 7.0322,6.4944 6.9924,6.4944 6.9924,6.4545 6.9526,6.4545 6.9526,6.4147 6.833,6.4147 6.833,6.3748 6.7135,6.3748 6.7135,6.335 6.4745,6.335 "/>
   <polygon id="_90629792" class="fil0" points="8.865,10.5584 8.865,10.399 8.9049,10.399 8.9049,10.0404 8.9447,10.0404 8.9447,9.8013 8.9845,9.8013 8.9845,9.5623 8.9447,9.5623 8.9447,9.6419 8.9049,9.6419 8.9049,9.7217 8.865,9.7217 8.865,9.7615 8.8252,9.7615 8.8252,9.8412 8.7853,9.8412 8.7853,9.9209 8.7455,9.9209 8.7455,9.9607 8.7057,9.9607 8.7057,10.0005 8.6658,10.0005 8.6658,10.0802 8.6259,10.0802 8.6259,10.1201 8.5861,10.1201 8.5861,10.1599 8.5463,10.1599 8.5463,10.1998 8.5064,10.1998 8.5064,10.2396 8.4666,10.2396 8.4666,10.3193 8.4267,10.3193 8.4267,10.3591 8.3471,10.3591 8.3471,10.399 8.3072,10.399 8.3072,10.4388 8.2674,10.4388 8.2674,10.4787 8.2275,10.4787 8.2275,10.5185 8.1479,10.5185 8.1479,10.5584 8.0682,10.5584 8.0682,10.5982 7.9885,10.5982 7.9885,10.638 7.9088,10.638 7.9088,10.6779 7.7893,10.6779 7.7893,10.7974 7.8291,10.7974 7.8291,10.917 7.869,10.917 7.869,11.156 7.9088,11.156 7.9088,11.1958 8.0682,11.1958 8.0682,11.2357 8.1877,11.2357 8.1877,11.2755 8.3072,11.2755 8.3072,11.3154 8.5064,11.3154 8.5064,11.3552 8.5463,11.3552 8.5463,11.3951 8.6658,11.3951 8.6658,11.4349 8.7455,11.4349 8.7455,10.9568 8.7853,10.9568 8.7853,10.7177 8.8252,10.7177 8.8252,10.5584 "/>
   <polygon id="_409923392" class="fil0" points="9.0642,11.1958 9.0244,11.1958 9.0244,11.5544 9.0642,11.5544 9.0642,11.6739 9.1041,11.6739 9.1041,11.7138 9.1439,11.7138 9.1439,11.7537 9.1838,11.7537 9.1838,11.7935 9.2236,11.7935 9.2236,11.8333 9.3033,11.8333 9.3033,11.8732 9.383,11.8732 9.383,11.913 9.6619,11.913 9.6619,11.8732 9.7416,11.8732 9.7416,11.8333 9.8212,11.8333 9.8212,11.7935 9.8611,11.7935 9.8611,11.7537 9.901,11.7537 9.901,11.7138 9.9408,11.7138 9.9408,11.6739 9.9806,11.6739 9.9806,11.5943 10.0205,11.5943 10.0205,11.4747 10.0603,11.4747 10.0603,11.2357 10.0205,11.2357 10.0205,11.1958 9.9806,11.1958 9.9806,11.1162 9.901,11.1162 9.901,11.0763 9.8212,11.0763 9.8212,11.0365 9.7017,11.0365 9.7017,10.9966 9.5822,10.9966 9.5822,10.9568 9.0642,10.9568 "/>
   <path id="_409923680" class="fil0" d="M11.0564 10.1998l0.239 0 0 0.0398 0.0797 0 0 0.0399 0.0797 0 0 0.0398 0.0398 0 0 0.0398 0.0399 0 0 0.0399 0.0399 0 0 0.0797 -0.1594 0 0 -0.0399 -0.0797 0 0 -0.0398 -0.0797 0 0 -0.0399 -0.0797 0 0 -0.0398 -0.0797 0 0 -0.0398 -0.0398 0 0 -0.0797zm-0.1594 -0.2391l-0.0398 0 0 0.1594 -0.0399 0 0 0.1594 -0.0398 0 0 0.4781 0.3586 0 0 0.0398 0.0398 0 0 0.0398 0.1195 0 0 0.0399 0.0797 0 0 0.0399 0.0399 0 0 0.0398 0.0398 0 0 0.0398 0.0398 0 0 0.0399 0.0399 0 0 0.0398 0.0399 0 0 0.0399 0.0796 0 0 -0.0399 0.0399 0 0 -0.0797 0.0398 0 0 -0.0796 0.0399 0 0 -0.0798 0.0398 0 0 -0.1195 0.0398 0 0 -0.0398 0.0399 0 0 -0.1195 0.0399 0 0 -0.1196 0.0398 0 0 -0.0797 0.0398 0 0 -0.0796 -0.0796 0 0 0.0398 -0.0399 0 0 0.0398 -0.0797 0 0 -0.0398 -0.0398 0 0 0.0797 0.0398 0 0 0.0398 0.0398 0 0 0.0399 -0.0796 0 0 0.0398 -0.1196 0 0 -0.1992 0.0399 0 0 -0.0797 -0.0399 0 0 -0.1195 -0.0398 0 0 -0.0797 -0.1196 0 0 -0.0399 -0.1195 0 0 -0.0398 -0.1195 0 0 -0.0398 -0.0797 0 0 -0.0399 -0.0398 0 0 0.0797 -0.1196 0 0 0.0398 0.0399 0 0 0.0399 0.0797 0 0 0.0398 -0.0797 0 0 0.0399 -0.0797 0 0 -0.0399 -0.0797 0 0 -0.1195z"/>
   <path id="_409031248" class="fil2" d="M9.4626 10.4388l0.0798 0 0 -0.0398 0.3586 0 0 0.0398 0.1195 0 0 0.0399 0.0398 0 0 0.0398 0.0399 0 0 0.0797 -0.1992 0 0 -0.0398 -0.3586 0 0 -0.0399 -0.0798 0 0 -0.0797zm1.036 -0.3586l-0.0399 0 0 0.0399 -0.0398 0 0 0.0398 -0.1594 0 0 -0.0398 -0.0398 0 0 -0.0399 -0.0399 0 0 0.0399 -0.0398 0 0 -0.0797 -0.0398 0 0 -0.0399 -0.0399 0 0 0.0399 -0.0797 0 0 0.0398 0.0797 0 0 0.1196 -0.1593 0 0 0.0398 -0.0399 0 0 0.0399 -0.0399 0 0 -0.0797 -0.0796 0 0 0.1195 -0.1992 0 0 -0.0398 -0.0798 0 0 -0.0399 -0.1195 0 0 0.0797 -0.0398 0 0 -0.4383 -0.0399 0 0 0.1594 -0.0398 0 0 0.3187 -0.0398 0 0 0.2391 -0.0399 0 0 0.1594 0.5578 0 0 0.0398 0.1195 0 0 0.0398 0.1196 0 0 0.0399 0.0797 0 0 0.0399 0.0398 0 0 0.0398 0.0399 0 0 0.0398 0.0398 0 0 0.0399 0.0398 0 0 0.0797 0.0399 0 0 0.0796 0.0398 0 0 -0.1195 0.0399 0 0 -0.2391 0.0398 0 0 -0.1593 0.0399 0 0 -0.1195 0.0398 0 0 -0.1594 0.0398 0 0 -0.1195 0.0399 0 0 -0.1993z"/>
   <polygon id="_409031536" class="fil2" points="7.3112,11.156 7.1518,11.156 7.1518,11.1958 7.0721,11.1958 7.0721,11.2357 6.9924,11.2357 6.9924,11.2755 6.9127,11.2755 6.9127,11.3154 6.8729,11.3154 6.8729,11.3552 6.833,11.3552 6.833,11.4349 6.7932,11.4349 6.7932,11.5146 6.833,11.5146 6.833,11.5544 6.8729,11.5544 6.8729,11.5943 6.9127,11.5943 6.9127,11.6341 6.9526,11.6341 6.9526,11.6739 6.9924,11.6739 6.9924,11.7138 7.0721,11.7138 7.0721,11.7537 7.1119,11.7537 7.1119,11.7935 7.1916,11.7935 7.1916,11.8333 7.2314,11.8333 7.2314,11.8732 7.3112,11.8732 7.3112,11.913 7.351,11.913 7.351,11.9529 7.5502,11.9529 7.5502,11.913 7.59,11.913 7.59,11.8333 7.6299,11.8333 7.6299,11.7935 7.6698,11.7935 7.6698,11.3154 7.6299,11.3154 7.6299,11.156 7.59,11.156 7.59,11.1162 7.3112,11.1162 "/>
   <polygon id="_373389160" class="fil2" points="10.8173,11.0365 10.6978,11.0365 10.6978,11.0763 10.6579,11.0763 10.6579,11.1958 10.6181,11.1958 10.6181,11.3951 10.6579,11.3951 10.6579,11.5146 10.6978,11.5146 10.6978,11.5544 10.7775,11.5544 10.7775,11.5943 10.8572,11.5943 10.8572,11.6341 11.0962,11.6341 11.0962,11.5943 11.2158,11.5943 11.2158,11.5544 11.2556,11.5544 11.2556,11.5146 11.2954,11.5146 11.2954,11.4747 11.3353,11.4747 11.3353,11.4349 11.3751,11.4349 11.3751,11.3951 11.415,11.3951 11.415,11.1958 11.3751,11.1958 11.3751,11.156 11.3353,11.156 11.3353,11.1162 11.2954,11.1162 11.2954,11.0763 11.1759,11.0763 11.1759,11.0365 11.0962,11.0365 11.0962,10.9966 10.8173,10.9966 "/>
   <polygon id="_373389376" class="fil2" points="7.6299,9.0842 7.5502,9.0842 7.5502,9.1638 7.5104,9.1638 7.5104,9.2435 7.4705,9.2435 7.4705,9.4826 7.869,9.4826 7.869,9.4427 8.1877,9.4427 8.1877,9.4029 8.3072,9.4029 8.3072,9.3631 8.3869,9.3631 8.3869,9.3232 8.4666,9.3232 8.4666,9.2834 8.5064,9.2834 8.5064,9.2037 8.5463,9.2037 8.5463,9.0443 7.6299,9.0443 "/>
   <polygon id="_373298784" class="fil3" points="9.5424,10.4388 9.4626,10.4388 9.4626,10.5185 9.5424,10.5185 9.5424,10.5584 9.901,10.5584 9.901,10.5982 10.1002,10.5982 10.1002,10.5185 10.0603,10.5185 10.0603,10.4787 10.0205,10.4787 10.0205,10.4388 9.901,10.4388 9.901,10.399 9.5424,10.399 "/>
   <polygon id="_89967432" class="fil3" points="11.0564,10.2795 11.0962,10.2795 11.0962,10.3193 11.1759,10.3193 11.1759,10.3591 11.2556,10.3591 11.2556,10.399 11.3353,10.399 11.3353,10.4388 11.415,10.4388 11.415,10.4787 11.5744,10.4787 11.5744,10.399 11.5345,10.399 11.5345,10.3591 11.4946,10.3591 11.4946,10.3193 11.4548,10.3193 11.4548,10.2795 11.3751,10.2795 11.3751,10.2396 11.2954,10.2396 11.2954,10.1998 11.0564,10.1998 "/>
   <polygon id="_415374088" class="fil4" points="6.8729,10.917 6.8729,11.0365 7.0322,11.0365 7.0322,10.9966 7.1119,10.9966 7.1119,10.9568 7.3908,10.9568 7.3908,10.917 7.5104,10.917 7.5104,10.7974 7.3908,10.7974 7.3908,10.8372 7.1916,10.8372 7.1916,10.8771 6.9924,10.8771 6.9924,10.917 "/>
   <polygon id="_415374136" class="fil5" points="10.0205,10.0802 9.9806,10.0802 9.9806,10.0404 9.9408,10.0404 9.9408,10.0005 9.8611,10.0005 9.8611,9.9607 9.5424,9.9607 9.5424,10.0404 9.5822,10.0404 9.5822,10.0802 9.7017,10.0802 9.7017,10.1201 9.7814,10.1201 9.7814,10.1599 10.0205,10.1599 "/>
   <polygon id="_415374232" class="fil3" points="11.6142,10.0404 11.6142,9.9209 11.5345,9.9209 11.5345,9.881 11.4946,9.881 11.4946,9.8412 11.3353,9.8412 11.3353,9.8013 11.1361,9.8013 11.1361,9.881 11.1759,9.881 11.1759,9.9209 11.2556,9.9209 11.2556,9.9607 11.3751,9.9607 11.3751,10.0005 11.4946,10.0005 11.4946,10.0404 "/>
   <polygon id="_415374400" class="fil6" points="7.6299,7.8092 7.5104,7.8092 7.5104,7.0123 7.4705,7.0123 7.4705,7.849 7.6299,7.849 "/>
   <polygon id="_415373920" class="fil7" points="8.865,4.1436 8.865,4.1834 9.1041,4.1834 9.1041,3.546 9.0642,3.546 9.0642,4.1436 "/>
   <polygon id="_415374568" class="fil8" points="11.1759,10.8372 11.1759,10.7974 11.1361,10.7974 11.1361,10.7576 10.7775,10.7576 10.7775,10.5185 10.7377,10.5185 10.7377,10.7974 11.0962,10.7974 11.0962,10.8372 "/>
   <polygon id="_415374928" class="fil9" points="7.9486,8.7256 7.5502,8.7256 7.5502,8.6459 7.5104,8.6459 7.5104,8.7654 7.9486,8.7654 "/>
   <polygon id="_415375072" class="fil10" points="9.5822,6.9326 9.5424,6.9326 9.5424,6.8928 9.5025,6.8928 9.5025,6.7732 9.4626,6.7732 9.4626,6.9326 9.5025,6.9326 9.5025,7.092 9.5424,7.092 9.5424,7.0522 9.5822,7.0522 "/>
   <polygon id="_415374976" class="fil11" points="11.1361,11.913 10.8572,11.913 10.8572,11.8732 10.7377,11.8732 10.7377,11.913 10.8173,11.913 10.8173,11.9529 11.1361,11.9529 "/>
   <polygon id="_415374832" class="fil12" points="5.9963,11.3951 6.1955,11.3951 6.1955,11.3552 6.3151,11.3552 6.3151,11.3154 6.1557,11.3154 6.1557,11.3552 5.9963,11.3552 "/>
   <polygon id="_415374520" class="fil13" points="8.7853,10.8771 8.8252,10.8771 8.8252,10.7576 8.865,10.7576 8.865,10.5584 8.8252,10.5584 8.8252,10.7177 8.7853,10.7177 "/>
   <polygon id="_415375960" class="fil14" points="8.4267,11.5943 8.4267,11.5544 8.3471,11.5544 8.3471,11.5146 8.1877,11.5146 8.1877,11.5544 8.3072,11.5544 8.3072,11.5943 "/>
   <polygon id="_415375264" class="fil15" points="10.3392,14.1044 10.3392,14.1841 10.4189,14.1841 10.4189,13.9849 10.3791,13.9849 10.3791,14.1044 "/>
   <polygon id="_415375384" class="fil16" points="10.8173,10.7974 10.7377,10.7974 10.7377,10.6779 10.6978,10.6779 10.6978,10.8372 10.8173,10.8372 "/>
   <polygon id="_415375336" class="fil17" points="9.901,10.1599 9.901,10.1998 10.0603,10.1998 10.0603,10.0802 10.0205,10.0802 10.0205,10.1599 "/>
   <polygon id="_415375480" class="fil18" points="6.9526,11.0365 6.8729,11.0365 6.8729,10.917 6.833,10.917 6.833,11.0763 6.9526,11.0763 "/>
   <polygon id="_415376560" class="fil9" points="8.9845,9.6818 9.0244,9.6818 9.0244,9.5224 8.9447,9.5224 8.9447,9.5623 8.9845,9.5623 "/>
   <polygon id="_415376752" class="fil19" points="8.6259,9.4029 8.6658,9.4029 8.6658,9.4826 8.7057,9.4826 8.7057,9.3232 8.6658,9.3232 8.6658,9.3631 8.6259,9.3631 "/>
   <polygon id="_415376056" class="fil20" points="5.4385,11.5943 5.4385,11.5544 5.3987,11.5544 5.3987,11.4747 5.3588,11.4747 5.3588,11.5943 "/>
   <polygon id="_415376008" class="fil21" points="5.1994,9.2037 5.1994,9.0842 5.1198,9.0842 5.1198,9.124 5.1596,9.124 5.1596,9.2037 "/>
   <polygon id="_415376632" class="fil11" points="11.654,13.1083 11.654,13.1482 11.7337,13.1482 11.7337,13.0286 11.6939,13.0286 11.6939,13.1083 "/>
   <polygon id="_415376464" class="fil22" points="10.3791,11.6341 10.3791,11.5943 10.2994,11.5943 10.2994,11.6739 10.3392,11.6739 10.3392,11.6341 "/>
   <polygon id="_415377352" class="fil23" points="10.14,12.0325 10.14,11.9927 10.1002,11.9927 10.1002,11.9529 10.0603,11.9529 10.0603,12.0325 "/>
  </g>
 </g>
</svg>
