<?xml version="1.0" encoding="UTF-8"?>
<!DOCTYPE svg PUBLIC "-//W3C//DTD SVG 1.1//EN" "http://www.w3.org/Graphics/SVG/1.1/DTD/svg11.dtd">
<!-- Creator: CorelDRAW -->
<svg xmlns="http://www.w3.org/2000/svg" xml:space="preserve" width="16.9332mm" height="16.9332mm" style="shape-rendering:geometricPrecision; text-rendering:geometricPrecision; image-rendering:optimizeQuality; fill-rule:evenodd; clip-rule:evenodd"
viewBox="0 0 16.9332 16.9332"
 xmlns:xlink="http://www.w3.org/1999/xlink">
 <defs>
  <style type="text/css">
   <![CDATA[
    .fil0 {fill:black}
    .fil1 {fill:#6C6C6C}
    .fil2 {fill:#828282}
    .fil3 {fill:#9A9A9A}
   ]]>
  </style>
 </defs>
 <g id="Capa_x0020_1">
  <metadata id="CorelCorpID_0Corel-Layer"/>
  <g id="_715962696">
   <path id="_714758232" class="fil0" d="M11.8606 13.1276c0.2199,0.0062 0.4495,-0.0379 0.57,0.1838 0.0916,0.1683 0.0484,0.4334 -0.1106,0.5346 -0.1576,0.1003 -1.2006,0.0259 -1.45,0.0129 -0.209,-0.0109 -0.469,0.0208 -0.5928,-0.1662 -0.1284,-0.1939 -0.0752,-0.3981 0.1055,-0.513 0.1846,-0.1175 1.1892,-0.0603 1.4779,-0.0521zm-0.2475 -1.326c0.2345,-0.0001 0.5353,-0.0616 0.7007,0.141 0.1578,0.1932 0.1031,0.4407 -0.101,0.5597 -0.1983,0.1156 -1.2851,0.0523 -1.5897,0.0595 -0.2545,0.0061 -0.5099,0.08 -0.69,-0.134 -0.1745,-0.2074 -0.1144,-0.4273 0.0272,-0.6138 0.4618,-0.0528 1.1637,-0.0123 1.6528,-0.0124zm-1.8515 -1.4367c0.2534,-0.0689 1.529,-0.0238 1.8927,-0.0245 0.275,-0.0005 0.6062,-0.0465 0.7184,0.2647 0.0957,0.2652 -0.0294,0.5313 -0.2998,0.5998 -0.2862,0.0726 -1.5212,0.0239 -1.9035,0.0243 -0.2799,0.0002 -0.5923,0.0449 -0.7155,-0.2604 -0.1144,-0.2836 0.0306,-0.5285 0.3077,-0.6039zm-4.4951 -3.0417c0.0843,-0.129 0.2741,-0.202 0.374,-0.0698 0.3571,0.0982 0.2695,0.5402 0.2696,0.8538l-0.0009 2.2698c0.0127,0.5014 0.4324,0.5074 0.5542,0.1948l0.0091 -0.2228c0.1948,-0.0618 0.6778,-0.0481 0.8809,-0.0134l-0.0373 0.0853c-0.1089,0.4213 -0.6154,1.3514 -0.8193,1.8098 -0.2103,0.4728 -0.5631,1.3788 -0.948,1.6792l-3.7127 -0.0026 -0.7754 -1.6753c-0.1565,-0.576 0.0007,-4.992 0.0469,-6.0113 0.0228,-0.5015 0.4578,-0.5399 0.5925,-0.2462 0.1442,0.3141 -0.0371,2.7758 0.081,3.0149 0.0826,0.1669 0.3289,0.1791 0.4513,0.0499 0.2072,-0.2185 -0.0513,-4.346 0.1009,-4.7675 0.1181,-0.3268 0.4892,-0.3796 0.7474,-0.126l0.0033 3.8376c-0.0044,0.3909 -0.1098,0.9321 0.4026,0.8571l0.1656 -0.6096 0 -3.7124c0,-0.3458 -0.1287,-1.0627 0.2624,-1.2205 0.6386,-0.2576 0.6343,0.4643 0.6343,0.8492 -0.0001,0.7764 -0.0586,4.1677 0.0252,4.4452l0.5229 -0.2779c0.0035,-0.3579 -0.0574,-0.6554 0.0962,-0.9785l0.0733 -0.0128zm7.1437 2.5628c-1.3521,-0.2138 -5.3571,0.0802 -5.9375,-0.1013l0.0087 -0.8279c1.0498,-0.0094 6.7545,0.0353 6.9889,-0.0649l0.0698 -0.0038c-0.0415,-0.6356 -0.277,-3.2869 0.1682,-3.6774 0.1488,-0.1306 0.3967,-0.1116 0.5219,0.031 0.1343,0.1531 0.0855,0.334 0.0763,0.5194 -0.0507,1.0239 0.3155,2.3458 0.9786,3.1287l0.6473 0.7014 0.0013 3.508 -1.2334 0.6533c-0.4051,0.0779 -1.3193,0.1744 -1.7075,0.1181l-0.2381 -1.0557 0.2101 -0.705c-0.0201,-0.3381 -0.1425,-0.3731 -0.2733,-0.6171l0.2577 -0.9242c-0.0564,-0.2741 -0.2799,-0.5839 -0.539,-0.6826zm-4.4684 0.4963c0.0773,-0.0637 -0.0399,-0.0516 0.1651,-0.0551l0.8224 0.0013c0.0026,0.1613 0.0354,0.0449 -0.0427,0.1296 -0.0768,0.5536 -0.024,0.8719 0.4502,1.2002l-0.0144 0.8426c0.1465,0.3583 0.254,0.3148 0.4266,0.5223l0.2356 1.1674c0.3141,0.279 0.9272,0.2453 1.3397,0.255 1.0055,0.0236 2.1415,0.0482 3.1346,-0.074 0.6387,-0.0785 2.0103,-0.5894 2.0335,-1.1889 0.0402,-1.0377 -0.0015,-2.1708 -0.0015,-3.2193 0.0001,-0.9291 0.0127,-0.5694 -0.5227,-1.1375 -0.5565,-0.5905 -0.9177,-1.3542 -1.0473,-2.1709 -0.0693,-0.436 0.0154,-1.2148 -0.0988,-1.5087 -0.3246,-0.8355 -1.5954,-0.7979 -1.8083,0.2362 -0.2866,1.3917 -0.0569,1.9285 -0.0503,3.0142l-6.4809 -0.0017 -0.215 -1.3782c-0.0976,-0.1364 -0.2987,-0.267 -0.4714,-0.3179 -0.3345,-0.0984 -0.4025,-0.0033 -0.6853,0.004l-0.0576 -3.3389c-0.1341,-0.4296 -0.5815,-0.694 -1.0318,-0.6624 -0.5674,0.0397 -0.7079,0.3541 -0.9226,0.7775l-1.1463 0.3296c-0.3109,0.3993 -0.1916,0.9648 -0.2128,1.4535l-1.0349 0.3517c-0.2049,0.2902 -0.1671,0.8165 -0.1776,1.1717 -0.0545,1.831 -0.1828,3.557 -0.036,5.3916 0.0656,0.8199 0.2664,1.3615 0.7609,2.0007 0.3218,0.4158 0.5787,0.285 1.121,0.285l2.7637 0c0.6361,0 0.6169,0.1117 1.0068,-0.3574 0.3683,-0.443 0.7043,-1.2662 0.947,-1.8167 0.2382,-0.5404 0.7075,-1.3804 0.8511,-1.9065z"/>
   <path id="_713316424" class="fil0" d="M7.0659 5.2076c0.2768,-0.1843 0.3238,-1.0813 0.3854,-1.4277 0.0474,-0.2662 0.4107,-1.509 -0.1915,-1.3071 -0.266,0.0891 -0.3504,1.1327 -0.3999,1.4171 -0.0715,0.4114 -0.4409,1.4122 0.206,1.3177z"/>
   <path id="_713316112" class="fil0" d="M11.536 5.1372c0.1353,-0.2903 -0.1596,-0.5317 -0.4698,-0.2996 -0.18,0.1347 -0.4165,0.3405 -0.585,0.4886 -0.1616,0.1421 -1.097,0.8929 -1.1508,0.9932 -0.1469,0.274 0.1329,0.5752 0.4763,0.3125 0.2692,-0.206 1.6715,-1.3705 1.7293,-1.4947z"/>
   <path id="_715962048" class="fil0" d="M9.4338 3.2767c-0.2178,0.0955 -0.9914,1.546 -1.2093,1.9368 -0.1704,0.3055 -0.0732,0.6446 0.2755,0.529 0.1686,-0.0559 0.6876,-1.0722 0.8179,-1.2926 0.1271,-0.2147 0.2544,-0.4362 0.378,-0.6529 0.1833,-0.3214 0.0481,-0.6562 -0.2621,-0.5203z"/>
   <path id="_715962216" class="fil1" d="M12.4102 9.886c-0.2792,-0.2259 -3.5797,-0.1168 -4.3858,-0.1192l-1.5316 -0.009 0.0231 -0.7622c1.6033,-0.0448 3.5529,-0.0022 5.2209,-0.0022 0.2877,0 0.5792,-0.0048 0.8663,-0.0006 0.253,0.0037 0.7168,0.1203 0.8672,-0.1009 -0.2344,0.1002 -5.9391,0.0555 -6.9889,0.0649l-0.0087 0.8279c0.5804,0.1815 4.5854,-0.1125 5.9375,0.1013z"/>
   <path id="_715961808" class="fil2" d="M8.8866 10.4581c0.0781,-0.0847 0.0453,0.0317 0.0427,-0.1296l-0.8224 -0.0013c-0.205,0.0035 -0.0878,-0.0086 -0.1651,0.0551l0.865 -0.0028c0.1469,0.0328 0.0651,-0.0329 0.0798,0.0786z"/>
   <path id="_715963080" class="fil3" d="M6.4634 10.5718l0.0769 -0.2015c0.1984,0.0073 0.648,-0.0688 0.7758,0.0506l0.0373 -0.0853c-0.2031,-0.0347 -0.6861,-0.0484 -0.8809,0.0134l-0.0091 0.2228z"/>
   <path id="_715962600" class="fil2" d="M5.2665 7.3232c0.174,-0.103 0.1693,-0.0857 0.374,-0.0698 -0.0999,-0.1322 -0.2897,-0.0592 -0.374,0.0698z"/>
  </g>
 </g>
</svg>
