<?xml version="1.0" encoding="UTF-8"?>
<!DOCTYPE svg PUBLIC "-//W3C//DTD SVG 1.1//EN" "http://www.w3.org/Graphics/SVG/1.1/DTD/svg11.dtd">
<!-- Creator: CorelDRAW -->
<svg xmlns="http://www.w3.org/2000/svg" xml:space="preserve" width="16.9332mm" height="16.9332mm" style="shape-rendering:geometricPrecision; text-rendering:geometricPrecision; image-rendering:optimizeQuality; fill-rule:evenodd; clip-rule:evenodd"
viewBox="0 0 16.9332 16.9332"
 xmlns:xlink="http://www.w3.org/1999/xlink">
 <defs>
  <style type="text/css">
   <![CDATA[
    .fil0 {fill:black}
   ]]>
  </style>
 </defs>
 <g id="Capa_x0020_1">
  <metadata id="CorelCorpID_0Corel-Layer"/>
  <path class="fil0" d="M5.3243 9.3166l0.0215 1.5023 0.1858 0.3081 0.3654 -0.0069c0.3096,-0.3885 0.1983,-0.6028 0.1983,-1.4671 0,-0.5649 0.0001,-1.1296 0,-1.6945 -0.0001,-0.5435 -0.1083,-1.1692 0.3867,-1.3232 1.3658,-0.4251 0.1795,2.414 1.26,1.9985 0.3628,-0.1394 0.2453,-0.839 0.2452,-1.466l-0.0161 -5.1424c0.0007,-0.5178 0.2208,-0.9704 0.8031,-0.8008 0.5205,0.1516 0.414,0.7104 0.4138,1.2552l0.013 5.1963c0.0084,0.4588 -0.1576,1.323 0.4078,1.2956l0.3755 -1.3601c0.2988,-0.4676 1.0374,-0.2474 1.0591,0.4565 0.0152,0.4946 -0.1953,1.5146 0.4652,1.3906 0.6294,-0.1183 0.0343,-1.1244 0.4695,-1.4521 0.2268,-0.1708 0.5245,-0.1011 0.6734,0.0748 0.3217,0.3801 0.2522,5.208 -0.0981,6.3209 -0.0922,0.2931 -0.1542,0.4203 -0.2943,0.6662 -0.532,0.9342 -0.4758,0.6654 -2.2524,0.6654l-2.881 0.0003c-0.7242,0.0041 -0.7524,0.0519 -1.4442,-1.4741 -0.4047,-0.8925 -0.8127,-1.7673 -1.2394,-2.6574 -0.1915,-0.3998 -0.5844,-0.9825 -0.2256,-1.4134 0.1054,-0.1266 0.9781,-0.8186 1.1078,-0.8727zm1.8835 -3.3657c-0.5829,-0.3012 -1.2805,-0.0254 -1.5641,0.3576l-0.3338 1.9889c-0.5292,0.5346 -1.7994,1.1945 -1.9807,1.9628 -0.1784,0.7567 0.697,2.2547 1.0032,2.9217 0.3548,0.7728 0.8862,2.1246 1.3309,2.6792 0.4697,0.5858 0.3761,0.6352 1.3498,0.6335l4.0103 -0.0001c0.9717,0 0.995,0.1462 1.521,-0.4626 0.6172,-0.7146 0.9188,-1.8084 0.9991,-3.0106 0.0459,-0.6862 0.2903,-5.1204 -0.3464,-5.4857l-1.5525 -0.2515c-0.2412,-0.2186 -0.2898,-0.4155 -0.6808,-0.5689l-0.9904 -0.0225c-0.0716,-1.0351 0.08,-4.8549 -0.0773,-5.3464 -0.1219,-0.3807 -0.5118,-0.7618 -0.9333,-0.8744 -0.5548,-0.1481 -1.0739,0.0618 -1.3871,0.3674 -0.3677,0.359 -0.3655,0.8266 -0.3648,1.4711 0.0013,1.2009 0.0306,2.4445 -0.0031,3.6405z"/>
 </g>
</svg>
