<?xml version="1.0" encoding="UTF-8"?>
<!DOCTYPE svg PUBLIC "-//W3C//DTD SVG 1.1//EN" "http://www.w3.org/Graphics/SVG/1.1/DTD/svg11.dtd">
<!-- Creator: CorelDRAW -->
<svg xmlns="http://www.w3.org/2000/svg" xml:space="preserve" width="16.9332mm" height="16.9332mm" style="shape-rendering:geometricPrecision; text-rendering:geometricPrecision; image-rendering:optimizeQuality; fill-rule:evenodd; clip-rule:evenodd"
viewBox="0 0 16.9332 16.9332"
 xmlns:xlink="http://www.w3.org/1999/xlink">
 <defs>
  <style type="text/css">
   <![CDATA[
    .fil0 {fill:black}
   ]]>
  </style>
 </defs>
 <g id="Capa_x0020_1">
  <metadata id="CorelCorpID_0Corel-Layer"/>
  <path class="fil0" d="M11.6071 2.9118c0.1248,-0.2218 0.4211,-0.5741 0.5813,-0.7612 0.6218,-0.7258 1.3041,-1.4559 2.4806,-1.2826l-0.3127 0.6252 0.4286 -0.032 0.2308 -0.3009c0.0642,-0.0716 0.0195,-0.027 0.0787,-0.0833l0.5536 1.673c-0.0847,0.2695 -0.2294,0.565 -0.3556,0.7892 -0.2112,0.3753 -0.2325,0.3513 -0.6363,0.5073 -0.6362,0.2456 -1.2625,0.2966 -1.8884,-0.0009 -0.5347,-0.2543 -0.6648,-0.4793 -0.9395,-0.776 -0.0962,-0.1039 -0.1478,-0.2015 -0.2211,-0.3578zm0.446 6.3025c0.1759,-0.2374 0.3442,-0.4413 0.5254,-0.666 0.1995,-0.2475 0.3292,-0.4336 0.5211,-0.671l2.341 -2.9985c0.0927,-0.1201 0.1695,-0.192 0.2592,-0.3128 0.1605,-0.2161 0.3062,-0.4452 0.444,-0.6998 1.6257,-3.0022 -1.4364,-5.0583 -3.8091,-3.0936 -0.5623,0.4657 -0.6975,0.7165 -1.1271,1.2551l-3.119 3.9368c-0.165,0.2079 -1.8909,2.4465 -2.1148,2.6237 -0.039,-0.2085 -0.0692,-0.5727 -0.1901,-0.7396l-0.6415 0.8448 -0.1223 0.104 -0.4084 -0.8904 -0.2534 0.4307c-0.0872,0.1589 -0.1655,0.2973 -0.2349,0.4363l-0.7967 -0.865 0.1923 2.0949c0.1658,0.6707 1.0504,0.6242 1.5932,0.5117 0.7179,-0.1489 0.9089,-0.5381 1.2623,-0.973 0.3288,-0.4048 0.6567,-0.8248 0.9854,-1.2553 0.0346,-0.0454 3.7883,-4.8502 3.973,-5.01 1.3216,1.207 1.3732,1.6318 3.2852,1.265l-2.9122 3.7521c-0.4747,0.6 -2.7645,3.5174 -2.9215,3.7935l1.1485 1.7432c0.0318,0.4259 -0.0783,0.8151 -0.2605,1.1532 -0.0853,0.1582 -0.2055,0.3066 -0.2969,0.4202 -0.4775,0.594 -1.7027,0.9061 -2.6125,0.3668 -0.8338,-0.4942 -0.8528,-1.3018 -1.2115,-1.6659l-1.4091 1.7853c-0.8708,0.3834 -1.8693,0.0523 -2.3401,-0.4498 -0.6029,-0.6432 -0.7827,-1.5926 -0.3973,-2.3832 0.099,-0.2029 0.2001,-0.3262 0.336,-0.4716 0.0863,-0.0924 0.3149,-0.2665 0.384,-0.3817 0.2282,-0.3805 -0.1547,-0.9005 -0.6748,-0.5318 -0.5145,0.3648 -1.0234,1.155 -1.1052,2.0585 -0.1563,1.7278 1.2874,3.2995 3.1192,3.1974 0.5916,-0.0329 1.3042,-0.2804 1.7109,-0.671 0.1102,-0.1057 0.2911,-0.2914 0.3878,-0.3624l0.8368 0.669c0.794,0.5331 2.113,0.4658 3.0106,-0.0764 1.1508,-0.6952 1.7514,-2.33 1.146,-3.6979 -0.1959,-0.4428 -0.3731,-0.6095 -0.5947,-0.9069l2.0917 -2.6686z"/>
 </g>
</svg>
