<?xml version="1.0" encoding="UTF-8"?>
<!DOCTYPE svg PUBLIC "-//W3C//DTD SVG 1.1//EN" "http://www.w3.org/Graphics/SVG/1.1/DTD/svg11.dtd">
<!-- Creator: CorelDRAW -->
<svg xmlns="http://www.w3.org/2000/svg" xml:space="preserve" width="16.9332mm" height="16.9332mm" style="shape-rendering:geometricPrecision; text-rendering:geometricPrecision; image-rendering:optimizeQuality; fill-rule:evenodd; clip-rule:evenodd"
viewBox="0 0 16.9332 16.9332"
 xmlns:xlink="http://www.w3.org/1999/xlink">
 <defs>
  <style type="text/css">
   <![CDATA[
    .fil0 {fill:black}
   ]]>
  </style>
 </defs>
 <g id="Capa_x0020_1">
  <metadata id="CorelCorpID_0Corel-Layer"/>
  <path class="fil0" d="M8.467 -0.0004c4.676,0 8.4662,3.791 8.4662,8.4671 0,4.6761 -3.7902,8.467 -8.4662,8.467 -4.6761,0 -8.467,-3.7909 -8.467,-8.467 0,-4.6761 3.7909,-8.4671 8.467,-8.4671zm-7.6542 11.0312c0.2222,-0.6262 0.3689,-1.0497 0.7022,-1.5773 0.3238,-0.5135 0.576,-0.9379 0.9195,-1.3658 0.875,-1.0903 1.3029,-1.5734 1.5563,-3.0129 0.2311,-1.3118 0.5556,-2.4758 1.2319,-3.3338 0.6895,-0.8757 2.0587,-1.3365 3.1699,-1.3715 -1.4434,-0.0406 -2.747,0.402 -3.7999,0.9638 -2.0625,1.1004 -3.5977,3.1749 -4.0672,5.5079 -0.216,1.0756 -0.2164,2.1971 0.0082,3.2702 0.0336,0.1612 0.1601,0.7879 0.2789,0.9206l0.0002 -0.0012zm7.3131 1.8681c0.1301,0.0826 -0.0146,0.0814 0.3399,0.2196 0.1219,0.0475 0.2673,0.0977 0.2724,0.2343 -0.3168,0.0386 -0.6478,-0.1601 -0.6123,-0.4546l0 0.0007zm4.7346 -5.4647c0.1011,-0.1944 0.4635,-0.3811 0.2948,-0.7612 -0.2268,0.035 -0.1409,0.2318 -0.2585,0.4367 -0.2431,0.0495 -0.5854,-0.0458 -0.7898,0.0394 0.0374,0.0667 0.0381,0.0725 0.1168,0.1049l0.1232 0.0425c0.0045,-0.007 0.017,0.0062 0.0242,0.0115 -0.2952,0.5798 0.4572,1.8986 0.4101,2.7559l0.216 0.0316c0.0706,-0.1372 0.1644,-0.4831 0.23,-0.6528 0.078,-0.2032 0.1682,-0.4128 0.2445,-0.6446 0.1949,-0.593 0.216,-0.8445 0.1409,-1.5055 -0.3252,0.0756 -0.3252,0.1822 -0.7512,0.1423l-0.001 -0.0007zm-0.1454 -1.4642c0.1022,0.2083 0.6254,0.3245 0.8777,0.2273 0.0907,-0.522 -0.6432,-0.3665 -0.8777,-0.2273zm-4.1269 0.8241c0.5752,-0.329 1.804,-0.6628 1.9062,0.3284l-0.4406 -0.0077c-0.0166,-0.2007 0.1404,-0.1505 0.0259,-0.3411 -0.0552,-0.0921 -0.1423,-0.1569 -0.2805,-0.1639 -0.054,0.1848 -0.0845,0.4599 -0.2407,0.5251 -0.2624,0.11 -0.3735,-0.101 -0.6464,-0.017 0.056,0.233 0.2057,0.0672 0.2902,0.2858 -0.3283,0.1505 -0.5745,-0.3021 -0.7461,-0.508l0.1308 -0.1016 0.0012 0zm-0.1892 -0.9093c0.1728,-0.3144 0.7824,-0.4001 1.2579,-0.3372 0.4502,0.0598 0.8699,0.2153 1.2122,0.4013 0.1466,0.0794 0.1512,0.0679 0.1708,0.2376 0.0375,0.3283 0.0521,0.8203 -0.4471,0.6439 -0.1612,-0.0571 -0.3796,-0.2832 -0.4598,-0.3658 -0.216,-0.2234 -0.2902,-0.1492 -0.5169,-0.268 0.4151,-0.2458 0.9155,0.2164 1.1474,0.0952 -0.1143,-0.0914 -0.877,-0.3326 -1.0822,-0.3885 -0.5479,-0.1493 -0.7468,-0.1428 -1.2813,-0.019l-0.001 0.0005zm-0.8947 -2.3407c0.2357,0.1339 0.6343,0.2431 0.7683,0.4623 -0.2597,0.1732 -0.3576,0.2172 -0.5151,0.5282 -0.071,0.1397 -0.2666,0.5741 -0.3537,0.6343 -0.0115,-0.3588 -0.0019,-0.5671 -0.0648,-0.9233 -0.054,-0.306 -0.1181,-0.5498 -0.1111,-0.88 0.1084,0.0528 0.155,0.1092 0.2762,0.1783l0.0002 0.0002zm5.4978 -0.0818c0.0622,-0.162 0.1536,-0.2789 0.2103,-0.4457 0.2577,0.0077 0.2985,0.0876 0.3804,0.2628 0.0336,-0.0475 0.0336,0.0483 0.0254,-0.0895 -0.0012,-0.0266 -0.0158,-0.0564 -0.0343,-0.0852 -0.078,-0.1231 -0.2839,-0.2616 -0.4286,-0.2998 -0.2369,0.4527 -0.4642,0.684 -0.9303,0.9048 -1.1817,0.5607 -3.2447,0.24 -4.4391,-0.2268 -0.294,-0.1149 -0.5252,-0.2623 -0.7798,-0.3664 -0.1632,1.6756 -0.4128,3.6208 -0.1447,5.318 0.0439,0.2789 0.0902,0.5297 0.162,0.7932 0.0514,0.1906 0.2172,0.5645 0.1848,0.6914 -0.2134,-0.0744 -0.0007,-0.2438 -0.2693,-0.3009 -0.0794,1.0903 0.3792,1.2667 0.3511,1.5259 -0.1783,0.005 -0.0888,-0.0617 -0.268,-0.0799 0.0216,0.2361 0.1091,0.4255 0.1084,0.718 -0.0007,0.6115 -0.1068,0.9746 -0.3708,1.4966 -0.1663,0.3291 -0.6177,0.9982 -0.6343,1.0421 0.4522,0.2928 0.6178,0.1651 1.3145,0.9353l0.3125 0.388c0.0026,-0.0057 0.012,0.0101 0.0184,0.0154 0.1373,-0.1678 0.2604,-0.3703 0.3943,-0.5621 0.1409,-0.2013 0.252,-0.3549 0.4128,-0.5385 0.5892,-0.6737 0.9063,-0.6413 1.0534,-0.84 -0.042,-0.1867 -0.1251,-0.073 -0.1956,-0.2959 0.1987,0.0533 0.5594,0.1423 0.7303,-0.0216 -0.1817,-0.1423 -0.367,0.0259 -0.5803,-0.1042 0.1728,-0.4197 2.0236,0.1327 2.2782,-0.3086 -0.0616,-0.2484 -0.2896,-0.1918 -0.5315,-0.1397 -0.5842,0.125 -1.0402,0.1138 -1.5869,-0.0965 0.0135,-0.1497 0.1493,-0.0533 0.0166,-0.1365 -0.1049,-0.066 -0.277,-0.1035 -0.6231,-0.3334 -0.767,-0.5093 -1.3943,-1.3994 -1.3792,-2.4403 0.115,0.0166 0.1265,0.0425 0.2558,0.0368 0.0495,0.2697 0.1531,0.6527 0.39,0.7924 0.1054,0.0622 0.169,0.0439 0.2736,0.127l-0.0768 0.2438c0.2755,-0.0494 0.2122,0.0363 0.4421,0.0965l-0.0972 0.108c-0.0552,0.0883 -0.0305,0.0062 -0.0394,0.1301 0.1212,0.0602 0.1639,0.0636 0.2844,0 -0.0343,0.2304 0.0312,0.3074 0.0888,0.508 0.0432,0.1493 0.0622,0.1373 0.3943,0.2705 0.6312,0.2527 1.6452,0.3302 2.1741,-0.0312 0.1397,-0.096 0.1906,-0.2565 0.2388,-0.4293 0.0514,-0.1841 0.1563,-0.3754 0.1848,-0.4851 -0.3002,-0.1708 -0.7111,-0.1353 -1.0821,-0.1353 0.0533,-0.3219 0.4788,-0.277 0.6948,-0.468 -0.3403,-0.228 -1.002,-0.0351 -1.4873,-0.127l-0.2577 -0.0953c0.2292,-0.1327 1.2439,-0.3187 1.6211,-0.3206 0.1918,-0.0007 0.4083,0.066 0.5564,0.0579 -0.0128,-0.176 -0.0941,-0.2732 -0.2451,-0.3346 -0.2712,-0.1099 -0.2844,-0.0108 -0.4725,0.0564 -0.0725,-0.1982 -0.042,-0.4363 -0.1594,-0.5702 -0.1555,-0.0598 -0.4133,0.0165 -0.6077,-0.0533 -0.1739,-0.0629 -0.2241,-0.2038 -0.1967,-0.4102 0.1003,0.0305 0.1447,0.1964 0.3117,0.2343 0.223,0.0501 0.2376,-0.1042 0.3055,-0.2489 0.5189,0.0101 0.0775,0.5606 1.1074,0.0655 -0.0154,-0.1142 -0.1397,-0.3657 -0.1875,-0.5066 -0.2647,-0.7786 -0.5193,-2.0707 0.2268,-2.6606 0.3449,-0.2724 0.5926,-0.221 1.0718,-0.2604 0.1836,-0.372 0.2412,-0.4877 0.2196,-1.0166 -0.0139,-0.3341 -0.0737,-0.7867 -0.2438,-0.9963 -0.1625,-0.0551 -0.3017,-0.0088 -0.4471,0.0401l0.0009 0.0022zm-4.9345 13.093c1.2434,0.0532 2.267,-0.1455 3.3038,-0.5297 0.4413,-0.1632 0.9067,-0.3994 1.2775,-0.6223 0.186,-0.1111 1.0027,-0.6343 1.0883,-0.84 -0.12,-0.0583 -0.2095,-0.1478 -0.3398,-0.2299 -0.9448,-0.5969 -2.1991,-0.6706 -3.2104,-0.2539 -0.9924,0.4082 -1.8187,1.5278 -2.1201,2.475l0.0007 0.0008zm4.121 -15.2875c0.0686,0.0933 0.228,0.1836 0.3148,0.2496 0.1138,0.0856 0.1925,0.1586 0.2897,0.2496 1.4896,1.3939 1.1697,2.35 1.446,3.855 0.3506,1.9101 1.1143,3.0988 0.3645,5.2977 -0.1891,0.5548 -0.4368,0.9765 -0.6508,1.4769 -0.0718,0.167 0.0045,0.2179 0.0813,0.3792l0.4819 1.0605c0.3384,-0.3321 0.7118,-0.8769 0.9977,-1.3715 1.6605,-2.8713 1.338,-6.4648 -0.7092,-9.0632 -0.3684,-0.4668 -0.7238,-0.8095 -1.1772,-1.2014 -0.221,-0.1906 -1.1068,-0.8434 -1.4395,-0.9322l0.0008 -0.0002zm0.238 9.7109c0.0439,-0.0458 0.2057,-0.3206 0.2038,-0.402 -0.0046,-0.1944 -0.2146,-0.2088 -0.3797,-0.179 -0.012,0.2947 -0.0648,0.2357 -0.1397,0.402 0.1016,0.1231 0.1308,0.1397 0.3164,0.179l-0.0008 0zm0.7863 -4.5364c-0.0564,-0.2484 -0.6058,-0.1505 -0.7253,-0.0564 0.252,0.0718 0.4742,0.0197 0.7253,0.0564z"/>
 </g>
</svg>
