<?xml version="1.0" encoding="UTF-8"?>
<!DOCTYPE svg PUBLIC "-//W3C//DTD SVG 1.1//EN" "http://www.w3.org/Graphics/SVG/1.1/DTD/svg11.dtd">
<!-- Creator: CorelDRAW -->
<svg xmlns="http://www.w3.org/2000/svg" xml:space="preserve" width="16.9332mm" height="16.9332mm" style="shape-rendering:geometricPrecision; text-rendering:geometricPrecision; image-rendering:optimizeQuality; fill-rule:evenodd; clip-rule:evenodd"
viewBox="0 0 16.9332 16.9332"
 xmlns:xlink="http://www.w3.org/1999/xlink">
 <defs>
  <style type="text/css">
   <![CDATA[
    .str0 {stroke:black;stroke-width:0.1411}
    .fil0 {fill:black}
    .fil2 {fill:#009933}
    .fil1 {fill:white}
   ]]>
  </style>
 </defs>
 <g id="Capa_x0020_1">
  <metadata id="CorelCorpID_0Corel-Layer"/>
  <g id="_344653336">
   <path id="_344653984" class="fil0 str0" d="M16.9333 8.4666c0,4.6763 -3.7912,8.4667 -8.4667,8.4667 -4.6755,0 -8.4667,-3.7912 -8.4667,-8.4667 0,-4.6763 3.7912,-8.4667 8.4667,-8.4667 4.6755,0 8.4667,3.7912 8.4667,8.4667z"/>
   <path id="_344653864" class="fil0 str0" d="M16.5605 8.4666c0,4.4698 -3.6241,8.0939 -8.0939,8.0939 -4.4698,0 -8.0939,-3.6241 -8.0939,-8.0939 0,-4.4698 3.6241,-8.0939 8.0939,-8.0939 4.4698,0 8.0939,3.6241 8.0939,8.0939z"/>
   <path id="_344653360" class="fil1" d="M0.8121 11.0308c0.2223,-0.6262 0.3689,-1.0498 0.7023,-1.5773 0.3237,-0.5136 0.576,-0.9379 0.9194,-1.3659 0.8751,-1.0903 1.303,-1.5734 1.5565,-3.013 0.2311,-1.3119 0.5556,-2.4759 1.2319,-3.3339 0.6895,-0.8758 2.0593,-1.3366 3.17,-1.3716 -1.4434,-0.0406 -2.7471,0.402 -3.8,0.9638 -2.0626,1.1005 -3.5979,3.1751 -4.0666,5.5081 -0.2165,1.0757 -0.2172,2.1973 0.0081,3.2696 0.0336,0.1613 0.1601,0.788 0.2789,0.9214l-0.0005 -0.0012zm7.3135 1.8682c0.13,0.0826 -0.0147,0.0814 0.3398,0.2196 0.1219,0.0475 0.2674,0.0977 0.2724,0.2343 -0.3168,0.0386 -0.6478,-0.1601 -0.6122,-0.4546l0 0.0007zm4.7348 -5.4649c0.101,-0.1944 0.4634,-0.3811 0.2947,-0.7613 -0.2268,0.035 -0.1409,0.2318 -0.2592,0.4368 -0.2431,0.0495 -0.5849,-0.0458 -0.7894,0.0394 0.0375,0.0667 0.0382,0.0725 0.1169,0.1049l0.1231 0.0424c0.0046,-0.0069 0.0166,0.0058 0.0243,0.0116 -0.2952,0.5798 0.4564,1.8986 0.4101,2.7559l0.216 0.0312c0.0706,-0.1365 0.1644,-0.4831 0.23,-0.6528 0.078,-0.2033 0.1682,-0.4128 0.2445,-0.6446 0.1949,-0.5931 0.216,-0.8446 0.1409,-1.5056 -0.3252,0.0756 -0.3252,0.1822 -0.7512,0.1423l-0.0007 -0.0002zm-0.1455 -1.4643c0.1023,0.2084 0.6255,0.3245 0.8777,0.2273 0.0907,-0.522 -0.6432,-0.3665 -0.8777,-0.2273zm-4.1271 0.8242c0.5753,-0.329 1.8034,-0.6629 1.9064,0.3283l-0.4407 -0.0076c-0.0165,-0.2007 0.1404,-0.1505 0.0259,-0.3411 -0.0552,-0.0922 -0.1423,-0.157 -0.2805,-0.1639 -0.054,0.1848 -0.0845,0.4598 -0.2408,0.5251 -0.2623,0.1099 -0.3734,-0.101 -0.6463,-0.0177 0.0559,0.233 0.2057,0.0672 0.2902,0.2858 -0.3284,0.1505 -0.5746,-0.3022 -0.7455,-0.5081l0.1308 -0.1015 0.0005 0.0007zm-0.1891 -0.9094c0.1728,-0.3144 0.7824,-0.4001 1.2574,-0.3372 0.4502,0.0598 0.87,0.2153 1.2122,0.4013 0.1467,0.0795 0.1512,0.0679 0.1702,0.2376 0.0374,0.3283 0.0521,0.8204 -0.4471,0.6439 -0.1613,-0.0571 -0.3804,-0.2832 -0.4599,-0.3657 -0.216,-0.2235 -0.2902,-0.1493 -0.517,-0.2681 0.4153,-0.2458 0.9157,0.2165 1.1475,0.0953 -0.1142,-0.0915 -0.877,-0.3327 -1.0822,-0.3886 -0.5479,-0.1493 -0.7469,-0.1428 -1.2814,-0.019l0.0003 0.0005zm-0.8948 -2.3407c0.2357,0.1339 0.6344,0.2431 0.7683,0.4622 -0.2597,0.1733 -0.3576,0.2172 -0.5151,0.5278 -0.071,0.1397 -0.2666,0.5741 -0.3537,0.6343 -0.0115,-0.3588 -0.0019,-0.5671 -0.0648,-0.9233 -0.054,-0.306 -0.1181,-0.5498 -0.1104,-0.8801 0.108,0.0528 0.155,0.1092 0.2755,0.1783l0.0002 0.0008zm5.4981 -0.0819c0.0621,-0.162 0.1536,-0.2789 0.2102,-0.4457 0.2578,0.0077 0.2986,0.0876 0.3804,0.2628 0.0336,-0.0475 0.0336,0.0483 0.0255,-0.0895 -0.002,-0.0266 -0.0166,-0.0564 -0.0344,-0.0852 -0.0787,-0.1231 -0.2839,-0.2616 -0.4286,-0.2998 -0.2369,0.4527 -0.4642,0.6841 -0.9303,0.9049 -1.1817,0.5606 -3.2448,0.24 -4.4393,-0.2268 -0.294,-0.115 -0.5252,-0.2624 -0.7798,-0.3665 -0.1632,1.6757 -0.4128,3.6209 -0.1447,5.3182 0.0439,0.2789 0.0907,0.5297 0.162,0.7933 0.0521,0.1905 0.2172,0.5644 0.1848,0.6909 -0.2127,-0.0744 -0.0007,-0.2438 -0.2693,-0.3009 -0.0795,1.0903 0.3792,1.2667 0.3511,1.5259 -0.1783,0.0051 -0.0888,-0.0617 -0.2681,-0.0799 0.0216,0.2362 0.1092,0.4255 0.1085,0.7181 -0.0007,0.6122 -0.1068,0.9746 -0.3708,1.4967 -0.1663,0.329 -0.6178,0.9989 -0.6343,1.0425 0.4521,0.2928 0.6173,0.1652 1.3145,0.9353l0.3125 0.3881c0.0026,-0.0057 0.012,0.0101 0.0184,0.0154 0.1373,-0.1678 0.2605,-0.3703 0.3944,-0.5621 0.1409,-0.2019 0.252,-0.355 0.4128,-0.5386 0.5892,-0.6737 0.9062,-0.6413 1.0534,-0.84 -0.042,-0.1867 -0.1251,-0.073 -0.1956,-0.2959 0.1987,0.054 0.5594,0.1423 0.7303,-0.0216 -0.1817,-0.1423 -0.367,0.0259 -0.5803,-0.1042 0.1728,-0.4198 2.0237,0.1327 2.2783,-0.3086 -0.0617,-0.2484 -0.2889,-0.1918 -0.5316,-0.1397 -0.5842,0.125 -1.0402,0.1138 -1.5869,-0.096 0.0139,-0.1498 0.1493,-0.0533 0.017,-0.1366 -0.1053,-0.066 -0.2769,-0.1034 -0.623,-0.3333 -0.7671,-0.5093 -1.3944,-1.3995 -1.3793,-2.4404 0.1149,0.0165 0.1265,0.0425 0.2558,0.0374 0.0495,0.2698 0.1532,0.6528 0.39,0.7925 0.1054,0.0622 0.169,0.0444 0.2736,0.1277l-0.0768 0.2439c0.2756,-0.0495 0.2122,0.0362 0.4421,0.0964l-0.0972 0.108c-0.0552,0.0884 -0.0305,0.0063 -0.0393,0.1301 0.1212,0.061 0.1639,0.0636 0.2844,0.0007 -0.0343,0.2304 0.0312,0.3075 0.0888,0.5081 0.0432,0.1493 0.0621,0.1373 0.3943,0.2705 0.6312,0.2535 1.646,0.3303 2.1742,-0.0312 0.1397,-0.096 0.1906,-0.2566 0.2388,-0.4294 0.0521,-0.1836 0.1563,-0.3753 0.1848,-0.485 -0.3002,-0.1709 -0.7111,-0.1358 -1.0822,-0.1358 0.0533,-0.3219 0.4788,-0.2763 0.6948,-0.4673 -0.3403,-0.228 -1.002,-0.0351 -1.4865,-0.127l-0.2578 -0.0953c0.2292,-0.1327 1.2439,-0.3187 1.6212,-0.3206 0.1918,-0.0007 0.409,0.066 0.5564,0.0571 -0.0128,-0.1759 -0.0934,-0.2724 -0.2451,-0.3341 -0.2712,-0.1099 -0.2844,-0.0108 -0.4726,0.0564 -0.0724,-0.1982 -0.042,-0.4363 -0.16,-0.5702 -0.1551,-0.0598 -0.4128,0.0165 -0.607,-0.0533 -0.174,-0.0629 -0.2242,-0.2038 -0.1968,-0.4102 0.1003,0.0305 0.1447,0.1963 0.3117,0.2343 0.223,0.0501 0.2377,-0.1042 0.3056,-0.2489 0.5189,0.01 0.0775,0.5606 1.1074,0.0655 -0.0154,-0.115 -0.1397,-0.3658 -0.1875,-0.5067 -0.2647,-0.7785 -0.5194,-2.0707 0.2268,-2.6607 0.3449,-0.2724 0.5926,-0.221 1.0719,-0.2604 0.1836,-0.372 0.2412,-0.4877 0.2196,-1.0166 -0.0139,-0.3341 -0.0737,-0.7868 -0.2439,-0.9963 -0.1624,-0.0552 -0.3016,-0.0089 -0.4471,0.0401l-0.0002 -0.0005zm-4.9348 13.0935c1.2435,0.0528 2.2664,-0.1455 3.3039,-0.5297 0.4414,-0.1632 0.9068,-0.3994 1.2776,-0.6223 0.186,-0.1119 1.0027,-0.6344 1.0884,-0.8401 -0.12,-0.0583 -0.2102,-0.1478 -0.3398,-0.2299 -0.9449,-0.5969 -2.1985,-0.6698 -3.2106,-0.2534 -0.9924,0.4082 -1.8187,1.5278 -2.1202,2.4751l0.0007 0.0003zm4.1212 -15.2881c0.0686,0.0934 0.228,0.1836 0.3148,0.2496 0.1138,0.0857 0.1925,0.1587 0.2897,0.2496 1.4905,1.394 1.1703,2.3502 1.4465,3.8552 0.3507,1.9102 1.1144,3.099 0.3646,5.2979 -0.1891,0.5549 -0.4368,0.9766 -0.6509,1.477 -0.071,0.167 0.0046,0.2179 0.0814,0.3792l0.4819 1.0606c0.3391,-0.3322 0.7119,-0.877 0.9977,-1.3709 1.6606,-2.8722 1.338,-6.465 -0.7092,-9.0636 -0.3684,-0.4668 -0.7239,-0.8095 -1.1772,-1.2014 -0.2211,-0.1906 -1.1069,-0.8434 -1.4389,-0.9322l-0.0004 -0.001zm0.238 9.7113c0.044,-0.0458 0.2052,-0.3206 0.2038,-0.402 -0.0046,-0.1944 -0.2146,-0.2088 -0.3797,-0.179 -0.0127,0.2947 -0.0648,0.2357 -0.1397,0.402 0.1016,0.1231 0.1308,0.1397 0.3164,0.179l-0.0008 0zm0.7863 -4.5365c-0.0564,-0.2489 -0.6058,-0.1505 -0.7253,-0.0564 0.2515,0.0717 0.4743,0.0196 0.7253,0.0564z"/>
   <path id="_344653624" class="fil2" d="M12.1879 1.2941c0.0686,0.0933 0.228,0.1836 0.3149,0.2496 0.1137,0.0856 0.1924,0.1586 0.2896,0.2496 1.4898,1.3939 1.1698,2.3501 1.4461,3.8552 0.3506,1.9102 1.1143,3.0989 0.3645,5.2978 -0.1891,0.5549 -0.4368,0.9766 -0.6508,1.477 -0.0711,0.1671 0.0045,0.2179 0.0813,0.3792l0.4819 1.0606c0.3392,-0.3322 0.7119,-0.877 0.9977,-1.3709 1.6606,-2.8721 1.3381,-6.465 -0.7092,-9.0635 -0.3684,-0.4673 -0.7238,-0.8096 -1.1772,-1.2015 -0.221,-0.191 -1.1069,-0.8434 -1.4388,-0.9322l0 -0.0009z"/>
   <path id="_344654056" class="fil2" d="M0.8109 11.0575c0.2223,-0.6262 0.3689,-1.0498 0.7023,-1.5774 0.3237,-0.5136 0.576,-0.9379 0.9194,-1.3665 0.8751,-1.0904 1.303,-1.5735 1.5565,-3.0131 0.2311,-1.3118 0.5556,-2.4759 1.2319,-3.3339 0.6895,-0.8758 2.0593,-1.3366 3.17,-1.3723 -1.4434,-0.0401 -2.7471,0.402 -3.8,0.9638 -2.0626,1.1005 -3.5979,3.1746 -4.0666,5.5074 -0.2165,1.0757 -0.2172,2.1973 0.0081,3.2703 0.0336,0.1613 0.1601,0.788 0.2789,0.9207l-0.0005 0.001z"/>
  </g>
 </g>
</svg>
