<?xml version="1.0" encoding="UTF-8"?>
<!DOCTYPE svg PUBLIC "-//W3C//DTD SVG 1.1//EN" "http://www.w3.org/Graphics/SVG/1.1/DTD/svg11.dtd">
<!-- Creator: CorelDRAW -->
<svg xmlns="http://www.w3.org/2000/svg" xml:space="preserve" width="16.9332mm" height="16.9332mm" style="shape-rendering:geometricPrecision; text-rendering:geometricPrecision; image-rendering:optimizeQuality; fill-rule:evenodd; clip-rule:evenodd"
viewBox="0 0 16.9332 16.9332"
 xmlns:xlink="http://www.w3.org/1999/xlink">
 <defs>
  <style type="text/css">
   <![CDATA[
    .fil0 {fill:#010101}
    .fil1 {fill:#F3F3F4}
   ]]>
  </style>
 </defs>
 <g id="Capa_x0020_1">
  <metadata id="CorelCorpID_0Corel-Layer"/>
  <g id="_374417368">
   <path id="_374635320" class="fil0" d="M8.8096 15.8372c-0.0246,0.1536 -0.1567,0.529 -0.3428,0.5277 -0.1714,-0.0013 -0.3249,-0.3657 -0.3455,-0.528l0.6883 0.0003zm-1.0122 -0.5622c-0.2107,-0.5395 -0.945,-1.7637 -1.0558,-2.1678 1.0834,-0.0199 2.34,-0.0066 3.4424,-0.0001l-0.8195 1.6849c-0.1345,0.2612 -0.2002,0.4943 -0.3387,0.4943 -0.3607,0.0001 -0.8864,0.0126 -1.2284,-0.0113zm1.4987 -5.9936c0.2036,-0.0154 0.3672,0.0144 0.5674,-0.019 0.2051,-0.0343 0.325,-0.1045 0.5144,-0.1232 0.0014,0.9915 0.0312,2.5044 -0.0058,3.4183 -0.2672,0.014 -0.8224,0.0156 -1.0778,-0.005 -0.0227,-0.3964 -0.0207,-2.8571 0.0018,-3.2711zm-1.0997 3.0494c-0.0004,-0.6714 0,-1.3428 0,-2.0142 0,-0.2141 -0.0608,-1.0938 0.0439,-1.2307 0.1472,-0.1924 0.3442,-0.0588 0.4959,0.0178l0.0005 3.4517 -0.5329 0.0028 -0.0074 -0.2274zm-1.6412 -3.2104c0.1924,0.047 0.2882,0.104 0.515,0.1396 0.2044,0.032 0.3579,0.0109 0.5659,0.0217l0.0103 3.2729 -1.091 0.0026 -0.0002 -3.4368zm8.749 -6.9217c-0.0495,0.3806 0.0383,0.5374 -0.42,0.5468 -0.3336,0.0068 -0.6677,0.0592 -0.6781,-0.2997 -0.0082,-0.2849 0.1799,-0.5288 0.3377,-0.6372 0.2299,-0.158 0.4465,-0.1559 0.7859,-0.1557 0.3704,0.0002 0.5476,0.0188 0.7747,0.2048 0.1791,0.1466 0.276,0.3858 0.28,0.6983 0.0082,0.6321 -0.0009,1.2714 -0.0009,1.9043 0,1.301 0.2383,2.4916 -0.8227,3.0286 -0.7585,0.3838 -1.2288,0.0068 -1.5248,-0.0956 -0.2671,-0.0923 -0.7367,0.4674 -1.5366,0.1638l0.3158 -0.4613c0.4968,-0.8225 0.222,-1.3919 0.1491,-1.9007l0.6122 0.6073 0.6174 -0.2431 0.3152 1.0977 0.4621 -0.2021c-0.2168,-1.4742 -0.2361,-0.8968 0.0799,-2.3134 0.0451,-0.2023 0.0857,-0.38 0.1266,-0.5747 0.0744,-0.3534 0.0109,-0.2534 0.27,-0.4065 0.2741,-0.1618 0.4433,-0.5296 0.3832,-0.9543l-0.5267 -0.0073zm-14.7545 0.3593c0,-0.6434 0.3709,-0.905 0.9786,-0.9048l0.2611 0.0002 0.8151 0.3885c0.19,0.31 0.2283,0.7018 -0.2556,0.7018l-0.373 0.0001 -0.3509 -0.5411 -0.5243 -0.006 0.3818 0.9689c0.2696,0.1598 0.1976,0.0365 0.2794,0.4192l0.3735 1.693c0.1338,0.7227 -0.0771,0.687 -0.1799,1.1827l0.4623 0.215 0.3259 -1.1128 0.6497 0.2311 0.5783 -0.5987 -0.0766 1.3703c0.04,0.3792 0.494,0.8919 0.5437,0.9984l-1.2809 -0.1479c-0.433,-0.1263 -0.4627,0.2859 -1.2206,0.2278 -0.9493,-0.0728 -1.3876,-0.8019 -1.3876,-1.6913l0 -3.3944zm8.1932 -1.7158c0.7446,-0.6349 1.9316,-0.0993 2.1002,0.665l-0.4621 0.1634 -0.0024 0.5063 0.5194 -0.0737 -0.1342 0.4921c0.1283,0.1016 0.2993,0.2271 0.4628,0.2515l0.2455 -1.0808 0.9854 0.9465c0.0975,0.2579 0.1245,0.5821 0.071,0.8721 -0.0641,0.348 -0.1486,0.4054 -0.2742,0.666l-0.692 -0.3051 -0.163 0.4752c0.3428,0.1908 0.5564,0.2714 0.8107,0.5855 0.8849,1.093 -0.0901,2.4774 -0.7385,2.5308l-0.2498 -1.093 -0.4637 0.2396 0.144 0.5107 -0.5141 -0.0684 -0.0011 0.5171 0.4535 0.1504 -0.8214 0.87c-0.3354,0.1167 -1.1486,0.0909 -1.2818,-0.2491l-0.0001 -7.423 0.0059 -0.1491zm-2.6589 0.671c0.1723,-0.7599 1.3257,-1.3233 2.1059,-0.671l0.0062 7.6302 -1.302 0.1795c-0.3566,-0.1338 -0.7515,-0.4855 -0.8028,-0.8646l0.4574 -0.1564 0.0056 -0.5112 -0.5245 0.0675 0.1451 -0.5126 -0.4603 -0.2435 -0.2456 1.1137 -0.9829 -0.9304c-0.2327,-0.5925 -0.0747,-1.1637 0.1949,-1.5667l0.6893 0.3098 0.1451 -0.5155 -1.1381 -1.5379c-0.0099,-0.7557 0.5417,-1.4255 1.0885,-1.5506l0.2333 1.1083 0.4669 -0.2665 -0.129 -0.4873 0.516 0.0701 -0.0018 -0.5268 -0.4672 -0.1381zm-3.8226 1.7746c0.3663,-0.008 0.5511,-0.0269 0.7644,-0.2397 0.5294,-0.5282 0.1603,-1.5879 -0.6737,-1.8659 -0.6796,-0.2266 -1.7308,-0.1543 -2.1857,0.6485 -0.152,0.2684 -0.1543,0.4541 -0.1546,0.8019 -0.0003,0.5644 -0.0389,3.6252 0.0248,3.921 0.2029,0.9422 1.0767,1.7893 2.2985,1.6203 0.251,-0.0347 0.5973,-0.2261 0.7595,-0.1732 0.5464,0.178 0.9736,0.3251 1.6318,0.0316 0.3705,-0.1653 0.2776,-0.0346 0.6815,0.0737 0.2065,0.0554 0.2187,0.0444 0.3144,0.216 0.3089,0.5543 0.2822,0.0445 0.2822,1.174l-0.0001 2.9841c-0.0012,0.474 0.0025,0.4306 0.184,0.7827 0.2415,0.4687 0.4378,0.8694 0.661,1.3192 0.2202,0.4439 0.4327,0.855 0.6563,1.3171 0.2074,0.4284 0.382,1.013 0.9608,1.0149 0.5834,0.0018 0.7565,-0.6192 0.9661,-1.0392l1.3176 -2.6365c0.1965,-0.392 0.1693,-0.3147 0.1689,-0.8328l0 -2.9468c-0.0001,-0.974 -0.0531,-0.5675 0.3204,-1.1836 0.0943,-0.1555 0.0935,-0.1176 0.3119,-0.1761 0.4451,-0.1191 0.2259,-0.2517 0.7073,-0.047 0.8436,0.3588 1.5112,-0.0536 1.6307,-0.0697 0.0738,-0.0099 0.557,0.1721 0.7438,0.1967 1.1214,0.1475 2.1018,-0.6597 2.267,-1.6619 0.0573,-0.3478 0.0232,-3.322 0.0206,-3.9219 -0.0017,-0.3742 -0.0263,-0.5385 -0.1763,-0.8154 -0.382,-0.7051 -1.5142,-0.8277 -2.1884,-0.5876 -0.7967,0.2838 -1.2,1.3476 -0.6316,1.876 0.2425,0.2254 0.3885,0.1848 0.7436,0.226l-0.3829 1.6612c-0.7037,0.2179 -0.4716,0.1792 -0.7746,-0.0562 -0.4083,-0.3172 -0.6291,-0.352 -0.7404,-0.4389l0.1934 -1.9572c-0.2321,-0.5727 -0.6004,-0.9536 -1.2016,-1.2242 -0.1252,-0.0563 -0.3976,-0.1101 -0.4645,-0.1678 -0.0827,-0.0712 -0.2469,-0.5577 -0.8925,-0.8972 -0.94,-0.4943 -1.8278,0.1085 -1.94,0.1098 -0.1881,0.0021 -0.3513,-0.2659 -0.9294,-0.2948 -1.4225,-0.0711 -1.8006,1.0032 -1.9186,1.0949 -0.1229,0.0954 -1.1655,0.1712 -1.6446,1.3733 -0.3863,0.9694 0.0651,1.5572 0.1778,1.9632l-0.5402 0.291c-0.1505,0.1076 -0.3087,0.2838 -0.4404,0.3571l-0.535 -0.1532 -0.3732 -1.6674z"/>
   <path id="_415514368" class="fil1" d="M8.7429 0.8422l-0.0059 0.1491 0.0001 7.423c0.1332,0.34 0.9464,0.3658 1.2818,0.2491l0.8214 -0.87 -0.4535 -0.1504 0.0011 -0.5171 0.5141 0.0684 -0.144 -0.5107 0.4637 -0.2396 0.2498 1.093c0.6484,-0.0534 1.6234,-1.4378 0.7385,-2.5308 -0.2543,-0.3141 -0.4679,-0.3947 -0.8107,-0.5855l0.163 -0.4752 0.692 0.3051c0.1256,-0.2606 0.2101,-0.318 0.2742,-0.666 0.0535,-0.29 0.0265,-0.6142 -0.071,-0.8721l-0.9854 -0.9465 -0.2455 1.0808c-0.1635,-0.0244 -0.3345,-0.1499 -0.4628,-0.2515l0.1342 -0.4921 -0.5194 0.0737 0.0024 -0.5063 0.4621 -0.1634c-0.1686,-0.7643 -1.3556,-1.2999 -2.1002,-0.665z"/>
   <path id="_374415448" class="fil1" d="M6.084 1.5132l0.4672 0.1381 0.0018 0.5268 -0.516 -0.0701 0.129 0.4873 -0.4669 0.2665 -0.2333 -1.1083c-0.5468,0.1251 -1.0984,0.7949 -1.0885,1.5506l1.1381 1.5379 -0.1451 0.5155 -0.6893 -0.3098c-0.2696,0.403 -0.4276,0.9742 -0.1949,1.5667l0.9829 0.9304 0.2456 -1.1137 0.4603 0.2435 -0.1451 0.5126 0.5245 -0.0675 -0.0056 0.5112 -0.4574 0.1564c0.0513,0.3791 0.4462,0.7308 0.8028,0.8646l1.302 -0.1795 -0.0062 -7.6302c-0.7802,-0.6523 -1.9336,-0.0889 -2.1059,0.671z"/>
   <path id="_374414872" class="fil1" d="M15.3042 2.1987l0.5267 0.0073c0.0601,0.4247 -0.1091,0.7925 -0.3832,0.9543 -0.2591,0.1531 -0.1956,0.0531 -0.27,0.4065 -0.0409,0.1947 -0.0815,0.3724 -0.1266,0.5747 -0.316,1.4166 -0.2967,0.8392 -0.0799,2.3134l-0.4621 0.2021 -0.3152 -1.0977 -0.6174 0.2431 -0.6122 -0.6073c0.0729,0.5088 0.3477,1.0782 -0.1491,1.9007l-0.3158 0.4613c0.7999,0.3036 1.2695,-0.2561 1.5366,-0.1638 0.296,0.1024 0.7663,0.4794 1.5248,0.0956 1.061,-0.537 0.8227,-1.7276 0.8227,-3.0286 0,-0.6329 0.0091,-1.2722 0.0009,-1.9043 -0.004,-0.3125 -0.1009,-0.5517 -0.28,-0.6983 -0.2271,-0.186 -0.4043,-0.2046 -0.7747,-0.2048 -0.3394,-0.0002 -0.556,-0.0023 -0.7859,0.1557 -0.1578,0.1084 -0.3459,0.3523 -0.3377,0.6372 0.0104,0.3589 0.3445,0.3065 0.6781,0.2997 0.4583,-0.0094 0.3705,-0.1662 0.42,-0.5468z"/>
   <path id="_374415208" class="fil1" d="M0.5497 2.558l0 3.3944c0,0.8894 0.4383,1.6185 1.3876,1.6913 0.7579,0.0581 0.7876,-0.3541 1.2206,-0.2278l1.2809 0.1479c-0.0497,-0.1065 -0.5037,-0.6192 -0.5437,-0.9984l0.0766 -1.3703 -0.5783 0.5987 -0.6497 -0.2311 -0.3259 1.1128 -0.4623 -0.215c0.1028,-0.4957 0.3137,-0.46 0.1799,-1.1827l-0.3735 -1.693c-0.0818,-0.3827 -0.0098,-0.2594 -0.2794,-0.4192l-0.3818 -0.9689 0.5243 0.006 0.3509 0.5411 0.373 -0.0001c0.4839,0 0.4456,-0.3918 0.2556,-0.7018l-0.8151 -0.3885 -0.2611 -0.0002c-0.6077,-0.0002 -0.9786,0.2614 -0.9786,0.9048z"/>
   <path id="_374415160" class="fil1" d="M7.7974 15.275c0.342,0.0239 0.8677,0.0114 1.2284,0.0113 0.1385,0 0.2042,-0.2331 0.3387,-0.4943l0.8195 -1.6849c-1.1024,-0.0065 -2.359,-0.0198 -3.4424,0.0001 0.1108,0.4041 0.8451,1.6283 1.0558,2.1678z"/>
   <path id="_374415112" class="fil0" d="M1.6803 10.8803c0.4255,-0.0186 0.3258,-0.0356 0.4875,-0.2668l0.0434 -0.0515c0.2198,0.3846 0.0959,0.2486 0.4172,0.3314l-0.1482 0.5978c-0.5283,-0.1794 -0.286,-0.1025 -0.5927,0.0042 0.0141,-0.7201 -0.0454,-0.3215 -0.2072,-0.6151zm0.5194 1.1242c0.2364,0.1906 0.717,0.6291 0.9452,0.5279l-0.0991 -1.2199c0.1459,-0.0711 0.2721,-0.1928 0.4143,-0.295 0.1147,-0.0824 0.3234,-0.2093 0.3504,-0.3696l-1.1023 -0.3217c-0.1517,-0.435 -0.2096,-1.1863 -0.6406,-1.004 -0.1605,0.0679 -0.2726,0.569 -0.335,0.7846 -0.0773,0.2673 -0.0367,0.2261 -0.3518,0.221 -0.3,-0.0048 -0.8816,-0.0928 -0.8237,0.317 0.0246,0.1736 0.1547,0.2152 0.2659,0.3034 0.5911,0.4691 0.592,0.2407 0.3181,1.0683 -0.1226,0.3704 0.0155,0.7153 0.3933,0.4703 0.1959,-0.1269 0.4692,-0.4045 0.6653,-0.4823z"/>
   <path id="_374415784" class="fil0" d="M14.7797 14.6946c0.4685,-0.0219 0.3309,-0.0173 0.5127,-0.3345l0.5112 0.335c-0.3676,0.409 -0.2592,0.2543 -0.1967,0.641 -0.4581,-0.2164 -0.2877,-0.1457 -0.6127,-0.0162l-0.003 -0.4093c-0.0654,-0.1024 -0.1642,-0.1013 -0.2115,-0.216zm1.3704 0.4711c0.2522,-0.2308 0.7319,-0.4963 0.765,-0.6852 0.0871,-0.496 -0.7441,-0.312 -1.089,-0.3385l-0.5325 -1.0293c-0.3274,0.0011 -0.4175,0.7646 -0.5342,1.0327l-1.061 0.1293c0.4695,0.8998 0.1373,0.3316 0.7357,0.891l-0.1219 1.1728c0.2906,0.1564 0.5675,-0.292 0.9802,-0.5127 0.3496,0.2487 0.6614,0.5626 0.9325,0.5378l-0.0748 -1.1979z"/>
   <path id="_374415952" class="fil0" d="M1.1271 14.6942c0.5385,-0.0239 0.345,-0.0776 0.5131,-0.3371l0.511 0.3375 -0.2073 0.6278 -0.6065 0.0026 -0.2103 -0.6308zm-0.0205 -0.5499c-0.3299,0.0179 -1.1784,-0.1578 -1.0896,0.3361 0.0357,0.1985 0.6078,0.5109 0.7629,0.6853l-0.1095 1.1866 0.9698 -0.527 0.9767 0.534 0.0488 -0.5867c-0.051,-0.1713 -0.1511,-0.4059 -0.1668,-0.6069 0.5353,-0.4281 0.8142,-0.5088 0.7449,-0.8991l-1.07 -0.1244c-0.1444,-0.4406 -0.2432,-1.032 -0.5328,-1.0275 -0.3416,0.0053 -0.4099,0.7624 -0.5344,1.0296z"/>
   <path id="_374416216" class="fil0" d="M14.2486 10.8809c0.134,-0.0065 0.2586,0.0108 0.3478,-0.0673l0.1521 -0.2221c0.0029,-0.0128 0.0137,-0.0135 0.0216,-0.0188l0.4821 0.3087 -0.2074 0.6124 -0.5942 -0.003 -0.202 -0.6099zm-0.0207 -0.555l-1.0845 0.1603c-0.1134,0.3127 0.3163,0.5219 0.7311,0.8375l-0.2138 1.0697c0.1757,0.306 0.4004,0.1239 0.5676,-0.0075l0.5046 -0.3807c0.2669,0.1005 0.6931,0.6556 0.9784,0.5227l-0.1082 -1.195c0.1432,-0.1022 0.7279,-0.5044 0.7647,-0.6528l-1.0919 -0.3543c-0.0533,-0.1962 -0.1216,-0.3478 -0.1805,-0.5521 -0.0594,-0.2058 -0.0742,-0.4581 -0.3267,-0.4756 -0.2631,-0.0182 -0.2955,0.2203 -0.36,0.4402 -0.0485,0.1655 -0.1212,0.4017 -0.1808,0.5876z"/>
   <path id="_374415496" class="fil1" d="M9.2961 9.2814c-0.0225,0.414 -0.0245,2.8747 -0.0018,3.2711 0.2554,0.0206 0.8106,0.019 1.0778,0.005 0.037,-0.9139 0.0072,-2.4268 0.0058,-3.4183 -0.1894,0.0187 -0.3093,0.0889 -0.5144,0.1232 -0.2002,0.0334 -0.3638,0.0036 -0.5674,0.019z"/>
   <path id="_374415472" class="fil1" d="M6.5554 12.5572l1.091 -0.0026 -0.0103 -3.2729c-0.208,-0.0108 -0.3615,0.0103 -0.5659,-0.0217 -0.2268,-0.0356 -0.3226,-0.0926 -0.515,-0.1396l0.0002 3.4368z"/>
   <path id="_374416984" class="fil1" d="M8.1964 12.3308l0.0074 0.2274 0.5329 -0.0028 -0.0005 -3.4517c-0.1517,-0.0766 -0.3487,-0.2102 -0.4959,-0.0178 -0.1047,0.1369 -0.0439,1.0166 -0.0439,1.2307 0,0.6714 -0.0004,1.3428 0,2.0142z"/>
   <path id="_374416408" class="fil0" d="M3.8418 15.2776c0.1219,0.0349 0.3896,0.035 0.5319,0.0574 0.1784,0.0281 0.2987,0.0529 0.4673,0.0995 1.3569,0.3748 1.8254,1.2326 2.0586,1.3698l0.372 -0.2958 -1.3783 -1.2315c-0.6139,-0.3423 -1.1979,-0.4951 -2.0631,-0.531l0.0116 0.5316z"/>
   <path id="_374416264" class="fil0" d="M10.0329 16.804c0.1097,-0.0724 0.4761,-0.4771 0.5777,-0.5755 0.1525,-0.1478 0.4507,-0.3538 0.6839,-0.4727 1.0687,-0.5444 1.4242,-0.3734 1.7977,-0.4782l0.0176 -0.531 -2.1003 0.5398c-0.2733,0.1062 -1.3057,0.914 -1.3479,1.2221l0.3713 0.2955z"/>
   <path id="_374416696" class="fil0" d="M3.6479 11.6594c0.0585,0.1075 0.1645,0.1881 0.2483,0.2802 0.097,0.1066 0.1653,0.1931 0.2607,0.299 0.5411,0.6009 0.8947,1.3305 1.3096,2.0527l0.4891 -0.2073c-0.097,-0.4487 -0.9915,-1.7431 -1.3591,-2.173l-0.569 -0.6153c-0.1388,0.0548 -0.319,0.2648 -0.3796,0.3637z"/>
   <path id="_374416360" class="fil0" d="M10.9755 14.084l0.4749 0.2146c0.6929,-1.316 0.9357,-1.6274 1.8349,-2.6392l-0.3802 -0.3635 -0.5536 0.5933c-0.3515,0.4624 -1.3111,1.7329 -1.376,2.1948z"/>
   <path id="_374416768" class="fil1" d="M1.1271 14.6942l0.2103 0.6308 0.6065 -0.0026 0.2073 -0.6278 -0.511 -0.3375c-0.1681,0.2595 0.0254,0.3132 -0.5131,0.3371z"/>
   <path id="_374417416" class="fil1" d="M14.2486 10.8809l0.202 0.6099 0.5942 0.003 0.2074 -0.6124 -0.4821 -0.3087c-0.0079,0.0053 -0.0187,0.006 -0.0216,0.0188l-0.1521 0.2221c-0.0892,0.0781 -0.2138,0.0608 -0.3478,0.0673z"/>
   <path id="_374417488" class="fil1" d="M14.7797 14.6946c0.0473,0.1147 0.1461,0.1136 0.2115,0.216l0.003 0.4093c0.325,-0.1295 0.1546,-0.2002 0.6127,0.0162 -0.0625,-0.3867 -0.1709,-0.232 0.1967,-0.641l-0.5112 -0.335c-0.1818,0.3172 -0.0442,0.3126 -0.5127,0.3345z"/>
   <path id="_374417152" class="fil1" d="M1.6803 10.8803c0.1618,0.2936 0.2213,-0.105 0.2072,0.6151 0.3067,-0.1067 0.0644,-0.1836 0.5927,-0.0042l0.1482 -0.5978c-0.3213,-0.0828 -0.1974,0.0532 -0.4172,-0.3314l-0.0434 0.0515c-0.1617,0.2312 -0.062,0.2482 -0.4875,0.2668z"/>
   <path id="_374417224" class="fil1" d="M8.8096 15.8372l-0.6883 -0.0003c0.0206,0.1623 0.1741,0.5267 0.3455,0.528 0.1861,0.0013 0.3182,-0.3741 0.3428,-0.5277z"/>
  </g>
 </g>
</svg>
