<?xml version="1.0" encoding="UTF-8"?>
<!DOCTYPE svg PUBLIC "-//W3C//DTD SVG 1.1//EN" "http://www.w3.org/Graphics/SVG/1.1/DTD/svg11.dtd">
<!-- Creator: CorelDRAW -->
<svg xmlns="http://www.w3.org/2000/svg" xml:space="preserve" width="16.9332mm" height="16.9332mm" style="shape-rendering:geometricPrecision; text-rendering:geometricPrecision; image-rendering:optimizeQuality; fill-rule:evenodd; clip-rule:evenodd"
viewBox="0 0 16.9332 16.9332"
 xmlns:xlink="http://www.w3.org/1999/xlink">
 <defs>
  <style type="text/css">
   <![CDATA[
    .fil0 {fill:black}
   ]]>
  </style>
 </defs>
 <g id="Capa_x0020_1">
  <metadata id="CorelCorpID_0Corel-Layer"/>
  <path class="fil0" d="M4.6184 8.0845c0.0577,-0.1281 0.1034,-0.2081 0.1827,-0.3542 0.1666,-0.3068 0.1247,-0.2153 0.2459,-0.2853l0.2544 1.2185 -0.683 -0.579zm4.2863 -0.9302c-2.0263,0.654 -1.0024,3.5668 0.9235,2.9604 0.6627,-0.2087 1.2739,-0.9739 1.0153,-1.9111 -0.1923,-0.6969 -0.9889,-1.3559 -1.9388,-1.0493zm-3.8289 -7.1254c-2.0162,0.3869 -1.4815,3.3772 0.5407,3.0585 0.7519,-0.1184 1.4057,-0.8695 1.2646,-1.7935 -0.1166,-0.7637 -0.8734,-1.4439 -1.8053,-1.265zm2.353 10.9944c0.0073,-0.4909 0.1837,-0.8089 0.0885,-1.3162l-0.7674 -3.5326c-0.1555,-0.6947 -0.3177,-3.0516 -1.7501,-2.3468 -0.2995,0.1473 -0.4326,0.432 -0.6293,0.7798 -0.3528,0.6237 -0.6764,1.1889 -1.0373,1.8381 -0.9484,1.7061 -1.3351,1.931 -0.3251,2.8058 0.6725,0.5826 1.7742,1.6634 2.4407,1.7851l-0.4511 2.6704c-0.1078,0.6354 -0.5278,2.0923 -0.2014,2.6348 0.4456,0.7407 1.6005,0.56 1.7953,-0.4412 0.1252,-0.6435 0.2739,-2.1401 0.4608,-2.608l1.764 1.1428c0.6672,-0.0428 1.1049,-0.9309 1.481,-1.3704l0.8246 0.7748 -2.3638 1.4609c-0.3792,0.4257 -0.2672,1.0283 0.0766,1.3482 0.3689,0.3432 0.9961,0.2528 1.585,0.2528 0.7042,0 3.1594,0.1308 3.5967,-0.139 0.3436,-0.212 0.6799,-0.7654 0.4002,-1.2878 -0.2604,-0.4864 -0.6078,-0.5257 -1.3051,-0.554l0.5958 -0.8381c0.0306,-0.4844 -0.2248,-0.7295 -0.4542,-0.9333l-2.2203 -2.062c-1.3362,-1.2689 -1.9192,0.4058 -2.4499,0.9184l-1.1542 -0.9825z"/>
 </g>
</svg>
