<?xml version="1.0" encoding="UTF-8"?>
<!DOCTYPE svg PUBLIC "-//W3C//DTD SVG 1.1//EN" "http://www.w3.org/Graphics/SVG/1.1/DTD/svg11.dtd">
<!-- Creator: CorelDRAW -->
<svg xmlns="http://www.w3.org/2000/svg" xml:space="preserve" width="16.9332mm" height="16.9332mm" style="shape-rendering:geometricPrecision; text-rendering:geometricPrecision; image-rendering:optimizeQuality; fill-rule:evenodd; clip-rule:evenodd"
viewBox="0 0 16.9332 16.9332"
 xmlns:xlink="http://www.w3.org/1999/xlink">
 <defs>
  <style type="text/css">
   <![CDATA[
    .fil0 {fill:black}
    .fil2 {fill:#939393}
    .fil1 {fill:#F2F2F7}
   ]]>
  </style>
 </defs>
 <g id="Capa_x0020_1">
  <metadata id="CorelCorpID_0Corel-Layer"/>
  <g id="_374636424">
   <path id="_374636496" class="fil0" d="M7.7871 5.2383l-0.2273 1.756 -0.6493 -1.1695 0.8766 -0.5865zm2.2387 0.5949l-0.6443 1.16 -0.2777 -1.7934c0.1326,0.0653 0.8415,0.5514 0.922,0.6334zm-4.4466 -2.1245l1.2742 2.7909c0.1257,0.2567 1.3154,2.3334 1.5984,2.4381l0.4948 -0.5514c0.6267,-0.8101 2.2092,-3.7764 2.412,-4.6716l0.4452 0.0895c-0.5726,1.5063 -0.6479,1.8402 -1.4401,3.2809 -0.2716,0.4939 -0.5828,0.9948 -0.8925,1.4373 -0.3403,0.4861 -0.6594,0.8882 -0.9915,1.3373l-1.0235 -1.3227c-0.7257,-0.9833 -2.1453,-3.6363 -2.3202,-4.7333l0.4432 -0.095zm2.2982 0.0661c0.2655,-0.2951 0.9281,-0.2903 1.1873,0 -0.0985,0.1215 -0.4596,0.4009 -0.6129,0.4526 -0.1838,-0.1455 -0.428,-0.2754 -0.5744,-0.4526zm0.9249 0.6991c0.239,-0.2421 0.9727,-0.7134 1.2355,-1.1321l0.9691 0.2777 -0.8074 1.8599 -1.3972 -1.0055zm-1.9446 -1.148l0.621 0.6069c0.2212,0.2096 0.5608,0.4383 0.6617,0.5411l-1.3974 1.0057 -0.8117 -1.873 0.9264 -0.2807zm1.3906 -1.5296c0.0779,0.0799 0.0596,0.0865 0.0612,0.2299 0.0014,0.1135 0.001,0.1504 -0.029,0.2567l-0.4588 0.0369c-0.3287,0.0253 -0.6131,0.5231 -1.1193,0.6754 -0.4531,0.1364 -0.903,0.2811 -1.3856,0.3974 -0.6161,0.1486 -0.902,0.1984 -1.2174,0.5735 -0.6099,0.7253 -0.8192,1.701 -0.955,2.6538 -0.2236,1.5683 -1.3847,5.5869 -1.9544,7.0202 -0.0952,0.2395 -0.2087,0.4282 -0.1584,0.7345 0.0853,0.5205 -0.8662,1.0457 0.5005,1.6443 1.5387,0.674 1.292,-0.404 1.6113,-0.6558 0.2565,-0.2023 0.2757,-0.1148 0.4146,-0.4807 0.1773,-0.4673 0.2929,-0.8617 0.4134,-1.3737 0.1688,-0.7172 0.4653,-1.0411 0.3216,-1.2994l-0.3695 0.2811c-0.1758,0.2251 -0.5133,2.0294 -0.7772,2.4079 -0.2979,0.4271 -1.6213,-0.318 -1.7293,-0.5168 -0.1147,-0.2112 0.1576,-0.7224 0.236,-0.9377 0.2262,-0.621 0.4371,-1.254 0.627,-1.898 0.3843,-1.3032 0.7422,-2.6347 1.0599,-3.9876 0.193,-0.8218 0.3592,-3.2878 1.4404,-3.6417l1.5549 3.5283c0.2817,0.5577 1.1175,1.732 1.5398,2.2663 0.1089,0.1378 0.1787,0.2176 0.2782,0.3433 0.0973,0.1229 0.1628,0.2481 0.3375,0.2802l0.6028 -0.6752c0.7819,-0.9381 1.8565,-2.7885 2.3615,-3.9297l0.7253 -1.8044 1.0207 1.5463c0.2027,0.6934 0.2467,1.443 0.4172,2.1493 0.423,1.7528 1.0702,4.2622 1.7118,5.9373 0.205,0.5352 0.6155,0.8998 -0.7161,1.3551 -0.7814,0.2673 -0.8604,0.1891 -1.2003,-1.108 -0.0928,-0.3542 -0.161,-0.6888 -0.2685,-1.014 -0.0777,-0.2349 -0.1752,-0.7811 -0.4905,-0.6663 0.1379,0.8526 0.438,2.0112 0.7396,2.7861 0.1651,0.424 0.2546,0.2765 0.4456,0.4882 0.1084,0.1201 0.1698,0.4583 0.2831,0.6089 0.3123,0.4151 0.9413,0.1732 1.3397,-0.0164 0.421,-0.2004 0.8814,-0.4691 0.5919,-1.0997 -0.3099,-0.6748 -0.1057,-0.2328 -0.1255,-0.7093 -0.0081,-0.1969 -0.162,-0.4965 -0.2312,-0.6823 -0.6361,-1.7092 -1.2295,-3.8724 -1.6597,-5.6801 -0.2559,-1.0755 -0.4023,-3.3285 -1.4164,-4.0597 -0.6022,-0.4342 -2.0833,-0.4944 -2.7239,-0.9263 -0.2257,-0.1521 -0.3301,-0.285 -0.5204,-0.4134 -0.2635,-0.1779 -0.4096,-0.1113 -0.7216,-0.1571l-0.3476 -0.9122c-0.2586,-0.1372 -0.5103,-0.4328 -0.2614,-0.7781 0.2062,-0.2862 0.617,-0.2881 0.8308,-0.0215 0.1242,0.1549 0.0792,0.3757 0.1835,0.449 0.2042,0.1439 0.2993,-0.061 0.2802,-0.2485 -0.0723,-0.7132 -1.0055,-1.0049 -1.4951,-0.4966 -0.2125,0.2206 -0.3397,0.5675 -0.1896,0.9352 0.1797,0.4406 0.5124,0.4137 0.5917,0.6051z"/>
   <path id="_419908288" class="fil0" d="M12.7018 8.4354c0.0184,-0.2004 0.1031,-0.681 -0.2249,-0.5266 -0.1654,0.0778 -0.1331,0.4857 -0.1515,0.6785 -0.0478,0.5009 -0.0969,1.0005 -0.1593,1.4994 -0.0652,0.52 -0.3938,2.6248 -0.3768,2.9332 0.0283,0.5145 0.3092,0.798 0.3749,1.2948 0.0716,0.5421 -0.2488,0.8438 -0.6201,0.9747 -0.4181,0.1474 -2.5834,0.0984 -3.2088,0.096 -1.6333,-0.0062 -3.9938,0.39 -3.4938,-1.3557 0.1452,-0.507 0.3639,-0.656 0.3052,-1.3209 -0.0409,-0.4641 -0.1491,-0.9774 -0.2078,-1.4631 -0.0584,-0.4829 -0.1036,-0.981 -0.1526,-1.4711 -0.0393,-0.3936 -0.0804,-1.7766 -0.2451,-1.8619 -0.4035,-0.2089 -0.2185,0.6948 -0.2036,0.8722 0.0851,1.0135 0.178,2.0271 0.3094,3.0278 0.0589,0.4481 0.2185,1.0296 0.0959,1.4586 -0.1289,0.451 -0.3656,0.7486 -0.3352,1.3019 0.0411,0.7468 0.4938,0.57 0.5309,1.1575 0.0339,0.5356 0.0221,0.9569 0.484,1.1394 0.257,0.1015 4.1202,0.0499 4.9323,0.0499 0.5448,0 1.1401,0.0989 1.4439,-0.2441 0.2939,-0.3319 0.0519,-1.054 0.3418,-1.3284 0.9307,-0.8808 -0.0372,-1.7136 0.0076,-2.5187 0.0227,-0.4076 0.1477,-0.9925 0.2097,-1.4135 0.1453,-0.9872 0.2517,-1.9762 0.3439,-2.9799z"/>
   <path id="_376488792" class="fil1" d="M5.136 3.8037c0.1749,1.097 1.5945,3.75 2.3202,4.7333l1.0235 1.3227c0.3321,-0.4491 0.6512,-0.8512 0.9915,-1.3373 0.3097,-0.4425 0.6209,-0.9434 0.8925,-1.4373 0.7922,-1.4407 0.8675,-1.7746 1.4401,-3.2809l-0.4452 -0.0895c-0.2028,0.8952 -1.7853,3.8615 -2.412,4.6716l-0.4948 0.5514c-0.283,-0.1047 -1.4727,-2.1814 -1.5984,-2.4381l-1.2742 -2.7909 -0.4432 0.095z"/>
   <path id="_376489032" class="fil1" d="M5.9313 3.6066l0.8117 1.873 1.3974 -1.0057c-0.1009,-0.1028 -0.4405,-0.3315 -0.6617,-0.5411l-0.621 -0.6069 -0.9264 0.2807z"/>
   <path id="_376488552" class="fil1" d="M8.8023 4.4739l1.3972 1.0055 0.8074 -1.8599 -0.9691 -0.2777c-0.2628,0.4187 -0.9965,0.89 -1.2355,1.1321z"/>
   <path id="_376488672" class="fil0" d="M6.0827 8.8543c-0.1712,0.0505 -0.3068,0.2258 -0.5385,0.3216 -0.2995,0.1239 -0.2857,0.228 -0.2073,0.587 0.076,0.3486 0.4403,0.9142 0.7814,0.8889 0.3306,-0.0245 0.6776,-0.5279 0.7519,-0.9696 0.0665,-0.3955 0.0449,-0.3905 -0.2676,-0.5245 -0.2386,-0.1024 -0.3125,-0.2721 -0.5199,-0.3034z"/>
   <path id="_376489656" class="fil1" d="M9.3815 6.9932l0.6443 -1.16c-0.0805,-0.082 -0.7894,-0.5681 -0.922,-0.6334l0.2777 1.7934z"/>
   <polygon id="_376489800" class="fil1" points="6.9105,5.8248 7.5598,6.9943 7.7871,5.2383 "/>
   <path id="_376489776" class="fil1" d="M7.8774 3.7748c0.1464,0.1772 0.3906,0.3071 0.5744,0.4526 0.1533,-0.0517 0.5144,-0.3311 0.6129,-0.4526 -0.2592,-0.2903 -0.9218,-0.2951 -1.1873,0z"/>
   <path id="_376489872" class="fil2" d="M7.8217 2.3198l0.4588 -0.0369c0.03,-0.1063 0.0304,-0.1432 0.029,-0.2567 -0.0016,-0.1434 0.0167,-0.15 -0.0612,-0.2299l0.0206 0.448c-0.2061,0.0063 -0.329,-0.035 -0.4472,0.0755z"/>
  </g>
 </g>
</svg>
