<?xml version="1.0" encoding="UTF-8"?>
<!DOCTYPE svg PUBLIC "-//W3C//DTD SVG 1.1//EN" "http://www.w3.org/Graphics/SVG/1.1/DTD/svg11.dtd">
<!-- Creator: CorelDRAW -->
<svg xmlns="http://www.w3.org/2000/svg" xml:space="preserve" width="16.9332mm" height="16.9332mm" style="shape-rendering:geometricPrecision; text-rendering:geometricPrecision; image-rendering:optimizeQuality; fill-rule:evenodd; clip-rule:evenodd"
viewBox="0 0 16.9332 16.9332"
 xmlns:xlink="http://www.w3.org/1999/xlink">
 <defs>
  <style type="text/css">
   <![CDATA[
    .fil1 {fill:black}
    .fil0 {fill:#F3F3F5}
   ]]>
  </style>
 </defs>
 <g id="Capa_x0020_1">
  <metadata id="CorelCorpID_0Corel-Layer"/>
  <g id="_375507128">
   <path id="_89973880" class="fil0" d="M7.629 9.4049c-0.1723,0.0296 -1.4681,0.7517 -1.6901,0.2466 -0.1992,-0.4534 0.5466,-0.4209 0.6337,-0.4379 0.3255,-0.0636 0.5578,-0.1727 0.777,-0.3391 1.5416,-1.17 0.3223,-3.3348 1.0642,-3.4206 0.3947,-0.0458 0.3067,0.4891 0.3067,0.826 -0.0001,0.3607 -0.0146,0.7533 0.0043,1.1102 0.0499,0.9411 0.7677,1.6707 1.5829,1.8251 0.1479,0.028 0.8492,-0.0118 0.6297,0.448 -0.2202,0.4615 -1.5238,-0.2329 -1.6664,-0.2595l-0.5221 1.7125c0.8748,0.0351 2.1827,0.0051 3.1082,0.0066l1.0126 -1.735c0.2508,-0.7975 0.2227,-1.6384 0.0778,-2.4792 -0.2285,-1.3263 -0.9876,-2.9556 -1.6394,-3.8092l-5.6905 -0.0028c-0.7581,1.3403 -1.3614,2.2094 -1.6376,3.8062 -0.215,1.2431 -0.1353,2.3401 0.473,3.4143 0.254,0.4486 0.4527,0.6419 0.5478,0.8057l3.1282 -0.0002 -0.5 -1.7177z"/>
   <path id="_374408008" class="fil1" d="M7.629 9.4049l0.5 1.7177 -3.1282 0.0002c-0.0951,-0.1638 -0.2938,-0.3571 -0.5478,-0.8057 -0.6083,-1.0742 -0.688,-2.1712 -0.473,-3.4143 0.2762,-1.5968 0.8795,-2.4659 1.6376,-3.8062l5.6905 0.0028c0.6518,0.8536 1.4109,2.4829 1.6394,3.8092 0.1449,0.8408 0.173,1.6817 -0.0778,2.4792l-1.0126 1.735c-0.9255,-0.0015 -2.2334,0.0285 -3.1082,-0.0066l0.5221 -1.7125c0.1426,0.0266 1.4462,0.721 1.6664,0.2595 0.2195,-0.4598 -0.4818,-0.42 -0.6297,-0.448 -0.8152,-0.1544 -1.533,-0.884 -1.5829,-1.8251 -0.0189,-0.3569 -0.0044,-0.7495 -0.0043,-1.1102 0,-0.3369 0.088,-0.8718 -0.3067,-0.826 -0.7419,0.0858 0.4774,2.2506 -1.0642,3.4206 -0.2192,0.1664 -0.4515,0.2755 -0.777,0.3391 -0.0871,0.017 -0.8329,-0.0155 -0.6337,0.4379 0.222,0.5051 1.5178,-0.217 1.6901,-0.2466zm7.6193 1.7045l-2.5761 0.0131c0.0578,-0.1793 0.3659,-0.6376 0.4825,-0.8752 0.5254,-1.0704 0.5754,-2.2009 0.3667,-3.3821 -0.192,-1.0861 -0.5521,-2.0064 -1.0281,-2.9454 -0.1038,-0.2048 -0.4341,-0.7002 -0.4552,-0.8194l3.1991 -0.0033 0.0111 8.0123zm-10.9875 0.0096l-2.5778 -0.0005c-0.0448,-2.5473 -0.006,-5.4318 0.0128,-8.0219l3.2003 0.0071c-0.0234,0.1056 -0.3557,0.6337 -0.4483,0.8157 -0.8181,1.6071 -1.4462,3.541 -1.0108,5.3603 0.091,0.38 0.1944,0.644 0.3407,0.973 0.1353,0.3042 0.4023,0.6356 0.4831,0.8663zm11.5391 0.1279l0 -8.2921c0,-0.5242 -0.3369,-0.4225 -0.7819,-0.422l-11.0425 0c-0.7979,0 -1.6788,-0.0359 -2.4661,-0.0016 -0.5028,0.0218 -0.3824,0.4121 -0.3823,0.8752l0 7.3479c-0.0001,1.1869 -0.2813,0.9218 2.8074,0.9218l11.0424 0c0.4984,0.0002 0.823,0.124 0.823,-0.4292z"/>
   <path id="_411109984" class="fil1" d="M11.2899 15.0321l-5.6503 0.0054c0.0696,-0.1247 0.2989,-0.2818 0.4507,-0.403 0.214,-0.1708 0.3857,-0.1156 0.7177,-0.1153l3.284 0c0.5456,-0.0004 0.5198,-0.0722 1.0684,0.3793 0.0919,0.0757 0.0664,0.0471 0.1295,0.1336zm-4.8592 -1.8683l4.0388 0.0008 0.0035 0.7966 -4.0413 0.004 -0.001 -0.8014zm-5.8642 -0.5541c-0.0459,-0.8662 -0.0065,-1.8395 -0.0065,-2.7174 0,-0.9459 -0.0523,-7.6627 0.0219,-7.9866l15.7678 0.0009 0.0149 10.6938 -15.7981 0.0093zm15.4367 0.5547c0.8467,0 0.9173,0.1518 0.9156,-0.727l-0.0001 -9.811c0,-0.8693 0.1286,-1.2595 -0.3788,-1.285 -0.5056,-0.0255 -1.0896,0.0006 -1.604,0.0006 -1.3787,0 -14.4443,-0.042 -14.6906,0.0152 -0.2809,0.0652 -0.2406,0.3009 -0.2392,0.5708l0.0004 10.5918c-0.0009,0.2267 -0.0578,0.5336 0.1802,0.6212 0.128,0.0472 5.2697,0.0129 5.6853,0.0275l0.0048 0.8699c-0.3515,0.3233 -0.3828,0.3511 -0.7651,0.644 -0.1446,0.1107 -0.2592,0.199 -0.3965,0.3012 -0.1472,0.1096 -0.262,0.1696 -0.203,0.4505l0.9001 0.1522c0.5312,0.0445 5.1432,-0.0001 6.1575,0 0.3848,0 0.6225,0.075 0.8555,-0.1476l-0.2284 -0.4675c-0.0346,-0.0424 -1.0303,-0.7909 -1.1311,-0.8396l-0.0067 -0.9668 4.9441 -0.0004z"/>
   <path id="_374287192" class="fil0" d="M15.7999 11.2469c0,0.5532 -0.3246,0.4294 -0.823,0.4292l-11.0424 0c-3.0887,0 -2.8075,0.2651 -2.8074,-0.9218l0 -7.3479c-0.0001,-0.4631 -0.1205,-0.8534 0.3823,-0.8752 0.7873,-0.0343 1.6682,0.0016 2.4661,0.0016l11.0425 0c0.445,-0.0005 0.7819,-0.1022 0.7819,0.422l0 8.2921zm-15.2334 1.3628l15.7981 -0.0093 -0.0149 -10.6938 -15.7678 -0.0009c-0.0742,0.3239 -0.0219,7.0407 -0.0219,7.9866 0,0.8779 -0.0394,1.8512 0.0065,2.7174z"/>
   <path id="_374287312" class="fil0" d="M4.2608 11.119c-0.0808,-0.2307 -0.3478,-0.5621 -0.4831,-0.8663 -0.1463,-0.329 -0.2497,-0.593 -0.3407,-0.973 -0.4354,-1.8193 0.1927,-3.7532 1.0108,-5.3603 0.0926,-0.182 0.4249,-0.7101 0.4483,-0.8157l-3.2003 -0.0071c-0.0188,2.5901 -0.0576,5.4746 -0.0128,8.0219l2.5778 0.0005z"/>
   <path id="_374287360" class="fil0" d="M12.6722 11.1225l2.5761 -0.0131 -0.0111 -8.0123 -3.1991 0.0033c0.0211,0.1192 0.3514,0.6146 0.4552,0.8194 0.476,0.939 0.8361,1.8593 1.0281,2.9454 0.2087,1.1812 0.1587,2.3117 -0.3667,3.3821 -0.1166,0.2376 -0.4247,0.6959 -0.4825,0.8752z"/>
   <polygon id="_375507608" class="fil0" points="6.4317,13.9652 10.473,13.9612 10.4695,13.1646 6.4307,13.1638 "/>
   <path id="_375506984" class="fil0" d="M11.2899 15.0321c-0.0631,-0.0865 -0.0376,-0.0579 -0.1295,-0.1336 -0.5486,-0.4515 -0.5228,-0.3797 -1.0684,-0.3793l-3.284 0c-0.332,-0.0003 -0.5037,-0.0555 -0.7177,0.1153 -0.1518,0.1212 -0.3811,0.2783 -0.4507,0.403l5.6503 -0.0054z"/>
  </g>
 </g>
</svg>
