<?xml version="1.0" encoding="UTF-8"?>
<!DOCTYPE svg PUBLIC "-//W3C//DTD SVG 1.1//EN" "http://www.w3.org/Graphics/SVG/1.1/DTD/svg11.dtd">
<!-- Creator: CorelDRAW -->
<svg xmlns="http://www.w3.org/2000/svg" xml:space="preserve" width="16.9332mm" height="16.9332mm" style="shape-rendering:geometricPrecision; text-rendering:geometricPrecision; image-rendering:optimizeQuality; fill-rule:evenodd; clip-rule:evenodd"
viewBox="0 0 16.9332 16.9332"
 xmlns:xlink="http://www.w3.org/1999/xlink">
 <defs>
  <style type="text/css">
   <![CDATA[
    .fil0 {fill:none}
    .fil1 {fill:black}
    .fil4 {fill:#191306}
    .fil5 {fill:#EACA47}
    .fil3 {fill:#FDCC33}
    .fil2 {fill:#FDFDFD}
   ]]>
  </style>
 </defs>
 <g id="Capa_x0020_1">
  <metadata id="CorelCorpID_0Corel-Layer"/>
  <rect class="fil0" width="16.9332" height="16.9332"/>
  <g id="_714747840">
   <path id="_715967064" class="fil1" d="M8.3395 8.0141c0.5111,-0.326 0.6028,0.6612 0.2706,0.8747 -0.4954,0.3185 -0.714,-0.592 -0.2706,-0.8747zm-1.0268 -3.5314c-0.398,-0.4946 0.1703,-1.4545 1.0862,-1.5185 0.8799,-0.0615 1.5316,0.4133 1.8185,1.0016 0.4217,0.8641 0.026,1.4449 -0.3944,2.049 -0.2752,0.3956 -0.6021,0.8541 -0.9811,1.1466 -0.1843,0.1423 -0.2418,0.1784 -0.5367,0.1521l-0.0347 -0.7233c0.0922,-0.3213 1.1253,-0.9175 1.2543,-1.6786 0.1101,-0.6502 -0.2659,-1.1178 -0.9138,-1.0548 -0.4464,0.0435 -0.8915,0.6447 -1.2983,0.6259zm-2.5143 7.5994c0.0185,0.0699 0.0506,0.179 0.054,0.1884 0.0033,0.0093 0.0239,0.0619 0.0355,0.0987 0.0471,0.1496 -0.012,0.0148 0.0341,0.1212 0.0976,-0.0261 0.0568,-0.0461 0.1772,-0.0909 0.2421,-0.0899 0.4557,0.0177 0.7478,0.1025 -0.0413,0.2241 -0.2914,0.8957 -0.3639,1.263l-0.206 1.4586c-0.1561,0.0866 -0.336,0.1252 -0.5379,0.1769 -0.0463,0.0559 -0.0126,0.0986 -0.34,0.091l-0.3407 -0.0139c0.0448,-0.0714 0.0027,-0.0196 0.0423,0.0381l1.1626 -0.116c-0.003,0.1261 0.0093,0.1544 -0.0424,0.2674 -0.006,0.0131 -0.0411,0.0665 -0.0518,0.0797l-0.0736 0.0716c-0.0061,0.0058 -0.0181,0.0159 -0.0275,0.0235 -0.0081,0.1812 -0.3539,0.7319 -0.3949,1.0914l0.1359 0c0.0754,-0.3568 0.2353,-0.7146 0.3878,-0.9886 0.2648,-0.476 0.1858,-0.5124 0.2439,-1.1034l0.5205 -2.2133c0.1688,0.0595 0.8753,0.4277 1.4336,0.6326 2.3499,0.863 2.9563,-0.3301 3.9132,-0.6532 0.349,-0.1179 0.5579,0.0054 0.8614,0.0628l0.0446 -0.0437c0.1483,-0.5697 0.1435,-0.4256 -0.1214,-0.8737 -0.3844,-0.6503 0.0157,-2.2634 0.1449,-2.978 0.3785,-2.0951 0.3821,-4.3913 0.2805,-6.5263 -0.0167,-0.351 0.2062,-0.5279 0.3623,-0.7933 0.1092,-0.1856 0.4021,-0.5269 0.2375,-0.8157 -0.3483,-0.6109 -1.1098,-0.1487 -1.7965,-0.3269 -0.6243,-0.1622 -1.2982,-0.2947 -1.9841,-0.3095 -0.7434,-0.016 -1.4894,0.0266 -2.1675,0.1724 -0.3128,0.0673 -0.6081,0.1264 -0.9151,0.2317 -0.3588,0.1229 -0.6377,0.0261 -0.9928,0.1543 -0.7375,0.2662 -0.0477,1.1288 0.095,1.5033 0.0606,0.1591 -0.2151,1.6606 -0.2542,1.9972 -0.1646,1.4153 -0.142,2.9646 0.0098,4.3652 0.2761,2.5462 0.5371,1.3503 -0.0565,2.7787 -0.0977,0.2351 -0.2821,0.614 -0.2576,0.8762z"/>
   <path id="_715971480" class="fil2" d="M4.8091 16.9333l7.4299 0c-0.0806,-0.2589 -0.2825,-0.6035 -0.4021,-0.8414 -0.037,-0.0738 -0.0571,-0.1267 -0.1011,-0.1961 -0.0905,-0.143 -0.0991,-0.0991 -0.1621,-0.1778 -0.1368,-0.1709 -0.4389,-2.2436 -0.4929,-2.558 0.1528,0.0372 0.1323,0.1519 0.2058,0.5527l0.3906 1.936c0.9801,0.1262 0.98,-0.0273 1.8883,-0.7156 -0.0543,-0.9434 -1.314,-2.0998 -1.396,-2.2629 -0.3035,-0.0574 -0.5124,-0.1807 -0.8614,-0.0628 -0.9569,0.3231 -1.5633,1.5162 -3.9132,0.6532 -0.5583,-0.2049 -1.2648,-0.5731 -1.4336,-0.6326l-0.5205 2.2133c-0.0581,0.591 0.0209,0.6274 -0.2439,1.1034 -0.1525,0.274 -0.3124,0.6318 -0.3878,0.9886z"/>
   <path id="_715969272" class="fil2" d="M7.3127 4.4827c0.4068,0.0188 0.8519,-0.5824 1.2983,-0.6259 0.6479,-0.063 1.0239,0.4046 0.9138,1.0548 -0.129,0.7611 -1.1621,1.3573 -1.2543,1.6786l0.0347 0.7233c0.2949,0.0263 0.3524,-0.0098 0.5367,-0.1521 0.379,-0.2925 0.7059,-0.751 0.9811,-1.1466 0.4204,-0.6041 0.8161,-1.1849 0.3944,-2.049 -0.2869,-0.5883 -0.9386,-1.0631 -1.8185,-1.0016 -0.9159,0.064 -1.4842,1.0239 -1.0862,1.5185z"/>
   <path id="_715969512" class="fil2" d="M4.922 12.4904l-0.0461 0.0568c-0.0373,0.0402 -0.0284,0.031 -0.0698,0.0711 -0.0509,0.0494 -0.0633,0.0588 -0.1283,0.1249 -0.0882,0.0896 -0.1605,0.1543 -0.257,0.2543 -0.5948,0.6162 -0.7744,1.0896 -1.2011,1.8504 0.2781,0.388 0.8315,0.5939 1.5195,0.5526 0.2019,-0.0517 0.3818,-0.0903 0.5379,-0.1769l0.206 -1.4586c0.0725,-0.3673 0.3226,-1.0389 0.3639,-1.263 -0.2921,-0.0848 -0.5057,-0.1924 -0.7478,-0.1025 -0.1204,0.0448 -0.0796,0.0648 -0.1772,0.0909z"/>
   <path id="_715969872" class="fil3" d="M3.0028 16.9333l1.6704 0c0.041,-0.3595 0.3868,-0.9102 0.3949,-1.0914 -0.0189,-0.1249 -0.0684,-0.0555 0.0196,-0.2161 -0.4167,-0.0485 -0.446,0.1431 -0.8354,0.0456l-0.2348 -0.0651c-0.1889,-0.034 -0.4313,-0.0752 -0.555,-0.2065 -0.1742,0.4968 -0.2619,0.6655 -0.3585,1.176 -0.0336,0.1774 -0.08,0.191 -0.1012,0.3575z"/>
   <path id="_715970760" class="fil3" d="M12.5549 16.9333l1.4798 0c-0.0691,-0.3261 -0.4138,-1.2508 -0.5631,-1.421 -0.1375,-0.005 0.0433,0.0808 -0.135,-0.0262l-0.1536 0.0967c-0.3092,0.2642 0.0963,0.0762 -0.3511,0.2166 -0.134,0.0421 -0.2268,0.0943 -0.3333,0.1246 -0.1751,0.0498 -0.2598,0.0075 -0.4129,0.0487 0.0968,0.2108 0.2417,0.5625 0.3677,0.7416 0.0871,0.1236 0.0577,0.0634 0.1015,0.219z"/>
   <path id="_715971168" class="fil4" d="M12.1695 12.6702c0.082,0.1631 1.3417,1.3195 1.396,2.2629 -0.9083,0.6883 -0.9082,0.8418 -1.8883,0.7156l-0.3906 -1.936c-0.0735,-0.4008 -0.053,-0.5155 -0.2058,-0.5527 0.054,0.3144 0.3561,2.3871 0.4929,2.558 0.063,0.0787 0.0716,0.0348 0.1621,0.1778 0.044,0.0694 0.0641,0.1223 0.1011,0.1961 0.1196,0.2379 0.3215,0.5825 0.4021,0.8414l0.1552 0 -0.5156 -1.0866c1.0718,0.0465 1.153,-0.4576 1.5301,-0.5098l0.0629 0.1754c0.1493,0.1702 0.494,1.0949 0.5631,1.421l0.128 0c-0.1525,-0.6355 -0.6849,-1.6545 -0.69,-1.7578 -0.029,-0.5828 0.3667,-0.371 -0.2633,-1.3915 -0.2536,-0.4106 -0.4255,-0.5878 -0.7072,-0.9114 -0.1051,-0.1206 -0.1607,-0.1768 -0.2881,-0.2461l-0.0446 0.0437z"/>
   <path id="_715971240" class="fil4" d="M3.145 15.4353l0.0155 0.0087c-0.062,0.2418 -0.1581,0.4701 -0.2229,0.7095 -0.0698,0.2583 -0.1221,0.5028 -0.1671,0.7798l0.1237 0c0.0526,-0.3861 0.3202,-1.4738 0.5259,-1.6942 0.2306,0.1066 0.3336,0.2145 0.6807,0.2766 -0.0396,-0.0577 0.0025,-0.1095 -0.0423,-0.0381l0.3407 0.0139c0.3274,0.0076 0.2937,-0.0351 0.34,-0.091 -0.688,0.0413 -1.2414,-0.1646 -1.5195,-0.5526 0.4267,-0.7608 0.6063,-1.2342 1.2011,-1.8504 0.0965,-0.1 0.1688,-0.1647 0.257,-0.2543 0.065,-0.0661 0.0774,-0.0755 0.1283,-0.1249 0.0414,-0.0401 0.0325,-0.0309 0.0698,-0.0711l0.0461 -0.0568c-0.0461,-0.1064 0.013,0.0284 -0.0341,-0.1212 -0.0116,-0.0368 -0.0322,-0.0894 -0.0355,-0.0987 -0.0034,-0.0094 -0.0355,-0.1185 -0.054,-0.1884 -0.0003,0.0004 -0.1058,0.0386 -0.0695,0.1901 0.0307,0.1283 0.0163,0.0014 0.0938,0.1499 -0.7379,0.7319 -1.0253,0.9991 -1.5296,1.9592 -0.1993,0.3795 -0.3421,0.4802 -0.0059,0.7132 -0.0513,0.2362 -0.0288,0.2374 -0.1422,0.3408z"/>
   <path id="_715972224" class="fil5" d="M2.8942 16.9333l0.1086 0c0.0212,-0.1665 0.0676,-0.1801 0.1012,-0.3575 0.0966,-0.5105 0.1843,-0.6792 0.3585,-1.176 0.1237,0.1313 0.3661,0.1725 0.555,0.2065l0.2348 0.0651c0.3894,0.0975 0.4187,-0.0941 0.8354,-0.0456 -0.088,0.1606 -0.0385,0.0912 -0.0196,0.2161 0.0094,-0.0076 0.0214,-0.0177 0.0275,-0.0235l0.0736 -0.0716c0.0107,-0.0132 0.0458,-0.0666 0.0518,-0.0797 0.0517,-0.113 0.0394,-0.1413 0.0424,-0.2674l-1.1626 0.116c-0.3471,-0.0621 -0.4501,-0.17 -0.6807,-0.2766 -0.2057,0.2204 -0.4733,1.3081 -0.5259,1.6942z"/>
   <path id="_715972992" class="fil2" d="M8.3395 8.0141c-0.4434,0.2827 -0.2248,1.1932 0.2706,0.8747 0.3322,-0.2135 0.2405,-1.2007 -0.2706,-0.8747z"/>
   <path id="_715972536" class="fil5" d="M12.3942 16.9333l0.1607 0c-0.0438,-0.1556 -0.0144,-0.0954 -0.1015,-0.219 -0.126,-0.1791 -0.2709,-0.5308 -0.3677,-0.7416 0.1531,-0.0412 0.2378,0.0011 0.4129,-0.0487 0.1065,-0.0303 0.1993,-0.0825 0.3333,-0.1246 0.4474,-0.1404 0.0419,0.0476 0.3511,-0.2166l0.1536 -0.0967c0.1783,0.107 -0.0025,0.0212 0.135,0.0262l-0.0629 -0.1754c-0.3771,0.0522 -0.4583,0.5563 -1.5301,0.5098l0.5156 1.0866z"/>
  </g>
 </g>
</svg>
