<?xml version="1.0" encoding="UTF-8"?>
<!DOCTYPE svg PUBLIC "-//W3C//DTD SVG 1.1//EN" "http://www.w3.org/Graphics/SVG/1.1/DTD/svg11.dtd">
<!-- Creator: CorelDRAW 2017 -->
<svg xmlns="http://www.w3.org/2000/svg" xml:space="preserve" width="50.7998mm" height="50.7998mm" version="1.1" style="shape-rendering:geometricPrecision; text-rendering:geometricPrecision; image-rendering:optimizeQuality; fill-rule:evenodd; clip-rule:evenodd"
viewBox="0 0 5079.98 5079.98"
 xmlns:xlink="http://www.w3.org/1999/xlink">
 <defs>
  <style type="text/css">
   <![CDATA[
    .fil0 {fill:#2F284E}
   ]]>
  </style>
 </defs>
 <g id="Capa_x0020_1">
  <metadata id="CorelCorpID_0Corel-Layer"/>
  <path class="fil0" d="M1848.14 3930.04l686.9 -4.13 2.92 228.97 218.39 -0.07c33.24,91.88 14.4,561.01 12.63,692.19l-690.03 -0.78 -1.35 -225.78 -226.23 -6.56 -3.23 -683.84zm1160.07 -3466.64l221.24 1.5 -4.69 227.52 -222.69 1.03 6.14 -230.05zm-241.29 -231.33l-228.48 -0.64 -0.75 224.4 -226.38 8.95 -3.91 1380.23 -230.47 1.8 -3.28 228.12 -227.16 4.08 -1.98 229.14 -227.78 -0.64 -2.2 226.01c-108.84,12.44 -603.09,20.25 -689.6,-5.82l-1.12 -221.73 -226.47 0.71 -6.5 -228.63 -228.79 -0.88 -0.3 -222.36 -229.47 -10.87 -2.11 -456.5 -228.75 -0.61 -1.43 914.36 227.4 9.21 5.51 229.51 228.05 0.54 0.64 223.18 229.98 7.96 4.22 229.16 228.37 -0.89 0.63 460.75 227.73 3.9 0.46 219.04 230.71 12.64 1.14 454.49 229.54 6.96 0.05 683.93 -1613.62 5.21 0.32 226.31 4915.27 4.72 6.33 -228.49 -1689.57 -3.33 -5.06 -229.8 -228.55 -0.14 0.74 -1151.54 219.9 -0.22c38.57,-123.47 -1.48,-321.96 16.95,-460.27l225.27 -6.02 0.27 -457.85 230.53 0.03 -0.2 229.02 228.55 -1.02 2.29 -453.29 -456.09 -8.38 -5.64 -689 1147.39 -0.91 8.32 -230.7 -922.04 -1.19 -2.48 -226.07 1379.74 -4.1 6.96 -690.7 -231.8 -4.63 -0.26 -228.54 -224.87 -0.05 -8.35 -227.85 -1841.61 -0.59 -6.19 229.89z"/>
 </g>
</svg>
