<?xml version="1.0" encoding="UTF-8"?>
<!DOCTYPE svg PUBLIC "-//W3C//DTD SVG 1.1//EN" "http://www.w3.org/Graphics/SVG/1.1/DTD/svg11.dtd">
<!-- Creator: CorelDRAW -->
<svg xmlns="http://www.w3.org/2000/svg" xml:space="preserve" width="23.7066mm" height="23.7066mm" style="shape-rendering:geometricPrecision; text-rendering:geometricPrecision; image-rendering:optimizeQuality; fill-rule:evenodd; clip-rule:evenodd"
viewBox="0 0 23.7066 23.7066"
 xmlns:xlink="http://www.w3.org/1999/xlink">
 <defs>
  <style type="text/css">
   <![CDATA[
    .str0 {stroke:black;stroke-width:0.1693}
    .fil0 {fill:black}
    .fil2 {fill:#00CC66}
    .fil1 {fill:#E6FAF0}
   ]]>
  </style>
 </defs>
 <g id="Capa_x0020_1">
  <metadata id="CorelCorpID_0Corel-Layer"/>
  <g id="_579923312">
   <ellipse id="_579927464" class="fil0 str0" cx="11.8534" cy="11.8534" rx="11.8233" ry="11.8001"/>
   <ellipse id="_579927392" class="fil0 str0" cx="11.8534" cy="11.8534" rx="11.3025" ry="11.2804"/>
   <path id="_579926888" class="fil1" d="M1.1645 15.4274c0.31,-0.8728 0.5154,-1.4627 0.9807,-2.1987 0.4523,-0.7159 0.8045,-1.307 1.2842,-1.9038 1.222,-1.52 1.8193,-2.1932 2.1732,-4.1995 0.3227,-1.8282 0.7759,-3.4506 1.7204,-4.6467 0.9633,-1.22 2.8752,-1.8628 4.4263,-1.912 -2.0162,-0.0562 -3.8358,0.5602 -5.3065,1.3433 -2.8799,1.5334 -5.0249,4.4247 -5.6793,7.6763 -0.3021,1.4996 -0.303,3.0624 0.0114,4.5574 0.0472,0.2246 0.2231,1.0983 0.3896,1.2837zm10.2129 2.6037c0.1819,0.1156 -0.0203,0.1129 0.4745,0.3068 0.17,0.0663 0.3733,0.1362 0.3801,0.3265 -0.4423,0.0544 -0.9044,-0.2232 -0.8546,-0.6333zm6.6117 -7.6163c0.1409,-0.2703 0.6474,-0.5314 0.4114,-1.0613 -0.3171,0.0483 -0.1972,0.323 -0.3613,0.6088 -0.3397,0.0696 -0.8171,-0.0634 -1.1027,0.0553 0.0519,0.0934 0.0534,0.1007 0.163,0.1461l0.1721 0.0596c0.0059,-0.0101 0.0236,0.0085 0.0339,0.0155 -0.4126,0.8081 0.6379,2.6462 0.5725,3.8406l0.3012 0.0439c0.0981,-0.1909 0.2298,-0.6734 0.3212,-0.9097 0.109,-0.2832 0.2345,-0.5757 0.3409,-0.8984 0.2726,-0.8268 0.3012,-1.1769 0.1969,-2.0985 -0.4541,0.105 -0.4544,0.2534 -1.0491,0.1981zm-0.2033 -2.0415c0.1426,0.2902 0.8737,0.4517 1.2253,0.317 0.1264,-0.7276 -0.8985,-0.5111 -1.2253,-0.317zm-5.763 1.149c0.8039,-0.459 2.5189,-0.924 2.6621,0.4575l-0.615 -0.0105c-0.0227,-0.2794 0.1963,-0.2101 0.0362,-0.4756 -0.0775,-0.1283 -0.1983,-0.2188 -0.3916,-0.2284 -0.0757,0.2573 -0.1178,0.6408 -0.3356,0.7322 -0.366,0.1534 -0.5213,-0.1405 -0.9023,-0.0244 0.0775,0.3245 0.2876,0.094 0.4052,0.3984 -0.4588,0.2098 -0.803,-0.4214 -1.0414,-0.7078l0.1824 -0.1414zm-0.2646 -1.2668c0.2413,-0.4386 1.092,-0.5576 1.7562,-0.47 0.6286,0.0829 1.215,0.3 1.693,0.559 0.2045,0.1106 0.211,0.0946 0.2381,0.3312 0.0521,0.4578 0.0724,1.1431 -0.6245,0.8975 -0.2254,-0.0797 -0.5307,-0.3943 -0.6424,-0.5096 -0.3017,-0.3116 -0.4054,-0.2077 -0.7222,-0.3733 0.5799,-0.3423 1.2783,0.3017 1.6024,0.1329 -0.1597,-0.1274 -1.2243,-0.4635 -1.5111,-0.5412 -0.7649,-0.2078 -1.0431,-0.1994 -1.7895,-0.0265zm-1.2495 -3.2627c0.3292,0.1872 0.8864,0.3391 1.073,0.6446 -0.3628,0.2419 -0.4989,0.303 -0.7193,0.7358 -0.0997,0.1949 -0.3719,0.8 -0.4939,0.8844 -0.016,-0.5003 -0.003,-0.7902 -0.0902,-1.2869 -0.0752,-0.4267 -0.165,-0.766 -0.1547,-1.2261 0.1511,0.0731 0.2163,0.1522 0.3851,0.2482zm7.6782 -0.114c0.0872,-0.2253 0.2145,-0.3886 0.2934,-0.6211 0.3598,0.0108 0.417,0.1217 0.5311,0.3658 0.0468,-0.066 0.0468,0.0676 0.0356,-0.1245 -0.002,-0.037 -0.0224,-0.0789 -0.0477,-0.1188 -0.1097,-0.1717 -0.3964,-0.3646 -0.5985,-0.4176 -0.3304,0.6315 -0.6486,0.9534 -1.2987,1.261 -1.6501,0.7811 -4.5309,0.335 -6.1994,-0.3155 -0.4105,-0.16 -0.7337,-0.3652 -1.0888,-0.5104 -0.2281,2.336 -0.5761,5.0466 -0.2022,7.4126 0.0616,0.3888 0.1265,0.7383 0.2258,1.1056 0.0722,0.2657 0.3035,0.7866 0.2578,0.9635 -0.2976,-0.1039 -0.0012,-0.3396 -0.3763,-0.4193 -0.1105,1.5197 0.5295,1.7656 0.4903,2.1265 -0.249,0.007 -0.1234,-0.0856 -0.3742,-0.1115 0.03,0.3294 0.1523,0.5931 0.1518,1.0011 -0.0006,0.8527 -0.1492,1.3585 -0.5178,2.086 -0.2325,0.4584 -0.8628,1.3917 -0.8861,1.4528 0.6309,0.4077 0.8622,0.2305 1.8353,1.3035l0.4364 0.5404c0.0035,-0.0078 0.0165,0.0146 0.0253,0.021 0.1913,-0.2337 0.3634,-0.5157 0.5508,-0.7834 0.1968,-0.2812 0.3515,-0.4945 0.5764,-0.7506 0.8227,-0.9388 1.2659,-0.8943 1.471,-1.1713 -0.0586,-0.2599 -0.1742,-0.1019 -0.2729,-0.4124 0.2779,0.0748 0.7815,0.1985 1.0196,-0.03 -0.2534,-0.1982 -0.5124,0.0361 -0.8109,-0.1452 0.2413,-0.585 2.8259,0.1845 3.1819,-0.4299 -0.0858,-0.3457 -0.404,-0.2671 -0.7426,-0.1946 -0.8154,0.1746 -1.4528,0.1583 -2.2157,-0.1342 0.0192,-0.209 0.2086,-0.0742 0.0236,-0.19 -0.1468,-0.0917 -0.3869,-0.1447 -0.8696,-0.4645 -1.0709,-0.7098 -1.9472,-1.951 -1.9257,-3.4009 0.1606,0.0233 0.1768,0.0597 0.3571,0.0518 0.069,0.376 0.2137,0.9101 0.5443,1.1042 0.1473,0.0867 0.2357,0.0614 0.3828,0.1775l-0.1073 0.3393c0.3846,-0.0687 0.2965,0.0509 0.6168,0.1345l-0.1359 0.1507c-0.0775,0.1228 -0.0421,0.0087 -0.0554,0.1816 0.1695,0.0847 0.2287,0.0888 0.3978,0.0006 -0.048,0.3216 0.0434,0.4286 0.1241,0.7078 0.0601,0.2077 0.0866,0.1912 0.5508,0.3771 0.8813,0.3527 2.2981,0.4604 3.036,-0.0436 0.1954,-0.1333 0.2658,-0.3574 0.3336,-0.5981 0.0722,-0.2564 0.2184,-0.523 0.2581,-0.6763 -0.419,-0.2384 -0.9927,-0.1889 -1.5108,-0.1889 0.0746,-0.4487 0.6683,-0.3853 0.9698,-0.6519 -0.4756,-0.3175 -1.3991,-0.0486 -2.0763,-0.1769l-0.3598 -0.1327c0.32,-0.1848 1.7368,-0.4447 2.2637,-0.4465 0.2679,-0.0008 0.5708,0.092 0.7771,0.0801 -0.018,-0.2448 -0.1308,-0.3801 -0.3424,-0.4659 -0.379,-0.1531 -0.3975,-0.0149 -0.6598,0.0785 -0.1014,-0.2761 -0.0581,-0.6079 -0.2231,-0.7945 -0.2169,-0.0832 -0.577,0.023 -0.8481,-0.0744 -0.2431,-0.0874 -0.3132,-0.2841 -0.2749,-0.5716 0.14,0.0422 0.2024,0.2738 0.4355,0.3262 0.3112,0.0699 0.3312,-0.1452 0.4264,-0.3466 0.7246,0.0143 0.1082,0.7817 1.5462,0.0914 -0.0215,-0.1598 -0.1948,-0.5096 -0.2617,-0.7063 -0.3698,-1.0846 -0.7255,-2.8861 0.3171,-3.7082 0.4812,-0.3795 0.8269,-0.3079 1.497,-0.3632 0.2566,-0.5189 0.3371,-0.6798 0.3067,-1.417 -0.0194,-0.4659 -0.1028,-1.0968 -0.3406,-1.3884 -0.2269,-0.0766 -0.4214,-0.0123 -0.6238,0.0556zm-6.8911 18.2478c1.7363,0.0739 3.1654,-0.2028 4.6141,-0.738 0.6164,-0.2276 1.2665,-0.5567 1.7843,-0.8673 0.2596,-0.1554 1.3999,-0.8841 1.5199,-1.1707 -0.168,-0.0815 -0.2932,-0.2061 -0.4744,-0.3202 -1.3199,-0.8317 -3.0703,-0.9341 -4.4833,-0.3536 -1.3858,0.5693 -2.5395,2.1292 -2.9606,3.4498zm5.7551 -21.3065c0.0957,0.1301 0.3185,0.2561 0.4402,0.3475 0.1585,0.119 0.269,0.2212 0.4046,0.3478 2.0807,1.9428 1.6337,3.2757 2.0197,5.3728 0.4898,2.662 1.5562,4.3187 0.5086,7.3835 -0.2643,0.7735 -0.6096,1.3611 -0.9084,2.0584 -0.0999,0.2328 0.0061,0.3038 0.1137,0.5282l0.6733 1.478c0.473,-0.4632 0.994,-1.2225 1.393,-1.9111 2.3191,-4.0024 1.8685,-9.0102 -0.9907,-12.6314 -0.514,-0.651 -1.0108,-1.1286 -1.644,-1.6743 -0.3086,-0.266 -1.5456,-1.1751 -2.01,-1.2994zm0.3321 13.5339c0.061,-0.064 0.287,-0.4464 0.2843,-0.5599 -0.0065,-0.2709 -0.2997,-0.291 -0.5307,-0.2491 -0.0171,0.4103 -0.0907,0.3286 -0.1948,0.5599 0.1415,0.1717 0.1824,0.1947 0.4412,0.2491zm1.0979 -6.3224c-0.0789,-0.3463 -0.8463,-0.2101 -1.0128,-0.0789 0.3516,0.1004 0.6627,0.028 1.0128,0.0789z"/>
   <path id="_579926096" class="fil2" d="M17.0492 1.8574c0.0958,0.1301 0.3185,0.256 0.4402,0.3474 0.1586,0.119 0.2691,0.2212 0.4046,0.3478 2.0808,1.9429 1.6337,3.2757 2.0198,5.3728 0.4897,2.662 1.5561,4.3188 0.5086,7.3835 -0.2644,0.7735 -0.6097,1.3611 -0.9085,2.0584 -0.0999,0.2328 0.0062,0.3038 0.1137,0.5282l0.6733 1.4781c0.473,-0.4633 0.994,-1.2226 1.393,-1.9112 2.3191,-4.0023 1.8686,-9.0102 -0.9907,-12.6314 -0.5139,-0.651 -1.0108,-1.1286 -1.644,-1.6742 -0.3085,-0.266 -1.5456,-1.1752 -2.01,-1.2994z"/>
   <path id="_579923216" class="fil2" d="M1.1628 15.4646c0.3101,-0.8728 0.5154,-1.4627 0.9807,-2.1987 0.4523,-0.7159 0.8045,-1.3069 1.2842,-1.9038 1.222,-1.52 1.8194,-2.1932 2.1733,-4.1995 0.3227,-1.8281 0.7759,-3.4506 1.7203,-4.6467 0.9633,-1.2199 2.8752,-1.8628 4.4263,-1.912 -2.0161,-0.0561 -3.8358,0.5603 -5.3065,1.3434 -2.8799,1.5334 -5.0248,4.4247 -5.6793,7.6762 -0.3021,1.4997 -0.303,3.0624 0.0115,4.5574 0.0471,0.2247 0.223,1.0983 0.3895,1.2837z"/>
  </g>
 </g>
</svg>
