<?xml version="1.0" encoding="UTF-8"?>
<!DOCTYPE svg PUBLIC "-//W3C//DTD SVG 1.1//EN" "http://www.w3.org/Graphics/SVG/1.1/DTD/svg11.dtd">
<!-- Creator: CorelDRAW 2017 -->
<svg xmlns="http://www.w3.org/2000/svg" xml:space="preserve" width="43.387mm" height="43.387mm" version="1.1" style="shape-rendering:geometricPrecision; text-rendering:geometricPrecision; image-rendering:optimizeQuality; fill-rule:evenodd; clip-rule:evenodd"
viewBox="0 0 4338.7 4338.7"
 xmlns:xlink="http://www.w3.org/1999/xlink">
 <defs>
  <style type="text/css">
   <![CDATA[
    .fil2 {fill:#9D9E9E}
    .fil0 {fill:#2B2A29}
    .fil3 {fill:#FFED00}
    .fil4 {fill:#EF7F1A}
    .fil1 {fill:#E31E24}
   ]]>
  </style>
 </defs>
 <g id="Capa_x0020_1">
  <metadata id="CorelCorpID_0Corel-Layer"/>
  <rect class="fil0" width="4338.7" height="4338.7"/>
  <path class="fil1" d="M3363.47 933.67c92.79,61.81 233.55,74.05 344.26,41.42 41.72,-12.3 66.04,-28.58 98.96,-41.84 -3.61,-14.13 -146.74,-260.22 -157.13,-271.65 -71.92,24.17 -62.9,20.72 -132.2,0 -8.03,7.19 -153.28,253.94 -153.89,272.07z"/>
  <path class="fil1" d="M3187.25 325.22c-12.83,36.33 -26.75,57.07 -37.03,96.79 -10.48,40.55 -15.12,74.83 -15.11,121.26l305.49 -0.03c16.58,-5.01 1.43,-25.81 26.92,-68.95 15.9,-26.92 28.5,-29.37 45.91,-48.1 -13,-44.65 -144.55,-237.63 -147.4,-265.47l-10.72 -3.55c-55.83,30.34 -119.32,91.51 -153.19,145.69l-14.87 22.36z"/>
  <path class="fil1" d="M3784.57 188.31c-2.32,27.31 -116.3,193.3 -131.85,237.88 23.52,23.77 47.13,33.13 59.45,78.39l9.89 37.85 309.88 0.85c-2.39,-90.64 -14.3,-133.89 -49.41,-209.39 -16.73,-27.42 -25.33,-43.91 -44.02,-68.5 -15.88,-20.88 -42.32,-39.47 -53.31,-59.1 -9.37,-3.01 -2.66,1.18 -12.88,-7.16 -0.88,-0.72 -3.27,-3.1 -3.98,-3.85 -9.03,-9.46 -1.28,-0.81 -4.59,-5.99 -24.42,-9.51 -34.27,-28.12 -56.4,-31.51 -3.72,5.04 -6.24,9.46 -9.75,15.18l-13.03 15.35z"/>
  <path class="fil1" d="M3494.87 558.37c9.01,34.49 23.56,54.3 53.42,67.2 63.27,27.35 140.08,-26.25 122.02,-104.41 -8.17,-35.36 -26.97,-47.59 -54.89,-62.78 -75.03,-13.89 -123.4,21.52 -120.55,99.99z"/>
  <rect class="fil2" y="1157.32" width="4338.7" height="3181.38"/>
  <rect class="fil3" x="0.04" y="3630.73" width="4338.62" height="708.09"/>
  <rect class="fil1" x="0.04" y="2832.25" width="4338.62" height="798.48"/>
  <rect class="fil1" x="0.04" y="1906.79" width="4338.62" height="1723.95"/>
  <rect class="fil4" x="0.04" y="2832.25" width="4338.62" height="798.48"/>
 </g>
</svg>
