<?xml version="1.0" encoding="UTF-8"?>
<!DOCTYPE svg PUBLIC "-//W3C//DTD SVG 1.1//EN" "http://www.w3.org/Graphics/SVG/1.1/DTD/svg11.dtd">
<!-- Creator: CorelDRAW 2017 -->
<svg xmlns="http://www.w3.org/2000/svg" xml:space="preserve" width="43.387mm" height="43.387mm" version="1.1" style="shape-rendering:geometricPrecision; text-rendering:geometricPrecision; image-rendering:optimizeQuality; fill-rule:evenodd; clip-rule:evenodd"
viewBox="0 0 4338.7 4338.7"
 xmlns:xlink="http://www.w3.org/1999/xlink">
 <defs>
  <style type="text/css">
   <![CDATA[
    .fil7 {fill:#FEFEFE}
    .fil4 {fill:#9D9E9E}
    .fil1 {fill:#2B2A29}
    .fil2 {fill:#2B2A29}
    .fil5 {fill:#FFED00}
    .fil3 {fill:#EF7F1A}
    .fil0 {fill:#E31E24}
    .fil6 {fill:#E31E24}
   ]]>
  </style>
 </defs>
 <g id="Capa_x0020_1">
  <metadata id="CorelCorpID_0Corel-Layer"/>
  <rect class="fil0" width="4338.7" height="4338.7"/>
  <rect class="fil1" y="2258.64" width="4338.7" height="2080.06"/>
  <path class="fil2" d="M3248.36 1196.91c120.73,80.42 303.88,96.35 447.93,53.88 54.28,-16 85.93,-37.18 128.76,-54.43 -4.69,-18.39 -190.93,-338.58 -204.44,-353.45 -93.59,31.44 -81.85,26.95 -172.02,-0.01 -10.45,9.36 -199.43,330.42 -200.23,354.01z"/>
  <path class="fil2" d="M3019.07 405.22c-16.69,47.28 -34.8,74.26 -48.17,125.95 -13.65,52.75 -19.68,97.36 -19.67,157.77l397.48 -0.04c21.58,-6.52 1.87,-33.59 35.03,-89.71 20.7,-35.03 37.09,-38.22 59.74,-62.59 -16.92,-58.09 -188.09,-309.19 -191.79,-345.41l-13.95 -4.62c-72.64,39.47 -155.25,119.06 -199.32,189.57l-19.35 29.08z"/>
  <path class="fil2" d="M3796.27 227.09c-3.02,35.53 -151.32,251.51 -171.56,309.51 30.61,30.93 61.32,43.11 77.35,102l12.87 49.25 403.2 1.11c-3.1,-117.94 -18.6,-174.21 -64.29,-272.45 -21.76,-35.68 -32.96,-57.14 -57.28,-89.13 -20.66,-27.17 -55.05,-51.35 -69.36,-76.9 -12.19,-3.91 -3.46,1.54 -16.76,-9.32 -1.14,-0.94 -4.25,-4.02 -5.18,-5 -11.75,-12.31 -1.65,-1.06 -5.97,-7.8 -31.77,-12.38 -44.59,-36.58 -73.38,-40.99 -4.84,6.55 -8.11,12.3 -12.69,19.74l-16.95 19.98z"/>
  <path class="fil2" d="M3419.33 708.59c11.72,44.87 30.65,70.65 69.5,87.44 82.33,35.58 182.27,-34.16 158.77,-135.86 -10.63,-46 -35.09,-61.93 -71.41,-81.68 -97.63,-18.08 -160.57,28 -156.86,130.1z"/>
  <rect class="fil3" x="0.04" y="1515.25" width="4338.62" height="253.39"/>
  <rect class="fil4" x="-1.22" y="1764.55" width="4338.62" height="253.39"/>
  <rect class="fil5" x="0.04" y="2005.25" width="4338.62" height="253.39"/>
  <rect class="fil6" x="0.04" y="2250.16" width="4338.62" height="253.39"/>
  <rect class="fil3" x="0.04" y="3255.25" width="4338.62" height="253.39"/>
  <rect class="fil4" x="-1.22" y="3504.55" width="4338.62" height="253.39"/>
  <rect class="fil5" x="0.04" y="3745.25" width="4338.62" height="253.39"/>
  <rect class="fil6" x="0.04" y="3990.16" width="4338.62" height="348.54"/>
  <rect class="fil7" x="0.04" y="2500.16" width="4338.62" height="253.39"/>
  <rect class="fil7" x="0.04" y="3020.16" width="4338.62" height="253.39"/>
 </g>
</svg>
