<?xml version="1.0" encoding="UTF-8"?>
<!DOCTYPE svg PUBLIC "-//W3C//DTD SVG 1.1//EN" "http://www.w3.org/Graphics/SVG/1.1/DTD/svg11.dtd">
<!-- Creator: CorelDRAW 2017 -->
<svg xmlns="http://www.w3.org/2000/svg" xml:space="preserve" width="43.387mm" height="43.387mm" version="1.1" style="shape-rendering:geometricPrecision; text-rendering:geometricPrecision; image-rendering:optimizeQuality; fill-rule:evenodd; clip-rule:evenodd"
viewBox="0 0 4338.7 4338.7"
 xmlns:xlink="http://www.w3.org/1999/xlink">
 <defs>
  <style type="text/css">
   <![CDATA[
    .fil1 {fill:#2B2A29}
    .fil0 {fill:#FFED00}
    .fil2 {fill:#FFED00}
    .fil3 {fill:#E31E24}
   ]]>
  </style>
 </defs>
 <g id="Capa_x0020_1">
  <metadata id="CorelCorpID_0Corel-Layer"/>
  <rect class="fil0" width="4338.7" height="4338.7"/>
  <rect class="fil1" x="0.04" y="11.64" width="4338.62" height="4327.06"/>
  <rect class="fil2" x="0.04" y="-0.09" width="4338.62" height="1345.34"/>
  <path class="fil1" d="M3244.41 1076.75c106.95,71.23 269.17,85.34 396.77,47.72 48.07,-14.17 76.11,-32.93 114.04,-48.21 -4.15,-16.29 -169.11,-299.9 -181.08,-313.07 -82.9,27.85 -72.5,23.87 -152.36,-0.01 -9.26,8.29 -176.66,292.67 -177.37,313.57z"/>
  <path class="fil1" d="M3041.32 375.5c-14.79,41.88 -30.83,65.77 -42.67,111.56 -12.09,46.72 -17.43,86.24 -17.42,139.75l352.08 -0.03c19.1,-5.78 1.65,-29.76 31.02,-79.47 18.33,-31.03 32.86,-33.86 52.92,-55.44 -14.99,-51.45 -166.6,-273.86 -169.89,-305.95l-12.35 -4.09c-64.34,34.96 -137.52,105.46 -176.55,167.91l-17.14 25.76z"/>
  <path class="fil1" d="M3729.73 217.72c-2.67,31.46 -134.03,222.77 -151.95,274.15 27.1,27.39 54.31,38.19 68.51,90.34l11.4 43.63 357.14 0.98c-2.75,-104.46 -16.48,-154.31 -56.95,-241.32 -19.28,-31.61 -29.19,-50.61 -50.73,-78.95 -18.31,-24.07 -48.77,-45.48 -61.44,-68.11 -10.8,-3.47 -3.07,1.36 -14.84,-8.26 -1.02,-0.83 -3.77,-3.56 -4.6,-4.43 -10.4,-10.9 -1.46,-0.94 -5.28,-6.91 -28.14,-10.96 -39.5,-32.4 -65,-36.31 -4.29,5.81 -7.19,10.9 -11.24,17.49l-15.02 17.7z"/>
  <path class="fil3" d="M3395.86 644.21c10.38,39.74 27.15,62.58 61.56,77.45 72.92,31.52 161.45,-30.25 140.63,-120.33 -9.41,-40.75 -31.08,-54.86 -63.26,-72.35 -86.47,-16.02 -142.22,24.79 -138.93,115.23z"/>
  <rect class="fil3" x="0.04" y="1585.25" width="4338.62" height="253.39"/>
  <rect class="fil2" x="-1.22" y="2074.55" width="4338.62" height="253.39"/>
  <rect class="fil3" x="0.04" y="2495.25" width="4338.62" height="253.39"/>
  <rect class="fil2" x="-1.22" y="2984.55" width="4338.62" height="253.39"/>
  <rect class="fil3" x="0.04" y="3485.25" width="4338.62" height="253.39"/>
 </g>
</svg>
