<?xml version="1.0" encoding="UTF-8"?>
<!DOCTYPE svg PUBLIC "-//W3C//DTD SVG 1.1//EN" "http://www.w3.org/Graphics/SVG/1.1/DTD/svg11.dtd">
<!-- Creator: CorelDRAW -->
<svg xmlns="http://www.w3.org/2000/svg" xml:space="preserve" width="16.9332mm" height="16.9332mm" style="shape-rendering:geometricPrecision; text-rendering:geometricPrecision; image-rendering:optimizeQuality; fill-rule:evenodd; clip-rule:evenodd"
viewBox="0 0 16.9332 16.9332"
 xmlns:xlink="http://www.w3.org/1999/xlink">
 <defs>
  <style type="text/css">
   <![CDATA[
    .fil0 {fill:black}
    .fil3 {fill:#7B7B7B}
    .fil2 {fill:#B9B9B9}
    .fil1 {fill:#F7F7F7}
   ]]>
  </style>
 </defs>
 <g id="Capa_x0020_1">
  <metadata id="CorelCorpID_0Corel-Layer"/>
  <g id="_710534648">
   <path id="_713110496" class="fil0" d="M15.9024 14.8677l0.215 1.0108c-0.3858,0.4585 -1.1355,0.2896 -1.6903,0.2896l-12.8907 0.0016 -0.7474 -0.2864c-0.1235,-1.3259 0.1648,-1.0538 2.9864,-1.0538 1.72,0 11.2594,-0.0831 12.127,0.0382zm-8.3616 -2.2943c0.0611,-0.99 1.8512,-0.9751 1.8401,0.0339 0.1781,0.2067 0.1237,1.5315 0.067,1.8728l-1.9895 0.0255c-0.0321,-0.2844 -0.0857,-1.8598 0.0824,-1.9322zm-2.1226 -4.4203l6.0726 -0.0152 0.2788 1.9872 -6.6297 0.0022 0.2783 -1.9742zm6.0055 -3.3558c0.1637,0.2734 0.0931,0.9736 0.0506,1.3303 -0.3955,0.0885 -2.5779,0.1037 -2.8474,-0.0346l0.0024 -1.2889 2.7944 -0.0068zm-5.9767 -0.0089l2.8401 0 -0.0006 1.3386 -2.8395 0 0 -1.3386zm-0.367 -0.0721c0.16,0.2888 0.1149,1.0639 0.0305,1.4221l-0.2674 0.0187c-0.5749,0.0826 -0.7719,0.5477 -0.7364,1.0924l0.9716 0.9019 -0.9182 6.3307c-2.0428,0.1065 -4.0479,-0.5614 -3.6965,1.3752 0.1084,0.598 0.658,0.6241 1.1407,0.6225l13.7048 0.0001c1.8571,0.0047 1.0893,-1.7532 0.7665,-1.8576l-3.3389 -0.1377 -0.8787 -6.3399c0.6605,-0.0958 0.9565,-0.316 0.9508,-1.0339l-0.9595 -1.0118 -0.038 -1.3369c0.6402,-0.4729 0.7365,-0.5768 0.452,-1.4561 -0.9076,-2.8059 -4.6033,-3.9999 -6.7594,-1.4533 -0.53,0.6259 -1.6731,2.4186 -0.4239,2.8636z"/>
   <path id="_376237512" class="fil1" d="M15.9024 14.8677c-0.8676,-0.1213 -10.407,-0.0382 -12.127,-0.0382 -2.8216,0 -3.1099,-0.2721 -2.9864,1.0538l0.7474 0.2864 12.8907 -0.0016c0.5548,0 1.3045,0.1689 1.6903,-0.2896l-0.215 -1.0108z"/>
   <polygon id="_376237392" class="fil1" points="5.1399,10.1273 11.7696,10.1251 11.4908,8.1379 5.4182,8.1531 "/>
   <path id="_714014432" class="fil1" d="M7.5408 12.5734c0.0292,0.4726 -0.0314,1.3215 -0.0424,1.8628l1.9056 0c0,-0.6069 -0.0208,-1.2463 -0.0231,-1.8289 0.0111,-1.009 -1.779,-1.0239 -1.8401,-0.0339z"/>
   <polygon id="_712852616" class="fil1" points="5.447,6.127 8.2865,6.127 8.2871,4.7884 5.447,4.7884 "/>
   <path id="_376240632" class="fil0" d="M2.511 5.7456c-0.4423,0.1589 -1.0272,0.8373 -1.3571,1.1858 -0.6648,0.7022 -0.0849,1.5175 0.6153,1.2271 0.1963,-0.0814 1.0705,-1.0154 1.2878,-1.2223 0.6713,-0.6388 0.0444,-1.4028 -0.546,-1.1906z"/>
   <path id="_714014216" class="fil0" d="M1.2898 1.7427c-0.9293,0.4271 -0.2479,1.0936 0.1696,1.5108 0.348,0.3479 0.9363,1.1586 1.5087,0.882 0.85,-0.4109 0.1355,-1.1396 -0.2186,-1.4937 -0.324,-0.3238 -0.9381,-1.1388 -1.4597,-0.8991z"/>
   <path id="_712852472" class="fil0" d="M15.1981 1.7427c-0.437,0.2027 -1.0181,0.831 -1.3486,1.1951 -0.6335,0.6978 -0.0386,1.4613 0.6058,1.2189 0.2168,-0.0816 1.0812,-1 1.296,-1.2166 0.7533,-0.7593 -0.0423,-1.4344 -0.5532,-1.1974z"/>
   <polygon id="_712170072" class="fil1" points="8.6269,6.093 11.4233,6.0816 11.4237,4.7973 8.6293,4.8041 "/>
   <path id="_712170000" class="fil0" d="M13.9176 5.8387c-0.8024,0.4726 -0.1048,1.0326 0.2884,1.426 0.392,0.3922 0.8917,1.1747 1.5186,0.8726 0.3026,-0.1458 0.428,-0.5264 0.2933,-0.8545 -0.0552,-0.1348 -0.4724,-0.5131 -0.5894,-0.6301 -0.4123,-0.4123 -0.8967,-1.1758 -1.5109,-0.814z"/>
   <path id="_710535032" class="fil2" d="M9.3809 12.6073c0.0023,0.5826 0.0231,1.222 0.0231,1.8289l-1.9056 0c0.011,-0.5413 0.0716,-1.3902 0.0424,-1.8628 -0.1681,0.0724 -0.1145,1.6478 -0.0824,1.9322l1.9895 -0.0255c0.0567,-0.3413 0.1111,-1.6661 -0.067,-1.8728z"/>
   <path id="_710534888" class="fil3" d="M8.6269 6.093c0.2695,0.1383 2.4519,0.1231 2.8474,0.0346 0.0425,-0.3567 0.1131,-1.0569 -0.0506,-1.3303l-0.0004 1.2843 -2.7964 0.0114z"/>
   <path id="_710534576" class="fil3" d="M4.8431 6.1571l0.2674 -0.0187c0.0844,-0.3582 0.1295,-1.1333 -0.0305,-1.4221l0 1.2418c-0.1185,0.2391 0.0676,0.029 -0.2369,0.199z"/>
  </g>
 </g>
</svg>
