<?xml version="1.0" encoding="UTF-8"?>
<!DOCTYPE svg PUBLIC "-//W3C//DTD SVG 1.1//EN" "http://www.w3.org/Graphics/SVG/1.1/DTD/svg11.dtd">
<!-- Creator: CorelDRAW 2017 -->
<svg xmlns="http://www.w3.org/2000/svg" xml:space="preserve" width="35.6446mm" height="32.9352mm" version="1.1" style="shape-rendering:geometricPrecision; text-rendering:geometricPrecision; image-rendering:optimizeQuality; fill-rule:evenodd; clip-rule:evenodd"
viewBox="0 0 3564.46 3293.52"
 xmlns:xlink="http://www.w3.org/1999/xlink">
 <defs>
  <style type="text/css">
   <![CDATA[
    .fil0 {fill:black}
   ]]>
  </style>
 </defs>
 <g id="Capa_x0020_1">
  <metadata id="CorelCorpID_0Corel-Layer"/>
  <path class="fil0" d="M2334.31 2251.13c0.04,27.69 3.2,23.04 -15.37,46.53l2.19 6.87c-4.24,56.94 -24.95,84.43 -25.47,156.95 33.55,27.5 15.87,11.8 26.68,34.2 21.76,45.09 13.42,16.85 40.72,38.24 6.41,5.03 29.37,33.59 34.75,39.17 1.75,1.82 7.01,7.2 8.88,8.96l9.96 8.17c14.23,14.05 4.69,-16.13 15.03,23.23 9.52,-10.99 17.84,-1.2 -7.96,-39.79 -24.74,-37.02 -0.19,-1.48 -29.75,-30.62l-61.67 -64.58c19.37,-35.98 21.83,-15.22 33.8,-49.36 46.22,-18.88 22.37,-18.14 40.23,-52.15 -41.47,14.32 0.41,-11.41 -29.05,17.77l-17.32 18.7c-0.72,-1.47 -3.45,2.72 -5.34,3.8l-4.93 9.39c3.29,16.84 8.88,15.86 -5.41,12.88 3.93,18.24 7.09,15.17 -10.28,8.25l-10.86 -1.48 -1.72 -50.48 8.09 -52.63 8.29 -27.31c-14.71,-41.96 -4.48,-14.52 6.25,-21.48 -2.37,-26.26 9.22,-35.73 3.87,-53.26l-13.61 10.03zm-1268.2 -395.33l9.87 37.8 2.35 8.56c16.35,24.77 40.08,119.31 58.35,151.27 26.24,-31.08 -10.14,-8.29 12.85,-51.5 -7.04,-43.96 -42.36,-82.71 -52.93,-140.42l-11.05 -28.37 -2.63 -23.4c-16.48,9.76 -35.31,-23.86 -16.81,46.06zm901.23 -220.87c11.85,8.17 -1.44,8.02 33.32,14.88 0.31,0.06 26.79,-0.83 28.16,-0.86 -10.89,3.62 -34.35,7.56 -53.6,12.56 40.2,5.15 68.42,-13.93 100.05,6.91 34.88,4.29 40.01,4.08 62.42,27.3 48.66,-2.03 15.47,4.91 27.56,-19.07 -38.28,-30 -38.92,-17.69 -81.38,-37.59l-116.53 -4.13zm-501.16 -422.28l-3.54 24.69c14.07,10.59 5.91,-5.3 8.85,27.51 1.86,20.69 1.22,28.88 5.33,52.25l8.05 36.83 17.23 38.16c3.95,-23.11 -6.55,-28.47 -3.75,-66.89l6.3 -14.9c-12.04,-13.29 -4.73,2.65 -10.92,-18.74l-16.79 -83.06c6.62,16.61 5.93,10.28 -10.76,4.15zm953.02 1434.48l-3.19 6.31 10.63 19.19 2.14 14.56 6.43 9.78c20.75,1.8 10.29,-8.3 7.43,27.24 33.84,-9.17 14.85,5 33.15,-16.9 -25.77,-50.94 -28.13,-38.42 -53.83,-79.82l-2.76 19.64zm-903.29 -702.06l-5.92 5.8 15.6 1.51c-0.79,-12.24 2.39,-9.76 -9.68,-7.31 -2.85,-28.96 14.64,-9.46 10.85,-74.89 -21.86,-20.96 -21.96,-19.34 -59.48,-28.65 1.55,2.45 3.34,3.36 4.3,7.57l29.39 28.1c1.41,0.81 4.06,1.8 5.32,2.47 1.26,0.66 4.11,2.19 5.12,2.72 0.99,0.51 3.41,1.68 4.96,2.78 -1.9,66.58 -3.8,-2.22 -21.91,50.86 10.52,9.43 -9.15,4.79 21.45,9.04zm1410.61 -790.63c-22.63,-12.11 -32.26,-17.3 -53.59,-24 0.85,18.5 -0.91,8.51 1.98,30.06 4.26,31.71 -8.27,8.03 7.75,31.38l43.86 -37.44zm-1805.14 1280.28c12.66,-1.28 8.08,-3.29 8.08,11.81l0.34 1.31c23.08,-0.21 16.38,5.55 20.18,-17.17l-13.04 -12.24c-12.71,1.65 -9.1,3.7 -6.64,-9.88 -16.69,2.81 -12.37,5.04 -6.72,-11.61l-31.56 -14.73c1.26,2.3 2.88,5.21 3.78,6.91 0.87,1.62 2.6,4.64 3.62,6.6l21.96 39zm95.35 -843.07l-7.9 8.16c-34.85,41.02 33.64,-29.51 -9.05,9.39 -0.97,0.88 -4.35,5.14 -5.09,3.67 -0.74,-1.43 -3.55,2.12 -5.33,3.17l-7.84 41.75c26.29,-14.89 18.29,-12.73 32.01,-38.22 -0.78,-15.71 -4.3,-11.89 11.74,-10.2l4.78 -11.79c-3.98,-17.13 -9.33,-16.66 6.51,-10.85l-19.83 4.92zm161.47 703.9c14.84,-2.9 11.58,-5.96 9.88,9.03 32.37,-13.39 5.7,9.97 25.29,-18.9 -17.87,-11.07 -6.02,5.32 -13.8,-27.54l3.82 1.04 -24.71 -5.79 -0.48 42.16zm-385.61 -2266.92c15.08,9.41 14.79,7.07 26.81,0.37 -15,-5.55 -15.15,-9.26 -26.81,-0.37zm130.99 2368.31c-5.65,16.65 -9.97,14.42 6.72,11.61 -2.46,13.58 -6.07,11.53 6.64,9.88l13.04 12.24c-3.8,22.72 2.9,16.96 -20.18,17.17 1.51,1.69 4.02,1.8 4.82,4.8l160.99 129.77 13.89 7.12c0,-16.22 3.18,-11.78 -13.89,-7.12l-8.67 -20.71c40.78,15.98 70.31,40 115.54,59.05l87.52 36.52c12.42,3.58 20.33,6.78 36.56,11.22 2.14,-1.24 5.49,-5.25 6.63,-3.37l21.12 -11.02c-2.89,16.01 -6.54,14.11 8.49,8.51 2.52,14.38 -19.81,10.12 17.71,12.38 -7.83,-14.46 13.86,-12.51 -17.71,-12.38 5.86,-15.9 8.07,-12.47 -8.49,-8.51l-217.82 -95.02c-68.39,-35.09 -144.93,-74.33 -186.51,-128.41l-13.04 -12.24c4.24,-14.71 7.87,-12.62 -6.64,-9.88 2.39,-15.03 6.71,-12.95 -6.72,-11.61 -15.52,-37.1 -29.56,-30.5 -30.21,-87.83 -0.58,-50.51 15.72,-70.74 21.19,-107.12l9.81 -14.9c1.45,-1.53 4.07,-5.7 4.5,-4.47 0.42,1.23 3.36,-3.81 3.85,-5.01 5.91,-14.3 3.52,-7.18 5.23,-20.11l14.03 -28.26c14.63,3.41 12.2,6.61 9.01,-7.8 16.12,5.07 14.8,10.08 11.59,-5.39 10.96,-8.09 6.26,8.6 13.23,-21.38 6.24,-26.83 -14.52,-73.22 -36.28,-92.74 -22.99,43.21 13.39,20.42 -12.85,51.5 -18.27,-31.96 -42,-126.5 -58.35,-151.27 -2.7,33.72 4.28,15 -8.12,34.43 8.2,17.66 13.86,11.8 16.37,25.03 0.16,0.84 0.13,3.25 0.17,4.1 1.69,31.8 -9.84,54.15 39.84,108.17 10.6,11.54 3.65,-2.76 14.65,17.81l-23.78 12.27 -0.36 6.08 -15.68 1.62c8.49,7.43 -0.08,18.61 15.68,-1.62 24.53,-7.47 12.18,-4.17 29.36,-19.49 19.22,-17.13 -7.71,-3.1 26.8,-21.26l-0.68 46.75c-16.08,-3.18 -15.56,-8.57 -11.59,5.39 -17.01,-5.48 -14.94,-9.03 -9.01,7.8 -4.77,4.61 -3.97,1.3 -11.11,14.33 -12.25,22.34 2.63,-19.8 -2.92,13.93l-13.58 29.59c-15.54,1.59 -10.19,-10.25 -9.81,14.9 -46.51,27.84 -51.81,58.34 -44.93,122.43l-21.4 -3.15c5.53,-19.76 11.57,-16.92 -5.63,-16.92l5.63 16.92c16.49,49.24 32.91,89.04 73.15,113.45 -2.94,13.71 -5.72,9.83 8.08,11.81 0,-15.1 4.58,-13.09 -8.08,-11.81l-21.96 -39c-1.02,-1.96 -2.75,-4.98 -3.62,-6.6 -0.9,-1.7 -2.52,-4.61 -3.78,-6.91l31.56 14.73zm303.91 260.39c9.24,9.19 -17.34,13.16 24.2,12.99 -1.89,15.98 -4.88,12.59 10.86,7.79 6.23,8.26 -15.36,10.55 16.8,7.82l17.18 10.11c-3.97,-17.65 7.41,-9.7 -17.18,-10.11 -1.97,-11.93 11.11,-9.11 -16.8,-7.82 3.41,-15.79 5.57,-11.59 -10.86,-7.79l1.56 -6.87 -25.76 -6.12zm893.64 -352.8l-5.37 11.75c-0.52,1.36 -1.85,4.36 -2.49,6.06l-19.74 75.81c-20.33,118.69 38.05,55.19 122.59,243.23 0.6,1.34 1.77,4.02 3.08,5.75l2.76 -19.64c25.7,41.4 28.06,28.88 53.83,79.82 -18.3,21.9 0.69,7.73 -33.15,16.9 2.86,-35.54 13.32,-25.44 -7.43,-27.24l-6.43 -9.78 -2.14 -14.56 -10.63 -19.19 10.63 19.19 2.14 14.56 6.43 9.78 7.43 27.24 8.39 111.03c14.47,3.66 10.77,3.14 22.47,7.42 9.61,3.52 0.52,1.32 19.29,7.41l12.1 -23.9c-8.32,-107.28 -33.96,-216.35 -101.08,-284.1 -52.78,-53.27 -55.15,-40.67 -58.02,-83.08 33.35,11.5 77.7,34.21 104.57,44.41l-7.79 -14.24c-1.08,-1.67 -2.62,-4.33 -3.76,-5.95 -28.05,-39.93 17.28,4.91 -13.88,-13.22 8.65,-7.51 11.6,14.39 41.9,-8.43 -27.61,9.7 -0.09,12.99 -18.42,-7.39l-48.09 -60.99c3.83,40.7 4.91,28.59 -14.45,31.2 26,24.96 16.02,8.33 29.08,45.56 -44.86,-7.14 -40.71,1.99 -43.22,-40.84l-5.63 0c-11.97,34.14 -14.43,13.38 -33.8,49.36l61.67 64.58c29.56,29.14 5.01,-6.4 29.75,30.62 25.8,38.59 17.48,28.8 7.96,39.79 -10.34,-39.36 -0.8,-9.18 -15.03,-23.23l-9.96 -8.17c-1.87,-1.76 -7.13,-7.14 -8.88,-8.96 -5.38,-5.58 -28.34,-34.14 -34.75,-39.17 -27.3,-21.39 -18.96,6.85 -40.72,-38.24 -10.81,-22.4 6.87,-6.7 -26.68,-34.2 0.52,-72.52 21.23,-100.01 25.47,-156.95zm347.35 -351.89c-62.47,58.67 -79.99,58.69 -32.31,152.48 17.29,-0.47 150.62,-31.1 159.07,-77.05 5.56,-30.29 7.37,-72.2 -5.81,-93.41 -20.49,12.65 -14.22,0.48 -14.45,42.95 -0.15,29.02 1.85,30.68 -3.84,60.9l-119 39.74c-47.57,-73.73 -19.62,-74.43 19.02,-116.48 23.26,-25.3 18.11,-52.17 0.11,-76.32l-2.79 67.19zm-474.61 176.04l-12.66 2.86 -10.46 7.94 -6.9 10.09c2.04,12.98 5.04,10.3 -7.7,9.23l-5.5 11.71 -6.85 10.08 -2.68 1.27 27.31 -4.81 -11.75 23.7c-15.27,-2.6 -12.42,-5.59 -8.09,9.35l-8.62 24.37 -7.73 17.9 0.79 19.08 -9.79 25.65 -5.45 32.17 5.45 -32.17 9.79 -25.65 -0.79 -19.08c12.2,-1.53 8.49,10.57 7.73,-17.9 17.7,3.88 9.19,-11.89 8.62,-24.37 15.28,3.91 11.79,6.25 8.09,-9.35 18.45,-12.37 -4.65,8.36 12.67,-11.82 40.6,-47.32 83.18,-73.78 149.8,-60.78 21,42.25 13.01,69.28 15.16,122.98l-15.37 46.53c18.57,-23.49 15.41,-18.84 15.37,-46.53l13.61 -10.03c-6.21,-67.66 3.22,-55.29 12.38,-103.35l16.02 9.44c-24.25,-95.62 -118.92,-38.17 -182.45,-18.51zm-1121.42 -314.73c-4.61,-4.82 -26.53,4.41 -23.17,-64.87 2.45,-50.56 10.74,-40.58 18.34,-44.22l4.83 109.09zm11.45 -176.17c3.1,28.54 4.28,12.9 -9.78,15.48 4.99,15.81 9.96,14.17 -4.87,12.25 4.87,15.76 9.4,14.39 -5.98,10.57 2.69,13.99 5.02,10.56 -9.41,7.73 4.38,15.77 7.63,12.08 -8.41,12.08 -8.5,29.79 -5.91,56.72 -14.04,84.22 -8.93,30.25 -14.41,53.16 -17.65,80.59l20.05 -0.62c0.97,-1.39 2.23,-3.44 3.19,-4.89 1.02,-1.57 2.18,-3.81 3.19,-5.39 1.11,-1.74 2.51,-4.21 3.55,-5.84l22.37 11.84c-18.5,-69.92 0.33,-36.3 16.81,-46.06l2.63 23.4 11.05 28.37 -11.05 -28.37 -2.63 -23.4c1.93,-28.07 -9.69,-48.37 -3.68,-83.93 4.18,-24.67 17.55,-42.88 24.49,-62.8l6.39 -16.85c-3.73,-28.57 -2.12,-11.66 7.65,-17.56l12.77 -12.6 4.27 -12.65 5.4 -33.92c-2.28,1.25 -5.13,2.93 -6.57,4.13 -1.4,1.16 -4.49,2.92 -6.09,4.4 -19.47,18.06 -18.18,35.61 -43.65,59.82zm1090.55 58.52c24.83,10.78 9.23,-0.46 33.96,16.04 7.6,5.08 18.75,15.6 27.19,23.28 20.79,18.95 37.14,29.3 40.45,65.7l-49.14 -48.69c-47.01,-50.37 -51.88,-38.5 -52.46,-56.33zm-36.76 -0.58l38.42 23.6c64.55,34.19 58.37,65.96 96.3,94.04l37.63 -12.95c-7.49,-38.61 -57.78,-90.84 -82.28,-107.9 -51.33,-35.75 -72.32,-41.78 -143.89,-53.45 42.46,19.9 43.1,7.59 81.38,37.59 -12.09,23.98 21.1,17.04 -27.56,19.07zm-778.75 1221.09c-13.98,23.07 -10.79,25.95 -12.54,64.25 25.61,19.62 46.42,43.67 83.57,60.04 15.28,6.73 40.87,15.45 57.61,17.98 49.5,7.48 52.16,-14.1 52.16,-14.11l-37.39 -11.91c26.86,-9.26 5.34,-2.22 16.51,-13.33 -27.51,-1.33 -89.61,1.07 -113.9,-12.41 -55.1,-30.56 -9.25,-119.54 3.48,-151.41 -19.92,18.77 -12.72,10.52 -25.53,45.4 -7.01,19.07 -10.52,25.89 -14.4,45.84 -5.54,-8.52 -8.56,10.85 -9.57,-30.34zm-27.28 -1198.57l3.93 10.41c-17.97,-6.49 -12.41,-8.48 -12.41,11.71 19.57,-1.54 18.53,4.54 12.41,-11.71l21.6 8.45c-21.06,19.95 -13.27,10.32 -25.05,33.31l135.08 -12.14c15.18,15.83 19.98,12.34 43.49,12.53 -13.24,-23.6 6.53,-7.61 -18.47,-13.19 -28.83,-6.45 -7.43,-0.79 -25.02,0.66 -28.89,-21.58 -13.24,0.73 -24.8,-25.66l26.43 -5.77c-9.41,-7.3 4.55,-4.44 -26.21,-13.91 -4.15,-1.28 -30.63,-5.22 -35.43,-5.24 -24.33,-0.08 -48.74,8.22 -75.55,10.55zm31.97 -155.09l136.83 37.96 7.46 5.3c48.33,13.55 14.64,9.92 26.74,-17.13l-11.41 -7.56 -16.81 2.35c-19,6.1 -13.74,9.02 -13.74,-11.49 -22.22,-23.25 -91.52,-42.84 -129.77,-39.56l-19.41 4.6c2.83,-1.61 0.51,-11.93 36.5,-2.51 0.08,0.02 30,12.65 34.47,14.77 -30.1,7.24 -11.51,4.35 -28.67,3.28 -2.83,-0.18 -4.59,-0.81 -7.4,-1.19 -46.26,-6.26 -17.02,-10.85 -63.71,-6.36l25.04 12.28c2.73,1.01 5.93,1.39 8.24,2.15l15.64 3.11zm525.13 977.95c-42.41,-1.08 -27.65,33.97 -131.66,26.33 -53.95,-3.97 -74.53,-40.5 -102.22,-60.94 -3.39,90.13 200.6,105.31 233.88,34.61zm-144.01 413.15c25.42,-0.48 11.29,-3.38 16.72,10.28 20.51,-8.12 53.07,-12.14 82.27,-25.11l78.11 -28.7c-6.44,-3.13 12.53,-9.9 -28.42,-6.76 -2.22,0.18 -129.26,34.72 -148.68,50.29zm79.92 -1245.62c-18.05,-6.98 -15.47,-10.06 -8.82,8.14 -17.62,-7.24 -13.26,-8.52 -7.48,9.5 -15.82,-5.29 -12.64,-7.72 -8.46,8.48 -16.33,-4.66 -10.03,-5.79 -9.61,14.05 17.8,0 13.7,4 9.61,-14.05 16.79,3.66 14.92,7.32 8.46,-8.48 17.37,5.46 13.75,7.6 7.48,-9.5 17.91,6.51 15.49,9.75 8.82,-8.14l21.6 -0.32 2.88 16.28c-15.45,-3.3 -11.95,-5.6 -7.19,9.77 -13.92,-3.61 -9.99,-5.34 -7.46,9.55 -13.92,-3.15 -11.29,-6.24 -9.41,7.57 -14.76,-3.1 -13.07,-7.35 -10.71,6.27 -16.72,-3.81 -12.99,-7.57 -12.99,8.98 17.21,-0.17 15.47,5.19 12.99,-8.98 14.69,3.6 12.75,7.65 10.71,-6.27 14.58,3.28 12.27,6.69 9.41,-7.57 15.57,3.4 12.28,5.87 7.46,-9.55 15.31,3.51 11.69,5.67 7.19,-9.77 1.98,-0.88 5.27,-4.17 6.02,-2.55 0.72,1.56 4.69,-2.19 5.6,-2.94 10.26,-8.49 6.71,-5.55 12.16,-12.94 18.93,6.22 15.3,10.95 15.3,-7.64l-15.3 7.64 -16.21 -6.93c15.82,-13.72 28.57,-24.53 44.7,-41.19 35.03,-0.8 19.4,-4.14 26.74,-11.37l-26.74 11.37c-23.15,4.59 -23.4,6.55 -42.16,17.41 -0.47,0.27 -20.95,12.45 -21.24,12.7 -16.13,14.2 -6.35,1.61 -13.35,20.48zm-206.63 1322.49c44.72,-12.27 70.04,-29.57 111.79,-42.86 -0.36,36.29 -10.79,57.29 0.24,90.74l24.5 35.75c1.26,1.08 3.33,2.52 4.68,3.52 1.36,1.02 3.44,2.42 4.87,3.37 1.47,0.98 3.68,2.14 5.24,3.07l37.22 17.46c-9.67,-11.1 -0.18,-3.14 -19.17,-18.36l-39.91 -35.05c-22.37,-35.16 -5.22,-67.84 -9.05,-109.12 -30.68,0.79 -37.38,8.51 -62.41,20.63 -30.42,14.7 -36.43,8.84 -58,30.85zm-582.63 -890.64l-14.1 2.77 -1.64 14.95c3.5,15.19 7.04,13.17 -7.67,8.99 -1.05,0.51 -3.51,12.3 -25.1,5.29 -15.66,-5.09 -10.35,-5.53 -15.03,-20.72 -13.64,1.56 -9.36,3.58 -6.47,-11.41l-14.1 -0.87c14.31,29.7 12.69,45.57 61.29,43.38 -10.12,25.46 -13.35,18.07 0.2,37.44 41.33,-22.16 18.13,-37 22.62,-79.82zm209.69 -579.73l-19.76 15.08c1.81,12.73 4.15,9.57 -8.99,7.35l0.38 8.47 -8.4 -0.12 0.5 8.28 7.9 -8.16 19.83 -4.92c-15.84,-5.81 -10.49,-6.28 -6.51,10.85l-4.78 11.79c-16.04,-1.69 -12.52,-5.51 -11.74,10.2 16.59,0 14.15,4.74 11.74,-10.2 13.64,2.17 8.72,3.46 4.78,-11.79 14.91,1.6 11.24,4.07 6.51,-10.85 23.55,-3.53 10.13,0.96 36.79,-11.56 0,-14.61 -3.46,-11.43 11.15,-8.59 -11.38,-15.5 9.23,-12.75 -10.12,-16.46l-20.37 -3.55 -8.91 14.18zm290.64 218.68c1.39,1.83 3.54,2.32 4.3,5.4l30.88 30.95c16.04,19.54 7.44,27.64 47.82,25.12 2.53,-34.55 -17.94,-47.53 -55.7,-65.82 10.05,13.64 3.01,6.32 13.72,16.8 2.04,2.01 13.41,10.3 14.79,11.52 15.55,13.82 9.67,-1.33 20.16,30.2 -44.66,-9.91 -12.58,-1.91 -38.01,-29.29 -12.39,-13.35 -13.91,-12.4 -37.96,-24.88zm-418.64 330.62c-15.76,20.23 -7.19,9.05 -15.68,1.62l-28.58 -10.03c-5.48,13.72 1.02,8.18 -13.67,19.72 -19.94,15.7 13.05,0.97 -19,6.86 7.56,16.74 8.51,12.46 -8.82,7.11l4.06 5.15c-4.49,42.82 18.71,57.66 -22.62,79.82 -13.55,-19.37 -10.32,-11.98 -0.2,-37.44 -48.6,2.19 -46.98,-13.68 -61.29,-43.38 -47.08,-19.42 0.93,-28.23 -93.88,-24.52 -38.69,1.51 -80.02,5.7 -119.09,8.7 -7.36,9.03 -21.26,-12.25 -0.65,18.1 24.46,-0.08 30.53,-3.82 46.65,10.01 15.52,0.9 12.09,-0.57 23.81,3.5 9.39,3.25 11.2,8.02 16.03,12.21 77.52,-5.05 207.32,74.59 218.43,136.87 17.2,0 11.16,-2.84 5.63,16.92l21.4 3.15c-6.88,-64.09 -1.58,-94.59 44.93,-122.43 -0.38,-25.15 -5.73,-13.31 9.81,-14.9l13.58 -29.59c5.55,-33.73 -9.33,8.41 2.92,-13.93 7.14,-13.03 6.34,-9.72 11.11,-14.33 -5.93,-16.83 -8,-13.28 9.01,-7.8 -3.97,-13.96 -4.49,-8.57 11.59,-5.39l0.68 -46.75c-34.51,18.16 -7.58,4.13 -26.8,21.26 -17.18,15.32 -4.83,12.02 -29.36,19.49zm934.18 -267.26c19.16,6.02 9.13,-17.47 24.12,19.24 5.64,13.79 2,17.76 1.94,29.26 -39.48,-1.24 -38.18,-14.96 -26.06,-48.5zm-17.94 -66.45l-8.86 -4.46c1.95,15.06 4.2,10.91 -11.38,6.64 4.1,16.02 8.62,14.71 -6.63,10.34 8.22,26.25 -5.53,22.7 -15.86,27.3 4.93,27.09 2.16,56.77 -11.46,73.17 14.08,-1.79 10.32,-4.29 7.94,10.56l19.02 7.16 159.75 -0.05 15.9 -10.31 -2.97 -61.84 -5.96 -20.39 -5.91 -10.18c-13.79,2.65 -11.58,6.17 -9.78,-6.97l-10.89 -5.91c-15.79,3.66 -14.81,8.67 -11.27,-5.66l-12.52 -12.21c-32.68,12.43 -42.84,25.04 -77.55,9.75 20.22,-16.44 17.44,-15.05 43.3,-9.61l-42.33 -4.17 -12.54 6.84zm-737.73 806.07c17.07,-4.66 13.89,-9.1 13.89,7.12 23.21,13.9 38.12,25.21 60.27,37.39 22.3,12.26 35.55,17.57 57.72,30.41l25.76 6.12 -1.56 6.87c16.43,-3.8 14.27,-8 10.86,7.79 27.91,-1.29 14.83,-4.11 16.8,7.82 24.59,0.41 13.21,-7.54 17.18,10.11l54.36 8.78c8.29,3.42 11.03,3.93 20.94,8.31 15.09,6.67 14.17,6.45 22.05,11.12 -16.85,27.05 -4.44,13.51 -38.04,28.16l-21.07 10.77c40.62,-2.05 31.75,-6.56 66.82,-17.32 28.8,-0.5 112.56,-16.23 142.63,-24.94 30.53,-8.85 5.65,-9.84 61.03,-23.72 29.02,-7.28 35.19,-16.03 61.89,-17.08 0,-17.42 -3.45,-13.12 14.15,-7.28 4.82,-10.53 -13.43,-13.63 17.1,-7.5 6.03,-10.91 -10.55,-12.06 18.68,-6.86l3.56 -18.24 -3 -4.01c-8.01,15.73 12.21,10.76 -21.31,13.19 -49.7,22.85 -79.19,40.71 -149.06,43.99 -59.02,2.76 -118.29,-8.36 -166.75,-18.42 -37.52,-2.26 -15.19,2 -17.71,-12.38 -15.03,5.6 -11.38,7.5 -8.49,-8.51l-21.12 11.02c-1.14,-1.88 -4.49,2.13 -6.63,3.37 -16.23,-4.44 -24.14,-7.64 -36.56,-11.22l-87.52 -36.52c-45.23,-19.05 -74.76,-43.07 -115.54,-59.05l8.67 20.71zm223.25 437.32c-11.17,11.11 10.35,4.07 -16.51,13.33l37.39 11.91 78.3 -13.85c21.57,-22.01 27.58,-16.15 58,-30.85 25.03,-12.12 31.73,-19.84 62.41,-20.63 3.83,41.28 -13.32,73.96 9.05,109.12l39.91 35.05c18.99,15.22 9.5,7.26 19.17,18.36 29.93,8.53 28.53,20.27 29.85,55.89l14.08 15.6c10.35,9.9 5.85,6.44 17,14.57 -3.22,-46.7 5.22,-44.46 -15.5,-61.11l30.22 -10.61c0.86,-14.9 4.21,-18.15 -8.69,-33.68l-16.53 -13.23c-61.14,-1.69 -92.5,-77.03 -95.54,-145.07 -5.43,-13.66 8.7,-10.76 -16.72,-10.28 -79.5,10.9 -138.22,77.62 -225.89,65.48zm-84.56 -1131.48l15.97 4.52 4.25 38.68c-5.56,11.3 1.34,10.33 -8.1,15.62 -19.28,-10.87 -19.37,16.34 -13.83,-18.08 -1.26,-1.46 -12.13,-13.36 -12.33,-13.6 -9.66,-11.47 -4.68,-5.91 -9.71,-13.21l10.62 -20.69c25.79,-5.27 3.99,-2.81 13.13,6.76zm-47.24 -33.12c6.44,17.28 6.11,10.49 -12.83,5.49 2.31,13.48 4.54,10.27 -9.16,6.88 4.39,15.82 9.46,14.84 -5.31,11.27 5.8,17.79 11.07,16.24 -6.35,12.3l-6.32 47.79 17.44 32.04 53.45 -1.1c23.72,-13.96 44.78,-12.82 73.04,-12.63l10.63 8.43 8.34 -14.73 5.92 -5.8c-30.6,-4.25 -10.93,0.39 -21.45,-9.04 18.11,-53.08 20.01,15.72 21.91,-50.86 -1.55,-1.1 -3.97,-2.27 -4.96,-2.78 -1.01,-0.53 -3.86,-2.06 -5.12,-2.72 -1.26,-0.67 -3.91,-1.66 -5.32,-2.47l-29.39 -28.1c-0.96,-4.21 -2.75,-5.12 -4.3,-7.57l2.29 2.72c-66.81,-6.92 -31.51,-1.48 -82.51,10.88zm1076.34 653.1l16.52 8.96c29.18,-3.59 10.16,-1.49 16.11,8.32l13.88 11.08c20.53,-5.6 16.73,-10.96 16.73,8.49l46.2 18.3c43.37,1.61 12.66,3.95 24.05,-13.63 -23.41,-14.91 -52.47,-11.36 -66.23,-24.56 -24.62,-23.61 2.48,-27.06 -33.72,-53.16 -1.54,-2.04 -3.25,-4.74 -4.14,-6.42 -39.35,-74.04 -5.74,-17.94 -41.41,-55.49 -22.82,-24.02 -1.54,-20.17 -33.46,-28.75 -2.29,26.9 -5.75,12.02 7.64,28.3 1.1,1.32 3.46,2.66 4.67,3.91 1.22,1.27 3.63,2.47 4.89,3.72l52.82 61.16c-22.91,44.54 -14.99,-2.3 -24.55,29.77zm-1140.22 -767.87c-11.66,20.21 -9.6,11.4 -34.53,25.64 -25.81,14.73 -11.28,16.04 -52.27,14.8 -3.39,13.92 16.06,12.44 -15.64,10.55 6.82,33.88 -15.88,70.77 -32.46,100.39 16.71,-2.56 12.36,-6.02 12.36,11.14 18.36,-15.18 8.74,-1.54 19.15,-21.78 5.71,-35.05 0.3,-15.32 12.21,-20.81 0.61,-12.45 -1.31,-8.77 4.35,-19.93 5.86,-11.54 7.32,-6.22 14.1,-11.85 5.54,-17.88 3.45,-17.67 17.89,-31.82 13.92,-13.65 2.12,-7.37 29.67,-16.78l34.13 -9.5c11.78,-22.99 3.99,-13.36 25.05,-33.31l-21.6 -8.45c6.12,16.25 7.16,10.17 -12.41,11.71zm141.38 1044.46c-51.75,13.22 -99.29,72.07 -105.62,131.99 1.01,41.19 4.03,21.82 9.57,30.34 3.88,-19.95 7.39,-26.77 14.4,-45.84 12.81,-34.88 5.61,-26.63 25.53,-45.4 20.75,-32.32 25.59,-24.17 50.36,-48.13 9.86,-12.33 -17.7,-15.91 23.09,-10.02l27.3 -7.46 -25.23 -12.79 -19.4 7.31zm2.66 -1026.55c17.59,-1.45 -3.81,-7.11 25.02,-0.66 25,5.58 5.23,-10.41 18.47,13.19l25.03 8.63c24.05,12.48 25.57,11.53 37.96,24.88 25.43,27.38 -6.65,19.38 38.01,29.29 -10.49,-31.53 -4.61,-16.38 -20.16,-30.2 -1.38,-1.22 -12.75,-9.51 -14.79,-11.52 -10.71,-10.48 -3.67,-3.16 -13.72,-16.8 -17.92,-14.56 -67.16,-43.61 -94.19,-48.24l-26.43 5.77c11.56,26.39 -4.09,4.08 24.8,25.66zm1017.8 491.6c-21.52,39.07 -16.96,20.21 -24.28,19.93l-14.24 -7.14c10.07,22.59 3.22,8.49 8.83,27.12 -29.91,3.2 -26.3,8.5 -42.22,23.59 7.65,25.67 -5.52,7.53 11.86,23.09 25.78,-11.38 5.31,0.84 25.69,-18.17l70.66 -53.52c-1.35,-0.43 -28.57,10.09 -10.4,-24.35 -25.79,4.86 -9.52,-1.59 -25.9,9.45zm-583.6 -591.83c-16.13,16.66 -28.88,27.47 -44.7,41.19l16.21 6.93 15.3 -7.64 62.15 -18.37c0,-20.72 -4.66,-17.11 14.83,-9.53l-14.87 -1.47c-4.28,-16.42 -4.37,-1.75 -0.55,-13.72 7.99,-25.11 5.03,-1.27 7.59,-0.86l-22.09 -2.09 -7.13 -5.81c-7.34,7.23 8.29,10.57 -26.74,11.37zm306.99 54.3c-24.73,-16.5 -9.13,-5.26 -33.96,-16.04 0.58,17.83 5.45,5.96 52.46,56.33l49.14 48.69c-3.31,-36.4 -19.66,-46.75 -40.45,-65.7 -8.44,-7.68 -19.59,-18.2 -27.19,-23.28zm-1135.96 101.61l-4.83 -109.09c-7.6,3.64 -15.89,-6.34 -18.34,44.22 -3.36,69.28 18.56,60.05 23.17,64.87zm544.67 566.3c17.66,-5.98 14.61,-10.82 14.61,6.09l-3.42 -2.05c38.25,6.54 19.59,0.43 20.66,12.76l27.87 -4.22 5.04 -17.84 -11.32 -6.66c-1.67,-0.89 -3.85,-2.54 -5.77,-3.45 -11.9,-5.61 13.68,-4.93 -20.01,-7.88 -36.32,-3.17 -25.21,4.05 -36.74,14.67 16.15,-6.03 12.68,-8.38 9.08,8.58zm198.73 -663.48c6.27,17.1 9.89,14.96 -7.48,9.5 6.46,15.8 8.33,12.14 -8.46,8.48 4.09,18.05 8.19,14.05 -9.61,14.05l-6.85 21.38 17.94 -3.45c0,-16.55 -3.73,-12.79 12.99,-8.98 -2.36,-13.62 -4.05,-9.37 10.71,-6.27 -1.88,-13.81 -4.51,-10.72 9.41,-7.57 -2.53,-14.89 -6.46,-13.16 7.46,-9.55 -4.76,-15.37 -8.26,-13.07 7.19,-9.77l-2.88 -16.28 -21.6 0.32c6.67,17.89 9.09,14.65 -8.82,8.14zm822.33 735.27c36.73,0.12 36.72,-7.8 26.2,-35.04 -24.49,13.92 -17.96,-0.8 -26.2,35.04zm-187.82 51.36c-1.32,17.21 -2.37,3.94 13.04,4.83 1.49,14.01 -13.29,11.95 16.52,8.96 2.49,12.65 -11.14,10.08 16.11,8.32 2.92,14.99 -9.79,11.53 13.88,11.08 -0.6,14.5 -2.89,8.29 16.73,8.49 0,-19.45 3.8,-14.09 -16.73,-8.49l-13.88 -11.08c-5.95,-9.81 13.07,-11.91 -16.11,-8.32l-16.52 -8.96c9.56,-32.07 1.64,14.77 24.55,-29.77l-52.82 -61.16c-1.26,-1.25 -3.67,-2.45 -4.89,-3.72 -1.21,-1.25 -3.57,-2.59 -4.67,-3.91 -13.39,-16.28 -9.93,-1.4 -7.64,-28.3 31.92,8.58 10.64,4.73 33.46,28.75 35.67,37.55 2.06,-18.55 41.41,55.49 0.89,1.68 2.6,4.38 4.14,6.42 -10.04,-58.22 -19.36,-43.18 -40.68,-78.19 -20.16,-11.99 -11.59,-5.19 -25.04,-25.55 27.15,-98.27 95.7,-81.06 159.96,-97.73 12.31,-3.19 31.44,-6.24 45.81,-11.39 22.95,-8.22 14.61,-10.81 42.36,-18.89l-29.05 122.17 23.93 -17.82c1.38,-1.39 3.27,-4.29 4.91,-6.44l4.67 -8.26c16.61,-109.91 -9.08,-18.88 33.33,-94.64 1.63,-2.89 3.47,-6.19 4.44,-9.57 -20.44,-1.29 -16.91,8.38 -16.91,-9.18 89.3,-36.39 141.27,-132.15 176.93,-171.5 67.14,-74.09 60.63,-105.83 83.58,-133.33 -4.46,-52.61 -2.88,-17.1 10.01,-28.32 0.48,-6.4 -0.15,-13.39 2.24,-23 5.27,-21.11 0.74,-5.68 9.05,-16.26 -11.19,-53.46 17.41,-59.62 -23.82,-53.93 2.78,32.56 1.42,71.9 -7.68,99.37 -40.35,121.78 -162.63,242.74 -259.83,316.59 -52.11,39.61 -94.19,50.7 -173.83,58.61l-70.66 53.52c-20.38,19.01 0.09,6.79 -25.69,18.17 -17.38,-15.56 -4.21,2.58 -11.86,-23.09 15.92,-15.09 12.31,-20.39 42.22,-23.59 -5.61,-18.63 1.24,-4.53 -8.83,-27.12l14.24 7.14c7.32,0.28 2.76,19.14 24.28,-19.93 -7.59,-5.68 -13.09,-2.54 -11.69,-22.54 0.41,-5.72 9.71,-22.17 11.02,-24.66 -24.66,-5.15 -6.28,-6.9 -22.33,15.51 -9.01,12.57 -3.81,7.32 -12.1,15.24 -10.03,21.02 -34.01,68.29 -36.81,79.95 -9.13,8.11 -6.73,3.19 -15.91,18.76 -5.18,8.78 -7.69,17.98 -11.53,29.5 -13.97,41.89 -7.39,25.65 -31.05,55.59l-4.93 9.39c-12.84,1.29 -8.93,-1.63 -5.41,12.88 -16.36,-2.11 -14.86,-6.63 -10.28,8.25l-12.58 -51.96c15.03,-25.13 12.95,-21.58 8.09,-52.63 16.4,-14.01 11.42,-1.77 8.29,-27.31 10.41,-4.79 9.86,11.81 6.25,-21.48 10.89,-8.21 4.23,14.07 14.36,-26.98 2.45,-9.91 3.42,-27.59 4.68,-37.09 3.9,-29.53 9.83,-51.81 13.23,-83.1l-16.02 -9.44c-9.16,48.06 -18.59,35.69 -12.38,103.35 5.35,17.53 -6.24,27 -3.87,53.26 -10.73,6.96 -20.96,-20.48 -6.25,21.48l-8.29 27.31 -8.09 52.63 1.72 50.48 10.86 1.48c17.37,6.92 14.21,9.99 10.28,-8.25 14.29,2.98 8.7,3.96 5.41,-12.88l4.93 -9.39c1.89,-1.08 4.62,-5.27 5.34,-3.8l17.32 -18.7c29.46,-29.18 -12.42,-3.45 29.05,-17.77 -17.86,34.01 5.99,33.27 -40.23,52.15l5.63 0 14.14 -4.72c19.36,-2.61 18.28,9.5 14.45,-31.2l48.09 60.99c18.33,20.38 -9.19,17.09 18.42,7.39 -30.3,22.82 -33.25,0.92 -41.9,8.43 31.16,18.13 -14.17,-26.71 13.88,13.22 1.14,1.62 2.68,4.28 3.76,5.95l7.79 14.24zm-309.24 -321.54l-9.44 13.39c-6.37,13.61 -30.2,71.92 -40.9,87.87 4.45,52.54 -5.19,182.68 -19.62,222.49l14.19 0.71c50.22,-61.47 11.17,-104.99 32.44,-177.05l5.45 -32.17 9.79 -25.65 -0.79 -19.08 7.73 -17.9 8.62 -24.37c-4.33,-14.94 -7.18,-11.95 8.09,-9.35l11.75 -23.7 -27.31 4.81zm-99.46 375.87c11.95,-2.93 9.99,-0.47 14.07,-9.35 -11.32,-9.89 20.56,-12.65 -4.43,0 -1.16,0.58 -6.42,4.1 -7.97,4.92l-1.67 4.43zm329.45 -995.36l2.97 -2.12 -33.86 -14.07c-5.96,10.28 -13.93,14.64 -6.36,30.98 26.86,-0.1 15.86,-4.67 17.17,8.43 16.47,-3.42 13.96,-8.28 13.96,5.86l21.95 1.3c17.78,67.55 -5.13,120.16 -4.29,149.76 1.07,38.04 -0.46,11.31 8.43,22.86 22.28,-20.81 25.49,-74.9 21.46,-110.1l-0.93 -94.13c-15.08,2.85 -10.75,4.87 -7.39,-11.12 -11.62,8.06 2.08,-3.04 -8.37,13.47 -10.53,16.64 -1.66,6 -13.38,17.81 -6.12,-4.88 -5.93,-12.44 -11.36,-18.93zm-820.22 1142.45l9.13 10.31c1.17,1.29 3.4,3.59 4.56,4.85 8.59,9.32 5.07,4.84 12.94,13.84 -42.73,11.2 -83.25,22.26 -112.96,51l19.4 -7.31 25.23 12.79 -27.3 7.46c-40.79,-5.89 -13.23,-2.31 -23.09,10.02l23.09 -10.02c8.37,1.28 26.75,10.98 27.3,-7.46 22.49,-4.28 23.33,-7.57 48.41,-18.06 8.63,-3.61 16.81,-5.89 23.93,-9.79 22.9,-12.53 9.4,-4.3 20.06,-16.59 -35.07,10.76 -26.2,15.27 -66.82,17.32l21.07 -10.77c33.6,-14.65 21.19,-1.11 38.04,-28.16 -7.88,-4.67 -6.96,-4.45 -22.05,-11.12 -9.91,-4.38 -12.65,-4.89 -20.94,-8.31zm-337.42 -1607.35c6.49,16.06 7.98,12.06 -8.95,7.9 4.59,16.83 9.81,16.25 -6.15,10.68 6.45,16.59 9.55,13.94 -7.65,9.43 6.04,16.04 7,10.27 -11.99,10.27 -22.21,31.43 -46.16,55.91 -70.52,91.81l-3.03 32.41c23.86,-10.12 9.85,-0.95 25.85,-18.19 18.38,-41.42 53.75,-69.32 69.38,-102.47 -2.12,-19.51 -8.63,-19.4 7.57,-13.45 -5.36,-16.36 -6.31,-11.37 10.68,-6.5 -3.51,-15.12 -5.32,-11.09 10.14,-6.72 -3.67,-13.01 -5.35,-9.3 8.77,-7.78 -4.82,-22.73 11.62,-6.23 -16.66,-16.94 6.18,17.92 10.36,16.38 -7.44,9.55zm173.59 757.66c-17.1,-5.39 -15.49,-10.74 -12.83,5.49 -16.18,-5.47 -14.53,-9.27 -9.16,6.88 -16.26,-4.26 -11.04,-5.22 -5.31,11.27 -15.89,-3.5 -10.6,-4.88 -6.35,12.3 -28.6,4.81 -12.85,35.3 -6.32,47.79 -0.33,11.01 -10.61,-3.13 3.57,19.62 10.4,16.7 -0.24,4.68 13.87,12.42 5.26,7.48 -19.94,13.19 26.14,10.19 20.85,-1.37 21.88,-8.07 27.31,-11.29 12.02,0.75 26.62,1.91 41.35,-0.09 34.66,-4.67 17.78,1.51 31.69,-12.54 -28.26,-0.19 -49.32,-1.33 -73.04,12.63l-53.45 1.1 -17.44 -32.04 6.32 -47.79c17.42,3.94 12.15,5.49 6.35,-12.3 14.77,3.57 9.7,4.55 5.31,-11.27 13.7,3.39 11.47,6.6 9.16,-6.88 18.94,5 19.27,11.79 12.83,-5.49 51,-12.36 15.7,-17.8 82.51,-10.88 -0.01,-0.01 -2.44,-17.46 -44.94,-13.69 -42.85,3.78 -37.54,24.52 -37.57,24.57zm578.15 -184.51c-19.49,-7.58 -14.83,-11.19 -14.83,9.53 20.06,-0.22 19,6.29 14.83,-9.53 44.86,6.74 73.52,-7.39 110.06,-2.2 -31.63,-20.84 -59.85,-1.76 -100.05,-6.91 19.25,-5 42.71,-8.94 53.6,-12.56 -1.37,0.03 -27.85,0.92 -28.16,0.86 -34.76,-6.86 -21.47,-6.71 -33.32,-14.88 -2.66,0.96 -16.42,5.94 -16.63,6.06 -14.03,8.06 -6.51,3.15 -15.42,11.49l22.09 2.09c-2.56,-0.41 0.4,-24.25 -7.59,0.86 -3.82,11.97 -3.73,-2.7 0.55,13.72l14.87 1.47zm157.25 102.91l12.52 12.21c-3.54,14.33 -4.52,9.32 11.27,5.66l10.89 5.91c-1.8,13.14 -4.01,9.62 9.78,6.97l5.91 10.18 5.96 20.39 0.95 -9.39 -6.91 -11c5.2,-15.11 9.24,-13.37 -5.91,-10.18 2.69,-13.7 4.62,-9.93 -9.78,-6.97 1.9,-13.81 3.77,-9.67 -10.89,-5.91 2.02,-14.82 3.95,-10.52 -11.27,-5.66 -3.63,-14.42 9.38,-11.66 -12.52,-12.21 -11.93,-6 -19.95,-10.36 -39.79,-12.66 -31.41,-3.64 -22.45,-6.86 -36.79,8.63l-12.54 -5.03 0 11.87 12.54 -6.84 42.33 4.17c-25.86,-5.44 -23.08,-6.83 -43.3,9.61 34.71,15.29 44.87,2.68 77.55,-9.75zm1018.28 159.7l-6.92 8.52c-3.79,27.17 -5.03,-0.61 12.73,11.92 27.29,-15.26 41.3,-26.57 73.84,-30.57 15.07,-10.4 4.46,6.73 2.49,-26.69l-82.14 36.82zm-1708.15 -4.24c-5.54,34.42 -5.45,7.21 13.83,18.08 9.44,-5.29 2.54,-4.32 8.1,-15.62l-21.93 -2.46 3.26 -37.56 -1.55 -3.18c-9.14,-9.57 12.66,-12.03 -13.13,-6.76l-10.62 20.69c5.03,7.3 0.05,1.74 9.71,13.21 0.2,0.24 11.07,12.14 12.33,13.6zm-694.91 212.77c27.17,17.85 16.84,16.42 46.65,10.01l39.84 15.71c-4.83,-4.19 -6.64,-8.96 -16.03,-12.21 -11.72,-4.07 -8.29,-2.6 -23.81,-3.5 -16.12,-13.83 -22.19,-10.09 -46.65,-10.01 -20.61,-30.35 -6.71,-9.07 0.65,-18.1 39.07,-3 80.4,-7.19 119.09,-8.7 94.81,-3.71 46.8,5.1 93.88,24.52l14.1 0.87c-30.59,-48.51 0.94,-61.83 -27.25,-89.37 -69.94,-68.33 -11.08,-106.05 -30.36,-172.13l-8.73 -18.57c-15.71,-41.61 25.5,-108.87 33.54,-118.53 -9.87,52.68 -11.99,61.43 -35.78,101.04 1.5,0.84 4.27,0.55 5.12,0.58l27.13 -0.69c0.41,-1.36 2.86,-0.57 4.01,0.11 -14.82,53.49 -8.9,79.28 11.99,122.54 40.62,84.11 27.14,76.42 56.04,83.85 50.15,8.89 -1.8,-6.48 21.11,7.82l20.83 16.26c2.34,1.92 4.59,4.74 7.14,6.81l-10.4 -38.22 -10.07 -22.86c-8.6,-7.72 -10.93,18.27 -8.08,-18.63 -14.89,2.38 -9.4,4.35 -9.4,-13.48 5.92,61.3 8.91,19.71 -28.08,33.14 -1.98,-12.54 -5.49,-34.67 -8.48,-57.48 -64.1,-61.69 8.89,-273.82 -8.52,-311.24 -40.02,35.72 -81.05,118.11 -96.24,188.05 -18.03,83.1 8.67,192.61 21.31,265.61l-218.09 11.32c11.13,13.03 5.99,12.3 25.92,20.16 18.74,7.38 23.72,4.84 37.62,5.32zm281.72 -2112.76c-12.02,6.7 -11.73,9.04 -26.81,-0.37 11.66,-8.89 11.81,-5.18 26.81,0.37zm-60.71 8.48c138.2,35.51 96.45,4.82 239.87,107.79l229.76 185.63c1.27,1.18 3.13,2.88 4.41,4.05l63.2 47.05c38.7,29.32 68.54,51.05 97.95,80.1 32.45,32.06 101.71,78.21 130.75,132.6 19.06,35.71 4.12,43.16 37.81,50.92 -38.36,-145.6 -264.45,-262.43 -334.58,-331.39 -1.76,-1.74 -6.68,-6.84 -8.4,-8.61l-8.17 -8.73c-7.24,-7.72 -11.78,-13.44 -20.51,-21.81 -18.71,-17.95 -27.32,-20.58 -47.57,-37.32 -33.78,-27.9 -60.16,-52.24 -91.75,-77.92l-183.07 -114.34c-23.23,-20.53 -17.34,-0.33 -7.99,-22.39 49.55,-15.14 210.41,-8.23 267.46,1.35 137.91,23.16 288.74,112.05 403.5,189.31l159.92 104.41c44.93,16.71 14.04,5.93 25.92,-3.4l-149.44 -94.55c-20.56,-11.94 -35.34,-19.84 -52.15,-32.32 -211,-156.74 -434.76,-218.79 -696.59,-175.87 -29.28,4.8 -45.68,6.98 -60.33,25.44zm2264.19 1858.93c1.97,33.42 12.58,16.29 -2.49,26.69 17.24,-22 60.71,-26.77 84.2,-38.57l54.16 -31.83c1.48,-1 3.46,-2.46 4.92,-3.46l109.56 -66.95c17.41,-9.2 23.15,-15.22 43.86,-22.76 38.58,-14.05 25.36,2.64 44.58,-28.46 24.18,-52.82 -114.75,-51.46 -192.19,-112.54 -35.92,-28.33 -28.51,-28.77 -71.34,-46.44l-150.15 -59.75c12.25,-28.75 63.57,-80.31 110.42,-190.43 -26.17,3.32 3.99,-8.2 -33.58,40.45 -20.33,26.33 -20.93,33.09 -34.55,58.9 -24.67,46.7 -62.37,62.27 -82.84,96.58 40.14,19.08 13.82,-9.7 117.07,42.45 16.33,8.24 35.14,16.98 51.34,25.68 10.85,5.82 14.2,7.67 27.68,17.8 66.03,49.68 103.72,36.15 187.6,89.47l39.41 20.12c10.3,5.53 10.76,6.28 16.72,10.77 -70.81,28.1 -125.59,57.75 -187.82,103.52 -50.9,37.43 -105.59,37.45 -136.56,68.76zm-501.3 329.31c-0.97,3.38 -2.81,6.68 -4.44,9.57 -42.41,75.76 -16.72,-15.27 -33.33,94.64 17.8,-54.55 -24.31,-100.53 179.21,-63.07 24.59,4.53 74.63,15.77 104.47,26.26 37.29,13.1 61.54,39.67 90.96,47.05 2.67,-29.74 2.23,-60.9 -1.52,-90.75 -8.37,-66.6 -11.07,-20.27 13.92,-69.04 -36.84,-12.33 -26.39,-7.37 -33.66,-53.01 -4.72,-29.7 -10.3,-53.29 -11.26,-81.17 21.85,-19.11 52.87,-30.57 120.62,-92.53 -17.76,-12.53 -16.52,15.25 -12.73,-11.92l6.92 -8.52 -142.44 104.51c-13.26,31.4 44.34,240.37 50.1,267.62 -48.73,-16.12 -98.26,-46.38 -149.16,-57.8 -59.92,-13.45 -117.51,-15.27 -177.66,-21.84zm-350.47 -663.35c5.43,6.49 5.24,14.05 11.36,18.93 11.72,-11.81 2.85,-1.17 13.38,-17.81 10.45,-16.51 -3.25,-5.41 8.37,-13.47 -3.36,15.99 -7.69,13.97 7.39,11.12l0.93 94.13c7.65,-10.44 3.86,1.54 8.36,-17.57 2.38,-10.14 3.3,-22.06 3.2,-32.54 -0.26,-27.43 2.63,-35.07 -12.49,-44.02 4.31,-17.51 9.22,-16.13 -7.39,-11.12l-146.52 -167.25c-15.41,-16.33 -21.83,-20.34 -33.75,-42.03l-87.18 -150.53c-27.95,27.47 -33.71,-2.75 9.28,82.39 24.38,48.31 99.75,182.75 134.75,204.3 -7.66,-25.18 -14.74,-36.13 -8.94,-49.16l104.99 115.72c6.2,26.94 13.62,2.2 -5.74,18.91zm184.64 496.34c-41,-10.68 -51.05,-24.3 -71.69,-54.36 -24.2,-35.23 -21.88,-45.15 -42.13,-84.7 -47.32,6.44 -17.26,27.82 -100.48,77.25 -54.6,32.44 -85.83,-3.49 -100.92,63.67 85.38,-2.64 135.12,-87.51 188.95,-109.04 40.17,49.56 52.32,130.89 150.07,128.87 1.98,-47.2 -19.85,-55.18 -37.52,-136.73 -7.72,-35.64 -3.01,-133.3 -15.35,-149.05 -28.36,27.2 -3,153.06 6.25,194.99 6.59,29.86 16.09,39.8 22.82,69.1zm82.43 393.33c8.24,-35.84 1.71,-21.12 26.2,-35.04 10.52,27.24 10.53,35.16 -26.2,35.04zm12.12 -89.59l-17.98 82.5 22.12 127.36c-32.3,5.11 -142.37,-95.54 -156.48,-124.45 -15.16,-31.07 -16.1,-34.52 -41.7,-54.02 21.32,35.01 30.64,19.97 40.68,78.19 36.2,26.1 9.1,29.55 33.72,53.16 13.76,13.2 42.82,9.65 66.23,24.56 -11.39,17.58 19.32,15.24 -24.05,13.63 37.95,34.74 62.09,55.77 123.31,59.13l-20.26 -56.95c-24.47,-77.72 0.4,-115.64 14.85,-159.21l-16.41 -16.32c-1.09,-0.99 -3.76,-3.08 -5.48,-4.8l10.29 -47.04c-1.64,2.15 -3.53,5.05 -4.91,6.44l-23.93 17.82zm-758.49 -1027.72l-10.52 -7.95c-12.34,1.57 -9.46,4.19 -8.19,-8.31l-12.09 -5.42c-16.49,5.63 -13.64,8.32 -8.36,-8.29l-6.82 -9.75c-17.21,3.23 -16.56,7.9 -9.25,-7.76 -16.4,-19.4 -16.47,-14.82 -19.26,-39.62 -16.65,2.76 -11.76,4.98 -7.67,-12.7l-10.69 -40.91c-11.1,7.75 -13.24,-13.01 -6.05,19.5l-2.33 2.59c12.68,13.67 -5.19,-12.85 15.06,16.97l13.14 37.86c16.13,-5.58 14.15,-9.42 9.92,6.89l9.19 15.59c15.43,-2.17 11.6,-4.64 7.12,10.97 15.02,-0.77 13.85,-4.76 8.08,8.54 14.59,-6.04 10.28,-7.03 7.7,9 14.02,-3.93 10.83,-6.36 8.76,8.19 14.18,-3.06 11.7,-6.26 9.27,7.68 17.13,-3.58 12.15,-6.47 12.15,11.97 9.38,10.65 16.36,14.81 27.65,24.12l34.55 36.64 -42.69 19.65c-15.88,6.46 -33.24,13.57 -48.83,20.05 18.32,11.85 -10.32,20.7 66.43,-10.49 27.54,-11.2 50.38,-13.09 75.71,-3.78 -37.26,19.22 -53.21,-1.22 -94.06,26.89 -32.41,22.31 -38.88,38.89 -82.17,50.64 5.44,-29.1 1.73,-11.63 17.51,-29.14 12.91,-14.33 10.65,-2.41 19.61,-23.4 -20.15,2.96 -22.37,5.06 -34.02,16.17 -5.02,4.78 -3.81,5.27 -11.64,13.88 -28.58,31.49 -36.93,34.73 -57,74.34 35.68,4.88 82.14,-40.87 118.9,-71.61 46.54,-38.93 97.23,-25.22 166.43,-37.13l-155.54 -121.87zm-670.9 -246.81c-17.46,-7.04 -13.07,-8.31 -7.44,9.55 -16.82,-6.24 -14.19,-9.25 -8.95,7.9 -16.97,-5.07 -12.14,-6.25 -6.15,10.68 -16.24,-4.95 -12.54,-7 -7.65,9.43 -15.42,-4.72 -10.49,-6.84 -11.99,10.27 18.99,0 18.03,5.77 11.99,-10.27 17.2,4.51 14.1,7.16 7.65,-9.43 15.96,5.57 10.74,6.15 6.15,-10.68 16.93,4.16 15.44,8.16 8.95,-7.9 17.8,6.83 13.62,8.37 7.44,-9.55 28.28,10.71 11.84,-5.79 16.66,16.94 -14.12,-1.52 -12.44,-5.23 -8.77,7.78 -15.46,-4.37 -13.65,-8.4 -10.14,6.72 -16.99,-4.87 -16.04,-9.86 -10.68,6.5 -16.2,-5.95 -9.69,-6.06 -7.57,13.45 16.04,0 11.85,3.28 7.57,-13.45 15.85,4.17 14.32,8.65 10.68,-6.5 15.77,5.04 13.86,8.99 10.14,-6.72 15.57,4.61 13.18,7.74 8.77,-7.78 56.23,-23.56 25.16,-27.73 70.36,-56.92 51.68,-33.36 40.63,-35.62 78.17,-48.43 31.96,-10.91 29.4,-10.18 50.81,-24.82 -61,-18.52 -67.95,11.44 -113.75,46.1 -23.92,18.1 -22.01,33.52 -61.68,37.55l46.97 -45.68c1.38,-1.46 3.49,-4.2 4.6,-5.43 1.14,-1.25 3.1,-3.72 4.59,-5.64 -52.63,-0.53 -88.26,35.85 -96.73,86.33zm615.52 2110.14c14.37,47.28 29.25,63.55 88.36,70.07 17.26,1.9 135.24,3.29 139.94,-7.33 1.06,-2.38 3.84,-1.69 5.76,-2.58l-11.91 -6.37c-17.86,-4.71 5.74,-1.5 -14.89,-2.77 -13.69,-0.85 -18.73,2.16 -30.98,4.38 -94.56,17.08 -100.9,-3.45 -136.35,-46.09l40.03 -100.41 -59.38 2.64 16.53 13.23c12.9,15.53 9.55,18.78 8.69,33.68l-30.22 10.61c20.72,16.65 12.28,14.41 15.5,61.11 -11.15,-8.13 -6.65,-4.67 -17,-14.57l-14.08 -15.6zm-582.42 -1651.49l-8.91 14.18c-28.75,4.96 -13.88,0.61 -19.76,15.08 -15.72,-5.37 -13.42,-8.57 -8.99,7.35 -14.99,-3.52 -12.39,-6.38 -8.02,8.35 -18.53,10.29 -12.67,1.43 -18.97,24.51 -1.71,1.32 -4.8,0.66 -5.44,3.58 -0.98,4.45 -10.03,2.18 -12.62,14.39 -10.59,49.8 -7.97,9.16 10.22,23.78l7.84 -41.75c1.78,-1.05 4.59,-4.6 5.33,-3.17 0.74,1.47 4.12,-2.79 5.09,-3.67 42.69,-38.9 -25.8,31.63 9.05,-9.39l-0.5 -8.28 8.4 0.12 -0.38 -8.47c13.14,2.22 10.8,5.38 8.99,-7.35l19.76 -15.08 8.91 -14.18 20.37 3.55c19.35,3.71 -1.26,0.96 10.12,16.46 -14.61,-2.84 -11.15,-6.02 -11.15,8.59 15.25,-0.64 13.72,4.12 11.15,-8.59l79.13 -3.43 -15.64 -3.11c-2.31,-0.76 -5.51,-1.14 -8.24,-2.15l-25.04 -12.28c46.69,-4.49 17.45,0.1 63.71,6.36 2.81,0.38 4.57,1.01 7.4,1.19 17.16,1.07 -1.43,3.96 28.67,-3.28 -4.47,-2.12 -34.39,-14.75 -34.47,-14.77 -35.99,-9.42 -33.67,0.9 -36.5,2.51l19.41 -4.6c-20.87,-32.74 -88.7,-3.05 -108.92,13.55zm-17.63 234.23c-34.95,-2.08 -11.68,-1.08 -15.64,10.55 -20.46,24.15 -46.49,72.29 -32.46,100.39 -8.44,21.02 -10.32,15.34 12.36,11.14 0,-17.16 4.35,-13.7 -12.36,-11.14 16.58,-29.62 39.28,-66.51 32.46,-100.39 31.7,1.89 12.25,3.37 15.64,-10.55 40.99,1.24 26.46,-0.07 52.27,-14.8 24.93,-14.24 22.87,-5.43 34.53,-25.64 0,-20.19 -5.56,-18.2 12.41,-11.71l-3.93 -10.41c-14.53,8.47 -33.61,16.36 -48.99,25.01 -4.92,2.77 -25.89,13.63 -27.32,14.56 -22.32,14.55 -11.19,2.42 -18.97,22.99zm14.07 47.71c-6.78,5.63 -8.24,0.31 -14.1,11.85 -5.66,11.16 -3.74,7.48 -4.35,19.93 -11.91,5.49 -6.5,-14.24 -12.21,20.81 13.31,-8.17 11.43,15.53 12.21,-20.81l18.45 -31.78c1.42,-1.36 3.51,-5.62 4.07,-4.26l29.38 -28.39c8.5,-8.24 7.9,-7.72 14.11,-15.95 -27.55,9.41 -15.75,3.13 -29.67,16.78 -14.44,14.15 -12.35,13.94 -17.89,31.82zm762.65 -49.99c-17.46,-5.14 -13.1,-6.75 -6.63,10.34 -1.68,1.24 -4.69,0.65 -5.18,3.54 -0.48,2.85 -3.89,3.17 -4.45,4.27 -7.36,14.22 -4.06,6.2 -6.23,19.49 -5.91,5.07 -5.06,-0.73 -12.18,12.29 -2.28,4.18 -5.53,13.02 -6.5,17.57 -5.45,25.78 -5.12,32.63 7.22,43.31 -5.55,18.15 -9.94,16.27 7.94,10.56 3.31,11.96 -12.19,10.84 19.02,7.16 7.09,21.83 146.62,14.12 159.75,-0.05 25.1,-0.86 14.14,7.05 15.9,-10.31 21.41,-3.48 15.73,-0.28 11.75,-34.91 -2.07,-17.98 -7.09,-25.67 -13.77,-36.32l-0.95 9.39 2.97 61.84 -15.9 10.31 -159.75 0.05 -19.02 -7.16c2.38,-14.85 6.14,-12.35 -7.94,-10.56 13.62,-16.4 16.39,-46.08 11.46,-73.17 10.33,-4.6 24.08,-1.05 15.86,-27.3 15.25,4.37 10.73,5.68 6.63,-10.34 15.58,4.27 13.33,8.42 11.38,-6.64l8.86 4.46 0 -11.87 -8.86 7.41c-17.76,-5.48 -16.62,-10.69 -11.38,6.64zm-478.44 -189.24l-11.41 -7.56 -16.81 2.35c2.86,-15.5 4.89,-9.61 -13.74,-11.49 0,20.51 -5.26,17.59 13.74,11.49l16.81 -2.35 11.41 7.56c-12.1,27.05 21.59,30.68 -26.74,17.13l-7.46 -5.3 7.46 5.3c25.78,13.26 10.02,8.46 44.65,5.43 8.44,36.26 27.31,75.99 61.33,89.74l-73.43 -160.62c-16.15,-53.34 8.77,-22.71 -24.78,-55.3 0.21,22.85 4.73,37.47 10.76,53.24 11.29,29.55 11.94,19.08 14.37,49.62l-6.16 0.76zm536.5 916.33c-15.4,20.07 -8.94,21.5 -28.78,39.52l-121.75 95.11 -3.56 18.24c-29.23,-5.2 -12.65,-4.05 -18.68,6.86 -30.53,-6.13 -12.28,-3.03 -17.1,7.5 -17.6,-5.84 -14.15,-10.14 -14.15,7.28 19.04,1.81 18.32,8.11 14.15,-7.28l17.1 -7.5 18.68 -6.86c34.09,-9.26 81.66,-61.77 109.55,-87.04l15.04 -13.71 1.67 -4.43c1.55,-0.82 6.81,-4.34 7.97,-4.92 24.99,-12.65 -6.89,-9.89 4.43,0 14.22,-11.09 8.54,-2.91 16.69,-14.48 5.15,-7.32 7.5,-15.73 12.93,-27.58l-14.19 -0.71zm-174.84 143.81c33.52,-2.43 13.3,2.54 21.31,-13.19 -36.41,4.17 -13.4,-0.32 -21.31,13.19zm-141.21 -790.83c-11.88,-61.65 -32.57,-30.27 -104.94,-113.96 -5.12,-5.91 -12.54,-14.91 -15.54,-18.15l10.39 48.83c1.22,1.25 3.17,2.83 4.44,4 1.29,1.18 3.53,2.42 4.85,3.56l9.57 7.28c38.96,35.19 56.95,64.1 91.23,68.44zm-270.24 -504.66l23.81 115.03 25.98 -41.47c-7.49,-14.58 -14.6,-28.58 -19.83,-48.23 -7.27,-27.33 -1.43,-31.66 -16.48,-54.06 -2.8,38.42 7.7,43.78 3.75,66.89l-17.23 -38.16zm796.4 651.91c51.99,-17.5 27.31,-28.83 49.77,-70.65 35.68,-66.4 12.74,-43.36 5.73,-52.23l-55.5 122.88zm-1150.24 -764.06c-16,17.24 -1.99,8.07 -25.85,18.19l3.03 -32.41c-1.08,1.85 -2.78,2.49 -3.26,5.51 -4.84,30.02 4.81,-9.52 -6.36,11.27 -21.06,39.19 -20.43,31.85 -24.49,69.38 21.3,-12.32 13.62,-2.04 34.07,-33.87 11.48,-17.84 14.38,-19.35 22.86,-38.07zm384.88 703.29c12.07,-2.45 8.89,-4.93 9.68,7.31l-15.6 -1.51 -8.34 14.73 23.94 -13.22c15.36,-4.71 20.91,15.22 18.37,-41.24 -1.21,-26.79 -8.65,-30.93 -17.2,-40.96 3.79,65.43 -13.7,45.93 -10.85,74.89zm198.17 -1305.92l-123.11 -63.21c21.89,27 71.06,64.99 123.11,63.21zm770.94 1610.72c16.38,-11.04 0.11,-4.59 25.9,-9.45 -18.17,34.44 9.05,23.92 10.4,24.35 -6.86,-42.19 -3.13,-15.87 -10.4,-24.35 -5.32,-3.52 0.81,-2.52 -15.42,-5.53 -13.16,-2.43 -4.9,4.61 -14.59,-2.22 4.23,-15.34 7.52,-20.63 15.75,-37.4 -41.54,-7.75 -35.66,8.36 -46.74,38.15 8.29,-7.92 3.09,-2.67 12.1,-15.24 16.05,-22.41 -2.33,-20.66 22.33,-15.51 -1.31,2.49 -10.61,18.94 -11.02,24.66 -1.4,20 4.1,16.86 11.69,22.54zm-1052.43 -320.88l21.93 2.46 -4.25 -38.68 -15.97 -4.52 1.55 3.18 -3.26 37.56zm-33.02 329.15c7.78,32.86 -4.07,16.47 13.8,27.54 -19.59,28.87 7.08,5.51 -25.29,18.9 1.7,-14.99 4.96,-11.93 -9.88,-9.03l0.48 -42.16 24.71 5.79c13.95,-75.27 1.87,-25.54 -20.88,-43.42l-3.83 37.63c-4.89,5.55 -10.82,-22.31 -8.4,21.25 0.93,16.77 3.41,15.09 7.92,20.91 -5.68,18.24 -8.43,14.67 9.88,9.03 1.68,1.34 4.52,0.91 5.4,3.55l41.13 19.36c94.35,36.44 64.51,17.37 141.19,34.44l26.32 7.58c1.34,0.43 3.9,1.58 5.92,2.16 -7.03,18.44 -9.52,15.04 9.08,8.58 -4.93,16.4 -5.15,9.54 14.61,6.09 0,-16.91 3.05,-12.07 -14.61,-6.09 3.6,-16.96 7.07,-14.61 -9.08,-8.58 11.53,-10.62 0.42,-17.84 36.74,-14.67 33.69,2.95 8.11,2.27 20.01,7.88 1.92,0.91 4.1,2.56 5.77,3.45l11.32 6.66 -5.04 17.84 -27.87 4.22c-1.07,-12.33 17.59,-6.22 -20.66,-12.76 9.98,16.83 -14.83,24.05 20.66,12.76 4.15,3.15 0.14,4.63 25.21,14.46 13.54,5.32 -4.59,1.6 27.18,6.79 47.33,7.72 178.47,16.14 208.12,-7.64 -56.33,-26.11 -102.93,30.7 -211.76,-27.89 -12.69,-6.84 -2.92,-2.93 -15.84,-7.78l-10.69 -23.11c85.33,-28.73 100.39,-9.01 221.56,-108.2 36.95,-30.25 57.61,-34.27 94.19,-76.08 30.9,-35.32 40.49,-62.29 90.53,-80.92 45.08,87 23.14,108.75 -19.72,186.57 -19.55,35.47 -22.76,51.29 -49.06,76.88l-34.35 34.22c-27.72,28.89 3.02,5.89 -38.88,24.4 74.41,9.51 151.07,-98.7 155.32,-125.63 10.7,-15.95 34.53,-74.26 40.9,-87.87l9.44 -13.39 2.68 -1.27 6.85 -10.08 5.5 -11.71c12.74,1.07 9.74,3.75 7.7,-9.23l6.9 -10.09 10.46 -7.94 12.66 -2.86 -12.66 2.86 -10.46 7.94c-12.06,0 -8.89,-2.65 -6.9,10.09 -11.78,-0.03 -8.89,-2.83 -7.7,9.23 -13.58,-1.23 -9.19,-3.17 -5.5,11.71l-6.85 10.08 -12.12 14.66c-9.23,29.09 0.38,0.2 -16.76,14.7 4.21,-28.14 33.96,-121.71 -20.49,-144.53 -74.06,-31.02 -90.72,79.12 -176.07,134.51 -10.77,6.98 -32.4,19.36 -41.47,26.79 -33.65,27.57 -41.44,36.49 -79.83,55.54 -107.76,53.47 -183.09,86.06 -315.18,35.14l-82.31 -59.26zm-471.84 -873.04c-13.52,25.54 -12.88,19.55 -54.98,41.7l-100.18 60.49c-48.92,34.2 -99.24,58.16 -166.37,138.65 -90.79,108.82 -78.15,88.97 -147.97,199.8l-10.17 14.97c-44.06,71.43 -138.58,370.07 -141.83,435.93 55.9,-26.95 49.71,-82.43 62.69,-137.77 14.51,-61.88 24.59,-88.67 44.27,-149.3l57.65 -137.05c10.56,-28.82 -4.37,-0.02 12.38,-28.25 71.57,-120.63 129.7,-214.57 250.66,-290.11l49.58 -36.12c1.52,-0.98 3.66,-2.27 5.2,-3.22 20.02,-12.39 41.45,-22.74 62.7,-38.81 114.91,-86.92 48.89,-34.46 126.83,-66.6 -1.65,-1.96 -4.29,-7.2 -5.25,-5.57l-42.8 -31.7c-78.26,-37.39 -401.95,-103.55 -488.42,-110.44 16.93,18.03 4.8,10.29 30.41,22.66 4.44,2.16 31.69,7.47 35.91,7.82 89.46,7.39 98.88,13.52 192.59,34.4 33.68,7.51 80.2,26.88 115.48,37.66 50.48,15.41 79.36,4.95 111.62,40.86zm1945.2 -254.66c21.33,6.7 30.96,11.89 53.59,24l-43.86 37.44c-16.02,-23.35 -3.49,0.33 -7.75,-31.38 -2.89,-21.55 -1.13,-11.56 -1.98,-30.06zm65.2 16.08c9.55,-31.86 29.91,-26.51 12.33,-55.44 -35.92,18.35 -16.2,40.37 -50.85,40.11l-22.94 -48.08c-16.4,20.6 -21.34,92.2 -10.17,124 60.57,-10.63 23.29,-12.58 48.17,-25.26 11.33,-5.77 131.3,-14.09 202.89,-52.2 38.52,-20.5 81.47,-33.12 119.62,-49.46 41.84,-17.92 68.08,-42.12 111.49,-60.34 -28.58,106 27.19,31.55 -73.8,234.28l-6.02 11.24c-4.16,14.04 -4.79,5.88 -1.73,19.09 7.43,32.1 -14.86,-6.65 12.58,22.73l11.05 -32.05c71.49,-132.8 44.31,-150.16 73.31,-222.3 16.83,-41.85 37.87,-35.69 47.11,-74.57 -23.25,-7.69 -35.24,-2.62 -58.68,11.33 -21.65,12.9 -7.61,5.45 -24.62,18.49 -46.63,35.74 -329.42,161.85 -389.74,138.43zm24.53 643.68c41.23,-5.69 12.63,0.47 23.82,53.93 -8.31,10.58 -3.78,-4.85 -9.05,16.26 -2.39,9.61 -1.76,16.6 -2.24,23 -12.89,11.22 -14.47,-24.29 -10.01,28.32 9.32,-8.71 10.71,5.89 10.01,-28.32 17.33,-19.56 13.53,-12.1 11.29,-39.26 27.98,-73.18 7.65,-182.99 -15.12,-257.07 -16.76,-54.59 -36.25,-54.14 -71.59,-83.44 -33.79,-28.02 -40.92,-52.27 -101.51,-53.6 -76.45,-1.68 -184.74,73.37 -207.15,101.25 -21.69,26.97 -107.54,167.5 -81.38,211.34 24.14,-46.24 3.47,-64.22 81.84,-184.89 17.89,-27.54 108.26,-103.78 158.63,-113.05 48.28,-8.88 148.41,56.26 170,94.48 64.05,113.35 30.65,165.65 42.46,231.05zm-820.25 -1133.2c69.83,-11.67 99.59,-21.58 187.36,-9.51 31.09,4.27 34.67,10.63 70.1,9.19 -24.88,-20.92 -77.17,-24.15 -116.15,-30.43 -74.14,-11.97 -72.68,15.66 -116.71,5.99 -31.24,-79.02 5.34,-54.97 -67.04,-133.39l-14.11 -19.32c-33.07,-49.79 -105.55,-138.1 -166.51,-153.84 15.6,71.55 33.29,34.63 129.05,155.77l44.84 56.26c25.78,38.14 37.93,68.23 49.17,119.28zm-1128.65 1203.7c-10.69,10.99 -4.34,-0.88 -11.54,15.75l-17.31 68.05c1.25,0.6 3.62,-0.58 4.07,0.92 4.91,16.51 2.13,-0.01 8.61,1.99l2.69 59.02c-1.07,-1.87 -2.37,-7.89 -3,-6.57 -8.35,17.52 -5.66,-10.95 -6.88,-13.15l-14.72 -24.17c2.99,22.81 6.5,44.94 8.48,57.48 36.99,-13.43 34,28.16 28.08,-33.14 0,17.83 -5.49,15.86 9.4,13.48 -2.85,36.9 -0.52,10.91 8.08,18.63l10.07 22.86 10.4 38.22c-2.55,-2.07 -4.8,-4.89 -7.14,-6.81l-20.83 -16.26c-22.91,-14.3 29.04,1.07 -21.11,-7.82l23.87 13.98c11.04,43.91 -7.72,9.88 15.19,65.06 -17.45,-7.29 -15.55,-10.77 -8.82,7.11 -15.53,-5.75 -12.26,-8.47 -10.04,7.92l-1.64 14.95c-13.08,-1.84 -10.02,-4.36 -7.67,8.99l-40.13 -15.43 -6.47 -11.41c-2.89,14.99 -7.17,12.97 6.47,11.41 4.68,15.19 -0.63,15.63 15.03,20.72 21.59,7.01 24.05,-4.78 25.1,-5.29 14.71,4.18 11.17,6.2 7.67,-8.99l1.64 -14.95 14.1 -2.77 -4.06 -5.15c17.33,5.35 16.38,9.63 8.82,-7.11 32.05,-5.89 -0.94,8.84 19,-6.86 14.69,-11.54 8.19,-6 13.67,-19.72l28.58 10.03 15.68 -1.62 0.36 -6.08c-17.19,-6.68 -10.57,-2.06 -19.55,-17.8 -7.04,-12.33 -9.97,-27.33 -13.71,-37.21 -10.43,11.15 -22.61,7.52 -11.36,52.68 -16.67,-23.37 -17.63,-43.96 -33.05,-59.79 6.03,-26.52 5.9,-21.34 -10.07,-22.86 2.94,-30.09 5.65,-16.56 -8.08,-18.63l8.47 -51.18c6.74,-22.34 2.81,1.37 4.93,-13.04 0.93,-6.4 -5.89,-42.29 -9.44,-60.6 29.17,18.28 23.33,25.42 38.82,-3.3 0,4.46 3.91,6.97 4.78,12.52 0.72,4.62 4.77,5.73 6.78,8.84l-9.87 -37.8 -22.37 -11.84c-1.04,1.63 -2.44,4.1 -3.55,5.84 -1.01,1.58 -2.17,3.82 -3.19,5.39 -0.96,1.45 -2.22,3.5 -3.19,4.89l-20.05 0.62zm1766.08 -18.86c-11.81,-51.03 -87.41,-56.12 -116.91,-210.15 68.31,-34.85 52.05,-71.05 191.72,-75.76 5.68,11.78 28.64,61.65 36.49,71.79 42.3,-134.51 -265.86,-85.72 -245.04,51.38 4.86,31.98 17.03,46.14 34.12,67.96 48.49,61.84 64.31,98.6 99.62,94.78zm-2779.85 -605.8c30.74,-8.94 42.73,-31.79 65.11,-67.52l22.59 -26.88c56.68,-51.36 37.02,-33.05 66.42,-78.44 16.49,-25.46 19.34,-14.64 38.18,-37.77 54.4,-66.84 71.69,-57.86 131.69,-122.48 -72.97,11.61 -160.96,130.92 -217.57,181.51 -23.49,21.01 -18.13,28.86 -35.45,49.1 -1.06,1.24 -2.93,2.92 -4.05,4.09 -1.14,1.19 -2.92,2.97 -4.1,4.11l-33.24 34.53c-12.59,18.89 -23.52,33.38 -29.58,59.75zm1476.95 -27.54l-10.76 4.15c-50.05,3.55 -71.36,33.78 -86.57,74.25 73.78,-11.99 23.85,-26.31 83.03,-49.56l-4.43 46.03c10.57,59.34 4.62,16.24 18.61,33.73 -4.11,-23.37 -3.47,-31.56 -5.33,-52.25 -2.94,-32.81 5.22,-16.92 -8.85,-27.51l3.54 -24.69c16.69,6.13 17.38,12.46 10.76,-4.15l16.79 83.06c6.19,21.39 -1.12,5.45 10.92,18.74 13.58,-103.72 -22.15,-186.59 52.63,-270.15 -17.35,6.32 -8.81,4.02 -28.8,24.73 -38.69,40.09 -44.08,77.27 -51.54,143.62zm341.84 62.44c-3.65,14.48 -5.3,10.41 9.92,6.89 -0.41,24.94 -5.53,15.07 9.19,15.59 -2.77,14.41 -6.49,11.87 7.12,10.97 -4.65,16.34 -7.92,14.1 8.08,8.54 -5.21,15.57 -8.17,12.93 7.7,9 -2.82,14.26 -5.54,11.33 8.76,8.19 -2.17,14.04 -4.8,10.98 9.27,7.68 -2.58,14.96 -4.91,9.62 12.15,11.97 0,-18.44 4.98,-15.55 -12.15,-11.97 2.43,-13.94 4.91,-10.74 -9.27,-7.68 2.07,-14.55 5.26,-12.12 -8.76,-8.19 2.58,-16.03 6.89,-15.04 -7.7,-9 5.77,-13.3 6.94,-9.31 -8.08,-8.54 4.48,-15.61 8.31,-13.14 -7.12,-10.97l-9.19 -15.59c4.23,-16.31 6.21,-12.47 -9.92,-6.89l-13.14 -37.86c-20.25,-29.82 -2.38,-3.3 -15.06,-16.97 -15.18,28.87 3.08,22.67 -14.61,5 -6.56,-6.56 -9.9,-22.59 -10.68,-31.62 -3,-35.16 15.72,-28.68 -4.27,-62.67 -25.52,12.6 -29.3,39.86 -35.46,68.21 -2.68,12.37 -6.72,31.07 -8.69,41.54 -6.57,34.94 -11.09,24.8 4.63,43.96l16.03 -73.25c23.77,9.66 12.55,-0.8 32.16,29.2 10.18,15.57 8.19,18.83 19.62,36.29l29.47 -1.83zm-19.82 -76.92c-7.48,-26.17 3.75,-12.2 -18.13,-28.96 -8.24,14.54 -13.16,-22.62 -5.62,21.16 8.72,50.7 5.34,16.91 17.7,27.3 -7.19,-32.51 -5.05,-11.75 6.05,-19.5zm46.87 100.99l6.82 9.75c-5.28,16.61 -8.13,13.92 8.36,8.29l12.09 5.42c-1.27,12.5 -4.15,9.88 8.19,8.31l10.52 7.95c0,-12.77 2.91,-9.43 -10.52,-7.95 3.17,-13.79 5.78,-10.91 -8.19,-8.31 1.5,-15.02 3.56,-10.48 -12.09,-5.42 3.6,-14.34 6.17,-11.38 -8.36,-8.29 4.99,-15.55 8.73,-13.58 -6.82,-9.75 1.39,-14.67 4.65,-12.32 -9.25,-7.76 0.3,-16.49 2.22,-10.32 -3.72,-22.97 -13.84,-29.51 0.02,-5.93 -15.54,-16.65 3.17,-15.8 7.18,-12.7 -7.67,-12.7 -4.09,17.68 -8.98,15.46 7.67,12.7 2.79,24.8 2.86,20.22 19.26,39.62 -7.31,15.66 -7.96,10.99 9.25,7.76zm476.5 1937.12c-0.32,-0.32 -2.09,-2.06 -2.26,-2.22l7.81 7.66c-1.84,1.82 -4.75,-4.67 -5.55,-5.44zm76.64 -84.43c0.01,-2.45 6.19,3.51 4.88,5.59 -1.32,2.09 -4.22,-4.83 -4.88,-5.59 -0.27,-0.31 -1.86,-2.11 -2,-2.27 -0.15,-0.17 1.99,3.28 2,2.27zm-331.25 145.38c41.83,3.77 57.3,0.98 98.19,-7.53l64.44 -16.93c2.04,-0.78 4.24,-1.66 6.25,-2.5l34.96 -17.3c56.32,-27.41 53.18,0.48 61.42,-17.73 10.85,-23.96 3.72,10.08 -2.41,-10.95 -5.37,-18.46 3.57,-29.03 26.28,-45.96 7.96,-5.91 13.37,-8.67 20.9,-13.92l14.12 -10.62c-0.92,39.87 6.96,10.68 -16.63,39.67 21.48,-9.22 49.56,-41.96 55.03,-70.56 -25.68,25.23 -11.44,15.35 -31.83,20.49 -1.92,-55.66 35.86,-53.72 22.72,-79.18 -38.75,56.27 -62.83,106.53 -125.74,161.59 -27.08,23.7 -49.22,26.05 -81.06,37.34l-24.74 9.56c-62.54,21.83 -67.82,5.99 -109.33,17.73 -1.73,0.48 -5.22,5.17 -6.43,3.19 -1.2,-1.97 -4.24,2.18 -6.14,3.61zm266.14 -1715.92l17.17 8.43 13.96 5.86c0,-14.14 2.51,-9.28 -13.96,-5.86 -1.31,-13.1 9.69,-8.53 -17.17,-8.43 -7.57,-16.34 0.4,-20.7 6.36,-30.98l33.86 14.07c-14.7,-21 -28.02,-25.89 -50.81,-42.4l-19.63 27.98c-33.12,25.94 -110.6,-45.84 -223.25,-70.35l53.15 41.87c49.48,21.04 155.47,62.47 200.32,59.81zm-1249.96 60.62c-10.53,5.26 -10.16,-16.33 -9.78,15.48 -15.64,-4.96 -9.49,-5.03 -4.87,12.25l-5.98 10.57c-15.87,-3.08 -14.32,-7.17 -9.41,7.73l-8.41 12.08c16.04,0 12.79,3.69 8.41,-12.08 14.43,2.83 12.1,6.26 9.41,-7.73 15.38,3.82 10.85,5.19 5.98,-10.57 14.83,1.92 9.86,3.56 4.87,-12.25 14.06,-2.58 12.88,13.06 9.78,-15.48 25.47,-24.21 24.18,-41.76 43.65,-59.82 1.6,-1.48 4.69,-3.24 6.09,-4.4 1.44,-1.2 4.29,-2.88 6.57,-4.13l-5.4 33.92 -4.27 12.65 -12.77 12.6c-9.77,5.9 -11.38,-11.01 -7.65,17.56l-6.39 16.85c18.48,0 12.66,3.2 6.39,-16.85l7.65 -17.56 12.77 -12.6 4.27 -12.65c14.21,-13.42 2.02,16.93 13.15,-19.63 3.86,-12.67 -0.22,-11.49 4.5,-28.23 8.4,-29.83 133.21,-161.5 156.33,-184.69 25.1,-25.19 51.83,-37.48 65.53,-74.11 -40.39,10.98 -272.94,279.13 -290.42,341.09zm1317.76 -966.43c85.21,27.57 188.56,114.72 243.69,119.03 -13.36,-25.34 -58.84,-42.53 -113.29,-72.76l-90.3 -54.69c-60.18,-26.02 -28.22,-2.6 -40.1,8.42zm49.37 2163.89c-5.59,46.4 7.53,78.91 44.46,93.86 1.82,-44.91 3.04,-32.47 -17.99,-60.75l32.29 -34.85c-0.43,-4.6 -3.35,-4.83 -4.9,-7.33l-12.1 23.9c-18.77,-6.09 -9.68,-3.89 -19.29,-7.41 -11.7,-4.28 -8,-3.76 -22.47,-7.42zm341.26 -1544.16c27.67,-5.63 60.77,-47.64 73.26,-77.08 -49.76,10.68 -16.51,6.51 -42.21,35.51 -23.42,26.41 -24.55,-2.23 -31.05,41.57zm-714.95 600.21c0.06,-11.5 3.7,-15.47 -1.94,-29.26 -14.99,-36.71 -4.96,-13.22 -24.12,-19.24 -12.12,33.54 -13.42,47.26 26.06,48.5zm308.53 533.09l-14.14 4.72c2.51,42.83 -1.64,33.7 43.22,40.84 -13.06,-37.23 -3.08,-20.6 -29.08,-45.56zm-1410.23 -817.47c22.11,-24.01 18.62,-34.6 15.68,-70.2 -20.06,18.09 -33.44,43.67 -15.68,70.2zm-645.98 610.03l0 8.46 16.94 0 0 -16.94 -8.47 0 0 8.48 -8.47 0zm584.82 -25.43l0 -8.48 -8.48 0 0 -8.48 -8.47 0 0 8.48 8.47 0 0 8.48 8.48 0zm-42.38 -16.96l0 -8.47 -8.48 0 0 8.47 8.48 0zm-25.42 -59.32l-76.29 0 0 8.47 76.29 0 0 -8.47zm-50.86 33.89l0 -8.47 -33.9 0 0 8.47 33.9 0zm-59.33 -8.47l8.48 0 0 -8.47 -8.48 0 0 -8.48 -8.48 0 0 8.48 8.48 0 0 8.47zm84.76 25.43l8.47 0 0 -8.48 -8.47 0 0 -8.48 -8.48 0 0 8.48 8.48 0 0 8.48zm-135.62 -33.9l25.43 0 0 8.47 25.43 0 0 -8.47 -8.48 0 0 -8.48 42.38 0 0 -8.47 -59.33 0 0 8.47 -25.43 0 0 8.48zm262.74 76.28l0 -8.48 -16.94 0 0 -8.47 -8.48 0 0 8.47 8.48 0 0 8.48 16.94 0zm-262.74 -76.28l0 -8.48 25.43 0 0 -8.47 -33.91 0 0 8.47 -76.28 0 0 8.48 -59.32 0 0 8.47 -33.91 0 0 8.47 -25.42 0 0 8.48 -42.38 0 0 8.48 -16.96 0 0 8.47 50.86 0 0 -8.47 16.96 0 0 -8.48 67.8 0 0 -8.48 16.95 0 0 -8.47 84.76 0 0 -8.47 25.42 0zm-339.03 93.22l0 8.48 -8.47 0 0 16.95 8.47 0 0 -8.47 8.48 0 0 -16.96 8.48 0 0 -8.46 8.47 0 0 -8.48 8.48 0 0 -8.48 -16.95 0 0 -33.9 8.47 0 0 -25.43 -8.47 0 0 25.43 -8.48 0 0 59.32 -8.48 0zm-8.47 33.91l-8.47 0 0 8.48 -8.48 0 0 -25.43 8.48 0 0 -16.96 -8.48 0 0 16.96 -8.47 0 0 33.9 16.95 0 0 -8.47 8.47 0 0 -8.48zm559.4 -76.28l0 -8.48 -25.43 0 0 8.48 25.43 0zm-84.76 -25.43l0 8.48 8.48 0 0 -8.48 -8.48 0 0 -8.48 -16.95 0 0 8.48 16.95 0zm658.12 -959.05l0 12.29 6.05 -2.34 1.13 -9.95 -7.18 0zm-76.28 -228.84l16.95 0 0 -8.48 -16.95 0 0 8.48zm-245.8 194.94l0 8.48 -8.47 0 0 8.48 -8.48 0 0 8.47 -8.48 0 0 16.95 -8.47 0 0 16.95 -8.48 0 0 16.95 8.48 0 0 -8.47 8.47 0 0 -8.48 8.48 0 0 -16.95 8.48 0 0 -8.48 8.47 0 0 -16.94 8.48 0 0 -16.96 8.47 0 0 -8.47 8.47 0 0 -8.48 -8.47 0 0 8.48 -8.47 0 0 8.47 -8.48 0zm42.38 -42.38l-8.48 0 0 8.48 16.95 0 0 -16.96 -8.47 0 0 8.48zm-33.9 50.86l8.47 0 0 -8.48 8.47 0 0 -8.47 8.48 0 0 -8.48 8.48 0 0 -8.48 8.47 0 0 -8.47 8.48 0 0 -16.96 8.48 0 0 -8.46 8.47 0 0 -8.48 8.48 0 0 -8.48 8.48 0 0 -16.95 -16.96 0 0 8.48 -8.47 0 0 8.47 -8.48 0 0 8.48 -8.48 0 0 8.48 -8.47 0 0 8.46 -8.48 0 0 8.48 -8.48 0 0 8.48 -8.47 0 0 8.47 -8.47 0 0 8.48 -8.48 0 0 16.95 -8.47 0 0 8.48 -8.48 0 0 8.48 8.48 0 0 -8.48 8.47 0 0 -8.48 8.48 0 0 -8.47 8.47 0 0 -8.48 8.47 0 0 8.48 -8.47 0 0 8.47 -8.47 0 0 8.48zm25.42 -50.86l8.48 0 0 -8.48 8.47 0 0 16.96 -16.95 0 0 -8.48zm-25.42 59.34l-8.48 0 0 8.47 8.48 0 0 -8.47zm-33.91 16.94l-8.47 0 0 8.48 8.47 0 0 -8.48zm-1110.3 50.86l0 -16.95 8.47 0 0 -16.96 8.48 0 0 -16.95 8.48 0 0 -8.47 8.46 0 0 -8.47 8.48 0 0 -8.48 8.48 0 0 -16.95 8.47 0 0 -8.48 8.48 0 0 -8.48 8.48 0 0 -16.95 8.47 0 0 -16.94 8.48 0 0 -8.48 8.48 0 0 -8.48 8.47 0 0 -8.47 8.48 0 0 -8.48 8.47 0 0 -8.48 8.47 0 0 -16.95 8.48 0 0 -8.48 8.48 0 0 -8.47 8.47 0 0 -8.47 8.48 0 0 -8.48 8.48 0 0 -8.47 8.47 0 0 -8.48 8.48 0 0 -8.48 8.48 0 0 -8.47 8.46 0 0 -8.48 8.48 0 0 -8.48 8.48 0 0 -8.47 16.95 0 0 -8.48 8.48 0 0 -8.47 8.47 0 0 -8.47 16.95 0 0 -8.48 8.48 0 0 -8.48 8.47 0 0 -8.47 8.47 0 0 -8.48 8.48 0 0 -8.48 -16.95 0 0 8.48 -16.95 0 0 8.48 -8.47 0 0 8.47 -8.48 0 0 8.48 -8.47 0 0 8.48 -16.96 0 0 8.47 -16.95 0 0 8.47 -8.48 0 0 8.48 -8.46 0 0 8.47 -8.48 0 0 8.48 -8.48 0 0 8.48 -8.47 0 0 8.47 -8.48 0 0 8.48 -8.48 0 0 8.48 -8.47 0 0 8.47 -8.48 0 0 8.48 -8.48 0 0 8.47 -8.47 0 0 8.47 -8.47 0 0 8.48 -8.48 0 0 16.95 -8.47 0 0 8.48 -8.48 0 0 8.48 -8.48 0 0 8.47 -8.47 0 0 8.48 -8.48 0 0 16.94 -8.48 0 0 8.48 -8.47 0 0 8.48 -8.48 0 0 8.47 -8.48 0 0 8.48 -8.46 0 0 8.48 -8.48 0 0 16.95 -8.48 0 0 8.48 -8.47 0 0 16.94 -8.48 0 0 50.86 8.48 0zm1483.24 -135.62l16.94 0 0 16.96 -8.48 0 0 16.95 -8.46 0 0 -25.43 -8.48 0 0 33.91 -8.48 0 0 33.9 -8.47 0 0 8.47 8.47 0 0 -8.47 16.96 0 0 101.7 8.46 0 0 -135.6 8.48 0 0 -25.43 8.47 0 0 -50.85 8.48 0 0 -8.48 8.48 0 0 -8.48 8.47 0 0 -25.43 8.48 0 0 -8.47 8.48 0 0 -8.47 -16.96 0 0 16.94 -16.95 0 0 8.48 -8.48 0 0 25.43 -8.47 0 0 8.48 -8.48 0 0 25.43 -8.46 0 0 8.46zm-144.1 -127.13l-16.95 0 0 8.48 -8.47 0 0 8.48 -8.47 0 0 8.47 -8.48 0 0 8.48 -16.95 0 0 8.47 -8.48 0 0 8.47 8.48 0 0 -8.47 16.95 0 0 -8.47 8.48 0 0 -8.48 8.47 0 0 -8.47 8.47 0 0 -8.48 16.95 0 0 -8.48zm-25.42 33.91l-8.47 0 0 8.47 -8.48 0 0 8.47 8.48 0 0 -8.47 8.47 0 0 -8.47zm-84.75 67.8l0 8.48 -8.48 0 0 8.48 -8.48 0 0 8.46 8.48 0 0 -8.46 8.48 0 0 -8.48 8.46 0 0 -8.48 8.48 0 0 -8.47 8.48 0 0 -8.48 8.47 0 0 -8.48 8.48 0 0 -8.47 8.48 0 0 -8.48 8.47 0 0 -8.48 -8.47 0 0 8.48 -8.48 0 0 8.48 -8.48 0 0 8.47 -8.47 0 0 8.48 -8.48 0 0 8.48 -8.48 0 0 8.47 -8.46 0zm59.32 -84.75l-8.47 0 0 8.47 -8.48 0 0 8.48 -8.48 0 0 8.47 -8.47 0 0 8.47 -8.48 0 0 8.48 16.95 0 0 -16.95 8.48 0 0 -8.47 8.48 0 0 -8.48 8.47 0 0 -8.47zm-67.8 33.89l8.48 0 0 -8.47 8.46 0 0 -8.47 8.48 0 0 -8.48 8.48 0 0 -8.47 8.47 0 0 -8.48 8.48 0 0 -8.48 33.91 0 0 8.48 -8.48 0 0 8.48 8.48 0 0 -8.48 8.47 0 0 -16.95 -42.38 0 0 8.47 -8.48 0 0 8.48 -8.47 0 0 8.48 -8.48 0 0 8.47 -8.48 0 0 8.48 -8.46 0 0 8.47 -8.48 0 0 8.47zm135.61 -50.85l-8.48 0 0 8.48 -8.48 0 0 8.48 8.48 0 0 -8.48 8.48 0 0 -8.48zm313.59 -457.68l0 8.47 8.48 0 0 8.48 8.47 0 0 8.48 8.48 0 0 8.47 8.48 0 0 8.48 8.47 0 0 16.95 8.48 0 0 25.42 8.48 0 0 8.48 8.47 0 0 8.48 16.95 0 0 -16.96 -8.47 0 0 8.48 -8.48 0 0 -8.48 -8.47 0 0 -25.42 -8.48 0 0 -16.95 8.48 0 0 8.48 8.47 0 0 16.95 8.48 0 0 -16.95 -8.48 0 0 -8.48 -8.47 0 0 -25.43 -8.48 0 0 -8.48 -8.48 0 0 -8.47 -8.47 0 0 -8.48 -8.48 0 0 -8.47 -8.48 0 0 -8.47 -8.47 0 0 -8.48 -8.48 0 0 8.48 8.48 0 0 8.47 8.47 0 0 8.47 8.48 0 0 8.48 8.48 0 0 8.47 8.47 0 0 8.48 8.48 0 0 25.43 -8.48 0 0 -8.48 -8.47 0 0 -8.47 -8.48 0 0 -8.48 -8.48 0 0 -8.48 -8.47 0 0 -8.47 -8.48 0zm-1652.74 703.48l0 16.95 16.94 0 0 -8.48 33.91 0 0 -8.47 16.95 0 0 -8.48 25.43 0 0 -8.48 -42.38 0 0 8.48 -25.43 0 0 8.48 -25.42 0zm364.44 -398.36l8.48 0 0 -8.47 -8.48 0 0 8.47 -16.94 0 0 8.48 -8.48 0 0 8.48 -8.47 0 0 8.46 8.47 0 0 8.48 8.48 0 0 -8.48 16.94 0 0 -8.46 16.96 0 0 -8.48 8.47 0 0 -8.48 8.48 0 0 -8.47 -8.48 0 0 -8.48 -8.47 0 0 8.48 8.47 0 0 8.47 -8.47 0 0 8.48 -16.96 0 0 8.48 -16.94 0 0 8.46 -8.48 0 0 -8.46 8.48 0 0 -8.48 16.94 0 0 -8.48zm1152.69 -288.17l0 8.48 8.48 0 0 8.47 16.95 0 0 -8.47 8.48 0 0 -8.48 -8.48 0 0 -8.48 -16.95 0 0 8.48 16.95 0 0 8.48 -16.95 0 0 -8.48 -8.48 0zm59.33 25.43l0 8.48 8.48 0 0 8.47 8.47 0 0 -8.47 -8.47 0 0 -8.48 -8.48 0 0 -8.48 8.48 0 0 -8.47 -25.42 0 0 8.47 8.46 0 0 8.48 8.48 0zm-203.41 669.57l-8.47 0 0 8.48 -8.48 0 0 16.95 16.95 0 0 -8.47 8.48 0 0 -8.48 -8.48 0 0 8.48 -8.47 0 0 -8.48 8.47 0 0 -8.48zm-983.18 -423.78l0 8.48 25.43 0 0 -8.48 8.48 0 0 -8.48 16.95 0 0 -8.47 25.42 0 0 -8.48 16.96 0 0 -8.48 8.47 0 0 -8.47 16.96 0 0 -8.47 16.95 0 0 -8.47 16.94 0 0 -8.48 16.96 0 0 -8.48 16.95 0 0 -8.47 16.95 0 0 -8.48 16.96 0 0 -8.48 16.94 0 0 -8.47 16.95 0 0 -8.48 25.43 0 0 -8.48 16.96 0 0 -8.46 16.94 0 0 -8.48 25.43 0 0 -8.48 16.95 0 0 -8.47 16.96 0 0 -8.48 16.95 0 0 -8.48 16.94 0 0 -8.47 25.43 0 0 -8.48 16.96 0 0 -8.48 16.95 0 0 -8.47 8.48 0 0 -8.47 25.41 0 0 -8.48 25.43 0 0 -8.47 8.48 0 0 -8.48 50.85 0 0 -8.48 8.48 0 0 -8.47 59.33 0 0 -8.48 59.33 0 0 -8.48 50.85 0 0 -8.47 8.48 0 0 -8.48 -50.85 0 0 8.48 -76.28 0 0 8.47 -42.39 0 0 8.48 -25.43 0 0 8.48 -25.42 0 0 8.47 -16.95 0 0 8.48 -25.43 0 0 8.48 -25.42 0 0 8.47 -25.43 0 0 8.48 -8.47 0 0 8.47 -25.43 0 0 8.47 -16.96 0 0 8.48 -16.94 0 0 8.48 -16.95 0 0 8.47 -16.96 0 0 8.48 -16.95 0 0 8.48 -16.95 0 0 8.47 -25.42 0 0 8.48 -16.96 0 0 8.48 -25.43 0 0 8.46 -8.47 0 0 8.48 -16.96 0 0 8.48 -25.42 0 0 8.47 -16.95 0 0 8.48 -16.95 0 0 8.48 -16.96 0 0 8.47 -16.94 0 0 8.48 -16.95 0 0 8.48 -16.96 0 0 8.47 -16.95 0 0 8.47 -16.95 0 0 8.47 -16.95 0 0 8.48 -8.47 0 0 8.48 -8.48 0 0 8.47 -25.43 0 0 8.48 -8.48 0zm-25.43 16.95l0 8.48 -16.94 0 0 8.48 -8.48 0 0 8.46 8.48 0 0 -8.46 16.94 0 0 -8.48 16.96 0 0 -8.48 8.47 0 0 -8.47 -16.95 0 0 8.47 -8.48 0zm-25.42 33.9l0 -8.48 -16.95 0 0 8.48 16.95 0zm1025.56 93.23l16.95 0 0 8.48 -16.95 0 0 -8.48zm-33.91 25.43l-8.48 0 0 8.48 -16.95 0 0 8.48 -8.47 0 0 8.47 -8.47 0 0 8.48 -8.48 0 0 8.47 -16.95 0 0 8.47 -16.96 0 0 8.48 -16.95 0 0 -8.48 8.48 0 0 -8.47 8.47 0 0 -8.47 8.48 0 0 -8.48 8.48 0 0 -8.47 16.95 0 0 -8.48 8.48 0 0 -8.48 -33.91 0 0 8.48 -8.48 0 0 8.48 -8.47 0 0 8.47 -8.48 0 0 8.48 -8.48 0 0 8.47 -8.46 0 0 8.47 -8.48 0 0 16.96 -8.48 0 0 16.95 -8.47 0 0 8.48 -8.48 0 0 8.47 -8.48 0 0 8.48 -8.47 0 0 8.48 -8.48 0 0 8.46 8.48 0 0 -8.46 8.47 0 0 -8.48 8.48 0 0 -8.48 8.48 0 0 -8.47 8.47 0 0 -8.48 16.96 0 0 16.95 -8.48 0 0 8.48 -8.48 0 0 8.48 -8.47 0 0 8.46 -8.48 0 0 8.48 8.48 0 0 -8.48 8.47 0 0 -8.46 8.48 0 0 -8.48 8.48 0 0 -8.48 8.46 0 0 -8.47 8.48 0 0 -8.48 8.48 0 0 -8.48 8.47 0 0 -8.47 8.48 0 0 -8.48 8.48 0 0 -8.48 16.95 0 0 -8.47 8.48 0 0 -8.47 16.94 0 0 -8.48 16.95 0 0 -16.95 8.48 0 0 -8.48 33.91 0 0 -8.47 25.42 0 0 -8.48 16.95 0 0 -8.48 8.48 0 0 -8.47 -59.33 0 0 8.47 -25.43 0 0 25.43zm211.89 -440.73l-16.95 0 0 -8.48 -8.48 0 0 -8.47 -42.38 0 0 -8.48 -42.37 0 0 -8.47 -220.36 0 0 8.47 152.56 0 0 8.48 76.28 0 0 8.47 33.89 0 0 8.48 50.86 0 0 8.48 16.95 0 0 -8.48zm-1423.91 678.05l228.85 0 0 8.48 50.85 0 0 -8.48 -25.43 0 0 -8.48 -254.27 0 0 8.48zm1322.21 -8.48l0 76.28 8.47 0 0 -76.28 -8.47 0 0 -16.95 -16.96 0 0 8.48 -16.95 0 0 8.47 -16.95 0 0 8.48 -8.47 0 0 8.48 -8.48 0 0 16.95 -8.47 0 0 8.48 8.47 0 0 -8.48 16.95 0 0 -8.48 8.47 0 0 -8.47 8.48 0 0 -8.48 16.95 0 0 -8.48 16.96 0zm144.08 -635.66l8.47 0 0 8.47 8.48 0 0 8.48 16.95 0 0 8.47 8.48 0 0 8.47 25.42 0 0 8.48 33.91 0 0 -8.48 -8.48 0 0 -8.47 -25.43 0 0 -8.47 -25.42 0 0 -8.48 -8.48 0 0 -8.47 -16.95 0 0 -8.48 -8.48 0 0 -8.48 -16.95 0 0 8.48 8.48 0 0 8.48zm127.14 559.38l0 33.91 -8.48 0 0 16.95 8.48 0 0 -8.47 16.95 0 0 -33.91 8.47 0 0 -33.91 -16.95 0 0 25.43 -8.47 0zm-618.73 110.19l0 -16.95 8.48 0 0 -8.48 -8.48 0 0 8.48 -8.47 0 0 8.47 -8.48 0 0 -16.95 8.48 0 0 -8.48 -8.48 0 0 8.48 -8.48 0 0 16.95 -8.47 0 0 25.43 -8.48 0 0 25.42 8.48 0 0 -8.47 8.47 0 0 -16.95 8.48 0 0 -8.47 8.48 0 0 -8.48 8.47 0zm389.88 -118.66l0 -16.96 -16.94 0 0 33.91 8.46 0 0 -16.95 8.48 0zm-1483.23 118.66l0 -16.95 -16.95 0 0 16.95 16.95 0zm1101.83 -33.91l8.48 0 0 -8.47 8.47 0 0 -8.48 -8.47 0 0 8.48 -8.48 0 0 8.47zm-268.24 959.05l0 -8.47 -16.94 0 0 8.47 16.94 0zm-101.7 -25.43l0 -8.47 -16.95 0 0 8.47 16.95 0z"/>
 </g>
</svg>
