<?xml version="1.0" encoding="UTF-8"?>
<!DOCTYPE svg PUBLIC "-//W3C//DTD SVG 1.1//EN" "http://www.w3.org/Graphics/SVG/1.1/DTD/svg11.dtd">
<!-- Creator: CorelDRAW 2017 -->
<svg xmlns="http://www.w3.org/2000/svg" xml:space="preserve" width="54.1866mm" height="59.2666mm" version="1.1" style="shape-rendering:geometricPrecision; text-rendering:geometricPrecision; image-rendering:optimizeQuality; fill-rule:evenodd; clip-rule:evenodd"
viewBox="0 0 5418.66 5926.66"
 xmlns:xlink="http://www.w3.org/1999/xlink">
 <defs>
  <style type="text/css">
   <![CDATA[
    .fil0 {fill:black}
   ]]>
  </style>
 </defs>
 <g id="Capa_x0020_1">
  <metadata id="CorelCorpID_0Corel-Layer"/>
  <path class="fil0" d="M2825.95 1481.33c-0.31,0.29 -0.2,28.85 -51.21,3.12 -43.54,-21.96 -51,-67.86 -90.94,-107.21l-152.28 -109.85 -77.74 -14.25c-94.07,2.03 -94.05,-5.82 -162.72,34.04 -44.4,25.78 -60.93,45.08 -88.98,91.77 -0.9,1.5 -2.25,3.58 -3.14,5.09 -0.88,1.5 -2.15,3.61 -3.01,5.14 -3.31,5.86 2.02,-4.8 -5.93,10.88 -26.48,52.19 -28.98,119.79 -0.92,170.62 6.18,11.2 8.12,14.5 13.23,21.2 36.77,48.23 90.45,33.26 122.97,84.28 33.76,52.97 39.22,102.99 -26.51,126.91 -91.43,33.27 -170.71,64.23 -247.32,129.74l-27.68 33.4c-9.11,12.93 -4.67,7.68 -14.13,19.55 -1.56,1.97 -12.77,14.84 -15.73,18.11 -13.96,15.47 -14.62,14.98 -28.64,32.35 -144.16,178.52 -114.58,254.49 -155.06,292.04 -5.7,5.29 -12.33,9.02 -19.38,14.21l-76.03 79.45 -86.15 163.62c-29.79,50.89 -67.93,90.4 -125.44,131.76l-116.36 98.81c-16.73,9.57 2.52,-0.5 -23.05,10.12 -80.06,37.36 -117.59,1.7 -179.81,26.86 9.08,66.38 135.07,74.47 205.17,71.16 17.52,9.3 5.65,-4.48 24.05,15.63 23.17,25.32 0.38,30.69 44.42,42.91l17.77 -17.92c8.4,-10.35 1.83,-3.23 10.83,-15.01 130.87,-171.31 119.79,11.26 203.55,17.27 13.79,-21.13 12.09,-21.78 -3.07,-63.41 -31.62,-86.85 1.59,-89.84 28.65,-112.17 58.54,-48.29 119.72,-124.72 167.94,-183.96l23.9 -27.31c21.57,-22.94 37.47,-39.17 56.68,-63.8l106.63 -125.9c10.5,-10.66 20.35,-19.44 32.02,-28.23l37.21 -19.89c53.92,-17.09 95.23,-44.69 132.53,29.1 55.55,109.87 -43.64,218.99 -95.41,297.37 -26.7,40.41 -55.11,88.11 -81.37,126.36l-22.4 45.66c-111.9,189.34 -51.49,187.12 -79.79,256.38 -9.33,22.86 -110.24,77.7 -130.2,91.39 -85.35,58.53 -121.92,107.95 -178.34,173.96l-21.35 19.44c-23.77,39.97 -26.42,57.54 -69.55,78.92 -47.23,23.41 -57.17,35.7 -89.86,65.18 -52.74,47.56 -97.36,100.42 -209.42,94.97l-35.07 21.83c-13.6,6.98 -24.91,13.2 -34.68,25.11 -70.85,86.34 24.54,70.61 -125.94,166.32l-45.32 22.55 0.21 -3.78c-1.61,1.9 -3.79,2.54 -4.68,5.82 -0.86,3.15 -3.48,4.45 -4.7,5.42l-34.95 14.5c-26.05,2.89 -55.26,2.06 -79.95,1.76 -13.35,30.18 -12.75,23.42 -33.24,36.03 10.78,115.44 26.37,76.92 145.12,202.74 67.59,71.62 133.42,65.79 173.77,-13.36 15.18,-29.79 2.17,-17.98 26.96,-38.77 26.57,-51.81 59.73,-49.23 128,-62.68 33.63,-6.63 49.12,-15.14 75.43,-29.36 73.13,-39.53 201.61,-13.62 317.14,-198.59 130.77,-12.48 357.14,-137.2 477.02,-202.68 51.63,-28.21 93.51,-58.9 149.95,-82.28 54.23,-22.47 103.19,-39.74 156.27,-67.1 95.33,-49.12 88.65,-33.29 163.49,7.76 151.74,83.24 182.85,25.43 252.39,82.21 22.39,18.27 43.56,31.05 76.01,44.29 266.02,108.54 317.73,12.71 564.54,114.46 75.16,30.98 68.65,96.14 278.02,178.98 138.34,54.74 198.53,264.93 433.08,57.09 19.95,-26.18 31.48,-29.61 60.09,-50.27 25.61,-18.49 35.84,-29.22 61.5,-50.05 30.98,-25.15 25.45,-24.92 49.41,-53.81 22.11,-26.67 27.06,-9.85 37.94,-82.51l-39.19 -33.3c-86.76,-7.66 -61.33,9.42 -127.74,29.27 -34.98,10.45 -123.81,17.91 -152.99,-1.52 -20.72,-18.81 -11.95,-73.38 -36.81,-85.02l-101.54 -9.99c-28.88,-194.8 -26.39,-104.71 -149.5,-166.99 -80.08,-40.51 -73.35,-91.78 -205.25,-120.82 -37.69,-8.3 -26.51,-1.93 -46.5,-32.87 -58.15,-90.03 -123.98,-137.12 -224.64,-178.3 -123.08,-50.35 -159,-12.33 -90.82,-153.17 71.65,-148.01 69.59,-220.79 47.79,-385.4 -11.64,-87.97 -28.99,-165.84 -59.85,-243.93 -53.76,-136 -96.91,-88.7 -105.8,-194.28 -13.62,-161.75 -35.76,-217.14 -92.14,-348.54 -20.33,-47.36 3.59,-67.53 22.49,-107.26 75.56,-158.84 150.39,-270.75 132.37,-465.86l7.54 -74.22c0.57,-2.55 1.18,-4.57 1.74,-7.03 0.54,-2.38 1.07,-4.5 1.59,-6.82l43.06 -136.03c46.59,-129.85 12.17,-136.83 13.2,-236.68 51.1,-9.98 108.59,-4.64 152.3,-12.53 45.29,-8.17 81.33,-21.28 119.24,-42.96l52.33 -33.25c46.63,-35.15 98.98,-127.99 99.25,-129.16 0.84,-3.75 3.55,-3.91 5.33,-5.87 9.56,-66.32 26.89,-88.64 18.24,-174.36 -27.49,-272.47 -405.37,-401.79 -625.33,-254 -76.21,51.2 -124.36,132.33 -138.25,255.01 -13.88,122.46 13.11,242.23 55.32,338.47 53.51,122.01 97.4,123.04 -20.29,283.3 -30.33,41.31 -52.52,69.55 -65.86,133.07 -16.66,79.39 -112.37,393.39 -185.73,409.55zm-2825.51 3448l180.15 0c0,70.64 3.16,113.78 9.48,129.39 6.32,15.62 18.03,23.43 35.14,23.43 14.5,0 24.54,-5.02 30.3,-15.06 5.76,-10.04 8.74,-31.42 8.74,-64.14l0 -630.24 196.32 0 0 552.34c0,62.28 -2.23,108.76 -6.51,139.06 -4.46,30.31 -11.9,55.22 -22.31,74.93 -16.73,30.48 -41.45,53.54 -74.17,69.15 -32.54,15.62 -72.88,23.43 -120.85,23.43 -85.33,0 -146.31,-19.89 -182.93,-59.86 -36.63,-39.98 -55.03,-106.72 -55.03,-199.86 0,-11.71 0,-20.45 0.19,-26.21 0.18,-5.76 0.74,-11.34 1.48,-16.36zm547.43 -556.62l198.55 0 0 525.76c0,79.38 5.02,128.65 15.06,147.61 9.86,18.78 27.52,28.26 52.99,28.26 25.84,0 43.5,-9.85 53.35,-29.38 9.86,-19.7 14.69,-68.41 14.69,-146.49l0 -525.76 194.09 0 0 535.42c0,60.61 -2.6,105.97 -7.81,135.91 -5.39,29.93 -13.94,55.95 -26.02,78.08 -19.9,37.74 -48.71,65.44 -86.45,83.1 -37.74,17.66 -87.01,26.4 -147.62,26.4 -55.95,0 -101.5,-8.18 -136.64,-24.73 -35.32,-16.54 -63.21,-42.94 -83.84,-79.2 -14.88,-25.84 -25.29,-58.93 -31.42,-99.27 -5.95,-40.16 -8.93,-108.2 -8.93,-204.13l0 -451.58zm588.52 554.39l179.59 0 0 24.54c0,46.29 5.39,78.82 16.36,97.6 10.78,18.96 29.18,28.44 55.03,28.44 20.63,0 36.99,-7.25 48.89,-21.56 12.08,-14.32 18.03,-33.84 18.03,-58.56 0,-40.72 -29.18,-79.94 -87.37,-117.31 -9.49,-6.51 -16.74,-11.53 -21.76,-14.69l-9.29 -5.95c-78.83,-53.17 -127.72,-92.95 -147.06,-119.91 -13.75,-20.26 -24.16,-43.13 -31.41,-68.6 -7.26,-25.28 -10.97,-53.17 -10.97,-83.29 0,-73.25 21.19,-130.88 63.76,-172.52 42.39,-41.83 100.95,-62.65 175.32,-62.65 81.05,0 142.78,20.45 185.54,61.53 42.57,40.9 63.95,100.21 63.95,177.92 0,3.16 -0.19,7.81 -0.56,13.57 -0.37,5.76 -0.56,10.22 -0.56,13.57l-176.24 0 0 -10.41c0,-36.44 -5.76,-64.14 -17.1,-82.92 -11.53,-18.77 -28.08,-28.25 -49.83,-28.25 -18.4,0 -33.28,6.69 -44.43,19.89 -11.34,13.2 -16.92,30.67 -16.92,52.42 0,35.51 31.79,73.25 95.56,113.04 11.71,7.62 20.45,13.38 26.58,17.47 5.21,2.79 12.27,7.44 21.38,13.57 68.61,43.51 112.48,80.32 131.81,110.06 11.9,19.15 21.2,41.09 27.52,65.63 6.32,24.54 9.48,51.13 9.48,79.76 0,84.03 -21.75,148.54 -65.44,194.09 -43.5,45.36 -105.78,68.04 -186.65,68.04 -84.96,0 -148.73,-21.75 -191.49,-65.07 -42.57,-43.5 -63.95,-108.01 -63.95,-193.72 0,-5.39 0.18,-11.15 0.37,-17.1 0.18,-5.95 0.74,-15.62 1.86,-28.63zm707.5 284.44l0 -675.97 -157.28 0 0 -162.86 518.68 0 0 162.86 -165.08 0 0 675.97 -196.32 0zm887.08 -682.66l0 529.84c3.9,0.75 7.81,1.12 11.34,1.12 3.72,0 9.3,0 16.92,0 21.01,0 38.67,-2.98 52.61,-8.74 13.94,-5.76 25.28,-15.06 34.02,-27.89 7.25,-10.04 12.09,-29.74 14.87,-58.74 2.79,-29.19 4.09,-86.08 4.09,-171.23l0 -38.11c0,-69.9 -1.3,-116.94 -3.71,-141.48 -2.61,-24.54 -7.25,-41.45 -14.32,-50.38 -7.62,-12.08 -18.78,-21.01 -33.46,-26.77 -14.69,-5.76 -33.47,-8.74 -56.15,-8.74 -7.06,0 -12.27,0 -16.17,0.19 -3.72,0.18 -7.07,0.56 -10.04,0.93zm-197.44 682.66l0 -838.83 216.4 0c79.2,0 137.76,6.88 175.87,20.45 38.11,13.58 68.42,37 90.73,69.91 17.47,25.84 29.74,59.12 36.99,100.02 7.25,40.9 10.97,117.12 10.97,229.04 0,111.91 -3.72,188.14 -10.97,228.85 -7.25,40.53 -19.52,73.99 -36.99,100.21 -22.31,32.9 -52.62,56.33 -90.73,69.9 -38.11,13.57 -96.67,20.45 -175.87,20.45l-216.4 0zm944.16 -343.75l0 -151.33c0,-92.95 -5.95,-150.59 -17.66,-172.52 -11.9,-21.94 -33.09,-32.91 -63.95,-32.91 -30.12,0 -51.13,11.34 -62.66,33.84 -11.71,22.49 -17.47,79.57 -17.47,171.59l0 151.33c0,90.91 5.76,147.8 17.47,170.85 11.53,23.06 32.91,34.58 63.77,34.58 30.49,0 51.5,-11.34 63.02,-33.83 11.72,-22.5 17.48,-79.57 17.48,-171.6zm-361.41 -75.66c0,-100.95 3.72,-174.57 10.97,-221.05 7.25,-46.48 19.15,-82.92 35.88,-108.94 23.98,-37 55.4,-64.51 94.26,-82.55 38.85,-18.03 85.52,-26.95 139.99,-26.95 54.84,0 101.5,8.92 139.8,26.95 38.3,18.04 69.35,45.55 93.33,82.55 17.47,26.4 29.74,63.02 36.99,109.5 7.25,46.48 10.97,119.91 10.97,220.49 0,100.2 -3.72,173.64 -10.97,220.3 -7.25,46.66 -19.52,83.29 -36.99,109.69 -23.61,36.62 -54.66,64.14 -93.33,82.36 -38.67,18.03 -85.33,27.14 -139.8,27.14 -54.47,0 -101.14,-9.11 -139.99,-27.14 -38.86,-18.22 -70.28,-45.74 -94.26,-82.36 -16.73,-26.03 -28.63,-62.47 -35.88,-108.95 -7.25,-46.47 -10.97,-120.09 -10.97,-221.04zm929.84 419.41l0 -838.83 196.32 0 0 838.83 -196.32 0zm428.64 0l0 -675.97 -157.28 0 0 -162.86 518.68 0 0 162.86 -165.08 0 0 675.97 -196.32 0zm253.69 0l0 -191.86 192.98 0 0 191.86 -192.98 0zm249.23 0l0 -191.86 192.98 0 0 191.86 -192.98 0zm249.23 0l0 -191.86 192.98 0 0 191.86 -192.98 0zm-3906.08 703.88l0 -378.75 -88.12 0 0 -91.25 290.62 0 0 91.25 -92.5 0 0 378.75 -110 0zm412.05 -192.6l0 -84.8c0,-52.08 -3.33,-84.37 -9.9,-96.66 -6.66,-12.29 -18.54,-18.44 -35.83,-18.44 -16.87,0 -28.65,6.35 -35.1,18.96 -6.57,12.6 -9.8,44.58 -9.8,96.14l0 84.8c0,50.93 3.23,82.81 9.8,95.73 6.45,12.91 18.43,19.37 35.73,19.37 17.08,0 28.85,-6.35 35.31,-18.96 6.56,-12.6 9.79,-44.58 9.79,-96.14zm-202.5 -42.4c0,-56.56 2.08,-97.81 6.15,-123.85 4.06,-26.05 10.72,-46.46 20.1,-61.05 13.44,-20.72 31.04,-36.14 52.81,-46.25 21.77,-10.1 47.92,-15.1 78.44,-15.1 30.73,0 56.87,5 78.33,15.1 21.46,10.11 38.86,25.53 52.29,46.25 9.8,14.8 16.67,35.32 20.73,61.36 4.07,26.04 6.15,67.19 6.15,123.54 0,56.15 -2.08,97.29 -6.15,123.44 -4.06,26.14 -10.93,46.66 -20.73,61.46 -13.22,20.52 -30.62,35.93 -52.29,46.14 -21.66,10.11 -47.81,15.21 -78.33,15.21 -30.52,0 -56.67,-5.1 -78.44,-15.21 -21.77,-10.21 -39.37,-25.62 -52.81,-46.14 -9.38,-14.59 -16.04,-35 -20.1,-61.05 -4.07,-26.04 -6.15,-67.29 -6.15,-123.85zm353.49 235l0 -470 153.75 0 41.88 199.9c0.21,1.04 1.87,13.54 5.1,37.7 3.13,24.07 6.46,48.23 9.9,72.5 2.6,-18.12 5.94,-40.52 9.9,-67.29 3.95,-26.77 6.25,-41.56 6.87,-44.48l41.56 -198.33 152.29 0 0 470 -103.75 0 9.48 -363.23 -74.48 363.23 -83.75 0 -74.47 -363.23 9.47 363.23 -103.75 0zm663.3 -192.6l0 -84.8c0,-52.08 -3.33,-84.37 -9.9,-96.66 -6.66,-12.29 -18.54,-18.44 -35.83,-18.44 -16.87,0 -28.65,6.35 -35.1,18.96 -6.57,12.6 -9.8,44.58 -9.8,96.14l0 84.8c0,50.93 3.23,82.81 9.8,95.73 6.45,12.91 18.43,19.37 35.73,19.37 17.08,0 28.85,-6.35 35.31,-18.96 6.56,-12.6 9.79,-44.58 9.79,-96.14zm-202.5 -42.4c0,-56.56 2.08,-97.81 6.15,-123.85 4.06,-26.05 10.72,-46.46 20.1,-61.05 13.44,-20.72 31.04,-36.14 52.81,-46.25 21.77,-10.1 47.92,-15.1 78.44,-15.1 30.73,0 56.87,5 78.33,15.1 21.46,10.11 38.86,25.53 52.29,46.25 9.8,14.8 16.67,35.32 20.73,61.36 4.07,26.04 6.15,67.19 6.15,123.54 0,56.15 -2.08,97.29 -6.15,123.44 -4.06,26.14 -10.93,46.66 -20.73,61.46 -13.22,20.52 -30.62,35.93 -52.29,46.14 -21.66,10.11 -47.81,15.21 -78.33,15.21 -30.52,0 -56.67,-5.1 -78.44,-15.21 -21.77,-10.21 -39.37,-25.62 -52.81,-46.14 -9.38,-14.59 -16.04,-35 -20.1,-61.05 -4.07,-26.04 -6.15,-67.29 -6.15,-123.85zm462.24 -39.37c1.88,0 4.28,0.1 7.19,0.31 2.92,0.21 5.11,0.31 6.56,0.31 22.71,0 38.86,-4.58 48.34,-13.75 9.48,-9.17 14.16,-24.58 14.16,-46.35 0,-20.11 -4.68,-34.38 -14.16,-42.82 -9.48,-8.43 -25.63,-12.7 -48.34,-12.7 -1.45,0 -3.64,0.1 -6.56,0.31 -2.91,0.21 -5.31,0.31 -7.19,0.31l0 114.38zm-108.75 274.37l0 -470 123.65 0c40.52,0 69.9,1.88 88.13,5.63 18.33,3.75 33.12,10.2 44.58,19.37 13.33,11.04 23.33,24.48 30,40.63 6.56,16.04 9.89,35.2 9.89,57.29 0,27.08 -4.68,49.79 -14.16,68.12 -9.38,18.23 -24.06,33.34 -43.96,45.11 33.96,15.1 51.87,50.83 53.75,107.18l0 1.46c0.21,5.94 0.42,14.48 0.62,25.73 0.84,52.92 9.59,86.04 26.25,99.48l-128.54 0c-2.91,-9.79 -5,-20 -6.35,-30.73 -1.25,-10.62 -1.98,-22.08 -1.98,-34.27 0,-7.6 0.21,-16.67 0.62,-27.4 0.42,-10.72 0.63,-17.6 0.63,-20.93 0,-28.65 -3.75,-48.34 -11.25,-58.96 -7.5,-10.52 -21.04,-15.83 -40.52,-15.83l-22.61 0 0 188.12 -108.75 0zm446.52 -274.37c1.88,0 4.28,0.1 7.19,0.31 2.92,0.21 5.11,0.31 6.56,0.31 22.71,0 38.86,-4.58 48.34,-13.75 9.48,-9.17 14.16,-24.58 14.16,-46.35 0,-20.11 -4.68,-34.38 -14.16,-42.82 -9.48,-8.43 -25.63,-12.7 -48.34,-12.7 -1.45,0 -3.64,0.1 -6.56,0.31 -2.91,0.21 -5.31,0.31 -7.19,0.31l0 114.38zm-108.75 274.37l0 -470 123.65 0c40.52,0 69.9,1.88 88.13,5.63 18.33,3.75 33.12,10.2 44.58,19.37 13.33,11.04 23.33,24.48 30,40.63 6.56,16.04 9.89,35.2 9.89,57.29 0,27.08 -4.68,49.79 -14.16,68.12 -9.38,18.23 -24.06,33.34 -43.96,45.11 33.96,15.1 51.87,50.83 53.75,107.18l0 1.46c0.21,5.94 0.42,14.48 0.62,25.73 0.84,52.92 9.59,86.04 26.25,99.48l-128.54 0c-2.91,-9.79 -5,-20 -6.35,-30.73 -1.25,-10.62 -1.98,-22.08 -1.98,-34.27 0,-7.6 0.21,-16.67 0.62,-27.4 0.42,-10.72 0.63,-17.6 0.63,-20.93 0,-28.65 -3.75,-48.34 -11.25,-58.96 -7.5,-10.52 -21.04,-15.83 -40.52,-15.83l-22.61 0 0 188.12 -108.75 0zm530.9 -192.6l0 -84.8c0,-52.08 -3.33,-84.37 -9.9,-96.66 -6.66,-12.29 -18.54,-18.44 -35.83,-18.44 -16.87,0 -28.65,6.35 -35.1,18.96 -6.57,12.6 -9.8,44.58 -9.8,96.14l0 84.8c0,50.93 3.23,82.81 9.8,95.73 6.45,12.91 18.43,19.37 35.73,19.37 17.08,0 28.85,-6.35 35.31,-18.96 6.56,-12.6 9.79,-44.58 9.79,-96.14zm-202.5 -42.4c0,-56.56 2.08,-97.81 6.15,-123.85 4.06,-26.05 10.72,-46.46 20.1,-61.05 13.44,-20.72 31.04,-36.14 52.81,-46.25 21.77,-10.1 47.92,-15.1 78.44,-15.1 30.73,0 56.87,5 78.33,15.1 21.46,10.11 38.86,25.53 52.29,46.25 9.8,14.8 16.67,35.32 20.73,61.36 4.07,26.04 6.15,67.19 6.15,123.54 0,56.15 -2.08,97.29 -6.15,123.44 -4.06,26.14 -10.93,46.66 -20.73,61.46 -13.22,20.52 -30.62,35.93 -52.29,46.14 -21.66,10.11 -47.81,15.21 -78.33,15.21 -30.52,0 -56.67,-5.1 -78.44,-15.21 -21.77,-10.21 -39.37,-25.62 -52.81,-46.14 -9.38,-14.59 -16.04,-35 -20.1,-61.05 -4.07,-26.04 -6.15,-67.29 -6.15,-123.85zm419.12 235l-93.75 -470 110.52 0 25.1 228.54c2.82,25.11 5,46.04 6.67,62.92 1.67,16.87 2.92,31.98 3.96,45.21 1.46,-19.59 3.12,-38.44 5,-56.46 1.98,-18.13 4.27,-35.52 6.87,-52.19l35.21 -228.02 110.32 0 33.85 227.71c1.46,9.17 3.96,30.31 7.6,63.44 2.3,19.37 4.07,34.58 5.52,45.83 2.19,-28.33 4.07,-50.52 5.63,-66.56 1.56,-16.04 2.92,-29.48 4.17,-40.32l25 -230.1 110.83 0 -93.13 470 -118.75 0 -25.62 -194.37c-2.19,-17.09 -4.17,-35.11 -5.94,-53.86 -1.66,-18.85 -3.23,-38.33 -4.69,-58.54 -1.56,23.23 -3.33,43.85 -5,61.98 -1.77,18.12 -3.64,35.1 -5.62,51.04l-24.38 193.75 -119.37 0z"/>
 </g>
</svg>
