<?xml version="1.0" encoding="UTF-8"?>
<!DOCTYPE svg PUBLIC "-//W3C//DTD SVG 1.1//EN" "http://www.w3.org/Graphics/SVG/1.1/DTD/svg11.dtd">
<!-- Creator: CorelDRAW 2017 -->
<svg xmlns="http://www.w3.org/2000/svg" xml:space="preserve" width="22.7752mm" height="15.6632mm" version="1.1" style="shape-rendering:geometricPrecision; text-rendering:geometricPrecision; image-rendering:optimizeQuality; fill-rule:evenodd; clip-rule:evenodd"
viewBox="0 0 2277.52 1566.32"
 xmlns:xlink="http://www.w3.org/1999/xlink">
 <defs>
  <style type="text/css">
   <![CDATA[
    .str1 {stroke:white;stroke-width:8.46;stroke-miterlimit:22.9256}
    .str0 {stroke:black;stroke-width:20;stroke-miterlimit:22.9256}
    .fil0 {fill:#171717}
    .fil4 {fill:#B4252A}
    .fil1 {fill:#B42E33}
    .fil2 {fill:#E5E5E6}
    .fil5 {fill:#E6E5E6}
    .fil3 {fill:white}
   ]]>
  </style>
 </defs>
 <g id="Capa_x0020_1">
  <metadata id="CorelCorpID_0Corel-Layer"/>
  <rect class="fil0 str0" x="-0.01" y="-0" width="2277.53" height="1566.33"/>
  <path class="fil1" d="M843.28 1148.37l-28.33 9.38c19.61,12.52 18.41,-0.51 6.02,17.8 -102.01,30.98 -90.64,-108.76 -58.25,-163.82 99.68,-23.44 146.52,93.9 138.16,-86.56 -62.01,-30.88 -105.64,-79.77 -188.02,-58.13 -75.52,19.85 -104.9,98.54 -84.9,171.46 31.48,114.74 193.39,261.11 264.28,267.97l-7.93 -143.24 -41.03 -14.86z"/>
  <path class="fil1" d="M91.71 243.5c26.93,-12.02 49.52,-49.99 86.95,-70.6 40.62,-22.38 62.12,-28.98 101.04,-55.02 -8.52,-17.9 -19.76,-34.47 -29.07,-51.51 -18.98,-34.75 -2.53,-32.76 -18.04,-61.94l-23.77 -2.58c-26.99,50.4 20.13,-1.14 5.4,119.73 -63.78,5.09 -94.88,-79.63 -109.13,-98.4l-24.42 2.85c-16.92,42.9 10.93,19.79 26.92,72.21 11.48,37.64 27.21,51.79 9.01,84.13 -71.75,2.58 -59.46,-61.43 -111.79,-55.96 -13.12,55.73 9.07,20.03 40.7,57.28 21.06,24.82 15.64,35.54 46.2,59.81z"/>
  <path class="fil0" d="M231.69 703.5c22.97,91.55 -39.22,279.97 -31.07,396.16 4.54,64.86 -14.78,124.03 -18.23,193.18 -2.44,48.89 -33.27,163.54 -26.53,193.49 55.36,40.75 85.01,4.31 106.68,-47.07 35.11,-83.25 17.08,-80.79 28.45,-162.05l45.72 -18.03c8.55,-38.39 6.63,-101.33 11.88,-143.45 28.67,-229.53 -14.92,-104.67 -79.81,-179.23 -36.62,-42.08 -14.12,-138.5 74.16,-135.66 58.75,1.89 42.52,14.86 109.06,-6.27 3.19,-34.47 -20.19,-76.15 15.31,-102.71 32.56,-24.35 44.98,-21.77 78.42,-56.41 106.81,-110.64 123.89,-280.99 16.36,-389.06 -38.87,-39.07 -109.38,-94.05 -170.49,-101.72 -226.37,-28.38 -424.07,204.15 -300.8,430.11 43.7,80.11 82.27,79.98 140.89,128.72z"/>
  <path class="fil0" d="M843.28 1148.37l41.03 14.86 7.93 143.24c-70.89,-6.86 -232.8,-153.23 -264.28,-267.97 -20,-72.92 9.38,-151.61 84.9,-171.46 82.38,-21.64 126.01,27.25 188.02,58.13 12.19,14.96 7.35,3.61 12.87,23.05 0.39,1.34 1.89,23.16 1.94,25.3 0.14,5.48 -0.59,29.48 -2.01,30.98 8.91,-40.82 8.85,-141.55 -27.32,-169.61 -35.82,-27.79 -146.94,-16.48 -194.35,-15.84 -94.23,146.35 -105.14,43.02 -189.76,-8.19l-84.86 13.08c42.43,110.93 35.54,68.68 -44.79,140.24 14.12,90.19 -11.59,186.33 -14.14,278.3 -3.89,140.33 55.67,121.77 175.49,121.88 92.48,0.09 203.7,4.94 294,-0.76 51.54,-3.25 70.12,-21.64 74.75,-73.12 2.73,-30.43 1.96,-113.83 -8.64,-141.17l-50.78 -0.94z"/>
  <path class="fil0" d="M314.26 829.62c-82.92,40.29 -25.99,145.56 64.83,107.33 83.78,-35.25 13.87,-145.58 -64.83,-107.33z"/>
  <path class="fil0" d="M572.72 747.22c-84.75,32.24 -0.35,130.47 55.29,115.57 71.26,-19.08 30.04,-148.04 -55.29,-115.57z"/>
  <path class="fil0" d="M427.3 1405.3c-70.32,147.24 138.92,131.68 104.43,-0.81 -33.28,-8.11 -71.4,-8.43 -104.43,0.81z"/>
  <path class="fil2" d="M427.3 1405.3c33.03,-9.24 71.15,-8.92 104.43,-0.81 34.49,132.49 -174.75,148.05 -104.43,0.81zm-113.04 -575.68c78.7,-38.25 148.61,72.08 64.83,107.33 -90.82,38.23 -147.75,-67.04 -64.83,-107.33zm599.42 174.88l-7.54 31.09c-63.97,25.22 -82.33,-25.88 -131.71,-5.17 -23.3,31.63 -21.47,95.78 -0.09,133.65l40.61 -6.32 28.33 -9.38 50.78 0.94c10.6,27.34 11.37,110.74 8.64,141.17 -4.63,51.48 -23.21,69.87 -74.75,73.12 -90.3,5.7 -201.52,0.85 -294,0.76 -119.82,-0.11 -179.38,18.45 -175.49,-121.88 2.55,-91.97 28.26,-188.11 14.14,-278.3 80.33,-71.56 87.22,-29.31 44.79,-140.24l84.86 -13.08c84.62,51.21 95.53,154.54 189.76,8.19 47.41,-0.64 158.53,-11.95 194.35,15.84 36.17,28.06 36.23,128.79 27.32,169.61zm-340.96 -257.28c85.33,-32.47 126.55,96.49 55.29,115.57 -55.64,14.9 -140.04,-83.33 -55.29,-115.57zm-341.03 -43.72c-58.62,-48.74 -97.19,-48.61 -140.89,-128.72 -123.27,-225.96 74.43,-458.49 300.8,-430.11 61.11,7.67 131.62,62.65 170.49,101.72 107.53,108.07 90.45,278.42 -16.36,389.06 -33.44,34.64 -45.86,32.06 -78.42,56.41 -35.5,26.56 -12.12,68.24 -15.31,102.71 -66.54,21.13 -50.31,8.16 -109.06,6.27 -88.28,-2.84 -110.78,93.58 -74.16,135.66 64.89,74.56 108.48,-50.3 79.81,179.23 -5.25,42.12 -3.33,105.06 -11.88,143.45l-45.72 18.03c-11.37,81.26 6.66,78.8 -28.45,162.05 -21.67,51.38 -51.32,87.82 -106.68,47.07 -6.74,-29.95 24.09,-144.6 26.53,-193.49 3.45,-69.15 22.77,-128.32 18.23,-193.18 -8.15,-116.19 54.04,-304.61 31.07,-396.16zm-139.98 -460c-60.78,124.56 -96.67,200.04 -21.49,336.08 75.51,136.64 163.28,74.85 135.04,263.67 -9.12,61.04 -20.25,124.31 -26.46,185.47 -3.92,38.71 -2.41,64.92 -1.72,102.88l-34.81 282.12c-24.88,73.72 -10.85,116.81 75.8,108.58 39.28,-11.87 87.9,-105.59 89.87,-176.97 2.24,-81.32 10.04,-54.43 27.12,-54.66 29.44,107.25 8.12,35.25 59.75,105.99 9.16,48.63 -38.52,135.92 75.76,136.32 82.67,0.3 69.02,-81 94.27,-124.66 71.78,-39.32 301.25,36.06 345.22,-51.78 9.96,-19.92 14.41,-159.44 11.61,-185.55 -8.12,-75.81 -99.5,-21.97 -140.41,-24.89 -10.75,-30.46 -11.65,-52.9 0.37,-83.17 67.08,-20.62 172.45,108.5 153.06,-161.9 -9.49,-132.38 -142.45,-99.07 -242.57,-100.8 -28.23,-41.54 -30.3,-76.13 -94.66,-77.45 -85.61,-1.75 -58.77,52.31 -103.67,71.28 -128.87,-86.99 202.31,-108.99 154.97,-420.03 -15.33,-100.69 -49.35,-134.93 -128.46,-189.18 -142.06,-97.41 -184.57,-39.4 -240.6,-66.97 -38.92,26.04 -60.42,32.64 -101.04,55.02 -37.43,20.61 -60.02,58.58 -86.95,70.6z"/>
  <g id="_2364303875376">
   <g>
    <path class="fil3" d="M950.34 548.45c0,-17.28 -1.16,-38.39 -0.25,-55.13 0.96,-17.72 3.04,-13.91 22.04,-32.86 19.12,-19.06 35.81,-35.81 54.9,-54.89 71.52,-71.52 185.67,-181.03 249.83,-250.66l10.64 -11.97c18.13,-21.94 56.47,-68.4 81.38,-45.32 23.71,21.96 -16.57,53.7 -28.64,65.77l-389.9 385.06zm-116.25 -3.22c10.87,2.9 90.42,65.61 103.33,74.27 15.45,-10.35 385.2,-383.59 428.65,-427.04 35.95,-35.95 49.25,-37.43 49.25,-89.61 0,-26.07 -28.68,-51.67 -67.81,-51.67 -34.35,0 -56.39,32.17 -75.08,50.86l-408.47 408.47c-10.38,10.38 -25.88,19.78 -29.87,34.72z"/>
    <path class="fil3" d="M665.38 709.11l25.87 27.38c-8.02,12.37 -25.07,19.47 -25.07,38 0,25.96 33.01,42.32 61.36,0l28.38 26.52 130.63 -129.05 -78.3 -104.13 -142.87 141.28z"/>
    <path class="fil3" d="M712.1 587.93l24.35 25.86c0.77,-0.76 3.24,-3.41 5.61,-5.6l18.13 -17.4c9.1,-9.48 14.28,-11.08 22.23,-22.96 -6.06,-9.04 -13.91,-19.43 -25.82,-22.6l-44.5 42.7z"/>
   </g>
  </g>
  <path class="fil4" d="M1380.38 934.8c-7.94,47.78 1.27,80.12 -18.72,127.86 -73.49,25.61 -97.96,-13.72 -142.81,0 -21.62,27.55 -15.91,60.67 0,95.21 54.63,13.24 119.01,-55.54 142.81,7.93 27.69,36.79 -13.26,117.34 3.08,158.83 21.71,22.79 231.03,-131.07 280.8,-266.73 76.01,-207.1 -123.54,-258.04 -265.16,-123.1z"/>
  <path class="fil4" d="M1977.96 247c39.91,19.39 66.28,12.92 105.53,39.73 30.22,20.65 57.95,49.04 89.57,70.3l11.25 -2.49c39.46,-83.9 106.38,-74.03 68.96,-103.31 -33.49,-9.92 -30.68,45.45 -113.05,50.71 -1.52,-39.58 0.97,-78.78 28.95,-106.73 7.93,-32.31 16.36,-2.13 17.3,-44.84 -56.24,-15.27 -20.06,9.5 -66.56,48.37 -21.29,17.81 -39.19,38.08 -70.5,42.31 -14.47,-72.12 13.76,-79.68 9.78,-122.05l-28.3 -1.1c-17.54,28.7 0.86,32.47 -23.94,71.15 -12.13,18.91 -21.16,36.44 -28.99,57.95z"/>
  <path class="fil0" d="M1995.8 1538.07l42.88 1.23c41.01,-38.76 35.08,-83.11 35.31,-136.87 0.37,-85.29 3.39,-71.15 72.24,-97.22 -44.41,-104.78 -149.55,-390.05 -130.64,-505.75 26.67,-27.07 64.63,-37.5 106.2,-75.06 32.07,-28.97 54.57,-73.67 67.74,-114.82 65.65,-205.18 -140.68,-407.59 -355.79,-323.35 -129.94,50.88 -213.71,206.73 -152.33,354.63 26.84,64.67 30.4,67.95 89.86,93.91 27.77,12.12 21.97,26.11 46.48,39.68 24.51,13.56 54.49,5.61 83.97,12.01 68.47,14.86 63.93,61.03 76.75,113.86 15.11,62.24 50.41,61.14 10.44,135.28 -26.3,48.77 -16.15,113.8 -16.29,168.83 -0.25,98.31 -34.81,256.35 23.18,333.64z"/>
  <path class="fil0" d="M1365.2 935.22c141.62,-134.94 355.06,-85.82 279.05,121.29 -49.77,135.65 -259.09,289.51 -280.8,266.73 -16.34,-41.5 10.72,-120.23 -16.97,-157.02 -30.21,-40.13 -83.18,8.47 -137.81,-4.77 -15.91,-34.54 -18.04,-89.75 3.58,-117.29 44.84,-13.72 57.24,30.36 130.73,4.75 19.99,-47.75 14.28,-65.91 22.22,-113.69zm-35.56 107.21c-64.27,16.17 -63.03,-20.51 -125.02,-13.72 -27.31,44.4 -26.36,108.55 -1.02,153.95 104.69,13.36 141.47,-102.17 140.76,93.18 -0.25,72.07 -13.44,56.77 -21.2,101.28 125.55,12.73 327.93,-1.98 461.44,-5.33 68.04,-1.69 146.89,14.2 163.21,-66.52 8.66,-42.83 13.7,-199.78 -4.88,-228.25 -48.01,-13.78 -121.92,0.98 -118.97,-94.65 2.44,-79.26 64.89,-87.11 126.11,-88.02 3.57,-79.2 -53.88,-104.92 -124.89,-84.7 -20.1,49.62 -25.11,95.24 -96.11,95.78 -76.26,0.56 -72.83,-49.44 -99.13,-92.98 -44.04,-14.11 -232.53,0.54 -294.91,-0.34 0.58,24.92 7.18,23.58 11.23,44.79 4.3,22.46 0.25,46.76 -0.04,69.84 -0.53,42.14 9.32,84.68 -16.58,115.69z"/>
  <path class="fil0" d="M1708.64 752.03c-94.2,37.38 -35.41,158.37 44.94,127.51 84.11,-32.32 38.44,-160.6 -44.94,-127.51z"/>
  <path class="fil0" d="M1882.72 927.06c-86.1,50.72 -7.28,159.47 67.19,117.53 68.87,-38.8 19.69,-168.71 -67.19,-117.53z"/>
  <path class="fil0" d="M1747.66 1413.92c-47.05,170.53 141.76,164.52 93.66,4.57 -26.57,-14.76 -63.18,-10.92 -93.66,-4.57z"/>
  <path class="fil5" d="M1747.66 1413.92c30.48,-6.35 67.09,-10.19 93.66,4.57 48.1,159.95 -140.71,165.96 -93.66,-4.57zm135.06 -486.86c86.88,-51.18 136.06,78.73 67.19,117.53 -74.47,41.94 -153.29,-66.81 -67.19,-117.53zm-174.08 -175.03c83.38,-33.09 129.05,95.19 44.94,127.51 -80.35,30.86 -139.14,-90.13 -44.94,-127.51zm-504.02 276.68c61.99,-6.79 60.75,29.89 125.02,13.72 25.9,-31.01 16.05,-73.55 16.58,-115.69 0.29,-23.08 4.34,-47.38 0.04,-69.84 -4.05,-21.21 -10.65,-19.87 -11.23,-44.79 62.38,0.88 250.87,-13.77 294.91,0.34 26.3,43.54 22.87,93.54 99.13,92.98 71,-0.54 76.01,-46.16 96.11,-95.78 71.01,-20.22 128.46,5.5 124.89,84.7 -61.22,0.91 -123.67,8.76 -126.11,88.02 -2.95,95.63 70.96,80.87 118.97,94.65 18.58,28.47 13.54,185.42 4.88,228.25 -16.32,80.72 -95.17,64.83 -163.21,66.52 -133.51,3.35 -335.89,18.06 -461.44,5.33 7.76,-44.51 20.95,-29.21 21.2,-101.28 0.71,-195.35 -36.07,-79.82 -140.76,-93.18 -25.34,-45.4 -26.29,-109.55 1.02,-153.95zm791.18 509.36c-57.99,-77.29 -23.43,-235.33 -23.18,-333.64 0.14,-55.03 -10.01,-120.06 16.29,-168.83 39.97,-74.14 4.67,-73.04 -10.44,-135.28 -12.82,-52.83 -8.28,-99 -76.75,-113.86 -29.48,-6.4 -59.46,1.55 -83.97,-12.01 -24.51,-13.57 -18.71,-27.56 -46.48,-39.68 -59.46,-25.96 -63.02,-29.24 -89.86,-93.91 -61.38,-147.9 22.39,-303.75 152.33,-354.63 215.11,-84.24 421.44,118.17 355.79,323.35 -13.17,41.15 -35.67,85.85 -67.74,114.82 -41.57,37.56 -79.53,47.99 -106.2,75.06 -18.91,115.7 86.23,400.97 130.64,505.75 -68.85,26.07 -71.87,11.93 -72.24,97.22 -0.23,53.76 5.7,98.11 -35.31,136.87l-42.88 -1.23zm177.26 -1181.04c-31.62,-21.26 -59.35,-49.65 -89.57,-70.3 -39.25,-26.81 -65.62,-20.34 -105.53,-39.73 -120.76,-2.69 -234.18,36.39 -295.8,141.1 -101.02,171.66 3.13,287.16 17.21,341.91 -39.08,18.05 -41.34,44.3 -67.14,52.77 -44.82,14.7 -313.02,-12.63 -333.5,23.45 -4.04,23.14 56.49,118.4 18.36,207.79 -46.8,19.25 -113.7,-39.67 -142.15,24.77 -21.56,48.83 -14.65,120.9 2.57,169.58 76.93,23.11 96.12,-8.62 137.31,3.99 40.81,100.04 -32.34,161.35 -36.04,174.01 49.76,77.16 361.9,-4.89 438.54,35.26 12.31,49.49 -10.96,145.38 83.2,142.77 77.5,-2.14 55.44,-93.3 69.68,-144.27l74.01 -35.83c1.23,61.9 -6.19,207.75 99.75,175.18 69.99,-21.51 40.26,-165.73 58.57,-221.29l68.16 -9.56c6.03,-32.07 -70.19,-196.75 -85.02,-250.44 -99.69,-360.88 -29.35,-241.69 59.31,-346.3 152.56,-179.98 34.19,-331.09 28.08,-374.86z"/>
  <path class="fil3 str1" d="M1692.38 731.86c-6.2,0.04 -42.39,-13.66 -52.53,-15.57 0.89,12.2 -10.12,33.14 -20.67,39.33l21.24 16.88c3.87,2.82 6.78,5.47 10.59,8.5 3.81,3.04 7.63,4.47 10.39,8.86l30.98 -58zm-752.15 -373.04l-4.2 1.31c-7.29,3.25 -11.41,10.85 -8.63,19.79 2.95,9.5 8.9,12.01 17.36,16.61 3.98,2.17 5.01,3.62 8.99,5.81l26.77 14c15.3,8.14 12.94,8.06 15.47,14.49 5.79,14.75 21.48,23.97 35.31,20.64 8.94,-2.14 5.07,-4.55 20.73,4.48l18.14 10.06 -1.09 1.43c-0.78,-0.18 -0.89,-2.52 -4.26,1.63 -1.44,1.79 -2.21,2.97 -1.45,5.41 3.33,10.69 15.35,5.59 13.2,-4.1 6.72,1.99 11.13,5.86 17.1,9.47 11.51,6.97 7.1,0.3 12.1,13.81 2.58,6.95 8.81,12.68 13.54,15.69 8.99,5.72 18.38,7.65 29.22,5.52 6.58,-1.29 5.98,-2.53 10.83,0.41l48.67 27.71c11.93,6.08 6.23,3.85 13.88,15.6 7.01,10.76 21.83,18.27 34.67,16.14 12.76,-2.11 9.3,0.49 18.23,5.42l33.43 18.52c8.43,5.14 37.13,17.43 40.57,24 3.3,6.29 7,43.07 51.67,44.92 8.06,0.33 20.15,-5.25 24.41,-4.44 4.46,0.85 26.83,14.99 32.67,18.05l58.53 31.86c22.21,14.33 12.1,4.18 19.27,22.52 5.57,14.24 17.74,22.4 28.61,27.68 11.38,5.53 25.19,5.64 41.93,0.43l51.28 39.92c3.39,2.54 5.95,3.61 8.08,3.47l2.4 -0.75c3.76,-2.2 6.39,-9.02 11.27,-18.3 3.78,-7.2 6.96,-13.25 10.75,-20.45 13.11,-24.95 20.25,-35.33 19.14,-41.05l-0.36 -1.14c-1.54,-3.47 -6.96,-5.12 -16.97,-8.04l-35.26 -11.21c-5.95,-2.08 -11.36,-3.61 -17.26,-5.36 -5.21,-16.76 -13.12,-28.04 -24.12,-34.3 -36.52,-20.76 -43.65,1.82 -58.71,-6.69l-48.79 -23.66c-10.52,-5.02 -21.76,-12.75 -32.38,-16.7 -6.73,-2.5 -10.55,-5.02 -16.81,-8.11 -9.65,-4.78 -5.93,-6.3 -10.55,-18.11 -8.8,-22.5 -38.27,-34.95 -62.43,-27.31l-7 2.81c-5.51,1.71 -89.02,-41.91 -89.26,-42.14 -3.6,-3.64 -8.46,-24 -33.64,-25.73 -16.69,-1.14 -6.53,6.51 -28.41,-5.16l-49.79 -23.66c-6.33,-20.34 -21.84,-32.77 -41.21,-30.49 -15.05,1.77 -8.53,5.15 -16.41,0.81l-44.48 -22.39c-19.47,-8.11 -11.38,-3.75 -19.26,-16.83 -4.49,-7.45 -10.45,-13.15 -18.84,-15.72 -6.88,-2.12 -10.43,-2.29 -19.06,-0.01 -9.45,2.49 -8.66,-0.82 -16.02,-3.9 -6.37,-2.67 -9.25,-3.95 -15.32,-7.14l-29.5 -14.53c-5.95,-3.16 -11.8,-3.95 -16.75,-3zm633.72 314.81c-42.24,13.13 -37.25,72.46 5.67,78.97 17.71,2.68 34.07,-7.37 41.28,-20.17 17,-30.14 -12.45,-69.53 -46.95,-58.8zm-42.76 31.71c-0.39,-9.54 9.28,-27.94 17.36,-33.02 -3.03,-2.45 -7.72,-3.51 -12.01,-5.8 -4.3,-2.29 -7.48,-3.95 -11.79,-6.22l-72.59 -35.65c-4.36,14.69 -5.26,16.4 -14.89,28.31l93.92 52.38zm-94.52 -100.87c-14.37,-46.23 -87.6,-27.85 -71.24,24.78 5.09,16.39 26.94,28.47 45.23,22.78 20.92,-6.5 32.43,-26.92 26.01,-47.56zm-87.85 1c3.18,-4.3 2.29,-10.73 9.55,-20.08 2.19,-2.83 3.35,-3.28 4.51,-6.66 -6.98,0.28 -25.63,-13.29 -36.88,-17.68 -12.66,-4.94 -30.95,-17.46 -37.12,-17.21 0.27,6.72 -5.06,16.86 -10.75,20.45 3.93,6.24 67.01,35.33 70.69,41.18zm-74.02 -73.04c-9.5,-30.57 -52.69,-17.14 -43.19,13.43 8.38,26.97 51.49,13.25 43.19,-13.43zm-58.38 -1.59c1.54,-8.26 3.99,-12.91 9.92,-18.87l-25.37 -12.84c-8.49,-4.46 -16.34,-10.27 -25.79,-12.04 0.18,4.39 -4.55,13.38 -8.26,15.72 7.94,6.42 15.44,9.63 24.54,14.41l24.96 13.62zm-54.86 -57.94c-9.46,-30.43 -52.86,-17.67 -42.82,14.63 1.57,5.03 6.67,9.13 10.26,11.04 17.44,9.24 38.26,-7.32 32.56,-25.67zm-56.73 -4.73c-0.19,-4.72 2.62,-10.06 6.62,-12.58 -3.35,-5.3 -2.12,-1.53 -12.39,-6.99l-39.52 -20.3 -6.66 11.56c5.41,4.58 31.59,18.15 38.38,21.67 9.07,4.7 8.26,6.85 13.57,6.64zm-72.88 -31.29c18.99,-5.9 15.62,-28.16 3.96,-34.27 -13.62,-7.14 -26.63,2.77 -27.89,13.67 -1.84,16.1 12.58,24.13 23.93,20.6zm-37.59 -27.78l6.16 -10.82c-7.26,-1.45 -29.45,-14.07 -43.86,-20.56 -3.05,-1.37 -12.94,-8.27 -15.46,-3.48 -2.21,4.2 9.75,9.86 17.61,14.65 2.47,1.5 4.46,2.36 7.08,3.73 9.02,4.73 21.44,9.49 28.47,16.48z"/>
 </g>
</svg>
