<?xml version="1.0" encoding="UTF-8"?>
<!DOCTYPE svg PUBLIC "-//W3C//DTD SVG 1.1//EN" "http://www.w3.org/Graphics/SVG/1.1/DTD/svg11.dtd">
<!-- Creator: CorelDRAW 2017 -->
<svg xmlns="http://www.w3.org/2000/svg" xml:space="preserve" width="15.4938mm" height="13.8852mm" version="1.1" style="shape-rendering:geometricPrecision; text-rendering:geometricPrecision; image-rendering:optimizeQuality; fill-rule:evenodd; clip-rule:evenodd"
viewBox="0 0 1549.38 1388.52"
 xmlns:xlink="http://www.w3.org/1999/xlink">
 <defs>
  <style type="text/css">
   <![CDATA[
    .fil0 {fill:black}
    .fil1 {fill:#CCCCCC;fill-opacity:0.250980}
   ]]>
  </style>
 </defs>
 <g id="Capa_x0020_1">
  <metadata id="CorelCorpID_0Corel-Layer"/>
  <path class="fil0" d="M375.18 899.98c0,-10.64 6.96,-17.58 17.6,-17.58 13.11,0 28.11,23.73 43.44,40.11l67.04 78.06c10.48,11.28 45.63,47.9 45.63,59.92 0,19.39 -18.55,21.4 -26.14,15.31l-139.36 -159.83c-4.65,-4.7 -8.21,-7.34 -8.21,-15.99zm-364.99 451.67l0 -31.68c2.69,-32.3 11.59,-69.35 16.19,-82.78 40.96,-119.49 124.65,-153.45 146.51,-183.29 -14.12,-1.18 -28.57,-5.63 -28.57,-21.99 0,-16.12 54.29,-45.03 66.36,-52.37 24.21,-14.74 52.78,-29.03 79.06,-39.67l52.46 -24.5c-10.21,-21.28 6.69,-47.78 18.81,-55.95 20.67,-13.93 34.73,-11.07 58.15,-5.61 4.34,-6.49 10.13,-9.14 15.96,-14.82 6.46,-6.27 10.42,-8.61 16.49,-14.3 11.45,-10.71 20.14,-19.1 36.27,-25.28 27.82,-10.67 58.54,-6.21 83.25,10.17 5.6,3.72 1.29,2.72 8.54,4.66l123.45 -107.43c5,-3.98 7.55,-7.65 12.54,-11.64l49.35 -43c40.28,-33.87 38.93,-20.35 38.93,-75.4 0,-70.71 -8.69,-75.83 29.11,-109.41 5.33,-4.74 7,-7.19 12.67,-11.52l24.71 -21.47c10.24,-9.09 24.86,-29.1 39.05,-29.1 11.71,0 22.85,15.96 12.75,28.03 -7.37,8.83 -16.76,14.72 -25.37,23.11 -5.42,5.29 -7.88,5.96 -13.24,10.95 -42.95,39.95 -44.5,26.73 -44.5,76.42 0.01,84.54 10.16,84.31 -29.86,115.27l-128.99 112.87c-5.52,5.49 -7.78,6.21 -13.18,11l-38.47 34.09c-5.48,5.32 -7.92,5.91 -13.23,10.95 -5.69,5.39 -5.85,8.36 -13.73,10.46 2.51,9.42 14.38,18.3 19.79,26.38l35.75 -30.21c16.66,-16.22 35.48,-28.99 51.66,-45.08 21.73,-21.62 47.26,-39.54 69.25,-60.48 16.49,-15.7 35.47,-28.94 51.68,-45.06 29.74,-29.58 40.43,-23.02 40.14,-56.6 -0.26,-31.18 -2.57,-66.23 -0.06,-96.82 1,-12.33 6.05,-13.55 13.54,-19.43 16.61,-13.06 33.12,-31.17 49.93,-44.61 11.71,-9.38 22.76,-19.56 33.84,-29.93l325.97 -313.18c7.26,-5.81 36.74,-17.44 14.45,-39.72 -38.99,0 -224.63,207.53 -238.2,219.86l-43.92 39.64c-5.63,5.27 -8.6,6.29 -14.34,12.04 -34.79,34.86 -43.26,1.46 -41.04,-5.65 2.36,-7.52 8.59,-10.27 13.6,-15.19 6.37,-6.27 8.59,-7.68 15.28,-13.31 5.72,-4.82 7.88,-7.99 13.84,-12.54 25.23,-19.26 262.74,-269.01 297.59,-269.01 41.13,0 66.6,53.1 29.19,88.56l-389.96 370.1c-7.03,6.85 -40.07,37.22 -46.76,39.01 0,25.65 0,51.3 0,76.96 0,39.91 1.27,51.62 -24.51,72.23l-234.94 204.81c7.14,13.49 13.2,25.41 13.2,46.17 0,30.21 -14.7,48.61 -33.53,67.62 -6.86,6.92 -36.72,29.96 -39.55,35.39 -6.05,11.6 9.88,30.1 -15.34,57.05 -17.38,18.57 -34.9,15.46 -56.7,13.64l-56.72 88.4c-4.18,6.24 -14.39,23.74 -22.44,23.74 -12.91,0 -19.79,-6.88 -19.79,-19.79 0,-5.82 31.11,-49.97 36.5,-58.04l36.06 -56.29c-3.2,-4.79 -4.24,-5.05 -8.24,-9.35 -18.67,-20.09 -34.37,-43.08 -53.87,-62.67 -14.48,-14.57 -49.52,-61.74 -63.22,-70.9 -18.91,4.41 -43.14,19.66 -62.49,27.65l-59.14 28.81c-9.7,5.42 -31.4,13.36 -34.48,24.89 13.11,0.3 21.99,4.27 21.99,17.59 0,15.19 -17.58,23.72 -26.92,32.45l-30.79 26.38c-19.17,19.06 -41.97,33.85 -59.18,55.16 -41.96,51.99 -63.4,104.92 -63.4,187.24 18.51,0.41 33.46,6.59 52.76,6.59 23.25,0 19.4,0.76 37.06,-13.51 18.89,-15.25 36.52,-33.67 55.29,-48.05 4.44,-3.4 5.07,-4.26 9.35,-8.24 4.53,-4.22 5.35,-4.06 9.79,-7.8l17.58 -15.4c6.11,-5.17 32,-30.12 38.03,-30.12 11.23,0 19.79,5.41 19.79,17.59 0,19.57 -47.31,37.23 -50.41,55.13l-2.36 32.82c6.3,-3.02 13.25,-4.76 20.55,-8.04 35.99,-16.15 72.52,-33.86 100.92,-61.8 13.45,-13.21 34.65,-14.13 34.65,6.07 0,19.15 -56.97,53.96 -75.68,65.05 -15.28,9.05 -78.34,38.29 -98.03,38.29 -24.44,0 -15.72,-29.13 -15.38,-43.97 -8.96,2.39 -13.18,10.33 -19.79,15.39 -15.66,11.97 -39.16,41.78 -59.38,41.78 -22.62,0 -96.84,-3.51 -105.96,-21.57 -1.96,-3.89 -3.24,-8.99 -3.97,-14.89zm433.16 -473.65c4.34,-6.5 10.11,-9.14 15.96,-14.82 6.73,-6.55 11.13,-9.28 17.56,-15.42 58.82,-56.11 94.62,12.87 129.77,51.64 16.08,17.73 20.9,45.99 6.4,66.95 -6.6,9.55 -8.63,9.2 -16.34,16.62l-36.82 31.35 -57.72 -67.6c-5.82,-6.26 -8.64,-10.75 -14.27,-16.53l-44.54 -52.19z"/>
  <path class="fil0" d="M1091.49 645.9c9,-2.09 47.78,-15.85 53.71,-21.56 6.54,-6.3 21.01,-47.11 21.56,-53.71l4.7 0c2.52,10.79 6.12,18.09 9.69,27.95 15.39,42.6 18.49,26.54 63.36,47.2 4.58,2.11 1.95,0.65 4.58,2.47 -7.98,1.86 -51.89,17.89 -55.84,21.78 -4.8,4.73 -21.02,46.68 -21.79,55.85 -11.07,-8.11 -15.52,-44.5 -25.16,-54.81 -5.17,-5.54 -18.94,-8.89 -27.6,-12.39 -14.8,-5.98 -22.49,-6.33 -27.21,-12.78zm72.92 150.54c22.74,0 21.35,-8.28 35.64,-46.68 2.9,-7.79 6.26,-16.65 9.74,-25.55 13.59,-34.75 -1.97,-21.52 63.82,-46.73 18.11,-6.93 46.05,-12.52 46.05,-29.23 0,-18.74 -22.62,-22.2 -44.97,-30.3 -67.52,-24.47 -50.17,-9.42 -75.7,-74.84 -3.85,-9.86 -6.67,-17.39 -10.12,-27.53 -8.25,-24.29 -29.6,-25.18 -38.68,-1.5 -3.54,9.26 -6.28,17.33 -10.32,27.31 -29.06,71.92 -0.53,47.38 -100.17,85.65 -9.29,3.57 -18.56,5.2 -20.34,17.3 -4.13,28.04 67.89,36.09 95.04,51.57 8.98,5.13 6.31,7.27 13.05,24.58 3.87,9.91 6.61,17.34 10.2,27.44 5.31,14.94 15.28,48.51 26.76,48.51z"/>
  <path class="fil0" d="M84.21 732.43c9.11,-2.12 40.26,-12.91 45.43,-18.09 4.72,-4.75 17.39,-37.03 18.09,-45.42l4.7 0c0.7,8.39 13.37,40.67 18.09,45.42 5.17,5.18 36.33,15.97 45.42,18.09 -16.55,22.59 -46.1,-8.85 -63.51,65.87l-4.7 0c-2.24,-9.61 -13.25,-39.89 -18.54,-44.98 -3.33,-3.2 -16.75,-7.84 -22.92,-10.01 -8.51,-2.99 -17.56,-4.74 -22.06,-10.88zm-72.91 2.35c0,8.28 8.05,15.04 15,17.94 12.78,5.35 70.24,24.5 74.91,28.58 4.7,4.12 16.69,39.9 19.96,48.26 3.51,8.99 6.59,17.83 9.67,25.62 3.33,8.45 6.88,16.23 17.52,17.4 26.39,2.93 34.68,-71.17 48.36,-88.8 4.48,-5.77 39.2,-17.21 47.81,-20.41 9.35,-3.49 17.28,-6.35 25.88,-9.4 25.62,-9.09 21.82,-30.21 5.85,-37.15 -37.85,-16.47 -75.27,-19.23 -82.98,-39.35l-24.01 -65.38c-8.03,-22.99 -30.65,-20.84 -37.79,-1.75 -4.99,13.37 -25.23,71.92 -29.72,76.12 -17.57,16.43 -90.46,20.31 -90.46,48.32z"/>
  <path class="fil0" d="M1434.9 306.09l4.71 0c0.58,6.99 7.73,24.94 11.46,28.53 3.65,3.49 22.17,9.98 28.52,11.46l-12.39 6.42c-17.3,6.61 -25.79,14.24 -27.59,35.92 -17.57,-12.88 4.87,-28.45 -44.69,-39.99 12.99,-11.29 36.75,-3.49 39.98,-42.34zm-110.55 37.63c0,22.92 17.01,22.64 53.1,36.29 4.82,1.82 5.52,2.11 10.28,3.83 1.24,0.45 4.4,1.46 5.18,1.88 15.4,8.16 19.44,75.62 44.35,75.62 24,0 28.01,-56.73 40.9,-72 12.74,-15.1 72,-15.51 72,-40.91 0,-20 -14.54,-19.63 -32.24,-26.56 -47.25,-18.49 -36.49,-4.88 -56.15,-56.76 -4.98,-13.15 -7.95,-31.95 -24.51,-31.95 -23.45,0 -27.59,54.53 -39.57,70.99 -4.21,5.79 -29.75,13.84 -39.06,17.4 -11.06,4.24 -34.28,9.44 -34.28,22.17z"/>
  <polygon class="fil0" points="562.7,547.09 534.44,576.62 320.91,364.42 349.03,334.78 "/>
  <path class="fil0" d="M1248.38 1207.28l-27.45 28.97 -91.41 -90.1 26.88 -28.17c12.41,3.82 86.72,81.45 91.98,89.3z"/>
  <polygon class="fil0" points="428.46,600.74 400.13,630.35 369.29,600.79 398.91,572.7 "/>
  <path class="fil0" d="M1138.88 1096.49c-2.97,9.38 -5.69,9.95 -12.01,16.14 -5.86,5.72 -9.06,9.75 -15.49,14.05l-28.98 -27.45 28.33 -29.6 28.15 26.86z"/>
  <path class="fil0" d="M1091.99 1049.36l-28.33 29.61 -28.15 -26.86c2.98,-9.39 5.69,-9.96 12.02,-16.13 5.85,-5.73 9.05,-9.76 15.49,-14.06l28.97 27.44z"/>
  <path class="fil0" d="M381.32 553.85l-26.86 28.14c-9.38,-2.97 -9.95,-5.69 -16.13,-12.01 -5.73,-5.86 -9.75,-9.06 -14.07,-15.49l27.46 -28.98 29.6 28.34z"/>
  <path class="fil0" d="M284.61 266.4l-28.09 29.62 -29.6 -28.33c4.74,-6.77 7.87,-9.21 13.36,-14.78 6.36,-6.45 7.95,-10.36 16.83,-12.73l27.5 26.22z"/>
  <path class="fil0" d="M523.7 696.23c-4.75,6.76 -7.88,9.19 -13.37,14.77 -6.35,6.45 -7.95,10.36 -16.82,12.72l-27.5 -26.21 28.08 -29.62 29.61 28.34z"/>
  <polygon class="fil0" points="330.28,314.76 303.41,342.91 275.27,316.04 302.13,287.9 "/>
  <path class="fil0" d="M686.25 587.39l-510.38 -511.72 -29.57 30.86 511.7 510.36 -51.66 53.11c-14.88,-9.97 -395.62,-394.27 -427.8,-426.46 -8.72,-8.72 -139.03,-133.65 -139.03,-143.05 0,-12.42 40.3,-48.35 45.67,-48.35 16.23,0 18.24,19.64 35.56,24.81l26.23 -27.5c-4.56,-6.81 -32.13,-37.61 -40.29,-37.61l-40.3 0c-7.1,0 -67.16,60.06 -67.16,67.16l0 37.44c1.33,13.85 7.8,14.69 34.25,41.14 63.66,63.65 530.2,526.38 541.25,542.59l30.96 29.59 52.35 51.04 29.51 30.96 47.74 46.28c8.37,-5.6 24.39,-20.34 27.49,-30.16l-45.67 -47.11 52.44 -51.01 135.6 134.28 -52.29 53.74 -61.73 -60.32 -29.61 28.08 60.27 61.68 -17.31 18.95 83.3 81.98 22.67 -21.42 21.51 19.92 -22.72 24.28 80.67 79.35 28.07 -29.59 -49.63 -51.09 89.96 -88.64 233.7 232.33 -89.95 91.35 -155.15 -153.78c-9.09,2.43 -24.39,19.24 -30.21,27.52l183.84 185.22 15.61 -13.95c9.17,6.14 34.31,37.61 42.98,37.61l24.7 0c16.78,-0.85 15.72,-6.83 49.85,-40.96 34.13,-34.14 40.12,-33.07 40.97,-49.86l0 -24.7c0,-8.66 -31.47,-33.8 -38.13,-43.48l13.29 -14.95 -122.91 -124.24c7.62,-5.11 12.6,-11.32 19.47,-18.12 6.51,-6.45 12.9,-9.94 16.12,-20.14l-102.15 -100.83 -36.16 37.65 -67.16 -65.75 -21.49 22.76 -21.42 -22.68 21.41 -22.98 -83.16 -81.78 -18.94 17.33 -134.32 -135.65 -30.95 -29.5 -51.66 -53.11 -30.23 -28.88zm648.72 698.41l-28.13 -26.85 -60.52 59.09 28.28 29.57 60.37 -61.81zm-134.95 -226.27l4.84 -5.92 -44.48 -45.78 -5.49 6.56c2.46,10.67 12.56,16.59 20.28,24.32 7.73,7.72 13.65,17.83 24.85,20.82zm-195.45 -85.32l-20.02 -21.59 -44.49 43.04 20.25 21.52 44.26 -42.97zm-51.06 -98l-89.95 88.63 24.2 25.47 88.64 -89.94 -22.89 -24.16zm-214.89 -176.01l-51.04 -52.35 -52.35 51.05 51.05 52.35 52.34 -51.05z"/>
  <polygon class="fil0" points="1091.71,75.64 1120.04,105.25 1150.88,75.7 1121.26,47.6 "/>
  <polygon class="fil0" points="103.57,290.2 75.24,319.81 44.4,290.26 74.02,262.16 "/>
  <path class="fil0" d="M1138.84 28.75l26.87 28.14c9.37,-2.97 9.95,-5.69 16.13,-12.01 5.72,-5.86 9.75,-9.06 14.06,-15.49l-27.45 -28.97 -29.61 28.33z"/>
  <path class="fil0" d="M56.43 243.31l-26.86 28.14c-9.38,-2.97 -9.96,-5.69 -16.14,-12.01 -5.72,-5.86 -9.74,-9.06 -14.06,-15.49l27.46 -28.97 29.6 28.33z"/>
  <path class="fil0" d="M996.46 171.13c4.76,6.76 7.89,9.19 13.38,14.77 6.35,6.45 7.94,10.36 16.82,12.73l27.5 -26.22 -28.08 -29.61 -29.62 28.33z"/>
  <path class="fil1" d="M632.6 578.77c-38.84,17.03 -16.35,60.21 16.09,49.88 31.36,-9.99 15.49,-63.74 -16.09,-49.88z"/>
 </g>
</svg>
