<?xml version="1.0" encoding="UTF-8"?>
<!DOCTYPE svg PUBLIC "-//W3C//DTD SVG 1.1//EN" "http://www.w3.org/Graphics/SVG/1.1/DTD/svg11.dtd">
<!-- Creator: CorelDRAW -->
<svg xmlns="http://www.w3.org/2000/svg" xml:space="preserve" width="16.9332mm" height="16.9332mm" style="shape-rendering:geometricPrecision; text-rendering:geometricPrecision; image-rendering:optimizeQuality; fill-rule:evenodd; clip-rule:evenodd"
viewBox="0 0 16.9332 16.9332"
 xmlns:xlink="http://www.w3.org/1999/xlink">
 <defs>
  <style type="text/css">
   <![CDATA[
    .fil0 {fill:black}
    .fil3 {fill:#777779}
    .fil2 {fill:#7C7C7D}
    .fil4 {fill:#818182}
    .fil1 {fill:#F3F3F5}
   ]]>
  </style>
 </defs>
 <g id="Capa_x0020_1">
  <metadata id="CorelCorpID_0Corel-Layer"/>
  <g id="_376882624">
   <path id="_408356096" class="fil0" d="M11.8635 7.8213c0.0637,0.0061 0.1261,0.0123 0.1906,0.0202 0.017,0.0021 0.0848,0.0101 0.0908,0.0121 0.0612,0.0203 0.0594,0.0312 0.0877,0.0515 0.4311,0.1658 0.2484,0.9057 0.1526,1.4983 -0.0981,0.6061 -0.1983,0.9965 -0.3897,1.5476 -0.2687,0.7739 -1.0983,1.9569 -1.794,2.1012 -0.0358,0.0378 -0.0062,0.0302 -0.0676,0.0612 -0.0684,0.0345 -0.0181,0.0086 -0.097,0.0306 -0.849,0.3232 -1.9846,0.3832 -2.9343,0.1805 -2.0301,-0.4334 -3.0647,-2.3198 -2.1943,-3.9972 0.3436,-0.6623 1.046,-1.3234 1.9589,-1.4559 0.3084,-0.0448 1.2538,-0.0476 1.5069,0.0794 0.5213,0.2617 -0.0484,0.8631 -0.1969,1.1174 -0.2112,0.3621 -0.3695,0.7126 -0.5349,1.134 -0.0844,0.2149 -0.1746,0.482 -0.0243,0.6691 0.1313,0.1634 0.421,0.2131 0.5922,0.014 0.125,-0.1453 0.7141,-2.2744 2.1823,-2.9058 0.5219,-0.2244 0.9039,-0.1452 1.471,-0.1582zm-0.7426 -5.4201c-0.719,0.0512 -2.9283,0.0124 -3.8389,0.0209 -0.2963,0.0028 -1.7162,0.0525 -1.8834,0.003 -0.1532,-0.0455 -0.3388,-0.2561 -0.032,-0.5694 0.1921,-0.1962 0.2865,-0.2927 0.5282,-0.4597 1.0794,-0.7457 3.426,-0.8351 4.6358,-0.0404 0.0983,0.0644 0.1654,0.1173 0.2664,0.1892 0.1276,0.0906 0.1478,0.1306 0.26,0.2338 0.2209,0.203 0.3396,0.3298 0.0639,0.6226zm2.2079 5.9605c0.1293,-1.7037 -0.0039,-3.9823 -0.5849,-5.4609 -0.5773,-1.4694 -1.6089,-2.49 -3.3084,-2.8019 -0.8369,-0.1536 -2.0238,-0.1345 -2.8016,0.0998 -0.6645,0.2003 -1.5065,0.6179 -1.9131,1.1247 -0.1189,0.1481 -0.2301,0.2594 -0.3582,0.4388 -0.3312,0.4636 -0.5552,0.9806 -0.7413,1.5345 -0.2648,0.7885 -0.3977,1.7199 -0.4524,2.6 -0.2418,3.8901 0.4083,7.6122 3.9168,8.2427 0.9017,0.162 1.9002,0.1316 2.7703,-0.0976 2.5251,-0.6652 3.2756,-3.0823 3.4728,-5.6801z"/>
   <path id="_374022832" class="fil1" d="M10.0369 13.144c0.0233,-0.0182 0.0303,-0.0317 0.0747,-0.0551 0.0499,-0.0263 0.0496,-0.0209 0.0899,-0.0367 0.6957,-0.1443 1.5253,-1.3273 1.794,-2.1012 0.1914,-0.5511 0.2916,-0.9415 0.3897,-1.5476 0.0958,-0.5926 0.2785,-1.3325 -0.1526,-1.4983 -0.1341,-0.0164 -0.1928,-0.0067 -0.3133,-0.0489 -0.008,-0.0028 -0.0232,-0.0031 -0.0289,-0.0164 -0.0055,-0.0131 -0.0178,-0.0125 -0.0269,-0.0185 -0.5671,0.013 -0.9491,-0.0662 -1.471,0.1582 -1.4682,0.6314 -2.0573,2.7605 -2.1823,2.9058 -0.1712,0.1991 -0.4609,0.1494 -0.5922,-0.014 -0.1503,-0.1871 -0.0601,-0.4542 0.0243,-0.6691 0.1654,-0.4214 0.3237,-0.7719 0.5349,-1.134 0.1485,-0.2543 0.7182,-0.8557 0.1969,-1.1174 -0.2531,-0.127 -1.1985,-0.1242 -1.5069,-0.0794 -0.9129,0.1325 -1.6153,0.7936 -1.9589,1.4559 -0.8704,1.6774 0.1642,3.5638 2.1943,3.9972 0.9497,0.2027 2.0853,0.1427 2.9343,-0.1805z"/>
   <path id="_376878520" class="fil1" d="M11.1209 2.4012c0.2757,-0.2928 0.157,-0.4196 -0.0639,-0.6226 -0.1122,-0.1032 -0.1324,-0.1432 -0.26,-0.2338 -0.101,-0.0719 -0.1681,-0.1248 -0.2664,-0.1892 -1.2098,-0.7947 -3.5564,-0.7053 -4.6358,0.0404 -0.2417,0.167 -0.3361,0.2635 -0.5282,0.4597 -0.3068,0.3133 -0.1212,0.5239 0.032,0.5694 0.1672,0.0495 1.5871,-0.0002 1.8834,-0.003 0.9106,-0.0085 3.1199,0.0303 3.8389,-0.0209z"/>
   <path id="_376881520" class="fil0" d="M8.839 16.0879c-0.1193,0.0785 -0.5076,0.0483 -0.7769,0.0903 -0.2988,0.1646 -0.2666,0.5782 0.0245,0.7125 0.1844,0.0851 0.822,0.0201 1.0523,-0.0023 0.658,-0.064 1.3225,-0.214 1.8607,-0.4451 0.7898,-0.3393 0.8343,-0.4642 1.4089,-0.9064 0.219,-0.1685 0.2732,-0.2738 0.4296,-0.4439 0.0478,-0.0519 0.0917,-0.0801 0.1342,-0.1298 0.0769,-0.0903 0.1575,-0.2159 0.2418,-0.3272 0.225,-0.297 0.6996,-0.8293 0.5747,-1.1331 -0.1246,-0.303 -0.5369,-0.2871 -0.714,-0.0693 -0.1658,0.2038 -0.3295,0.4794 -0.4862,0.6908 -0.3322,0.4479 -0.183,0.2468 -0.5224,0.6154 -0.7097,0.7709 -2.205,1.4263 -3.2272,1.3481z"/>
   <path id="_376881568" class="fil0" d="M4.3997 15.6845c0.0859,0.3651 1.4706,0.9697 1.7425,0.949 0.2351,-0.0178 0.4062,-0.2187 0.3622,-0.4813 -0.0597,-0.3569 -0.4998,-0.3174 -1.1135,-0.6637 -0.1685,-0.095 -0.4204,-0.3152 -0.613,-0.3074 -0.2451,0.0099 -0.4446,0.2213 -0.3782,0.5034z"/>
   <path id="_376881280" class="fil2" d="M8.0621 16.1782c0.2693,-0.042 0.6576,-0.0118 0.7769,-0.0903 -0.1437,-0.0106 -0.2731,0.007 -0.4192,0.0169 -0.1146,0.0077 -0.2844,-0.0127 -0.3577,0.0734z"/>
   <path id="_376881376" class="fil3" d="M12.2326 7.9051c-0.0283,-0.0203 -0.0265,-0.0312 -0.0877,-0.0515 -0.006,-0.002 -0.0738,-0.01 -0.0908,-0.0121 -0.0645,-0.0079 -0.1269,-0.0141 -0.1906,-0.0202 0.0091,0.006 0.0214,0.0054 0.0269,0.0185 0.0057,0.0133 0.0209,0.0136 0.0289,0.0164 0.1205,0.0422 0.1792,0.0325 0.3133,0.0489z"/>
   <path id="_376882024" class="fil4" d="M10.0369 13.144c0.0789,-0.022 0.0286,0.0039 0.097,-0.0306 0.0614,-0.031 0.0318,-0.0234 0.0676,-0.0612 -0.0403,0.0158 -0.04,0.0104 -0.0899,0.0367 -0.0444,0.0234 -0.0514,0.0369 -0.0747,0.0551z"/>
  </g>
 </g>
</svg>
