<?xml version="1.0" encoding="UTF-8"?>
<!DOCTYPE svg PUBLIC "-//W3C//DTD SVG 1.1//EN" "http://www.w3.org/Graphics/SVG/1.1/DTD/svg11.dtd">
<!-- Creator: CorelDRAW 2017 -->
<svg xmlns="http://www.w3.org/2000/svg" xml:space="preserve" width="135.467mm" height="135.467mm" version="1.1" style="shape-rendering:geometricPrecision; text-rendering:geometricPrecision; image-rendering:optimizeQuality; fill-rule:evenodd; clip-rule:evenodd"
viewBox="0 0 13546.66 13546.66"
 xmlns:xlink="http://www.w3.org/1999/xlink"
 xmlns:xodm="http://www.corel.com/coreldraw/odm/2003">
 <defs>
  <style type="text/css">
   <![CDATA[
    .str0 {stroke:white;stroke-width:132.29;stroke-miterlimit:22.9256}
    .fil1 {fill:none}
    .fil2 {fill:#6699FF}
    .fil0 {fill:black;fill-rule:nonzero}
    .fil3 {fill:url(#id0)}
   ]]>
  </style>
  <linearGradient id="id0" gradientUnits="userSpaceOnUse" x1="3638.56" y1="3526.72" x2="7387.54" y2="10633.19">
   <stop offset="0" style="stop-opacity:1; stop-color:#015C8B"/>
   <stop offset="1" style="stop-opacity:1; stop-color:#003399"/>
  </linearGradient>
 </defs>
<symbol id="n" viewBox="394932.97 370599.16 4050.97 13546.71">
 <path class="fil0" d="M396557.2 373554.78l2426.74 0 0 7460.25c0,1012.94 -244.03,1786.65 -732.1,2321.93 -488.07,538.48 -1195.37,808.91 -2119.5,808.91l-1199.37 0 0 -1597.02 418.46 0c460.06,0 775.31,-104.81 948.13,-313.64 170.42,-205.63 257.64,-612.09 257.64,-1220.17l0 -7461.05 0 0 0 0.8 0 -0.01zm0 -2955.62l2426.74 0 0 1980.28 -2426.74 0 0 -1980.28z"/>
</symbol>
<symbol id="b" viewBox="283833.41 270339.92 13546.7 13256.27">
 <path class="fil0" d="M297380.11 276927.65l0 1148.09 -9440.77 0c98.41,944.88 443.24,1655.33 1032.08,2133.77 585.65,472.84 1405.71,707.26 2458.6,707.26 849.67,0 1719.34,-121.61 2609.01,-371.23 887.27,-255.22 1803.35,-637.65 2749.02,-1148.09l0 3108.25c-960.08,364.83 -1919.36,635.25 -2876.23,812.07 -951.28,185.62 -1901.75,278.42 -2853.03,278.42 -2290.59,0 -4068.33,-580.05 -5334.83,-1739.34 -1260.9,-1160.09 -1890.55,-2786.63 -1890.55,-4882.8 0,-2064.17 617.65,-3681.9 1855.35,-4859.59 1244.1,-1183.3 2957.84,-1774.54 5138.02,-1774.54 1986.56,0 3574.69,600.05 4766.79,1797.75 1188.9,1191.3 1785.74,2789.03 1785.74,4789.99l0 0 0 0 0.8 0 0 -0.01zm-4152.33 -1345.7c0,-765.66 -226.42,-1383.31 -672.85,-1855.35 -440.84,-469.64 -1026.48,-707.26 -1751.34,-707.26 -783.26,0 -1415.31,220.02 -1901.75,660.85 -487.24,440.84 -794.46,1075.29 -916.07,1901.75l5242.03 0 0 0 -0.02 0.01z"/>
</symbol>
<symbol id="o" viewBox="336189.26 317348.94 11156.9 13546.7">
 <path class="fil0" d="M336189.26 317349.74l5798.07 0c1722.54,0 3045.85,382.43 3967.52,1148.09 926.48,765.66 1391.31,1855.35 1391.31,3267.47 0,1419.32 -464.04,2511.4 -1391.31,3277.07 -921.67,765.66 -2244.98,1148.09 -3967.52,1148.09l-2305.79 0 0 4705.18 -3491.48 0 0 -13546.7 0 0 -0.8 0.8zm3492.29 2529.8l0 3781.11 1932.16 0c676.85,0 1199.3,-163.21 1568.13,-494.44 373.63,-328.83 560.05,-796.06 560.05,-1400.11 0,-602.45 -186.42,-1066.49 -560.05,-1391.31 -368.83,-328.83 -891.27,-494.44 -1568.13,-494.44l-1932.16 0 0 -0.8 0 -0.01z"/>
</symbol>
<symbol id="d" viewBox="273527.54 257587.3 13304.27 13546.71">
 <path class="fil0" d="M286831.81 263079.28l0 8054.73 -4252.6 0 0 -6160.06c0,-1142.56 -30.4,-1925.87 -84.81,-2357.13 -48.81,-437.66 -133.62,-759.31 -255.24,-972.14 -170.42,-273.64 -397.66,-488.87 -680.1,-644.09 -285.64,-152.02 -604.08,-230.43 -960.13,-230.43 -884.12,0 -1579.42,346.45 -2089.89,1032.94 -504.07,680.1 -753.71,1621.83 -753.71,2818.8l0 6512.11 -4227.79 0 0 -13231.46 4227.79 0 0 1944.27c637.69,-777.71 1315.38,-1348.99 2029.08,-1713.04 720.1,-364.85 1513.01,-546.48 2381.13,-546.48 1521.81,0 2678.78,471.27 3474.89,1409.8 792.91,932.93 1190.57,2293.12 1190.57,4082.17l0 0.8 0 0 0.8 -0.8 0.01 0.01z"/>
</symbol>
<symbol id="k" viewBox="343726.39 330041.68 11040.25 13546.71">
 <path class="fil0" d="M343727.19 330042.49l3103.27 0 2612.86 6589.75 2220.05 -6589.75 3103.27 0 -4084.09 10629.84c-410.41,1080.82 -889.62,1836.84 -1436.03,2264.85 -548.81,432.01 -1266.43,651.21 -2157.65,651.21l-1801.64 0 0 -2042.45 972.02 0c528.01,0 912.02,-84.8 1150.43,-249.61 236.01,-167.2 423.21,-468.01 561.61,-900.82l80 -268.01 -4324.9 -10085.82 0 0 0.8 0.8 0 0.01z"/>
</symbol>
<symbol id="g" viewBox="346133.67 325477.59 9804 13546.7">
 <path class="fil0" d="M355937.67 333088.61l0 5935.68 -3133.85 0 0 -4529.97c0,-846.47 -22.4,-1428.12 -62.41,-1745.74 -36,-322.43 -98.41,-559.25 -188.02,-716.06 -125.61,-201.62 -293.62,-360.83 -501.64,-474.44 -210.42,-112.01 -445.64,-170.41 -707.26,-170.41 -651.25,0 -1164.09,255.22 -1540.12,760.86 -372.03,501.64 -555.25,1195.3 -555.25,2076.97l0 4798.79 -3115.45 0 0 -13546.7 3115.45 0 0 5228.42c470.44,-572.85 968.88,-993.68 1495.32,-1262.5 530.44,-268.82 1114.49,-402.43 1754.54,-402.43 1121.69,0 1974.56,347.23 2561.01,1038.48 584.05,687.26 877.67,1689.74 877.67,3008.24l0 0 0 0 0 0.8 0.01 0.01z"/>
</symbol>
<symbol id="c" viewBox="289570.67 276867.25 13546.71 12946.66">
 <path class="fil0" d="M296355.23 279688.28c-869.67,0 -1534.52,314.43 -1993.76,940.08 -461.64,628.85 -691.26,1534.52 -691.26,2718.62 0,1177.7 229.62,2081.77 691.26,2707.42 458.44,628.85 1124.09,940.08 1993.76,940.08 860.87,0 1517.72,-311.23 1970.56,-940.08 458.44,-625.65 691.26,-1528.92 691.26,-2707.42 0,-1183.3 -232.02,-2089.77 -691.26,-2718.62 -452.84,-625.65 -1109.69,-940.08 -1970.56,-940.08zm0 -2821.03c2120.97,0 3777.11,574.45 4972.4,1721.74 1192.1,1140.89 1789.75,2726.62 1789.75,4757.19 0,2024.96 -597.65,3610.69 -1789.75,4757.19 -1195.3,1140.89 -2851.43,1710.54 -4972.4,1710.54 -2129.77,0 -3794.71,-568.85 -4994.81,-1710.54 -1195.3,-1146.49 -1789.75,-2732.22 -1789.75,-4757.19 0,-2030.56 594.45,-3616.29 1789.75,-4757.19 1200.9,-1146.49 2865.83,-1721.74 4994.81,-1721.74z"/>
</symbol>
<symbol id="y" viewBox="321388.66 303558.56 11118.36 13546.7">
 <path class="fil0" d="M332507.02 316135.52c-620.09,320.04 -1267.38,560.08 -1939.47,720.1 -667.29,164.82 -1367.39,249.64 -2099.49,249.64 -2174.71,0 -3896.55,-604.88 -5169.53,-1819.46 -1274.58,-1220.17 -1909.87,-2869.2 -1909.87,-4948.69 0,-2084.29 634.49,-3734.12 1909.87,-4948.69 1272.18,-1220.17 2994.82,-1829.86 5169.53,-1829.86 732.1,0 1432.2,84.81 2099.49,249.64 672.09,160.02 1319.39,400.06 1939.47,720.1l0 2699.58c-627.29,-420.06 -1244.97,-729.7 -1849.86,-929.73 -607.29,-200.03 -1247.37,-300.04 -1919.47,-300.04 -1200.17,0 -2144.3,387.25 -2829.2,1160.16 -687.3,767.31 -1029.74,1827.46 -1029.74,3179.65 0,1347.39 342.45,2406.74 1029.74,3179.65 684.9,767.31 1629.83,1149.76 2829.2,1149.76 672.09,0 1312.18,-95.21 1919.47,-290.44 604.88,-200.03 1222.57,-512.07 1849.86,-940.13l0 2699.58 0 0 0 -0.8 0 -0.02z"/>
</symbol>
<symbol id="l" viewBox="348874.12 329200.56 10276.65 13546.71">
 <path class="fil0" d="M353973.23 340522.15c650.49,0 1147.36,-237.63 1494.61,-712.1 344.85,-479.27 518.47,-1173.76 518.47,-2083.49 0,-914.53 -173.62,-1609.03 -518.47,-2083.49 -347.25,-479.27 -844.12,-720.9 -1494.61,-720.9 -656.89,0 -1160.16,241.63 -1512.21,720.9 -352.05,481.67 -527.27,1176.16 -527.27,2083.49 0,903.33 176.02,1595.42 527.27,2074.69 352.05,481.67 854.52,720.9 1512.21,720.9zm-2039.48 -6188.87c421.66,-562.48 888.12,-976.14 1397.8,-1239.37 514.47,-264.04 1107.36,-395.26 1775.45,-395.26 1177.77,0 2145.1,470.47 2901.21,1406.6 760.11,938.53 1142.56,2145.1 1142.56,3622.11 0,1472.21 -382.45,2677.18 -1142.56,3613.31 -756.11,938.53 -1723.44,1406.6 -2901.21,1406.6 -668.09,0 -1261.78,-132.02 -1775.45,-395.26 -509.67,-264.04 -976.14,-672.89 -1397.8,-1230.57l0 1380.19 -3059.63 0 0 -13301.07 3059.63 0 0 5134.32 0 0 0 -1.6z"/>
</symbol>
<symbol id="w" viewBox="281419.86 264232.24 11712.03 13546.7">
 <path class="fil0" d="M292266.98 264941.94l0 3141.24c-885.72,-370.45 -1739.44,-645.69 -2560.36,-829.72 -824.12,-189.63 -1597.02,-284.84 -2323.53,-284.84 -791.31,0 -1374.59,100.81 -1754.65,296.04 -379.25,198.43 -568.88,497.67 -568.88,900.93 0,332.05 142.42,589.68 426.46,770.51 290.44,175.22 808.91,304.84 1553.02,391.25l735.3 95.21c2109.9,269.64 3526.09,711.3 4255,1327.39 735.3,616.09 1102.55,1582.62 1102.55,2892.41 0,1374.59 -509.67,2412.34 -1529.01,3105.24 -1013.74,687.3 -2524.35,1031.34 -4539.84,1031.34 -847.32,0 -1727.44,-68.01 -2643.57,-201.63 -909.73,-133.62 -1842.66,-335.25 -2797.19,-604.08l0 -3129.24c820.92,396.86 1662.63,696.1 2524.35,900.93 859.32,198.43 1736.24,296.04 2631.57,296.04 805.71,0 1410.6,-109.62 1813.85,-332.05 408.86,-228.03 616.09,-560.08 616.09,-995.34 0,-370.45 -142.42,-643.29 -426.46,-817.71 -278.44,-180.83 -835.32,-323.25 -1671.43,-426.46l-723.3 -95.21c-1834.66,-228.03 -3123.64,-652.09 -3864.54,-1268.18 -735.3,-622.49 -1102.55,-1570.62 -1102.55,-2844.4 0,-1365.79 465.67,-2376.33 1398.6,-3034.03 939.33,-664.09 2376.33,-995.34 4314.21,-995.34 758.51,0 1555.42,59.21 2393.94,177.62 835.32,112.82 1748.25,290.44 2737.98,532.87l0 -0.8 2.4 0 -0.01 0.01z"/>
</symbol>
<symbol id="m" viewBox="348188.01 329198.96 10277.45 13546.7">
 <path class="fil0" d="M355388.23 334333.28l0 -5134.32 3077.23 0 0 13301.07 -3077.23 0 0 -1380.19c-421.66,562.48 -888.12,976.14 -1397.8,1239.37 -505.67,256.84 -1089.75,386.45 -1757.85,386.45 -1177.77,0 -2149.1,-468.07 -2910.01,-1406.6 -756.11,-936.13 -1134.56,-2140.3 -1134.56,-3613.31 0,-1477.01 377.65,-2683.58 1134.56,-3622.11 760.11,-936.13 1732.24,-1406.6 2910.01,-1406.6 661.69,0 1248.18,132.02 1757.85,395.26 509.67,263.24 976.14,676.89 1397.8,1239.37l0 0 0 0 0 1.6 0 0.01zm-2013.08 6188.87c650.49,0 1147.36,-237.63 1494.61,-712.1 344.85,-479.27 518.47,-1173.76 518.47,-2083.49 0,-914.53 -173.62,-1609.03 -518.47,-2083.49 -347.25,-479.27 -844.12,-720.9 -1494.61,-720.9 -650.49,0 -1149.76,241.63 -1494.61,720.9 -347.25,474.47 -518.47,1168.96 -518.47,2083.49 0,909.73 171.22,1604.23 518.47,2083.49 344.85,474.47 844.12,712.1 1494.61,712.1z"/>
</symbol>
<symbol id="x" viewBox="342683.79 324842.34 11109.7 13546.7">
 <path class="fil0" d="M353793.49 337417.76c-618.45,324.03 -1264.1,566.45 -1933.76,728.86 -672.05,161.61 -1372.11,242.42 -2096.17,242.42 -2176.98,0 -3901.92,-604.85 -5172.42,-1816.95 -1272.9,-1216.9 -1907.35,-2865.03 -1907.35,-4947.6 0,-2086.57 634.45,-3737.1 1907.35,-4956.4 1270.5,-1216.9 2995.44,-1825.75 5172.42,-1825.75 724.06,0 1423.32,85.61 2096.17,252.02 670.45,161.61 1315.31,402.43 1933.76,720.06l0 2707.42c-624.85,-424.83 -1239.3,-737.66 -1844.15,-935.28 -607.25,-197.62 -1245.7,-296.82 -1916.16,-296.82 -1200.9,0 -2145.77,384.83 -2833.83,1151.29 -690.46,768.86 -1034.48,1830.55 -1034.48,3184.26 0,1344.91 344.03,2401.79 1034.48,3175.46 688.06,768.86 1632.93,1151.29 2833.83,1151.29 670.45,0 1308.91,-99.21 1916.16,-296.82 604.85,-197.62 1219.3,-508.04 1844.15,-935.28l0 2698.62 0 -0.8z"/>
</symbol>
<symbol id="v" viewBox="340111.58 328034.2 13546.7 12923.45">
 <polygon class="fil0" points="340111.58,328034.2 343460.65,328034.2 346889.73,337573.38 350310.01,328034.2 353658.28,328034.2 348876.29,340957.65 344894.37,340957.65 "/>
</symbol>
<symbol id="q" viewBox="334704.34 317348.14 12145.79 13546.69">
 <polygon class="fil0" points="334704.34,317348.14 338606.26,317348.14 343535.46,326636.89 343535.46,317348.14 346850.13,317348.14 346850.13,330894.83 342938.61,330894.83 338018.21,321596.48 338018.21,330894.83 334704.34,330894.83 "/>
</symbol>
<symbol id="e" viewBox="278725.81 257573.68 9829.6 13546.69">
 <path class="fil0" d="M288554.6 261498c-373.63,-176.01 -740.86,-306.42 -1105.69,-388.83 -364.83,-79.21 -735.26,-121.61 -1105.69,-121.61 -1087.29,0 -1925.76,349.63 -2514.6,1044.88 -583.25,698.46 -874.47,1694.54 -874.47,2989.04l0 6098.89 -4228.34 0 0 -13230.67 4227.54 0 0 2174.58c540.84,-865.67 1166.49,-1497.72 1871.35,-1895.35 704.86,-394.43 1548.93,-595.25 2539.41,-595.25 136.81,0 285.62,8.8 449.64,24 170.41,8.8 412.83,33.6 728.86,72.81l12.8 3827.51 0 0 -0.8 0 -0.01 0z"/>
</symbol>
<symbol id="r" viewBox="366252.9 363743.9 13546.71 8621.5">
 <path class="fil0" d="M374070.34 365344.03c340.03,-520.04 744.06,-916.07 1213.7,-1190.5 468.04,-272.82 984.08,-409.63 1546.53,-409.63 968.08,0 1704.94,300.02 2211.38,896.87 504.84,593.65 757.66,1459.32 757.66,2597.81l0 5126.02 -2706.62 0 0 -4391.56c4,-61.6 8,-127.21 8,-200.82 4,-71.21 8,-172.01 8,-301.62 0,-596.85 -88.81,-1030.48 -263.22,-1298.51 -176.01,-266.42 -460.04,-401.63 -850.47,-401.63 -510.44,0 -904.87,212.82 -1183.3,633.65 -278.42,423.23 -423.23,1032.08 -432.84,1824.95l0 4136.34 -2705.82 0 0 -4391.56c0,-931.28 -80.81,-1532.92 -240.02,-1801.75 -160.81,-266.42 -446.44,-401.63 -858.47,-401.63 -516.04,0 -916.07,214.42 -1198.5,641.65 -278.42,423.23 -417.63,1026.48 -417.63,1808.95l0 4144.34 -2705.82 0 0 -8420.68 2706.62 0 0 1236.9c328.83,-479.24 707.26,-836.87 1136.89,-1074.49 432.84,-241.62 906.47,-363.23 1422.52,-363.23 581.65,0 1094.49,143.21 1538.52,425.63 448.04,278.42 784.86,670.45 1012.88,1175.3l0 0.8 0 0 0 -1.6 0.01 0z"/>
</symbol>
<symbol id="i" viewBox="356165.29 325477.59 3116.25 13546.7">
 <path class="fil0" d="M356165.29 329273.9l3116.25 0 0 9750.39 -3116.25 0 0 -9750.39zm0 -3796.31l3116.25 0 0 2542.61 -3116.25 0 0 -2542.61z"/>
</symbol>
<symbol id="h" viewBox="281673.83 264200.99 11389.04 13546.7">
 <path class="fil0" d="M293062.07 264914.64l0 3365.67c-563.21,-384.81 -1125.62,-669.61 -1694.44,-853.62 -563.21,-180.8 -1146.43,-272.81 -1753.64,-272.81 -1146.43,0 -2044.05,337.61 -2690.46,1007.22 -640.01,672.81 -960.02,1612.04 -960.02,2820.86 0,1203.23 320.01,2139.25 960.02,2808.86 645.61,672.81 1544.03,1007.22 2690.46,1007.22 645.61,0 1259.23,-95.2 1836.84,-284.81 584.01,-189.6 1120.02,-474.41 1612.04,-853.62l0 3377.67c-648.81,236.81 -1304.03,414.41 -1967.24,532.81 -663.21,118.4 -1327.23,177.6 -1991.24,177.6 -2332.05,0 -4153.69,-595.21 -5463.32,-1789.64 -1312.83,-1191.23 -1967.24,-2850.46 -1967.24,-4977.71 0,-2132.85 654.41,-3795.28 1967.24,-4989.71 1309.63,-1191.23 3132.07,-1789.64 5463.32,-1789.64 669.61,0 1333.63,59.2 1991.24,177.6 654.41,118.4 1309.63,296.01 1967.24,532.81l0 0 0 0 -0.8 3.2 0 0.04z"/>
</symbol>
<symbol id="p" viewBox="273912 258393.02 13268.27 13546.7">
 <path class="fil0" d="M273912 266458.96l0 -8065.13 4244.6 0 0 1321.79c0,721.7 -6.4,1621.83 -12,2704.38 -8.8,1076.15 -12,1794.65 -12,2158.7 0,1060.95 24,1825.06 72.81,2292.32 54.41,469.67 151.22,809.71 291.24,1018.54 169.62,276.04 391.25,491.27 667.29,642.49 282.44,145.62 606.49,218.43 970.54,218.43 879.32,0 1570.62,-333.65 2073.89,-1006.54 500.07,-679.3 752.11,-1619.43 752.11,-2826l0 -6524.92 4219.79 0 0 13207.45 -4220.59 0 0 -1904.27c-640.09,769.71 -1316.18,1333.79 -2025.08,1697.84 -712.1,364.05 -1497.81,545.68 -2352.33,545.68 -1521.81,0 -2680.38,-464.07 -3480.49,-1394.6 -794.51,-936.93 -1188.97,-2297.92 -1188.97,-4086.97l0 0 0 0 -0.8 0.8 -0.01 0.01z"/>
</symbol>
<symbol id="t" viewBox="344788.36 325475.19 10699.27 13546.7">
 <polygon class="fil0" points="344788.36,325475.19 347904.62,325475.19 347904.62,332853.39 351494.51,329271.5 355111.6,329271.5 350348.81,333748.67 355487.63,339021.89 351709.72,339021.89 347903.82,334956.76 347903.82,339021.89 344788.36,339021.89 "/>
</symbol>
<symbol id="a" viewBox="331134.92 309807.64 8526.58 13546.7">
 <path class="fil0" d="M336183.02 309807.64l0 2993.67 3478.48 0 0 2412.85 -3478.48 0 0 4476.9c0,492.01 96.8,823.22 290.41,998.42 198.4,169.6 586.41,252.01 1163.23,252.01l1734.44 0 0 2412.85 -2897.66 0c-1332.03,0 -2274.45,-276.01 -2828.86,-833.62 -556.81,-554.41 -833.62,-1496.83 -833.62,-2828.86l0 -4476.9 -1676.04 0 0 -2412.85 1676.04 0 0 -2993.67 3372.07 0 0 0 0 -0.8 -0.01 0z"/>
</symbol>
<symbol id="j" viewBox="333037.41 317348.14 13257.07 13546.69">
 <polygon class="fil0" points="333037.41,317348.14 336528.89,317348.14 336528.89,322286.14 341570.9,317348.14 345622.43,317348.14 339096.3,323761.46 346294.48,330894.83 341925.33,330894.83 336528.89,325554.4 336528.89,330894.83 333037.41,330894.83 "/>
</symbol>
<symbol id="u" viewBox="356165.29 325477.59 3116.25 13546.7">
 <polygon class="fil0" points="356165.29,325477.59 359281.54,325477.59 359281.54,339024.29 356165.29,339024.29 "/>
</symbol>
<symbol id="f" viewBox="279197.05 264218.21 13050.68 13546.72">
 <path class="fil0" d="M285942.39 271626.82c-862.47,0 -1511.32,148.01 -1943.36,438.44 -426.43,293.62 -640.05,723.26 -640.05,1292.1 0,521.64 172.01,933.68 521.64,1232.9 346.43,293.62 832.87,438.44 1457.72,438.44 773.66,0 1424.92,-276.02 1955.36,-829.67 527.24,-560.05 793.66,-1259.3 793.66,-2097.77l0 -474.44 -2144.97 0 0 0zm6305.31 -1552.92l0 7359.8 -4160.34 0 0 -1908.15c-554.44,782.46 -1179.3,1351.31 -1872.95,1706.54 -687.26,356.03 -1525.72,532.84 -2513,532.84 -1336.11,0 -2423.4,-384.83 -3259.46,-1161.69 -829.67,-782.46 -1244.9,-1795.35 -1244.9,-3045.85 0,-1508.12 515.24,-2613.01 1552.93,-3318.67 1043.28,-711.26 2678.62,-1066.49 4906.8,-1066.49l2429.8 0 0 -320.03c0,-654.45 -257.62,-1132.09 -770.46,-1434.52 -515.24,-308.02 -1315.31,-462.44 -2405.8,-462.44 -885.67,0 -1712.94,92.01 -2477,272.82 -758.46,175.21 -1464.12,438.44 -2109.77,793.66l0 -3152.26c883.27,-213.62 1768.94,-373.63 2654.62,-485.64 892.07,-109.61 1784.14,-165.61 2678.62,-165.61 2328.99,0 4009.13,459.24 5037.21,1374.51 1033.68,918.47 1552.93,2412.2 1552.93,4480.36l0 0 0.8 0.8 -0.03 0.02z"/>
</symbol>
<symbol id="s" viewBox="348341.23 325496.04 7575.47 13546.7">
 <path class="fil0" d="M355916.7 325496.04l0 2050.69 -1728.24 0c-443.26,0 -749.71,80.81 -922.53,241.63 -174.42,156.82 -260.04,429.66 -260.04,824.12l0 680.1 2659.57 0 0 2229.11 -2659.57 0 0 7521.05 -3115.64 0 0 -7521.05 -1549.02 0 0 -2229.11 1549.02 0 0 -680.1c0,-1060.95 295.24,-1846.66 886.52,-2354.73 591.28,-505.67 1506.61,-760.91 2748.39,-760.91l2390.74 0 0.8 -0.8z"/>
</symbol>
 <g id="Capa_x0020_1">
  <metadata id="CorelCorpID_0Corel-Layer"/>
  <rect class="fil1" width="13546.66" height="13546.66"/>
  <g id="_1471747099392">
   <path class="fil2 str0" d="M4621.24 9918.27c798.26,-150.21 1033.73,1123.6 213.17,1268.55 -816.62,144.96 -1120.31,-1098.67 -213.17,-1268.55zm4129.69 -1.97c362.07,-62.97 658.55,230.23 707.74,520.15 63.63,377.81 -198.74,690.68 -493.91,748.4 -833.02,163.33 -1108.5,-1111.78 -213.83,-1268.55zm-2063.53 1.97c361.41,-68.87 663.14,219.74 714.29,515.56 64.94,381.09 -206.6,698.55 -501.77,752.99 -818.59,150.86 -1105.89,-1098.67 -212.52,-1268.55zm2008.44 -2037.96c791.7,-190.22 1107.85,1048.16 289.91,1253.47 -825.8,206.62 -1117.03,-1055.38 -289.91,-1253.47zm-2062.88 1.97c807.44,-189.56 1111.13,1064.56 288.61,1253.47 -861.89,198.09 -1050.79,-1075.05 -288.61,-1253.47zm-2066.16 -0.65c863.19,-195.47 1042.26,1091.45 289.26,1254.78 -366.66,80.01 -710.36,-163.33 -775.3,-477.51 -79.37,-386.35 174.48,-706.44 486.04,-777.27zm-7.87 -2004.5c352.23,-106.92 690.68,141.68 771.36,430.94 106.91,384.37 -152.83,728.73 -436.19,803.51 -796.94,211.86 -1223.95,-966.17 -335.17,-1234.45zm2066.81 0c354.2,-110.19 683.47,125.94 764.8,435.53 98.4,374.53 -148.23,719.55 -431.59,798.26 -779.89,217.11 -1222.64,-958.96 -333.21,-1233.79zm2062.22 -3.28c378.47,-108.23 681.51,159.39 757.6,444.06 101,377.81 -134.47,705.77 -423.73,789.73 -805.47,234.17 -1206.9,-984.54 -333.87,-1233.79zm-4384.84 -3383.25c242.69,-72.15 3093.33,-13.12 3599.7,-13.12 1801.16,0 1565.03,-189.56 1567.66,1139.99 0.66,279.42 51.16,600.83 -201.37,680.85 -234.16,74.77 -3128.75,20.34 -3623.97,20.34 -1822.16,0 -1578.81,196.11 -1582.75,-1160.33 -1.3,-303.69 -51.82,-581.15 240.73,-667.73zm-324.03 -1209.53c-623.78,172.51 -946.49,613.29 -947.8,1380.06l0.66 6963.28c0,648.05 -114.79,1594.55 198.08,2109.45 350.26,576.56 931.41,579.83 1765.1,579.83 651.97,0 4266.11,49.86 4597.36,-45.91 600.82,-174.48 924.85,-633.62 924.19,-1380.71l-0.65 -6963.28c0,-617.22 110.19,-1641.12 -196.78,-2110.77 -392.9,-600.82 -884.18,-579.83 -1766.4,-579.83 -669.05,0 -4214.96,-51.17 -4573.76,47.88z"/>
   <path class="fil3" d="M4621.24 9918.27c798.26,-150.21 1033.73,1123.6 213.17,1268.55 -816.62,144.96 -1120.31,-1098.67 -213.17,-1268.55zm4129.69 -1.97c362.07,-62.97 658.55,230.23 707.74,520.15 63.63,377.81 -198.74,690.68 -493.91,748.4 -833.02,163.33 -1108.5,-1111.78 -213.83,-1268.55zm-2063.53 1.97c361.41,-68.87 663.14,219.74 714.29,515.56 64.94,381.09 -206.6,698.55 -501.77,752.99 -818.59,150.86 -1105.89,-1098.67 -212.52,-1268.55zm2008.44 -2037.96c791.7,-190.22 1107.85,1048.16 289.91,1253.47 -825.8,206.62 -1117.03,-1055.38 -289.91,-1253.47zm-2062.88 1.97c807.44,-189.56 1111.13,1064.56 288.61,1253.47 -861.89,198.09 -1050.79,-1075.05 -288.61,-1253.47zm-2066.16 -0.65c863.19,-195.47 1042.26,1091.45 289.26,1254.78 -366.66,80.01 -710.36,-163.33 -775.3,-477.51 -79.37,-386.35 174.48,-706.44 486.04,-777.27zm-7.87 -2004.5c352.23,-106.92 690.68,141.68 771.36,430.94 106.91,384.37 -152.83,728.73 -436.19,803.51 -796.94,211.86 -1223.95,-966.17 -335.17,-1234.45zm2066.81 0c354.2,-110.19 683.47,125.94 764.8,435.53 98.4,374.53 -148.23,719.55 -431.59,798.26 -779.89,217.11 -1222.64,-958.96 -333.21,-1233.79zm2062.22 -3.28c378.47,-108.23 681.51,159.39 757.6,444.06 101,377.81 -134.47,705.77 -423.73,789.73 -805.47,234.17 -1206.9,-984.54 -333.87,-1233.79zm-4384.84 -3383.25c242.69,-72.15 3093.33,-13.12 3599.7,-13.12 1801.16,0 1565.03,-189.56 1567.66,1139.99 0.66,279.42 51.16,600.83 -201.37,680.85 -234.16,74.77 -3128.75,20.34 -3623.97,20.34 -1822.16,0 -1578.81,196.11 -1582.75,-1160.33 -1.3,-303.69 -51.82,-581.15 240.73,-667.73zm-324.03 -1209.53c-623.78,172.51 -946.49,613.29 -947.8,1380.06l0.66 6963.28c0,648.05 -114.79,1594.55 198.08,2109.45 350.26,576.56 931.41,579.83 1765.1,579.83 651.97,0 4266.11,49.86 4597.36,-45.91 600.82,-174.48 924.85,-633.62 924.19,-1380.71l-0.65 -6963.28c0,-617.22 110.19,-1641.12 -196.78,-2110.77 -392.9,-600.82 -884.18,-579.83 -1766.4,-579.83 -669.05,0 -4214.96,-51.17 -4573.76,47.88z"/>
  </g>
 </g>
</svg>
