<!DOCTYPE svg PUBLIC "-//W3C//DTD SVG 1.1//EN" "http://www.w3.org/Graphics/SVG/1.1/DTD/svg11.dtd">
<svg xmlns="http://www.w3.org/2000/svg" viewBox="0 0 720 890">
<path fill="#ed9a4f" stroke="#ed9a4f" d="M0 445.001v445.002l360.25-.252 360.25-.251.251-444.75L721.002 0H0v445.001m.496.499c0 244.75.114 344.726.254 222.168.14-122.557.14-322.807 0-445C.61 100.476.496 200.75.496 445.5M375 208.916c-.825.474-5.527 1.391-10.448 2.037-4.922.646-9.398 1.452-9.947 1.791-.549.339-5.072.519-10.052.399-10.41-.252-12.538.582-20.252 7.932-7.613 7.255-11.997 9.629-19.174 10.383-4.899.514-7.847 1.565-12.753 4.545-5.099 3.098-7.75 4.011-13.202 4.549-6.706.66-6.865.744-9.383 4.912-1.827 3.024-3.421 4.412-5.561 4.84-3.082.617-5.735 5.212-4.646 8.048.791 2.062-4.431 6.515-9.861 8.409-4.303 1.502-5.238 2.33-6.852 6.072-2.271 5.264-2.266 5.05-.119 5.013 7.724-.134 25.27 1.694 27.611 2.876 1.839.928 8.451 1.756 18.5 2.316 16.285.908 23.039 1.834 36.896 5.061 5.214 1.214 9.714 1.689 12.211 1.29 5.296-.847 8.418.23 5.532 1.908-1.38.802-10.213 1.169-28.5 1.183-14.575.011-27.046.374-27.712.806-2.312 1.498-10.036.952-15.511-1.096-5.912-2.213-8.888-2.129-17.53.492-4.072 1.236-6.992 1.416-13 .803-17.467-1.781-24.771.496-28.795 8.976-.801 1.686-2.456 3.51-3.679 4.053-2.076.921-2.7 1.848-5.744 8.547-.841 1.849-2.465 2.907-5.847 3.81-5.121 1.366-13.7 6.43-14.521 8.571-.285.741 1.025 3.743 2.911 6.669 3.954 6.138 3.933 6.022 1.849 10.415-1.442 3.039-8.23 7.474-11.439 7.474-.571 0-3.67 1.328-6.885 2.951-8.6 4.341-8.971 6.374-3.025 16.549 6.741 11.536 5.957 17.94-3.128 25.547-4.147 3.472-4.848 4.618-5.435 8.889-.395 2.873-1.469 5.623-2.592 6.639-2.406 2.178-2.421 3.659-.059 5.796 2.646 2.395 3.706 14.119 1.57 17.378-2.085 3.184-1.237 5.134 4.024 9.251 4.854 3.799 5.428 6.22 3.679 15.5-.977 5.18.258 7.877 4.273 9.329 5.31 1.92 5.851 1.51 3.468-2.631-2.98-5.177-2.063-8.307 3.372-11.507 2.341-1.378 7.268-4.762 10.949-7.521 3.681-2.759 7.715-5.163 8.965-5.343 1.256-.181 3.315-1.893 4.6-3.827 1.28-1.925 4.042-5.3 6.138-7.5 3.127-3.282 3.935-4.987 4.501-9.5.864-6.888 4.05-18.496 6.756-24.613 2.674-6.045 2.305-16.848-.649-19.008-2.936-2.147-5.737-1.654-10.5 1.849-3.788 2.786-5.356 3.275-11.447 3.57l-7.057.341 3.089-1.957c1.699-1.076 4.286-3.999 5.749-6.495 3.293-5.62 11.763-10.369 15.749-8.83 9.613 3.709 13.512 20.111 8.847 37.215-3.3 12.099-3.274 20.314.066 20.767 1.375.187 5.553 1.672 9.284 3.301 10.11 4.414 15.769 4.82 20.193 1.446 4.17-3.181 4.468-4.586.973-4.586-10.051 0-14.264-12.514-6.89-20.47 2.264-2.443 3.012-2.671 6.866-2.093 3.978.596 4.535.398 6.949-2.471 1.444-1.716 2.625-3.561 2.625-4.102 0-.54.429-.717.953-.393.523.323 1.63-.663 2.459-2.191.83-1.529 1.526-2.314 1.548-1.744.022.573 2.384 1.05 5.29 1.068 5.89.036 11.215 2.69 13.138 6.548.898 1.8 2.387 2.532 6.476 3.183l5.31.845-.282 5.66c-.155 3.113.064 6.683.487 7.932 2.063 6.09-3.751 12.204-10.349 10.884-7.158-1.432-12.373 8.05-9.126 16.591 1.356 3.567 1.661 7.23.619 7.429-2.18.415-2.611 4.73-.727 7.278 2.617 3.54 11.515 10.161 12.19 9.069.575-.931 5.457-3.023 7.053-3.023 1.624 0 4.092 6.005 3.412 8.3-1.054 3.559-5.604 9.705-8.38 11.317l-2.571 1.494 3.5-.615c10.863-1.908 13.808-2.219 16.738-1.769 3.028.464 3.359.214 5.125-3.865 1.039-2.399 3.451-5.957 5.361-7.906 1.909-1.949 3.736-4.199 4.06-5 .467-1.158 1.004-.981 2.624.87 1.12 1.28 2.54 2.015 3.155 1.635.685-.423-.407-1.716-2.81-3.326-4.74-3.178-8.684-7.657-13.675-15.529-4.709-7.426-13.473-16.768-14.955-15.94-.618.345-.552.013.146-.738 2.192-2.359 8.9 2.463 19.202 13.804 15.479 17.039 22.149 17.736 25.314 2.645 1.289-6.145.566-7.333-4.478-7.362-3.383-.019-5.989 3.413-5.145 6.776.676 2.692-.84 4.169-4.305 4.194-3.554.025-3.76-2.973-.441-6.403 1.641-1.695 3.686-4.769 4.547-6.832.959-2.301 2.237-3.75 3.307-3.75 1.863 0 4.23-5.867 4.23-10.484 0-1.384.45-2.516 1-2.516s1-.698 1-1.551 1.561-2.203 3.468-3c4.142-1.731 4.532-1.764 4.532-.39 0 .582-.52.738-1.155.346-.667-.413-.884-.278-.515.32 1.078 1.744 4.531 2.147 5.756.672 1.432-1.727 2.603-1.766 4.336-.147 1.555 1.452.664 4.554-2.442 8.503-2.347 2.984-2.582 7.503-.48 9.247.825.685 1.5 1.815 1.5 2.512 0 3.086 3.402 5.518 6.5 4.646 2.658-.749 2.971-1.233 2.748-4.251-.211-2.847.191-3.612 2.449-4.657 4.145-1.918 5.05-1.545 5.494 2.263.506 4.335.364 4.548-5.208 7.782-2.484 1.442-5.596 3.627-6.915 4.857l-2.399 2.235-1.477-2.225c-1.426-2.147-1.515-2.158-2.584-.323-7.185 12.326-7.348 13.336-2.931 18.225 2.951 3.267 3.466 4.47 2.971 6.944-.655 3.276.846 4.16 1.826 1.074 1.042-3.282 4.582-7.082 6.599-7.082 2.658 0 2.42.964-1.184 4.81-1.706 1.82-2.928 3.484-2.715 3.697.788.788 6.961 1.52 6.497.771-.265-.428 3.638-.517 8.674-.198 5.035.319 13.88.484 19.655.366s15.933.189 22.573.682c10.659.792 13.003.663 20-1.1 4.36-1.099 9.554-2.004 11.543-2.013 7.408-.031 34.75-5.828 42.384-8.985 1.1-.455 3.575-1.242 5.5-1.749l3.5-.923-6.062-3.098c-12.555-6.418-18.205-4.72-25.424 7.641-.497.85-2.727 1.472-5.666 1.58-2.667.099-6.566.751-8.665 1.449-5.531 1.839-5.531.811-.004-4.984 4.795-5.026 5.004-5.128 8.551-4.148 3.685 1.017 4.77.741 4.77-1.215 0-.676-2.727-1.092-7.25-1.108-3.988-.013-9.05-.363-11.25-.776-2.2-.413-5.727-1.029-7.837-1.369l-3.836-.617 3.086 6.115c4.768 9.445 4.491 10.172-3.866 10.172-3.824 0-8.101.523-9.504 1.162-3.819 1.741-4.271.213-.97-3.276 3.524-3.725 6.342-4.956 8.616-3.765 5.797 3.035-1.247-7.14-7.706-11.132-2.704-1.67-3.483-2.812-3.483-5.102 0-4.032-2.469-4.745-5.81-1.676-4.266 3.918-10.003 6.983-11.927 6.372-.972-.308-3.179-2.905-4.905-5.771l-3.137-5.21-5.654 5.699c-5.659 5.705-10.351 7.476-12.138 4.584-.419-.678-2.411-.922-5.075-.621-5.51.621-6.334-.631-2.826-4.294 3.559-3.715 11.163-5.56 13.647-3.311 1.81 1.638 5.912-2.826 9.452-10.285 2.657-5.599 5.991-8.03 8.233-6.001 1.821 1.649 1.885 1.499 2.02-4.738.136-6.268 2.05-13.641 4.219-16.255.59-.711.776-1.773.413-2.361-.363-.588-.272-.945.203-.794 1.32.42 9.285-6.724 9.285-8.328 0-.776 1.179-6.582 2.62-12.904 4.304-18.878 3.266-32.843-2.678-36.024-3.681-1.97-11.368 3.384-13.085 9.112-.634 2.12-1.537 3.617-2.005 3.327-.469-.289-.852.427-.852 1.592 0 3.851-1.909 1.022-3.907-5.79-2.465-8.402-1.899-11.249 3.14-15.802 2.748-2.482 3.34-3.407 1.886-2.946-2.433.773-2.929-.937-.537-1.855 2.454-.942 9-.717 11.967.412 2.069.786 2.571.729 2.202-.25-2.169-5.772-1.22-8.383 1.321-3.634.916 1.711 1.321 1.86 2.039.75.559-.864.686.457.339 3.508-.504 4.413-.185 5.491 3.246 11l3.804 6.107v19.282c0 16.058.251 19.438 1.5 20.216 2.589 1.612 14.749.539 17.003-1.501 2.628-2.378 2.53-3.44-.253-2.758l-2.25.551 2.093-1.895c2.378-2.153 5.253-7.036 3.507-5.957-1.46.903-1.389.344.394-3.074 2.136-4.096 1.917-4.924-1.899-7.176-3.244-1.913-9.423-10.693-8.31-11.806.29-.29 2.257-.047 4.371.54 7.739 2.148 16.344.906 16.344-2.359 0-1.541 5.004-3.563 8.816-3.563 3.387 0 2.477-.694-3.819-2.911-7.207-2.538-3.349-3.915 4.543-1.621 5.939 1.727 9.954.426 7.196-2.332-.848-.848-.718-1.136.513-1.136 1.771 0 6.751 5.865 6.751 7.95 0 .694 1.363-.198 3.029-1.981 3.722-3.984 4.793-3.367 2.029 1.168-3.239 5.313-2.807 7.972.917 5.646 1.628-1.016 2.441-.852 4.946 1 3.882 2.871 7.495 2.796 16.903-.35 9.691-3.242 9.748-3.306 7.815-8.979-.881-2.587-1.344-5.122-1.028-5.633.637-1.031 5.426 1.716 6.689 3.836 1.111 1.867 3.089 1.676 5.045-.486 1.819-2.01 2.146-5.847.692-8.145-1.26-1.993.799-3.184 3.245-1.875 2.183 1.168 1.971 1.317 4.117-2.901 4.781-9.403 15.416 4.583 14.222 18.705-.969 11.464-3.657 16.069-10.719 18.365-4.606 1.497-5.89 2.432-7.246 5.276-1.976 4.144-.094 5.394 8.159 5.418 11.007.032 11.932 3.587 3.247 12.478-3.213 3.289-6.858 8.882-10.621 16.295-6.124 12.065-12.668 19.445-18.348 20.693-1.902.417-4.377 2.586-7.412 6.495-2.506 3.227-6.61 7.071-9.119 8.542-2.509 1.47-4.562 2.988-4.562 3.373 0 .633 7.878 6.889 10.63 8.442.622.351 3.997-.311 7.5-1.471 5.98-1.979 8.023-2.085 33.37-1.735l27 .374-.067-7.316c-.073-7.988-2.27-11.238-8.579-12.689-1.456-.334-3.438-1.483-4.405-2.552-.968-1.069-2.477-1.95-3.354-1.958-.877-.009-2.223-.413-2.99-.899-1.679-1.063 8.235-3.345 14.178-3.263 3.191.044 3.659-.188 2.702-1.341-.636-.767-.891-1.826-.565-2.353.326-.527.028-1.146-.661-1.376-.776-.259-.389-.88 1.014-1.632 1.248-.667 2.802-.883 3.455-.48 1.851 1.144 5.679 1.319 6.315.289.316-.511-.336-.93-1.45-.93-1.114 0-3.638-.769-5.609-1.709-2.745-1.309-4-1.45-5.357-.602-1.428.891-2.02.712-3.041-.923-1.52-2.434 1.089-5.753 4.741-6.028 1.195-.09 2.173-.672 2.173-1.293 0-1.338 4.955-2.9 14.25-4.493 6.615-1.134 8.946-3.172 5.25-4.59-2.865-1.1-1.678-5.125 2.5-8.482 5.603-4.503 5.258-6.413-2.375-13.156-7.289-6.44-8.015-8.412-6.408-17.409 1.469-8.225-.519-13.633-7.398-20.125-2.732-2.58-5.668-6.4-6.522-8.49-1.111-2.717-3.299-4.98-7.676-7.938-7.224-4.884-8.248-6.052-9.64-10.998-1.33-4.73-4.057-7.593-10.981-11.527-7.635-4.338-9.385-6.673-9.385-12.528v-4.819l-7.162-3.445c-4.906-2.36-8.585-3.445-11.676-3.445-2.481 0-8.618-1.353-13.636-3.007-7.374-2.43-9.85-2.844-12.906-2.157-2.618.588-5.004.422-7.758-.54-3.038-1.061-7.164-1.236-17.477-.742-12.872.618-19-.128-19-2.31 0-1.862 7.263-3.371 18.424-3.826 6.559-.267 13.759-.91 16-1.428 2.242-.517 6.551-.955 9.576-.971 6.177-.034 13.313-1.704 12.55-2.938-.276-.446-3.142-1.331-6.37-1.966-7.578-1.491-9.623-3.74-11.694-12.864-2.002-8.82-3.634-10.251-11.684-10.251-3.99 0-6.757-.612-9.028-1.996-2.073-1.264-5.108-2.014-8.274-2.044-6.702-.064-12.371-2.221-15.142-5.762-1.971-2.518-3.181-3.006-8.911-3.593-3.647-.374-7.717-1.391-9.045-2.261-1.438-.942-4.332-1.534-7.158-1.463-34.708.87-36.244.768-36.244-2.393 0-2.557 4.385-4.417 12.033-5.106 13.971-1.257 13.957-2.712-.033-3.453-6.875-.365-13.175-.936-14-1.269-.825-.333-2.175-.218-3 .256m213 212.025c0 2.329 1.271 3.276 3.333 2.485 1.331-.511 1.315-.814-.132-2.504-2.097-2.45-3.201-2.443-3.201.019m5.62 4.865c-.347.561-2.541 1.335-4.875 1.72-7.121 1.173-7.826 2.259-1.973 3.037 2.9.385 5.514 1.091 5.809 1.569.296.477 1.41.868 2.478.868 1.068 0 1.941.45 1.941 1s-.844 1-1.876 1c-2.962 0-12.44 4.594-14.445 7.002-1.686 2.025-1.723 2.791-.5 10.342l1.321 8.156 4 .112c2.2.061 6.15 1.1 8.777 2.308 4.554 2.095 8.723 2.101 8.723.013 0-.513.727-.933 1.616-.933 1.392 0 1.529-.938.981-6.75-.349-3.712-.9-11.045-1.224-16.294-.573-9.287-.669-9.589-3.57-11.254-1.639-.941-3.441-1.426-4.003-1.078-.563.348-1.367.077-1.787-.603-.492-.795-.987-.872-1.393-.215m13.404 8.137c-1.225 2.956-.619 10.571.915 11.52.421.26 1.673-2.637 2.782-6.439 1.719-5.894 1.803-6.993.566-7.467-2.473-.949-3.005-.651-4.263 2.386m-37.024 3.3c0 .172.9 1.083 2 2.025s2 1.283 2 .757c0-.525-.9-1.436-2-2.025s-2-.93-2-.757m44.317 4.081c-2.336 2.97-4.317 10.52-4.317 16.452v3.679l2.461-2.478c1.832-1.844 2.745-4.326 3.575-9.716 1.502-9.758 1.116-11.541-1.719-7.937m-423.444 22.93-5.628 6.223 6.128 1.325c20.356 4.401 21.76 4.348 19.651-.744-.995-2.402-.856-3.466.9-6.909 2.836-5.56 2.66-6.502-.874-4.675-3.769 1.949-9.443 1.962-11.05.026-2.011-2.423-3.193-1.807-9.127 4.754m35.481 1.265c-.886 2.31.38 4.481 2.615 4.481 3.154 0 6.318 3.722 5.599 6.587-.91 3.624 2.917 3.178 6.2-.723 1.451-1.725 4.235-3.84 6.185-4.701l3.547-1.565-7-.699c-3.85-.385-9.155-1.636-11.789-2.78-4.086-1.776-4.872-1.864-5.357-.6m94.201 10.373c-1.385 2.732-2.976 5.25-3.536 5.596-2.608 1.612-.12 2 11.231 1.75 12.105-.267 23.75-1.845 23.75-3.22 0-4.658-12.321-5.475-18.776-1.245-3.197 2.094-6.817.357-7.707-3.697-1.045-4.756-2.238-4.559-4.962.816m-61.552 1.749-3.361 3.438 10.174-.289c5.596-.16 10.177-.389 10.179-.511.006-.269-9.883-4.82-12.062-5.551-.945-.316-2.904.841-4.93 2.913" fill-rule="evenodd"/>
<path fill="#bb8661" stroke="#bb8661" d="M0 445.001v445.002l360.25-.252 360.25-.251.251-444.75L721.002 0H0v445.001m.496.499c0 244.75.114 344.726.254 222.168.14-122.557.14-322.807 0-445C.61 100.476.496 200.75.496 445.5M344 174.615c-2.475.673-6.3 1.271-8.5 1.329-2.2.058-6.025.588-8.5 1.178-2.475.59-9.9 1.154-16.5 1.252-13.598.204-13.122.025-21.667 8.14-12.423 11.798-13.827 12.636-22.658 13.526-8.123.819-13.072 2.734-20.675 7.998-3.12 2.16-5.643 2.919-11.469 3.448-8.578.779-10.625 1.621-11.578 4.763-.965 3.18-4.47 6.751-6.627 6.751-3.058 0-5.826 3.638-5.826 7.655 0 4.968-5.474 10.188-13.253 12.638-5.309 1.671-5.766 2.063-6.775 5.812-.596 2.211-1.304 4.597-1.575 5.303-.543 1.416 25.176 4.353 28.144 3.215.863-.331 4.23.518 7.484 1.887 5.235 2.204 7.348 2.49 18.386 2.49 15.971 0 16.619 1.165 3.317 5.967-1.903.687-2.954 1.913-3.354 3.914-.881 4.402-8.79 5.222-15.793 1.637-6.215-3.181-10.669-3.192-23.03-.056-9.473 2.403-9.887 2.424-17.303.891-8.693-1.798-16.401-1.455-20.748.925-1.65.903-4.278 2.168-5.841 2.812-1.891.778-3.47 2.635-4.72 5.553-1.113 2.597-2.826 4.744-4.2 5.266-2.929 1.114-4.154 2.603-7.528 9.151-2.531 4.912-3.099 5.379-8.555 7.022-3.214.968-8.277 3.375-11.25 5.349-6.553 4.351-6.824 6.222-1.906 13.14 7.32 10.295 3.618 15.987-14.223 21.865-13.569 4.472-16.604 11.069-9.813 21.33l2.754 4.162 8.77-.098c9.129-.102 11.246.396 10.454 2.46-.338.88.734 1.132 3.794.892 2.345-.183 5.614.227 7.264.913 1.65.685 5.109 1.13 7.687.988 6.333-.348 9.31.613 7.743 2.501-.951 1.146-.768 1.416.961 1.416 1.175 0 2.918.427 3.873.949.955.522 3.863 1.223 6.463 1.558 2.599.334 4.989 1.033 5.31 1.553 1.011 1.636-4.792 3.093-9.658 2.423-2.783-.382-4.916-.233-5.289.372-.92 1.488-11.949 6.609-20.84 9.675-4.262 1.47-7.752 2.965-7.754 3.321-.003.357-2.039 2.892-4.525 5.635-5.75 6.341-7.222 11.255-5.067 16.913 2.015 5.292 3.236 12.016 4.105 22.601.953 11.598 2.291 14.449 8.09 17.235 3.314 1.593 4.834 1.911 5.121 1.071.225-.656.983-.973 1.684-.704.702.269 1.853-.206 2.558-1.056.706-.851 1.903-1.546 2.66-1.546 1.748 0 1.948-10.53.221-11.597-1.724-1.065-7.876-.621-9.446.683-1.727 1.433-4.397.477-4.397-1.574 0-1.161.691-1.409 2.75-.988 2.742.56 2.741.558-.25-.83-1.65-.765-3.562-1.186-4.25-.936-.687.251-1.25-.267-1.25-1.151s.62-1.607 1.378-1.607c.757 0 1.93-.666 2.605-1.48.675-.813 3.43-1.771 6.122-2.128 3.74-.496 4.895-1.061 4.895-2.393 0-1.869 7.776-3.849 8.917-2.27.321.443 2.249.883 4.285.978 3.756.174 8.398 2.026 7.451 2.973-.285.286.801 1.809 2.414 3.386 1.613 1.577 2.933 3.295 2.933 3.819 0 .523.251 1.606.558 2.406.427 1.113-.062 1.335-2.092.947-2.013-.385-2.327-.737-1.308-1.466.938-.672.74-.733-.658-.205-1.1.415-3.846.669-6.103.564-4.156-.194-7.207 1.75-5.947 3.789.343.554-.228 1.858-1.269 2.899-3.751 3.751-3.638 6.963.305 8.611 1.933.807 3.514 1.929 3.514 2.493 0 2.022 5.675 3.79 16 4.985 5.775.668 11.85 1.472 13.499 1.788l3 .572-3.312-3.094c-5.123-4.785-4.366-9.63 2.137-13.674 2.653-1.65 7.777-5.137 11.386-7.75 3.61-2.613 7.327-4.75 8.26-4.75.934 0 3.418-2.498 5.52-5.551 2.103-3.053 4.863-6.368 6.134-7.368 1.528-1.202 2.513-3.301 2.909-6.199 1.426-10.444 4.113-20.363 7.058-26.058 2.167-4.191 2.231-14.921.108-18.161-2.732-4.169-5.2-4.242-11.003-.325-3.981 2.686-6.652 3.664-11.424 4.18l-6.228.673 3.728-3.988c2.05-2.194 5.079-5.561 6.73-7.482 7.124-8.289 15.001-7.218 19.962 2.713 4.459 8.926 4.561 15.617.48 31.359-3.994 15.404-3.752 17.416 2.281 18.935 2.351.591 6.975 2.234 10.275 3.65 8.47 3.634 15.219 3.569 18.813-.183 3.473-3.625 3.42-3.822-1.222-4.564-8.161-1.305-11.682-10.478-6.808-17.733 2.049-3.05 2.863-3.449 7.958-3.898 5.384-.474 5.906-.77 10.138-5.739 2.454-2.881 4.632-4.729 4.839-4.106.279.836.947.827 2.559-.036 3.837-2.053 14.371 2.62 15.758 6.99.602 1.897 2.425 2.61 7.965 3.117 2.992.273 2.999.29 2.697 5.99-.167 3.144.181 6.622.774 7.729 2.714 5.071-2.116 10.222-9.585 10.222-9.046 0-12.272 5.491-9.887 16.827 1.765 8.39 1.823 9.323.53 8.524-1.9-1.175-2.241 4.229-.439 6.979 2.98 4.549 11.494 9.723 13.359 8.119 6.101-5.247 11.672 1.445 7.646 9.184-3.573 6.868-6.675 8.018-15.595 5.782-1.375-.345-.475.326 2 1.491 4.135 1.947 5.149 2.031 12.5 1.043 4.4-.591 17.093-1.332 28.207-1.647 23.564-.666 29.202-1.756 26.792-5.179-2.217-3.149-7.524-3.877-13.263-1.821-9.331 3.343-10.076 3.26-12.01-1.341-2.111-5.022-2.99-4.837-6.369 1.34-2.946 5.389-5.88 7.824-5.822 4.832.049-2.458 1.73-5.179 6.552-10.61l4.088-4.602 1.98 2.652c1.704 2.282 2.071 2.416 2.628.964.461-1.2-.159-2.106-2.143-3.131-3.732-1.931-9.247-8.159-14.555-16.44-2.396-3.739-6.719-9.123-9.607-11.965-5.455-5.371-5.613-6.466-.478-3.326 3.019 1.846 15.607 14.354 19.461 19.337 6.127 7.921 15.063 9.034 18.653 2.321 3.911-7.314 3.862-11.305-.162-13.224-4.497-2.145-9.004 1.215-8.047 6 .754 3.767-3.478 6.08-6.18 3.377-1.602-1.602-1.491-1.894 1.901-5.002 1.982-1.816 4.158-4.981 4.835-7.034 1.157-3.504 1.426-3.693 4.386-3.07 2.464.519 2.899.397 1.988-.557-.888-.93-.838-2.148.212-5.123.757-2.146 1.121-4.569.808-5.385-.313-.815-.071-1.482.538-1.482s1.107-.525 1.107-1.166c0-3.214 3.349-4.629 7.286-3.079 3.406 1.342 3.963 1.33 5.563-.119 1.372-1.241 2.05-1.337 2.965-.422 1.733 1.733 1.478 2.802-1.832 7.686-3.734 5.51-3.725 5.725.512 12.955l3.494 5.961 3.605-1.106c3.371-1.035 3.57-1.321 3.067-4.42-.495-3.047-.251-3.434 3.023-4.802 1.959-.818 3.731-1.488 3.939-1.488.208 0 .378 1.791.378 3.98 0 3.613-.356 4.161-3.866 5.952-2.127 1.085-5.332 3.205-7.123 4.712-3.139 2.641-3.306 2.672-4.634.857-1.657-2.267-2.738-1.215-6.901 6.716-3.142 5.986-3.108 7.514.25 11.019 2.005 2.092 2.872 4.224 3.277 8.055l.551 5.209 2.19-4.146c2.62-4.959 4.865-7.354 6.894-7.354 1.01 0 .338 1.413-2.071 4.353-4.778 5.831-4.815 5.791 5.183 5.501 8.485-.246 25.978-.19 45.039.145 5.109.09 10.634.549 12.277 1.02 1.98.568 4.583.389 7.711-.528 2.598-.762 10.123-2.121 16.723-3.019 16.844-2.294 30.408-5.121 38.401-8.004 3.763-1.358 7.687-2.475 8.72-2.483 5.719-.047 4.679-1.977-2.968-5.51-11.685-5.398-16.916-4.234-22.951 5.108-2.414 3.737-4.543 4.778-9.407 4.599-1.762-.065-4.8.549-6.75 1.364-4.637 1.937-4.478.657.564-4.539 3.707-3.819 4.458-4.177 7.687-3.653 3.369.547 6.204-.556 6.204-2.413 0-.448-3.712-.806-8.25-.795-4.538.011-11.315-.692-15.062-1.563-9.326-2.167-9.165-2.282-5.851 4.167 5.298 10.31 5.329 10.231-4.312 10.763-3.525.195-7.373.871-8.552 1.502-3.621 1.937-3.351.317.584-3.504 3.433-3.334 4.077-3.58 7.766-2.956l4.022.679-3.089-4.2c-1.699-2.311-4.877-5.516-7.062-7.123-2.81-2.066-4.16-3.917-4.611-6.32-.709-3.779-2.828-5.205-4.587-3.086-2.356 2.838-10.969 7.637-13.141 7.32-1.404-.204-3.194-1.969-4.816-4.749-3.525-6.04-4.172-6.017-10.344.355-5.564 5.745-7.91 6.606-11.254 4.133-1.338-.989-3.34-1.259-6.441-.867l-4.5.568 3.351-3.534c3.689-3.891 11.677-6.112 13.188-3.668 1.27 2.054 3.663.311 6.523-4.752 7.111-12.583 9.828-14.905 12.358-10.561.772 1.325 1.027.226 1.05-4.525.051-10.525 5.614-22.711 11.616-25.446 1.641-.748 2.564-2.202 2.971-4.682.325-1.978 1.535-7.422 2.689-12.097 2.961-11.992 3.061-28.121.205-33-2.445-4.177-7.067-5.242-10.004-2.304-.992.992-2.233 1.804-2.757 1.804-1.125 0-4.659 6.299-4.76 8.484-.047 1.018-.341.859-.893-.484-.843-2.049-1.093-1.777-2.303 2.5-.548 1.938-3.739-8.919-3.719-12.654.018-3.372.341-3.867 5.27-8.098 3.439-2.952 3.576-3.249 1.5-3.263-1.842-.013-1.994-.204-.785-.985 2.246-1.452 8.121-1.185 11.382.516l2.883 1.503-.566-3.76-.566-3.759 1.683 2.443c.926 1.343 1.742 3.908 1.813 5.7.071 1.792 1.08 4.743 2.242 6.558 5.588 8.724 5.65 9.054 5.322 28.379-.237 13.981-.011 18.316 1 19.12 1.836 1.46 9.176 2.706 8.383 1.423-.392-.635.626-.802 2.764-.455 3.871.628 7.114-.78 8.723-3.786 1.004-1.875.892-2.003-1.176-1.346-2.208.701-2.192.615.468-2.546 1.532-1.821 2.499-3.929 2.181-4.757-.314-.817-.157-1.992.349-2.61 2.042-2.493 1.657-5.656-.839-6.907-5.055-2.532-11.93-14.067-7.296-12.24 7.587 2.992 15.239 2.382 19.149-1.528 1.544-1.545 4.497-3.119 6.583-3.511 4.208-.789 3.552-1.561-3.482-4.09l-3.5-1.259 3.185-.044c1.752-.024 4.227.34 5.5.81 5.92 2.182 8.1 2.331 7.398.503-.59-1.538-.402-1.514 1.585.199l2.254 1.944-1.791-2.837c-.985-1.56-1.59-3.038-1.344-3.283.779-.78 6.713 6.616 6.713 8.367 0 1.179.904.648 3.042-1.785l3.042-3.462-1.542 3.2c-1.743 3.618-2.049 8.3-.542 8.3.55 0 1-.45 1-1 0-1.722 4.061-1.093 7.151 1.108 2.902 2.066 3.091 2.074 9.622.434 6.43-1.615 16.227-5.357 16.227-6.197 0-.225-.675-2.025-1.5-3.999-2.903-6.947-1.585-8.116 3.81-3.379l3.379 2.967 2.777-2.899c2.526-2.636 2.675-3.191 1.651-6.129-1.364-3.913-.879-4.574 2.293-3.129 2.205 1.005 2.562.801 4.031-2.295 3.088-6.507 6.746-5.017 11.68 4.757 3.09 6.123 3.115 6.292 2.045 13.859C552.381 370.725 548.201 376 539.98 376c-1.089 0-1.98.493-1.98 1.096 0 .602-.914 2.379-2.031 3.948-2.003 2.813-2.005 2.867-.09 3.891 1.739.931 8.794 1.888 14.871 2.017 4.09.087 2.961 5.036-2.313 10.136-2.951 2.853-6.35 7.946-9.619 14.412-7.493 14.825-10.776 18.862-18.379 22.605-3.542 1.743-6.439 3.494-6.439 3.891 0 1.715-8.584 10.262-12.769 12.714l-4.571 2.679 4.92 4.342c6.295 5.555 7.758 5.863 15.903 3.347 7.345-2.269 23.107-2.668 46.517-1.179 6.325.403 11.894.399 12.375-.009.481-.407.875-3.728.875-7.38 0-5.934-.306-6.966-2.875-9.712-2.868-3.066-2.869-3.069-.246-1.4 2.46 1.566 2.671 1.565 3.274-.005.354-.924.408-1.915.121-2.203-.288-.288-.524.032-.524.711 0 .779-1.113.442-3.012-.909-2.618-1.864-3.443-5.009-.903-3.439.521.322.718.957.437 1.411-.281.455.162 1.084.984 1.4.994.381 1.494-.047 1.494-1.279 0-2.005-3.615-3.516-4.6-1.923-.331.536-1.188.75-1.903.475-2.339-.897-2.461.57-.204 2.454 1.214 1.013 1.64 1.857.947 1.876-.693.018-2.03-.867-2.972-1.967-.942-1.1-2.512-2-3.49-2-.978 0-1.778-.45-1.778-1s-1.237-1.039-2.75-1.086l-2.75-.086 2.793-.839c1.536-.461 5.699-1.15 9.25-1.531 3.551-.38 6.457-1.089 6.457-1.574 0-.486-.447-.884-.994-.884-.546 0-.841-1.012-.655-2.25.348-2.31 4.649-3.939 4.649-1.761 0 .621.446.853.992.516.546-.337 1.735-.198 2.642.31 1.894 1.06 5.366.413 5.366-.999 0-.523-1.013-.649-2.25-.28-2.212.659-2.216.644-.25-.888 1.915-1.493 1.85-1.554-1.529-1.45-1.94.06-4.498-.41-5.684-1.044-1.185-.635-3.685-1.154-5.555-1.154-1.869 0-3.703-.304-4.074-.676-1.167-1.167 3.577-5.324 6.075-5.324 1.312 0 2.136-.402 1.833-.894-1.13-1.828 10.02-5.004 18.598-5.298 3.666-.126 6.311-4.083 3.441-5.148-2.138-.793.926-2.659 4.948-3.013 7.776-.683 15.359-5.833 15.724-10.677.12-1.596-1.028-3.226-3.79-5.38-11.541-8.998-13.127-12.559-11.281-25.331 1.511-10.446-.842-16.047-10.355-24.656-3.218-2.912-5.851-6.082-5.851-7.044 0-3.024-3.847-7.321-9.782-10.926-7.485-4.548-9.894-7.234-11.033-12.305-1.361-6.056-4.203-9.437-11.228-13.357-11.006-6.141-13.132-8.604-13.842-16.039l-.615-6.432-8.054-4.004c-6.818-3.389-8.83-3.951-13.103-3.663-3.833.258-7.533-.523-15.371-3.246-5.677-1.973-11.788-3.587-13.58-3.587-3.455 0-3.739-.412-4.933-7.16l-.648-3.661 6.845-.654c12.398-1.185 14.152-3.516 4.131-5.487C485.61 234.036 481 229.989 481 223.059c0-3.803-3.177-12.083-5.012-13.066-1.07-.572-5.307-1.256-9.414-1.52-4.807-.308-8.646-1.161-10.772-2.394-1.928-1.118-6.981-2.355-12.143-2.972-9.59-1.146-14.568-3.417-16.424-7.491-.991-2.174-1.943-2.507-8.922-3.124-5.163-.457-9.611-1.554-13.114-3.234-4.929-2.364-5.842-2.481-13-1.666-10.489 1.195-33.082 1.136-35.54-.092-6.239-3.118.011-7.26 13.077-8.668 5.37-.578 11.114-1.615 12.764-2.304 2.998-1.253 2.997-1.253-2.5-1.855-11.431-1.25-31.497-1.283-36-.058M126 384.559c0 .857.457 1.276 1.016.931.559-.346.758-1.047.441-1.559-.857-1.387-1.457-1.129-1.457.628m-8.655.984c-.326.849-.341 1.794-.035 2.1.876.876 2.69-.609 2.69-2.202 0-1.919-1.908-1.845-2.655.102m-5.748.193c-1.39 1.391-.453 2.39 1.067 1.136 1.504-1.241 1.552-1.162.494.822-.643 1.207-1.616 2.471-2.163 2.809-.547.338-.995 1.509-.995 2.603 0 3.351 4.735-.904 5.186-4.66.349-2.908-1.781-4.517-3.589-2.71m11.418.014c.044 2.14 1.908 3.417 4.11 2.815 2.371-.647 2.371-.646-.125.858-2.412 1.453-2.423 1.507-.321 1.542 1.198.019 2.885-.672 3.75-1.536 1.898-1.899 1.946-2.221.321-2.16-4.101.152-6.791-.394-6.25-1.269.34-.55.141-1-.441-1s-1.052.337-1.044.75m17.014 1.211c-.809.512-1.211 1.191-.893 1.509.319.318 1.148-.108 1.844-.946 1.443-1.738 1.166-1.902-.951-.563M105 389.634c0 3.215 2.749 4.531 3.19 1.527.31-2.113-.019-2.798-1.392-2.901-.996-.075-1.798.537-1.798 1.374m31-.241c0 .216.698.661 1.552.989.89.341 1.291.173.941-.393-.587-.951-2.493-1.406-2.493-.596m-16.077 1.071c-.6.281-.514 3.536.094 3.536.723 0 3.983-2.748 3.983-3.357 0-.167-3.749-.331-4.077-.179m10.912 1.244c-1.466.225-2.924 1.081-3.239 1.902-.363.948-.159 1.238.559.794.623-.385 2.981-1.278 5.239-1.985 3.982-1.246 2.898-1.547-2.559-.711m-26.168 2.959c-1.036 1.036-.714 3.55.876 6.833l1.453 3-.357-3c-.196-1.65-.721-3.861-1.168-4.914-.616-1.455-.493-1.718.514-1.096.881.545 1.085.433.61-.335-.827-1.34-1.026-1.39-1.928-.488m7.464.675c-.612.738-.818 1.638-.456 2 .362.362.169.658-.429.658-1.14 0-2.809 5.77-1.925 6.655.282.281 1.539-1.664 2.794-4.322 1.256-2.658 2.456-5.17 2.667-5.583.664-1.295-1.483-.815-2.651.592M97.5 396c-.34.55-.141 1 .441 1S99 396.55 99 396s-.198-1-.441-1-.719.45-1.059 1m18.273 1.75c-1.489 1.696-3.317 6.25-2.508 6.25.22 0 1.847-1.8 3.615-4 3.175-3.951 2.174-5.986-1.107-2.25m-22.75 2.206c-1.004 1.877-.801 2.52 1.457 4.613 4.787 4.437 5.766 3.061 2.084-2.931-2.311-3.761-2.404-3.805-3.541-1.682m4.615.544c.317.825.753 1.5.969 1.5.216 0 .393-.675.393-1.5s-.436-1.5-.969-1.5c-.532 0-.709.675-.393 1.5m2.905 3.316c.577 5.006 3.269 9.772 4.707 8.334 1.415-1.415.027-6.282-2.756-9.67l-2.449-2.98.498 4.316m-11.955 1.316c-.241.753-.726 3.514-1.077 6.137-.473 3.527-1.274 5.185-3.075 6.365-3.112 2.039-3.066 2.579.574 6.724 1.961 2.234 2.783 4.017 2.36 5.12-.357.93-.05 4.189.683 7.242 1.275 5.316 1.239 5.625-.861 7.325-4.489 3.635-1.355 8.439 6.831 10.473 3.012.748 6.428 1.649 7.589 2.002 2.731.829 3.212-.906 4.033-14.535.497-8.239.279-11.735-1.006-16.154-.901-3.101-1.639-6.561-1.639-7.688 0-3.457-2.143-6.992-4.888-8.062-1.437-.56-4.068-2.21-5.848-3.667-2.402-1.966-3.35-2.296-3.676-1.282m511.641 11.055c.498 1.495 2.771 2.318 2.771 1.003 0-.537-.713-1.249-1.584-1.584-.973-.373-1.431-.15-1.187.581m10.771-.338c0 .399.9.793 2 .876 1.1.083 2-.176 2-.574 0-.399-.9-.793-2-.876-1.1-.083-2 .176-2 .574M604 417c0 .55.477 1 1.059 1s.781-.45.441-1-.816-1-1.059-1-.441.45-.441 1m-16 3.659c0 1.654.282 3.29.627 3.634.923.923 6.376-2.138 6.358-3.569-.01-.793-.344-.705-.948.25-.786 1.243-1.332 1.098-3.484-.925L588 417.651v3.008m16.041 4.749c2.76 3.843 3.078 4.925 2.484 8.446-.763 4.515.339 15.755 1.418 14.471 1.419-1.688 6.025-19.245 5.445-20.756-.355-.925-1.789-1.569-3.495-1.569-1.591 0-2.893-.417-2.893-.927 0-.509-.788-1.132-1.75-1.384-1.617-.422-1.613-.466.059-.573 2.724-.175.953-2.116-1.93-2.116h-2.503l3.165 4.408m-12.041.628c-.825.423-3.266 1.15-5.424 1.617-5.168 1.116-5.557 2.78-.726 3.11 2.115.145 5.602 1.139 7.748 2.21l3.902 1.947-3.5.159c-1.925.087-3.867.095-4.315.018-.448-.077-2.093.769-3.655 1.881-3.013 2.146-4.513 2.612-3.588 1.115.309-.498-.34-.671-1.441-.383-1.1.288-2.001.947-2.001 1.466 0 .518.434.674.964.346.531-.328.342.895-.42 2.718-1.005 2.405-1.135 4.406-.476 7.288.5 2.184 1.159 5.66 1.466 7.722.567 3.821 1.315 4.287 6.198 3.871 1.227-.105 3.349.541 4.714 1.436 1.365.894 5.27 1.879 8.678 2.188l6.195.562-.839-10.904c-.461-5.996-.879-13.868-.93-17.492-.057-4.092-.652-7.366-1.571-8.639-1.588-2.203-8.354-3.581-10.979-2.236m-13.864 9.664c-.969 1.037-.827 1.3.702 1.3 1.054 0 2.456-.65 3.115-1.444 1.587-1.912-2.023-1.777-3.817.144m6.677-.017c.721.289 1.584.253 1.916-.079.332-.332-.258-.568-1.312-.525-1.165.048-1.402.285-.604.604M616 436.5c0 .825.177 1.5.393 1.5.216 0 .652-.675.969-1.5.316-.825.139-1.5-.393-1.5-.533 0-.969.675-.969 1.5m-273.5.5c-.351.567.49 1 1.941 1 1.407 0 2.559-.45 2.559-1s-.873-1-1.941-1-2.219.45-2.559 1m273.359 2.462c-3.781 3.591-5.597 8.779-5.962 17.038-.352 7.962-.155 8.5 3.114 8.5 1.655 0 7.116.915 12.134 2.032 10.596 2.361 9.597 2.74 10.857-4.119 3.191-17.371 1.69-21.5-8.934-24.574-3.062-.886-6.018-1.773-6.568-1.972-.55-.199-2.638 1.194-4.641 3.095M127 445c0 .55.477 1 1.059 1s.781-.45.441-1-.816-1-1.059-1-.441.45-.441 1m8.338 2.073c.949 1.355 1.27 3.432.925 6-.847 6.317.773 4.875 3.171-2.823.526-1.687.301-2.25-.898-2.25-.879 0-1.858-.675-2.174-1.5-.317-.825-1.003-1.5-1.526-1.5-.522 0-.296.933.502 2.073m54.41 17.677-6.698 6.75 3.725.107c2.049.058 8.571 1.137 14.495 2.396 11.431 2.432 12.522 2.346 10.811-.852-1.505-2.812-1.295-7.284.451-9.592 2.127-2.812 1.951-5.97-.282-5.058-5.701 2.331-8.384 2.579-11.437 1.055-4.193-2.091-3.525-2.404-11.065 5.194m36.436 2c.242 2.107 1.059 2.969 3.49 3.685 3.632 1.071 5.602 4.32 4.17 6.879-1.996 3.567 4.397 2.01 7.449-1.814 1.536-1.925 3.618-3.5 4.627-3.5s2.342-.611 2.961-1.357c.92-1.108.038-1.471-4.807-1.977-3.263-.342-8.327-1.531-11.254-2.643-6.8-2.584-7.015-2.561-6.636.727m32.654 10.482-3.663 3.92 8.663-.263c4.764-.145 10.237.067 12.162.47 3.066.644-7.563-5.922-12.377-7.644-.618-.221-2.771 1.362-4.785 3.517M509.5 499.649c-3.3.727-8.453 1.897-11.452 2.599l-5.452 1.278.437 9.987c.692 15.846.416 24.837-.777 25.235-1.344.448-23.243-23.47-27.573-30.116l-3.172-4.867-8.324.675c-10.894.884-11.342 1.089-10.753 4.926.264 1.724.727 12.359 1.028 23.634 1.501 56.217 1.724 60.071 3.434 59.602.882-.243 4.754-.721 8.604-1.064 3.85-.342 8.269-.871 9.82-1.175l2.819-.553-.295-18.655c-.187-11.805.062-18.547.68-18.36 2.317.699 11.203 10.327 20.235 21.923l9.741 12.507 8.319-.67c12.332-.994 11.581-.119 10.692-12.465-.419-5.824-.868-25.115-.997-42.867s-.41-32.416-.624-32.587c-.215-.17-3.09.286-6.39 1.013m41.459.957c-2.688 7.067-21.118 62.762-23.414 70.756-3.918 13.641-4.575 12.75 9.171 12.42l11.716-.282 1.656-5.5c1.556-5.165 1.847-5.497 4.784-5.444 1.721.03 7.592.143 13.049.25l9.92.194.613 2.79c1.303 5.934 4.124 9.033 8.739 9.599 2.369.29 7.862 1.004 12.207 1.586 4.346.582 8.069.889 8.275.683.508-.508-24.477-72.8-29.173-84.408-1.683-4.161-1.819-4.25-6.46-4.25-2.607 0-8.17-.29-12.361-.644l-7.621-.644-1.101 2.894m-433.2 2.066c-.251.456-.108 6.228.317 12.828s.806 25.094.848 41.098l.076 29.098 10.666.653c5.866.359 10.845.474 11.063.255.219-.218.896-6.181 1.505-13.25 1.345-15.601 1.417-15.72 8.945-14.917 7.621.812 14.759 2.168 15.542 2.951.724.724.422 21.047-.36 24.253-.288 1.177-.042 2.438.546 2.801 1.653 1.022 24.213 3.771 24.945 3.04.356-.356.805-19.224.997-41.929l.35-41.28-7.64-1.137c-4.203-.625-9.634-1.136-12.071-1.136h-4.43l-.279 13.25-.279 13.25-8.5.304c-4.675.168-9.903.046-11.617-.27-3.549-.654-3.902-1.997-5.065-19.32-.344-5.107-.893-9.443-1.221-9.637-1.394-.821-23.924-1.658-24.338-.905M430 507.682c-10.424.77-12.779 2.03-13.421 7.176-.716 5.749-2.299 25.252-3.502 43.142-.499 7.425-1.205 14.253-1.569 15.173-.781 1.971-12.825 4.466-16.775 3.475l-2.508-.63-.64-24.759c-.352-13.617-.903-27.849-1.225-31.625l-.586-6.867-5.644.639c-6.948.786-10.598 1.416-15.13 2.612l-3.5.923v28.78c0 15.828-.225 33.279-.5 38.779l-.5 10 10 2.667c14.419 3.844 17.658 3.707 23.908-1.013 11.37-8.587 13.144-9.058 14.139-3.756.72 3.84-1.006 3.734 16.404 1.012 5.198-.813 9.558-1.586 9.69-1.717.131-.132-.201-6.079-.738-13.216-.536-7.137-.911-25.577-.831-40.977.169-32.714.264-30.547-1.322-30.325-.687.096-3.275.324-5.75.507m124.925 15.568c-6.817 18.355-17.056 49.952-16.399 50.609.834.834 2.039-1.075 3.947-6.255l1.804-4.896 20.575.551c23.123.618 22.798.505 25.295 8.838.643 2.147 1.773 3.903 2.511 3.903 1.9 0 3.161 3.595-16.663-47.5-8.008-20.639-7.312-19.5-11.921-19.5h-3.856l-5.293 14.25m-51.607-11.637c-.34.888-.315 14.05.057 29.25l.675 27.637-7.775-8.056c-4.276-4.431-11.375-12.281-15.775-17.443C468.469 528.885 455.943 516 454.251 516c-1.282 0-1.417 1.586-.914 10.75.325 5.913.901 20.763 1.281 33 .504 16.231 1.015 22.25 1.889 22.25.913 0 1.094-6.955.762-29.25l-.435-29.25 5.285 5.5c19.172 19.953 27.833 29.409 36.864 40.25 3.551 4.263 6.879 7.75 7.396 7.75.579 0 .688-8.938.283-23.25-.362-12.788-.658-27.862-.66-33.5-.002-9.619-1.033-12.938-2.684-8.637m-278.175 7.137c-1.293 3.712-5.426 14.625-9.185 24.25-19.737 50.535-19.193 48.689-14.596 49.516 21.367 3.842 20.87 3.913 22.869-3.266 1.332-4.784 1.534-4.841 11.399-3.24 3.371.547 7.963 1.067 10.203 1.155 5.324.208 5.572.423 7.596 6.573 2.105 6.395 1.609 6.089 11.758 7.27 4.572.532 10.001 1.203 12.063 1.492 3.164.442 3.75.236 3.75-1.316 0-3.983-25.806-83.041-27.95-85.623-.531-.641-2.898-1.271-5.258-1.4-2.361-.129-6.992-.665-10.292-1.19-10.052-1.601-9.736-1.749-12.357 5.779m337.395-5.812c-1.699 2.75-15.538 43.173-15.538 45.387 0 1.2 36.508 3.5 37.638 2.371.158-.159-3.833-11.18-8.869-24.492-9.005-23.803-10.871-27.084-13.231-23.266M130 544.583c0 24.821.268 31.495 1.25 31.169.891-.295 1.394-4.555 1.75-14.833l.5-14.419 9.5.305c5.225.168 15.35.843 22.5 1.5l13 1.195.276 15.25c.229 12.644.528 15.25 1.75 15.25 1.465 0 2.265-19.707 1.807-44.5-.082-4.4-.19-10.138-.241-12.75-.068-3.515-.482-4.75-1.592-4.75-1.263 0-1.5 2.239-1.5 14.148v14.147l-8.25-.639c-28.773-2.228-35.335-2.877-36.04-3.565-.435-.424-.835-5.693-.891-11.709-.125-13.624-.651-17.382-2.432-17.382-1.153 0-1.387 5.325-1.387 31.583m155.885-26.137c-.631.628.563 83.337 1.213 83.986.329.329 5.616.885 11.75 1.236l11.152.638.118-9.403c.065-5.172.403-10.68.75-12.241l.632-2.838 6 5.156c5.829 5.009 8.941 8.16 16.769 16.979 3.526 3.973 3.913 4.155 6 2.832 1.227-.778 6.169-3.604 10.981-6.281 4.813-2.677 8.75-5.206 8.75-5.62 0-.413-4.613-4.66-10.25-9.438C336.189 571.96 330 566.145 330 564.896c0-.563 3.76-5.382 8.355-10.71 11.722-13.591 20.542-25.293 20.039-26.588-.235-.604-5.241-2.898-11.125-5.098-5.884-2.2-10.985-4.128-11.335-4.284-.351-.156-3.043 3.381-5.984 7.861-2.941 4.479-8.253 11.132-11.804 14.783l-6.456 6.64-.905-3c-.498-1.65-.645-7.848-.326-13.774.443-8.24.281-10.866-.69-11.166-1.826-.564-23.424-1.572-23.884-1.114m138.762 8.205c-.356 4.208-.647 17.213-.647 28.9v21.25l-5.25 1.254c-2.887.691-9.726 2.76-15.196 4.6-11.068 3.722-13.16 3.954-17.876 1.984-6.295-2.63-6.257-2.48-5.41-21.71 1.097-24.89.65-38.429-1.268-38.429-1.292 0-1.535 3.889-1.751 28-.284 31.579-.246 31.945 3.515 33.848 6.356 3.217 9.502 2.975 25.376-1.957 12.266-3.811 15.484-4.483 16.983-3.546 3.782 2.362 3.867 1.759 3.689-26.095-.095-14.987.172-29.163.595-31.5.613-3.39.477-4.25-.672-4.25-1.073 0-1.607 1.955-2.088 7.651m-188.338-2.487c-1.515 1.877-22.142 53.749-22.92 57.639-.938 4.692.139 3.909 2.891-2.104l2.428-5.302 13.441 1.665c7.393.916 16.905 1.989 21.137 2.386l7.695.721 2.01 4.543c1.105 2.498 2.009 5.16 2.009 5.915 0 .755.675 1.373 1.5 1.373s1.5-.151 1.5-.335c0-1.879-22.654-64.719-23.713-65.778-1.638-1.638-6.858-2.111-7.978-.723m2.321 2.625c-.756 1.224-16.233 40.141-17.085 42.961-.531 1.756-.281 2.251 1.138 2.256.999.003 8.567.9 16.817 1.994 17.629 2.337 19.506 2.41 19.481.75-.01-.687-3.769-11.825-8.353-24.75-7.876-22.206-10.036-26.385-11.998-23.211M297 561c0 28.667.197 33 1.5 33 1.221 0 1.5-1.653 1.5-8.875 0-13.207.412-14.441 5.679-17l4.49-2.181 6.666 5.954c3.666 3.275 10.254 9.587 14.642 14.028 7.6 7.693 10.52 9.586 10.526 6.824.001-.687-6.542-7.572-14.542-15.299l-14.545-14.049 4.292-3.44c13.039-10.45 27.388-26.752 25.308-28.75-.408-.392-2.588 1.538-4.845 4.288-8.748 10.659-24.33 24.99-30.799 28.328l-6.372 3.287-.271-19.558c-.228-16.471-.505-19.557-1.75-19.557-1.275 0-1.479 4.543-1.479 33m264.999-20.265c-2.384 5.39-4.03 11.9-3.215 12.716.302.302 3.449.549 6.994.549h6.445l-.678-3.614c-.766-4.082-5.569-14.386-6.707-14.386-.409 0-1.687 2.131-2.839 4.735m-325.278 14.982c-4.656 10.429-4.623 10.731 1.294 12.097 10.248 2.366 10.784 1.48 6.195-10.232-3.43-8.756-4.314-8.977-7.489-1.865M553.082 611.5c-1.053 3.3-7.352 22.499-13.998 42.664C532.438 674.329 527 692.056 527 693.557v2.729l9.75-.632c5.362-.347 10.916-.637 12.342-.643 2.296-.01 2.798-.695 4.408-6.011l1.817-6h27.268l1.148 4.25c2.042 7.557 2.442 7.778 16.801 9.273 7.112.74 13.057 1.219 13.211 1.066 1.559-1.56-28.068-84.746-31.985-89.808-1.021-1.319-3.68-1.69-14.012-1.954l-12.752-.327-1.914 6m-421.14-1.848c-.518 1.363-.946 3.236-.95 4.163-.004.927-3.159 14.462-7.01 30.079-8.036 32.585-11.34 48.081-10.443 48.979.344.345 6.108.783 12.808.973l12.181.347 1.313-8.342c1.315-8.362 3.742-18.768 4.57-19.595.825-.825 3.292 5.216 6.02 14.744 4.4 15.367 4.717 15.698 15.242 15.9l5.174.1 5.729-14.651c6.499-16.62 7.346-16.98 9.419-4.01 2.548 15.944 3.195 19.35 3.885 20.467.735 1.189 25.838 5.81 26.728 4.92.641-.642-3.555-17.092-8.491-33.292-2.167-7.114-5.516-18.109-7.441-24.434-1.925-6.325-4.496-15.775-5.714-21-2.803-12.026-3.807-13.113-12.709-13.75l-6.939-.496-5.907 17.82c-3.249 9.801-6.44 17.985-7.092 18.185-1.072.33-7.819-19.061-11.474-32.978-1.184-4.508-1.42-4.74-5.29-5.205-12.907-1.55-12.601-1.574-13.609 1.076m386.558-1.633c-4.4.374-16.397 1.282-26.659 2.016l-18.66 1.335-2.029 7.065c-2.763 9.622-4.585 18.465-3.938 19.112.293.294 4.405-.436 9.135-1.623 4.731-1.186 9.255-1.906 10.055-1.599 1.705.654 2.146 36.249.678 54.675-.46 5.775-.554 10.796-.209 11.158.345.362 7.01-.065 14.812-.949l14.185-1.607-.643-3.051c-.354-1.678-.662-16.101-.685-32.051l-.042-29 7.565.304 7.564.303 2.189-11.803c3.238-17.467 4.771-15.824-13.318-14.285m44.964 11.412c-1.974 4.724-19.721 55.982-21.923 63.319-1.403 4.673 1.238 2.004 3.729-3.769l2.597-6.02 22.305.27 22.304.269 2.512 6.239c2.487 6.176 4.014 7.894 4.01 4.511-.003-2.148-7.494-22.316-16.252-43.75-8.58-20.998-9.821-23.497-11.681-23.514-.861-.007-2.578-.285-3.817-.617-1.883-.504-2.503-.003-3.784 3.062m-147.186-.658-11.222 1.527-1.104 3.6c-.608 1.98-6.899 21.16-13.98 42.622-7.082 21.463-13.18 40.925-13.552 43.25-.794 4.967-1.066 4.905 14.08 3.196 9.882-1.116 10.962-1.821 11.977-7.831.964-5.705 1.282-5.874 14.198-7.554 6.688-.87 12.775-1.819 13.528-2.107.939-.361 1.732.818 2.524 3.749 2.205 8.166 1.972 8.082 16.526 5.964 7.011-1.021 12.954-2.063 13.208-2.316.754-.755-12.278-39.851-17.291-51.873-.573-1.375-2.462-6.325-4.198-11-1.736-4.675-4.507-11.763-6.157-15.75-3.429-8.283-1.691-7.769-18.537-5.477m98.222-1.147c-1.65.18-8.85.842-16 1.473-13.348 1.177-19.5 2.794-19.5 5.125 0 1.072 1.731 1.15 9.022.406 4.962-.506 9.323-.618 9.692-.25.368.369.866 14.834 1.106 32.145l.436 31.475h4.99l-.735-32.338-.735-32.337 8.751-.913c7.405-.772 8.978-1.258 10.234-3.162 1.616-2.452 1.202-2.545-7.261-1.624m51.418 5.055c-1.154 2.999-14.202 41.273-15.364 45.069l-.689 2.25 17.818.082c9.799.045 19.054.286 20.567.534 1.513.249 2.75.321 2.75.16 0-.16-4.392-11.538-9.761-25.284-8.416-21.55-10.069-25.036-11.998-25.311-1.679-.24-2.509.385-3.323 2.5m-426.212 4.569C136.605 638.529 125 682.87 125 683.442c0 2.614 3.136-.265 4.021-3.692.604-2.337 2.41-8.975 4.014-14.75 1.603-5.775 4.068-15.858 5.477-22.406 1.41-6.548 2.843-12.359 3.185-12.912.616-.997 10.629 23.617 17.83 43.828 2.055 5.769 4.084 10.49 4.508 10.49.424 0 4.476-11.278 9.005-25.062 4.53-13.785 8.547-24.697 8.928-24.25.381.446 2.085 5.312 3.785 10.812 1.701 5.5 5.338 17.2 8.082 26 2.744 8.8 5.284 17.013 5.645 18.25.36 1.237 1.299 2.25 2.087 2.25 1.804 0 2.266 2.015-3.903-17.028-2.935-9.06-7.548-23.782-10.25-32.717-2.703-8.936-5.179-16.248-5.502-16.25-.515-.004-6.719 16.921-15.548 42.412l-2.742 7.918-1.678-3.951c-.923-2.173-5.08-12.936-9.238-23.918C144.817 627.63 142.16 621 141.699 621c-.151 0-1.048 2.813-1.993 6.25m114.244-3.578c-3.484 9.299-15.065 39.035-20.185 51.828-5.114 12.778-9.765 26.406-9.765 28.612 0 .581 20.792 4.388 23.964 4.388.907 0 2.1-2.095 3.131-5.5 1.302-4.299 2.074-5.452 3.536-5.279 1.028.122 6.731.921 12.672 1.776 5.942.855 11.196 1.313 11.676 1.016.479-.296 1.583 1.83 2.453 4.724 2.457 8.173 2.641 8.286 15.627 9.597 14.492 1.462 13.941 1.481 13.941-.476 0-3.277-11.459-39.387-22.407-70.608-6.172-17.601-7.136-19.746-8.878-19.758-2.26-.015-19.195-2.004-21.96-2.578-2.334-.485-2.903-.147-3.805 2.258m116.55 2.013c-10.938 1.558-40.408 2.262-44.67 1.066-2.969-.833-3.798.89-7.334 15.249-.881 3.575-1.834 7.289-2.117 8.254-.472 1.603.371 1.732 9.802 1.5l10.319-.254.505 8c.278 4.4.122 17.225-.347 28.5-.469 11.275-.921 22.525-1.005 25l-.153 4.5 11-.288c17.508-.457 18.562-.728 17.709-4.543-.39-1.743-.709-15.898-.709-31.455 0-32.444-.574-30.605 9.25-29.613 3.438.348 6.25.347 6.25-.001 0-.349 1.125-5.837 2.5-12.197 1.375-6.36 2.5-12.427 2.5-13.483 0-2.202.274-2.197-13.5-.235m42.762 7.565c-.591 1.788-6.057 17.847-12.147 35.687-6.091 17.841-10.85 32.661-10.578 32.934.817.817 2.032-1.099 3.876-6.111 2.253-6.122.49-5.484 24.681-8.937 23.45-3.347 22.737-3.452 25.489 3.756 1.74 4.556 3.417 5.822 3.417 2.58 0-1.665-8.578-23.989-20.133-52.394L423.5 630.03l-4.582-.015c-4.288-.014-4.651.194-5.656 3.235m5.536-.482c-2.027.429-3.736 4.728-12.811 32.232-4.906 14.87-6.406 20.584-5.461 20.807 1.209.285 28.799-3.102 36.284-4.454 1.91-.345 3.108-1.075 2.832-1.726-.262-.62-4.318-10.916-9.012-22.881-9.749-24.847-9.558-24.46-11.832-23.978m-156.331 3.942c-15.443 36.737-24.009 59.095-23 60.037.444.414.988.25 1.209-.365 1.371-3.808 5-9.857 5.834-9.725.544.086 9.315 1.119 19.49 2.295 25.209 2.916 24.064 2.527 26.674 9.058 1.956 4.896 4.326 7.727 4.326 5.167 0-2.817-23.177-66.818-24.7-68.206-.44-.4-2.474-1.026-4.52-1.389-3.578-.636-3.781-.517-5.313 3.128m88.533-.56c-17.222 1.02-21.368 1.805-21.817 4.136-.293 1.522.741 1.714 9.244 1.714H348v31.941c0 31.705.211 33.683 3.453 32.439 1.468-.564 1.619-3.873 1.492-32.754l-.141-32.126 8.348-.76c7.938-.722 10.848-2.045 10.848-4.931 0-.891-.234-.887-21 .341m-86.912 6.174c-4.518 10.102-16.362 40.735-15.922 41.176.339.338 18.919 2.855 36.531 4.948l4.198.499-3.544-9.723c-1.949-5.348-6.065-17.007-9.145-25.909-6.728-19.443-7.874-20.482-12.118-10.991m302.943 6.32c-2.585 5.819-4.634 13.086-3.899 13.822.292.291 3.419.643 6.949.782l6.419.252-.241-3.934c-.212-3.455-4.02-12.517-6.27-14.922-.441-.471-1.772 1.329-2.958 4m-151.277 15.689c-1.43 3.484-2.905 7.956-3.277 9.939l-.677 3.605 4.35-.004c11.42-.013 12.316-1.835 6.702-13.623-3.68-7.724-3.893-7.722-7.098.083m-151.539 3.186c-4.512 9.148-4.331 10.962 1.228 12.362 8.66 2.181 9.914 1.753 9.135-3.116-.709-4.434-5.381-15.765-6.5-15.765-.357 0-2.095 2.934-3.863 6.519" fill-rule="evenodd"/>
<path fill="#0d0c0b" stroke="#0d0c0b" d="M0 445.001v445.002l360.25-.252 360.25-.251.251-444.75L721.002 0H0v445.001m.496.499c0 244.75.114 344.726.254 222.168.14-122.557.14-322.807 0-445C.61 100.476.496 200.75.496 445.5m346.927-272.524c-1.583 1.584-20.934 4.189-36.424 4.902-15.097.696-15.555.879-23.999 9.615-9.068 9.381-13.563 11.942-22.062 12.567-7.732.569-15.766 3.709-20.44 7.989-1.36 1.245-4.863 2.189-10.926 2.942-10.649 1.323-10.033 1.003-12.46 6.489-1.636 3.697-2.58 4.569-5.926 5.47-4.222 1.137-5.186 2.456-5.186 7.097 0 4.236-4.975 9.315-11.753 11.998-7.124 2.821-9.247 4.583-9.247 7.676 0 1.326-.466 3.281-1.035 4.345-.57 1.064-.682 1.937-.25 1.942.432.004 4.45.429 8.929.944 4.479.515 11.445 1.033 15.48 1.15 4.558.133 8.93.919 11.542 2.074 2.312 1.023 6.146 1.909 8.519 1.968 21.962.552 25.88 1.877 14.561 4.924-3.074.828-3.929 1.596-4.4 3.95-.321 1.608-1.318 3.135-2.215 3.395-3.954 1.146-9.012.896-11.233-.557-5.7-3.727-13.498-3.978-26.023-.836-8.266 2.073-9.01 2.1-18.017.663-14.822-2.365-26.411 1.274-30.397 9.543-1.094 2.27-3.333 4.863-4.975 5.762-1.87 1.025-4.107 3.848-5.986 7.554-2.862 5.646-3.284 6.015-9.162 8.016-8.642 2.941-17.338 8.957-17.338 11.994 0 .648 1.811 3.826 4.024 7.063 7.032 10.284 2.566 16.647-15.297 21.792-12.09 3.481-15.349 10.743-9.356 20.843L99.19 371h8.783c8.514 0 13.601 1.74 9.819 3.358-.711.304 1.031.295 3.87-.02 3.696-.41 6.082-.113 8.404 1.045 1.994.995 5.761 1.617 9.788 1.617 5.043 0 6.274.272 5.362 1.184-1.29 1.29 3.452 3.571 9.284 4.465 11.558 1.771 9.124 3.15-6.249 3.54-8.634.219-12.249.662-12.25 1.502-.001.655-.521 1.512-1.156 1.904-.715.443-.883.275-.44-.44.399-.647.137-1.162-.596-1.17-1.043-.013-1.033-.19.048-.875 1.103-.699 1.114-1.01.059-1.662-.761-.47-1.46-.315-1.69.375-.216.647-.791 1.177-1.278 1.177s-.626-.675-.31-1.5c.376-.979-.069-1.553-1.281-1.652l-3.357-.277c-.825-.068-2.055.563-2.734 1.402-1.073 1.329-1.318 1.224-1.888-.808-.493-1.755-.869-2.003-1.517-1-.671 1.041-1.036 1.064-1.658.105-.914-1.412-7.8-.849-9.788.801-.908.753-1.533.542-2.267-.766-.94-1.673-1.061-1.681-1.669-.103-1.38 3.58 3.558 4.796 5.741 1.413.396-.613.479.902.184 3.367-.295 2.466-.715 4.662-.935 4.882-.219.219.067 1.269.636 2.331.729 1.363.699 2.337-.104 3.304-.626.754-.994 2.862-.819 4.686.308 3.209.434 3.084 3.947-3.905 2.741-5.454 3.195-6.988 1.854-6.271-1.59.851-1.657.699-.641-1.453.76-1.611 1.38-2.016 1.881-1.23.41.646.767.724.793.174.083-1.765 4.549-4.387 5.973-3.507 1.083.669 1.021 1.14-.327 2.488-1.549 1.549-1.664 1.538-1.694-.16-.05-2.882-2.968 1.413-2.968 4.37 0 1.27-.441 2.309-.98 2.309-1.205 0-5.381 7.973-4.59 8.764.314.313.7.382.86.153 1.401-2.018 7.21-8.42 7.649-8.432.309-.009 1.092-.354 1.742-.767.649-.413 1.455-.306 1.791.236.335.543-.518 1.27-1.897 1.616-1.378.346-4.981 3.449-8.007 6.896-6.913 7.873-7.737 11.591-4.716 21.279 1.159 3.715 2.554 11.837 3.101 18.049 1.256 14.255 2.727 17.609 8.357 19.057 4.547 1.169 9.69 1.296 9.69.24 0-.718 5.369-4.091 6.511-4.091.387 0 .458.638.159 1.417-.584 1.524 1.264 2.583 4.505 2.583 1.128 0 2.228.826 2.503 1.878.506 1.935 4.3 4.238 7.822 4.75 12.11 1.757 28.717 2.842 25.5 1.666-2.786-1.019-5.893-4.529-6.515-7.361-.655-2.984 1.024-7.355 2.48-6.455.475.294 1.015.176 1.2-.261.184-.438 2.81-2.288 5.835-4.112 3.025-1.825 6.625-4.34 8-5.59 1.375-1.251 4.188-2.813 6.25-3.472 2.063-.659 3.75-1.607 3.75-2.107 0-.5 2.541-3.904 5.646-7.565 5.343-6.297 5.724-7.112 7.097-15.152 1.352-7.919 2.762-12.757 6.62-22.719 2.97-7.67 1.428-18.215-2.908-19.879-3.055-1.172-4.97-.615-9.884 2.879-3.824 2.719-5.901 3.5-9.305 3.5h-4.383l4.623-6.008c16.425-21.346 32.258-.764 23.028 29.934-3.718 12.363-3.511 17.724.716 18.551 1.787.35 6.175 1.944 9.75 3.542 10.552 4.717 16.934 4.999 21.39.945 4.524-4.117 4.504-4.565-.242-5.324-7.758-1.241-11.367-8.006-8.164-15.304 2.16-4.923 5.044-6.741 9.394-5.925 2.822.53 3.697.049 8.021-4.408 2.669-2.752 5.809-5.068 6.977-5.148 7.692-.527 14.882 2.232 16.139 6.192.621 1.956 2.414 2.67 7.985 3.179 2.939.268 3.005.397 3.242 6.274.134 3.3.513 7.627.844 9.615.772 4.644-3.639 8.415-8.889 7.6-3.542-.55-9.03 2.171-10.71 5.309-1.296 2.421-1.249 6.689.14 12.704.949 4.112.865 5.387-.531 8.086-1.986 3.841-1.369 5.351 4.263 10.44 4.999 4.516 7.845 6.049 9.412 5.07 5.899-3.686 11.405.216 8.886 6.297-2.153 5.197-7.089 9.636-10.045 9.033-6.53-1.332-8.75-2.185-16.352-6.283-9.767-5.266-8.949-5.227-13.159-.633-4.569 4.986-3.9 5.5 6.25 4.798 7.685-.532 9.429-.313 15.649 1.969 8.667 3.18 8.486 3.162 17 1.713 3.85-.655 9.7-1.036 13-.847 13.051.749 42.5-1.853 42.5-3.754 0-5.34-9.707-7.294-17.859-3.595-6.088 2.763-6.75 2.568-8.707-2.556-2.113-5.532-3.086-5.316-6.934 1.534-1.65 2.938-3.562 5.527-4.25 5.754-2.826.933-.481-3.268 6.036-10.814 3.543-4.103 3.822-4.241 4.366-2.162.665 2.542 2.552 2.886 4.296.784.973-1.172.621-1.733-1.909-3.042-4.355-2.252-8.459-6.748-14.62-16.02-2.923-4.4-6.689-9.49-8.367-11.312-1.679-1.821-3.052-3.587-3.052-3.924 0-1.026 4.988 3.615 16 14.886 13.647 13.968 18.669 15.428 23.179 6.737 3.327-6.41 3.49-12.261.381-13.678-5.458-2.486-10.463.807-9.73 6.402.395 3.011-3.066 5.015-4.881 2.827-1.051-1.266-.755-2.057 1.77-4.729 1.667-1.765 3.658-4.559 4.424-6.209 1.135-2.448 2.032-3.021 4.874-3.112 7.736-.248 8.983-.425 8.983-1.271 0-.486-.9-1.119-2-1.407-1.1-.287-2-.115-2 .384 0 .498-.949.906-2.108.906-1.813 0-2.005-.386-1.369-2.75.407-1.512 1.079-4.486 1.494-6.608 1.204-6.162 4.106-8.431 8.253-6.453 2.852 1.36 3.588 1.388 5.216.197 4.284-3.132 4.959 1.267 1.014 6.614-3.178 4.308-3.144 6.581.191 12.624 3.222 5.839 4.035 6.473 7.301 5.697 3.981-.947 5.16-2.352 4.499-5.364-.518-2.357-.195-2.864 2.392-3.766 2.847-.993 3.024-.893 3.679 2.091.424 1.933.278 3.271-.383 3.492-.589.196-3.86 2.159-7.269 4.362-5.527 3.573-6.36 3.843-7.707 2.495-1.775-1.774-3.395-.151-7.066 7.079-2.91 5.733-2.69 8.59.984 12.775 2.422 2.758 2.997 4.177 2.566 6.332-.514 2.569.648 6.232 1.636 5.154.237-.259 1.38-2.353 2.54-4.653 2.036-4.039 3.816-5.973 4.691-5.098.231.232-.963 2.302-2.653 4.6-1.691 2.299-2.698 4.179-2.238 4.178.461-.001 15.462.268 33.337.598 17.875.329 34.075.621 36 .648 1.925.027 7.1-.667 11.5-1.54 4.4-.874 14.195-2.532 21.766-3.684 7.571-1.152 17.471-3.244 22-4.649 4.529-1.405 10.597-3.06 13.484-3.678 6.458-1.382 6.522-2.024.5-5.031-15.893-7.934-16.156-7.875-29.599 6.552-1.344 1.442-2.709 1.852-5 1.5-1.733-.266-4.683.146-6.555.914-4.738 1.946-4.905 1.106-.65-3.276 3.188-3.282 4.266-3.773 8.357-3.81 3.92-.035 4.743-.373 4.977-2.042.263-1.884-.315-2.004-10-2.076-7.011-.051-11.97-.64-15.595-1.851-6.899-2.306-7.23-1.739-3.391 5.818 4.136 8.143 4.13 9.588-.044 9.681-5.184.116-10.063.599-12.598 1.249l-2.348.602 2.418-2.418c2.941-2.941 7.188-4.695 8.409-3.474.487.487 1.454.535 2.148.106 1.775-1.097-3.61-8.335-8.715-11.713-2.947-1.951-4.029-3.391-4.258-5.669-.523-5.219-2.984-5.669-8.095-1.481-8.789 7.202-10.658 7.151-14.904-.404-2.849-5.069-4.515-4.885-10.21 1.13-4.817 5.087-8.756 6.441-11.31 3.887-.613-.613-2.913-.942-5.111-.732-3.558.339-3.895.188-3.057-1.377 2.098-3.921 12.175-6.862 13.767-4.017 1.349 2.41 4.193-.334 9.159-8.838 5.059-8.662 6.38-9.753 8.974-7.406 1.949 1.764 1.981 1.714 1.993-3.112.025-10.522 5.017-21.83 11.638-26.367 2.151-1.474 3.35-3.113 3.35-4.578 0-1.256 1.158-7.16 2.574-13.121 4.401-18.534 2.961-32.445-3.799-36.709-3.03-1.911-9.455 2.175-12.29 7.816-1.367 2.721-2.485 4.183-2.485 3.25 0-2.882-1.996-1.867-2.07 1.054-.118 4.575-3.042-4.347-3.156-9.627-.086-3.964.299-4.704 4.071-7.837 2.291-1.903 3.911-3.871 3.601-4.373-.8-1.294 7.268-1.137 9.747.19 1.583.847 2.26.789 2.919-.25.61-.962.862-.632.874 1.147.01 1.375.877 4.075 1.929 6 6.634 12.146 7.225 15.203 5.851 30.264-1.737 19.023-.173 21.56 12.407 20.137 4.656-.527 6.546-1.263 8.416-3.28 2.6-2.804 3.032-4.121 1.352-4.121-.582 0-.784-.445-.448-.988.335-.543 1.281-3.564 2.101-6.713 1.466-5.626 1.452-5.756-.801-7.49-1.261-.971-2.546-1.775-2.855-1.787-.901-.035-4.594-5.363-5.334-7.694-.64-2.016-.467-2.085 3.109-1.255 6.2 1.44 12.878 1.125 14.373-.677.733-.882 2.39-2.007 3.683-2.498 1.293-.492 2.073-1.345 1.732-1.896-.376-.608 1.024-1.002 3.562-1.002 4.487 0 4.209-2.128-.528-4.048-1.947-.79-1.937-.828.247-.889 1.255-.034 3.898.612 5.872 1.437 4.358 1.821 4.669 1.842 3.713.25-.51-.849-.209-.81.941.122 1.499 1.217 1.693 1.103 1.697-1 .005-2.091.275-1.926 2.285 1.393 1.849 3.055 2.523 3.527 3.572 2.5 1.055-1.032 1.17-.594.626 2.37-.756 4.117.562 5.672 2.86 3.374 1.948-1.948 2.274-1.914 5.804.599 5.713 4.068 27.932-2.124 26.438-7.367-2.352-8.257-1.718-9.635 2.41-5.241 4.394 4.678 9.757.637 8.617-6.492l-.652-4.077 2.488 1.63c2.466 1.616 2.501 1.595 4.126-2.466 4.041-10.099 14.133 2.427 13.172 16.349-.847 12.269-4.937 18.556-12.068 18.556-1.71 0-3.188 1.164-5.05 3.979-4.215 6.369-3.473 7.075 8.367 7.96l7.5.561-.219 2.973c-.151 2.057-1.591 4.269-4.674 7.182-2.982 2.817-6.33 7.874-10.125 15.294-6.471 12.65-11.024 18.076-17.615 20.992-3.106 1.373-5.966 3.799-8.776 7.441-3.897 5.051-10.749 10.618-13.07 10.618-3.173 0 1.891 6.195 7.979 9.76l3.5 2.05 6-1.996c6.894-2.293 30.244-2.949 50.179-1.409l11.18.864.561-3.385c.308-1.861.7-4.959.87-6.884.248-2.796.477-2.246 1.137 2.733.93 7.004 2.31 8.745 6.317 7.968 1.573-.304 3.4.026 4.256.77 1.474 1.281 10.342 3.529 13.92 3.529 2.681 0 3.345-7.53 1.648-18.675-.769-5.046-1.149-11.027-.846-13.29.967-7.209-5.004-10.747-13.441-7.963-5.375 1.774-4.964.341.639-2.23 2.794-1.282 5.08-2.67 5.08-3.086 0-.813-.22-.883-3.958-1.257-1.352-.135-2.628-.756-2.835-1.379-.711-2.132-2.207-.005-2.207 3.139 0 2.443-.267 2.874-1.2 1.941-.66-.66-2.872-1.2-4.917-1.2-2.044 0-3.895-.536-4.113-1.191-.219-.655-2.364-1.24-4.767-1.301-6.212-.155-6.283-3.867-.092-4.812 1.239-.189 2.555-.832 2.924-1.429 1.353-2.189 9.369-4.505 16.041-4.634l6.832-.133-.102-4-.102-4 4.478-.319c2.463-.175 4.938-.676 5.498-1.112.561-.436 2.145-1.069 3.52-1.406 2.852-.698 7-6.259 7-9.384 0-1.389-2.184-3.813-6.471-7.182-8.544-6.714-9.944-9.502-9.043-18.003 1.742-16.434.952-18.834-9.588-29.126-3.794-3.704-6.898-7.492-6.898-8.417 0-3.148-2.118-5.652-7.814-9.236-8.574-5.397-11.086-8.163-12.815-14.112-1.762-6.061-3.967-8.361-13.907-14.507-8.433-5.214-10.9-8.39-10.936-14.079-.036-5.501-1.347-6.997-9.913-11.311-5.976-3.009-7.652-3.436-11.453-2.915-3.56.488-6.509-.099-14.704-2.929-5.637-1.946-11.959-3.692-14.049-3.88-4.13-.37-5.218-1.834-5.339-7.187l-.07-3.105 7.179-.602c5.003-.419 7.73-1.153 8.997-2.42 1.758-1.758 1.533-1.881-6.769-3.701-10.312-2.261-12.189-4.385-14.874-16.828-2.002-9.281-3.851-10.739-13.615-10.739-4.565 0-7.085-.558-9.633-2.133-2.323-1.436-6.199-2.411-11.865-2.985-10.3-1.044-14.935-2.875-17.18-6.786-1.946-3.391-3.699-4.063-10.644-4.082-3.199-.009-6.84-.931-10.479-2.652-5.375-2.542-5.957-2.608-16.097-1.818-5.786.451-12.995.765-16.02.698-3.025-.067-8.224-.18-11.552-.251-6.874-.146-9.021-1.056-8.108-3.435.974-2.538 6.618-4.418 16.685-5.559 5.048-.572 10.37-1.666 11.827-2.432l2.648-1.393-2.5-.544c-1.375-.299-9.025-.748-17-.997-7.975-.248-15.4-.74-16.5-1.092-1.1-.352-2.485-.156-3.077.437M143 388c-.901.582-1.025.975-.309.985.655.008 1.469-.435 1.809-.985.767-1.242.421-1.242-1.5 0m-41.545 2.455c-1.35 1.35-2.455 2.925-2.455 3.5 0 1.763 2.833 1.157 3.293-.705.237-.962.331-.739.209.497-.268 2.691 3.973 11.911 4.836 10.515.332-.538.208-2.359-.276-4.047-.632-2.204-.53-3.205.361-3.547.683-.262 1.314-2.32 1.402-4.572.196-4.999-3.246-5.766-7.37-1.641m26.045.697c-5.034 1.668-7.46 3.104-6.867 4.064.311.503 1.308.27 2.216-.517 1.78-1.542 6.87-3.154 8.901-2.818.688.114 1.25-.263 1.25-.837 0-1.253-1.481-1.224-5.5.108m-23.5 1.65c0 1.537.443 1.965 1.584 1.527.871-.334 1.208-.887.75-1.23-.459-.342-1.172-1.03-1.584-1.527-.412-.498-.75.056-.75 1.23m-6.638 3.698c.387 1.009-.046 1.5-1.322 1.5-4.749 0-5.454 3.054-1.593 6.902 2.955 2.945 3.776 3.331 4.528 2.126.767-1.231 1.033-1.149 1.623.5.865 2.415 3.41 5.472 4.557 5.472 1.688 0 .804-6.783-1.22-9.355-1.136-1.444-1.826-3.012-1.535-3.484.632-1.021-3.015-5.161-4.546-5.161-.587 0-.809.675-.492 1.5m1.202 6.793c.376.986.935 1.541 1.243 1.233.308-.307.001-1.114-.683-1.793-.988-.98-1.102-.865-.56.56m-10.939 2.832c-.344 1.719-.625 4.215-.625 5.548 0 1.332-1.125 3.465-2.5 4.739-1.375 1.275-2.5 3.2-2.5 4.278 0 1.079 1.125 3.018 2.5 4.31 1.908 1.792 2.5 3.358 2.5 6.609 0 2.344.433 5.4.963 6.793.788 2.074.525 3.053-1.453 5.404-3.998 4.752-1.139 9.058 7.49 11.279 3.575.92 7.269 1.993 8.208 2.385 2.563 1.068 3.298-2.99 3.253-17.97-.062-20.702-1.798-27.1-8.244-30.39-2.045-1.044-4.574-2.845-5.622-4.004-2.564-2.834-3.234-2.662-3.97 1.019m521.848 4.919c-.325.526.137.956 1.027.956.919 0 1.325.474.941 1.096-.411.664-.019.96.993.75.92-.19 1.681-.774 1.693-1.296.031-1.361-3.948-2.648-4.654-1.506m-4.993 2.206c.308 2.185-.009 2.75-1.546 2.75-1.064 0-1.934-.45-1.934-1s-.675-1-1.5-1c-3.613 0-.364 3.794 3.913 4.57 1.981.359 2.591.055 2.602-1.3.013-1.509.159-1.548.985-.27.533.825.976 1.027.985.45.008-.577-.525-1.59-1.185-2.25-.933-.933-.92-1.2.059-1.2.692 0 .976-.457.631-1.016-.346-.559-1.009-.781-1.474-.494-.465.287-1.088-.043-1.384-.734-.296-.691-.364-.018-.152 1.494m6.091 2.636c-.301.487.572 1.099 1.941 1.361 1.665.318 2.488.025 2.488-.886 0-1.501-3.559-1.883-4.429-.475m-3.172 3.95c.597.967 4.234.864 5.247-.149.378-.378-.764-.687-2.538-.687-1.774 0-2.994.376-2.709.836m-6.399 1.32c0 .635 1.046 2.548 2.324 4.25 3.221 4.289 3.774 6.205 2.649 9.165-1.274 3.351.869 17.462 2.272 14.957 1.354-2.42 5.728-18.651 5.743-21.309.012-2.334-.291-2.541-5.488-3.75-2.671-.622-2.781-.783-1-1.473 1.849-.717 1.787-.86-.815-1.886-3.62-1.428-5.685-1.411-5.685.046m-26.369 3.546c-1.205 1.206-.623 4.298.81 4.298 2.673 0 2.439 1.574-.263 1.769-1.473.106-5.828.734-9.678 1.395l-7 1.202 4 .725c3.796.688 12.495.433 17.14-.503 1.178-.237 3.98.036 6.227.606 3.886.986 8.116.456 6.806-.854-.337-.337-2.987-1.147-5.889-1.801-3.236-.729-5.315-1.74-5.378-2.614-.253-3.557-.484-4.064-1.656-3.643-.687.246-1.978.074-2.869-.382-.89-.456-1.902-.545-2.25-.198m-436.665 9.34c-.806.51-2.478.934-3.716.943-1.527.01-2.25.617-2.25 1.888 0 1.526-.963 1.965-5.208 2.373-2.864.275-5.376 1.007-5.583 1.627-.207.62-1.013 1.127-1.792 1.127-.779 0-1.417.424-1.417.941 0 1.494 8.4 2.891 9 1.496.292-.679 1.3-.878 2.421-.477 1.815.648 1.788.786-.5 2.486-1.634 1.215-1.825 1.597-.589 1.177 1.007-.343 2.655-.623 3.661-.623 1.847 0 2.106-1.451.67-3.75-.43-.687-.341-1.25.196-1.25.538 0 1.742-.293 2.676-.652 1.483-.569 1.546-.367.496 1.595-1.11 2.074-1.023 2.201 1.133 1.661 1.285-.322 1.774-.327 1.086-.011-1.735.796-1.568 2.407.25 2.407.825 0 1.5-.45 1.5-1s.477-1 1.059-1 .741.563.353 1.25c-.564 1-.436 1 .641 0 1.509-1.401 9.947-1.73 9.947-.389 0 .474 1.125.647 2.5.384s2.5-.923 2.5-1.468c0-.544-1.125-1.874-2.5-2.956-1.375-1.081-2.5-2.416-2.5-2.965 0-2.189-3.113-3.999-6.393-3.717-1.861.16-4.011-.23-4.779-.867-.899-.746-1.917-.828-2.862-.23m478.211 2.631c.178.921-.859 2.855-2.303 4.299-2.888 2.888-5.284 13.429-4.692 20.647.308 3.757.445 3.889 4.318 4.141 2.2.143 7.758.975 12.351 1.849 10.358 1.971 10.066 2.267 11.402-11.504 1.339-13.799.682-14.84-11.757-18.634-9.612-2.932-9.734-2.943-9.319-.798m-472.867 3.822c-1.377.965-2.408 1.155-2.803.516-.934-1.511-2.174-1.219-2.174.512 0 2.255 4.294 2.993 6.218 1.069 2.327-2.327 1.378-3.931-1.241-2.097m8.69 1.914c0 .19.675.906 1.5 1.591.865.718 1.5.815 1.5.229 0-.558-.675-1.274-1.5-1.591-.825-.316-1.5-.419-1.5-.229m-8.442 4.498c-.309.498.34.671 1.441.383 2.335-.611 2.63-1.29.56-1.29-.793 0-1.693.408-2.001.907m-23.558.88c0 .433.91.856 2.022.94 1.112.083 1.76-.271 1.441-.788-.703-1.136-3.463-1.258-3.463-.152m15.079 1.796c.048 1.165.285 1.402.604.605.289-.722.253-1.585-.079-1.917-.332-.332-.568.258-.525 1.312m4.921-.142c0 2.426-.123 2.92-1.262 5.059-.928 1.743-.866 1.835.488.719 1.809-1.492 2.902-6.022 1.64-6.802-.476-.294-.866.167-.866 1.024M189.865 464c-3.708 3.85-7.557 7.071-8.553 7.157-.997.087 1.113.464 4.688.839 3.575.374 9.875 1.448 14 2.386 12.919 2.938 13.331 2.913 12.445-.751-1.126-4.657-.902-8.376.616-10.205 3.38-4.072 1.973-6.756-2.551-4.866-4.454 1.861-8.937 1.836-10.51-.06-2.012-2.424-3.043-1.865-10.135 5.5m36.198.337c-2.564 2.564-.348 6.663 3.602 6.663 2.793 0 4.596 3.113 3.751 6.479-1.001 3.988 4.43 3.574 7.494-.571 1.257-1.7 3.817-3.732 5.688-4.513 1.871-.782 3.402-1.81 3.402-2.283 0-.95-4.774-2.099-8.875-2.136-1.444-.013-5.184-1.076-8.312-2.363-4.016-1.651-6-2.026-6.75-1.276M551.038 499c-3.199 6.276-25.842 77.007-26.251 82l-.287 3.5h24l1.877-5.779 1.877-5.779 12.52.279 12.519.279 1.362 4.5c2.212 7.309 2.53 7.484 16.194 8.876 6.792.692 12.616.992 12.941.667 1.166-1.166-28.348-85.419-30.803-87.935-1.703-1.745-25.091-2.293-25.949-.608M505 500.122c-4.675 1.083-9.484 2.175-10.687 2.427-2.18.456-2.185.522-1.591 18.593.522 15.854.41 18.024-.884 17.247-4.316-2.59-28.838-31.223-28.838-33.672 0-.972-19.51-.54-20.504.454-.26.26-.038 13.491.494 29.401.531 15.91.976 35.566.988 43.678.02 13.456.178 14.75 1.798 14.75 2.286 0 18.105-1.881 20.724-2.465 1.926-.429 1.989-1.138 1.706-19.116l-.293-18.67 3.293 2.753c4.094 3.422 9.138 9.304 18.794 21.912l7.5 9.794 9.862-.516c5.424-.283 10.246-.9 10.715-1.369.471-.471.437-6.894-.077-14.338-.511-7.417-.945-26.873-.965-43.235-.033-27.683-.157-29.745-1.785-29.673-.962.042-5.575.962-10.25 2.045M117.6 502c-.113.275-.024 19.243.197 42.151l.402 41.652 4.151.572c2.282.315 7.492.659 11.577.764 7.172.186 7.437.109 7.702-2.223.151-1.329.769-7.578 1.373-13.888.604-6.309 1.532-11.74 2.062-12.067 1.054-.652 13.638.651 18.436 1.908l3 .786-.203 13.6-.202 13.6 4.702 1.004c2.587.552 8.631 1.321 13.431 1.708l8.728.705.272-41.886c.15-23.037-.082-42.148-.515-42.468-.934-.691-22.702-3.263-23.221-2.744-.197.198-.679 6.539-1.071 14.092L167.709 533h-8.789c-14.007 0-13.397.651-14.913-15.919-.708-7.745-1.337-14.124-1.397-14.176-.474-.409-24.851-1.291-25.01-.905m311.9 5.211c-10.684 1.248-13.499 2.419-13.505 5.617-.003 1.469-.643 10.097-1.423 19.172-.78 9.075-1.73 21.765-2.112 28.201-.792 13.367-1.151 13.992-8.96 15.609-11.661 2.414-11.2 3.642-11.939-31.81-.292-14.025-.827-26.798-1.188-28.385l-.658-2.884-7.15.604c-3.932.332-9.451 1.135-12.262 1.785l-5.113 1.18.155 26.1c.085 14.355-.237 31.999-.715 39.208l-.871 13.108 8.371 2.267c4.603 1.246 11.098 2.737 14.433 3.313l6.063 1.046 5.368-4.243c2.952-2.333 7.095-5.124 9.206-6.201 4.078-2.081 4.048-2.099 5.184 3.146l.551 2.545 12.782-2.072 12.783-2.072-.208-6.973c-.114-3.834-.349-23.032-.522-42.661-.173-19.628-.529-35.852-.792-36.053-.263-.2-3.628.004-7.478.453m131.951 2.55c-1.839 1.297-15.928 40.253-20.498 56.678-2.127 7.646-1.287 7.786 1.489.247l1.772-4.814 19.143.622c24.611.799 23.263.435 26.318 7.107 1.392 3.04 2.741 5.317 2.998 5.059.431-.431-.75-3.743-7.191-20.16C575.435 528.889 569 511.922 569 511.043c0-.574-.863-1.043-1.918-1.043s-2.518-.22-3.25-.489c-.733-.27-1.804-.157-2.381.25m-335.368 4.982c-.729 2.066-6.018 15.883-11.755 30.703-13.149 33.971-16.7 44.142-16.025 45.902.344.895 3.536 1.826 8.867 2.585 4.581.653 9.922 1.427 11.868 1.721l3.538.534 1.778-5.641c1.377-4.368 2.157-5.537 3.462-5.183.926.252 6.184.996 11.684 1.654 12.806 1.532 12.191 1.288 13.026 5.164 1.77 8.215 2.072 8.401 15.953 9.816 6.916.705 12.85 1.006 13.187.669 1.628-1.627-27.191-88.653-29.365-88.675-1.614-.017-18.892-1.983-21.848-2.487-2.788-.475-3.158-.201-4.37 3.238m278.098 25.258c.176 15.95.036 29-.311 29-.346-.001-2.297-1.914-4.336-4.251-2.038-2.337-6.261-6.95-9.384-10.25s-9.576-10.5-14.34-16c-4.764-5.5-11.67-12.925-15.346-16.5l-6.683-6.5.739 25c1.149 38.822 2.356 45.681 2.069 11.75-.136-16.087-.027-29.25.242-29.25.651 0 15.932 16.06 33.671 35.387 1.101 1.199 4.874 5.653 8.385 9.897 3.51 4.244 6.834 7.716 7.387 7.716.652 0 .786-3.961.381-11.25-.344-6.187-.632-20.812-.64-32.5-.01-14.401-.359-21.25-1.084-21.25-.741 0-.971 8.893-.75 29.001m58.137-27.751c-1.656 2.586-16.749 46.658-16.172 47.22.195.19 6.429.622 13.854.959 7.425.338 16.313.865 19.75 1.172 3.438.307 6.25.306 6.25-.001 0-.308-1.842-5.181-4.093-10.83-2.251-5.648-6.341-16.345-9.089-23.77-5.223-14.114-6.211-16-8.381-16-.726 0-1.679.563-2.119 1.25m-431.323 20.441c-.002 10.895-.296 24.872-.652 31.059-.473 8.202-.336 11.25.504 11.25.78 0 1.185-2.99 1.252-9.25.054-5.087.392-11.697.75-14.688l.651-5.438 6.5.256c3.575.14 13.475.894 22 1.676 8.525.781 15.838 1.426 16.25 1.432.412.007.75 6.762.75 15.012 0 17.349 1.394 19.93 2.348 4.344 1.03-16.841.799-50.344-.348-50.344-.621 0-1 5.546-1 14.639v14.64l-4.75-.562c-2.613-.308-12.175-1.086-21.25-1.728-22.916-1.622-21-.079-21-16.909 0-8.229-.411-14.216-1-14.58-.654-.404-1.002 6.241-1.005 19.191m203.07-14.356c-.586.586-1.065 1.414-1.065 1.841 0 1.531-11.96 17.412-16.318 21.668-5.707 5.573-6.068 4.932-5.855-10.39l.169-12.183-4.638-.635c-2.55-.35-8.466-.636-13.146-.636h-8.508l.642 8.25c.353 4.538.645 23.612.648 42.387l.006 34.138 9.75 1.238c14.457 1.836 13.597 2.471 14.609-10.773.473-6.182 1.199-11.24 1.613-11.24 2.005 0 14.742 11.859 22.286 20.75 1.516 1.788 3.316 3.246 4 3.24 2.31-.018 21.742-12.024 21.742-13.433 0-.769-4.613-5.237-10.25-9.929s-12.467-10.501-15.176-12.909l-4.926-4.379 8.938-10.42C349.914 541.714 359 529.65 359 527.815c0-.809-2.257-2.222-5.25-3.285-2.887-1.026-8.258-3.079-11.935-4.562-4.728-1.907-6.998-2.385-7.75-1.633m91.345 2.915c-.398 1.237-.78 14.348-.848 29.133l-.124 26.884-7.079 1.839c-3.894 1.011-11.196 3.218-16.226 4.903-10.047 3.366-14.114 3.154-19.409-1.011l-2.536-1.995.558-28.002c.415-20.79.262-28.001-.594-28.001-.827 0-1.21 5.996-1.356 21.25-.113 11.688-.271 24.545-.353 28.572-.18 8.932 1.048 10.82 8.256 12.69 4.988 1.294 5.49 1.216 17.468-2.7 17.593-5.752 18.95-6.016 21.063-4.104 1.634 1.479 1.77 1.456 1.77-.303 0-1.048.112-15.293.25-31.655.137-16.363.168-29.75.067-29.75-.1 0-.508 1.013-.907 2.25m-188.824 2.611c-.222.36-4.554 11-9.625 23.646-13.581 33.863-16.233 41.584-10.373 30.197 1.254-2.436 2.742-4.056 3.538-3.853.756.193 9.024 1.238 18.374 2.321 9.35 1.083 18.445 2.18 20.21 2.436 2.902.423 3.428 1.064 5.481 6.68 1.249 3.417 2.403 5.537 2.563 4.712.161-.825-2.444-9.15-5.789-18.5a4566.863 4566.863 0 0 1-11.127-31.5c-2.774-7.975-5.187-14.652-5.362-14.837-.735-.781-7.521-1.9-7.89-1.302m1.624 3.389c-.981 1.184-10.128 23.488-15.555 37.924l-2.509 6.675 3.677.596c9.076 1.473 35.565 4.5 35.956 4.11.446-.446-1.905-7.552-11.517-34.805-5.615-15.923-7.1-18.065-10.052-14.5M297 542.84c0 22.481 1.21 51.16 2.158 51.16.463 0 .842-5.169.842-11.487v-11.488l4.109-2.594c6.274-3.961 6.441-3.861 26.994 16.18 4.732 4.614 9.232 8.381 10 8.371.768-.01-5.33-6.587-13.552-14.615l-14.949-14.597 4.949-4.548c12.158-11.171 17-16.076 20.731-20.999 6.162-8.131 3.79-7.191-3.781 1.499-13.141 15.083-31.549 29.574-34.192 26.916-.445-.448-.826-8.312-.846-17.476C299.419 529.519 299.314 528 298 528c-.622 0-1 5.613-1 14.84m264.631.226c-3.732 8.605-3.554 9.673 1.752 10.469 8.961 1.343 9.63-.131 4.898-10.785-3.174-7.145-3.42-7.134-6.65.316m-322.938 10.28C236.502 556.69 234 562.93 234 565.05c0 1.867 9.589 3.94 11.827 2.557 1.031-.637-.331-6.027-3.251-12.857-1.89-4.422-1.903-4.426-3.883-1.404M553.45 608.25c-.39 1.788-6.434 20.575-13.432 41.75-6.997 21.175-13.034 40.188-13.415 42.25l-.694 3.75h12.487c13.861 0 13.246.295 15.638-7.5l1.534-5 13.236-.279c11.96-.252 13.289-.108 13.778 1.5.299.978 1.316 3.804 2.262 6.279l1.719 4.5 11.469 1.19c6.307.655 12.53 1.389 13.827 1.632 2.246.421 2.328.245 1.723-3.69-1.198-7.778-19.355-59.355-28.252-80.255l-3.458-8.123-4.576-.627c-2.516-.345-8.752-.627-13.856-.627h-9.281l-.709 3.25m-34.45-.666c-7.975.72-21.574 1.626-30.221 2.015l-15.72.707-1.487 4.597c-.818 2.528-2.181 7.747-3.029 11.597-.848 3.85-1.775 8.013-2.061 9.25-.639 2.764 1.633 2.952 8.927.739 2.7-.819 6.346-1.489 8.103-1.489h3.195l.646 7.651c.943 11.156.801 23.766-.469 41.646-.617 8.689-.834 16.087-.481 16.439.596.596 28.377-2.183 29.105-2.911.181-.181-.146-10.228-.728-22.327-.582-12.099-.724-26.447-.315-31.885l.742-9.886 7.245.548 7.245.548 1.771-8.162c1.696-7.82 3.228-20.812 2.419-20.523-.213.076-6.912.727-14.887 1.446m-387.44 1.529a1928.11 1928.11 0 0 0-2.51 11.387c-1.08 4.95-4.275 18.225-7.1 29.5-6.329 25.256-9.913 42.288-9.08 43.154.347.36 6.254.81 13.127 1l12.497.346.727-3.5c3.818-18.379 5.2-23.858 5.909-23.42.945.584 6.752 18.139 7.744 23.414.821 4.363 3.438 5.7 12.06 6.161l6.434.345 5.139-13.441c2.826-7.392 5.631-13.605 6.233-13.806 1.161-.387 2.584 5.456 4.233 17.378 1.784 12.898 1.23 12.37 15.527 14.82 11.64 1.995 14.5 1.988 14.5-.034 0-3.531-5.175-22.335-12.207-44.358-4.387-13.74-7.121-23.581-9.817-35.341-2.068-9.023-3.032-10.49-7.326-11.148-11.154-1.708-12.381-1.695-12.983.138-7.288 22.214-11.438 33.716-12.265 33.991-.863.288-9.887-26.052-11.974-34.949-.51-2.175-1.218-2.75-3.39-2.75-1.509 0-5.487-.287-8.838-.637-5.836-.61-6.116-.536-6.64 1.75M420 617.675a3778.42 3778.42 0 0 0-12.75 1.915c-1.851.285-3.25 1.093-3.25 1.878 0 .758-6.008 19.525-13.352 41.705-13.301 40.171-16.411 50.398-15.58 51.229.241.24 5.837-.032 12.435-.605 13.477-1.17 13.615-1.25 15.953-9.294l1.507-5.185 11.665-1.246c6.415-.686 12.232-1.465 12.928-1.732.706-.271 1.573.539 1.965 1.838.386 1.277 1.403 3.839 2.261 5.693l1.56 3.37 6.579-.669c15.444-1.57 21.079-2.759 21.07-4.444-.021-4.162-23.629-69.914-29.591-82.416-.974-2.041-2.25-3.653-2.835-3.581-.586.072-5.34.767-10.565 1.544m144.566.218c-1.059 1.714-22.566 64.2-22.508 65.398.031.665 1.173-1.25 2.538-4.256 1.364-3.005 3.026-5.827 3.692-6.27.667-.443 10.853-.584 22.636-.313 23.582.542 22.006.047 24.821 7.798 1.364 3.758 3.255 6.328 3.255 4.425 0-2.381-24.411-64.238-26.214-66.425-1.179-1.43-7.39-1.7-8.22-.357m-67.066 1.686c-14.72 1.613-17.5 2.259-17.5 4.065 0 1.148 1.263 1.276 6.75.687 3.712-.399 7.875-.749 9.25-.778l2.5-.053.612 20.5c.337 11.275.674 25.82.75 32.323.12 10.261.349 11.781 1.738 11.5 1.675-.338 2.232-43.425.755-58.422l-.6-6.1 3.872-.639c2.13-.352 5.59-.645 7.689-.651 4.055-.012 7.684-1.45 7.684-3.046 0-1.251-8.498-1.029-23.5.614m68.071 2.599c-2.7 6.467-15.571 45.08-15.563 46.689.008 1.449 2.318 1.661 20.5 1.883 11.271.138 20.492-.105 20.492-.538 0-.434-1.83-5.497-4.066-11.251-2.237-5.753-4.307-11.222-4.602-12.153-.294-.931-2.875-7.456-5.734-14.5-5.858-14.431-8.296-16.67-11.027-10.13m-310.975-1.324c-.216.355-2.04 4.921-4.052 10.146-2.012 5.225-4.527 11.75-5.587 14.5-1.061 2.75-5.543 14.098-9.962 25.217-8.07 20.31-11.992 32.619-10.781 33.831.652.651 20.892 4.42 23.853 4.441 1.031.007 2.173-1.91 3.336-5.597 1.664-5.281 1.926-5.576 4.497-5.062 1.501.3 7.52 1.103 13.374 1.783l10.644 1.238.675 3.07c2.109 9.604 2.811 9.959 22.275 11.267 8.897.598 9.339.533 8.802-1.279-.31-1.05-1.3-4.834-2.199-8.409-1.902-7.563-19.86-61.639-24.493-73.753-3.521-9.21-2.839-8.768-15.076-9.768-4.179-.342-9.244-.992-11.256-1.446-2.011-.454-3.834-.534-4.05-.179m-114.342 5.84c-.568 2.643-3.748 14.931-7.065 27.306-7.046 26.282-7.651 29-6.45 29 .935 0 8.907-28.966 12.214-44.379 1.048-4.884 2.298-9.272 2.777-9.751.878-.878 11.22 24.395 18.01 44.012 4.39 12.68 3.994 13.038 11.66-10.554 7.534-23.187 9.733-29.332 10.484-29.309.339.011 2.039 4.623 3.778 10.25 16.316 52.793 14.877 48.525 15.982 47.42.355-.354-.058-2.567-.918-4.917-2.006-5.483-8.303-25.323-13.814-43.522-2.373-7.837-4.631-14.25-5.019-14.25-.752 0-4.03 8.733-12.011 32l-5.451 15.893c-.263.766-.659 1.212-.881.991-.476-.477-9.399-23.181-16.067-40.884-5.679-15.077-5.921-15.389-7.229-9.306m231.246-1.538c-2.75.489-14.828 1.07-26.841 1.291-12.013.221-22.032.593-22.266.827-.724.723-5.255 16.991-5.954 21.374l-.662 4.148 10.537-.538 10.537-.538.031 19.89c.017 10.94-.527 25.421-1.21 32.18-.682 6.76-.929 12.794-.549 13.409.581.941 28.811.487 29.395-.472.076-.125-.122-10.577-.44-23.227s-.433-27.191-.255-32.313l.322-9.313 7.622.222 7.622.223 2.158-10.41c1.187-5.725 2.421-12.096 2.742-14.159l.585-3.75-4.187.134c-2.303.073-6.437.533-9.187 1.022m42.928 6.788c-2.473 6.033-23.474 68.076-23.351 68.986.042.313 1.309-2.114 2.815-5.394l2.74-5.964 21.934-3.165c24.585-3.548 24.053-3.62 26.439 3.607 1.354 4.104 3.68 5.763 2.434 1.736-1.231-3.977-9.413-24.731-17.162-43.533l-7.535-18.283-3.838.227c-2.371.14-4.083.821-4.476 1.783m1.686 2.306C409.423 652.247 399 683.708 399 685.909c0 .9 1.086 1.099 3.75.689 2.063-.318 10.95-1.511 19.75-2.651s16.53-2.243 17.178-2.451c.798-.256.094-3.055-2.187-8.687-1.85-4.57-6.205-15.61-9.677-24.533-5.573-14.32-6.581-16.227-8.589-16.25-1.459-.017-2.575.781-3.111 2.224m-154.436 5.659c-13.711 32.401-26.885 67.521-19.215 51.227 2.419-5.139 2.662-5.342 5.781-4.824 1.791.298 11.806 1.521 22.256 2.717 21 2.405 20.409 2.145 23.28 10.221 1.359 3.82 3.22 6.335 3.22 4.351 0-.755-21.252-60.044-24.481-68.296-.042-.108-1.871-.599-4.064-1.091l-3.987-.896-2.79 6.591m.034 6.841c-2.471 5.913-6.61 16.15-9.198 22.75-2.588 6.6-4.919 12.52-5.181 13.155-.573 1.395 1.685 1.907 16.667 3.781 17.026 2.13 25 2.859 25 2.287 0-.28-3.86-11.47-8.577-24.866-4.718-13.397-8.655-24.807-8.75-25.357-.243-1.402-1.879-2.467-3.821-2.485-1.156-.01-2.992 3.2-6.14 10.735m83.788-9.74c-6.6.372-12.788 1.02-13.75 1.44-3.809 1.663-1.341 2.55 7.093 2.55h8.842l.655 17.25c.359 9.487.655 24.145.657 32.573.003 14.055.148 15.296 1.753 14.985 1.633-.315 1.725-2.488 1.372-32.419l-.377-32.08 5.377-.646c2.958-.355 6.825-.65 8.593-.654 2.185-.006 3.557-.649 4.285-2.009 1.217-2.275-.477-2.343-24.5-.99m221.254 13.74c-5.054 11.533-4.77 12.25 4.847 12.25 5.415 0 5.435-.011 4.816-2.75-.688-3.048-6.072-15.25-6.728-15.25-.229 0-1.55 2.587-2.935 5.75m-151.012 14.967c-4.164 10.242-3.92 11.283 2.636 11.283 7.223 0 8.326-1.37 6.211-7.714-.878-2.632-2.607-6.039-3.843-7.569l-2.246-2.784-2.758 6.784m-151.041 2.055c-4.275 9.256-4.105 10.356 1.799 11.675 9.332 2.085 9.679 1.453 5.433-9.897-3.083-8.24-4.129-8.497-7.232-1.778" fill-rule="evenodd"/>
</svg>