<?xml version="1.0" encoding="UTF-8"?>
<!DOCTYPE svg PUBLIC "-//W3C//DTD SVG 1.1//EN" "http://www.w3.org/Graphics/SVG/1.1/DTD/svg11.dtd">
<!-- Creator: CorelDRAW 2017 -->
<svg xmlns="http://www.w3.org/2000/svg" xml:space="preserve" width="44.37mm" height="46.9052mm" version="1.1" style="shape-rendering:geometricPrecision; text-rendering:geometricPrecision; image-rendering:optimizeQuality; fill-rule:evenodd; clip-rule:evenodd"
viewBox="0 0 4437 4690.52"
 xmlns:xlink="http://www.w3.org/1999/xlink">
 <defs>
  <style type="text/css">
   <![CDATA[
    .str1 {stroke:#FEFEFE;stroke-width:167.49;stroke-linecap:round;stroke-linejoin:round;stroke-miterlimit:22.9256}
    .str0 {stroke:#FEFEFE;stroke-width:347.38;stroke-linecap:round;stroke-linejoin:round;stroke-miterlimit:22.9256}
    .str2 {stroke:#FEFEFE;stroke-width:301.99;stroke-linecap:round;stroke-linejoin:round;stroke-miterlimit:22.9256}
    .fil1 {fill:none}
    .fil2 {fill:black}
    .fil5 {fill:#00BCF2}
    .fil6 {fill:#D68F04}
    .fil0 {fill:#EF3A17}
    .fil3 {fill:#FEFEFE}
    .fil4 {fill:#FFC83D}
   ]]>
  </style>
 </defs>
 <g id="Capa_x0020_1">
  <metadata id="CorelCorpID_0Corel-Layer"/>
  <g id="_2145472211456">
   <g>
    <path class="fil0" d="M1907.96 2339.09c185.51,89 285.52,111.85 517.15,82.05 -155.82,-199.41 -277.32,-104.99 -517.15,-82.05z"/>
    <g>
     <path class="fil1 str0" d="M3474.36 1289.84c67.22,1579.81 -1671.01,1827.14 -2235.64,741.71 -329.02,-632.5 30.96,-1266.14 442.47,-1529.32 514.2,-328.87 1248.56,-160.25 1527.38,253.84 7.45,-7.01 61.47,-57.89 62.21,-58.46 63.2,-50.02 36.09,-28.12 105.97,-70.62 66.13,234.43 213.97,378.59 97.61,662.85zm-297.69 -814.59c-1456.05,-1149.69 -3024.31,955.55 -1773.36,2047.55 669.2,584.16 1498.52,340.92 1922.25,-139.66 295.33,-334.95 287.81,-619.16 349.94,-1113.38 55,-437.58 -182.41,-639.96 -268.19,-979.81 -10.94,7.63 -23.73,19.98 -30.64,25.79 -6.81,5.76 -22,18.45 -30.31,25.43 -10.33,8.68 -46.75,40.17 -57.8,49.24l-111.89 84.84z"/>
     <path id="1" class="fil2" d="M3474.36 1289.84c67.22,1579.81 -1671.01,1827.14 -2235.64,741.71 -329.02,-632.5 30.96,-1266.14 442.47,-1529.32 514.2,-328.87 1248.56,-160.25 1527.38,253.84 7.45,-7.01 61.47,-57.89 62.21,-58.46 63.2,-50.02 36.09,-28.12 105.97,-70.62 66.13,234.43 213.97,378.59 97.61,662.85zm-297.69 -814.59c-1456.05,-1149.69 -3024.31,955.55 -1773.36,2047.55 669.2,584.16 1498.52,340.92 1922.25,-139.66 295.33,-334.95 287.81,-619.16 349.94,-1113.38 55,-437.58 -182.41,-639.96 -268.19,-979.81 -10.94,7.63 -23.73,19.98 -30.64,25.79 -6.81,5.76 -22,18.45 -30.31,25.43 -10.33,8.68 -46.75,40.17 -57.8,49.24l-111.89 84.84z"/>
    </g>
    <path class="fil2" d="M1907.96 2339.09c239.83,-22.94 361.33,-117.36 517.15,82.05 283.49,-85.72 323.89,-132.64 460.03,-383.29l-1263.29 -170.04c44.88,291.12 110.24,302.75 286.11,471.28z"/>
    <path class="fil2" d="M1586.9 1423.49c96.28,-87.16 128.02,-157.46 315.44,-166.71 187.28,134.77 72.09,126.2 219.6,229.86 47.18,-563.88 -657.81,-386.55 -535.04,-63.15z"/>
    <path class="fil2" d="M2479.52 1525.78c206.42,-78.98 16.81,-163.34 352.48,-164.14 162.55,116.71 82.91,66.89 174.36,217.22 231.01,-271.19 -443.3,-608.32 -526.84,-53.08z"/>
    <path class="fil3" d="M2947.59 1836.61l-1340.31 -146.7c4.38,230.09 -108.33,148.94 618.94,228.21 743.5,81.02 647.43,156.76 721.37,-81.51z"/>
    <path class="fil4" d="M2425.11 2421.14c-231.63,29.8 -331.64,6.95 -517.15,-82.05 -175.87,-168.53 -241.23,-180.16 -286.11,-471.28l1263.29 170.04c-136.14,250.65 -176.54,297.57 -460.03,383.29zm-817.83 -731.23l1340.31 146.7c-73.94,238.27 22.13,162.53 -721.37,81.51 -727.27,-79.27 -614.56,1.88 -618.94,-228.21zm872.24 -164.13c83.54,-555.24 757.85,-218.11 526.84,53.08 -91.45,-150.33 -11.81,-100.51 -174.36,-217.22 -335.67,0.8 -146.06,85.16 -352.48,164.14zm-892.62 -102.29c-122.77,-323.4 582.22,-500.73 535.04,63.15 -147.51,-103.66 -32.32,-95.09 -219.6,-229.86 -187.42,9.25 -219.16,79.55 -315.44,166.71zm993.99 -428.38c-59.97,-204.38 22.21,-328.26 202.69,-436.07 45.43,177.67 129.1,286.68 28.61,476.23l-231.3 -40.16zm893.47 294.73c-143.16,53.88 -256.71,52.6 -407.07,-12.62 -44.14,-229 51.32,-338.16 141.28,-521.15 -278.82,-414.09 -1013.18,-582.71 -1527.38,-253.84 -411.51,263.18 -771.49,896.82 -442.47,1529.32 564.63,1085.43 2302.86,838.1 2235.64,-741.71z"/>
    <path class="fil5" d="M3185.06 748.16c-109.09,221.91 -224.85,354.28 -171.33,632 182.35,79.08 320.05,80.65 493.66,15.29 141.11,-344.71 -38.18,-519.53 -118.37,-803.82 -84.75,51.53 -51.87,24.98 -128.51,85.64 -0.9,0.69 -66.41,62.39 -75.45,70.89z"/>
    <path class="fil5" d="M2547.24 1038.04l280.49 48.71c121.87,-229.87 20.4,-362.06 -34.69,-577.53 -218.87,130.74 -318.53,280.97 -245.8,528.82z"/>
   </g>
   <g id="_2145472216064">
    <path class="fil6" d="M1116.97 2412.67c103.08,126.58 108.97,1.66 305.95,36.7 74.15,13.2 225.42,114.37 235.68,-1.57 12.09,-136.65 -422.86,-221.03 -541.63,-35.13z"/>
    <path class="fil6" d="M489.94 2893.99c136.84,-65.16 79.57,-90.99 171.1,-187.55 118.83,-125.34 170.63,-43.95 201.92,-205.45 -119.32,-38.45 -207.68,15.09 -311.44,120.6 -109.05,110.9 -144.99,159.29 -61.58,272.4z"/>
    <g>
     <path class="fil1 str1" d="M677.69 2278.74c1002.72,-694.18 1979.26,800.36 1050.52,1482.14 -969.96,712.03 -2079.53,-769.76 -1050.52,-1482.14zm-432.26 1201.42c220.29,489.56 845.07,748 1401.36,480.02 478.63,-230.56 740.82,-850.3 471.43,-1406.82 -573.32,-1184.42 -2452.78,-362.14 -1872.79,926.8z"/>
     <path id="1" class="fil2" d="M677.69 2278.74c1002.72,-694.18 1979.26,800.36 1050.52,1482.14 -969.96,712.03 -2079.53,-769.76 -1050.52,-1482.14zm-432.26 1201.42c220.29,489.56 845.07,748 1401.36,480.02 478.63,-230.56 740.82,-850.3 471.43,-1406.82 -573.32,-1184.42 -2452.78,-362.14 -1872.79,926.8z"/>
    </g>
    <path class="fil2" d="M1414.02 3637.17c274.79,-95.54 465.95,-305.93 407.8,-534.12 -279.58,78.15 95.42,189.46 -489.75,419.11 -202.44,79.47 -119.8,36.32 -113.75,161.7l195.7 -46.69z"/>
    <path class="fil2" d="M659.15 3201.95c38.24,-92.02 38.77,-151.02 155.99,-220.55l134.1 258.17 116.18 -69.69c33.32,-505.64 -660.88,-212.07 -406.27,32.07z"/>
    <path class="fil2" d="M1315.31 2977.54c117.42,-123.12 -42.99,-107.44 183.03,-233.97l129.45 262.68 116.82 -74.87c4.74,-419.32 -552.02,-358.78 -429.3,46.16z"/>
    <path class="fil4" d="M1414.02 3637.17l-195.7 46.69c-6.05,-125.38 -88.69,-82.23 113.75,-161.7 585.17,-229.65 210.17,-340.96 489.75,-419.11 58.15,228.19 -133.01,438.58 -407.8,534.12zm-98.71 -659.63c-122.72,-404.94 434.04,-465.48 429.3,-46.16l-116.82 74.87 -129.45 -262.68c-226.02,126.53 -65.61,110.85 -183.03,233.97zm-656.16 224.41c-254.61,-244.14 439.59,-537.71 406.27,-32.07l-116.18 69.69 -134.1 -258.17c-117.22,69.53 -117.75,128.53 -155.99,220.55zm-169.21 -307.96c-83.41,-113.11 -47.47,-161.5 61.58,-272.4 103.76,-105.51 192.12,-159.05 311.44,-120.6 -31.29,161.5 -83.09,80.11 -201.92,205.45 -91.53,96.56 -34.26,122.39 -171.1,187.55zm627.03 -481.32c118.77,-185.9 553.72,-101.52 541.63,35.13 -10.26,115.94 -161.53,14.77 -235.68,1.57 -196.98,-35.04 -202.87,89.88 -305.95,-36.7zm-439.28 -133.93c-1029.01,712.38 80.56,2194.17 1050.52,1482.14 928.74,-681.78 -47.8,-2176.32 -1050.52,-1482.14z"/>
   </g>
   <g>
    <path class="fil6" d="M2925 3571.11c131.66,35.6 -122.44,100.89 156.96,2.69 56.91,-20.01 76.33,-50.57 156.62,-72.06 57.01,272.37 -145.06,81.5 -93.07,336.49 166.87,-39.54 137.33,-116.85 272.75,-22.25 -56.52,127.75 -93.63,115.4 -229.34,195.64l28.86 86.42 299.22 -231.49c-56.12,-166.99 -120.6,-154.08 -153.08,-213.43 -52.13,-95.31 52.63,-72.05 -125.57,-241.76l-313.35 159.75z"/>
    <path class="fil6" d="M2915.46 3019.29c179.49,-18.99 70.46,-42.36 213.83,-150.08 129.77,-97.5 166.43,-24.49 278.45,-122.12 -77.11,-242.06 -554.05,-9.47 -492.28,272.2z"/>
    <path class="fil6" d="M2203.38 3580.91c143.87,-106.75 68.65,-109.34 101.32,-273.33 43.99,-220.61 112.08,-95.24 51.22,-330.59 -207.8,143.1 -294.42,397.75 -152.54,603.92z"/>
    <g>
     <path class="fil1 str2" d="M4025.48 3157.89c223.43,223.64 92.92,478.15 16.3,686.82 -57.89,3.21 -87.52,7.13 -150.2,5.26 -490.18,1026.42 -2107.51,481.83 -1914.28,-658.06 77.76,-458.78 460.55,-859.23 1045.93,-860.33 720.19,-1.36 883.59,658.74 1002.25,826.31zm121.91 865.05c108.44,-496.41 244.12,-612.17 71.86,-868.1 -180.71,-268.52 -323.14,-617.44 -609.94,-795.23 -442.22,-274.14 -1240.09,-266.15 -1629.53,395.99 -666,1132.33 785.1,2384.06 1791.13,1487.5 239.68,-213.6 87.2,-191.67 376.48,-220.16z"/>
     <path id="1" class="fil2" d="M4025.48 3157.89c223.43,223.64 92.92,478.15 16.3,686.82 -57.89,3.21 -87.52,7.13 -150.2,5.26 -490.18,1026.42 -2107.51,481.83 -1914.28,-658.06 77.76,-458.78 460.55,-859.23 1045.93,-860.33 720.19,-1.36 883.59,658.74 1002.25,826.31zm121.91 865.05c108.44,-496.41 244.12,-612.17 71.86,-868.1 -180.71,-268.52 -323.14,-617.44 -609.94,-795.23 -442.22,-274.14 -1240.09,-266.15 -1629.53,395.99 -666,1132.33 785.1,2384.06 1791.13,1487.5 239.68,-213.6 87.2,-191.67 376.48,-220.16z"/>
    </g>
    <path class="fil2" d="M2453.67 3373.81c3.67,165.37 17.14,197.31 175.81,270.62 113.97,-79.92 144.86,-95.41 52.26,-237.02 -86.83,-132.79 -143.05,-117.88 -228.07,-33.6z"/>
    <path class="fil2" d="M3124.39 3278.19c162.81,-174.99 3.86,-173.92 422.79,-247.47 -176.7,-228.1 -525.29,-37.49 -422.79,247.47z"/>
    <path class="fil4" d="M2925 3571.11l313.35 -159.75c178.2,169.71 73.44,146.45 125.57,241.76 32.48,59.35 96.96,46.44 153.08,213.43l-299.22 231.49 -28.86 -86.42c135.71,-80.24 172.82,-67.89 229.34,-195.64 -135.42,-94.6 -105.88,-17.29 -272.75,22.25 -51.99,-254.99 150.08,-64.12 93.07,-336.49 -80.29,21.49 -99.71,52.05 -156.62,72.06 -279.4,98.2 -25.3,32.91 -156.96,-2.69zm-471.33 -197.3c85.02,-84.28 141.24,-99.19 228.07,33.6 92.6,141.61 61.71,157.1 -52.26,237.02 -158.67,-73.31 -172.14,-105.25 -175.81,-270.62zm670.72 -95.62c-102.5,-284.96 246.09,-475.57 422.79,-247.47 -418.93,73.55 -259.98,72.48 -422.79,247.47zm-208.93 -258.9c-61.77,-281.67 415.17,-514.26 492.28,-272.2 -112.02,97.63 -148.68,24.62 -278.45,122.12 -143.37,107.72 -34.34,131.09 -213.83,150.08zm-712.08 561.62c-141.88,-206.17 -55.26,-460.82 152.54,-603.92 60.86,235.35 -7.23,109.98 -51.22,330.59 -32.67,163.99 42.55,166.58 -101.32,273.33zm1688.2 269.06c-125.78,-64.4 -198.08,-49.52 -297.69,-101.87 -51.02,-26.82 -85.3,-42.03 -114.17,-110.97 -113.48,-270.97 250.94,-306.37 271.42,-321.23 94.51,-68.59 87.06,-156.23 274.34,-158.01 -118.66,-167.57 -282.06,-827.67 -1002.25,-826.31 -585.38,1.1 -968.17,401.55 -1045.93,860.33 -193.23,1139.89 1424.1,1684.48 1914.28,658.06z"/>
    <path class="fil0" d="M3891.58 3849.97c62.68,1.87 92.31,-2.05 150.2,-5.26 76.62,-208.67 207.13,-463.18 -16.3,-686.82 -187.28,1.78 -179.83,89.42 -274.34,158.01 -20.48,14.86 -384.9,50.26 -271.42,321.23 28.87,68.94 63.15,84.15 114.17,110.97 99.61,52.35 171.91,37.47 297.69,101.87z"/>
   </g>
  </g>
 </g>
</svg>
