<?xml version="1.0" encoding="UTF-8"?>
<!DOCTYPE svg PUBLIC "-//W3C//DTD SVG 1.1//EN" "http://www.w3.org/Graphics/SVG/1.1/DTD/svg11.dtd">
<!-- Creator: CorelDRAW 2017 -->
<svg xmlns="http://www.w3.org/2000/svg" xml:space="preserve" width="44.37mm" height="46.9052mm" version="1.1" style="shape-rendering:geometricPrecision; text-rendering:geometricPrecision; image-rendering:optimizeQuality; fill-rule:evenodd; clip-rule:evenodd"
viewBox="0 0 4437 4690.52"
 xmlns:xlink="http://www.w3.org/1999/xlink">
 <defs>
  <style type="text/css">
   <![CDATA[
    .str0 {stroke:#FEFEFE;stroke-width:465.15;stroke-linecap:round;stroke-linejoin:round;stroke-miterlimit:22.9256}
    .fil1 {fill:none}
    .fil2 {fill:black}
    .fil5 {fill:#00BCF2}
    .fil0 {fill:#EF3A17}
    .fil3 {fill:#FEFEFE}
    .fil4 {fill:#FFC83D}
   ]]>
  </style>
 </defs>
 <g id="Capa_x0020_1">
  <metadata id="CorelCorpID_0Corel-Layer"/>
  <g id="_2145381064048">
   <path class="fil0" d="M1672.55 3464.45c248.4,119.17 382.31,149.77 692.47,109.86 -208.65,-267 -371.33,-140.58 -692.47,-109.86z"/>
   <g>
    <path class="fil1 str0" d="M3769.99 2059.48c90,2115.4 -2237.52,2446.58 -2993.56,993.17 -440.56,-846.93 41.46,-1695.38 592.48,-2047.79 688.51,-440.35 1671.83,-214.56 2045.17,339.9 9.98,-9.38 82.32,-77.51 83.31,-78.28 84.62,-66.98 48.32,-37.65 141.89,-94.55 88.55,313.9 286.51,506.93 130.71,887.55zm-398.61 -1090.74c-1949.68,-1539.46 -4049.6,1279.49 -2374.57,2741.7 896.07,782.19 2006.54,456.49 2573.93,-187 395.45,-448.52 385.38,-829.07 468.57,-1490.84 73.65,-585.92 -244.25,-856.91 -359.1,-1311.98 -14.66,10.22 -31.79,26.75 -41.04,34.54 -9.12,7.7 -29.45,24.7 -40.58,34.04 -13.83,11.62 -62.6,53.8 -77.39,65.94l-149.82 113.6z"/>
    <path id="1" class="fil2" d="M3769.99 2059.48c90,2115.4 -2237.52,2446.58 -2993.56,993.17 -440.56,-846.93 41.46,-1695.38 592.48,-2047.79 688.51,-440.35 1671.83,-214.56 2045.17,339.9 9.98,-9.38 82.32,-77.51 83.31,-78.28 84.62,-66.98 48.32,-37.65 141.89,-94.55 88.55,313.9 286.51,506.93 130.71,887.55zm-398.61 -1090.74c-1949.68,-1539.46 -4049.6,1279.49 -2374.57,2741.7 896.07,782.19 2006.54,456.49 2573.93,-187 395.45,-448.52 385.38,-829.07 468.57,-1490.84 73.65,-585.92 -244.25,-856.91 -359.1,-1311.98 -14.66,10.22 -31.79,26.75 -41.04,34.54 -9.12,7.7 -29.45,24.7 -40.58,34.04 -13.83,11.62 -62.6,53.8 -77.39,65.94l-149.82 113.6z"/>
   </g>
   <path class="fil2" d="M1672.55 3464.45c321.14,-30.72 483.82,-157.14 692.47,109.86 379.61,-114.77 433.69,-177.59 615.99,-513.22l-1691.57 -227.69c60.1,389.81 147.62,405.38 383.11,631.05z"/>
   <path class="fil2" d="M1242.64 2238.45c128.93,-116.71 171.42,-210.84 422.39,-223.23 250.76,180.45 96.53,168.99 294.04,307.79 63.18,-755.05 -880.81,-517.6 -716.43,-84.56z"/>
   <path class="fil2" d="M2437.88 2375.41c276.4,-105.75 22.51,-218.71 471.97,-219.78 217.67,156.27 111.02,89.57 233.47,290.85 309.33,-363.11 -593.58,-814.54 -705.44,-71.07z"/>
   <path class="fil3" d="M3064.63 2791.62l-1794.7 -196.43c5.87,308.09 -145.05,199.43 828.78,305.57 995.55,108.49 866.92,209.91 965.92,-109.14z"/>
   <path class="fil4" d="M2365.02 3574.31c-310.16,39.91 -444.07,9.31 -692.47,-109.86 -235.49,-225.67 -323.01,-241.24 -383.11,-631.05l1691.57 227.69c-182.3,335.63 -236.38,398.45 -615.99,513.22zm-1095.09 -979.12l1794.7 196.43c-99,319.05 29.63,217.63 -965.92,109.14 -973.83,-106.14 -822.91,2.52 -828.78,-305.57zm1167.95 -219.78c111.86,-743.47 1014.77,-292.04 705.44,71.07 -122.45,-201.28 -15.8,-134.58 -233.47,-290.85 -449.46,1.07 -195.57,114.03 -471.97,219.78zm-1195.24 -136.96c-164.38,-433.04 779.61,-670.49 716.43,84.56 -197.51,-138.8 -43.28,-127.34 -294.04,-307.79 -250.97,12.39 -293.46,106.52 -422.39,223.23zm1330.98 -573.61c-80.31,-273.66 29.73,-439.55 271.39,-583.91 60.84,237.92 172.87,383.88 38.32,637.69l-309.71 -53.78zm1196.37 394.64c-191.7,72.16 -343.74,70.44 -545.08,-16.89 -59.1,-306.64 68.71,-452.8 189.17,-697.83 -373.34,-554.46 -1356.66,-780.25 -2045.17,-339.9 -551.02,352.41 -1033.04,1200.86 -592.48,2047.79 756.04,1453.41 3083.56,1122.23 2993.56,-993.17z"/>
   <path class="fil5" d="M3382.61 1334.17c-146.08,297.14 -301.08,474.39 -229.41,846.26 244.16,105.89 428.54,107.98 661.01,20.48 188.95,-461.58 -51.13,-695.67 -158.5,-1076.33 -113.48,69 -69.45,33.44 -172.08,114.66 -1.19,0.94 -88.92,83.55 -101.02,94.93z"/>
   <path class="fil5" d="M2528.56 1722.33l375.58 65.22c163.18,-307.8 27.31,-484.81 -46.46,-773.32 -293.06,175.06 -426.51,376.23 -329.12,708.1z"/>
  </g>
 </g>
</svg>
