
<svg version="1.1" xmlns="http://www.w3.org/2000/svg" width="32" height="32" viewBox="0 0 32 32">
<title>dragon-ball</title>
<path fill="#dcd9d5" d="M2.763 19.74c0.442 0.143 0.587 0.322 1.316 0.356 0.148 0.007 0.411-0.070 0.525 0.008-0.118 0.148-0.862 0.089-1.060 0.040-0.215-0.054-0.74-0.237-0.781-0.405zM5.002 20.055c0.039-0.113 0.026-0.082 0.145-0.123 0.107-0.037 0.316-0.184 0.482-0.237-0.022 0.189-0.404 0.345-0.627 0.36zM2.495 18.070c-0.024 0.048-0.044 0.065-0.117 0.080-0.145 0.030-0.373-0.005-0.468-0.094 0.024-0.019-0.029-0.005 0.048-0.027l0.187-0.011c0.089-0.001 0.178 0.001 0.267 0 0.198-0.055 0.314-0.232 0.431-0.345 0.022 0.162-0.208 0.387-0.348 0.397zM1.777 17.749c-0.222-0.040-0.417-0.29-0.413-0.58 0.004-0.288 0.161-0.517 0.386-0.575 0.496-0.133 0.941 0.065 0.946 0.576 0.004 0.433-0.521 0.789-0.919 0.579zM3.163 18.020c-0.014-0.234 0.452-0.578 0.585-0.726 0.075-0.084 0.568-0.693 0.698-0.555 0.14 0.148-0.489 0.635-0.557 0.697-0.155 0.14-0.462 0.599-0.726 0.585zM2.952 16.969c-0.048-0.052-0.092-0.218-0.137-0.292-0.259-0.425-0.689-0.361-0.823-0.429 0.3-0.032 0.553-0.021 0.724 0.155 0.102 0.105 0.356 0.353 0.237 0.567zM4.899 17.135l0.005-0.084c-0.295-0.259-0.201-0.241-0.158-0.377-0.229-0.010-0.369 0.026-0.531-0.111l-0.374-0.431c-0.046-0.033-0.028-0.003-0.058-0.068-0.016-0.036-0.013-0.039-0.019-0.077-0.064-0.061-0.029-0.063-0.068-0.131-0.037-0.065-0.033-0.032-0.092-0.085-0.068-0.062-0.081-0.128-0.157-0.197-0.066-0.060-0.394-0.261-0.253-0.392 0.13-0.107 0.369 0.227 0.429 0.308l0.017-0.137c0.017-0.122-0.036-0.315 0.044-0.403 0.102 0.015 0.041-0.007 0.075 0.049l1.195 0.936c0.155 0.067 0.218-0.104 0.305-0.185 0.098-0.091 0.143-0.185 0.266-0.23l-0.017-0.081-0.017-0.121 0.085 0.020 0.052 0.038c0.068-0.036 0.199-0.154 0.226-0.224-0.053-0.028-0.034-0.013-0.082-0.070-0.055-0.082-1.074-0.535-1.25-0.562-0.575-0.086-1.063 0.069-1.571 0.205-0.574 0.154-1.308 0.658-1.559 1.18-0.047 0.097-0.107 0.216-0.121 0.338-0.048 0.416 0.052 0.238 0.115 0.276-0.044 0.177-0.134 0.229-0.165 0.495-0.013 0.111 0.042 0.605 0.038 0.612-0.045 0.084-0.11-0.106-0.091 0.211 0.014 0.228 0.112 0.634 0.216 0.841 0.676 1.335 2.273 1.972 3.695 1.501 0.549-0.182 1.341-0.798 1.417-1.333l-2.446-1.229 0.849-0.483z"></path>
<path fill="#352f35" d="M22.467 18.244c-0.121-0.099-0.137-0.438 0.019-0.429 0.12 0.007 0.176 0.368-0.019 0.429zM27.826 17.999l0.023 0.329 0.127 0.122c-0.179 0.407-0.968 0.028-0.662-0.901 0.037-0.148 0.086-0.22 0.207-0.259 0.018-0.053 0.020-0.054 0.106-0.068 0.050-0.008 0.082-0.006 0.127 0.002l0.002 0.073c0.151 0.081 0.015 0.513 0.193 0.355 0.001-0.062 0.029-0.131 0.077-0.165 0.051 0.035 0.095 0.067 0.079 0.155 0.082 0.057 0.064 0.087 0.053 0.195-0.099-0.017-0.041-0.054-0.197-0.030 0.052 0.11 0.046 0.016 0.118 0.098 0.034 0.038 0.041 0.098 0.045 0.152 0.008 0.12-0.027 0.233-0.137 0.249-0.099-0.058-0.089-0.173-0.1-0.316l-0.060 0.009zM21.797 18.312c-0.007-0.232-0.4-0.557 0.355-0.616l0.255-0.055c0.1-0.005 0.173-0.011 0.245 0.039l0 0.1c-0.074-0.015-0.111-0.051-0.166-0.076-0.118 0.040-0.192 0.175-0.182 0.351 0.017 0.284 0.145 0.166 0.166 0.354l-0.080 0.063c-0.243 0.18-0.447 0.108-0.595-0.161zM21.728 17.672c-0.011-0.258 0.159-0.553 0.377-0.589 0.251-0.042 0.489 0.24 0.48 0.479-0.172 0.016-0.287-0.011-0.458 0.036-0.123 0.033-0.27 0.073-0.399 0.075zM28.211 17.436c-0.054-0.027-0.127-0.099-0.149-0.162-0.014-0.041-0.012-0.099-0.012-0.145l0.016-0.123c0.055 0.022 0.037-0.005 0.070 0.074 0.041 0.097 0.071 0.249 0.076 0.356zM20.263 20.074c-0.228-0.1-0.311-0.561-0.52-0.487-0.223 0.080-0.304 0.442-0.551 0.476-0.055-0.188-0.099-2.046-0.043-2.165 0.085 0.005 0.063-0.009 0.11 0.041l0.2 0.022c0.057-0.499-0.281-0.495-0.001-1.081 0.157-0.328 0.347-0.538 0.6-0.72 0.771-0.555 1.296 0.763 1.484 0.887 0.259-0.227 0.233-0.936 0.362-1.060 0.328-0.148 1.038 0.783 0.834 1.471-0.156-0.19-0.394-0.738-0.828-0.413-0.7 0.525-0.186 1.987 0.505 1.529 0.141-0.093 0.238-0.228 0.298-0.431 0.092-0.312-0.006-0.438 0.018-0.629 0.331 0.14 0.215 0.735 0.211 1.153-0.002 0.218 0.009 1.208-0.040 1.34-0.263 0.019-0.386-0.605-0.677-0.424-0.17 0.106-0.345 0.636-0.625 0.485-0.198-0.107-0.393-0.57-0.672-0.481-0.253 0.080-0.397 0.549-0.664 0.487zM21.118 13.719c0.097 0.17 0.383 0.521 0.437 0.755 0.115 0.062 0.088-0.059 0.080-0.198-0.006-0.11-0.014-0.224-0.016-0.336 0.082 0.021 0.181 0.168 0.214 0.247 0.032 0.035 0.13 0.176 0.148 0.223 0.076 0.1 0.285 0.533 0.298 0.644 0.054 0.051 0.063 0.12 0.080 0.195 0.014 0.064 0.020 0.142 0.051 0.177 0.224-0.219-0.025-0.801 0.059-0.955 0.13 0.085 0.292 0.451 0.319 0.669l0.084 0.346 0.043 0.127c0.034 0.261 0.033 0.868 0.086 0.934 0.064-0.024 0.039-0.014 0.072-0.096 0.018-0.046 0.033-0.079 0.045-0.131 0.021-0.090 0.023-0.191 0.082-0.256l0.038 0.247c0.001 0.149 0.004 0.308-0.026 0.457-0.023 0.117-0.086 0.232-0.115 0.354-0.023 0.097-0.043 0.121-0.082 0.197-0.046 0.091-0.020 0.152-0.055 0.219-0.178-0.060 0.096-0.387-0.116-0.807-0.25-0.388-0.355-0.652-0.73-0.867-0.538-0.308-0.381 0.608-0.571 0.884-0.284-0.131-0.736-1.254-1.515-0.718-0.218 0.15-0.513 0.421-0.638 0.645-0.247 0.442-0.168 0.548-0.082 1.019 0.036 0.053 0.031 0.037 0.020 0.117-0.271-0.011-0.713-0.37-0.702-0.618 0.152 0.030 0.174 0.077 0.362 0.078-0.072-0.113-0.189-0.16-0.285-0.284-0.2-0.258-0.442-0.874-0.445-1.203 0.062 0.015 0.238 0.207 0.298 0.267 0.087 0.085 0.151 0.185 0.318 0.204 0.010-0.185-0.175-0.616-0.204-0.868-0.020-0.172-0.016-0.37-0.014-0.544 0.002-0.145-0.040-0.403 0.084-0.447 0.044 0.033 0.258 0.584 0.486 0.616 0.046-0.241-0.067-0.717 0.024-0.918l0.108-0.568c0.063-0.265 0.508-1.025 0.664-1.11 0.014 0.115 0.012 0.2 0.013 0.32 0.001 0.238 0.167 0.663 0.179 0.794l-0.003 0.013c0.109 0.082 0.428 0.688 0.645 0.728 0.012-0.282-0.105-0.65-0.083-0.86 0.131 0.041 0.278 0.196 0.342 0.306zM28.814 13.799c-0.013 0.055-0.994 0.8-0.989 1.208l0.003 0.271c0.028 0.010 0.47-0.432 0.573-0.51 0.212-0.161 0.407-0.304 0.739-0.384 0.419-0.101 1.495 0.398 1.549 0.622l-0.259 0.048c-0.417 0.072-1.264 0.809-1.346 1.129l0.098-0.006c0.136-0.035 0.291-0.073 0.421-0.091 0.211-0.029 0.294 0.025 0.461 0.036 0.115 0.014 0.241 0.065 0.342 0.104 0.106 0.042 0.22 0.074 0.235 0.176-0.103 0.056-0.376 0.099-0.522 0.144-0.384 0.117-1.086 0.5-1.145 0.865l0.155-0.005 0.033-0.002c0.186-0.015 0.289-0.019 0.473 0.008 0.080 0.014 0.088 0.006 0.123 0.074-0.035 0.020-1.102 0.182-1.116 0.173-0.072-0.061-0.054-0.354-0.087-0.471-0.142 0.074-0.049 0.212-0.196 0.246-0.014-0.026-0.23-0.924-0.503-0.944-0.004 0.228 0.123 0.318 0.053 0.648-0.129-0.012-0.12-0.087-0.193-0.173-0.070-0.083-0.124-0.091-0.164-0.193l-0.393-0.208c-0.327-0.085-0.393-0.372-0.731-0.141-0.178 0.121-0.457 0.371-0.531 0.564l-0.003 0.145c0.115-0.023 0.046-0.035 0.128-0.094 0.036-0.145 0.5-0.635 0.78-0.5 0.241 0.117 0.792 0.308 0.846 0.553-0.115 0.104-0.199 0.031-0.308 0.203-0.075 0.117-0.147 0.189-0.187 0.345-0.181 0.71 0.381 1.37 0.822 0.979 0.372-0.33 0.194-0.547 0.326-0.741 0.019-0.060 0.077-0.168 0.137-0.191 0.054 0.094 0.033 2.11-0.010 2.304-0.088 0.133-0.337-0.267-0.405-0.337-0.215-0.219-0.361 0.045-0.465 0.183-0.468 0.622-0.522-0.121-0.92-0.223-0.444-0.113-0.525 0.837-0.946 0.281-0.107-0.142-0.192-0.436-0.434-0.269-0.173 0.119-0.26 0.4-0.461 0.403l-0.034-2.438 0.056-0.003 0.328 0.433 0.036-0.027c0.023-0.245-0.090-0.465 0.024-0.703 0.071-0.147 0.2-0.426 0.313-0.481l0.131 0.281c0.083 0.069 0.031 0.1 0.131 0.145l-0.015-0.111-0.189-0.553c-0.326 0.189-0.555 0.962-0.637 0.997l-0.206-0.485-0.118 0.526c-0.175 0.062-0.573 0.172-0.681-0.038l0.46-0.363-0.025-0.032c-0.341-0.018-0.762-0.037-0.876-0.323 0.116-0.391 1.048-0.283 1.174-0.374-0.094-0.118-0.433-0.105-0.475-0.335 0.558-0.194 0.387 0.292 0.756-0.392 0.142-0.263 0.287-0.416 0.664-0.461l0.129-0.006c0.124-0.096 0.438-0.048 0.605-0.071 0.13-0.065 0.747-1.591 2.021-1.615l-0 0.011c0.005-0.003 0.012-0.007 0.016-0.009l0.097-0.031c0.189-0.033 0.588-0.099 0.743-0.064-0.018 0.057-0.031 0.053-0.086 0.088-0.107 0.066-0.237 0.172-0.326 0.204zM31.042 16.526v-0.038c-0.229-0.185-0.331-0.273-0.68-0.411-0.136-0.054-0.868-0.169-0.885-0.184-0.014-0.154 0.507-0.463 0.622-0.532 0.267-0.16 0.807-0.186 0.921-0.259-0.002-0.237-1-0.762-1.319-0.827-0.901-0.183-1.325 0.432-1.581 0.495 0.141-0.535 1.444-1.267 1.488-1.385-0.383-0.119-1.518 0.062-1.872 0.206-0.413 0.168-0.95 0.701-1.14 0.988-0.218 0.329-0.129 0.469-0.58 0.486-0.545 0.021-0.434 0.076-0.818 0.243-0.285 0.124-0.302 0.339-0.46 0.605-0.197 0.331-0.709-0.081-0.858 0.026l0.33 0.458-0.869 0.32-0.15-1.41-0.066 0.006-0.040 0.406c-0.124-0.098-0.319-1.541-0.839-1.655l0.123 0.633-0.039 0.008c-0.102-0.049-0.547-1.055-0.986-1.163l0.142 0.407c-0.131 0.046-0.535-0.858-0.982-0.871l0.263 0.882-0.052 0.016c-0.163-0.039-0.437-0.568-0.494-0.802-0.126-0.517-0.022-0.679-0.033-1.162h-0.034c-0.218 0.329-0.474 0.522-0.779 1.125-0.45 0.888-0.202 1.135-0.256 1.598-0.261-0.063-0.295-0.728-0.396-0.768-0.154 0.056-0.208 0.753-0.202 0.961 0.009 0.298 0.155 0.891 0.141 1.038-0.3-0.045-0.435-0.661-0.6-0.833-0.061 0.376 0.215 1.215 0.368 1.588 0.102 0.249-0.039 0.026-0.012 0.282 0.024 0.227 0.151 0.427 0.256 0.555 0.471 0.574 0.329 0.245 0.33 1.211 0 0.368-0.059 1.228 0.153 1.431 0.273 0.034 0.441-0.418 0.631-0.477 0.198 0.098 0.222 0.543 0.582 0.495 0.296-0.039 0.435-0.441 0.64-0.491 0.232 0.073 0.404 0.488 0.675 0.512 0.355 0.031 0.412-0.463 0.665-0.515 0.142 0.053 0.4 0.583 0.607 0.444 0.208-0.088 0.139-1.325 0.139-1.636 0-0.69-0.064-1.009 0.2-1.595l0.767 0.395-0.298 0.208c0.072 0.299 0.568 0.236 0.84 0.277 0.060 0.198 0.038 1.479 0.038 1.798-0.003 1.251 0.526 0.15 0.785 0.141 0.132 0.128 0.227 0.57 0.595 0.458 0.222-0.068 0.404-0.517 0.625-0.426 0.132 0.054 0.343 0.484 0.624 0.452 0.295-0.034 0.409-0.434 0.598-0.5 0.23 0.1 0.691 1.070 0.737-0.121 0.016-0.406-0.046-1.471 0.025-1.786l1.466-0.267c-0.050-0.296-0.604-0.278-0.788-0.352 0.049-0.217 0.452-0.398 0.713-0.49 0.35-0.124 0.787-0.113 1.020-0.195z"></path>
<path fill="#316b41" d="M8.486 19.060c-0-0.143-0-0.297 0.103-0.349 0.047 0.117 0.048 0.323 0.047 0.467-0.001 0.096 0.008 0.354-0.065 0.429-0.059-0.026-0.050-0.007-0.062-0.094l-0.022-0.454zM11.941 19.795c-0.138-0.055-0.042-0.102-0.043-0.261l0.011-0.736c0.006-0.252-0.031-0.27 0.071-0.295 0.055 0.121 0.009 0.513 0.004 0.676-0.005 0.155 0.076 0.527-0.043 0.616zM9.774 17.243c0.655-0.274 0.937 1.387 0.225 1.532-0.656 0.133-1.059-1.182-0.225-1.532zM11.305 17.237c0.676-0.090 0.82 1.413 0.092 1.537-0.674 0.114-0.867-1.434-0.092-1.537zM8.709 17.081c-0.017-0.035-0.035-0.114 0.004-0.262 0.016-0.062 0.245-0.46 0.404-0.433l-0.208 0.332c-0.138 0.228-0.093 0.328-0.2 0.362zM12.002 17.424l-0.003 0.217c-0.078-0.057-0.075-0.14-0.101-0.25-0.036-0.156-0.264-0.717-0.268-0.775l0.096 0.048-0.16-0.272c-0.048 0.026-0.088 0.147-0.114 0.199l-0.023-0.011c-0.241-0.402 0.743-0.932 1.314-0.888l0.203 0.179 0.027-0.030c-0.008-0.402-0.872-0.128-1.071-0.010-0.249 0.148-0.655 0.5-0.949 0.421l0.22-0.148c-0.225-0.132-1.132-0.399-1.375-0.155l0.059 0.284c-0.318-0.187-0.156-0.516 0.026-0.785 0.201-0.298 0.462-0.432 0.569-0.585-0.607 0.129-0.84 1.269-1.191 1.614l-0.045-0.018 0.186-0.414c-0.298 0.052-0.607 0.448-0.732 0.692-0.377 0.737 0.069 0.393 0.155 0.884l-0.723-0.606c0.047 0.345 0.678 0.584 0.556 1.228-0.228-0.137 0.045-0.25-0.153-0.494-0.125-0.154-0.146-0.276-0.321-0.373-0.012 0.081 0.033 0.107 0.024 0.186-0.016 0.137-0.017-0.015-0.093 0.022 0.042 0.221 0.056 0.566 0.202 0.688 0.127 0.105 0.473 0.214 0.498 0.396-0.081-0.029-0.332-0.141-0.401-0.131l0.031 1.455c0.262-0.022 0.466-0.747 0.769-0.272 0.265 0.415 0.371 0.411 0.679 0.031 0.286-0.354 0.628 0.097 0.79 0.236 0.276 0.237 0.603-0.24 0.68-0.412 0.407 0.007 0.412 0.457 0.68 0.458l-0.040-2.606z"></path>
<path fill="#ca8358" d="M22.783 18.452l0.096-0.001c0.043 0.108 0.022 0.934 0.022 1.163-0 0.154-0.003 0.234-0.157 0.248-0.102-0.103-0.092-0.148-0.041-0.268 0.046-0.109 0.025-0.268 0.024-0.394-0.001-0.152-0.009-0.651 0.056-0.747zM19.276 19.396c0.038 0.103 0.035 0.233 0.005 0.338-0.014-0.009-0.063 0.021-0.063-0.162-0-0.099 0.009-0.134 0.058-0.176zM20.462 16.969c0.668-0.244 1.012 1.497 0.176 1.681-0.694 0.153-1.028-1.37-0.176-1.681zM19.259 17.939l-0.103-0.005 0.040 0.526c0.050-0.074-0.002-0.103 0.079-0.135 0.092 0.17 0.045 0.738 0.003 0.936-0.073-0.051-0.044-0.123-0.067-0.239-0.066 0.105-0.034 0.831-0.007 0.997 0.212-0.021 0.324-0.433 0.547-0.471 0.168-0.028 0.22 0.119 0.287 0.227 0.128 0.209 0.202 0.235 0.227 0.298 0.267 0.061 0.41-0.407 0.664-0.487 0.28-0.089 0.475 0.374 0.672 0.481 0.28 0.151 0.454-0.378 0.625-0.485 0.291-0.182 0.414 0.443 0.677 0.424 0.049-0.132 0.038-1.122 0.040-1.34 0.004-0.418 0.12-1.013-0.211-1.153-0.024 0.191 0.074 0.317-0.018 0.629-0.060 0.202-0.157 0.337-0.298 0.431-0.691 0.458-1.205-1.004-0.505-1.529 0.434-0.326 0.672 0.222 0.828 0.413 0.204-0.688-0.506-1.618-0.834-1.471-0.129 0.124-0.103 0.833-0.362 1.060-0.187-0.124-0.713-1.442-1.484-0.887-0.253 0.182-0.443 0.393-0.6 0.72-0.28 0.586 0.057 0.582 0.001 1.081l-0.2-0.022z"></path>
<path fill="#0d65a8" d="M19.36 13.527l-0.108 0.568 0.019 0.965c-0.251-0.017-0.383-0.356-0.462-0.479-0.049-0.076 0.006-0.065-0.071-0.040-0.073 0.033-0.042 0.314-0.042 0.462 0 0.197 0.004 0.299 0.032 0.482 0.037 0.237 0.208 0.635 0.182 0.826-0.268-0.013-0.396-0.339-0.573-0.388-0.006 0.3 0.243 0.893 0.442 1.111 0.078 0.086 0.253 0.156 0.278 0.25-0.165 0.052-0.231-0.005-0.379-0.028 0.039 0.202 0.385 0.521 0.638 0.525l-0.006-0.084c-0.086-0.471-0.165-0.578 0.082-1.019 0.125-0.225 0.42-0.496 0.638-0.645 0.779-0.535 1.231 0.587 1.515 0.718 0.19-0.276 0.033-1.191 0.571-0.884 0.375 0.214 0.48 0.479 0.73 0.867 0.118 0.023 0.088 0.156 0.135 0.24 0.041-0.021 0.050-0.042 0.071-0.069l-0-0.22-0.127-0.040-0.009-0.362c-0.053-0.030-0.088 0.055-0.109-0.12-0.011-0.096-0.007-0.196-0.005-0.293 0.011-0.079-0.037-0.362-0.052-0.465-0.019-0.133-0.072-0.26-0.102-0.388l-0.073-0.059-0.113 0.569c-0.296-0.006-0.287-0.358-0.318-0.417-0.027-0.054-0.065-0.084-0.099-0.137-0.050-0.079-0.169-0.592-0.335-0.637l-0.026 0.238c-0.189 0.058-0.216-0.024-0.307-0.135-0.242-0.294-0.231-0.478-0.333-0.612-0.067-0.089-0.137-0.195-0.207-0.265 0.025 0.251 0.083 0.523 0.057 0.798l-0.063 0.012c-0.005 0.046-0.004 0.046-0.024 0.073-0.104-0.065-0.188-0.169-0.281-0.257-0.075-0.070-0.222-0.201-0.266-0.299-0.086-0.047-0.14-0.195-0.194-0.306-0.056-0.114-0.071-0.262-0.116-0.362-0.12-0.059-0.050-0.448-0.025-0.539l0.063 0.019c0.038-0.065 0.017-0.088 0.002-0.163-0.11 0.026-0.143 0.129-0.203 0.224-0.054 0.085-0.101 0.156-0.152 0.241-0.099 0.165-0.195 0.454-0.274 0.527z"></path>
<path fill="#ca8358" d="M24.885 19.003c-0.034-0.186-0.069-0.854 0.006-1.008 0.021 0.021 0.008-0.029 0.031 0.047l0.007 0.466c0 0.092-0.001 0.184-0.001 0.276 0 0.127 0.018 0.169-0.044 0.219zM26.024 17.037l0.002 0.062c0.208 0.013 0.378 0.009 0.449 0.173 0.33 0.377 0.286 1.076-0.076 1.363-0.485 0.384-0.885-0.324-0.855-0.849 0.020-0.131 0.064-0.255 0.125-0.354 0.091-0.148 0.021-0.193-0.014-0.343l-0.131-0.281c-0.113 0.055-0.242 0.334-0.313 0.481-0.115 0.237-0.001 0.458-0.024 0.703l-0.036 0.027-0.328-0.433-0.056 0.003 0.034 2.438c0.201-0.003 0.288-0.284 0.461-0.403 0.242-0.167 0.326 0.127 0.434 0.269 0.421 0.556 0.502-0.394 0.946-0.281 0.398 0.101 0.451 0.844 0.92 0.223 0.104-0.138 0.251-0.402 0.465-0.183 0.068 0.070 0.317 0.47 0.405 0.337-0.13-0.006-0.24-0.175-0.294-0.278 0.195-0.369-0.032-1.037 0.131-1.089l-0.006-0.047c0.007-0.193-0.025-0.122 0.119-0.164 0.015-0.104 0.036-0.44-0.020-0.508-0.057 0.076-0.029 0.335-0.103 0.437-0.017-0.083 0.030-0.128 0.040-0.208 0.009-0.068 0.005-0.184 0.005-0.256-0.132 0.194 0.045 0.412-0.326 0.741-0.44 0.391-1.003-0.269-0.822-0.979 0.040-0.156 0.112-0.228 0.187-0.345 0.109-0.172 0.193-0.099 0.308-0.203-0.054-0.245-0.605-0.436-0.846-0.553-0.28-0.135-0.744 0.354-0.78 0.5z"></path>
<path fill="#cf3539" d="M28.272 15.101l-1.334 1.253 0.025 0.034 0.198 0.175 0.393 0.208c0.154 0.039 0.184 0.184 0.314 0.216 0.029-0.253-0.144-0.425-0.095-0.659 0.078 0.026 0.191 0.125 0.229 0.174 0.393 0.519 0.233 0.564 0.395 0.823 0.091-0.098 0.019-0.202 0.181-0.215 0.105 0.13 0.026 0.324 0.068 0.483 0.127 0.041 0.677-0.079 0.801-0.124l-0.295-0.012 0.012-0.054-0.033 0.002c-0.047 0.054-0.136 0.085-0.216 0.060-0.063-0.127 0.183-0.36 0.236-0.412 0.257-0.252 0.501-0.4 0.857-0.522 0.093-0.032 0.481-0.122 0.518-0.149-0.014-0.071-0.018-0.059-0.084-0.091-0.048-0.023-0.081-0.037-0.129-0.058-0.073 0.074-0.16 0.038-0.295 0.009-0.568-0.119-0.676 0.044-0.862 0.012 0-0.048 0.005-0.041 0.028-0.078l-0.098 0.006c0.082-0.32 0.929-1.057 1.346-1.129l0.181-0.102-0.258-0.165c-0.047 0.093-0.161-0.020-0.243-0.056-0.091-0.040-0.183-0.059-0.268-0.106-0.151-0.084-0.445-0.096-0.656-0.076-0.284 0.028-0.827 0.402-0.916 0.553z"></path>
<path fill="#352f35" d="M12.217 18.351l-0.016-0.65c0.098 0.063 0.042 0.134 0.158 0.176-0.001-0.175-0.179-0.344 0.197-0.641 0.126 0.112 0.045 0.189-0.126 0.54-0.106 0.218-0.043 0.103-0.059 0.317-0.007 0.092-0.095 0.227-0.154 0.257zM11.726 16.664c0.088 0.127 0.245 0.563 0.276 0.76l0.040 2.606c-0.268-0.001-0.274-0.45-0.68-0.458-0.077 0.172-0.404 0.65-0.68 0.412-0.162-0.139-0.504-0.589-0.79-0.236-0.308 0.38-0.414 0.384-0.679-0.031-0.303-0.475-0.507 0.25-0.769 0.272l-0.031-1.455c0.068-0.010 0.32 0.102 0.401 0.131-0.025-0.182-0.371-0.291-0.498-0.396-0.146-0.122-0.161-0.467-0.202-0.688 0.076-0.037 0.077 0.114 0.093-0.022 0.009-0.079-0.035-0.105-0.024-0.186 0.175 0.096 0.197 0.219 0.321 0.373 0.198 0.244-0.076 0.357 0.153 0.494 0.122-0.644-0.509-0.883-0.556-1.228l0.723 0.606c-0.086-0.492-0.531-0.147-0.155-0.884 0.125-0.244 0.435-0.641 0.732-0.692l-0.186 0.414 0.045 0.018c0.351-0.345 0.583-1.485 1.191-1.614-0.106 0.153-0.368 0.287-0.569 0.585-0.182 0.27-0.345 0.598-0.026 0.785l-0.059-0.284c0.243-0.244 1.15 0.023 1.375 0.155l-0.22 0.148c0.294 0.078 0.7-0.273 0.949-0.421 0.199-0.118 1.063-0.392 1.071 0.010l-0.027 0.030-0.203-0.179c-0.571-0.044-1.555 0.486-1.314 0.888l0.023 0.011c0.026-0.052 0.066-0.172 0.114-0.199l0.16 0.272zM10.709 14.754c0.095-0.102 0.293-0.080 0.285 0.031-0.012 0.16-0.257-0.012-0.285-0.031zM7.487 16.397c0.034 0.519 0.503 0.949 0.588 1.563 0.052 0.373 0.159 0.387 0.187 0.547 0.066 0.375-0.039 0.971 0.001 1.398 0.065 0.689 0.601-0.131 0.761-0.179 0.16 0.133 0.262 0.558 0.597 0.464 0.259-0.073 0.395-0.535 0.638-0.397 0.165 0.094 0.36 0.474 0.612 0.456 0.261-0.018 0.411-0.361 0.576-0.495 0.121 0.049 0.703 0.882 0.75 0.153 0.019-0.299-0.060-1.216 0.067-1.392 0.142-0.198 0.221-0.174 0.219-0.503-0.001-0.165 0.142-0.386 0.215-0.521 0.114-0.209 0.552-0.844 0.302-1.099l-0.836 0.821c-0.012-0.011-0.244-0.56-0.325-0.672-0.234-0.324-0.161-0.361 0.114-0.563 0.111-0.082 0.575-0.297 0.725-0.199 0.065 0.043 0.134 0.223 0.308 0.15 0.152-0.064 0.096-0.245-0.008-0.312-0.465-0.301-1.16 0.134-1.481 0.32-0.241 0.139-0.342-0.043-0.672-0.138-0.368-0.106-0.564-0.047-0.939-0.072 0.016-0.277 0.596-0.906 0.841-0.839 0.107 0.029 0.316 0.154 0.357-0.074 0.077-0.432-0.841-0.169-1.311 0.501-0.214 0.305-0.139 0.44-0.505 0.618-0.936 0.456-0.727 1.334-1.087 0.912-0.106-0.125-0.439-0.425-0.695-0.451z"></path>
<path fill="#352f35" d="M5.712 16.724c-0.072 0.102-0.267 0.169-0.392 0.23-0.068 0.033-0.368 0.168-0.422 0.18l-0.849 0.483 2.446 1.229c-0.076 0.535-0.868 1.151-1.417 1.333-1.422 0.471-3.019-0.166-3.695-1.501-0.104-0.206-0.203-0.613-0.216-0.841-0.019-0.317 0.046-0.127 0.091-0.211 0.004-0.007-0.051-0.502-0.038-0.612 0.031-0.266 0.121-0.317 0.165-0.495-0.063-0.038-0.163 0.14-0.115-0.276 0.014-0.122 0.074-0.241 0.121-0.338 0.251-0.522 0.985-1.026 1.559-1.18 0.508-0.136 0.995-0.291 1.57-0.205 0.176 0.026 1.195 0.48 1.25 0.562 0.124 0.043 0.335 0.218 0.383 0.332 0.1 0.169 0.485 0.567 0.465 0.882l-0.908 0.428zM1.021 17.216v0.774c0.192 0.419 0.020 0.892 0.945 1.701 0.258 0.226 0.431 0.332 0.802 0.519 0.389 0.195 0.819 0.188 1.038 0.288h0.676c0.292-0.136 0.771-0.073 1.402-0.558 0.18-0.138 0.824-0.798 0.795-1.181l-2.264-1.19 2.413-1.191c-0.079-1.197-1.891-2.285-3.263-1.987-1.072 0.233-1.985 0.652-2.399 1.622-0.145 0.339-0 0.873-0.145 1.203z"></path>
<path fill="#dcd9d5" d="M14.974 17.395l0.001 0.040c0.085 0.036 0.336 0.254 0.43 0.331 0.207 0.168 0.27 0.135 0.264 0.49-0.092 0.621-0.616 0.621-0.638 0.641-0.061 0.108-0.024 0.356 0.014 0.489 0.021 0.073 0.052 0.13 0.070 0.207 0.019 0.082 0.018 0.146 0.046 0.234l0.082 0.002c0.224-0.437 0.534-0.149 0.756 0.061 0.329 0.312 0.429 0.27 0.687-0.135 0.050-0.14 0.172-0.137 0.205-0.399 0.015-0.116 0.065-0.441 0.048-0.534l-0.549-0.124c-0.117-0.055-0.271-0.429-0.227-0.596 0.036-0.135 0.267-0.272 0.346-0.461-0.13-0.072-0.198-0.194-0.294-0.308-0.236 0.002-0.52 0.080-0.802 0.031-0.037-0.006-0.070-0.015-0.109-0.028l-0.102-0.050 0.001 0.001-0.108-0.029c-0.078 0.060-0.102 0.038-0.121 0.137z"></path>
<path fill="#dcd9d5" d="M13.873 19.626c-0.084-0.086-0.047-0.31-0.026-0.429 0.096 0.030 0.092 0.102 0.091 0.218-0.001 0.108-0.012 0.156-0.065 0.211zM14.069 18.762c-0.019-0.149 0.022-0.126 0.036-0.236 0.019-0.159-0.037-0.153 0.045-0.219 0.065 0.025 0.013-0.030 0.054 0.050 0.025 0.049 0.035 0.386-0.134 0.406zM13.636 17.982c0.128 0.121 0.131 0.742-0.020 0.738-0.099-0.002-0.101-0.301-0.102-0.388-0.003-0.143 0.001-0.303 0.122-0.35zM13.999 16.658c-0.037 0.097-0.091 0.182-0.082 0.291 0.076-0.080 0.076-0.193 0.193-0.228-0.002 0.115-0.086 0.267-0.118 0.389-0.029 0.109-0.023 0.305-0.128 0.344-0.014-0.133 0.061-0.309 0.010-0.421-0.048 0.078-0.126 0.453-0.088 0.569l0.055 0.032c0.087 0.031 0.236-0.007 0.259 0.174-0.172 0.018-0.018-0.060-0.319-0.066-0.358 0.077-0.389 0.356-0.336 0.781 0.085 0.676 0.359 0.373 0.587 0.418l-0.273 0.178 0.019 0.898c0.271-0.006 0.349-0.426 0.594-0.453 0.265-0.030 0.276 0.421 0.523 0.486 0.382 0.028 0.032-0.469 0.014-0.969-0.002-0.059 0.015-0.192 0.005-0.234-0.019-0.078-0.053-0.034-0.103-0.13l-0.092-0.090c-0.232-0.176-0.111-0.564-0.17-0.834-0.138 0.074-0.111 0.209-0.365 0.223-0.002-0.249 0.201-0.364 0.318-0.473 0.13-0.12 0.204-0.293 0.393-0.38l0.004-0.081c-0.064-0.090-0.702-0.82-0.901-0.423z"></path>
<path fill="#cf3539" d="M28.816 13.587c-0.016 0.085-0.103 0.052-0.207 0.071-0.069 0.012-0.127 0.035-0.201 0.053-0.137 0.032-0.265 0.070-0.407 0.105-0.188 0.047-0.585 0.271-0.653 0.377 0.027 0.034 0.040 0.033-0.017 0.092l-0.245 0.23c-0.087 0.072-0.073 0.099-0.136 0.179-0.052 0.066-0.035 0.008-0.076 0.084-0.029 0.054-0.014 0.073-0.043 0.114l-0.051 0.047c-0.176 0.154-0.182 0.027-0.311 0.222-0.104 0.158-0.122 0.077-0.496 0.122l0.016 0.069-0.236 0.026-0.105 0.132 0.798 0.798c0.135 0.005 0.403-0.086 0.474-0.164l0.671-0.669c0.24-0.209 0.106-0.396 0.235-0.466-0.006-0.409 0.976-1.153 0.989-1.208 0.085-0.124 0.198-0.124 0.27-0.249l-0.268 0.037z"></path>
<path fill="#5b3462" d="M14.907 15.754l-0.227 0.083c0.27 0.031-0.093 0.226-0.131 0.255-0.121 0.092-0.241 0.136-0.293 0.27 0.014 0.023 1.058 0.706 0.654 0.72 0.062 0.067 0.155 0.114 0.245 0.143l0.003-0.069c0.069-0.020 0.364 0.061 0.51 0.062 0.168 0 0.277-0.052 0.385-0.019 0.113 0.035 0.073 0.021 0.064 0.094 0.124-0.012 0.282-0.028 0.342-0.115l-0.136 0.035c0.024-0.207 0.124-0.014 0.465-0.439 0.13-0.162 0.321-0.458 0.065-0.588l0.059 0.135c-0.202 0.038-0.372-0.163-0.553-0.236l-0.438-0.152c-0.089-0.013-0.112 0.016-0.171-0.042 0.068-0.043 0.454 0.026 0.558 0.048 0.186 0.039 0.304 0.131 0.463 0.198-0.137-0.232-0.403-0.043-0.276-0.352l-0.163-0.056c-0.055 0.105-0.192 0.072-0.319 0.053-0.464-0.069-0.895 0.067-1.103 0.029l-0.004-0.056z"></path>
<path fill="#352f35" d="M17.717 18.589c-0.051-0.078-0.032-0.448-0.036-0.632-0.002-0.098-0.006-0.137 0.036-0.2 0.14 0.050 0.097 0.256 0.097 0.418 0 0.172 0.036 0.364-0.097 0.415zM16.772 16.135c0.035 0.025 0.035 0.039 0.080 0.050 0.257 0.13 0.065 0.426-0.065 0.588-0.341 0.425-0.442 0.232-0.465 0.439l0.136-0.035 0.244-0.108 0.425-0.612c0.204 0.084 0.408 0.812 0.41 1.119 0.063 0.416 0.026 0.847 0.014 1.269-0.009 0.334 0.045 0.935-0.051 1.22-0.146-0.006-0.247-0.182-0.322-0.268-0.193-0.219-0.201-0.095-0.237-0.356-0.053 0.1-0.003 0.098-0.090 0.172-0.044 0.038-0.031 0.016-0.072 0.066-0.059 0.071-0.003 0.045-0.091 0.076-0.258 0.405-0.358 0.447-0.687 0.135-0.222-0.21-0.532-0.499-0.756-0.061-0.033 0.043 0.005 0.001-0.035 0.035-0.114 0.098-0.197 0.302-0.313 0.187-0.247-0.065-0.258-0.515-0.523-0.486-0.245 0.027-0.324 0.447-0.594 0.453l-0.019-0.898 0.273-0.178c-0.229-0.044-0.503 0.258-0.587-0.418-0.053-0.425-0.022-0.704 0.336-0.781-0.005-0.094-0.063-0.1-0.044-0.297 0.010-0.099 0.033-0.203 0.061-0.294 0.051-0.167 0.080-0.395 0.201-0.495 0.199-0.396 0.837 0.334 0.901 0.423h0.009c0.404-0.014-0.639-0.696-0.654-0.72 0.052-0.134 0.172-0.178 0.293-0.27 0.038-0.029 0.401-0.223 0.131-0.255-0.299-0.007-0.762 0.646-0.88 0.924-0.085 0.202-0.152 0.488-0.178 0.731-0.042 0.396-0.225 0.201-0.281 0.624-0.029 0.217-0.004 0.591 0.108 0.756 0.224 0.33 0.194 0.153 0.192 0.72-0.004 1.2 0.517 0.192 0.759 0.105 0.157 0.119 0.276 0.545 0.584 0.492 0.258-0.044 0.4-0.508 0.645-0.442 0.219 0.060 0.371 0.47 0.632 0.488 0.328 0.022 0.466-0.396 0.627-0.492 0.211 0.026 0.783 1.085 0.796-0.113 0.003-0.241-0.052-0.67 0.056-0.843 0.176-0.283 0.18-0.33 0.162-0.745-0.024-0.56-0.206-0.204-0.252-0.653-0.026-0.257-0.096-0.509-0.2-0.724-0.156-0.323-0.567-0.837-0.954-0.885-0.128 0.309 0.138 0.12 0.276 0.352z"></path>
<path fill="#cf3539" d="M24.999 15.82c-0.067 0.011-0.117 0.279-0.208 0.322s-0.398 0.030-0.52 0.035l-0.017 0.041 0.654 0.276c-0.087 0.206-0.911-0.107-1.336 0.341 0.108 0.363 0.78 0.245 0.862 0.296 0.11 0.147-0.342 0.321-0.387 0.457 0.103 0.106 0.418 0.078 0.52-0.033 0.126-0.138-0.029-0.485 0.173-0.575l0.215 0.471c0.077-0.239 0.478-0.969 0.678-0.954l0.125 0.467 0.544-0.55-0.945-0.878c-0.090 0.083-0.099 0.064-0.181 0.166l-0.166 0.185c-0.017-0.017-0.031 0.037-0.011-0.065z"></path>
<path fill="#dcd9d5" d="M16.703 17.068c-0.090 0.112-0.143 0.116-0.269 0.18 0.022 0.052 0.107 0.114 0.141 0.157 0.046 0.057 0.087 0.098 0.177 0.056l0.28-0.256c0.133 0.151 0.227 0.664 0.223 0.911-0.004 0.191-0.029 0.312-0.115 0.447-0.173 0.27-0.076 0.115-0.088 0.405 0.005 0.225-0.091 0.431-0.062 0.605 0.043 0.050 0.076 0.064 0.125 0.109 0.26 0.246 0.379 0.598 0.398 0.061 0.023-0.651 0.015-1.367 0.013-2.022l0.013-0.145c-0.002-0.307-0.206-1.035-0.41-1.119l-0.425 0.612z"></path>
<path fill="#9a3235" d="M27.826 15.007c-0.129 0.070 0.005 0.258-0.235 0.466l-0.671 0.669c-0.071 0.079-0.339 0.17-0.474 0.164l-0.798-0.798 0.105-0.132c-0.211 0.039-0.245 0.079-0.396 0.157l0.945 0.878-0.544 0.55-0.125-0.467c-0.2-0.015-0.601 0.715-0.678 0.954l-0.215-0.471c-0.202 0.089-0.046 0.437-0.173 0.575-0.102 0.111-0.418 0.139-0.52 0.033 0.045-0.136 0.497-0.31 0.387-0.457-0.082-0.050-0.754 0.067-0.862-0.296 0.426-0.448 1.249-0.134 1.336-0.341l-0.654-0.276 0.017-0.041c0.122-0.005 0.427 0.008 0.52-0.035s0.141-0.311 0.208-0.322c0.051-0.124 0.148-0.245 0.261-0.312 0.097-0.057 0.075-0.094 0.159-0.137 0.077-0.040 0.135-0.024 0.197-0.079-0.377 0.045-0.521 0.198-0.664 0.461-0.369 0.684-0.199 0.198-0.756 0.392 0.042 0.229 0.381 0.217 0.475 0.335-0.126 0.091-1.058-0.016-1.174 0.374 0.115 0.286 0.535 0.305 0.876 0.323l0.025 0.032-0.46 0.363c0.109 0.21 0.507 0.1 0.681 0.038l0.118-0.526 0.206 0.485c0.082-0.035 0.312-0.808 0.637-0.997l0.189 0.553 0.061 0.024 0.068-0.163c0.074-0.193 0.353-0.443 0.531-0.564 0.338-0.231 0.404 0.056 0.731 0.141l-0.198-0.175-0.025-0.034 1.334-1.253-0.112 0.059c0.025-0.168 0.279-0.355 0.394-0.438 0.775-0.56 1.167-0.265 1.801 0.064l0.258 0.165-0.181 0.102 0.259-0.048c-0.054-0.224-1.13-0.723-1.549-0.622-0.332 0.080-0.527 0.223-0.739 0.384-0.103 0.078-0.545 0.52-0.573 0.51l-0.003-0.271z"></path>
<path fill="#dcd9d5" d="M5.758 15.964c-0.009-0.053-0.042-0.104-0.070-0.134l-0.094-0.073c-0.051 0.032-0.365 0.344-0.377 0.369 0.062 0.090 0.193 0.13 0.236 0.24-0.058 0.068-0.162 0.12-0.278 0.168-0.071 0.029-0.289 0.096-0.33 0.124 0.012 0.111-0.017 0.017 0.069 0.090 0.1 0.086 0.182 0.201 0.232 0.241l0.567-0.264 0.908-0.428c0.020-0.315-0.365-0.713-0.465-0.882-0.085-0.034-0.067-0.068-0.147-0.092-0.061 0.064-0.055 0.071-0.122 0.13-0.046 0.040-0.071 0.090-0.142 0.115 0.039 0.201 0.176 0.389 0.047 0.467-0.017-0.021-0.020 0.001-0.034-0.070z"></path>
<path fill="#352f35" d="M1.75 16.594c-0.073 0.174 0.101-0.060-0.068 0.212-0.092 0.147-0.059 0.18-0.122 0.242l0.004 0.28c-0.007 0.058-0.007 0.037-0.031 0.066-0.022-0.025-0.015-0.010-0.035-0.051-0.091-0.188-0.022-0.268 0.010-0.386 0.034-0.131 0.115-0.169 0.164-0.275-0.177 0.075-0.305 0.294-0.268 0.578 0.050 0.389 0.286 0.373 0.374 0.49 0.398 0.21 0.923-0.146 0.919-0.579-0.005-0.511-0.45-0.709-0.946-0.576z"></path>
<path fill="#352f35" d="M3.832 15.199c0.165 0.075 0.158 0.149 0.14 0.355-0.009 0.222 0.008 0.291 0.076 0.481 0.063 0.175 0.159 0.338 0.17 0.385-0.13-0.035-0.202-0.146-0.244-0.244-0.065-0.036-0.061-0.060-0.091-0.134-0.029-0.072-0.035-0.104-0.096-0.133l0.053 0.223 0.374 0.431c0.246 0.040 0.395 0.084 0.663 0.028 0.172-0.036 0.439-0.117 0.505-0.249-0.023-0.048-0.138-0.145-0.201-0.158-0.055-0.003-0.033-0.047-0.032 0.043-0.015 0.131 0.003 0.229-0.16 0.158-0.184-0.026-0.067 0.077-0.234 0.030 0.005-0.235 0.268-0.185 0.219-0.41l-0.021-0.070-1.196-0.936-0.077-0.019c-0.015 0.175-0.013 0.522 0.064 0.649 0.051-0.141-0.056-0.368 0.013-0.504 0.074 0.026 0.043 0.007 0.074 0.075z"></path>
<path fill="#dcd9d5" d="M11.518 17.892l0.245-0.008c0.014-0.802-0.98-0.688-0.851 0.238 0.038 0.273 0.24 0.632 0.571 0.5 0.394-0.156-0.275-0.207 0.035-0.73z"></path>
<path fill="#dcd9d5" d="M25.97 17.62c-0.045-0.042-0.070-0.050-0.080-0.122l-0.092-0.057c-0.202 0.2-0.104 0.648-0.031 0.911 0.13 0.206 0.413 0.399 0.631 0.117-0.045-0.124-0.329-0.445-0.036-0.652l0.043-0.065 0.156 0.033-0.015-0.165-0.071-0.162c-0.119-0.080-0.179-0.286-0.416-0.206-0.035 0.145 0.032 0.269 0.002 0.436-0.083-0.020-0.059-0.005-0.092-0.069z"></path>
<path fill="#dcd9d5" d="M9.976 18.009c0.047-0.148 0.109-0.177 0.27-0.156 0.007-0.117-0.029-0.148-0.044-0.256-0.104-0.404-0.699-0.363-0.754 0.305-0.043 0.524 0.368 1.047 0.69 0.586l-0.049 0.016-0.112-0.495z"></path>
<path fill="#352f35" d="M20.851 17.823c0.099 0.037 0.102 0.085 0.099 0.213s-0.010 0.172-0.095 0.208c-0.136-0.068-0.15-0.343-0.004-0.421zM20.74 18.269c0.028 0.070 0.211 0.154-0.070 0.257-0.162 0.059-0.313-0.012-0.391-0.095-0.097-0.104-0.32-0.604-0.179-0.782 0.010-0.015-0.024-0.046 0.159-0.037 0.131 0.007 0.416 0.017 0.507 0.090-0.037 0.191-0.196 0.239-0.026 0.568zM20.134 17.495c0.013-0.187 0.25-0.472 0.504-0.392 0.199 0.063 0.349 0.291 0.351 0.561-0.105-0.017-0.297-0.073-0.413-0.101-0.148-0.037-0.332-0.029-0.443-0.067zM20.462 16.969c-0.852 0.311-0.518 1.834 0.176 1.681 0.837-0.184 0.492-1.925-0.176-1.681z"></path>
<path fill="#dcd9d5" d="M14.675 17.823c0.053 0.296-0.035 0.484 0.146 0.742 0.138 0.197 0.404 0.277 0.547 0.022-0.030-0.097-0.15-0.108-0.147-0.334 0.003-0.258 0.15-0.238 0.193-0.316l-0.458-0.418c-0.088-0.024-0.063-0.037-0.138-0.059-0.128 0.111-0.053 0.249-0.144 0.363z"></path>
<path fill="#352f35" d="M10.128 18.353c-0.033-0.029-0.035-0.019-0.052-0.089-0.022-0.090-0.030-0.247 0.072-0.295 0.075 0.032 0.099 0.1 0.097 0.204-0.002 0.101-0.029 0.16-0.117 0.18zM9.976 18.009l0.112 0.495 0.049-0.016c-0.322 0.461-0.733-0.062-0.69-0.586 0.054-0.668 0.65-0.71 0.754-0.305 0.050 0.024 0.036 0.002 0.057 0.073 0.031 0.106 0.055 0.174 0.045 0.267-0.111-0.019-0.048-0.058-0.201-0.057-0.038 0.052-0.070 0.1-0.126 0.129zM9.774 17.243c-0.833 0.349-0.431 1.665 0.225 1.532 0.711-0.145 0.429-1.806-0.225-1.532z"></path>
<path fill="#352f35" d="M11.606 18.345c-0.095-0.091-0.114-0.26 0-0.359 0.091 0.014 0.132 0.081 0.127 0.188-0.005 0.119-0.039 0.148-0.127 0.171zM11.518 17.892c-0.31 0.522 0.358 0.573-0.035 0.73-0.331 0.131-0.533-0.228-0.571-0.5-0.129-0.926 0.865-1.040 0.851-0.238l-0.245 0.008zM11.305 17.237c-0.775 0.103-0.582 1.651 0.092 1.537 0.728-0.124 0.584-1.626-0.092-1.537z"></path>
<path fill="#352f35" d="M16.855 18.095c-0.069 0.083-0.058 0.168-0.046 0.287l0.175 0.211c-0.169 0.279-0.464 0.144-0.572-0.080-0.12-0.25-0.069-0.599 0.143-0.635 0.037-0.107 0.186-0.249 0.269-0.291 0.023-0.044 0.090-0.101 0.144-0.164 0.075-0.006 0.022-0.007 0.035 0.018 0.046 0.034 0.054 0.044 0.073 0.133 0.022 0.103 0.116 0.443 0.010 0.451l-0.070-0.004c0 0.048 0.168 0.337-0.028 0.429-0.139-0.115-0.011-0.254-0.069-0.404-0.057 0.030-0.007-0.004-0.064 0.049zM16.752 17.461c-0.056 0.148-0.136 0.187-0.228 0.27-0.527 0.476-0.272 0.618-0.133 0.967l0.549 0.124c0.004 0.004 0.008 0.006 0.009 0.014s0.007 0.011 0.008 0.015c0.050 0.141-0.050 0.24 0.029 0.368 0.049-0.060 0.020-0.189 0.064-0.252 0.012-0.29-0.085-0.135 0.088-0.405 0.086-0.134 0.112-0.256 0.115-0.447 0.005-0.247-0.089-0.76-0.223-0.911l-0.28 0.256z"></path>
<path fill="#dcd9d5" d="M20.74 18.269c-0.109-0.036-0.103-0.128-0.101-0.273 0.003-0.193 0.061-0.152 0.074-0.298-0.229-0.023-0.363-0.066-0.613-0.049-0.141 0.178 0.082 0.678 0.179 0.782 0.078 0.083 0.23 0.154 0.391 0.095 0.28-0.102 0.098-0.186 0.070-0.257z"></path>
<path fill="#41539e" d="M20.214 13.546c0.021 0.131 0.103 0.186 0.136 0.279 0.060 0.037 0.082 0.091 0.12 0.141 0.036 0.048 0.083 0.108 0.115 0.141 0.092 0.094 0.156 0.178 0.245 0.264l0.063-0.012c0.026-0.275-0.032-0.547-0.057-0.798 0.070 0.070 0.14 0.176 0.207 0.265 0.102 0.135 0.091 0.318 0.333 0.612 0.092 0.111 0.118 0.193 0.307 0.135l0.026-0.238c0.166 0.044 0.285 0.558 0.335 0.637 0.034 0.053 0.072 0.084 0.099 0.137 0.030 0.059 0.022 0.411 0.318 0.417l0.113-0.569 0.073 0.059c-0.021-0.075-0.060-0.097-0.041-0.188 0.044 0.037 0.069 0.081 0.096 0.137 0.037 0.077 0.032 0.128 0.085 0.176-0.027-0.218-0.19-0.584-0.319-0.669-0.085 0.154 0.165 0.736-0.059 0.955-0.030-0.035-0.037-0.113-0.051-0.177-0.016-0.075-0.026-0.144-0.080-0.195 0.018 0.096 0.041 0.157 0.024 0.254-0.091-0.045-0.089-0.085-0.117-0.184-0.061-0.22-0.178-0.492-0.296-0.679-0.073-0.042-0.132-0.218-0.147-0.306l0.090 0.048c-0.033-0.079-0.132-0.226-0.214-0.247 0.003 0.112 0.010 0.225 0.016 0.336 0.008 0.139 0.035 0.26-0.080 0.198l0 0.072c-0.103-0.040-0.341-0.492-0.418-0.637-0.047-0.089-0.111-0.134-0.13-0.254 0.060 0.022 0.071 0.038 0.111 0.064-0.064-0.109-0.211-0.264-0.342-0.306-0.021 0.21 0.095 0.578 0.083 0.86-0.217-0.040-0.536-0.646-0.645-0.728z"></path>
<path fill="#dcd9d5" d="M27.848 18.327c-0.125-0.107-0.057-0.29-0.066-0.429-0.071-0.054-0.151-0.131-0.216-0.191-0.063-0.058-0.134-0.19-0.252-0.159-0.306 0.929 0.482 1.308 0.662 0.901l-0.127-0.122z"></path>
<path fill="#352f35" d="M15.428 18.423c-0.034-0.010-0.033 0.005-0.061-0.047-0.036-0.068-0.034-0.186 0.024-0.258 0.18 0 0.103 0.265 0.037 0.305zM14.957 17.519l0.458 0.418c-0.043 0.079-0.19 0.058-0.193 0.316-0.003 0.226 0.118 0.237 0.147 0.334-0.143 0.255-0.409 0.175-0.547-0.022-0.181-0.258-0.094-0.447-0.146-0.742 0.015-0.097 0.030-0.114-0.013-0.165l-0.026 0.061c-0.023 0.084 0.007 0.109-0.049 0.189 0.004 0.404 0.037 0.393 0.134 0.718l0.092 0.090c0.084 0.032 0.201 0.254 0.554 0.024 0.072-0.047 0.122-0.122 0.174-0.22 0.043-0.080 0.066-0.199 0.129-0.266 0.006-0.355-0.056-0.321-0.264-0.49-0.094-0.076-0.346-0.295-0.43-0.331l-0.085-0.019c0.027 0.070 0.016 0.051 0.066 0.104z"></path>
<path fill="#dcd9d5" d="M21.797 18.312c0.054 0.033 0.34 0.441 0.627 0.078-0.042-0.106-0.229-0.18-0.13-0.527 0.035-0.122 0.053-0.063 0.074-0.171l-0.216 0.004c-0.754 0.059-0.362 0.384-0.355 0.616z"></path>
<path fill="#352f35" d="M26.502 18.227l-0.024 0.075c-0.208-0.043-0.157-0.424-0.029-0.42 0.075 0.003 0.131 0.174 0.115 0.268-0.015 0.081-0.023 0.059-0.062 0.077zM26.21 17.216c0.164 0.060 0.192 0.098 0.266 0.243l0.071 0.162c0.051 0.049 0.059 0.126 0.046 0.204l-0.229-0.007c-0.294 0.206-0.009 0.528 0.036 0.652-0.217 0.282-0.501 0.089-0.631-0.117-0.149-0.083-0.121-0.473-0.119-0.662-0.049 0.005-0.067 0.052-0.105 0.097-0.030 0.525 0.37 1.233 0.855 0.849 0.363-0.287 0.406-0.987 0.076-1.363-0.113-0.062-0.122-0.129-0.303-0.137l0.037 0.081z"></path>
<path fill="#b2b1ae" d="M3.163 18.020c0.264 0.014 0.571-0.445 0.726-0.585 0.068-0.061 0.697-0.549 0.557-0.697-0.13-0.138-0.623 0.472-0.698 0.555-0.132 0.148-0.598 0.493-0.585 0.726z"></path>
<path fill="#b2b1ae" d="M4.953 15.935l0.021 0.070c0.094 0.033 0.172 0.097 0.207 0.179 0.063 0.013 0.178 0.109 0.201 0.158-0.065 0.132-0.333 0.213-0.505 0.249-0.268 0.056-0.417 0.012-0.663-0.028 0.162 0.138 0.302 0.102 0.531 0.111-0.043 0.136-0.137 0.117 0.158 0.377l-0.005 0.084c0.054-0.012 0.354-0.147 0.422-0.18 0.125-0.061 0.32-0.128 0.392-0.23l-0.567 0.264c-0.050-0.040-0.132-0.155-0.232-0.241-0.086-0.073-0.057 0.021-0.069-0.090 0.042-0.028 0.26-0.095 0.33-0.124 0.116-0.048 0.22-0.1 0.278-0.168-0.043-0.11-0.174-0.15-0.236-0.24 0.012-0.025 0.326-0.337 0.377-0.369l0.094 0.073c-0.023-0.081-0.046-0.128-0.082-0.208-0.033-0.072-0.042-0.136-0.098-0.183l0.017 0.081c-0.123 0.045-0.168 0.139-0.266 0.23-0.087 0.081-0.151 0.252-0.305 0.185z"></path>
<path fill="#dcd9d5" d="M16.555 17.878c-0.212 0.036-0.263 0.385-0.143 0.635 0.108 0.224 0.403 0.359 0.572 0.080l-0.175-0.211c-0.047-0.057-0.047-0.123-0.032-0.203 0.018-0.101 0.159-0.176-0.125-0.373-0.047 0.026-0.047 0.027-0.097 0.072z"></path>
<path fill="#ca8358" d="M21.728 17.672c0.13-0.001 0.276-0.042 0.399-0.075 0.171-0.046 0.286-0.020 0.458-0.036 0.009-0.239-0.229-0.521-0.48-0.479-0.218 0.037-0.388 0.331-0.377 0.589z"></path>
<path fill="#5b3462" d="M15.648 15.118c-0.19 0.030-0.379 0.093-0.541 0.114-0.233 0.031-0.152-0.023-0.151-0.027-0.161 0.025-0.38 0.037-0.552 0.046-0.098 0.005-0.197 0.007-0.295 0.003-0.082-0.003-0.264-0.032-0.12-0.112 0.023-0.058 0.021-0.052 0.070-0.079 0.051-0.080 0.233-0.231 0.328-0.264 0.206-0.095 0.643-0.408 0.901-0.406 0.142-0.147 0.842-0.116 1.009-0.118-0.136-0.072-0.494-0.007-0.677-0.024l0.045-0.029c-0.139-0.098-0.935 0.265-1.071 0.339-0.155 0.084-0.828 0.519-0.761 0.671 0.052 0.137 0.298 0.079 0.454 0.078 0.2-0.001 0.274 0.027 0.49 0.001 0.206-0.025 0.763-0.053 0.871-0.192z"></path>
<path fill="#5b3462" d="M15.445 14.497c-0.314 0.021-0.812 0.277-1.050 0.406-0.073 0.098-0.244 0.15-0.265 0.272 0.257 0.016 0.377-0.014 0.611-0.037 0.108-0.011 0.474-0.053 0.542-0.095-0.116-0.12-0.634 0.061-0.898 0.019 0.224-0.352 1.459-0.54 1.899-0.539-0.065 0.145-0.147 0.062-0.219 0.198 0.075-0.022 0.135-0.050 0.199-0.086 0.022-0.012 0.068-0.042 0.084-0.056 0.024-0.022 0.020-0.015 0.029-0.039 0.062-0.158-0.652 0.062-0.684-0.074l-0.247 0.032z"></path>
<path fill="#ca8358" d="M20.134 17.495c0.11 0.038 0.294 0.030 0.443 0.067 0.115 0.029 0.308 0.084 0.413 0.101-0.002-0.269-0.152-0.498-0.351-0.561-0.254-0.080-0.491 0.205-0.504 0.392z"></path>
<path fill="#d28d8e" d="M28.303 17.875c0 0.072 0.004 0.188-0.005 0.256-0.010 0.080-0.057 0.125-0.040 0.208 0.074-0.102 0.046-0.361 0.103-0.437 0.056 0.069 0.036 0.404 0.020 0.508-0.145 0.042-0.113-0.029-0.119 0.164l0.051-0.076c0.001-0.006 0.006-0.007 0.009-0.011 0.068 0.097 0.066 0.498 0.067 0.651 0.003 0.27 0.022 0.402-0.059 0.639-0.185-0.026-0.068-0.018-0.062-0.501 0.002-0.215 0.012-0.442 0.001-0.656-0.163 0.052 0.064 0.72-0.131 1.089 0.054 0.104 0.164 0.273 0.294 0.278 0.043-0.194 0.063-2.21 0.010-2.304-0.060 0.022-0.118 0.131-0.137 0.191z"></path>
<path fill="#352f35" d="M15.666 14.222l-0.045 0.029c0.183 0.017 0.541-0.048 0.677 0.024 0.077 0.002 0.545 0.047 0.614 0.097-0.015 0.113-0.115 0.157-0.219 0.186l-0.197 0.111c-0.12 0.198-1.202 0.48-1.539 0.536-0.001 0.003-0.082 0.057 0.151 0.027 0.163-0.022 0.351-0.084 0.541-0.114 0.213-0.033 0.608-0.211 0.794-0.306 0.152-0.078 0.606-0.332 0.593-0.507-0.251-0.152-1.061-0.149-1.37-0.083z"></path>
<path fill="#5b3462" d="M19.309 17.697l0.006 0.084c-0.253-0.004-0.599-0.323-0.638-0.525 0.148 0.023 0.215 0.080 0.379 0.028-0.024-0.095-0.199-0.164-0.278-0.25-0.198-0.218-0.448-0.811-0.442-1.111 0.177 0.049 0.305 0.375 0.573 0.388 0.026-0.191-0.145-0.589-0.182-0.826-0.028-0.184-0.032-0.285-0.032-0.482-0-0.148-0.031-0.428 0.042-0.462 0.078-0.025 0.022-0.036 0.071 0.040 0.079 0.123 0.211 0.461 0.462 0.479l-0.019-0.965c-0.090 0.202 0.022 0.678-0.024 0.918-0.228-0.031-0.442-0.582-0.486-0.616-0.124 0.044-0.083 0.301-0.084 0.447-0.002 0.174-0.006 0.372 0.014 0.544 0.029 0.252 0.215 0.683 0.204 0.868-0.167-0.020-0.232-0.119-0.318-0.204-0.061-0.060-0.236-0.252-0.298-0.267 0.004 0.329 0.246 0.945 0.445 1.203 0.096 0.124 0.213 0.171 0.285 0.284-0.189-0.001-0.21-0.048-0.362-0.078-0.011 0.248 0.431 0.607 0.702 0.618 0.011-0.081 0.016-0.064-0.020-0.117z"></path>
<path fill="#8b94ac" d="M15.395 14.998c-0.047 0.044-0.032 0.034-0.113 0.044-0.068 0.042-0.434 0.085-0.542 0.095-0.234 0.023-0.354 0.053-0.611 0.037 0.021-0.121 0.192-0.174 0.265-0.272l-0.156 0.063c0.036-0.141 0.084-0.052 0.148-0.167-0.095 0.033-0.277 0.184-0.328 0.264 0.059 0.011 0.027-0.006 0.054 0.019-0.043 0.095-0.022 0.127-0.132 0.117l0.007-0.057c-0.144 0.081 0.039 0.109 0.12 0.112 0.098 0.004 0.197 0.002 0.295-0.003 0.172-0.008 0.391-0.021 0.552-0.046 0.337-0.056 1.419-0.338 1.539-0.536-0.017-0.028-0.013-0.031-0.018-0.041 0.024-0.020 0.006-0.012 0.021-0.047-0.302 0.097-0.758 0.453-1.102 0.417z"></path>
<path fill="#d28d8e" d="M28.371 13.611l0-0.011c-0.22 0.135-0.566 0.064-1.076 0.495-0.086 0.072-0.759 0.699-0.649 0.868 0.081-0.036 0.253-0.314 0.326-0.404l0.376-0.366c0.068-0.106 0.466-0.33 0.653-0.377 0.142-0.035 0.27-0.073 0.407-0.105 0.074-0.017 0.133-0.040 0.201-0.053 0.104-0.019 0.192 0.014 0.207-0.071l-0.445 0.024z"></path>
<path fill="#68473a" d="M20.263 20.074c-0.024-0.063-0.099-0.089-0.227-0.298-0.066-0.108-0.119-0.255-0.287-0.227-0.223 0.037-0.335 0.45-0.547 0.471-0.027-0.166-0.059-0.893 0.007-0.997 0.024 0.116-0.006 0.188 0.067 0.239 0.042-0.198 0.090-0.767-0.003-0.936-0.081 0.032-0.029 0.060-0.079 0.135l-0.040-0.526 0.103 0.005c-0.047-0.050-0.025-0.036-0.11-0.041-0.055 0.119-0.012 1.977 0.043 2.165 0.247-0.034 0.329-0.396 0.551-0.476 0.208-0.075 0.291 0.386 0.52 0.487z"></path>
<path fill="#d28d8e" d="M22.783 18.452c-0.065 0.096-0.057 0.595-0.056 0.747 0.001 0.126 0.022 0.285-0.024 0.394-0.051 0.12-0.061 0.166 0.041 0.268 0.154-0.013 0.157-0.094 0.157-0.248 0.001-0.229 0.022-1.054-0.022-1.163l-0.096 0.001z"></path>
<path fill="#9a3235" d="M27.555 16.771c0.040 0.102 0.094 0.111 0.164 0.193 0.073 0.086 0.063 0.161 0.193 0.173 0.070-0.33-0.058-0.42-0.053-0.648 0.274 0.020 0.489 0.918 0.503 0.944 0.147-0.034 0.055-0.172 0.196-0.246 0.033 0.116 0.016 0.41 0.087 0.471 0.014 0.009 1.081-0.153 1.116-0.173-0.035-0.068-0.043-0.061-0.123-0.074l0.014 0.055-0.205 0.004c-0.125 0.045-0.674 0.165-0.801 0.124-0.042-0.159 0.037-0.353-0.068-0.483-0.162 0.013-0.090 0.117-0.181 0.215-0.162-0.259-0.002-0.304-0.395-0.823-0.037-0.049-0.151-0.148-0.229-0.174-0.048 0.234 0.125 0.406 0.095 0.659-0.13-0.033-0.16-0.178-0.314-0.216z"></path>
<path fill="#d28d8e" d="M28.272 15.101c0.089-0.151 0.632-0.525 0.916-0.553 0.211-0.021 0.505-0.008 0.656 0.076 0.086 0.048 0.177 0.067 0.268 0.106 0.082 0.036 0.195 0.148 0.243 0.056-0.634-0.329-1.026-0.624-1.801-0.064-0.115 0.083-0.369 0.27-0.394 0.438l0.112-0.059z"></path>
<path fill="#dcd9d5" d="M15.288 14.393c-0.258-0.002-0.695 0.311-0.901 0.406-0.064 0.115-0.112 0.026-0.148 0.167l0.156-0.063c0.238-0.129 0.736-0.386 1.050-0.406 0.075-0.061 0.396-0.084 0.534-0.106 0.195-0.030 0.412-0.016 0.615-0.025-0.47-0.145-0.846-0.020-1.306 0.027z"></path>
<path fill="#9a3235" d="M25.745 15.286l0.227-0.003c0.375-0.045 0.392 0.035 0.496-0.122 0.129-0.195 0.135-0.068 0.311-0.222l0.051-0.047c0.028-0.041 0.014-0.060 0.043-0.114 0.041-0.075 0.024-0.018 0.076-0.084 0.063-0.080 0.050-0.107 0.136-0.179l0.245-0.23c0.057-0.059 0.044-0.057 0.017-0.092l-0.376 0.366c-0.073 0.089-0.244 0.368-0.326 0.404-0.11-0.169 0.563-0.796 0.649-0.868 0.511-0.431 0.857-0.36 1.076-0.495-1.274 0.024-1.891 1.551-2.021 1.615-0.167 0.023-0.481-0.025-0.605 0.071z"></path>
<path fill="#b2b1ae" d="M16.458 17.176c-0.060 0.087-0.218 0.103-0.342 0.115-0.132 0.031-0.306 0.046-0.449 0.047-0.204 0.001-0.286-0.041-0.464-0.053l0.102 0.050c0.039 0.014 0.073 0.022 0.109 0.028 0.282 0.049 0.566-0.029 0.802-0.031 0.096 0.114 0.165 0.235 0.294 0.308-0.078 0.19-0.31 0.326-0.346 0.461-0.044 0.167 0.11 0.541 0.227 0.596-0.139-0.35-0.394-0.491 0.133-0.967 0.092-0.083 0.172-0.123 0.228-0.27-0.090 0.041-0.132 0-0.177-0.056-0.034-0.043-0.119-0.104-0.141-0.157 0.125-0.064 0.179-0.067 0.269-0.18l-0.244 0.108z"></path>
<path fill="#b2b1ae" d="M14.72 18.626c-0.097-0.325-0.13-0.314-0.134-0.718 0.010-0.217 0.063-0.504 0.193-0.622 0.092 0.024 0.093 0.067 0.194 0.108 0.019-0.1 0.043-0.078 0.121-0.137l0.108 0.029-0.049-0.062c-0.090-0.029-0.183-0.076-0.245-0.143h-0.009l-0.004 0.081c-0.189 0.087-0.263 0.26-0.393 0.38-0.118 0.109-0.321 0.224-0.318 0.473 0.255-0.014 0.227-0.149 0.365-0.223 0.060 0.27-0.062 0.658 0.17 0.834z"></path>
<path fill="#352f35" d="M14.907 15.754l0.004 0.056c0.208 0.038 0.638-0.098 1.103-0.029 0.127 0.019 0.264 0.051 0.319-0.053-0.198-0.155-1.386-0.193-1.426 0.026z"></path>
<path fill="#b2b1ae" d="M27.314 17.549c0.118-0.031 0.189 0.101 0.252 0.159 0.065 0.060 0.145 0.137 0.216 0.191 0.009 0.139-0.059 0.322 0.066 0.429l-0.023-0.329c0.017-0.108 0.048-0.154 0.135-0.192 0.157-0.024 0.099 0.012 0.197 0.030 0.011-0.109 0.029-0.139-0.053-0.195l0.023 0.136c-0.030-0.005-0.095-0.015-0.117-0.022-0.089-0.028-0.068-0.017-0.061-0.104-0.178 0.159-0.042-0.274-0.193-0.355 0.015 0.097 0.070 0.236 0.033 0.319-0.091-0.035-0.193-0.189-0.279-0.248l0.010-0.078c-0.12 0.039-0.169 0.111-0.207 0.259z"></path>
<path fill="#6e6e71" d="M2.763 19.74c0.041 0.167 0.566 0.351 0.781 0.405 0.198 0.049 0.942 0.108 1.060-0.040-0.114-0.079-0.377-0.001-0.525-0.008-0.729-0.034-0.874-0.214-1.316-0.356z"></path>
<path fill="#68473a" d="M25.77 17.125l0.015 0.111c-0.1-0.046-0.048-0.077-0.131-0.145 0.036 0.15 0.106 0.195 0.014 0.343-0.061 0.099-0.105 0.223-0.125 0.354 0.038-0.045 0.056-0.092 0.105-0.097-0.002 0.189-0.030 0.579 0.119 0.662-0.073-0.263-0.172-0.711 0.031-0.911l0.092 0.057c-0.017-0.083 0.010-0.107 0.043-0.151 0.055 0.015 0.021-0.003 0.070 0.026-0.002-0.083-0.008-0.101 0.032-0.164 0.077-0.022 0.099-0.013 0.175 0.006l-0.037-0.081c0.18 0.008 0.19 0.075 0.303 0.137-0.071-0.163-0.241-0.16-0.449-0.173l-0.002-0.062c-0.082 0.058-0.013 0.071-0.128 0.094l0.003-0.145-0.068 0.163-0.061-0.024z"></path>
<path fill="#8b94ac" d="M17.052 18.967c-0.044 0.062-0.016 0.191-0.064 0.252-0.079-0.129 0.021-0.227-0.029-0.368-0.001-0.004-0.007-0.006-0.008-0.015s-0.006-0.010-0.009-0.014c0.017 0.093-0.034 0.417-0.048 0.534-0.034 0.263-0.155 0.259-0.205 0.399 0.088-0.031 0.032-0.005 0.091-0.076 0.041-0.050 0.028-0.028 0.072-0.066 0.087-0.075 0.038-0.073 0.090-0.172 0.036 0.26 0.045 0.137 0.237 0.356 0.075 0.086 0.176 0.262 0.322 0.268 0.096-0.285 0.042-0.886 0.051-1.22 0.012-0.422 0.048-0.853-0.014-1.269l-0.013 0.145c0.003 0.655 0.010 1.372-0.013 2.022-0.019 0.537-0.137 0.185-0.398-0.061-0.048-0.046-0.082-0.059-0.125-0.109-0.029-0.174 0.067-0.38 0.062-0.605z"></path>
<path fill="#316b41" d="M12.217 18.351c0.059-0.030 0.147-0.165 0.154-0.257 0.016-0.215-0.047-0.1 0.059-0.317 0.171-0.351 0.251-0.428 0.126-0.54-0.376 0.297-0.198 0.466-0.197 0.641-0.116-0.042-0.060-0.113-0.158-0.176l0.016 0.65z"></path>
<path fill="#352f35" d="M15.692 14.464c0.032 0.136 0.746-0.085 0.684 0.074-0.009 0.024-0.005 0.017-0.029 0.039-0.016 0.015-0.062 0.044-0.084 0.056-0.064 0.037-0.124 0.064-0.199 0.086-0.1 0.016-0.233 0.093-0.346 0.137-0.087 0.034-0.328 0.094-0.38 0.126l0.057 0.015c0.344 0.036 0.8-0.32 1.102-0.417l0.040-0.012c0.084-0.147 0.12-0.048 0.179-0.161-0.221-0.032-0.805 0.009-1.025 0.056z"></path>
<path fill="#b2b1ae" d="M3.763 15.987c-0.048-0.28-0.056-0.152-0.104-0.552-0.008-0.069 0.005-0.032-0.020-0.082l-0.017 0.137c-0.059-0.081-0.299-0.414-0.429-0.308-0.141 0.131 0.187 0.332 0.253 0.392 0.076 0.069 0.089 0.135 0.157 0.197 0.058 0.053 0.055 0.020 0.092 0.085 0.039 0.068 0.004 0.070 0.068 0.131z"></path>
<path fill="#6e6e71" d="M14.812 18.716c0.050 0.097 0.084 0.053 0.103 0.13 0.010 0.042-0.007 0.176-0.005 0.234 0.017 0.5 0.367 0.997-0.014 0.969 0.116 0.115 0.199-0.088 0.313-0.187 0.040-0.034 0.002 0.008 0.035-0.035l-0.082-0.002c-0.028-0.088-0.027-0.152-0.046-0.234-0.018-0.076-0.050-0.134-0.070-0.207-0.038-0.133-0.075-0.381-0.014-0.489 0.022-0.019 0.546-0.019 0.638-0.641-0.063 0.067-0.087 0.186-0.129 0.266-0.052 0.098-0.101 0.173-0.174 0.22-0.353 0.23-0.47 0.008-0.554-0.024z"></path>
<path fill="#41539e" d="M22.801 15.87c-0.002 0.096-0.006 0.196 0.005 0.293 0.020 0.175 0.056 0.090 0.109 0.12l0.009 0.362 0.127 0.040 0 0.22c0.032-0.030 0.047-0.092 0.059-0.136 0.016-0.063 0.024-0.106 0.031-0.17 0.012-0.117 0.002-0.279 0.039-0.369 0.022 0.020 0.006 0.002 0.024 0.029 0.002 0.003 0.006 0.009 0.008 0.012l0.017 0.028c0.002 0.003 0.005 0.010 0.008 0.015l-0.038-0.247c-0.059 0.064-0.062 0.165-0.082 0.256-0.012 0.053-0.027 0.085-0.045 0.131-0.033 0.082-0.008 0.073-0.072 0.096-0.053-0.066-0.052-0.673-0.086-0.934l-0.043-0.127 0.011 0.41c-0.069-0.013-0.035 0-0.081-0.028z"></path>
<path fill="#dcd9d5" d="M28.262 18.574l0.006 0.047c0.012 0.214 0.002 0.441-0.001 0.656-0.006 0.483-0.123 0.475 0.062 0.501 0.081-0.236 0.062-0.369 0.059-0.639-0.001-0.153 0.001-0.554-0.067-0.651-0.003 0.003-0.008 0.004-0.009 0.011l-0.051 0.076z"></path>
<path fill="#9a3235" d="M30.314 16.233c0.048 0.020 0.081 0.034 0.129 0.058 0.066 0.032 0.070 0.020 0.084 0.091-0.037 0.028-0.425 0.118-0.518 0.149-0.357 0.122-0.6 0.27-0.857 0.522-0.053 0.052-0.298 0.285-0.236 0.412 0.081 0.025 0.169-0.006 0.216-0.060l-0.155 0.005c0.059-0.365 0.761-0.747 1.145-0.865 0.147-0.045 0.42-0.087 0.522-0.144-0.015-0.102-0.129-0.135-0.235-0.176-0.101-0.039-0.227-0.090-0.342-0.104 0.068 0.052 0.14 0.049 0.247 0.112z"></path>
<path fill="#6e6e71" d="M13.78 17.743c0.301 0.006 0.147 0.084 0.319 0.066-0.023-0.182-0.172-0.143-0.259-0.174l-0.055-0.032c-0.037-0.116 0.040-0.491 0.088-0.569 0.051 0.112-0.024 0.289-0.010 0.421 0.105-0.039 0.1-0.236 0.128-0.344 0.032-0.122 0.116-0.274 0.118-0.389-0.116 0.034-0.117 0.147-0.193 0.228-0.010-0.109 0.045-0.194 0.082-0.291-0.121 0.1-0.15 0.328-0.201 0.495-0.028 0.090-0.051 0.195-0.061 0.294-0.020 0.197 0.039 0.203 0.044 0.297z"></path>
<path fill="#8b94ac" d="M15.288 14.393c0.46-0.047 0.836-0.173 1.306-0.027-0.203 0.009-0.42-0.005-0.615 0.025-0.138 0.022-0.459 0.045-0.534 0.106l0.247-0.032c0.22-0.047 0.803-0.088 1.025-0.056-0.059 0.113-0.095 0.014-0.179 0.161 0.068-0.046 0.076-0.068 0.165-0.053l-0.011 0.042c0.105-0.029 0.205-0.073 0.219-0.186-0.069-0.050-0.537-0.095-0.614-0.097-0.167 0.002-0.867-0.029-1.009 0.118z"></path>
<path fill="#b2b1ae" d="M16.852 16.184c-0.046-0.011-0.045-0.024-0.080-0.050-0.159-0.067-0.277-0.159-0.463-0.198-0.104-0.022-0.49-0.091-0.558-0.048 0.059 0.059 0.081 0.030 0.171 0.042l0.438 0.152c0.181 0.073 0.351 0.274 0.553 0.236l-0.059-0.135z"></path>
<path fill="#b2b1ae" d="M16.824 17.587c-0.083 0.042-0.232 0.184-0.269 0.291 0.051-0.046 0.051-0.046 0.097-0.072 0.283 0.197 0.143 0.273 0.125 0.373-0.014 0.080-0.015 0.146 0.032 0.203-0.013-0.12-0.023-0.205 0.046-0.287 0.038-0.132 0.074-0.123 0.221-0.118l0.010 0.048c0.106-0.008 0.011-0.348-0.010-0.451-0.019-0.088-0.026-0.099-0.073-0.133 0.025 0.175 0.063 0.292 0.072 0.487-0.097-0.052-0.064-0.099-0.27-0.268l0.019-0.073z"></path>
<path fill="#352f35" d="M13.636 17.982c-0.121 0.047-0.125 0.207-0.122 0.35 0.002 0.087 0.004 0.386 0.102 0.388 0.15 0.003 0.147-0.617 0.020-0.738z"></path>
<path fill="#d28d8e" d="M29.185 16.176c-0.023 0.037-0.028 0.030-0.028 0.078 0.186 0.033 0.294-0.13 0.862-0.012 0.135 0.028 0.222 0.064 0.295-0.009-0.107-0.062-0.178-0.059-0.247-0.112-0.167-0.011-0.25-0.065-0.461-0.036-0.131 0.018-0.285 0.056-0.421 0.091z"></path>
<path fill="#b2b1ae" d="M5.576 15.338c0.075 0.21 0.219 0.334 0.235 0.611-0.027 0.032 0.007 0.010-0.053 0.016 0.013 0.071 0.016 0.049 0.034 0.070 0.129-0.078-0.008-0.267-0.047-0.467 0.070-0.025 0.096-0.075 0.142-0.115 0.067-0.059 0.061-0.066 0.122-0.13 0.080 0.025 0.062 0.058 0.147 0.092-0.048-0.114-0.259-0.289-0.383-0.332 0.047 0.056 0.029 0.042 0.082 0.070-0.027 0.070-0.157 0.188-0.226 0.224l-0.052-0.038z"></path>
<path fill="#8b94ac" d="M11.941 19.795c0.119-0.090 0.039-0.461 0.043-0.616 0.005-0.163 0.051-0.554-0.004-0.676-0.101 0.025-0.064 0.043-0.071 0.295l-0.011 0.736c0.001 0.159-0.096 0.205 0.043 0.261z"></path>
<path fill="#352f35" d="M15.154 17.224l0.049 0.062-0.001-0.001c0.178 0.013 0.261 0.055 0.464 0.053 0.143-0.001 0.317-0.017 0.449-0.047 0.008-0.073 0.049-0.058-0.064-0.094-0.108-0.033-0.218 0.019-0.385 0.019-0.145-0-0.441-0.081-0.51-0.062l-0.003 0.069z"></path>
<path fill="#b0c2d6" d="M19.95 13.218c0.044 0.1 0.060 0.248 0.116 0.362 0.054 0.111 0.108 0.259 0.194 0.306 0.057 0.054 0.018 0.042 0.097 0.054l-0.006-0.115c-0.033-0.094-0.116-0.148-0.136-0.279l0.003-0.013c-0.073-0.033-0.084-0.101-0.113-0.185-0.025-0.072-0.044-0.145-0.056-0.223-0.112-0.082-0.041-0.107-0.103-0.187-0.053 0.087-0.010 0.183 0.006 0.281z"></path>
<path fill="#68473a" d="M2.952 16.969c0.119-0.214-0.134-0.461-0.237-0.567-0.171-0.175-0.424-0.187-0.724-0.155 0.134 0.069 0.564 0.004 0.823 0.429 0.045 0.074 0.089 0.24 0.137 0.292z"></path>
<path fill="#352f35" d="M8.486 19.060l0.022 0.454c0.013 0.086 0.003 0.067 0.062 0.094 0.073-0.076 0.064-0.333 0.065-0.429 0.001-0.144 0-0.35-0.047-0.467-0.103 0.052-0.103 0.206-0.103 0.349z"></path>
<path fill="#d28d8e" d="M25.617 15.292c-0.062 0.055-0.121 0.039-0.197 0.079-0.084 0.043-0.063 0.079-0.159 0.137-0.112 0.067-0.209 0.188-0.261 0.312-0.021 0.103-0.006 0.049 0.011 0.065l0.166-0.185c0.082-0.102 0.091-0.082 0.181-0.166 0.151-0.079 0.185-0.118 0.396-0.157l0.236-0.026-0.016-0.069-0.227 0.003-0.129 0.006z"></path>
<path fill="#6e6e71" d="M3.638 15.353c0.026 0.050 0.012 0.014 0.020 0.082 0.048 0.4 0.056 0.272 0.104 0.552 0.006 0.038 0.003 0.041 0.019 0.077 0.030 0.065 0.012 0.035 0.058 0.068l-0.053-0.223c0.061 0.029 0.067 0.062 0.096 0.133 0.030 0.074 0.026 0.098 0.091 0.134l-0.184-0.56-0.019-0.429 0.061 0.012c-0.031-0.068 0-0.049-0.074-0.075-0.069 0.135 0.038 0.362-0.013 0.504-0.078-0.127-0.079-0.473-0.064-0.649l0.077 0.019c-0.035-0.056 0.026-0.034-0.075-0.049-0.080 0.088-0.026 0.281-0.044 0.403z"></path>
<path fill="#b0c2d6" d="M21.89 14.446c0.118 0.188 0.235 0.46 0.296 0.679 0.027 0.098 0.026 0.138 0.117 0.184 0.017-0.097-0.007-0.158-0.024-0.254-0.013-0.111-0.222-0.544-0.298-0.644-0.078-0.046-0.050-0.060-0.119-0.094l0.029 0.129z"></path>
<path fill="#dcd9d5" d="M17.717 18.589c0.133-0.051 0.097-0.243 0.097-0.415-0-0.161 0.043-0.367-0.097-0.418-0.041 0.063-0.038 0.103-0.036 0.2 0.004 0.184-0.015 0.554 0.036 0.632z"></path>
<path fill="#5b3462" d="M19.36 13.527c0.080-0.074 0.175-0.362 0.274-0.527 0.051-0.086 0.098-0.156 0.152-0.241 0.060-0.095 0.093-0.198 0.203-0.224 0.014 0.074 0.035 0.098-0.002 0.163 0.003 0.075-0 0.151 0.007 0.226 0.010 0.102 0.034 0.116 0.053 0.201 0.012 0.077 0.031 0.151 0.056 0.223 0.029 0.083 0.040 0.152 0.113 0.185-0.012-0.131-0.179-0.556-0.179-0.794-0-0.12 0.001-0.205-0.013-0.32-0.156 0.085-0.601 0.845-0.664 1.11z"></path>
<path fill="#b2b1ae" d="M12.002 17.424c-0.031-0.197-0.188-0.633-0.276-0.76l-0.096-0.048c0.004 0.058 0.232 0.619 0.268 0.775 0.026 0.11 0.022 0.193 0.101 0.25l0.003-0.217z"></path>
<path fill="#b0c2d6" d="M21.555 14.475c-0.053-0.234-0.34-0.585-0.437-0.755-0.040-0.027-0.052-0.042-0.111-0.064 0.019 0.12 0.083 0.165 0.13 0.254 0.077 0.145 0.316 0.597 0.418 0.637l-0-0.072z"></path>
<path fill="#b0c2d6" d="M22.647 15.017c0.030 0.128 0.083 0.256 0.102 0.388 0.015 0.104 0.063 0.386 0.052 0.465 0.046 0.028 0.012 0.015 0.081 0.028l-0.011-0.41-0.084-0.346c-0.053-0.049-0.047-0.1-0.085-0.176-0.027-0.056-0.052-0.1-0.096-0.137-0.019 0.091 0.019 0.113 0.041 0.188z"></path>
<path fill="#b2b1ae" d="M3.79 15.616l0.184 0.56c0.043 0.098 0.115 0.209 0.244 0.244-0.011-0.047-0.108-0.21-0.17-0.385-0.068-0.19-0.085-0.259-0.076-0.481-0.049 0.063-0.018 0.117-0.060 0.209-0.087-0.057-0.054-0.087-0.122-0.147z"></path>
<path fill="#dcd9d5" d="M3.79 15.616c0.068 0.060 0.035 0.089 0.122 0.147 0.042-0.092 0.011-0.146 0.060-0.209 0.018-0.206 0.025-0.28-0.14-0.355l-0.061-0.012 0.019 0.429z"></path>
<path fill="#6e6e71" d="M22.152 17.696l0.216-0.004c-0.021 0.108-0.040 0.049-0.074 0.171-0.099 0.347 0.088 0.421 0.13 0.527-0.287 0.362-0.572-0.045-0.627-0.078 0.147 0.269 0.351 0.341 0.595 0.161l0.080-0.063c-0.022-0.189-0.15-0.070-0.166-0.354-0.010-0.176 0.064-0.311 0.182-0.351 0.055 0.026 0.092 0.061 0.166 0.076l-0-0.1c-0.071-0.051-0.145-0.044-0.245-0.039l-0.255 0.055z"></path>
<path fill="#352f35" d="M8.709 17.081c0.107-0.034 0.062-0.134 0.2-0.362l0.208-0.332c-0.159-0.027-0.388 0.371-0.404 0.433-0.039 0.147-0.021 0.226-0.004 0.262z"></path>
<path fill="#8b94ac" d="M23.051 16.904l-0.017 0.237 0.063-0.016c0.029-0.122 0.091-0.236 0.115-0.354 0.030-0.15 0.027-0.308 0.026-0.457-0.003-0.005-0.006-0.012-0.008-0.015l-0.017-0.028c-0.002-0.004-0.006-0.009-0.008-0.012-0.018-0.027-0.002-0.010-0.024-0.029-0.037 0.090-0.027 0.252-0.039 0.369-0.007 0.064-0.014 0.108-0.031 0.17-0.012 0.044-0.027 0.106-0.059 0.136z"></path>
<path fill="#6e6e71" d="M1.777 17.749c-0.088-0.117-0.324-0.101-0.374-0.49-0.036-0.284 0.091-0.502 0.268-0.578-0.048 0.107-0.129 0.144-0.164 0.275 0.077-0.022 0.057 0.013 0.053 0.092 0.063-0.062 0.030-0.095 0.122-0.242 0.169-0.272-0.006-0.038 0.068-0.212-0.225 0.058-0.382 0.287-0.386 0.575-0.004 0.29 0.19 0.539 0.413 0.58z"></path>
<path fill="#41539e" d="M23.097 17.125l-0.063 0.016 0.017-0.237c-0.022 0.028-0.031 0.049-0.071 0.069-0.048-0.084-0.018-0.217-0.135-0.24 0.211 0.421-0.062 0.747 0.116 0.807 0.035-0.067 0.009-0.128 0.055-0.219 0.038-0.077 0.059-0.1 0.082-0.197z"></path>
<path fill="#8b94ac" d="M20.259 13.887c0.043 0.099 0.191 0.229 0.266 0.299 0.093 0.088 0.177 0.193 0.281 0.257 0.020-0.027 0.019-0.026 0.024-0.073-0.088-0.086-0.153-0.17-0.245-0.264-0.032-0.033-0.079-0.093-0.115-0.141-0.037-0.050-0.059-0.104-0.12-0.141l0.006 0.115c-0.079-0.012-0.040 0-0.097-0.054z"></path>
<path fill="#dcd9d5" d="M27.521 17.29l-0.010 0.078c0.086 0.058 0.189 0.212 0.279 0.248 0.037-0.083-0.019-0.222-0.033-0.319l-0.002-0.073c-0.045-0.007-0.078-0.009-0.127-0.002-0.086 0.013-0.088 0.015-0.106 0.068z"></path>
<path fill="#68473a" d="M14.586 17.908c0.057-0.081 0.027-0.105 0.049-0.189l0.026-0.061c0.044 0.051 0.029 0.068 0.013 0.165 0.091-0.114 0.016-0.251 0.144-0.363 0.075 0.022 0.050 0.034 0.138 0.059-0.050-0.053-0.039-0.035-0.066-0.104l0.085 0.019-0.001-0.040c-0.101-0.041-0.102-0.085-0.194-0.108-0.13 0.118-0.184 0.405-0.193 0.622z"></path>
<path fill="#68473a" d="M4.989 16.384c-0.041-0.173 0.010-0.173 0.16-0.158-0.001-0.090-0.022-0.046 0.032-0.043-0.035-0.082-0.113-0.146-0.207-0.179 0.049 0.225-0.214 0.174-0.219 0.41 0.167 0.047 0.050-0.056 0.234-0.030z"></path>
<path fill="#dcd9d5" d="M16.824 17.587l-0.019 0.073c0.206 0.169 0.173 0.216 0.27 0.268-0.009-0.196-0.047-0.312-0.072-0.487-0.013-0.025 0.040-0.023-0.035-0.018-0.054 0.063-0.121 0.12-0.144 0.164z"></path>
<path fill="#352f35" d="M24.885 19.003c0.062-0.049 0.044-0.092 0.044-0.219-0-0.092 0.001-0.184 0.001-0.276l-0.007-0.466c-0.023-0.076-0.010-0.026-0.031-0.047-0.076 0.154-0.040 0.822-0.006 1.008z"></path>
<path fill="#41539e" d="M20.851 17.823c-0.146 0.078-0.132 0.353 0.004 0.421 0.085-0.036 0.092-0.079 0.095-0.208s-0-0.177-0.099-0.213z"></path>
<path fill="#6e6e71" d="M5.002 20.055c0.223-0.015 0.604-0.171 0.627-0.36-0.166 0.053-0.375 0.201-0.482 0.237-0.119 0.041-0.106 0.010-0.145 0.123z"></path>
<path fill="#352f35" d="M2.411 18.018l-0.067 0.039c-0.096 0.033-0.152-0.013-0.238 0.056 0.172 0.052 0.241 0.010 0.388-0.043 0.139-0.011 0.37-0.235 0.348-0.397-0.117 0.113-0.233 0.29-0.431 0.345z"></path>
<path fill="#5b3462" d="M16.855 18.095c0.057-0.053 0.007-0.018 0.064-0.049 0.058 0.149-0.070 0.289 0.069 0.404 0.197-0.092 0.029-0.381 0.028-0.429l0.070 0.004-0.010-0.048c-0.148-0.005-0.183-0.014-0.221 0.118z"></path>
<path fill="#68473a" d="M5.507 15.439c0.056 0.047 0.065 0.111 0.098 0.183 0.037 0.080 0.060 0.127 0.082 0.208 0.028 0.030 0.061 0.081 0.070 0.134 0.060-0.006 0.026 0.017 0.053-0.016-0.016-0.276-0.16-0.4-0.235-0.611l-0.085-0.020 0.017 0.121z"></path>
<path fill="#9a3235" d="M28.371 13.611l0.445-0.024 0.268-0.037c-0.072 0.125-0.185 0.125-0.27 0.249 0.089-0.032 0.22-0.138 0.326-0.204 0.055-0.034 0.068-0.030 0.086-0.088-0.155-0.035-0.553 0.030-0.743 0.064l-0.097 0.031c-0.004 0.002-0.011 0.006-0.016 0.009z"></path>
<path fill="#68473a" d="M28.074 18.222l-0.067 0.012c-0.005-0-0.012-0.002-0.016-0.003-0.096-0.015-0.053-0.265-0.004-0.313 0.12 0.022 0.114 0.222 0.088 0.304zM27.826 17.999l0.060-0.009c0.012 0.142 0.002 0.258 0.1 0.316 0.11-0.016 0.145-0.129 0.137-0.249-0.003-0.054-0.011-0.113-0.045-0.152-0.072-0.082-0.066 0.012-0.118-0.098-0.086 0.038-0.118 0.084-0.135 0.192z"></path>
<path fill="#316b41" d="M11.606 18.345c0.088-0.023 0.121-0.052 0.127-0.171 0.005-0.106-0.036-0.174-0.127-0.188-0.114 0.099-0.095 0.268 0 0.359z"></path>
<path fill="#316b41" d="M10.128 18.353c0.088-0.020 0.115-0.079 0.117-0.18 0.002-0.103-0.022-0.172-0.097-0.204-0.102 0.047-0.094 0.205-0.072 0.295 0.017 0.069 0.019 0.060 0.052 0.089z"></path>
<path fill="#9a3235" d="M26.502 18.227c-0.078 0.011-0.087 0.007-0.101-0.071-0.013-0.074-0.009-0.114 0.028-0.161 0.068-0 0.076-0.016 0.086 0.079 0.004 0.044-0.007 0.109-0.013 0.154zM26.502 18.227c0.038-0.018 0.047 0.004 0.062-0.077 0.017-0.094-0.039-0.265-0.115-0.268-0.128-0.004-0.18 0.377 0.029 0.42l0.024-0.075z"></path>
<path fill="#8b94ac" d="M14.069 18.762c0.169-0.020 0.159-0.357 0.134-0.406-0.041-0.080 0.011-0.025-0.054-0.050-0.082 0.066-0.025 0.061-0.045 0.219-0.014 0.11-0.055 0.087-0.036 0.236z"></path>
<path fill="#6e6e71" d="M20.74 18.269c-0.169-0.329-0.011-0.377 0.026-0.568-0.091-0.073-0.375-0.083-0.507-0.090-0.184-0.009-0.15 0.022-0.159 0.037 0.251-0.017 0.384 0.026 0.613 0.049-0.013 0.147-0.071 0.105-0.074 0.298-0.002 0.145-0.008 0.237 0.101 0.273z"></path>
<path fill="#6e6e71" d="M2.495 18.070c-0.147 0.053-0.216 0.095-0.388 0.043 0.086-0.069 0.142-0.023 0.238-0.056l0.067-0.039c-0.089 0.001-0.178-0.001-0.267-0l-0.187 0.011c-0.078 0.022-0.024 0.008-0.048 0.027 0.095 0.090 0.323 0.124 0.468 0.094 0.073-0.015 0.093-0.031 0.117-0.080z"></path>
<path fill="#5b3462" d="M22.519 17.87l0.015 0.226c-0.022 0.111 0.026-0.083-0.011 0.036-0.001 0.005-0.007 0.019-0.008 0.017s-0.006 0.011-0.009 0.016c-0.088-0.018-0.098-0.046-0.102-0.148-0.006-0.128 0.004-0.143 0.115-0.146zM22.467 18.244c0.195-0.061 0.139-0.422 0.019-0.429-0.156-0.009-0.14 0.33-0.019 0.429z"></path>
<path fill="#ca8358" d="M28.211 17.436c-0.004-0.107-0.034-0.259-0.076-0.356-0.033-0.079-0.015-0.052-0.070-0.074l-0.016 0.123c0 0.046-0.002 0.104 0.012 0.145 0.022 0.062 0.096 0.134 0.149 0.162z"></path>
<path fill="#cf3539" d="M28.074 18.222c0.026-0.083 0.032-0.282-0.088-0.304-0.049 0.049-0.092 0.298 0.004 0.313 0.005 0.001 0.011 0.002 0.016 0.003l0.067-0.012z"></path>
<path fill="#6597c8" d="M19.95 13.218c-0.016-0.098-0.059-0.194-0.006-0.281 0.062 0.080-0.009 0.105 0.103 0.187-0.019-0.084-0.043-0.099-0.053-0.201-0.007-0.075-0.005-0.151-0.007-0.226l-0.063-0.019c-0.025 0.091-0.095 0.48 0.025 0.539z"></path>
<path fill="#6e6e71" d="M13.873 19.626c0.053-0.055 0.064-0.103 0.065-0.211 0.001-0.115 0.005-0.188-0.091-0.218-0.021 0.119-0.058 0.343 0.026 0.429z"></path>
<path fill="#dcd9d5" d="M27.949 17.651c-0.006 0.088-0.028 0.076 0.061 0.104 0.023 0.007 0.087 0.017 0.117 0.022l-0.023-0.136c0.016-0.089-0.028-0.12-0.079-0.155-0.048 0.034-0.075 0.104-0.077 0.165z"></path>
<path fill="#b2b1ae" d="M1.508 16.956c-0.032 0.118-0.101 0.198-0.010 0.386 0.020 0.041 0.013 0.026 0.035 0.051 0.024-0.029 0.024-0.007 0.031-0.066l-0.004-0.28c0.004-0.079 0.024-0.114-0.053-0.092z"></path>
<path fill="#8b94ac" d="M26.003 17.374l0.039 0.253-0.072-0.006c0.033 0.064 0.009 0.049 0.092 0.069 0.029-0.166-0.038-0.291-0.002-0.436 0.237-0.080 0.297 0.126 0.416 0.206-0.073-0.145-0.101-0.183-0.266-0.243-0.076-0.019-0.098-0.028-0.175-0.006-0.040 0.063-0.033 0.080-0.032 0.164z"></path>
<path fill="#5b3462" d="M15.428 18.423c0.066-0.040 0.143-0.305-0.037-0.305-0.058 0.072-0.060 0.19-0.024 0.258 0.028 0.053 0.026 0.038 0.061 0.047z"></path>
<path fill="#d28d8e" d="M29.164 17.403l-0.012 0.054 0.295 0.012 0.205-0.004-0.014-0.055c-0.184-0.027-0.288-0.023-0.473-0.008z"></path>
<path fill="#316b41" d="M10.709 14.754c0.027 0.019 0.273 0.192 0.285 0.031 0.008-0.112-0.19-0.134-0.285-0.031z"></path>
<path fill="#0d65a8" d="M22.507 18.164c0.003-0.005 0.008-0.019 0.009-0.016s0.007-0.012 0.008-0.017c0.037-0.119-0.011 0.075 0.011-0.036l-0.015-0.226c-0.11 0.003-0.12 0.019-0.115 0.146 0.004 0.102 0.014 0.13 0.102 0.148z"></path>
<path fill="#352f35" d="M25.89 17.498c0.010 0.071 0.035 0.079 0.080 0.122l0.072 0.006-0.039-0.253c-0.049-0.029-0.015-0.011-0.070-0.026-0.033 0.044-0.060 0.068-0.043 0.151z"></path>
<path fill="#8b94ac" d="M9.976 18.009c0.056-0.029 0.088-0.077 0.126-0.129 0.153-0.001 0.090 0.038 0.201 0.057 0.010-0.093-0.013-0.161-0.045-0.267-0.021-0.071-0.007-0.049-0.057-0.073 0.015 0.108 0.051 0.139 0.044 0.256-0.161-0.021-0.223 0.008-0.27 0.156z"></path>
<path fill="#b0c2d6" d="M4.989 16.384c0.163 0.072 0.146-0.027 0.16-0.158-0.15-0.015-0.201-0.015-0.16 0.158z"></path>
<path fill="#cf3539" d="M26.502 18.227c0.005-0.045 0.017-0.11 0.013-0.154-0.009-0.095-0.018-0.079-0.086-0.079-0.037 0.047-0.041 0.088-0.028 0.161 0.014 0.078 0.023 0.082 0.101 0.071z"></path>
<path fill="#6597c8" d="M21.89 14.446l-0.029-0.129c0.069 0.035 0.040 0.049 0.119 0.094-0.018-0.047-0.116-0.188-0.148-0.223l-0.090-0.048c0.016 0.088 0.074 0.264 0.147 0.306z"></path>
<path fill="#68473a" d="M19.276 19.396c-0.049 0.043-0.058 0.078-0.058 0.176 0 0.183 0.049 0.153 0.063 0.162 0.030-0.106 0.033-0.235-0.005-0.338z"></path>
<path fill="#6e6e71" d="M26.363 17.818l0.229 0.007c0.014-0.077 0.005-0.154-0.046-0.204l0.015 0.165-0.156-0.033-0.043 0.065z"></path>
<path fill="#dcd9d5" d="M16.537 14.569l-0.040 0.012c-0.015 0.035 0.003 0.028-0.021 0.047 0.005 0.010 0.002 0.013 0.018 0.041l0.197-0.111 0.011-0.042c-0.090-0.015-0.097 0.008-0.165 0.053z"></path>
<path fill="#dcd9d5" d="M13.989 15.142l-0.007 0.057c0.11 0.010 0.089-0.022 0.132-0.117-0.027-0.025 0.005-0.008-0.054-0.019-0.049 0.027-0.047 0.021-0.070 0.079z"></path>
</svg>
