<?xml version="1.0" encoding="UTF-8"?>
<!DOCTYPE svg PUBLIC "-//W3C//DTD SVG 1.1//EN" "http://www.w3.org/Graphics/SVG/1.1/DTD/svg11.dtd">
<!-- Creator: CorelDRAW 2017 -->
<svg xmlns="http://www.w3.org/2000/svg" xml:space="preserve" width="20.1506mm" height="23.8758mm" version="1.1" style="shape-rendering:geometricPrecision; text-rendering:geometricPrecision; image-rendering:optimizeQuality; fill-rule:evenodd; clip-rule:evenodd"
viewBox="0 0 2015.06 2387.58"
 xmlns:xlink="http://www.w3.org/1999/xlink">
 <defs>
  <style type="text/css">
   <![CDATA[
    .fil2 {fill:black}
    .fil3 {fill:#848688;fill-rule:nonzero}
    .fil0 {fill:black;fill-rule:nonzero}
    .fil1 {fill:url(#id0)}
   ]]>
  </style>
  <linearGradient id="id0" gradientUnits="userSpaceOnUse" x1="1481.12" y1="2116.41" x2="1500.42" y2="435.98">
   <stop offset="0" style="stop-opacity:1; stop-color:#BFBFBF"/>
   <stop offset="0.141176" style="stop-opacity:1; stop-color:#DEDEDE"/>
   <stop offset="1" style="stop-opacity:1; stop-color:#FEFEFE"/>
  </linearGradient>
 </defs>
 <g id="Capa_x0020_1">
  <metadata id="CorelCorpID_0Corel-Layer"/>
  <g id="_2673934091680">
   <path class="fil0" d="M465.15 2376.16c-5.31,2.58 -10.33,4.65 -15.09,6.16 -4.76,1.61 -9.36,2.61 -13.8,3.15 -10.51,1.29 -19.08,-0.18 -25.58,-4.52 -6.54,-4.33 -10.36,-10.91 -11.45,-19.83 -0.2,-1.59 -0.32,-3.54 -0.28,-6 -0.01,-2.36 0.09,-5.6 0.38,-9.66l2.2 -42.5 -21.15 2.58 1.25 -28.81 21.46 -2.69 1.64 -34.79 39.04 -12.73 -2.1 42.78 26.77 -3.27 -1.57 28.87 -26.76 3.31 -2.06 39.22c-0.09,1.01 -0.14,2.1 -0.05,3.24 0.09,1.09 0.24,2.49 0.44,4.12 0.46,3.58 1.62,6.22 3.41,7.83 1.84,1.61 4.37,2.19 7.72,1.78 1.85,-0.26 4.11,-0.8 6.66,-1.77 2.65,-0.93 6.05,-2.38 10.29,-4.42l-1.37 27.95zm134.97 -126.37l-6.02 113.43 -38.04 4.67 0.86 -17.01c-5.02,7.49 -10.62,13.22 -16.64,17.29 -5.98,4.06 -12.52,6.56 -19.68,7.44 -10.05,1.22 -18.41,-0.67 -25.13,-5.77 -6.76,-5.1 -10.69,-12.4 -11.85,-21.96 -0.15,-1.36 -0.29,-2.72 -0.35,-4.13 -0.01,-1.36 0.03,-2.73 0.11,-4.05l3.89 -76.02 38.5 -4.74 -3.45 64.49c0,0.13 0.01,0.32 0.06,0.54 -0.15,4.06 -0.12,7.11 0.15,9.14 0.4,3.35 1.69,5.9 3.9,7.58 2.16,1.69 4.92,2.35 8.27,1.94 6.38,-0.8 11.85,-4.12 16.3,-9.98 4.4,-5.92 6.88,-13.3 7.38,-22.19l3.07 -55.92 38.67 -4.75zm21.28 110.05l5.94 -113.42 35.18 -4.34 -1.2 22.12c3.65,-8.97 7.78,-15.83 12.42,-20.57 4.63,-4.73 10.02,-7.5 16.09,-8.25 1.77,-0.2 3.67,-0.33 5.55,-0.22 1.86,0.06 3.78,0.3 5.76,0.68l-2.22 39.86c-2.37,-0.27 -4.61,-0.45 -6.75,-0.45 -2.14,-0.05 -4.14,0.07 -6.04,0.29 -7.75,0.95 -13.44,4.23 -17.08,9.79 -3.73,5.61 -5.89,14.21 -6.55,25.93l-2.01 43.77 -39.09 4.81zm100.45 -167.84c-0.69,-5.67 0.7,-10.73 4.21,-15.19 3.51,-4.47 8.04,-7.06 13.7,-7.75 5.75,-0.73 10.86,0.66 15.23,4.12 4.46,3.42 7.02,8.05 7.75,13.8 0.68,5.66 -0.7,10.72 -4.21,15.18 -3.5,4.51 -8.04,7.06 -13.7,7.75 -5.62,0.73 -10.64,-0.71 -15.19,-4.21 -4.47,-3.55 -7.11,-8.09 -7.79,-13.7zm-5.08 156.12l5.76 -113.42 39.35 -4.86 -6.02 113.47 -39.09 4.81zm69.24 -41.35c7.78,3.33 14.84,5.64 21.22,7.02 6.38,1.34 11.94,1.7 16.75,1.14 3.8,-0.47 6.88,-1.82 9.16,-3.96 2.28,-2.14 3.28,-4.59 2.94,-7.31 -0.32,-2.31 -1.44,-4.22 -3.42,-5.73 -1.97,-1.52 -6.18,-3.3 -12.54,-5.32l-7.8 -2.69c-8.91,-3.01 -15.9,-7.14 -20.89,-12.35 -4.95,-5.31 -7.89,-11.61 -8.82,-19.04 -1.29,-10.32 1.85,-19.37 9.46,-27.18 7.6,-7.82 18.06,-12.56 31.32,-14.19 7.75,-0.95 15.4,-0.76 23.06,0.57 7.61,1.38 15.35,3.93 23.25,7.84l-7.6 23.7c-6.59,-3.05 -12.63,-5.22 -18.29,-6.54 -5.6,-1.32 -10.53,-1.71 -14.74,-1.18 -3.99,0.48 -7.17,1.79 -9.45,3.84 -2.28,2.09 -3.23,4.5 -2.89,7.31 0.28,2.53 1.64,4.62 3.98,6.25 2.39,1.64 7.29,3.53 14.66,5.6l7.09 2.03c7.96,2.28 14.39,6.02 19.34,11.37 4.95,5.31 7.84,11.52 8.72,18.68 1.35,11 -1.86,20.46 -9.69,28.38 -7.82,7.91 -18.78,12.77 -32.9,14.52 -8.47,1.03 -16.81,0.91 -25,-0.35 -8.2,-1.27 -16.22,-3.81 -24.11,-7.5l7.19 -24.91zm102.35 20.17l5.97 -113.42 38.18 -4.68 -0.77 16.96c4.89,-7.34 10.35,-13.07 16.32,-17.18 5.94,-4.11 12.39,-6.55 19.27,-7.42 8.2,-1.02 15.3,0.15 21.36,3.55 6.05,3.35 10.45,8.63 13.24,15.8 5.29,-8.63 11.12,-15.28 17.4,-19.95 6.32,-4.67 13.3,-7.46 20.96,-8.4 9.91,-1.22 18.28,0.76 24.9,5.87 6.72,5.14 10.65,12.49 11.81,22.09 0.2,1.36 0.29,2.63 0.35,3.95 0,1.27 -0.03,2.64 -0.11,4.05l-4.17 76.03 -38.45 4.74 3.45 -64.44c0.07,-1.69 0.14,-3.38 0.12,-5.01 -0.07,-1.68 -0.17,-3.23 -0.33,-4.72 -0.4,-3.35 -1.69,-5.9 -3.76,-7.59 -2.07,-1.73 -4.74,-2.35 -7.95,-2 -6.21,0.8 -11.49,4.11 -15.76,9.97 -4.31,5.86 -6.65,13.33 -7.15,22.36l-3.12 55.69 -38.68 4.75 3.45 -64.58c0.14,-2.15 0.2,-4.01 0.23,-5.65 0.02,-1.6 -0.08,-2.91 -0.16,-3.96 -0.41,-3.26 -1.74,-5.8 -3.9,-7.53 -2.17,-1.73 -4.88,-2.4 -8.05,-2 -6.25,0.76 -11.48,4.06 -15.8,9.93 -4.27,5.86 -6.61,13.32 -7.1,22.4l-3.13 55.65 -38.62 4.74zm208.69 -76.96c-2.3,-18.52 2.19,-34.9 13.35,-49.14 11.26,-14.25 26.26,-22.54 45.14,-24.9 16.76,-2.04 31.09,1.34 42.97,10.23 11.92,8.9 18.84,21.45 20.82,37.71 2.3,18.66 -2.09,35.13 -13.07,49.5 -11.02,14.41 -25.66,22.69 -43.86,24.93 -17.53,2.17 -32.28,-1.24 -44.24,-10.14 -12.05,-8.88 -19.08,-21.62 -21.11,-38.19zm60.37 -44.53c-6.8,0.82 -12.31,5.13 -16.41,12.9 -4.15,7.77 -5.61,16.7 -4.33,26.8 0.95,7.88 3.61,14.01 7.89,18.48 4.32,4.42 9.26,6.27 14.97,5.58 6.83,-0.87 12.26,-5.09 16.23,-12.76 3.97,-7.67 5.33,-16.69 4.05,-27.15 -1,-7.79 -3.52,-13.92 -7.66,-18.31 -4.14,-4.38 -9.04,-6.28 -14.74,-5.54zm152.99 69.5l5.97 -113.42 35.14 -4.33 -1.15 22.11c3.64,-8.97 7.78,-15.87 12.41,-20.61 4.59,-4.69 9.98,-7.46 16.05,-8.2 1.81,-0.21 3.68,-0.33 5.54,-0.27 1.92,0.06 3.79,0.3 5.77,0.72l-2.22 39.86c-2.38,-0.31 -4.61,-0.45 -6.75,-0.5 -2.14,0 -4.14,0.08 -6.04,0.34 -7.74,0.95 -13.44,4.23 -17.08,9.79 -3.74,5.57 -5.89,14.21 -6.56,25.89l-1.96 43.81 -39.12 4.81zm92.17 -62.66c-2.29,-18.47 2.19,-34.85 13.36,-49.09 11.21,-14.29 26.25,-22.59 45.14,-24.9 16.71,-2.04 31.04,1.34 42.96,10.19 11.87,8.94 18.8,21.45 20.82,37.75 2.3,18.61 -2.09,35.13 -13.07,49.5 -11.02,14.37 -25.66,22.7 -43.86,24.93 -17.53,2.12 -32.27,-1.24 -44.24,-10.14 -12.05,-8.88 -19.07,-21.66 -21.11,-38.24zm60.37 -44.48c-6.79,0.82 -12.31,5.13 -16.41,12.9 -4.14,7.77 -5.61,16.66 -4.33,26.75 0.95,7.93 3.57,14.06 7.89,18.53 4.32,4.42 9.26,6.27 14.97,5.58 6.84,-0.87 12.26,-5.09 16.23,-12.76 3.93,-7.67 5.29,-16.73 4,-27.15 -0.95,-7.83 -3.47,-13.92 -7.61,-18.31 -4.13,-4.38 -9.08,-6.27 -14.74,-5.54zm83.15 45.29c7.74,3.33 14.84,5.68 21.18,7.02 6.42,1.33 11.94,1.7 16.75,1.14 3.84,-0.47 6.88,-1.82 9.21,-3.97 2.23,-2.13 3.23,-4.59 2.89,-7.3 -0.27,-2.31 -1.4,-4.23 -3.42,-5.74 -1.97,-1.51 -6.14,-3.3 -12.5,-5.32l-7.84 -2.68c-8.91,-3.01 -15.86,-7.15 -20.85,-12.36 -4.99,-5.26 -7.93,-11.6 -8.86,-19.03 -1.24,-10.33 1.9,-19.37 9.46,-27.19 7.64,-7.81 18.06,-12.56 31.33,-14.19 7.74,-0.95 15.39,-0.75 23.05,0.58 7.65,1.37 15.4,3.92 23.3,7.84l-7.65 23.7c-6.54,-3.06 -12.63,-5.23 -18.24,-6.55 -5.65,-1.32 -10.54,-1.71 -14.75,-1.18 -3.98,0.48 -7.16,1.79 -9.49,3.85 -2.24,2.09 -3.23,4.5 -2.89,7.35 0.33,2.49 1.64,4.62 4.03,6.21 2.39,1.63 7.24,3.53 14.65,5.59l7.09 2.04c7.97,2.27 14.4,6.02 19.3,11.37 5,5.31 7.89,11.52 8.77,18.67 1.35,11 -1.91,20.47 -9.69,28.38 -7.83,7.92 -18.83,12.77 -32.91,14.53 -8.47,1.02 -16.8,0.9 -25.04,-0.31 -8.15,-1.31 -16.22,-3.85 -24.1,-7.49l7.22 -24.96zm179.76 -66.6c-2.47,-3.82 -5.26,-6.48 -8.33,-8.13 -3.07,-1.61 -6.51,-2.2 -10.27,-1.73 -7.88,0.96 -14.05,5.89 -18.56,14.68 -4.52,8.83 -6.01,19.31 -4.47,31.44 0.76,6.39 2.96,11.35 6.56,14.85 3.55,3.45 8.03,4.86 13.28,4.24 5.98,-0.74 10.76,-3.94 14.49,-9.6 3.64,-5.65 5.75,-13.29 6.23,-22.82l1.07 -22.93zm40.33 -40.41l-5.75 113.37 -38.49 4.79 0.52 -11.81c-5.25,6.22 -10.39,10.89 -15.4,14.09 -5.01,3.21 -10.31,5.15 -15.88,5.83 -11.54,1.42 -21.32,-1.87 -29.48,-9.91 -8.2,-8.05 -13.16,-19.36 -14.98,-33.99 -2.5,-20.28 0.66,-37.75 9.44,-52.48 8.79,-14.69 20.96,-23.01 36.63,-24.97 6.21,-0.75 11.96,-0.21 17.31,1.53 5.4,1.83 11.13,5.11 17.1,9.87l0.35 -11.57 38.63 -4.75z"/>
   <path class="fil1" d="M799.13 324.52c-126.98,39.88 -200.81,59.83 -317.09,149.04 -269.51,206.76 -431.97,613.73 -326.66,928.68 41.77,124.95 74.01,218.57 148.01,313.92 414.17,533.66 1155.38,444.92 1463.36,-49.34 262.55,-421.35 152.4,-942.4 -266.33,-1230.84 -158.48,-109.17 -451.89,-189.77 -701.29,-111.46z"/>
   <path class="fil2" d="M1015.67 402.31l0.03 0c431.01,0 783.65,352.64 783.65,783.65l0 0.02c0,365.97 -254.26,675.38 -594.84,760.45 44.77,-82.36 21.12,-180.56 -59.62,-235.95 -31.85,-21.84 -90.84,-37.98 -140.97,-22.31 -25.53,7.98 -40.37,11.98 -63.74,29.83 -54.18,41.39 -86.84,122.85 -65.67,185.89 7.57,22.52 13.58,39.96 25.56,57.14 -376.71,-56.32 -668.04,-383.29 -668.04,-775.05l0 -0.02c0,-431.01 352.63,-783.65 783.64,-783.65zm-239.13 1074.03c-88.9,-102.92 -148.53,-146.61 -219.62,-323.89 -169.21,-422.02 14.49,-677.43 259.2,-230.37 87.98,160.69 93.81,248.87 117.75,436.79l65.2 -12.3c-2.8,-151.9 35.17,-333.19 98.55,-423.97 52.14,-74.65 264.82,-216.4 413.96,-164.25 94.81,33.18 75.13,115.25 8.36,166.5 -169.73,130.25 -144.35,144.71 -230.36,315.9 -37.57,74.79 -72.44,97.78 -113.78,162.57 32.21,49.48 125.21,111.7 101.68,258.83 -143.85,-33.5 -259.74,-55.21 -417.71,24.65 -26.2,13.26 -37.4,23.52 -58.73,35.03 -114.08,61.63 -59.45,-195.18 -24.5,-245.49z"/>
   <path class="fil0" d="M166.13 320.87l-47.92 -66.95 -49.44 66.95 -69 0 84.03 -109.9 -81.18 -108.29 71.04 0 46.24 63.66 47.39 -63.66 67.39 0 -81.18 106.6 84.38 111.59 -71.75 0zm82.34 -218.19l63.3 0 0 218.19 -63.3 0 0 -218.19zm31.65 -30.5c-11.56,0 -21.07,-3.38 -28.36,-10.14 -7.3,-6.76 -10.94,-15.11 -10.94,-25.07 0,-10.05 3.64,-18.41 10.94,-25.16 7.29,-6.76 16.8,-10.14 28.36,-10.14 11.65,0 21.16,3.2 28.45,9.69 7.29,6.49 10.94,14.58 10.94,24.36 0,10.58 -3.65,19.3 -10.94,26.14 -7.29,6.94 -16.8,10.32 -28.45,10.32zm70.24 30.5l63.31 0 0 218.19 -63.31 0 0 -218.19zm31.66 -30.5c-11.56,0 -21.08,-3.38 -28.37,-10.14 -7.29,-6.76 -10.93,-15.11 -10.93,-25.07 0,-10.05 3.64,-18.41 10.93,-25.16 7.29,-6.76 16.81,-10.14 28.37,-10.14 11.64,0 21.16,3.2 28.45,9.69 7.29,6.49 10.93,14.58 10.93,24.36 0,10.58 -3.64,19.3 -10.93,26.14 -7.29,6.94 -16.81,10.32 -28.45,10.32zm199.25 27.21c20.28,0 38.77,4.71 55.4,14.04 16.62,9.25 29.69,22.41 39.12,39.3 9.51,16.9 14.23,36.55 14.23,59.04 0,22.41 -4.72,42.15 -14.23,59.04 -9.43,16.9 -22.5,29.97 -39.12,39.3 -16.63,9.34 -35.12,13.96 -55.4,13.96 -29.96,0 -52.81,-9.42 -68.55,-28.36l0 25.16 -60.46 0 0 -300.97 63.31 0 0 105.89c16,-17.6 37.87,-26.4 65.7,-26.4zm-10.93 172.85c16.18,0 29.52,-5.52 39.92,-16.45 10.4,-10.94 15.65,-25.61 15.65,-44.02 0,-18.4 -5.25,-33.07 -15.65,-44.01 -10.4,-10.94 -23.74,-16.45 -39.92,-16.45 -16.19,0 -29.52,5.51 -39.93,16.45 -10.4,10.94 -15.65,25.61 -15.65,44.01 0,18.41 5.25,33.08 15.65,44.02 10.41,10.93 23.74,16.45 39.93,16.45zm251.62 1.15c11.39,0 21.43,-1.69 30.24,-5.07 8.71,-3.37 16.89,-8.71 24.54,-16l33.61 36.54c-20.54,23.48 -50.51,35.21 -89.99,35.21 -24.62,0 -46.41,-4.71 -65.35,-14.31 -18.94,-9.6 -33.52,-22.94 -43.83,-40.01 -10.23,-16.99 -15.38,-36.37 -15.38,-57.98 0,-21.34 5.06,-40.63 15.2,-57.79 10.14,-17.16 24.1,-30.59 41.79,-40.19 17.69,-9.6 37.61,-14.4 59.84,-14.4 20.8,0 39.74,4.44 56.82,13.16 16.98,8.8 30.58,21.51 40.72,38.14 10.13,16.63 15.2,36.37 15.2,59.04l-161.47 31.21c4.63,10.85 11.83,18.94 21.7,24.36 9.87,5.42 22.05,8.09 36.36,8.09zm-9.33 -126.17c-16.01,0 -28.99,5.16 -38.95,15.47 -10.04,10.23 -15.29,24.45 -15.82,42.59l106.25 -20.71c-2.93,-11.38 -9.07,-20.37 -18.23,-27.12 -9.16,-6.85 -20.27,-10.23 -33.25,-10.23zm195.61 -15.74c7.56,-10.58 17.78,-18.58 30.68,-24 12.8,-5.34 27.65,-8.09 44.37,-8.09l0 58.41c-7.03,-0.53 -11.74,-0.8 -14.14,-0.8 -18.14,0 -32.37,5.07 -42.68,15.21 -10.23,10.13 -15.38,25.34 -15.38,45.61l0 103.05 -63.31 0 0 -218.19 60.46 0 0 28.8z"/>
   <path class="fil3" d="M1232.75 306.11c-4.45,4.09 -10.05,7.2 -16.54,9.34 -6.58,2.13 -13.51,3.2 -20.71,3.2 -16.72,0 -29.61,-4.54 -38.68,-13.52 -9.07,-9.06 -13.52,-21.87 -13.52,-38.32l0 -167.25 24.01 0 0 39.04 53.97 0 0 20.36 -53.97 0 0 106.43c0,10.67 2.67,18.76 7.82,24.27 5.25,5.52 12.81,8.27 22.77,8.27 10.84,0 19.65,-3.02 26.4,-9.16l8.45 17.34zm51.22 -132.57c5.69,-12 14.04,-21.07 25.25,-27.12 11.2,-6.13 25.07,-9.16 41.52,-9.16l0 23.39 -5.78 -0.36c-18.76,0 -33.43,5.78 -44.01,17.25 -10.67,11.56 -16.01,27.74 -16.01,48.55l0 90.87 -24 0 0 -178.36 23.03 0 0 34.94zm255.63 -34.94l0 178.36 -23.03 0 0 -35.3c-7.21,12 -16.81,21.16 -28.63,27.48 -11.92,6.31 -25.26,9.51 -40.19,9.51 -16.72,0 -31.92,-3.82 -45.44,-11.56 -13.6,-7.65 -24.18,-18.4 -31.92,-32.19 -7.65,-13.78 -11.56,-29.52 -11.56,-47.12 0,-17.61 3.91,-33.34 11.56,-47.13 7.74,-13.78 18.32,-24.45 31.92,-32.09 13.52,-7.56 28.72,-11.3 45.44,-11.3 14.4,0 27.47,2.94 39.12,8.98 11.65,5.96 21.25,14.76 28.72,26.23l0 -33.87 24.01 0zm-89.81 158.71c12.36,0 23.65,-2.93 33.7,-8.62 10.05,-5.78 17.96,-13.96 23.74,-24.63 5.78,-10.58 8.62,-22.77 8.62,-36.28 0,-13.61 -2.84,-25.7 -8.62,-36.28 -5.78,-10.67 -13.69,-18.85 -23.74,-24.63 -10.05,-5.78 -21.34,-8.62 -33.7,-8.62 -12.71,0 -24.09,2.84 -34.14,8.62 -10.05,5.78 -17.96,13.96 -23.74,24.63 -5.78,10.58 -8.63,22.67 -8.63,36.28 0,13.51 2.85,25.7 8.63,36.28 5.78,10.67 13.69,18.85 23.74,24.63 10.05,5.69 21.43,8.62 34.14,8.62zm291.2 -158.71l-79.32 178.36 -24.8 0 -78.96 -178.36 25.08 0 66.77 151.95 67.49 -151.95 23.74 0zm89.53 158.71c11.03,0 21.25,-1.96 30.68,-5.96 9.34,-3.91 17.34,-9.78 23.92,-17.42l13.51 15.56c-7.91,9.51 -17.69,16.71 -29.43,21.69 -11.82,4.98 -24.81,7.47 -39.03,7.47 -18.32,0 -34.59,-3.91 -48.82,-11.74 -14.22,-7.73 -25.34,-18.58 -33.25,-32.36 -7.91,-13.78 -11.91,-29.34 -11.91,-46.77 0,-17.43 3.82,-32.99 11.38,-46.77 7.55,-13.87 18.05,-24.54 31.38,-32.28 13.34,-7.64 28.46,-11.47 45.44,-11.47 15.83,0 30.14,3.56 42.94,10.85 12.72,7.2 22.94,17.25 30.5,30.14 7.56,12.9 11.56,27.57 12.01,44.1l-146.45 28.46c4.45,14.49 12.72,25.87 24.54,34.14 11.92,8.18 26.06,12.36 42.59,12.36zm-6.13 -139.42c-12.45,0 -23.56,2.94 -33.43,8.63 -9.78,5.78 -17.52,13.87 -23.03,24.09 -5.51,10.32 -8.27,22.14 -8.27,35.48 0,3.38 0.09,5.87 0.27,7.47l125.81 -24.45c-2.67,-14.94 -9.6,-27.21 -20.63,-36.81 -11.11,-9.61 -24.63,-14.41 -40.72,-14.41zm169.2 160.76c-16,0 -28.45,-4.54 -37.16,-13.52 -8.63,-9.06 -12.98,-21.6 -12.98,-37.7l0 -202.1 24 0 0 200.06c0,10.67 2.49,18.76 7.47,24.27 4.98,5.52 12.45,8.27 22.41,8.27 6.31,0 11.73,-0.98 16.27,-3.02l1.69 20.01c-7.03,2.48 -14.23,3.73 -21.7,3.73z"/>
  </g>
 </g>
</svg>
