<?xml version="1.0" encoding="UTF-8"?>
<!DOCTYPE svg PUBLIC "-//W3C//DTD SVG 1.1//EN" "http://www.w3.org/Graphics/SVG/1.1/DTD/svg11.dtd">
<!-- Creator: CorelDRAW 2017 -->
<svg xmlns="http://www.w3.org/2000/svg" xml:space="preserve" width="33.8666mm" height="33.8666mm" version="1.1" style="shape-rendering:geometricPrecision; text-rendering:geometricPrecision; image-rendering:optimizeQuality; fill-rule:evenodd; clip-rule:evenodd"
viewBox="0 0 3386.66 3386.66"
 xmlns:xlink="http://www.w3.org/1999/xlink">
 <defs>
  <style type="text/css">
   <![CDATA[
    .fil1 {fill:black}
    .fil0 {fill:black;fill-rule:nonzero}
   ]]>
  </style>
 </defs>
 <g id="Capa_x0020_1">
  <metadata id="CorelCorpID_0Corel-Layer"/>
  <g id="_2338429814448">
   <g>
    <g>
     <g>
      <path class="fil0" d="M2806.9 648.73l-810.41 0 0 -19.88 810.41 0 9.94 9.94 -9.94 9.94zm0 -19.88c5.48,0 9.94,4.46 9.94,9.94 0,5.48 -4.46,9.94 -9.94,9.94l0 -19.88zm-9.94 133.89l0 -123.95 19.88 0 0 123.95 -9.94 9.94 -9.94 -9.94zm19.88 0c0,5.48 -4.46,9.94 -9.94,9.94 -5.48,0 -9.94,-4.46 -9.94,-9.94l19.88 0zm-148.04 7.03l-19.36 -4.52 7.43 -7.42 4.29 -0.94 4.39 -0.86 4.45 -0.76 4.51 -0.67 4.59 -0.6 4.62 -0.52 4.68 -0.45 4.73 -0.38 4.77 -0.33 4.8 -0.26 4.83 -0.21 4.86 -0.17 4.89 -0.12 4.91 -0.07 4.9 -0.04 4.92 0 4.91 0.02 4.91 0.05 4.9 0.07 4.89 0.09 4.86 0.1 4.84 0.12 4.79 0.12 4.77 0.12 4.72 0.13 4.67 0.12 4.61 0.11 4.55 0.1 4.47 0.08 4.43 0.06 4.33 0.05 4.24 0.01 0 19.88 -4.38 -0.01 -4.43 -0.05 -4.49 -0.06 -4.57 -0.08 -4.61 -0.1 -4.65 -0.11 -4.69 -0.12 -4.72 -0.13 -4.75 -0.12 -4.79 -0.12 -4.8 -0.12 -4.8 -0.1 -4.81 -0.09 -4.82 -0.07 -4.81 -0.05 -4.81 -0.02 -4.8 0 -4.76 0.04 -4.73 0.07 -4.71 0.12 -4.66 0.15 -4.63 0.21 -4.56 0.24 -4.51 0.31 -4.45 0.36 -4.38 0.43 -4.3 0.48 -4.21 0.54 -4.13 0.63 -4.03 0.68 -3.91 0.76 -3.83 0.84 7.43 -7.42zm-7.43 7.42c-5.34,1.24 -10.69,-2.09 -11.93,-7.43 -1.24,-5.34 2.09,-10.69 7.43,-11.93l4.5 19.36zm16.82 28.05l0 19.88 0 0 -3.36 -0.11 -3.23 -0.36 -3.09 -0.6 -2.95 -0.85 -2.81 -1.12 -2.62 -1.36 -2.44 -1.62 -2.22 -1.86 -1.93 -2 -1.69 -2.16 -1.45 -2.28 -1.2 -2.33 -0.98 -2.39 -0.78 -2.39 -0.6 -2.4 -0.45 -2.43 -0.31 -2.4 -0.18 -2.37 -0.09 -2.33 0 -2.35 0.09 -2.31 0.15 -2.26 0.22 -2.26 0.26 -2.17 0.3 -2.14 0.34 -2.11 0.37 -2.01 0.37 -1.96 0.4 -1.89 0.38 -1.75 0.38 -1.7 0.37 -1.6 19.36 4.52 -0.35 1.48 -0.34 1.56 -0.36 1.65 -0.34 1.63 -0.33 1.7 -0.31 1.73 -0.28 1.71 -0.24 1.76 -0.22 1.75 -0.16 1.7 -0.11 1.72 -0.07 1.65 0 1.59 0.05 1.57 0.12 1.47 0.17 1.36 0.23 1.25 0.3 1.16 0.32 1.03 0.38 0.91 0.4 0.79 0.41 0.66 0.47 0.58 0.51 0.54 0.52 0.44 0.64 0.42 0.8 0.42 0.95 0.38 1.17 0.33 1.43 0.28 1.67 0.18 1.96 0.07 0 0zm0 0c5.48,0 9.94,4.46 9.94,9.94 0,5.48 -4.46,9.94 -9.94,9.94l0 -19.88zm328.93 19.88l-328.93 0 0 -19.88 328.93 0 9.94 9.94 -9.94 9.94zm0 -19.88c5.48,0 9.94,4.46 9.94,9.94 0,5.48 -4.46,9.94 -9.94,9.94l0 -19.88zm-9.94 110.05l0 -100.11 19.88 0 0 100.11 -9.94 9.94 -9.94 -9.94zm19.88 0c0,5.48 -4.46,9.94 -9.94,9.94 -5.48,0 -9.94,-4.46 -9.94,-9.94l19.88 0zm-152.55 119.18l-19.88 0 0 0 -0.06 -12.95 -0.14 -12.01 -0.19 -11.11 -0.19 -10.27 -0.16 -9.46 -0.09 -8.7 0.02 -8 0.19 -7.36 0.39 -6.77 0.66 -6.24 1 -5.82 1.44 -5.44 2.01 -5.12 2.7 -4.71 3.44 -4.22 4.15 -3.56 4.67 -2.8 5.1 -2.14 5.49 -1.55 5.86 -1.09 6.36 -0.74 6.9 -0.45 7.52 -0.22 8.21 -0.04 8.97 0.09 9.78 0.2 10.65 0.27 11.54 0.3 12.52 0.29 13.51 0.25 14.57 0.18 15.67 0.07 0 19.88 -15.83 -0.07 -14.71 -0.18 -13.63 -0.25 -12.58 -0.29 -11.58 -0.3 -10.59 -0.27 -9.64 -0.2 -8.71 -0.09 -7.83 0.04 -6.92 0.2 -6.06 0.39 -5.18 0.6 -4.34 0.81 -3.47 0.97 -2.66 1.1 -1.99 1.2 -1.51 1.28 -1.26 1.56 -1.16 2.03 -1.05 2.7 -0.92 3.5 -0.74 4.32 -0.54 5.16 -0.35 5.99 -0.17 6.8 -0.02 7.66 0.09 8.5 0.16 9.38 0.19 10.27 0.19 11.19 0.14 12.13 0.06 13.11 0 0zm0 0c0,5.48 -4.46,9.94 -9.94,9.94 -5.48,0 -9.94,-4.46 -9.94,-9.94l19.88 0zm6.92 47.73l-5.12 -19.2 -7.04 12.16 -0.41 -1.41 -0.41 -1.3 -0.41 -1.16 -0.43 -1.06 -0.43 -0.99 -0.42 -0.88 -0.43 -0.83 -0.43 -0.76 -0.46 -0.76 -0.46 -0.73 -0.5 -0.74 -0.52 -0.76 -0.55 -0.77 -0.58 -0.82 -0.6 -0.84 -0.66 -0.96 -0.66 -0.99 -0.67 -1.08 -0.68 -1.16 -0.65 -1.22 -0.66 -1.35 -0.62 -1.44 -0.55 -1.48 -0.51 -1.56 -0.46 -1.64 -0.4 -1.75 -0.34 -1.84 -0.26 -1.87 -0.21 -1.94 -0.16 -2.13 -0.08 -2.18 -0.03 -2.29 19.88 0 0.03 1.79 0.06 1.6 0.1 1.39 0.15 1.32 0.16 1.17 0.18 0.98 0.2 0.87 0.22 0.8 0.23 0.72 0.25 0.64 0.24 0.58 0.26 0.53 0.33 0.6 0.32 0.56 0.39 0.6 0.42 0.65 0.46 0.66 0.54 0.76 0.58 0.82 0.63 0.89 0.66 0.96 0.7 1.04 0.72 1.13 0.74 1.22 0.75 1.34 0.73 1.41 0.72 1.5 0.69 1.59 0.67 1.7 0.65 1.82 0.61 1.9 0.57 2.03 -7.04 12.16zm7.04 -12.16c1.41,5.3 -1.74,10.75 -7.04,12.16 -5.3,1.41 -10.75,-1.74 -12.16,-7.04l19.2 -5.12zm-333.76 107.85l0 -19.88 0 0 18.47 -0.24 17.77 -0.71 17.07 -1.13 16.41 -1.53 15.75 -1.92 15.11 -2.25 14.48 -2.57 13.87 -2.86 13.28 -3.12 12.7 -3.34 12.13 -3.54 11.59 -3.72 11.06 -3.86 10.54 -3.96 10.04 -4.06 9.55 -4.13 9.09 -4.14 8.64 -4.16 8.19 -4.13 7.78 -4.08 7.38 -4.01 6.99 -3.9 6.62 -3.77 6.28 -3.62 5.95 -3.43 5.63 -3.23 5.35 -2.99 5.11 -2.75 4.91 -2.47 4.72 -2.15 4.59 -1.81 4.55 -1.43 5.12 19.2 -2.99 0.95 -3.47 1.37 -3.92 1.79 -4.31 2.17 -4.73 2.55 -5.13 2.87 -5.53 3.17 -5.93 3.41 -6.32 3.64 -6.74 3.85 -7.17 4 -7.6 4.13 -8.04 4.22 -8.51 4.29 -8.98 4.32 -9.47 4.32 -9.95 4.29 -10.48 4.24 -10.98 4.14 -11.54 4.02 -12.07 3.88 -12.65 3.68 -13.2 3.48 -13.8 3.24 -14.41 2.96 -15.02 2.67 -15.65 2.33 -16.29 1.98 -16.95 1.59 -17.61 1.17 -18.29 0.73 -18.99 0.24 0 0zm0 0c-5.48,0 -9.94,-4.46 -9.94,-9.94 0,-5.48 4.46,-9.94 9.94,-9.94l0 19.88zm-457.65 -272.54l0 19.88 8.26 -15.47 9.44 13.67 9.78 13.4 10.15 13.1 10.5 12.81 10.84 12.49 11.17 12.16 11.5 11.84 11.82 11.5 12.14 11.14 12.45 10.78 12.74 10.41 13.05 10.02 13.34 9.63 13.62 9.23 13.91 8.82 14.17 8.39 14.43 7.97 14.7 7.52 14.95 7.07 15.19 6.61 15.44 6.13 15.67 5.67 15.9 5.16 16.14 4.66 16.33 4.16 16.56 3.63 16.76 3.1 16.96 2.56 17.16 2 17.34 1.45 17.53 0.87 17.71 0.3 0 19.88 -18.37 -0.3 -18.19 -0.91 -18 -1.51 -17.82 -2.08 -17.62 -2.66 -17.4 -3.22 -17.2 -3.77 -16.97 -4.32 -16.74 -4.84 -16.52 -5.36 -16.27 -5.87 -16.04 -6.37 -15.77 -6.87 -15.51 -7.33 -15.26 -7.8 -14.97 -8.27 -14.69 -8.71 -14.41 -9.14 -14.12 -9.55 -13.82 -9.99 -13.51 -10.38 -13.2 -10.77 -12.89 -11.16 -12.56 -11.54 -12.22 -11.88 -11.9 -12.24 -11.55 -12.58 -11.2 -12.91 -10.84 -13.23 -10.49 -13.54 -10.12 -13.84 -9.74 -14.13 8.26 -15.47zm-8.26 15.47c-3.05,-4.56 -1.83,-10.74 2.73,-13.79 4.56,-3.05 10.74,-1.83 13.79,2.73l-16.52 11.06zm156.04 4.41l-147.78 0 0 -19.88 147.78 0 8.26 15.48 -8.26 4.4zm0 -19.88c5.48,0 9.94,4.46 9.94,9.94 0,5.48 -4.46,9.94 -9.94,9.94l0 -19.88zm4.37 -9.13l19.88 0 0 0 -0.19 2.09 -0.41 1.64 -0.48 1.26 -0.46 0.97 -0.49 0.92 -0.51 0.83 -0.47 0.73 -0.5 0.74 -0.55 0.77 -0.55 0.75 -0.57 0.74 -0.59 0.74 -0.57 0.72 -0.6 0.72 -0.6 0.73 -0.61 0.73 -0.6 0.71 -0.61 0.72 -0.65 0.76 -0.61 0.7 -0.54 0.65 -0.61 0.72 -0.58 0.68 -0.54 0.64 -0.54 0.65 -0.49 0.59 -0.44 0.54 -0.43 0.55 -0.39 0.5 -0.33 0.44 -0.28 0.37 -0.2 0.31 -16.52 -11.08 0.5 -0.71 0.52 -0.73 0.53 -0.7 0.53 -0.68 0.55 -0.69 0.58 -0.72 0.59 -0.71 0.58 -0.69 0.6 -0.72 0.6 -0.7 0.57 -0.68 0.66 -0.77 0.61 -0.7 0.55 -0.66 0.59 -0.7 0.58 -0.69 0.55 -0.65 0.54 -0.65 0.5 -0.62 0.49 -0.6 0.43 -0.54 0.39 -0.52 0.35 -0.45 0.27 -0.39 0.26 -0.38 0.21 -0.33 0.09 -0.15 0.01 -0.02 -0.06 0.13 -0.18 0.48 -0.23 0.94 -0.13 1.47 0 0zm0 0c0,-5.48 4.46,-9.94 9.94,-9.94 5.48,0 9.94,4.46 9.94,9.94l-19.88 0zm-71.09 -23.43l-0.02 -19.88 0 0 3.69 -0.03 3.71 -0.07 3.72 -0.1 3.73 -0.12 3.73 -0.12 3.7 -0.12 3.7 -0.11 3.67 -0.08 3.65 -0.05 3.62 0 3.58 0.06 3.55 0.14 3.5 0.23 3.45 0.33 3.39 0.45 3.37 0.6 3.32 0.76 3.25 0.95 3.16 1.16 3.1 1.4 3.01 1.67 2.87 1.97 2.69 2.28 2.46 2.55 2.24 2.88 1.93 3.15 1.63 3.39 1.31 3.63 1.01 3.81 0.7 4.04 0.41 4.23 0.14 4.43 -19.88 0 -0.1 -3.19 -0.27 -2.83 -0.44 -2.46 -0.55 -2.15 -0.67 -1.83 -0.75 -1.57 -0.83 -1.35 -0.9 -1.16 -1.04 -1.07 -1.13 -0.96 -1.29 -0.87 -1.47 -0.83 -1.66 -0.74 -1.88 -0.68 -2.07 -0.61 -2.24 -0.52 -2.45 -0.42 -2.63 -0.35 -2.79 -0.27 -2.94 -0.19 -3.07 -0.12 -3.2 -0.06 -3.3 0 -3.43 0.05 -3.51 0.08 -3.6 0.11 -3.68 0.12 -3.73 0.12 -3.79 0.12 -3.86 0.1 -3.89 0.07 -3.93 0.03 0 0zm0 0c-5.48,0 -9.95,-4.45 -9.95,-9.93 0,-5.48 4.45,-9.95 9.93,-9.95l0.02 19.88zm-123.72 -6.4l18.58 -7.08 -9.29 -6.4 3.58 0 3.57 0 3.58 0 3.57 0 3.58 0 3.58 0 3.58 0.01 3.57 0 3.57 0 3.58 0 3.57 0 3.58 0 3.58 0 3.58 0.01 3.56 0 3.58 0 3.58 0 3.57 0 3.58 0 3.57 0 3.58 0 3.57 0 3.58 0 3.58 0 3.57 0 3.58 0 3.56 0 3.58 -0.01 3.58 0 3.57 0 3.57 -0.01 3.58 0 0.02 19.88 -3.58 0 -3.57 0.01 -3.59 0 -3.56 0 -3.58 0.01 -3.58 0 -3.58 0 -3.57 0 -3.58 0 -3.58 0 -3.57 0 -3.58 0 -3.57 0 -3.58 0 -3.57 0 -3.58 0 -3.58 0 -3.58 0 -3.58 -0.01 -3.56 0 -3.58 0 -3.57 0 -3.58 0 -3.57 0 -3.59 0 -3.58 -0.01 -3.56 0 -3.58 0 -3.57 0 -3.58 0 -3.57 0 -3.58 0 -9.29 -6.4zm9.29 6.4c-5.48,0 -9.94,-4.46 -9.94,-9.94 0,-5.48 4.46,-9.94 9.94,-9.94l0 19.88zm-28.85 -113.59l38.14 100.11 -18.58 7.08 -38.14 -100.11 9.29 -13.48 9.29 6.4zm-18.58 7.08c-1.95,-5.13 0.62,-10.88 5.75,-12.83 5.13,-1.95 10.88,0.62 12.83,5.75l-18.58 7.08zm328.55 -10.55l19.36 4.5 -7.43 7.43 -6.33 1.31 -6.97 1.14 -7.58 1.01 -8.19 0.88 -8.75 0.75 -9.26 0.65 -9.76 0.56 -10.21 0.45 -10.61 0.37 -10.98 0.29 -11.3 0.21 -11.57 0.14 -11.79 0.08 -11.98 0.02 -12.14 -0.03 -12.22 -0.08 -12.28 -0.11 -12.27 -0.15 -12.25 -0.18 -12.15 -0.2 -12.03 -0.22 -11.85 -0.23 -11.63 -0.23 -11.36 -0.24 -11.05 -0.22 -10.7 -0.22 -10.28 -0.2 -9.83 -0.18 -9.33 -0.14 -8.79 -0.11 -8.2 -0.07 -7.55 -0.03 0 -19.88 7.67 0.03 8.28 0.07 8.87 0.11 9.39 0.14 9.87 0.18 10.3 0.2 10.7 0.22 11.05 0.22 11.36 0.24 11.61 0.23 11.85 0.23 11.99 0.22 12.13 0.2 12.19 0.18 12.23 0.15 12.22 0.11 12.16 0.08 12.04 0.03 11.9 -0.02 11.69 -0.08 11.45 -0.14 11.16 -0.21 10.82 -0.29 10.43 -0.35 9.99 -0.45 9.5 -0.54 8.98 -0.63 8.39 -0.73 7.73 -0.82 7.04 -0.93 6.27 -1.04 5.43 -1.11 -7.43 7.43zm7.43 -7.43c5.34,-1.24 10.69,2.09 11.93,7.43 1.24,5.34 -2.09,10.69 -7.43,11.93l-4.5 -19.36zm-7.27 -28.06l-0.04 -19.88 8.28 4.41 1.37 2 1.27 1.77 1.2 1.6 1.12 1.45 1.03 1.27 0.98 1.16 0.93 1.07 0.88 0.99 0.87 1 0.85 0.97 0.81 0.97 0.82 1.04 0.89 1.23 0.84 1.36 0.75 1.45 0.69 1.71 0.5 1.72 0.35 1.76 0.17 1.8 0.04 1.72 -0.08 1.74 -0.17 1.7 -0.23 1.7 -0.31 1.8 -0.36 1.91 -0.43 2.02 -0.48 2.2 -0.54 2.42 -0.61 2.61 -0.67 2.85 -0.73 3.08 -0.79 3.39 -19.36 -4.5 0.79 -3.41 0.73 -3.12 0.67 -2.83 0.59 -2.53 0.52 -2.26 0.44 -2.04 0.37 -1.8 0.3 -1.53 0.21 -1.28 0.15 -1.08 0.09 -0.8 0.02 -0.52 0 -0.32 -0.01 -0.06 0.01 0.04 0.04 0.12 0.07 0.19 -0.03 -0.03 -0.06 -0.12 -0.19 -0.25 -0.4 -0.5 -0.55 -0.65 -0.67 -0.79 -0.81 -0.9 -0.96 -1.09 -1.07 -1.25 -1.18 -1.4 -1.27 -1.57 -1.36 -1.73 -1.44 -1.92 -1.53 -2.13 -1.59 -2.34 8.28 4.41zm-8.28 -4.41c-3.05,-4.56 -1.83,-10.74 2.73,-13.79 4.56,-3.05 10.74,-1.83 13.79,2.73l-16.52 11.06zm-297.4 -14.92l305.64 -0.55 0.04 19.88 -305.64 0.55 -0.1 0 0.06 -19.88zm0.04 19.88c-5.48,0.01 -9.95,-4.44 -9.96,-9.92 -0.01,-5.48 4.44,-9.95 9.92,-9.96l0.04 19.88zm-32.84 -91.94l0 19.88 9.94 -9.94 0.03 7.29 0.09 6.75 0.15 6.24 0.21 5.75 0.26 5.27 0.33 4.8 0.38 4.34 0.43 3.91 0.49 3.47 0.53 3.05 0.56 2.64 0.59 2.24 0.59 1.82 0.58 1.45 0.54 1.08 0.46 0.76 0.36 0.47 0.25 0.25 0.2 0.15 0.17 0.11 0.2 0.08 0.4 0.12 0.63 0.13 0.81 0.11 1.06 0.07 1.25 0.03 1.46 -0.02 1.66 -0.05 1.86 -0.06 1.99 -0.07 2.13 -0.05 2.31 -0.01 -0.16 19.88 -1.85 0.01 -1.87 0.05 -1.87 0.05 -1.88 0.08 -1.92 0.05 -1.98 0.02 -2.05 -0.05 -2.12 -0.15 -2.21 -0.29 -2.27 -0.49 -2.36 -0.74 -2.42 -1.08 -2.31 -1.39 -2.16 -1.71 -1.97 -2.01 -1.72 -2.23 -1.5 -2.42 -1.28 -2.6 -1.12 -2.79 -0.97 -3 -0.85 -3.22 -0.74 -3.46 -0.65 -3.75 -0.57 -4.07 -0.49 -4.41 -0.42 -4.76 -0.35 -5.18 -0.28 -5.57 -0.23 -6.01 -0.15 -6.48 -0.09 -6.95 -0.03 -7.45 9.94 -9.94zm-9.94 9.94c0,-5.48 4.46,-9.94 9.94,-9.94 5.48,0 9.94,4.46 9.94,9.94l-19.88 0zm603.02 -628.85l-64.56 0 0 -19.88 64.56 0 0.51 0.01 -0.51 19.87zm0 -19.88c5.48,0 9.94,4.46 9.94,9.94 0,5.48 -4.46,9.94 -9.94,9.94l0 -19.88zm226.61 58.25l-8.98 17.74 0.01 0 -6.29 -3.12 -6.34 -3.03 -6.39 -2.94 -6.42 -2.86 -6.47 -2.76 -6.51 -2.68 -6.55 -2.59 -6.58 -2.49 -6.62 -2.41 -6.67 -2.32 -6.69 -2.23 -6.73 -2.14 -6.77 -2.05 -6.79 -1.97 -6.82 -1.88 -6.86 -1.79 -6.88 -1.7 -6.91 -1.62 -6.93 -1.52 -6.97 -1.44 -6.97 -1.36 -7.01 -1.27 -7.01 -1.18 -7.06 -1.09 -7.06 -1.01 -7.07 -0.93 -7.11 -0.83 -7.1 -0.76 -7.13 -0.66 -7.14 -0.59 -7.14 -0.49 -7.16 -0.41 1.02 -19.86 7.4 0.43 7.38 0.51 7.38 0.61 7.35 0.68 7.36 0.78 7.33 0.87 7.33 0.95 7.3 1.05 7.28 1.13 7.27 1.22 7.25 1.31 7.23 1.4 7.21 1.5 7.17 1.58 7.17 1.68 7.12 1.76 7.1 1.85 7.08 1.94 7.05 2.05 7.01 2.13 6.99 2.22 6.95 2.31 6.91 2.42 6.88 2.49 6.84 2.59 6.81 2.69 6.77 2.78 6.71 2.88 6.68 2.96 6.63 3.06 6.6 3.15 6.55 3.26 0.01 0zm-0.01 0c4.89,2.47 6.86,8.46 4.39,13.35 -2.47,4.89 -8.46,6.86 -13.35,4.39l8.96 -17.74zm133.08 84.05l-12.16 15.72 0 0.01 -5.32 -4.11 -5.05 -3.89 -4.78 -3.67 -4.55 -3.47 -4.33 -3.28 -4.12 -3.11 -3.93 -2.93 -3.79 -2.8 -3.63 -2.65 -3.5 -2.51 -3.42 -2.41 -3.32 -2.31 -3.25 -2.22 -3.21 -2.14 -3.18 -2.08 -3.19 -2.03 -3.2 -2 -3.25 -1.98 -3.28 -1.96 -3.38 -1.96 -3.5 -2 -3.6 -2.02 -3.75 -2.05 -3.92 -2.12 -4.09 -2.19 -4.28 -2.25 -4.51 -2.35 -4.77 -2.46 -5 -2.57 -5.3 -2.69 -5.59 -2.85 -5.9 -2.98 8.98 -17.74 5.92 3 5.61 2.85 5.32 2.71 5.06 2.59 4.81 2.48 4.59 2.39 4.38 2.31 4.19 2.23 4.02 2.18 3.87 2.13 3.74 2.1 3.62 2.06 3.56 2.06 3.48 2.08 3.41 2.08 3.38 2.1 3.35 2.15 3.36 2.18 3.37 2.26 3.41 2.32 3.46 2.41 3.52 2.49 3.64 2.61 3.73 2.73 3.87 2.84 4.03 3.01 4.18 3.15 4.37 3.32 4.59 3.51 4.82 3.69 5.07 3.91 5.34 4.11 0 0.01zm0 -0.01c4.34,3.35 5.14,9.61 1.79,13.95 -3.35,4.34 -9.61,5.14 -13.95,1.79l12.16 -15.74zm34.36 50.08l-19.72 -2.56 0.18 3.54 -0.42 -1.7 -0.43 -1.62 -0.46 -1.52 -0.47 -1.44 -0.5 -1.39 -0.51 -1.31 -0.54 -1.26 -0.55 -1.19 -0.58 -1.16 -0.59 -1.11 -0.61 -1.05 -0.62 -0.99 -0.68 -1.01 -0.7 -0.98 -0.71 -0.95 -0.75 -0.93 -0.78 -0.91 -0.82 -0.9 -0.88 -0.94 -0.93 -0.93 -0.95 -0.93 -0.96 -0.9 -1.05 -0.94 -1.1 -0.96 -1.12 -0.96 -1.17 -0.96 -1.25 -1.01 -1.28 -1.03 -1.31 -1.03 -1.37 -1.07 -1.44 -1.12 -1.45 -1.13 12.16 -15.72 1.49 1.15 1.44 1.12 1.43 1.11 1.43 1.13 1.38 1.11 1.35 1.09 1.37 1.14 1.34 1.14 1.28 1.12 1.27 1.14 1.3 1.2 1.23 1.21 1.19 1.21 1.18 1.24 1.18 1.3 1.14 1.35 1.11 1.37 1.09 1.43 1.02 1.44 1 1.49 0.98 1.57 0.93 1.61 0.89 1.65 0.84 1.68 0.81 1.75 0.76 1.8 0.73 1.85 0.68 1.91 0.65 1.96 0.6 2.04 0.57 2.08 0.52 2.14 0.18 3.54zm-0.18 -3.54c1.24,5.34 -2.08,10.7 -7.42,11.94 -5.34,1.24 -10.7,-2.08 -11.94,-7.42l19.36 -4.52zm-61.71 26.1l-19.88 0 9.94 -9.94 2.06 0.01 2.09 0.04 2.16 0.04 2.21 0.06 2.21 0.05 2.29 0.04 2.3 0.04 2.29 0.01 2.31 -0.02 2.3 -0.05 2.28 -0.09 2.26 -0.13 2.21 -0.18 2.17 -0.23 2.09 -0.28 2.02 -0.35 1.91 -0.41 1.83 -0.47 1.73 -0.54 1.61 -0.59 1.42 -0.62 1.31 -0.69 1.19 -0.73 1.04 -0.78 0.91 -0.8 0.81 -0.87 0.73 -0.94 0.62 -1 0.55 -1.14 0.5 -1.32 0.4 -1.51 0.3 -1.73 19.72 2.56 -0.6 3.43 -0.88 3.27 -1.14 3.1 -1.43 2.94 -1.7 2.72 -1.89 2.48 -2.11 2.25 -2.27 2.02 -2.4 1.76 -2.47 1.55 -2.57 1.35 -2.64 1.16 -2.65 0.97 -2.65 0.82 -2.71 0.71 -2.73 0.57 -2.72 0.47 -2.73 0.38 -2.71 0.29 -2.69 0.22 -2.68 0.15 -2.64 0.11 -2.62 0.05 -2.55 0.02 -2.53 -0.01 -2.44 -0.04 -2.35 -0.04 -2.31 -0.05 -2.17 -0.06 -2.08 -0.04 -1.97 -0.04 -1.8 -0.01 9.94 -9.94zm-9.94 9.94c-5.48,0 -9.94,-4.46 -9.94,-9.94 0,-5.48 4.46,-9.94 9.94,-9.94l0 19.88zm-9.94 90.17l0 -100.11 19.88 0 0 100.11 -9.94 9.94 -9.94 -9.94zm19.88 0c0,5.48 -4.46,9.94 -9.94,9.94 -5.48,0 -9.94,-4.46 -9.94,-9.94l19.88 0zm152.54 33.36l-19.88 0 0 0 -0.13 -3.68 -0.35 -3.22 -0.54 -2.75 -0.71 -2.31 -0.85 -1.95 -0.96 -1.63 -1.12 -1.42 -1.29 -1.26 -1.54 -1.17 -1.88 -1.1 -2.24 -1.03 -2.64 -0.94 -3.02 -0.83 -3.43 -0.7 -3.83 -0.58 -4.22 -0.46 -4.56 -0.34 -4.94 -0.2 -5.3 -0.11 -5.65 -0.02 -5.97 0.07 -6.32 0.14 -6.65 0.2 -6.98 0.23 -7.31 0.26 -7.64 0.28 -7.95 0.28 -8.28 0.26 -8.6 0.22 -8.91 0.18 -9.23 0.12 -9.56 0.04 0 -19.88 9.38 -0.04 9.07 -0.12 8.79 -0.18 8.5 -0.22 8.18 -0.26 7.91 -0.26 7.62 -0.28 7.33 -0.26 7.04 -0.25 6.77 -0.2 6.5 -0.14 6.23 -0.07 5.95 0.02 5.7 0.11 5.46 0.24 5.22 0.38 4.98 0.54 4.75 0.72 4.57 0.94 4.36 1.21 4.16 1.48 3.96 1.83 3.72 2.2 3.48 2.63 3.11 3.06 2.72 3.46 2.26 3.81 1.79 4.09 1.35 4.37 0.92 4.59 0.53 4.82 0.17 5.08 0 0zm0 0c0,5.48 -4.46,9.94 -9.94,9.94 -5.48,0 -9.94,-4.46 -9.94,-9.94l19.88 0zm-104.87 119.18l-19.88 0 9.94 -9.94 10.89 0.05 10.11 0.12 9.36 0.17 8.62 0.18 7.92 0.16 7.2 0.11 6.53 0.02 5.84 -0.09 5.17 -0.22 4.49 -0.38 3.81 -0.54 3.12 -0.68 2.45 -0.8 1.84 -0.85 1.36 -0.92 1.1 -1.04 0.97 -1.28 0.96 -1.78 0.91 -2.38 0.82 -3.08 0.69 -3.81 0.53 -4.54 0.4 -5.28 0.24 -6.02 0.13 -6.75 0.02 -7.51 -0.05 -8.29 -0.11 -9.06 -0.13 -9.9 -0.13 -10.74 -0.09 -11.62 -0.04 -12.49 19.88 0 0.04 12.39 0.09 11.52 0.13 10.68 0.13 9.9 0.11 9.14 0.05 8.43 -0.02 7.75 -0.13 7.13 -0.28 6.56 -0.44 6.04 -0.67 5.58 -0.95 5.19 -1.3 4.86 -1.75 4.56 -2.3 4.24 -2.91 3.84 -3.5 3.3 -3.98 2.68 -4.32 2.05 -4.57 1.5 -4.82 1.06 -5.09 0.72 -5.45 0.46 -5.85 0.26 -6.3 0.09 -6.81 -0.02 -7.38 -0.11 -7.96 -0.16 -8.6 -0.18 -9.28 -0.17 -9.97 -0.12 -10.73 -0.05 9.94 -9.94zm-9.94 9.94c-5.48,0 -9.94,-4.46 -9.94,-9.94 0,-5.48 4.46,-9.94 9.94,-9.94l0 19.88zm-90.17 171.21l-19.88 0 9.94 -9.94 11.28 0.06 10.42 0.13 9.59 0.18 8.76 0.17 7.95 0.11 7.17 0.02 6.39 -0.12 5.6 -0.3 4.83 -0.49 4.02 -0.69 3.23 -0.87 2.49 -1 1.87 -1.11 1.46 -1.25 1.29 -1.58 1.22 -2.13 1.13 -2.87 1.02 -3.73 0.85 -4.63 0.64 -5.55 0.44 -6.47 0.26 -7.41 0.09 -8.35 -0.05 -9.35 -0.16 -10.34 -0.24 -11.38 -0.29 -12.45 -0.31 -13.58 -0.29 -14.72 -0.25 -15.92 -0.18 -17.15 -0.06 -18.44 19.88 0 0.06 18.3 0.18 17.03 0.25 15.82 0.29 14.66 0.31 13.54 0.29 12.47 0.24 11.46 0.16 10.5 0.05 9.59 -0.09 8.75 -0.28 7.97 -0.5 7.27 -0.78 6.65 -1.11 6.09 -1.54 5.63 -2.09 5.21 -2.74 4.77 -3.45 4.22 -4.12 3.53 -4.65 2.77 -4.99 2.04 -5.29 1.43 -5.6 0.97 -5.97 0.61 -6.42 0.34 -6.93 0.14 -7.49 -0.02 -8.13 -0.11 -8.8 -0.17 -9.51 -0.18 -10.3 -0.13 -11.1 -0.06 9.94 -9.94zm-9.94 9.94c-5.48,0 -9.94,-4.46 -9.94,-9.94 0,-5.48 4.46,-9.94 9.94,-9.94l0 19.88zm-9.94 114.01l0 -123.95 19.88 0 0 123.95 -9.94 9.94 -9.94 -9.94zm19.88 0c0,5.48 -4.46,9.94 -9.94,9.94 -5.48,0 -9.94,-4.46 -9.94,-9.94l19.88 0zm171.21 9.94l-181.15 0 0 -19.88 181.15 0 0 0 0 19.88zm0 -19.88c5.48,0 9.94,4.46 9.94,9.94 0,5.48 -4.46,9.94 -9.94,9.94l0 -19.88zm33.77 43.31l-19.88 0 0 0 -0.02 -1.18 -0.06 -1.18 -0.1 -1.22 -0.13 -1.19 -0.17 -1.18 -0.22 -1.18 -0.24 -1.16 -0.28 -1.13 -0.33 -1.16 -0.34 -1.08 -0.38 -1.03 -0.43 -1.06 -0.42 -0.95 -0.47 -0.94 -0.49 -0.91 -0.5 -0.82 -0.52 -0.77 -0.53 -0.71 -0.58 -0.71 -0.56 -0.63 -0.54 -0.53 -0.54 -0.48 -0.54 -0.41 -0.58 -0.39 -0.61 -0.36 -0.53 -0.27 -0.54 -0.22 -0.62 -0.21 -0.6 -0.16 -0.62 -0.11 -0.69 -0.07 -0.71 -0.03 0 -19.88 2.13 0.07 2.09 0.23 2.06 0.37 2 0.52 1.9 0.63 1.88 0.78 1.81 0.91 1.65 0.98 1.6 1.07 1.56 1.21 1.46 1.28 1.36 1.35 1.26 1.39 1.16 1.41 1.13 1.51 1.02 1.55 0.98 1.6 0.87 1.61 0.83 1.64 0.76 1.71 0.67 1.68 0.64 1.75 0.56 1.78 0.49 1.72 0.46 1.81 0.38 1.8 0.32 1.8 0.27 1.84 0.21 1.83 0.14 1.8 0.1 1.84 0.02 1.84 0 0zm0 0c0,5.48 -4.46,9.94 -9.94,9.94 -5.48,0 -9.94,-4.46 -9.94,-9.94l19.88 0zm-17.21 176.53l-4.52 -19.36 -6.7 5.38 1.2 -2.75 1.16 -3.1 1.06 -3.4 0.98 -3.69 0.9 -3.98 0.81 -4.23 0.73 -4.45 0.64 -4.67 0.55 -4.86 0.48 -5.02 0.39 -5.2 0.32 -5.33 0.27 -5.45 0.19 -5.57 0.14 -5.65 0.09 -5.72 0.04 -5.79 0 -5.83 -0.04 -5.86 -0.07 -5.87 -0.1 -5.86 -0.11 -5.87 -0.13 -5.81 -0.14 -5.77 -0.15 -5.72 -0.14 -5.63 -0.14 -5.55 -0.12 -5.45 -0.11 -5.32 -0.08 -5.2 -0.05 -5.06 -0.02 -4.89 19.88 0 0.02 4.75 0.05 4.94 0.08 5.1 0.11 5.26 0.12 5.39 0.14 5.53 0.14 5.63 0.15 5.72 0.14 5.81 0.13 5.87 0.11 5.91 0.1 5.94 0.07 5.97 0.04 5.98 0 5.95 -0.04 5.95 -0.09 5.9 -0.14 5.85 -0.21 5.79 -0.27 5.71 -0.34 5.61 -0.43 5.52 -0.5 5.4 -0.61 5.28 -0.7 5.13 -0.81 4.99 -0.93 4.81 -1.04 4.66 -1.2 4.49 -1.36 4.3 -1.52 4.1 -1.72 3.91 -6.7 5.38zm6.7 -5.38c-2.37,4.94 -8.32,7.03 -13.26,4.66 -4.94,-2.37 -7.03,-8.32 -4.66,-13.26l17.92 8.6zm-142.03 0.47l-19.88 0 9.94 -9.94 4.3 0.01 4.36 0.05 4.38 0.06 4.44 0.08 4.47 0.1 4.51 0.11 4.53 0.12 4.56 0.12 4.58 0.12 4.6 0.12 4.61 0.11 4.61 0.1 4.63 0.09 4.62 0.07 4.6 0.05 4.6 0.02 4.59 -0.01 4.57 -0.04 4.55 -0.07 4.51 -0.12 4.48 -0.15 4.44 -0.21 4.4 -0.25 4.35 -0.3 4.3 -0.36 4.24 -0.41 4.17 -0.49 4.1 -0.54 4.04 -0.62 3.96 -0.68 3.86 -0.76 3.79 -0.83 4.52 19.36 -4.25 0.93 -4.32 0.86 -4.38 0.74 -4.4 0.68 -4.48 0.6 -4.51 0.51 -4.54 0.45 -4.58 0.38 -4.61 0.32 -4.64 0.27 -4.66 0.21 -4.68 0.17 -4.71 0.12 -4.71 0.07 -4.71 0.04 -4.71 0.01 -4.72 -0.02 -4.72 -0.05 -4.7 -0.07 -4.69 -0.09 -4.67 -0.1 -4.65 -0.11 -4.62 -0.12 -4.58 -0.12 -4.56 -0.12 -4.51 -0.12 -4.47 -0.11 -4.41 -0.1 -4.36 -0.08 -4.32 -0.06 -4.24 -0.05 -4.16 -0.01 9.94 -9.94zm-9.94 9.94c-5.48,0 -9.94,-4.46 -9.94,-9.94 0,-5.48 4.46,-9.94 9.94,-9.94l0 19.88zm-9.94 37.73l0 -47.67 19.88 0 0 47.67 -9.94 9.94 -9.94 -9.94zm19.88 0c0,5.48 -4.46,9.94 -9.94,9.94 -5.48,0 -9.94,-4.46 -9.94,-9.94l19.88 0zm18.66 9.94l-28.6 0 0 -19.88 28.6 0 0 0 0 19.88zm0 -19.88c5.48,0 9.94,4.46 9.94,9.94 0,5.48 -4.46,9.94 -9.94,9.94l0 -19.88zm8.87 82.57l-12.16 -15.74 0 0 4.56 -3.65 4.05 -3.51 3.55 -3.35 3.08 -3.18 2.6 -3 2.18 -2.83 1.75 -2.61 1.38 -2.43 1.04 -2.19 0.7 -1.95 0.44 -1.74 0.23 -1.54 0.04 -1.31 -0.1 -1.16 -0.23 -1.08 -0.34 -0.98 -0.46 -0.97 -0.59 -0.95 -0.73 -0.92 -0.9 -0.95 -1.07 -0.94 -1.21 -0.9 -1.34 -0.84 -1.47 -0.79 -1.57 -0.72 -1.68 -0.64 -1.75 -0.55 -1.77 -0.45 -1.79 -0.36 -1.82 -0.25 -1.78 -0.16 -1.71 -0.05 0 -19.88 2.87 0.09 2.86 0.24 2.88 0.41 2.87 0.56 2.87 0.73 2.83 0.91 2.78 1.06 2.73 1.24 2.67 1.43 2.58 1.64 2.47 1.84 2.31 2.04 2.18 2.27 1.99 2.56 1.73 2.79 1.44 3.01 1.1 3.24 0.71 3.4 0.32 3.54 -0.12 3.65 -0.53 3.66 -0.94 3.7 -1.36 3.73 -1.74 3.71 -2.12 3.73 -2.53 3.77 -2.92 3.79 -3.34 3.84 -3.76 3.9 -4.19 3.95 -4.65 4.03 -5.12 4.11 0 0zm0 0c-4.34,3.35 -10.6,2.55 -13.95,-1.79 -3.35,-4.34 -2.55,-10.6 1.79,-13.95l12.16 15.74zm-41.51 31.03l-10.94 -16.6 0 0 1.45 -0.97 1.4 -0.92 1.36 -0.94 1.35 -0.91 1.28 -0.89 1.28 -0.9 1.26 -0.89 1.2 -0.86 1.2 -0.87 1.2 -0.87 1.18 -0.87 1.14 -0.84 1.13 -0.85 1.15 -0.88 1.17 -0.89 1.13 -0.86 1.14 -0.89 1.15 -0.88 1.14 -0.9 1.19 -0.93 1.18 -0.92 1.2 -0.94 1.21 -0.95 1.23 -0.97 1.28 -1 1.28 -1.01 1.31 -1.03 1.36 -1.06 1.36 -1.07 1.42 -1.11 1.47 -1.14 1.49 -1.16 12.16 15.74 -1.47 1.14 -1.43 1.1 -1.38 1.09 -1.38 1.07 -1.32 1.04 -1.31 1.03 -1.3 1.01 -1.24 0.98 -1.23 0.97 -1.23 0.97 -1.22 0.96 -1.2 0.94 -1.17 0.91 -1.2 0.94 -1.19 0.92 -1.18 0.91 -1.21 0.92 -1.17 0.89 -1.19 0.9 -1.23 0.93 -1.24 0.92 -1.24 0.91 -1.24 0.91 -1.28 0.93 -1.32 0.94 -1.32 0.93 -1.34 0.94 -1.4 0.97 -1.41 0.97 -1.46 0.98 -1.48 1 -1.53 1.01 0 0zm0 0c-4.58,3.02 -10.75,1.75 -13.77,-2.83 -3.02,-4.58 -1.75,-10.75 2.83,-13.77l10.94 16.6zm-319.17 111.27l0 -19.88 -0.7 0.02 10.06 -0.79 10.05 -0.97 10.03 -1.15 10.03 -1.31 9.99 -1.48 9.99 -1.66 9.98 -1.82 9.94 -2 9.93 -2.16 9.92 -2.34 9.88 -2.49 9.84 -2.66 9.83 -2.84 9.8 -2.99 9.77 -3.16 9.74 -3.32 9.69 -3.49 9.67 -3.65 9.63 -3.81 9.6 -3.98 9.55 -4.12 9.51 -4.29 9.46 -4.45 9.44 -4.61 9.37 -4.77 9.33 -4.92 9.28 -5.07 9.23 -5.24 9.18 -5.39 9.13 -5.54 9.06 -5.69 9.02 -5.85 10.94 16.6 -9.26 6.01 -9.32 5.85 -9.37 5.7 -9.44 5.53 -9.49 5.38 -9.56 5.23 -9.59 5.06 -9.65 4.91 -9.7 4.73 -9.74 4.59 -9.81 4.41 -9.83 4.26 -9.88 4.08 -9.91 3.93 -9.97 3.77 -10.01 3.59 -10.04 3.42 -10.07 3.26 -10.1 3.09 -10.13 2.92 -10.18 2.76 -10.2 2.57 -10.22 2.4 -10.25 2.24 -10.28 2.06 -10.3 1.88 -10.31 1.72 -10.35 1.54 -10.35 1.35 -10.37 1.19 -10.39 0.99 -10.4 0.83 -0.7 0.02zm0.7 -0.02c-5.47,0.38 -10.24,-3.75 -10.62,-9.22 -0.38,-5.47 3.75,-10.24 9.22,-10.62l1.4 19.84zm-83.22 -19.86l82.52 0 0 19.88 -82.52 0 -0.7 -0.02 0.7 -19.86zm0 19.88c-5.48,0 -9.94,-4.46 -9.94,-9.94 0,-5.48 4.46,-9.94 9.94,-9.94l0 19.88zm-228.02 -63.02l8.92 -17.76 0 0 6.7 3.31 6.71 3.22 6.73 3.13 6.74 3.03 6.76 2.94 6.78 2.84 6.78 2.77 6.8 2.65 6.82 2.58 6.81 2.48 6.83 2.39 6.85 2.3 6.86 2.2 6.86 2.12 6.88 2.03 6.88 1.93 6.9 1.85 6.9 1.76 6.91 1.67 6.92 1.59 6.91 1.49 6.93 1.39 6.94 1.32 6.94 1.23 6.96 1.14 6.94 1.06 6.95 0.97 6.95 0.88 6.96 0.79 6.97 0.7 6.96 0.62 6.97 0.54 -1.4 19.84 -7.21 -0.56 -7.2 -0.64 -7.21 -0.74 -7.2 -0.81 -7.21 -0.92 -7.19 -0.99 -7.2 -1.1 -7.18 -1.18 -7.18 -1.27 -7.18 -1.36 -7.17 -1.45 -7.17 -1.55 -7.16 -1.63 -7.15 -1.73 -7.14 -1.82 -7.12 -1.91 -7.12 -2.01 -7.12 -2.09 -7.1 -2.2 -7.08 -2.28 -7.09 -2.38 -7.07 -2.47 -7.05 -2.56 -7.04 -2.66 -7.02 -2.75 -7.02 -2.85 -7 -2.94 -6.98 -3.04 -6.96 -3.13 -6.95 -3.23 -6.93 -3.32 -6.92 -3.43 0 0zm0 0c-4.9,-2.46 -6.88,-8.44 -4.42,-13.34 2.46,-4.9 8.44,-6.88 13.34,-4.42l-8.92 17.76zm-93.46 -56.74l11.92 -15.92 0 0.01 2.71 2.01 2.73 2 2.71 1.97 2.7 1.93 2.72 1.91 2.72 1.89 2.73 1.86 2.72 1.84 2.72 1.82 2.74 1.79 2.73 1.78 2.75 1.74 2.76 1.75 2.76 1.71 2.77 1.7 2.8 1.69 2.78 1.67 2.81 1.65 2.83 1.65 2.83 1.63 2.85 1.61 2.87 1.61 2.87 1.59 2.92 1.59 2.91 1.59 2.94 1.57 2.96 1.57 2.98 1.56 3 1.56 3.03 1.55 3.04 1.55 3.07 1.55 -8.92 17.76 -3.13 -1.57 -3.12 -1.59 -3.09 -1.59 -3.08 -1.6 -3.06 -1.6 -3.02 -1.61 -3.02 -1.61 -3.01 -1.63 -2.98 -1.63 -2.97 -1.65 -2.95 -1.65 -2.95 -1.67 -2.93 -1.69 -2.91 -1.69 -2.91 -1.71 -2.9 -1.73 -2.88 -1.75 -2.87 -1.76 -2.88 -1.79 -2.84 -1.79 -2.85 -1.82 -2.85 -1.84 -2.84 -1.87 -2.84 -1.88 -2.84 -1.92 -2.81 -1.94 -2.82 -1.95 -2.82 -1.99 -2.84 -2.01 -2.81 -2.05 -2.81 -2.06 -2.83 -2.11 0 0.01zm0 -0.01c-4.39,-3.29 -5.28,-9.52 -1.99,-13.91 3.29,-4.39 9.52,-5.28 13.91,-1.99l-11.92 15.9zm-238.7 -366.72l19.4 -4.3 0 0 3.17 13.57 3.47 13.43 3.75 13.3 4.04 13.14 4.32 13.01 4.59 12.87 4.87 12.7 5.15 12.56 5.43 12.41 5.67 12.26 5.95 12.08 6.21 11.94 6.48 11.78 6.71 11.6 6.99 11.44 7.22 11.27 7.47 11.11 7.73 10.94 7.96 10.75 8.19 10.59 8.43 10.4 8.66 10.22 8.9 10.04 9.11 9.85 9.35 9.65 9.56 9.49 9.78 9.28 10 9.08 10.2 8.88 10.42 8.7 10.61 8.49 10.83 8.28 -11.92 15.92 -11.15 -8.54 -10.95 -8.75 -10.74 -8.96 -10.52 -9.16 -10.32 -9.38 -10.08 -9.58 -9.86 -9.77 -9.65 -9.97 -9.41 -10.17 -9.18 -10.36 -8.94 -10.56 -8.71 -10.74 -8.47 -10.93 -8.22 -11.11 -7.97 -11.3 -7.73 -11.47 -7.46 -11.65 -7.21 -11.82 -6.95 -12 -6.68 -12.16 -6.43 -12.34 -6.15 -12.5 -5.87 -12.66 -5.59 -12.81 -5.33 -12.98 -5.03 -13.14 -4.75 -13.29 -4.46 -13.43 -4.18 -13.58 -3.87 -13.74 -3.57 -13.87 -3.27 -14.01 0 0zm0 0c-1.18,-5.36 2.2,-10.68 7.55,-11.86 5.35,-1.18 10.67,2.2 11.85,7.56l-19.4 4.3zm-16.53 -133.65l19.88 0 0 0 0.02 3.56 0.08 3.66 0.11 3.8 0.16 3.86 0.2 3.95 0.25 4.06 0.27 4.11 0.33 4.17 0.35 4.23 0.4 4.27 0.42 4.32 0.45 4.34 0.49 4.36 0.51 4.37 0.54 4.39 0.57 4.39 0.58 4.38 0.6 4.35 0.63 4.33 0.65 4.31 0.65 4.25 0.67 4.2 0.69 4.16 0.69 4.08 0.72 4.02 0.71 3.96 0.71 3.83 0.73 3.75 0.72 3.66 0.71 3.53 0.73 3.41 0.71 3.29 -19.4 4.3 -0.75 -3.41 -0.75 -3.55 -0.75 -3.67 -0.74 -3.74 -0.75 -3.87 -0.73 -3.97 -0.73 -4.02 -0.72 -4.12 -0.71 -4.18 -0.71 -4.26 -0.69 -4.32 -0.67 -4.35 -0.65 -4.39 -0.65 -4.43 -0.62 -4.47 -0.6 -4.48 -0.57 -4.49 -0.56 -4.49 -0.53 -4.49 -0.49 -4.5 -0.47 -4.46 -0.44 -4.44 -0.4 -4.41 -0.37 -4.37 -0.33 -4.33 -0.29 -4.29 -0.25 -4.2 -0.22 -4.15 -0.16 -4.08 -0.13 -3.98 -0.08 -3.92 -0.02 -3.82 0 0zm0 0c0,-5.48 4.46,-9.94 9.94,-9.94 5.48,0 9.94,4.46 9.94,9.94l-19.88 0zm17.41 -137.61l19.38 4.44 0 0 -0.76 3.36 -0.76 3.49 -0.76 3.62 -0.76 3.73 -0.76 3.85 -0.76 3.95 -0.75 4.03 -0.74 4.12 -0.73 4.2 -0.72 4.28 -0.72 4.31 -0.69 4.38 -0.68 4.43 -0.65 4.45 -0.64 4.49 -0.62 4.51 -0.59 4.52 -0.57 4.52 -0.54 4.51 -0.51 4.5 -0.47 4.48 -0.46 4.45 -0.4 4.4 -0.37 4.38 -0.35 4.31 -0.29 4.24 -0.26 4.17 -0.21 4.1 -0.17 4.01 -0.12 3.89 -0.07 3.81 -0.03 3.68 -19.88 0 0.03 -3.94 0.07 -4.05 0.14 -4.13 0.17 -4.21 0.23 -4.28 0.26 -4.35 0.31 -4.42 0.35 -4.47 0.39 -4.5 0.42 -4.56 0.46 -4.59 0.49 -4.6 0.53 -4.62 0.54 -4.63 0.59 -4.64 0.61 -4.62 0.62 -4.61 0.66 -4.59 0.67 -4.57 0.7 -4.53 0.71 -4.48 0.72 -4.43 0.74 -4.36 0.75 -4.3 0.76 -4.24 0.77 -4.15 0.78 -4.05 0.78 -3.97 0.8 -3.85 0.78 -3.74 0.8 -3.63 0.78 -3.5 0 0zm0 0c1.22,-5.35 6.56,-8.69 11.91,-7.47 5.35,1.22 8.69,6.56 7.47,11.91l-19.38 -4.44zm240.56 -364.85l11.86 15.96 0 0 -10.86 8.24 -10.64 8.44 -10.45 8.64 -10.24 8.84 -10.02 9.02 -9.81 9.23 -9.6 9.41 -9.38 9.59 -9.15 9.79 -8.94 9.96 -8.69 10.14 -8.48 10.32 -8.24 10.51 -8 10.68 -7.77 10.86 -7.53 11.02 -7.27 11.2 -7.04 11.37 -6.77 11.54 -6.53 11.7 -6.28 11.88 -6.02 12.03 -5.75 12.19 -5.5 12.36 -5.22 12.5 -4.95 12.67 -4.68 12.82 -4.41 12.98 -4.13 13.13 -3.85 13.28 -3.56 13.42 -3.28 13.57 -19.38 -4.44 3.38 -14.01 3.68 -13.86 3.97 -13.72 4.27 -13.55 4.55 -13.4 4.84 -13.24 5.11 -13.09 5.4 -12.94 5.68 -12.76 5.95 -12.61 6.22 -12.43 6.48 -12.26 6.75 -12.1 7.01 -11.92 7.26 -11.75 7.53 -11.58 7.77 -11.4 8.03 -11.2 8.26 -11.04 8.52 -10.85 8.74 -10.66 8.99 -10.48 9.22 -10.28 9.45 -10.09 9.68 -9.91 9.9 -9.69 10.11 -9.51 10.34 -9.32 10.56 -9.1 10.75 -8.9 10.98 -8.7 11.18 -8.5 0 0zm0 0c4.4,-3.27 10.64,-2.35 13.91,2.05 3.27,4.4 2.35,10.64 -2.05,13.91l-11.86 -15.96zm337.7 -117.67l0 19.88 0.51 -0.01 -11.04 0.66 -11.02 0.85 -11 1.06 -10.99 1.25 -10.98 1.44 -10.94 1.62 -10.91 1.82 -10.87 2.01 -10.84 2.2 -10.78 2.38 -10.74 2.57 -10.68 2.76 -10.63 2.95 -10.56 3.13 -10.49 3.31 -10.42 3.5 -10.36 3.69 -10.26 3.85 -10.18 4.05 -10.1 4.22 -10 4.41 -9.9 4.58 -9.79 4.76 -9.7 4.94 -9.58 5.11 -9.46 5.28 -9.35 5.46 -9.22 5.64 -9.1 5.8 -8.95 5.98 -8.82 6.16 -8.69 6.32 -11.86 -15.96 9.01 -6.56 9.16 -6.38 9.29 -6.2 9.42 -6.02 9.56 -5.84 9.69 -5.66 9.8 -5.48 9.92 -5.29 10.02 -5.1 10.13 -4.92 10.24 -4.74 10.34 -4.55 10.42 -4.36 10.52 -4.19 10.62 -3.99 10.68 -3.79 10.76 -3.62 10.83 -3.43 10.9 -3.23 10.97 -3.03 11.02 -2.86 11.08 -2.65 11.12 -2.46 11.18 -2.26 11.21 -2.07 11.25 -1.88 11.28 -1.68 11.32 -1.48 11.33 -1.29 11.36 -1.08 11.38 -0.89 11.38 -0.68 0.51 -0.01zm-0.51 0.01c5.48,-0.28 10.16,3.94 10.44,9.42 0.28,5.48 -3.94,10.16 -9.42,10.44l-1.02 -19.86zm320.13 315.03l0 -119.19 19.88 0 0 119.19 -9.94 9.94 -9.94 -9.94zm19.88 0c0,5.48 -4.46,9.94 -9.94,9.94 -5.48,0 -9.94,-4.46 -9.94,-9.94l19.88 0zm-100.11 19.06l-19.88 0 0 0 0.42 -4.44 1.29 -4.24 2.04 -3.8 2.61 -3.26 3 -2.72 3.27 -2.26 3.46 -1.86 3.65 -1.56 3.79 -1.31 3.94 -1.09 4.07 -0.92 4.2 -0.76 4.3 -0.62 4.37 -0.5 4.46 -0.39 4.5 -0.29 4.5 -0.2 4.53 -0.13 4.47 -0.05 4.43 0 4.36 0.05 4.24 0.1 4.11 0.13 3.96 0.15 3.74 0.16 3.55 0.16 3.3 0.17 3.03 0.15 2.69 0.14 2.34 0.1 1.97 0.06 1.46 0.03 0 19.88 -1.98 -0.03 -2.19 -0.08 -2.52 -0.1 -2.77 -0.14 -3.03 -0.15 -3.26 -0.17 -3.47 -0.16 -3.68 -0.16 -3.82 -0.15 -3.97 -0.11 -4.06 -0.1 -4.12 -0.05 -4.19 0 -4.21 0.05 -4.17 0.11 -4.16 0.2 -4.08 0.25 -3.96 0.35 -3.83 0.44 -3.66 0.52 -3.42 0.62 -3.19 0.72 -2.9 0.81 -2.55 0.87 -2.17 0.92 -1.74 0.94 -1.31 0.88 -0.84 0.76 -0.49 0.6 -0.24 0.44 -0.13 0.42 -0.06 0.62 0 0zm0 0c0,5.48 -4.46,9.94 -9.94,9.94 -5.48,0 -9.94,-4.46 -9.94,-9.94l19.88 0zm23.43 23.43l0 19.88 0 0 -2.37 -0.03 -2.33 -0.12 -2.28 -0.19 -2.24 -0.28 -2.2 -0.35 -2.18 -0.46 -2.07 -0.54 -2.06 -0.62 -2.04 -0.74 -1.93 -0.81 -1.9 -0.93 -1.84 -1.03 -1.78 -1.14 -1.71 -1.25 -1.6 -1.33 -1.51 -1.41 -1.45 -1.54 -1.35 -1.63 -1.22 -1.68 -1.14 -1.77 -1.04 -1.86 -0.92 -1.89 -0.83 -1.96 -0.72 -2.02 -0.62 -2.01 -0.55 -2.11 -0.46 -2.19 -0.35 -2.2 -0.28 -2.23 -0.19 -2.29 -0.12 -2.33 -0.03 -2.37 19.88 0 0.03 1.73 0.08 1.65 0.13 1.57 0.18 1.47 0.23 1.4 0.26 1.27 0.31 1.21 0.36 1.17 0.38 1.06 0.41 0.96 0.44 0.91 0.46 0.82 0.5 0.77 0.54 0.74 0.53 0.65 0.57 0.6 0.65 0.61 0.68 0.57 0.69 0.51 0.76 0.48 0.84 0.47 0.9 0.43 1.01 0.43 1.02 0.38 1.14 0.34 1.25 0.32 1.28 0.26 1.38 0.23 1.48 0.18 1.56 0.13 1.65 0.08 1.73 0.03 0 0zm0 0c5.48,0 9.94,4.46 9.94,9.94 0,5.48 -4.46,9.94 -9.94,9.94l0 -19.88zm219.29 19.88l-219.29 0 0 -19.88 219.29 0 9.94 9.94 -9.94 9.94zm0 -19.88c5.48,0 9.94,4.46 9.94,9.94 0,5.48 -4.46,9.94 -9.94,9.94l0 -19.88zm-9.94 57.61l0 -47.67 19.88 0 0 47.67 -9.94 9.94 -9.94 -9.94zm19.88 0c0,5.48 -4.46,9.94 -9.94,9.94 -5.48,0 -9.94,-4.46 -9.94,-9.94l19.88 0zm-110.05 186.33l0 -19.88 -9.94 9.94 -0.06 -17.93 -0.14 -16.68 -0.21 -15.49 -0.23 -14.35 -0.24 -13.24 -0.21 -12.2 -0.16 -11.21 -0.06 -10.26 0.05 -9.39 0.2 -8.54 0.38 -7.8 0.62 -7.12 0.89 -6.49 1.24 -5.97 1.67 -5.51 2.22 -5.1 2.85 -4.61 3.54 -4.08 4.19 -3.38 4.63 -2.61 4.98 -1.93 5.25 -1.34 5.55 -0.9 5.91 -0.56 6.33 -0.29 6.81 -0.1 7.36 0.05 7.96 0.13 8.61 0.18 9.29 0.19 10.02 0.14 10.81 0.06 0 19.88 -10.99 -0.06 -10.18 -0.14 -9.37 -0.19 -8.57 -0.18 -7.82 -0.13 -7.04 -0.05 -6.31 0.1 -5.55 0.25 -4.79 0.44 -4.03 0.66 -3.27 0.82 -2.52 0.97 -1.95 1.09 -1.49 1.2 -1.32 1.52 -1.25 2.03 -1.18 2.72 -1.07 3.57 -0.92 4.45 -0.73 5.35 -0.54 6.26 -0.36 7.18 -0.18 8.12 -0.05 9.09 0.06 10.08 0.16 11.09 0.21 12.16 0.24 13.26 0.23 14.39 0.21 15.57 0.14 16.78 0.06 18.05 -9.94 9.94zm9.94 -9.94c0,5.48 -4.46,9.94 -9.94,9.94 -5.48,0 -9.94,-4.46 -9.94,-9.94l19.88 0zm-920.46 -9.94l910.52 0 0 19.88 -910.52 0 -9.94 -9.94 9.94 -9.94zm0 19.88c-5.48,0 -9.94,-4.46 -9.94,-9.94 0,-5.48 4.46,-9.94 9.94,-9.94l0 19.88zm57.2 -243.94l0 19.88 9.68 -7.69 -1.01 3.91 -1.22 4.08 -1.41 4.22 -1.57 4.4 -1.75 4.59 -1.87 4.78 -2.01 4.98 -2.11 5.18 -2.21 5.4 -2.29 5.59 -2.36 5.81 -2.41 6.02 -2.44 6.22 -2.46 6.43 -2.46 6.65 -2.46 6.84 -2.43 7.05 -2.38 7.26 -2.33 7.46 -2.25 7.66 -2.16 7.86 -2.05 8.07 -1.94 8.26 -1.79 8.45 -1.64 8.65 -1.49 8.86 -1.28 9.05 -1.1 9.23 -0.88 9.42 -0.64 9.62 -0.4 9.81 -0.14 10 -19.88 0 0.14 -10.54 0.42 -10.33 0.68 -10.14 0.92 -9.94 1.16 -9.71 1.36 -9.51 1.55 -9.3 1.72 -9.09 1.89 -8.87 2.02 -8.64 2.15 -8.43 2.26 -8.22 2.35 -7.98 2.41 -7.76 2.48 -7.54 2.51 -7.31 2.54 -7.06 2.54 -6.83 2.52 -6.61 2.5 -6.36 2.45 -6.12 2.38 -5.89 2.31 -5.63 2.21 -5.38 2.09 -5.12 1.95 -4.86 1.81 -4.6 1.63 -4.31 1.45 -4.04 1.25 -3.72 1.02 -3.4 0.79 -3.07 9.68 -7.69zm-9.68 7.69c1.24,-5.34 6.59,-8.67 11.93,-7.43 5.34,1.24 8.67,6.59 7.43,11.93l-19.36 -4.5zm138.4 12.19l-128.72 0 0 -19.88 128.72 0 8.26 15.47 -8.26 4.41zm0 -19.88c5.48,0 9.94,4.46 9.94,9.94 0,5.48 -4.46,9.94 -9.94,9.94l0 -19.88zm7.27 -28.05l4.52 -19.36 7.42 7.43 0.79 3.39 0.73 3.08 0.67 2.85 0.61 2.61 0.54 2.42 0.48 2.2 0.42 2.01 0.37 1.91 0.3 1.78 0.25 1.73 0.17 1.74 0.07 1.7 -0.04 1.72 -0.16 1.75 -0.35 1.81 -0.52 1.78 -0.66 1.6 -0.78 1.52 -0.83 1.33 -0.84 1.18 -0.86 1.1 -0.85 1.02 -0.85 0.96 -0.81 0.91 -0.88 1.02 -0.96 1.09 -0.95 1.14 -1.05 1.29 -1.13 1.45 -1.19 1.58 -1.27 1.79 -1.37 1.99 -16.52 -11.06 1.59 -2.33 1.53 -2.13 1.45 -1.94 1.35 -1.71 1.25 -1.57 1.21 -1.42 1.04 -1.21 0.94 -1.08 0.87 -0.99 0.69 -0.78 0.51 -0.6 0.36 -0.44 0.22 -0.32 0.09 -0.13 -0.02 0.04 -0.04 0.08 -0.04 0.18 -0.03 0.09 0.02 -0.11 0 -0.32 -0.03 -0.56 -0.07 -0.76 -0.15 -1.05 -0.22 -1.32 -0.29 -1.51 -0.38 -1.81 -0.44 -2.04 -0.52 -2.26 -0.59 -2.53 -0.67 -2.83 -0.73 -3.12 -0.79 -3.41 7.42 7.43zm-7.42 -7.43c-1.24,-5.34 2.09,-10.69 7.43,-11.93 5.34,-1.24 10.69,2.09 11.93,7.43l-19.36 4.5zm-103.46 -12.54l16.52 11.06 -8.26 -15.47 3.48 -0.01 3.48 -0.01 3.46 -0.03 3.48 -0.04 3.49 -0.04 3.48 -0.04 3.45 -0.04 3.45 -0.05 3.48 -0.04 3.44 -0.03 3.45 -0.03 3.45 -0.01 3.4 0 3.4 0.01 3.41 0.02 3.42 0.05 3.37 0.07 3.35 0.09 3.34 0.12 3.36 0.14 3.32 0.19 3.29 0.2 3.28 0.25 3.26 0.28 3.26 0.33 3.22 0.37 3.19 0.41 3.2 0.47 3.14 0.51 3.14 0.56 3.12 0.64 3.08 0.68 -4.52 19.36 -2.68 -0.6 -2.72 -0.54 -2.78 -0.5 -2.82 -0.47 -2.84 -0.41 -2.93 -0.37 -2.94 -0.35 -2.96 -0.29 -3.02 -0.26 -3.06 -0.23 -3.09 -0.2 -3.12 -0.17 -3.14 -0.14 -3.18 -0.1 -3.23 -0.09 -3.25 -0.07 -3.26 -0.05 -3.29 -0.02 -3.34 -0.01 -3.36 0 -3.35 0.01 -3.39 0.03 -3.42 0.03 -3.42 0.04 -3.45 0.05 -3.49 0.04 -3.48 0.04 -3.49 0.04 -3.5 0.04 -3.54 0.03 -3.54 0.01 -3.54 0.01 -8.26 -15.47zm8.26 15.47c-5.48,0 -9.94,-4.46 -9.94,-9.94 0,-5.48 4.46,-9.94 9.94,-9.94l0 19.88zm753.32 -194.73l-10.08 17.14 0 0 -23.63 -13.14 -24 -11.87 -24.31 -10.58 -24.59 -9.33 -24.84 -8.08 -25.03 -6.83 -25.19 -5.6 -25.32 -4.37 -25.39 -3.15 -25.44 -1.94 -25.43 -0.73 -25.39 0.46 -25.3 1.65 -25.19 2.83 -25.02 4 -24.82 5.16 -24.57 6.33 -24.29 7.47 -23.95 8.61 -23.59 9.76 -23.19 10.86 -22.73 11.99 -22.25 13.1 -21.71 14.2 -21.15 15.3 -20.54 16.37 -19.87 17.47 -19.2 18.53 -18.46 19.6 -17.69 20.65 -16.88 21.71 -16.02 22.75 -16.52 -11.06 16.56 -23.51 17.46 -22.45 18.29 -21.37 19.12 -20.3 19.86 -19.17 20.59 -18.09 21.28 -16.97 21.89 -15.84 22.51 -14.72 23.05 -13.56 23.55 -12.43 24.03 -11.26 24.45 -10.1 24.83 -8.93 25.17 -7.75 25.47 -6.55 25.72 -5.36 25.94 -4.14 26.11 -2.93 26.24 -1.71 26.31 -0.48 26.37 0.75 26.38 2.02 26.33 3.27 26.24 4.53 26.13 5.8 25.95 7.09 25.74 8.36 25.49 9.67 25.19 10.98 24.86 12.29 24.47 13.6 0 0zm0 0c4.73,2.78 6.31,8.88 3.53,13.61 -2.78,4.73 -8.88,6.31 -13.61,3.53l10.08 -17.14zm38.09 30.03l-19.2 -5.12 7.03 12.16 -1.6 -0.44 -1.58 -0.49 -1.46 -0.49 -1.47 -0.53 -1.46 -0.57 -1.36 -0.56 -1.37 -0.61 -1.3 -0.62 -1.26 -0.62 -1.22 -0.65 -1.2 -0.65 -1.2 -0.7 -1.1 -0.65 -1.1 -0.68 -1.1 -0.71 -1.04 -0.69 -0.99 -0.66 -1.02 -0.7 -1.01 -0.7 -0.96 -0.68 -0.91 -0.65 -0.95 -0.66 -0.95 -0.68 -0.91 -0.64 -0.92 -0.64 -0.93 -0.65 -0.9 -0.61 -0.94 -0.62 -0.93 -0.62 -0.92 -0.58 -0.97 -0.6 -0.97 -0.58 10.08 -17.14 1.23 0.74 1.17 0.72 1.16 0.74 1.11 0.72 1.08 0.72 1.06 0.73 1.01 0.69 1 0.7 0.99 0.7 0.93 0.66 0.93 0.66 0.95 0.67 0.9 0.64 0.85 0.6 0.86 0.58 0.89 0.6 0.86 0.57 0.84 0.53 0.84 0.52 0.88 0.53 0.82 0.48 0.88 0.47 0.88 0.47 0.9 0.44 0.9 0.44 0.91 0.39 0.98 0.42 0.94 0.37 1.01 0.35 1.1 0.37 1.06 0.33 1.14 0.32 7.03 12.16zm-7.03 -12.16c5.3,1.41 8.44,6.87 7.03,12.17 -1.41,5.3 -6.87,8.44 -12.17,7.03l5.14 -19.2zm-6.93 47.73l-19.88 0 0 0 0.03 -2.29 0.08 -2.18 0.16 -2.13 0.21 -1.94 0.26 -1.87 0.34 -1.84 0.4 -1.75 0.46 -1.66 0.51 -1.53 0.55 -1.49 0.62 -1.43 0.66 -1.36 0.65 -1.21 0.66 -1.15 0.69 -1.1 0.68 -1.01 0.64 -0.93 0.59 -0.83 0.59 -0.84 0.55 -0.77 0.52 -0.76 0.5 -0.74 0.46 -0.73 0.46 -0.76 0.43 -0.76 0.43 -0.83 0.42 -0.88 0.43 -0.99 0.43 -1.07 0.41 -1.14 0.41 -1.3 0.41 -1.42 19.2 5.12 -0.57 2.02 -0.61 1.92 -0.65 1.82 -0.67 1.69 -0.69 1.59 -0.72 1.5 -0.73 1.41 -0.75 1.34 -0.74 1.22 -0.72 1.13 -0.7 1.04 -0.66 0.96 -0.63 0.89 -0.57 0.8 -0.55 0.79 -0.48 0.67 -0.4 0.63 -0.37 0.58 -0.34 0.59 -0.33 0.59 -0.26 0.54 -0.24 0.57 -0.25 0.65 -0.23 0.73 -0.22 0.78 -0.2 0.87 -0.18 0.98 -0.16 1.17 -0.15 1.32 -0.1 1.39 -0.06 1.6 -0.03 1.79 0 0zm0 0c0,5.48 -4.46,9.94 -9.94,9.94 -5.48,0 -9.94,-4.46 -9.94,-9.94l19.88 0z"/>
      <path id="1" class="fil1" d="M1996.49 638.79l810.41 0 0 123.95c-45.54,0 -104.97,-5.2 -147.78,4.77 -3.72,15.97 -10.39,47.67 19.07,47.67l328.93 0 0 100.11c-174,0 -152.55,-25.01 -152.55,119.18 0,22.53 9.21,19.05 14.3,38.13 -38.83,10.37 -120.6,95.35 -324.16,95.35 -193.33,0 -357.35,-102.89 -457.65,-252.66l147.78 0c3.56,-5.31 14.31,-16.03 14.31,-19.07 0,-42.26 -40.36,-33.43 -81.04,-33.37 -38.14,0.05 -76.28,0 -114.42,0l-38.14 -100.11c77.69,0 270.34,8.88 328.94,-4.76 8.81,-37.83 6.71,-23.4 -9.54,-47.68l-305.64 0.55c-22.52,-0.18 -32.82,9.35 -32.82,-72.06zm528.52 -638.79l64.56 0c77.65,4.01 153.89,22.69 222.12,57.18 64.78,32.76 73.09,37.93 131.48,83.04 15.91,12.3 25.71,20.03 30.58,40.93 -3.7,28.53 -41.91,23.84 -61.97,23.84l0 100.11c102.62,0 152.54,-15.31 152.54,33.36 0,137.56 14.52,119.18 -104.87,119.18 0,202.85 23.81,181.15 -100.11,181.15l0 123.95 181.15 0c15.41,0 23.83,17.31 23.83,33.37 0,50.46 6.8,132.82 -9.53,166.85 -42.48,9.9 -98.17,4.77 -143.01,4.77l0 47.67 28.6 0c24.19,0 57.14,22.76 2.79,64.76 -16.04,12.39 -24.82,20 -40.9,30.6 -97.14,64.04 -204.53,101.94 -313.7,109.63l-82.52 0c-75.6,-5.35 -151.05,-25.54 -223.56,-61.96 -33.23,-16.68 -62.42,-33.68 -91.96,-55.82 -118.29,-88.61 -202.18,-213.07 -234.96,-360.92 -7.78,-35.08 -16.29,-92.74 -16.29,-131.5 0,-40.1 8.94,-99.55 17.16,-135.39 33.94,-147.87 118.23,-270.9 236.8,-359.09 93.6,-69.62 212.17,-109.58 331.77,-115.71zm329.56 185.91l0 119.19c-16.24,0 -100.11,-9.11 -100.11,19.06 0,22.26 11.12,33.37 33.37,33.37l219.29 0 0 47.67c-120.58,0 -100.11,-22.28 -100.11,176.39l-910.52 0c0,-110.56 48.83,-188.1 57.2,-224.06l128.72 0c16.25,-24.27 18.34,-9.84 9.53,-47.67 -30.56,-7.12 -67.4,-4.76 -104.88,-4.76 168.99,-252.37 493.85,-325.81 748.28,-176.22 11.84,6.96 18.72,14.94 33.53,18.9 -5.09,19.08 -14.3,15.61 -14.3,38.13z"/>
     </g>
     <g>
      <path class="fil0" d="M2311.52 319.39l0 23.84 -19.88 0 0 -23.84 0 0 19.88 0zm-19.88 0c0,-5.48 4.46,-9.94 9.94,-9.94 5.48,0 9.94,4.46 9.94,9.94l-19.88 0zm133.89 -124.34l0 19.88 0 0 -5.4 0.14 -5.37 0.42 -5.37 0.69 -5.32 0.94 -5.29 1.22 -5.24 1.45 -5.16 1.7 -5.1 1.94 -5 2.16 -4.92 2.39 -4.8 2.61 -4.69 2.8 -4.54 3 -4.42 3.2 -4.26 3.38 -4.08 3.54 -3.92 3.71 -3.74 3.86 -3.53 4 -3.33 4.15 -3.11 4.26 -2.88 4.39 -2.66 4.5 -2.41 4.59 -2.15 4.68 -1.89 4.78 -1.63 4.83 -1.34 4.92 -1.06 4.97 -0.77 5.04 -0.47 5.07 -0.16 5.13 -19.88 0 0.2 -6.35 0.57 -6.27 0.95 -6.2 1.3 -6.09 1.64 -6 1.97 -5.89 2.29 -5.76 2.59 -5.64 2.89 -5.49 3.14 -5.34 3.42 -5.19 3.67 -5.04 3.91 -4.85 4.13 -4.7 4.36 -4.5 4.54 -4.31 4.76 -4.12 4.94 -3.9 5.1 -3.7 5.28 -3.48 5.43 -3.26 5.56 -3.01 5.7 -2.77 5.82 -2.52 5.94 -2.26 6.04 -1.98 6.12 -1.71 6.21 -1.42 6.28 -1.12 6.33 -0.81 6.39 -0.5 6.42 -0.16 0 0zm0 0c5.48,0 9.94,4.46 9.94,9.94 0,5.48 -4.46,9.94 -9.94,9.94l0 -19.88zm133.89 124.34l-19.88 0 0 0 -0.16 -5.13 -0.47 -5.07 -0.77 -5.04 -1.06 -4.97 -1.34 -4.92 -1.63 -4.83 -1.89 -4.78 -2.15 -4.68 -2.41 -4.59 -2.66 -4.5 -2.88 -4.39 -3.11 -4.26 -3.33 -4.15 -3.53 -4 -3.74 -3.86 -3.92 -3.71 -4.08 -3.54 -4.26 -3.38 -4.42 -3.2 -4.54 -3 -4.69 -2.8 -4.8 -2.61 -4.92 -2.39 -5 -2.16 -5.1 -1.94 -5.16 -1.7 -5.24 -1.45 -5.29 -1.22 -5.32 -0.94 -5.37 -0.69 -5.37 -0.42 -5.4 -0.14 0 -19.88 6.42 0.16 6.39 0.5 6.33 0.81 6.28 1.12 6.21 1.42 6.12 1.71 6.04 1.98 5.94 2.26 5.82 2.52 5.7 2.77 5.56 3.01 5.43 3.26 5.28 3.48 5.1 3.7 4.94 3.9 4.76 4.12 4.54 4.31 4.36 4.5 4.13 4.7 3.91 4.85 3.67 5.04 3.42 5.19 3.14 5.34 2.89 5.49 2.59 5.64 2.29 5.76 1.97 5.89 1.64 6 1.3 6.09 0.95 6.2 0.57 6.27 0.2 6.35 0 0zm0 0c0,5.48 -4.46,9.94 -9.94,9.94 -5.48,0 -9.94,-4.46 -9.94,-9.94l19.88 0zm-79.38 136.12l-7.68 -18.34 0 0 4.51 -1.99 4.32 -2.12 4.15 -2.25 3.95 -2.36 3.77 -2.47 3.6 -2.59 3.43 -2.7 3.25 -2.81 3.1 -2.92 2.95 -3.04 2.79 -3.14 2.65 -3.24 2.49 -3.35 2.36 -3.47 2.21 -3.55 2.06 -3.68 1.94 -3.77 1.81 -3.89 1.66 -3.97 1.53 -4.1 1.41 -4.19 1.28 -4.29 1.16 -4.39 1.02 -4.48 0.9 -4.57 0.77 -4.67 0.65 -4.75 0.52 -4.84 0.41 -4.94 0.3 -5.01 0.17 -5.08 0.06 -5.16 19.88 0 -0.06 5.6 -0.19 5.56 -0.32 5.49 -0.45 5.42 -0.58 5.38 -0.73 5.31 -0.87 5.23 -1.02 5.17 -1.16 5.08 -1.32 5.01 -1.46 4.93 -1.63 4.85 -1.79 4.76 -1.96 4.69 -2.13 4.57 -2.28 4.47 -2.48 4.38 -2.65 4.27 -2.82 4.15 -3.01 4.05 -3.19 3.92 -3.37 3.78 -3.55 3.66 -3.74 3.52 -3.93 3.39 -4.11 3.24 -4.3 3.09 -4.49 2.95 -4.67 2.78 -4.85 2.63 -5.04 2.48 -5.23 2.31 0 0zm0 0c-5.06,2.12 -10.89,-0.27 -13.01,-5.33 -2.12,-5.06 0.27,-10.89 5.33,-13.01l7.68 18.34zm-188.4 -112.28l19.88 0 0 0 0.22 5.81 0.65 5.82 1.09 5.81 1.49 5.8 1.89 5.75 2.3 5.69 2.68 5.61 3.04 5.5 3.41 5.38 3.75 5.23 4.09 5.06 4.4 4.88 4.7 4.66 4.99 4.43 5.26 4.17 5.52 3.91 5.75 3.62 5.97 3.29 6.21 2.98 6.37 2.63 6.56 2.26 6.74 1.88 6.88 1.48 7.02 1.06 7.15 0.62 7.26 0.18 7.37 -0.3 7.47 -0.79 7.54 -1.3 7.64 -1.84 7.68 -2.37 7.75 -2.97 7.68 18.34 -8.93 3.41 -8.92 2.77 -8.88 2.12 -8.82 1.54 -8.75 0.91 -8.65 0.36 -8.54 -0.2 -8.39 -0.74 -8.26 -1.24 -8.06 -1.74 -7.88 -2.2 -7.68 -2.64 -7.45 -3.07 -7.21 -3.46 -6.97 -3.85 -6.69 -4.2 -6.42 -4.55 -6.1 -4.85 -5.81 -5.15 -5.48 -5.44 -5.14 -5.68 -4.79 -5.94 -4.41 -6.15 -4.03 -6.36 -3.62 -6.54 -3.2 -6.71 -2.76 -6.85 -2.31 -6.99 -1.83 -7.1 -1.33 -7.19 -0.81 -7.26 -0.28 -7.29 0 0zm0 0c0,-5.48 4.46,-9.94 9.94,-9.94 5.48,0 9.94,4.46 9.94,9.94l-19.88 0zm216.49 -159.77l9.64 -17.38 0 0 15 9.17 13.7 10.1 12.43 10.93 11.14 11.72 9.87 12.38 8.59 13 7.35 13.49 6.09 13.94 4.88 14.27 3.68 14.53 2.48 14.74 1.31 14.82 0.16 14.87 -0.98 14.81 -2.09 14.69 -3.19 14.49 -4.27 14.23 -5.35 13.87 -6.39 13.46 -7.44 12.96 -8.47 12.38 -9.47 11.72 -10.48 10.99 -11.44 10.17 -12.41 9.27 -13.35 8.29 -14.26 7.23 -15.16 6.07 -16.01 4.86 -16.85 3.56 -17.65 2.19 -18.43 0.74 0 -19.88 16.81 -0.68 16.01 -1.99 15.17 -3.2 14.37 -4.36 13.54 -5.43 12.72 -6.45 11.89 -7.37 11.05 -8.27 10.2 -9.05 9.34 -9.81 8.47 -10.48 7.57 -11.06 6.66 -11.62 5.75 -12.08 4.79 -12.47 3.85 -12.79 2.87 -13.03 1.87 -13.21 0.88 -13.31 -0.14 -13.33 -1.17 -13.28 -2.22 -13.16 -3.28 -12.97 -4.34 -12.73 -5.43 -12.38 -6.53 -12.01 -7.63 -11.54 -8.77 -11.02 -9.94 -10.44 -11.11 -9.79 -12.32 -9.08 -13.56 -8.29 0 0zm0 0c-4.79,-2.66 -6.53,-8.72 -3.87,-13.51 2.66,-4.79 8.72,-6.53 13.51,-3.87l-9.64 17.38zm-252.68 153l-19.82 1.58 0 0 -0.48 -12 0.44 -11.93 1.32 -11.83 2.18 -11.68 2.99 -11.48 3.78 -11.26 4.53 -11.02 5.25 -10.71 5.92 -10.39 6.59 -10.04 7.2 -9.65 7.81 -9.23 8.36 -8.75 8.89 -8.28 9.4 -7.75 9.89 -7.18 10.32 -6.59 10.76 -5.96 11.14 -5.29 11.5 -4.58 11.83 -3.84 12.13 -3.06 12.41 -2.24 12.64 -1.37 12.83 -0.49 13.02 0.44 13.13 1.42 13.24 2.42 13.29 3.46 13.3 4.52 13.3 5.63 13.23 6.75 -9.64 17.38 -11.99 -6.11 -11.98 -5.07 -11.94 -4.06 -11.87 -3.08 -11.8 -2.16 -11.69 -1.26 -11.56 -0.4 -11.43 0.43 -11.24 1.23 -11.05 2 -10.83 2.72 -10.59 3.44 -10.3 4.1 -10 4.75 -9.66 5.36 -9.3 5.93 -8.91 6.48 -8.48 6.99 -8.03 7.46 -7.54 7.91 -7.03 8.31 -6.48 8.67 -5.91 9.02 -5.32 9.31 -4.69 9.57 -4.03 9.8 -3.34 10 -2.65 10.14 -1.92 10.28 -1.16 10.35 -0.38 10.43 0.42 10.46 0 0zm0 0c0.43,5.47 -3.65,10.27 -9.12,10.7 -5.47,0.43 -10.27,-3.65 -10.7,-9.12l19.82 -1.58zm165.31 163.68l0 19.88 0 0 -8.99 -0.23 -8.9 -0.69 -8.78 -1.15 -8.67 -1.58 -8.52 -2 -8.39 -2.42 -8.24 -2.83 -8.06 -3.22 -7.89 -3.61 -7.7 -3.98 -7.5 -4.34 -7.28 -4.69 -7.08 -5.02 -6.84 -5.37 -6.59 -5.67 -6.36 -5.99 -6.08 -6.29 -5.83 -6.57 -5.53 -6.84 -5.26 -7.12 -4.94 -7.36 -4.64 -7.62 -4.32 -7.85 -3.99 -8.08 -3.64 -8.28 -3.31 -8.5 -2.93 -8.69 -2.56 -8.88 -2.17 -9.04 -1.79 -9.21 -1.38 -9.36 -0.97 -9.5 19.82 -1.58 0.87 8.62 1.26 8.48 1.61 8.33 1.97 8.18 2.32 8.02 2.65 7.85 2.97 7.68 3.3 7.48 3.59 7.28 3.9 7.09 4.18 6.86 4.46 6.64 4.72 6.4 4.99 6.16 5.23 5.91 5.46 5.63 5.7 5.37 5.91 5.09 6.12 4.79 6.32 4.5 6.5 4.19 6.68 3.86 6.86 3.54 7.01 3.21 7.16 2.86 7.3 2.51 7.43 2.14 7.56 1.78 7.67 1.4 7.78 1.01 7.86 0.61 7.97 0.21 0 0zm0 0c5.48,0 9.94,4.46 9.94,9.94 0,5.48 -4.46,9.94 -9.94,9.94l0 -19.88z"/>
      <path id="1" class="fil1" d="M2301.58 343.23l0 -23.84c0,-61.47 60.85,-114.4 123.95,-114.4 63.1,0 123.95,52.93 123.95,114.4 0,57.77 -20.3,104.75 -73.28,126.95 -89.1,37.33 -174.62,-33.18 -174.62,-103.11zm119.18 166.85c192.15,0 251.28,-247.02 92.19,-335.31 -134.35,-74.56 -276.92,42.54 -267.41,162.48 7.71,97.3 84.32,172.83 175.22,172.83z"/>
     </g>
     <g>
      <path class="fil0" d="M2430.18 296.31l-9.3 17.58 9.29 0 -1.61 0.83 -1.56 0.8 -1.49 0.72 -1.42 0.69 -1.35 0.63 -1.2 0.57 -1.17 0.57 -1.13 0.54 -0.93 0.46 -0.88 0.46 -0.82 0.44 -0.71 0.41 -0.6 0.36 -0.46 0.32 -0.44 0.33 -0.33 0.28 -0.25 0.22 -0.21 0.24 -0.2 0.23 -0.15 0.22 -0.15 0.25 -0.17 0.34 -0.18 0.41 -0.18 0.51 -0.18 0.63 -0.18 0.78 -0.17 0.88 -0.14 1.01 -0.11 1.19 -0.09 1.35 -0.06 1.5 -0.02 1.63 -19.88 0 0.02 -2.13 0.08 -2.04 0.13 -1.93 0.19 -1.89 0.26 -1.87 0.33 -1.78 0.4 -1.72 0.5 -1.69 0.58 -1.65 0.68 -1.59 0.77 -1.52 0.89 -1.49 0.99 -1.4 1.04 -1.29 1.11 -1.18 1.17 -1.12 1.19 -0.98 1.18 -0.89 1.24 -0.84 1.22 -0.76 1.19 -0.69 1.18 -0.64 1.22 -0.64 1.27 -0.62 1.17 -0.56 1.23 -0.59 1.3 -0.61 1.25 -0.59 1.3 -0.63 1.31 -0.64 1.34 -0.68 1.41 -0.73 9.29 0zm-9.29 0c4.85,-2.56 10.87,-0.7 13.43,4.15 2.56,4.85 0.7,10.87 -4.15,13.43l-9.28 -17.58zm9.41 66.39l0 -19.88 0 0 0.33 -0.02 0.5 -0.08 0.6 -0.14 0.7 -0.24 0.84 -0.34 0.79 -0.39 0.84 -0.5 0.84 -0.56 0.76 -0.61 0.74 -0.67 0.69 -0.72 0.58 -0.72 0.5 -0.72 0.42 -0.74 0.32 -0.73 0.25 -0.72 0.16 -0.68 0.08 -0.71 0 -0.75 -0.08 -0.78 -0.21 -0.9 -0.33 -0.99 -0.52 -1.13 -0.73 -1.26 -1 -1.39 -1.29 -1.54 -1.61 -1.62 -1.93 -1.72 -2.32 -1.8 -2.71 -1.88 -3.11 -1.92 -3.52 -1.96 9.3 -17.58 4.28 2.38 3.93 2.44 3.57 2.48 3.26 2.52 2.93 2.6 2.61 2.66 2.29 2.72 2 2.79 1.67 2.88 1.36 2.93 1.01 2.99 0.67 3 0.34 3.02 -0.02 2.95 -0.32 2.87 -0.62 2.76 -0.87 2.6 -1.1 2.43 -1.28 2.28 -1.44 2.12 -1.6 1.96 -1.69 1.78 -1.78 1.63 -1.9 1.49 -1.94 1.32 -2 1.18 -2.09 1.03 -2.08 0.86 -2.18 0.72 -2.26 0.54 -2.28 0.34 -2.35 0.12 0 0zm0 0c-5.48,0 -9.94,-4.46 -9.94,-9.94 0,-5.48 4.46,-9.94 9.94,-9.94l0 19.88zm-38.55 -29.01l19.88 0 0 0 0.03 1.23 0.1 1.04 0.14 0.91 0.18 0.78 0.19 0.61 0.19 0.48 0.21 0.43 0.2 0.33 0.21 0.27 0.24 0.27 0.23 0.23 0.27 0.22 0.35 0.24 0.41 0.24 0.44 0.22 0.53 0.23 0.61 0.22 0.65 0.2 0.71 0.18 0.83 0.17 0.84 0.15 0.9 0.13 0.92 0.11 0.95 0.08 0.99 0.06 0.99 0.05 1.04 0.02 1.08 0.02 1.05 0.01 1.07 0 1.08 0 1.04 0 0 19.88 -1.04 0 -1.08 0 -1.15 0 -1.23 -0.01 -1.24 -0.02 -1.3 -0.04 -1.39 -0.05 -1.41 -0.1 -1.43 -0.12 -1.48 -0.17 -1.5 -0.21 -1.52 -0.27 -1.51 -0.33 -1.59 -0.4 -1.61 -0.5 -1.59 -0.58 -1.61 -0.69 -1.62 -0.82 -1.57 -0.94 -1.53 -1.06 -1.53 -1.24 -1.45 -1.39 -1.32 -1.51 -1.23 -1.67 -1.1 -1.81 -0.95 -1.89 -0.81 -2.02 -0.65 -2.11 -0.48 -2.14 -0.36 -2.23 -0.2 -2.32 -0.07 -2.37 0 0zm0 0c0,-5.48 4.46,-9.94 9.94,-9.94 5.48,0 9.94,4.46 9.94,9.94l-19.88 0zm100.11 -14.3l19.88 0 0 0 -0.47 11.71 -1.38 11.06 -2.25 10.38 -3.07 9.7 -3.84 8.99 -4.55 8.26 -5.2 7.53 -5.81 6.76 -6.33 5.99 -6.78 5.21 -7.18 4.41 -7.49 3.6 -7.75 2.79 -7.93 2.01 -8.06 1.2 -8.12 0.4 -8.12 -0.4 -8.06 -1.2 -7.93 -2.01 -7.75 -2.79 -7.49 -3.6 -7.18 -4.41 -6.78 -5.21 -6.33 -5.99 -5.81 -6.76 -5.2 -7.53 -4.55 -8.26 -3.84 -8.99 -3.07 -9.7 -2.25 -10.38 -1.38 -11.06 -0.47 -11.71 19.88 0 0.41 10.11 1.16 9.34 1.87 8.62 2.49 7.88 3.08 7.19 3.59 6.52 4.04 5.83 4.45 5.2 4.83 4.57 5.16 3.95 5.42 3.33 5.67 2.72 5.87 2.13 6.01 1.51 6.12 0.92 6.16 0.3 6.16 -0.3 6.12 -0.92 6.01 -1.51 5.87 -2.13 5.67 -2.72 5.42 -3.33 5.16 -3.95 4.83 -4.57 4.45 -5.2 4.04 -5.83 3.59 -6.52 3.08 -7.19 2.49 -7.88 1.87 -8.62 1.16 -9.34 0.41 -10.11 0 0zm0 0c0,-5.48 4.46,-9.94 9.94,-9.94 5.48,0 9.94,4.46 9.94,9.94l-19.88 0zm-132.66 0l-19.88 0 0 0 0.5 -8.9 1.48 -8.45 2.41 -7.94 3.27 -7.41 4.07 -6.81 4.75 -6.2 5.38 -5.59 5.91 -4.96 6.37 -4.34 6.75 -3.73 7.07 -3.14 7.34 -2.57 7.54 -1.98 7.69 -1.42 7.79 -0.87 7.84 -0.32 7.85 0.24 7.81 0.81 7.69 1.36 7.55 1.93 7.34 2.52 7.08 3.1 6.77 3.71 6.38 4.32 5.93 4.96 5.38 5.59 4.77 6.23 4.07 6.85 3.26 7.47 2.41 8.01 1.47 8.53 0.5 9 -19.88 0 -0.38 -6.78 -1.07 -6.21 -1.71 -5.71 -2.3 -5.23 -2.85 -4.79 -3.37 -4.41 -3.86 -4.01 -4.33 -3.62 -4.78 -3.24 -5.17 -2.83 -5.52 -2.42 -5.82 -1.98 -6.07 -1.55 -6.25 -1.12 -6.37 -0.65 -6.43 -0.2 -6.44 0.26 -6.39 0.71 -6.25 1.16 -6.08 1.6 -5.82 2.03 -5.53 2.46 -5.19 2.87 -4.79 3.26 -4.35 3.64 -3.86 4.01 -3.39 4.4 -2.85 4.77 -2.29 5.19 -1.71 5.62 -1.06 6.11 -0.38 6.66 0 0zm0 0c0,5.48 -4.46,9.94 -9.94,9.94 -5.48,0 -9.94,-4.46 -9.94,-9.94l19.88 0z"/>
      <path id="1" class="fil1" d="M2401.69 333.69c0,-20.75 7.5,-19.96 23.84,-28.59 43.77,23.15 18.75,47.66 4.77,47.66 -10.94,0 -28.61,0.76 -28.61,-19.07zm-52.43 -14.3c0,120.08 152.54,120.08 152.54,0 0,-86.92 -152.54,-85.58 -152.54,0z"/>
     </g>
    </g>
   </g>
   <path class="fil1" d="M875.02 1966.93l66.15 3.59c11.47,43.09 4.15,91.84 4.75,134.78 0.85,60.59 8.91,51.24 45.11,91.13l4.24 302.77c-52.28,-50.01 -46.64,-86.64 -50.58,-157.04l-155.34 -7.18c-8.66,-64.37 10.01,-149.58 -9.87,-207.57l-91.97 0.23 -4.77 203.66 -136.32 3.79c-31.1,41.46 -77.31,156.44 -107.16,209.66 -40.53,72.25 -14.46,211.33 -21.75,297.87l-96.58 99.85 0.89 441.65 93.33 2.45 3.12 -397.68 106.56 -109.99c-3.22,-196.86 -29.18,-261.54 85.12,-435.03l227.62 -3.41c28.34,42.13 26.61,91.81 105.73,177.76 38.25,41.55 107.57,118.92 155.06,133.22l1.33 -600.14c-84.26,-71.48 -36.37,-101.11 -48.49,-265.11 -5.48,-36.96 6.02,-6.51 -24.37,-34.87l282.47 -683.32 282.39 670.76c2.68,20.17 -15,25.17 -16.64,64.95l1.5 274.21 365.32 4.43 1.91 413.69 258.34 0.9c7.37,-72.93 1.18,-147.56 1.89,-219.1 0.46,-47.7 19.34,-138.59 29.28,-188.54 9.72,-48.79 69.02,-343.97 76.77,-357.18l73.68 354.72c10.75,73.15 29.54,111.1 29.95,191.34 0.37,71.74 -4.03,145.25 1.41,216.34l104.76 2.75c7.15,-88.66 -3.5,-177.74 2.99,-265.04 5.01,-67.52 32.16,-158.99 46.29,-227.61 3.63,4.72 5.26,4.13 10.79,17.63 0.37,0.88 7.2,24.46 7.74,26.61l34.33 174.5c11.67,76.71 0.16,188.05 4.11,270.07l102.17 2.91c5.46,-83.84 -8.14,-197.07 5,-271.41 14.05,-79.48 30.7,-155.78 48.4,-234.51 16.41,39.53 53.11,230.83 53.73,278.65 2.48,192.75 -9.36,895.13 1.64,1014.87l101.57 2.72c13.94,-62.45 4.66,-863.66 4.82,-999.4 0.14,-120.31 -60.06,-298.71 -78.5,-423.94 -16.61,-112.85 -50.47,-304.77 -83.01,-410.39l-102 502.06 -103.37 -479.52c-8.71,10.69 -4.93,1.24 -11.4,19.23 -0.32,0.88 -6,25.27 -6.91,29.21 -20.79,90.18 -70.3,379.27 -91.11,414.44 -30.82,-52.36 -116.25,-598.92 -159.59,-748.1 -23.57,92.94 -33.11,198.33 -55.83,291.4l-146.83 735.81c-8.87,57.01 0.1,116.97 -6.43,174.47l-48.33 2.82 -4.7 -416.33 -98.63 -6.85 -5.92 -417.89 -97.32 -0.95c-18.32,62.91 -0.91,325.38 -6.84,414.42 -45.78,13.03 -107.9,9.62 -154.93,2.86l-1.01 -99.89 66.09 -2.54c-1.02,-68.74 -335.63,-830.55 -415.25,-1031.11l-20.96 -36.94c-34.59,47.78 -435.81,1038.02 -435.64,1067.4zm385.12 525.53l101.67 1.44 1.79 -184.68c-124.44,-111.32 -110.83,123.31 -103.46,183.24zm420.23 -1.08l99.74 2.22c6.39,-51.02 12.33,-162.94 -15.11,-202.06l-54.19 -7.11c-44.91,46.37 -38.17,109.69 -30.44,206.95zm-203.84 1.5l95.14 0.98c8.94,-56.37 16.99,-167.85 -24.1,-205.43 -59.83,-7.69 -72.36,-0.46 -75.52,61.94 -2.31,45.7 -4.45,98.52 4.48,142.51zm-316.98 -420.21l92.55 0.39c10.7,-43.14 8.04,-146.51 -1.76,-190.81 -123.49,-68.47 -107.72,125.67 -90.79,190.42zm210.45 -185.53l-4.32 185.04 103.28 0.37c4.19,-29.63 5.89,-129.69 1.74,-157.79 -8.31,-56.27 -64.35,-61.54 -100.7,-27.62z"/>
  </g>
 </g>
</svg>
