<?xml version="1.0" encoding="UTF-8"?>
<!DOCTYPE svg PUBLIC "-//W3C//DTD SVG 1.1//EN" "http://www.w3.org/Graphics/SVG/1.1/DTD/svg11.dtd">
<!-- Creator: CorelDRAW 2017 -->
<svg xmlns="http://www.w3.org/2000/svg" xml:space="preserve" width="26.7546mm" height="15.0706mm" version="1.1" style="shape-rendering:geometricPrecision; text-rendering:geometricPrecision; image-rendering:optimizeQuality; fill-rule:evenodd; clip-rule:evenodd"
viewBox="0 0 2675.46 1507.06"
 xmlns:xlink="http://www.w3.org/1999/xlink">
 <defs>
  <style type="text/css">
   <![CDATA[
    .str0 {stroke:black;stroke-width:8.46;stroke-miterlimit:22.9256}
    .str1 {stroke:black;stroke-width:6.64;stroke-linecap:round;stroke-linejoin:round;stroke-miterlimit:22.9256}
    .fil2 {fill:none}
    .fil0 {fill:black}
    .fil1 {fill:#BD1522}
    .fil3 {fill:white}
   ]]>
  </style>
 </defs>
 <g id="Capa_x0020_1">
  <metadata id="CorelCorpID_0Corel-Layer"/>
  <path class="fil0" d="M913.77 304.26c0,41.81 42.7,44.88 57.44,26.75 3.59,-4.42 9.42,-20.53 8.59,-25.65 -0.81,-4.98 -2.85,-8.51 -5.16,-12.08 -6.15,-9.47 -15.75,-22.43 -27.42,-25.9 -12.17,-3.62 -24.33,13.68 -28.26,22.89 -1.85,4.34 -0.68,3.24 -2.03,7.56l-0.99 2.85c-2.59,6 -2.17,-1.55 -2.17,3.58zm80.58 -24.94c-0.66,-7.88 -1.92,-4.29 -1.92,-11.51 0,-7.98 1.64,-11.35 1.65,-15.64 0.03,-6.48 -2.65,-7.5 -5.41,-13.21l-41.48 -52.54c-10.03,-9.28 -17.91,-18.55 -29.22,-26.42 -3.82,-2.65 -2.09,-1.26 -5.33,-4.27l-21.29 -15.16c-5.35,-3.56 -0.44,-0.98 -6.49,-3.1l-4.38 -1.38c-0.46,-0.15 -0.94,-0.36 -1.4,-0.51l-9.43 -2.09c-42.77,-4.04 -25.44,-0.06 -57.1,10.08l-6.14 3.45c-0.31,0.24 -0.7,0.66 -1.01,0.91l-42.85 30.06c-0.32,0.24 -0.74,0.61 -1.06,0.86l-30.74 22.97c-10.99,9.83 -22.65,23.62 -27.42,37.82l-5.03 23.76c-0.73,3.69 -1.43,3.34 -2.43,7.31 -2.6,10.41 1.09,8.11 1.09,16.28 0,12.46 -4.26,20.72 0.73,31.88l10.45 26.01c4.16,6.12 2.85,2.97 6.33,10.94 3.24,7.4 9.49,16.34 15.36,21.1 13.13,10.64 9.02,13.25 29.67,25.97 2.94,1.82 8.52,6.61 9.89,7.38l42.91 16.57c5.26,1.66 -1.62,-0.05 4.3,1.45 20.81,5.25 47.38,0.98 67.66,-3.88 15.32,-3.67 11.75,-5.62 19.75,-9.03 1.05,-0.46 3.73,-1.12 4.38,-1.37l18.67 -12.04c0.11,-0.09 1.89,-1.73 3.07,-2.68 1.89,-1.5 1.32,-0.84 3.34,-2.42l21.48 -22.65c5.86,-8.02 8.45,-4.77 8.7,-16.24 -7.55,2.74 -0.21,0.29 -7.67,5.76 -13.04,-6.9 -5.59,-1.92 -19.19,-1.92 -2.56,0 -8.06,-3.84 -11.96,-5.3 -8.02,-3 -16.38,-8.28 -21.04,-15.42 -7.59,-11.6 -7.53,-10.92 -9.9,-26.72 -1.54,-10.28 -1.82,-5.23 1.12,-15.36 2.06,-7.1 0.82,-9.18 3.58,-15.69l14.53 -21.92c6.48,-8.23 6.47,-4 13.67,-9.36 6.14,-4.57 9.73,-7.26 19.04,-5.72 0.33,0.05 0.85,0.2 1.18,0.28l12.74 3.99c0.38,0.2 0.84,0.5 1.2,0.72 0.5,0.29 1.8,1.25 2.28,1.56 25.4,16.59 20.22,23.53 31.12,26.44zm-251.05 -116.17l-9.89 -0.87 0 3.84 9.89 -2.97zm348.64 319.55c-6.31,3.4 -13.83,5.64 -20.84,9.71l-57.56 -34.66c0,14.12 3.96,19.73 1.03,31.6l-28.72 67.35c-0.24,0.32 -0.56,0.79 -0.8,1.12l-1.56 2.28c-0.23,0.33 -0.53,0.81 -0.76,1.15l-20.14 27.82c-0.24,0.34 -0.54,0.82 -0.76,1.16l-33.44 37.55c-0.27,0.29 -0.66,0.71 -0.93,1l-25.72 22.24c-7.32,5.88 -17.45,9.27 -23.62,16.67 -5.64,6.76 -1.83,2.29 -8.1,7.25l-17.85 12.85c-5.55,3.4 -4,1 -9.83,5.52l-49.45 29.22c-1.84,-2.76 -3.5,-5.36 -5.75,-7.68 -4.84,-4.97 -4.98,-0.19 -5.76,-9.59 10.64,-2.84 0.2,-5.53 16.81,-10.05 7.32,-1.99 13.72,-4.85 19.53,-9.26 5.55,-4.22 1.94,-3.03 7.12,-6.3l6.31 -3.29c0.33,-0.23 0.74,-0.61 1.06,-0.86 0.31,-0.24 0.68,-0.68 0.98,-0.93l20.68 -13.85c3.57,-1.86 1,-0.46 4.78,-2.9l35.26 -28.06c0.45,-0.34 1.8,-1.25 2.25,-1.59l78.67 -92.09 15.08 -34.8c3.7,-7.18 8.09,-20.58 4.44,-28.18 -7.75,2.81 -15.73,20.11 -25.06,26.74 -1.51,1.08 -1.81,1.07 -3.34,2.42l-3.65 4.02c-0.36,0.43 -1.32,1.73 -1.68,2.16 -6.48,7.83 -9.22,8.29 -14.2,12.66l-11.02 8.17c-2.21,1.52 -1.45,0.79 -3.57,2.18l-19.86 14.69c-10.79,7.14 -21.84,15.1 -33.44,20.28 -3.15,1.4 -1.86,0.83 -3.71,2.04 -3.11,2.05 0.52,0.04 -3.2,2.56 -2.59,1.75 1.62,-0.18 -3.64,2.12 -9.92,4.34 -16.62,3.4 -25.99,8.54 -6.58,3.61 -34.35,7.27 -44.67,9.06 -15.32,2.65 -24.35,-1.02 -45.81,2.15 -18.43,2.73 -27.94,4.93 -48.79,4.93 -2.49,-5.19 -3.84,-9.26 -3.84,-17.27 22.71,-10.9 69.04,-6.83 93.67,-9.91 6.48,-0.82 41.21,-6.14 45.26,-8.49 8.42,-4.86 -1.66,-3.18 18.87,-7.99l51.12 -29.46c0.01,-0.02 1.92,-2.06 2.89,-2.87 4.13,-3.42 1.47,-0.9 4.59,-3.09l7.31 -6.11c2.1,-1.54 1.29,-0.73 3.56,-2.2 3.54,-2.29 1.35,-0.59 4.51,-3.17l14.75 -12.11c4.96,-4.42 8.16,-10.06 13.34,-13.51 7.17,-4.77 12.57,-15.49 16.62,-23.69 2.32,-4.71 1.82,-2.76 4.39,-9.31 0.17,-0.43 0.41,-0.96 0.55,-1.37 1.54,-4.4 -0.32,3.2 0.84,-2.53 2.15,-10.61 -5.74,-5.6 -25.65,-19.12 -4.72,-3.21 -5.59,-2.12 -7.2,-8.16 -11.79,0 -4.49,-0.16 -21.62,9.08 -8.81,4.76 -1.53,2.88 -8.66,6.69l-61.81 16.85c-23.07,3.84 -20.21,2.15 -38.24,-0.13 -18.45,-2.33 -37.66,-10.79 -53.58,-19.34l-36.49 -24.9c-0.33,-0.24 -0.79,-0.57 -1.11,-0.81l-37.03 -49.31c-6.87,-10.23 -7.07,-25.64 -9.25,-38.72 -2.21,-13.28 -6.64,-27.26 -6.56,-39.63 0.11,-16.33 2.3,0.66 3.82,-13.27 -7.07,-4.74 -6.64,-2.5 -13.43,-5.75 0,-12.57 1.55,-11.25 5.76,-19.19 10.18,0.84 9.06,8.72 13.83,-3.25 1.91,-4.76 1.37,-1.7 1.52,-8.26 -5.94,-0.51 -3.63,0.02 -7.68,-1.92 0,-9.71 -1.3,-9.87 -1.91,-17.27 10.33,-4.96 10.76,-3.72 19.18,1.92 0.34,-0.3 0.89,-1.2 1.04,-0.88l6.54 -6.89c1.09,-1.63 0.88,-0.61 2.01,-3.74 -13.34,-8.94 -15.34,-1.11 -15.34,-24.95 11.51,-2.68 16.94,-0.88 17.26,-15.35 12.75,1.07 5.23,3.4 23.03,1.92 -3.03,-8.36 -4.83,-0.33 -5.76,-11.51 6.79,-2.74 1.46,1.28 5.76,-7.67 15.75,0 8.74,-3.37 20.12,2.77 8.79,4.74 12.04,5.32 22.09,2.98 -5.45,-7.43 -12.35,-10.72 -2.54,-19.75l6.37 -5.19 14.76 6.35c0.38,0.2 0.83,0.52 1.2,0.72 5.01,2.7 -2.19,0.56 5.15,2.52 3.59,-3.4 6.79,-7.33 9.59,-11.51 -8.91,-0.74 -3.35,2.06 -7.67,-3.84 1.49,-5.58 4.52,-7.47 7.67,-13.43 11.59,0 15.76,-2.52 24.53,2.25 7.27,3.95 3.45,-1.32 6.17,5.43l9.59 0c2.71,-10.14 4.81,-1.97 5.76,-13.43l13.43 0c1.45,6.2 3.26,8.41 3.84,15.35 9.36,0 6.21,0.03 13.01,2.34 19.8,6.7 35.22,18.21 51.39,31.11l43.93 42.4c8.51,7.03 1.71,1.99 6.45,8.9l21.46 26.51c8.55,11.85 8.08,39.66 9.13,52.42l-5.51 30.77c-0.05,0.32 -0.12,0.86 -0.16,1.18l-0.11 2.57c-0.03,0.39 0.01,0.98 -0.05,1.38 -0.97,7.4 -3.8,10.22 -5.71,16.75l-29.53 56.81c-0.23,0.33 -0.53,0.82 -0.77,1.15 -4.75,6.63 -11.14,7.13 -13.35,15.42l4.08 3.59c12.4,9.23 18.1,10.1 29.68,16.37l23.74 12.92c1.63,0.67 5.95,3.43 8.23,4.97l40.87 24.4c0.36,0.21 0.85,0.48 1.22,0.69l24.3 17.65z"/>
  <path class="fil0" d="M1188.14 597.95c0,31.82 3.82,20.88 9.07,34.92 4.48,11.97 10.4,52.34 11.25,65.43 0.5,7.78 -2.42,9.13 -1.25,24.25 1.75,22.64 1.96,9.74 -1.4,25.28 -1.62,7.55 -0.8,19.87 -2.37,28.37l-16.96 52.12c-1,3.51 -0.31,2.42 -1.62,6.05 -1.97,5.5 -3.75,6.15 -5.77,9.59 -2.56,4.35 -0.27,-0.58 -2.29,5.38l-16.91 29.13c-2.48,4.1 -0.38,-0.03 -2.41,5.26 -6.37,16.6 -19.89,31.92 -31.06,45.7 -1.07,1.33 -2.67,3.19 -3.5,4.17l-11.35 11.67c-2.92,3.29 -3.48,5.15 -6.63,8.72l-24.09 25.79c-0.27,0.29 -0.68,0.69 -0.94,0.98l-87.03 83.74c-0.27,0.29 -0.61,0.75 -0.88,1.03l-35.41 27.91c-0.34,0.23 -0.8,0.55 -1.12,0.8l-25.67 20.37c-6.47,6.54 -8.25,13.76 -10.45,22.38 -2.26,8.86 1.49,9.23 6.67,20.34 3.32,7.13 9.5,10.36 15.16,15.53 2.45,2.24 1.34,1.32 4.11,3.57 3.06,2.48 0.71,0.8 4.39,3.28l25.36 16.85c3.92,3.15 4.25,18.72 -11.39,19.06 -2.66,-6.6 1.67,-1.04 -7.19,-6.24l-6.01 -3.58c-9.88,-7.01 -30.44,-20.81 -36.12,-29.11 -1.3,-1.91 -0.95,-2.02 -2.9,-4.77l-4.97 -6.55c-0.27,-0.52 -0.91,-2.13 -1.14,-2.7 -6.85,-16.9 -7.55,-11.4 -5.64,-32.13 0.24,-2.57 0.02,-5.03 0.09,-5.96 0.47,-6 6.13,-13.55 10.32,-18.16 15.04,-16.6 33.36,-29.4 51.46,-42.55l26.72 -23.17c2.52,-2.04 0,0.2 3.01,-2.75l30.68 -28.8c4.73,-3.82 3.04,-4.92 12.48,-12.46l11.71 -11.31c-1.68,0 -3.91,-0.15 -5.53,0.23 -3.46,0.81 -2.24,0.49 -4.14,1.61 -4.18,2.45 0.99,1.99 -7.78,5.65 -3.31,1.38 -7.42,1.64 -10.44,2.99 -9.91,4.41 -0.11,1.32 -7.77,5.66 -7.69,4.35 -12.24,0.7 -20.14,6.73 -8.02,6.13 3,2.59 -19.61,7.25 -13.01,2.68 -6.54,4.9 -18.52,8.34 -30.68,8.82 -16.66,9.64 -40.19,13.53 -14.07,2.33 -9.41,5.74 -17.96,8.9 -5.42,2 -15.45,2.74 -20.87,4.07 -10.88,2.68 -5.65,4.86 -18.48,8.38l-32.25 23.39c-5.37,8.35 -4.64,12.31 -7.27,23.43 -1.52,6.45 -0.11,-1.06 -2.03,5.65 -3.67,12.85 2.43,33.68 -5.74,44.01 -4.1,5.17 -1.24,4.15 -8.78,4.78 -2.26,-9.7 -5.17,-10.66 -9.6,-17.27 1.44,-6.15 3.23,-5.99 3.53,-11.62 0.42,-7.8 -1.91,-3.95 -1.58,-13.27l5.41 -25.31c0.19,-0.6 0.85,-2.2 1.03,-2.81 0.15,-0.48 0.31,-0.97 0.45,-1.47 2.79,-9.92 6.62,-18.8 13.97,-26.32l1.94 -1.89c11.6,-11.08 12.09,-9.65 24.51,-17.71 6.5,-4.21 15.83,-3.72 22.15,-8.55 7.8,-5.96 12.03,-4.6 23.79,-6.9 13.93,-2.71 8.01,-6.09 21.36,-9.34 12.42,-3.03 11.95,-2.06 22.39,-8.31 7.1,-4.25 16.5,-3.38 23.84,-6.86 9.33,-4.43 9.31,-6.47 21.64,-9.06 7.86,-1.65 5.02,-0.8 10.76,-4.59 6.34,-4.18 1.44,-2.17 10.87,-4.47 14.63,-3.59 9.27,-6.18 21.11,-9.6 12.16,-3.51 10.57,-6.37 20.74,-9.95 7.4,-2.61 4.11,-0.46 10.62,-4.73l34.55 -21.09c2.53,-1.55 2.49,-1.19 4.86,-2.82 12.13,-8.32 14.58,-12.73 24.38,-21.66 5.51,-5.02 2.26,-2.25 6.66,-8.7 6.57,-9.64 13.39,-16.17 18.69,-27.35 3.18,-6.69 7.46,-12.59 11.36,-19.34 4.47,-7.75 8.44,-12.08 10.86,-19.84l20.4 -52.6c0.14,-0.5 0.32,-1 0.47,-1.49 2.09,-6.81 0.21,-11.68 3.15,-17.82 2.47,-5.17 1.43,0.05 2.11,-4.46 0.41,-2.71 -1.69,-5.84 -0.19,-12.66 1.81,-8.18 3.43,-0.21 3.24,-12.06 -0.12,-7.35 -1.74,-4.88 -1.97,-13.66 -0.32,-11.73 3.49,-12.85 0.97,-27.69l-10.99 -65.79c-1.54,-6.64 -2.62,-5.2 -5.15,-10.19 -3.43,-6.79 -4.54,-18.09 -7.79,-24.8l24.95 2.02z"/>
  <path class="fil0" d="M821.67 235.19c-1.12,13.54 -4.51,15.35 -19.18,15.35 -1.85,-22.19 -11.39,-29.37 13.85,-34.11 6.93,-1.3 9.2,-2.34 16.84,-2.34 4,0 5.66,11.44 4.63,15.71 -0.7,2.91 0.83,5.01 -16.14,5.39z"/>
  <path class="fil0" d="M906.09 189.14c-7.24,3.83 -8.81,2.7 -13.43,9.6 -7.11,-1.9 -2.48,-1.94 -9.59,-3.84 -1.58,5.92 -1.83,7.67 -21.11,7.67 -0.16,-7.46 -3.29,-12.24 2.01,-17.04 2.39,-2.16 5.42,-2.62 7.82,-3.83 11.13,-5.59 8.58,-14.19 22.97,-6.32 9.41,5.15 8.7,2.46 11.33,13.76z"/>
  <path class="fil1" d="M1188.14 597.95l-24.95 -2.02c-7.41,0.56 -5.29,1.88 -13.54,2.03 -12.58,0.23 -6.84,-1.79 -14.02,-3.42 -7.78,-1.77 -9.34,0.64 -13.18,0.77l-6.91 -1.49c-14.71,-4.57 -16.93,-1.88 -37.29,-10.83l-8.29 -3.23c-0.44,-0.17 -0.95,-0.35 -1.39,-0.52 -0.57,-0.22 -2.21,-0.84 -2.75,-1.08 -7.47,-3.33 -17.95,-14.44 -19.99,-22.23 -2.64,-10.13 -6.26,-25.26 -2.81,-32.11l12.83 -19.92c0.44,-0.34 1.81,-1.23 2.26,-1.57l12.99 -9.92c7.01,-4.07 14.53,-6.31 20.84,-9.71l4.1 0 0 -11.51c10.1,-4.08 -5.02,1.28 12.5,-16.29 0.87,-0.88 3.82,-4.2 4.56,-5.03 5.91,-6.64 4.65,-6.17 11.18,-8 7.22,-2.03 18.84,-4.69 26.38,-2.37 0.48,0.15 0.96,0.37 1.41,0.54l15.76 9.24c0.47,0.32 1.87,1.18 2.33,1.5 18.92,13.3 13.64,24.76 18.97,34.76 4.63,8.68 3.04,0.4 5.65,13.54 6.9,34.71 0.02,23.92 5.06,64.06 3.23,25.75 -2.11,9.13 -2.11,32.76 -4.34,1.01 -4.46,1.47 -9.59,2.05z"/>
  <path class="fil0" d="M495.09 421.13c-7.21,-17.7 -16.77,-31.57 -34.79,-37.87 -54.96,-19.22 -93.54,36.13 -78.38,73.35 7.68,18.85 14.96,30.1 34.78,37.91 50.93,20.04 94.82,-33.08 78.39,-73.39zm-17.46 -305.86l-3.5 1.42c-2.74,2.42 -2.82,7.48 0.17,12.68 22.38,39.01 -17.44,68.26 -31.95,89.28 -21.91,31.71 -11.68,55.78 12.37,80.44 17.7,18.14 32.85,48.91 17.06,72.29 -5.32,-1.1 -8.7,-3.61 -14.12,-4.91 -14.57,-3.48 -30.57,-4.23 -46.25,2.16 -33.06,13.47 -36.09,33.69 -43.87,45.22 -12.58,-2.59 -25.08,-13.06 -31.81,-29.59 -14.48,-35.54 2.85,-52.27 -18.75,-81.09 -2.27,-3.02 -8.35,-8.34 -10.84,-10.14 -30.87,-22.36 -93.93,5.19 -109.76,-51.72 -1.33,-4.79 -5.01,-8.22 -8.73,-7.9l-3.28 1.33c-3.44,2.66 -6.3,9.47 -6.51,22.6 -0.25,15.05 -0.24,18.06 2.78,25.95l4.45 10.91 0.36 0.88c3.98,9.77 10.8,9.47 12.12,16.88 1.37,7.72 -0.54,11.55 3.27,20.91 6.76,16.59 12.64,26.98 31,34.05 14.97,5.77 4.83,12.75 24.81,28.26 2.95,2.28 5.74,4.19 9.46,5.74 4.58,1.92 7.15,1.45 10.66,2.88 1.61,0.65 0.75,0.07 2.62,1.48 2.04,1.55 0.64,0.57 2.29,2.24 10.77,10.9 19.9,14.25 35.42,18.43 8.57,2.3 37.78,7.42 46.63,4.65 -2.79,27.84 8.16,52.58 30.28,69.08 23.68,17.68 48.95,18.66 76.81,7.31 24.28,-9.89 40.5,-37.33 42.27,-56.69 1.45,-15.84 1.44,-20.09 -3.89,-38.41 -3.23,-11.08 -16.57,-25.82 -22.99,-31.2 11.44,-5.81 34.91,-39.81 40.17,-57.57 4.84,-16.34 0.55,-16.03 3.31,-22.36 1.64,-3.79 4.02,-5.36 5.99,-10.43 5.43,-13.99 2.71,-23.9 -1.15,-37.19 -2.54,-8.73 3.17,-8.04 5.39,-22.56 1.35,-8.81 0.68,-16.31 -1.04,-22.67l-4.75 -11.68c-4.75,-8.58 -10.68,-14.06 -12.58,-17.41 -3.04,-5.37 1.2,-10.52 -2.52,-19.65l-4.78 -11.72c-3.9,-9.58 -10.34,-14.8 -16.17,-20.58 -9.08,-8.99 -16.03,-12.03 -20.45,-11.6zm-264.43 188.25c3.56,8.75 -4.65,7.25 5.16,31.33 7.2,17.66 32.75,20.71 34.12,24.08 3.04,7.46 2.19,15.62 14.53,24.45 3.34,2.38 7,3.78 10.99,4.67 22.52,5.05 6.15,9.79 32.72,19.72 6.88,2.57 17.36,4.77 24.67,5.5 -12.67,-17.92 -21.94,-34.2 -22.09,-57.88 -0.14,-22.51 2.37,-16.65 -5.94,-37.05 -11.24,-27.57 -57.59,-15.93 -85.43,-27.86 -8.22,-3.51 -20.98,-8.23 -25.91,-17.94l-2.61 1.06c12.95,31.79 15.15,18.54 19.79,29.92zm285.13 -154.15l-2.61 1.07c5.81,18.54 -12.42,42.11 -22.39,55.34 -20.05,26.61 -34.51,32.49 -22.06,63.04 9.09,22.32 19.52,10.63 39.04,58.54 2.94,7.22 2.98,14.4 4.06,21.14 7.81,-9.32 18.28,-25.62 18.81,-38.5 0.46,-11.29 -4.67,-5.94 4.05,-18.8 12.21,-18.03 2.35,-29.98 -1.53,-39.51 -2.09,-5.12 22.32,-26.72 -0.94,-56.75 -4.38,-5.66 -7.24,-4.36 -9.68,-10.33 -2.13,-5.23 0.15,-10.64 -0.28,-16.32 -0.41,-5.34 -3.77,-12.27 -6.47,-18.92z"/>
  <path class="fil0" d="M479.94 421.23c10.13,24.86 -1.53,56.29 -29.93,60.81 -19.54,-17.72 22.98,-14.54 17.96,-46.42 -1.06,-6.67 -5.41,-14.91 2.8,-18.25 3.04,-1.24 7.93,0.82 9.17,3.86z"/>
  <path class="fil0" d="M280.89 1033.55c0.57,-0.31 2.31,-4.89 -1.76,-2.19 -3.53,2.35 -2.06,-2.73 -0.05,0.64 0.26,0.44 -0.92,3.08 1.81,1.55zm468.14 -485.04l-1.3 -4.42c-2.75,-4.63 -9.87,-5.59 -24.31,-4.43 -15.11,1.22 -37.79,4.06 -46.34,18.84 -13.07,22.61 2.93,52.23 -15.88,103.69 -5.07,13.88 -17.4,37.74 -25.07,53.27 -3.05,6.19 -6.2,11.39 -9.56,17.52l-53.16 104.89c-10.73,19.63 -25.79,51.94 -37.95,68.98 -29.97,42.01 -57.74,46.81 -90.75,85.73 -4.9,5.78 -8.04,10.27 -12.35,16.01 -13.71,18.23 -41.16,64.41 -47.3,84.09l-9.22 -1.61c-7.01,-0.26 -1.39,1.9 -8.35,-0.89 -7.04,-2.81 -5.3,-4.2 -14.39,-6.03 -4.06,3.97 -4.07,4.87 -7.24,8.68 -2.39,-3.91 -9.22,-9.77 -13.01,-13.22 -4.84,-4.4 -8.02,-7.61 -12.48,-11.86 -4.23,-4.02 -9.06,-8.65 -13.36,-12.58 -4.41,-4.03 -8.83,-7.07 -12.03,-12.7 1.36,-4.36 4.91,-11.06 3.07,-17.26 -6.33,-21.39 -33.67,-8.22 -46.02,-2.16 -8.96,4.41 -5.8,1.57 -14.52,2.08 2.61,-8.36 14.3,-12.47 12.1,-19.93 -1.55,-5.23 -6.13,-7.78 -11.02,-5.85 -3.54,1.39 -7.74,5.95 -9.86,8.38 -5.68,6.51 -11.77,14.25 -8.82,24.24 2.87,9.7 40.62,14 48.17,13.55l0.89 3.01c-8.79,3.42 -16.21,10.08 -25.57,13.87 -43.41,17.58 -35.63,9.14 -57.31,15.56 -17.46,5.16 -41.88,61.45 -18.23,54.45 15.73,-4.65 -0.46,-46.81 45.96,-38.13 58.34,10.92 94.88,-11.38 125.07,13.7 -4.89,5.89 -8.58,13.25 -10.14,20.99 6.22,6.36 8.74,5.61 14.53,10.42 -2.22,7.11 -8.1,14.81 -12.22,21.12 -10.84,16.63 -42.9,52.92 -59.45,76.24l-33.58 49.89c-2.65,3.62 -3.54,5.27 -5.8,9.48 -11.69,21.82 -22.46,42.04 -29.82,65.82l-9.01 35.49c-1.17,5.12 -1.07,7.69 -1.7,12.96 -2.66,22.3 -8.39,56.13 -1.76,78.55 2.04,6.89 3.89,-1.81 4.69,9.96 0.25,3.75 -1.77,0.86 1.08,5.03 3.91,5.72 8.53,3.01 12.87,1.44 11.21,-4.04 9.12,5.11 20.06,-5.46 28.05,-27.1 52.97,-57.29 74.99,-89.27 3.13,-4.55 5.14,-7.49 8.04,-12.05 7.52,-11.84 16.64,-24.25 22.53,-36.97 2.47,-5.35 2.86,-7.68 5.9,-13.2 20.89,-37.86 32.21,-79.56 44.65,-120.87 8.06,-26.74 5.22,-26.61 20.4,-54.55 30.72,-56.54 30.23,-48.04 13.04,-62.32 4.37,-5.26 6.74,-12.48 9.37,-18.89 10.21,-24.81 24.29,-50.51 42.85,-70.1 30.08,-31.73 68.01,-53.52 96.72,-87.53 13.49,-15.99 114.5,-207.27 127.98,-232.08 4.09,-7.52 5.75,-11.08 9.17,-19 2.92,-6.74 6.32,-10.95 8.96,-17.85 9.83,-25.67 22.98,-50.31 28.77,-77.75 4.09,-19.34 7.74,-31.63 7.02,-38.97zm-441.87 529.6c-8.17,-6.78 -15.42,-14.82 -23.05,-22.61 -11.52,11.27 -22.9,18.13 -41.55,25.38l14.63 0.94c11.1,-0.6 42.51,-4.7 49.97,-3.71zm-101.4 397.97c6.61,-1.37 2.16,-0.85 6.16,0.46 12.53,4.09 2.23,-0.62 14.55,3.23l52.05 -62.59c12.87,-17.34 34.85,-49.29 43.71,-68.38 9.85,-21.25 24.21,-53.9 30.99,-75.28 1.17,-3.7 1.65,-5.84 3.03,-9.72 1.4,-3.95 2.22,-5.41 3.37,-9.52 2.03,-7.25 3.42,-12.58 5.61,-19.67 2.56,-8.23 10.88,-33.44 10.44,-41.03l-33.82 -19.05c-33.44,39.66 -72.69,88.48 -97.64,134.4 -9.27,17.07 -15.72,27.64 -21.93,46.14 -9,26.79 -13.24,43.21 -16.19,73.23 -0.84,8.57 -2.86,38.47 -0.33,47.78zm151.01 -368.49c-10.55,16.25 -7.88,28.59 4.11,3.21 3.59,-7.59 -1.27,-7.58 -4.11,-3.21zm27.37 70.4l1.73 -4.1 -25.67 -14.71c-6.22,-3.52 -4.14,-3.66 -9.63,-0.69 3.53,5.78 10.17,7.42 15.77,10.46 6.16,3.36 11.37,7.04 17.8,9.04zm10.14 -20.98l4.67 -7.56 -31.35 -17.65 -4.41 9.59c4.74,3.82 9.45,5.75 14.71,8.61 3.05,1.66 4.76,2.68 7.75,4.32 7,3.83 6.77,2.31 8.63,2.69zm14.21 -23.83l1.95 -5.29c-3.21,-4.95 -24.16,-15.7 -29.95,-17.5l-4.37 6.48c6.5,5.49 23.69,14.58 32.37,16.31zm-9.34 -31.58l4.11 1.72c4.21,-4.93 5.44,-11.11 8.84,-17.4 19.69,-36.49 20.82,-50.33 54.61,-83.91 5.68,-5.64 9.98,-8.64 16.04,-14 22.87,-20.21 62.42,-46.96 77.05,-71.72 1.8,-3.03 3.37,-5.49 5.06,-8.61l109.29 -201.85c31.5,-57.98 44.68,-88.41 57.23,-150.63 -7.89,2.15 -13.76,0.8 -35.47,7.22 -10,2.96 -7.81,29.08 -8.01,38.56 -1.08,49.62 -8.87,68.54 -33.4,113.1 -3.59,6.5 -4.49,10.72 -7.99,17.12l-44.13 85.81c-3.26,6 -5.73,10.59 -9.01,16.56 -3.76,6.85 -5.05,11.64 -8.51,18.09l-37.55 66.68c-20.78,36.37 -80.64,59.99 -111.63,114.77 -11.42,20.2 -29.9,47.25 -36.53,68.49z"/>
  <path class="fil0" d="M2230.96 1236.13c8.46,-4.23 -3.07,-11.64 3.39,-24.05 6.53,-12.56 4.26,-11.41 9.8,-13.42l0 -9.67c-14.56,-0.33 -24.8,-4.47 -44,0 0,35.64 1.2,24.68 1.2,47.14l0.38 101.84c0,5.16 0.61,7.99 -1.06,12.48 -3.74,9.98 -4.75,-6.44 -4.75,26.22l48.23 0 -13.47 -27.16c-4.08,-7.79 0.56,-100.91 0.28,-113.38zm53.83 -428.29c0,8.36 -4.64,13.77 -9.68,21.29 -14.06,-9.42 -10.79,-5.81 -40.63,-5.81 -7.33,0 -5.17,6.92 -7.01,12.34l-3.2 6.47c-3.06,8.24 -0.12,10.87 -5.48,23.54 -0.19,0.42 -0.42,0.91 -0.58,1.36 -3.3,9.14 -5.22,23.74 -8.96,31.67 -2.52,5.38 -3.24,2.77 -5.16,10.32 -2.72,10.75 -9.24,20.28 -11.57,30.99 -0.6,2.78 -0.38,4.27 -1.02,6.72l-7.62 17.53c-0.29,0.51 -1.25,1.83 -1.54,2.33l-11.51 23.32c-0.24,0.32 -0.65,0.72 -0.88,1.05l-35.24 59.57c-1.5,2.43 -1.76,2.84 -2.92,4.81 -2.01,3.39 -3.57,6.54 -5.89,9.59l-44.16 62.26c-0.24,0.31 -0.59,0.77 -0.86,1.07 -2.56,2.99 -1.01,2.99 -5.05,4.62l0 3.87c15.76,0.36 3.33,5.06 19.24,5.92 12.04,0.66 12.18,-2.07 22.21,2.94 10.59,5.29 10.6,1.26 22.23,2.92 10.32,1.47 9.53,5.14 21.35,5.74l20.5 4.64c8.48,2.5 16.76,-0.51 24.83,2.27l19.38 5.77c12.91,1.66 12.34,-0.8 23.09,4 9.22,4.1 11.15,2.29 22.68,2.46 13.66,0.21 10.98,3.63 19.7,5.45 7.2,1.51 17.38,-0.37 24.71,0.45 11.53,1.3 5.16,5.62 21.15,5.93 7.76,0.16 17.39,-0.97 24.85,0.3 9.43,1.61 8.73,5.25 21.61,5.48 39.27,0.7 82.42,4.13 121.95,-0.13 11.52,-1.24 -0.63,-2.94 25.13,-5.82 9.9,-1.11 6.05,-4.03 15.68,-5.61l11.89 -3.59c11.21,-5.72 21.24,-9.26 26.96,-21.41 2.33,-4.94 1.64,-2.99 1.64,-9.97 -4.14,-1.1 -4.03,-1.99 -5.93,-5.68l-10.57 -14.59c-6.16,-6 -13.54,-13.87 -14.46,-22.29l-5.8 0c-0.69,-8.28 -0.41,-3.39 -3.65,-7.97 -7.28,-10.27 2.79,5.61 -2.47,-3.33l-6.14 -11.27c-1.27,-2.3 -0.74,-1.64 -1.86,-3.95l-46.09 -77.73c-0.15,-0.26 -1.97,-3.6 -2.06,-3.74 -2.02,-3.16 0.07,-0.06 -2.47,-3.34l-9.69 -15.46c-0.95,-1.37 -1.81,-2.46 -2.45,-3.36l-30.14 -47.25c-0.22,-0.35 -0.54,-0.82 -0.77,-1.16l-2.47 -3.33c-0.24,-0.34 -0.57,-0.8 -0.8,-1.14 -0.23,-0.35 -0.53,-0.83 -0.76,-1.17 -0.85,-1.31 -1.36,-2.3 -2.19,-3.62 -1.43,-2.24 -0.76,-1.17 -2.32,-3.48 -1.6,-2.37 -2.85,-4.15 -4.69,-6.92l-2.29 -3.52c-1.23,-1.89 -1.36,-2.14 -2.28,-3.52l-24.26 -35.71c-6.44,-8.06 -1.73,-5.71 -14.23,-20.61l-55.6 -79.82c-2.91,-3.94 -0.27,0.16 -2.96,-4.78l-6.84 -10.58c-0.26,-0.3 -0.64,-0.72 -0.91,-1.03 -0.26,-0.3 -0.65,-0.72 -0.91,-1.02l-30.75 -42.77c-5.36,-6.69 -4.83,-9.36 -9.46,-15.68 -0.34,-0.46 -1.37,-1.72 -1.72,-2.16 -0.26,-0.31 -0.64,-0.73 -0.9,-1.04l-16.75 -23.88c-3.61,-6.99 -4.04,-9.57 -10.94,-14.2 0,14.92 -0.56,20.78 -3.06,33.7 -2.7,13.97 -2.76,19.65 -2.75,35.95 0.01,16.26 2.34,40 -0.4,55.71 -3,17.27 -5.4,2.26 -5.4,33.29l30.95 0c6.49,0 3.9,5.5 17.42,5.8zm-208.96 -11.6l27.07 11.63 28.74 0.27c8.23,2.18 4.48,1.03 6.1,5.51 13.73,-0.31 9.43,-5.58 25.04,-5.92 8.69,-0.19 39,1.19 45.6,-0.83 6.91,-2.12 5.23,-1.55 7.36,-8.12 7.64,-23.65 5.2,-43.08 5.2,-68.32 0,-5.16 -1.65,-4.62 -7.26,-8.23 -0.35,-0.23 -0.87,-0.48 -1.22,-0.71 -0.34,-0.23 -0.82,-0.54 -1.16,-0.78 -0.33,-0.24 -0.78,-0.58 -1.1,-0.83 -7.99,-6.11 -2.85,-4.51 -14.22,-8.99 -25.71,-10.13 -1.87,-1.9 -28.98,-7.78 -8.08,-1.76 -5.91,-3.2 -15.64,-3.72l-65.86 -1.86c-2.1,0 -3.44,0.75 -4.23,2.06l-21.7 -0.66 -2.08 -8.21 18.34 -14.47c25.87,0 62.7,-1.84 84.86,2.21 8.55,1.56 4.02,3.67 15.83,5.45 10.05,1.52 30.97,8.74 38.31,15.86 6.4,6.21 -2.81,2.27 6.11,5.5 0,-10.87 -1.17,-12.28 2.57,-20.64 5.35,-11.99 0.69,-32.97 4.86,-45.45 3.58,-10.71 4.18,-5.73 4.18,-20.97 -9.44,-0.21 -5.76,-0.3 -11.85,-3.63l-2.5 -1.37c-0.4,-0.2 -0.92,-0.42 -1.32,-0.61l-41.73 -25.99c-2.22,-2.05 -2.92,-2.55 -5.01,-4.67l-16.9 -17.93c-10.26,-12.62 -17.15,-28.58 -23.41,-42.37l-2.55 -12.93c-3.43,-18.92 -11.11,-19.9 -1.27,-58.95 1.74,-6.9 1.5,-14.57 4.56,-20.59l32.74 -60.13c11.6,-14.9 18.08,-18.1 31.28,-28.7l33.77 -16.53c6.57,-1.93 1.04,-0.07 4.11,-1.7 5.9,-3.13 -2.2,-3.84 13.45,-3.96 20.31,-0.16 61.15,-4.55 77.95,3.65 7.07,3.45 5.37,2.32 15.12,2.29 11.74,-0.03 6.81,-0.55 14.34,3.07 15.9,7.66 19.98,-0.76 43.98,25.68l10.21 16.88c7.58,14.1 16.53,25.35 20.73,41.17 2.39,8.96 5.62,9.22 5.65,19.51 0.02,7.57 -2.91,26.82 1.38,31.1 2.96,2.96 4.65,0.56 11.26,-2.57l28.78 -11.98c23.31,-7.31 4.34,-4.71 37.85,-4.88 17.92,-0.1 23.52,5.9 34.01,16.29 10.18,10.08 11.73,21.96 18.14,34.09 9.53,0 21.88,-0.71 31.05,-0.09 11.87,0.81 4.37,1.42 12.15,3.33 5.23,1.28 11.29,0.63 16.78,0.63 2.44,9.12 1.95,5.02 9,8.41 22.6,10.88 27.01,26.88 36.69,46.51 9.78,19.81 6.71,22.47 -14.73,22.47 -2.36,-4.91 -1.95,-8.59 -4.51,-14.85 -4.55,-11.11 -6.41,-16.85 -15.3,-25.32l-11.19 -10.09c-5.55,-4.82 -23.69,-9.64 -30.78,-9.85 -13.82,-0.4 -28.74,0.13 -42.7,0.13 0.28,12.5 4.67,9.24 6.01,24.94 3.62,42.17 -1.79,26.65 26.14,37.72l7.28 2.39c0.42,0.17 0.91,0.42 1.32,0.62 0.4,0.18 0.86,0.49 1.25,0.68l5.04 2.7c0.41,0.2 0.94,0.39 1.35,0.58l32.39 23.72 16.74 23.89c5.78,12.41 8.1,16.02 6.96,29.8l-19.35 0c-0.28,-12.68 -7.25,-19.71 -12.64,-29.93 -2.3,-4.37 -0.24,-1.85 -3.31,-6.36 -0.12,-0.18 -2.2,-2.75 -2.62,-3.17 -2.21,-2.2 -1.33,-1.09 -3.21,-2.6 -0.32,-0.25 -0.8,-0.57 -1.11,-0.82l-25.59 -16.99c-11.58,-5.56 -21.48,-7.4 -32.51,-11.99 -4.94,-2.05 -14.67,-2.44 -19.62,-3.59 0,-21.76 8.43,-30.1 -0.09,-50.22l-29.24 -28.8c-2.02,-0.86 -1.64,-0.4 -4.22,-1.58l-16.18 -5.11c-10.04,-2.3 -3.77,-4.95 -16.05,-5.23 0.71,8.51 4.97,12.73 7.02,22.01 9.11,41.35 9.13,21.56 27.56,32.42l8.69 6.77c26.51,18.99 22.53,46.06 27.75,61.26 7.11,20.75 4.44,17.84 4.44,42 -3.26,2.18 -3.09,2.67 -7.19,4.7 -20.35,10.05 -11.49,-28.37 -14.94,-40.62 -1.78,-6.34 -3.39,-5.04 -4.71,-12.7 -3.14,-18.2 -11.73,-32.06 -13.02,-33.42 -25.75,-27.13 -54.22,-3.57 -47.96,-24.68 3.9,-13.17 3.71,-31.49 -5.71,-41.59 -8.22,-8.81 -11.2,-10.34 -24.5,-10.34 0,23.74 -3.62,17.1 -5.54,31.21 -1.21,8.9 1.16,7.47 -2.25,15.16l-8.98 21.98c-8.4,15.52 -13.86,22.23 -29.83,32.08 -5.96,3.67 -9.55,7.96 -16.2,10.89l-5.41 2.33c-0.38,0.2 -0.85,0.5 -1.22,0.71l-19.65 7.44c-4.76,2.11 0.17,1.27 -7.7,1.98 -20.62,1.86 -26.87,7.09 -48.4,5.92 -10.21,-0.55 -7.36,-2.07 -15.4,-3.94 0.27,12.04 0.6,4.46 3.73,9.82 0.21,0.36 0.53,0.82 0.74,1.18 0.22,0.38 0.48,0.88 0.68,1.26 0.21,0.39 0.42,0.91 0.62,1.31l7.21 12.15c5.02,6.08 4.06,2.99 8.32,11.02l203.41 299.63c0.47,0.68 0.79,0.68 2.45,3.36 6.21,10.06 11.78,22.09 19.56,30.73l13.76 24.94c0.22,0.36 0.51,0.84 0.74,1.19l2.6 3.21c9.51,11.91 16.07,27.35 23.13,40.71l1.42 2.46c7.53,14.82 16.71,21.48 25.59,34.39 11.3,16.43 32.31,34.07 23.1,58.98l-3.07 6.6c-3.47,6.99 -8.46,11.59 -15.08,15.87 -29.22,18.92 -26.81,11.39 -43.09,16.9 -7.28,2.46 -2.83,4.07 -14.61,4.72 -14.73,0.82 -19.47,5.94 -34.76,5.88 -12.27,-0.06 -106,2.85 -117.82,-2.29 -18.38,-8 -22.97,1.29 -51.91,-8.08 -11.09,-3.59 -27.21,1.95 -38.22,-2.41 -9.36,-3.71 0.76,-4.72 -16.56,-4.72 -25.41,43.67 -17.26,52.52 -21.4,61.09 -2.87,5.95 -1.5,-0.5 -2.83,6.84 -0.39,2.17 -0.31,6.99 -0.3,9.37 0.06,8.59 -0.97,29.55 0.3,36.65l1.69 26.62c2.59,6.83 1.51,6.19 5.62,11.79 5.08,6.94 8.6,15.27 14.65,22.1l15.86 20.9c1.56,1.81 2.58,2.83 4.74,4.94 2.92,2.84 1.32,-0.08 4.88,4.79 -2.33,2.58 -2.09,2.45 -3.86,5.8 -12.67,-0.28 -6.08,-2.05 -13.3,-6.05 -4.89,-2.71 -12.36,-1.76 -19.58,-1.7 -13.53,0.11 -44.03,0.01 -57.57,0.01 -0.43,-5.22 -0.9,-5.26 -1.93,-9.67 -9.22,4.88 -4.52,1.11 -9.25,10.1 -4.23,8.06 -5.47,4.06 -6.23,13.12l-7.74 0c-2.53,-10.87 -5.8,-9.52 -5.8,-25.15 -10.32,-0.86 -12.93,-13.71 -38.35,-19.7 -7.3,-1.73 -3,-1.3 -10.02,-3.52 -19.98,-6.29 -21.69,4.89 -19.35,-23.22 21.89,0 16.48,1.77 32.74,5.96 5.18,1.34 5.46,0.94 10.02,3.52 4.18,2.37 -0.45,0.26 3.55,2.26l5.7 2.04c0.47,0.16 1.02,0.27 1.49,0.44l13.05 6.3c0.35,0.22 0.8,0.56 1.15,0.78l11.63 5.79c0,-13.22 3.27,-10.47 5.25,-17.97 2.85,-10.77 -3.67,-104.88 -3.59,-123.36 0.02,-3.81 0.15,-7.31 -0.7,-10.9 -2.28,-9.58 -0.96,-20.95 -0.96,-33.51 -20.38,0 1.99,-5.72 -11.98,-5.93 -3.49,-0.05 -8.37,0.49 -11.73,0.13 -10.95,-1.17 -5.26,-4.8 -17.41,-5.81 -3.63,-0.3 -8.13,0.3 -11.72,0.11 -9.74,-0.52 -4.52,-0.18 -9,-2.61 -8.77,-4.77 -8.84,-2.62 -19.87,-3.35 -8.37,-0.54 -10.97,-3.72 -17.59,-5.63 -6.89,-1.99 -12.46,-0.99 -20.84,-2.36l-17.73 -5.5c0.17,-7.19 6.87,-14.24 11.01,-19.96l32.99 -44.39c6.55,-11.78 10.78,-11.79 19.15,-27.29l12.75 -18.2c1.67,-3.3 3.31,-6.74 5.09,-10.39l17.91 -28.53c2.36,-4.75 2.37,-5.43 5.58,-9.89l20.03 -38.02c0.17,-0.46 0.33,-0.99 0.5,-1.44l3.13 -6.54c1.42,-3.45 0.7,-2.38 1.9,-5.83 3.16,-9.06 10.77,-15.43 13.47,-25.23 1.12,-4.06 0.63,-2.45 2.18,-5.56 11.17,-22.47 16.15,-52.62 19.23,-58.17 5.26,-9.5 3.41,-15.97 3.41,-29.48 -39.99,0 -28.4,7.77 -71.59,7.75 -9.2,-0.01 -30.52,1.1 -38.3,-0.39 -2.55,-0.49 -3.94,-1.32 -6.93,-2.74 -5.95,-2.83 3.4,-0.05 -7.02,-2.66l-17.4 -3.89 -15.48 -13.54c-27.51,-41.08 -19.25,-30.79 -26.24,-46.29 -0.21,-0.46 -0.39,-0.99 -0.58,-1.45 -0.2,-0.48 -0.41,-0.99 -0.59,-1.46 -2.46,-6.24 -6.22,-8.65 3.32,-10.77 12.61,-2.82 8.36,3.66 16.35,10.51l4.08 3.66c0.39,0.39 1.5,1.61 1.86,2.01l2.64 3.16 22.38 30.96zm334.71 -307.63c-13.05,-12.23 -15.61,-2.04 -42.21,-8.09 -9.53,-2.17 0.9,0.54 -6.44,-3.23 -6.18,-3.18 -18.67,-1.52 -26.17,-4.79 -8.78,-3.82 -30.77,-7.63 -38.32,-11.99 -4.38,-2.53 2.57,-0.01 -6.15,-3.51l-22.75 -8.22c-10.71,-4.94 -24.3,-10.08 -33.22,-17.08 -2.48,-1.95 -3.13,-2.9 -5.29,-4.38 -4.77,-3.25 -2.71,-1.44 -7.61,-4l-11.62 -5.79c-9.94,-6.02 -27.86,-22.9 -38.19,-25.66l-9.81 15.34c-0.2,0.41 -0.42,0.92 -0.6,1.34 -0.18,0.44 -0.34,0.98 -0.51,1.42l-2.69 6.98c-4.88,9.31 -8.51,17.06 -10.44,28.27 -4.96,28.94 -4.97,5.73 -4.97,47.26 0,6.22 2.39,3.77 3.91,11.56 0.71,3.59 1.22,9.57 2.43,13.05 2.53,7.26 8.6,13.71 14.94,17.95 1.84,-6.88 2.29,-4.52 8.16,-7.31l13.96 -11.2c6.62,-7.18 9.32,-12.44 18.51,-12.44 6.67,0 11.05,6.86 11.61,13.54 -5.98,1.6 -13.55,12.31 -19.36,17.41l-6.95 6.59c-1.33,1.12 -1.89,1.46 -3.31,2.49 -1.08,0.79 -5.38,3.8 -5.7,3.98 -5.8,3.2 3.67,1.52 -7.25,2.42 0.26,11.3 5.26,10.68 11.88,17.15l18.51 14.38c0.34,0.23 0.8,0.56 1.15,0.78 0.2,0.13 3.53,1.94 3.75,2.06 3.82,2.12 4.52,2.81 7.42,4.19 3.57,1.7 3.58,1.18 7.01,2.66l17.34 7.81c0.16,0.09 2.11,1.49 3.71,2.09 7.19,2.67 19.54,2.48 26.46,4.5 6.95,2.01 -0.25,2.43 9.18,2.43 39.83,0 22.71,-3.02 44.86,-5.46l10.04 -1.56c0.42,-0.18 0.86,-0.49 1.26,-0.69l20.69 -10.25c0.41,-0.2 0.94,-0.4 1.34,-0.6 10.23,-5.16 23.85,-14 29.07,-23.17l14.5 -41.61c3.34,-7.02 3.47,0.46 4.11,-11.36 0.64,-11.94 0.07,-16.99 3.76,-25.26zm131.57 15.48c0,-33.83 -14.36,-29.19 -17.41,-40.63 -9.64,0 -21.78,-0.68 -31.07,-0.11 -14.05,0.86 -6.02,5.91 -25.04,5.91l0 3.87c15.04,0 9.68,3.6 19.68,5.47 25.41,4.76 25.07,8.47 46.19,19.58l7.65 5.91zm-129.63 -38.7c0,-7.74 -0.04,-15.48 0.01,-23.22 0.01,-3.74 0.24,-8.13 0.15,-11.76 -0.19,-7.17 0.35,-4.92 -1.88,-9.74l-7.65 -15.56c-0.23,-0.34 -0.59,-0.77 -0.81,-1.12l-3.97 -7.64c-0.2,-0.4 -0.46,-0.89 -0.64,-1.29 -0.2,-0.41 -0.45,-0.9 -0.64,-1.3l-1.21 -2.66c-5.78,-13.04 -5.24,-8.73 -12.52,-20.38 -0.22,-0.35 -0.5,-0.85 -0.72,-1.21 -0.3,-0.49 -1.11,-1.96 -1.42,-2.44l-19.54 -15.29c-20.28,-6.1 -3.08,-5.25 -18.76,-6.39 -34.55,-2.53 -10.17,-6.07 -40.65,-5.79 -12.97,0.12 -57.68,-1.94 -65.78,2.01l-16.71 8.43c-9.7,4.75 -5.4,0.98 -16.66,10.42 -4.39,3.69 -9.41,8.63 -15.03,10.13 2.33,8.72 12.66,14.53 19.97,18.73 6.43,3.7 5.52,4.94 11.35,7.99 12.97,6.79 13.58,9.42 20.13,12.76l73.34 33.07c8.05,2.53 4.91,3.25 14.63,4.72 19.15,2.89 4.91,2.89 15.75,5.54 6.73,1.64 9.09,0.12 16.49,2.85 21.31,7.88 34.37,-0.59 52.77,9.14z"/>
  <path class="fil0" d="M1467.84 459.74c0,55.66 17.76,75.45 0,75.45 -13.86,0 -17.41,-61.03 -17.41,-69.65 0,-26.25 4.26,-45.18 9.65,-65.8 3.47,-13.26 14.25,-50.28 27.11,-50.28 22.69,0 -19.35,36.09 -19.35,110.28z"/>
  <path class="fil0" d="M1442.69 355.26c-2.47,10.59 -46.74,59.81 -25.42,127.97 10.01,32.01 14.01,20.95 9.94,38.42l-7.66 2.17c-24.3,-16.58 -30.52,-92.93 -12.83,-134.88 5.93,-14.06 15.19,-33.98 26.3,-41.42 6.48,3.43 5.46,1.45 9.67,7.74z"/>
  <path class="fil0" d="M1374.97 376.54c-7.2,30.93 -15.47,9.74 -15.47,85.13 0,14.63 4.35,22.48 1.93,32.89 -10.49,2.51 -12.84,6.3 -16.35,-12.67 -6.41,-34.71 -0.22,-95.54 18.28,-113.09l11.61 7.74z"/>
  <path class="fil0" d="M2215.13 469.26c-56.65,0 -23.77,-2.91 -44.5,-7.74 0,-18.84 -3.23,-19.34 13.55,-19.34 6.67,0 2.79,3.17 10.32,5.15 6.72,1.76 7.21,-0.93 13.27,2.21 2.45,1.27 5.75,5.9 6.98,8.65 2.5,5.58 1.75,5.21 0.38,11.07z"/>
  <path class="fil0 str0" d="M2123.11 728.78c-4.78,0.02 -32.7,-10.55 -40.52,-12.01 0.68,9.41 -7.81,25.56 -15.95,30.33l16.39 13.02c2.98,2.18 5.23,4.23 8.16,6.56 2.95,2.35 5.9,3.45 8.02,6.83l23.9 -44.73zm-580.24 -287.78l-3.23 1c-5.63,2.51 -8.81,8.38 -6.66,15.27 2.27,7.33 6.86,9.27 13.39,12.82 3.07,1.67 3.86,2.79 6.93,4.48l20.65 10.8c11.81,6.28 9.99,6.22 11.94,11.18 4.47,11.37 16.57,18.49 27.24,15.92 6.9,-1.65 3.91,-3.51 16,3.45l13.98 7.77 -0.84 1.1c-0.59,-0.14 -0.68,-1.95 -3.28,1.26 -1.12,1.38 -1.7,2.29 -1.12,4.17 2.56,8.25 11.84,4.31 10.18,-3.16 5.18,1.54 8.59,4.52 13.19,7.3 8.88,5.38 5.48,0.23 9.34,10.66 1.99,5.36 6.8,9.78 10.45,12.1 6.93,4.41 14.17,5.9 22.54,4.26 5.07,-0.99 4.61,-1.96 8.35,0.31l37.54 21.38c9.21,4.69 4.81,2.97 10.71,12.03 5.41,8.31 16.84,14.1 26.75,12.46 9.84,-1.63 7.17,0.38 14.06,4.18l25.79 14.28c6.51,3.97 28.64,13.45 31.3,18.52 2.54,4.85 5.4,33.22 39.86,34.65 6.21,0.26 15.54,-4.05 18.83,-3.42 3.44,0.66 20.69,11.56 25.2,13.92l45.16 24.58c17.13,11.06 9.33,3.23 14.86,17.38 4.3,10.98 13.69,17.28 22.07,21.35 8.78,4.26 19.43,4.34 32.35,0.33l39.56 30.8c2.61,1.95 4.59,2.78 6.23,2.67l1.85 -0.58c2.9,-1.7 4.93,-6.95 8.69,-14.12 2.92,-5.55 5.37,-10.22 8.3,-15.77 10.11,-19.25 15.62,-27.25 14.76,-31.67l-0.27 -0.88c-1.19,-2.68 -5.37,-3.95 -13.1,-6.2l-27.2 -8.65c-4.58,-1.61 -8.76,-2.78 -13.31,-4.13 -4.02,-12.93 -10.12,-21.64 -18.61,-26.46 -28.17,-16.02 -33.67,1.4 -45.29,-5.16l-37.64 -18.26c-8.11,-3.87 -16.78,-9.83 -24.97,-12.88 -5.2,-1.93 -8.14,-3.87 -12.97,-6.26 -7.45,-3.69 -4.58,-4.86 -8.15,-13.97 -6.78,-17.35 -29.51,-26.96 -48.16,-21.06l-5.39 2.16c-4.26,1.32 -68.68,-32.33 -68.86,-32.51 -2.78,-2.8 -6.53,-18.51 -25.96,-19.84 -12.87,-0.89 -5.03,5.01 -21.91,-3.99l-38.41 -18.25c-4.88,-15.69 -16.85,-25.28 -31.79,-23.52 -11.61,1.37 -6.58,3.97 -12.66,0.63l-34.32 -17.28c-15.01,-6.26 -8.77,-2.89 -14.85,-12.98 -3.47,-5.75 -8.06,-10.14 -14.53,-12.13 -5.32,-1.63 -8.05,-1.76 -14.71,-0.01 -7.29,1.92 -6.68,-0.63 -12.36,-3 -4.91,-2.06 -7.14,-3.05 -11.81,-5.51l-22.76 -11.21c-4.59,-2.44 -9.1,-3.04 -12.93,-2.31zm488.88 242.85c-32.59,10.13 -28.74,55.9 4.37,60.92 13.66,2.07 26.29,-5.68 31.85,-15.56 13.11,-23.25 -9.61,-53.63 -36.22,-45.36zm-32.99 24.47c-0.3,-7.36 7.16,-21.56 13.4,-25.48 -2.34,-1.89 -5.96,-2.71 -9.27,-4.47 -3.31,-1.77 -5.77,-3.05 -9.09,-4.8l-56.01 -27.5c-3.36,11.33 -4.05,12.65 -11.48,21.84l72.45 40.41zm-72.91 -77.82c-11.09,-35.67 -67.58,-21.48 -54.96,19.12 3.93,12.64 20.78,21.96 34.9,17.57 16.13,-5.02 25.01,-20.77 20.06,-36.69zm-67.77 0.77c2.45,-3.31 1.77,-8.28 7.36,-15.49 1.69,-2.18 2.59,-2.53 3.48,-5.14 -5.38,0.22 -19.77,-10.25 -28.45,-13.64 -9.76,-3.81 -23.88,-13.46 -28.64,-13.27 0.21,5.18 -3.9,13.01 -8.29,15.77 3.04,4.82 51.7,27.26 54.54,31.77zm-57.1 -56.35c-7.34,-23.58 -40.66,-13.22 -33.33,10.36 6.47,20.81 39.73,10.23 33.33,-10.36zm-45.04 -1.22c1.19,-6.37 3.08,-9.96 7.65,-14.56l-19.57 -9.9c-6.55,-3.44 -12.61,-7.93 -19.89,-9.29 0.13,3.38 -3.51,10.32 -6.38,12.13 6.13,4.95 11.91,7.42 18.93,11.11l19.26 10.51zm-42.32 -44.7c-7.3,-23.48 -40.78,-13.63 -33.03,11.29 1.2,3.88 5.14,7.04 7.91,8.51 13.45,7.13 29.52,-5.65 25.12,-19.8zm-43.77 -3.65c-0.14,-3.64 2.03,-7.76 5.11,-9.7 -2.58,-4.09 -1.64,-1.18 -9.56,-5.4l-30.48 -15.65 -5.15 8.91c4.18,3.54 24.38,14 29.61,16.72 7,3.63 6.38,5.29 10.47,5.12zm-56.22 -24.13c14.65,-4.56 12.05,-21.73 3.06,-26.44 -10.51,-5.51 -20.55,2.13 -21.52,10.54 -1.42,12.43 9.7,18.62 18.46,15.9zm-29 -21.44l4.75 -8.34c-5.59,-1.12 -22.71,-10.86 -33.83,-15.87 -2.35,-1.05 -9.98,-6.38 -11.93,-2.68 -1.7,3.24 7.53,7.61 13.59,11.3 1.9,1.16 3.44,1.82 5.46,2.88 6.96,3.65 16.54,7.32 21.96,12.71z"/>
  <g>
   <path class="fil2 str1" d="M2175.85 343.93c22.9,5.02 44.08,7.65 63.6,11.93l-26.09 -15.39c-18.48,-10.13 -35.02,-20.96 -54.69,-29.97 -9.4,-4.31 -20.71,-9.98 -31.97,-12.45 -11.02,-2.41 -29.08,-4.62 -31.23,5.2 -1.95,8.88 6.59,13.01 11.11,15.92 14.32,9.27 51.82,20.94 69.27,24.76zm-89.42 -45.23l-1.05 4.78c-0.42,6.51 2.93,13.83 10.65,19.98 16.75,13.35 60.44,26.26 82.51,31.09l78.06 13.94c9.5,0.98 8.71,0.98 16.9,5.06 18.76,9.36 55.82,26.3 76.07,34.39l62.91 25.54c36.57,13.82 76.61,20.83 112.55,16.16 27.8,-3.61 43.9,-17.99 49.29,-33.22l1.91 -8.74c0.83,-9.6 -2.53,-18.79 -9.87,-25.05 -21.89,-18.67 -64.56,-14.04 -95.32,-17.26 -6.69,-0.7 -15.48,-1.73 -21.62,-1.65 -0.12,-2.64 -2.92,-8.22 -4.15,-11.33 -1.63,-4.12 -2.85,-7.09 -3.01,-12.06 -0.58,-18.07 6.49,-29.71 -3.66,-52.79 -7.85,-17.84 -9.92,-28.13 -10.91,-48.16 -1.58,-32.33 3.27,-108.28 -6.76,-132.28 -5.44,-13.03 -10.41,-16.35 -17.69,-24.06l-23.39 -59.91c-7.94,-12.97 -34.6,-18.31 -50.69,-21.84 -18.42,-4.04 -21.35,-0.23 -29.57,7.8 -4.94,4.82 -7.55,4.03 -14.45,4.41 -16.16,0.89 -31.99,1.53 -47.5,5.52 -8.19,2.1 -21.27,7.11 -23.29,16.31 -3.3,15.1 46.95,15.3 61.18,18.42 9.38,2.05 10.44,1.74 10.81,11.19 0.44,11.62 6.94,23.74 18.86,27.41 -3.76,7.89 -18.73,16.78 -27.36,56.21 -5.09,1.42 -13.17,5.14 -14.64,11.85 -4.77,21.78 12.72,4.01 -5.84,38.41 -6.22,11.53 -9.88,23.58 -16.53,34.58 -8.18,13.54 -13.5,16.6 -24.49,37.58 -5.87,11.23 -5.94,5.76 -12.19,11.79 -8.32,8.03 -4.04,18.51 -5.14,24.1 -10.62,-2.33 -20.58,-6.59 -31.15,-8.84 -10.41,-2.22 -23.21,-4.59 -31.74,-7.71 -4.03,-1.47 -10.47,-1.59 -16.17,-2.81 -18.18,-3.88 -30.02,2.15 -33.52,11.19zm360.54 135.72c32.06,7.03 109.46,17.85 118.46,-23.21l1.05 -4.79c3.28,-15 -14.4,-23.21 -29.32,-26.48 -19.69,-4.32 -78.21,-2.74 -128.59,-13.16l-22.19 -3.82c-19.03,-4.17 -28,-4.52 -46.2,-9.09l-21.77 -5.8c-16.52,-3.61 -29.38,-7.48 -45.77,-11.01l-65.86 -17.88c-5.41,-2.07 -16.57,-5.21 -22.1,-6.42l59.58 34.25c33.05,19.81 91.97,45.05 130.63,61.17 18.34,7.64 53.91,22.26 72.08,26.24zm-69.96 -147.76c-6.42,-8.62 -38.84,-24.98 -48.12,-28.43 -25.74,-9.56 -56.79,-15.7 -78.13,4.79 5.21,-0.07 9.58,-0.76 15.93,0.47 7.01,1.37 28.3,5.03 34.45,4.95 10.7,-0.13 9.31,-1.37 20.43,1.07 11.21,2.45 14.2,8.07 24.75,10.48 10.18,2.32 20.48,4.44 30.69,6.67zm10.62 -108.03c1.11,-5.05 1.42,-6.61 0.46,-11.81 -0.57,-3.09 -1.89,-4.12 -1.06,-8.38 -4.75,-0.64 -9.52,-0.28 -13.42,0.89 -26.03,7.83 -40.56,55.5 -71.68,48.69 -6.8,-1.49 -10.86,-7.39 -14.58,-11.23 -2.49,-2.57 -10.33,-10.48 -13.44,-11.97 -6.73,30.69 16.88,15.28 17.1,31.84 11.84,-3.29 18.27,-8.58 24.08,-1.44 2.71,3.33 0.1,1.83 4.44,3.75 2.89,1.28 9,3.83 12.1,4.59 -2.5,-3.38 -2.92,-1.41 -4.48,-7.01 5.44,-6.43 7.18,-2.62 17.67,-4.54 7.72,-1.41 24.36,-12.26 31.16,-18.15 4.35,-3.77 10.05,-7.92 11.65,-15.23zm-115.28 -14.21c-1.6,7.36 15.72,18.46 24.07,28.2 15.88,18.51 32.34,-6.44 44.35,-19.04 2.33,-2.44 3.82,-4.69 6.17,-7.08 16.02,-16.35 31.21,-23.26 55.1,-13.56 12.87,5.22 4.72,9.52 2.76,11.39l-7.38 -2.79c0,10.37 2.53,6.63 -0.43,20.14 -3.25,14.85 -37.95,38.9 -50.69,39.07l-0.42 1.91c3.82,1.82 9.49,7.16 12.87,9.86 4.85,3.86 11.68,6.33 10.37,12.29 -1.4,6.39 -11.33,0.59 -15.08,-1.04l-41.27 -17.18c-4.92,-2.25 -3.29,-2.81 -6.86,-4.66 -4.37,1.22 -20.68,8.51 -23.79,7.83 -6.72,-1.47 -1.44,-8.86 -0.15,-13.07 -3.75,-0.82 -8.01,-2.82 -10.63,-4.71 -4.05,-2.91 -3.51,-5.05 -6.84,-7.15 -5.32,17.31 -15.04,33.32 -25.45,47.63 -5.7,7.84 -18.92,32.08 -20.65,33.28 -5.21,3.6 -7.42,-1.46 -9.96,10.15 -1.35,6.19 2.52,2.23 -0.06,14.03 5.59,1.23 9.42,2.19 13.51,3.69 5.39,1.98 32.53,7.29 42.83,11.24 8.66,3.32 19.76,3.89 28.51,7.25 8.56,3.28 19.94,4.8 29.19,6.82l42.9 10.44c5.63,1.16 8.09,0.68 14.53,2.12l44.26 8.72c4.99,0.81 8.26,0.8 14.57,2.18 -5.45,-13.86 -8.26,-21.84 -3.85,-41.98 -15.91,0.21 -17.48,-8.54 -27.32,-14.59 -14.82,-9.13 -57.15,-11.54 -74.19,-20.78 -10.58,-5.75 -16.47,-7.81 -28.63,-7.19 -24.77,1.28 -32.85,-8.9 -57.12,-4.37 -5.75,1.09 -10.17,4.8 -13.48,3.38 -10.61,-4.52 12.48,-25.46 25.32,-31.15 38.19,-16.94 88.64,7.37 118.54,28.84 6.91,4.96 17.41,15.74 24.83,18.66 17.49,6.88 18.23,15.15 28.19,17.33 7.06,1.54 0.63,-15.07 -0.25,-17.13 -2.62,-6.13 -5.29,-11.47 -7.35,-18.33 -3.62,-12.02 -5.21,-28.47 -5.63,-42.48 -0.44,-14.61 0.05,-30.93 0.23,-46.23 0.33,-27.9 2.37,-73.78 -16.63,-92.23 -2.49,-2.43 -5.56,-3.76 -7.34,-6.82 -1.19,-2.05 -2.66,-6.76 -3.61,-9.2 -1.31,-3.34 -2.3,-5.88 -3.6,-9.22l-10.47 -27.86c-3.28,-10.97 -4.24,-17.58 -18.98,-22.41 -6.67,-2.18 -34.22,-9.99 -42.63,-9.05 -7.6,0.84 -7.05,11.26 -22.92,13.04 -17.65,1.97 -40.57,0.73 -57.68,7.6 -21.55,8.63 4.56,8.62 22.01,11.23 7.64,1.14 15.14,1.34 23.42,3.16 22.3,4.88 12.74,16.59 18.46,29.32 2.44,5.42 8.46,8.64 13.84,11.71 16.43,9.38 -3.96,6.6 -18.98,46.56 -1.91,5.07 -4.81,18.21 -6.68,21.68 -3.89,7.19 -11.77,1.2 -13.83,10.55z"/>
   <path id="1" class="fil0" d="M2175.85 343.93c22.9,5.02 44.08,7.65 63.6,11.93l-26.09 -15.39c-18.48,-10.13 -35.02,-20.96 -54.69,-29.97 -9.4,-4.31 -20.71,-9.98 -31.97,-12.45 -11.02,-2.41 -29.08,-4.62 -31.23,5.2 -1.95,8.88 6.59,13.01 11.11,15.92 14.32,9.27 51.82,20.94 69.27,24.76zm-89.42 -45.23l-1.05 4.78c-0.42,6.51 2.93,13.83 10.65,19.98 16.75,13.35 60.44,26.26 82.51,31.09l78.06 13.94c9.5,0.98 8.71,0.98 16.9,5.06 18.76,9.36 55.82,26.3 76.07,34.39l62.91 25.54c36.57,13.82 76.61,20.83 112.55,16.16 27.8,-3.61 43.9,-17.99 49.29,-33.22l1.91 -8.74c0.83,-9.6 -2.53,-18.79 -9.87,-25.05 -21.89,-18.67 -64.56,-14.04 -95.32,-17.26 -6.69,-0.7 -15.48,-1.73 -21.62,-1.65 -0.12,-2.64 -2.92,-8.22 -4.15,-11.33 -1.63,-4.12 -2.85,-7.09 -3.01,-12.06 -0.58,-18.07 6.49,-29.71 -3.66,-52.79 -7.85,-17.84 -9.92,-28.13 -10.91,-48.16 -1.58,-32.33 3.27,-108.28 -6.76,-132.28 -5.44,-13.03 -10.41,-16.35 -17.69,-24.06l-23.39 -59.91c-7.94,-12.97 -34.6,-18.31 -50.69,-21.84 -18.42,-4.04 -21.35,-0.23 -29.57,7.8 -4.94,4.82 -7.55,4.03 -14.45,4.41 -16.16,0.89 -31.99,1.53 -47.5,5.52 -8.19,2.1 -21.27,7.11 -23.29,16.31 -3.3,15.1 46.95,15.3 61.18,18.42 9.38,2.05 10.44,1.74 10.81,11.19 0.44,11.62 6.94,23.74 18.86,27.41 -3.76,7.89 -18.73,16.78 -27.36,56.21 -5.09,1.42 -13.17,5.14 -14.64,11.85 -4.77,21.78 12.72,4.01 -5.84,38.41 -6.22,11.53 -9.88,23.58 -16.53,34.58 -8.18,13.54 -13.5,16.6 -24.49,37.58 -5.87,11.23 -5.94,5.76 -12.19,11.79 -8.32,8.03 -4.04,18.51 -5.14,24.1 -10.62,-2.33 -20.58,-6.59 -31.15,-8.84 -10.41,-2.22 -23.21,-4.59 -31.74,-7.71 -4.03,-1.47 -10.47,-1.59 -16.17,-2.81 -18.18,-3.88 -30.02,2.15 -33.52,11.19zm360.54 135.72c32.06,7.03 109.46,17.85 118.46,-23.21l1.05 -4.79c3.28,-15 -14.4,-23.21 -29.32,-26.48 -19.69,-4.32 -78.21,-2.74 -128.59,-13.16l-22.19 -3.82c-19.03,-4.17 -28,-4.52 -46.2,-9.09l-21.77 -5.8c-16.52,-3.61 -29.38,-7.48 -45.77,-11.01l-65.86 -17.88c-5.41,-2.07 -16.57,-5.21 -22.1,-6.42l59.58 34.25c33.05,19.81 91.97,45.05 130.63,61.17 18.34,7.64 53.91,22.26 72.08,26.24zm-69.96 -147.76c-6.42,-8.62 -38.84,-24.98 -48.12,-28.43 -25.74,-9.56 -56.79,-15.7 -78.13,4.79 5.21,-0.07 9.58,-0.76 15.93,0.47 7.01,1.37 28.3,5.03 34.45,4.95 10.7,-0.13 9.31,-1.37 20.43,1.07 11.21,2.45 14.2,8.07 24.75,10.48 10.18,2.32 20.48,4.44 30.69,6.67zm10.62 -108.03c1.11,-5.05 1.42,-6.61 0.46,-11.81 -0.57,-3.09 -1.89,-4.12 -1.06,-8.38 -4.75,-0.64 -9.52,-0.28 -13.42,0.89 -26.03,7.83 -40.56,55.5 -71.68,48.69 -6.8,-1.49 -10.86,-7.39 -14.58,-11.23 -2.49,-2.57 -10.33,-10.48 -13.44,-11.97 -6.73,30.69 16.88,15.28 17.1,31.84 11.84,-3.29 18.27,-8.58 24.08,-1.44 2.71,3.33 0.1,1.83 4.44,3.75 2.89,1.28 9,3.83 12.1,4.59 -2.5,-3.38 -2.92,-1.41 -4.48,-7.01 5.44,-6.43 7.18,-2.62 17.67,-4.54 7.72,-1.41 24.36,-12.26 31.16,-18.15 4.35,-3.77 10.05,-7.92 11.65,-15.23zm-115.28 -14.21c-1.6,7.36 15.72,18.46 24.07,28.2 15.88,18.51 32.34,-6.44 44.35,-19.04 2.33,-2.44 3.82,-4.69 6.17,-7.08 16.02,-16.35 31.21,-23.26 55.1,-13.56 12.87,5.22 4.72,9.52 2.76,11.39l-7.38 -2.79c0,10.37 2.53,6.63 -0.43,20.14 -3.25,14.85 -37.95,38.9 -50.69,39.07l-0.42 1.91c3.82,1.82 9.49,7.16 12.87,9.86 4.85,3.86 11.68,6.33 10.37,12.29 -1.4,6.39 -11.33,0.59 -15.08,-1.04l-41.27 -17.18c-4.92,-2.25 -3.29,-2.81 -6.86,-4.66 -4.37,1.22 -20.68,8.51 -23.79,7.83 -6.72,-1.47 -1.44,-8.86 -0.15,-13.07 -3.75,-0.82 -8.01,-2.82 -10.63,-4.71 -4.05,-2.91 -3.51,-5.05 -6.84,-7.15 -5.32,17.31 -15.04,33.32 -25.45,47.63 -5.7,7.84 -18.92,32.08 -20.65,33.28 -5.21,3.6 -7.42,-1.46 -9.96,10.15 -1.35,6.19 2.52,2.23 -0.06,14.03 5.59,1.23 9.42,2.19 13.51,3.69 5.39,1.98 32.53,7.29 42.83,11.24 8.66,3.32 19.76,3.89 28.51,7.25 8.56,3.28 19.94,4.8 29.19,6.82l42.9 10.44c5.63,1.16 8.09,0.68 14.53,2.12l44.26 8.72c4.99,0.81 8.26,0.8 14.57,2.18 -5.45,-13.86 -8.26,-21.84 -3.85,-41.98 -15.91,0.21 -17.48,-8.54 -27.32,-14.59 -14.82,-9.13 -57.15,-11.54 -74.19,-20.78 -10.58,-5.75 -16.47,-7.81 -28.63,-7.19 -24.77,1.28 -32.85,-8.9 -57.12,-4.37 -5.75,1.09 -10.17,4.8 -13.48,3.38 -10.61,-4.52 12.48,-25.46 25.32,-31.15 38.19,-16.94 88.64,7.37 118.54,28.84 6.91,4.96 17.41,15.74 24.83,18.66 17.49,6.88 18.23,15.15 28.19,17.33 7.06,1.54 0.63,-15.07 -0.25,-17.13 -2.62,-6.13 -5.29,-11.47 -7.35,-18.33 -3.62,-12.02 -5.21,-28.47 -5.63,-42.48 -0.44,-14.61 0.05,-30.93 0.23,-46.23 0.33,-27.9 2.37,-73.78 -16.63,-92.23 -2.49,-2.43 -5.56,-3.76 -7.34,-6.82 -1.19,-2.05 -2.66,-6.76 -3.61,-9.2 -1.31,-3.34 -2.3,-5.88 -3.6,-9.22l-10.47 -27.86c-3.28,-10.97 -4.24,-17.58 -18.98,-22.41 -6.67,-2.18 -34.22,-9.99 -42.63,-9.05 -7.6,0.84 -7.05,11.26 -22.92,13.04 -17.65,1.97 -40.57,0.73 -57.68,7.6 -21.55,8.63 4.56,8.62 22.01,11.23 7.64,1.14 15.14,1.34 23.42,3.16 22.3,4.88 12.74,16.59 18.46,29.32 2.44,5.42 8.46,8.64 13.84,11.71 16.43,9.38 -3.96,6.6 -18.98,46.56 -1.91,5.07 -4.81,18.21 -6.68,21.68 -3.89,7.19 -11.77,1.2 -13.83,10.55z"/>
  </g>
  <path class="fil0 str0" d="M544.86 680.44c-5.98,11.29 -8.6,7.89 -26.31,7 -8.46,-0.42 -26.1,-1.98 -33.83,-3.01 -22.72,-3.05 -46.23,-1.63 -68.7,-5.01 -6.42,-0.96 -10.39,-0.43 -16.8,-0.74l-87 -6c-7.18,-1.08 -10.84,-0.66 -18.28,-1.01 -7.85,-0.38 -8.37,-1.74 -17.5,-1.8 -21.25,-0.14 -48.78,-2.81 -68.74,-4.95l-139.38 -9.78c-22.49,-3.37 -48.91,-1.55 -69.17,-6.27 0,-24.18 2.72,-11.29 57.91,-10.53 15.95,0.22 51.9,5.22 70.18,5.27 8.34,0.02 10.23,0.86 16.05,1.49l125.34 8.02c6.59,0.99 9.41,0.92 16.58,0.96l54.25 3.66c22.59,1.77 46.18,3.42 70.18,5.26 22.75,1.75 46.23,4.93 70.35,5.1 8.88,0.07 27.7,2.03 35.52,3.09 17.78,2.4 21.95,-4.72 29.35,9.25z"/>
  <path class="fil0 str0" d="M465.9 722.53c0,10.33 -0.18,14.03 -10.53,14.03l-270.22 0c-7.15,0 -9.44,-2.77 -12.29,-7.01 1.04,-4.46 1.47,-8.77 7.02,-8.77 32.89,0 274.95,-2.54 286.02,1.75z"/>
  <path class="fil1" d="M2258.77 902.3l-18.17 -17.2c-6.13,-4.21 -5.31,-1.86 -11.83,-6.91 -9.94,-7.7 -4.21,-5.68 -8.78,-11.46 -4.96,-6.24 -7.69,-5.35 -10.76,-7.65l-4.45 -5.49c-8.6,-12.78 -12.01,-12.07 -22.28,-31.81l-4.43 -7.7c-0.24,-0.41 -0.53,-0.87 -0.76,-1.28 -0.3,-0.53 -1.19,-2.04 -1.47,-2.57 -3.73,-7.27 -4.94,-22.5 -1.64,-29.85 4.29,-9.55 10.94,-23.61 17.93,-26.78l22.47 -7.49c0.56,0.01 2.19,0.18 2.75,0.19l16.34 0.41c8.02,1.23 15.28,4.19 22.33,5.49l3.19 2.57 7.22 -8.97c10.42,3.15 -4.72,-2.14 19.94,-4.86 1.24,-0.14 5.61,-0.88 6.71,-1.06 8.77,-1.47 7.49,-1.9 13.73,0.77 6.89,2.94 17.62,8.14 22.04,14.68 0.28,0.42 0.51,0.89 0.76,1.31l6.5 17.07c0.16,0.54 0.71,2.09 0.87,2.64 6.41,22.21 -4.89,27.83 -7,38.97 -1.83,9.66 2.11,2.21 -4.08,14.09 -16.37,31.37 -14.97,18.65 -36.2,53.1 -13.62,22.09 -7.37,5.79 -22.17,24.2 -4.02,-1.93 -4.39,-1.64 -8.76,-4.41z"/>
  <rect class="fil3" x="2407.81" y="387.02" width="73.98" height="38.64"/>
 </g>
</svg>
