<?xml version="1.0" encoding="UTF-8"?>
<!DOCTYPE svg PUBLIC "-//W3C//DTD SVG 1.1//EN" "http://www.w3.org/Graphics/SVG/1.1/DTD/svg11.dtd">
<!-- Creator: CorelDRAW 2017 -->
<svg xmlns="http://www.w3.org/2000/svg" xml:space="preserve" width="102.48mm" height="66mm" version="1.1" style="shape-rendering:geometricPrecision; text-rendering:geometricPrecision; image-rendering:optimizeQuality; fill-rule:evenodd; clip-rule:evenodd"
viewBox="0 0 10248 6600"
 xmlns:xlink="http://www.w3.org/1999/xlink">
 <defs>
  <style type="text/css">
   <![CDATA[
    .fil0 {fill:#FEFEFE}
   ]]>
  </style>
 </defs>
 <g id="Capa_x0020_1">
  <metadata id="CorelCorpID_0Corel-Layer"/>
  <g id="_2035773819168">
   <path class="fil0" d="M2370.68 3333.49c8.22,-101.18 70.62,-186.56 155.87,-208.64 -67.28,77.8 -38,77.16 -63.17,120.94 -8.47,14.9 -74.72,77.81 -93.08,87.96l0.38 -0.26zm950.52 -256.79c18.36,-22.09 40.83,-32.23 66.63,-52 20.42,-15.67 42.76,-36.98 66.9,-47.51l8.47 89.75 -142 9.89 0 -0.13zm-1387.71 383.52c9.89,-104.65 6.42,-121.6 49.95,-243.57 29.53,-82.95 82.94,-162.04 137.9,-190.28 -77.43,99.89 -161.01,292.87 -95.79,401.23 8.22,-140.33 23.11,-266.03 146.12,-301.73 -40.45,69.59 -86.67,133.79 -70.62,242.54 17.33,-24.78 6.42,-8.22 12.97,-38.77 16.95,-78.2 66.25,-165.51 148.81,-187.2 -61.89,81.91 -80.89,90 -51.36,224.56 31.97,-57.14 5.78,-87.69 119.92,-164.48 -2.44,59.84 11.94,105.03 11.56,148.17 -35.31,23.11 -30.56,18.36 -66.25,34.03 -26.45,11.55 -33,20.67 -60.09,32.23 -42.12,17.71 -95.4,27.47 -133.54,58.03 -121.59,98.22 -147.78,450.16 -190.53,-40.44 -9.89,-113.12 -8.48,-188.87 47.5,-264.24 -8.86,47.89 -30.17,90.64 -31.97,154.97 -1.03,33 3.72,139.95 16.69,165.5l8.48 -31.2 0.25 0.65zm1813.98 197.08l0 -13.22c-10.91,-19.39 -12.58,-32.61 -16.69,-59.45 -7.83,-52 -6.81,-27.86 -19.39,-63.81 -23.5,-66.64 29.28,-62.15 9.89,-125.06 -38.01,-121.33 -28.89,-164.09 -38.39,-287.35 -52,-50.33 -34.28,-57.14 -125.06,-50.97 18.36,-110.42 22.47,-137.9 -60.86,-194.27 -54.7,-4.36 -107.98,28.89 -167.43,35.06 -25.16,-102.98 -122.36,-83.59 -145.09,-195.68 -12.96,-64.2 -55.33,-258.84 -21.69,-311.23 55.08,-4.75 17.33,29.53 91.03,7.45 30.56,-9.12 66.25,-12.2 101.17,-15.28l31.59 39.8c28.5,-11.94 12.97,-13.22 39.03,-20.41 20.42,-5.78 41.73,-2.44 64.84,-3.73 6.81,-58.03 30.56,-99.5 33,-139.95 -54.31,-23.11 -74.73,-61.12 -127.75,-94.76 -46.23,-29.27 -105.03,-67.28 -126.73,-109 39.8,-21.06 42.5,-25.43 45.19,-80.12 -32.22,19.38 -45.83,34.02 -84.87,47.5 46.48,-114.53 182.45,-321.37 206.85,-423.96l-44.55 51.62c-38.01,59.06 -177.7,262.31 -217.76,300.31 -19.39,18.36 -33.26,13.23 -60.48,31.59 -19.38,-30.56 -31.58,-27.86 -69.97,-42.5 -43.14,-16.69 -42.12,-23.5 -65.23,-49.3 -42.11,52 -8.47,99.5 34.67,129.42 -79.48,24.52 -159.98,-49.56 -222.9,79.09 38.78,-14.25 53.67,-27.86 112.48,-23.11 -80.51,35.31 -84.87,12.58 -168.46,86.28 -29.27,25.81 -94.75,76.78 -134.56,38.01 -34.28,-33.26 23.12,-16.69 -23.49,-28.51 -39.8,97.2 59.45,82.56 128.39,66.64 -19.64,16.95 -40.83,27.48 -60.47,42.5 -26.19,19.64 -39.03,24.78 -54.06,55.72 50.59,-23.11 87.7,-51.61 154.98,-52.64 -60.09,36.34 -135.84,69.59 -194.65,112.48 -46.48,34.02 -126.34,105.28 -143.42,177.7 36.34,-23.76 58.42,-73.06 115.56,-113.12 43.78,-31.2 109.01,-51.36 171.92,-51.62 -75.37,41.73 -136.87,86.67 -160.37,171.93 64.59,-51.36 45.2,-73.7 154.98,-96.81 -54.31,62.52 -144.06,101.17 -171.54,216.73l-60.47 -11.94c1.67,1.41 4.11,1.67 4.75,5.13 0.64,3.47 3.72,4.37 4.75,5.78l41.73 35.05c22.08,10.53 54.31,3.08 77.16,-0.64 -27.86,34.67 -50.59,56.37 -29.53,121.98 36.72,-82.18 13.87,-90.39 120.95,-112.09 -2.44,63.17 -71.39,118.89 -63.56,246 -74.34,-51.61 -397.77,-414.46 -209.28,-566.61 -32.61,81.53 -49.95,175.26 4.36,249.35 -29.91,-101.18 -4.1,-132.89 23.76,-219.82 106.05,-330.23 -402.52,-151.5 -522.45,-94.75 55.09,-64.84 158.7,-94.5 264.63,-114.53 -122.36,-15.92 -342.82,63.17 -479.3,73.7 -134.56,10.53 -266.04,-21.06 -361.82,-111.45l-48.54 -38.39c19.39,72.03 97.46,151.89 144.32,184.12 72.03,49.3 165.12,66.64 267.32,64.84 -208.9,64.84 -686.53,-69.59 -874.76,-243.95 -30.17,-28.25 -54.31,-65.23 -89.75,-89.75 49.56,174.62 313.93,282.34 481.36,333.96 66.89,20.67 159.34,34.28 220.45,55.33 -153.17,-7.44 -317.01,-63.17 -449.38,-129.03 -53.67,-26.45 -86.28,-53.03 -134.18,-75.76 11.56,34.67 -6.16,3.73 18.75,34.03 21.7,26.19 45.58,37.75 73.44,60.09 99.51,80.12 265.65,123.64 395.08,140.33 -74.73,9.12 -141.62,-17.97 -210.32,-24.13l134.82 49.3c222.89,59.83 329.46,14.89 530.92,-1.67 -271.43,118.25 -764.73,57.78 -1040.27,-34.28 -154.59,-51.62 -291.84,-109.01 -416.13,-185.79 -67.66,-41.73 -114.78,-75.37 -174.62,-125.7 -47.5,-40.06 -116.58,-121.59 -161.39,-151.51 41.73,119.54 147.14,177.7 235.09,245.24 290.82,222.12 702.2,361.18 1089.83,369.65 -181.81,42.5 -527.97,-53.28 -680.76,-119.28 -96.81,-41.73 -178.72,-83.2 -267.32,-133.53 -43.78,-24.78 -82.17,-51.62 -123,-77.42 -38.39,-24.53 -89.36,-68.95 -126.09,-86.67 46.48,121.59 347.57,276.56 467.75,339.09 -56.37,-8.21 -109.39,-36.98 -157.28,-60.47 -57.78,-28.25 -96.82,-64.2 -150.87,-85.64 27.22,67.66 148.81,130.45 208.26,163.06 93.09,50.59 165.5,66.64 265.01,88.98 -101.56,23.5 -159.73,-30.56 -237.41,-47.89l30.95 26.45c15.28,9.88 17.33,8.86 32.61,16.95 204.15,108.36 393.02,121.33 627.85,102.97 178.35,-13.87 357.07,-46.87 519.75,-117.23 50.97,-22.08 101.56,-51.35 149.45,-69.97 -147.78,110.42 -542.47,273.1 -751.11,319.32 -145.73,32.61 -194.65,20.67 -327.54,-16.31l8.47 15.67c13.87,21.7 25.81,38 49.57,49.3 24.52,11.56 69.97,16.31 99.25,17.72 130.83,5.39 262.56,-27.86 383.26,-67.92 59.83,-19.65 117.86,-48.92 168.84,-65.23 -171.54,100.28 -339.35,183.1 -594.22,167.17l54.06 54.32c73.44,51.61 141.62,79.47 235.47,41.72 97.46,-39.41 178.99,-100.27 271.05,-149.45 -47.89,66.64 -156.26,120.31 -233.04,160.62 -26.45,13.87 -19,6.81 -37.75,26.2 215.71,-21.44 567.38,-372.99 615.27,-401.5 -70.61,109.4 -133.14,145.35 -189.51,297.63 -33,89.36 -70.62,166.4 -154.97,202.09 -29.92,12.97 -71.39,13.87 -94.5,38.01 51.61,17.71 105.03,45.19 174.23,39.41l94.76 -136.87c16.69,-28.24 68.56,-131.47 71.64,-152.92 -0.64,65.87 -66.25,207.23 -91.42,268.74 130.07,-75.37 124.68,-308.15 238.44,-399.19 -61.12,115.82 -76.4,139.57 -91.68,296.6 -5.13,50.97 -19.39,109.01 -46.48,144.06 -51.61,67.28 -78.83,44.55 -115.81,79.86 62.53,3.72 98.22,25.17 142.39,-12.2 99.25,-83.2 55.72,-256.15 151.51,-362.46 -49.56,127.11 -80.51,189.26 -68.57,339.99 5.78,72.03 7.19,127.76 20.68,198.76 11.17,58.42 30.55,119.54 39.8,173.59 -324.07,3.08 -190.93,157.67 -254.1,401.24 -26.45,101.94 -71,140.33 -119.28,206.2 -117.22,159.34 -65.86,76.4 -144.31,147.4 -26.2,23.5 -8.86,-1.03 -22.73,31.59 45.2,-19.65 73.06,-45.2 124.03,-61.12 -23.5,53.03 -55.08,98.22 -89.36,142.39 -23.5,30.17 -22.47,31.59 -55.73,61.12 -18.36,16.3 -47.5,44.81 -65.22,62.14 75.75,-17.97 117.48,-82.94 159.98,-128.4 -23.5,61.89 -63.17,111.71 -114.14,147.15 -22.47,15.66 -40.83,23.11 -56.37,43.52 146.76,-38.77 184.76,-158.31 269.76,-258.84 -8.47,72.03 -47.25,130.83 -95.14,175l-50.59 47.89c124.29,-38 208.9,-194.65 253.07,-309.82 -5.39,85.64 -50.33,155.62 -103.62,210.57 -26.45,27.22 -39.41,24.53 -49.3,69.98l23.11 -20.67c10.14,-9.12 6.42,-6.42 18.36,-15.93 12.97,-10.14 22.08,-17.33 36.34,-29.91 82.17,-73.06 113.11,-165.5 150.09,-272.84 4.75,95.4 -29.27,119.53 -40.44,186.56 8.86,-7.45 6.16,-4.37 14.89,-14.9 72.03,-85.89 99.25,-246 106.7,-352.57 13.61,105.28 -7.83,163.7 -30.56,256.15 29.27,-19.01 28.25,-28.51 39.8,-65.23 9.89,-30.94 14.9,-47.25 19.39,-80.5 16.69,-129.04 -36.72,-232.4 -40.44,-356.69 -2.44,-83.58 19.64,-93.47 83.58,-115.55 -19,89.36 -37.75,195.67 6.42,284.65 47.25,95.4 78.84,132.89 12.58,242.93 -17.72,29.27 -25.42,36.33 -49.3,59.06l-63.17 55.72c-1.41,61.89 41.47,144.7 51.36,217.76 9.88,74.34 12.58,200.81 22.08,254.74 -10.91,10.91 -18.36,4.36 -22.72,13.87 -10.53,23.49 25.8,-6.42 -11.95,20.41 58.42,14.89 -6.16,7.83 54.32,16.31 -19.39,133.53 76.39,122.62 176.93,112.73 -58.04,-119.28 -89.37,-82.95 -119.54,-215.06 -16.69,-72.68 -36.98,-226.62 -28.51,-303.02 6.17,-52.64 40.83,-64.84 73.7,-90.65 39.42,-30.55 55.09,-43.14 84.87,-83.2 45.58,-60.86 99.51,-117.48 111.45,-218.78 170.25,106.69 -107.34,252.81 -92.7,333.31 19,37.37 58.8,57.14 87.31,83.2 59.83,55.08 114.53,123.65 161.39,189.52 39.8,55.72 35.95,52.64 30.18,132.11l28.5 -8.47c10.91,1.03 17.72,6.42 28.25,13.61 -8.22,32.61 -16.95,45.58 -16.7,83.59 55.73,41.72 109.78,57.13 190.29,37.74 2.69,-67.66 -313.55,-363.87 -314.57,-489.18 -0.64,-79.87 88.33,-127.76 136.61,-165.12 29.28,-22.73 29.92,-25.81 56.11,-52.64 65.22,-66.26 67.66,-115.17 115.81,-186.18 18.75,-27.47 37.37,-30.56 45.2,-65.22 12.2,-54.31 -23.11,-115.82 -36.34,-164.09 -40.06,-150.1 147.79,-123.65 313.54,-291.46 59.07,-59.83 130.84,-157.67 180.4,-229.32 117.23,-169.22 69.33,-76.39 154.2,-111.7 27.87,-11.56 45.59,-25.81 72.42,-41.09 -3.34,56.75 -3.08,88.72 10.53,137.9l191.56 -166.4c14.9,-25.17 10.53,-63.56 31.21,-92.7 81.14,0.38 94.75,125.06 100.91,207.61 -31.2,23.5 -13.22,14.64 -17.71,23.76 -3.34,7.19 -12.2,5.77 -22.09,23.75 29.92,26.45 75.76,38.01 29.28,75.37 -10.15,8.22 -19.65,11.94 -27.87,23.75 -55.33,83.59 59.84,130.84 138.29,134.56l1.28 -1.8z"/>
   <path class="fil0" d="M4058.7 1769.76l-405.99 445.02c-52.64,56.1 -107.98,86.66 -134.81,158.95 218.14,184.12 357.32,603.72 268.73,996.74 -79.86,354.63 -285.42,667.53 -219.17,1071.85 58.8,358.35 292.1,643.39 556.08,757.92 230.34,99.89 788.48,49.56 981.46,341.79 90.65,-30.18 87.31,-129.43 384.16,-216.74 154.97,-45.58 341.4,-56.75 504.85,-86.92 298.91,-55.72 518.72,-325.74 622.72,-577.14 236.12,-572.13 -164.47,-1002.51 -185.53,-1468.98 -10.14,-226.62 30.17,-328.56 83.2,-519.74 29.92,-66.26 61.5,-123.26 97.2,-174.62 37.36,-53.03 77.16,-90.01 108.75,-138.93l-412.79 -453.49c-40.83,-47.89 -94.12,-96.17 -137.9,-141.36 -26.45,12.96 1.67,-6.17 -30.95,21.05 -7.83,6.81 -16.69,16.31 -25.42,25.17 -125.31,129.04 -298.26,174.62 -486.49,163.7 -304.04,-17.33 -427.3,-195.67 -520.39,-223.15 -95.4,119.92 -291.84,220.2 -514.35,224.18 -112.73,2.05 -220.2,-18.36 -311.49,-61.89 -188.23,-89.36 -136.23,-140.98 -221.87,-143.03l0 -0.38zm-378.77 607.82c45.2,-86.67 217.12,-241.51 293.9,-327.15 35.31,-39.42 61.12,-77.81 98.48,-111.71 71.65,32.23 117.23,87.31 225.59,127.37 103.62,38.01 190.54,49.95 307.13,47.51 248.96,-5.14 358.09,-99.51 517.05,-192.98 168.84,103.23 277.2,186.56 517.05,193.24 112.73,3.33 210.95,-11.17 306.09,-48.54 131.09,-51.36 169.48,-102.97 223.92,-126.72l393.79 421.26c-32.99,96.17 -105.02,137.26 -194.26,431.41 -50.33,165.51 -61.5,379.16 -32.61,556.47 67.28,415.49 463.77,920.6 75.75,1455.62 -253.45,349.88 -377.48,292.49 -858.45,378.77 -308.15,55.34 -313.16,126.34 -431.16,190.54 -146.11,-98.48 -206.84,-151.51 -430.76,-189.9 -144.32,-25.16 -398.8,-51.35 -522.45,-97.19 -251.01,-93.09 -472.88,-394.69 -505.49,-728.65 -58.42,-591.13 601.92,-1019.85 16.95,-1979.22l-0.52 -0.13z"/>
   <path class="fil0" d="M7876.04 3333.49c-8.22,-101.18 -70.62,-186.56 -156.26,-208.64 67.28,77.8 38.01,77.16 63.17,120.94 8.48,14.9 74.73,77.81 93.09,87.96l0 -0.26zm-950.13 -256.79c-18.36,-22.09 -41.09,-32.23 -66.64,-52 -20.41,-15.67 -42.75,-36.98 -66.64,-47.51l-8.47 89.75 142.01 9.89 -0.26 -0.13zm1387.7 383.52c-9.88,-104.65 -6.42,-121.6 -49.94,-243.57 -29.28,-82.95 -82.95,-162.04 -137.64,-190.28 77.42,99.89 161,292.87 95.39,401.23 -8.21,-140.33 -23.11,-266.03 -146.11,-301.73 40.44,69.59 86.28,133.79 70.62,242.54 -17.72,-24.78 -6.42,-8.22 -13.23,-38.77 -16.95,-78.2 -65.86,-165.51 -148.42,-187.2 61.88,81.91 80.5,90 51.36,224.56 -32.23,-57.14 -5.78,-87.69 -120.31,-164.48 2.44,59.84 -11.94,105.03 -11.56,148.17 35.31,23.11 30.56,18.36 66.26,34.03 26.44,11.55 32.99,20.67 60.08,32.23 42.12,17.71 95.4,27.47 133.54,58.03 121.59,98.22 147.78,450.16 190.54,-40.44 9.88,-113.12 8.47,-188.87 -47.51,-264.24 8.86,47.89 30.17,90.64 31.97,154.97 0.64,33 -3.72,139.95 -16.69,165.5l-8.48 -31.2 0.13 0.65zm-1814.36 197.08l0 -13.22c10.91,-19.39 12.58,-32.61 16.69,-59.45 7.83,-52 6.42,-27.86 19.39,-63.81 23.5,-66.64 -29.27,-62.15 -9.5,-125.06 38,-121.33 28.5,-164.09 38.39,-287.35 52,-50.33 34.28,-57.14 125.31,-50.97 -18.36,-110.42 -22.47,-137.9 60.86,-194.27 54.7,-4.36 108.37,28.89 167.82,35.06 25.16,-102.98 121.97,-83.59 145.08,-195.68 13.23,-64.2 55.34,-258.84 21.7,-311.23 -55.08,-4.75 -17.33,29.53 -90.65,7.45 -30.94,-9.12 -66.63,-12.2 -101.17,-15.28l-31.59 39.8c-28.5,-11.94 -12.96,-13.22 -39.03,-20.41 -20.41,-5.78 -41.73,-2.44 -64.84,-3.73 -6.8,-58.03 -30.56,-99.5 -33,-139.95 54.31,-23.11 74.73,-61.12 127.76,-94.76 46.22,-29.27 105.03,-67.28 126.72,-109 -39.41,-21.06 -42.49,-25.43 -45.19,-80.12 32.23,19.38 45.84,34.02 84.87,47.5 -46.48,-114.53 -182.45,-321.37 -206.85,-423.96l44.56 51.62c38,59.06 177.7,262.31 217.37,300.31 19.39,18.36 33.64,13.23 60.47,31.59 19.39,-30.56 31.59,-27.86 69.98,-42.5 43.14,-16.69 41.73,-23.5 65.23,-49.3 41.72,52 8.47,99.5 -35.06,129.42 79.48,24.52 159.98,-49.56 223.16,79.09 -38.78,-14.25 -53.29,-27.86 -112.74,-23.11 80.89,35.31 84.87,12.58 168.84,86.28 29.28,25.81 94.76,76.78 134.82,38.01 34.28,-33.26 -23.11,-16.69 23.5,-28.51 39.8,97.2 -59.84,82.56 -128.4,66.64 19.39,16.95 40.83,27.48 60.48,42.5 26.19,19.64 39.03,24.78 54.05,55.72 -50.59,-23.11 -87.31,-51.61 -154.97,-52.64 60.47,36.34 135.84,69.59 194.64,112.48 46.48,34.02 126.35,105.28 143.04,177.7 -35.95,-23.76 -58.42,-73.06 -115.56,-113.12 -43.78,-31.2 -109.01,-51.36 -171.54,-51.62 75.37,41.73 136.87,86.67 160.37,171.93 -64.58,-51.36 -45.19,-73.7 -154.97,-96.81 54.31,62.52 144.31,101.17 171.92,216.73l60.09 -11.94c-1.67,1.41 -3.73,1.67 -4.75,5.13 -1.03,3.47 -3.34,4.37 -4.75,5.78l-41.48 35.05c-22.08,10.53 -54.31,3.08 -77.16,-0.64 27.86,34.67 50.59,56.37 29.27,121.98 -36.72,-82.18 -13.86,-90.39 -120.56,-112.09 2.44,63.17 71.39,118.89 63.56,246 74.34,-51.61 397.77,-414.46 208.9,-566.61 32.61,81.53 49.94,175.26 -4.37,249.35 29.92,-101.18 4.37,-132.89 -23.75,-219.82 -105.67,-330.23 402.9,-151.5 522.44,-94.75 -55.08,-64.84 -158.7,-94.5 -264.62,-114.53 122.36,-15.92 343.07,63.17 479.3,73.7 134.56,10.53 266.03,-21.06 361.82,-111.45l48.53 -38.39c-19,72.03 -97.45,151.89 -144.32,184.12 -72.03,49.3 -165.11,66.64 -267.32,64.84 208.65,64.84 686.28,-69.59 874.38,-243.95 30.17,-28.25 54.7,-65.23 89.75,-89.75 -49.56,174.62 -313.93,282.34 -481.36,333.96 -66.89,20.67 -159.34,34.28 -220.45,55.33 153.17,-7.44 317.01,-63.17 449.38,-129.03 53.67,-26.45 86.67,-53.03 134.18,-75.76 -11.56,34.67 6.16,3.73 -18.75,34.03 -21.7,26.19 -45.58,37.75 -73.06,60.09 -99.5,80.12 -266.03,123.64 -395.07,140.33 74.34,9.12 141.36,-17.97 210.31,-24.13l-135.2 49.3c-222.51,59.83 -329.21,14.89 -530.66,-1.67 271.43,118.25 764.73,57.78 1040.26,-34.28 154.59,-51.62 291.46,-109.01 415.88,-185.79 67.66,-41.73 114.78,-75.37 175,-125.7 47.51,-40.06 116.2,-121.59 161.39,-151.51 -42.11,119.54 -147.14,177.7 -235.47,245.24 -290.82,222.12 -701.82,361.18 -1089.83,369.65 181.81,42.5 527.97,-53.28 680.76,-119.28 96.81,-41.73 178.72,-83.2 267.32,-133.53 43.78,-24.78 82.17,-51.62 123.26,-77.42 38.39,-24.53 89.36,-68.95 126.08,-86.67 -46.48,121.59 -347.57,276.56 -467.74,339.09 56.36,-8.21 109.39,-36.98 157.28,-60.47 57.39,-28.25 96.43,-64.2 150.87,-85.64 -27.48,67.66 -148.81,130.45 -208.26,163.06 -93.09,50.59 -165.5,66.64 -265.01,88.98 101.17,23.5 159.72,-30.56 237.4,-47.89l-31.2 26.45c-15.28,9.88 -17.33,8.86 -32.61,16.95 -204.15,108.36 -393.02,121.33 -627.86,102.97 -178.34,-13.87 -357.06,-46.87 -519.74,-117.23 -50.59,-22.08 -101.56,-51.35 -149.45,-69.97 147.78,110.42 542.85,273.1 751.11,319.32 146.12,32.61 194.65,20.67 327.54,-16.31l-8.48 15.67c-13.61,21.7 -25.8,38 -49.56,49.3 -24.52,11.56 -69.97,16.31 -98.86,17.72 -130.45,5.13 -262.57,-27.86 -383.26,-67.92 -59.84,-19.65 -117.87,-48.92 -168.84,-65.23 171.53,100.28 339.35,183.1 593.83,167.17l-53.67 54.32c-73.7,51.61 -141.62,79.47 -235.48,41.72 -97.45,-39.41 -178.98,-100.27 -271.04,-149.45 47.5,66.64 155.87,120.31 233.04,160.62 26.19,13.87 18.74,6.81 37.74,26.2 -215.7,-21.44 -567.63,-372.99 -615.53,-401.5 71.01,109.4 133.54,145.35 189.52,297.63 32.99,89.36 71,166.4 154.97,202.09 29.92,12.97 71.39,13.87 94.5,38.01 -51.36,17.71 -105.03,45.19 -173.98,39.41l-95.14 -136.87c-16.69,-28.24 -68.56,-131.47 -71.64,-152.92 0.38,65.87 66.25,207.23 91.03,268.74 -129.81,-75.37 -124.29,-308.15 -238.43,-399.19 61.11,115.82 76.39,139.57 92.06,296.6 5.13,50.97 19.39,109.01 46.22,144.06 51.62,67.28 79.09,44.55 116.2,79.86 -62.53,3.72 -98.22,25.17 -142.39,-12.2 -99.25,-83.2 -55.73,-256.15 -151.51,-362.46 49.3,127.11 80.12,189.26 68.56,339.99 -5.77,72.03 -7.44,127.76 -20.67,198.76 -11.17,58.42 -30.56,119.54 -39.8,173.59 323.69,3.08 190.92,157.67 254.09,401.24 26.45,101.94 71.01,140.33 119.54,206.2 116.84,159.34 65.87,76.4 144.32,147.4 26.19,23.5 8.47,-1.03 22.72,31.59 -45.19,-19.65 -73.05,-45.2 -124.03,-61.12 23.5,53.03 55.09,98.22 89.37,142.39 23.49,30.17 22.47,31.59 55.72,61.12 18.75,16.3 47.89,44.81 65.61,62.14 -76.14,-17.97 -117.48,-82.94 -159.98,-128.4 23.5,61.89 63.56,111.71 114.14,147.15 22.47,15.66 40.83,23.11 56.76,43.52 -147.15,-38.77 -185.15,-158.31 -269.76,-258.84 8.85,72.03 47.25,130.83 95.14,175l50.97 47.89c-124.29,-38 -209.29,-194.65 -253.45,-309.82 5.77,85.64 50.33,155.62 103.61,210.57 26.45,27.22 39.42,24.53 49.56,69.98l-23.49 -20.67c-10.15,-9.12 -6.42,-6.42 -18.36,-15.93 -12.59,-10.14 -22.09,-17.33 -35.95,-29.91 -82.18,-73.06 -113.51,-165.5 -150.1,-272.84 -5.14,95.4 28.89,119.53 40.44,186.56 -8.85,-7.45 -6.16,-4.37 -14.89,-14.9 -72.03,-85.89 -98.86,-246 -106.7,-352.57 -13.61,105.28 7.84,163.7 30.56,256.15 -29.27,-19.01 -27.86,-28.51 -39.8,-65.23 -9.89,-30.94 -14.89,-47.25 -19.39,-80.5 -16.69,-129.04 36.98,-232.4 40.45,-356.69 2.44,-83.58 -20.03,-93.47 -83.59,-115.55 18.75,89.36 37.75,195.67 -6.42,284.65 -47.51,95.4 -79.09,132.89 -12.97,242.93 17.72,29.27 25.81,36.33 49.31,59.06l63.17 55.72c1.02,61.89 -41.73,144.7 -51.36,217.76 -9.89,74.34 -12.58,200.81 -22.08,254.74 10.91,10.91 18.36,4.36 22.46,13.87 10.53,23.49 -25.42,-6.42 11.95,20.41 -58.42,14.89 6.16,7.83 -54.7,16.31 19.39,133.53 -76.4,122.62 -176.67,112.73 58.03,-119.28 89.36,-82.95 119.53,-215.06 16.31,-72.68 36.98,-226.62 28.51,-303.02 -6.17,-52.64 -40.83,-64.84 -74.09,-90.65 -39.42,-30.55 -55.08,-43.14 -84.87,-83.2 -45.58,-60.86 -99.5,-117.48 -111.06,-218.78 -170.51,106.69 107.34,252.81 92.7,333.31 -19,37.37 -59.06,57.14 -87.69,83.2 -59.45,55.08 -114.15,123.65 -161.4,189.52 -39.8,55.72 -35.69,52.64 -30.17,132.11l-28.5 -8.47c-10.92,1.03 -17.72,6.42 -28.25,13.61 8.22,32.61 16.95,45.58 16.69,83.59 -55.72,41.72 -109.78,57.13 -189.9,37.74 -3.08,-67.66 313.55,-363.87 314.19,-489.18 0.64,-79.87 -88.34,-127.76 -136.23,-165.12 -29.53,-22.73 -30.17,-25.81 -56.37,-52.64 -64.84,-66.26 -67.27,-115.17 -115.55,-186.18 -19,-27.47 -37.36,-30.56 -45.2,-65.22 -12.19,-54.31 23.11,-115.82 35.95,-164.09 40.45,-150.1 -147.39,-123.65 -313.54,-291.46 -59.06,-59.83 -130.83,-157.67 -180.39,-229.32 -117.23,-169.22 -69.34,-76.39 -154.21,-111.7 -27.86,-11.56 -45.84,-25.81 -72.41,-41.09 3.33,56.75 2.69,88.72 -10.92,137.9l-191.95 -166.4c-14.89,-25.17 -10.53,-63.56 -30.94,-92.7 -81.15,0.38 -94.76,125.06 -101.18,207.61 31.2,23.5 13.61,14.64 17.98,23.76 3.34,7.19 12.19,5.77 22.08,23.75 -29.92,26.45 -75.75,38.01 -29.27,75.37 10.14,8.22 19.64,11.94 27.47,23.75 55.73,83.59 -59.83,130.84 -138.28,134.56l-1.54 -1.8z"/>
   <path class="fil0" d="M5935.34 843.76c-16.95,0 -43.53,7.45 -57.78,14.9l-11.56 5.78c-2.69,1.67 -1.41,0.64 -3.08,2.05 16.69,3.72 37.75,18.36 47.51,31.59 11.55,15.66 22.08,35.3 22.08,56.75 0,36.97 -11.94,75.75 -36.98,100.92 -23.75,23.49 -27.47,23.75 -57.13,38l-45.84 17.33c-15.66,6.42 -39.8,30.56 -48.92,44.81 -7.19,11.18 -8.22,26.45 -31.97,31.2 -16.69,3.34 -34.02,-8.85 -34.02,-25.8 0,-13.61 8.47,-26.2 13.61,-35.05 3.08,-5.14 6.41,-8.86 10.14,-13.87 27.22,-34.03 52.64,-54.7 94.75,-68.56 6.81,-2.06 11.56,-3.73 17.72,-6.42 28.51,-10.53 52.26,-29.92 52.26,-63.82 0,-16.3 -1.03,-22.47 -12.97,-34.02 -13.86,-13.61 -23.11,-12.97 -38,-12.97 -22.73,0 -54.06,30.17 -66.64,49.95 -4.75,7.44 -7.83,14.89 -15.92,21.69 -7.45,6.17 -8.48,2.44 -12.58,7.45l-10.92 18.75c-3.08,6.16 -7.19,11.17 -10.14,17.97 -1.67,3.73 -2.44,6.81 -4.37,10.15 -1.92,3.33 -3.33,6.16 -5.13,9.88 -15.28,32.62 -27.22,74.34 -33,110.42 -11.17,67.28 -4.11,158.7 54.05,193.24 55.73,33.25 117.49,5.78 165.51,-26.19 23.75,-15.67 56.11,-46.87 74.72,-71.01 6.42,-8.47 11.94,-14.89 17.98,-23.49 29.91,-42.5 55.34,-90.39 69.97,-140.6 12.2,-42.11 21.7,-94.75 14.9,-138.66 -4.37,-27.87 -11.17,-59.45 -29.53,-82.95l-15.28 -16.69c-24.78,-20.67 -44.56,-23.11 -74.34,-23.11l0.9 0.38zm202.09 120.95c-0.38,-7.19 -1.03,-13.61 -1.67,-20.41 -2.44,-19 -6.16,-39.42 -11.94,-57.78 -5.39,-17.33 -12.58,-33.25 -22.08,-47.51 -25.81,-38.39 -54.7,-61.88 -99.25,-75.11 -42.12,-12.58 -81.53,-5.13 -120.95,5.78 -8.86,2.44 -16.69,6.16 -25.17,9.89 -13.86,6.16 -27.22,11.94 -39.8,20.41 -3.72,2.44 -1.03,2.06 -6.16,3.34 4.75,-7.19 22.47,-28.89 29.27,-35.05l17.33 -14.9c5.78,-4.36 12.97,-9.5 19.65,-12.58 17.97,-8.47 27.48,-6.8 38.77,-25.81 13.87,-23.75 -0.64,-67.92 -58.03,-39.03 -26.45,13.61 -51.62,31.97 -71,55.08l-30.56 37.75c0,-17.97 2.05,-38 -0.39,-57.14 -3.72,-31.97 -24.52,-128.01 -75.11,-98.47 -5.78,3.33 -11.17,9.5 -14.25,15.27 -9.89,19.01 -4.75,29.28 6.16,45.2 3.73,5.78 7.83,14.25 9.89,20.67 8.86,27.86 8.47,54.06 7.19,82.95 -0.39,9.11 -2.7,17.71 -2.7,27.86l-2.44 -0.13c-0.64,-27.86 -23.75,-86.67 -35.31,-113.5 -14.63,-34.28 -43.78,-82.56 -69.59,-108.75 -14.89,-15.28 -29.91,-30.18 -47.25,-42.5 -6.42,-4.37 -11.17,-7.84 -17.71,-11.94 -55.34,-35.06 -128.02,-44.56 -192.34,-23.12 -14.9,5.14 -29.28,9.89 -42.76,17.72 -6.42,3.73 -12.58,7.45 -18.36,11.17 -23.11,13.61 -42.11,31.59 -61.11,49.95l-11.17 11.56c-3.34,3.33 -3.73,4.36 -6.42,7.83 -4.37,5.13 -8.86,12.97 -14.26,16.69 0.65,-10.14 15.67,-38.01 20.68,-48.92 13.86,-31.2 44.16,-75.37 70.36,-95.78 9.88,-7.45 16.69,-12.2 28.89,-17.98 12.19,-5.13 20.67,-5.78 28.5,-18.36 12.97,-20.67 5.78,-53.67 -22.47,-59.06 -27.22,-5.14 -75.37,31.58 -91.67,48.28 -27.87,28.24 -50.59,60.85 -68.31,96.16l-8.86 15.28c0,-46.48 24.78,-134.81 52.64,-172.56 5.14,-6.81 11.56,-13.87 17.98,-19.39 9.11,-7.19 13.61,-7.45 19.38,-19.39 15.67,-32.22 -10.14,-69.33 -42.75,-56.36 -5.14,2.05 -7.45,3.72 -11.94,7.19 -21.06,16.3 -39.8,37.36 -52.64,61.11 -6.17,11.94 -14.64,26.2 -17.72,39.81l-2.57 -0.13c-0.64,-7.19 -7.83,-19.39 -10.91,-26.45 -3.09,-7.06 -9.12,-16.69 -13.61,-23.75 -2.7,-4.37 -4.75,-7.19 -7.84,-10.92 -3.33,-4.36 -4.36,-6.42 -8.21,-10.53 -16.95,-19.38 -44.81,-50.97 -72.68,-32.99 -21.05,13.61 -22.47,49.56 -3.33,64.84 12.96,10.14 17.71,13.22 29.27,27.22 17.72,21.69 27.86,50.97 35.69,78.19 7.45,25.42 13.23,51.61 17.98,77.16 1.67,9.12 0.38,7.45 0.38,16.95l-55.08 -86.92c-4.11,-5.39 -7.44,-7.45 -11.17,-12.97 -18.74,-24.14 -76.78,-65.22 -104,-59.83 -34.66,7.19 -37.75,55.08 -10.14,71 11.94,7.19 40.44,9.12 70.62,48.54 10.14,13.22 20.67,27.21 29.27,41.47l24.52 46.48c5.14,10.91 11.56,22.47 14.26,34.02 -7.19,-5.13 -13.87,-16.95 -20.42,-23.75 -3.34,-3.34 -3.72,-4.37 -6.8,-7.83 -19.01,-22.73 -60.48,-51.62 -84.87,-65.23 -6.81,-3.72 -13.87,-7.19 -20.68,-10.14 -21.05,-9.5 -46.86,-15.28 -69.97,-18.36 -35.95,-4.75 -70.62,2.05 -104,12.96 -26.45,8.48 -54.06,27.22 -75.11,44.17 -13.61,10.92 -26.45,23.76 -37.75,37.75 -3.08,3.72 -4.37,5.14 -7.45,8.48 -23.49,27.47 -40.83,60.86 -55.34,93.47 -9.88,21.7 -17.97,43.78 -24.14,66.89 -3.33,13.61 -10.52,33.64 -10.52,49.56l-1.54 0c0,-9.11 -4.11,-34.02 -4.11,-56.11 0,-77.42 20.41,-72.67 26.19,-94.5 5.39,-20.67 -5.14,-36.72 -15.92,-44.16 -32.61,-22.47 -55.73,16.69 -65.23,43.52 -12.96,36.34 -11.94,69.98 -11.94,110.04 -5.78,-3.73 -9.11,-11.17 -13.86,-16.95 -2.7,-3.34 -4.37,-5.78 -7.19,-8.86 -12.97,-13.61 -25.17,-27.22 -39.42,-39.42 -6.17,-5.13 -11.94,-8.21 -17.98,-12.97 -12.58,-9.5 -27.86,-16.69 -43.52,-20.67 -10.92,-3.08 -15.28,-3.72 -25.81,0.64 -27.86,11.95 -19,56.11 11.17,65.87 25.42,8.48 48.28,25.17 64.58,46.48 5.14,6.42 10.15,10.53 14.25,17.98 -3.08,-0.65 -18.36,-9.12 -22.08,-11.17 -22.08,-13.61 -50.59,-21.7 -77.42,-27.22 -71.39,-14.26 -134.18,8.86 -176.03,61.11 -3.08,3.73 -4.37,5.14 -7.19,10.15 -17.34,29.53 -16.95,28.24 -27.48,59.44 -7.45,22.09 -10.14,46.23 -10.91,69.98l0 22.72c0.38,11.18 1.02,22.09 1.67,33 1.66,29.28 8.85,60.09 16.94,87.31l15.67 54.06c8.86,27.47 7.44,24.78 21.44,48.27l62.53 94.12c21.7,32.61 39.8,66.64 50.33,105.03l8.86 34.02c4.36,11.94 -0.39,9.12 2.05,21.7 3.09,16.69 20.42,31.2 35.95,34.02 14.26,2.44 45.84,-5.13 61.51,-7.44 76.78,-12.97 154.2,-21.06 231.37,-29.92 4.36,-0.38 10.14,-0.64 15.92,-1.41 30.17,-3.72 62.53,-7.45 94.11,-9.12l64.58 -5.13c11.17,-0.65 22.09,-1.42 32.23,-2.44l132.12 -7.19c23.11,-1.03 44.81,-1.03 68.31,-1.03 7.44,-0.39 8.47,-1.41 15.92,-1.67 16.69,-0.38 35.69,1.67 52,0 51.61,-5.78 281.57,3.72 339.09,5.39 6.81,0.39 8.22,1.42 15.92,1.42 21.7,0 61.12,5.13 81.92,5.39l96.42 7.83c32.23,2.7 62.15,8.22 93.48,9.5 31.33,1.29 215.06,28.51 244.21,34.28 19.38,3.73 38.77,0.65 50.58,-15.28 1.67,-2.05 5.78,-8.86 6.42,-11.17 2.44,-6.8 0.65,-13.86 3.34,-19.38 3.73,-6.42 4.37,-12.97 6.42,-20.42 3.08,-9.5 5.14,-17.97 7.45,-27.22 16.31,-58.42 53.03,-106.95 85.9,-156.64 4.36,-6.81 10.14,-13.61 13.61,-21.44 13.22,-32.62 23.75,-67.93 40.83,-98.87 0.64,-1.03 2.05,-3.72 2.44,-4.75 4.36,-11.55 9.88,-34.67 12.58,-47.25 4.75,-21.44 8.86,-49.3 9.88,-77.16l0 -30.18 -0.51 -0.9zm-1890.5 -4.49c0,59.45 38.39,110.03 91.42,132.12 31.2,12.97 52.64,13.87 74.72,36.33 35.7,35.96 27.22,38.01 36.73,47.51 10.91,11.17 26.45,14.9 39.41,7.45 6.17,-3.34 10.53,-7.45 12.97,-15.28 7.83,-29.53 -31.2,-66.25 -50.33,-85.26l-14.89 -13.22c-10.53,-7.83 -22.47,-13.23 -35.7,-19l-40.83 -15.67c-11.17,-4.36 -26.45,-12.97 -33,-23.11 -38,-57.13 7.45,-85.25 25.17,-85.25 20.41,0 30.56,3.33 48.92,17.97 9.5,7.45 21.06,20.03 27.48,29.92 6.16,9.11 9.88,18.36 18.36,24.52 10.14,7.45 6.42,-2.44 20.67,22.09 2.05,3.72 3.08,5.77 5.13,9.5 2.06,3.72 3.34,5.77 5.4,9.11 2.44,3.73 2.44,5.14 4.36,9.12 11.17,26.45 19,36.34 28.89,71.64 6.16,22.73 6.42,21.06 11.17,46.23 10.14,55.08 9.89,123.26 -21.7,168.84 -9.88,13.86 -17.72,22.47 -31.97,30.94 -43.14,25.42 -93.47,12.58 -134.17,-9.12l-13.87 -7.83c-20.41,-11.55 -53.67,-40.44 -69.97,-57.13 -3.73,-4.11 -5.4,-7.19 -9.89,-11.17 -4.49,-3.98 -6.16,-7.19 -10.14,-11.56l-27.22 -35.69c-14.26,-23.76 -16.7,-24.78 -31.2,-53.03 -3.09,-5.78 -4.37,-7.19 -7.19,-14.25 -2.44,-5.78 -4.37,-8.48 -6.81,-14.9 -22.08,-53.02 -35.69,-98.48 -35.69,-159.98 0,-39.03 9.88,-77.16 25.42,-100.28 16.95,-25.16 43.14,-48.27 77.81,-48.27 39.8,0 47.89,3.34 80.89,18.36 4.1,1.67 5.13,1.03 7.44,4.36 -17.72,4.11 -36.33,19.65 -47.25,33.26 -10.91,13.61 -21.05,36.33 -21.05,60.47l0.51 0.26zm118.89 -159.21l0 0zm0 0l0 0zm474.17 26.45c0,23.49 3.72,54.05 18.36,71.39 4.75,5.77 7.45,8.86 12.58,13.86 32.23,31.59 93.73,46.23 131.48,15.67 38.78,-31.59 28.25,-75.37 -8.47,-75.37 -10.15,0 -19.65,4.75 -24.53,10.53 -6.42,7.83 -11.17,29.91 -49.3,5.39 -20.42,-12.97 -21.06,-48.28 4.37,-68.95 29.91,-24.14 75.36,-18.36 93.72,16.69 11.56,22.09 16.95,58.42 16.95,86.28 0,17.72 -3.34,35.31 -9.5,50.59 -1.67,5.14 -4.75,8.86 -6.8,14.25 -9.89,23.5 4.75,46.87 28.5,47.25l-1.03 29.54c-22.72,-26.2 -55.72,-44.81 -90,-53.29 -43.53,-10.91 -97.2,-5.13 -133.79,17.98 -4.37,2.69 -7.19,4.75 -11.17,7.44 -9.89,6.42 -22.47,18.36 -29.28,28.51 -5.39,7.83 -10.52,15.28 -14.63,24.52 -23.5,55.08 -19.01,92.7 14.63,141.36 3.09,4.37 4.37,4.76 7.45,8.48 13.61,15.66 28.5,27.48 47.51,36.98 34.66,17.33 75.75,20.41 110.03,-0.64 6.42,-4.11 12.97,-7.84 18.36,-13.61 10.15,-10.15 14.26,-22.09 7.45,-36.34 -5.78,-12.2 -21.44,-18.75 -35.31,-15.67 -19.39,4.37 -21.7,22.09 -48.53,20.42 -36.34,-2.05 -73.06,-45.2 -73.06,-69.98 0,-100.92 128.01,-114.14 178.73,-59.44 1.02,1.02 1.02,1.67 2.44,2.69 13.86,14.9 22.47,27.48 28.89,47.51 4.36,13.87 0.64,16.95 -3.34,29.92 -6.17,18.74 -12.58,38.77 -22.47,55.33 -13.61,22.09 -12.97,24.53 -28.89,47.51 -10.53,14.89 -22.47,29.53 -36.98,40.83 -34.67,27.22 -61.89,45.2 -111.7,45.2 -41.47,0 -91.42,-24.14 -120.31,-52.65 -2.05,-2.05 -3.34,-3.72 -6.16,-5.77 -3.34,-2.7 -4.37,-2.7 -7.19,-6.17l-23.11 -26.19c-22.09,-28.89 -41.09,-59.06 -55.09,-93.73 -13.22,-32.61 -15.92,-38.39 -25.8,-73.06 -9.5,-32.99 -15.28,-69.97 -18.36,-105.02 -1.42,-14.9 2.44,-9.12 3.08,-20.03 1.02,-23.76 -0.64,-43.53 9.11,-64.59 7.84,-16.69 21.7,-33.25 43.14,-33.25 12.59,0 27.48,4.75 35.31,10.14 19.01,12.97 28.51,39.8 24.78,63.17 -2.05,12.2 -9.5,21.06 -16.3,29.28 -7.45,9.11 -14.9,14.89 -21.7,23.75 -3.72,4.75 -6.42,7.45 -10.14,12.58 -3.09,4.11 -6.81,9.12 -9.12,13.61 -14.89,25.81 -42.11,132.51 17.33,132.51 10.92,0 20.42,-6.81 24.53,-14.25 6.16,-10.92 2.44,-21.45 2.44,-35.31 0,-23.11 8.86,-47.25 22.08,-62.15 0.38,-0.38 0.38,-0.38 0.64,-0.64 0.26,-0.26 0.64,-0.64 0.64,-0.64 11.94,-12.97 24.53,-24.78 34.29,-39.42 4.75,-7.19 8.21,-12.58 11.55,-20.41 6.42,-14.26 11.94,-33.26 9.89,-52.65 -4.11,-35.3 -14.64,-65.61 -38.78,-90 -28.25,-27.86 -72.03,-43.78 -113.5,-35.05 -6.42,1.67 -10.14,4.36 -15.66,4.75 1.66,-7.45 3.72,-12.59 5.77,-19.65 6.42,-22.72 15.67,-44.55 25.81,-65.22l13.87 -26.45c3.34,-5.78 6.42,-11.17 10.14,-16.31l22.73 -29.91c3.72,-4.75 8.86,-8.86 13.22,-13.61 9.89,-9.89 17.72,-15.93 29.92,-23.76 66.64,-44.55 139.95,-32.22 201.84,17.98 13.86,11.17 27.47,24.78 39.03,39.03 16.31,20.42 19,26.45 31.97,45.84 -41.73,0 -62.53,5.39 -92.7,29.27 -19.39,15.28 -41.09,47.51 -41.09,81.92l-0.77 -0.77zm542.22 -240.87c36.72,0 63.81,7.44 93.47,27.22l22.08 16.69c3.08,2.7 4.37,3.08 7.45,6.16l19.39 20.67c20.41,22.73 38,53.03 49.94,81.53l11.56 28.51c2.44,7.19 11.55,33.64 11.94,41.73 -5.14,-1.03 -7.45,-3.34 -14.25,-4.75 -24.78,-5.14 -56.11,0.64 -76.78,8.86 -20.67,8.47 -40.45,25.42 -52,44.55 -24.78,41.09 -33,91.67 -7.45,135.2l45.84 54.31c10.91,13.87 15.66,30.17 18.36,48.92 3.08,21.7 -0.64,15.66 -0.64,28.89 0,44.17 93.72,52.64 57.39,-72.03 -5.14,-17.98 -9.89,-29.27 -19.65,-43.14l-21.69 -25.17c-3.09,-3.08 -5.14,-4.75 -8.22,-7.83 -4.75,-5.13 -9.12,-11.17 -13.23,-17.33 -19,-27.86 -2.05,-73.06 26.45,-85.26 46.87,-19.64 75.76,23.76 78.2,66.25 0.38,9.12 -2.06,21.06 0.64,29.92 2.05,7.19 3.34,4.75 3.34,11.56 0,23.11 -5.14,48.27 -8.86,68.95 -10.92,60.85 -31.59,118.5 -63.17,171.28 -11.94,19.64 -26.2,38.77 -41.73,55.72l-29.53 27.86c-10.92,8.86 -22.09,16.69 -34.67,23.11 -23.75,11.94 -48.53,21.7 -80.12,21.7 -27.86,0 -60.86,-12.2 -78.19,-23.5 -21.06,-13.86 -26.45,-18.36 -41.73,-34.28l-34.28 -42.11 -19.01 -32.23c-7.19,-12.97 -28.88,-63.81 -28.88,-74.08 0,-25.17 20.41,-48.92 35.69,-64.59 27.22,-27.22 81.15,-37.36 119.28,-22.08 36.34,14.64 56.75,43.14 56.75,86.67 0,17.72 -20.67,41.08 -34.02,52 -17.98,14.25 -47.25,21.7 -67.28,6.42 -9.12,-6.81 -6.42,-9.12 -21.7,-11.94 -28.25,-5.78 -61.89,34.28 -7.19,65.86 67.66,39.42 146.11,-6.42 178.72,-67.66 21.06,-39.42 16.7,-80.5 -0.64,-119.92 -3.72,-8.48 -8.86,-15.92 -14.25,-23.11 -16.69,-22.47 -39.42,-38.39 -66.64,-48.54 -39.8,-15.28 -93.47,-13.86 -133.14,2.06 -3.34,1.41 -5.4,2.69 -9.12,4.36 -17.98,7.83 -35.31,20.03 -48.92,34.28 -8.47,8.86 -8.86,5.78 -8.86,-22.47 16.95,-0.38 32.23,-12.58 32.23,-29.27 0,-9.89 -2.06,-16.31 -6.16,-24.52 -20.03,-39.42 -17.98,-105.29 2.05,-144.32 4.75,-9.12 11.56,-15.66 20.03,-21.7 35.69,-24.78 94.11,0.64 94.11,40.45 0,9.88 -2.44,23.11 -9.88,28.88 -6.17,5.14 -17.34,11.56 -25.42,13.61 -32.62,6.81 -18.75,-25.16 -55.73,-25.16 -30.17,0 -44.17,40.06 -11.55,70.36 1.67,1.67 3.08,2.7 5.13,4.37 25.17,22.46 67.67,20.41 97.2,8.21 8.86,-3.34 17.72,-8.86 25.16,-14.89l21.45 -20.03c4.75,-5.78 6.8,-11.56 9.88,-18.36 13.61,-30.94 11.56,-70.62 -3.08,-100.28 -7.19,-14.25 -16.95,-24.52 -27.86,-35.05 -26.19,-24.52 -57.39,-32.61 -94.76,-32.61 5.14,-20.42 54.31,-71.65 68.95,-83.59 24.78,-20.03 65.23,-45.19 109.01,-45.19l-1.41 -0.13zm-215.71 33.25l0 0z"/>
   <path class="fil0" d="M4321.66 1710.31l0 6.42c0,14.89 17.72,30.94 32.22,30.94l29.53 -1.41c7.2,-0.64 13.61,-0.64 21.06,-1.67l247.29 -20.42c13.61,-2.05 29.92,-1.41 42.5,-3.08 7.19,-1.02 13.87,0 21.06,-0.38l84.61 -3.73c8.22,-0.38 12.2,-1.66 21.44,-1.66 15.67,0.38 27.87,-1.03 44.56,-1.03 8.47,0 11.17,-1.67 19.64,-1.67 50.59,0.38 102.97,-2.44 155.62,-2.44l127.37 0.13c29.91,0 57.13,1.41 85.64,1.41l146.11 5.14c7.19,0.64 15.28,-0.39 22.47,0.38l62.14 3.34c7.19,1.03 14.9,-0.39 22.09,0.64 12.58,1.41 26.45,1.03 40.44,2.7l60.86 4.75c5.78,0.64 15.28,1.67 19.65,1.67l80.5 6.42c13.87,1.67 27.86,2.44 40.44,3.72 13.87,1.67 27.48,2.44 40.06,4.11l47.9 3.08c19.38,0 34.66,-15.66 34.66,-35.05 0,-30.56 -45.83,-27.48 -66.25,-30.17l-133.53 -12.59c-29.92,-1.67 -61.5,-6.8 -91.03,-6.42 -8.86,0 -13.23,-1.02 -22.73,-1.41l-23.75 -1.67c-29.28,-3.34 -60.48,-3.34 -91.42,-5.13 -42.5,-2.44 -98.22,-5.4 -140.59,-5.4 -17.72,0 -30.18,-1.41 -48.28,-1.41 -32.61,0 -62.53,-1.41 -96.17,-1.41l-107.47 0.13c-33.64,0 -63.81,1.41 -96.17,1.41 -29.27,0 -67.66,2.7 -96.42,2.7 -17.98,0 -30.56,1.41 -48.28,1.41l-234.45 13.22c-17.72,0.65 -70.36,7.19 -91.03,8.22 -30.94,1.67 -61.12,5.14 -91.03,8.22l-44.56 4.75c-14.63,2.44 -26.45,11.55 -26.45,23.11l-0.25 0.13z"/>
   <path class="fil0" d="M5636.69 1541.47c0,23.11 -2.06,36.98 -14.9,56.36 -4.11,6.17 -7.44,10.92 -12.96,16.31 -2.44,2.44 -4.76,5.14 -7.45,7.19 -5.14,3.72 -6.16,1.41 -7.83,7.19 28.88,0 105.28,9.89 137.89,11.94 8.86,0.64 17.98,1.67 27.86,3.08l80.51 9.12c8.22,0.64 20.41,3.34 27.22,3.72 11.17,0.64 14.89,-20.67 21.7,-38l16.69 -43.53c3.08,-7.19 5.39,-14.89 8.22,-22.47 1.41,-3.34 7.44,-15.66 7.19,-19 -0.26,-3.34 -0.64,-4.11 -3.08,-5.78 -3.73,-2.44 -66.26,-11.94 -70.37,-12.58 -26.83,-3.73 -51.35,-8.48 -77.16,-11.17l-118.25 -14.25c-13.61,-1.67 -27.48,-1.67 -39.81,-4.37 1.03,5.14 4.37,8.47 7.84,12.58 8.85,10.92 16.3,28.51 16.3,43.79l0.39 -0.13z"/>
   <path class="fil0" d="M4711.34 1474.57c4.36,6.42 12.58,9.5 18.36,14.9 9.89,9.11 23.11,28.89 27.22,42.5 16.69,55.33 -14.64,78.45 -16.31,84.61 13.61,0 22.09,-1.41 34.67,-1.41 8.22,0 9.89,-1.42 17.33,-1.42 6.17,-0.38 12.97,0.39 19.01,0l71 -2.69c13.61,0 21.44,-1.41 34.66,-1.41l109.78 -1.03c-1.67,-6.16 -7.19,-5.39 -14.89,-14.64l-12.58 -16.69c-19.65,-33.64 -17.72,-75.37 5.13,-102.2 3.73,-4.75 8.48,-8.86 11.56,-13.87 -12.97,0 -25.81,0 -39.03,0l-133.79 5.14c-6.42,0.64 -13.61,-0.39 -20.03,0.38l-112.48 7.83 0.39 0z"/>
   <path class="fil0" d="M4271.07 1530.68c0,6.42 4.36,16.69 6.42,21.44 6.42,14.64 16.95,47.25 24.14,63.18 21.05,47.89 -3.34,38.77 72.67,30.94 17.97,-1.67 35.31,-3.34 52,-5.14l53.28 -5.78c27.48,-1.41 88.72,-7.83 108.75,-7.83 -2.43,-8.86 -56.1,-39.03 -36.72,-106.31 6.42,-23.5 17.34,-25.16 19.39,-33 -34.67,0 -237.79,29.28 -284.65,36.72 -4.75,0.65 -15.28,1.67 -15.28,6.17l0 -0.39z"/>
   <path class="fil0" d="M5158.67 1608.49c48.53,0 96.42,1.03 144.32,2.44 6.8,0.38 8.21,1.41 15.92,1.41 26.19,0.39 50.33,2.7 72.41,2.7 10.53,0 36.72,2.69 53.29,2.69 -1.42,-5.77 -7.19,-6.42 -15.67,-24.52 -17.72,-37.75 -2.05,-77.42 26.2,-104.64 5.77,-5.78 14.89,-9.89 19,-15.67 -11.56,0 -25.81,-1.41 -36.34,-2.44l-76.14 -4.1c-8.47,0 -10.53,-1.42 -18.74,-1.42 -6.17,-0.38 -13.87,0.39 -20.03,-0.38l-115.56 -3.73c-14.64,0 -24.14,-1.41 -38.77,-1.41 1.02,4.75 2.44,4.37 5.77,7.83 35.06,35.06 33.26,93.09 -1.41,128.02 -4.75,4.75 -11.94,8.47 -14.89,12.96l0.64 0.26z"/>
   <path class="fil0" d="M5091.77 291.66c17.34,0 34.29,-12.97 43.15,-22.47 14.89,-16.69 19.64,-30.94 19.64,-55.34 0,-28.88 -12.58,-70.61 -24.52,-96.16l-39.81 -83.59c-0.38,1.41 -38,79.86 -44.55,97.45 -2.05,5.78 -3.34,11.56 -5.78,18.36 -9.5,28.89 -17.97,73.45 -3.72,99.9 8.86,16.69 31.2,41.08 55.34,41.08l0.25 0.77z"/>
   <path class="fil0" d="M4315.24 590.7c0,34.28 4.36,63.17 29.91,82.55 12.59,9.89 34.03,14.26 50.33,4.37 7.84,-5.14 18.75,-23.75 18.75,-37.75 0,-27.48 -19.64,-57.13 -38.39,-76.78 -12.97,-13.22 -26.45,-29.27 -40.45,-41.47 -9.88,-8.48 -6.41,-8.48 -14.89,-13.23 0,28.51 -5.13,53.29 -5.13,81.92l-0.13 0.39z"/>
   <path class="fil0" d="M5763.67 630.76c0,17.71 3.72,36.97 17.98,46.22 23.49,15.92 55.72,-3.08 65.86,-18.75 25.81,-39.42 8.48,-110.03 8.48,-149.45 -4.75,3.34 -10.15,8.22 -14.25,12.58l-39.42 40.83c-13.61,15.67 -38.39,50.33 -38.39,68.57l-0.26 0z"/>
   <path class="fil0" d="M5091.77 1584.35c42.5,0 71.65,-36.33 55.73,-73.06 -7.19,-16.3 -30.17,-31.58 -47.51,-31.58 -13.61,0 -21.44,-0.64 -34.28,5.78 -17.97,8.86 -32.61,28.5 -30.56,48.53 3.08,31.2 29.28,50.33 57.14,50.33l-0.52 0z"/>
   <path class="fil0" d="M5471.96 1552c0,13.86 -1.03,16.3 5.77,29.27 3.34,5.78 6.17,8.86 11.17,12.97 39.04,31.58 99.51,1.41 99.51,-42.12 0,-56.1 -82.56,-65.61 -109.39,-20.67 -2.7,4.75 -7.19,13.87 -7.19,20.67l0.13 -0.12z"/>
   <path class="fil0" d="M4596.17 1546.99c0,21.44 4.11,29.27 19.64,44.55 11.17,10.92 28.25,15.67 44.55,15.67 29.92,0 58.04,-25.17 52.26,-56.37 -6.42,-35.69 -57.78,-66.25 -98.48,-35.69 -7.19,5.39 -17.97,20.03 -17.97,31.58l0 0.26z"/>
   <path class="fil0" d="M5056.72 5973.82l-7.44 55.72c1.66,9.51 -19.65,503.83 -13.23,532.98 -15.92,5.13 -77.81,3.72 -95.4,0.38 -3.08,-2.05 -6.16,-4.11 -10.91,-8.22 -9.89,-8.86 -4.11,0.39 -8.47,-10.91 -4.37,-23.5 12.19,-550.69 -14.26,-583.94 -11.55,-15.28 -23.11,-23.76 -38,-16.31 -32.61,16.95 -48.92,36.34 -67.92,63.17 -35.7,49.95 -66.26,107.98 -98.87,165.12 -38.39,67.28 -11.55,25.16 -55.34,78.19 -66.63,80.89 -127.37,147.14 -235.73,158.95 -125.32,13.61 -366.19,-2.69 -482,-37.74 -13.22,-172.18 164.09,-119.93 253.71,-176.93 8.47,8.21 11.56,21.7 20.42,29.91 43.78,39.42 161,34.67 207.87,13.61 15.28,-7.19 46.48,-36.72 55.34,-45.83 70.36,-71.65 114.53,-150.87 162.03,-241.9 77.17,-147.14 46.23,-113.5 152.54,-251.02 22.08,-28.5 170.25,-211.98 182.7,-218.14 70.37,32.61 116.59,108.75 132.51,205.82 26.45,163.06 -38.39,216.09 -40.06,287.09l0.51 0z"/>
   <path class="fil0" d="M3000.85 5816.54c175,-100.28 265.01,-134.82 508.83,-142.01 -161.65,-88.34 -437.19,50.59 -508.83,142.01zm31.2 -179.37l-37.75 30.17c77.17,-18.36 15.66,3.08 37.75,-30.17zm370.68 -17.08c-255.77,-48.92 -353.35,68.56 -355.02,69.98l-16.95 17.71c135.59,-48.27 204.15,-89.36 371.97,-87.69zm-370.68 17.08l150.09 -65.23c-49.94,3.34 -44.55,-3.08 -92.7,17.98l-57.39 47.25zm-360.41 -158.31c-59.06,22.08 -62.14,35.69 -91.42,81.91 34.03,-30.17 -2.05,-3.08 39.81,-27.48 66.63,-39.03 36.72,3.09 51.61,-54.31l0 -0.12zm0 0c147.14,-19.65 78.19,-124.29 600.64,-125.06 -92.7,-41.73 -243.57,-46.22 -353.35,-14.25 -63.17,18.36 -220.2,74.34 -247.29,139.31zm31.2 -154.34c137.9,-54.31 168.2,-56.75 334.99,-63.55 -128.78,-61.12 -251.4,-6.42 -334.99,63.55zm1085.85 -13.86c-76.79,42.11 16.69,86.66 -118.26,54.05 -34.02,-194 200.04,-178.73 180.01,-10.91 -17.33,143.03 -148.81,148.81 -295.56,163.7 50.58,25.81 111.7,42.76 164.47,66.9 169.48,77.8 336.66,227.9 538.75,162.03 102.97,-33.25 233.42,-138.92 174.62,-275.79 -49.95,-116.84 -307.12,-129.04 -296.6,44.17 28.51,13.86 157.93,7.19 89.75,104 -54.05,76.78 -128.78,24.14 -167.17,-25.17 -98.48,-210.31 441.94,-430.38 417.55,10.14 46.47,-34.28 114.14,-98.22 174.61,-112.09 101.56,-23.49 126.35,45.2 104.65,121.34 -64.84,19.39 -73.45,31.2 -113.51,-19.39 32.23,-71 7.19,-9.12 75.76,-47.51 -8.48,-8.47 30.94,-35.95 -57.4,-17.33 -27.47,5.78 -39.8,25.81 -56.75,42.76 -32.22,33.25 -53.02,59.06 -81.14,92.44 -51.62,61.5 -117.87,113.12 -196.32,151.51 -191.31,93.47 -402.91,44.17 -590.11,-17.72 78.84,394.43 -348.59,320.99 -227.64,84.61 176.03,-56.75 65.22,79.1 68.56,110.04l92.06 0.38c117.48,-345.51 -623.36,-490.85 -912.77,428.72 -14.89,-87.7 -14.89,-226.24 -69.59,-278.88 -76.78,-73.44 -156.64,26.19 -255.76,35.7 -32.23,-50.34 -13.87,-26.2 -14.25,-94.76 -17.98,-6.81 -70.36,10.53 -86.29,-72.03 -9.5,-49.56 -28.88,6.16 10.53,-54.31l-59.44 -25.81c-2.44,-1.03 -7.84,-3.34 -11.17,-5.78 95.78,-234.45 25.16,-124.67 42.11,-205.56 15.28,-73.7 8.86,43.53 7.19,-24.14 -1.03,-44.55 -6.42,-1.67 -10.14,-55.08 -3.73,-51.61 16.3,-79.86 5.13,-136.23 -35.31,-176.28 -373.37,-73.05 -272.84,80.89l36.34 -85.64c93.47,4.37 108.75,50.59 91.67,134.82 -300.32,145.34 -239.2,-402.91 146.37,-220.84 58.81,-152.92 123.01,-233.43 280.55,-286.07 142.65,-47.89 353.99,-50.59 506.52,-15.66 155.62,35.69 261.29,125.31 367.21,199.78 293.51,205.56 347.18,50.97 318.04,-1.03l0.26 -0.25z"/>
   <path class="fil0" d="M7162.67 5819.87c-175,-99.89 -265.01,-134.55 -508.83,-141.62 161.65,-88.33 437.19,50.59 508.83,141.62zm-31.2 -178.98l37.75 30.17c-77.17,-18.36 -15.66,3.09 -37.75,-30.17zm-371.06 -17.08c255.76,-48.91 353.34,68.57 355.01,69.98l16.95 17.72c-135.59,-48.28 -204.15,-89.75 -371.96,-87.7zm371.06 17.08l-150.09 -65.22c49.94,3.08 44.55,-3.09 92.7,17.97l57.39 47.25zm360.02 -158.7c59.07,22.09 62.15,35.7 91.68,81.92 -34.03,-30.56 2.05,-3.08 -39.8,-27.48 -66.64,-39.03 -36.98,3.08 -52,-54.31l0.12 -0.13zm0 0c-146.75,-19.64 -77.8,-124.28 -600.63,-124.67 92.7,-41.73 243.56,-46.22 353.34,-14.25 63.17,18.36 220.2,74.34 247.29,138.92zm-31.2 -154.2c-137.64,-54.31 -168.2,-56.75 -334.98,-63.17 128.78,-61.12 251.4,-6.42 334.98,63.17zm-1085.71 -13.61c76.78,42.11 -16.69,86.67 118.51,54.05 33.64,-194 -200.43,-178.72 -180.01,-10.52 17.33,143.03 148.81,148.81 295.56,163.7 -50.58,25.81 -111.7,42.5 -164.47,66.64 -169.48,77.81 -336.27,227.9 -538.75,162.42 -102.97,-33.26 -233.42,-138.93 -174.62,-276.18 49.95,-116.84 307.12,-129.04 296.6,44.55 -28.51,13.87 -157.93,6.81 -89.75,104 54.05,76.78 129.03,24.14 167.17,-25.16 98.48,-210.31 -441.94,-430.38 -417.55,10.14 -46.47,-34.28 -114.14,-98.22 -174.61,-112.09 -101.56,-23.49 -126.35,45.2 -104.65,121.34 64.84,19.38 73.45,31.2 113.51,-19.39 -32.23,-70.62 -7.19,-9.12 -75.76,-47.25 8.48,-8.86 -31.2,-35.95 57.4,-17.72 27.47,5.78 39.8,25.81 56.75,43.14 32.22,33.26 53.02,59.06 81.14,92.45 51.62,61.5 117.87,113.11 196.32,151.5 191.31,93.48 403.29,44.17 590.11,-17.97 -78.84,394.43 348.59,320.99 227.9,84.61 -176.03,-56.75 -65.23,78.84 -68.95,110.04l-92.06 0.38c-117.48,-345.51 623.36,-490.86 912.77,428.71 14.89,-87.69 14.89,-225.84 69.59,-278.61 76.78,-73.45 156.9,25.8 255.76,35.3 32.23,-49.94 13.87,-25.8 14.25,-94.75 17.98,-6.81 70.37,10.53 86.29,-72.03 9.5,-49.31 28.89,6.16 -10.53,-54.06l59.45 -25.8c2.43,-1.42 7.83,-3.34 11.17,-5.78 -95.79,-234.71 -25.17,-125.06 -42.12,-205.56 -15.66,-74.09 -8.86,43.52 -7.19,-24.53 1.03,-44.55 6.42,-1.67 10.15,-54.69 3.72,-51.62 -16.7,-79.87 -5.14,-136.62 35.31,-176.28 373.37,-72.67 272.46,80.89l-36.34 -85.64c-93.47,4.75 -108.75,50.59 -91.68,134.82 300.32,145.34 239.21,-402.91 -146.37,-220.84 -58.8,-152.92 -123,-233.43 -280.54,-286.07 -142.65,-47.51 -353.99,-50.59 -506.52,-15.66 -155.62,35.69 -261.29,125.31 -367.22,199.78 -293.51,205.56 -347.18,50.59 -318.03,-1.03l0 -0.51z"/>
   <path class="fil0" d="M5180.5 5973.82l7.44 55.72c-1.67,9.51 19.65,503.83 12.97,532.98 15.92,5.13 77.81,3.72 95.4,0.38 3.08,-2.05 6.16,-4.11 10.91,-8.22 9.89,-8.86 4.11,0.39 8.48,-10.91 4.36,-23.5 -12.2,-550.69 14.25,-583.94 11.94,-15.28 23.11,-23.76 38,-16.31 33,16.95 48.92,36.34 67.93,63.17 35.69,49.95 66.25,107.98 98.86,165.12 38.78,67.28 11.56,25.16 55.34,78.19 66.25,80.89 127.37,147.14 235.73,158.95 125.32,13.61 366.19,-2.69 482,-37.74 13.23,-172.18 -164.09,-119.93 -253.71,-176.93 -8.47,8.21 -11.55,21.7 -20.41,29.91 -43.79,39.42 -161.01,34.67 -207.88,13.61 -15.28,-7.19 -46.48,-36.72 -55.72,-45.83 -70.36,-71.65 -114.53,-150.87 -162.04,-241.9 -77.16,-147.14 -46.22,-113.5 -152.14,-251.02 -22.09,-28.5 -170.51,-211.98 -183.1,-218.14 -70.36,32.61 -116.2,108.75 -132.12,205.82 -26.83,163.06 38.39,216.09 39.81,287.09z"/>
   <path class="fil0" d="M3770.58 2439.72c548.25,912.13 -70.62,1319.79 -15.92,1882.03 30.56,317.65 238.43,604.36 473.91,693.08 115.81,43.53 354.37,68.57 489.57,92.06 209.54,36.72 266.68,86.93 403.55,180.78 110.42,-61.11 115.56,-128.78 403.93,-181.03 450.42,-82.18 566.62,-27.48 804.15,-360.41 363.49,-508.83 -8.22,-989.29 -71.39,-1383.98 -26.84,-168.84 -16.31,-372.35 30.56,-529.25 83.58,-279.64 150.86,-318.68 181.81,-410.09l-368.88 -400.47c-50.59,22.47 -86.67,71.64 -209.55,120.31 -88.98,35.3 -181.04,48.91 -286.7,46.22 -224.95,-6.42 -326.77,-85.64 -484.83,-183.74 -148.81,88.72 -251.01,178.73 -484.44,183.48 -109.39,2.44 -190.53,-8.86 -287.73,-45.19 -101.56,-38.01 -144.06,-90.39 -211.34,-120.95 -34.67,32.61 -59.06,68.56 -92.45,106.31 -72.03,81.92 -233.03,228.67 -275.15,311.23l0.9 -0.39zm278.24 3.47l64.19 0c14.26,45.2 38.78,77.42 72.03,96.43 43.79,25.8 114.79,38 213.4,38 62.78,0 262.31,-6.16 597.94,-19 203.12,-7.83 329.46,-12.2 379.41,-12.2 150.86,0 279.64,26.19 385.95,77.81 106.32,51.61 192.34,131.48 258.85,238.82 66.25,107.34 110.42,255.12 132.12,443.35 15.28,131.86 28.5,422.55 39.03,872.06 -177.31,111.71 -313.93,208.65 -409.32,290.82 -288.77,-80.12 -543.89,-119.92 -764.73,-119.92 -150.09,0 -289.4,17.97 -417.16,54.05 -128.78,35.95 -264.62,93.09 -408.04,172.18l-40.44 -51.61c187.58,-96.17 351.54,-195.04 493.29,-296.21 141.75,-101.18 234.71,-191.31 279.91,-271.43 45.19,-79.87 67.92,-180.78 67.92,-303.66 0,-44.81 -1.03,-110.8 -2.7,-198.11 -2.05,-60.86 -3.08,-124.29 -3.08,-189.9 0,-115.56 6.42,-200.81 19.39,-255.12 12.96,-55.09 39.8,-117.49 81.53,-188.49l-34.93 -0.13c-110.42,63.82 -184.12,121.59 -220.19,173.59 -36.98,52.65 -55.09,119.28 -55.09,200.04l11.17 484.06c0,129.42 -38.39,244.98 -116.19,347.56 -77.43,102.59 -263.6,249.73 -558.53,442.33l-40.44 -54.31c149.2,-102.98 247.29,-187.85 294.92,-254.1 47.64,-66.25 71.39,-135.58 71.39,-207.87 0,-62.79 -20.03,-115.81 -60.47,-159.73 -40.06,-44.16 -84.87,-66.25 -133.15,-66.25 -24.78,0 -47.89,7.19 -68.95,20.42 -20.67,13.86 -49.3,42.5 -85.25,85.89l-43.14 -43.52c31.2,-78.45 73.05,-136.23 124.67,-172.95 51.61,-36.72 114.53,-55.08 187.59,-55.08 20.67,0 44.16,2.44 69.97,7.19 25.17,4.36 52.64,11.17 81.92,20.67 -1.67,-53.03 -2.7,-99.25 -2.7,-138.28 0,-143.04 28.89,-259.49 86.28,-349.63 57.4,-90.13 167.82,-183.47 330.24,-281.31 -150.48,15.28 -280.55,23.11 -390.33,23.11 -115.81,0 -215.06,-16.31 -297.87,-48.92 -62.53,-25.81 -107.98,-66.25 -136.87,-121.59 -28.89,-55.34 -46.48,-132.12 -52,-229.32l-1.54 0.26zm1106.77 377.36c-39.03,66.63 -65.23,124.28 -78.45,173.2 -18.36,67.67 -27.48,130.45 -27.48,188.87l11.17 538.5c0,68.94 -17.33,139.56 -51.36,211.59 -26.19,54.06 -75.37,119.28 -147.4,196.32 131.87,-21.7 232.66,-32.23 302.63,-31.2l77.43 1.41 0 -1278.69 -86.54 0zm156.26 525.14c55.33,39.8 104,66.63 145.34,81.53 41.34,14.89 86.28,22.08 134.17,22.08 48.54,0 93.09,-7.45 135.2,-22.72 42.12,-15.28 90.65,-42.12 147.15,-80.89 -16.95,-205.57 -69.98,-344.1 -158.32,-416.52 -87.95,-72.67 -222.51,-109.01 -403.29,-109.01l0 525.14 -0.25 0.39zm0 450.15c61.5,-35.31 114.14,-59.45 157.67,-72.67 43.52,-13.22 90.64,-19.64 142.64,-19.64 49.95,0 95.79,6.16 138.93,17.97 42.5,12.2 93.47,35.05 153.17,68.56l-21.69 -368.88c-57.78,35.31 -107.99,59.84 -150.48,72.68 -41.73,12.96 -87.96,19.38 -138.29,19.38 -47.89,0 -95.4,-7.83 -143.03,-23.11 -47.25,-15.28 -93.09,-38.39 -138.67,-68.95l0 374.41 -0.25 0.25zm0 307.51c110.42,8.86 200.04,20.03 269.76,33 69.71,12.97 177.95,40.06 325.74,81.53 1.66,-137.26 2.69,-208.26 2.69,-213.01 0,-10.53 -1.03,-54.31 -2.69,-130.83 -57.78,-40.06 -109.01,-67.67 -152.92,-82.95 -44.17,-15.28 -91.68,-23.11 -143.42,-23.11 -52.64,0 -101.18,7.83 -146.37,23.11 -44.81,15.28 -95.4,42.76 -152.92,82.95l0 229.31 0.13 0z"/>
  </g>
 </g>
</svg>
