<!DOCTYPE svg PUBLIC "-//W3C//DTD SVG 1.1//EN" "http://www.w3.org/Graphics/SVG/1.1/DTD/svg11.dtd">
<svg xmlns="http://www.w3.org/2000/svg" viewBox="0 0 488 768">
<path d="M71.324 171.638c-9.283 3.289-18.292 14.919-18.314 23.643-.006 2.138-.553 3.956-1.26 4.182-.687.22-3.87 1.128-7.072 2.017-19.68 5.468-26.722 30.872-12.915 46.597 7.779 8.861 23.75 11.726 34.309 6.156l5.573-2.939 3.427 3.021C88.668 266.298 121 297.482 121 298.611c0 1.15-4.485 1.389-26.066 1.389-17.689 0-26.754.369-28.208 1.147-7.593 4.063-8.677 14.789-2.118 20.956 2.531 2.38 2.747 2.401 29.679 2.897l27.13.5 1.166 7.5c3.784 24.347 17.272 48.775 38.719 70.125l10.802 10.753-6.802 6.42C141.152 443.091 110.585 471 109.772 471c-.53 0-2.158-.838-3.618-1.861-18.969-13.301-46.022 3.326-43.878 26.968C63.461 509.172 76.223 522 88.038 522c1.508 0 1.962.686 1.962 2.962 0 8.507 6.652 18.898 15.008 23.446 23.943 13.031 50.992-12.069 39.667-36.807l-2.451-5.353 10.981-10.124c6.039-5.568 11.286-10.124 11.659-10.124.374 0 1.22 2.848 1.88 6.329 6.39 33.68 32.812 54.565 71.314 56.368 44.822 2.099 77.101-20.164 83.414-57.532.387-2.291 1.002-4.153 1.366-4.138.364.015 5.288 4.402 10.943 9.75l10.28 9.723-2.651 6.451c-4.632 11.268-1.903 23.757 6.935 31.741 17.72 16.01 44.727 5.937 48.105-17.942.576-4.068.997-4.75 2.933-4.75 13.065 0 25.203-13.817 25.039-28.5-.253-22.584-25.037-36.133-43.716-23.899l-3.794 2.485-7.323-6.793c-26.734-24.8-53.126-49.931-53.333-50.785-.134-.554 1.599-2.358 3.851-4.008 22.415-16.421 42.815-50.286 48.041-79.75l1.198-6.75h26.377c28.997 0 30.843-.326 33.76-5.967 2.518-4.869 1.965-10.499-1.4-14.267l-2.916-3.266-28.146-.295-28.145-.295.312-2.239c.262-1.881 16.127-17.262 44.098-42.754l2.787-2.54 6.088 3.017c14.595 7.235 31.323 1.501 38.549-13.212 8.215-16.729-2.32-37.205-20.877-40.575-3.385-.615-3.72-.992-4.357-4.887-3.998-24.468-31.872-34.184-48.903-17.045-8.3 8.353-10.639 21.562-5.635 31.825 1.341 2.75 2.466 5.272 2.5 5.604.091.889-31.097 29.896-32.144 29.896-.49 0-3.926-3.817-7.635-8.483-41.623-52.351-118.307-63.645-172.659-25.428-8.818 6.2-22.163 19.474-28.127 27.977-2.321 3.308-4.767 5.884-5.437 5.724-1.35-.322-31.738-28.483-32.272-29.908-.184-.493.716-3.031 2-5.639 3.245-6.588 3.302-18.858.116-24.859-7.214-13.593-22.045-19.675-35.956-14.746m3.464 5.5c-9.68 2.718-16.381 12.982-15.593 23.885l.441 6.091-3.781-.639C43.323 204.358 31 215.35 31 228.644c0 19.648 22.274 29.591 37.109 16.565l3.463-3.04 24.409 22.915c13.425 12.604 24.659 22.913 24.964 22.908.305-.004 1.587-3.716 2.848-8.25 1.261-4.533 3.877-11.842 5.814-16.242l4.023-9.144c.276-.628-8.285-9.397-19.024-19.486l-19.527-18.343 2.347-2.514c15.539-16.646-.667-43.043-22.638-36.875m326.57.816c-15.683 3.74-22.082 24.179-11.384 36.363l2.92 3.326-11.697 10.847a4195.509 4195.509 0 0 0-19.056 17.779l-7.358 6.932 5.045 10.649c2.774 5.858 5.8 13.674 6.723 17.371l1.677 6.72 18.034-16.72c33.452-31.018 30.216-28.583 33.333-25.08 3.05 3.428 9.373 5.815 15.405 5.815 29.524 0 29.267-43.347-.263-44.266l-6.108-.19.251-6.125c.646-15.744-12.566-26.987-27.522-23.421M227.5 197.685c-25.737 3.302-48.473 15.064-67.29 34.809-9.028 9.474-20.21 25.632-20.21 29.204 0 1.103 18.062 1.32 104.5 1.258 98.107-.071 104.5-.181 104.5-1.795 0-6.116-21.749-32.339-34.913-42.095-23.171-17.172-56.074-25.297-86.587-21.381m-52.015 38.006c-8.919 10.434-12.104 15.858-10.469 17.828 2.233 2.691 4.579 1.587 8.017-3.769 1.853-2.887 6.018-8.029 9.256-11.426 6.383-6.698 7.109-9.602 2.532-10.133-2.241-.26-3.716.925-9.336 7.5m132.182-3.024c-1.398 1.397-.545 3.657 2.893 7.674 3.135 3.662 8.173 12.86 9.81 17.909.697 2.151 5.185 2.352 5.985.268 2.567-6.689-14.392-30.148-18.688-25.851m-114.614 7.083c-4.439 5.384-9.522 15.586-8.757 17.579 1.073 2.797 4.627 1.985 6.501-1.485.936-1.736 3.635-6.044 5.997-9.574 6.328-9.458 3.191-14.926-3.741-6.52m96.951 1.745c-1.302 1.569-1.272 1.741 1.878 10.505 2.28 6.347 4.154 8.045 6.62 5.998 2.037-1.69 1.509-5.111-1.959-12.685-2.478-5.414-4.321-6.49-6.539-3.818m-82.418 4.255c-3.736 5.738-3.814 9.25-.204 9.25 3.248 0 8.957-8.499 7.516-11.191-1.582-2.956-4.654-2.14-7.312 1.941M70 307c-2.426 2.426-2.663 8.194-.429 10.429C70.988 318.845 88.419 319 246.515 319h175.372l1.556-2.223c2.122-3.029 1.954-6.002-.516-9.142L420.855 305H246.427c-173.094 0-174.442.015-176.427 2m58.581 21.75c4.519 20.063 10.351 34.503 19.942 49.372 25.464 39.479 77.321 56.68 130.477 43.28 41.418-10.44 71.424-44.173 82.415-92.652l.623-2.75H127.962l.619 2.75m61.919 4.122c-24.116 6.303-31.424 34.135-13.926 53.035 18.806 20.313 51.539 7.98 53.214-20.05 1.191-19.928-20.279-37.954-39.288-32.985m90.59 1.707c-13.949 5.074-22.151 17.781-20.836 32.282 3.01 33.193 49.128 39.928 60.608 8.851 6-16.242-.747-33.322-15.811-40.026-6.113-2.72-18.012-3.27-23.961-1.107m-41.702 61.401c-5.451 2.203-7.876 8.972-4.638 12.947 6.228 7.645 22.324 4.217 22.218-4.733-.078-6.62-10.024-11.267-17.58-8.214m-59.354 29.302c-4.807 10.56-4.775 11.034.972 14.722 4.976 3.193 19.566 9.961 21.524 9.984.92.011 5.082-20.784 4.292-21.447-.177-.149-2.797-1.068-5.822-2.041-3.025-.973-8.343-3.044-11.818-4.603l-6.317-2.833-2.831 6.218m116.466-2.148c-3.85 1.541-9.598 3.554-12.773 4.473-4.432 1.282-5.663 2.044-5.295 3.281.264.887 1.207 5.882 2.096 11.101.889 5.219 1.751 9.623 1.914 9.787 1.086 1.085 27.418-10.249 28.132-12.109.522-1.36-5.232-18.394-6.418-19.001-.361-.184-3.806.926-7.656 2.468m18.619 5.87c3.868 10.929 6.757 25.664 7.539 38.441l.647 10.578 14.833 14.075 14.832 14.074-2.569 3.369c-3.531 4.63-5.63 12.015-4.818 16.959 4.658 28.374 45.752 24.602 44.245-4.061l-.328-6.25 7.09-.356c26.411-1.325 29.627-37.978 3.853-43.921-6.982-1.61-14.632.611-19.758 5.736-3.638 3.639-3.739 3.671-5.506 1.779-3.287-3.518-61.365-57.922-62.15-58.217-.424-.16.517 3.348 2.09 7.794M151.5 441.672a16833.816 16833.816 0 0 1-31.284 29.111l-10.284 9.526-2.716-2.544c-10.101-9.463-24.773-8.942-33.443 1.187-12.558 14.672-1.959 36.708 17.529 36.443l5.903-.08-.614 3.842c-1.448 9.054 3.286 19.269 10.909 23.541 20.632 11.563 42.227-11.531 29.671-31.731-1.744-2.805-3.171-5.208-3.171-5.34 0-.131 6.69-6.418 14.866-13.97l14.866-13.731.674-10.713c.925-14.687 3.298-28.231 6.565-37.463 1.508-4.262 2.469-7.73 2.136-7.706-.334.023-10.057 8.856-21.607 19.628m60.998-8.015a352.072 352.072 0 0 1-1.563 8.642c-1.966 10.09-1.918 10.175 6.815 12.104 4.262.942 11.477 1.979 16.033 2.306l8.283.593-.283-11.901-.283-11.901-4-.249c-4.814-.3-19.132-2.179-22.187-2.912-1.893-.454-2.272-.006-2.815 3.318m53.998-2.077c-.552.232-5.052.759-10 1.171l-8.996.749-.282 11.75-.281 11.75h5.4c4.927 0 22.589-2.593 23.437-3.44.196-.197-.41-5.353-1.347-11.459-1.787-11.639-2.626-12.752-7.931-10.521m-92.519 13.979c-.563 1.482-1.278 5.9-1.588 9.818l-.565 7.123 5.838 3.674c6.935 4.365 19.396 10.814 20.908 10.821.9.004 3.43-14.219 3.43-19.281 0-.919-1.54-2.058-3.75-2.775-4.628-1.5-16.788-7.51-20.499-10.132l-2.749-1.942-1.025 2.694M305 449.676c-4.125 1.836-10.538 4.279-14.251 5.429-3.714 1.15-6.958 2.424-7.209 2.831-.935 1.512 2.707 21.064 3.923 21.064 2.108 0 25.159-11.924 27.014-13.975 1.625-1.795 1.67-2.654.525-10.012-.689-4.427-1.533-8.19-1.877-8.362-.344-.172-4 1.189-8.125 3.025m-97.994 18.782c-.689 5.202-1.009 10.092-.711 10.868.966 2.517 31.869 8.68 34.955 6.971.412-.228.75-5.499.75-11.713v-11.297l-9.25-.689c-5.088-.379-12.09-1.344-15.562-2.144-9.329-2.149-8.782-2.579-10.182 8.004m64.382-8.319c-2.261.508-8.561 1.478-14 2.155l-9.888 1.231V486.5l6-.325c7.149-.387 24.441-3.716 25.667-4.942 1.259-1.259-1.597-22.349-2.996-22.126-.369.059-2.521.523-4.783 1.032M171.292 479.1c2.75 42.801 30.373 65.365 77.899 63.635 30.691-1.118 49.423-11.814 60.443-34.515 3.751-7.726 7.331-22.562 7.353-30.47.015-5.611.347-5.515-6.252-1.813-41.785 23.444-93.802 22.087-135.641-3.538l-4.406-2.698.604 9.399" fill-rule="evenodd"/>
</svg>