<?xml version="1.0" encoding="UTF-8"?>
<!DOCTYPE svg PUBLIC "-//W3C//DTD SVG 1.1//EN" "http://www.w3.org/Graphics/SVG/1.1/DTD/svg11.dtd">
<!-- Creator: CorelDRAW 2017 -->
<svg xmlns="http://www.w3.org/2000/svg" xml:space="preserve" width="46.9052mm" height="46.9052mm" version="1.1" style="shape-rendering:geometricPrecision; text-rendering:geometricPrecision; image-rendering:optimizeQuality; fill-rule:evenodd; clip-rule:evenodd"
viewBox="0 0 4690.52 4690.52"
 xmlns:xlink="http://www.w3.org/1999/xlink">
 <defs>
  <style type="text/css">
   <![CDATA[
    .str0 {stroke:#FEFEFE;stroke-width:20;stroke-miterlimit:22.9256}
    .str2 {stroke:#DC493F;stroke-width:20;stroke-miterlimit:22.9256}
    .str1 {stroke:#F05577;stroke-width:20;stroke-miterlimit:22.9256}
    .str3 {stroke:#FEFEFE;stroke-width:7.62;stroke-miterlimit:22.9256}
    .fil0 {fill:#FEFEFE}
    .fil1 {fill:#FEFEFE}
    .fil2 {fill:#F05577}
    .fil5 {fill:#F05577}
    .fil3 {fill:#FEFEFE;fill-rule:nonzero}
    .fil4 {fill:#F05577;fill-rule:nonzero}
   ]]>
  </style>
 </defs>
 <g id="Capa_x0020_1">
  <metadata id="CorelCorpID_0Corel-Layer"/>
  <rect class="fil0 str0" x="-0" y="-0" width="4690.53" height="4690.53"/>
  <path class="fil1 str1" d="M4253.75 964l-3816.99 0c-82.72,0 -150.39,67.67 -150.39,150.39l0 2461.74c0,82.72 67.67,150.39 150.39,150.39l3816.99 0c82.72,0 150.39,-67.67 150.39,-150.39l0 -2461.74c0,-82.72 -67.67,-150.39 -150.39,-150.39z"/>
  <path class="fil2 str2" d="M4279.46 964l-3868.41 0c-68.58,0 -124.68,56.1 -124.68,124.68l0 907.04 4117.77 0 0 -907.04c0,-68.58 -56.1,-124.68 -124.68,-124.68z"/>
  <path class="fil3 str3" d="M1703.8 1754.38l-142.66 0 0 -257.2 -261.56 0 0 257.2 -142.35 0 0 -631.51 142.35 0 0 251.94 261.56 0 0 -251.94 142.66 0 0 631.51zm479.46 0l-378.81 0 0 -631.51 364.23 0 0 115.75 -221.88 0 0 140.55 206.55 0 0 115.3 -206.55 0 0 144.46 236.46 0 0 115.45zm433.45 0l-376.1 0 0 -631.51 142.35 0 0 516.06 233.75 0 0 115.45zm417.22 0l-376.1 0 0 -631.51 142.35 0 0 516.06 233.75 0 0 115.45zm277.28 10.97c-90.5,0 -164.15,-29.46 -221.13,-88.24 -56.97,-58.92 -85.38,-135.59 -85.38,-230.14 0,-99.82 28.86,-180.54 86.74,-242.17 57.87,-61.63 134.39,-92.6 229.84,-92.6 90.2,0 163.1,29.61 218.72,88.54 55.62,59.08 83.43,136.94 83.43,233.45 0,99.21 -28.86,179.34 -86.59,240.07 -57.57,60.73 -132.88,91.09 -225.63,91.09zm6.16 -530.64c-49.9,0 -89.59,18.64 -118.9,56.22 -29.32,37.43 -44.05,86.89 -44.05,148.52 0,62.54 14.73,111.99 44.05,148.52 29.31,36.38 67.79,54.57 115.29,54.57 49.16,0 87.94,-17.74 116.81,-53.06 28.71,-35.48 43.14,-84.49 43.14,-147.32 0,-65.54 -13.98,-116.5 -41.79,-152.88 -27.96,-36.38 -66.14,-54.57 -114.55,-54.57z"/>
  <path class="fil4 str3" d="M1359.77 2375.32l-53.99 0 0 -100.09c0,-25.51 -9.36,-38.2 -28.08,-38.2 -8.89,0 -16.15,3.8 -21.76,11.47 -5.62,7.66 -8.43,17.19 -8.43,28.6l0 98.22 -54.11 0 0 -101.14c0,-24.75 -9.24,-37.15 -27.61,-37.15 -9.24,0 -16.67,3.63 -22.17,10.94 -5.56,7.31 -8.36,17.26 -8.36,29.83l0 97.52 -54.12 0 0 -175.49 54.12 0 0 27.43 0.7 0c5.61,-9.36 13.45,-17.02 23.57,-22.87 10.12,-5.91 21.18,-8.84 33.17,-8.84 24.8,0 41.77,10.89 50.89,32.71 13.4,-21.82 33,-32.71 58.97,-32.71 38.14,0 57.21,23.52 57.21,70.61l0 109.16zm192.91 -175.49l-71.31 189.53c-17.14,45.57 -42.94,68.38 -77.46,68.38 -13.1,0 -23.92,-1.46 -32.4,-4.44l0 -43.17c7.25,4.21 15.03,6.31 23.51,6.31 13.93,0 23.64,-6.55 29.13,-19.71l9.25 -21.76 -71.31 -175.14 60.02 0 32.7 106.75c2.05,6.61 3.68,14.45 4.79,23.52l0.71 0c1.05,-6.67 2.92,-14.39 5.67,-23.16l33.05 -107.11 53.65 0zm273.27 175.49l-54.17 0 0 -24.16 -0.65 0c-12.34,18.95 -30.47,28.43 -54.34,28.43 -21.94,0 -39.6,-7.72 -52.94,-23.22 -13.4,-15.45 -20.07,-37.09 -20.07,-64.88 0,-29.01 7.37,-52.24 22.12,-69.73 14.74,-17.49 34.04,-26.21 57.91,-26.21 22.64,0 38.37,8.08 47.32,24.34l0.65 0 0 -104.36 54.17 0 0 259.79zm-53.12 -85.35l0 -13.22c0,-11.41 -3.33,-20.88 -9.94,-28.43 -6.61,-7.55 -15.27,-11.29 -25.86,-11.29 -11.99,0 -21.41,4.68 -28.14,14.1 -6.73,9.47 -10.12,22.4 -10.12,38.84 0,15.44 3.28,27.32 9.77,35.63 6.55,8.36 15.56,12.52 27.09,12.52 10.99,0 19.94,-4.39 26.85,-13.17 6.9,-8.83 10.35,-20.47 10.35,-34.98zm196.18 -41.3c-6.56,-3.57 -14.16,-5.32 -22.82,-5.32 -11.76,0 -20.94,4.33 -27.61,12.93 -6.61,8.65 -9.94,20.35 -9.94,35.21l0 83.83 -54.12 0 0 -175.49 54.12 0 0 32.58 0.7 0c8.6,-23.81 23.98,-35.69 46.27,-35.69 5.73,0 10.18,0.71 13.4,2.05l0 49.9zm154.17 126.65l-51.25 0 0 -25.21 -0.7 0c-11.76,19.65 -29.19,29.48 -52.3,29.48 -17.02,0 -30.42,-4.8 -40.19,-14.45 -9.77,-9.65 -14.62,-22.58 -14.62,-38.67 0,-34.04 20.18,-53.7 60.49,-58.96l47.67 -6.32c0,-19.19 -10.41,-28.78 -31.24,-28.78 -20.88,0 -40.77,6.2 -59.61,18.66l0 -40.77c7.55,-3.92 17.85,-7.32 30.95,-10.3 13.05,-2.98 24.98,-4.45 35.74,-4.45 50.02,0 75.06,24.98 75.06,74.88l0 104.89zm-50.9 -71.31l0 -11.82 -31.88 4.1c-17.61,2.28 -26.38,10.24 -26.38,23.87 0,6.14 2.1,11.23 6.37,15.15 4.33,3.92 10.12,5.91 17.44,5.91 10.18,0 18.42,-3.51 24.86,-10.53 6.38,-7.02 9.59,-15.92 9.59,-26.68zm248.77 51.25c0,32.58 -9.42,57.79 -28.26,75.69 -18.89,17.84 -46.15,26.79 -81.95,26.79 -23.64,0 -42.36,-3.33 -56.22,-10.12l0 -45.57c18.08,10.53 36.27,15.8 54.7,15.8 18.25,0 32.46,-4.86 42.47,-14.51 10.06,-9.65 15.09,-22.76 15.09,-39.31l0 -13.92 -0.64 0c-12.35,19.65 -30.6,29.48 -54.7,29.48 -22.41,0 -40.13,-7.9 -53.29,-23.63 -13.17,-15.8 -19.72,-36.92 -19.72,-63.42 0,-29.71 7.32,-53.29 21.94,-70.78 14.62,-17.49 33.87,-26.21 57.74,-26.21 21.35,0 37.38,8.19 48.03,24.69l0.64 0 0 -20.41 54.17 0 0 155.43zm-53.47 -64.24l0 -13.92c0,-11.05 -3.28,-20.53 -9.83,-28.37 -6.61,-7.78 -15.15,-11.7 -25.62,-11.7 -12.05,0 -21.47,4.68 -28.31,14.04 -6.85,9.36 -10.3,22.58 -10.3,39.6 0,14.63 3.28,26.15 9.77,34.69 6.55,8.54 15.44,12.76 26.73,12.76 11.24,0 20.3,-4.28 27.21,-12.93 6.9,-8.6 10.35,-20.01 10.35,-34.17zm347.97 84.3l-53.99 0 0 -97.52c0,-27.2 -9.71,-40.77 -29.13,-40.77 -9.36,0 -17.08,3.57 -23.11,10.76 -6.08,7.2 -9.12,16.38 -9.12,27.44l0 100.09 -54.12 0 0 -175.49 54.12 0 0 27.78 0.7 0c12.93,-21.41 31.7,-32.06 56.39,-32.06 38.84,0 58.26,24.11 58.26,72.31l0 107.46zm171.85 0l-51.25 0 0 -25.21 -0.7 0c-11.76,19.65 -29.19,29.48 -52.3,29.48 -17.02,0 -30.42,-4.8 -40.19,-14.45 -9.77,-9.65 -14.62,-22.58 -14.62,-38.67 0,-34.04 20.18,-53.7 60.49,-58.96l47.67 -6.32c0,-19.19 -10.41,-28.78 -31.24,-28.78 -20.88,0 -40.77,6.2 -59.61,18.66l0 -40.77c7.55,-3.92 17.85,-7.32 30.95,-10.3 13.05,-2.98 24.98,-4.45 35.74,-4.45 50.02,0 75.06,24.98 75.06,74.88l0 104.89zm-50.9 -71.31l0 -11.82 -31.88 4.1c-17.61,2.28 -26.38,10.24 -26.38,23.87 0,6.14 2.1,11.23 6.37,15.15 4.33,3.92 10.12,5.91 17.44,5.91 10.18,0 18.42,-3.51 24.86,-10.53 6.38,-7.02 9.59,-15.92 9.59,-26.68zm355.35 71.31l-53.99 0 0 -100.09c0,-25.51 -9.36,-38.2 -28.08,-38.2 -8.89,0 -16.15,3.8 -21.76,11.47 -5.62,7.66 -8.43,17.19 -8.43,28.6l0 98.22 -54.11 0 0 -101.14c0,-24.75 -9.24,-37.15 -27.61,-37.15 -9.24,0 -16.67,3.63 -22.17,10.94 -5.56,7.31 -8.36,17.26 -8.36,29.83l0 97.52 -54.12 0 0 -175.49 54.12 0 0 27.43 0.7 0c5.61,-9.36 13.45,-17.02 23.57,-22.87 10.12,-5.91 21.18,-8.84 33.17,-8.84 24.8,0 41.77,10.89 50.89,32.71 13.4,-21.82 33,-32.71 58.97,-32.71 38.14,0 57.21,23.52 57.21,70.61l0 109.16zm183.49 -72.3l-114.48 0c1.81,25.44 17.9,38.2 48.14,38.2 19.3,0 36.27,-4.57 50.89,-13.69l0 39.07c-16.2,8.66 -37.26,12.99 -63.23,12.99 -28.32,0 -50.31,-7.84 -65.99,-23.57 -15.62,-15.68 -23.46,-37.62 -23.46,-65.7 0,-29.13 8.43,-52.24 25.39,-69.26 16.91,-17.02 37.67,-25.51 62.36,-25.51 25.56,0 45.4,7.61 59.38,22.76 13.98,15.21 21,35.86 21,61.89l0 22.82zm-50.19 -33.29c0,-25.1 -10.18,-37.67 -30.54,-37.67 -8.66,0 -16.2,3.57 -22.52,10.76 -6.38,7.2 -10.18,16.21 -11.58,26.91l64.64 0zm189.56 -97.69c-9.12,0 -16.61,-2.69 -22.4,-8.13 -5.85,-5.44 -8.78,-12.05 -8.78,-19.95 0,-8.13 2.93,-14.74 8.78,-19.89 5.79,-5.15 13.28,-7.72 22.4,-7.72 9.3,0 16.79,2.57 22.58,7.72 5.73,5.15 8.66,11.76 8.66,19.89 0,8.19 -2.93,14.97 -8.66,20.24 -5.79,5.21 -13.28,7.84 -22.58,7.84zm26.74 203.28l-54.12 0 0 -175.49 54.12 0 0 175.49zm17.05 -4.62l0 -43.88c8.95,5.39 17.84,9.36 26.68,12 8.83,2.63 17.19,3.92 25.09,3.92 9.59,0 17.2,-1.29 22.7,-3.92 5.56,-2.64 8.31,-6.61 8.31,-12 0,-3.45 -1.23,-6.31 -3.75,-8.59 -2.51,-2.29 -5.73,-4.27 -9.71,-5.97 -3.92,-1.7 -8.25,-3.28 -12.93,-4.62 -4.68,-1.41 -9.18,-2.93 -13.51,-4.62 -6.96,-2.64 -13.1,-5.5 -18.43,-8.49 -5.32,-3.04 -9.77,-6.55 -13.39,-10.58 -3.57,-3.98 -6.32,-8.6 -8.19,-13.87 -1.88,-5.26 -2.87,-11.46 -2.87,-18.66 0,-9.83 2.16,-18.31 6.43,-25.39 4.28,-7.08 10.01,-12.87 17.15,-17.37 7.13,-4.51 15.32,-7.84 24.51,-9.95 9.18,-2.1 18.77,-3.16 28.72,-3.16 7.78,0 15.62,0.59 23.63,1.82 8.02,1.17 15.91,2.92 23.69,5.2l0 41.83c-6.9,-4.04 -14.21,-7.02 -22.05,-9.01 -7.84,-1.99 -15.5,-2.98 -23.05,-2.98 -3.57,0 -6.9,0.29 -10,0.93 -3.16,0.59 -5.97,1.53 -8.37,2.75 -2.4,1.17 -4.27,2.69 -5.61,4.63 -1.41,1.87 -2.05,4.03 -2.05,6.43 0,3.16 0.99,5.91 3.04,8.19 2.11,2.28 4.74,4.27 8.07,5.91 3.34,1.69 7.02,3.16 11.06,4.44 4.04,1.35 8.07,2.7 12.11,4.04 7.19,2.52 13.69,5.27 19.54,8.25 5.79,2.98 10.82,6.43 14.97,10.47 4.16,3.98 7.37,8.66 9.6,14.04 2.22,5.38 3.33,11.76 3.33,19.19 0,10.41 -2.22,19.3 -6.78,26.67 -4.51,7.37 -10.48,13.34 -17.96,17.96 -7.49,4.62 -16.15,8.02 -25.92,10.12 -9.77,2.11 -19.89,3.16 -30.42,3.16 -19.3,0 -37.14,-2.98 -53.64,-8.89z"/>
  <path class="fil4 str3" d="M1497.19 3600.96c0,23.47 -6.78,41.62 -20.35,54.52 -13.61,12.85 -33.24,19.29 -59.03,19.29 -17.02,0 -30.5,-2.4 -40.48,-7.29l0 -32.82c13.01,7.59 26.12,11.38 39.39,11.38 13.14,0 23.38,-3.5 30.59,-10.45 7.24,-6.95 10.87,-16.39 10.87,-28.31l0 -10.03 -0.47 0c-8.89,14.16 -22.03,21.24 -39.39,21.24 -16.14,0 -28.9,-5.69 -38.38,-17.03 -9.48,-11.37 -14.2,-26.58 -14.2,-45.67 0,-21.4 5.27,-38.38 15.8,-50.98 10.53,-12.59 24.39,-18.87 41.58,-18.87 15.38,0 26.93,5.9 34.59,17.78l0.47 0 0 -14.7 39.01 0 0 111.94zm-38.51 -46.26l0 -10.03c0,-7.96 -2.36,-14.79 -7.08,-20.43 -4.76,-5.61 -10.91,-8.43 -18.45,-8.43 -8.68,0 -15.46,3.37 -20.39,10.11 -4.93,6.74 -7.42,16.27 -7.42,28.53 0,10.53 2.36,18.83 7.04,24.98 4.72,6.15 11.12,9.18 19.25,9.18 8.09,0 14.62,-3.07 19.59,-9.31 4.98,-6.19 7.46,-14.41 7.46,-24.6zm178.92 60.71l-38.89 0 0 -19.25 -0.59 0c-9.65,14.87 -22.5,22.33 -38.64,22.33 -29.32,0 -43.94,-17.74 -43.94,-53.22l0 -76.25 38.89 0 0 72.8c0,17.86 7.08,26.79 21.23,26.79 7,0 12.56,-2.44 16.77,-7.33 4.21,-4.88 6.28,-11.54 6.28,-19.92l0 -72.34 38.89 0 0 126.39zm12.28 -3.33l0 -31.6c6.45,3.88 12.85,6.74 19.21,8.64 6.37,1.9 12.39,2.82 18.08,2.82 6.91,0 12.38,-0.92 16.35,-2.82 4,-1.9 5.98,-4.76 5.98,-8.64 0,-2.48 -0.89,-4.55 -2.7,-6.19 -1.81,-1.64 -4.13,-3.08 -6.99,-4.3 -2.83,-1.22 -5.94,-2.36 -9.31,-3.33 -3.37,-1.01 -6.62,-2.1 -9.74,-3.32 -5.01,-1.9 -9.43,-3.97 -13.27,-6.11 -3.83,-2.19 -7.03,-4.72 -9.65,-7.63 -2.57,-2.86 -4.55,-6.19 -5.89,-9.98 -1.35,-3.8 -2.07,-8.26 -2.07,-13.44 0,-7.08 1.56,-13.19 4.64,-18.29 3.07,-5.1 7.2,-9.27 12.34,-12.51 5.14,-3.25 11.04,-5.65 17.65,-7.17 6.62,-1.51 13.53,-2.27 20.69,-2.27 5.6,0 11.25,0.42 17.02,1.31 5.77,0.84 11.46,2.1 17.06,3.75l0 30.12c-4.97,-2.91 -10.23,-5.06 -15.88,-6.49 -5.64,-1.43 -11.16,-2.15 -16.6,-2.15 -2.57,0 -4.97,0.21 -7.2,0.68 -2.28,0.42 -4.3,1.09 -6.03,1.98 -1.73,0.84 -3.07,1.93 -4.04,3.33 -1.01,1.34 -1.48,2.9 -1.48,4.63 0,2.27 0.72,4.25 2.19,5.9 1.52,1.64 3.42,3.07 5.82,4.25 2.4,1.23 5.05,2.28 7.96,3.21 2.91,0.96 5.81,1.93 8.72,2.9 5.18,1.81 9.86,3.79 14.07,5.94 4.17,2.15 7.8,4.64 10.79,7.54 2.99,2.87 5.31,6.24 6.91,10.12 1.6,3.87 2.4,8.46 2.4,13.82 0,7.49 -1.6,13.9 -4.89,19.21 -3.24,5.31 -7.54,9.6 -12.93,12.93 -5.39,3.33 -11.63,5.77 -18.67,7.29 -7.03,1.52 -14.32,2.28 -21.9,2.28 -13.91,0 -26.76,-2.15 -38.64,-6.41zm183.64 1.86c-5.78,3.03 -14.46,4.55 -26.04,4.55 -27.47,0 -41.25,-14.29 -41.25,-42.81l0 -57.89 -20.47 0 0 -28.77 20.47 0 0 -27.26 38.89 -11.13 0 38.39 28.4 0 0 28.77 -28.4 0 0 51.11c0,13.14 5.22,19.71 15.67,19.71 4.13,0 8.39,-1.18 12.73,-3.58l0 28.91zm67.94 4.55c-21.07,0 -37.63,-5.9 -49.68,-17.7 -12.05,-11.8 -18.07,-27.85 -18.07,-48.07 0,-20.9 6.24,-37.29 18.75,-49.09 12.51,-11.79 29.45,-17.69 50.72,-17.69 20.99,0 37.46,5.9 49.38,17.69 11.93,11.8 17.91,27.43 17.91,46.86 0,20.98 -6.15,37.58 -18.45,49.75 -12.31,12.18 -29.16,18.25 -50.56,18.25zm1.01 -102.68c-9.23,0 -16.39,3.16 -21.49,9.48 -5.1,6.36 -7.67,15.34 -7.67,26.92 0,24.27 9.82,36.4 29.41,36.4 18.67,0 28.02,-12.47 28.02,-37.37 0,-23.63 -9.44,-35.43 -28.27,-35.43zm264.32 47.53l-82.46 0c1.31,18.32 12.9,27.51 34.68,27.51 13.9,0 26.12,-3.29 36.65,-9.86l0 28.14c-11.67,6.24 -26.83,9.36 -45.54,9.36 -20.39,0 -36.23,-5.65 -47.53,-16.98 -11.24,-11.29 -16.89,-27.09 -16.89,-47.32 0,-20.98 6.07,-37.62 18.28,-49.88 12.18,-12.26 27.14,-18.37 44.92,-18.37 18.41,0 32.69,5.48 42.76,16.39 10.07,10.95 15.13,25.83 15.13,44.57l0 16.44zm-36.15 -23.98c0,-18.07 -7.33,-27.13 -22,-27.13 -6.23,0 -11.67,2.57 -16.22,7.75 -4.59,5.18 -7.33,11.67 -8.34,19.38l46.56 0zm169.14 76.05l-38.89 0 0 -70.23c0,-19.59 -6.99,-29.37 -20.98,-29.37 -6.74,0 -12.3,2.57 -16.64,7.75 -4.39,5.19 -6.58,11.8 -6.58,19.76l0 72.09 -38.97 0 0 -126.39 38.97 0 0 20.01 0.51 0c9.31,-15.42 22.83,-23.09 40.61,-23.09 27.98,0 41.97,17.36 41.97,52.07l0 77.4zm184.1 -4.55c-8.81,5.1 -21.53,7.63 -38.13,7.63 -19.43,0 -35.14,-5.86 -47.15,-17.66 -12.01,-11.75 -18.03,-26.92 -18.03,-45.54 0,-21.49 6.45,-38.38 19.3,-50.77 12.89,-12.39 30.12,-18.58 51.69,-18.58 14.87,0 25.66,1.98 32.32,5.9l0 33.11c-8.13,-6.11 -17.24,-9.14 -27.26,-9.14 -11.21,0 -20.06,3.24 -26.63,9.82 -6.53,6.53 -9.82,15.54 -9.82,27.09 0,11.16 3.16,19.97 9.4,26.33 6.23,6.4 14.87,9.56 25.78,9.56 9.74,0 19.22,-3.03 28.53,-9.14l0 31.39zm73.5 7.63c-21.07,0 -37.63,-5.9 -49.68,-17.7 -12.05,-11.8 -18.07,-27.85 -18.07,-48.07 0,-20.9 6.24,-37.29 18.75,-49.09 12.51,-11.79 29.45,-17.69 50.72,-17.69 20.99,0 37.46,5.9 49.38,17.69 11.93,11.8 17.91,27.43 17.91,46.86 0,20.98 -6.15,37.58 -18.45,49.75 -12.31,12.18 -29.16,18.25 -50.56,18.25zm1.01 -102.68c-9.23,0 -16.39,3.16 -21.49,9.48 -5.1,6.36 -7.67,15.34 -7.67,26.92 0,24.27 9.82,36.4 29.41,36.4 18.67,0 28.02,-12.47 28.02,-37.37 0,-23.63 -9.44,-35.43 -28.27,-35.43zm203.1 99.6l-38.89 0 0 -70.23c0,-19.59 -6.99,-29.37 -20.98,-29.37 -6.74,0 -12.3,2.57 -16.64,7.75 -4.39,5.19 -6.58,11.8 -6.58,19.76l0 72.09 -38.97 0 0 -126.39 38.97 0 0 20.01 0.51 0c9.31,-15.42 22.83,-23.09 40.61,-23.09 27.98,0 41.97,17.36 41.97,52.07l0 77.4zm78.81 3.08c-21.07,0 -37.63,-5.9 -49.68,-17.7 -12.05,-11.8 -18.07,-27.85 -18.07,-48.07 0,-20.9 6.24,-37.29 18.75,-49.09 12.51,-11.79 29.45,-17.69 50.72,-17.69 20.99,0 37.46,5.9 49.38,17.69 11.93,11.8 17.91,27.43 17.91,46.86 0,20.98 -6.15,37.58 -18.45,49.75 -12.31,12.18 -29.16,18.25 -50.56,18.25zm1.01 -102.68c-9.23,0 -16.39,3.16 -21.49,9.48 -5.1,6.36 -7.67,15.34 -7.67,26.92 0,24.27 9.82,36.4 29.41,36.4 18.67,0 28.02,-12.47 28.02,-37.37 0,-23.63 -9.44,-35.43 -28.27,-35.43zm176.81 95.05c-8.81,5.1 -21.53,7.63 -38.13,7.63 -19.43,0 -35.14,-5.86 -47.15,-17.66 -12.01,-11.75 -18.03,-26.92 -18.03,-45.54 0,-21.49 6.45,-38.38 19.3,-50.77 12.89,-12.39 30.12,-18.58 51.69,-18.58 14.87,0 25.66,1.98 32.32,5.9l0 33.11c-8.13,-6.11 -17.24,-9.14 -27.26,-9.14 -11.21,0 -20.06,3.24 -26.63,9.82 -6.53,6.53 -9.82,15.54 -9.82,27.09 0,11.16 3.16,19.97 9.4,26.33 6.23,6.4 14.87,9.56 25.78,9.56 9.74,0 19.22,-3.03 28.53,-9.14l0 31.39zm126.84 -47.52l-82.46 0c1.31,18.32 12.9,27.51 34.68,27.51 13.9,0 26.12,-3.29 36.65,-9.86l0 28.14c-11.67,6.24 -26.83,9.36 -45.54,9.36 -20.39,0 -36.23,-5.65 -47.53,-16.98 -11.24,-11.29 -16.89,-27.09 -16.89,-47.32 0,-20.98 6.07,-37.62 18.28,-49.88 12.18,-12.26 27.14,-18.37 44.92,-18.37 18.41,0 32.69,5.48 42.76,16.39 10.07,10.95 15.13,25.83 15.13,44.57l0 16.44zm-36.15 -23.98c0,-18.07 -7.33,-27.13 -22,-27.13 -6.23,0 -11.67,2.57 -16.22,7.75 -4.59,5.18 -7.33,11.67 -8.34,19.38l46.56 0zm129.53 -15.17c-4.72,-2.57 -10.19,-3.83 -16.43,-3.83 -8.47,0 -15.08,3.12 -19.88,9.31 -4.77,6.24 -7.17,14.66 -7.17,25.37l0 60.37 -38.97 0 0 -126.39 38.97 0 0 23.46 0.51 0c6.19,-17.15 17.27,-25.7 33.32,-25.7 4.13,0 7.34,0.51 9.65,1.48l0 35.93zm89.56 89.75c-5.78,3.03 -14.46,4.55 -26.04,4.55 -27.47,0 -41.25,-14.29 -41.25,-42.81l0 -57.89 -20.47 0 0 -28.77 20.47 0 0 -27.26 38.89 -11.13 0 38.39 28.4 0 0 28.77 -28.4 0 0 51.11c0,13.14 5.22,19.71 15.67,19.71 4.13,0 8.39,-1.18 12.73,-3.58l0 28.91zm121.28 -50.6l-82.46 0c1.31,18.32 12.9,27.51 34.68,27.51 13.9,0 26.12,-3.29 36.65,-9.86l0 28.14c-11.67,6.24 -26.83,9.36 -45.54,9.36 -20.39,0 -36.23,-5.65 -47.53,-16.98 -11.24,-11.29 -16.89,-27.09 -16.89,-47.32 0,-20.98 6.07,-37.62 18.28,-49.88 12.18,-12.26 27.14,-18.37 44.92,-18.37 18.41,0 32.69,5.48 42.76,16.39 10.07,10.95 15.13,25.83 15.13,44.57l0 16.44zm-36.15 -23.98c0,-18.07 -7.33,-27.13 -22,-27.13 -6.23,0 -11.67,2.57 -16.22,7.75 -4.59,5.18 -7.33,11.67 -8.34,19.38l46.56 0z"/>
  <polygon class="fil5 str2" points="426.32,3259.55 4235.37,3259.55 4235.37,3302.39 426.32,3302.39 "/>
 </g>
</svg>
