<?xml version="1.0" encoding="UTF-8"?>
<!DOCTYPE svg PUBLIC "-//W3C//DTD SVG 1.1//EN" "http://www.w3.org/Graphics/SVG/1.1/DTD/svg11.dtd">
<!-- Creator: CorelDRAW -->
<svg xmlns="http://www.w3.org/2000/svg" xml:space="preserve" width="42.3332mm" height="63.5mm" style="shape-rendering:geometricPrecision; text-rendering:geometricPrecision; image-rendering:optimizeQuality; fill-rule:evenodd; clip-rule:evenodd"
viewBox="0 0 42.3332 63.5"
 xmlns:xlink="http://www.w3.org/1999/xlink">
 <defs>
  <style type="text/css">
   <![CDATA[
    .fil1 {fill:#009BD8;fill-opacity:0.180392}
    .fil0 {fill:#EC7D63;fill-opacity:0.180392}
   ]]>
  </style>
   <clipPath id="id0">
    <rect x="-0.0001" width="42.3334" height="63.5"/>
   </clipPath>
   <clipPath id="id1">
    <rect y="0.0001" width="42.3332" height="63.4998"/>
   </clipPath>
 </defs>
 <g id="Capa_x0020_1">
  <metadata id="CorelCorpID_0Corel-Layer"/>
  <g style="clip-path:url(#id0)">
   <image transform="matrix(1 0 0 1 -21.1667 31.75)" x="21.1666" y="-31.7499" width="42.3333" height="63.4999" xlink:href="d.svg_Images\d.svg_ImgID1.jpg"/>
  </g>
  <g style="clip-path:url(#id1)">
   <image transform="matrix(1 0 0 1 -21.1666 31.7499)" x="21.1666" y="-31.7498" width="42.3332" height="63.4998" xlink:href="d.svg_Images\d.svg_ImgID2.jpg"/>
  </g>
  <g id="_549999264">
   <polygon id="_550176376" class="fil0" points="-0,0 8.4666,0 8.4666,63.5 -0,63.5 "/>
   <polygon id="_342261120" class="fil1" points="8.4666,0 16.9333,0 16.9333,63.5 8.4666,63.5 "/>
   <polygon id="_342261096" class="fil1" points="33.7819,0 25.3577,0 25.3577,63.5 33.7819,63.5 "/>
   <polygon id="_342259944" class="fil0" points="25.3576,0 16.9333,0 16.9333,63.5 25.3576,63.5 "/>
   <polygon id="_342259536" class="fil0" points="42.3332,63.5 33.8559,63.5 33.8559,0 42.3332,0 "/>
   <polygon id="_342259824" class="fil0" points="-0,50.679 42.3332,50.679 42.3332,38.0153 -0,38.0153 "/>
   <polygon id="_342243136" class="fil1" points="8.4666,25.2796 16.9333,25.2796 16.9333,38.0154 8.4666,38.0154 "/>
   <polygon id="_342260856" class="fil0" points="-0,25.2796 42.3332,25.2796 42.3332,12.7001 -0,12.7001 "/>
   <polygon id="_342243808" class="fil1" points="-0,25.2796 8.4666,25.2796 8.4666,12.7001 -0,12.7001 "/>
   <polygon id="_342259416" class="fil1" points="33.7819,50.679 42.3332,50.679 42.3332,38.0154 33.7819,38.0154 "/>
   <polygon id="_343415552" class="fil1" points="25.3577,50.679 16.9333,50.679 16.9333,38.0154 25.3577,38.0154 "/>
   <polygon id="_342245848" class="fil1" points="-0,50.679 8.4667,50.679 8.4667,38.0154 -0,38.0154 "/>
   <polygon id="_343416272" class="fil1" points="33.7819,25.2796 25.3577,25.2796 25.3577,38.0153 33.7819,38.0153 "/>
   <polygon id="_342243064" class="fil1" points="33.7819,25.2796 42.3332,25.2796 42.3332,12.7001 33.7819,12.7001 "/>
   <polygon id="_343416560" class="fil1" points="25.3576,25.2796 16.9333,25.2796 16.9333,12.7001 25.3576,12.7001 "/>
  </g>
 </g>
</svg>
