<?xml version="1.0" encoding="UTF-8"?>
<!DOCTYPE svg PUBLIC "-//W3C//DTD SVG 1.1//EN" "http://www.w3.org/Graphics/SVG/1.1/DTD/svg11.dtd">
<!-- Creator: CorelDRAW 2017 -->
<svg xmlns="http://www.w3.org/2000/svg" xml:space="preserve" width="22.7752mm" height="8.4666mm" version="1.1" style="shape-rendering:geometricPrecision; text-rendering:geometricPrecision; image-rendering:optimizeQuality; fill-rule:evenodd; clip-rule:evenodd"
viewBox="0 0 2277.52 846.66"
 xmlns:xlink="http://www.w3.org/1999/xlink">
 <defs>
  <style type="text/css">
   <![CDATA[
    .fil2 {fill:black}
    .fil0 {fill:#5A1111}
    .fil3 {fill:#CC3333}
    .fil1 {fill:#CF3434}
   ]]>
  </style>
 </defs>
 <g id="Capa_x0020_1">
  <metadata id="CorelCorpID_0Corel-Layer"/>
  <path class="fil0" d="M1514.83 433.2l-0.29 9.91c-0.09,-0.18 -1.9,-0.17 -1.69,-5.37 0.4,-9.7 -0.57,-1.92 1.98,-4.54l10.67 -1.66c-3.84,2.11 -5.38,1.9 -10.67,1.66z"/>
  <path class="fil0" d="M1637.52 569.98l6.54 -1.73 -0.13 -8.33c0.68,1.39 0.81,-1.65 1.45,3.81 0.39,3.26 0.03,2.99 -0.35,5.86l-7.51 0.39z"/>
  <polygon class="fil1" points="1636.63,331.48 1501.06,339.91 1501.05,188.77 1634.27,183.17 "/>
  <path class="fil1" d="M1643.93 559.92l0.13 8.33 -6.54 1.73 -114.12 3.78 -8.86 -130.65 0.29 -9.91c5.29,0.24 6.83,0.45 10.67,-1.66 12.73,1.56 41.61,-1.97 56.03,-2.81 10.87,-0.64 47.4,-4.31 55.38,-2.47l7.02 133.66z"/>
  <path class="fil2" d="M2115.91 293.53c0,34.63 -5.64,94.41 -20.75,121.95 -12.79,23.33 -19.15,3.44 -26.02,31.68 -16.27,66.98 -38.13,140.52 -53.43,206.18 61.92,14.42 128.78,33.74 193.37,14.22 16.52,-4.99 33.87,-11.26 49.54,-18.78 -0.54,-6.46 -122.36,-308.27 -139.64,-349.21 -0.19,-0.44 -1.21,-2.71 -1.42,-3.13 -0.15,-0.29 -0.4,-0.73 -0.54,-0.99 -0.13,-0.25 -0.44,-0.76 -0.55,-0.96 -0.11,-0.21 -0.35,-0.66 -0.56,-0.96zm160.93 -100.59l0 -5.39c-0.58,-1.6 -1.92,-3.08 -4.56,-4.85 -6.66,1.78 -5.88,3.4 -7.01,11.21 -1.66,11.58 -2.96,32.82 -18.8,32.82 -41.29,0 -28.84,-33.07 -28.84,-66.8 0,-65.64 -12.56,-120.42 -76.97,-147.73 -14.02,-5.94 -35.88,-11.68 -55.11,-11.68 -42.99,0 -72.7,9.79 -102.12,39.07 -40.62,40.42 -47.64,108.83 -23.41,160.85 14.72,31.62 39.04,54.82 73.36,64.79 16.53,4.8 40.62,7.04 61.28,7.04 5.71,0 2.87,-1 9.1,-1.52 -1.3,15.62 -8.35,34.53 -17.11,46.65 -31.1,43.03 -61.28,59.52 -108.82,29.19 -7.04,-4.49 -23.94,-18.77 -27.22,-25.92 -1.96,-4.29 -3.64,-15.92 -5.36,-21.96 -1.93,-6.79 -4.04,-12.98 -6.51,-19.3 -9.78,-25.03 -24.18,-45.26 -42.59,-63.69 -27.29,-27.33 -67.23,-48.2 -111.2,-48.2l-75.5 1.93c-10.56,1.45 -25,-0.05 -36.43,1.52 -19.18,2.63 -89.75,1.85 -109.08,4.78 -21.22,3.21 -53.18,-0.47 -72,3.91 -0.79,3.41 -1.52,3.5 -1.52,7.6 0,27.03 -2.46,145.35 1.52,162.44 15.05,3.51 62.71,-3.49 83.49,-4.56l34.93 -1.51c6.78,-0.34 7.25,-1.52 15.13,-1.57 45.88,-0.33 90.04,-7.54 135.17,-7.54 9.22,0 31.83,10.83 37.37,18.8 11.33,16.28 2.16,37.47 -12.74,46.82 -14.4,9.04 -17.02,5.73 -36.7,7.33 -11.63,0.95 -28.8,3.06 -41.07,2.96 -12.88,-0.11 -28.73,2.41 -40.98,3.04 -29.28,1.51 -55.76,3.04 -85.03,4.54 -19.33,1 -43.45,4.27 -62.24,4.56 -7.36,0.12 -15.18,-1.44 -15.18,6.07 0,27.27 3.82,95.01 7.17,120.36 1.62,12.3 0.93,23.66 3.45,34.5 16.79,3.91 78.1,-3.17 104.77,-3.03 22.83,0.12 48.59,-3.17 71.33,-3.05 6.05,0.03 12.26,0.14 18.29,0.07 8.18,-0.1 8.95,-1.4 16.59,-1.63 24.75,-0.74 47.44,0.28 71.34,-1.53 36.86,-2.79 73.83,-24.58 98.38,-48.89 17.59,-17.42 45.27,-73.86 47.43,-99.83 21.64,10.38 87.58,18.87 113.56,11.85 0.42,-0.12 2.98,-1.58 3.59,-1.48l1.27 1.77c-0.21,0.32 -0.41,0.79 -0.5,1.02 -0.1,0.23 -0.37,0.75 -0.48,1.04 -3.57,8.89 -4.73,17.64 -6.92,26.49 -2.17,8.8 -4.93,18.21 -7.29,27.63l-28.85 110.81c-19.01,71.79 -17.04,50.44 7.6,62.26 -0.78,9.35 -22.7,71.9 -27.14,85.21 -6.81,20.45 -23.26,66.55 -27.51,84.82l-50.24 -0.13c-16.22,-0.12 -11.27,9.24 -5.94,9.24l60.73 0c5,0 4.88,-4.18 6.33,-8.85l10.96 -33.07c2.75,-8.28 4.56,-15.28 7.19,-23.17l21.64 -66.41c4.74,-14.23 11.39,-30.81 14.61,-44.6 9.29,0.77 16.01,4.55 25.81,4.55 0,27.06 3.74,60.29 8,84.6 4.35,24.86 13.62,48.82 19.32,73.29 -9.11,0 -18.22,0.01 -27.33,0 -7.09,-0.01 -22.77,-2.86 -22.77,4.55 0,3.56 2.52,6.08 6.08,6.08 69.65,0 60.06,9.89 45.54,-42.51 -3.48,-12.54 -6.52,-24.01 -9.26,-37.8 -4.11,-20.68 -8.96,-63.19 -8.96,-85.17 5.96,0.49 13.06,2.18 19.52,3.26 58.45,9.77 100.8,6.94 156.4,-15.6 30.54,-12.39 24.28,-13.04 13.85,-39.28 -17.92,-45.08 -139.13,-341.44 -142.7,-356.77 23.23,0 30.18,-8.86 42.5,-12.15 6.66,28.58 29.27,48.58 59.21,48.58 32.01,0 57.39,-54.65 40.99,-54.65 -7.64,0 -5.97,6.69 -8.18,14.59 -12.1,43.43 -62.87,35.19 -78.87,-1.93 -4.3,-9.99 -7.24,-47.96 -7.08,-62.75 0.17,-15.58 -5.89,-92.29 -4.19,-99.84 2.02,-8.91 13.31,-6.9 13.31,-27.7 0,-10.65 -25.81,-34.53 -25.81,-19.73 0,4.98 5.49,6.77 8.68,9.53 16.02,13.84 -0.31,31.46 -19.31,31.46 -22.9,0 -44.34,-13.73 -59.29,-22.69 -28.41,-17.02 -38.41,-22.86 -72.79,-22.86 -15.84,0 -18.99,4.69 -21.25,1.52 6.39,-4.28 10.27,-10.54 16.44,-15.44 36.46,-28.97 92.68,-29.26 134.52,-12.55 22.66,9.04 38.85,23.91 51.26,44.38 15.76,25.99 21.98,80.63 17.03,113.3 -1.27,8.44 -1,23.83 0.47,30.13 3.91,16.68 17.02,26.92 36.85,26.92 23.81,0 29.35,-19.64 32.39,-39.02 0.33,-2.12 0.73,-3.88 1.01,-5.4zm-639.32 377.04l7.51 -0.39c0.38,-2.87 0.74,-2.6 0.35,-5.86 -0.64,-5.46 -0.77,-2.42 -1.45,-3.81l-7.02 -133.66c-7.98,-1.84 -44.51,1.83 -55.38,2.47 -14.42,0.84 -43.3,4.37 -56.03,2.81l-10.67 1.66c-2.55,2.62 -1.58,-5.16 -1.98,4.54 -0.21,5.2 1.6,5.19 1.69,5.37l8.86 130.65 114.12 -3.78zm449.54 -233.94c-5.79,3.88 -11.91,14.55 -26.99,24.62 -32.05,21.39 -63.63,13.27 -93.39,-8.99 -5.96,-4.45 -9.67,-9.21 -14.73,-12.6 0,8.78 2.28,11.03 1.35,19.47 -0.7,6.26 -0.84,12.11 -1.43,19.92 -1.1,14.43 -5.3,29.72 -6,38.04 19.83,1.65 24.6,12.14 92.61,12.14 11.07,0 16.68,-2.83 25.81,-3.03l22.77 -89.57zm-452.79 -152.87l-133.22 5.6 0.01 151.14 135.57 -8.43 -2.36 -148.31zm469.49 133.13c-0.2,0.32 -0.43,0.47 -0.5,1.02l-1.66 4.4c-0.67,2.24 -0.9,3.67 -1.49,6.11l-23.67 91.71c7.77,-4.12 10.68,-9.02 13.88,-18 7.83,-21.98 13.44,-61.96 13.44,-85.24zm-456.97 13.66c12.19,0 105.54,-7.56 114.04,-6.26 3.58,0.55 7.54,1.55 11.03,2.65 17.51,5.52 41.93,18.72 41.93,40.05 0,19.32 -4.4,28.98 -21.01,41.23 -18.66,13.78 -18.58,7.35 -43.85,10.8 -15.15,2.07 -35.87,1.67 -50.93,3.73l-39.11 1.88c-7.06,0.17 -6.42,1.1 -12.1,1.57l7.59 142.71c10.6,0 15.23,-1.47 24.23,-1.58 8.55,-0.11 17.43,0.36 25.92,0.11 8.48,-0.25 13.71,-1.61 24.24,-1.57 19.84,0.07 60.34,-0.23 77.26,-3.21 26.1,-4.59 67.33,-25.84 84.18,-46.38 14.3,-17.42 42,-74.54 42,-91.6 0,-2.23 -30.68,-13.52 -37.47,-17.18 -4.7,-2.53 -6.52,-4.01 -11.62,-6.6 -4.81,-2.44 -42,-23.55 -42,-30.87 0,-3.41 1.2,-3.34 3.04,-6.08 6.9,0.58 2.39,-0.5 7.46,3.16 2.51,1.82 4.04,3.29 6.84,5.31 10.64,7.68 70.96,44.64 76.92,38.7 3.61,-3.6 10.75,-68.93 2.28,-89.22 -3.87,-9.27 5.26,-5.56 -11.08,-43.41 -24.12,-55.87 -81.18,-99.75 -143.15,-99.75 -47.44,0 -90.84,4.55 -138.16,4.55l1.52 147.26zm426.61 -69.83c25.66,0 35.75,1.12 61.38,-3.9 17.2,-3.37 14.3,-5.53 25.16,-12.8 -4.24,-50.97 -4.6,-73.82 -6.03,-121.51 -0.23,-7.81 -1.56,-9.28 -1.56,-18.16 -51.49,11.99 -88.1,-44.03 -129.05,-44.03 -15.21,0 -25.18,-0.54 -40.1,3.92 -10.16,3.04 -9.53,7.34 -14.05,16.32 -23.79,47.29 -13.74,104.99 20.28,145.71 20.75,24.84 50.09,34.45 83.97,34.45z"/>
  <path class="fil2" d="M1413 472.67c0,6.5 -7.74,6.71 -13.64,7.62 -33.36,5.13 -78.18,15.61 -112.37,21.23 -6.75,1.11 -12.38,3.03 -19.74,3.03l10.62 6.08c24.67,12.17 28.85,9.3 28.85,21.25 -39.49,9.2 -80.07,15.86 -120.81,24.93l-106.15 21.73c-8.67,1.37 -8.35,-0.72 -8.35,-8.7 47.25,-11.01 110.04,-23.08 159.78,-33.03 6.23,-1.24 49.26,-7.75 52.76,-12.52 -4.02,-0.34 -39.47,-15.52 -39.47,-21.25 0,-6.65 11.4,-6.72 18.01,-7.8l141.94 -26.91c5.11,-0.6 8.57,-0.75 8.57,4.34z"/>
  <path class="fil2" d="M1245.99 226.73c0,-45.63 -11.98,-41.5 84.81,-2.82l68.44 27.2c5.18,2.27 4.71,1.25 6.16,7.5 -9.58,6.42 -14.24,0.69 -41.42,-10.19l-107.36 -42.95c0,42.06 10.1,38.32 -50.64,20.28 -30.46,-9.04 -117.05,-36.84 -143.68,-43.05l0 -9.11c8.71,-1.84 35.96,8.72 44.9,11.27 29.72,8.49 115.44,36.43 138.79,41.87z"/>
  <path class="fil2" d="M1209.56 323.89c6.53,8.91 27.91,14.56 28.84,25.81 -2.74,1.83 -2.66,3.04 -6.07,3.04l-165.48 0c-3.33,0 -4.31,-1.16 -4.55,-3.66l0 -6.63 0 -0.34 153.33 0c-0.27,-0.24 -0.7,-0.96 -0.82,-0.7l-30.57 -21.2c-6.28,-5.65 -0.78,-9.98 1.03,-9.98l169.53 20.26c7.45,1.61 10.5,7.77 4.19,10.6 -5.01,2.24 -129.81,-17.2 -149.43,-17.2z"/>
  <path class="fil2" d="M2068.85 120.46c-0.22,0.3 -0.46,0.46 -0.54,0.98 -0.37,2.44 -5.76,7.84 -7.05,12.68 2.63,-1.39 6.51,-0.68 7.59,-13.66zm0 -1.52l2.12 -2.43c3.45,-2.66 -2.14,-2.13 3.95,-2.13 14.03,0 -4.87,47.85 -24.48,22.97 -4.48,-5.68 -5.53,-6.27 -14.99,-6.27 -16.9,0 -18.28,11.25 -27.33,13.67 -12.9,-11.69 12.69,-24.29 30.36,-24.29 8.39,0 10.16,3.03 16.7,4.55 7.9,-16.46 -6.07,-24.29 6.08,-24.29 6.48,0 7.59,11.06 7.59,18.22z"/>
  <path class="fil2" d="M2074.92 210.03c0,5.48 -27.6,42.96 -58.07,15.56 -2.98,-2.67 -5.63,-5.41 -8.44,-8.3 -4.76,-4.91 -4.89,-5.09 -3.33,-11.82 7.52,0 6.16,-0.61 10.38,3.29 6.58,6.08 25.11,30.3 44.96,4.99 2.35,-2.99 4.4,-7.03 6.92,-8.37 2.74,-1.44 7.58,-0.65 7.58,4.65z"/>
  <path class="fil2" d="M757.87 324.01c-0.23,0.16 -0.64,0.25 -0.8,0.27 -3.63,0.51 -2.65,0.24 -4.52,-0.96l-14.97 -9.33c-6.76,-13.15 -26.2,-24.44 -38.8,-31.1 -11.32,7.58 -19.58,19.11 -27.69,29.89 -2.47,3.28 -3.87,4.72 -6.24,7.86l-30.96 43.07c-14.14,21.1 -20.53,29.95 -34.53,53.61 -24.73,41.79 -31.25,104.94 -50.69,124.4 -8.22,8.23 -29.97,17.16 -43.84,7.88 0,-17.27 10.3,-0.23 28.62,-10.17 9.78,-5.3 13.46,-12.61 17.73,-23.39 23.74,-59.86 15.83,-72.26 55.44,-131.4l21.39 -31.5c1.84,-2.77 2.33,-3.88 4.95,-5.63 -1.85,-2.59 -0.13,-1.4 -4.01,1.87l-23.53 19.96c-15.62,12.13 -51.6,47.1 -62.15,61.24 -3.65,4.9 -6.72,9.56 -10,14.67l-19.27 30.09c-14,20.97 -43.88,68.44 -75.46,53.57 -4.33,-2.04 -4.24,-2.99 -4.24,-8.69 5.91,-3.12 3.09,-2.69 9.02,-0.91 11.56,3.47 21.11,-1.41 30.06,-9.37 10.23,-9.1 22.55,-25.92 30.21,-37.95l16.02 -25.11c3.77,-6.14 6.56,-10.58 10.6,-16.43 14.64,-21.18 33.71,-38.92 53.1,-56.19 12.01,-10.69 63.61,-55.21 75.51,-63.17l-6.34 1.89c-18.3,7.77 -32.94,10.44 -52.75,13.06 -38.44,5.08 -86.17,-12.21 -114.52,-35.29 -7.24,-5.89 -13.35,-11.22 -19.46,-18.15l-16.25 -21.35c-10.34,-17.33 -17.07,-32.88 -21.56,-53.65 -4.94,-22.86 -3.56,-47.23 1.39,-67.71 13.9,-57.49 55.73,-97.48 109.12,-115.35 10.98,-3.67 24.04,-5.86 37.7,-6.58l20.73 0c14.37,0.75 28.57,3.05 40.94,6.88 4.86,1.51 8.91,3.2 13.55,5.26l24.4 13.21c19.31,11.81 34.99,27.88 47.47,46.55 37.15,55.61 34.57,133.07 -7.73,184.5 -2.6,3.17 -6.57,7.43 -8.5,10.3 17.22,9.11 35.34,24.44 45.49,41.48l5.37 7.87zm-23.82 -128.07l-0.35 0.36c0.02,-0.03 0.47,-0.24 0.35,-0.36zm-39.97 11.75c9.39,0 12.09,-0.03 19.53,-6.33 11.28,-9.56 16.91,-34.46 16.91,-48.89 0,-15.64 -5.15,-35.01 -12.12,-48.97 -13.42,-26.89 -42.54,-39.55 -58.03,-10.57 -17.09,31.98 -7.21,86.26 15.24,105.03 3.79,3.18 12.46,9.73 18.47,9.73zm1.18 -142.16c-6.15,-9.18 -32.6,-27.02 -44.33,-32.07 -54.71,-23.54 -110.69,-16.64 -157.2,18.63 -11.98,9.08 -17.99,16.37 -27.34,27.89 -5.26,6.49 -9.71,14.84 -13.68,22.74 -20.48,40.73 -19.5,85.24 -0.82,126.16 4.01,8.78 7.52,15.04 12.97,22.29 16.34,21.72 33.05,36.09 57.58,48.19 44.29,21.83 103.5,18.05 144.86,-7.99 19.32,-12.16 34.62,-28.58 47.48,-47.72 4.54,-6.74 7.54,-13.04 10.71,-21.01 2.19,-5.53 7.24,-18 7.38,-24.35 -2.11,1.56 -24.04,39.53 -61.16,12.96 -30.65,-21.93 -43.78,-87.55 -22.38,-124.66 11.46,-19.87 21.63,-22.24 40.05,-22.24 1.85,0 4.46,0.63 5.88,1.18z"/>
  <path class="fil2" d="M746.98 443.16c4.3,2.39 8.11,2.95 11.94,6.57 -0.62,4.17 -1.49,5.62 -2.88,9.06l-17.63 42.3c-8.8,20.58 -27.49,50.12 -42.24,67.04l-22.94 25.25c-9.43,9.48 -18.17,14.96 -30.37,30.73 -2.52,3.26 -2.77,3.43 -5.51,6.25l-55.74 53.55c-14.2,11.43 -26.58,20.78 -43.1,29.77 -10.85,5.92 -20.15,11.45 -32.36,15.83 -20.53,7.37 -57.93,16.37 -81.24,16.31 -13.66,-0.03 -31.63,2.7 -46.86,0.99 -25.12,-2.82 -38.38,-2.06 -66.18,-6.7 -6.67,-1.12 -15.03,-3.21 -20.98,-3.7 -6,25.74 -7.78,6.38 -8.09,43.61 -0.03,3.24 -1.13,5.66 -2.64,6.91l-5.06 0c-3.4,-2.72 -5.92,-11.4 -2.33,-28.69 1.88,-9.11 4.78,-17.07 8.3,-24.6 6.63,-14.19 8.1,-7.08 49.43,-1.57 37.82,5.04 83.09,6.34 121.95,0.16 47.49,-7.56 78.92,-23.65 113.01,-49.18 6.54,-4.9 11.79,-9.97 17.96,-14.95l17.51 -15.4c4.75,-4.8 11.68,-12.77 16.75,-16.16l-32.75 15.44c-75.96,31.07 -104.94,32.28 -187.09,32.75 -9.12,0.05 -13.83,-1.18 -23.53,-1.16 -5.5,0.02 -6.91,-0.62 -10.71,-1.03l-78.59 -7.23c-0.38,4.57 -2.15,6 -4.67,11.78 -1.74,3.99 -3.32,7.31 -5.07,11.38 -1.57,3.66 -3.05,8.47 -5.31,11.21 -2.7,3.26 -15.66,7.5 -5.7,-12.81 5.05,-10.31 10.03,-24.32 16.05,-33.31l38.89 4.6c12.59,1.45 28.12,3.5 41.06,3.61 40.86,0.33 53.24,5.99 107.15,0.22 7.53,-0.81 14,-1.31 20.15,-2.19 13.79,-1.97 24.57,-4.56 37.02,-7.64 16.97,-4.2 33.78,-10.41 49.64,-17.36 28.21,-12.37 60.58,-29.49 82.52,-51.46 2.58,-2.58 3.15,-2.7 5.78,-4.8 20.34,-16.21 49.93,-59.2 62.13,-83.59 10.94,-21.9 15.31,-32.37 22.88,-54.84 1.86,-5.5 2,-3.45 -0.55,-6.95z"/>
  <path class="fil2" d="M366.26 431.61c-4.01,7.57 -5.76,5.29 -17.62,4.69 -5.67,-0.28 -17.49,-1.32 -22.67,-2.02 -15.22,-2.03 -30.97,-1.09 -46.02,-3.35 -4.31,-0.64 -6.96,-0.29 -11.26,-0.5l-58.28 -4.01c-4.81,-0.73 -7.26,-0.44 -12.25,-0.68 -5.25,-0.26 -5.6,-1.17 -11.72,-1.21 -14.24,-0.09 -32.68,-1.88 -46.05,-3.32l-93.37 -6.54c-15.07,-2.27 -32.76,-1.05 -46.34,-4.21 0,-16.19 1.83,-7.56 38.8,-7.05 10.68,0.14 34.77,3.49 47.01,3.53 5.59,0.01 6.85,0.57 10.75,1l83.97 5.37c4.41,0.66 6.3,0.62 11.11,0.65l36.34 2.44c15.13,1.19 30.93,2.3 47.02,3.53 15.23,1.17 30.96,3.3 47.12,3.42 5.95,0.04 18.56,1.36 23.8,2.07 11.91,1.6 14.7,-3.17 19.66,6.19z"/>
  <path class="fil2" d="M313.36 459.81c0,6.92 -0.12,9.4 -7.05,9.4l-181.03 0c-4.78,0 -6.32,-1.86 -8.23,-4.7 0.7,-2.99 0.99,-5.87 4.71,-5.87 22.02,0 184.19,-1.71 191.6,1.17z"/>
  <path class="fil2" d="M578.88 78.45c0,8.27 -3.15,12.73 -11,16.02 -6.49,2.72 -13.12,2.66 -20.41,1.3 -35.76,-6.64 -33.04,-46.39 4.42,-39.7 10.66,1.91 26.99,10.82 26.99,22.38z"/>
  <path class="fil2" d="M407.26 58.48c0,13.69 -12.15,5.13 -27.77,-0.44 -5.66,-2.02 -9.99,-3.56 -15.55,-5.6 -20.12,-7.41 -13.08,-15.11 -7.22,-15.11 4.24,0 38.39,12.64 46.1,16.19 2.45,1.14 4.44,1.55 4.44,4.96z"/>
  <path class="fil2" d="M417.84 39.68c0,16.52 -28.6,-6.06 -41.51,-13.73 -1.77,-1.05 -5.67,-3.12 -6.72,-3.91 -5.01,-3.81 -3.32,-11.73 3.56,-11.73 2.55,0 34.98,19.85 40.84,23.8 2.2,1.47 3.83,1.97 3.83,5.57z"/>
  <path class="fil2" d="M403.74 70.23c3.17,13.26 -2.04,9.58 -14.64,10.88l-14.9 0.68c-2.73,0.16 -5.36,0.23 -8.11,0.25 -10.26,0.06 -11.72,-0.54 -11.72,-7.11 0,-2.74 3.13,-5.88 5.87,-5.88 7.94,0 37.78,-1.04 43.5,1.18z"/>
  <path class="fil3" d="M758.92 449.73c-3.83,-3.62 -7.64,-4.18 -11.94,-6.57 -11.05,-4.74 -33.01,-20.5 -42.69,-28.31 -11.45,-9.23 -26.19,-25.64 -30.65,-39.86 -6.81,-21.72 -1.47,-41.48 10.71,-53.66 15.37,-15.36 34.93,-15.7 53.23,-7.34l14.97 9.33c1.87,1.2 0.89,1.47 4.52,0.96 0.16,-0.02 0.57,-0.11 0.8,-0.27 2.15,-1.91 2.36,-3.08 4.67,-5.58 30.67,-33.35 94.72,-14.52 80.86,39.68 -7.47,29.22 -49.59,79.92 -74.09,96.32 -3.16,-1.68 -6.66,-3.76 -10.39,-4.7z"/>
 </g>
</svg>
