<?xml version="1.0" encoding="UTF-8"?>
<!DOCTYPE svg PUBLIC "-//W3C//DTD SVG 1.1//EN" "http://www.w3.org/Graphics/SVG/1.1/DTD/svg11.dtd">
<!-- Creator: CorelDRAW 2017 -->
<svg xmlns="http://www.w3.org/2000/svg" xml:space="preserve" width="15.3246mm" height="13.7158mm" version="1.1" style="shape-rendering:geometricPrecision; text-rendering:geometricPrecision; image-rendering:optimizeQuality; fill-rule:evenodd; clip-rule:evenodd"
viewBox="0 0 1532.46 1371.58"
 xmlns:xlink="http://www.w3.org/1999/xlink">
 <defs>
  <style type="text/css">
   <![CDATA[
    .fil0 {fill:black}
   ]]>
  </style>
 </defs>
 <g id="Capa_x0020_1">
  <metadata id="CorelCorpID_0Corel-Layer"/>
  <g id="_1714824315744">
   <path class="fil0" d="M1160.28 888.71c0,-10.5 -6.86,-17.35 -17.35,-17.35 -12.94,0 -27.73,23.41 -42.85,39.56l-66.13 77c-10.34,11.13 -45,47.25 -45,59.1 0,19.12 18.29,21.11 25.78,15.1l137.46 -157.65c4.59,-4.63 8.09,-7.23 8.09,-15.76zm360.01 445.5l0 -31.26c-2.66,-31.85 -11.43,-68.4 -15.97,-81.64 -40.41,-117.86 -122.95,-151.36 -144.51,-180.79 13.93,-1.16 28.18,-5.55 28.18,-21.69 0,-15.89 -53.55,-44.42 -65.45,-51.65 -23.88,-14.54 -52.06,-28.64 -77.98,-39.13l-51.75 -24.16c10.07,-21 -6.59,-47.14 -18.55,-55.19 -20.39,-13.74 -34.25,-10.92 -57.35,-5.53 -4.29,-6.41 -9.99,-9.02 -15.75,-14.62 -6.37,-6.18 -10.28,-8.5 -16.26,-14.11 -11.29,-10.56 -19.86,-18.84 -35.78,-24.93 -27.43,-10.52 -57.74,-6.12 -82.11,10.03 -5.52,3.66 -1.27,2.68 -8.42,4.59l-121.77 -105.95c-4.92,-3.93 -7.44,-7.55 -12.37,-11.49l-48.67 -42.4c-39.72,-33.41 -38.4,-20.08 -38.4,-74.38 0,-69.74 8.57,-74.8 -28.71,-107.91 -5.26,-4.67 -6.9,-7.1 -12.49,-11.37l-24.38 -21.17c-10.1,-8.97 -24.52,-28.71 -38.52,-28.71 -11.54,0 -22.53,15.75 -12.57,27.65 7.27,8.71 16.53,14.52 25.02,22.79 5.35,5.22 7.77,5.88 13.06,10.8 42.36,39.41 43.9,26.37 43.89,75.38 -0.01,83.39 -10.02,83.16 29.46,113.7l127.23 111.32c5.44,5.41 7.67,6.13 12.99,10.85l37.95 33.62c5.4,5.25 7.81,5.84 13.05,10.81 5.61,5.32 5.77,8.24 13.54,10.32 -2.48,9.29 -14.18,18.05 -19.52,26.02l-35.26 -29.8c-16.43,-16 -35,-28.6 -50.95,-44.47 -21.44,-21.32 -46.62,-39 -68.31,-59.65 -16.26,-15.48 -34.98,-28.55 -50.97,-44.45 -29.34,-29.17 -39.88,-22.7 -39.6,-55.82 0.26,-30.75 2.54,-65.32 0.07,-95.5 -0.99,-12.16 -5.97,-13.36 -13.36,-19.16 -16.38,-12.88 -32.67,-30.74 -49.25,-44 -11.55,-9.25 -22.45,-19.3 -33.38,-29.53l-321.51 -308.89c-7.16,-5.74 -36.23,-17.2 -14.25,-39.18 38.45,0 221.56,204.69 234.94,216.85l43.32 39.1c5.55,5.2 8.48,6.21 14.15,11.88 34.31,34.38 42.66,1.44 40.47,-5.57 -2.32,-7.42 -8.47,-10.13 -13.41,-14.98 -6.28,-6.19 -8.47,-7.58 -15.07,-13.13 -5.65,-4.76 -7.78,-7.88 -13.65,-12.37 -24.88,-19 -259.15,-265.33 -293.53,-265.33 -40.57,0 -65.68,52.37 -28.78,87.34l384.63 365.05c6.93,6.75 39.52,36.71 46.11,38.47 0,25.3 0,50.61 0,75.91 0,39.37 -1.25,50.92 24.18,71.25l231.73 202c-7.04,13.31 -13.02,25.07 -13.02,45.54 0,29.8 14.5,47.95 33.07,66.7 6.77,6.82 36.22,29.55 39.01,34.9 5.97,11.44 -9.74,29.7 15.13,56.27 17.14,18.32 34.43,15.26 55.93,13.46l55.95 87.19c4.12,6.16 14.18,23.42 22.13,23.42 12.73,0 19.51,-6.79 19.51,-19.52 0,-5.75 -30.68,-49.29 -35.99,-57.25l-35.57 -55.52c3.15,-4.72 4.18,-4.98 8.12,-9.22 18.42,-19.81 33.91,-42.49 53.13,-61.82 14.29,-14.37 48.85,-60.89 62.36,-69.92 18.66,4.34 42.55,19.38 61.64,27.27l58.34 28.41c9.55,5.34 30.96,13.18 34,24.55 -12.93,0.29 -21.69,4.21 -21.69,17.35 0,14.99 17.34,23.39 26.55,32l30.37 26.03c18.91,18.8 41.4,33.39 58.37,54.4 41.39,51.28 62.54,103.49 62.54,184.68 -18.26,0.41 -33,6.51 -52.04,6.51 -22.94,0 -19.13,0.74 -36.55,-13.33 -18.63,-15.04 -36.02,-33.21 -54.54,-47.39 -4.38,-3.36 -5,-4.21 -9.22,-8.13 -4.47,-4.16 -5.28,-4.01 -9.66,-7.69l-17.34 -15.2c-6.03,-5.09 -31.56,-29.7 -37.51,-29.7 -11.07,0 -19.52,5.33 -19.52,17.35 0,19.3 46.67,36.72 49.72,54.37l2.33 32.37c-6.21,-2.97 -13.06,-4.69 -20.27,-7.92 -35.49,-15.93 -71.53,-33.4 -99.54,-60.96 -13.26,-13.03 -34.17,-13.94 -34.17,5.99 0,18.88 56.19,53.21 74.64,64.16 15.08,8.93 77.27,37.77 96.69,37.77 24.11,0 15.51,-28.73 15.18,-43.37 8.83,2.35 12.99,10.18 19.51,15.17 15.45,11.82 38.62,41.21 58.56,41.21 22.32,0 95.53,-3.46 104.52,-21.27 1.93,-3.84 3.2,-8.86 3.92,-14.68zm-427.24 -467.19c-4.29,-6.41 -9.98,-9.01 -15.74,-14.61 -6.65,-6.46 -10.98,-9.15 -17.33,-15.21 -58.02,-55.34 -93.32,12.69 -127.99,50.93 -15.86,17.49 -20.62,45.37 -6.32,66.04 6.52,9.42 8.52,9.08 16.13,16.39l36.31 30.92 56.93 -66.68c5.74,-6.17 8.52,-10.6 14.07,-16.29l43.94 -51.49z"/>
   <path class="fil0" d="M453.77 638.1c-8.88,-2.07 -47.13,-15.64 -52.98,-21.27 -6.45,-6.21 -20.72,-46.47 -21.27,-52.98l-4.64 0c-2.48,10.64 -6.03,17.85 -9.55,27.58 -15.18,42.01 -18.24,26.17 -62.5,46.55 -4.52,2.08 -1.92,0.63 -4.51,2.44 7.86,1.83 51.18,17.64 55.07,21.48 4.73,4.66 20.74,46.04 21.49,55.08 10.92,-8 15.32,-43.89 24.82,-54.06 5.1,-5.46 18.68,-8.77 27.22,-12.22 14.61,-5.9 22.19,-6.25 26.85,-12.6zm-71.93 148.48c-22.43,0 -21.06,-8.17 -35.15,-46.05 -2.86,-7.67 -6.18,-16.41 -9.61,-25.19 -13.41,-34.28 1.94,-21.23 -62.95,-46.09 -17.86,-6.84 -45.42,-12.36 -45.42,-28.83 0,-18.49 22.31,-21.9 44.35,-29.89 66.6,-24.13 49.49,-9.29 74.67,-73.82 3.8,-9.72 6.59,-17.15 9.98,-27.15 8.14,-23.96 29.2,-24.84 38.15,-1.48 3.5,9.13 6.2,17.09 10.18,26.94 28.67,70.94 0.53,46.73 98.81,84.48 9.15,3.52 18.3,5.13 20.05,17.06 4.08,27.65 -66.96,35.59 -93.73,50.87 -8.86,5.06 -6.22,7.16 -12.88,24.24 -3.82,9.77 -6.52,17.1 -10.06,27.06 -5.24,14.74 -15.07,47.85 -26.39,47.85z"/>
   <path class="fil0" d="M1447.27 723.45c-8.97,-2.09 -39.71,-12.74 -44.8,-17.85 -4.66,-4.68 -17.15,-36.53 -17.84,-44.8l-4.64 0c-0.69,8.27 -13.19,40.12 -17.85,44.8 -5.09,5.11 -35.82,15.76 -44.79,17.85 16.32,22.27 45.47,-8.74 62.64,64.96l4.64 0c2.2,-9.47 13.06,-39.34 18.28,-44.36 3.28,-3.16 16.52,-7.73 22.61,-9.87 8.39,-2.95 17.32,-4.68 21.75,-10.73zm71.92 2.31c0,8.17 -7.94,14.84 -14.79,17.7 -12.61,5.28 -69.29,24.16 -73.89,28.19 -4.64,4.06 -16.46,39.35 -19.69,47.6 -3.46,8.86 -6.5,17.59 -9.53,25.26 -3.29,8.34 -6.79,16.01 -17.28,17.17 -26.04,2.89 -34.21,-70.2 -47.71,-87.59 -4.42,-5.69 -38.66,-16.97 -47.15,-20.13 -9.23,-3.44 -17.05,-6.26 -25.53,-9.27 -25.27,-8.96 -21.52,-29.8 -5.77,-36.65 37.34,-16.24 74.25,-18.96 81.85,-38.8l23.68 -64.49c7.92,-22.67 30.23,-20.56 37.27,-1.73 4.93,13.19 24.88,70.94 29.32,75.09 17.33,16.2 89.22,20.02 89.22,47.65z"/>
   <path class="fil0" d="M115.04 302.93l-4.64 0c-0.58,6.89 -7.62,24.6 -11.3,28.14 -3.6,3.45 -21.87,9.84 -28.14,11.3l12.22 6.34c17.08,6.52 25.45,14.04 27.22,35.42 17.33,-12.7 -4.8,-28.05 44.08,-39.44 -12.81,-11.14 -36.25,-3.44 -39.44,-41.76zm109.05 37.12c0,22.6 -16.78,22.32 -52.38,35.79 -4.76,1.8 -5.45,2.08 -10.13,3.78 -1.23,0.44 -4.35,1.44 -5.12,1.85 -15.19,8.05 -19.17,74.59 -43.74,74.59 -23.67,0 -27.63,-55.95 -40.34,-71.02 -12.57,-14.89 -71.02,-15.29 -71.02,-40.35 0,-19.72 14.34,-19.36 31.8,-26.2 46.61,-18.24 35.99,-4.81 55.38,-55.98 4.91,-12.97 7.85,-31.51 24.18,-31.51 23.13,0 27.21,53.78 39.03,70.02 4.15,5.71 29.34,13.65 38.52,17.16 10.92,4.18 33.82,9.31 33.82,21.87z"/>
   <g>
    <polygon class="fil0" points="975.33,540.64 1003.2,569.77 1213.81,360.46 1186.08,331.23 "/>
    <path class="fil0" d="M299.02 1191.8l27.07 28.58 90.17 -88.87 -26.52 -27.78c-12.24,3.77 -85.54,80.33 -90.72,88.07z"/>
    <polygon class="fil0" points="1107.73,593.55 1135.68,622.76 1166.09,593.61 1136.88,565.9 "/>
    <path class="fil0" d="M407.02 1082.53c2.93,9.25 5.61,9.82 11.85,15.91 5.77,5.65 8.93,9.62 15.28,13.87l28.58 -27.08 -27.94 -29.2 -27.77 26.5z"/>
    <path class="fil0" d="M453.27 1036.04l27.94 29.21 27.77 -26.5c-2.94,-9.25 -5.62,-9.82 -11.86,-15.91 -5.77,-5.64 -8.93,-9.62 -15.28,-13.86l-28.57 27.06z"/>
    <path class="fil0" d="M1154.22 547.3l26.5 27.76c9.25,-2.93 9.82,-5.61 15.92,-11.85 5.64,-5.77 9.61,-8.93 13.87,-15.28l-27.09 -28.57 -29.2 27.94z"/>
    <path class="fil0" d="M1249.61 263.78l27.71 29.22 29.2 -27.95c-4.68,-6.67 -7.77,-9.08 -13.18,-14.58 -6.27,-6.36 -7.84,-10.21 -16.59,-12.55l-27.14 25.86z"/>
    <path class="fil0" d="M1013.79 687.73c4.69,6.68 7.78,9.08 13.19,14.58 6.26,6.35 7.84,10.22 16.59,12.55l27.13 -25.86 -27.7 -29.21 -29.21 27.94z"/>
    <polygon class="fil0" points="1204.57,311.48 1231.07,339.24 1258.83,312.74 1232.33,284.99 "/>
    <path class="fil0" d="M853.46 580.39l503.41 -504.73 29.17 30.44 -504.71 503.38 50.95 52.39c14.68,-9.83 390.22,-388.89 421.96,-420.63 8.6,-8.6 137.12,-131.83 137.12,-141.1 0,-12.25 -39.74,-47.69 -45.04,-47.69 -16.01,0 -17.99,19.37 -35.07,24.48l-25.87 -27.13c4.49,-6.72 31.69,-37.1 39.74,-37.1l39.74 0c7.01,0 66.25,59.24 66.25,66.25l0 36.92c-1.31,13.67 -7.69,14.49 -33.78,40.58 -62.79,62.78 -522.96,519.18 -533.86,535.17l-30.54 29.19 -51.63 50.34 -29.11 30.54 -47.08 45.65c-8.26,-5.52 -24.06,-20.07 -27.11,-29.75l45.04 -46.47 -51.72 -50.31 -133.76 132.45 51.58 53 60.89 -59.5 29.2 27.7 -59.45 60.84 17.08 18.69 -82.16 80.86 -22.37 -21.13 -21.21 19.65 22.41 23.95 -79.56 78.27 -27.69 -29.19 48.95 -50.39 -88.73 -87.43 -230.51 229.15 88.72 90.11 153.03 -151.68c8.97,2.39 24.06,18.97 29.8,27.14l-181.33 182.69 -15.39 -13.76c-9.05,6.06 -33.85,37.1 -42.4,37.1l-24.36 0c-16.55,-0.84 -15.5,-6.74 -49.17,-40.41 -33.66,-33.67 -39.57,-32.61 -40.41,-49.17l0 -24.36c0,-8.55 31.04,-33.35 37.61,-42.89l-13.1 -14.75 121.22 -122.54c-7.51,-5.03 -12.43,-11.17 -19.2,-17.87 -6.43,-6.37 -12.72,-9.81 -15.9,-19.87l100.75 -99.45 35.67 37.13 66.24 -64.84 21.2 22.44 21.13 -22.36 -21.12 -22.67 82.02 -80.66 18.68 17.09 132.49 -133.79 30.52 -29.1 50.96 -52.39 29.81 -28.48zm-639.85 688.87l27.74 -26.49 59.7 58.28 -27.89 29.17 -59.55 -60.96zm133.11 -223.19l-4.77 -5.83 43.87 -45.15 5.41 6.46c-2.42,10.53 -12.39,16.37 -20.01,23.99 -7.61,7.61 -13.45,17.58 -24.5,20.53zm192.77 -84.15l19.75 -21.3 43.89 42.46 -19.98 21.22 -43.66 -42.38zm50.36 -96.66l88.72 87.42 -23.87 25.12 -87.42 -88.71 22.57 -23.83zm211.96 -173.6l50.35 -51.64 51.63 50.35 -50.35 51.63 -51.63 -50.34z"/>
   </g>
   <polygon class="fil0" points="453.55,75.63 425.6,104.84 395.19,75.68 424.4,47.98 "/>
   <polygon class="fil0" points="1428.19,287.26 1456.13,316.46 1486.55,287.31 1457.33,259.6 "/>
   <path class="fil0" d="M407.06 29.38l-26.5 27.75c-9.25,-2.93 -9.82,-5.61 -15.91,-11.84 -5.65,-5.78 -9.62,-8.93 -13.87,-15.28l27.08 -28.58 29.2 27.95z"/>
   <path class="fil0" d="M1474.68 241l26.49 27.76c9.25,-2.93 9.82,-5.61 15.92,-11.84 5.64,-5.78 9.61,-8.94 13.87,-15.28l-27.09 -28.58 -29.19 27.94z"/>
   <path class="fil0" d="M547.49 169.81c-4.69,6.67 -7.78,9.07 -13.19,14.57 -6.26,6.36 -7.84,10.22 -16.59,12.55l-27.13 -25.85 27.7 -29.21 29.21 27.94z"/>
  </g>
 </g>
</svg>
