<?xml version="1.0" encoding="UTF-8"?>
<!DOCTYPE svg PUBLIC "-//W3C//DTD SVG 1.1//EN" "http://www.w3.org/Graphics/SVG/1.1/DTD/svg11.dtd">
<!-- Creator: CorelDRAW -->
<svg xmlns="http://www.w3.org/2000/svg" xml:space="preserve" width="91.44mm" height="33.8666mm" style="shape-rendering:geometricPrecision; text-rendering:geometricPrecision; image-rendering:optimizeQuality; fill-rule:evenodd; clip-rule:evenodd"
viewBox="0 0 91.44 33.8666"
 xmlns:xlink="http://www.w3.org/1999/xlink">
 <defs>
  <style type="text/css">
   <![CDATA[
    .fil0 {fill:none}
    .fil1 {fill:black}
    .fil2 {fill:black;fill-rule:nonzero}
    .fil4 {fill:#4D4D4D;fill-rule:nonzero}
    .fil3 {fill:gray;fill-rule:nonzero}
   ]]>
  </style>
 </defs>
 <g id="Capa_x0020_1">
  <metadata id="CorelCorpID_0Corel-Layer"/>
  <rect class="fil0" width="91.44" height="33.8666"/>
  <path id="_344688800" class="fil1" d="M2.3156 25.2351c-0.0668,-0.0027 -0.6192,0.3083 -0.6347,0.349 -0.0171,0.0448 0.0034,0.0856 0.0423,0.0955 0.0532,0.0132 0.3154,-0.1513 0.3774,-0.1854 0.2518,-0.1385 0.3215,-0.1538 0.215,-0.2589l0 -0.0002z"/>
  <path id="_344689760" class="fil1" d="M3.604 0.2205l0.3803 -0.1655 -0.0036 22.6688c-0.1445,-0.2894 -0.2741,-0.3178 -0.3823,0.0262l0.0051 -22.5269 0.0005 -0.0026z"/>
  <path id="_344689808" class="fil1" d="M2.9215 25.0658c0.744,0.6978 1.6781,0.146 1.7487,-0.0369l-0.4363 0.002c-0.0785,0.0039 -0.1304,0.0009 -0.2132,0.0048 -0.2586,0.0113 -0.6381,-0.0012 -0.8842,0.0113 -0.0798,0.0039 -0.1851,-0.0062 -0.215,0.0188z"/>
  <path id="_344690336" class="fil1" d="M3.9345 26.181c-0.1501,-0.0219 -0.1121,0.1296 -0.1143,0.3774 -0.0026,0.2958 -0.0433,0.4074 0.113,0.382 0.0529,-0.0797 0.0309,-0.2622 0.0323,-0.3808 0.0009,-0.1277 0.0223,-0.3107 -0.0306,-0.3786l-0.0004 0z"/>
  <path id="_344690504" class="fil1" d="M4.9472 26.3562c0.0208,0.0372 0.1752,0.3978 0.2557,0.2308 0.0287,-0.0601 -0.1388,-0.3131 -0.1752,-0.3783 -0.1358,-0.242 -0.1431,-0.3131 -0.262,-0.2479 -0.0148,0.0856 0.0377,0.1484 0.076,0.2129 0.036,0.0609 0.0718,0.1226 0.1054,0.1827l0.0001 -0.0002z"/>
  <path id="_344690816" class="fil1" d="M6.1281 25.6339c-0.0113,-0.054 -0.2908,-0.1966 -0.3488,-0.2321 -0.0515,-0.0312 -0.2276,-0.1569 -0.2853,-0.1372 -0.0291,0.0096 -0.0555,0.0411 -0.0474,0.0868 0.0074,0.0419 0.2752,0.1826 0.3481,0.2259 0.0528,0.0315 0.3747,0.2569 0.3333,0.0569l0.0001 -0.0003z"/>
  <path id="_344690672" class="fil1" d="M3.0199 26.0442c0.052,-0.0959 -0.0392,-0.1707 -0.1087,-0.0995l-0.318 0.5356c-0.0564,0.1081 0.0506,0.1597 0.1086,0.0963l0.2173 -0.3614c0.0354,-0.0564 0.0718,-0.1175 0.1008,-0.1713l0 0.0003z"/>
  <path id="_344691776" class="fil1" d="M3.097 23.1905c0.3294,-0.0411 0.2795,-0.0642 0.6686,-0.0693 0.2502,-0.0031 0.4276,0.0287 0.6639,0.0501 -0.0022,-0.2879 -0.0056,-0.4335 -0.1549,-0.6228 -0.0935,-0.119 -0.2882,-0.2414 -0.5206,-0.2389 -0.2352,0.0027 -0.411,0.1196 -0.5161,0.2509 -0.1372,0.1713 -0.1473,0.3528 -0.1409,0.6299l0 0.0001z"/>
  <path id="_344691656" class="fil1" d="M3.1486 23.2666c-0.0211,0.0609 -0.0983,0.058 -0.2631,0.1938 -0.1682,0.1386 -0.3135,0.3028 -0.4383,0.4873 -0.1667,0.2473 -0.4082,0.7775 -0.4279,1.0158 0.1189,0.0211 0.3161,-0.0059 0.4496,-0.0013 0.0755,0.0025 0.1476,-0.0054 0.2234,-0.0026l2.6713 -0.0466c0.0698,0.0028 0.1403,-0.0013 0.2076,-0.007 -0.1753,-0.6067 -0.4784,-1.2386 -1.1871,-1.6403 -0.0043,-0.0048 -0.0071,-0.0119 -0.0093,-0.0204 -0.4553,-0.0504 -0.7724,-0.0496 -1.2262,0.0217l0 -0.0004z"/>
  <path class="fil2" d="M12.0176 14.3434l0 -7.0231 1.9822 0c0.6107,0 1.1507,0.135 1.6216,0.405 0.4692,0.27 0.8314,0.6552 1.0865,1.1524 0.2569,0.4988 0.3853,1.0717 0.3886,1.7171l0 0.4494c0,0.6618 -0.1285,1.243 -0.3836,1.7418 -0.2552,0.4972 -0.6207,0.8808 -1.0948,1.1475 -0.4742,0.2667 -1.0257,0.4033 -1.6562,0.4099l-1.9443 0zm0.9269 -6.2609l0 5.5036 0.9729 0c0.7145,0 1.2693,-0.2222 1.6678,-0.6651 0.3967,-0.4445 0.5943,-1.0767 0.5943,-1.8965l0 -0.41c0,-0.7968 -0.1861,-1.4174 -0.5614,-1.8586 -0.3737,-0.4429 -0.9055,-0.6668 -1.5936,-0.6734l-1.08 0z"/>
  <path id="1" class="fil2" d="M18.1205 11.6863c0,-0.512 0.1004,-0.9713 0.3012,-1.3796 0.2009,-0.41 0.4808,-0.7244 0.8396,-0.9467 0.3573,-0.2222 0.7672,-0.3325 1.2265,-0.3325 0.7112,0 1.2858,0.2453 1.7254,0.7375 0.4379,0.4923 0.6568,1.1475 0.6568,1.9641l0 0.0625c0,0.5087 -0.0971,0.9648 -0.2914,1.3681 -0.1942,0.4034 -0.4724,0.7178 -0.8346,0.9433 -0.3606,0.2256 -0.7771,0.3375 -1.2463,0.3375 -0.7079,0 -1.2808,-0.2453 -1.7187,-0.7375 -0.4396,-0.4923 -0.6585,-1.1442 -0.6585,-1.9542l0 -0.0625zm0.8972 0.1053c0,0.5795 0.1333,1.0438 0.4017,1.3945 0.2683,0.3506 0.6289,0.5268 1.0783,0.5268 0.4528,0 0.8133,-0.1778 1.08,-0.5334 0.2667,-0.3556 0.4,-0.8528 0.4,-1.4932 0,-0.5729 -0.135,-1.0372 -0.4066,-1.3928 -0.2716,-0.3556 -0.6322,-0.5334 -1.0833,-0.5334 -0.4395,0 -0.7951,0.1762 -1.0651,0.5268 -0.27,0.3507 -0.405,0.8512 -0.405,1.5047z"/>
  <path id="12" class="fil2" d="M24.834 9.1246l0.0297 0.6553c0.3984,-0.5022 0.9186,-0.7524 1.5623,-0.7524 1.103,0 1.6595,0.6223 1.6694,1.8669l0 3.449 -0.8923 0 0 -3.4539c-0.0033,-0.377 -0.0906,-0.6553 -0.2585,-0.8347 -0.1696,-0.1795 -0.4313,-0.27 -0.7886,-0.27 -0.2897,0 -0.5433,0.0774 -0.7622,0.2321 -0.219,0.1531 -0.3885,0.3556 -0.512,0.6075l0 3.719 -0.8923 0 0 -5.2188 0.8445 0z"/>
  <polygon id="123" class="fil2" points="29.9853,7.4701 29.8849,9.2448 29.2626,9.2448 29.2675,6.935 29.9853,6.935 "/>
  <path id="1234" class="fil2" d="M32.3741 7.8603l0 1.2643 0.9729 0 0 0.6898 -0.9729 0 0 3.2367c0,0.209 0.0428,0.3654 0.13,0.4708 0.0856,0.1037 0.2338,0.1564 0.4429,0.1564 0.1037,0 0.2453,-0.0198 0.4247,-0.0576l0 0.7227c-0.2354,0.0642 -0.4626,0.0971 -0.6848,0.0971 -0.3984,0 -0.6997,-0.1201 -0.9022,-0.3622 -0.2025,-0.2403 -0.3029,-0.5827 -0.3029,-1.0272l0 -3.2367 -0.9516 0 0 -0.6898 0.9516 0 0 -1.2643 0.8923 0z"/>
  <path id="12345" class="fil2" d="M42.3753 11.059c0,0.6882 -0.1152,1.2891 -0.3473,1.8011 -0.2305,0.5136 -0.5581,0.9054 -0.9829,1.1754 -0.4247,0.27 -0.9203,0.405 -1.4866,0.405 -0.5515,0 -1.0421,-0.1366 -1.4701,-0.4083 -0.4281,-0.2716 -0.7606,-0.6585 -0.996,-1.1622 -0.2371,-0.5022 -0.3573,-1.085 -0.3639,-1.7484l0 -0.5054c0,-0.6767 0.1169,-1.2726 0.3523,-1.7896 0.2338,-0.5185 0.5664,-0.9153 0.996,-1.1902 0.4281,-0.275 0.9203,-0.4116 1.4735,-0.4116 0.5614,0 1.0585,0.1366 1.4866,0.4083 0.4297,0.2716 0.7606,0.6651 0.9911,1.1804 0.2321,0.5169 0.3473,1.1178 0.3473,1.8027l0 0.4428zm-0.9203 -0.4543c0,-0.8331 -0.1679,-1.4718 -0.5021,-1.9163 -0.3342,-0.4462 -0.8017,-0.6684 -1.4026,-0.6684 -0.5861,0 -1.0471,0.2222 -1.3829,0.6684 -0.3359,0.4445 -0.5087,1.0635 -0.5186,1.8537l0 0.5169c0,0.8067 0.1696,1.4405 0.5087,1.9032 0.3391,0.4609 0.8067,0.6914 1.401,0.6914 0.5993,0 1.0619,-0.2173 1.3895,-0.6536 0.3276,-0.4363 0.4972,-1.0602 0.507,-1.8735l0 -0.5218z"/>
  <path id="123456" class="fil2" d="M48.0337 11.7916c0,0.7952 -0.1828,1.434 -0.545,1.9196 -0.3638,0.4857 -0.856,0.7293 -1.4767,0.7293 -0.6338,0 -1.131,-0.2008 -1.4948,-0.6025l0 2.5122 -0.8923 0 0 -7.2256 0.8149 0 0.0445 0.5779c0.3621,-0.4495 0.8676,-0.675 1.5129,-0.675 0.6272,0 1.1244,0.2371 1.4883,0.7096 0.3654,0.4724 0.5482,1.1293 0.5482,1.9722l0 0.0823zm-0.8923 -0.1004c0,-0.5894 -0.1251,-1.0536 -0.377,-1.3944 -0.2503,-0.3408 -0.5943,-0.512 -1.0323,-0.512 -0.5399,0 -0.9449,0.2404 -1.2149,0.7194l0 2.4942c0.2667,0.4758 0.675,0.7145 1.2248,0.7145 0.4281,0 0.7672,-0.1696 1.0207,-0.5087 0.2519,-0.3392 0.3787,-0.8446 0.3787,-1.513z"/>
  <path id="1234567" class="fil2" d="M51.3328 14.4405c-0.7079,0 -1.2841,-0.2321 -1.727,-0.6964 -0.4445,-0.4659 -0.6651,-1.0865 -0.6651,-1.8652l0 -0.1646c0,-0.517 0.0988,-0.9796 0.2964,-1.3862 0.1975,-0.4067 0.4741,-0.726 0.8297,-0.9549 0.3556,-0.2305 0.7392,-0.3457 1.1541,-0.3457 0.6782,0 1.2067,0.2239 1.5821,0.67 0.377,0.4478 0.5646,1.0866 0.5646,1.9196l0 0.3721 -3.5346 0c0.0116,0.5153 0.163,0.9318 0.4511,1.2479 0.2865,0.3177 0.6536,0.4758 1.0965,0.4758 0.3144,0 0.5827,-0.0642 0.8001,-0.1927 0.2189,-0.13 0.4099,-0.2996 0.5745,-0.5119l0.5449 0.4247c-0.4379,0.6717 -1.0931,1.0075 -1.9673,1.0075zm-0.1119 -4.6804c-0.3589,0 -0.6618,0.1317 -0.9055,0.3935 -0.2453,0.2617 -0.3968,0.6305 -0.4544,1.103l2.6143 0 0 -0.0675c-0.0263,-0.4544 -0.1481,-0.8051 -0.3671,-1.0553 -0.2173,-0.2486 -0.5136,-0.3737 -0.8873,-0.3737z"/>
  <path id="12345678" class="fil2" d="M55.2444 9.1246l0.0297 0.6553c0.3984,-0.5022 0.9186,-0.7524 1.5623,-0.7524 1.103,0 1.6595,0.6223 1.6694,1.8669l0 3.449 -0.8923 0 0 -3.4539c-0.0033,-0.377 -0.0906,-0.6553 -0.2585,-0.8347 -0.1696,-0.1795 -0.4313,-0.27 -0.7886,-0.27 -0.2897,0 -0.5433,0.0774 -0.7622,0.2321 -0.219,0.1531 -0.3885,0.3556 -0.512,0.6075l0 3.719 -0.8923 0 0 -5.2188 0.8445 0z"/>
  <path id="123456789" class="fil2" d="M16.1388 18.8379l0 4.0936c-0.0028,0.5673 -0.1806,1.0316 -0.5348,1.3928 -0.3542,0.3612 -0.834,0.5644 -1.4408,0.6082l-0.2116 0.0085c-0.6576,0 -1.1826,-0.1778 -1.5749,-0.5334 -0.3908,-0.3556 -0.5898,-0.8453 -0.5954,-1.4676l0 -4.1021 0.7859 0 0 4.0767c0,0.436 0.12,0.7747 0.3599,1.016 0.2399,0.2413 0.5814,0.3612 1.0245,0.3612 0.4501,0 0.793,-0.1199 1.0315,-0.3598 0.2385,-0.2399 0.3584,-0.5771 0.3584,-1.0132l0 -4.0809 0.7973 0z"/>
  <path id="12345678910" class="fil2" d="M17.9959 20.3845l0.0254 0.5616c0.3415,-0.4304 0.7874,-0.6449 1.3391,-0.6449 0.9455,0 1.4224,0.5334 1.4309,1.6002l0 2.9563 -0.7648 0 0 -2.9605c-0.0029,-0.3232 -0.0777,-0.5616 -0.2216,-0.7155 -0.1453,-0.1538 -0.3697,-0.2314 -0.6759,-0.2314 -0.2484,0 -0.4657,0.0663 -0.6534,0.199 -0.1876,0.1312 -0.333,0.3048 -0.4388,0.5207l0 3.1877 -0.7648 0 0 -4.4732 0.7239 0z"/>
  <path id="1234567891011" class="fil2" d="M22.9827 19.3007l0 1.0838 0.834 0 0 0.5912 -0.834 0 0 2.7743c0,0.1792 0.0367,0.3132 0.1115,0.4036 0.0734,0.0889 0.2004,0.134 0.3796,0.134 0.0889,0 0.2103,-0.0169 0.3641,-0.0494l0 0.6195c-0.2018,0.055 -0.3965,0.0833 -0.587,0.0833 -0.3415,0 -0.5998,-0.1031 -0.7733,-0.3105 -0.1736,-0.206 -0.2597,-0.4995 -0.2597,-0.8805l0 -2.7743 -0.8156 0 0 -0.5912 0.8156 0 0 -1.0838 0.7648 0z"/>
  <path id="123456789101112" class="fil2" d="M25.5411 24.8577l-0.7648 0 0 -4.4732 0.7648 0 0 4.4732zm-0.8269 -5.66c0,-0.1228 0.0381,-0.2286 0.1143,-0.3133 0.0748,-0.086 0.1877,-0.1284 0.3358,-0.1284 0.1496,0 0.2625,0.0424 0.3401,0.1284 0.0762,0.0847 0.1157,0.1905 0.1157,0.3133 0,0.1242 -0.0395,0.2286 -0.1157,0.3105 -0.0776,0.0832 -0.1905,0.1241 -0.3401,0.1241 -0.1481,0 -0.261,-0.0409 -0.3358,-0.1241 -0.0762,-0.0819 -0.1143,-0.1863 -0.1143,-0.3105z"/>
  <polygon id="12345678910111213" class="fil2" points="27.5957,24.8577 26.8309,24.8577 26.8309,18.5077 27.5957,18.5077 "/>
  <path id="1234567891011121314" class="fil2" d="M35.4627 22.9485c-0.0748,0.6364 -0.309,1.1274 -0.7056,1.4732 -0.3951,0.3457 -0.9214,0.5193 -1.5762,0.5193 -0.7112,0 -1.2813,-0.2555 -1.7103,-0.7649 -0.4289,-0.5094 -0.642,-1.1924 -0.642,-2.0461l0 -0.5785c0,-0.5603 0.0988,-1.0527 0.2991,-1.4761 0.2004,-0.4247 0.4826,-0.7507 0.8495,-0.9779 0.3669,-0.2272 0.7917,-0.3415 1.2729,-0.3415 0.6406,0 1.1528,0.1778 1.5381,0.5348 0.3866,0.3571 0.611,0.8509 0.6745,1.4831l-0.7987 0c-0.0677,-0.4798 -0.2173,-0.8269 -0.4473,-1.0428 -0.2315,-0.2145 -0.5532,-0.3217 -0.9666,-0.3217 -0.5066,0 -0.9046,0.1877 -1.1924,0.5616 -0.2879,0.3754 -0.4318,0.9088 -0.4318,1.6002l0 0.5828c0,0.6533 0.1368,1.1726 0.4092,1.5593 0.2723,0.3852 0.6547,0.5785 1.1458,0.5785 0.4403,0 0.7789,-0.1001 1.0146,-0.2991 0.2357,-0.2004 0.3923,-0.5489 0.4685,-1.0442l0.7987 0z"/>
  <path id="123456789101112131415" class="fil2" d="M37.1899 20.9249c0.3401,-0.4163 0.7803,-0.6237 1.3236,-0.6237 0.9455,0 1.4224,0.5334 1.4295,1.6002l0 2.9563 -0.7649 0 0 -2.9605c-0.0014,-0.3232 -0.0762,-0.5616 -0.2201,-0.7155 -0.1453,-0.1538 -0.3697,-0.2314 -0.6759,-0.2314 -0.2484,0 -0.4657,0.0663 -0.6534,0.199 -0.1876,0.1312 -0.333,0.3048 -0.4388,0.5207l0 3.1877 -0.7648 0 0 -6.35 0.7648 0 0 2.4172z"/>
  <path id="12345678910111213141516" class="fil2" d="M43.2506 21.0703c-0.1157,-0.0198 -0.2413,-0.0297 -0.3754,-0.0297 -0.5023,0 -0.8424,0.2131 -1.0216,0.6407l0 3.1764 -0.7648 0 0 -4.4732 0.7436 0 0.0127 0.5164c0.2512,-0.3993 0.6068,-0.5997 1.0668,-0.5997 0.1482,0 0.2625,0.0198 0.3387,0.0579l0 0.7112z"/>
  <path id="1234567891011121314151617" class="fil2" d="M44.7845 24.8577l-0.7648 0 0 -4.4732 0.7648 0 0 4.4732zm-0.8269 -5.66c0,-0.1228 0.0381,-0.2286 0.1143,-0.3133 0.0748,-0.086 0.1877,-0.1284 0.3358,-0.1284 0.1496,0 0.2625,0.0424 0.3401,0.1284 0.0762,0.0847 0.1157,0.1905 0.1157,0.3133 0,0.1242 -0.0395,0.2286 -0.1157,0.3105 -0.0776,0.0832 -0.1905,0.1241 -0.3401,0.1241 -0.1481,0 -0.261,-0.0409 -0.3358,-0.1241 -0.0762,-0.0819 -0.1143,-0.1863 -0.1143,-0.3105z"/>
  <path id="123456789101112131415161718" class="fil2" d="M48.6129 23.6724c0,-0.2075 -0.0776,-0.3683 -0.2343,-0.4826 -0.1552,-0.1143 -0.4261,-0.2131 -0.8142,-0.2964 -0.3866,-0.0818 -0.6942,-0.182 -0.9214,-0.2977 -0.2272,-0.1157 -0.3952,-0.2526 -0.5038,-0.4135 -0.1101,-0.1594 -0.1637,-0.3499 -0.1637,-0.5701 0,-0.3669 0.1552,-0.6773 0.4643,-0.9299 0.3104,-0.254 0.7069,-0.381 1.1895,-0.381 0.5066,0 0.9187,0.1312 1.2333,0.3923 0.3161,0.2625 0.4742,0.5969 0.4742,1.0047l-0.7691 0c0,-0.2088 -0.0889,-0.3895 -0.2667,-0.5419 -0.1778,-0.1509 -0.4021,-0.2271 -0.6717,-0.2271 -0.2794,0 -0.4967,0.0606 -0.6533,0.182 -0.1567,0.1213 -0.2357,0.2808 -0.2357,0.4755 0,0.1849 0.0734,0.3246 0.2188,0.4191 0.1467,0.0932 0.4106,0.1835 0.7916,0.2681 0.3824,0.0861 0.6914,0.1877 0.9285,0.3063 0.2371,0.1185 0.412,0.261 0.5263,0.4275 0.1143,0.1679 0.1722,0.3711 0.1722,0.6096 0,0.4008 -0.1595,0.7211 -0.4798,0.9624 -0.3189,0.2413 -0.7338,0.3613 -1.2446,0.3613 -0.3584,0 -0.6745,-0.0635 -0.9511,-0.1905 -0.2751,-0.127 -0.491,-0.3034 -0.6463,-0.5306 -0.1552,-0.2272 -0.2342,-0.4742 -0.2342,-0.738l0.7648 0c0.0141,0.2568 0.1171,0.46 0.3091,0.6096 0.1905,0.151 0.4445,0.2257 0.7577,0.2257 0.2893,0 0.5221,-0.0592 0.6971,-0.1763 0.175,-0.1172 0.2625,-0.2738 0.2625,-0.4685z"/>
  <path id="12345678910111213141516171819" class="fil2" d="M51.4125 19.3007l0 1.0838 0.834 0 0 0.5912 -0.834 0 0 2.7743c0,0.1792 0.0367,0.3132 0.1115,0.4036 0.0734,0.0889 0.2004,0.134 0.3796,0.134 0.0889,0 0.2103,-0.0169 0.3641,-0.0494l0 0.6195c-0.2018,0.055 -0.3965,0.0833 -0.587,0.0833 -0.3415,0 -0.5998,-0.1031 -0.7733,-0.3105 -0.1736,-0.206 -0.2597,-0.4995 -0.2597,-0.8805l0 -2.7743 -0.8156 0 0 -0.5912 0.8156 0 0 -1.0838 0.7648 0z"/>
  <path id="1234567891011121314151617181920" class="fil2" d="M53.8594 20.3845l0.0212 0.4953c0.3274,-0.3853 0.7705,-0.5786 1.3264,-0.5786 0.6252,0 1.0513,0.2399 1.2771,0.7197 0.1496,-0.2159 0.3429,-0.3895 0.5814,-0.5207 0.2385,-0.1327 0.5207,-0.199 0.8452,-0.199 0.9808,0 1.4803,0.5193 1.4972,1.5593l0 2.9972 -0.7648 0 0 -2.9521c0,-0.3203 -0.0734,-0.5588 -0.2201,-0.7182 -0.1454,-0.1581 -0.3909,-0.2371 -0.7352,-0.2371 -0.2836,0 -0.5193,0.0847 -0.707,0.254 -0.1877,0.1694 -0.2963,0.398 -0.3274,0.6844l0 2.969 -0.7676 0 0 -2.9309c0,-0.6505 -0.3189,-0.9765 -0.9553,-0.9765 -0.5024,0 -0.8453,0.2131 -1.0302,0.6407l0 3.2667 -0.7648 0 0 -4.4732 0.7239 0z"/>
  <path id="123456789101112131415161718192021" class="fil2" d="M63.3224 24.8577c-0.0437,-0.0875 -0.079,-0.2455 -0.1072,-0.4713 -0.3556,0.3697 -0.7804,0.5546 -1.2729,0.5546 -0.4416,0 -0.8029,-0.1242 -1.0851,-0.374 -0.2822,-0.2498 -0.4233,-0.5658 -0.4233,-0.9497 0,-0.4656 0.1763,-0.8269 0.5305,-1.0851 0.3542,-0.2583 0.8524,-0.3867 1.4944,-0.3867l0.7437 0 0 -0.3513c0,-0.2667 -0.0791,-0.4798 -0.2399,-0.6393 -0.1595,-0.158 -0.3951,-0.237 -0.707,-0.237 -0.2723,0 -0.5009,0.0691 -0.6858,0.206 -0.1849,0.1383 -0.2766,0.3048 -0.2766,0.5009l-0.769 0c0,-0.2229 0.079,-0.4388 0.237,-0.6477 0.1595,-0.2074 0.374,-0.3725 0.6449,-0.4939 0.2724,-0.1213 0.5701,-0.182 0.8961,-0.182 0.515,0 0.9186,0.1284 1.2107,0.3867 0.2921,0.2582 0.4445,0.6124 0.4544,1.0639l0 2.0603c0,0.4106 0.0522,0.7366 0.158,0.9793l0 0.0663 -0.8029 0zm-1.2686 -0.5828c0.2399,0 0.4671,-0.0621 0.6816,-0.1863 0.2159,-0.1241 0.3711,-0.285 0.4671,-0.484l0 -0.9172 -0.5983 0c-0.937,0 -1.4055,0.2738 -1.4055,0.8227 0,0.2399 0.079,0.4276 0.2385,0.5616 0.1608,0.1355 0.3654,0.2032 0.6166,0.2032z"/>
  <path id="12345678910111213141516171819202122" class="fil2" d="M67.7717 23.6724c0,-0.2075 -0.0776,-0.3683 -0.2343,-0.4826 -0.1552,-0.1143 -0.4261,-0.2131 -0.8142,-0.2964 -0.3866,-0.0818 -0.6942,-0.182 -0.9214,-0.2977 -0.2272,-0.1157 -0.3952,-0.2526 -0.5038,-0.4135 -0.1101,-0.1594 -0.1637,-0.3499 -0.1637,-0.5701 0,-0.3669 0.1552,-0.6773 0.4643,-0.9299 0.3104,-0.254 0.7069,-0.381 1.1895,-0.381 0.5066,0 0.9187,0.1312 1.2333,0.3923 0.3161,0.2625 0.4742,0.5969 0.4742,1.0047l-0.7691 0c0,-0.2088 -0.0889,-0.3895 -0.2667,-0.5419 -0.1778,-0.1509 -0.4021,-0.2271 -0.6717,-0.2271 -0.2794,0 -0.4967,0.0606 -0.6533,0.182 -0.1567,0.1213 -0.2357,0.2808 -0.2357,0.4755 0,0.1849 0.0734,0.3246 0.2188,0.4191 0.1467,0.0932 0.4106,0.1835 0.7916,0.2681 0.3824,0.0861 0.6914,0.1877 0.9285,0.3063 0.2371,0.1185 0.412,0.261 0.5263,0.4275 0.1143,0.1679 0.1722,0.3711 0.1722,0.6096 0,0.4008 -0.1595,0.7211 -0.4798,0.9624 -0.3189,0.2413 -0.7338,0.3613 -1.2446,0.3613 -0.3584,0 -0.6745,-0.0635 -0.9511,-0.1905 -0.2751,-0.127 -0.491,-0.3034 -0.6463,-0.5306 -0.1552,-0.2272 -0.2342,-0.4742 -0.2342,-0.738l0.7648 0c0.0141,0.2568 0.1171,0.46 0.3091,0.6096 0.1905,0.151 0.4445,0.2257 0.7577,0.2257 0.2893,0 0.5221,-0.0592 0.6971,-0.1763 0.175,-0.1172 0.2625,-0.2738 0.2625,-0.4685z"/>
  <path id="1234567891011121314151617181920212223" class="fil2" d="M70.3893 23.1587l-0.6914 0 -0.0537 -4.3208 0.803 0 -0.0579 4.3208zm-0.7733 1.3138c0,-0.1228 0.0381,-0.2272 0.1129,-0.3119 0.0762,-0.0832 0.1891,-0.1256 0.3373,-0.1256 0.1495,0 0.2624,0.0424 0.3386,0.1256 0.0776,0.0847 0.1157,0.1891 0.1157,0.3119 0,0.1241 -0.0381,0.2272 -0.1157,0.309 -0.0762,0.0804 -0.1891,0.1214 -0.3386,0.1214 -0.1482,0 -0.2611,-0.041 -0.3373,-0.1214 -0.0748,-0.0818 -0.1129,-0.1849 -0.1129,-0.309z"/>
  <polygon class="fil3" points="4.5853,28.4019 4.5853,28.619 3.3867,28.619 3.3867,28.4019 "/>
  <path id="1" class="fil3" d="M4.2516 29.4543l0 0.2162 -0.8649 0 0 -0.2162 0.0914 0c-0.0404,-0.0423 -0.0692,-0.0849 -0.0871,-0.1275 -0.0176,-0.0429 -0.0265,-0.089 -0.0265,-0.1389 0,-0.1118 0.0434,-0.2084 0.1299,-0.29 0.0866,-0.0817 0.1943,-0.1224 0.3231,-0.1224 0.1335,0 0.2428,0.0393 0.3283,0.1183 0.0852,0.0789 0.1281,0.175 0.1281,0.2878 0,0.0518 -0.0101,0.1007 -0.0296,0.1463 -0.0196,0.0455 -0.0491,0.0876 -0.0882,0.1264l0.0955 0zm-0.1782 -0.2282c0,-0.0673 -0.0236,-0.1231 -0.0711,-0.1676 -0.0475,-0.0445 -0.1083,-0.0668 -0.1823,-0.0668 -0.0749,0 -0.1362,0.0225 -0.1845,0.0678 -0.0483,0.0454 -0.0725,0.1012 -0.0725,0.1674 0,0.0684 0.0239,0.1251 0.0714,0.1701 0.0472,0.0451 0.1093,0.0676 0.1864,0.0676 0.0751,0 0.1362,-0.0225 0.1826,-0.0676 0.0466,-0.045 0.07,-0.102 0.07,-0.1709z"/>
  <path id="12" class="fil3" d="M4.2739 31.5352c0,0.0344 -0.0123,0.0637 -0.0367,0.0881 -0.0244,0.0245 -0.0537,0.0367 -0.0881,0.0367 -0.034,0 -0.0633,-0.0122 -0.0877,-0.0367 -0.0244,-0.0244 -0.0363,-0.0537 -0.0363,-0.0881 0,-0.0345 0.0119,-0.0641 0.0361,-0.0882 0.0241,-0.0244 0.0534,-0.0366 0.0879,-0.0366 0.0344,0 0.0637,0.0122 0.0881,0.0366 0.0244,0.0241 0.0367,0.0537 0.0367,0.0882zm-0.6607 0c0,0.0344 -0.0119,0.0637 -0.036,0.0881 -0.0242,0.0245 -0.0535,0.0367 -0.0879,0.0367 -0.0345,0 -0.0638,-0.0122 -0.0882,-0.0367 -0.0244,-0.0244 -0.0366,-0.0537 -0.0366,-0.0881 0,-0.0345 0.0122,-0.0641 0.0366,-0.0882 0.0244,-0.0244 0.0537,-0.0366 0.0882,-0.0366 0.0344,0 0.0637,0.0122 0.0879,0.0366 0.0241,0.0241 0.036,0.0537 0.036,0.0882z"/>
  <path id="123" class="fil3" d="M4.2516 29.9033l0 0.1104 -0.1495 0c0.0551,0.0388 0.0952,0.0784 0.1207,0.1194 0.034,0.0561 0.0511,0.1153 0.0511,0.1771 0,0.0418 -0.0085,0.0817 -0.0247,0.1194 -0.0166,0.0374 -0.0383,0.0684 -0.0657,0.092 -0.0274,0.0238 -0.0665,0.0445 -0.1172,0.0621 0.0678,0.0372 0.1194,0.0836 0.1546,0.1392 0.0353,0.0556 0.053,0.1153 0.053,0.1796 0,0.0597 -0.0152,0.1126 -0.0454,0.1584 -0.0303,0.0459 -0.0724,0.08 -0.1264,0.1023 -0.054,0.0222 -0.1351,0.0334 -0.2433,0.0334l-0.4721 0 0 -0.1137 0.4721 0c0.0927,0 0.1565,-0.0068 0.1912,-0.0198 0.0348,-0.0133 0.0627,-0.0361 0.0839,-0.0681 0.0211,-0.032 0.0317,-0.0703 0.0317,-0.1148 0,-0.0542 -0.0157,-0.1036 -0.0477,-0.1484 -0.0318,-0.0447 -0.0741,-0.0773 -0.127,-0.0982 -0.0532,-0.0206 -0.1416,-0.0309 -0.2656,-0.0309l-0.3386 0 0 -0.1104 0.4428 0c0.1044,0 0.1752,-0.0065 0.2127,-0.0196 0.0371,-0.013 0.0672,-0.0355 0.0898,-0.0678 0.0225,-0.0323 0.0336,-0.0708 0.0336,-0.1153 0,-0.0515 -0.0155,-0.0996 -0.0464,-0.1443 -0.0312,-0.0448 -0.0727,-0.0779 -0.1253,-0.0993 -0.0524,-0.0215 -0.1327,-0.0323 -0.2407,-0.0323l-0.3665 0 0 -0.1104 0.8649 0z"/>
  <path id="1234" class="fil3" d="M4.2516 31.8881l0 0.1104 -0.159 0c0.0603,0.044 0.1056,0.0947 0.1359,0.152 0.0302,0.0572 0.0454,0.121 0.0454,0.1915 0,0.1229 -0.0445,0.2282 -0.133,0.3155 -0.0884,0.0874 -0.1948,0.1311 -0.3193,0.1311 -0.1272,0 -0.2352,-0.0432 -0.3239,-0.13 -0.0888,-0.0865 -0.1332,-0.191 -0.1332,-0.3136 0,-0.0687 0.0143,-0.1321 0.0428,-0.1899 0.0288,-0.0578 0.0714,-0.1099 0.1281,-0.1566l-0.465 0 0 -0.1104 1.1812 0zm-0.0852 0.4452c0,-0.0966 -0.0336,-0.1777 -0.1009,-0.2436 -0.0673,-0.0662 -0.1511,-0.099 -0.2512,-0.099 -0.0657,0 -0.1248,0.0146 -0.1772,0.0439 -0.0526,0.0296 -0.0941,0.0716 -0.1248,0.1264 -0.0306,0.0548 -0.0461,0.1129 -0.0461,0.1737 0,0.0599 0.0155,0.1164 0.0464,0.169 0.0312,0.0526 0.0743,0.0947 0.1299,0.1259 0.0557,0.0314 0.114,0.0469 0.175,0.0469 0.0613,0 0.1197,-0.0155 0.1747,-0.0464 0.0554,-0.0309 0.098,-0.0727 0.1286,-0.1253 0.0304,-0.0524 0.0456,-0.1096 0.0456,-0.1715z"/>
  <path class="fil4" d="M87.764 3.3812c0,0.1126 -0.0398,0.2083 -0.1196,0.2881 -0.0798,0.0797 -0.1755,0.1196 -0.2881,0.1196 -0.1108,0 -0.2065,-0.0399 -0.2864,-0.1196 -0.0798,-0.0798 -0.1188,-0.1755 -0.1188,-0.2881 0,-0.1125 0.039,-0.2091 0.1179,-0.288 0.079,-0.0798 0.1747,-0.1196 0.2873,-0.1196 0.1126,0 0.2083,0.0398 0.2881,0.1196 0.0798,0.0789 0.1196,0.1755 0.1196,0.288zm-2.1586 0c0,0.1126 -0.039,0.2083 -0.1179,0.2881 -0.0789,0.0797 -0.1746,0.1196 -0.2872,0.1196 -0.1127,0 -0.2084,-0.0399 -0.2881,-0.1196 -0.0798,-0.0798 -0.1198,-0.1755 -0.1198,-0.2881 0,-0.1125 0.04,-0.2091 0.1198,-0.288 0.0797,-0.0798 0.1754,-0.1196 0.2881,-0.1196 0.1126,0 0.2083,0.0398 0.2872,0.1196 0.0789,0.0789 0.1179,0.1755 0.1179,0.288z"/>
  <path id="1" class="fil4" d="M86.2393 6.8606c-0.4282,0 -0.7721,-0.0983 -1.0337,-0.2933 -0.2615,-0.1959 -0.3927,-0.4609 -0.3927,-0.795 0,-0.3412 0.1081,-0.6088 0.3245,-0.8047l-1.3529 0 0 -0.4803 3.8909 0 0 0.4387 -0.3112 0.0239c0.2421,0.195 0.3635,0.467 0.3635,0.8144 0,0.3377 -0.1276,0.6054 -0.3821,0.8012 -0.2544,0.1968 -0.6081,0.2951 -1.062,0.2951l-0.0443 0zm0.054 -0.4803c0.3174,0 0.5674,-0.0674 0.7509,-0.203 0.1836,-0.1347 0.2757,-0.3199 0.2757,-0.5556 0,-0.2907 -0.1294,-0.5087 -0.3874,-0.6541l-1.343 0c-0.2563,0.1436 -0.3848,0.3634 -0.3848,0.6594 0,0.2304 0.0913,0.413 0.274,0.5495 0.1826,0.1356 0.4547,0.2038 0.8146,0.2038z"/>
 </g>
</svg>
