<!DOCTYPE svg PUBLIC "-//W3C//DTD SVG 1.1//EN" "http://www.w3.org/Graphics/SVG/1.1/DTD/svg11.dtd">
<svg xmlns="http://www.w3.org/2000/svg" viewBox="0 0 500 160">
<path fill="#fbfbfc" stroke="#fbfbfc" d="M100.039 38.104C71.628 42.45 52.523 59.088 52.507 79.5c-.015 18.906 12.501 31.646 37.993 38.674 13.946 3.845 39.977 3.352 52.5-.995 10.276-3.567 21.871-10.234 28.094-16.154 4.676-4.447 5.25-6.767 1.156-4.664-3.878 1.991-18.485 6.502-26.565 8.204-11.893 2.504-10.685 5.41-10.685-25.694V51.742l5.212.692c4.114.545 21.41 5.577 28.538 8.302 3.158 1.207 1.096-4.81-3-8.754-11.845-11.405-41.265-17.618-65.711-13.878M319 66c-3.699 3.699-.593 11 4.68 11 1.915 0 6.32-4.53 6.32-6.5 0-2.266-4.53-6.5-6.955-6.5-1.125 0-2.945.9-4.045 2M188.007 84.593c-10.171 4.411-11.956 15.185-3.392 20.478 4.642 2.869 14.449 2.444 19.04-.826 1.689-1.202 3.297-1.959 3.575-1.682.277.277 2.557-.194 5.068-1.046 4.455-1.513 4.625-1.493 7.141.839 6.339 5.874 22.977 6.342 33.449.941 4.968-2.562 6.321-2.916 6.761-1.77 1.019 2.655 6.931 5.473 11.469 5.466 5.033-.007 8.913-2.186 13.473-7.565l3.091-3.646 2.691 4.591c5.665 9.667 13.575 8.93 24.064-2.244 3.664-3.903 4.126-3.894 6.151.121 5.637 11.171 11.817 11.556 25.205 1.569 6.41-4.782 7.149-4.673 11.379 1.681 4.657 6.996 7.681 6.956 13.271-.176 4.885-6.231 5.541-6.366 8.076-1.66 4.744 8.81 14.897 9.67 23.305 1.975 2.225-2.036 2.367-2.049 3.353-.288 4.442 7.938 27.535 7.515 38.531-.705 7.168-5.359 6.696-10.277-.507-5.285-4.542 3.147-9.2 4.639-14.487 4.639h-3.798l4.042-3.845c7.264-6.91 3.732-13.155-7.44-13.155C414.266 83 404 88.616 404 92.583c0 1.267-6.504 7.417-7.844 7.417-1.771 0-4.252-2.851-7.396-8.5-5.66-10.169-11.186-10.843-16.519-2.014-3.335 5.522-3.1 5.525-6.639-.077-5.276-8.351-8.742-8.036-17.297 1.575-8.18 9.19-11.563 9.388-15.85.927-2.267-4.473-6.594-8.911-8.689-8.911-.53 0-4.687 3.825-9.238 8.5-4.55 4.675-8.695 8.5-9.209 8.5-2.213 0-4.228-2.88-5.73-8.189-3.074-10.865-5.347-11.164-14.946-1.966-8.385 8.036-9.763 8.697-12.844 6.168-3.527-2.896-1.438-5.428 4.803-5.823 7.914-.501 8.301-3.747.743-6.241-7.732-2.552-17.413 1.676-19.146 8.362-2.285 8.817-25.231 10.322-27.46 1.8-1.177-4.503 2.197-6.065 10.094-4.672 6.165 1.088 5.895-3.192-.333-5.275-9.034-3.02-19.282.335-23.325 7.637-2.695 4.868-9.175 6.406-9.175 2.178 0-1.169-1.022-2.487-2.421-3.125-1.38-.629-2.2-1.677-1.909-2.438 1.5-3.908-9.357-6.558-15.663-3.823m229.533 5.363c-2.392 2.643-.75 7.428 2.18 6.349 4.081-1.503 6.373-3.653 6.08-5.703-.428-3.001-5.751-3.418-8.26-.646m-223.79.097c-2.574 1.539-2.191 5.612.706 7.51 2.863 1.876 4.882 1.077 4.034-1.596-.369-1.16.183-2.64 1.459-3.916 1.223-1.223 1.546-2.057.801-2.065-.687-.007-2.15-.231-3.25-.496-1.1-.266-2.787-.013-3.75.563" fill-rule="evenodd"/>
<path fill="#c4d2e1" stroke="#c4d2e1" d="M103.906 38.034C59.459 43.23 37.874 77.097 62.533 102.95c19.516 20.46 67.543 23.947 96.046 6.973 6.16-3.668 18.25-14.543 14.921-13.421l-12.055 4.062c-9.697 3.267-25.149 6.585-26.695 5.732-.412-.228-.75-12.6-.75-27.494v-27.08l5.75.536c4.543.424 21.762 5.407 29 8.393 2.588 1.068 1.154-3.751-2.232-7.499-10.505-11.629-37.241-18.084-62.612-15.118m214.427 29.581c-3.516 5.365 4.475 11.434 9.042 6.868 1.905-1.906 2.144-6.564.425-8.283-2.247-2.247-7.591-1.448-9.467 1.415M229.5 83.927c-6.018 1.046-10.041 3.586-11.906 7.515-2.82 5.944-7.992 7.13-10.103 2.317-2.074-4.729-8.491-2.943-8.491 2.363 0 3.104-1.613 3.691-5.066 1.843-2.325-1.245-2.615-6.155-.469-7.936.956-.793 2.869-.979 5.5-.535 3.624.612 4.035.473 4.035-1.371 0-6.75-18.308-5.022-22.113 2.087-6.189 11.565 10.815 22.301 22.103 13.955 1.611-1.191 4.095-2.165 5.519-2.165 1.425 0 3.858-.655 5.407-1.457 2.634-1.362 2.965-1.299 5.094.968 6.144 6.539 21.914 7.262 33.543 1.537l6.614-3.255 1.477 2.109c5.35 7.639 16.26 6.307 24.036-2.934 3.118-3.705 3.772-3.704 5.309.006 4.39 10.598 13.772 10.251 24.448-.905 3.889-4.064 4.619-3.903 7.563 1.663 4.901 9.265 10.631 9.449 22.164.712 8.383-6.352 8.318-6.353 12.588.124 5.467 8.293 8.13 8.385 13.813.474 4.117-5.731 5.773-6.216 7.814-2.292 4.512 8.673 12.199 10.461 20.475 4.761l5.353-3.687 2.647 2.52c7.899 7.52 30.521 5.337 39.078-3.771 4.214-4.486 1.865-6.094-3.439-2.355-3.938 2.776-5.567 3.268-11.781 3.559l-7.212.337 3.287-2.179c10.967-7.269 4.432-17.072-9.442-14.162-6.325 1.327-11.102 4.421-12.705 8.228-1.488 3.536-7.129 8.244-9.362 7.814-.963-.185-2.657-1.823-3.765-3.639-8.51-13.955-12.298-15.248-18.869-6.438l-3.907 5.238-2.994-4.738c-5.391-8.534-7.505-8.455-17.11.636-8.723 8.257-11.199 9.334-13.768 5.993-1.001-1.302-1.831-2.862-1.843-3.467-.05-2.483-6.091-9.4-8.21-9.4-1.37 0-5.211 2.963-10.372 8-10.579 10.327-12.521 10.201-15.456-1-2.461-9.392-5.865-9.543-14.393-.642-6.587 6.876-9.382 8.359-12.553 6.662-4.968-2.658-.98-8.524 5.096-7.497 3.123.527 3.989.321 4.526-1.08 1.056-2.751-2.352-4.443-8.947-4.443-7.52 0-11.374 2.151-13.773 7.686-.997 2.302-2.981 4.95-4.409 5.885-3.815 2.5-15.298 3.118-19.317 1.04-8.834-4.569-5.033-12.733 4.557-9.789 3.823 1.173 5.229.835 5.229-1.26 0-2.655-8.996-4.765-15.5-3.635m188.25 5.153c-2.112 1.23-2.299 5.22-.322 6.86 2.639 2.19 10.435-3.248 9.215-6.427-.668-1.742-6.185-2.01-8.893-.433" fill-rule="evenodd"/>
<path fill="#e41c34" stroke="#e41c34" d="M98.831 38.967c-56.448 10.205-63.274 63.174-10.039 77.91 27.63 7.649 54.688 3.579 75.708-11.388 6.932-4.936 12.333-10.343 9-9.009-12.556 5.025-25.198 8.685-34.75 10.062l-4.75.685V79.114c0-15.463.367-28.114.816-28.114 3.311 0 14.441 2.678 23.497 5.654 11.883 3.905 12.532 3.88 10.32-.397-2.874-5.558-14.501-12.345-27.133-15.84-6.845-1.893-34.936-2.848-42.669-1.45M319.75 66.08c-2.492 1.452-2.366 7.52.184 8.885 2.884 1.543 5.555 1.257 7.411-.794 4.544-5.02-1.61-11.577-7.595-8.091m97.969 18.042c-6.147.927-10.38 3.648-13.073 8.401-5.437 9.599-10.416 9.614-15.917.048-6.023-10.472-10.073-11.209-15.711-2.86-4.154 6.153-3.946 6.158-8.188-.211-4.995-7.5-7.03-7.318-15.741 1.411-10.596 10.617-12.207 10.548-18.326-.793-4.451-8.249-6.289-8.041-16.218 1.837-10.692 10.637-12.013 10.641-15.545.045-3.438-10.314-4.853-10.42-14.484-1.081-7.352 7.128-10.624 8.573-13.316 5.881-3.712-3.712-.114-8.362 5.745-7.425 4.842.775 6.332-.923 3.103-3.537-5.828-4.72-18.364-.96-20.66 6.197-3.186 9.932-26.683 11.605-29.076 2.07-1.107-4.408.742-5.629 8.149-5.38 4.908.164 6.581-.102 6.285-1-.872-2.644-5.211-3.825-12.562-3.42-8.275.456-11.614 2.238-14.387 7.678-3.056 5.995-7.763 6.917-10.297 2.017-2.708-5.238-9.507-3.148-8.093 2.487.923 3.676-4.613 3.654-7.026-.028-2.927-4.468-.504-7.846 5.171-7.206 5.285.596 6.719-.805 3.496-3.415-4.504-3.647-14.678-1.667-18.88 3.676-8.832 11.228 9.311 23.15 21.363 14.038 1.083-.819 2.996-1.503 4.251-1.52 1.255-.018 3.909-.712 5.898-1.543 3.371-1.408 3.706-1.382 4.941.381 5.017 7.162 26.036 7.569 36.434.706l3.555-2.346 3.132 3.292c6.23 6.548 13.159 5.805 21.027-2.254 2.943-3.014 5.494-5.32 5.668-5.124.175.196 1.278 2.262 2.453 4.591 4.677 9.275 10.873 9.176 21.221-.337 6.681-6.142 6.88-6.138 10.052.214 4.566 9.143 10.645 9.238 22.39.348 7.994-6.051 8.702-6.087 11.914-.607 5.489 9.366 7.981 9.565 14.34 1.147 4.536-6.005 4.899-6.029 8.583-.566 5.403 8.013 13.325 8.767 21.03 2.002l3.388-2.974 2.909 2.909c5.464 5.464 20.007 6.485 30.016 2.108 5.442-2.38 11.267-6.825 11.267-8.598 0-1.597-2.581-1.867-3.509-.367-1.947 3.151-13.32 6.569-17.972 5.401l-2.602-.653 4.042-3.459c8.635-7.391 2.937-14.169-10.24-12.181M419.335 88c-3.13 1.262-4.339 3.897-3.068 6.686 1.257 2.759 2.924 2.905 6.83.598 6.606-3.902 3.373-10.161-3.762-7.284" fill-rule="evenodd"/>
<path fill="#053c82" stroke="#053c82" d="M98.342 39.41c-28.447 5.437-44.83 20.089-44.826 40.09.006 25.326 22.685 39.818 62.484 39.928 23.451.065 34.525-3.5 51.75-16.66 6.999-5.347 6.617-6.193-1.429-3.164-7.822 2.944-25.612 7.393-29.571 7.395L134 107V50.725l5.572.654c4.43.521 21.624 5.568 28.178 8.272 2.993 1.235.899-3.72-3.151-7.453-12.336-11.371-42.852-17.26-66.257-12.788M86.597 52.993c-34.447 11.002-29.994 48.773 6.318 53.59l5.085.675V51l-2.75.054c-1.513.029-5.406.902-8.653 1.939m233.058 13.836c-3.124 3.451-.587 9.171 4.068 9.171 1.757 0 5.277-3.668 5.277-5.5 0-4.364-6.431-6.891-9.345-3.671m-131.21 18.188c-8.287 2.548-10.924 11.704-5.061 17.567 3.582 3.582 3.75 3.634 10.43 3.257 5.095-.288 7.492-.937 9.605-2.599 1.549-1.218 3.18-1.99 3.625-1.715.444.275 2.899-.21 5.454-1.078 4.604-1.563 4.67-1.554 7.208.984 5.831 5.831 22.67 6.288 33.117.899l6.141-3.168 3.418 3.418c6.061 6.061 15.676 4.275 22.062-4.098 3.242-4.25 3.968-4.317 5.545-.511 4.563 11.016 13.608 10.704 24.448-.844 3.692-3.934 4.987-3.933 6.618.004 4.667 11.266 11.421 11.748 24.537 1.749 6.654-5.072 7.678-4.928 11.906 1.682 4.672 7.304 7.25 7.241 12.875-.314 4.665-6.266 5.822-6.455 8.657-1.41 4.533 8.064 12.123 9.393 20.261 3.547 5.015-3.603 5.034-3.608 6.619-1.54 6.089 7.945 28.535 6.873 38.303-1.829 5.132-4.571 4.412-6.416-1.032-2.643-6.06 4.199-15.427 6.021-19.077 3.711-1.076-.682-.677-1.255 1.741-2.506 9.837-5.087 7.07-13.58-4.424-13.58C414.496 84 405 88.903 405 92.478c0 1.361-5.892 7.079-8 7.764-2.658.864-4.845-1.128-8.943-8.145-5.863-10.038-9.639-10.539-15.114-2.008-3.882 6.049-4.004 6.049-7.886 0-2.908-4.532-4.739-6.089-7.161-6.089-.518 0-4.479 3.309-8.804 7.353-10.977 10.266-12.672 10.393-17.238 1.293-2.505-4.994-5.705-8.646-7.573-8.646-.754 0-4.742 3.552-8.862 7.893-10.309 10.862-13.92 11.168-16.357 1.389-2.797-11.22-4.911-11.568-14.419-2.373-3.928 3.799-7.818 7.003-8.643 7.118-3.49.489-5.109-.172-6.18-2.523-1.777-3.901 1.158-6.504 7.335-6.504 5.799 0 6.263-1.51 1.124-3.657-7.529-3.146-16.733.143-18.892 6.751-2.184 6.687-12.205 10.439-21.349 7.994-11.778-3.15-11.69-12.878.107-11.809 6.899.626 8.21-1.347 2.211-3.326-8.543-2.82-18.796.491-22.541 7.279-2.157 3.911-2.686 4.268-6.321 4.268-3.173 0-4.042-.4-4.346-2-.682-3.593-3.953-4.552-6.577-1.928-.967.966-1.351 2.456-.998 3.865.814 3.241-2.226 4.21-5.524 1.76-5.758-4.279-1.854-11.719 4.912-9.361 3.547 1.237 5.105-.199 2.76-2.543-1.853-1.853-9.127-2.552-13.276-1.276m229.893 2.982c-3.029 1.221-3.852 4.568-1.868 7.596l1.636 2.496 4.197-2.31c8.166-4.496 4.709-11.28-3.965-7.782" fill-rule="evenodd"/>
</svg>