<!DOCTYPE svg PUBLIC "-//W3C//DTD SVG 1.1//EN" "http://www.w3.org/Graphics/SVG/1.1/DTD/svg11.dtd">
<svg xmlns="http://www.w3.org/2000/svg" viewBox="0 0 299 222">
<path fill="#151312" d="M189.92 11.254c-2.741 5.846-4.395 6.908-5.53 3.551-.751-2.218-.803-2.192-1.391.695-.335 1.65-1.148 2.887-1.805 2.75-.657-.138-1.194.698-1.194 1.857 0 1.306-.489 1.919-1.286 1.614-.927-.356-1.18.409-.908 2.743.208 1.785-.518 5.436-1.619 8.137-3.173 7.786-3.514 8.827-3.311 10.104.248 1.566-4.474 4.661-5.832 3.822-.574-.355-1.044-1.688-1.044-2.964 0-3.151-2.637-5.28-4.834-3.903-2.54 1.592-2.667 5.046-.213 5.825 2.439.774 5.892 6.733 4.224 7.289-.598.2-3.245 2.08-5.882 4.178-8.34 6.637-11.12 7.429-26.295 7.492-12.754.053-13.693.194-17 2.556-3.776 2.697-11.478 3.389-17.5 1.573-2.757-.831-2.886-.766-1.591.805 1.243 1.509 1.126 1.909-1 3.397-8.858 6.199-12.908 11.822-12.91 17.925-.002 7.279-2.69 18.342-5.072 20.878-3.769 4.011.062 2.995 7.495-1.989C89.04 107.163 92 105.561 92 106.03c0 .468-.448 1.129-.995 1.467-.547.338-1.47 1.602-2.052 2.809-.583 1.209.57.398 2.57-1.806 4.787-5.278 6.087-8.439 7.402-18.011 1.646-11.978 7.058-18.364 6.936-8.185-.036 2.996.431 6.373 1.037 7.506 1.812 3.386 1.3 9.104-1.121 12.504-2.818 3.956-2.896 4.64-1.185 10.324 1.656 5.504 1.828 13.127.381 16.932-.779 2.05-.675 3.236.432 4.925.802 1.224 1.601 3.975 1.776 6.115l.319 3.89 6.5.647c9.57.953 10.346-1.562 2.957-9.578l-3.816-4.14.986-7.95c1.251-10.071 3.769-15.836 8.055-18.445 4.056-2.467 4.929-1.028 1.879 3.098l-2.171 2.936 4.158 4.716c4.932 5.595 7.952 11.168 7.952 14.676 0 4.193 2.874 6.173 8.548 5.889 2.724-.136 5.964-.271 7.202-.298 4.919-.111 1.132-5.525-4.678-6.687-3.986-.797-9.07-10.19-9.071-16.759-.001-6.242 4.633-12.879 8.499-12.171 12.352 2.26 19.181 1.642 27.515-2.492 3.454-1.713 3.563-1.702 6.25.61 5.484 4.716 1.842 12.278-5.401 11.215-3.975-.584-4.732 2.612-1.923 8.117 2.945 5.773 7.194 5.81 13.18.116 2.312-2.2 4.505-4 4.873-4 1.998 0 4.097 8.024 4.158 15.895.032 4.07.375 5.103 1.694 5.096.91-.005 2.86 1.458 4.334 3.25 2.496 3.035 3.097 3.257 8.735 3.224 10.325-.059 11.137-5.727 1.5-10.465-6.306-3.1-7.788-4.571-9.337-9.264-.673-2.039-1.668-3.983-2.211-4.318-.591-.365-.717-2.773-.313-6.002.625-5.007.463-5.633-2.272-8.748-4.624-5.266-6.392-17.156-3.433-23.081 2.658-5.321 2.752-11.489.25-16.394-1.717-3.365-1.767-4.113-.515-7.71.762-2.191 1.393-4.122 1.401-4.292.008-.17.445-.043.971.282.526.325.699 1.262.385 2.082-.684 1.781 5.988 8.438 8.48 8.46 1.324.012 1.392.198.322.875-2.209 1.4.322 2.219 4.695 1.52 3.475-.556 4.169-1.139 5.68-4.772.947-2.276 2.197-5.157 2.779-6.403.855-1.832.641-2.828-1.12-5.209-1.197-1.62-2.177-3.683-2.177-4.585 0-.902-1.531-5.173-3.402-9.49-2.285-5.273-3.023-8.006-2.25-8.324.849-.35.829-.704-.072-1.344-.954-.677-.866-1.989.394-5.932 1.687-5.274 1.08-13.316-.668-8.851-.431 1.1-1.982 3.114-3.448 4.476-1.901 1.767-2.475 1.982-2.003.75.804-2.094-.378-2.171-2.992-.194-2.919 2.208-3.376 1.869-4.113-3.044-.928-6.191-1.714-6.231-4.526-.234M192.232 17c0 1.925.206 2.712.457 1.75.252-.962.252-2.538 0-3.5-.251-.963-.457-.175-.457 1.75m3.435 13.667c-1.215 1.214-.691 2.28.833 1.695.825-.317 1.5-.978 1.5-1.469 0-1.048-1.378-1.182-2.333-.226m-35.331 10.9c-.834 2.172 1.282 4.215 2.797 2.7 1.28-1.28.487-4.267-1.133-4.267-.585 0-1.333.705-1.664 1.567m7.937 9.139c-2.537 3.872-2.545 21.382-.012 26.015 3.77 6.898 11.198 10.574 16.731 8.282 3.299-1.366 8.057-10.104 7.906-14.517l-.103-2.986-.812 3.451c-.978 4.152-3.309 6.05-7.424 6.045-8.349-.01-14.059-8.64-14.059-21.246 0-8.86.11-8.611-2.227-5.044m38.365-.206c.317.825.753 1.5.969 1.5.216 0 .393-.675.393-1.5s-.436-1.5-.969-1.5c-.532 0-.709.675-.393 1.5m-10.036 3.094c-.4 1.044-.05 2.386.861 3.298 1.383 1.382 1.535 1.339 1.522-.428-.025-3.153-1.563-5.006-2.383-2.87M97.98 77.524c-1.932 2.329-.554 2.767 1.514.482.999-1.103 1.351-2.006.783-2.006-.567 0-1.601.686-2.297 1.524M186 86.378c0 .207.675.937 1.5 1.622 1.229 1.02 1.5.951 1.5-.378 0-.892-.675-1.622-1.5-1.622s-1.5.17-1.5.378M32 158.5c0 3.333.167 3.5 3.5 3.5H39v39h-3.5c-3.333 0-3.5.167-3.5 3.5v3.5h26v-3.5c0-3.333-.167-3.5-3.5-3.5H51v-8.5c0-7.833.157-8.5 2-8.5 1.333 0 2 .667 2 2 0 1.467.667 2 2.5 2 2.429 0 2.5-.2 2.5-7s-.071-7-2.5-7c-1.47 0-2.5.574-2.5 1.393 0 1.162-1.985 2.607-3.582 2.607-.23 0-.418-3.598-.418-7.995v-7.995l100.25-.255 100.25-.255.313-3.25.314-3.25H32v3.5m224.25-2.335c-5.497 2.787-.217 6.288 8.439 5.596 10.624-.85 10.305-5.87-.409-6.433-3.179-.167-6.792.21-8.03.837M70 168.709c-4.704 1.73-5 2.846-5 18.835 0 19.637.102 19.803 12.45 20.31C92.549 208.474 97 206.458 97 199v-4H86.121l-.311 3.75c-.308 3.732-.332 3.75-4.81 3.75h-4.5l-.512-5.75-.512-5.75H97v-9.427c0-12.754-.972-13.607-15.385-13.494-5.563.043-10.79.327-11.615.63m31.917-.459c-.867 2.599-.303 5.098 1.24 5.501 2.926.765 2.808 26.763-.125 27.53-1.491.39-1.915 1.266-1.75 3.615l.218 3.1 9.25.002L120 208v-3.5c0-2.833-.381-3.5-2-3.5-1.865 0-2-.667-2-9.894 0-9.668.071-9.97 3.076-13.187 3.81-4.079 4.887-2.935 4.909 5.218.016 6.143 1.023 6.88 8.265 6.047 2.744-.316 2.75-.335 2.75-8.296 0-12.404-6.27-16.5-15.176-9.916-3.506 2.592-3.824 2.552-3.824-.472 0-2.429-.2-2.5-7-2.5-3.85 0-7.037.113-7.083.25M139 170.883c0 2.043.583 3.036 2 3.407 1.867.488 2 1.364 2 13.21s-.133 12.722-2 13.21c-1.503.393-2 1.364-2 3.907V208h18v-3.383c0-2.543-.497-3.514-2-3.907-3.753-.981-2.926-17.585 1.104-22.175 4.312-4.912 4.896-4.513 4.896 3.352 0 7.55.696 8.166 8.25 7.297l2.75-.317v-8.433c0-12.478-4.164-15.46-13.852-9.922-5.322 3.043-5.148 3.043-5.148-.012 0-2.429-.2-2.5-7-2.5h-7v2.883m40.882-1.38c-1.636.889-2.854 2.607-3.25 4.585-1.155 5.776-1.045 5.912 4.805 5.912 5.402 0 5.438-.02 5.75-3.25.296-3.073.531-3.25 4.313-3.25h4l.298 5.119.297 5.119-8.212.475c-10.786.624-12.258 2.138-11.7 12.026.603 10.667 1.468 11.185 19.342 11.585l14.475.324v-3.574c0-2.51-.446-3.574-1.5-3.574-1.262 0-1.5-2.227-1.5-14.045 0-18.535-.341-18.974-14.705-18.915-6.508.027-10.673.517-12.413 1.463m34.118 1.38c0 2.043.583 3.036 2 3.407 1.867.488 2 1.364 2 13.21s-.133 12.722-2 13.21c-1.503.393-2 1.364-2 3.907V208h18v-3.383c0-2.543-.497-3.514-2-3.907-3.753-.981-2.926-17.585 1.104-22.175 4.321-4.922 4.896-4.516 4.896 3.465v7h11v-8.5c0-12.549-4.145-15.537-13.852-9.988-5.322 3.043-5.148 3.043-5.148-.012 0-2.429-.2-2.5-7-2.5h-7v2.883m40 0c0 2.043.583 3.036 2 3.407 1.867.488 2 1.364 2 13.21s-.133 12.722-2 13.21c-1.503.393-2 1.364-2 3.907V208h18v-3.5c0-2.444-.452-3.5-1.5-3.5-1.259 0-1.5-2.167-1.5-13.5s.241-13.5 1.5-13.5c1 0 1.5-1 1.5-3v-3h-18v2.883m-178 8.062c0 3.33-.112 6.393-.25 6.805-.138.412 2.134.887 5.047 1.054l5.297.304-.297-6.804-.297-6.804-4.75-.305-4.75-.305v6.055m111.667 9.722c-.367.366-.667 3.236-.667 6.377 0 6.466 1.326 8.279 5.69 7.778 2.76-.316 2.815-.45 3.104-7.572l.294-7.25h-3.878c-2.132 0-4.177.3-4.543.667" fill-rule="evenodd"/>
</svg>