<!DOCTYPE svg PUBLIC "-//W3C//DTD SVG 1.1//EN" "http://www.w3.org/Graphics/SVG/1.1/DTD/svg11.dtd">
<svg xmlns="http://www.w3.org/2000/svg" viewBox="0 0 567 602">
<path fill="#b49780" stroke="#b49780" d="M264 27.638c-1.375.202-8.125 1.079-15 1.95-33.341 4.225-79.629 20.677-102.557 36.451-2.239 1.541-4.931 2.724-5.983 2.631-1.051-.094-1.923.349-1.936.984-.013.635-4.524 4.406-10.024 8.381C107.521 93.197 87.365 112.71 72.758 132c-3.124 4.125-6.542 8.63-7.596 10.01-3.561 4.664-14.725 23.438-18.57 31.229-2.197 4.451-4.261 7.465-4.86 7.095-.613-.379-.741-.157-.31.54.402.65-1.057 5.35-3.241 10.443-32.723 76.288-27.143 168.359 14.523 239.639 9.63 16.473 26.268 39.034 36.034 48.859 1.265 1.273 1.997 2.805 1.627 3.404-.371.6-.228.814.318.477 1.299-.803 8.591 6.673 7.587 7.777-.423.466-.202.521.491.121.781-.449 2.875.877 5.5 3.485 2.332 2.316 8.739 7.757 14.239 12.091s10.529 8.305 11.175 8.824C131.8 517.703 152.902 531 153.488 531c.315 0 3.597 1.707 7.293 3.794 55.144 31.135 141.095 40.224 199.473 21.092 3.165-1.037 6.201-1.886 6.747-1.886.546 0 7.051-2.243 14.456-4.984 7.404-2.741 14.268-4.724 15.253-4.406 1.242.402 1.405.3.532-.33-1.325-.956 22.98-13.902 25.575-13.622.724.078 1.068-.107.764-.41-.585-.586 16.928-12.248 18.393-12.248.472 0 1.009-.353 1.193-.784.183-.431 3.258-2.986 6.833-5.678 54.659-41.159 91.02-101.254 103.486-171.038 7.146-40.005 2.177-97.489-11.496-133-1.694-4.4-3.781-10.025-4.639-12.5-9.754-28.167-39.64-71.707-65.165-94.937-3.89-3.54-6.804-6.872-6.475-7.405.329-.532.089-.652-.534-.268-.623.386-2.755-.779-4.748-2.595-1.99-1.812-7.737-6.369-12.773-10.126-5.036-3.757-9.032-7.278-8.881-7.824.151-.547-.192-.705-.762-.353-.57.352-5.418-2.109-10.774-5.469-32.431-20.345-73.437-33.884-115.095-38-9.626-.951-42.482-1.214-48.144-.385m4.25 101.081c-5.505.513-5.404 1.753.259 3.179 11.424 2.877 18.415 7.246 23.363 14.602 2.853 4.24 13.351 25.362 14.604 29.382.59 1.892.945 2.098 1.728 1 .756-1.061.849-.962.4.424-.592 1.829 2.007 9.416 2.915 8.509 2.306-2.307-3.92-33.025-9.792-48.315l-3.457-9-12.885-.089c-7.087-.049-14.798.09-17.135.308m40.301 3.948c2.41 5.61 7.013 18.935 8.924 25.833.914 3.3 1.914 6.675 2.222 7.5.957 2.563 1.254 5.992 1.917 22.122l.642 15.621 5.622 1.577c6.234 1.749 16.268 7.887 20.122 12.311 5.458 6.264 8.905 11.121 11.1 15.637 2.859 5.886 2.743 5.904 6.555-1.03 1.735-3.156 6.073-9.65 9.64-14.431 3.567-4.781 6.197-9.016 5.845-9.41-.352-.395-.147-.437.455-.094.602.343 2.883-1.273 5.07-3.59 2.186-2.317 5.97-6.013 8.409-8.213 8.71-7.856 8.276-6.714-1.074 2.823-5.225 5.33-9.35 10.25-9.167 10.934.184.683.008.917-.391.519-.867-.868-5.885 4.521-8.123 8.724-.879 1.65-1.933 3.225-2.343 3.5-.409.275-1.705 2.216-2.879 4.314-1.174 2.097-2.853 4.91-3.731 6.25-2.073 3.165-1.634 3.09 5.85-.991 7.332-3.999 18.983-7.827 30.284-9.95 8.719-1.638 28.317-2.728 29.006-1.613.236.382-2.369 2.964-5.789 5.74-5.848 4.747-14.391 13.055-18.421 17.916-.988 1.191-2.566 3.088-3.507 4.215-.94 1.127-1.39 2.239-1 2.471.561.333 17.11-4.07 21.711-5.776.55-.204 2.034-.7 3.297-1.102 6.847-2.181 16.373-7.567 15.454-8.738-.533-.68-1.799-3.486-2.812-6.236-2.087-5.663-4.889-10.717-5.566-10.039-.25.249-.514-.343-.587-1.317-.143-1.899-8.882-16.911-11.938-20.509-1.017-1.196-3.176-3.966-4.799-6.155-9.931-13.394-29.941-30.775-46.049-40-9.649-5.526-21.891-11.48-23.604-11.48-.951 0-1.879-.339-2.063-.753-.638-1.441-23.672-7.76-31.818-8.728-2.467-.293-5.301-.792-6.298-1.109-1.728-.548-1.735-.395-.166 3.257M200.484 152.06c-10.509 6.11-14.518 9.076-13.812 10.218.35.567.169.742-.404.388-.573-.354-3.68 1.489-6.904 4.095-6.143 4.965-15.028 13.239-14.216 13.239.26 0 3.343-1.125 6.852-2.5 12.326-4.831 25.248-2.561 46.358 8.141 3.771 1.913 7.08 3.254 7.352 2.982 2.168-2.168-14.878-40.623-18.007-40.623-.129 0-3.378 1.827-7.219 4.06m-67.883 76.895c-2.313 5.154-5.601 13.739-5.601 14.625 0 .181 1.688.642 3.75 1.025 2.063.382 8.925 2.483 15.25 4.669 6.325 2.186 12.47 4.031 13.655 4.1 1.184.069 1.988.394 1.786.722-.203.328 1.959 1.678 4.803 3 2.845 1.322 7.827 4.113 11.071 6.202 3.245 2.088 6.414 3.586 7.042 3.329.777-.319.738-.494-.122-.548-.695-.043-2.06-1.388-3.033-2.988-6.075-9.989-25.193-27.646-38.35-35.418l-7.648-4.518-2.603 5.8m-8.316 23.295c-13.272 45.866-4.752 97.103 22.978 138.172 5.615 8.317 13.736 18.344 18.378 22.693 4.736 4.436 8.695 3.989 11.811-1.333 3.634-6.206 5.894-6.92 12.018-3.797l3.893 1.984 7.555-5.734c13.595-10.32 18.111-11.665 23.752-7.075.775.631 3.393.006 7.76-1.854 6.24-2.657 6.558-2.953 5.994-5.585-.393-1.832.115-4.143 1.49-6.781 2.571-4.933 2.576-5.555.086-10.44-1.1-2.158-2-4.707-2-5.664 0-5.778-3.518-8.16-17.5-11.845-4.4-1.16-12.05-3.807-17-5.882-17.225-7.221-19.965-7.918-41.955-10.683-6.575-.826-12.137-1.685-12.36-1.907-.598-.598 22.268-11.519 24.117-11.519.869 0 1.858-.45 2.198-1 .34-.55.142-1-.44-1-1.952 0-19.261-8.979-25.945-13.46-7.27-4.873-17.402-14.341-23.615-22.066-2.2-2.736-4.338-5.124-4.75-5.307-2.839-1.262 1.323-1.944 15.5-2.538 8.938-.374 17.825-.887 19.75-1.139 1.925-.252 5.75-.715 8.5-1.028 6.743-.769 17.046-3.41 19.069-4.889 4.758-3.479-44.498-27.573-56.37-27.573-.449 0-1.76 3.262-2.914 7.25m321.833 7.25c-7.364 17.888-16.323 33.103-24.586 41.75-2.497 2.613-4.2 4.757-3.786 4.765.415.008-.209.57-1.386 1.25-1.177.679-4.864 3.557-8.193 6.395l-6.054 5.16 13.943.718c7.669.395 13.944 1.12 13.944 1.61 0 1.397-13.877 10.106-25.906 16.259-13.396 6.853-38.122 15.357-55.449 19.072-2.406.516-2.742.958-2.136 2.816 3.765 11.556-2.396 20.048-11.759 16.209-2.316-.95-2.401 3.336-.153 7.684.937 1.811 1.367 4.242 1.04 5.875-.522 2.611-.148 2.977 5.957 5.834l6.515 3.049 3.68-1.973c5.776-3.096 9.181-1.816 21.919 8.234 3.414 2.694 6.564 4.821 7 4.726.436-.095 1.917-.626 3.292-1.181 3.357-1.353 9.954-2.617 9.706-1.859-.639 1.955 6.043 9.953 8.65 10.353 3.689.567 17.202-14.277 25.865-28.411 3.147-5.134 6.072-9.785 6.5-10.335.429-.55 2.301-4.375 4.161-8.5 1.86-4.125 4.238-9.381 5.285-11.679 1.046-2.298 1.999-5.517 2.118-7.153.118-1.635.501-2.797.851-2.582.748.46 1.089-.694 4.317-14.586 5.251-22.603 5.642-51.159.952-69.5-.844-3.3-1.863-7.35-2.264-9-.694-2.852-.893-2.605-4.023 5M246 331.376c0 1.055 5.011 11.513 5.729 11.957.46.284 4.196.648 8.303.809 4.108.161 9.042.828 10.965 1.481 3.447 1.172 5.003 1.01 5.003-.522 0-1.409-5.435-3.411-8.647-3.186-2.564.18-3.654-.443-5.876-3.356-3.287-4.309-15.477-9.967-15.477-7.183m73.24 2.587c-4.239 2.005-6.569 3.773-7.215 5.472-.946 2.487-4.984 4.326-6.899 3.143-1.178-.728-8.126 2.41-8.126 3.668 0 .482 2.137.555 4.75.163 2.613-.393 8.35-.983 12.75-1.312 4.4-.328 7.849-.997 7.665-1.485-.185-.489.092-1.164.615-1.5 1.143-.736 5.22-8.602 5.22-10.072 0-1.685-2.116-1.22-8.76 1.923m19.76 28.43c0 .216.698.661 1.552.989.89.341 1.291.173.941-.393-.587-.951-2.493-1.406-2.493-.596m2.079 6.19c.048 1.165.285 1.402.604.605.289-.722.253-1.585-.079-1.917-.332-.332-.568.258-.525 1.312M542.5 388c-.34.55-.141 1 .441 1s1.059-.45 1.059-1-.198-1-.441-1-.719.45-1.059 1M78 472c0 .55.477 1 1.059 1s.781-.45.441-1-.816-1-1.059-1-.441.45-.441 1" fill-rule="evenodd"/>
<path fill="#fbfbfb" stroke="#fbfbfb" d="M264 27.638c-1.375.202-8.125 1.079-15 1.95-33.341 4.225-79.629 20.677-102.557 36.451-2.239 1.541-4.931 2.724-5.983 2.631-1.051-.094-1.923.349-1.936.984-.013.635-4.524 4.406-10.024 8.381C107.521 93.197 87.365 112.71 72.758 132c-3.124 4.125-6.542 8.63-7.596 10.01-3.561 4.664-14.725 23.438-18.57 31.229-2.197 4.451-4.261 7.465-4.86 7.095-.613-.379-.741-.157-.31.54.402.65-1.057 5.35-3.241 10.443-29.658 69.142-28.108 150.738 4.177 219.881 6.07 13.001 13.612 25.939 14.72 25.254.495-.306.662.062.372.818-.897 2.337 21.023 32.127 31.304 42.545 1.256 1.273 1.981 2.805 1.611 3.404-.371.6-.228.814.318.477 1.299-.803 8.591 6.673 7.587 7.777-.423.466-.202.521.491.121.781-.449 2.875.877 5.5 3.485 2.332 2.316 8.739 7.757 14.239 12.091s10.529 8.305 11.175 8.824C131.8 517.703 152.902 531 153.488 531c.315 0 3.597 1.707 7.293 3.794 36.735 20.741 87.917 32.514 134.209 30.869 25.449-.903 57.387-5.52 53.868-7.786-.844-.543-.161-.645 1.806-.268 2.028.389 5.348-.15 9.254-1.501 3.349-1.16 6.537-2.108 7.083-2.108.546 0 7.051-2.243 14.456-4.984 7.404-2.741 14.268-4.724 15.253-4.406 1.242.402 1.405.3.532-.33-1.325-.956 22.98-13.902 25.575-13.622.724.078 1.068-.107.764-.41-.585-.586 16.928-12.248 18.393-12.248.472 0 1.009-.353 1.193-.784.183-.431 3.258-2.986 6.833-5.678 54.659-41.159 91.02-101.254 103.486-171.038 7.146-40.005 2.177-97.489-11.496-133-1.694-4.4-3.781-10.025-4.639-12.5-9.754-28.167-39.64-71.707-65.165-94.937-3.89-3.54-6.85-6.798-6.577-7.239.272-.44-.203-.533-1.057-.206-.86.33-1.552.072-1.552-.578 0-.703-.77-.93-1.916-.567-1.054.335-2.202.145-2.552-.421-.394-.638.049-.779 1.166-.371 3.439 1.256-1.248-3.043-11.7-10.732-5.449-4.009-9.633-7.731-9.298-8.273.345-.557.097-.668-.57-.256-.673.415-4.925-1.616-9.904-4.733-16.825-10.529-41.882-22.417-44.85-21.278-.814.313-1.244.186-.955-.281 2.099-3.397-43.247-14.434-70.277-17.105-9.626-.951-42.482-1.214-48.144-.385m4.25 101.081c-5.505.513-5.404 1.753.259 3.179 11.424 2.877 18.415 7.246 23.363 14.602 2.853 4.24 13.351 25.362 14.604 29.382.59 1.892.945 2.098 1.728 1 .756-1.061.849-.962.4.424-.592 1.829 2.007 9.416 2.915 8.509 2.306-2.307-3.92-33.025-9.792-48.315l-3.457-9-12.885-.089c-7.087-.049-14.798.09-17.135.308m40.301 3.948c2.41 5.61 7.013 18.935 8.924 25.833.914 3.3 1.914 6.675 2.222 7.5.957 2.563 1.254 5.992 1.917 22.122l.642 15.621 5.622 1.577c6.234 1.749 16.268 7.887 20.122 12.311 5.458 6.264 8.905 11.121 11.1 15.637 2.859 5.886 2.743 5.904 6.555-1.03 1.735-3.156 6.073-9.65 9.64-14.431 3.567-4.781 6.197-9.016 5.845-9.41-.352-.395-.147-.437.455-.094.602.343 2.883-1.273 5.07-3.59 2.186-2.317 5.97-6.013 8.409-8.213 8.71-7.856 8.276-6.714-1.074 2.823-5.225 5.33-9.35 10.25-9.167 10.934.184.683.008.917-.391.519-.867-.868-5.885 4.521-8.123 8.724-.879 1.65-1.933 3.225-2.343 3.5-.409.275-1.705 2.216-2.879 4.314-1.174 2.097-2.853 4.91-3.731 6.25-2.073 3.165-1.634 3.09 5.85-.991 7.332-3.999 18.983-7.827 30.284-9.95 8.719-1.638 28.317-2.728 29.006-1.613.236.382-2.369 2.964-5.789 5.74-5.848 4.747-14.391 13.055-18.421 17.916-.988 1.191-2.566 3.088-3.507 4.215-.94 1.127-1.39 2.239-1 2.471.561.333 17.11-4.07 21.711-5.776.55-.204 2.034-.7 3.297-1.102 6.847-2.181 16.373-7.567 15.454-8.738-.533-.68-1.799-3.486-2.812-6.236-2.087-5.663-4.889-10.717-5.566-10.039-.25.249-.514-.343-.587-1.317-.143-1.899-8.882-16.911-11.938-20.509-1.017-1.196-3.176-3.966-4.799-6.155-9.931-13.394-29.941-30.775-46.049-40-9.649-5.526-21.891-11.48-23.604-11.48-.951 0-1.879-.339-2.063-.753-.638-1.441-23.672-7.76-31.818-8.728-2.467-.293-5.301-.792-6.298-1.109-1.728-.548-1.735-.395-.166 3.257M200.484 152.06c-10.509 6.11-14.518 9.076-13.812 10.218.35.567.169.742-.404.388-.573-.354-3.68 1.489-6.904 4.095-6.143 4.965-15.028 13.239-14.216 13.239.26 0 3.343-1.125 6.852-2.5 12.326-4.831 25.248-2.561 46.358 8.141 3.771 1.913 7.08 3.254 7.352 2.982 2.168-2.168-14.878-40.623-18.007-40.623-.129 0-3.378 1.827-7.219 4.06M458 205c-.901.582-1.025.975-.309.985.655.008 1.469-.435 1.809-.985.767-1.242.421-1.242-1.5 0m-325.399 23.955c-2.313 5.154-5.601 13.739-5.601 14.625 0 .181 1.688.642 3.75 1.025 2.063.382 8.925 2.483 15.25 4.669 6.325 2.186 12.47 4.031 13.655 4.1 1.184.069 1.988.394 1.786.722-.203.328 1.959 1.678 4.803 3 2.845 1.322 7.827 4.113 11.071 6.202 3.245 2.088 6.414 3.586 7.042 3.329.777-.319.738-.494-.122-.548-.695-.043-2.06-1.388-3.033-2.988-6.075-9.989-25.193-27.646-38.35-35.418l-7.648-4.518-2.603 5.8m-8.316 23.295c-13.272 45.866-4.752 97.103 22.978 138.172 5.615 8.317 13.736 18.344 18.378 22.693 4.736 4.436 8.695 3.989 11.811-1.333 3.634-6.206 5.894-6.92 12.018-3.797l3.893 1.984 7.555-5.734c13.595-10.32 18.111-11.665 23.752-7.075.775.631 3.393.006 7.76-1.854 6.24-2.657 6.558-2.953 5.994-5.585-.393-1.832.115-4.143 1.49-6.781 2.571-4.933 2.576-5.555.086-10.44-1.1-2.158-2-4.707-2-5.664 0-5.778-3.518-8.16-17.5-11.845-4.4-1.16-12.05-3.807-17-5.882-17.225-7.221-19.965-7.918-41.955-10.683-6.575-.826-12.137-1.685-12.36-1.907-.598-.598 22.268-11.519 24.117-11.519.869 0 1.858-.45 2.198-1 .34-.55.142-1-.44-1-1.952 0-19.261-8.979-25.945-13.46-7.27-4.873-17.402-14.341-23.615-22.066-2.2-2.736-4.338-5.124-4.75-5.307-2.839-1.262 1.323-1.944 15.5-2.538 8.938-.374 17.825-.887 19.75-1.139 1.925-.252 5.75-.715 8.5-1.028 6.743-.769 17.046-3.41 19.069-4.889 4.758-3.479-44.498-27.573-56.37-27.573-.449 0-1.76 3.262-2.914 7.25m321.833 7.25c-7.364 17.888-16.323 33.103-24.586 41.75-2.497 2.613-4.2 4.757-3.786 4.765.415.008-.209.57-1.386 1.25-1.177.679-4.864 3.557-8.193 6.395l-6.054 5.16 13.943.718c7.669.395 13.944 1.12 13.944 1.61 0 1.397-13.877 10.106-25.906 16.259-13.396 6.853-38.122 15.357-55.449 19.072-2.406.516-2.742.958-2.136 2.816 3.765 11.556-2.396 20.048-11.759 16.209-2.316-.95-2.401 3.336-.153 7.684.937 1.811 1.367 4.242 1.04 5.875-.522 2.611-.148 2.977 5.957 5.834l6.515 3.049 3.68-1.973c5.776-3.096 9.181-1.816 21.919 8.234 3.414 2.694 6.564 4.821 7 4.726.436-.095 1.917-.626 3.292-1.181 3.357-1.353 9.954-2.617 9.706-1.859-.639 1.955 6.043 9.953 8.65 10.353 3.689.567 17.202-14.277 25.865-28.411 3.147-5.134 6.072-9.785 6.5-10.335.429-.55 2.301-4.375 4.161-8.5 1.86-4.125 4.238-9.381 5.285-11.679 1.046-2.298 1.999-5.517 2.118-7.153.118-1.635.501-2.797.851-2.582.748.46 1.089-.694 4.317-14.586 5.251-22.603 5.642-51.159.952-69.5-.844-3.3-1.863-7.35-2.264-9-.694-2.852-.893-2.605-4.023 5m-333.96.5c0 1.375.227 1.938.504 1.25.278-.687.278-1.812 0-2.5-.277-.687-.504-.125-.504 1.25m182.8 32.51c-6.378 4.062-17.526 21.092-16.495 25.199 1.016 4.049 2.904 2.074 5.514-5.767 1.362-4.093 2.634-6.649 2.826-5.68.191.969.652 1.574 1.023 1.344.898-.557-.189 18.09-1.109 19.01-.394.395-.717.392-.717-.005s-1.092.54-2.428 2.083l-2.427 2.806-3.483-3.36-3.483-3.359-1.653 2.859c-1.489 2.575-1.473 1.689.036-2.022.513-1.264-8.127-9.494-8.933-8.509-1.891 2.309-5.629 8.605-5.629 9.481 0 .619 5.01 4.382 11.133 8.362 11.142 7.244 12.803 7.648 12.852 3.131.027-2.495 1.119-.411 1.544 2.946.541 4.273 1.441 5.061 1.586 1.388.175-4.416.302-4.894 1.385-5.2.55-.156 1.225 1.384 1.5 3.422.734 5.438 2.933 5.589 2.406.165-.383-3.935-.326-4.068.671-1.554 1.377 3.475 1.461 3.468 9.077-.836 8.73-4.934 9.107-5.296 7.344-7.059-1.205-1.205-2.159-1.244-5.722-.232-2.352.668-4.726 1.316-5.276 1.442-.55.125-2.238.548-3.75.939-3.694.957-3.583-.433.73-9.187 5.678-11.527 7.97-24.434 5.67-31.94l-.65-2.122-3.542 2.255m-15.208 10.069c-7.151 5.854-7.814 7.148-4.975 9.717 1.661 1.504 1.959 1.275 4.671-3.595 1.594-2.861 3.999-6.663 5.344-8.451 3.252-4.319 2.859-4.138-5.04 2.329M360.784 309c-.943 2.475-1.954 6.19-2.245 8.257-.557 3.947-2.445 7.743-3.851 7.743-1.433 0-3.688-2.782-3.688-4.551 0-1.373-.277-1.464-1.463-.48-1.28 1.063-1.266 1.515.115 3.623 1.19 1.816 1.417 3.703.921 7.667-.9 7.21-1.716 8.231-9.323 11.673-3.629 1.642-2.852 3.993 1.232 3.732 9.458-.605 21.557-23.375 20.337-38.272l-.319-3.892-1.716 4.5m-135.769 9.691c.035 1.845 1.953 3.908 1.97 2.118.008-.93-.435-1.969-.985-2.309-.55-.34-.993-.254-.985.191m-7.607 12.82c-1.334 5.313 5.385 15.525 13.243 20.13 5.132 3.008 5.752 2.814 4.301-1.348-.733-2.103-2.187-3.48-4.754-4.501-3.169-1.261-4.04-2.348-6.087-7.602-3.121-8.011-5.719-10.599-6.703-6.679m27.592-1.03c0 .265 1.405 3.33 3.121 6.811l3.122 6.33 10.128 1.174c5.571.645 11.141 1.457 12.379 1.805 1.615.454 2.25.209 2.25-.869 0-2.073-4.693-4.964-6.914-4.259-2.691.854-6.816-1.049-7.596-3.503-.981-3.092-16.49-10.135-16.49-7.489m74 2.968c-3.544 1.527-6.061 3.38-7.077 5.21-1.26 2.269-2.469 2.951-6 3.387-4.925.608-8.923 2.452-8.923 4.117 0 .7 1.347.882 3.75.506 2.063-.322 7.845-.889 12.851-1.26l9.1-.673 3.15-6.387c1.732-3.513 3.149-6.603 3.149-6.868 0-1.179-4.961-.202-10 1.968m-78.114 8.43-4.371 3.879 3.955 12.148c4.941 15.18 6.467 16.803 33.285 35.416 11.899 8.259 13.832 8.437 14.12 1.3.211-5.206.063-5.599-2.325-6.199-2.702-.678-3.272-1.859-1.443-2.989.795-.491.772-.891-.081-1.418-.725-.448.012-.974 1.893-1.35 2.592-.518 3.081-1.077 3.081-3.517 0-2.797-.199-2.918-5.535-3.36-5.288-.439-8.581-2.007-7.172-3.415.362-.362 1.232-.218 1.933.32 2.249 1.728 9.774 1.61 9.774-.153 0-.848-.625-1.541-1.389-1.541s-2.437-.848-3.718-1.885c-2.768-2.242-1.101-5.633 2.248-4.57 1.658.526 1.859-.005 1.859-4.919 0-8.778 2.042-8.153 6.119 1.874 2.609 6.415 5.911 6.068 13.283-1.393l5.903-5.973-6.133-.694c-5.877-.665-7.742-2.44-2.563-2.44 2.422 0 8.94-2.784 8.215-3.509-.199-.199-3.702.058-7.786.57-4.083.513-7.675.564-7.981.113-1.124-1.655-3.69-1.915-5.54-.563-2.485 1.818-4.91 1.754-8.744-.228-2.865-1.482-3.226-1.483-4.297-.019-1.06 1.449-1.891 1.46-8.91.117-4.258-.814-10.109-1.481-13.002-1.481-5.17 0-5.291-.069-7.064-4-2.211-4.903-2.225-4.903-7.614-.121m97.193 7.704c.048 1.165.285 1.402.604.605.289-.722.253-1.585-.079-1.917-.332-.332-.568.258-.525 1.312m2.862 2.417c-.335 2.662-.885 3.463-2.298 3.343-1.364-.115-1.561.139-.743.957 1.773 1.773 4.333-1.478 3.871-4.915-.376-2.791-.403-2.771-.83.615M248 350.794c-6.199.617-5.568 2.101.854 2.01 5.484-.078 6.743.309 11.686 3.591l5.54 3.678 6.129-3.783 6.128-3.783-3.918-.758c-4.487-.869-21.211-1.473-26.419-.955m87.149 12.093c-.97.614-.546.971 1.5 1.262 3.725.529 6.523-.061 5.804-1.225-.715-1.157-5.499-1.181-7.304-.037m5.546 5.17c-.342 1.309-.111 1.915.634 1.667 1.438-.479 2.189-3.724.861-3.724-.526 0-1.199.926-1.495 2.057m-69.86 1.016c-1.741.974-1.421 4.927.398 4.927.55 0 .771-.878.49-1.952-.281-1.074.004-2.137.633-2.363.629-.226.915-.664.636-.973-.28-.309-1.251-.147-2.157.361m50.211 12.955c-8.901 9.537-9.15 12.45-.734 8.601 6.506-2.976 6.592-3.09 7.293-9.582.68-6.306.17-6.23-6.559.981m-73.855.612c.299 4.699.475 4.95 5.309 7.587 5.699 3.108 7.5 3.414 7.5 1.276 0-1.771-6.086-8.716-10.213-11.655l-2.906-2.069.31 4.861M542.5 388c-.34.55-.141 1 .441 1s1.059-.45 1.059-1-.198-1-.441-1-.719.45-1.059 1M78 472c0 .55.477 1 1.059 1s.781-.45.441-1-.816-1-1.059-1-.441.45-.441 1" fill-rule="evenodd"/>
<path fill="#4d4c4e" stroke="#4d4c4e" d="M269.25 27.728c2.063.216 5.438.216 7.5 0 2.063-.215.375-.392-3.75-.392s-5.812.177-3.75.392m26.478-.006c1.775.221 4.925.224 7 .008 2.074-.217.622-.397-3.228-.402-3.85-.004-5.548.173-3.772.394m-38.478.967c.962.252 2.538.252 3.5 0 .962-.251.175-.457-1.75-.457s-2.712.206-1.75.457m54.512.018c1.244.239 3.044.23 4-.02s-.062-.446-2.262-.435c-2.2.011-2.982.216-1.738.455m-61.012.955c.688.278 1.813.278 2.5 0 .688-.277.125-.504-1.25-.504s-1.937.227-1.25.504m69.5.027c.962.252 2.538.252 3.5 0 .962-.251.175-.457-1.75-.457s-2.712.206-1.75.457m-76.981 1.004c.973.254 2.323.237 3-.037.677-.274-.119-.481-1.769-.461-1.65.02-2.204.244-1.231.498m85.481-.031c.688.278 1.813.278 2.5 0 .688-.277.125-.504-1.25-.504s-1.937.227-1.25.504m-98 1.643c-2.613.567-4.75 1.345-4.75 1.729 0 .596 3.352.016 13.5-2.338 1.241-.288.861-.456-1-.442-1.65.012-5.137.485-7.75 1.051M335.5 32c1.65.42 4.125.763 5.5.763 2.23 0 2.176-.082-.5-.763-1.65-.42-4.125-.763-5.5-.763-2.23 0-2.176.082.5.763m9.313 1.683c.721.289 1.584.253 1.916-.079.332-.332-.258-.568-1.312-.525-1.165.048-1.402.285-.604.604m4 1c.721.289 1.584.253 1.916-.079.332-.332-.258-.568-1.312-.525-1.165.048-1.402.285-.604.604m4 1c.721.289 1.584.253 1.916-.079.332-.332-.258-.568-1.312-.525-1.165.048-1.402.285-.604.604m4 1c.721.289 1.584.253 1.916-.079.332-.332-.258-.568-1.312-.525-1.165.048-1.402.285-.604.604m-150.148 2.003c-2.659.813-4.643 1.67-4.408 1.904.234.234 3.084-.433 6.334-1.482 3.25-1.05 5.234-1.906 4.409-1.904-.825.002-3.676.669-6.335 1.482M265 37.475c-.825.195-6.225.884-12 1.532-40.421 4.532-86.834 23.357-121.809 49.405C29.642 164.04-2.247 302.019 55.659 415.224 120.558 542.1 279.332 592.911 406 527.34c163.348-84.559 189.998-303.29 51.95-426.374-7.62-6.794-11.902-10.17-22.95-18.095-29.316-21.03-70.199-37.123-110.5-43.495-9.049-1.431-55.242-2.907-59.5-1.901m98.813 1.208c.721.289 1.584.253 1.916-.079.332-.332-.258-.568-1.312-.525-1.165.048-1.402.285-.604.604M370 40.35c0 .279 2.363 1.242 5.25 2.139 2.887.897 5.925 1.847 6.75 2.113.825.265-.075-.383-2-1.439-3.526-1.936-10-3.757-10-2.813m-183.5 5.667c-2.231 1.096-2.894 1.693-1.5 1.35 2.921-.72 7.964-3.281 6.5-3.301-.55-.007-2.8.871-5 1.951m198.5-.186c.825.51 2.625 1.228 4 1.596 1.737.465 2.042.386 1-.258-.825-.51-2.625-1.228-4-1.596-1.737-.465-2.042-.386-1 .258M285.195 59.75a7853.563 7853.563 0 0 1-2.64 27.228c-.787 7.964-1.216 14.694-.953 14.958 2.656 2.656 38.806 3.666 43.381 1.213 10.03-5.379 10.619-20.059.976-24.327-3.716-1.645-3.738-2.492-.085-3.294 9.58-2.104 10.863-16.708 1.932-21.984C323.415 50.951 299.442 47 288.095 47c-1.437 0-1.873 1.919-2.9 12.75M176 50.5c-1.375.786-2.05 1.429-1.5 1.429.55 0 2.125-.643 3.5-1.429s2.05-1.429 1.5-1.429c-.55 0-2.125.643-3.5 1.429m230 4.871c6.875 3.452 14.3 7.409 16.5 8.795 5.202 3.276 8.5 5.012 8.5 4.475 0-1.478-34.266-19.749-36.746-19.594-.415.026 4.871 2.872 11.746 6.324m-235.493-2.382c-.35.566.051.734.941.393 1.732-.665 2.049-1.382.611-1.382-.518 0-1.216.445-1.552.989M227.5 54.5c-4.497 1.524-6.881 2.842-6.666 3.686.184.723 2.402 7.839 4.929 15.814 7.041 22.222 6.725 25.454-2.609 26.706-6.153.825-7.902-1.651-13.567-19.206-2.663-8.25-5.203-15.961-5.646-17.136l-.805-2.135-7.029 2.302c-9.075 2.973-9.222 3.077-8.121 5.755.5 1.218 3.21 9.566 6.021 18.551 7.286 23.286 12.722 28.528 27.754 26.761 16.044-1.885 27.245-12.781 26.038-25.33-.603-6.27-10.851-38.286-12.229-38.205-.589.035-4.22 1.131-8.07 2.437m-64.75 2.066c-4.672 2.432-6.43 4.015-3 2.701 2.861-1.096 9.833-5.246 8.75-5.208-.55.019-3.137 1.147-5.75 2.507m195.698 6.184c-.868 2.063-4.659 11.4-8.425 20.75-3.765 9.35-7.769 19.135-8.896 21.744l-2.051 4.744 2.976 1.539c2.735 1.414 16.59 7.057 28.261 11.51l4.812 1.836 1.793-4.186c3.931-9.182 5.251-7.626-13.008-15.331l-3.589-1.515 6.848-17.171c3.767-9.443 7.326-18.001 7.909-19.017.583-1.016.917-1.968.741-2.116-.813-.683-14.628-6.537-15.428-6.537-.2 0-1.075 1.688-1.943 3.75m-208.198.816c-2.338 1.401-4.25 2.784-4.25 3.072 0 .539 6.747-3.292 8.45-4.798 1.719-1.52.118-.862-4.2 1.726m150.953 2.937L300.906 72h6.218c7.391 0 9.744-1.536 9.099-5.937-.5-3.405-3.985-5.065-10.622-5.06l-4.101.004-.297 5.496M138.875 68.5c-.069.275-.181.945-.25 1.488s-1.812 2.134-3.875 3.536c-2.062 1.401-3.75 2.761-3.75 3.022 0 .261 2.466-1.163 5.48-3.164 3.014-2.001 5.237-4.031 4.941-4.51-.579-.937-2.34-1.195-2.546-.372m296.889 3.56c.405.348 5.236 3.906 10.736 7.908 5.5 4.002 11.462 8.66 13.25 10.351 1.788 1.69 3.25 2.731 3.25 2.313 0-1.012-4.38-4.7-15.394-12.963-5.008-3.757-9.026-7.148-8.927-7.536.098-.387-.683-.704-1.736-.704s-1.583.284-1.179.631M124 81.194C106.28 94.602 86.94 113.64 73.403 131c-2.787 3.575-5.392 7.175-5.787 8-.753 1.572.221.437 12.352-14.379 12.375-15.113 25.158-27.263 47.153-44.817 5.357-4.276 2.949-3.203-3.121 1.39m32.207 3.102-7.292 5.204.67 14.388c.775 16.639 1 16.504-7.607 4.581-3.363-4.658-6.343-8.469-6.622-8.469-.279 0-3.286 2.104-6.682 4.677a1234.731 1234.731 0 0 1-6.487 4.895c-.242.171 9.836 14.451 14.065 19.928l3.862 5c1.699 2.2 4.65 6.25 6.558 9a752.626 752.626 0 0 0 5.709 8.118l2.241 3.117 6.689-4.885c3.679-2.687 6.689-5.266 6.689-5.73 0-.703-2.346-4.037-6.768-9.62-3.38-4.266-6.232-8.287-6.232-8.785 0-.561 4.58.94 20.103 6.587l6.603 2.402 3.711-2.767c2.041-1.521 3.691-3.04 3.667-3.375-.069-.978-14.488-13.546-15.551-13.554-.531-.004-2.931-.758-5.333-1.676l-4.366-1.667.333-16.333c.183-8.984.108-16.312-.167-16.286-.275.025-3.782 2.388-7.793 5.25m143.429-.226c-1.449 7.243-1.164 7.72 5.068 8.499 6.894.861 10.635-.751 11.106-4.788.408-3.486-2.588-5.367-9.924-6.23l-5.614-.661-.636 3.18m164.949 8.792c-.293.474 2.156 3.364 5.441 6.421 3.286 3.058 5.974 5.18 5.974 4.716 0-.465-2.47-2.955-5.489-5.534-3.02-2.58-5.243-5.089-4.941-5.577.301-.489.323-.888.048-.888s-.74.388-1.033.862M422 99.26c-3.575 2.341-12.125 7.818-19 12.173a6899.748 6899.748 0 0 0-17.79 11.298l-5.291 3.382 4.791 4.029c7.447 6.263 8.365 6.499 13.101 3.364 4.574-3.027 4.13-3.159 12.939 3.868 6.848 5.462 6.951 5.705 4.698 11.097-1.942 4.647-2.131 4.267 5.112 10.266l6.06 5.019 4.688-12.628c12.446-33.53 15.588-42.623 14.918-43.182-7.017-5.866-16.258-12.946-16.897-12.944-.456.001-3.754 1.917-7.329 4.258m55 6.135c0 .282 2.499 3.121 5.554 6.309s8.976 10.071 13.158 15.296c10.395 12.988 14.052 16.446 6.359 6.014-7.086-9.609-25.071-29.422-25.071-27.619m-55.746 11.506-8.246 5.551 4.246 3.728c2.335 2.051 4.667 3.609 5.181 3.463 1.029-.293 7.803-16.534 7.348-17.618-.155-.371-3.994 1.823-8.529 4.876m-146.754.775c-10.454.888-21.764 2.639-29.47 4.564l-8.469 2.116 5.969 1.379c5.233 1.21 7.328 1.172 16.97-.3 6.05-.925 16.96-1.738 24.244-1.808 7.285-.07 13.247-.262 13.25-.427.003-.164-.681-1.627-1.52-3.25-1.603-3.1-5.839-3.559-20.974-2.274m27.015 3.079c1.659 2.809 2.478 3.159 9.897 4.236 57.018 8.271 105.218 43.326 130.845 95.16 6.544 13.236 7.46 14.602 9.493 14.142 2.496-.565 2.741.286 1.228 4.265-.794 2.087-.458 4.954 1.5 12.815 20.647 82.906-17.288 165.089-92.866 201.185-100.08 47.798-219.667-10.076-243.949-118.058-7.667-34.093-5.025-67.452 8.066-101.866 4.572-12.02 4.637-13.567.568-13.619-3.254-.041-11.553 24.061-16.351 47.485-3.744 18.281-2.826 47.501 2.18 69.398 8.021 35.082 22.702 61.199 50.159 89.23 27.062 27.629 69.72 46.688 111.715 49.913 93.197 7.158 176.832-60.211 190.613-153.541 1.784-12.082 1.478-46.311-.483-54-.561-2.2-1.287-5.575-1.614-7.5-1.177-6.946-4.714-18.704-8.723-29-23.881-61.331-82.204-105.942-147.215-112.602l-6.872-.704 1.809 3.061m-33.265 7.964c-5.505.513-5.404 1.753.259 3.179 11.424 2.877 18.415 7.246 23.363 14.602 2.853 4.24 13.351 25.362 14.604 29.382.59 1.892.945 2.098 1.728 1 .756-1.061.849-.962.4.424-.592 1.829 2.007 9.416 2.915 8.509 2.306-2.307-3.92-33.025-9.792-48.315l-3.457-9-12.885-.089c-7.087-.049-14.798.09-17.135.308m40.301 3.948c2.41 5.61 7.013 18.935 8.924 25.833.914 3.3 1.914 6.675 2.222 7.5.957 2.563 1.254 5.992 1.917 22.122l.642 15.621 5.622 1.577c6.234 1.749 16.268 7.887 20.122 12.311 5.458 6.264 8.905 11.121 11.1 15.637 2.859 5.886 2.743 5.904 6.555-1.03 1.735-3.156 6.073-9.65 9.64-14.431 3.567-4.781 6.197-9.016 5.845-9.41-.352-.395-.147-.437.455-.094.602.343 2.883-1.273 5.07-3.59 2.186-2.317 5.97-6.013 8.409-8.213 8.71-7.856 8.276-6.714-1.074 2.823-5.225 5.33-9.35 10.25-9.167 10.934.184.683.008.917-.391.519-.867-.868-5.885 4.521-8.123 8.724-.879 1.65-1.933 3.225-2.343 3.5-.409.275-1.705 2.216-2.879 4.314-1.174 2.097-2.853 4.91-3.731 6.25-2.073 3.165-1.634 3.09 5.85-.991 7.332-3.999 18.983-7.827 30.284-9.95 8.719-1.638 28.317-2.728 29.006-1.613.236.382-2.369 2.964-5.789 5.74-5.848 4.747-14.391 13.055-18.421 17.916-.988 1.191-2.566 3.088-3.507 4.215-.94 1.127-1.39 2.239-1 2.471.561.333 17.11-4.07 21.711-5.776.55-.204 2.034-.7 3.297-1.102 6.847-2.181 16.373-7.567 15.454-8.738-.533-.68-1.799-3.486-2.812-6.236-2.087-5.663-4.889-10.717-5.566-10.039-.25.249-.514-.343-.587-1.317-.143-1.899-8.882-16.911-11.938-20.509-1.017-1.196-3.176-3.966-4.799-6.155-9.931-13.394-29.941-30.775-46.049-40-9.649-5.526-21.891-11.48-23.604-11.48-.951 0-1.879-.339-2.063-.753-.638-1.441-23.672-7.76-31.818-8.728-2.467-.293-5.301-.792-6.298-1.109-1.728-.548-1.735-.395-.166 3.257m-210.179 7.894c-20.97 7.745-26.989 37.293-10.487 51.482 18.291 15.729 44.439 5.759 49.055-18.703 3.808-20.181-19.362-39.874-38.568-32.779m94.128 3.526c-3.3 2.161-5.876 4.409-5.725 4.996.151.586-.182.783-.74.439-1.473-.911-16.24 10.618-25.55 19.947-7.572 7.588-18.296 20.531-17.01 20.531 2.62 0 11.176-5.992 16.525-11.574 11.938-12.456 26.263-23.947 38.5-30.884 2.75-1.559 5.149-2.955 5.331-3.103.182-.147-.171-1.206-.785-2.353-1.56-2.915-3.643-2.52-10.546 2.001M64.794 142.75c-2.619 3.022-12.272 18.853-10.518 17.25.884-.808 12.719-19 12.361-19-.18 0-1.009.787-1.843 1.75m442.839-.5c.413.688 2.141 3.275 3.841 5.75 1.7 2.475 5.008 7.762 7.353 11.75 2.344 3.988 4.51 7.25 4.813 7.25.302 0-.678-2.137-2.178-4.75-3.853-6.707-13.492-21.25-14.085-21.25-.272 0-.157.563.256 1.25m-47.133 5.912c-13.753 5.155-23.731 18.45-21.947 29.24 1.617 9.778 8.907 21.865 16.631 27.576l3.186 2.355 4.883-5.31 4.883-5.311-5.094-4.457c-8.809-7.706-10.74-15.856-5.193-21.928 10.261-11.235 23.799-7.642 27.665 7.34 1.39 5.388 2.124 5.594 11.284 3.179 4.126-1.088 4.272-1.257 3.649-4.239-4.159-19.898-24.366-34.286-39.947-28.445m-260.016 3.898c-10.509 6.11-14.518 9.076-13.812 10.218.35.567.169.742-.404.388-.573-.354-3.68 1.489-6.904 4.095-6.143 4.965-15.028 13.239-14.216 13.239.26 0 3.343-1.125 6.852-2.5 12.326-4.831 25.248-2.561 46.358 8.141 3.771 1.913 7.08 3.254 7.352 2.982 2.168-2.168-14.878-40.623-18.007-40.623-.129 0-3.378 1.827-7.219 4.06m-104.602 7.822c-7.403 7.404-3.797 16.811 8.451 22.051 6.815 2.915 9.657 2.652 14.25-1.319 5.771-4.988 5.74-11.62-.083-17.682-7.898-8.223-16.31-9.357-22.618-3.05m-44.915 4.671c-1.207 1.954-1.999 3.748-1.759 3.988.24.24 1.445-1.358 2.678-3.552 2.779-4.944 2.074-5.279-.919-.436M524.01 168.5c.002.55.897 2.35 1.99 4 2.589 3.91 2.592 2.52.004-1.726-1.098-1.801-1.995-2.824-1.994-2.274m-478.436 6.357c-2.262 4.374-1.933 5.244.484 1.28 1.127-1.849 1.834-3.579 1.57-3.843-.264-.264-1.189.89-2.054 2.563M528 176.941c0 .518.445 1.216.989 1.552.566.35.734-.051.393-.941-.665-1.732-1.382-2.049-1.382-.611m-486.298 4.726c.282.733.641 1.333.798 1.333.157 0 .516-.6.798-1.333.281-.734-.078-1.334-.798-1.334-.72 0-1.079.6-.798 1.334m489.143.333c2.68 6.905 7.088 16.352 7.119 15.259.042-1.462-5.904-15.305-7.199-16.759-.49-.55-.454.125.08 1.5M36.684 194.684c-1.458 3.675-2.489 6.844-2.291 7.042.198.198 1.561-2.639 3.028-6.305 1.468-3.666 2.499-6.835 2.291-7.042-.207-.207-1.57 2.63-3.028 6.305m502.695 7.865c2.471 8.064 7.479 21.678 7.523 20.451.062-1.707-6.572-21.025-7.526-21.916-.343-.321-.342.338.003 1.465m-30.379.587c-7.061 1.929-46.535 12.989-47.649 13.351-.805.261-.468 2.709 1.129 8.193 2.649 9.095 1.914 8.88 16.193 4.742 4.726-1.37 8.722-2.361 8.88-2.202.259.259-3.458 4.758-14.547 17.602l-3.731 4.323 2.259 7.769c1.242 4.273 2.423 8.625 2.625 9.672.271 1.409 3.07-1.476 10.759-11.091 5.715-7.147 10.737-13.387 11.158-13.866.422-.48 7.566 1.719 15.876 4.886 8.31 3.166 15.304 5.562 15.542 5.324.238-.238-.238-2.661-1.059-5.386a378.603 378.603 0 0 1-2.481-8.626c-.985-3.656-1.048-3.692-13.722-7.875-7.003-2.311-13.068-4.504-13.479-4.873-.411-.37 4.202-1.981 10.25-3.58 11.35-3 11.642-3.236 10.046-8.1-.523-1.594-1.441-4.811-2.039-7.149-.598-2.338-1.407-4.209-1.799-4.16-.391.05-2.286.521-4.211 1.046M32 206.5c-.66 1.999-.974 3.859-.699 4.134.275.275 1.039-1.135 1.699-3.134.66-1.999.974-3.859.699-4.134-.275-.275-1.039 1.135-1.699 3.134m24.428 3.613c-13.24 20.975-10.034 43.393 7.288 50.948 23.943 10.443 42.476-3.309 44.024-32.668.411-7.79.227-10.295-.799-10.93-2.512-1.552-26.799-7.939-27.505-7.233-.414.415-7.436 25.136-7.436 26.18 0 .194 2.138.876 4.75 1.517 2.612.64 5.502 1.387 6.42 1.66 1.336.398 1.901-.61 2.818-5.027 1.302-6.276 1.872-6.884 5.572-5.956 2.959.743 2.957 4.829-.004 11.916-5.732 13.72-29.592 6.481-28.283-8.58.366-4.208 4.32-13.94 5.664-13.94.32 0 1.126-.87 1.79-1.934 1.084-1.736.596-2.352-4.748-6-7.22-4.929-6.407-4.933-9.551.047m-27.312 4.985c-.614 1.76-1.084 3.696-1.046 4.301.039.606.716-.66 1.504-2.812.789-2.152 1.259-4.087 1.046-4.301-.214-.213-.891 1.052-1.504 2.812m103.485 13.857c-2.313 5.154-5.601 13.739-5.601 14.625 0 .181 1.688.642 3.75 1.025 2.063.382 8.925 2.483 15.25 4.669 6.325 2.186 12.47 4.031 13.655 4.1 1.184.069 1.988.394 1.786.722-.203.328 1.959 1.678 4.803 3 2.845 1.322 7.827 4.113 11.071 6.202 3.245 2.088 6.414 3.586 7.042 3.329.777-.319.738-.494-.122-.548-.695-.043-2.06-1.388-3.033-2.988-6.075-9.989-25.193-27.646-38.35-35.418l-7.648-4.518-2.603 5.8m414.478-2.372c.048 1.165.285 1.402.604.605.289-.722.253-1.585-.079-1.917-.332-.332-.568.258-.525 1.312m-522 3c.048 1.165.285 1.402.604.605.289-.722.253-1.585-.079-1.917-.332-.332-.568.258-.525 1.312m523 1c.048 1.165.285 1.402.604.605.289-.722.253-1.585-.079-1.917-.332-.332-.568.258-.525 1.312m1 4c.048 1.165.285 1.402.604.605.289-.722.253-1.585-.079-1.917-.332-.332-.568.258-.525 1.312m-526.523 4.973c-.377 2.006-.485 3.848-.241 4.093.245.244.753-1.198 1.129-3.205.377-2.006.485-3.848.241-4.093-.245-.244-.753 1.198-1.129 3.205m527.523-.973c.048 1.165.285 1.402.604.605.289-.722.253-1.585-.079-1.917-.332-.332-.568.258-.525 1.312m1 5c.048 1.165.285 1.402.604.605.289-.722.253-1.585-.079-1.917-.332-.332-.568.258-.525 1.312m-426.794 8.667c-13.272 45.866-4.752 97.103 22.978 138.172 5.615 8.317 13.736 18.344 18.378 22.693 4.736 4.436 8.695 3.989 11.811-1.333 3.634-6.206 5.894-6.92 12.018-3.797l3.893 1.984 7.555-5.734c13.595-10.32 18.111-11.665 23.752-7.075.775.631 3.393.006 7.76-1.854 6.24-2.657 6.558-2.953 5.994-5.585-.393-1.832.115-4.143 1.49-6.781 2.571-4.933 2.576-5.555.086-10.44-1.1-2.158-2-4.707-2-5.664 0-5.778-3.518-8.16-17.5-11.845-4.4-1.16-12.05-3.807-17-5.882-17.225-7.221-19.965-7.918-41.955-10.683-6.575-.826-12.137-1.685-12.36-1.907-.598-.598 22.268-11.519 24.117-11.519.869 0 1.858-.45 2.198-1 .34-.55.142-1-.44-1-1.952 0-19.261-8.979-25.945-13.46-7.27-4.873-17.402-14.341-23.615-22.066-2.2-2.736-4.338-5.124-4.75-5.307-2.839-1.262 1.323-1.944 15.5-2.538 8.938-.374 17.825-.887 19.75-1.139 1.925-.252 5.75-.715 8.5-1.028 6.743-.769 17.046-3.41 19.069-4.889 4.758-3.479-44.498-27.573-56.37-27.573-.449 0-1.76 3.262-2.914 7.25m-103.206-4.667c.048 1.165.285 1.402.604.605.289-.722.253-1.585-.079-1.917-.332-.332-.568.258-.525 1.312m531.116 1.917c.02 1.65.244 2.204.498 1.231.254-.973.237-2.323-.037-3-.274-.677-.481.119-.461 1.769M20.158 254c0 1.375.227 1.938.504 1.25.278-.687.278-1.812 0-2.5-.277-.687-.504-.125-.504 1.25m425.96 5.5c-7.364 17.888-16.323 33.103-24.586 41.75-2.497 2.613-4.2 4.757-3.786 4.765.415.008-.209.57-1.386 1.25-1.177.679-4.864 3.557-8.193 6.395l-6.054 5.16 13.943.718c7.669.395 13.944 1.12 13.944 1.61 0 3.06-31.615 20.067-47.161 25.369-12.629 4.308-30.325 9.483-32.426 9.483-3.777 0-5.567 1.942-3.936 4.27 5.59 7.982-2.808 18.891-11.727 15.234-2.316-.95-2.401 3.336-.153 7.684.937 1.811 1.367 4.242 1.04 5.875-.522 2.611-.148 2.977 5.957 5.834l6.515 3.049 3.68-1.973c5.776-3.096 9.181-1.816 21.919 8.234 3.414 2.694 6.564 4.821 7 4.726.436-.095 1.917-.626 3.292-1.181 3.357-1.353 9.954-2.617 9.706-1.859-.639 1.955 6.043 9.953 8.65 10.353 3.689.567 17.202-14.277 25.865-28.411 3.147-5.134 6.072-9.785 6.5-10.335.429-.55 2.301-4.375 4.161-8.5 1.86-4.125 4.238-9.381 5.285-11.679 1.046-2.298 1.999-5.517 2.118-7.153.118-1.635.501-2.797.851-2.582.748.46 1.089-.694 4.317-14.586 5.251-22.603 5.642-51.159.952-69.5-.844-3.3-1.863-7.35-2.264-9-.694-2.852-.893-2.605-4.023 5m107.04-4.5c0 1.375.227 1.938.504 1.25.278-.687.278-1.812 0-2.5-.277-.687-.504-.125-.504 1.25m-533.963 5.5c.02 1.65.244 2.204.498 1.231.254-.973.237-2.323-.037-3-.274-.677-.481.119-.461 1.769m535 2c.02 1.65.244 2.204.498 1.231.254-.973.237-2.323-.037-3-.274-.677-.481.119-.461 1.769m-535.943 8c.011 2.2.216 2.982.455 1.738.239-1.244.23-3.044-.02-4s-.446.062-.435 2.262m537 1c.011 2.2.216 2.982.455 1.738.239-1.244.23-3.044-.02-4s-.446.062-.435 2.262M17.336 283c0 4.125.177 5.813.392 3.75.216-2.062.216-5.437 0-7.5-.215-2.062-.392-.375-.392 3.75m539.075 15c0 9.625.15 13.563.334 8.75.183-4.812.183-12.687 0-17.5-.184-4.812-.334-.875-.334 8.75m-264.759-8.509c-.82.82-1.64 1.051-1.822.512-.181-.538-4.285.929-9.118 3.259-8.175 3.942-8.681 4.36-7.247 5.984.848.961 1.001 1.298.339.75-.662-.548-1.766-.996-2.452-.996-2.086 0-13.457 10.021-12.722 11.211.382.618.223.816-.363.454-.573-.354-3.172 1.849-5.776 4.897-4.496 5.263-4.639 5.611-2.862 6.957 2.335 1.769 3.07 1.814 3.709.231.277-.687.54-.238.583 1 .046 1.298.714 2.25 1.579 2.25.825 0 1.5.4 1.5.888 0 .489 2.813 2.662 6.25 4.83 3.438 2.168 8.845 5.612 12.017 7.653l5.767 3.712 1.01-2.291c.895-2.033.955-1.935.526.868-.333 2.176-.034 3.332.963 3.714 1.427.548 1.869-.456 2.801-6.374.294-1.867.432-1.614.545 1 .083 1.925.544 4.12 1.025 4.878 1.393 2.2 3.331.174 2.865-2.996-.491-3.346-.025-3.747 1.033-.888.884 2.389 4.774.608 18.832-8.626 4.474-2.938 8.859-5.62 9.745-5.96.885-.34 1.354-1.032 1.041-1.538-.313-.506-.198-.801.256-.657 2.913.928 7.324-2.592 7.324-5.844v-3.387l-3.417 2.239c-1.879 1.232-3.159 2.656-2.845 3.164.314.508.106.637-.462.286-1.14-.705-7.276 2.024-7.276 3.236 0 .418-.562.769-1.25.779-.687.011-3.275.949-5.75 2.084-12.768 5.855-18.954 7.762-17.781 5.48 7.836-15.242 10.077-23.097 9.63-33.763-.192-4.577-.733-8.696-1.202-9.154-1.802-1.76-14.583 13.626-19.196 23.109-4.858 9.987-5.332 11.833-2.787 10.857 1.009-.387 1.415-.236 1.032.384-.789 1.277 1.875 5.08 2.865 4.09.398-.399.155-1.411-.541-2.249-.865-1.042-.91-1.524-.142-1.524.617 0 1.173.337 1.236.75.063.413.261 1.985.44 3.494l.325 2.745-3.189-2.99c-1.755-1.644-3.704-2.992-4.333-2.994-.629-.003-1.394-.659-1.701-1.458-1.2-3.128-8.484-6.928-10.399-5.425-1.567 1.229-1.619 1.201-.481-.255 1.415-1.812-.912-3.519-3.021-2.216-.627.388-.771.184-.35-.496.392-.635.236-1.155-.346-1.155s-1.059-.427-1.059-.949 1.624-.271 3.608.559c1.985.829 3.856 1.26 4.158.957.302-.302 2.43.992 4.729 2.875l4.179 3.425 1.68-3.808c.924-2.094 4.125-7.703 7.114-12.464s5.457-8.98 5.483-9.376c.027-.395.499-.719 1.049-.719.55 0 .989-.349.976-.776-.013-.426 1.178-1.889 2.646-3.25 1.469-1.361 2.186-2.474 1.595-2.474s-1.745.671-2.565 1.491m-6.919 2.598c-1.302.759-1.518 1.473-.82 2.719.67 1.198.473 2.213-.678 3.484-1.501 1.66-1.496 1.745.071 1.144.932-.357 1.75-1.052 1.819-1.543.18-1.284.592-2.852.827-3.143.264-.328.919-3.759.71-3.72-.089.017-.957.494-1.929 1.059M278 296c-.901.582-1.025.975-.309.985.655.008 1.469-.435 1.809-.985.767-1.242.421-1.242-1.5 0m-213.4 9.25c-6.608 12.35-6.506 12.259-15.816 14.107-4.556.905-9.27 1.644-10.475 1.644-4.02-.002-3.286 1.623 4.525 10.01l7.756 8.328-1.382 10.91c-.76 6.001-1.182 11.11-.938 11.354.243.243 5.026-1.669 10.629-4.251l10.186-4.694 9.207 4.253c5.065 2.34 9.771 4.49 10.458 4.778 1.572.66 1.554-1.54-.105-13.27l-1.284-9.08 7.999-8.406 7.998-8.406-4.429-1.129c-2.436-.621-7.349-1.68-10.918-2.352-8.189-1.543-7.021-.514-13.127-11.568-2.879-5.213-5.498-9.478-5.82-9.478-.321 0-2.33 3.262-4.464 7.25m433.578 2.619-5.323 9.832-9.439 1.686c-14.785 2.641-14.406 1.859-5.535 11.428l7.709 8.316-1.329 11.067c-.731 6.087-1.135 11.261-.897 11.499.237.238 5.019-1.671 10.626-4.241l10.195-4.673 10.051 4.631c5.529 2.548 10.252 4.431 10.497 4.186.245-.245-.087-5.488-.738-11.652l-1.185-11.207 6.845-7.086c3.765-3.898 7.295-7.44 7.845-7.871 1.695-1.329-.84-2.231-11.699-4.16l-10.323-1.834-5.287-9.895c-2.907-5.442-5.602-9.887-5.989-9.877-.386.01-3.097 4.443-6.024 9.851M17.328 309.5c.005 3.85.185 5.302.402 3.228.216-2.075.213-5.225-.008-7-.221-1.776-.398-.078-.394 3.772m343.516-2.295c-.911 1.812-2.152 5.976-2.758 9.253-1.138 6.147-2.985 9.602-3.204 5.992-.066-1.073-.054-2.321.024-2.774.079-.454-.357-.515-.968-.137-.612.377-.87 1.648-.575 2.824.523 2.081.5 2.086-.913.196-.797-1.068-1.45-2.36-1.45-2.873 0-.512-.663-.381-1.474.292-1.298 1.078-1.298 1.562 0 4.073 2.444 4.725.021 15.949-3.442 15.949-1.012 0-2.399.675-3.084 1.5s-1.81 1.5-2.501 1.5c-.691 0-1.737 1.898-2.326 4.218-1.233 4.855-.721 6.354.801 2.349.766-2.014 1.613-2.633 3.299-2.412 5.292.693 13.989-9.399 17.666-20.502 3.931-11.868 4.628-26.857.905-19.448M285.967 309c-.257 1.925-.242 6.65.033 10.5.475 6.653.528 6.777 1.065 2.5.312-2.475.297-7.2-.032-10.5-.508-5.088-.67-5.468-1.066-2.5m-24.467 0c-.34.55-.141 1 .441 1s1.059-.45 1.059-1-.198-1-.441-1-.719.45-1.059 1m94.167 4.667c-.367.366-.667 1.131-.667 1.7 0 .626.466.567 1.183-.15.651-.651.951-1.416.667-1.7-.284-.284-.817-.217-1.183.15M254 315.393c0 .216.698.661 1.552.989.89.341 1.291.173.941-.393-.587-.951-2.493-1.406-2.493-.596m-28.416 4.107c.384 1.65 1.033 4.575 1.442 6.5l.744 3.5.08-4c.043-2.2-.606-5.125-1.442-6.5l-1.522-2.5.698 3M282 320c-.589 1.1-.845 2-.57 2s.981-.9 1.57-2c.589-1.1.845-2 .57-2s-.981.9-1.57 2m273.252 1.5c.011 2.2.216 2.982.455 1.738.239-1.244.23-3.044-.02-4s-.446.062-.435 2.262M250.5 320c-.34.55-.141 1 .441 1s1.059-.45 1.059-1-.198-1-.441-1-.719.45-1.059 1m-232.248 3.5c.011 2.2.216 2.982.455 1.738.239-1.244.23-3.044-.02-4s-.446.062-.435 2.262m260.312-2.207c.376.986.935 1.541 1.243 1.233.308-.307.001-1.114-.683-1.793-.988-.98-1.102-.865-.56.56m-57.013 2.607c-1.831 3.542-.365 7.827 1.676 4.897.577-.827.647-.395.194 1.195-.618 2.171-.509 2.326.841 1.206 1.046-.869 1.387-2.327 1.048-4.492-.886-5.667-1.891-6.417-3.759-2.806m62.18 1.02c-.435 1.663-.305 2.054.437 1.312.582-.582.86-1.647.62-2.369-.25-.749-.703-.295-1.057 1.057m63.624.965c.386 1.744-.262 3.176-2.413 5.327-3.648 3.648-3.748 4.362-.293 2.098 2.577-1.688 2.62-1.682 1.592.227-.581 1.08-2.265 3.009-3.742 4.287-1.476 1.278-2.413 2.595-2.081 2.927.331.332 1.161-.127 1.842-1.019.682-.892 1.91-1.759 2.728-1.927 3.162-.648 5.197-9.603 2.91-12.805-.85-1.19-.962-1.007-.543.885m-125.791.822c-.542 1.425-.428 1.54.56.56.684-.679.991-1.486.683-1.793-.308-.308-.867.247-1.243 1.233m122.594.293c0 1.375.227 1.938.504 1.25.278-.687.278-1.812 0-2.5-.277-.687-.504-.125-.504 1.25M310 328c0 .55.477 1 1.059 1s.781-.45.441-1-.816-1-1.059-1-.441.45-.441 1m244.232 3c0 1.925.206 2.712.457 1.75.252-.962.252-2.538 0-3.5-.251-.962-.457-.175-.457 1.75m-535.074 0c0 1.375.227 1.938.504 1.25.278-.687.278-1.812 0-2.5-.277-.687-.504-.125-.504 1.25m198.071.005c-2.462 3.942 4.683 15.805 12.566 20.864 6.364 4.083 7.414 4.063 6.008-.119-1.503-4.467-2.483-5.521-5.817-6.253-2.208-.485-3.146-1.486-4.042-4.314-1.374-4.339-5.717-12.183-6.746-12.183-.394 0-1.28.902-1.969 2.005M247.635 337c2.235 4.607 3.989 7.013 5.13 7.038 2.4.052 8.567.832 16.023 2.026 6.178.99 8.212.718 8.212-1.097 0-1.547-5.8-4.014-8.884-3.779-3.181.242-5.717-1.354-6.607-4.161-.633-1.994-11.344-7.027-14.955-7.027h-2.315l3.396 7m-8.852-4.25c-3.692 4.233-5.141 11.985-2.017 10.786 1.203-.461 1.277-.292.354.819-1.483 1.788 6.028 24.952 9.244 28.506 3.348 3.701 23.182 18.654 32.866 24.78 5.392 3.41 15.387 2.04 18.77-2.574.275-.375 4.207-3.484 8.738-6.91s8.131-6.719 8-7.318c-.131-.599.437-1.292 1.262-1.54 1.333-.401 1.333-.333 0 .61-.825.583-1.016 1.067-.424 1.076 2.344.033 5.982-5.015 4.398-6.103-1.155-.794-1.031-.89.576-.444 3.533.982 9.762-6.694 10.963-13.509.324-1.841 1.032-3.881 1.573-4.533.541-.652.875-1.57.742-2.041-.133-.47.539-3.147 1.494-5.949.954-2.802 1.421-5.913 1.037-6.914-.458-1.191-.323-1.588.388-1.148 1.049.648 3.641-8.289 2.682-9.248-.236-.236-1.96 1.333-3.832 3.487-1.871 2.155-2.996 4.067-2.5 4.25.497.184.903.801.903 1.373 0 .641-.558.576-1.456-.17-.801-.664-1.926-.918-2.5-.563-.574.355-1.064-.169-1.089-1.164-.026-1.038-1.051.109-2.406 2.691l-2.361 4.5 2.156 1.19 2.156 1.19-2.25-.153c-1.238-.084-2.25-.4-2.25-.701 0-.669-25.125.766-25.834 1.475-.277.277-1.316-.232-2.309-1.131-1.423-1.287-2.394-1.419-4.581-.622-3.684 1.343-8.03 1.46-8.785.237-.904-1.463-5.197-1.193-5.795.364-.433 1.129-1.55 1.132-6.857.021-3.486-.731-9.113-1.338-12.503-1.349l-6.164-.021-2.864-4.75c-1.575-2.613-3.404-5.988-4.064-7.5-1.381-3.162-3.272-3.509-5.461-1m78.967.913c-3.691 1.685-5.75 3.229-5.75 4.312 0 2.136-4.168 4.424-6.634 3.641-2.101-.667-8.366 2.708-8.366 4.507 0 .799 1.61.97 5.25.557 2.887-.327 8.668-.895 12.847-1.261l7.596-.667 3.154-6.395c1.734-3.517 3.153-6.611 3.153-6.876 0-1.336-6.161-.141-11.25 2.182m-92.133-.853c-.729 1.18.43 5.19 1.5 5.19 1.178 0 1.137-4.725-.048-5.457-.512-.317-1.165-.196-1.452.267M241 336.059c0 .582.45.781 1 .441s1-.816 1-1.059-.45-.441-1-.441-1 .477-1 1.059m-3 .319c0 .207.787.995 1.75 1.75 1.586 1.243 1.621 1.208.378-.378-1.307-1.666-2.128-2.195-2.128-1.372m315.079 1.205c.048 1.165.285 1.402.604.605.289-.722.253-1.585-.079-1.917-.332-.332-.568.258-.525 1.312M20.158 339c0 1.375.227 1.938.504 1.25.278-.687.278-1.812 0-2.5-.277-.687-.504-.125-.504 1.25m207.921 2.583c.048 1.165.285 1.402.604.605.289-.722.253-1.585-.079-1.917-.332-.332-.568.258-.525 1.312M552 343c0 1.65.174 3 .387 3 .212 0 .584-1.35.826-3s.069-3-.386-3-.827 1.35-.827 3m-530.805 1.5c.02 1.65.244 2.204.498 1.231.254-.973.237-2.323-.037-3-.274-.677-.481.119-.461 1.769M327.5 343c.34.55.816 1 1.059 1s.441-.45.441-1-.477-1-1.059-1-.781.45-.441 1m-.732 2.168c.582.582 1.647.86 2.369.62.749-.25.295-.703-1.057-1.057-1.663-.435-2.054-.305-1.312.437m5.87 2.332c-.316.825-.139 1.5.393 1.5.533 0 .969-.675.969-1.5s-.177-1.5-.393-1.5c-.216 0-.652.675-.969 1.5m218.52 1.5c0 1.375.227 1.938.504 1.25.278-.687.278-1.812 0-2.5-.277-.687-.504-.125-.504 1.25M22.17 350c-.016 1.375.357 3.4.83 4.5l.859 2-.029-2c-.016-1.1-.39-3.125-.83-4.5l-.801-2.5-.029 2.5M312 349c0 .55.477 1 1.059 1s.781-.45.441-1-.816-1-1.059-1-.441.45-.441 1m28.823 2.123c-.274 2.869-.674 3.339-2.657 3.124-1.503-.163-2.186.193-1.917 1 .23.689 1.477 1.253 2.771 1.253 2.652 0 5.009-5.871 3.117-7.763-.655-.655-1.101.155-1.314 2.386m-11.49-.667c0 .801.383 1.22.85.931.467-.289.591-.944.274-1.456-.808-1.308-1.124-1.161-1.124.525m-24.292.765c-2.374.397-4.593 1.023-4.929 1.391-.337.368.659.364 2.213-.009 2.613-.628 9.678 1.087 9.673 2.348-.002.302 3.829.403 8.513.225 8.633-.328 10.205-1.31 4.26-2.661-3.172-.721-3.196-.764-.792-1.419 3.313-.904-13.446-.792-18.938.125m-59.541.744c-1.435.591-.729.79 2.5.704 11.595-.308 24.08.392 23.507 1.32-.585.947.378.801 4.243-.642 3.05-1.14-5.449-2.233-17.25-2.219-6.05.007-11.9.383-13 .837m303.643 5.678c-.629 3.13-.957 5.876-.73 6.103.227.227.941-2.134 1.587-5.246.646-3.112.975-5.859.73-6.103-.244-.245-.959 2.116-1.587 5.246m-261.341 1.566c-.265 4.576-.597 5.279-2.728 5.778-1.334.312-2.605 1.105-2.823 1.761-.452 1.354 5.882 5.572 6.71 4.469.296-.394 1.439-1.213 2.539-1.819 2.83-1.56 2.953-4.474.437-10.324-2.769-6.435-3.755-6.402-4.135.135m1.198 3.849c0 3.954-.137 4.149-2.593 3.679-2.331-.445-2.438-.34-1.06 1.038 1.378 1.378 1.793 1.364 4.093-.144 2.281-1.494 3.89-5.571 1.653-4.189-.498.309-.684-.289-.413-1.328.272-1.038.005-2.191-.593-2.56-.716-.443-1.087.751-1.087 3.504m46.106-.685c-1.491 1.795-.382 2.627 3.502 2.627 3.086 0 5.268-1.457 4.032-2.693-1.216-1.217-6.509-1.17-7.534.066M302 366.059c0 .582.45.781 1 .441s1-.816 1-1.059-.45-.441-1-.441-1 .477-1 1.059m32.006 1.536c-.008 1.397 3.285 4.405 4.823 4.405 1.349 0 5.171-3.585 5.171-4.851 0-.468-2.247-.806-4.994-.75-2.885.058-4.996.563-5 1.196m-36.085 2.155c-1.127 1.489-1.115 1.563.077.5 1.949-1.738 4.945-1.562 5.673.334.472 1.232.784 1.298 1.402.298 1.939-3.137-4.825-4.208-7.152-1.132m-270.849-.052c-.098 1.633 4.98 17.584 5.449 17.115.206-.207-.919-4.411-2.501-9.344-1.581-4.933-2.908-8.43-2.948-7.771m242.471.233c-.969 1.568.874 1.949 2.246.464 1.06-1.146 1.025-1.395-.191-1.395-.814 0-1.739.419-2.055.931M300.5 371c.34.55.816 1 1.059 1s.441-.45.441-1-.477-1-1.059-1-.781.45-.441 1m-4.956 1.929c-.316.511-4.575.848-9.464.75-12.85-.259-10.406 1.544 3.675 2.711 3.028.251 5.016.048 4.691-.477-.31-.502.052-.913.804-.913s2.241-.661 3.309-1.468c1.897-1.435 1.892-1.469-.25-1.5-1.205-.018-2.449.386-2.765.897m249.535.654c.048 1.165.285 1.402.604.605.289-.722.253-1.585-.079-1.917-.332-.332-.568.258-.525 1.312m-223.792 6.689c-6.057 6.075-9.899 14.374-6.094 13.167 1.18-.375 4.432-1.942 7.226-3.483l5.081-2.802.298-6.077c.361-7.368.07-7.404-6.511-.805m-74.894-1.69c.334.87.607 3.322.607 5.449 0 3.779.149 3.938 6.578 7.006 3.618 1.727 6.795 2.924 7.059 2.66.975-.976-2.65-7.838-5.35-10.127a533.76 533.76 0 0 1-5.19-4.467c-2.847-2.492-4.552-2.732-3.704-.521m45.876.111c.973.254 2.323.237 3-.037.677-.274-.119-.481-1.769-.461-1.65.02-2.204.244-1.231.498m-5.083 4.362c-2.955 1.185-2.044 2.764 1.378 2.389 3.115-.342 3.865-.941 2.977-2.377-.773-1.251-1.262-1.253-4.355-.012M286 387.393c0 .216.698.661 1.552.989.89.341 1.291.173.941-.393-.587-.951-2.493-1.406-2.493-.596m256.5.607c-.34.55-.141 1 .441 1s1.059-.45 1.059-1-.198-1-.441-1-.719.45-1.059 1m-232.369 1.342c-.612.738-.78 1.71-.372 2.16.407.45.159.483-.553.072-1.483-.855-4.458 1.209-3.643 2.528.297.481-.045.668-.761.415-1.299-.46-5.539 2.105-4.729 2.861.797.743 11.113-2.873 10.351-3.628-.417-.413-.184-.75.516-.75.701 0 1.036-.62.745-1.378-.291-.758-.024-1.883.593-2.5.774-.774.788-1.122.044-1.122-.592 0-1.578.604-2.191 1.342m229.493.197c-.965 2.514-.681 3.163.498 1.136.584-1.004.851-2.036.593-2.293-.257-.258-.749.263-1.091 1.157m-277.624.52c0 .582.468.77 1.04.416.682-.421.802.304.35 2.106-.574 2.289-.414 2.642.96 2.115.908-.348 1.65-.252 1.65.214 0 .86 8.134 3.289 8.796 2.627.199-.198-1.661-1.546-4.133-2.994-2.471-1.449-5.037-3.288-5.701-4.088-1.413-1.703-2.962-1.91-2.962-.396M34.031 391.5c0 .55.436 1.675.969 2.5.533.825.969 1.05.969.5s-.436-1.675-.969-2.5c-.533-.825-.969-1.05-.969-.5m499.936 11.776c-5.38 12.254-5.569 12.772-3.733 10.224 1.799-2.496 9.087-19.512 8.576-20.023-.207-.207-2.386 4.203-4.843 9.799m-497.909-6.961c-.087 1.22 4.156 10.805 4.59 10.37.207-.206-.729-2.807-2.079-5.78-1.349-2.973-2.48-5.038-2.511-4.59m253.755 1.368c.721.289 1.584.253 1.916-.079.332-.332-.258-.568-1.312-.525-1.165.048-1.402.285-.604.604M212 402.164c-4.795 3.304-12.571 9.559-17.5 14.077-1.65 1.512-3.538 2.752-4.195 2.754-.835.004-.641 1.432.648 4.755a423.511 423.511 0 0 1 3.516 9.471c1.42 4.004 2.567 5.263 7.549 8.29 5.011 3.044 22.22 11.489 23.412 11.489.546 0 .192-1.64-1.731-8-5.733-18.965-9.239-41.497-6.885-44.25 2.266-2.651.208-2.046-4.814 1.414m144.733-2.139c1.744.701 2.137 1.508 1.796 3.686-.24 1.534-.696 5.834-1.012 9.555-.548 6.437-6.527 32.707-8.533 37.49-.929 2.215-.889 2.23 2.285.855 18.236-7.902 26.05-12.739 28.047-17.359 1.953-4.519 5.583-15.484 4.899-14.801-.267.267-3.687-2.495-7.6-6.138-7.79-7.252-18.01-14.349-20.52-14.25-1.046.042-.827.373.638.962m-137.733.44c0 .255 1.012 1.004 2.25 1.664 2.04 1.087 2.122 1.043.878-.465-1.278-1.549-3.128-2.258-3.128-1.199m-38.893 16.762-3.174 6.273 3.049 2.75c4.202 3.789 4.509 3.57 4.581-3.269.068-6.456 1.409-9.079 3.678-7.196.764.634 1.898.747 2.674.267 1.043-.644.809-1.174-1.033-2.338-5.564-3.517-6.362-3.23-9.775 3.513m205.067-4.37c-3.08 1.642-3.197 1.878-1.587 3.208 1.339 1.106 1.835 1.148 2.159.185 1.504-4.47 4.254.944 4.254 8.375 0 3.959.94 4.194 4.495 1.125l2.606-2.25-3.129-6.25c-3.403-6.798-3.859-7.026-8.798-4.393m-342.156-.578C42.993 413.344 48.917 425 49.483 425c.25 0 .174-.729-.168-1.62-1.032-2.69-6.277-11.938-6.297-11.101M174 421c0 .55.45 1 1 1s1-.45 1-1-.45-1-1-1-1 .45-1 1m349.964 3.25c-2.009 4.11-2.011 4.168-.074 1.75 1.863-2.325 3.417-6 2.537-6-.213 0-1.321 1.913-2.463 4.25m-401.662-.213c-21.274 8.448-27.61 30.547-13.972 48.741 5.208 6.947 21.7 19.824 23.113 18.046 1.068-1.344 7.557-13.088 7.557-13.677 0-.41-1.687-1.343-3.75-2.073-4.781-1.692-11.845-7.391-13.766-11.104-6.214-12.017 7.549-27.658 19.786-22.486 5.085 2.149 13.73 12.212 13.73 15.981 0 2.133.768 1.981 8.819-1.748l7.089-3.284-3.204-5.785c-10.244-18.496-30.438-28.553-45.402-22.611M425 426.121c-2.475 2.22-10.425 9.158-17.666 15.417-7.241 6.26-13.453 11.846-13.804 12.414-.759 1.227 37.026 45.048 38.844 45.048.964 0 36.626-31.229 36.626-32.073 0-.404-1.953-2.891-4.341-5.528l-4.341-4.795-2.775 2.184c-1.526 1.2-5.934 4.997-9.794 8.436-11.547 10.287-10.763 9.969-13.853 5.63l-2.24-3.146 4.012-3.604a472.208 472.208 0 0 1 8.672-7.549c5.632-4.768 5.643-4.96.599-10.305-5.079-5.381-4.462-5.505-13.651 2.727-8.813 7.895-9.042 7.978-12.357 4.45l-2.418-2.574 4.524-4.176c2.488-2.298 7.64-6.911 11.449-10.253l6.926-6.076-4.362-5.174c-5.183-6.146-4.456-6.07-10.05-1.053M52.557 430.75c7.687 13.293 23.229 35.252 27.126 38.329.99.782-.03-.829-2.267-3.579-5.881-7.231-15.223-20.667-21.381-30.75-5.61-9.186-8.199-12.163-3.478-4m464.93 4.5c-4.577 7.532-5.26 8.984-2.824 6.001 2.105-2.577 7.662-12.251 7.037-12.251-.229 0-2.125 2.813-4.213 6.25m-6.209 10c-1.499 1.938-2.442 3.75-1.952 3.75.244 0 1.181-1.125 2.082-2.5 1.686-2.573 1.592-3.476-.13-1.25m-7.33 10.5c-6.052 8.106-13.387 16.791-19.848 23.5-3.045 3.163-5.208 5.75-4.805 5.75 1.659 0 29.705-32.602 29.705-34.53 0-1.177-1.055-.075-5.052 5.28M171.5 460.175c-20.703 7.659-27.217 34.783-12.078 50.29 20.193 20.682 49.837 16.042 58.754-9.196 5.299-14.998-2.25-30.253-19.073-38.542-7.23-3.562-21.345-4.867-27.603-2.552M374 464.2a3225.946 3225.946 0 0 1-22.5 9.758c-6.355 2.72-10.887 5.225-10.732 5.931.303 1.377 9.86 23.385 14.218 32.739 1.57 3.37 4.294 9.585 6.053 13.811 1.869 4.49 3.669 7.48 4.33 7.194 14.993-6.491 28.193-12.279 32.131-14.088 2.75-1.264 6.689-2.895 8.753-3.624 4.227-1.492 4.233-1.949.14-10.093l-2.347-4.671-13.644 5.921c-7.504 3.257-13.808 5.922-14.009 5.922-.473 0-3.504-7.234-3.156-7.533.825-.709 11.106-5.47 16.052-7.433 3.184-1.264 5.659-2.589 5.5-2.945-.159-.355-1.384-3.221-2.723-6.368-2.918-6.858-2.04-6.782-14.172-1.221-11.747 5.385-10.661 5.301-12.477.956-1.435-3.434-1.223-5.456.572-5.456.479 0 3.94-1.373 7.691-3.052 3.751-1.678 9.07-4.023 11.82-5.21 2.75-1.187 5.193-2.295 5.429-2.461.457-.321-3.801-11.314-4.823-12.451-.333-.371-5.781 1.597-12.106 4.374M78 472c0 .55.477 1 1.059 1s.781-.45.441-1-.816-1-1.059-1-.441.45-.441 1m5.549 1.933c1.623 1.888 3.972 4.505 5.22 5.815 1.248 1.309 1.963 2.915 1.59 3.567-.374.652-.298.838.168.415 1.104-1.004 8.58 6.288 7.777 7.587-.353.571-.102.676.59.248 1.511-.933 1.134-1.413-9.845-12.517-4.649-4.702-7.124-7.003-5.5-5.115m98.417.887c-11.019 4.884-15.556 21.579-7.797 28.694 6.535 5.993 13.694 5.859 19.926-.374 6.877-6.876 8.499-19.577 3.123-24.443-4.026-3.643-11.495-5.542-15.252-3.877m46.286 10.93c-.607 3.712-2.701 15.525-4.653 26.25a8058.158 8058.158 0 0 0-4.12 22.75c-.506 2.888-.314 3.25 1.726 3.25 1.263 0 5.413.652 9.223 1.449 7.68 1.607 8.572 1.424 8.573-1.758.001-2.064 2.857-16.882 3.349-17.374.281-.281 18.522 2.576 20.792 3.257 1.469.44 3.858-7.778 3.858-13.271 0-.568-4.997-1.837-11.104-2.82l-11.103-1.786.649-4.061c.87-5.441.226-5.278 12.339-3.13 5.895 1.045 12.286 1.921 14.202 1.947l3.482.047 1.177-6.5c.647-3.575 1.058-6.622.914-6.77-.656-.675-43.201-8.23-46.342-8.23-1.519 0-2.06 1.234-2.962 6.75M319 482.581c-6.325.719-14.875 1.785-19 2.369-4.125.585-9.187 1.06-11.25 1.057-2.062-.004-3.75.2-3.75.454 0 .253 1.332 12.066 2.959 26.25 1.628 14.184 3.073 27.531 3.213 29.659l.253 3.871 8.537-.74c4.696-.407 9.145-.762 9.887-.787 1.341-.047 1.21-4.703-.489-17.36l-.556-4.145 4.025-.68c2.214-.374 7.095-.984 10.848-1.355l6.823-.674-.079-6.746c-.044-3.71-.331-6.997-.638-7.304-.307-.307-5.366-.041-11.241.592-5.876.632-10.814.994-10.974.804-.159-.19-.573-2.195-.918-4.455l-.629-4.11 8.74-1.116a1182.5 1182.5 0 0 1 14.613-1.771l5.874-.655-.615-5.12c-.339-2.815-.62-6.131-.624-7.369-.006-1.526-.572-2.206-1.759-2.112-.962.075-6.925.725-13.25 1.443M475.5 488c-.995 1.1-1.39 2-.877 2 .513 0 1.703-.9 2.645-2s1.337-2 .877-2c-.459 0-1.65.9-2.645 2M101 491.414c0 1.389 25.929 23.586 27.551 23.586 1.276 0-.195-1.373-6.801-6.346-3.987-3.002-10.287-8.242-14-11.644-3.713-3.403-6.75-5.921-6.75-5.596m368.437 2.674c-4.218 4.435-19.628 16.745-28.741 22.958-4.293 2.926-8.075 5.758-8.405 6.292-.33.534 1.463-.449 3.985-2.184 2.521-1.735 5.028-3.154 5.571-3.154.542 0 1.136-.363 1.32-.808.183-.444 3.483-3.173 7.333-6.064C462.914 501.806 474.808 491 472.656 491c-.155 0-1.604 1.39-3.219 3.088M130 515.716c0 .434 2.7 2.477 6 4.54s6 3.541 6 3.285c0-.257-2.7-2.3-6-4.541-3.3-2.241-6-3.719-6-3.284m13 8.603c0 .611 9.735 6.681 10.715 6.681 1.156 0-.99-1.605-5.965-4.462-2.613-1.5-4.75-2.499-4.75-2.219m281.282 3.394c-3.419 2.027-6.018 3.885-5.774 4.129.244.243 1.11-.11 1.924-.786.814-.675 2.02-.895 2.679-.488.688.426.937.319.584-.252-.337-.546 1.168-1.995 3.346-3.219 2.177-1.224 3.959-2.421 3.959-2.661 0-.688-.16-.611-6.718 3.277M157 532.471c0 .476 8.634 5.222 12.25 6.733 4.424 1.849 1.05-.531-5.25-3.704-3.85-1.939-7-3.302-7-3.029m254.75 2.095c-2.613 1.36-4.75 2.696-4.75 2.97s2.25-.642 5-2.036c2.75-1.394 5-2.751 5-3.017 0-.661.09-.697-5.25 2.083M401 540c-1.925 1.054-3.05 1.916-2.5 1.916.55 0 2.575-.862 4.5-1.916 1.925-1.054 3.05-1.916 2.5-1.916-.55 0-2.575.862-4.5 1.916m-227 1.5c1.375.786 2.95 1.429 3.5 1.429.55 0-.125-.643-1.5-1.429s-2.95-1.429-3.5-1.429c-.55 0 .125.643 1.5 1.429m218.5 2.517c-2.2 1.081-2.875 1.655-1.5 1.276 1.375-.38 3.625-.658 5-.618 1.375.04 1.935-.135 1.244-.387-.691-.252-1.002-.87-.691-1.373.754-1.221.58-1.174-4.053 1.102M182 545c.825.533 1.95.969 2.5.969s.325-.436-.5-.969c-.825-.533-1.95-.969-2.5-.969s-.325.436.5.969m12.087 4.345c.877.99 15.079 5.822 15.596 5.306.244-.245-2.621-1.458-6.369-2.695-3.748-1.237-7.489-2.48-8.314-2.762-.825-.282-1.236-.214-.913.151M370.5 552c-2.75 1.015-4.325 1.845-3.5 1.845.825 0 3.75-.83 6.5-1.845 2.75-1.015 4.325-1.845 3.5-1.845-.825 0-3.75.83-6.5 1.845m-16.5 5c-2.01.644-2.108.806-.5.83 1.1.016 2.9-.357 4-.83 2.548-1.095-.081-1.095-3.5 0m-134.187.683c.721.289 1.584.253 1.916-.079.332-.332-.258-.568-1.312-.525-1.165.048-1.402.285-.604.604m4 1c.721.289 1.584.253 1.916-.079.332-.332-.258-.568-1.312-.525-1.165.048-1.402.285-.604.604M345 559c-2.01.644-2.108.806-.5.83 1.1.016 2.9-.357 4-.83 2.548-1.095-.081-1.095-3.5 0m-117.25.662c.688.278 1.813.278 2.5 0 .688-.277.125-.504-1.25-.504s-1.937.227-1.25.504m5 1c.688.278 1.813.278 2.5 0 .688-.277.125-.504-1.25-.504s-1.937.227-1.25.504M335 561l-2.5.801h2.5c1.375 0 3.625-.361 5-.801l2.5-.801H340c-1.375 0-3.625.361-5 .801m-94.5 1.057c5.066 1.048 9.159 1.001 5-.057-1.65-.42-4.35-.765-6-.767-2.522-.002-2.363.129 1 .824m87.769.636c.973.254 2.323.237 3-.037.677-.274-.119-.481-1.769-.461-1.65.02-2.204.244-1.231.498m-78.019.996c.963.252 2.537.252 3.5 0 .963-.251.175-.457-1.75-.457s-2.713.206-1.75.457m70.019.004c.973.254 2.323.237 3-.037.677-.274-.119-.481-1.769-.461-1.65.02-2.204.244-1.231.498m-60.519 1.013c1.238.238 3.262.238 4.5 0 1.238-.239.225-.434-2.25-.434s-3.488.195-2.25.434m50.012.001c1.244.239 3.044.23 4-.02s-.062-.446-2.262-.435c-2.2.011-2.982.216-1.738.455m-32.563 1.037c4.785.183 12.885.184 18 .002 5.116-.182 1.201-.332-8.699-.333-9.9-.001-14.085.148-9.301.331" fill-rule="evenodd"/>
<path fill="#090809" stroke="#090809" d="M266.75 27.662c.688.278 1.813.278 2.5 0 .688-.277.125-.504-1.25-.504s-1.937.227-1.25.504m4.25 9.975c-21.585 1.952-34.679 4.118-50.719 8.387C88.617 81.07 6.023 212.657 32.124 345.79c6.367 32.473 21.144 68.767 37.747 92.71a9087.59 9087.59 0 0 0 5.548 7.991c78.167 112.356 237.505 142.615 353.081 67.051C524.027 451.087 567.871 333.803 536.366 225c-6.548-22.612-19.45-51.369-30.223-67.364-7.748-11.503-11.575-17.012-12.643-18.197-.55-.611-2.575-3.079-4.5-5.485-3.883-4.855-22.269-24.882-24.285-26.454-.705-.55-4.417-3.713-8.249-7.029C415.087 64.657 365.023 43.463 310 38.466c-14.184-1.288-30.171-1.628-39-.829M376 42c.825.533 1.95.969 2.5.969s.325-.436-.5-.969c-.825-.533-1.95-.969-2.5-.969s-.325.436.5.969m-90 4.837c0 .583-1.125 11.996-2.5 25.361-3.381 32.862-3.552 30.489 2.25 31.178 29.397 3.489 38.602 3.031 43.515-2.166 3.053-3.23 4.977-9.752 4.128-13.997-.589-2.945-5.699-9.213-7.512-9.213-.484 0-.881-.45-.881-1s.64-1 1.423-1C330.68 76 334 71.004 334 64.6c0-11.188-5.796-14.442-29.5-16.565-6.6-.591-13.462-1.341-15.25-1.666-1.994-.363-3.25-.182-3.25.468m-58.25 6.895c-9.014 2.973-8.737 1.964-4.208 15.322 8.349 24.62 8.556 27.754 2.012 30.488-7.478 3.124-9.612.261-16.988-22.792-2.595-8.112-5.245-14.75-5.889-14.75-.643 0-4.606 1.144-8.805 2.543l-7.636 2.543 1.816 5.834a993.197 993.197 0 0 0 4.251 13.208 825.646 825.646 0 0 1 4.209 13.145c2.157 7.01 8.066 14.103 13.148 15.78 9.756 3.22 27.202-1.568 33.799-9.276 7.504-8.767 6.976-13.484-5.991-53.527-.509-1.571-.42-1.585-9.718 1.482m130.305 8.563c-.987 2.313-4.164 10.055-7.06 17.205-7.623 18.82-10.951 26.776-11.99 28.665-.604 1.098-.506 1.992.29 2.629 1.5 1.2 33.69 14.206 35.16 14.206 1.4 0 6.78-12.174 5.798-13.117-.414-.398-4.942-2.392-10.061-4.431-5.509-2.195-9.107-4.166-8.815-4.83.271-.617 2.496-6.072 4.945-12.122 2.449-6.05 5.629-13.804 7.065-17.23 3.077-7.337 3.214-8.857.863-9.559-.962-.288-4.597-1.67-8.076-3.073l-6.326-2.549-1.793 4.206m-56.202 3.512-.353 4.992 4.348.595c7.618 1.042 11.506-1.703 9.568-6.753-.563-1.467-1.711-1.851-9.563-3.199l-3.648-.626-.352 4.991M139 69c0 .55.45 1 1 1s1-.45 1-1-.45-1-1-1-1 .45-1 1m298.543 2.931c-.317.512-.193 1.167.274 1.456.467.289.85-.13.85-.931 0-1.686-.316-1.833-1.124-.525M158.28 82.091c-3.421 2.627-6.978 5.2-7.904 5.719-1.66.928-2.271 25.585-.71 28.641.792 1.551-2.982-3.045-8.78-10.691-5.834-7.695-5.605-7.698-14.846.198l-4.459 3.81 2.877 4.366c5.455 8.277 29.79 40.866 30.516 40.866.904 0 14.026-9.881 14.026-10.562 0-.272-2.91-4.532-6.467-9.466-3.556-4.935-6.25-8.972-5.986-8.972.264 0 1.262.427 2.217.948 2.569 1.403 21.345 8.052 22.738 8.052.659 0 3.091-1.371 5.404-3.047l4.206-3.047-5.295-4.703c-2.912-2.587-6.226-5.603-7.364-6.703-1.139-1.1-4.622-2.857-7.739-3.905l-5.669-1.905-.273-17.187-.272-17.188-6.22 4.776m141.481 4.159c-.607 5.743-.599 5.75 7.279 5.75 6.657 0 6.947-.102 7.588-2.655 1.227-4.888-1.827-7.042-10.273-7.245l-4.145-.1-.449 4.25m-182.889.5c-1.243 1.586-1.208 1.621.378.378 1.666-1.307 2.195-2.128 1.372-2.128-.207 0-.995.787-1.75 1.75M456 86.378c0 .207.788.995 1.75 1.75 1.586 1.243 1.621 1.208.378-.378-1.307-1.666-2.128-2.195-2.128-1.372M110.872 91.75c-1.243 1.586-1.208 1.621.378.378 1.666-1.307 2.195-2.128 1.372-2.128-.207 0-.995.787-1.75 1.75M418 101.049c-5.775 3.793-16.907 10.846-24.737 15.674-7.831 4.827-14.243 9.013-14.25 9.301-.007.288 2.677 2.538 5.966 5 3.288 2.462 5.988 4.814 6 5.226.045 1.609 3.226.614 7.168-2.241l4.13-2.992 3.715 3.242c2.043 1.782 5.331 4.478 7.306 5.989l3.591 2.749-2.012 4.548c-1.107 2.502-1.869 4.94-1.695 5.418.655 1.79 13.185 11.069 13.935 10.319.794-.794 7.753-19.427 15.027-40.236 2.202-6.3 4.42-12.232 4.929-13.183.728-1.36.233-2.211-2.324-3.997-1.787-1.247-5.759-4.428-8.827-7.067-3.067-2.64-5.992-4.765-6.5-4.723-.507.042-5.647 3.18-11.422 6.973M98.924 102.75 96.5 105.5l2.75-2.424c2.57-2.266 3.209-3.076 2.424-3.076-.179 0-1.416 1.237-2.75 2.75m-6.052 6c-1.243 1.586-1.208 1.621.378.378 1.666-1.307 2.195-2.128 1.372-2.128-.207 0-.995.787-1.75 1.75M484 112.5c1.292 1.375 2.574 2.5 2.849 2.5.275 0-.557-1.125-1.849-2.5-1.292-1.375-2.574-2.5-2.849-2.5-.275 0 .557 1.125 1.849 2.5m-63.252 5.331-6.752 4.666 3.752 3.214c2.064 1.768 4.034 3.231 4.379 3.251.688.042 4.685-8.845 5.942-13.212 1.023-3.553.7-3.462-7.321 2.081M259 119.034c-10.88 1.749-21.636 4.269-22.683 5.315-.592.593 10.283 2.928 13.683 2.939 1.375.004 7.225-.726 13-1.622 5.775-.896 15.788-1.638 22.25-1.648 12.374-.019 12.39-.026 11.12-4.768-.79-2.947-19.694-3.056-37.37-.216m40.64-1.261c-1.577 2.552 4.359 6.942 10.216 7.554 58.214 6.085 114.495 49.84 137.527 106.918 1.39 3.446 1.716 3.668 4.064 2.775 1.404-.534 2.548-.869 2.542-.745-.006.124-.623 2.25-1.371 4.725-.932 3.085-1.064 5.286-.419 7 .518 1.375 2.007 7 3.308 12.5 14.394 60.811-7.732 127.818-55.608 168.404-12.06 10.224-15.574 12.681-28.399 19.854-56.166 31.415-125.161 29.259-178.5-5.579-69.493-45.389-97.062-132.201-66.378-209.02 2.492-6.237 4.383-11.463 4.204-11.614-.704-.592-4.726-2.545-5.24-2.545-1.741 0-9.935 21.693-13.554 35.884-9.525 37.349-5.183 82.146 11.401 117.636 4.137 8.852 12.239 23.482 13.557 24.48.363.275 2.534 3.28 4.823 6.678 2.29 3.398 9.178 11.394 15.306 17.768 80.452 83.687 217.31 71.031 280.568-25.946C504.773 291.656 451.162 153.726 332 122.587c-14.283-3.732-31.45-6.286-32.36-4.814M491.5 121c.995 1.1 2.035 2 2.31 2 .275 0-.315-.9-1.31-2-.995-1.1-2.035-2-2.31-2-.275 0 .315.9 1.31 2m-293.674 8.75c17.323 17.519 29.606 39.348 32.494 57.75 1.163 7.413 1.849 8.39 10.027 14.285 4.484 3.233 8.966 6.174 9.959 6.537.993.362 6.249 3.588 11.679 7.168 5.43 3.581 10.242 6.51 10.694 6.511 2.127.002-.457-34.228-3.727-49.372-3.7-17.13-8.726-23.874-26.404-35.428l-5.048-3.299 4.5.625c8.452 1.174 26.49 6.28 33 9.341 9.107 4.283 13.658 8.74 18.513 18.132.995 1.925 1.991 2.962 2.214 2.304.509-1.507-6.484-13.573-10.761-18.568-2.61-3.048-8.451-6.932-10.966-7.292-.275-.039-3.65-1.032-7.5-2.207-11.606-3.54-34.33-8.015-57-11.224-20.171-2.855-19.465-3.142-11.674 4.737m69.424-1.018c-5.7.514-5.355 1.615 1 3.194 13.089 3.253 20.167 8.519 26.348 19.605 4.242 7.608 9.773 19.148 15.082 31.469l2.37 5.5-.582-8.5c-.887-12.944-3.127-23.823-7.567-36.755-2.218-6.46-4.281-12.532-4.583-13.495-.547-1.737-17.954-2.289-32.068-1.018m40.6 3.909c2.323 4.267 5.944 13.211 7.229 17.859 5.817 21.035 6.014 22.162 6.613 37.722l.605 15.722 5.101 1.497c12.392 3.637 25.102 14.691 31.399 27.309 3.158 6.329 3.136 6.325 5.965.992 6.538-12.324 17.411-25.458 30.801-37.206 7.693-6.749 7.607-6.626-2.777 4-10.429 10.672-17.757 19.206-17.776 20.703-.006.406-.707 1.552-1.559 2.547-2.202 2.572-7.785 12.509-6.785 12.075.459-.198 4.364-2.101 8.679-4.227 8.424-4.15 13.015-5.6 27.265-8.608 8.238-1.739 28.778-2.972 29.952-1.798.262.262-3.286 3.458-7.885 7.103-7.728 6.124-21.009 20.455-20.714 22.35.208 1.331 10.025-.799 18.537-4.022 1.65-.625 3.225-1.202 3.5-1.282 3.262-.953 6.177-2.153 11.969-4.93l6.875-3.294-2.978-7.327c-4.151-10.214-16.176-30.611-21.366-36.241-.55-.597-2.184-2.66-3.63-4.585-4.455-5.927-16.096-17.333-25.883-25.361-20.263-16.619-50.266-29.295-80.862-34.161l-4.376-.696 2.101 3.859m-211.559 8.314c-15.665 7.111-23.543 28.624-15.736 42.969 7.726 14.194 27.29 21.076 39.503 13.897 14.782-8.691 21.801-26.712 15.642-40.165-6.817-14.889-25.737-22.908-39.409-16.701m97.158 1.83c-12.093 7.424-24.408 17.134-33.947 26.765-9.739 9.834-19.118 21.167-18.242 22.043 1.518 1.518 14.125-7.45 22.74-16.177 8.29-8.397 22.24-19.86 30-24.652l6.775-4.182c4.272-2.637 4.274-2.641 2.5-5.079-2.3-3.161-2.665-3.114-9.826 1.282M461 147.605c-6.949 1.863-15.47 8.365-19.483 14.867-6.703 10.864-3.078 26.681 8.85 38.609 7.387 7.387 7.801 7.499 11.661 3.135 1.808-2.044 4.141-4.671 5.185-5.839 1.886-2.111 1.873-2.141-2.238-5.164-11.499-8.456-12.821-17.786-3.563-25.143 6.708-5.331 13.398-5.065 18.873.753 2.383 2.532 5.715 10.527 5.715 13.712 0 1.703.654 1.786 4.601.578a302.713 302.713 0 0 1 7.24-2.068c5.112-1.389 5.101-1.981-.244-13.529-7.677-16.584-21.318-24.005-36.597-19.911m-258 2.562c-9.287 5.66-19.346 12.708-25.451 17.833-6.301 5.29-12.958 12.239-11.049 11.534 13.187-4.874 17.639-5.458 26.5-3.481 6.18 1.38 22.574 7.697 27.795 10.711 2.363 1.363 4.535 2.24 4.827 1.947 1.132-1.132-4.073-16.617-8.305-24.711-9.275-17.737-8.747-17.228-14.317-13.833m-103 6.505c-2.53.741-7 7.471-7 10.539 0 10.098 14.088 18.895 23.438 14.635 3.225-1.469 6.715-8.486 5.895-11.851-2.004-8.221-14.435-15.638-22.333-13.323m213.086.828c-.047.55.604 4.6 1.448 9 .979 5.109 1.528 13.692 1.52 23.75-.013 16.361 1.392 21.524 2.177 8 .593-10.218-.776-25.153-3.149-34.347-1.051-4.071-1.949-6.953-1.996-6.403m-132.522 22.234c-8.783 1.3-59.144 26.31-60.265 29.928-.143.461 4.783 3.313 10.946 6.338 21.85 10.725 34.69 20.965 50.013 39.883 3.393 4.189 6.411 7.842 6.706 8.117.71.662 2.778 3.971 4.163 6.66 1.027 1.996 7.917 5.136 15.097 6.882l2.724.662-1.514-3.352c-9.439-20.896-22.777-36.916-42.934-51.569-9.85-7.16-9.874-7.136 4-3.929 12.232 2.828 12.34 2.834 7.446.406-12.37-6.138-20.314-8.843-32.689-11.132-7.512-1.39-8.386-.644 13.743-11.719 19.02-9.52 25.182-11.476 31.114-9.878 5.571 1.5 23.851 10.511 52.767 26.012 4.06 2.176 7.772 3.957 8.25 3.957 1.053 0 1.129-4.072.104-5.582-2.487-3.662-27.201-18.946-39.973-24.719-7.318-3.308-23.087-7.924-25.762-7.542-.55.078-2.321.338-3.936.577m327.936 22.72c-2.2.745-14.012 4.16-26.25 7.591-12.238 3.43-22.25 6.707-22.25 7.282 0 1.076 4.034 15.969 4.45 16.431.129.143 4.893-1.082 10.587-2.721 5.695-1.639 10.468-2.866 10.607-2.726.14.14-3.548 4.712-8.195 10.161-4.647 5.448-8.449 10.366-8.449 10.927 0 .561 1.199 5.246 2.665 10.412l2.666 9.392 3.084-3.36c1.697-1.848 5.324-6.281 8.06-9.851 2.736-3.571 5.58-7.118 6.319-7.882.739-.765 2.04-2.452 2.89-3.75 2.074-3.165 2.073-3.165 18.799 3.252 8.045 3.086 14.855 5.383 15.134 5.104.279-.279-.794-4.696-2.385-9.815l-2.894-9.307-12.669-4.044c-6.968-2.225-12.667-4.271-12.665-4.548.002-.276 4.747-1.812 10.544-3.413l10.54-2.911-.67-3.089c-1.41-6.507-3.994-13.946-4.935-14.211-.541-.153-2.783.332-4.983 1.076m-452.478 7.172c-13.356 21.06-9.818 44.267 7.946 52.124 24.053 10.637 44.006-4.86 44.379-34.469.063-5.07-.326-9.651-.866-10.181-1.028-1.009-23.535-7.243-26.964-7.469-1.729-.114-2.443 1.631-5.579 13.641l-3.597 13.771 5.334 1.551c7.476 2.173 8.421 1.767 10.121-4.344 1.237-4.447 1.823-5.25 3.832-5.25 4.223 0 2.474 10.883-2.468 15.355-5.66 5.123-19.19 2.159-23.003-5.039-2.849-5.379.809-19.705 5.822-22.803 2.079-1.285.854-3.114-4.699-7.013-3.133-2.2-6.042-4.146-6.463-4.325-.421-.179-2.129 1.825-3.795 4.451m265.978.166c0 .435 2.693 2.028 5.985 3.539 10.05 4.613 18.642 13.529 26.158 27.144 2.195 3.975 2.884 4.619 3.428 3.2 1.585-4.131-9.433-20.673-18.075-27.135-6.671-4.989-17.496-9.164-17.496-6.748m-104.408 9.265c-4.9.509-9.053 1.071-9.23 1.247-.176.177 2.932 2.176 6.909 4.442 11.863 6.761 23.497 22.34 30.226 40.473 1.886 5.081 2.297 5.128 7.318.835l2.316-1.98-4.107-8.765c-6.919-14.763-12.94-22.806-22.274-29.755-5.402-4.021-5.024-4.168 8.49-3.302 13.465.862 19.972 2.734 27.493 7.908 6.063 4.171 4.202 1.031-2.8-4.725-2.988-2.457-7.008-4.912-8.933-5.456-5.17-1.463-25.198-1.984-35.408-.922m-83.496 5.763c-1.482 2.769-7.096 17.11-7.096 18.127 0 .492 1.463 1.188 3.25 1.548 13.524 2.721 39.577 13.558 50.6 21.049 3.448 2.343 6.13 2.449 3.148.124-.824-.642-2.842-2.968-4.484-5.168-8.66-11.603-24.994-26.241-38.279-34.304-6.183-3.753-5.896-3.698-7.139-1.376m277.534 1.302c-16.864 1.807-34.283 8.071-47.325 17.02-3.969 2.724-4.138 3.038-3.152 5.868 1.235 3.543 1.461 3.582 5.347.929 4.547-3.103 19.836-10.723 26.281-13.098 3.146-1.159 6.169-2.435 6.719-2.836.55-.401 2.322-1.046 3.939-1.433l2.938-.705-3.938 4.398C395.883 243.586 389 253.711 389 256.034c0 1.486 5.324.01 6.5-1.802 4.557-7.025 13.51-17.952 18.474-22.548 6.923-6.409 6.864-6.549-2.344-5.562M440 244.615c-19.26 8.752-45.235 14.927-61.2 14.55-6.67-.158-7.566.71-5.108 4.947l1.808 3.116 8.191-.615c12.358-.929 35.452-6.492 39.809-9.591 3.261-2.32 4.726-2.06 4.036.717-2.162 8.695-11.328 28.115-17.323 36.704-6.845 9.806-19.784 25.81-21.338 26.394-.494.186-1.395 1.266-2.002 2.401-1.041 1.944-.91 1.927 2.261-.289 1.851-1.294 3.591-2.615 3.866-2.935.275-.321 1.85-1.599 3.5-2.84 19.074-14.35 30.766-28.034 39.25-45.937C439.301 263.743 447 244 447 242.388c0-.745-1.539-.255-7 2.227m-315.958 7.963c-11.173 37.634-6.37 83.497 12.567 120.008 10.338 19.931 30.189 45.473 34.158 43.95.768-.295 2.029-.536 2.802-.536.773 0 2.553-1.817 3.955-4.038 3.673-5.819 6.078-6.629 11.755-3.961l4.614 2.169 6.804-5.385c12.796-10.13 16.024-11.309 22.519-8.227 4.998 2.372 17.373-3.171 15.629-6.999-.914-2.007-.732-3.085 1.021-6.057 2.236-3.79 2.829-8.954 1.147-9.994-.543-.335-1.674-2.949-2.515-5.809-2.43-8.267-3.281-8.895-16.717-12.332-4.796-1.227-13.022-4.069-18.28-6.316-15.422-6.589-32.443-10.911-44.001-11.174-12.035-.274-12.057-.983-.208-6.719 5.935-2.874 12.123-5.491 13.75-5.816 4.302-.861 3.753-1.54-4.131-5.106-8.308-3.757-21.486-11.455-25.557-14.929-5.539-4.726-12.335-11.493-16.57-16.502-2.356-2.786-4.846-5.65-5.534-6.364-2.145-2.228-1.49-2.441 7.5-2.443 22.202-.007 49.778-3.738 54.809-7.418 4.876-3.565-34.262-23.171-54.221-27.162-2.98-.596-3.003-.566-5.296 7.16m322.038 6.384c-9.238 23.921-21.211 41.121-38.08 54.707-6.437 5.183-6.545 4.993 3.227 5.686 4.994.355 11.01.645 13.368.645 6.424 0 6.089 1.275-1.714 6.51-16.969 11.385-43.396 22.348-68.631 28.47-9.822 2.383-10.067 2.558-7.782 5.579 5.007 6.619-.952 16.136-9.472 15.127-4.029-.477-4.794-.322-4.332.88.308.803.004 2.129-.675 2.947-1.001 1.207-.943 1.487.311 1.487 1.853 0 4.101 6.16 3.24 8.875-.5 1.574.534 2.439 5.931 4.965l6.537 3.059 4.119-1.845c6.11-2.735 10.293-.979 23.313 9.791 2.983 2.468 5.359 3.755 6 3.25 2.043-1.608 8.547-3.234 10.483-2.62 1.075.342 3.199 2.589 4.722 4.996 4.487 7.093 6.54 6.837 14.913-1.86 26.762-27.799 44.396-72.901 44.434-113.653.008-8.212-2.543-31.422-3.65-33.213-.295-.477-.727-2.082-.961-3.566-1.458-9.248-1.808-9.262-5.301-.217m-172.58-3.32c-5.584 2.907-16.992 9.811-18.321 11.088-.727.699-1.648 1.27-2.047 1.27-.399 0-3.926 3.114-7.839 6.919-13.19 12.829-15.739 19.883-15.565 43.081.165 22.085.566 22.968 6.513 14.322 2.581-3.752 5.802-8.095 7.159-9.65 1.357-1.556 3.96-4.694 5.784-6.973 11.724-14.652 27.887-25.478 44.117-29.549 5.827-1.462 6.336-1.192 7.798 4.142 2.497 9.104.314 24.097-5.034 34.581-1.213 2.376-1.983 4.543-1.712 4.814.939.938 31.164-14.468 34.961-17.82 3.078-2.718 8.648-11.867 7.224-11.867-.2 0-4.042 3.6-8.538 8s-8.81 8-9.587 8c-.777 0-1.413.398-1.413.883 0 .486-.788 1.141-1.75 1.456-.962.315-3.715 1.741-6.116 3.167-5.365 3.188-5.214 3.379-3.549-4.506 3.683-17.434-.249-36.95-7.452-36.988-2.436-.012-23.767 8.587-24.322 9.806-.171.375-3.011 2.439-6.311 4.586-5.829 3.793-18.703 16.033-23.244 22.099a2171.786 2171.786 0 0 1-5 6.642c-1.516 2.004-3.331 4.479-4.034 5.5-2.907 4.221.913-14.902 5.322-26.645 5.935-15.808 15.636-24.893 40.206-37.657 5.087-2.643 9.25-5.089 9.25-5.435 0-.735-10.626-4.927-12.339-4.868-.639.022-2.511.743-4.161 1.602m-47.252 9.085c-3.933.72-11.321 12.974-15.841 26.273-2.168 6.378-2.478 21.842-.577 28.75a712.58 712.58 0 0 1 2.209 8.25c1.381 5.322 1.886 5.105 5.82-2.503 1.847-3.573 4.66-8.133 6.25-10.134 1.59-2.001 2.873-4.139 2.85-4.751-.06-1.645-5.69 5.141-9.032 10.888l-2.908 5-.01-8.292c-.021-19.287 3.957-28.49 18.248-42.217l8.057-7.739-2.418-1.584c-2.546-1.669-8.85-2.636-12.648-1.941M189 275.417c-7.974 4.264-27.885 7.847-49.819 8.964-4.576.233-8.577.682-8.893.998-.778.778 11.96 13.239 18.734 18.326 9.154 6.873 25.249 14.427 48.978 22.987 3.36 1.212-1.282 1.489-5.441.324-3.506-.981-5.365-.925-10.174.31-7.512 1.927-18.192 5.915-16.885 6.304.55.164 5.636 1.227 11.302 2.363 11.885 2.383 16.239 3.761 28.819 9.121 5.017 2.137 10.08 3.886 11.25 3.886 1.171 0 2.129.398 2.129.883 0 .486 1.125 1.099 2.5 1.362 2.912.556 3.076.023.933-3.037-2.164-3.09-6.331-4.69-39.433-15.139-1.662-.525 2.078-1.042 11.158-1.545 7.512-.415 14.119-.471 14.681-.123.563.347 1.28.215 1.595-.294 1.24-2.007-.79-3.991-4.762-4.653-19.784-3.3-45.654-16.981-62.267-32.929-4.741-4.55-4.804-4.685-1.905-4.025 1.65.375 5.25 1.074 8 1.553 6.259 1.09 53.354 3.426 54.097 2.683.301-.301-.61-2.381-2.025-4.622S199 284.813 199 284.535c0-1.024-6.194-10.534-6.836-10.495-.365.022-1.789.642-3.164 1.377M17.158 278c0 1.375.227 1.938.504 1.25.278-.687.278-1.812 0-2.5-.277-.687-.504-.125-.504 1.25m538.921 4.583c.048 1.165.285 1.402.604.605.289-.722.253-1.585-.079-1.917-.332-.332-.568.258-.525 1.312m-267.741 6.826c-12.198 3.952-19.855 8.959-31.088 20.332-5.637 5.707-10.246 10.688-10.241 11.068.004.38 7.287 5.416 16.183 11.191 8.897 5.775 16.868 11.288 17.714 12.25 2.808 3.194 4.938 2.201 5.362-2.5l.383-4.25.174 4.25c.152 3.684.475 4.252 2.425 4.265 1.597.011 1.866.259.929.853-2.48 1.573-10.294-.654-16.092-4.585-2.005-1.36-4.17-2.074-5.25-1.731-2.142.68-5.837-.299-5.837-1.546 0-.473.788-1.065 1.75-1.317 1.366-.357 1.274-.482-.417-.573-1.191-.064-2.318-.571-2.504-1.128-.492-1.477-11.846-5.937-15.186-5.964-2.291-.019-2.736.323-2.248 1.726.551 1.581.488 1.594-.651.139-1.696-2.167-4.608-.983-7.589 3.086-2.896 3.953-2.657 5.554 3.535 23.71 4.248 12.455 4.793 13.468 9.163 17.027 2.556 2.082 5.322 4.345 6.147 5.029 5.919 4.911 21.369 15.625 25.672 17.802 6.641 3.36 8.978 2.882 18.514-3.791 17.612-12.322 29.846-23.834 32.15-30.252 1.524-4.245 8.415-28.608 9.758-34.5l.798-3.5-5.594 6c-4.903 5.258-5.68 5.758-6.282 4.044-.681-1.941-.695-1.941-1.821 0-1.662 2.866-1.444.839.265-2.467.803-1.553 1.186-3.097.852-3.432-1.469-1.468-17.312 4.103-17.312 6.088 0 2.545-3.903 5.329-6.542 4.667-1.787-.449-3.651.124-6.463 1.985-4.235 2.803-5.548 3.148-6.445 1.695-.313-.505 3.598-3.296 8.691-6.201 9.47-5.402 20.409-12.129 22.336-13.736.592-.494 2.055-1.209 3.25-1.588 1.195-.379 2.21-1.447 2.255-2.372.045-.926.295-2.988.555-4.584.458-2.817.406-2.858-1.833-1.415-7.483 4.823-34.152 17.816-36.568 17.816-.458 0 .793-3.331 2.779-7.403 7.338-15.045 9.25-34.273 3.753-37.761-1.63-1.035-1.107-1.122-9.43 1.573m4.086 2.841c-2.196 2.337-4.849 5.375-5.895 6.75-1.79 2.352.897-.306 7.834-7.75 1.666-1.788 2.81-3.25 2.541-3.25-.268 0-2.284 1.913-4.48 4.25m49.195 4.696c-2.541 3.451-4.619 6.865-4.619 7.587 0 .723-1.237 2.784-2.749 4.58-2.6 3.09-2.766 3.894-3.058 14.827l-.309 11.56 8.572-8.75c4.714-4.812 8.812-8.75 9.106-8.75.293 0 1.599-1.238 2.901-2.75 1.302-1.512 2.742-2.376 3.2-1.918.459.457-.033 1.465-1.092 2.239-2.533 1.853-1.374 2.947 1.332 1.258 2.347-1.466 2.74-3.401.847-4.17-.857-.347-.917-.767-.192-1.333 1.46-1.14 4.442-5.585 4.442-6.621 0-.468-2.812 1.941-6.25 5.354-5.676 5.634-11.243 9.928-12.885 9.937-.349.002.945-2.969 2.874-6.603 3.748-7.058 5.48-17.393 3.506-20.921-.88-1.572-1.593-1.004-5.626 4.474m-273.323.272c-.552.705-3.206 5.456-5.899 10.557-3.25 6.154-5.57 9.415-6.897 9.691-1.1.229-6.388 1.227-11.75 2.217s-9.745 2.029-9.739 2.309c.006.279 1.712 2.308 3.792 4.508s5.706 6.108 8.057 8.685l4.275 4.685-1.562 11.237c-.859 6.18-1.322 11.477-1.028 11.771.293.294 4.797-1.584 10.008-4.172 11.574-5.75 10.982-5.747 22.883-.109 5.337 2.528 9.896 4.404 10.132 4.169.235-.236-.248-5.546-1.073-11.802l-1.5-11.375 3.335-3.544c8.21-8.727 11.841-12.943 11.807-13.71-.02-.454-4.897-1.817-10.837-3.028-12.156-2.477-11.183-1.688-18.401-14.93-3.409-6.254-4.861-8.109-5.603-7.159m429.809 9.533c-2.967 5.362-5.492 9.874-5.611 10.027-.119.152-4.891 1.172-10.605 2.266s-10.997 2.21-11.741 2.48c-.886.322 1.437 3.437 6.75 9.05 4.456 4.707 8.102 9.171 8.102 9.92 0 1.515-1.753 15.47-2.482 19.756-.615 3.616-.083 3.529 10.699-1.75 11.264-5.514 10.659-5.516 22.381.072 5.275 2.515 9.831 4.332 10.125 4.039.501-.502-1.36-18.353-2.254-21.611-.239-.87 2.935-4.99 7.56-9.813 4.384-4.572 7.971-8.668 7.971-9.102 0-.435-4.789-1.641-10.641-2.681-12.823-2.278-12.1-1.767-18.198-12.865-2.708-4.928-5.315-9.09-5.793-9.248-.477-.159-3.296 4.098-6.263 9.46M360.02 307.96c-1.111 2.178-2.02 4.997-2.02 6.263 0 1.415-.855 2.684-2.217 3.29-1.22.543-2.525 2.112-2.901 3.487l-.683 2.5-.099-2.75c-.111-3.062-1.223-3.511-3.099-1.251-.993 1.196-.99 2.113.012 4.532.691 1.668 1.025 3.265.742 3.548-.283.283-.825-.721-1.204-2.23-.537-2.143-.888-2.427-1.597-1.297-.5.796-.704 2.123-.454 2.948.25.825.035 2.169-.477 2.986-.632 1.007-.803.075-.531-2.897.262-2.859.061-4.042-.578-3.403-.539.539-1.129 2.644-1.311 4.678-.183 2.034-.618 3.985-.968 4.334-1.209 1.21-.629 2.513.865 1.94 2.41-.924 1.724.789-.75 1.875-1.567.687-2.238 1.822-2.211 3.737.022 1.512-.294 2.75-.703 2.75-.657 0-2.816 6.293-2.83 8.25-.014 1.808 2.132.517 3.02-1.817.729-1.918 1.461-2.413 2.893-1.959 1.794.57 6.973-2.985 10.89-7.474 2.813-3.225 7.146-13.869 8.631-21.208 2.782-13.747 1.651-18.811-2.42-10.832m196.175 4.54c.02 1.65.244 2.204.498 1.231.254-.973.237-2.323-.037-3-.274-.677-.481.119-.461 1.769m-269.909 3c.008 2.75.202 3.756.432 2.236.229-1.52.223-3.77-.014-5-.237-1.23-.425.014-.418 2.764m-269.207-.917c.048 1.165.285 1.402.604.605.289-.722.253-1.585-.079-1.917-.332-.332-.568.258-.525 1.312m206.408 4.255c-.543 1.011-2.524 4.791-4.403 8.401l-3.416 6.563 2.671 5.349c3.982 7.976 9.421 13.286 16.28 15.894 2.865 1.09 2.906-.24.207-6.751-1.282-3.091-1.517-3.825-1.701-5.294-.069-.55-.988-1-2.042-1-1.054 0-2.145-.562-2.424-1.25-.381-.941-.769-.879-1.568.25-.752 1.063-1.065 1.127-1.076.219-.008-.705.66-1.541 1.485-1.857 1.781-.684 1.998-5.464.324-7.138-1.587-1.587-3.907.346-3.118 2.599.323.922-.604-.03-2.059-2.117-3.03-4.345-3.546-6.037-.809-2.658 2.302 2.844 4.125 1.84 4.28-2.357l.119-3.191.763 3c.637 2.505.783 2.085.882-2.55.147-6.892-2.213-10.174-4.395-6.112m132.629-.17c-.064.643-.407 1.993-.763 3-.502 1.421-.369 1.576.594.688.682-.629 1.026-1.979.763-3s-.53-1.33-.594-.688m-131.037 3.915c.048 1.165.285 1.402.604.605.289-.722.253-1.585-.079-1.917-.332-.332-.568.258-.525 1.312m162.823 3.427-3.402 2.909 5.25.04c2.887.023 5.25.404 5.25.848 0 .822-6.077 5.415-13.75 10.392-2.337 1.516-4.25 2.936-4.25 3.155 0 1.787 32.668-13.113 38-17.331l2.5-1.979-8.5-.134c-4.675-.074-10.569-.287-13.098-.472-3.899-.286-5.115.104-8 2.572M349.158 332c0 1.375.227 1.938.504 1.25.278-.687.278-1.812 0-2.5-.277-.687-.504-.125-.504 1.25m-2.491 5.667c-.367.366-.667 1.131-.667 1.7 0 .626.466.567 1.183-.15.651-.651.951-1.416.667-1.7-.284-.284-.817-.217-1.183.15m-4.16 2.322c-.35.566.051.734.941.393 1.732-.665 2.049-1.382.611-1.382-.518 0-1.216.445-1.552.989m-92.943 3.304c.376.986.935 1.541 1.243 1.233.308-.307.001-1.114-.683-1.793-.988-.98-1.102-.865-.56.56M322 345c-.901.582-1.025.975-.309.985.655.008 1.469-.435 1.809-.985.767-1.242.421-1.242-1.5 0m-61.731.693c.973.254 2.323.237 3-.037.677-.274-.119-.481-1.769-.461-1.65.02-2.204.244-1.231.498m7.544.99c.721.289 1.584.253 1.916-.079.332-.332-.258-.568-1.312-.525-1.165.048-1.402.285-.604.604m39.456.01c.973.254 2.323.237 3-.037.677-.274-.119-.481-1.769-.461-1.65.02-2.204.244-1.231.498m6.544-.01c.721.289 1.584.253 1.916-.079.332-.332-.258-.568-1.312-.525-1.165.048-1.402.285-.604.604m-40.063.979c.688.278 1.813.278 2.5 0 .688-.277.125-.504-1.25-.504s-1.937.227-1.25.504m25.519.031c.973.254 2.323.237 3-.037.677-.274-.119-.481-1.769-.461-1.65.02-2.204.244-1.231.498m41.288 3.857c-.567 3.018-.975 3.452-2.73 2.895-1.479-.469-1.936-.271-1.612.7 1.394 4.189 6.785 1.196 6.785-3.767 0-4.447-1.598-4.334-2.443.172m-85.913.404c1.729.413 6.229.766 10 .785l6.856.035-5-.8c-6.777-1.083-16.383-1.099-11.856-.02m56.437-.025c-1.68 1.063 6.146 2.501 10.012 1.84 2.406-.412 2.406-.412-.408-1.59-3.33-1.395-7.62-1.506-9.604-.25M288 359.808c0 4.445-.271 5.105-2.25 5.486-1.929.372-1.858.453.5.57 2.631.13 2.751-.069 2.765-4.614.011-3.435.284-4.335.985-3.25.533.825.976.993.985.372.008-.62-.66-1.687-1.485-2.372-1.3-1.079-1.5-.57-1.5 3.808m50-.808c0 .55.477 1 1.059 1s.781-.45.441-1-.816-1-1.059-1-.441.45-.441 1m-46.422 2.5c.357 1.1.844 2.675 1.082 3.5.251.869-.743 2.225-2.363 3.223-1.539.948-2.347 1.726-1.797 1.728.55.003 2.111-.849 3.469-1.893 2.446-1.88 2.453-1.929.714-5.228-.965-1.831-1.463-2.43-1.105-1.33m42.714.75c-1.352 1.773-.774 7.825.847 8.883 2.576 1.681 7.239.519 8.563-2.133 1.159-2.323 1.054-2.545-1.477-3.132-2.357-.546-2.421-.647-.475-.75 4.606-.242 1.474-4.118-3.328-4.118-1.747 0-3.606.563-4.13 1.25m1.521 3.433c.721.289 1.584.253 1.916-.079.332-.332-.258-.568-1.312-.525-1.165.048-1.402.285-.604.604m-53.813.695c0 .207.788.995 1.75 1.75 1.586 1.243 1.621 1.208.378-.378-1.307-1.666-2.128-2.195-2.128-1.372m20 2.015c0 .216.698.661 1.552.989.89.341 1.291.173.941-.393-.587-.951-2.493-1.406-2.493-.596M294 374c-2.06.66-2.148.816-.5.885 1.1.046 2.675-.352 3.5-.885 1.752-1.132.536-1.132-3 0m27.813 4.296c-3.128 2.862-5.99 6.446-6.361 7.963-.37 1.518-1.122 3.037-1.67 3.376-.614.379-.737-.2-.322-1.51.96-3.023.418-2.778-7.695 3.473-10.298 7.934-10.162 8.365 1.551 4.922 3.018-.887 4.273-1.828 4.504-3.375.175-1.18.724-2.145 1.218-2.145.495 0 .64.675.324 1.5-.887 2.311 1.506 1.825 8.388-1.704l6.25-3.205v-7.296c0-4.012-.113-7.274-.25-7.249-.137.025-2.809 2.388-5.937 5.25M246 381.812v5.813l7.25 3.596c3.988 1.978 7.425 3.425 7.638 3.216 1.004-.983-2.371-9.526-4.258-10.778-1.171-.778-3.705-2.812-5.63-4.521-4.715-4.185-5-4.032-5 2.674m84.136 4.418c-.151 1.923-8.573 7.156-14.382 8.936-2.899.889-3.947 1.848-4.632 4.241-1.346 4.7-4.42 12.072-9.513 22.817-5.794 12.225-5.863 11.895 1.971 9.355 7.019-2.276 7.399-2.68 11.601-12.299 2.18-4.991 2.335-5.123 3.514-3 .679 1.221 1.25 3.818 1.27 5.77.053 5.368 1.246 5.95 12.19 5.95h9.754l.625-3.75c.344-2.062 1.261-5.437 2.037-7.5 1.239-3.289 1.229-3.75-.079-3.75-.821 0-1.492-.441-1.492-.981 0-.539-1.131-1.265-2.513-1.612-1.382-.346-2.897-1.317-3.366-2.155-.469-.839-2.263-1.576-3.985-1.639l-3.131-.113-.003-6.167c-.001-4.031-.435-6.318-1.252-6.604-.907-.317-.748-1.003.58-2.5 1.08-1.218 1.649-3.02 1.387-4.397-.27-1.415-.498-1.652-.581-.602M243 387.878c0 1.033 1.012 2.588 2.25 3.456 1.652 1.158 1.923 1.801 1.022 2.417-.994.68-1.736 4.848-2.224 12.499-.026.413-.546.75-1.155.75s-.865-.631-.569-1.401c.331-.865-.299-1.622-1.643-1.975-1.2-.315-2.331-.134-2.514.402-.184.535-.971.974-1.75.974-.78 0-1.417.45-1.417 1s-.675 1-1.5 1c-3.104 0-1.322-2.205 3.485-4.314 4.389-1.925 7.111-4.923 5.726-6.308-.748-.749-17.711 7.383-17.711 8.49 0 .548-.9 1.283-2 1.632s-2 1.081-2 1.626c0 .546.45.714 1 .374.581-.359.971.559.93 2.191-.063 2.526-.166 2.607-1.021.809-.828-1.743-.885-1.679-.443.5.279 1.375.544 3.175.591 4 .056 1.009.365.846.943-.5.843-1.963.861-1.961.93.095.074 2.221 3.319 5.823 4.332 4.809.664-.663-.218-3.619-1.313-4.404-1.212-.869-2.184-7-1.11-7 .548 0 1.629-.242 2.401-.539 2.253-.864 3.982 3.9 1.907 5.254-1.355.884-1.434 1.431-.443 3.092.662 1.11 1.508 4.309 1.879 7.109l.676 5.091 6.12-.457c3.367-.251 9.383-.546 13.371-.655 3.988-.109 7.243-.467 7.235-.797-.045-1.749-1.845-3.089-3.366-2.505-1.795.688-1.644-1.515.503-7.343 1.046-2.84 2.298-2.963 1.563-.154-.759 2.904.275 5.565 1.453 3.738.526-.817.633-.149.274 1.722-.39 2.041-.103 3.456.865 4.259 1.216 1.009 1.385.76 1.051-1.556-.356-2.461-.213-2.368 1.315.861 1.427 3.012 2.482 3.805 6.286 4.726 2.514.608 5.561 1.388 6.77 1.733 2.085.595 2.022.281-1.2-6.011-1.87-3.652-5.42-11.686-7.89-17.854L262.12 397.5l-8.56-4.321c-4.739-2.392-8.56-4.958-8.56-5.75 0-.786-.45-1.429-1-1.429s-1 .845-1 1.878m18.217 1.217c1.456 6.873 1.191 6.686 13.283 9.371 3.799.843 2.769-.196-6.896-6.954-6.33-4.426-6.855-4.624-6.387-2.417M542.5 388c-.34.55-.141 1 .441 1s1.059-.45 1.059-1-.198-1-.441-1-.719.45-1.059 1M332 397.992c0 1.169.45 1.848 1 1.508.568-.351 1.05.595 1.116 2.191.064 1.545.315 2.057.558 1.139.388-1.467 1.171-1.309 6.416 1.293 3.954 1.962 5.729 3.372 5.25 4.171-.469.782-.146.737.92-.127.981-.795 2.571-1.062 3.942-.661 3.838 1.121-2.731-4.215-9.202-7.475-8.455-4.259-10-4.574-10-2.039m-123.292 5.758c-3.629 2.613-9.324 7.157-12.654 10.099-5.13 4.532-8.692 6.225-4.804 2.284 1.002-1.016.853-1.561-.75-2.744-5.662-4.179-8.728-2.595-12.107 6.253l-1.761 4.609 3.434 2.848c3.28 2.72 6.068 3.751 5.816 2.151-.496-3.14.305-13.25 1.05-13.25.512 0 .907 3.688.877 8.196-.05 7.693.112 8.339 2.641 10.515 1.482 1.275 3.112 2.06 3.622 1.744.511-.315.928-.102.928.473 0 2.492 25.353 15.718 32.149 16.773 1.501.233 1.527-.217.287-4.973C225.623 441.773 217 403.1 217 401.924c0-1.836 1.783-.872 2.451 1.326.414 1.363.887 1.757 1.2 1 .283-.687 1.153-1.25 1.932-1.25 2.277 0 1.621-1.398-1.29-2.75-4.197-1.949-5.529-1.579-12.585 3.5M303 400c-1.282.828-1.246.972.25.985.962.008 1.75-.435 1.75-.985 0-1.22-.113-1.22-2 0m49.25.22c-2.893 1.396-2.838 2.191.25 3.598 2.208 1.006 2.5.908 2.5-.839 0-1.089.5-1.979 1.111-1.979 1.544 0 .469 5.409-8.143 41-1.531 6.325-2.652 11.635-2.492 11.8 1.675 1.728 25.955-10.479 36.398-18.3l5.342-4-.577-7.75c-.352-4.73-.199-7.75.392-7.75.533 0 .99.113 1.016.25.025.137.305 3.175.622 6.75.708 8.009.459 7.781 4.762 4.348 4.307-3.437 4.3-3.3.611-11.098-3.381-7.146-2.942-6.94-8.679-4.075-4.126 2.061-4.268 2.272-2.699 4.007 3.885 4.292.296 2.206-5.678-3.3-13.136-12.108-19.32-15.273-24.736-12.662m-80.75.78c-.34.55-1.829 1.053-3.309 1.118l-2.691.119 2.5.631c2.003.507 2.546 1.327 2.733 4.132.186 2.802.051 3.101-.68 1.5-1.188-2.605-1.239.241-.053 3 .701 1.63.872 1.688.93.309.113-2.736 1.82-3.009 1.82-.291 0 1.365-.394 2.482-.875 2.482-1.779 0-.797 2.778 1.625 4.597 2.307 1.733 3.653 4.234 1.593 2.961-.498-.309-.669.347-.379 1.456.859 3.284 2.075 3.224 2.813-.138.506-2.303.922-2.773 1.559-1.759.478.761.624 2.283.326 3.383-.385 1.418-.275 1.614.379.674.895-1.289 5.209 4.412 5.209 6.883 0 1.741-1.999.964-2.079-.807-.045-.995-.292-1.224-.573-.53-.323.795-1.363.272-2.985-1.5l-2.49-2.72 1.705 2.791c4.472 7.319 7.447 6.046 14.041-6.008 3.702-6.767 5.179-8.217 6.402-6.283.687 1.087.953 1.139.964.191.008-.72.46-1.034 1.004-.698.577.357.727-.069.36-1.025-.508-1.323-.808-1.381-1.575-.302-.686.967-.821.749-.488-.789.469-2.161-2.559-2.362-3.861-.256-1.542 2.496-11.481-.638-18.147-5.722-3.471-2.648-4.558-5.827-1.604-4.694 1.22.468 1.085.054-.5-1.531-2.462-2.462-2.809-2.573-3.674-1.174m8.795 1.448c-.943 1.073-.933 1.477.045 1.852.707.271 1.313-.342 1.393-1.41.168-2.219.133-2.23-1.438-.442m13.539-.572c1.064.675.997.975-.332 1.485-2.291.879-2.722.804-2.009-.35.357-.577-.069-.727-1.025-.36-1.11.426-1.27.853-.499 1.33.625.386 1 1.28.834 1.986-.167.705.26 1.489.947 1.741.688.252 1.25-.254 1.25-1.125 0-1.443 1.37-1.977 4.75-1.852.688.026 1.25-.541 1.25-1.259 0-.718.563-1.532 1.25-1.81.688-.277.211-.54-1.059-.583-1.438-.049-2.052.336-1.629 1.021.494.799.119.799-1.376 0-2.399-1.284-4.312-1.466-2.352-.224m38.245.707c.048 1.165.285 1.402.604.605.289-.722.253-1.585-.079-1.917-.332-.332-.568.258-.525 1.312m-28.079-.2c0 .211.9.619 2 .907 1.1.287 2 .115 2-.384 0-.498-.9-.906-2-.906s-2 .173-2 .383M336.5 404c-.34.55-.141 1 .441 1s1.059-.45 1.059-1-.198-1-.441-1-.719.45-1.059 1m-58.5 2c0 .55.477 1 1.059 1s.781-.45.441-1-.816-1-1.059-1-.441.45-.441 1m26.429.429c-1.059.774-1.578 1.755-1.154 2.18.425.424 1.523.022 2.439-.895 2.162-2.161 1.212-3.111-1.285-1.285m-68.276 1.438c-3.254 2.822-2.584 3.32 1.347 1 1.925-1.135 3.5-2.245 3.5-2.466 0-1.079-2.936-.191-4.847 1.466m62.847.716c0 .871.534 1.406 1.188 1.188 1.854-.618 2.161-2.771.395-2.771-.871 0-1.583.712-1.583 1.583m-7.808 1.492c.197.591.684 1.041 1.083 1 .399-.041 1.652-.075 2.784-.075s1.781-.45 1.441-1c-.835-1.351-5.761-1.282-5.308.075m58.45.012c.629.777 1.384 2.313 1.68 3.413.337 1.257.47.913.357-.923-.098-1.607-.854-3.143-1.679-3.413-1.179-.384-1.255-.187-.358.923m-46.975.58c-.367.366-.653 1.379-.637 2.25.025 1.3.221 1.257 1.092-.242 1.077-1.852.765-3.228-.455-2.008m45.064 2.413c.354 1.352.807 1.806 1.057 1.057.24-.722-.038-1.787-.62-2.369-.742-.742-.872-.351-.437 1.312M274 415.227c0 1.823 1.773 3.334 2.757 2.349.343-.343-.137-1.384-1.067-2.314-1.558-1.559-1.69-1.562-1.69-.035m43.079 4.356c.048 1.165.285 1.402.604.605.289-.722.253-1.585-.079-1.917-.332-.332-.568.258-.525 1.312m30.588-.916c-.367.366-.628 1.829-.581 3.25.084 2.536.102 2.53.967-.367.909-3.043.775-4.044-.386-2.883m-51.302 1.551c-.425.688-.206.802.592.308.716-.442 1.593-.255 2.016.43.567.918.877.878 1.278-.168.639-1.665-2.889-2.183-3.886-.57M174 421c0 .55.45 1 1 1s1-.45 1-1-.45-1-1-1-1 .45-1 1m224 0c0 .55.423 1 .941 1s1.219-.45 1.559-1c.34-.55-.084-1-.941-1s-1.559.45-1.559 1m-273.208 1.402c-8.97 2.415-18.091 10.641-22.518 20.311-6.399 13.978 2.185 32.43 20.726 44.553 7.972 5.213 8.605 5.147 12.141-1.266 1.668-3.025 3.443-5.927 3.946-6.45 1.813-1.886.784-3.091-4.643-5.441-13.475-5.834-18.062-17.78-10.246-26.681 9.5-10.821 21.749-7.556 29.092 7.755l2.246 4.684 6.917-2.918c9.328-3.935 9.267-3.818 5.554-10.784-9.282-17.415-28.184-27.809-43.215-23.763M421 428.646a3060.304 3060.304 0 0 1-18.196 15.949c-11.874 10.314-11.478 9.649-8.092 13.545 1.533 1.765 6.613 7.545 11.288 12.845 11.342 12.858 19.146 21.812 22.456 25.765 3.457 4.128 3.157 4.184 10.138-1.875 24.858-21.57 30.863-26.946 31.237-27.962.182-.495-1.5-2.816-3.739-5.157s-4.075-4.593-4.081-5.006c-.034-2.382-2.29-.799-16.994 11.929-8.735 7.562-7.803 7.237-10.431 3.634l-1.914-2.624 3.437-3.095c1.891-1.702 5.843-5.199 8.784-7.772l5.346-4.678-2.028-2.822c-1.116-1.552-3.39-4.115-5.054-5.696l-3.025-2.874-2.958 2.374c-1.627 1.306-5.638 4.721-8.912 7.589l-5.954 5.216-2.607-2.721-2.607-2.721 6.203-5.248a711.257 711.257 0 0 0 11.641-10.102l5.438-4.854-4.938-5.63c-2.716-3.096-5.163-5.609-5.438-5.583-.275.025-4.325 3.433-9 7.574m-71.921-5.063c.048 1.165.285 1.402.604.605.289-.722.253-1.585-.079-1.917-.332-.332-.568.258-.525 1.312M225 427.5c0 .825.73 1.5 1.622 1.5 1.329 0 1.398-.271.378-1.5-.685-.825-1.415-1.5-1.622-1.5-.208 0-.378.675-.378 1.5m9.271 3.391c-8.48.861-8.451.843-7.368 4.659l.838 2.95.738-2.75c.719-2.681 2.521-3.854 2.521-1.642 0 .681 1.062.889 2.75.54 1.512-.313 2.264-.35 1.671-.082-2.131.961 1.834 21.974 4.401 23.321 5.152 2.706 36.715 7.686 39.051 6.163.464-.303 1.734-2.575 2.822-5.05 1.089-2.475 2.728-5.118 3.642-5.872 2.063-1.703 2.106-.885.151 2.895-1.369 2.648-1.362 2.866.082 2.312 1.309-.503 1.504-.041 1.089 2.588-.327 2.075-.053 3.372.779 3.691 2.171.834 23.585-1.38 34.611-3.577 13.256-2.642 14.949-3.486 14.957-7.456.003-1.695.409-4.656.902-6.581 2.163-8.443 2.129-13.854-.093-14.559-1.669-.53-1.807-.85-.697-1.624 2.739-1.911-24.105-.039-31.618 2.205-8.938 2.67-10.064 2.932-15.5 3.598-4.527.555-5.854.325-20.5-3.551-8.948-2.368-24.121-3.306-35.229-2.178m55.729.168c0 .582.45.781 1 .441s1-.816 1-1.059-.45-.441-1-.441-1 .477-1 1.059m.75 2.603c.688.278 1.813.278 2.5 0 .688-.277.125-.504-1.25-.504s-1.937.227-1.25.504m50.709 2.405c-.363.586-.445 1.281-.183 1.543s.743-.218 1.069-1.067c.676-1.762.1-2.072-.886-.476m-111.01 1.433c.41 1.1.838 2.549.952 3.221.114.672.584 1.572 1.044 2 .46.428.516-.571.125-2.221-.391-1.65-1.196-3.45-1.788-4-.756-.703-.855-.406-.333 1m-1.839 4c.823 3.677 1.395 4.475 1.375 1.917-.009-1.054-.472-2.592-1.031-3.417-.741-1.095-.834-.691-.344 1.5m115.469-.917c.048 1.165.285 1.402.604.605.289-.722.253-1.585-.079-1.917-.332-.332-.568.258-.525 1.312m-3.917 5.96c-1.371 3.01-1.565 9.824-.256 9.015.498-.308.675-1.446.392-2.528-.284-1.083-.014-3.405.598-5.161 1.365-3.915.861-4.825-.734-1.326m-107.083 2.04c.048 1.165.285 1.402.604.605.289-.722.253-1.585-.079-1.917-.332-.332-.568.258-.525 1.312m-2 3c.048 1.165.285 1.402.604.605.289-.722.253-1.585-.079-1.917-.332-.332-.568.258-.525 1.312m111.079.417c0 1.375.227 1.938.504 1.25.278-.687.278-1.812 0-2.5-.277-.687-.504-.125-.504 1.25M233 454.059c0 .582.45.781 1 .441s1-.816 1-1.059-.45-.441-1-.441-1 .477-1 1.059m-59.5 4.914c-12.896 3.304-23.028 17.43-22.97 32.027.108 27.498 39.813 43.763 59.686 24.45 9.262-9.002 12.562-25.042 7.397-35.95-6.996-14.772-28.15-24.616-44.113-20.527m194.5 7.029c-8.525 3.76-18.312 8.079-21.75 9.597-7.376 3.259-7.314 2.91-2.373 13.552 2.132 4.592 7.375 16.449 11.65 26.349 8.572 19.851 8.813 20.274 10.681 18.785.71-.567 6.242-3.169 12.292-5.781 35.865-15.487 32.912-13.254 29.055-21.975-2.865-6.479-2.598-6.425-11.86-2.411-9.864 4.274-19.019 7.919-19.151 7.626-.061-.134-.734-1.481-1.495-2.992-1.694-3.362-2.453-2.703 8.951-7.773 5.225-2.323 9.9-4.591 10.389-5.04.691-.635-3.977-13.939-4.891-13.939-.112 0-5.036 2.025-10.943 4.5-5.908 2.475-10.87 4.5-11.027 4.5-.528 0-2.801-6.06-2.413-6.432.446-.427 18.825-8.606 23.635-10.519 3.923-1.559 3.924-1.574.581-9.067-3.279-7.35-2.236-7.4-21.331 1.02M78 472c0 .55.477 1 1.059 1s.781-.45.441-1-.816-1-1.059-1-.441.45-.441 1m105.329 2.875c-6.041 1.74-12.64 11.602-12.654 18.913-.017 8.557 9.622 15.786 16.958 12.721 10.127-4.231 15.404-17.015 10.407-25.21-2.874-4.715-9.938-7.799-14.711-6.424m45.661 3.875c-.005.413-1.154 6.825-2.553 14.25-3.541 18.794-8.205 44.998-8.01 45.001.04.001 3.898.676 8.573 1.499 12.555 2.212 11.467 2.894 13.549-8.5 2.105-11.519.952-10.862 14.659-8.354 10.239 1.873 10.211 1.887 11.26-5.561.355-2.522.855-5.309 1.111-6.194.479-1.653.348-1.692-16.625-4.9l-5.546-1.048.407-3.481c.558-4.784.293-4.751 15.695-1.906 7.552 1.395 13.888 2.379 14.08 2.187.646-.646 2.811-14.675 2.337-15.149-.258-.258-6.984-1.599-14.948-2.981-7.963-1.381-18.079-3.209-22.479-4.062-8.915-1.728-11.495-1.908-11.51-.801m97.51 2.423c-21.492 2.392-41.079 5.048-41.625 5.644-.783.857 6.049 58.396 7.062 59.473.644.684 19.023-.968 19.88-1.788.174-.166-.163-3.755-.75-7.975-.587-4.219-1.067-8.91-1.067-10.423v-2.751l11.047-1.314 11.047-1.314-.666-7.112c-.843-9.005-.689-8.882-9.513-7.634a1838.08 1838.08 0 0 1-11.224 1.556l-3.808.507.308-4.224.309-4.224 13.879-1.76c7.634-.968 14.054-1.934 14.268-2.148.377-.377-1.467-14.953-1.92-15.179-.125-.062-3.377.238-7.227.666m69.233 62.951c.679.684 1.486.991 1.793.683.308-.308-.247-.867-1.233-1.243-1.425-.542-1.54-.428-.56.56m-125.92 21.559c.721.289 1.584.253 1.916-.079.332-.332-.258-.568-1.312-.525-1.165.048-1.402.285-.604.604m32 0c.721.289 1.584.253 1.916-.079.332-.332-.258-.568-1.312-.525-1.165.048-1.402.285-.604.604" fill-rule="evenodd"/>
</svg>