<!DOCTYPE svg PUBLIC "-//W3C//DTD SVG 1.1//EN" "http://www.w3.org/Graphics/SVG/1.1/DTD/svg11.dtd">
<svg xmlns="http://www.w3.org/2000/svg" viewBox="0 0 567 602">
<path fill="#9d9087" d="M268.264 27.718c1.52.229 3.77.223 5-.014 1.23-.237-.014-.425-2.764-.418-2.75.008-3.756.202-2.236.432m31.486-.012c1.238.238 3.262.238 4.5 0 1.238-.239.225-.434-2.25-.434s-3.488.195-2.25.434m-42.481.987c.973.254 2.323.237 3-.037.677-.274-.119-.481-1.769-.461-1.65.02-2.204.244-1.231.498m56 0c.973.254 2.323.237 3-.037.677-.274-.119-.481-1.769-.461-1.65.02-2.204.244-1.231.498m9.544.99c.721.289 1.584.253 1.916-.079.332-.332-.258-.568-1.312-.525-1.165.048-1.402.285-.604.604m-80 1c.721.289 1.584.253 1.916-.079.332-.332-.258-.568-1.312-.525-1.165.048-1.402.285-.604.604m87 0c.721.289 1.584.253 1.916-.079.332-.332-.258-.568-1.312-.525-1.165.048-1.402.285-.604.604m-94.063.979c.688.278 1.813.278 2.5 0 .688-.277.125-.504-1.25-.504s-1.937.227-1.25.504m100.063.021c.721.289 1.584.253 1.916-.079.332-.332-.258-.568-1.312-.525-1.165.048-1.402.285-.604.604m5 1c.721.289 1.584.253 1.916-.079.332-.332-.258-.568-1.312-.525-1.165.048-1.402.285-.604.604m-114 1c.721.289 1.584.253 1.916-.079.332-.332-.258-.568-1.312-.525-1.165.048-1.402.285-.604.604M267 37.68C83.418 51.156-27.664 247.971 55.02 413.266c57.261 114.472 191.103 169.605 313.702 129.223 116.513-38.378 190.831-154.844 176.367-276.388-4.787-40.221-21.842-85.817-43.241-115.601-12.024-16.736-17.194-22.864-30.842-36.563C416.58 59.31 343.66 32.052 267 37.68m106.5 3.816c3.375 1.591 7.193 2.107 4.5.609-.825-.46-2.85-1.102-4.5-1.429l-3-.594 3 1.414M186 46c-.825.533-1.05.969-.5.969s1.675-.436 2.5-.969c.825-.533 1.05-.969.5-.969s-1.675.436-2.5.969m97.593 28.562c-1.541 15.159-2.643 27.692-2.448 27.85.872.708 24.196 2.669 32.028 2.692 14.238.043 19.827-4.277 19.827-15.325 0-4.517-3.509-10.171-6.999-11.279-2.317-.735-2.695-2.5-.536-2.5.806 0 3.056-1.397 5-3.104 7.346-6.449 3.968-17.966-6.245-21.292C319.337 50.013 297.126 47 290.285 47h-3.889l-2.803 27.562M395 50c.825.533 1.95.969 2.5.969s.325-.436-.5-.969c-.825-.533-1.95-.969-2.5-.969s-.325.436.5.969m-168 4.437c-7.677 2.695-7.583.835-1.061 21.063 5.977 18.536 6.034 21.189.515 23.82-8.713 4.156-10.425 1.988-18.411-23.32-2.343-7.425-4.339-13.591-4.436-13.701-.507-.58-16.607 4.963-16.607 5.717 0 .49.429 1.924.954 3.187.524 1.263 3.255 9.633 6.067 18.598 7.853 25.032 15.498 30.339 34.971 24.278 19.892-6.191 22.708-16.013 13.138-45.829-5.872-18.293-4.898-17.404-15.13-13.813m178 .063c1.375.786 2.95 1.429 3.5 1.429.55 0-.125-.643-1.5-1.429s-2.95-1.429-3.5-1.429c-.55 0 .125.643 1.5 1.429m-245.559 4.055c-1.864 1.494-1.852 1.512.309.465 1.238-.6 2.25-1.3 2.25-1.555 0-.765-.519-.544-2.559 1.09M413 58.393c0 .216.698.661 1.552.989.89.341 1.291.173.941-.393-.587-.951-2.493-1.406-2.493-.596m-55.719 6.357c-1.166 3.162-5.568 14.075-9.784 24.25-4.216 10.175-7.888 19.223-8.16 20.106-.38 1.232 1.444 2.374 7.834 4.908a1094.92 1094.92 0 0 1 17.45 7.144c11.338 4.775 10.451 4.889 13.129-1.683 3.153-7.737 3.235-7.598-6.805-11.402-4.975-1.884-9.259-3.773-9.521-4.196-.262-.424 2.732-8.782 6.654-18.574 3.921-9.791 7.195-18.39 7.276-19.108.137-1.223-12.11-7.195-14.754-7.195-.66 0-2.154 2.587-3.319 5.75m-55.363-1.64c-.045 1.315-.279 3.573-.518 5.019-.497 2.998 1.27 3.834 8.15 3.857 4.721.016 6.45-1.341 6.45-5.064 0-3.676-1.915-4.954-8.431-5.627-5.35-.552-5.572-.481-5.651 1.815M419 61.43c0 .275.9.981 2 1.57 1.1.589 2 .845 2 .57s-.9-.981-2-1.57c-1.1-.589-2-.845-2-.57m-268.559 2.125c-1.864 1.494-1.852 1.512.309.465 1.238-.6 2.25-1.3 2.25-1.555 0-.765-.519-.544-2.559 1.09m-11.518 4.695c-.898 2.937-.615 3.575 1.108 2.498 1.809-1.129 1.756-2.748-.09-2.748-.518 0-.975.112-1.018.25m298.62 3.681c-.317.512-.193 1.167.274 1.456.467.289.85-.13.85-.931 0-1.686-.316-1.833-1.124-.525M440 74.378c0 .207.788.995 1.75 1.75 1.586 1.243 1.621 1.208.378-.378-1.307-1.666-2.128-2.195-2.128-1.372m4 3c0 .207.788.995 1.75 1.75 1.586 1.243 1.621 1.208.378-.378-1.307-1.666-2.128-2.195-2.128-1.372m-287.386 6.398-7.886 5.724.647 14.416c.739 16.453 1.404 16.183-7.875 3.202-2.75-3.847-5.386-7.022-5.859-7.056-1.074-.078-13.641 9.094-13.641 9.956 0 .348 1.912 3.166 4.25 6.262a883.971 883.971 0 0 1 7.378 9.925c1.72 2.362 7.169 9.805 12.108 16.539l8.98 12.244 7.117-5.143 7.118-5.144-3.669-5.1c-2.018-2.806-4.986-6.809-6.596-8.897-1.61-2.088-2.707-4.016-2.439-4.285.269-.268 6.15 1.565 13.07 4.073l12.582 4.561 4.012-2.776c2.207-1.528 4.03-3.049 4.051-3.381.114-1.813-14.858-13.541-19.27-15.095-2.737-.964-5.176-1.952-5.42-2.195-.243-.244-.389-7.905-.322-17.025.066-9.119-.008-16.569-.165-16.555-.157.014-3.834 2.602-8.171 5.75M123 82.122c-3.485 3.055-3.486 3.059-.28.927 1.771-1.178 3.485-2.571 3.809-3.096.964-1.56.164-1.069-3.529 2.169m325-1.758c0 .275 1.35 1.461 3 2.636s3 1.911 3 1.636c0-.275-1.35-1.461-3-2.636s-3-1.911-3-1.636m-148.368 4.447c-1.123 6.79-1.078 6.861 4.801 7.552 6.045.711 9.959-.335 10.953-2.927 1.673-4.359-1.66-6.953-10.015-7.796l-5.129-.517-.61 3.688M115.924 87.75 113.5 90.5l2.75-2.424c2.57-2.266 3.209-3.076 2.424-3.076-.179 0-1.416 1.237-2.75 2.75M458 88.5c1.292 1.375 2.574 2.5 2.849 2.5.275 0-.557-1.125-1.849-2.5-1.292-1.375-2.574-2.5-2.849-2.5-.275 0 .557 1.125 1.849 2.5m-348.076 4.25L107.5 95.5l2.75-2.424c2.57-2.266 3.209-3.076 2.424-3.076-.179 0-1.416 1.237-2.75 2.75m354.646.137c-.301.487.235 1.5 1.191 2.25 1.536 1.204 1.594 1.177.498-.229-.683-.876-.946-1.888-.584-2.25.362-.362.385-.658.051-.658-.335 0-.855.399-1.156.887m-60.267 17.363c-13.309 8.388-24.221 15.534-24.25 15.88-.029.347 2.922 2.927 6.557 5.733l6.61 5.103 4.358-3.129 4.358-3.13 5.619 4.397c3.091 2.418 6.526 5.107 7.633 5.977 1.99 1.561 1.992 1.643.163 6.836l-1.851 5.257 3 2.463a1441.89 1441.89 0 0 0 6.658 5.425l3.658 2.961 2.541-6.762c4.238-11.281 16.362-44.618 17.056-46.9.545-1.791-.696-3.213-7.631-8.744-4.555-3.633-8.732-6.608-9.282-6.611-.55-.003-11.889 6.857-25.197 15.244m-308.824-4L86.5 115.5l9.25-8.979c8.591-8.34 9.705-9.521 8.979-9.521-.149 0-4.311 4.162-9.25 9.25m373.609-8c.232.138 1.995 1.6 3.917 3.25l3.495 3-2.937-3.25c-1.615-1.787-3.378-3.25-3.917-3.25-.539 0-.79.112-.558.25M481.5 110c2.709 2.75 5.15 5 5.425 5 .275 0-1.716-2.25-4.425-5-2.709-2.75-5.15-5-5.425-5-.275 0 1.716 2.25 4.425 5m-60.25 7.103c-8.535 5.792-8.497 5.663-2.857 9.713l4.394 3.155 3.356-8.184c1.847-4.502 3.507-8.545 3.69-8.986.664-1.596-1.468-.527-8.583 4.302m70.669 4.647c2.96 3.438 5.58 6.25 5.824 6.25.662 0-7.407-9.486-9.443-11.102-.969-.769.66 1.415 3.619 4.852M262.5 118.951c-6.6.949-15.375 2.555-19.5 3.569l-7.5 1.844 6 1.428c5.288 1.258 7.483 1.235 18.5-.195 6.875-.892 18.012-1.656 24.75-1.697 12.738-.078 12.992-.177 11.089-4.353-1.451-3.186-13.792-3.407-33.339-.596m-180.496 1.545c-1.29 1.373-2.156 2.664-1.925 2.868.232.205 1.468-.918 2.747-2.496 2.863-3.53 2.359-3.758-.822-.372m219.539.308c1.887 3.194 2.956 3.618 11.957 4.747 44.135 5.537 84.929 31.128 116.287 72.949 4.933 6.579 16.679 28.767 18.66 35.249.58 1.899 1.002 2.081 2.706 1.169 2.723-1.457 2.917-1.03 1.704 3.749-.857 3.374-.657 5.498 1.129 11.968 14.193 51.427 2.903 109.182-29.49 150.865-45.581 58.653-121.527 81.973-192.044 58.969-26.786-8.738-55.749-27.391-72.952-46.983-3.3-3.758-6.456-7.317-7.014-7.909-5.662-6.011-16.883-23.999-22.504-36.077-20.3-43.622-21.375-96.424-2.847-139.945 2.094-4.92 3.708-8.992 3.586-9.048-5.668-2.616-5.287-2.808-8.552 4.316-41.842 91.318 6.755 205.09 102.398 239.728 141.42 51.218 279.525-81.701 232.914-224.167-21.521-65.78-83.88-116.456-150.2-122.062l-7.582-.641 1.844 3.123m-107.844 2.83c-.755.755 4.274 5.379 5.801 5.334.55-.016.213-.487-.75-1.048-2.144-1.249-2.287-2.92-.25-2.92.825 0 1.5.408 1.5.906 0 .499.919.666 2.043.373 1.382-.362 1.948-.097 1.75.819-.176.811.71 1.454 2.207 1.602 1.375.136 1.919-.009 1.208-.323-.991-.439-1.021-.897-.127-1.974 1.139-1.373-1.753-1.891-9.581-1.714-1.1.024-2.256-.352-2.568-.837-.313-.485-.867-.583-1.233-.218m-117.093 3.214-1.894 2.652 2.338-2.222c1.287-1.222 2.139-2.416 1.894-2.652-.244-.237-1.296.763-2.338 2.222m133.212-.63c.533.533 1.805.793 2.826.576 1.375-.291 1.123-.543-.97-.969-1.825-.373-2.482-.233-1.856.393m6.451 1.475c.973.254 2.323.237 3-.037.677-.274-.119-.481-1.769-.461-1.65.02-2.204.244-1.231.498m51.981 1.026c-5.505.513-5.404 1.753.259 3.179 6.381 1.607 15.553 5.813 18.322 8.403 4.815 4.504 13.237 19.88 20.65 37.699 3.922 9.426 4.673 9.612 3.947.978-1.034-12.295-4.262-26.552-8.801-38.87l-4.278-11.608-12.925-.089c-7.108-.049-14.837.09-17.174.308M201 130.173c0 .455 1.35.827 3 .827s3-.174 3-.387c0-.212-1.35-.584-3-.826s-3-.069-3 .386m10.25-.484c.963.252 2.537.252 3.5 0 .963-.251.175-.457-1.75-.457s-2.713.206-1.75.457m6.75.342c0 .533.675.969 1.5.969s1.5-.177 1.5-.393c0-.216-.675-.652-1.5-.969-.825-.316-1.5-.139-1.5.393m8.813-.348c.721.289 1.584.253 1.916-.079.332-.332-.258-.568-1.312-.525-1.165.048-1.402.285-.604.604m81.746 2.984c8.457 19.581 12.498 36.616 13.154 55.455l.543 15.621 5.622 1.577c6.234 1.749 16.268 7.887 20.122 12.311 5.458 6.264 8.905 11.121 11.1 15.637 2.82 5.804 2.834 5.805 5.855.111 5.89-11.102 17.882-25.777 30.138-36.879 8.753-7.929 8.222-6.682-1.306 3.064-12.339 12.623-15.487 16.215-17.468 19.936-.879 1.65-1.933 3.225-2.343 3.5-.409.275-1.705 2.216-2.879 4.314-1.174 2.097-2.853 4.91-3.731 6.25-2.073 3.165-1.634 3.09 5.85-.991 7.332-3.999 18.983-7.827 30.284-9.95 8.719-1.638 28.317-2.728 29.006-1.613.236.382-2.369 2.964-5.789 5.74-5.848 4.747-14.391 13.055-18.421 17.916-.988 1.191-2.566 3.088-3.507 4.215-.94 1.127-1.39 2.239-1 2.471.561.333 17.11-4.07 21.711-5.776.55-.204 2.034-.7 3.297-1.102 6.847-2.181 16.373-7.567 15.454-8.738-.533-.68-1.795-3.486-2.803-6.236-1.008-2.75-2.871-6.679-4.141-8.73-1.269-2.052-2.307-3.937-2.307-4.19 0-.842-9.776-16.737-11.652-18.945-1.017-1.196-3.176-3.966-4.799-6.155-9.931-13.394-29.941-30.775-46.049-40-9.649-5.526-21.891-11.48-23.604-11.48-.951 0-1.879-.339-2.063-.753-.638-1.441-23.672-7.76-31.818-8.728-2.467-.293-5.301-.792-6.298-1.109-1.729-.549-1.736-.398-.158 3.257M501 133c1.742 2.2 3.351 4 3.575 4 .792 0-5.089-7.925-5.909-7.962-.459-.021.592 1.762 2.334 3.962m-428.595-.75L70.5 134.5l2.25-1.905c2.114-1.79 2.705-2.595 1.905-2.595-.19 0-1.202 1.012-2.25 2.25m160.357-1.543c1.244.239 3.044.23 4-.02s-.062-.446-2.262-.435c-2.2.011-2.982.216-1.738.455m7.988.955c.688.278 1.813.278 2.5 0 .688-.277.125-.504-1.25-.504s-1.937.227-1.25.504m-39.75.731c0 .949 2.993 1.427 3.527.563.325-.526-.336-.956-1.468-.956s-2.059.177-2.059.393m6 1.178c0 .315.675 1.247 1.5 2.072 1.628 1.628 1.832 1.386.893-1.061-.57-1.487-2.393-2.256-2.393-1.011m39.663.679c.578.952 4.234.851 6.837-.19 1.391-.557.585-.764-2.646-.68-2.556.066-4.442.458-4.191.87m-177.385 2c-1.499 1.938-2.442 3.75-1.952 3.75.244 0 1.181-1.125 2.082-2.5 1.686-2.573 1.592-3.476-.13-1.25m136.582.444c1.275 2.431 3.14 3.928 3.14 2.52 0-.497-.965-1.761-2.146-2.809-2.13-1.892-2.137-1.89-.994.289m47.14-1.301c0 .216.675.652 1.5.969.825.316 1.5.139 1.5-.393 0-.533-.675-.969-1.5-.969s-1.5.177-1.5.393m-15.187 1.29c.721.289 1.584.253 1.916-.079.332-.332-.258-.568-1.312-.525-1.165.048-1.402.285-.604.604m-2.813 1.7c0 .211.901.619 2.001.907 1.101.288 1.75.115 1.441-.383-.538-.871-3.442-1.313-3.442-.524m34.5.617c1.181.508 1.42.888.583.93-.779.038-1.209.277-.956.53.253.254 1.542.178 2.863-.168 2.235-.584 2.267-.681.456-1.39-2.753-1.077-5.471-.987-2.946.098m-173.167 2.481c-24.575 12.437-24.583 44.853-.013 56.072 29.537 13.488 56.246-28.793 31.546-49.936-10.039-8.592-22.057-10.931-31.533-6.136m101.192-.753c-10.172 5.372-30.158 20.986-39.575 30.918-6.711 7.079-16.179 18.459-15.73 18.908 1.444 1.443 12.395-6.176 19.303-13.431 9.679-10.164 20.944-19.333 32.977-26.84 11.445-7.14 10.908-6.554 8.263-9.017-2.131-1.985-2.437-2.017-5.238-.538m44.982-.739c-.35.566.051.734.941.393 1.732-.665 2.049-1.382.611-1.382-.518 0-1.216.445-1.552.989m31.137.882c-1.551.609-1.222.997 2 2.356 4.155 1.753 7.356 1.987 7.356.539 0-.495-.895-.617-1.99-.269-2.333.74-6.968-1.957-4.83-2.811.726-.291.87-.532.32-.537-.55-.005-1.835.32-2.856.722M209.5 142c.34.55.816 1 1.059 1s.441-.45.441-1-.477-1-1.059-1-.781.45-.441 1m68.5 0c0 .55.45 1 1 1s1-.45 1-1-.45-1-1-1-1 .45-1 1m-214.128 1.75c-1.243 1.586-1.208 1.621.378.378.963-.755 1.75-1.543 1.75-1.75 0-.823-.821-.294-2.128 1.372M212 144c0 .55.477 1 1.059 1s.781-.45.441-1-.816-1-1.059-1-.441.45-.441 1m38-.191c0 .529 1.125 1.698 2.5 2.599 1.375.901 2.5 2.25 2.5 2.998 0 .749 1.012 1.616 2.25 1.928 2.047.515 2.092.448.5-.744-.962-.721-1.775-1.711-1.805-2.2-.078-1.242-5.945-5.763-5.945-4.581M215 145c0 .55.45 1 1 1s1-.45 1-1-.45-1-1-1-1 .45-1 1m294-.622c0 .207.788.995 1.75 1.75 1.586 1.243 1.621 1.208.378-.378-1.307-1.666-2.128-2.195-2.128-1.372M61 148c-.589 1.1-.845 2-.57 2s.981-.9 1.57-2c.589-1.1.845-2 .57-2s-.981.9-1.57 2m186.813-1.317c.721.289 1.584.253 1.916-.079.332-.332-.258-.568-1.312-.525-1.165.048-1.402.285-.604.604m208.4 3.368c-21.442 10.715-23.748 32.133-5.482 50.916 7.103 7.304 6.609 7.277 13.104.7l5.267-5.334-3.97-2.627c-9.734-6.441-12.819-16.173-7.238-22.826 9.824-11.71 23.801-8.054 27.395 7.166l1.211 5.126 4-.615c9.222-1.419 10.754-2.391 10.01-6.353-1.016-5.416-6.118-14.821-10.817-19.939-8.896-9.691-21.748-12.076-33.48-6.214m-256.734 2.593C188.621 158.964 162.226 180 165.154 180c.257 0 3.337-1.125 6.846-2.5 12.326-4.831 25.248-2.561 46.358 8.141 3.771 1.913 7.08 3.254 7.352 2.982 2.17-2.17-14.879-40.623-18.012-40.623-.132 0-3.83 2.09-8.219 4.644M286 148.601c0 1.079 4.836 8.399 5.549 8.399.262 0-.715-1.912-2.171-4.25-3.176-5.099-3.378-5.347-3.378-4.149m-70 1.808c0 .19.675.906 1.5 1.591.865.718 1.5.815 1.5.229 0-.558-.675-1.274-1.5-1.591-.825-.316-1.5-.419-1.5-.229m35 .591c0 .55.45 1 1 1s1-.45 1-1-.45-1-1-1-1 .45-1 1m264 2c.589 1.1 1.295 2 1.57 2 .275 0 .019-.9-.57-2s-1.295-2-1.57-2c-.275 0-.019.9.57 2m-459 3c-.589 1.1-.845 2-.57 2s.981-.9 1.57-2c.589-1.1.845-2 .57-2s-.981.9-1.57 2m206.26 1.75c1.249 2.823 3.74 5.946 3.74 4.689 0-.88-4.02-7.439-4.56-7.439-.218 0 .15 1.238.82 2.75m-164.65.342c-6.441 5.066-6.58 12.698-.341 18.618 9.596 9.105 19.791 9.006 24.176-.236 5.368-11.311-13.917-26.183-23.835-18.382m126.779 1.212c-.103 2.975-.04 3.038.917.913.624-1.384.668-2.642.111-3.195-.555-.553-.961.347-1.028 2.282M259 157.473c0 1.644 3.557 6.569 5.097 7.058 1.643.521 2.903 4.468 2.903 9.094 0 1.306.383 2.375.851 2.375 2.016 0-.819-10.501-3.33-12.33-1.386-1.01-2.521-2.419-2.521-3.131 0-.712-.675-1.854-1.5-2.539s-1.5-.922-1.5-.527m-4.39 3.346c-2.14.175-4.922.994-6.183 1.821-1.813 1.188-2.745 1.26-4.453.346-2.662-1.425-5.821-.709-8.697 1.97-1.753 1.633-2.34 1.766-2.98.674-.438-.748-2.236-1.565-3.994-1.814-1.759-.25-2.993-.124-2.744.28.249.403-.112.962-.803 1.242-.949.385-.89.763.244 1.549 1.131.784 1.649.619 2.106-.674.515-1.454 1.081-1.206 3.75 1.643 1.729 1.845 3.144 2.741 3.144 1.99 0-2.522 6.813-6.147 8.709-4.634 1.401 1.118 7.291.075 7.291-1.291 0-.507 1.912-.869 4.25-.805 2.337.064 3.462.322 2.5.573-2.198.575-2.421 5.311-.25 5.311.825 0 1.5.477 1.5 1.059s.425.796.944.475c.901-.556.89-9.215-.012-9.769-.238-.146-2.183-.122-4.322.054M521 163c.589 1.1 1.295 2 1.57 2 .275 0 .019-.9-.57-2s-1.295-2-1.57-2c-.275 0-.019.9.57 2m-471 3c-.589 1.1-.845 2-.57 2s.981-.9 1.57-2c.589-1.1.845-2 .57-2s-.981.9-1.57 2m198.613 3.202c-.435.936-.477 2.21-.093 2.83.486.787-.617 1.028-3.662.798-4.057-.307-4.358-.159-4.358 2.14 0 5.305 10.717 6.991 11.316 1.78.174-1.512-.135-2.75-.686-2.75-.552 0-1.166-1.463-1.365-3.25-.279-2.496-.546-2.855-1.152-1.548M46 174c-.589 1.1-.845 2-.57 2s.981-.9 1.57-2c.589-1.1.845-2 .57-2s-.981.9-1.57 2m184-.559c0 .793.492 1.745 1.094 2.117.602.372.889 1.749.639 3.059-.251 1.311-.068 2.383.406 2.383.992 0 1.111-3.467.231-6.75-.668-2.492-2.37-3.073-2.37-.809M228.141 175c0 .825.386 2.4.859 3.5.542 1.261.859 1.445.859.5 0-.825-.386-2.4-.859-3.5-.542-1.261-.859-1.445-.859-.5m13.859-.16c0 2.216 4.681 4.114 6.631 2.688 1.026-.751 1.642-1.567 1.367-1.814-1.105-.995-7.998-1.749-7.998-.874m17.009.154c-1.133.701-1.169 1.359-.189 3.509 1.569 3.445 1.104 4.027-4.303 5.388-2.484.626-4.517 1.581-4.517 2.123 0 1.308-7.607 1.267-10.075-.054-1.63-.873-2.1-.631-2.91 1.5-.531 1.397-1.427 2.54-1.99 2.54-.564 0-1.025.45-1.025 1 0 1.716 2.938 1.095 4.732-1 1.221-1.426 2.95-2 6.022-2 2.371 0 5.959-.689 7.975-1.531 2.016-.843 4.309-1.285 5.095-.983.787.302 1.935-.106 2.553-.907 2.433-3.154 6.623-.811 6.623 3.704 0 2.228.27 3.78.6 3.45.33-.33.6-2.206.6-4.169 0-1.963.405-3.82.9-4.126 1.292-.798 1.11-4.19-.27-5.043-.762-.471-.968-.198-.592.782.317.827.175 2.139-.315 2.914-.686 1.083-.896 1.106-.908.1-.008-.72-.485-1.019-1.059-.664-1.583.978-3.956-1.476-3.956-4.09 0-2.754-1.072-3.629-2.991-2.443m-78.466 5.937c-.317.512-.118 1.213.441 1.559.559.345 1.016-.074 1.016-.931 0-1.757-.6-2.015-1.457-.628M185 181c1.09.704 1.142.974.191.985-.72.008-1.029.469-.686 1.023.343.555-.418 1.403-1.691 1.884-2.004.758-1.811.877 1.436.891 2.063.01 3.75-.388 3.75-.883s-.562-.907-1.25-.915c-.774-.01-.869-.295-.25-.75 1.923-1.413 1.499-3.235-.75-3.22-1.819.013-1.963.201-.75.985m345.564.293c.376.986.935 1.541 1.243 1.233.308-.307.001-1.114-.683-1.793-.988-.98-1.102-.865-.56.56m-338.751.39c.721.289 1.584.253 1.916-.079.332-.332-.258-.568-1.312-.525-1.165.048-1.402.285-.604.604m125.439 2.817c.011 2.2.216 2.982.455 1.738.239-1.244.23-3.044-.02-4s-.446.062-.435 2.262M176.5 183c2.749 1.181 4.328 1.181 2.5 0-.825-.533-2.175-.945-3-.914-.989.036-.819.347.5.914m53.579.583c.048 1.165.285 1.402.604.605.289-.722.253-1.585-.079-1.917-.332-.332-.568.258-.525 1.312M190.5 184c2.749 1.181 4.328 1.181 2.5 0-.825-.533-2.175-.945-3-.914-.989.036-.819.347.5.914m-25.942 1.907c-.309.498.34.671 1.441.383 2.335-.611 2.63-1.29.56-1.29-.793 0-1.693.408-2.001.907M172 186c-1.213.784-1.069.972.75.985 1.238.008 2.25-.435 2.25-.985 0-1.253-1.061-1.253-3 0m30 0c-1.512.484-1.841.84-.832.9.918.055 2.493.367 3.5.694 1.378.448 1.494.354.469-.379-1.151-.821-1.151-1.057 0-1.515 2.095-.833-.319-.602-3.137.3m68.158 1c0 1.375.227 1.938.504 1.25.278-.687.278-1.812 0-2.5-.277-.687-.504-.125-.504 1.25m-80.014-.523c.263.263 1.35.625 2.417.806 1.066.18 3.379 1.09 5.139 2.022 1.761.932 3.786 1.675 4.5 1.65.715-.025-.05-.663-1.7-1.419-1.65-.755-2.55-1.442-2-1.525.55-.083.1-.538-1-1.011-2.111-.907-8.171-1.338-7.356-.523m16.856.057c0 .951 6.908 7.466 7.917 7.466 2.12 0 1.041-1.972-1.417-2.589-2.664-.669-3.295-1.979-1.277-2.652.673-.224-.227-.913-2-1.531-1.773-.618-3.223-.931-3.223-.694m326.071-.034c0 .55.643 2.125 1.429 3.5s1.429 2.05 1.429 1.5c0-.55-.643-2.125-1.429-3.5s-1.429-2.05-1.429-1.5m-372.444 1.331c-1.305 2.229 6.112 3.708 9.95 1.984 2.158-.97 3.382-1.774 2.72-1.789-.662-.014-2.308.477-3.659 1.093-1.924.877-3.122.786-5.538-.419-1.695-.846-3.258-1.237-3.473-.869M166 188c0 .55.45 1 1 1s1-.45 1-1-.45-1-1-1-1 .45-1 1m66.5 0c-.34.55-.141 1 .441 1s1.059-.45 1.059-1-.198-1-.441-1-.719.45-1.059 1m-27.5 2.015c1.228.806 1.258 1.141.166 1.846-1.066.688-.999.989.332 1.5 2.497.958 3.192.744 1.502-.463-1.181-.844-.968-.958 1-.537l2.5.535-2.361-1.948c-1.298-1.071-2.873-1.941-3.5-1.933-.626.009-.464.459.361 1m9-.015c0 .55.477 1 1.059 1s.781-.45.441-1-.816-1-1.059-1-.441.45-.441 1m-54.582 1.569c-1.842 1.473-1.823 1.508.457.876 1.498-.416 2.144-.285 1.749.355-.379.613.179.803 1.414.48 1.123-.294 1.911-.604 1.752-.69-.16-.086-1.002-.696-1.872-1.356-1.254-.951-1.979-.882-3.5.335m72.661.014c.048 1.165.285 1.402.604.605.289-.722.253-1.585-.079-1.917-.332-.332-.568.258-.525 1.312m85.079.417c0 1.375.227 1.938.504 1.25.278-.687.278-1.812 0-2.5-.277-.687-.504-.125-.504 1.25m-98.947 1.538c-1.053 1.193-1.053 1.465 0 1.477.912.011.85.299-.211.985-1.178.761-1.206.973-.128.985 1.107.012 1.132.306.128 1.515-1.43 1.723.039 2.061 1.707.393.609-.609 2.591-1.411 4.403-1.782l3.296-.674-3.76-2.218c-4.383-2.586-3.817-2.515-5.435-.681m52.947.462c0 1.375.227 1.938.504 1.25.278-.687.278-1.812 0-2.5-.277-.687-.504-.125-.504 1.25m-50.658 1c1.911.821 1.915.863.083.93-1.054.038-1.65.336-1.325.661.325.326 1.585.276 2.799-.109 2.405-.763.91-2.505-2.057-2.396-.989.036-.819.347.5.914m-69.93.886c-.301.488.314 1.112 1.366 1.387 1.34.351 1.755.085 1.382-.886-.604-1.575-1.934-1.817-2.748-.501m4.163.238c.679.684 1.486.991 1.793.683.308-.308-.247-.867-1.233-1.243-1.425-.542-1.54-.428-.56.56m57.832-.229c-.604.977 2.393 2.48 3.245 1.629.288-.288-.028-.524-.702-.524-.674 0-.948-.45-.608-1 .34-.55.168-1-.382-1s-1.249.403-1.553.895m-66.565.498c0 .216.698.661 1.552.989.89.341 1.291.173.941-.393-.587-.951-2.493-1.406-2.493-.596m90.23.276c-.857.345-.426 1.176 1.321 2.55 1.999 1.572 2.861 1.767 3.77.85.907-.914.813-1.048-.411-.583-.897.342-2.201-.131-2.992-1.085-1.268-1.528-1.164-1.622 1.09-.98 1.897.54 2.134.459.992-.34-1.634-1.144-1.883-1.171-3.77-.412m-95.98 1.551c-1.238.597-2.25 1.477-2.25 1.956 0 .478 1.125.133 2.5-.768 3.668-2.403 3.539-3.015-.25-1.188m87.75-.335c0 .897 3.005 2.443 3.598 1.851.171-.172-.568-.861-1.643-1.532-1.075-.672-1.955-.815-1.955-.319m-83 1.032c0 .504.563 1.107 1.25 1.341.688.234-.887.749-3.5 1.145s-4.75 1.142-4.75 1.658c0 .517-.605.939-1.345.939-1.506 0-5.246 3.742-4.493 4.496.266.265 1.511-.474 2.767-1.644 1.714-1.597 2.476-1.816 3.056-.876.425.687.94.862 1.144.387.204-.475 2.489-1.927 5.077-3.229 4.008-2.015 4.501-2.57 3.321-3.75-1.602-1.602-2.527-1.773-2.527-.467m5 .142c0 .582.45.781 1 .441s1-.816 1-1.059-.45-.441-1-.441-1 .477-1 1.059m74 .941c.825.533 1.05.983.5 1-.55.017-.325.467.5 1 2.482 1.604 3.088 1.126 1.268-1-.942-1.1-2.175-1.993-2.74-1.985-.566.009-.353.452.472.985m7.5 2.525-3 1.362 3.082-.193c1.696-.107 3.083-.756 3.084-1.444 0-.687-.037-1.213-.083-1.169-.046.045-1.433.695-3.083 1.444m11.857-.025c.825.825 1.812 1.5 2.194 1.5.382 0 .134-.675-.551-1.5s-1.672-1.5-2.194-1.5-.274.675.551 1.5m72.722.083c.048 1.165.285 1.402.604.605.289-.722.253-1.585-.079-1.917-.332-.332-.568.258-.525 1.312M498 205.906a4881.017 4881.017 0 0 1-25.808 7.204c-11.03 3.038-12.259 3.598-11.827 5.39 1.914 7.936 4.223 14.497 5.097 14.48.571-.011 5.313-1.127 10.538-2.48 5.225-1.353 9.873-2.469 10.328-2.48.832-.02-.856 2.047-11.712 14.343l-5.884 6.664 2.853 9.497c1.569 5.223 3.199 9.379 3.621 9.236.423-.143 2.687-2.776 5.031-5.852 6.321-8.291 15.634-19.71 16.523-20.26.428-.264 7.632 2.133 16.009 5.328 8.377 3.195 15.223 5.52 15.214 5.167-.046-1.723-3.797-14.928-4.742-16.693-.768-1.434-4.705-3.158-13.659-5.982-6.92-2.183-12.581-4.205-12.582-4.495 0-.29 4.725-1.821 10.5-3.402 11.831-3.24 11.449-2.685 8.656-12.571-2.237-7.919-1.519-7.796-18.156-3.094m-359.493-1.917c-.35.566.051.734.941.393 1.732-.665 2.049-1.382.611-1.382-.518 0-1.216.445-1.552.989M266.158 206c0 1.375.227 1.938.504 1.25.278-.687.278-1.812 0-2.5-.277-.687-.504-.125-.504 1.25m4 0c0 1.375.227 1.938.504 1.25.278-.687.278-1.812 0-2.5-.277-.687-.504-.125-.504 1.25m1.681 4.053c-.187 3.329-.033 6.816.341 7.75.374.933.711-1.791.75-6.053.083-9.204-.611-10.283-1.091-1.697m-239.76-4.385c-.043.643-.338 1.993-.655 3-.547 1.741-.518 1.744.571.044.631-.983.925-2.333.655-3-.355-.875-.514-.887-.571-.044m93.478.914c-1.066.78-1.516 1.411-.998 1.403 1.382-.023 3.961-1.799 3.41-2.349-.259-.26-1.345.166-2.412.946M233 206c-.901.582-1.025.975-.309.985.655.008 1.469-.435 1.809-.985.767-1.242.421-1.242-1.5 0m5.5 0c-.34.55.11 1 1 1s1.34-.45 1-1c-.34-.55-.79-1-1-1-.21 0-.66.45-1 1m-180.673 1.75c-8.296 9.787-12.346 30.107-7.937 39.815 8.195 18.042 34.528 23.15 47.803 9.273 6.294-6.581 9.716-15.99 10.139-27.88.285-8.008.05-10.81-.979-11.66-2.202-1.822-26.771-7.791-27.721-6.736-.723.804-7.132 23.919-7.132 25.723 0 .578 2.789 1.47 10.069 3.222 2.428.585 2.662.282 4.28-5.539 1.33-4.783 2.059-6.026 3.263-5.563.854.327 2.229.595 3.058.595 1.922 0 .96 6.784-1.71 12.053-4.338 8.563-19.715 7.994-25.69-.951-3.694-5.53-2.624-12.456 3.243-20.984l3.458-5.028-5.648-4.045c-6.467-4.631-6.507-4.642-8.496-2.295m70.154.773c-1.057 1.273-.995 1.42.378.893.902-.347 1.641-1.032 1.641-1.523 0-1.286-.579-1.105-2.019.63m112.138-.061c-2.041.739-2.834 1.425-2 1.733.76.28 2.731-.322 4.381-1.338 3.373-2.076 2.613-2.202-2.381-.395m-99.306 1.221c.721.289 1.584.253 1.916-.079.332-.332-.258-.568-1.312-.525-1.165.048-1.402.285-.604.604M244 210c-.825.533-1.05.969-.5.969s1.675-.436 2.5-.969c.825-.533 1.05-.969.5-.969s-1.675.436-2.5.969m24 .441c0 .793.408 1.693.907 2.001.498.309.671-.34.383-1.441-.611-2.335-1.29-2.63-1.29-.56M132 211c0 .55.477 1 1.059 1s.781-.45.441-1-.816-1-1.059-1-.441.45-.441 1m14-.425c.825.314 2.522 1.069 3.77 1.678 1.533.747 2.599.778 3.284.093.684-.684.596-1.061-.271-1.163-.706-.082-2.858-.381-4.783-.665-1.925-.283-2.825-.258-2 .057m-17.333 1.092c-.932.932-.832 2.333.166 2.333.459 0 .834-.675.834-1.5 0-1.699-.073-1.76-1-.833m8.84.322c-.35.566.051.734.941.393 1.732-.665 2.049-1.382.611-1.382-.518 0-1.216.445-1.552.989m190.306-.306c.721.289 1.584.253 1.916-.079.332-.332-.258-.568-1.312-.525-1.165.048-1.402.285-.604.604m-172.602 1.166c-.83.526-.191.818 1.789.818s2.619-.292 1.789-.818c-.709-.45-1.514-.818-1.789-.818-.275 0-1.08.368-1.789.818M243.5 213c.34.55 1.041 1 1.559 1s.941-.45.941-1-.702-1-1.559-1-1.281.45-.941 1m86.722-.158c-.921.584-.529 1.153 1.402 2.032 2.077.947 2.927.953 3.778.027.803-.874.787-1.02-.062-.544-1.807 1.013-4.861-.411-3.174-1.481.734-.465.884-.845.334-.845s-1.575.365-2.278.811m212.935-.342c-.003.55.602 2.575 1.343 4.5.741 1.925 1.362 2.825 1.379 2 .017-.825-.587-2.85-1.343-4.5-.755-1.65-1.376-2.55-1.379-2m-409.907 1.162c-4.514 1.822.695 3.543 6.776 2.239 5.503-1.18 8.388-3.571 3.11-2.577-4.528.853-5.478 1.134-6.953 2.054-.724.452-1.611.528-1.971.168-.36-.36.008-1.073.817-1.585 1.538-.973.376-1.168-1.779-.299m-104.679 2.909c-.367 1.466-.475 2.858-.24 3.094.236.235.73-.771 1.098-2.236.367-1.466.475-2.858.24-3.094-.236-.235-.73.771-1.098 2.236m132.925-1.564c-.343.554-.032 1.204.691 1.446 3.701 1.235 9.249 2.445 9.601 2.093.452-.452-6.586-2.532-8.597-2.54-.72-.003-1.031-.456-.691-1.006.34-.55.393-1 .118-1s-.78.453-1.122 1.007m85.504-.598c0 .19.675.906 1.5 1.591.865.718 1.5.815 1.5.229 0-.558-.675-1.274-1.5-1.591-.825-.316-1.5-.419-1.5-.229m-89.187 1.274c.721.289 1.584.253 1.916-.079.332-.332-.258-.568-1.312-.525-1.165.048-1.402.285-.604.604m106.746.785c1.067.808 2.365 1.483 2.882 1.5.518.018.068-.629-1-1.436-1.067-.808-2.365-1.483-2.882-1.5-.518-.018-.068.629 1 1.436m73.122.144c.447 1.164.283 1.484-.511.993-1.575-.973-1.49-.116.121 1.222.975.809 1.327.599 1.436-.858.08-1.061-.27-2.187-.779-2.501-.515-.318-.633.189-.267 1.144m-192.379.555c.35 1.021-.075 1.916-1.096 2.307-.917.352-1.826.165-2.02-.417-.194-.581-.751-1.057-1.238-1.057s-.626.675-.31 1.5c.317.825 1.009 1.5 1.539 1.5.529 0 2.844 1.273 5.143 2.83 6.117 4.141 6.251 4.188 6.251 2.21 0-1.015-.536-1.607-1.219-1.345-.67.257-2.873-.656-4.894-2.03-3.171-2.154-3.395-2.543-1.634-2.831 1.892-.31 1.926-.48.474-2.334-1.145-1.462-1.413-1.551-.996-.333m4.698.333c0 1.893 1.085 1.903 3.559.032 1.859-1.406 1.825-1.47-.809-1.5-1.792-.021-2.75.491-2.75 1.468m4.667 1.167c-1.028 1.028-.789 4.139.373 4.858.675.417.812-.266.392-1.941-.487-1.94-.265-2.584.89-2.584.846 0 1.716 1.012 1.933 2.25.36 2.06.462 2.094 1.215.399 1.123-2.531-2.812-4.974-4.803-2.982m185.726.807c.325 2.21 4.743 6.56 5.922 5.831.593-.366.789-.019.466.823-.307.801.066 2.31.83 3.355s1.389 1.453 1.389.908-.54-1.531-1.2-2.191c-.933-.933-.906-1.2.122-1.2 1.058 0 1.076-.298.087-1.489-.68-.819-1.711-1.195-2.292-.836-.652.403-.82.035-.438-.96.457-1.19.194-1.45-1.004-.99-1.2.46-1.46.2-1-1 .46-1.198.2-1.461-.99-1.004-1.028.394-1.366.219-.933-.482.374-.605.263-1.359-.248-1.675-.511-.315-.83.094-.711.91M232.5 220c.34.55.816 1 1.059 1s.441-.45.441-1-.477-1-1.059-1-.781.45-.441 1m8 1.047c-1.394.631-.788.721 2 .297 2.2-.335 4.188-.775 4.417-.977.859-.757-4.497-.19-6.417.68m-89.687 1.636c.721.289 1.584.253 1.916-.079.332-.332-.258-.568-1.312-.525-1.165.048-1.402.285-.604.604m11.187-.274c0 .19.675.906 1.5 1.591.865.718 1.5.815 1.5.229 0-.558-.675-1.274-1.5-1.591-.825-.316-1.5-.419-1.5-.229m86.75.253c.688.278 1.813.278 2.5 0 .688-.277.125-.504-1.25-.504s-1.937.227-1.25.504m5.75.424c-1.655.782-1.526.853.75.41 1.512-.294 2.75-.106 2.75.417s1.462 1.954 3.25 3.179l3.25 2.228-3.5-3.628c-3.865-4.007-3.687-3.936-6.5-2.606m-121.899 5.869c-2.313 5.154-5.601 13.739-5.601 14.625 0 .181 1.688.642 3.75 1.025 2.063.382 8.925 2.483 15.25 4.669 6.325 2.186 12.47 4.031 13.655 4.1 1.184.069 1.988.394 1.786.722-.203.328 1.959 1.678 4.803 3 2.845 1.322 7.827 4.113 11.071 6.202 3.245 2.088 6.414 3.586 7.042 3.329.777-.319.738-.494-.122-.548-.695-.043-2.06-1.388-3.033-2.988-6.075-9.989-25.193-27.646-38.35-35.418l-7.648-4.518-2.603 5.8M223 224c0 .55.477 1 1.059 1s.781-.45.441-1-.816-1-1.059-1-.441.45-.441 1m-56.362 2.5c.317.825 1.033 1.5 1.591 1.5.586 0 .489-.635-.229-1.5-.685-.825-1.401-1.5-1.591-1.5-.19 0-.087.675.229 1.5M220 226c0 .55.477 1 1.059 1s.781-.45.441-1-.816-1-1.059-1-.441.45-.441 1m327.079.583c.048 1.165.285 1.402.604.605.289-.722.253-1.585-.079-1.917-.332-.332-.568.258-.525 1.312M228 227c0 .55.477 1 1.059 1s.781-.45.441-1-.816-1-1.059-1-.441.45-.441 1m182.473.956c.325.526 1.252.703 2.059.393 2.067-.793 1.824-1.349-.591-1.349-1.132 0-1.793.43-1.468.956m-253.997 1.663c.891.891 1.922 1.316 2.293.946.37-.371.011-1.092-.798-1.604-2.362-1.494-3.254-1.101-1.495.658m67.985.338c2.178 2.407 2.677 2.567 1.93.62-.3-.782-1.273-1.702-2.162-2.043-1.328-.509-1.287-.255.232 1.423M400 229c-3.46.728-3.466.738-.5.853 1.65.064 3.675-.32 4.5-.853 1.665-1.076 1.112-1.076-4 0m-228.267 1.124c.679.684 1.486.991 1.793.683.308-.308-.247-.867-1.233-1.243-1.425-.542-1.54-.428-.56.56M160 231.5c-.718.865-.815 1.5-.229 1.5.558 0 1.274-.675 1.591-1.5.316-.825.419-1.5.229-1.5-.19 0-.906.675-1.591 1.5m243.5-.5c-.34.55-.168 1 .382 1s1.278-.45 1.618-1c.34-.55.168-1-.382-1s-1.278.45-1.618 1m5.007-.011c-.35.566.051.734.941.393 1.732-.665 2.049-1.382.611-1.382-.518 0-1.216.445-1.552.989m-18.757.673c.688.278 1.813.278 2.5 0 .688-.277.125-.504-1.25-.504s-1.937.227-1.25.504m7.75.228c-1.829.398-2.545.94-1.834 1.388 1.141.721 6.334-.717 6.334-1.753 0-.584-.227-.565-4.5.365m-226 2.11c.995 1.1 2.186 2 2.645 2 .46 0 .065-.9-.877-2s-2.132-2-2.645-2c-.513 0-.118.9.877 2m3-1c.34.55 1.068 1 1.618 1s.722-.45.382-1c-.34-.55-1.068-1-1.618-1s-.722.45-.382 1m57.815.651c1.316 1.558 1.491 2.351.638 2.878-.647.4-1.569.107-2.049-.651-.481-.758-.878-.928-.884-.378-.005.55 1.082 2.35 2.417 4 2.377 2.939 2.457 2.959 3.906 1.011 1.496-2.01 1.324-3.511-.402-3.511-.518 0-.941.675-.941 1.5s-.45 1.5-1 1.5c-1.547 0-1.181-2.605.569-4.057 1.335-1.108 1.919-.864 3.91 1.627 1.288 1.612 2.682 2.592 3.098 2.18.416-.412.231-.75-.41-.75-.642 0-1.167-.471-1.167-1.048 0-.915-4.751-5.952-5.615-5.952-.177 0-.035.787.316 1.75.559 1.532.337 1.501-1.781-.25l-2.42-2 1.815 2.151m119.352-.984c-.367.366-.667 1.131-.667 1.7 0 .626.466.567 1.183-.15.651-.651.951-1.416.667-1.7-.284-.285-.817-.217-1.183.15m57.814.995c-1.206 1.206-1.862 1.34-2.387.489-.734-1.186-3.882 1.558-5.563 4.849-.421.825.358.256 1.731-1.265 1.413-1.565 3.119-2.526 3.93-2.215.789.303 2.263-.365 3.276-1.485 2.204-2.435 1.384-2.744-.987-.373M391 234c-2.35.753-2.302.807.809.9 1.972.06 3.059-.304 2.691-.9-.34-.55-.704-.955-.809-.9-.105.055-1.316.46-2.691.9m-5.985.781c.043 1.984 1.715 3.365 2.283 1.886.317-.826-.071-1.75-.861-2.053-.79-.303-1.43-.228-1.422.167M178 236c.825.533 1.95.969 2.5.969s.325-.436-.5-.969c-.825-.533-1.95-.969-2.5-.969s-.325.436.5.969m175-.167c0 .459.337 1.166.75 1.572.413.406 1.278 2.169 1.924 3.917.849 2.297 1.195 2.616 1.25 1.151.042-1.116-.583-2.969-1.389-4.119-.805-1.15-1.18-2.375-.833-2.723.347-.347.106-.631-.535-.631-.642 0-1.167.375-1.167.833m27.774 1.171c4.246 2.588 5.636 2.585 1.726-.004-1.65-1.093-3.45-1.988-4-1.99-.55-.001.473.896 2.274 1.994M164 236.409c0 .19.675.906 1.5 1.591.865.718 1.5.815 1.5.229 0-.558-.675-1.274-1.5-1.591-.825-.316-1.5-.419-1.5-.229m209.5 2.257c-1.758 1.409-1.778 1.526-.168.969 1.007-.349 2.245-.635 2.75-.635.505 0 .918-.45.918-1 0-1.416-1.182-1.191-3.5.666m29.778 1.584c-1.499 1.938-2.442 3.75-1.952 3.75.244 0 1.181-1.125 2.082-2.5 1.686-2.573 1.592-3.476-.13-1.25M22.158 242c0 1.375.227 1.938.504 1.25.278-.687.278-1.812 0-2.5-.277-.687-.504-.125-.504 1.25M375 241c0 .55.45 1 1 1s1-.45 1-1-.45-1-1-1-1 .45-1 1m-194 1c0 .55.45 1 1 1s1-.45 1-1-.45-1-1-1-1 .45-1 1m184.441 1.574c-1.067.866-1.328 1.258-.579.872.753-.389 1.739-.092 2.206.663.6.971.795.72.675-.872-.093-1.23-.212-2.237-.265-2.237-.053 0-.969.708-2.037 1.574M370 243c-1.828 1.181-.249 1.181 2.5 0 1.319-.567 1.489-.878.5-.914-.825-.031-2.175.381-3 .914m-126.595.845c.451.73-.044 1.155-1.346 1.155-1.132 0-2.059.45-2.059 1s.45 1 1 1 1 .73 1 1.622c0 1.398-.234 1.433-1.687.25-1.485-1.208-1.605-1.153-1 .46.378 1.007.687 2.205.687 2.661 0 .457.787.698 1.75.536.963-.162 1.616-.862 1.452-1.555-.164-.694.147-2.536.69-4.095.686-1.967.653-3.042-.106-3.511-.657-.406-.81-.215-.381.477M444.5 244c.34.55.816 1 1.059 1s.441-.45.441-1-.477-1-1.059-1-.781.45-.441 1m-271.289 1.399c.709.77 1.447 1.25 1.639 1.067.593-.564-.91-2.466-1.948-2.466-.54 0-.401.63.309 1.399m222.868.184c.048 1.165.285 1.402.604.605.289-.722.253-1.585-.079-1.917-.332-.332-.568.258-.525 1.312m-271.794 6.667c-13.272 45.866-4.752 97.103 22.978 138.172 5.615 8.317 13.736 18.344 18.378 22.693 4.736 4.436 8.695 3.989 11.811-1.333 3.634-6.206 5.894-6.92 12.018-3.797l3.893 1.984 7.555-5.734c13.595-10.32 18.111-11.665 23.752-7.075.775.631 3.393.006 7.76-1.854 6.24-2.657 6.558-2.953 5.994-5.585-.393-1.832.115-4.143 1.49-6.781 2.571-4.933 2.576-5.555.086-10.44-1.1-2.158-2-4.707-2-5.664 0-5.778-3.518-8.16-17.5-11.845-4.4-1.16-12.05-3.807-17-5.882-17.225-7.221-19.965-7.918-41.955-10.683-6.575-.826-12.137-1.685-12.36-1.907-.598-.598 22.268-11.519 24.117-11.519.869 0 1.858-.45 2.198-1 .34-.55.142-1-.44-1-1.952 0-19.261-8.979-25.945-13.46-7.27-4.873-17.402-14.341-23.615-22.066-2.2-2.736-4.338-5.124-4.75-5.307-2.839-1.262 1.323-1.944 15.5-2.538 8.938-.374 17.825-.887 19.75-1.139 1.925-.252 5.75-.715 8.5-1.028 6.743-.769 17.046-3.41 19.069-4.889 4.758-3.479-44.498-27.573-56.37-27.573-.449 0-1.76 3.262-2.914 7.25m52.289-5.583c-.352.917-.287 2.019.143 2.449.431.43.848-.32.927-1.667.169-2.861-.175-3.112-1.07-.782m9.426-.608c0 .582.412.805.915.494.503-.311 1.116 0 1.363.691.246.691.834.894 1.306.452.472-.443.196-1.223-.613-1.735-1.948-1.232-2.971-1.198-2.971.098m212.212.973c-1.791 2.868-1.473 3.786.39 1.126.881-1.258 1.427-2.463 1.212-2.677-.214-.215-.935.483-1.602 1.551M439.5 246c-.34.55.11 1 1 1s1.34-.45 1-1c-.34-.55-.79-1-1-1-.21 0-.66.45-1 1m-194.917 1.643c-.346.904-.394 1.879-.107 2.167.288.288.524-.092.524-.843 0-1.061.268-1.099 1.196-.171.929.929.761 1.518-.75 2.633-1.56 1.151-1.698 1.688-.696 2.704 1.007 1.021 1.25.948 1.25-.374 0-.903.52-1.962 1.155-2.354.634-.393.889-.286.565.238-.323.524-.175 1.606.331 2.405 1.624 2.567 1.13-1.797-.577-5.098-1.764-3.412-2.036-3.535-2.891-1.307M361 247.259c0 .693.9 1.822 2 2.509 1.1.687 2 1.02 2 .74 0-.279-.9-1.408-2-2.508-1.216-1.216-2-1.506-2-.741m5.5.741c-.34.55-.141 1 .441 1s1.059-.45 1.059-1-.198-1-.441-1-.719.45-1.059 1m68.058-.093c-.309.498.34.671 1.441.383 2.335-.611 2.63-1.29.56-1.29-.793 0-1.693.408-2.001.907m8.521.676c.048 1.165.285 1.402.604.605.289-.722.253-1.585-.079-1.917-.332-.332-.568.258-.525 1.312m109 0c.048 1.165.285 1.402.604.605.289-.722.253-1.585-.079-1.917-.332-.332-.568.258-.525 1.312M187.362 250.5c.367.956-.017 1.5-1.06 1.5-.899 0-1.334.302-.965.67.368.369.021 1.661-.772 2.872-1.329 2.027-1.21 2.423 1.496 5.017 1.617 1.548 2.939 2.38 2.939 1.849 0-.532-.9-1.615-2-2.408-2.43-1.751-2.466-2.863-.182-5.595 2.546-3.045 4.417-3.335 6.326-.982.926 1.142 1.981 1.781 2.344 1.42.363-.362-.357-1.828-1.601-3.257-1.7-1.956-2.481-2.289-3.15-1.343-.71 1.004-.992 1.005-1.396.007-.729-1.795-2.67-1.549-1.979.25m243.43-.824c.967.388 1.01.858.171 1.869-.828.997-.827 1.821.006 3.153.977 1.564 1.04 1.488.472-.573-.487-1.764-.331-2.175.606-1.596.878.543 1.013.377.443-.544-.61-.989-.333-1.154 1.096-.652 1.856.651 1.855.626-.027-.831-1.068-.826-2.418-1.466-3-1.423-.583.043-.478.312.233.597m-4.228 2.617c.376.986.935 1.541 1.243 1.233.308-.307.001-1.114-.683-1.793-.988-.98-1.102-.865-.56.56m-7.458 1.592c-2.332 1.793-2.216 4.131.203 4.1.727-.01.618-.378-.28-.946-.809-.512-1.259-1.104-1-1.316.259-.213 1.584-1.137 2.944-2.055 1.359-.917 2.034-1.658 1.5-1.646-.535.012-2.05.851-3.367 1.863m16.909-1.194c.035 1.845 1.953 3.908 1.97 2.118.008-.93-.435-1.969-.985-2.309-.55-.34-.993-.254-.985.191m3.485.309c.34.55.816 1 1.059 1s.441-.45.441-1-.477-1-1.059-1-.781.45-.441 1m6.618 6.5c-10.458 25.405-20.513 39.769-38.063 54.375l-5.942 4.945 13.943.718c7.669.395 13.944 1.12 13.944 1.61 0 3.06-31.615 20.067-47.161 25.369-12.629 4.308-30.325 9.483-32.426 9.483-3.777 0-5.567 1.942-3.936 4.27 5.59 7.982-2.808 18.891-11.727 15.234-2.316-.95-2.401 3.336-.153 7.684.937 1.811 1.367 4.242 1.04 5.875-.522 2.611-.148 2.977 5.957 5.834l6.515 3.049 3.68-1.973c5.781-3.098 9.178-1.819 21.971 8.276 6.001 4.735 6.395 4.89 9.5 3.735 4.223-1.571 10.7-2.867 10.446-2.091-.639 1.955 6.043 9.953 8.65 10.353 3.689.567 17.202-14.277 25.865-28.411 3.147-5.134 6.072-9.785 6.5-10.335.678-.871 2.081-3.881 8.853-19 11.49-25.652 15.509-68.886 8.831-95-.844-3.3-1.863-7.35-2.264-9-.694-2.852-.893-2.605-4.023 5M391 253.383c0 .211.901.619 2.001.907 1.101.288 1.75.115 1.441-.383-.538-.871-3.442-1.313-3.442-.524m162.079 1.2c.048 1.165.285 1.402.604.605.289-.722.253-1.585-.079-1.917-.332-.332-.568.258-.525 1.312m-311.515.71c.376.986.935 1.541 1.243 1.233.308-.307.001-1.114-.683-1.793-.988-.98-1.102-.865-.56.56m34.333.207c-.074.55-.069 1.371.01 1.825.079.454-.881.537-2.132.185-1.612-.454-1.872-.363-.893.315 1.711 1.184-2.168 2.734-4.003 1.6-.699-.432-.95-.167-.65.686.665 1.888 5.91 1.392 7.063-.668.684-1.223 1.817-1.489 4.559-1.068 3.641.559 3.643.557.649-.558-1.65-.614-3.331-1.612-3.735-2.217-.441-.661-.788-.701-.868-.1m136.916.183c.721.289 1.584.253 1.916-.079.332-.332-.258-.568-1.312-.525-1.165.048-1.402.285-.604.604m15.558 1.567c-.42 1.238-.663 2.779-.541 3.425.123.646-.239 1.46-.803 1.809-1.491.921-1.258 2.516.366 2.516 2.007 0 2.859-2.985 1.374-4.814-1.06-1.305-1.006-1.463.327-.965 1.247.467 1.494.072 1.133-1.812-.571-2.986-.887-3.013-1.856-.159m11.71-.401c-1.633 3.052-1.295 3.902.521 1.309.881-1.258 1.368-2.522 1.081-2.808-.287-.287-1.007.388-1.602 1.499M196.5 257c.34.55.816 1 1.059 1s.441-.45.441-1-.477-1-1.059-1-.781.45-.441 1m54.013.583c.352 1.422.035 2.084-.999 2.084-.832 0-1.514-.6-1.514-1.334 0-.733-.44-1.333-.979-1.333-1.24 0 .851 4.823 3.227 7.444 3.033 3.346 4.125.571 1.781-4.525-1.118-2.43-1.8-3.481-1.516-2.336m152.712-.155c-1.801.654-3.032 1.431-2.737 1.727.725.724 7.512-1.444 7.512-2.4 0-.926-.609-.84-4.775.673m-118.412.255c.721.289 1.584.253 1.916-.079.332-.332-.258-.568-1.312-.525-1.165.048-1.402.285-.604.604m129 0c.721.289 1.584.253 1.916-.079.332-.332-.258-.568-1.312-.525-1.165.048-1.402.285-.604.604m-394.734 1.9c.048 1.165.285 1.402.604.605.289-.722.253-1.585-.079-1.917-.332-.332-.568.258-.525 1.312M244 259.309c0 .72.669 2.182 1.486 3.25 1.36 1.776 1.394 1.664.402-1.309-1.132-3.393-1.888-4.171-1.888-1.941m-48.403 1.191c.418 1.1.792 3.199.831 4.665.048 1.78.428 2.369 1.146 1.774.646-.537 1.542-.423 2.25.285.901.901 1.176.779 1.176-.524 0-.935-.675-1.7-1.5-1.7s-1.5-.589-1.5-1.309-.712-2.182-1.582-3.25c-1.558-1.913-1.57-1.912-.821.059m3.485.75c.681 1.512 1.617 2.75 2.079 2.75 1.338 0 .99-.923-1.24-3.292l-2.078-2.208 1.239 2.75m78.123-.625c-1.403 1.503-.75 1.644 2.222.48 1.489-.584 1.601-.88.495-1.305-.788-.302-2.01.069-2.717.825M406 260c1.219.788 1.09.972-.691.985-1.205.008-2.419.384-2.697.834-.279.451.82.624 2.441.387 3.134-.46 4.168-3.217 1.197-3.191-1.496.013-1.532.157-.25.985m29.667-.333c-.367.366-.628 1.829-.581 3.25.084 2.536.102 2.53.967-.367.909-3.043.775-4.044-.386-2.883M190 260.409c0 .19.675.906 1.5 1.591.865.718 1.5.815 1.5.229 0-.558-.675-1.274-1.5-1.591-.825-.316-1.5-.419-1.5-.229m59.032.119c.054 1.649 2.906 4.867 3.652 4.121.388-.387-.283-1.692-1.49-2.899-1.206-1.207-2.18-1.757-2.162-1.222m33.409 1.027c-1.83 1.467-1.798 1.487.559.365 3.061-1.458 3.628-1.92 2.358-1.92-.537 0-1.849.7-2.917 1.555m97.118-.677c.517.474 2.741 1.104 4.941 1.4 2.2.296 3.435.317 2.744.045-.691-.272-1.075-.793-.852-1.158.222-.366-1.436-.774-3.685-.906-2.334-.138-3.686.128-3.148.619m174.52.705c.048 1.165.285 1.402.604.605.289-.722.253-1.585-.079-1.917-.332-.332-.568.258-.525 1.312m-291.329.989c-1.512.821-2.75 1.703-2.75 1.96 0 .966 1.581.361 4-1.532 2.972-2.325 2.527-2.477-1.25-.428m131.063-.889c.721.289 1.584.253 1.916-.079.332-.332-.258-.568-1.312-.525-1.165.048-1.402.285-.604.604M374 263c0 .55.477 1 1.059 1s.781-.45.441-1-.816-1-1.059-1-.441.45-.441 1m17 1c-3.374.71-3.392.737-.5.75 1.65.007 4.35-.33 6-.75 4.15-1.056-.483-1.056-5.5 0m-201 .882c0 .55.45 1.278 1 1.618.55.34 1 .168 1-.382s-.45-1.278-1-1.618c-.55-.34-1-.168-1 .382m3.5.118c-.34.55-.141 1 .441 1s1.059-.45 1.059-1-.198-1-.441-1-.719.45-1.059 1m68.5 1.121c-1.925 1.032-2.959 1.877-2.297 1.877 1.865.003 6.297-2.221 6.297-3.159 0-.461-.113-.784-.25-.716-.137.067-1.825.966-3.75 1.998m121.813-1.438c.721.289 1.584.253 1.916-.079.332-.332-.258-.568-1.312-.525-1.165.048-1.402.285-.604.604m-156.378 1.212c.305.493-.142 1.162-.993 1.489-.885.34-1.285.171-.935-.395 1.485-2.403-1.58-.695-3.439 1.915-2.688 3.775-2.697 6.165-.01 2.75 1.131-1.439 2.369-2.535 2.75-2.437 1.657.429 5.163-1.455 4.551-2.445-.461-.746.549-.888 3.236-.456 2.658.427 3.426.322 2.405-.329-1.901-1.212-8.305-1.29-7.565-.092M376 265.787c0 .433.91.856 2.022.94 1.112.083 1.76-.271 1.441-.788-.703-1.136-3.463-1.258-3.463-.152m52.171 1.505c-.951 1.147-1.041 2.116-.317 3.406.934 1.664 1.061 1.673 1.663.11 1.167-3.026.245-5.435-1.346-3.516m5.559-.649c-.286.471.108 1.437.875 2.146 1.546 1.429 1.842.464.505-1.646-.473-.746-1.094-.971-1.38-.5M18.158 269c0 1.375.227 1.938.504 1.25.278-.687.278-1.812 0-2.5-.277-.687-.504-.125-.504 1.25m184.301-.933c-.363.586-.445 1.281-.183 1.543s.743-.218 1.069-1.067c.676-1.762.1-2.072-.886-.476m33.902-.302c-.811.523-.684 1.158.44 2.202 1.404 1.304 1.502 1.264.878-.361-.534-1.393-.329-1.686.862-1.229.898.345 1.303.18.952-.388-.721-1.168-1.574-1.228-3.132-.224m-43.279 2.485c.681 1.512 1.617 2.75 2.079 2.75 1.338 0 .99-.923-1.24-3.292l-2.078-2.208 1.239 2.75m71.731-1.567c.721.289 1.584.253 1.916-.079.332-.332-.258-.568-1.312-.525-1.165.048-1.402.285-.604.604m290.382 1.817c.02 1.65.244 2.204.498 1.231.254-.973.237-2.323-.037-3-.274-.677-.481.119-.461 1.769M204 270.941c0 1.626-.684 2.091-3.25 2.209-3.025.139-3.06.179-.5.566 1.512.229 2.75.837 2.75 1.35 0 .514.498.934 1.107.934s.848-.675.531-1.5c-.316-.825-.139-1.5.393-1.5 1.275 0 1.251-2.708-.031-3.5-.55-.34-1 .309-1 1.441m56-.882c0 .582.45.781 1 .441s1-.816 1-1.059-.45-.441-1-.441-1 .477-1 1.059m163.245 3.441c.349 1.826.044 2.504-1.134 2.515-1.405.014-1.419.139-.111.981 1.322.851 1.297 1.325-.203 3.985-.937 1.66-1.387 3.016-1 3.013.386-.004 1.491-1.39 2.453-3.081 1.95-3.427 2.365-9.913.633-9.913-.651 0-.917 1.041-.638 2.5M253 273.5c-.694.837-.803 1.5-.245 1.5.55 0 1.56-.675 2.245-1.5.694-.837.803-1.5.245-1.5-.55 0-1.56.675-2.245 1.5m8.5-.5c-.34.55-.168 1 .382 1s1.278-.45 1.618-1c.34-.55.168-1-.382-1s-1.278.45-1.618 1m-30.25.662c-1.43.577-1.699 2.338-.357 2.338.491 0 1.152-.675 1.469-1.5.316-.825.477-1.464.357-1.421-.121.043-.781.306-1.469.583M428.5 274c-.34.55-.396 1.359-.125 1.798.271.439.03 1.451-.535 2.25-.839 1.184-.925 1.129-.466-.298 1.089-3.385-.303-1.7-2.271 2.75-2.028 4.586-4.313 5.734-5.87 2.951-.715-1.277-1.081-1.079-2.086 1.126-1.115 2.448-1.052 2.631.748 2.161 1.141-.299 2.814.274 3.983 1.363 1.109 1.033 2.268 1.472 2.575.974.308-.497-.006-1.094-.697-1.327-1.538-.518.799-3.796 2.616-3.669.709.05.663.266-.122.583-.687.278-1.25.987-1.25 1.576 0 .59.87.285 1.933-.677 1.062-.962 1.705-2.341 1.427-3.065-.277-.723.203-2.684 1.068-4.356.864-1.672 1.572-3.513 1.572-4.09 0-1.334-1.686-1.368-2.5-.05m-222.5.882c0 .55.45 1.278 1 1.618.55.34 1 .168 1-.382s-.45-1.278-1-1.618c-.55-.34-1-.168-1 .382m-13.543 1.049c.938 1.517-1.599 2.452-2.569.947-.754-1.171-1.022-1.171-1.776 0-.489.758-1.292 1.129-1.786.824-.494-.306-.897.261-.897 1.258 0 1.066.529 1.61 1.285 1.319.707-.271 1.286-.85 1.286-1.286 0-.437 1.573-.648 3.495-.469 3.177.295 3.401.15 2.464-1.6-.566-1.058-1.265-1.924-1.553-1.924-.288 0-.265.419.051.931m55.415.738c-1.244 1.512-1.072 1.609 1.839 1.032 1.766-.349 3.48-.2 3.809.332.329.532 1.134.953 1.789.935.655-.017.315-.694-.757-1.504-1.071-.811-2.815-1.198-3.875-.862-1.268.403-1.693.233-1.243-.495 1.049-1.698-.019-1.314-1.562.562m8.568-.571c-.866 1.4 1.316 1.901 2.431.558.828-.999.723-1.323-.431-1.323-.84 0-1.741.344-2 .765M17.286 280.5c.008 2.75.202 3.756.432 2.236.229-1.52.223-3.77-.014-5-.237-1.23-.425.014-.418 2.764m225.734-3.024c-.789.95-.865 1.524-.201 1.524 1.208 0 2.617-1.897 1.924-2.591-.252-.251-1.027.229-1.723 1.067m-17.02.465c0 .518.445 1.216.989 1.552.566.35.734-.051.393-.941-.665-1.732-1.382-2.049-1.382-.611m193.564 1.766c-.542 1.425-.428 1.54.56.56.684-.679.991-1.486.683-1.793-.308-.308-.867.247-1.243 1.233m-239.682.043c-.066.413-.047 1.143.04 1.623.088.48-.591.584-1.509.232-2.755-1.057-11.413.478-11.413 2.024 0 .904 1.106 1.331 3.25 1.253l3.25-.119-3-.686c-2.846-.651-2.756-.725 1.747-1.442 2.611-.416 5.195-.48 5.742-.142.547.339 1.786.155 2.753-.408.967-.564 1.308-1.045.758-1.07-.55-.025-.325-.482.5-1.015 1.282-.828 1.246-.972-.25-.985-.963-.008-1.803.322-1.868.735m36.716 1.511c.536 2.371.361 2.676-1.237 2.156-1.385-.451-1.514-.358-.504.364.877.626 1.104 1.766.643 3.219-.438 1.381-.336 2.017.264 1.646 1.52-.94 2.339-6.656 1.217-8.494-.772-1.264-.862-1.004-.383 1.109m-21.566-.702c.017.517.692 1.815 1.5 2.882.807 1.068 1.454 1.518 1.436 1-.017-.517-.692-1.815-1.5-2.882-.807-1.068-1.454-1.518-1.436-1m45.571.274c-.283.459.12.834.897.834s1.18-.375.897-.834c-.283-.458-.687-.833-.897-.833-.21 0-.614.375-.897.833m185.397.608c0 .793.408 1.693.907 2.001.498.309.671-.34.383-1.441-.611-2.335-1.29-2.63-1.29-.56m-176.244.223c1.88.758.451 2.336-1.538 1.698-1.423-.456-1.466-.373-.252.486 1.016.719 1.858.713 2.739-.019 1.429-1.185.807-2.871-1.014-2.75-.852.056-.834.223.065.585m306.53 3.836c.008 2.75.202 3.756.432 2.236.229-1.52.223-3.77-.014-5-.237-1.23-.425.014-.418 2.764m-262.473-2.817c.721.289 1.584.253 1.916-.079.332-.332-.258-.568-1.312-.525-1.165.048-1.402.285-.604.604M160.755 285.5c.523 2.736.995 2.954 3.245 1.5 1.282-.828 1.246-.972-.25-.985-.963-.008-1.75-.69-1.75-1.515s-.388-1.5-.861-1.5c-.474 0-.647 1.125-.384 2.5m14.058-1.817c.721.289 1.584.253 1.916-.079.332-.332-.258-.568-1.312-.525-1.165.048-1.402.285-.604.604m61.802 1.782c-1.876 2.862-1.993 3.535-.615 3.535.55 0 1-.643 1-1.429 0-.785.707-2.135 1.571-3 .865-.864 1.141-1.571.615-1.571s-1.683 1.109-2.571 2.465m-87.18-.36c-.304.492.824.895 2.506.895s3.059-.337 3.058-.75c-.001-1.081-4.906-1.209-5.564-.145M157 286.5c0 2.357-2.397 3.609-3.167 1.653-.183-.465-2.808-1.129-5.833-1.474-3.669-.419-5.001-.309-4 .331.825.528 2.963.966 4.75.975 2.234.01 3.25.49 3.25 1.534 0 1.738 4.941 1.007 6.235-.923 1.077-1.607.924-4.596-.235-4.596-.55 0-1 1.125-1 2.5m61.584-.859c-.527 1.373-.38 1.435.893.378 1.735-1.44 1.916-2.019.63-2.019-.491 0-1.176.739-1.523 1.641m65.857-.173c-1.067.808-1.434 1.483-.813 1.5.62.018 1.687-.643 2.372-1.468 1.581-1.905.935-1.918-1.559-.032m10.117-.561c-.309.498.34.671 1.441.383 2.335-.611 2.63-1.29.56-1.29-.793 0-1.693.408-2.001.907m-161.594 3.042c3.463 4.864 15.373 15.124 16.131 13.897a1.305 1.305 0 0 1 1.793-.415c.612.378 1.112.451 1.112.163 0-.288-.954-1.034-2.121-1.659-1.648-.882-1.951-.861-1.36.095.495.801.276 1.054-.63.725-.764-.278-1.265-1.045-1.114-1.704.151-.66-.136-.946-.637-.636-1.126.696-3.376-1.843-2.452-2.767.892-.893-2.881-3.698-4.305-3.201-.616.214-2.416-1.363-4-3.505-3.328-4.499-5.569-5.42-2.417-.993m3.24-.994c.671 1.075 1.36 1.814 1.532 1.643.592-.593-.954-3.598-1.851-3.598-.496 0-.353.88.319 1.955m2.609-1.272c.721.289 1.584.253 1.916-.079.332-.332-.258-.568-1.312-.525-1.165.048-1.402.285-.604.604m162.845-.008c-.362.362-.651 1.146-.643 1.742.009.595.424.437.924-.352.691-1.092 1.144-.614 1.894 2 .888 3.093.996 3.173 1.077.807.091-2.657-2.041-5.408-3.252-4.197M239 286.976c0 .628.416.885.924.571.509-.314 1.138.118 1.399.96.366 1.185.44 1.15.325-.155-.165-1.883-2.648-3.173-2.648-1.376m47.507.013c-.35.566.051.734.941.393 1.732-.665 2.049-1.382.611-1.382-.518 0-1.216.445-1.552.989M139.5 288c.34.55 1.293 1 2.118 1s1.222-.45.882-1c-.34-.55-1.293-1-2.118-1s-1.222.45-.882 1m55.5 1c0 1.1.45 2 1 2s1-.9 1-2-.45-2-1-2-1 .9-1 2m83.6-1.162c-.318.514.317 1.169 1.41 1.454 1.094.286 2.286 0 2.649-.636.364-.636.293-.822-.157-.415-.45.408-1.382.274-2.071-.298-.758-.629-1.481-.671-1.831-.105M175.5 289c-.34.55.084 1 .941 1s1.559-.45 1.559-1-.423-1-.941-1-1.219.45-1.559 1m112.339.918c-10.554 3.375-18.76 8.842-30.204 20.124l-10.864 10.71 15.864 10.472c8.726 5.76 16.431 10.795 17.123 11.189.788.447 1.625-.151 2.238-1.599.868-2.052.952-1.918.741 1.186-.377 5.561 2.607 4.673 3.363-1l.6-4.5.15 4.75c.152 4.799 2.441 6.762 3.788 3.25.317-.825 1.145-1.5 1.84-1.5.696 0 6.16-2.982 12.143-6.627a6605.12 6605.12 0 0 1 17.629-10.701c6.135-3.702 6.75-4.372 6.75-7.356v-3.282l-3.75 2.097a586.75 586.75 0 0 0-7.786 4.453C312.293 324.602 293.12 333 291.401 333c-.865 0 .034-2.799 2.648-8.25 6.208-12.942 8.492-29.021 4.939-34.769-1.563-2.53-13.793 10.635-18.449 19.862-.927 1.839-1.899 3.131-2.158 2.871-1.093-1.093 6.539-12.439 15.448-22.964 1.814-2.144 1.183-2.126-5.99.168M414.5 289c-.34.55-.141 1 .441 1s1.059-.45 1.059-1-.198-1-.441-1-.719.45-1.059 1m-196.426 1.411c-.691.833-.788 1.648-.236 1.989.514.318 1.169-.317 1.455-1.411.616-2.357.358-2.479-1.219-.578m198.49.296c-.542 1.425-.428 1.54.56.56.684-.679.991-1.486.683-1.793-.308-.308-.867.247-1.243 1.233m2.436-1.121c0 .558.469 1.483 1.042 2.056.724.724.513 1.474-.687 2.45-1.552 1.263-1.653 1.202-.983-.592.566-1.517.466-1.721-.416-.846-.769.762-.846 1.721-.226 2.828.825 1.475 1.148 1.353 2.702-1.019 1.618-2.469 1.632-2.828.167-4.293-.88-.879-1.599-1.142-1.599-.584m-207.333 1.081c-.367.366-.653 1.379-.637 2.25.025 1.3.221 1.257 1.092-.242 1.077-1.852.765-3.228-.455-2.008m2.333.274c0 .518.445 1.216.989 1.552.566.35.734-.051.393-.941-.665-1.732-1.382-2.049-1.382-.611m57.742.973c-3.627 2.325-4.848 3.672-1.971 2.175 1.249-.65 2.824-.864 3.5-.475.676.389.895.338.488-.112-.408-.45-.24-1.422.372-2.16 1.417-1.708 1.018-1.612-2.389.572m-109.492-.198c1.512.229 3.988.229 5.5 0s.275-.416-2.75-.416-4.262.187-2.75.416m20.5.946c.688.278 1.813.278 2.5 0 .688-.277.125-.504-1.25-.504s-1.937.227-1.25.504m17 0c.688.278 1.813.278 2.5 0 .688-.277.125-.504-1.25-.504s-1.937.227-1.25.504m144.481 2.24c-2.633 3.56-2.729 4.098-.731 4.098.825 0 1.5-.863 1.5-1.917s.517-2.089 1.15-2.3c.633-.211.961-.949.731-1.641-.256-.768-1.287-.084-2.65 1.76m-203.874-.402c.825.825 1.812 1.5 2.194 1.5.382 0 .134-.675-.551-1.5s-1.672-1.5-2.194-1.5-.274.675.551 1.5m91.722 1.083c.048 1.165.285 1.402.604.605.289-.722.253-1.585-.079-1.917-.332-.332-.568.258-.525 1.312m3.521.017c-.356.927-.422 1.911-.147 2.186.275.275.791-.259 1.147-1.186.356-.927.422-1.911.147-2.186-.275-.275-.791.259-1.147 1.186m177.42-.124c-.789.95-.865 1.524-.201 1.524 1.208 0 2.617-1.897 1.924-2.591-.252-.251-1.027.229-1.723 1.067m-200.251 1.48c-.691 2.461-.278 3.886.812 2.797.319-.32.423-1.632.229-2.917l-.351-2.336-.69 2.456M239 298.167c0 1.191.127 1.979.283 1.75.156-.229.886-1.205 1.622-2.167 1.147-1.498 1.106-1.75-.283-1.75-.997 0-1.622.835-1.622 2.167m26.507-1.178c-.35.566.051.734.941.393 1.732-.665 2.049-1.382.611-1.382-.518 0-1.216.445-1.552.989M347.158 298c0 1.375.227 1.938.504 1.25.278-.687.278-1.812 0-2.5-.277-.687-.504-.125-.504 1.25m-281.88 5.641a2057.071 2057.071 0 0 0-5.893 10.324c-1.822 3.227-2.535 3.583-10.42 5.204-4.656.957-9.702 1.76-11.215 1.785-4.221.07-3.338 1.9 4.849 10.046l7.538 7.5-.605 6c-.332 3.3-.878 8.812-1.212 12.249l-.609 6.248 10.714-5.053 10.713-5.054 9.744 4.555c12.694 5.933 12.04 6.226 10.496-4.695-1.979-13.999-2.24-13.094 6.309-21.878 4.553-4.679 7.304-8.246 6.75-8.751-.516-.469-5.383-1.669-10.817-2.668-10.833-1.991-11.874-2.667-15.6-10.127-1.286-2.574-3.343-6.45-4.571-8.613l-2.233-3.932-3.938 6.86M303 298.071c0 .796.9 2.01 2 2.697 1.1.687 2 1.001 2 .699 0-.303-.9-1.517-2-2.697-1.424-1.529-2-1.73-2-.699M409.5 298c.34.55.816 1 1.059 1s.441-.45.441-1-.477-1-1.059-1-.781.45-.441 1m93.413.25c-.047.688-2.41 5.28-5.25 10.206l-5.163 8.956-6.5 1.253a798.94 798.94 0 0 0-11.736 2.362l-5.236 1.11 7.965 8.182c8.914 9.157 8.77 8.69 6.913 22.491-1.45 10.772-1.657 10.627 8.17 5.719 12.509-6.248 11.454-6.217 22.751-.662 5.521 2.714 10.21 4.763 10.42 4.552.211-.21-.207-5.558-.929-11.884l-1.311-11.501 7.246-7.595c3.986-4.177 7.247-8.119 7.247-8.759 0-.688-4.479-2.012-10.959-3.238l-10.96-2.075-5.512-10.184c-5.21-9.627-6.957-11.807-7.156-8.933m-293.291 2.5c.941 3.926 1.378 4.058 1.378.417 0-1.742-.459-3.167-1.019-3.167-.605 0-.751 1.117-.359 2.75m5.536-.75c0 1.375.227 1.938.504 1.25.278-.687.278-1.812 0-2.5-.277-.687-.504-.125-.504 1.25m21.928.5c.104 1.894 1.77 5.084 1.828 3.5.031-.825-.381-2.175-.914-3-.533-.825-.945-1.05-.914-.5m102.229.927c-1.296 1.476-.657 5.573.869 5.573.523 0 .658-.922.301-2.048-.358-1.126-.108-2.701.555-3.5 1.519-1.831-.12-1.855-1.725-.025m-127.12 2.073c.02 1.65.244 2.204.498 1.231.254-.973.237-2.323-.037-3-.274-.677-.481.119-.461 1.769m194.355-.599c.544 1.918.366 2.281-.884 1.801-1.084-.416-1.393-.155-1.008.849.653 1.701 2.342 1.947 2.342.342 0-.609.661-.853 1.468-.544.807.31 1.777.064 2.154-.547.416-.673.232-.83-.467-.397-1.521.939-1.487-.673.045-2.205.834-.834.859-1.2.083-1.2-.614 0-1.345.563-1.624 1.25-.382.943-.787.882-1.648-.25-.92-1.208-1.01-1.033-.461.901m-63.55-.019c0 .55.45 1.278 1 1.618.55.34 1 .168 1-.382s-.45-1.278-1-1.618c-.55-.34-1-.168-1 .382m-191.273 2.368c1.778 1.966 2.749 2.33 1.704.638-.378-.611-.111-1.468.594-1.904.812-.502.337-.735-1.3-.638-2.392.143-2.465.282-.998 1.904m84.359-1.25c-.031.825.381 2.175.914 3 1.181 1.828 1.181.249 0-2.5-.567-1.319-.878-1.489-.914-.5m66.744 1.25c-.222 1.238-.102 3.6.265 5.25.541 2.428.691 1.999.787-2.25.123-5.476-.361-6.857-1.052-3M556.32 309c0 3.575.182 5.038.403 3.25.222-1.788.222-4.712 0-6.5-.221-1.788-.403-.325-.403 3.25m-304.737 1c-3.238 3.3-5.554 6-5.149 6 .406 0 3.396-2.7 6.645-6 3.25-3.3 5.566-6 5.149-6-.418 0-3.408 2.7-6.645 6m109.236-2.719c-.881 1.771-2.132 5.799-2.779 8.952-.647 3.153-1.613 6.003-2.148 6.334-.597.369-.709-.446-.291-2.114.887-3.532-1.73-2.936-2.724.621-.572 2.048-1.362.997-.995-1.324.173-1.101-2.662-.915-3.364.221-.33.533.112 2.346.981 4.027 3.511 6.789-.612 15.629-8.664 18.581-.916.335-1.95 1.805-2.298 3.265a102.735 102.735 0 0 1-1.189 4.524c-.382 1.279-.132 1.727.793 1.418.743-.247 1.352-1.313 1.355-2.368.003-1.487.73-1.926 3.234-1.952 6.329-.067 14.853-11.094 18.139-23.466 3.721-14.014 3.691-24.234-.05-16.719m-204.378-.749c1.068.807 1.518 1.489 1 1.515-.517.025 1.241 1.181 3.907 2.568 2.666 1.388 5.047 2.323 5.291 2.079.244-.244-1.487-1.4-3.847-2.568-2.361-1.168-3.868-2.125-3.351-2.125.518-.001.068-.662-1-1.469-1.067-.808-2.391-1.468-2.941-1.468-.55 0-.126.66.941 1.468m57.638.051c.048 1.165.285 1.402.604.605.289-.722.253-1.585-.079-1.917-.332-.332-.568.258-.525 1.312m91.066 2.917c-.166 3.787-2.093 8.88-2.13 5.628-.012-1.107-.306-1.132-1.515-.128-.825.685-1.503 1.752-1.506 2.372-.004.621-.676 2.413-1.495 3.983-1.355 2.598-1.342 2.799.147 2.227 1.333-.511 1.414-.36.438.816-.993 1.198-.839 1.351.899.896 1.153-.301 1.873-.772 1.599-1.045-.273-.274.496-1.326 1.711-2.34 1.214-1.013 1.671-1.857 1.016-1.876-.655-.018-1.469.417-1.809.967-1.322 2.139-2.704.947-2.027-1.748.871-3.473 1.431-4.026 2.432-2.406 1.219 1.973 3.319-3.954 2.827-7.977-.4-3.269-.417-3.251-.587.631m95.597-1.229c-2.44 3.725.16 5.07 3.78 1.956 2.652-2.281 2.701-2.432.565-1.755-1.525.484-2.114.381-1.696-.296 1.329-2.151-1.238-2.059-2.649.095m-71.677.151c-.687.828-.78 1.636-.227 1.978.515.318 1.458-.052 2.097-.822.687-.828.78-1.636.227-1.978-.515-.318-1.458.052-2.097.822m5.034 1.659c-2.538 3.431-1.786 3.931 1.006.669l1.926-2.25-.597 2.641c-.329 1.456-.116 2.937.474 3.302.659.407.839.061.469-.904-.331-.86-.146-2.121.411-2.802.696-.851.615-1.601-.26-2.406-.991-.912-1.747-.526-3.429 1.75m7.651-2.392c-.962.252-1.75.923-1.75 1.491 0 .569.675.775 1.5.458.825-.316 1.5-.113 1.5.452 0 .566.45.75 1 .41 1.157-.715 1.367-3.557.25-3.384-.413.064-1.538.322-2.5.573M17.272 312c0 2.475.195 3.488.434 2.25.238-1.238.238-3.262 0-4.5-.239-1.238-.434-.225-.434 2.25m269.083 4.5c-.003 4.95.166 7.101.376 4.78.209-2.321.212-6.371.005-9-.206-2.629-.378-.73-.381 4.22M401 310c0 .55.45 1 1 1s1-.45 1-1-.45-1-1-1-1 .45-1 1m-191.842 2c0 1.375.227 1.938.504 1.25.278-.687.278-1.812 0-2.5-.277-.687-.504-.125-.504 1.25m21 0c0 1.375.227 1.938.504 1.25.278-.687.278-1.812 0-2.5-.277-.687-.504-.125-.504 1.25m5.216-.533c-.309.807-.37 2.044-.134 2.75s.666.045.956-1.467c.566-2.953.099-3.682-.822-1.283M339 313.927c0 1.059-.788 2.132-1.75 2.384-1.62.423-1.622.466-.031.573 1.156.078 1.514.647 1.096 1.738-.52 1.354-.267 1.317 1.531-.222 2.507-2.147 2.676-2.537.782-1.811-1.011.388-1.244-.148-.884-2.031.269-1.407.212-2.558-.127-2.558-.34 0-.617.867-.617 1.927m57.634-.075c-1.865 2.06-2.084 3.148-.634 3.148.55 0 1-.642 1-1.427 0-.784.788-1.582 1.75-1.773 1.119-.222 1.347-.6.634-1.05-.614-.387-1.852.109-2.75 1.102M355 314.5c-.707.852-1.06 1.773-.785 2.048.275.275 1.078-.196 1.785-1.048.707-.852 1.06-1.773.785-2.048-.275-.275-1.078.196-1.785 1.048m-142.39 2c.823 3.677 1.395 4.475 1.375 1.917-.009-1.054-.472-2.592-1.031-3.417-.741-1.095-.834-.691-.344 1.5m48.39-1.446c.825.563 3.075 1.867 5 2.898 1.925 1.03 4.406 2.701 5.513 3.711 4.772 4.355 5.94 5.049 4.438 2.637-1.183-1.9-1.131-2.699.383-5.874.963-2.02 1.566-3.859 1.34-4.086-.227-.226-1.167 1.18-2.09 3.124-1.873 3.947-2.715 4.288-4.697 1.899-.747-.9-3.315-2.475-5.706-3.5-4.797-2.056-6.489-2.383-4.181-.809m-29.684.696c.238.413.122 3.099-.258 5.971-.606 4.57-.505 5.068.812 4 1.275-1.034 1.38-.915.689.779-.449 1.1-.985 3.125-1.192 4.5-.207 1.375-.116 1.825.202 1 .317-.825 1.054-2.482 1.637-3.683.583-1.2.81-2.833.505-3.628-.305-.795-.027-2.016.617-2.714.924-1.001.778-1.13-.692-.61-1.659.587-1.791.275-1.204-2.853.43-2.294.276-3.512-.446-3.512-.607 0-.909.337-.67.75m102.215.543c-.428.986-.497 2.074-.155 2.417 1.016 1.015 1.835-.411 1.367-2.382-.414-1.747-.468-1.748-1.212-.035m14.928-.226c-.363.586-.445 1.281-.183 1.543s.743-.218 1.069-1.067c.676-1.762.1-2.072-.886-.476M173 316.393c0 .216.698.661 1.552.989.89.341 1.291.173.941-.393-.587-.951-2.493-1.406-2.493-.596m144 1.696c-2.154 1.762-2.196 1.897-.306.973 1.207-.59 2.471-1.52 2.809-2.067.903-1.461.297-1.196-2.503 1.094m-92.242-.513c-.378.378-.166 1.64.472 2.805.638 1.166 1.466 3.919 1.84 6.119l.68 4 .125-5.059c.119-4.83-1.661-9.322-3.117-7.865m18.701 1.491c-1.076 1.741.149 2.11 1.521.457.789-.95.865-1.524.201-1.524-.584 0-1.36.48-1.722 1.067M342 321c0 .55.477 1 1.059 1s.781-.45.441-1-.816-1-1.059-1-.441.45-.441 1m213.195 1.5c.02 1.65.244 2.204.498 1.231.254-.973.237-2.323-.037-3-.274-.677-.481.119-.461 1.769m-334.062 1.522-1.899 3.122 2.506 2.505c3.243 3.243 4.694 1.879 3.777-3.548-.904-5.351-2.061-5.899-4.384-2.079m114.946-1.807c-.043.943.933 2.205 2.171 2.805 1.909.925 2.009.892.662-.215-.873-.718-1.85-1.98-2.171-2.805-.473-1.216-.598-1.175-.662.215M18.195 324.5c.02 1.65.244 2.204.498 1.231.254-.973.237-2.323-.037-3-.274-.677-.481.119-.461 1.769m194.502.893c-.409 1.041-.508 2.129-.221 2.417.913.912 1.715-.583 1.333-2.482-.35-1.74-.404-1.737-1.112.065M237.659 327c-.975 1.65-1.606 3-1.404 3 .203 0 1.367-1.35 2.587-3 1.22-1.65 1.851-3 1.404-3-.448 0-1.612 1.35-2.587 3M334 325.437c0 .924.45 1.403 1 1.063.55-.34 1 .084 1 .941s-.45 1.559-1 1.559-1 .505-1 1.122c0 .776.464.738 1.5-.122.825-.685 1.5-1.81 1.5-2.5s-.675-1.815-1.5-2.5c-1.232-1.023-1.5-.945-1.5.437m9.975 1.128c-1.197 3.148-1.204 3.435-.088 3.435.487 0 1.084-1.35 1.326-3 .54-3.677.059-3.846-1.238-.435m3.025.353c0 2.135-.742 3.522-2.5 4.674-3.114 2.04-3.273 3.788-.258 2.831 1.993-.632 2.091-.529.878.933-.751.904-1.932 1.644-2.626 1.644-.693 0-1.503.926-1.799 2.057-.296 1.132-.236 1.905.134 1.718.369-.187 1.886-.949 3.371-1.695 3.951-1.983 6.757-12.752 3.8-14.58-.583-.36-1 .649-1 2.418m46.736-2.32c-.329.329-.326 1.307.007 2.173.469 1.224.174 1.412-1.319.843-1.388-.528-1.622-.428-.841.36 1.525 1.538 4.792.183 3.451-1.433-.559-.674-.721-1.521-.359-1.883.362-.362.433-.658.158-.658s-.769.269-1.097.598m3.264.284c0 .55.45 1.278 1 1.618.55.34 1 .168 1-.382s-.45-1.278-1-1.618c-.55-.34-1-.168-1 .382m11.75-.193c-.962.252-1.75.89-1.75 1.42 0 .579.795.536 2-.109 1.513-.81 3.087-2.504 1.75-1.884-.137.064-1.038.322-2 .573m-210.25 1.645c1.1.881 3.575 1.565 5.5 1.519l3.5-.083-3.5-.75c-1.925-.412-4.4-1.096-5.5-1.52l-2-.769 2 1.603m210.545 1.29c-5.243 3.723-5.086 4.037.455.908 6.021-3.402 6.218-3.555 4.417-3.446-.78.047-2.972 1.189-4.872 2.538m-113.481.083c-.542 1.425-.428 1.54.56.56.684-.679.991-1.486.683-1.793-.308-.308-.867.247-1.243 1.233m-106.751-.024c.721.289 1.584.253 1.916-.079.332-.332-.258-.568-1.312-.525-1.165.048-1.402.285-.604.604m25.811.856c-.343.893-.595 2.15-.561 2.793.035.642.495.09 1.022-1.227.527-1.318.779-2.574.56-2.793-.219-.219-.679.333-1.021 1.227m-33.811.144c.721.289 1.584.253 1.916-.079.332-.332-.258-.568-1.312-.525-1.165.048-1.402.285-.604.604m154.806 4.972c-3.675 4.044-5.197 5.111-6.157 4.313-.972-.806-1.808.006-3.506 3.406-2.589 5.184-3.774 5.647-13.956 5.463-7.498-.137-6.806-.349 4.551-1.396l6.051-.558 3.199-5.818c3.88-7.058 3.952-8.065.574-8.065-3.443 0-14.375 4.929-14.375 6.482 0 2.361-3.798 4.785-6.454 4.119-1.818-.456-3.661.109-6.516 1.998-2.189 1.449-4.634 2.383-5.432 2.077-.799-.306-1.988.089-2.643.878-1.164 1.403-2.196 1.386-10.705-.182-2.252-.415-3.25-.215-3.25.65 0 .928-1.223 1.059-4.75.511-2.613-.407-7.675-1.116-11.25-1.575-6.226-.801-6.162-.814 1.5-.299 13.302.895 13.795.883 14.216-.341.572-1.668-3.425-3.63-8.705-4.272-3.577-.435-4.744-1.078-5.74-3.161-1.36-2.844-11.492-7.885-15.849-7.885h-2.447l3.512 6.975c4.753 9.438 4.426 10.219-.534 1.275-4.648-8.38-5.637-8.699-9.983-3.212l-3.199 4.039 5.121 15.875c5.985 18.55 5.755 18.273 28.793 34.731 13.5 9.644 17.161 11.451 21.514 10.619 2.204-.421 22.068-14.402 26.004-18.302.832-.825 4.259-3.919 7.615-6.875 5.706-5.028 6.295-5.967 9.103-14.5 3.587-10.898 9.361-31.701 8.903-32.076-.178-.146-2.52 2.151-5.205 5.106m-140.869-3.993c.688.278 1.813.278 2.5 0 .688-.277.125-.504-1.25-.504s-1.937.227-1.25.504m22.28 1.282c-2.464 4.604 6.001 17.672 14.297 22.074 5.417 2.873 5.976 2.579 4.463-2.351-.905-2.949-2.008-4.112-5.266-5.553-3.434-1.519-4.335-2.54-5.41-6.128-1.304-4.353-4.839-9.986-6.267-9.986-.427 0-1.245.875-1.817 1.944M397 330c0 .55-.498 1-1.106 1-.608 0-2.407 1.095-3.997 2.433-2.771 2.332-2.805 2.461-.819 3.092 1.14.362 2.339.392 2.664.066.325-.325-.214-.591-1.198-.591-1.471 0-1.569-.265-.553-1.489.68-.819 1.623-1.25 2.096-.957.473.292 1.627-.365 2.565-1.46.937-1.095 2.144-1.72 2.681-1.388.541.334.658.089.262-.551-.876-1.419-2.595-1.521-2.595-.155m-221.75.689c.963.252 2.537.252 3.5 0 .963-.251.175-.457-1.75-.457s-2.713.206-1.75.457M554.158 332c0 1.375.227 1.938.504 1.25.278-.687.278-1.812 0-2.5-.277-.687-.504-.125-.504 1.25m-320.901 1.237c-.132 1.759.033 1.919.772.75 1.156-1.828 1.227-2.987.184-2.987-.433 0-.863 1.007-.956 2.237M167 333c-1.828 1.181-.249 1.181 2.5 0 1.319-.567 1.489-.878.5-.914-.825-.031-2.175.381-3 .914m58.651-.244c-.778 1.258.513 6.261 1.463 5.673 1.188-.733 1.138-6.429-.055-6.429-.518 0-1.151.34-1.408.756M173 334.201c0 .439 1.575.799 3.5.799s3.5-.176 3.5-.391c0-.214-1.575-.574-3.5-.799-1.925-.225-3.5-.049-3.5.391m9.813 1.482c.721.289 1.584.253 1.916-.079.332-.332-.258-.568-1.312-.525-1.165.048-1.402.285-.604.604m10.52 2.954c0 1.516 2.241 1.861 3.097.477.301-.488-.272-1.101-1.275-1.363-1.104-.289-1.822.06-1.822.886M388.5 338c.34.55.816 1 1.059 1s.441-.45.441-1-.477-1-1.059-1-.781.45-.441 1m-368.421 1.583c.048 1.165.285 1.402.604.605.289-.722.253-1.585-.079-1.917-.332-.332-.568.258-.525 1.312M383 340c-1.925 1.054-3.14 1.935-2.7 1.958 1.059.056 6.7-2.877 6.7-3.484 0-.654-.059-.632-4 1.526m-181.721.5c.124 1.118 1.485 2.551 3.086 3.25 3.398 1.483 4.74 1.61 2.635.25-1.276-.825-1.235-.972.281-.985.98-.008 2.051.686 2.379 1.542.329.857 1.238 1.312 2.021 1.012.783-.3 1.167-.132.855.373-.969 1.567.89 1.928 2.266.44 1.095-1.185.553-1.73-3.418-3.432-3.444-1.476-4.915-1.708-5.441-.859-.395.641-1.268.826-1.938.412-.939-.58-.907-.976.138-1.722 1.049-.749.974-.847-.328-.432-.927.296-1.927.001-2.221-.655-.295-.657-.436-.294-.315.806m25.721.441c0 .518.45 1.219 1 1.559.55.34 1-.084 1-.941s-.45-1.559-1-1.559-1 .423-1 .941M552.158 344c0 1.375.227 1.938.504 1.25.278-.687.278-1.812 0-2.5-.277-.687-.504-.125-.504 1.25M231.5 344c.34.55.816 1 1.059 1s.441-.45.441-1-.477-1-1.059-1-.781.45-.441 1m-210.421 1.583c.048 1.165.285 1.402.604.605.289-.722.253-1.585-.079-1.917-.332-.332-.568.258-.525 1.312m195.453 2.195c-.374.974-.073 1.26.925.877.813-.312 1.745-.137 2.07.389.325.526 1.352.94 2.282.921 1.295-.028 1.156-.333-.59-1.302-1.255-.697-2.043-1.506-1.75-1.798.292-.293-.125-.532-.926-.532s-1.706.65-2.011 1.445m79.468-.554c0 .427 1.8.776 4 .776s4-.178 4-.395c0-.217-1.8-.567-4-.776-2.2-.21-4-.032-4 .395m44.985 3.026c-.023 3.318-1.367 4.924-3.451 4.125-1.295-.497-1.675-.294-1.342.716.878 2.663 4.718 2.275 5.806-.587 1.284-3.376 1.285-6.504.002-6.504-.55 0-1.007 1.012-1.015 2.25m210.094-.667c.048 1.165.285 1.402.604.605.289-.722.253-1.585-.079-1.917-.332-.332-.568.258-.525 1.312M22.17 350.5c-.016 1.1.357 2.9.83 4 1.095 2.548 1.095-.081 0-3.5-.644-2.01-.806-2.108-.83-.5m229.33 1.463c4.315.937 23.276 1.594 24.037.833.644-.643-.333-.724-15.037-1.243-8.712-.308-11.681-.172-9 .41m55.344.281c.715.715 5.374 1.518 10.95 1.887 9.693.641 12.171.445 8.599-.68-1.041-.329-2.674-1.014-3.629-1.524-2.816-1.503-17.448-1.211-15.92.317m243.235 2.339c.048 1.165.285 1.402.604.605.289-.722.253-1.585-.079-1.917-.332-.332-.568.258-.525 1.312M288 359.434c0 5.144-.142 5.45-2.673 5.75-3.658.433-3.939 2.185-.693 4.312 2.595 1.7 2.847 1.7 6.037-.018 3.968-2.137 4.07-3.344.865-10.228-3.069-6.593-3.536-6.568-3.536.184m.813 2.712c-.276 3.841-.578 4.326-2.563 4.116-2.813-.298-2.963 1.377-.201 2.254 1.207.383 3.058-.011 4.503-.958 2.389-1.565 2.413-1.706.919-5.282-2.12-5.072-2.303-5.081-2.658-.13m259.758-1.575c-.367 1.466-.475 2.858-.24 3.094.236.235.73-.771 1.098-2.236.367-1.466.475-2.858.24-3.094-.236-.235-.73.771-1.098 2.236m-213.875 1.778c-.806 2.1.138 2.651 4.544 2.651 3.18 0 3.845-.325 3.575-1.75-.435-2.297-7.291-3.057-8.119-.901M334 367.8c0 4.088 6.056 5.812 8.608 2.45 2.489-3.279 1.664-4.25-3.608-4.25-4.148 0-5 .307-5 1.8m-31.75.889c.962.252 1.75.901 1.75 1.443s.457.703 1.016.358c1.59-.982.101-2.502-2.325-2.374-1.692.09-1.792.22-.441.573m-32.235 2.061c.009.999.336 1.321.762.75.41-.55 1.154-1.337 1.651-1.75.498-.413.155-.75-.761-.75-.927 0-1.66.777-1.652 1.75m25.599 2.406c-1.944 1.13-13.567 1.277-17.114.217-1.664-.497-1.782-.369-.7.765 2.074 2.173 17.62 1.87 19.879-.388 1.951-1.952.829-2.275-2.065-.594m-267.535 1.427c.048 1.165.285 1.402.604.605.289-.722.253-1.585-.079-1.917-.332-.332-.568.258-.525 1.312m294.007 4.37c-4.95 4.466-10.066 13.4-8.544 14.922.272.272 3.636-1.026 7.476-2.884l6.982-3.377v-6.807c0-3.744-.113-6.792-.25-6.773-.137.019-2.686 2.232-5.664 4.919M246 381.066c0 2.236.412 4.835.915 5.775.915 1.71 12.686 7.896 13.485 7.087 1.074-1.086-.907-6.243-3.343-8.702-9.212-9.299-11.057-9.993-11.057-4.16M31.031 383.5c0 .55.436 1.675.969 2.5.533.825.969 1.05.969.5s-.436-1.675-.969-2.5c-.533-.825-.969-1.05-.969-.5m255.546.375c-.297.481.576.875 1.941.875 1.365 0 2.482-.394 2.482-.875s-.873-.875-1.941-.875-2.184.394-2.482.875m19.086 8.2c-8.24 6.23-8.232 6.877.052 4.417 4.802-1.426 6.984-3.552 5.729-5.582-.309-.501-.138-.91.38-.91.519 0 1.178-.9 1.466-2 .287-1.1.452-1.966.366-1.925-.086.041-3.683 2.741-7.993 6M542.5 388c-.34.55-.141 1 .441 1s1.059-.45 1.059-1-.198-1-.441-1-.719.45-1.059 1m-281.5.497c0 3.983 3.078 7.177 8.014 8.317 6.732 1.554 7.019 1.159 1.754-2.413-2.347-1.592-4.493-3.167-4.768-3.498-.836-1.009-5-3.013-5-2.406m-13.592 4.13c.754 1.627 1.867 2.318 3.592 2.229 2.347-.121 2.363-.155.25-.562-1.238-.238-2.25-.878-2.25-1.423 0-.544.52-.668 1.155-.276.667.413.884.278.515-.32-.351-.568-1.475-1.252-2.497-1.519-1.628-.426-1.723-.195-.765 1.871m75.059.138c-.569.404-1.019 1.404-1 2.221.039 1.748 3.533 2.717 3.533.98 0-.649-.652-.93-1.449-.624-.978.375-1.265.076-.882-.923.369-.96 1.316-1.27 2.699-.883 1.695.473 1.825.38.632-.455-1.781-1.247-2.174-1.282-3.533-.316M258 396.858c0 1.028 3.029 2.446 3.729 1.747.243-.244-.496-.945-1.643-1.559-1.148-.614-2.086-.699-2.086-.188m57.5.142c.34.55.816 1 1.059 1s.441-.45.441-1-.477-1-1.059-1-.781.45-.441 1m16.579.583c.048 1.165.285 1.402.604.605.289-.722.253-1.585-.079-1.917-.332-.332-.568.258-.525 1.312M239.5 398c-1.63.701-1.688.872-.309.93.93.038 1.969-.38 2.309-.93.711-1.15.676-1.15-2 0m9.579.583c.048 1.165.285 1.402.604.605.289-.722.253-1.585-.079-1.917-.332-.332-.568.258-.525 1.312m64.079.417c0 1.375.227 1.938.504 1.25.278-.687.278-1.812 0-2.5-.277-.687-.504-.125-.504 1.25M334 398c0 .55.477 1 1.059 1s.781-.45.441-1-.816-1-1.059-1-.441.45-.441 1m-8.75.819c-1.238.176-2.25.994-2.25 1.818 0 1.312 3.298 1.177 4.854-.199 1-.884-.634-1.9-2.604-1.619m-288.219.681c0 .55.436 1.675.969 2.5.533.825.969 1.05.969.5s-.436-1.675-.969-2.5c-.533-.825-.969-1.05-.969-.5m174.89 2.44c-2.431 1.618-7.499 5.555-11.26 8.75-3.762 3.196-8.262 6.597-10 7.558-1.739.962-2.619 1.75-1.956 1.75 1.057.002 2.835 5.851 2.317 7.62-.106.362.358.999 1.031 1.415.673.416 1.274 2.114 1.335 3.774.062 1.66.233 2.899.38 2.754.147-.145 1.759 1.132 3.582 2.838 3.007 2.814 20.908 12.332 26.4 14.037 2.817.875 2.863-.195.351-8.021-3.911-12.183-8.027-33.106-6.304-32.04.614.379.809-.166.493-1.374-.288-1.1-.921-2.001-1.407-2.001-1.133 0-1.161-7.71-.03-8.409.469-.29 1.706.119 2.75.909 2.201 1.666 3.397 1.877 3.397.598 0-.671-5.076-3.098-6.478-3.098-.098 0-2.169 1.323-4.601 2.94m140.652-1.419c-2.731 2.066-1.25 2.969 1.699 1.036 2.186-1.432 2.58-1.441 3.709-.08.695.838.868 1.523.384 1.523s-.714 2.082-.511 4.628c.202 2.545-.02 4.392-.493 4.106-.474-.287-.933 1.918-1.021 4.898-.186 6.266-7.126 34.51-8.749 35.603-2.334 1.571 1.658.702 6.214-1.353 15.281-6.893 23.514-11.796 25.384-15.117 2.054-3.646 5.657-16.765 4.605-16.765-.529 0-3.287-2.201-6.128-4.89-14.59-13.811-20.54-17.033-25.093-13.589M245 401.059c0 .582.45.781 1 .441s1-.816 1-1.059-.45-.441-1-.441-1 .477-1 1.059m72.513.115c.558 1.454 4.487 1.989 4.487.612 0-.432-.413-.786-.918-.786-.505 0-1.635-.275-2.512-.611-1.093-.42-1.424-.173-1.057.785m22.037-.286c.522.488 2.075 1.182 3.45 1.541l2.5.654-2.5-1.506c-2.786-1.679-4.977-2.117-3.45-.689m-80.978 1.438c.399 1.042-.563 1.188-4.495.684-3.687-.473-5.137-.296-5.509.674-.278.724-1.194 1.316-2.037 1.316-2.265 0-1.844 1.348.805 2.575 2.133.988 2.292.868 1.978-1.5-.298-2.248-.227-2.321.565-.575.834 1.839.964 1.859 1.621.25.484-1.186 1.727-1.713 3.857-1.634 1.729.064 2.355.322 1.393.573-1.042.273-1.75 1.411-1.75 2.813 0 2.618 2.65 5.832 4.081 4.948 1.212-.749 1.188-4.45-.029-4.45-.576 0-.537-1.179.098-3 .575-1.65 1.408-3 1.85-3 .442 0 1.275 1.35 1.85 3 1.459 4.185 2.199 3.769.889-.5-.821-2.675-1.617-3.5-3.375-3.5-1.5 0-2.124.461-1.792 1.326M314 403c0 .55.477 1 1.059 1s.781-.45.441-1-.816-1-1.059-1-.441.45-.441 1m-86.851 1.671c-1.813 1.961-1.087 2.488 1.162.843.995-.727 1.444-1.543.999-1.813-.446-.27-1.418.166-2.161.97m84.866-.48c-.008.93.435 1.969.985 2.309 1.266.782 1.266-.542 0-2.5-.835-1.293-.971-1.266-.985.191m-2.755 2.519c-.681 1.454-1.055 2.828-.831 3.053.602.601 2.755-3.718 2.386-4.786-.173-.501-.873.278-1.555 1.733m224.199-1.643c-.363.586-.445 1.281-.183 1.543s.743-.218 1.069-1.067c.676-1.762.1-2.072-.886-.476M320 408c0 .55.45 1 1 1s1-.45 1-1-.45-1-1-1-1 .45-1 1m-9.376 1.539c-.965 2.514-.681 3.163.498 1.136.584-1.004.851-2.036.593-2.293-.257-.258-.749.263-1.091 1.157M262 411c0 1.867.267 2.133 1.2 1.2.933-.933.933-1.467 0-2.4-.933-.933-1.2-.667-1.2 1.2m73-1c0 .55.477 1 1.059 1s.781-.45.441-1-.816-1-1.059-1-.441.45-.441 1m50.75 2.118c-4.119 2.119-4.517 3.001-2.219 4.908 1.267 1.051 1.773.942 2.929-.628 1.892-2.57 2.864-.185 2.967 7.278.085 6.171.117 6.19 4.425 2.574l3.276-2.75-2.458-5.54c-3.373-7.6-4.312-8.215-8.92-5.842m144.814-.411c-.542 1.425-.428 1.54.56.56.684-.679.991-1.486.683-1.793-.308-.308-.867.247-1.243 1.233m-350.55 5.264c-3.707 7.344-3.716 7.042.305 9.779 4.274 2.91 4.611 2.847 4.152-.782-.211-1.668.004-2.792.479-2.499.475.294.63-.36.344-1.452-.662-2.531.441-7.017 1.725-7.017.54 0 .981.675.981 1.5s.395 1.5.878 1.5c1.007 0 3.606-2.892 3.015-3.356-6.567-5.143-8.277-4.808-11.879 2.327m56.799-5.288c.721.289 1.584.253 1.916-.079.332-.332-.258-.568-1.312-.525-1.165.048-1.402.285-.604.604m11.431.055c-.691.238-.964.907-.606 1.486.436.705-.514.834-2.877.391-4.265-.8-5.67 1.349-3.273 5.008 1.309 1.997 2.304 2.321 6.773 2.208 2.881-.073 4.677-.327 3.989-.565-.687-.238-1.282-1.633-1.32-3.099-.098-3.713-1.2-5.941-2.686-5.429M43 412.362C43 413.447 48.968 425 49.529 425c.275 0-.91-2.812-2.633-6.25-3.266-6.516-3.896-7.548-3.896-6.388m223.624 1.177c-.343.893-.595 2.15-.561 2.793.035.642.495.09 1.022-1.227.527-1.318.779-2.574.56-2.793-.219-.219-.679.333-1.021 1.227M232 415.059c0 .582.45.781 1 .441s1-.816 1-1.059-.45-.441-1-.441-1 .477-1 1.059m27.792-.518c-.79.791 1.435 6.459 2.536 6.459.489 0 .583-1.238.21-2.75-.758-3.067-1.877-4.578-2.746-3.709M242 415.893c0 .491.704 1.163 1.563 1.493.878.337 1.248 1.111.844 1.764-.507.821-.008.975 1.687.521 1.323-.354 2.744-.65 3.156-.657 1.747-.032.575-2.014-1.191-2.014-1.068 0-2.219-.45-2.559-1-.767-1.241-3.5-1.324-3.5-.107m25.784 1.456c-.272 1.425-.157 2.382.256 2.126.413-.255 1.033.273 1.379 1.174.345.9.849 1.416 1.12 1.145.27-.27-.127-1.964-.884-3.763l-1.376-3.272-.495 2.59M278 415.168c0 .338.931 2.575 2.068 4.973 1.552 3.27 1.911 3.63 1.439 1.44-.558-2.587-3.507-7.979-3.507-6.413m15 1.891c0 .582.45.781 1 .441s1-.816 1-1.059-.45-.441-1-.441-1 .477-1 1.059M340.787 420c.242 1.65.614 3 .826 3 .213 0 .387-1.35.387-3s-.372-3-.827-3c-.455 0-.628 1.35-.386 3m-2.708-.417c.048 1.165.285 1.402.604.605.289-.722.253-1.585-.079-1.917-.332-.332-.568.258-.525 1.312M174 421c0 .55.45 1 1 1s1-.45 1-1-.45-1-1-1-1 .45-1 1m130.583.643c-.918 2.394-.202 2.578 1.213.312.672-1.075.815-1.955.319-1.955-.495 0-1.185.739-1.532 1.643M398 421c0 .55.45 1 1 1s1-.45 1-1-.45-1-1-1-1 .45-1 1m-131.75 1.97c-1.713 2.745-1.522 3.973.254 1.628 1.344-1.776 1.425-1.693 1.218 1.258-.165 2.347-.608 3.015-1.722 2.593-.957-.362-1.138-.231-.5.361 1.676 1.557 8.502.214 8.485-1.669-.009-.942-.329-1.215-.75-.641-1.447 1.969-4.459 1.781-3.818-.238.992-3.126-1.594-5.813-3.167-3.292m-145.75 1.388c-11.514 5.399-19.96 17.752-19.926 29.142.034 11.176 8.964 24.352 22.742 33.552 7.67 5.122 7.879 5.08 12.098-2.464 4.388-7.847 4.389-7.896.189-9.415-16.3-5.894-20.563-22.626-7.998-31.39 9.124-6.363 22.406-.37 26.47 11.945 1.308 3.961 2.03 3.945 11.205-.256 6.363-2.913 6.396-3.26 1.101-11.673-11.018-17.51-31.497-26.188-45.881-19.441m142.579-.775c.048 1.165.285 1.402.604.605.289-.722.253-1.585-.079-1.917-.332-.332-.568.258-.525 1.312M301.1 425.6c-.575 2.083-.866 3.968-.646 4.188.22.22.871-1.305 1.446-3.388s.866-3.968.646-4.188c-.22-.22-.871 1.305-1.446 3.388m114.29 8.535c-7.64 6.674-15.803 13.704-18.14 15.621-5.219 4.279-5.243 5.021-.337 10.43 4.743 5.229 6.213 6.909 22.087 25.226 6.875 7.934 12.796 14.349 13.157 14.256.362-.092 9.014-7.444 19.228-16.336l18.571-16.168-4.65-5.53-4.65-5.53-4.055 3.198c-2.23 1.759-7.435 6.232-11.567 9.94l-7.511 6.743-3.011-3.037-3.012-3.037 5.499-4.706c3.024-2.588 7.176-6.28 9.225-8.205l3.726-3.5-4.899-5.42-4.899-5.42-5.726 5.234c-9.883 9.032-12.204 10.536-13.983 9.059-4.184-3.473-3.772-4.419 5.329-12.233C438.548 433.751 439 433.335 439 432.521c0-1.072-8.04-10.521-8.953-10.521-.422 0-7.018 5.461-14.657 12.135m108.242-8.885-1.799 3.25 2.061-2.5c1.828-2.217 2.64-4 1.822-4-.157 0-1.094 1.462-2.084 3.25M251 424.532c0 .843-1.012 1.939-2.25 2.437-2.163.869-2.143.907.5.968 1.512.034 2.75-.35 2.75-.855s.273-1.63.607-2.5c.334-.87.109-1.582-.5-1.582s-1.107.69-1.107 1.532M188.158 426c0 1.375.227 1.938.504 1.25.278-.687.278-1.812 0-2.5-.277-.687-.504-.125-.504 1.25m95.552 0c.288 1.1.937 2 1.442 2 .507 0 .439-.895-.152-2-.589-1.1-1.237-2-1.442-2-.204 0-.135.9.152 2m20.914.539c-.965 2.514-.681 3.163.498 1.136.584-1.004.851-2.036.593-2.293-.257-.258-.749.263-1.091 1.157M236 427c0 .55 2.137.947 4.75.882 4.24-.106 4.428-.201 1.75-.882-4.423-1.126-6.5-1.126-6.5 0m73-.125c0 .481-1.462 1.637-3.25 2.569l-3.25 1.693 2.99-.648c2.796-.606 4.459-1.989 4.495-3.739.008-.413-.21-.75-.485-.75s-.5.394-.5.875M52 430c.589 1.1 1.295 2 1.57 2 .275 0 .019-.9-.57-2s-1.295-2-1.57-2c-.275 0-.019.9.57 2m276.269.693c.973.254 2.323.237 3-.037.677-.274-.119-.481-1.769-.461-1.65.02-2.204.244-1.231.498M519 433c-.589 1.1-.845 2-.57 2s.981-.9 1.57-2c.589-1.1.845-2 .57-2s-.981.9-1.57 2m-279.5.007c-1.287.558-.217.661 3 .289 2.75-.318 5.188-.739 5.417-.937.867-.747-6.506-.18-8.417.648m19.769-.314c.973.254 2.323.237 3-.037.677-.274-.119-.481-1.769-.461-1.65.02-2.204.244-1.231.498m51.544-.01c.721.289 1.584.253 1.916-.079.332-.332-.258-.568-1.312-.525-1.165.048-1.402.285-.604.604m8.687.317c-2.676.681-2.73.763-.5.763 1.375 0 3.85-.343 5.5-.763 2.676-.681 2.73-.763.5-.763-1.375 0-3.85.343-5.5.763m14.313-.317c.721.289 1.584.253 1.916-.079.332-.332-.258-.568-1.312-.525-1.165.048-1.402.285-.604.604M55 435c.589 1.1 1.295 2 1.57 2 .275 0 .019-.9-.57-2s-1.295-2-1.57-2c-.275 0-.019.9.57 2m212.813-1.317c.721.289 1.584.253 1.916-.079.332-.332-.258-.568-1.312-.525-1.165.048-1.402.285-.604.604m37.92.441c.679.684 1.486.991 1.793.683.308-.308-.247-.867-1.233-1.243-1.425-.542-1.54-.428-.56.56m-3.733.269c0 .216.698.661 1.552.989.89.341 1.291.173.941-.393-.587-.951-2.493-1.406-2.493-.596m10 0c0 .216.698.661 1.552.989.89.341 1.291.173.941-.393-.587-.951-2.493-1.406-2.493-.596m15.75.269c.688.278 1.813.278 2.5 0 .688-.277.125-.504-1.25-.504s-1.937.227-1.25.504M350.158 436c0 1.375.227 1.938.504 1.25.278-.687.278-1.812 0-2.5-.277-.687-.504-.125-.504 1.25M236 436.5c0 .825.177 1.5.393 1.5.216 0 .652-.675.969-1.5.316-.825.139-1.5-.393-1.5-.533 0-.969.675-.969 1.5m16.813-.817c.721.289 1.584.253 1.916-.079.332-.332-.258-.568-1.312-.525-1.165.048-1.402.285-.604.604m6 0c.721.289 1.584.253 1.916-.079.332-.332-.258-.568-1.312-.525-1.165.048-1.402.285-.604.604m9.937-.021c.688.278 1.813.278 2.5 0 .688-.277.125-.504-1.25-.504s-1.937.227-1.25.504m7.241.827c.68.819 1.683 1.213 2.229.875.604-.373.461-.951-.363-1.474-2.157-1.366-3.216-1.027-1.866.599M291 438c-1.219.788-1.09.972.691.985 1.205.008 2.469-.435 2.809-.985.787-1.273-1.53-1.273-3.5 0m-1.795 3.625c-1.403 1.503-.75 1.644 2.222.48 1.489-.584 1.601-.88.495-1.305-.788-.302-2.01.069-2.717.825m-6.392 1.058c.721.289 1.584.253 1.916-.079.332-.332-.258-.568-1.312-.525-1.165.048-1.402.285-.604.604m47.266 2.9c.048 1.165.285 1.402.604.605.289-.722.253-1.585-.079-1.917-.332-.332-.568.258-.525 1.312M64 449.378c0 .207.787.995 1.75 1.75 1.586 1.243 1.621 1.208.378-.378-1.307-1.666-2.128-2.195-2.128-1.372m176.529 3.977c-1.325.969-1.621 1.896-1.037 3.25.789 1.829.832 1.825 1.247-.105.236-1.1 1.153-2.562 2.036-3.25 2.182-1.697.084-1.598-2.246.105m47.55.228c.048 1.165.285 1.402.604.605.289-.722.253-1.585-.079-1.917-.332-.332-.568.258-.525 1.312m216.162 1.929c-2.912 4.495-2.241 4.488 1.191-.012 1.468-1.925 2.309-3.494 1.869-3.488-.441.007-1.818 1.582-3.06 3.5M69 456.378c0 .207.787.995 1.75 1.75 1.586 1.243 1.621 1.208.378-.378-1.307-1.666-2.128-2.195-2.128-1.372m210.015 1.872c.013 1.819.201 1.963.985.75 1.253-1.939 1.253-3 0-3-.55 0-.993 1.012-.985 2.25M243.5 458c1.1.473 2.675.859 3.5.859.945 0 .761-.317-.5-.859-1.1-.473-2.675-.859-3.5-.859-.945 0-.761.317.5.859m82.75.031c-3.183 1.279-2.801 2.039.5.995 5.641-1.783 5.809-1.868 3.75-1.884-1.1-.008-3.012.392-4.25.889m-152.299 1.331c-18.519 4.994-28.778 27.155-20.342 43.938 4.302 8.559 16.932 17.512 27.811 19.714 31.86 6.45 52.323-32.983 27.935-53.829-10.939-9.35-23.863-12.936-35.404-9.823m192.549 7.687c-9.9 4.325-19.905 8.774-22.233 9.886-4.69 2.241-4.677 1.893-.412 11.097 1.139 2.457 6.102 13.693 11.03 24.968 10.112 23.137 8.769 21.94 19.211 17.125 3.522-1.624 12.929-5.743 20.904-9.153 7.975-3.409 14.682-6.368 14.905-6.574.593-.548-5.003-13.398-5.835-13.398-.388 0-5.68 2.227-11.76 4.949-15.343 6.869-15.796 6.946-17.811 3.048-1.993-3.852-3.071-2.89 9.448-8.432 5.745-2.544 10.609-4.788 10.809-4.987.199-.199-.979-3.319-2.618-6.933l-2.979-6.571-9.829 4.447c-10.857 4.911-12.857 5.313-13.6 2.729a38.81 38.81 0 0 0-1.178-3.381c-.536-1.295.832-2.259 6.637-4.677a682.353 682.353 0 0 0 14.024-6.061l6.714-3.015-2.714-6.55c-1.492-3.603-3.163-6.512-3.713-6.465-.55.047-9.1 3.624-19 7.948M74.957 463.75c1.858 2.337 3.558 4.25 3.778 4.25.707 0-3.578-5.627-5.398-7.089-.967-.776-.237.502 1.62 2.839m190.158-2.658c1.297.822 9.707 1.338 8.802.541-.229-.202-2.615-.603-5.302-.892-2.986-.322-4.347-.185-3.5.351m12.344.975c-1.026 1.66-.105 1.89 1.33.332.71-.769.849-1.399.309-1.399-.539 0-1.277.48-1.639 1.067m30.541-.015c-1.075.733-.366.832 2.5.352 4.961-.83 5.759-1.409 1.917-1.389-1.604.009-3.592.475-4.417 1.037m190.872.698c-1.243 1.586-1.208 1.621.378.378.962-.755 1.75-1.543 1.75-1.75 0-.823-.821-.294-2.128 1.372m-209.622.939c.962.252 2.538.252 3.5 0 .962-.251.175-.457-1.75-.457s-2.712.206-1.75.457m9.5-.027c.688.278 1.813.278 2.5 0 .688-.277.125-.504-1.25-.504s-1.937.227-1.25.504m195.174 5.088-2.424 2.75 2.75-2.424c1.512-1.334 2.75-2.571 2.75-2.75 0-.785-.81-.146-3.076 2.424M78 472c0 .55.477 1 1.059 1s.781-.45.441-1-.816-1-1.059-1-.441.45-.441 1m5 1.5c1.292 1.375 2.574 2.5 2.849 2.5.275 0-.557-1.125-1.849-2.5-1.292-1.375-2.574-2.5-2.849-2.5-.275 0 .557 1.125 1.849 2.5m405.924 1.25-2.424 2.75 2.75-2.424c1.512-1.334 2.75-2.571 2.75-2.75 0-.785-.81-.146-3.076 2.424m-307.615.682c-3.753 1.672-8.86 8.336-10.447 13.633-3.545 11.835 8.322 22.631 18.903 17.198 7.675-3.942 12.58-17.023 9.18-24.484-2.514-5.517-11.908-8.898-17.636-6.347M229 479.978c0 1.176-.87 6.499-1.934 11.83-2.622 13.136-8.085 43.434-8.075 44.776.011 1.277 18.113 4.739 19.112 3.655.375-.406 1.457-5.122 2.406-10.479 1.598-9.031 1.879-9.706 3.857-9.282 7.592 1.63 19.935 3.554 20.321 3.168.758-.757 2.751-13.542 2.197-14.095-.281-.281-5.343-1.288-11.25-2.238l-10.74-1.728.667-4.042c.886-5.368-.207-5.167 14.189-2.615 7.012 1.243 13.409 2.33 14.215 2.416 1.62.173 4.65-13.167 3.282-14.451-.411-.386-4.797-1.39-9.747-2.232-16.386-2.786-32.96-5.687-35.75-6.257-2.318-.474-2.75-.227-2.75 1.574M90.333 482.5c0 .825.234 1.266.521.98.861-.862 8.112 6.766 7.45 7.837-.361.584-.098.674.637.219.886-.547-.154-2.198-3.558-5.654-5.541-5.627-5.05-5.297-5.05-3.382m216.167 1.242c-11.55 1.359-21.192 2.653-21.426 2.874-.234.222.317 6.586 1.225 14.143.908 7.558 2.424 20.716 3.369 29.241.945 8.525 2.047 15.731 2.45 16.013.404.282 4.863.086 9.91-.436l9.178-.95-.681-8.563c-.375-4.71-.92-9.577-1.211-10.814-.349-1.477-.064-2.269.828-2.305.747-.031 5.858-.612 11.358-1.292l10-1.237-.218-3.958c-.119-2.177-.488-5.476-.818-7.33l-.601-3.373-7.181.654c-3.95.359-9.04.907-11.311 1.218l-4.13.564-.49-3.846c-.269-2.115-.211-4.142.13-4.505.466-.497 24.473-3.84 27.577-3.84.727 0 .669-6.601-.1-11.25-.745-4.511 1.281-4.438-27.858-1.008m158.994 14.033c-2.204 2.049-6.254 5.682-9 8.073-4.611 4.016-4.656 4.096-.588 1.043 4.771-3.58 14.908-12.807 14.094-12.828-.275-.007-2.303 1.663-4.506 3.712m-356.722 1.435c7.662 6.824 9.271 7.748 2.758 1.584-3.317-3.139-6.357-5.727-6.758-5.75-.4-.024 1.4 1.851 4 4.166M122 509.979c1.925 1.738 4.4 3.634 5.5 4.213 2.655 1.397 1.011-.102-4.5-4.104l-4.5-3.269 3.5 3.16m326.872 1.771c-1.243 1.586-1.208 1.621.378.378.962-.755 1.75-1.543 1.75-1.75 0-.823-.821-.294-2.128 1.372m-4 3c-1.243 1.586-1.208 1.621.378.378.962-.755 1.75-1.543 1.75-1.75 0-.823-.821-.294-2.128 1.372m-314.789 1.533c.23.156 1.317.943 2.417 1.75 1.85 1.357 1.897 1.336.628-.283-.755-.962-1.843-1.75-2.417-1.75-.574 0-.857.127-.628.283M441.5 517c-.34.55-.141 1 .441 1s1.059-.45 1.059-1-.198-1-.441-1-.719.45-1.059 1M135 519.43c0 .275.9.981 2 1.57 1.1.589 2 .845 2 .57s-.9-.981-2-1.57c-1.1-.589-2-.845-2-.57m9.5 6.088c1.1.896 2.9 2.07 4 2.61l2 .982-2-1.628c-1.1-.896-2.9-2.07-4-2.61l-2-.982 2 1.628m283.941.037c-1.864 1.494-1.852 1.512.309.465 1.238-.6 2.25-1.3 2.25-1.555 0-.765-.519-.544-2.559 1.09m-4.901 2.792c-1.513 1.107-1.592 1.493-.441 2.161.77.447 1.07.447.667.001-.404-.446.046-1.404 1-2.128 2.291-1.74 1.15-1.771-1.226-.034m-271.807 1.777c.679.684 1.486.991 1.793.683.308-.308-.247-.867-1.233-1.243-1.425-.542-1.54-.428-.56.56M419 531c-.901.582-1.025.975-.309.985.655.008 1.469-.435 1.809-.985.767-1.242.421-1.242-1.5 0m-252.267 7.124c.679.684 1.486.991 1.793.683.308-.308-.247-.867-1.233-1.243-1.425-.542-1.54-.428-.56.56m225.767 5.948c-2.2 1.058-2.875 1.61-1.5 1.227s3.625-.664 5-.624c1.375.04 1.935-.135 1.244-.387-.691-.252-1.002-.87-.691-1.373.706-1.143.765-1.16-4.053 1.157M203 553c.825.533 2.175.945 3 .914.989-.036.819-.347-.5-.914-2.749-1.181-4.328-1.181-2.5 0m149.75 4.662c.688.278 1.813.278 2.5 0 .688-.277.125-.504-1.25-.504s-1.937.227-1.25.504m-128.937 1.021c.721.289 1.584.253 1.916-.079.332-.332-.258-.568-1.312-.525-1.165.048-1.402.285-.604.604m121 1c.721.289 1.584.253 1.916-.079.332-.332-.258-.568-1.312-.525-1.165.048-1.402.285-.604.604m-5 1c.721.289 1.584.253 1.916-.079.332-.332-.258-.568-1.312-.525-1.165.048-1.402.285-.604.604m-102.063.979c.688.278 1.813.278 2.5 0 .688-.277.125-.504-1.25-.504s-1.937.227-1.25.504m97 0c.688.278 1.813.278 2.5 0 .688-.277.125-.504-1.25-.504s-1.937.227-1.25.504m-6 1c.688.278 1.813.278 2.5 0 .688-.277.125-.504-1.25-.504s-1.937.227-1.25.504m-79 1c.688.278 1.813.278 2.5 0 .688-.277.125-.504-1.25-.504s-1.937.227-1.25.504m71 0c.688.278 1.813.278 2.5 0 .688-.277.125-.504-1.25-.504s-1.937.227-1.25.504m-61.481 1.031c.973.254 2.323.237 3-.037.677-.274-.119-.481-1.769-.461-1.65.02-2.204.244-1.231.498m52.481-.031c.688.278 1.813.278 2.5 0 .688-.277.125-.504-1.25-.504s-1.937.227-1.25.504m-40.5 1.054c1.512.229 3.988.229 5.5 0s.275-.416-2.75-.416-4.262.187-2.75.416m25 0c1.512.229 3.988.229 5.5 0s.275-.416-2.75-.416-4.262.187-2.75.416" fill-rule="evenodd"/>
</svg>