<?xml version="1.0" encoding="UTF-8"?>
<!DOCTYPE svg PUBLIC "-//W3C//DTD SVG 1.1//EN" "http://www.w3.org/Graphics/SVG/1.1/DTD/svg11.dtd">
<!-- Creator: CorelDRAW -->
<svg xmlns="http://www.w3.org/2000/svg" xml:space="preserve" width="16.9332mm" height="16.9332mm" style="shape-rendering:geometricPrecision; text-rendering:geometricPrecision; image-rendering:optimizeQuality; fill-rule:evenodd; clip-rule:evenodd"
viewBox="0 0 16.9332 16.9332"
 xmlns:xlink="http://www.w3.org/1999/xlink">
 <defs>
  <style type="text/css">
   <![CDATA[
    .str0 {stroke:white;stroke-width:0.2}
    .fil3 {fill:#2B1D0B}
    .fil2 {fill:#B3290A}
    .fil1 {fill:#B7271A}
    .fil0 {fill:#FAAE25}
    .fil4 {fill:white}
    .fil5 {fill:#E6E6E6;fill-rule:nonzero}
   ]]>
  </style>
 </defs>
 <g id="Capa_x0020_1">
  <metadata id="CorelCorpID_0Corel-Layer"/>
  <path class="fil0" d="M10.0038 5.371c-0.6253,-0.0329 -1.2675,-0.1197 -1.8387,0.0161 -0.7938,0.1887 -0.6302,0.3535 -1.2102,-0.3676 -1.6934,-2.0004 -1.9871,-2.3938 -4.3697,-3.5432 0.2286,2.7474 1.8811,3.4525 3.8947,4.7602 -0.1864,0.3522 -0.4693,0.6035 -0.6116,0.9959l-0.3157 1.2915c0.9645,0.0802 0.298,1.6246 0.3555,1.822 0.135,0.463 1.342,0.7696 1.7464,0.8981l0 0.6182 1.5455 -0.2473 0 0.4947c0.2311,-0.0193 2.2387,-0.75 2.3613,-1.0388l0.4825 -2.9179c0.0785,-0.9552 -0.6159,-1.6799 -0.5877,-1.8949 0.0852,-0.65 0.9498,-0.8133 1.2117,-3.8487l0.1797 -2.3549c-0.3011,0.0251 -0.4197,0.226 -0.6095,0.3795 -1.3155,1.0643 -2.1966,3.2414 -2.2342,4.9371zm-3.0293 7.6659c1.0311,-0.3173 0.5581,-0.3636 1.9783,0.3091l0 -1.4838c-1.4044,0.2107 -0.9282,0.2472 -2.1638,0 0,0.3256 0.0494,0.3407 0.0602,0.6201 0.0071,0.1865 -0.0557,0.5546 0.1253,0.5546zm2.2255 -0.1855l2.2875 -0.6182 0 -0.371c-0.7258,0 -1.2261,0.3009 -1.9485,0.4625 -0.4326,0.0969 -0.339,0.0119 -0.339,0.5267z"/>
  <path class="fil1" d="M5.3177 9.4397c0.2284,0.3236 0.2267,0.5545 0.5743,0.8576 0.1524,-0.6076 0.4091,-1.0885 -0.0467,-1.7517l-0.2894 -0.0246 0.0053 -0.1223c-0.2628,0.2745 -0.2243,0.6795 -0.2435,1.041z"/>
  <path class="fil2" d="M9.9936 9.1169l0.1514 -0.336c0.42,0.6203 0.359,0.5137 0.0161,1.541l-0.544 -0.6878c0.1392,-0.635 0.0393,-0.4387 0.4542,-0.8501 0.0314,0.2164 0.0568,0.1364 -0.0777,0.3329zm0.2081 1.3804c0.4997,-0.3859 0.5209,-1.4205 0.0615,-1.8549 -0.5892,-0.0837 -0.7585,0.3343 -0.7644,0.8677 -0.0053,0.4895 0.1171,1.0483 0.7029,0.9872zm-0.2081 -1.3804c0.1345,-0.1965 0.1091,-0.1165 0.0777,-0.3329 -0.4149,0.4114 -0.315,0.2151 -0.4542,0.8501l0.544 0.6878c0.3429,-1.0273 0.4039,-0.9207 -0.0161,-1.541l-0.1514 0.336z"/>
  <path class="fil3" d="M9.2835 7.1692l0.1703 -0.0013c0.022,-0.0028 0.0443,-0.0041 0.067,-0.0041 0.0197,0 0.0391,0.0011 0.0582,0.0031l0.0066 -0.0001 0.0008 0.0009c0.2275,0.0272 0.412,0.1947 0.4643,0.4135 0.0145,0.0227 0.0298,0.0487 0.0472,0.079 -0.0111,0.0192 -0.0218,0.0384 -0.0323,0.0575 -0.0035,0.2179 -0.1351,0.4047 -0.3227,0.4885 -0.0408,0.0265 -0.0863,0.0412 -0.1392,0.0409 -0.027,0.0042 -0.0547,0.0063 -0.0829,0.0063 -0.3009,0 -0.5447,-0.2439 -0.5447,-0.5449 0,-0.1794 0.0868,-0.3387 0.2207,-0.4379l0.0867 -0.1014 0 0zm-1.5592 1.3398l-0.0236 -0.0795c-0.2398,-0.0647 -0.3343,-0.0958 -0.5471,0.0096 0.0435,0.2366 -0.0638,0.1076 0.1978,0.2692 0.2578,-0.0545 0.1579,-0.0807 0.3729,-0.1993zm-1.2858 -1.162l0.3442 -0.0136 0.0111 0.4257 -0.3522 0.0436 -0.0031 -0.4557zm-0.1975 0.9792c0.9107,0.1558 0.8286,-0.9315 0.4789,-1.0887 -0.5396,-0.2426 -1.061,0.5521 -0.4789,1.0887z"/>
  <circle class="fil4 str0" cx="9.38449" cy="7.52401" r="0.298521"/>
  <circle class="fil4 str0" cx="6.62909" cy="7.63266" r="0.27289"/>
  <path class="fil5" d="M2.0385 15.8878l-0.0896 0.0848c-0.0647,-0.0634 -0.1353,-0.1114 -0.212,-0.1441 -0.0767,-0.0328 -0.1516,-0.0491 -0.2243,-0.0491 -0.0907,0 -0.1771,0.0223 -0.2592,0.0668 -0.0818,0.0445 -0.1454,0.1049 -0.1905,0.1811 -0.045,0.0762 -0.0676,0.1569 -0.0676,0.2417 0,0.087 0.0234,0.1696 0.0701,0.2479 0.0466,0.0784 0.111,0.1401 0.1931,0.1849 0.0824,0.0448 0.1725,0.0671 0.2705,0.0671 0.1191,0 0.2197,-0.0336 0.3018,-0.1006 0.0824,-0.0671 0.1309,-0.154 0.1462,-0.2608l-0.3686 0 0 -0.1116 0.4985 0c-0.0011,0.1786 -0.0542,0.3203 -0.1594,0.4255 -0.1049,0.1052 -0.2455,0.1575 -0.4217,0.1575 -0.2136,0 -0.3829,-0.0727 -0.5077,-0.2184 -0.096,-0.1122 -0.1438,-0.2418 -0.1438,-0.3891 0,-0.1094 0.0274,-0.2114 0.0824,-0.3058 0.055,-0.0942 0.1307,-0.168 0.2264,-0.2214 0.0961,-0.0531 0.2045,-0.0796 0.3255,-0.0796 0.0979,0 0.1902,0.0177 0.2766,0.0531 0.0867,0.0354 0.1709,0.092 0.2533,0.1701zm0.675 0.0848c0.1314,0 0.2404,0.0477 0.327,0.1432 0.0786,0.087 0.1178,0.19 0.1178,0.3088 0,0.1194 -0.0416,0.2241 -0.1245,0.3134 -0.0831,0.0894 -0.1899,0.1339 -0.3203,0.1339 -0.131,0 -0.238,-0.0445 -0.3212,-0.1339 -0.0832,-0.0893 -0.1245,-0.194 -0.1245,-0.3134 0,-0.1183 0.0392,-0.221 0.1178,-0.308 0.0864,-0.096 0.1959,-0.144 0.3279,-0.144zm0 0.1078c-0.0912,0 -0.1696,0.0338 -0.2351,0.1014 -0.0654,0.0676 -0.0982,0.1492 -0.0982,0.2453 0,0.0617 0.0148,0.1194 0.0449,0.1727 0.0297,0.0537 0.07,0.0948 0.121,0.124 0.0507,0.029 0.1065,0.0435 0.1674,0.0435 0.0606,0 0.1164,-0.0145 0.1674,-0.0435 0.0507,-0.0292 0.0912,-0.0703 0.121,-0.124 0.0298,-0.0533 0.0448,-0.111 0.0448,-0.1727 0,-0.0961 -0.033,-0.1777 -0.0987,-0.2453 -0.0658,-0.0676 -0.1438,-0.1014 -0.2345,-0.1014zm0.7451 -0.4032l0.1111 0 0 0.3174 0.1744 0 0 0.0944 -0.1744 0 0 0.7609 -0.1111 0 0 -0.7609 -0.15 0 0 -0.0944 0.15 0 0 -0.3174zm0.5455 0l0.1111 0 0 0.3174 0.1744 0 0 0.0944 -0.1744 0 0 0.7609 -0.1111 0 0 -0.7609 -0.15 0 0 -0.0944 0.15 0 0 -0.3174zm1.3018 0.3174l0 0.8553 -0.1084 0 0 -0.147c-0.0461,0.056 -0.0979,0.0982 -0.1553,0.1266 -0.0574,0.0282 -0.1202,0.0424 -0.1884,0.0424 -0.121,0 -0.2243,-0.044 -0.3101,-0.1317 -0.0856,-0.0878 -0.1285,-0.1946 -0.1285,-0.3204 0,-0.1231 0.0434,-0.2283 0.1298,-0.3158 0.0864,-0.0874 0.1905,-0.1314 0.3121,-0.1314 0.0703,0 0.1338,0.015 0.1905,0.0448 0.0568,0.03 0.1067,0.0748 0.1499,0.1344l0 -0.1572 0.1084 0zm-0.4402 0.0842c-0.0612,0 -0.1178,0.015 -0.1699,0.0451 -0.0518,0.0303 -0.0931,0.0724 -0.1237,0.1272 -0.0306,0.0544 -0.0458,0.1121 -0.0458,0.1727 0,0.0604 0.0152,0.1181 0.0461,0.1731 0.0311,0.055 0.0724,0.0977 0.1248,0.1285 0.052,0.0306 0.1081,0.0459 0.1676,0.0459 0.0604,0 0.1176,-0.0153 0.1715,-0.0456 0.0539,-0.0303 0.0955,-0.0714 0.1245,-0.1234 0.0292,-0.0518 0.0437,-0.1103 0.0437,-0.1752 0,-0.099 -0.0327,-0.1819 -0.0979,-0.2485 -0.0652,-0.0665 -0.1454,-0.0998 -0.2409,-0.0998zm1.9636 0.0936l-0.0872 0.0542c-0.0756,-0.1 -0.1784,-0.1502 -0.309,-0.1502 -0.1041,0 -0.1908,0.0335 -0.2598,0.1006 -0.0689,0.0671 -0.1033,0.1486 -0.1033,0.2444 0,0.0625 0.0159,0.121 0.0475,0.1763 0.0317,0.055 0.0752,0.0977 0.1304,0.128 0.0553,0.0303 0.1173,0.0456 0.186,0.0456 0.1258,0 0.2286,-0.0499 0.3082,-0.1503l0.0872 0.0575c-0.041,0.0614 -0.0957,0.1089 -0.1647,0.1427 -0.069,0.0338 -0.1473,0.0507 -0.2353,0.0507 -0.1352,0 -0.2474,-0.0429 -0.3365,-0.1288 -0.089,-0.0861 -0.1336,-0.1905 -0.1336,-0.3136 0,-0.0829 0.0207,-0.1599 0.0626,-0.2308 0.0415,-0.0711 0.0987,-0.1263 0.1717,-0.1663 0.0727,-0.0397 0.1542,-0.0598 0.2444,-0.0598 0.0566,0 0.1111,0.0088 0.1639,0.026 0.0526,0.0174 0.0971,0.04 0.1339,0.0676 0.0368,0.0279 0.0679,0.063 0.0936,0.1062zm1.0635 -0.1778l0 0.8553 -0.1084 0 0 -0.147c-0.0461,0.056 -0.0979,0.0982 -0.1553,0.1266 -0.0574,0.0282 -0.1202,0.0424 -0.1884,0.0424 -0.121,0 -0.2243,-0.044 -0.3101,-0.1317 -0.0856,-0.0878 -0.1285,-0.1946 -0.1285,-0.3204 0,-0.1231 0.0434,-0.2283 0.1298,-0.3158 0.0864,-0.0874 0.1905,-0.1314 0.3121,-0.1314 0.0703,0 0.1338,0.015 0.1905,0.0448 0.0568,0.03 0.1067,0.0748 0.1499,0.1344l0 -0.1572 0.1084 0zm-0.4402 0.0842c-0.0612,0 -0.1178,0.015 -0.1699,0.0451 -0.0518,0.0303 -0.0931,0.0724 -0.1237,0.1272 -0.0306,0.0544 -0.0458,0.1121 -0.0458,0.1727 0,0.0604 0.0152,0.1181 0.0461,0.1731 0.0311,0.055 0.0724,0.0977 0.1248,0.1285 0.052,0.0306 0.1081,0.0459 0.1676,0.0459 0.0604,0 0.1176,-0.0153 0.1715,-0.0456 0.0539,-0.0303 0.0955,-0.0714 0.1245,-0.1234 0.0292,-0.0518 0.0437,-0.1103 0.0437,-0.1752 0,-0.099 -0.0327,-0.1819 -0.0979,-0.2485 -0.0652,-0.0665 -0.1454,-0.0998 -0.2409,-0.0998zm0.7837 -0.4016l0.1111 0 0 0.3174 0.1744 0 0 0.0944 -0.1744 0 0 0.7609 -0.1111 0 0 -0.7609 -0.15 0 0 -0.0944 0.15 0 0 -0.3174zm1.2798 0.4952l-0.0872 0.0542c-0.0756,-0.1 -0.1784,-0.1502 -0.309,-0.1502 -0.1041,0 -0.1908,0.0335 -0.2598,0.1006 -0.0689,0.0671 -0.1033,0.1486 -0.1033,0.2444 0,0.0625 0.0159,0.121 0.0475,0.1763 0.0317,0.055 0.0752,0.0977 0.1304,0.128 0.0553,0.0303 0.1173,0.0456 0.186,0.0456 0.1258,0 0.2286,-0.0499 0.3082,-0.1503l0.0872 0.0575c-0.041,0.0614 -0.0957,0.1089 -0.1647,0.1427 -0.069,0.0338 -0.1473,0.0507 -0.2353,0.0507 -0.1352,0 -0.2474,-0.0429 -0.3365,-0.1288 -0.089,-0.0861 -0.1336,-0.1905 -0.1336,-0.3136 0,-0.0829 0.0207,-0.1599 0.0626,-0.2308 0.0415,-0.0711 0.0987,-0.1263 0.1717,-0.1663 0.0727,-0.0397 0.1542,-0.0598 0.2444,-0.0598 0.0566,0 0.1111,0.0088 0.1639,0.026 0.0526,0.0174 0.0971,0.04 0.1339,0.0676 0.0368,0.0279 0.0679,0.063 0.0936,0.1062zm0.2114 -0.5078l0.11 0 0 0.4834c0.0446,-0.0587 0.0937,-0.1027 0.147,-0.1317 0.0534,-0.029 0.1114,-0.0437 0.1739,-0.0437 0.0639,0 0.1205,0.0163 0.1701,0.0488 0.0494,0.0325 0.0861,0.0762 0.1095,0.1309 0.0236,0.0548 0.0354,0.1406 0.0354,0.2573l0 0.4403 -0.11 0 0 -0.4081c0,-0.0985 -0.0038,-0.1642 -0.0118,-0.1972 -0.0137,-0.0566 -0.0384,-0.099 -0.0743,-0.1277 -0.0357,-0.0284 -0.0829,-0.0429 -0.1412,-0.0429 -0.0665,0 -0.1261,0.022 -0.1787,0.066 -0.0525,0.0442 -0.0874,0.0987 -0.1041,0.1636 -0.0104,0.0419 -0.0158,0.1194 -0.0158,0.2327l0 0.3136 -0.11 0 0 -1.1853zm1.2143 -0.0709l0.1691 0 -0.2319 0.2423 -0.1083 0 0.1711 -0.2423zm1.0912 0.9723l0.0926 0.0489c-0.0303,0.0598 -0.0655,0.1078 -0.1052,0.1446 -0.04,0.0367 -0.0848,0.0646 -0.1344,0.0837 -0.0499,0.019 -0.1062,0.0287 -0.169,0.0287 -0.1395,0 -0.2485,-0.0456 -0.3271,-0.1371 -0.0786,-0.0915 -0.1178,-0.1948 -0.1178,-0.3102 0,-0.1083 0.0333,-0.2052 0.0998,-0.29 0.0843,-0.1078 0.1972,-0.162 0.3386,-0.162 0.1457,0 0.2622,0.0555 0.3491,0.166 0.062,0.0781 0.0934,0.1755 0.0944,0.2922l-0.7686 0c0.0018,0.0998 0.0338,0.1814 0.0949,0.245 0.0615,0.0636 0.1371,0.0955 0.2273,0.0955 0.0434,0 0.0858,-0.0075 0.1269,-0.0228 0.041,-0.0153 0.0762,-0.0354 0.1049,-0.0607 0.0287,-0.0249 0.0601,-0.0657 0.0936,-0.1218zm0 -0.2302c-0.0147,-0.0587 -0.0362,-0.1057 -0.0641,-0.1406 -0.0282,-0.0351 -0.0652,-0.0635 -0.1113,-0.085 -0.0462,-0.0215 -0.0945,-0.0322 -0.1455,-0.0322 -0.0837,0 -0.1558,0.0271 -0.2159,0.081 -0.044,0.0392 -0.0773,0.0982 -0.0998,0.1768l0.6366 0zm0.3252 -0.3412l0.1092 0 0 0.1478c0.0384,-0.0545 0.0775,-0.0942 0.1181,-0.1194 0.0555,-0.0335 0.114,-0.0504 0.1752,-0.0504 0.0413,0 0.0807,0.0083 0.118,0.0244 0.037,0.0163 0.0676,0.0378 0.091,0.0649 0.0236,0.0271 0.044,0.0657 0.0614,0.1159 0.0368,-0.0671 0.0826,-0.118 0.1376,-0.1529 0.055,-0.0349 0.1141,-0.0523 0.1777,-0.0523 0.059,0 0.1113,0.015 0.1566,0.0448 0.0454,0.03 0.0792,0.0716 0.1012,0.125 0.022,0.0534 0.033,0.1336 0.033,0.2407l0 0.4668 -0.1124 0 0 -0.4668c0,-0.0918 -0.0067,-0.1549 -0.0196,-0.1892 -0.0132,-0.0343 -0.0357,-0.062 -0.0674,-0.0829 -0.0316,-0.0209 -0.0694,-0.0314 -0.1134,-0.0314 -0.0537,0 -0.1025,0.0156 -0.1468,0.0472 -0.0443,0.0314 -0.0765,0.0733 -0.0971,0.1256 -0.0204,0.0526 -0.0306,0.14 -0.0306,0.2627l0 0.3348 -0.1092 0 0 -0.4379c0,-0.1033 -0.0065,-0.1733 -0.0193,-0.2103 -0.0129,-0.0368 -0.0352,-0.0666 -0.0671,-0.0888 -0.0319,-0.0223 -0.07,-0.0333 -0.114,-0.0333 -0.051,0 -0.0985,0.0153 -0.1428,0.0459 -0.0442,0.0308 -0.077,0.0719 -0.0982,0.1239 -0.0212,0.0518 -0.0319,0.1312 -0.0319,0.238l0 0.3625 -0.1092 0 0 -0.8553zm2.8085 0l0 0.8553 -0.1084 0 0 -0.147c-0.0461,0.056 -0.0979,0.0982 -0.1553,0.1266 -0.0574,0.0282 -0.1202,0.0424 -0.1884,0.0424 -0.121,0 -0.2243,-0.044 -0.3101,-0.1317 -0.0856,-0.0878 -0.1285,-0.1946 -0.1285,-0.3204 0,-0.1231 0.0434,-0.2283 0.1298,-0.3158 0.0864,-0.0874 0.1905,-0.1314 0.3121,-0.1314 0.0703,0 0.1338,0.015 0.1905,0.0448 0.0568,0.03 0.1067,0.0748 0.1499,0.1344l0 -0.1572 0.1084 0zm-0.4402 0.0842c-0.0612,0 -0.1178,0.015 -0.1699,0.0451 -0.0518,0.0303 -0.0931,0.0724 -0.1237,0.1272 -0.0306,0.0544 -0.0458,0.1121 -0.0458,0.1727 0,0.0604 0.0152,0.1181 0.0461,0.1731 0.0311,0.055 0.0724,0.0977 0.1248,0.1285 0.052,0.0306 0.1081,0.0459 0.1676,0.0459 0.0604,0 0.1176,-0.0153 0.1715,-0.0456 0.0539,-0.0303 0.0955,-0.0714 0.1245,-0.1234 0.0292,-0.0518 0.0437,-0.1103 0.0437,-0.1752 0,-0.099 -0.0327,-0.1819 -0.0979,-0.2485 -0.0652,-0.0665 -0.1454,-0.0998 -0.2409,-0.0998zm0.6715 -0.4142l0.11 0 0 1.1853 -0.11 0 0 -1.1853zm0.3222 0l0.11 0 0 1.1853 -0.11 0 0 -1.1853zm0.5093 0l0 0.8961 -0.1141 0 0 -0.8961 0.1141 0zm-0.0559 1.0122c0.0266,0 0.0494,0.0097 0.0685,0.0285 0.0187,0.0188 0.0281,0.0418 0.0281,0.0692 0,0.0266 -0.0094,0.0496 -0.0281,0.0687 -0.0191,0.019 -0.0419,0.0287 -0.0685,0.0287 -0.0268,0 -0.0496,-0.0097 -0.0684,-0.0287 -0.0188,-0.0191 -0.0284,-0.0421 -0.0284,-0.0687 0,-0.0274 0.0096,-0.0504 0.0284,-0.0692 0.0188,-0.0188 0.0416,-0.0285 0.0684,-0.0285z"/>
  <path class="fil5" d="M0.5937 14.5262c0.0214,0.0019 0.0403,0.0034 0.0574,0.0044 0.0168,0.0009 0.0323,0.0012 0.0462,0.0012 0.0872,0 0.1552,-0.0223 0.2032,-0.0667 0.0481,-0.0447 0.0723,-0.1073 0.0723,-0.188 0,-0.0701 -0.0226,-0.126 -0.0676,-0.1672 -0.0453,-0.0413 -0.1064,-0.0618 -0.1834,-0.0618 -0.0198,0 -0.0406,0.001 -0.0617,0.0028 -0.0211,0.0019 -0.0428,0.0044 -0.0645,0.0081 -0.0013,0.0617 -0.0019,0.126 -0.0022,0.1923 -0.0003,0.0664 -0.0003,0.158 0.0003,0.2749zm-0.5454 0.5383c0.005,0.0006 0.0108,0.0009 0.0177,0.0013 0.0071,0.0003 0.0167,0.0006 0.0294,0.0006 0.0515,0 0.0872,-0.0121 0.1071,-0.0363 0.0195,-0.0245 0.0295,-0.0692 0.0295,-0.1347l0 -0.2929 0 -0.4408c0,-0.0667 -0.0103,-0.112 -0.0311,-0.1359 -0.0204,-0.0239 -0.0586,-0.036 -0.1145,-0.036l-0.03 0 0 -0.1108c0.0958,0.0038 0.1625,0.0059 0.2004,0.0072 0.0381,0.0012 0.0682,0.0018 0.0906,0.0018 0.054,0 0.13,-0.0028 0.2277,-0.0086 0.0977,-0.0056 0.1678,-0.0084 0.2094,-0.0084 0.1734,0 0.3087,0.0347 0.4055,0.1045 0.0971,0.0698 0.1455,0.1657 0.1455,0.2883 0,0.1324 -0.0506,0.2361 -0.1517,0.3108 -0.1014,0.0745 -0.2429,0.1117 -0.4247,0.1117 -0.0242,0 -0.05,-0.0006 -0.0773,-0.0022 -0.0273,-0.0015 -0.0558,-0.004 -0.0862,-0.0068l-0.001 0.1582c0,0.0993 0.0097,0.1626 0.0292,0.1899 0.0192,0.0273 0.0568,0.041 0.1126,0.041 0.0037,0 0.0093,-0.0003 0.0168,-0.001 0.0074,-0.0006 0.0136,-0.0009 0.0186,-0.0009l0 0.108c-0.0968,-0.0047 -0.1731,-0.0081 -0.228,-0.01 -0.0553,-0.0018 -0.1027,-0.0027 -0.1428,-0.0027 -0.031,0 -0.0757,0.0012 -0.134,0.004 -0.0586,0.0028 -0.1315,0.0068 -0.2187,0.0124l0 -0.1117zm1.4082 -1.1855c0.0217,0.0007 0.053,0.0019 0.0937,0.0038 0.12,0.0046 0.2007,0.0071 0.2426,0.0071 0.0617,0 0.1669,-0.0031 0.3152,-0.009 0.0248,-0.0012 0.0434,-0.0019 0.0555,-0.0019l0 0.1145c-0.0055,-0.0006 -0.0108,-0.0012 -0.0164,-0.0015 -0.0053,-0.0003 -0.0136,-0.0003 -0.0245,-0.0003 -0.0515,0 -0.0863,0.0133 -0.1046,0.04 -0.0183,0.0267 -0.0273,0.0847 -0.0273,0.1743 0,0.0153 0.0003,0.0435 0.001,0.0841 0.0006,0.041 0.0009,0.0745 0.0009,0.1005l0 0.5957c0.0279,0.0028 0.0602,0.0053 0.0968,0.0069 0.0366,0.0015 0.0825,0.0021 0.1377,0.0021 0.1043,0 0.1791,-0.0167 0.2244,-0.0499 0.0456,-0.0335 0.084,-0.0962 0.1157,-0.1883l0.1216 0.0372c-0.0217,0.0667 -0.041,0.1318 -0.0574,0.1951 -0.0161,0.0633 -0.0301,0.1257 -0.0416,0.1868 -0.1939,-0.0068 -0.3363,-0.0112 -0.4272,-0.0133 -0.0909,-0.0022 -0.1694,-0.0031 -0.2355,-0.0031 -0.0605,0 -0.1278,0.0012 -0.2016,0.0037 -0.0739,0.0025 -0.171,0.0065 -0.2917,0.0127l0 -0.1117 0.0354 0c0.0425,0 0.0732,-0.0046 0.0922,-0.0136 0.0192,-0.009 0.0331,-0.0258 0.0421,-0.05 0.0069,-0.0189 0.0115,-0.053 0.0143,-0.1027 0.0028,-0.0499 0.004,-0.1601 0.004,-0.331l0 -0.1173c0,-0.0285 0.0004,-0.0655 0.001,-0.1104 0.0006,-0.0453 0.0009,-0.0761 0.0009,-0.0925 0,-0.1077 -0.0087,-0.1781 -0.0261,-0.2103 -0.017,-0.0326 -0.0499,-0.0488 -0.0983,-0.0488 -0.0115,0 -0.0202,0.0004 -0.0261,0.0007 -0.0055,0.0003 -0.0111,0.0006 -0.0167,0.0012l0 -0.1108zm1.9911 0.2793l-0.1781 0.4334c0.0202,0.0006 0.0457,0.0015 0.077,0.0025 0.031,0.0009 0.0506,0.0012 0.0586,0.0012 0.0307,0 0.0847,-0.0009 0.1617,-0.0028 0.0152,-0.0006 0.0263,-0.0009 0.0338,-0.0009l-0.153 -0.4334zm-0.0651 -0.2945l0.3316 0c0.081,0.2225 0.1586,0.4297 0.2327,0.6218 0.0739,0.192 0.134,0.3434 0.1809,0.4545 0.0211,0.0537 0.0434,0.0881 0.0673,0.1027 0.0236,0.0146 0.0611,0.0217 0.1126,0.0217l0.01 0 -0.001 0.1117c-0.0744,-0.0043 -0.143,-0.0074 -0.2057,-0.0096 -0.0629,-0.0022 -0.1169,-0.0031 -0.1622,-0.0031 -0.0456,0 -0.0996,0.0009 -0.1623,0.0031 -0.0626,0.0022 -0.1315,0.0053 -0.206,0.0096l0 -0.1117 0.0127 0c0.0522,0 0.0888,-0.0065 0.1102,-0.0195 0.0211,-0.0131 0.0316,-0.0351 0.0316,-0.0661 0,-0.009 -0.0018,-0.0205 -0.0053,-0.0345 -0.0037,-0.0139 -0.009,-0.0291 -0.0155,-0.0456l-0.0481 -0.1244c-0.0322,-0.0006 -0.067,-0.0012 -0.1045,-0.0015 -0.0376,-0.0003 -0.094,-0.0003 -0.1691,-0.0003 -0.0279,0 -0.058,0 -0.09,0.0003 -0.0322,0.0003 -0.0661,0.0009 -0.1017,0.0015 -0.0031,0.0059 -0.0072,0.0146 -0.0118,0.0255 -0.0394,0.0871 -0.0593,0.1439 -0.0593,0.17 0,0.0335 0.0103,0.0571 0.031,0.071 0.0205,0.014 0.0578,0.0217 0.1117,0.0236l0 0.1117c-0.0946,-0.0056 -0.1597,-0.009 -0.1954,-0.0105 -0.0357,-0.0016 -0.0655,-0.0022 -0.0891,-0.0022 -0.0266,0 -0.0589,0.0006 -0.0971,0.0022 -0.0381,0.0015 -0.1002,0.0049 -0.1855,0.0105l0 -0.1117c0.094,0 0.1632,-0.0475 0.2082,-0.1427 0.0065,-0.014 0.0118,-0.0245 0.0155,-0.0317 0.0797,-0.1675 0.1573,-0.3356 0.2327,-0.5053 0.0751,-0.1698 0.1486,-0.3435 0.2209,-0.521zm0.816 0.0152c0.0624,0.0038 0.1232,0.0062 0.1827,0.0081 0.0593,0.0019 0.117,0.0028 0.1728,0.0028 0.0435,0 0.0956,-0.0009 0.1564,-0.0028 0.0605,-0.0019 0.1312,-0.0043 0.2125,-0.0081l0 0.1108c-0.0446,0 -0.0772,0.0056 -0.0971,0.0164 -0.0201,0.0109 -0.0301,0.028 -0.0301,0.0509 0,0.0096 0.0028,0.0217 0.0087,0.0363 0.0056,0.0146 0.0174,0.0379 0.0351,0.0701l0.1635 0.3053c0.0223,-0.044 0.053,-0.1024 0.0918,-0.1743 0.0714,-0.1347 0.1074,-0.2132 0.1074,-0.2355 0,-0.0248 -0.009,-0.0428 -0.0264,-0.0534 -0.0177,-0.0105 -0.0487,-0.0158 -0.0928,-0.0158l0 -0.1108c0.0152,0.0007 0.0366,0.0016 0.0646,0.0028 0.0949,0.0053 0.1604,0.0081 0.196,0.0081 0.0342,0 0.0993,-0.0028 0.1955,-0.0081 0.0285,-0.0012 0.0506,-0.0021 0.0664,-0.0028l0 0.1108c-0.0031,-0.0006 -0.0065,-0.0009 -0.0109,-0.0012 -0.0043,-0.0003 -0.0096,-0.0007 -0.0164,-0.0007 -0.0593,0 -0.1216,0.0553 -0.1871,0.1657 -0.0115,0.0193 -0.0208,0.0345 -0.0273,0.0453l-0.2718 0.4564 0 0.2401c0,0.0667 0.0096,0.1117 0.0292,0.1356 0.0192,0.0236 0.0555,0.0354 0.1089,0.0354 0.0115,0 0.0205,-0.0003 0.0264,-0.0006 0.0062,-0.0004 0.0117,-0.0007 0.0173,-0.0013l0.001 0.1117c-0.0903,-0.0056 -0.1648,-0.0093 -0.2231,-0.0115 -0.0586,-0.0022 -0.1061,-0.0031 -0.1424,-0.0031 -0.0382,0 -0.0869,0.0009 -0.1458,0.0031 -0.0593,0.0022 -0.1362,0.0059 -0.2315,0.0115l0 -0.1117c0.0062,0.0006 0.0127,0.0009 0.0196,0.0013 0.0071,0.0003 0.0164,0.0006 0.0285,0.0006 0.054,0 0.0909,-0.0118 0.1101,-0.0354 0.0196,-0.0239 0.0292,-0.0689 0.0292,-0.1356l0 -0.2293 -0.3202 -0.5255c-0.004,-0.0065 -0.0099,-0.0161 -0.017,-0.0289 -0.0497,-0.0813 -0.104,-0.1219 -0.1629,-0.1219l-0.0208 0 0 -0.1108zm2.0005 0.6472c0.0214,0.0019 0.0403,0.0034 0.0574,0.0044 0.0168,0.0009 0.0323,0.0012 0.0462,0.0012 0.0872,0 0.1552,-0.0223 0.2032,-0.0667 0.0481,-0.0447 0.0723,-0.1073 0.0723,-0.188 0,-0.0701 -0.0226,-0.126 -0.0676,-0.1672 -0.0453,-0.0413 -0.1064,-0.0618 -0.1834,-0.0618 -0.0198,0 -0.0406,0.001 -0.0617,0.0028 -0.0211,0.0019 -0.0428,0.0044 -0.0645,0.0081 -0.0013,0.0617 -0.0019,0.126 -0.0022,0.1923 -0.0003,0.0664 -0.0003,0.158 0.0003,0.2749zm-0.5454 0.5383c0.005,0.0006 0.0108,0.0009 0.0177,0.0013 0.0071,0.0003 0.0167,0.0006 0.0294,0.0006 0.0515,0 0.0872,-0.0121 0.1071,-0.0363 0.0195,-0.0245 0.0295,-0.0692 0.0295,-0.1347l0 -0.2929 0 -0.4408c0,-0.0667 -0.0103,-0.112 -0.0311,-0.1359 -0.0204,-0.0239 -0.0586,-0.036 -0.1145,-0.036l-0.03 0 0 -0.1108c0.0958,0.0038 0.1625,0.0059 0.2004,0.0072 0.0381,0.0012 0.0682,0.0018 0.0906,0.0018 0.054,0 0.13,-0.0028 0.2277,-0.0086 0.0977,-0.0056 0.1678,-0.0084 0.2094,-0.0084 0.1734,0 0.3087,0.0347 0.4055,0.1045 0.0971,0.0698 0.1455,0.1657 0.1455,0.2883 0,0.1324 -0.0506,0.2361 -0.1517,0.3108 -0.1014,0.0745 -0.2429,0.1117 -0.4247,0.1117 -0.0242,0 -0.05,-0.0006 -0.0773,-0.0022 -0.0273,-0.0015 -0.0558,-0.004 -0.0862,-0.0068l-0.001 0.1582c0,0.0993 0.0097,0.1626 0.0292,0.1899 0.0192,0.0273 0.0568,0.041 0.1126,0.041 0.0037,0 0.0093,-0.0003 0.0168,-0.001 0.0074,-0.0006 0.0136,-0.0009 0.0186,-0.0009l0 0.108c-0.0968,-0.0047 -0.1731,-0.0081 -0.228,-0.01 -0.0553,-0.0018 -0.1027,-0.0027 -0.1428,-0.0027 -0.031,0 -0.0757,0.0012 -0.134,0.004 -0.0586,0.0028 -0.1315,0.0068 -0.2187,0.0124l0 -0.1117zm2.1807 -1.0337c-0.1126,0 -0.1998,0.0418 -0.2612,0.1253 -0.0615,0.0838 -0.0922,0.2023 -0.0922,0.3555 0,0.1642 0.0304,0.2895 0.0912,0.3754 0.0609,0.086 0.1502,0.1291 0.2678,0.1291 0.1083,0 0.1914,-0.0409 0.2497,-0.1228 0.0581,-0.0816 0.0872,-0.1989 0.0872,-0.3516 0,-0.1632 -0.0301,-0.2891 -0.0899,-0.3778 -0.0599,-0.0888 -0.144,-0.1331 -0.2526,-0.1331zm-0.7725 0.501c0,-0.1976 0.0748,-0.3621 0.224,-0.4933 0.1495,-0.1312 0.3369,-0.1967 0.5631,-0.1967 0.2187,0 0.3977,0.0645 0.537,0.1939 0.1393,0.1294 0.2091,0.2954 0.2091,0.498 0,0.1973 -0.0726,0.3602 -0.2178,0.488 -0.1448,0.1278 -0.3304,0.1917 -0.5565,0.1917 -0.2284,0 -0.4121,-0.0623 -0.5507,-0.1874 -0.1387,-0.1247 -0.2082,-0.2894 -0.2082,-0.4942zm2.5403 -0.6528c0.0903,0.005 0.1573,0.0081 0.2007,0.01 0.0431,0.0018 0.0794,0.0028 0.1086,0.0028 0.0285,0 0.0636,-0.001 0.1058,-0.0028 0.0422,-0.0019 0.1064,-0.005 0.1924,-0.01l0 0.1108c-0.0038,-0.0006 -0.0072,-0.0009 -0.0109,-0.0012 -0.0037,-0.0003 -0.0093,-0.0007 -0.0174,-0.0007 -0.0412,0 -0.0819,0.0118 -0.1222,0.0351 -0.0403,0.0233 -0.1027,0.0757 -0.1868,0.1567l-0.2473 0.2429 0.3782 0.4263c0.0146,0.0164 0.0345,0.0397 0.0599,0.0701 0.0825,0.0984 0.1536,0.1474 0.2135,0.1474 0.0087,0 0.0149,-0.0003 0.0192,-0.0006 0.0043,-0.0004 0.0081,-0.0007 0.0118,-0.0013l0 0.1117c-0.0788,-0.0037 -0.1409,-0.0062 -0.1865,-0.0074 -0.0453,-0.001 -0.0834,-0.0016 -0.1144,-0.0016 -0.0218,0 -0.0522,0.0006 -0.091,0.0016 -0.0387,0.0012 -0.0989,0.0037 -0.1808,0.0074 0.0012,-0.0031 0.0021,-0.0059 0.0028,-0.0087 0.0006,-0.0028 0.0009,-0.0074 0.0009,-0.0139 0,-0.0432 -0.0878,-0.1645 -0.2637,-0.3637 -0.0903,-0.1017 -0.1626,-0.1846 -0.2172,-0.2482l0.3127 -0.3192c0.0562,-0.0568 0.0928,-0.0971 0.1096,-0.1204 0.0167,-0.0233 0.0251,-0.0425 0.0251,-0.0577 0,-0.0183 -0.0084,-0.0319 -0.0251,-0.0409 -0.0168,-0.009 -0.0425,-0.0137 -0.0779,-0.0137l0 -0.1108zm-0.8706 0c0.0726,0.0044 0.1378,0.0075 0.1955,0.0097 0.0574,0.0021 0.1036,0.0031 0.139,0.0031 0.0546,0 0.1117,-0.001 0.1715,-0.0031 0.0602,-0.0022 0.1223,-0.0053 0.1865,-0.0097l0 0.1108 -0.0264 0c-0.0552,0 -0.0921,0.0137 -0.1113,0.041 -0.019,0.0273 -0.0286,0.1023 -0.0286,0.2255l0 0.0152 0 0.5566c0,0.1073 0.0093,0.1737 0.0282,0.1995 0.0187,0.0257 0.055,0.0388 0.108,0.0388 0.0109,0 0.0196,-0.0003 0.0261,-0.0006 0.0062,-0.0004 0.0118,-0.0004 0.0167,-0.0004l0 0.1089c-0.0968,-0.0049 -0.1719,-0.008 -0.2249,-0.0099 -0.0531,-0.0019 -0.0984,-0.0028 -0.1359,-0.0028 -0.0316,0 -0.0754,0.0009 -0.1319,0.0031 -0.0561,0.0022 -0.1331,0.0059 -0.2298,0.0115l0 -0.1117c0.0049,0 0.0111,0.0003 0.0186,0.0009 0.0074,0.0007 0.0133,0.001 0.0167,0.001 0.0565,0 0.094,-0.0121 0.1133,-0.0363 0.0192,-0.0245 0.0285,-0.0751 0.0285,-0.1521 0,-0.0121 0.0006,-0.0515 0.0016,-0.1185 0.0009,-0.067 0.0015,-0.1259 0.0021,-0.1768l0.0019 -0.1309 0 -0.0857c0,-0.0223 0.0003,-0.0518 0.0009,-0.0881 0.0006,-0.0363 0.0009,-0.0614 0.0009,-0.0754 0,-0.0896 -0.0096,-0.1476 -0.0288,-0.1737 -0.0189,-0.0261 -0.0555,-0.0391 -0.1095,-0.0391l-0.0289 0 0 -0.1108zm1.6341 0c0.1005,0.005 0.1967,0.0084 0.2882,0.0109 0.0915,0.0025 0.1747,0.0037 0.2491,0.0037 0.0903,0 0.1865,-0.0009 0.2886,-0.0031 0.102,-0.0021 0.2178,-0.0053 0.3468,-0.0096 0,0.0574 0.0022,0.1154 0.0068,0.1741 0.0047,0.0583 0.0115,0.1175 0.0205,0.1774l-0.1092 0.0183c-0.0133,-0.0775 -0.0416,-0.1306 -0.0853,-0.1594 -0.0437,-0.0289 -0.1229,-0.0432 -0.2373,-0.0432 -0.0401,0 -0.0788,0.0007 -0.1167,0.0019 -0.0378,0.0012 -0.0751,0.0031 -0.1114,0.0053 -0.0012,0.0245 -0.0021,0.0499 -0.0025,0.0769 -0.0003,0.027 -0.0003,0.0658 -0.0003,0.1167l0 0.0992 0 0.0947 0.0509 0c0.0261,0 0.0593,0.0003 0.0999,0.0009 0.0407,0.0006 0.068,0.0009 0.0819,0.0009 0.0841,0 0.139,-0.0087 0.1641,-0.0263 0.0252,-0.0177 0.0382,-0.0509 0.0394,-0.0999l0.1037 0.0127c-0.0047,0.0586 -0.0081,0.1055 -0.01,0.1399 -0.0018,0.0344 -0.0028,0.0648 -0.0028,0.0909 0,0.0199 0.001,0.0599 0.0028,0.1198 0.0007,0.0201 0.001,0.0353 0.001,0.0456l-0.1046 0.0118 0 -0.0156c0,-0.0527 -0.0133,-0.0881 -0.04,-0.1064 -0.0267,-0.0183 -0.0863,-0.0273 -0.179,-0.0273 -0.0146,0 -0.0413,0.0003 -0.0801,0.001 -0.0387,0.0006 -0.0704,0.0009 -0.0952,0.0009l-0.032 0 0 0.098 0 0.1384c0,0.0254 0,0.0518 0.0003,0.0794 0.0004,0.0276 0.001,0.0568 0.0016,0.0878 0.0453,0.0044 0.0875,0.0072 0.126,0.009 0.0384,0.0019 0.0738,0.0028 0.1067,0.0028 0.1418,0 0.2373,-0.0158 0.2863,-0.0471 0.0491,-0.0317 0.0897,-0.0934 0.122,-0.1856l0.1135 0.0354c-0.0211,0.0661 -0.04,0.1297 -0.0558,0.1905 -0.0162,0.0608 -0.0301,0.1194 -0.0416,0.1759 -0.1883,-0.0056 -0.3369,-0.0093 -0.4458,-0.0115 -0.1089,-0.0022 -0.1949,-0.0031 -0.2578,-0.0031 -0.0636,0 -0.1366,0.0013 -0.2191,0.0037 -0.0825,0.0025 -0.1781,0.0059 -0.2873,0.0109l0 -0.112c0.005,0 0.0115,0.0003 0.0196,0.0009 0.008,0.0007 0.0139,0.001 0.0177,0.001 0.0297,0 0.0533,-0.0028 0.071,-0.0087 0.0177,-0.0056 0.0317,-0.0152 0.0428,-0.0286 0.0134,-0.0158 0.0224,-0.0412 0.0276,-0.0763 0.0053,-0.035 0.0078,-0.1033 0.0078,-0.2044l0 -0.0519 0 -0.0918 0 -0.1263c0,-0.0431 0.0006,-0.0881 0.0018,-0.1352 0,-0.0106 0,-0.0168 0,-0.0193 0,-0.0217 0.0004,-0.0499 0.001,-0.084 0.0006,-0.0342 0.0009,-0.0578 0.0009,-0.0705 0,-0.0757 -0.0099,-0.1247 -0.0298,-0.1473 -0.0195,-0.0224 -0.0564,-0.0335 -0.1104,-0.0335 -0.0031,0 -0.0087,0.0003 -0.0171,0.0009 -0.0087,0.0006 -0.0149,0.0009 -0.0192,0.0009l0 -0.1111zm0.4536 -0.1681l0.2444 -0.3816 0.2346 0.1173 -0.3636 0.309 -0.1154 -0.0447zm1.8525 0.9217l0.1917 -0.4408c0.0037,-0.0087 0.009,-0.0211 0.0164,-0.0373 0.0562,-0.129 0.085,-0.2209 0.0863,-0.2755 0.0782,0.0031 0.1396,0.0053 0.184,0.0069 0.0446,0.0015 0.0803,0.0021 0.1076,0.0021 0.0292,0 0.0664,-0.0006 0.1114,-0.0021 0.0453,-0.0016 0.1086,-0.0038 0.1905,-0.0069l0 0.1127c-0.0704,0 -0.116,0.008 -0.1371,0.0242 -0.0214,0.0158 -0.032,0.0465 -0.032,0.0912 0,0.0115 0.0016,0.045 0.005,0.1002 0.0034,0.0549 0.0077,0.116 0.0133,0.1827l0.0137 0.1626c0.0028,0.0382 0.0065,0.0897 0.0108,0.1545 0.0134,0.1784 0.0276,0.2826 0.0428,0.3127 0.0084,0.0159 0.0214,0.0276 0.0391,0.0351 0.0174,0.0077 0.0407,0.0115 0.0689,0.0115 0.0037,0 0.009,-0.0003 0.0161,-0.001 0.0069,-0.0006 0.0121,-0.0009 0.0159,-0.0009l-0.001 0.1117c-0.0738,-0.0043 -0.1418,-0.0074 -0.2035,-0.0096 -0.062,-0.0022 -0.1154,-0.0031 -0.161,-0.0031 -0.04,0 -0.0894,0.0009 -0.1477,0.0031 -0.0586,0.0022 -0.1238,0.0053 -0.1961,0.0096l-0.0006 -0.1117 0.0264 0c0.0586,0 0.0986,-0.0087 0.1204,-0.0261 0.0214,-0.017 0.0322,-0.0487 0.0322,-0.0949 0,-0.0223 -0.0003,-0.0391 -0.0006,-0.0499 -0.0003,-0.0109 -0.0006,-0.0208 -0.0012,-0.0301l-0.0429 -0.6292 -0.309 0.7039c-0.0279,0.0636 -0.0484,0.1133 -0.0614,0.149 -0.013,0.0356 -0.022,0.0654 -0.0267,0.089l-0.1644 0c-0.005,-0.0273 -0.0121,-0.0568 -0.0211,-0.0881 -0.009,-0.0317 -0.0239,-0.0748 -0.0444,-0.13l-0.2801 -0.7427c-0.0205,0.1926 -0.0363,0.3527 -0.0478,0.4799 -0.0112,0.1272 -0.0168,0.2094 -0.0168,0.2464 0,0.0468 0.0103,0.0788 0.0305,0.0964 0.0204,0.0177 0.0586,0.0264 0.1151,0.0264l0.0108 0 0 0.1117c-0.0822,-0.0056 -0.143,-0.009 -0.1821,-0.0105 -0.0391,-0.0016 -0.072,-0.0022 -0.0987,-0.0022 -0.0319,0 -0.1067,0.0037 -0.2233,0.0108l-0.032 0.0019 0 -0.1117c0.0037,0 0.0093,0.0003 0.0168,0.0009 0.0077,0.0007 0.0133,0.001 0.0167,0.001 0.0382,0 0.067,-0.0059 0.0859,-0.0177 0.0193,-0.0118 0.0332,-0.0326 0.0422,-0.0624 0.0069,-0.0201 0.0187,-0.1011 0.0354,-0.2435 0.0081,-0.0649 0.0143,-0.1167 0.0192,-0.1548l0.0255 -0.2126c0.0096,-0.0769 0.0167,-0.1386 0.0214,-0.1852 0.0043,-0.0462 0.0068,-0.0782 0.0068,-0.0958 0,-0.0388 -0.009,-0.0658 -0.0264,-0.0813 -0.0176,-0.0155 -0.0496,-0.0233 -0.0964,-0.0233 -0.0035,0 -0.0093,0.0003 -0.0171,0.0009 -0.0081,0.0007 -0.014,0.001 -0.0183,0.001l0 -0.1108c0.0565,0.0025 0.1086,0.004 0.1564,0.0053 0.0477,0.0012 0.0899,0.0018 0.1262,0.0018 0.0369,0 0.0804,-0.0009 0.13,-0.0031 0.0497,-0.0021 0.1145,-0.0055 0.1945,-0.0105l0 0.0084c0,0.0415 0.0395,0.1635 0.1183,0.3654 0.0611,0.1558 0.1095,0.2839 0.1455,0.3844zm1.7861 -0.6018c-0.1126,0 -0.1998,0.0418 -0.2612,0.1253 -0.0615,0.0838 -0.0922,0.2023 -0.0922,0.3555 0,0.1642 0.0304,0.2895 0.0912,0.3754 0.0609,0.086 0.1502,0.1291 0.2678,0.1291 0.1083,0 0.1914,-0.0409 0.2497,-0.1228 0.0581,-0.0816 0.0872,-0.1989 0.0872,-0.3516 0,-0.1632 -0.0301,-0.2891 -0.0899,-0.3778 -0.0599,-0.0888 -0.144,-0.1331 -0.2526,-0.1331zm-0.7725 0.501c0,-0.1976 0.0748,-0.3621 0.224,-0.4933 0.1495,-0.1312 0.3369,-0.1967 0.5631,-0.1967 0.2187,0 0.3977,0.0645 0.537,0.1939 0.1393,0.1294 0.2091,0.2954 0.2091,0.498 0,0.1973 -0.0726,0.3602 -0.2178,0.488 -0.1448,0.1278 -0.3304,0.1917 -0.5565,0.1917 -0.2284,0 -0.4121,-0.0623 -0.5507,-0.1874 -0.1387,-0.1247 -0.2082,-0.2894 -0.2082,-0.4942zm1.6254 -0.6528c0.0828,0.005 0.1461,0.0081 0.1892,0.01 0.0434,0.0018 0.0801,0.0028 0.1095,0.0028 0.0388,0 0.0829,-0.001 0.1316,-0.0031 0.0487,-0.0022 0.1011,-0.0053 0.1576,-0.0097 0.0068,0.0242 0.0183,0.0497 0.035,0.0757 0.0168,0.0264 0.0484,0.0677 0.095,0.1232l0.5305 0.6258c0.0006,-0.0583 0.0012,-0.1136 0.0016,-0.1657 0.0003,-0.0521 0.0003,-0.1011 0.0003,-0.1474 0,-0.0235 0.0003,-0.0542 0.0009,-0.0921 0.0006,-0.0378 0.0009,-0.0639 0.0009,-0.0779 0,-0.0974 -0.0096,-0.1607 -0.0285,-0.1895 -0.0193,-0.0286 -0.0556,-0.0432 -0.1095,-0.0432 -0.0097,0 -0.0174,0.0004 -0.0227,0.0007 -0.0056,0.0003 -0.0108,0.0006 -0.0164,0.0012l0 -0.1108c0.0443,0.0044 0.0884,0.0075 0.1321,0.0097 0.0441,0.0021 0.0913,0.0031 0.1415,0.0031 0.0478,0 0.094,-0.001 0.1387,-0.0031 0.0444,-0.0022 0.0893,-0.0053 0.135,-0.0097l0 0.1108c-0.0546,0 -0.0916,0.0043 -0.1111,0.013 -0.0192,0.009 -0.0332,0.0252 -0.0416,0.0487 -0.0062,0.0196 -0.0108,0.0568 -0.0136,0.112 -0.0031,0.0553 -0.0053,0.167 -0.0066,0.3354l-0.0018 0.121c-0.0013,0.0928 -0.0022,0.18 -0.0028,0.2613 -0.0006,0.0815 -0.0009,0.1501 -0.0009,0.206 0,0.009 0.0006,0.022 0.0018,0.039 0.0013,0.0171 0.0031,0.036 0.0056,0.0571l-0.3037 0c-0.0078,-0.0161 -0.0186,-0.0341 -0.0326,-0.0539 -0.014,-0.0196 -0.0369,-0.0478 -0.0692,-0.0847l-0.6515 -0.7602c-0.0013,0.0525 -0.0022,0.1049 -0.0028,0.1567 -0.0006,0.0518 -0.0009,0.1145 -0.0009,0.1877l0 0.1728c0,0.1151 0.0093,0.1883 0.0282,0.2197 0.0186,0.031 0.0552,0.0468 0.1092,0.0468 0.0084,0 0.0217,-0.0009 0.04,-0.0028 0.0028,0 0.0056,-0.0003 0.0081,-0.0009l0 0.1117c-0.0655,-0.0037 -0.1232,-0.0062 -0.1731,-0.0081 -0.05,-0.0018 -0.0916,-0.0028 -0.1241,-0.0028 -0.0298,0 -0.0683,0.001 -0.1161,0.0028 -0.0474,0.0019 -0.1039,0.0044 -0.1694,0.0081l0 -0.1117c0.0056,0 0.0128,0.0003 0.0224,0.0009 0.0093,0.0007 0.0155,0.001 0.0186,0.001 0.0375,0 0.0658,-0.005 0.085,-0.0146 0.0189,-0.0096 0.0335,-0.0267 0.0441,-0.0509 0.0127,-0.0323 0.0211,-0.147 0.0254,-0.3447 0.0012,-0.0381 0.0019,-0.0673 0.0025,-0.0872l0.0037 -0.112c0.0006,-0.0301 0.0012,-0.0648 0.0016,-0.1039 0.0003,-0.0391 0.0003,-0.103 0.0003,-0.1914 0,-0.0686 -0.0106,-0.1145 -0.0314,-0.1384 -0.0208,-0.0236 -0.0608,-0.0354 -0.1194,-0.0354 -0.0121,0 -0.0214,0.0004 -0.0276,0.0007 -0.0065,0.0003 -0.0127,0.0006 -0.0186,0.0012l0 -0.1108z"/>
 </g>
</svg>
