<!DOCTYPE svg PUBLIC "-//W3C//DTD SVG 1.1//EN" "http://www.w3.org/Graphics/SVG/1.1/DTD/svg11.dtd">
<svg xmlns="http://www.w3.org/2000/svg" viewBox="0 0 564 564">
<path fill="#fbfbfb" stroke="#fbfbfb" d="M286.5 52.597c-65.482 6.559-115.729 31.754-156.085 78.263a318.2 318.2 0 0 1-5.128 5.761c-9.953 10.803-27.612 40.26-34.996 58.379-11.823 29.008-15.714 50.148-15.738 85.5-.032 45.903 8.572 79.469 29.297 114.294 1.732 2.912 3.15 5.504 3.15 5.761 0 1.08 19.138 28.09 20.863 29.445.351.275 2.375 2.662 4.499 5.305 2.124 2.642 4.042 4.625 4.262 4.405.332-.332.762-42.789.469-46.332-.051-.617-2.25-4.442-4.886-8.5-6.101-9.39-12.166-20.575-15.66-28.878-1.505-3.575-3.128-7.258-3.608-8.184-10.396-20.054-16.14-73.128-11.506-106.316 7.132-51.091 31.932-98.082 67.968-128.788a304.098 304.098 0 0 0 4.599-4.029c26.522-23.763 62.856-39.929 107.5-47.826 17.75-3.141 60.356-3.423 75.813-.503 11.993 2.265 13.546 1.635 2.982-1.21-19.667-5.297-54.985-8.43-73.795-6.547m6.5 30.478c-21.111 3.227-38.226 7.329-47.711 11.434-26.896 11.64-45.501 25.397-59.496 43.991-17.139 22.771-26.802 51.5-17.322 51.5 2.325 0 12.328-2.952 17.029-5.025 3.427-1.511 45.812-15.091 59.5-19.063 4.125-1.197 9.525-2.834 12-3.638 4.713-1.53 19.89-5.69 36-9.867 5.225-1.355 14.45-3.761 20.5-5.346 9.913-2.597 15.973-4.02 43-10.092a693.83 693.83 0 0 1 16.5-3.446c4.675-.907 11.425-2.29 15-3.073 3.575-.783 10.707-2.038 15.85-2.789 13.054-1.908 14.447-5.73 5.424-14.891-5.121-5.199-21.482-16.77-23.713-16.77-.767 0-1.544-.382-1.728-.848C383.39 94.023 367.605 88 365.091 88c-1.085 0-2.214-.389-2.508-.865-.554-.896-2.309-1.231-19.083-3.637-10.893-1.563-41.376-1.818-50.5-.423m44.5 10.713c11.703 3.457 21.147 7.305 22.5 9.169.275.379 1.285.978 2.244 1.332 5.688 2.099 7.093 10.94 2.76 17.361l-2.997 4.439 3.747-.628C376.266 123.7 383 119.671 383 115.142c0-6.52-13.701-17.228-26.339-20.585-2.838-.754-5.836-1.616-6.661-1.917-2.688-.978-8.338-1.711-17-2.206l-8.5-.486 13 3.84M214.481 123.76c-19.193 18.525-33.158 42.42-27.877 47.701 3.061 3.061 5.001.88 7.969-8.961 1.926-6.387 8.953-21.118 11.125-23.321.716-.727 1.302-1.698 1.302-2.159 0-1.077 8.128-11.276 13.365-16.77 6.895-7.233 2.579-4.659-5.884 3.51M405 132.139a2341.07 2341.07 0 0 1-13 2.294c-17.592 2.95-37.663 7.388-73 16.141-10.175 2.521-20.3 4.98-22.5 5.464-2.2.485-5.575 1.379-7.5 1.987-1.925.607-9.575 2.813-17 4.901-23.471 6.601-48.217 14.257-75.5 23.361-22.055 7.359-25.16 8.458-28.84 10.204l-3.66 1.737v7.186c0 11.992.128 12.001 29.422 2.196 25.647-8.584 43.064-14.103 60.578-19.195 24.31-7.068 59.305-16.69 67-18.422 1.925-.433 11.375-2.674 21-4.978 24.658-5.904 51.346-11.512 71.5-15.024 14.874-2.593 15.347-2.976 13.174-10.683-2.779-9.85-4.139-10.3-21.674-7.169m23 19.438c-39.493 7.025-69.822 13.686-112 24.595-47.718 12.343-43.449 11.162-73.5 20.327-6.05 1.845-17.3 5.225-25 7.511-7.7 2.286-14.9 4.54-16 5.009-1.1.469-7.85 2.719-15 5-15.501 4.946-26.532 9.894-35.444 15.898-15.958 10.752-24.558 23.009-16.771 23.903 2.444.28 12.444-2.362 18.215-4.814 1.1-.467 10.775-3.624 21.5-7.015 10.725-3.391 21.975-6.995 25-8.01 3.025-1.014 10.45-3.256 16.5-4.982 6.05-1.726 11.9-3.517 13-3.981 3.194-1.345 24.122-7.018 25.891-7.018.885 0 1.609-.36 1.609-.8 0-.44 2.813-1.374 6.25-2.077 3.438-.702 8.5-1.954 11.25-2.781 10.458-3.148 22.01-6.272 36.5-9.868C356.915 190.829 394.221 182 396.511 182c.834 0 2.298-.435 3.253-.967.955-.533 5.786-1.655 10.736-2.494 4.95-.84 13.275-2.436 18.5-3.548 9.43-2.006 21.216-4.277 38.5-7.418 12.703-2.308 12.5-2.21 12.5-5.989 0-3.836-3.004-5.561-14-8.038-6.419-1.446-33.153-2.832-38-1.969m32.781 28.976c-.554.553-3.683 1.153-17.781 3.407-3.025.483-9.325 1.582-14 2.441-4.675.859-9.062 1.57-9.75 1.581-.977.014-1.25 7.978-1.25 36.436 0 34.686.271 40.151 1.937 39.121.401-.248 8.885-1.824 18.855-3.504 25.661-4.323 25.511-4.228 25.003-15.804-.32-7.291-.188-7.178-6.795-5.799-1.375.287-5.777 1.125-9.782 1.862l-7.281 1.341.172-6.818c.169-6.692.221-6.817 2.865-6.817 4.892 0 13.598-2.168 16.01-3.988 2.511-1.894 4.314-13.186 2.392-14.976-.749-.696-11.848.735-19.126 2.467-2.049.487-2.25.176-2.25-3.484 0-2.21.477-4.019 1.059-4.019s.812-.4.51-.888c-.578-.936.924-1.347 11.431-3.125 9.17-1.552 11.188-3.937 10.793-12.763-.264-5.908-1.356-8.327-3.012-6.671m-54.134 10.134c-.446.446-21.775 5.212-32.647 7.295-2.475.475-7.65 1.573-11.5 2.44-3.849.868-8.012 1.578-9.25 1.578-2.143 0-2.25.374-2.25 7.889 0 11.889 2.238 13.737 14.25 11.767l4.75-.779.095 14.812c.119 18.626.777 38.516 1.29 39.029.215.215 4.362-.569 9.216-1.742 15.802-3.821 15.643-3.51 14.715-28.685-1.135-30.766-1.297-28.581 2.184-29.451 1.65-.412 4.691-1.016 6.758-1.342 5.494-.865 6.961-3.733 7.172-14.018.096-4.664-.074-8.514-.378-8.557a65.778 65.778 0 0 1-2.234-.401c-.925-.179-1.902-.105-2.171.165m-97.379 21.268c-8.607 3.098-15.01 8.427-18.064 15.035-1.363 2.95-1.68 8.664-1.987 35.818-.368 32.612.021 36.834 3.166 34.325.614-.49 3.786-1.657 7.047-2.593 3.889-1.115 7.074-2.844 9.25-5.02l3.32-3.32V261.443l6.75-1.73c3.712-.951 7.538-1.726 8.5-1.721.962.004 1.75-.469 1.75-1.051 0-2.276 1.776.196 2.361 3.288.341 1.799 1.607 6.91 2.815 11.357l2.195 8.087 4.31 1.272c3.675 1.086 5.341 1.02 11.323-.446 8.406-2.06 8.282-1.905 6.413-8.078-1.65-5.448-7.535-27.495-10.657-39.921-1.105-4.4-2.403-8.15-2.885-8.333-.481-.184-.875-.869-.875-1.522 0-2.367-6.043-8.445-10.46-10.521-5.881-2.764-16.848-2.841-24.272-.169m-145.294 18.323c-6.122 3.813-10.589 8.507-9.312 9.784 1.251 1.251 5.338.369 5.338-1.152 0-.525 1.866-2.979 4.146-5.453 4.801-5.208 4.745-6.242-.172-3.179m86.526-1.142c-2.2.508-9.625 2.823-16.5 5.146l-12.5 4.224-.262 39.495c-.144 21.722-.05 40.047.209 40.721.692 1.805 16.532-4.061 18.78-6.956 2.711-3.489 3.952-9.34 3.75-17.672-.101-4.177-.137-8.242-.08-9.034.056-.791 4.374 2.802 9.595 7.985 11.989 11.902 15.157 13.189 22.022 8.946 8.362-5.167 7.348-12.841-2.995-22.666l-7.553-7.175 4.89-6.459c15.337-20.264 3.875-41.91-19.356-36.555m63.07 2.045c-5.105 5.984-1.768 12.471 4.996 9.713 1.613-.658 4.005-1.089 5.315-.957 2.138.216 2.312-.048 1.705-2.598-1.758-7.385-8.168-10.67-12.016-6.158M205 244.877c-2.475.893-4.65 1.961-4.833 2.373-.184.412-1.016.75-1.849.75-5.316 0-10.298 4.958-12.421 12.359-1.119 3.904-1.249 71.689-.139 72.799.473.473 4.103-.25 8.127-1.619 18.489-6.288 18.211-5.486 17.878-51.548-.168-23.2-.624-36.399-1.263-36.531-.55-.113-3.025.524-5.5 1.417m40.822 2.894c-1.381.286-1.735 1.861-2 8.892-.412 10.929.084 11.6 4.944 6.691 7.704-7.781 5.884-17.414-2.944-15.583M151.5 263.635c-5.249 1.839-25.774 10.577-26.793 11.406-.864.703-1 80.676-.14 82.068.289.467 1.292.416 2.229-.114s4.691-2.292 8.341-3.916c10.001-4.449 10.863-6.14 10.863-21.308v-12.42l9.526-5.262c18.066-9.979 22.974-16.514 22.974-30.589 0-17.259-11.11-25.433-27-19.865m285 2.757c-25.889 8.245-40.554 24.708-45.525 51.108-1.278 6.783-.815 22.574.873 29.84 4.376 18.826 25.791 35.598 38.612 30.241 4.747-1.983 9.27-2.01 13.886-.081 5.021 2.098 8.397 1.883 16.123-1.024 8.89-3.347 14.259-6.143 17.417-9.071 1.426-1.323 2.946-2.405 3.376-2.405 1.216 0 6.738-9.174 6.738-11.196 0-.992.45-1.804 1-1.804.639 0 1-8.7 1-24.101v-24.1l-4.25.542c-5.968.761-12.735 2.075-23.75 4.614-5.225 1.204-11.525 2.614-14 3.132-7.598 1.59-7.9 1.779-7.55 4.71.177 1.487.373 5.431.436 8.764.165 8.777 2.193 10.71 10.773 10.269l6.432-.33-.295 5c-.394 6.657-5.652 9.838-15.339 9.28-11.531-.665-16.907-8.007-16.796-22.938.186-24.964 17.876-36.667 47.564-31.467 15.87 2.78 23.859-19.44 9.785-27.216-8.706-4.81-33.945-5.769-46.51-1.767m-61.89 17.275c-18.723 4.537-19.937 6.588-20.61 34.807l-.5 20.975-7.385-8.475a4766.778 4766.778 0 0 0-12.667-14.474c-2.906-3.3-6.456-7.427-7.889-9.172-3.083-3.754-10.003-7.335-14.125-7.311-3.071.019-22.105 5.321-23.265 6.481-.928.928-.847 113.158.083 114.087.413.413 4.922-.899 10.019-2.917 5.097-2.017 9.822-3.668 10.498-3.668.677 0 1.231-.378 1.231-.839 0-.462 1.091-1.337 2.425-1.945 1.334-.608 3.697-3.268 5.25-5.911l2.825-4.805v-22.25c0-12.237.225-22.243.5-22.236.275.007 2.167 1.944 4.204 4.304 2.037 2.36 4.737 5.415 6 6.79s4.546 5.143 7.296 8.374C356.246 396.329 358.293 398 366.085 398c9.18 0 14.801-3.376 18.036-10.833 1.757-4.051 1.879-7.613 1.879-54.691 0-27.697-.337-50.549-.75-50.782-.413-.233-5.201.654-10.64 1.973m-225.86-.095c-2.563 1.39-2.75 1.932-2.75 7.96 0 7.484.613 7.797 5.478 2.788 7.343-7.561 5.413-15.165-2.728-10.748m124.75 26.152c-1.1.27-2.45.837-3 1.26-.55.423-4.375 1.802-8.5 3.065-11.777 3.606-16.633 7.661-19.388 16.189-2.249 6.963-2.468 106.762-.234 106.762 1.268 0 6.24-1.786 11.122-3.994 1.1-.498 4.25-1.631 7-2.518 8.751-2.823 12.156-5.738 15.557-13.321 2.438-5.437 3.098-108.274.693-108.051-.687.064-2.15.337-3.25.608m-63.516 22.816c-2.516 1.731-6.62 7.622-14.416 20.69-5.994 10.049-12.607 20.958-14.694 24.244l-3.795 5.974-.026-17.878c-.029-19.896.117-19.202-3.752-17.751-5.171 1.938-27.639 11.362-31.106 13.047-1.303.633-1.924 112.146-.635 114.231.281.455 1.958.047 3.726-.909 1.768-.956 7.039-3.264 11.714-5.13 4.675-1.866 9.073-3.831 9.774-4.368.701-.536 1.539-.711 1.861-.388.984.984 5.299-4.863 6.865-9.303 1.081-3.062 1.496-9.049 1.551-22.339l.074-18.156 5.601 5.998c21.979 23.538 24.228 25.494 31.007 26.953 10.27 2.212 23.267-8.152 23.267-18.552 0-5.613-2.996-10.097-14.733-22.057-14.29-14.559-13.818-13.756-10.751-18.274 1.366-2.013 2.484-3.794 2.484-3.957 0-.538 9.465-16.055 11.754-19.269 1.235-1.735 2.246-3.454 2.246-3.82 0-.366 1.286-2.547 2.858-4.846 6.143-8.983 6.372-15.361.772-21.525-5.241-5.77-15.297-6.984-21.646-2.615M434.5 378.447c-.55.208-2.156.631-3.57.939-6.755 1.476-12.39 10.876-11.756 19.614.376 5.19 3.211 5.866 7.539 1.8 1.258-1.182 2.287-1.66 2.287-1.063 0 1.818-6.005 6.263-8.46 6.263-3.371 0-4.879-8.347-2.594-14.357 1.738-4.573-5.873-7.283-11.82-4.208-11.348 5.868-18.616 22.652-17.968 41.494 1.131 32.906-68.975 52.157-135.045 37.082-22.902-5.225-51.237-16.827-66.996-27.433-5.861-3.943-6.114-3.684-6.123 6.254-.008 9.684-1.49 13.89-6.595 18.712-2.419 2.285-4.399 4.382-4.399 4.659 0 .547 13.661 9.797 14.469 9.797.271 0 2.863 1.485 5.762 3.301 20.23 12.673 58.4 25.413 86.269 28.793 28.463 3.453 69.905 1.207 96.498-5.23 15.734-3.807 41.698-13.123 44.002-15.786.275-.318 3.077-1.805 6.226-3.305 18.29-8.712 48.118-33.533 52.341-43.557 3.015-7.154-.739-25.794-6.088-30.233-.813-.675-1.479-2.156-1.479-3.29 0-3.159-3.953-10.616-6.519-12.297-1.26-.826-2.565-2.594-2.9-3.93-1.872-7.456-16.669-16.444-23.081-14.019m-295.421 15.136c.048 1.165.285 1.402.604.605.289-.722.253-1.585-.079-1.917-.332-.332-.568.258-.525 1.312" fill-rule="evenodd"/>
<path fill="#f39d20" stroke="#f39d20" d="M281 53.617C208.454 62.344 152.982 95.511 113.112 154c-39.444 57.862-49.669 131.755-27.608 199.5 8.357 25.662 29.282 61.705 47.315 81.5l4.099 4.5.041-23.284.041-23.284-4.861-7.216c-44.513-66.07-44.267-162.839.586-230.716C181.323 81.455 267.361 45.772 360.5 60.534c7.461 1.183-2.557-1.818-14-4.193-11.662-2.42-53.546-4.162-65.5-2.724m8.853 30.89c-60.248 7.298-109.656 44.657-122.899 92.928-3.186 11.615.07 14.2 11.483 9.117 6.959-3.099 60.488-20.01 91.563-28.927 43.561-12.499 99.572-25.188 137.576-31.167 8.475-1.333 8.252-5.336-.795-14.238-15.326-15.081-38.681-25.124-65.596-28.208-11.719-1.343-38.274-1.087-51.332.495m23.062 4.567c-1.033.653-.667.9 1.352.911 5.029.028 25.541 4.916 33.487 7.98C361.442 103.244 367 108.257 367 115.324c0 2.216-4.192 8.595-6.25 9.509-.413.184-.75.904-.75 1.601 0 2.554 14.855-1.021 20.285-4.881 9.955-7.079-2.424-21.86-23.38-27.915-13.276-3.836-40.653-6.676-43.99-4.564M233.5 107.695c-26.394 14.21-59.907 62.404-45.847 65.933 3.391.851 3.891.152 7.881-11.013 7.446-20.832 18.937-36.749 38.966-53.972 3.464-2.979 3.213-3.216-1-.948M411 131.687c-65.461 10.854-140.922 30.359-218.5 56.477-26.857 9.042-27.247 9.274-27.546 16.336-.508 11.975.042 12.112 20.546 5.149 19.189-6.516 50.557-16.56 63-20.172l20.774-6.028c42.58-12.355 106.018-27.377 141.226-33.442 17.956-3.093 18.368-3.454 14.801-12.974-2.317-6.185-4.446-6.98-14.301-5.346m4.5 22.893c-6.6 1.32-15.6 3.123-20 4.007-24.675 4.953-68.13 15.365-106 25.398-37.178 9.849-109.699 32.462-122.471 38.188C150.472 229.597 132 244.874 132 251.144c0 3.158 3.994 2.283 32.897-7.212 15.181-4.987 31.428-10.215 36.103-11.618 57.403-17.224 76.881-22.624 122.5-33.962 14.3-3.554 27.575-6.876 29.5-7.382 8.139-2.137 33.386-8.018 44.5-10.365 6.6-1.393 16.05-3.408 21-4.476 4.95-1.069 19.993-4.037 33.429-6.596 29.367-5.595 31.542-6.491 25.79-10.629-9.475-6.813-39.383-8.892-62.219-4.324m25.5 30.054c-10.175 1.901-19.4 3.641-20.5 3.867-1.963.403-1.995 1.098-1.714 37.158.158 20.211.383 36.834.5 36.94.582.527 38.751-6.549 40.567-7.52 3.158-1.69 4.147-4.317 4.147-11.013 0-7.027.856-6.737-12-4.066-12.94 2.688-12 3.07-12-4.881v-6.881l8.189-1.33c10.712-1.739 12.651-3.408 12.952-11.143.284-7.336.525-7.198-9.38-5.342-12.388 2.321-11.917 2.469-11.563-3.626l.302-5.204 9.287-1.611c11.737-2.037 12.997-3.169 13.338-11.982.312-8.052 1.769-7.83-22.125-3.366m-43.5 8.876c-6.05 1.295-18.631 3.979-27.958 5.964-19.64 4.179-17.707 3.188-18.303 9.387-1.054 10.976 2.327 14.289 12.647 12.392 3.088-.567 5.732-.926 5.877-.796.144.129.554 12.229.91 26.889.526 21.641.907 26.654 2.024 26.654.756 0 5.198-.959 9.869-2.13 13.272-3.329 12.819-2.118 11.973-31.983-.779-27.527-1.401-25.185 7.02-26.448 7.805-1.171 9.441-3.578 9.441-13.894 0-6.21-.342-8.524-1.25-8.468-.687.042-6.2 1.137-12.25 2.433m-85.467 18.029c-9.762 2.734-16.619 8.137-20.124 15.855-2.483 5.467-2.956 68.606-.514 68.606 4.023 0 14.45-4.229 17.007-6.898 2.777-2.899 2.826-3.156 2.961-15.657l.137-12.71 9-2.316c4.95-1.273 9.282-2.339 9.627-2.367.345-.029 1.596 3.886 2.779 8.698 3.474 14.126 4.986 16.25 11.565 16.25 2.939 0 12.762-2.11 13.77-2.958.812-.684-11.389-48.688-13.616-53.571-5.297-11.613-18.541-16.868-32.592-12.932M169.2 226.05c-6.91 2.772-16.095 10.841-16.164 14.2-.057 2.79 5.364 2.314 7.3-.64.861-1.315 4.112-5.14 7.223-8.5 5.683-6.138 5.885-6.763 1.641-5.06m144.255 4.405c-3.536 3.535-3.695 13.05-.205 12.239a790.95 790.95 0 0 1 7.861-1.736l5.611-1.214-.99-3.901c-1.821-7.174-7.847-9.819-12.277-5.388m-74.955 2.947c-7.15 2.392-13.787 4.678-14.75 5.08-1.625.68-1.75 3.577-1.75 40.625 0 21.941.338 39.865.75 39.83.412-.034 4.086-1.272 8.162-2.75 10.69-3.875 11.464-5.214 12.088-20.898l.5-12.576 10.409 10.05c11.189 10.803 13.912 12.174 19.522 9.83 4.514-1.886 6.569-5.17 6.569-10.497 0-4.239-.393-4.853-7.96-12.42l-7.96-7.96 3.858-4.383c8.464-9.616 10.622-22.067 5.268-30.405-6.029-9.389-14.583-10.258-34.706-3.526m-38.323 13.849c-6.445 2.381-8.928 3.867-11 6.583l-2.677 3.508-.284 37.829c-.231 30.624-.036 37.829 1.022 37.829.719 0 4.884-1.377 9.255-3.06 15.064-5.801 14.507-3.905 14.507-49.4 0-28.612-.271-36.521-1.25-36.452-.687.048-4.996 1.472-9.573 3.163m44.073.411c-1.459.589-1.824 20.338-.376 20.338 1.298 0 7.683-6.167 8.991-8.684 3.896-7.497-1.346-14.587-8.615-11.654m-87.885 15.458c-2.275.405-10.375 3.367-18 6.581l-13.865 5.845-.262 39.475c-.144 21.711-.052 40.021.204 40.689.334.869 2.404.415 7.285-1.597 12.889-5.315 13.265-5.953 13.288-22.512.019-13.278-.654-12.114 10.485-18.151 16.508-8.948 22.5-16.944 22.5-30.024 0-10.95-4.431-18.437-11.827-19.987-4.946-1.036-5.66-1.059-9.808-.319m286.135 2.379c-28.786 6.431-46.17 24.363-51.104 52.717-4.97 28.561 6.056 51.188 28.653 58.8 5.76 1.941 6.441 1.98 9.479.538 4.286-2.034 12.508-1.981 16.89.108 7.657 3.652 32.631-8.543 39.074-19.08l3.008-4.919.299-24.831c.239-19.865.039-24.825-1-24.797-.715.019-3.999.645-7.299 1.391-13.919 3.145-38.649 8.574-39.058 8.574-1.196 0-.302 15.371 1.047 17.979 1.876 3.628 4.127 4.338 11.021 3.476l5.49-.685-.033 4.365c-.046 6.062-2.4 8.505-10.093 10.476-15.296 3.918-24.592-5.703-23.693-24.521 1.168-24.421 16.213-34.238 47.057-30.703 7.271.833 7.951.743 11.246-1.5 8.724-5.937 8.493-17.423-.484-24.048-5.894-4.351-27.863-6.163-40.5-3.34m-294.25 17.699c-2.273 1.119-2.426 1.685-2.655 9.802-.169 5.974.077 6.307 3.27 4.421 9.654-5.703 9.08-18.996-.615-14.223m226.75.749c-18.523 4.263-21 8.65-21 37.202 0 10.368-.254 18.851-.565 18.851-.31 0-1.773-1.455-3.25-3.233-6.241-7.514-20.953-24.581-24.525-28.451-7.461-8.084-12.625-8.933-27.906-4.587l-9.746 2.771-.004 56.867-.004 56.866 2.25-.534c6.348-1.505 20.773-7.656 22.928-9.777 6.193-6.092 6.281-6.497 6.822-31.638.335-15.559.838-22.98 1.525-22.5.564.394 7.7 8.366 15.859 17.716 8.158 9.35 16.117 18.215 17.686 19.701 8.198 7.764 24.247 4.464 28.567-5.875 1.973-4.722 2.137-104.756.172-104.966-.72-.076-4.684.637-8.809 1.587m-107.5 28.685c-13.108 4.481-15.194 5.416-18.323 8.21-7.673 6.851-7.64 6.588-7.986 63.549-.17 27.99.055 51.229.5 51.642.779.722 13.727-3.801 23.533-8.221 5.408-2.438 9.198-7.24 11.345-14.374 2.395-7.958 2.1-103.484-.319-103.319-.962.066-4.9 1.196-8.75 2.513m-55 19.027c-4.741 2.494-6.845 5.428-21.226 29.591-7.447 12.512-13.93 22.75-14.407 22.75-.477 0-.867-8.1-.867-18s-.391-18-.869-18c-.886 0-20.763 8.092-29.381 11.961l-4.75 2.133v55.786c0 30.683.248 56.034.55 56.337.303.303 6.266-1.878 13.25-4.847 21.553-9.161 21.2-8.569 21.2-35.604 0-10.871.396-19.766.88-19.766.483 0 2.479 1.825 4.435 4.056 8.754 9.987 23.728 25 26.807 26.877 10.802 6.585 27.878-3.104 27.878-15.818 0-6.533-1.454-8.748-14.972-22.812l-12.926-13.45 8.095-13.176c4.452-7.247 10.378-16.777 13.168-21.177 6.653-10.493 7.195-17.264 1.825-22.804-5.206-5.371-12.969-7.048-18.69-4.037m216.723 49.002c-6.462 3.185-10.757 11.175-10.031 18.661.413 4.266 3.772 4.804 7.393 1.184 2.921-2.921 4.153-2.754 2.498.339-1.511 2.824-6.754 6.365-8.831 5.965-3.266-.629-4.71-5.594-3.419-11.751 1.417-6.756.311-8.324-5.813-8.24-12.014.166-20.802 15.281-21.912 37.687-.914 18.466-5.637 24.852-25.552 34.54-46.59 22.667-121.231 14.663-175.556-18.827l-6.5-4.007-.634 9.358c-.694 10.25-3.34 16.545-8.325 19.811-3.543 2.322-3.259 3.046 2.709 6.917 28.684 18.604 58.575 30.318 92.75 36.349 15.067 2.659 66.212 2.691 82.86.052 45.405-7.197 81.594-24.245 111.13-52.352 12.729-12.114 15.916-19.216 12.598-28.077-.776-2.073-1.68-5.307-2.008-7.186-.328-1.88-1.83-5.03-3.338-7-1.508-1.971-2.854-4.88-2.99-6.463-.277-3.203-3.505-8.95-6.108-10.872-.931-.687-2.829-3.499-4.217-6.249-4.833-9.571-17.659-14.297-26.704-9.839" fill-rule="evenodd"/>
<path fill="#b2848a" stroke="#b2848a" d="M277.5 54.559c-54.793 6.552-97.851 27.393-136.026 65.839C66.566 195.837 52.753 310.558 107.807 400c8.651 14.054 26.44 37.784 28.443 37.941.412.032.75-9.815.75-21.884v-21.943l-6.075-9.307C97.207 333.152 89.432 263.891 110.18 200c18.567-57.177 69.717-108.893 127.32-128.728 39.34-13.547 88.379-18.16 119.871-11.276 2.129.465 3.479.485 3 .044-1.273-1.171-22.278-4.907-33.871-6.024-13.513-1.303-35.612-1.058-49 .543M400 134.021c-60.672 10.593-124.733 27.371-203 53.165-32.691 10.774-32 10.398-32 17.4 0 6.525 1.275 9.414 4.155 9.414 1.147 0 12.719-3.571 25.715-7.935 30.257-10.16 74.572-23.495 102.13-30.733 40.847-10.728 72.651-18.019 106.488-24.413 24.413-4.613 24.352-4.579 21.948-12.205-2.753-8.734-2.529-8.692-25.436-4.693m47.5 49.965c-4.95.972-13.387 2.55-18.75 3.508l-9.75 1.742v36.382c0 20.656.386 36.382.892 36.382 2.976 0 37.674-6.232 39.177-7.037 3.445-1.844 4.931-5.215 4.931-11.186 0-3.177-.175-5.777-.39-5.777-.214 0-4.764.9-10.11 2-15.077 3.102-14.5 3.3-14.5-4.981 0-7.882-1.213-6.909 11.331-9.089 8.771-1.524 10.669-3.413 10.669-10.619 0-6.24.297-6.153-13-3.811-4.675.823-8.635 1.498-8.8 1.499-.165 0-.165-2.586 0-5.749l.3-5.749 4-.734c19.088-3.501 19.5-3.77 19.5-12.767v-6l-3.25.11c-1.788.06-7.3.905-12.25 1.876M380 197.589c-13.475 2.949-25.288 5.373-26.25 5.387-1.517.021-1.75 1.075-1.75 7.902 0 10.689 1.261 11.588 13.587 9.691l5.087-.783.65 26.761c.358 14.718.791 26.901.962 27.072 1.415 1.416 17.961-4.124 20.175-6.755l2.501-2.973-.636-24.744-.636-24.744 6.838-1.26c8.705-1.604 9.4-2.554 9.44-12.893L410 192l-2.75.113c-1.512.063-13.775 2.527-27.25 5.476m-67.5 14.351c-9.439 2.315-17.772 9.17-20.779 17.093-1.796 4.731-2.724 66.967-.999 66.967 3.204 0 14.828-4.809 17.274-7.147l3.004-2.87v-25.521l9.573-2.324c5.265-1.279 9.878-2.026 10.25-1.66.372.365 1.816 5.245 3.208 10.843 3.159 12.702 5.582 14.643 15.777 12.637 9.343-1.838 9.078-.909 4.888-17.138-10.05-38.928-10.437-40.073-15.277-45.185-5.529-5.839-16.696-8.201-26.919-5.695m1.236 17.31c-2.862 2.173-5.119 12.034-3.194 13.958 1.111 1.111 16.458-3.432 16.458-4.872 0-7.106-8.344-12.822-13.264-9.086m-76.486 4.898-15.25 5.21V318.957l7.25-2.59c11.798-4.215 13.949-7.459 13.741-20.727-.249-15.881-1.303-15.397 9.759-4.481 12.761 12.593 15.81 13.986 22.26 10.176 8.275-4.888 6.704-12.399-4.784-22.868-7.158-6.523-7.311-7.062-3.133-11.03 10.724-10.183 11.476-27.325 1.531-34.91-6.478-4.941-13.184-4.595-31.374 1.621m-35.844 13.18c-15.499 5.524-15.356 5.06-15.384 49.922-.012 19.663.316 35.727.728 35.7 4.614-.31 17.952-6.958 20.646-10.291l3.104-3.842.296-36.908c.338-42.134 1.35-38.408-9.39-34.581m42.308.292c-.393.392-.714 5.379-.714 11.082 0 11.635.156 11.757 6.744 5.269 7.273-7.166 6.568-16.184-1.312-16.768-2.203-.163-4.326.024-4.718.417M152.5 264.368c-5.488 1.837-25.816 10.601-26.795 11.551-.762.739-1.05 79.069-.294 79.826.202.202 3.852-1.096 8.111-2.883 10.782-4.526 11.468-5.832 11.48-21.862l.009-12.5 9.882-5.258c17.096-9.096 22.534-16.259 22.58-29.742.056-16.435-10.007-24.144-24.973-19.132m291.061 1.282c-24.526 5.257-42.028 20.07-49.261 41.693-4.099 12.251-4.108 34.977-.018 44.68 7.367 17.48 23.677 28.465 36.346 24.48 5.074-1.595 6.387-1.659 10.823-.522 13.048 3.342 27.14-1.094 39.387-12.4 7.268-6.71 7.626-8.301 7.977-35.465l.316-24.384-2.316.621c-1.273.341-11.877 2.754-23.565 5.361l-21.25 4.74v8.162c0 12.02 2.268 14.074 13.25 12.001l3.75-.708v5.473c0 6.318-2.146 8.772-9.373 10.719-15.078 4.059-25.247-5.331-25.017-23.101.327-25.172 16.897-37.355 44.887-33 6.66 1.036 8.968 1.05 11.334.07 9.674-4.007 11.501-16.717 3.411-23.727-6.465-5.602-25.951-7.85-40.681-4.693M148.25 282.648 145 284.25v7.91c0 7.88.009 7.906 2.25 6.75 12.357-6.371 13.339-22.345 1-16.262m232.75.545c-25.023 5.864-25.79 6.957-26.082 37.134-.11 11.37-.512 20.673-.893 20.673-.766 0-.362.449-18.022-20.018-19.608-22.723-19.042-22.505-41.253-15.903l-6.75 2.006v56.457c0 31.052.315 56.458.7 56.458.386 0 4.998-1.641 10.25-3.646 19.574-7.474 20.379-8.994 21.05-39.787l.5-22.932 7 7.932c3.85 4.363 7.234 8.158 7.519 8.433.286.275 3.436 3.866 7 7.981 16.019 18.49 17.843 19.726 27.618 18.717 6.605-.682 10.534-3.355 13.286-9.04 2.054-4.241 2.09-5.336 1.836-54.807l-.259-50.478-3.5.82m-115.972 30.925c-23.682 8.032-22.958 5.791-22.997 71.199L242 436.135l2.25-.702c1.238-.385 5.615-1.991 9.727-3.567 4.113-1.576 7.983-2.866 8.6-2.866 2.435 0 9.491-6.203 11.646-10.237 2.246-4.206 2.281-4.806 2.565-44.763.158-22.275.158-45.736 0-52.136l-.288-11.637-11.472 3.891m-53.583 18.535c-3.589 1.792-5.332 4.354-20.98 30.847-6.497 11-12.41 20.659-13.139 21.464-1.106 1.222-1.326-1.739-1.326-17.857 0-15.065-.275-19.207-1.25-18.805-.687.284-6.2 2.543-12.25 5.019s-13.137 5.426-15.75 6.555l-4.75 2.053v56.035c0 30.82.163 56.036.363 56.036.199 0 6.066-2.413 13.038-5.362 20.454-8.652 20.599-8.906 20.599-36.106 0-10.743.323-19.532.718-19.532.395 0 1.654 1.089 2.797 2.419 11.398 13.264 27.081 28.602 30.746 30.069 11.472 4.59 25.837-5.305 25.704-17.706-.051-4.721-1.098-6.179-14.965-20.84-6.875-7.269-12.629-13.542-12.787-13.941-.293-.738 5.154-9.992 15.893-27.001 9.579-15.17 11.21-19.112 9.909-23.943-2.524-9.373-13.484-13.94-22.57-9.404m218.426 48.353c-5.145 2.719-8.527 7.162-9.734 12.79-1.94 9.048.577 11.644 6.017 6.204 3.566-3.566 3.846-3.632 3.846-.901 0 3.053-5.602 7.901-9.131 7.901-3.918 0-5.252-3.514-4.439-11.703.875-8.808-3.832-11.05-11.98-5.707-9.683 6.35-14.288 17.32-15.345 36.56-.799 14.555-2.149 17.488-11.527 25.046-30.44 24.535-98.418 27.708-153.41 7.163-10.857-4.056-25.877-11.366-35.671-17.361-3.593-2.199-6.749-3.998-7.015-3.998-.265 0-.486 3.488-.492 7.75-.011 9.136-2.739 16.178-7.973 20.582-1.797 1.513-3.099 2.887-2.893 3.054 16.201 13.118 52.213 29.368 79.982 36.092 33.851 8.196 79.416 8.555 116.068.914 38.834-8.096 73.171-26.447 99.45-53.15 8.642-8.781 11.513-16.176 8.936-23.02-.77-2.047-1.684-5.419-2.03-7.493-.346-2.075-1.956-5.284-3.579-7.132-1.623-1.849-2.951-4.329-2.951-5.511 0-3.327-2.462-8.328-5.458-11.086-1.494-1.375-3.374-4.069-4.177-5.986-4.286-10.231-17.541-15.739-26.494-11.008" fill-rule="evenodd"/>
<path fill="#a02126" stroke="#a02126" d="M286.469 53.998C221.717 59.387 167.961 87.379 127.071 137c-2.946 3.575-5.63 6.725-5.964 7-1.278 1.053-11.015 15.875-15.765 24-26.52 45.359-35.798 97.257-27.264 152.5 5.65 36.576 24.643 76.62 52.357 110.391l6.065 7.391.27-21.679.269-21.68-6.089-9.211C99.769 338.544 90.35 276.599 105.146 216c12.266-50.24 47.512-98.682 91.202-125.349 2.834-1.73 5.377-3.401 5.652-3.715 1.334-1.521 23.5-12.045 31-14.717 32.395-11.545 59.073-15.795 94.246-15.016 11.413.253 20.634.344 20.491.201-2.298-2.298-45.635-4.707-61.268-3.406m63.8 4.695c.973.254 2.323.237 3-.037.677-.274-.119-.481-1.769-.461-1.65.02-2.204.244-1.231.498M397 134.975c-66.956 12.022-146.629 33.688-223.741 60.844-7.505 2.643-8.381 3.664-8.117 9.455.464 10.171.046 10.157 27.933.945 13.434-4.437 29.15-9.494 34.925-11.237 5.775-1.743 11.46-3.543 12.634-4.001 2.245-.876 37.165-10.892 53.366-15.308 37.08-10.106 101.991-24.723 125.085-28.167 7.24-1.08 7.555-1.485 5.966-7.692-2.294-8.958-3.731-9.206-28.051-4.839m42.5 50.965-20 3.729-.284 34.855c-.157 19.17-.085 35.375.159 36.01.327.853 3.028.703 10.284-.568 5.413-.948 13.928-2.282 18.923-2.964 12.164-1.661 13.695-2.881 14.417-11.486l.557-6.643-5.028.648c-2.765.355-7.568 1.284-10.672 2.063-9.148 2.295-8.856 2.509-8.856-6.48v-7.897l8.553-1.272c10.462-1.557 13.447-4.13 13.447-11.591 0-4.381-.074-4.488-2.75-3.943-4.73.964-15.669 2.584-17.5 2.591-1.803.008-2.797-11.946-1-12.025 3.244-.144 19.67-3.987 20.473-4.79 2.524-2.524 2.867-14.3.41-14.072-.623.058-10.133 1.784-21.133 3.835m-48.5 9.682a3469.764 3469.764 0 0 0-27.25 6.042L352 204.339v6.372c0 10.16 3.868 12.191 16.592 8.711 2.401-.657 3.396 10.838 3.404 39.328.005 16.255-.863 15.153 9.984 12.686 4.72-1.073 7.72-2.405 9.573-4.25l2.698-2.686-.462-25.174-.463-25.174 6.499-1.292c9.015-1.791 10.175-3.279 10.175-13.049 0-9.233 2.094-8.771-19-4.189m-75 16.086c-10.646 1.854-19.62 8.085-23.394 16.241-1.978 4.273-2.124 6.481-2.407 36.201l-.302 31.65 7.014-2.046c3.858-1.125 8.486-3.275 10.285-4.777l3.271-2.731-.303-12.983-.303-12.983 8.533-2.14c13.758-3.45 13.093-3.773 15.666 7.61 3.216 14.232 5.783 16.017 18.715 13.01 4.614-1.073 5.257-1.511 4.768-3.25-.852-3.034-8.457-32.036-10.491-40.01-4.944-19.375-14.477-26.679-31.052-23.792m-1.04 15.941c-3.425.927-7.021 13.623-4.557 16.087.352.352 4.118-.261 8.368-1.361 8.7-2.252 9.639-3.602 6.745-9.699-2.128-4.486-5.907-6.285-10.556-5.027m-66.184 3.362c-3.452.906-10.326 3.106-15.276 4.891-4.95 1.785-9.562 3.423-10.25 3.64-1.261.399-1.976 78.458-.718 78.458.293 0 4.125-1.385 8.515-3.078 10.496-4.048 10.953-4.94 10.953-21.372 0-6.903.313-12.55.695-12.55.383 0 5.456 4.691 11.274 10.424 6.237 6.146 11.74 10.716 13.41 11.135 6.459 1.621 13.798-5.732 12.176-12.198-.418-1.664-4.036-6.081-8.699-10.621l-7.984-7.772 4.42-5.234c16.798-19.892 5.348-41.981-18.516-35.723M203 247.468c-16.943 5.562-17.295 6.642-16.828 51.7.18 17.418.621 31.961.979 32.318 1.187 1.184 15.756-4.681 18.759-7.55 4.045-3.866 4.227-5.974 3.884-45.019l-.294-33.583-6.5 2.134m41.25-.437c-2.133.857-2.25 1.451-2.25 11.378 0 12.215.53 12.914 6.024 7.95 11.112-10.038 8.346-24.2-3.774-19.328m-87.75 16.606c-1.1.277-8.637 3.228-16.75 6.557L125 276.246v79.536l7.25-2.94c11.567-4.691 12.154-5.694 12.75-21.78l.5-13.493 9-4.632c11.624-5.983 18.431-12.481 21.444-20.469 6.176-16.37-4.733-32.545-19.444-28.831m290 1.772c-6.753 1.237-21.474 6.234-22.5 7.638-.275.376-2.3 1.609-4.5 2.74-24.456 12.567-36.551 56.155-22.43 80.836 8.15 14.244 22.861 23.177 32.68 19.844 5.546-1.883 11.361-1.865 15.941.048 9.707 4.056 32.472-7.579 40.141-20.515 2.644-4.459 2.671-4.702 3.003-26.865.196-13.141-.054-22.754-.608-23.308-.765-.765-32.135 5.5-43.977 8.783-2.075.575-2.25 1.2-2.25 8.052 0 11.519 3.457 13.926 16.031 11.161 1.12-.246 1.541.935 1.773 4.975.489 8.534-4.68 12.202-17.195 12.202-12.259 0-18.114-7.738-18.1-23.924.021-24.896 16.433-38.17 42.324-34.23 11.912 1.813 13.716 1.595 17.81-2.158 6.965-6.383 5.289-17.142-3.354-21.532-7.787-3.955-24.075-5.71-34.789-3.747m-299.25 16.787c-2.065 1.018-2.25 1.796-2.25 9.457 0 9.822.629 10.223 7.07 4.507 4.076-3.617 4.33-4.154 4.379-9.25l.051-5.41-3.5-.207c-1.925-.114-4.512.293-5.75.903m227.478 2.781C357.384 288.984 355 293.42 355 321.696c0 11.167-.389 20.304-.864 20.304-.476 0-6.885-7.087-14.243-15.75-23.101-27.196-23.633-27.452-43.731-21.035l-7.337 2.343-.163 55.72c-.106 36.607.181 55.71.838 55.688.55-.018 4.925-1.526 9.722-3.351 19.105-7.269 19.778-8.619 19.778-39.642 0-12.635.396-22.973.88-22.973s6.671 6.633 13.75 14.74c21.197 24.276 24.251 27.237 29.248 28.351 9.331 2.081 18.663-3.175 21.078-11.872 1.609-5.793 1.414-101.246-.206-101.128-.687.05-4.747.898-9.022 1.886m-110.855 29.952c-12.939 4.618-14.969 6.048-18.561 13.071l-2.812 5.5-.285 50.75c-.184 32.852.063 50.75.701 50.75 1.895 0 20.329-7.01 24.295-9.239 2.704-1.52 4.86-3.873 6.646-7.255l2.643-5.006.293-51.25c.236-41.411.044-51.237-1-51.182-.711.037-6.075 1.774-11.92 3.861m-51.629 18.179C208.659 334.883 197 350.376 197 353.366c0 .68-18.953 31.987-19.997 33.031-.671.671-1.003-5.377-1.003-18.264v-19.268l-2.25.691c-1.238.379-7.425 2.812-13.75 5.406-6.325 2.593-12.963 5.293-14.75 5.998l-3.25 1.283v55.378c0 30.917.386 55.379.874 55.379.48 0 5.093-1.82 10.25-4.044 23.217-10.013 22.169-8.325 22.873-36.871l.503-20.415 15.348 16.101C207.39 444.076 210.011 446 216.681 446c12.758 0 22.18-13.633 16.719-24.193-.88-1.702-6.842-8.461-13.25-15.022-6.407-6.56-11.79-12.765-11.961-13.789-.291-1.745 13.663-25.553 23.018-39.274 8.568-12.566-5.132-27.46-18.963-20.614m215.609 49.77c-5.115 3.244-7.853 8.523-7.853 15.142 0 5.04 2.413 5.361 6.773.901 3.195-3.268 4.845-2.652 3.34 1.245-2.205 5.712-9.479 9.325-12.564 6.24-1.431-1.43-1.677-3.169-1.394-9.822l.345-8.084-3.571-.883c-3.067-.758-4.156-.495-7.715 1.86-10.367 6.86-15.182 18.446-15.202 36.577-.016 14.303-3.923 20.431-19.295 30.264-27.084 17.326-84.656 20.963-129.277 8.168-18.146-5.203-38.664-14.136-53.925-23.477L181 437.022v8.521c0 10.017-1.481 14.288-6.642 19.156l-3.629 3.423 2.377 1.689c26.581 18.883 63.162 33.175 97.394 38.05 58.325 8.306 116.787-1.858 158.72-27.594 19.808-12.156 38.788-28.629 43.209-37.501 2.921-5.861 3.18-9.101 1.158-14.496-.777-2.073-1.65-5.465-1.94-7.537-.333-2.385-1.649-4.889-3.587-6.827-2.048-2.048-3.06-4.048-3.06-6.049 0-3.805-1.437-6.46-5.644-10.428-1.846-1.741-3.356-3.884-3.356-4.762 0-.879-1.42-3.215-3.155-5.191-6.973-7.941-16.853-9.759-24.992-4.598" fill-rule="evenodd"/>
</svg>