<!DOCTYPE svg PUBLIC "-//W3C//DTD SVG 1.1//EN" "http://www.w3.org/Graphics/SVG/1.1/DTD/svg11.dtd">
<svg xmlns="http://www.w3.org/2000/svg" viewBox="0 0 630 305">
<path fill="#fbfbfb" stroke="#fbfbfb" d="M335.056 13.433c-.691.832-2.281 1.23-3.865.969-2.118-.35-2.372-.217-1.191.628 1.308.936 1.264 1.227-.338 2.272-1.011.659-3.754 3.013-6.096 5.232-2.342 2.219-5.477 4.833-6.966 5.808-1.489.976-2.965 2.445-3.279 3.265-.315.82-1.753 2.73-3.197 4.245-1.443 1.514-4.424 4.898-6.624 7.52-4.82 5.742-4.859 5.78-16.063 15.567-2.165 1.891-3.754 3.674-3.529 3.961.975 1.249-4.856 4.009-9.804 4.64-5.327.679-5.388.657-4.703-1.676 3.282-11.175 3.712-23.582.849-24.468-.962-.298-2.65-1.031-3.75-1.63-1.69-.919-1.815-.864-.81.353.964 1.167.426 2.244-2.825 5.661-2.209 2.321-3.644 4.227-3.19 4.235.454.009.375.346-.175.75-1.352.994-6.5 11.577-6.5 13.362 0 .786-.603 2.316-1.341 3.4-.739 1.089-1.257 4.086-1.154 6.687.127 3.19-.167 4.502-.909 4.058-.603-.361-.496.084.237.988s1.089 2.453.791 3.442c-1.081 3.588-1.487 10.265-.655 10.779 1.48.914 3.447 14.88 2.156 15.311-.619.206-1.125.925-1.125 1.597 0 .672-1.125 2.747-2.5 4.611-3.394 4.6-3.165 7.209.946 10.819 3.93 3.45 9.339 2.952 18.338-1.686 2.357-1.215 4.726-1.936 5.267-1.602 1.464.905-.024 2.693-1.704 2.049-.798-.307-1.193-.14-.878.37.315.51-.016 1.292-.735 1.739-.72.446-3.283 5.311-5.695 10.811-13.438 30.638-19.942 45.93-19.656 46.216.352.352 7.304-14.545 8.851-18.966.529-1.512 1.394-2.75 1.923-2.75.528 0 .725-.381.438-.847-.65-1.052 12.833-31.724 14.818-33.709.794-.794 1.926-1.444 2.516-1.444.589 0 1.071-.441 1.071-.981 0-.539 1.122-1.262 2.493-1.607 1.371-.344 2.245-1.027 1.941-1.519-.304-.491-.188-.927.257-.97.445-.042 1.645-.234 2.668-.427 1.022-.193 3.682.97 5.91 2.584 3.879 2.81 15.58 4.162 14.038 1.622-.266-.439-2.481-.498-4.922-.132-3.828.574-4.985.286-8.412-2.088-3.838-2.66-5.047-4.482-2.973-4.482.55 0 1 .525 1 1.167 0 .641.282.884.627.539.345-.345 2.032-.05 3.75.654 1.718.705 5.095 1.084 7.505.843 2.94-.294 4.165-.088 3.723.627-.814 1.318 3.064.69 4.839-.784.682-.566 1.497-.772 1.811-.458.313.314.218-.99-.212-2.898-1.007-4.464.778-6.082 9.774-8.861 5.434-1.678 7.23-1.852 9.744-.943 6.736 2.436 9.553-.068 6.498-5.776-.518-.968-1.041-4.519-1.163-7.893-.122-3.374-.551-5.93-.954-5.681-.722.446-1.942-1.827-1.942-3.618 0-.505.99-.918 2.2-.918 1.591 0 1.898-.302 1.107-1.093-.79-.79-.708-1.828.294-3.75 1.951-3.739 1.826-4.081-2.101-5.721C328.323 72.108 326.571 69 329 69c.55 0 1-.675 1-1.5s.402-1.5.893-1.5c2.738 0 1.488-3.357-2.917-7.833l-4.904-4.982 6.714-3.944C336.299 45.414 343 42.566 343 43.623c0 .286.703-.183 1.561-1.041.859-.859 4.122-2.296 7.25-3.193 10.541-3.021 10.426-4.347-1.399-16.119-4.569-4.549-8.016-8.27-7.66-8.27 1.49 0-1.458-1.79-3.888-2.361-1.697-.399-3.053-.117-3.808.794M187.444 84.301c-1.619 1.265-9.131 8.381-16.694 15.813C158.561 112.092 154.846 117 157.969 117c.532 0 .699-.702.37-1.559-.714-1.861 8.337-10.76 9.937-9.77.568.351.761.197.427-.342-.803-1.299 12.659-14.611 13.762-13.608.47.428.576.288.234-.313-.342-.6.925-2.59 2.815-4.421 4.466-4.329 10.747-4.983 15.336-1.597 4.049 2.986 11.349 10.792 11.586 12.387.104.703.611 1.298 1.127 1.322 1.441.067 4.449 3.073 3.924 3.922-.256.414.317.691 1.274.616.962-.076 1.616.455 1.464 1.187-.151.729.136 1.071.637.761 1.418-.876 3.353 2.073 4.739 7.221 1.046 3.885 1.27 4.177 1.296 1.694.018-1.65-.514-3.937-1.182-5.083-2.152-3.691-5.472-7.417-6.609-7.417-.608 0-1.106-.386-1.106-.858 0-1.143-14.065-14.886-17.663-17.258-3.916-2.582-9.276-2.409-12.893.417m-98.096 1.464c-.634.404 5.925.735 14.574.735 15.081 0 15.875.101 19.327 2.468 1.98 1.357 3.339 2.889 3.021 3.404-.318.515-.127.658.426.316 1.212-.749 7.944 7.073 7.471 8.68-.184.623.005.794.419.38.413-.414 1.576-.007 2.583.905 1.007.911 1.831 1.213 1.831.671 0-1.804-14.754-15.323-18.373-16.835-3.791-1.585-29.015-2.168-31.279-.724m97.18 3.894c-2.039 2.392-4.186 4.052-4.772 3.69-.586-.362-.822-.251-.526.246.687 1.154-5.843 7.432-6.821 6.558-.401-.359-.462-.18-.134.397.735 1.296-11.636 13.756-12.65 12.741-1.248-1.248.602 3.118 2.029 4.79.743.87 1.012 1.954.598 2.41-.414.457-.226.528.417.16.644-.368 1.881.042 2.75.911.87.87 1.581 1.32 1.581 1.002 0-.319 1.35.623 3 2.094l3 2.673v48.785c0 45.407-.121 48.855-1.75 49.804-.963.561-1.317 1.033-.788 1.05.529.016-.494 1.267-2.274 2.78-5.007 4.255-5.674 8.279-2.173 13.112 1.569 2.166 3.34 4.239 3.935 4.607.596.368.781 1.158.412 1.755-.379.613-.21.8.389.43.583-.36 4.815 3.314 9.404 8.166 8.166 8.633 8.435 8.815 12.548 8.52 4.755-.341 6.602 1.205 3.111 2.605-1.483.595-1.737.951-.709.992.883.034 4.536-2.622 8.117-5.904 3.581-3.281 6.869-5.644 7.305-5.25.437.395.518.232.181-.361-.338-.593 2.099-3.743 5.415-7 6.832-6.711 8.928-10.09 8.761-14.122-.082-1.969-.242-2.206-.539-.8l-.884 4.173c-.871 4.111-5.459 8.562-7.324 7.106-1.49-1.164-1.502-1.105-.137.658 1.369 1.768 1.342 1.878-.302 1.262-1.151-.432-1.565-.292-1.145.386.792 1.283-3.476 6.081-4.723 5.31-.484-.299-.756.052-.605.781.151.728-.321 1.2-1.049 1.049-.729-.151-1.13.074-.892.5.437.781-4.022 5.475-5.817 6.125-.532.193-.869.712-.749 1.155.339 1.248-2.575 2.036-3.284.888-.83-1.343 2.539-5.028 3.854-4.215.562.347.741.178.399-.375-.726-1.176 16.847-18.709 18.024-17.982.436.27.924-1.642 1.082-4.25.275-4.521.055-4.966-4.717-9.596-4.149-4.025-4.798-5.112-3.791-6.357.668-.826.765-1.234.215-.906-.662.395-.95-15.63-.852-47.394l.149-47.99 3.441-3.164c4.501-4.14 5.826-6.786 5.516-11.019-.14-1.91-.389-3.339-.553-3.176-.734.726-8.079-6.857-7.519-7.763.355-.574.132-.709-.512-.311-.67.414-1.901-.549-2.992-2.342-1.018-1.675-2.094-2.803-2.39-2.507-.297.296-1.635-.718-2.975-2.254-8.501-9.744-13.835-11.026-19.285-4.633M363.37 86.44c-1.721.75-3.44 1.864-3.819 2.478-.379.613-1.221.81-1.87.438-.65-.372-.893-.354-.541.04.932 1.044-7.216 9.675-8.427 8.926-.562-.347-.723-.148-.358.443.831 1.344-4.215 5.439-5.627 4.567-.601-.372-.737-.155-.322.516.411.664-.809 2.753-2.864 4.905-1.969 2.061-3.855 4.8-4.192 6.088-1.365 5.218 3.595 14.599 9.15 17.305 1.331.649 1.061.118-.806-1.586-1.543-1.408-2.455-2.56-2.027-2.56.428 0-.23-.706-1.461-1.568-1.232-.863-1.98-1.988-1.664-2.5.317-.513.047-.932-.6-.932-.683 0-.956-.838-.652-2.001.288-1.101.115-1.75-.383-1.441-.499.308-.907-.885-.907-2.652 0-2.737 1.513-4.733 10.219-13.483 5.62-5.649 10.582-10.046 11.025-9.772.443.274.69.127.549-.327-.872-2.797 10.072-9.229 10.994-6.462.211.633.786.902 1.278.598 1.274-.788 5.107 1.453 4.411 2.579-.328.53.167.652 1.136.28 1.256-.483 1.497-.304.898.666-.503.813-.429 1.083.19.7 1.222-.755 5.731 3.808 4.974 5.033-.294.477.381.936 1.501 1.02 1.89.143 1.921.025.429-1.623-.885-.978-1.382-2.078-1.106-2.446.276-.368.196-.438-.179-.155-1.282.969-6.352-4.769-5.317-6.017.661-.796.497-1.164-.518-1.164-.816 0-1.484.391-1.484.869s-1.012.31-2.25-.371c-3.296-1.817-5.858-1.923-9.38-.391m52.443-.457c-1.477.445-2.94.632-3.25.414-.31-.219-.418-.177-.241.092.41.622-17.568 19.522-18.564 19.516-1.364-.009-5.758-4.348-5.758-5.685 0-.726-.45-1.32-1-1.32-1.936 0-.954 1.628 3.644 6.042 2.555 2.452 4.402 4.008 4.105 3.458-.666-1.235 1.775-3.643 2.728-2.69.379.38.54.229.356-.336-.306-.942 4.676-6.734 13.003-15.116 1.835-1.847 4.085-3.365 5-3.373.915-.009 2.339-.452 3.164-.985 1.766-1.141.56-1.148-3.187-.017m95-.3c.721.289 1.584.253 1.916-.079.332-.332-.258-.568-1.312-.525-1.165.048-1.402.285-.604.604m4.352.194c-1.021.647-.862.969.676 1.371 1.43.374 1.856.126 1.477-.861-.622-1.62-.461-1.582-2.153-.51m-92.903.826c.969.246 1.462.934 1.096 1.527-.416.673-.194.787.589.302 1.513-.934 15.275 12.299 14.35 13.797-.334.539-.172.712.357.385 1.067-.659 6.846 5.007 6.846 6.711 0 .591.563 1.131 1.25 1.2.688.069 1.727.181 2.309.25.582.069.738.645.346 1.28-.443.715-.275.883.44.44.635-.392 1.155-.161 1.155.513s.283.942.629.596c.346-.346-4.491-5.74-10.75-11.987-6.258-6.246-11.961-12.226-12.672-13.287-.787-1.175-2.548-1.978-4.5-2.053-1.764-.068-2.414.079-1.445.326m74.36 9.047c-5.554 5.362-10.468 10.322-10.921 11.021-.453.699-1.316.967-1.917.596-.601-.372-.818-.231-.482.313.336.544-3.465 5.001-8.447 9.904-9.091 8.948-11.893 12.771-11.811 16.116.024.99.676.026 1.448-2.141 1.52-4.267 14.309-17.8 15.894-16.82.508.313.648.125.312-.419s1.394-2.957 3.845-5.363c2.452-2.405 4.465-3.942 4.474-3.415.009.527.953-.504 2.097-2.291 1.196-1.866 2.571-2.968 3.233-2.589.634.362.878.349.541-.03-.944-1.064 9.223-11.675 10.492-10.95.616.351.768.252.339-.22-.43-.472.245-1.428 1.5-2.125 1.254-.696 1.655-1.282.891-1.302-.765-.019-5.934 4.353-11.488 9.715M83.565 87.899c.259.258-.976 1.962-2.744 3.785-1.767 1.824-2.788 3.312-2.267 3.307.52-.005 2.007-1.352 3.303-2.993 2.191-2.773 5.013-3.321 3.499-.679-.372.65-.293.832.176.405 1.753-1.594 1.424-4.295-.523-4.295-1.053 0-1.702.211-1.444.47m281.009 1.221c.265.429-.318 1.21-1.296 1.735-2.119 1.139-22.313 21.455-23.584 23.728-1.624 2.9.223 7.935 4.566 12.453 2.332 2.426 3.34 3.755 2.24 2.954-1.952-1.421-1.957-1.405-.213.647 1.665 1.959 1.784 5.419 1.732 50.34l-.056 48.237-4.481 4.356c-4.98 4.84-5.707 8.155-2.725 12.43 3.045 4.367 25.136 25.184 26.096 24.591.506-.313 1.476.101 2.156.92 1.044 1.257.807 1.489-1.519 1.489-3.382 0-9.749-3.773-8.842-5.24.391-.632.189-.777-.493-.355-1.09.673-1.641-.672-1.19-2.905.111-.55-.14-.658-.557-.241-.418.418-1.806-.223-3.084-1.424-1.278-1.201-2.315-1.768-2.304-1.259.024 1.112 7.487 8.449 10.953 10.769 4.197 2.81 10.966 1.994 8.007-.965-.694-.694-.134-1.474 1.75-2.438 1.523-.779 4.12-2.996 5.77-4.926 9.696-11.34 18.746-18.522 17.725-14.067-.151.66.126.952.617.649.49-.303 1.655.294 2.589 1.326 1.279 1.413 1.397 2.064.48 2.631-.852.527-.965.33-.374-.65.712-1.182.587-1.194-.789-.079-1.393 1.129-1.819 1.032-2.87-.649-1.197-1.918-1.318-1.891-4.14.931-1.598 1.598-3.287 2.671-3.753 2.383-.466-.288-1.172.003-1.57.647-.452.731-.291.903.43.457.635-.392 1.149-.349 1.142.096-.02 1.252-12.567 13.309-13.85 13.309-.625 0-1.137.466-1.137 1.035 0 1.666 3.054-.424 7.916-5.415 2.428-2.493 4.86-4.258 5.404-3.922.544.336.719.174.389-.361-.331-.534 1.309-2.822 3.643-5.084l4.244-4.113 6.128 6.235c14.997 15.257 19.287 17.514 24.835 13.07 1.875-1.502 1.867-1.519-.243-.5-5.726 2.766-17.316-2.334-17.316-7.62 0-.794-.381-1.207-.847-.92-1.234.763-6.491-5.048-5.71-6.312.421-.682.006-.839-1.141-.434-1.426.503-1.555.368-.619-.645 1.425-1.542 4.754-.53 3.726 1.133-.413.668-.284.894.303.531 1.297-.801 4.549 2.702 3.54 3.813-.414.457-.24.537.385.18 1.377-.786 3.779 1.847 2.933 3.216-.332.536-.076 1.3.568 1.698.776.48.927.25.448-.68-.398-.773.717.17 2.477 2.095 1.761 1.925 2.85 2.825 2.422 2-.576-1.11-.474-1.221.392-.427 3.011 2.763 6.97.27 19.255-12.126 6.727-6.787 12.525-12.159 12.884-11.937.36.222.343-1.643-.037-4.145-.536-3.537-1.613-5.445-4.834-8.572L439 228.77l-.118-12.635c-.066-6.949-.074-12.946-.02-13.326.127-.888-6.02-7.078-12.626-12.714-2.839-2.423-4.956-4.738-4.705-5.145.252-.407-.243-1.009-1.1-1.338-.909-.349-1.256-1.121-.834-1.855.398-.691.355-.923-.095-.516-.45.408-1.439.226-2.199-.404-1.615-1.341 3.204-7.26 5.005-6.147.55.34.719.163.375-.394s2.782-4.318 6.947-8.356c9.235-8.955 9.24-8.968 9.432-23.792l.155-11.966 4.77-4.571c6.84-6.556 6.88-7.686.514-14.61-2.947-3.205-7.409-7.719-9.917-10.03-2.507-2.311-4.27-4.67-3.917-5.241.353-.572.173-.749-.399-.396-1.27.785-3.548-1.72-2.509-2.759.407-.408.291-.612-.259-.453-.55.159-2.511-.515-4.358-1.498-5.015-2.669-6.825-1.674-18.736 10.299L393.5 111.886l-3.211-3.101c-1.766-1.706-2.97-3.492-2.676-3.968.295-.477-.06-.743-.789-.592-.728.151-1.2-.321-1.049-1.049.151-.729-.102-1.092-.562-.808-.927.574-12.842-11.447-12.471-12.582.129-.393-.414-.465-1.206-.161-.792.304-2.016.196-2.721-.239-1.705-1.054-4.849-1.251-4.241-.266m145.063.102c.466.754.077.882-1.192.395-1.036-.397-1.608-.447-1.271-.11.337.337-1.664 2.723-4.446 5.303-2.782 2.579-8.197 7.94-12.033 11.913-3.836 3.972-7.431 6.94-7.989 6.595-.564-.349-.711-.134-.329.483.703 1.137-14.158 17.453-15.27 16.764-.334-.206-.607 21.97-.607 49.28 0 40.682-.239 49.605-1.324 49.38-.729-.151-1.094.099-.811.557.282.457-1.259 2.551-3.425 4.654-3.513 3.409-3.913 4.285-3.69 8.097.138 2.352.527 4.104.865 3.895.989-.61 8.956 7.648 8.34 8.645-.307.497.139.636.993.309.854-.328 1.552-.136 1.552.426 0 1.673 12.31 13.209 14.766 13.837 1.246.319 3.068.37 4.048.114 1.165-.305 1.827.12 1.91 1.226.099 1.311-.792 1.729-3.945 1.853-3.943.154-4.481-.245-16.963-12.589-16.186-16.008-17.162-16.708-3.816-2.74 5.775 6.045 10.95 11.312 11.5 11.704.55.393 1 1.293 1 2.001 0 1.581 8.273 3.311 11.711 2.448 1.365-.343 5.997-4.214 10.294-8.604 4.296-4.389 8.26-7.703 8.808-7.365.548.339.712.157.365-.405-.347-.561.274-1.839 1.379-2.84 1.969-1.781 2.131-1.699 7.87 3.98 3.222 3.189 7.145 7.519 8.716 9.623 2.903 3.887 6.024 5.675 6.024 3.451 0-.673-.713-1.174-1.584-1.113-1.022.072-1.543-.657-1.47-2.055.066-1.274-.369-1.981-1.056-1.717-.643.246-4.312-2.857-8.152-6.896-5.848-6.151-11.854-10.874-9.988-7.855.516.834-3.669 5.393-4.491 4.893-.234-.142-.316-.074-.182.152.536.901-10.183 10.936-11.085 10.378-.533-.329-.684-.139-.337.423.347.561-.214 1.785-1.246 2.719-4.662 4.219-2.681-.923 2.334-6.059 3.034-3.107 5.645-5.933 5.803-6.28.158-.347 2.647-2.819 5.531-5.493l5.245-4.862 4.955 4.808c2.726 2.644 4.684 5.247 4.352 5.786-.333.538-.136.688.436.335 1.296-.801 3.524 1.717 2.509 2.836-.407.45-.241.533.371.185.612-.349 2.999 1.379 5.305 3.839 5.342 5.699 9.524 6.254 14.152 1.876 1.413-1.336 2.948-2.086 3.411-1.666.462.42.546.248.186-.382-.614-1.073 3.537-5.652 14.711-16.23 5.886-5.571 6.354-8.617 2.025-13.193-1.336-1.413-2.086-2.913-1.666-3.334.42-.42.314-.614-.236-.43-.55.183-2.03-.697-3.289-1.956l-2.288-2.288.288-48.367c.159-26.601-.048-48.157-.461-47.902-.413.255-.75.06-.75-.433s-1.99-2.858-4.423-5.255c-3.759-3.705-5.652-7.966-3.539-7.966 1.321 0 4.936 4.697 4.221 5.485-.417.459-.247.543.378.186 1.378-.787 3.648 1.679 2.604 2.831-.407.45-.178.495.509.099.76-.437 1.25-.141 1.25.757 0 .811.486 1.637 1.081 1.836.594.198 1.448 1.923 1.897 3.833.579 2.462.847 2.804.92 1.173.186-4.178-2.576-7.515-22.514-27.2-10.863-10.725-19.241-18.807-18.618-17.959.622.847 4.722 5.105 9.111 9.462 6.757 6.707 9.792 11.265 5.899 8.859-.615-.381-.8-.21-.427.394.363.586 1.445.948 2.405.804 1.724-.259 4.057 1.81 6.971 6.181.821 1.233 1.867 2.011 2.324 1.729.456-.282.761.396.678 1.508-.222 2.947-.453 2.794-9.477-6.279-7.455-7.495-10.207-11.027-7.095-9.104.721.446.882.274.43-.457-.398-.644-1.157-.903-1.687-.575-1.265.782-10.994-9.599-10.2-10.883.338-.547.104-.676-.523-.288-.623.385-2.072.198-3.219-.416-3.093-1.655-6.143-2.087-5.319-.754M87.21 91.345c-1.748 1.29-4.121 3.544-5.274 5.009-1.153 1.466-2.58 2.366-3.171 2.001-.591-.365-.804-.226-.473.308.33.535-2.975 4.424-7.346 8.643-8.249 7.963-10.294 12.946-6.763 16.477.651.651.941 1.427.643 1.724-.863.863-3.872-.624-3.261-1.612.304-.492.076-.895-.506-.895s-1.095-.787-1.138-1.75c-.043-.963-.296-1.218-.561-.568-.265.65.313 2.675 1.285 4.5.971 1.825 1.636 3.768 1.477 4.318-.159.55.053.658.47.241.418-.418 1.806.223 3.084 1.424L68 133.349l.009 47.575.009 47.576-3.16 2.598c-2.075 1.705-2.765 2.842-2.009 3.309.68.42 1.151.073 1.151-.848 0-1.474 1.257-2.047 3.5-1.594.55.111.666-.132.259-.54-.408-.407-.287-1.288.268-1.957 1.574-1.897 1.373-98.512-.208-99.897-.749-.656-.71-.393.102.679 2.093 2.766-.312 2.036-2.997-.91-1.91-2.097-2.042-2.523-.622-2.012 1.075.387 1.555.25 1.191-.339-1.279-2.07 1.248-.868 3.82 1.816L72 131.609l-.008 48.946-.007 48.945-4.439 4.359c-7.437 7.304-7.002 9.428 4.203 20.501 5.087 5.027 9.249 9.778 9.25 10.557 0 .779.291 1.127.645.772.354-.354 2.17.696 4.035 2.334 1.865 1.637 4.254 2.977 5.309 2.977 2.83 0 7.012-2.133 7.012-3.577 0-.691.467-1.412 1.038-1.602 2.198-.733 20.067-19.437 20.608-21.571.945-3.725-.454-6.992-4.658-10.881l-3.988-3.69V209.006l3.658-4.049c2.012-2.227 4.248-3.823 4.968-3.547.721.276 1.619.003 1.996-.608.457-.738.216-.827-.717-.265-1.194.72-1.2.594-.042-.834.75-.925 1.832-1.391 2.405-1.037.572.353.776.215.453-.309-.324-.523 4.319-5.835 10.317-11.804 7.786-7.749 10.777-10.19 10.458-8.533-.585 3.037-5.546 8.175-7.26 7.517-.781-.3-1.063-.066-.676.561.864 1.398-5.539 8.016-6.968 7.203-.601-.342-.775-.27-.388.159.971 1.078-8.239 10.636-9.498 9.858-.558-.345-.736-.175-.395.377.673 1.088-4.285 5.94-5.635 5.515-.454-.143-.514.244-.133.859.439.711 2.218-.381 4.885-2.998 2.306-2.264 4.47-3.84 4.808-3.502.338.338 1.435.102 2.439-.525 1.576-.984 1.484-1.047-.675-.464-2.28.616-2.174.356 1.2-2.952 2.036-1.996 4.173-3.628 4.75-3.628.578 0 1.05-.509 1.05-1.132 0-1.982 8.821-10.097 10.11-9.3.789.487.937.316.432-.5-.503-.815 3.402-5.46 11.345-13.494 7.183-7.265 12.097-13.03 12.074-14.163-.029-1.39-.417-1.093-1.426 1.089-2.166 4.684-13.34 15.095-14.72 13.715-1.427-1.427.864-4.552 2.794-3.811.854.327 1.079-.053.666-1.129-.464-1.211-.201-1.461 1.039-.985 1.028.395 1.571.175 1.424-.576-.131-.668.358-1.09 1.086-.939.729.151 1.059-.156.734-.682-.325-.526.33-1.602 1.457-2.391 5.497-3.85 5.537-29.526.052-33.368-1.155-.809-1.798-1.96-1.429-2.557s.232-.815-.304-.484c-.536.332-4.43-2.897-8.654-7.174-6.965-7.052-9.056-10.119-6.899-10.119.98 0 12.374 11.452 11.996 12.056-.152.244-.123.365.065.268.958-.491 6.012 5.115 5.47 6.067-.348.61-.297.808.112.441.955-.856 4.641 2.254 3.966 3.346-.28.452-.063.822.481.822.545 0 1.178.787 1.409 1.75.247 1.032.378.798.319-.571-.067-1.564-4.144-6.373-12.506-14.75-11.582-11.601-14.128-13.912-12.593-11.429.34.55.326 1.472-.03 2.049-.901 1.457-3.654-.916-2.799-2.412.357-.625.286-.808-.158-.407-1.083.98-14.606-12.27-13.82-13.542.339-.548.163-.717-.391-.375-.554.343-1.861-.023-2.905-.813-3.59-2.718-29.243-2.065-33.187.845M492.5 95c.34.55.816 1 1.059 1s.441-.45.441-1-.477-1-1.059-1-.781.45-.441 1M66.741 105.943c-7.13 7.316-9.189 11.044-6.885 12.468.47.291.639-.602.375-1.983-.333-1.74-.073-2.422.848-2.22.73.161 1.349-.432 1.374-1.318.026-.885 3.184-4.598 7.018-8.25 3.834-3.652 6.53-6.64 5.991-6.64-.539 0-4.464 3.574-8.721 7.943m384.716 9.988c.317.512.096 1.227-.489 1.589-.737.455-.692 1.107.144 2.115 1.386 1.67-1.984 7.089-4.097 6.59-.64-.151-.91.136-.6.637.727 1.176-2.035 3.491-3.262 2.733-.556-.344-.997 4.372-1.09 11.664-.086 6.732-.367 13.366-.625 14.741-.411 2.191-.352 2.253.476.5.52-1.1.977-6.907 1.016-12.903l.07-10.904 5-5.287c4.872-5.151 7.177-12.406 3.941-12.406-.582 0-.8.419-.484.931m-293.124 3.551c0 .835.226 1.292.503 1.016.779-.779 4.184 2.66 3.588 3.624-.29.47.058.634.774.365.716-.27 2.765.403 4.552 1.496l3.25 1.988v47.814c0 47.78-.186 50.529-3.372 49.801-.62-.142-.754-.057-.297.188.458.246-.366 1.697-1.83 3.225-1.833 1.913-2.782 4.136-3.048 7.139-.361 4.084-.061 3.562 1.12-1.947.272-1.27 2.271-4.236 4.442-6.591l3.947-4.282.269-48.076c.148-26.442.044-48.017-.231-47.944-.723.19-9.132-5.21-11.583-7.439-1.698-1.544-2.084-1.613-2.084-.377m64.124 2.829c-1.673 2.304-3.669 4.189-4.434 4.189-.878 0-1.481 1.292-1.633 3.5-.133 1.925.001 2.6.297 1.5s2.513-4.118 4.926-6.707c2.413-2.589 4.387-5.177 4.387-5.75 0-1.519-.198-1.337-3.543 3.268m167.793 5.273-3.25 2.561.038 12.177.038 12.178 4.712-5.047c2.592-2.776 5.5-5.35 6.462-5.719 3.21-1.231 2.458-12.682-1.055-16.047-3.39-3.248-2.963-3.241-6.945-.103m-90.81 1.798c-.361 1.44-1.044 2.618-1.517 2.618-.473 0-.601.675-.285 1.5.326.849.024 1.5-.698 1.5-.7 0-.998.275-.662.611.611.611-3.041 11.445-4.177 12.389-.33.275-.685 1.175-.787 2-.102.825-.506 2.625-.898 4-1.647 5.787.659.591 5.493-12.376 2.845-7.632 4.951-14.097 4.68-14.368-.27-.271-.787.686-1.149 2.126m92.205 1.101c-.313.816-1.149 1.34-1.857 1.164-.708-.176-.951-.13-.538.1.413.231.75 3.532.75 7.336 0 6.994.671 8.103 3.31 5.465.798-.799 1.73-1.249 2.071-1 .34.248.398.156.128-.206-.271-.362.01-1.262.623-2.001 1.902-2.292 1.487-9.415-.639-10.97-2.391-1.748-3.143-1.726-3.848.112M111 144.357c0 5.304.338 9.64.75 9.635.412-.004 2.731-2.024 5.153-4.49l4.402-4.483-5.152-5.152-5.153-5.153v9.643m394.512 7.393.018 16.75 6.626.166 6.626.167.058-10.69c.062-11.363-.763-14.678-3.048-12.26-.875.926-.941 1.497-.205 1.771.726.27.829 1.971.31 5.125-.428 2.597-.805 6.662-.837 9.034-.059 4.234-.118 4.308-3.235 4l-3.174-.313.162-11.437c.102-7.198.592-11.832 1.321-12.5.831-.762.972-.728.496.119-.74 1.318 3.21 4.535 4.551 3.706.471-.291-.364-1.82-1.854-3.399-1.49-1.579-3.068-2.649-3.507-2.378-.438.271-.542-.171-.231-.982.454-1.184-2.091-3.629-3.776-3.629-.176 0-.311 7.537-.301 16.75M344.459 179.5c.001 24.2.131 33.957.29 21.682.159-12.275.159-32.075 0-44-.16-11.925-.29-1.882-.29 22.318m117.736-41c.02 1.65.244 2.204.498 1.231.254-.973.237-2.323-.037-3-.274-.677-.481.119-.461 1.769m-296.278 4.75c-.046 3.438-.197 7.282-.336 8.542-.139 1.261.123 2.525.583 2.809.46.285.836-3.56.836-8.542 0-4.982-.225-9.059-.5-9.059s-.537 2.813-.583 6.25m51.278-3.75c.02 1.65.244 2.204.498 1.231.254-.973.237-2.323-.037-3-.274-.677-.481.119-.461 1.769M560 184.5c0 24.108.243 43.59.541 43.293.667-.667.608-85.977-.06-86.645-.265-.265-.481 19.244-.481 43.352m-445.143-41.831c-1.039.276-1.462 1.126-1.151 2.314.629 2.405 3.206 1.495 3.013-1.064-.08-1.055-.161-1.867-.182-1.803-.02.064-.776.312-1.68.553M463.158 147c0 1.375.227 1.938.504 1.25.278-.687.278-1.812 0-2.5-.277-.687-.504-.125-.504 1.25m-175.426 14-1.571 4 13.169-.216 13.17-.216-12.307-.315c-13.489-.346-12.737.086-10.449-6.003.259-.687.265-1.25.015-1.25-.251 0-1.163 1.8-2.027 4m151.128-.25c-4.221 5.096-4.518 5.669-2.181 4.215 1.198-.747 2.651-2.394 3.228-3.661 1.255-2.753.921-2.929-1.047-.554m-6.824 6.182c-.569 1.063-1.968 2.229-3.11 2.592-1.142.362-1.812.924-1.487 1.248.324.324-.632 1.864-2.125 3.423-2.653 2.768-2.671 2.873-.819 4.569 1.45 1.328 1.614 1.358.695.127-1.383-1.854 1.82-6.891 4.383-6.891.785 0 1.427-.675 1.427-1.5s.398-1.5.883-1.5c.486 0 1.119-.9 1.407-2 .663-2.536.084-2.567-1.254-.068m-121.546.084c-.346.559-1.042.761-1.548.448-.505-.312-.695.018-.42.734.274.716-.518 2.427-1.762 3.802-1.243 1.375-2.89 3.722-3.661 5.216-.77 1.494-1.895 2.434-2.5 2.09-.604-.345-.765-.258-.358.192.408.45.183 1.508-.5 2.352-.991 1.225-.988 1.382.014.78.69-.415 3.165-3.483 5.5-6.818 2.335-3.336 4.862-6.908 5.617-7.938.755-1.031 1.119-1.874.809-1.874-.31 0-.846.457-1.191 1.016m-164.073 6.301c-1.193 1.367-1.48 4.683-.405 4.683 1.372 0 4.163-3.907 3.527-4.937-.846-1.369-1.771-1.294-3.122.254M429 174c0 .55.477 1 1.059 1s.781-.45.441-1-.816-1-1.059-1-.441.45-.441 1m-7.937 5.019c-.034.835 4.486 6.121 10.045 11.747 6.9 6.982 9.919 10.722 9.511 11.783-.342.892-.175 1.294.392.944.632-.39.989 3.873.989 11.789v12.4l4.066 4.148c2.384 2.432 3.768 4.63 3.345 5.313-.481.78-.281.895.604.347.962-.594 1.15-.362.686.846-.351.915-.202 1.664.33 1.664 1.422 0 1.181-2.252-.496-4.646-.805-1.15-1.368-2.263-1.25-2.473.118-.209.084-.325-.076-.257s-1.622-1.044-3.25-2.473L443 227.555v-12.138c0-13.984-.188-14.421-10.749-24.981-5.17-5.168-5.827-6.214-4.449-7.083 1.468-.926 1.459-1.02-.093-1.02-.94 0-1.709.43-1.709.956 0 1.447-3.109-1.436-4.048-3.754-.541-1.334-.847-1.512-.889-.516m-124.883 7.489c-1.199 1.379-2.18 2.701-2.18 2.939 0 .609-11.048 15.946-11.924 16.553-.397.275-1.051 1.387-1.453 2.472-.62 1.675-.888 1.75-1.771.5-.881-1.246-.961-1.221-.522.163.615 1.937-2.062 6.149-3.387 5.33-.509-.315-.626.197-.262 1.147.397 1.033.26 1.469-.344 1.096-.552-.341-1.008-.077-1.014.586-.015 1.785-9.085 14.401-10.836 15.073-.828.317-1.448.927-1.378 1.355.332 2.022-.207 3.335-1.134 2.763-.563-.349-.901-.038-.75.691.151.728-.321 1.2-1.049 1.049-.729-.151-1.027.206-.664.794 1.06 1.715-1.608 4.392-2.768 2.778-.66-.917-.755-.75-.324.571.421 1.293-1.141 4.298-5.069 9.754-5.713 7.934-7.865 9.619-5.032 3.94.84-1.684 1.148-3.062.685-3.062-.982 0-4.445 9.892-3.718 10.619.269.269 6.245-7.522 13.28-17.315 7.035-9.792 19.625-27.311 27.978-38.931 8.352-11.62 15.498-21.633 15.88-22.25 1.206-1.951.02-1.219-2.244 1.385m-53.599.141c-.827 2.155-.375 2.469 1.159.803.682-.74.842-1.592.355-1.893-.487-.301-1.168.189-1.514 1.09m-109.176 1.601-1.905 2.25 2.25-1.905c2.114-1.79 2.705-2.595 1.905-2.595-.19 0-1.202 1.012-2.25 2.25m107.61 3c-.013 1.571 1.222 1.75 12.092 1.75 11.137 0 12.05.14 11.391 1.75-1.249 3.052-8.499 24.633-8.468 25.203.017.301.417-.128.889-.953 1.162-2.033 9.188-26.226 8.821-26.593-.16-.16-5.455-.371-11.766-.468-7.255-.111-11.744-.592-12.209-1.307-.465-.717-.74-.49-.75.618m146.434 18.097c-1.145 4.564-.065 20.177 1.375 19.878.729-.151 1.08.121.781.605-.299.484.568 1.923 1.926 3.199 2.209 2.076 2.947 1.996 2.587-.279-.065-.412.22-.654.632-.538 3.154.894 5.25-2.462 5.25-8.402 0-6.036-.072-6.194-5.242-11.465-5.929-6.044-6.487-6.273-7.309-2.998m118.423.07c-.071.046-.207 4.503-.304 9.904l-.175 9.822 3.646 2.888 3.647 2.888 3.085-3.209c3.048-3.172 3.083-3.325 2.907-12.956l-.178-9.746-3.809-.004c-2.782-.003-3.606.333-3.058 1.246.573.953.408.985-.691.136-1.128-.871-4.291-1.476-5.07-.969M463.232 215c0 1.925.206 2.713.457 1.75.252-.963.252-2.537 0-3.5-.251-.963-.457-.175-.457 1.75m45.354 5.196c.055 5.302.498 8.332 1.256 8.585.644.214.871.914.504 1.554-.367.641-.298.831.152.424.45-.408 1.432-.232 2.183.391 1.091.906 1.226.771.672-.673-.456-1.187-.317-1.573.405-1.127 1.781 1.101 2.416-2.817 1.675-10.334l-.691-7.016-3.121.001-3.121.001.086 8.194M390 220.362c0 8.718 2.479 12.071 6.292 8.51 1.805-1.685.872-9.977-1.401-12.446-1.05-1.141-1.699-2.284-1.443-2.541.256-.256-.415-.532-1.491-.613-1.776-.134-1.957.522-1.957 7.09M114.32 220c0 3.575.182 5.037.403 3.25.222-1.787.222-4.713 0-6.5-.221-1.787-.403-.325-.403 3.25m101.875.5c.02 1.65.244 2.204.498 1.231.254-.973.237-2.323-.037-3-.274-.677-.481.119-.461 1.769m247.077 2.5c0 2.475.195 3.488.434 2.25.238-1.238.238-3.262 0-4.5-.239-1.238-.434-.225-.434 2.25m-245.939 2.43c0 .863.198 1.372.44 1.13.661-.661 4.72 3.376 4.772 4.747.025.656.643 1.062 1.373.902.898-.197 1.107.288.645 1.5-.552 1.45-.438 1.549.596.523 1.035-1.028.414-2.133-3.274-5.821-2.87-2.87-4.552-3.971-4.552-2.981m34.785 4.688c-1.157 3.426-1.932 6.401-1.722 6.612.211.21 1.329-2.421 2.486-5.848 1.157-3.426 1.932-6.401 1.722-6.612-.211-.21-1.329 2.421-2.486 5.848M114 227.926c0 .526.457 1.239 1.016 1.584.559.346.715 1.117.346 1.714s-.215.803.343.458c1.275-.788 6.244 4.701 7.416 8.194.77 2.294.818 2.197.376-.771-.467-3.138-9.497-13.767-9.497-11.179m226.435 3.341-3.935 4.23 3.989-3.498c2.194-1.925 4.181-3.612 4.417-3.749.235-.137.211-.467-.054-.732-.265-.265-2.253 1.422-4.417 3.749m119.357-3.591c.987.396 1.019.847.136 1.91-.635.766-1.623 1.102-2.196.748-.572-.353-.755-.18-.405.386.349.565-.372 2.115-1.603 3.443-2.419 2.611-3.365 8.417-1.765 10.837.728 1.102.882.611.577-1.845-.526-4.242.549-7.044 4.374-11.4 2.88-3.28 3.107-4.853.673-4.676-.595.043-.502.312.209.597m105.661 5.265c4.379 4.496 4.744 4.735 3.909 2.559-.317-.825-.051-1.5.59-1.5s.914-.408.606-.906c-.308-.498-1.53-.653-2.715-.343-1.606.42-1.949.229-1.345-.748.537-.869.421-1.071-.343-.598-.635.392-1.155.285-1.155-.239s-.788-1.252-1.75-1.618c-.962-.366.029 1.161 2.203 3.393M59.97 237.055c-.605 1.131-.952 2.5-.77 3.044.181.543.846-.382 1.478-2.056 1.313-3.481.92-4.03-.708-.988m187.204 7.589c-1.22 3.655-2.015 6.849-1.766 7.098.25.249 1.006-1.391 1.681-3.645.675-2.253 1.494-4.098 1.819-4.099.326-.001.686-1.351.802-3 .301-4.306-.049-3.803-2.536 3.646m87.976-3.844c-.204 4.483 1.711 7.809 7.819 13.582 3.621 3.423 5.448 4.547 6.107 3.759.517-.619.643-.909.279-.646-.859.621-9.94-7.738-9.58-8.819.151-.454-.134-.572-.634-.263-1.051.649-2.883-3.551-3.451-7.913l-.39-3-.15 3.3m234.929-1.217c.048 1.165.285 1.402.604.605.289-.722.253-1.585-.079-1.917-.332-.332-.568.258-.525 1.312M163 241.63c0 1.52 3.071 5.439 7.151 9.125 2.108 1.905 3.585 3.864 3.282 4.354-.303.49.193.891 1.102.891s1.888.9 2.175 2c.288 1.1.889 2 1.335 2 .447 0 1.519.707 2.384 1.571.864.865 1.571 1.145 1.571.623s-.67-1.505-1.489-2.185c-.819-.68-1.235-1.646-.926-2.147.31-.501.193-.789-.261-.639-1.217.403-10.312-8.434-9.699-9.425.288-.466-.028-.724-.702-.573-.675.151-2.283-1.254-3.575-3.123-1.291-1.869-2.348-2.981-2.348-2.472m287.825 2.696c-.373 1.825-.233 2.482.393 1.856.533-.533.793-1.805.576-2.826-.291-1.375-.543-1.123-.969.97M59.079 243.8c-.133 2.195 2.573 6.529 6.336 10.146 2.683 2.579 3.585 3.02 3.585 1.75 0-.933-.355-1.584-.788-1.446-.433.137-2.029-.988-3.545-2.5-1.517-1.512-2.443-2.75-2.057-2.75.385 0 .014-.787-.825-1.75-.838-.963-1.772-2.425-2.076-3.25-.369-1.005-.577-1.071-.63-.2m64 .5c-.099 2.261-6.477 8.941-7.582 7.941-.45-.408-.531-.239-.181.375.655 1.148-2.033 4.186-3.816 4.313-.55.039-1 .498-1 1.021 0 1.519-9.399 10.231-10.382 9.623-.491-.303-.83.231-.755 1.188.084 1.072-.519 1.688-1.574 1.607-.941-.073-1.616.344-1.5.927.116.584-.963 1.495-2.399 2.026-2.95 1.092-8.283.124-7.379-1.339.342-.554-.132-.681-1.123-.301-1.256.483-1.497.304-.898-.666.529-.854.431-1.084-.274-.649-.617.382-2.641-1.352-4.654-3.989-1.959-2.566-3.562-4.34-3.562-3.944 0 .396-1.181-.683-2.624-2.399-1.444-1.715-2.857-2.886-3.141-2.603-.283.284 1.123 2.329 3.125 4.545 2.002 2.217 3.64 3.863 3.64 3.658 0-.204 1.973 1.482 4.384 3.748 6.89 6.472 6.711 6.384 11.081 5.402 6.391-1.436 32.616-27.507 31.202-31.019-.304-.755-.541-.54-.588.535m432.969 14.744c-6.848 7.054-12.811 12.603-13.25 12.331-.439-.271-.798-.016-.798.566s-.975 1.059-2.167 1.059c-1.191 0-1.887.279-1.546.62 1.237 1.238 5.798-.732 8.365-3.614 1.446-1.623 3.085-2.668 3.643-2.324.558.345.725.159.371-.413-.353-.571 3.543-5.048 8.659-9.946 9.243-8.853 11.532-11.423 9.984-11.213-.445.06-6.412 5.881-13.261 12.934M448.49 249.016c-.346.559-1.117.715-1.714.346-.605-.375-.801-.211-.442.37.819 1.325-1.904 3.652-3.279 2.802-.644-.398-.778.04-.356 1.164.58 1.547.45 1.618-.923.503-1.232-1-1.768-1.022-2.341-.095-.455.735-.322.942.341.532.597-.369 1.371-.209 1.719.354.348.564-.408 1.443-1.681 1.953-1.273.511-1.876.957-1.341.992.534.034-.141.847-1.5 1.805-1.36.958-2.81 1.633-3.223 1.5-.412-.133-.697.095-.632.508.346 2.189-.273 3.405-1.494 2.936-.851-.327-1.327.109-1.25 1.143.076 1.002-.474 1.538-1.374 1.338-.825-.184-1.166 0-.759.408.408.407.198 1.457-.467 2.333-1.716 2.261-.87 1.491 10.011-9.11 10.106-9.846 12.85-12.798 11.896-12.798-.309 0-.846.457-1.191 1.016m-44.49.362c0 .207.788.995 1.75 1.75 1.586 1.243 1.621 1.208.378-.378-1.307-1.666-2.128-2.195-2.128-1.372m-221 14.531c0 .465.67 1.402 1.489 2.082.819.68 1.302 1.538 1.073 1.908-.228.37.339.704 1.261.742.923.039 2.577.407 3.677.819s.296-.331-1.786-1.652c-2.083-1.321-3.526-2.663-3.207-2.982.319-.318-.115-.845-.964-1.171-.849-.326-1.543-.211-1.543.254m351 9.122c0 .533.675.969 1.5.969s1.5-.177 1.5-.393c0-.216-.675-.652-1.5-.969-.825-.316-1.5-.139-1.5.393" fill-rule="evenodd"/>
<path fill="#efefef" stroke="#efefef" d="M335.056 13.433c-.691.832-2.281 1.23-3.865.969-2.118-.35-2.372-.217-1.191.628 1.308.936 1.264 1.227-.338 2.272-1.011.659-3.754 3.013-6.096 5.232-2.342 2.219-5.477 4.833-6.966 5.808-1.489.976-2.965 2.445-3.279 3.265-.315.82-1.753 2.73-3.197 4.245-1.443 1.514-4.424 4.898-6.624 7.52-4.82 5.742-4.859 5.78-16.063 15.567-2.165 1.891-3.754 3.674-3.529 3.961.975 1.249-4.856 4.009-9.804 4.64-5.327.679-5.388.657-4.703-1.676 3.282-11.175 3.712-23.582.849-24.468-.962-.298-2.65-1.031-3.75-1.63-1.69-.919-1.815-.864-.81.353.964 1.167.426 2.244-2.825 5.661-2.209 2.321-3.644 4.227-3.19 4.235.454.009.375.346-.175.75-1.352.994-6.5 11.577-6.5 13.362 0 .786-.603 2.316-1.341 3.4-.739 1.089-1.257 4.086-1.154 6.687.127 3.19-.167 4.502-.909 4.058-.603-.361-.496.084.237.988s1.089 2.453.791 3.442c-1.081 3.588-1.487 10.265-.655 10.779 1.48.914 3.447 14.88 2.156 15.311-.619.206-1.125.925-1.125 1.597 0 .672-1.125 2.747-2.5 4.611-3.394 4.6-3.165 7.209.946 10.819 3.93 3.45 9.339 2.952 18.338-1.686 4.241-2.186 6.922-2.096 5.527.186-.397.65.755-.056 2.56-1.569 4.063-3.404 6.508-3.461 10.718-.25 1.803 1.375 3.64 2.5 4.082 2.5.443 0-.877-1.197-2.933-2.66-3.649-2.596-4.749-4.34-2.738-4.34.55 0 1 .525 1 1.167 0 .641.282.884.627.539.345-.345 2.032-.05 3.75.654 1.718.705 5.095 1.084 7.505.843 2.94-.294 4.165-.088 3.723.627-.814 1.318 3.064.69 4.839-.784.682-.566 1.497-.772 1.811-.458.313.314.218-.99-.212-2.898-1.007-4.464.778-6.082 9.774-8.861 5.434-1.678 7.23-1.852 9.744-.943 6.736 2.436 9.553-.068 6.498-5.776-.518-.968-1.041-4.519-1.163-7.893-.122-3.374-.551-5.93-.954-5.681-.722.446-1.942-1.827-1.942-3.618 0-.505.99-.918 2.2-.918 1.591 0 1.898-.302 1.107-1.093-.79-.79-.708-1.828.294-3.75 1.951-3.739 1.826-4.081-2.101-5.721C328.323 72.108 326.571 69 329 69c.55 0 1-.675 1-1.5s.402-1.5.893-1.5c2.738 0 1.488-3.357-2.917-7.833l-4.904-4.982 6.714-3.944C336.299 45.414 343 42.566 343 43.623c0 .286.703-.183 1.561-1.041.859-.859 4.122-2.296 7.25-3.193 10.541-3.021 10.426-4.347-1.399-16.119-4.569-4.549-8.016-8.27-7.66-8.27 1.49 0-1.458-1.79-3.888-2.361-1.697-.399-3.053-.117-3.808.794m-3.353 4.998c-8.636 6.523-17.346 14.964-26.125 25.319-4.313 5.087-8.122 9.25-8.466 9.25-.961 0-12.013 10.92-13.778 13.613-1.225 1.87-2.459 2.392-5.699 2.411-2.274.013-5.922.438-8.107.945-4.894 1.134-4.889 1.14-3.066-3.224 3.123-7.473 5.236-22.195 3.354-23.359-.72-.445-2.878 1.144-5.529 4.072-11.2 12.371-14.62 30.661-10.37 55.454.906 5.286.848 6.691-.33 8-.786.873-2.562 3.585-3.945 6.026l-2.516 4.438 2.687 2.375c4.545 4.017 16.947.789 25.365-6.602 4.37-3.837 7.054-3.953 12.011-.518 3.142 2.178 4.569 2.544 8.284 2.125 2.824-.318 5.138-.03 6.243.778 3.19 2.333 5.849-.022 3.71-3.287-2.203-3.363.743-6.05 9.371-8.547 9.49-2.746 11.16-2.981 12.614-1.774 4.233 3.513 7.942 1.404 4.872-2.771-1.406-1.911-1.826-3.726-1.5-6.48.28-2.362-.202-5.278-1.261-7.626-1.701-3.771-1.692-3.834 1.028-7.946 1.509-2.279 2.564-4.304 2.346-4.5-.218-.197-2.309-1.322-4.646-2.5-5.06-2.552-5.124-2.891-1.25-6.603 3.983-3.816 3.886-4.251-2.142-9.584-3.191-2.824-4.9-5.039-4.449-5.769C321.72 50.027 352.229 36 355.53 36c3.397 0 1.849-2.597-7.126-11.947-5.307-5.529-9.932-10.041-10.277-10.026-.345.014-3.236 1.996-6.424 4.404m-29.102 45.086c-2.599 3.54-6.086 7.404-7.749 8.588-4.898 3.488-2.199 4.929 10.847 5.79 8.205.541 11.984 1.259 15.052 2.858 3.533 1.842 4.262 1.937 5.295.691 1.304-1.571-1.086-2.913-9.796-5.499-5.182-1.538-5.207-1.88-.511-7.078l3.739-4.138-2.404-1.614c-1.322-.888-4.056-2.609-6.076-3.824l-3.672-2.21-4.725 6.436m-114.16 20.038c-1.91 1.53-1.909 1.541.059.635 1.1-.506 2.675-1.17 3.5-1.476 1.296-.48 1.288-.567-.059-.635-.857-.043-2.432.621-3.5 1.476m7.559-.841c.825.306 2.4.97 3.5 1.476 1.968.906 1.969.895.059-.635-1.068-.855-2.643-1.519-3.5-1.476-1.347.068-1.355.155-.059.635m-99.25 3.029c3.987.189 10.513.189 14.5 0 3.987-.19.725-.346-7.25-.346s-11.237.156-7.25.346m112.727 7.038c4.387 4.52 8.12 8.219 8.296 8.219.847 0-3.909-5.1-9.764-10.469-5.938-5.446-5.809-5.248 1.468 2.25m157.336-7.098c.721.289 1.584.253 1.916-.079.332-.332-.258-.568-1.312-.525-1.165.048-1.402.285-.604.604m144 0c.721.289 1.584.253 1.916-.079.332-.332-.258-.568-1.312-.525-1.165.048-1.402.285-.604.604m4.752.212c-.305.493.096 1.145.89 1.449.963.37 1.258.072.887-.895-.645-1.68-1.011-1.794-1.777-.554m-339.27 14.488c-16.541 16.417-16.356 15.814-6.785 22.168l5.49 3.643V225.293l-4.5 4.81c-6.911 7.389-6.482 8.592 8.648 24.205 15.177 15.661 14.144 15.676 30.435-.43 15.483-15.307 15.943-16.885 7.272-24.974L213 225.307v-97.614l5-5.287c7.544-7.976 7.396-8.425-7.792-23.614-17.035-17.034-15.054-17.127-33.913 1.591M375 87.226c0 .49-.562.568-1.25.173-.687-.396-1.025-.508-.75-.25 5.672 5.324 12.074 10.846 10.748 9.27-.964-1.145-1.526-2.382-1.25-2.75.276-.368.196-.438-.179-.155-1.282.969-6.352-4.769-5.317-6.017.661-.796.497-1.164-.518-1.164-.816 0-1.484.402-1.484.893m37.601-.062c.255.412 1.124.495 1.931.185 2.036-.781 1.834-1.252-.463-1.079-1.062.08-1.722.482-1.468.894m12.997-.323c-.319.517.54 1.675 1.911 2.573 2.988 1.958 3.133 1.632.581-1.311-1.051-1.211-2.172-1.779-2.492-1.262m77.569 2.909c-2.091 2.089-2.407 2.59-.711 1.132 1.674-1.44 3.944-3.114 5.044-3.72 1.1-.606 1.42-1.115.711-1.132-.709-.016-2.978 1.658-5.044 3.72M83.351 87.684c.376.377-.786 2.289-2.583 4.25L77.5 95.5l3.711-3.408C84.43 89.135 85.296 87 83.274 87c-.334 0-.299.308.077.684m276.521 1.066c-1.243 1.586-1.208 1.621.378.378 1.666-1.307 2.195-2.128 1.372-2.128-.207 0-.995.787-1.75 1.75m48.565 2.5L405.5 94.5l3.25-2.937c3.029-2.738 3.71-3.563 2.937-3.563-.172 0-1.635 1.463-3.25 3.25M538.5 108c10.99 11 20.206 20 20.481 20 .275 0-8.491-9-19.481-20-10.99-11-20.206-20-20.481-20-.275 0 8.491 9 19.481 20m-450-17.118c-1.65 1.03-8.062 7.035-14.25 13.342-13.51 13.773-13.888 15.042-6.75 22.673l4.5 4.81v98.03l-4.5 4.5c-7.333 7.333-6.902 8.655 7.622 23.346 16.736 16.929 14.817 16.975 33.128-.8 14.228-13.812 14.694-15.305 7.058-22.621l-4.692-4.496-.186-10.083-.186-10.083 24.532-24.5c28.593-28.555 28.241-28.086 28.146-37.5-.149-14.808.695-13.362-20.679-35.413-10.592-10.926-20.785-20.591-22.652-21.477-5.227-2.48-26.99-2.29-31.091.272m43 5.118c3.82 3.85 7.171 7 7.446 7 .275 0-2.626-3.15-6.446-7s-7.171-7-7.446-7c-.275 0 2.626 3.15 6.446 7m219.942 6.578C344.599 109.496 339 115.767 339 116.513c0 2.881 2.264 7.136 5.653 10.625l3.535 3.639-.023 49.182-.023 49.181-4.571 4.887c-7.036 7.523-6.816 8.143 8.221 23.181 16.425 16.424 14.912 16.358 30.149 1.309l11.626-11.483 11.45 11.483c15.103 15.146 13.673 15.208 30.191-1.309 15.185-15.186 15.569-16.265 8.292-23.317l-4.5-4.361v-12.331c0-14.868.423-13.988-12.892-26.83l-10.608-10.23 10.699-10.819C438.812 156.565 439 156.159 439 141.647v-11.222l5-4.925c7.439-7.328 7.287-7.769-7.843-22.768-17.072-16.924-16.298-16.882-31.46-1.696l-11.018 11.036-11.186-11.036c-15.325-15.12-14.53-15.159-31.051 1.542m136.964 7.441c-10.916 11.011-20.214 20.674-20.662 21.474-.447.799-.791 22.968-.764 49.263l.05 47.808-3.952 3.86c-4.517 4.41-6.659 8.724-5.419 10.913.463.817 6.335 7.15 13.049 14.074 15.674 16.163 14.176 16.119 29.699.884l11.907-11.686 11.145 11.695c14.709 15.436 13.215 15.507 30.299-1.44 15.473-15.348 15.568-15.614 8.242-23.056l-5-5.079v-97.12l-20.719-20.805c-26.896-27.007-21.957-26.926-47.875-.785m-306.843-7.475c-13.299 13.018-12.793 11.001-4.813 19.188l3.25 3.335v102.631l-5.25 4.901-5.25 4.901 11.618 11.75c6.39 6.463 12.193 11.75 12.895 11.75 1.358 0 21.549-19.386 23.035-22.117.667-1.226-.317-2.826-4.084-6.632L208 227.234V125.693l5.043-5.332c4.099-4.334 4.855-5.662 4.037-7.097C215.61 110.686 195.507 91 194.344 91c-.544 0-6.295 5.195-12.781 11.544M79.902 105.72C73.356 112.166 68 118.113 68 118.936c0 .822 2.027 3.554 4.505 6.069l4.505 4.574.044 50.5c.025 27.775-.23 51.217-.567 52.093-.336.876-2.383 3.017-4.549 4.757-5.591 4.493-5.245 5.312 7.589 17.968l11.527 11.367 11.223-10.868c15.245-14.764 14.497-12.984 7.973-18.974l-4.75-4.361-.255-12.205-.256-12.204 25.729-25.813c14.15-14.196 26.022-26.607 26.382-27.579.359-.972.532-5.756.384-10.631l-.27-8.863-6.782-6.834c-3.73-3.759-7.222-6.562-7.761-6.229-.539.334-.693.142-.343-.425.71-1.148-21.574-24.483-25.012-26.192-1.202-.597-7.433-1.086-13.848-1.086H91.805l-11.903 11.72m95.557-10.653c-.363.586-.445 1.281-.183 1.543s.743-.218 1.069-1.067c.676-1.762.1-2.072-.886-.476M492.5 95c.34.55.816 1 1.059 1s.441-.45.441-1-.477-1-1.059-1-.781.45-.441 1m-137.81 11.671-11.649 11.672 5.479 5.393 5.48 5.393V230.12l-5.093 5.385c-3.341 3.532-4.826 5.834-4.316 6.69 1.461 2.453 21.907 22.781 22.925 22.793.559.007 6.12-5.106 12.358-11.361 12.705-12.742 12.83-13.119 6.107-18.522L382 231.906v-25.752l3.077-3.077c4.146-4.146 4.24-4.115 12.6 4.246l7.323 7.322v16.939L400.5 236c-2.475 2.429-4.5 4.893-4.5 5.475 0 1.343 22.188 23.525 23.532 23.525 1.273 0 23.468-22.207 23.468-23.481 0-.523-2.064-3.045-4.586-5.606l-4.585-4.655.102-12.879.103-12.879-12.017-11.984C415.408 186.924 410 180.827 410 179.967c0-.86 4.88-6.504 10.845-12.542 13.605-13.771 13.371-13.311 13.125-25.768-.11-5.586-.149-10.872-.085-11.745.063-.873 2.137-3.573 4.607-6 2.471-2.427 4.496-4.864 4.5-5.416C443.005 116.789 420.88 95 419.134 95c-1.81 0-17.801 16.816-17.359 18.254.151.492-.221.588-.827.214-1.253-.775-4.956 2.784-4.931 4.74.009.711 1.98 3.188 4.381 5.506 4.793 4.629 6.313 9.745 5.046 16.989-.689 3.941-19.268 24.297-22.176 24.297-.978 0-1.268-4.188-1.268-18.292v-18.292l4.5-4.416c2.475-2.429 4.5-5.029 4.5-5.778C391 116.296 369.835 95 367.921 95c-.87 0-6.823 5.252-13.231 11.671M435.5 97c.995 1.1 2.035 2 2.31 2 .275 0-.315-.9-1.31-2-.995-1.1-2.035-2-2.31-2-.275 0 .315.9 1.31 2m55.74 17.259L472 133.519v97.301l-4.5 4.289c-2.475 2.358-4.5 4.994-4.5 5.856 0 .862 5.167 6.72 11.483 13.018l11.482 11.45 10.798-10.467c15.002-14.541 14.428-13.198 8.295-19.407l-5.119-5.183.281-13.438.28-13.438 9.5-.293c15.026-.464 14-1.498 14 14.1v13.268l-5.009 4.934c-2.756 2.714-4.893 5.262-4.75 5.662.45 1.264 22.676 23.829 23.471 23.829.417 0 6.034-5.263 12.484-11.695l11.725-11.695-4.96-5.245L552 231.12v-97.509l-19.245-19.306C522.17 103.687 512.828 95 511.995 95c-.833 0-10.172 8.667-20.755 19.259M386.5 100c.34.55.816 1 1.059 1s.441-.45.441-1-.477-1-1.059-1-.781.45-.441 1m103.17 2.614c-2.106 1.958-3.652 3.737-3.435 3.954.217.218 2.145-1.396 4.283-3.586 4.818-4.935 4.305-5.157-.848-.368M66.469 106.25 60.5 112.5l6.25-5.969c5.806-5.544 6.708-6.531 5.969-6.531-.155 0-2.968 2.813-6.25 6.25M219 102.313c0 .172 1.434 1.635 3.186 3.25l3.186 2.937-2.436-3.195c-2.069-2.713-3.936-4.133-3.936-2.992m-56.538 5.937-4.962 5.25 5.25-4.962c4.878-4.612 5.709-5.538 4.962-5.538-.158 0-2.52 2.362-5.25 5.25m180.235-3.931c.308.498-.048 1.28-.79 1.738-.742.459-1.103 1.08-.802 1.381.301.301 1.496-.544 2.656-1.878 1.972-2.268 1.988-2.417.243-2.285-1.026.077-1.614.547-1.307 1.044M445 107c0 .55.477 1 1.059 1s.781-.45.441-1-.816-1-1.059-1-.441.45-.441 1m-219.33 5.5c.758 4.943 1.335 5.785 1.315 1.917-.009-1.604-.446-3.592-.972-4.417-.651-1.021-.761-.224-.343 2.5M449.5 111c.995 1.1 2.035 2 2.31 2 .275 0-.315-.9-1.31-2-.995-1.1-2.035-2-2.31-2-.275 0 .315.9 1.31 2m25.262 6.75c-4.8 4.813-9.059 9.2-9.464 9.75-.404.55 3.638-3.266 8.983-8.48 8.982-8.762 10.171-10.02 9.464-10.02-.14 0-4.182 3.938-8.983 8.75m-138.727-4.816c-.569 1.064-.983 3.202-.92 4.75.104 2.539.183 2.468.807-.718.381-1.944 1.031-4.081 1.444-4.75.414-.669.516-1.216.228-1.216-.288 0-.989.87-1.559 1.934m-276.69 1.609c-.326.849-.369 1.767-.096 2.04.274.273.737-.422 1.03-1.543.624-2.383-.069-2.751-.934-.497m97.734 1.04c.048 1.165.285 1.402.604.605.289-.722.253-1.585-.079-1.917-.332-.332-.568.258-.525 1.312m1.254 3.96c0 .801.226 1.231.503.955.862-.863 4.151 2.713 3.486 3.79-.357.578-.139.717.503.32.623-.385 2.155-.22 3.404.366 2.017.947 2.058.925.367-.204-1.048-.698-3.335-2.488-5.084-3.977-2.212-1.884-3.179-2.264-3.179-1.25m66.667-.687c0 .654-1.897 3.316-4.215 5.916-4.174 4.682-4.178 4.694-.418 1.228 4.093-3.772 6.144-6.822 5.214-7.752-.32-.32-.581-.046-.581.608m-68 3.522c0 .207.685.946 1.523 1.641 1.273 1.057 1.42.995.893-.378-.538-1.401-2.416-2.384-2.416-1.263m289.663 5.457-4.762 4.834.354 6.916.353 6.915.196-6.966c.193-6.861.266-7.037 4.908-11.75 2.592-2.631 4.488-4.784 4.213-4.784-.275 0-2.643 2.176-5.262 4.835m53.57 20.415.267 25.25 10.919.286c8.062.21 11.132-.051 11.735-1 .448-.708.822-7.316.831-14.685l.015-13.4-10.692-10.85C507.427 127.883 502.019 123 501.29 123c-1.071 0-1.273 4.822-1.057 25.25m-394.459-20c-.728 7.103-.327 36.53.509 37.366.763.764 21.717-19.338 21.717-20.834 0-1.116-19.714-20.782-20.832-20.782-.527 0-1.154 1.912-1.394 4.25m164.593-3.466c.371.601-.118 1.537-1.088 2.08-.969.542-1.501 1.248-1.181 1.567.319.32 1.357-.277 2.307-1.326 1.296-1.432 1.422-2.094.506-2.66-.755-.466-.962-.337-.544.339m26.633-.401c0 .211 1.111.596 2.47.856 1.358.26 2.232.087 1.941-.383-.512-.829-4.411-1.246-4.411-.473m40 .254c0 .534 1.688 2.521 3.75 4.417l3.75 3.446-3.5-3.989c-1.925-2.194-3.613-4.181-3.75-4.417-.137-.235-.25.009-.25.543m53.166 2.692-3.232 3.335.283 11.763.283 11.764 6.25-5.95 6.25-5.95v-5.949c0-5.418-.295-6.235-3.301-9.149l-3.301-3.199-3.232 3.335m-96.353-1.646c.721.289 1.584.253 1.916-.079.332-.332-.258-.568-1.312-.525-1.165.048-1.402.285-.604.604m-232.024 1.409c.656.876.86 1.96.452 2.41-.407.45-.244.535.364.189.607-.346 2.065.394 3.24 1.644 2.111 2.247 2.138 2.818 2.405 50.219l.27 47.946.24-48.047.24-48.047-4.203-3.953c-2.311-2.174-3.665-3.237-3.008-2.361m100.921 1.051c.665.806 1.651 2.565 2.191 3.911l.982 2.446-.151-2.64c-.082-1.453-1.067-3.211-2.191-3.911-1.761-1.096-1.875-1.069-.831.194m228.952 2.678c-1.482 1.637-2.61 15.179-1.265 15.179 2.511 0 6.603-5.93 6.603-9.568 0-5.469-2.801-8.414-5.338-5.611m167.948.679c.823 3.677 1.395 4.475 1.375 1.917-.009-1.054-.472-2.592-1.031-3.417-.741-1.095-.834-.691-.344 1.5M171.158 133c0 1.375.227 1.938.504 1.25.278-.687.278-1.812 0-2.5-.277-.687-.504-.125-.504 1.25M505 150.777V169h14v-22.554l-7-6.946-7-6.946v18.223m-394-5.774v10.429l5.475-5.408c3.012-2.974 5.365-5.433 5.229-5.465-.135-.033-2.599-2.292-5.475-5.021L111 134.575v10.428M344.459 179.5c.001 24.2.131 33.957.29 21.682.159-12.275.159-32.075 0-44-.16-11.925-.29-1.882-.29 22.318m117.736-41c.02 1.65.244 2.204.498 1.231.254-.973.237-2.323-.037-3-.274-.677-.481.119-.461 1.769M166.36 146c0 5.225.169 7.363.375 4.75.206-2.613.206-6.887 0-9.5-.206-2.613-.375-.475-.375 4.75m50.835-6.5c.02 1.65.244 2.204.498 1.231.254-.973.237-2.323-.037-3-.274-.677-.481.119-.461 1.769m44.429 3.039c-.965 2.514-.681 3.163.498 1.136.584-1.004.851-2.036.593-2.293-.257-.258-.749.263-1.091 1.157m247.403 10.711c-.015 6.463.31 11.787.723 11.833 5.647.628 5.25 1.094 5.25-6.168 0-3.713.261-7.431.579-8.261.35-.91-.832-3.029-2.973-5.332l-3.552-3.822-.027 11.75M114 145c0 1.867.267 2.133 1.2 1.2.933-.933.933-1.467 0-2.4-.933-.933-1.2-.667-1.2 1.2m446.451 36.5c0 19.8.134 28.042.297 18.315.164-9.727.164-25.927.001-36s-.297-2.115-.298 17.685m-302.827-29.961c-.965 2.514-.681 3.163.498 1.136.584-1.004.851-2.036.593-2.293-.257-.258-.749.263-1.091 1.157m184.455 2.044c.048 1.165.285 1.402.604.605.289-.722.253-1.585-.079-1.917-.332-.332-.568.258-.525 1.312m-277.935 6.167c-1.091 2.55-1.066 2.609.34.809.834-1.068 1.516-2.305 1.516-2.75 0-1.52-.678-.81-1.856 1.941m88.989 2.383c-1.184 2.85-1.988 5.346-1.786 5.547.202.202 1.336-1.964 2.52-4.813 1.184-2.85 1.988-5.346 1.786-5.547-.202-.202-1.336 1.964-2.52 4.813m184.519.437c-2.164 2.712-2.361 3.266-.822 2.304 1.61-1.005 4.841-5.874 3.899-5.874-.126 0-1.511 1.607-3.077 3.57m-150.654 1.68c.001.412 5.74.671 12.752.575 13.059-.179 11.532-.582-4.002-1.057-4.814-.148-8.752.07-8.75.482m-137.357 10.608c-7.633 7.662-9.455 9.999-8.179 10.489 1.048.402 1.397.234.965-.465-.381-.616 3.408-5.196 8.679-10.488 5.145-5.167 9.13-9.394 8.855-9.394-.274 0-4.918 4.436-10.32 9.858m159.356-5.608c-1.472 2.011-1.714 2.71-.634 1.832 1.64-1.331 4.12-5.082 3.36-5.082-.191 0-1.418 1.463-2.726 3.25M429.5 171c-.34.55-.141 1 .441 1s1.059-.45 1.059-1-.198-1-.441-1-.719.45-1.059 1m-180.876 1.539c-.965 2.514-.681 3.163.498 1.136.584-1.004.851-2.036.593-2.293-.257-.258-.749.263-1.091 1.157M429 174c0 .55.477 1 1.059 1s.781-.45.441-1-.816-1-1.059-1-.441.45-.441 1m-127 5c-1.175 1.65-1.911 3-1.636 3 .275 0 1.461-1.35 2.636-3s1.911-3 1.636-3c-.275 0-1.461 1.35-2.636 3m121.57-2.113c-.301.487.235 1.5 1.191 2.25 1.536 1.204 1.594 1.177.498-.229-.683-.876-.946-1.888-.584-2.25.362-.362.385-.658.051-.658-.335 0-.855.399-1.156.887m-2.57 2.836c0 .459 3.027 3.747 6.726 7.306s5.611 5.131 4.25 3.493c-1.362-1.638-3.23-3.687-4.151-4.553-1.546-1.453-1.55-1.653-.041-2.605 1.496-.943 1.489-1.031-.075-1.031-.94 0-1.723.488-1.741 1.084-.017.595-1.142-.18-2.5-1.723-1.357-1.543-2.468-2.43-2.468-1.971m-176.376 1.816c-.965 2.514-.681 3.163.498 1.136.584-1.004.851-2.036.593-2.293-.257-.258-.749.263-1.091 1.157m51.887 5.084c-.945 1.443-1.224 2.318-.62 1.944 1.154-.713 3.483-4.567 2.759-4.567-.231 0-1.193 1.18-2.139 2.623m-3.639 5.127c-1.243 1.586-1.208 1.621.378.378.962-.755 1.75-1.543 1.75-1.75 0-.823-.821-.294-2.128 1.372m-46.122.99c3.438.196 9.063.196 12.5 0 3.438-.195.625-.355-6.25-.355s-9.687.16-6.25.355m-116.167 1.126c-.431.697-.513 1.537-.183 1.867.895.895 1.871-.421 1.387-1.871-.338-1.016-.574-1.016-1.204.004m-10.138 10.405c-3.82 3.969-4.893 5.296-2.384 2.95 2.508-2.347 4.837-3.99 5.175-3.652.338.338 1.435.102 2.439-.525 1.591-.994 1.505-1.063-.675-.542-2.455.586-2.447.552.461-1.908 1.628-1.378 2.729-2.738 2.445-3.021-.284-.284-3.641 2.73-7.461 6.698m167.427-5.521c-1.243 1.586-1.208 1.621.378.378 1.666-1.307 2.195-2.128 1.372-2.128-.207 0-.995.787-1.75 1.75m-2.594 3.5c-1.499 1.938-2.442 3.75-1.952 3.75.244 0 1.181-1.125 2.082-2.5 1.686-2.573 1.592-3.476-.13-1.25m156.88 2.75c0 1.375.227 1.938.504 1.25.278-.687.278-1.812 0-2.5-.277-.687-.504-.125-.504 1.25m-54.551 2.582c-.334.87-.607 6.157-.607 11.75V229.5l3.435 2.74 3.434 2.741 3.066-2.579c2.85-2.399 3.065-3.042 3.065-9.183v-6.604l-5.568-5.307c-6.302-6.008-6.011-5.848-6.825-3.726M279 211c-1.175 1.65-1.911 3-1.636 3 .275 0 1.461-1.35 2.636-3s1.911-3 1.636-3c-.275 0-1.461 1.35-2.636 3m226 7.51v10.098l3.5 3.392 3.5 3.392 3.5-3.392 3.5-3.392v-20.196h-14v10.098m4 1.368c0 9.474 1.806 12.315 5.181 8.147 1.175-1.451 1.732-3.229 1.399-4.468-.304-1.131-.559-4.194-.566-6.807C515 212.142 514.91 212 512 212h-3v7.878m-119 .322c0 6.328.281 7.495 2.078 8.617 4.942 3.086 7.369-8.265 2.672-12.494-4.549-4.095-4.75-3.93-4.75 3.877m52.201-.124c-.184 6.917.016 7.779 2.295 9.92 1.373 1.29 2.737 2.104 3.031 1.81.295-.294-.585-1.269-1.954-2.166-2.237-1.466-2.523-2.415-2.83-9.385l-.341-7.755-.201 7.576M114.32 220c0 3.575.182 5.037.403 3.25.222-1.787.222-4.713 0-6.5-.221-1.787-.403-.325-.403 3.25M274 218c-1.175 1.65-1.911 3-1.636 3 .275 0 1.461-1.35 2.636-3s1.911-3 1.636-3c-.275 0-1.461 1.35-2.636 3m286 4.5c0 2.658.316 4.517.702 4.131.738-.737.534-7.728-.248-8.51-.25-.25-.454 1.721-.454 4.379m-290.128 1.25c-1.243 1.586-1.208 1.621.378.378.962-.755 1.75-1.543 1.75-1.75 0-.823-.821-.294-2.128 1.372M463.158 225c0 1.375.227 1.938.504 1.25.278-.687.278-1.812 0-2.5-.277-.687-.504-.125-.504 1.25m-293.631-.044c-.325.526-1.139.825-1.809.664-.67-.161-.844-.091-.387.154.458.246-.41 1.742-1.927 3.326-1.517 1.584-2.566 3.066-2.331 3.294.235.229 2.146-1.567 4.247-3.989 2.101-2.423 3.59-4.405 3.309-4.405-.281 0-.777.43-1.102.956m47.473-.578c0 .207.787.995 1.75 1.75 1.586 1.243 1.621 1.208.378-.378-1.307-1.666-2.128-2.195-2.128-1.372m123.453 6.872-3.953 4.25 4.25-3.953c3.952-3.676 4.71-4.547 3.953-4.547-.163 0-2.076 1.912-4.25 4.25m119.339-3.574c.987.396 1.019.847.136 1.91-.635.766-1.666 1.1-2.291.743-.625-.357-.803-.281-.396.169.408.45.2 1.534-.461 2.41-.662.876.226.286 1.973-1.311 3.052-2.79 3.445-4.684.938-4.518-.817.054-.786.241.101.597M264 232c-1.175 1.65-1.911 3-1.636 3 .275 0 1.461-1.35 2.636-3s1.911-3 1.636-3c-.275 0-1.461 1.35-2.636 3m-145.5 0c.995 1.1 2.035 2 2.31 2 .275 0-.315-.9-1.31-2-.995-1.1-2.035-2-2.31-2-.275 0 .315.9 1.31 2m-55.628.75c-1.243 1.586-1.208 1.621.378.378.963-.755 1.75-1.543 1.75-1.75 0-.823-.821-.294-2.128 1.372m161.692-.457c.376.986.935 1.541 1.243 1.233.308-.307.001-1.114-.683-1.793-.988-.98-1.102-.865-.56.56m340.967-.343c-.889 1.439 2.818 3.074 4.523 1.996 1.524-.965.681-1.307-2.413-.98-1.11.118-1.59-.239-1.191-.885.367-.594.443-1.081.168-1.081s-.764.427-1.087.95M162.232 237c0 1.925.206 2.713.457 1.75.252-.963.252-2.537 0-3.5-.251-.963-.457-.175-.457 1.75m63.884.316c-.183 4.452-1.636 6.464-13.475 18.673-6.127 6.32-8.864 9.346-6.082 6.726 2.782-2.62 5.482-4.415 6-3.989.518.426.602.36.187-.146-.414-.507 2.37-4.143 6.188-8.08 6.802-7.015 8.717-10.507 7.771-14.171-.309-1.194-.513-.851-.589.987m228.348-1.551c-.57.404-1.103 2.535-1.185 4.735l-.147 4 .741-3.534c.408-1.944 1.08-4.081 1.493-4.75.855-1.383.595-1.512-.902-.451m-194.592 1.985c-1.243 1.586-1.208 1.621.378.378.962-.755 1.75-1.543 1.75-1.75 0-.823-.821-.294-2.128 1.372m75.38 3.75c.011 2.2.216 2.982.455 1.738.239-1.244.23-3.044-.02-4s-.446.062-.435 2.262M163 241.642c0 .537.7 1.849 1.555 2.917 1.467 1.83 1.487 1.798.365-.559-1.458-3.061-1.92-3.628-1.92-2.358m91.872 3.108c-1.243 1.586-1.208 1.621.378.378 1.666-1.307 2.195-2.128 1.372-2.128-.207 0-.995.787-1.75 1.75m-8.248.789c-.343.893-.595 2.15-.561 2.793.035.642.495.09 1.022-1.227.527-1.318.779-2.574.56-2.793-.219-.219-.679.333-1.021 1.227m203.94.168c-.542 1.425-.428 1.54.56.56.684-.679.991-1.486.683-1.793-.308-.308-.867.247-1.243 1.233M336.785 247.5c.581 1.1 2.99 3.8 5.352 6 4.244 3.951 2.886 2.242-5.954-7.5-.25-.275.021.4.602 1.5m-170.702-.239c.23.143 1.542 1.156 2.917 2.25l2.5 1.989-1.905-2.25c-1.048-1.238-2.36-2.25-2.917-2.25-.556 0-.824.117-.595.261m288.917.014c0 .151 3.488 3.639 7.75 7.75l7.75 7.475-7.475-7.75c-6.943-7.198-8.025-8.206-8.025-7.475m-17.016 12.442c-6.316 6.444-11.131 11.453-10.699 11.132 1.397-1.042 20.172-19.464 21.587-21.183 3.515-4.267-.372-.679-10.888 10.051M64.5 253c2.148 2.2 4.131 4 4.406 4 .275 0-1.258-1.8-3.406-4s-4.131-4-4.406-4c-.275 0 1.258 1.8 3.406 4m54.372-1.25c-1.243 1.586-1.208 1.621.378.378 1.666-1.307 2.195-2.128 1.372-2.128-.207 0-.995.787-1.75 1.75m131 0c-1.243 1.586-1.208 1.621.378.378 1.666-1.307 2.195-2.128 1.372-2.128-.207 0-.995.787-1.75 1.75m133.61 10.492c-5.49 5.634-7.481 7.872-4.424 4.975 3.056-2.898 5.941-4.919 6.41-4.493.469.427.58.296.246-.291-.333-.587 1.304-2.918 3.638-5.18l4.244-4.113 6.128 6.235c10.284 10.462 15.149 14.628 17.004 14.562 1.259-.045 1.049-.348-.728-1.045-1.375-.54-7.008-5.461-12.518-10.937l-10.018-9.957-9.982 10.244M518 258.5c3.543 3.575 6.667 6.5 6.942 6.5.275 0-2.399-2.925-5.942-6.5s-6.667-6.5-6.942-6.5c-.275 0 2.399 2.925 5.942 6.5m34.982 4.134c-5.765 5.848-9.807 10.257-8.982 9.797.825-.46 2.324-1.875 3.33-3.143 1.007-1.269 2.357-2.006 3-1.637.644.368.819.284.39-.187-.429-.471 2.485-4.144 6.475-8.16 3.99-4.017 7.033-7.304 6.762-7.304-.271 0-5.21 4.785-10.975 10.634m-50.007-1.886c-5.468 5.667-5.849 6.196-1.419 1.973 3.331-3.176 6.256-5.65 6.5-5.498.244.152.331.089.192-.142-.139-.23.493-1.243 1.405-2.25.911-1.007 1.463-1.831 1.227-1.831-.237 0-3.794 3.486-7.905 7.748m-258.103-1.998c-1.243 1.586-1.208 1.621.378.378 1.666-1.307 2.195-2.128 1.372-2.128-.207 0-.995.788-1.75 1.75m-171.809 2.827c1.89 2.242 3.64 3.915 3.887 3.717.248-.199-1.299-2.033-3.437-4.077l-3.887-3.717 3.437 4.077M177 258.893c0 .491.739 1.176 1.641 1.523 1.373.527 1.435.38.378-.893-1.44-1.735-2.019-1.916-2.019-.63m64 3.896c0 1.181.283 1.221 1.5.211.825-.685 1.5-1.34 1.5-1.456 0-.116-.675-.211-1.5-.211s-1.5.655-1.5 1.456m110-.411c0 .207.788.995 1.75 1.75 1.586 1.243 1.621 1.208.378-.378-1.307-1.666-2.128-2.195-2.128-1.372m120 1c0 .207.788.995 1.75 1.75 1.586 1.243 1.621 1.208.378-.378-1.307-1.666-2.128-2.195-2.128-1.372m-286.653 2.453c.912 1.007 1.319 2.204.905 2.66-.414.457-.16.488.563.07 1.226-.708-.992-4.561-2.625-4.561-.275 0 .246.824 1.157 1.831m-101.891 4.49c5.576 5.268 5.667 5.314 9.044 4.573l3-.657-2.816-.119c-3.409-.143-6.191-1.5-10.228-4.988-1.674-1.446-1.224-.911 1 1.191M357 268.5c1.292 1.375 2.574 2.5 2.849 2.5.275 0-.557-1.125-1.849-2.5-1.292-1.375-2.574-2.5-2.849-2.5-.275 0 .557 1.125 1.849 2.5m170.004 0c1.373 1.65 2.608 3.188 2.746 3.417.138.229.47.196.74-.073.269-.269-.967-1.807-2.747-3.417l-3.236-2.927 2.497 3m-426.132.25c-1.243 1.586-1.208 1.621.378.378 1.666-1.307 2.195-2.128 1.372-2.128-.207 0-.995.788-1.75 1.75M474.5 268c.34.55.816 1 1.059 1s.441-.45.441-1-.477-1-1.059-1-.781.45-.441 1M198 269c-.901.582-1.025.975-.309.985.655.008 1.469-.435 1.809-.985.767-1.242.421-1.242-1.5 0m293.872 2.75c-1.269 1.619-1.222 1.64.628.283 1.1-.807 2.188-1.594 2.417-1.75.229-.156-.054-.283-.628-.283s-1.662.788-2.417 1.75M477.5 272c.34.55 1.293 1 2.118 1s1.222-.45.882-1c-.34-.55-1.293-1-2.118-1s-1.222.45-.882 1M96 273c-.901.582-1.025.975-.309.985.655.008 1.469-.435 1.809-.985.767-1.242.421-1.242-1.5 0m268.75.662c.688.278 1.813.278 2.5 0 .688-.277.125-.504-1.25-.504s-1.937.227-1.25.504m118.063.021c.721.289 1.584.253 1.916-.079.332-.332-.258-.568-1.312-.525-1.165.048-1.402.285-.604.604" fill-rule="evenodd"/>
<path fill="#bab547" stroke="#bab547" d="M335.056 13.433c-.691.832-2.281 1.23-3.865.969-2.118-.35-2.372-.217-1.191.628 1.308.936 1.264 1.227-.338 2.272-1.011.659-3.754 3.013-6.096 5.232-2.342 2.219-5.477 4.833-6.966 5.808-1.489.976-2.965 2.445-3.279 3.265-.315.82-1.753 2.73-3.197 4.245-1.443 1.514-4.424 4.898-6.624 7.52-4.82 5.742-4.859 5.78-16.063 15.567-2.165 1.891-3.754 3.674-3.529 3.961.975 1.249-4.856 4.009-9.804 4.64-5.327.679-5.388.657-4.703-1.676 3.282-11.175 3.712-23.582.849-24.468-.962-.298-2.65-1.031-3.75-1.63-1.69-.919-1.815-.864-.81.353.964 1.167.426 2.244-2.825 5.661-2.209 2.321-3.644 4.227-3.19 4.235.454.009.375.346-.175.75-1.352.994-6.5 11.577-6.5 13.362 0 .786-.603 2.316-1.341 3.4-.739 1.089-1.257 4.086-1.154 6.687.127 3.19-.167 4.502-.909 4.058-.603-.361-.496.084.237.988s1.089 2.453.791 3.442c-1.081 3.588-1.487 10.265-.655 10.779 1.48.914 3.447 14.88 2.156 15.311-.619.206-1.125.925-1.125 1.597 0 .672-1.125 2.747-2.5 4.611-3.394 4.6-3.165 7.209.946 10.819 3.93 3.45 9.339 2.952 18.338-1.686 4.24-2.186 6.875-2.097 5.578.186-.369.65.636-.017 2.233-1.482 3.099-2.842 6.127-3.775 8.144-2.51.849.533 1.051.289.643-.775-.328-.854-.098-1.552.511-1.552s1.107.525 1.107 1.167c0 .641.282.884.627.539.345-.345 2.032-.05 3.75.654 1.718.705 5.095 1.084 7.505.843 2.94-.294 4.165-.088 3.723.627-.814 1.318 3.064.69 4.839-.784.682-.566 1.497-.772 1.811-.458.313.314.218-.99-.212-2.898-1.007-4.464.778-6.082 9.774-8.861 5.434-1.678 7.23-1.852 9.744-.943 6.736 2.436 9.553-.068 6.498-5.776-.518-.968-1.041-4.519-1.163-7.893-.122-3.374-.551-5.93-.954-5.681-.722.446-1.942-1.827-1.942-3.618 0-.505.99-.918 2.2-.918 1.591 0 1.898-.302 1.107-1.093-.79-.79-.708-1.828.294-3.75 1.951-3.739 1.826-4.081-2.101-5.721C328.323 72.108 326.571 69 329 69c.55 0 1-.675 1-1.5s.402-1.5.893-1.5c2.738 0 1.488-3.357-2.917-7.833l-4.904-4.982 6.714-3.944C336.299 45.414 343 42.566 343 43.623c0 .286.703-.183 1.561-1.041.859-.859 4.122-2.296 7.25-3.193 7.01-2.009 8.424-3.073 7.587-5.709-.807-2.544-16.207-18.204-17.061-17.35-.345.344 2.926 4.258 7.268 8.698 8.985 9.186 9.616 10.453 5.695 11.423-3.337.826-21.392 8.584-29.686 12.755l-5.887 2.96 5.847 5.909 5.848 5.909-3.821 3.913-3.821 3.912 4.61 2.039c5.302 2.346 5.481 2.977 2.206 7.796l-2.403 3.537 1.972 4.459c1.302 2.943 1.754 5.452 1.33 7.381-.431 1.966-.058 3.91 1.142 5.941 2.562 4.338.64 6.179-3.905 3.737-3.126-1.679-3.506-1.656-11.571.692-9.994 2.91-14.042 5.978-11.538 8.745 2.259 2.497 1.044 5.314-1.885 4.368-1.231-.397-4.716-.791-7.744-.876-4.311-.12-6.284-.748-9.094-2.891-4.73-3.608-6.256-3.467-12.308 1.138-6.546 4.981-7.844 5.617-15.497 7.6l-6.357 1.648-2.869-2.749c-3.571-3.421-3.624-2.896 1.007-10.06 4.171-6.455 4.297-8.442 1.256-19.869-1.319-4.96.076-24.271 2.17-30.016 4.061-11.147 13.021-23.584 15.766-21.887 1.635 1.01.511 12.419-2.026 20.57-1.079 3.466-1.856 6.407-1.728 6.535.128.128 3.597-.031 7.709-.355l7.477-.588 3.791-4.885c2.085-2.687 6.448-6.948 9.695-9.47 3.247-2.521 7.004-6.219 8.349-8.217 8.61-12.793 32.345-33.437 35.895-31.22 1.295.808 2.349.909 2.975.283 1.109-1.109.388-1.658-3.341-2.547-1.705-.407-3.049-.13-3.808.785M304.47 61.75c-1.523 2.063-4.811 5.877-7.309 8.477-2.497 2.6-4.224 5.044-3.836 5.431.944.944 9.917 2.179 16.49 2.269 3.059.042 7.421.979 10.28 2.209 4.797 2.064 6.766 2.067 5.494.008-.336-.543-3.643-1.984-7.35-3.202-3.706-1.217-6.936-2.387-7.177-2.599-.24-.212 1.532-2.391 3.938-4.843s4.178-4.639 3.938-4.859c-.914-.838-10.683-6.641-11.18-6.641-.286 0-1.766 1.688-3.288 3.75M90.813 85.683c.721.289 1.584.253 1.916-.079.332-.332-.258-.568-1.312-.525-1.165.048-1.402.285-.604.604m118.664 7.098c4.387 4.52 8.12 8.219 8.296 8.219.847 0-3.909-5.1-9.764-10.469-5.938-5.446-5.809-5.248 1.468 2.25m157.336-7.098c.721.289 1.584.253 1.916-.079.332-.332-.258-.568-1.312-.525-1.165.048-1.402.285-.604.604m144 0c.721.289 1.584.253 1.916-.079.332-.332-.258-.568-1.312-.525-1.165.048-1.402.285-.604.604m-332.164 12.99c-18.334 17.67-18.287 17.586-11.899 21.407 2.063 1.234 4.762 3.149 6 4.256l2.25 2.013V225.424l-4.154 4.233c-7.178 7.313-6.598 8.906 9.033 24.807 14.541 14.794 13.178 14.792 28.77.044 15.874-15.014 16.584-17.112 8.448-24.961L213 225.594v-98.202l3.618-3.446c4.435-4.225 6.47-8.585 5.363-11.495-.967-2.546-21.533-23.635-24.665-25.294-4.002-2.12-5.437-1.234-18.667 11.516M375 87.454c0 .617 2.349 3.354 5.219 6.084 2.871 2.729 4.445 4.025 3.498 2.881-.947-1.145-1.495-2.382-1.219-2.75.276-.368.196-.438-.179-.155-1.282.969-6.352-4.769-5.317-6.017.661-.796.497-1.164-.518-1.164-.816 0-1.484.505-1.484 1.121m50.693-.754c-.268.44.592 1.609 1.91 2.597 2.892 2.168 3.055 1.768.487-1.194-1.051-1.211-2.13-1.842-2.397-1.403m-342.342.984c.376.377-.786 2.289-2.583 4.25L77.5 95.5l3.711-3.408C84.43 89.135 85.296 87 83.274 87c-.334 0-.299.308.077.684m7.923 2.069C88.036 90.305 63 115.283 63 117.96c0 3.134 2.494 7.436 6.041 10.421L72.154 131V230.391l-4.039 3.729c-7.759 7.164-7.345 8.373 8.288 24.17 15.609 15.773 14.238 15.84 31.347-1.531 14.215-14.432 14.304-14.707 7.25-22.165l-5-5.287v-19.758l26-26.068c23.728-23.79 26.006-26.37 26.068-29.524.184-9.315-.274-20.503-.885-21.588-1.899-3.377-39.933-40.784-42.593-41.891-2.876-1.197-21.632-1.695-27.316-.725M131.5 96c3.82 3.85 7.171 7 7.446 7 .275 0-2.626-3.15-6.446-7s-7.171-7-7.446-7c-.275 0 2.626 3.15 6.446 7m220.839 6.199c-14.788 14.62-15.191 15.838-7.839 23.698l4.5 4.81V228.584l-4.425 4.343c-4.84 4.749-6.196 8.044-4.566 11.089 1.57 2.934 23.955 24.838 26.069 25.509 2.86.908 6.845-1.74 14.568-9.679 3.931-4.04 8.454-8.582 10.051-10.093l2.905-2.746 11.497 11.496c14.924 14.924 13.338 14.992 29.899-1.276 15.349-15.079 15.534-15.604 8.252-23.395l-4.75-5.082v-25.702l-11.707-11.774-11.707-11.774 11.403-11.301c13.006-12.889 13.299-13.58 12.058-28.472l-.685-8.232 5.569-5.704c8.088-8.284 8.626-6.802-8.544-23.541-16.434-16.022-15.338-15.982-29.757-1.068l-10.81 11.182-2.99-2.129c-1.645-1.171-6.048-5.545-9.785-9.721-12.482-13.947-13.451-13.891-29.206 1.685m136.893 7.051c-10.662 10.588-20.026 20.465-20.809 21.95-1.173 2.226-1.423 11.056-1.423 50.267v47.567l-4.5 4.311c-7.493 7.18-7.015 8.556 8.292 23.863C479.97 266.385 484.253 270 485.95 270c1.677 0 5.825-3.417 14.265-11.75l11.9-11.75 11.495 11.75c8.876 9.073 12.09 11.75 14.109 11.75 3.303 0 29.281-25.215 29.281-28.421 0-1.109-2.274-4.319-5.054-7.134l-5.054-5.117.079-47.684c.058-35.134-.235-48.27-1.114-49.914-.656-1.226-10.043-11.118-20.862-21.98C517.235 91.917 515 90 511.971 90c-3.018 0-5.296 1.928-22.739 19.25m-308.46-6.5-11.697 11.75 5.462 5.662 5.463 5.662v100.963l-5.726 5.547c-3.15 3.051-5.506 5.686-5.237 5.856.27.171 6.014 5.685 12.766 12.255l12.277 11.944 11.96-11.929c6.578-6.561 11.96-12.37 11.96-12.91 0-.54-2.061-3.074-4.581-5.632l-4.58-4.651.021-51.289.021-51.289 4.56-4.629c2.507-2.546 4.559-5.071 4.559-5.611C218 112.852 195.606 91 193.969 91c-.825 0-6.764 5.287-13.197 11.75m226.1-10c-1.243 1.586-1.208 1.621.378.378 1.666-1.307 2.195-2.128 1.372-2.128-.207 0-.995.787-1.75 1.75M79.75 105.679C73.287 112.092 68 118.069 68 118.961c0 .892 2.025 3.61 4.5 6.039l4.5 4.416v102.168L72.5 236c-2.475 2.429-4.5 5.118-4.5 5.975C68 243.659 89.882 266 91.532 266 93.158 266 115 243.609 115 241.943c0-.84-2.025-3.514-4.5-5.943l-4.5-4.416V207.021l26-25.907 26-25.907v-20.653l-20.277-20.277L117.446 94l-12.973.009-12.973.01-11.75 11.66m274.915.206-12.162 12.049 5.248 5.314 5.249 5.315V231.22l-4.5 4.437c-2.475 2.44-4.5 4.985-4.5 5.656 0 1.638 22.181 23.687 23.829 23.687.714 0 6.421-5.248 12.683-11.663 12.618-12.926 12.395-12.174 5.567-18.79L382 230.594V206.971l3.427-3.736 3.428-3.735 8.072 8.068 8.073 8.068V230.981l-4.5 4.235c-2.475 2.329-4.5 4.869-4.5 5.644 0 2.058 21.168 23.64 23.186 23.64 2.19 0 23.814-21.274 23.814-23.428 0-.892-2.025-3.527-4.5-5.856l-4.5-4.235v-26.347l-12-11.796c-6.6-6.487-12-12.346-12-13.018 0-.672 5.4-6.684 12-13.36l12-12.138.001-12.911.002-12.911 4.998-4.905c2.75-2.698 4.999-5.197 4.999-5.553 0-.357-5.364-5.947-11.921-12.423-14.027-13.854-11.454-13.98-26.475 1.297l-10.896 11.082 5.146 5.441L405 128.88V143.823l-10.735 10.516c-7.054 6.91-10.993 10.113-11.485 9.339-.412-.648-.756-8.742-.765-17.988L382 128.88l5.146-5.441 5.146-5.441-10.896-11.082c-15.046-15.303-12.426-15.202-26.731-1.031M492.5 95c.34.55.816 1 1.059 1s.441-.45.441-1-.477-1-1.059-1-.781.45-.441 1m12.823 4.25c-3.056 2.888-11.882 11.915-19.613 20.061l-14.057 14.812.251 47.917.25 47.917-5.077 5.368c-2.792 2.952-5.077 5.749-5.077 6.214 0 1.525 22.431 23.461 23.984 23.455 1.737-.007 24.016-22.045 24.016-23.756 0-.62-2.251-3.343-5.001-6.05l-5.002-4.923.413-11.883c.227-6.535.453-12.444.501-13.132.158-2.227 22.076-1.732 22.136.5.025.963.27 6.818.545 13.012l.498 11.262-5.045 5.335c-2.775 2.934-5.045 5.748-5.045 6.254 0 1.555 22.435 23.388 24.016 23.371 1.495-.016 23.984-22.062 23.984-23.512 0-.428-2.25-3.158-5-6.066l-5-5.286-.036-48.31-.036-48.31-19.376-19.75C521.896 102.888 512.66 94 512.029 94c-.632 0-3.649 2.362-6.706 5.25M435.5 97c.995 1.1 2.035 2 2.31 2 .275 0-.315-.9-1.31-2-.995-1.1-2.035-2-2.31-2-.275 0 .315.9 1.31 2m-49 3c.34.55.816 1 1.059 1s.441-.45.441-1-.477-1-1.059-1-.781.45-.441 1M544 113.5c7.961 7.975 14.699 14.5 14.974 14.5.275 0-6.013-6.525-13.974-14.5S530.301 99 530.026 99c-.275 0 6.013 6.525 13.974 14.5m-475.054-9.75L65.5 107.5l3.75-3.446c2.063-1.896 3.75-3.583 3.75-3.75 0-.764-.846-.044-4.054 3.446M219 102.313c0 .172 1.434 1.635 3.186 3.25l3.186 2.937-2.436-3.195c-2.069-2.713-3.936-4.133-3.936-2.992m-54.076 3.437-2.424 2.75 2.75-2.424c2.57-2.266 3.209-3.076 2.424-3.076-.179 0-1.416 1.237-2.75 2.75m177.689-1.567c.289.467.944.591 1.456.274 1.308-.808 1.161-1.124-.525-1.124-.801 0-1.22.383-.931.85M449.5 111c.995 1.1 2.035 2 2.31 2 .275 0-.315-.9-1.31-2-.995-1.1-2.035-2-2.31-2-.275 0 .315.9 1.31 2m-223.421 1.583c.048 1.165.285 1.402.604.605.289-.722.253-1.585-.079-1.917-.332-.332-.568.258-.525 1.312M474 118.389c-2.475 2.389-5.614 5.641-6.975 7.227-1.361 1.586.777-.254 4.75-4.089 6.589-6.359 7.717-7.573 6.975-7.504-.137.013-2.275 1.978-4.75 4.366m-251.595 4.861-1.905 2.25 2.25-1.905c2.114-1.79 2.705-2.595 1.905-2.595-.19 0-1.202 1.013-2.25 2.25M286 121.378c0 .207.788.995 1.75 1.75 1.586 1.243 1.621 1.208.378-.378-1.307-1.666-2.128-2.195-2.128-1.372m-123.667 2.078c0 .801.383 1.22.85.931.467-.289.591-.944.274-1.456-.808-1.308-1.124-1.161-1.124.525m284.3 4.409c-3.958 4.018-4.717 5.367-4.362 7.75l.429 2.885.15-2.966c.105-2.073 1.568-4.405 4.862-7.75 2.592-2.631 4.488-4.784 4.213-4.784-.275 0-2.657 2.189-5.292 4.865m54.284-3.115c-.893 18.823-.353 46.672.93 47.954 1.54 1.54 19.164 1.624 20.685.099 1.209-1.212 1.59-25.707.433-27.869-1.07-1.999-20.604-21.934-21.493-21.934-.26 0-.509.787-.555 1.75M106 144.441c0 11.243.369 20.669.82 20.948.451.278 5.505-4.195 11.232-9.941L128.464 145 118 134.5c-5.755-5.775-10.81-10.5-11.232-10.5-.422 0-.768 9.198-.768 20.441m164.333-18.985c0 .801.383 1.22.85.931.467-.289.591-.944.274-1.456-.808-1.308-1.124-1.161-1.124.525m119.848 1.857-3.2 3.302-.056 11.794c-.031 6.486.124 11.973.344 12.193.22.22 3.4-2.706 7.066-6.503 6.376-6.605 6.665-7.117 6.665-11.811 0-5.004-.559-6.113-5.059-10.043l-2.559-2.235-3.201 3.303M340 128.5c1.866 1.925 3.617 3.5 3.892 3.5.275 0-1.026-1.575-2.892-3.5-1.866-1.925-3.617-3.5-3.892-3.5-.275 0 1.026 1.575 2.892 3.5m-278.211-1.408c.656.876.86 1.96.452 2.41-.407.45-.244.535.364.189 1.62-.923 5.168 3.34 5.665 6.809l.43 3 .15-3.047c.118-2.387-.76-3.903-4.053-7-2.311-2.174-3.665-3.237-3.008-2.361m156.083.658c-1.243 1.586-1.208 1.621.378.378.963-.755 1.75-1.543 1.75-1.75 0-.823-.821-.294-2.128 1.372m173.795 2.917c-.367.366-.667 3.826-.667 7.687v7.02l3-2.874c2.249-2.155 3-3.778 3-6.487 0-4.674-2.999-7.681-5.333-5.346M505 150.777V169h14v-22.554l-7-6.946-7-6.946v18.223M110 145c0 6.05.157 11 .348 11 .191 0 2.906-2.558 6.033-5.685l5.685-5.685-5.249-5.315c-2.887-2.923-5.602-5.315-6.033-5.315-.431 0-.784 4.95-.784 11m234.459 34.5c.001 24.2.131 33.957.29 21.682.159-12.275.159-32.075 0-44-.16-11.925-.29-1.882-.29 22.318m117.736-41c.02 1.65.244 2.204.498 1.231.254-.973.237-2.323-.037-3-.274-.677-.481.119-.461 1.769m-295.867 5c.005 3.85.185 5.302.402 3.228.216-2.075.213-5.225-.008-7-.221-1.776-.398-.078-.394 3.772m50.867-4c.02 1.65.244 2.204.498 1.231.254-.973.237-2.323-.037-3-.274-.677-.481.119-.461 1.769M114 144.441c0 .857.45 1.559 1 1.559s1-.423 1-.941-.45-1.219-1-1.559c-.55-.34-1 .084-1 .941m395 9.483V165h6l-.055-8.75c-.054-8.464-.152-8.826-3-11.076L509 142.848v11.076M166.158 153c0 1.375.227 1.938.504 1.25.278-.687.278-1.812 0-2.5-.277-.687-.504-.125-.504 1.25m270.766 10.631c-2.312 2.51-2.321 2.569-.193 1.272 1.227-.748 2.45-1.932 2.718-2.631.716-1.866.182-1.579-2.525 1.359M293.75 164.74c3.438.196 9.063.196 12.5 0 3.438-.195.625-.355-6.25-.355s-9.687.16-6.25.355m-139.878 6.01c-1.243 1.586-1.208 1.621.378.378 1.666-1.307 2.195-2.128 1.372-2.128-.207 0-.995.787-1.75 1.75M429.5 171c-.34.55-.141 1 .441 1s1.059-.45 1.059-1-.198-1-.441-1-.719.45-1.059 1m-.5 3c0 .55.477 1 1.059 1s.781-.45.441-1-.816-1-1.059-1-.441.45-.441 1m-5.43 2.887c-.301.487.235 1.5 1.191 2.25 1.536 1.204 1.594 1.177.498-.229-.683-.876-.946-1.888-.584-2.25.362-.362.385-.658.051-.658-.335 0-.855.399-1.156.887m2.43 6.339c0 .49-.562.568-1.25.172-.687-.396-.159.477 1.174 1.941 1.334 1.463 2.865 2.661 3.403 2.661.539 0 .044-.811-1.099-1.802-1.879-1.63-1.921-1.902-.444-2.834 1.496-.943 1.489-1.031-.075-1.031-.94 0-1.709.402-1.709.893M130.5 195c-.34.55-.141 1 .441 1s1.059-.45 1.059-1-.198-1-.441-1-.719.45-1.059 1m-6.5 8c-.825.533-1.05.969-.5.969s1.675-.436 2.5-.969c.825-.533 1.05-.969.5-.969s-1.675.436-2.5.969m-7.054 4.75-3.446 3.75 3.75-3.446c2.063-1.896 3.75-3.583 3.75-3.75 0-.764-.846-.044-4.054 3.446m270.261 0c-.476.963-.792 6.208-.703 11.656.16 9.787.2 9.94 3.345 12.75 3.917 3.5 4.146 3.502 7.428.076 2.209-2.305 2.693-3.809 2.898-9.005l.247-6.237-5.427-5.495c-5.963-6.038-6.524-6.307-7.788-3.745m117.793 11v10.75l3.549 2.832 3.548 2.831 3.452-2.632 3.451-2.633V208h-14v10.75m4 1.128c0 8.615 1.485 11.624 4.5 9.122 1.101-.914 1.5-3.34 1.5-9.122V212h-6v7.878M114.32 220c0 3.575.182 5.037.403 3.25.222-1.787.222-4.713 0-6.5-.221-1.787-.403-.325-.403 3.25m276.191.363c.013 7.012 1.712 10.527 4.122 8.527 2.363-1.961 1.751-10.181-.947-12.716-3.179-2.986-3.187-2.974-3.175 4.189M442.232 224c0 1.925.206 2.713.457 1.75.252-.963.252-2.537 0-3.5-.251-.963-.457-.175-.457 1.75m-374.037 1.5c.02 1.65.244 2.204.498 1.231.254-.973.237-2.323-.037-3-.274-.677-.481.119-.461 1.769m492.264-.433c-.363.586-.445 1.281-.183 1.543s.743-.218 1.069-1.067c.676-1.762.1-2.072-.886-.476m-218.054 4.183-1.905 2.25 2.25-1.905c2.114-1.79 2.705-2.595 1.905-2.595-.19 0-1.202 1.012-2.25 2.25m117.387-1.574c.987.396 1.019.847.136 1.91-.635.766-1.666 1.1-2.291.743-.625-.357-.803-.281-.396.169.408.45.2 1.534-.461 2.41-.662.876.226.286 1.973-1.311 3.052-2.79 3.445-4.684.938-4.518-.817.054-.786.241.101.597M118.5 232c.995 1.1 2.035 2 2.31 2 .275 0-.315-.9-1.31-2-.995-1.1-2.035-2-2.31-2-.275 0 .315.9 1.31 2m-55.628.75c-1.243 1.586-1.208 1.621.378.378.963-.755 1.75-1.543 1.75-1.75 0-.823-.821-.294-2.128 1.372m505.223.191c-.719.445-.901 1.061-.404 1.368.497.307 1.494.195 2.214-.25.719-.445.901-1.061.404-1.368-.497-.307-1.494-.195-2.214.25m-342.016 6.642c.048 1.165.285 1.402.604.605.289-.722.253-1.585-.079-1.917-.332-.332-.568.258-.525 1.312M453.232 241c0 1.925.206 2.713.457 1.75.252-.963.252-2.537 0-3.5-.251-.963-.457-.175-.457 1.75m-240.248 14.739c-6.316 6.457-9.207 9.596-6.425 6.976 2.782-2.62 5.37-4.528 5.75-4.239.38.288.453.211.162-.172-.291-.382 2.509-3.757 6.223-7.5 3.714-3.742 6.532-6.804 6.263-6.804-.269 0-5.657 5.283-11.973 11.739m127.974-3.489c2.452 2.613 4.59 4.75 4.75 4.75.751 0-.043-.898-4.458-5.042l-4.75-4.458 4.458 4.75M64.5 253c2.148 2.2 4.131 4 4.406 4 .275 0-1.258-1.8-3.406-4s-4.131-4-4.406-4c-.275 0 1.258 1.8 3.406 4m54.372-1.25c-1.243 1.586-1.208 1.621.378.378 1.666-1.307 2.195-2.128 1.372-2.128-.207 0-.995.787-1.75 1.75m317.108 9.979-9.48 9.729 9.099-8.479c7.682-7.158 11.197-10.979 10.1-10.979-.131 0-4.505 4.378-9.719 9.729m-47.865-4.346c-3.058 3.115-3.941 4.606-3.054 5.155.768.475.995.362.591-.292-.362-.585.581-2.128 2.095-3.43 2.872-2.468 5.798-5.816 5.084-5.816-.228 0-2.35 1.972-4.716 4.383m5.885-4.05c0 .576 13.305 13.667 13.89 13.667.306 0-2.57-3.15-6.39-7-6.592-6.643-7.5-7.45-7.5-6.667m-320.937 8.244c1.89 2.242 3.64 3.915 3.887 3.717.248-.199-1.299-2.033-3.437-4.077l-3.887-3.717 3.437 4.077M177 258.893c0 .491.739 1.176 1.641 1.523 1.373.527 1.435.38.378-.893-1.44-1.735-2.019-1.916-2.019-.63m174 3.485c0 .207.788.995 1.75 1.75 1.586 1.243 1.621 1.208.378-.378-1.307-1.666-2.128-2.195-2.128-1.372m-166.653 3.453c.912 1.007 1.319 2.204.905 2.66-.414.457-.16.488.563.07 1.226-.708-.992-4.561-2.625-4.561-.275 0 .246.824 1.157 1.831M81 269.5c1.866 1.925 3.617 3.5 3.892 3.5.275 0-1.026-1.575-2.892-3.5-1.866-1.925-3.617-3.5-3.892-3.5-.275 0 1.026 1.575 2.892 3.5m276-1c1.292 1.375 2.574 2.5 2.849 2.5.275 0-.557-1.125-1.849-2.5-1.292-1.375-2.574-2.5-2.849-2.5-.275 0 .557 1.125 1.849 2.5m170.004 0c1.373 1.65 2.608 3.188 2.746 3.417.138.229.47.196.74-.073.269-.269-.967-1.807-2.747-3.417l-3.236-2.927 2.497 3M477.5 272c.34.55 1.379.993 2.309.985 1.457-.014 1.484-.15.191-.985-1.958-1.266-3.282-1.266-2.5 0M88 274.969c0 .532.675.709 1.5.393.825-.317 1.5-.753 1.5-.969 0-.216-.675-.393-1.5-.393s-1.5.436-1.5.969" fill-rule="evenodd"/>
<path fill="#231f10" stroke="#231f10" d="M335.056 13.433c-.691.832-2.281 1.23-3.865.969-2.118-.35-2.372-.217-1.191.628 1.308.936 1.264 1.227-.338 2.272-1.011.659-3.754 3.013-6.096 5.232-2.342 2.219-5.477 4.833-6.966 5.808-1.489.976-2.965 2.445-3.279 3.265-.315.82-1.753 2.73-3.197 4.245-1.443 1.514-4.424 4.898-6.624 7.52-4.82 5.742-4.859 5.78-16.063 15.567-2.165 1.891-3.754 3.674-3.529 3.961.975 1.249-4.856 4.009-9.804 4.64-5.327.679-5.388.657-4.703-1.676 3.282-11.175 3.712-23.582.849-24.468-.962-.298-2.65-1.031-3.75-1.63-1.69-.919-1.815-.864-.81.353.964 1.167.426 2.244-2.825 5.661-2.209 2.321-3.644 4.227-3.19 4.235.454.009.375.346-.175.75-1.263.929-6.5 11.523-6.5 13.151 0 .668-.537 2.198-1.193 3.4-.657 1.201-1.281 3.984-1.388 6.184-.231 4.767.73 2.735 2.602-5.5 2.34-10.29 12.438-26 16.713-26 2.006 0 1.207 14.167-1.178 20.876-2.396 6.738-2.256 6.998 3.194 5.967 2.613-.494 5.673-.783 6.801-.641 1.429.18 4.128-1.945 8.903-7.006 3.769-3.995 8.041-7.966 9.495-8.825 1.453-.858 3.747-3.204 5.097-5.213 7.628-11.352 33.829-34.831 36.984-33.142C341.651 15.419 358 32.971 358 34.383c0 .704-4.837 3.186-10.75 5.516s-14.522 6.154-19.133 8.497l-8.382 4.26 5.632 4.863c6.637 5.729 6.66 5.844 2.12 10.495l-3.514 3.598 5.514 2.58C332.519 75.61 335 76.35 335 75.835c0-.516-1.575-1.595-3.5-2.399C328.323 72.108 326.571 69 329 69c.55 0 1-.675 1-1.5s.402-1.5.893-1.5c2.738 0 1.488-3.357-2.917-7.833l-4.904-4.982 6.714-3.944C336.299 45.414 343 42.566 343 43.623c0 .286.703-.183 1.561-1.041.859-.859 4.122-2.296 7.25-3.193 10.541-3.021 10.426-4.347-1.399-16.119-4.569-4.549-8.016-8.27-7.66-8.27 1.49 0-1.458-1.79-3.888-2.361-1.697-.399-3.053-.117-3.808.794m-30.308 48.371c-1.388 2.097-4.604 5.894-7.148 8.438-5.65 5.651-5.358 5.901 8.012 6.855 6.718.48 11.768 1.42 14.778 2.751 2.514 1.113 4.811 1.636 5.103 1.164.498-.806-7.686-4.343-11.91-5.147-3.036-.578-2.87-2.207.646-6.323 4.228-4.95 4.194-5.112-1.843-8.598l-5.115-2.952-2.523 3.812m-54.907 17.35c.685.91.993 2.71.685 4-1.097 4.589-1.322 9.361-.49 10.376.464.567 1.309 3.267 1.876 6l1.033 4.97-.666-5.5c-.365-3.025-.691-8.514-.722-12.198-.039-4.53-.527-7.119-1.509-8-1.242-1.114-1.272-1.064-.207.352m81.244 2.427c-2.346 3.423-2.352 3.501-.591 7.405 1.161 2.575 1.6 5.279 1.264 7.785-.326 2.428-.008 4.534.863 5.726 3.386 4.631-.34 7.489-5.266 4.039-1.879-1.316-2.972-1.174-10.84 1.404-10.27 3.365-12.278 4.865-10.445 7.801 1.952 3.126.473 5.631-2.832 4.797-1.506-.38-4.782-.639-7.281-.576-3.518.088-5.549-.566-9-2.898-5.197-3.512-6.341-3.343-13.435 1.992-4.85 3.647-15.365 7.944-19.439 7.944-2.334 0-7.083-4.115-7.083-6.137 0-.775 1.597-3.833 3.548-6.797 2.126-3.227 3.384-6.226 3.137-7.477-.389-1.97-.42-1.961-.549.161-.075 1.237-.586 2.25-1.136 2.25-.55 0-1 .588-1 1.306 0 .718-1.125 2.83-2.5 4.694-3.394 4.6-3.165 7.209.946 10.819 3.918 3.44 9.339 2.953 18.246-1.639 2.306-1.189 4.91-1.886 5.787-1.55.878.337 2.366-.053 3.308-.867 2.903-2.508 8.445-4 9.381-2.525.441.694.808.918.817.499.008-.42 1.477-.163 3.265.57 1.792.736 5.216 1.138 7.632.896 2.94-.294 4.165-.088 3.723.627-.814 1.318 3.064.69 4.839-.784.682-.566 1.497-.772 1.811-.458.313.314.218-.99-.212-2.898-1.007-4.464.778-6.082 9.774-8.861 5.434-1.678 7.23-1.852 9.744-.943 6.736 2.436 9.553-.068 6.498-5.776-.518-.968-1.041-4.519-1.163-7.893-.122-3.374-.551-5.93-.954-5.681-.722.446-1.942-1.827-1.942-3.618 0-.505.955-.918 2.122-.918 1.648 0 1.877-.296 1.024-1.324-.801-.965-.785-1.637.061-2.483.638-.638.955-1.365.704-1.615-.251-.251-1.522 1.101-2.826 3.003m35.728 4.102c.721.289 1.584.253 1.916-.079.332-.332-.258-.568-1.312-.525-1.165.048-1.402.285-.604.604M375 87.789c0 1.181.283 1.221 1.5.211.825-.685 1.5-1.34 1.5-1.456 0-.116-.675-.211-1.5-.211s-1.5.655-1.5 1.456m51-.983c0 .522.675 1.509 1.5 2.194s1.5.933 1.5.551-.675-1.369-1.5-2.194-1.5-1.073-1.5-.551m-249.17 13.898c-7.606 7.537-13.83 14.273-13.83 14.968 0 .696 2.442 3.069 5.427 5.274 2.985 2.205 5.739 4.514 6.12 5.131.381.616.641 23.454.577 50.751l-.116 49.63-4.004 3.886c-6.905 6.702-5.742 9.668 9.76 24.906 7.547 7.417 11.654 10.75 13.251 10.75 1.622 0 6.145-3.792 15.149-12.701 15.115-14.956 15.373-15.672 8.336-23.196l-4.5-4.81V126.416l4.5-4.416c7.252-7.118 6.855-8.275-7.839-22.801-16.481-16.294-14.79-16.371-32.831 1.505M125 89.378c0 .207.787.995 1.75 1.75 1.586 1.243 1.621 1.208.378-.378-1.307-1.666-2.128-2.195-2.128-1.372m-47.265 12.271C60.518 118.244 60.448 118.422 68 126.406l5 5.287v97.614l-5 5.287c-7.136 7.545-7.062 7.759 7.792 22.614 16.527 16.526 14.808 16.503 31.047.405 14.951-14.822 15.298-15.86 7.828-23.444L110 229.431v-20.416l24.85-24.757c13.668-13.617 25.368-25.741 26-26.942 1.7-3.229 1.491-21.773-.283-25.116-.788-1.485-10.241-11.475-21.007-22.2l-19.574-19.5-15.008-.322-15.008-.323-12.235 11.794m103.515.356c-6.738 6.585-12.25 12.201-12.25 12.48 0 .28 2.25 2.677 5 5.328l5 4.819v102.805l-5.044 5.108-5.044 5.107 12.119 12.174c6.665 6.696 12.57 12.174 13.121 12.174 1.626 0 23.848-22.185 23.848-23.808 0-.816-2.025-3.649-4.5-6.295l-4.5-4.811v-101.67l4.5-4.416c2.475-2.429 4.5-5.268 4.5-6.309 0-1.837-21.931-24.709-23.66-24.674-.462.009-6.352 5.404-13.09 11.988M364.5 91.151c-1.1.599-7.062 6.091-13.25 12.203-13.566 13.402-13.987 14.806-6.75 22.543l4.5 4.81v98.896l-4.5 4.288c-7.318 6.975-6.88 8.265 7.764 22.874 15.927 15.889 14.778 15.841 29.469 1.235 6.085-6.05 11.502-11 12.039-11 .536 0 5.488 4.686 11.004 10.413C414.458 267.466 417.535 270 420.055 270c1.455 0 24.947-22.626 26.718-25.733 1.893-3.321.557-6.708-4.477-11.348l-4.505-4.153.245-10.133c.405-16.751 1.284-14.685-11.649-27.392l-11.613-11.41 11.613-11.758c7.879-7.978 11.656-12.532 11.747-14.166.074-1.324.031-7.047-.094-12.717l-.229-10.311 5.536-5.804c7.115-7.459 7.242-7.112-8.27-22.46-16.297-16.126-14.903-16.049-29.533-1.615-6.132 6.05-11.552 11-12.044 11-.492 0-5.912-4.95-12.044-11-11.105-10.957-12.954-12.031-16.956-9.849m143 .695c-3.43 2.103-38.63 38.416-39.714 40.971-.393.925-.666 22.942-.606 48.925l.109 47.242-4.645 4.965c-6.754 7.221-6.556 7.867 6.606 21.586 16.805 17.516 16.021 17.47 31.564 1.838C506.487 251.668 511.466 247 511.88 247c.413 0 5.666 4.954 11.673 11.008 11.73 11.822 13.143 12.747 16.659 10.903 3.644-1.912 26.788-25.596 26.788-27.413 0-.906-2.507-4.275-5.572-7.488l-5.572-5.842.24-48.039.241-48.038-18.842-19.296C513.616 88.341 513.43 88.211 507.5 91.846m-407.288 2.109-10.287.545-11.463 11.584C72.158 112.456 67 118.188 67 118.824c0 .635 2.262 3.653 5.027 6.705l5.026 5.551-.276 50.491-.277 50.491-4.75 4.36c-2.612 2.399-4.75 4.894-4.75 5.544 0 2.005 22.723 24.237 24.398 23.871 1.765-.385 24.602-22.704 24.602-24.043 0-.484-2.25-2.953-5-5.486l-5-4.606v-24.216l26-25.986 26-25.986-.039-10.507-.04-10.507-19.772-20.25c-11.699-11.981-20.564-20.28-21.711-20.324a67.314 67.314 0 0 1-3.938-.295c-1.1-.122-6.629.024-12.288.324m254.522 11.81C348.28 112.236 343 117.846 343 118.233c0 .387 2.25 3.026 5 5.864l5 5.16v100.722l-5 5.521c-2.75 3.037-5 5.741-5 6.01 0 .559 20.635 21.274 23.287 23.377 1.577 1.251 2.929.223 13.731-10.446 6.59-6.509 11.982-12.414 11.982-13.123 0-.709-2.137-3.366-4.75-5.905l-4.75-4.616-.266-10.917c-.285-11.677.806-15.76 4.776-17.886 2.636-1.41 4.174-.478 11.49 6.965l6 6.104v15.861l-4.75 4.822c-2.613 2.653-4.75 5.216-4.75 5.696 0 1.115 23.117 24.558 24.217 24.558 1.211 0 24.783-23.109 24.783-24.296 0-.556-2.316-3.46-5.147-6.453l-5.148-5.443.624-10.901c.791-13.83 1.055-13.274-12.718-26.857-6.386-6.298-11.611-11.863-11.611-12.367 0-.504 5.202-6.08 11.559-12.39 13.658-13.557 13.502-13.232 12.744-26.627l-.594-10.478 5.146-5.441c2.83-2.992 5.145-5.897 5.145-6.455C444 116.65 421.038 94 419.373 94c-1.532 0-24.354 22.786-24.366 24.329-.004.455 1.842 2.705 4.101 5 5.022 5.098 5.892 7.223 5.892 14.394v5.594l-10.441 10.567c-5.742 5.813-10.804 10.204-11.25 9.759-.445-.445-.809-8.404-.809-17.685v-16.876l4.75-4.825c2.613-2.654 4.75-5.356 4.75-6.003C392 116.531 369.629 94 367.919 94c-.798 0-6.731 5.294-13.185 11.765M492.5 95c.34.55.816 1 1.059 1s.441-.45.441-1-.477-1-1.059-1-.781.45-.441 1m-1.783 18.807L471 133.614v97.276l-4.5 4.218c-2.475 2.319-4.5 4.939-4.5 5.82 0 .882 5.393 6.982 11.984 13.556l11.983 11.952 11.4-10.968c14.126-13.59 14.438-14.35 8.249-20.114l-4.674-4.353.279-13.251.279-13.25h21l.278 13.167.279 13.166-5.164 5.083-5.163 5.083 11.327 11.75c6.23 6.463 11.972 12.142 12.761 12.621 1.062.644 4.639-2.336 13.82-11.518l12.388-12.388-5.013-5.255c-2.757-2.891-5.045-5.808-5.085-6.483-.039-.674-.009-22.525.068-48.557l.138-47.331-19.789-19.919C522.461 102.964 512.853 94 511.995 94c-.859 0-10.434 8.913-21.278 19.807M386.5 100c.34.55.816 1 1.059 1s.441-.45.441-1-.477-1-1.059-1-.781.45-.441 1m-43.887 4.183c.289.467.944.591 1.456.274 1.308-.808 1.161-1.124-.525-1.124-.801 0-1.22.383-.931.85M389.4 127.4l-3.4 3.4v12.1c0 6.655.258 12.1.573 12.1.316 0 3.686-2.812 7.491-6.25l6.917-6.25.009-6.054c.009-5.541-.269-6.324-3.288-9.25-4.081-3.956-4.144-3.954-8.302.204M501 148.534v24.534l10.75-.284 10.75-.284.28-13.953.279-13.954-10.262-10.296C507.153 128.634 502.19 124 501.768 124c-.422 0-.768 11.04-.768 24.534m-394.333-22.867c-.997.997-.806 38.129.2 38.751 1.001.619 20.133-18.134 20.133-19.734 0-.947-18.367-19.684-19.295-19.684-.204 0-.672.3-1.038.667m285.509 5.557c-.659.659-1.176 4.021-1.176 7.65v6.475l2.5-2.349c1.898-1.783 2.5-3.361 2.5-6.552 0-4.641-1.862-7.186-3.824-5.224M110 144.26c0 6.457.353 11.74.784 11.74.431 0 3.234-2.48 6.228-5.512l5.444-5.512-6.228-6.228L110 132.52v11.74M504.85 150c-.083 9.35-.195 17.504-.25 18.121-.103 1.15 11.691 1.935 13.381.891.477-.295 1.014-5.555 1.193-11.688l.326-11.152-6.95-6.586c-3.822-3.622-7.085-6.586-7.25-6.586-.165 0-.367 7.65-.45 17m-287.655-10.5c.02 1.65.244 2.204.498 1.231.254-.973.237-2.323-.037-3-.274-.677-.481.119-.461 1.769M509 153.813V165h6v-8.313c0-7.931-.138-8.445-3-11.187l-3-2.874v11.187M429 174c0 .55.477 1 1.059 1s.781-.45.441-1-.816-1-1.059-1-.441.45-.441 1m-5.43 2.887c-.301.487.235 1.5 1.191 2.25 1.536 1.204 1.594 1.177.498-.229-.683-.876-.946-1.888-.584-2.25.362-.362.385-.658.051-.658-.335 0-.855.399-1.156.887m2.43 6.28c0 .458.423.833.941.833s1.173-.375 1.456-.833c.283-.459-.14-.834-.941-.834-.801 0-1.456.375-1.456.834M130.5 195c-.34.55-.141 1 .441 1s1.059-.45 1.059-1-.198-1-.441-1-.719.45-1.059 1m-6.5 8c-.825.533-1.05.969-.5.969s1.675-.436 2.5-.969c.825-.533 1.05-.969.5-.969s-1.675.436-2.5.969m263.2 4.2c-.775.775-1.2 4.777-1.2 11.297v10.097l3.786 3.697 3.785 3.696 3.715-3.607c3.424-3.327 3.714-4.05 3.714-9.275 0-5.577-.093-5.76-5.779-11.386-6.333-6.267-6.294-6.246-8.021-4.519M505 218.911v10.911l3.077 2.589c4.041 3.401 5.111 3.278 8.886-1.022 2.672-3.043 3.087-4.182 2.641-7.25-.29-2.001-.545-6.451-.566-9.889L519 208h-14v10.911m4 .967c0 4.893.433 7.236 1.5 8.122 2.885 2.394 4.5-.52 4.5-8.122V213h-6v6.878m-118 1.5c0 6.735 1.529 9.693 3.824 7.398 1.914-1.914 1.468-10.202-.653-12.121-2.848-2.578-3.171-2.097-3.171 4.723m-274 9c0 .207.787.995 1.75 1.75 1.586 1.243 1.621 1.208.378-.378-1.307-1.666-2.128-2.195-2.128-1.372m451.095 2.563c-.719.445-.901 1.061-.404 1.368.497.307 1.494.195 2.214-.25.719-.445.901-1.061.404-1.368-.497-.307-1.494-.195-2.214.25M73.573 262.094c1.61 1.977 3.129 3.425 3.376 3.218.247-.207-1.071-1.824-2.928-3.594l-3.376-3.218 2.928 3.594M478 272c.825.533 1.95.969 2.5.969s.325-.436-.5-.969c-.825-.533-1.95-.969-2.5-.969s-.325.436.5.969" fill-rule="evenodd"/>
</svg>