<!DOCTYPE svg PUBLIC "-//W3C//DTD SVG 1.1//EN" "http://www.w3.org/Graphics/SVG/1.1/DTD/svg11.dtd">
<svg xmlns="http://www.w3.org/2000/svg" viewBox="0 0 630 353">
<path fill="#fbfbfb" stroke="#fbfbfb" d="M81.813 56.683c.721.289 1.584.253 1.916-.079.332-.332-.258-.568-1.312-.525-1.165.048-1.402.285-.604.604m300.437.063c5.913.177 15.587.177 21.5 0s1.075-.321-10.75-.321-16.663.144-10.75.321m164.563-.063c.721.289 1.584.253 1.916-.079.332-.332-.258-.568-1.312-.525-1.165.048-1.402.285-.604.604M72.441 60.555c-1.864 1.494-1.852 1.512.309.465 1.237-.6 2.25-1.3 2.25-1.555 0-.765-.519-.544-2.559 1.09m9.351.772c-6.141 1.943-12.058 6.87-15.292 12.734l-3 5.439V186c0 121.166-.639 112.093 8.47 120.283C79.823 313.344 73.9 313 187.638 313h102.906l1.695-8.199c.933-4.51 1.515-8.38 1.295-8.6-.932-.933-2.534 1.092-2.534 3.203 0 4.726-8.004 7.707-11 4.096-.685-.825-2.151-1.5-3.258-1.5-1.107 0-2.995-1.06-4.196-2.356-1.202-1.296-2.705-2.534-3.343-2.75-3.206-1.09-2.421-6.438 1.712-11.667 2.247-2.842 4.085-5.599 4.085-6.126 0-1.856 3.174-4.101 5.821-4.119 1.748-.011 3.548-1.067 5.179-3.037 1.375-1.661 3.599-4.147 4.942-5.525 1.959-2.009 2.69-4.327 3.697-11.713.926-6.794 1.728-9.523 3.058-10.413 6.151-4.116 6.028-3.893 3.564-6.516-2.111-2.247-2.17-2.706-1.046-8.068 1.082-5.157.982-6.268-1.076-11.948-5.963-16.459-1.047-31.667 11.584-35.836 1.802-.594 3.277-1.721 3.277-2.504 0-.782.337-1.326.75-1.21.413.117 1.772-.354 3.021-1.046 1.249-.692 2.816-.921 3.482-.51 3.175 1.963 6.882.516 4.997-1.95-.508-.663-1.972-3.906-3.255-7.206-2.89-7.438-2.718-7.248-4.474-4.927-1.323 1.75-1.46 1.766-1.489.177-.042-2.304-1.302-2.215-3.532.25-2.794 3.088-3.498 2.44-3.529-3.25l-.03-5.25-2.97 3.266-2.971 3.266.088-3.766c.048-2.071.385-6.016.75-8.766.605-4.571.418-5.257-2.174-7.989-2.977-3.136-4.929-7.049-7.217-14.464-1.691-5.483-1.411-5.819 2.462-2.956 3.724 2.753 4.792 2.016 3.077-2.126-1.492-3.601-.789-21.891 1.135-29.533l1.174-4.66 3.22 5.682c4.533 7.997 5.485 8.752 5.485 4.348 0-3.595 2.996-10.19 8.542-18.802l2.897-4.5.733 6.369c.714 6.207 1.694 8.763 2.501 6.523.22-.61 1.044-1.96 1.831-3 1.355-1.79 1.434-1.744 1.464.858.043 3.669 1.347 3.477 3.102-.458C334.4 80.808 350.187 67 352.267 67c.511 0 .604 1.806.213 4.119-.547 3.234-.404 4.029.662 3.697 1.845-.575 10.002-12.774 9.301-13.909-.893-1.445-276.059-1.033-280.651.42m287.637-.211c-.21.339.924 3.039 2.519 6 5.248 9.739 9.052 20.628 9.052 25.91 0 5.153.832 6.087 3.045 3.419.71-.855 2.166-2.023 3.237-2.596 3.432-1.836 2.165 19.01-1.54 25.329-4.192 7.152-3.324 8.797 2.466 4.674l3.016-2.148-.741 3.398c-1.391 6.376-5.574 14.392-9.782 18.743l-4.201 4.345 4.75-.352c2.613-.194 4.75-.273 4.75-.175 0 .097-3.262 2.528-7.25 5.402s-7.442 5.39-7.677 5.591c-.235.2.379.954 1.363 1.674 1.619 1.184 1.301 1.512-3.323 3.434-5.035 2.093-6.21 3.964-4.338 6.907 1.154 1.813 6.06 2.711 7.641 1.399 5.557-4.612 18.236-1.816 25.374 5.595l4.29 4.454 5.71-1.751c3.141-.962 6.835-1.808 8.21-1.878 8.174-.421 10-2.647 10-12.194 0-10.4 2.278-28.189 3.678-28.726 2.499-.959 4.468 3.912 4.288 10.608-.506 18.834.105 26.822 2.051 26.822 2.549 0 8.83-7.576 15.739-18.986 5.999-9.907 9.249-12.488 9.238-7.337-.004 1.553-.597 3.948-1.32 5.323-2.356 4.486-6.818 12.365-10.903 19.256-3.293 5.553-3.785 7.022-2.766 8.25 2.057 2.478 4.386 1.793 18.707-5.506 15.162-7.728 15.288-7.771 15.288-5.187 0 1.794-4.835 7.187-6.442 7.187-1.953 0-17.557 11.501-17.543 12.93.036 3.707 7.75 6.07 19.817 6.07 3.964 0 5.168.355 5.168 1.525 0 2.41-4.413 3.477-13.572 3.28-7.695-.166-8.617.019-10.008 2.006-.844 1.204-2.419 2.189-3.501 2.189-1.195 0-2.353 1.012-2.948 2.575-1.486 3.909-3.352 5.302-8.122 6.065-2.392.382-5.667 1.496-7.278 2.476-1.611.979-3.319 1.54-3.794 1.246-.476-.294-1.533.021-2.35.699-1.12.929-2.086.96-3.919.125-1.992-.908-3.415-.675-7.843 1.283-5.751 2.544-22.282 4.944-27.321 3.967-2.664-.516-3.058-.134-6.219 6.037-3.185 6.218-3.76 6.769-10.23 9.808-5.962 2.799-6.858 3.57-6.875 5.91-.023 3.081 1.63 4.559 3.267 2.922 1.603-1.603 3.025-1.369 2.351.387-.387 1.011.048 1.5 1.334 1.5 1.051 0 2.188.45 2.528 1 .34.55-.084 1-.941 1-1.942 0-1.954 1.894-.027 4.441 2.234 2.954 1.817 3.559-2.453 3.559-5.257 0-6.742 4.56-2.879 8.841 4.301 4.765 4.707 5.677 5.871 13.181 1.708 11.008 10.751 20.556 15.228 16.079.605-.605 1.461-1.101 1.901-1.101 1.685 0 .68 2.309-2.16 4.962l-2.959 2.765 2.447 2.299c1.87 1.757 2.185 2.615 1.337 3.637-.925 1.114 11.863 1.335 76.763 1.327l77.872-.01 5-2.333c5.9-2.753 11.711-8.836 13.629-14.266 1.993-5.643 2.036-212.681.045-219.27-.877-2.903-3.012-6.031-6.304-9.238-8.823-8.594-3.759-8.211-102.703-7.763-47.496.214-86.528.667-86.738 1.006m190.575 2.024c1.928 1.848 4.549 4.71 5.825 6.36 1.275 1.65 1.977 2.325 1.559 1.5-1.674-3.305-4.766-6.898-7.746-9.002-3.057-2.159-3.048-2.128.362 1.142M66.872 64.75c-1.243 1.586-1.208 1.621.378.378C68.916 63.821 69.445 63 68.622 63c-.207 0-.995.788-1.75 1.75m-2.594 3.5C62.779 70.188 61.836 72 62.326 72c.244 0 1.181-1.125 2.082-2.5 1.686-2.573 1.592-3.476-.13-1.25m-4.162 7.848c-.614 1.76-1.086 3.921-1.049 4.801.037.881.692-.406 1.456-2.859 1.6-5.135 1.264-6.736-.407-1.942M570.252 81.5c.011 2.2.216 2.982.455 1.738.239-1.244.23-3.044-.02-4s-.446.062-.435 2.262m-.057 210c.02 1.65.244 2.204.498 1.231.254-.973.237-2.323-.037-3-.274-.677-.481.119-.461 1.769M59.158 293c0 1.375.227 1.938.504 1.25.278-.687.278-1.812 0-2.5-.277-.687-.504-.125-.504 1.25M62 301.711c0 .574.788 1.662 1.75 2.417 1.619 1.269 1.64 1.222.283-.628-.807-1.1-1.594-2.187-1.75-2.417-.156-.229-.283.054-.283.628m499.368 6.74c-2.822 2.869-4.509 5.216-3.75 5.216.76 0 1.172-.21.916-.466-.616-.616 4.705-4.773 5.697-4.451.423.137.673-.087.557-.5-.117-.413.349-1.762 1.035-3 1.642-2.961 1.528-2.879-4.455 3.201m-496.772-1.607a1.2 1.2 0 0 0 .388 1.646c.559.345 1.016.33 1.016-.035 0-.364 1.688.75 3.75 2.476 6.234 5.217 6.25 5.228 6.25 4.144 0-.553-1.013-1.524-2.25-2.16-1.237-.635-3.662-2.49-5.387-4.122-1.821-1.721-3.402-2.54-3.767-1.949M78 316c.825.533 2.175.945 3 .914.989-.036.819-.347-.5-.914-2.749-1.181-4.328-1.181-2.5 0m121.25 1.75c63.663.142 167.838.142 231.5 0 63.663-.142 11.575-.258-115.75-.258s-179.412.116-115.75.258" fill-rule="evenodd"/>
<path fill="#bbabdb" stroke="#bbabdb" d="M78.5 62.871c-4.974 2.272-9.893 7.244-12.505 12.64C64.04 79.549 64 81.771 64 186.619v106.988l2.59 5.198c1.425 2.859 4.237 6.56 6.25 8.225 7.456 6.167 3.647 5.97 115.322 5.97h101.8l.619-2.75c1.044-4.637 2.511-10.658 3.044-12.494.368-1.269.08-1.58-1.06-1.143-.893.343-1.565 1.777-1.565 3.339 0 5.414-8.467 7.805-12.106 3.42-.627-.755-1.785-1.372-2.575-1.372-.79 0-3.21-1.425-5.378-3.167-5.311-4.269-5.297-7.602.059-14.333 2.188-2.75 3.984-5.552 3.989-6.227.016-1.833 4.753-4.586 6.644-3.86 1.684.646 7.367-4.64 7.367-6.853 0-.593.86-1.616 1.91-2.272 2.495-1.558 3.807-7.219 1.947-8.398-.998-.632-1.027-.863-.107-.875.688-.008 1.25-1.154 1.25-2.547 0-3.967 2.484-8.925 5.613-11.205 2.797-2.037 2.82-2.128 1.022-4.114-1.686-1.863-1.734-2.609-.583-9.052.974-5.453.988-7.344.059-8.463-1.75-2.108-3.194-7.377-3.737-13.634-1.018-11.72 4.845-22.346 13.876-25.152 2.609-.81 3.75-1.743 3.75-3.065 0-1.066.459-1.618 1.044-1.256.574.355 2.149-.079 3.5-.964s2.456-1.201 2.456-.703c0 1.07 4.866 2.166 5.446 1.227.219-.355-1.278-4.164-3.326-8.465-3.509-7.366-3.791-7.684-4.855-5.471-.873 1.815-1.145 1.951-1.197.599-.089-2.302-1.338-2.214-3.568.25-2.774 3.066-3.5 2.443-3.5-3 0-5.826-.968-6.252-3.974-1.75l-2.171 3.25.484-9.5c.48-9.437.463-9.52-2.469-12.589-2.809-2.941-7.804-14.86-7.849-18.729-.02-1.699.169-1.683 2.883.25 3.77 2.684 5.526 2.741 4.131.134-1.875-3.503-.816-27.707 1.543-35.281.377-1.209 1.566.265 4.032 5 4.687 8.999 5.387 9.538 5.406 4.165.011-2.807.841-5.819 2.25-8.159a1753.71 1753.71 0 0 0 5.664-9.5c3.893-6.572 4.737-5.861 5.002 4.209l.131 5 2.214-2.972 2.213-2.972.595 2.972.596 2.972 1.109-2.683c2.26-5.466 23.243-22.401 21.765-17.567-1.039 3.399-1.411 7.75-.663 7.75C354.015 75 362 63.064 362 61.386c0-.212-62.887-.376-139.75-.364-133.187.021-139.938.108-143.75 1.849m291.5-1.5c0 .205 2.277 5.14 5.061 10.967 3.319 6.947 5.476 13.074 6.267 17.797l1.206 7.202 2.983-2.768 2.983-2.767.903 3.129c1.618 5.604-.679 21.417-3.756 25.857-3.675 5.303-3.338 5.807 1.853 2.765 5.117-2.999 5.189-2.87 2.61 4.628-2.764 8.032-4.89 11.859-8.933 16.079l-3.602 3.76 4.712-.646c6.192-.849 6.03-.511-2.771 5.778-7.827 5.593-8.837 6.848-5.516 6.848 3.199 0 2.318 1.484-1.75 2.948-8.208 2.954-10.041 6.459-4.659 8.912 1.967.896 3.03.732 5.665-.875 6.365-3.88 19.236-.732 25.123 6.144 3.598 4.204 7.162 4.793 12.314 2.035 1.196-.64 3.955-1.164 6.13-1.164 7.261 0 7.883-1.327 9.138-19.5 1.379-19.945 1.674-21.5 4.083-21.5 3.977 0 4.435 2.69 4.812 28.25.095 6.418.525 9.75 1.259 9.75 1.98 0 7.848-7.268 13.457-16.665 7.082-11.866 8.703-13.827 10.772-13.033 3.179 1.22 1.818 6.003-5.101 17.923-7.359 12.678-9.243 16.235-9.243 17.453 0 3.053 6.516 1.138 19.565-5.749 13.248-6.992 15.435-7.555 15.435-3.974 0 1.79-6.186 8.045-7.955 8.045-1.232 0-17.049 10.974-17.03 11.816.073 3.228 6.549 5.171 17.266 5.178 6.098.005 7.91.341 8.376 1.554 1.09 2.842-2.682 4.22-12.646 4.621-8.305.333-9.861.681-11.824 2.644-1.243 1.243-2.689 1.995-3.214 1.67-.525-.324-1.708.99-2.628 2.92-1.774 3.72-2.276 4.047-9.345 6.078-5.147 1.479-11.263 3.782-12 4.519-.88.88-5 .772-5-.13 0-1.484-2.716-.97-8.576 1.621-4.629 2.047-7.679 2.57-17.121 2.932l-11.488.441-2.526 4.818c-3.559 6.79-5.616 8.743-12.427 11.8-4.931 2.213-5.925 3.063-5.67 4.85.314 2.204 1.233 2.377 5.808 1.096 2.058-.576 2.279-.464 1.25.636-2.061 2.203-1.448 2.934 2.5 2.978l3.75.042-3.3 1.759-3.3 1.76 2.05 2.606c2.774 3.527 2.646 3.791-1.843 3.791-6.018 0-6.932 4.33-2.141 10.142 2.932 3.558 4.962 9.708 5.01 15.179.015 1.827 1.488 4.556 4.181 7.75 4.682 5.552 7.276 6.181 11.906 2.884l2.873-2.045-1.553 3.795c-.853 2.087-2.526 4.588-3.717 5.557-1.852 1.507-1.949 1.902-.666 2.722 4.51 2.884 4.44 2.781 3.043 4.464-1.215 1.464 5.257 1.577 76.565 1.326 87.518-.308 81.123.259 89.303-7.92 7.489-7.489 7.09-.795 7.079-118.782L565.98 80.5l-2.331-5.007c-2.54-5.455-8.112-10.953-13.294-13.118C547.316 61.105 370 60.119 370 61.371M66.872 64.75c-1.243 1.586-1.208 1.621.378.378C68.916 63.821 69.445 63 68.622 63c-.207 0-.995.788-1.75 1.75M561 63.378c0 .207.788.995 1.75 1.75 1.586 1.243 1.621 1.208.378-.378-1.307-1.666-2.128-2.195-2.128-1.372m9.079 16.205c.048 1.165.285 1.402.604.605.289-.722.253-1.585-.079-1.917-.332-.332-.568.258-.525 1.312m-7.155 228.137c-1.333 1.496-1.708 2.174-.832 1.508.876-.666 1.888-.99 2.25-.719.362.27.437.195.167-.167-.271-.362.01-1.262.622-2 2.086-2.513.227-1.353-2.207 1.378m-498.381-.789c-.317.512-.118 1.213.441 1.559.559.345 1.016-.074 1.016-.931 0-1.757-.6-2.015-1.457-.628M69 310.378c0 .207.787.995 1.75 1.75 1.586 1.243 1.621 1.208.378-.378-1.307-1.666-2.128-2.195-2.128-1.372" fill-rule="evenodd"/>
<path fill="#fa0415" stroke="#fa0415" d="M79 63.081c-5.548 2.511-9.516 6.183-12.342 11.419l-2.158 4v108c0 120.347-.538 110.964 6.796 118.512 7.793 8.02-.623 7.455 115.367 7.756l103.163.268 1.087-5.067c1.438-6.706 1.453-6.661-1.331-4.046-2.627 2.468-7.03 2.249-11.055-.551-1.084-.754-2.724-1.372-3.643-1.372-.918 0-1.932-.682-2.251-1.515-.32-.833-1.718-1.947-3.107-2.475-4.201-1.597-3.578-7.975 1.355-13.871 2.134-2.552 4.046-5.502 4.25-6.556.35-1.818 2.102-2.695 7.917-3.964 1.626-.355 3.368-2.015 4.814-4.587 1.246-2.218 2.657-4.032 3.135-4.032.788 0 1.153-.86 2.624-6.169.283-1.022-.231-1.848-1.329-2.134-1.661-.431-1.664-.473-.042-.581 1.316-.087 1.75-.996 1.75-3.666 0-3.494 2.36-9.42 3.776-9.482.398-.017 1.593-.689 2.655-1.493 1.899-1.436 1.896-1.498-.213-3.743-2.081-2.215-2.099-2.459-.613-8.151 1.509-5.779 1.492-5.96-1.154-11.974-3.222-7.325-3.369-15.043-.458-24.157 1.045-3.273 1.924-5.672 1.953-5.332.03.34 1.621-.86 3.537-2.667 1.916-1.806 4.895-3.595 6.621-3.974 1.855-.407 3.34-1.46 3.631-2.572.271-1.035.894-1.634 1.386-1.331.491.304 2.322-.465 4.069-1.709 2.676-1.906 3.07-1.984 2.499-.498-.544 1.42-.287 1.64 1.317 1.131 1.186-.376 1.994-.177 1.994.494 0 .619.384.889.853.599.469-.29-.747-3.928-2.701-8.084-3.382-7.192-3.616-7.448-4.818-5.282l-1.263 2.275-.036-2.25c-.045-2.916-.814-2.836-4.23.437L310 167.374l-.041-5.937-.04-5.937-3.029 3.5-3.028 3.5.27-9.209c.263-9.008.2-9.294-2.879-13.126-2.83-3.521-5.89-10.885-7.643-18.394l-.638-2.73 3.67 2.491c4.409 2.991 4.589 2.889 3.28-1.852-1.325-4.799.799-30.43 2.817-33.998.255-.449 1.819 1.801 3.476 5 4.383 8.462 5.227 9.079 5.574 4.079C312.07 90.705 322.281 72 324.214 72c.432 0 .786 2.898.786 6.441 0 7.201 1.046 8.842 3.045 4.778 1.301-2.645 1.348-2.657 1.716-.469.456 2.711 1.885 2.941 2.681.433C333.339 80.355 350.507 66 352.991 66c1.213 0 1.217.371.057 5.5l-.904 4 2.73-3.224c1.501-1.774 3.747-5.036 4.991-7.25L362.128 61l-139.314.022C84.82 61.044 83.457 61.063 79 63.081m292-1.21c0 .48 2.335 5.76 5.189 11.734 3.969 8.31 5.321 12.36 5.75 17.232l.561 6.37 2.848-3.205c4.181-4.705 4.932-3.014 4.51 10.159-.333 10.366-.613 11.763-3.264 16.278l-2.9 4.939 3.71-2.189c2.041-1.204 3.91-2.189 4.153-2.189 2.562 0-4.49 18.035-8.947 22.881l-3.11 3.38 4.25-.642c2.337-.354 4.25-.252 4.25.225 0 .891-9.364 8.21-12.979 10.145-2.819 1.508-2.519 2.821.729 3.195 2.406.276 1.906.716-4 3.513-7.1 3.364-7.729 4.181-5.179 6.732 1.932 1.931 3.396 1.98 5.956.199 6.874-4.782 25.569.798 27.965 8.346.625 1.97 6.77 1.899 8.958-.104.522-.479 2.593-.87 4.601-.87 10.267 0 10.295-.057 11.969-24 .689-9.857 1.547-15.968 2.354-16.787 3.225-3.266 6.931 2.919 6.609 11.032-.56 14.14.07 25.755 1.397 25.755 1.986 0 7.571-7.166 14.068-18.051 6.051-10.138 7.883-12.143 10.262-11.23 2.648 1.016.977 8.398-3.723 16.453-9.065 15.533-11.025 19.123-10.648 19.501 1.965 1.964 6.236.627 18.207-5.697 14.002-7.398 15.856-7.977 16.893-5.275 1.018 2.655-2.352 6.243-10.556 11.237-18.738 11.408-18.49 13.322 1.903 14.728 9.575.66 10.637 1.068 9.629 3.695-.921 2.401-6.253 3.663-14.919 3.533-7.039-.106-8.093.119-9.337 1.993-.772 1.162-2.383 2.113-3.58 2.113-1.578 0-2.523.957-3.434 3.477-1.27 3.511-2.555 4.189-11.325 5.979-1.474.301-3.385 1.252-4.247 2.114-.95.949-2.354 1.317-3.564.933-1.533-.487-1.857-.271-1.396.932.331.861.103 1.565-.506 1.565s-1.107-.436-1.107-.969c0-.532-.681-.707-1.513-.388-.832.32-2.119.077-2.86-.538-1.02-.846-2.735-.505-7.054 1.405-5.587 2.471-14.064 3.821-24.098 3.838l-5.026.009-3.474 6.071c-3.041 5.314-4.317 6.509-10.222 9.572-4.666 2.42-6.748 4.076-6.75 5.367-.002 1.406.491 1.714 1.997 1.25l4-1.234c1.174-.362 2-.155 2 .5 0 .615-.45 1.117-1 1.117-2.507 0-.624 1.899 2.75 2.774l3.75.973-3.25 1.224c-3.826 1.442-3.834 1.471-1.25 4.756 2.907 3.696 2.502 4.446-2.207 4.09-6.443-.486-7.574 3.469-2.575 9.003 2.802 3.101 3.703 5.087 4.225 9.311 1.186 9.607 1.629 10.68 6.099 14.801 5.354 4.935 6.33 4.998 10.887.7 1.964-1.853 3.571-3.015 3.571-2.583 0 1.891-4.276 10.525-5.571 11.251-2.135 1.195-1.734 2.604 1.11 3.9 1.448.66 2.321 1.724 2.031 2.478-.797 2.077 150.707 1.94 155.687-.141 5.031-2.102 9.377-6.059 12.513-11.392l2.73-4.645v-215l-2.974-5.37c-3.269-5.901-7.52-9.65-13.274-11.703C544.864 60.861 371 60.319 371 61.871M292.158 299c0 1.375.227 1.938.504 1.25.278-.687.278-1.812 0-2.5-.277-.687-.504-.125-.504 1.25M64.5 308c.34.55.816 1 1.059 1s.441-.45.441-1-.477-1-1.059-1-.781.45-.441 1" fill-rule="evenodd"/>
<path fill="#04048b" stroke="#04048b" d="M80.591 62.573c-5.91 2.165-9.826 5.616-13.117 11.557L64.5 79.5l-.268 105.438c-.297 116.987-.629 110.733 6.304 118.833 7.612 8.893-1.717 8.229 115.663 8.229h103.568l.603-2.25c1.268-4.733.854-6.02-1.425-4.424-2.207 1.546-8.202.817-10.267-1.248-.593-.593-1.862-1.078-2.821-1.078-.959 0-2.332-.829-3.05-1.841-.719-1.013-2.283-2.359-3.476-2.992-4.399-2.334-4.02-6.624 1.285-14.509 5.597-8.32 6.976-9.658 9.956-9.658 2.359 0 8.428-5.537 8.428-7.69 0-.72.627-1.31 1.393-1.31 2.923 0 3.768-7.955.857-8.068-1.447-.056-1.382-.246.381-1.099 1.575-.763 2.268-2.241 2.653-5.663.432-3.826 1.19-5.195 4.369-7.885 2.116-1.79 3.3-3.262 2.632-3.27-2.608-.032-3.331-3.718-1.918-9.773 1.25-5.363 1.21-6.183-.456-9.311-1.005-1.887-1.846-4.163-1.869-5.059-.023-.895-.723-2.192-1.554-2.882-1.057-.877-1.207-1.624-.497-2.48.559-.673.753-2.542.43-4.154-.355-1.774.232-5.359 1.488-9.085 1.14-3.385 1.78-6.917 1.423-7.849-.458-1.193-.233-1.543.759-1.181.775.282 2.759-.726 4.409-2.241 1.65-1.515 4.35-3.183 6-3.706 1.65-.524 3.556-2.041 4.235-3.373.68-1.332 1.242-1.865 1.25-1.186.01.831 1.081.586 3.265-.746 3.502-2.135 5.218-2.555 4.287-1.05-.319.517.246.878 1.255.802 1.736-.131 1.717-.386-.345-4.69-1.199-2.503-2.529-5.669-2.955-7.035l-.775-2.483-.923 2.483c-.838 2.253-1.017 2.319-1.922.711-.944-1.679-1.151-1.664-3.865.268-3.318 2.362-3.64 2.012-3.448-3.745.168-5.005-.899-5.427-3.076-1.217-2.678 5.178-3.79 2.589-3.034-7.068l.686-8.771-3.47-4.546c-3.484-4.564-5.966-10.747-7.264-18.093l-.697-3.944 3.843 3.167c4.259 3.511 5.23 3.542 3.393.109-1.959-3.66.437-33.52 2.896-36.092.371-.388 2.245 2.471 4.166 6.353l3.493 7.059.842-4.259C312.204 89.562 322.385 72 324.061 72c.516 0 .939 2.625.939 5.833 0 6.665.717 8.016 2.729 5.144 1.316-1.88 3.933-1.858 2.771.023-.293.474-.171 1.085.272 1.359.442.273 1.352-.708 2.022-2.181 1.118-2.457 17.237-16.022 20.219-17.016.981-.327 1.123.586.6 3.857-.849 5.311.735 4.387 5.356-3.124L361.982 61l-138.741.07c-117.8.06-139.331.287-142.65 1.503" fill-rule="evenodd"/>
</svg>