<!DOCTYPE svg PUBLIC "-//W3C//DTD SVG 1.1//EN" "http://www.w3.org/Graphics/SVG/1.1/DTD/svg11.dtd">
<svg xmlns="http://www.w3.org/2000/svg" viewBox="0 0 894 894">
<path fill="#b11d2d" stroke="#b11d2d" d="M132.535 36.943c-2.769 4.481 11.631 76.55 22.491 112.557 2.322 7.7 4.279 14.51 4.348 15.134.069.624-2.154 3.549-4.941 6.5-8.939 9.466-24.725 28.274-31.933 38.045l-7 9.49-9.282.688c-21.603 1.601-43.619 6.798-56.693 13.382-6.9 3.475-43.157 27.661-46.969 31.333-2.608 2.511-2.799 2.423 11.621 5.343 23.866 4.833 35.436 10.411 49.381 23.808l7.575 7.277-3.64 9.401c-11.405 29.463-20.598 68.952-23.577 101.277-1.107 12.004-1.494 13.74-3.161 14.176-1.733.453-1.77.7-.428 2.821 1.176 1.857 1.578 8.263 2.001 31.825.634 35.371 2.784 53.919 9.795 84.5C88.384 702.66 218.397 826.113 378 853.935c46.065 8.03 99.233 7.837 145-.526C687.721 823.31 817.913 694.098 849.368 529.5c30.074-157.376-34.806-317.781-165.927-410.228-101.916-71.855-237.472-93.276-354.484-56.018l-7.542 2.402-4.458-1.929c-44.828-19.398-93.772-28.453-136.485-25.25-11.927.894-11.838 1.291 2.102 9.302 25.963 14.921 40.085 26.615 53.178 44.033 7.478 9.948 7.406 9.33 1.498 12.739-2.613 1.508-9.66 6.093-15.661 10.189-6.001 4.095-11.458 7.656-12.126 7.912-1.14.438-20.859-20.314-42.904-45.152-17.9-20.168-23.604-27.279-27.346-34.092-3.709-6.75-5.456-8.442-6.678-6.465m54.965 5.039c1.65.523 7.95 2.132 14 3.577 56.42 13.474 82.147 35.055 127.486 106.941 7.709 12.224 19.521 36.056 27.507 55.5 3.276 7.975 6.925 15.4 8.11 16.5 1.186 1.1 6.147 5.6 11.026 10s12.696 12.147 17.371 17.215c8.208 8.898 15.157 14.285 18.428 14.285 4.251 0 1.595-24.784-5.224-48.75-2.9-10.191-2.743-13.127.378-7.092 3.446 6.665 13.509 34.634 14.615 40.622l1.16 6.279 3.112-7.834c12.945-32.587 29.399-39.234 61.244-24.742 14.291 6.504 32.612 26.593 43.226 47.397 2.813 5.515 2.698 5.593-2.453 1.661-14.576-11.126-27.715-13.535-46.986-8.615-29.489 7.528-46.933 20.448-65.586 48.574-6.672 10.059-6.86 8.487 1.733 14.474 5.792 4.035 10.044 9.74 8.44 11.322-.955.942-1.649.621-3.183-1.472l-1.963-2.676-10.22 4.298c-42.607 17.917-60.641 30.917-76.776 55.346-14.314 21.673-17.83 41.761-12.989 74.208 1.026 6.875 1.686 12.682 1.467 12.904-.219.223-2.276-3.717-4.571-8.756-2.295-5.038-4.34-8.993-4.544-8.789-1.093 1.093 7.799 29.528 13.647 43.641 3.461 8.353 3.436 9.267.336-12.5-2.39-16.779-2.365-41.47.052-52 3.982-17.34 11.612-28.604 33.989-50.178 16.269-15.684 25.688-22.294 36.755-25.79 15.077-4.762 21.289-3.294 31.029 7.336 7.212 7.871 7.484 7.735 10.781-5.41l2.125-8.472-2.931-5.743c-1.612-3.159-4.092-7.293-5.511-9.187-1.419-1.895-2.58-3.877-2.58-4.405 0-1.908 4.247 2.943 8.166 9.328l4.003 6.521-.465-6.704c-.501-7.199-4.414-14.171-10.505-18.718-2.134-1.593-2.328-2.021-.928-2.046.974-.018 4.327 2.443 7.45 5.468s6.476 5.5 7.451 5.5c1.793 0 3.823-5.467 5.292-14.25.921-5.51 2.184-4.574 2.949 2.184l.671 5.933 4.958 1.647c6.05 2.01 6.059 2.142.458 6.824-7.539 6.302-5.82 13.385 1.902 7.84 18.073-12.979 44.769-15.984 58.702-6.608l5.038 3.39 10.679-4.87c14.283-6.514 15.66-7.082 38.179-15.746 10.725-4.127 26.709-10.572 35.52-14.323 19.768-8.416 24.617-9.679 44.087-11.487 2.809-.261 6.409-.971 8-1.577 4.681-1.782 36.86-9.496 50.198-12.032 13.299-2.53 13.453-3.092 1.307-4.776-12.6-1.746-51.504 1.712-77.112 6.855-16.557 3.324-29.332 6.822-53.401 14.619-11.555 3.744-17.225 5.151-17.927 4.449-.702-.702.137-1.512 2.651-2.562 4.386-1.833 4.31-.395.774-14.653-4.96-19.998-15.307-39.846-30.707-58.908-17.105-21.17-52.617-35.8-79.928-32.927-12.557 1.321-12.463 1.33-12.29-1.272.515-7.735-11.057-33.756-23.236-52.25C390.257 98.393 305.796 51.897 234 43.04c-11.587-1.43-50.464-2.314-46.5-1.058M145.063 59.75c.527 1.513 6.506 14 13.287 27.75 33.732 68.401 64.356 107.82 107.582 138.483 17.445 12.374 80.404 48.036 92.339 52.304.676.241.874.819.439 1.283-2.117 2.261-68.616-34.596-93.347-51.737-39.145-27.132-69.5-64.334-101.859-124.833-7.961-14.886-7.876-14.54 1.982 8 36.89 84.347 86.833 155.389 146.432 208.299 3.531 3.133 6.196 5.92 5.923 6.193-1.116 1.117-44.682-14.37-60.341-21.45-13.115-5.93-39.687-22.856-72.5-46.183-5.775-4.106-11.122-7.842-11.883-8.303-1.293-.784 4.557 7.208 30.703 41.944 24.929 33.12 26.007 34.174 49.191 48.096 6.224 3.737 10.812 6.963 10.195 7.169-1.134.378-10.72-4.894-21.706-11.938l-6-3.846 5.5 5.091c9.242 8.554 31.497 20.068 52.357 27.088 4.871 1.639 9.916 3.463 11.21 4.052 2.195 1.001 3.628-.236 21.399-18.47 10.476-10.748 21.181-20.902 23.79-22.564 10.887-6.936 31.18-10.61 44.111-7.987l7.366 1.495 1.28-3.093c1.965-4.747 12.487-35.661 12.487-36.687 0-.498-.396-.793-.88-.656-.483.138-5.188-4.78-10.455-10.928-26.984-31.5-41.085-43.221-78.165-64.975-37.789-22.171-45.417-26.505-59.695-33.919-34.685-18.009-52.081-33.704-107.708-97.178-7.35-8.388-13.506-15.25-13.679-15.25-.172 0 .117 1.238.645 2.75M364 68.559c0 2.785.389 4.319 1 3.941.55-.34 1-1.233 1-1.986 0-.752.788-1.573 1.75-1.825 1.598-.417 1.59-.467-.083-.573-1.009-.064-1.637-.678-1.397-1.366.241-.687 1.223-1.107 2.184-.933 1.036.188 1.478-.117 1.087-.75-.362-.587-1.757-1.067-3.1-1.067-2.231 0-2.441.392-2.441 4.559m37.693-3.201c-1.17 3.049 1.338 9.019 2.797 6.658.345-.559.191-1.016-.342-1.016-1.025 0-1.012-1.819.025-3.5.339-.55.03-1.542-.688-2.205-1.02-.943-1.411-.929-1.792.063M410 68.296c0 4.032.169 4.294 2.75 4.25 2.379-.04 2.75-.451 2.75-3.046 0-2.302-.407-2.932-1.75-2.706-1.038.174-1.75-.335-1.75-1.25 0-.849-.45-1.544-1-1.544s-1 1.933-1 4.296m27.158-.43c-1.532 5.113-1.485 5.355.761 3.953 1.511-.944 2.255-.92 3.5.114 1.887 1.566 1.945 1.014.423-4.067-1.476-4.924-3.208-4.924-4.684 0m11.842.693c0 2.785.389 4.319 1 3.941.55-.34 1-2.391 1-4.559S450.55 64 450 64s-1 2.052-1 4.559m16-.309c0 4.148.078 4.248 3.25 4.153 5.639-.167 4.663-8.349-1-8.388-1.983-.013-2.25.49-2.25 4.235m24.851-.987c-.369 3.067.777 8.062 1.259 5.487a37.4 37.4 0 0 1 .39-1.75c.137-.55.306-1.45.375-2 .274-2.192 2.125-.834 2.125 1.559 0 1.451.433 2.292 1 1.941 1.898-1.173 1.038-4.535-1.395-5.46-1.317-.501-2.599-1.502-2.848-2.225-.249-.723-.657.379-.906 2.448m7.934-1.513c-.558 2.698.287 6.064 1.654 6.588 1.078.414 1.348-2.678.665-7.588-.205-1.475-1.964-.717-2.319 1m5.215-.691c0 .582.45.781 1 .441s1-.816 1-1.059-.45-.441-1-.441-1 .477-1 1.059m21.521 2.191c.866 4.139 3.479 7.242 3.479 4.131 0-3.314 1.289-3.642 2.568-.655l1.187 2.774.989-2.5c2.039-5.154 2.388-7 1.323-7-.587 0-1.067.9-1.067 2s-.45 2-1 2-1-.9-1-2-.492-2-1.094-2c-.601 0-1.329.9-1.616 2-.288 1.1-.921 2-1.407 2-.485 0-.883-.9-.883-2s-.486-2-1.079-2c-.691 0-.835 1.171-.4 3.25m-57.052-1.2c-.95 1.538.351 2.53 1.635 1.246.718-.718.735-1.277.052-1.699-.56-.346-1.319-.142-1.687.453M372 67.081c-1.174.822-1.011.913.75.417 1.623-.456 2.285-.196 2.375.935.229 2.876.37 3.396 1.125 4.15.413.413.75-.627.75-2.309 0-1.868-.616-3.297-1.582-3.667-1.932-.742-1.62-.785-3.418.474m7.61.493c-.701 1.826.471 5.494 1.544 4.831.51-.316.654-1.435.319-2.489-.429-1.353-.129-1.916 1.022-1.916 1.058 0 1.521.686 1.318 1.955-.172 1.075.137 1.975.687 2 1.196.054 1.413-1.901.43-3.882-.889-1.793-4.687-2.149-5.32-.499m8.785-.404c-.483.782-.182.962.909.544.898-.345 1.898-.196 2.223.33.325.526-.261.956-1.301.956-1.041 0-2.162.269-2.49.598-.964.963.356 3.402 1.84 3.402.799 0 1.124-.619.786-1.5-.317-.825-.078-1.5.531-1.5s.994.506.857 1.125.313 1.331 1 1.583c.823.302 1.25-.559 1.25-2.518 0-3.682-3.898-5.782-5.605-3.02M396 69.714c0 1.807.45 3.286 1 3.286s1-1.125 1-2.5.45-2.5 1-2.5 1-.354 1-.786c0-.432-.9-.785-2-.785-1.594 0-2 .666-2 3.285m22.032-3.029c-.018.652.395 2.309.918 3.683.676 1.777.603 2.623-.25 2.928-.66.237-.942.712-.627 1.057 1.064 1.163 3.813-1.832 4.453-4.853.475-2.242.373-2.622-.406-1.505-.899 1.292-1.246 1.224-2.549-.5-.829-1.097-1.522-1.462-1.539-.81M429 67c0 .55.477 1 1.059 1s.781-.45.441-1-.816-1-1.059-1-.441.45-.441 1m17.163-.122c-1.51.957-1.221 5.282.387 5.81.6.197 1.05-1.163 1.05-3.171 0-1.935-.022-3.51-.05-3.502a52.12 52.12 0 0 0-1.387.863m8.037.322c-2.742 2.742.267 6.873 3.498 4.803 1.574-1.008 1.584-1.087.084-.622-.945.292-1.984.101-2.309-.425-.325-.526.336-.956 1.468-.956 2.419 0 2.772-2.512.477-3.393-2.014-.773-1.816-.809-3.218.593m20.8-.119c-1.174.822-1.011.913.75.417 1.904-.535 2.25-.247 2.25 1.876 0 1.379.45 2.786 1 3.126.58.359 1-.621 1-2.334 0-1.769-.634-3.195-1.582-3.559-1.932-.742-1.62-.785-3.418.474m8.2.119c-2.462 2.462-.038 6.443 3.173 5.21 2.329-.893 2.015-2.324-.373-1.7-1.549.405-2 .031-2-1.661 0-1.786.41-2.068 2.25-1.551 1.761.496 1.924.405.75-.417-1.926-1.348-2.346-1.335-3.8.119m24.8-.112c-1.212.877-1.067.991.75.592 2.847-.624 2.981.896.145 1.637-2.158.565-2.209 2.745-.082 3.454.731.244.954-.214.581-1.187-.812-2.116.546-2.016 2.263.166 1.234 1.567 1.35 1.385 1.111-1.742-.285-3.708-2.123-4.834-4.768-2.92M438.5 68c-.34.55-.141 1 .441 1S440 68.55 440 68s-.198-1-.441-1-.719.45-1.059 1m17 0c-.34.55.11 1 1 1s1.34-.45 1-1c-.34-.55-.79-1-1-1-.21 0-.66.45-1 1m47.5 2c0 1.65.45 3 1 3s1-1.35 1-3-.45-3-1-3-1 1.35-1 3m12.233-.55c-.111 1.348.241 2.725.782 3.059.542.335.985-.228.985-1.25s.54-2.399 1.2-3.059c.933-.933.76-1.2-.782-1.2-1.381 0-2.043.742-2.185 2.45M412 69.441c0 .793.45 1.719 1 2.059.55.34 1-.309 1-1.441 0-1.132-.45-2.059-1-2.059s-1 .648-1 1.441M371.5 70c-.714 1.155.207 3 1.497 3 .483 0 .811-.9.728-2-.162-2.148-1.221-2.624-2.225-1m95.5 0c0 .55.675 1 1.5 1s1.5-.45 1.5-1-.675-1-1.5-1-1.5.45-1.5 1m7.446.087c-.369.598-.231 1.528.307 2.066.639.639 1.167.261 1.519-1.087.568-2.171-.677-2.838-1.826-.979M429 72.059c0 .582.45.781 1 .441s1-.816 1-1.059-.45-.441-1-.441-1 .477-1 1.059M171 98.566c0 3.996 23.266 41.19 38.31 61.245 29 38.658 44.872 52.623 79.819 70.229 22.334 11.252 62.153 33.468 73.74 41.14 8.961 5.934 14.184 10.189 27.086 22.07 5.226 4.813 9.962 8.735 10.524 8.717 2.328-.076-25.94-24.632-36.479-31.688-11.625-7.784-49.85-29.193-71.212-39.885-29.699-14.865-42.809-24.415-59.637-43.443-21.803-24.652-40.241-50.82-55.627-78.951-4.709-8.608-6.524-11.234-6.524-9.434m188 16.06c0 .345 5.097 7.432 11.326 15.75 39.129 52.25 47.801 69.172 52.719 102.874.702 4.813 1.655 8.75 2.116 8.75 3.303 0-5.2-36.84-11.61-50.299C404.978 173.699 359 108.737 359 114.626m33.413 30.411c15.921 16.664 32.17 49.749 36.079 73.463 2.225 13.492 3.639 18.086 2.924 9.5-1.691-20.324-16.589-58.117-29.171-74-4.835-6.104-15.474-17-16.599-17-.501 0 2.544 3.617 6.767 8.037M95 233.357c12.639 6.953 24.507 14.346 30.144 18.778 5.46 4.293 5.508 3.489.164-2.725-6.687-7.775-20.317-16.694-30.361-19.867-12.446-3.932-12.434-3.056.053 3.814m611.5 57.616c-40.534 8.545-55.581 13.379-72.632 23.336-16.907 9.873-24.949 15.797-31.476 23.185-8.945 10.126-9.352 11.474-1.254 4.156 16.937-15.308 37.846-27.631 59.362-34.987 19.152-6.547 58.065-17.05 59.617-16.09.829.512 6.883-2.213 6.883-3.099 0-.76-1.541-.497-20.5 3.499m-595-2.289c.55.533 5.05 4.368 10 8.523 13.229 11.104 24.587 24.276 54.5 63.21 12.443 16.194 21.124 24.9 31.956 32.043 8.538 5.631 27.087 15.909 27.583 15.284.107-.134-5.484-5.224-12.423-11.31-7.942-6.966-19.098-18.45-30.113-31-25.429-28.972-44.01-47.285-70.452-69.434-4.694-3.932-13.742-9.922-11.051-7.316m601.5 4.838c-2.475.723-11.25 3.133-19.5 5.355-27.373 7.374-38.649 11.49-47.191 17.226-44.235 29.703-62.388 55.503-75.361 107.106-2.225 8.848-4.701 17.709-5.503 19.69-1.407 3.478-1.397 3.529.299 1.498 8.728-10.452 11.294-14.639 22.307-36.397 18.222-36.003 22.566-42.817 31.633-49.625 9.129-6.854 14.272-9.798 8.316-4.759-13.628 11.528-16.51 15.664-36.51 52.384-6.44 11.825-12.79 23.348-14.111 25.606-3.591 6.143-8 19.682-5.399 16.584 3.013-3.591 21.155-32.446 31.904-50.743 13.584-23.123 20.938-33.192 33.616-46.025 14.444-14.621 47.546-39.166 71.291-52.862 6.396-3.689 11.365-7.247 9.018-6.456-.17.057-2.334.696-4.809 1.418m32.792 39.204c-17.283 20.714-35.169 39.718-46.843 49.774-5.747 4.95-16.524 14.871-23.949 22.046-21.023 20.316-27.077 25.713-43.344 38.641-16.008 12.723-19.049 15.366-14.156 12.301 1.65-1.034 6.6-4.111 11-6.84 10.853-6.729 27.4-17.843 36.5-24.516 34.52-25.313 37.569-27.815 46.537-38.205 8.976-10.397 25.388-31.903 33.262-43.585 2.283-3.387 4.642-6.322 5.243-6.523 1.117-.372 8.248-15.862 7.601-16.51-.197-.196-5.529 5.842-11.851 13.417m.276-7.167c-18.938 15.971-60.774 32.088-110.399 42.53l-10.831 2.279-4.283 6.066c-4.581 6.489-15.19 23.971-18.585 30.624l-2.061 4.04 2.904-1.501c1.597-.826 8.221-4.684 14.72-8.575 6.499-3.89 12.147-6.949 12.552-6.797.405.151-8.24 7.02-19.211 15.263-10.97 8.243-19.558 15.117-19.083 15.276.969.323 22.967-6.207 33.709-10.007 12.611-4.46 22.345-8.849 48.353-21.805l25.647-12.776 12.57-12.838c12.696-12.968 20.13-21.222 34.296-38.088 8.88-10.572 8.815-11.376-.298-3.691m-361.122-1.135c-19.553 7.656-32.363 16.074-45.98 30.214-18.468 19.176-30.029 42.526-29.888 60.362l.044 5.5 2.786-9.5c7.366-25.118 18.554-43.795 36.317-60.626 13.561-12.85 24.524-18.975 43.682-24.403 9.379-2.658 9.397-2.669 6.101-3.818-4.168-1.453-3.061-1.646-13.062 2.271M744 346.832c-16.839 24.804-37.851 49.496-54.523 64.071-22.439 19.617-53.661 42.62-74.477 54.871-13.352 7.858-13.228 7.952 3 2.284 17.918-6.26 26.301-10.325 39.523-19.166 5.669-3.791 10.675-6.892 11.126-6.892.45 0-4.349 5.259-10.665 11.687-6.316 6.427-10.809 11.227-9.984 10.665 21.073-14.345 55.842-46.924 69.211-64.852 9.725-13.041 33.411-57.309 31.581-59.023-.161-.15-2.317 2.71-4.792 6.355m-253.98-4.151-4.481.457 6.481 2.457c31.194 11.828 48.089 30.846 55.437 62.405 3.274 14.059 1.576 29.961-5.391 50.5-1.573 4.636-1.68 5.545-.471 4 8.011-10.242 16.316-40.568 15.135-55.272-1.235-15.388-27.735-55.169-41.11-61.713-5.723-2.8-15.409-3.872-25.6-2.834M80.469 344c5.608 9.713 15.719 19.053 26.531 24.508C112.972 371.52 135.764 380 137.89 380c2.715 0-6.595-6.399-11.8-8.111-12.055-3.964-30.287-14.891-41.314-24.759-2.846-2.546-4.784-3.955-4.307-3.13m397.122 6.526c-4.58 1.258-9.619 4.78-8.474 5.924.278.278 4.524 1.67 9.436 3.093 12.799 3.709 16.947 7.211 28.06 23.682 9.495 14.076 15.993 32.376 16.487 46.432.18 5.125 3.831-8.229 5.03-18.4 1.084-9.185.849-16.986-.616-20.507-.406-.975-.292-1.75.258-1.75.542 0 1.557 1.462 2.257 3.25a175.12 175.12 0 0 0 2.609 6.25c1.843 4.133 3.05 25.352 2.172 38.174-1.582 23.108-5.996 34.432-21.172 54.318-2.635 3.452 9.509-7.432 17.017-15.253 5.703-5.94 8.129-9.201 8.081-10.863-.037-1.307 1.676-7.776 3.808-14.376 5.336-16.521 5.752-35.699 1.075-49.5-5.777-17.048-9.108-22.602-20.092-33.5-17.005-16.871-29.496-21.487-45.936-16.974M399 368.872c-15.344 4.921-37.234 22.56-55.811 44.971-18 21.717-21.45 52.14-11.591 102.244 2.087 10.608 2.999 11.656 3.204 3.683.18-6.98 4.533-40.177 6.778-51.694 3.532-18.112 13.738-31.02 53.42-67.561 22.439-20.663 27.969-24.146 33.319-20.986 3.035 1.793 3.027 1.766-.877-2.943-7.835-9.448-16.072-11.682-28.442-7.714m39 30.761c-1.375.199-6.55.856-11.5 1.46-14.297 1.744-19.537 5.229-27.679 18.407-4.684 7.58-21.651 50.896-23.794 60.742l-1.032 4.742 5.126 5.457c7.971 8.487 13.271 17.833 16.905 29.809 1.127 3.713 1.559 4.024-10.092-7.266-5.685-5.509-10.757-9.876-11.271-9.705-2.428.809-5.004 10.351-4.919 18.221.12 11.203.807 12.471 8.901 16.444 13.073 6.415 20.156 7.596 22.826 3.806 1.975-2.803 3.695-.831 2.871 3.29-.385 1.924.182 3.419 2.101 5.547l2.628 2.913-.616-7c-.339-3.85-.835-7.788-1.103-8.75-.268-.962-.006-1.75.581-1.75s1.067 1.508 1.067 3.351c0 6.569 3.304 13.316 5.773 11.79 1.014-.627.952-1.556-.307-4.567-.868-2.079-1.392-4.971-1.164-6.427.406-2.587.433-2.596 1.174-.397 2.756 8.186 21.62-4.025 59.024-38.208 7.7-7.037 16.137-14.409 18.75-16.382 5.665-4.278 5.67-4.32 2.743-24.259-3.506-23.88-6.395-29.359-25.916-49.154L456.5 398.993l-8 .14c-4.4.077-9.125.302-10.5.5M46 430.607c0 .491 7.608 10.59 33.05 43.872 6.297 8.238 14.314 17.913 17.815 21.5 3.5 3.586 4.935 4.721 3.188 2.521-7.501-9.446-29.348-38.904-36.621-49.38-4.346-6.259-8.975-12.109-10.288-13-1.313-.891-3.457-2.612-4.766-3.825-1.308-1.212-2.378-1.972-2.378-1.688M555.148 440c-3.568 11.38-8.552 21.474-14.066 28.49-3.243 4.127-5.558 8.361-6.653 12.17-2.354 8.187-3.905 10.939-10.278 18.242-7.087 8.121-3.589 6.408 6.516-3.191 20.454-19.429 27.853-34.457 27.121-55.082l-.288-8.129-2.352 7.5m-260.184 35.635c-3.761 5.831-3.744 13.629.073 33.16 2.853 14.601 3.363 13.77 1.465-2.387-1.524-12.971-1.068-22.459 1.508-31.444 1.427-4.975.458-4.761-3.046.671m422.844-4.115c-.169.166-2.088.474-4.264.685l-3.957.383-8.726 22.456c-10.463 26.926-10.337 26.163-4.234 25.761l4.628-.305 2.932-8c2.753-7.513 5.258-12.16 4.256-7.894-.245 1.042-.816 5.176-1.268 9.187l-.824 7.293 5.91-.293 5.911-.293 3.041-8c1.673-4.4 5.254-13.773 7.957-20.828 2.716-7.09 4.659-13.636 4.343-14.632-.351-1.104.021-2.031.957-2.39 3.339-1.281 1.421-2.753-3.199-2.455l-4.728.305-2.581 6.726c-3.147 8.199-3.973 9.222-2.879 3.564 1.429-7.387 1.14-10.498-1.025-11.065-1.068-.279-2.081-.371-2.25-.205m-58.59 2.143c-6.363 3.136-11.555 14.813-8.904 20.023 3.384 6.649 3.248 7.314-1.5 7.314h-4.321l-2.246 6.437c-3.965 11.361-2.837 13.566 6.937 13.559 8.96-.006 14.062-4.56 17.349-15.486 1.455-4.834 1.423-5.142-1.016-9.842-3.159-6.091-3.302-5.668 1.911-5.668h4.428l2.072-5.538c2.545-6.802 2.588-8.685.243-10.807-2.38-2.154-10.575-2.149-14.953.008m27.282-.13c-1.65.819-3.991 2.946-5.203 4.728-2.666 3.921-14.284 34.35-14.292 37.432-.017 6.962 15.342 7.093 21.676.186 1.847-2.014 10.027-22.182 14.263-35.167 2.528-7.748-6.952-11.887-16.444-7.179m59.5-.881c-4.181 1.377-6.375 3.139-8.483 6.811-3.15 5.488-13.517 33.843-13.517 36.973 0 3.72 3.98 5.999 8.746 5.007 2.065-.43 5.546-.818 7.736-.862l3.981-.081 4.228-11c5.353-13.924 5.398-13.339-1.062-13.7l-5.37-.3 2.978-7.81c1.637-4.295 3.21-7.576 3.495-7.291.285.285-.213 2.346-1.107 4.58-2.349 5.87-2.19 6.167 3.123 5.826 5.253-.337 7.908-3.856 8.993-11.919.745-5.543-6.232-8.708-13.741-6.234m24.5.751c-4.876 2.152-6.196 4.424-13.009 22.394-8.643 22.795-8.571 24.308 1.18 24.944 11.332.74 13.949-2.065 22.152-23.741 7.164-18.933 7.538-20.639 5.061-23.116-2.267-2.267-10.738-2.532-15.384-.481m21.817 3.347c-1.194 2.613-4.055 9.925-6.357 16.25-2.302 6.325-4.826 12.953-5.61 14.729-1.883 4.27-4.35 11.3-4.35 12.397 0 .481 2.438.874 5.417.874h5.416l1.591-4.25 1.591-4.25-.527 4.298-.527 4.298 6.269-.298 6.27-.298 1.5-13.22 1.5-13.219 6.75-10.38c8.051-12.38 7.939-11.681 1.868-11.681-4.721 0-4.984.156-7.988 4.75-3.452 5.278-3.865 5.254-1.63-.096 2.023-4.842 2.175-4.654-3.756-4.654h-5.256l-2.171 4.75m29.094-3.606c-.389.629-.671 2.429-.626 4 .045 1.571-.299 2.856-.764 2.856-.464 0-2.055 3.262-3.534 7.25-1.48 3.988-3.037 7.94-3.461 8.783-.425.843-1.11 3.093-1.524 5-.415 1.907-1.057 3.692-1.429 3.967-.853.631-4.073 9.156-4.073 10.783 0 3.053 3.961 5.217 9.55 5.217 10.781 0 13.772-3.166 20.829-22.055 2.968-7.945 6.347-16.824 7.509-19.732 2.866-7.174 2.848-7.213-3.3-7.213h-5.413l-2.938 7.75c-1.616 4.262-5.109 13.488-7.762 20.5-2.652 7.012-5.17 12.75-5.595 12.75-.87 0 .514-4.096 8.53-25.26 3.074-8.117 5.59-14.98 5.59-15.25 0-1.044-10.92-.428-11.589.654m-381.715 2.197c-3.306 2.545-14.082 12-21.298 18.687-5.012 4.644-5.133 4.894-6.815 14.1-.942 5.155-1.917 10.385-2.167 11.622-.846 4.189.55 2.281 5.486-7.5 2.706-5.363 6.873-12.045 9.259-14.849 6.946-8.163 18.975-23.599 18.643-23.922-.167-.163-1.566.675-3.108 1.862m244.971.326c-.367.366-.667 1.131-.667 1.7 0 .626.466.567 1.183-.15.651-.651.951-1.416.667-1.7-.284-.284-.817-.217-1.183.15m84 0c-.367.366-.667 1.131-.667 1.7 0 .626.466.567 1.183-.15.651-.651.951-1.416.667-1.7-.284-.284-.817-.217-1.183.15m-218.46 4.01c-1.248.5-10.207 13.391-10.207 14.686 0 1.39 2.091.497 5.215-2.228 7.872-6.866 10.785-4.829 10.785 7.542 0 8.227-2.169 19.807-4.077 21.773-1.356 1.396-1.136-1.178.588-6.859.864-2.848 1.489-8.845 1.489-14.285 0-10.646-.205-10.751-7.511-3.86-3.51 3.31-3.6 3.557-2.079 5.729 2.664 3.804 2.123 15.161-1.04 21.825-1.436 3.025-2.808 4.971-3.049 4.325-.241-.647.523-3.059 1.697-5.36 3.815-7.479 2.85-20.28-1.406-18.647-5.052 1.939-7.675 17.682-2.946 17.682.799 0 1.174.45.834 1-1.001 1.62-2.442 1.166-4.978-1.571l-2.383-2.571-1.652 2.522c-2.053 3.132-1.599 5.987 1.024 6.443 3.708.645 4.345 2.679 2.943 9.398-1.498 7.179-3.152 8.779-9.073 8.779-6.109 0-12.814 9.952-10.648 15.806l.833 2.254 4.675-3.096c5.284-3.501 23.04-21.723 28.915-29.675 8.861-11.995 14.747-28.684 13.309-37.737-1.695-10.674-6.003-15.983-11.258-13.875m140.235.823c-.435 1.1-1.369 2.349-2.075 2.776-.706.427-1.058 1.366-.782 2.086.277.72-1.542 6.804-4.041 13.52-4.436 11.922-5.424 15.528-3.717 13.568 1.533-1.759 12.312-31.533 11.857-32.748-.27-.72-.768-.401-1.242.798m82.971 1.219c-1.022 1.529-1.742 3.164-1.602 3.633.141.468-.703 3.393-1.876 6.5-6.445 17.074-7.809 21.148-7.079 21.148.95 0 13.569-32.909 12.882-33.595-.257-.257-1.303.784-2.325 2.314m-110.783.531c-.949 3.542-.792 5.645.279 3.75 1.546-2.732 2.24-6 1.275-6-.523 0-1.222 1.012-1.554 2.25m-171.148 5.85c-2.74 2.256-11.282 9.874-18.982 16.93-25.502 23.37-39.727 34.333-49.32 38.011-3.383 1.297-4.225 1.974-3.036 2.443 3.451 1.362 26.334-12.439 52.856-31.878 6.875-5.039 15.2-10.954 18.5-13.145l6-3.984.298-6.239c.352-7.377.137-7.45-6.316-2.138m22.148 7.461c-4.878 4.143-9.138 7.265-9.465 6.938-.327-.328-1.77 3.175-3.207 7.783-1.436 4.609-4.706 12.222-7.266 16.918-4.514 8.282-4.782 8.559-8.923 9.218C470.723 538.655 438 548.17 438 550.017c0 2.23 8.953 2.529 15.635.523 14.58-4.377 29.283-6.309 35.865-4.711 2.424.588 3.113 1.01 1.75 1.071-1.238.055-2.25.577-2.25 1.159 0 .582-.419.8-.931.484-.512-.317-1.165-.197-1.451.266-.286.463-4.03.892-8.319.953-16.791.24-47.764 10.448-54.307 17.899-3.171 3.612-3.186 3.617-6.474 2.049l-3.295-1.572.454 10.681c.25 5.875.884 12.884 1.409 15.577.526 2.693.716 5.135.424 5.428-1.001 1.001-16.324-8.175-17.121-10.253-.411-1.072 2.717-10.204 6.277-18.322.312-.71-2.484.039-6.466 1.734l-7.015 2.985-7.092-3.133c-6.599-2.915-8.893-4.835-5.775-4.835 2.629 0 11.264-2.978 13.199-4.551 1.486-1.208 1.571-1.484.337-1.102-.906.281-8.556-.127-17-.905-21.198-1.955-31.46-1.911-32.247.14-1.501 3.912-.527 14.819 1.988 22.25 5.21 15.4 8.826 21.322 19.252 31.534 16.139 15.809 21.295 19.713 37.662 28.517l15.584 8.383 6.487-.52c4.898-.394 7.466-1.199 10.48-3.287 5.097-3.532 58.483-59.959 61.588-65.096 1.919-3.176 9.596-25.444 24.376-70.707 1.763-5.399 1.778-5.789.192-5.127-6.556 2.739-7.21 2.877-8.333 1.754-.859-.859.141-2.912 4.017-8.24 4.241-5.831 7.57-13.09 5.975-13.029-.206.008-4.366 3.404-9.245 7.547m301.037.106c-.367.366-.653 1.379-.637 2.25.025 1.3.221 1.257 1.092-.242 1.077-1.852.765-3.228-.455-2.008M488.5 504.644c-22.078 15.359-25.5 18.312-25.5 22.006 0 9.223-12.028 16.616-20.05 12.323-1.577-.844-13.785 4.591-16.677 7.425-.875.858 3.096 4.548 4.067 3.78 3.908-3.09 35.859-12.725 52.66-15.879 4.275-.803 4.705-1.205 8.604-8.055 5.614-9.863 12.048-29.953 7.943-24.803-1.516 1.902-1.547 1.897-1.547-.25 0-3.016-.424-2.862-9.5 3.453m93.5-2.533c-4.675 1.584-9.85 3.194-11.5 3.578-3.514.819 25.631 2.591 32.25 1.961 13.633-1.297-8.602 3.795-30.522 6.99-2.35.343-4.544 1.062-4.875 1.598-.348.562.192.749 1.272.441 1.031-.294 4.8-.823 8.375-1.175 3.575-.351 11.504-1.734 17.62-3.072 12.008-2.626 14.326-2.914 12.83-1.593-.522.461-3.955 1.366-7.628 2.011-25.886 4.547-37.125 10.469-57.048 30.064-8.65 8.507-15.583 15.61-15.407 15.786.322.322 6.358-2.925 23.297-12.533 24.263-13.761 40.958-20.425 68.016-27.149 8.516-2.117 15.681-4.045 15.922-4.287.532-.532-5.663-4.701-11.128-7.489-3.4-1.735-20.084-5.923-29.974-7.525-1.824-.296-6.332.643-11.5 2.394m70.734 4.922c-1.986 5.192-2.091 5.967-.812 5.967 1.196 0 3.329-6.461 2.887-8.742-.215-1.107-.984-.078-2.075 2.775m84.355 2.064c-1.4 4.674-.842 6.448.693 2.204a160.288 160.288 0 0 1 1.723-4.551c.39-.962.282-1.75-.24-1.75s-1.501 1.844-2.176 4.097m-479.494 6.728c3.248 2.104 8.981 6.44 12.74 9.635l6.835 5.81-2.55-5.034c-3.158-6.231-8.588-10.836-15.052-12.765-7.821-2.333-8.309-1.75-1.973 2.354m49.489 6.925c4.54 8.079 11.127 17.198 15.069 20.86l3.347 3.109 13 .041c12.964.041 24.227 1.533 39.978 5.295 7.833 1.871 8.04 1.872 9.883.029 2.525-2.525 1.736-3.43-5.279-6.053-5.536-2.071-6.123-2.115-8.244-.63-6.327 4.431-16.19-.191-19.136-8.967-1.448-4.316-6.684-7.65-13.952-8.887l-3.75-.638v6.629c0 8.772-1.236 8.219-7.348-3.289l-4.847-9.128-8.776-2.061c-13.763-3.231-13.821-3.209-9.945 3.69m151.666 3.33c-.962.561-1.75 2.089-1.75 3.397 0 3.355-4.674 6.838-8.223 6.128-3.029-.605-5.777.109-5.777 1.502 0 .491 2.047.893 4.55.893 7.43 0 12.618-3.635 13.918-9.75.725-3.411.172-3.853-2.718-2.17m-101.746 9.17c.007 2.431 4.031 7.813 6.562 8.775C367.881 545.666 375 545.028 375 543c0-1.424-3.226-2.057-4.614-.906-2.105 1.748-6.313.17-7.658-2.872-1.814-4.102-5.733-6.821-5.724-3.972M372 538.345c0 2.336 23.934 11.149 25.642 9.441 1.345-1.345.985-1.579-3.317-2.163-2.654-.361-8.762-2.408-13.575-4.55-5.105-2.272-8.75-3.409-8.75-2.728m-12.453 16.062-6.954 2.2 6.954 1.22c6.287 1.104 24.338 3.083 28.703 3.147 2.754.041 2.042-2.912-.98-4.061-3.047-1.159-18.948-4.971-20.059-4.809-.391.057-3.84 1.093-7.664 2.303M228.5 562.718c-8.597 2.087-19.962 6.54-24.512 9.604-6.698 4.511-5.892 4.77 1.631.524 3.073-1.735 10.783-4.651 17.132-6.481 12.729-3.668 17.002-6.38 5.749-3.647m277.825 4.032c-6.351 18.157-7.829 20.394-26.058 39.42-6.498 6.782-16.472 17.629-22.165 24.106-17.934 20.402-31.156 34.141-35.201 36.577-6.433 3.875-12.789 3.215-26.709-2.775-6.384-2.747-11.734-4.869-11.889-4.715-.909.91 34.775 41.365 38.669 43.839 9.931 6.31 16.369 3.77 27.002-10.654 15.172-20.58 42.98-74.209 47.092-90.815 1.26-5.089 2.934-7.226 2.934-3.745 0 1.158-2.639 10.092-5.866 19.852-7.838 23.713-17.623 44.115-32.745 68.268-2.964 4.735-5.389 8.811-5.389 9.059 0 .247 3.598-1.338 7.995-3.524 7.888-3.92 8.092-4.118 15.25-14.808 3.99-5.959 7.856-10.834 8.59-10.835.813 0-.111 2.053-2.365 5.25l-3.7 5.25 4.214-4.318c6.547-6.707 5.931-4.121-1.02 4.282-3.444 4.164-6.076 7.758-5.848 7.985.228.228 5.13-1.165 10.894-3.095C507.198 675.596 534.234 670 544.859 670c4.161 0 4.58-2.024 3.688-17.838-.931-16.505.036-15.107-23.472-33.93l-11.575-9.268-1.336 12.268c-1.242 11.41-2.241 15.024-3.739 13.526-.335-.334.108-7.169.983-15.188 2.202-20.165 2.208-53.12.01-53.963-2.251-.864-2.412-.805-3.093 1.143M292 573.478c0 2.514 4.749 6.699 7.193 6.339 3.211-.473 3.255-2.364.106-4.583-4.23-2.98-7.299-3.718-7.299-1.756m130.5 27.081c-3.3.744-9.68 1.373-14.177 1.397-7.633.041-8.317.221-10.264 2.697-1.148 1.459-1.817 2.921-1.487 3.25.33.328 1.384-.369 2.341-1.551 1.502-1.852 3.038-2.208 11.164-2.587 5.183-.243 12.665-1.052 16.628-1.799 6.707-1.264 7.346-1.229 9.256.499 1.128 1.021 2.386 1.52 2.795 1.109 1.316-1.32-3.868-4.578-7.117-4.472-1.726.057-5.839.712-9.139 1.457m-20.725 12.935c-6.6 3.738-5.5 8.42 2.903 12.355l4.936 2.312 8.871-3.331c10.889-4.088 11.128-4.692 3.465-8.776-7.335-3.909-15.879-4.993-20.175-2.56m-60.633 24.256c14.849 27.023 15.023 27.276 27.706 40.355 6.791 7.003 13.541 13.191 15 13.751 3.281 1.258 13.315 3.315 13.801 2.828.196-.196-3.582-3.456-8.396-7.244-13.471-10.6-28.852-26.543-40.221-41.69-5.676-7.562-10.484-13.75-10.685-13.75-.2 0 1.058 2.587 2.795 5.75m69.172 35.596c.427 5.147 14.835 17.654 20.336 17.654 5.294 0 4.745-4.07-.89-6.598-2.332-1.046-7.703-4.466-11.936-7.6-6.789-5.027-7.674-5.434-7.51-3.456m126.22.318c-24.444 3.17-57.535 12.755-72.933 21.124l-3.101 1.686 9 .611c7.535.511 11.214 1.45 22.604 5.771l13.603 5.16 11.746-2.008c6.46-1.104 13.164-2.014 14.896-2.022 7.077-.03 7.353-.354 9.228-10.833.95-5.309 2.56-12.089 3.578-15.067 1.017-2.978 1.737-5.482 1.598-5.564-.139-.083-4.738.431-10.219 1.142M356 693.382c0 .21 6.064 4.548 13.477 9.639 7.412 5.09 17.565 12.52 22.562 16.51 7.888 6.298 9.77 7.34 14.282 7.903 2.858.357 5.867 1.107 6.688 1.666 1.044.712-.157.813-4.009.337-5.435-.671-5.479-.655-3.719 1.305 1.205 1.342 3.598 2.172 7.393 2.564 3.086.318 6.109 1.101 6.718 1.739.836.876.127 1.01-2.892.546-2.2-.338-6.025-.839-8.5-1.115-2.475-.276-6.75-.95-9.5-1.499-17.466-3.486-59.9-7.189-64.066-5.59-2.812 1.079 6.798 10.406 11.522 11.182 1.949.321 13.724 2.588 26.167 5.038 22.687 4.467 48.815 8.393 55.861 8.393 3.418 0 3.824-.289 4.391-3.125 2.31-11.552-1.25-38.957-5.225-40.217-.908-.288-5.925-2.135-11.15-4.104-13.292-5.008-29.896-9.322-40.5-10.52-9.014-1.019-19.5-1.37-19.5-.652m168 13.235c-5.775.776-11.625 1.8-13 2.274l-2.5.862 2.5.635c3.472.882 27.277-2.718 27.771-4.2.483-1.449-1.15-1.402-14.771.429m3 3.929c-4.675.724-10.075 1.762-12 2.307-1.925.544-9.575 1.918-17 3.054-18.151 2.777-33 9.796-33 15.6 0 2.695 2.822 16.648 3.505 17.331.689.689 20.85-3.408 41.748-8.483 21.319-5.178 21.023-4.98 24.512-16.355 2.968-9.674 3.713-15.026 2.073-14.885-.736.063-5.163.707-9.838 1.431M332 743.04c0 1.939 3.839 8.576 8.115 14.029 14 17.854 27.325 33.003 29.512 33.552 5.518 1.385 23.037-3.834 71.703-21.362l24.831-8.942-17.331-.627c-29.272-1.058-50.016-4.034-74.83-10.738-18.359-4.96-42-8.288-42-5.912m173.5 16.196c-10.617 8.731-35.68 24.937-47 30.39-22.585 10.88-59.363 17.078-83 13.988-6.05-.791-11.136-1.305-11.301-1.142-.473.466 20.579 9.075 27.801 11.369 18.301 5.814 77.945 8.543 93.349 4.272 12.25-3.397 14.135-7.023 21.107-40.613 1.941-9.35 3.975-18.32 4.519-19.934 1.331-3.945 1.365-3.955-5.475 1.67M337 802.68c0 .969 12.59 13.426 20.919 20.698 9.408 8.214 22.416 14.795 35.581 18.001 26.356 6.417 58.043 8.894 67.469 5.272 5.163-1.983 19.031-10.417 19.031-11.574 0-.429-9.337-1.045-20.75-1.369-26.615-.755-55.713-4.416-82.23-10.345-15.049-3.364-22.018-6.857-35.27-17.672-2.613-2.133-4.75-3.487-4.75-3.011" fill-rule="evenodd"/>
<path fill="#0d0c0c" stroke="#0d0c0c" d="M133.32 43.5c1.618 20.992 10.559 64.834 19.881 97.486 4.963 17.384 6.711 24.925 6.025 26-1.597 2.501 11.213 36.169 19.214 50.5 1.386 2.483 2.227 4.514 1.868 4.514-.359 0-4.287-.654-8.73-1.454-17.949-3.23-53.427-4.637-55.451-2.199-.741.893-4.744 1.561-11.872 1.982-30.324 1.792-51.216 8.792-73.255 24.548-2.475 1.769-7.65 5.289-11.5 7.823C9.458 259.309 2 264.932 2 265.894c0 .458 3.377 1.376 7.505 2.042 12.058 1.946 25.461 5.824 32.995 9.55 12.315 6.089 28.5 19.738 28.5 24.033 0 1.375 2.952 5.373 7.824 10.595 13.374 14.336 17.293 18.915 30.015 35.074 11.575 14.701 12.765 16.425 11.771 17.062-.724.464-19.936-11.444-26.048-16.145-9.585-7.371-10.234-8.009-19.785-19.418-9.48-11.326-9.804-11.476-11.736-5.431-1.351 4.229-.446 7.654 7.465 28.244 11.283 29.366 29.458 57.049 54.564 83.104l5.881 6.103-8.226.641c-26.069 2.029-39.59-.567-68.225-13.099-10.342-4.526-11.1-4.713-12.669-3.113-1.442 1.471-1.481 1.952-.282 3.533.763 1.007 1.402 2.932 1.419 4.277.039 2.989 2.573 6.824 15.561 23.554 5.551 7.15 13.54 17.595 17.754 23.21 16.366 21.812 28.203 32.792 53.702 49.815 28.095 18.756 47.412 26.528 74.01 29.777l10.496 1.282-4.996 2.355C200.627 567.12 185 579.641 185 582.565c0 3.386 3.004 4.435 12.693 4.435 5.253 0 14.108.662 19.679 1.47 5.57.809 26.553 3.526 46.628 6.039 48.413 6.06 44 5.214 44 8.439 0 2.353 2.544 15.479 4.493 23.188.564 2.229.01 3.232-3.59 6.5-6.798 6.172-11.144 10.594-14.99 15.253l-3.586 4.344-10.365-7.616c-14.647-10.764-13.549-11.249-22.382 9.883-6.377 15.256-10.255 24.412-13.13 31-.72 1.65-2.705 6.421-4.412 10.603-4.407 10.801-5.127 11.649-8.114 9.557-6.159-4.315-12.177-1.181-13.489 7.023l-.612 3.824-29.411 9.964C172.235 731.95 159 736.726 159 737.084c0 .845 13.434 14.215 19.666 19.572a563.916 563.916 0 0 1 8.229 7.219c1.868 1.685 3.893 2.78 4.5 2.434.608-.346.8-.29.427.125-.846.943 3.265 4.536 14.178 12.391 4.675 3.365 8.953 6.468 9.506 6.897 8.559 6.62 13.552 9.341 13.068 7.122-3.31-15.191-5.552-36.295-5.565-52.391L223 730.406l4.047-3.953c3.633-3.548 4.683-4.004 10.25-4.453l6.203-.5 1.792-5.5c1.604-4.927 4.379-14.78 13.768-48.902 1.574-5.721 3.759-12.309 4.854-14.639 1.096-2.331 2.287-5.413 2.648-6.849.36-1.435 1.169-2.597 1.796-2.581.867.023 18.492 12.488 20.51 14.505.203.204-.392 1.133-1.324 2.065-1.592 1.592-2.079 1.313-8.092-4.646-3.518-3.488-6.687-6.051-7.042-5.696-1.251 1.25 1.751 31.387 4.254 42.714 2.387 10.799 7.404 25.571 14.105 41.529 22.35 53.228 37.649 82.958 54.547 106 6.847 9.337 5.39 8.622 25.468 12.48 44.889 8.626 89.6 10.002 132.216 4.069 21.146-2.944 51.845-9.14 37.5-7.569-8.113.888-22.5 1.719-22.5 1.299 0-.238 2.069-6.024 4.598-12.856 5.477-14.798 16.341-46.188 17.451-50.423.433-1.65 2.176-7.725 3.874-13.5 4.312-14.665 9.123-40.916 11.087-60.5.442-4.4 1.951-18.125 3.354-30.5 4.308-38.004 6.064-60.357 4.774-60.787-1.976-.659-1.345-7.716.868-9.719 1.104-.998 2.154-1.63 2.334-1.405.946 1.183 16.303 18.609 17.415 19.762 10.389 10.764 26.759 31.062 28.832 35.749 2.639 5.969 5.615 6.692 3.383.822-.998-2.625-.833-3.12 1.713-5.158 6.793-5.436 11.172.485 20.147 27.236 9.898 29.502 11.793 41.584 10.101 64.386-1.571 21.169-1.559 20.561-.431 21.028 1.778.735 2.681-8.953 2.834-30.414.171-23.897-.208-26.075-9.418-54.159-2.796-8.528-4.934-15.629-4.75-15.779.184-.15 6.184 1.451 13.334 3.559 17.358 5.117 22.827 6.431 37 8.89 21.96 3.81 33.119 7.771 52 18.457 7.722 4.37 16.826 8.314 21.023 9.107 2.809.53 5.325-3.343 2.75-4.233-8.518-2.943-18.165-7.291-26.273-11.842-16.633-9.335-25.339-12.087-57-18.017-4.675-.876-14.8-3.425-22.5-5.664-7.7-2.24-15.575-4.5-17.5-5.023-2.814-.764-4.157-2.088-6.852-6.759-4.565-7.91-8.235-9.513-14.724-6.434-3.375 1.602-3.383 1.599-6.152-1.725-20.694-24.844-43.66-49.878-45.754-49.875-1.298.002-5.557 3.927-11.936 11C548.126 621.051 543.477 626 543.25 626c-.384 0-9.134-6.852-10.25-8.026-.275-.29-4.1-3.397-8.5-6.907l-8-6.38v-34.482l9.5-4.693c8.656-4.276 27.264-14.551 39.265-21.681 2.621-1.557 5.004-2.831 5.296-2.831.292 0 3.788-1.525 7.769-3.389C590.273 532.02 630.793 520 637.699 520c1.462 0 1.801-.829 1.801-4.404 0-4.274-.177-4.522-6-8.384-8.395-5.568-9.399-6.009-19.49-8.553l-8.975-2.263 8.732-4.565c13.751-7.188 39.715-24.103 48.233-31.422 1.375-1.181 8.8-7.552 16.5-14.157 37.033-31.766 49.418-48.024 70.344-92.335 2.23-4.721 5.012-11.021 6.183-14 1.171-2.98 2.815-6.992 3.653-8.917 8.859-20.345 9.846-24.381 6.248-25.523-2.184-.693-2.412-.542-11.706 7.73-18.819 16.749-39.259 27.322-74.001 38.279-9.464 2.985-42.163 11.498-44.199 11.507-2.648.012 15.17-16.896 27.978-26.55 6.875-5.182 13.4-10.139 14.5-11.016 1.765-1.407 21.973-14.822 31.5-20.91 4.818-3.079 17.719-10.593 22.35-13.017 10.628-5.562 4.944-10.283-16.35-13.581-15.789-2.446-56.279 1.543-89 8.769-9.843 2.173-42.938 11.647-48.242 13.809-1.966.802-1.839 1.088-4.229-9.497-2.085-9.24-7.953-25.128-11.15-30.192-1.308-2.072-2.379-4.052-2.379-4.399 0-.971-14.543-22.522-17.484-25.909-20.085-23.132-47.362-35.639-78.266-35.886-12.333-.099-14.25-.329-14.25-1.71 0-3.432-6.337-18.866-12.627-30.754-14.91-28.183-26.7-41.583-56.873-64.638-19.866-15.18-52.008-33.176-57.012-31.92-1.577.396-5.737-.775-12.27-3.454C268.03 44.428 240.6 39.003 194.25 39.001c-24.31-.001-26.421.574-17.688 4.817 22.344 10.855 52.043 34.116 58.05 45.465.81 1.53 1.915 2.509 2.455 2.175.541-.333.893-.236.783.218-.283 1.173 2.326 6.324 3.204 6.324 1.292 0 2.014 3.213.997 4.438-.684.825.436 3.294 3.684 8.123C257.134 127.512 277 163.816 277 167.698c0 .81-4.691-1.113-12.25-5.024-10.55-5.457-16.06-8.786-29.494-17.817-1.344-.904-7.202-6.079-13.017-11.5-5.815-5.421-11.312-9.765-12.215-9.653-1.492.186-8.28-6.622-25.024-25.098a579.215 579.215 0 0 0-10.75-11.49c-2.887-2.981-5.25-5.689-5.249-6.018 0-.329-1.315-1.948-2.923-3.598s-4.709-5.025-6.891-7.5a1876 1876 0 0 0-9.431-10.582C144.816 53.918 137 42.083 137 40.101c0-.435-.967-1.648-2.148-2.696l-2.148-1.905.616 8m51.093-1.64c.388.627 1.466 1.139 2.396 1.139 12.317-.01 52.933 14.252 67.691 23.769 35.273 22.745 75.293 78.399 100.978 140.426 6.597 15.929 7.141 16.867 11.901 20.497 5.465 4.167 21.316 19.574 29.221 28.402 6.508 7.268 13.759 11.684 16.056 9.777 3.469-2.879.771-25.876-5.558-47.364-5.228-17.756-2.37-13.022 6.727 11.137 8.088 21.482 8.292 23.385 4.052 37.83-1.857 6.327-3.607 11.509-3.887 11.516-.281.006-4.781-5.029-10-11.189-27.407-32.346-40.999-43.159-90.99-72.385-3.025-1.768-11.575-6.785-19-11.148-7.425-4.364-20.25-11.435-28.5-15.715-25.781-13.374-35.055-20.053-53.502-38.53-15.118-15.143-64.572-69.795-68.717-75.939-.897-1.33-1.239 1.04-.371 2.57.577 1.016 5.154 10.622 10.172 21.347 24.963 53.361 53.349 96.152 81.644 123.076 16.522 15.722 31.404 26.526 61.024 44.3 6.188 3.714 11.25 6.974 11.25 7.247 0 .272-.337.292-.75.044l-15.25-9.17c-45.397-27.293-69.776-49.997-96.336-89.713-14.067-21.036-24.659-39.123-34.276-58.534-7.715-15.571-10.446-20.431-8.709-15.5 2.125 6.031 20.697 48.252 26.74 60.79 32.467 67.359 87.719 141.618 133.383 179.264 7.645 6.303 7.538 6.312-9.254.73-27.02-8.982-48.061-17.801-61.548-25.799-10.703-6.346-43.827-28.747-64.75-43.789-5.395-3.878-5.371-2.654.091 4.705 36.024 48.534 48.655 64.743 54.042 69.349 4.78 4.086 19.364 13.651 26.222 17.197 3.513 1.817 6.389 3.633 6.391 4.036.006 1.165-15.644-7.892-24.246-14.031-6.471-4.618-6.007-2.402.712 3.398 3.004 2.593 5.184 5.164 4.845 5.712-.346.56-.112.686.533.287.631-.39 2.613.397 4.404 1.751 6.103 4.612 38.148 19.306 46.256 21.211 1.65.387 4.964 1.579 7.365 2.649l4.364 1.944 2.705-2.591c1.488-1.425 2.966-2.33 3.285-2.01.32.319.514-.079.431-.885-.202-1.971 14.287-16.825 15.613-16.005.646.399.743.156.254-.635-1.268-2.052 16.675-18.371 24.654-22.425 8.983-4.564 23.041-7.117 34.173-6.206 4.486.367 9.484.766 11.107.885l2.951.218 12.606-37.5c13.486-40.116 13.953-41.264 20.596-50.649 7.033-9.935 11.329-12.758 20.088-13.201 17.491-.883 36.978 7.537 51.936 22.441 5.484 5.463 18.641 25.165 17.759 26.592-.416.674-.248.849.42.436.671-.414 1.959.963 3.228 3.45 2.269 4.446 2.225 4.441-5.226-.637-13.964-9.516-24.459-10.96-43.559-5.991-21.174 5.508-33.348 12.237-48.25 26.669-9.26 8.968-24.688 31.129-22.714 32.625.668.507 3.271 2.095 5.784 3.53 2.514 1.435 5.776 4.349 7.25 6.476 3.374 4.867 3.521 7.876.186 3.795l-2.422-2.964-8.292 3.334c-19.82 7.97-49.304 23.391-52.818 27.626-.712.857-1.996 1.29-2.854.961-.857-.329-1.239-.278-.847.114.392.391-3.245 4.803-8.081 9.802-25.088 25.935-32.952 49.354-28.732 85.563.842 7.231 1.798 14.357 2.123 15.837.325 1.48-1.431-1.504-3.903-6.632-5.17-10.728-6.204-12.108-5.295-7.072 2.634 14.588 18.343 58.773 18.628 52.395.091-2.044.704-.681 1.922 4.278 2.255 9.18 3.06 9.999 3.084 3.139.01-2.98.915-12.167 2.011-20.417 1.095-8.25 2.451-18.6 3.012-23 3.506-27.488 8.884-35.932 43.97-69.028 33.234-31.349 39.698-35.759 45.165-30.811 1.01.913 2.144 1.352 2.52.975.377-.377-2.524-3.826-6.447-7.665-3.924-3.838-6.303-6.534-5.287-5.991 2.406 1.288 9.602 8.426 11.658 11.565.885 1.35 2.033 2.455 2.55 2.455 1.487 0 4.581-7.888 5.892-15.02 1.319-7.177-1.006-13.841-7.704-22.081-2.755-3.39-2.756-3.392-.154-1.062 1.435 1.285 4.027 4.998 5.761 8.25 4.184 7.85 5.366 7.631 4.516-.837-.749-7.464-3.302-12.386-9.399-18.12-1.971-1.854-2.683-2.889-1.583-2.302 1.1.588 3.975 3.107 6.389 5.597 4.551 4.695 7.7 6.388 9.16 4.924 1.078-1.079 3.951-12.031 3.951-15.059 0-4.904 1.917-1.973 2.2 3.364.298 5.618.325 5.662 4.3 7.012 2.2.747 4.619 1.585 5.376 1.863.913.335.004 1.5-2.698 3.457-4.928 3.57-6.159 5.662-5.466 9.289.791 4.135 1.46 4.074 8.883-.801 18.452-12.12 46.549-14.311 57.72-4.502l3.288 2.886 13.948-6.326c7.672-3.48 23.849-10.15 35.949-14.823 12.1-4.673 28.482-11.272 36.405-14.663 16.642-7.125 21.159-8.378 37.699-10.46 6.657-.838 13.367-2.005 14.911-2.592 4.113-1.563 25.732-6.992 27.485-6.901.825.042-3.675 1.403-10 3.023-32.234 8.258-50.479 16.87-72 33.987-3.025 2.406-5.8 4.38-6.167 4.386-.366.006-1.041.421-1.5.921-.484.529-.309.609.417.191 2.36-1.358 1.241.47-4.25 6.943-7.592 8.949-6.897 10.258 1.25 2.354 13.044-12.655 27.78-22.996 42.806-30.037 9.073-4.252 19.515-8.124 20.162-7.476.215.215-1.612 1.072-4.059 1.906-7.792 2.655-27.118 16.45-41.917 29.921-4.403 4.008-8.43 7.164-8.949 7.013-.518-.151-.652.194-.298.768.355.573-1.136 3.065-3.313 5.538C588.623 369.07 578.12 391.714 570.03 424c-2.209 8.817-4.671 17.599-5.472 19.515-2.227 5.33-.487 4.191 5.372-3.515 2.927-3.85 5.441-7 5.586-7 .146 0-.964 3.038-2.467 6.75-6.904 17.054-4.72 15.754 8.602-5.12 12.398-19.426 14.613-23.032 25.305-41.173 13.309-22.583 35.111-49.77 38.321-47.786.567.351.75.182.406-.375-1.788-2.893 45.227-36.13 75.535-53.399 8.59-4.894 9.602-6.258 4.032-5.432-2.463.366-3.087.269-1.816-.282 5.507-2.387-10.889-4.607-28.369-3.84-38.442 1.686-68.623 7.43-110.366 21.005-10.834 3.523-19.699 5.988-19.699 5.477 0-.511 1.35-1.4 3-1.975 3.519-1.227 3.605-1.995 1.413-12.642-4.303-20.896-18.88-47.971-35.122-65.236C513.99 207.391 482.107 196.433 450 200c-4.234.47-4.481.365-4.181-1.788.921-6.599-11.413-33.717-24.022-52.813C392.041 100.333 315.108 56.273 244.5 43.858c-13.35-2.347-61.288-3.942-60.087-1.998m-11.849 59.433c.376.986.935 1.541 1.243 1.233.308-.307.001-1.114-.683-1.793-.988-.98-1.102-.865-.56.56M360 115.741c0 .628.402 1.389.893 1.693 5.374 3.321 46.979 64.528 52.562 77.326 1.022 2.343 2.052 4.067 2.289 3.83 2.186-2.186-22.9-41.192-46.042-71.59-9.589-12.595-9.702-12.726-9.702-11.259m38 34.759c1.292 1.375 2.574 2.5 2.849 2.5.275 0-.557-1.125-1.849-2.5-1.292-1.375-2.574-2.5-2.849-2.5-.275 0 .557 1.125 1.849 2.5m3 3.878c0 .207.788.995 1.75 1.75 1.586 1.243 1.621 1.208.378-.378-1.307-1.666-2.128-2.195-2.128-1.372m-188 10c0 .207.787.995 1.75 1.75 1.586 1.243 1.621 1.208.378-.378-1.307-1.666-2.128-2.195-2.128-1.372m4.5 5.622c.995 1.1 2.035 2 2.31 2 .275 0-.315-.9-1.31-2-.995-1.1-2.035-2-2.31-2-.275 0 .315.9 1.31 2m4 5c.995 1.1 2.035 2 2.31 2 .275 0-.315-.9-1.31-2-.995-1.1-2.035-2-2.31-2-.275 0 .315.9 1.31 2m5 6c.995 1.1 2.035 2 2.31 2 .275 0-.315-.9-1.31-2-.995-1.1-2.035-2-2.31-2-.275 0 .315.9 1.31 2m13 14c5.479 5.5 10.187 10 10.462 10 .275 0-3.983-4.5-9.462-10-5.479-5.5-10.187-10-10.462-10-.275 0 3.983 4.5 9.462 10m177.113 7c.389 1.375 1.495 5.425 2.457 9 .962 3.575 1.79 5.89 1.84 5.144.13-1.96-2.922-13.376-4.049-15.144-.676-1.061-.749-.768-.248 1M253.5 208c.995 1.1 2.035 2 2.31 2 .275 0-.315-.9-1.31-2-.995-1.1-2.035-2-2.31-2-.275 0 .315.9 1.31 2m3.5 2.378c0 .207.788.995 1.75 1.75 1.586 1.243 1.621 1.208.378-.378-1.307-1.666-2.128-2.195-2.128-1.372m164.079 9.205c.048 1.165.285 1.402.604.605.289-.722.253-1.585-.079-1.917-.332-.332-.568.258-.525 1.312M270 219.43c0 .275.9.981 2 1.57 1.1.589 2 .845 2 .57s-.9-.981-2-1.57c-1.1-.589-2-.845-2-.57m152.195 5.07c.02 1.65.244 2.204.498 1.231.254-.973.237-2.323-.037-3-.274-.677-.481.119-.461 1.769M87 229.586c24.55 13.46 35.24 20.217 34.325 21.697-.368.595-.142.722.538.302.661-.409 2.863.614 5.049 2.345 5.87 4.649 5.796 3.74-.293-3.595-3.043-3.666-5.258-7.111-4.921-7.655.336-.544.151-.705-.412-.357-.562.348-3.444-1.097-6.404-3.211-7.506-5.359-14.477-8.716-23.023-11.084-10.815-2.997-12.299-2.521-4.859 1.558m336.176-.086c-.033 1.1.312 3.8.767 6 .695 3.363.826 3.522.824 1-.004-3.503-1.498-10.075-1.591-7m-113.875 24.857c2.398 1.915 34.412 18.713 42.949 22.536 11.724 5.251 7.319 2.442-7.5-4.783-7.837-3.82-19.425-9.702-25.75-13.069-6.325-3.367-10.689-5.475-9.699-4.684M370.5 276c.995 1.1 2.035 2 2.31 2 .275 0-.315-.9-1.31-2-.995-1.1-2.035-2-2.31-2-.275 0 .315.9 1.31 2m5 4c.995 1.1 2.035 2 2.31 2 .275 0-.315-.9-1.31-2-.995-1.1-2.035-2-2.31-2-.275 0 .315.9 1.31 2m7.5 6.5c1.866 1.925 3.617 3.5 3.892 3.5.275 0-1.026-1.575-2.892-3.5-1.866-1.925-3.617-3.5-3.892-3.5-.275 0 1.026 1.575 2.892 3.5m-273.964.811c.805.721 5.358 4.559 10.118 8.527 14.015 11.685 24.441 23.798 63.757 74.069 11.467 14.662 21.249 22.253 44.774 34.746 8.605 4.57 12.726 5.709 8.06 2.228-1.515-1.13-2.458-2.536-2.096-3.123.363-.587.206-.786-.349-.443-2.047 1.264-26.672-22.19-39.498-37.621-9.732-11.708-34.41-38.126-40.816-43.694-17.842-15.509-23.456-20.873-23.153-22.124.184-.757 0-1.042-.407-.635-.408.408-2.583-.754-4.834-2.581-8.037-6.527-21.315-14.506-15.556-9.349m608.714.351c.688.278 1.813.278 2.5 0 .688-.277.125-.504-1.25-.504s-1.937.227-1.25.504m-13.744 2.118c-4.122.857-7.035 1.71-6.473 1.898.561.187 5.058-.519 9.994-1.569 4.935-1.05 7.848-1.904 6.473-1.897-1.375.006-5.872.712-9.994 1.568M394 296.5c2.987 3.025 5.657 5.5 5.932 5.5.275 0-1.945-2.475-4.932-5.5s-5.657-5.5-5.932-5.5c-.275 0 1.945 2.475 4.932 5.5m318-4c-2.475.717-3.6 1.313-2.5 1.325 1.1.012 3.8-.572 6-1.297 5.179-1.707 2.372-1.729-3.5-.028m-18.187.183c.721.289 1.584.253 1.916-.079.332-.332-.258-.568-1.312-.525-1.165.048-1.402.285-.604.604m4.89 3.036c-3.189.836-5.601 1.716-5.361 1.956.449.449 12.828-2.527 13.575-3.264.739-.729-2.278-.249-8.214 1.308M687.5 299c-1.261.542-1.445.859-.5.859.825 0 2.4-.386 3.5-.859 1.261-.542 1.445-.859.5-.859-.825 0-2.4.386-3.5.859m-7 2c-1.261.542-1.445.859-.5.859.825 0 2.4-.386 3.5-.859 1.261-.542 1.445-.859.5-.859-.825 0-2.4.386-3.5.859m-8.5 2.5c-1.925.741-2.825 1.348-2 1.348.825 0 3.075-.607 5-1.348 1.925-.741 2.825-1.348 2-1.348-.825 0-3.075.607-5 1.348m-7.5 2.5c-1.319.567-1.489.878-.5.914.825.031 2.175-.381 3-.914 1.828-1.181.249-1.181-2.5 0m82.283 18.385c-20.213 16.755-69.271 35.475-114.653 43.75l-7.37 1.343-4.289 6.011c-6.421 9-22.507 36.511-21.348 36.511.87 0 16.188-8.747 25.377-14.492 5.89-3.682.74.525-16.5 13.477-18.567 13.949-20.351 15.688-14.868 14.49 29.671-6.484 98.158-37.332 112.342-50.6 13.514-12.641 53.489-58.506 50.374-57.796-.191.044-4.271 3.332-9.065 7.306m7.3-2.666c-12.33 16.744-46.255 53.276-59.522 64.095-3.835 3.127-15.225 13.665-25.312 23.417-18.565 17.949-30.405 28.147-48.996 42.204-16.934 12.803-15.214 12.5 6.624-1.167 21.971-13.751 40.388-26.684 69.623-48.895 10.741-8.16 40.766-44.78 51.204-62.449.963-1.63 2.229-2.78 2.814-2.555.874.335 8.482-16.428 8.482-18.689 0-1.69-1.768-.238-4.917 4.039M387.5 322.75c-16.642 6.472-30.111 13.977-37.669 20.992-1.66 1.541-3.171 2.186-4 1.707-.732-.423-1.005-.409-.606.032.399.441-2.815 4.541-7.141 9.111-17.957 18.971-28.617 40.242-29.236 58.34-.329 9.611.483 11.053 2.18 3.872 2.299-9.729 8.078-25.21 12.619-33.804 5.266-9.967 14.251-22.181 15.671-21.303.545.337.705.149.355-.417-.909-1.472 15.528-16.964 23.847-22.476 7.579-5.022 13.48-7.631 25.98-11.485 4.4-1.357 9.125-2.83 10.5-3.274l2.5-.807-2.815-1.119c-3.686-1.465-7.272-1.28-12.185.631m353.787 27c-13.281 19.097-28.736 37.935-41.672 50.794-21.216 21.091-62.097 51.918-89.547 67.526-5.155 2.931-8.92 5.479-8.366 5.664 1.85.617 32.689-10.863 41.302-15.375 4.678-2.45 12.328-7.174 17-10.498l8.496-6.043-5.5 5.719c-3.025 3.146-8.766 8.884-12.757 12.751-3.991 3.867-7.062 7.226-6.824 7.464.709.709 19.048-13.59 34.581-26.964 30.778-26.499 44.891-44.297 60.495-76.288 14.806-30.355 15.24-32.647 2.792-14.75M78 341.555c0 2.423 15.347 19.182 20.945 22.871 9.172 6.046 38.204 17.626 39.987 15.95 1.615-1.519-6.815-7.347-13.494-9.33-11.167-3.315-33.901-17.491-42.972-26.796-2.988-3.065-4.466-3.957-4.466-2.695m409 1.166c-4.132.741-4.762 2.275-.95 2.314 1.897.02 4.575.679 5.95 1.465 2.446 1.398 2.403 1.43-2.022 1.465-9.822.077-24.458 6.143-21.439 8.886.528.481 4.053 1.629 7.833 2.553 15.807 3.863 26.573 14.69 37.714 37.926 3.556 7.417 4.613 11.281 8.656 31.67l.893 4.5 2.145-7c2.707-8.833 4.59-27.725 3.234-32.452-1.632-5.691-.442-4.486 1.892 1.915 5.54 15.192 5.087 45.899-.965 65.493-1.122 3.631-2.425 6.363-2.897 6.071-.472-.291-.64.303-.374 1.32.493 1.884-8.375 15.987-13.451 21.393-5.692 6.06-.919 3.324 7.898-4.529 20.789-18.514 27.619-29.599 33.373-54.167 4.727-20.18 4.162-27.534-3.215-41.793-2.063-3.988-3.697-7.796-3.631-8.462.067-.666-.237-1.116-.673-1-.437.116-3.35-3.592-6.474-8.239-10.204-15.182-18.426-23.91-25.997-27.596-4.912-2.392-18.912-3.274-27.5-1.733m13.432 7.765c10.832 4.453 23.531 14.672 32.947 26.514 1.572 1.976 2.279 2.486 1.625 1.172-3.883-7.805-25.707-25.961-34.903-29.036-5.998-2.005-5.793-1.167.331 1.35M618 360.396c-7.264 5.972-11.002 11.985-28.033 45.104-12.346 24.008-10.071 21.152 3.984-5 14.078-26.197 18.516-33.084 25.78-40.008 7.271-6.931 6.627-6.966-1.731-.096m-209.75 5.293c.962.252 2.538.252 3.5 0 .962-.251.175-.457-1.75-.457s-2.712.206-1.75.457m-5.5.973c.688.278 1.813.278 2.5 0 .688-.277.125-.504-1.25-.504s-1.937.227-1.25.504m12.063.021c.721.289 1.584.253 1.916-.079.332-.332-.258-.568-1.312-.525-1.165.048-1.402.285-.604.604M397 368c-1.828 1.181-.249 1.181 2.5 0 1.319-.567 1.489-.878.5-.914-.825-.031-2.175.381-3 .914m-8.554 3.467c-13.145 6.556-47.606 39.597-52.921 50.74-1.545 3.24-1.542 3.254.202.828 7.181-9.985 11.712-15.119 23.431-26.546 15.04-14.666 22.458-20.621 30.682-24.63 3.113-1.518 5.186-2.782 4.606-2.809-.579-.028-3.279 1.06-6 2.417M537.08 383c1.458 3.061 1.92 3.628 1.92 2.358 0-.537-.7-1.849-1.555-2.917-1.467-1.83-1.487-1.798-.365.559m3.413 7.5c.858 3.457 4.614 12.132 4.06 9.376-.29-1.443-1.434-4.593-2.542-7-1.108-2.407-1.791-3.476-1.518-2.376m-115.531 9.962c-13.415 1.953-17.387 4.73-26.62 18.614-3.714 5.586-19.556 45.352-23.462 58.897l-1.866 6.472 4.323 4.528c7.968 8.343 15.851 21.741 16.953 28.812.148.943.653 2.39 1.123 3.215.47.825-3.923-3.21-9.763-8.966-11.79-11.622-11.554-11.582-14.745-2.503-2.175 6.187-2.402 21.249-.37 24.517.497.798.784 2.373.639 3.498-.203 1.579.832 2.543 4.531 4.221 2.637 1.196 3.846 1.953 2.686 1.681-1.198-.28-2.654.165-3.372 1.029-.695.838-1.996 1.494-2.891 1.46-1.102-.043-.901-.356.622-.968 2.427-.976 3.034-2.871 1-3.126-.687-.086-3.05-.198-5.25-.25-3.476-.081-4.197-.51-5.5-3.279-1.409-2.993-5.627-6.021-6.78-4.868-.286.287.681 2.891 2.149 5.788 1.964 3.873 2.142 4.605.674 2.766-1.097-1.375-2.602-4.3-3.344-6.5-1.404-4.169-6.431-7.072-15.595-9.006l-3.396-.717.535 6.658c.697 8.684-.42 8.202-6.181-2.669l-4.562-8.608-7-2.031c-8.73-2.533-16.892-3.742-16.378-2.426 1.678 4.291 12 20.042 16.247 24.791l5.26 5.881 14.436.184c13.674.174 24.14 1.559 42.291 5.597 5.729 1.275 5.898 1.251 7.827-1.132 1.876-2.316 1.886-2.499.203-3.729-2.195-1.605-1.378-1.65 2.299-.127 3.78 1.566 4.598 1.59 6.065.179 1.572-1.512 1.648-3.709.095-2.75-.715.443-.883.275-.44-.44.392-.635 1.376-1.155 2.185-1.155.81 0 1.746-.713 2.081-1.584.826-2.155 2.293.133 2.314 3.611.018 3.018 2.576 6.973 4.509 6.973 1.015 0 1.251-.992.891-3.75l-.489-3.75 1.504 3.25c1.121 2.423 2.152 3.25 4.052 3.25 3.004 0 3.003.003.961-4.782-1.837-4.306-2.521-8.403-1.272-7.631.472.292.859 1.171.859 1.952 0 2.41 7.329.991 13.705-2.653 3.187-1.822 10.52-7.134 16.295-11.805 11.465-9.273 11.364-9.185 31.142-27.3 7.503-6.873 15.504-13.798 17.78-15.389l4.138-2.892-.604-6c-3.748-37.29-5.662-41.422-31.37-67.75l-8.544-8.75-12.021.11c-6.612.06-15.863.668-20.559 1.352M545.17 404c.051 2.598 1.625 6.866 1.66 4.5.016-1.1-.357-2.9-.83-4-.527-1.225-.848-1.419-.83-.5m2.623 17c.261 5.775.639 10.688.841 10.917.663.755.145-15.352-.593-18.417-.397-1.65-.509 1.725-.248 7.5M578 428c-1.122 2.2-1.816 4-1.541 4 .275 0 1.419-1.8 2.541-4 1.122-2.2 1.816-4 1.541-4-.275 0-1.419 1.8-2.541 4m-247.051 2.62c-2.359 5.501-4.41 13.252-3.697 13.965.279.28.828-1.198 1.219-3.282.391-2.085 1.764-6.381 3.05-9.547 2.776-6.832 2.286-7.805-.572-1.136m-284.821 1.262a901.923 901.923 0 0 1 4.823 6.75c1.898 2.677 6.651 8.918 10.562 13.868 3.911 4.95 11.331 14.625 16.488 21.5 10.083 13.443 23.236 28.493 25.74 29.454 1.776.682 2.214 1.317-6.853-9.954-8.564-10.647-15.368-19.811-29.362-39.552-7.964-11.233-13.232-17.637-16.614-20.198-5.499-4.164-6.839-4.687-4.784-1.868m510.648.118c-.296.825-1.981 6.076-3.744 11.669-3.445 10.93-8.285 20.034-14.282 26.866-2.062 2.35-3.75 4.97-3.75 5.823 0 6.361-10.531 24.668-13.231 22.999-.593-.366-.797-.212-.454.343s-.488 2.053-1.846 3.329c-3.443 3.235-3.081 4.314.68 2.026 10.111-6.148 27.863-25.872 32.901-36.555 4.836-10.255 7.111-26.213 4.989-35-.472-1.955-.912-2.477-1.263-1.5m-9.618 3c0 1.375.227 1.938.504 1.25.278-.687.278-1.812 0-2.5-.277-.687-.504-.125-.504 1.25m-1.079 4.583c.048 1.165.285 1.402.604.605.289-.722.253-1.585-.079-1.917-.332-.332-.568.258-.525 1.312m-1 4c.048 1.165.285 1.402.604.605.289-.722.253-1.585-.079-1.917-.332-.332-.568.258-.525 1.312M326.158 448c0 1.375.227 1.938.504 1.25.278-.687.278-1.812 0-2.5-.277-.687-.504-.125-.504 1.25m216.509 3.667c-.894 3.14-1.451 5.883-1.238 6.095.212.213 1.129-2.17 2.038-5.295.908-3.125 1.465-5.868 1.238-6.096-.228-.227-1.145 2.156-2.038 5.296M325.252 455.5c.011 2.2.216 2.982.455 1.738.239-1.244.23-3.044-.02-4s-.446.062-.435 2.262m214.372 5.039c-.343.893-.595 2.15-.561 2.793.035.642.495.09 1.022-1.227.527-1.318.779-2.574.56-2.793-.219-.219-.679.333-1.021 1.227M324.272 465c0 2.475.195 3.488.434 2.25.238-1.238.238-3.262 0-4.5-.239-1.238-.434-.225-.434 2.25m-27.938 7.762c-4.797 6.488-5.624 9.278-4.987 16.818.558 6.604 5.998 34.56 8.617 44.287 1.707 6.337 2.957 4.908 1.414-1.617-5.005-21.173-6.309-38.393-3.914-51.695 1.942-10.782 1.801-11.757-1.13-7.793M325.3 479c0 3.025.187 4.262.416 2.75.229-1.512.229-3.988 0-5.5s-.416-.275-.416 2.75m102.761 7c-14.586 12.81-13.951 11.873-16.239 23.933-2.191 11.551-1.976 11.905 2.025 3.33 4.132-8.854 6.956-12.996 16.969-24.887 7.315-8.686 10.882-13.459 9.969-13.338-.157.021-5.883 4.953-12.724 10.962m115.971.746c-5.711 8.953-5.254 11.312 1.134 5.844 4.335-3.711 8.701-4.548 9.59-1.839.257.782-.167 1.029-1.133.658-.983-.377-3.27 1.037-6.286 3.887l-4.742 4.48 1.769 3.923c1.136 2.519 1.629 5.513 1.377 8.362l-.392 4.439-.174-4.816c-.358-9.867-4.464-10.994-8.809-2.419-2.82 5.563-2.641 10.89.424 12.677 1.609.938 1.608.999-.017 1.028-.95.016-2.464-1.095-3.365-2.47-2.21-3.373-2.797-3.182-4.96 1.615-1.948 4.32-.747 6.885 3.224 6.885 2.233 0 2.511 4.392.636 10.048L530.5 544.5l-5 .518c-6.38.661-7.026 1.113-10.019 7.02-4.938 9.745-2.42 14.658 4.616 9.004 3.102-2.493 4.3-2.957 5.36-2.078 1.36 1.129 3.61.034 26.043-12.682 23.265-13.188 43.515-21.091 70.24-27.413 7.832-1.853 14.244-3.654 14.25-4.002.022-1.35-12.888-8.944-17.568-10.334-2.715-.807-9.498-2.365-15.073-3.464-5.575-1.099-10.552-2.127-11.06-2.284-.508-.157-4.719.944-9.357 2.446-4.637 1.502-10.57 3.288-13.182 3.968-7.561 1.97-5.656 2.571 8.223 2.594 7.135.012 14.898.357 17.25.767 4.646.808 4.686.798-21.986 5.488-3.994.703-7.785 1.908-8.424 2.678-.955 1.15-.731 1.304 1.262.859 4.623-1.03 18.237-2.606 18.681-2.162.245.245-1.512.967-3.905 1.604-13.574 3.614-21.523 8.955-38.532 25.892-9.07 9.031-16.468 15.649-16.832 15.059-.824-1.333 18.512-21.096 19.839-20.277.541.335.708.163.372-.381-.336-.544 1.202-3.402 3.418-6.352 11.702-15.574 15.8-34.659 10.138-47.218-2.046-4.538-2.323-4.75-6.211-4.75-3.984 0-4.174.163-9.011 7.746m-53.532 1.427c-3.3 2.801-10.725 9.435-16.5 14.741-28.362 26.06-43.154 37.366-54.051 41.311-1.083.392-1.164.829-.324 1.725 2.208 2.355 28.008-12.978 52.806-31.381 4.912-3.645 12.674-9.171 17.25-12.279l8.319-5.651v-6.819c0-8.12.099-8.099-7.5-1.647M326.252 489.5c.011 2.2.216 2.982.455 1.738.239-1.244.23-3.044-.02-4s-.446.062-.435 2.262m187.851 5.059c-4.619 4.103-9.054 7.344-9.857 7.201-1.029-.183-1.985 1.738-3.241 6.518-1.553 5.91-10.348 25.203-11.933 26.174-.314.194-7.68 2.002-16.368 4.019-16.571 3.847-32.239 8.664-34.041 10.466-3.45 3.45 8.176 4.522 17.075 1.575 3.304-1.094 6.259-1.469 8-1.016 2.269.59.238 1.403-11.373 4.552-17.261 4.682-21.737 6.718-27.359 12.445l-4.365 4.448-3.373-2.084c-1.855-1.147-3.49-1.921-3.632-1.721-.457.642 1.128 25.226 1.88 29.164l.725 3.8-7.27-4.3c-10.079-5.961-10.068-5.93-5.766-16.733 1.985-4.987 3.206-9.067 2.713-9.067-.493 0-3.76 1.146-7.26 2.547l-6.363 2.547-7.361-2.92-7.36-2.921 3.463-.756c5.046-1.101 13.963-5.215 13.963-6.442 0-1.315-.625-1.326-3.004-.053-1.629.872-1.849.652-1.685-1.68.176-2.501-.318-2.844-7.298-5.054-11.617-3.679-14.803-3.831-24.462-1.166-10.04 2.77-10.643 3.668-2.801 4.172 4.009.258 3.248.368-2.515.363-10.36-.009-10.624.256-10.59 10.604.029 9.021 3.429 20.363 9.599 32.024 4.87 9.204 28.251 30.997 41.256 38.454 29.702 17.031 34.277 17.269 49.142 2.551 12.296-12.174 50.213-52.661 53.452-57.074 2.765-3.768 28.407-77.792 27.371-79.016-.149-.176-2.097.612-4.328 1.75-7.251 3.7-8.176 1.894-2.703-5.276 5.068-6.639 9.056-15.746 6.835-15.605-.423.026-4.548 3.406-9.166 7.51M327.232 497c0 1.925.206 2.712.457 1.75.252-.962.252-2.538 0-3.5-.251-.962-.457-.175-.457 1.75m176.351-1.134c-.431.697-.513 1.537-.183 1.867.895.895 1.871-.421 1.387-1.871-.338-1.016-.574-1.016-1.204.004m51.727 5.634c.005 3.3.192 4.529.415 2.732.222-1.797.218-4.497-.01-6-.229-1.503-.411-.032-.405 3.268m-66.889 2.726c-22.455 15.518-26.1 18.598-25.65 21.668.737 5.023-5.728 13.242-10.271 13.058-.55-.022.679-.927 2.732-2.011 4.034-2.13 6.768-6.327 6.768-10.391 0-3-.275-3.071-3.561-.918-1.692 1.108-2.305 2.214-1.913 3.449 1.011 3.185-3.109 6.238-7.603 5.636-4.404-.591-7.509 1.598-4.859 3.425 1.044.719.785.805-.95.313-2.608-.739-17.083 6.119-17.103 8.104-.05 4.927 3.065 4.908 14.489-.09 5.011-2.193 22.487-7.143 35.091-9.941 7.49-1.662 12.403-3.271 13.241-4.335 3.153-4.005 9.462-18.024 11.24-24.973 2.376-9.29 2.371-10.331-.033-7.449-1.856 2.226-1.901 2.231-2.217.226-.287-1.824-1.302-1.368-9.401 4.229M328.173 503c-.032 1.375.315 4.3.77 6.5.53 2.566.848 3.104.884 1.5.032-1.375-.315-4.3-.77-6.5-.53-2.566-.848-3.104-.884-1.5m225.906 7.583c.048 1.165.285 1.402.604.605.289-.722.253-1.585-.079-1.917-.332-.332-.568.258-.525 1.312m-303.008 1.373c-1.02.631-.856.978.697 1.47 3.724 1.182 13.657 8.142 19.982 14 3.438 3.184 6.25 5.498 6.25 5.142 0-1.264-4.266-9.119-6.754-12.435-3.691-4.92-16.829-10.245-20.175-8.177m302.008 2.627c.048 1.165.285 1.402.604.605.289-.722.253-1.585-.079-1.917-.332-.332-.568.258-.525 1.312m34.734.1c.721.289 1.584.253 1.916-.079.332-.332-.258-.568-1.312-.525-1.165.048-1.402.285-.604.604m-44.832 6.996c-2.248 5.839-2.243 6.145.037 2.001 1.156-2.101 1.952-4.271 1.768-4.821-.183-.55-.995.719-1.805 2.82M373 536.47c0 .989 15.322 7.492 18.822 7.987 3.355.476 3.283.403-.822-.825-2.475-.741-7.392-2.761-10.927-4.49-6.76-3.305-7.073-3.423-7.073-2.672m74.813 3.213c.721.289 1.584.253 1.916-.079.332-.332-.258-.568-1.312-.525-1.165.048-1.402.285-.604.604M383 545.5c1.375.786 2.95 1.429 3.5 1.429.55 0-.125-.643-1.5-1.429s-2.95-1.429-3.5-1.429c-.55 0 .125.643 1.5 1.429m-17.731.193c.973.254 2.323.237 3-.037.677-.274-.119-.481-1.769-.461-1.65.02-2.204.244-1.231.498m103 2c.973.254 2.323.237 3-.037.677-.274-.119-.481-1.769-.461-1.65.02-2.204.244-1.231.498m-.456 1.99c.721.289 1.584.253 1.916-.079.332-.332-.258-.568-1.312-.525-1.165.048-1.402.285-.604.604m-243.998 13.926c-10.735 2.85-14.501 4.407-20.554 8.497-5.997 4.053-5.701 3.788-5.003 4.485.325.325 3.437-.978 6.916-2.896 3.48-1.918 11.501-4.96 17.826-6.761 6.325-1.8 11.867-3.587 12.316-3.97 2.066-1.763-3.635-1.443-11.501.645m279.883 8.52c-3.728 10.816-7.436 16.345-19.365 28.871-5.499 5.775-14.822 15.9-20.718 22.5-5.895 6.6-11.145 12-11.667 12-.521 0-1 .45-1.064 1-.141 1.216-3.305 4.909-15.592 18.194-15.262 16.501-19.12 17.311-39.981 8.393-6.446-2.756-11.897-4.835-12.112-4.62-.48.481 28.771 35.494 34.301 41.057 6.101 6.137 12.667 8.894 17.322 7.272 13.396-4.668 36.731-42.17 59.297-95.296 5.339-12.571 4.813-9.54-1.667 9.608-7.635 22.56-21.812 50.69-36.942 73.298-1.069 1.598-1.509 2.7-.977 2.449 16.846-7.949 18.295-8.886 21.062-13.61 3.758-6.416 11.657-17.327 12.171-16.812.229.228-1.879 3.446-4.683 7.15-2.804 3.705-4.846 6.987-4.538 7.296.308.308 1.772-1.001 3.251-2.909 1.48-1.909 4.218-5.045 6.084-6.97 3.972-4.098 2.198-1.582-5.63 7.985-4.532 5.539-5.343 7.661-2.5 6.538 14.928-5.894 34.334-10.825 53.25-13.53 8.525-1.218 15.851-2.728 16.281-3.354.429-.627.527-5.864.218-11.639-1.01-18.893-.928-18.625-7.837-25.431-7.549-7.435-27.516-23.048-28.376-22.188-.507.506-2.999 18.555-3.227 23.369-.032.688-.421 1.25-.863 1.25-.443 0-.176-4.837.593-10.75 2.348-18.067 2.197-56.047-.23-57.827-2.846-2.087-2.819-2.118-5.861 6.706M291 573.313c0 1.519 4.722 6.122 7.153 6.972 1.565.547 5.903-1.693 4.845-2.503a461.99 461.99 0 0 1-3.825-3.082c-3.49-2.833-8.173-3.628-8.173-1.387m207.624 25.226c-.343.893-.595 2.15-.561 2.793.035.642.495.09 1.022-1.227.527-1.318.779-2.574.56-2.793-.219-.219-.679.333-1.021 1.227m-70.124 1.544c-2.571.725-2.411.78 1.125.389 3.11-.344 4.834.059 7 1.634l2.875 2.089-2.806-2.597c-2.974-2.754-3.473-2.847-8.194-1.515m-6.75 1.579c.688.278 1.813.278 2.5 0 .688-.277.125-.504-1.25-.504s-1.937.227-1.25.504m-18.481 1.031c.973.254 2.323.237 3-.037.677-.274-.119-.481-1.769-.461-1.65.02-2.204.244-1.231.498m13.481-.031c.688.278 1.813.278 2.5 0 .688-.277.125-.504-1.25-.504s-1.937.227-1.25.504m-18.345 2.588-1.905 2.25 2.25-1.905c2.114-1.79 2.705-2.595 1.905-2.595-.19 0-1.202 1.013-2.25 2.25m2.345 9.726c-4.538 3.58-3.351 6.706 3.95 10.403 4.451 2.254 6.376 2.064 14.87-1.472 8.917-3.713 8.941-3.816 1.741-7.458-7.755-3.924-16.647-4.561-20.561-1.473m-63.698 14.85c-.028.73 2.14 5.455 4.819 10.5 12.098 22.787 17.115 29.685 31.592 43.434l9.5 9.022 8.268 1.524c4.548.839 8.371 1.423 8.496 1.3.124-.124-5.276-4.811-12-10.416-16.682-13.903-18.928-16.056-18.116-17.369.404-.654.253-.855-.358-.477-1.721 1.063-18.239-18.672-30.451-36.382-.933-1.354-1.721-1.865-1.75-1.136m73.784 42.38c.735.939 1.085 2.112.778 2.609-.306.496 2.786 4.144 6.873 8.106 6.835 6.628 7.727 7.18 11.144 6.892 5.016-.423 5.301-2.287.677-4.422-4.892-2.258-11.647-6.824-16.769-11.334-2.221-1.956-3.438-2.789-2.703-1.851M530 673.964c-17.671 2.738-32.329 6.653-50.758 13.556-15.658 5.866-24.034 10.837-16.363 9.711 5.249-.77 17.279 1.779 28.021 5.937 5.83 2.256 12.625 4.432 15.1 4.834 2.475.402 3.825.809 3 .904-.919.107-.418.761 1.292 1.688 1.536.833 3.786 1.243 5 .912 1.635-.445 1.819-.357.708.342-.825.519-6.675 1.673-13 2.564-19.667 2.773-27.198 5.433-36.326 12.831l-2.826 2.29 1.741 9.984c.958 5.49 1.854 10.133 1.993 10.316.623.826 42.517-8.283 55.152-11.992 8.466-2.485 10.146-4.545 13.211-16.208 3.41-12.974 3.398-12.449.307-12.917l-2.752-.416 2.781-.15c3.372-.182 3.154.378 6.108-15.676 1.318-7.164 3.097-14.701 3.953-16.75l1.556-3.724-3.199.091c-1.759.05-8.374.892-14.699 1.873m98 17.888c0 .984.856 5.807 1.902 10.719 8.011 37.599 9.707 71.328 5.077 100.929-.516 3.3-1.135 7.476-1.376 9.281l-.438 3.28 3.167-1.91c1.743-1.051 5.918-3.368 9.28-5.148l6.111-3.237-1.294-6.633c-.711-3.648-3.574-17.309-6.361-30.356-2.787-13.048-5.068-25.109-5.068-26.802 0-1.692-1.607-12.392-3.572-23.776l-4.121-23.888c-.596-3.465-3.307-5.48-3.307-2.459m-272.525 1.188c-.281.455 6.162 5.354 14.318 10.886 8.157 5.531 18.353 12.986 22.659 16.565 4.305 3.58 8.467 6.509 9.247 6.509.781 0 1.181.385.891.855-.58.939 3.031 4.569 5.41 5.439 2.69.983-2.24.766-6-.264-10.425-2.858-58.801-7.565-65.967-6.419-3.39.542-3.835.891-3.038 2.38.514.961.613 2.102.22 2.538-.393.435-.226.513.372.173.599-.341 2.827 1.162 4.953 3.339 2.126 2.178 4.632 3.959 5.568 3.959.936 0 13.031 2.257 26.877 5.017 29.233 5.825 59.532 9.866 61.231 8.167 2.018-2.018 1.42-28.687-.811-36.183-2.277-7.65-2.474-7.777-22.731-14.63-18.573-6.284-51.297-11.408-53.199-8.331m178.287 11.667c1.244.239 3.044.23 4-.02s-.062-.446-2.262-.435c-2.2.011-2.982.216-1.738.455m-9.012.955c.688.278 1.813.278 2.5 0 .688-.277.125-.504-1.25-.504s-1.937.227-1.25.504m-5.937 1.021c.721.289 1.584.253 1.916-.079.332-.332-.258-.568-1.312-.525-1.165.048-1.402.285-.604.604m-6 1c.721.289 1.584.253 1.916-.079.332-.332-.258-.568-1.312-.525-1.165.048-1.402.285-.604.604m14.937 1.979c.688.278 1.813.278 2.5 0 .688-.277.125-.504-1.25-.504s-1.937.227-1.25.504m-7 1c.688.278 1.813.278 2.5 0 .688-.277.125-.504-1.25-.504s-1.937.227-1.25.504m-113.937 18.021c.721.289 1.584.253 1.916-.079.332-.332-.258-.568-1.312-.525-1.165.048-1.402.285-.604.604m8 6c.721.289 1.584.253 1.916-.079.332-.332-.258-.568-1.312-.525-1.165.048-1.402.285-.604.604M331 742.04c0 1.562 3.908 9.032 6.614 12.643 2.591 3.457 3.051 4.846 1.231 3.722-.721-.446-.882-.274-.43.457.398.644 1.108.933 1.577.643.47-.291 6.333 6.115 13.028 14.233 15.55 18.856 15.446 18.788 25.623 16.75 8.113-1.625 35.163-10.588 64.857-21.49 9.35-3.432 18.688-6.729 20.75-7.326 6.729-1.947 3.987-2.672-10.11-2.672-26.579 0-52.527-3.424-79.732-10.522-13.009-3.394-36.575-7.478-43.152-7.478-.141 0-.256.468-.256 1.04m179.301 11.648c-1.052 2.811-15.931 13.658-17.448 12.721-.693-.428-.893-.283-.497.359.835 1.35-13.36 11.405-15.158 10.738-.716-.266-1.057-.087-.759.396.761 1.23-4.247 4.335-5.622 3.485-.649-.401-.85-.25-.474.359.915 1.481-15.238 9.625-26.189 13.204-22.514 7.357-54.002 10.689-72.45 7.667-12.959-2.123-10.732-.03 7.796 7.328 19.697 7.822 24.497 8.628 60.075 10.092 37.093 1.526 50.727-.181 57.11-7.151 2.783-3.04 6.255-15.06 10.853-37.579 2-9.794 4.006-18.522 4.458-19.396.451-.875.435-2.214-.036-2.976-.675-1.092-1.028-.932-1.659.753M336 802.436c0 .239 1.913 2.537 4.25 5.106 2.337 2.568 4.25 5.184 4.25 5.814 0 .629.551 1.144 1.224 1.144 1.883 0 9.248 6.736 8.568 7.836-.33.535-.158.7.382.365.541-.334 2.523.648 4.405 2.183 1.881 1.535 5.76 4.388 8.618 6.34 2.858 1.952 5.017 3.728 4.798 3.948-.22.22.366.456 1.303.526.936.07 5.524 1.543 10.196 3.275 22.411 8.307 68.063 12.467 79.506 7.245 6.76-3.084 17.583-10.467 17.17-11.712-.185-.553-4.123-1.094-8.753-1.202-34.994-.817-46.38-1.838-76.417-6.853-28.896-4.825-37.568-8.259-53.888-21.336-3.536-2.834-5.612-3.825-5.612-2.679" fill-rule="evenodd"/>
</svg>