<!DOCTYPE svg PUBLIC "-//W3C//DTD SVG 1.1//EN" "http://www.w3.org/Graphics/SVG/1.1/DTD/svg11.dtd">
<svg xmlns="http://www.w3.org/2000/svg" viewBox="0 0 736 234">
<path fill="#fbfaf9" stroke="#fbfaf9" d="M0 117c0 77.333.339 117 1 117s1-39.667 1-117S1.661 0 1 0 0 39.667 0 117m262.667-76.34c-.092.089-10.967.482-24.167.875-13.2.393-24.382.938-24.849 1.21-.467.272-6.767.909-14 1.414A15746.4 15746.4 0 0 0 179 45.614c-4.125.295-7.928.952-8.45 1.461-.523.509-2.858.925-5.191.925-2.333 0-4.502.422-4.82.937-.319.515-2.258.94-4.309.943-2.052.003-7.105.748-11.23 1.654-4.125.907-9.187 1.88-11.25 2.163-2.063.282-3.75.916-3.75 1.408 0 .492-1.12.895-2.489.895-1.369 0-4.857.9-7.75 1.999-2.894 1.1-6.055 2-7.025 2-.97.001-2.657.451-3.75 1.001l-3.972 2c-1.093.55-2.668 1-3.5 1-.833 0-1.514.45-1.514 1s-.661 1-1.47 1c-.808 0-3.072.9-5.03 2-1.958 1.1-4.222 2-5.03 2-.809 0-1.47.488-1.47 1.083 0 .596-.522.91-1.161.697-.638-.213-2.278.65-3.646 1.916C80.826 74.963 78.874 76 77.854 76c-1.02 0-1.854.45-1.854 1s-.659 1-1.465 1c-.805 0-1.946.9-2.535 2-.589 1.1-1.557 2-2.153 2-1.417 0-9.421 8.052-9.097 9.152.138.466-.425.848-1.25.848-.839 0-1.5.892-1.5 2.025 0 1.253-.978 2.396-2.567 3.001-1.9.722-2.412 1.466-1.968 2.863.337 1.063-.26 3.357-1.368 5.25-1.764 3.016-2.295 5.932-3.492 19.183-.413 4.569 1.881 17.353 3.453 19.247.613.739.781 1.883.374 2.542-.469.758-.317.936.413.484.73-.451 1.155.044 1.155 1.346 0 1.132.448 2.059.995 2.059.547 0 1.935 2.001 3.085 4.446 1.149 2.445 3.514 5.541 5.255 6.879 1.741 1.339 4.598 3.814 6.35 5.501 3.087 2.973 6.572 5.128 16.2 10.018 2.538 1.289 5.29 2.896 6.115 3.572.825.676 3.412 1.831 5.75 2.566 2.338.736 4.25 1.607 4.25 1.935 0 .707 7.308 3.083 9.484 3.083.834 0 1.516.45 1.516 1s1.8 1 4 1 4 .418 4 .929c0 .511 2.588 1.433 5.75 2.048 9.853 1.918 15.673 3.239 17.75 4.029 1.1.419 5.6 1.325 10 2.014 4.4.689 9.125 1.456 10.5 1.705 9.179 1.66 40.736 4.899 57 5.85 4.675.273 35.626.75 68.779 1.059 63.091.589 63.221.582 63.221-3.634 0-3.578-2.184-3.904-29.049-4.345-23.696-.389-40.787-1.106-50.951-2.139-8.244-.837-24.541-3.781-25-4.516-.275-.44-3.2-1.007-6.5-1.26-8.152-.625-28.5-5.593-28.5-6.958 0-.43-1.098-.782-2.441-.782-1.343 0-2.719-.45-3.059-1-.34-.55-1.814-1-3.276-1-4.182 0-11.222-3.06-11.239-4.886-.014-1.399-.141-1.416-.959-.122-.751 1.188-1.196 1.238-2.184.25-.683-.683-2.052-1.242-3.042-1.242-.99 0-1.8-.45-1.8-1s-.927-1-2.059-1c-1.132 0-1.781-.45-1.441-1 .361-.583-.656-1-2.441-1-1.682 0-3.059-.473-3.059-1.051s-1.575-1.709-3.5-2.513c-1.925-.805-3.5-1.893-3.5-2.418 0-.525-.591-.728-1.313-.451-.722.277-2.142-.412-3.155-1.532-1.013-1.119-2.431-2.035-3.152-2.035-1.608 0-3.579-3.439-2.595-4.529.393-.435.233-.518-.356-.183-1.245.708-7.951-3.099-7.048-4.002.333-.334-.264-1.216-1.327-1.96-4.175-2.925-10.637-12.849-11.948-18.351-1.994-8.364-.39-21.503 2.999-24.57 1.042-.943 1.895-2.26 1.895-2.925 0-2.539 4.225-6.654 6.28-6.117 1.507.394 1.723.24.864-.619-1.561-1.561-1.437-2.744.289-2.744.788 0 1.709-.872 2.047-1.937.338-1.066 1.911-2.511 3.495-3.212 1.585-.702 2.665-1.625 2.401-2.052-.264-.427.218-.508 1.072-.181 1.006.386 1.552.03 1.552-1.011 0-.956.835-1.607 2.059-1.607 1.132 0 1.825-.378 1.54-.84-.531-.858 8.039-5.16 10.28-5.16.681 0 1.011-.368.733-.819-.278-.45 2.733-2.293 6.691-4.096 3.958-1.802 8.038-3.721 9.066-4.264 5.64-2.977 35.445-11.468 50.631-14.424 27.976-5.445 48.166-7.309 81.5-7.525 13.75-.089 26.012-.535 27.25-.992 2.744-1.013 3.072-5.279.5-6.49-1.376-.648-88.926-1.361-89.583-.73M389 41c-3.094.442-3.536.877-3.813 3.75-.247 2.56.071 3.271 1.5 3.35.997.054 13.288.263 27.313.462 24.662.351 54.339 2.528 61.166 4.486 1.826.523 4.78.952 6.563.952 3.458 0 5.335.364 23.271 4.517 15.39 3.563 21.951 5.422 25.25 7.153 1.513.794 2.75 1.217 2.75.94 0-1.535 26.744 9.674 28.598 11.987.604.753 2.155 1.53 3.447 1.728 1.292.197 2.523.879 2.736 1.517.212.637 1.196 1.158 2.186 1.158s2.036.902 2.324 2.004c.341 1.305 1.062 1.798 2.065 1.413.947-.363 2.705.599 4.559 2.496 1.66 1.698 3.311 3.087 3.67 3.087.845 0 6.378 6.269 6.399 7.25.009.412.579.756 1.266.764 3.053.036 10.643 16.975 10.708 23.898.052 5.482-2.79 14.818-5.455 17.918-1.102 1.282-2.042 2.632-2.089 3-.297 2.303-1.874 4.208-3.095 3.739-.816-.313-1.153-.109-.789.48.561.907-6.694 8.951-8.073 8.951-.297 0-1.507.9-2.687 2-1.181 1.1-2.976 2-3.99 2-1.013 0-2.107.688-2.429 1.529-.323.841-2.639 2.463-5.146 3.605-2.508 1.143-5.187 2.705-5.954 3.472-.766.767-2.262 1.394-3.322 1.394-1.061 0-1.929.394-1.929.875s-1.296 1.134-2.879 1.451c-1.584.317-3.577 1.273-4.429 2.125-.852.852-2.749 1.549-4.216 1.549s-3.971.928-5.565 2.063c-1.593 1.135-3.27 1.833-3.726 1.551-.456-.281-2.085.14-3.621.937S527.735 184 526.469 184c-1.266 0-2.452.424-2.636.943-.183.519-2.583 1.448-5.333 2.065-2.75.616-7.7 1.811-11 2.654s-8.25 1.906-11 2.362c-2.75.457-7.025 1.278-9.5 1.826-2.475.547-7.2 1.305-10.5 1.684s-6.359.903-6.797 1.165c-1.92 1.149-26.521 2.587-54.203 3.17l-30 .631v7H440c48.382 0 76.94-.642 91-2.047 2.475-.247 9.225-.897 15-1.444 20.129-1.908 27.566-2.901 37.5-5.008 5.5-1.167 11.125-2.335 12.5-2.595 8.263-1.565 13.157-2.851 13.606-3.577.281-.456 1.639-.829 3.016-.829 4.704 0 24.799-7.343 36.23-13.24 2.943-1.518 5.943-2.76 6.666-2.76.724 0 1.465-.364 1.649-.808.353-.856 9.338-7.192 10.2-7.192 1.229 0 12.301-11.825 13.874-14.817 1.071-2.04 2.188-3.036 2.904-2.593.698.431.895.285.493-.366-.369-.597-.206-1.373.362-1.724s.779-1.048.47-1.548c-.309-.501-.059-1.852.557-3.002 4.964-9.275 4.868-33.552-.156-39.605-.705-.85-1.178-2.902-1.051-4.561.167-2.196-.142-2.875-1.135-2.494-.797.306-2.077-.684-3.081-2.383-.944-1.599-1.42-2.907-1.058-2.907.363 0-.8-1.237-2.584-2.75-1.783-1.513-4.161-3.762-5.283-5-1.122-1.237-2.522-2.25-3.113-2.25-.59 0-2.347-1.35-3.904-3s-3.656-3-4.663-3c-1.008 0-1.982-.367-2.166-.816-.329-.806-17.112-9.202-25.833-12.924-2.475-1.056-7.072-2.515-10.215-3.242-3.144-.726-5.55-1.59-5.348-1.919.203-.33-1.26-.719-3.251-.865-1.99-.147-4.061-.709-4.602-1.25-.541-.541-2.667-.984-4.725-.984s-3.982-.39-4.277-.867c-.295-.477-2.684-1.185-5.309-1.572a990.967 990.967 0 0 1-10.773-1.67c-3.3-.531-8.025-1.217-10.5-1.525-2.475-.308-4.927-.966-5.45-1.463-.522-.497-4.01-.903-7.75-.903s-6.8-.396-6.8-.88c0-.483-4.388-.947-9.75-1.029-5.362-.083-12.45-.566-15.75-1.074C514.194 40.968 400.787 39.316 389 41m303.742 2.085c-.967.563-2.204.747-2.75.41-.546-.337-.992.089-.992.946S688.55 46 688 46s-.918.337-.818.75c.1.413-.316 2.446-.925 4.519C683.484 60.715 690.136 69 700.494 69c12.704 0 17.745-19.605 6.492-25.248-3.826-1.919-11.479-2.278-14.244-.667m-1.558 9.193c-1.391 1.677-.396 5.722 1.408 5.722.992 0 1.191-.875.739-3.25-.77-4.048-.805-4.088-2.147-2.472m14.568 3.222c-.329 1.65-.19 3.42.308 3.933 1.549 1.596 2.093-.063 1.172-3.573l-.882-3.36-.598 3m-7.454 3.131c.347.348.207 1.426-.312 2.395-1.145 2.14.899 4.281 2.903 3.043 1.269-.785-1.057-6.069-2.671-6.069-.303 0-.267.284.08.631M169.441 85.555c-1.864 1.494-1.852 1.512.309.465 1.238-.6 2.25-1.3 2.25-1.555 0-.765-.519-.544-2.559 1.09m187.159-.822c-.339.339-4.924.513-10.19.387-6.191-.148-10.075.187-10.992.948-2.159 1.791-2.106 78.116.055 79.91 2.024 1.68 22.986 1.716 25.002.042.855-.709 1.483-2.962 1.496-5.371.02-3.604.508-9.327.9-10.552.071-.222 1.056.678 2.19 2 1.133 1.322 2.896 3.377 3.919 4.567 1.022 1.191 1.659 2.363 1.416 2.606-.243.243 1.256 2.177 3.331 4.298l3.773 3.857 15.601.037c15.021.037 15.594-.036 15.378-1.962-.123-1.1-.281-2.814-.351-3.809-.071-.995-.53-1.561-1.021-1.257-.492.304-1.175-.57-1.519-1.941-.345-1.371-1.262-2.493-2.04-2.493-.777 0-1.665-.787-1.972-1.75-.308-.963-2.588-3.925-5.068-6.584-2.479-2.659-4.508-5.471-4.508-6.25 0-.779-.45-1.416-1-1.416s-1-.927-1-2.059c0-1.132-.45-1.781-1-1.441-1.514.936-1.203-.39.786-3.346.982-1.46 2.404-3.884 3.16-5.387.756-1.503 2.202-3.622 3.214-4.708 1.012-1.087 1.84-2.669 1.84-3.517 0-.848.366-1.542.813-1.542.448 0 1.44-1.597 2.206-3.548 1.704-4.344 3.87-6.461 3.864-3.778-.038 16.548 1.101 38.399 2.128 40.826.699 1.65 1.861 4.374 2.583 6.053.722 1.679 2.234 3.886 3.359 4.905 1.126 1.018 2.047 2.401 2.047 3.072 0 .671 1.38 1.496 3.066 1.833 2.092.419 2.836 1.015 2.34 1.875-.4.694-.372.942.061.552.433-.391 2.36-.054 4.282.75 5.291 2.21 15.841 1.849 21.251-.727 2.475-1.179 4.8-2.181 5.167-2.228.366-.047 1.004-.422 1.416-.835.978-.977 3.676-.977 3.071 0-.954 1.544 22.315.709 23.881-.857 1.772-1.771 2.314-51.529.611-56.009-.806-2.121-1.839-2.707-5.705-3.237-6.863-.941-14.928-.793-17.876.328l-2.565.975v14.442c0 10.617-.331 14.575-1.25 14.946-.984.397-.986.521-.01.583.9.057.829.56-.258 1.829-.824.963-1.382 2.007-1.24 2.321.679 1.504-3.683 4.11-7.31 4.368-3.886.277-6.932-1.266-6.932-3.51 0-.511-.627-.929-1.393-.929-2.325 0-2.849-2.852-3.491-19l-.616-15.5-7-.904c-4.412-.57-9.218-.535-13 .094-3.678.613-11.031.691-19 .202-17.214-1.056-23.5.941-23.5 7.466 0 .785-.63 1.67-1.399 1.965-.77.295-1.93 2.143-2.578 4.107-2.568 7.781-3.883 1.559-3.146-14.885.482-10.734-.661-18.929-2.827-20.282-1.009-.63-2.111-.868-2.45-.53m-181.35 1.298c-2.163.87-2.249 1.377-2.235 13.187.009 6.755.356 12.818.773 13.472.497.783 4.521 1.255 11.734 1.379 6.038.103 11.541.403 12.228.666.953.365 1.25 6.355 1.25 25.25 0 20.05.268 24.992 1.405 25.936 1.505 1.249 24.646 1.784 26.54.613.695-.43 1.055-9.305 1.055-26.014v-25.361l2.75-.54c1.512-.297 6.641-.513 11.397-.48 9.879.07 13.248-.669 12.457-2.729-.298-.776-.218-1.409.177-1.408 1.125.003.213-22.304-.97-23.73-1.265-1.524-74.808-1.749-78.561-.241m328.5-.236c-1.713.21-2.795.973-2.869 2.021-.066.926-.205 3.934-.31 6.684-.105 2.75-.276 6.579-.381 8.51l-.19 3.509-6.149.084c-7.884.107-8.839 1.293-8.696 10.805.15 10.042.585 10.592 8.38 10.592 6.008 0 6.472.159 6.565 2.25.391 8.754.901 15.645 1.328 17.949.648 3.489 6.645 15.801 7.696 15.801.444 0 2.335 1.342 4.203 2.982 4.192 3.681 15.016 6.461 21.663 5.565 11.598-1.564 13.93-2.549 20.676-8.727 3.246-2.973 8.334-11.963 8.334-14.726 0-.51.539-1.107 1.197-1.326.88-.294.937-1.311.213-3.834l-.985-3.434h-26.843l-.651 3.181c-.684 3.347-3.004 6.319-4.931 6.319-2.856 0-4.042-3.058-4.341-11.195-.361-9.844.268-10.805 7.07-10.805 6.701 0 7.271-.88 7.271-11.225 0-10.055-.638-10.775-9.546-10.775-5.294 0-5.962-1.469-5.21-11.453.264-3.506.109-6.976-.345-7.711-.793-1.283-15.717-1.954-23.149-1.041m-227.736 19.261c-1.367.58-3.279.846-4.25.593-.97-.254-1.764-.09-1.764.365 0 .455-1.35 1.124-3 1.486-1.65.362-3 1.1-3 1.638 0 .539-.363.755-.808.481-.444-.275-1.632.599-2.64 1.941-1.008 1.342-2.519 2.44-3.359 2.44-.839 0-1.261.266-.936.59.325.325-.05 2.407-.833 4.626-1.819 5.154-1.79 6.275.212 8.277 1.156 1.156 1.947 1.324 2.7.571 1.737-1.737 7.717-1.366 7.026.436-.317.825-1.09 1.502-1.719 1.505-.629.002-2.605 1.375-4.393 3.05-1.788 1.676-3.25 2.484-3.25 1.796 0-2.729-1.72.9-2.832 5.975-1.416 6.459-1.502 13.165-.212 16.558.946 2.49 6.676 8.616 8.057 8.616.395 0 1.974.989 3.511 2.197 3.25 2.557 4.128 2.752 15.571 3.459 7.578.469 9.354.233 15-1.99 5.551-2.185 8.07-2.536 18.897-2.636 6.871-.063 12.857-.479 13.303-.925.447-.447.675-11.182.508-23.857l-.303-23.045-5-4.701c-2.75-2.586-5.469-4.781-6.041-4.88-.573-.098-2.823-1.245-5-2.549-4.507-2.699-30.365-4.171-35.445-2.017M291.5 125c.34.55 1.24 1 2 1s1.66-.45 2-1c.352-.569-.509-1-2-1s-2.352.431-2 1m-5.917 20.75c-.412.412-1.162.806-1.666.875-.504.069-1.353.181-1.886.25-.532.069-.699.826-.371 1.682.339.883 1.247 1.309 2.096.983.824-.316 2.003-.172 2.621.319.618.491 3.598.555 6.623.142 3.025-.413 5.798-.58 6.162-.371 1.345.771.147-2.822-1.232-3.695-1.729-1.094-11.294-1.237-12.347-.185" fill-rule="evenodd"/>
<path fill="#e19797" stroke="#e19797" d="M.484 117c0 64.625.119 91.063.266 58.75.146-32.312.146-85.187 0-117.5C.603 25.938.484 52.375.484 117M232 42.65c-37.086 2.473-54.146 4.213-73 7.447C88.893 62.12 51.763 86.466 50.208 121.43 48.48 160.278 84.727 185.688 160 198.395c37.593 6.346 64.63 7.963 134.5 8.04l58 .065v-5l-30.5-.622c-57.409-1.172-97.177-8.311-134.702-24.183-62.196-26.307-68.032-69.494-13.298-98.4 13.856-7.317 35.928-15.834 47.395-18.288a207.235 207.235 0 0 0 8.105-1.94c27.485-7.294 68.463-11.033 121.25-11.066C352.483 47 353 46.426 353 44.5V42l-58.25.175c-32.038.096-60.275.309-62.75.475m154 1.85c0 2.064.48 2.498 2.75 2.486 52.106-.271 91.287 3.622 125.511 12.47 97.507 25.209 117.257 79.119 42.03 114.719-36.48 17.263-79.295 25.436-138.988 26.532-32.661.599-33.239.689-31.611 4.933.866 2.256 110.66 1.395 141.808-1.112 111.891-9.007 168.504-39.891 160.621-87.624-5.929-35.906-43.587-56.716-125.621-69.419-24.071-3.728-62.197-5.455-120.75-5.47L386 42v2.5m307.304-.544c-4.326 2.638-6.577 6.355-6.577 10.863 0 11.566 12.096 17.368 20.701 9.929 11.481-9.924-1.238-28.649-14.124-20.792m1.952 2.026c-1.234.522-3.145 2.427-4.246 4.233-5.874 9.634 6.212 19.518 14.913 12.196 8.351-7.027-.535-20.713-10.667-16.429m-1.05 9.268c.297 7.33 2.03 9.989 2.607 4 .403-4.174 1.483-4.108 4.054.25 2.873 4.868 5.23 5.001 3.029.171-.879-1.928-.762-2.946.571-4.98 2.753-4.201.689-6.691-5.546-6.691h-5.009l.294 7.25M697 52c0 .55 1.125 1 2.5 1s2.5-.45 2.5-1-1.125-1-2.5-1-2.5.45-2.5 1M174.667 86.667c-.367.366-.667 6.441-.667 13.5V113h25.967l.266 26.25.267 26.25h26l.5-26 .5-26 12.69-.279 12.69-.28.31-11.22c.17-6.172.166-12.234-.01-13.471l-.319-2.25h-38.764c-21.32 0-39.064.3-39.43.667m160.802.554c-.271.706-.375 18.608-.231 39.782l.262 38.497h24.891l-.272-10.144c-.314-11.677.525-13.03 4.396-7.09 1.517 2.329 4.99 7.271 7.716 10.984l4.958 6.75h15.406c8.473 0 15.405-.38 15.405-.844 0-.464-4.725-6.834-10.5-14.156-5.775-7.322-10.5-13.91-10.5-14.641 0-.731 3.6-7.248 8-14.482 4.4-7.234 8-13.316 8-13.515 0-.199-6.535-.362-14.522-.362h-14.522l-2.728 4.464c-1.5 2.455-4.266 7.179-6.146 10.498-1.88 3.32-3.68 5.774-4 5.456-.32-.319-.807-9.881-1.082-21.249l-.5-20.669-11.769-.282c-8.871-.212-11.891.035-12.262 1.003m167.229-.585c-.384.383-.698 5.347-.698 11.031V108h-15v18.912l7.25.294 7.25.294.558 11c.809 15.93 5.118 24.256 15.442 29.838 6.479 3.502 24.263 3.183 30.613-.55 8.219-4.832 14.355-13.63 15.542-22.285l.617-4.503h-26.016l-.637 3.983c-.873 5.458-4.491 7.986-8.072 5.64-2.976-1.95-3.762-5.614-3.353-15.623l.306-7.5 6.998-.5c6.69-.478 6.994-.61 6.922-3-.042-1.375-.153-5.537-.248-9.25L540 108h-13.932l-.284-10.75-.284-10.75-11.052-.281c-6.079-.154-11.367.033-11.75.417M278.5 105.649c-12.177 2.536-18.702 6.381-21.58 12.719-3.346 7.369-3.193 7.522 7.83 7.846l9.75.286-5.391 1.998c-17.286 6.407-21.556 24-8.589 35.386 9.545 8.38 27.943 9.296 38.66 1.923 1.673-1.151 2.916-1.461 3.309-.825.37.599 5.546 1.018 12.57 1.018H327v-20.54c0-24.854-1.265-28.544-12.068-35.2-6.744-4.155-26.572-6.665-36.432-4.611m128.678 23.101c.313 20.164.398 20.905 3.007 26.25 8.113 16.615 27.261 21.234 41.523 10.015 2.275-1.789 2.696-1.844 3.692-.482.921 1.259 3.2 1.485 12.612 1.252l11.488-.285.152-24.5c.083-13.475-.091-26.412-.386-28.75l-.538-4.25H455v14.935c0 21.375-2.58 25.999-14 25.087-7.351-.587-10-7.38-10-25.644V108h-24.145l.323 20.75M286 123.703l-3.5 1.624 6.5.788c3.575.433 7.992 1.061 9.816 1.394 3.052.558 3.233.451 2.271-1.346-2.107-3.938-9.356-5.12-15.087-2.46m-5.139 22.232c-2.244 1.84-2.275 2.023-.623 3.702 3.799 3.863 21.762 2.58 21.762-1.554 0-4.259-16.517-5.937-21.139-2.148" fill-rule="evenodd"/>
<path fill="#e81b1c" stroke="#e81b1c" d="M.484 117c0 64.625.119 91.063.266 58.75.146-32.312.146-85.187 0-117.5C.603 25.938.484 52.375.484 117M240.5 43.19C112.842 47.192 43.223 79.705 51.014 131.682c4.149 27.677 31.531 47.847 81.835 60.283 42.976 10.623 84.017 14.033 168.901 14.034 48.288.001 50.25-.071 50.25-1.855 0-1.754-1.643-1.889-29.75-2.44-60.569-1.187-104.663-9.802-141.75-27.696-69.526-33.545-57.575-82.462 27-110.508 35-11.606 93.521-18.853 135.77-16.813 6.378.308 7.877.093 8.373-1.199.332-.866.387-1.792.121-2.057-.796-.797-87.563-.984-111.264-.241m147.118-.356c-.96.186-1.595 1.048-1.424 1.934.271 1.407 3.38 1.635 25.807 1.895 97.335 1.127 169.891 25.817 187.707 63.876 18.34 39.178-47.841 81.039-140.708 88.999-4.125.354-8.625.851-10 1.105s-16.113.73-32.75 1.057c-28.567.562-30.25.698-30.25 2.447 0 3.336 106.061 2.51 150-1.168 103.437-8.656 157.945-39.48 151.306-85.56C681.399 76.417 626.347 51.975 523 44.47c-19.235-1.397-129.706-2.732-135.382-1.636m307.382.87c-2.843 1.034-6.904 5.584-7.531 8.437-3.403 15.496 19.416 21.141 23.541 5.823 2.458-9.13-6.988-17.543-16.01-14.26m.096 1.511c-8.107 4.333-8.463 15.119-.637 19.333 10.305 5.549 20.65-7.849 12.791-16.567-3.171-3.518-8.484-4.727-12.154-2.766m.064 10.48c.088 3.743.342 5.343.563 3.555.525-4.23 3.216-4.316 5.659-.181 2.153 3.645 3.208 3.321 1.487-.457-1.028-2.257-.944-2.837.572-3.945 3.366-2.461 1.559-5.134-3.7-5.472L695 48.89l.16 6.805M696 52c0 1.619.667 2 3.5 2s3.5-.381 3.5-2-.667-2-3.5-2-3.5.381-3.5 2M175 99.5V112h26v53h24.967l.266-26.25.267-26.25 13.25-.279 13.25-.279V87h-78v12.5m161 26.468V165h23.938l.281-12.062.281-12.061 8.083 11.811 8.083 11.812 15.658.275 15.658.276-10.991-13.697C390.946 143.82 386 137.092 386 136.402c0-.69 2.25-4.921 5-9.402 2.75-4.481 5-8.316 5-8.523 0-.207 1.35-2.377 3-4.822 1.65-2.445 3-4.632 3-4.861 0-.229-6.174-.388-13.719-.355l-13.719.061-5.031 8.526c-2.767 4.689-6.029 9.864-7.249 11.5l-2.219 2.974-.079-2.5c-.044-1.375-.185-11.275-.313-22l-.234-19.5-11.718-.282L336 86.937v39.031m166.667-38.301c-.367.366-.667 5.071-.667 10.454v9.788l-6.75.295-6.75.296-.289 8.75-.289 8.75h13.816l.518 10.25c1.198 23.688 10.097 33.761 29.81 33.74 17.58-.018 26.131-7.026 31.442-25.77l.646-2.281-12.827.281-12.827.28-.334 3c-.774 6.967-7.686 8.976-11.177 3.25-1.617-2.652-1.982-5.045-1.985-13L525 126h15.078l-.289-8.75-.289-8.75-7.25-.294-7.25-.294V87h-10.833c-5.959 0-11.134.3-11.5.667M277.5 106.506c-.55.192-3.525 1.051-6.611 1.909C262.96 110.62 256 117.407 256 122.934c0 1.986.516 2.065 13.25 2.034 10.064-.024 13.717-.385 15.191-1.5 3.456-2.614 13.168-1.95 16.227 1.109 3.314 3.314 2.025 4.506-3.668 3.391-7.1-1.39-20.157-1.11-25.753.551-20.322 6.035-23.475 26.945-5.728 37.981 7.574 4.71 23.69 4.534 31.538-.345 3.14-1.951 5.532-2.888 5.745-2.25.236.708 4.402 1.095 11.781 1.095H326v-20.662c0-20.168-.059-20.763-2.47-24.876-2.954-5.042-10.365-10.067-17.744-12.031-4.672-1.244-25.423-1.922-28.286-.925m130.679 22.803.321 21.191 3.377 6.227c7.916 14.597 25.408 18.116 39.067 7.859 3.949-2.964 5.056-3.202 5.056-1.086 0 1.246 1.946 1.5 11.516 1.5h11.515l-.265-28.25-.266-28.25h-22L456 124c-.639 19.802-3.398 25-13.269 25-9.14 0-12.679-7.413-12.709-26.624L430 108.252l-11.071-.067-11.07-.067.32 21.191m-127.873 16.132-2.806 2.441 2.245 2.276c4.777 4.843 23.255 3.059 23.255-2.246 0-5.163-17.42-7.059-22.694-2.471" fill-rule="evenodd"/>
</svg>