<?xml version="1.0" encoding="UTF-8"?>
<!DOCTYPE svg PUBLIC "-//W3C//DTD SVG 1.1//EN" "http://www.w3.org/Graphics/SVG/1.1/DTD/svg11.dtd">
<!-- Creator: CorelDRAW Standard 2021 (64-Bit Versión de evaluación) -->
<svg xmlns="http://www.w3.org/2000/svg" xml:space="preserve" width="39.844mm" height="40.6398mm" version="1.1" style="shape-rendering:geometricPrecision; text-rendering:geometricPrecision; image-rendering:optimizeQuality; fill-rule:evenodd; clip-rule:evenodd"
viewBox="0 0 3984.4 4063.98"
 xmlns:xlink="http://www.w3.org/1999/xlink"
 xmlns:xodm="http://www.corel.com/coreldraw/odm/2003">
 <defs>
  <style type="text/css">
   <![CDATA[
    .str0 {stroke:black;stroke-width:50;stroke-miterlimit:22.9256}
    .str1 {stroke:black;stroke-width:16.93;stroke-miterlimit:22.9256}
    .fil0 {fill:black}
    .fil3 {fill:black}
    .fil2 {fill:#015C8B}
    .fil1 {fill:#F27A23}
   ]]>
  </style>
 </defs>
 <g id="Capa_x0020_1">
  <metadata id="CorelCorpID_0Corel-Layer"/>
  <g id="_2586286261648">
   <path class="fil0" d="M3669.51 2338.81c0,-933.14 -756.45,-1689.57 -1689.58,-1689.57 -933.13,0 -1689.58,756.43 -1689.58,1689.57 0,933.11 756.45,1689.58 1689.58,1689.58 933.13,0 1689.58,-756.47 1689.58,-1689.58z"/>
   <path class="fil1" d="M3601.67 2338.81c0,-895.65 -726.08,-1621.76 -1621.74,-1621.76 -895.66,0 -1621.74,726.11 -1621.74,1621.76 0,895.65 726.08,1621.73 1621.74,1621.73 895.66,0 1621.74,-726.08 1621.74,-1621.73z"/>
   <path class="fil0" d="M3488.26 2338.81c0,-833.03 -675.3,-1508.33 -1508.33,-1508.33 -833.03,0 -1508.33,675.3 -1508.33,1508.33 0,833.03 675.3,1508.32 1508.33,1508.32 833.03,0 1508.33,-675.29 1508.33,-1508.32z"/>
   <path class="fil2" d="M3429.12 2338.81c0,-800.37 -648.84,-1449.19 -1449.19,-1449.19 -800.35,0 -1449.19,648.82 -1449.19,1449.19 0,800.36 648.84,1449.18 1449.19,1449.18 800.35,0 1449.19,-648.82 1449.19,-1449.18z"/>
   <path class="fil3 str0" d="M1923.42 52.95l105.6 -8.9 -0.95 1218.59c-40.14,-15.6 -76.13,-17.28 -106.08,1.31l1.43 -1211z"/>
   <path class="fil3 str1" d="M1596.7 2631.5c336.67,315.48 758.93,65.93 790.89,-16.8l-197.23 0.93c-35.5,1.66 -59.07,0.37 -96.48,2.01 -116.96,5.21 -288.48,-0.46 -400,5.21 -35.98,1.79 -83.58,-2.83 -97.18,8.65z"/>
   <path class="fil3 str0" d="M2006.34 3135.89c-67.83,-9.93 -50.79,58.6 -51.74,170.61 -1.06,133.76 -19.64,184.3 51.02,172.81 23.92,-36.1 14.09,-118.59 14.57,-172.22 0.47,-57.78 10.06,-140.53 -13.85,-171.2z"/>
   <path class="fil3 str0" d="M2464.35 3215c9.35,16.79 79.31,179.93 115.78,104.4 13.02,-27.12 -62.75,-141.6 -79.32,-171.17 -61.44,-109.52 -64.76,-141.6 -118.51,-112.23 -6.62,38.81 17.18,67.13 34.46,96.35 16.45,27.45 32.56,55.51 47.59,82.65z"/>
   <path class="fil3 str0" d="M2998.47 2888.38c-5.09,-24.38 -131.63,-88.91 -157.8,-105.02 -23.32,-14.19 -102.88,-70.91 -129.03,-62.15 -13.14,4.41 -25.1,18.6 -21.42,39.32 3.31,18.8 124.52,82.63 157.55,102.17 23.79,14.18 169.4,116.11 150.7,25.68z"/>
   <path class="fil3 str0" d="M1592.61 3073.88c23.43,-43.22 -17.65,-77.31 -49.24,-45l-143.72 242.34c-25.46,48.88 22.97,72.21 49.13,43.56l98.25 -163.47c16.09,-25.35 32.44,-53.17 45.58,-77.43z"/>
   <path class="fil3 str0" d="M1274.17 2708.09c-30.3,-1.29 -280.08,139.21 -287.18,157.8 -7.7,20.24 1.64,38.58 19.29,43.07 24.03,6.04 142.65,-68.4 170.59,-83.79 113.88,-62.86 145.36,-69.6 97.3,-117.08z"/>
   <path class="fil3 str1" d="M1676.24 1653.59c148.92,-18.58 126.32,-29.1 302.23,-31.38 113.16,-1.42 193.55,13.15 300.33,22.61 -0.95,-130.19 -2.5,-196.03 -69.96,-281.6 -42.39,-53.88 -130.23,-109.26 -235.46,-107.96 -106.32,1.28 -185.86,54.08 -233.45,113.39 -62.03,77.53 -66.65,159.7 -63.69,284.94z"/>
   <path class="fil3 str1" d="M1699.57 1736.64c-9.71,27.57 -44.52,26.27 -119.1,87.6 -76.12,62.63 -141.8,136.96 -198.16,220.43 -75.53,111.85 -184.67,351.58 -193.55,459.31 53.63,9.58 142.88,-2.63 203.26,-0.62 34.21,1.1 66.89,-2.47 101.09,-1.18l1208.3 -21.05c31.48,1.31 63.44,-0.58 93.76,-3.21 -79.21,-274.39 -216.29,-560.17 -536.86,-741.88 -1.89,-2.13 -3.19,-5.32 -4.14,-9.23 -205.98,-22.73 -349.46,-22.37 -554.6,9.83z"/>
  </g>
 </g>
</svg>
